tick,type,time,meta,track,program,channel,pitch,tempo,note,velocity
0,copyright,0,1,0,,,,,,
0,program_change,0,0,0,6,0,,,,
0,pitchwheel,0,0,0,,0,0,,,
0,program_change,0,0,0,6,1,,,,
0,pitchwheel,0,0,0,,1,-590,,,
0,program_change,0,0,0,6,2,,,,
0,pitchwheel,0,0,0,,2,-272,,,
0,program_change,0,0,0,6,3,,,,
0,pitchwheel,0,0,0,,3,-353,,,
0,program_change,0,0,0,6,4,,,,
0,pitchwheel,0,0,0,,4,-560,,,
0,program_change,0,0,0,6,5,,,,
0,pitchwheel,0,0,0,,5,-80,,,
0,program_change,0,0,0,6,6,,,,
0,pitchwheel,0,0,0,,6,-625,,,
0,program_change,0,0,0,6,7,,,,
0,pitchwheel,0,0,0,,7,-130,,,
0,program_change,0,0,0,6,8,,,,
0,pitchwheel,0,0,0,,8,-512,,,
0,program_change,0,0,0,6,10,,,,
0,pitchwheel,0,0,0,,10,-464,,,
0,program_change,0,0,0,6,11,,,,
0,pitchwheel,0,0,0,,11,-208,,,
0,program_change,0,0,0,6,12,,,,
0,pitchwheel,0,0,0,,12,-553,,,
0,set_tempo,0,1,0,,,,500000,,
105,note_on,105,0,0,,3,,,39,127
105,note_on,0,0,0,,7,,,67,127
105,note_on,0,0,0,,7,,,79,127
105,note_on,0,0,0,,3,,,75,127
105,note_on,0,0,0,,11,,,70,127
312,note_off,207,0,0,,3,,,75,127
313,note_off,1,0,0,,7,,,79,127
314,note_on,1,0,0,,3,,,75,127
521,note_off,207,0,0,,11,,,70,127
522,note_off,1,0,0,,3,,,75,127
523,note_on,1,0,0,,11,,,70,127
730,note_off,207,0,0,,7,,,67,127
731,note_off,1,0,0,,11,,,70,127
732,note_on,1,0,0,,7,,,67,127
940,note_off,208,0,0,,7,,,67,127
941,note_on,1,0,0,,3,,,63,127
1149,note_off,208,0,0,,3,,,63,127
1150,note_on,1,0,0,,11,,,58,127
1358,note_off,208,0,0,,11,,,58,127
1359,note_on,1,0,0,,7,,,55,127
1567,note_off,208,0,0,,7,,,55,127
1568,note_on,1,0,0,,3,,,51,127
1776,note_off,208,0,0,,3,,,51,127
1776,note_off,0,0,0,,3,,,39,127
1777,note_on,1,0,0,,3,,,39,127
1985,note_off,208,0,0,,3,,,39,127
1986,note_on,1,0,0,,3,,,51,127
2194,note_off,208,0,0,,3,,,51,127
2195,note_on,1,0,0,,3,,,63,127
2404,note_on,209,0,0,,7,,,79,127
2509,note_off,105,0,0,,3,,,63,127
2613,note_off,104,0,0,,7,,,79,127
2614,note_on,1,0,0,,8,,,68,127
2614,note_on,0,0,0,,2,,,74,127
2666,note_on,52,0,0,,0,,,72,127
2675,note_off,9,0,0,,2,,,74,127
2719,note_on,44,0,0,,2,,,74,127
2728,note_off,9,0,0,,0,,,72,127
2772,note_on,44,0,0,,0,,,72,127
2781,note_off,9,0,0,,2,,,74,127
2824,note_off,43,0,0,,8,,,68,127
2825,note_on,1,0,0,,7,,,67,127
2825,note_on,0,0,0,,12,,,71,127
2834,note_off,9,0,0,,0,,,72,127
3034,note_off,200,0,0,,12,,,71,127
3034,note_off,0,0,0,,7,,,67,127
3035,note_on,1,0,0,,8,,,68,127
3035,note_on,0,0,0,,0,,,72,127
3243,note_off,208,0,0,,0,,,72,127
3243,note_off,0,0,0,,8,,,68,127
3244,note_on,1,0,0,,5,,,65,127
3244,note_on,0,0,0,,8,,,80,127
3452,note_off,208,0,0,,8,,,80,127
3452,note_off,0,0,0,,5,,,65,127
3453,note_on,1,0,0,,7,,,67,127
3453,note_on,0,0,0,,0,,,72,127
3505,note_on,52,0,0,,11,,,70,127
3514,note_off,9,0,0,,0,,,72,127
3558,note_on,44,0,0,,0,,,72,127
3567,note_off,9,0,0,,11,,,70,127
3611,note_on,44,0,0,,11,,,70,127
3620,note_off,9,0,0,,0,,,72,127
3663,note_off,43,0,0,,7,,,67,127
3664,note_on,1,0,0,,5,,,65,127
3664,note_on,0,0,0,,10,,,69,127
3673,note_off,9,0,0,,11,,,70,127
3873,note_off,200,0,0,,10,,,69,127
3873,note_off,0,0,0,,5,,,65,127
3874,note_on,1,0,0,,7,,,67,127
3874,note_on,0,0,0,,11,,,70,127
4082,note_off,208,0,0,,11,,,70,127
4082,note_off,0,0,0,,7,,,67,127
4083,note_on,1,0,0,,3,,,63,127
4083,note_on,0,0,0,,7,,,79,127
4291,note_off,208,0,0,,7,,,79,127
4291,note_off,0,0,0,,3,,,63,127
4292,note_on,1,0,0,,5,,,65,127
4292,note_on,0,0,0,,11,,,70,127
4351,note_on,59,0,0,,8,,,68,127
4358,note_off,7,0,0,,11,,,70,127
4411,note_on,53,0,0,,11,,,70,127
4416,note_off,5,0,0,,8,,,68,127
4471,note_on,55,0,0,,8,,,68,127
4476,note_off,5,0,0,,11,,,70,127
4500,note_off,24,0,0,,5,,,65,127
4501,note_on,1,0,0,,3,,,63,127
4529,note_on,28,0,0,,11,,,70,127
4536,note_off,7,0,0,,8,,,68,127
4589,note_on,53,0,0,,8,,,68,127
4594,note_off,5,0,0,,11,,,70,127
4649,note_on,55,0,0,,11,,,70,127
4654,note_off,5,0,0,,8,,,68,127
4709,note_off,55,0,0,,3,,,63,127
4709,note_on,0,0,0,,8,,,68,127
4710,note_on,1,0,0,,5,,,65,127
4714,note_off,4,0,0,,11,,,70,127
4767,note_on,53,0,0,,11,,,70,127
4774,note_off,7,0,0,,8,,,68,127
4827,note_on,53,0,0,,8,,,68,127
4832,note_off,5,0,0,,11,,,70,127
4887,note_on,55,0,0,,11,,,70,127
4892,note_off,5,0,0,,8,,,68,127
4917,note_off,25,0,0,,5,,,65,127
4918,note_on,1,0,0,,11,,,58,127
4945,note_on,27,0,0,,8,,,68,127
4952,note_off,7,0,0,,11,,,70,127
5005,note_on,53,0,0,,7,,,67,127
5010,note_off,5,0,0,,8,,,68,127
5065,note_on,55,0,0,,8,,,68,127
5070,note_off,5,0,0,,7,,,67,127
5126,note_off,56,0,0,,11,,,58,127
5127,note_on,1,0,0,,3,,,51,127
5127,note_on,0,0,0,,7,,,67,127
5130,note_off,3,0,0,,8,,,68,127
5335,note_off,205,0,0,,3,,,51,127
5336,note_on,1,0,0,,11,,,58,127
5544,note_off,208,0,0,,11,,,58,127
5545,note_on,1,0,0,,3,,,63,127
5753,note_off,208,0,0,,7,,,67,127
5754,note_on,1,0,0,,7,,,79,127
5859,note_off,105,0,0,,3,,,63,127
5963,note_off,104,0,0,,7,,,79,127
5964,note_on,1,0,0,,8,,,68,127
5964,note_on,0,0,0,,2,,,74,127
6016,note_on,52,0,0,,0,,,72,127
6025,note_off,9,0,0,,2,,,74,127
6069,note_on,44,0,0,,2,,,74,127
6078,note_off,9,0,0,,0,,,72,127
6122,note_on,44,0,0,,0,,,72,127
6131,note_off,9,0,0,,2,,,74,127
6174,note_off,43,0,0,,8,,,68,127
6175,note_on,1,0,0,,7,,,67,127
6175,note_on,0,0,0,,12,,,71,127
6184,note_off,9,0,0,,0,,,72,127
6384,note_off,200,0,0,,12,,,71,127
6384,note_off,0,0,0,,7,,,67,127
6385,note_on,1,0,0,,8,,,68,127
6385,note_on,0,0,0,,0,,,72,127
6593,note_off,208,0,0,,0,,,72,127
6593,note_off,0,0,0,,8,,,68,127
6594,note_on,1,0,0,,5,,,65,127
6594,note_on,0,0,0,,8,,,80,127
6802,note_off,208,0,0,,8,,,80,127
6802,note_off,0,0,0,,5,,,65,127
6803,note_on,1,0,0,,7,,,67,127
6803,note_on,0,0,0,,0,,,72,127
6855,note_on,52,0,0,,11,,,70,127
6864,note_off,9,0,0,,0,,,72,127
6908,note_on,44,0,0,,0,,,72,127
6917,note_off,9,0,0,,11,,,70,127
6961,note_on,44,0,0,,11,,,70,127
6970,note_off,9,0,0,,0,,,72,127
7013,note_off,43,0,0,,7,,,67,127
7014,note_on,1,0,0,,5,,,65,127
7014,note_on,0,0,0,,10,,,69,127
7023,note_off,9,0,0,,11,,,70,127
7223,note_off,200,0,0,,10,,,69,127
7223,note_off,0,0,0,,5,,,65,127
7224,note_on,1,0,0,,7,,,67,127
7224,note_on,0,0,0,,11,,,70,127
7432,note_off,208,0,0,,11,,,70,127
7432,note_off,0,0,0,,7,,,67,127
7433,note_on,1,0,0,,3,,,63,127
7433,note_on,0,0,0,,7,,,79,127
7641,note_off,208,0,0,,7,,,79,127
7641,note_off,0,0,0,,3,,,63,127
7642,note_on,1,0,0,,5,,,65,127
7642,note_on,0,0,0,,11,,,70,127
7701,note_on,59,0,0,,8,,,68,127
7708,note_off,7,0,0,,11,,,70,127
7761,note_on,53,0,0,,11,,,70,127
7766,note_off,5,0,0,,8,,,68,127
7821,note_on,55,0,0,,8,,,68,127
7826,note_off,5,0,0,,11,,,70,127
7850,note_off,24,0,0,,5,,,65,127
7851,note_on,1,0,0,,3,,,63,127
7879,note_on,28,0,0,,11,,,70,127
7886,note_off,7,0,0,,8,,,68,127
7939,note_on,53,0,0,,8,,,68,127
7944,note_off,5,0,0,,11,,,70,127
7999,note_on,55,0,0,,11,,,70,127
8004,note_off,5,0,0,,8,,,68,127
8059,note_off,55,0,0,,3,,,63,127
8059,note_on,0,0,0,,8,,,68,127
8060,note_on,1,0,0,,5,,,65,127
8064,note_off,4,0,0,,11,,,70,127
8117,note_on,53,0,0,,11,,,70,127
8124,note_off,7,0,0,,8,,,68,127
8177,note_on,53,0,0,,8,,,68,127
8182,note_off,5,0,0,,11,,,70,127
8237,note_on,55,0,0,,11,,,70,127
8242,note_off,5,0,0,,8,,,68,127
8267,note_off,25,0,0,,5,,,65,127
8268,note_on,1,0,0,,11,,,58,127
8295,note_on,27,0,0,,8,,,68,127
8302,note_off,7,0,0,,11,,,70,127
8355,note_on,53,0,0,,7,,,67,127
8360,note_off,5,0,0,,8,,,68,127
8415,note_on,55,0,0,,8,,,68,127
8420,note_off,5,0,0,,7,,,67,127
8476,note_off,56,0,0,,11,,,58,127
8477,note_on,1,0,0,,3,,,51,127
8477,note_on,0,0,0,,7,,,67,127
8480,note_off,3,0,0,,8,,,68,127
8685,note_off,205,0,0,,3,,,51,127
8686,note_on,1,0,0,,11,,,58,127
8894,note_off,208,0,0,,11,,,58,127
8895,note_on,1,0,0,,3,,,63,127
9103,note_off,208,0,0,,7,,,67,127
9104,note_on,1,0,0,,7,,,79,127
9104,note_on,0,0,0,,11,,,70,127
9312,note_off,208,0,0,,11,,,70,127
9312,note_off,0,0,0,,7,,,79,127
9312,note_off,0,0,0,,3,,,63,127
9313,note_on,1,0,0,,11,,,46,127
9313,note_on,0,0,0,,7,,,79,127
9313,note_on,0,0,0,,11,,,70,127
9521,note_off,208,0,0,,11,,,70,127
9521,note_off,0,0,0,,7,,,79,127
9521,note_off,0,0,0,,11,,,46,127
9522,note_on,1,0,0,,5,,,53,127
9522,note_on,0,0,0,,5,,,77,127
9522,note_on,0,0,0,,8,,,68,127
9730,note_off,208,0,0,,5,,,53,127
9731,note_on,1,0,0,,11,,,58,127
9939,note_off,208,0,0,,8,,,68,127
9939,note_off,0,0,0,,5,,,77,127
9940,note_on,1,0,0,,8,,,68,127
9940,note_on,0,0,0,,5,,,65,127
10148,note_off,208,0,0,,5,,,65,127
10148,note_off,0,0,0,,8,,,68,127
10148,note_off,0,0,0,,11,,,58,127
10149,note_on,1,0,0,,3,,,51,127
10149,note_on,0,0,0,,11,,,70,127
10201,note_on,52,0,0,,8,,,68,127
10210,note_off,9,0,0,,11,,,70,127
10254,note_on,44,0,0,,11,,,70,127
10263,note_off,9,0,0,,8,,,68,127
10307,note_on,44,0,0,,8,,,68,127
10316,note_off,9,0,0,,11,,,70,127
10359,note_off,43,0,0,,3,,,51,127
10360,note_on,1,0,0,,11,,,58,127
10360,note_on,0,0,0,,7,,,67,127
10369,note_off,9,0,0,,8,,,68,127
10569,note_off,200,0,0,,11,,,58,127
10570,note_on,1,0,0,,3,,,63,127
10778,note_off,208,0,0,,7,,,67,127
10779,note_on,1,0,0,,7,,,79,127
10779,note_on,0,0,0,,11,,,70,127
10987,note_off,208,0,0,,11,,,70,127
10987,note_off,0,0,0,,7,,,79,127
10987,note_off,0,0,0,,3,,,63,127
10988,note_on,1,0,0,,11,,,46,127
10988,note_on,0,0,0,,11,,,70,127
10988,note_on,0,0,0,,7,,,79,127
11196,note_off,208,0,0,,7,,,79,127
11196,note_off,0,0,0,,11,,,70,127
11196,note_off,0,0,0,,11,,,46,127
11197,note_on,1,0,0,,5,,,53,127
11197,note_on,0,0,0,,8,,,68,127
11197,note_on,0,0,0,,5,,,77,127
11405,note_off,208,0,0,,5,,,53,127
11406,note_on,1,0,0,,11,,,58,127
11614,note_off,208,0,0,,5,,,77,127
11614,note_off,0,0,0,,8,,,68,127
11615,note_on,1,0,0,,8,,,68,127
11615,note_on,0,0,0,,5,,,65,127
11823,note_off,208,0,0,,5,,,65,127
11823,note_off,0,0,0,,8,,,68,127
11823,note_off,0,0,0,,11,,,58,127
11824,note_on,1,0,0,,3,,,51,127
11824,note_on,0,0,0,,11,,,70,127
11876,note_on,52,0,0,,8,,,68,127
11885,note_off,9,0,0,,11,,,70,127
11929,note_on,44,0,0,,11,,,70,127
11938,note_off,9,0,0,,8,,,68,127
11982,note_on,44,0,0,,8,,,68,127
11991,note_off,9,0,0,,11,,,70,127
12034,note_off,43,0,0,,3,,,51,127
12035,note_on,1,0,0,,11,,,58,127
12035,note_on,0,0,0,,7,,,67,127
12044,note_off,9,0,0,,8,,,68,127
12244,note_off,200,0,0,,11,,,58,127
12245,note_on,1,0,0,,3,,,63,127
12453,note_off,208,0,0,,7,,,67,127
12454,note_on,1,0,0,,7,,,79,127
12454,note_on,0,0,0,,11,,,70,127
12662,note_off,208,0,0,,11,,,70,127
12662,note_off,0,0,0,,7,,,79,127
12662,note_off,0,0,0,,3,,,63,127
12663,note_on,1,0,0,,1,,,49,127
12663,note_on,0,0,0,,7,,,79,127
12663,note_on,0,0,0,,11,,,70,127
12871,note_off,208,0,0,,11,,,70,127
12871,note_off,0,0,0,,7,,,79,127
12871,note_off,0,0,0,,1,,,49,127
12872,note_on,1,0,0,,5,,,53,127
12872,note_on,0,0,0,,8,,,68,127
12872,note_on,0,0,0,,5,,,77,127
13080,note_off,208,0,0,,5,,,53,127
13081,note_on,1,0,0,,11,,,58,127
13289,note_off,208,0,0,,11,,,58,127
13289,note_off,0,0,0,,5,,,77,127
13289,note_off,0,0,0,,8,,,68,127
13290,note_on,1,0,0,,1,,,61,127
13290,note_on,0,0,0,,5,,,77,127
13290,note_on,0,0,0,,8,,,68,127
13498,note_off,208,0,0,,8,,,68,127
13498,note_off,0,0,0,,5,,,77,127
13498,note_off,0,0,0,,1,,,61,127
13499,note_on,1,0,0,,0,,,48,127
13499,note_on,0,0,0,,5,,,77,127
13499,note_on,0,0,0,,8,,,68,127
13707,note_off,208,0,0,,8,,,68,127
13707,note_off,0,0,0,,5,,,77,127
13707,note_off,0,0,0,,0,,,48,127
13708,note_on,1,0,0,,7,,,55,127
13708,note_on,0,0,0,,4,,,76,127
13708,note_on,0,0,0,,7,,,67,127
13916,note_off,208,0,0,,7,,,55,127
13917,note_on,1,0,0,,0,,,60,127
14125,note_off,208,0,0,,7,,,67,127
14125,note_off,0,0,0,,4,,,76,127
14126,note_on,1,0,0,,11,,,70,127
14126,note_on,0,0,0,,7,,,79,127
14334,note_off,208,0,0,,7,,,79,127
14334,note_off,0,0,0,,11,,,70,127
14334,note_off,0,0,0,,0,,,60,127
14335,note_on,1,0,0,,1,,,49,127
14335,note_on,0,0,0,,7,,,79,127
14335,note_on,0,0,0,,11,,,70,127
14543,note_off,208,0,0,,11,,,70,127
14543,note_off,0,0,0,,7,,,79,127
14543,note_off,0,0,0,,1,,,49,127
14544,note_on,1,0,0,,5,,,53,127
14544,note_on,0,0,0,,8,,,68,127
14544,note_on,0,0,0,,5,,,77,127
14752,note_off,208,0,0,,5,,,53,127
14753,note_on,1,0,0,,11,,,58,127
14961,note_off,208,0,0,,11,,,58,127
14961,note_off,0,0,0,,5,,,77,127
14961,note_off,0,0,0,,8,,,68,127
14962,note_on,1,0,0,,1,,,61,127
14962,note_on,0,0,0,,5,,,77,127
14962,note_on,0,0,0,,8,,,68,127
15170,note_off,208,0,0,,8,,,68,127
15170,note_off,0,0,0,,5,,,77,127
15170,note_off,0,0,0,,1,,,61,127
15171,note_on,1,0,0,,0,,,48,127
15171,note_on,0,0,0,,8,,,68,127
15171,note_on,0,0,0,,5,,,77,127
15379,note_off,208,0,0,,5,,,77,127
15379,note_off,0,0,0,,8,,,68,127
15379,note_off,0,0,0,,0,,,48,127
15380,note_on,1,0,0,,7,,,55,127
15380,note_on,0,0,0,,4,,,76,127
15380,note_on,0,0,0,,7,,,67,127
15588,note_off,208,0,0,,7,,,55,127
15589,note_on,1,0,0,,0,,,60,127
15729,note_off,140,0,0,,4,,,76,127
15798,note_off,69,0,0,,7,,,67,127
15799,note_on,1,0,0,,0,,,84,127
15904,note_off,105,0,0,,0,,,60,127
16008,note_off,104,0,0,,0,,,84,127
16009,note_on,1,0,0,,1,,,85,127
16217,note_off,208,0,0,,1,,,85,127
16218,note_on,1,0,0,,11,,,82,127
16426,note_off,208,0,0,,11,,,82,127
16427,note_on,1,0,0,,8,,,80,127
16635,note_off,208,0,0,,8,,,80,127
16636,note_on,1,0,0,,0,,,72,127
16636,note_on,0,0,0,,7,,,79,127
16832,note_off,196,0,0,,7,,,79,127
16844,note_off,12,0,0,,0,,,72,127
16845,note_on,1,0,0,,1,,,73,127
16845,note_on,0,0,0,,7,,,79,127
16897,note_on,52,0,0,,5,,,77,127
16906,note_off,9,0,0,,7,,,79,127
16950,note_on,44,0,0,,7,,,79,127
16959,note_off,9,0,0,,5,,,77,127
17003,note_on,44,0,0,,5,,,77,127
17012,note_off,9,0,0,,7,,,79,127
17055,note_off,43,0,0,,1,,,73,127
17056,note_on,1,0,0,,11,,,70,127
17056,note_on,0,0,0,,4,,,76,127
17065,note_off,9,0,0,,5,,,77,127
17265,note_off,200,0,0,,4,,,76,127
17265,note_off,0,0,0,,11,,,70,127
17266,note_on,1,0,0,,8,,,68,127
17266,note_on,0,0,0,,5,,,77,127
17474,note_off,208,0,0,,5,,,77,127
17474,note_off,0,0,0,,8,,,68,127
17475,note_on,1,0,0,,7,,,67,127
17475,note_on,0,0,0,,0,,,84,127
17683,note_off,208,0,0,,0,,,84,127
17683,note_off,0,0,0,,7,,,67,127
17684,note_on,1,0,0,,5,,,65,127
17684,note_on,0,0,0,,1,,,85,127
17892,note_off,208,0,0,,1,,,85,127
17893,note_on,1,0,0,,11,,,82,127
18101,note_off,208,0,0,,11,,,82,127
18102,note_on,1,0,0,,8,,,80,127
18207,note_off,105,0,0,,5,,,65,127
18311,note_off,104,0,0,,8,,,80,127
18312,note_on,1,0,0,,0,,,72,127
18312,note_on,0,0,0,,7,,,79,127
18508,note_off,196,0,0,,7,,,79,127
18520,note_off,12,0,0,,0,,,72,127
18521,note_on,1,0,0,,1,,,73,127
18521,note_on,0,0,0,,7,,,79,127
18573,note_on,52,0,0,,5,,,77,127
18582,note_off,9,0,0,,7,,,79,127
18626,note_on,44,0,0,,7,,,79,127
18635,note_off,9,0,0,,5,,,77,127
18679,note_on,44,0,0,,5,,,77,127
18688,note_off,9,0,0,,7,,,79,127
18731,note_off,43,0,0,,1,,,73,127
18732,note_on,1,0,0,,11,,,70,127
18732,note_on,0,0,0,,4,,,76,127
18741,note_off,9,0,0,,5,,,77,127
18941,note_off,200,0,0,,4,,,76,127
18941,note_off,0,0,0,,11,,,70,127
18942,note_on,1,0,0,,8,,,68,127
18942,note_on,0,0,0,,5,,,77,127
19150,note_off,208,0,0,,5,,,77,127
19150,note_off,0,0,0,,8,,,68,127
19151,note_on,1,0,0,,7,,,67,127
19151,note_on,0,0,0,,7,,,79,127
19359,note_off,208,0,0,,7,,,79,127
19359,note_off,0,0,0,,7,,,67,127
19360,note_on,1,0,0,,5,,,65,127
19360,note_on,0,0,0,,8,,,80,127
19568,note_off,208,0,0,,8,,,80,127
19569,note_on,1,0,0,,5,,,77,127
19777,note_off,208,0,0,,5,,,77,127
19778,note_on,1,0,0,,3,,,75,127
19883,note_off,105,0,0,,5,,,65,127
19987,note_off,104,0,0,,3,,,75,127
19988,note_on,1,0,0,,7,,,67,127
19988,note_on,0,0,0,,1,,,73,127
20196,note_off,208,0,0,,1,,,73,127
20196,note_off,0,0,0,,7,,,67,127
20197,note_on,1,0,0,,8,,,68,127
20197,note_on,0,0,0,,12,,,71,127
20405,note_off,208,0,0,,12,,,71,127
20405,note_off,0,0,0,,8,,,68,127
20406,note_on,1,0,0,,5,,,65,127
20406,note_on,0,0,0,,0,,,72,127
20614,note_off,208,0,0,,5,,,65,127
20615,note_on,1,0,0,,3,,,63,127
20823,note_off,208,0,0,,3,,,63,127
20823,note_off,0,0,0,,0,,,72,127
20824,note_on,1,0,0,,1,,,61,127
20824,note_on,0,0,0,,5,,,77,127
21032,note_off,208,0,0,,5,,,77,127
21032,note_off,0,0,0,,1,,,61,127
21033,note_on,1,0,0,,0,,,60,127
21033,note_on,0,0,0,,4,,,76,127
21242,note_on,209,0,0,,7,,,67,127
21450,note_off,208,0,0,,7,,,67,127
21450,note_off,0,0,0,,4,,,76,127
21451,note_on,1,0,0,,8,,,68,127
21451,note_on,0,0,0,,5,,,77,127
21659,note_off,208,0,0,,8,,,68,127
21660,note_on,1,0,0,,5,,,65,127
21868,note_off,208,0,0,,5,,,65,127
21868,note_off,0,0,0,,5,,,77,127
21868,note_off,0,0,0,,0,,,60,127
21869,note_on,1,0,0,,11,,,58,127
21869,note_on,0,0,0,,4,,,76,127
21869,note_on,0,0,0,,7,,,79,127
22078,note_on,209,0,0,,7,,,67,127
22285,note_off,207,0,0,,7,,,67,127
22286,note_off,1,0,0,,7,,,79,127
22286,note_off,0,0,0,,4,,,76,127
22286,note_off,0,0,0,,11,,,58,127
22287,note_on,1,0,0,,8,,,56,127
22287,note_on,0,0,0,,8,,,80,127
22287,note_on,0,0,0,,5,,,77,127
22496,note_on,209,0,0,,5,,,65,127
22703,note_off,207,0,0,,5,,,65,127
22704,note_off,1,0,0,,5,,,77,127
22704,note_off,0,0,0,,8,,,80,127
22704,note_off,0,0,0,,8,,,56,127
22705,note_on,1,0,0,,7,,,55,127
22705,note_on,0,0,0,,4,,,76,127
22705,note_on,0,0,0,,11,,,82,127
22705,note_on,0,0,0,,7,,,79,127
22914,note_on,209,0,0,,4,,,64,127
23121,note_off,207,0,0,,4,,,64,127
23122,note_off,1,0,0,,7,,,79,127
23122,note_off,0,0,0,,11,,,82,127
23122,note_off,0,0,0,,4,,,76,127
23122,note_off,0,0,0,,7,,,55,127
23123,note_on,1,0,0,,5,,,53,127
23123,note_on,0,0,0,,8,,,80,127
23123,note_on,0,0,0,,5,,,77,127
23332,note_on,209,0,0,,5,,,65,127
23540,note_off,208,0,0,,5,,,65,127
23540,note_off,0,0,0,,5,,,77,127
23540,note_off,0,0,0,,8,,,80,127
23540,note_off,0,0,0,,5,,,53,127
23541,note_on,1,0,0,,11,,,58,127
23541,note_on,0,0,0,,4,,,76,127
23541,note_on,0,0,0,,7,,,79,127
23749,note_off,208,0,0,,11,,,58,127
23750,note_on,1,0,0,,0,,,60,127
23958,note_off,208,0,0,,0,,,60,127
23958,note_off,0,0,0,,7,,,79,127
23958,note_off,0,0,0,,4,,,76,127
23959,note_on,1,0,0,,1,,,61,127
23959,note_on,0,0,0,,5,,,77,127
24167,note_off,208,0,0,,1,,,61,127
24168,note_on,1,0,0,,11,,,58,127
24376,note_off,208,0,0,,11,,,58,127
24376,note_off,0,0,0,,5,,,77,127
24377,note_on,1,0,0,,0,,,48,127
24377,note_on,0,0,0,,7,,,79,127
24429,note_on,52,0,0,,5,,,77,127
24438,note_off,9,0,0,,7,,,79,127
24482,note_on,44,0,0,,7,,,79,127
24491,note_off,9,0,0,,5,,,77,127
24535,note_on,44,0,0,,5,,,77,127
24544,note_off,9,0,0,,7,,,79,127
24588,note_on,44,0,0,,4,,,76,127
24597,note_off,9,0,0,,5,,,77,127
24798,note_on,201,0,0,,0,,,60,127
25003,note_off,205,0,0,,4,,,76,127
25007,note_on,4,0,0,,0,,,84,127
25007,note_on,0,0,0,,0,,,72,127
25215,note_off,208,0,0,,0,,,72,127
25215,note_off,0,0,0,,0,,,84,127
25215,note_off,0,0,0,,0,,,60,127
25215,note_off,0,0,0,,0,,,48,127
25216,note_on,1,0,0,,1,,,73,127
25216,note_on,0,0,0,,0,,,84,127
25424,note_off,208,0,0,,0,,,84,127
25425,note_on,1,0,0,,11,,,70,127
25425,note_on,0,0,0,,10,,,81,127
25633,note_off,208,0,0,,11,,,70,127
25634,note_on,1,0,0,,6,,,66,127
25842,note_off,208,0,0,,6,,,66,127
25842,note_off,0,0,0,,10,,,81,127
25843,note_on,1,0,0,,3,,,63,127
25843,note_on,0,0,0,,11,,,82,127
26051,note_off,208,0,0,,11,,,82,127
26051,note_off,0,0,0,,3,,,63,127
26051,note_off,0,0,0,,1,,,73,127
26052,note_on,1,0,0,,5,,,53,127
26052,note_on,0,0,0,,0,,,72,127
26052,note_on,0,0,0,,11,,,82,127
26260,note_off,208,0,0,,11,,,82,127
26261,note_on,1,0,0,,10,,,81,127
26470,note_on,209,0,0,,5,,,65,127
26678,note_off,208,0,0,,10,,,81,127
26678,note_off,0,0,0,,0,,,72,127
26679,note_on,1,0,0,,0,,,84,127
26679,note_on,0,0,0,,0,,,72,127
26887,note_off,208,0,0,,0,,,72,127
26887,note_off,0,0,0,,0,,,84,127
26887,note_off,0,0,0,,5,,,65,127
26887,note_off,0,0,0,,5,,,53,127
26888,note_on,1,0,0,,1,,,73,127
26888,note_on,0,0,0,,0,,,84,127
27096,note_off,208,0,0,,0,,,84,127
27097,note_on,1,0,0,,11,,,70,127
27097,note_on,0,0,0,,10,,,81,127
27305,note_off,208,0,0,,11,,,70,127
27306,note_on,1,0,0,,6,,,66,127
27514,note_off,208,0,0,,6,,,66,127
27514,note_off,0,0,0,,10,,,81,127
27515,note_on,1,0,0,,3,,,63,127
27515,note_on,0,0,0,,11,,,82,127
27723,note_off,208,0,0,,11,,,82,127
27723,note_off,0,0,0,,3,,,63,127
27723,note_off,0,0,0,,1,,,73,127
27724,note_on,1,0,0,,5,,,65,127
27724,note_on,0,0,0,,11,,,82,127
27724,note_on,0,0,0,,0,,,72,127
27932,note_off,208,0,0,,11,,,82,127
27933,note_on,1,0,0,,10,,,81,127
28142,note_on,209,0,0,,5,,,53,127
28342,note_off,200,0,0,,10,,,81,127
28351,note_off,9,0,0,,0,,,72,127
28351,note_off,0,0,0,,5,,,65,127
28352,note_on,1,0,0,,5,,,65,127
28352,note_on,0,0,0,,5,,,77,127
28560,note_off,208,0,0,,5,,,77,127
28560,note_off,0,0,0,,5,,,65,127
28560,note_off,0,0,0,,5,,,53,127
28561,note_on,1,0,0,,6,,,66,127
28561,note_on,0,0,0,,5,,,77,127
28769,note_off,208,0,0,,5,,,77,127
28770,note_on,1,0,0,,3,,,63,127
28770,note_on,0,0,0,,2,,,74,127
28978,note_off,208,0,0,,3,,,63,127
28979,note_on,1,0,0,,12,,,59,127
29187,note_off,208,0,0,,12,,,59,127
29187,note_off,0,0,0,,2,,,74,127
29188,note_on,1,0,0,,8,,,56,127
29188,note_on,0,0,0,,3,,,75,127
29396,note_off,208,0,0,,3,,,75,127
29396,note_off,0,0,0,,8,,,56,127
29396,note_off,0,0,0,,6,,,66,127
29397,note_on,1,0,0,,11,,,58,127
29397,note_on,0,0,0,,3,,,75,127
29397,note_on,0,0,0,,5,,,65,127
29605,note_off,208,0,0,,3,,,75,127
29606,note_on,1,0,0,,2,,,74,127
29815,note_on,209,0,0,,11,,,46,127
30023,note_off,208,0,0,,2,,,74,127
30023,note_off,0,0,0,,5,,,65,127
30024,note_on,1,0,0,,5,,,77,127
30024,note_on,0,0,0,,5,,,65,127
30232,note_off,208,0,0,,5,,,65,127
30232,note_off,0,0,0,,5,,,77,127
30232,note_off,0,0,0,,11,,,46,127
30232,note_off,0,0,0,,11,,,58,127
30233,note_on,1,0,0,,5,,,77,127
30233,note_on,0,0,0,,6,,,66,127
30441,note_off,208,0,0,,5,,,77,127
30442,note_on,1,0,0,,3,,,63,127
30442,note_on,0,0,0,,2,,,74,127
30650,note_off,208,0,0,,3,,,63,127
30651,note_on,1,0,0,,12,,,59,127
30859,note_off,208,0,0,,12,,,59,127
30859,note_off,0,0,0,,2,,,74,127
30860,note_on,1,0,0,,8,,,56,127
30860,note_on,0,0,0,,3,,,75,127
31068,note_off,208,0,0,,3,,,75,127
31068,note_off,0,0,0,,8,,,56,127
31068,note_off,0,0,0,,6,,,66,127
31069,note_on,1,0,0,,11,,,58,127
31069,note_on,0,0,0,,3,,,75,127
31069,note_on,0,0,0,,5,,,65,127
31277,note_off,208,0,0,,3,,,75,127
31278,note_on,1,0,0,,2,,,74,127
31487,note_on,209,0,0,,11,,,46,127
31692,note_off,205,0,0,,2,,,74,127
31695,note_off,3,0,0,,5,,,65,127
31696,note_on,1,0,0,,5,,,77,127
31799,note_off,103,0,0,,11,,,58,127
31905,note_off,106,0,0,,5,,,77,127
31905,note_off,0,0,0,,11,,,46,127
31906,note_on,1,0,0,,3,,,51,127
31906,note_on,0,0,0,,5,,,77,127
32010,note_off,104,0,0,,5,,,77,127
32011,note_on,1,0,0,,3,,,75,127
32115,note_off,104,0,0,,3,,,75,127
32116,note_on,1,0,0,,7,,,79,127
32220,note_off,104,0,0,,7,,,79,127
32221,note_on,1,0,0,,5,,,77,127
32325,note_off,104,0,0,,5,,,77,127
32326,note_on,1,0,0,,0,,,60,127
32326,note_on,0,0,0,,3,,,75,127
32430,note_off,104,0,0,,3,,,75,127
32431,note_on,1,0,0,,2,,,74,127
32535,note_off,104,0,0,,2,,,74,127
32536,note_on,1,0,0,,0,,,72,127
32640,note_off,104,0,0,,0,,,72,127
32641,note_on,1,0,0,,11,,,70,127
32745,note_off,104,0,0,,11,,,70,127
32745,note_off,0,0,0,,3,,,51,127
32746,note_on,1,0,0,,5,,,53,127
32746,note_on,0,0,0,,0,,,72,127
32798,note_on,52,0,0,,11,,,70,127
32807,note_off,9,0,0,,0,,,72,127
32851,note_on,44,0,0,,0,,,72,127
32860,note_off,9,0,0,,11,,,70,127
32904,note_on,44,0,0,,11,,,70,127
32913,note_off,9,0,0,,0,,,72,127
32956,note_off,43,0,0,,0,,,60,127
32957,note_on,1,0,0,,0,,,60,127
32957,note_on,0,0,0,,10,,,69,127
32966,note_off,9,0,0,,11,,,70,127
33166,note_off,200,0,0,,5,,,53,127
33167,note_on,1,0,0,,2,,,50,127
33272,note_off,105,0,0,,0,,,60,127
33376,note_off,104,0,0,,10,,,69,127
33377,note_on,1,0,0,,11,,,58,127
33377,note_on,0,0,0,,5,,,65,127
33585,note_off,208,0,0,,5,,,65,127
33585,note_off,0,0,0,,11,,,58,127
33585,note_off,0,0,0,,2,,,50,127
33586,note_on,1,0,0,,3,,,51,127
33586,note_on,0,0,0,,5,,,65,127
33690,note_off,104,0,0,,5,,,65,127
33691,note_on,1,0,0,,3,,,63,127
33795,note_off,104,0,0,,3,,,63,127
33796,note_on,1,0,0,,7,,,67,127
33900,note_off,104,0,0,,7,,,67,127
33901,note_on,1,0,0,,5,,,65,127
34005,note_off,104,0,0,,5,,,65,127
34006,note_on,1,0,0,,3,,,39,127
34006,note_on,0,0,0,,3,,,63,127
34110,note_off,104,0,0,,3,,,63,127
34111,note_on,1,0,0,,2,,,62,127
34215,note_off,104,0,0,,2,,,62,127
34216,note_on,1,0,0,,0,,,60,127
34320,note_off,104,0,0,,0,,,60,127
34321,note_on,1,0,0,,11,,,58,127
34425,note_off,104,0,0,,11,,,58,127
34425,note_off,0,0,0,,3,,,39,127
34425,note_off,0,0,0,,3,,,51,127
34426,note_on,1,0,0,,5,,,41,127
34426,note_on,0,0,0,,0,,,60,127
34478,note_on,52,0,0,,11,,,58,127
34487,note_off,9,0,0,,0,,,60,127
34531,note_on,44,0,0,,0,,,60,127
34540,note_off,9,0,0,,11,,,58,127
34584,note_on,44,0,0,,11,,,58,127
34593,note_off,9,0,0,,0,,,60,127
34637,note_on,44,0,0,,5,,,53,127
34637,note_on,0,0,0,,10,,,57,127
34646,note_off,9,0,0,,11,,,58,127
34846,note_off,200,0,0,,5,,,53,127
34846,note_off,0,0,0,,5,,,41,127
34847,note_on,1,0,0,,2,,,50,127
34951,note_off,104,0,0,,10,,,57,127
34952,note_on,1,0,0,,5,,,65,127
35056,note_off,104,0,0,,5,,,65,127
35057,note_on,1,0,0,,11,,,58,127
35057,note_on,0,0,0,,7,,,67,127
35161,note_off,104,0,0,,7,,,67,127
35162,note_on,1,0,0,,10,,,69,127
35266,note_off,104,0,0,,10,,,69,127
35266,note_off,0,0,0,,2,,,50,127
35267,note_on,1,0,0,,3,,,51,127
35267,note_on,0,0,0,,10,,,69,127
35371,note_off,104,0,0,,10,,,69,127
35372,note_on,1,0,0,,7,,,67,127
35476,note_off,104,0,0,,7,,,67,127
35476,note_off,0,0,0,,11,,,58,127
35477,note_on,1,0,0,,0,,,60,127
35477,note_on,0,0,0,,10,,,69,127
35581,note_off,104,0,0,,10,,,69,127
35582,note_on,1,0,0,,11,,,70,127
35686,note_off,104,0,0,,11,,,70,127
35686,note_off,0,0,0,,3,,,51,127
35687,note_on,1,0,0,,5,,,53,127
35687,note_on,0,0,0,,11,,,70,127
35791,note_off,104,0,0,,11,,,70,127
35792,note_on,1,0,0,,10,,,69,127
35896,note_off,104,0,0,,10,,,69,127
35896,note_off,0,0,0,,0,,,60,127
35897,note_on,1,0,0,,2,,,62,127
35897,note_on,0,0,0,,11,,,70,127
36001,note_off,104,0,0,,11,,,70,127
36002,note_on,1,0,0,,0,,,72,127
36106,note_off,104,0,0,,0,,,72,127
36106,note_off,0,0,0,,5,,,53,127
36107,note_on,1,0,0,,7,,,55,127
36107,note_on,0,0,0,,0,,,72,127
36211,note_off,104,0,0,,0,,,72,127
36212,note_on,1,0,0,,11,,,70,127
36316,note_off,104,0,0,,11,,,70,127
36316,note_off,0,0,0,,2,,,62,127
36317,note_on,1,0,0,,3,,,63,127
36317,note_on,0,0,0,,0,,,72,127
36421,note_off,104,0,0,,0,,,72,127
36422,note_on,1,0,0,,2,,,74,127
36526,note_off,104,0,0,,2,,,74,127
36526,note_off,0,0,0,,7,,,55,127
36527,note_on,1,0,0,,10,,,57,127
36527,note_on,0,0,0,,2,,,74,127
36631,note_off,104,0,0,,2,,,74,127
36632,note_on,1,0,0,,0,,,72,127
36736,note_off,104,0,0,,0,,,72,127
36736,note_off,0,0,0,,3,,,63,127
36737,note_on,1,0,0,,5,,,65,127
36737,note_on,0,0,0,,2,,,74,127
36841,note_off,104,0,0,,2,,,74,127
36842,note_on,1,0,0,,3,,,75,127
36946,note_off,104,0,0,,3,,,75,127
36946,note_off,0,0,0,,10,,,57,127
36947,note_on,1,0,0,,11,,,58,127
36947,note_on,0,0,0,,3,,,75,127
37051,note_off,104,0,0,,3,,,75,127
37052,note_on,1,0,0,,2,,,74,127
37156,note_off,104,0,0,,2,,,74,127
37156,note_off,0,0,0,,5,,,65,127
37157,note_on,1,0,0,,7,,,67,127
37157,note_on,0,0,0,,3,,,75,127
37261,note_off,104,0,0,,3,,,75,127
37262,note_on,1,0,0,,5,,,77,127
37366,note_off,104,0,0,,5,,,77,127
37366,note_off,0,0,0,,11,,,58,127
37367,note_on,1,0,0,,0,,,60,127
37367,note_on,0,0,0,,5,,,77,127
37471,note_off,104,0,0,,5,,,77,127
37472,note_on,1,0,0,,3,,,75,127
37576,note_off,104,0,0,,3,,,75,127
37576,note_off,0,0,0,,7,,,67,127
37577,note_on,1,0,0,,10,,,69,127
37577,note_on,0,0,0,,5,,,77,127
37681,note_off,104,0,0,,5,,,77,127
37682,note_on,1,0,0,,7,,,79,127
37786,note_off,104,0,0,,7,,,79,127
37786,note_off,0,0,0,,0,,,60,127
37787,note_on,1,0,0,,2,,,62,127
37787,note_on,0,0,0,,7,,,79,127
37891,note_off,104,0,0,,7,,,79,127
37892,note_on,1,0,0,,5,,,77,127
37996,note_off,104,0,0,,5,,,77,127
37996,note_off,0,0,0,,10,,,69,127
37997,note_on,1,0,0,,11,,,70,127
37997,note_on,0,0,0,,7,,,79,127
38101,note_off,104,0,0,,7,,,79,127
38102,note_on,1,0,0,,10,,,81,127
38206,note_off,104,0,0,,10,,,81,127
38206,note_off,0,0,0,,2,,,62,127
38207,note_on,1,0,0,,3,,,63,127
38207,note_on,0,0,0,,10,,,81,127
38311,note_off,104,0,0,,10,,,81,127
38312,note_on,1,0,0,,7,,,79,127
38416,note_off,104,0,0,,7,,,79,127
38416,note_off,0,0,0,,11,,,70,127
38417,note_on,1,0,0,,0,,,72,127
38417,note_on,0,0,0,,10,,,81,127
38521,note_off,104,0,0,,10,,,81,127
38522,note_on,1,0,0,,11,,,82,127
38626,note_off,104,0,0,,11,,,82,127
38626,note_off,0,0,0,,0,,,72,127
38626,note_off,0,0,0,,3,,,63,127
38627,note_on,1,0,0,,5,,,65,127
38627,note_on,0,0,0,,11,,,82,127
38731,note_off,104,0,0,,11,,,82,127
38732,note_on,1,0,0,,10,,,81,127
38836,note_off,104,0,0,,10,,,81,127
38837,note_on,1,0,0,,7,,,79,127
38941,note_off,104,0,0,,7,,,79,127
38942,note_on,1,0,0,,5,,,77,127
39046,note_off,104,0,0,,5,,,77,127
39047,note_on,1,0,0,,2,,,86,127
39047,note_on,0,0,0,,11,,,82,127
39160,note_off,113,0,0,,5,,,65,127
39256,note_on,96,0,0,,2,,,62,127
39464,note_off,208,0,0,,2,,,62,127
39465,note_on,1,0,0,,3,,,63,127
39673,note_off,208,0,0,,11,,,82,127
39673,note_off,0,0,0,,2,,,86,127
39674,note_on,1,0,0,,7,,,79,127
39674,note_on,0,0,0,,3,,,75,127
39882,note_off,208,0,0,,3,,,75,127
39882,note_off,0,0,0,,7,,,79,127
39882,note_off,0,0,0,,3,,,63,127
39883,note_on,1,0,0,,5,,,65,127
39883,note_on,0,0,0,,5,,,77,127
39883,note_on,0,0,0,,2,,,74,127
40091,note_off,208,0,0,,2,,,74,127
40091,note_off,0,0,0,,5,,,77,127
40092,note_on,1,0,0,,0,,,72,127
40092,note_on,0,0,0,,3,,,75,127
40300,note_off,208,0,0,,3,,,75,127
40300,note_off,0,0,0,,0,,,72,127
40300,note_off,0,0,0,,5,,,65,127
40301,note_on,1,0,0,,11,,,58,127
40301,note_on,0,0,0,,3,,,75,127
40301,note_on,0,0,0,,0,,,72,127
40509,note_off,208,0,0,,0,,,72,127
40509,note_off,0,0,0,,3,,,75,127
40510,note_on,1,0,0,,2,,,74,127
40510,note_on,0,0,0,,11,,,70,127
40718,note_off,208,0,0,,11,,,70,127
40718,note_off,0,0,0,,2,,,74,127
40719,note_on,1,0,0,,11,,,82,127
40719,note_on,0,0,0,,2,,,86,127
40824,note_off,105,0,0,,11,,,58,127
40929,note_on,105,0,0,,2,,,50,127
41137,note_off,208,0,0,,2,,,50,127
41138,note_on,1,0,0,,3,,,51,127
41346,note_off,208,0,0,,2,,,86,127
41346,note_off,0,0,0,,11,,,82,127
41347,note_on,1,0,0,,2,,,62,127
41347,note_on,0,0,0,,11,,,70,127
41555,note_off,208,0,0,,11,,,70,127
41555,note_off,0,0,0,,2,,,62,127
41556,note_on,1,0,0,,0,,,72,127
41556,note_on,0,0,0,,3,,,63,127
41764,note_off,208,0,0,,3,,,63,127
41764,note_off,0,0,0,,0,,,72,127
41764,note_off,0,0,0,,3,,,51,127
41765,note_on,1,0,0,,5,,,53,127
41765,note_on,0,0,0,,10,,,69,127
41765,note_on,0,0,0,,0,,,60,127
41973,note_off,208,0,0,,0,,,60,127
41973,note_off,0,0,0,,10,,,69,127
41973,note_off,0,0,0,,5,,,53,127
41974,note_on,1,0,0,,2,,,50,127
41974,note_on,0,0,0,,10,,,69,127
41974,note_on,0,0,0,,0,,,60,127
42182,note_off,208,0,0,,0,,,60,127
42182,note_off,0,0,0,,10,,,69,127
42183,note_on,1,0,0,,11,,,70,127
42183,note_on,0,0,0,,2,,,62,127
42391,note_off,208,0,0,,2,,,62,127
42391,note_off,0,0,0,,11,,,70,127
42392,note_on,1,0,0,,11,,,82,127
42392,note_on,0,0,0,,2,,,86,127
42497,note_off,105,0,0,,2,,,50,127
42602,note_on,105,0,0,,11,,,46,127
42810,note_off,208,0,0,,11,,,46,127
42811,note_on,1,0,0,,3,,,51,127
43019,note_off,208,0,0,,2,,,86,127
43019,note_off,0,0,0,,11,,,82,127
43020,note_on,1,0,0,,3,,,63,127
43020,note_on,0,0,0,,7,,,67,127
43228,note_off,208,0,0,,7,,,67,127
43228,note_off,0,0,0,,3,,,63,127
43228,note_off,0,0,0,,3,,,51,127
43229,note_on,1,0,0,,5,,,41,127
43229,note_on,0,0,0,,5,,,53,127
43229,note_on,0,0,0,,5,,,65,127
43229,note_on,0,0,0,,2,,,62,127
43437,note_off,208,0,0,,2,,,62,127
43437,note_off,0,0,0,,5,,,65,127
43438,note_on,1,0,0,,3,,,63,127
43438,note_on,0,0,0,,0,,,60,127
43646,note_off,208,0,0,,0,,,60,127
43646,note_off,0,0,0,,3,,,63,127
43646,note_off,0,0,0,,5,,,53,127
43646,note_off,0,0,0,,5,,,41,127
43647,note_on,1,0,0,,11,,,46,127
43647,note_on,0,0,0,,0,,,60,127
43647,note_on,0,0,0,,3,,,63,127
43855,note_off,208,0,0,,3,,,63,127
43855,note_off,0,0,0,,0,,,60,127
43856,note_on,1,0,0,,2,,,62,127
43856,note_on,0,0,0,,11,,,58,127
44064,note_off,208,0,0,,11,,,58,127
44064,note_off,0,0,0,,2,,,62,127
44065,note_on,1,0,0,,11,,,82,127
44065,note_on,0,0,0,,2,,,86,127
44170,note_off,105,0,0,,11,,,46,127
44275,note_on,105,0,0,,2,,,50,127
44483,note_off,208,0,0,,2,,,50,127
44484,note_on,1,0,0,,7,,,55,127
44692,note_off,208,0,0,,2,,,86,127
44692,note_off,0,0,0,,11,,,82,127
44693,note_on,1,0,0,,2,,,62,127
44693,note_on,0,0,0,,11,,,70,127
44901,note_off,208,0,0,,11,,,70,127
44901,note_off,0,0,0,,2,,,62,127
44901,note_off,0,0,0,,7,,,55,127
44902,note_on,1,0,0,,3,,,51,127
44902,note_on,0,0,0,,0,,,72,127
44902,note_on,0,0,0,,3,,,63,127
45110,note_off,208,0,0,,3,,,63,127
45110,note_off,0,0,0,,0,,,72,127
45110,note_off,0,0,0,,3,,,51,127
45111,note_on,1,0,0,,5,,,53,127
45111,note_on,0,0,0,,0,,,60,127
45111,note_on,0,0,0,,10,,,69,127
45319,note_off,208,0,0,,10,,,69,127
45319,note_off,0,0,0,,0,,,60,127
45319,note_off,0,0,0,,5,,,53,127
45320,note_on,1,0,0,,2,,,50,127
45320,note_on,0,0,0,,11,,,70,127
45320,note_on,0,0,0,,2,,,62,127
45528,note_off,208,0,0,,2,,,62,127
45529,note_on,1,0,0,,5,,,77,127
45734,note_off,205,0,0,,11,,,70,127
45737,note_off,3,0,0,,5,,,77,127
45738,note_on,1,0,0,,11,,,70,127
45908,note_off,170,0,0,,2,,,50,127
45946,note_off,38,0,0,,11,,,70,127
45947,note_on,1,0,0,,11,,,46,127
45947,note_on,0,0,0,,5,,,77,127
46155,note_off,208,0,0,,5,,,77,127
46155,note_off,0,0,0,,11,,,46,127
46156,note_on,1,0,0,,7,,,55,127
46156,note_on,0,0,0,,11,,,70,127
46364,note_off,208,0,0,,11,,,70,127
46364,note_off,0,0,0,,7,,,55,127
46365,note_on,1,0,0,,3,,,51,127
46365,note_on,0,0,0,,7,,,79,127
46573,note_off,208,0,0,,7,,,79,127
46573,note_off,0,0,0,,3,,,51,127
46574,note_on,1,0,0,,5,,,53,127
46574,note_on,0,0,0,,5,,,77,127
46678,note_off,104,0,0,,5,,,77,127
46679,note_on,1,0,0,,3,,,75,127
46783,note_off,104,0,0,,3,,,75,127
46784,note_on,1,0,0,,5,,,41,127
46784,note_on,0,0,0,,2,,,74,127
46888,note_off,104,0,0,,2,,,74,127
46889,note_on,1,0,0,,0,,,72,127
46993,note_off,104,0,0,,0,,,72,127
46993,note_off,0,0,0,,5,,,41,127
46993,note_off,0,0,0,,5,,,53,127
46994,note_on,1,0,0,,11,,,46,127
46994,note_on,0,0,0,,11,,,70,127
47202,note_off,208,0,0,,11,,,70,127
47203,note_on,1,0,0,,5,,,65,127
47411,note_off,208,0,0,,5,,,65,127
47412,note_on,1,0,0,,11,,,58,127
47593,note_off,181,0,0,,11,,,46,127
47620,note_off,27,0,0,,11,,,58,127
47621,note_on,1,0,0,,2,,,50,127
47621,note_on,0,0,0,,5,,,65,127
47829,note_off,208,0,0,,5,,,65,127
47829,note_off,0,0,0,,2,,,50,127
47830,note_on,1,0,0,,7,,,55,127
47830,note_on,0,0,0,,11,,,58,127
48038,note_off,208,0,0,,11,,,58,127
48038,note_off,0,0,0,,7,,,55,127
48039,note_on,1,0,0,,3,,,51,127
48039,note_on,0,0,0,,7,,,67,127
48247,note_off,208,0,0,,7,,,67,127
48247,note_off,0,0,0,,3,,,51,127
48248,note_on,1,0,0,,5,,,53,127
48248,note_on,0,0,0,,5,,,65,127
48352,note_off,104,0,0,,5,,,65,127
48353,note_on,1,0,0,,3,,,63,127
48457,note_off,104,0,0,,3,,,63,127
48458,note_on,1,0,0,,5,,,41,127
48458,note_on,0,0,0,,2,,,62,127
48562,note_off,104,0,0,,2,,,62,127
48563,note_on,1,0,0,,0,,,60,127
48664,note_off,101,0,0,,0,,,60,127
48666,note_off,2,0,0,,5,,,41,127
48666,note_off,0,0,0,,5,,,53,127
48667,note_on,1,0,0,,11,,,46,127
48667,note_on,0,0,0,,0,,,60,127
48726,note_on,59,0,0,,11,,,58,127
48733,note_off,7,0,0,,0,,,60,127
48786,note_on,53,0,0,,0,,,60,127
48791,note_off,5,0,0,,11,,,58,127
48846,note_on,55,0,0,,11,,,58,127
48851,note_off,5,0,0,,0,,,60,127
48904,note_on,53,0,0,,0,,,60,127
48911,note_off,7,0,0,,11,,,58,127
48964,note_on,53,0,0,,11,,,58,127
48969,note_off,5,0,0,,0,,,60,127
49024,note_on,55,0,0,,0,,,60,127
49029,note_off,5,0,0,,11,,,58,127
49084,note_on,55,0,0,,11,,,58,127
49089,note_off,5,0,0,,0,,,60,127
49142,note_on,53,0,0,,0,,,60,127
49149,note_off,7,0,0,,11,,,58,127
49202,note_on,53,0,0,,11,,,58,127
49207,note_off,5,0,0,,0,,,60,127
49262,note_on,55,0,0,,0,,,60,127
49267,note_off,5,0,0,,11,,,58,127
49320,note_on,53,0,0,,11,,,58,127
49327,note_off,7,0,0,,0,,,60,127
49380,note_on,53,0,0,,0,,,60,127
49385,note_off,5,0,0,,11,,,58,127
49440,note_on,55,0,0,,11,,,58,127
49445,note_off,5,0,0,,0,,,60,127
49501,note_off,56,0,0,,11,,,46,127
49502,note_on,1,0,0,,7,,,55,127
49505,note_off,3,0,0,,11,,,58,127
49711,note_on,206,0,0,,7,,,79,127
49919,note_off,208,0,0,,7,,,79,127
49920,note_on,1,0,0,,12,,,71,127
50128,note_off,208,0,0,,12,,,71,127
50129,note_on,1,0,0,,7,,,67,127
50129,note_on,0,0,0,,0,,,72,127
50337,note_off,208,0,0,,0,,,72,127
50337,note_off,0,0,0,,7,,,67,127
50338,note_on,1,0,0,,12,,,59,127
50338,note_on,0,0,0,,2,,,74,127
50546,note_off,208,0,0,,2,,,74,127
50546,note_off,0,0,0,,12,,,59,127
50547,note_on,1,0,0,,0,,,60,127
50547,note_on,0,0,0,,3,,,75,127
50755,note_off,208,0,0,,3,,,75,127
50755,note_off,0,0,0,,0,,,60,127
50756,note_on,1,0,0,,2,,,62,127
50756,note_on,0,0,0,,5,,,77,127
50964,note_off,208,0,0,,5,,,77,127
50964,note_off,0,0,0,,2,,,62,127
50965,note_on,1,0,0,,3,,,63,127
50965,note_on,0,0,0,,7,,,79,127
51173,note_off,208,0,0,,7,,,79,127
51173,note_off,0,0,0,,3,,,63,127
51173,note_off,0,0,0,,7,,,55,127
51174,note_on,1,0,0,,5,,,65,127
51174,note_on,0,0,0,,7,,,55,127
51174,note_on,0,0,0,,11,,,82,127
51174,note_on,0,0,0,,8,,,80,127
51382,note_off,208,0,0,,8,,,80,127
51382,note_off,0,0,0,,11,,,82,127
51382,note_off,0,0,0,,5,,,65,127
51383,note_on,1,0,0,,7,,,67,127
51383,note_on,0,0,0,,7,,,79,127
51591,note_off,208,0,0,,7,,,79,127
51591,note_off,0,0,0,,7,,,67,127
51592,note_on,1,0,0,,8,,,68,127
51592,note_on,0,0,0,,5,,,77,127
51800,note_off,208,0,0,,5,,,77,127
51800,note_off,0,0,0,,8,,,68,127
51801,note_on,1,0,0,,7,,,67,127
51801,note_on,0,0,0,,3,,,75,127
52009,note_off,208,0,0,,3,,,75,127
52009,note_off,0,0,0,,7,,,67,127
52009,note_off,0,0,0,,7,,,55,127
52010,note_on,1,0,0,,5,,,65,127
52010,note_on,0,0,0,,7,,,55,127
52010,note_on,0,0,0,,2,,,74,127
52218,note_off,208,0,0,,2,,,74,127
52218,note_off,0,0,0,,5,,,65,127
52219,note_on,1,0,0,,3,,,63,127
52219,note_on,0,0,0,,0,,,72,127
52427,note_off,208,0,0,,0,,,72,127
52427,note_off,0,0,0,,3,,,63,127
52428,note_on,1,0,0,,2,,,62,127
52428,note_on,0,0,0,,12,,,71,127
52636,note_off,208,0,0,,12,,,71,127
52636,note_off,0,0,0,,2,,,62,127
52637,note_on,1,0,0,,0,,,60,127
52637,note_on,0,0,0,,0,,,72,127
52845,note_off,208,0,0,,0,,,72,127
52845,note_off,0,0,0,,0,,,60,127
52845,note_off,0,0,0,,7,,,55,127
52846,note_on,1,0,0,,12,,,59,127
52846,note_on,0,0,0,,2,,,74,127
53054,note_off,208,0,0,,12,,,59,127
53055,note_on,1,0,0,,7,,,55,127
53263,note_off,208,0,0,,7,,,55,127
53263,note_off,0,0,0,,2,,,74,127
53264,note_on,1,0,0,,0,,,60,127
53264,note_on,0,0,0,,5,,,77,127
53316,note_on,52,0,0,,3,,,75,127
53325,note_off,9,0,0,,5,,,77,127
53369,note_on,44,0,0,,5,,,77,127
53378,note_off,9,0,0,,3,,,75,127
53422,note_on,44,0,0,,3,,,75,127
53431,note_off,9,0,0,,5,,,77,127
53475,note_on,44,0,0,,0,,,48,127
53475,note_on,0,0,0,,2,,,74,127
53484,note_off,9,0,0,,3,,,75,127
53579,note_off,95,0,0,,2,,,74,127
53580,note_on,1,0,0,,3,,,75,127
53684,note_off,104,0,0,,3,,,75,127
53684,note_off,0,0,0,,0,,,48,127
53684,note_off,0,0,0,,0,,,60,127
53685,note_on,1,0,0,,5,,,53,127
53685,note_on,0,0,0,,5,,,77,127
53685,note_on,0,0,0,,8,,,68,127
53893,note_off,208,0,0,,8,,,68,127
53893,note_off,0,0,0,,5,,,77,127
53894,note_on,1,0,0,,3,,,75,127
53894,note_on,0,0,0,,7,,,67,127
54102,note_off,208,0,0,,7,,,67,127
54102,note_off,0,0,0,,3,,,75,127
54103,note_on,1,0,0,,5,,,41,127
54103,note_on,0,0,0,,5,,,65,127
54103,note_on,0,0,0,,2,,,74,127
54311,note_off,208,0,0,,2,,,74,127
54311,note_off,0,0,0,,5,,,65,127
54312,note_on,1,0,0,,0,,,72,127
54312,note_on,0,0,0,,3,,,63,127
54520,note_off,208,0,0,,3,,,63,127
54520,note_off,0,0,0,,0,,,72,127
54520,note_off,0,0,0,,5,,,41,127
54520,note_off,0,0,0,,5,,,53,127
54521,note_on,1,0,0,,7,,,43,127
54521,note_on,0,0,0,,3,,,63,127
54521,note_on,0,0,0,,0,,,72,127
54729,note_off,208,0,0,,0,,,72,127
54729,note_off,0,0,0,,3,,,63,127
54730,note_on,1,0,0,,7,,,55,127
54730,note_on,0,0,0,,12,,,71,127
54730,note_on,0,0,0,,2,,,62,127
54938,note_off,208,0,0,,7,,,55,127
54938,note_off,0,0,0,,7,,,43,127
54939,note_on,1,0,0,,3,,,51,127
55147,note_off,208,0,0,,3,,,51,127
55147,note_off,0,0,0,,2,,,62,127
55147,note_off,0,0,0,,12,,,71,127
55148,note_on,1,0,0,,0,,,48,127
55148,note_on,0,0,0,,0,,,72,127
55148,note_on,0,0,0,,3,,,63,127
55356,note_off,208,0,0,,3,,,63,127
55356,note_off,0,0,0,,0,,,72,127
55356,note_off,0,0,0,,0,,,48,127
55357,note_on,1,0,0,,5,,,53,127
55357,note_on,0,0,0,,8,,,68,127
55357,note_on,0,0,0,,5,,,77,127
55565,note_off,208,0,0,,5,,,77,127
55565,note_off,0,0,0,,8,,,68,127
55566,note_on,1,0,0,,3,,,75,127
55566,note_on,0,0,0,,7,,,67,127
55774,note_off,208,0,0,,7,,,67,127
55774,note_off,0,0,0,,3,,,75,127
55775,note_on,1,0,0,,5,,,41,127
55775,note_on,0,0,0,,2,,,74,127
55775,note_on,0,0,0,,5,,,65,127
55983,note_off,208,0,0,,5,,,65,127
55983,note_off,0,0,0,,2,,,74,127
55984,note_on,1,0,0,,3,,,63,127
55984,note_on,0,0,0,,0,,,72,127
56192,note_off,208,0,0,,0,,,72,127
56192,note_off,0,0,0,,3,,,63,127
56192,note_off,0,0,0,,5,,,41,127
56192,note_off,0,0,0,,5,,,53,127
56193,note_on,1,0,0,,7,,,55,127
56193,note_on,0,0,0,,12,,,71,127
56193,note_on,0,0,0,,2,,,62,127
56401,note_off,208,0,0,,2,,,62,127
56402,note_on,1,0,0,,2,,,62,127
56610,note_off,208,0,0,,2,,,62,127
56611,note_on,1,0,0,,3,,,63,127
56716,note_off,105,0,0,,12,,,71,127
56820,note_off,104,0,0,,3,,,63,127
56821,note_on,1,0,0,,0,,,60,127
56821,note_on,0,0,0,,7,,,79,127
56821,note_on,0,0,0,,7,,,67,127
57029,note_off,208,0,0,,7,,,67,127
57029,note_off,0,0,0,,7,,,79,127
57029,note_off,0,0,0,,0,,,60,127
57029,note_off,0,0,0,,7,,,55,127
57030,note_on,1,0,0,,7,,,55,127
57030,note_on,0,0,0,,5,,,65,127
57030,note_on,0,0,0,,8,,,68,127
57030,note_on,0,0,0,,7,,,79,127
57238,note_off,208,0,0,,7,,,79,127
57238,note_off,0,0,0,,8,,,68,127
57238,note_off,0,0,0,,5,,,65,127
57239,note_on,1,0,0,,3,,,63,127
57239,note_on,0,0,0,,5,,,77,127
57239,note_on,0,0,0,,12,,,71,127
57447,note_off,208,0,0,,12,,,71,127
57447,note_off,0,0,0,,3,,,63,127
57448,note_on,1,0,0,,2,,,62,127
57448,note_on,0,0,0,,0,,,72,127
57656,note_off,208,0,0,,0,,,72,127
57656,note_off,0,0,0,,2,,,62,127
57657,note_on,1,0,0,,0,,,60,127
57657,note_on,0,0,0,,2,,,74,127
57865,note_off,208,0,0,,2,,,74,127
57865,note_off,0,0,0,,0,,,60,127
57865,note_off,0,0,0,,5,,,77,127
57865,note_off,0,0,0,,7,,,55,127
57866,note_on,1,0,0,,2,,,62,127
57866,note_on,0,0,0,,12,,,59,127
57866,note_on,0,0,0,,5,,,77,127
57866,note_on,0,0,0,,7,,,67,127
58074,note_off,208,0,0,,5,,,77,127
58074,note_off,0,0,0,,12,,,59,127
58075,note_on,1,0,0,,7,,,55,127
58075,note_on,0,0,0,,2,,,74,127
58283,note_off,208,0,0,,2,,,74,127
58283,note_off,0,0,0,,2,,,62,127
58284,note_on,1,0,0,,0,,,60,127
58284,note_on,0,0,0,,3,,,75,127
58492,note_off,208,0,0,,3,,,75,127
58492,note_off,0,0,0,,0,,,60,127
58492,note_off,0,0,0,,7,,,67,127
58493,note_on,1,0,0,,3,,,63,127
58493,note_on,0,0,0,,7,,,79,127
58493,note_on,0,0,0,,7,,,67,127
58701,note_off,208,0,0,,7,,,67,127
58701,note_off,0,0,0,,7,,,79,127
58701,note_off,0,0,0,,3,,,63,127
58701,note_off,0,0,0,,7,,,55,127
58702,note_on,1,0,0,,7,,,55,127
58702,note_on,0,0,0,,5,,,65,127
58702,note_on,0,0,0,,7,,,79,127
58702,note_on,0,0,0,,8,,,68,127
58910,note_off,208,0,0,,8,,,68,127
58910,note_off,0,0,0,,7,,,79,127
58910,note_off,0,0,0,,5,,,65,127
58911,note_on,1,0,0,,3,,,63,127
58911,note_on,0,0,0,,5,,,77,127
58911,note_on,0,0,0,,12,,,71,127
59119,note_off,208,0,0,,12,,,71,127
59119,note_off,0,0,0,,3,,,63,127
59120,note_on,1,0,0,,2,,,62,127
59120,note_on,0,0,0,,0,,,72,127
59328,note_off,208,0,0,,0,,,72,127
59328,note_off,0,0,0,,2,,,62,127
59329,note_on,1,0,0,,0,,,60,127
59329,note_on,0,0,0,,2,,,74,127
59537,note_off,208,0,0,,2,,,74,127
59537,note_off,0,0,0,,0,,,60,127
59537,note_off,0,0,0,,5,,,77,127
59537,note_off,0,0,0,,7,,,55,127
59538,note_on,1,0,0,,2,,,62,127
59538,note_on,0,0,0,,12,,,59,127
59538,note_on,0,0,0,,5,,,77,127
59538,note_on,0,0,0,,7,,,67,127
59746,note_off,208,0,0,,5,,,77,127
59746,note_off,0,0,0,,12,,,59,127
59747,note_on,1,0,0,,7,,,55,127
59747,note_on,0,0,0,,2,,,74,127
59955,note_off,208,0,0,,2,,,74,127
59955,note_off,0,0,0,,7,,,55,127
59955,note_off,0,0,0,,2,,,62,127
59956,note_on,1,0,0,,0,,,60,127
59956,note_on,0,0,0,,3,,,75,127
60159,note_off,203,0,0,,3,,,75,127
60164,note_off,5,0,0,,7,,,67,127
60165,note_on,1,0,0,,0,,,72,127
60165,note_on,0,0,0,,0,,,84,127
60373,note_off,208,0,0,,0,,,84,127
60373,note_off,0,0,0,,0,,,72,127
60373,note_off,0,0,0,,0,,,60,127
60374,note_on,1,0,0,,11,,,70,127
60374,note_on,0,0,0,,0,,,84,127
60374,note_on,0,0,0,,1,,,73,127
60582,note_off,208,0,0,,0,,,84,127
60582,note_off,0,0,0,,11,,,70,127
60583,note_on,1,0,0,,8,,,68,127
60583,note_on,0,0,0,,11,,,82,127
60791,note_off,208,0,0,,8,,,68,127
60792,note_on,1,0,0,,7,,,67,127
61000,note_off,208,0,0,,7,,,67,127
61000,note_off,0,0,0,,11,,,82,127
61000,note_off,0,0,0,,1,,,73,127
61001,note_on,1,0,0,,3,,,63,127
61001,note_on,0,0,0,,11,,,82,127
61001,note_on,0,0,0,,1,,,73,127
61209,note_off,208,0,0,,1,,,73,127
61209,note_off,0,0,0,,11,,,82,127
61209,note_off,0,0,0,,3,,,63,127
61210,note_on,1,0,0,,8,,,68,127
61210,note_on,0,0,0,,11,,,82,127
61210,note_on,0,0,0,,0,,,72,127
61418,note_off,208,0,0,,11,,,82,127
61418,note_off,0,0,0,,8,,,68,127
61419,note_on,1,0,0,,11,,,70,127
61419,note_on,0,0,0,,7,,,79,127
61627,note_off,208,0,0,,7,,,79,127
61627,note_off,0,0,0,,11,,,70,127
61627,note_off,0,0,0,,0,,,72,127
61628,note_on,1,0,0,,0,,,72,127
61628,note_on,0,0,0,,8,,,80,127
61836,note_off,208,0,0,,8,,,80,127
61836,note_off,0,0,0,,0,,,72,127
61837,note_on,1,0,0,,8,,,68,127
61837,note_on,0,0,0,,0,,,84,127
61837,note_on,0,0,0,,0,,,72,127
62045,note_off,208,0,0,,0,,,72,127
62045,note_off,0,0,0,,0,,,84,127
62045,note_off,0,0,0,,8,,,68,127
62046,note_on,1,0,0,,11,,,70,127
62046,note_on,0,0,0,,0,,,84,127
62046,note_on,0,0,0,,1,,,73,127
62254,note_off,208,0,0,,0,,,84,127
62254,note_off,0,0,0,,11,,,70,127
62255,note_on,1,0,0,,8,,,68,127
62255,note_on,0,0,0,,8,,,80,127
62463,note_off,208,0,0,,8,,,80,127
62463,note_off,0,0,0,,8,,,68,127
62464,note_on,1,0,0,,7,,,67,127
62464,note_on,0,0,0,,11,,,82,127
62672,note_off,208,0,0,,11,,,82,127
62672,note_off,0,0,0,,7,,,67,127
62672,note_off,0,0,0,,1,,,73,127
62673,note_on,1,0,0,,3,,,63,127
62673,note_on,0,0,0,,11,,,82,127
62673,note_on,0,0,0,,1,,,73,127
62881,note_off,208,0,0,,1,,,73,127
62881,note_off,0,0,0,,11,,,82,127
62881,note_off,0,0,0,,3,,,63,127
62882,note_on,1,0,0,,8,,,68,127
62882,note_on,0,0,0,,11,,,82,127
62882,note_on,0,0,0,,0,,,72,127
62986,note_off,104,0,0,,11,,,82,127
62987,note_on,1,0,0,,8,,,80,127
63091,note_off,104,0,0,,8,,,80,127
63092,note_on,1,0,0,,0,,,84,127
63196,note_off,104,0,0,,0,,,84,127
63197,note_on,1,0,0,,11,,,82,127
63301,note_off,104,0,0,,11,,,82,127
63301,note_off,0,0,0,,0,,,72,127
63301,note_off,0,0,0,,8,,,68,127
63302,note_on,1,0,0,,8,,,68,127
63302,note_on,0,0,0,,8,,,80,127
63406,note_off,104,0,0,,8,,,80,127
63407,note_on,1,0,0,,7,,,79,127
63511,note_off,104,0,0,,7,,,79,127
63512,note_on,1,0,0,,5,,,77,127
63616,note_off,104,0,0,,5,,,77,127
63617,note_on,1,0,0,,3,,,75,127
63718,note_off,101,0,0,,3,,,75,127
63720,note_off,2,0,0,,8,,,68,127
63721,note_on,1,0,0,,8,,,68,127
63721,note_on,0,0,0,,3,,,75,127
63773,note_on,52,0,0,,2,,,74,127
63782,note_off,9,0,0,,3,,,75,127
63826,note_on,44,0,0,,3,,,75,127
63835,note_off,9,0,0,,2,,,74,127
63879,note_on,44,0,0,,2,,,74,127
63888,note_off,9,0,0,,3,,,75,127
63931,note_off,43,0,0,,8,,,68,127
63932,note_on,1,0,0,,8,,,68,127
63932,note_on,0,0,0,,3,,,75,127
63941,note_off,9,0,0,,2,,,74,127
63985,note_on,44,0,0,,2,,,74,127
63994,note_off,9,0,0,,3,,,75,127
64038,note_on,44,0,0,,0,,,72,127
64047,note_off,9,0,0,,2,,,74,127
64091,note_on,44,0,0,,2,,,74,127
64100,note_off,9,0,0,,0,,,72,127
64143,note_off,43,0,0,,8,,,68,127
64144,note_on,1,0,0,,7,,,67,127
64144,note_on,0,0,0,,5,,,77,127
64153,note_off,9,0,0,,2,,,74,127
64197,note_on,44,0,0,,3,,,75,127
64206,note_off,9,0,0,,5,,,77,127
64250,note_on,44,0,0,,5,,,77,127
64259,note_off,9,0,0,,3,,,75,127
64303,note_on,44,0,0,,3,,,75,127
64312,note_off,9,0,0,,5,,,77,127
64355,note_off,43,0,0,,7,,,67,127
64356,note_on,1,0,0,,3,,,63,127
64356,note_on,0,0,0,,5,,,77,127
64365,note_off,9,0,0,,3,,,75,127
64409,note_on,44,0,0,,3,,,75,127
64418,note_off,9,0,0,,5,,,77,127
64462,note_on,44,0,0,,2,,,74,127
64471,note_off,9,0,0,,3,,,75,127
64515,note_on,44,0,0,,3,,,75,127
64524,note_off,9,0,0,,2,,,74,127
64567,note_off,43,0,0,,3,,,63,127
64568,note_on,1,0,0,,8,,,56,127
64568,note_on,0,0,0,,7,,,79,127
64577,note_off,9,0,0,,3,,,75,127
64621,note_on,44,0,0,,5,,,77,127
64630,note_off,9,0,0,,7,,,79,127
64674,note_on,44,0,0,,7,,,79,127
64683,note_off,9,0,0,,5,,,77,127
64727,note_on,44,0,0,,5,,,77,127
64736,note_off,9,0,0,,7,,,79,127
64780,note_on,44,0,0,,5,,,65,127
64780,note_on,0,0,0,,7,,,79,127
64789,note_off,9,0,0,,5,,,77,127
64833,note_on,44,0,0,,5,,,77,127
64842,note_off,9,0,0,,7,,,79,127
64886,note_on,44,0,0,,3,,,75,127
64895,note_off,9,0,0,,5,,,77,127
64939,note_on,44,0,0,,5,,,77,127
64948,note_off,9,0,0,,3,,,75,127
64991,note_off,43,0,0,,8,,,56,127
64992,note_on,1,0,0,,7,,,55,127
64992,note_on,0,0,0,,8,,,80,127
65001,note_off,9,0,0,,5,,,77,127
65045,note_on,44,0,0,,7,,,79,127
65054,note_off,9,0,0,,8,,,80,127
65098,note_on,44,0,0,,8,,,80,127
65107,note_off,9,0,0,,7,,,79,127
65151,note_on,44,0,0,,7,,,79,127
65160,note_off,9,0,0,,8,,,80,127
65203,note_off,43,0,0,,5,,,65,127
65204,note_on,1,0,0,,3,,,63,127
65204,note_on,0,0,0,,8,,,80,127
65213,note_off,9,0,0,,7,,,79,127
65257,note_on,44,0,0,,7,,,79,127
65266,note_off,9,0,0,,8,,,80,127
65310,note_on,44,0,0,,5,,,77,127
65319,note_off,9,0,0,,7,,,79,127
65363,note_on,44,0,0,,7,,,79,127
65372,note_off,9,0,0,,5,,,77,127
65415,note_off,43,0,0,,7,,,55,127
65416,note_on,1,0,0,,5,,,53,127
65416,note_on,0,0,0,,11,,,82,127
65425,note_off,9,0,0,,7,,,79,127
65469,note_on,44,0,0,,8,,,80,127
65478,note_off,9,0,0,,11,,,82,127
65522,note_on,44,0,0,,11,,,82,127
65531,note_off,9,0,0,,8,,,80,127
65575,note_on,44,0,0,,8,,,80,127
65584,note_off,9,0,0,,11,,,82,127
65627,note_off,43,0,0,,3,,,63,127
65628,note_on,1,0,0,,2,,,62,127
65628,note_on,0,0,0,,11,,,82,127
65637,note_off,9,0,0,,8,,,80,127
65681,note_on,44,0,0,,8,,,80,127
65690,note_off,9,0,0,,11,,,82,127
65734,note_on,44,0,0,,7,,,79,127
65743,note_off,9,0,0,,8,,,80,127
65787,note_on,44,0,0,,5,,,77,127
65796,note_off,9,0,0,,7,,,79,127
65839,note_off,43,0,0,,5,,,53,127
65840,note_on,1,0,0,,3,,,51,127
65840,note_on,0,0,0,,8,,,80,127
65849,note_off,9,0,0,,5,,,77,127
65893,note_on,44,0,0,,7,,,79,127
65902,note_off,9,0,0,,8,,,80,127
65946,note_on,44,0,0,,8,,,80,127
65955,note_off,9,0,0,,7,,,79,127
65999,note_on,44,0,0,,7,,,79,127
66008,note_off,9,0,0,,8,,,80,127
66051,note_off,43,0,0,,2,,,62,127
66052,note_on,1,0,0,,0,,,60,127
66052,note_on,0,0,0,,8,,,80,127
66061,note_off,9,0,0,,7,,,79,127
66105,note_on,44,0,0,,7,,,79,127
66114,note_off,9,0,0,,8,,,80,127
66158,note_on,44,0,0,,5,,,77,127
66167,note_off,9,0,0,,7,,,79,127
66211,note_on,44,0,0,,3,,,75,127
66220,note_off,9,0,0,,5,,,77,127
66263,note_off,43,0,0,,0,,,60,127
66263,note_off,0,0,0,,3,,,51,127
66264,note_on,1,0,0,,8,,,56,127
66264,note_on,0,0,0,,0,,,84,127
66273,note_off,9,0,0,,3,,,75,127
66368,note_off,95,0,0,,0,,,84,127
66369,note_on,1,0,0,,11,,,82,127
66473,note_off,104,0,0,,11,,,82,127
66474,note_on,1,0,0,,8,,,80,127
66578,note_off,104,0,0,,8,,,80,127
66579,note_on,1,0,0,,7,,,79,127
66683,note_off,104,0,0,,7,,,79,127
66684,note_on,1,0,0,,8,,,44,127
66684,note_on,0,0,0,,5,,,77,127
66788,note_off,104,0,0,,5,,,77,127
66789,note_on,1,0,0,,3,,,75,127
66893,note_off,104,0,0,,3,,,75,127
66894,note_on,1,0,0,,2,,,74,127
66998,note_off,104,0,0,,2,,,74,127
66999,note_on,1,0,0,,0,,,72,127
67100,note_off,101,0,0,,0,,,72,127
67102,note_off,2,0,0,,8,,,44,127
67102,note_off,0,0,0,,8,,,56,127
67103,note_on,1,0,0,,11,,,46,127
67103,note_on,0,0,0,,0,,,72,127
67155,note_on,52,0,0,,11,,,70,127
67164,note_off,9,0,0,,0,,,72,127
67208,note_on,44,0,0,,0,,,72,127
67217,note_off,9,0,0,,11,,,70,127
67261,note_on,44,0,0,,11,,,70,127
67270,note_off,9,0,0,,0,,,72,127
67314,note_on,44,0,0,,0,,,72,127
67323,note_off,9,0,0,,11,,,70,127
67367,note_on,44,0,0,,11,,,70,127
67376,note_off,9,0,0,,0,,,72,127
67523,note_off,147,0,0,,11,,,46,127
67694,note_off,171,0,0,,11,,,70,127
67733,note_on,39,0,0,,11,,,82,127
67941,note_off,208,0,0,,11,,,82,127
67942,note_on,1,0,0,,12,,,83,127
68150,note_off,208,0,0,,12,,,83,127
68151,note_on,1,0,0,,8,,,80,127
68359,note_off,208,0,0,,8,,,80,127
68360,note_on,1,0,0,,6,,,78,127
68568,note_off,208,0,0,,6,,,78,127
68569,note_on,1,0,0,,11,,,70,127
68569,note_on,0,0,0,,5,,,77,127
68765,note_off,196,0,0,,5,,,77,127
68777,note_off,12,0,0,,11,,,70,127
68778,note_on,1,0,0,,12,,,71,127
68778,note_on,0,0,0,,5,,,77,127
68830,note_on,52,0,0,,3,,,75,127
68839,note_off,9,0,0,,5,,,77,127
68883,note_on,44,0,0,,5,,,77,127
68892,note_off,9,0,0,,3,,,75,127
68936,note_on,44,0,0,,3,,,75,127
68945,note_off,9,0,0,,5,,,77,127
68988,note_off,43,0,0,,12,,,71,127
68989,note_on,1,0,0,,8,,,68,127
68989,note_on,0,0,0,,2,,,74,127
68998,note_off,9,0,0,,3,,,75,127
69198,note_off,200,0,0,,2,,,74,127
69198,note_off,0,0,0,,8,,,68,127
69199,note_on,1,0,0,,6,,,66,127
69199,note_on,0,0,0,,3,,,75,127
69407,note_off,208,0,0,,3,,,75,127
69407,note_off,0,0,0,,6,,,66,127
69408,note_on,1,0,0,,5,,,65,127
69408,note_on,0,0,0,,11,,,82,127
69616,note_off,208,0,0,,11,,,82,127
69616,note_off,0,0,0,,5,,,65,127
69617,note_on,1,0,0,,3,,,63,127
69617,note_on,0,0,0,,12,,,83,127
69825,note_off,208,0,0,,12,,,83,127
69826,note_on,1,0,0,,8,,,80,127
70034,note_off,208,0,0,,8,,,80,127
70035,note_on,1,0,0,,6,,,78,127
70140,note_off,105,0,0,,3,,,63,127
70244,note_off,104,0,0,,6,,,78,127
70245,note_on,1,0,0,,11,,,70,127
70245,note_on,0,0,0,,5,,,77,127
70441,note_off,196,0,0,,5,,,77,127
70453,note_off,12,0,0,,11,,,70,127
70454,note_on,1,0,0,,12,,,71,127
70454,note_on,0,0,0,,5,,,77,127
70506,note_on,52,0,0,,3,,,75,127
70515,note_off,9,0,0,,5,,,77,127
70559,note_on,44,0,0,,5,,,77,127
70568,note_off,9,0,0,,3,,,75,127
70612,note_on,44,0,0,,3,,,75,127
70621,note_off,9,0,0,,5,,,77,127
70664,note_off,43,0,0,,12,,,71,127
70665,note_on,1,0,0,,8,,,68,127
70665,note_on,0,0,0,,2,,,74,127
70674,note_off,9,0,0,,3,,,75,127
70874,note_off,200,0,0,,2,,,74,127
70874,note_off,0,0,0,,8,,,68,127
70875,note_on,1,0,0,,6,,,66,127
70875,note_on,0,0,0,,3,,,75,127
71083,note_off,208,0,0,,3,,,75,127
71083,note_off,0,0,0,,6,,,66,127
71084,note_on,1,0,0,,5,,,65,127
71084,note_on,0,0,0,,5,,,77,127
71292,note_off,208,0,0,,5,,,77,127
71292,note_off,0,0,0,,5,,,65,127
71293,note_on,1,0,0,,3,,,63,127
71293,note_on,0,0,0,,6,,,78,127
71501,note_off,208,0,0,,6,,,78,127
71502,note_on,1,0,0,,3,,,75,127
71710,note_off,208,0,0,,3,,,75,127
71711,note_on,1,0,0,,1,,,73,127
71816,note_off,105,0,0,,3,,,63,127
71920,note_off,104,0,0,,1,,,73,127
71921,note_on,1,0,0,,5,,,65,127
71921,note_on,0,0,0,,12,,,71,127
72129,note_off,208,0,0,,12,,,71,127
72129,note_off,0,0,0,,5,,,65,127
72130,note_on,1,0,0,,6,,,66,127
72130,note_on,0,0,0,,10,,,69,127
72338,note_off,208,0,0,,10,,,69,127
72338,note_off,0,0,0,,6,,,66,127
72339,note_on,1,0,0,,3,,,63,127
72339,note_on,0,0,0,,11,,,70,127
72547,note_off,208,0,0,,3,,,63,127
72548,note_on,1,0,0,,1,,,61,127
72756,note_off,208,0,0,,1,,,61,127
72756,note_off,0,0,0,,11,,,70,127
72757,note_on,1,0,0,,12,,,59,127
72757,note_on,0,0,0,,3,,,75,127
72953,note_off,196,0,0,,3,,,75,127
72965,note_off,12,0,0,,12,,,59,127
72966,note_on,1,0,0,,11,,,58,127
72966,note_on,0,0,0,,3,,,75,127
73018,note_on,52,0,0,,2,,,74,127
73027,note_off,9,0,0,,3,,,75,127
73071,note_on,44,0,0,,3,,,75,127
73080,note_off,9,0,0,,2,,,74,127
73124,note_on,44,0,0,,2,,,74,127
73133,note_off,9,0,0,,3,,,75,127
73176,note_off,43,0,0,,11,,,58,127
73177,note_on,1,0,0,,8,,,56,127
73177,note_on,0,0,0,,3,,,75,127
73186,note_off,9,0,0,,2,,,74,127
73230,note_on,44,0,0,,2,,,74,127
73239,note_off,9,0,0,,3,,,75,127
73283,note_on,44,0,0,,0,,,72,127
73292,note_off,9,0,0,,2,,,74,127
73336,note_on,44,0,0,,2,,,74,127
73345,note_off,9,0,0,,0,,,72,127
73388,note_off,43,0,0,,8,,,56,127
73389,note_on,1,0,0,,7,,,55,127
73389,note_on,0,0,0,,5,,,77,127
73398,note_off,9,0,0,,2,,,74,127
73442,note_on,44,0,0,,3,,,75,127
73451,note_off,9,0,0,,5,,,77,127
73495,note_on,44,0,0,,5,,,77,127
73504,note_off,9,0,0,,3,,,75,127
73548,note_on,44,0,0,,3,,,75,127
73557,note_off,9,0,0,,5,,,77,127
73601,note_on,44,0,0,,3,,,63,127
73601,note_on,0,0,0,,5,,,77,127
73610,note_off,9,0,0,,3,,,75,127
73654,note_on,44,0,0,,3,,,75,127
73663,note_off,9,0,0,,5,,,77,127
73707,note_on,44,0,0,,2,,,74,127
73716,note_off,9,0,0,,3,,,75,127
73760,note_on,44,0,0,,3,,,75,127
73769,note_off,9,0,0,,2,,,74,127
73812,note_off,43,0,0,,7,,,55,127
73813,note_on,1,0,0,,8,,,56,127
73813,note_on,0,0,0,,7,,,79,127
73822,note_off,9,0,0,,3,,,75,127
73866,note_on,44,0,0,,5,,,77,127
73875,note_off,9,0,0,,7,,,79,127
73919,note_on,44,0,0,,7,,,79,127
73928,note_off,9,0,0,,5,,,77,127
73972,note_on,44,0,0,,5,,,77,127
73981,note_off,9,0,0,,7,,,79,127
74024,note_off,43,0,0,,3,,,63,127
74025,note_on,1,0,0,,5,,,65,127
74025,note_on,0,0,0,,7,,,79,127
74034,note_off,9,0,0,,5,,,77,127
74078,note_on,44,0,0,,5,,,77,127
74087,note_off,9,0,0,,7,,,79,127
74131,note_on,44,0,0,,3,,,75,127
74140,note_off,9,0,0,,5,,,77,127
74184,note_on,44,0,0,,5,,,77,127
74193,note_off,9,0,0,,3,,,75,127
74236,note_off,43,0,0,,8,,,56,127
74237,note_on,1,0,0,,7,,,55,127
74237,note_on,0,0,0,,8,,,80,127
74246,note_off,9,0,0,,5,,,77,127
74290,note_on,44,0,0,,7,,,79,127
74299,note_off,9,0,0,,8,,,80,127
74343,note_on,44,0,0,,8,,,80,127
74352,note_off,9,0,0,,7,,,79,127
74396,note_on,44,0,0,,7,,,79,127
74405,note_off,9,0,0,,8,,,80,127
74448,note_off,43,0,0,,5,,,65,127
74449,note_on,1,0,0,,3,,,63,127
74449,note_on,0,0,0,,8,,,80,127
74458,note_off,9,0,0,,7,,,79,127
74502,note_on,44,0,0,,7,,,79,127
74511,note_off,9,0,0,,8,,,80,127
74555,note_on,44,0,0,,5,,,77,127
74564,note_off,9,0,0,,7,,,79,127
74608,note_on,44,0,0,,7,,,79,127
74617,note_off,9,0,0,,5,,,77,127
74660,note_off,43,0,0,,3,,,63,127
74660,note_off,0,0,0,,7,,,55,127
74661,note_on,1,0,0,,8,,,56,127
74661,note_on,0,0,0,,0,,,84,127
74670,note_off,9,0,0,,7,,,79,127
74765,note_off,95,0,0,,0,,,84,127
74766,note_on,1,0,0,,11,,,82,127
74870,note_off,104,0,0,,11,,,82,127
74871,note_on,1,0,0,,8,,,80,127
74975,note_off,104,0,0,,8,,,80,127
74976,note_on,1,0,0,,7,,,79,127
75080,note_off,104,0,0,,7,,,79,127
75081,note_on,1,0,0,,8,,,44,127
75081,note_on,0,0,0,,5,,,77,127
75185,note_off,104,0,0,,5,,,77,127
75186,note_on,1,0,0,,3,,,75,127
75290,note_off,104,0,0,,3,,,75,127
75291,note_on,1,0,0,,2,,,74,127
75395,note_off,104,0,0,,2,,,74,127
75396,note_on,1,0,0,,3,,,75,127
75500,note_off,104,0,0,,3,,,75,127
75500,note_off,0,0,0,,8,,,44,127
75500,note_off,0,0,0,,8,,,56,127
75501,note_on,1,0,0,,11,,,46,127
75501,note_on,0,0,0,,3,,,75,127
75605,note_off,104,0,0,,3,,,75,127
75606,note_on,1,0,0,,2,,,74,127
75710,note_off,104,0,0,,2,,,74,127
75711,note_on,1,0,0,,5,,,77,127
75815,note_off,104,0,0,,5,,,77,127
75816,note_on,1,0,0,,3,,,75,127
75920,note_off,104,0,0,,3,,,75,127
75921,note_on,1,0,0,,11,,,58,127
75921,note_on,0,0,0,,2,,,74,127
76025,note_off,104,0,0,,2,,,74,127
76026,note_on,1,0,0,,0,,,72,127
76130,note_off,104,0,0,,0,,,72,127
76131,note_on,1,0,0,,11,,,70,127
76235,note_off,104,0,0,,11,,,70,127
76236,note_on,1,0,0,,8,,,68,127
76340,note_off,104,0,0,,8,,,68,127
76340,note_off,0,0,0,,11,,,58,127
76340,note_off,0,0,0,,11,,,46,127
76341,note_on,1,0,0,,3,,,51,127
76341,note_on,0,0,0,,7,,,67,127
76445,note_off,104,0,0,,7,,,67,127
76446,note_on,1,0,0,,11,,,70,127
76550,note_off,104,0,0,,11,,,70,127
76551,note_on,1,0,0,,8,,,68,127
76655,note_off,104,0,0,,8,,,68,127
76656,note_on,1,0,0,,7,,,67,127
76760,note_off,104,0,0,,7,,,67,127
76760,note_off,0,0,0,,3,,,51,127
76761,note_on,1,0,0,,8,,,56,127
76761,note_on,0,0,0,,5,,,65,127
76865,note_off,104,0,0,,5,,,65,127
76866,note_on,1,0,0,,3,,,63,127
76970,note_off,104,0,0,,3,,,63,127
76971,note_on,1,0,0,,2,,,62,127
77075,note_off,104,0,0,,2,,,62,127
77076,note_on,1,0,0,,0,,,60,127
77177,note_off,101,0,0,,0,,,60,127
77179,note_off,2,0,0,,8,,,56,127
77180,note_on,1,0,0,,11,,,46,127
77180,note_on,0,0,0,,0,,,60,127
77232,note_on,52,0,0,,11,,,58,127
77241,note_off,9,0,0,,0,,,60,127
77285,note_on,44,0,0,,0,,,60,127
77294,note_off,9,0,0,,11,,,58,127
77338,note_on,44,0,0,,11,,,58,127
77347,note_off,9,0,0,,0,,,60,127
77391,note_on,44,0,0,,8,,,56,127
77391,note_on,0,0,0,,0,,,60,127
77400,note_off,9,0,0,,11,,,58,127
77444,note_on,44,0,0,,11,,,58,127
77453,note_off,9,0,0,,0,,,60,127
77497,note_on,44,0,0,,0,,,60,127
77506,note_off,9,0,0,,11,,,58,127
77550,note_on,44,0,0,,11,,,58,127
77559,note_off,9,0,0,,0,,,60,127
77602,note_off,43,0,0,,8,,,56,127
77602,note_off,0,0,0,,11,,,46,127
77603,note_on,1,0,0,,7,,,55,127
77707,note_off,104,0,0,,11,,,58,127
77708,note_on,1,0,0,,11,,,58,127
77812,note_off,104,0,0,,11,,,58,127
77812,note_off,0,0,0,,7,,,55,127
77813,note_on,1,0,0,,3,,,51,127
77813,note_on,0,0,0,,0,,,60,127
77917,note_off,104,0,0,,0,,,60,127
77918,note_on,1,0,0,,2,,,62,127
78022,note_off,104,0,0,,2,,,62,127
78022,note_off,0,0,0,,3,,,51,127
78023,note_on,1,0,0,,8,,,44,127
78023,note_on,0,0,0,,2,,,62,127
78127,note_off,104,0,0,,2,,,62,127
78128,note_on,1,0,0,,0,,,60,127
78232,note_off,104,0,0,,0,,,60,127
78233,note_on,1,0,0,,5,,,53,127
78233,note_on,0,0,0,,2,,,62,127
78337,note_off,104,0,0,,2,,,62,127
78338,note_on,1,0,0,,3,,,63,127
78442,note_off,104,0,0,,3,,,63,127
78442,note_off,0,0,0,,8,,,44,127
78443,note_on,1,0,0,,11,,,46,127
78443,note_on,0,0,0,,3,,,63,127
78547,note_off,104,0,0,,3,,,63,127
78548,note_on,1,0,0,,2,,,62,127
78652,note_off,104,0,0,,2,,,62,127
78652,note_off,0,0,0,,5,,,53,127
78653,note_on,1,0,0,,7,,,55,127
78653,note_on,0,0,0,,3,,,63,127
78757,note_off,104,0,0,,3,,,63,127
78758,note_on,1,0,0,,5,,,65,127
78862,note_off,104,0,0,,5,,,65,127
78862,note_off,0,0,0,,11,,,46,127
78863,note_on,1,0,0,,0,,,48,127
78863,note_on,0,0,0,,5,,,65,127
78967,note_off,104,0,0,,5,,,65,127
78968,note_on,1,0,0,,3,,,63,127
79072,note_off,104,0,0,,3,,,63,127
79072,note_off,0,0,0,,7,,,55,127
79073,note_on,1,0,0,,8,,,56,127
79073,note_on,0,0,0,,5,,,65,127
79177,note_off,104,0,0,,5,,,65,127
79178,note_on,1,0,0,,7,,,67,127
79282,note_off,104,0,0,,7,,,67,127
79282,note_off,0,0,0,,0,,,48,127
79283,note_on,1,0,0,,2,,,50,127
79283,note_on,0,0,0,,7,,,67,127
79387,note_off,104,0,0,,7,,,67,127
79388,note_on,1,0,0,,5,,,65,127
79492,note_off,104,0,0,,5,,,65,127
79492,note_off,0,0,0,,8,,,56,127
79493,note_on,1,0,0,,11,,,58,127
79493,note_on,0,0,0,,7,,,67,127
79597,note_off,104,0,0,,7,,,67,127
79598,note_on,1,0,0,,8,,,68,127
79702,note_off,104,0,0,,8,,,68,127
79702,note_off,0,0,0,,2,,,50,127
79703,note_on,1,0,0,,3,,,51,127
79703,note_on,0,0,0,,8,,,68,127
79807,note_off,104,0,0,,8,,,68,127
79808,note_on,1,0,0,,7,,,67,127
79912,note_off,104,0,0,,7,,,67,127
79912,note_off,0,0,0,,11,,,58,127
79913,note_on,1,0,0,,0,,,60,127
79913,note_on,0,0,0,,8,,,68,127
80017,note_off,104,0,0,,8,,,68,127
80018,note_on,1,0,0,,11,,,70,127
80122,note_off,104,0,0,,11,,,70,127
80122,note_off,0,0,0,,3,,,51,127
80123,note_on,1,0,0,,5,,,53,127
80123,note_on,0,0,0,,11,,,70,127
80227,note_off,104,0,0,,11,,,70,127
80228,note_on,1,0,0,,8,,,68,127
80332,note_off,104,0,0,,8,,,68,127
80332,note_off,0,0,0,,0,,,60,127
80333,note_on,1,0,0,,2,,,62,127
80333,note_on,0,0,0,,11,,,70,127
80437,note_off,104,0,0,,11,,,70,127
80438,note_on,1,0,0,,0,,,72,127
80542,note_off,104,0,0,,0,,,72,127
80542,note_off,0,0,0,,5,,,53,127
80543,note_on,1,0,0,,7,,,55,127
80543,note_on,0,0,0,,0,,,72,127
80647,note_off,104,0,0,,0,,,72,127
80648,note_on,1,0,0,,11,,,70,127
80752,note_off,104,0,0,,11,,,70,127
80752,note_off,0,0,0,,2,,,62,127
80753,note_on,1,0,0,,3,,,63,127
80753,note_on,0,0,0,,0,,,72,127
80857,note_off,104,0,0,,0,,,72,127
80858,note_on,1,0,0,,2,,,74,127
80962,note_off,104,0,0,,2,,,74,127
80962,note_off,0,0,0,,7,,,55,127
80963,note_on,1,0,0,,8,,,56,127
80963,note_on,0,0,0,,2,,,74,127
81067,note_off,104,0,0,,2,,,74,127
81068,note_on,1,0,0,,0,,,72,127
81172,note_off,104,0,0,,0,,,72,127
81172,note_off,0,0,0,,3,,,63,127
81173,note_on,1,0,0,,5,,,65,127
81173,note_on,0,0,0,,2,,,74,127
81277,note_off,104,0,0,,2,,,74,127
81278,note_on,1,0,0,,3,,,75,127
81382,note_off,104,0,0,,3,,,75,127
81382,note_off,0,0,0,,5,,,65,127
81382,note_off,0,0,0,,8,,,56,127
81383,note_on,1,0,0,,11,,,58,127
81383,note_on,0,0,0,,3,,,75,127
81487,note_off,104,0,0,,3,,,75,127
81488,note_on,1,0,0,,2,,,74,127
81592,note_off,104,0,0,,2,,,74,127
81593,note_on,1,0,0,,0,,,72,127
81697,note_off,104,0,0,,0,,,72,127
81698,note_on,1,0,0,,11,,,70,127
81802,note_off,104,0,0,,11,,,70,127
81803,note_on,1,0,0,,11,,,82,127
81803,note_on,0,0,0,,7,,,79,127
81951,note_off,148,0,0,,11,,,58,127
82012,note_on,61,0,0,,7,,,55,127
82220,note_off,208,0,0,,7,,,55,127
82221,note_on,1,0,0,,8,,,56,127
82429,note_off,208,0,0,,7,,,79,127
82429,note_off,0,0,0,,11,,,82,127
82430,note_on,1,0,0,,8,,,80,127
82430,note_on,0,0,0,,5,,,77,127
82638,note_off,208,0,0,,5,,,77,127
82638,note_off,0,0,0,,8,,,80,127
82638,note_off,0,0,0,,8,,,56,127
82639,note_on,1,0,0,,11,,,58,127
82639,note_on,0,0,0,,7,,,79,127
82639,note_on,0,0,0,,3,,,75,127
82847,note_off,208,0,0,,3,,,75,127
82847,note_off,0,0,0,,7,,,79,127
82848,note_on,1,0,0,,11,,,46,127
82848,note_on,0,0,0,,2,,,74,127
82848,note_on,0,0,0,,5,,,77,127
83056,note_off,208,0,0,,5,,,77,127
83056,note_off,0,0,0,,2,,,74,127
83056,note_off,0,0,0,,11,,,46,127
83056,note_off,0,0,0,,11,,,58,127
83057,note_on,1,0,0,,3,,,51,127
83057,note_on,0,0,0,,2,,,74,127
83057,note_on,0,0,0,,5,,,77,127
83265,note_off,208,0,0,,5,,,77,127
83265,note_off,0,0,0,,2,,,74,127
83266,note_on,1,0,0,,3,,,75,127
83266,note_on,0,0,0,,7,,,79,127
83474,note_off,208,0,0,,7,,,79,127
83474,note_off,0,0,0,,3,,,75,127
83475,note_on,1,0,0,,11,,,70,127
83475,note_on,0,0,0,,7,,,67,127
83623,note_off,148,0,0,,3,,,51,127
83684,note_on,61,0,0,,7,,,55,127
83892,note_off,208,0,0,,7,,,55,127
83893,note_on,1,0,0,,8,,,56,127
84101,note_off,208,0,0,,7,,,67,127
84101,note_off,0,0,0,,11,,,70,127
84102,note_on,1,0,0,,8,,,68,127
84102,note_on,0,0,0,,5,,,65,127
84310,note_off,208,0,0,,5,,,65,127
84310,note_off,0,0,0,,8,,,68,127
84310,note_off,0,0,0,,8,,,56,127
84311,note_on,1,0,0,,11,,,58,127
84311,note_on,0,0,0,,7,,,67,127
84311,note_on,0,0,0,,3,,,63,127
84519,note_off,208,0,0,,3,,,63,127
84519,note_off,0,0,0,,7,,,67,127
84520,note_on,1,0,0,,11,,,46,127
84520,note_on,0,0,0,,5,,,65,127
84520,note_on,0,0,0,,2,,,62,127
84728,note_off,208,0,0,,2,,,62,127
84728,note_off,0,0,0,,5,,,65,127
84728,note_off,0,0,0,,11,,,46,127
84728,note_off,0,0,0,,11,,,58,127
84729,note_on,1,0,0,,3,,,51,127
84729,note_on,0,0,0,,5,,,65,127
84781,note_on,52,0,0,,3,,,63,127
84790,note_off,9,0,0,,5,,,65,127
84834,note_on,44,0,0,,5,,,65,127
84843,note_off,9,0,0,,3,,,63,127
84887,note_on,44,0,0,,3,,,63,127
84896,note_off,9,0,0,,5,,,65,127
84940,note_on,44,0,0,,3,,,39,127
84940,note_on,0,0,0,,5,,,65,127
84949,note_off,9,0,0,,3,,,63,127
84993,note_on,44,0,0,,3,,,63,127
85002,note_off,9,0,0,,5,,,65,127
85046,note_on,44,0,0,,5,,,65,127
85055,note_off,9,0,0,,3,,,63,127
85099,note_on,44,0,0,,3,,,63,127
85108,note_off,9,0,0,,5,,,65,127
85151,note_off,43,0,0,,3,,,51,127
85152,note_on,1,0,0,,3,,,51,127
85308,note_off,156,0,0,,3,,,63,127
85360,note_off,52,0,0,,3,,,39,127
85361,note_on,1,0,0,,11,,,70,127
85361,note_on,0,0,0,,11,,,82,127
85569,note_off,208,0,0,,11,,,82,127
85569,note_off,0,0,0,,11,,,70,127
85569,note_off,0,0,0,,3,,,51,127
85570,note_on,1,0,0,,11,,,82,127
85570,note_on,0,0,0,,12,,,71,127
85778,note_off,208,0,0,,11,,,82,127
85779,note_on,1,0,0,,8,,,68,127
85779,note_on,0,0,0,,8,,,80,127
85987,note_off,208,0,0,,8,,,68,127
85988,note_on,1,0,0,,5,,,65,127
86196,note_off,208,0,0,,5,,,65,127
86196,note_off,0,0,0,,8,,,80,127
86196,note_off,0,0,0,,12,,,71,127
86197,note_on,1,0,0,,2,,,62,127
86197,note_on,0,0,0,,8,,,80,127
86197,note_on,0,0,0,,12,,,71,127
86405,note_off,208,0,0,,12,,,71,127
86405,note_off,0,0,0,,8,,,80,127
86405,note_off,0,0,0,,2,,,62,127
86406,note_on,1,0,0,,3,,,63,127
86406,note_on,0,0,0,,8,,,80,127
86406,note_on,0,0,0,,11,,,70,127
86614,note_off,208,0,0,,8,,,80,127
86615,note_on,1,0,0,,6,,,78,127
86824,note_on,209,0,0,,3,,,51,127
87032,note_off,208,0,0,,6,,,78,127
87032,note_off,0,0,0,,11,,,70,127
87033,note_on,1,0,0,,11,,,82,127
87033,note_on,0,0,0,,11,,,70,127
87241,note_off,208,0,0,,11,,,70,127
87241,note_off,0,0,0,,11,,,82,127
87241,note_off,0,0,0,,3,,,51,127
87241,note_off,0,0,0,,3,,,63,127
87242,note_on,1,0,0,,11,,,82,127
87242,note_on,0,0,0,,12,,,71,127
87450,note_off,208,0,0,,11,,,82,127
87451,note_on,1,0,0,,8,,,68,127
87451,note_on,0,0,0,,8,,,80,127
87659,note_off,208,0,0,,8,,,68,127
87660,note_on,1,0,0,,5,,,65,127
87868,note_off,208,0,0,,5,,,65,127
87868,note_off,0,0,0,,8,,,80,127
87868,note_off,0,0,0,,12,,,71,127
87869,note_on,1,0,0,,2,,,62,127
87869,note_on,0,0,0,,8,,,80,127
87869,note_on,0,0,0,,12,,,71,127
88077,note_off,208,0,0,,12,,,71,127
88077,note_off,0,0,0,,8,,,80,127
88077,note_off,0,0,0,,2,,,62,127
88078,note_on,1,0,0,,3,,,63,127
88078,note_on,0,0,0,,11,,,70,127
88078,note_on,0,0,0,,8,,,80,127
88286,note_off,208,0,0,,8,,,80,127
88287,note_on,1,0,0,,6,,,78,127
88496,note_on,209,0,0,,3,,,51,127
88704,note_off,208,0,0,,6,,,78,127
88704,note_off,0,0,0,,11,,,70,127
88704,note_off,0,0,0,,3,,,63,127
88705,note_on,1,0,0,,3,,,63,127
88705,note_on,0,0,0,,3,,,75,127
88913,note_off,208,0,0,,3,,,75,127
88913,note_off,0,0,0,,3,,,63,127
88913,note_off,0,0,0,,3,,,51,127
88914,note_on,1,0,0,,4,,,64,127
88914,note_on,0,0,0,,3,,,75,127
89122,note_off,208,0,0,,3,,,75,127
89123,note_on,1,0,0,,1,,,61,127
89123,note_on,0,0,0,,1,,,73,127
89331,note_off,208,0,0,,1,,,61,127
89332,note_on,1,0,0,,11,,,58,127
89540,note_off,208,0,0,,11,,,58,127
89540,note_off,0,0,0,,1,,,73,127
89540,note_off,0,0,0,,4,,,64,127
89541,note_on,1,0,0,,7,,,55,127
89541,note_on,0,0,0,,1,,,73,127
89541,note_on,0,0,0,,4,,,64,127
89749,note_off,208,0,0,,4,,,64,127
89749,note_off,0,0,0,,1,,,73,127
89749,note_off,0,0,0,,7,,,55,127
89750,note_on,1,0,0,,8,,,56,127
89750,note_on,0,0,0,,1,,,73,127
89750,note_on,0,0,0,,3,,,63,127
89958,note_off,208,0,0,,1,,,73,127
89959,note_on,1,0,0,,12,,,71,127
90168,note_on,209,0,0,,8,,,44,127
90376,note_off,208,0,0,,12,,,71,127
90376,note_off,0,0,0,,3,,,63,127
90377,note_on,1,0,0,,3,,,63,127
90377,note_on,0,0,0,,3,,,75,127
90585,note_off,208,0,0,,3,,,75,127
90585,note_off,0,0,0,,3,,,63,127
90585,note_off,0,0,0,,8,,,44,127
90585,note_off,0,0,0,,8,,,56,127
90586,note_on,1,0,0,,4,,,64,127
90586,note_on,0,0,0,,3,,,75,127
90794,note_off,208,0,0,,3,,,75,127
90795,note_on,1,0,0,,11,,,58,127
90795,note_on,0,0,0,,1,,,73,127
91003,note_off,208,0,0,,11,,,58,127
91004,note_on,1,0,0,,7,,,55,127
91212,note_off,208,0,0,,7,,,55,127
91212,note_off,0,0,0,,1,,,73,127
91212,note_off,0,0,0,,4,,,64,127
91213,note_on,1,0,0,,3,,,51,127
91213,note_on,0,0,0,,4,,,64,127
91213,note_on,0,0,0,,1,,,73,127
91421,note_off,208,0,0,,1,,,73,127
91421,note_off,0,0,0,,4,,,64,127
91421,note_off,0,0,0,,3,,,51,127
91422,note_on,1,0,0,,8,,,56,127
91422,note_on,0,0,0,,1,,,73,127
91422,note_on,0,0,0,,3,,,63,127
91630,note_off,208,0,0,,1,,,73,127
91631,note_on,1,0,0,,0,,,72,127
91839,note_off,208,0,0,,3,,,63,127
91840,note_on,1,0,0,,8,,,44,127
91936,note_off,96,0,0,,0,,,72,127
91945,note_on,9,0,0,,0,,,72,127
92049,note_off,104,0,0,,0,,,72,127
92050,note_on,1,0,0,,2,,,74,127
92154,note_off,104,0,0,,2,,,74,127
92155,note_on,1,0,0,,3,,,75,127
92259,note_off,104,0,0,,3,,,75,127
92259,note_off,0,0,0,,8,,,44,127
92259,note_off,0,0,0,,8,,,56,127
92260,note_on,1,0,0,,5,,,53,127
92260,note_on,0,0,0,,2,,,62,127
92260,note_on,0,0,0,,3,,,75,127
92364,note_off,104,0,0,,3,,,75,127
92365,note_on,1,0,0,,2,,,74,127
92469,note_off,104,0,0,,2,,,74,127
92470,note_on,1,0,0,,3,,,75,127
92574,note_off,104,0,0,,3,,,75,127
92575,note_on,1,0,0,,5,,,77,127
92679,note_off,104,0,0,,5,,,77,127
92679,note_off,0,0,0,,2,,,62,127
92679,note_off,0,0,0,,5,,,53,127
92680,note_on,1,0,0,,7,,,55,127
92680,note_on,0,0,0,,3,,,63,127
92680,note_on,0,0,0,,5,,,77,127
92784,note_off,104,0,0,,5,,,77,127
92785,note_on,1,0,0,,3,,,75,127
92889,note_off,104,0,0,,3,,,75,127
92890,note_on,1,0,0,,5,,,77,127
92994,note_off,104,0,0,,5,,,77,127
92995,note_on,1,0,0,,7,,,79,127
93099,note_off,104,0,0,,7,,,79,127
93099,note_off,0,0,0,,3,,,63,127
93099,note_off,0,0,0,,7,,,55,127
93100,note_on,1,0,0,,11,,,58,127
93100,note_on,0,0,0,,2,,,50,127
93100,note_on,0,0,0,,7,,,79,127
93204,note_off,104,0,0,,7,,,79,127
93205,note_on,1,0,0,,5,,,77,127
93309,note_off,104,0,0,,5,,,77,127
93310,note_on,1,0,0,,7,,,79,127
93414,note_off,104,0,0,,7,,,79,127
93415,note_on,1,0,0,,8,,,80,127
93519,note_off,104,0,0,,8,,,80,127
93519,note_off,0,0,0,,2,,,50,127
93519,note_off,0,0,0,,11,,,58,127
93520,note_on,1,0,0,,11,,,58,127
93520,note_on,0,0,0,,3,,,51,127
93520,note_on,0,0,0,,8,,,80,127
93624,note_off,104,0,0,,8,,,80,127
93625,note_on,1,0,0,,7,,,79,127
93729,note_off,104,0,0,,7,,,79,127
93730,note_on,1,0,0,,8,,,80,127
93834,note_off,104,0,0,,8,,,80,127
93835,note_on,1,0,0,,11,,,82,127
93939,note_off,104,0,0,,11,,,82,127
93939,note_off,0,0,0,,3,,,51,127
93939,note_off,0,0,0,,11,,,58,127
93940,note_on,1,0,0,,8,,,56,127
93940,note_on,0,0,0,,0,,,60,127
93940,note_on,0,0,0,,11,,,82,127
94044,note_off,104,0,0,,11,,,82,127
94045,note_on,1,0,0,,8,,,80,127
94149,note_off,104,0,0,,8,,,80,127
94150,note_on,1,0,0,,0,,,84,127
94254,note_off,104,0,0,,0,,,84,127
94255,note_on,1,0,0,,11,,,82,127
94359,note_off,104,0,0,,11,,,82,127
94359,note_off,0,0,0,,0,,,60,127
94360,note_on,1,0,0,,8,,,44,127
94360,note_on,0,0,0,,8,,,80,127
94464,note_off,104,0,0,,8,,,80,127
94465,note_on,1,0,0,,7,,,79,127
94569,note_off,104,0,0,,7,,,79,127
94570,note_on,1,0,0,,5,,,77,127
94674,note_off,104,0,0,,5,,,77,127
94675,note_on,1,0,0,,3,,,75,127
94779,note_off,104,0,0,,3,,,75,127
94779,note_off,0,0,0,,8,,,44,127
94779,note_off,0,0,0,,8,,,56,127
94780,note_on,1,0,0,,11,,,46,127
94780,note_on,0,0,0,,2,,,74,127
94884,note_off,104,0,0,,2,,,74,127
94885,note_on,1,0,0,,3,,,75,127
94989,note_off,104,0,0,,3,,,75,127
94990,note_on,1,0,0,,5,,,77,127
95094,note_off,104,0,0,,5,,,77,127
95095,note_on,1,0,0,,3,,,75,127
95199,note_off,104,0,0,,3,,,75,127
95200,note_on,1,0,0,,2,,,74,127
95304,note_off,104,0,0,,2,,,74,127
95305,note_on,1,0,0,,0,,,72,127
95409,note_off,104,0,0,,0,,,72,127
95409,note_off,0,0,0,,11,,,46,127
95410,note_on,1,0,0,,2,,,50,127
95410,note_on,0,0,0,,11,,,70,127
95514,note_off,104,0,0,,11,,,70,127
95515,note_on,1,0,0,,8,,,68,127
95619,note_off,104,0,0,,8,,,68,127
95619,note_off,0,0,0,,2,,,50,127
95620,note_on,1,0,0,,3,,,51,127
95620,note_on,0,0,0,,7,,,67,127
95724,note_off,104,0,0,,7,,,67,127
95725,note_on,1,0,0,,8,,,68,127
95829,note_off,104,0,0,,8,,,68,127
95829,note_off,0,0,0,,3,,,51,127
95830,note_on,1,0,0,,8,,,56,127
95830,note_on,0,0,0,,11,,,70,127
95934,note_off,104,0,0,,11,,,70,127
95935,note_on,1,0,0,,8,,,68,127
96039,note_off,104,0,0,,8,,,68,127
96039,note_off,0,0,0,,8,,,56,127
96040,note_on,1,0,0,,11,,,58,127
96040,note_on,0,0,0,,7,,,67,127
96144,note_off,104,0,0,,7,,,67,127
96145,note_on,1,0,0,,5,,,65,127
96249,note_off,104,0,0,,5,,,65,127
96250,note_on,1,0,0,,11,,,46,127
96250,note_on,0,0,0,,3,,,63,127
96354,note_off,104,0,0,,3,,,63,127
96355,note_on,1,0,0,,2,,,62,127
96459,note_off,104,0,0,,2,,,62,127
96459,note_off,0,0,0,,11,,,46,127
96459,note_off,0,0,0,,11,,,58,127
96460,note_on,1,0,0,,3,,,51,127
96460,note_on,0,0,0,,3,,,63,127
96878,note_off,418,0,0,,3,,,63,127
96879,note_on,1,0,0,,7,,,79,127
96879,note_on,0,0,0,,11,,,82,127
96984,note_off,105,0,0,,3,,,51,127
97089,note_on,105,0,0,,7,,,55,127
97297,note_off,208,0,0,,7,,,55,127
97298,note_on,1,0,0,,8,,,56,127
97506,note_off,208,0,0,,11,,,82,127
97506,note_off,0,0,0,,7,,,79,127
97507,note_on,1,0,0,,0,,,72,127
97507,note_on,0,0,0,,8,,,68,127
97715,note_off,208,0,0,,8,,,68,127
97715,note_off,0,0,0,,0,,,72,127
97715,note_off,0,0,0,,8,,,56,127
97716,note_on,1,0,0,,11,,,58,127
97716,note_on,0,0,0,,5,,,77,127
97716,note_on,0,0,0,,5,,,65,127
97924,note_off,208,0,0,,5,,,65,127
97924,note_off,0,0,0,,5,,,77,127
97925,note_on,1,0,0,,2,,,74,127
97925,note_on,0,0,0,,11,,,70,127
98133,note_off,208,0,0,,11,,,70,127
98133,note_off,0,0,0,,2,,,74,127
98133,note_off,0,0,0,,11,,,58,127
98134,note_on,1,0,0,,3,,,51,127
98134,note_on,0,0,0,,7,,,79,127
98134,note_on,0,0,0,,7,,,67,127
98552,note_off,418,0,0,,7,,,67,127
98552,note_off,0,0,0,,7,,,79,127
98553,note_on,1,0,0,,7,,,79,127
98553,note_on,0,0,0,,11,,,82,127
98658,note_off,105,0,0,,3,,,51,127
98763,note_on,105,0,0,,7,,,43,127
98971,note_off,208,0,0,,7,,,43,127
98972,note_on,1,0,0,,8,,,44,127
99180,note_off,208,0,0,,11,,,82,127
99180,note_off,0,0,0,,7,,,79,127
99181,note_on,1,0,0,,7,,,55,127
99181,note_on,0,0,0,,3,,,63,127
99389,note_off,208,0,0,,3,,,63,127
99389,note_off,0,0,0,,7,,,55,127
99389,note_off,0,0,0,,8,,,44,127
99390,note_on,1,0,0,,11,,,46,127
99390,note_on,0,0,0,,5,,,65,127
99390,note_on,0,0,0,,8,,,56,127
99598,note_off,208,0,0,,8,,,56,127
99598,note_off,0,0,0,,5,,,65,127
99599,note_on,1,0,0,,5,,,53,127
99599,note_on,0,0,0,,2,,,62,127
99807,note_off,208,0,0,,2,,,62,127
99807,note_off,0,0,0,,5,,,53,127
99807,note_off,0,0,0,,11,,,46,127
99808,note_on,1,0,0,,3,,,39,127
99808,note_on,0,0,0,,3,,,63,127
99808,note_on,0,0,0,,7,,,55,127
100226,note_off,418,0,0,,7,,,55,127
100226,note_off,0,0,0,,3,,,63,127
100227,note_on,1,0,0,,7,,,79,127
100227,note_on,0,0,0,,11,,,82,127
100332,note_off,105,0,0,,3,,,39,127
100437,note_on,105,0,0,,7,,,55,127
100645,note_off,208,0,0,,7,,,55,127
100646,note_on,1,0,0,,8,,,56,127
100854,note_off,208,0,0,,11,,,82,127
100854,note_off,0,0,0,,7,,,79,127
100855,note_on,1,0,0,,0,,,72,127
100855,note_on,0,0,0,,8,,,68,127
101063,note_off,208,0,0,,8,,,68,127
101063,note_off,0,0,0,,0,,,72,127
101063,note_off,0,0,0,,8,,,56,127
101064,note_on,1,0,0,,11,,,58,127
101064,note_on,0,0,0,,5,,,65,127
101064,note_on,0,0,0,,5,,,77,127
101272,note_off,208,0,0,,5,,,77,127
101272,note_off,0,0,0,,5,,,65,127
101273,note_on,1,0,0,,2,,,74,127
101273,note_on,0,0,0,,11,,,70,127
101481,note_off,208,0,0,,11,,,70,127
101481,note_off,0,0,0,,2,,,74,127
101481,note_off,0,0,0,,11,,,58,127
101482,note_on,1,0,0,,3,,,51,127
101482,note_on,0,0,0,,7,,,67,127
101482,note_on,0,0,0,,7,,,79,127
101900,note_off,418,0,0,,7,,,79,127
101900,note_off,0,0,0,,7,,,67,127
101901,note_on,1,0,0,,11,,,82,127
101901,note_on,0,0,0,,7,,,79,127
102006,note_off,105,0,0,,3,,,51,127
102111,note_on,105,0,0,,7,,,43,127
102319,note_off,208,0,0,,7,,,43,127
102320,note_on,1,0,0,,8,,,44,127
102528,note_off,208,0,0,,7,,,79,127
102528,note_off,0,0,0,,11,,,82,127
102529,note_on,1,0,0,,3,,,63,127
102529,note_on,0,0,0,,7,,,55,127
102737,note_off,208,0,0,,7,,,55,127
102737,note_off,0,0,0,,3,,,63,127
102737,note_off,0,0,0,,8,,,44,127
102738,note_on,1,0,0,,11,,,46,127
102738,note_on,0,0,0,,5,,,65,127
102738,note_on,0,0,0,,8,,,56,127
102946,note_off,208,0,0,,8,,,56,127
102946,note_off,0,0,0,,5,,,65,127
102947,note_on,1,0,0,,5,,,53,127
102947,note_on,0,0,0,,2,,,62,127
103155,note_off,208,0,0,,2,,,62,127
103155,note_off,0,0,0,,5,,,53,127
103155,note_off,0,0,0,,11,,,46,127
103156,note_on,1,0,0,,3,,,39,127
103156,note_on,0,0,0,,7,,,55,127
103156,note_on,0,0,0,,3,,,63,127
103364,note_off,208,0,0,,7,,,55,127
103365,note_on,1,0,0,,11,,,70,127
103417,note_off,52,0,0,,3,,,63,127
103573,note_off,156,0,0,,11,,,70,127
103574,note_on,1,0,0,,3,,,63,127
103733,note_off,159,0,0,,3,,,39,127
103782,note_off,49,0,0,,3,,,63,127
103783,note_on,1,0,0,,7,,,55,127
103783,note_on,0,0,0,,11,,,70,127
103991,note_off,208,0,0,,11,,,70,127
103991,note_off,0,0,0,,7,,,55,127
103992,note_on,1,0,0,,8,,,56,127
103992,note_on,0,0,0,,3,,,63,127
104200,note_off,208,0,0,,3,,,63,127
104201,note_on,1,0,0,,0,,,72,127
104409,note_off,208,0,0,,0,,,72,127
104409,note_off,0,0,0,,8,,,56,127
104410,note_on,1,0,0,,11,,,58,127
104410,note_on,0,0,0,,11,,,70,127
104514,note_off,104,0,0,,11,,,70,127
104515,note_on,1,0,0,,8,,,68,127
104619,note_off,104,0,0,,8,,,68,127
104620,note_on,1,0,0,,7,,,67,127
104724,note_off,104,0,0,,7,,,67,127
104725,note_on,1,0,0,,5,,,65,127
104829,note_off,104,0,0,,5,,,65,127
104829,note_off,0,0,0,,11,,,58,127
104830,note_on,1,0,0,,3,,,51,127
104830,note_on,0,0,0,,3,,,63,127
105038,note_off,208,0,0,,3,,,63,127
105039,note_on,1,0,0,,11,,,82,127
105247,note_off,208,0,0,,11,,,82,127
105248,note_on,1,0,0,,3,,,75,127
105407,note_off,159,0,0,,3,,,51,127
105456,note_off,49,0,0,,3,,,75,127
105457,note_on,1,0,0,,7,,,43,127
105457,note_on,0,0,0,,7,,,55,127
105457,note_on,0,0,0,,11,,,82,127
105665,note_off,208,0,0,,11,,,82,127
105665,note_off,0,0,0,,7,,,55,127
105665,note_off,0,0,0,,7,,,43,127
105666,note_on,1,0,0,,8,,,44,127
105666,note_on,0,0,0,,8,,,56,127
105666,note_on,0,0,0,,3,,,75,127
105874,note_off,208,0,0,,3,,,75,127
105875,note_on,1,0,0,,0,,,84,127
106083,note_off,208,0,0,,0,,,84,127
106083,note_off,0,0,0,,8,,,56,127
106083,note_off,0,0,0,,8,,,44,127
106084,note_on,1,0,0,,11,,,58,127
106084,note_on,0,0,0,,11,,,46,127
106084,note_on,0,0,0,,11,,,82,127
106188,note_off,104,0,0,,11,,,82,127
106189,note_on,1,0,0,,8,,,80,127
106293,note_off,104,0,0,,8,,,80,127
106294,note_on,1,0,0,,7,,,79,127
106398,note_off,104,0,0,,7,,,79,127
106399,note_on,1,0,0,,5,,,77,127
106500,note_off,101,0,0,,5,,,77,127
106502,note_off,2,0,0,,11,,,46,127
106502,note_off,0,0,0,,11,,,58,127
106503,note_on,1,0,0,,3,,,39,127
106503,note_on,0,0,0,,3,,,51,127
106503,note_on,0,0,0,,5,,,77,127
106555,note_on,52,0,0,,3,,,75,127
106564,note_off,9,0,0,,5,,,77,127
106608,note_on,44,0,0,,5,,,77,127
106617,note_off,9,0,0,,3,,,75,127
106661,note_on,44,0,0,,3,,,75,127
106670,note_off,9,0,0,,5,,,77,127
106714,note_on,44,0,0,,5,,,77,127
106723,note_off,9,0,0,,3,,,75,127
106767,note_on,44,0,0,,3,,,75,127
106776,note_off,9,0,0,,5,,,77,127
108181,note_off,1405,0,0,,3,,,51,127
108181,note_off,0,0,0,,3,,,39,127
108185,note_off,4,0,0,,3,,,75,127
113664,end_of_track,5479,1,0,,,,,,
