tick,type,time,meta,track,program,channel,pitch,tempo,note,velocity
0,copyright,0,1,0,,,,,,
0,program_change,0,0,0,6,0,,,,
0,pitchwheel,0,0,0,,0,0,,,
0,program_change,0,0,0,6,1,,,,
0,pitchwheel,0,0,0,,1,-590,,,
0,program_change,0,0,0,6,2,,,,
0,pitchwheel,0,0,0,,2,-272,,,
0,program_change,0,0,0,6,3,,,,
0,pitchwheel,0,0,0,,3,-353,,,
0,program_change,0,0,0,6,4,,,,
0,pitchwheel,0,0,0,,4,-560,,,
0,program_change,0,0,0,6,5,,,,
0,pitchwheel,0,0,0,,5,-80,,,
0,program_change,0,0,0,6,6,,,,
0,pitchwheel,0,0,0,,6,-625,,,
0,program_change,0,0,0,6,7,,,,
0,pitchwheel,0,0,0,,7,-130,,,
0,program_change,0,0,0,6,8,,,,
0,pitchwheel,0,0,0,,8,-512,,,
0,program_change,0,0,0,6,10,,,,
0,pitchwheel,0,0,0,,10,-464,,,
0,program_change,0,0,0,6,11,,,,
0,pitchwheel,0,0,0,,11,-208,,,
0,program_change,0,0,0,6,12,,,,
0,pitchwheel,0,0,0,,12,-553,,,
0,set_tempo,0,1,0,,,,500000,,
76,note_on,76,0,0,,7,,,79,127
76,note_on,0,0,0,,12,,,83,127
164,note_off,88,0,0,,7,,,79,127
164,note_on,0,0,0,,2,,,74,127
252,note_off,88,0,0,,2,,,74,127
252,note_on,0,0,0,,12,,,71,127
340,note_off,88,0,0,,12,,,71,127
340,note_off,0,0,0,,12,,,83,127
340,note_on,0,0,0,,7,,,67,127
340,note_on,0,0,0,,12,,,83,127
428,note_off,88,0,0,,7,,,67,127
428,note_on,0,0,0,,2,,,62,127
516,note_off,88,0,0,,2,,,62,127
516,note_on,0,0,0,,12,,,59,127
604,note_off,88,0,0,,12,,,59,127
604,note_off,0,0,0,,12,,,83,127
604,note_on,0,0,0,,12,,,83,127
604,note_on,0,0,0,,7,,,55,127
692,note_off,88,0,0,,7,,,55,127
692,note_on,0,0,0,,2,,,50,127
780,note_off,88,0,0,,2,,,50,127
780,note_on,0,0,0,,12,,,47,127
868,note_off,88,0,0,,12,,,47,127
868,note_off,0,0,0,,12,,,83,127
868,note_on,0,0,0,,12,,,83,127
868,note_on,0,0,0,,7,,,43,127
956,note_off,88,0,0,,12,,,83,127
956,note_on,0,0,0,,0,,,84,127
1044,note_off,88,0,0,,0,,,84,127
1044,note_on,0,0,0,,2,,,86,127
1132,note_off,88,0,0,,2,,,86,127
1132,note_on,0,0,0,,12,,,83,127
1132,note_on,0,0,0,,0,,,84,127
1220,note_off,88,0,0,,0,,,84,127
1220,note_off,0,0,0,,12,,,83,127
1220,note_on,0,0,0,,10,,,81,127
1308,note_off,88,0,0,,10,,,81,127
1308,note_on,0,0,0,,7,,,79,127
1396,note_off,88,0,0,,7,,,79,127
1396,note_off,0,0,0,,7,,,43,127
1396,note_on,0,0,0,,6,,,78,127
1484,note_off,88,0,0,,6,,,78,127
1484,note_on,0,0,0,,4,,,76,127
1572,note_off,88,0,0,,4,,,76,127
1572,note_on,0,0,0,,2,,,74,127
1660,note_off,88,0,0,,2,,,74,127
1660,note_on,0,0,0,,7,,,79,127
1660,note_on,0,0,0,,12,,,83,127
1748,note_off,88,0,0,,7,,,79,127
1748,note_on,0,0,0,,2,,,74,127
1836,note_off,88,0,0,,2,,,74,127
1836,note_on,0,0,0,,12,,,71,127
1924,note_off,88,0,0,,12,,,71,127
1924,note_off,0,0,0,,12,,,83,127
1924,note_on,0,0,0,,7,,,67,127
1924,note_on,0,0,0,,12,,,83,127
2012,note_off,88,0,0,,7,,,67,127
2012,note_on,0,0,0,,2,,,62,127
2100,note_off,88,0,0,,2,,,62,127
2100,note_on,0,0,0,,12,,,59,127
2188,note_off,88,0,0,,12,,,59,127
2188,note_off,0,0,0,,12,,,83,127
2188,note_on,0,0,0,,12,,,83,127
2188,note_on,0,0,0,,7,,,55,127
2276,note_off,88,0,0,,7,,,55,127
2276,note_on,0,0,0,,2,,,50,127
2364,note_off,88,0,0,,2,,,50,127
2364,note_on,0,0,0,,12,,,47,127
2452,note_off,88,0,0,,12,,,47,127
2452,note_off,0,0,0,,12,,,83,127
2452,note_on,0,0,0,,12,,,83,127
2452,note_on,0,0,0,,7,,,43,127
2540,note_off,88,0,0,,12,,,83,127
2540,note_on,0,0,0,,0,,,84,127
2628,note_off,88,0,0,,0,,,84,127
2628,note_on,0,0,0,,2,,,86,127
2716,note_off,88,0,0,,2,,,86,127
2716,note_on,0,0,0,,12,,,83,127
2716,note_on,0,0,0,,0,,,84,127
2804,note_off,88,0,0,,0,,,84,127
2804,note_off,0,0,0,,12,,,83,127
2804,note_on,0,0,0,,10,,,81,127
2892,note_off,88,0,0,,10,,,81,127
2892,note_on,0,0,0,,7,,,79,127
2980,note_off,88,0,0,,7,,,79,127
2980,note_off,0,0,0,,7,,,43,127
2980,note_on,0,0,0,,6,,,78,127
3068,note_off,88,0,0,,6,,,78,127
3068,note_on,0,0,0,,4,,,76,127
3156,note_off,88,0,0,,4,,,76,127
3156,note_on,0,0,0,,2,,,74,127
3244,note_off,88,0,0,,2,,,74,127
3244,note_on,0,0,0,,4,,,64,127
3244,note_on,0,0,0,,7,,,67,127
3244,note_on,0,0,0,,2,,,74,127
3244,note_on,0,0,0,,0,,,72,127
3332,note_off,88,0,0,,0,,,72,127
3332,note_off,0,0,0,,2,,,74,127
3332,note_on,0,0,0,,12,,,71,127
3420,note_off,88,0,0,,12,,,71,127
3420,note_on,0,0,0,,0,,,72,127
3508,note_off,88,0,0,,0,,,72,127
3508,note_off,0,0,0,,7,,,67,127
3508,note_off,0,0,0,,4,,,64,127
3508,note_on,0,0,0,,2,,,74,127
3508,note_on,0,0,0,,0,,,72,127
3508,note_on,0,0,0,,10,,,69,127
3508,note_on,0,0,0,,6,,,66,127
3541,note_off,33,0,0,,10,,,69,127
3596,note_off,55,0,0,,0,,,72,127
3596,note_off,0,0,0,,2,,,74,127
3596,note_on,0,0,0,,12,,,71,127
3684,note_off,88,0,0,,12,,,71,127
3684,note_on,0,0,0,,0,,,72,127
3772,note_off,88,0,0,,0,,,72,127
3772,note_on,0,0,0,,2,,,62,127
3772,note_on,0,0,0,,4,,,76,127
3860,note_off,88,0,0,,4,,,76,127
3860,note_on,0,0,0,,2,,,74,127
3948,note_off,88,0,0,,2,,,74,127
3948,note_on,0,0,0,,0,,,72,127
4036,note_off,88,0,0,,0,,,72,127
4036,note_off,0,0,0,,2,,,62,127
4036,note_off,0,0,0,,6,,,66,127
4036,note_on,0,0,0,,7,,,67,127
4036,note_on,0,0,0,,12,,,71,127
4124,note_off,88,0,0,,12,,,71,127
4124,note_on,0,0,0,,10,,,69,127
4212,note_off,88,0,0,,10,,,69,127
4212,note_on,0,0,0,,12,,,71,127
4300,note_off,88,0,0,,12,,,71,127
4300,note_on,0,0,0,,4,,,64,127
4300,note_on,0,0,0,,0,,,72,127
4388,note_off,88,0,0,,0,,,72,127
4388,note_on,0,0,0,,12,,,71,127
4476,note_off,88,0,0,,12,,,71,127
4476,note_on,0,0,0,,0,,,72,127
4564,note_off,88,0,0,,0,,,72,127
4564,note_off,0,0,0,,4,,,64,127
4564,note_off,0,0,0,,7,,,67,127
4564,note_on,0,0,0,,4,,,76,127
4564,note_on,0,0,0,,6,,,66,127
4564,note_on,0,0,0,,10,,,69,127
4652,note_off,88,0,0,,4,,,76,127
4652,note_on,0,0,0,,2,,,74,127
4740,note_off,88,0,0,,2,,,74,127
4740,note_on,0,0,0,,0,,,72,127
4828,note_off,88,0,0,,0,,,72,127
4828,note_off,0,0,0,,10,,,69,127
4828,note_off,0,0,0,,6,,,66,127
4828,note_on,0,0,0,,7,,,67,127
4828,note_on,0,0,0,,12,,,71,127
4916,note_off,88,0,0,,12,,,71,127
4916,note_on,0,0,0,,10,,,69,127
5004,note_off,88,0,0,,10,,,69,127
5004,note_on,0,0,0,,12,,,71,127
5092,note_off,88,0,0,,12,,,71,127
5092,note_on,0,0,0,,4,,,64,127
5092,note_on,0,0,0,,0,,,72,127
5180,note_off,88,0,0,,0,,,72,127
5180,note_on,0,0,0,,12,,,71,127
5268,note_off,88,0,0,,12,,,71,127
5268,note_on,0,0,0,,0,,,72,127
5356,note_off,88,0,0,,0,,,72,127
5356,note_off,0,0,0,,4,,,64,127
5356,note_off,0,0,0,,7,,,67,127
5356,note_on,0,0,0,,6,,,66,127
5356,note_on,0,0,0,,10,,,69,127
5356,note_on,0,0,0,,4,,,76,127
5444,note_off,88,0,0,,4,,,76,127
5444,note_on,0,0,0,,2,,,74,127
5532,note_off,88,0,0,,2,,,74,127
5532,note_on,0,0,0,,0,,,72,127
5620,note_off,88,0,0,,0,,,72,127
5620,note_off,0,0,0,,10,,,69,127
5620,note_off,0,0,0,,6,,,66,127
5620,note_on,0,0,0,,12,,,71,127
5620,note_on,0,0,0,,7,,,67,127
5708,note_off,88,0,0,,7,,,67,127
5708,note_off,0,0,0,,12,,,71,127
5708,note_on,0,0,0,,7,,,67,127
5796,note_on,88,0,0,,12,,,71,127
5884,note_off,88,0,0,,12,,,71,127
5884,note_on,0,0,0,,2,,,74,127
5972,note_off,88,0,0,,2,,,74,127
5972,note_on,0,0,0,,12,,,71,127
6060,note_off,88,0,0,,12,,,71,127
6060,note_on,0,0,0,,2,,,74,127
6148,note_off,88,0,0,,2,,,74,127
6148,note_off,0,0,0,,7,,,67,127
6148,note_on,0,0,0,,7,,,79,127
6236,note_off,88,0,0,,7,,,79,127
6236,note_on,0,0,0,,2,,,74,127
6324,note_off,88,0,0,,2,,,74,127
6324,note_on,0,0,0,,7,,,79,127
6412,note_off,88,0,0,,7,,,79,127
6412,note_on,0,0,0,,7,,,79,127
6412,note_on,0,0,0,,12,,,83,127
6500,note_off,88,0,0,,7,,,79,127
6500,note_on,0,0,0,,2,,,74,127
6588,note_off,88,0,0,,2,,,74,127
6588,note_on,0,0,0,,12,,,71,127
6676,note_off,88,0,0,,12,,,71,127
6676,note_off,0,0,0,,12,,,83,127
6676,note_on,0,0,0,,7,,,67,127
6676,note_on,0,0,0,,12,,,83,127
6764,note_off,88,0,0,,7,,,67,127
6764,note_on,0,0,0,,2,,,62,127
6852,note_off,88,0,0,,2,,,62,127
6852,note_on,0,0,0,,12,,,59,127
6940,note_off,88,0,0,,12,,,59,127
6940,note_off,0,0,0,,12,,,83,127
6940,note_on,0,0,0,,12,,,83,127
6940,note_on,0,0,0,,7,,,55,127
7028,note_off,88,0,0,,7,,,55,127
7028,note_on,0,0,0,,2,,,50,127
7116,note_off,88,0,0,,2,,,50,127
7116,note_on,0,0,0,,12,,,47,127
7204,note_off,88,0,0,,12,,,47,127
7204,note_off,0,0,0,,12,,,83,127
7204,note_on,0,0,0,,12,,,83,127
7204,note_on,0,0,0,,7,,,43,127
7335,note_on,131,0,0,,0,,,84,127
7369,note_off,34,0,0,,12,,,83,127
7390,note_off,21,0,0,,0,,,84,127
7400,note_on,10,0,0,,2,,,86,127
7447,note_on,47,0,0,,0,,,84,127
7455,note_off,8,0,0,,2,,,86,127
7484,note_on,29,0,0,,12,,,83,127
7502,note_off,18,0,0,,0,,,84,127
7521,note_on,19,0,0,,10,,,81,127
7539,note_off,18,0,0,,12,,,83,127
7557,note_on,18,0,0,,7,,,79,127
7576,note_off,19,0,0,,10,,,81,127
7593,note_on,17,0,0,,6,,,78,127
7612,note_off,19,0,0,,7,,,79,127
7633,note_on,21,0,0,,4,,,76,127
7648,note_off,15,0,0,,6,,,78,127
7669,note_on,21,0,0,,2,,,74,127
7688,note_off,19,0,0,,4,,,76,127
7705,note_on,17,0,0,,0,,,72,127
7724,note_off,19,0,0,,2,,,74,127
7743,note_on,19,0,0,,12,,,71,127
7760,note_off,17,0,0,,0,,,72,127
7779,note_on,19,0,0,,10,,,69,127
7798,note_off,19,0,0,,12,,,71,127
7815,note_on,17,0,0,,7,,,67,127
7834,note_off,19,0,0,,10,,,69,127
7852,note_on,18,0,0,,10,,,69,127
7866,note_off,14,0,0,,7,,,43,127
7870,note_off,4,0,0,,7,,,67,127
7889,note_on,19,0,0,,12,,,71,127
7907,note_off,18,0,0,,10,,,69,127
7925,note_on,18,0,0,,0,,,72,127
7944,note_off,19,0,0,,12,,,71,127
7962,note_on,18,0,0,,12,,,71,127
7980,note_off,18,0,0,,0,,,72,127
7998,note_on,18,0,0,,10,,,69,127
8017,note_off,19,0,0,,12,,,71,127
8035,note_on,18,0,0,,7,,,67,127
8053,note_off,18,0,0,,10,,,69,127
8072,note_on,19,0,0,,6,,,66,127
8090,note_off,18,0,0,,7,,,67,127
8108,note_on,18,0,0,,4,,,64,127
8127,note_off,19,0,0,,6,,,66,127
8144,note_on,17,0,0,,2,,,62,127
8163,note_off,19,0,0,,4,,,64,127
8182,note_on,19,0,0,,0,,,60,127
8199,note_off,17,0,0,,2,,,62,127
8218,note_on,19,0,0,,12,,,59,127
8237,note_off,19,0,0,,0,,,60,127
8254,note_on,17,0,0,,10,,,57,127
8273,note_off,19,0,0,,12,,,59,127
8292,note_on,19,0,0,,7,,,55,127
8309,note_off,17,0,0,,10,,,57,127
8328,note_on,19,0,0,,10,,,57,127
8347,note_off,19,0,0,,7,,,55,127
8364,note_on,17,0,0,,12,,,59,127
8383,note_off,19,0,0,,10,,,57,127
8401,note_on,18,0,0,,0,,,60,127
8419,note_off,18,0,0,,12,,,59,127
8438,note_on,19,0,0,,12,,,59,127
8456,note_off,18,0,0,,0,,,60,127
8474,note_on,18,0,0,,10,,,57,127
8493,note_off,19,0,0,,12,,,59,127
8511,note_on,18,0,0,,7,,,55,127
8529,note_off,18,0,0,,10,,,57,127
8547,note_on,18,0,0,,6,,,54,127
8566,note_off,19,0,0,,7,,,55,127
8584,note_on,18,0,0,,4,,,52,127
8602,note_off,18,0,0,,6,,,54,127
8621,note_on,19,0,0,,2,,,50,127
8639,note_off,18,0,0,,4,,,52,127
8657,note_on,18,0,0,,0,,,48,127
8678,note_off,21,0,0,,2,,,50,127
8693,note_on,15,0,0,,12,,,47,127
8715,note_off,22,0,0,,0,,,48,127
8732,note_on,17,0,0,,10,,,45,127
8753,note_off,21,0,0,,12,,,47,127
8768,note_on,15,0,0,,7,,,43,127
8794,note_off,26,0,0,,10,,,45,127
8804,note_on,10,0,0,,6,,,42,127
8832,note_off,28,0,0,,7,,,43,127
8843,note_on,11,0,0,,4,,,40,127
8869,note_off,26,0,0,,6,,,42,127
8879,note_on,10,0,0,,2,,,38,127
8909,note_off,30,0,0,,4,,,40,127
8923,note_on,14,0,0,,0,,,36,127
8971,note_on,48,0,0,,12,,,35,127
8993,note_off,22,0,0,,0,,,36,127
9021,note_on,28,0,0,,10,,,33,127
9043,note_off,22,0,0,,12,,,35,127
9105,note_on,62,0,0,,7,,,31,127
9152,note_off,47,0,0,,10,,,33,127
10465,note_off,1313,0,0,,2,,,38,127
10501,note_off,36,0,0,,7,,,31,127
10980,note_on,479,0,0,,7,,,55,127
10980,note_on,0,0,0,,2,,,86,127
10980,note_on,0,0,0,,12,,,59,127
10980,note_on,0,0,0,,2,,,62,127
11068,note_off,88,0,0,,2,,,86,127
11068,note_on,0,0,0,,12,,,83,127
11156,note_off,88,0,0,,12,,,83,127
11156,note_on,0,0,0,,7,,,79,127
11244,note_off,88,0,0,,7,,,79,127
11244,note_off,0,0,0,,2,,,62,127
11244,note_off,0,0,0,,12,,,59,127
11244,note_off,0,0,0,,7,,,55,127
11244,note_on,0,0,0,,2,,,62,127
11244,note_on,0,0,0,,12,,,59,127
11244,note_on,0,0,0,,7,,,55,127
11244,note_on,0,0,0,,2,,,74,127
11332,note_off,88,0,0,,2,,,74,127
11332,note_on,0,0,0,,12,,,71,127
11420,note_off,88,0,0,,12,,,71,127
11420,note_on,0,0,0,,7,,,67,127
11508,note_off,88,0,0,,7,,,67,127
11508,note_off,0,0,0,,7,,,55,127
11508,note_off,0,0,0,,12,,,59,127
11508,note_off,0,0,0,,2,,,62,127
11508,note_on,0,0,0,,7,,,55,127
11508,note_on,0,0,0,,2,,,62,127
11508,note_on,0,0,0,,12,,,59,127
11508,note_on,0,0,0,,4,,,64,127
11552,note_off,44,0,0,,4,,,64,127
11640,note_off,88,0,0,,12,,,59,127
11640,note_off,0,0,0,,7,,,55,127
11772,note_off,132,0,0,,2,,,62,127
11772,note_on,0,0,0,,2,,,62,127
11772,note_on,0,0,0,,2,,,86,127
11772,note_on,0,0,0,,6,,,54,127
11772,note_on,0,0,0,,10,,,57,127
11860,note_off,88,0,0,,2,,,86,127
11860,note_on,0,0,0,,10,,,81,127
11948,note_off,88,0,0,,10,,,81,127
11948,note_on,0,0,0,,6,,,78,127
12036,note_off,88,0,0,,6,,,78,127
12036,note_off,0,0,0,,10,,,57,127
12036,note_off,0,0,0,,6,,,54,127
12036,note_off,0,0,0,,2,,,62,127
12036,note_on,0,0,0,,2,,,62,127
12036,note_on,0,0,0,,2,,,74,127
12036,note_on,0,0,0,,6,,,54,127
12036,note_on,0,0,0,,10,,,57,127
12124,note_off,88,0,0,,2,,,74,127
12124,note_on,0,0,0,,10,,,69,127
12212,note_off,88,0,0,,10,,,69,127
12212,note_on,0,0,0,,6,,,66,127
12300,note_off,88,0,0,,6,,,66,127
12300,note_off,0,0,0,,10,,,57,127
12300,note_off,0,0,0,,6,,,54,127
12300,note_off,0,0,0,,2,,,62,127
12300,note_on,0,0,0,,2,,,62,127
12300,note_on,0,0,0,,4,,,64,127
12300,note_on,0,0,0,,6,,,54,127
12300,note_on,0,0,0,,10,,,57,127
12344,note_off,44,0,0,,4,,,64,127
12432,note_off,88,0,0,,10,,,57,127
12432,note_off,0,0,0,,6,,,54,127
12564,note_off,132,0,0,,2,,,62,127
12564,note_on,0,0,0,,2,,,62,127
12564,note_on,0,0,0,,2,,,86,127
12564,note_on,0,0,0,,7,,,55,127
12564,note_on,0,0,0,,12,,,59,127
12652,note_off,88,0,0,,2,,,86,127
12652,note_on,0,0,0,,12,,,83,127
12740,note_off,88,0,0,,12,,,83,127
12740,note_on,0,0,0,,7,,,79,127
12828,note_off,88,0,0,,7,,,79,127
12828,note_off,0,0,0,,12,,,59,127
12828,note_off,0,0,0,,7,,,55,127
12828,note_off,0,0,0,,2,,,62,127
12828,note_on,0,0,0,,2,,,62,127
12828,note_on,0,0,0,,2,,,74,127
12828,note_on,0,0,0,,7,,,55,127
12828,note_on,0,0,0,,12,,,59,127
12916,note_off,88,0,0,,2,,,74,127
12916,note_on,0,0,0,,12,,,71,127
13004,note_off,88,0,0,,12,,,71,127
13004,note_on,0,0,0,,7,,,67,127
13092,note_off,88,0,0,,7,,,67,127
13092,note_off,0,0,0,,12,,,59,127
13092,note_off,0,0,0,,7,,,55,127
13092,note_off,0,0,0,,2,,,62,127
13092,note_on,0,0,0,,2,,,62,127
13092,note_on,0,0,0,,4,,,64,127
13092,note_on,0,0,0,,7,,,55,127
13092,note_on,0,0,0,,12,,,59,127
13136,note_off,44,0,0,,4,,,64,127
13224,note_off,88,0,0,,12,,,59,127
13224,note_off,0,0,0,,7,,,55,127
13356,note_off,132,0,0,,2,,,62,127
13356,note_on,0,0,0,,2,,,62,127
13356,note_on,0,0,0,,2,,,86,127
13356,note_on,0,0,0,,6,,,54,127
13356,note_on,0,0,0,,10,,,57,127
13444,note_off,88,0,0,,2,,,86,127
13444,note_on,0,0,0,,10,,,81,127
13532,note_off,88,0,0,,10,,,81,127
13532,note_on,0,0,0,,6,,,78,127
13620,note_off,88,0,0,,6,,,78,127
13620,note_off,0,0,0,,10,,,57,127
13620,note_off,0,0,0,,6,,,54,127
13620,note_off,0,0,0,,2,,,62,127
13620,note_on,0,0,0,,2,,,62,127
13620,note_on,0,0,0,,2,,,74,127
13620,note_on,0,0,0,,6,,,54,127
13620,note_on,0,0,0,,10,,,57,127
13708,note_off,88,0,0,,2,,,74,127
13708,note_on,0,0,0,,10,,,69,127
13796,note_off,88,0,0,,10,,,69,127
13796,note_on,0,0,0,,6,,,66,127
13884,note_off,88,0,0,,6,,,66,127
13884,note_off,0,0,0,,10,,,57,127
13884,note_off,0,0,0,,6,,,54,127
13884,note_off,0,0,0,,2,,,62,127
13884,note_on,0,0,0,,2,,,62,127
13884,note_on,0,0,0,,4,,,64,127
13884,note_on,0,0,0,,6,,,54,127
13884,note_on,0,0,0,,10,,,57,127
13928,note_off,44,0,0,,4,,,64,127
14016,note_off,88,0,0,,10,,,57,127
14016,note_off,0,0,0,,6,,,54,127
14148,note_off,132,0,0,,2,,,62,127
14148,note_on,0,0,0,,2,,,62,127
14148,note_on,0,0,0,,2,,,86,127
14148,note_on,0,0,0,,7,,,55,127
14148,note_on,0,0,0,,12,,,59,127
14236,note_off,88,0,0,,2,,,86,127
14236,note_on,0,0,0,,12,,,83,127
14324,note_off,88,0,0,,12,,,83,127
14324,note_on,0,0,0,,7,,,79,127
14412,note_off,88,0,0,,7,,,79,127
14412,note_off,0,0,0,,12,,,59,127
14412,note_off,0,0,0,,7,,,55,127
14412,note_off,0,0,0,,2,,,62,127
14412,note_on,0,0,0,,2,,,62,127
14412,note_on,0,0,0,,2,,,74,127
14412,note_on,0,0,0,,7,,,55,127
14412,note_on,0,0,0,,12,,,59,127
14500,note_off,88,0,0,,2,,,74,127
14500,note_on,0,0,0,,12,,,71,127
14588,note_off,88,0,0,,12,,,71,127
14588,note_on,0,0,0,,7,,,67,127
14676,note_off,88,0,0,,7,,,67,127
14676,note_off,0,0,0,,12,,,59,127
14676,note_off,0,0,0,,7,,,55,127
14676,note_off,0,0,0,,2,,,62,127
14676,note_on,0,0,0,,2,,,62,127
14676,note_on,0,0,0,,4,,,64,127
14676,note_on,0,0,0,,7,,,55,127
14676,note_on,0,0,0,,12,,,59,127
14720,note_off,44,0,0,,4,,,64,127
14808,note_off,88,0,0,,12,,,59,127
14808,note_off,0,0,0,,7,,,55,127
14940,note_off,132,0,0,,2,,,62,127
14940,note_on,0,0,0,,2,,,62,127
14940,note_on,0,0,0,,2,,,86,127
14940,note_on,0,0,0,,6,,,54,127
14940,note_on,0,0,0,,10,,,57,127
15028,note_off,88,0,0,,2,,,86,127
15028,note_on,0,0,0,,10,,,81,127
15116,note_off,88,0,0,,10,,,81,127
15116,note_on,0,0,0,,6,,,78,127
15204,note_off,88,0,0,,6,,,78,127
15204,note_off,0,0,0,,10,,,57,127
15204,note_off,0,0,0,,6,,,54,127
15204,note_off,0,0,0,,2,,,62,127
15204,note_on,0,0,0,,2,,,62,127
15204,note_on,0,0,0,,2,,,74,127
15204,note_on,0,0,0,,6,,,54,127
15204,note_on,0,0,0,,10,,,57,127
15292,note_off,88,0,0,,2,,,74,127
15292,note_on,0,0,0,,10,,,69,127
15380,note_off,88,0,0,,10,,,69,127
15380,note_on,0,0,0,,6,,,66,127
15468,note_off,88,0,0,,6,,,66,127
15468,note_off,0,0,0,,10,,,57,127
15468,note_off,0,0,0,,6,,,54,127
15468,note_off,0,0,0,,2,,,62,127
15468,note_on,0,0,0,,2,,,62,127
15468,note_on,0,0,0,,4,,,64,127
15468,note_on,0,0,0,,6,,,54,127
15468,note_on,0,0,0,,10,,,57,127
15512,note_off,44,0,0,,4,,,64,127
15600,note_off,88,0,0,,10,,,57,127
15600,note_off,0,0,0,,6,,,54,127
15732,note_off,132,0,0,,2,,,62,127
15732,note_on,0,0,0,,10,,,57,127
15732,note_on,0,0,0,,1,,,61,127
15732,note_on,0,0,0,,1,,,85,127
15732,note_on,0,0,0,,4,,,52,127
15732,note_on,0,0,0,,7,,,55,127
15820,note_off,88,0,0,,1,,,85,127
15820,note_on,0,0,0,,7,,,79,127
15908,note_off,88,0,0,,7,,,79,127
15908,note_on,0,0,0,,4,,,76,127
15996,note_off,88,0,0,,4,,,76,127
15996,note_off,0,0,0,,7,,,55,127
15996,note_off,0,0,0,,4,,,52,127
15996,note_off,0,0,0,,1,,,61,127
15996,note_off,0,0,0,,10,,,57,127
15996,note_on,0,0,0,,1,,,61,127
15996,note_on,0,0,0,,1,,,73,127
15996,note_on,0,0,0,,4,,,52,127
15996,note_on,0,0,0,,7,,,55,127
15996,note_on,0,0,0,,10,,,57,127
16084,note_off,88,0,0,,1,,,73,127
16084,note_on,0,0,0,,7,,,67,127
16172,note_off,88,0,0,,7,,,67,127
16172,note_on,0,0,0,,4,,,64,127
16260,note_off,88,0,0,,4,,,64,127
16260,note_off,0,0,0,,10,,,57,127
16260,note_off,0,0,0,,7,,,55,127
16260,note_off,0,0,0,,4,,,52,127
16260,note_off,0,0,0,,1,,,61,127
16260,note_on,0,0,0,,1,,,61,127
16260,note_on,0,0,0,,2,,,62,127
16260,note_on,0,0,0,,4,,,52,127
16260,note_on,0,0,0,,7,,,55,127
16260,note_on,0,0,0,,10,,,57,127
16304,note_off,44,0,0,,2,,,62,127
16392,note_off,88,0,0,,10,,,57,127
16392,note_off,0,0,0,,7,,,55,127
16392,note_off,0,0,0,,4,,,52,127
16524,note_off,132,0,0,,1,,,61,127
16524,note_on,0,0,0,,10,,,57,127
16524,note_on,0,0,0,,10,,,81,127
16524,note_on,0,0,0,,2,,,50,127
16524,note_on,0,0,0,,6,,,54,127
16612,note_off,88,0,0,,10,,,81,127
16612,note_on,0,0,0,,6,,,78,127
16700,note_off,88,0,0,,6,,,78,127
16700,note_on,0,0,0,,2,,,74,127
16788,note_off,88,0,0,,2,,,74,127
16788,note_off,0,0,0,,6,,,54,127
16788,note_off,0,0,0,,2,,,50,127
16788,note_off,0,0,0,,10,,,57,127
16788,note_on,0,0,0,,10,,,69,127
16876,note_off,88,0,0,,10,,,69,127
16876,note_on,0,0,0,,6,,,66,127
16964,note_off,88,0,0,,6,,,66,127
16964,note_on,0,0,0,,2,,,62,127
17052,note_off,88,0,0,,2,,,62,127
17052,note_on,0,0,0,,10,,,57,127
17140,note_off,88,0,0,,10,,,57,127
17140,note_on,0,0,0,,6,,,54,127
17228,note_off,88,0,0,,6,,,54,127
17228,note_on,0,0,0,,2,,,50,127
17316,note_off,88,0,0,,2,,,50,127
17316,note_on,0,0,0,,2,,,38,127
17404,note_off,88,0,0,,2,,,38,127
17404,note_on,0,0,0,,6,,,42,127
17492,note_off,88,0,0,,6,,,42,127
17492,note_on,0,0,0,,10,,,45,127
17580,note_off,88,0,0,,10,,,45,127
17580,note_on,0,0,0,,2,,,50,127
17668,note_off,88,0,0,,2,,,50,127
17668,note_on,0,0,0,,6,,,54,127
17756,note_off,88,0,0,,6,,,54,127
17756,note_on,0,0,0,,10,,,57,127
17844,note_off,88,0,0,,10,,,57,127
17844,note_on,0,0,0,,2,,,62,127
17932,note_off,88,0,0,,2,,,62,127
17932,note_on,0,0,0,,6,,,66,127
18020,note_off,88,0,0,,6,,,66,127
18020,note_on,0,0,0,,10,,,69,127
18134,note_on,114,0,0,,6,,,78,127
18134,note_on,0,0,0,,2,,,74,127
18148,note_off,14,0,0,,10,,,69,127
18225,note_off,77,0,0,,2,,,74,127
18225,note_on,0,0,0,,10,,,69,127
18316,note_off,91,0,0,,10,,,69,127
18316,note_on,0,0,0,,6,,,66,127
18407,note_off,91,0,0,,6,,,66,127
18407,note_off,0,0,0,,6,,,78,127
18407,note_on,0,0,0,,6,,,78,127
18407,note_on,0,0,0,,2,,,62,127
18498,note_off,91,0,0,,2,,,62,127
18498,note_on,0,0,0,,10,,,57,127
18589,note_off,91,0,0,,10,,,57,127
18589,note_on,0,0,0,,6,,,54,127
18680,note_off,91,0,0,,6,,,54,127
18680,note_off,0,0,0,,6,,,78,127
18680,note_on,0,0,0,,2,,,50,127
18680,note_on,0,0,0,,6,,,78,127
18817,note_off,137,0,0,,2,,,50,127
18954,note_off,137,0,0,,6,,,78,127
18954,note_on,0,0,0,,6,,,78,127
18954,note_on,0,0,0,,10,,,69,127
19045,note_off,91,0,0,,10,,,69,127
19045,note_off,0,0,0,,6,,,78,127
19045,note_on,0,0,0,,7,,,79,127
19045,note_on,0,0,0,,4,,,64,127
19136,note_off,91,0,0,,4,,,64,127
19136,note_off,0,0,0,,7,,,79,127
19136,note_on,0,0,0,,1,,,61,127
19136,note_on,0,0,0,,10,,,81,127
19227,note_off,91,0,0,,10,,,81,127
19227,note_off,0,0,0,,1,,,61,127
19227,note_on,0,0,0,,10,,,57,127
19227,note_on,0,0,0,,7,,,79,127
19227,note_on,0,0,0,,6,,,78,127
19273,note_off,46,0,0,,7,,,79,127
19319,note_off,46,0,0,,6,,,78,127
19319,note_off,0,0,0,,10,,,57,127
19319,note_on,0,0,0,,4,,,76,127
19319,note_on,0,0,0,,4,,,52,127
19410,note_off,91,0,0,,4,,,52,127
19410,note_off,0,0,0,,4,,,76,127
19410,note_on,0,0,0,,2,,,74,127
19410,note_on,0,0,0,,1,,,49,127
19501,note_off,91,0,0,,1,,,49,127
19501,note_off,0,0,0,,2,,,74,127
19501,note_on,0,0,0,,10,,,45,127
19501,note_on,0,0,0,,4,,,76,127
19758,note_off,257,0,0,,10,,,45,127
19774,note_off,16,0,0,,4,,,76,127
19775,note_on,1,0,0,,6,,,78,127
19775,note_on,0,0,0,,2,,,74,127
19866,note_off,91,0,0,,2,,,74,127
19866,note_on,0,0,0,,10,,,69,127
19957,note_off,91,0,0,,10,,,69,127
19957,note_on,0,0,0,,6,,,66,127
20048,note_off,91,0,0,,6,,,66,127
20048,note_off,0,0,0,,6,,,78,127
20048,note_on,0,0,0,,6,,,78,127
20048,note_on,0,0,0,,2,,,62,127
20139,note_off,91,0,0,,2,,,62,127
20139,note_on,0,0,0,,10,,,57,127
20230,note_off,91,0,0,,10,,,57,127
20230,note_on,0,0,0,,6,,,54,127
20321,note_off,91,0,0,,6,,,54,127
20321,note_off,0,0,0,,6,,,78,127
20321,note_on,0,0,0,,2,,,50,127
20321,note_on,0,0,0,,6,,,78,127
20458,note_off,137,0,0,,2,,,50,127
20595,note_off,137,0,0,,6,,,78,127
20595,note_on,0,0,0,,6,,,78,127
20595,note_on,0,0,0,,10,,,69,127
20686,note_off,91,0,0,,10,,,69,127
20686,note_off,0,0,0,,6,,,78,127
20686,note_on,0,0,0,,7,,,79,127
20686,note_on,0,0,0,,4,,,64,127
20777,note_off,91,0,0,,4,,,64,127
20777,note_off,0,0,0,,7,,,79,127
20777,note_on,0,0,0,,10,,,81,127
20777,note_on,0,0,0,,1,,,61,127
20868,note_off,91,0,0,,1,,,61,127
20868,note_off,0,0,0,,10,,,81,127
20868,note_on,0,0,0,,10,,,57,127
20868,note_on,0,0,0,,7,,,79,127
20868,note_on,0,0,0,,6,,,78,127
20914,note_off,46,0,0,,7,,,79,127
20960,note_off,46,0,0,,6,,,78,127
20960,note_off,0,0,0,,10,,,57,127
20960,note_on,0,0,0,,4,,,52,127
20960,note_on,0,0,0,,4,,,76,127
21051,note_off,91,0,0,,4,,,76,127
21051,note_off,0,0,0,,4,,,52,127
21051,note_on,0,0,0,,1,,,49,127
21051,note_on,0,0,0,,2,,,74,127
21142,note_off,91,0,0,,2,,,74,127
21142,note_off,0,0,0,,1,,,49,127
21142,note_on,0,0,0,,10,,,45,127
21142,note_on,0,0,0,,4,,,76,127
21413,note_off,271,0,0,,10,,,45,127
21424,note_off,11,0,0,,4,,,76,127
21438,note_on,14,0,0,,4,,,76,127
21438,note_on,0,0,0,,10,,,69,127
21529,note_off,91,0,0,,10,,,69,127
21529,note_on,0,0,0,,4,,,64,127
21620,note_off,91,0,0,,4,,,64,127
21620,note_on,0,0,0,,1,,,61,127
21711,note_off,91,0,0,,1,,,61,127
21711,note_off,0,0,0,,4,,,76,127
21711,note_on,0,0,0,,4,,,76,127
21711,note_on,0,0,0,,10,,,57,127
21802,note_off,91,0,0,,10,,,57,127
21802,note_on,0,0,0,,4,,,52,127
21893,note_off,91,0,0,,4,,,52,127
21893,note_on,0,0,0,,1,,,49,127
21984,note_off,91,0,0,,1,,,49,127
21984,note_off,0,0,0,,4,,,76,127
21984,note_on,0,0,0,,4,,,76,127
21984,note_on,0,0,0,,10,,,45,127
22075,note_off,91,0,0,,4,,,76,127
22075,note_on,0,0,0,,6,,,78,127
22121,note_off,46,0,0,,10,,,45,127
22167,note_off,46,0,0,,6,,,78,127
22167,note_on,0,0,0,,7,,,79,127
22258,note_off,91,0,0,,7,,,79,127
22258,note_on,0,0,0,,2,,,62,127
22258,note_on,0,0,0,,6,,,78,127
22258,note_on,0,0,0,,7,,,79,127
22304,note_off,46,0,0,,7,,,79,127
22350,note_off,46,0,0,,6,,,78,127
22350,note_off,0,0,0,,2,,,62,127
22350,note_on,0,0,0,,4,,,76,127
22350,note_on,0,0,0,,10,,,57,127
22441,note_off,91,0,0,,10,,,57,127
22441,note_off,0,0,0,,4,,,76,127
22441,note_on,0,0,0,,2,,,74,127
22441,note_on,0,0,0,,6,,,54,127
22532,note_off,91,0,0,,6,,,54,127
22532,note_off,0,0,0,,2,,,74,127
22532,note_on,0,0,0,,2,,,74,127
22532,note_on,0,0,0,,2,,,50,127
22532,note_on,0,0,0,,1,,,73,127
22578,note_off,46,0,0,,2,,,74,127
22624,note_off,46,0,0,,1,,,73,127
22624,note_off,0,0,0,,2,,,50,127
22624,note_on,0,0,0,,10,,,45,127
22624,note_on,0,0,0,,12,,,71,127
22715,note_off,91,0,0,,12,,,71,127
22715,note_off,0,0,0,,10,,,45,127
22715,note_on,0,0,0,,10,,,69,127
22715,note_on,0,0,0,,6,,,42,127
22806,note_off,91,0,0,,6,,,42,127
22806,note_off,0,0,0,,10,,,69,127
22806,note_on,0,0,0,,2,,,38,127
22806,note_on,0,0,0,,2,,,74,127
23063,note_off,257,0,0,,2,,,38,127
23079,note_off,16,0,0,,2,,,74,127
23080,note_on,1,0,0,,10,,,69,127
23080,note_on,0,0,0,,4,,,76,127
23171,note_off,91,0,0,,10,,,69,127
23171,note_on,0,0,0,,4,,,64,127
23262,note_off,91,0,0,,4,,,64,127
23262,note_on,0,0,0,,1,,,61,127
23353,note_off,91,0,0,,1,,,61,127
23353,note_off,0,0,0,,4,,,76,127
23353,note_on,0,0,0,,4,,,76,127
23353,note_on,0,0,0,,10,,,57,127
23444,note_off,91,0,0,,10,,,57,127
23444,note_on,0,0,0,,4,,,52,127
23535,note_off,91,0,0,,4,,,52,127
23535,note_on,0,0,0,,1,,,49,127
23626,note_off,91,0,0,,1,,,49,127
23626,note_off,0,0,0,,4,,,76,127
23626,note_on,0,0,0,,4,,,76,127
23626,note_on,0,0,0,,10,,,45,127
23717,note_off,91,0,0,,4,,,76,127
23717,note_on,0,0,0,,6,,,78,127
23763,note_off,46,0,0,,10,,,45,127
23809,note_off,46,0,0,,6,,,78,127
23809,note_on,0,0,0,,7,,,79,127
23900,note_off,91,0,0,,7,,,79,127
23900,note_on,0,0,0,,2,,,62,127
23900,note_on,0,0,0,,6,,,78,127
23900,note_on,0,0,0,,7,,,79,127
23946,note_off,46,0,0,,7,,,79,127
23992,note_off,46,0,0,,6,,,78,127
23992,note_off,0,0,0,,2,,,62,127
23992,note_on,0,0,0,,4,,,76,127
23992,note_on,0,0,0,,10,,,57,127
24083,note_off,91,0,0,,10,,,57,127
24083,note_off,0,0,0,,4,,,76,127
24083,note_on,0,0,0,,2,,,74,127
24083,note_on,0,0,0,,6,,,54,127
24174,note_off,91,0,0,,6,,,54,127
24174,note_off,0,0,0,,2,,,74,127
24174,note_on,0,0,0,,1,,,73,127
24174,note_on,0,0,0,,2,,,74,127
24174,note_on,0,0,0,,2,,,50,127
24220,note_off,46,0,0,,2,,,74,127
24266,note_off,46,0,0,,2,,,50,127
24266,note_off,0,0,0,,1,,,73,127
24266,note_on,0,0,0,,12,,,71,127
24266,note_on,0,0,0,,10,,,45,127
24357,note_off,91,0,0,,10,,,45,127
24357,note_off,0,0,0,,12,,,71,127
24357,note_on,0,0,0,,10,,,69,127
24357,note_on,0,0,0,,6,,,42,127
24448,note_off,91,0,0,,6,,,42,127
24448,note_off,0,0,0,,10,,,69,127
24448,note_on,0,0,0,,2,,,74,127
24448,note_on,0,0,0,,2,,,38,127
24719,note_off,271,0,0,,2,,,38,127
24730,note_off,11,0,0,,2,,,74,127
24736,note_on,6,0,0,,10,,,69,127
24736,note_on,0,0,0,,4,,,76,127
24827,note_off,91,0,0,,10,,,69,127
24827,note_on,0,0,0,,4,,,64,127
24918,note_off,91,0,0,,4,,,64,127
24918,note_on,0,0,0,,1,,,61,127
25009,note_off,91,0,0,,1,,,61,127
25009,note_off,0,0,0,,4,,,76,127
25009,note_on,0,0,0,,4,,,76,127
25009,note_on,0,0,0,,10,,,57,127
25100,note_off,91,0,0,,10,,,57,127
25100,note_on,0,0,0,,4,,,52,127
25191,note_off,91,0,0,,4,,,52,127
25191,note_on,0,0,0,,1,,,49,127
25282,note_off,91,0,0,,1,,,49,127
25282,note_off,0,0,0,,4,,,76,127
25282,note_on,0,0,0,,4,,,76,127
25282,note_on,0,0,0,,10,,,45,127
25373,note_off,91,0,0,,4,,,76,127
25373,note_on,0,0,0,,6,,,78,127
25464,note_off,91,0,0,,6,,,78,127
25464,note_on,0,0,0,,7,,,79,127
25555,note_off,91,0,0,,7,,,79,127
25555,note_off,0,0,0,,10,,,45,127
25555,note_on,0,0,0,,2,,,50,127
25555,note_on,0,0,0,,6,,,78,127
25555,note_on,0,0,0,,2,,,62,127
25646,note_off,91,0,0,,6,,,78,127
25646,note_on,0,0,0,,7,,,79,127
25737,note_off,91,0,0,,7,,,79,127
25737,note_on,0,0,0,,10,,,81,127
25828,note_off,91,0,0,,10,,,81,127
25828,note_off,0,0,0,,2,,,50,127
25828,note_on,0,0,0,,4,,,52,127
25828,note_on,0,0,0,,1,,,73,127
25919,note_off,91,0,0,,1,,,73,127
25919,note_on,0,0,0,,2,,,74,127
26010,note_off,91,0,0,,2,,,74,127
26010,note_on,0,0,0,,4,,,76,127
26101,note_off,91,0,0,,4,,,76,127
26101,note_off,0,0,0,,4,,,52,127
26101,note_on,0,0,0,,6,,,54,127
26101,note_on,0,0,0,,2,,,74,127
26192,note_off,91,0,0,,2,,,74,127
26192,note_on,0,0,0,,4,,,76,127
26283,note_off,91,0,0,,4,,,76,127
26283,note_on,0,0,0,,6,,,78,127
26374,note_off,91,0,0,,6,,,78,127
26374,note_off,0,0,0,,6,,,54,127
26374,note_off,0,0,0,,2,,,62,127
26374,note_on,0,0,0,,7,,,55,127
26374,note_on,0,0,0,,12,,,71,127
26374,note_on,0,0,0,,2,,,62,127
26465,note_off,91,0,0,,12,,,71,127
26465,note_on,0,0,0,,7,,,79,127
26556,note_off,91,0,0,,7,,,79,127
26556,note_on,0,0,0,,4,,,76,127
26647,note_off,91,0,0,,4,,,76,127
26647,note_off,0,0,0,,7,,,55,127
26647,note_on,0,0,0,,10,,,57,127
26647,note_on,0,0,0,,2,,,74,127
26647,note_on,0,0,0,,6,,,66,127
26921,note_off,274,0,0,,6,,,66,127
26921,note_off,0,0,0,,2,,,74,127
26921,note_off,0,0,0,,2,,,62,127
26921,note_on,0,0,0,,6,,,78,127
26921,note_on,0,0,0,,7,,,67,127
26921,note_on,0,0,0,,4,,,64,127
26921,note_on,0,0,0,,4,,,76,127
27012,note_off,91,0,0,,4,,,76,127
27012,note_off,0,0,0,,6,,,78,127
27012,note_on,0,0,0,,2,,,74,127
27103,note_off,91,0,0,,2,,,74,127
27103,note_on,0,0,0,,1,,,73,127
27194,note_off,91,0,0,,1,,,73,127
27194,note_off,0,0,0,,4,,,64,127
27194,note_off,0,0,0,,7,,,67,127
27194,note_off,0,0,0,,10,,,57,127
27194,note_on,0,0,0,,1,,,73,127
27194,note_on,0,0,0,,2,,,62,127
27483,note_on,289,0,0,,2,,,50,127
27765,note_off,282,0,0,,1,,,73,127
27771,note_on,6,0,0,,2,,,74,127
27880,note_off,109,0,0,,2,,,62,127
27894,note_off,14,0,0,,2,,,50,127
28030,note_off,136,0,0,,2,,,74,127
28087,note_on,57,0,0,,7,,,79,127
28087,note_on,0,0,0,,5,,,77,127
28087,note_on,0,0,0,,2,,,62,127
28087,note_on,0,0,0,,10,,,69,127
28133,note_off,46,0,0,,7,,,79,127
28179,note_off,46,0,0,,5,,,77,127
28179,note_on,0,0,0,,4,,,76,127
28271,note_off,92,0,0,,4,,,76,127
28271,note_on,0,0,0,,2,,,74,127
28363,note_off,92,0,0,,2,,,74,127
28363,note_off,0,0,0,,10,,,69,127
28363,note_off,0,0,0,,2,,,62,127
28363,note_on,0,0,0,,2,,,62,127
28363,note_on,0,0,0,,10,,,69,127
28363,note_on,0,0,0,,0,,,72,127
28455,note_off,92,0,0,,0,,,72,127
28455,note_on,0,0,0,,11,,,70,127
28547,note_off,92,0,0,,11,,,70,127
28547,note_off,0,0,0,,10,,,69,127
28547,note_on,0,0,0,,10,,,69,127
28639,note_off,92,0,0,,10,,,69,127
28639,note_off,0,0,0,,2,,,62,127
28639,note_on,0,0,0,,10,,,69,127
28639,note_on,0,0,0,,7,,,79,127
28639,note_on,0,0,0,,10,,,81,127
28639,note_on,0,0,0,,2,,,62,127
28685,note_off,46,0,0,,10,,,81,127
28731,note_off,46,0,0,,7,,,79,127
28731,note_on,0,0,0,,5,,,77,127
28823,note_off,92,0,0,,5,,,77,127
28823,note_on,0,0,0,,7,,,79,127
28915,note_off,92,0,0,,7,,,79,127
28915,note_off,0,0,0,,2,,,62,127
28915,note_off,0,0,0,,10,,,69,127
28915,note_on,0,0,0,,1,,,61,127
28915,note_on,0,0,0,,7,,,79,127
28915,note_on,0,0,0,,7,,,67,127
28915,note_on,0,0,0,,10,,,69,127
29053,note_off,138,0,0,,10,,,69,127
29053,note_off,0,0,0,,7,,,67,127
29053,note_off,0,0,0,,1,,,61,127
29191,note_off,138,0,0,,7,,,79,127
29191,note_on,0,0,0,,10,,,69,127
29191,note_on,0,0,0,,1,,,61,127
29191,note_on,0,0,0,,7,,,67,127
29191,note_on,0,0,0,,8,,,80,127
29468,note_off,277,0,0,,8,,,80,127
29468,note_off,0,0,0,,7,,,67,127
29468,note_off,0,0,0,,1,,,61,127
29468,note_off,0,0,0,,10,,,69,127
29468,note_on,0,0,0,,1,,,61,127
29468,note_on,0,0,0,,7,,,67,127
29468,note_on,0,0,0,,10,,,69,127
29468,note_on,0,0,0,,10,,,81,127
29745,note_off,277,0,0,,10,,,81,127
29745,note_off,0,0,0,,10,,,69,127
29745,note_off,0,0,0,,7,,,67,127
29745,note_off,0,0,0,,1,,,61,127
29752,note_on,7,0,0,,2,,,62,127
29752,note_on,0,0,0,,10,,,69,127
29752,note_on,0,0,0,,5,,,77,127
29752,note_on,0,0,0,,7,,,79,127
29798,note_off,46,0,0,,7,,,79,127
29844,note_off,46,0,0,,5,,,77,127
29844,note_on,0,0,0,,4,,,76,127
29936,note_off,92,0,0,,4,,,76,127
29936,note_on,0,0,0,,2,,,74,127
30028,note_off,92,0,0,,2,,,74,127
30028,note_off,0,0,0,,10,,,69,127
30028,note_off,0,0,0,,2,,,62,127
30028,note_on,0,0,0,,2,,,62,127
30028,note_on,0,0,0,,10,,,69,127
30028,note_on,0,0,0,,0,,,72,127
30120,note_off,92,0,0,,0,,,72,127
30120,note_on,0,0,0,,11,,,70,127
30212,note_off,92,0,0,,11,,,70,127
30212,note_off,0,0,0,,10,,,69,127
30212,note_on,0,0,0,,10,,,69,127
30304,note_off,92,0,0,,10,,,69,127
30304,note_off,0,0,0,,2,,,62,127
30304,note_on,0,0,0,,2,,,62,127
30304,note_on,0,0,0,,10,,,69,127
30304,note_on,0,0,0,,7,,,79,127
30304,note_on,0,0,0,,10,,,81,127
30350,note_off,46,0,0,,10,,,81,127
30396,note_off,46,0,0,,7,,,79,127
30404,note_on,8,0,0,,5,,,77,127
30496,note_off,92,0,0,,5,,,77,127
30496,note_on,0,0,0,,7,,,79,127
30579,note_off,83,0,0,,10,,,69,127
30579,note_off,0,0,0,,2,,,62,127
30587,note_off,8,0,0,,7,,,79,127
30587,note_on,0,0,0,,7,,,79,127
30587,note_on,0,0,0,,10,,,69,127
30587,note_on,0,0,0,,7,,,67,127
30587,note_on,0,0,0,,1,,,61,127
30725,note_off,138,0,0,,1,,,61,127
30725,note_off,0,0,0,,7,,,67,127
30725,note_off,0,0,0,,10,,,69,127
30863,note_off,138,0,0,,7,,,79,127
30863,note_on,0,0,0,,8,,,80,127
30863,note_on,0,0,0,,10,,,69,127
30863,note_on,0,0,0,,7,,,67,127
30863,note_on,0,0,0,,1,,,61,127
31140,note_off,277,0,0,,1,,,61,127
31140,note_off,0,0,0,,7,,,67,127
31140,note_off,0,0,0,,10,,,69,127
31140,note_off,0,0,0,,8,,,80,127
31140,note_on,0,0,0,,10,,,81,127
31140,note_on,0,0,0,,10,,,69,127
31140,note_on,0,0,0,,7,,,67,127
31140,note_on,0,0,0,,1,,,61,127
31417,note_off,277,0,0,,1,,,61,127
31417,note_off,0,0,0,,7,,,67,127
31417,note_off,0,0,0,,10,,,69,127
31417,note_off,0,0,0,,10,,,81,127
31432,note_on,15,0,0,,4,,,76,127
31432,note_on,0,0,0,,5,,,77,127
31432,note_on,0,0,0,,0,,,60,127
31432,note_on,0,0,0,,4,,,64,127
31432,note_on,0,0,0,,10,,,69,127
31478,note_off,46,0,0,,5,,,77,127
31524,note_off,46,0,0,,4,,,76,127
31524,note_on,0,0,0,,2,,,74,127
31616,note_off,92,0,0,,2,,,74,127
31616,note_on,0,0,0,,0,,,72,127
31708,note_off,92,0,0,,0,,,72,127
31708,note_off,0,0,0,,10,,,69,127
31708,note_off,0,0,0,,4,,,64,127
31708,note_off,0,0,0,,0,,,60,127
31708,note_on,0,0,0,,12,,,71,127
31708,note_on,0,0,0,,0,,,60,127
31708,note_on,0,0,0,,4,,,64,127
31708,note_on,0,0,0,,10,,,69,127
31800,note_off,92,0,0,,10,,,69,127
31800,note_off,0,0,0,,12,,,71,127
31800,note_on,0,0,0,,10,,,69,127
31892,note_off,92,0,0,,10,,,69,127
31892,note_on,0,0,0,,8,,,68,127
31984,note_off,92,0,0,,8,,,68,127
31984,note_off,0,0,0,,4,,,64,127
31984,note_off,0,0,0,,0,,,60,127
31984,note_on,0,0,0,,10,,,81,127
31984,note_on,0,0,0,,10,,,69,127
31984,note_on,0,0,0,,4,,,64,127
31984,note_on,0,0,0,,12,,,83,127
31984,note_on,0,0,0,,0,,,60,127
32030,note_off,46,0,0,,12,,,83,127
32076,note_off,46,0,0,,10,,,81,127
32076,note_on,0,0,0,,8,,,80,127
32168,note_off,92,0,0,,8,,,80,127
32168,note_on,0,0,0,,10,,,81,127
32260,note_off,92,0,0,,10,,,81,127
32260,note_off,0,0,0,,0,,,60,127
32260,note_off,0,0,0,,4,,,64,127
32260,note_off,0,0,0,,10,,,69,127
32260,note_on,0,0,0,,8,,,68,127
32260,note_on,0,0,0,,2,,,62,127
32260,note_on,0,0,0,,4,,,64,127
32260,note_on,0,0,0,,12,,,59,127
32260,note_on,0,0,0,,0,,,84,127
32398,note_off,138,0,0,,12,,,59,127
32398,note_off,0,0,0,,4,,,64,127
32398,note_off,0,0,0,,2,,,62,127
32398,note_off,0,0,0,,8,,,68,127
32536,note_off,138,0,0,,0,,,84,127
32536,note_on,0,0,0,,12,,,83,127
32536,note_on,0,0,0,,2,,,62,127
32536,note_on,0,0,0,,4,,,64,127
32536,note_on,0,0,0,,8,,,68,127
32536,note_on,0,0,0,,12,,,59,127
32813,note_off,277,0,0,,12,,,59,127
32813,note_off,0,0,0,,8,,,68,127
32813,note_off,0,0,0,,4,,,64,127
32813,note_off,0,0,0,,2,,,62,127
32813,note_off,0,0,0,,12,,,83,127
32813,note_on,0,0,0,,2,,,62,127
32813,note_on,0,0,0,,4,,,64,127
32813,note_on,0,0,0,,8,,,68,127
32813,note_on,0,0,0,,2,,,74,127
32813,note_on,0,0,0,,12,,,59,127
33090,note_off,277,0,0,,12,,,59,127
33090,note_off,0,0,0,,2,,,74,127
33090,note_off,0,0,0,,8,,,68,127
33090,note_off,0,0,0,,4,,,64,127
33090,note_off,0,0,0,,2,,,62,127
33090,note_on,0,0,0,,5,,,77,127
33090,note_on,0,0,0,,4,,,76,127
33090,note_on,0,0,0,,10,,,69,127
33090,note_on,0,0,0,,4,,,64,127
33090,note_on,0,0,0,,0,,,60,127
33136,note_off,46,0,0,,5,,,77,127
33182,note_off,46,0,0,,4,,,76,127
33182,note_on,0,0,0,,2,,,74,127
33274,note_off,92,0,0,,2,,,74,127
33274,note_on,0,0,0,,0,,,72,127
33366,note_off,92,0,0,,0,,,72,127
33366,note_off,0,0,0,,0,,,60,127
33366,note_off,0,0,0,,4,,,64,127
33366,note_off,0,0,0,,10,,,69,127
33366,note_on,0,0,0,,12,,,71,127
33366,note_on,0,0,0,,10,,,69,127
33366,note_on,0,0,0,,4,,,64,127
33366,note_on,0,0,0,,0,,,60,127
33458,note_off,92,0,0,,10,,,69,127
33458,note_off,0,0,0,,12,,,71,127
33458,note_on,0,0,0,,10,,,69,127
33550,note_off,92,0,0,,10,,,69,127
33550,note_on,0,0,0,,8,,,68,127
33642,note_off,92,0,0,,8,,,68,127
33642,note_off,0,0,0,,0,,,60,127
33642,note_off,0,0,0,,4,,,64,127
33642,note_on,0,0,0,,12,,,83,127
33642,note_on,0,0,0,,10,,,81,127
33642,note_on,0,0,0,,10,,,69,127
33642,note_on,0,0,0,,4,,,64,127
33642,note_on,0,0,0,,0,,,60,127
33688,note_off,46,0,0,,12,,,83,127
33734,note_off,46,0,0,,10,,,81,127
33734,note_on,0,0,0,,8,,,80,127
33826,note_off,92,0,0,,8,,,80,127
33826,note_on,0,0,0,,10,,,81,127
33918,note_off,92,0,0,,10,,,81,127
33918,note_off,0,0,0,,0,,,60,127
33918,note_off,0,0,0,,4,,,64,127
33918,note_off,0,0,0,,10,,,69,127
33918,note_on,0,0,0,,12,,,59,127
33918,note_on,0,0,0,,0,,,84,127
33918,note_on,0,0,0,,8,,,68,127
33918,note_on,0,0,0,,4,,,64,127
33918,note_on,0,0,0,,2,,,62,127
34056,note_off,138,0,0,,2,,,62,127
34056,note_off,0,0,0,,4,,,64,127
34056,note_off,0,0,0,,8,,,68,127
34056,note_off,0,0,0,,12,,,59,127
34194,note_off,138,0,0,,0,,,84,127
34194,note_on,0,0,0,,12,,,59,127
34194,note_on,0,0,0,,12,,,83,127
34194,note_on,0,0,0,,8,,,68,127
34194,note_on,0,0,0,,4,,,64,127
34194,note_on,0,0,0,,2,,,62,127
34471,note_off,277,0,0,,2,,,62,127
34471,note_off,0,0,0,,4,,,64,127
34471,note_off,0,0,0,,8,,,68,127
34471,note_off,0,0,0,,12,,,83,127
34471,note_off,0,0,0,,12,,,59,127
34471,note_on,0,0,0,,12,,,59,127
34471,note_on,0,0,0,,2,,,74,127
34471,note_on,0,0,0,,8,,,68,127
34471,note_on,0,0,0,,4,,,64,127
34471,note_on,0,0,0,,2,,,62,127
34748,note_off,277,0,0,,2,,,62,127
34748,note_off,0,0,0,,4,,,64,127
34748,note_off,0,0,0,,8,,,68,127
34748,note_off,0,0,0,,2,,,74,127
34748,note_off,0,0,0,,12,,,59,127
34766,note_on,18,0,0,,11,,,58,127
34766,note_on,0,0,0,,2,,,62,127
34766,note_on,0,0,0,,7,,,67,127
34766,note_on,0,0,0,,7,,,79,127
34766,note_on,0,0,0,,5,,,77,127
34812,note_off,46,0,0,,7,,,79,127
34858,note_off,46,0,0,,5,,,77,127
34858,note_on,0,0,0,,4,,,76,127
34950,note_off,92,0,0,,4,,,76,127
34950,note_on,0,0,0,,2,,,74,127
35042,note_off,92,0,0,,2,,,74,127
35042,note_off,0,0,0,,7,,,67,127
35042,note_off,0,0,0,,2,,,62,127
35042,note_off,0,0,0,,11,,,58,127
35042,note_on,0,0,0,,7,,,67,127
35042,note_on,0,0,0,,11,,,82,127
35042,note_on,0,0,0,,11,,,58,127
35042,note_on,0,0,0,,2,,,62,127
35134,note_off,92,0,0,,11,,,82,127
35134,note_on,0,0,0,,10,,,81,127
35226,note_off,92,0,0,,10,,,81,127
35226,note_on,0,0,0,,7,,,79,127
35318,note_off,92,0,0,,7,,,79,127
35318,note_off,0,0,0,,2,,,62,127
35318,note_off,0,0,0,,11,,,58,127
35318,note_off,0,0,0,,7,,,67,127
35318,note_on,0,0,0,,2,,,62,127
35318,note_on,0,0,0,,7,,,67,127
35318,note_on,0,0,0,,11,,,58,127
35318,note_on,0,0,0,,5,,,77,127
35410,note_off,92,0,0,,5,,,77,127
35410,note_on,0,0,0,,4,,,76,127
35502,note_off,92,0,0,,4,,,76,127
35502,note_on,0,0,0,,5,,,77,127
35594,note_off,92,0,0,,5,,,77,127
35594,note_off,0,0,0,,11,,,58,127
35594,note_off,0,0,0,,7,,,67,127
35594,note_off,0,0,0,,2,,,62,127
35594,note_on,0,0,0,,2,,,74,127
35594,note_on,0,0,0,,2,,,62,127
35594,note_on,0,0,0,,4,,,64,127
35594,note_on,0,0,0,,7,,,67,127
35594,note_on,0,0,0,,10,,,57,127
35802,note_off,208,0,0,,2,,,62,127
35871,note_off,69,0,0,,10,,,57,127
35871,note_off,0,0,0,,7,,,67,127
35871,note_off,0,0,0,,4,,,64,127
35871,note_on,0,0,0,,4,,,64,127
35871,note_on,0,0,0,,7,,,67,127
35871,note_on,0,0,0,,10,,,57,127
35871,note_on,0,0,0,,2,,,62,127
36079,note_off,208,0,0,,2,,,62,127
36148,note_off,69,0,0,,10,,,57,127
36148,note_off,0,0,0,,7,,,67,127
36148,note_off,0,0,0,,4,,,64,127
36148,note_off,0,0,0,,2,,,74,127
36148,note_on,0,0,0,,4,,,64,127
36148,note_on,0,0,0,,7,,,67,127
36148,note_on,0,0,0,,10,,,57,127
36148,note_on,0,0,0,,2,,,62,127
36148,note_on,0,0,0,,1,,,73,127
36356,note_off,208,0,0,,2,,,62,127
36356,note_off,0,0,0,,7,,,67,127
36356,note_off,0,0,0,,4,,,64,127
36379,note_off,23,0,0,,10,,,57,127
36425,note_off,46,0,0,,1,,,73,127
36425,note_on,0,0,0,,11,,,58,127
36425,note_on,0,0,0,,7,,,79,127
36425,note_on,0,0,0,,5,,,77,127
36425,note_on,0,0,0,,7,,,67,127
36425,note_on,0,0,0,,2,,,62,127
36471,note_off,46,0,0,,7,,,79,127
36517,note_off,46,0,0,,5,,,77,127
36517,note_on,0,0,0,,4,,,76,127
36609,note_off,92,0,0,,4,,,76,127
36609,note_on,0,0,0,,2,,,74,127
36701,note_off,92,0,0,,2,,,74,127
36701,note_off,0,0,0,,2,,,62,127
36701,note_off,0,0,0,,7,,,67,127
36701,note_off,0,0,0,,11,,,58,127
36701,note_on,0,0,0,,11,,,58,127
36701,note_on,0,0,0,,11,,,82,127
36701,note_on,0,0,0,,7,,,67,127
36701,note_on,0,0,0,,2,,,62,127
36793,note_off,92,0,0,,11,,,82,127
36793,note_on,0,0,0,,10,,,81,127
36885,note_off,92,0,0,,10,,,81,127
36885,note_on,0,0,0,,7,,,79,127
36977,note_off,92,0,0,,7,,,79,127
36977,note_off,0,0,0,,2,,,62,127
36977,note_off,0,0,0,,7,,,67,127
36977,note_off,0,0,0,,11,,,58,127
36977,note_on,0,0,0,,11,,,58,127
36977,note_on,0,0,0,,5,,,77,127
36977,note_on,0,0,0,,7,,,67,127
36977,note_on,0,0,0,,2,,,62,127
37069,note_off,92,0,0,,5,,,77,127
37069,note_on,0,0,0,,4,,,76,127
37161,note_off,92,0,0,,4,,,76,127
37161,note_on,0,0,0,,2,,,86,127
37253,note_off,92,0,0,,2,,,62,127
37253,note_off,0,0,0,,7,,,67,127
37253,note_off,0,0,0,,11,,,58,127
37253,note_on,0,0,0,,10,,,57,127
37253,note_on,0,0,0,,2,,,74,127
37345,note_off,92,0,0,,2,,,86,127
37543,note_on,198,0,0,,10,,,45,127
37828,note_off,285,0,0,,2,,,74,127
37835,note_on,7,0,0,,1,,,73,127
37942,note_off,107,0,0,,10,,,57,127
37957,note_off,15,0,0,,10,,,45,127
38042,note_off,85,0,0,,1,,,73,127
38168,note_on,126,0,0,,4,,,76,127
38168,note_on,0,0,0,,10,,,69,127
38256,note_off,88,0,0,,10,,,69,127
38256,note_on,0,0,0,,4,,,64,127
38344,note_off,88,0,0,,4,,,64,127
38344,note_on,0,0,0,,1,,,61,127
38432,note_off,88,0,0,,1,,,61,127
38432,note_off,0,0,0,,4,,,76,127
38432,note_on,0,0,0,,4,,,76,127
38432,note_on,0,0,0,,10,,,57,127
38520,note_off,88,0,0,,10,,,57,127
38520,note_on,0,0,0,,4,,,52,127
38608,note_off,88,0,0,,4,,,52,127
38608,note_on,0,0,0,,1,,,49,127
38696,note_off,88,0,0,,1,,,49,127
38696,note_off,0,0,0,,4,,,76,127
38696,note_on,0,0,0,,4,,,76,127
38696,note_on,0,0,0,,10,,,45,127
38784,note_off,88,0,0,,4,,,76,127
38784,note_on,0,0,0,,6,,,78,127
38872,note_off,88,0,0,,6,,,78,127
38872,note_on,0,0,0,,7,,,79,127
38960,note_off,88,0,0,,7,,,79,127
38960,note_off,0,0,0,,10,,,45,127
38960,note_on,0,0,0,,2,,,62,127
38960,note_on,0,0,0,,6,,,78,127
39048,note_off,88,0,0,,6,,,78,127
39048,note_off,0,0,0,,2,,,62,127
39048,note_on,0,0,0,,7,,,79,127
39048,note_on,0,0,0,,10,,,57,127
39136,note_off,88,0,0,,10,,,57,127
39136,note_off,0,0,0,,7,,,79,127
39136,note_on,0,0,0,,10,,,81,127
39136,note_on,0,0,0,,6,,,54,127
39224,note_off,88,0,0,,6,,,54,127
39224,note_off,0,0,0,,10,,,81,127
39224,note_on,0,0,0,,2,,,50,127
39224,note_on,0,0,0,,1,,,73,127
39312,note_off,88,0,0,,1,,,73,127
39312,note_off,0,0,0,,2,,,50,127
39312,note_on,0,0,0,,10,,,45,127
39312,note_on,0,0,0,,2,,,74,127
39400,note_off,88,0,0,,2,,,74,127
39400,note_off,0,0,0,,10,,,45,127
39400,note_on,0,0,0,,4,,,76,127
39400,note_on,0,0,0,,6,,,42,127
39488,note_off,88,0,0,,6,,,42,127
39488,note_off,0,0,0,,4,,,76,127
39488,note_on,0,0,0,,2,,,38,127
39488,note_on,0,0,0,,2,,,74,127
39753,note_off,265,0,0,,2,,,74,127
39753,note_off,0,0,0,,2,,,38,127
39753,note_on,0,0,0,,4,,,76,127
39753,note_on,0,0,0,,10,,,69,127
39841,note_off,88,0,0,,10,,,69,127
39841,note_on,0,0,0,,4,,,64,127
39929,note_off,88,0,0,,4,,,64,127
39929,note_on,0,0,0,,1,,,61,127
40017,note_off,88,0,0,,1,,,61,127
40017,note_off,0,0,0,,4,,,76,127
40017,note_on,0,0,0,,10,,,57,127
40017,note_on,0,0,0,,4,,,76,127
40105,note_off,88,0,0,,10,,,57,127
40105,note_on,0,0,0,,4,,,52,127
40193,note_off,88,0,0,,4,,,52,127
40193,note_on,0,0,0,,1,,,49,127
40281,note_off,88,0,0,,1,,,49,127
40281,note_off,0,0,0,,4,,,76,127
40281,note_on,0,0,0,,10,,,45,127
40281,note_on,0,0,0,,4,,,76,127
40369,note_off,88,0,0,,4,,,76,127
40369,note_on,0,0,0,,6,,,78,127
40457,note_off,88,0,0,,6,,,78,127
40457,note_on,0,0,0,,7,,,79,127
40545,note_off,88,0,0,,7,,,79,127
40545,note_off,0,0,0,,10,,,45,127
40545,note_on,0,0,0,,6,,,78,127
40545,note_on,0,0,0,,2,,,62,127
40633,note_off,88,0,0,,2,,,62,127
40633,note_off,0,0,0,,6,,,78,127
40633,note_on,0,0,0,,10,,,57,127
40633,note_on,0,0,0,,7,,,79,127
40721,note_off,88,0,0,,7,,,79,127
40721,note_off,0,0,0,,10,,,57,127
40721,note_on,0,0,0,,6,,,54,127
40721,note_on,0,0,0,,10,,,81,127
40809,note_off,88,0,0,,10,,,81,127
40809,note_off,0,0,0,,6,,,54,127
40809,note_on,0,0,0,,2,,,50,127
40809,note_on,0,0,0,,1,,,73,127
40897,note_off,88,0,0,,1,,,73,127
40897,note_off,0,0,0,,2,,,50,127
40897,note_on,0,0,0,,10,,,45,127
40897,note_on,0,0,0,,2,,,74,127
40985,note_off,88,0,0,,2,,,74,127
40985,note_off,0,0,0,,10,,,45,127
40985,note_on,0,0,0,,6,,,42,127
40985,note_on,0,0,0,,4,,,76,127
41073,note_off,88,0,0,,4,,,76,127
41073,note_off,0,0,0,,6,,,42,127
41073,note_on,0,0,0,,2,,,38,127
41073,note_on,0,0,0,,2,,,74,127
41338,note_off,265,0,0,,2,,,74,127
41338,note_off,0,0,0,,2,,,38,127
41366,note_on,28,0,0,,4,,,76,127
41366,note_on,0,0,0,,10,,,69,127
41454,note_off,88,0,0,,10,,,69,127
41454,note_on,0,0,0,,4,,,64,127
41542,note_off,88,0,0,,4,,,64,127
41542,note_on,0,0,0,,1,,,61,127
41630,note_off,88,0,0,,1,,,61,127
41630,note_off,0,0,0,,4,,,76,127
41630,note_on,0,0,0,,10,,,57,127
41630,note_on,0,0,0,,4,,,76,127
41718,note_off,88,0,0,,10,,,57,127
41718,note_on,0,0,0,,4,,,52,127
41806,note_off,88,0,0,,4,,,52,127
41806,note_on,0,0,0,,1,,,49,127
41894,note_off,88,0,0,,1,,,49,127
41894,note_off,0,0,0,,4,,,76,127
41894,note_on,0,0,0,,10,,,45,127
41894,note_on,0,0,0,,4,,,76,127
41982,note_off,88,0,0,,4,,,76,127
41982,note_on,0,0,0,,6,,,78,127
42070,note_off,88,0,0,,6,,,78,127
42070,note_on,0,0,0,,7,,,79,127
42158,note_off,88,0,0,,7,,,79,127
42158,note_off,0,0,0,,10,,,45,127
42158,note_on,0,0,0,,2,,,50,127
42158,note_on,0,0,0,,6,,,78,127
42158,note_on,0,0,0,,2,,,62,127
42246,note_off,88,0,0,,6,,,78,127
42246,note_on,0,0,0,,7,,,79,127
42334,note_off,88,0,0,,7,,,79,127
42334,note_on,0,0,0,,10,,,81,127
42422,note_off,88,0,0,,10,,,81,127
42422,note_off,0,0,0,,2,,,50,127
42422,note_on,0,0,0,,4,,,52,127
42422,note_on,0,0,0,,1,,,73,127
42510,note_off,88,0,0,,1,,,73,127
42510,note_on,0,0,0,,2,,,74,127
42598,note_off,88,0,0,,2,,,74,127
42598,note_on,0,0,0,,4,,,76,127
42686,note_off,88,0,0,,4,,,76,127
42686,note_off,0,0,0,,4,,,52,127
42686,note_on,0,0,0,,10,,,69,127
42686,note_on,0,0,0,,6,,,54,127
42774,note_on,88,0,0,,6,,,78,127
42862,note_off,88,0,0,,6,,,78,127
42862,note_off,0,0,0,,10,,,69,127
42862,note_on,0,0,0,,2,,,74,127
42950,note_off,88,0,0,,2,,,74,127
42950,note_off,0,0,0,,6,,,54,127
42950,note_off,0,0,0,,2,,,62,127
42950,note_on,0,0,0,,12,,,71,127
42950,note_on,0,0,0,,7,,,55,127
42950,note_on,0,0,0,,2,,,62,127
43038,note_on,88,0,0,,7,,,79,127
43126,note_off,88,0,0,,7,,,79,127
43126,note_off,0,0,0,,12,,,71,127
43126,note_on,0,0,0,,4,,,76,127
43214,note_off,88,0,0,,4,,,76,127
43214,note_off,0,0,0,,2,,,62,127
43214,note_off,0,0,0,,7,,,55,127
43214,note_on,0,0,0,,6,,,66,127
43214,note_on,0,0,0,,2,,,74,127
43214,note_on,0,0,0,,10,,,57,127
43214,note_on,0,0,0,,2,,,62,127
43479,note_off,265,0,0,,2,,,62,127
43479,note_off,0,0,0,,2,,,74,127
43479,note_off,0,0,0,,6,,,66,127
43479,note_on,0,0,0,,6,,,78,127
43479,note_on,0,0,0,,4,,,64,127
43479,note_on,0,0,0,,4,,,76,127
43479,note_on,0,0,0,,7,,,67,127
43523,note_off,44,0,0,,6,,,78,127
43567,note_off,44,0,0,,4,,,76,127
43567,note_on,0,0,0,,2,,,74,127
43655,note_off,88,0,0,,2,,,74,127
43655,note_on,0,0,0,,1,,,73,127
43743,note_off,88,0,0,,1,,,73,127
43743,note_off,0,0,0,,7,,,67,127
43743,note_off,0,0,0,,4,,,64,127
43743,note_off,0,0,0,,10,,,57,127
43743,note_on,0,0,0,,2,,,62,127
43743,note_on,0,0,0,,1,,,73,127
44008,note_off,265,0,0,,2,,,62,127
44008,note_on,0,0,0,,2,,,50,127
44271,note_off,263,0,0,,1,,,73,127
44272,note_on,1,0,0,,2,,,74,127
44537,note_off,265,0,0,,2,,,50,127
44558,note_off,21,0,0,,2,,,74,127
44570,note_on,12,0,0,,10,,,69,127
44570,note_on,0,0,0,,4,,,76,127
44570,note_on,0,0,0,,1,,,85,127
44658,note_off,88,0,0,,4,,,76,127
44658,note_off,0,0,0,,10,,,69,127
44664,note_on,6,0,0,,4,,,64,127
44664,note_on,0,0,0,,2,,,74,127
44752,note_off,88,0,0,,2,,,74,127
44752,note_off,0,0,0,,4,,,64,127
44752,note_on,0,0,0,,1,,,61,127
44752,note_on,0,0,0,,4,,,76,127
44835,note_off,83,0,0,,1,,,85,127
44841,note_off,6,0,0,,4,,,76,127
44841,note_off,0,0,0,,1,,,61,127
44841,note_on,0,0,0,,4,,,76,127
44841,note_on,0,0,0,,1,,,85,127
44841,note_on,0,0,0,,10,,,57,127
44929,note_off,88,0,0,,10,,,57,127
44929,note_off,0,0,0,,4,,,76,127
44929,note_on,0,0,0,,2,,,74,127
44929,note_on,0,0,0,,4,,,52,127
45017,note_off,88,0,0,,4,,,52,127
45017,note_off,0,0,0,,2,,,74,127
45017,note_on,0,0,0,,4,,,76,127
45017,note_on,0,0,0,,1,,,49,127
45105,note_off,88,0,0,,1,,,49,127
45105,note_off,0,0,0,,4,,,76,127
45105,note_off,0,0,0,,1,,,85,127
45105,note_on,0,0,0,,7,,,79,127
45105,note_on,0,0,0,,1,,,85,127
45105,note_on,0,0,0,,10,,,45,127
45193,note_off,88,0,0,,7,,,79,127
45193,note_on,0,0,0,,6,,,78,127
45281,note_off,88,0,0,,6,,,78,127
45281,note_on,0,0,0,,4,,,76,127
45369,note_off,88,0,0,,4,,,76,127
45369,note_off,0,0,0,,10,,,45,127
45369,note_off,0,0,0,,1,,,85,127
45369,note_on,0,0,0,,2,,,62,127
45369,note_on,0,0,0,,6,,,78,127
45369,note_on,0,0,0,,2,,,86,127
45457,note_off,88,0,0,,6,,,78,127
45457,note_off,0,0,0,,2,,,62,127
45457,note_on,0,0,0,,4,,,76,127
45457,note_on,0,0,0,,10,,,57,127
45545,note_off,88,0,0,,10,,,57,127
45545,note_off,0,0,0,,4,,,76,127
45545,note_on,0,0,0,,6,,,78,127
45545,note_on,0,0,0,,6,,,54,127
45633,note_off,88,0,0,,6,,,54,127
45633,note_off,0,0,0,,6,,,78,127
45633,note_off,0,0,0,,2,,,86,127
45633,note_on,0,0,0,,6,,,78,127
45633,note_on,0,0,0,,2,,,86,127
45633,note_on,0,0,0,,2,,,50,127
45721,note_off,88,0,0,,2,,,50,127
45721,note_off,0,0,0,,6,,,78,127
45721,note_on,0,0,0,,4,,,76,127
45721,note_on,0,0,0,,10,,,45,127
45809,note_off,88,0,0,,10,,,45,127
45809,note_off,0,0,0,,4,,,76,127
45809,note_on,0,0,0,,6,,,78,127
45809,note_on,0,0,0,,6,,,42,127
45897,note_off,88,0,0,,6,,,42,127
45897,note_off,0,0,0,,6,,,78,127
45897,note_off,0,0,0,,2,,,86,127
45897,note_on,0,0,0,,10,,,81,127
45897,note_on,0,0,0,,2,,,86,127
45897,note_on,0,0,0,,2,,,38,127
45985,note_off,88,0,0,,10,,,81,127
45985,note_on,0,0,0,,7,,,79,127
46073,note_off,88,0,0,,7,,,79,127
46073,note_on,0,0,0,,6,,,78,127
46161,note_off,88,0,0,,6,,,78,127
46161,note_off,0,0,0,,2,,,38,127
46161,note_off,0,0,0,,2,,,86,127
46161,note_on,0,0,0,,10,,,69,127
46161,note_on,0,0,0,,4,,,76,127
46161,note_on,0,0,0,,1,,,85,127
46249,note_off,88,0,0,,4,,,76,127
46249,note_off,0,0,0,,10,,,69,127
46249,note_on,0,0,0,,4,,,64,127
46249,note_on,0,0,0,,2,,,74,127
46337,note_off,88,0,0,,2,,,74,127
46337,note_off,0,0,0,,4,,,64,127
46337,note_on,0,0,0,,1,,,61,127
46337,note_on,0,0,0,,4,,,76,127
46425,note_off,88,0,0,,4,,,76,127
46425,note_off,0,0,0,,1,,,61,127
46425,note_off,0,0,0,,1,,,85,127
46425,note_on,0,0,0,,4,,,76,127
46425,note_on,0,0,0,,1,,,85,127
46425,note_on,0,0,0,,10,,,57,127
46513,note_off,88,0,0,,10,,,57,127
46513,note_off,0,0,0,,4,,,76,127
46513,note_on,0,0,0,,2,,,74,127
46513,note_on,0,0,0,,4,,,52,127
46601,note_off,88,0,0,,4,,,52,127
46601,note_off,0,0,0,,2,,,74,127
46601,note_on,0,0,0,,4,,,76,127
46601,note_on,0,0,0,,1,,,49,127
46689,note_off,88,0,0,,1,,,49,127
46689,note_off,0,0,0,,4,,,76,127
46689,note_off,0,0,0,,1,,,85,127
46689,note_on,0,0,0,,7,,,79,127
46689,note_on,0,0,0,,1,,,85,127
46689,note_on,0,0,0,,10,,,45,127
46777,note_off,88,0,0,,7,,,79,127
46777,note_on,0,0,0,,6,,,78,127
46865,note_off,88,0,0,,6,,,78,127
46865,note_on,0,0,0,,4,,,76,127
46953,note_off,88,0,0,,4,,,76,127
46953,note_off,0,0,0,,10,,,45,127
46953,note_off,0,0,0,,1,,,85,127
46953,note_on,0,0,0,,2,,,62,127
46953,note_on,0,0,0,,6,,,78,127
46953,note_on,0,0,0,,2,,,86,127
47041,note_off,88,0,0,,6,,,78,127
47041,note_off,0,0,0,,2,,,62,127
47041,note_on,0,0,0,,4,,,76,127
47041,note_on,0,0,0,,10,,,57,127
47129,note_off,88,0,0,,10,,,57,127
47129,note_off,0,0,0,,4,,,76,127
47129,note_on,0,0,0,,6,,,78,127
47129,note_on,0,0,0,,6,,,54,127
47217,note_off,88,0,0,,6,,,54,127
47217,note_off,0,0,0,,6,,,78,127
47217,note_off,0,0,0,,2,,,86,127
47217,note_on,0,0,0,,6,,,78,127
47217,note_on,0,0,0,,2,,,86,127
47217,note_on,0,0,0,,2,,,50,127
47305,note_off,88,0,0,,2,,,50,127
47305,note_off,0,0,0,,6,,,78,127
47305,note_on,0,0,0,,4,,,76,127
47305,note_on,0,0,0,,10,,,45,127
47393,note_off,88,0,0,,10,,,45,127
47393,note_off,0,0,0,,4,,,76,127
47393,note_on,0,0,0,,6,,,78,127
47393,note_on,0,0,0,,6,,,42,127
47481,note_off,88,0,0,,6,,,42,127
47481,note_off,0,0,0,,6,,,78,127
47481,note_off,0,0,0,,2,,,86,127
47481,note_on,0,0,0,,10,,,81,127
47481,note_on,0,0,0,,2,,,86,127
47481,note_on,0,0,0,,2,,,38,127
47569,note_off,88,0,0,,10,,,81,127
47569,note_on,0,0,0,,7,,,79,127
47657,note_off,88,0,0,,7,,,79,127
47660,note_on,3,0,0,,6,,,78,127
47746,note_off,86,0,0,,2,,,38,127
47746,note_off,0,0,0,,2,,,86,127
47749,note_off,3,0,0,,6,,,78,127
47760,note_on,11,0,0,,10,,,69,127
47760,note_on,0,0,0,,4,,,76,127
47760,note_on,0,0,0,,1,,,85,127
47848,note_off,88,0,0,,4,,,76,127
47848,note_off,0,0,0,,10,,,69,127
47848,note_on,0,0,0,,4,,,64,127
47848,note_on,0,0,0,,2,,,74,127
47936,note_off,88,0,0,,2,,,74,127
47936,note_off,0,0,0,,4,,,64,127
47936,note_on,0,0,0,,1,,,61,127
47936,note_on,0,0,0,,4,,,76,127
48024,note_off,88,0,0,,4,,,76,127
48024,note_off,0,0,0,,1,,,61,127
48024,note_off,0,0,0,,1,,,85,127
48024,note_on,0,0,0,,4,,,76,127
48024,note_on,0,0,0,,1,,,85,127
48024,note_on,0,0,0,,10,,,57,127
48112,note_off,88,0,0,,10,,,57,127
48112,note_off,0,0,0,,4,,,76,127
48112,note_on,0,0,0,,2,,,74,127
48112,note_on,0,0,0,,4,,,52,127
48200,note_off,88,0,0,,4,,,52,127
48200,note_off,0,0,0,,2,,,74,127
48200,note_on,0,0,0,,4,,,76,127
48200,note_on,0,0,0,,1,,,49,127
48288,note_off,88,0,0,,1,,,49,127
48288,note_off,0,0,0,,4,,,76,127
48288,note_off,0,0,0,,1,,,85,127
48288,note_on,0,0,0,,7,,,79,127
48288,note_on,0,0,0,,1,,,85,127
48288,note_on,0,0,0,,10,,,45,127
48376,note_off,88,0,0,,7,,,79,127
48376,note_on,0,0,0,,6,,,78,127
48464,note_off,88,0,0,,6,,,78,127
48464,note_on,0,0,0,,4,,,76,127
48552,note_off,88,0,0,,4,,,76,127
48552,note_off,0,0,0,,10,,,45,127
48552,note_off,0,0,0,,1,,,85,127
48552,note_on,0,0,0,,6,,,78,127
48552,note_on,0,0,0,,2,,,86,127
48552,note_on,0,0,0,,2,,,50,127
48552,note_on,0,0,0,,2,,,62,127
48640,note_off,88,0,0,,6,,,78,127
48640,note_on,0,0,0,,4,,,76,127
48728,note_off,88,0,0,,4,,,76,127
48728,note_on,0,0,0,,6,,,78,127
48816,note_off,88,0,0,,6,,,78,127
48816,note_off,0,0,0,,2,,,62,127
48816,note_off,0,0,0,,2,,,50,127
48816,note_off,0,0,0,,2,,,86,127
48816,note_on,0,0,0,,7,,,79,127
48816,note_on,0,0,0,,1,,,85,127
48816,note_on,0,0,0,,4,,,52,127
48816,note_on,0,0,0,,2,,,62,127
48904,note_off,88,0,0,,7,,,79,127
48904,note_on,0,0,0,,6,,,78,127
48992,note_off,88,0,0,,6,,,78,127
48992,note_on,0,0,0,,7,,,79,127
49080,note_off,88,0,0,,7,,,79,127
49080,note_off,0,0,0,,2,,,62,127
49080,note_off,0,0,0,,4,,,52,127
49080,note_off,0,0,0,,1,,,85,127
49080,note_on,0,0,0,,10,,,81,127
49080,note_on,0,0,0,,2,,,86,127
49080,note_on,0,0,0,,6,,,54,127
49080,note_on,0,0,0,,2,,,62,127
49168,note_off,88,0,0,,10,,,81,127
49168,note_on,0,0,0,,7,,,79,127
49256,note_off,88,0,0,,7,,,79,127
49256,note_on,0,0,0,,10,,,81,127
49344,note_off,88,0,0,,10,,,81,127
49344,note_off,0,0,0,,2,,,62,127
49344,note_off,0,0,0,,6,,,54,127
49344,note_off,0,0,0,,2,,,86,127
49344,note_on,0,0,0,,12,,,83,127
49344,note_on,0,0,0,,2,,,86,127
49344,note_on,0,0,0,,7,,,55,127
49344,note_on,0,0,0,,2,,,62,127
49344,note_on,0,0,0,,4,,,64,127
49432,note_off,88,0,0,,12,,,83,127
49432,note_on,0,0,0,,10,,,81,127
49520,note_off,88,0,0,,10,,,81,127
49520,note_on,0,0,0,,7,,,79,127
49608,note_off,88,0,0,,7,,,79,127
49608,note_off,0,0,0,,4,,,64,127
49608,note_off,0,0,0,,2,,,62,127
49608,note_off,0,0,0,,7,,,55,127
49608,note_off,0,0,0,,2,,,86,127
49608,note_on,0,0,0,,6,,,78,127
49608,note_on,0,0,0,,10,,,81,127
49608,note_on,0,0,0,,10,,,57,127
49608,note_on,0,0,0,,2,,,62,127
49608,note_on,0,0,0,,6,,,66,127
49696,note_off,88,0,0,,6,,,78,127
49696,note_on,0,0,0,,4,,,76,127
49784,note_off,88,0,0,,4,,,76,127
49784,note_on,0,0,0,,2,,,74,127
49872,note_off,88,0,0,,2,,,74,127
49872,note_off,0,0,0,,6,,,66,127
49872,note_off,0,0,0,,2,,,62,127
49872,note_off,0,0,0,,10,,,81,127
49872,note_on,0,0,0,,1,,,73,127
49872,note_on,0,0,0,,7,,,79,127
49872,note_on,0,0,0,,2,,,62,127
49872,note_on,0,0,0,,4,,,64,127
49960,note_off,88,0,0,,1,,,73,127
49960,note_on,0,0,0,,12,,,71,127
50048,note_off,88,0,0,,12,,,71,127
50048,note_on,0,0,0,,10,,,69,127
50136,note_off,88,0,0,,10,,,69,127
50136,note_off,0,0,0,,4,,,64,127
50136,note_off,0,0,0,,2,,,62,127
50148,note_off,12,0,0,,7,,,79,127
50149,note_on,1,0,0,,2,,,62,127
50149,note_on,0,0,0,,6,,,78,127
50149,note_on,0,0,0,,2,,,86,127
50149,note_on,0,0,0,,2,,,50,127
50150,note_off,1,0,0,,10,,,57,127
50237,note_off,87,0,0,,6,,,78,127
50237,note_on,0,0,0,,4,,,76,127
50325,note_off,88,0,0,,4,,,76,127
50325,note_on,0,0,0,,6,,,78,127
50413,note_off,88,0,0,,6,,,78,127
50413,note_off,0,0,0,,2,,,50,127
50413,note_off,0,0,0,,2,,,86,127
50413,note_off,0,0,0,,2,,,62,127
50413,note_on,0,0,0,,2,,,62,127
50413,note_on,0,0,0,,7,,,79,127
50413,note_on,0,0,0,,1,,,85,127
50413,note_on,0,0,0,,4,,,52,127
50501,note_off,88,0,0,,7,,,79,127
50501,note_on,0,0,0,,6,,,78,127
50589,note_off,88,0,0,,6,,,78,127
50589,note_on,0,0,0,,7,,,79,127
50677,note_off,88,0,0,,7,,,79,127
50677,note_off,0,0,0,,4,,,52,127
50677,note_off,0,0,0,,1,,,85,127
50677,note_off,0,0,0,,2,,,62,127
50677,note_on,0,0,0,,2,,,62,127
50677,note_on,0,0,0,,10,,,81,127
50677,note_on,0,0,0,,2,,,86,127
50677,note_on,0,0,0,,6,,,54,127
50765,note_off,88,0,0,,10,,,81,127
50765,note_on,0,0,0,,7,,,79,127
50853,note_off,88,0,0,,7,,,79,127
50853,note_on,0,0,0,,10,,,81,127
50941,note_off,88,0,0,,10,,,81,127
50941,note_off,0,0,0,,6,,,54,127
50941,note_off,0,0,0,,2,,,86,127
50941,note_off,0,0,0,,2,,,62,127
50941,note_on,0,0,0,,2,,,62,127
50941,note_on,0,0,0,,4,,,64,127
50941,note_on,0,0,0,,12,,,83,127
50941,note_on,0,0,0,,7,,,55,127
51029,note_on,88,0,0,,10,,,81,127
51117,note_off,88,0,0,,10,,,81,127
51117,note_on,0,0,0,,7,,,79,127
51205,note_off,88,0,0,,7,,,79,127
51205,note_off,0,0,0,,7,,,55,127
51205,note_off,0,0,0,,12,,,83,127
51205,note_off,0,0,0,,4,,,64,127
51205,note_off,0,0,0,,2,,,62,127
51205,note_on,0,0,0,,2,,,62,127
51205,note_on,0,0,0,,6,,,66,127
51205,note_on,0,0,0,,6,,,78,127
51205,note_on,0,0,0,,10,,,81,127
51205,note_on,0,0,0,,10,,,57,127
51293,note_off,88,0,0,,6,,,78,127
51293,note_on,0,0,0,,4,,,76,127
51381,note_off,88,0,0,,4,,,76,127
51381,note_on,0,0,0,,2,,,74,127
51469,note_off,88,0,0,,2,,,74,127
51469,note_off,0,0,0,,10,,,81,127
51469,note_off,0,0,0,,6,,,66,127
51469,note_off,0,0,0,,2,,,62,127
51469,note_on,0,0,0,,2,,,62,127
51469,note_on,0,0,0,,4,,,64,127
51469,note_on,0,0,0,,1,,,73,127
51469,note_on,0,0,0,,7,,,79,127
51557,note_off,88,0,0,,1,,,73,127
51557,note_on,0,0,0,,12,,,71,127
51645,note_off,88,0,0,,12,,,71,127
51645,note_on,0,0,0,,10,,,69,127
51733,note_off,88,0,0,,10,,,69,127
51733,note_off,0,0,0,,4,,,64,127
51733,note_off,0,0,0,,2,,,62,127
51744,note_off,11,0,0,,7,,,79,127
51744,note_off,0,0,0,,10,,,57,127
51755,note_on,11,0,0,,2,,,50,127
51755,note_on,0,0,0,,2,,,86,127
51755,note_on,0,0,0,,6,,,78,127
51755,note_on,0,0,0,,2,,,62,127
51843,note_off,88,0,0,,6,,,78,127
51843,note_on,0,0,0,,4,,,76,127
51931,note_off,88,0,0,,4,,,76,127
51931,note_on,0,0,0,,6,,,78,127
52019,note_off,88,0,0,,6,,,78,127
52019,note_off,0,0,0,,2,,,62,127
52019,note_off,0,0,0,,2,,,86,127
52019,note_off,0,0,0,,2,,,50,127
52019,note_on,0,0,0,,4,,,52,127
52019,note_on,0,0,0,,1,,,85,127
52019,note_on,0,0,0,,7,,,79,127
52019,note_on,0,0,0,,2,,,62,127
52107,note_off,88,0,0,,7,,,79,127
52107,note_on,0,0,0,,6,,,78,127
52195,note_off,88,0,0,,6,,,78,127
52195,note_on,0,0,0,,7,,,79,127
52283,note_off,88,0,0,,7,,,79,127
52283,note_off,0,0,0,,2,,,62,127
52283,note_off,0,0,0,,1,,,85,127
52283,note_off,0,0,0,,4,,,52,127
52283,note_on,0,0,0,,6,,,54,127
52283,note_on,0,0,0,,2,,,86,127
52283,note_on,0,0,0,,10,,,81,127
52283,note_on,0,0,0,,2,,,62,127
52371,note_off,88,0,0,,10,,,81,127
52371,note_on,0,0,0,,7,,,79,127
52459,note_off,88,0,0,,7,,,79,127
52459,note_on,0,0,0,,10,,,81,127
52547,note_off,88,0,0,,10,,,81,127
52547,note_off,0,0,0,,2,,,62,127
52547,note_off,0,0,0,,2,,,86,127
52547,note_off,0,0,0,,6,,,54,127
52547,note_on,0,0,0,,7,,,55,127
52547,note_on,0,0,0,,12,,,83,127
52547,note_on,0,0,0,,4,,,64,127
52547,note_on,0,0,0,,2,,,62,127
52635,note_off,88,0,0,,12,,,83,127
52635,note_on,0,0,0,,10,,,81,127
52723,note_off,88,0,0,,10,,,81,127
52723,note_on,0,0,0,,7,,,79,127
52811,note_off,88,0,0,,7,,,79,127
52811,note_off,0,0,0,,4,,,64,127
52811,note_off,0,0,0,,7,,,55,127
52811,note_on,0,0,0,,10,,,57,127
52811,note_on,0,0,0,,6,,,78,127
52811,note_on,0,0,0,,6,,,66,127
52899,note_off,88,0,0,,6,,,78,127
52899,note_on,0,0,0,,7,,,79,127
52987,note_off,88,0,0,,7,,,79,127
52987,note_on,0,0,0,,10,,,81,127
53075,note_off,88,0,0,,10,,,81,127
53075,note_off,0,0,0,,6,,,66,127
53075,note_on,0,0,0,,1,,,73,127
53075,note_on,0,0,0,,4,,,64,127
53163,note_off,88,0,0,,1,,,73,127
53163,note_on,0,0,0,,2,,,74,127
53251,note_off,88,0,0,,2,,,74,127
53251,note_on,0,0,0,,4,,,76,127
53339,note_off,88,0,0,,4,,,76,127
53339,note_off,0,0,0,,4,,,64,127
53339,note_off,0,0,0,,10,,,57,127
53339,note_off,0,0,0,,2,,,62,127
53339,note_on,0,0,0,,2,,,50,127
53339,note_on,0,0,0,,2,,,62,127
53339,note_on,0,0,0,,2,,,74,127
53427,note_off,88,0,0,,2,,,74,127
53427,note_on,0,0,0,,10,,,69,127
53515,note_off,88,0,0,,10,,,69,127
53515,note_on,0,0,0,,6,,,66,127
53603,note_off,88,0,0,,6,,,66,127
53603,note_off,0,0,0,,2,,,62,127
53603,note_off,0,0,0,,2,,,50,127
53603,note_on,0,0,0,,2,,,62,127
53691,note_on,88,0,0,,10,,,57,127
53779,note_off,88,0,0,,10,,,57,127
53779,note_on,0,0,0,,6,,,54,127
53867,note_off,88,0,0,,6,,,54,127
53867,note_off,0,0,0,,2,,,62,127
53867,note_on,0,0,0,,2,,,50,127
53955,note_off,88,0,0,,2,,,50,127
53955,note_on,0,0,0,,10,,,45,127
54043,note_off,88,0,0,,10,,,45,127
54043,note_on,0,0,0,,6,,,42,127
54131,note_off,88,0,0,,6,,,42,127
54131,note_on,0,0,0,,2,,,50,127
54131,note_on,0,0,0,,2,,,38,127
54793,note_off,662,0,0,,2,,,38,127
54793,note_off,0,0,0,,2,,,50,127
55135,note_on,342,0,0,,5,,,77,127
55135,note_on,0,0,0,,2,,,50,127
55226,note_off,91,0,0,,2,,,50,127
55226,note_on,0,0,0,,5,,,53,127
55317,note_off,91,0,0,,5,,,53,127
55317,note_on,0,0,0,,10,,,57,127
55408,note_off,91,0,0,,10,,,57,127
55408,note_off,0,0,0,,5,,,77,127
55408,note_on,0,0,0,,5,,,77,127
55408,note_on,0,0,0,,2,,,62,127
55499,note_off,91,0,0,,2,,,62,127
55499,note_on,0,0,0,,5,,,65,127
55590,note_off,91,0,0,,5,,,65,127
55590,note_on,0,0,0,,10,,,69,127
55681,note_off,91,0,0,,10,,,69,127
55681,note_off,0,0,0,,5,,,77,127
55681,note_on,0,0,0,,5,,,77,127
55681,note_on,0,0,0,,2,,,74,127
55955,note_off,274,0,0,,2,,,74,127
55955,note_off,0,0,0,,5,,,77,127
55955,note_on,0,0,0,,10,,,81,127
55955,note_on,0,0,0,,0,,,48,127
56046,note_off,91,0,0,,10,,,81,127
56046,note_on,0,0,0,,7,,,79,127
56137,note_off,91,0,0,,7,,,79,127
56137,note_on,0,0,0,,5,,,77,127
56228,note_off,91,0,0,,5,,,77,127
56228,note_on,0,0,0,,3,,,75,127
56502,note_off,274,0,0,,3,,,75,127
56502,note_off,0,0,0,,0,,,48,127
56502,note_on,0,0,0,,4,,,76,127
56776,note_off,274,0,0,,4,,,76,127
56776,note_on,0,0,0,,2,,,86,127
56776,note_on,0,0,0,,11,,,46,127
56867,note_off,91,0,0,,11,,,46,127
56867,note_on,0,0,0,,2,,,50,127
56958,note_off,91,0,0,,2,,,50,127
56958,note_on,0,0,0,,7,,,55,127
57049,note_off,91,0,0,,7,,,55,127
57049,note_off,0,0,0,,2,,,86,127
57049,note_on,0,0,0,,11,,,82,127
57049,note_on,0,0,0,,11,,,58,127
57140,note_off,91,0,0,,11,,,58,127
57140,note_on,0,0,0,,2,,,62,127
57231,note_off,91,0,0,,2,,,62,127
57231,note_on,0,0,0,,7,,,67,127
57322,note_off,91,0,0,,7,,,67,127
57322,note_off,0,0,0,,11,,,82,127
57322,note_on,0,0,0,,2,,,74,127
57322,note_on,0,0,0,,11,,,70,127
57596,note_off,274,0,0,,11,,,70,127
57596,note_on,0,0,0,,10,,,45,127
57870,note_off,274,0,0,,2,,,74,127
57870,note_on,0,0,0,,1,,,73,127
58144,note_off,274,0,0,,10,,,45,127
58416,note_off,272,0,0,,1,,,73,127
58417,note_on,1,0,0,,2,,,50,127
58417,note_on,0,0,0,,5,,,77,127
58487,note_off,70,0,0,,2,,,50,127
58509,note_on,22,0,0,,5,,,53,127
58579,note_off,70,0,0,,5,,,53,127
58601,note_on,22,0,0,,10,,,57,127
58671,note_off,70,0,0,,10,,,57,127
58693,note_off,22,0,0,,5,,,77,127
58693,note_on,0,0,0,,5,,,77,127
58693,note_on,0,0,0,,2,,,62,127
58763,note_off,70,0,0,,2,,,62,127
58785,note_on,22,0,0,,5,,,65,127
58855,note_off,70,0,0,,5,,,65,127
58877,note_on,22,0,0,,10,,,69,127
58947,note_off,70,0,0,,10,,,69,127
58969,note_off,22,0,0,,5,,,77,127
58969,note_on,0,0,0,,5,,,77,127
58969,note_on,0,0,0,,2,,,74,127
59243,note_off,274,0,0,,2,,,74,127
59243,note_off,0,0,0,,5,,,77,127
59243,note_on,0,0,0,,0,,,48,127
59243,note_on,0,0,0,,10,,,81,127
59329,note_off,86,0,0,,10,,,81,127
59335,note_on,6,0,0,,7,,,79,127
59421,note_off,86,0,0,,7,,,79,127
59427,note_on,6,0,0,,5,,,77,127
59513,note_off,86,0,0,,5,,,77,127
59519,note_on,6,0,0,,3,,,75,127
59793,note_off,274,0,0,,3,,,75,127
59793,note_off,0,0,0,,0,,,48,127
59793,note_on,0,0,0,,4,,,76,127
60067,note_off,274,0,0,,4,,,76,127
60067,note_on,0,0,0,,11,,,46,127
60067,note_on,0,0,0,,2,,,86,127
60137,note_off,70,0,0,,11,,,46,127
60159,note_on,22,0,0,,2,,,50,127
60229,note_off,70,0,0,,2,,,50,127
60251,note_on,22,0,0,,7,,,55,127
60321,note_off,70,0,0,,7,,,55,127
60343,note_off,22,0,0,,2,,,86,127
60343,note_on,0,0,0,,11,,,58,127
60343,note_on,0,0,0,,11,,,82,127
60413,note_off,70,0,0,,11,,,58,127
60435,note_on,22,0,0,,2,,,62,127
60505,note_off,70,0,0,,2,,,62,127
60527,note_on,22,0,0,,7,,,67,127
60597,note_off,70,0,0,,7,,,67,127
60619,note_off,22,0,0,,11,,,82,127
60619,note_on,0,0,0,,2,,,74,127
60619,note_on,0,0,0,,11,,,70,127
60893,note_off,274,0,0,,11,,,70,127
60893,note_on,0,0,0,,10,,,45,127
61167,note_off,274,0,0,,2,,,74,127
61167,note_on,0,0,0,,1,,,73,127
61441,note_off,274,0,0,,10,,,45,127
61595,note_off,154,0,0,,1,,,73,127
61711,note_on,116,0,0,,4,,,76,127
61711,note_on,0,0,0,,10,,,69,127
61799,note_off,88,0,0,,10,,,69,127
61799,note_on,0,0,0,,4,,,64,127
61887,note_off,88,0,0,,4,,,64,127
61887,note_on,0,0,0,,1,,,61,127
61975,note_off,88,0,0,,1,,,61,127
61975,note_off,0,0,0,,4,,,76,127
61975,note_on,0,0,0,,4,,,76,127
61975,note_on,0,0,0,,10,,,57,127
62063,note_off,88,0,0,,10,,,57,127
62063,note_on,0,0,0,,4,,,52,127
62151,note_off,88,0,0,,4,,,52,127
62151,note_on,0,0,0,,1,,,49,127
62239,note_off,88,0,0,,1,,,49,127
62239,note_off,0,0,0,,4,,,76,127
62239,note_on,0,0,0,,4,,,76,127
62239,note_on,0,0,0,,10,,,45,127
62327,note_off,88,0,0,,4,,,76,127
62327,note_on,0,0,0,,6,,,78,127
62371,note_off,44,0,0,,10,,,45,127
62415,note_off,44,0,0,,6,,,78,127
62415,note_on,0,0,0,,7,,,79,127
62503,note_off,88,0,0,,7,,,79,127
62503,note_on,0,0,0,,2,,,62,127
62503,note_on,0,0,0,,6,,,78,127
62503,note_on,0,0,0,,7,,,79,127
62547,note_off,44,0,0,,7,,,79,127
62591,note_off,44,0,0,,6,,,78,127
62591,note_off,0,0,0,,2,,,62,127
62591,note_on,0,0,0,,4,,,76,127
62591,note_on,0,0,0,,10,,,57,127
62679,note_off,88,0,0,,10,,,57,127
62679,note_off,0,0,0,,4,,,76,127
62679,note_on,0,0,0,,2,,,74,127
62679,note_on,0,0,0,,6,,,54,127
62767,note_off,88,0,0,,6,,,54,127
62767,note_off,0,0,0,,2,,,74,127
62767,note_on,0,0,0,,2,,,74,127
62767,note_on,0,0,0,,2,,,50,127
62767,note_on,0,0,0,,1,,,73,127
62811,note_off,44,0,0,,2,,,74,127
62855,note_off,44,0,0,,1,,,73,127
62855,note_off,0,0,0,,2,,,50,127
62855,note_on,0,0,0,,12,,,71,127
62855,note_on,0,0,0,,10,,,45,127
62943,note_off,88,0,0,,10,,,45,127
62943,note_off,0,0,0,,12,,,71,127
62943,note_on,0,0,0,,10,,,69,127
62943,note_on,0,0,0,,6,,,42,127
63031,note_off,88,0,0,,6,,,42,127
63031,note_off,0,0,0,,10,,,69,127
63031,note_on,0,0,0,,2,,,38,127
63031,note_on,0,0,0,,2,,,74,127
63230,note_off,199,0,0,,2,,,74,127
63296,note_off,66,0,0,,2,,,38,127
63296,note_on,0,0,0,,4,,,76,127
63296,note_on,0,0,0,,10,,,69,127
63384,note_off,88,0,0,,10,,,69,127
63384,note_on,0,0,0,,4,,,64,127
63472,note_off,88,0,0,,4,,,64,127
63472,note_on,0,0,0,,1,,,61,127
63560,note_off,88,0,0,,1,,,61,127
63560,note_off,0,0,0,,4,,,76,127
63560,note_on,0,0,0,,10,,,57,127
63560,note_on,0,0,0,,4,,,76,127
63648,note_off,88,0,0,,10,,,57,127
63648,note_on,0,0,0,,4,,,52,127
63736,note_off,88,0,0,,4,,,52,127
63736,note_on,0,0,0,,1,,,49,127
63824,note_off,88,0,0,,1,,,49,127
63824,note_off,0,0,0,,4,,,76,127
63824,note_on,0,0,0,,10,,,45,127
63824,note_on,0,0,0,,4,,,76,127
63912,note_off,88,0,0,,4,,,76,127
63912,note_on,0,0,0,,6,,,78,127
63956,note_off,44,0,0,,10,,,45,127
64000,note_off,44,0,0,,6,,,78,127
64000,note_on,0,0,0,,7,,,79,127
64088,note_off,88,0,0,,7,,,79,127
64088,note_on,0,0,0,,7,,,79,127
64088,note_on,0,0,0,,6,,,78,127
64088,note_on,0,0,0,,2,,,62,127
64132,note_off,44,0,0,,7,,,79,127
64176,note_off,44,0,0,,2,,,62,127
64176,note_off,0,0,0,,6,,,78,127
64176,note_on,0,0,0,,10,,,57,127
64176,note_on,0,0,0,,4,,,76,127
64264,note_off,88,0,0,,4,,,76,127
64264,note_off,0,0,0,,10,,,57,127
64264,note_on,0,0,0,,6,,,54,127
64264,note_on,0,0,0,,2,,,74,127
64352,note_off,88,0,0,,2,,,74,127
64352,note_off,0,0,0,,6,,,54,127
64352,note_on,0,0,0,,2,,,50,127
64352,note_on,0,0,0,,2,,,74,127
64352,note_on,0,0,0,,1,,,73,127
64396,note_off,44,0,0,,2,,,74,127
64440,note_off,44,0,0,,1,,,73,127
64440,note_off,0,0,0,,2,,,50,127
64440,note_on,0,0,0,,10,,,45,127
64440,note_on,0,0,0,,12,,,71,127
64528,note_off,88,0,0,,12,,,71,127
64528,note_off,0,0,0,,10,,,45,127
64528,note_on,0,0,0,,6,,,42,127
64528,note_on,0,0,0,,10,,,69,127
64616,note_off,88,0,0,,10,,,69,127
64616,note_off,0,0,0,,6,,,42,127
64616,note_on,0,0,0,,2,,,38,127
64616,note_on,0,0,0,,2,,,74,127
64815,note_off,199,0,0,,2,,,74,127
64881,note_off,66,0,0,,2,,,38,127
64903,note_on,22,0,0,,10,,,69,127
64903,note_on,0,0,0,,4,,,76,127
64991,note_off,88,0,0,,10,,,69,127
64991,note_on,0,0,0,,4,,,64,127
65079,note_off,88,0,0,,4,,,64,127
65079,note_on,0,0,0,,1,,,61,127
65167,note_off,88,0,0,,1,,,61,127
65167,note_off,0,0,0,,4,,,76,127
65167,note_on,0,0,0,,4,,,76,127
65167,note_on,0,0,0,,10,,,57,127
65255,note_off,88,0,0,,10,,,57,127
65255,note_on,0,0,0,,4,,,52,127
65343,note_off,88,0,0,,4,,,52,127
65343,note_on,0,0,0,,1,,,49,127
65431,note_off,88,0,0,,1,,,49,127
65431,note_off,0,0,0,,4,,,76,127
65431,note_on,0,0,0,,4,,,76,127
65431,note_on,0,0,0,,10,,,45,127
65519,note_off,88,0,0,,4,,,76,127
65519,note_on,0,0,0,,6,,,78,127
65563,note_off,44,0,0,,10,,,45,127
65607,note_off,44,0,0,,6,,,78,127
65607,note_on,0,0,0,,7,,,79,127
65695,note_off,88,0,0,,7,,,79,127
65695,note_on,0,0,0,,2,,,62,127
65695,note_on,0,0,0,,6,,,78,127
65783,note_off,88,0,0,,6,,,78,127
65783,note_off,0,0,0,,2,,,62,127
65783,note_on,0,0,0,,10,,,57,127
65783,note_on,0,0,0,,7,,,79,127
65871,note_off,88,0,0,,7,,,79,127
65871,note_off,0,0,0,,10,,,57,127
65871,note_on,0,0,0,,6,,,54,127
65871,note_on,0,0,0,,10,,,81,127
65959,note_off,88,0,0,,10,,,81,127
65959,note_off,0,0,0,,6,,,54,127
65959,note_on,0,0,0,,1,,,73,127
65959,note_on,0,0,0,,2,,,50,127
66047,note_off,88,0,0,,2,,,50,127
66047,note_off,0,0,0,,1,,,73,127
66047,note_on,0,0,0,,10,,,45,127
66047,note_on,0,0,0,,2,,,74,127
66135,note_off,88,0,0,,2,,,74,127
66135,note_off,0,0,0,,10,,,45,127
66135,note_on,0,0,0,,6,,,42,127
66135,note_on,0,0,0,,4,,,76,127
66223,note_off,88,0,0,,4,,,76,127
66223,note_off,0,0,0,,6,,,42,127
66226,note_on,3,0,0,,2,,,74,127
66226,note_on,0,0,0,,2,,,38,127
66226,note_on,0,0,0,,2,,,50,127
66447,note_off,221,0,0,,2,,,50,127
66447,note_off,0,0,0,,2,,,38,127
66447,note_off,0,0,0,,2,,,74,127
67733,note_on,1286,0,0,,0,,,60,127
67734,note_on,1,0,0,,5,,,65,127
67734,note_on,0,0,0,,8,,,68,127
67995,note_off,261,0,0,,0,,,60,127
68011,note_off,16,0,0,,8,,,68,127
68011,note_off,0,0,0,,5,,,65,127
68011,note_on,0,0,0,,8,,,68,127
68011,note_on,0,0,0,,5,,,65,127
68011,note_on,0,0,0,,0,,,60,127
68011,note_on,0,0,0,,5,,,77,127
68149,note_off,138,0,0,,5,,,77,127
68149,note_on,0,0,0,,7,,,79,127
68287,note_off,138,0,0,,7,,,79,127
68287,note_off,0,0,0,,0,,,60,127
68287,note_off,0,0,0,,5,,,65,127
68287,note_off,0,0,0,,8,,,68,127
68287,note_on,0,0,0,,8,,,68,127
68287,note_on,0,0,0,,5,,,65,127
68287,note_on,0,0,0,,0,,,60,127
68287,note_on,0,0,0,,8,,,80,127
68564,note_off,277,0,0,,0,,,60,127
68564,note_off,0,0,0,,5,,,65,127
68564,note_off,0,0,0,,8,,,68,127
68564,note_on,0,0,0,,7,,,67,127
68564,note_on,0,0,0,,12,,,59,127
68564,note_on,0,0,0,,5,,,65,127
68841,note_off,277,0,0,,5,,,65,127
68841,note_off,0,0,0,,12,,,59,127
68841,note_off,0,0,0,,7,,,67,127
68841,note_off,0,0,0,,8,,,80,127
68841,note_on,0,0,0,,7,,,67,127
68841,note_on,0,0,0,,5,,,65,127
68841,note_on,0,0,0,,7,,,79,127
68841,note_on,0,0,0,,12,,,59,127
68933,note_off,92,0,0,,7,,,79,127
68933,note_on,0,0,0,,5,,,77,127
69025,note_off,92,0,0,,5,,,77,127
69025,note_on,0,0,0,,3,,,75,127
69117,note_off,92,0,0,,3,,,75,127
69117,note_off,0,0,0,,12,,,59,127
69117,note_off,0,0,0,,5,,,65,127
69117,note_off,0,0,0,,7,,,67,127
69117,note_on,0,0,0,,7,,,67,127
69117,note_on,0,0,0,,5,,,65,127
69117,note_on,0,0,0,,2,,,74,127
69117,note_on,0,0,0,,12,,,59,127
69209,note_off,92,0,0,,2,,,74,127
69209,note_on,0,0,0,,0,,,72,127
69301,note_off,92,0,0,,0,,,72,127
69301,note_on,0,0,0,,12,,,71,127
69347,note_off,46,0,0,,12,,,59,127
69347,note_off,0,0,0,,5,,,65,127
69347,note_off,0,0,0,,7,,,67,127
69416,note_on,69,0,0,,0,,,60,127
69416,note_on,0,0,0,,5,,,65,127
69416,note_on,0,0,0,,8,,,68,127
69439,note_off,23,0,0,,12,,,71,127
69693,note_off,254,0,0,,8,,,68,127
69693,note_off,0,0,0,,5,,,65,127
69693,note_off,0,0,0,,0,,,60,127
69693,note_on,0,0,0,,0,,,60,127
69693,note_on,0,0,0,,5,,,65,127
69693,note_on,0,0,0,,8,,,68,127
69693,note_on,0,0,0,,5,,,77,127
69831,note_off,138,0,0,,5,,,77,127
69831,note_on,0,0,0,,7,,,79,127
69969,note_off,138,0,0,,7,,,79,127
69969,note_off,0,0,0,,8,,,68,127
69969,note_off,0,0,0,,5,,,65,127
69969,note_off,0,0,0,,0,,,60,127
69969,note_on,0,0,0,,0,,,60,127
69969,note_on,0,0,0,,5,,,65,127
69969,note_on,0,0,0,,8,,,68,127
69969,note_on,0,0,0,,8,,,80,127
70246,note_off,277,0,0,,8,,,68,127
70246,note_off,0,0,0,,5,,,65,127
70246,note_off,0,0,0,,0,,,60,127
70246,note_on,0,0,0,,5,,,65,127
70246,note_on,0,0,0,,7,,,67,127
70246,note_on,0,0,0,,12,,,59,127
70523,note_off,277,0,0,,12,,,59,127
70523,note_off,0,0,0,,7,,,67,127
70523,note_off,0,0,0,,5,,,65,127
70523,note_off,0,0,0,,8,,,80,127
70523,note_on,0,0,0,,5,,,65,127
70523,note_on,0,0,0,,7,,,67,127
70523,note_on,0,0,0,,7,,,79,127
70523,note_on,0,0,0,,12,,,59,127
70615,note_off,92,0,0,,7,,,79,127
70615,note_on,0,0,0,,5,,,77,127
70707,note_off,92,0,0,,5,,,77,127
70707,note_on,0,0,0,,3,,,75,127
70799,note_off,92,0,0,,3,,,75,127
70799,note_off,0,0,0,,12,,,59,127
70799,note_off,0,0,0,,7,,,67,127
70799,note_off,0,0,0,,5,,,65,127
70799,note_on,0,0,0,,5,,,65,127
70799,note_on,0,0,0,,7,,,67,127
70799,note_on,0,0,0,,2,,,74,127
70799,note_on,0,0,0,,12,,,59,127
70891,note_off,92,0,0,,2,,,74,127
70891,note_on,0,0,0,,0,,,72,127
70983,note_off,92,0,0,,0,,,72,127
70983,note_on,0,0,0,,12,,,71,127
71006,note_off,23,0,0,,12,,,59,127
71006,note_off,0,0,0,,7,,,67,127
71006,note_off,0,0,0,,5,,,65,127
71093,note_on,87,0,0,,1,,,61,127
71093,note_on,0,0,0,,11,,,70,127
71093,note_on,0,0,0,,5,,,65,127
71093,note_on,0,0,0,,7,,,67,127
71094,note_off,1,0,0,,12,,,71,127
71368,note_off,274,0,0,,7,,,67,127
71368,note_off,0,0,0,,5,,,65,127
71368,note_off,0,0,0,,11,,,70,127
71368,note_off,0,0,0,,1,,,61,127
71368,note_on,0,0,0,,7,,,79,127
71368,note_on,0,0,0,,1,,,61,127
71368,note_on,0,0,0,,5,,,65,127
71368,note_on,0,0,0,,7,,,67,127
71368,note_on,0,0,0,,11,,,70,127
71506,note_off,138,0,0,,7,,,79,127
71506,note_on,0,0,0,,8,,,80,127
71644,note_off,138,0,0,,8,,,80,127
71644,note_off,0,0,0,,11,,,70,127
71644,note_off,0,0,0,,7,,,67,127
71644,note_off,0,0,0,,5,,,65,127
71644,note_off,0,0,0,,1,,,61,127
71644,note_on,0,0,0,,11,,,82,127
71644,note_on,0,0,0,,1,,,61,127
71644,note_on,0,0,0,,5,,,65,127
71644,note_on,0,0,0,,7,,,67,127
71644,note_on,0,0,0,,11,,,70,127
71921,note_off,277,0,0,,11,,,70,127
71921,note_off,0,0,0,,7,,,67,127
71921,note_off,0,0,0,,5,,,65,127
71921,note_off,0,0,0,,1,,,61,127
71921,note_on,0,0,0,,8,,,68,127
71921,note_on,0,0,0,,5,,,65,127
71921,note_on,0,0,0,,0,,,60,127
72198,note_off,277,0,0,,0,,,60,127
72198,note_off,0,0,0,,5,,,65,127
72198,note_off,0,0,0,,8,,,68,127
72198,note_off,0,0,0,,11,,,82,127
72198,note_on,0,0,0,,5,,,65,127
72198,note_on,0,0,0,,0,,,84,127
72198,note_on,0,0,0,,0,,,60,127
72198,note_on,0,0,0,,7,,,67,127
72290,note_off,92,0,0,,0,,,84,127
72290,note_on,0,0,0,,11,,,82,127
72382,note_off,92,0,0,,11,,,82,127
72382,note_on,0,0,0,,8,,,80,127
72474,note_off,92,0,0,,8,,,80,127
72474,note_off,0,0,0,,7,,,67,127
72474,note_off,0,0,0,,0,,,60,127
72474,note_off,0,0,0,,5,,,65,127
72474,note_on,0,0,0,,7,,,79,127
72474,note_on,0,0,0,,0,,,60,127
72474,note_on,0,0,0,,5,,,65,127
72474,note_on,0,0,0,,7,,,67,127
72566,note_off,92,0,0,,7,,,79,127
72566,note_on,0,0,0,,5,,,77,127
72658,note_off,92,0,0,,5,,,77,127
72658,note_on,0,0,0,,4,,,76,127
72704,note_off,46,0,0,,7,,,67,127
72704,note_off,0,0,0,,5,,,65,127
72704,note_off,0,0,0,,0,,,60,127
72756,note_on,52,0,0,,11,,,70,127
72756,note_on,0,0,0,,7,,,67,127
72756,note_on,0,0,0,,5,,,65,127
72756,note_on,0,0,0,,1,,,61,127
72797,note_off,41,0,0,,4,,,76,127
73033,note_off,236,0,0,,1,,,61,127
73033,note_off,0,0,0,,5,,,65,127
73033,note_off,0,0,0,,7,,,67,127
73033,note_off,0,0,0,,11,,,70,127
73033,note_on,0,0,0,,7,,,79,127
73033,note_on,0,0,0,,11,,,70,127
73033,note_on,0,0,0,,7,,,67,127
73033,note_on,0,0,0,,5,,,65,127
73033,note_on,0,0,0,,1,,,61,127
73171,note_off,138,0,0,,7,,,79,127
73171,note_on,0,0,0,,8,,,80,127
73309,note_off,138,0,0,,8,,,80,127
73309,note_off,0,0,0,,1,,,61,127
73309,note_off,0,0,0,,5,,,65,127
73309,note_off,0,0,0,,7,,,67,127
73309,note_off,0,0,0,,11,,,70,127
73309,note_on,0,0,0,,11,,,82,127
73309,note_on,0,0,0,,11,,,70,127
73309,note_on,0,0,0,,7,,,67,127
73309,note_on,0,0,0,,5,,,65,127
73309,note_on,0,0,0,,1,,,61,127
73586,note_off,277,0,0,,1,,,61,127
73586,note_off,0,0,0,,5,,,65,127
73586,note_off,0,0,0,,7,,,67,127
73586,note_off,0,0,0,,11,,,70,127
73586,note_on,0,0,0,,8,,,68,127
73586,note_on,0,0,0,,5,,,65,127
73586,note_on,0,0,0,,0,,,60,127
73863,note_off,277,0,0,,0,,,60,127
73863,note_off,0,0,0,,5,,,65,127
73863,note_off,0,0,0,,8,,,68,127
73863,note_off,0,0,0,,11,,,82,127
73863,note_on,0,0,0,,0,,,84,127
73863,note_on,0,0,0,,7,,,67,127
73863,note_on,0,0,0,,5,,,65,127
73863,note_on,0,0,0,,0,,,60,127
73955,note_off,92,0,0,,0,,,84,127
73955,note_on,0,0,0,,11,,,82,127
74047,note_off,92,0,0,,11,,,82,127
74047,note_on,0,0,0,,8,,,80,127
74139,note_off,92,0,0,,8,,,80,127
74139,note_off,0,0,0,,0,,,60,127
74139,note_off,0,0,0,,5,,,65,127
74139,note_off,0,0,0,,7,,,67,127
74139,note_on,0,0,0,,7,,,79,127
74139,note_on,0,0,0,,7,,,67,127
74139,note_on,0,0,0,,5,,,65,127
74139,note_on,0,0,0,,0,,,60,127
74231,note_off,92,0,0,,7,,,79,127
74231,note_on,0,0,0,,5,,,77,127
74323,note_off,92,0,0,,5,,,77,127
74323,note_on,0,0,0,,4,,,76,127
74415,note_off,92,0,0,,0,,,60,127
74415,note_off,0,0,0,,5,,,65,127
74415,note_off,0,0,0,,7,,,67,127
74437,note_on,22,0,0,,12,,,59,127
74437,note_on,0,0,0,,5,,,65,127
74437,note_on,0,0,0,,7,,,67,127
74461,note_off,24,0,0,,4,,,76,127
74712,note_off,251,0,0,,7,,,67,127
74712,note_off,0,0,0,,5,,,65,127
74712,note_off,0,0,0,,12,,,59,127
74712,note_on,0,0,0,,5,,,77,127
74712,note_on,0,0,0,,7,,,67,127
74712,note_on,0,0,0,,5,,,65,127
74712,note_on,0,0,0,,2,,,86,127
74712,note_on,0,0,0,,12,,,59,127
74989,note_off,277,0,0,,12,,,59,127
74989,note_off,0,0,0,,2,,,86,127
74989,note_off,0,0,0,,5,,,65,127
74989,note_off,0,0,0,,7,,,67,127
74989,note_off,0,0,0,,5,,,77,127
74989,note_on,0,0,0,,12,,,83,127
74989,note_on,0,0,0,,2,,,74,127
74989,note_on,0,0,0,,7,,,67,127
74989,note_on,0,0,0,,5,,,65,127
74989,note_on,0,0,0,,12,,,59,127
75266,note_off,277,0,0,,12,,,59,127
75266,note_off,0,0,0,,5,,,65,127
75266,note_off,0,0,0,,7,,,67,127
75266,note_off,0,0,0,,2,,,74,127
75266,note_off,0,0,0,,12,,,83,127
75266,note_on,0,0,0,,5,,,65,127
75266,note_on,0,0,0,,0,,,60,127
75266,note_on,0,0,0,,8,,,68,127
75543,note_off,277,0,0,,8,,,68,127
75543,note_off,0,0,0,,0,,,60,127
75543,note_off,0,0,0,,5,,,65,127
75543,note_on,0,0,0,,5,,,65,127
75543,note_on,0,0,0,,0,,,60,127
75543,note_on,0,0,0,,8,,,80,127
75543,note_on,0,0,0,,5,,,77,127
75543,note_on,0,0,0,,8,,,68,127
75820,note_off,277,0,0,,8,,,68,127
75820,note_off,0,0,0,,5,,,77,127
75820,note_off,0,0,0,,8,,,80,127
75820,note_off,0,0,0,,0,,,60,127
75820,note_off,0,0,0,,5,,,65,127
75820,note_on,0,0,0,,0,,,60,127
75820,note_on,0,0,0,,5,,,77,127
75820,note_on,0,0,0,,2,,,74,127
75820,note_on,0,0,0,,8,,,68,127
75820,note_on,0,0,0,,5,,,65,127
76108,note_off,288,0,0,,5,,,65,127
76108,note_off,0,0,0,,8,,,68,127
76108,note_off,0,0,0,,2,,,74,127
76108,note_off,0,0,0,,5,,,77,127
76108,note_off,0,0,0,,0,,,60,127
76114,note_on,6,0,0,,5,,,65,127
76114,note_on,0,0,0,,7,,,67,127
76114,note_on,0,0,0,,12,,,59,127
76391,note_off,277,0,0,,12,,,59,127
76391,note_off,0,0,0,,7,,,67,127
76391,note_off,0,0,0,,5,,,65,127
76391,note_on,0,0,0,,5,,,65,127
76391,note_on,0,0,0,,7,,,67,127
76391,note_on,0,0,0,,5,,,77,127
76391,note_on,0,0,0,,12,,,59,127
76529,note_on,138,0,0,,2,,,86,127
76667,note_off,138,0,0,,12,,,59,127
76667,note_off,0,0,0,,5,,,77,127
76667,note_off,0,0,0,,7,,,67,127
76667,note_off,0,0,0,,5,,,65,127
76667,note_on,0,0,0,,5,,,65,127
76667,note_on,0,0,0,,7,,,67,127
76667,note_on,0,0,0,,2,,,74,127
76667,note_on,0,0,0,,12,,,59,127
76805,note_off,138,0,0,,2,,,86,127
76805,note_on,0,0,0,,12,,,83,127
76943,note_off,138,0,0,,12,,,83,127
76943,note_off,0,0,0,,12,,,59,127
76943,note_off,0,0,0,,2,,,74,127
76943,note_off,0,0,0,,7,,,67,127
76943,note_off,0,0,0,,5,,,65,127
76943,note_on,0,0,0,,0,,,60,127
76943,note_on,0,0,0,,5,,,65,127
76943,note_on,0,0,0,,8,,,68,127
77220,note_off,277,0,0,,8,,,68,127
77220,note_off,0,0,0,,5,,,65,127
77220,note_off,0,0,0,,0,,,60,127
77220,note_on,0,0,0,,0,,,60,127
77220,note_on,0,0,0,,5,,,65,127
77220,note_on,0,0,0,,8,,,68,127
77220,note_on,0,0,0,,5,,,77,127
77358,note_on,138,0,0,,8,,,80,127
77496,note_off,138,0,0,,5,,,77,127
77496,note_off,0,0,0,,8,,,68,127
77496,note_off,0,0,0,,5,,,65,127
77496,note_off,0,0,0,,0,,,60,127
77496,note_on,0,0,0,,0,,,60,127
77496,note_on,0,0,0,,5,,,65,127
77496,note_on,0,0,0,,8,,,68,127
77496,note_on,0,0,0,,2,,,74,127
77634,note_off,138,0,0,,8,,,80,127
77634,note_on,0,0,0,,5,,,77,127
77772,note_off,138,0,0,,5,,,77,127
77772,note_off,0,0,0,,2,,,74,127
77772,note_off,0,0,0,,8,,,68,127
77772,note_off,0,0,0,,5,,,65,127
77772,note_off,0,0,0,,0,,,60,127
77795,note_on,23,0,0,,11,,,70,127
77795,note_on,0,0,0,,7,,,67,127
77795,note_on,0,0,0,,1,,,61,127
78072,note_off,277,0,0,,1,,,61,127
78072,note_off,0,0,0,,7,,,67,127
78072,note_off,0,0,0,,11,,,70,127
78072,note_on,0,0,0,,4,,,88,127
78072,note_on,0,0,0,,7,,,67,127
78072,note_on,0,0,0,,11,,,70,127
78072,note_on,0,0,0,,7,,,79,127
78072,note_on,0,0,0,,1,,,61,127
78349,note_off,277,0,0,,1,,,61,127
78349,note_off,0,0,0,,7,,,79,127
78349,note_off,0,0,0,,11,,,70,127
78349,note_off,0,0,0,,7,,,67,127
78349,note_off,0,0,0,,4,,,88,127
78349,note_on,0,0,0,,11,,,70,127
78349,note_on,0,0,0,,4,,,76,127
78349,note_on,0,0,0,,1,,,85,127
78349,note_on,0,0,0,,1,,,61,127
78349,note_on,0,0,0,,7,,,67,127
78626,note_off,277,0,0,,7,,,67,127
78626,note_off,0,0,0,,1,,,61,127
78626,note_off,0,0,0,,1,,,85,127
78626,note_off,0,0,0,,4,,,76,127
78626,note_off,0,0,0,,11,,,70,127
78626,note_on,0,0,0,,2,,,62,127
78626,note_on,0,0,0,,7,,,67,127
78626,note_on,0,0,0,,10,,,69,127
78903,note_off,277,0,0,,10,,,69,127
78903,note_off,0,0,0,,7,,,67,127
78903,note_off,0,0,0,,2,,,62,127
78903,note_on,0,0,0,,0,,,84,127
78903,note_on,0,0,0,,10,,,69,127
78903,note_on,0,0,0,,10,,,81,127
78903,note_on,0,0,0,,2,,,62,127
78903,note_on,0,0,0,,6,,,66,127
79180,note_off,277,0,0,,6,,,66,127
79180,note_off,0,0,0,,2,,,62,127
79180,note_off,0,0,0,,10,,,81,127
79180,note_off,0,0,0,,10,,,69,127
79180,note_off,0,0,0,,0,,,84,127
79180,note_on,0,0,0,,6,,,78,127
79180,note_on,0,0,0,,10,,,81,127
79180,note_on,0,0,0,,6,,,66,127
79180,note_on,0,0,0,,10,,,69,127
79180,note_on,0,0,0,,2,,,62,127
79468,note_off,288,0,0,,2,,,62,127
79468,note_off,0,0,0,,10,,,69,127
79468,note_off,0,0,0,,6,,,66,127
79468,note_off,0,0,0,,10,,,81,127
79468,note_off,0,0,0,,6,,,78,127
79479,note_on,11,0,0,,1,,,61,127
79479,note_on,0,0,0,,7,,,67,127
79479,note_on,0,0,0,,11,,,70,127
79756,note_off,277,0,0,,11,,,70,127
79756,note_off,0,0,0,,7,,,67,127
79756,note_off,0,0,0,,1,,,61,127
79756,note_on,0,0,0,,1,,,61,127
79756,note_on,0,0,0,,7,,,67,127
79756,note_on,0,0,0,,11,,,70,127
79756,note_on,0,0,0,,7,,,79,127
79894,note_on,138,0,0,,4,,,88,127
80032,note_off,138,0,0,,7,,,79,127
80032,note_off,0,0,0,,11,,,70,127
80032,note_off,0,0,0,,7,,,67,127
80032,note_off,0,0,0,,1,,,61,127
80032,note_on,0,0,0,,1,,,61,127
80032,note_on,0,0,0,,7,,,67,127
80032,note_on,0,0,0,,11,,,70,127
80032,note_on,0,0,0,,4,,,76,127
80170,note_off,138,0,0,,4,,,88,127
80170,note_on,0,0,0,,1,,,85,127
80308,note_off,138,0,0,,1,,,85,127
80308,note_off,0,0,0,,4,,,76,127
80308,note_off,0,0,0,,11,,,70,127
80308,note_off,0,0,0,,7,,,67,127
80308,note_off,0,0,0,,1,,,61,127
80308,note_on,0,0,0,,2,,,62,127
80308,note_on,0,0,0,,7,,,67,127
80308,note_on,0,0,0,,10,,,69,127
80585,note_off,277,0,0,,10,,,69,127
80585,note_off,0,0,0,,7,,,67,127
80585,note_off,0,0,0,,2,,,62,127
80585,note_on,0,0,0,,2,,,62,127
80585,note_on,0,0,0,,6,,,66,127
80585,note_on,0,0,0,,10,,,69,127
80585,note_on,0,0,0,,10,,,81,127
80723,note_on,138,0,0,,0,,,84,127
80861,note_off,138,0,0,,10,,,81,127
80861,note_off,0,0,0,,10,,,69,127
80861,note_off,0,0,0,,6,,,66,127
80861,note_off,0,0,0,,2,,,62,127
80861,note_on,0,0,0,,2,,,62,127
80861,note_on,0,0,0,,6,,,66,127
80861,note_on,0,0,0,,10,,,69,127
80861,note_on,0,0,0,,6,,,78,127
80999,note_off,138,0,0,,0,,,84,127
80999,note_on,0,0,0,,10,,,81,127
81137,note_off,138,0,0,,10,,,81,127
81137,note_off,0,0,0,,6,,,78,127
81137,note_off,0,0,0,,10,,,69,127
81137,note_off,0,0,0,,6,,,66,127
81137,note_off,0,0,0,,2,,,62,127
81145,note_on,8,0,0,,6,,,78,127
81145,note_on,0,0,0,,0,,,84,127
81145,note_on,0,0,0,,7,,,67,127
81145,note_on,0,0,0,,10,,,69,127
81145,note_on,0,0,0,,0,,,72,127
81145,note_on,0,0,0,,3,,,63,127
81283,note_off,138,0,0,,6,,,78,127
81283,note_on,0,0,0,,7,,,79,127
81421,note_off,138,0,0,,7,,,79,127
81421,note_off,0,0,0,,3,,,63,127
81421,note_off,0,0,0,,0,,,72,127
81421,note_off,0,0,0,,10,,,69,127
81421,note_off,0,0,0,,7,,,67,127
81421,note_on,0,0,0,,0,,,72,127
81421,note_on,0,0,0,,10,,,69,127
81421,note_on,0,0,0,,7,,,67,127
81421,note_on,0,0,0,,3,,,63,127
81421,note_on,0,0,0,,10,,,81,127
81490,note_on,69,0,0,,7,,,79,127
81513,note_off,23,0,0,,10,,,81,127
81559,note_on,46,0,0,,10,,,81,127
81582,note_off,23,0,0,,7,,,79,127
81628,note_on,46,0,0,,7,,,79,127
81651,note_off,23,0,0,,10,,,81,127
81697,note_off,46,0,0,,3,,,63,127
81697,note_off,0,0,0,,7,,,67,127
81697,note_off,0,0,0,,10,,,69,127
81697,note_off,0,0,0,,0,,,72,127
81697,note_on,0,0,0,,0,,,72,127
81697,note_on,0,0,0,,10,,,69,127
81697,note_on,0,0,0,,7,,,67,127
81697,note_on,0,0,0,,3,,,63,127
81697,note_on,0,0,0,,10,,,81,127
81720,note_off,23,0,0,,7,,,79,127
81766,note_on,46,0,0,,7,,,79,127
81789,note_off,23,0,0,,10,,,81,127
81835,note_on,46,0,0,,6,,,78,127
81858,note_off,23,0,0,,7,,,79,127
81904,note_on,46,0,0,,7,,,79,127
81927,note_off,23,0,0,,6,,,78,127
81973,note_off,46,0,0,,3,,,63,127
81973,note_off,0,0,0,,7,,,67,127
81973,note_off,0,0,0,,10,,,69,127
81973,note_off,0,0,0,,0,,,72,127
81973,note_off,0,0,0,,0,,,84,127
81973,note_on,0,0,0,,10,,,81,127
81973,note_on,0,0,0,,10,,,69,127
81973,note_on,0,0,0,,0,,,72,127
81973,note_on,0,0,0,,7,,,67,127
81973,note_on,0,0,0,,2,,,62,127
81996,note_off,23,0,0,,7,,,79,127
82042,note_on,46,0,0,,11,,,82,127
82065,note_off,23,0,0,,10,,,81,127
82111,note_on,46,0,0,,0,,,84,127
82134,note_off,23,0,0,,11,,,82,127
82180,note_on,46,0,0,,6,,,78,127
82203,note_off,23,0,0,,0,,,84,127
82249,note_off,46,0,0,,2,,,62,127
82249,note_off,0,0,0,,7,,,67,127
82249,note_off,0,0,0,,0,,,72,127
82249,note_off,0,0,0,,10,,,69,127
82249,note_on,0,0,0,,10,,,81,127
82249,note_on,0,0,0,,0,,,72,127
82249,note_on,0,0,0,,10,,,69,127
82249,note_on,0,0,0,,7,,,67,127
82249,note_on,0,0,0,,3,,,63,127
82272,note_off,23,0,0,,6,,,78,127
82318,note_on,46,0,0,,7,,,79,127
82341,note_off,23,0,0,,10,,,81,127
82387,note_on,46,0,0,,10,,,81,127
82410,note_off,23,0,0,,7,,,79,127
82456,note_on,46,0,0,,7,,,79,127
82479,note_off,23,0,0,,10,,,81,127
82525,note_off,46,0,0,,3,,,63,127
82525,note_off,0,0,0,,7,,,67,127
82525,note_off,0,0,0,,10,,,69,127
82525,note_off,0,0,0,,0,,,72,127
82525,note_on,0,0,0,,10,,,81,127
82525,note_on,0,0,0,,0,,,72,127
82525,note_on,0,0,0,,10,,,69,127
82525,note_on,0,0,0,,7,,,67,127
82525,note_on,0,0,0,,3,,,63,127
82548,note_off,23,0,0,,7,,,79,127
82594,note_on,46,0,0,,7,,,79,127
82617,note_off,23,0,0,,10,,,81,127
82663,note_on,46,0,0,,6,,,78,127
82686,note_off,23,0,0,,7,,,79,127
82732,note_on,46,0,0,,7,,,79,127
82755,note_off,23,0,0,,6,,,78,127
82801,note_off,46,0,0,,3,,,63,127
82801,note_off,0,0,0,,7,,,67,127
82801,note_off,0,0,0,,10,,,69,127
82801,note_off,0,0,0,,0,,,72,127
82801,note_on,0,0,0,,0,,,72,127
82801,note_on,0,0,0,,10,,,69,127
82801,note_on,0,0,0,,7,,,67,127
82801,note_on,0,0,0,,2,,,62,127
82801,note_on,0,0,0,,10,,,81,127
82824,note_off,23,0,0,,7,,,79,127
82855,note_on,31,0,0,,11,,,82,127
82878,note_off,23,0,0,,10,,,81,127
82911,note_on,33,0,0,,0,,,84,127
82933,note_off,22,0,0,,11,,,82,127
82966,note_on,33,0,0,,11,,,82,127
82989,note_off,23,0,0,,0,,,84,127
83022,note_on,33,0,0,,0,,,84,127
83044,note_off,22,0,0,,11,,,82,127
83077,note_off,33,0,0,,2,,,62,127
83077,note_off,0,0,0,,7,,,67,127
83077,note_off,0,0,0,,10,,,69,127
83077,note_off,0,0,0,,0,,,72,127
83077,note_on,0,0,0,,0,,,72,127
83077,note_on,0,0,0,,10,,,69,127
83077,note_on,0,0,0,,7,,,67,127
83077,note_on,0,0,0,,3,,,63,127
83077,note_on,0,0,0,,2,,,86,127
83100,note_off,23,0,0,,0,,,84,127
83146,note_on,46,0,0,,0,,,84,127
83169,note_off,23,0,0,,2,,,86,127
83215,note_on,46,0,0,,2,,,86,127
83238,note_off,23,0,0,,0,,,84,127
83284,note_on,46,0,0,,0,,,84,127
83307,note_off,23,0,0,,2,,,86,127
83353,note_off,46,0,0,,3,,,63,127
83353,note_off,0,0,0,,7,,,67,127
83353,note_off,0,0,0,,10,,,69,127
83353,note_off,0,0,0,,0,,,72,127
83353,note_on,0,0,0,,0,,,72,127
83353,note_on,0,0,0,,10,,,69,127
83353,note_on,0,0,0,,7,,,67,127
83353,note_on,0,0,0,,3,,,63,127
83353,note_on,0,0,0,,2,,,86,127
83376,note_off,23,0,0,,0,,,84,127
83422,note_on,46,0,0,,0,,,84,127
83445,note_off,23,0,0,,2,,,86,127
83491,note_on,46,0,0,,11,,,82,127
83514,note_off,23,0,0,,0,,,84,127
83560,note_on,46,0,0,,0,,,84,127
83583,note_off,23,0,0,,11,,,82,127
83629,note_off,46,0,0,,3,,,63,127
83629,note_off,0,0,0,,7,,,67,127
83629,note_off,0,0,0,,10,,,69,127
83629,note_off,0,0,0,,0,,,72,127
83629,note_on,0,0,0,,6,,,66,127
83629,note_on,0,0,0,,10,,,69,127
83629,note_on,0,0,0,,2,,,74,127
83629,note_on,0,0,0,,2,,,62,127
83629,note_on,0,0,0,,2,,,86,127
83652,note_off,23,0,0,,0,,,84,127
83721,note_on,69,0,0,,10,,,81,127
83767,note_off,46,0,0,,2,,,86,127
83813,note_on,46,0,0,,6,,,78,127
83859,note_off,46,0,0,,10,,,81,127
83905,note_off,46,0,0,,2,,,62,127
83905,note_off,0,0,0,,2,,,74,127
83905,note_off,0,0,0,,10,,,69,127
83905,note_off,0,0,0,,6,,,66,127
83905,note_on,0,0,0,,2,,,74,127
83951,note_off,46,0,0,,6,,,78,127
83997,note_on,46,0,0,,10,,,69,127
84043,note_off,46,0,0,,2,,,74,127
84089,note_on,46,0,0,,6,,,66,127
84135,note_off,46,0,0,,10,,,69,127
84181,note_on,46,0,0,,2,,,62,127
84227,note_off,46,0,0,,6,,,66,127
84273,note_on,46,0,0,,10,,,57,127
84319,note_off,46,0,0,,2,,,62,127
84365,note_on,46,0,0,,6,,,54,127
84411,note_off,46,0,0,,10,,,57,127
84457,note_on,46,0,0,,2,,,50,127
84503,note_off,46,0,0,,6,,,54,127
84549,note_on,46,0,0,,10,,,45,127
84595,note_off,46,0,0,,2,,,50,127
84641,note_on,46,0,0,,6,,,42,127
84687,note_off,46,0,0,,10,,,45,127
84733,note_off,46,0,0,,6,,,42,127
84733,note_on,0,0,0,,2,,,50,127
84733,note_on,0,0,0,,2,,,38,127
85560,note_off,827,0,0,,2,,,38,127
85560,note_off,0,0,0,,2,,,50,127
85865,note_on,305,0,0,,10,,,81,127
85865,note_on,0,0,0,,2,,,74,127
85953,note_off,88,0,0,,2,,,74,127
85953,note_on,0,0,0,,10,,,69,127
86041,note_off,88,0,0,,10,,,69,127
86041,note_on,0,0,0,,6,,,66,127
86129,note_off,88,0,0,,6,,,66,127
86129,note_off,0,0,0,,10,,,81,127
86129,note_on,0,0,0,,2,,,62,127
86129,note_on,0,0,0,,10,,,81,127
86217,note_off,88,0,0,,2,,,62,127
86217,note_on,0,0,0,,10,,,57,127
86305,note_off,88,0,0,,10,,,57,127
86305,note_on,0,0,0,,6,,,54,127
86393,note_off,88,0,0,,6,,,54,127
86393,note_off,0,0,0,,10,,,81,127
86393,note_on,0,0,0,,2,,,50,127
86393,note_on,0,0,0,,10,,,81,127
86481,note_off,88,0,0,,10,,,81,127
86481,note_on,0,0,0,,12,,,83,127
86525,note_off,44,0,0,,2,,,50,127
86569,note_off,44,0,0,,12,,,83,127
86569,note_on,0,0,0,,0,,,84,127
86657,note_off,88,0,0,,0,,,84,127
86657,note_on,0,0,0,,7,,,67,127
86657,note_on,0,0,0,,12,,,83,127
86745,note_off,88,0,0,,12,,,83,127
86745,note_off,0,0,0,,7,,,67,127
86745,note_on,0,0,0,,2,,,62,127
86745,note_on,0,0,0,,0,,,84,127
86833,note_off,88,0,0,,0,,,84,127
86833,note_off,0,0,0,,2,,,62,127
86833,note_on,0,0,0,,12,,,59,127
86833,note_on,0,0,0,,2,,,86,127
86921,note_off,88,0,0,,2,,,86,127
86921,note_off,0,0,0,,12,,,59,127
86921,note_on,0,0,0,,7,,,55,127
86921,note_on,0,0,0,,12,,,83,127
86921,note_on,0,0,0,,0,,,84,127
86965,note_off,44,0,0,,0,,,84,127
87009,note_off,44,0,0,,12,,,83,127
87009,note_off,0,0,0,,7,,,55,127
87009,note_on,0,0,0,,2,,,50,127
87009,note_on,0,0,0,,10,,,81,127
87097,note_off,88,0,0,,10,,,81,127
87097,note_off,0,0,0,,2,,,50,127
87097,note_on,0,0,0,,12,,,47,127
87097,note_on,0,0,0,,7,,,79,127
87185,note_off,88,0,0,,7,,,79,127
87185,note_off,0,0,0,,12,,,47,127
87185,note_on,0,0,0,,7,,,43,127
87185,note_on,0,0,0,,7,,,79,127
87384,note_off,199,0,0,,7,,,79,127
87450,note_off,66,0,0,,7,,,43,127
87450,note_on,0,0,0,,2,,,74,127
87450,note_on,0,0,0,,10,,,81,127
87538,note_off,88,0,0,,2,,,74,127
87538,note_on,0,0,0,,10,,,69,127
87626,note_off,88,0,0,,10,,,69,127
87626,note_on,0,0,0,,6,,,66,127
87714,note_off,88,0,0,,6,,,66,127
87714,note_off,0,0,0,,10,,,81,127
87714,note_on,0,0,0,,2,,,62,127
87714,note_on,0,0,0,,10,,,81,127
87802,note_off,88,0,0,,2,,,62,127
87802,note_on,0,0,0,,10,,,57,127
87890,note_off,88,0,0,,10,,,57,127
87890,note_on,0,0,0,,6,,,54,127
87978,note_off,88,0,0,,6,,,54,127
87978,note_off,0,0,0,,10,,,81,127
87978,note_on,0,0,0,,10,,,81,127
87978,note_on,0,0,0,,2,,,50,127
88066,note_off,88,0,0,,10,,,81,127
88066,note_on,0,0,0,,12,,,83,127
88110,note_off,44,0,0,,2,,,50,127
88154,note_off,44,0,0,,12,,,83,127
88154,note_on,0,0,0,,0,,,84,127
88242,note_off,88,0,0,,0,,,84,127
88242,note_on,0,0,0,,7,,,67,127
88242,note_on,0,0,0,,12,,,83,127
88330,note_off,88,0,0,,12,,,83,127
88330,note_off,0,0,0,,7,,,67,127
88330,note_on,0,0,0,,2,,,62,127
88330,note_on,0,0,0,,0,,,84,127
88418,note_off,88,0,0,,0,,,84,127
88418,note_off,0,0,0,,2,,,62,127
88418,note_on,0,0,0,,2,,,86,127
88418,note_on,0,0,0,,12,,,59,127
88506,note_off,88,0,0,,12,,,59,127
88506,note_off,0,0,0,,2,,,86,127
88506,note_on,0,0,0,,12,,,83,127
88506,note_on,0,0,0,,7,,,55,127
88506,note_on,0,0,0,,0,,,84,127
88550,note_off,44,0,0,,0,,,84,127
88594,note_off,44,0,0,,7,,,55,127
88594,note_off,0,0,0,,12,,,83,127
88594,note_on,0,0,0,,10,,,81,127
88594,note_on,0,0,0,,2,,,50,127
88682,note_off,88,0,0,,2,,,50,127
88682,note_off,0,0,0,,10,,,81,127
88682,note_on,0,0,0,,7,,,79,127
88682,note_on,0,0,0,,12,,,47,127
88770,note_off,88,0,0,,12,,,47,127
88770,note_off,0,0,0,,7,,,79,127
88770,note_on,0,0,0,,7,,,79,127
88770,note_on,0,0,0,,7,,,43,127
88969,note_off,199,0,0,,7,,,79,127
89035,note_off,66,0,0,,7,,,43,127
89057,note_on,22,0,0,,10,,,81,127
89057,note_on,0,0,0,,2,,,74,127
89145,note_off,88,0,0,,2,,,74,127
89145,note_on,0,0,0,,10,,,69,127
89233,note_off,88,0,0,,10,,,69,127
89233,note_on,0,0,0,,6,,,66,127
89321,note_off,88,0,0,,6,,,66,127
89321,note_off,0,0,0,,10,,,81,127
89321,note_on,0,0,0,,10,,,81,127
89321,note_on,0,0,0,,2,,,62,127
89409,note_off,88,0,0,,2,,,62,127
89409,note_on,0,0,0,,10,,,57,127
89497,note_off,88,0,0,,10,,,57,127
89497,note_on,0,0,0,,6,,,54,127
89585,note_off,88,0,0,,6,,,54,127
89585,note_off,0,0,0,,10,,,81,127
89585,note_on,0,0,0,,2,,,50,127
89585,note_on,0,0,0,,10,,,81,127
89673,note_off,88,0,0,,10,,,81,127
89673,note_on,0,0,0,,12,,,83,127
89717,note_off,44,0,0,,2,,,50,127
89761,note_off,44,0,0,,12,,,83,127
89761,note_on,0,0,0,,0,,,84,127
89849,note_off,88,0,0,,0,,,84,127
89849,note_on,0,0,0,,12,,,59,127
89849,note_on,0,0,0,,7,,,55,127
89849,note_on,0,0,0,,12,,,83,127
89937,note_off,88,0,0,,12,,,83,127
89937,note_on,0,0,0,,0,,,84,127
90025,note_off,88,0,0,,0,,,84,127
90025,note_on,0,0,0,,2,,,86,127
90113,note_off,88,0,0,,2,,,86,127
90113,note_off,0,0,0,,7,,,55,127
90113,note_off,0,0,0,,12,,,59,127
90113,note_on,0,0,0,,0,,,60,127
90113,note_on,0,0,0,,10,,,57,127
90113,note_on,0,0,0,,6,,,78,127
90201,note_off,88,0,0,,6,,,78,127
90201,note_on,0,0,0,,7,,,79,127
90289,note_off,88,0,0,,7,,,79,127
90289,note_on,0,0,0,,10,,,81,127
90377,note_off,88,0,0,,10,,,81,127
90377,note_off,0,0,0,,10,,,57,127
90377,note_off,0,0,0,,0,,,60,127
90377,note_on,0,0,0,,2,,,62,127
90377,note_on,0,0,0,,12,,,59,127
90377,note_on,0,0,0,,2,,,74,127
90465,note_on,88,0,0,,2,,,86,127
90553,note_off,88,0,0,,2,,,86,127
90553,note_off,0,0,0,,2,,,74,127
90553,note_on,0,0,0,,7,,,79,127
90641,note_off,88,0,0,,7,,,79,127
90641,note_off,0,0,0,,12,,,59,127
90641,note_off,0,0,0,,2,,,62,127
90641,note_on,0,0,0,,0,,,60,127
90641,note_on,0,0,0,,0,,,48,127
90641,note_on,0,0,0,,4,,,76,127
90729,note_on,88,0,0,,0,,,84,127
90817,note_off,88,0,0,,0,,,84,127
90817,note_off,0,0,0,,4,,,76,127
90817,note_on,0,0,0,,10,,,81,127
90905,note_off,88,0,0,,10,,,81,127
90905,note_off,0,0,0,,0,,,48,127
90905,note_off,0,0,0,,0,,,60,127
90905,note_on,0,0,0,,12,,,59,127
90905,note_on,0,0,0,,7,,,55,127
90905,note_on,0,0,0,,2,,,50,127
90905,note_on,0,0,0,,7,,,79,127
91170,note_off,265,0,0,,7,,,79,127
91170,note_off,0,0,0,,7,,,55,127
91170,note_off,0,0,0,,12,,,59,127
91170,note_on,0,0,0,,12,,,83,127
91170,note_on,0,0,0,,10,,,57,127
91170,note_on,0,0,0,,0,,,60,127
91170,note_on,0,0,0,,10,,,81,127
91214,note_off,44,0,0,,12,,,83,127
91258,note_off,44,0,0,,10,,,81,127
91258,note_on,0,0,0,,7,,,79,127
91346,note_off,88,0,0,,7,,,79,127
91346,note_on,0,0,0,,6,,,78,127
91434,note_off,88,0,0,,6,,,78,127
91434,note_off,0,0,0,,0,,,60,127
91434,note_off,0,0,0,,10,,,57,127
91434,note_off,0,0,0,,2,,,50,127
91434,note_on,0,0,0,,7,,,55,127
91434,note_on,0,0,0,,6,,,78,127
91713,note_on,279,0,0,,7,,,43,127
91964,note_off,251,0,0,,7,,,55,127
91986,note_off,22,0,0,,6,,,78,127
91993,note_on,7,0,0,,7,,,79,127
92192,note_off,199,0,0,,7,,,79,127
92243,note_off,51,0,0,,7,,,43,127
92273,note_on,30,0,0,,10,,,69,127
92273,note_on,0,0,0,,2,,,62,127
92361,note_off,88,0,0,,2,,,62,127
92361,note_off,0,0,0,,10,,,69,127
92361,note_on,0,0,0,,7,,,67,127
92361,note_on,0,0,0,,10,,,57,127
92449,note_off,88,0,0,,10,,,57,127
92449,note_off,0,0,0,,7,,,67,127
92449,note_on,0,0,0,,10,,,69,127
92449,note_on,0,0,0,,6,,,54,127
92537,note_off,88,0,0,,6,,,54,127
92537,note_off,0,0,0,,10,,,69,127
92537,note_on,0,0,0,,6,,,78,127
92537,note_on,0,0,0,,10,,,69,127
92537,note_on,0,0,0,,2,,,50,127
92625,note_off,88,0,0,,2,,,50,127
92625,note_off,0,0,0,,10,,,69,127
92625,note_on,0,0,0,,7,,,67,127
92625,note_on,0,0,0,,10,,,45,127
92713,note_off,88,0,0,,10,,,45,127
92713,note_off,0,0,0,,7,,,67,127
92713,note_on,0,0,0,,10,,,69,127
92713,note_on,0,0,0,,6,,,42,127
92801,note_off,88,0,0,,6,,,42,127
92801,note_off,0,0,0,,10,,,69,127
92801,note_off,0,0,0,,6,,,78,127
92801,note_on,0,0,0,,10,,,81,127
92801,note_on,0,0,0,,0,,,72,127
92801,note_on,0,0,0,,2,,,38,127
92889,note_off,88,0,0,,0,,,72,127
92889,note_on,0,0,0,,12,,,71,127
92977,note_off,88,0,0,,12,,,71,127
92977,note_on,0,0,0,,0,,,72,127
93065,note_off,88,0,0,,0,,,72,127
93065,note_off,0,0,0,,2,,,38,127
93065,note_off,0,0,0,,10,,,81,127
93065,note_on,0,0,0,,12,,,71,127
93065,note_on,0,0,0,,7,,,67,127
93153,note_off,88,0,0,,7,,,67,127
93153,note_off,0,0,0,,12,,,71,127
93153,note_on,0,0,0,,10,,,69,127
93153,note_on,0,0,0,,2,,,62,127
93241,note_off,88,0,0,,2,,,62,127
93241,note_off,0,0,0,,10,,,69,127
93241,note_on,0,0,0,,12,,,71,127
93241,note_on,0,0,0,,12,,,59,127
93329,note_off,88,0,0,,12,,,59,127
93329,note_off,0,0,0,,12,,,71,127
93329,note_on,0,0,0,,7,,,79,127
93329,note_on,0,0,0,,12,,,71,127
93329,note_on,0,0,0,,7,,,55,127
93417,note_off,88,0,0,,7,,,55,127
93417,note_off,0,0,0,,12,,,71,127
93417,note_on,0,0,0,,10,,,69,127
93417,note_on,0,0,0,,2,,,50,127
93505,note_off,88,0,0,,2,,,50,127
93505,note_off,0,0,0,,10,,,69,127
93505,note_on,0,0,0,,12,,,71,127
93505,note_on,0,0,0,,12,,,47,127
93593,note_off,88,0,0,,12,,,47,127
93593,note_off,0,0,0,,12,,,71,127
93593,note_off,0,0,0,,7,,,79,127
93593,note_on,0,0,0,,12,,,83,127
93593,note_on,0,0,0,,2,,,74,127
93593,note_on,0,0,0,,7,,,43,127
93681,note_off,88,0,0,,2,,,74,127
93681,note_on,0,0,0,,0,,,72,127
93769,note_off,88,0,0,,0,,,72,127
93769,note_on,0,0,0,,2,,,74,127
93857,note_off,88,0,0,,7,,,43,127
93868,note_off,11,0,0,,2,,,74,127
93868,note_off,0,0,0,,12,,,83,127
93879,note_on,11,0,0,,2,,,62,127
93879,note_on,0,0,0,,10,,,69,127
93967,note_off,88,0,0,,10,,,69,127
93967,note_off,0,0,0,,2,,,62,127
93967,note_on,0,0,0,,7,,,67,127
93967,note_on,0,0,0,,10,,,57,127
94055,note_off,88,0,0,,10,,,57,127
94055,note_off,0,0,0,,7,,,67,127
94055,note_on,0,0,0,,10,,,69,127
94055,note_on,0,0,0,,6,,,54,127
94143,note_off,88,0,0,,6,,,54,127
94143,note_off,0,0,0,,10,,,69,127
94143,note_on,0,0,0,,10,,,69,127
94143,note_on,0,0,0,,6,,,78,127
94143,note_on,0,0,0,,2,,,50,127
94231,note_off,88,0,0,,2,,,50,127
94231,note_off,0,0,0,,10,,,69,127
94231,note_on,0,0,0,,7,,,67,127
94231,note_on,0,0,0,,10,,,45,127
94319,note_off,88,0,0,,10,,,45,127
94319,note_off,0,0,0,,7,,,67,127
94319,note_on,0,0,0,,10,,,69,127
94319,note_on,0,0,0,,6,,,42,127
94407,note_off,88,0,0,,6,,,42,127
94407,note_off,0,0,0,,10,,,69,127
94407,note_off,0,0,0,,6,,,78,127
94407,note_on,0,0,0,,0,,,72,127
94407,note_on,0,0,0,,10,,,81,127
94407,note_on,0,0,0,,2,,,38,127
94495,note_off,88,0,0,,0,,,72,127
94495,note_on,0,0,0,,12,,,71,127
94583,note_off,88,0,0,,12,,,71,127
94583,note_on,0,0,0,,0,,,72,127
94671,note_off,88,0,0,,0,,,72,127
94671,note_off,0,0,0,,2,,,38,127
94671,note_off,0,0,0,,10,,,81,127
94671,note_on,0,0,0,,7,,,67,127
94671,note_on,0,0,0,,12,,,71,127
94759,note_off,88,0,0,,12,,,71,127
94759,note_off,0,0,0,,7,,,67,127
94759,note_on,0,0,0,,2,,,62,127
94759,note_on,0,0,0,,10,,,69,127
94847,note_off,88,0,0,,10,,,69,127
94847,note_off,0,0,0,,2,,,62,127
94847,note_on,0,0,0,,12,,,71,127
94847,note_on,0,0,0,,12,,,59,127
94935,note_off,88,0,0,,12,,,59,127
94935,note_off,0,0,0,,12,,,71,127
94935,note_on,0,0,0,,12,,,71,127
94935,note_on,0,0,0,,7,,,79,127
94935,note_on,0,0,0,,7,,,55,127
95023,note_off,88,0,0,,7,,,55,127
95023,note_off,0,0,0,,12,,,71,127
95023,note_on,0,0,0,,10,,,69,127
95023,note_on,0,0,0,,2,,,50,127
95111,note_off,88,0,0,,2,,,50,127
95111,note_off,0,0,0,,10,,,69,127
95111,note_on,0,0,0,,12,,,71,127
95111,note_on,0,0,0,,12,,,47,127
95199,note_off,88,0,0,,12,,,47,127
95199,note_off,0,0,0,,12,,,71,127
95199,note_off,0,0,0,,7,,,79,127
95199,note_on,0,0,0,,2,,,74,127
95199,note_on,0,0,0,,12,,,83,127
95199,note_on,0,0,0,,7,,,43,127
95287,note_off,88,0,0,,2,,,74,127
95287,note_on,0,0,0,,0,,,72,127
95375,note_off,88,0,0,,0,,,72,127
95375,note_on,0,0,0,,2,,,74,127
95479,note_off,104,0,0,,12,,,83,127
95480,note_off,1,0,0,,2,,,74,127
95486,note_on,6,0,0,,10,,,69,127
95486,note_on,0,0,0,,2,,,62,127
95530,note_off,44,0,0,,7,,,43,127
95574,note_off,44,0,0,,2,,,62,127
95574,note_off,0,0,0,,10,,,69,127
95574,note_on,0,0,0,,10,,,57,127
95574,note_on,0,0,0,,7,,,67,127
95662,note_off,88,0,0,,7,,,67,127
95662,note_off,0,0,0,,10,,,57,127
95662,note_on,0,0,0,,6,,,54,127
95662,note_on,0,0,0,,10,,,69,127
95750,note_off,88,0,0,,10,,,69,127
95750,note_off,0,0,0,,6,,,54,127
95750,note_on,0,0,0,,2,,,50,127
95750,note_on,0,0,0,,6,,,78,127
95750,note_on,0,0,0,,10,,,69,127
95838,note_off,88,0,0,,10,,,69,127
95838,note_off,0,0,0,,2,,,50,127
95838,note_on,0,0,0,,10,,,45,127
95838,note_on,0,0,0,,7,,,67,127
95926,note_off,88,0,0,,7,,,67,127
95926,note_off,0,0,0,,10,,,45,127
95926,note_on,0,0,0,,6,,,42,127
95926,note_on,0,0,0,,10,,,69,127
96014,note_off,88,0,0,,10,,,69,127
96014,note_off,0,0,0,,6,,,42,127
96014,note_off,0,0,0,,6,,,78,127
96014,note_on,0,0,0,,2,,,38,127
96014,note_on,0,0,0,,10,,,81,127
96014,note_on,0,0,0,,0,,,72,127
96102,note_off,88,0,0,,0,,,72,127
96102,note_on,0,0,0,,12,,,71,127
96190,note_off,88,0,0,,12,,,71,127
96190,note_on,0,0,0,,0,,,72,127
96278,note_off,88,0,0,,0,,,72,127
96278,note_off,0,0,0,,10,,,81,127
96278,note_off,0,0,0,,2,,,38,127
96278,note_on,0,0,0,,7,,,55,127
96278,note_on,0,0,0,,7,,,79,127
96278,note_on,0,0,0,,12,,,71,127
96366,note_off,88,0,0,,12,,,71,127
96366,note_on,0,0,0,,10,,,69,127
96454,note_off,88,0,0,,10,,,69,127
96454,note_on,0,0,0,,12,,,71,127
96542,note_off,88,0,0,,12,,,71,127
96542,note_off,0,0,0,,7,,,79,127
96542,note_off,0,0,0,,7,,,55,127
96542,note_on,0,0,0,,10,,,57,127
96542,note_on,0,0,0,,0,,,72,127
96542,note_on,0,0,0,,6,,,78,127
96630,note_off,88,0,0,,0,,,72,127
96630,note_on,0,0,0,,12,,,71,127
96718,note_off,88,0,0,,12,,,71,127
96718,note_on,0,0,0,,0,,,72,127
96806,note_off,88,0,0,,0,,,72,127
96806,note_off,0,0,0,,6,,,78,127
96806,note_off,0,0,0,,10,,,57,127
96806,note_on,0,0,0,,12,,,59,127
96806,note_on,0,0,0,,7,,,79,127
96806,note_on,0,0,0,,2,,,74,127
96894,note_off,88,0,0,,2,,,74,127
96894,note_on,0,0,0,,0,,,72,127
96982,note_off,88,0,0,,0,,,72,127
96982,note_on,0,0,0,,2,,,74,127
97070,note_off,88,0,0,,2,,,74,127
97070,note_off,0,0,0,,7,,,79,127
97070,note_off,0,0,0,,12,,,59,127
97070,note_on,0,0,0,,0,,,60,127
97070,note_on,0,0,0,,4,,,76,127
97070,note_on,0,0,0,,7,,,79,127
97158,note_off,88,0,0,,4,,,76,127
97158,note_on,0,0,0,,2,,,74,127
97246,note_off,88,0,0,,2,,,74,127
97246,note_on,0,0,0,,0,,,72,127
97334,note_off,88,0,0,,0,,,72,127
97334,note_off,0,0,0,,7,,,79,127
97334,note_off,0,0,0,,0,,,60,127
97334,note_on,0,0,0,,7,,,79,127
97334,note_on,0,0,0,,2,,,62,127
97334,note_on,0,0,0,,2,,,74,127
97422,note_off,88,0,0,,2,,,74,127
97422,note_on,0,0,0,,0,,,72,127
97510,note_off,88,0,0,,0,,,72,127
97510,note_on,0,0,0,,12,,,71,127
97598,note_off,88,0,0,,12,,,71,127
97598,note_off,0,0,0,,2,,,62,127
97598,note_off,0,0,0,,7,,,79,127
97598,note_on,0,0,0,,0,,,72,127
97598,note_on,0,0,0,,6,,,78,127
97598,note_on,0,0,0,,2,,,50,127
97686,note_off,88,0,0,,0,,,72,127
97686,note_on,0,0,0,,12,,,71,127
97774,note_off,88,0,0,,12,,,71,127
97774,note_on,0,0,0,,10,,,69,127
97862,note_off,88,0,0,,10,,,69,127
97862,note_off,0,0,0,,2,,,50,127
97862,note_off,0,0,0,,6,,,78,127
97884,note_on,22,0,0,,12,,,83,127
97884,note_on,0,0,0,,2,,,74,127
97884,note_on,0,0,0,,7,,,55,127
97884,note_on,0,0,0,,12,,,59,127
97884,note_on,0,0,0,,2,,,62,127
97972,note_off,88,0,0,,12,,,83,127
97972,note_on,0,0,0,,10,,,81,127
98060,note_off,88,0,0,,10,,,81,127
98060,note_on,0,0,0,,12,,,83,127
98148,note_off,88,0,0,,12,,,83,127
98148,note_off,0,0,0,,2,,,62,127
98148,note_off,0,0,0,,12,,,59,127
98148,note_off,0,0,0,,7,,,55,127
98148,note_off,0,0,0,,2,,,74,127
98148,note_on,0,0,0,,0,,,84,127
98148,note_on,0,0,0,,2,,,74,127
98148,note_on,0,0,0,,2,,,62,127
98148,note_on,0,0,0,,6,,,54,127
98148,note_on,0,0,0,,10,,,57,127
98236,note_off,88,0,0,,0,,,84,127
98236,note_on,0,0,0,,12,,,83,127
98324,note_off,88,0,0,,12,,,83,127
98324,note_on,0,0,0,,0,,,84,127
98412,note_off,88,0,0,,0,,,84,127
98412,note_off,0,0,0,,10,,,57,127
98412,note_off,0,0,0,,6,,,54,127
98412,note_off,0,0,0,,2,,,62,127
98412,note_off,0,0,0,,2,,,74,127
98412,note_on,0,0,0,,2,,,74,127
98412,note_on,0,0,0,,12,,,83,127
98412,note_on,0,0,0,,2,,,62,127
98412,note_on,0,0,0,,7,,,55,127
98412,note_on,0,0,0,,12,,,59,127
98500,note_off,88,0,0,,12,,,83,127
98500,note_on,0,0,0,,10,,,81,127
98588,note_off,88,0,0,,10,,,81,127
98588,note_on,0,0,0,,12,,,83,127
98676,note_off,88,0,0,,12,,,83,127
98676,note_off,0,0,0,,12,,,59,127
98676,note_off,0,0,0,,7,,,55,127
98676,note_off,0,0,0,,2,,,62,127
98676,note_off,0,0,0,,2,,,74,127
98676,note_on,0,0,0,,0,,,72,127
98676,note_on,0,0,0,,10,,,81,127
98676,note_on,0,0,0,,0,,,48,127
98676,note_on,0,0,0,,0,,,60,127
98764,note_off,88,0,0,,10,,,81,127
98764,note_on,0,0,0,,7,,,79,127
98852,note_off,88,0,0,,7,,,79,127
98852,note_on,0,0,0,,10,,,81,127
98940,note_off,88,0,0,,10,,,81,127
98940,note_off,0,0,0,,0,,,60,127
98940,note_off,0,0,0,,0,,,48,127
98940,note_off,0,0,0,,0,,,72,127
98940,note_on,0,0,0,,12,,,71,127
98940,note_on,0,0,0,,7,,,79,127
98940,note_on,0,0,0,,2,,,50,127
98940,note_on,0,0,0,,12,,,59,127
98940,note_on,0,0,0,,7,,,55,127
99028,note_off,88,0,0,,7,,,79,127
99028,note_on,0,0,0,,6,,,78,127
99116,note_off,88,0,0,,6,,,78,127
99116,note_on,0,0,0,,7,,,79,127
99204,note_off,88,0,0,,7,,,79,127
99204,note_off,0,0,0,,7,,,55,127
99204,note_off,0,0,0,,12,,,59,127
99204,note_off,0,0,0,,12,,,71,127
99204,note_on,0,0,0,,10,,,69,127
99204,note_on,0,0,0,,6,,,78,127
99204,note_on,0,0,0,,0,,,60,127
99204,note_on,0,0,0,,10,,,57,127
99292,note_off,88,0,0,,6,,,78,127
99292,note_on,0,0,0,,4,,,76,127
99380,note_off,88,0,0,,4,,,76,127
99380,note_on,0,0,0,,6,,,78,127
99468,note_off,88,0,0,,10,,,57,127
99468,note_off,0,0,0,,2,,,50,127
99479,note_off,11,0,0,,6,,,78,127
99479,note_off,0,0,0,,0,,,60,127
99479,note_off,0,0,0,,10,,,69,127
99490,note_on,11,0,0,,2,,,62,127
99490,note_on,0,0,0,,12,,,59,127
99490,note_on,0,0,0,,7,,,55,127
99490,note_on,0,0,0,,12,,,83,127
99490,note_on,0,0,0,,2,,,74,127
99578,note_off,88,0,0,,2,,,74,127
99578,note_on,0,0,0,,0,,,72,127
99666,note_off,88,0,0,,0,,,72,127
99666,note_on,0,0,0,,2,,,74,127
99754,note_off,88,0,0,,2,,,74,127
99754,note_off,0,0,0,,12,,,83,127
99754,note_off,0,0,0,,7,,,55,127
99754,note_off,0,0,0,,12,,,59,127
99754,note_off,0,0,0,,2,,,62,127
99754,note_on,0,0,0,,2,,,62,127
99754,note_on,0,0,0,,10,,,57,127
99754,note_on,0,0,0,,6,,,54,127
99754,note_on,0,0,0,,0,,,84,127
99754,note_on,0,0,0,,4,,,76,127
99842,note_off,88,0,0,,4,,,76,127
99842,note_on,0,0,0,,2,,,74,127
99930,note_off,88,0,0,,2,,,74,127
99930,note_on,0,0,0,,4,,,76,127
100018,note_off,88,0,0,,4,,,76,127
100018,note_off,0,0,0,,0,,,84,127
100018,note_off,0,0,0,,6,,,54,127
100018,note_off,0,0,0,,10,,,57,127
100018,note_off,0,0,0,,2,,,62,127
100018,note_on,0,0,0,,12,,,59,127
100018,note_on,0,0,0,,7,,,55,127
100018,note_on,0,0,0,,12,,,83,127
100018,note_on,0,0,0,,2,,,74,127
100018,note_on,0,0,0,,2,,,62,127
100106,note_off,88,0,0,,2,,,74,127
100106,note_on,0,0,0,,0,,,72,127
100194,note_off,88,0,0,,0,,,72,127
100194,note_on,0,0,0,,2,,,74,127
100282,note_off,88,0,0,,2,,,74,127
100282,note_off,0,0,0,,2,,,62,127
100282,note_off,0,0,0,,12,,,83,127
100282,note_off,0,0,0,,7,,,55,127
100282,note_off,0,0,0,,12,,,59,127
100282,note_on,0,0,0,,0,,,72,127
100282,note_on,0,0,0,,0,,,48,127
100282,note_on,0,0,0,,0,,,60,127
100282,note_on,0,0,0,,10,,,81,127
100370,note_off,88,0,0,,0,,,72,127
100370,note_on,0,0,0,,12,,,71,127
100458,note_off,88,0,0,,12,,,71,127
100458,note_on,0,0,0,,0,,,72,127
100546,note_off,88,0,0,,0,,,72,127
100546,note_off,0,0,0,,10,,,81,127
100546,note_off,0,0,0,,0,,,60,127
100546,note_off,0,0,0,,0,,,48,127
100546,note_on,0,0,0,,7,,,79,127
100546,note_on,0,0,0,,12,,,71,127
100546,note_on,0,0,0,,12,,,59,127
100546,note_on,0,0,0,,7,,,55,127
100546,note_on,0,0,0,,2,,,50,127
100634,note_off,88,0,0,,12,,,71,127
100634,note_on,0,0,0,,10,,,69,127
100722,note_off,88,0,0,,10,,,69,127
100722,note_on,0,0,0,,12,,,71,127
100810,note_off,88,0,0,,12,,,71,127
100810,note_off,0,0,0,,7,,,55,127
100810,note_off,0,0,0,,12,,,59,127
100810,note_off,0,0,0,,7,,,79,127
100810,note_on,0,0,0,,6,,,78,127
100810,note_on,0,0,0,,10,,,69,127
100810,note_on,0,0,0,,10,,,57,127
100810,note_on,0,0,0,,0,,,60,127
100898,note_off,88,0,0,,10,,,69,127
100898,note_on,0,0,0,,7,,,67,127
100986,note_off,88,0,0,,7,,,67,127
100986,note_on,0,0,0,,10,,,69,127
101074,note_off,88,0,0,,10,,,69,127
101074,note_off,0,0,0,,0,,,60,127
101074,note_off,0,0,0,,10,,,57,127
101074,note_off,0,0,0,,6,,,78,127
101074,note_off,0,0,0,,2,,,50,127
101096,note_on,22,0,0,,12,,,59,127
101096,note_on,0,0,0,,7,,,55,127
101096,note_on,0,0,0,,12,,,83,127
101096,note_on,0,0,0,,2,,,74,127
101096,note_on,0,0,0,,2,,,62,127
101186,note_off,90,0,0,,12,,,83,127
101187,note_on,1,0,0,,10,,,81,127
101277,note_off,90,0,0,,10,,,81,127
101278,note_on,1,0,0,,12,,,83,127
101365,note_off,87,0,0,,2,,,62,127
101365,note_off,0,0,0,,2,,,74,127
101365,note_off,0,0,0,,7,,,55,127
101365,note_off,0,0,0,,12,,,59,127
101368,note_off,3,0,0,,12,,,83,127
101369,note_on,1,0,0,,10,,,57,127
101369,note_on,0,0,0,,6,,,54,127
101369,note_on,0,0,0,,0,,,84,127
101369,note_on,0,0,0,,2,,,74,127
101369,note_on,0,0,0,,2,,,62,127
101369,note_on,0,0,0,,2,,,86,127
101459,note_off,90,0,0,,2,,,86,127
101459,note_off,0,0,0,,0,,,84,127
101459,note_on,0,0,0,,12,,,83,127
101549,note_off,90,0,0,,12,,,83,127
101550,note_on,1,0,0,,0,,,84,127
101638,note_off,88,0,0,,2,,,62,127
101638,note_off,0,0,0,,2,,,74,127
101638,note_off,0,0,0,,6,,,54,127
101638,note_off,0,0,0,,10,,,57,127
101639,note_off,1,0,0,,0,,,84,127
101640,note_on,1,0,0,,12,,,59,127
101640,note_on,0,0,0,,7,,,55,127
101640,note_on,0,0,0,,12,,,83,127
101640,note_on,0,0,0,,2,,,74,127
101640,note_on,0,0,0,,2,,,62,127
101640,note_on,0,0,0,,0,,,84,127
101730,note_off,90,0,0,,0,,,84,127
101730,note_off,0,0,0,,12,,,83,127
101731,note_on,1,0,0,,10,,,81,127
101821,note_off,90,0,0,,10,,,81,127
101822,note_on,1,0,0,,12,,,83,127
101909,note_off,87,0,0,,2,,,62,127
101909,note_off,0,0,0,,2,,,74,127
101909,note_off,0,0,0,,7,,,55,127
101909,note_off,0,0,0,,12,,,59,127
101912,note_off,3,0,0,,12,,,83,127
101913,note_on,1,0,0,,0,,,48,127
101913,note_on,0,0,0,,10,,,81,127
101913,note_on,0,0,0,,0,,,72,127
101913,note_on,0,0,0,,0,,,60,127
101913,note_on,0,0,0,,12,,,83,127
102003,note_off,90,0,0,,12,,,83,127
102003,note_off,0,0,0,,10,,,81,127
102004,note_on,1,0,0,,7,,,79,127
102094,note_off,90,0,0,,7,,,79,127
102095,note_on,1,0,0,,10,,,81,127
102182,note_off,87,0,0,,0,,,60,127
102182,note_off,0,0,0,,0,,,72,127
102182,note_off,0,0,0,,0,,,48,127
102185,note_off,3,0,0,,10,,,81,127
102186,note_on,1,0,0,,12,,,59,127
102186,note_on,0,0,0,,7,,,55,127
102186,note_on,0,0,0,,2,,,50,127
102186,note_on,0,0,0,,7,,,79,127
102186,note_on,0,0,0,,12,,,71,127
102186,note_on,0,0,0,,10,,,81,127
102276,note_off,90,0,0,,10,,,81,127
102276,note_off,0,0,0,,7,,,79,127
102277,note_on,1,0,0,,6,,,78,127
102367,note_off,90,0,0,,6,,,78,127
102368,note_on,1,0,0,,7,,,79,127
102455,note_off,87,0,0,,12,,,71,127
102455,note_off,0,0,0,,7,,,55,127
102455,note_off,0,0,0,,12,,,59,127
102458,note_off,3,0,0,,7,,,79,127
102459,note_on,1,0,0,,10,,,57,127
102459,note_on,0,0,0,,6,,,78,127
102459,note_on,0,0,0,,10,,,69,127
102459,note_on,0,0,0,,0,,,60,127
102459,note_on,0,0,0,,7,,,79,127
102549,note_off,90,0,0,,7,,,79,127
102549,note_off,0,0,0,,6,,,78,127
102549,note_on,0,0,0,,4,,,76,127
102639,note_off,90,0,0,,4,,,76,127
102640,note_on,1,0,0,,6,,,78,127
102726,note_off,86,0,0,,2,,,50,127
102729,note_off,3,0,0,,0,,,60,127
102729,note_off,0,0,0,,10,,,69,127
102729,note_off,0,0,0,,10,,,57,127
102730,note_off,1,0,0,,6,,,78,127
102731,note_on,1,0,0,,7,,,43,127
102741,note_on,10,0,0,,7,,,79,127
102807,note_on,66,0,0,,2,,,74,127
102829,note_off,22,0,0,,7,,,79,127
102873,note_on,44,0,0,,12,,,71,127
102895,note_off,22,0,0,,2,,,74,127
102939,note_on,44,0,0,,7,,,67,127
102961,note_off,22,0,0,,12,,,71,127
103005,note_on,44,0,0,,2,,,62,127
103027,note_off,22,0,0,,7,,,67,127
103071,note_on,44,0,0,,12,,,59,127
103093,note_off,22,0,0,,2,,,62,127
103137,note_on,44,0,0,,7,,,55,127
103137,note_on,0,0,0,,7,,,67,127
103159,note_off,22,0,0,,12,,,59,127
103203,note_on,44,0,0,,2,,,62,127
103225,note_off,22,0,0,,7,,,67,127
103269,note_off,44,0,0,,7,,,43,127
103269,note_on,0,0,0,,12,,,59,127
103291,note_off,22,0,0,,2,,,62,127
103313,note_off,22,0,0,,7,,,55,127
103335,note_on,22,0,0,,7,,,55,127
103357,note_off,22,0,0,,12,,,59,127
103401,note_on,44,0,0,,2,,,50,127
103423,note_off,22,0,0,,7,,,55,127
103467,note_on,44,0,0,,12,,,47,127
103489,note_off,22,0,0,,2,,,50,127
103533,note_on,44,0,0,,7,,,43,127
103533,note_on,0,0,0,,7,,,55,127
103555,note_off,22,0,0,,12,,,47,127
103599,note_on,44,0,0,,2,,,50,127
103621,note_off,22,0,0,,7,,,55,127
103665,note_on,44,0,0,,12,,,47,127
103687,note_off,22,0,0,,2,,,50,127
103709,note_off,22,0,0,,7,,,43,127
103731,note_on,22,0,0,,7,,,43,127
103753,note_off,22,0,0,,12,,,47,127
103797,note_on,44,0,0,,2,,,38,127
103819,note_off,22,0,0,,7,,,43,127
103863,note_on,44,0,0,,12,,,35,127
103885,note_off,22,0,0,,2,,,38,127
103939,note_on,54,0,0,,7,,,31,127
103951,note_off,12,0,0,,12,,,35,127
105035,note_off,1084,0,0,,7,,,31,127
105408,end_of_track,373,1,0,,,,,,
