tick,type,time,meta,track,program,channel,pitch,tempo,note,velocity
0,copyright,0,1,0,,,,,,
0,program_change,0,0,0,6,0,,,,
0,pitchwheel,0,0,0,,0,0,,,
0,program_change,0,0,0,6,1,,,,
0,pitchwheel,0,0,0,,1,-590,,,
0,program_change,0,0,0,6,2,,,,
0,pitchwheel,0,0,0,,2,-272,,,
0,program_change,0,0,0,6,3,,,,
0,pitchwheel,0,0,0,,3,-353,,,
0,program_change,0,0,0,6,4,,,,
0,pitchwheel,0,0,0,,4,-560,,,
0,program_change,0,0,0,6,5,,,,
0,pitchwheel,0,0,0,,5,-80,,,
0,program_change,0,0,0,6,6,,,,
0,pitchwheel,0,0,0,,6,-625,,,
0,program_change,0,0,0,6,7,,,,
0,pitchwheel,0,0,0,,7,-130,,,
0,program_change,0,0,0,6,8,,,,
0,pitchwheel,0,0,0,,8,-512,,,
0,program_change,0,0,0,6,10,,,,
0,pitchwheel,0,0,0,,10,-464,,,
0,program_change,0,0,0,6,11,,,,
0,pitchwheel,0,0,0,,11,-208,,,
0,program_change,0,0,0,6,12,,,,
0,pitchwheel,0,0,0,,12,-553,,,
0,set_tempo,0,1,0,,,,500000,,
35,note_on,35,0,0,,7,,,79,127
35,note_on,0,0,0,,7,,,55,127
138,note_off,103,0,0,,7,,,55,127
140,note_on,2,0,0,,6,,,54,127
243,note_off,103,0,0,,6,,,54,127
245,note_on,2,0,0,,7,,,55,127
348,note_off,103,0,0,,7,,,55,127
350,note_on,2,0,0,,10,,,57,127
453,note_off,103,0,0,,10,,,57,127
455,note_on,2,0,0,,12,,,59,127
558,note_off,103,0,0,,12,,,59,127
560,note_on,2,0,0,,0,,,60,127
663,note_off,103,0,0,,0,,,60,127
663,note_off,0,0,0,,7,,,79,127
665,note_on,2,0,0,,7,,,79,127
665,note_on,0,0,0,,6,,,78,127
665,note_on,0,0,0,,2,,,62,127
768,note_off,103,0,0,,2,,,62,127
770,note_on,2,0,0,,0,,,60,127
873,note_off,103,0,0,,0,,,60,127
873,note_off,0,0,0,,6,,,78,127
873,note_off,0,0,0,,7,,,79,127
875,note_on,2,0,0,,2,,,74,127
875,note_on,0,0,0,,12,,,59,127
978,note_off,103,0,0,,12,,,59,127
980,note_on,2,0,0,,10,,,57,127
1083,note_off,103,0,0,,10,,,57,127
1083,note_off,0,0,0,,2,,,74,127
1085,note_on,2,0,0,,7,,,79,127
1085,note_on,0,0,0,,12,,,59,127
1188,note_off,103,0,0,,12,,,59,127
1190,note_on,2,0,0,,0,,,60,127
1293,note_off,103,0,0,,0,,,60,127
1293,note_off,0,0,0,,7,,,79,127
1295,note_on,2,0,0,,6,,,78,127
1295,note_on,0,0,0,,7,,,79,127
1295,note_on,0,0,0,,2,,,62,127
1398,note_off,103,0,0,,2,,,62,127
1400,note_on,2,0,0,,0,,,60,127
1503,note_off,103,0,0,,0,,,60,127
1503,note_off,0,0,0,,7,,,79,127
1503,note_off,0,0,0,,6,,,78,127
1505,note_on,2,0,0,,2,,,74,127
1505,note_on,0,0,0,,12,,,59,127
1608,note_off,103,0,0,,12,,,59,127
1610,note_on,2,0,0,,10,,,57,127
1713,note_off,103,0,0,,10,,,57,127
1713,note_off,0,0,0,,2,,,74,127
1715,note_on,2,0,0,,7,,,79,127
1715,note_on,0,0,0,,12,,,59,127
1818,note_off,103,0,0,,12,,,59,127
1820,note_on,2,0,0,,0,,,60,127
1923,note_off,103,0,0,,0,,,60,127
1923,note_off,0,0,0,,7,,,79,127
1925,note_on,2,0,0,,6,,,78,127
1925,note_on,0,0,0,,7,,,79,127
1925,note_on,0,0,0,,2,,,62,127
2028,note_off,103,0,0,,7,,,79,127
2028,note_off,0,0,0,,6,,,78,127
2030,note_on,2,0,0,,4,,,76,127
2133,note_off,103,0,0,,4,,,76,127
2133,note_off,0,0,0,,2,,,62,127
2135,note_on,2,0,0,,2,,,74,127
2135,note_on,0,0,0,,4,,,64,127
2238,note_off,103,0,0,,2,,,74,127
2240,note_on,2,0,0,,0,,,72,127
2343,note_off,103,0,0,,0,,,72,127
2343,note_off,0,0,0,,4,,,64,127
2345,note_on,2,0,0,,12,,,71,127
2345,note_on,0,0,0,,6,,,66,127
2448,note_off,103,0,0,,12,,,71,127
2450,note_on,2,0,0,,10,,,69,127
2553,note_off,103,0,0,,10,,,69,127
2553,note_off,0,0,0,,6,,,66,127
2555,note_on,2,0,0,,12,,,71,127
2555,note_on,0,0,0,,7,,,67,127
2658,note_off,103,0,0,,12,,,71,127
2660,note_on,2,0,0,,10,,,69,127
2763,note_off,103,0,0,,10,,,69,127
2763,note_off,0,0,0,,7,,,67,127
2765,note_on,2,0,0,,12,,,71,127
2765,note_on,0,0,0,,4,,,64,127
2868,note_off,103,0,0,,12,,,71,127
2870,note_on,2,0,0,,0,,,72,127
2973,note_off,103,0,0,,0,,,72,127
2973,note_off,0,0,0,,4,,,64,127
2975,note_on,2,0,0,,6,,,66,127
2975,note_on,0,0,0,,2,,,74,127
3078,note_off,103,0,0,,2,,,74,127
3080,note_on,2,0,0,,0,,,72,127
3183,note_off,103,0,0,,0,,,72,127
3183,note_off,0,0,0,,6,,,66,127
3185,note_on,2,0,0,,7,,,67,127
3185,note_on,0,0,0,,12,,,71,127
3288,note_off,103,0,0,,12,,,71,127
3290,note_on,2,0,0,,10,,,69,127
3393,note_off,103,0,0,,10,,,69,127
3393,note_off,0,0,0,,7,,,67,127
3395,note_on,2,0,0,,4,,,64,127
3395,note_on,0,0,0,,12,,,71,127
3498,note_off,103,0,0,,12,,,71,127
3500,note_on,2,0,0,,0,,,72,127
3603,note_off,103,0,0,,0,,,72,127
3603,note_off,0,0,0,,4,,,64,127
3605,note_on,2,0,0,,6,,,66,127
3605,note_on,0,0,0,,2,,,74,127
3708,note_off,103,0,0,,2,,,74,127
3710,note_on,2,0,0,,0,,,72,127
3813,note_off,103,0,0,,0,,,72,127
3813,note_off,0,0,0,,6,,,66,127
3815,note_on,2,0,0,,7,,,67,127
3815,note_on,0,0,0,,12,,,71,127
3918,note_off,103,0,0,,12,,,71,127
3920,note_on,2,0,0,,10,,,69,127
4023,note_off,103,0,0,,10,,,69,127
4023,note_off,0,0,0,,7,,,67,127
4025,note_on,2,0,0,,7,,,55,127
4025,note_on,0,0,0,,7,,,67,127
4128,note_off,103,0,0,,7,,,67,127
4130,note_on,2,0,0,,6,,,66,127
4233,note_off,103,0,0,,6,,,66,127
4233,note_off,0,0,0,,7,,,55,127
4235,note_on,2,0,0,,12,,,59,127
4235,note_on,0,0,0,,4,,,64,127
4338,note_off,103,0,0,,4,,,64,127
4340,note_on,2,0,0,,2,,,62,127
4443,note_off,103,0,0,,2,,,62,127
4443,note_off,0,0,0,,12,,,59,127
4445,note_on,2,0,0,,0,,,60,127
4445,note_on,0,0,0,,4,,,64,127
4548,note_off,103,0,0,,4,,,64,127
4550,note_on,2,0,0,,7,,,67,127
4653,note_off,103,0,0,,7,,,67,127
4653,note_off,0,0,0,,0,,,60,127
4655,note_on,2,0,0,,10,,,57,127
4655,note_on,0,0,0,,6,,,66,127
4758,note_off,103,0,0,,6,,,66,127
4760,note_on,2,0,0,,10,,,69,127
4863,note_off,103,0,0,,10,,,69,127
4863,note_off,0,0,0,,10,,,57,127
4865,note_on,2,0,0,,12,,,59,127
4865,note_on,0,0,0,,7,,,67,127
4968,note_off,103,0,0,,7,,,67,127
4970,note_on,2,0,0,,12,,,71,127
5073,note_off,103,0,0,,12,,,71,127
5073,note_off,0,0,0,,12,,,59,127
5075,note_on,2,0,0,,6,,,54,127
5075,note_on,0,0,0,,10,,,69,127
5178,note_off,103,0,0,,10,,,69,127
5180,note_on,2,0,0,,0,,,72,127
5283,note_off,103,0,0,,0,,,72,127
5283,note_off,0,0,0,,6,,,54,127
5285,note_on,2,0,0,,7,,,55,127
5285,note_on,0,0,0,,12,,,71,127
5388,note_off,103,0,0,,12,,,71,127
5390,note_on,2,0,0,,2,,,74,127
5493,note_off,103,0,0,,2,,,74,127
5493,note_off,0,0,0,,7,,,55,127
5495,note_on,2,0,0,,10,,,57,127
5495,note_on,0,0,0,,0,,,72,127
5598,note_off,103,0,0,,0,,,72,127
5600,note_on,2,0,0,,4,,,76,127
5703,note_off,103,0,0,,4,,,76,127
5703,note_off,0,0,0,,10,,,57,127
5705,note_on,2,0,0,,12,,,59,127
5705,note_on,0,0,0,,2,,,74,127
5808,note_off,103,0,0,,2,,,74,127
5810,note_on,2,0,0,,0,,,72,127
5913,note_off,103,0,0,,0,,,72,127
5913,note_off,0,0,0,,12,,,59,127
5915,note_on,2,0,0,,7,,,55,127
5915,note_on,0,0,0,,12,,,71,127
6018,note_off,103,0,0,,12,,,71,127
6020,note_on,2,0,0,,10,,,69,127
6123,note_off,103,0,0,,10,,,69,127
6123,note_off,0,0,0,,7,,,55,127
6125,note_on,2,0,0,,12,,,59,127
6125,note_on,0,0,0,,7,,,67,127
6228,note_off,103,0,0,,7,,,67,127
6230,note_on,2,0,0,,6,,,66,127
6333,note_off,103,0,0,,6,,,66,127
6333,note_off,0,0,0,,12,,,59,127
6335,note_on,2,0,0,,0,,,60,127
6335,note_on,0,0,0,,4,,,64,127
6438,note_off,103,0,0,,4,,,64,127
6440,note_on,2,0,0,,7,,,67,127
6543,note_off,103,0,0,,7,,,67,127
6543,note_off,0,0,0,,0,,,60,127
6545,note_on,2,0,0,,10,,,57,127
6545,note_on,0,0,0,,6,,,66,127
6648,note_off,103,0,0,,6,,,66,127
6650,note_on,2,0,0,,10,,,69,127
6753,note_off,103,0,0,,10,,,69,127
6753,note_off,0,0,0,,10,,,57,127
6755,note_on,2,0,0,,12,,,59,127
6755,note_on,0,0,0,,7,,,67,127
6858,note_off,103,0,0,,7,,,67,127
6860,note_on,2,0,0,,12,,,71,127
6963,note_off,103,0,0,,12,,,71,127
6963,note_off,0,0,0,,12,,,59,127
6965,note_on,2,0,0,,6,,,54,127
6965,note_on,0,0,0,,10,,,69,127
7068,note_off,103,0,0,,10,,,69,127
7070,note_on,2,0,0,,0,,,72,127
7173,note_off,103,0,0,,0,,,72,127
7173,note_off,0,0,0,,6,,,54,127
7175,note_on,2,0,0,,7,,,55,127
7175,note_on,0,0,0,,12,,,71,127
7278,note_off,103,0,0,,12,,,71,127
7280,note_on,2,0,0,,2,,,74,127
7383,note_off,103,0,0,,2,,,74,127
7383,note_off,0,0,0,,7,,,55,127
7385,note_on,2,0,0,,10,,,57,127
7385,note_on,0,0,0,,1,,,73,127
7488,note_off,103,0,0,,1,,,73,127
7490,note_on,2,0,0,,4,,,76,127
7593,note_off,103,0,0,,4,,,76,127
7593,note_off,0,0,0,,10,,,57,127
7595,note_on,2,0,0,,12,,,59,127
7595,note_on,0,0,0,,2,,,74,127
7698,note_off,103,0,0,,2,,,74,127
7700,note_on,2,0,0,,6,,,78,127
7803,note_off,103,0,0,,6,,,78,127
7803,note_off,0,0,0,,12,,,59,127
7805,note_on,2,0,0,,1,,,61,127
7805,note_on,0,0,0,,4,,,76,127
7908,note_off,103,0,0,,4,,,76,127
7910,note_on,2,0,0,,7,,,79,127
8013,note_off,103,0,0,,7,,,79,127
8013,note_off,0,0,0,,1,,,61,127
8015,note_on,2,0,0,,2,,,62,127
8015,note_on,0,0,0,,6,,,78,127
8118,note_off,103,0,0,,6,,,78,127
8120,note_on,2,0,0,,10,,,81,127
8223,note_off,103,0,0,,10,,,81,127
8223,note_off,0,0,0,,2,,,62,127
8225,note_on,2,0,0,,4,,,64,127
8225,note_on,0,0,0,,7,,,79,127
8328,note_off,103,0,0,,7,,,79,127
8330,note_on,2,0,0,,12,,,83,127
8433,note_off,103,0,0,,12,,,83,127
8433,note_off,0,0,0,,4,,,64,127
8435,note_on,2,0,0,,6,,,66,127
8435,note_on,0,0,0,,10,,,81,127
8538,note_off,103,0,0,,10,,,81,127
8540,note_on,2,0,0,,7,,,79,127
8643,note_off,103,0,0,,7,,,79,127
8643,note_off,0,0,0,,6,,,66,127
8645,note_on,2,0,0,,2,,,62,127
8645,note_on,0,0,0,,6,,,78,127
8748,note_off,103,0,0,,6,,,78,127
8750,note_on,2,0,0,,4,,,76,127
8853,note_off,103,0,0,,4,,,76,127
8853,note_off,0,0,0,,2,,,62,127
8855,note_on,2,0,0,,6,,,66,127
8855,note_on,0,0,0,,2,,,74,127
8958,note_off,103,0,0,,2,,,74,127
8960,note_on,2,0,0,,0,,,72,127
9063,note_off,103,0,0,,0,,,72,127
9063,note_off,0,0,0,,6,,,66,127
9065,note_on,2,0,0,,7,,,67,127
9065,note_on,0,0,0,,12,,,71,127
9168,note_off,103,0,0,,12,,,71,127
9170,note_on,2,0,0,,2,,,74,127
9273,note_off,103,0,0,,2,,,74,127
9273,note_off,0,0,0,,7,,,67,127
9275,note_on,2,0,0,,4,,,64,127
9275,note_on,0,0,0,,1,,,73,127
9378,note_off,103,0,0,,1,,,73,127
9380,note_on,2,0,0,,4,,,76,127
9483,note_off,103,0,0,,4,,,76,127
9483,note_off,0,0,0,,4,,,64,127
9485,note_on,2,0,0,,6,,,66,127
9485,note_on,0,0,0,,2,,,74,127
9588,note_off,103,0,0,,2,,,74,127
9590,note_on,2,0,0,,6,,,78,127
9693,note_off,103,0,0,,6,,,78,127
9693,note_off,0,0,0,,6,,,66,127
9695,note_on,2,0,0,,1,,,61,127
9695,note_on,0,0,0,,4,,,76,127
9798,note_off,103,0,0,,4,,,76,127
9800,note_on,2,0,0,,7,,,79,127
9903,note_off,103,0,0,,7,,,79,127
9903,note_off,0,0,0,,1,,,61,127
9905,note_on,2,0,0,,2,,,62,127
9905,note_on,0,0,0,,6,,,78,127
10008,note_off,103,0,0,,6,,,78,127
10010,note_on,2,0,0,,10,,,81,127
10113,note_off,103,0,0,,10,,,81,127
10113,note_off,0,0,0,,2,,,62,127
10115,note_on,2,0,0,,4,,,64,127
10115,note_on,0,0,0,,7,,,79,127
10218,note_off,103,0,0,,7,,,79,127
10220,note_on,2,0,0,,12,,,83,127
10323,note_off,103,0,0,,12,,,83,127
10323,note_off,0,0,0,,4,,,64,127
10325,note_on,2,0,0,,6,,,66,127
10325,note_on,0,0,0,,10,,,81,127
10428,note_off,103,0,0,,10,,,81,127
10430,note_on,2,0,0,,7,,,79,127
10533,note_off,103,0,0,,7,,,79,127
10533,note_off,0,0,0,,6,,,66,127
10535,note_on,2,0,0,,2,,,62,127
10535,note_on,0,0,0,,6,,,78,127
10638,note_off,103,0,0,,6,,,78,127
10640,note_on,2,0,0,,4,,,76,127
10743,note_off,103,0,0,,4,,,76,127
10743,note_off,0,0,0,,2,,,62,127
10745,note_on,2,0,0,,6,,,66,127
10745,note_on,0,0,0,,2,,,74,127
10848,note_off,103,0,0,,2,,,74,127
10850,note_on,2,0,0,,1,,,73,127
10953,note_off,103,0,0,,1,,,73,127
10953,note_off,0,0,0,,6,,,66,127
10955,note_on,2,0,0,,7,,,67,127
10955,note_on,0,0,0,,12,,,71,127
11058,note_off,103,0,0,,12,,,71,127
11060,note_on,2,0,0,,10,,,69,127
11163,note_off,103,0,0,,10,,,69,127
11163,note_off,0,0,0,,7,,,67,127
11165,note_on,2,0,0,,7,,,55,127
11165,note_on,0,0,0,,7,,,67,127
11268,note_off,103,0,0,,7,,,67,127
11270,note_on,2,0,0,,6,,,66,127
11373,note_off,103,0,0,,6,,,66,127
11373,note_off,0,0,0,,7,,,55,127
11375,note_on,2,0,0,,10,,,57,127
11375,note_on,0,0,0,,4,,,64,127
11478,note_off,103,0,0,,4,,,64,127
11480,note_on,2,0,0,,2,,,62,127
11583,note_off,103,0,0,,2,,,62,127
11585,note_on,2,0,0,,1,,,61,127
11688,note_off,103,0,0,,1,,,61,127
11688,note_off,0,0,0,,10,,,57,127
11692,note_on,4,0,0,,7,,,55,127
11694,note_on,2,0,0,,12,,,59,127
11794,note_off,100,0,0,,7,,,55,127
11796,note_off,2,0,0,,12,,,59,127
11800,note_on,4,0,0,,6,,,54,127
11800,note_on,0,0,0,,10,,,57,127
11903,note_off,103,0,0,,6,,,54,127
11907,note_on,4,0,0,,4,,,52,127
11957,note_off,50,0,0,,10,,,57,127
12003,note_off,46,0,0,,4,,,52,127
12020,note_on,17,0,0,,10,,,81,127
12020,note_on,0,0,0,,6,,,54,127
12125,note_on,105,0,0,,10,,,57,127
12138,note_off,13,0,0,,6,,,54,127
12227,note_off,89,0,0,,10,,,81,127
12229,note_on,2,0,0,,12,,,71,127
12229,note_on,0,0,0,,7,,,55,127
12242,note_off,13,0,0,,10,,,57,127
12334,note_on,92,0,0,,12,,,59,127
12347,note_off,13,0,0,,7,,,55,127
12436,note_off,89,0,0,,12,,,71,127
12438,note_on,2,0,0,,1,,,73,127
12438,note_on,0,0,0,,10,,,57,127
12451,note_off,13,0,0,,12,,,59,127
12543,note_on,92,0,0,,1,,,61,127
12556,note_off,13,0,0,,10,,,57,127
12645,note_off,89,0,0,,1,,,73,127
12647,note_on,2,0,0,,2,,,74,127
12647,note_on,0,0,0,,12,,,59,127
12660,note_off,13,0,0,,1,,,61,127
12752,note_on,92,0,0,,2,,,62,127
12765,note_off,13,0,0,,12,,,59,127
12854,note_off,89,0,0,,2,,,74,127
12856,note_on,2,0,0,,7,,,79,127
12856,note_on,0,0,0,,1,,,61,127
12869,note_off,13,0,0,,2,,,62,127
12961,note_on,92,0,0,,4,,,64,127
12974,note_off,13,0,0,,1,,,61,127
13063,note_off,89,0,0,,7,,,79,127
13065,note_on,2,0,0,,6,,,78,127
13065,note_on,0,0,0,,2,,,62,127
13078,note_off,13,0,0,,4,,,64,127
13170,note_on,92,0,0,,6,,,66,127
13183,note_off,13,0,0,,2,,,62,127
13272,note_off,89,0,0,,6,,,78,127
13274,note_on,2,0,0,,10,,,81,127
13274,note_on,0,0,0,,6,,,54,127
13287,note_off,13,0,0,,6,,,66,127
13370,note_off,83,0,0,,6,,,54,127
13379,note_on,9,0,0,,10,,,57,127
13475,note_off,96,0,0,,10,,,57,127
13482,note_off,7,0,0,,10,,,81,127
13484,note_on,2,0,0,,12,,,71,127
13484,note_on,0,0,0,,7,,,55,127
13580,note_off,96,0,0,,7,,,55,127
13589,note_on,9,0,0,,12,,,59,127
13685,note_off,96,0,0,,12,,,59,127
13692,note_off,7,0,0,,12,,,71,127
13694,note_on,2,0,0,,1,,,73,127
13694,note_on,0,0,0,,10,,,57,127
13790,note_off,96,0,0,,10,,,57,127
13799,note_on,9,0,0,,1,,,61,127
13895,note_off,96,0,0,,1,,,61,127
13902,note_off,7,0,0,,1,,,73,127
13904,note_on,2,0,0,,2,,,74,127
13904,note_on,0,0,0,,12,,,59,127
14000,note_off,96,0,0,,12,,,59,127
14009,note_on,9,0,0,,2,,,62,127
14105,note_off,96,0,0,,2,,,62,127
14112,note_off,7,0,0,,2,,,74,127
14114,note_on,2,0,0,,7,,,79,127
14114,note_on,0,0,0,,1,,,61,127
14210,note_off,96,0,0,,1,,,61,127
14219,note_on,9,0,0,,4,,,64,127
14315,note_off,96,0,0,,4,,,64,127
14322,note_off,7,0,0,,7,,,79,127
14324,note_on,2,0,0,,6,,,78,127
14324,note_on,0,0,0,,2,,,62,127
14420,note_off,96,0,0,,2,,,62,127
14429,note_on,9,0,0,,6,,,66,127
14525,note_off,96,0,0,,6,,,66,127
14532,note_off,7,0,0,,6,,,78,127
14534,note_on,2,0,0,,4,,,76,127
14534,note_on,0,0,0,,7,,,67,127
14639,note_on,105,0,0,,12,,,71,127
14652,note_off,13,0,0,,7,,,67,127
14741,note_off,89,0,0,,4,,,76,127
14743,note_on,2,0,0,,2,,,74,127
14743,note_on,0,0,0,,6,,,66,127
14756,note_off,13,0,0,,12,,,71,127
14848,note_on,92,0,0,,10,,,69,127
14861,note_off,13,0,0,,6,,,66,127
14950,note_off,89,0,0,,2,,,74,127
14952,note_on,2,0,0,,1,,,73,127
14952,note_on,0,0,0,,4,,,64,127
14965,note_off,13,0,0,,10,,,69,127
15057,note_on,92,0,0,,7,,,67,127
15070,note_off,13,0,0,,4,,,64,127
15159,note_off,89,0,0,,1,,,73,127
15161,note_on,2,0,0,,10,,,81,127
15161,note_on,0,0,0,,6,,,66,127
15174,note_off,13,0,0,,7,,,67,127
15266,note_on,92,0,0,,10,,,69,127
15279,note_off,13,0,0,,6,,,66,127
15368,note_off,89,0,0,,10,,,81,127
15370,note_on,2,0,0,,7,,,79,127
15370,note_on,0,0,0,,4,,,64,127
15383,note_off,13,0,0,,10,,,69,127
15475,note_on,92,0,0,,7,,,67,127
15488,note_off,13,0,0,,4,,,64,127
15577,note_off,89,0,0,,7,,,79,127
15579,note_on,2,0,0,,6,,,78,127
15579,note_on,0,0,0,,2,,,62,127
15592,note_off,13,0,0,,7,,,67,127
15684,note_on,92,0,0,,6,,,66,127
15697,note_off,13,0,0,,2,,,62,127
15786,note_off,89,0,0,,6,,,78,127
15788,note_on,2,0,0,,4,,,76,127
15788,note_on,0,0,0,,7,,,67,127
15801,note_off,13,0,0,,6,,,66,127
15884,note_off,83,0,0,,7,,,67,127
15893,note_on,9,0,0,,12,,,71,127
15989,note_off,96,0,0,,12,,,71,127
15996,note_off,7,0,0,,4,,,76,127
15998,note_on,2,0,0,,2,,,74,127
15998,note_on,0,0,0,,6,,,66,127
16094,note_off,96,0,0,,6,,,66,127
16103,note_on,9,0,0,,10,,,69,127
16199,note_off,96,0,0,,10,,,69,127
16206,note_off,7,0,0,,2,,,74,127
16208,note_on,2,0,0,,1,,,73,127
16208,note_on,0,0,0,,4,,,64,127
16304,note_off,96,0,0,,4,,,64,127
16313,note_on,9,0,0,,7,,,67,127
16409,note_off,96,0,0,,7,,,67,127
16416,note_off,7,0,0,,1,,,73,127
16418,note_on,2,0,0,,10,,,81,127
16418,note_on,0,0,0,,6,,,66,127
16514,note_off,96,0,0,,6,,,66,127
16523,note_on,9,0,0,,10,,,69,127
16619,note_off,96,0,0,,10,,,69,127
16626,note_off,7,0,0,,10,,,81,127
16628,note_on,2,0,0,,7,,,79,127
16628,note_on,0,0,0,,4,,,64,127
16724,note_off,96,0,0,,4,,,64,127
16733,note_on,9,0,0,,7,,,67,127
16829,note_off,96,0,0,,7,,,67,127
16836,note_off,7,0,0,,7,,,79,127
16838,note_on,2,0,0,,6,,,78,127
16838,note_on,0,0,0,,2,,,62,127
16934,note_off,96,0,0,,2,,,62,127
16943,note_on,9,0,0,,6,,,66,127
17039,note_off,96,0,0,,6,,,66,127
17046,note_off,7,0,0,,6,,,78,127
17048,note_on,2,0,0,,7,,,79,127
17048,note_on,0,0,0,,12,,,59,127
17153,note_on,105,0,0,,7,,,67,127
17166,note_off,13,0,0,,12,,,59,127
17255,note_off,89,0,0,,7,,,79,127
17257,note_on,2,0,0,,10,,,81,127
17257,note_on,0,0,0,,10,,,57,127
17270,note_off,13,0,0,,7,,,67,127
17362,note_on,92,0,0,,6,,,66,127
17375,note_off,13,0,0,,10,,,57,127
17464,note_off,89,0,0,,10,,,81,127
17466,note_on,2,0,0,,12,,,83,127
17466,note_on,0,0,0,,7,,,55,127
17479,note_off,13,0,0,,6,,,66,127
17571,note_on,92,0,0,,4,,,64,127
17584,note_off,13,0,0,,7,,,55,127
17673,note_off,89,0,0,,12,,,83,127
17675,note_on,2,0,0,,10,,,81,127
17675,note_on,0,0,0,,6,,,54,127
17688,note_off,13,0,0,,4,,,64,127
17780,note_on,92,0,0,,2,,,62,127
17793,note_off,13,0,0,,6,,,54,127
17882,note_off,89,0,0,,10,,,81,127
17884,note_on,2,0,0,,1,,,85,127
17884,note_on,0,0,0,,4,,,52,127
17897,note_off,13,0,0,,2,,,62,127
17989,note_on,92,0,0,,1,,,61,127
18002,note_off,13,0,0,,4,,,52,127
18091,note_off,89,0,0,,1,,,85,127
18093,note_on,2,0,0,,2,,,86,127
18093,note_on,0,0,0,,2,,,50,127
18106,note_off,13,0,0,,1,,,61,127
18198,note_on,92,0,0,,2,,,62,127
18211,note_off,13,0,0,,2,,,50,127
18300,note_off,89,0,0,,2,,,86,127
18302,note_on,2,0,0,,7,,,79,127
18302,note_on,0,0,0,,12,,,59,127
18315,note_off,13,0,0,,2,,,62,127
18398,note_off,83,0,0,,12,,,59,127
18407,note_on,9,0,0,,7,,,67,127
18503,note_off,96,0,0,,7,,,67,127
18510,note_off,7,0,0,,7,,,79,127
18512,note_on,2,0,0,,10,,,81,127
18512,note_on,0,0,0,,10,,,57,127
18608,note_off,96,0,0,,10,,,57,127
18617,note_on,9,0,0,,6,,,66,127
18713,note_off,96,0,0,,6,,,66,127
18720,note_off,7,0,0,,10,,,81,127
18722,note_on,2,0,0,,12,,,83,127
18722,note_on,0,0,0,,7,,,55,127
18818,note_off,96,0,0,,7,,,55,127
18827,note_on,9,0,0,,4,,,64,127
18923,note_off,96,0,0,,4,,,64,127
18930,note_off,7,0,0,,12,,,83,127
18932,note_on,2,0,0,,10,,,81,127
18932,note_on,0,0,0,,6,,,54,127
19028,note_off,96,0,0,,6,,,54,127
19037,note_on,9,0,0,,2,,,62,127
19133,note_off,96,0,0,,2,,,62,127
19140,note_off,7,0,0,,10,,,81,127
19142,note_on,2,0,0,,1,,,85,127
19142,note_on,0,0,0,,4,,,52,127
19238,note_off,96,0,0,,4,,,52,127
19247,note_on,9,0,0,,1,,,61,127
19343,note_off,96,0,0,,1,,,61,127
19350,note_off,7,0,0,,1,,,85,127
19352,note_on,2,0,0,,2,,,86,127
19352,note_on,0,0,0,,2,,,50,127
19448,note_off,96,0,0,,2,,,50,127
19457,note_on,9,0,0,,2,,,62,127
19553,note_off,96,0,0,,2,,,62,127
19562,note_on,9,0,0,,7,,,55,127
19665,note_off,103,0,0,,2,,,86,127
19667,note_on,2,0,0,,1,,,85,127
19770,note_off,103,0,0,,1,,,85,127
19772,note_on,2,0,0,,12,,,83,127
19875,note_off,103,0,0,,12,,,83,127
19877,note_on,2,0,0,,10,,,81,127
19980,note_off,103,0,0,,10,,,81,127
19982,note_on,2,0,0,,7,,,79,127
20085,note_off,103,0,0,,7,,,79,127
20087,note_on,2,0,0,,6,,,78,127
20190,note_off,103,0,0,,6,,,78,127
20190,note_off,0,0,0,,7,,,55,127
20192,note_on,2,0,0,,4,,,76,127
20192,note_on,0,0,0,,10,,,57,127
20295,note_off,103,0,0,,4,,,76,127
20297,note_on,2,0,0,,2,,,74,127
20400,note_off,103,0,0,,2,,,74,127
20402,note_on,2,0,0,,1,,,73,127
20505,note_off,103,0,0,,1,,,73,127
20505,note_off,0,0,0,,10,,,57,127
20507,note_on,2,0,0,,12,,,71,127
20507,note_on,0,0,0,,7,,,55,127
20610,note_off,103,0,0,,7,,,55,127
20610,note_off,0,0,0,,12,,,71,127
20612,note_on,2,0,0,,10,,,69,127
20612,note_on,0,0,0,,6,,,54,127
20715,note_off,103,0,0,,6,,,54,127
20717,note_on,2,0,0,,4,,,52,127
20820,note_off,103,0,0,,4,,,52,127
20820,note_off,0,0,0,,10,,,69,127
20822,note_on,2,0,0,,2,,,50,127
20925,note_off,103,0,0,,2,,,50,127
20927,note_on,2,0,0,,2,,,62,127
21030,note_off,103,0,0,,2,,,62,127
21032,note_on,2,0,0,,2,,,86,127
21032,note_on,0,0,0,,6,,,66,127
21135,note_off,103,0,0,,6,,,66,127
21137,note_on,2,0,0,,10,,,69,127
21240,note_off,103,0,0,,10,,,69,127
21240,note_off,0,0,0,,2,,,86,127
21242,note_on,2,0,0,,10,,,81,127
21242,note_on,0,0,0,,6,,,66,127
21345,note_off,103,0,0,,6,,,66,127
21347,note_on,2,0,0,,2,,,62,127
21450,note_off,103,0,0,,2,,,62,127
21452,note_on,2,0,0,,10,,,45,127
21555,note_off,103,0,0,,10,,,45,127
21557,note_on,2,0,0,,10,,,57,127
21660,note_off,103,0,0,,10,,,57,127
21660,note_off,0,0,0,,10,,,81,127
21662,note_on,2,0,0,,1,,,85,127
21662,note_on,0,0,0,,1,,,61,127
21765,note_off,103,0,0,,1,,,61,127
21765,note_off,0,0,0,,1,,,85,127
21767,note_on,2,0,0,,10,,,81,127
21767,note_on,0,0,0,,4,,,64,127
21870,note_off,103,0,0,,4,,,64,127
21870,note_off,0,0,0,,10,,,81,127
21872,note_on,2,0,0,,10,,,81,127
21872,note_on,0,0,0,,1,,,61,127
21975,note_off,103,0,0,,1,,,61,127
21975,note_off,0,0,0,,10,,,81,127
21977,note_on,2,0,0,,10,,,81,127
21977,note_on,0,0,0,,10,,,57,127
22080,note_off,103,0,0,,10,,,57,127
22080,note_off,0,0,0,,10,,,81,127
22082,note_on,2,0,0,,10,,,81,127
22082,note_on,0,0,0,,2,,,50,127
22185,note_off,103,0,0,,2,,,50,127
22187,note_on,2,0,0,,2,,,62,127
22290,note_off,103,0,0,,2,,,62,127
22290,note_off,0,0,0,,10,,,81,127
22292,note_on,2,0,0,,6,,,78,127
22292,note_on,0,0,0,,6,,,66,127
22395,note_off,103,0,0,,6,,,66,127
22397,note_on,2,0,0,,10,,,69,127
22500,note_off,103,0,0,,10,,,69,127
22500,note_off,0,0,0,,6,,,78,127
22502,note_on,2,0,0,,10,,,81,127
22502,note_on,0,0,0,,6,,,66,127
22605,note_off,103,0,0,,6,,,66,127
22607,note_on,2,0,0,,2,,,62,127
22710,note_off,103,0,0,,2,,,62,127
22712,note_on,2,0,0,,10,,,45,127
22815,note_off,103,0,0,,10,,,45,127
22817,note_on,2,0,0,,10,,,57,127
22920,note_off,103,0,0,,10,,,57,127
22920,note_off,0,0,0,,10,,,81,127
22922,note_on,2,0,0,,1,,,85,127
22922,note_on,0,0,0,,1,,,61,127
23025,note_off,103,0,0,,1,,,61,127
23025,note_off,0,0,0,,1,,,85,127
23027,note_on,2,0,0,,10,,,81,127
23027,note_on,0,0,0,,4,,,64,127
23130,note_off,103,0,0,,4,,,64,127
23130,note_off,0,0,0,,10,,,81,127
23132,note_on,2,0,0,,10,,,81,127
23132,note_on,0,0,0,,1,,,61,127
23235,note_off,103,0,0,,1,,,61,127
23235,note_off,0,0,0,,10,,,81,127
23237,note_on,2,0,0,,10,,,81,127
23237,note_on,0,0,0,,10,,,57,127
23340,note_off,103,0,0,,10,,,57,127
23340,note_off,0,0,0,,10,,,81,127
23342,note_on,2,0,0,,10,,,81,127
23342,note_on,0,0,0,,2,,,50,127
23445,note_off,103,0,0,,2,,,50,127
23447,note_on,2,0,0,,2,,,62,127
23550,note_off,103,0,0,,2,,,62,127
23550,note_off,0,0,0,,10,,,81,127
23552,note_on,2,0,0,,6,,,78,127
23552,note_on,0,0,0,,6,,,66,127
23655,note_off,103,0,0,,6,,,66,127
23657,note_on,2,0,0,,10,,,69,127
23760,note_off,103,0,0,,10,,,69,127
23760,note_off,0,0,0,,6,,,78,127
23762,note_on,2,0,0,,10,,,81,127
23762,note_on,0,0,0,,6,,,66,127
23865,note_off,103,0,0,,6,,,66,127
23867,note_on,2,0,0,,2,,,62,127
23970,note_off,103,0,0,,2,,,62,127
23972,note_on,2,0,0,,10,,,45,127
24075,note_off,103,0,0,,10,,,45,127
24077,note_on,2,0,0,,10,,,57,127
24180,note_off,103,0,0,,10,,,57,127
24180,note_off,0,0,0,,10,,,81,127
24182,note_on,2,0,0,,1,,,85,127
24182,note_on,0,0,0,,1,,,61,127
24285,note_off,103,0,0,,1,,,61,127
24285,note_off,0,0,0,,1,,,85,127
24287,note_on,2,0,0,,10,,,81,127
24287,note_on,0,0,0,,4,,,64,127
24390,note_off,103,0,0,,4,,,64,127
24390,note_off,0,0,0,,10,,,81,127
24392,note_on,2,0,0,,10,,,81,127
24392,note_on,0,0,0,,1,,,61,127
24495,note_off,103,0,0,,1,,,61,127
24495,note_off,0,0,0,,10,,,81,127
24497,note_on,2,0,0,,10,,,81,127
24497,note_on,0,0,0,,10,,,57,127
24600,note_off,103,0,0,,10,,,57,127
24600,note_off,0,0,0,,10,,,81,127
24602,note_on,2,0,0,,10,,,81,127
24602,note_on,0,0,0,,2,,,50,127
24809,note_off,207,0,0,,2,,,50,127
24809,note_off,0,0,0,,10,,,81,127
24811,note_on,2,0,0,,6,,,78,127
24811,note_on,0,0,0,,4,,,52,127
24914,note_off,103,0,0,,6,,,78,127
24916,note_on,2,0,0,,7,,,79,127
25019,note_off,103,0,0,,7,,,79,127
25019,note_off,0,0,0,,4,,,52,127
25021,note_on,2,0,0,,10,,,81,127
25021,note_on,0,0,0,,6,,,54,127
25124,note_off,103,0,0,,10,,,81,127
25126,note_on,2,0,0,,6,,,78,127
25229,note_off,103,0,0,,6,,,78,127
25229,note_off,0,0,0,,6,,,54,127
25231,note_on,2,0,0,,7,,,79,127
25231,note_on,0,0,0,,7,,,55,127
25334,note_off,103,0,0,,7,,,79,127
25336,note_on,2,0,0,,4,,,76,127
25439,note_off,103,0,0,,4,,,76,127
25439,note_off,0,0,0,,7,,,55,127
25441,note_on,2,0,0,,6,,,78,127
25441,note_on,0,0,0,,10,,,57,127
25544,note_off,103,0,0,,6,,,78,127
25546,note_on,2,0,0,,2,,,74,127
25649,note_off,103,0,0,,2,,,74,127
25651,note_on,2,0,0,,4,,,76,127
25651,note_on,0,0,0,,10,,,45,127
25754,note_off,103,0,0,,4,,,76,127
25756,note_off,2,0,0,,10,,,57,127
25756,note_on,0,0,0,,1,,,73,127
25859,note_off,103,0,0,,1,,,73,127
25859,note_off,0,0,0,,10,,,45,127
25861,note_on,2,0,0,,2,,,74,127
25861,note_on,0,0,0,,2,,,38,127
25964,note_off,103,0,0,,2,,,38,127
25966,note_on,2,0,0,,2,,,50,127
26069,note_off,103,0,0,,2,,,50,127
26071,note_on,2,0,0,,6,,,54,127
26174,note_off,103,0,0,,6,,,54,127
26176,note_off,2,0,0,,2,,,74,127
26176,note_on,0,0,0,,10,,,57,127
26279,note_off,103,0,0,,10,,,57,127
26281,note_on,2,0,0,,10,,,69,127
26281,note_on,0,0,0,,6,,,54,127
26384,note_off,103,0,0,,6,,,54,127
26386,note_on,2,0,0,,2,,,50,127
26489,note_off,103,0,0,,2,,,50,127
26491,note_on,2,0,0,,10,,,45,127
26594,note_off,103,0,0,,10,,,45,127
26596,note_on,2,0,0,,10,,,57,127
26699,note_off,103,0,0,,10,,,57,127
26699,note_off,0,0,0,,10,,,69,127
26701,note_on,2,0,0,,4,,,76,127
26701,note_on,0,0,0,,1,,,61,127
26804,note_off,103,0,0,,1,,,61,127
26804,note_off,0,0,0,,4,,,76,127
26806,note_on,2,0,0,,10,,,69,127
26806,note_on,0,0,0,,4,,,64,127
26909,note_off,103,0,0,,4,,,64,127
26909,note_off,0,0,0,,10,,,69,127
26911,note_on,2,0,0,,10,,,69,127
26911,note_on,0,0,0,,1,,,61,127
27014,note_off,103,0,0,,1,,,61,127
27014,note_off,0,0,0,,10,,,69,127
27016,note_on,2,0,0,,10,,,69,127
27016,note_on,0,0,0,,10,,,57,127
27119,note_off,103,0,0,,10,,,57,127
27119,note_off,0,0,0,,10,,,69,127
27121,note_on,2,0,0,,10,,,69,127
27121,note_on,0,0,0,,2,,,38,127
27224,note_off,103,0,0,,2,,,38,127
27226,note_on,2,0,0,,2,,,50,127
27329,note_off,103,0,0,,2,,,50,127
27329,note_off,0,0,0,,10,,,69,127
27331,note_on,2,0,0,,6,,,66,127
27331,note_on,0,0,0,,6,,,54,127
27434,note_off,103,0,0,,6,,,54,127
27436,note_on,2,0,0,,10,,,57,127
27539,note_off,103,0,0,,10,,,57,127
27539,note_off,0,0,0,,6,,,66,127
27541,note_on,2,0,0,,10,,,69,127
27541,note_on,0,0,0,,6,,,54,127
27644,note_off,103,0,0,,6,,,54,127
27646,note_on,2,0,0,,2,,,50,127
27749,note_off,103,0,0,,2,,,50,127
27751,note_on,2,0,0,,10,,,45,127
27854,note_off,103,0,0,,10,,,45,127
27856,note_on,2,0,0,,10,,,57,127
27959,note_off,103,0,0,,10,,,57,127
27959,note_off,0,0,0,,10,,,69,127
27961,note_on,2,0,0,,4,,,76,127
27961,note_on,0,0,0,,1,,,61,127
28064,note_off,103,0,0,,1,,,61,127
28064,note_off,0,0,0,,4,,,76,127
28066,note_on,2,0,0,,10,,,69,127
28066,note_on,0,0,0,,4,,,64,127
28169,note_off,103,0,0,,4,,,64,127
28169,note_off,0,0,0,,10,,,69,127
28171,note_on,2,0,0,,10,,,69,127
28171,note_on,0,0,0,,1,,,61,127
28274,note_off,103,0,0,,1,,,61,127
28274,note_off,0,0,0,,10,,,69,127
28276,note_on,2,0,0,,10,,,69,127
28276,note_on,0,0,0,,10,,,57,127
28379,note_off,103,0,0,,10,,,57,127
28379,note_off,0,0,0,,10,,,69,127
28381,note_on,2,0,0,,10,,,69,127
28381,note_on,0,0,0,,2,,,38,127
28484,note_off,103,0,0,,2,,,38,127
28486,note_on,2,0,0,,2,,,50,127
28589,note_off,103,0,0,,2,,,50,127
28589,note_off,0,0,0,,10,,,69,127
28591,note_on,2,0,0,,6,,,66,127
28591,note_on,0,0,0,,6,,,54,127
28694,note_off,103,0,0,,6,,,54,127
28696,note_on,2,0,0,,10,,,57,127
28799,note_off,103,0,0,,10,,,57,127
28799,note_off,0,0,0,,6,,,66,127
28801,note_on,2,0,0,,10,,,69,127
28801,note_on,0,0,0,,6,,,54,127
28904,note_off,103,0,0,,6,,,54,127
28906,note_on,2,0,0,,2,,,50,127
29009,note_off,103,0,0,,2,,,50,127
29011,note_on,2,0,0,,10,,,45,127
29114,note_off,103,0,0,,10,,,45,127
29116,note_on,2,0,0,,10,,,57,127
29219,note_off,103,0,0,,10,,,57,127
29219,note_off,0,0,0,,10,,,69,127
29221,note_on,2,0,0,,4,,,76,127
29221,note_on,0,0,0,,1,,,61,127
29324,note_off,103,0,0,,1,,,61,127
29324,note_off,0,0,0,,4,,,76,127
29326,note_on,2,0,0,,10,,,69,127
29326,note_on,0,0,0,,4,,,64,127
29429,note_off,103,0,0,,4,,,64,127
29429,note_off,0,0,0,,10,,,69,127
29431,note_on,2,0,0,,10,,,69,127
29431,note_on,0,0,0,,1,,,61,127
29534,note_off,103,0,0,,1,,,61,127
29534,note_off,0,0,0,,10,,,69,127
29536,note_on,2,0,0,,10,,,69,127
29536,note_on,0,0,0,,10,,,57,127
29639,note_off,103,0,0,,10,,,57,127
29639,note_off,0,0,0,,10,,,69,127
29641,note_on,2,0,0,,10,,,69,127
29641,note_on,0,0,0,,2,,,50,127
29848,note_off,207,0,0,,2,,,50,127
29848,note_off,0,0,0,,10,,,69,127
29850,note_on,2,0,0,,6,,,66,127
29850,note_on,0,0,0,,4,,,52,127
29953,note_off,103,0,0,,6,,,66,127
29955,note_on,2,0,0,,7,,,67,127
30058,note_off,103,0,0,,7,,,67,127
30058,note_off,0,0,0,,4,,,52,127
30060,note_on,2,0,0,,10,,,69,127
30060,note_on,0,0,0,,6,,,54,127
30163,note_off,103,0,0,,10,,,69,127
30165,note_on,2,0,0,,6,,,66,127
30268,note_off,103,0,0,,6,,,66,127
30268,note_off,0,0,0,,6,,,54,127
30270,note_on,2,0,0,,7,,,67,127
30270,note_on,0,0,0,,7,,,55,127
30373,note_off,103,0,0,,7,,,67,127
30375,note_on,2,0,0,,4,,,64,127
30478,note_off,103,0,0,,4,,,64,127
30478,note_off,0,0,0,,7,,,55,127
30480,note_on,2,0,0,,6,,,66,127
30480,note_on,0,0,0,,10,,,57,127
30583,note_off,103,0,0,,6,,,66,127
30585,note_on,2,0,0,,2,,,62,127
30688,note_off,103,0,0,,2,,,62,127
30690,note_on,2,0,0,,4,,,64,127
30690,note_on,0,0,0,,10,,,45,127
30803,note_on,113,0,0,,1,,,61,127
30807,note_off,4,0,0,,4,,,64,127
30905,note_off,98,0,0,,1,,,61,127
30907,note_off,2,0,0,,10,,,45,127
30916,note_off,9,0,0,,10,,,57,127
30925,note_on,9,0,0,,2,,,50,127
30925,note_on,0,0,0,,2,,,86,127
31028,note_off,103,0,0,,2,,,86,127
31030,note_on,2,0,0,,1,,,85,127
31133,note_off,103,0,0,,1,,,85,127
31133,note_off,0,0,0,,2,,,50,127
31135,note_on,2,0,0,,4,,,52,127
31135,note_on,0,0,0,,12,,,83,127
31238,note_off,103,0,0,,12,,,83,127
31240,note_on,2,0,0,,10,,,81,127
31343,note_off,103,0,0,,10,,,81,127
31343,note_off,0,0,0,,4,,,52,127
31345,note_on,2,0,0,,6,,,54,127
31345,note_on,0,0,0,,11,,,82,127
31448,note_off,103,0,0,,11,,,82,127
31450,note_on,2,0,0,,12,,,83,127
31553,note_off,103,0,0,,12,,,83,127
31553,note_off,0,0,0,,6,,,54,127
31555,note_on,2,0,0,,7,,,55,127
31555,note_on,0,0,0,,10,,,81,127
31658,note_off,103,0,0,,10,,,81,127
31660,note_on,2,0,0,,7,,,79,127
31763,note_off,103,0,0,,7,,,79,127
31763,note_off,0,0,0,,7,,,55,127
31765,note_on,2,0,0,,10,,,57,127
31765,note_on,0,0,0,,6,,,78,127
31868,note_off,103,0,0,,6,,,78,127
31870,note_on,2,0,0,,4,,,76,127
31973,note_off,103,0,0,,4,,,76,127
31975,note_on,2,0,0,,10,,,45,127
31975,note_on,0,0,0,,2,,,74,127
32078,note_off,103,0,0,,2,,,74,127
32080,note_on,2,0,0,,1,,,73,127
32180,note_off,100,0,0,,10,,,57,127
32182,note_off,2,0,0,,1,,,73,127
32182,note_off,0,0,0,,10,,,45,127
32184,note_on,2,0,0,,2,,,50,127
32184,note_on,0,0,0,,2,,,74,127
32287,note_off,103,0,0,,2,,,74,127
32289,note_on,2,0,0,,1,,,73,127
32392,note_off,103,0,0,,1,,,73,127
32392,note_off,0,0,0,,2,,,50,127
32394,note_on,2,0,0,,4,,,52,127
32394,note_on,0,0,0,,12,,,71,127
32497,note_off,103,0,0,,12,,,71,127
32499,note_on,2,0,0,,10,,,69,127
32602,note_off,103,0,0,,10,,,69,127
32602,note_off,0,0,0,,4,,,52,127
32604,note_on,2,0,0,,6,,,54,127
32604,note_on,0,0,0,,11,,,70,127
32707,note_off,103,0,0,,11,,,70,127
32709,note_on,2,0,0,,12,,,71,127
32812,note_off,103,0,0,,12,,,71,127
32812,note_off,0,0,0,,6,,,54,127
32814,note_on,2,0,0,,7,,,55,127
32814,note_on,0,0,0,,10,,,69,127
32917,note_off,103,0,0,,10,,,69,127
32919,note_on,2,0,0,,7,,,67,127
33022,note_off,103,0,0,,7,,,67,127
33022,note_off,0,0,0,,7,,,55,127
33024,note_on,2,0,0,,10,,,57,127
33024,note_on,0,0,0,,6,,,66,127
33127,note_off,103,0,0,,6,,,66,127
33129,note_on,2,0,0,,4,,,64,127
33232,note_off,103,0,0,,4,,,64,127
33234,note_on,2,0,0,,10,,,45,127
33234,note_on,0,0,0,,2,,,62,127
33337,note_off,103,0,0,,2,,,62,127
33339,note_off,2,0,0,,10,,,57,127
33339,note_on,0,0,0,,1,,,61,127
33442,note_off,103,0,0,,1,,,61,127
33442,note_off,0,0,0,,10,,,45,127
33444,note_on,2,0,0,,2,,,38,127
33444,note_on,0,0,0,,2,,,62,127
33547,note_off,103,0,0,,2,,,62,127
33549,note_on,2,0,0,,1,,,61,127
33652,note_off,103,0,0,,1,,,61,127
33652,note_off,0,0,0,,2,,,38,127
33654,note_on,2,0,0,,4,,,40,127
33654,note_on,0,0,0,,12,,,59,127
33757,note_off,103,0,0,,12,,,59,127
33759,note_on,2,0,0,,10,,,57,127
33862,note_off,103,0,0,,10,,,57,127
33862,note_off,0,0,0,,4,,,40,127
33864,note_on,2,0,0,,6,,,42,127
33864,note_on,0,0,0,,11,,,58,127
33967,note_off,103,0,0,,11,,,58,127
33969,note_on,2,0,0,,12,,,59,127
34072,note_off,103,0,0,,12,,,59,127
34072,note_off,0,0,0,,6,,,42,127
34074,note_on,2,0,0,,7,,,43,127
34074,note_on,0,0,0,,10,,,57,127
34177,note_off,103,0,0,,10,,,57,127
34179,note_on,2,0,0,,7,,,55,127
34282,note_off,103,0,0,,7,,,55,127
34282,note_off,0,0,0,,7,,,43,127
34284,note_on,2,0,0,,10,,,45,127
34284,note_on,0,0,0,,6,,,54,127
34387,note_off,103,0,0,,6,,,54,127
34389,note_on,2,0,0,,4,,,52,127
34492,note_off,103,0,0,,4,,,52,127
34492,note_off,0,0,0,,10,,,45,127
34494,note_on,2,0,0,,10,,,33,127
34494,note_on,0,0,0,,2,,,50,127
34597,note_off,103,0,0,,2,,,50,127
34599,note_on,2,0,0,,1,,,49,127
34702,note_off,103,0,0,,1,,,49,127
34702,note_off,0,0,0,,10,,,33,127
34704,note_on,2,0,0,,2,,,38,127
34704,note_on,0,0,0,,1,,,49,127
35134,note_off,430,0,0,,1,,,49,127
35146,note_on,12,0,0,,2,,,50,127
35323,note_off,177,0,0,,2,,,38,127
35394,note_off,71,0,0,,2,,,50,127
35438,note_on,44,0,0,,2,,,50,127
35438,note_on,0,0,0,,7,,,79,127
35506,note_off,68,0,0,,7,,,79,127
35508,note_on,2,0,0,,6,,,78,127
35541,note_off,33,0,0,,2,,,50,127
35543,note_on,2,0,0,,1,,,49,127
35576,note_off,33,0,0,,6,,,78,127
35578,note_on,2,0,0,,7,,,79,127
35646,note_off,68,0,0,,7,,,79,127
35646,note_off,0,0,0,,1,,,49,127
35648,note_on,2,0,0,,2,,,50,127
35648,note_on,0,0,0,,6,,,78,127
35751,note_off,103,0,0,,2,,,50,127
35753,note_on,2,0,0,,4,,,52,127
35856,note_off,103,0,0,,4,,,52,127
35858,note_on,2,0,0,,6,,,54,127
35961,note_off,103,0,0,,6,,,54,127
35963,note_on,2,0,0,,7,,,55,127
36066,note_off,103,0,0,,7,,,55,127
36066,note_off,0,0,0,,6,,,78,127
36068,note_on,2,0,0,,10,,,57,127
36068,note_on,0,0,0,,6,,,78,127
36136,note_off,68,0,0,,6,,,78,127
36138,note_on,2,0,0,,4,,,76,127
36171,note_off,33,0,0,,10,,,57,127
36173,note_on,2,0,0,,8,,,56,127
36206,note_off,33,0,0,,4,,,76,127
36208,note_on,2,0,0,,6,,,78,127
36276,note_off,68,0,0,,6,,,78,127
36276,note_off,0,0,0,,8,,,56,127
36278,note_on,2,0,0,,10,,,57,127
36278,note_on,0,0,0,,4,,,76,127
36381,note_off,103,0,0,,10,,,57,127
36383,note_on,2,0,0,,12,,,59,127
36486,note_off,103,0,0,,12,,,59,127
36488,note_on,2,0,0,,1,,,61,127
36591,note_off,103,0,0,,1,,,61,127
36593,note_on,2,0,0,,10,,,57,127
36696,note_off,103,0,0,,10,,,57,127
36696,note_off,0,0,0,,4,,,76,127
36698,note_on,2,0,0,,2,,,62,127
36698,note_on,0,0,0,,4,,,76,127
36766,note_off,68,0,0,,4,,,76,127
36768,note_on,2,0,0,,2,,,74,127
36801,note_off,33,0,0,,2,,,62,127
36803,note_on,2,0,0,,1,,,61,127
36836,note_off,33,0,0,,2,,,74,127
36838,note_on,2,0,0,,4,,,76,127
36906,note_off,68,0,0,,4,,,76,127
36906,note_off,0,0,0,,1,,,61,127
36908,note_on,2,0,0,,2,,,62,127
36908,note_on,0,0,0,,2,,,74,127
37011,note_off,103,0,0,,2,,,62,127
37013,note_on,2,0,0,,4,,,64,127
37116,note_off,103,0,0,,4,,,64,127
37118,note_on,2,0,0,,6,,,66,127
37221,note_off,103,0,0,,6,,,66,127
37223,note_on,2,0,0,,7,,,67,127
37326,note_off,103,0,0,,7,,,67,127
37326,note_off,0,0,0,,2,,,74,127
37328,note_on,2,0,0,,10,,,69,127
37328,note_on,0,0,0,,1,,,73,127
37431,note_off,103,0,0,,1,,,73,127
37433,note_on,2,0,0,,2,,,74,127
37536,note_off,103,0,0,,2,,,74,127
37538,note_on,2,0,0,,4,,,76,127
37641,note_off,103,0,0,,4,,,76,127
37643,note_off,2,0,0,,10,,,69,127
37643,note_on,0,0,0,,6,,,78,127
37746,note_off,103,0,0,,6,,,78,127
37748,note_on,2,0,0,,7,,,79,127
37851,note_off,103,0,0,,7,,,79,127
37853,note_on,2,0,0,,10,,,81,127
37973,note_off,120,0,0,,10,,,81,127
37975,note_on,2,0,0,,7,,,79,127
37975,note_on,0,0,0,,4,,,52,127
38043,note_off,68,0,0,,7,,,79,127
38045,note_on,2,0,0,,10,,,81,127
38078,note_off,33,0,0,,4,,,52,127
38080,note_on,2,0,0,,3,,,51,127
38113,note_off,33,0,0,,10,,,81,127
38115,note_on,2,0,0,,7,,,79,127
38183,note_off,68,0,0,,3,,,51,127
38185,note_on,2,0,0,,4,,,52,127
38288,note_off,103,0,0,,4,,,52,127
38290,note_on,2,0,0,,6,,,54,127
38393,note_off,103,0,0,,6,,,54,127
38395,note_on,2,0,0,,7,,,55,127
38498,note_off,103,0,0,,7,,,55,127
38500,note_on,2,0,0,,10,,,57,127
38603,note_off,103,0,0,,10,,,57,127
38603,note_off,0,0,0,,7,,,79,127
38605,note_on,2,0,0,,7,,,79,127
38605,note_on,0,0,0,,12,,,59,127
38673,note_off,68,0,0,,7,,,79,127
38675,note_on,2,0,0,,6,,,78,127
38708,note_off,33,0,0,,12,,,59,127
38710,note_on,2,0,0,,10,,,57,127
38743,note_off,33,0,0,,6,,,78,127
38745,note_on,2,0,0,,7,,,79,127
38813,note_off,68,0,0,,7,,,79,127
38813,note_off,0,0,0,,10,,,57,127
38815,note_on,2,0,0,,6,,,78,127
38815,note_on,0,0,0,,12,,,59,127
38918,note_off,103,0,0,,12,,,59,127
38920,note_on,2,0,0,,1,,,61,127
39023,note_off,103,0,0,,1,,,61,127
39025,note_on,2,0,0,,3,,,63,127
39128,note_off,103,0,0,,3,,,63,127
39130,note_on,2,0,0,,12,,,59,127
39233,note_off,103,0,0,,12,,,59,127
39233,note_off,0,0,0,,6,,,78,127
39235,note_on,2,0,0,,6,,,78,127
39235,note_on,0,0,0,,4,,,64,127
39303,note_off,68,0,0,,6,,,78,127
39305,note_on,2,0,0,,4,,,76,127
39338,note_off,33,0,0,,4,,,64,127
39340,note_on,2,0,0,,3,,,63,127
39373,note_off,33,0,0,,4,,,76,127
39375,note_on,2,0,0,,6,,,78,127
39443,note_off,68,0,0,,6,,,78,127
39443,note_off,0,0,0,,3,,,63,127
39445,note_on,2,0,0,,4,,,76,127
39445,note_on,0,0,0,,4,,,64,127
39548,note_off,103,0,0,,4,,,64,127
39550,note_on,2,0,0,,6,,,66,127
39653,note_off,103,0,0,,6,,,66,127
39655,note_on,2,0,0,,7,,,67,127
39758,note_off,103,0,0,,7,,,67,127
39760,note_on,2,0,0,,10,,,69,127
39863,note_off,103,0,0,,10,,,69,127
39863,note_off,0,0,0,,4,,,76,127
39865,note_on,2,0,0,,3,,,75,127
39865,note_on,0,0,0,,12,,,71,127
39968,note_off,103,0,0,,3,,,75,127
39970,note_on,2,0,0,,4,,,76,127
40073,note_off,103,0,0,,4,,,76,127
40075,note_on,2,0,0,,6,,,78,127
40178,note_off,103,0,0,,6,,,78,127
40180,note_on,2,0,0,,7,,,79,127
40283,note_off,103,0,0,,7,,,79,127
40283,note_off,0,0,0,,12,,,71,127
40285,note_on,2,0,0,,10,,,81,127
40285,note_on,0,0,0,,10,,,69,127
40388,note_off,103,0,0,,10,,,81,127
40390,note_on,2,0,0,,6,,,78,127
40503,note_off,113,0,0,,10,,,69,127
40505,note_off,2,0,0,,6,,,78,127
40512,note_on,7,0,0,,8,,,68,127
40512,note_on,0,0,0,,2,,,86,127
40617,note_on,105,0,0,,12,,,71,127
40630,note_off,13,0,0,,8,,,68,127
40719,note_off,89,0,0,,2,,,86,127
40721,note_on,2,0,0,,10,,,69,127
40721,note_on,0,0,0,,0,,,84,127
40734,note_off,13,0,0,,12,,,71,127
40826,note_on,92,0,0,,0,,,72,127
40839,note_off,13,0,0,,10,,,69,127
40928,note_off,89,0,0,,0,,,84,127
40930,note_on,2,0,0,,12,,,71,127
40930,note_on,0,0,0,,12,,,83,127
40943,note_off,13,0,0,,0,,,72,127
41035,note_on,92,0,0,,2,,,74,127
41048,note_off,13,0,0,,12,,,71,127
41137,note_off,89,0,0,,12,,,83,127
41139,note_on,2,0,0,,0,,,72,127
41139,note_on,0,0,0,,10,,,81,127
41152,note_off,13,0,0,,2,,,74,127
41244,note_on,92,0,0,,4,,,76,127
41257,note_off,13,0,0,,0,,,72,127
41346,note_off,89,0,0,,10,,,81,127
41348,note_on,2,0,0,,12,,,71,127
41348,note_on,0,0,0,,8,,,80,127
41361,note_off,13,0,0,,4,,,76,127
41453,note_on,92,0,0,,2,,,74,127
41466,note_off,13,0,0,,12,,,71,127
41555,note_off,89,0,0,,8,,,80,127
41557,note_on,2,0,0,,10,,,69,127
41557,note_on,0,0,0,,10,,,81,127
41570,note_off,13,0,0,,2,,,74,127
41662,note_on,92,0,0,,0,,,72,127
41675,note_off,13,0,0,,10,,,69,127
41764,note_off,89,0,0,,10,,,81,127
41766,note_on,2,0,0,,8,,,68,127
41766,note_on,0,0,0,,2,,,86,127
41779,note_off,13,0,0,,0,,,72,127
41862,note_off,83,0,0,,8,,,68,127
41871,note_on,9,0,0,,12,,,71,127
41967,note_off,96,0,0,,12,,,71,127
41974,note_off,7,0,0,,2,,,86,127
41976,note_on,2,0,0,,10,,,69,127
41976,note_on,0,0,0,,0,,,84,127
42072,note_off,96,0,0,,10,,,69,127
42081,note_on,9,0,0,,0,,,72,127
42177,note_off,96,0,0,,0,,,72,127
42184,note_off,7,0,0,,0,,,84,127
42186,note_on,2,0,0,,12,,,71,127
42186,note_on,0,0,0,,12,,,83,127
42282,note_off,96,0,0,,12,,,71,127
42291,note_on,9,0,0,,2,,,74,127
42387,note_off,96,0,0,,2,,,74,127
42394,note_off,7,0,0,,12,,,83,127
42396,note_on,2,0,0,,0,,,72,127
42396,note_on,0,0,0,,10,,,81,127
42492,note_off,96,0,0,,0,,,72,127
42501,note_on,9,0,0,,4,,,76,127
42597,note_off,96,0,0,,4,,,76,127
42604,note_off,7,0,0,,10,,,81,127
42606,note_on,2,0,0,,12,,,71,127
42606,note_on,0,0,0,,8,,,80,127
42702,note_off,96,0,0,,12,,,71,127
42711,note_on,9,0,0,,2,,,74,127
42807,note_off,96,0,0,,2,,,74,127
42814,note_off,7,0,0,,8,,,80,127
42816,note_on,2,0,0,,10,,,69,127
42816,note_on,0,0,0,,10,,,81,127
42912,note_off,96,0,0,,10,,,69,127
42921,note_on,9,0,0,,0,,,72,127
43039,note_off,118,0,0,,0,,,72,127
43039,note_off,0,0,0,,10,,,81,127
43043,note_on,4,0,0,,0,,,84,127
43043,note_on,0,0,0,,6,,,66,127
43148,note_on,105,0,0,,10,,,69,127
43161,note_off,13,0,0,,6,,,66,127
43250,note_off,89,0,0,,0,,,84,127
43252,note_on,2,0,0,,11,,,82,127
43252,note_on,0,0,0,,7,,,67,127
43265,note_off,13,0,0,,10,,,69,127
43357,note_on,92,0,0,,11,,,70,127
43370,note_off,13,0,0,,7,,,67,127
43459,note_off,89,0,0,,11,,,82,127
43461,note_on,2,0,0,,10,,,81,127
43461,note_on,0,0,0,,10,,,69,127
43474,note_off,13,0,0,,11,,,70,127
43566,note_on,92,0,0,,0,,,72,127
43579,note_off,13,0,0,,10,,,69,127
43668,note_off,89,0,0,,10,,,81,127
43670,note_on,2,0,0,,7,,,79,127
43670,note_on,0,0,0,,11,,,70,127
43683,note_off,13,0,0,,0,,,72,127
43775,note_on,92,0,0,,2,,,74,127
43788,note_off,13,0,0,,11,,,70,127
43877,note_off,89,0,0,,7,,,79,127
43879,note_on,2,0,0,,6,,,78,127
43879,note_on,0,0,0,,10,,,69,127
43892,note_off,13,0,0,,2,,,74,127
43984,note_on,92,0,0,,0,,,72,127
43997,note_off,13,0,0,,10,,,69,127
44086,note_off,89,0,0,,6,,,78,127
44088,note_on,2,0,0,,7,,,79,127
44088,note_on,0,0,0,,7,,,67,127
44101,note_off,13,0,0,,0,,,72,127
44193,note_on,92,0,0,,11,,,70,127
44206,note_off,13,0,0,,7,,,67,127
44295,note_off,89,0,0,,7,,,79,127
44297,note_on,2,0,0,,0,,,84,127
44297,note_on,0,0,0,,6,,,66,127
44310,note_off,13,0,0,,11,,,70,127
44393,note_off,83,0,0,,6,,,66,127
44402,note_on,9,0,0,,10,,,69,127
44498,note_off,96,0,0,,10,,,69,127
44505,note_off,7,0,0,,0,,,84,127
44507,note_on,2,0,0,,11,,,82,127
44507,note_on,0,0,0,,7,,,67,127
44603,note_off,96,0,0,,7,,,67,127
44612,note_on,9,0,0,,11,,,70,127
44708,note_off,96,0,0,,11,,,70,127
44715,note_off,7,0,0,,11,,,82,127
44717,note_on,2,0,0,,10,,,81,127
44717,note_on,0,0,0,,10,,,69,127
44813,note_off,96,0,0,,10,,,69,127
44822,note_on,9,0,0,,0,,,72,127
44918,note_off,96,0,0,,0,,,72,127
44925,note_off,7,0,0,,10,,,81,127
44927,note_on,2,0,0,,7,,,79,127
44927,note_on,0,0,0,,11,,,70,127
45023,note_off,96,0,0,,11,,,70,127
45032,note_on,9,0,0,,2,,,74,127
45128,note_off,96,0,0,,2,,,74,127
45135,note_off,7,0,0,,7,,,79,127
45137,note_on,2,0,0,,6,,,78,127
45137,note_on,0,0,0,,10,,,69,127
45233,note_off,96,0,0,,10,,,69,127
45242,note_on,9,0,0,,0,,,72,127
45338,note_off,96,0,0,,0,,,72,127
45345,note_off,7,0,0,,6,,,78,127
45347,note_on,2,0,0,,7,,,79,127
45347,note_on,0,0,0,,7,,,67,127
45443,note_off,96,0,0,,7,,,67,127
45452,note_on,9,0,0,,11,,,70,127
45567,note_off,115,0,0,,11,,,70,127
45569,note_off,2,0,0,,7,,,79,127
45574,note_on,5,0,0,,1,,,61,127
45574,note_on,0,0,0,,11,,,82,127
45679,note_on,105,0,0,,4,,,64,127
45692,note_off,13,0,0,,1,,,61,127
45781,note_off,89,0,0,,11,,,82,127
45783,note_on,2,0,0,,2,,,62,127
45783,note_on,0,0,0,,10,,,81,127
45796,note_off,13,0,0,,4,,,64,127
45888,note_on,92,0,0,,5,,,65,127
45901,note_off,13,0,0,,2,,,62,127
45990,note_off,89,0,0,,10,,,81,127
45992,note_on,2,0,0,,4,,,64,127
45992,note_on,0,0,0,,1,,,73,127
46005,note_off,13,0,0,,5,,,65,127
46097,note_on,92,0,0,,7,,,67,127
46110,note_off,13,0,0,,4,,,64,127
46199,note_off,89,0,0,,1,,,73,127
46201,note_on,2,0,0,,5,,,65,127
46201,note_on,0,0,0,,2,,,74,127
46214,note_off,13,0,0,,7,,,67,127
46306,note_on,92,0,0,,10,,,69,127
46319,note_off,13,0,0,,5,,,65,127
46408,note_off,89,0,0,,2,,,74,127
46410,note_on,2,0,0,,4,,,64,127
46410,note_on,0,0,0,,4,,,76,127
46423,note_off,13,0,0,,10,,,69,127
46515,note_on,92,0,0,,7,,,67,127
46528,note_off,13,0,0,,4,,,64,127
46617,note_off,89,0,0,,4,,,76,127
46619,note_on,2,0,0,,2,,,62,127
46619,note_on,0,0,0,,5,,,77,127
46632,note_off,13,0,0,,7,,,67,127
46724,note_on,92,0,0,,5,,,65,127
46737,note_off,13,0,0,,2,,,62,127
46826,note_off,89,0,0,,5,,,77,127
46828,note_on,2,0,0,,1,,,61,127
46828,note_on,0,0,0,,11,,,82,127
46841,note_off,13,0,0,,5,,,65,127
46924,note_off,83,0,0,,1,,,61,127
46933,note_on,9,0,0,,4,,,64,127
47029,note_off,96,0,0,,4,,,64,127
47036,note_off,7,0,0,,11,,,82,127
47038,note_on,2,0,0,,2,,,62,127
47038,note_on,0,0,0,,10,,,81,127
47134,note_off,96,0,0,,2,,,62,127
47143,note_on,9,0,0,,5,,,65,127
47239,note_off,96,0,0,,5,,,65,127
47246,note_off,7,0,0,,10,,,81,127
47248,note_on,2,0,0,,4,,,64,127
47248,note_on,0,0,0,,1,,,73,127
47344,note_off,96,0,0,,4,,,64,127
47353,note_on,9,0,0,,7,,,67,127
47449,note_off,96,0,0,,7,,,67,127
47456,note_off,7,0,0,,1,,,73,127
47458,note_on,2,0,0,,5,,,65,127
47458,note_on,0,0,0,,2,,,74,127
47554,note_off,96,0,0,,5,,,65,127
47563,note_on,9,0,0,,10,,,69,127
47659,note_off,96,0,0,,10,,,69,127
47666,note_off,7,0,0,,2,,,74,127
47668,note_on,2,0,0,,4,,,64,127
47668,note_on,0,0,0,,4,,,76,127
47764,note_off,96,0,0,,4,,,64,127
47773,note_on,9,0,0,,7,,,67,127
47869,note_off,96,0,0,,7,,,67,127
47876,note_off,7,0,0,,4,,,76,127
47878,note_on,2,0,0,,2,,,62,127
47878,note_on,0,0,0,,5,,,77,127
47974,note_off,96,0,0,,2,,,62,127
47983,note_on,9,0,0,,5,,,65,127
48079,note_off,96,0,0,,5,,,65,127
48086,note_off,7,0,0,,5,,,77,127
48088,note_on,2,0,0,,12,,,59,127
48088,note_on,0,0,0,,10,,,81,127
48193,note_on,105,0,0,,2,,,62,127
48206,note_off,13,0,0,,12,,,59,127
48295,note_off,89,0,0,,10,,,81,127
48297,note_on,2,0,0,,0,,,60,127
48297,note_on,0,0,0,,7,,,79,127
48310,note_off,13,0,0,,2,,,62,127
48402,note_on,92,0,0,,4,,,64,127
48415,note_off,13,0,0,,0,,,60,127
48504,note_off,89,0,0,,7,,,79,127
48506,note_on,2,0,0,,2,,,62,127
48506,note_on,0,0,0,,12,,,71,127
48519,note_off,13,0,0,,4,,,64,127
48611,note_on,92,0,0,,5,,,65,127
48624,note_off,13,0,0,,2,,,62,127
48713,note_off,89,0,0,,12,,,71,127
48715,note_on,2,0,0,,4,,,64,127
48715,note_on,0,0,0,,0,,,72,127
48728,note_off,13,0,0,,5,,,65,127
48820,note_on,92,0,0,,7,,,67,127
48833,note_off,13,0,0,,4,,,64,127
48922,note_off,89,0,0,,0,,,72,127
48924,note_on,2,0,0,,2,,,62,127
48924,note_on,0,0,0,,2,,,74,127
48937,note_off,13,0,0,,7,,,67,127
49029,note_on,92,0,0,,5,,,65,127
49042,note_off,13,0,0,,2,,,62,127
49131,note_off,89,0,0,,2,,,74,127
49133,note_on,2,0,0,,0,,,60,127
49133,note_on,0,0,0,,4,,,76,127
49146,note_off,13,0,0,,5,,,65,127
49238,note_on,92,0,0,,4,,,64,127
49251,note_off,13,0,0,,0,,,60,127
49340,note_off,89,0,0,,4,,,76,127
49342,note_on,2,0,0,,12,,,59,127
49342,note_on,0,0,0,,10,,,81,127
49355,note_off,13,0,0,,4,,,64,127
49438,note_off,83,0,0,,12,,,59,127
49447,note_on,9,0,0,,2,,,62,127
49543,note_off,96,0,0,,2,,,62,127
49550,note_off,7,0,0,,10,,,81,127
49552,note_on,2,0,0,,0,,,60,127
49552,note_on,0,0,0,,7,,,79,127
49648,note_off,96,0,0,,0,,,60,127
49657,note_on,9,0,0,,4,,,64,127
49753,note_off,96,0,0,,4,,,64,127
49760,note_off,7,0,0,,7,,,79,127
49762,note_on,2,0,0,,2,,,62,127
49762,note_on,0,0,0,,12,,,71,127
49858,note_off,96,0,0,,2,,,62,127
49867,note_on,9,0,0,,5,,,65,127
49963,note_off,96,0,0,,5,,,65,127
49970,note_off,7,0,0,,12,,,71,127
49972,note_on,2,0,0,,4,,,64,127
49972,note_on,0,0,0,,0,,,72,127
50068,note_off,96,0,0,,4,,,64,127
50077,note_on,9,0,0,,7,,,67,127
50173,note_off,96,0,0,,7,,,67,127
50180,note_off,7,0,0,,0,,,72,127
50182,note_on,2,0,0,,2,,,62,127
50182,note_on,0,0,0,,2,,,74,127
50278,note_off,96,0,0,,2,,,62,127
50287,note_on,9,0,0,,5,,,65,127
50383,note_off,96,0,0,,5,,,65,127
50390,note_off,7,0,0,,2,,,74,127
50392,note_on,2,0,0,,0,,,60,127
50392,note_on,0,0,0,,4,,,76,127
50488,note_off,96,0,0,,0,,,60,127
50497,note_on,9,0,0,,4,,,64,127
50593,note_off,96,0,0,,4,,,64,127
50600,note_off,7,0,0,,4,,,76,127
50602,note_on,2,0,0,,2,,,62,127
50602,note_on,0,0,0,,6,,,78,127
50705,note_off,103,0,0,,2,,,62,127
50707,note_on,2,0,0,,6,,,66,127
50810,note_off,103,0,0,,6,,,66,127
50810,note_off,0,0,0,,6,,,78,127
50812,note_on,2,0,0,,4,,,64,127
50812,note_on,0,0,0,,7,,,79,127
50915,note_off,103,0,0,,4,,,64,127
50917,note_on,2,0,0,,7,,,67,127
51020,note_off,103,0,0,,7,,,67,127
51020,note_off,0,0,0,,7,,,79,127
51022,note_on,2,0,0,,6,,,66,127
51022,note_on,0,0,0,,10,,,81,127
51125,note_off,103,0,0,,6,,,66,127
51127,note_on,2,0,0,,10,,,69,127
51230,note_off,103,0,0,,10,,,69,127
51230,note_off,0,0,0,,10,,,81,127
51232,note_on,2,0,0,,7,,,55,127
51232,note_on,0,0,0,,12,,,83,127
51335,note_off,103,0,0,,7,,,55,127
51337,note_on,2,0,0,,7,,,67,127
51440,note_off,103,0,0,,7,,,67,127
51440,note_off,0,0,0,,12,,,83,127
51442,note_on,2,0,0,,6,,,54,127
51442,note_on,0,0,0,,10,,,81,127
51545,note_off,103,0,0,,6,,,54,127
51547,note_on,2,0,0,,6,,,66,127
51650,note_off,103,0,0,,6,,,66,127
51650,note_off,0,0,0,,10,,,81,127
51652,note_on,2,0,0,,4,,,52,127
51652,note_on,0,0,0,,7,,,79,127
51755,note_off,103,0,0,,4,,,52,127
51757,note_on,2,0,0,,4,,,64,127
51860,note_off,103,0,0,,4,,,64,127
51860,note_off,0,0,0,,7,,,79,127
51862,note_on,2,0,0,,2,,,50,127
51862,note_on,0,0,0,,6,,,78,127
51965,note_off,103,0,0,,2,,,50,127
51967,note_on,2,0,0,,2,,,62,127
52070,note_off,103,0,0,,2,,,62,127
52070,note_off,0,0,0,,6,,,78,127
52072,note_on,2,0,0,,0,,,48,127
52072,note_on,0,0,0,,4,,,76,127
52175,note_off,103,0,0,,0,,,48,127
52177,note_on,2,0,0,,0,,,60,127
52280,note_off,103,0,0,,0,,,60,127
52280,note_off,0,0,0,,4,,,76,127
52282,note_on,2,0,0,,12,,,47,127
52282,note_on,0,0,0,,2,,,74,127
52385,note_off,103,0,0,,12,,,47,127
52387,note_on,2,0,0,,12,,,59,127
52490,note_off,103,0,0,,12,,,59,127
52490,note_off,0,0,0,,2,,,74,127
52492,note_on,2,0,0,,10,,,45,127
52492,note_on,0,0,0,,0,,,72,127
52595,note_off,103,0,0,,10,,,45,127
52597,note_on,2,0,0,,10,,,57,127
52700,note_off,103,0,0,,10,,,57,127
52700,note_off,0,0,0,,0,,,72,127
52702,note_on,2,0,0,,7,,,43,127
52702,note_on,0,0,0,,12,,,71,127
52805,note_off,103,0,0,,7,,,43,127
52807,note_on,2,0,0,,7,,,55,127
52910,note_off,103,0,0,,7,,,55,127
52910,note_off,0,0,0,,12,,,71,127
52912,note_on,2,0,0,,6,,,42,127
52912,note_on,0,0,0,,10,,,69,127
53015,note_off,103,0,0,,6,,,42,127
53017,note_on,2,0,0,,6,,,54,127
53120,note_off,103,0,0,,6,,,54,127
53120,note_off,0,0,0,,10,,,69,127
53122,note_on,2,0,0,,7,,,43,127
53122,note_on,0,0,0,,12,,,71,127
53225,note_off,103,0,0,,7,,,43,127
53227,note_on,2,0,0,,7,,,55,127
53330,note_off,103,0,0,,7,,,55,127
53330,note_off,0,0,0,,12,,,71,127
53332,note_on,2,0,0,,6,,,42,127
53332,note_on,0,0,0,,10,,,69,127
53435,note_off,103,0,0,,6,,,42,127
53437,note_on,2,0,0,,6,,,54,127
53540,note_off,103,0,0,,6,,,54,127
53540,note_off,0,0,0,,10,,,69,127
53542,note_on,2,0,0,,4,,,40,127
53542,note_on,0,0,0,,7,,,67,127
53645,note_off,103,0,0,,4,,,40,127
53647,note_on,2,0,0,,4,,,52,127
53750,note_off,103,0,0,,4,,,52,127
53750,note_off,0,0,0,,7,,,67,127
53752,note_on,2,0,0,,2,,,38,127
53752,note_on,0,0,0,,4,,,76,127
53820,note_off,68,0,0,,4,,,76,127
53822,note_on,2,0,0,,2,,,74,127
53855,note_off,33,0,0,,2,,,38,127
53857,note_on,2,0,0,,2,,,50,127
53890,note_off,33,0,0,,2,,,74,127
53892,note_on,2,0,0,,4,,,76,127
53960,note_off,68,0,0,,4,,,76,127
53960,note_off,0,0,0,,2,,,50,127
53962,note_on,2,0,0,,6,,,54,127
53962,note_on,0,0,0,,2,,,74,127
54065,note_off,103,0,0,,6,,,54,127
54067,note_on,2,0,0,,10,,,57,127
54170,note_off,103,0,0,,10,,,57,127
54172,note_on,2,0,0,,6,,,54,127
54275,note_off,103,0,0,,6,,,54,127
54277,note_on,2,0,0,,2,,,50,127
54380,note_off,103,0,0,,2,,,50,127
54382,note_on,2,0,0,,7,,,43,127
54485,note_off,103,0,0,,7,,,43,127
54487,note_on,2,0,0,,7,,,55,127
54590,note_off,103,0,0,,7,,,55,127
54590,note_off,0,0,0,,2,,,74,127
54592,note_on,2,0,0,,12,,,59,127
54592,note_on,0,0,0,,2,,,86,127
54695,note_off,103,0,0,,12,,,59,127
54697,note_on,2,0,0,,2,,,62,127
54800,note_off,103,0,0,,2,,,62,127
54800,note_off,0,0,0,,2,,,86,127
54802,note_on,2,0,0,,12,,,59,127
54802,note_on,0,0,0,,2,,,74,127
54905,note_off,103,0,0,,12,,,59,127
54907,note_on,2,0,0,,7,,,55,127
55010,note_off,103,0,0,,7,,,55,127
55010,note_off,0,0,0,,2,,,74,127
55012,note_on,2,0,0,,2,,,38,127
55012,note_on,0,0,0,,4,,,64,127
55080,note_off,68,0,0,,4,,,64,127
55082,note_on,2,0,0,,2,,,62,127
55115,note_off,33,0,0,,2,,,38,127
55117,note_on,2,0,0,,2,,,50,127
55150,note_off,33,0,0,,2,,,62,127
55152,note_on,2,0,0,,4,,,64,127
55220,note_off,68,0,0,,4,,,64,127
55220,note_off,0,0,0,,2,,,50,127
55222,note_on,2,0,0,,6,,,54,127
55222,note_on,0,0,0,,2,,,62,127
55325,note_off,103,0,0,,6,,,54,127
55327,note_on,2,0,0,,10,,,57,127
55430,note_off,103,0,0,,10,,,57,127
55432,note_on,2,0,0,,6,,,54,127
55535,note_off,103,0,0,,6,,,54,127
55537,note_on,2,0,0,,2,,,50,127
55640,note_off,103,0,0,,2,,,50,127
55642,note_on,2,0,0,,7,,,43,127
55745,note_off,103,0,0,,7,,,43,127
55747,note_on,2,0,0,,7,,,55,127
55850,note_off,103,0,0,,7,,,55,127
55850,note_off,0,0,0,,2,,,62,127
55852,note_on,2,0,0,,12,,,59,127
55852,note_on,0,0,0,,2,,,86,127
55955,note_off,103,0,0,,12,,,59,127
55957,note_on,2,0,0,,2,,,62,127
56060,note_off,103,0,0,,2,,,62,127
56060,note_off,0,0,0,,2,,,86,127
56062,note_on,2,0,0,,12,,,59,127
56062,note_on,0,0,0,,2,,,74,127
56165,note_off,103,0,0,,12,,,59,127
56167,note_on,2,0,0,,7,,,55,127
56270,note_off,103,0,0,,7,,,55,127
56270,note_off,0,0,0,,2,,,74,127
56272,note_on,2,0,0,,2,,,38,127
56272,note_on,0,0,0,,4,,,64,127
56340,note_off,68,0,0,,4,,,64,127
56342,note_on,2,0,0,,2,,,62,127
56375,note_off,33,0,0,,2,,,38,127
56377,note_on,2,0,0,,2,,,50,127
56410,note_off,33,0,0,,2,,,62,127
56412,note_on,2,0,0,,4,,,64,127
56480,note_off,68,0,0,,4,,,64,127
56480,note_off,0,0,0,,2,,,50,127
56482,note_on,2,0,0,,6,,,54,127
56482,note_on,0,0,0,,2,,,62,127
56585,note_off,103,0,0,,6,,,54,127
56587,note_on,2,0,0,,10,,,57,127
56690,note_off,103,0,0,,10,,,57,127
56692,note_on,2,0,0,,6,,,54,127
56795,note_off,103,0,0,,6,,,54,127
56797,note_on,2,0,0,,2,,,50,127
56900,note_off,103,0,0,,2,,,50,127
56900,note_off,0,0,0,,2,,,62,127
56902,note_on,2,0,0,,7,,,55,127
56902,note_on,0,0,0,,2,,,86,127
57005,note_off,103,0,0,,2,,,86,127
57007,note_on,2,0,0,,0,,,84,127
57110,note_off,103,0,0,,0,,,84,127
57110,note_off,0,0,0,,7,,,55,127
57112,note_on,2,0,0,,10,,,57,127
57112,note_on,0,0,0,,12,,,83,127
57215,note_off,103,0,0,,12,,,83,127
57217,note_on,2,0,0,,10,,,81,127
57320,note_off,103,0,0,,10,,,81,127
57320,note_off,0,0,0,,10,,,57,127
57322,note_on,2,0,0,,12,,,59,127
57322,note_on,0,0,0,,7,,,79,127
57425,note_off,103,0,0,,7,,,79,127
57427,note_on,2,0,0,,12,,,83,127
57530,note_off,103,0,0,,12,,,83,127
57530,note_off,0,0,0,,12,,,59,127
57532,note_on,2,0,0,,0,,,60,127
57532,note_on,0,0,0,,10,,,81,127
57635,note_off,103,0,0,,10,,,81,127
57637,note_on,2,0,0,,0,,,84,127
57740,note_off,103,0,0,,0,,,84,127
57740,note_off,0,0,0,,0,,,60,127
57742,note_on,2,0,0,,2,,,62,127
57742,note_on,0,0,0,,12,,,83,127
57845,note_off,103,0,0,,12,,,83,127
57847,note_on,2,0,0,,10,,,81,127
57950,note_off,103,0,0,,10,,,81,127
57952,note_on,2,0,0,,2,,,50,127
57952,note_on,0,0,0,,7,,,79,127
58055,note_off,103,0,0,,7,,,79,127
58057,note_off,2,0,0,,2,,,62,127
58057,note_on,0,0,0,,6,,,78,127
58160,note_off,103,0,0,,6,,,78,127
58160,note_off,0,0,0,,2,,,50,127
58162,note_on,2,0,0,,7,,,43,127
58162,note_on,0,0,0,,7,,,79,127
58265,note_off,103,0,0,,7,,,43,127
58267,note_on,2,0,0,,7,,,55,127
58370,note_off,103,0,0,,7,,,55,127
58370,note_off,0,0,0,,7,,,79,127
58372,note_on,2,0,0,,12,,,59,127
58372,note_on,0,0,0,,2,,,86,127
58475,note_off,103,0,0,,12,,,59,127
58477,note_on,2,0,0,,2,,,62,127
58580,note_off,103,0,0,,2,,,62,127
58580,note_off,0,0,0,,2,,,86,127
58582,note_on,2,0,0,,12,,,59,127
58582,note_on,0,0,0,,2,,,74,127
58685,note_off,103,0,0,,12,,,59,127
58687,note_on,2,0,0,,7,,,55,127
58790,note_off,103,0,0,,7,,,55,127
58790,note_off,0,0,0,,2,,,74,127
58792,note_on,2,0,0,,2,,,38,127
58792,note_on,0,0,0,,4,,,64,127
58860,note_off,68,0,0,,4,,,64,127
58862,note_on,2,0,0,,2,,,62,127
58895,note_off,33,0,0,,2,,,38,127
58897,note_on,2,0,0,,2,,,50,127
58930,note_off,33,0,0,,2,,,62,127
58932,note_on,2,0,0,,4,,,64,127
59000,note_off,68,0,0,,4,,,64,127
59000,note_off,0,0,0,,2,,,50,127
59002,note_on,2,0,0,,6,,,54,127
59002,note_on,0,0,0,,2,,,62,127
59105,note_off,103,0,0,,6,,,54,127
59107,note_on,2,0,0,,10,,,57,127
59210,note_off,103,0,0,,10,,,57,127
59212,note_on,2,0,0,,6,,,54,127
59315,note_off,103,0,0,,6,,,54,127
59317,note_on,2,0,0,,2,,,50,127
59420,note_off,103,0,0,,2,,,50,127
59422,note_on,2,0,0,,7,,,43,127
59525,note_off,103,0,0,,7,,,43,127
59527,note_on,2,0,0,,7,,,55,127
59630,note_off,103,0,0,,7,,,55,127
59630,note_off,0,0,0,,2,,,62,127
59632,note_on,2,0,0,,12,,,59,127
59632,note_on,0,0,0,,2,,,86,127
59735,note_off,103,0,0,,12,,,59,127
59737,note_on,2,0,0,,2,,,62,127
59840,note_off,103,0,0,,2,,,62,127
59840,note_off,0,0,0,,2,,,86,127
59842,note_on,2,0,0,,12,,,59,127
59842,note_on,0,0,0,,2,,,74,127
59945,note_off,103,0,0,,12,,,59,127
59947,note_on,2,0,0,,7,,,55,127
60050,note_off,103,0,0,,7,,,55,127
60050,note_off,0,0,0,,2,,,74,127
60052,note_on,2,0,0,,2,,,38,127
60052,note_on,0,0,0,,4,,,64,127
60120,note_off,68,0,0,,4,,,64,127
60122,note_on,2,0,0,,2,,,62,127
60155,note_off,33,0,0,,2,,,38,127
60157,note_on,2,0,0,,2,,,50,127
60190,note_off,33,0,0,,2,,,62,127
60192,note_on,2,0,0,,4,,,64,127
60260,note_off,68,0,0,,4,,,64,127
60260,note_off,0,0,0,,2,,,50,127
60262,note_on,2,0,0,,6,,,54,127
60262,note_on,0,0,0,,2,,,62,127
60365,note_off,103,0,0,,6,,,54,127
60367,note_on,2,0,0,,10,,,57,127
60470,note_off,103,0,0,,10,,,57,127
60472,note_on,2,0,0,,6,,,54,127
60575,note_off,103,0,0,,6,,,54,127
60577,note_on,2,0,0,,2,,,50,127
60680,note_off,103,0,0,,2,,,62,127
60697,note_off,17,0,0,,2,,,50,127
60708,note_on,11,0,0,,2,,,86,127
60708,note_on,0,0,0,,7,,,55,127
60811,note_off,103,0,0,,2,,,86,127
60813,note_on,2,0,0,,0,,,84,127
60916,note_off,103,0,0,,0,,,84,127
60916,note_off,0,0,0,,7,,,55,127
60918,note_on,2,0,0,,12,,,83,127
60918,note_on,0,0,0,,10,,,57,127
61021,note_off,103,0,0,,12,,,83,127
61023,note_on,2,0,0,,10,,,81,127
61126,note_off,103,0,0,,10,,,81,127
61126,note_off,0,0,0,,10,,,57,127
61128,note_on,2,0,0,,7,,,79,127
61128,note_on,0,0,0,,12,,,59,127
61231,note_off,103,0,0,,7,,,79,127
61233,note_on,2,0,0,,12,,,83,127
61336,note_off,103,0,0,,12,,,83,127
61336,note_off,0,0,0,,12,,,59,127
61338,note_on,2,0,0,,10,,,81,127
61338,note_on,0,0,0,,0,,,60,127
61441,note_off,103,0,0,,10,,,81,127
61443,note_on,2,0,0,,0,,,84,127
61546,note_off,103,0,0,,0,,,84,127
61546,note_off,0,0,0,,0,,,60,127
61548,note_on,2,0,0,,12,,,83,127
61548,note_on,0,0,0,,2,,,62,127
61651,note_off,103,0,0,,12,,,83,127
61653,note_on,2,0,0,,10,,,81,127
61756,note_off,103,0,0,,10,,,81,127
61758,note_on,2,0,0,,7,,,79,127
61758,note_on,0,0,0,,2,,,50,127
61861,note_off,103,0,0,,7,,,79,127
61863,note_off,2,0,0,,2,,,62,127
61863,note_on,0,0,0,,6,,,78,127
61966,note_off,103,0,0,,6,,,78,127
61966,note_off,0,0,0,,2,,,50,127
61968,note_on,2,0,0,,7,,,79,127
61968,note_on,0,0,0,,7,,,43,127
62071,note_off,103,0,0,,7,,,79,127
62074,note_on,3,0,0,,6,,,78,127
62175,note_off,101,0,0,,7,,,43,127
62178,note_off,3,0,0,,6,,,78,127
62182,note_on,4,0,0,,10,,,45,127
62182,note_on,0,0,0,,4,,,76,127
62287,note_off,105,0,0,,4,,,76,127
62288,note_on,1,0,0,,2,,,74,127
62393,note_off,105,0,0,,2,,,74,127
62395,note_off,2,0,0,,10,,,45,127
62395,note_on,0,0,0,,3,,,75,127
62395,note_on,0,0,0,,12,,,47,127
62500,note_off,105,0,0,,3,,,75,127
62504,note_on,4,0,0,,4,,,76,127
62608,note_off,104,0,0,,12,,,47,127
62609,note_off,1,0,0,,4,,,76,127
62613,note_on,4,0,0,,2,,,74,127
62613,note_on,0,0,0,,0,,,48,127
62718,note_off,105,0,0,,2,,,74,127
62722,note_on,4,0,0,,0,,,72,127
62826,note_off,104,0,0,,0,,,48,127
62827,note_off,1,0,0,,0,,,72,127
62831,note_on,4,0,0,,12,,,71,127
62831,note_on,0,0,0,,2,,,50,127
62936,note_off,105,0,0,,12,,,71,127
62940,note_on,4,0,0,,10,,,69,127
63045,note_off,105,0,0,,10,,,69,127
63048,note_on,3,0,0,,7,,,67,127
63048,note_on,0,0,0,,2,,,38,127
63153,note_off,105,0,0,,7,,,67,127
63157,note_on,4,0,0,,6,,,66,127
63257,note_off,100,0,0,,2,,,50,127
63260,note_off,3,0,0,,2,,,38,127
63261,note_off,1,0,0,,6,,,66,127
63265,note_on,4,0,0,,7,,,67,127
63265,note_on,0,0,0,,7,,,43,127
63370,note_off,105,0,0,,7,,,67,127
63375,note_on,5,0,0,,6,,,66,127
63478,note_off,103,0,0,,7,,,43,127
63482,note_off,4,0,0,,6,,,66,127
63489,note_on,7,0,0,,10,,,45,127
63489,note_on,0,0,0,,4,,,64,127
63596,note_off,107,0,0,,4,,,64,127
63599,note_on,3,0,0,,2,,,62,127
63706,note_off,107,0,0,,2,,,62,127
63707,note_off,1,0,0,,10,,,45,127
63715,note_on,8,0,0,,12,,,47,127
63715,note_on,0,0,0,,3,,,63,127
63822,note_off,107,0,0,,3,,,63,127
63829,note_on,7,0,0,,4,,,64,127
63934,note_off,105,0,0,,12,,,47,127
63936,note_off,2,0,0,,4,,,64,127
63943,note_on,7,0,0,,0,,,48,127
63943,note_on,0,0,0,,2,,,62,127
64050,note_off,107,0,0,,2,,,62,127
64057,note_on,7,0,0,,0,,,60,127
64162,note_off,105,0,0,,0,,,48,127
64164,note_off,2,0,0,,0,,,60,127
64171,note_on,7,0,0,,2,,,50,127
64171,note_on,0,0,0,,12,,,59,127
64284,note_off,113,0,0,,12,,,59,127
64284,note_on,0,0,0,,10,,,57,127
64401,note_off,117,0,0,,10,,,57,127
64409,note_on,8,0,0,,7,,,55,127
64409,note_on,0,0,0,,2,,,38,127
64524,note_off,115,0,0,,7,,,55,127
64534,note_on,10,0,0,,6,,,54,127
64610,note_off,76,0,0,,2,,,50,127
64661,note_off,51,0,0,,6,,,54,127
64668,note_off,7,0,0,,2,,,38,127
64678,note_on,10,0,0,,6,,,54,127
64678,note_on,0,0,0,,7,,,43,127
65313,note_on,635,0,0,,7,,,55,127
65322,note_off,9,0,0,,6,,,54,127
67059,note_off,1737,0,0,,7,,,55,127
67079,note_off,20,0,0,,7,,,43,127
70656,end_of_track,3577,1,0,,,,,,
