tick,type,time,meta,track,program,channel,pitch,tempo,note,velocity
0,copyright,0,1,0,,,,,,
0,program_change,0,0,0,6,0,,,,
0,pitchwheel,0,0,0,,0,0,,,
0,program_change,0,0,0,6,1,,,,
0,pitchwheel,0,0,0,,1,-590,,,
0,program_change,0,0,0,6,2,,,,
0,pitchwheel,0,0,0,,2,-272,,,
0,program_change,0,0,0,6,3,,,,
0,pitchwheel,0,0,0,,3,-353,,,
0,program_change,0,0,0,6,4,,,,
0,pitchwheel,0,0,0,,4,-560,,,
0,program_change,0,0,0,6,5,,,,
0,pitchwheel,0,0,0,,5,-80,,,
0,program_change,0,0,0,6,6,,,,
0,pitchwheel,0,0,0,,6,-625,,,
0,program_change,0,0,0,6,7,,,,
0,pitchwheel,0,0,0,,7,-130,,,
0,program_change,0,0,0,6,8,,,,
0,pitchwheel,0,0,0,,8,-512,,,
0,program_change,0,0,0,6,10,,,,
0,pitchwheel,0,0,0,,10,-464,,,
0,program_change,0,0,0,6,11,,,,
0,pitchwheel,0,0,0,,11,-208,,,
0,program_change,0,0,0,6,12,,,,
0,pitchwheel,0,0,0,,12,-553,,,
0,set_tempo,0,1,0,,,,500000,,
128,note_on,128,0,0,,0,,,72,127
895,note_off,767,0,0,,0,,,72,127
896,note_on,1,0,0,,0,,,72,127
960,note_on,64,0,0,,11,,,70,127
969,note_off,9,0,0,,0,,,72,127
1024,note_on,55,0,0,,10,,,69,127
1033,note_off,9,0,0,,11,,,70,127
1088,note_on,55,0,0,,11,,,70,127
1097,note_off,9,0,0,,10,,,69,127
1152,note_on,55,0,0,,7,,,79,127
1472,note_off,320,0,0,,11,,,70,127
1663,note_off,191,0,0,,7,,,79,127
1664,note_on,1,0,0,,11,,,70,127
1728,note_on,64,0,0,,8,,,68,127
1737,note_off,9,0,0,,11,,,70,127
1792,note_on,55,0,0,,7,,,67,127
1801,note_off,9,0,0,,8,,,68,127
1856,note_on,55,0,0,,8,,,68,127
1865,note_off,9,0,0,,7,,,67,127
1920,note_on,55,0,0,,5,,,77,127
2240,note_off,320,0,0,,8,,,68,127
2431,note_off,191,0,0,,5,,,77,127
2432,note_on,1,0,0,,8,,,68,127
2496,note_on,64,0,0,,7,,,67,127
2505,note_off,9,0,0,,8,,,68,127
2560,note_on,55,0,0,,5,,,65,127
2569,note_off,9,0,0,,7,,,67,127
2624,note_on,55,0,0,,7,,,67,127
2633,note_off,9,0,0,,5,,,65,127
2688,note_on,55,0,0,,3,,,75,127
3008,note_off,320,0,0,,7,,,67,127
3199,note_off,191,0,0,,3,,,75,127
3200,note_on,1,0,0,,5,,,65,127
3200,note_on,0,0,0,,3,,,75,127
3455,note_off,255,0,0,,3,,,75,127
3455,note_off,0,0,0,,5,,,65,127
3456,note_on,1,0,0,,7,,,67,127
3456,note_on,0,0,0,,2,,,74,127
3711,note_off,255,0,0,,2,,,74,127
3711,note_off,0,0,0,,7,,,67,127
3712,note_on,1,0,0,,8,,,68,127
3712,note_on,0,0,0,,0,,,72,127
3967,note_off,255,0,0,,0,,,72,127
3967,note_off,0,0,0,,8,,,68,127
3968,note_on,1,0,0,,7,,,67,127
3968,note_on,0,0,0,,0,,,72,127
4223,note_off,255,0,0,,0,,,72,127
4223,note_off,0,0,0,,7,,,67,127
4224,note_on,1,0,0,,5,,,65,127
4224,note_on,0,0,0,,12,,,71,127
4479,note_off,255,0,0,,12,,,71,127
4479,note_off,0,0,0,,5,,,65,127
4480,note_on,1,0,0,,3,,,63,127
4480,note_on,0,0,0,,0,,,72,127
4735,note_off,255,0,0,,0,,,72,127
4735,note_off,0,0,0,,3,,,63,127
4736,note_on,1,0,0,,5,,,65,127
4736,note_on,0,0,0,,2,,,74,127
4820,note_off,84,0,0,,2,,,74,127
4821,note_on,1,0,0,,3,,,75,127
4905,note_off,84,0,0,,3,,,75,127
4906,note_on,1,0,0,,5,,,77,127
4990,note_off,84,0,0,,5,,,77,127
4991,note_on,1,0,0,,5,,,77,127
4991,note_on,0,0,0,,3,,,75,127
5118,note_off,127,0,0,,3,,,75,127
5118,note_off,0,0,0,,5,,,77,127
5119,note_on,1,0,0,,2,,,74,127
5246,note_off,127,0,0,,2,,,74,127
5246,note_off,0,0,0,,5,,,65,127
5247,note_on,1,0,0,,7,,,67,127
5247,note_on,0,0,0,,0,,,72,127
5374,note_off,127,0,0,,0,,,72,127
5375,note_on,1,0,0,,12,,,71,127
5502,note_off,127,0,0,,12,,,71,127
5502,note_off,0,0,0,,7,,,67,127
5503,note_on,1,0,0,,0,,,60,127
5503,note_on,0,0,0,,12,,,71,127
5822,note_off,319,0,0,,12,,,71,127
5823,note_on,1,0,0,,0,,,72,127
6270,note_off,447,0,0,,0,,,60,127
6271,note_on,1,0,0,,0,,,60,127
6271,note_on,0,0,0,,7,,,67,127
6526,note_off,255,0,0,,0,,,72,127
6527,note_on,1,0,0,,5,,,77,127
6611,note_off,84,0,0,,5,,,77,127
6612,note_on,1,0,0,,3,,,75,127
6696,note_off,84,0,0,,3,,,75,127
6697,note_on,1,0,0,,2,,,74,127
6781,note_off,84,0,0,,2,,,74,127
6782,note_on,1,0,0,,3,,,75,127
7037,note_off,255,0,0,,7,,,67,127
7037,note_off,0,0,0,,0,,,60,127
7038,note_on,1,0,0,,11,,,58,127
7038,note_on,0,0,0,,7,,,67,127
7293,note_off,255,0,0,,3,,,75,127
7294,note_on,1,0,0,,3,,,75,127
7378,note_off,84,0,0,,3,,,75,127
7379,note_on,1,0,0,,2,,,74,127
7463,note_off,84,0,0,,2,,,74,127
7464,note_on,1,0,0,,0,,,72,127
7548,note_off,84,0,0,,0,,,72,127
7549,note_on,1,0,0,,2,,,74,127
7804,note_off,255,0,0,,7,,,67,127
7804,note_off,0,0,0,,11,,,58,127
7805,note_on,1,0,0,,8,,,56,127
7805,note_on,0,0,0,,5,,,65,127
8060,note_off,255,0,0,,2,,,74,127
8061,note_on,1,0,0,,2,,,74,127
8145,note_off,84,0,0,,2,,,74,127
8146,note_on,1,0,0,,0,,,72,127
8230,note_off,84,0,0,,0,,,72,127
8231,note_on,1,0,0,,12,,,71,127
8315,note_off,84,0,0,,12,,,71,127
8316,note_on,1,0,0,,0,,,72,127
8571,note_off,255,0,0,,5,,,65,127
8571,note_off,0,0,0,,8,,,56,127
8572,note_on,1,0,0,,7,,,55,127
8572,note_on,0,0,0,,3,,,63,127
8827,note_off,255,0,0,,0,,,72,127
8828,note_on,1,0,0,,0,,,72,127
8912,note_off,84,0,0,,0,,,72,127
8913,note_on,1,0,0,,11,,,70,127
8997,note_off,84,0,0,,11,,,70,127
8998,note_on,1,0,0,,8,,,68,127
9082,note_off,84,0,0,,8,,,68,127
9083,note_on,1,0,0,,11,,,70,127
9338,note_off,255,0,0,,3,,,63,127
9338,note_off,0,0,0,,7,,,55,127
9339,note_on,1,0,0,,5,,,53,127
9339,note_on,0,0,0,,2,,,62,127
9594,note_off,255,0,0,,11,,,70,127
9595,note_on,1,0,0,,11,,,70,127
9679,note_off,84,0,0,,11,,,70,127
9680,note_on,1,0,0,,8,,,68,127
9764,note_off,84,0,0,,8,,,68,127
9765,note_on,1,0,0,,7,,,67,127
9849,note_off,84,0,0,,7,,,67,127
9850,note_on,1,0,0,,8,,,68,127
10105,note_off,255,0,0,,2,,,62,127
10105,note_off,0,0,0,,5,,,53,127
10106,note_on,1,0,0,,3,,,51,127
10106,note_on,0,0,0,,0,,,60,127
10361,note_off,255,0,0,,0,,,60,127
10361,note_off,0,0,0,,8,,,68,127
10362,note_on,1,0,0,,2,,,62,127
10362,note_on,0,0,0,,8,,,68,127
10446,note_off,84,0,0,,8,,,68,127
10447,note_on,1,0,0,,7,,,67,127
10531,note_off,84,0,0,,7,,,67,127
10532,note_on,1,0,0,,5,,,65,127
10616,note_off,84,0,0,,5,,,65,127
10616,note_off,0,0,0,,2,,,62,127
10616,note_off,0,0,0,,3,,,51,127
10617,note_on,1,0,0,,3,,,51,127
10617,note_on,0,0,0,,3,,,63,127
10617,note_on,0,0,0,,7,,,67,127
10872,note_off,255,0,0,,7,,,67,127
10872,note_off,0,0,0,,3,,,63,127
10872,note_off,0,0,0,,3,,,51,127
10873,note_on,1,0,0,,5,,,53,127
10873,note_on,0,0,0,,2,,,62,127
10873,note_on,0,0,0,,5,,,65,127
11128,note_off,255,0,0,,5,,,65,127
11128,note_off,0,0,0,,2,,,62,127
11128,note_off,0,0,0,,5,,,53,127
11129,note_on,1,0,0,,7,,,55,127
11129,note_on,0,0,0,,3,,,63,127
11129,note_on,0,0,0,,0,,,60,127
11384,note_off,255,0,0,,0,,,60,127
11384,note_off,0,0,0,,3,,,63,127
11385,note_on,1,0,0,,7,,,43,127
11385,note_on,0,0,0,,12,,,59,127
11385,note_on,0,0,0,,2,,,62,127
11640,note_off,255,0,0,,2,,,62,127
11640,note_off,0,0,0,,12,,,59,127
11640,note_off,0,0,0,,7,,,43,127
11640,note_off,0,0,0,,7,,,55,127
11641,note_on,1,0,0,,0,,,48,127
11641,note_on,0,0,0,,5,,,65,127
11725,note_off,84,0,0,,5,,,65,127
11726,note_on,1,0,0,,3,,,63,127
11810,note_off,84,0,0,,3,,,63,127
11811,note_on,1,0,0,,5,,,65,127
11895,note_off,84,0,0,,5,,,65,127
11896,note_on,1,0,0,,3,,,63,127
12023,note_off,127,0,0,,3,,,63,127
12024,note_on,1,0,0,,2,,,62,127
12151,note_off,127,0,0,,2,,,62,127
12152,note_on,1,0,0,,0,,,36,127
12152,note_on,0,0,0,,0,,,60,127
12407,note_off,255,0,0,,0,,,60,127
12407,note_off,0,0,0,,0,,,36,127
12407,note_off,0,0,0,,0,,,48,127
12408,note_on,1,0,0,,3,,,63,127
12408,note_on,0,0,0,,0,,,60,127
12536,note_on,128,0,0,,3,,,75,127
12663,note_off,127,0,0,,3,,,75,127
12663,note_off,0,0,0,,0,,,60,127
12663,note_off,0,0,0,,3,,,63,127
12664,note_on,1,0,0,,3,,,63,127
12664,note_on,0,0,0,,0,,,60,127
12664,note_on,0,0,0,,6,,,66,127
12919,note_off,255,0,0,,0,,,60,127
12919,note_off,0,0,0,,3,,,63,127
12920,note_on,1,0,0,,3,,,63,127
12920,note_on,0,0,0,,0,,,60,127
13047,note_off,127,0,0,,6,,,66,127
13048,note_on,1,0,0,,3,,,75,127
13175,note_off,127,0,0,,3,,,75,127
13175,note_off,0,0,0,,0,,,60,127
13175,note_off,0,0,0,,3,,,63,127
13176,note_on,1,0,0,,5,,,65,127
13176,note_on,0,0,0,,2,,,62,127
13176,note_on,0,0,0,,12,,,59,127
13176,note_on,0,0,0,,3,,,75,127
13303,note_off,127,0,0,,3,,,75,127
13304,note_on,1,0,0,,2,,,74,127
13431,note_off,127,0,0,,2,,,74,127
13431,note_off,0,0,0,,12,,,59,127
13431,note_off,0,0,0,,2,,,62,127
13432,note_on,1,0,0,,12,,,59,127
13432,note_on,0,0,0,,2,,,62,127
13432,note_on,0,0,0,,2,,,74,127
13559,note_off,127,0,0,,2,,,74,127
13560,note_on,1,0,0,,1,,,73,127
13687,note_off,127,0,0,,1,,,73,127
13687,note_off,0,0,0,,2,,,62,127
13687,note_off,0,0,0,,12,,,59,127
13688,note_on,1,0,0,,12,,,59,127
13688,note_on,0,0,0,,2,,,62,127
13688,note_on,0,0,0,,1,,,73,127
13815,note_off,127,0,0,,1,,,73,127
13816,note_on,1,0,0,,2,,,74,127
13943,note_off,127,0,0,,2,,,74,127
13943,note_off,0,0,0,,2,,,62,127
13943,note_off,0,0,0,,12,,,59,127
13943,note_off,0,0,0,,5,,,65,127
13944,note_on,1,0,0,,3,,,63,127
13944,note_on,0,0,0,,0,,,60,127
14072,note_on,128,0,0,,3,,,75,127
14199,note_off,127,0,0,,3,,,75,127
14199,note_off,0,0,0,,0,,,60,127
14199,note_off,0,0,0,,3,,,63,127
14200,note_on,1,0,0,,3,,,63,127
14200,note_on,0,0,0,,0,,,60,127
14200,note_on,0,0,0,,6,,,66,127
14455,note_off,255,0,0,,0,,,60,127
14455,note_off,0,0,0,,3,,,63,127
14456,note_on,1,0,0,,3,,,63,127
14456,note_on,0,0,0,,0,,,60,127
14583,note_off,127,0,0,,6,,,66,127
14584,note_on,1,0,0,,3,,,75,127
14711,note_off,127,0,0,,0,,,60,127
14711,note_off,0,0,0,,3,,,63,127
14712,note_on,1,0,0,,5,,,65,127
14712,note_on,0,0,0,,2,,,62,127
14712,note_on,0,0,0,,12,,,59,127
14839,note_off,127,0,0,,3,,,75,127
14840,note_on,1,0,0,,2,,,74,127
14967,note_off,127,0,0,,12,,,59,127
14967,note_off,0,0,0,,2,,,62,127
14968,note_on,1,0,0,,2,,,62,127
14968,note_on,0,0,0,,12,,,59,127
15095,note_off,127,0,0,,2,,,74,127
15096,note_on,1,0,0,,1,,,73,127
15223,note_off,127,0,0,,1,,,73,127
15223,note_off,0,0,0,,12,,,59,127
15223,note_off,0,0,0,,2,,,62,127
15224,note_on,1,0,0,,2,,,62,127
15224,note_on,0,0,0,,12,,,59,127
15224,note_on,0,0,0,,1,,,73,127
15351,note_off,127,0,0,,1,,,73,127
15352,note_on,1,0,0,,2,,,74,127
15479,note_off,127,0,0,,2,,,74,127
15479,note_off,0,0,0,,12,,,59,127
15479,note_off,0,0,0,,2,,,62,127
15479,note_off,0,0,0,,5,,,65,127
15480,note_on,1,0,0,,0,,,60,127
15480,note_on,0,0,0,,11,,,58,127
15480,note_on,0,0,0,,4,,,64,127
15608,note_on,128,0,0,,7,,,79,127
15735,note_off,127,0,0,,7,,,79,127
15735,note_off,0,0,0,,4,,,64,127
15735,note_off,0,0,0,,11,,,58,127
15735,note_off,0,0,0,,0,,,60,127
15736,note_on,1,0,0,,11,,,58,127
15736,note_on,0,0,0,,4,,,64,127
15736,note_on,0,0,0,,0,,,60,127
15736,note_on,0,0,0,,4,,,76,127
15991,note_off,255,0,0,,0,,,60,127
15991,note_off,0,0,0,,4,,,64,127
15991,note_off,0,0,0,,11,,,58,127
15992,note_on,1,0,0,,0,,,60,127
15992,note_on,0,0,0,,11,,,58,127
15992,note_on,0,0,0,,4,,,64,127
16119,note_off,127,0,0,,4,,,76,127
16120,note_on,1,0,0,,1,,,73,127
16247,note_off,127,0,0,,4,,,64,127
16247,note_off,0,0,0,,11,,,58,127
16247,note_off,0,0,0,,0,,,60,127
16248,note_on,1,0,0,,5,,,65,127
16248,note_on,0,0,0,,0,,,60,127
16248,note_on,0,0,0,,8,,,56,127
16375,note_off,127,0,0,,1,,,73,127
16376,note_on,1,0,0,,0,,,72,127
16503,note_off,127,0,0,,0,,,72,127
16503,note_off,0,0,0,,8,,,56,127
16503,note_off,0,0,0,,0,,,60,127
16503,note_off,0,0,0,,5,,,65,127
16504,note_on,1,0,0,,0,,,60,127
16504,note_on,0,0,0,,8,,,56,127
16504,note_on,0,0,0,,5,,,65,127
16504,note_on,0,0,0,,0,,,72,127
16631,note_off,127,0,0,,0,,,72,127
16632,note_on,1,0,0,,12,,,71,127
16759,note_off,127,0,0,,12,,,71,127
16759,note_off,0,0,0,,5,,,65,127
16759,note_off,0,0,0,,8,,,56,127
16759,note_off,0,0,0,,0,,,60,127
16760,note_on,1,0,0,,0,,,60,127
16760,note_on,0,0,0,,8,,,56,127
16760,note_on,0,0,0,,5,,,65,127
16760,note_on,0,0,0,,12,,,71,127
16887,note_off,127,0,0,,12,,,71,127
16888,note_on,1,0,0,,0,,,72,127
17015,note_off,127,0,0,,5,,,65,127
17015,note_off,0,0,0,,8,,,56,127
17015,note_off,0,0,0,,0,,,60,127
17016,note_on,1,0,0,,11,,,58,127
17016,note_on,0,0,0,,4,,,64,127
17016,note_on,0,0,0,,0,,,60,127
17143,note_off,127,0,0,,0,,,72,127
17144,note_on,1,0,0,,7,,,79,127
17271,note_off,127,0,0,,7,,,79,127
17271,note_off,0,0,0,,0,,,60,127
17271,note_off,0,0,0,,4,,,64,127
17271,note_off,0,0,0,,11,,,58,127
17272,note_on,1,0,0,,0,,,60,127
17272,note_on,0,0,0,,4,,,64,127
17272,note_on,0,0,0,,11,,,58,127
17272,note_on,0,0,0,,4,,,76,127
17527,note_off,255,0,0,,11,,,58,127
17527,note_off,0,0,0,,4,,,64,127
17527,note_off,0,0,0,,0,,,60,127
17528,note_on,1,0,0,,0,,,60,127
17528,note_on,0,0,0,,11,,,58,127
17528,note_on,0,0,0,,4,,,64,127
17655,note_off,127,0,0,,4,,,76,127
17656,note_on,1,0,0,,1,,,73,127
17783,note_off,127,0,0,,4,,,64,127
17783,note_off,0,0,0,,11,,,58,127
17783,note_off,0,0,0,,0,,,60,127
17784,note_on,1,0,0,,8,,,56,127
17784,note_on,0,0,0,,0,,,60,127
17784,note_on,0,0,0,,5,,,65,127
17911,note_off,127,0,0,,1,,,73,127
17912,note_on,1,0,0,,0,,,72,127
18039,note_off,127,0,0,,5,,,65,127
18039,note_off,0,0,0,,0,,,60,127
18039,note_off,0,0,0,,8,,,56,127
18040,note_on,1,0,0,,5,,,65,127
18040,note_on,0,0,0,,0,,,60,127
18040,note_on,0,0,0,,8,,,56,127
18167,note_off,127,0,0,,0,,,72,127
18168,note_on,1,0,0,,12,,,71,127
18295,note_off,127,0,0,,8,,,56,127
18295,note_off,0,0,0,,0,,,60,127
18295,note_off,0,0,0,,5,,,65,127
18296,note_on,1,0,0,,5,,,65,127
18296,note_on,0,0,0,,0,,,60,127
18296,note_on,0,0,0,,8,,,56,127
18423,note_off,127,0,0,,12,,,71,127
18424,note_on,1,0,0,,0,,,72,127
18551,note_off,127,0,0,,8,,,56,127
18551,note_off,0,0,0,,0,,,60,127
18551,note_off,0,0,0,,5,,,65,127
18552,note_on,1,0,0,,7,,,55,127
18552,note_on,0,0,0,,3,,,63,127
18552,note_on,0,0,0,,0,,,60,127
18807,note_off,255,0,0,,0,,,60,127
18807,note_off,0,0,0,,3,,,63,127
18807,note_off,0,0,0,,7,,,55,127
18807,note_off,0,0,0,,0,,,72,127
18808,note_on,1,0,0,,0,,,60,127
18808,note_on,0,0,0,,7,,,55,127
18808,note_on,0,0,0,,3,,,63,127
18808,note_on,0,0,0,,5,,,77,127
18872,note_on,64,0,0,,3,,,75,127
18881,note_off,9,0,0,,5,,,77,127
18936,note_on,55,0,0,,2,,,74,127
18945,note_off,9,0,0,,3,,,75,127
19000,note_on,55,0,0,,3,,,75,127
19009,note_off,9,0,0,,2,,,74,127
19062,note_off,53,0,0,,3,,,63,127
19062,note_off,0,0,0,,7,,,55,127
19062,note_off,0,0,0,,0,,,60,127
19063,note_on,1,0,0,,7,,,55,127
19063,note_on,0,0,0,,3,,,63,127
19063,note_on,0,0,0,,0,,,60,127
19063,note_on,0,0,0,,0,,,84,127
19072,note_off,9,0,0,,3,,,75,127
19317,note_off,245,0,0,,0,,,60,127
19317,note_off,0,0,0,,3,,,63,127
19317,note_off,0,0,0,,7,,,55,127
19318,note_on,1,0,0,,5,,,53,127
19318,note_on,0,0,0,,2,,,62,127
19318,note_on,0,0,0,,0,,,60,127
19573,note_off,255,0,0,,0,,,60,127
19573,note_off,0,0,0,,2,,,62,127
19573,note_off,0,0,0,,5,,,53,127
19573,note_off,0,0,0,,0,,,84,127
19574,note_on,1,0,0,,5,,,53,127
19574,note_on,0,0,0,,2,,,62,127
19574,note_on,0,0,0,,0,,,60,127
19574,note_on,0,0,0,,3,,,75,127
19638,note_on,64,0,0,,2,,,74,127
19647,note_off,9,0,0,,3,,,75,127
19702,note_on,55,0,0,,0,,,72,127
19711,note_off,9,0,0,,2,,,74,127
19766,note_on,55,0,0,,2,,,74,127
19775,note_off,9,0,0,,0,,,72,127
19828,note_off,53,0,0,,0,,,60,127
19828,note_off,0,0,0,,2,,,62,127
19828,note_off,0,0,0,,5,,,53,127
19829,note_on,1,0,0,,5,,,53,127
19829,note_on,0,0,0,,2,,,62,127
19829,note_on,0,0,0,,0,,,60,127
19829,note_on,0,0,0,,0,,,84,127
19838,note_off,9,0,0,,2,,,74,127
20083,note_off,245,0,0,,0,,,60,127
20083,note_off,0,0,0,,2,,,62,127
20083,note_off,0,0,0,,5,,,53,127
20084,note_on,1,0,0,,3,,,51,127
20084,note_on,0,0,0,,0,,,60,127
20084,note_on,0,0,0,,7,,,55,127
20339,note_off,255,0,0,,7,,,55,127
20339,note_off,0,0,0,,0,,,60,127
20339,note_off,0,0,0,,3,,,51,127
20339,note_off,0,0,0,,0,,,84,127
20340,note_on,1,0,0,,3,,,51,127
20340,note_on,0,0,0,,7,,,55,127
20340,note_on,0,0,0,,0,,,60,127
20340,note_on,0,0,0,,2,,,74,127
20404,note_on,64,0,0,,0,,,72,127
20413,note_off,9,0,0,,2,,,74,127
20468,note_on,55,0,0,,12,,,71,127
20477,note_off,9,0,0,,0,,,72,127
20532,note_on,55,0,0,,0,,,72,127
20541,note_off,9,0,0,,12,,,71,127
20594,note_off,53,0,0,,0,,,60,127
20594,note_off,0,0,0,,7,,,55,127
20594,note_off,0,0,0,,3,,,51,127
20595,note_on,1,0,0,,0,,,60,127
20595,note_on,0,0,0,,7,,,55,127
20595,note_on,0,0,0,,3,,,51,127
20595,note_on,0,0,0,,0,,,84,127
20604,note_off,9,0,0,,0,,,72,127
20849,note_off,245,0,0,,3,,,51,127
20849,note_off,0,0,0,,7,,,55,127
20849,note_off,0,0,0,,0,,,60,127
20850,note_on,1,0,0,,0,,,60,127
20850,note_on,0,0,0,,5,,,53,127
20850,note_on,0,0,0,,2,,,62,127
20977,note_off,127,0,0,,0,,,84,127
20978,note_on,1,0,0,,8,,,80,127
21105,note_off,127,0,0,,8,,,80,127
21105,note_off,0,0,0,,2,,,62,127
21105,note_off,0,0,0,,5,,,53,127
21105,note_off,0,0,0,,0,,,60,127
21106,note_on,1,0,0,,0,,,60,127
21106,note_on,0,0,0,,5,,,53,127
21106,note_on,0,0,0,,2,,,62,127
21106,note_on,0,0,0,,7,,,79,127
21106,note_on,0,0,0,,5,,,77,127
21233,note_off,127,0,0,,5,,,77,127
21233,note_off,0,0,0,,7,,,79,127
21234,note_on,1,0,0,,3,,,75,127
21361,note_off,127,0,0,,3,,,75,127
21361,note_off,0,0,0,,2,,,62,127
21361,note_off,0,0,0,,5,,,53,127
21361,note_off,0,0,0,,0,,,60,127
21362,note_on,1,0,0,,5,,,53,127
21362,note_on,0,0,0,,0,,,60,127
21362,note_on,0,0,0,,2,,,62,127
21362,note_on,0,0,0,,2,,,74,127
21489,note_off,127,0,0,,2,,,74,127
21490,note_on,1,0,0,,10,,,69,127
21617,note_off,127,0,0,,2,,,62,127
21617,note_off,0,0,0,,0,,,60,127
21617,note_off,0,0,0,,5,,,53,127
21618,note_on,1,0,0,,2,,,62,127
21618,note_on,0,0,0,,7,,,55,127
21745,note_off,127,0,0,,10,,,69,127
21746,note_on,1,0,0,,12,,,71,127
21873,note_off,127,0,0,,7,,,55,127
21873,note_off,0,0,0,,2,,,62,127
21874,note_on,1,0,0,,8,,,56,127
22065,note_off,191,0,0,,12,,,71,127
22066,note_on,1,0,0,,0,,,72,127
22130,note_on,64,0,0,,5,,,65,127
22130,note_on,0,0,0,,2,,,74,127
22139,note_off,9,0,0,,0,,,72,127
22194,note_on,55,0,0,,0,,,72,127
22203,note_off,9,0,0,,2,,,74,127
22258,note_on,55,0,0,,12,,,71,127
22267,note_off,9,0,0,,0,,,72,127
22322,note_on,55,0,0,,0,,,72,127
22331,note_off,9,0,0,,12,,,71,127
22380,note_off,49,0,0,,8,,,56,127
22384,note_off,4,0,0,,5,,,65,127
22385,note_on,1,0,0,,2,,,62,127
22385,note_on,0,0,0,,0,,,60,127
22385,note_on,0,0,0,,7,,,55,127
22385,note_on,0,0,0,,5,,,65,127
22385,note_on,0,0,0,,2,,,74,127
22394,note_off,9,0,0,,0,,,72,127
22469,note_off,75,0,0,,2,,,74,127
22470,note_on,1,0,0,,3,,,75,127
22554,note_off,84,0,0,,3,,,75,127
22555,note_on,1,0,0,,5,,,77,127
22639,note_off,84,0,0,,5,,,77,127
22639,note_off,0,0,0,,5,,,65,127
22639,note_off,0,0,0,,7,,,55,127
22639,note_off,0,0,0,,0,,,60,127
22639,note_off,0,0,0,,2,,,62,127
22640,note_on,1,0,0,,7,,,55,127
22640,note_on,0,0,0,,12,,,71,127
22767,note_off,127,0,0,,12,,,71,127
22768,note_on,1,0,0,,0,,,72,127
22895,note_off,127,0,0,,0,,,72,127
22895,note_off,0,0,0,,7,,,55,127
22896,note_on,1,0,0,,8,,,56,127
22896,note_on,0,0,0,,2,,,74,127
22960,note_on,64,0,0,,0,,,72,127
22969,note_off,9,0,0,,2,,,74,127
23024,note_on,55,0,0,,12,,,71,127
23033,note_off,9,0,0,,0,,,72,127
23088,note_on,55,0,0,,0,,,72,127
23097,note_off,9,0,0,,12,,,71,127
23150,note_off,53,0,0,,8,,,56,127
23151,note_on,1,0,0,,7,,,55,127
23151,note_on,0,0,0,,5,,,65,127
23151,note_on,0,0,0,,2,,,62,127
23151,note_on,0,0,0,,0,,,60,127
23151,note_on,0,0,0,,2,,,74,127
23160,note_off,9,0,0,,0,,,72,127
23235,note_off,75,0,0,,2,,,74,127
23236,note_on,1,0,0,,3,,,75,127
23320,note_off,84,0,0,,3,,,75,127
23321,note_on,1,0,0,,5,,,77,127
23405,note_off,84,0,0,,5,,,77,127
23405,note_off,0,0,0,,0,,,60,127
23405,note_off,0,0,0,,2,,,62,127
23405,note_off,0,0,0,,5,,,65,127
23405,note_off,0,0,0,,7,,,55,127
23406,note_on,1,0,0,,8,,,56,127
23406,note_on,0,0,0,,12,,,71,127
23533,note_off,127,0,0,,12,,,71,127
23534,note_on,1,0,0,,0,,,72,127
23661,note_off,127,0,0,,0,,,72,127
23662,note_on,1,0,0,,2,,,74,127
23726,note_on,64,0,0,,0,,,72,127
23735,note_off,9,0,0,,2,,,74,127
23790,note_on,55,0,0,,12,,,71,127
23799,note_off,9,0,0,,0,,,72,127
23854,note_on,55,0,0,,0,,,72,127
23863,note_off,9,0,0,,12,,,71,127
23916,note_off,53,0,0,,8,,,56,127
23917,note_on,1,0,0,,7,,,55,127
23917,note_on,0,0,0,,7,,,79,127
23926,note_off,9,0,0,,0,,,72,127
24043,note_off,117,0,0,,7,,,79,127
24044,note_on,1,0,0,,2,,,74,127
24171,note_off,127,0,0,,2,,,74,127
24172,note_on,1,0,0,,12,,,71,127
24299,note_off,127,0,0,,12,,,71,127
24300,note_on,1,0,0,,7,,,67,127
24427,note_off,127,0,0,,7,,,67,127
24428,note_on,1,0,0,,2,,,62,127
24555,note_off,127,0,0,,2,,,62,127
24556,note_on,1,0,0,,12,,,59,127
24683,note_off,127,0,0,,12,,,59,127
24683,note_off,0,0,0,,7,,,55,127
24684,note_on,1,0,0,,7,,,79,127
24684,note_on,0,0,0,,7,,,55,127
24811,note_off,127,0,0,,7,,,79,127
24812,note_on,1,0,0,,2,,,74,127
24939,note_off,127,0,0,,2,,,74,127
24940,note_on,1,0,0,,12,,,71,127
25067,note_off,127,0,0,,12,,,71,127
25068,note_on,1,0,0,,7,,,67,127
25195,note_off,127,0,0,,7,,,67,127
25196,note_on,1,0,0,,2,,,62,127
25323,note_off,127,0,0,,2,,,62,127
25324,note_on,1,0,0,,12,,,59,127
25451,note_off,127,0,0,,12,,,59,127
25451,note_off,0,0,0,,7,,,55,127
25452,note_on,1,0,0,,7,,,55,127
25452,note_on,0,0,0,,7,,,79,127
25579,note_off,127,0,0,,7,,,79,127
25580,note_on,1,0,0,,2,,,74,127
25707,note_off,127,0,0,,2,,,74,127
25708,note_on,1,0,0,,12,,,71,127
25835,note_off,127,0,0,,12,,,71,127
25836,note_on,1,0,0,,7,,,67,127
25963,note_off,127,0,0,,7,,,67,127
25964,note_on,1,0,0,,2,,,62,127
26091,note_off,127,0,0,,2,,,62,127
26092,note_on,1,0,0,,12,,,59,127
26219,note_off,127,0,0,,12,,,59,127
26219,note_off,0,0,0,,7,,,55,127
26220,note_on,1,0,0,,7,,,79,127
26220,note_on,0,0,0,,7,,,55,127
26347,note_off,127,0,0,,7,,,79,127
26348,note_on,1,0,0,,2,,,74,127
26475,note_off,127,0,0,,2,,,74,127
26476,note_on,1,0,0,,12,,,71,127
26603,note_off,127,0,0,,12,,,71,127
26604,note_on,1,0,0,,7,,,67,127
26731,note_off,127,0,0,,7,,,67,127
26732,note_on,1,0,0,,2,,,62,127
26859,note_off,127,0,0,,2,,,62,127
26860,note_on,1,0,0,,12,,,59,127
26987,note_off,127,0,0,,12,,,59,127
26987,note_off,0,0,0,,7,,,55,127
26988,note_on,1,0,0,,7,,,55,127
26988,note_on,0,0,0,,7,,,79,127
27115,note_off,127,0,0,,7,,,79,127
27116,note_on,1,0,0,,5,,,77,127
27243,note_off,127,0,0,,5,,,77,127
27244,note_on,1,0,0,,3,,,75,127
27371,note_off,127,0,0,,3,,,75,127
27372,note_on,1,0,0,,2,,,74,127
27499,note_off,127,0,0,,2,,,74,127
27500,note_on,1,0,0,,0,,,72,127
27627,note_off,127,0,0,,0,,,72,127
27628,note_on,1,0,0,,12,,,71,127
27755,note_off,127,0,0,,12,,,71,127
27755,note_off,0,0,0,,7,,,55,127
27756,note_on,1,0,0,,0,,,84,127
27756,note_on,0,0,0,,0,,,72,127
27883,note_off,127,0,0,,0,,,84,127
27884,note_on,1,0,0,,7,,,79,127
28011,note_off,127,0,0,,7,,,79,127
28012,note_on,1,0,0,,3,,,75,127
28139,note_off,127,0,0,,3,,,75,127
28139,note_off,0,0,0,,0,,,72,127
28140,note_on,1,0,0,,0,,,72,127
28268,note_on,128,0,0,,7,,,67,127
28395,note_off,127,0,0,,7,,,67,127
28396,note_on,1,0,0,,3,,,63,127
28523,note_off,127,0,0,,3,,,63,127
28523,note_off,0,0,0,,0,,,72,127
28524,note_on,1,0,0,,0,,,60,127
28524,note_on,0,0,0,,0,,,84,127
28651,note_off,127,0,0,,0,,,84,127
28652,note_on,1,0,0,,7,,,79,127
28779,note_off,127,0,0,,7,,,79,127
28780,note_on,1,0,0,,3,,,75,127
28907,note_off,127,0,0,,3,,,75,127
28908,note_on,1,0,0,,0,,,72,127
29035,note_off,127,0,0,,0,,,72,127
29036,note_on,1,0,0,,7,,,67,127
29163,note_off,127,0,0,,7,,,67,127
29164,note_on,1,0,0,,3,,,63,127
29291,note_off,127,0,0,,3,,,63,127
29291,note_off,0,0,0,,0,,,60,127
29292,note_on,1,0,0,,0,,,84,127
29292,note_on,0,0,0,,0,,,60,127
29419,note_off,127,0,0,,0,,,84,127
29420,note_on,1,0,0,,7,,,79,127
29547,note_off,127,0,0,,7,,,79,127
29548,note_on,1,0,0,,3,,,75,127
29675,note_off,127,0,0,,3,,,75,127
29676,note_on,1,0,0,,0,,,72,127
29803,note_off,127,0,0,,0,,,72,127
29804,note_on,1,0,0,,7,,,67,127
29931,note_off,127,0,0,,7,,,67,127
29932,note_on,1,0,0,,3,,,63,127
30059,note_off,127,0,0,,3,,,63,127
30059,note_off,0,0,0,,0,,,60,127
30060,note_on,1,0,0,,0,,,60,127
30060,note_on,0,0,0,,0,,,84,127
30187,note_off,127,0,0,,0,,,84,127
30188,note_on,1,0,0,,7,,,79,127
30315,note_off,127,0,0,,7,,,79,127
30316,note_on,1,0,0,,3,,,75,127
30443,note_off,127,0,0,,3,,,75,127
30444,note_on,1,0,0,,0,,,72,127
30571,note_off,127,0,0,,0,,,72,127
30572,note_on,1,0,0,,7,,,67,127
30699,note_off,127,0,0,,7,,,67,127
30700,note_on,1,0,0,,3,,,63,127
30827,note_off,127,0,0,,3,,,63,127
30827,note_off,0,0,0,,0,,,60,127
30828,note_on,1,0,0,,0,,,84,127
30828,note_on,0,0,0,,0,,,60,127
30955,note_off,127,0,0,,0,,,84,127
30956,note_on,1,0,0,,7,,,79,127
31083,note_off,127,0,0,,7,,,79,127
31084,note_on,1,0,0,,3,,,75,127
31211,note_off,127,0,0,,3,,,75,127
31212,note_on,1,0,0,,0,,,72,127
31339,note_off,127,0,0,,0,,,72,127
31340,note_on,1,0,0,,7,,,67,127
31467,note_off,127,0,0,,7,,,67,127
31468,note_on,1,0,0,,3,,,63,127
31595,note_off,127,0,0,,3,,,63,127
31595,note_off,0,0,0,,0,,,60,127
31596,note_on,1,0,0,,0,,,60,127
31724,note_on,128,0,0,,0,,,72,127
31851,note_off,127,0,0,,0,,,72,127
31852,note_on,1,0,0,,0,,,84,127
31979,note_off,127,0,0,,0,,,84,127
31979,note_off,0,0,0,,0,,,60,127
31980,note_on,1,0,0,,0,,,60,127
31980,note_on,0,0,0,,11,,,82,127
32107,note_off,127,0,0,,11,,,82,127
32107,note_off,0,0,0,,0,,,60,127
32108,note_on,1,0,0,,0,,,72,127
32108,note_on,0,0,0,,8,,,80,127
32235,note_off,127,0,0,,8,,,80,127
32235,note_off,0,0,0,,0,,,72,127
32236,note_on,1,0,0,,11,,,70,127
32236,note_on,0,0,0,,7,,,79,127
32363,note_off,127,0,0,,7,,,79,127
32363,note_off,0,0,0,,11,,,70,127
32364,note_on,1,0,0,,8,,,68,127
32364,note_on,0,0,0,,5,,,77,127
32491,note_off,127,0,0,,5,,,77,127
32491,note_off,0,0,0,,8,,,68,127
32492,note_on,1,0,0,,7,,,67,127
32492,note_on,0,0,0,,3,,,75,127
32619,note_off,127,0,0,,3,,,75,127
32619,note_off,0,0,0,,7,,,67,127
32620,note_on,1,0,0,,5,,,65,127
32620,note_on,0,0,0,,2,,,74,127
32747,note_off,127,0,0,,2,,,74,127
32747,note_off,0,0,0,,5,,,65,127
32748,note_on,1,0,0,,3,,,63,127
32748,note_on,0,0,0,,0,,,72,127
32875,note_off,127,0,0,,0,,,72,127
32875,note_off,0,0,0,,3,,,63,127
32876,note_on,1,0,0,,2,,,62,127
32876,note_on,0,0,0,,11,,,70,127
33003,note_off,127,0,0,,11,,,70,127
33003,note_off,0,0,0,,2,,,62,127
33004,note_on,1,0,0,,0,,,60,127
33004,note_on,0,0,0,,10,,,69,127
33131,note_off,127,0,0,,10,,,69,127
33131,note_off,0,0,0,,0,,,60,127
33132,note_on,1,0,0,,2,,,62,127
33132,note_on,0,0,0,,11,,,70,127
33259,note_off,127,0,0,,11,,,70,127
33260,note_on,1,0,0,,11,,,70,127
33387,note_off,127,0,0,,11,,,70,127
33388,note_on,1,0,0,,11,,,82,127
33515,note_off,127,0,0,,11,,,82,127
33515,note_off,0,0,0,,2,,,62,127
33516,note_on,1,0,0,,11,,,58,127
33516,note_on,0,0,0,,8,,,80,127
33643,note_off,127,0,0,,8,,,80,127
33643,note_off,0,0,0,,11,,,58,127
33644,note_on,1,0,0,,11,,,70,127
33644,note_on,0,0,0,,7,,,79,127
33771,note_off,127,0,0,,7,,,79,127
33771,note_off,0,0,0,,11,,,70,127
33772,note_on,1,0,0,,8,,,68,127
33772,note_on,0,0,0,,5,,,77,127
33899,note_off,127,0,0,,5,,,77,127
33899,note_off,0,0,0,,8,,,68,127
33900,note_on,1,0,0,,7,,,67,127
33900,note_on,0,0,0,,3,,,75,127
34027,note_off,127,0,0,,3,,,75,127
34027,note_off,0,0,0,,7,,,67,127
34028,note_on,1,0,0,,5,,,65,127
34028,note_on,0,0,0,,2,,,74,127
34155,note_off,127,0,0,,2,,,74,127
34155,note_off,0,0,0,,5,,,65,127
34156,note_on,1,0,0,,3,,,63,127
34156,note_on,0,0,0,,0,,,72,127
34283,note_off,127,0,0,,0,,,72,127
34283,note_off,0,0,0,,3,,,63,127
34284,note_on,1,0,0,,2,,,62,127
34284,note_on,0,0,0,,11,,,70,127
34411,note_off,127,0,0,,11,,,70,127
34411,note_off,0,0,0,,2,,,62,127
34412,note_on,1,0,0,,0,,,60,127
34412,note_on,0,0,0,,8,,,68,127
34539,note_off,127,0,0,,8,,,68,127
34539,note_off,0,0,0,,0,,,60,127
34540,note_on,1,0,0,,11,,,58,127
34540,note_on,0,0,0,,7,,,67,127
34667,note_off,127,0,0,,7,,,67,127
34667,note_off,0,0,0,,11,,,58,127
34668,note_on,1,0,0,,0,,,60,127
34668,note_on,0,0,0,,8,,,68,127
34795,note_off,127,0,0,,8,,,68,127
34796,note_on,1,0,0,,8,,,68,127
34923,note_off,127,0,0,,8,,,68,127
34924,note_on,1,0,0,,8,,,80,127
35051,note_off,127,0,0,,8,,,80,127
35051,note_off,0,0,0,,0,,,60,127
35052,note_on,1,0,0,,8,,,56,127
35052,note_on,0,0,0,,7,,,79,127
35179,note_off,127,0,0,,7,,,79,127
35179,note_off,0,0,0,,8,,,56,127
35180,note_on,1,0,0,,8,,,68,127
35180,note_on,0,0,0,,5,,,77,127
35307,note_off,127,0,0,,5,,,77,127
35307,note_off,0,0,0,,8,,,68,127
35308,note_on,1,0,0,,7,,,67,127
35308,note_on,0,0,0,,3,,,75,127
35435,note_off,127,0,0,,3,,,75,127
35435,note_off,0,0,0,,7,,,67,127
35436,note_on,1,0,0,,5,,,65,127
35436,note_on,0,0,0,,2,,,74,127
35563,note_off,127,0,0,,2,,,74,127
35563,note_off,0,0,0,,5,,,65,127
35564,note_on,1,0,0,,3,,,63,127
35564,note_on,0,0,0,,0,,,72,127
35691,note_off,127,0,0,,0,,,72,127
35691,note_off,0,0,0,,3,,,63,127
35692,note_on,1,0,0,,2,,,62,127
35692,note_on,0,0,0,,11,,,70,127
35819,note_off,127,0,0,,11,,,70,127
35819,note_off,0,0,0,,2,,,62,127
35820,note_on,1,0,0,,0,,,60,127
35820,note_on,0,0,0,,10,,,69,127
35947,note_off,127,0,0,,10,,,69,127
35947,note_off,0,0,0,,0,,,60,127
35948,note_on,1,0,0,,11,,,58,127
35948,note_on,0,0,0,,7,,,67,127
36075,note_off,127,0,0,,7,,,67,127
36075,note_off,0,0,0,,11,,,58,127
36076,note_on,1,0,0,,8,,,56,127
36076,note_on,0,0,0,,6,,,66,127
36203,note_off,127,0,0,,6,,,66,127
36203,note_off,0,0,0,,8,,,56,127
36204,note_on,1,0,0,,7,,,55,127
36204,note_on,0,0,0,,7,,,67,127
36331,note_off,127,0,0,,7,,,67,127
36332,note_on,1,0,0,,10,,,69,127
36459,note_off,127,0,0,,10,,,69,127
36459,note_off,0,0,0,,7,,,55,127
36460,note_on,1,0,0,,3,,,51,127
36460,note_on,0,0,0,,11,,,70,127
36587,note_off,127,0,0,,11,,,70,127
36588,note_on,1,0,0,,12,,,71,127
36715,note_off,127,0,0,,12,,,71,127
36716,note_on,1,0,0,,0,,,72,127
36843,note_off,127,0,0,,0,,,72,127
36844,note_on,1,0,0,,1,,,73,127
36971,note_off,127,0,0,,1,,,73,127
36971,note_off,0,0,0,,3,,,51,127
36972,note_on,1,0,0,,2,,,50,127
36972,note_on,0,0,0,,2,,,74,127
37099,note_off,127,0,0,,2,,,74,127
37100,note_on,1,0,0,,10,,,69,127
37227,note_off,127,0,0,,10,,,69,127
37228,note_on,1,0,0,,6,,,66,127
37355,note_off,127,0,0,,6,,,66,127
37356,note_on,1,0,0,,2,,,62,127
37483,note_off,127,0,0,,2,,,62,127
37484,note_on,1,0,0,,10,,,57,127
37611,note_off,127,0,0,,10,,,57,127
37612,note_on,1,0,0,,6,,,54,127
37739,note_off,127,0,0,,6,,,54,127
37739,note_off,0,0,0,,2,,,50,127
37740,note_on,1,0,0,,2,,,74,127
37740,note_on,0,0,0,,2,,,50,127
37867,note_off,127,0,0,,2,,,74,127
37868,note_on,1,0,0,,10,,,69,127
37995,note_off,127,0,0,,10,,,69,127
37996,note_on,1,0,0,,6,,,66,127
38123,note_off,127,0,0,,6,,,66,127
38124,note_on,1,0,0,,2,,,62,127
38251,note_off,127,0,0,,2,,,62,127
38252,note_on,1,0,0,,10,,,57,127
38379,note_off,127,0,0,,10,,,57,127
38380,note_on,1,0,0,,6,,,54,127
38507,note_off,127,0,0,,6,,,54,127
38507,note_off,0,0,0,,2,,,50,127
38508,note_on,1,0,0,,2,,,50,127
38508,note_on,0,0,0,,2,,,74,127
38635,note_off,127,0,0,,2,,,74,127
38636,note_on,1,0,0,,10,,,69,127
38763,note_off,127,0,0,,10,,,69,127
38764,note_on,1,0,0,,6,,,66,127
38891,note_off,127,0,0,,6,,,66,127
38892,note_on,1,0,0,,2,,,62,127
39019,note_off,127,0,0,,2,,,62,127
39020,note_on,1,0,0,,10,,,57,127
39147,note_off,127,0,0,,10,,,57,127
39148,note_on,1,0,0,,6,,,54,127
39275,note_off,127,0,0,,6,,,54,127
39275,note_off,0,0,0,,2,,,50,127
39276,note_on,1,0,0,,2,,,74,127
39276,note_on,0,0,0,,2,,,50,127
39403,note_off,127,0,0,,2,,,74,127
39404,note_on,1,0,0,,10,,,69,127
39531,note_off,127,0,0,,10,,,69,127
39532,note_on,1,0,0,,6,,,66,127
39659,note_off,127,0,0,,6,,,66,127
39660,note_on,1,0,0,,2,,,62,127
39787,note_off,127,0,0,,2,,,62,127
39788,note_on,1,0,0,,10,,,57,127
39915,note_off,127,0,0,,10,,,57,127
39916,note_on,1,0,0,,6,,,54,127
40043,note_off,127,0,0,,6,,,54,127
40043,note_off,0,0,0,,2,,,50,127
40044,note_on,1,0,0,,2,,,50,127
40044,note_on,0,0,0,,2,,,38,127
40811,note_off,767,0,0,,2,,,38,127
40811,note_off,0,0,0,,2,,,50,127
40812,note_on,1,0,0,,2,,,62,127
40812,note_on,0,0,0,,6,,,66,127
40812,note_on,0,0,0,,2,,,74,127
40939,note_off,127,0,0,,2,,,74,127
40940,note_on,1,0,0,,0,,,72,127
41004,note_on,64,0,0,,11,,,70,127
41013,note_off,9,0,0,,0,,,72,127
41066,note_off,53,0,0,,6,,,66,127
41066,note_off,0,0,0,,2,,,62,127
41067,note_on,1,0,0,,2,,,62,127
41067,note_on,0,0,0,,6,,,66,127
41067,note_on,0,0,0,,10,,,69,127
41076,note_off,9,0,0,,11,,,70,127
41321,note_off,245,0,0,,6,,,66,127
41321,note_off,0,0,0,,2,,,62,127
41322,note_on,1,0,0,,2,,,62,127
41322,note_on,0,0,0,,6,,,66,127
41577,note_off,255,0,0,,6,,,66,127
41577,note_off,0,0,0,,2,,,62,127
41577,note_off,0,0,0,,10,,,69,127
41578,note_on,1,0,0,,6,,,66,127
41578,note_on,0,0,0,,0,,,60,127
41578,note_on,0,0,0,,3,,,75,127
41705,note_off,127,0,0,,3,,,75,127
41706,note_on,1,0,0,,0,,,72,127
41770,note_on,64,0,0,,11,,,70,127
41779,note_off,9,0,0,,0,,,72,127
41832,note_off,53,0,0,,0,,,60,127
41832,note_off,0,0,0,,6,,,66,127
41833,note_on,1,0,0,,6,,,66,127
41833,note_on,0,0,0,,0,,,60,127
41833,note_on,0,0,0,,10,,,69,127
41842,note_off,9,0,0,,11,,,70,127
42087,note_off,245,0,0,,0,,,60,127
42087,note_off,0,0,0,,6,,,66,127
42088,note_on,1,0,0,,6,,,66,127
42088,note_on,0,0,0,,0,,,60,127
42343,note_off,255,0,0,,0,,,60,127
42343,note_off,0,0,0,,6,,,66,127
42343,note_off,0,0,0,,10,,,69,127
42344,note_on,1,0,0,,6,,,66,127
42344,note_on,0,0,0,,2,,,62,127
42344,note_on,0,0,0,,2,,,74,127
42471,note_off,127,0,0,,2,,,74,127
42472,note_on,1,0,0,,0,,,72,127
42536,note_on,64,0,0,,11,,,70,127
42545,note_off,9,0,0,,0,,,72,127
42598,note_off,53,0,0,,2,,,62,127
42598,note_off,0,0,0,,6,,,66,127
42599,note_on,1,0,0,,6,,,66,127
42599,note_on,0,0,0,,2,,,62,127
42599,note_on,0,0,0,,10,,,69,127
42608,note_off,9,0,0,,11,,,70,127
42853,note_off,245,0,0,,2,,,62,127
42853,note_off,0,0,0,,6,,,66,127
42854,note_on,1,0,0,,6,,,66,127
42854,note_on,0,0,0,,2,,,62,127
43109,note_off,255,0,0,,2,,,62,127
43109,note_off,0,0,0,,6,,,66,127
43109,note_off,0,0,0,,10,,,69,127
43110,note_on,1,0,0,,6,,,66,127
43110,note_on,0,0,0,,0,,,60,127
43110,note_on,0,0,0,,3,,,75,127
43237,note_off,127,0,0,,3,,,75,127
43238,note_on,1,0,0,,0,,,72,127
43302,note_on,64,0,0,,11,,,70,127
43311,note_off,9,0,0,,0,,,72,127
43364,note_off,53,0,0,,0,,,60,127
43364,note_off,0,0,0,,6,,,66,127
43365,note_on,1,0,0,,6,,,66,127
43365,note_on,0,0,0,,0,,,60,127
43365,note_on,0,0,0,,10,,,69,127
43374,note_off,9,0,0,,11,,,70,127
43619,note_off,245,0,0,,0,,,60,127
43619,note_off,0,0,0,,6,,,66,127
43620,note_on,1,0,0,,6,,,66,127
43620,note_on,0,0,0,,0,,,60,127
43875,note_off,255,0,0,,0,,,60,127
43875,note_off,0,0,0,,6,,,66,127
43875,note_off,0,0,0,,10,,,69,127
43876,note_on,1,0,0,,6,,,66,127
43876,note_on,0,0,0,,10,,,69,127
43876,note_on,0,0,0,,0,,,60,127
43876,note_on,0,0,0,,10,,,81,127
44003,note_off,127,0,0,,10,,,81,127
44004,note_on,1,0,0,,3,,,75,127
44068,note_on,64,0,0,,2,,,74,127
44077,note_off,9,0,0,,3,,,75,127
44130,note_off,53,0,0,,0,,,60,127
44130,note_off,0,0,0,,10,,,69,127
44130,note_off,0,0,0,,6,,,66,127
44131,note_on,1,0,0,,10,,,69,127
44131,note_on,0,0,0,,6,,,66,127
44131,note_on,0,0,0,,0,,,60,127
44131,note_on,0,0,0,,0,,,72,127
44140,note_off,9,0,0,,2,,,74,127
44385,note_off,245,0,0,,0,,,60,127
44385,note_off,0,0,0,,6,,,66,127
44385,note_off,0,0,0,,10,,,69,127
44386,note_on,1,0,0,,0,,,60,127
44386,note_on,0,0,0,,6,,,66,127
44386,note_on,0,0,0,,10,,,69,127
44641,note_off,255,0,0,,10,,,69,127
44641,note_off,0,0,0,,6,,,66,127
44641,note_off,0,0,0,,0,,,60,127
44641,note_off,0,0,0,,0,,,72,127
44642,note_on,1,0,0,,11,,,58,127
44642,note_on,0,0,0,,7,,,67,127
44642,note_on,0,0,0,,2,,,62,127
44642,note_on,0,0,0,,2,,,86,127
44769,note_off,127,0,0,,2,,,86,127
44770,note_on,1,0,0,,11,,,82,127
44834,note_on,64,0,0,,10,,,81,127
44843,note_off,9,0,0,,11,,,82,127
44898,note_on,55,0,0,,7,,,79,127
44907,note_off,9,0,0,,10,,,81,127
45024,note_off,117,0,0,,2,,,62,127
45024,note_off,0,0,0,,11,,,58,127
45025,note_on,1,0,0,,10,,,57,127
45152,note_off,127,0,0,,10,,,57,127
45153,note_on,1,0,0,,11,,,58,127
45280,note_off,127,0,0,,7,,,79,127
45281,note_on,1,0,0,,11,,,82,127
45408,note_off,127,0,0,,11,,,82,127
45408,note_off,0,0,0,,11,,,58,127
45408,note_off,0,0,0,,7,,,67,127
45409,note_on,1,0,0,,3,,,63,127
45409,note_on,0,0,0,,0,,,60,127
45409,note_on,0,0,0,,10,,,81,127
45536,note_off,127,0,0,,10,,,81,127
45537,note_on,1,0,0,,0,,,84,127
45537,note_on,0,0,0,,3,,,75,127
45664,note_off,127,0,0,,3,,,75,127
45664,note_off,0,0,0,,0,,,84,127
45664,note_off,0,0,0,,0,,,60,127
45664,note_off,0,0,0,,3,,,63,127
45665,note_on,1,0,0,,2,,,62,127
45665,note_on,0,0,0,,2,,,74,127
45665,note_on,0,0,0,,11,,,82,127
45792,note_off,127,0,0,,11,,,82,127
45792,note_off,0,0,0,,2,,,74,127
45793,note_on,1,0,0,,0,,,72,127
45793,note_on,0,0,0,,10,,,81,127
45920,note_off,127,0,0,,10,,,81,127
45920,note_off,0,0,0,,0,,,72,127
45921,note_on,1,0,0,,2,,,50,127
45921,note_on,0,0,0,,7,,,79,127
45921,note_on,0,0,0,,11,,,70,127
46048,note_off,127,0,0,,11,,,70,127
46048,note_off,0,0,0,,7,,,79,127
46049,note_off,1,0,0,,2,,,62,127
46049,note_on,0,0,0,,10,,,69,127
46049,note_on,0,0,0,,6,,,78,127
46176,note_off,127,0,0,,6,,,78,127
46176,note_off,0,0,0,,10,,,69,127
46176,note_off,0,0,0,,2,,,50,127
46177,note_on,1,0,0,,7,,,55,127
46177,note_on,0,0,0,,7,,,43,127
46177,note_on,0,0,0,,7,,,79,127
46304,note_off,127,0,0,,7,,,79,127
46305,note_on,1,0,0,,11,,,70,127
46369,note_on,64,0,0,,10,,,69,127
46378,note_off,9,0,0,,11,,,70,127
46433,note_on,55,0,0,,7,,,67,127
46442,note_off,9,0,0,,10,,,69,127
46559,note_off,117,0,0,,7,,,43,127
46560,note_on,1,0,0,,10,,,45,127
46687,note_off,127,0,0,,10,,,45,127
46688,note_on,1,0,0,,11,,,46,127
46815,note_off,127,0,0,,7,,,67,127
46816,note_on,1,0,0,,11,,,70,127
46943,note_off,127,0,0,,11,,,70,127
46943,note_off,0,0,0,,11,,,46,127
46943,note_off,0,0,0,,7,,,55,127
46944,note_on,1,0,0,,0,,,48,127
46944,note_on,0,0,0,,10,,,69,127
47071,note_off,127,0,0,,10,,,69,127
47072,note_on,1,0,0,,0,,,72,127
47072,note_on,0,0,0,,3,,,63,127
47199,note_off,127,0,0,,3,,,63,127
47199,note_off,0,0,0,,0,,,72,127
47199,note_off,0,0,0,,0,,,48,127
47200,note_on,1,0,0,,2,,,50,127
47200,note_on,0,0,0,,11,,,70,127
47200,note_on,0,0,0,,2,,,62,127
47327,note_off,127,0,0,,2,,,62,127
47327,note_off,0,0,0,,11,,,70,127
47328,note_on,1,0,0,,0,,,60,127
47328,note_on,0,0,0,,10,,,69,127
47455,note_off,127,0,0,,10,,,69,127
47455,note_off,0,0,0,,0,,,60,127
47456,note_on,1,0,0,,2,,,38,127
47456,note_on,0,0,0,,7,,,67,127
47456,note_on,0,0,0,,11,,,58,127
47583,note_off,127,0,0,,11,,,58,127
47583,note_off,0,0,0,,7,,,67,127
47584,note_on,1,0,0,,10,,,57,127
47584,note_on,0,0,0,,6,,,66,127
47711,note_off,127,0,0,,6,,,66,127
47711,note_off,0,0,0,,10,,,57,127
47711,note_off,0,0,0,,2,,,38,127
47711,note_off,0,0,0,,2,,,50,127
47712,note_on,1,0,0,,7,,,43,127
47712,note_on,0,0,0,,7,,,67,127
47839,note_off,127,0,0,,7,,,67,127
47840,note_on,1,0,0,,11,,,58,127
47904,note_on,64,0,0,,10,,,57,127
47913,note_off,9,0,0,,11,,,58,127
47968,note_on,55,0,0,,7,,,55,127
47977,note_off,9,0,0,,10,,,57,127
48094,note_off,117,0,0,,7,,,43,127
48095,note_on,1,0,0,,10,,,45,127
48222,note_off,127,0,0,,10,,,45,127
48223,note_on,1,0,0,,11,,,46,127
48350,note_off,127,0,0,,7,,,55,127
48351,note_on,1,0,0,,11,,,58,127
48478,note_off,127,0,0,,11,,,58,127
48478,note_off,0,0,0,,11,,,46,127
48479,note_on,1,0,0,,0,,,48,127
48479,note_on,0,0,0,,10,,,57,127
48606,note_off,127,0,0,,10,,,57,127
48607,note_on,1,0,0,,0,,,60,127
48607,note_on,0,0,0,,3,,,63,127
48734,note_off,127,0,0,,3,,,63,127
48734,note_off,0,0,0,,0,,,60,127
48734,note_off,0,0,0,,0,,,48,127
48735,note_on,1,0,0,,2,,,50,127
48735,note_on,0,0,0,,2,,,62,127
48735,note_on,0,0,0,,11,,,58,127
48862,note_off,127,0,0,,11,,,58,127
48862,note_off,0,0,0,,2,,,62,127
48863,note_on,1,0,0,,0,,,60,127
48863,note_on,0,0,0,,10,,,57,127
48990,note_off,127,0,0,,10,,,57,127
48990,note_off,0,0,0,,0,,,60,127
48991,note_on,1,0,0,,2,,,38,127
48991,note_on,0,0,0,,11,,,58,127
48991,note_on,0,0,0,,7,,,55,127
49118,note_off,127,0,0,,7,,,55,127
49118,note_off,0,0,0,,11,,,58,127
49119,note_on,1,0,0,,6,,,54,127
49119,note_on,0,0,0,,10,,,57,127
49246,note_off,127,0,0,,10,,,57,127
49246,note_off,0,0,0,,6,,,54,127
49246,note_off,0,0,0,,2,,,38,127
49246,note_off,0,0,0,,2,,,50,127
49247,note_on,1,0,0,,7,,,43,127
49247,note_on,0,0,0,,7,,,55,127
49374,note_off,127,0,0,,7,,,55,127
49375,note_on,1,0,0,,10,,,57,127
49502,note_off,127,0,0,,10,,,57,127
49503,note_on,1,0,0,,11,,,58,127
49630,note_off,127,0,0,,11,,,58,127
49631,note_on,1,0,0,,12,,,59,127
49758,note_off,127,0,0,,12,,,59,127
49758,note_off,0,0,0,,7,,,43,127
49759,note_on,1,0,0,,7,,,55,127
49759,note_on,0,0,0,,0,,,60,127
49886,note_off,127,0,0,,0,,,60,127
49887,note_on,1,0,0,,1,,,61,127
50014,note_off,127,0,0,,1,,,61,127
50014,note_off,0,0,0,,7,,,55,127
50015,note_on,1,0,0,,6,,,54,127
50015,note_on,0,0,0,,2,,,62,127
50142,note_off,127,0,0,,2,,,62,127
50143,note_on,1,0,0,,2,,,62,127
50270,note_off,127,0,0,,2,,,62,127
50270,note_off,0,0,0,,6,,,54,127
50271,note_on,1,0,0,,2,,,50,127
50271,note_on,0,0,0,,3,,,63,127
50398,note_off,127,0,0,,3,,,63,127
50399,note_on,1,0,0,,4,,,64,127
50526,note_off,127,0,0,,4,,,64,127
50527,note_on,1,0,0,,2,,,62,127
50527,note_on,0,0,0,,5,,,65,127
50654,note_off,127,0,0,,5,,,65,127
50655,note_on,1,0,0,,6,,,66,127
50782,note_off,127,0,0,,6,,,66,127
50782,note_off,0,0,0,,2,,,62,127
50782,note_off,0,0,0,,2,,,50,127
50783,note_on,1,0,0,,11,,,58,127
50783,note_on,0,0,0,,7,,,67,127
50910,note_off,127,0,0,,7,,,67,127
50911,note_on,1,0,0,,10,,,69,127
51038,note_off,127,0,0,,10,,,69,127
51038,note_off,0,0,0,,11,,,58,127
51039,note_on,1,0,0,,7,,,55,127
51039,note_on,0,0,0,,11,,,70,127
51166,note_off,127,0,0,,11,,,70,127
51167,note_on,1,0,0,,12,,,71,127
51294,note_off,127,0,0,,12,,,71,127
51295,note_on,1,0,0,,7,,,67,127
51295,note_on,0,0,0,,0,,,72,127
51422,note_off,127,0,0,,0,,,72,127
51423,note_on,1,0,0,,1,,,73,127
51550,note_off,127,0,0,,1,,,73,127
51550,note_off,0,0,0,,7,,,67,127
51550,note_off,0,0,0,,7,,,55,127
51551,note_on,1,0,0,,6,,,66,127
51551,note_on,0,0,0,,2,,,74,127
51678,note_off,127,0,0,,2,,,74,127
51679,note_on,1,0,0,,2,,,74,127
51806,note_off,127,0,0,,2,,,74,127
51806,note_off,0,0,0,,6,,,66,127
51807,note_on,1,0,0,,2,,,62,127
51807,note_on,0,0,0,,3,,,75,127
51934,note_off,127,0,0,,3,,,75,127
51935,note_on,1,0,0,,4,,,76,127
52062,note_off,127,0,0,,4,,,76,127
52062,note_off,0,0,0,,2,,,62,127
52063,note_on,1,0,0,,0,,,60,127
52063,note_on,0,0,0,,5,,,77,127
52190,note_off,127,0,0,,5,,,77,127
52191,note_on,1,0,0,,6,,,78,127
52318,note_off,127,0,0,,6,,,78,127
52318,note_off,0,0,0,,0,,,60,127
52319,note_on,1,0,0,,2,,,62,127
52319,note_on,0,0,0,,7,,,67,127
52319,note_on,0,0,0,,11,,,58,127
52319,note_on,0,0,0,,2,,,86,127
52446,note_off,127,0,0,,2,,,86,127
52447,note_on,1,0,0,,11,,,82,127
52511,note_on,64,0,0,,10,,,81,127
52520,note_off,9,0,0,,11,,,82,127
52575,note_on,55,0,0,,7,,,79,127
52584,note_off,9,0,0,,10,,,81,127
52701,note_off,117,0,0,,11,,,58,127
52701,note_off,0,0,0,,2,,,62,127
52702,note_on,1,0,0,,10,,,57,127
52829,note_off,127,0,0,,10,,,57,127
52830,note_on,1,0,0,,11,,,58,127
52957,note_off,127,0,0,,7,,,79,127
52958,note_on,1,0,0,,11,,,82,127
53085,note_off,127,0,0,,11,,,82,127
53085,note_off,0,0,0,,11,,,58,127
53085,note_off,0,0,0,,7,,,67,127
53086,note_on,1,0,0,,0,,,60,127
53086,note_on,0,0,0,,3,,,63,127
53086,note_on,0,0,0,,10,,,81,127
53213,note_off,127,0,0,,10,,,81,127
53214,note_on,1,0,0,,0,,,84,127
53214,note_on,0,0,0,,3,,,75,127
53341,note_off,127,0,0,,3,,,75,127
53341,note_off,0,0,0,,0,,,84,127
53341,note_off,0,0,0,,3,,,63,127
53341,note_off,0,0,0,,0,,,60,127
53342,note_on,1,0,0,,2,,,62,127
53342,note_on,0,0,0,,2,,,74,127
53342,note_on,0,0,0,,11,,,82,127
53469,note_off,127,0,0,,11,,,82,127
53469,note_off,0,0,0,,2,,,74,127
53470,note_on,1,0,0,,0,,,72,127
53470,note_on,0,0,0,,10,,,81,127
53597,note_off,127,0,0,,10,,,81,127
53597,note_off,0,0,0,,0,,,72,127
53598,note_on,1,0,0,,2,,,50,127
53598,note_on,0,0,0,,7,,,79,127
53598,note_on,0,0,0,,11,,,70,127
53725,note_off,127,0,0,,11,,,70,127
53725,note_off,0,0,0,,7,,,79,127
53726,note_on,1,0,0,,10,,,69,127
53726,note_on,0,0,0,,6,,,78,127
53853,note_off,127,0,0,,6,,,78,127
53853,note_off,0,0,0,,10,,,69,127
53853,note_off,0,0,0,,2,,,50,127
53853,note_off,0,0,0,,2,,,62,127
53854,note_on,1,0,0,,7,,,55,127
53854,note_on,0,0,0,,2,,,62,127
53854,note_on,0,0,0,,7,,,79,127
53981,note_off,127,0,0,,7,,,79,127
53982,note_on,1,0,0,,11,,,70,127
54046,note_on,64,0,0,,10,,,69,127
54055,note_off,9,0,0,,11,,,70,127
54110,note_on,55,0,0,,7,,,67,127
54119,note_off,9,0,0,,10,,,69,127
54236,note_off,117,0,0,,7,,,55,127
54237,note_on,1,0,0,,10,,,57,127
54364,note_off,127,0,0,,10,,,57,127
54365,note_on,1,0,0,,11,,,58,127
54492,note_off,127,0,0,,7,,,67,127
54493,note_on,1,0,0,,11,,,70,127
54620,note_off,127,0,0,,11,,,70,127
54620,note_off,0,0,0,,11,,,58,127
54620,note_off,0,0,0,,2,,,62,127
54621,note_on,1,0,0,,0,,,60,127
54621,note_on,0,0,0,,3,,,63,127
54621,note_on,0,0,0,,10,,,69,127
54748,note_off,127,0,0,,10,,,69,127
54749,note_on,1,0,0,,0,,,72,127
54749,note_on,0,0,0,,3,,,75,127
54876,note_off,127,0,0,,3,,,75,127
54876,note_off,0,0,0,,0,,,72,127
54876,note_off,0,0,0,,3,,,63,127
54876,note_off,0,0,0,,0,,,60,127
54877,note_on,1,0,0,,2,,,62,127
54877,note_on,0,0,0,,11,,,70,127
54877,note_on,0,0,0,,2,,,74,127
55004,note_off,127,0,0,,2,,,74,127
55004,note_off,0,0,0,,11,,,70,127
55005,note_on,1,0,0,,10,,,69,127
55005,note_on,0,0,0,,0,,,72,127
55132,note_off,127,0,0,,0,,,72,127
55132,note_off,0,0,0,,10,,,69,127
55133,note_on,1,0,0,,2,,,50,127
55133,note_on,0,0,0,,7,,,67,127
55133,note_on,0,0,0,,11,,,70,127
55260,note_off,127,0,0,,11,,,70,127
55260,note_off,0,0,0,,7,,,67,127
55261,note_off,1,0,0,,2,,,62,127
55261,note_on,0,0,0,,6,,,66,127
55261,note_on,0,0,0,,10,,,69,127
55368,note_off,107,0,0,,10,,,69,127
55388,note_off,20,0,0,,6,,,66,127
55388,note_off,0,0,0,,2,,,50,127
55389,note_on,1,0,0,,7,,,43,127
55389,note_on,0,0,0,,7,,,55,127
55389,note_on,0,0,0,,5,,,77,127
55389,note_on,0,0,0,,2,,,86,127
55516,note_off,127,0,0,,5,,,77,127
55517,note_on,1,0,0,,2,,,74,127
55644,note_off,127,0,0,,2,,,74,127
55644,note_off,0,0,0,,2,,,86,127
55645,note_on,1,0,0,,3,,,75,127
55645,note_on,0,0,0,,0,,,84,127
55772,note_off,127,0,0,,3,,,75,127
55773,note_on,1,0,0,,0,,,72,127
55900,note_off,127,0,0,,0,,,72,127
55900,note_off,0,0,0,,0,,,84,127
55901,note_on,1,0,0,,2,,,74,127
55901,note_on,0,0,0,,11,,,82,127
56028,note_off,127,0,0,,2,,,74,127
56029,note_on,1,0,0,,11,,,70,127
56156,note_off,127,0,0,,11,,,70,127
56156,note_off,0,0,0,,11,,,82,127
56156,note_off,0,0,0,,7,,,55,127
56156,note_off,0,0,0,,7,,,43,127
56157,note_on,1,0,0,,7,,,55,127
56157,note_on,0,0,0,,7,,,43,127
56157,note_on,0,0,0,,0,,,72,127
56157,note_on,0,0,0,,8,,,80,127
56284,note_off,127,0,0,,0,,,72,127
56285,note_on,1,0,0,,8,,,68,127
56412,note_off,127,0,0,,8,,,68,127
56412,note_off,0,0,0,,8,,,80,127
56413,note_on,1,0,0,,7,,,79,127
56413,note_on,0,0,0,,11,,,70,127
56540,note_off,127,0,0,,11,,,70,127
56541,note_on,1,0,0,,7,,,67,127
56668,note_off,127,0,0,,7,,,67,127
56668,note_off,0,0,0,,7,,,79,127
56669,note_on,1,0,0,,8,,,68,127
56669,note_on,0,0,0,,5,,,77,127
56796,note_off,127,0,0,,8,,,68,127
56797,note_on,1,0,0,,5,,,65,127
56924,note_off,127,0,0,,5,,,65,127
56924,note_off,0,0,0,,5,,,77,127
56924,note_off,0,0,0,,7,,,43,127
56924,note_off,0,0,0,,7,,,55,127
56925,note_on,1,0,0,,7,,,55,127
56925,note_on,0,0,0,,7,,,43,127
56925,note_on,0,0,0,,7,,,67,127
56925,note_on,0,0,0,,3,,,75,127
57052,note_off,127,0,0,,7,,,67,127
57053,note_on,1,0,0,,3,,,63,127
57180,note_off,127,0,0,,3,,,63,127
57180,note_off,0,0,0,,3,,,75,127
57181,note_on,1,0,0,,5,,,65,127
57181,note_on,0,0,0,,2,,,74,127
57308,note_off,127,0,0,,5,,,65,127
57309,note_on,1,0,0,,2,,,62,127
57436,note_off,127,0,0,,2,,,62,127
57436,note_off,0,0,0,,2,,,74,127
57437,note_on,1,0,0,,0,,,72,127
57437,note_on,0,0,0,,3,,,63,127
57564,note_off,127,0,0,,3,,,63,127
57565,note_on,1,0,0,,0,,,60,127
57692,note_off,127,0,0,,0,,,60,127
57692,note_off,0,0,0,,0,,,72,127
57692,note_off,0,0,0,,7,,,43,127
57692,note_off,0,0,0,,7,,,55,127
57693,note_on,1,0,0,,7,,,55,127
57693,note_on,0,0,0,,7,,,43,127
57693,note_on,0,0,0,,12,,,71,127
57820,note_off,127,0,0,,12,,,71,127
57821,note_on,1,0,0,,0,,,72,127
57948,note_off,127,0,0,,0,,,72,127
57948,note_off,0,0,0,,7,,,55,127
57949,note_on,1,0,0,,8,,,56,127
57949,note_on,0,0,0,,2,,,74,127
58013,note_on,64,0,0,,0,,,72,127
58022,note_off,9,0,0,,2,,,74,127
58077,note_on,55,0,0,,2,,,74,127
58086,note_off,9,0,0,,0,,,72,127
58141,note_on,55,0,0,,0,,,72,127
58150,note_off,9,0,0,,2,,,74,127
58205,note_on,55,0,0,,2,,,74,127
58214,note_off,9,0,0,,0,,,72,127
58269,note_on,55,0,0,,0,,,72,127
58278,note_off,9,0,0,,2,,,74,127
58333,note_on,55,0,0,,12,,,71,127
58342,note_off,9,0,0,,0,,,72,127
58397,note_on,55,0,0,,0,,,72,127
58406,note_off,9,0,0,,12,,,71,127
58459,note_off,53,0,0,,8,,,56,127
58459,note_off,0,0,0,,7,,,43,127
58460,note_on,1,0,0,,7,,,55,127
58460,note_on,0,0,0,,2,,,74,127
58469,note_off,9,0,0,,0,,,72,127
58586,note_off,117,0,0,,2,,,74,127
58587,note_on,1,0,0,,12,,,71,127
58651,note_on,64,0,0,,10,,,69,127
58660,note_off,9,0,0,,12,,,71,127
58715,note_on,55,0,0,,7,,,67,127
58724,note_off,9,0,0,,10,,,69,127
58841,note_off,117,0,0,,7,,,55,127
58842,note_on,1,0,0,,5,,,65,127
58969,note_off,127,0,0,,5,,,65,127
58970,note_on,1,0,0,,3,,,63,127
59097,note_off,127,0,0,,3,,,63,127
59098,note_on,1,0,0,,2,,,62,127
59198,note_off,100,0,0,,7,,,67,127
59225,note_off,27,0,0,,2,,,62,127
59226,note_on,1,0,0,,0,,,60,127
59226,note_on,0,0,0,,7,,,79,127
59353,note_off,127,0,0,,7,,,79,127
59354,note_on,1,0,0,,3,,,75,127
59418,note_on,64,0,0,,2,,,74,127
59427,note_off,9,0,0,,3,,,75,127
59482,note_on,55,0,0,,0,,,72,127
59491,note_off,9,0,0,,2,,,74,127
59608,note_off,117,0,0,,0,,,60,127
59609,note_on,1,0,0,,11,,,70,127
59736,note_off,127,0,0,,11,,,70,127
59737,note_on,1,0,0,,8,,,68,127
59864,note_off,127,0,0,,8,,,68,127
59865,note_on,1,0,0,,7,,,67,127
59965,note_off,100,0,0,,0,,,72,127
59992,note_off,27,0,0,,7,,,67,127
59993,note_on,1,0,0,,5,,,65,127
59993,note_on,0,0,0,,0,,,84,127
60120,note_off,127,0,0,,0,,,84,127
60121,note_on,1,0,0,,8,,,80,127
60185,note_on,64,0,0,,7,,,79,127
60194,note_off,9,0,0,,8,,,80,127
60249,note_on,55,0,0,,5,,,77,127
60258,note_off,9,0,0,,7,,,79,127
60375,note_off,117,0,0,,5,,,65,127
60376,note_on,1,0,0,,3,,,63,127
60503,note_off,127,0,0,,3,,,63,127
60504,note_on,1,0,0,,1,,,61,127
60631,note_off,127,0,0,,1,,,61,127
60631,note_off,0,0,0,,5,,,77,127
60632,note_on,1,0,0,,0,,,60,127
60632,note_on,0,0,0,,0,,,72,127
60759,note_off,127,0,0,,0,,,72,127
60759,note_off,0,0,0,,0,,,60,127
60760,note_on,1,0,0,,11,,,58,127
60760,note_on,0,0,0,,1,,,73,127
60888,note_on,128,0,0,,11,,,70,127
61015,note_off,127,0,0,,11,,,70,127
61015,note_off,0,0,0,,1,,,73,127
61015,note_off,0,0,0,,11,,,58,127
61016,note_on,1,0,0,,0,,,60,127
61016,note_on,0,0,0,,4,,,76,127
61144,note_on,128,0,0,,0,,,72,127
61271,note_off,127,0,0,,0,,,72,127
61271,note_off,0,0,0,,4,,,76,127
61271,note_off,0,0,0,,0,,,60,127
61272,note_on,1,0,0,,1,,,61,127
61272,note_on,0,0,0,,5,,,77,127
61272,note_on,0,0,0,,1,,,73,127
61399,note_off,127,0,0,,1,,,73,127
61400,note_on,1,0,0,,11,,,70,127
61527,note_off,127,0,0,,11,,,70,127
61527,note_off,0,0,0,,5,,,77,127
61527,note_off,0,0,0,,1,,,61,127
61528,note_on,1,0,0,,0,,,60,127
61528,note_on,0,0,0,,0,,,84,127
61655,note_off,127,0,0,,0,,,84,127
61656,note_on,1,0,0,,7,,,79,127
61783,note_off,127,0,0,,7,,,79,127
61784,note_on,1,0,0,,4,,,76,127
61911,note_off,127,0,0,,4,,,76,127
61912,note_on,1,0,0,,0,,,72,127
62039,note_off,127,0,0,,0,,,72,127
62040,note_on,1,0,0,,7,,,67,127
62167,note_off,127,0,0,,7,,,67,127
62168,note_on,1,0,0,,4,,,64,127
62295,note_off,127,0,0,,4,,,64,127
62295,note_off,0,0,0,,0,,,60,127
62296,note_on,1,0,0,,0,,,84,127
62296,note_on,0,0,0,,0,,,60,127
62423,note_off,127,0,0,,0,,,84,127
62424,note_on,1,0,0,,7,,,79,127
62551,note_off,127,0,0,,7,,,79,127
62552,note_on,1,0,0,,4,,,76,127
62679,note_off,127,0,0,,4,,,76,127
62680,note_on,1,0,0,,0,,,72,127
62807,note_off,127,0,0,,0,,,72,127
62808,note_on,1,0,0,,7,,,67,127
62935,note_off,127,0,0,,7,,,67,127
62936,note_on,1,0,0,,4,,,64,127
63063,note_off,127,0,0,,4,,,64,127
63063,note_off,0,0,0,,0,,,60,127
63064,note_on,1,0,0,,0,,,60,127
63064,note_on,0,0,0,,0,,,84,127
63191,note_off,127,0,0,,0,,,84,127
63192,note_on,1,0,0,,7,,,79,127
63319,note_off,127,0,0,,7,,,79,127
63320,note_on,1,0,0,,4,,,76,127
63447,note_off,127,0,0,,4,,,76,127
63448,note_on,1,0,0,,0,,,72,127
63575,note_off,127,0,0,,0,,,72,127
63576,note_on,1,0,0,,7,,,67,127
63703,note_off,127,0,0,,7,,,67,127
63704,note_on,1,0,0,,4,,,64,127
63831,note_off,127,0,0,,4,,,64,127
63831,note_off,0,0,0,,0,,,60,127
63832,note_on,1,0,0,,0,,,84,127
63832,note_on,0,0,0,,0,,,60,127
63959,note_off,127,0,0,,0,,,84,127
63960,note_on,1,0,0,,7,,,79,127
64087,note_off,127,0,0,,7,,,79,127
64088,note_on,1,0,0,,4,,,76,127
64215,note_off,127,0,0,,4,,,76,127
64216,note_on,1,0,0,,0,,,72,127
64343,note_off,127,0,0,,0,,,72,127
64344,note_on,1,0,0,,7,,,67,127
64471,note_off,127,0,0,,7,,,67,127
64472,note_on,1,0,0,,4,,,64,127
64599,note_off,127,0,0,,4,,,64,127
64599,note_off,0,0,0,,0,,,60,127
64600,note_on,1,0,0,,0,,,60,127
64728,note_on,128,0,0,,0,,,72,127
64855,note_off,127,0,0,,0,,,72,127
64856,note_on,1,0,0,,0,,,84,127
64983,note_off,127,0,0,,0,,,84,127
64983,note_off,0,0,0,,0,,,60,127
64984,note_on,1,0,0,,0,,,60,127
64984,note_on,0,0,0,,11,,,82,127
65111,note_off,127,0,0,,11,,,82,127
65111,note_off,0,0,0,,0,,,60,127
65112,note_on,1,0,0,,0,,,72,127
65112,note_on,0,0,0,,8,,,80,127
65239,note_off,127,0,0,,8,,,80,127
65239,note_off,0,0,0,,0,,,72,127
65240,note_on,1,0,0,,11,,,70,127
65240,note_on,0,0,0,,7,,,79,127
65367,note_off,127,0,0,,7,,,79,127
65367,note_off,0,0,0,,11,,,70,127
65368,note_on,1,0,0,,8,,,68,127
65368,note_on,0,0,0,,5,,,77,127
65495,note_off,127,0,0,,5,,,77,127
65495,note_off,0,0,0,,8,,,68,127
65496,note_on,1,0,0,,7,,,67,127
65496,note_on,0,0,0,,3,,,75,127
65623,note_off,127,0,0,,3,,,75,127
65623,note_off,0,0,0,,7,,,67,127
65624,note_on,1,0,0,,5,,,65,127
65624,note_on,0,0,0,,1,,,73,127
65751,note_off,127,0,0,,1,,,73,127
65751,note_off,0,0,0,,5,,,65,127
65752,note_on,1,0,0,,3,,,63,127
65752,note_on,0,0,0,,0,,,72,127
65879,note_off,127,0,0,,0,,,72,127
65879,note_off,0,0,0,,3,,,63,127
65880,note_on,1,0,0,,1,,,61,127
65880,note_on,0,0,0,,11,,,70,127
66007,note_off,127,0,0,,11,,,70,127
66007,note_off,0,0,0,,1,,,61,127
66008,note_on,1,0,0,,0,,,60,127
66008,note_on,0,0,0,,10,,,69,127
66115,note_off,107,0,0,,10,,,69,127
66135,note_off,20,0,0,,0,,,60,127
66136,note_on,1,0,0,,11,,,58,127
66136,note_on,0,0,0,,11,,,82,127
66263,note_off,127,0,0,,11,,,82,127
66264,note_on,1,0,0,,5,,,77,127
66391,note_off,127,0,0,,5,,,77,127
66392,note_on,1,0,0,,1,,,73,127
66519,note_off,127,0,0,,1,,,73,127
66520,note_on,1,0,0,,11,,,70,127
66647,note_off,127,0,0,,11,,,70,127
66648,note_on,1,0,0,,5,,,65,127
66775,note_off,127,0,0,,5,,,65,127
66776,note_on,1,0,0,,1,,,61,127
66903,note_off,127,0,0,,1,,,61,127
66903,note_off,0,0,0,,11,,,58,127
66904,note_on,1,0,0,,11,,,82,127
66904,note_on,0,0,0,,11,,,58,127
67031,note_off,127,0,0,,11,,,82,127
67032,note_on,1,0,0,,5,,,77,127
67159,note_off,127,0,0,,5,,,77,127
67160,note_on,1,0,0,,1,,,73,127
67287,note_off,127,0,0,,1,,,73,127
67288,note_on,1,0,0,,11,,,70,127
67415,note_off,127,0,0,,11,,,70,127
67416,note_on,1,0,0,,5,,,65,127
67543,note_off,127,0,0,,5,,,65,127
67544,note_on,1,0,0,,1,,,61,127
67671,note_off,127,0,0,,1,,,61,127
67671,note_off,0,0,0,,11,,,58,127
67672,note_on,1,0,0,,11,,,58,127
67672,note_on,0,0,0,,11,,,82,127
67799,note_off,127,0,0,,11,,,82,127
67800,note_on,1,0,0,,5,,,77,127
67927,note_off,127,0,0,,5,,,77,127
67928,note_on,1,0,0,,1,,,73,127
68055,note_off,127,0,0,,1,,,73,127
68056,note_on,1,0,0,,11,,,70,127
68183,note_off,127,0,0,,11,,,70,127
68184,note_on,1,0,0,,5,,,65,127
68311,note_off,127,0,0,,5,,,65,127
68312,note_on,1,0,0,,1,,,61,127
68439,note_off,127,0,0,,1,,,61,127
68439,note_off,0,0,0,,11,,,58,127
68440,note_on,1,0,0,,11,,,82,127
68440,note_on,0,0,0,,11,,,58,127
68567,note_off,127,0,0,,11,,,82,127
68568,note_on,1,0,0,,5,,,77,127
68695,note_off,127,0,0,,5,,,77,127
68696,note_on,1,0,0,,1,,,73,127
68823,note_off,127,0,0,,1,,,73,127
68824,note_on,1,0,0,,11,,,70,127
68951,note_off,127,0,0,,11,,,70,127
68952,note_on,1,0,0,,5,,,65,127
69079,note_off,127,0,0,,5,,,65,127
69080,note_on,1,0,0,,1,,,61,127
69207,note_off,127,0,0,,1,,,61,127
69207,note_off,0,0,0,,11,,,58,127
69208,note_on,1,0,0,,11,,,58,127
69336,note_on,128,0,0,,11,,,70,127
69463,note_off,127,0,0,,11,,,70,127
69464,note_on,1,0,0,,11,,,82,127
69591,note_off,127,0,0,,11,,,82,127
69591,note_off,0,0,0,,11,,,58,127
69592,note_on,1,0,0,,11,,,58,127
69592,note_on,0,0,0,,8,,,80,127
69719,note_off,127,0,0,,8,,,80,127
69719,note_off,0,0,0,,11,,,58,127
69720,note_on,1,0,0,,11,,,70,127
69720,note_on,0,0,0,,7,,,79,127
69847,note_off,127,0,0,,7,,,79,127
69847,note_off,0,0,0,,11,,,70,127
69848,note_on,1,0,0,,8,,,68,127
69848,note_on,0,0,0,,5,,,77,127
69975,note_off,127,0,0,,5,,,77,127
69975,note_off,0,0,0,,8,,,68,127
69976,note_on,1,0,0,,7,,,67,127
69976,note_on,0,0,0,,3,,,75,127
70103,note_off,127,0,0,,3,,,75,127
70103,note_off,0,0,0,,7,,,67,127
70104,note_on,1,0,0,,5,,,65,127
70104,note_on,0,0,0,,1,,,73,127
70231,note_off,127,0,0,,1,,,73,127
70231,note_off,0,0,0,,5,,,65,127
70232,note_on,1,0,0,,3,,,63,127
70232,note_on,0,0,0,,0,,,72,127
70359,note_off,127,0,0,,0,,,72,127
70359,note_off,0,0,0,,3,,,63,127
70360,note_on,1,0,0,,1,,,61,127
70360,note_on,0,0,0,,11,,,70,127
70487,note_off,127,0,0,,11,,,70,127
70487,note_off,0,0,0,,1,,,61,127
70488,note_on,1,0,0,,0,,,60,127
70488,note_on,0,0,0,,8,,,68,127
70615,note_off,127,0,0,,8,,,68,127
70615,note_off,0,0,0,,0,,,60,127
70616,note_on,1,0,0,,11,,,58,127
70616,note_on,0,0,0,,7,,,67,127
70743,note_off,127,0,0,,7,,,67,127
70743,note_off,0,0,0,,11,,,58,127
70744,note_on,1,0,0,,0,,,60,127
70744,note_on,0,0,0,,8,,,68,127
70871,note_off,127,0,0,,8,,,68,127
70872,note_on,1,0,0,,11,,,70,127
70999,note_off,127,0,0,,11,,,70,127
70999,note_off,0,0,0,,0,,,60,127
71000,note_on,1,0,0,,1,,,61,127
71000,note_on,0,0,0,,0,,,72,127
71064,note_on,64,0,0,,11,,,70,127
71073,note_off,9,0,0,,0,,,72,127
71128,note_on,55,0,0,,0,,,72,127
71137,note_off,9,0,0,,11,,,70,127
71192,note_on,55,0,0,,11,,,70,127
71201,note_off,9,0,0,,0,,,72,127
71254,note_off,53,0,0,,1,,,61,127
71255,note_on,1,0,0,,3,,,63,127
71255,note_on,0,0,0,,0,,,72,127
71264,note_off,9,0,0,,11,,,70,127
71319,note_on,55,0,0,,11,,,70,127
71328,note_off,9,0,0,,0,,,72,127
71383,note_on,55,0,0,,8,,,68,127
71392,note_off,9,0,0,,11,,,70,127
71447,note_on,55,0,0,,11,,,70,127
71456,note_off,9,0,0,,8,,,68,127
71509,note_off,53,0,0,,3,,,63,127
71510,note_on,1,0,0,,8,,,56,127
71510,note_on,0,0,0,,3,,,63,127
71510,note_on,0,0,0,,0,,,72,127
71519,note_off,9,0,0,,11,,,70,127
71615,note_off,96,0,0,,0,,,72,127
71638,note_on,23,0,0,,0,,,72,127
71765,note_off,127,0,0,,0,,,72,127
71766,note_on,1,0,0,,1,,,73,127
71893,note_off,127,0,0,,1,,,73,127
71894,note_on,1,0,0,,2,,,74,127
72021,note_off,127,0,0,,2,,,74,127
72021,note_off,0,0,0,,8,,,56,127
72022,note_on,1,0,0,,6,,,54,127
72022,note_on,0,0,0,,11,,,70,127
72022,note_on,0,0,0,,3,,,75,127
72149,note_off,127,0,0,,3,,,75,127
72150,note_on,1,0,0,,4,,,76,127
72277,note_off,127,0,0,,4,,,76,127
72277,note_off,0,0,0,,11,,,70,127
72277,note_off,0,0,0,,6,,,54,127
72277,note_off,0,0,0,,3,,,63,127
72278,note_on,1,0,0,,5,,,53,127
72278,note_on,0,0,0,,11,,,58,127
72278,note_on,0,0,0,,0,,,60,127
72278,note_on,0,0,0,,5,,,65,127
72278,note_on,0,0,0,,5,,,77,127
72278,note_on,0,0,0,,10,,,69,127
72405,note_off,127,0,0,,10,,,69,127
72405,note_off,0,0,0,,5,,,77,127
72406,note_on,1,0,0,,3,,,75,127
72533,note_off,127,0,0,,5,,,65,127
72533,note_off,0,0,0,,0,,,60,127
72533,note_off,0,0,0,,11,,,58,127
72533,note_off,0,0,0,,5,,,53,127
72534,note_on,1,0,0,,7,,,55,127
72534,note_on,0,0,0,,11,,,58,127
72534,note_on,0,0,0,,0,,,60,127
72534,note_on,0,0,0,,5,,,65,127
72789,note_off,255,0,0,,5,,,65,127
72789,note_off,0,0,0,,0,,,60,127
72789,note_off,0,0,0,,11,,,58,127
72789,note_off,0,0,0,,7,,,55,127
72790,note_on,1,0,0,,10,,,57,127
72790,note_on,0,0,0,,0,,,60,127
72790,note_on,0,0,0,,3,,,63,127
72790,note_on,0,0,0,,5,,,65,127
72917,note_off,127,0,0,,3,,,75,127
72918,note_on,1,0,0,,1,,,73,127
72982,note_on,64,0,0,,0,,,72,127
72991,note_off,9,0,0,,1,,,73,127
73044,note_off,53,0,0,,5,,,65,127
73044,note_off,0,0,0,,3,,,63,127
73044,note_off,0,0,0,,0,,,60,127
73044,note_off,0,0,0,,10,,,57,127
73045,note_on,1,0,0,,5,,,65,127
73045,note_on,0,0,0,,11,,,58,127
73045,note_on,0,0,0,,1,,,73,127
73054,note_off,9,0,0,,0,,,72,127
73171,note_off,117,0,0,,1,,,73,127
73172,note_on,1,0,0,,2,,,74,127
73299,note_off,127,0,0,,2,,,74,127
73300,note_on,1,0,0,,3,,,75,127
73427,note_off,127,0,0,,3,,,75,127
73428,note_on,1,0,0,,4,,,76,127
73555,note_off,127,0,0,,4,,,76,127
73555,note_off,0,0,0,,11,,,58,127
73556,note_on,1,0,0,,8,,,56,127
73556,note_on,0,0,0,,0,,,72,127
73556,note_on,0,0,0,,5,,,77,127
73683,note_off,127,0,0,,5,,,77,127
73684,note_on,1,0,0,,6,,,78,127
73811,note_off,127,0,0,,6,,,78,127
73811,note_off,0,0,0,,0,,,72,127
73811,note_off,0,0,0,,8,,,56,127
73811,note_off,0,0,0,,5,,,65,127
73812,note_on,1,0,0,,2,,,62,127
73812,note_on,0,0,0,,5,,,65,127
73812,note_on,0,0,0,,7,,,67,127
73812,note_on,0,0,0,,0,,,60,127
73812,note_on,0,0,0,,7,,,55,127
73812,note_on,0,0,0,,12,,,71,127
73812,note_on,0,0,0,,7,,,79,127
73939,note_off,127,0,0,,7,,,79,127
73939,note_off,0,0,0,,12,,,71,127
73940,note_on,1,0,0,,5,,,77,127
74067,note_off,127,0,0,,7,,,55,127
74067,note_off,0,0,0,,0,,,60,127
74067,note_off,0,0,0,,7,,,67,127
74067,note_off,0,0,0,,5,,,65,127
74067,note_off,0,0,0,,2,,,62,127
74068,note_on,1,0,0,,5,,,65,127
74068,note_on,0,0,0,,10,,,57,127
74068,note_on,0,0,0,,2,,,62,127
74068,note_on,0,0,0,,7,,,67,127
74068,note_on,0,0,0,,0,,,60,127
74323,note_off,255,0,0,,0,,,60,127
74323,note_off,0,0,0,,7,,,67,127
74323,note_off,0,0,0,,2,,,62,127
74323,note_off,0,0,0,,10,,,57,127
74323,note_off,0,0,0,,5,,,65,127
74324,note_on,1,0,0,,7,,,67,127
74324,note_on,0,0,0,,2,,,62,127
74324,note_on,0,0,0,,5,,,65,127
74324,note_on,0,0,0,,12,,,59,127
74451,note_off,127,0,0,,5,,,77,127
74452,note_on,1,0,0,,3,,,75,127
74516,note_on,64,0,0,,2,,,74,127
74525,note_off,9,0,0,,3,,,75,127
74578,note_off,53,0,0,,12,,,59,127
74578,note_off,0,0,0,,5,,,65,127
74578,note_off,0,0,0,,2,,,62,127
74578,note_off,0,0,0,,7,,,67,127
74579,note_on,1,0,0,,7,,,67,127
74579,note_on,0,0,0,,0,,,60,127
74579,note_on,0,0,0,,3,,,75,127
74588,note_off,9,0,0,,2,,,74,127
74705,note_off,117,0,0,,3,,,75,127
74706,note_on,1,0,0,,4,,,76,127
74833,note_off,127,0,0,,4,,,76,127
74834,note_on,1,0,0,,5,,,77,127
74961,note_off,127,0,0,,5,,,77,127
74962,note_on,1,0,0,,6,,,78,127
75089,note_off,127,0,0,,6,,,78,127
75089,note_off,0,0,0,,0,,,60,127
75090,note_on,1,0,0,,11,,,58,127
75090,note_on,0,0,0,,7,,,79,127
75090,note_on,0,0,0,,2,,,74,127
75217,note_off,127,0,0,,7,,,79,127
75218,note_on,1,0,0,,8,,,80,127
75345,note_off,127,0,0,,8,,,80,127
75345,note_off,0,0,0,,2,,,74,127
75345,note_off,0,0,0,,11,,,58,127
75345,note_off,0,0,0,,7,,,67,127
75346,note_on,1,0,0,,2,,,62,127
75346,note_on,0,0,0,,10,,,57,127
75346,note_on,0,0,0,,4,,,64,127
75346,note_on,0,0,0,,7,,,67,127
75346,note_on,0,0,0,,10,,,69,127
75346,note_on,0,0,0,,10,,,81,127
75346,note_on,0,0,0,,1,,,73,127
75473,note_off,127,0,0,,1,,,73,127
75473,note_off,0,0,0,,10,,,81,127
75474,note_on,1,0,0,,7,,,79,127
75601,note_off,127,0,0,,10,,,69,127
75601,note_off,0,0,0,,7,,,67,127
75601,note_off,0,0,0,,4,,,64,127
75601,note_off,0,0,0,,10,,,57,127
75601,note_off,0,0,0,,2,,,62,127
75602,note_on,1,0,0,,12,,,59,127
75602,note_on,0,0,0,,2,,,62,127
75602,note_on,0,0,0,,4,,,64,127
75602,note_on,0,0,0,,7,,,67,127
75602,note_on,0,0,0,,10,,,69,127
75857,note_off,255,0,0,,10,,,69,127
75857,note_off,0,0,0,,7,,,67,127
75857,note_off,0,0,0,,4,,,64,127
75857,note_off,0,0,0,,2,,,62,127
75857,note_off,0,0,0,,12,,,59,127
75858,note_on,1,0,0,,1,,,61,127
75858,note_on,0,0,0,,4,,,64,127
75858,note_on,0,0,0,,7,,,67,127
75858,note_on,0,0,0,,10,,,69,127
75985,note_off,127,0,0,,7,,,79,127
75986,note_on,1,0,0,,6,,,78,127
76050,note_on,64,0,0,,4,,,76,127
76059,note_off,9,0,0,,6,,,78,127
76112,note_off,53,0,0,,10,,,69,127
76112,note_off,0,0,0,,7,,,67,127
76112,note_off,0,0,0,,4,,,64,127
76112,note_off,0,0,0,,1,,,61,127
76113,note_on,1,0,0,,2,,,62,127
76113,note_on,0,0,0,,2,,,50,127
76113,note_on,0,0,0,,6,,,78,127
76113,note_on,0,0,0,,2,,,86,127
76122,note_off,9,0,0,,4,,,76,127
76239,note_off,117,0,0,,6,,,78,127
76240,note_on,1,0,0,,2,,,74,127
76367,note_off,127,0,0,,2,,,74,127
76367,note_off,0,0,0,,2,,,86,127
76368,note_on,1,0,0,,0,,,84,127
76368,note_on,0,0,0,,3,,,75,127
76495,note_off,127,0,0,,3,,,75,127
76496,note_on,1,0,0,,0,,,72,127
76623,note_off,127,0,0,,0,,,72,127
76623,note_off,0,0,0,,0,,,84,127
76624,note_on,1,0,0,,11,,,82,127
76624,note_on,0,0,0,,2,,,74,127
76751,note_off,127,0,0,,2,,,74,127
76752,note_on,1,0,0,,11,,,70,127
76879,note_off,127,0,0,,11,,,70,127
76879,note_off,0,0,0,,11,,,82,127
76879,note_off,0,0,0,,2,,,50,127
76879,note_off,0,0,0,,2,,,62,127
76880,note_on,1,0,0,,2,,,50,127
76880,note_on,0,0,0,,10,,,81,127
76880,note_on,0,0,0,,0,,,72,127
77007,note_off,127,0,0,,0,,,72,127
77008,note_on,1,0,0,,10,,,69,127
77135,note_off,127,0,0,,10,,,69,127
77135,note_off,0,0,0,,10,,,81,127
77136,note_on,1,0,0,,7,,,79,127
77136,note_on,0,0,0,,11,,,70,127
77263,note_off,127,0,0,,11,,,70,127
77264,note_on,1,0,0,,7,,,67,127
77391,note_off,127,0,0,,7,,,67,127
77391,note_off,0,0,0,,7,,,79,127
77392,note_on,1,0,0,,6,,,78,127
77392,note_on,0,0,0,,10,,,69,127
77519,note_off,127,0,0,,10,,,69,127
77520,note_on,1,0,0,,0,,,72,127
77647,note_off,127,0,0,,0,,,72,127
77647,note_off,0,0,0,,6,,,78,127
77647,note_off,0,0,0,,2,,,50,127
77648,note_on,1,0,0,,7,,,55,127
77648,note_on,0,0,0,,12,,,71,127
77648,note_on,0,0,0,,7,,,79,127
77775,note_off,127,0,0,,12,,,71,127
77776,note_on,1,0,0,,7,,,67,127
77903,note_off,127,0,0,,7,,,67,127
77903,note_off,0,0,0,,7,,,79,127
77904,note_on,1,0,0,,8,,,68,127
77904,note_on,0,0,0,,5,,,77,127
78031,note_off,127,0,0,,8,,,68,127
78032,note_on,1,0,0,,5,,,65,127
78159,note_off,127,0,0,,5,,,65,127
78159,note_off,0,0,0,,5,,,77,127
78160,note_on,1,0,0,,7,,,67,127
78160,note_on,0,0,0,,3,,,75,127
78287,note_off,127,0,0,,7,,,67,127
78288,note_on,1,0,0,,3,,,63,127
78415,note_off,127,0,0,,3,,,63,127
78415,note_off,0,0,0,,3,,,75,127
78415,note_off,0,0,0,,7,,,55,127
78416,note_on,1,0,0,,5,,,65,127
78416,note_on,0,0,0,,7,,,55,127
78416,note_on,0,0,0,,2,,,74,127
78543,note_off,127,0,0,,5,,,65,127
78544,note_on,1,0,0,,2,,,62,127
78671,note_off,127,0,0,,2,,,62,127
78671,note_off,0,0,0,,2,,,74,127
78672,note_on,1,0,0,,3,,,63,127
78672,note_on,0,0,0,,0,,,72,127
78799,note_off,127,0,0,,3,,,63,127
78800,note_on,1,0,0,,0,,,60,127
78927,note_off,127,0,0,,0,,,60,127
78927,note_off,0,0,0,,0,,,72,127
78928,note_on,1,0,0,,2,,,62,127
78928,note_on,0,0,0,,12,,,71,127
79055,note_off,127,0,0,,2,,,62,127
79056,note_on,1,0,0,,5,,,65,127
79183,note_off,127,0,0,,5,,,65,127
79183,note_off,0,0,0,,12,,,71,127
79183,note_off,0,0,0,,7,,,55,127
79184,note_on,1,0,0,,0,,,48,127
79184,note_on,0,0,0,,0,,,60,127
79184,note_on,0,0,0,,4,,,76,127
79184,note_on,0,0,0,,0,,,84,127
79311,note_off,127,0,0,,4,,,76,127
79312,note_on,1,0,0,,0,,,72,127
79439,note_off,127,0,0,,0,,,72,127
79439,note_off,0,0,0,,0,,,84,127
79440,note_on,1,0,0,,11,,,82,127
79440,note_on,0,0,0,,1,,,73,127
79567,note_off,127,0,0,,1,,,73,127
79568,note_on,1,0,0,,11,,,70,127
79695,note_off,127,0,0,,11,,,70,127
79695,note_off,0,0,0,,11,,,82,127
79696,note_on,1,0,0,,8,,,80,127
79696,note_on,0,0,0,,0,,,72,127
79823,note_off,127,0,0,,0,,,72,127
79824,note_on,1,0,0,,8,,,68,127
79951,note_off,127,0,0,,8,,,68,127
79951,note_off,0,0,0,,8,,,80,127
79951,note_off,0,0,0,,0,,,60,127
79951,note_off,0,0,0,,0,,,48,127
79952,note_on,1,0,0,,0,,,48,127
79952,note_on,0,0,0,,0,,,36,127
79952,note_on,0,0,0,,7,,,79,127
79952,note_on,0,0,0,,11,,,70,127
80079,note_off,127,0,0,,11,,,70,127
80080,note_on,1,0,0,,7,,,67,127
80207,note_off,127,0,0,,7,,,67,127
80207,note_off,0,0,0,,7,,,79,127
80208,note_on,1,0,0,,5,,,77,127
80208,note_on,0,0,0,,8,,,68,127
80335,note_off,127,0,0,,8,,,68,127
80336,note_on,1,0,0,,5,,,65,127
80463,note_off,127,0,0,,5,,,65,127
80463,note_off,0,0,0,,5,,,77,127
80464,note_on,1,0,0,,7,,,67,127
80464,note_on,0,0,0,,4,,,76,127
80591,note_off,127,0,0,,7,,,67,127
80592,note_on,1,0,0,,11,,,70,127
80687,note_off,95,0,0,,4,,,76,127
80719,note_off,32,0,0,,11,,,70,127
80719,note_off,0,0,0,,0,,,36,127
80719,note_off,0,0,0,,0,,,48,127
80720,note_on,1,0,0,,5,,,53,127
80720,note_on,0,0,0,,8,,,68,127
80847,note_off,127,0,0,,8,,,68,127
80848,note_on,1,0,0,,5,,,77,127
80976,note_on,128,0,0,,5,,,65,127
81103,note_off,127,0,0,,5,,,77,127
81104,note_on,1,0,0,,2,,,74,127
81231,note_off,127,0,0,,2,,,74,127
81231,note_off,0,0,0,,5,,,53,127
81232,note_on,1,0,0,,7,,,55,127
81232,note_on,0,0,0,,0,,,72,127
81359,note_off,127,0,0,,0,,,72,127
81360,note_on,1,0,0,,12,,,71,127
81487,note_off,127,0,0,,7,,,55,127
81487,note_off,0,0,0,,5,,,65,127
81488,note_on,1,0,0,,5,,,65,127
81488,note_on,0,0,0,,8,,,56,127
81615,note_off,127,0,0,,12,,,71,127
81616,note_on,1,0,0,,0,,,72,127
81743,note_off,127,0,0,,0,,,72,127
81743,note_off,0,0,0,,5,,,65,127
81744,note_on,1,0,0,,5,,,65,127
81744,note_on,0,0,0,,5,,,77,127
81871,note_off,127,0,0,,5,,,77,127
81872,note_on,1,0,0,,2,,,74,127
81999,note_off,127,0,0,,2,,,74,127
81999,note_off,0,0,0,,8,,,56,127
82000,note_on,1,0,0,,7,,,55,127
82000,note_on,0,0,0,,0,,,72,127
82127,note_off,127,0,0,,0,,,72,127
82128,note_on,1,0,0,,12,,,71,127
82255,note_off,127,0,0,,7,,,55,127
82255,note_off,0,0,0,,5,,,65,127
82256,note_on,1,0,0,,5,,,65,127
82256,note_on,0,0,0,,8,,,56,127
82383,note_off,127,0,0,,12,,,71,127
82384,note_on,1,0,0,,0,,,72,127
82511,note_off,127,0,0,,0,,,72,127
82511,note_off,0,0,0,,5,,,65,127
82512,note_on,1,0,0,,5,,,65,127
82512,note_on,0,0,0,,5,,,77,127
82639,note_off,127,0,0,,5,,,77,127
82640,note_on,1,0,0,,2,,,74,127
82767,note_off,127,0,0,,2,,,74,127
82767,note_off,0,0,0,,8,,,56,127
82768,note_on,1,0,0,,7,,,55,127
82768,note_on,0,0,0,,0,,,72,127
82895,note_off,127,0,0,,0,,,72,127
82896,note_on,1,0,0,,12,,,71,127
83023,note_off,127,0,0,,12,,,71,127
83023,note_off,0,0,0,,7,,,55,127
83023,note_off,0,0,0,,5,,,65,127
83024,note_on,1,0,0,,5,,,65,127
83024,note_on,0,0,0,,8,,,56,127
83024,note_on,0,0,0,,2,,,74,127
83024,note_on,0,0,0,,5,,,77,127
83151,note_off,127,0,0,,5,,,77,127
83151,note_off,0,0,0,,2,,,74,127
83152,note_on,1,0,0,,7,,,79,127
83152,note_on,0,0,0,,3,,,75,127
83279,note_off,127,0,0,,3,,,75,127
83279,note_off,0,0,0,,7,,,79,127
83279,note_off,0,0,0,,8,,,56,127
83279,note_off,0,0,0,,5,,,65,127
83280,note_on,1,0,0,,5,,,53,127
83280,note_on,0,0,0,,5,,,65,127
83280,note_on,0,0,0,,2,,,74,127
83280,note_on,0,0,0,,5,,,77,127
83407,note_off,127,0,0,,5,,,77,127
83407,note_off,0,0,0,,2,,,74,127
83408,note_on,1,0,0,,0,,,72,127
83408,note_on,0,0,0,,3,,,75,127
83535,note_off,127,0,0,,3,,,75,127
83535,note_off,0,0,0,,0,,,72,127
83536,note_on,1,0,0,,2,,,74,127
83536,note_on,0,0,0,,12,,,71,127
83663,note_off,127,0,0,,12,,,71,127
83663,note_off,0,0,0,,2,,,74,127
83664,note_on,1,0,0,,10,,,69,127
83664,note_on,0,0,0,,0,,,72,127
83791,note_off,127,0,0,,0,,,72,127
83791,note_off,0,0,0,,10,,,69,127
83791,note_off,0,0,0,,5,,,65,127
83791,note_off,0,0,0,,5,,,53,127
83792,note_on,1,0,0,,7,,,55,127
83792,note_on,0,0,0,,12,,,71,127
83919,note_off,127,0,0,,12,,,71,127
83920,note_on,1,0,0,,2,,,74,127
83920,note_on,0,0,0,,5,,,77,127
83984,note_on,64,0,0,,0,,,72,127
83984,note_on,0,0,0,,3,,,75,127
83993,note_off,9,0,0,,5,,,77,127
83993,note_off,0,0,0,,2,,,74,127
84048,note_on,55,0,0,,12,,,71,127
84048,note_on,0,0,0,,2,,,74,127
84057,note_off,9,0,0,,3,,,75,127
84057,note_off,0,0,0,,0,,,72,127
84174,note_off,117,0,0,,7,,,55,127
84175,note_on,1,0,0,,7,,,67,127
84175,note_on,0,0,0,,3,,,63,127
84302,note_off,127,0,0,,3,,,63,127
84302,note_off,0,0,0,,7,,,67,127
84303,note_on,1,0,0,,8,,,68,127
84303,note_on,0,0,0,,5,,,65,127
84430,note_off,127,0,0,,5,,,65,127
84430,note_off,0,0,0,,8,,,68,127
84431,note_on,1,0,0,,7,,,67,127
84431,note_on,0,0,0,,3,,,63,127
84558,note_off,127,0,0,,3,,,63,127
84558,note_off,0,0,0,,7,,,67,127
84559,note_on,1,0,0,,2,,,62,127
84559,note_on,0,0,0,,5,,,65,127
84686,note_off,127,0,0,,2,,,74,127
84686,note_off,0,0,0,,12,,,71,127
84687,note_on,1,0,0,,2,,,74,127
84687,note_on,0,0,0,,5,,,77,127
84751,note_on,64,0,0,,0,,,72,127
84751,note_on,0,0,0,,3,,,75,127
84760,note_off,9,0,0,,5,,,77,127
84760,note_off,0,0,0,,2,,,74,127
84815,note_on,55,0,0,,12,,,71,127
84815,note_on,0,0,0,,2,,,74,127
84824,note_off,9,0,0,,3,,,75,127
84824,note_off,0,0,0,,0,,,72,127
84941,note_off,117,0,0,,5,,,65,127
84941,note_off,0,0,0,,2,,,62,127
84942,note_on,1,0,0,,7,,,67,127
84942,note_on,0,0,0,,3,,,63,127
85069,note_off,127,0,0,,3,,,63,127
85069,note_off,0,0,0,,7,,,67,127
85070,note_on,1,0,0,,5,,,65,127
85070,note_on,0,0,0,,2,,,62,127
85197,note_off,127,0,0,,2,,,62,127
85197,note_off,0,0,0,,5,,,65,127
85198,note_on,1,0,0,,3,,,63,127
85198,note_on,0,0,0,,0,,,60,127
85325,note_off,127,0,0,,0,,,60,127
85325,note_off,0,0,0,,3,,,63,127
85326,note_on,1,0,0,,2,,,62,127
85326,note_on,0,0,0,,12,,,59,127
85453,note_off,127,0,0,,2,,,74,127
85453,note_off,0,0,0,,12,,,71,127
85454,note_on,1,0,0,,5,,,77,127
85454,note_on,0,0,0,,8,,,80,127
85518,note_on,64,0,0,,7,,,79,127
85518,note_on,0,0,0,,3,,,75,127
85527,note_off,9,0,0,,8,,,80,127
85527,note_off,0,0,0,,5,,,77,127
85582,note_on,55,0,0,,2,,,74,127
85582,note_on,0,0,0,,5,,,77,127
85591,note_off,9,0,0,,3,,,75,127
85591,note_off,0,0,0,,7,,,79,127
85708,note_off,117,0,0,,12,,,59,127
85708,note_off,0,0,0,,2,,,62,127
85709,note_on,1,0,0,,0,,,60,127
85709,note_on,0,0,0,,3,,,63,127
85836,note_off,127,0,0,,3,,,63,127
85836,note_off,0,0,0,,0,,,60,127
85837,note_on,1,0,0,,2,,,62,127
85837,note_on,0,0,0,,5,,,65,127
85837,note_on,0,0,0,,12,,,59,127
85964,note_off,127,0,0,,12,,,59,127
85964,note_off,0,0,0,,2,,,62,127
85965,note_on,1,0,0,,8,,,56,127
86092,note_off,127,0,0,,8,,,56,127
86092,note_off,0,0,0,,5,,,65,127
86093,note_on,1,0,0,,7,,,55,127
86093,note_on,0,0,0,,0,,,60,127
86093,note_on,0,0,0,,2,,,62,127
86093,note_on,0,0,0,,5,,,65,127
86220,note_off,127,0,0,,5,,,77,127
86220,note_off,0,0,0,,2,,,74,127
86221,note_on,1,0,0,,2,,,86,127
86285,note_on,64,0,0,,0,,,84,127
86294,note_off,9,0,0,,2,,,86,127
86349,note_on,55,0,0,,12,,,83,127
86358,note_off,9,0,0,,0,,,84,127
86475,note_off,117,0,0,,12,,,83,127
86476,note_on,1,0,0,,5,,,77,127
86603,note_off,127,0,0,,5,,,77,127
86603,note_off,0,0,0,,5,,,65,127
86603,note_off,0,0,0,,2,,,62,127
86603,note_off,0,0,0,,0,,,60,127
86603,note_off,0,0,0,,7,,,55,127
86604,note_on,1,0,0,,12,,,59,127
86604,note_on,0,0,0,,2,,,62,127
86604,note_on,0,0,0,,5,,,65,127
86604,note_on,0,0,0,,7,,,67,127
86604,note_on,0,0,0,,3,,,75,127
86731,note_off,127,0,0,,3,,,75,127
86732,note_on,1,0,0,,2,,,74,127
86859,note_off,127,0,0,,2,,,74,127
86859,note_off,0,0,0,,7,,,67,127
86859,note_off,0,0,0,,5,,,65,127
86859,note_off,0,0,0,,2,,,62,127
86859,note_off,0,0,0,,12,,,59,127
86860,note_on,1,0,0,,0,,,60,127
86860,note_on,0,0,0,,7,,,67,127
86860,note_on,0,0,0,,3,,,75,127
86987,note_off,127,0,0,,3,,,75,127
86988,note_on,1,0,0,,2,,,86,127
87115,note_off,127,0,0,,2,,,86,127
87116,note_on,1,0,0,,0,,,84,127
87243,note_off,127,0,0,,0,,,84,127
87243,note_off,0,0,0,,7,,,67,127
87243,note_off,0,0,0,,0,,,60,127
87244,note_on,1,0,0,,2,,,62,127
87244,note_on,0,0,0,,12,,,83,127
87371,note_off,127,0,0,,12,,,83,127
87371,note_off,0,0,0,,2,,,62,127
87372,note_on,1,0,0,,3,,,63,127
87372,note_on,0,0,0,,0,,,84,127
87499,note_off,127,0,0,,0,,,84,127
87500,note_on,1,0,0,,7,,,79,127
87627,note_off,127,0,0,,7,,,79,127
87627,note_off,0,0,0,,3,,,63,127
87628,note_on,1,0,0,,0,,,60,127
87628,note_on,0,0,0,,5,,,65,127
87628,note_on,0,0,0,,5,,,53,127
87628,note_on,0,0,0,,5,,,77,127
87628,note_on,0,0,0,,8,,,80,127
87756,note_on,128,0,0,,2,,,74,127
87788,note_off,32,0,0,,8,,,80,127
87788,note_off,0,0,0,,5,,,77,127
87883,note_off,95,0,0,,5,,,53,127
87883,note_off,0,0,0,,5,,,65,127
87883,note_off,0,0,0,,0,,,60,127
87884,note_on,1,0,0,,3,,,63,127
87884,note_on,0,0,0,,0,,,60,127
87884,note_on,0,0,0,,7,,,55,127
87884,note_on,0,0,0,,3,,,75,127
87884,note_on,0,0,0,,7,,,79,127
87916,note_off,32,0,0,,2,,,74,127
88012,note_on,96,0,0,,0,,,72,127
88044,note_off,32,0,0,,7,,,79,127
88044,note_off,0,0,0,,3,,,75,127
88139,note_off,95,0,0,,0,,,60,127
88139,note_off,0,0,0,,3,,,63,127
88140,note_on,1,0,0,,2,,,62,127
88140,note_on,0,0,0,,2,,,74,127
88140,note_on,0,0,0,,5,,,77,127
88172,note_off,32,0,0,,0,,,72,127
88268,note_on,96,0,0,,12,,,71,127
88300,note_off,32,0,0,,5,,,77,127
88300,note_off,0,0,0,,2,,,74,127
88395,note_off,95,0,0,,12,,,71,127
88395,note_off,0,0,0,,2,,,62,127
88395,note_off,0,0,0,,7,,,55,127
88396,note_on,1,0,0,,0,,,48,127
88396,note_on,0,0,0,,0,,,60,127
88396,note_on,0,0,0,,0,,,72,127
88523,note_off,127,0,0,,0,,,72,127
88524,note_on,1,0,0,,3,,,63,127
88588,note_on,64,0,0,,2,,,62,127
88597,note_off,9,0,0,,3,,,63,127
88650,note_off,53,0,0,,0,,,60,127
88651,note_on,1,0,0,,0,,,60,127
88660,note_off,9,0,0,,2,,,62,127
88777,note_off,117,0,0,,0,,,48,127
88778,note_on,1,0,0,,2,,,50,127
88905,note_off,127,0,0,,2,,,50,127
88906,note_on,1,0,0,,3,,,51,127
89033,note_off,127,0,0,,0,,,60,127
89034,note_on,1,0,0,,3,,,63,127
89161,note_off,127,0,0,,3,,,63,127
89161,note_off,0,0,0,,3,,,51,127
89162,note_on,1,0,0,,5,,,53,127
89162,note_on,0,0,0,,2,,,62,127
89289,note_off,127,0,0,,2,,,62,127
89290,note_on,1,0,0,,8,,,68,127
89417,note_off,127,0,0,,8,,,68,127
89417,note_off,0,0,0,,5,,,53,127
89418,note_on,1,0,0,,7,,,55,127
89418,note_on,0,0,0,,7,,,67,127
89545,note_off,127,0,0,,7,,,67,127
89546,note_on,1,0,0,,5,,,65,127
89673,note_off,127,0,0,,5,,,65,127
89674,note_on,1,0,0,,7,,,43,127
89674,note_on,0,0,0,,3,,,63,127
89801,note_off,127,0,0,,3,,,63,127
89802,note_on,1,0,0,,2,,,62,127
89929,note_off,127,0,0,,2,,,62,127
89929,note_off,0,0,0,,7,,,43,127
89929,note_off,0,0,0,,7,,,55,127
89930,note_on,1,0,0,,0,,,48,127
89930,note_on,0,0,0,,0,,,60,127
90037,note_off,107,0,0,,0,,,60,127
90057,note_off,20,0,0,,0,,,48,127
90058,note_on,1,0,0,,0,,,60,127
90185,note_off,127,0,0,,0,,,60,127
90186,note_on,1,0,0,,0,,,60,127
90186,note_on,0,0,0,,1,,,61,127
90313,note_off,127,0,0,,1,,,61,127
90313,note_off,0,0,0,,0,,,60,127
90314,note_on,1,0,0,,11,,,58,127
90314,note_on,0,0,0,,2,,,62,127
90441,note_off,127,0,0,,2,,,62,127
90441,note_off,0,0,0,,11,,,58,127
90442,note_on,1,0,0,,8,,,56,127
90442,note_on,0,0,0,,3,,,63,127
90569,note_off,127,0,0,,3,,,63,127
90569,note_off,0,0,0,,8,,,56,127
90570,note_on,1,0,0,,7,,,55,127
90570,note_on,0,0,0,,4,,,64,127
90697,note_off,127,0,0,,7,,,55,127
90698,note_on,1,0,0,,5,,,53,127
90698,note_on,0,0,0,,5,,,65,127
90825,note_off,127,0,0,,4,,,64,127
90826,note_on,1,0,0,,7,,,67,127
90953,note_off,127,0,0,,7,,,67,127
90954,note_on,1,0,0,,8,,,68,127
91081,note_off,127,0,0,,8,,,68,127
91081,note_off,0,0,0,,5,,,65,127
91081,note_off,0,0,0,,5,,,53,127
91082,note_on,1,0,0,,5,,,65,127
91082,note_on,0,0,0,,10,,,69,127
91209,note_off,127,0,0,,10,,,69,127
91209,note_off,0,0,0,,5,,,65,127
91210,note_on,1,0,0,,3,,,63,127
91210,note_on,0,0,0,,11,,,70,127
91337,note_off,127,0,0,,11,,,70,127
91337,note_off,0,0,0,,3,,,63,127
91338,note_on,1,0,0,,2,,,62,127
91338,note_on,0,0,0,,12,,,71,127
91465,note_off,127,0,0,,12,,,71,127
91465,note_off,0,0,0,,2,,,62,127
91466,note_on,1,0,0,,0,,,60,127
91466,note_on,0,0,0,,0,,,72,127
91593,note_off,127,0,0,,0,,,72,127
91593,note_off,0,0,0,,0,,,60,127
91594,note_on,1,0,0,,0,,,72,127
91722,note_on,128,0,0,,1,,,73,127
91849,note_off,127,0,0,,1,,,73,127
91849,note_off,0,0,0,,0,,,72,127
91850,note_on,1,0,0,,11,,,70,127
91850,note_on,0,0,0,,2,,,74,127
91977,note_off,127,0,0,,2,,,74,127
91977,note_off,0,0,0,,11,,,70,127
91978,note_on,1,0,0,,8,,,68,127
91978,note_on,0,0,0,,3,,,75,127
92105,note_off,127,0,0,,3,,,75,127
92105,note_off,0,0,0,,8,,,68,127
92106,note_on,1,0,0,,7,,,67,127
92106,note_on,0,0,0,,4,,,76,127
92233,note_off,127,0,0,,4,,,76,127
92233,note_off,0,0,0,,7,,,67,127
92234,note_on,1,0,0,,5,,,65,127
92234,note_on,0,0,0,,5,,,77,127
92361,note_off,127,0,0,,5,,,77,127
92362,note_on,1,0,0,,7,,,79,127
92489,note_off,127,0,0,,7,,,79,127
92490,note_on,1,0,0,,8,,,80,127
92617,note_off,127,0,0,,8,,,80,127
92617,note_off,0,0,0,,5,,,65,127
92618,note_on,1,0,0,,5,,,65,127
92618,note_on,0,0,0,,10,,,81,127
92745,note_off,127,0,0,,10,,,81,127
92745,note_off,0,0,0,,5,,,65,127
92746,note_on,1,0,0,,3,,,63,127
92746,note_on,0,0,0,,11,,,82,127
92873,note_off,127,0,0,,11,,,82,127
92873,note_off,0,0,0,,3,,,63,127
92874,note_on,1,0,0,,2,,,62,127
92874,note_on,0,0,0,,12,,,83,127
93001,note_off,127,0,0,,12,,,83,127
93001,note_off,0,0,0,,2,,,62,127
93002,note_on,1,0,0,,0,,,48,127
93002,note_on,0,0,0,,0,,,60,127
93002,note_on,0,0,0,,0,,,84,127
93129,note_off,127,0,0,,0,,,84,127
93130,note_on,1,0,0,,3,,,75,127
93194,note_on,64,0,0,,2,,,74,127
93203,note_off,9,0,0,,3,,,75,127
93258,note_on,55,0,0,,0,,,72,127
93267,note_off,9,0,0,,2,,,74,127
93384,note_off,117,0,0,,0,,,48,127
93385,note_on,1,0,0,,2,,,50,127
93512,note_off,127,0,0,,2,,,50,127
93513,note_on,1,0,0,,3,,,51,127
93640,note_off,127,0,0,,0,,,72,127
93641,note_on,1,0,0,,3,,,75,127
93768,note_off,127,0,0,,3,,,75,127
93768,note_off,0,0,0,,3,,,51,127
93768,note_off,0,0,0,,0,,,60,127
93769,note_on,1,0,0,,5,,,53,127
93769,note_on,0,0,0,,8,,,56,127
93769,note_on,0,0,0,,2,,,74,127
93896,note_off,127,0,0,,2,,,74,127
93897,note_on,1,0,0,,5,,,77,127
93897,note_on,0,0,0,,8,,,80,127
94024,note_off,127,0,0,,8,,,80,127
94024,note_off,0,0,0,,5,,,77,127
94024,note_off,0,0,0,,8,,,56,127
94024,note_off,0,0,0,,5,,,53,127
94025,note_on,1,0,0,,7,,,55,127
94025,note_on,0,0,0,,7,,,79,127
94025,note_on,0,0,0,,3,,,75,127
94152,note_off,127,0,0,,3,,,75,127
94152,note_off,0,0,0,,7,,,79,127
94153,note_on,1,0,0,,2,,,74,127
94153,note_on,0,0,0,,5,,,77,127
94280,note_off,127,0,0,,5,,,77,127
94280,note_off,0,0,0,,2,,,74,127
94281,note_on,1,0,0,,7,,,43,127
94281,note_on,0,0,0,,0,,,72,127
94281,note_on,0,0,0,,3,,,75,127
94408,note_off,127,0,0,,3,,,75,127
94408,note_off,0,0,0,,0,,,72,127
94409,note_on,1,0,0,,12,,,71,127
94409,note_on,0,0,0,,2,,,74,127
94536,note_off,127,0,0,,2,,,74,127
94536,note_off,0,0,0,,12,,,71,127
94536,note_off,0,0,0,,7,,,43,127
94536,note_off,0,0,0,,7,,,55,127
94537,note_on,1,0,0,,0,,,60,127
94537,note_on,0,0,0,,0,,,48,127
94537,note_on,0,0,0,,0,,,72,127
94664,note_off,127,0,0,,0,,,72,127
94665,note_on,1,0,0,,3,,,63,127
94729,note_on,64,0,0,,2,,,62,127
94738,note_off,9,0,0,,3,,,63,127
94791,note_off,53,0,0,,0,,,60,127
94792,note_on,1,0,0,,0,,,60,127
94801,note_off,9,0,0,,2,,,62,127
94918,note_off,117,0,0,,0,,,48,127
94919,note_on,1,0,0,,2,,,50,127
95046,note_off,127,0,0,,2,,,50,127
95047,note_on,1,0,0,,3,,,51,127
95174,note_off,127,0,0,,0,,,60,127
95175,note_on,1,0,0,,3,,,63,127
95302,note_off,127,0,0,,3,,,63,127
95302,note_off,0,0,0,,3,,,51,127
95303,note_on,1,0,0,,5,,,41,127
95303,note_on,0,0,0,,5,,,53,127
95303,note_on,0,0,0,,2,,,62,127
95430,note_off,127,0,0,,2,,,62,127
95431,note_on,1,0,0,,5,,,65,127
95431,note_on,0,0,0,,8,,,68,127
95558,note_off,127,0,0,,8,,,68,127
95558,note_off,0,0,0,,5,,,65,127
95558,note_off,0,0,0,,5,,,53,127
95558,note_off,0,0,0,,5,,,41,127
95559,note_on,1,0,0,,0,,,48,127
95559,note_on,0,0,0,,3,,,51,127
95559,note_on,0,0,0,,7,,,43,127
95559,note_on,0,0,0,,3,,,63,127
95559,note_on,0,0,0,,7,,,67,127
95686,note_off,127,0,0,,7,,,67,127
95686,note_off,0,0,0,,3,,,63,127
95687,note_on,1,0,0,,5,,,65,127
95687,note_on,0,0,0,,2,,,62,127
95814,note_off,127,0,0,,2,,,62,127
95814,note_off,0,0,0,,5,,,65,127
95814,note_off,0,0,0,,3,,,51,127
95814,note_off,0,0,0,,0,,,48,127
95815,note_on,1,0,0,,2,,,50,127
95815,note_on,0,0,0,,5,,,53,127
95815,note_on,0,0,0,,0,,,60,127
95815,note_on,0,0,0,,3,,,63,127
95942,note_off,127,0,0,,3,,,63,127
95942,note_off,0,0,0,,0,,,60,127
95943,note_on,1,0,0,,12,,,59,127
95943,note_on,0,0,0,,2,,,62,127
96070,note_off,127,0,0,,5,,,53,127
96070,note_off,0,0,0,,2,,,50,127
96070,note_off,0,0,0,,7,,,43,127
96073,note_off,3,0,0,,2,,,62,127
96073,note_off,0,0,0,,12,,,59,127
96076,note_on,3,0,0,,0,,,60,127
96076,note_on,0,0,0,,0,,,48,127
96076,note_on,0,0,0,,0,,,36,127
96205,note_off,129,0,0,,0,,,48,127
96205,note_off,0,0,0,,0,,,60,127
96209,note_on,4,0,0,,3,,,51,127
96276,note_on,67,0,0,,2,,,50,127
96284,note_off,8,0,0,,3,,,51,127
96343,note_on,59,0,0,,0,,,48,127
96351,note_off,8,0,0,,2,,,50,127
96470,note_off,119,0,0,,0,,,36,127
96477,note_on,7,0,0,,2,,,38,127
96606,note_off,129,0,0,,2,,,38,127
96610,note_on,4,0,0,,3,,,39,127
96737,note_off,127,0,0,,0,,,48,127
96744,note_on,7,0,0,,3,,,51,127
96872,note_off,128,0,0,,3,,,39,127
96873,note_off,1,0,0,,3,,,51,127
96876,note_on,3,0,0,,5,,,53,127
96876,note_on,0,0,0,,5,,,41,127
97009,note_on,133,0,0,,2,,,62,127
97137,note_off,128,0,0,,5,,,41,127
97137,note_off,0,0,0,,5,,,53,127
97142,note_on,5,0,0,,3,,,51,127
97142,note_on,0,0,0,,7,,,43,127
97270,note_off,128,0,0,,2,,,62,127
97275,note_on,5,0,0,,0,,,60,127
97403,note_off,128,0,0,,3,,,51,127
97408,note_on,5,0,0,,2,,,50,127
97408,note_on,0,0,0,,7,,,31,127
97536,note_off,128,0,0,,0,,,60,127
97541,note_on,5,0,0,,12,,,59,127
97666,note_off,125,0,0,,7,,,43,127
97669,note_off,3,0,0,,7,,,31,127
97669,note_off,0,0,0,,2,,,50,127
97670,note_off,1,0,0,,12,,,59,127
97673,note_on,3,0,0,,12,,,59,127
97673,note_on,0,0,0,,0,,,36,127
97673,note_on,0,0,0,,0,,,48,127
98156,note_off,483,0,0,,12,,,59,127
98159,note_on,3,0,0,,0,,,60,127
99807,note_off,1648,0,0,,0,,,60,127
99807,note_off,0,0,0,,0,,,48,127
99807,note_off,0,0,0,,0,,,36,127
104448,end_of_track,4641,1,0,,,,,,
