tick,type,time,meta,track,program,channel,pitch,tempo,note,velocity
0,copyright,0,1,0,,,,,,
0,program_change,0,0,0,6,0,,,,
0,pitchwheel,0,0,0,,0,0,,,
0,program_change,0,0,0,6,1,,,,
0,pitchwheel,0,0,0,,1,-590,,,
0,program_change,0,0,0,6,2,,,,
0,pitchwheel,0,0,0,,2,-272,,,
0,program_change,0,0,0,6,3,,,,
0,pitchwheel,0,0,0,,3,-353,,,
0,program_change,0,0,0,6,4,,,,
0,pitchwheel,0,0,0,,4,-560,,,
0,program_change,0,0,0,6,5,,,,
0,pitchwheel,0,0,0,,5,-80,,,
0,program_change,0,0,0,6,6,,,,
0,pitchwheel,0,0,0,,6,-625,,,
0,program_change,0,0,0,6,7,,,,
0,pitchwheel,0,0,0,,7,-130,,,
0,program_change,0,0,0,6,8,,,,
0,pitchwheel,0,0,0,,8,-512,,,
0,program_change,0,0,0,6,10,,,,
0,pitchwheel,0,0,0,,10,-464,,,
0,program_change,0,0,0,6,11,,,,
0,pitchwheel,0,0,0,,11,-208,,,
0,program_change,0,0,0,6,12,,,,
0,pitchwheel,0,0,0,,12,-553,,,
0,set_tempo,0,1,0,,,,500000,,
77,note_on,77,0,0,,3,,,51,127
77,note_on,0,0,0,,8,,,56,127
77,note_on,0,0,0,,8,,,44,127
77,note_on,0,0,0,,8,,,80,127
178,note_off,101,0,0,,8,,,80,127
180,note_on,2,0,0,,3,,,75,127
281,note_off,101,0,0,,3,,,75,127
283,note_on,2,0,0,,0,,,72,127
384,note_off,101,0,0,,0,,,72,127
386,note_on,2,0,0,,8,,,68,127
487,note_off,101,0,0,,8,,,68,127
489,note_on,2,0,0,,3,,,63,127
590,note_off,101,0,0,,3,,,63,127
592,note_on,2,0,0,,0,,,60,127
693,note_off,101,0,0,,0,,,60,127
694,note_off,1,0,0,,8,,,56,127
695,note_on,1,0,0,,8,,,56,127
1001,note_off,306,0,0,,8,,,56,127
1001,note_off,0,0,0,,8,,,44,127
1001,note_off,0,0,0,,3,,,51,127
1003,note_on,2,0,0,,3,,,39,127
1003,note_on,0,0,0,,3,,,51,127
1003,note_on,0,0,0,,7,,,79,127
1003,note_on,0,0,0,,3,,,75,127
1003,note_on,0,0,0,,1,,,73,127
1003,note_on,0,0,0,,11,,,70,127
1309,note_off,306,0,0,,11,,,70,127
1309,note_off,0,0,0,,1,,,73,127
1309,note_off,0,0,0,,3,,,75,127
1309,note_off,0,0,0,,7,,,79,127
1309,note_off,0,0,0,,3,,,51,127
1309,note_off,0,0,0,,3,,,39,127
1311,note_on,2,0,0,,8,,,44,127
1311,note_on,0,0,0,,8,,,56,127
1311,note_on,0,0,0,,8,,,80,127
1412,note_off,101,0,0,,8,,,80,127
1414,note_on,2,0,0,,3,,,75,127
1515,note_off,101,0,0,,3,,,75,127
1517,note_on,2,0,0,,0,,,72,127
1618,note_off,101,0,0,,0,,,72,127
1620,note_on,2,0,0,,8,,,68,127
1721,note_off,101,0,0,,8,,,68,127
1723,note_on,2,0,0,,3,,,63,127
1824,note_off,101,0,0,,3,,,63,127
1826,note_on,2,0,0,,0,,,60,127
1927,note_off,101,0,0,,0,,,60,127
1928,note_off,1,0,0,,8,,,56,127
1929,note_on,1,0,0,,8,,,56,127
2235,note_off,306,0,0,,8,,,56,127
2235,note_off,0,0,0,,8,,,44,127
2237,note_on,2,0,0,,3,,,39,127
2237,note_on,0,0,0,,3,,,51,127
2237,note_on,0,0,0,,11,,,82,127
2237,note_on,0,0,0,,7,,,79,127
2237,note_on,0,0,0,,3,,,75,127
2543,note_off,306,0,0,,3,,,75,127
2543,note_off,0,0,0,,7,,,79,127
2543,note_off,0,0,0,,11,,,82,127
2543,note_off,0,0,0,,3,,,51,127
2543,note_off,0,0,0,,3,,,39,127
2545,note_on,2,0,0,,8,,,44,127
2545,note_on,0,0,0,,8,,,56,127
2545,note_on,0,0,0,,0,,,84,127
2646,note_off,101,0,0,,0,,,84,127
2648,note_on,2,0,0,,8,,,80,127
2749,note_off,101,0,0,,8,,,80,127
2751,note_on,2,0,0,,3,,,75,127
2852,note_off,101,0,0,,3,,,75,127
2854,note_on,2,0,0,,0,,,72,127
2955,note_off,101,0,0,,0,,,72,127
2957,note_on,2,0,0,,8,,,68,127
3058,note_off,101,0,0,,8,,,68,127
3060,note_on,2,0,0,,3,,,63,127
3161,note_off,101,0,0,,3,,,63,127
3163,note_on,2,0,0,,0,,,60,127
3469,note_off,306,0,0,,0,,,60,127
3469,note_off,0,0,0,,8,,,56,127
3469,note_off,0,0,0,,8,,,44,127
3471,note_on,2,0,0,,3,,,39,127
3471,note_on,0,0,0,,3,,,51,127
3471,note_on,0,0,0,,7,,,79,127
3777,note_off,306,0,0,,7,,,79,127
3777,note_off,0,0,0,,3,,,51,127
3777,note_off,0,0,0,,3,,,39,127
3779,note_on,2,0,0,,8,,,56,127
3779,note_on,0,0,0,,7,,,79,127
3830,note_on,51,0,0,,8,,,80,127
3835,note_off,5,0,0,,7,,,79,127
3881,note_on,46,0,0,,11,,,82,127
3886,note_off,5,0,0,,8,,,80,127
3932,note_on,46,0,0,,8,,,80,127
3937,note_off,5,0,0,,11,,,82,127
3983,note_on,46,0,0,,11,,,82,127
3988,note_off,5,0,0,,8,,,80,127
4034,note_on,46,0,0,,8,,,80,127
4039,note_off,5,0,0,,11,,,82,127
4085,note_on,46,0,0,,8,,,44,127
4085,note_on,0,0,0,,11,,,82,127
4090,note_off,5,0,0,,8,,,80,127
4136,note_on,46,0,0,,8,,,80,127
4141,note_off,5,0,0,,11,,,82,127
4187,note_on,46,0,0,,11,,,82,127
4192,note_off,5,0,0,,8,,,80,127
4238,note_on,46,0,0,,8,,,80,127
4243,note_off,5,0,0,,11,,,82,127
4289,note_on,46,0,0,,7,,,79,127
4294,note_off,5,0,0,,8,,,80,127
4390,note_off,96,0,0,,7,,,79,127
4392,note_on,2,0,0,,7,,,79,127
4698,note_off,306,0,0,,7,,,79,127
4700,note_on,2,0,0,,8,,,80,127
4980,note_off,280,0,0,,8,,,80,127
5002,note_off,22,0,0,,8,,,56,127
5005,note_off,3,0,0,,8,,,44,127
5007,note_on,2,0,0,,11,,,70,127
5007,note_on,0,0,0,,1,,,61,127
5007,note_on,0,0,0,,4,,,76,127
5313,note_off,306,0,0,,4,,,76,127
5313,note_off,0,0,0,,1,,,61,127
5313,note_off,0,0,0,,11,,,70,127
5315,note_on,2,0,0,,1,,,61,127
5315,note_on,0,0,0,,11,,,70,127
5315,note_on,0,0,0,,5,,,77,127
5621,note_off,306,0,0,,11,,,70,127
5621,note_off,0,0,0,,1,,,61,127
5623,note_on,2,0,0,,11,,,70,127
5623,note_on,0,0,0,,1,,,61,127
5929,note_off,306,0,0,,1,,,61,127
5929,note_off,0,0,0,,11,,,70,127
5929,note_off,0,0,0,,5,,,77,127
5931,note_on,2,0,0,,1,,,61,127
5931,note_on,0,0,0,,11,,,70,127
5931,note_on,0,0,0,,11,,,82,127
5931,note_on,0,0,0,,8,,,80,127
6032,note_off,101,0,0,,8,,,80,127
6032,note_off,0,0,0,,11,,,82,127
6034,note_on,2,0,0,,7,,,79,127
6135,note_off,101,0,0,,7,,,79,127
6137,note_on,2,0,0,,5,,,77,127
6238,note_off,101,0,0,,5,,,77,127
6238,note_off,0,0,0,,11,,,70,127
6238,note_off,0,0,0,,1,,,61,127
6240,note_on,2,0,0,,0,,,60,127
6240,note_on,0,0,0,,11,,,70,127
6240,note_on,0,0,0,,2,,,74,127
6546,note_off,306,0,0,,2,,,74,127
6546,note_off,0,0,0,,11,,,70,127
6546,note_off,0,0,0,,0,,,60,127
6548,note_on,2,0,0,,11,,,70,127
6548,note_on,0,0,0,,0,,,60,127
6548,note_on,0,0,0,,3,,,75,127
6854,note_off,306,0,0,,0,,,60,127
6854,note_off,0,0,0,,11,,,70,127
6856,note_on,2,0,0,,8,,,68,127
6856,note_on,0,0,0,,0,,,60,127
7162,note_off,306,0,0,,0,,,60,127
7162,note_off,0,0,0,,8,,,68,127
7162,note_off,0,0,0,,3,,,75,127
7164,note_on,2,0,0,,0,,,60,127
7164,note_on,0,0,0,,8,,,68,127
7164,note_on,0,0,0,,5,,,77,127
7239,note_off,75,0,0,,5,,,77,127
7241,note_on,2,0,0,,3,,,75,127
7316,note_off,75,0,0,,3,,,75,127
7318,note_on,2,0,0,,2,,,74,127
7393,note_off,75,0,0,,2,,,74,127
7395,note_on,2,0,0,,3,,,75,127
7470,note_off,75,0,0,,3,,,75,127
7470,note_off,0,0,0,,8,,,68,127
7470,note_off,0,0,0,,0,,,60,127
7472,note_on,2,0,0,,11,,,70,127
7472,note_on,0,0,0,,1,,,61,127
7472,note_on,0,0,0,,4,,,76,127
7778,note_off,306,0,0,,4,,,76,127
7778,note_off,0,0,0,,1,,,61,127
7778,note_off,0,0,0,,11,,,70,127
7780,note_on,2,0,0,,11,,,70,127
7780,note_on,0,0,0,,1,,,61,127
7780,note_on,0,0,0,,5,,,77,127
8086,note_off,306,0,0,,1,,,61,127
8086,note_off,0,0,0,,11,,,70,127
8088,note_on,2,0,0,,1,,,61,127
8088,note_on,0,0,0,,11,,,70,127
8394,note_off,306,0,0,,11,,,70,127
8394,note_off,0,0,0,,1,,,61,127
8394,note_off,0,0,0,,5,,,77,127
8396,note_on,2,0,0,,1,,,61,127
8396,note_on,0,0,0,,11,,,70,127
8396,note_on,0,0,0,,8,,,80,127
8396,note_on,0,0,0,,11,,,82,127
8497,note_off,101,0,0,,11,,,82,127
8497,note_off,0,0,0,,8,,,80,127
8499,note_on,2,0,0,,7,,,79,127
8600,note_off,101,0,0,,7,,,79,127
8602,note_on,2,0,0,,5,,,77,127
8703,note_off,101,0,0,,5,,,77,127
8703,note_off,0,0,0,,11,,,70,127
8703,note_off,0,0,0,,1,,,61,127
8705,note_on,2,0,0,,0,,,60,127
8705,note_on,0,0,0,,11,,,70,127
8705,note_on,0,0,0,,2,,,74,127
9011,note_off,306,0,0,,2,,,74,127
9011,note_off,0,0,0,,11,,,70,127
9011,note_off,0,0,0,,0,,,60,127
9013,note_on,2,0,0,,0,,,60,127
9013,note_on,0,0,0,,11,,,70,127
9013,note_on,0,0,0,,3,,,75,127
9319,note_off,306,0,0,,11,,,70,127
9319,note_off,0,0,0,,0,,,60,127
9321,note_on,2,0,0,,8,,,68,127
9321,note_on,0,0,0,,0,,,60,127
9627,note_off,306,0,0,,0,,,60,127
9627,note_off,0,0,0,,8,,,68,127
9627,note_off,0,0,0,,3,,,75,127
9629,note_on,2,0,0,,0,,,60,127
9629,note_on,0,0,0,,8,,,68,127
9629,note_on,0,0,0,,7,,,79,127
9730,note_off,101,0,0,,7,,,79,127
9732,note_on,2,0,0,,5,,,77,127
9833,note_off,101,0,0,,5,,,77,127
9835,note_on,2,0,0,,3,,,75,127
9936,note_off,101,0,0,,3,,,75,127
9936,note_off,0,0,0,,8,,,68,127
9936,note_off,0,0,0,,0,,,60,127
9938,note_on,2,0,0,,11,,,58,127
9938,note_on,0,0,0,,8,,,68,127
9938,note_on,0,0,0,,3,,,75,127
10090,note_off,152,0,0,,3,,,75,127
10092,note_on,2,0,0,,1,,,73,127
10244,note_off,152,0,0,,1,,,73,127
10244,note_off,0,0,0,,8,,,68,127
10244,note_off,0,0,0,,11,,,58,127
10246,note_on,2,0,0,,11,,,58,127
10246,note_on,0,0,0,,7,,,67,127
10246,note_on,0,0,0,,5,,,77,127
10347,note_off,101,0,0,,5,,,77,127
10349,note_on,2,0,0,,3,,,75,127
10450,note_off,101,0,0,,3,,,75,127
10452,note_on,2,0,0,,1,,,73,127
10553,note_off,101,0,0,,1,,,73,127
10553,note_off,0,0,0,,7,,,67,127
10553,note_off,0,0,0,,11,,,58,127
10555,note_on,2,0,0,,8,,,56,127
10555,note_on,0,0,0,,8,,,68,127
10555,note_on,0,0,0,,1,,,73,127
10707,note_off,152,0,0,,1,,,73,127
10709,note_on,2,0,0,,0,,,72,127
10861,note_off,152,0,0,,0,,,72,127
10861,note_off,0,0,0,,8,,,68,127
10861,note_off,0,0,0,,8,,,56,127
10863,note_on,2,0,0,,2,,,62,127
10863,note_on,0,0,0,,3,,,75,127
10964,note_off,101,0,0,,3,,,75,127
10966,note_on,2,0,0,,1,,,73,127
11067,note_off,101,0,0,,1,,,73,127
11069,note_on,2,0,0,,0,,,72,127
11170,note_off,101,0,0,,0,,,72,127
11170,note_off,0,0,0,,2,,,62,127
11172,note_on,2,0,0,,3,,,63,127
11172,note_on,0,0,0,,0,,,72,127
11478,note_off,306,0,0,,0,,,72,127
11480,note_on,2,0,0,,3,,,51,127
11480,note_on,0,0,0,,11,,,70,127
11555,note_off,75,0,0,,11,,,70,127
11557,note_on,2,0,0,,0,,,72,127
11632,note_off,75,0,0,,0,,,72,127
11633,note_off,1,0,0,,3,,,63,127
11634,note_on,1,0,0,,11,,,70,127
11709,note_off,75,0,0,,11,,,70,127
11711,note_on,2,0,0,,8,,,68,127
11786,note_off,75,0,0,,8,,,68,127
11788,note_on,2,0,0,,3,,,39,127
11788,note_on,0,0,0,,8,,,68,127
12094,note_off,306,0,0,,8,,,68,127
12095,note_off,1,0,0,,3,,,51,127
12096,note_on,1,0,0,,11,,,70,127
12384,note_off,288,0,0,,11,,,70,127
12402,note_off,18,0,0,,3,,,39,127
12404,note_on,2,0,0,,3,,,39,127
12404,note_on,0,0,0,,11,,,46,127
12404,note_on,0,0,0,,3,,,51,127
12404,note_on,0,0,0,,3,,,75,127
12505,note_off,101,0,0,,3,,,75,127
12507,note_on,2,0,0,,11,,,70,127
12608,note_off,101,0,0,,11,,,70,127
12610,note_on,2,0,0,,7,,,67,127
12711,note_off,101,0,0,,7,,,67,127
12713,note_on,2,0,0,,3,,,63,127
12814,note_off,101,0,0,,3,,,63,127
12816,note_on,2,0,0,,11,,,58,127
12917,note_off,101,0,0,,11,,,58,127
12919,note_on,2,0,0,,7,,,55,127
13020,note_off,101,0,0,,7,,,55,127
13021,note_off,1,0,0,,3,,,51,127
13022,note_on,1,0,0,,3,,,51,127
13328,note_off,306,0,0,,3,,,51,127
13328,note_off,0,0,0,,11,,,46,127
13328,note_off,0,0,0,,3,,,39,127
13330,note_on,2,0,0,,11,,,46,127
13330,note_on,0,0,0,,2,,,74,127
13330,note_on,0,0,0,,5,,,65,127
13330,note_on,0,0,0,,8,,,68,127
13330,note_on,0,0,0,,11,,,70,127
13636,note_off,306,0,0,,11,,,70,127
13636,note_off,0,0,0,,8,,,68,127
13636,note_off,0,0,0,,5,,,65,127
13636,note_off,0,0,0,,2,,,74,127
13636,note_off,0,0,0,,11,,,46,127
13638,note_on,2,0,0,,3,,,39,127
13638,note_on,0,0,0,,3,,,51,127
13638,note_on,0,0,0,,3,,,75,127
13739,note_off,101,0,0,,3,,,75,127
13741,note_on,2,0,0,,11,,,70,127
13842,note_off,101,0,0,,11,,,70,127
13844,note_on,2,0,0,,7,,,67,127
13945,note_off,101,0,0,,7,,,67,127
13947,note_on,2,0,0,,3,,,63,127
14048,note_off,101,0,0,,3,,,63,127
14050,note_on,2,0,0,,11,,,58,127
14151,note_off,101,0,0,,11,,,58,127
14153,note_on,2,0,0,,7,,,55,127
14254,note_off,101,0,0,,7,,,55,127
14255,note_off,1,0,0,,3,,,51,127
14256,note_on,1,0,0,,3,,,51,127
14562,note_off,306,0,0,,3,,,51,127
14562,note_off,0,0,0,,3,,,39,127
14564,note_on,2,0,0,,11,,,46,127
14564,note_on,0,0,0,,2,,,74,127
14564,note_on,0,0,0,,5,,,77,127
14564,note_on,0,0,0,,11,,,70,127
14870,note_off,306,0,0,,11,,,70,127
14870,note_off,0,0,0,,5,,,77,127
14870,note_off,0,0,0,,2,,,74,127
14870,note_off,0,0,0,,11,,,46,127
14872,note_on,2,0,0,,3,,,39,127
14872,note_on,0,0,0,,3,,,51,127
14872,note_on,0,0,0,,7,,,79,127
14973,note_off,101,0,0,,7,,,79,127
14975,note_on,2,0,0,,3,,,75,127
15076,note_off,101,0,0,,3,,,75,127
15078,note_on,2,0,0,,11,,,70,127
15179,note_off,101,0,0,,11,,,70,127
15181,note_on,2,0,0,,7,,,67,127
15282,note_off,101,0,0,,7,,,67,127
15284,note_on,2,0,0,,3,,,63,127
15385,note_off,101,0,0,,3,,,63,127
15387,note_on,2,0,0,,11,,,58,127
15488,note_off,101,0,0,,11,,,58,127
15490,note_on,2,0,0,,7,,,55,127
15796,note_off,306,0,0,,7,,,55,127
15796,note_off,0,0,0,,3,,,51,127
15796,note_off,0,0,0,,3,,,39,127
15798,note_on,2,0,0,,11,,,46,127
15798,note_on,0,0,0,,2,,,74,127
16103,note_off,305,0,0,,2,,,74,127
16104,note_off,1,0,0,,11,,,46,127
16106,note_on,2,0,0,,3,,,51,127
16106,note_on,0,0,0,,2,,,74,127
16157,note_on,51,0,0,,3,,,75,127
16162,note_off,5,0,0,,2,,,74,127
16208,note_on,46,0,0,,5,,,77,127
16213,note_off,5,0,0,,3,,,75,127
16259,note_on,46,0,0,,3,,,75,127
16264,note_off,5,0,0,,5,,,77,127
16310,note_on,46,0,0,,5,,,77,127
16315,note_off,5,0,0,,3,,,75,127
16361,note_on,46,0,0,,3,,,75,127
16366,note_off,5,0,0,,5,,,77,127
16412,note_on,46,0,0,,5,,,77,127
16417,note_off,5,0,0,,3,,,75,127
16463,note_on,46,0,0,,3,,,75,127
16468,note_off,5,0,0,,5,,,77,127
16514,note_on,46,0,0,,5,,,77,127
16519,note_off,5,0,0,,3,,,75,127
16565,note_on,46,0,0,,3,,,75,127
16570,note_off,5,0,0,,5,,,77,127
16616,note_on,46,0,0,,2,,,74,127
16621,note_off,5,0,0,,3,,,75,127
16717,note_off,96,0,0,,2,,,74,127
16719,note_on,2,0,0,,3,,,39,127
16719,note_on,0,0,0,,2,,,74,127
17025,note_off,306,0,0,,2,,,74,127
17027,note_on,2,0,0,,3,,,75,127
17307,note_off,280,0,0,,3,,,75,127
17329,note_off,22,0,0,,3,,,51,127
17332,note_off,3,0,0,,3,,,39,127
17334,note_on,2,0,0,,3,,,39,127
17334,note_on,0,0,0,,3,,,51,127
17334,note_on,0,0,0,,11,,,82,127
17436,note_on,102,0,0,,1,,,73,127
17534,note_off,98,0,0,,11,,,82,127
17537,note_off,3,0,0,,1,,,73,127
17539,note_on,2,0,0,,8,,,80,127
17640,note_off,101,0,0,,8,,,80,127
17640,note_off,0,0,0,,3,,,51,127
17640,note_off,0,0,0,,3,,,39,127
17642,note_on,2,0,0,,3,,,39,127
17642,note_on,0,0,0,,3,,,51,127
17642,note_on,0,0,0,,7,,,79,127
17744,note_on,102,0,0,,11,,,70,127
17842,note_off,98,0,0,,7,,,79,127
17845,note_off,3,0,0,,11,,,70,127
17847,note_on,2,0,0,,5,,,77,127
17948,note_off,101,0,0,,5,,,77,127
17948,note_off,0,0,0,,3,,,51,127
17948,note_off,0,0,0,,3,,,39,127
17950,note_on,2,0,0,,3,,,39,127
17950,note_on,0,0,0,,3,,,51,127
17950,note_on,0,0,0,,3,,,75,127
18052,note_on,102,0,0,,7,,,67,127
18150,note_off,98,0,0,,3,,,75,127
18153,note_off,3,0,0,,7,,,67,127
18155,note_on,2,0,0,,1,,,73,127
18256,note_off,101,0,0,,1,,,73,127
18256,note_off,0,0,0,,3,,,51,127
18256,note_off,0,0,0,,3,,,39,127
18258,note_on,2,0,0,,3,,,39,127
18258,note_on,0,0,0,,3,,,51,127
18258,note_on,0,0,0,,0,,,72,127
18360,note_on,102,0,0,,3,,,63,127
18458,note_off,98,0,0,,0,,,72,127
18463,note_on,5,0,0,,11,,,70,127
18564,note_off,101,0,0,,3,,,51,127
18564,note_off,0,0,0,,3,,,39,127
18565,note_off,1,0,0,,3,,,63,127
18566,note_on,1,0,0,,3,,,51,127
18566,note_on,0,0,0,,3,,,39,127
18566,note_on,0,0,0,,0,,,72,127
18872,note_off,306,0,0,,3,,,39,127
18872,note_off,0,0,0,,3,,,51,127
18873,note_off,1,0,0,,11,,,70,127
18874,note_on,1,0,0,,3,,,39,127
18874,note_on,0,0,0,,3,,,51,127
18874,note_on,0,0,0,,11,,,70,127
18925,note_on,51,0,0,,8,,,68,127
18930,note_off,5,0,0,,11,,,70,127
18976,note_on,46,0,0,,11,,,70,127
18981,note_off,5,0,0,,8,,,68,127
19027,note_on,46,0,0,,8,,,68,127
19032,note_off,5,0,0,,11,,,70,127
19078,note_off,46,0,0,,0,,,72,127
19079,note_on,1,0,0,,7,,,67,127
19079,note_on,0,0,0,,11,,,70,127
19084,note_off,5,0,0,,8,,,68,127
19180,note_off,96,0,0,,11,,,70,127
19180,note_off,0,0,0,,7,,,67,127
19180,note_off,0,0,0,,3,,,51,127
19180,note_off,0,0,0,,3,,,39,127
19182,note_on,2,0,0,,3,,,39,127
19182,note_on,0,0,0,,3,,,51,127
19182,note_on,0,0,0,,7,,,67,127
19182,note_on,0,0,0,,11,,,70,127
19488,note_off,306,0,0,,11,,,70,127
19488,note_off,0,0,0,,7,,,67,127
19488,note_off,0,0,0,,3,,,51,127
19488,note_off,0,0,0,,3,,,39,127
19490,note_on,2,0,0,,3,,,39,127
19490,note_on,0,0,0,,3,,,51,127
19490,note_on,0,0,0,,0,,,72,127
19490,note_on,0,0,0,,8,,,68,127
19796,note_off,306,0,0,,8,,,68,127
19796,note_off,0,0,0,,0,,,72,127
19796,note_off,0,0,0,,3,,,51,127
19796,note_off,0,0,0,,3,,,39,127
19798,note_on,2,0,0,,3,,,39,127
19798,note_on,0,0,0,,3,,,51,127
19798,note_on,0,0,0,,0,,,84,127
19900,note_on,102,0,0,,3,,,75,127
19998,note_off,98,0,0,,0,,,84,127
20001,note_off,3,0,0,,3,,,75,127
20003,note_on,2,0,0,,11,,,82,127
20104,note_off,101,0,0,,11,,,82,127
20104,note_off,0,0,0,,3,,,51,127
20104,note_off,0,0,0,,3,,,39,127
20106,note_on,2,0,0,,3,,,39,127
20106,note_on,0,0,0,,3,,,51,127
20106,note_on,0,0,0,,8,,,80,127
20208,note_on,102,0,0,,0,,,72,127
20306,note_off,98,0,0,,8,,,80,127
20309,note_off,3,0,0,,0,,,72,127
20311,note_on,2,0,0,,7,,,79,127
20412,note_off,101,0,0,,7,,,79,127
20412,note_off,0,0,0,,3,,,51,127
20412,note_off,0,0,0,,3,,,39,127
20414,note_on,2,0,0,,3,,,39,127
20414,note_on,0,0,0,,3,,,51,127
20414,note_on,0,0,0,,5,,,77,127
20516,note_on,102,0,0,,8,,,68,127
20614,note_off,98,0,0,,5,,,77,127
20617,note_off,3,0,0,,8,,,68,127
20619,note_on,2,0,0,,3,,,75,127
20720,note_off,101,0,0,,3,,,75,127
20720,note_off,0,0,0,,3,,,51,127
20720,note_off,0,0,0,,3,,,39,127
20722,note_on,2,0,0,,3,,,39,127
20722,note_on,0,0,0,,3,,,51,127
20722,note_on,0,0,0,,1,,,73,127
20824,note_on,102,0,0,,5,,,65,127
20922,note_off,98,0,0,,1,,,73,127
20927,note_on,5,0,0,,0,,,72,127
21028,note_off,101,0,0,,3,,,51,127
21028,note_off,0,0,0,,3,,,39,127
21029,note_off,1,0,0,,5,,,65,127
21030,note_on,1,0,0,,3,,,39,127
21030,note_on,0,0,0,,3,,,51,127
21030,note_on,0,0,0,,3,,,63,127
21336,note_off,306,0,0,,3,,,51,127
21336,note_off,0,0,0,,3,,,39,127
21337,note_off,1,0,0,,0,,,72,127
21338,note_on,1,0,0,,3,,,39,127
21338,note_on,0,0,0,,3,,,51,127
21338,note_on,0,0,0,,11,,,70,127
21389,note_on,51,0,0,,0,,,72,127
21394,note_off,5,0,0,,11,,,70,127
21440,note_on,46,0,0,,11,,,70,127
21445,note_off,5,0,0,,0,,,72,127
21491,note_on,46,0,0,,0,,,72,127
21496,note_off,5,0,0,,11,,,70,127
21542,note_on,46,0,0,,11,,,70,127
21547,note_off,5,0,0,,0,,,72,127
21593,note_on,46,0,0,,8,,,68,127
21598,note_off,5,0,0,,11,,,70,127
21641,note_off,43,0,0,,8,,,68,127
21643,note_off,2,0,0,,3,,,51,127
21643,note_off,0,0,0,,3,,,39,127
21645,note_on,2,0,0,,3,,,39,127
21645,note_on,0,0,0,,3,,,51,127
21645,note_on,0,0,0,,8,,,68,127
21951,note_off,306,0,0,,8,,,68,127
21951,note_off,0,0,0,,3,,,51,127
21951,note_off,0,0,0,,3,,,39,127
21953,note_on,2,0,0,,3,,,39,127
21953,note_on,0,0,0,,3,,,51,127
21953,note_on,0,0,0,,11,,,70,127
22259,note_off,306,0,0,,11,,,70,127
22259,note_off,0,0,0,,3,,,51,127
22259,note_off,0,0,0,,3,,,39,127
22260,note_off,1,0,0,,3,,,63,127
22261,note_on,1,0,0,,3,,,51,127
22261,note_on,0,0,0,,7,,,55,127
22261,note_on,0,0,0,,11,,,82,127
22363,note_on,102,0,0,,1,,,73,127
22376,note_off,13,0,0,,11,,,82,127
22466,note_on,90,0,0,,8,,,80,127
22479,note_off,13,0,0,,1,,,73,127
22567,note_off,88,0,0,,8,,,80,127
22567,note_off,0,0,0,,7,,,55,127
22567,note_off,0,0,0,,3,,,51,127
22569,note_on,2,0,0,,8,,,56,127
22569,note_on,0,0,0,,5,,,53,127
22569,note_on,0,0,0,,7,,,79,127
22671,note_on,102,0,0,,11,,,70,127
22684,note_off,13,0,0,,7,,,79,127
22774,note_on,90,0,0,,5,,,77,127
22787,note_off,13,0,0,,11,,,70,127
22875,note_off,88,0,0,,5,,,77,127
22875,note_off,0,0,0,,5,,,53,127
22875,note_off,0,0,0,,8,,,56,127
22877,note_on,2,0,0,,11,,,58,127
22877,note_on,0,0,0,,7,,,55,127
22877,note_on,0,0,0,,3,,,75,127
22979,note_on,102,0,0,,7,,,67,127
22992,note_off,13,0,0,,3,,,75,127
23082,note_on,90,0,0,,1,,,73,127
23095,note_off,13,0,0,,7,,,67,127
23183,note_off,88,0,0,,1,,,73,127
23183,note_off,0,0,0,,7,,,55,127
23183,note_off,0,0,0,,11,,,58,127
23185,note_on,2,0,0,,7,,,55,127
23185,note_on,0,0,0,,3,,,51,127
23185,note_on,0,0,0,,0,,,72,127
23287,note_on,102,0,0,,3,,,63,127
23300,note_off,13,0,0,,0,,,72,127
23390,note_on,90,0,0,,11,,,70,127
23491,note_off,101,0,0,,3,,,51,127
23491,note_off,0,0,0,,7,,,55,127
23492,note_off,1,0,0,,3,,,63,127
23493,note_on,1,0,0,,0,,,60,127
23493,note_on,0,0,0,,8,,,56,127
23493,note_on,0,0,0,,0,,,72,127
23799,note_off,306,0,0,,8,,,56,127
23799,note_off,0,0,0,,0,,,60,127
23800,note_off,1,0,0,,11,,,70,127
23801,note_on,1,0,0,,1,,,61,127
23801,note_on,0,0,0,,11,,,58,127
23801,note_on,0,0,0,,11,,,70,127
23852,note_on,51,0,0,,8,,,68,127
23857,note_off,5,0,0,,11,,,70,127
23903,note_on,46,0,0,,11,,,70,127
23908,note_off,5,0,0,,8,,,68,127
23954,note_on,46,0,0,,8,,,68,127
23959,note_off,5,0,0,,11,,,70,127
24005,note_off,46,0,0,,0,,,72,127
24006,note_on,1,0,0,,11,,,70,127
24006,note_on,0,0,0,,7,,,67,127
24011,note_off,5,0,0,,8,,,68,127
24107,note_off,96,0,0,,7,,,67,127
24107,note_off,0,0,0,,11,,,70,127
24107,note_off,0,0,0,,11,,,58,127
24107,note_off,0,0,0,,1,,,61,127
24109,note_on,2,0,0,,3,,,63,127
24109,note_on,0,0,0,,0,,,60,127
24109,note_on,0,0,0,,11,,,70,127
24109,note_on,0,0,0,,7,,,67,127
24415,note_off,306,0,0,,7,,,67,127
24415,note_off,0,0,0,,11,,,70,127
24415,note_off,0,0,0,,0,,,60,127
24415,note_off,0,0,0,,3,,,63,127
24417,note_on,2,0,0,,11,,,58,127
24417,note_on,0,0,0,,1,,,61,127
24417,note_on,0,0,0,,0,,,72,127
24417,note_on,0,0,0,,8,,,68,127
24723,note_off,306,0,0,,8,,,68,127
24723,note_off,0,0,0,,0,,,72,127
24723,note_off,0,0,0,,1,,,61,127
24723,note_off,0,0,0,,11,,,58,127
24725,note_on,2,0,0,,8,,,56,127
24725,note_on,0,0,0,,0,,,60,127
24725,note_on,0,0,0,,0,,,84,127
24827,note_on,102,0,0,,3,,,75,127
24840,note_off,13,0,0,,0,,,84,127
24930,note_on,90,0,0,,11,,,82,127
24943,note_off,13,0,0,,3,,,75,127
25031,note_off,88,0,0,,11,,,82,127
25031,note_off,0,0,0,,0,,,60,127
25031,note_off,0,0,0,,8,,,56,127
25033,note_on,2,0,0,,11,,,58,127
25033,note_on,0,0,0,,1,,,61,127
25033,note_on,0,0,0,,8,,,80,127
25135,note_on,102,0,0,,0,,,72,127
25148,note_off,13,0,0,,8,,,80,127
25238,note_on,90,0,0,,7,,,79,127
25251,note_off,13,0,0,,0,,,72,127
25339,note_off,88,0,0,,7,,,79,127
25339,note_off,0,0,0,,1,,,61,127
25339,note_off,0,0,0,,11,,,58,127
25341,note_on,2,0,0,,0,,,60,127
25341,note_on,0,0,0,,3,,,63,127
25341,note_on,0,0,0,,5,,,77,127
25443,note_on,102,0,0,,8,,,68,127
25456,note_off,13,0,0,,5,,,77,127
25546,note_on,90,0,0,,3,,,75,127
25559,note_off,13,0,0,,8,,,68,127
25647,note_off,88,0,0,,3,,,75,127
25647,note_off,0,0,0,,3,,,63,127
25647,note_off,0,0,0,,0,,,60,127
25649,note_on,2,0,0,,0,,,60,127
25649,note_on,0,0,0,,8,,,56,127
25649,note_on,0,0,0,,1,,,73,127
25751,note_on,102,0,0,,5,,,65,127
25764,note_off,13,0,0,,1,,,73,127
25854,note_on,90,0,0,,0,,,72,127
25955,note_off,101,0,0,,5,,,65,127
25955,note_off,0,0,0,,8,,,56,127
25955,note_off,0,0,0,,0,,,60,127
25957,note_on,2,0,0,,3,,,51,127
25957,note_on,0,0,0,,3,,,63,127
26263,note_off,306,0,0,,0,,,72,127
26264,note_on,1,0,0,,0,,,72,127
26315,note_on,51,0,0,,11,,,70,127
26320,note_off,5,0,0,,0,,,72,127
26366,note_on,46,0,0,,0,,,72,127
26371,note_off,5,0,0,,11,,,70,127
26417,note_on,46,0,0,,11,,,70,127
26422,note_off,5,0,0,,0,,,72,127
26468,note_on,46,0,0,,8,,,68,127
26473,note_off,5,0,0,,11,,,70,127
26569,note_off,96,0,0,,8,,,68,127
26569,note_off,0,0,0,,3,,,51,127
26571,note_on,2,0,0,,3,,,39,127
26571,note_on,0,0,0,,8,,,68,127
26877,note_off,306,0,0,,8,,,68,127
26879,note_on,2,0,0,,11,,,70,127
27182,note_off,303,0,0,,3,,,63,127
27185,note_off,3,0,0,,11,,,70,127
27185,note_off,0,0,0,,3,,,39,127
27493,note_on,308,0,0,,11,,,82,127
27493,note_on,0,0,0,,1,,,73,127
27799,note_off,306,0,0,,1,,,73,127
27799,note_off,0,0,0,,11,,,82,127
27801,note_on,2,0,0,,0,,,72,127
27801,note_on,0,0,0,,11,,,82,127
28107,note_off,306,0,0,,11,,,82,127
28107,note_off,0,0,0,,0,,,72,127
28109,note_on,2,0,0,,1,,,61,127
28109,note_on,0,0,0,,11,,,70,127
28109,note_on,0,0,0,,5,,,77,127
28109,note_on,0,0,0,,11,,,82,127
28415,note_off,306,0,0,,11,,,82,127
28415,note_off,0,0,0,,5,,,77,127
28415,note_off,0,0,0,,11,,,70,127
28415,note_off,0,0,0,,1,,,61,127
28417,note_on,2,0,0,,0,,,60,127
28417,note_on,0,0,0,,11,,,70,127
28417,note_on,0,0,0,,11,,,82,127
28417,note_on,0,0,0,,4,,,76,127
28723,note_off,306,0,0,,4,,,76,127
28723,note_off,0,0,0,,11,,,82,127
28723,note_off,0,0,0,,11,,,70,127
28723,note_off,0,0,0,,0,,,60,127
28725,note_on,2,0,0,,8,,,68,127
28725,note_on,0,0,0,,1,,,61,127
28725,note_on,0,0,0,,12,,,83,127
28725,note_on,0,0,0,,5,,,77,127
29031,note_off,306,0,0,,5,,,77,127
29031,note_off,0,0,0,,12,,,83,127
29031,note_off,0,0,0,,1,,,61,127
29031,note_off,0,0,0,,8,,,68,127
29033,note_on,2,0,0,,0,,,60,127
29033,note_on,0,0,0,,7,,,67,127
29033,note_on,0,0,0,,4,,,76,127
29033,note_on,0,0,0,,0,,,84,127
29339,note_off,306,0,0,,4,,,76,127
29339,note_off,0,0,0,,7,,,67,127
29339,note_off,0,0,0,,0,,,60,127
29341,note_on,2,0,0,,0,,,60,127
29341,note_on,0,0,0,,5,,,65,127
29341,note_on,0,0,0,,7,,,79,127
29416,note_off,75,0,0,,7,,,79,127
29418,note_on,2,0,0,,5,,,77,127
29493,note_off,75,0,0,,5,,,77,127
29495,note_on,2,0,0,,4,,,76,127
29570,note_off,75,0,0,,4,,,76,127
29572,note_on,2,0,0,,5,,,77,127
29647,note_off,75,0,0,,5,,,77,127
29647,note_off,0,0,0,,5,,,65,127
29647,note_off,0,0,0,,0,,,60,127
29648,note_off,1,0,0,,0,,,84,127
29649,note_on,1,0,0,,0,,,60,127
29649,note_on,0,0,0,,7,,,79,127
29750,note_off,101,0,0,,7,,,79,127
29752,note_on,2,0,0,,8,,,80,127
29853,note_off,101,0,0,,8,,,80,127
29855,note_on,2,0,0,,11,,,82,127
29956,note_off,101,0,0,,11,,,82,127
29958,note_on,2,0,0,,1,,,73,127
29958,note_on,0,0,0,,11,,,82,127
30264,note_off,306,0,0,,11,,,82,127
30264,note_off,0,0,0,,1,,,73,127
30266,note_on,2,0,0,,11,,,82,127
30266,note_on,0,0,0,,0,,,72,127
30572,note_off,306,0,0,,0,,,72,127
30572,note_off,0,0,0,,11,,,82,127
30572,note_off,0,0,0,,0,,,60,127
30574,note_on,2,0,0,,11,,,70,127
30574,note_on,0,0,0,,1,,,61,127
30574,note_on,0,0,0,,5,,,77,127
30574,note_on,0,0,0,,11,,,82,127
30880,note_off,306,0,0,,11,,,82,127
30880,note_off,0,0,0,,5,,,77,127
30880,note_off,0,0,0,,1,,,61,127
30880,note_off,0,0,0,,11,,,70,127
30882,note_on,2,0,0,,0,,,60,127
30882,note_on,0,0,0,,11,,,70,127
30882,note_on,0,0,0,,4,,,76,127
30882,note_on,0,0,0,,11,,,82,127
31188,note_off,306,0,0,,11,,,82,127
31188,note_off,0,0,0,,4,,,76,127
31188,note_off,0,0,0,,11,,,70,127
31188,note_off,0,0,0,,0,,,60,127
31190,note_on,2,0,0,,8,,,68,127
31190,note_on,0,0,0,,0,,,60,127
31190,note_on,0,0,0,,5,,,77,127
31190,note_on,0,0,0,,12,,,83,127
31496,note_off,306,0,0,,12,,,83,127
31496,note_off,0,0,0,,5,,,77,127
31496,note_off,0,0,0,,0,,,60,127
31496,note_off,0,0,0,,8,,,68,127
31498,note_on,2,0,0,,0,,,60,127
31498,note_on,0,0,0,,7,,,67,127
31498,note_on,0,0,0,,0,,,84,127
31498,note_on,0,0,0,,4,,,76,127
31804,note_off,306,0,0,,4,,,76,127
31804,note_off,0,0,0,,7,,,67,127
31804,note_off,0,0,0,,0,,,60,127
31806,note_on,2,0,0,,5,,,65,127
31806,note_on,0,0,0,,0,,,60,127
31806,note_on,0,0,0,,7,,,79,127
31857,note_on,51,0,0,,5,,,77,127
31862,note_off,5,0,0,,7,,,79,127
31908,note_on,46,0,0,,7,,,79,127
31913,note_off,5,0,0,,5,,,77,127
31959,note_on,46,0,0,,5,,,77,127
31964,note_off,5,0,0,,7,,,79,127
32010,note_on,46,0,0,,4,,,76,127
32015,note_off,5,0,0,,5,,,77,127
32061,note_on,46,0,0,,5,,,77,127
32066,note_off,5,0,0,,4,,,76,127
32111,note_off,45,0,0,,0,,,60,127
32111,note_off,0,0,0,,5,,,65,127
32112,note_off,1,0,0,,0,,,84,127
32113,note_on,1,0,0,,0,,,60,127
32113,note_on,0,0,0,,7,,,79,127
32118,note_off,5,0,0,,5,,,77,127
32214,note_off,96,0,0,,7,,,79,127
32216,note_on,2,0,0,,8,,,80,127
32317,note_off,101,0,0,,8,,,80,127
32319,note_on,2,0,0,,11,,,82,127
32420,note_off,101,0,0,,11,,,82,127
32422,note_on,2,0,0,,11,,,82,127
32422,note_on,0,0,0,,1,,,73,127
32728,note_off,306,0,0,,1,,,73,127
32728,note_off,0,0,0,,11,,,82,127
32730,note_on,2,0,0,,0,,,72,127
32730,note_on,0,0,0,,11,,,82,127
32884,note_off,154,0,0,,0,,,60,127
33036,note_off,152,0,0,,11,,,82,127
33036,note_off,0,0,0,,0,,,72,127
33038,note_on,2,0,0,,4,,,64,127
33038,note_on,0,0,0,,11,,,82,127
33038,note_on,0,0,0,,1,,,73,127
33344,note_off,306,0,0,,1,,,73,127
33344,note_off,0,0,0,,11,,,82,127
33344,note_off,0,0,0,,4,,,64,127
33346,note_on,2,0,0,,5,,,65,127
33346,note_on,0,0,0,,10,,,81,127
33346,note_on,0,0,0,,0,,,72,127
33447,note_off,101,0,0,,0,,,72,127
33449,note_on,2,0,0,,1,,,73,127
33550,note_off,101,0,0,,1,,,73,127
33552,note_on,2,0,0,,3,,,75,127
33653,note_off,101,0,0,,3,,,75,127
33653,note_off,0,0,0,,5,,,65,127
33654,note_off,1,0,0,,10,,,81,127
33655,note_on,1,0,0,,6,,,66,127
33655,note_on,0,0,0,,0,,,84,127
33655,note_on,0,0,0,,3,,,75,127
33961,note_off,306,0,0,,3,,,75,127
33961,note_off,0,0,0,,0,,,84,127
33961,note_off,0,0,0,,6,,,66,127
33963,note_on,2,0,0,,5,,,65,127
33963,note_on,0,0,0,,11,,,82,127
33963,note_on,0,0,0,,1,,,73,127
34269,note_off,306,0,0,,1,,,73,127
34269,note_off,0,0,0,,11,,,82,127
34269,note_off,0,0,0,,5,,,65,127
34271,note_on,2,0,0,,3,,,63,127
34271,note_on,0,0,0,,10,,,81,127
34271,note_on,0,0,0,,0,,,72,127
34501,note_off,230,0,0,,10,,,81,127
34576,note_off,75,0,0,,0,,,72,127
34576,note_off,0,0,0,,3,,,63,127
34578,note_on,2,0,0,,1,,,61,127
34578,note_on,0,0,0,,11,,,70,127
34679,note_off,101,0,0,,11,,,70,127
34681,note_on,2,0,0,,0,,,72,127
34782,note_off,101,0,0,,0,,,72,127
34784,note_on,2,0,0,,1,,,73,127
34885,note_off,101,0,0,,1,,,73,127
34885,note_off,0,0,0,,1,,,61,127
34887,note_on,2,0,0,,3,,,63,127
34887,note_on,0,0,0,,6,,,78,127
34887,note_on,0,0,0,,10,,,69,127
35193,note_off,306,0,0,,10,,,69,127
35193,note_off,0,0,0,,6,,,78,127
35193,note_off,0,0,0,,3,,,63,127
35195,note_on,2,0,0,,1,,,61,127
35195,note_on,0,0,0,,5,,,77,127
35195,note_on,0,0,0,,11,,,70,127
35501,note_off,306,0,0,,11,,,70,127
35501,note_off,0,0,0,,5,,,77,127
35501,note_off,0,0,0,,1,,,61,127
35503,note_on,2,0,0,,0,,,60,127
35503,note_on,0,0,0,,3,,,75,127
35503,note_on,0,0,0,,10,,,69,127
35783,note_off,280,0,0,,3,,,75,127
35809,note_off,26,0,0,,10,,,69,127
35810,note_off,1,0,0,,0,,,60,127
35811,note_on,1,0,0,,0,,,72,127
35912,note_off,101,0,0,,0,,,72,127
35914,note_on,2,0,0,,1,,,73,127
36015,note_off,101,0,0,,1,,,73,127
36017,note_on,2,0,0,,3,,,75,127
36118,note_off,101,0,0,,3,,,75,127
36120,note_on,2,0,0,,6,,,66,127
36120,note_on,0,0,0,,0,,,84,127
36120,note_on,0,0,0,,3,,,75,127
36426,note_off,306,0,0,,3,,,75,127
36426,note_off,0,0,0,,0,,,84,127
36426,note_off,0,0,0,,6,,,66,127
36428,note_on,2,0,0,,5,,,65,127
36428,note_on,0,0,0,,1,,,73,127
36428,note_on,0,0,0,,11,,,82,127
36734,note_off,306,0,0,,11,,,82,127
36734,note_off,0,0,0,,1,,,73,127
36734,note_off,0,0,0,,5,,,65,127
36736,note_on,2,0,0,,3,,,63,127
36736,note_on,0,0,0,,0,,,72,127
36736,note_on,0,0,0,,10,,,81,127
36966,note_off,230,0,0,,10,,,81,127
37041,note_off,75,0,0,,0,,,72,127
37041,note_off,0,0,0,,3,,,63,127
37043,note_on,2,0,0,,1,,,61,127
37043,note_on,0,0,0,,11,,,70,127
37144,note_off,101,0,0,,11,,,70,127
37146,note_on,2,0,0,,0,,,72,127
37247,note_off,101,0,0,,0,,,72,127
37249,note_on,2,0,0,,1,,,73,127
37350,note_off,101,0,0,,1,,,73,127
37350,note_off,0,0,0,,1,,,61,127
37352,note_on,2,0,0,,3,,,63,127
37352,note_on,0,0,0,,6,,,78,127
37352,note_on,0,0,0,,10,,,69,127
37658,note_off,306,0,0,,10,,,69,127
37658,note_off,0,0,0,,6,,,78,127
37658,note_off,0,0,0,,3,,,63,127
37660,note_on,2,0,0,,1,,,61,127
37660,note_on,0,0,0,,5,,,77,127
37660,note_on,0,0,0,,11,,,70,127
37966,note_off,306,0,0,,11,,,70,127
37966,note_off,0,0,0,,5,,,77,127
37966,note_off,0,0,0,,1,,,61,127
37968,note_on,2,0,0,,12,,,59,127
37968,note_on,0,0,0,,3,,,75,127
37968,note_on,0,0,0,,8,,,68,127
38274,note_off,306,0,0,,8,,,68,127
38274,note_off,0,0,0,,3,,,75,127
38274,note_off,0,0,0,,12,,,59,127
38276,note_on,2,0,0,,11,,,58,127
38276,note_on,0,0,0,,8,,,68,127
38276,note_on,0,0,0,,2,,,74,127
38572,note_off,296,0,0,,2,,,74,127
38582,note_off,10,0,0,,8,,,68,127
38584,note_on,2,0,0,,8,,,80,127
38584,note_on,0,0,0,,12,,,71,127
38890,note_off,306,0,0,,12,,,71,127
38890,note_off,0,0,0,,8,,,80,127
38892,note_on,2,0,0,,8,,,80,127
38892,note_on,0,0,0,,11,,,70,127
39198,note_off,306,0,0,,11,,,70,127
39198,note_off,0,0,0,,8,,,80,127
39198,note_off,0,0,0,,11,,,58,127
39200,note_on,2,0,0,,12,,,59,127
39200,note_on,0,0,0,,8,,,68,127
39200,note_on,0,0,0,,8,,,80,127
39200,note_on,0,0,0,,3,,,75,127
39506,note_off,306,0,0,,3,,,75,127
39506,note_off,0,0,0,,8,,,80,127
39506,note_off,0,0,0,,8,,,68,127
39506,note_off,0,0,0,,12,,,59,127
39508,note_on,2,0,0,,11,,,58,127
39508,note_on,0,0,0,,8,,,68,127
39508,note_on,0,0,0,,8,,,80,127
39508,note_on,0,0,0,,2,,,74,127
39814,note_off,306,0,0,,2,,,74,127
39814,note_off,0,0,0,,8,,,80,127
39814,note_off,0,0,0,,8,,,68,127
39814,note_off,0,0,0,,11,,,58,127
39816,note_on,2,0,0,,11,,,58,127
39816,note_on,0,0,0,,6,,,66,127
39816,note_on,0,0,0,,10,,,81,127
39816,note_on,0,0,0,,3,,,75,127
40122,note_off,306,0,0,,3,,,75,127
40122,note_off,0,0,0,,10,,,81,127
40122,note_off,0,0,0,,6,,,66,127
40122,note_off,0,0,0,,11,,,58,127
40124,note_on,2,0,0,,11,,,58,127
40124,note_on,0,0,0,,5,,,65,127
40124,note_on,0,0,0,,2,,,74,127
40124,note_on,0,0,0,,11,,,82,127
40430,note_off,306,0,0,,2,,,74,127
40430,note_off,0,0,0,,5,,,65,127
40430,note_off,0,0,0,,11,,,58,127
40432,note_on,2,0,0,,11,,,58,127
40432,note_on,0,0,0,,3,,,63,127
40432,note_on,0,0,0,,5,,,77,127
40507,note_off,75,0,0,,5,,,77,127
40509,note_on,2,0,0,,3,,,75,127
40584,note_off,75,0,0,,3,,,75,127
40586,note_on,2,0,0,,2,,,74,127
40661,note_off,75,0,0,,2,,,74,127
40663,note_on,2,0,0,,3,,,75,127
40738,note_off,75,0,0,,3,,,75,127
40738,note_off,0,0,0,,3,,,63,127
40738,note_off,0,0,0,,11,,,58,127
40739,note_off,1,0,0,,11,,,82,127
40740,note_on,1,0,0,,11,,,58,127
40740,note_on,0,0,0,,5,,,77,127
40841,note_off,101,0,0,,5,,,77,127
40843,note_on,2,0,0,,6,,,78,127
40944,note_off,101,0,0,,6,,,78,127
40946,note_on,2,0,0,,8,,,80,127
41047,note_off,101,0,0,,8,,,80,127
41049,note_on,2,0,0,,8,,,80,127
41049,note_on,0,0,0,,12,,,71,127
41355,note_off,306,0,0,,12,,,71,127
41355,note_off,0,0,0,,8,,,80,127
41357,note_on,2,0,0,,11,,,70,127
41357,note_on,0,0,0,,8,,,80,127
41663,note_off,306,0,0,,8,,,80,127
41663,note_off,0,0,0,,11,,,70,127
41663,note_off,0,0,0,,11,,,58,127
41665,note_on,2,0,0,,12,,,59,127
41665,note_on,0,0,0,,8,,,68,127
41665,note_on,0,0,0,,8,,,80,127
41665,note_on,0,0,0,,3,,,75,127
41971,note_off,306,0,0,,3,,,75,127
41971,note_off,0,0,0,,8,,,80,127
41971,note_off,0,0,0,,8,,,68,127
41971,note_off,0,0,0,,12,,,59,127
41973,note_on,2,0,0,,11,,,58,127
41973,note_on,0,0,0,,8,,,68,127
41973,note_on,0,0,0,,2,,,74,127
41973,note_on,0,0,0,,8,,,80,127
42279,note_off,306,0,0,,8,,,80,127
42279,note_off,0,0,0,,2,,,74,127
42279,note_off,0,0,0,,8,,,68,127
42279,note_off,0,0,0,,11,,,58,127
42281,note_on,2,0,0,,11,,,58,127
42281,note_on,0,0,0,,6,,,66,127
42281,note_on,0,0,0,,10,,,81,127
42281,note_on,0,0,0,,3,,,75,127
42587,note_off,306,0,0,,3,,,75,127
42587,note_off,0,0,0,,10,,,81,127
42587,note_off,0,0,0,,6,,,66,127
42587,note_off,0,0,0,,11,,,58,127
42589,note_on,2,0,0,,11,,,58,127
42589,note_on,0,0,0,,5,,,65,127
42589,note_on,0,0,0,,2,,,74,127
42589,note_on,0,0,0,,11,,,82,127
42895,note_off,306,0,0,,2,,,74,127
42895,note_off,0,0,0,,5,,,65,127
42895,note_off,0,0,0,,11,,,58,127
42897,note_on,2,0,0,,11,,,58,127
42897,note_on,0,0,0,,3,,,63,127
42897,note_on,0,0,0,,5,,,77,127
42948,note_on,51,0,0,,3,,,75,127
42953,note_off,5,0,0,,5,,,77,127
42999,note_on,46,0,0,,5,,,77,127
43004,note_off,5,0,0,,3,,,75,127
43050,note_on,46,0,0,,3,,,75,127
43055,note_off,5,0,0,,5,,,77,127
43101,note_on,46,0,0,,2,,,74,127
43106,note_off,5,0,0,,3,,,75,127
43152,note_on,46,0,0,,3,,,75,127
43157,note_off,5,0,0,,2,,,74,127
43202,note_off,45,0,0,,3,,,63,127
43202,note_off,0,0,0,,11,,,58,127
43203,note_off,1,0,0,,11,,,82,127
43204,note_on,1,0,0,,11,,,58,127
43204,note_on,0,0,0,,5,,,77,127
43209,note_off,5,0,0,,3,,,75,127
43279,note_off,70,0,0,,5,,,77,127
43281,note_on,2,0,0,,2,,,74,127
43356,note_off,75,0,0,,2,,,74,127
43358,note_on,2,0,0,,3,,,75,127
43433,note_off,75,0,0,,3,,,75,127
43435,note_on,2,0,0,,0,,,72,127
43510,note_off,75,0,0,,0,,,72,127
43512,note_on,2,0,0,,11,,,46,127
43512,note_on,0,0,0,,2,,,74,127
43587,note_off,75,0,0,,2,,,74,127
43589,note_on,2,0,0,,11,,,70,127
43664,note_off,75,0,0,,11,,,70,127
43665,note_off,1,0,0,,11,,,58,127
43666,note_on,1,0,0,,0,,,72,127
43741,note_off,75,0,0,,0,,,72,127
43743,note_on,2,0,0,,10,,,69,127
43818,note_off,75,0,0,,10,,,69,127
43820,note_on,2,0,0,,11,,,34,127
43820,note_on,0,0,0,,10,,,69,127
44126,note_off,306,0,0,,10,,,69,127
44127,note_off,1,0,0,,11,,,46,127
44128,note_on,1,0,0,,11,,,70,127
44408,note_off,280,0,0,,11,,,70,127
44434,note_off,26,0,0,,11,,,34,127
44436,note_on,2,0,0,,11,,,46,127
44436,note_on,0,0,0,,5,,,77,127
44538,note_on,102,0,0,,8,,,68,127
44636,note_off,98,0,0,,5,,,77,127
44639,note_off,3,0,0,,8,,,68,127
44641,note_on,2,0,0,,3,,,75,127
44742,note_off,101,0,0,,3,,,75,127
44742,note_off,0,0,0,,11,,,46,127
44744,note_on,2,0,0,,11,,,46,127
44744,note_on,0,0,0,,2,,,74,127
44846,note_on,102,0,0,,5,,,65,127
44944,note_off,98,0,0,,2,,,74,127
44947,note_off,3,0,0,,5,,,65,127
44949,note_on,2,0,0,,0,,,72,127
45050,note_off,101,0,0,,0,,,72,127
45050,note_off,0,0,0,,11,,,46,127
45052,note_on,2,0,0,,11,,,46,127
45052,note_on,0,0,0,,11,,,70,127
45154,note_on,102,0,0,,2,,,62,127
45252,note_off,98,0,0,,11,,,70,127
45255,note_off,3,0,0,,2,,,62,127
45257,note_on,2,0,0,,8,,,68,127
45358,note_off,101,0,0,,8,,,68,127
45358,note_off,0,0,0,,11,,,46,127
45360,note_on,2,0,0,,11,,,46,127
45360,note_on,0,0,0,,7,,,67,127
45462,note_on,102,0,0,,11,,,58,127
45560,note_off,98,0,0,,7,,,67,127
45563,note_off,3,0,0,,11,,,58,127
45565,note_on,2,0,0,,5,,,65,127
45666,note_off,101,0,0,,11,,,46,127
45668,note_on,2,0,0,,3,,,39,127
45668,note_on,0,0,0,,3,,,51,127
45668,note_on,0,0,0,,7,,,67,127
45974,note_off,306,0,0,,3,,,51,127
45974,note_off,0,0,0,,3,,,39,127
45975,note_off,1,0,0,,5,,,65,127
45976,note_on,1,0,0,,3,,,39,127
45976,note_on,0,0,0,,3,,,51,127
45976,note_on,0,0,0,,5,,,65,127
46027,note_on,51,0,0,,3,,,63,127
46032,note_off,5,0,0,,5,,,65,127
46078,note_on,46,0,0,,5,,,65,127
46083,note_off,5,0,0,,3,,,63,127
46129,note_on,46,0,0,,3,,,63,127
46134,note_off,5,0,0,,5,,,65,127
46180,note_on,46,0,0,,2,,,62,127
46185,note_off,5,0,0,,3,,,63,127
46281,note_off,96,0,0,,2,,,62,127
46281,note_off,0,0,0,,3,,,51,127
46281,note_off,0,0,0,,3,,,39,127
46282,note_off,1,0,0,,7,,,67,127
46283,note_on,1,0,0,,3,,,39,127
46283,note_on,0,0,0,,3,,,51,127
46283,note_on,0,0,0,,2,,,62,127
46589,note_off,306,0,0,,2,,,62,127
46589,note_off,0,0,0,,3,,,51,127
46589,note_off,0,0,0,,3,,,39,127
46591,note_on,2,0,0,,3,,,39,127
46591,note_on,0,0,0,,3,,,51,127
46591,note_on,0,0,0,,3,,,63,127
46897,note_off,306,0,0,,3,,,63,127
46897,note_off,0,0,0,,3,,,51,127
46897,note_off,0,0,0,,3,,,39,127
46899,note_on,2,0,0,,11,,,46,127
46899,note_on,0,0,0,,5,,,77,127
47001,note_on,102,0,0,,8,,,68,127
47014,note_off,13,0,0,,5,,,77,127
47104,note_on,90,0,0,,3,,,75,127
47117,note_off,13,0,0,,8,,,68,127
47205,note_off,88,0,0,,3,,,75,127
47205,note_off,0,0,0,,11,,,46,127
47207,note_on,2,0,0,,11,,,46,127
47207,note_on,0,0,0,,2,,,74,127
47309,note_on,102,0,0,,5,,,65,127
47322,note_off,13,0,0,,2,,,74,127
47412,note_on,90,0,0,,0,,,72,127
47425,note_off,13,0,0,,5,,,65,127
47513,note_off,88,0,0,,0,,,72,127
47513,note_off,0,0,0,,11,,,46,127
47515,note_on,2,0,0,,11,,,46,127
47515,note_on,0,0,0,,11,,,70,127
47617,note_on,102,0,0,,2,,,62,127
47630,note_off,13,0,0,,11,,,70,127
47720,note_on,90,0,0,,8,,,68,127
47733,note_off,13,0,0,,2,,,62,127
47821,note_off,88,0,0,,8,,,68,127
47821,note_off,0,0,0,,11,,,46,127
47823,note_on,2,0,0,,11,,,46,127
47823,note_on,0,0,0,,7,,,67,127
47925,note_on,102,0,0,,11,,,58,127
47938,note_off,13,0,0,,7,,,67,127
48028,note_on,90,0,0,,5,,,65,127
48041,note_off,13,0,0,,11,,,58,127
48129,note_off,88,0,0,,11,,,46,127
48131,note_on,2,0,0,,3,,,51,127
48131,note_on,0,0,0,,7,,,67,127
48437,note_off,306,0,0,,5,,,65,127
48438,note_on,1,0,0,,5,,,65,127
48489,note_on,51,0,0,,3,,,63,127
48494,note_off,5,0,0,,5,,,65,127
48540,note_on,46,0,0,,5,,,65,127
48545,note_off,5,0,0,,3,,,63,127
48591,note_on,46,0,0,,3,,,63,127
48596,note_off,5,0,0,,5,,,65,127
48642,note_on,46,0,0,,2,,,62,127
48647,note_off,5,0,0,,3,,,63,127
48743,note_off,96,0,0,,2,,,62,127
48744,note_off,1,0,0,,7,,,67,127
48745,note_on,1,0,0,,3,,,39,127
48745,note_on,0,0,0,,2,,,62,127
49051,note_off,306,0,0,,2,,,62,127
49053,note_on,2,0,0,,3,,,63,127
49355,note_off,302,0,0,,3,,,51,127
49358,note_off,3,0,0,,3,,,39,127
49359,note_off,1,0,0,,3,,,63,127
49360,note_on,1,0,0,,11,,,58,127
49360,note_on,0,0,0,,7,,,55,127
49514,note_on,154,0,0,,7,,,67,127
49514,note_on,0,0,0,,3,,,63,127
49666,note_off,152,0,0,,3,,,63,127
49666,note_off,0,0,0,,7,,,67,127
49666,note_off,0,0,0,,7,,,55,127
49666,note_off,0,0,0,,11,,,58,127
49668,note_on,2,0,0,,7,,,55,127
49668,note_on,0,0,0,,11,,,58,127
49668,note_on,0,0,0,,2,,,62,127
49668,note_on,0,0,0,,6,,,66,127
49820,note_off,152,0,0,,6,,,66,127
49820,note_off,0,0,0,,2,,,62,127
49822,note_on,2,0,0,,7,,,67,127
49822,note_on,0,0,0,,3,,,63,127
49974,note_off,152,0,0,,3,,,63,127
49974,note_off,0,0,0,,7,,,67,127
49974,note_off,0,0,0,,11,,,58,127
49974,note_off,0,0,0,,7,,,55,127
49976,note_on,2,0,0,,7,,,55,127
49976,note_on,0,0,0,,11,,,58,127
49976,note_on,0,0,0,,2,,,62,127
49976,note_on,0,0,0,,6,,,66,127
50128,note_off,152,0,0,,6,,,66,127
50128,note_off,0,0,0,,2,,,62,127
50130,note_on,2,0,0,,3,,,63,127
50130,note_on,0,0,0,,7,,,67,127
50282,note_off,152,0,0,,7,,,67,127
50282,note_off,0,0,0,,3,,,63,127
50282,note_off,0,0,0,,11,,,58,127
50282,note_off,0,0,0,,7,,,55,127
50284,note_on,2,0,0,,11,,,58,127
50284,note_on,0,0,0,,7,,,55,127
50284,note_on,0,0,0,,6,,,66,127
50284,note_on,0,0,0,,2,,,62,127
50436,note_off,152,0,0,,2,,,62,127
50436,note_off,0,0,0,,6,,,66,127
50438,note_on,2,0,0,,7,,,67,127
50438,note_on,0,0,0,,3,,,63,127
50590,note_off,152,0,0,,7,,,55,127
50590,note_off,0,0,0,,11,,,58,127
50592,note_on,2,0,0,,0,,,60,127
50592,note_on,0,0,0,,8,,,56,127
50669,note_off,77,0,0,,3,,,63,127
50669,note_off,0,0,0,,7,,,67,127
50746,note_on,77,0,0,,8,,,68,127
50746,note_on,0,0,0,,0,,,72,127
50898,note_off,152,0,0,,0,,,72,127
50898,note_off,0,0,0,,8,,,68,127
50898,note_off,0,0,0,,8,,,56,127
50898,note_off,0,0,0,,0,,,60,127
50900,note_on,2,0,0,,8,,,56,127
50900,note_on,0,0,0,,0,,,60,127
50900,note_on,0,0,0,,7,,,67,127
50900,note_on,0,0,0,,12,,,71,127
51052,note_off,152,0,0,,12,,,71,127
51052,note_off,0,0,0,,7,,,67,127
51054,note_on,2,0,0,,8,,,68,127
51054,note_on,0,0,0,,0,,,72,127
51206,note_off,152,0,0,,0,,,72,127
51206,note_off,0,0,0,,8,,,68,127
51206,note_off,0,0,0,,0,,,60,127
51206,note_off,0,0,0,,8,,,56,127
51208,note_on,2,0,0,,8,,,56,127
51208,note_on,0,0,0,,0,,,60,127
51208,note_on,0,0,0,,12,,,71,127
51208,note_on,0,0,0,,7,,,67,127
51360,note_off,152,0,0,,7,,,67,127
51360,note_off,0,0,0,,12,,,71,127
51362,note_on,2,0,0,,0,,,72,127
51362,note_on,0,0,0,,8,,,68,127
51514,note_off,152,0,0,,8,,,68,127
51514,note_off,0,0,0,,0,,,72,127
51514,note_off,0,0,0,,0,,,60,127
51514,note_off,0,0,0,,8,,,56,127
51516,note_on,2,0,0,,8,,,56,127
51516,note_on,0,0,0,,0,,,60,127
51516,note_on,0,0,0,,12,,,71,127
51516,note_on,0,0,0,,7,,,67,127
51668,note_off,152,0,0,,7,,,67,127
51668,note_off,0,0,0,,12,,,71,127
51670,note_on,2,0,0,,8,,,68,127
51670,note_on,0,0,0,,0,,,72,127
51822,note_off,152,0,0,,0,,,60,127
51822,note_off,0,0,0,,8,,,56,127
51823,note_off,1,0,0,,0,,,72,127
51823,note_off,0,0,0,,8,,,68,127
51824,note_on,1,0,0,,11,,,58,127
51901,note_on,77,0,0,,11,,,70,127
51976,note_off,75,0,0,,11,,,70,127
51978,note_on,2,0,0,,0,,,72,127
52053,note_off,75,0,0,,0,,,72,127
52055,note_on,2,0,0,,2,,,74,127
52130,note_off,75,0,0,,2,,,74,127
52130,note_off,0,0,0,,11,,,58,127
52132,note_on,2,0,0,,11,,,58,127
52132,note_on,0,0,0,,3,,,75,127
52207,note_off,75,0,0,,3,,,75,127
52209,note_on,2,0,0,,5,,,77,127
52284,note_off,75,0,0,,5,,,77,127
52286,note_on,2,0,0,,7,,,79,127
52361,note_off,75,0,0,,7,,,79,127
52363,note_on,2,0,0,,8,,,80,127
52438,note_off,75,0,0,,8,,,80,127
52440,note_on,2,0,0,,11,,,46,127
52440,note_on,0,0,0,,11,,,82,127
52515,note_off,75,0,0,,11,,,82,127
52517,note_on,2,0,0,,7,,,79,127
52592,note_off,75,0,0,,7,,,79,127
52594,note_on,2,0,0,,8,,,80,127
52669,note_off,75,0,0,,8,,,80,127
52671,note_on,2,0,0,,5,,,77,127
52746,note_off,75,0,0,,5,,,77,127
52746,note_off,0,0,0,,11,,,46,127
52748,note_on,2,0,0,,11,,,46,127
52748,note_on,0,0,0,,7,,,79,127
52823,note_off,75,0,0,,7,,,79,127
52825,note_on,2,0,0,,3,,,75,127
52900,note_off,75,0,0,,3,,,75,127
52902,note_on,2,0,0,,5,,,77,127
52977,note_off,75,0,0,,5,,,77,127
52979,note_on,2,0,0,,2,,,74,127
53054,note_off,75,0,0,,2,,,74,127
53054,note_off,0,0,0,,11,,,46,127
53054,note_off,0,0,0,,11,,,58,127
53056,note_on,2,0,0,,3,,,39,127
53056,note_on,0,0,0,,3,,,51,127
53056,note_on,0,0,0,,2,,,74,127
53107,note_on,51,0,0,,3,,,75,127
53112,note_off,5,0,0,,2,,,74,127
53158,note_on,46,0,0,,5,,,77,127
53163,note_off,5,0,0,,3,,,75,127
53209,note_on,46,0,0,,3,,,75,127
53214,note_off,5,0,0,,5,,,77,127
53260,note_on,46,0,0,,5,,,77,127
53265,note_off,5,0,0,,3,,,75,127
53311,note_on,46,0,0,,3,,,75,127
53316,note_off,5,0,0,,5,,,77,127
53361,note_off,45,0,0,,3,,,51,127
53361,note_off,0,0,0,,3,,,39,127
53363,note_on,2,0,0,,3,,,39,127
53363,note_on,0,0,0,,3,,,51,127
53363,note_on,0,0,0,,5,,,77,127
53368,note_off,5,0,0,,3,,,75,127
53414,note_on,46,0,0,,3,,,75,127
53419,note_off,5,0,0,,5,,,77,127
53465,note_on,46,0,0,,5,,,77,127
53470,note_off,5,0,0,,3,,,75,127
53516,note_on,46,0,0,,3,,,75,127
53521,note_off,5,0,0,,5,,,77,127
53567,note_on,46,0,0,,2,,,74,127
53572,note_off,5,0,0,,3,,,75,127
53668,note_off,96,0,0,,2,,,74,127
53668,note_off,0,0,0,,3,,,51,127
53668,note_off,0,0,0,,3,,,39,127
53670,note_on,2,0,0,,3,,,39,127
53670,note_on,0,0,0,,3,,,51,127
53670,note_on,0,0,0,,2,,,74,127
53976,note_off,306,0,0,,2,,,74,127
53976,note_off,0,0,0,,3,,,51,127
53976,note_off,0,0,0,,3,,,39,127
53978,note_on,2,0,0,,3,,,39,127
53978,note_on,0,0,0,,3,,,51,127
53978,note_on,0,0,0,,3,,,75,127
54284,note_off,306,0,0,,3,,,51,127
54284,note_off,0,0,0,,3,,,39,127
54285,note_off,1,0,0,,3,,,75,127
54286,note_on,1,0,0,,11,,,58,127
54286,note_on,0,0,0,,7,,,55,127
54440,note_on,154,0,0,,7,,,67,127
54515,note_off,75,0,0,,7,,,67,127
54517,note_on,2,0,0,,3,,,63,127
54592,note_off,75,0,0,,3,,,63,127
54592,note_off,0,0,0,,7,,,55,127
54592,note_off,0,0,0,,11,,,58,127
54594,note_on,2,0,0,,11,,,58,127
54594,note_on,0,0,0,,7,,,55,127
54594,note_on,0,0,0,,6,,,66,127
54669,note_off,75,0,0,,6,,,66,127
54671,note_on,2,0,0,,2,,,62,127
54746,note_off,75,0,0,,2,,,62,127
54748,note_on,2,0,0,,7,,,67,127
54823,note_off,75,0,0,,7,,,67,127
54825,note_on,2,0,0,,3,,,63,127
54900,note_off,75,0,0,,3,,,63,127
54900,note_off,0,0,0,,7,,,55,127
54900,note_off,0,0,0,,11,,,58,127
54902,note_on,2,0,0,,11,,,58,127
54902,note_on,0,0,0,,7,,,55,127
54902,note_on,0,0,0,,6,,,66,127
54977,note_off,75,0,0,,6,,,66,127
54979,note_on,2,0,0,,2,,,62,127
55054,note_off,75,0,0,,2,,,62,127
55056,note_on,2,0,0,,7,,,67,127
55131,note_off,75,0,0,,7,,,67,127
55133,note_on,2,0,0,,3,,,63,127
55208,note_off,75,0,0,,3,,,63,127
55208,note_off,0,0,0,,7,,,55,127
55208,note_off,0,0,0,,11,,,58,127
55210,note_on,2,0,0,,11,,,58,127
55210,note_on,0,0,0,,7,,,55,127
55210,note_on,0,0,0,,6,,,66,127
55285,note_off,75,0,0,,6,,,66,127
55287,note_on,2,0,0,,2,,,62,127
55362,note_off,75,0,0,,2,,,62,127
55364,note_on,2,0,0,,7,,,67,127
55439,note_off,75,0,0,,7,,,67,127
55441,note_on,2,0,0,,3,,,63,127
55516,note_off,75,0,0,,7,,,55,127
55516,note_off,0,0,0,,11,,,58,127
55518,note_on,2,0,0,,0,,,60,127
55518,note_on,0,0,0,,8,,,56,127
55670,note_off,152,0,0,,3,,,63,127
55672,note_on,2,0,0,,0,,,72,127
55747,note_off,75,0,0,,0,,,72,127
55749,note_on,2,0,0,,8,,,68,127
55824,note_off,75,0,0,,8,,,68,127
55824,note_off,0,0,0,,8,,,56,127
55824,note_off,0,0,0,,0,,,60,127
55826,note_on,2,0,0,,0,,,60,127
55826,note_on,0,0,0,,8,,,56,127
55826,note_on,0,0,0,,12,,,71,127
55901,note_off,75,0,0,,12,,,71,127
55903,note_on,2,0,0,,7,,,67,127
55978,note_off,75,0,0,,7,,,67,127
55980,note_on,2,0,0,,0,,,72,127
56055,note_off,75,0,0,,0,,,72,127
56057,note_on,2,0,0,,8,,,68,127
56132,note_off,75,0,0,,8,,,68,127
56132,note_off,0,0,0,,8,,,56,127
56132,note_off,0,0,0,,0,,,60,127
56134,note_on,2,0,0,,8,,,56,127
56134,note_on,0,0,0,,0,,,60,127
56134,note_on,0,0,0,,12,,,71,127
56209,note_off,75,0,0,,12,,,71,127
56211,note_on,2,0,0,,7,,,67,127
56286,note_off,75,0,0,,7,,,67,127
56288,note_on,2,0,0,,0,,,72,127
56363,note_off,75,0,0,,0,,,72,127
56365,note_on,2,0,0,,8,,,68,127
56440,note_off,75,0,0,,8,,,68,127
56440,note_off,0,0,0,,0,,,60,127
56440,note_off,0,0,0,,8,,,56,127
56442,note_on,2,0,0,,8,,,56,127
56442,note_on,0,0,0,,0,,,60,127
56442,note_on,0,0,0,,12,,,71,127
56517,note_off,75,0,0,,12,,,71,127
56519,note_on,2,0,0,,7,,,67,127
56594,note_off,75,0,0,,7,,,67,127
56596,note_on,2,0,0,,0,,,72,127
56671,note_off,75,0,0,,0,,,72,127
56673,note_on,2,0,0,,8,,,68,127
56745,note_off,72,0,0,,8,,,68,127
56748,note_off,3,0,0,,0,,,60,127
56748,note_off,0,0,0,,8,,,56,127
56750,note_on,2,0,0,,11,,,58,127
56827,note_on,77,0,0,,11,,,70,127
56902,note_off,75,0,0,,11,,,70,127
56904,note_on,2,0,0,,0,,,72,127
56979,note_off,75,0,0,,0,,,72,127
56981,note_on,2,0,0,,2,,,74,127
57056,note_off,75,0,0,,2,,,74,127
57056,note_off,0,0,0,,11,,,58,127
57058,note_on,2,0,0,,11,,,58,127
57058,note_on,0,0,0,,3,,,75,127
57133,note_off,75,0,0,,3,,,75,127
57135,note_on,2,0,0,,5,,,77,127
57210,note_off,75,0,0,,5,,,77,127
57212,note_on,2,0,0,,7,,,79,127
57287,note_off,75,0,0,,7,,,79,127
57289,note_on,2,0,0,,8,,,80,127
57364,note_off,75,0,0,,8,,,80,127
57366,note_on,2,0,0,,11,,,46,127
57366,note_on,0,0,0,,11,,,82,127
57441,note_off,75,0,0,,11,,,82,127
57443,note_on,2,0,0,,7,,,79,127
57518,note_off,75,0,0,,7,,,79,127
57520,note_on,2,0,0,,8,,,80,127
57595,note_off,75,0,0,,8,,,80,127
57597,note_on,2,0,0,,5,,,77,127
57672,note_off,75,0,0,,5,,,77,127
57672,note_off,0,0,0,,11,,,46,127
57674,note_on,2,0,0,,11,,,46,127
57674,note_on,0,0,0,,7,,,79,127
57749,note_off,75,0,0,,7,,,79,127
57751,note_on,2,0,0,,3,,,75,127
57826,note_off,75,0,0,,3,,,75,127
57828,note_on,2,0,0,,5,,,77,127
57903,note_off,75,0,0,,5,,,77,127
57905,note_on,2,0,0,,2,,,74,127
57980,note_off,75,0,0,,2,,,74,127
57980,note_off,0,0,0,,11,,,46,127
57980,note_off,0,0,0,,11,,,58,127
57982,note_on,2,0,0,,3,,,39,127
57982,note_on,0,0,0,,3,,,51,127
57982,note_on,0,0,0,,7,,,79,127
58057,note_off,75,0,0,,7,,,79,127
58059,note_on,2,0,0,,5,,,77,127
58134,note_off,75,0,0,,5,,,77,127
58136,note_on,2,0,0,,3,,,75,127
58211,note_off,75,0,0,,3,,,75,127
58213,note_on,2,0,0,,2,,,74,127
58288,note_off,75,0,0,,2,,,74,127
58290,note_on,2,0,0,,0,,,72,127
58365,note_off,75,0,0,,0,,,72,127
58367,note_on,2,0,0,,11,,,70,127
58442,note_off,75,0,0,,11,,,70,127
58444,note_on,2,0,0,,8,,,68,127
58519,note_off,75,0,0,,8,,,68,127
58521,note_on,2,0,0,,7,,,67,127
58596,note_off,75,0,0,,7,,,67,127
58598,note_on,2,0,0,,5,,,65,127
58673,note_off,75,0,0,,5,,,65,127
58675,note_on,2,0,0,,3,,,63,127
58750,note_off,75,0,0,,3,,,63,127
58752,note_off,2,0,0,,3,,,51,127
58752,note_off,0,0,0,,3,,,39,127
58752,note_on,0,0,0,,2,,,62,127
58827,note_off,75,0,0,,2,,,62,127
58829,note_on,2,0,0,,0,,,60,127
58904,note_off,75,0,0,,0,,,60,127
58906,note_on,2,0,0,,11,,,46,127
58906,note_on,0,0,0,,11,,,58,127
58981,note_off,75,0,0,,11,,,58,127
58983,note_on,2,0,0,,8,,,56,127
59058,note_off,75,0,0,,8,,,56,127
59060,note_on,2,0,0,,7,,,55,127
59135,note_off,75,0,0,,7,,,55,127
59137,note_on,2,0,0,,5,,,53,127
59212,note_off,75,0,0,,5,,,53,127
59212,note_off,0,0,0,,11,,,46,127
59214,note_on,2,0,0,,3,,,39,127
59214,note_on,0,0,0,,3,,,51,127
59214,note_on,0,0,0,,7,,,79,127
59289,note_off,75,0,0,,7,,,79,127
59291,note_on,2,0,0,,5,,,77,127
59366,note_off,75,0,0,,5,,,77,127
59368,note_on,2,0,0,,3,,,75,127
59443,note_off,75,0,0,,3,,,75,127
59445,note_on,2,0,0,,2,,,74,127
59520,note_off,75,0,0,,2,,,74,127
59522,note_on,2,0,0,,0,,,72,127
59597,note_off,75,0,0,,0,,,72,127
59599,note_on,2,0,0,,11,,,70,127
59674,note_off,75,0,0,,11,,,70,127
59676,note_on,2,0,0,,8,,,68,127
59751,note_off,75,0,0,,8,,,68,127
59753,note_on,2,0,0,,7,,,67,127
59828,note_off,75,0,0,,7,,,67,127
59830,note_on,2,0,0,,5,,,65,127
59905,note_off,75,0,0,,5,,,65,127
59907,note_on,2,0,0,,3,,,63,127
59982,note_off,75,0,0,,3,,,63,127
59984,note_off,2,0,0,,3,,,51,127
59984,note_off,0,0,0,,3,,,39,127
59984,note_on,0,0,0,,2,,,62,127
60059,note_off,75,0,0,,2,,,62,127
60061,note_on,2,0,0,,0,,,60,127
60136,note_off,75,0,0,,0,,,60,127
60138,note_on,2,0,0,,11,,,46,127
60138,note_on,0,0,0,,11,,,58,127
60213,note_off,75,0,0,,11,,,58,127
60215,note_on,2,0,0,,8,,,56,127
60290,note_off,75,0,0,,8,,,56,127
60292,note_on,2,0,0,,7,,,55,127
60367,note_off,75,0,0,,7,,,55,127
60369,note_on,2,0,0,,5,,,53,127
60444,note_off,75,0,0,,5,,,53,127
60444,note_off,0,0,0,,11,,,46,127
60446,note_on,2,0,0,,3,,,39,127
60446,note_on,0,0,0,,3,,,51,127
60446,note_on,0,0,0,,7,,,79,127
60521,note_off,75,0,0,,7,,,79,127
60523,note_on,2,0,0,,5,,,77,127
60598,note_off,75,0,0,,5,,,77,127
60600,note_on,2,0,0,,3,,,75,127
60675,note_off,75,0,0,,3,,,75,127
60677,note_on,2,0,0,,2,,,74,127
60752,note_off,75,0,0,,2,,,74,127
60754,note_on,2,0,0,,0,,,72,127
60829,note_off,75,0,0,,0,,,72,127
60831,note_on,2,0,0,,11,,,70,127
60906,note_off,75,0,0,,11,,,70,127
60908,note_on,2,0,0,,8,,,68,127
60983,note_off,75,0,0,,8,,,68,127
60985,note_on,2,0,0,,7,,,67,127
61060,note_off,75,0,0,,7,,,67,127
61062,note_on,2,0,0,,5,,,65,127
61137,note_off,75,0,0,,5,,,65,127
61139,note_on,2,0,0,,3,,,63,127
61214,note_off,75,0,0,,3,,,63,127
61216,note_on,2,0,0,,2,,,62,127
61291,note_off,75,0,0,,2,,,62,127
61293,note_on,2,0,0,,0,,,60,127
61368,note_off,75,0,0,,0,,,60,127
61368,note_off,0,0,0,,3,,,51,127
61368,note_off,0,0,0,,3,,,39,127
61370,note_on,2,0,0,,11,,,46,127
61370,note_on,0,0,0,,11,,,58,127
61445,note_off,75,0,0,,11,,,58,127
61447,note_on,2,0,0,,8,,,56,127
61522,note_off,75,0,0,,8,,,56,127
61524,note_on,2,0,0,,7,,,55,127
61599,note_off,75,0,0,,7,,,55,127
61601,note_on,2,0,0,,5,,,53,127
61676,note_off,75,0,0,,5,,,53,127
61676,note_off,0,0,0,,11,,,46,127
61678,note_on,2,0,0,,3,,,39,127
61678,note_on,0,0,0,,5,,,53,127
61984,note_off,306,0,0,,5,,,53,127
61986,note_on,2,0,0,,3,,,51,127
62904,note_off,918,0,0,,3,,,39,127
62907,note_off,3,0,0,,3,,,51,127
63215,note_on,308,0,0,,3,,,75,127
63215,note_on,0,0,0,,6,,,66,127
63521,note_off,306,0,0,,6,,,66,127
63521,note_off,0,0,0,,3,,,75,127
63523,note_on,2,0,0,,5,,,65,127
63523,note_on,0,0,0,,3,,,75,127
63829,note_off,306,0,0,,3,,,75,127
63829,note_off,0,0,0,,5,,,65,127
63831,note_on,2,0,0,,6,,,54,127
63831,note_on,0,0,0,,3,,,63,127
63831,note_on,0,0,0,,3,,,75,127
63831,note_on,0,0,0,,11,,,70,127
64137,note_off,306,0,0,,11,,,70,127
64137,note_off,0,0,0,,3,,,75,127
64137,note_off,0,0,0,,3,,,63,127
64137,note_off,0,0,0,,6,,,54,127
64139,note_on,2,0,0,,5,,,53,127
64139,note_on,0,0,0,,3,,,63,127
64139,note_on,0,0,0,,3,,,75,127
64139,note_on,0,0,0,,10,,,69,127
64445,note_off,306,0,0,,10,,,69,127
64445,note_off,0,0,0,,3,,,75,127
64445,note_off,0,0,0,,3,,,63,127
64445,note_off,0,0,0,,5,,,53,127
64447,note_on,2,0,0,,5,,,53,127
64447,note_on,0,0,0,,1,,,61,127
64447,note_on,0,0,0,,4,,,76,127
64447,note_on,0,0,0,,11,,,70,127
64753,note_off,306,0,0,,11,,,70,127
64753,note_off,0,0,0,,4,,,76,127
64753,note_off,0,0,0,,1,,,61,127
64753,note_off,0,0,0,,5,,,53,127
64755,note_on,2,0,0,,5,,,53,127
64755,note_on,0,0,0,,0,,,60,127
64755,note_on,0,0,0,,5,,,77,127
64755,note_on,0,0,0,,10,,,69,127
65061,note_off,306,0,0,,10,,,69,127
65061,note_off,0,0,0,,0,,,60,127
65061,note_off,0,0,0,,5,,,53,127
65063,note_on,2,0,0,,11,,,58,127
65063,note_on,0,0,0,,5,,,53,127
65063,note_on,0,0,0,,0,,,72,127
65114,note_on,51,0,0,,11,,,70,127
65119,note_off,5,0,0,,0,,,72,127
65165,note_on,46,0,0,,0,,,72,127
65170,note_off,5,0,0,,11,,,70,127
65216,note_on,46,0,0,,11,,,70,127
65221,note_off,5,0,0,,0,,,72,127
65267,note_on,46,0,0,,10,,,69,127
65272,note_off,5,0,0,,11,,,70,127
65318,note_on,46,0,0,,11,,,70,127
65323,note_off,5,0,0,,10,,,69,127
65368,note_off,45,0,0,,5,,,53,127
65368,note_off,0,0,0,,11,,,58,127
65369,note_off,1,0,0,,5,,,77,127
65370,note_on,1,0,0,,5,,,53,127
65370,note_on,0,0,0,,0,,,72,127
65375,note_off,5,0,0,,11,,,70,127
65471,note_off,96,0,0,,0,,,72,127
65473,note_on,2,0,0,,1,,,73,127
65574,note_off,101,0,0,,1,,,73,127
65576,note_on,2,0,0,,3,,,75,127
65677,note_off,101,0,0,,3,,,75,127
65679,note_on,2,0,0,,6,,,66,127
65679,note_on,0,0,0,,3,,,75,127
65985,note_off,306,0,0,,3,,,75,127
65985,note_off,0,0,0,,6,,,66,127
65987,note_on,2,0,0,,3,,,75,127
65987,note_on,0,0,0,,5,,,65,127
66293,note_off,306,0,0,,5,,,65,127
66293,note_off,0,0,0,,3,,,75,127
66293,note_off,0,0,0,,5,,,53,127
66295,note_on,2,0,0,,6,,,54,127
66295,note_on,0,0,0,,3,,,63,127
66295,note_on,0,0,0,,11,,,70,127
66295,note_on,0,0,0,,3,,,75,127
66601,note_off,306,0,0,,3,,,75,127
66601,note_off,0,0,0,,11,,,70,127
66601,note_off,0,0,0,,3,,,63,127
66601,note_off,0,0,0,,6,,,54,127
66603,note_on,2,0,0,,5,,,53,127
66603,note_on,0,0,0,,3,,,63,127
66603,note_on,0,0,0,,10,,,69,127
66603,note_on,0,0,0,,3,,,75,127
66909,note_off,306,0,0,,3,,,75,127
66909,note_off,0,0,0,,10,,,69,127
66909,note_off,0,0,0,,3,,,63,127
66909,note_off,0,0,0,,5,,,53,127
66911,note_on,2,0,0,,5,,,53,127
66911,note_on,0,0,0,,1,,,61,127
66911,note_on,0,0,0,,11,,,70,127
66911,note_on,0,0,0,,4,,,76,127
67217,note_off,306,0,0,,4,,,76,127
67217,note_off,0,0,0,,11,,,70,127
67217,note_off,0,0,0,,1,,,61,127
67217,note_off,0,0,0,,5,,,53,127
67219,note_on,2,0,0,,0,,,60,127
67219,note_on,0,0,0,,5,,,53,127
67219,note_on,0,0,0,,10,,,69,127
67219,note_on,0,0,0,,5,,,77,127
67525,note_off,306,0,0,,10,,,69,127
67525,note_off,0,0,0,,5,,,53,127
67525,note_off,0,0,0,,0,,,60,127
67527,note_on,2,0,0,,5,,,53,127
67527,note_on,0,0,0,,11,,,58,127
67527,note_on,0,0,0,,0,,,72,127
67578,note_on,51,0,0,,11,,,70,127
67583,note_off,5,0,0,,0,,,72,127
67629,note_on,46,0,0,,0,,,72,127
67634,note_off,5,0,0,,11,,,70,127
67680,note_on,46,0,0,,11,,,70,127
67685,note_off,5,0,0,,0,,,72,127
67731,note_on,46,0,0,,10,,,69,127
67736,note_off,5,0,0,,11,,,70,127
67782,note_on,46,0,0,,11,,,70,127
67787,note_off,5,0,0,,10,,,69,127
67832,note_off,45,0,0,,11,,,58,127
67832,note_off,0,0,0,,5,,,53,127
67833,note_off,1,0,0,,5,,,77,127
67834,note_on,1,0,0,,5,,,53,127
67834,note_on,0,0,0,,5,,,65,127
67834,note_on,0,0,0,,5,,,77,127
67839,note_off,5,0,0,,11,,,70,127
68140,note_off,301,0,0,,5,,,77,127
68140,note_off,0,0,0,,5,,,65,127
68142,note_on,2,0,0,,5,,,77,127
68142,note_on,0,0,0,,3,,,75,127
68142,note_on,0,0,0,,7,,,67,127
68448,note_off,306,0,0,,7,,,67,127
68448,note_off,0,0,0,,3,,,75,127
68448,note_off,0,0,0,,5,,,77,127
68449,note_off,1,0,0,,5,,,53,127
68450,note_on,1,0,0,,2,,,74,127
68450,note_on,0,0,0,,8,,,68,127
68450,note_on,0,0,0,,5,,,77,127
68756,note_off,306,0,0,,5,,,77,127
68756,note_off,0,0,0,,8,,,68,127
68756,note_off,0,0,0,,2,,,74,127
68758,note_on,2,0,0,,8,,,56,127
68758,note_on,0,0,0,,5,,,65,127
68758,note_on,0,0,0,,0,,,72,127
68758,note_on,0,0,0,,8,,,68,127
68758,note_on,0,0,0,,5,,,77,127
69064,note_off,306,0,0,,5,,,77,127
69064,note_off,0,0,0,,8,,,68,127
69064,note_off,0,0,0,,0,,,72,127
69064,note_off,0,0,0,,5,,,65,127
69064,note_off,0,0,0,,8,,,56,127
69066,note_on,2,0,0,,5,,,65,127
69066,note_on,0,0,0,,7,,,55,127
69066,note_on,0,0,0,,5,,,77,127
69066,note_on,0,0,0,,12,,,71,127
69372,note_off,306,0,0,,12,,,71,127
69372,note_off,0,0,0,,5,,,77,127
69372,note_off,0,0,0,,7,,,55,127
69372,note_off,0,0,0,,5,,,65,127
69374,note_on,2,0,0,,7,,,55,127
69374,note_on,0,0,0,,3,,,63,127
69374,note_on,0,0,0,,6,,,78,127
69374,note_on,0,0,0,,0,,,72,127
69680,note_off,306,0,0,,0,,,72,127
69680,note_off,0,0,0,,6,,,78,127
69680,note_off,0,0,0,,3,,,63,127
69680,note_off,0,0,0,,7,,,55,127
69682,note_on,2,0,0,,2,,,62,127
69682,note_on,0,0,0,,7,,,55,127
69682,note_on,0,0,0,,7,,,79,127
69682,note_on,0,0,0,,12,,,71,127
69988,note_off,306,0,0,,12,,,71,127
69988,note_off,0,0,0,,7,,,55,127
69988,note_off,0,0,0,,2,,,62,127
69990,note_on,2,0,0,,7,,,55,127
69990,note_on,0,0,0,,0,,,60,127
69990,note_on,0,0,0,,2,,,74,127
70041,note_on,51,0,0,,0,,,72,127
70046,note_off,5,0,0,,2,,,74,127
70092,note_on,46,0,0,,2,,,74,127
70097,note_off,5,0,0,,0,,,72,127
70143,note_on,46,0,0,,0,,,72,127
70148,note_off,5,0,0,,2,,,74,127
70194,note_on,46,0,0,,12,,,71,127
70199,note_off,5,0,0,,0,,,72,127
70245,note_on,46,0,0,,0,,,72,127
70250,note_off,5,0,0,,12,,,71,127
70295,note_off,45,0,0,,0,,,60,127
70295,note_off,0,0,0,,7,,,55,127
70296,note_off,1,0,0,,7,,,79,127
70297,note_on,1,0,0,,7,,,55,127
70297,note_on,0,0,0,,2,,,74,127
70302,note_off,5,0,0,,0,,,72,127
70398,note_off,96,0,0,,2,,,74,127
70400,note_on,2,0,0,,3,,,75,127
70501,note_off,101,0,0,,3,,,75,127
70503,note_on,2,0,0,,5,,,77,127
70604,note_off,101,0,0,,5,,,77,127
70606,note_on,2,0,0,,5,,,77,127
70606,note_on,0,0,0,,8,,,68,127
70912,note_off,306,0,0,,8,,,68,127
70912,note_off,0,0,0,,5,,,77,127
70914,note_on,2,0,0,,5,,,77,127
70914,note_on,0,0,0,,7,,,67,127
71220,note_off,306,0,0,,7,,,67,127
71220,note_off,0,0,0,,5,,,77,127
71220,note_off,0,0,0,,7,,,55,127
71222,note_on,2,0,0,,5,,,65,127
71222,note_on,0,0,0,,8,,,56,127
71222,note_on,0,0,0,,5,,,77,127
71222,note_on,0,0,0,,0,,,72,127
71528,note_off,306,0,0,,0,,,72,127
71528,note_off,0,0,0,,5,,,77,127
71528,note_off,0,0,0,,8,,,56,127
71528,note_off,0,0,0,,5,,,65,127
71530,note_on,2,0,0,,7,,,55,127
71530,note_on,0,0,0,,5,,,65,127
71530,note_on,0,0,0,,12,,,71,127
71530,note_on,0,0,0,,5,,,77,127
71836,note_off,306,0,0,,5,,,77,127
71836,note_off,0,0,0,,12,,,71,127
71836,note_off,0,0,0,,5,,,65,127
71836,note_off,0,0,0,,7,,,55,127
71838,note_on,2,0,0,,7,,,55,127
71838,note_on,0,0,0,,3,,,63,127
71838,note_on,0,0,0,,0,,,72,127
71838,note_on,0,0,0,,6,,,78,127
72144,note_off,306,0,0,,6,,,78,127
72144,note_off,0,0,0,,0,,,72,127
72144,note_off,0,0,0,,3,,,63,127
72144,note_off,0,0,0,,7,,,55,127
72146,note_on,2,0,0,,2,,,62,127
72146,note_on,0,0,0,,7,,,55,127
72146,note_on,0,0,0,,12,,,71,127
72146,note_on,0,0,0,,7,,,79,127
72452,note_off,306,0,0,,12,,,71,127
72452,note_off,0,0,0,,7,,,55,127
72452,note_off,0,0,0,,2,,,62,127
72454,note_on,2,0,0,,7,,,55,127
72454,note_on,0,0,0,,0,,,60,127
72454,note_on,0,0,0,,2,,,74,127
72505,note_on,51,0,0,,0,,,72,127
72510,note_off,5,0,0,,2,,,74,127
72556,note_on,46,0,0,,2,,,74,127
72561,note_off,5,0,0,,0,,,72,127
72607,note_on,46,0,0,,0,,,72,127
72612,note_off,5,0,0,,2,,,74,127
72658,note_on,46,0,0,,12,,,71,127
72663,note_off,5,0,0,,0,,,72,127
72709,note_on,46,0,0,,0,,,72,127
72714,note_off,5,0,0,,12,,,71,127
72759,note_off,45,0,0,,0,,,60,127
72759,note_off,0,0,0,,7,,,55,127
72760,note_off,1,0,0,,7,,,79,127
72760,note_on,0,0,0,,2,,,74,127
72761,note_on,1,0,0,,7,,,55,127
72766,note_off,5,0,0,,0,,,72,127
72836,note_off,70,0,0,,2,,,74,127
72838,note_on,2,0,0,,12,,,71,127
72913,note_off,75,0,0,,12,,,71,127
72915,note_on,2,0,0,,0,,,72,127
72990,note_off,75,0,0,,0,,,72,127
72992,note_on,2,0,0,,10,,,69,127
73067,note_off,75,0,0,,10,,,69,127
73069,note_on,2,0,0,,12,,,71,127
73144,note_off,75,0,0,,12,,,71,127
73146,note_on,2,0,0,,7,,,67,127
73221,note_off,75,0,0,,7,,,67,127
73223,note_on,2,0,0,,10,,,69,127
73298,note_off,75,0,0,,10,,,69,127
73300,note_on,2,0,0,,6,,,66,127
73375,note_off,75,0,0,,6,,,66,127
73377,note_on,2,0,0,,7,,,43,127
73377,note_on,0,0,0,,6,,,66,127
73683,note_off,306,0,0,,6,,,66,127
73685,note_on,2,0,0,,7,,,67,127
73965,note_off,280,0,0,,7,,,67,127
73987,note_off,22,0,0,,7,,,55,127
73990,note_off,3,0,0,,7,,,43,127
73992,note_on,2,0,0,,7,,,43,127
73992,note_on,0,0,0,,7,,,55,127
73992,note_on,0,0,0,,2,,,86,127
74094,note_on,102,0,0,,5,,,77,127
74192,note_off,98,0,0,,2,,,86,127
74195,note_off,3,0,0,,5,,,77,127
74197,note_on,2,0,0,,0,,,84,127
74298,note_off,101,0,0,,0,,,84,127
74298,note_off,0,0,0,,7,,,55,127
74298,note_off,0,0,0,,7,,,43,127
74300,note_on,2,0,0,,7,,,43,127
74300,note_on,0,0,0,,7,,,55,127
74300,note_on,0,0,0,,12,,,83,127
74402,note_on,102,0,0,,2,,,74,127
74500,note_off,98,0,0,,12,,,83,127
74503,note_off,3,0,0,,2,,,74,127
74505,note_on,2,0,0,,10,,,81,127
74606,note_off,101,0,0,,10,,,81,127
74606,note_off,0,0,0,,7,,,55,127
74606,note_off,0,0,0,,7,,,43,127
74608,note_on,2,0,0,,7,,,43,127
74608,note_on,0,0,0,,7,,,55,127
74608,note_on,0,0,0,,7,,,79,127
74710,note_on,102,0,0,,12,,,71,127
74808,note_off,98,0,0,,7,,,79,127
74811,note_off,3,0,0,,12,,,71,127
74813,note_on,2,0,0,,5,,,77,127
74914,note_off,101,0,0,,5,,,77,127
74914,note_off,0,0,0,,7,,,55,127
74914,note_off,0,0,0,,7,,,43,127
74916,note_on,2,0,0,,7,,,55,127
74916,note_on,0,0,0,,7,,,43,127
74916,note_on,0,0,0,,4,,,76,127
75018,note_on,102,0,0,,7,,,67,127
75116,note_off,98,0,0,,4,,,76,127
75119,note_off,3,0,0,,7,,,67,127
75121,note_on,2,0,0,,2,,,74,127
75222,note_off,101,0,0,,2,,,74,127
75222,note_off,0,0,0,,7,,,43,127
75222,note_off,0,0,0,,7,,,55,127
75224,note_on,2,0,0,,0,,,48,127
75224,note_on,0,0,0,,2,,,74,127
75325,note_off,101,0,0,,2,,,74,127
75327,note_on,2,0,0,,4,,,76,127
75428,note_off,101,0,0,,4,,,76,127
75430,note_on,2,0,0,,5,,,77,127
75531,note_off,101,0,0,,5,,,77,127
75533,note_on,2,0,0,,0,,,60,127
75533,note_on,0,0,0,,4,,,76,127
75685,note_off,152,0,0,,4,,,76,127
75686,note_off,1,0,0,,0,,,48,127
75687,note_on,1,0,0,,2,,,74,127
75839,note_off,152,0,0,,2,,,74,127
75839,note_off,0,0,0,,0,,,60,127
75841,note_on,2,0,0,,0,,,60,127
75841,note_on,0,0,0,,2,,,74,127
76147,note_off,306,0,0,,2,,,74,127
76147,note_off,0,0,0,,0,,,60,127
76149,note_on,2,0,0,,0,,,60,127
76149,note_on,0,0,0,,0,,,72,127
76455,note_off,306,0,0,,0,,,72,127
76455,note_off,0,0,0,,0,,,60,127
76457,note_on,2,0,0,,7,,,43,127
76457,note_on,0,0,0,,7,,,55,127
76457,note_on,0,0,0,,2,,,86,127
76559,note_on,102,0,0,,5,,,77,127
76572,note_off,13,0,0,,2,,,86,127
76662,note_on,90,0,0,,0,,,84,127
76675,note_off,13,0,0,,5,,,77,127
76763,note_off,88,0,0,,0,,,84,127
76763,note_off,0,0,0,,7,,,55,127
76763,note_off,0,0,0,,7,,,43,127
76765,note_on,2,0,0,,7,,,55,127
76765,note_on,0,0,0,,7,,,43,127
76765,note_on,0,0,0,,12,,,83,127
76867,note_on,102,0,0,,2,,,74,127
76880,note_off,13,0,0,,12,,,83,127
76970,note_on,90,0,0,,10,,,81,127
76983,note_off,13,0,0,,2,,,74,127
77071,note_off,88,0,0,,10,,,81,127
77071,note_off,0,0,0,,7,,,43,127
77071,note_off,0,0,0,,7,,,55,127
77073,note_on,2,0,0,,7,,,43,127
77073,note_on,0,0,0,,7,,,55,127
77073,note_on,0,0,0,,7,,,79,127
77175,note_on,102,0,0,,12,,,71,127
77188,note_off,13,0,0,,7,,,79,127
77278,note_on,90,0,0,,5,,,77,127
77291,note_off,13,0,0,,12,,,71,127
77379,note_off,88,0,0,,5,,,77,127
77379,note_off,0,0,0,,7,,,55,127
77379,note_off,0,0,0,,7,,,43,127
77381,note_on,2,0,0,,7,,,55,127
77381,note_on,0,0,0,,7,,,43,127
77381,note_on,0,0,0,,4,,,76,127
77483,note_on,102,0,0,,7,,,67,127
77496,note_off,13,0,0,,4,,,76,127
77586,note_on,90,0,0,,2,,,74,127
77599,note_off,13,0,0,,7,,,67,127
77687,note_off,88,0,0,,2,,,74,127
77687,note_off,0,0,0,,7,,,43,127
77687,note_off,0,0,0,,7,,,55,127
77689,note_on,2,0,0,,0,,,48,127
77689,note_on,0,0,0,,2,,,74,127
77790,note_off,101,0,0,,2,,,74,127
77792,note_on,2,0,0,,4,,,76,127
77893,note_off,101,0,0,,4,,,76,127
77895,note_on,2,0,0,,5,,,77,127
77996,note_off,101,0,0,,5,,,77,127
77998,note_on,2,0,0,,0,,,36,127
77998,note_on,0,0,0,,4,,,76,127
78150,note_off,152,0,0,,4,,,76,127
78152,note_on,2,0,0,,2,,,74,127
78304,note_off,152,0,0,,2,,,74,127
78304,note_off,0,0,0,,0,,,36,127
78305,note_off,1,0,0,,0,,,48,127
78306,note_on,1,0,0,,0,,,36,127
78306,note_on,0,0,0,,2,,,74,127
78612,note_off,306,0,0,,2,,,74,127
78612,note_off,0,0,0,,0,,,36,127
78614,note_on,2,0,0,,0,,,36,127
78614,note_on,0,0,0,,0,,,72,127
78920,note_off,306,0,0,,0,,,72,127
78920,note_off,0,0,0,,0,,,36,127
78922,note_on,2,0,0,,0,,,48,127
78922,note_on,0,0,0,,0,,,60,127
78922,note_on,0,0,0,,7,,,79,127
79024,note_on,102,0,0,,11,,,70,127
79082,note_off,58,0,0,,7,,,79,127
79125,note_off,43,0,0,,11,,,70,127
79127,note_on,2,0,0,,5,,,77,127
79228,note_off,101,0,0,,5,,,77,127
79228,note_off,0,0,0,,0,,,60,127
79228,note_off,0,0,0,,0,,,48,127
79230,note_on,2,0,0,,0,,,48,127
79230,note_on,0,0,0,,0,,,60,127
79230,note_on,0,0,0,,4,,,76,127
79332,note_on,102,0,0,,7,,,67,127
79390,note_off,58,0,0,,4,,,76,127
79433,note_off,43,0,0,,7,,,67,127
79435,note_on,2,0,0,,1,,,73,127
79536,note_off,101,0,0,,1,,,73,127
79536,note_off,0,0,0,,0,,,60,127
79536,note_off,0,0,0,,0,,,48,127
79538,note_on,2,0,0,,0,,,48,127
79538,note_on,0,0,0,,0,,,60,127
79538,note_on,0,0,0,,0,,,72,127
79640,note_on,102,0,0,,4,,,64,127
79698,note_off,58,0,0,,0,,,72,127
79741,note_off,43,0,0,,4,,,64,127
79743,note_on,2,0,0,,11,,,70,127
79844,note_off,101,0,0,,11,,,70,127
79844,note_off,0,0,0,,0,,,60,127
79844,note_off,0,0,0,,0,,,48,127
79846,note_on,2,0,0,,0,,,48,127
79846,note_on,0,0,0,,0,,,60,127
79846,note_on,0,0,0,,8,,,68,127
79947,note_off,101,0,0,,0,,,60,127
79949,note_on,2,0,0,,0,,,60,127
80007,note_off,58,0,0,,8,,,68,127
80052,note_on,45,0,0,,7,,,67,127
80153,note_off,101,0,0,,7,,,67,127
80153,note_off,0,0,0,,0,,,60,127
80153,note_off,0,0,0,,0,,,48,127
80155,note_on,2,0,0,,1,,,49,127
80155,note_on,0,0,0,,0,,,60,127
80155,note_on,0,0,0,,7,,,67,127
80461,note_off,306,0,0,,7,,,67,127
80461,note_off,0,0,0,,0,,,60,127
80461,note_off,0,0,0,,1,,,49,127
80463,note_on,2,0,0,,0,,,60,127
80463,note_on,0,0,0,,1,,,49,127
80463,note_on,0,0,0,,7,,,67,127
80513,note_off,50,0,0,,7,,,67,127
80515,note_on,2,0,0,,7,,,67,127
80515,note_on,0,0,0,,5,,,65,127
80563,note_off,48,0,0,,7,,,67,127
80566,note_on,3,0,0,,7,,,67,127
80571,note_off,5,0,0,,5,,,65,127
80617,note_on,46,0,0,,5,,,65,127
80622,note_off,5,0,0,,7,,,67,127
80668,note_on,46,0,0,,4,,,64,127
80673,note_off,5,0,0,,5,,,65,127
80769,note_off,96,0,0,,4,,,64,127
80769,note_off,0,0,0,,1,,,49,127
80769,note_off,0,0,0,,0,,,60,127
80771,note_on,2,0,0,,11,,,58,127
80771,note_on,0,0,0,,1,,,49,127
80771,note_on,0,0,0,,4,,,64,127
81077,note_off,306,0,0,,4,,,64,127
81077,note_off,0,0,0,,1,,,49,127
81077,note_off,0,0,0,,11,,,58,127
81079,note_on,2,0,0,,1,,,49,127
81079,note_on,0,0,0,,11,,,58,127
81079,note_on,0,0,0,,5,,,65,127
81385,note_off,306,0,0,,5,,,65,127
81385,note_off,0,0,0,,11,,,58,127
81385,note_off,0,0,0,,1,,,49,127
81387,note_on,2,0,0,,0,,,48,127
81387,note_on,0,0,0,,0,,,60,127
81387,note_on,0,0,0,,7,,,79,127
81488,note_off,101,0,0,,7,,,79,127
81490,note_on,2,0,0,,11,,,70,127
81592,note_on,102,0,0,,5,,,77,127
81650,note_off,58,0,0,,11,,,70,127
81693,note_off,43,0,0,,5,,,77,127
81693,note_off,0,0,0,,0,,,60,127
81693,note_off,0,0,0,,0,,,48,127
81695,note_on,2,0,0,,0,,,48,127
81695,note_on,0,0,0,,0,,,60,127
81695,note_on,0,0,0,,4,,,76,127
81796,note_off,101,0,0,,4,,,76,127
81798,note_on,2,0,0,,7,,,67,127
81900,note_on,102,0,0,,1,,,73,127
81958,note_off,58,0,0,,7,,,67,127
82001,note_off,43,0,0,,1,,,73,127
82001,note_off,0,0,0,,0,,,60,127
82001,note_off,0,0,0,,0,,,48,127
82003,note_on,2,0,0,,0,,,48,127
82003,note_on,0,0,0,,0,,,60,127
82003,note_on,0,0,0,,0,,,72,127
82104,note_off,101,0,0,,0,,,72,127
82106,note_on,2,0,0,,4,,,64,127
82208,note_on,102,0,0,,11,,,70,127
82266,note_off,58,0,0,,4,,,64,127
82309,note_off,43,0,0,,11,,,70,127
82309,note_off,0,0,0,,0,,,60,127
82309,note_off,0,0,0,,0,,,48,127
82311,note_on,2,0,0,,0,,,48,127
82311,note_on,0,0,0,,0,,,60,127
82311,note_on,0,0,0,,8,,,68,127
82412,note_off,101,0,0,,8,,,68,127
82412,note_off,0,0,0,,0,,,60,127
82414,note_on,2,0,0,,0,,,60,127
82516,note_on,102,0,0,,7,,,67,127
82617,note_off,101,0,0,,7,,,67,127
82617,note_off,0,0,0,,0,,,60,127
82617,note_off,0,0,0,,0,,,48,127
82619,note_on,2,0,0,,5,,,53,127
82619,note_on,0,0,0,,7,,,67,127
82720,note_off,101,0,0,,7,,,67,127
82722,note_on,2,0,0,,8,,,68,127
82823,note_off,101,0,0,,8,,,68,127
82825,note_on,2,0,0,,11,,,70,127
82926,note_off,101,0,0,,11,,,70,127
82928,note_on,2,0,0,,8,,,68,127
83080,note_off,152,0,0,,8,,,68,127
83082,note_on,2,0,0,,7,,,67,127
83234,note_off,152,0,0,,7,,,67,127
83236,note_on,2,0,0,,5,,,41,127
83236,note_on,0,0,0,,7,,,67,127
83542,note_off,306,0,0,,7,,,67,127
83544,note_on,2,0,0,,5,,,65,127
83846,note_off,302,0,0,,5,,,53,127
83849,note_off,3,0,0,,5,,,41,127
83851,note_on,2,0,0,,5,,,53,127
83926,note_off,75,0,0,,5,,,65,127
83928,note_on,2,0,0,,8,,,68,127
84003,note_off,75,0,0,,8,,,68,127
84005,note_on,2,0,0,,7,,,67,127
84080,note_off,75,0,0,,7,,,67,127
84082,note_on,2,0,0,,8,,,68,127
84157,note_off,75,0,0,,8,,,68,127
84159,note_on,2,0,0,,0,,,72,127
84234,note_off,75,0,0,,0,,,72,127
84236,note_on,2,0,0,,8,,,68,127
84311,note_off,75,0,0,,8,,,68,127
84313,note_on,2,0,0,,7,,,67,127
84388,note_off,75,0,0,,7,,,67,127
84390,note_on,2,0,0,,8,,,68,127
84465,note_off,75,0,0,,8,,,68,127
84465,note_off,0,0,0,,5,,,53,127
84467,note_on,2,0,0,,5,,,65,127
84467,note_on,0,0,0,,0,,,72,127
84542,note_off,75,0,0,,0,,,72,127
84544,note_on,2,0,0,,8,,,68,127
84619,note_off,75,0,0,,8,,,68,127
84621,note_on,2,0,0,,7,,,67,127
84696,note_off,75,0,0,,7,,,67,127
84698,note_on,2,0,0,,8,,,68,127
84773,note_off,75,0,0,,8,,,68,127
84773,note_off,0,0,0,,5,,,65,127
84775,note_on,2,0,0,,3,,,63,127
84775,note_on,0,0,0,,0,,,72,127
84850,note_off,75,0,0,,0,,,72,127
84852,note_on,2,0,0,,10,,,69,127
84927,note_off,75,0,0,,10,,,69,127
84929,note_on,2,0,0,,7,,,67,127
85004,note_off,75,0,0,,7,,,67,127
85006,note_on,2,0,0,,10,,,69,127
85081,note_off,75,0,0,,10,,,69,127
85081,note_off,0,0,0,,3,,,63,127
85083,note_on,2,0,0,,1,,,61,127
85083,note_on,0,0,0,,1,,,73,127
85158,note_off,75,0,0,,1,,,73,127
85160,note_on,2,0,0,,11,,,70,127
85235,note_off,75,0,0,,11,,,70,127
85237,note_on,2,0,0,,10,,,69,127
85312,note_off,75,0,0,,10,,,69,127
85314,note_on,2,0,0,,11,,,70,127
85389,note_off,75,0,0,,11,,,70,127
85389,note_off,0,0,0,,1,,,61,127
85391,note_on,2,0,0,,0,,,60,127
85391,note_on,0,0,0,,3,,,75,127
85466,note_off,75,0,0,,3,,,75,127
85468,note_on,2,0,0,,0,,,72,127
85543,note_off,75,0,0,,0,,,72,127
85545,note_on,2,0,0,,11,,,70,127
85620,note_off,75,0,0,,11,,,70,127
85622,note_on,2,0,0,,0,,,72,127
85697,note_off,75,0,0,,0,,,72,127
85697,note_off,0,0,0,,0,,,60,127
85699,note_on,2,0,0,,11,,,58,127
85699,note_on,0,0,0,,5,,,77,127
85774,note_off,75,0,0,,5,,,77,127
85776,note_on,2,0,0,,3,,,75,127
85851,note_off,75,0,0,,3,,,75,127
85853,note_on,2,0,0,,1,,,73,127
85928,note_off,75,0,0,,1,,,73,127
85930,note_on,2,0,0,,0,,,72,127
86005,note_off,75,0,0,,0,,,72,127
86005,note_off,0,0,0,,11,,,58,127
86007,note_on,2,0,0,,1,,,61,127
86007,note_on,0,0,0,,11,,,70,127
86082,note_off,75,0,0,,11,,,70,127
86084,note_on,2,0,0,,8,,,68,127
86159,note_off,75,0,0,,8,,,68,127
86161,note_on,2,0,0,,7,,,67,127
86236,note_off,75,0,0,,7,,,67,127
86238,note_on,2,0,0,,5,,,65,127
86313,note_off,75,0,0,,5,,,65,127
86313,note_off,0,0,0,,1,,,61,127
86315,note_on,2,0,0,,3,,,63,127
86315,note_on,0,0,0,,11,,,70,127
86392,note_on,77,0,0,,7,,,67,127
86467,note_off,75,0,0,,7,,,67,127
86468,note_off,1,0,0,,11,,,70,127
86469,note_on,1,0,0,,6,,,66,127
86544,note_off,75,0,0,,6,,,66,127
86546,note_on,2,0,0,,7,,,67,127
86621,note_off,75,0,0,,7,,,67,127
86621,note_off,0,0,0,,3,,,63,127
86623,note_on,2,0,0,,3,,,51,127
86623,note_on,0,0,0,,11,,,70,127
86698,note_off,75,0,0,,11,,,70,127
86700,note_on,2,0,0,,7,,,67,127
86775,note_off,75,0,0,,7,,,67,127
86777,note_on,2,0,0,,6,,,66,127
86852,note_off,75,0,0,,6,,,66,127
86854,note_on,2,0,0,,7,,,67,127
86929,note_off,75,0,0,,7,,,67,127
86929,note_off,0,0,0,,3,,,51,127
86931,note_on,2,0,0,,3,,,63,127
86931,note_on,0,0,0,,11,,,70,127
87006,note_off,75,0,0,,11,,,70,127
87008,note_on,2,0,0,,7,,,67,127
87083,note_off,75,0,0,,7,,,67,127
87085,note_on,2,0,0,,6,,,66,127
87160,note_off,75,0,0,,6,,,66,127
87162,note_on,2,0,0,,7,,,67,127
87237,note_off,75,0,0,,7,,,67,127
87237,note_off,0,0,0,,3,,,63,127
87239,note_on,2,0,0,,1,,,61,127
87239,note_on,0,0,0,,11,,,70,127
87314,note_off,75,0,0,,11,,,70,127
87316,note_on,2,0,0,,7,,,67,127
87391,note_off,75,0,0,,7,,,67,127
87393,note_on,2,0,0,,6,,,66,127
87468,note_off,75,0,0,,6,,,66,127
87470,note_on,2,0,0,,7,,,67,127
87545,note_off,75,0,0,,7,,,67,127
87545,note_off,0,0,0,,1,,,61,127
87547,note_on,2,0,0,,0,,,60,127
87547,note_on,0,0,0,,0,,,72,127
87622,note_off,75,0,0,,0,,,72,127
87624,note_on,2,0,0,,8,,,68,127
87699,note_off,75,0,0,,8,,,68,127
87701,note_on,2,0,0,,7,,,67,127
87776,note_off,75,0,0,,7,,,67,127
87778,note_on,2,0,0,,8,,,68,127
87853,note_off,75,0,0,,8,,,68,127
87853,note_off,0,0,0,,0,,,60,127
87855,note_on,2,0,0,,11,,,58,127
87855,note_on,0,0,0,,1,,,73,127
87930,note_off,75,0,0,,1,,,73,127
87932,note_on,2,0,0,,11,,,70,127
88007,note_off,75,0,0,,11,,,70,127
88009,note_on,2,0,0,,8,,,68,127
88084,note_off,75,0,0,,8,,,68,127
88086,note_on,2,0,0,,11,,,70,127
88161,note_off,75,0,0,,11,,,70,127
88161,note_off,0,0,0,,11,,,58,127
88163,note_on,2,0,0,,8,,,56,127
88163,note_on,0,0,0,,3,,,75,127
88238,note_off,75,0,0,,3,,,75,127
88240,note_on,2,0,0,,1,,,73,127
88315,note_off,75,0,0,,1,,,73,127
88317,note_on,2,0,0,,0,,,72,127
88392,note_off,75,0,0,,0,,,72,127
88394,note_on,2,0,0,,11,,,70,127
88469,note_off,75,0,0,,11,,,70,127
88469,note_off,0,0,0,,8,,,56,127
88471,note_on,2,0,0,,0,,,60,127
88471,note_on,0,0,0,,8,,,68,127
88546,note_off,75,0,0,,8,,,68,127
88548,note_on,2,0,0,,7,,,67,127
88623,note_off,75,0,0,,7,,,67,127
88625,note_on,2,0,0,,5,,,65,127
88700,note_off,75,0,0,,5,,,65,127
88702,note_on,2,0,0,,4,,,64,127
88777,note_off,75,0,0,,4,,,64,127
88777,note_off,0,0,0,,0,,,60,127
88779,note_on,2,0,0,,1,,,61,127
88779,note_on,0,0,0,,8,,,68,127
88856,note_on,77,0,0,,5,,,65,127
88931,note_off,75,0,0,,5,,,65,127
88933,note_on,2,0,0,,4,,,64,127
89008,note_off,75,0,0,,4,,,64,127
89010,note_off,2,0,0,,8,,,68,127
89010,note_on,0,0,0,,5,,,65,127
89085,note_off,75,0,0,,5,,,65,127
89085,note_off,0,0,0,,1,,,61,127
89087,note_on,2,0,0,,1,,,49,127
89087,note_on,0,0,0,,8,,,68,127
89162,note_off,75,0,0,,8,,,68,127
89164,note_on,2,0,0,,5,,,65,127
89239,note_off,75,0,0,,5,,,65,127
89241,note_on,2,0,0,,4,,,64,127
89316,note_off,75,0,0,,4,,,64,127
89318,note_on,2,0,0,,5,,,65,127
89393,note_off,75,0,0,,5,,,65,127
89393,note_off,0,0,0,,1,,,49,127
89395,note_on,2,0,0,,1,,,61,127
89395,note_on,0,0,0,,8,,,68,127
89472,note_on,77,0,0,,5,,,65,127
89491,note_off,19,0,0,,8,,,68,127
89547,note_off,56,0,0,,5,,,65,127
89549,note_on,2,0,0,,4,,,64,127
89624,note_off,75,0,0,,4,,,64,127
89626,note_on,2,0,0,,5,,,65,127
89701,note_off,75,0,0,,5,,,65,127
89701,note_off,0,0,0,,1,,,61,127
89703,note_on,2,0,0,,0,,,60,127
89703,note_on,0,0,0,,8,,,68,127
89778,note_off,75,0,0,,8,,,68,127
89780,note_on,2,0,0,,5,,,65,127
89855,note_off,75,0,0,,5,,,65,127
89857,note_on,2,0,0,,4,,,64,127
89932,note_off,75,0,0,,4,,,64,127
89934,note_on,2,0,0,,5,,,65,127
90009,note_off,75,0,0,,5,,,65,127
90009,note_off,0,0,0,,0,,,60,127
90011,note_on,2,0,0,,11,,,58,127
90011,note_on,0,0,0,,11,,,70,127
90086,note_off,75,0,0,,11,,,70,127
90088,note_on,2,0,0,,7,,,67,127
90163,note_off,75,0,0,,7,,,67,127
90165,note_on,2,0,0,,5,,,65,127
90240,note_off,75,0,0,,5,,,65,127
90242,note_on,2,0,0,,7,,,67,127
90317,note_off,75,0,0,,7,,,67,127
90317,note_off,0,0,0,,11,,,58,127
90319,note_on,2,0,0,,8,,,56,127
90319,note_on,0,0,0,,0,,,72,127
90394,note_off,75,0,0,,0,,,72,127
90396,note_on,2,0,0,,8,,,68,127
90471,note_off,75,0,0,,8,,,68,127
90473,note_on,2,0,0,,7,,,67,127
90548,note_off,75,0,0,,7,,,67,127
90550,note_on,2,0,0,,8,,,68,127
90625,note_off,75,0,0,,8,,,68,127
90625,note_off,0,0,0,,8,,,56,127
90627,note_on,2,0,0,,7,,,55,127
90627,note_on,0,0,0,,1,,,73,127
90702,note_off,75,0,0,,1,,,73,127
90704,note_on,2,0,0,,0,,,72,127
90779,note_off,75,0,0,,0,,,72,127
90781,note_on,2,0,0,,11,,,70,127
90856,note_off,75,0,0,,11,,,70,127
90858,note_on,2,0,0,,8,,,68,127
90933,note_off,75,0,0,,8,,,68,127
90933,note_off,0,0,0,,7,,,55,127
90935,note_on,2,0,0,,5,,,53,127
90935,note_on,0,0,0,,7,,,67,127
91010,note_off,75,0,0,,7,,,67,127
91012,note_on,2,0,0,,5,,,65,127
91087,note_off,75,0,0,,5,,,65,127
91089,note_on,2,0,0,,7,,,67,127
91164,note_off,75,0,0,,7,,,67,127
91166,note_on,2,0,0,,8,,,68,127
91241,note_off,75,0,0,,8,,,68,127
91241,note_off,0,0,0,,5,,,53,127
91243,note_on,2,0,0,,3,,,51,127
91243,note_on,0,0,0,,11,,,70,127
91318,note_off,75,0,0,,11,,,70,127
91320,note_on,2,0,0,,8,,,68,127
91395,note_off,75,0,0,,8,,,68,127
91397,note_on,2,0,0,,7,,,67,127
91472,note_off,75,0,0,,7,,,67,127
91474,note_on,2,0,0,,5,,,65,127
91549,note_off,75,0,0,,5,,,65,127
91551,note_on,2,0,0,,3,,,39,127
91551,note_on,0,0,0,,7,,,67,127
91626,note_off,75,0,0,,7,,,67,127
91628,note_on,2,0,0,,5,,,65,127
91703,note_off,75,0,0,,5,,,65,127
91705,note_on,2,0,0,,3,,,63,127
91780,note_off,75,0,0,,3,,,63,127
91782,note_on,2,0,0,,1,,,61,127
91857,note_off,75,0,0,,1,,,61,127
91858,note_off,1,0,0,,3,,,51,127
91859,note_on,1,0,0,,3,,,51,127
91859,note_on,0,0,0,,3,,,63,127
91934,note_off,75,0,0,,3,,,63,127
91936,note_on,2,0,0,,1,,,61,127
92011,note_off,75,0,0,,1,,,61,127
92013,note_on,2,0,0,,0,,,60,127
92088,note_off,75,0,0,,0,,,60,127
92090,note_on,2,0,0,,11,,,58,127
92165,note_off,75,0,0,,11,,,58,127
92166,note_off,1,0,0,,3,,,39,127
92167,note_on,1,0,0,,3,,,39,127
92167,note_on,0,0,0,,0,,,60,127
92242,note_off,75,0,0,,0,,,60,127
92244,note_on,2,0,0,,11,,,58,127
92319,note_off,75,0,0,,11,,,58,127
92321,note_on,2,0,0,,8,,,56,127
92396,note_off,75,0,0,,8,,,56,127
92398,note_on,2,0,0,,7,,,55,127
92473,note_off,75,0,0,,7,,,55,127
92474,note_off,1,0,0,,3,,,51,127
92475,note_on,1,0,0,,3,,,51,127
92475,note_on,0,0,0,,8,,,56,127
92550,note_off,75,0,0,,8,,,56,127
92552,note_on,2,0,0,,7,,,55,127
92627,note_off,75,0,0,,7,,,55,127
92629,note_on,2,0,0,,8,,,56,127
92704,note_off,75,0,0,,8,,,56,127
92706,note_on,2,0,0,,11,,,58,127
92781,note_off,75,0,0,,11,,,58,127
92782,note_off,1,0,0,,3,,,39,127
92783,note_on,1,0,0,,3,,,39,127
92783,note_on,0,0,0,,0,,,60,127
92858,note_off,75,0,0,,0,,,60,127
92860,note_on,2,0,0,,11,,,58,127
92935,note_off,75,0,0,,11,,,58,127
92937,note_on,2,0,0,,0,,,60,127
93012,note_off,75,0,0,,0,,,60,127
93014,note_on,2,0,0,,2,,,62,127
93089,note_off,75,0,0,,2,,,62,127
93090,note_off,1,0,0,,3,,,51,127
93091,note_on,1,0,0,,3,,,51,127
93091,note_on,0,0,0,,3,,,63,127
93166,note_off,75,0,0,,3,,,63,127
93168,note_on,2,0,0,,2,,,62,127
93243,note_off,75,0,0,,2,,,62,127
93245,note_on,2,0,0,,3,,,63,127
93320,note_off,75,0,0,,3,,,63,127
93322,note_on,2,0,0,,5,,,65,127
93397,note_off,75,0,0,,5,,,65,127
93398,note_off,1,0,0,,3,,,39,127
93399,note_on,1,0,0,,3,,,39,127
93399,note_on,0,0,0,,7,,,67,127
93474,note_off,75,0,0,,7,,,67,127
93476,note_on,2,0,0,,5,,,65,127
93551,note_off,75,0,0,,5,,,65,127
93553,note_on,2,0,0,,7,,,67,127
93628,note_off,75,0,0,,7,,,67,127
93630,note_on,2,0,0,,8,,,68,127
93705,note_off,75,0,0,,8,,,68,127
93706,note_off,1,0,0,,3,,,51,127
93707,note_on,1,0,0,,3,,,51,127
93707,note_on,0,0,0,,11,,,70,127
93782,note_off,75,0,0,,11,,,70,127
93784,note_on,2,0,0,,8,,,68,127
93859,note_off,75,0,0,,8,,,68,127
93861,note_on,2,0,0,,7,,,67,127
93936,note_off,75,0,0,,7,,,67,127
93938,note_on,2,0,0,,5,,,65,127
94013,note_off,75,0,0,,5,,,65,127
94014,note_off,1,0,0,,3,,,39,127
94015,note_on,1,0,0,,3,,,39,127
94015,note_on,0,0,0,,7,,,67,127
94090,note_off,75,0,0,,7,,,67,127
94092,note_on,2,0,0,,5,,,65,127
94167,note_off,75,0,0,,5,,,65,127
94169,note_on,2,0,0,,3,,,63,127
94244,note_off,75,0,0,,3,,,63,127
94246,note_on,2,0,0,,1,,,61,127
94321,note_off,75,0,0,,1,,,61,127
94322,note_off,1,0,0,,3,,,51,127
94323,note_on,1,0,0,,3,,,51,127
94323,note_on,0,0,0,,3,,,63,127
94398,note_off,75,0,0,,3,,,63,127
94400,note_on,2,0,0,,1,,,61,127
94475,note_off,75,0,0,,1,,,61,127
94477,note_on,2,0,0,,0,,,60,127
94552,note_off,75,0,0,,0,,,60,127
94554,note_on,2,0,0,,11,,,58,127
94629,note_off,75,0,0,,11,,,58,127
94630,note_off,1,0,0,,3,,,39,127
94631,note_on,1,0,0,,3,,,39,127
94631,note_on,0,0,0,,0,,,60,127
94706,note_off,75,0,0,,0,,,60,127
94708,note_on,2,0,0,,11,,,58,127
94783,note_off,75,0,0,,11,,,58,127
94785,note_on,2,0,0,,8,,,56,127
94860,note_off,75,0,0,,8,,,56,127
94862,note_on,2,0,0,,7,,,55,127
94937,note_off,75,0,0,,7,,,55,127
94938,note_off,1,0,0,,3,,,51,127
94939,note_on,1,0,0,,3,,,51,127
94939,note_on,0,0,0,,8,,,56,127
95014,note_off,75,0,0,,8,,,56,127
95016,note_on,2,0,0,,7,,,55,127
95091,note_off,75,0,0,,7,,,55,127
95093,note_on,2,0,0,,8,,,56,127
95168,note_off,75,0,0,,8,,,56,127
95170,note_on,2,0,0,,11,,,58,127
95245,note_off,75,0,0,,11,,,58,127
95246,note_off,1,0,0,,3,,,39,127
95247,note_on,1,0,0,,3,,,39,127
95247,note_on,0,0,0,,0,,,60,127
95322,note_off,75,0,0,,0,,,60,127
95324,note_on,2,0,0,,11,,,58,127
95399,note_off,75,0,0,,11,,,58,127
95401,note_on,2,0,0,,0,,,60,127
95476,note_off,75,0,0,,0,,,60,127
95478,note_on,2,0,0,,2,,,62,127
95553,note_off,75,0,0,,2,,,62,127
95554,note_off,1,0,0,,3,,,51,127
95555,note_on,1,0,0,,3,,,51,127
95555,note_on,0,0,0,,3,,,63,127
95630,note_off,75,0,0,,3,,,63,127
95632,note_on,2,0,0,,2,,,62,127
95707,note_off,75,0,0,,2,,,62,127
95709,note_on,2,0,0,,3,,,63,127
95784,note_off,75,0,0,,3,,,63,127
95786,note_on,2,0,0,,5,,,65,127
95861,note_off,75,0,0,,5,,,65,127
95862,note_off,1,0,0,,3,,,39,127
95863,note_on,1,0,0,,3,,,39,127
95863,note_on,0,0,0,,7,,,67,127
95938,note_off,75,0,0,,7,,,67,127
95940,note_on,2,0,0,,5,,,65,127
96015,note_off,75,0,0,,5,,,65,127
96017,note_on,2,0,0,,7,,,67,127
96092,note_off,75,0,0,,7,,,67,127
96094,note_on,2,0,0,,8,,,68,127
96169,note_off,75,0,0,,8,,,68,127
96169,note_off,0,0,0,,3,,,39,127
96170,note_off,1,0,0,,3,,,51,127
96171,note_on,1,0,0,,3,,,39,127
96171,note_on,0,0,0,,3,,,51,127
96171,note_on,0,0,0,,11,,,70,127
96246,note_off,75,0,0,,11,,,70,127
96248,note_on,2,0,0,,8,,,68,127
96323,note_off,75,0,0,,8,,,68,127
96325,note_on,2,0,0,,7,,,67,127
96400,note_off,75,0,0,,7,,,67,127
96402,note_on,2,0,0,,5,,,65,127
96477,note_off,75,0,0,,5,,,65,127
96479,note_on,2,0,0,,7,,,67,127
96703,note_on,224,0,0,,5,,,65,127
96715,note_off,12,0,0,,7,,,67,127
96769,note_off,54,0,0,,5,,,65,127
96771,note_on,2,0,0,,7,,,67,127
96823,note_on,52,0,0,,8,,,68,127
96827,note_off,4,0,0,,7,,,67,127
96875,note_on,48,0,0,,11,,,70,127
96879,note_off,4,0,0,,8,,,68,127
96928,note_on,49,0,0,,0,,,72,127
96931,note_off,3,0,0,,11,,,70,127
96979,note_on,48,0,0,,2,,,74,127
96984,note_off,5,0,0,,0,,,72,127
97031,note_on,47,0,0,,3,,,75,127
97035,note_off,4,0,0,,2,,,74,127
97083,note_on,48,0,0,,5,,,77,127
97087,note_off,4,0,0,,3,,,75,127
97135,note_on,48,0,0,,7,,,79,127
97139,note_off,4,0,0,,5,,,77,127
97187,note_on,48,0,0,,8,,,80,127
97191,note_off,4,0,0,,7,,,79,127
97239,note_on,48,0,0,,11,,,82,127
97243,note_off,4,0,0,,8,,,80,127
97291,note_on,48,0,0,,0,,,84,127
97297,note_off,6,0,0,,11,,,82,127
97343,note_on,46,0,0,,11,,,82,127
97347,note_off,4,0,0,,0,,,84,127
97395,note_on,48,0,0,,8,,,80,127
97399,note_off,4,0,0,,11,,,82,127
97447,note_on,48,0,0,,7,,,79,127
97451,note_off,4,0,0,,8,,,80,127
97499,note_on,48,0,0,,5,,,77,127
97503,note_off,4,0,0,,7,,,79,127
97551,note_on,48,0,0,,3,,,75,127
97555,note_off,4,0,0,,5,,,77,127
97603,note_on,48,0,0,,5,,,77,127
97607,note_off,4,0,0,,3,,,75,127
97655,note_on,48,0,0,,2,,,74,127
97659,note_off,4,0,0,,5,,,77,127
97703,note_off,44,0,0,,2,,,74,127
97715,note_on,12,0,0,,2,,,74,127
97963,note_on,248,0,0,,3,,,75,127
97969,note_off,6,0,0,,2,,,74,127
98014,note_on,45,0,0,,5,,,77,127
98019,note_off,5,0,0,,3,,,75,127
98065,note_on,46,0,0,,3,,,75,127
98070,note_off,5,0,0,,5,,,77,127
98116,note_on,46,0,0,,5,,,77,127
98121,note_off,5,0,0,,3,,,75,127
98167,note_on,46,0,0,,3,,,75,127
98172,note_off,5,0,0,,5,,,77,127
98218,note_on,46,0,0,,5,,,77,127
98223,note_off,5,0,0,,3,,,75,127
98269,note_on,46,0,0,,3,,,75,127
98274,note_off,5,0,0,,5,,,77,127
98320,note_on,46,0,0,,5,,,77,127
98325,note_off,5,0,0,,3,,,75,127
98371,note_on,46,0,0,,3,,,75,127
98376,note_off,5,0,0,,5,,,77,127
98422,note_on,46,0,0,,5,,,77,127
98427,note_off,5,0,0,,3,,,75,127
98473,note_on,46,0,0,,3,,,75,127
98478,note_off,5,0,0,,5,,,77,127
99033,note_off,555,0,0,,3,,,75,127
99239,note_off,206,0,0,,3,,,51,127
99239,note_off,0,0,0,,3,,,39,127
99241,note_on,2,0,0,,3,,,39,127
99241,note_on,0,0,0,,3,,,51,127
99241,note_on,0,0,0,,11,,,82,127
99343,note_on,102,0,0,,1,,,73,127
99401,note_off,58,0,0,,11,,,82,127
99444,note_off,43,0,0,,1,,,73,127
99446,note_on,2,0,0,,8,,,80,127
99547,note_off,101,0,0,,8,,,80,127
99547,note_off,0,0,0,,3,,,51,127
99547,note_off,0,0,0,,3,,,39,127
99549,note_on,2,0,0,,5,,,53,127
99549,note_on,0,0,0,,5,,,41,127
99549,note_on,0,0,0,,7,,,79,127
99651,note_on,102,0,0,,11,,,70,127
99709,note_off,58,0,0,,7,,,79,127
99752,note_off,43,0,0,,11,,,70,127
99754,note_on,2,0,0,,5,,,77,127
99855,note_off,101,0,0,,5,,,77,127
99855,note_off,0,0,0,,5,,,41,127
99855,note_off,0,0,0,,5,,,53,127
99857,note_on,2,0,0,,7,,,43,127
99857,note_on,0,0,0,,7,,,55,127
99857,note_on,0,0,0,,3,,,75,127
99959,note_on,102,0,0,,7,,,67,127
100017,note_off,58,0,0,,3,,,75,127
100060,note_off,43,0,0,,7,,,67,127
100062,note_on,2,0,0,,1,,,73,127
100163,note_off,101,0,0,,1,,,73,127
100163,note_off,0,0,0,,7,,,55,127
100163,note_off,0,0,0,,7,,,43,127
100165,note_on,2,0,0,,3,,,39,127
100165,note_on,0,0,0,,3,,,51,127
100165,note_on,0,0,0,,0,,,72,127
100267,note_on,102,0,0,,3,,,63,127
100325,note_off,58,0,0,,0,,,72,127
100370,note_on,45,0,0,,11,,,70,127
100471,note_off,101,0,0,,3,,,51,127
100471,note_off,0,0,0,,3,,,39,127
100473,note_on,2,0,0,,8,,,44,127
100473,note_on,0,0,0,,8,,,56,127
100473,note_on,0,0,0,,0,,,72,127
100779,note_off,306,0,0,,8,,,56,127
100779,note_off,0,0,0,,8,,,44,127
100780,note_off,1,0,0,,11,,,70,127
100781,note_on,1,0,0,,11,,,46,127
100781,note_on,0,0,0,,11,,,58,127
100781,note_on,0,0,0,,8,,,68,127
100856,note_off,75,0,0,,8,,,68,127
100858,note_on,2,0,0,,11,,,70,127
100933,note_off,75,0,0,,11,,,70,127
100935,note_on,2,0,0,,8,,,68,127
101010,note_off,75,0,0,,8,,,68,127
101012,note_on,2,0,0,,7,,,67,127
101087,note_off,75,0,0,,7,,,67,127
101087,note_off,0,0,0,,11,,,58,127
101087,note_off,0,0,0,,11,,,46,127
101088,note_off,1,0,0,,0,,,72,127
101088,note_off,0,0,0,,3,,,63,127
101089,note_on,1,0,0,,0,,,48,127
101089,note_on,0,0,0,,0,,,60,127
101089,note_on,0,0,0,,7,,,67,127
101395,note_off,306,0,0,,7,,,67,127
101395,note_off,0,0,0,,0,,,60,127
101395,note_off,0,0,0,,0,,,48,127
101397,note_on,2,0,0,,8,,,44,127
101397,note_on,0,0,0,,8,,,56,127
101397,note_on,0,0,0,,8,,,68,127
101703,note_off,306,0,0,,8,,,68,127
101703,note_off,0,0,0,,8,,,56,127
101703,note_off,0,0,0,,8,,,44,127
101705,note_on,2,0,0,,3,,,51,127
101705,note_on,0,0,0,,7,,,55,127
101705,note_on,0,0,0,,11,,,82,127
101806,note_off,101,0,0,,11,,,82,127
101808,note_on,2,0,0,,1,,,73,127
101910,note_on,102,0,0,,8,,,80,127
101968,note_off,58,0,0,,1,,,73,127
102011,note_off,43,0,0,,8,,,80,127
102011,note_off,0,0,0,,7,,,55,127
102011,note_off,0,0,0,,3,,,51,127
102013,note_on,2,0,0,,8,,,56,127
102013,note_on,0,0,0,,5,,,53,127
102013,note_on,0,0,0,,7,,,79,127
102114,note_off,101,0,0,,7,,,79,127
102116,note_on,2,0,0,,11,,,70,127
102218,note_on,102,0,0,,5,,,77,127
102276,note_off,58,0,0,,11,,,70,127
102319,note_off,43,0,0,,5,,,77,127
102319,note_off,0,0,0,,5,,,53,127
102319,note_off,0,0,0,,8,,,56,127
102321,note_on,2,0,0,,7,,,55,127
102321,note_on,0,0,0,,11,,,58,127
102321,note_on,0,0,0,,3,,,75,127
102422,note_off,101,0,0,,3,,,75,127
102424,note_on,2,0,0,,7,,,67,127
102526,note_on,102,0,0,,1,,,73,127
102584,note_off,58,0,0,,7,,,67,127
102627,note_off,43,0,0,,1,,,73,127
102627,note_off,0,0,0,,11,,,58,127
102627,note_off,0,0,0,,7,,,55,127
102629,note_on,2,0,0,,3,,,51,127
102629,note_on,0,0,0,,7,,,55,127
102629,note_on,0,0,0,,0,,,72,127
102730,note_off,101,0,0,,0,,,72,127
102732,note_on,2,0,0,,3,,,63,127
102834,note_on,102,0,0,,11,,,70,127
102935,note_off,101,0,0,,7,,,55,127
102935,note_off,0,0,0,,3,,,51,127
102937,note_on,2,0,0,,8,,,56,127
102937,note_on,0,0,0,,0,,,60,127
102937,note_on,0,0,0,,0,,,72,127
103243,note_off,306,0,0,,0,,,60,127
103243,note_off,0,0,0,,8,,,56,127
103244,note_off,1,0,0,,11,,,70,127
103245,note_on,1,0,0,,11,,,58,127
103245,note_on,0,0,0,,1,,,61,127
103245,note_on,0,0,0,,11,,,70,127
103296,note_on,51,0,0,,8,,,68,127
103301,note_off,5,0,0,,11,,,70,127
103347,note_on,46,0,0,,11,,,70,127
103352,note_off,5,0,0,,8,,,68,127
103398,note_on,46,0,0,,8,,,68,127
103403,note_off,5,0,0,,11,,,70,127
103449,note_on,46,0,0,,7,,,67,127
103454,note_off,5,0,0,,8,,,68,127
103550,note_off,96,0,0,,7,,,67,127
103550,note_off,0,0,0,,1,,,61,127
103550,note_off,0,0,0,,11,,,58,127
103551,note_off,1,0,0,,0,,,72,127
103551,note_off,0,0,0,,3,,,63,127
103552,note_on,1,0,0,,0,,,60,127
103552,note_on,0,0,0,,3,,,63,127
103552,note_on,0,0,0,,7,,,67,127
103858,note_off,306,0,0,,7,,,67,127
103858,note_off,0,0,0,,3,,,63,127
103858,note_off,0,0,0,,0,,,60,127
103860,note_on,2,0,0,,11,,,58,127
103860,note_on,0,0,0,,1,,,61,127
103860,note_on,0,0,0,,8,,,68,127
104166,note_off,306,0,0,,1,,,61,127
104166,note_off,0,0,0,,11,,,58,127
104167,note_off,1,0,0,,8,,,68,127
104168,note_on,1,0,0,,0,,,48,127
104168,note_on,0,0,0,,8,,,56,127
104322,note_on,154,0,0,,8,,,68,127
104322,note_on,0,0,0,,0,,,72,127
104474,note_off,152,0,0,,0,,,72,127
104474,note_off,0,0,0,,8,,,68,127
104474,note_off,0,0,0,,8,,,56,127
104474,note_off,0,0,0,,0,,,48,127
104476,note_on,2,0,0,,0,,,48,127
104476,note_on,0,0,0,,8,,,56,127
104476,note_on,0,0,0,,7,,,67,127
104476,note_on,0,0,0,,12,,,71,127
104628,note_off,152,0,0,,12,,,71,127
104628,note_off,0,0,0,,7,,,67,127
104630,note_on,2,0,0,,8,,,68,127
104630,note_on,0,0,0,,0,,,72,127
104782,note_off,152,0,0,,0,,,72,127
104782,note_off,0,0,0,,8,,,68,127
104782,note_off,0,0,0,,8,,,56,127
104782,note_off,0,0,0,,0,,,48,127
104784,note_on,2,0,0,,8,,,56,127
104784,note_on,0,0,0,,0,,,48,127
104784,note_on,0,0,0,,7,,,67,127
104784,note_on,0,0,0,,12,,,71,127
104936,note_off,152,0,0,,12,,,71,127
104936,note_off,0,0,0,,7,,,67,127
104938,note_on,2,0,0,,8,,,68,127
104938,note_on,0,0,0,,0,,,72,127
105090,note_off,152,0,0,,0,,,72,127
105090,note_off,0,0,0,,8,,,68,127
105090,note_off,0,0,0,,0,,,48,127
105090,note_off,0,0,0,,8,,,56,127
105092,note_on,2,0,0,,0,,,48,127
105092,note_on,0,0,0,,8,,,56,127
105092,note_on,0,0,0,,7,,,67,127
105092,note_on,0,0,0,,12,,,71,127
105244,note_off,152,0,0,,12,,,71,127
105244,note_off,0,0,0,,7,,,67,127
105246,note_on,2,0,0,,8,,,68,127
105246,note_on,0,0,0,,0,,,72,127
105398,note_off,152,0,0,,8,,,56,127
105398,note_off,0,0,0,,0,,,48,127
105400,note_on,2,0,0,,1,,,49,127
105400,note_on,0,0,0,,8,,,56,127
105477,note_off,77,0,0,,0,,,72,127
105477,note_off,0,0,0,,8,,,68,127
105554,note_on,77,0,0,,5,,,77,127
105554,note_on,0,0,0,,1,,,73,127
105706,note_off,152,0,0,,1,,,73,127
105706,note_off,0,0,0,,5,,,77,127
105706,note_off,0,0,0,,8,,,56,127
105706,note_off,0,0,0,,1,,,49,127
105708,note_on,2,0,0,,1,,,49,127
105708,note_on,0,0,0,,8,,,56,127
105708,note_on,0,0,0,,0,,,72,127
105708,note_on,0,0,0,,4,,,76,127
105860,note_off,152,0,0,,4,,,76,127
105860,note_off,0,0,0,,0,,,72,127
105862,note_on,2,0,0,,1,,,73,127
105862,note_on,0,0,0,,5,,,77,127
106014,note_off,152,0,0,,5,,,77,127
106014,note_off,0,0,0,,1,,,73,127
106014,note_off,0,0,0,,8,,,56,127
106014,note_off,0,0,0,,1,,,49,127
106016,note_on,2,0,0,,1,,,49,127
106016,note_on,0,0,0,,8,,,56,127
106016,note_on,0,0,0,,4,,,76,127
106016,note_on,0,0,0,,0,,,72,127
106168,note_off,152,0,0,,0,,,72,127
106168,note_off,0,0,0,,4,,,76,127
106170,note_on,2,0,0,,1,,,73,127
106170,note_on,0,0,0,,5,,,77,127
106322,note_off,152,0,0,,5,,,77,127
106322,note_off,0,0,0,,1,,,73,127
106322,note_off,0,0,0,,8,,,56,127
106322,note_off,0,0,0,,1,,,49,127
106324,note_on,2,0,0,,1,,,49,127
106324,note_on,0,0,0,,8,,,56,127
106324,note_on,0,0,0,,0,,,72,127
106324,note_on,0,0,0,,4,,,76,127
106476,note_off,152,0,0,,4,,,76,127
106476,note_off,0,0,0,,0,,,72,127
106478,note_on,2,0,0,,5,,,77,127
106478,note_on,0,0,0,,1,,,73,127
106630,note_off,152,0,0,,1,,,73,127
106630,note_off,0,0,0,,5,,,77,127
106630,note_off,0,0,0,,8,,,56,127
106630,note_off,0,0,0,,1,,,49,127
106632,note_on,2,0,0,,3,,,51,127
106632,note_on,0,0,0,,8,,,56,127
106632,note_on,0,0,0,,0,,,60,127
106632,note_on,0,0,0,,3,,,75,127
106938,note_off,306,0,0,,0,,,60,127
106938,note_off,0,0,0,,8,,,56,127
106938,note_off,0,0,0,,3,,,51,127
106940,note_on,2,0,0,,3,,,51,127
106940,note_on,0,0,0,,0,,,60,127
106940,note_on,0,0,0,,8,,,56,127
107015,note_off,75,0,0,,3,,,75,127
107017,note_on,2,0,0,,5,,,77,127
107092,note_off,75,0,0,,5,,,77,127
107094,note_on,2,0,0,,7,,,79,127
107169,note_off,75,0,0,,7,,,79,127
107171,note_on,2,0,0,,8,,,80,127
107246,note_off,75,0,0,,8,,,80,127
107246,note_off,0,0,0,,8,,,56,127
107246,note_off,0,0,0,,0,,,60,127
107246,note_off,0,0,0,,3,,,51,127
107248,note_on,2,0,0,,3,,,51,127
107248,note_on,0,0,0,,8,,,56,127
107248,note_on,0,0,0,,11,,,58,127
107248,note_on,0,0,0,,1,,,61,127
107248,note_on,0,0,0,,0,,,84,127
107299,note_on,51,0,0,,11,,,82,127
107304,note_off,5,0,0,,0,,,84,127
107350,note_on,46,0,0,,0,,,84,127
107355,note_off,5,0,0,,11,,,82,127
107401,note_on,46,0,0,,11,,,82,127
107406,note_off,5,0,0,,0,,,84,127
107452,note_on,46,0,0,,0,,,84,127
107457,note_off,5,0,0,,11,,,82,127
107503,note_on,46,0,0,,11,,,82,127
107508,note_off,5,0,0,,0,,,84,127
107553,note_off,45,0,0,,1,,,61,127
107553,note_off,0,0,0,,11,,,58,127
107553,note_off,0,0,0,,8,,,56,127
107553,note_off,0,0,0,,3,,,51,127
107555,note_on,2,0,0,,3,,,51,127
107555,note_on,0,0,0,,1,,,61,127
107555,note_on,0,0,0,,11,,,58,127
107555,note_on,0,0,0,,8,,,56,127
107555,note_on,0,0,0,,0,,,84,127
107560,note_off,5,0,0,,11,,,82,127
107606,note_on,46,0,0,,11,,,82,127
107611,note_off,5,0,0,,0,,,84,127
107657,note_on,46,0,0,,0,,,84,127
107662,note_off,5,0,0,,11,,,82,127
107708,note_on,46,0,0,,11,,,82,127
107713,note_off,5,0,0,,0,,,84,127
107759,note_on,46,0,0,,8,,,80,127
107764,note_off,5,0,0,,11,,,82,127
107810,note_on,46,0,0,,11,,,82,127
107815,note_off,5,0,0,,8,,,80,127
107860,note_off,45,0,0,,8,,,56,127
107860,note_off,0,0,0,,11,,,58,127
107860,note_off,0,0,0,,1,,,61,127
107860,note_off,0,0,0,,3,,,51,127
107862,note_on,2,0,0,,8,,,56,127
107862,note_on,0,0,0,,0,,,60,127
107862,note_on,0,0,0,,0,,,84,127
107867,note_off,5,0,0,,11,,,82,127
108014,note_off,147,0,0,,0,,,84,127
108016,note_on,2,0,0,,11,,,82,127
108168,note_off,152,0,0,,11,,,82,127
108168,note_off,0,0,0,,0,,,60,127
108168,note_off,0,0,0,,8,,,56,127
108170,note_on,2,0,0,,1,,,61,127
108170,note_on,0,0,0,,11,,,58,127
108170,note_on,0,0,0,,8,,,80,127
108322,note_off,152,0,0,,8,,,80,127
108324,note_on,2,0,0,,7,,,79,127
108476,note_off,152,0,0,,7,,,79,127
108476,note_off,0,0,0,,11,,,58,127
108476,note_off,0,0,0,,1,,,61,127
108478,note_on,2,0,0,,3,,,63,127
108478,note_on,0,0,0,,0,,,60,127
108478,note_on,0,0,0,,7,,,79,127
108784,note_off,306,0,0,,7,,,79,127
108784,note_off,0,0,0,,0,,,60,127
108784,note_off,0,0,0,,3,,,63,127
108786,note_on,2,0,0,,11,,,58,127
108786,note_on,0,0,0,,1,,,61,127
108786,note_on,0,0,0,,8,,,80,127
109092,note_off,306,0,0,,1,,,61,127
109092,note_off,0,0,0,,11,,,58,127
109093,note_off,1,0,0,,8,,,80,127
109094,note_on,1,0,0,,0,,,48,127
109094,note_on,0,0,0,,8,,,56,127
109248,note_on,154,0,0,,0,,,72,127
109323,note_off,75,0,0,,0,,,72,127
109325,note_on,2,0,0,,8,,,68,127
109400,note_off,75,0,0,,8,,,68,127
109400,note_off,0,0,0,,8,,,56,127
109400,note_off,0,0,0,,0,,,48,127
109402,note_on,2,0,0,,8,,,56,127
109402,note_on,0,0,0,,0,,,48,127
109402,note_on,0,0,0,,12,,,71,127
109477,note_off,75,0,0,,12,,,71,127
109479,note_on,2,0,0,,7,,,67,127
109554,note_off,75,0,0,,7,,,67,127
109556,note_on,2,0,0,,0,,,72,127
109631,note_off,75,0,0,,0,,,72,127
109633,note_on,2,0,0,,8,,,68,127
109708,note_off,75,0,0,,8,,,68,127
109708,note_off,0,0,0,,0,,,48,127
109708,note_off,0,0,0,,8,,,56,127
109710,note_on,2,0,0,,8,,,56,127
109710,note_on,0,0,0,,0,,,48,127
109710,note_on,0,0,0,,12,,,71,127
109785,note_off,75,0,0,,12,,,71,127
109787,note_on,2,0,0,,7,,,67,127
109862,note_off,75,0,0,,7,,,67,127
109864,note_on,2,0,0,,0,,,72,127
109939,note_off,75,0,0,,0,,,72,127
109941,note_on,2,0,0,,8,,,68,127
110016,note_off,75,0,0,,8,,,68,127
110016,note_off,0,0,0,,0,,,48,127
110016,note_off,0,0,0,,8,,,56,127
110018,note_on,2,0,0,,0,,,48,127
110018,note_on,0,0,0,,8,,,56,127
110018,note_on,0,0,0,,12,,,71,127
110093,note_off,75,0,0,,12,,,71,127
110095,note_on,2,0,0,,7,,,67,127
110170,note_off,75,0,0,,7,,,67,127
110172,note_on,2,0,0,,0,,,72,127
110247,note_off,75,0,0,,0,,,72,127
110249,note_on,2,0,0,,8,,,68,127
110324,note_off,75,0,0,,8,,,56,127
110324,note_off,0,0,0,,0,,,48,127
110326,note_on,2,0,0,,1,,,49,127
110326,note_on,0,0,0,,8,,,56,127
110402,note_off,76,0,0,,8,,,68,127
110480,note_on,78,0,0,,5,,,77,127
110555,note_off,75,0,0,,5,,,77,127
110557,note_on,2,0,0,,1,,,73,127
110632,note_off,75,0,0,,1,,,73,127
110632,note_off,0,0,0,,8,,,56,127
110632,note_off,0,0,0,,1,,,49,127
110634,note_on,2,0,0,,1,,,49,127
110634,note_on,0,0,0,,8,,,56,127
110634,note_on,0,0,0,,4,,,76,127
110709,note_off,75,0,0,,4,,,76,127
110711,note_on,2,0,0,,0,,,72,127
110786,note_off,75,0,0,,0,,,72,127
110788,note_on,2,0,0,,5,,,77,127
110863,note_off,75,0,0,,5,,,77,127
110865,note_on,2,0,0,,1,,,73,127
110940,note_off,75,0,0,,1,,,73,127
110940,note_off,0,0,0,,8,,,56,127
110940,note_off,0,0,0,,1,,,49,127
110942,note_on,2,0,0,,1,,,49,127
110942,note_on,0,0,0,,8,,,56,127
110942,note_on,0,0,0,,4,,,76,127
111017,note_off,75,0,0,,4,,,76,127
111019,note_on,2,0,0,,0,,,72,127
111094,note_off,75,0,0,,0,,,72,127
111096,note_on,2,0,0,,5,,,77,127
111171,note_off,75,0,0,,5,,,77,127
111173,note_on,2,0,0,,1,,,73,127
111248,note_off,75,0,0,,1,,,73,127
111248,note_off,0,0,0,,8,,,56,127
111248,note_off,0,0,0,,1,,,49,127
111250,note_on,2,0,0,,1,,,49,127
111250,note_on,0,0,0,,8,,,56,127
111250,note_on,0,0,0,,4,,,76,127
111325,note_off,75,0,0,,4,,,76,127
111327,note_on,2,0,0,,0,,,72,127
111402,note_off,75,0,0,,0,,,72,127
111404,note_on,2,0,0,,5,,,77,127
111479,note_off,75,0,0,,5,,,77,127
111481,note_on,2,0,0,,1,,,73,127
111556,note_off,75,0,0,,1,,,73,127
111556,note_off,0,0,0,,8,,,56,127
111556,note_off,0,0,0,,1,,,49,127
111558,note_on,2,0,0,,3,,,51,127
111558,note_on,0,0,0,,8,,,56,127
111558,note_on,0,0,0,,0,,,60,127
111558,note_on,0,0,0,,3,,,75,127
111864,note_off,306,0,0,,0,,,60,127
111864,note_off,0,0,0,,8,,,56,127
111864,note_off,0,0,0,,3,,,51,127
111866,note_on,2,0,0,,8,,,56,127
111866,note_on,0,0,0,,3,,,51,127
111866,note_on,0,0,0,,0,,,60,127
111941,note_off,75,0,0,,3,,,75,127
111943,note_on,2,0,0,,5,,,77,127
112018,note_off,75,0,0,,5,,,77,127
112020,note_on,2,0,0,,7,,,79,127
112095,note_off,75,0,0,,7,,,79,127
112097,note_on,2,0,0,,8,,,80,127
112172,note_off,75,0,0,,8,,,80,127
112172,note_off,0,0,0,,0,,,60,127
112172,note_off,0,0,0,,3,,,51,127
112172,note_off,0,0,0,,8,,,56,127
112174,note_on,2,0,0,,3,,,51,127
112174,note_on,0,0,0,,11,,,58,127
112174,note_on,0,0,0,,8,,,56,127
112174,note_on,0,0,0,,1,,,61,127
112174,note_on,0,0,0,,0,,,84,127
112225,note_on,51,0,0,,11,,,82,127
112230,note_off,5,0,0,,0,,,84,127
112276,note_on,46,0,0,,0,,,84,127
112281,note_off,5,0,0,,11,,,82,127
112327,note_on,46,0,0,,11,,,82,127
112332,note_off,5,0,0,,0,,,84,127
112378,note_on,46,0,0,,0,,,84,127
112383,note_off,5,0,0,,11,,,82,127
112429,note_on,46,0,0,,11,,,82,127
112434,note_off,5,0,0,,0,,,84,127
112479,note_off,45,0,0,,1,,,61,127
112479,note_off,0,0,0,,8,,,56,127
112479,note_off,0,0,0,,11,,,58,127
112479,note_off,0,0,0,,3,,,51,127
112481,note_on,2,0,0,,3,,,51,127
112481,note_on,0,0,0,,8,,,56,127
112481,note_on,0,0,0,,11,,,58,127
112481,note_on,0,0,0,,1,,,61,127
112481,note_on,0,0,0,,0,,,84,127
112486,note_off,5,0,0,,11,,,82,127
112532,note_on,46,0,0,,11,,,82,127
112537,note_off,5,0,0,,0,,,84,127
112583,note_on,46,0,0,,0,,,84,127
112588,note_off,5,0,0,,11,,,82,127
112634,note_on,46,0,0,,11,,,82,127
112639,note_off,5,0,0,,0,,,84,127
112685,note_on,46,0,0,,8,,,80,127
112690,note_off,5,0,0,,11,,,82,127
112736,note_on,46,0,0,,11,,,82,127
112741,note_off,5,0,0,,8,,,80,127
112786,note_off,45,0,0,,1,,,61,127
112786,note_off,0,0,0,,11,,,58,127
112786,note_off,0,0,0,,8,,,56,127
112786,note_off,0,0,0,,3,,,51,127
112788,note_on,2,0,0,,8,,,44,127
112788,note_on,0,0,0,,8,,,56,127
112788,note_on,0,0,0,,0,,,84,127
112793,note_off,5,0,0,,11,,,82,127
112863,note_off,70,0,0,,0,,,84,127
112865,note_on,2,0,0,,11,,,82,127
112940,note_off,75,0,0,,11,,,82,127
112942,note_on,2,0,0,,8,,,80,127
113017,note_off,75,0,0,,8,,,80,127
113019,note_on,2,0,0,,7,,,79,127
113094,note_off,75,0,0,,7,,,79,127
113096,note_on,2,0,0,,5,,,77,127
113171,note_off,75,0,0,,5,,,77,127
113173,note_on,2,0,0,,3,,,75,127
113248,note_off,75,0,0,,3,,,75,127
113250,note_on,2,0,0,,1,,,73,127
113325,note_off,75,0,0,,1,,,73,127
113327,note_on,2,0,0,,0,,,72,127
113402,note_off,75,0,0,,0,,,72,127
113404,note_on,2,0,0,,11,,,70,127
113479,note_off,75,0,0,,11,,,70,127
113481,note_on,2,0,0,,8,,,68,127
113556,note_off,75,0,0,,8,,,68,127
113558,note_on,2,0,0,,7,,,67,127
113633,note_off,75,0,0,,7,,,67,127
113635,note_on,2,0,0,,5,,,65,127
113710,note_off,75,0,0,,5,,,65,127
113710,note_off,0,0,0,,8,,,56,127
113710,note_off,0,0,0,,8,,,44,127
113712,note_on,2,0,0,,3,,,39,127
113712,note_on,0,0,0,,3,,,51,127
113712,note_on,0,0,0,,3,,,63,127
113787,note_off,75,0,0,,3,,,63,127
113789,note_on,2,0,0,,1,,,61,127
113864,note_off,75,0,0,,1,,,61,127
113866,note_on,2,0,0,,0,,,60,127
113941,note_off,75,0,0,,0,,,60,127
113943,note_on,2,0,0,,11,,,58,127
114018,note_off,75,0,0,,11,,,58,127
114018,note_off,0,0,0,,3,,,51,127
114018,note_off,0,0,0,,3,,,39,127
114020,note_on,2,0,0,,8,,,44,127
114020,note_on,0,0,0,,8,,,56,127
114020,note_on,0,0,0,,0,,,84,127
114095,note_off,75,0,0,,0,,,84,127
114097,note_on,2,0,0,,11,,,82,127
114172,note_off,75,0,0,,11,,,82,127
114174,note_on,2,0,0,,8,,,80,127
114249,note_off,75,0,0,,8,,,80,127
114251,note_on,2,0,0,,7,,,79,127
114326,note_off,75,0,0,,7,,,79,127
114328,note_on,2,0,0,,5,,,77,127
114403,note_off,75,0,0,,5,,,77,127
114405,note_on,2,0,0,,3,,,75,127
114480,note_off,75,0,0,,3,,,75,127
114482,note_on,2,0,0,,1,,,73,127
114557,note_off,75,0,0,,1,,,73,127
114559,note_on,2,0,0,,0,,,72,127
114634,note_off,75,0,0,,0,,,72,127
114636,note_on,2,0,0,,11,,,70,127
114711,note_off,75,0,0,,11,,,70,127
114713,note_on,2,0,0,,8,,,68,127
114788,note_off,75,0,0,,8,,,68,127
114790,note_on,2,0,0,,7,,,67,127
114865,note_off,75,0,0,,7,,,67,127
114867,note_on,2,0,0,,5,,,65,127
114942,note_off,75,0,0,,5,,,65,127
114942,note_off,0,0,0,,8,,,56,127
114942,note_off,0,0,0,,8,,,44,127
114944,note_on,2,0,0,,3,,,39,127
114944,note_on,0,0,0,,3,,,51,127
114944,note_on,0,0,0,,3,,,63,127
115019,note_off,75,0,0,,3,,,63,127
115021,note_on,2,0,0,,1,,,61,127
115096,note_off,75,0,0,,1,,,61,127
115098,note_on,2,0,0,,0,,,60,127
115173,note_off,75,0,0,,0,,,60,127
115175,note_on,2,0,0,,11,,,58,127
115250,note_off,75,0,0,,11,,,58,127
115250,note_off,0,0,0,,3,,,51,127
115250,note_off,0,0,0,,3,,,39,127
115252,note_on,2,0,0,,8,,,44,127
115252,note_on,0,0,0,,8,,,56,127
115252,note_on,0,0,0,,0,,,84,127
115327,note_off,75,0,0,,0,,,84,127
115329,note_on,2,0,0,,11,,,82,127
115404,note_off,75,0,0,,11,,,82,127
115406,note_on,2,0,0,,8,,,80,127
115481,note_off,75,0,0,,8,,,80,127
115483,note_on,2,0,0,,7,,,79,127
115558,note_off,75,0,0,,7,,,79,127
115560,note_on,2,0,0,,5,,,77,127
115635,note_off,75,0,0,,5,,,77,127
115637,note_on,2,0,0,,3,,,75,127
115712,note_off,75,0,0,,3,,,75,127
115714,note_on,2,0,0,,1,,,73,127
115789,note_off,75,0,0,,1,,,73,127
115791,note_on,2,0,0,,0,,,72,127
115866,note_off,75,0,0,,0,,,72,127
115868,note_on,2,0,0,,11,,,70,127
115943,note_off,75,0,0,,11,,,70,127
115945,note_on,2,0,0,,8,,,68,127
116020,note_off,75,0,0,,8,,,68,127
116022,note_on,2,0,0,,7,,,67,127
116097,note_off,75,0,0,,7,,,67,127
116099,note_on,2,0,0,,5,,,65,127
116174,note_off,75,0,0,,5,,,65,127
116174,note_off,0,0,0,,8,,,56,127
116174,note_off,0,0,0,,8,,,44,127
116176,note_on,2,0,0,,3,,,51,127
116176,note_on,0,0,0,,3,,,39,127
116176,note_on,0,0,0,,3,,,63,127
116251,note_off,75,0,0,,3,,,63,127
116253,note_on,2,0,0,,1,,,61,127
116328,note_off,75,0,0,,1,,,61,127
116330,note_on,2,0,0,,0,,,60,127
116405,note_off,75,0,0,,0,,,60,127
116407,note_on,2,0,0,,11,,,58,127
116482,note_off,75,0,0,,11,,,58,127
116482,note_off,0,0,0,,3,,,39,127
116482,note_off,0,0,0,,3,,,51,127
116484,note_on,2,0,0,,8,,,44,127
116484,note_on,0,0,0,,11,,,58,127
116866,note_off,382,0,0,,11,,,58,127
116868,note_on,2,0,0,,8,,,56,127
118327,note_off,1459,0,0,,8,,,56,127
118327,note_off,0,0,0,,8,,,44,127
122880,end_of_track,4553,1,0,,,,,,
