tick,type,time,meta,track,program,channel,pitch,tempo,note,velocity
0,copyright,0,1,0,,,,,,
0,program_change,0,0,0,6,0,,,,
0,pitchwheel,0,0,0,,0,0,,,
0,program_change,0,0,0,6,1,,,,
0,pitchwheel,0,0,0,,1,-590,,,
0,program_change,0,0,0,6,2,,,,
0,pitchwheel,0,0,0,,2,-272,,,
0,program_change,0,0,0,6,3,,,,
0,pitchwheel,0,0,0,,3,-353,,,
0,program_change,0,0,0,6,4,,,,
0,pitchwheel,0,0,0,,4,-560,,,
0,program_change,0,0,0,6,5,,,,
0,pitchwheel,0,0,0,,5,-80,,,
0,program_change,0,0,0,6,6,,,,
0,pitchwheel,0,0,0,,6,-625,,,
0,program_change,0,0,0,6,7,,,,
0,pitchwheel,0,0,0,,7,-130,,,
0,program_change,0,0,0,6,8,,,,
0,pitchwheel,0,0,0,,8,-512,,,
0,program_change,0,0,0,6,10,,,,
0,pitchwheel,0,0,0,,10,-464,,,
0,program_change,0,0,0,6,11,,,,
0,pitchwheel,0,0,0,,11,-208,,,
0,program_change,0,0,0,6,12,,,,
0,pitchwheel,0,0,0,,12,-553,,,
0,set_tempo,0,1,0,,,,500000,,
79,note_on,79,0,0,,11,,,46,127
79,note_on,0,0,0,,11,,,58,127
79,note_on,0,0,0,,5,,,77,127
185,note_off,106,0,0,,5,,,77,127
185,note_on,0,0,0,,1,,,73,127
291,note_off,106,0,0,,1,,,73,127
291,note_on,0,0,0,,11,,,70,127
397,note_off,106,0,0,,11,,,70,127
397,note_on,0,0,0,,5,,,65,127
503,note_off,106,0,0,,5,,,65,127
503,note_on,0,0,0,,1,,,61,127
608,note_off,105,0,0,,11,,,58,127
609,note_off,1,0,0,,1,,,61,127
609,note_on,0,0,0,,11,,,58,127
715,note_off,106,0,0,,11,,,58,127
715,note_on,0,0,0,,1,,,73,127
1033,note_off,318,0,0,,1,,,73,127
1033,note_off,0,0,0,,11,,,46,127
1033,note_on,0,0,0,,0,,,60,127
1033,note_on,0,0,0,,3,,,63,127
1033,note_on,0,0,0,,0,,,72,127
1351,note_off,318,0,0,,0,,,72,127
1351,note_off,0,0,0,,3,,,63,127
1351,note_off,0,0,0,,0,,,60,127
1351,note_on,0,0,0,,1,,,61,127
1351,note_on,0,0,0,,5,,,65,127
1351,note_on,0,0,0,,10,,,69,127
1510,note_off,159,0,0,,10,,,69,127
1510,note_on,0,0,0,,11,,,70,127
1589,note_off,79,0,0,,11,,,70,127
1589,note_on,0,0,0,,0,,,72,127
1668,note_off,79,0,0,,0,,,72,127
1668,note_on,0,0,0,,11,,,70,127
1827,note_off,159,0,0,,11,,,70,127
1827,note_on,0,0,0,,10,,,69,127
1986,note_off,159,0,0,,10,,,69,127
1986,note_on,0,0,0,,10,,,69,127
2304,note_off,318,0,0,,10,,,69,127
2304,note_off,0,0,0,,5,,,65,127
2304,note_off,0,0,0,,1,,,61,127
2304,note_on,0,0,0,,5,,,65,127
2304,note_on,0,0,0,,1,,,61,127
2304,note_on,0,0,0,,11,,,70,127
2569,note_off,265,0,0,,11,,,70,127
2622,note_off,53,0,0,,1,,,61,127
2622,note_off,0,0,0,,5,,,65,127
2622,note_on,0,0,0,,3,,,51,127
2622,note_on,0,0,0,,11,,,82,127
2728,note_off,106,0,0,,11,,,82,127
2728,note_on,0,0,0,,6,,,78,127
2834,note_off,106,0,0,,6,,,78,127
2834,note_on,0,0,0,,3,,,75,127
2940,note_off,106,0,0,,3,,,75,127
2940,note_on,0,0,0,,3,,,63,127
2940,note_on,0,0,0,,0,,,72,127
3046,note_off,106,0,0,,0,,,72,127
3046,note_on,0,0,0,,10,,,69,127
3152,note_off,106,0,0,,10,,,69,127
3152,note_on,0,0,0,,5,,,65,127
3257,note_off,105,0,0,,3,,,51,127
3258,note_off,1,0,0,,3,,,63,127
3258,note_on,0,0,0,,5,,,53,127
3258,note_on,0,0,0,,1,,,61,127
3258,note_on,0,0,0,,5,,,77,127
3287,note_off,29,0,0,,5,,,65,127
3576,note_off,289,0,0,,5,,,77,127
3576,note_off,0,0,0,,1,,,61,127
3576,note_on,0,0,0,,0,,,60,127
3576,note_on,0,0,0,,3,,,75,127
3893,note_off,317,0,0,,5,,,53,127
3894,note_off,1,0,0,,3,,,75,127
3894,note_off,0,0,0,,0,,,60,127
3894,note_on,0,0,0,,11,,,58,127
3894,note_on,0,0,0,,0,,,72,127
4053,note_off,159,0,0,,0,,,72,127
4053,note_on,0,0,0,,1,,,73,127
4132,note_off,79,0,0,,1,,,73,127
4132,note_on,0,0,0,,3,,,75,127
4211,note_off,79,0,0,,3,,,75,127
4211,note_on,0,0,0,,1,,,73,127
4370,note_off,159,0,0,,1,,,73,127
4370,note_on,0,0,0,,0,,,72,127
4529,note_off,159,0,0,,0,,,72,127
4529,note_on,0,0,0,,11,,,46,127
4529,note_on,0,0,0,,0,,,72,127
4847,note_off,318,0,0,,0,,,72,127
4847,note_on,0,0,0,,11,,,70,127
5112,note_off,265,0,0,,11,,,70,127
5160,note_off,48,0,0,,11,,,58,127
5165,note_off,5,0,0,,11,,,46,127
5165,note_on,0,0,0,,11,,,46,127
5165,note_on,0,0,0,,5,,,77,127
5271,note_off,106,0,0,,11,,,46,127
5271,note_on,0,0,0,,1,,,49,127
5377,note_off,106,0,0,,1,,,49,127
5377,note_on,0,0,0,,5,,,53,127
5483,note_off,106,0,0,,5,,,53,127
5483,note_on,0,0,0,,11,,,58,127
5589,note_off,106,0,0,,11,,,58,127
5589,note_on,0,0,0,,1,,,61,127
5695,note_off,106,0,0,,1,,,61,127
5695,note_on,0,0,0,,11,,,58,127
5801,note_off,106,0,0,,11,,,58,127
5801,note_off,0,0,0,,5,,,77,127
5801,note_on,0,0,0,,5,,,65,127
5801,note_on,0,0,0,,1,,,73,127
6119,note_off,318,0,0,,1,,,73,127
6119,note_off,0,0,0,,5,,,65,127
6119,note_on,0,0,0,,3,,,63,127
6119,note_on,0,0,0,,10,,,69,127
6437,note_off,318,0,0,,10,,,69,127
6437,note_off,0,0,0,,3,,,63,127
6437,note_on,0,0,0,,1,,,61,127
6437,note_on,0,0,0,,5,,,65,127
6437,note_on,0,0,0,,10,,,69,127
6755,note_off,318,0,0,,10,,,69,127
6755,note_off,0,0,0,,5,,,65,127
6755,note_off,0,0,0,,1,,,61,127
6755,note_on,0,0,0,,0,,,60,127
6755,note_on,0,0,0,,3,,,63,127
6755,note_on,0,0,0,,0,,,72,127
6819,note_off,64,0,0,,0,,,72,127
6819,note_on,0,0,0,,11,,,70,127
6883,note_off,64,0,0,,11,,,70,127
6883,note_on,0,0,0,,0,,,72,127
6955,note_off,72,0,0,,0,,,72,127
6955,note_on,0,0,0,,11,,,70,127
7019,note_off,64,0,0,,11,,,70,127
7019,note_on,0,0,0,,10,,,69,127
7074,note_off,55,0,0,,10,,,69,127
7074,note_off,0,0,0,,3,,,63,127
7074,note_off,0,0,0,,0,,,60,127
7074,note_on,0,0,0,,1,,,61,127
7074,note_on,0,0,0,,5,,,65,127
7074,note_on,0,0,0,,10,,,69,127
7392,note_off,318,0,0,,10,,,69,127
7392,note_on,0,0,0,,11,,,70,127
7710,note_off,318,0,0,,11,,,70,127
7710,note_off,0,0,0,,5,,,65,127
7710,note_off,0,0,0,,1,,,61,127
7710,note_on,0,0,0,,3,,,51,127
7710,note_on,0,0,0,,11,,,82,127
7816,note_off,106,0,0,,3,,,51,127
7816,note_on,0,0,0,,6,,,54,127
7922,note_off,106,0,0,,6,,,54,127
7922,note_on,0,0,0,,11,,,58,127
8028,note_off,106,0,0,,11,,,58,127
8028,note_off,0,0,0,,11,,,82,127
8028,note_on,0,0,0,,3,,,63,127
8028,note_on,0,0,0,,6,,,78,127
8134,note_off,106,0,0,,3,,,63,127
8134,note_on,0,0,0,,6,,,66,127
8240,note_off,106,0,0,,6,,,66,127
8240,note_on,0,0,0,,11,,,70,127
8346,note_off,106,0,0,,11,,,70,127
8346,note_on,0,0,0,,10,,,69,127
8505,note_off,159,0,0,,6,,,78,127
8505,note_on,0,0,0,,5,,,77,127
8664,note_off,159,0,0,,5,,,77,127
8664,note_off,0,0,0,,10,,,69,127
8664,note_on,0,0,0,,5,,,65,127
8664,note_on,0,0,0,,3,,,75,127
8823,note_off,159,0,0,,3,,,75,127
8823,note_on,0,0,0,,0,,,72,127
8982,note_off,159,0,0,,0,,,72,127
8982,note_off,0,0,0,,5,,,65,127
8982,note_on,0,0,0,,11,,,70,127
8982,note_on,0,0,0,,0,,,72,127
9141,note_off,159,0,0,,0,,,72,127
9141,note_on,0,0,0,,1,,,73,127
9220,note_off,79,0,0,,1,,,73,127
9220,note_on,0,0,0,,3,,,75,127
9299,note_off,79,0,0,,3,,,75,127
9299,note_on,0,0,0,,11,,,58,127
9299,note_on,0,0,0,,1,,,73,127
9457,note_off,158,0,0,,11,,,70,127
9458,note_off,1,0,0,,1,,,73,127
9458,note_on,0,0,0,,0,,,72,127
9617,note_off,159,0,0,,0,,,72,127
9617,note_on,0,0,0,,11,,,46,127
9617,note_on,0,0,0,,0,,,72,127
9934,note_off,317,0,0,,11,,,58,127
9935,note_off,1,0,0,,0,,,72,127
9935,note_on,0,0,0,,11,,,70,127
10225,note_off,290,0,0,,11,,,70,127
10253,note_on,28,0,0,,3,,,75,127
10253,note_on,0,0,0,,1,,,73,127
10359,note_off,106,0,0,,1,,,73,127
10359,note_off,0,0,0,,3,,,75,127
10359,note_on,0,0,0,,0,,,72,127
10465,note_off,106,0,0,,0,,,72,127
10465,note_on,0,0,0,,1,,,73,127
10571,note_off,106,0,0,,1,,,73,127
10571,note_off,0,0,0,,11,,,46,127
10571,note_on,0,0,0,,11,,,70,127
10571,note_on,0,0,0,,3,,,75,127
10571,note_on,0,0,0,,1,,,73,127
10677,note_off,106,0,0,,1,,,73,127
10677,note_off,0,0,0,,3,,,75,127
10677,note_on,0,0,0,,0,,,72,127
10783,note_off,106,0,0,,0,,,72,127
10783,note_on,0,0,0,,1,,,73,127
10889,note_off,106,0,0,,1,,,73,127
10889,note_off,0,0,0,,11,,,70,127
10889,note_on,0,0,0,,11,,,70,127
10889,note_on,0,0,0,,1,,,73,127
10889,note_on,0,0,0,,3,,,75,127
10995,note_off,106,0,0,,3,,,75,127
10995,note_off,0,0,0,,1,,,73,127
10995,note_on,0,0,0,,0,,,72,127
11101,note_off,106,0,0,,0,,,72,127
11101,note_on,0,0,0,,1,,,73,127
11207,note_off,106,0,0,,1,,,73,127
11207,note_off,0,0,0,,11,,,70,127
11207,note_on,0,0,0,,8,,,68,127
11207,note_on,0,0,0,,3,,,75,127
11207,note_on,0,0,0,,2,,,74,127
11313,note_off,106,0,0,,2,,,74,127
11313,note_off,0,0,0,,3,,,75,127
11313,note_on,0,0,0,,0,,,72,127
11419,note_off,106,0,0,,0,,,72,127
11419,note_on,0,0,0,,2,,,74,127
11525,note_off,106,0,0,,2,,,74,127
11525,note_off,0,0,0,,8,,,68,127
11525,note_on,0,0,0,,6,,,66,127
11525,note_on,0,0,0,,3,,,75,127
11525,note_on,0,0,0,,5,,,77,127
11631,note_off,106,0,0,,5,,,77,127
11631,note_off,0,0,0,,3,,,75,127
11631,note_on,0,0,0,,2,,,74,127
11737,note_off,106,0,0,,2,,,74,127
11737,note_on,0,0,0,,3,,,75,127
11843,note_off,106,0,0,,3,,,75,127
11843,note_off,0,0,0,,6,,,66,127
11843,note_on,0,0,0,,5,,,65,127
11843,note_on,0,0,0,,5,,,77,127
11843,note_on,0,0,0,,6,,,78,127
11949,note_off,106,0,0,,6,,,78,127
11949,note_off,0,0,0,,5,,,77,127
11949,note_on,0,0,0,,3,,,75,127
12055,note_off,106,0,0,,3,,,75,127
12055,note_on,0,0,0,,5,,,77,127
12161,note_off,106,0,0,,5,,,77,127
12161,note_off,0,0,0,,5,,,65,127
12161,note_on,0,0,0,,3,,,63,127
12161,note_on,0,0,0,,6,,,78,127
12161,note_on,0,0,0,,8,,,80,127
12267,note_off,106,0,0,,8,,,80,127
12267,note_off,0,0,0,,6,,,78,127
12267,note_on,0,0,0,,5,,,77,127
12373,note_off,106,0,0,,5,,,77,127
12373,note_on,0,0,0,,6,,,78,127
12479,note_off,106,0,0,,6,,,78,127
12479,note_off,0,0,0,,3,,,63,127
12479,note_on,0,0,0,,2,,,62,127
12479,note_on,0,0,0,,5,,,77,127
12585,note_off,106,0,0,,5,,,77,127
12585,note_on,0,0,0,,6,,,78,127
12691,note_off,106,0,0,,6,,,78,127
12691,note_on,0,0,0,,8,,,80,127
12797,note_off,106,0,0,,8,,,80,127
12797,note_off,0,0,0,,2,,,62,127
12797,note_on,0,0,0,,3,,,63,127
12797,note_on,0,0,0,,6,,,78,127
12797,note_on,0,0,0,,8,,,80,127
12903,note_off,106,0,0,,8,,,80,127
12903,note_off,0,0,0,,6,,,78,127
12903,note_on,0,0,0,,5,,,77,127
13009,note_off,106,0,0,,5,,,77,127
13009,note_on,0,0,0,,6,,,78,127
13115,note_off,106,0,0,,6,,,78,127
13115,note_off,0,0,0,,3,,,63,127
13115,note_on,0,0,0,,5,,,65,127
13115,note_on,0,0,0,,5,,,77,127
13115,note_on,0,0,0,,6,,,78,127
13221,note_off,106,0,0,,6,,,78,127
13221,note_off,0,0,0,,5,,,77,127
13221,note_on,0,0,0,,3,,,75,127
13327,note_off,106,0,0,,3,,,75,127
13327,note_on,0,0,0,,5,,,77,127
13433,note_off,106,0,0,,5,,,77,127
13433,note_off,0,0,0,,5,,,65,127
13433,note_on,0,0,0,,6,,,66,127
13433,note_on,0,0,0,,5,,,77,127
13433,note_on,0,0,0,,3,,,75,127
13539,note_off,106,0,0,,3,,,75,127
13539,note_off,0,0,0,,5,,,77,127
13539,note_on,0,0,0,,2,,,74,127
13645,note_off,106,0,0,,2,,,74,127
13645,note_on,0,0,0,,3,,,75,127
13751,note_off,106,0,0,,3,,,75,127
13751,note_off,0,0,0,,6,,,66,127
13751,note_on,0,0,0,,7,,,67,127
13751,note_on,0,0,0,,3,,,75,127
13751,note_on,0,0,0,,1,,,73,127
13857,note_off,106,0,0,,1,,,73,127
13857,note_off,0,0,0,,3,,,75,127
13857,note_on,0,0,0,,0,,,72,127
13963,note_off,106,0,0,,0,,,72,127
13963,note_on,0,0,0,,1,,,73,127
14069,note_off,106,0,0,,1,,,73,127
14069,note_off,0,0,0,,7,,,67,127
14069,note_on,0,0,0,,8,,,68,127
14069,note_on,0,0,0,,0,,,72,127
14148,note_off,79,0,0,,0,,,72,127
14148,note_on,0,0,0,,1,,,73,127
14227,note_off,79,0,0,,1,,,73,127
14227,note_on,0,0,0,,3,,,75,127
14306,note_off,79,0,0,,3,,,75,127
14306,note_on,0,0,0,,1,,,73,127
14385,note_off,79,0,0,,1,,,73,127
14385,note_on,0,0,0,,8,,,56,127
14385,note_on,0,0,0,,3,,,75,127
14464,note_off,79,0,0,,3,,,75,127
14464,note_on,0,0,0,,1,,,73,127
14543,note_off,79,0,0,,8,,,68,127
14544,note_off,1,0,0,,1,,,73,127
14544,note_on,0,0,0,,0,,,72,127
14623,note_off,79,0,0,,0,,,72,127
14623,note_on,0,0,0,,1,,,73,127
14702,note_on,79,0,0,,8,,,44,127
15020,note_off,318,0,0,,1,,,73,127
15020,note_on,0,0,0,,0,,,72,127
15310,note_off,290,0,0,,0,,,72,127
15336,note_off,26,0,0,,8,,,56,127
15338,note_off,2,0,0,,8,,,44,127
15338,note_on,0,0,0,,8,,,44,127
15338,note_on,0,0,0,,3,,,51,127
15338,note_on,0,0,0,,8,,,56,127
15338,note_on,0,0,0,,8,,,80,127
15444,note_off,106,0,0,,8,,,80,127
15444,note_on,0,0,0,,3,,,75,127
15550,note_off,106,0,0,,3,,,75,127
15550,note_on,0,0,0,,0,,,72,127
15656,note_off,106,0,0,,0,,,72,127
15656,note_on,0,0,0,,8,,,68,127
15762,note_off,106,0,0,,8,,,68,127
15762,note_on,0,0,0,,3,,,63,127
15868,note_off,106,0,0,,3,,,63,127
15868,note_on,0,0,0,,0,,,60,127
15974,note_off,106,0,0,,0,,,60,127
15974,note_on,0,0,0,,8,,,80,127
16292,note_off,318,0,0,,8,,,80,127
16292,note_off,0,0,0,,8,,,56,127
16292,note_off,0,0,0,,3,,,51,127
16292,note_off,0,0,0,,8,,,44,127
16292,note_on,0,0,0,,3,,,63,127
16292,note_on,0,0,0,,0,,,60,127
16292,note_on,0,0,0,,6,,,78,127
16610,note_off,318,0,0,,6,,,78,127
16610,note_off,0,0,0,,0,,,60,127
16610,note_off,0,0,0,,3,,,63,127
16610,note_on,0,0,0,,1,,,61,127
16610,note_on,0,0,0,,5,,,65,127
16610,note_on,0,0,0,,4,,,76,127
16928,note_off,318,0,0,,4,,,76,127
16928,note_off,0,0,0,,5,,,65,127
16928,note_off,0,0,0,,1,,,61,127
16928,note_on,0,0,0,,3,,,63,127
16928,note_on,0,0,0,,6,,,66,127
16928,note_on,0,0,0,,5,,,77,127
17246,note_off,318,0,0,,5,,,77,127
17246,note_off,0,0,0,,6,,,66,127
17246,note_off,0,0,0,,3,,,63,127
17246,note_on,0,0,0,,5,,,65,127
17246,note_on,0,0,0,,8,,,68,127
17246,note_on,0,0,0,,0,,,72,127
17564,note_off,318,0,0,,0,,,72,127
17564,note_off,0,0,0,,8,,,68,127
17564,note_off,0,0,0,,5,,,65,127
17564,note_on,0,0,0,,6,,,66,127
17564,note_on,0,0,0,,11,,,70,127
17564,note_on,0,0,0,,3,,,75,127
17643,note_off,79,0,0,,3,,,75,127
17643,note_on,0,0,0,,1,,,73,127
17722,note_off,79,0,0,,1,,,73,127
17722,note_on,0,0,0,,0,,,72,127
17801,note_off,79,0,0,,0,,,72,127
17801,note_on,0,0,0,,1,,,73,127
17880,note_off,79,0,0,,1,,,73,127
17880,note_off,0,0,0,,11,,,70,127
17880,note_off,0,0,0,,6,,,66,127
17880,note_on,0,0,0,,8,,,44,127
17880,note_on,0,0,0,,3,,,51,127
17880,note_on,0,0,0,,8,,,56,127
17880,note_on,0,0,0,,8,,,80,127
17986,note_off,106,0,0,,8,,,80,127
17986,note_on,0,0,0,,3,,,75,127
18092,note_off,106,0,0,,3,,,75,127
18092,note_on,0,0,0,,0,,,72,127
18198,note_off,106,0,0,,0,,,72,127
18198,note_on,0,0,0,,8,,,68,127
18304,note_off,106,0,0,,8,,,68,127
18304,note_on,0,0,0,,3,,,63,127
18410,note_off,106,0,0,,3,,,63,127
18410,note_on,0,0,0,,0,,,60,127
18516,note_off,106,0,0,,0,,,60,127
18516,note_on,0,0,0,,8,,,80,127
18834,note_off,318,0,0,,8,,,80,127
18834,note_off,0,0,0,,8,,,56,127
18834,note_off,0,0,0,,3,,,51,127
18834,note_off,0,0,0,,8,,,44,127
18834,note_on,0,0,0,,3,,,63,127
18834,note_on,0,0,0,,0,,,60,127
18834,note_on,0,0,0,,6,,,78,127
19152,note_off,318,0,0,,6,,,78,127
19152,note_off,0,0,0,,0,,,60,127
19152,note_off,0,0,0,,3,,,63,127
19152,note_on,0,0,0,,1,,,61,127
19152,note_on,0,0,0,,5,,,65,127
19152,note_on,0,0,0,,5,,,77,127
19258,note_off,106,0,0,,5,,,77,127
19258,note_on,0,0,0,,3,,,75,127
19364,note_off,106,0,0,,3,,,75,127
19364,note_on,0,0,0,,1,,,73,127
19470,note_off,106,0,0,,1,,,73,127
19470,note_off,0,0,0,,5,,,65,127
19470,note_off,0,0,0,,1,,,61,127
19470,note_on,0,0,0,,6,,,66,127
19470,note_on,0,0,0,,3,,,63,127
19470,note_on,0,0,0,,0,,,72,127
19576,note_off,106,0,0,,0,,,72,127
19576,note_on,0,0,0,,1,,,73,127
19682,note_off,106,0,0,,1,,,73,127
19682,note_on,0,0,0,,3,,,75,127
19788,note_off,106,0,0,,3,,,75,127
19788,note_off,0,0,0,,3,,,63,127
19788,note_off,0,0,0,,6,,,66,127
19788,note_on,0,0,0,,8,,,68,127
19788,note_on,0,0,0,,5,,,65,127
19788,note_on,0,0,0,,3,,,75,127
19841,note_off,53,0,0,,3,,,75,127
19841,note_on,0,0,0,,1,,,73,127
19894,note_off,53,0,0,,1,,,73,127
19894,note_on,0,0,0,,3,,,75,127
19947,note_off,53,0,0,,3,,,75,127
19947,note_on,0,0,0,,1,,,73,127
20106,note_off,159,0,0,,5,,,65,127
20106,note_on,0,0,0,,1,,,61,127
20423,note_off,317,0,0,,8,,,68,127
20424,note_off,1,0,0,,1,,,61,127
20424,note_off,0,0,0,,1,,,73,127
20424,note_on,0,0,0,,6,,,54,127
20424,note_on,0,0,0,,12,,,83,127
20477,note_off,53,0,0,,12,,,83,127
20477,note_on,0,0,0,,11,,,82,127
20530,note_off,53,0,0,,11,,,82,127
20530,note_off,0,0,0,,6,,,54,127
20530,note_on,0,0,0,,11,,,58,127
20530,note_on,0,0,0,,12,,,83,127
20583,note_off,53,0,0,,12,,,83,127
20583,note_on,0,0,0,,11,,,82,127
20636,note_off,53,0,0,,11,,,58,127
20636,note_on,0,0,0,,1,,,61,127
20742,note_off,106,0,0,,1,,,61,127
20742,note_off,0,0,0,,11,,,82,127
20742,note_on,0,0,0,,6,,,66,127
20742,note_on,0,0,0,,11,,,82,127
20848,note_off,106,0,0,,6,,,66,127
20848,note_on,0,0,0,,11,,,70,127
20954,note_off,106,0,0,,11,,,70,127
20954,note_on,0,0,0,,1,,,73,127
21060,note_off,106,0,0,,1,,,73,127
21060,note_on,0,0,0,,6,,,54,127
21378,note_off,318,0,0,,6,,,54,127
21378,note_off,0,0,0,,11,,,82,127
21378,note_on,0,0,0,,5,,,53,127
21378,note_on,0,0,0,,11,,,82,127
21378,note_on,0,0,0,,8,,,80,127
21484,note_off,106,0,0,,8,,,80,127
21484,note_off,0,0,0,,11,,,82,127
21484,note_on,0,0,0,,6,,,78,127
21590,note_off,106,0,0,,6,,,78,127
21590,note_on,0,0,0,,5,,,77,127
21696,note_off,106,0,0,,5,,,77,127
21696,note_off,0,0,0,,5,,,53,127
21696,note_on,0,0,0,,3,,,51,127
21696,note_on,0,0,0,,8,,,80,127
21749,note_off,53,0,0,,8,,,80,127
21749,note_on,0,0,0,,6,,,78,127
21802,note_off,53,0,0,,6,,,78,127
21802,note_off,0,0,0,,3,,,51,127
21802,note_on,0,0,0,,6,,,54,127
21802,note_on,0,0,0,,8,,,80,127
21855,note_off,53,0,0,,8,,,80,127
21855,note_on,0,0,0,,6,,,78,127
21908,note_off,53,0,0,,6,,,54,127
21908,note_on,0,0,0,,11,,,58,127
22014,note_off,106,0,0,,11,,,58,127
22014,note_off,0,0,0,,6,,,78,127
22014,note_on,0,0,0,,3,,,63,127
22014,note_on,0,0,0,,6,,,78,127
22120,note_off,106,0,0,,3,,,63,127
22120,note_on,0,0,0,,6,,,66,127
22226,note_off,106,0,0,,6,,,66,127
22226,note_on,0,0,0,,11,,,70,127
22332,note_off,106,0,0,,11,,,70,127
22332,note_on,0,0,0,,3,,,51,127
22650,note_off,318,0,0,,3,,,51,127
22650,note_off,0,0,0,,6,,,78,127
22650,note_on,0,0,0,,1,,,49,127
22650,note_on,0,0,0,,6,,,78,127
22650,note_on,0,0,0,,5,,,77,127
22756,note_off,106,0,0,,5,,,77,127
22756,note_off,0,0,0,,6,,,78,127
22756,note_on,0,0,0,,3,,,75,127
22862,note_off,106,0,0,,3,,,75,127
22862,note_on,0,0,0,,1,,,73,127
22968,note_off,106,0,0,,1,,,73,127
22968,note_off,0,0,0,,1,,,49,127
22968,note_on,0,0,0,,0,,,48,127
22968,note_on,0,0,0,,5,,,77,127
23021,note_off,53,0,0,,5,,,77,127
23021,note_on,0,0,0,,3,,,75,127
23074,note_off,53,0,0,,3,,,75,127
23074,note_off,0,0,0,,0,,,48,127
23074,note_on,0,0,0,,3,,,51,127
23074,note_on,0,0,0,,5,,,77,127
23127,note_off,53,0,0,,5,,,77,127
23127,note_on,0,0,0,,3,,,75,127
23180,note_off,53,0,0,,3,,,51,127
23180,note_on,0,0,0,,8,,,56,127
23286,note_off,106,0,0,,8,,,56,127
23286,note_off,0,0,0,,3,,,75,127
23286,note_on,0,0,0,,0,,,60,127
23286,note_on,0,0,0,,3,,,75,127
23392,note_off,106,0,0,,0,,,60,127
23392,note_on,0,0,0,,3,,,63,127
23498,note_off,106,0,0,,3,,,63,127
23498,note_on,0,0,0,,8,,,68,127
23604,note_off,106,0,0,,8,,,68,127
23604,note_on,0,0,0,,0,,,48,127
23922,note_off,318,0,0,,0,,,48,127
23922,note_off,0,0,0,,3,,,75,127
23922,note_on,0,0,0,,11,,,46,127
23922,note_on,0,0,0,,3,,,75,127
23922,note_on,0,0,0,,1,,,73,127
24028,note_off,106,0,0,,1,,,73,127
24028,note_off,0,0,0,,3,,,75,127
24028,note_on,0,0,0,,0,,,72,127
24134,note_off,106,0,0,,0,,,72,127
24134,note_on,0,0,0,,1,,,73,127
24240,note_off,106,0,0,,1,,,73,127
24240,note_off,0,0,0,,11,,,46,127
24240,note_on,0,0,0,,8,,,44,127
24240,note_on,0,0,0,,0,,,72,127
24399,note_off,159,0,0,,0,,,72,127
24399,note_on,0,0,0,,1,,,73,127
24478,note_off,79,0,0,,1,,,73,127
24478,note_on,0,0,0,,3,,,75,127
24557,note_off,79,0,0,,3,,,75,127
24557,note_off,0,0,0,,8,,,44,127
24557,note_on,0,0,0,,6,,,42,127
24557,note_on,0,0,0,,1,,,73,127
24716,note_off,159,0,0,,1,,,73,127
24716,note_on,0,0,0,,0,,,72,127
24875,note_off,159,0,0,,0,,,72,127
24875,note_off,0,0,0,,6,,,42,127
24875,note_on,0,0,0,,5,,,41,127
24875,note_on,0,0,0,,1,,,73,127
24981,note_off,106,0,0,,1,,,73,127
24981,note_on,0,0,0,,3,,,75,127
25087,note_off,106,0,0,,3,,,75,127
25087,note_on,0,0,0,,5,,,77,127
25193,note_off,106,0,0,,5,,,77,127
25193,note_off,0,0,0,,5,,,41,127
25193,note_on,0,0,0,,6,,,42,127
25193,note_on,0,0,0,,3,,,75,127
25299,note_off,106,0,0,,3,,,75,127
25299,note_on,0,0,0,,5,,,77,127
25405,note_off,106,0,0,,5,,,77,127
25405,note_on,0,0,0,,6,,,78,127
25511,note_off,106,0,0,,6,,,78,127
25511,note_off,0,0,0,,6,,,42,127
25511,note_on,0,0,0,,8,,,44,127
25511,note_on,0,0,0,,8,,,56,127
25511,note_on,0,0,0,,5,,,77,127
25617,note_off,106,0,0,,5,,,77,127
25617,note_on,0,0,0,,3,,,75,127
25723,note_off,106,0,0,,3,,,75,127
25723,note_on,0,0,0,,1,,,73,127
25829,note_off,106,0,0,,1,,,73,127
25829,note_on,0,0,0,,0,,,72,127
25935,note_off,106,0,0,,0,,,72,127
25935,note_on,0,0,0,,11,,,70,127
26041,note_off,106,0,0,,11,,,70,127
26041,note_on,0,0,0,,8,,,68,127
26147,note_off,106,0,0,,8,,,68,127
26147,note_off,0,0,0,,8,,,56,127
26147,note_off,0,0,0,,8,,,44,127
26147,note_on,0,0,0,,5,,,53,127
26147,note_on,0,0,0,,8,,,44,127
26147,note_on,0,0,0,,5,,,77,127
26147,note_on,0,0,0,,1,,,73,127
26465,note_off,318,0,0,,1,,,73,127
26465,note_off,0,0,0,,5,,,77,127
26465,note_off,0,0,0,,5,,,53,127
26465,note_on,0,0,0,,3,,,51,127
26465,note_on,0,0,0,,6,,,54,127
26465,note_on,0,0,0,,0,,,72,127
26465,note_on,0,0,0,,3,,,75,127
26782,note_off,317,0,0,,8,,,44,127
26783,note_off,1,0,0,,3,,,75,127
26783,note_off,0,0,0,,0,,,72,127
26783,note_off,0,0,0,,6,,,54,127
26783,note_off,0,0,0,,3,,,51,127
26783,note_on,0,0,0,,1,,,37,127
26783,note_on,0,0,0,,1,,,49,127
26783,note_on,0,0,0,,3,,,75,127
26862,note_off,79,0,0,,3,,,75,127
26862,note_on,0,0,0,,1,,,73,127
26941,note_off,79,0,0,,1,,,73,127
26941,note_on,0,0,0,,3,,,75,127
27020,note_off,79,0,0,,3,,,75,127
27020,note_on,0,0,0,,1,,,73,127
27099,note_off,79,0,0,,1,,,73,127
27099,note_on,0,0,0,,3,,,75,127
27178,note_off,79,0,0,,3,,,75,127
27178,note_on,0,0,0,,1,,,73,127
27257,note_off,79,0,0,,1,,,73,127
27257,note_on,0,0,0,,0,,,72,127
27416,note_off,159,0,0,,0,,,72,127
27416,note_on,0,0,0,,0,,,72,127
27733,note_off,317,0,0,,0,,,72,127
27734,note_on,1,0,0,,1,,,73,127
28024,note_off,290,0,0,,1,,,73,127
28052,note_off,28,0,0,,1,,,49,127
28052,note_off,0,0,0,,1,,,37,127
28052,note_on,0,0,0,,8,,,56,127
28052,note_on,0,0,0,,5,,,65,127
28052,note_on,0,0,0,,8,,,68,127
28052,note_on,0,0,0,,11,,,70,127
28158,note_off,106,0,0,,11,,,70,127
28158,note_off,0,0,0,,8,,,68,127
28158,note_on,0,0,0,,7,,,67,127
28264,note_off,106,0,0,,7,,,67,127
28264,note_on,0,0,0,,8,,,68,127
28370,note_off,106,0,0,,8,,,68,127
28370,note_off,0,0,0,,5,,,65,127
28370,note_off,0,0,0,,8,,,56,127
28370,note_on,0,0,0,,8,,,56,127
28370,note_on,0,0,0,,5,,,65,127
28370,note_on,0,0,0,,11,,,70,127
28370,note_on,0,0,0,,8,,,68,127
28476,note_off,106,0,0,,8,,,68,127
28476,note_off,0,0,0,,11,,,70,127
28476,note_on,0,0,0,,7,,,67,127
28582,note_off,106,0,0,,7,,,67,127
28582,note_on,0,0,0,,8,,,68,127
28688,note_off,106,0,0,,8,,,68,127
28688,note_off,0,0,0,,5,,,65,127
28688,note_off,0,0,0,,8,,,56,127
28688,note_on,0,0,0,,5,,,65,127
28688,note_on,0,0,0,,8,,,56,127
28688,note_on,0,0,0,,11,,,70,127
28688,note_on,0,0,0,,8,,,68,127
28794,note_off,106,0,0,,8,,,68,127
28794,note_off,0,0,0,,11,,,70,127
28794,note_on,0,0,0,,7,,,67,127
28900,note_off,106,0,0,,7,,,67,127
28900,note_on,0,0,0,,8,,,68,127
29006,note_off,106,0,0,,8,,,68,127
29006,note_off,0,0,0,,8,,,56,127
29006,note_off,0,0,0,,5,,,65,127
29006,note_on,0,0,0,,8,,,56,127
29006,note_on,0,0,0,,5,,,65,127
29006,note_on,0,0,0,,8,,,68,127
29006,note_on,0,0,0,,11,,,70,127
29112,note_off,106,0,0,,11,,,70,127
29112,note_off,0,0,0,,8,,,68,127
29112,note_on,0,0,0,,7,,,67,127
29218,note_off,106,0,0,,7,,,67,127
29218,note_on,0,0,0,,8,,,68,127
29324,note_off,106,0,0,,8,,,68,127
29324,note_off,0,0,0,,5,,,65,127
29324,note_off,0,0,0,,8,,,56,127
29324,note_on,0,0,0,,8,,,44,127
29324,note_on,0,0,0,,8,,,56,127
29324,note_on,0,0,0,,5,,,77,127
29324,note_on,0,0,0,,8,,,80,127
29642,note_off,318,0,0,,8,,,80,127
29642,note_off,0,0,0,,5,,,77,127
29642,note_off,0,0,0,,8,,,56,127
29642,note_off,0,0,0,,8,,,44,127
29642,note_on,0,0,0,,8,,,56,127
29642,note_on,0,0,0,,5,,,65,127
29642,note_on,0,0,0,,8,,,68,127
29960,note_off,318,0,0,,8,,,68,127
29960,note_off,0,0,0,,5,,,65,127
29960,note_off,0,0,0,,8,,,56,127
29960,note_on,0,0,0,,8,,,56,127
29960,note_on,0,0,0,,5,,,65,127
29960,note_on,0,0,0,,8,,,68,127
30039,note_off,79,0,0,,8,,,68,127
30039,note_off,0,0,0,,5,,,65,127
30039,note_on,0,0,0,,3,,,63,127
30039,note_on,0,0,0,,6,,,66,127
30117,note_off,78,0,0,,8,,,56,127
30119,note_off,2,0,0,,6,,,66,127
30119,note_off,0,0,0,,3,,,63,127
30119,note_on,0,0,0,,5,,,65,127
30119,note_on,0,0,0,,8,,,68,127
30198,note_off,79,0,0,,8,,,68,127
30198,note_off,0,0,0,,5,,,65,127
30198,note_on,0,0,0,,3,,,63,127
30198,note_on,0,0,0,,6,,,66,127
30277,note_off,79,0,0,,6,,,66,127
30277,note_off,0,0,0,,3,,,63,127
30277,note_on,0,0,0,,8,,,56,127
30277,note_on,0,0,0,,1,,,61,127
30277,note_on,0,0,0,,5,,,65,127
30595,note_off,318,0,0,,5,,,65,127
30595,note_off,0,0,0,,1,,,61,127
30595,note_off,0,0,0,,8,,,56,127
30595,note_on,0,0,0,,8,,,56,127
30595,note_on,0,0,0,,3,,,63,127
30595,note_on,0,0,0,,8,,,68,127
30595,note_on,0,0,0,,6,,,66,127
30701,note_off,106,0,0,,6,,,66,127
30701,note_off,0,0,0,,8,,,68,127
30701,note_on,0,0,0,,5,,,65,127
30807,note_off,106,0,0,,5,,,65,127
30807,note_on,0,0,0,,6,,,66,127
30913,note_off,106,0,0,,6,,,66,127
30913,note_off,0,0,0,,3,,,63,127
30913,note_off,0,0,0,,8,,,56,127
30913,note_on,0,0,0,,8,,,56,127
30913,note_on,0,0,0,,3,,,63,127
30913,note_on,0,0,0,,6,,,66,127
30913,note_on,0,0,0,,8,,,68,127
31019,note_off,106,0,0,,8,,,68,127
31019,note_off,0,0,0,,6,,,66,127
31019,note_on,0,0,0,,5,,,65,127
31125,note_off,106,0,0,,5,,,65,127
31125,note_on,0,0,0,,6,,,66,127
31231,note_off,106,0,0,,6,,,66,127
31231,note_off,0,0,0,,3,,,63,127
31231,note_off,0,0,0,,8,,,56,127
31231,note_on,0,0,0,,3,,,63,127
31231,note_on,0,0,0,,8,,,56,127
31231,note_on,0,0,0,,8,,,68,127
31231,note_on,0,0,0,,6,,,66,127
31337,note_off,106,0,0,,6,,,66,127
31337,note_off,0,0,0,,8,,,68,127
31337,note_on,0,0,0,,5,,,65,127
31443,note_off,106,0,0,,5,,,65,127
31443,note_on,0,0,0,,6,,,66,127
31549,note_off,106,0,0,,6,,,66,127
31549,note_off,0,0,0,,8,,,56,127
31549,note_off,0,0,0,,3,,,63,127
31549,note_on,0,0,0,,8,,,56,127
31549,note_on,0,0,0,,3,,,63,127
31549,note_on,0,0,0,,8,,,68,127
31549,note_on,0,0,0,,6,,,66,127
31655,note_off,106,0,0,,6,,,66,127
31655,note_off,0,0,0,,8,,,68,127
31655,note_on,0,0,0,,5,,,65,127
31761,note_off,106,0,0,,5,,,65,127
31761,note_on,0,0,0,,6,,,66,127
31867,note_off,106,0,0,,6,,,66,127
31867,note_off,0,0,0,,3,,,63,127
31867,note_off,0,0,0,,8,,,56,127
31867,note_on,0,0,0,,8,,,44,127
31867,note_on,0,0,0,,8,,,56,127
31867,note_on,0,0,0,,3,,,75,127
31867,note_on,0,0,0,,6,,,78,127
32185,note_off,318,0,0,,6,,,78,127
32185,note_off,0,0,0,,3,,,75,127
32185,note_off,0,0,0,,8,,,56,127
32185,note_off,0,0,0,,8,,,44,127
32185,note_on,0,0,0,,8,,,56,127
32185,note_on,0,0,0,,3,,,63,127
32185,note_on,0,0,0,,6,,,66,127
32503,note_off,318,0,0,,6,,,66,127
32503,note_off,0,0,0,,3,,,63,127
32503,note_off,0,0,0,,8,,,56,127
32503,note_on,0,0,0,,3,,,63,127
32503,note_on,0,0,0,,8,,,56,127
32503,note_on,0,0,0,,6,,,66,127
32582,note_off,79,0,0,,6,,,66,127
32582,note_off,0,0,0,,3,,,63,127
32582,note_on,0,0,0,,1,,,61,127
32582,note_on,0,0,0,,5,,,65,127
32660,note_off,78,0,0,,8,,,56,127
32662,note_off,2,0,0,,5,,,65,127
32662,note_off,0,0,0,,1,,,61,127
32662,note_on,0,0,0,,3,,,63,127
32662,note_on,0,0,0,,6,,,66,127
32741,note_off,79,0,0,,6,,,66,127
32741,note_off,0,0,0,,3,,,63,127
32741,note_on,0,0,0,,1,,,61,127
32741,note_on,0,0,0,,5,,,65,127
32820,note_off,79,0,0,,5,,,65,127
32820,note_off,0,0,0,,1,,,61,127
32820,note_on,0,0,0,,8,,,56,127
32820,note_on,0,0,0,,0,,,60,127
32820,note_on,0,0,0,,3,,,63,127
33138,note_off,318,0,0,,3,,,63,127
33138,note_off,0,0,0,,0,,,60,127
33138,note_off,0,0,0,,8,,,56,127
33138,note_on,0,0,0,,8,,,56,127
33138,note_on,0,0,0,,1,,,61,127
33138,note_on,0,0,0,,6,,,66,127
33138,note_on,0,0,0,,5,,,65,127
33244,note_off,106,0,0,,5,,,65,127
33244,note_off,0,0,0,,6,,,66,127
33244,note_on,0,0,0,,3,,,63,127
33350,note_off,106,0,0,,3,,,63,127
33350,note_on,0,0,0,,5,,,65,127
33456,note_off,106,0,0,,5,,,65,127
33456,note_off,0,0,0,,1,,,61,127
33456,note_off,0,0,0,,8,,,56,127
33456,note_on,0,0,0,,8,,,56,127
33456,note_on,0,0,0,,1,,,61,127
33456,note_on,0,0,0,,6,,,66,127
33456,note_on,0,0,0,,5,,,65,127
33562,note_off,106,0,0,,5,,,65,127
33562,note_off,0,0,0,,6,,,66,127
33562,note_on,0,0,0,,3,,,63,127
33668,note_off,106,0,0,,3,,,63,127
33668,note_on,0,0,0,,5,,,65,127
33774,note_off,106,0,0,,5,,,65,127
33774,note_off,0,0,0,,1,,,61,127
33774,note_off,0,0,0,,8,,,56,127
33774,note_on,0,0,0,,8,,,56,127
33774,note_on,0,0,0,,1,,,61,127
33774,note_on,0,0,0,,5,,,65,127
33774,note_on,0,0,0,,6,,,66,127
33880,note_off,106,0,0,,6,,,66,127
33880,note_off,0,0,0,,5,,,65,127
33880,note_on,0,0,0,,3,,,63,127
33986,note_off,106,0,0,,3,,,63,127
33986,note_on,0,0,0,,5,,,65,127
34092,note_off,106,0,0,,5,,,65,127
34092,note_off,0,0,0,,1,,,61,127
34092,note_off,0,0,0,,8,,,56,127
34092,note_on,0,0,0,,8,,,56,127
34092,note_on,0,0,0,,1,,,61,127
34092,note_on,0,0,0,,5,,,65,127
34092,note_on,0,0,0,,6,,,66,127
34198,note_off,106,0,0,,6,,,66,127
34198,note_off,0,0,0,,5,,,65,127
34198,note_on,0,0,0,,3,,,63,127
34304,note_off,106,0,0,,3,,,63,127
34304,note_on,0,0,0,,5,,,65,127
34410,note_off,106,0,0,,5,,,65,127
34410,note_off,0,0,0,,1,,,61,127
34410,note_off,0,0,0,,8,,,56,127
34410,note_on,0,0,0,,8,,,44,127
34410,note_on,0,0,0,,8,,,56,127
34410,note_on,0,0,0,,1,,,73,127
34410,note_on,0,0,0,,5,,,77,127
34728,note_off,318,0,0,,5,,,77,127
34728,note_off,0,0,0,,1,,,73,127
34728,note_off,0,0,0,,8,,,56,127
34728,note_off,0,0,0,,8,,,44,127
34728,note_on,0,0,0,,1,,,61,127
34728,note_on,0,0,0,,8,,,56,127
34728,note_on,0,0,0,,5,,,65,127
35046,note_off,318,0,0,,5,,,65,127
35046,note_off,0,0,0,,8,,,56,127
35046,note_off,0,0,0,,1,,,61,127
35046,note_on,0,0,0,,0,,,60,127
35046,note_on,0,0,0,,8,,,56,127
35046,note_on,0,0,0,,3,,,63,127
35364,note_off,318,0,0,,3,,,63,127
35364,note_off,0,0,0,,8,,,56,127
35364,note_off,0,0,0,,0,,,60,127
35364,note_on,0,0,0,,11,,,58,127
35364,note_on,0,0,0,,1,,,61,127
35364,note_on,0,0,0,,8,,,68,127
35443,note_off,79,0,0,,8,,,68,127
35443,note_on,0,0,0,,7,,,67,127
35522,note_off,79,0,0,,7,,,67,127
35522,note_on,0,0,0,,5,,,65,127
35601,note_off,79,0,0,,5,,,65,127
35601,note_on,0,0,0,,7,,,67,127
35680,note_off,79,0,0,,7,,,67,127
35680,note_off,0,0,0,,1,,,61,127
35680,note_off,0,0,0,,11,,,58,127
35680,note_on,0,0,0,,0,,,60,127
35680,note_on,0,0,0,,8,,,56,127
35680,note_on,0,0,0,,8,,,68,127
35998,note_off,318,0,0,,8,,,68,127
35998,note_off,0,0,0,,8,,,56,127
35998,note_off,0,0,0,,0,,,60,127
35998,note_on,0,0,0,,6,,,54,127
35998,note_on,0,0,0,,11,,,58,127
35998,note_on,0,0,0,,1,,,73,127
36077,note_off,79,0,0,,1,,,73,127
36077,note_on,0,0,0,,0,,,72,127
36156,note_off,79,0,0,,0,,,72,127
36156,note_on,0,0,0,,11,,,70,127
36235,note_off,79,0,0,,11,,,70,127
36235,note_on,0,0,0,,0,,,72,127
36314,note_off,79,0,0,,0,,,72,127
36314,note_off,0,0,0,,11,,,58,127
36314,note_off,0,0,0,,6,,,54,127
36314,note_on,0,0,0,,8,,,56,127
36314,note_on,0,0,0,,5,,,53,127
36314,note_on,0,0,0,,1,,,73,127
36632,note_off,318,0,0,,1,,,73,127
36632,note_off,0,0,0,,5,,,53,127
36632,note_off,0,0,0,,8,,,56,127
36632,note_on,0,0,0,,6,,,54,127
36632,note_on,0,0,0,,3,,,51,127
36632,note_on,0,0,0,,1,,,85,127
36711,note_off,79,0,0,,1,,,85,127
36711,note_on,0,0,0,,0,,,84,127
36790,note_off,79,0,0,,0,,,84,127
36790,note_on,0,0,0,,11,,,82,127
36869,note_off,79,0,0,,11,,,82,127
36869,note_on,0,0,0,,0,,,84,127
36948,note_off,79,0,0,,0,,,84,127
36948,note_off,0,0,0,,3,,,51,127
36948,note_off,0,0,0,,6,,,54,127
36948,note_on,0,0,0,,8,,,56,127
36948,note_on,0,0,0,,5,,,53,127
36948,note_on,0,0,0,,1,,,85,127
37266,note_off,318,0,0,,5,,,53,127
37266,note_off,0,0,0,,8,,,56,127
37266,note_on,0,0,0,,3,,,51,127
37266,note_on,0,0,0,,6,,,54,127
37425,note_off,159,0,0,,1,,,85,127
37425,note_on,0,0,0,,0,,,84,127
37504,note_off,79,0,0,,0,,,84,127
37504,note_on,0,0,0,,11,,,82,127
37583,note_off,79,0,0,,11,,,82,127
37583,note_off,0,0,0,,6,,,54,127
37583,note_off,0,0,0,,3,,,51,127
37583,note_on,0,0,0,,5,,,53,127
37583,note_on,0,0,0,,8,,,56,127
37583,note_on,0,0,0,,8,,,80,127
37901,note_off,318,0,0,,8,,,80,127
37901,note_off,0,0,0,,8,,,56,127
37901,note_off,0,0,0,,5,,,53,127
37901,note_on,0,0,0,,5,,,53,127
37901,note_on,0,0,0,,1,,,49,127
37901,note_on,0,0,0,,11,,,82,127
37980,note_off,79,0,0,,11,,,82,127
37980,note_on,0,0,0,,8,,,80,127
38059,note_off,79,0,0,,8,,,80,127
38059,note_on,0,0,0,,6,,,78,127
38138,note_off,79,0,0,,6,,,78,127
38138,note_on,0,0,0,,8,,,80,127
38217,note_off,79,0,0,,8,,,80,127
38217,note_off,0,0,0,,1,,,49,127
38217,note_off,0,0,0,,5,,,53,127
38217,note_on,0,0,0,,6,,,54,127
38217,note_on,0,0,0,,8,,,80,127
38376,note_off,159,0,0,,8,,,80,127
38376,note_on,0,0,0,,11,,,82,127
38535,note_off,159,0,0,,11,,,82,127
38535,note_on,0,0,0,,1,,,61,127
38535,note_on,0,0,0,,8,,,80,127
38694,note_off,159,0,0,,8,,,80,127
38694,note_on,0,0,0,,6,,,78,127
38853,note_off,159,0,0,,6,,,78,127
38853,note_off,0,0,0,,1,,,61,127
38853,note_on,0,0,0,,6,,,66,127
38853,note_on,0,0,0,,6,,,78,127
39012,note_off,159,0,0,,6,,,78,127
39012,note_on,0,0,0,,5,,,77,127
39170,note_off,158,0,0,,6,,,54,127
39171,note_off,1,0,0,,5,,,77,127
39171,note_on,0,0,0,,6,,,54,127
39171,note_on,0,0,0,,3,,,75,127
39330,note_off,159,0,0,,3,,,75,127
39330,note_on,0,0,0,,1,,,73,127
39488,note_off,158,0,0,,6,,,66,127
39489,note_off,1,0,0,,1,,,73,127
39489,note_off,0,0,0,,6,,,54,127
39489,note_on,0,0,0,,8,,,56,127
39489,note_on,0,0,0,,1,,,61,127
39489,note_on,0,0,0,,5,,,65,127
39489,note_on,0,0,0,,1,,,73,127
39807,note_off,318,0,0,,5,,,65,127
39807,note_off,0,0,0,,1,,,61,127
39807,note_off,0,0,0,,8,,,56,127
39807,note_on,0,0,0,,8,,,56,127
39807,note_on,0,0,0,,1,,,61,127
39807,note_on,0,0,0,,5,,,65,127
40045,note_off,238,0,0,,1,,,73,127
40045,note_on,0,0,0,,3,,,75,127
40124,note_off,79,0,0,,3,,,75,127
40124,note_off,0,0,0,,5,,,65,127
40124,note_off,0,0,0,,1,,,61,127
40124,note_off,0,0,0,,8,,,56,127
40124,note_on,0,0,0,,8,,,56,127
40124,note_on,0,0,0,,1,,,61,127
40124,note_on,0,0,0,,3,,,63,127
40124,note_on,0,0,0,,6,,,66,127
40124,note_on,0,0,0,,5,,,77,127
40203,note_off,79,0,0,,5,,,77,127
40203,note_on,0,0,0,,3,,,75,127
40282,note_off,79,0,0,,3,,,75,127
40282,note_on,0,0,0,,5,,,77,127
40361,note_off,79,0,0,,5,,,77,127
40361,note_on,0,0,0,,3,,,75,127
40440,note_off,79,0,0,,3,,,75,127
40440,note_off,0,0,0,,6,,,66,127
40440,note_off,0,0,0,,3,,,63,127
40440,note_off,0,0,0,,1,,,61,127
40440,note_off,0,0,0,,8,,,56,127
40440,note_on,0,0,0,,1,,,61,127
40440,note_on,0,0,0,,3,,,63,127
40440,note_on,0,0,0,,8,,,56,127
40440,note_on,0,0,0,,6,,,66,127
40440,note_on,0,0,0,,5,,,77,127
40519,note_off,79,0,0,,5,,,77,127
40519,note_on,0,0,0,,3,,,75,127
40598,note_off,79,0,0,,3,,,75,127
40598,note_on,0,0,0,,1,,,73,127
40677,note_off,79,0,0,,1,,,73,127
40677,note_on,0,0,0,,3,,,75,127
40756,note_off,79,0,0,,3,,,75,127
40756,note_off,0,0,0,,6,,,66,127
40756,note_off,0,0,0,,8,,,56,127
40756,note_off,0,0,0,,3,,,63,127
40756,note_off,0,0,0,,1,,,61,127
40756,note_on,0,0,0,,1,,,49,127
40756,note_on,0,0,0,,1,,,61,127
40756,note_on,0,0,0,,5,,,77,127
40862,note_off,106,0,0,,5,,,77,127
40862,note_on,0,0,0,,1,,,73,127
40968,note_off,106,0,0,,1,,,73,127
40968,note_on,0,0,0,,8,,,68,127
41074,note_off,106,0,0,,8,,,68,127
41074,note_on,0,0,0,,5,,,65,127
41179,note_off,105,0,0,,1,,,61,127
41180,note_off,1,0,0,,5,,,65,127
41180,note_on,0,0,0,,1,,,61,127
41286,note_off,106,0,0,,1,,,61,127
41286,note_on,0,0,0,,8,,,56,127
41392,note_off,106,0,0,,8,,,56,127
41392,note_on,0,0,0,,1,,,73,127
41392,note_on,0,0,0,,5,,,77,127
41710,note_off,318,0,0,,5,,,77,127
41710,note_off,0,0,0,,1,,,73,127
41710,note_off,0,0,0,,1,,,49,127
41710,note_on,0,0,0,,8,,,56,127
41710,note_on,0,0,0,,8,,,44,127
41710,note_on,0,0,0,,6,,,78,127
41710,note_on,0,0,0,,3,,,75,127
42028,note_off,318,0,0,,3,,,75,127
42028,note_off,0,0,0,,6,,,78,127
42028,note_off,0,0,0,,8,,,44,127
42028,note_off,0,0,0,,8,,,56,127
42028,note_on,0,0,0,,1,,,49,127
42028,note_on,0,0,0,,1,,,61,127
42028,note_on,0,0,0,,5,,,77,127
42134,note_off,106,0,0,,5,,,77,127
42134,note_on,0,0,0,,1,,,73,127
42240,note_off,106,0,0,,1,,,73,127
42240,note_on,0,0,0,,8,,,68,127
42346,note_off,106,0,0,,8,,,68,127
42346,note_on,0,0,0,,5,,,65,127
42451,note_off,105,0,0,,1,,,61,127
42452,note_off,1,0,0,,5,,,65,127
42452,note_on,0,0,0,,1,,,61,127
42558,note_off,106,0,0,,1,,,61,127
42558,note_on,0,0,0,,8,,,56,127
42664,note_off,106,0,0,,8,,,56,127
42664,note_on,0,0,0,,5,,,77,127
42664,note_on,0,0,0,,1,,,73,127
42982,note_off,318,0,0,,1,,,73,127
42982,note_off,0,0,0,,5,,,77,127
42982,note_off,0,0,0,,1,,,49,127
42982,note_on,0,0,0,,8,,,44,127
42982,note_on,0,0,0,,8,,,56,127
42982,note_on,0,0,0,,6,,,78,127
42982,note_on,0,0,0,,3,,,75,127
43300,note_off,318,0,0,,3,,,75,127
43300,note_off,0,0,0,,6,,,78,127
43300,note_off,0,0,0,,8,,,56,127
43300,note_off,0,0,0,,8,,,44,127
43300,note_on,0,0,0,,1,,,37,127
43300,note_on,0,0,0,,1,,,49,127
43300,note_on,0,0,0,,5,,,77,127
43406,note_off,106,0,0,,5,,,77,127
43406,note_on,0,0,0,,3,,,75,127
43512,note_off,106,0,0,,3,,,75,127
43512,note_on,0,0,0,,1,,,73,127
43618,note_off,106,0,0,,1,,,73,127
43618,note_off,0,0,0,,1,,,49,127
43618,note_off,0,0,0,,1,,,37,127
43618,note_on,0,0,0,,5,,,65,127
43618,note_on,0,0,0,,5,,,77,127
43618,note_on,0,0,0,,1,,,73,127
43724,note_off,106,0,0,,5,,,65,127
43724,note_on,0,0,0,,3,,,63,127
43830,note_off,106,0,0,,3,,,63,127
43830,note_on,0,0,0,,5,,,65,127
43936,note_off,106,0,0,,5,,,65,127
43936,note_on,0,0,0,,8,,,44,127
44254,note_off,318,0,0,,1,,,73,127
44254,note_off,0,0,0,,5,,,77,127
44254,note_on,0,0,0,,3,,,75,127
44254,note_on,0,0,0,,0,,,72,127
44360,note_off,106,0,0,,3,,,75,127
44360,note_on,0,0,0,,5,,,77,127
44466,note_off,106,0,0,,5,,,77,127
44466,note_on,0,0,0,,6,,,78,127
44571,note_off,105,0,0,,0,,,72,127
44572,note_off,1,0,0,,6,,,78,127
44572,note_off,0,0,0,,8,,,44,127
44572,note_on,0,0,0,,1,,,37,127
44572,note_on,0,0,0,,1,,,49,127
44572,note_on,0,0,0,,5,,,77,127
44678,note_off,106,0,0,,5,,,77,127
44678,note_on,0,0,0,,3,,,75,127
44784,note_off,106,0,0,,3,,,75,127
44784,note_on,0,0,0,,1,,,73,127
44890,note_off,106,0,0,,1,,,73,127
44890,note_off,0,0,0,,1,,,49,127
44890,note_off,0,0,0,,1,,,37,127
44890,note_on,0,0,0,,5,,,65,127
44890,note_on,0,0,0,,5,,,77,127
44890,note_on,0,0,0,,1,,,73,127
44996,note_off,106,0,0,,5,,,65,127
44996,note_on,0,0,0,,3,,,63,127
45102,note_off,106,0,0,,3,,,63,127
45102,note_on,0,0,0,,5,,,65,127
45208,note_off,106,0,0,,5,,,65,127
45208,note_on,0,0,0,,8,,,44,127
45526,note_off,318,0,0,,1,,,73,127
45526,note_off,0,0,0,,5,,,77,127
45526,note_on,0,0,0,,3,,,75,127
45526,note_on,0,0,0,,0,,,72,127
45632,note_off,106,0,0,,3,,,75,127
45632,note_on,0,0,0,,5,,,77,127
45738,note_off,106,0,0,,5,,,77,127
45738,note_on,0,0,0,,6,,,78,127
45843,note_off,105,0,0,,0,,,72,127
45844,note_off,1,0,0,,6,,,78,127
45844,note_off,0,0,0,,8,,,44,127
45844,note_on,0,0,0,,1,,,49,127
45844,note_on,0,0,0,,1,,,37,127
45844,note_on,0,0,0,,5,,,77,127
45950,note_off,106,0,0,,5,,,77,127
45950,note_on,0,0,0,,6,,,78,127
46056,note_off,106,0,0,,6,,,78,127
46056,note_on,0,0,0,,8,,,80,127
46162,note_off,106,0,0,,8,,,80,127
46162,note_off,0,0,0,,1,,,37,127
46162,note_off,0,0,0,,1,,,49,127
46162,note_on,0,0,0,,6,,,54,127
46162,note_on,0,0,0,,6,,,78,127
46268,note_off,106,0,0,,6,,,78,127
46268,note_on,0,0,0,,8,,,80,127
46374,note_off,106,0,0,,8,,,80,127
46374,note_on,0,0,0,,11,,,82,127
46480,note_off,106,0,0,,11,,,82,127
46480,note_off,0,0,0,,6,,,54,127
46480,note_on,0,0,0,,8,,,56,127
46480,note_on,0,0,0,,8,,,80,127
46586,note_off,106,0,0,,8,,,80,127
46586,note_on,0,0,0,,6,,,78,127
46692,note_off,106,0,0,,6,,,78,127
46692,note_on,0,0,0,,5,,,77,127
46798,note_off,106,0,0,,5,,,77,127
46798,note_on,0,0,0,,8,,,44,127
46798,note_on,0,0,0,,3,,,75,127
46904,note_off,106,0,0,,3,,,75,127
46904,note_on,0,0,0,,1,,,73,127
47010,note_off,106,0,0,,1,,,73,127
47010,note_on,0,0,0,,0,,,72,127
47115,note_off,105,0,0,,8,,,56,127
47116,note_off,1,0,0,,0,,,72,127
47116,note_off,0,0,0,,8,,,44,127
47116,note_on,0,0,0,,11,,,58,127
47116,note_on,0,0,0,,1,,,73,127
47222,note_off,106,0,0,,1,,,73,127
47222,note_on,0,0,0,,0,,,72,127
47328,note_off,106,0,0,,0,,,72,127
47328,note_on,0,0,0,,1,,,73,127
47434,note_off,106,0,0,,1,,,73,127
47434,note_off,0,0,0,,11,,,58,127
47434,note_on,0,0,0,,6,,,54,127
47434,note_on,0,0,0,,3,,,75,127
47540,note_off,106,0,0,,3,,,75,127
47540,note_on,0,0,0,,11,,,70,127
47646,note_off,106,0,0,,11,,,70,127
47646,note_on,0,0,0,,1,,,73,127
47752,note_off,106,0,0,,1,,,73,127
47752,note_off,0,0,0,,6,,,54,127
47752,note_on,0,0,0,,8,,,56,127
47752,note_on,0,0,0,,1,,,73,127
48070,note_off,318,0,0,,1,,,73,127
48070,note_on,0,0,0,,8,,,44,127
48070,note_on,0,0,0,,0,,,72,127
48176,note_off,106,0,0,,0,,,72,127
48176,note_on,0,0,0,,1,,,73,127
48228,note_off,52,0,0,,8,,,56,127
48282,note_off,54,0,0,,1,,,73,127
48282,note_on,0,0,0,,0,,,72,127
48388,note_off,106,0,0,,0,,,72,127
48388,note_off,0,0,0,,8,,,44,127
48388,note_on,0,0,0,,1,,,37,127
48388,note_on,0,0,0,,1,,,49,127
48388,note_on,0,0,0,,0,,,72,127
48706,note_off,318,0,0,,0,,,72,127
48706,note_on,0,0,0,,1,,,73,127
49534,note_off,828,0,0,,1,,,73,127
49660,note_off,126,0,0,,1,,,49,127
49660,note_off,0,0,0,,1,,,37,127
49660,note_on,0,0,0,,1,,,37,127
49660,note_on,0,0,0,,1,,,49,127
49660,note_on,0,0,0,,5,,,77,127
49766,note_off,106,0,0,,5,,,77,127
49766,note_on,0,0,0,,1,,,73,127
49872,note_off,106,0,0,,1,,,73,127
49872,note_on,0,0,0,,8,,,68,127
49978,note_off,106,0,0,,8,,,68,127
49978,note_on,0,0,0,,5,,,65,127
50084,note_off,106,0,0,,5,,,65,127
50084,note_on,0,0,0,,1,,,61,127
50190,note_off,106,0,0,,1,,,61,127
50190,note_on,0,0,0,,8,,,56,127
50296,note_off,106,0,0,,8,,,56,127
50296,note_on,0,0,0,,5,,,77,127
50614,note_off,318,0,0,,5,,,77,127
50614,note_off,0,0,0,,1,,,49,127
50614,note_off,0,0,0,,1,,,37,127
50614,note_on,0,0,0,,6,,,54,127
50614,note_on,0,0,0,,3,,,51,127
50614,note_on,0,0,0,,3,,,75,127
50932,note_off,318,0,0,,3,,,75,127
50932,note_off,0,0,0,,3,,,51,127
50932,note_off,0,0,0,,6,,,54,127
50932,note_on,0,0,0,,5,,,53,127
50932,note_on,0,0,0,,8,,,56,127
50932,note_on,0,0,0,,1,,,73,127
51250,note_off,318,0,0,,1,,,73,127
51250,note_on,0,0,0,,3,,,75,127
51568,note_off,318,0,0,,3,,,75,127
51568,note_on,0,0,0,,7,,,67,127
51886,note_off,318,0,0,,7,,,67,127
51886,note_off,0,0,0,,8,,,56,127
51886,note_off,0,0,0,,5,,,53,127
51886,note_on,0,0,0,,8,,,56,127
51886,note_on,0,0,0,,5,,,53,127
51886,note_on,0,0,0,,8,,,68,127
52204,note_off,318,0,0,,8,,,68,127
52204,note_off,0,0,0,,5,,,53,127
52204,note_off,0,0,0,,8,,,56,127
52204,note_on,0,0,0,,6,,,54,127
52204,note_on,0,0,0,,10,,,69,127
52522,note_off,318,0,0,,10,,,69,127
52522,note_on,0,0,0,,6,,,66,127
52522,note_on,0,0,0,,11,,,70,127
52839,note_off,317,0,0,,6,,,54,127
52840,note_off,1,0,0,,11,,,70,127
52840,note_off,0,0,0,,6,,,66,127
52840,note_on,0,0,0,,8,,,56,127
52840,note_on,0,0,0,,5,,,65,127
52840,note_on,0,0,0,,8,,,68,127
53158,note_off,318,0,0,,8,,,68,127
53158,note_off,0,0,0,,5,,,65,127
53158,note_on,0,0,0,,3,,,63,127
53158,note_on,0,0,0,,6,,,66,127
53264,note_off,106,0,0,,6,,,66,127
53264,note_on,0,0,0,,5,,,65,127
53370,note_off,106,0,0,,5,,,65,127
53370,note_on,0,0,0,,6,,,66,127
53475,note_off,105,0,0,,8,,,56,127
53476,note_off,1,0,0,,6,,,66,127
53476,note_off,0,0,0,,3,,,63,127
53476,note_on,0,0,0,,1,,,61,127
53476,note_on,0,0,0,,6,,,66,127
53476,note_on,0,0,0,,8,,,68,127
53555,note_off,79,0,0,,8,,,68,127
53555,note_off,0,0,0,,6,,,66,127
53555,note_on,0,0,0,,5,,,65,127
53634,note_off,79,0,0,,5,,,65,127
53634,note_on,0,0,0,,4,,,64,127
53793,note_off,159,0,0,,1,,,61,127
53793,note_on,0,0,0,,1,,,49,127
54111,note_off,318,0,0,,1,,,49,127
54111,note_off,0,0,0,,4,,,64,127
54111,note_on,0,0,0,,1,,,61,127
54111,note_on,0,0,0,,5,,,65,127
54429,note_off,318,0,0,,1,,,61,127
54429,note_on,0,0,0,,12,,,59,127
54747,note_off,318,0,0,,12,,,59,127
54747,note_off,0,0,0,,5,,,65,127
54747,note_on,0,0,0,,11,,,46,127
54747,note_on,0,0,0,,11,,,58,127
54747,note_on,0,0,0,,8,,,80,127
54853,note_off,106,0,0,,8,,,80,127
54853,note_on,0,0,0,,5,,,77,127
54959,note_off,106,0,0,,5,,,77,127
54959,note_on,0,0,0,,2,,,74,127
55065,note_off,106,0,0,,2,,,74,127
55065,note_on,0,0,0,,12,,,71,127
55171,note_off,106,0,0,,12,,,71,127
55171,note_on,0,0,0,,8,,,68,127
55277,note_off,106,0,0,,8,,,68,127
55277,note_on,0,0,0,,5,,,65,127
55383,note_off,106,0,0,,5,,,65,127
55383,note_on,0,0,0,,11,,,82,127
55701,note_off,318,0,0,,11,,,82,127
55701,note_off,0,0,0,,11,,,58,127
55701,note_off,0,0,0,,11,,,46,127
55701,note_on,0,0,0,,2,,,50,127
55701,note_on,0,0,0,,11,,,58,127
55701,note_on,0,0,0,,8,,,80,127
56019,note_off,318,0,0,,8,,,80,127
56019,note_off,0,0,0,,11,,,58,127
56019,note_off,0,0,0,,2,,,50,127
56019,note_on,0,0,0,,11,,,58,127
56019,note_on,0,0,0,,3,,,51,127
56019,note_on,0,0,0,,5,,,77,127
56336,note_off,317,0,0,,5,,,77,127
56337,note_off,1,0,0,,3,,,51,127
56337,note_off,0,0,0,,11,,,58,127
56337,note_on,0,0,0,,5,,,53,127
56337,note_on,0,0,0,,8,,,56,127
56337,note_on,0,0,0,,6,,,78,127
56654,note_off,317,0,0,,6,,,78,127
56655,note_off,1,0,0,,8,,,56,127
56655,note_off,0,0,0,,5,,,53,127
56655,note_on,0,0,0,,11,,,58,127
56655,note_on,0,0,0,,6,,,54,127
56655,note_on,0,0,0,,2,,,74,127
56972,note_off,317,0,0,,2,,,74,127
56973,note_off,1,0,0,,6,,,54,127
56973,note_off,0,0,0,,11,,,58,127
56973,note_on,0,0,0,,7,,,55,127
56973,note_on,0,0,0,,11,,,58,127
56973,note_on,0,0,0,,3,,,75,127
57291,note_off,318,0,0,,3,,,75,127
57291,note_off,0,0,0,,11,,,58,127
57291,note_off,0,0,0,,7,,,55,127
57291,note_on,0,0,0,,8,,,56,127
57291,note_on,0,0,0,,11,,,70,127
57609,note_off,318,0,0,,11,,,70,127
57609,note_on,0,0,0,,8,,,68,127
57609,note_on,0,0,0,,12,,,71,127
57926,note_off,317,0,0,,8,,,56,127
57927,note_off,1,0,0,,12,,,71,127
57927,note_off,0,0,0,,8,,,68,127
57927,note_on,0,0,0,,6,,,66,127
57927,note_on,0,0,0,,11,,,58,127
57927,note_on,0,0,0,,11,,,70,127
58245,note_off,318,0,0,,11,,,70,127
58245,note_off,0,0,0,,6,,,66,127
58245,note_on,0,0,0,,5,,,65,127
58245,note_on,0,0,0,,8,,,68,127
58351,note_off,106,0,0,,8,,,68,127
58351,note_on,0,0,0,,6,,,66,127
58456,note_off,105,0,0,,5,,,65,127
58457,note_off,1,0,0,,6,,,66,127
58457,note_on,0,0,0,,5,,,65,127
58562,note_off,105,0,0,,11,,,58,127
58563,note_off,1,0,0,,5,,,65,127
58563,note_on,0,0,0,,3,,,63,127
58563,note_on,0,0,0,,5,,,65,127
58722,note_off,159,0,0,,5,,,65,127
58722,note_on,0,0,0,,6,,,66,127
58801,note_off,79,0,0,,6,,,66,127
58801,note_on,0,0,0,,8,,,68,127
58880,note_off,79,0,0,,8,,,68,127
58880,note_on,0,0,0,,3,,,51,127
58880,note_on,0,0,0,,6,,,66,127
59038,note_off,158,0,0,,3,,,63,127
59039,note_off,1,0,0,,6,,,66,127
59039,note_on,0,0,0,,5,,,65,127
59198,note_off,159,0,0,,5,,,65,127
59198,note_on,0,0,0,,3,,,39,127
59198,note_on,0,0,0,,5,,,65,127
59515,note_off,317,0,0,,3,,,51,127
59516,note_off,1,0,0,,5,,,65,127
59516,note_on,0,0,0,,3,,,63,127
59833,note_off,317,0,0,,3,,,39,127
59834,note_off,1,0,0,,3,,,63,127
59834,note_on,0,0,0,,8,,,80,127
59834,note_on,0,0,0,,6,,,78,127
59940,note_off,106,0,0,,6,,,78,127
59940,note_off,0,0,0,,8,,,80,127
59940,note_on,0,0,0,,5,,,77,127
60046,note_off,106,0,0,,5,,,77,127
60046,note_on,0,0,0,,6,,,78,127
60152,note_off,106,0,0,,6,,,78,127
60152,note_on,0,0,0,,3,,,75,127
60152,note_on,0,0,0,,6,,,78,127
60152,note_on,0,0,0,,8,,,80,127
60258,note_off,106,0,0,,8,,,80,127
60258,note_off,0,0,0,,6,,,78,127
60258,note_on,0,0,0,,5,,,77,127
60364,note_off,106,0,0,,5,,,77,127
60364,note_on,0,0,0,,6,,,78,127
60470,note_off,106,0,0,,6,,,78,127
60470,note_off,0,0,0,,3,,,75,127
60470,note_on,0,0,0,,3,,,75,127
60470,note_on,0,0,0,,8,,,80,127
60470,note_on,0,0,0,,6,,,78,127
60576,note_off,106,0,0,,6,,,78,127
60576,note_off,0,0,0,,8,,,80,127
60576,note_on,0,0,0,,5,,,77,127
60682,note_off,106,0,0,,5,,,77,127
60682,note_on,0,0,0,,6,,,78,127
60788,note_off,106,0,0,,6,,,78,127
60788,note_off,0,0,0,,3,,,75,127
60788,note_on,0,0,0,,1,,,73,127
60788,note_on,0,0,0,,7,,,79,127
60788,note_on,0,0,0,,8,,,80,127
60894,note_off,106,0,0,,8,,,80,127
60894,note_off,0,0,0,,7,,,79,127
60894,note_on,0,0,0,,5,,,77,127
61000,note_off,106,0,0,,5,,,77,127
61000,note_on,0,0,0,,7,,,79,127
61106,note_off,106,0,0,,7,,,79,127
61106,note_off,0,0,0,,1,,,73,127
61106,note_on,0,0,0,,0,,,72,127
61106,note_on,0,0,0,,3,,,75,127
61106,note_on,0,0,0,,8,,,80,127
61106,note_on,0,0,0,,11,,,82,127
61212,note_off,106,0,0,,11,,,82,127
61212,note_off,0,0,0,,8,,,80,127
61212,note_on,0,0,0,,7,,,79,127
61318,note_off,106,0,0,,7,,,79,127
61318,note_on,0,0,0,,8,,,80,127
61424,note_off,106,0,0,,8,,,80,127
61424,note_off,0,0,0,,3,,,75,127
61424,note_off,0,0,0,,0,,,72,127
61424,note_on,0,0,0,,1,,,73,127
61424,note_on,0,0,0,,11,,,70,127
61424,note_on,0,0,0,,11,,,82,127
61424,note_on,0,0,0,,0,,,84,127
61530,note_off,106,0,0,,0,,,84,127
61530,note_off,0,0,0,,11,,,82,127
61530,note_on,0,0,0,,8,,,80,127
61636,note_off,106,0,0,,8,,,80,127
61636,note_on,0,0,0,,11,,,82,127
61742,note_off,106,0,0,,11,,,82,127
61742,note_off,0,0,0,,11,,,70,127
61742,note_off,0,0,0,,1,,,73,127
61742,note_on,0,0,0,,0,,,72,127
61742,note_on,0,0,0,,8,,,68,127
61742,note_on,0,0,0,,1,,,85,127
61742,note_on,0,0,0,,0,,,84,127
61848,note_off,106,0,0,,0,,,84,127
61848,note_off,0,0,0,,1,,,85,127
61848,note_on,0,0,0,,11,,,82,127
61954,note_off,106,0,0,,11,,,82,127
61954,note_on,0,0,0,,0,,,84,127
62060,note_off,106,0,0,,0,,,84,127
62060,note_off,0,0,0,,8,,,68,127
62060,note_off,0,0,0,,0,,,72,127
62060,note_on,0,0,0,,7,,,67,127
62060,note_on,0,0,0,,11,,,70,127
62060,note_on,0,0,0,,11,,,82,127
62166,note_off,106,0,0,,11,,,82,127
62166,note_on,0,0,0,,0,,,84,127
62272,note_off,106,0,0,,0,,,84,127
62272,note_on,0,0,0,,1,,,85,127
62378,note_off,106,0,0,,1,,,85,127
62378,note_off,0,0,0,,11,,,70,127
62378,note_off,0,0,0,,7,,,67,127
62378,note_on,0,0,0,,0,,,72,127
62378,note_on,0,0,0,,8,,,68,127
62378,note_on,0,0,0,,0,,,84,127
62484,note_off,106,0,0,,0,,,84,127
62484,note_on,0,0,0,,11,,,82,127
62590,note_off,106,0,0,,11,,,82,127
62590,note_on,0,0,0,,0,,,84,127
62696,note_off,106,0,0,,0,,,84,127
62696,note_off,0,0,0,,8,,,68,127
62696,note_off,0,0,0,,0,,,72,127
62696,note_on,0,0,0,,1,,,73,127
62696,note_on,0,0,0,,11,,,70,127
62696,note_on,0,0,0,,11,,,82,127
62802,note_off,106,0,0,,11,,,82,127
62802,note_on,0,0,0,,8,,,80,127
62908,note_off,106,0,0,,8,,,80,127
62908,note_on,0,0,0,,11,,,82,127
63014,note_off,106,0,0,,11,,,82,127
63014,note_off,0,0,0,,11,,,70,127
63014,note_off,0,0,0,,1,,,73,127
63014,note_on,0,0,0,,0,,,72,127
63014,note_on,0,0,0,,3,,,75,127
63014,note_on,0,0,0,,8,,,80,127
63120,note_off,106,0,0,,8,,,80,127
63120,note_on,0,0,0,,7,,,79,127
63226,note_off,106,0,0,,7,,,79,127
63226,note_on,0,0,0,,8,,,80,127
63332,note_off,106,0,0,,8,,,80,127
63332,note_off,0,0,0,,0,,,72,127
63332,note_on,0,0,0,,8,,,68,127
63332,note_on,0,0,0,,6,,,78,127
63438,note_off,106,0,0,,6,,,78,127
63438,note_on,0,0,0,,5,,,77,127
63544,note_off,106,0,0,,5,,,77,127
63544,note_on,0,0,0,,6,,,78,127
63649,note_off,105,0,0,,3,,,75,127
63650,note_off,1,0,0,,6,,,78,127
63650,note_off,0,0,0,,8,,,68,127
63650,note_on,0,0,0,,1,,,73,127
63650,note_on,0,0,0,,8,,,80,127
63650,note_on,0,0,0,,6,,,78,127
63729,note_off,79,0,0,,6,,,78,127
63729,note_off,0,0,0,,8,,,80,127
63729,note_on,0,0,0,,5,,,77,127
63808,note_off,79,0,0,,5,,,77,127
63808,note_on,0,0,0,,4,,,76,127
63967,note_off,159,0,0,,1,,,73,127
63967,note_on,0,0,0,,1,,,61,127
64285,note_off,318,0,0,,1,,,61,127
64285,note_off,0,0,0,,4,,,76,127
64285,note_on,0,0,0,,1,,,73,127
64285,note_on,0,0,0,,5,,,77,127
64603,note_off,318,0,0,,1,,,73,127
64603,note_on,0,0,0,,0,,,72,127
64865,note_off,262,0,0,,5,,,77,127
64921,note_off,56,0,0,,0,,,72,127
64921,note_on,0,0,0,,1,,,73,127
64921,note_on,0,0,0,,5,,,77,127
64921,note_on,0,0,0,,7,,,79,127
65027,note_off,106,0,0,,7,,,79,127
65027,note_off,0,0,0,,5,,,77,127
65027,note_on,0,0,0,,4,,,76,127
65133,note_off,106,0,0,,4,,,76,127
65133,note_on,0,0,0,,5,,,77,127
65239,note_off,106,0,0,,5,,,77,127
65239,note_off,0,0,0,,1,,,73,127
65239,note_on,0,0,0,,0,,,72,127
65239,note_on,0,0,0,,7,,,79,127
65239,note_on,0,0,0,,5,,,77,127
65345,note_off,106,0,0,,5,,,77,127
65345,note_off,0,0,0,,7,,,79,127
65345,note_on,0,0,0,,4,,,76,127
65451,note_off,106,0,0,,4,,,76,127
65451,note_on,0,0,0,,5,,,77,127
65557,note_off,106,0,0,,5,,,77,127
65557,note_off,0,0,0,,0,,,72,127
65557,note_on,0,0,0,,11,,,70,127
65557,note_on,0,0,0,,1,,,73,127
65557,note_on,0,0,0,,7,,,79,127
65557,note_on,0,0,0,,5,,,77,127
65663,note_off,106,0,0,,5,,,77,127
65663,note_off,0,0,0,,7,,,79,127
65663,note_on,0,0,0,,4,,,76,127
65769,note_off,106,0,0,,4,,,76,127
65769,note_on,0,0,0,,5,,,77,127
65875,note_off,106,0,0,,5,,,77,127
65875,note_off,0,0,0,,1,,,73,127
65875,note_off,0,0,0,,11,,,70,127
65875,note_on,0,0,0,,8,,,68,127
65875,note_on,0,0,0,,0,,,72,127
65875,note_on,0,0,0,,5,,,77,127
65875,note_on,0,0,0,,7,,,79,127
65981,note_off,106,0,0,,7,,,79,127
65981,note_off,0,0,0,,5,,,77,127
65981,note_on,0,0,0,,4,,,76,127
66087,note_off,106,0,0,,4,,,76,127
66087,note_on,0,0,0,,5,,,77,127
66193,note_off,106,0,0,,5,,,77,127
66193,note_off,0,0,0,,0,,,72,127
66193,note_off,0,0,0,,8,,,68,127
66193,note_on,0,0,0,,7,,,67,127
66193,note_on,0,0,0,,11,,,70,127
66193,note_on,0,0,0,,8,,,80,127
66193,note_on,0,0,0,,7,,,79,127
66299,note_off,106,0,0,,7,,,79,127
66299,note_off,0,0,0,,8,,,80,127
66299,note_on,0,0,0,,5,,,77,127
66405,note_off,106,0,0,,5,,,77,127
66405,note_on,0,0,0,,7,,,79,127
66511,note_off,106,0,0,,7,,,79,127
66511,note_off,0,0,0,,11,,,70,127
66511,note_off,0,0,0,,7,,,67,127
66511,note_on,0,0,0,,8,,,68,127
66511,note_on,0,0,0,,5,,,65,127
66511,note_on,0,0,0,,11,,,82,127
66511,note_on,0,0,0,,8,,,80,127
66617,note_off,106,0,0,,8,,,80,127
66617,note_off,0,0,0,,11,,,82,127
66617,note_on,0,0,0,,7,,,79,127
66723,note_off,106,0,0,,7,,,79,127
66723,note_on,0,0,0,,8,,,80,127
66829,note_off,106,0,0,,8,,,80,127
66829,note_off,0,0,0,,5,,,65,127
66829,note_off,0,0,0,,8,,,68,127
66829,note_on,0,0,0,,8,,,68,127
66829,note_on,0,0,0,,4,,,64,127
66829,note_on,0,0,0,,11,,,82,127
66829,note_on,0,0,0,,0,,,84,127
66935,note_off,106,0,0,,0,,,84,127
66935,note_off,0,0,0,,11,,,82,127
66935,note_on,0,0,0,,8,,,80,127
67041,note_off,106,0,0,,8,,,80,127
67041,note_on,0,0,0,,11,,,82,127
67147,note_off,106,0,0,,11,,,82,127
67147,note_off,0,0,0,,4,,,64,127
67147,note_off,0,0,0,,8,,,68,127
67147,note_on,0,0,0,,8,,,68,127
67147,note_on,0,0,0,,5,,,65,127
67147,note_on,0,0,0,,8,,,80,127
67253,note_off,106,0,0,,8,,,80,127
67253,note_on,0,0,0,,11,,,82,127
67359,note_off,106,0,0,,11,,,82,127
67359,note_on,0,0,0,,0,,,84,127
67465,note_off,106,0,0,,0,,,84,127
67465,note_off,0,0,0,,5,,,65,127
67465,note_off,0,0,0,,8,,,68,127
67465,note_on,0,0,0,,7,,,67,127
67465,note_on,0,0,0,,11,,,70,127
67465,note_on,0,0,0,,11,,,82,127
67571,note_off,106,0,0,,11,,,82,127
67571,note_on,0,0,0,,8,,,80,127
67677,note_off,106,0,0,,8,,,80,127
67677,note_on,0,0,0,,11,,,82,127
67783,note_off,106,0,0,,11,,,82,127
67783,note_off,0,0,0,,11,,,70,127
67783,note_off,0,0,0,,7,,,67,127
67783,note_on,0,0,0,,0,,,72,127
67783,note_on,0,0,0,,8,,,68,127
67783,note_on,0,0,0,,8,,,80,127
67889,note_off,106,0,0,,8,,,80,127
67889,note_on,0,0,0,,7,,,79,127
67995,note_off,106,0,0,,7,,,79,127
67995,note_on,0,0,0,,8,,,80,127
68101,note_off,106,0,0,,8,,,80,127
68101,note_off,0,0,0,,8,,,68,127
68101,note_off,0,0,0,,0,,,72,127
68101,note_on,0,0,0,,1,,,73,127
68101,note_on,0,0,0,,11,,,70,127
68101,note_on,0,0,0,,11,,,82,127
68101,note_on,0,0,0,,8,,,80,127
68207,note_off,106,0,0,,8,,,80,127
68207,note_off,0,0,0,,11,,,82,127
68207,note_on,0,0,0,,7,,,79,127
68313,note_off,106,0,0,,7,,,79,127
68313,note_on,0,0,0,,8,,,80,127
68419,note_off,106,0,0,,8,,,80,127
68419,note_off,0,0,0,,11,,,70,127
68419,note_off,0,0,0,,1,,,73,127
68419,note_on,0,0,0,,12,,,71,127
68419,note_on,0,0,0,,2,,,74,127
68419,note_on,0,0,0,,7,,,79,127
68419,note_on,0,0,0,,5,,,77,127
68525,note_off,106,0,0,,5,,,77,127
68525,note_off,0,0,0,,7,,,79,127
68525,note_on,0,0,0,,4,,,76,127
68631,note_off,106,0,0,,4,,,76,127
68631,note_on,0,0,0,,5,,,77,127
68737,note_off,106,0,0,,5,,,77,127
68737,note_off,0,0,0,,2,,,74,127
68737,note_off,0,0,0,,12,,,71,127
68737,note_on,0,0,0,,0,,,72,127
68737,note_on,0,0,0,,4,,,76,127
68816,note_off,79,0,0,,4,,,76,127
68816,note_on,0,0,0,,5,,,77,127
68895,note_off,79,0,0,,5,,,77,127
68895,note_on,0,0,0,,7,,,79,127
68974,note_off,79,0,0,,7,,,79,127
68974,note_on,0,0,0,,5,,,77,127
69053,note_off,79,0,0,,5,,,77,127
69053,note_off,0,0,0,,0,,,72,127
69053,note_on,0,0,0,,0,,,60,127
69053,note_on,0,0,0,,7,,,79,127
69132,note_off,79,0,0,,7,,,79,127
69132,note_on,0,0,0,,5,,,77,127
69211,note_off,79,0,0,,5,,,77,127
69211,note_on,0,0,0,,4,,,76,127
69290,note_off,79,0,0,,4,,,76,127
69290,note_on,0,0,0,,5,,,77,127
69369,note_off,79,0,0,,5,,,77,127
69369,note_off,0,0,0,,0,,,60,127
69369,note_on,0,0,0,,0,,,48,127
69369,note_on,0,0,0,,5,,,77,127
69687,note_off,318,0,0,,5,,,77,127
69687,note_on,0,0,0,,4,,,76,127
69977,note_off,290,0,0,,4,,,76,127
70005,note_off,28,0,0,,0,,,48,127
70005,note_on,0,0,0,,0,,,60,127
70005,note_on,0,0,0,,7,,,79,127
70111,note_off,106,0,0,,7,,,79,127
70111,note_on,0,0,0,,4,,,76,127
70217,note_off,106,0,0,,4,,,76,127
70217,note_on,0,0,0,,0,,,72,127
70323,note_off,106,0,0,,0,,,72,127
70323,note_on,0,0,0,,7,,,67,127
70429,note_off,106,0,0,,7,,,67,127
70429,note_on,0,0,0,,4,,,64,127
70534,note_off,105,0,0,,0,,,60,127
70535,note_off,1,0,0,,4,,,64,127
70535,note_on,0,0,0,,0,,,60,127
70641,note_off,106,0,0,,0,,,60,127
70641,note_on,0,0,0,,0,,,84,127
70959,note_off,318,0,0,,0,,,84,127
70959,note_on,0,0,0,,4,,,52,127
70959,note_on,0,0,0,,0,,,60,127
70959,note_on,0,0,0,,11,,,82,127
71277,note_off,318,0,0,,11,,,82,127
71277,note_off,0,0,0,,0,,,60,127
71277,note_off,0,0,0,,4,,,52,127
71277,note_on,0,0,0,,5,,,53,127
71277,note_on,0,0,0,,0,,,60,127
71277,note_on,0,0,0,,7,,,79,127
71595,note_off,318,0,0,,7,,,79,127
71595,note_off,0,0,0,,0,,,60,127
71595,note_off,0,0,0,,5,,,53,127
71595,note_on,0,0,0,,11,,,58,127
71595,note_on,0,0,0,,7,,,55,127
71595,note_on,0,0,0,,8,,,80,127
71913,note_off,318,0,0,,8,,,80,127
71913,note_off,0,0,0,,7,,,55,127
71913,note_off,0,0,0,,11,,,58,127
71913,note_on,0,0,0,,8,,,56,127
71913,note_on,0,0,0,,0,,,60,127
71913,note_on,0,0,0,,4,,,76,127
72231,note_off,318,0,0,,4,,,76,127
72231,note_off,0,0,0,,0,,,60,127
72231,note_off,0,0,0,,8,,,56,127
72231,note_on,0,0,0,,1,,,61,127
72231,note_on,0,0,0,,11,,,58,127
72231,note_on,0,0,0,,7,,,79,127
72310,note_off,79,0,0,,7,,,79,127
72310,note_on,0,0,0,,5,,,77,127
72389,note_off,79,0,0,,5,,,77,127
72389,note_on,0,0,0,,4,,,76,127
72468,note_off,79,0,0,,4,,,76,127
72468,note_on,0,0,0,,5,,,77,127
72547,note_off,79,0,0,,5,,,77,127
72547,note_off,0,0,0,,11,,,58,127
72547,note_off,0,0,0,,1,,,61,127
72547,note_on,0,0,0,,0,,,48,127
72547,note_on,0,0,0,,0,,,60,127
72547,note_on,0,0,0,,7,,,79,127
72653,note_off,106,0,0,,7,,,79,127
72653,note_on,0,0,0,,4,,,76,127
72759,note_off,106,0,0,,4,,,76,127
72759,note_on,0,0,0,,0,,,72,127
72865,note_off,106,0,0,,0,,,72,127
72865,note_on,0,0,0,,7,,,67,127
72971,note_off,106,0,0,,7,,,67,127
72971,note_on,0,0,0,,4,,,64,127
73076,note_off,105,0,0,,0,,,60,127
73077,note_off,1,0,0,,4,,,64,127
73077,note_on,0,0,0,,0,,,60,127
73183,note_off,106,0,0,,0,,,60,127
73183,note_on,0,0,0,,0,,,84,127
73501,note_off,318,0,0,,0,,,84,127
73501,note_off,0,0,0,,0,,,48,127
73501,note_on,0,0,0,,4,,,52,127
73501,note_on,0,0,0,,0,,,60,127
73501,note_on,0,0,0,,11,,,82,127
73819,note_off,318,0,0,,11,,,82,127
73819,note_off,0,0,0,,0,,,60,127
73819,note_off,0,0,0,,4,,,52,127
73819,note_on,0,0,0,,5,,,53,127
73819,note_on,0,0,0,,8,,,56,127
73819,note_on,0,0,0,,11,,,82,127
73819,note_on,0,0,0,,8,,,80,127
73925,note_off,106,0,0,,8,,,80,127
73925,note_off,0,0,0,,11,,,82,127
73925,note_on,0,0,0,,7,,,79,127
74031,note_off,106,0,0,,7,,,79,127
74031,note_on,0,0,0,,5,,,77,127
74137,note_off,106,0,0,,5,,,77,127
74137,note_off,0,0,0,,8,,,56,127
74137,note_off,0,0,0,,5,,,53,127
74137,note_on,0,0,0,,11,,,58,127
74137,note_on,0,0,0,,7,,,55,127
74137,note_on,0,0,0,,4,,,76,127
74455,note_off,318,0,0,,7,,,55,127
74455,note_off,0,0,0,,11,,,58,127
74455,note_on,0,0,0,,8,,,56,127
74455,note_on,0,0,0,,0,,,60,127
74773,note_off,318,0,0,,8,,,56,127
74773,note_off,0,0,0,,4,,,76,127
74773,note_on,0,0,0,,5,,,53,127
74773,note_on,0,0,0,,5,,,77,127
75087,note_off,314,0,0,,5,,,77,127
75089,note_off,2,0,0,,0,,,60,127
75090,note_off,1,0,0,,5,,,53,127
75090,note_on,0,0,0,,1,,,73,127
75090,note_on,0,0,0,,5,,,65,127
75196,note_off,106,0,0,,5,,,65,127
75196,note_on,0,0,0,,4,,,64,127
75302,note_off,106,0,0,,4,,,64,127
75302,note_on,0,0,0,,5,,,65,127
75408,note_off,106,0,0,,5,,,65,127
75408,note_on,0,0,0,,11,,,58,127
75408,note_on,0,0,0,,5,,,65,127
75514,note_off,106,0,0,,5,,,65,127
75514,note_on,0,0,0,,4,,,64,127
75620,note_off,106,0,0,,4,,,64,127
75620,note_on,0,0,0,,5,,,65,127
75725,note_off,105,0,0,,11,,,58,127
75726,note_off,1,0,0,,5,,,65,127
75726,note_on,0,0,0,,11,,,58,127
75726,note_on,0,0,0,,5,,,65,127
75832,note_off,106,0,0,,5,,,65,127
75832,note_on,0,0,0,,4,,,64,127
75938,note_off,106,0,0,,4,,,64,127
75938,note_on,0,0,0,,5,,,65,127
76043,note_off,105,0,0,,1,,,73,127
76044,note_off,1,0,0,,5,,,65,127
76044,note_off,0,0,0,,11,,,58,127
76044,note_on,0,0,0,,8,,,56,127
76044,note_on,0,0,0,,0,,,72,127
76044,note_on,0,0,0,,5,,,65,127
76150,note_off,106,0,0,,5,,,65,127
76150,note_on,0,0,0,,4,,,64,127
76256,note_off,106,0,0,,4,,,64,127
76256,note_on,0,0,0,,5,,,65,127
76361,note_off,105,0,0,,0,,,72,127
76361,note_off,0,0,0,,8,,,56,127
76362,note_off,1,0,0,,5,,,65,127
76362,note_on,0,0,0,,11,,,70,127
76362,note_on,0,0,0,,7,,,67,127
76468,note_off,106,0,0,,7,,,67,127
76468,note_on,0,0,0,,5,,,65,127
76574,note_off,106,0,0,,5,,,65,127
76574,note_on,0,0,0,,7,,,67,127
76680,note_off,106,0,0,,7,,,67,127
76680,note_on,0,0,0,,11,,,58,127
76680,note_on,0,0,0,,7,,,55,127
76680,note_on,0,0,0,,7,,,67,127
76786,note_off,106,0,0,,7,,,67,127
76786,note_on,0,0,0,,5,,,65,127
76892,note_off,106,0,0,,5,,,65,127
76892,note_on,0,0,0,,7,,,67,127
76998,note_off,106,0,0,,7,,,67,127
76998,note_off,0,0,0,,7,,,55,127
76998,note_off,0,0,0,,11,,,58,127
76998,note_on,0,0,0,,7,,,55,127
76998,note_on,0,0,0,,11,,,58,127
76998,note_on,0,0,0,,7,,,67,127
77104,note_off,106,0,0,,7,,,67,127
77104,note_on,0,0,0,,5,,,65,127
77210,note_off,106,0,0,,5,,,65,127
77210,note_on,0,0,0,,7,,,67,127
77315,note_off,105,0,0,,11,,,70,127
77316,note_off,1,0,0,,7,,,67,127
77316,note_off,0,0,0,,11,,,58,127
77316,note_off,0,0,0,,7,,,55,127
77316,note_on,0,0,0,,8,,,56,127
77316,note_on,0,0,0,,5,,,53,127
77316,note_on,0,0,0,,8,,,68,127
77316,note_on,0,0,0,,1,,,61,127
77422,note_off,106,0,0,,1,,,61,127
77422,note_on,0,0,0,,0,,,60,127
77528,note_off,106,0,0,,0,,,60,127
77528,note_on,0,0,0,,1,,,61,127
77633,note_off,105,0,0,,8,,,68,127
77633,note_off,0,0,0,,5,,,53,127
77633,note_off,0,0,0,,8,,,56,127
77634,note_off,1,0,0,,1,,,61,127
77634,note_on,0,0,0,,7,,,67,127
77634,note_on,0,0,0,,0,,,60,127
77740,note_off,106,0,0,,0,,,60,127
77740,note_on,0,0,0,,11,,,58,127
77846,note_off,106,0,0,,11,,,58,127
77846,note_on,0,0,0,,0,,,60,127
77952,note_off,106,0,0,,0,,,60,127
77952,note_on,0,0,0,,3,,,51,127
77952,note_on,0,0,0,,7,,,55,127
77952,note_on,0,0,0,,0,,,60,127
78058,note_off,106,0,0,,0,,,60,127
78058,note_on,0,0,0,,11,,,58,127
78164,note_off,106,0,0,,11,,,58,127
78164,note_on,0,0,0,,0,,,60,127
78270,note_off,106,0,0,,0,,,60,127
78270,note_off,0,0,0,,7,,,55,127
78270,note_off,0,0,0,,3,,,51,127
78270,note_on,0,0,0,,3,,,51,127
78270,note_on,0,0,0,,7,,,55,127
78270,note_on,0,0,0,,0,,,60,127
78376,note_off,106,0,0,,0,,,60,127
78376,note_on,0,0,0,,11,,,58,127
78482,note_off,106,0,0,,11,,,58,127
78482,note_on,0,0,0,,0,,,60,127
78587,note_off,105,0,0,,7,,,67,127
78588,note_off,1,0,0,,0,,,60,127
78588,note_off,0,0,0,,7,,,55,127
78588,note_off,0,0,0,,3,,,51,127
78588,note_on,0,0,0,,1,,,49,127
78588,note_on,0,0,0,,5,,,53,127
78588,note_on,0,0,0,,5,,,65,127
78588,note_on,0,0,0,,0,,,60,127
78694,note_off,106,0,0,,0,,,60,127
78694,note_on,0,0,0,,11,,,58,127
78800,note_off,106,0,0,,11,,,58,127
78800,note_on,0,0,0,,0,,,60,127
78905,note_off,105,0,0,,5,,,65,127
78906,note_off,1,0,0,,0,,,60,127
78906,note_off,0,0,0,,5,,,53,127
78906,note_off,0,0,0,,1,,,49,127
78906,note_on,0,0,0,,0,,,48,127
78906,note_on,0,0,0,,4,,,64,127
79012,note_off,106,0,0,,4,,,64,127
79012,note_on,0,0,0,,5,,,65,127
79118,note_off,106,0,0,,5,,,65,127
79118,note_on,0,0,0,,7,,,67,127
79224,note_off,106,0,0,,7,,,67,127
79224,note_off,0,0,0,,0,,,48,127
79224,note_on,0,0,0,,11,,,58,127
79224,note_on,0,0,0,,5,,,65,127
79383,note_off,159,0,0,,5,,,65,127
79383,note_on,0,0,0,,4,,,64,127
79542,note_off,159,0,0,,4,,,64,127
79542,note_off,0,0,0,,11,,,58,127
79542,note_on,0,0,0,,8,,,56,127
79542,note_on,0,0,0,,0,,,60,127
79542,note_on,0,0,0,,5,,,65,127
79648,note_off,106,0,0,,5,,,65,127
79648,note_on,0,0,0,,7,,,67,127
79754,note_off,106,0,0,,7,,,67,127
79754,note_on,0,0,0,,8,,,68,127
79860,note_off,106,0,0,,8,,,68,127
79860,note_off,0,0,0,,0,,,60,127
79860,note_off,0,0,0,,8,,,56,127
79860,note_on,0,0,0,,11,,,58,127
79860,note_on,0,0,0,,7,,,67,127
79966,note_off,106,0,0,,7,,,67,127
79966,note_on,0,0,0,,8,,,68,127
80072,note_off,106,0,0,,8,,,68,127
80072,note_on,0,0,0,,11,,,70,127
80178,note_off,106,0,0,,11,,,70,127
80178,note_off,0,0,0,,11,,,58,127
80178,note_on,0,0,0,,0,,,48,127
80178,note_on,0,0,0,,0,,,60,127
80178,note_on,0,0,0,,8,,,68,127
80284,note_off,106,0,0,,8,,,68,127
80284,note_on,0,0,0,,0,,,72,127
80390,note_off,106,0,0,,0,,,72,127
80390,note_on,0,0,0,,11,,,70,127
80496,note_off,106,0,0,,11,,,70,127
80496,note_on,0,0,0,,8,,,68,127
80602,note_off,106,0,0,,8,,,68,127
80602,note_on,0,0,0,,7,,,67,127
80708,note_off,106,0,0,,7,,,67,127
80708,note_on,0,0,0,,5,,,65,127
80814,note_off,106,0,0,,5,,,65,127
80814,note_off,0,0,0,,0,,,60,127
80814,note_off,0,0,0,,0,,,48,127
80814,note_on,0,0,0,,0,,,60,127
80814,note_on,0,0,0,,7,,,67,127
80920,note_off,106,0,0,,7,,,67,127
80920,note_on,0,0,0,,11,,,70,127
81026,note_off,106,0,0,,11,,,70,127
81026,note_on,0,0,0,,8,,,68,127
81132,note_off,106,0,0,,8,,,68,127
81132,note_off,0,0,0,,0,,,60,127
81132,note_on,0,0,0,,11,,,58,127
81132,note_on,0,0,0,,7,,,67,127
81238,note_off,106,0,0,,7,,,67,127
81238,note_on,0,0,0,,5,,,65,127
81344,note_off,106,0,0,,5,,,65,127
81344,note_on,0,0,0,,4,,,64,127
81423,note_off,79,0,0,,4,,,64,127
81450,note_off,27,0,0,,11,,,58,127
81450,note_on,0,0,0,,10,,,57,127
81450,note_on,0,0,0,,0,,,60,127
81450,note_on,0,0,0,,5,,,77,127
81556,note_off,106,0,0,,5,,,77,127
81556,note_on,0,0,0,,0,,,72,127
81662,note_off,106,0,0,,0,,,72,127
81662,note_on,0,0,0,,10,,,69,127
81768,note_off,106,0,0,,10,,,69,127
81768,note_on,0,0,0,,5,,,65,127
81873,note_off,105,0,0,,0,,,60,127
81874,note_off,1,0,0,,5,,,65,127
81874,note_on,0,0,0,,0,,,60,127
81979,note_off,105,0,0,,10,,,57,127
81980,note_off,1,0,0,,0,,,60,127
81980,note_on,0,0,0,,10,,,57,127
82086,note_off,106,0,0,,10,,,57,127
82086,note_on,0,0,0,,5,,,77,127
82404,note_off,318,0,0,,5,,,77,127
82404,note_on,0,0,0,,10,,,57,127
82404,note_on,0,0,0,,0,,,60,127
82404,note_on,0,0,0,,3,,,75,127
82722,note_off,318,0,0,,3,,,75,127
82722,note_off,0,0,0,,0,,,60,127
82722,note_off,0,0,0,,10,,,57,127
82722,note_on,0,0,0,,11,,,58,127
82722,note_on,0,0,0,,1,,,61,127
82722,note_on,0,0,0,,0,,,72,127
83040,note_off,318,0,0,,0,,,72,127
83040,note_off,0,0,0,,1,,,61,127
83040,note_off,0,0,0,,11,,,58,127
83040,note_on,0,0,0,,0,,,60,127
83040,note_on,0,0,0,,3,,,63,127
83040,note_on,0,0,0,,1,,,73,127
83358,note_off,318,0,0,,1,,,73,127
83358,note_off,0,0,0,,3,,,63,127
83358,note_off,0,0,0,,0,,,60,127
83358,note_on,0,0,0,,1,,,61,127
83358,note_on,0,0,0,,5,,,65,127
83358,note_on,0,0,0,,10,,,69,127
83676,note_off,318,0,0,,10,,,69,127
83676,note_off,0,0,0,,5,,,65,127
83676,note_off,0,0,0,,1,,,61,127
83676,note_on,0,0,0,,6,,,66,127
83676,note_on,0,0,0,,3,,,63,127
83676,note_on,0,0,0,,0,,,72,127
83755,note_off,79,0,0,,0,,,72,127
83755,note_on,0,0,0,,11,,,70,127
83834,note_off,79,0,0,,11,,,70,127
83834,note_on,0,0,0,,10,,,69,127
83913,note_off,79,0,0,,10,,,69,127
83913,note_on,0,0,0,,11,,,70,127
83992,note_off,79,0,0,,11,,,70,127
83992,note_off,0,0,0,,3,,,63,127
83992,note_off,0,0,0,,6,,,66,127
83992,note_on,0,0,0,,10,,,57,127
83992,note_on,0,0,0,,0,,,60,127
83992,note_on,0,0,0,,5,,,77,127
84098,note_off,106,0,0,,5,,,77,127
84098,note_on,0,0,0,,0,,,72,127
84204,note_off,106,0,0,,0,,,72,127
84204,note_on,0,0,0,,10,,,69,127
84310,note_off,106,0,0,,10,,,69,127
84310,note_on,0,0,0,,5,,,65,127
84415,note_off,105,0,0,,0,,,60,127
84416,note_off,1,0,0,,5,,,65,127
84416,note_on,0,0,0,,0,,,60,127
84521,note_off,105,0,0,,10,,,57,127
84522,note_off,1,0,0,,0,,,60,127
84522,note_on,0,0,0,,10,,,57,127
84628,note_on,106,0,0,,5,,,77,127
84839,note_off,211,0,0,,10,,,57,127
84946,note_off,107,0,0,,5,,,77,127
84946,note_on,0,0,0,,10,,,57,127
84946,note_on,0,0,0,,0,,,60,127
84946,note_on,0,0,0,,3,,,75,127
85264,note_off,318,0,0,,3,,,75,127
85264,note_off,0,0,0,,0,,,60,127
85264,note_off,0,0,0,,10,,,57,127
85264,note_on,0,0,0,,11,,,58,127
85264,note_on,0,0,0,,1,,,61,127
85264,note_on,0,0,0,,1,,,73,127
85264,note_on,0,0,0,,3,,,75,127
85370,note_off,106,0,0,,3,,,75,127
85370,note_off,0,0,0,,1,,,73,127
85370,note_on,0,0,0,,0,,,72,127
85476,note_off,106,0,0,,0,,,72,127
85476,note_on,0,0,0,,11,,,70,127
85582,note_off,106,0,0,,11,,,70,127
85582,note_off,0,0,0,,1,,,61,127
85582,note_off,0,0,0,,11,,,58,127
85582,note_on,0,0,0,,3,,,63,127
85582,note_on,0,0,0,,0,,,60,127
85582,note_on,0,0,0,,10,,,69,127
85900,note_off,318,0,0,,0,,,60,127
85900,note_off,0,0,0,,3,,,63,127
85900,note_on,0,0,0,,1,,,61,127
86218,note_off,318,0,0,,1,,,61,127
86218,note_off,0,0,0,,10,,,69,127
86218,note_on,0,0,0,,11,,,58,127
86218,note_on,0,0,0,,11,,,70,127
86535,note_off,317,0,0,,11,,,58,127
86536,note_off,1,0,0,,11,,,70,127
86536,note_on,0,0,0,,6,,,78,127
86536,note_on,0,0,0,,11,,,70,127
86642,note_off,106,0,0,,11,,,70,127
86642,note_on,0,0,0,,10,,,69,127
86748,note_off,106,0,0,,10,,,69,127
86748,note_on,0,0,0,,11,,,70,127
86854,note_off,106,0,0,,11,,,70,127
86854,note_on,0,0,0,,3,,,63,127
86854,note_on,0,0,0,,11,,,70,127
86960,note_off,106,0,0,,11,,,70,127
86960,note_on,0,0,0,,10,,,69,127
87066,note_off,106,0,0,,10,,,69,127
87066,note_on,0,0,0,,11,,,70,127
87172,note_off,106,0,0,,11,,,70,127
87172,note_off,0,0,0,,3,,,63,127
87172,note_on,0,0,0,,3,,,63,127
87172,note_on,0,0,0,,11,,,70,127
87278,note_off,106,0,0,,11,,,70,127
87278,note_on,0,0,0,,10,,,69,127
87384,note_off,106,0,0,,10,,,69,127
87384,note_on,0,0,0,,11,,,70,127
87489,note_off,105,0,0,,6,,,78,127
87490,note_off,1,0,0,,11,,,70,127
87490,note_off,0,0,0,,3,,,63,127
87490,note_on,0,0,0,,1,,,61,127
87490,note_on,0,0,0,,5,,,77,127
87490,note_on,0,0,0,,11,,,70,127
87596,note_off,106,0,0,,11,,,70,127
87596,note_on,0,0,0,,10,,,69,127
87702,note_off,106,0,0,,10,,,69,127
87702,note_on,0,0,0,,11,,,70,127
87807,note_off,105,0,0,,5,,,77,127
87807,note_off,0,0,0,,1,,,61,127
87808,note_off,1,0,0,,11,,,70,127
87808,note_on,0,0,0,,0,,,72,127
87808,note_on,0,0,0,,3,,,75,127
87914,note_off,106,0,0,,0,,,72,127
87914,note_on,0,0,0,,12,,,71,127
88020,note_off,106,0,0,,12,,,71,127
88020,note_on,0,0,0,,0,,,72,127
88126,note_off,106,0,0,,0,,,72,127
88126,note_on,0,0,0,,3,,,63,127
88126,note_on,0,0,0,,0,,,60,127
88126,note_on,0,0,0,,0,,,72,127
88232,note_off,106,0,0,,0,,,72,127
88232,note_on,0,0,0,,12,,,71,127
88338,note_off,106,0,0,,12,,,71,127
88338,note_on,0,0,0,,0,,,72,127
88444,note_off,106,0,0,,0,,,72,127
88444,note_off,0,0,0,,0,,,60,127
88444,note_off,0,0,0,,3,,,63,127
88444,note_on,0,0,0,,0,,,60,127
88444,note_on,0,0,0,,3,,,63,127
88444,note_on,0,0,0,,0,,,72,127
88550,note_off,106,0,0,,0,,,72,127
88550,note_on,0,0,0,,12,,,71,127
88656,note_off,106,0,0,,12,,,71,127
88656,note_on,0,0,0,,0,,,72,127
88761,note_off,105,0,0,,3,,,75,127
88762,note_off,1,0,0,,0,,,72,127
88762,note_off,0,0,0,,3,,,63,127
88762,note_off,0,0,0,,0,,,60,127
88762,note_on,0,0,0,,1,,,61,127
88762,note_on,0,0,0,,11,,,58,127
88762,note_on,0,0,0,,1,,,73,127
88762,note_on,0,0,0,,6,,,66,127
88868,note_off,106,0,0,,6,,,66,127
88868,note_on,0,0,0,,5,,,65,127
88974,note_off,106,0,0,,5,,,65,127
88974,note_on,0,0,0,,6,,,66,127
89079,note_off,105,0,0,,1,,,73,127
89079,note_off,0,0,0,,11,,,58,127
89079,note_off,0,0,0,,1,,,61,127
89080,note_off,1,0,0,,6,,,66,127
89080,note_on,0,0,0,,0,,,72,127
89080,note_on,0,0,0,,5,,,65,127
89186,note_off,106,0,0,,5,,,65,127
89186,note_on,0,0,0,,4,,,64,127
89292,note_off,106,0,0,,4,,,64,127
89292,note_on,0,0,0,,5,,,65,127
89398,note_off,106,0,0,,5,,,65,127
89398,note_on,0,0,0,,0,,,60,127
89398,note_on,0,0,0,,8,,,56,127
89398,note_on,0,0,0,,5,,,65,127
89504,note_off,106,0,0,,5,,,65,127
89504,note_on,0,0,0,,4,,,64,127
89610,note_off,106,0,0,,4,,,64,127
89610,note_on,0,0,0,,5,,,65,127
89716,note_off,106,0,0,,5,,,65,127
89716,note_off,0,0,0,,8,,,56,127
89716,note_off,0,0,0,,0,,,60,127
89716,note_on,0,0,0,,0,,,60,127
89716,note_on,0,0,0,,8,,,56,127
89716,note_on,0,0,0,,5,,,65,127
89822,note_off,106,0,0,,5,,,65,127
89822,note_on,0,0,0,,4,,,64,127
89928,note_off,106,0,0,,4,,,64,127
89928,note_on,0,0,0,,5,,,65,127
90033,note_off,105,0,0,,0,,,72,127
90034,note_off,1,0,0,,5,,,65,127
90034,note_off,0,0,0,,8,,,56,127
90034,note_off,0,0,0,,0,,,60,127
90034,note_on,0,0,0,,6,,,54,127
90034,note_on,0,0,0,,11,,,58,127
90034,note_on,0,0,0,,3,,,63,127
90034,note_on,0,0,0,,11,,,70,127
90140,note_off,106,0,0,,3,,,63,127
90140,note_on,0,0,0,,1,,,61,127
90246,note_off,106,0,0,,1,,,61,127
90246,note_on,0,0,0,,3,,,63,127
90351,note_off,105,0,0,,11,,,70,127
90352,note_off,1,0,0,,3,,,63,127
90352,note_off,0,0,0,,11,,,58,127
90352,note_off,0,0,0,,6,,,54,127
90352,note_on,0,0,0,,5,,,53,127
90352,note_on,0,0,0,,0,,,60,127
90352,note_on,0,0,0,,10,,,69,127
90511,note_off,159,0,0,,10,,,69,127
90511,note_on,0,0,0,,11,,,70,127
90590,note_off,79,0,0,,11,,,70,127
90590,note_on,0,0,0,,0,,,72,127
90669,note_off,79,0,0,,0,,,72,127
90669,note_off,0,0,0,,5,,,53,127
90669,note_on,0,0,0,,3,,,51,127
90669,note_on,0,0,0,,11,,,70,127
90828,note_off,159,0,0,,11,,,70,127
90828,note_on,0,0,0,,10,,,69,127
90986,note_off,158,0,0,,0,,,60,127
90987,note_off,1,0,0,,10,,,69,127
90987,note_off,0,0,0,,3,,,51,127
90987,note_on,0,0,0,,1,,,49,127
90987,note_on,0,0,0,,11,,,58,127
90987,note_on,0,0,0,,11,,,70,127
91093,note_off,106,0,0,,11,,,70,127
91093,note_on,0,0,0,,0,,,72,127
91199,note_off,106,0,0,,0,,,72,127
91199,note_on,0,0,0,,1,,,73,127
91305,note_off,106,0,0,,1,,,73,127
91305,note_off,0,0,0,,1,,,49,127
91305,note_on,0,0,0,,3,,,51,127
91305,note_on,0,0,0,,0,,,72,127
91411,note_off,106,0,0,,0,,,72,127
91411,note_on,0,0,0,,1,,,73,127
91517,note_off,106,0,0,,1,,,73,127
91517,note_on,0,0,0,,3,,,75,127
91622,note_off,105,0,0,,11,,,58,127
91623,note_off,1,0,0,,3,,,75,127
91623,note_off,0,0,0,,3,,,51,127
91623,note_on,0,0,0,,5,,,53,127
91623,note_on,0,0,0,,1,,,61,127
91623,note_on,0,0,0,,11,,,58,127
91623,note_on,0,0,0,,1,,,73,127
91729,note_off,106,0,0,,1,,,73,127
91729,note_on,0,0,0,,5,,,77,127
91835,note_off,106,0,0,,5,,,77,127
91835,note_on,0,0,0,,3,,,75,127
91941,note_off,106,0,0,,3,,,75,127
91941,note_on,0,0,0,,1,,,73,127
92047,note_off,106,0,0,,1,,,73,127
92047,note_on,0,0,0,,0,,,72,127
92153,note_off,106,0,0,,0,,,72,127
92153,note_on,0,0,0,,11,,,70,127
92259,note_off,106,0,0,,11,,,70,127
92259,note_off,0,0,0,,11,,,58,127
92259,note_off,0,0,0,,1,,,61,127
92259,note_off,0,0,0,,5,,,53,127
92259,note_on,0,0,0,,5,,,53,127
92259,note_on,0,0,0,,0,,,60,127
92259,note_on,0,0,0,,3,,,63,127
92259,note_on,0,0,0,,11,,,58,127
92259,note_on,0,0,0,,0,,,72,127
92365,note_off,106,0,0,,0,,,72,127
92365,note_on,0,0,0,,3,,,75,127
92471,note_off,106,0,0,,3,,,75,127
92471,note_on,0,0,0,,1,,,73,127
92577,note_off,106,0,0,,1,,,73,127
92577,note_on,0,0,0,,0,,,72,127
92683,note_off,106,0,0,,0,,,72,127
92683,note_on,0,0,0,,11,,,70,127
92789,note_off,106,0,0,,11,,,70,127
92789,note_on,0,0,0,,10,,,69,127
92895,note_off,106,0,0,,10,,,69,127
92895,note_off,0,0,0,,11,,,58,127
92895,note_off,0,0,0,,3,,,63,127
92895,note_off,0,0,0,,0,,,60,127
92895,note_off,0,0,0,,5,,,53,127
92895,note_on,0,0,0,,11,,,58,127
92895,note_on,0,0,0,,10,,,69,127
93054,note_off,159,0,0,,10,,,69,127
93054,note_on,0,0,0,,11,,,70,127
93133,note_off,79,0,0,,11,,,70,127
93133,note_on,0,0,0,,0,,,72,127
93212,note_off,79,0,0,,0,,,72,127
93212,note_on,0,0,0,,11,,,70,127
93371,note_off,159,0,0,,11,,,70,127
93371,note_on,0,0,0,,10,,,69,127
93530,note_off,159,0,0,,10,,,69,127
93530,note_on,0,0,0,,11,,,46,127
93530,note_on,0,0,0,,10,,,69,127
93848,note_off,318,0,0,,10,,,69,127
93848,note_on,0,0,0,,11,,,70,127
94138,note_off,290,0,0,,11,,,70,127
94161,note_off,23,0,0,,11,,,58,127
94166,note_off,5,0,0,,11,,,46,127
94166,note_on,0,0,0,,5,,,53,127
94166,note_on,0,0,0,,1,,,61,127
94166,note_on,0,0,0,,6,,,66,127
94166,note_on,0,0,0,,5,,,65,127
94272,note_off,106,0,0,,5,,,65,127
94272,note_off,0,0,0,,6,,,66,127
94272,note_on,0,0,0,,4,,,64,127
94378,note_off,106,0,0,,4,,,64,127
94378,note_on,0,0,0,,5,,,65,127
94484,note_off,106,0,0,,5,,,65,127
94484,note_off,0,0,0,,1,,,61,127
94484,note_off,0,0,0,,5,,,53,127
94484,note_on,0,0,0,,5,,,53,127
94484,note_on,0,0,0,,1,,,61,127
94484,note_on,0,0,0,,6,,,66,127
94484,note_on,0,0,0,,5,,,65,127
94590,note_off,106,0,0,,5,,,65,127
94590,note_off,0,0,0,,6,,,66,127
94590,note_on,0,0,0,,4,,,64,127
94696,note_off,106,0,0,,4,,,64,127
94696,note_on,0,0,0,,5,,,65,127
94802,note_off,106,0,0,,5,,,65,127
94802,note_off,0,0,0,,1,,,61,127
94802,note_off,0,0,0,,5,,,53,127
94802,note_on,0,0,0,,5,,,53,127
94802,note_on,0,0,0,,1,,,61,127
94802,note_on,0,0,0,,6,,,66,127
94802,note_on,0,0,0,,5,,,65,127
94908,note_off,106,0,0,,5,,,65,127
94908,note_off,0,0,0,,6,,,66,127
94908,note_on,0,0,0,,4,,,64,127
95014,note_off,106,0,0,,4,,,64,127
95014,note_on,0,0,0,,5,,,65,127
95120,note_off,106,0,0,,5,,,65,127
95120,note_off,0,0,0,,1,,,61,127
95120,note_off,0,0,0,,5,,,53,127
95120,note_on,0,0,0,,5,,,53,127
95120,note_on,0,0,0,,1,,,61,127
95120,note_on,0,0,0,,5,,,65,127
95120,note_on,0,0,0,,6,,,66,127
95226,note_off,106,0,0,,6,,,66,127
95226,note_off,0,0,0,,5,,,65,127
95226,note_on,0,0,0,,4,,,64,127
95332,note_off,106,0,0,,4,,,64,127
95332,note_on,0,0,0,,5,,,65,127
95438,note_off,106,0,0,,5,,,65,127
95438,note_off,0,0,0,,1,,,61,127
95438,note_off,0,0,0,,5,,,53,127
95438,note_on,0,0,0,,5,,,41,127
95438,note_on,0,0,0,,5,,,53,127
95438,note_on,0,0,0,,11,,,82,127
95438,note_on,0,0,0,,1,,,85,127
95756,note_off,318,0,0,,1,,,85,127
95756,note_off,0,0,0,,11,,,82,127
95756,note_off,0,0,0,,5,,,53,127
95756,note_off,0,0,0,,5,,,41,127
95756,note_on,0,0,0,,5,,,53,127
95756,note_on,0,0,0,,1,,,61,127
95756,note_on,0,0,0,,5,,,65,127
96074,note_off,318,0,0,,5,,,65,127
96074,note_off,0,0,0,,1,,,61,127
96074,note_off,0,0,0,,5,,,53,127
96074,note_on,0,0,0,,5,,,53,127
96074,note_on,0,0,0,,1,,,61,127
96074,note_on,0,0,0,,5,,,65,127
96153,note_off,79,0,0,,5,,,65,127
96153,note_off,0,0,0,,1,,,61,127
96153,note_on,0,0,0,,0,,,60,127
96153,note_on,0,0,0,,3,,,63,127
96231,note_off,78,0,0,,5,,,53,127
96233,note_off,2,0,0,,3,,,63,127
96233,note_off,0,0,0,,0,,,60,127
96233,note_on,0,0,0,,1,,,61,127
96233,note_on,0,0,0,,5,,,65,127
96312,note_off,79,0,0,,5,,,65,127
96312,note_off,0,0,0,,1,,,61,127
96312,note_on,0,0,0,,0,,,60,127
96312,note_on,0,0,0,,3,,,63,127
96391,note_off,79,0,0,,3,,,63,127
96391,note_off,0,0,0,,0,,,60,127
96391,note_on,0,0,0,,12,,,59,127
96391,note_on,0,0,0,,5,,,53,127
96391,note_on,0,0,0,,2,,,62,127
96709,note_off,318,0,0,,2,,,62,127
96709,note_off,0,0,0,,5,,,53,127
96709,note_off,0,0,0,,12,,,59,127
96709,note_on,0,0,0,,5,,,53,127
96709,note_on,0,0,0,,0,,,60,127
96709,note_on,0,0,0,,3,,,63,127
96709,note_on,0,0,0,,5,,,65,127
96815,note_off,106,0,0,,5,,,65,127
96815,note_off,0,0,0,,3,,,63,127
96815,note_on,0,0,0,,2,,,62,127
96921,note_off,106,0,0,,2,,,62,127
96921,note_on,0,0,0,,3,,,63,127
97027,note_off,106,0,0,,3,,,63,127
97027,note_off,0,0,0,,0,,,60,127
97027,note_off,0,0,0,,5,,,53,127
97027,note_on,0,0,0,,5,,,53,127
97027,note_on,0,0,0,,0,,,60,127
97027,note_on,0,0,0,,5,,,65,127
97027,note_on,0,0,0,,3,,,63,127
97133,note_off,106,0,0,,3,,,63,127
97133,note_off,0,0,0,,5,,,65,127
97133,note_on,0,0,0,,2,,,62,127
97239,note_off,106,0,0,,2,,,62,127
97239,note_on,0,0,0,,3,,,63,127
97345,note_off,106,0,0,,3,,,63,127
97345,note_off,0,0,0,,0,,,60,127
97345,note_off,0,0,0,,5,,,53,127
97345,note_on,0,0,0,,5,,,53,127
97345,note_on,0,0,0,,0,,,60,127
97345,note_on,0,0,0,,3,,,63,127
97345,note_on,0,0,0,,5,,,65,127
97451,note_off,106,0,0,,5,,,65,127
97451,note_off,0,0,0,,3,,,63,127
97451,note_on,0,0,0,,2,,,62,127
97557,note_off,106,0,0,,2,,,62,127
97557,note_on,0,0,0,,3,,,63,127
97663,note_off,106,0,0,,3,,,63,127
97663,note_off,0,0,0,,0,,,60,127
97663,note_off,0,0,0,,5,,,53,127
97663,note_on,0,0,0,,5,,,53,127
97663,note_on,0,0,0,,0,,,60,127
97663,note_on,0,0,0,,5,,,65,127
97663,note_on,0,0,0,,3,,,63,127
97769,note_off,106,0,0,,3,,,63,127
97769,note_off,0,0,0,,5,,,65,127
97769,note_on,0,0,0,,2,,,62,127
97875,note_off,106,0,0,,2,,,62,127
97875,note_on,0,0,0,,3,,,63,127
97981,note_off,106,0,0,,3,,,63,127
97981,note_off,0,0,0,,0,,,60,127
97981,note_off,0,0,0,,5,,,53,127
97981,note_on,0,0,0,,5,,,41,127
97981,note_on,0,0,0,,5,,,53,127
97981,note_on,0,0,0,,0,,,84,127
97981,note_on,0,0,0,,3,,,75,127
98299,note_off,318,0,0,,3,,,75,127
98299,note_off,0,0,0,,0,,,84,127
98299,note_off,0,0,0,,5,,,53,127
98299,note_off,0,0,0,,5,,,41,127
98299,note_on,0,0,0,,0,,,60,127
98299,note_on,0,0,0,,5,,,53,127
98299,note_on,0,0,0,,3,,,63,127
98617,note_off,318,0,0,,3,,,63,127
98617,note_off,0,0,0,,5,,,53,127
98617,note_off,0,0,0,,0,,,60,127
98617,note_on,0,0,0,,5,,,53,127
98617,note_on,0,0,0,,0,,,60,127
98617,note_on,0,0,0,,3,,,63,127
98696,note_off,79,0,0,,3,,,63,127
98696,note_off,0,0,0,,0,,,60,127
98696,note_on,0,0,0,,11,,,58,127
98696,note_on,0,0,0,,1,,,61,127
98774,note_off,78,0,0,,5,,,53,127
98776,note_off,2,0,0,,1,,,61,127
98776,note_off,0,0,0,,11,,,58,127
98776,note_on,0,0,0,,0,,,60,127
98776,note_on,0,0,0,,3,,,63,127
98855,note_off,79,0,0,,3,,,63,127
98855,note_off,0,0,0,,0,,,60,127
98855,note_on,0,0,0,,11,,,58,127
98855,note_on,0,0,0,,1,,,61,127
98934,note_off,79,0,0,,1,,,61,127
98934,note_off,0,0,0,,11,,,58,127
98934,note_on,0,0,0,,5,,,53,127
98934,note_on,0,0,0,,10,,,57,127
98934,note_on,0,0,0,,0,,,60,127
99252,note_off,318,0,0,,0,,,60,127
99252,note_off,0,0,0,,10,,,57,127
99252,note_off,0,0,0,,5,,,53,127
99252,note_on,0,0,0,,5,,,53,127
99252,note_on,0,0,0,,11,,,58,127
99252,note_on,0,0,0,,3,,,63,127
99252,note_on,0,0,0,,1,,,61,127
99358,note_off,106,0,0,,1,,,61,127
99358,note_off,0,0,0,,3,,,63,127
99358,note_on,0,0,0,,0,,,60,127
99464,note_off,106,0,0,,0,,,60,127
99464,note_on,0,0,0,,1,,,61,127
99570,note_off,106,0,0,,1,,,61,127
99570,note_off,0,0,0,,11,,,58,127
99570,note_off,0,0,0,,5,,,53,127
99570,note_on,0,0,0,,11,,,58,127
99570,note_on,0,0,0,,5,,,53,127
99570,note_on,0,0,0,,1,,,61,127
99570,note_on,0,0,0,,3,,,63,127
99676,note_off,106,0,0,,3,,,63,127
99676,note_off,0,0,0,,1,,,61,127
99676,note_on,0,0,0,,0,,,60,127
99782,note_off,106,0,0,,0,,,60,127
99782,note_on,0,0,0,,1,,,61,127
99888,note_off,106,0,0,,1,,,61,127
99888,note_off,0,0,0,,5,,,53,127
99888,note_off,0,0,0,,11,,,58,127
99888,note_on,0,0,0,,5,,,53,127
99888,note_on,0,0,0,,11,,,58,127
99888,note_on,0,0,0,,3,,,63,127
99888,note_on,0,0,0,,1,,,61,127
99994,note_off,106,0,0,,1,,,61,127
99994,note_off,0,0,0,,3,,,63,127
99994,note_on,0,0,0,,0,,,60,127
100100,note_off,106,0,0,,0,,,60,127
100100,note_on,0,0,0,,1,,,61,127
100206,note_off,106,0,0,,1,,,61,127
100206,note_off,0,0,0,,11,,,58,127
100206,note_off,0,0,0,,5,,,53,127
100206,note_on,0,0,0,,11,,,58,127
100206,note_on,0,0,0,,5,,,53,127
100206,note_on,0,0,0,,3,,,63,127
100206,note_on,0,0,0,,1,,,61,127
100312,note_off,106,0,0,,1,,,61,127
100312,note_off,0,0,0,,3,,,63,127
100312,note_on,0,0,0,,0,,,60,127
100418,note_off,106,0,0,,0,,,60,127
100418,note_on,0,0,0,,1,,,61,127
100524,note_off,106,0,0,,1,,,61,127
100524,note_off,0,0,0,,5,,,53,127
100524,note_off,0,0,0,,11,,,58,127
100524,note_on,0,0,0,,5,,,41,127
100524,note_on,0,0,0,,5,,,53,127
100524,note_on,0,0,0,,11,,,82,127
100524,note_on,0,0,0,,1,,,73,127
100842,note_off,318,0,0,,1,,,73,127
100842,note_off,0,0,0,,11,,,82,127
100842,note_off,0,0,0,,5,,,53,127
100842,note_off,0,0,0,,5,,,41,127
100842,note_on,0,0,0,,11,,,58,127
100842,note_on,0,0,0,,3,,,63,127
101001,note_off,159,0,0,,3,,,63,127
101001,note_on,0,0,0,,1,,,61,127
101160,note_off,159,0,0,,1,,,61,127
101160,note_off,0,0,0,,11,,,58,127
101160,note_on,0,0,0,,8,,,56,127
101160,note_on,0,0,0,,3,,,63,127
101160,note_on,0,0,0,,1,,,61,127
101319,note_off,159,0,0,,1,,,61,127
101319,note_off,0,0,0,,3,,,63,127
101319,note_on,0,0,0,,0,,,60,127
101478,note_off,159,0,0,,0,,,60,127
101478,note_off,0,0,0,,8,,,56,127
101478,note_on,0,0,0,,6,,,54,127
101478,note_on,0,0,0,,0,,,60,127
101478,note_on,0,0,0,,1,,,61,127
101637,note_off,159,0,0,,1,,,61,127
101637,note_off,0,0,0,,0,,,60,127
101637,note_on,0,0,0,,11,,,58,127
101796,note_off,159,0,0,,11,,,58,127
101796,note_off,0,0,0,,6,,,54,127
101796,note_on,0,0,0,,5,,,53,127
101796,note_on,0,0,0,,0,,,60,127
101796,note_on,0,0,0,,11,,,58,127
101955,note_off,159,0,0,,11,,,58,127
101955,note_off,0,0,0,,0,,,60,127
101955,note_on,0,0,0,,10,,,57,127
102114,note_off,159,0,0,,10,,,57,127
102114,note_off,0,0,0,,5,,,53,127
102114,note_on,0,0,0,,3,,,51,127
102114,note_on,0,0,0,,6,,,66,127
102273,note_off,159,0,0,,6,,,66,127
102273,note_on,0,0,0,,4,,,64,127
102432,note_off,159,0,0,,4,,,64,127
102432,note_off,0,0,0,,3,,,51,127
102432,note_on,0,0,0,,5,,,53,127
102432,note_on,0,0,0,,1,,,49,127
102432,note_on,0,0,0,,4,,,64,127
102591,note_off,159,0,0,,4,,,64,127
102591,note_on,0,0,0,,5,,,65,127
102750,note_off,159,0,0,,5,,,65,127
102750,note_off,0,0,0,,1,,,49,127
102750,note_off,0,0,0,,5,,,53,127
102750,note_on,0,0,0,,0,,,48,127
102750,note_on,0,0,0,,3,,,51,127
102750,note_on,0,0,0,,0,,,72,127
102909,note_off,159,0,0,,0,,,72,127
102909,note_on,0,0,0,,10,,,69,127
103068,note_off,159,0,0,,10,,,69,127
103068,note_off,0,0,0,,3,,,51,127
103068,note_off,0,0,0,,0,,,48,127
103068,note_on,0,0,0,,1,,,49,127
103068,note_on,0,0,0,,5,,,53,127
103068,note_on,0,0,0,,10,,,69,127
103227,note_off,159,0,0,,10,,,69,127
103227,note_on,0,0,0,,11,,,70,127
103386,note_off,159,0,0,,11,,,70,127
103386,note_off,0,0,0,,5,,,53,127
103386,note_off,0,0,0,,1,,,49,127
103386,note_on,0,0,0,,0,,,48,127
103386,note_on,0,0,0,,3,,,51,127
103386,note_on,0,0,0,,0,,,84,127
103545,note_off,159,0,0,,0,,,84,127
103545,note_on,0,0,0,,10,,,81,127
103704,note_off,159,0,0,,10,,,81,127
103704,note_off,0,0,0,,3,,,51,127
103704,note_off,0,0,0,,0,,,48,127
103704,note_on,0,0,0,,1,,,49,127
103704,note_on,0,0,0,,5,,,53,127
103704,note_on,0,0,0,,10,,,81,127
103863,note_off,159,0,0,,10,,,81,127
103863,note_on,0,0,0,,11,,,82,127
104022,note_off,159,0,0,,11,,,82,127
104022,note_off,0,0,0,,5,,,53,127
104022,note_off,0,0,0,,1,,,49,127
104022,note_on,0,0,0,,5,,,53,127
104022,note_on,0,0,0,,2,,,50,127
104022,note_on,0,0,0,,8,,,80,127
104181,note_off,159,0,0,,8,,,80,127
104181,note_on,0,0,0,,6,,,78,127
104340,note_off,159,0,0,,6,,,78,127
104340,note_off,0,0,0,,2,,,50,127
104340,note_off,0,0,0,,5,,,53,127
104340,note_on,0,0,0,,3,,,51,127
104340,note_on,0,0,0,,6,,,54,127
104340,note_on,0,0,0,,5,,,77,127
104499,note_off,159,0,0,,5,,,77,127
104499,note_on,0,0,0,,6,,,78,127
104658,note_off,159,0,0,,6,,,78,127
104658,note_off,0,0,0,,6,,,54,127
104658,note_off,0,0,0,,3,,,51,127
104658,note_on,0,0,0,,8,,,56,127
104658,note_on,0,0,0,,5,,,53,127
104658,note_on,0,0,0,,3,,,75,127
104817,note_off,159,0,0,,3,,,75,127
104817,note_on,0,0,0,,2,,,74,127
104976,note_off,159,0,0,,5,,,53,127
104976,note_off,0,0,0,,8,,,56,127
104976,note_on,0,0,0,,6,,,54,127
104976,note_on,0,0,0,,11,,,58,127
105135,note_off,159,0,0,,2,,,74,127
105135,note_on,0,0,0,,3,,,75,127
105294,note_off,159,0,0,,3,,,75,127
105294,note_off,0,0,0,,6,,,54,127
105294,note_on,0,0,0,,3,,,51,127
105294,note_on,0,0,0,,5,,,77,127
105453,note_off,159,0,0,,5,,,77,127
105453,note_on,0,0,0,,6,,,78,127
105611,note_off,158,0,0,,11,,,58,127
105612,note_off,1,0,0,,6,,,78,127
105612,note_off,0,0,0,,3,,,51,127
105612,note_on,0,0,0,,5,,,53,127
105612,note_on,0,0,0,,5,,,77,127
105771,note_off,159,0,0,,5,,,77,127
105771,note_on,0,0,0,,1,,,73,127
105930,note_off,159,0,0,,1,,,73,127
105930,note_on,0,0,0,,11,,,58,127
105930,note_on,0,0,0,,0,,,72,127
106089,note_off,159,0,0,,0,,,72,127
106089,note_on,0,0,0,,11,,,70,127
106247,note_off,158,0,0,,5,,,53,127
106248,note_off,1,0,0,,11,,,70,127
106248,note_off,0,0,0,,11,,,58,127
106248,note_on,0,0,0,,5,,,53,127
106248,note_on,0,0,0,,0,,,60,127
106248,note_on,0,0,0,,3,,,75,127
106407,note_off,159,0,0,,3,,,75,127
106407,note_on,0,0,0,,0,,,72,127
106566,note_off,159,0,0,,0,,,72,127
106566,note_off,0,0,0,,0,,,60,127
106566,note_on,0,0,0,,3,,,63,127
106566,note_on,0,0,0,,11,,,70,127
106725,note_off,159,0,0,,11,,,70,127
106725,note_on,0,0,0,,10,,,69,127
106883,note_off,158,0,0,,5,,,53,127
106884,note_off,1,0,0,,10,,,69,127
106884,note_off,0,0,0,,3,,,63,127
106884,note_on,0,0,0,,11,,,46,127
106884,note_on,0,0,0,,11,,,58,127
106884,note_on,0,0,0,,5,,,77,127
106990,note_off,106,0,0,,5,,,77,127
106990,note_on,0,0,0,,1,,,73,127
107096,note_off,106,0,0,,1,,,73,127
107096,note_on,0,0,0,,11,,,70,127
107202,note_off,106,0,0,,11,,,70,127
107202,note_on,0,0,0,,5,,,65,127
107308,note_off,106,0,0,,5,,,65,127
107308,note_on,0,0,0,,1,,,61,127
107413,note_off,105,0,0,,11,,,58,127
107414,note_off,1,0,0,,1,,,61,127
107414,note_on,0,0,0,,11,,,58,127
107520,note_off,106,0,0,,11,,,58,127
107520,note_on,0,0,0,,11,,,70,127
107520,note_on,0,0,0,,1,,,73,127
107838,note_off,318,0,0,,1,,,73,127
107838,note_off,0,0,0,,11,,,70,127
107838,note_off,0,0,0,,11,,,46,127
107838,note_on,0,0,0,,5,,,41,127
107838,note_on,0,0,0,,5,,,53,127
107838,note_on,0,0,0,,0,,,72,127
107838,note_on,0,0,0,,10,,,69,127
107944,note_off,106,0,0,,0,,,72,127
107944,note_on,0,0,0,,1,,,73,127
108050,note_off,106,0,0,,1,,,73,127
108050,note_on,0,0,0,,3,,,75,127
108155,note_off,105,0,0,,10,,,69,127
108156,note_off,1,0,0,,3,,,75,127
108156,note_off,0,0,0,,5,,,53,127
108156,note_off,0,0,0,,5,,,41,127
108156,note_on,0,0,0,,11,,,46,127
108156,note_on,0,0,0,,11,,,58,127
108156,note_on,0,0,0,,5,,,77,127
108262,note_off,106,0,0,,5,,,77,127
108262,note_on,0,0,0,,1,,,73,127
108368,note_off,106,0,0,,1,,,73,127
108368,note_on,0,0,0,,11,,,70,127
108474,note_off,106,0,0,,11,,,70,127
108474,note_on,0,0,0,,5,,,65,127
108580,note_off,106,0,0,,5,,,65,127
108580,note_on,0,0,0,,1,,,61,127
108685,note_off,105,0,0,,11,,,58,127
108686,note_off,1,0,0,,1,,,61,127
108686,note_on,0,0,0,,11,,,58,127
108792,note_off,106,0,0,,11,,,58,127
108792,note_on,0,0,0,,11,,,70,127
108792,note_on,0,0,0,,1,,,73,127
109110,note_off,318,0,0,,1,,,73,127
109110,note_off,0,0,0,,11,,,70,127
109110,note_off,0,0,0,,11,,,46,127
109110,note_on,0,0,0,,5,,,41,127
109110,note_on,0,0,0,,5,,,53,127
109110,note_on,0,0,0,,0,,,72,127
109110,note_on,0,0,0,,10,,,69,127
109216,note_off,106,0,0,,0,,,72,127
109216,note_on,0,0,0,,1,,,73,127
109322,note_off,106,0,0,,1,,,73,127
109322,note_on,0,0,0,,3,,,75,127
109427,note_off,105,0,0,,10,,,69,127
109428,note_off,1,0,0,,3,,,75,127
109428,note_off,0,0,0,,5,,,53,127
109428,note_off,0,0,0,,5,,,41,127
109428,note_on,0,0,0,,11,,,46,127
109428,note_on,0,0,0,,11,,,58,127
109428,note_on,0,0,0,,1,,,73,127
109428,note_on,0,0,0,,11,,,70,127
109534,note_off,106,0,0,,11,,,70,127
109534,note_off,0,0,0,,1,,,73,127
109534,note_on,0,0,0,,0,,,72,127
109640,note_off,106,0,0,,0,,,72,127
109640,note_on,0,0,0,,11,,,70,127
109746,note_off,106,0,0,,11,,,70,127
109746,note_off,0,0,0,,11,,,58,127
109746,note_off,0,0,0,,11,,,46,127
109746,note_on,0,0,0,,11,,,82,127
109746,note_on,0,0,0,,1,,,73,127
109746,note_on,0,0,0,,11,,,70,127
109852,note_off,106,0,0,,11,,,82,127
109852,note_on,0,0,0,,10,,,81,127
109958,note_off,106,0,0,,10,,,81,127
109958,note_on,0,0,0,,11,,,82,127
110064,note_off,106,0,0,,11,,,82,127
110064,note_on,0,0,0,,5,,,41,127
110382,note_off,318,0,0,,11,,,70,127
110382,note_off,0,0,0,,1,,,73,127
110382,note_on,0,0,0,,10,,,69,127
110382,note_on,0,0,0,,0,,,72,127
110488,note_off,106,0,0,,0,,,72,127
110488,note_on,0,0,0,,1,,,73,127
110594,note_off,106,0,0,,1,,,73,127
110594,note_on,0,0,0,,3,,,75,127
110699,note_off,105,0,0,,10,,,69,127
110700,note_off,1,0,0,,3,,,75,127
110700,note_off,0,0,0,,5,,,41,127
110700,note_on,0,0,0,,11,,,46,127
110700,note_on,0,0,0,,1,,,73,127
110700,note_on,0,0,0,,11,,,70,127
110806,note_off,106,0,0,,11,,,70,127
110806,note_off,0,0,0,,1,,,73,127
110806,note_on,0,0,0,,0,,,72,127
110912,note_off,106,0,0,,0,,,72,127
110912,note_on,0,0,0,,11,,,70,127
111018,note_off,106,0,0,,11,,,70,127
111018,note_off,0,0,0,,11,,,46,127
111018,note_on,0,0,0,,11,,,82,127
111018,note_on,0,0,0,,1,,,73,127
111018,note_on,0,0,0,,11,,,70,127
111124,note_off,106,0,0,,11,,,82,127
111124,note_on,0,0,0,,10,,,81,127
111230,note_off,106,0,0,,10,,,81,127
111230,note_on,0,0,0,,11,,,82,127
111336,note_off,106,0,0,,11,,,82,127
111336,note_on,0,0,0,,5,,,41,127
111654,note_off,318,0,0,,11,,,70,127
111654,note_off,0,0,0,,1,,,73,127
111654,note_on,0,0,0,,0,,,72,127
111654,note_on,0,0,0,,10,,,69,127
111760,note_off,106,0,0,,0,,,72,127
111760,note_on,0,0,0,,1,,,73,127
111866,note_off,106,0,0,,1,,,73,127
111866,note_on,0,0,0,,3,,,75,127
111971,note_off,105,0,0,,10,,,69,127
111972,note_off,1,0,0,,3,,,75,127
111972,note_off,0,0,0,,5,,,41,127
111972,note_on,0,0,0,,11,,,46,127
111972,note_on,0,0,0,,3,,,75,127
111972,note_on,0,0,0,,1,,,73,127
112078,note_off,106,0,0,,1,,,73,127
112078,note_off,0,0,0,,3,,,75,127
112078,note_on,0,0,0,,0,,,72,127
112184,note_off,106,0,0,,0,,,72,127
112184,note_on,0,0,0,,1,,,73,127
112290,note_off,106,0,0,,1,,,73,127
112290,note_off,0,0,0,,11,,,46,127
112290,note_on,0,0,0,,3,,,51,127
112290,note_on,0,0,0,,3,,,75,127
112396,note_off,106,0,0,,3,,,75,127
112396,note_on,0,0,0,,1,,,73,127
112502,note_off,106,0,0,,1,,,73,127
112502,note_on,0,0,0,,0,,,72,127
112608,note_off,106,0,0,,0,,,72,127
112608,note_off,0,0,0,,3,,,51,127
112608,note_on,0,0,0,,5,,,53,127
112608,note_on,0,0,0,,11,,,70,127
112926,note_off,318,0,0,,11,,,70,127
112926,note_on,0,0,0,,5,,,41,127
112926,note_on,0,0,0,,11,,,70,127
113005,note_off,79,0,0,,11,,,70,127
113005,note_on,0,0,0,,10,,,69,127
113084,note_off,79,0,0,,10,,,69,127
113084,note_on,0,0,0,,7,,,67,127
113163,note_off,79,0,0,,7,,,67,127
113163,note_on,0,0,0,,10,,,69,127
113242,note_off,79,0,0,,5,,,53,127
113243,note_off,1,0,0,,10,,,69,127
113243,note_off,0,0,0,,5,,,41,127
113243,note_on,0,0,0,,6,,,54,127
113243,note_on,0,0,0,,11,,,70,127
113349,note_off,106,0,0,,11,,,70,127
113349,note_on,0,0,0,,3,,,63,127
113455,note_off,106,0,0,,3,,,63,127
113455,note_on,0,0,0,,5,,,65,127
113561,note_off,106,0,0,,5,,,65,127
113561,note_off,0,0,0,,6,,,54,127
113561,note_on,0,0,0,,3,,,51,127
113561,note_on,0,0,0,,6,,,66,127
113667,note_off,106,0,0,,6,,,66,127
113667,note_on,0,0,0,,5,,,65,127
113773,note_off,106,0,0,,5,,,65,127
113773,note_on,0,0,0,,3,,,63,127
113879,note_off,106,0,0,,3,,,63,127
113879,note_off,0,0,0,,3,,,51,127
113879,note_on,0,0,0,,5,,,53,127
113879,note_on,0,0,0,,3,,,63,127
113879,note_on,0,0,0,,1,,,61,127
113985,note_off,106,0,0,,1,,,61,127
113985,note_off,0,0,0,,3,,,63,127
113985,note_on,0,0,0,,0,,,60,127
114091,note_off,106,0,0,,0,,,60,127
114091,note_on,0,0,0,,1,,,61,127
114197,note_off,106,0,0,,1,,,61,127
114197,note_on,0,0,0,,5,,,41,127
114197,note_on,0,0,0,,3,,,63,127
114303,note_off,106,0,0,,3,,,63,127
114303,note_on,0,0,0,,1,,,61,127
114409,note_off,106,0,0,,1,,,61,127
114409,note_on,0,0,0,,0,,,60,127
114514,note_off,105,0,0,,5,,,53,127
114515,note_off,1,0,0,,0,,,60,127
114515,note_off,0,0,0,,5,,,41,127
114527,note_on,12,0,0,,0,,,60,127
114527,note_on,0,0,0,,11,,,46,127
115072,note_off,545,0,0,,0,,,60,127
115072,note_on,0,0,0,,11,,,58,127
116820,note_off,1748,0,0,,11,,,58,127
116820,note_off,0,0,0,,11,,,46,127
121344,end_of_track,4524,1,0,,,,,,
