tick,type,time,meta,track,program,channel,pitch,tempo,note,velocity
0,copyright,0,1,0,,,,,,
0,program_change,0,0,0,6,0,,,,
0,pitchwheel,0,0,0,,0,0,,,
0,program_change,0,0,0,6,1,,,,
0,pitchwheel,0,0,0,,1,-590,,,
0,program_change,0,0,0,6,2,,,,
0,pitchwheel,0,0,0,,2,-272,,,
0,program_change,0,0,0,6,3,,,,
0,pitchwheel,0,0,0,,3,-353,,,
0,program_change,0,0,0,6,4,,,,
0,pitchwheel,0,0,0,,4,-560,,,
0,program_change,0,0,0,6,5,,,,
0,pitchwheel,0,0,0,,5,-80,,,
0,program_change,0,0,0,6,6,,,,
0,pitchwheel,0,0,0,,6,-625,,,
0,program_change,0,0,0,6,7,,,,
0,pitchwheel,0,0,0,,7,-130,,,
0,program_change,0,0,0,6,8,,,,
0,pitchwheel,0,0,0,,8,-512,,,
0,program_change,0,0,0,6,10,,,,
0,pitchwheel,0,0,0,,10,-464,,,
0,program_change,0,0,0,6,11,,,,
0,pitchwheel,0,0,0,,11,-208,,,
0,program_change,0,0,0,6,12,,,,
0,pitchwheel,0,0,0,,12,-553,,,
0,set_tempo,0,1,0,,,,500000,,
82,note_on,82,0,0,,0,,,60,127
246,note_off,164,0,0,,0,,,60,127
247,note_on,1,0,0,,3,,,63,127
411,note_off,164,0,0,,3,,,63,127
412,note_on,1,0,0,,7,,,67,127
576,note_off,164,0,0,,7,,,67,127
577,note_on,1,0,0,,0,,,72,127
741,note_off,164,0,0,,0,,,72,127
742,note_on,1,0,0,,3,,,75,127
906,note_off,164,0,0,,3,,,75,127
907,note_on,1,0,0,,7,,,79,127
1071,note_off,164,0,0,,7,,,79,127
1072,note_on,1,0,0,,0,,,48,127
1072,note_on,0,0,0,,0,,,72,127
1236,note_off,164,0,0,,0,,,48,127
1237,note_on,1,0,0,,3,,,51,127
1401,note_off,164,0,0,,3,,,51,127
1402,note_on,1,0,0,,7,,,55,127
1566,note_off,164,0,0,,7,,,55,127
1567,note_on,1,0,0,,0,,,60,127
1731,note_off,164,0,0,,0,,,60,127
1731,note_off,0,0,0,,0,,,72,127
1732,note_on,1,0,0,,3,,,63,127
1732,note_on,0,0,0,,7,,,79,127
1896,note_off,164,0,0,,7,,,79,127
1896,note_off,0,0,0,,3,,,63,127
1897,note_on,1,0,0,,7,,,67,127
1897,note_on,0,0,0,,12,,,71,127
2061,note_off,164,0,0,,12,,,71,127
2061,note_off,0,0,0,,7,,,67,127
2062,note_on,1,0,0,,3,,,63,127
2062,note_on,0,0,0,,0,,,72,127
2227,note_on,165,0,0,,7,,,67,127
2251,note_off,24,0,0,,0,,,72,127
2391,note_off,140,0,0,,7,,,67,127
2391,note_off,0,0,0,,3,,,63,127
2392,note_on,1,0,0,,0,,,60,127
2392,note_on,0,0,0,,7,,,79,127
2556,note_off,164,0,0,,7,,,79,127
2556,note_off,0,0,0,,0,,,60,127
2557,note_on,1,0,0,,5,,,53,127
2557,note_on,0,0,0,,8,,,80,127
2722,note_on,165,0,0,,0,,,72,127
2746,note_off,24,0,0,,8,,,80,127
2886,note_off,140,0,0,,0,,,72,127
2886,note_off,0,0,0,,5,,,53,127
2887,note_on,1,0,0,,2,,,62,127
2887,note_on,0,0,0,,12,,,83,127
3051,note_off,164,0,0,,12,,,83,127
3051,note_off,0,0,0,,2,,,62,127
3052,note_on,1,0,0,,3,,,51,127
3052,note_on,0,0,0,,0,,,84,127
3217,note_on,165,0,0,,0,,,72,127
3241,note_off,24,0,0,,0,,,84,127
3381,note_off,140,0,0,,0,,,72,127
3381,note_off,0,0,0,,3,,,51,127
3382,note_on,1,0,0,,0,,,60,127
3382,note_on,0,0,0,,7,,,79,127
3546,note_off,164,0,0,,7,,,79,127
3546,note_off,0,0,0,,0,,,60,127
3547,note_on,1,0,0,,5,,,53,127
3547,note_on,0,0,0,,8,,,80,127
3712,note_on,165,0,0,,0,,,72,127
3736,note_off,24,0,0,,8,,,80,127
3876,note_off,140,0,0,,0,,,72,127
3876,note_off,0,0,0,,5,,,53,127
3877,note_on,1,0,0,,2,,,62,127
3877,note_on,0,0,0,,12,,,83,127
4041,note_off,164,0,0,,12,,,83,127
4041,note_off,0,0,0,,2,,,62,127
4042,note_on,1,0,0,,3,,,51,127
4042,note_on,0,0,0,,0,,,84,127
4206,note_off,164,0,0,,0,,,84,127
4206,note_off,0,0,0,,3,,,51,127
4207,note_on,1,0,0,,0,,,48,127
4207,note_on,0,0,0,,0,,,72,127
4371,note_off,164,0,0,,0,,,48,127
4372,note_on,1,0,0,,7,,,55,127
4536,note_off,164,0,0,,7,,,55,127
4537,note_on,1,0,0,,8,,,56,127
4619,note_off,82,0,0,,0,,,72,127
4700,note_off,81,0,0,,8,,,56,127
4701,note_on,1,0,0,,5,,,53,127
4865,note_off,164,0,0,,5,,,53,127
4866,note_on,1,0,0,,12,,,59,127
4866,note_on,0,0,0,,2,,,74,127
4920,note_off,54,0,0,,2,,,74,127
4921,note_on,1,0,0,,3,,,75,127
4975,note_off,54,0,0,,3,,,75,127
4976,note_on,1,0,0,,5,,,77,127
5030,note_off,54,0,0,,5,,,77,127
5030,note_off,0,0,0,,12,,,59,127
5031,note_on,1,0,0,,0,,,60,127
5031,note_on,0,0,0,,3,,,75,127
5085,note_off,54,0,0,,3,,,75,127
5086,note_on,1,0,0,,5,,,77,127
5140,note_off,54,0,0,,5,,,77,127
5141,note_on,1,0,0,,3,,,75,127
5195,note_off,54,0,0,,3,,,75,127
5195,note_off,0,0,0,,0,,,60,127
5196,note_on,1,0,0,,0,,,48,127
5196,note_on,0,0,0,,2,,,74,127
5360,note_off,164,0,0,,2,,,74,127
5360,note_off,0,0,0,,0,,,48,127
5361,note_on,1,0,0,,7,,,55,127
5361,note_on,0,0,0,,0,,,72,127
5525,note_off,164,0,0,,7,,,55,127
5526,note_on,1,0,0,,8,,,56,127
5690,note_off,164,0,0,,8,,,56,127
5690,note_off,0,0,0,,0,,,72,127
5691,note_on,1,0,0,,5,,,53,127
5855,note_off,164,0,0,,5,,,53,127
5856,note_on,1,0,0,,12,,,59,127
5856,note_on,0,0,0,,2,,,74,127
5910,note_off,54,0,0,,2,,,74,127
5911,note_on,1,0,0,,3,,,75,127
5965,note_off,54,0,0,,3,,,75,127
5966,note_on,1,0,0,,5,,,77,127
6020,note_off,54,0,0,,5,,,77,127
6020,note_off,0,0,0,,12,,,59,127
6021,note_on,1,0,0,,0,,,60,127
6021,note_on,0,0,0,,3,,,75,127
6075,note_off,54,0,0,,3,,,75,127
6076,note_on,1,0,0,,5,,,77,127
6130,note_off,54,0,0,,5,,,77,127
6131,note_on,1,0,0,,3,,,75,127
6185,note_off,54,0,0,,3,,,75,127
6185,note_off,0,0,0,,0,,,60,127
6186,note_on,1,0,0,,0,,,48,127
6186,note_on,0,0,0,,2,,,74,127
6350,note_off,164,0,0,,2,,,74,127
6350,note_off,0,0,0,,0,,,48,127
6351,note_on,1,0,0,,7,,,55,127
6351,note_on,0,0,0,,0,,,72,127
6515,note_off,164,0,0,,7,,,55,127
6516,note_on,1,0,0,,8,,,56,127
6680,note_off,164,0,0,,8,,,56,127
6680,note_off,0,0,0,,0,,,72,127
6681,note_on,1,0,0,,5,,,53,127
6845,note_off,164,0,0,,5,,,53,127
6846,note_on,1,0,0,,12,,,59,127
6846,note_on,0,0,0,,2,,,74,127
6900,note_off,54,0,0,,2,,,74,127
6901,note_on,1,0,0,,3,,,75,127
6955,note_off,54,0,0,,3,,,75,127
6956,note_on,1,0,0,,5,,,77,127
7010,note_off,54,0,0,,5,,,77,127
7010,note_off,0,0,0,,12,,,59,127
7011,note_on,1,0,0,,0,,,60,127
7011,note_on,0,0,0,,3,,,75,127
7065,note_off,54,0,0,,3,,,75,127
7066,note_on,1,0,0,,5,,,77,127
7120,note_off,54,0,0,,5,,,77,127
7121,note_on,1,0,0,,3,,,75,127
7175,note_off,54,0,0,,3,,,75,127
7175,note_off,0,0,0,,0,,,60,127
7176,note_on,1,0,0,,2,,,62,127
7176,note_on,0,0,0,,2,,,74,127
7340,note_off,164,0,0,,2,,,74,127
7340,note_off,0,0,0,,2,,,62,127
7341,note_on,1,0,0,,3,,,63,127
7341,note_on,0,0,0,,0,,,72,127
7505,note_off,164,0,0,,3,,,63,127
7506,note_on,1,0,0,,5,,,65,127
7670,note_off,164,0,0,,5,,,65,127
7670,note_off,0,0,0,,0,,,72,127
7671,note_on,1,0,0,,2,,,62,127
7671,note_on,0,0,0,,2,,,74,127
7835,note_off,164,0,0,,2,,,74,127
7835,note_off,0,0,0,,2,,,62,127
7836,note_on,1,0,0,,7,,,67,127
7836,note_on,0,0,0,,12,,,71,127
8000,note_off,164,0,0,,12,,,71,127
8000,note_off,0,0,0,,7,,,67,127
8001,note_on,1,0,0,,3,,,63,127
8001,note_on,0,0,0,,12,,,71,127
8165,note_off,164,0,0,,3,,,63,127
8166,note_on,1,0,0,,0,,,60,127
8330,note_off,164,0,0,,0,,,60,127
8330,note_off,0,0,0,,12,,,71,127
8331,note_on,1,0,0,,3,,,63,127
8331,note_on,0,0,0,,0,,,72,127
8495,note_off,164,0,0,,3,,,63,127
8496,note_on,1,0,0,,5,,,65,127
8614,note_off,118,0,0,,0,,,72,127
8659,note_off,45,0,0,,5,,,65,127
8660,note_on,1,0,0,,2,,,62,127
8660,note_on,0,0,0,,2,,,74,127
8824,note_off,164,0,0,,2,,,74,127
8824,note_off,0,0,0,,2,,,62,127
8825,note_on,1,0,0,,7,,,67,127
8825,note_on,0,0,0,,12,,,71,127
8989,note_off,164,0,0,,12,,,71,127
8989,note_off,0,0,0,,7,,,67,127
8990,note_on,1,0,0,,3,,,63,127
8990,note_on,0,0,0,,12,,,71,127
9154,note_off,164,0,0,,3,,,63,127
9155,note_on,1,0,0,,0,,,60,127
9319,note_off,164,0,0,,0,,,60,127
9319,note_off,0,0,0,,12,,,71,127
9320,note_on,1,0,0,,3,,,63,127
9320,note_on,0,0,0,,0,,,72,127
9484,note_off,164,0,0,,3,,,63,127
9485,note_on,1,0,0,,5,,,65,127
9603,note_off,118,0,0,,0,,,72,127
9648,note_off,45,0,0,,5,,,65,127
9649,note_on,1,0,0,,2,,,62,127
9649,note_on,0,0,0,,2,,,74,127
9813,note_off,164,0,0,,2,,,74,127
9813,note_off,0,0,0,,2,,,62,127
9814,note_on,1,0,0,,7,,,67,127
9814,note_on,0,0,0,,12,,,71,127
9978,note_off,164,0,0,,12,,,71,127
9978,note_off,0,0,0,,7,,,67,127
9979,note_on,1,0,0,,3,,,63,127
9979,note_on,0,0,0,,0,,,72,127
10143,note_off,164,0,0,,0,,,72,127
10144,note_on,1,0,0,,2,,,74,127
10308,note_off,164,0,0,,2,,,74,127
10309,note_on,1,0,0,,0,,,60,127
10309,note_on,0,0,0,,3,,,75,127
10473,note_off,164,0,0,,3,,,75,127
10473,note_off,0,0,0,,3,,,63,127
10474,note_on,1,0,0,,5,,,65,127
10474,note_on,0,0,0,,2,,,62,127
10474,note_on,0,0,0,,7,,,67,127
10474,note_on,0,0,0,,5,,,77,127
10638,note_off,164,0,0,,5,,,77,127
10639,note_on,1,0,0,,2,,,74,127
10803,note_off,164,0,0,,2,,,74,127
10803,note_off,0,0,0,,0,,,60,127
10804,note_on,1,0,0,,12,,,59,127
10804,note_on,0,0,0,,7,,,79,127
10968,note_off,164,0,0,,7,,,79,127
10968,note_off,0,0,0,,12,,,59,127
10968,note_off,0,0,0,,7,,,67,127
10968,note_off,0,0,0,,2,,,62,127
10968,note_off,0,0,0,,5,,,65,127
10969,note_on,1,0,0,,0,,,60,127
10969,note_on,0,0,0,,7,,,67,127
10969,note_on,0,0,0,,3,,,75,127
11133,note_off,164,0,0,,3,,,75,127
11134,note_on,1,0,0,,2,,,74,127
11298,note_off,164,0,0,,2,,,74,127
11298,note_off,0,0,0,,0,,,60,127
11299,note_on,1,0,0,,0,,,60,127
11299,note_on,0,0,0,,3,,,75,127
11463,note_off,164,0,0,,3,,,75,127
11463,note_off,0,0,0,,7,,,67,127
11464,note_on,1,0,0,,2,,,62,127
11464,note_on,0,0,0,,7,,,67,127
11464,note_on,0,0,0,,5,,,65,127
11464,note_on,0,0,0,,5,,,77,127
11628,note_off,164,0,0,,5,,,77,127
11629,note_on,1,0,0,,2,,,74,127
11793,note_off,164,0,0,,2,,,74,127
11793,note_off,0,0,0,,0,,,60,127
11794,note_on,1,0,0,,12,,,59,127
11794,note_on,0,0,0,,7,,,79,127
11958,note_off,164,0,0,,7,,,79,127
11958,note_off,0,0,0,,12,,,59,127
11958,note_off,0,0,0,,5,,,65,127
11958,note_off,0,0,0,,7,,,67,127
11958,note_off,0,0,0,,2,,,62,127
11959,note_on,1,0,0,,0,,,60,127
11959,note_on,0,0,0,,3,,,63,127
11959,note_on,0,0,0,,5,,,77,127
12013,note_off,54,0,0,,5,,,77,127
12014,note_on,1,0,0,,3,,,75,127
12068,note_off,54,0,0,,3,,,75,127
12069,note_on,1,0,0,,5,,,77,127
12123,note_off,54,0,0,,5,,,77,127
12124,note_on,1,0,0,,3,,,75,127
12178,note_off,54,0,0,,3,,,75,127
12179,note_on,1,0,0,,2,,,74,127
12233,note_off,54,0,0,,2,,,74,127
12234,note_on,1,0,0,,3,,,75,127
12288,note_off,54,0,0,,3,,,75,127
12288,note_off,0,0,0,,0,,,60,127
12289,note_on,1,0,0,,8,,,56,127
12289,note_on,0,0,0,,0,,,84,127
12453,note_off,164,0,0,,0,,,84,127
12453,note_off,0,0,0,,8,,,56,127
12453,note_off,0,0,0,,3,,,63,127
12454,note_on,1,0,0,,2,,,62,127
12454,note_on,0,0,0,,11,,,58,127
12454,note_on,0,0,0,,3,,,75,127
12508,note_off,54,0,0,,3,,,75,127
12509,note_on,1,0,0,,2,,,74,127
12563,note_off,54,0,0,,2,,,74,127
12564,note_on,1,0,0,,3,,,75,127
12618,note_off,54,0,0,,3,,,75,127
12619,note_on,1,0,0,,2,,,74,127
12673,note_off,54,0,0,,2,,,74,127
12674,note_on,1,0,0,,0,,,72,127
12728,note_off,54,0,0,,0,,,72,127
12729,note_on,1,0,0,,2,,,74,127
12783,note_off,54,0,0,,2,,,74,127
12783,note_off,0,0,0,,11,,,58,127
12784,note_on,1,0,0,,7,,,55,127
12784,note_on,0,0,0,,11,,,82,127
12948,note_off,164,0,0,,11,,,82,127
12948,note_off,0,0,0,,7,,,55,127
12948,note_off,0,0,0,,2,,,62,127
12949,note_on,1,0,0,,8,,,56,127
12949,note_on,0,0,0,,0,,,60,127
12949,note_on,0,0,0,,2,,,74,127
13003,note_off,54,0,0,,2,,,74,127
13004,note_on,1,0,0,,0,,,72,127
13058,note_off,54,0,0,,0,,,72,127
13059,note_on,1,0,0,,2,,,74,127
13113,note_off,54,0,0,,2,,,74,127
13114,note_on,1,0,0,,0,,,72,127
13168,note_off,54,0,0,,0,,,72,127
13169,note_on,1,0,0,,12,,,71,127
13223,note_off,54,0,0,,12,,,71,127
13224,note_on,1,0,0,,0,,,72,127
13278,note_off,54,0,0,,0,,,72,127
13278,note_off,0,0,0,,8,,,56,127
13279,note_on,1,0,0,,5,,,53,127
13279,note_on,0,0,0,,8,,,80,127
13443,note_off,164,0,0,,8,,,80,127
13443,note_off,0,0,0,,5,,,53,127
13443,note_off,0,0,0,,0,,,60,127
13444,note_on,1,0,0,,7,,,55,127
13444,note_on,0,0,0,,11,,,58,127
13444,note_on,0,0,0,,0,,,72,127
13498,note_off,54,0,0,,0,,,72,127
13499,note_on,1,0,0,,11,,,70,127
13553,note_off,54,0,0,,11,,,70,127
13554,note_on,1,0,0,,0,,,72,127
13608,note_off,54,0,0,,0,,,72,127
13609,note_on,1,0,0,,11,,,70,127
13663,note_off,54,0,0,,11,,,70,127
13664,note_on,1,0,0,,8,,,68,127
13718,note_off,54,0,0,,8,,,68,127
13719,note_on,1,0,0,,11,,,70,127
13773,note_off,54,0,0,,11,,,70,127
13773,note_off,0,0,0,,7,,,55,127
13774,note_on,1,0,0,,3,,,51,127
13774,note_on,0,0,0,,7,,,79,127
13938,note_off,164,0,0,,7,,,79,127
13938,note_off,0,0,0,,3,,,51,127
13938,note_off,0,0,0,,11,,,58,127
13939,note_on,1,0,0,,5,,,53,127
13939,note_on,0,0,0,,8,,,56,127
13939,note_on,0,0,0,,11,,,70,127
13993,note_off,54,0,0,,11,,,70,127
13994,note_on,1,0,0,,8,,,68,127
14048,note_off,54,0,0,,8,,,68,127
14049,note_on,1,0,0,,11,,,70,127
14103,note_off,54,0,0,,11,,,70,127
14104,note_on,1,0,0,,8,,,68,127
14158,note_off,54,0,0,,8,,,68,127
14159,note_on,1,0,0,,7,,,67,127
14213,note_off,54,0,0,,7,,,67,127
14214,note_on,1,0,0,,8,,,68,127
14268,note_off,54,0,0,,8,,,68,127
14268,note_off,0,0,0,,5,,,53,127
14269,note_on,1,0,0,,2,,,50,127
14269,note_on,0,0,0,,5,,,77,127
14433,note_off,164,0,0,,5,,,77,127
14433,note_off,0,0,0,,2,,,50,127
14433,note_off,0,0,0,,8,,,56,127
14434,note_on,1,0,0,,3,,,51,127
14434,note_on,0,0,0,,7,,,67,127
14598,note_off,164,0,0,,7,,,67,127
14598,note_off,0,0,0,,3,,,51,127
14599,note_on,1,0,0,,5,,,53,127
14599,note_on,0,0,0,,8,,,68,127
14763,note_off,164,0,0,,8,,,68,127
14763,note_off,0,0,0,,5,,,53,127
14764,note_on,1,0,0,,7,,,55,127
14764,note_on,0,0,0,,11,,,70,127
14928,note_off,164,0,0,,11,,,70,127
14928,note_off,0,0,0,,7,,,55,127
14929,note_on,1,0,0,,8,,,56,127
14929,note_on,0,0,0,,0,,,72,127
15094,note_on,165,0,0,,8,,,68,127
15118,note_off,24,0,0,,0,,,72,127
15258,note_off,140,0,0,,8,,,68,127
15258,note_off,0,0,0,,8,,,56,127
15259,note_on,1,0,0,,5,,,53,127
15259,note_on,0,0,0,,2,,,74,127
15423,note_off,164,0,0,,2,,,74,127
15423,note_off,0,0,0,,5,,,53,127
15424,note_on,1,0,0,,7,,,55,127
15424,note_on,0,0,0,,3,,,75,127
15589,note_on,165,0,0,,3,,,63,127
15613,note_off,24,0,0,,3,,,75,127
15753,note_off,140,0,0,,3,,,63,127
15753,note_off,0,0,0,,7,,,55,127
15754,note_on,1,0,0,,3,,,51,127
15754,note_on,0,0,0,,11,,,70,127
15918,note_off,164,0,0,,11,,,70,127
15918,note_off,0,0,0,,3,,,51,127
15919,note_on,1,0,0,,8,,,56,127
15919,note_on,0,0,0,,0,,,72,127
16084,note_on,165,0,0,,8,,,68,127
16166,note_off,82,0,0,,0,,,72,127
16247,note_off,81,0,0,,8,,,68,127
16247,note_off,0,0,0,,8,,,56,127
16248,note_on,1,0,0,,5,,,53,127
16248,note_on,0,0,0,,2,,,74,127
16412,note_off,164,0,0,,2,,,74,127
16412,note_off,0,0,0,,5,,,53,127
16413,note_on,1,0,0,,7,,,55,127
16413,note_on,0,0,0,,3,,,75,127
16577,note_off,164,0,0,,3,,,75,127
16577,note_off,0,0,0,,7,,,55,127
16578,note_on,1,0,0,,3,,,51,127
16578,note_on,0,0,0,,3,,,63,127
16742,note_off,164,0,0,,3,,,51,127
16743,note_on,1,0,0,,11,,,58,127
16907,note_off,164,0,0,,11,,,58,127
16907,note_off,0,0,0,,3,,,63,127
16908,note_on,1,0,0,,0,,,60,127
17072,note_off,164,0,0,,0,,,60,127
17073,note_on,1,0,0,,8,,,56,127
17073,note_on,0,0,0,,11,,,70,127
17237,note_off,164,0,0,,11,,,70,127
17237,note_off,0,0,0,,8,,,56,127
17238,note_on,1,0,0,,2,,,62,127
17238,note_on,0,0,0,,8,,,68,127
17402,note_off,164,0,0,,8,,,68,127
17402,note_off,0,0,0,,2,,,62,127
17403,note_on,1,0,0,,3,,,63,127
17403,note_on,0,0,0,,11,,,70,127
17443,note_off,40,0,0,,11,,,70,127
17444,note_on,1,0,0,,8,,,68,127
17484,note_off,40,0,0,,8,,,68,127
17485,note_on,1,0,0,,11,,,70,127
17525,note_off,40,0,0,,11,,,70,127
17526,note_on,1,0,0,,8,,,68,127
17566,note_off,40,0,0,,8,,,68,127
17566,note_off,0,0,0,,3,,,63,127
17567,note_on,1,0,0,,3,,,51,127
17567,note_on,0,0,0,,7,,,67,127
17731,note_off,164,0,0,,3,,,51,127
17732,note_on,1,0,0,,11,,,58,127
17896,note_off,164,0,0,,11,,,58,127
17896,note_off,0,0,0,,7,,,67,127
17897,note_on,1,0,0,,0,,,60,127
18061,note_off,164,0,0,,0,,,60,127
18062,note_on,1,0,0,,8,,,56,127
18062,note_on,0,0,0,,11,,,70,127
18226,note_off,164,0,0,,11,,,70,127
18226,note_off,0,0,0,,8,,,56,127
18227,note_on,1,0,0,,2,,,62,127
18227,note_on,0,0,0,,8,,,68,127
18391,note_off,164,0,0,,8,,,68,127
18391,note_off,0,0,0,,2,,,62,127
18392,note_on,1,0,0,,3,,,63,127
18392,note_on,0,0,0,,11,,,70,127
18432,note_off,40,0,0,,11,,,70,127
18433,note_on,1,0,0,,8,,,68,127
18473,note_off,40,0,0,,8,,,68,127
18474,note_on,1,0,0,,11,,,70,127
18514,note_off,40,0,0,,11,,,70,127
18515,note_on,1,0,0,,8,,,68,127
18555,note_off,40,0,0,,8,,,68,127
18555,note_off,0,0,0,,3,,,63,127
18556,note_on,1,0,0,,3,,,51,127
18556,note_on,0,0,0,,7,,,67,127
18720,note_off,164,0,0,,3,,,51,127
18721,note_on,1,0,0,,11,,,58,127
18885,note_off,164,0,0,,11,,,58,127
18885,note_off,0,0,0,,7,,,67,127
18886,note_on,1,0,0,,0,,,60,127
19050,note_off,164,0,0,,0,,,60,127
19051,note_on,1,0,0,,8,,,56,127
19051,note_on,0,0,0,,11,,,70,127
19215,note_off,164,0,0,,11,,,70,127
19215,note_off,0,0,0,,8,,,56,127
19216,note_on,1,0,0,,2,,,62,127
19216,note_on,0,0,0,,8,,,68,127
19380,note_off,164,0,0,,8,,,68,127
19380,note_off,0,0,0,,2,,,62,127
19381,note_on,1,0,0,,3,,,63,127
19381,note_on,0,0,0,,7,,,67,127
19381,note_on,0,0,0,,3,,,75,127
19545,note_off,164,0,0,,7,,,67,127
19546,note_on,1,0,0,,6,,,66,127
19710,note_off,164,0,0,,6,,,66,127
19710,note_off,0,0,0,,3,,,63,127
19711,note_on,1,0,0,,3,,,51,127
19711,note_on,0,0,0,,7,,,67,127
19875,note_off,164,0,0,,7,,,67,127
19875,note_off,0,0,0,,3,,,51,127
19875,note_off,0,0,0,,3,,,75,127
19876,note_on,1,0,0,,11,,,58,127
19876,note_on,0,0,0,,5,,,65,127
19876,note_on,0,0,0,,2,,,74,127
20040,note_off,164,0,0,,5,,,65,127
20041,note_on,1,0,0,,4,,,64,127
20205,note_off,164,0,0,,4,,,64,127
20205,note_off,0,0,0,,11,,,58,127
20206,note_on,1,0,0,,11,,,46,127
20206,note_on,0,0,0,,5,,,65,127
20370,note_off,164,0,0,,5,,,65,127
20370,note_off,0,0,0,,11,,,46,127
20370,note_off,0,0,0,,2,,,74,127
20371,note_on,1,0,0,,5,,,65,127
20371,note_on,0,0,0,,8,,,68,127
20371,note_on,0,0,0,,5,,,77,127
20535,note_off,164,0,0,,8,,,68,127
20536,note_on,1,0,0,,7,,,67,127
20700,note_off,164,0,0,,7,,,67,127
20700,note_off,0,0,0,,5,,,65,127
20701,note_on,1,0,0,,5,,,53,127
20701,note_on,0,0,0,,8,,,68,127
20865,note_off,164,0,0,,8,,,68,127
20865,note_off,0,0,0,,5,,,53,127
20865,note_off,0,0,0,,5,,,77,127
20866,note_on,1,0,0,,0,,,60,127
20866,note_on,0,0,0,,3,,,75,127
20866,note_on,0,0,0,,7,,,67,127
21030,note_off,164,0,0,,7,,,67,127
21031,note_on,1,0,0,,6,,,66,127
21195,note_off,164,0,0,,6,,,66,127
21195,note_off,0,0,0,,0,,,60,127
21196,note_on,1,0,0,,0,,,48,127
21196,note_on,0,0,0,,7,,,67,127
21360,note_off,164,0,0,,7,,,67,127
21360,note_off,0,0,0,,0,,,48,127
21360,note_off,0,0,0,,3,,,75,127
21361,note_on,1,0,0,,7,,,67,127
21361,note_on,0,0,0,,11,,,70,127
21361,note_on,0,0,0,,7,,,79,127
21525,note_off,164,0,0,,11,,,70,127
21526,note_on,1,0,0,,10,,,69,127
21690,note_off,164,0,0,,10,,,69,127
21690,note_off,0,0,0,,7,,,67,127
21691,note_on,1,0,0,,7,,,55,127
21691,note_on,0,0,0,,11,,,70,127
21855,note_off,164,0,0,,11,,,70,127
21855,note_off,0,0,0,,7,,,55,127
21855,note_off,0,0,0,,7,,,79,127
21856,note_on,1,0,0,,2,,,62,127
21856,note_on,0,0,0,,10,,,69,127
21856,note_on,0,0,0,,6,,,78,127
22020,note_off,164,0,0,,2,,,62,127
22021,note_on,1,0,0,,2,,,50,127
22103,note_off,82,0,0,,6,,,78,127
22184,note_off,81,0,0,,2,,,50,127
22184,note_off,0,0,0,,10,,,69,127
22185,note_on,1,0,0,,2,,,62,127
22185,note_on,0,0,0,,2,,,74,127
22349,note_off,164,0,0,,2,,,74,127
22349,note_off,0,0,0,,2,,,62,127
22350,note_on,1,0,0,,0,,,60,127
22350,note_on,0,0,0,,3,,,75,127
22515,note_on,165,0,0,,0,,,72,127
22539,note_off,24,0,0,,3,,,75,127
22679,note_off,140,0,0,,0,,,72,127
22679,note_off,0,0,0,,0,,,60,127
22680,note_on,1,0,0,,10,,,57,127
22680,note_on,0,0,0,,6,,,78,127
22844,note_off,164,0,0,,6,,,78,127
22844,note_off,0,0,0,,10,,,57,127
22845,note_on,1,0,0,,11,,,58,127
22845,note_on,0,0,0,,7,,,79,127
23010,note_on,165,0,0,,7,,,67,127
23034,note_off,24,0,0,,7,,,79,127
23174,note_off,140,0,0,,7,,,67,127
23174,note_off,0,0,0,,11,,,58,127
23175,note_on,1,0,0,,7,,,55,127
23175,note_on,0,0,0,,2,,,74,127
23339,note_off,164,0,0,,2,,,74,127
23339,note_off,0,0,0,,7,,,55,127
23340,note_on,1,0,0,,0,,,60,127
23340,note_on,0,0,0,,3,,,75,127
23505,note_on,165,0,0,,0,,,72,127
23529,note_off,24,0,0,,3,,,75,127
23669,note_off,140,0,0,,0,,,72,127
23669,note_off,0,0,0,,0,,,60,127
23670,note_on,1,0,0,,10,,,57,127
23670,note_on,0,0,0,,6,,,78,127
23834,note_off,164,0,0,,6,,,78,127
23834,note_off,0,0,0,,10,,,57,127
23835,note_on,1,0,0,,11,,,58,127
23835,note_on,0,0,0,,7,,,79,127
23999,note_off,164,0,0,,7,,,79,127
23999,note_off,0,0,0,,11,,,58,127
24000,note_on,1,0,0,,7,,,55,127
24000,note_on,0,0,0,,7,,,67,127
24164,note_off,164,0,0,,7,,,55,127
24165,note_on,1,0,0,,2,,,62,127
24329,note_off,164,0,0,,2,,,62,127
24330,note_on,1,0,0,,3,,,63,127
24494,note_off,164,0,0,,3,,,63,127
24494,note_off,0,0,0,,7,,,67,127
24495,note_on,1,0,0,,0,,,60,127
24659,note_off,164,0,0,,0,,,60,127
24660,note_on,1,0,0,,6,,,66,127
24660,note_on,0,0,0,,10,,,69,127
24714,note_off,54,0,0,,10,,,69,127
24715,note_on,1,0,0,,11,,,70,127
24769,note_off,54,0,0,,11,,,70,127
24770,note_on,1,0,0,,0,,,72,127
24824,note_off,54,0,0,,0,,,72,127
24824,note_off,0,0,0,,6,,,66,127
24825,note_on,1,0,0,,7,,,67,127
24825,note_on,0,0,0,,11,,,70,127
24879,note_off,54,0,0,,11,,,70,127
24880,note_on,1,0,0,,0,,,72,127
24934,note_off,54,0,0,,0,,,72,127
24935,note_on,1,0,0,,11,,,70,127
24989,note_off,54,0,0,,11,,,70,127
24989,note_off,0,0,0,,7,,,67,127
24990,note_on,1,0,0,,7,,,55,127
24990,note_on,0,0,0,,10,,,69,127
25154,note_off,164,0,0,,10,,,69,127
25154,note_off,0,0,0,,7,,,55,127
25155,note_on,1,0,0,,2,,,62,127
25155,note_on,0,0,0,,7,,,67,127
25319,note_off,164,0,0,,2,,,62,127
25320,note_on,1,0,0,,3,,,63,127
25484,note_off,164,0,0,,3,,,63,127
25484,note_off,0,0,0,,7,,,67,127
25485,note_on,1,0,0,,0,,,60,127
25649,note_off,164,0,0,,0,,,60,127
25650,note_on,1,0,0,,6,,,66,127
25650,note_on,0,0,0,,10,,,69,127
25704,note_off,54,0,0,,10,,,69,127
25705,note_on,1,0,0,,11,,,70,127
25759,note_off,54,0,0,,11,,,70,127
25760,note_on,1,0,0,,0,,,72,127
25814,note_off,54,0,0,,0,,,72,127
25814,note_off,0,0,0,,6,,,66,127
25815,note_on,1,0,0,,7,,,67,127
25815,note_on,0,0,0,,11,,,70,127
25869,note_off,54,0,0,,11,,,70,127
25870,note_on,1,0,0,,0,,,72,127
25924,note_off,54,0,0,,0,,,72,127
25925,note_on,1,0,0,,11,,,70,127
25979,note_off,54,0,0,,11,,,70,127
25979,note_off,0,0,0,,7,,,67,127
25980,note_on,1,0,0,,7,,,55,127
25980,note_on,0,0,0,,10,,,69,127
26144,note_off,164,0,0,,10,,,69,127
26144,note_off,0,0,0,,7,,,55,127
26145,note_on,1,0,0,,2,,,62,127
26145,note_on,0,0,0,,7,,,67,127
26309,note_off,164,0,0,,2,,,62,127
26310,note_on,1,0,0,,3,,,63,127
26474,note_off,164,0,0,,3,,,63,127
26474,note_off,0,0,0,,7,,,67,127
26475,note_on,1,0,0,,0,,,60,127
26639,note_off,164,0,0,,0,,,60,127
26640,note_on,1,0,0,,6,,,66,127
26640,note_on,0,0,0,,10,,,69,127
26694,note_off,54,0,0,,10,,,69,127
26695,note_on,1,0,0,,11,,,70,127
26749,note_off,54,0,0,,11,,,70,127
26750,note_on,1,0,0,,0,,,72,127
26804,note_off,54,0,0,,0,,,72,127
26804,note_off,0,0,0,,6,,,66,127
26805,note_on,1,0,0,,7,,,67,127
26805,note_on,0,0,0,,11,,,70,127
26969,note_off,164,0,0,,7,,,67,127
26970,note_on,1,0,0,,7,,,67,127
26994,note_off,24,0,0,,11,,,70,127
27134,note_off,140,0,0,,7,,,67,127
27135,note_on,1,0,0,,11,,,58,127
27135,note_on,0,0,0,,2,,,74,127
27299,note_off,164,0,0,,2,,,74,127
27299,note_off,0,0,0,,11,,,58,127
27300,note_on,1,0,0,,0,,,60,127
27300,note_on,0,0,0,,3,,,75,127
27465,note_on,165,0,0,,0,,,72,127
27489,note_off,24,0,0,,3,,,75,127
27629,note_off,140,0,0,,0,,,72,127
27629,note_off,0,0,0,,0,,,60,127
27630,note_on,1,0,0,,10,,,57,127
27630,note_on,0,0,0,,6,,,78,127
27794,note_off,164,0,0,,6,,,78,127
27794,note_off,0,0,0,,10,,,57,127
27795,note_on,1,0,0,,11,,,58,127
27795,note_on,0,0,0,,7,,,79,127
27960,note_on,165,0,0,,7,,,67,127
27984,note_off,24,0,0,,7,,,79,127
28124,note_off,140,0,0,,7,,,67,127
28124,note_off,0,0,0,,11,,,58,127
28125,note_on,1,0,0,,7,,,55,127
28125,note_on,0,0,0,,10,,,81,127
28289,note_off,164,0,0,,10,,,81,127
28289,note_off,0,0,0,,7,,,55,127
28290,note_on,1,0,0,,3,,,51,127
28290,note_on,0,0,0,,11,,,82,127
28455,note_on,165,0,0,,7,,,79,127
28479,note_off,24,0,0,,11,,,82,127
28619,note_off,140,0,0,,7,,,79,127
28619,note_off,0,0,0,,3,,,51,127
28620,note_on,1,0,0,,0,,,48,127
28620,note_on,0,0,0,,0,,,84,127
28784,note_off,164,0,0,,0,,,84,127
28784,note_off,0,0,0,,0,,,48,127
28785,note_on,1,0,0,,11,,,46,127
28785,note_on,0,0,0,,2,,,86,127
28949,note_off,164,0,0,,2,,,86,127
28950,note_on,1,0,0,,11,,,82,127
29114,note_off,164,0,0,,11,,,82,127
29115,note_on,1,0,0,,7,,,79,127
29279,note_off,164,0,0,,7,,,79,127
29280,note_on,1,0,0,,2,,,74,127
29444,note_off,164,0,0,,2,,,74,127
29444,note_off,0,0,0,,11,,,46,127
29445,note_on,1,0,0,,11,,,70,127
29609,note_off,164,0,0,,11,,,70,127
29610,note_on,1,0,0,,7,,,67,127
29774,note_off,164,0,0,,7,,,67,127
29775,note_on,1,0,0,,2,,,62,127
29939,note_off,164,0,0,,2,,,62,127
29940,note_on,1,0,0,,11,,,58,127
30104,note_off,164,0,0,,11,,,58,127
30105,note_on,1,0,0,,7,,,55,127
30269,note_off,164,0,0,,7,,,55,127
30270,note_on,1,0,0,,2,,,50,127
30434,note_off,164,0,0,,2,,,50,127
30435,note_on,1,0,0,,11,,,46,127
30599,note_off,164,0,0,,11,,,46,127
30600,note_on,1,0,0,,2,,,50,127
30764,note_off,164,0,0,,2,,,50,127
30765,note_on,1,0,0,,7,,,55,127
30929,note_off,164,0,0,,7,,,55,127
30930,note_on,1,0,0,,11,,,58,127
31094,note_off,164,0,0,,11,,,58,127
31095,note_on,1,0,0,,2,,,62,127
31260,note_on,165,0,0,,7,,,43,127
31260,note_on,0,0,0,,7,,,55,127
31342,note_off,82,0,0,,2,,,62,127
31424,note_on,82,0,0,,7,,,79,127
31588,note_off,164,0,0,,7,,,79,127
31589,note_on,1,0,0,,2,,,74,127
31753,note_off,164,0,0,,2,,,74,127
31753,note_off,0,0,0,,7,,,55,127
31753,note_off,0,0,0,,7,,,43,127
31754,note_on,1,0,0,,0,,,48,127
31754,note_on,0,0,0,,0,,,60,127
31754,note_on,0,0,0,,5,,,77,127
31918,note_off,164,0,0,,5,,,77,127
31919,note_on,1,0,0,,3,,,75,127
32083,note_off,164,0,0,,3,,,75,127
32084,note_on,1,0,0,,2,,,74,127
32248,note_off,164,0,0,,2,,,74,127
32248,note_off,0,0,0,,0,,,60,127
32248,note_off,0,0,0,,0,,,48,127
32249,note_on,1,0,0,,2,,,50,127
32249,note_on,0,0,0,,2,,,62,127
32249,note_on,0,0,0,,7,,,67,127
32413,note_off,164,0,0,,7,,,67,127
32414,note_on,1,0,0,,10,,,69,127
32578,note_off,164,0,0,,10,,,69,127
32579,note_on,1,0,0,,6,,,66,127
32743,note_off,164,0,0,,6,,,66,127
32743,note_off,0,0,0,,2,,,62,127
32743,note_off,0,0,0,,2,,,50,127
32744,note_on,1,0,0,,7,,,55,127
32744,note_on,0,0,0,,2,,,62,127
32744,note_on,0,0,0,,7,,,67,127
32908,note_off,164,0,0,,7,,,67,127
32909,note_on,1,0,0,,10,,,69,127
33073,note_off,164,0,0,,10,,,69,127
33073,note_off,0,0,0,,2,,,62,127
33074,note_on,1,0,0,,11,,,70,127
33238,note_off,164,0,0,,11,,,70,127
33238,note_off,0,0,0,,7,,,55,127
33239,note_on,1,0,0,,0,,,60,127
33239,note_on,0,0,0,,3,,,63,127
33239,note_on,0,0,0,,6,,,66,127
33239,note_on,0,0,0,,10,,,69,127
33403,note_off,164,0,0,,10,,,69,127
33404,note_on,1,0,0,,0,,,72,127
33568,note_off,164,0,0,,0,,,72,127
33569,note_on,1,0,0,,3,,,75,127
33733,note_off,164,0,0,,6,,,66,127
33733,note_off,0,0,0,,3,,,63,127
33733,note_off,0,0,0,,0,,,60,127
33734,note_on,1,0,0,,11,,,58,127
33734,note_on,0,0,0,,2,,,62,127
33734,note_on,0,0,0,,7,,,67,127
33898,note_off,164,0,0,,3,,,75,127
33899,note_on,1,0,0,,2,,,74,127
34063,note_off,164,0,0,,2,,,74,127
34064,note_on,1,0,0,,11,,,70,127
34228,note_off,164,0,0,,11,,,70,127
34228,note_off,0,0,0,,2,,,62,127
34228,note_off,0,0,0,,11,,,58,127
34229,note_on,1,0,0,,10,,,57,127
34229,note_on,0,0,0,,0,,,60,127
34229,note_on,0,0,0,,0,,,72,127
34393,note_off,164,0,0,,0,,,72,127
34393,note_off,0,0,0,,7,,,67,127
34394,note_on,1,0,0,,6,,,66,127
34394,note_on,0,0,0,,10,,,69,127
34558,note_off,164,0,0,,10,,,69,127
34559,note_on,1,0,0,,2,,,74,127
34723,note_off,164,0,0,,2,,,74,127
34723,note_off,0,0,0,,6,,,66,127
34723,note_off,0,0,0,,0,,,60,127
34723,note_off,0,0,0,,10,,,57,127
34724,note_on,1,0,0,,7,,,55,127
34724,note_on,0,0,0,,2,,,62,127
34724,note_on,0,0,0,,11,,,70,127
34888,note_off,164,0,0,,11,,,70,127
34889,note_on,1,0,0,,7,,,67,127
35053,note_off,164,0,0,,7,,,67,127
35054,note_on,1,0,0,,11,,,70,127
35218,note_off,164,0,0,,11,,,70,127
35218,note_off,0,0,0,,2,,,62,127
35218,note_off,0,0,0,,7,,,55,127
35219,note_on,1,0,0,,0,,,60,127
35219,note_on,0,0,0,,6,,,66,127
35219,note_on,0,0,0,,3,,,63,127
35219,note_on,0,0,0,,10,,,69,127
35383,note_off,164,0,0,,10,,,69,127
35384,note_on,1,0,0,,0,,,72,127
35548,note_off,164,0,0,,0,,,72,127
35549,note_on,1,0,0,,3,,,75,127
35713,note_off,164,0,0,,3,,,63,127
35713,note_off,0,0,0,,6,,,66,127
35713,note_off,0,0,0,,0,,,60,127
35714,note_on,1,0,0,,11,,,58,127
35714,note_on,0,0,0,,2,,,62,127
35714,note_on,0,0,0,,7,,,67,127
35878,note_off,164,0,0,,3,,,75,127
35879,note_on,1,0,0,,2,,,74,127
36043,note_off,164,0,0,,2,,,74,127
36044,note_on,1,0,0,,11,,,70,127
36208,note_off,164,0,0,,11,,,70,127
36208,note_off,0,0,0,,2,,,62,127
36208,note_off,0,0,0,,11,,,58,127
36209,note_on,1,0,0,,10,,,57,127
36209,note_on,0,0,0,,0,,,60,127
36209,note_on,0,0,0,,0,,,72,127
36373,note_off,164,0,0,,0,,,72,127
36373,note_off,0,0,0,,7,,,67,127
36374,note_on,1,0,0,,6,,,66,127
36374,note_on,0,0,0,,10,,,69,127
36538,note_off,164,0,0,,10,,,69,127
36539,note_on,1,0,0,,2,,,74,127
36703,note_off,164,0,0,,2,,,74,127
36703,note_off,0,0,0,,6,,,66,127
36703,note_off,0,0,0,,0,,,60,127
36703,note_off,0,0,0,,10,,,57,127
36704,note_on,1,0,0,,7,,,55,127
36704,note_on,0,0,0,,11,,,70,127
36868,note_off,164,0,0,,11,,,70,127
36868,note_off,0,0,0,,7,,,55,127
36869,note_on,1,0,0,,10,,,57,127
36869,note_on,0,0,0,,7,,,67,127
37033,note_off,164,0,0,,7,,,67,127
37033,note_off,0,0,0,,10,,,57,127
37034,note_on,1,0,0,,11,,,58,127
37034,note_on,0,0,0,,2,,,74,127
37198,note_off,164,0,0,,2,,,74,127
37198,note_off,0,0,0,,11,,,58,127
37199,note_on,1,0,0,,0,,,60,127
37199,note_on,0,0,0,,3,,,75,127
37364,note_on,165,0,0,,0,,,72,127
37388,note_off,24,0,0,,3,,,75,127
37528,note_off,140,0,0,,0,,,72,127
37528,note_off,0,0,0,,0,,,60,127
37529,note_on,1,0,0,,10,,,57,127
37529,note_on,0,0,0,,6,,,78,127
37693,note_off,164,0,0,,6,,,78,127
37693,note_off,0,0,0,,10,,,57,127
37694,note_on,1,0,0,,11,,,58,127
37694,note_on,0,0,0,,2,,,62,127
37694,note_on,0,0,0,,7,,,79,127
37859,note_on,165,0,0,,2,,,74,127
37883,note_off,24,0,0,,7,,,79,127
38023,note_off,140,0,0,,2,,,74,127
38023,note_off,0,0,0,,2,,,62,127
38023,note_off,0,0,0,,11,,,58,127
38024,note_on,1,0,0,,3,,,51,127
38024,note_on,0,0,0,,0,,,60,127
38024,note_on,0,0,0,,0,,,84,127
38188,note_off,164,0,0,,0,,,84,127
38188,note_off,0,0,0,,0,,,60,127
38188,note_off,0,0,0,,3,,,51,127
38189,note_on,1,0,0,,2,,,50,127
38189,note_on,0,0,0,,7,,,55,127
38189,note_on,0,0,0,,11,,,58,127
38189,note_on,0,0,0,,2,,,86,127
38354,note_on,165,0,0,,7,,,79,127
38378,note_off,24,0,0,,2,,,86,127
38518,note_off,140,0,0,,7,,,79,127
38518,note_off,0,0,0,,11,,,58,127
38518,note_off,0,0,0,,7,,,55,127
38518,note_off,0,0,0,,2,,,50,127
38519,note_on,1,0,0,,10,,,57,127
38519,note_on,0,0,0,,2,,,50,127
38519,note_on,0,0,0,,6,,,78,127
38683,note_off,164,0,0,,6,,,78,127
38683,note_off,0,0,0,,2,,,50,127
38683,note_off,0,0,0,,10,,,57,127
38684,note_on,1,0,0,,7,,,43,127
38684,note_on,0,0,0,,7,,,55,127
38684,note_on,0,0,0,,7,,,79,127
38848,note_off,164,0,0,,7,,,79,127
38849,note_on,1,0,0,,7,,,67,127
39013,note_off,164,0,0,,7,,,67,127
39013,note_off,0,0,0,,7,,,55,127
39013,note_off,0,0,0,,7,,,43,127
39014,note_on,1,0,0,,3,,,51,127
39014,note_on,0,0,0,,0,,,60,127
39014,note_on,0,0,0,,0,,,72,127
39178,note_off,164,0,0,,0,,,72,127
39178,note_off,0,0,0,,0,,,60,127
39178,note_off,0,0,0,,3,,,51,127
39179,note_on,1,0,0,,2,,,50,127
39179,note_on,0,0,0,,7,,,55,127
39179,note_on,0,0,0,,11,,,58,127
39179,note_on,0,0,0,,2,,,74,127
39344,note_on,165,0,0,,7,,,67,127
39368,note_off,24,0,0,,2,,,74,127
39508,note_off,140,0,0,,7,,,67,127
39508,note_off,0,0,0,,11,,,58,127
39508,note_off,0,0,0,,7,,,55,127
39508,note_off,0,0,0,,2,,,50,127
39509,note_on,1,0,0,,10,,,57,127
39509,note_on,0,0,0,,2,,,50,127
39509,note_on,0,0,0,,6,,,66,127
39673,note_off,164,0,0,,6,,,66,127
39673,note_off,0,0,0,,2,,,50,127
39673,note_off,0,0,0,,10,,,57,127
39674,note_on,1,0,0,,7,,,43,127
39674,note_on,0,0,0,,7,,,55,127
39674,note_on,0,0,0,,7,,,67,127
39838,note_off,164,0,0,,7,,,67,127
39838,note_off,0,0,0,,7,,,55,127
39839,note_on,1,0,0,,7,,,55,127
40003,note_off,164,0,0,,7,,,55,127
40003,note_off,0,0,0,,7,,,43,127
40004,note_on,1,0,0,,0,,,48,127
40004,note_on,0,0,0,,0,,,60,127
40168,note_off,164,0,0,,0,,,60,127
40168,note_off,0,0,0,,0,,,48,127
40169,note_on,1,0,0,,2,,,50,127
40169,note_on,0,0,0,,2,,,62,127
40334,note_on,165,0,0,,7,,,55,127
40358,note_off,24,0,0,,2,,,62,127
40498,note_off,140,0,0,,7,,,55,127
40498,note_off,0,0,0,,2,,,50,127
40499,note_on,1,0,0,,2,,,38,127
40499,note_on,0,0,0,,6,,,54,127
40663,note_off,164,0,0,,6,,,54,127
40663,note_off,0,0,0,,2,,,38,127
40664,note_on,1,0,0,,7,,,43,127
40664,note_on,0,0,0,,7,,,55,127
40822,note_off,158,0,0,,7,,,55,127
40829,note_on,7,0,0,,2,,,62,127
40952,note_off,123,0,0,,2,,,62,127
40992,note_off,40,0,0,,7,,,43,127
40993,note_on,1,0,0,,2,,,50,127
40993,note_on,0,0,0,,6,,,54,127
41157,note_off,164,0,0,,2,,,50,127
41158,note_on,1,0,0,,4,,,52,127
41322,note_off,164,0,0,,6,,,54,127
41323,note_on,1,0,0,,7,,,55,127
41487,note_off,164,0,0,,7,,,55,127
41487,note_off,0,0,0,,4,,,52,127
41488,note_on,1,0,0,,6,,,54,127
41488,note_on,0,0,0,,10,,,57,127
41652,note_off,164,0,0,,6,,,54,127
41653,note_on,1,0,0,,7,,,55,127
41817,note_off,164,0,0,,10,,,57,127
41818,note_on,1,0,0,,11,,,58,127
41982,note_off,164,0,0,,11,,,58,127
41982,note_off,0,0,0,,7,,,55,127
41983,note_on,1,0,0,,10,,,57,127
41983,note_on,0,0,0,,0,,,60,127
42147,note_off,164,0,0,,10,,,57,127
42148,note_on,1,0,0,,11,,,58,127
42312,note_off,164,0,0,,0,,,60,127
42313,note_on,1,0,0,,2,,,62,127
42477,note_off,164,0,0,,2,,,62,127
42477,note_off,0,0,0,,11,,,58,127
42478,note_on,1,0,0,,0,,,60,127
42478,note_on,0,0,0,,4,,,64,127
42642,note_off,164,0,0,,0,,,60,127
42643,note_on,1,0,0,,2,,,62,127
42807,note_off,164,0,0,,4,,,64,127
42808,note_on,1,0,0,,6,,,66,127
42972,note_off,164,0,0,,6,,,66,127
42972,note_off,0,0,0,,2,,,62,127
42973,note_on,1,0,0,,4,,,64,127
42973,note_on,0,0,0,,7,,,67,127
43137,note_off,164,0,0,,7,,,67,127
43137,note_off,0,0,0,,4,,,64,127
43138,note_on,1,0,0,,6,,,66,127
43138,note_on,0,0,0,,10,,,69,127
43302,note_off,164,0,0,,10,,,69,127
43303,note_on,1,0,0,,11,,,70,127
43467,note_off,164,0,0,,11,,,70,127
43467,note_off,0,0,0,,6,,,66,127
43468,note_on,1,0,0,,2,,,62,127
43468,note_on,0,0,0,,0,,,72,127
43632,note_off,164,0,0,,0,,,72,127
43632,note_off,0,0,0,,2,,,62,127
43633,note_on,1,0,0,,7,,,67,127
43633,note_on,0,0,0,,0,,,72,127
43633,note_on,0,0,0,,11,,,70,127
43797,note_off,164,0,0,,11,,,70,127
43797,note_off,0,0,0,,0,,,72,127
43798,note_on,1,0,0,,10,,,69,127
43962,note_off,164,0,0,,10,,,69,127
43962,note_off,0,0,0,,7,,,67,127
43963,note_on,1,0,0,,3,,,63,127
43963,note_on,0,0,0,,7,,,67,127
43963,note_on,0,0,0,,11,,,70,127
44127,note_off,164,0,0,,11,,,70,127
44127,note_off,0,0,0,,7,,,67,127
44127,note_off,0,0,0,,3,,,63,127
44128,note_on,1,0,0,,0,,,60,127
44128,note_on,0,0,0,,10,,,69,127
44128,note_on,0,0,0,,0,,,72,127
44292,note_off,164,0,0,,0,,,72,127
44292,note_off,0,0,0,,10,,,69,127
44293,note_on,1,0,0,,11,,,70,127
44293,note_on,0,0,0,,7,,,67,127
44457,note_off,164,0,0,,7,,,67,127
44457,note_off,0,0,0,,11,,,70,127
44457,note_off,0,0,0,,0,,,60,127
44458,note_on,1,0,0,,2,,,62,127
44458,note_on,0,0,0,,10,,,69,127
44458,note_on,0,0,0,,6,,,66,127
44622,note_off,164,0,0,,6,,,66,127
44622,note_off,0,0,0,,10,,,69,127
44622,note_off,0,0,0,,2,,,62,127
44623,note_on,1,0,0,,7,,,55,127
44623,note_on,0,0,0,,7,,,67,127
44787,note_off,164,0,0,,7,,,67,127
44788,note_on,1,0,0,,2,,,74,127
44911,note_off,123,0,0,,2,,,74,127
44951,note_off,40,0,0,,7,,,55,127
44952,note_on,1,0,0,,2,,,50,127
44952,note_on,0,0,0,,6,,,54,127
45116,note_off,164,0,0,,2,,,50,127
45117,note_on,1,0,0,,4,,,52,127
45281,note_off,164,0,0,,6,,,54,127
45282,note_on,1,0,0,,7,,,55,127
45446,note_off,164,0,0,,7,,,55,127
45446,note_off,0,0,0,,4,,,52,127
45447,note_on,1,0,0,,6,,,54,127
45447,note_on,0,0,0,,10,,,57,127
45611,note_off,164,0,0,,6,,,54,127
45612,note_on,1,0,0,,7,,,55,127
45776,note_off,164,0,0,,10,,,57,127
45777,note_on,1,0,0,,11,,,58,127
45941,note_off,164,0,0,,11,,,58,127
45941,note_off,0,0,0,,7,,,55,127
45942,note_on,1,0,0,,10,,,57,127
45942,note_on,0,0,0,,0,,,60,127
46106,note_off,164,0,0,,10,,,57,127
46107,note_on,1,0,0,,11,,,58,127
46271,note_off,164,0,0,,0,,,60,127
46272,note_on,1,0,0,,2,,,62,127
46436,note_off,164,0,0,,2,,,62,127
46436,note_off,0,0,0,,11,,,58,127
46437,note_on,1,0,0,,0,,,60,127
46437,note_on,0,0,0,,4,,,64,127
46601,note_off,164,0,0,,0,,,60,127
46602,note_on,1,0,0,,2,,,62,127
46766,note_off,164,0,0,,4,,,64,127
46767,note_on,1,0,0,,6,,,66,127
46931,note_off,164,0,0,,6,,,66,127
46931,note_off,0,0,0,,2,,,62,127
46932,note_on,1,0,0,,4,,,64,127
46932,note_on,0,0,0,,7,,,67,127
47096,note_off,164,0,0,,7,,,67,127
47096,note_off,0,0,0,,4,,,64,127
47097,note_on,1,0,0,,6,,,66,127
47097,note_on,0,0,0,,10,,,69,127
47261,note_off,164,0,0,,10,,,69,127
47262,note_on,1,0,0,,11,,,70,127
47426,note_off,164,0,0,,11,,,70,127
47426,note_off,0,0,0,,6,,,66,127
47427,note_on,1,0,0,,2,,,62,127
47427,note_on,0,0,0,,0,,,72,127
47591,note_off,164,0,0,,0,,,72,127
47591,note_off,0,0,0,,2,,,62,127
47592,note_on,1,0,0,,7,,,67,127
47592,note_on,0,0,0,,0,,,72,127
47592,note_on,0,0,0,,11,,,70,127
47756,note_off,164,0,0,,11,,,70,127
47756,note_off,0,0,0,,0,,,72,127
47757,note_on,1,0,0,,10,,,69,127
47921,note_off,164,0,0,,10,,,69,127
47921,note_off,0,0,0,,7,,,67,127
47922,note_on,1,0,0,,3,,,63,127
47922,note_on,0,0,0,,11,,,70,127
47922,note_on,0,0,0,,7,,,67,127
48086,note_off,164,0,0,,7,,,67,127
48086,note_off,0,0,0,,11,,,70,127
48086,note_off,0,0,0,,3,,,63,127
48087,note_on,1,0,0,,0,,,60,127
48087,note_on,0,0,0,,10,,,69,127
48087,note_on,0,0,0,,0,,,72,127
48251,note_off,164,0,0,,0,,,72,127
48251,note_off,0,0,0,,10,,,69,127
48252,note_on,1,0,0,,7,,,67,127
48252,note_on,0,0,0,,11,,,70,127
48416,note_off,164,0,0,,11,,,70,127
48416,note_off,0,0,0,,7,,,67,127
48416,note_off,0,0,0,,0,,,60,127
48417,note_on,1,0,0,,2,,,62,127
48417,note_on,0,0,0,,6,,,66,127
48417,note_on,0,0,0,,10,,,69,127
48581,note_off,164,0,0,,10,,,69,127
48581,note_off,0,0,0,,6,,,66,127
48581,note_off,0,0,0,,2,,,62,127
48582,note_on,1,0,0,,7,,,55,127
48582,note_on,0,0,0,,2,,,62,127
48582,note_on,0,0,0,,7,,,67,127
48746,note_off,164,0,0,,7,,,67,127
48747,note_on,1,0,0,,3,,,75,127
48911,note_off,164,0,0,,3,,,75,127
48912,note_on,1,0,0,,2,,,74,127
49076,note_off,164,0,0,,2,,,74,127
49076,note_off,0,0,0,,2,,,62,127
49076,note_off,0,0,0,,7,,,55,127
49077,note_on,1,0,0,,6,,,54,127
49077,note_on,0,0,0,,2,,,62,127
49077,note_on,0,0,0,,0,,,72,127
49241,note_off,164,0,0,,0,,,72,127
49242,note_on,1,0,0,,11,,,70,127
49406,note_off,164,0,0,,11,,,70,127
49406,note_off,0,0,0,,6,,,54,127
49407,note_on,1,0,0,,2,,,50,127
49407,note_on,0,0,0,,10,,,69,127
49571,note_off,164,0,0,,10,,,69,127
49571,note_off,0,0,0,,2,,,50,127
49572,note_on,1,0,0,,3,,,51,127
49572,note_on,0,0,0,,7,,,67,127
49572,note_on,0,0,0,,10,,,69,127
49736,note_off,164,0,0,,10,,,69,127
49736,note_off,0,0,0,,7,,,67,127
49737,note_on,1,0,0,,6,,,66,127
49901,note_off,164,0,0,,6,,,66,127
49901,note_off,0,0,0,,2,,,62,127
49902,note_on,1,0,0,,0,,,60,127
49902,note_on,0,0,0,,7,,,67,127
49902,note_on,0,0,0,,11,,,70,127
50066,note_off,164,0,0,,11,,,70,127
50066,note_off,0,0,0,,7,,,67,127
50066,note_off,0,0,0,,3,,,51,127
50067,note_on,1,0,0,,0,,,48,127
50067,note_on,0,0,0,,10,,,69,127
50067,note_on,0,0,0,,0,,,72,127
50231,note_off,164,0,0,,0,,,72,127
50231,note_off,0,0,0,,10,,,69,127
50231,note_off,0,0,0,,0,,,60,127
50232,note_on,1,0,0,,7,,,67,127
50232,note_on,0,0,0,,11,,,70,127
50396,note_off,164,0,0,,11,,,70,127
50396,note_off,0,0,0,,7,,,67,127
50396,note_off,0,0,0,,0,,,48,127
50397,note_on,1,0,0,,2,,,50,127
50397,note_on,0,0,0,,10,,,69,127
50397,note_on,0,0,0,,6,,,66,127
50561,note_off,164,0,0,,6,,,66,127
50561,note_off,0,0,0,,10,,,69,127
50561,note_off,0,0,0,,2,,,50,127
50562,note_on,1,0,0,,7,,,55,127
50562,note_on,0,0,0,,7,,,67,127
50726,note_off,164,0,0,,7,,,55,127
50727,note_on,1,0,0,,10,,,57,127
50891,note_off,164,0,0,,10,,,57,127
50891,note_off,0,0,0,,7,,,67,127
50892,note_on,1,0,0,,11,,,58,127
50892,note_on,0,0,0,,2,,,74,127
51056,note_off,164,0,0,,2,,,74,127
51056,note_off,0,0,0,,11,,,58,127
51057,note_on,1,0,0,,0,,,60,127
51057,note_on,0,0,0,,3,,,75,127
51222,note_on,165,0,0,,0,,,72,127
51246,note_off,24,0,0,,3,,,75,127
51386,note_off,140,0,0,,0,,,72,127
51386,note_off,0,0,0,,0,,,60,127
51387,note_on,1,0,0,,10,,,57,127
51387,note_on,0,0,0,,6,,,78,127
51551,note_off,164,0,0,,6,,,78,127
51551,note_off,0,0,0,,10,,,57,127
51552,note_on,1,0,0,,11,,,58,127
51552,note_on,0,0,0,,2,,,62,127
51552,note_on,0,0,0,,7,,,79,127
51717,note_on,165,0,0,,2,,,74,127
51741,note_off,24,0,0,,7,,,79,127
51881,note_off,140,0,0,,2,,,74,127
51881,note_off,0,0,0,,2,,,62,127
51881,note_off,0,0,0,,11,,,58,127
51882,note_on,1,0,0,,3,,,51,127
51882,note_on,0,0,0,,0,,,60,127
51882,note_on,0,0,0,,0,,,84,127
52046,note_off,164,0,0,,0,,,84,127
52046,note_off,0,0,0,,0,,,60,127
52046,note_off,0,0,0,,3,,,51,127
52047,note_on,1,0,0,,2,,,50,127
52047,note_on,0,0,0,,7,,,55,127
52047,note_on,0,0,0,,11,,,58,127
52047,note_on,0,0,0,,2,,,86,127
52212,note_on,165,0,0,,7,,,79,127
52236,note_off,24,0,0,,2,,,86,127
52376,note_off,140,0,0,,7,,,79,127
52376,note_off,0,0,0,,11,,,58,127
52376,note_off,0,0,0,,7,,,55,127
52376,note_off,0,0,0,,2,,,50,127
52377,note_on,1,0,0,,2,,,50,127
52377,note_on,0,0,0,,10,,,57,127
52377,note_on,0,0,0,,6,,,78,127
52541,note_off,164,0,0,,6,,,78,127
52541,note_off,0,0,0,,10,,,57,127
52541,note_off,0,0,0,,2,,,50,127
52542,note_on,1,0,0,,7,,,43,127
52542,note_on,0,0,0,,7,,,55,127
52542,note_on,0,0,0,,7,,,79,127
52706,note_off,164,0,0,,7,,,79,127
52707,note_on,1,0,0,,7,,,67,127
52871,note_off,164,0,0,,7,,,67,127
52871,note_off,0,0,0,,7,,,55,127
52871,note_off,0,0,0,,7,,,43,127
52872,note_on,1,0,0,,3,,,51,127
52872,note_on,0,0,0,,0,,,60,127
52872,note_on,0,0,0,,0,,,72,127
53036,note_off,164,0,0,,0,,,72,127
53036,note_off,0,0,0,,0,,,60,127
53036,note_off,0,0,0,,3,,,51,127
53037,note_on,1,0,0,,2,,,50,127
53037,note_on,0,0,0,,7,,,55,127
53037,note_on,0,0,0,,11,,,58,127
53037,note_on,0,0,0,,2,,,74,127
53202,note_on,165,0,0,,7,,,67,127
53226,note_off,24,0,0,,2,,,74,127
53366,note_off,140,0,0,,7,,,67,127
53366,note_off,0,0,0,,11,,,58,127
53366,note_off,0,0,0,,7,,,55,127
53366,note_off,0,0,0,,2,,,50,127
53367,note_on,1,0,0,,2,,,50,127
53367,note_on,0,0,0,,10,,,57,127
53367,note_on,0,0,0,,6,,,66,127
53531,note_off,164,0,0,,6,,,66,127
53531,note_off,0,0,0,,10,,,57,127
53531,note_off,0,0,0,,2,,,50,127
53532,note_on,1,0,0,,7,,,43,127
53532,note_on,0,0,0,,7,,,55,127
53532,note_on,0,0,0,,7,,,67,127
53696,note_off,164,0,0,,7,,,67,127
53696,note_off,0,0,0,,7,,,55,127
53697,note_on,1,0,0,,7,,,55,127
53861,note_off,164,0,0,,7,,,55,127
53861,note_off,0,0,0,,7,,,43,127
53862,note_on,1,0,0,,0,,,48,127
53862,note_on,0,0,0,,0,,,60,127
54026,note_off,164,0,0,,0,,,60,127
54026,note_off,0,0,0,,0,,,48,127
54027,note_on,1,0,0,,2,,,50,127
54027,note_on,0,0,0,,2,,,62,127
54192,note_on,165,0,0,,7,,,55,127
54216,note_off,24,0,0,,2,,,62,127
54356,note_off,140,0,0,,7,,,55,127
54356,note_off,0,0,0,,2,,,50,127
54357,note_on,1,0,0,,2,,,38,127
54357,note_on,0,0,0,,6,,,54,127
54521,note_off,164,0,0,,6,,,54,127
54521,note_off,0,0,0,,2,,,38,127
54522,note_on,1,0,0,,7,,,43,127
54522,note_on,0,0,0,,6,,,54,127
55015,note_off,493,0,0,,6,,,54,127
55016,note_on,1,0,0,,7,,,55,127
55509,note_off,493,0,0,,7,,,55,127
55510,note_off,1,0,0,,7,,,43,127
55510,note_on,0,0,0,,7,,,55,127
55674,note_off,164,0,0,,7,,,55,127
55675,note_on,1,0,0,,12,,,59,127
55839,note_off,164,0,0,,12,,,59,127
55840,note_on,1,0,0,,2,,,62,127
56004,note_off,164,0,0,,2,,,62,127
56005,note_on,1,0,0,,7,,,67,127
56169,note_off,164,0,0,,7,,,67,127
56170,note_on,1,0,0,,12,,,71,127
56334,note_off,164,0,0,,12,,,71,127
56335,note_on,1,0,0,,2,,,74,127
56499,note_off,164,0,0,,2,,,74,127
56500,note_on,1,0,0,,0,,,48,127
56500,note_on,0,0,0,,5,,,77,127
56554,note_off,54,0,0,,5,,,77,127
56555,note_on,1,0,0,,3,,,75,127
56609,note_off,54,0,0,,3,,,75,127
56610,note_on,1,0,0,,5,,,77,127
56664,note_off,54,0,0,,5,,,77,127
56664,note_off,0,0,0,,0,,,48,127
56665,note_on,1,0,0,,3,,,51,127
56665,note_on,0,0,0,,3,,,75,127
56829,note_off,164,0,0,,3,,,51,127
56830,note_on,1,0,0,,7,,,55,127
56994,note_off,164,0,0,,7,,,55,127
56995,note_on,1,0,0,,0,,,60,127
57159,note_off,164,0,0,,0,,,60,127
57160,note_on,1,0,0,,3,,,63,127
57324,note_off,164,0,0,,3,,,63,127
57324,note_off,0,0,0,,3,,,75,127
57325,note_on,1,0,0,,7,,,67,127
57325,note_on,0,0,0,,2,,,74,127
57489,note_off,164,0,0,,2,,,74,127
57489,note_off,0,0,0,,7,,,67,127
57490,note_on,1,0,0,,8,,,68,127
57490,note_on,0,0,0,,0,,,72,127
57544,note_off,54,0,0,,0,,,72,127
57545,note_on,1,0,0,,2,,,74,127
57599,note_off,54,0,0,,2,,,74,127
57600,note_on,1,0,0,,0,,,72,127
57654,note_off,54,0,0,,0,,,72,127
57655,note_on,1,0,0,,12,,,71,127
57819,note_off,164,0,0,,12,,,71,127
57819,note_off,0,0,0,,8,,,68,127
57820,note_on,1,0,0,,7,,,67,127
57820,note_on,0,0,0,,0,,,72,127
57984,note_off,164,0,0,,0,,,72,127
57984,note_off,0,0,0,,7,,,67,127
57985,note_on,1,0,0,,5,,,65,127
57985,note_on,0,0,0,,7,,,79,127
58149,note_off,164,0,0,,7,,,79,127
58150,note_on,1,0,0,,8,,,80,127
58314,note_off,164,0,0,,8,,,80,127
58314,note_off,0,0,0,,5,,,65,127
58315,note_on,1,0,0,,8,,,68,127
58315,note_on,0,0,0,,0,,,72,127
58479,note_off,164,0,0,,0,,,72,127
58479,note_off,0,0,0,,8,,,68,127
58480,note_on,1,0,0,,7,,,67,127
58480,note_on,0,0,0,,11,,,70,127
58534,note_off,54,0,0,,11,,,70,127
58535,note_on,1,0,0,,0,,,72,127
58589,note_off,54,0,0,,0,,,72,127
58590,note_on,1,0,0,,11,,,70,127
58644,note_off,54,0,0,,11,,,70,127
58645,note_on,1,0,0,,10,,,69,127
58809,note_off,164,0,0,,10,,,69,127
58809,note_off,0,0,0,,7,,,67,127
58810,note_on,1,0,0,,5,,,65,127
58810,note_on,0,0,0,,11,,,70,127
58974,note_off,164,0,0,,11,,,70,127
58974,note_off,0,0,0,,5,,,65,127
58975,note_on,1,0,0,,4,,,64,127
58975,note_on,0,0,0,,5,,,77,127
59139,note_off,164,0,0,,5,,,77,127
59140,note_on,1,0,0,,7,,,79,127
59304,note_off,164,0,0,,7,,,79,127
59304,note_off,0,0,0,,4,,,64,127
59305,note_on,1,0,0,,0,,,60,127
59305,note_on,0,0,0,,11,,,70,127
59469,note_off,164,0,0,,11,,,70,127
59469,note_off,0,0,0,,0,,,60,127
59470,note_on,1,0,0,,5,,,65,127
59470,note_on,0,0,0,,11,,,70,127
59524,note_off,54,0,0,,11,,,70,127
59525,note_on,1,0,0,,8,,,68,127
59579,note_off,54,0,0,,8,,,68,127
59580,note_on,1,0,0,,11,,,70,127
59634,note_off,54,0,0,,11,,,70,127
59634,note_off,0,0,0,,5,,,65,127
59635,note_on,1,0,0,,5,,,53,127
59635,note_on,0,0,0,,8,,,68,127
59689,note_off,54,0,0,,8,,,68,127
59690,note_on,1,0,0,,11,,,70,127
59744,note_off,54,0,0,,11,,,70,127
59745,note_on,1,0,0,,8,,,68,127
59799,note_off,54,0,0,,8,,,68,127
59799,note_off,0,0,0,,5,,,53,127
59800,note_on,1,0,0,,0,,,60,127
59800,note_on,0,0,0,,7,,,67,127
59964,note_off,164,0,0,,0,,,60,127
59965,note_on,1,0,0,,1,,,61,127
60083,note_off,118,0,0,,7,,,67,127
60128,note_off,45,0,0,,1,,,61,127
60129,note_on,1,0,0,,11,,,58,127
60129,note_on,0,0,0,,5,,,65,127
60293,note_off,164,0,0,,5,,,65,127
60293,note_off,0,0,0,,11,,,58,127
60294,note_on,1,0,0,,4,,,64,127
60294,note_on,0,0,0,,11,,,70,127
60458,note_off,164,0,0,,11,,,70,127
60458,note_off,0,0,0,,4,,,64,127
60459,note_on,1,0,0,,5,,,65,127
60459,note_on,0,0,0,,11,,,70,127
60513,note_off,54,0,0,,11,,,70,127
60514,note_on,1,0,0,,8,,,68,127
60568,note_off,54,0,0,,8,,,68,127
60569,note_on,1,0,0,,11,,,70,127
60623,note_off,54,0,0,,11,,,70,127
60623,note_off,0,0,0,,5,,,65,127
60624,note_on,1,0,0,,5,,,53,127
60624,note_on,0,0,0,,8,,,68,127
60678,note_off,54,0,0,,8,,,68,127
60679,note_on,1,0,0,,11,,,70,127
60733,note_off,54,0,0,,11,,,70,127
60734,note_on,1,0,0,,8,,,68,127
60788,note_off,54,0,0,,8,,,68,127
60788,note_off,0,0,0,,5,,,53,127
60789,note_on,1,0,0,,0,,,60,127
60789,note_on,0,0,0,,7,,,67,127
60953,note_off,164,0,0,,0,,,60,127
60954,note_on,1,0,0,,1,,,61,127
61072,note_off,118,0,0,,7,,,67,127
61117,note_off,45,0,0,,1,,,61,127
61118,note_on,1,0,0,,11,,,58,127
61118,note_on,0,0,0,,5,,,65,127
61282,note_off,164,0,0,,5,,,65,127
61282,note_off,0,0,0,,11,,,58,127
61283,note_on,1,0,0,,4,,,64,127
61283,note_on,0,0,0,,11,,,70,127
61447,note_off,164,0,0,,11,,,70,127
61447,note_off,0,0,0,,4,,,64,127
61448,note_on,1,0,0,,5,,,65,127
61448,note_on,0,0,0,,8,,,68,127
61612,note_off,164,0,0,,8,,,68,127
61612,note_off,0,0,0,,5,,,65,127
61613,note_on,1,0,0,,5,,,65,127
61777,note_off,164,0,0,,5,,,65,127
61778,note_on,1,0,0,,8,,,56,127
61778,note_on,0,0,0,,0,,,72,127
61942,note_off,164,0,0,,0,,,72,127
61942,note_off,0,0,0,,8,,,56,127
61943,note_on,1,0,0,,11,,,58,127
61943,note_on,0,0,0,,1,,,73,127
62108,note_on,165,0,0,,11,,,70,127
62132,note_off,24,0,0,,1,,,73,127
62272,note_off,140,0,0,,11,,,70,127
62272,note_off,0,0,0,,11,,,58,127
62273,note_on,1,0,0,,7,,,55,127
62273,note_on,0,0,0,,4,,,76,127
62437,note_off,164,0,0,,4,,,76,127
62437,note_off,0,0,0,,7,,,55,127
62438,note_on,1,0,0,,8,,,56,127
62438,note_on,0,0,0,,5,,,77,127
62603,note_on,165,0,0,,5,,,65,127
62627,note_off,24,0,0,,5,,,77,127
62767,note_off,140,0,0,,5,,,65,127
62767,note_off,0,0,0,,8,,,56,127
62768,note_on,1,0,0,,5,,,53,127
62768,note_on,0,0,0,,0,,,72,127
62932,note_off,164,0,0,,0,,,72,127
62932,note_off,0,0,0,,5,,,53,127
62933,note_on,1,0,0,,11,,,58,127
62933,note_on,0,0,0,,1,,,73,127
63098,note_on,165,0,0,,11,,,70,127
63122,note_off,24,0,0,,1,,,73,127
63262,note_off,140,0,0,,11,,,70,127
63262,note_off,0,0,0,,11,,,58,127
63263,note_on,1,0,0,,7,,,55,127
63263,note_on,0,0,0,,4,,,76,127
63427,note_off,164,0,0,,4,,,76,127
63427,note_off,0,0,0,,7,,,55,127
63428,note_on,1,0,0,,0,,,60,127
63428,note_on,0,0,0,,8,,,56,127
63428,note_on,0,0,0,,5,,,77,127
63593,note_on,165,0,0,,5,,,65,127
63757,note_off,164,0,0,,5,,,77,127
63757,note_off,0,0,0,,8,,,56,127
63757,note_off,0,0,0,,0,,,60,127
63758,note_on,1,0,0,,7,,,55,127
63758,note_on,0,0,0,,7,,,67,127
63758,note_on,0,0,0,,3,,,75,127
63922,note_off,164,0,0,,7,,,67,127
63922,note_off,0,0,0,,7,,,55,127
63922,note_off,0,0,0,,5,,,65,127
63923,note_on,1,0,0,,5,,,53,127
63923,note_on,0,0,0,,5,,,65,127
63923,note_on,0,0,0,,8,,,68,127
64087,note_off,164,0,0,,3,,,75,127
64088,note_on,1,0,0,,2,,,74,127
64252,note_off,164,0,0,,2,,,74,127
64252,note_off,0,0,0,,5,,,53,127
64253,note_on,1,0,0,,8,,,56,127
64253,note_on,0,0,0,,0,,,72,127
64417,note_off,164,0,0,,0,,,72,127
64417,note_off,0,0,0,,8,,,56,127
64417,note_off,0,0,0,,8,,,68,127
64417,note_off,0,0,0,,5,,,65,127
64418,note_on,1,0,0,,7,,,55,127
64418,note_on,0,0,0,,12,,,71,127
64582,note_off,164,0,0,,12,,,71,127
64583,note_on,1,0,0,,7,,,67,127
64747,note_off,164,0,0,,7,,,67,127
64747,note_off,0,0,0,,7,,,55,127
64748,note_on,1,0,0,,12,,,59,127
64748,note_on,0,0,0,,2,,,74,127
64912,note_off,164,0,0,,2,,,74,127
64912,note_off,0,0,0,,12,,,59,127
64913,note_on,1,0,0,,0,,,60,127
64913,note_on,0,0,0,,3,,,75,127
65078,note_on,165,0,0,,0,,,72,127
65102,note_off,24,0,0,,3,,,75,127
65242,note_off,140,0,0,,0,,,72,127
65242,note_off,0,0,0,,0,,,60,127
65243,note_on,1,0,0,,10,,,57,127
65243,note_on,0,0,0,,6,,,78,127
65407,note_off,164,0,0,,6,,,78,127
65407,note_off,0,0,0,,10,,,57,127
65408,note_on,1,0,0,,12,,,59,127
65408,note_on,0,0,0,,7,,,79,127
65573,note_on,165,0,0,,7,,,67,127
65597,note_off,24,0,0,,7,,,79,127
65737,note_off,140,0,0,,7,,,67,127
65737,note_off,0,0,0,,12,,,59,127
65738,note_on,1,0,0,,7,,,55,127
65738,note_on,0,0,0,,2,,,74,127
65902,note_off,164,0,0,,2,,,74,127
65902,note_off,0,0,0,,7,,,55,127
65903,note_on,1,0,0,,0,,,60,127
65903,note_on,0,0,0,,3,,,75,127
66068,note_on,165,0,0,,0,,,72,127
66092,note_off,24,0,0,,3,,,75,127
66232,note_off,140,0,0,,0,,,72,127
66232,note_off,0,0,0,,0,,,60,127
66233,note_on,1,0,0,,10,,,57,127
66233,note_on,0,0,0,,6,,,78,127
66397,note_off,164,0,0,,6,,,78,127
66397,note_off,0,0,0,,10,,,57,127
66398,note_on,1,0,0,,12,,,59,127
66398,note_on,0,0,0,,7,,,79,127
66562,note_off,164,0,0,,7,,,79,127
66562,note_off,0,0,0,,12,,,59,127
66563,note_on,1,0,0,,7,,,55,127
66563,note_on,0,0,0,,7,,,67,127
66727,note_off,164,0,0,,7,,,55,127
66728,note_on,1,0,0,,2,,,62,127
66892,note_off,164,0,0,,2,,,62,127
66892,note_off,0,0,0,,7,,,67,127
66893,note_on,1,0,0,,3,,,63,127
67057,note_off,164,0,0,,3,,,63,127
67058,note_on,1,0,0,,0,,,60,127
67058,note_on,0,0,0,,2,,,74,127
67222,note_off,164,0,0,,2,,,74,127
67222,note_off,0,0,0,,0,,,60,127
67223,note_on,1,0,0,,6,,,66,127
67223,note_on,0,0,0,,0,,,72,127
67387,note_off,164,0,0,,0,,,72,127
67387,note_off,0,0,0,,6,,,66,127
67388,note_on,1,0,0,,7,,,67,127
67388,note_on,0,0,0,,2,,,74,127
67428,note_off,40,0,0,,2,,,74,127
67429,note_on,1,0,0,,0,,,72,127
67469,note_off,40,0,0,,0,,,72,127
67470,note_on,1,0,0,,2,,,74,127
67510,note_off,40,0,0,,2,,,74,127
67511,note_on,1,0,0,,0,,,72,127
67551,note_off,40,0,0,,0,,,72,127
67551,note_off,0,0,0,,7,,,67,127
67552,note_on,1,0,0,,7,,,55,127
67552,note_on,0,0,0,,12,,,71,127
67716,note_off,164,0,0,,7,,,55,127
67717,note_on,1,0,0,,2,,,62,127
67881,note_off,164,0,0,,2,,,62,127
67881,note_off,0,0,0,,12,,,71,127
67882,note_on,1,0,0,,3,,,63,127
68046,note_off,164,0,0,,3,,,63,127
68047,note_on,1,0,0,,0,,,60,127
68047,note_on,0,0,0,,2,,,74,127
68211,note_off,164,0,0,,2,,,74,127
68211,note_off,0,0,0,,0,,,60,127
68212,note_on,1,0,0,,6,,,66,127
68212,note_on,0,0,0,,0,,,72,127
68376,note_off,164,0,0,,0,,,72,127
68376,note_off,0,0,0,,6,,,66,127
68377,note_on,1,0,0,,7,,,67,127
68377,note_on,0,0,0,,2,,,74,127
68417,note_off,40,0,0,,2,,,74,127
68418,note_on,1,0,0,,0,,,72,127
68458,note_off,40,0,0,,0,,,72,127
68459,note_on,1,0,0,,2,,,74,127
68499,note_off,40,0,0,,2,,,74,127
68500,note_on,1,0,0,,0,,,72,127
68540,note_off,40,0,0,,0,,,72,127
68541,note_on,1,0,0,,12,,,71,127
68705,note_off,164,0,0,,12,,,71,127
68705,note_off,0,0,0,,7,,,67,127
68706,note_on,1,0,0,,3,,,63,127
68706,note_on,0,0,0,,7,,,79,127
68870,note_off,164,0,0,,7,,,79,127
68870,note_off,0,0,0,,3,,,63,127
68871,note_on,1,0,0,,5,,,65,127
68871,note_on,0,0,0,,8,,,80,127
69036,note_on,165,0,0,,5,,,77,127
69060,note_off,24,0,0,,8,,,80,127
69200,note_off,140,0,0,,5,,,77,127
69200,note_off,0,0,0,,5,,,65,127
69201,note_on,1,0,0,,2,,,62,127
69201,note_on,0,0,0,,12,,,83,127
69365,note_off,164,0,0,,12,,,83,127
69365,note_off,0,0,0,,2,,,62,127
69366,note_on,1,0,0,,3,,,63,127
69366,note_on,0,0,0,,0,,,84,127
69531,note_on,165,0,0,,0,,,72,127
69555,note_off,24,0,0,,0,,,84,127
69695,note_off,140,0,0,,0,,,72,127
69695,note_off,0,0,0,,3,,,63,127
69696,note_on,1,0,0,,0,,,60,127
69696,note_on,0,0,0,,7,,,79,127
69860,note_off,164,0,0,,7,,,79,127
69860,note_off,0,0,0,,0,,,60,127
69861,note_on,1,0,0,,8,,,56,127
69861,note_on,0,0,0,,8,,,80,127
70026,note_on,165,0,0,,5,,,77,127
70050,note_off,24,0,0,,8,,,80,127
70190,note_off,140,0,0,,5,,,77,127
70190,note_off,0,0,0,,8,,,56,127
70191,note_on,1,0,0,,5,,,53,127
70191,note_on,0,0,0,,12,,,83,127
70355,note_off,164,0,0,,12,,,83,127
70355,note_off,0,0,0,,5,,,53,127
70356,note_on,1,0,0,,3,,,39,127
70356,note_on,0,0,0,,3,,,51,127
70356,note_on,0,0,0,,0,,,84,127
70520,note_off,164,0,0,,0,,,84,127
70521,note_on,1,0,0,,7,,,79,127
70685,note_off,164,0,0,,7,,,79,127
70686,note_on,1,0,0,,3,,,75,127
70850,note_off,164,0,0,,3,,,75,127
70851,note_on,1,0,0,,0,,,72,127
71015,note_off,164,0,0,,0,,,72,127
71015,note_off,0,0,0,,3,,,51,127
71015,note_off,0,0,0,,3,,,39,127
71016,note_on,1,0,0,,7,,,67,127
71180,note_off,164,0,0,,7,,,67,127
71181,note_on,1,0,0,,3,,,63,127
71345,note_off,164,0,0,,3,,,63,127
71346,note_on,1,0,0,,0,,,60,127
71510,note_off,164,0,0,,0,,,60,127
71511,note_on,1,0,0,,7,,,55,127
71675,note_off,164,0,0,,7,,,55,127
71676,note_on,1,0,0,,3,,,51,127
71840,note_off,164,0,0,,3,,,51,127
71841,note_on,1,0,0,,0,,,48,127
72005,note_off,164,0,0,,0,,,48,127
72006,note_on,1,0,0,,7,,,43,127
72170,note_off,164,0,0,,7,,,43,127
72171,note_on,1,0,0,,3,,,39,127
72335,note_off,164,0,0,,3,,,39,127
72336,note_on,1,0,0,,0,,,48,127
72500,note_off,164,0,0,,0,,,48,127
72501,note_on,1,0,0,,7,,,55,127
72665,note_off,164,0,0,,7,,,55,127
72666,note_on,1,0,0,,0,,,60,127
72831,note_on,165,0,0,,0,,,48,127
72996,note_on,165,0,0,,0,,,84,127
73160,note_off,164,0,0,,0,,,84,127
73161,note_on,1,0,0,,7,,,79,127
73325,note_off,164,0,0,,7,,,79,127
73325,note_off,0,0,0,,0,,,48,127
73325,note_off,0,0,0,,0,,,60,127
73326,note_on,1,0,0,,5,,,53,127
73326,note_on,0,0,0,,0,,,60,127
73326,note_on,0,0,0,,11,,,82,127
73490,note_off,164,0,0,,11,,,82,127
73491,note_on,1,0,0,,8,,,80,127
73655,note_off,164,0,0,,8,,,80,127
73656,note_on,1,0,0,,7,,,79,127
73820,note_off,164,0,0,,7,,,79,127
73820,note_off,0,0,0,,5,,,53,127
73821,note_on,1,0,0,,7,,,55,127
73821,note_on,0,0,0,,0,,,72,127
73985,note_off,164,0,0,,0,,,72,127
73985,note_off,0,0,0,,0,,,60,127
73986,note_on,1,0,0,,2,,,74,127
74150,note_off,164,0,0,,2,,,74,127
74151,note_on,1,0,0,,12,,,71,127
74315,note_off,164,0,0,,12,,,71,127
74315,note_off,0,0,0,,7,,,55,127
74316,note_on,1,0,0,,0,,,48,127
74316,note_on,0,0,0,,0,,,60,127
74316,note_on,0,0,0,,0,,,72,127
74480,note_off,164,0,0,,0,,,72,127
74481,note_on,1,0,0,,2,,,74,127
74645,note_off,164,0,0,,2,,,74,127
74646,note_on,1,0,0,,3,,,75,127
74810,note_off,164,0,0,,3,,,75,127
74810,note_off,0,0,0,,0,,,60,127
74810,note_off,0,0,0,,0,,,48,127
74811,note_on,1,0,0,,5,,,65,127
74811,note_on,0,0,0,,12,,,71,127
74811,note_on,0,0,0,,8,,,68,127
74811,note_on,0,0,0,,2,,,74,127
74975,note_off,164,0,0,,2,,,74,127
74976,note_on,1,0,0,,5,,,77,127
75140,note_off,164,0,0,,5,,,77,127
75141,note_on,1,0,0,,8,,,80,127
75305,note_off,164,0,0,,8,,,68,127
75305,note_off,0,0,0,,12,,,71,127
75305,note_off,0,0,0,,5,,,65,127
75306,note_on,1,0,0,,3,,,63,127
75306,note_on,0,0,0,,7,,,67,127
75306,note_on,0,0,0,,0,,,72,127
75470,note_off,164,0,0,,8,,,80,127
75471,note_on,1,0,0,,7,,,79,127
75635,note_off,164,0,0,,7,,,79,127
75636,note_on,1,0,0,,3,,,75,127
75800,note_off,164,0,0,,3,,,75,127
75800,note_off,0,0,0,,7,,,67,127
75800,note_off,0,0,0,,3,,,63,127
75801,note_on,1,0,0,,2,,,62,127
75801,note_on,0,0,0,,5,,,65,127
75801,note_on,0,0,0,,5,,,77,127
75965,note_off,164,0,0,,5,,,77,127
75965,note_off,0,0,0,,0,,,72,127
75966,note_on,1,0,0,,12,,,71,127
75966,note_on,0,0,0,,2,,,74,127
76130,note_off,164,0,0,,2,,,74,127
76131,note_on,1,0,0,,7,,,79,127
76295,note_off,164,0,0,,7,,,79,127
76295,note_off,0,0,0,,12,,,71,127
76295,note_off,0,0,0,,5,,,65,127
76295,note_off,0,0,0,,2,,,62,127
76296,note_on,1,0,0,,0,,,60,127
76296,note_on,0,0,0,,7,,,67,127
76296,note_on,0,0,0,,3,,,75,127
76460,note_off,164,0,0,,3,,,75,127
76461,note_on,1,0,0,,0,,,72,127
76625,note_off,164,0,0,,0,,,72,127
76626,note_on,1,0,0,,3,,,75,127
76790,note_off,164,0,0,,3,,,75,127
76790,note_off,0,0,0,,7,,,67,127
76790,note_off,0,0,0,,0,,,60,127
76791,note_on,1,0,0,,5,,,65,127
76791,note_on,0,0,0,,8,,,68,127
76791,note_on,0,0,0,,12,,,71,127
76791,note_on,0,0,0,,2,,,74,127
76955,note_off,164,0,0,,2,,,74,127
76956,note_on,1,0,0,,5,,,77,127
77120,note_off,164,0,0,,5,,,77,127
77121,note_on,1,0,0,,8,,,80,127
77285,note_off,164,0,0,,12,,,71,127
77285,note_off,0,0,0,,8,,,68,127
77285,note_off,0,0,0,,5,,,65,127
77286,note_on,1,0,0,,3,,,63,127
77286,note_on,0,0,0,,7,,,67,127
77286,note_on,0,0,0,,0,,,72,127
77450,note_off,164,0,0,,8,,,80,127
77451,note_on,1,0,0,,7,,,79,127
77615,note_off,164,0,0,,7,,,79,127
77616,note_on,1,0,0,,3,,,75,127
77780,note_off,164,0,0,,3,,,75,127
77780,note_off,0,0,0,,7,,,67,127
77780,note_off,0,0,0,,3,,,63,127
77781,note_on,1,0,0,,2,,,62,127
77781,note_on,0,0,0,,5,,,65,127
77781,note_on,0,0,0,,5,,,77,127
77945,note_off,164,0,0,,5,,,77,127
77945,note_off,0,0,0,,0,,,72,127
77946,note_on,1,0,0,,12,,,71,127
77946,note_on,0,0,0,,2,,,74,127
78110,note_off,164,0,0,,2,,,74,127
78111,note_on,1,0,0,,7,,,79,127
78275,note_off,164,0,0,,7,,,79,127
78275,note_off,0,0,0,,12,,,71,127
78275,note_off,0,0,0,,5,,,65,127
78275,note_off,0,0,0,,2,,,62,127
78276,note_on,1,0,0,,0,,,60,127
78276,note_on,0,0,0,,7,,,67,127
78276,note_on,0,0,0,,3,,,75,127
78440,note_off,164,0,0,,3,,,75,127
78441,note_on,1,0,0,,0,,,72,127
78605,note_off,164,0,0,,0,,,72,127
78605,note_off,0,0,0,,0,,,60,127
78606,note_on,1,0,0,,3,,,63,127
78606,note_on,0,0,0,,7,,,79,127
78770,note_off,164,0,0,,7,,,79,127
78770,note_off,0,0,0,,3,,,63,127
78770,note_off,0,0,0,,7,,,67,127
78771,note_on,1,0,0,,5,,,65,127
78771,note_on,0,0,0,,8,,,80,127
78936,note_on,165,0,0,,5,,,77,127
78960,note_off,24,0,0,,8,,,80,127
79100,note_off,140,0,0,,5,,,77,127
79100,note_off,0,0,0,,5,,,65,127
79101,note_on,1,0,0,,2,,,62,127
79101,note_on,0,0,0,,12,,,83,127
79265,note_off,164,0,0,,12,,,83,127
79265,note_off,0,0,0,,2,,,62,127
79266,note_on,1,0,0,,3,,,63,127
79266,note_on,0,0,0,,7,,,67,127
79266,note_on,0,0,0,,0,,,84,127
79430,note_off,164,0,0,,0,,,84,127
79431,note_on,1,0,0,,3,,,75,127
79431,note_on,0,0,0,,7,,,79,127
79595,note_off,164,0,0,,7,,,79,127
79595,note_off,0,0,0,,3,,,75,127
79596,note_on,1,0,0,,5,,,77,127
79596,note_on,0,0,0,,2,,,74,127
79760,note_off,164,0,0,,7,,,67,127
79760,note_off,0,0,0,,3,,,63,127
79761,note_on,1,0,0,,12,,,59,127
79761,note_on,0,0,0,,2,,,62,127
79761,note_on,0,0,0,,5,,,65,127
79761,note_on,0,0,0,,7,,,67,127
79925,note_off,164,0,0,,2,,,74,127
79925,note_off,0,0,0,,5,,,77,127
79926,note_on,1,0,0,,3,,,75,127
79926,note_on,0,0,0,,0,,,72,127
80090,note_off,164,0,0,,0,,,72,127
80090,note_off,0,0,0,,3,,,75,127
80091,note_on,1,0,0,,2,,,74,127
80091,note_on,0,0,0,,12,,,71,127
80255,note_off,164,0,0,,12,,,71,127
80255,note_off,0,0,0,,2,,,74,127
80255,note_off,0,0,0,,7,,,67,127
80255,note_off,0,0,0,,5,,,65,127
80255,note_off,0,0,0,,2,,,62,127
80255,note_off,0,0,0,,12,,,59,127
80256,note_on,1,0,0,,0,,,60,127
80256,note_on,0,0,0,,0,,,72,127
80256,note_on,0,0,0,,3,,,75,127
80256,note_on,0,0,0,,5,,,77,127
80420,note_off,164,0,0,,5,,,77,127
80420,note_off,0,0,0,,3,,,75,127
80420,note_off,0,0,0,,0,,,72,127
80421,note_on,1,0,0,,12,,,71,127
80421,note_on,0,0,0,,2,,,74,127
80585,note_off,164,0,0,,2,,,74,127
80585,note_off,0,0,0,,12,,,71,127
80585,note_off,0,0,0,,0,,,60,127
80586,note_on,1,0,0,,8,,,56,127
80586,note_on,0,0,0,,0,,,72,127
80586,note_on,0,0,0,,3,,,75,127
80750,note_off,164,0,0,,3,,,75,127
80750,note_off,0,0,0,,0,,,72,127
80750,note_off,0,0,0,,8,,,56,127
80751,note_on,1,0,0,,5,,,53,127
80751,note_on,0,0,0,,2,,,74,127
80751,note_on,0,0,0,,5,,,77,127
80915,note_off,164,0,0,,5,,,77,127
80915,note_off,0,0,0,,2,,,74,127
80916,note_on,1,0,0,,3,,,75,127
80916,note_on,0,0,0,,0,,,72,127
81080,note_off,164,0,0,,0,,,72,127
81080,note_off,0,0,0,,3,,,75,127
81080,note_off,0,0,0,,5,,,53,127
81081,note_on,1,0,0,,7,,,55,127
81081,note_on,0,0,0,,12,,,71,127
81081,note_on,0,0,0,,2,,,74,127
81245,note_off,164,0,0,,2,,,74,127
81245,note_off,0,0,0,,12,,,71,127
81245,note_off,0,0,0,,7,,,55,127
81246,note_on,1,0,0,,0,,,48,127
81246,note_on,0,0,0,,0,,,72,127
81410,note_off,164,0,0,,0,,,72,127
81411,note_on,1,0,0,,3,,,63,127
81411,note_on,0,0,0,,7,,,67,127
81575,note_off,164,0,0,,7,,,67,127
81575,note_off,0,0,0,,3,,,63,127
81576,note_on,1,0,0,,5,,,65,127
81576,note_on,0,0,0,,2,,,62,127
81740,note_off,164,0,0,,0,,,48,127
81741,note_on,1,0,0,,12,,,47,127
81741,note_on,0,0,0,,7,,,55,127
81741,note_on,0,0,0,,2,,,50,127
81741,note_on,0,0,0,,5,,,53,127
81905,note_off,164,0,0,,2,,,62,127
81905,note_off,0,0,0,,5,,,65,127
81906,note_on,1,0,0,,0,,,60,127
81906,note_on,0,0,0,,3,,,63,127
82070,note_off,164,0,0,,3,,,63,127
82070,note_off,0,0,0,,0,,,60,127
82071,note_on,1,0,0,,12,,,59,127
82071,note_on,0,0,0,,2,,,62,127
82235,note_off,164,0,0,,2,,,62,127
82235,note_off,0,0,0,,12,,,59,127
82235,note_off,0,0,0,,5,,,53,127
82235,note_off,0,0,0,,2,,,50,127
82235,note_off,0,0,0,,7,,,55,127
82235,note_off,0,0,0,,12,,,47,127
82236,note_on,1,0,0,,0,,,48,127
82236,note_on,0,0,0,,0,,,60,127
82236,note_on,0,0,0,,3,,,63,127
82236,note_on,0,0,0,,5,,,65,127
82400,note_off,164,0,0,,5,,,65,127
82400,note_off,0,0,0,,3,,,63,127
82400,note_off,0,0,0,,0,,,60,127
82401,note_on,1,0,0,,2,,,62,127
82401,note_on,0,0,0,,12,,,59,127
82565,note_off,164,0,0,,12,,,59,127
82565,note_off,0,0,0,,2,,,62,127
82565,note_off,0,0,0,,0,,,48,127
82566,note_on,1,0,0,,8,,,44,127
82566,note_on,0,0,0,,0,,,60,127
82566,note_on,0,0,0,,3,,,63,127
82730,note_off,164,0,0,,3,,,63,127
82730,note_off,0,0,0,,0,,,60,127
82730,note_off,0,0,0,,8,,,44,127
82731,note_on,1,0,0,,5,,,41,127
82731,note_on,0,0,0,,2,,,62,127
82731,note_on,0,0,0,,5,,,65,127
82895,note_off,164,0,0,,5,,,65,127
82895,note_off,0,0,0,,2,,,62,127
82896,note_on,1,0,0,,3,,,63,127
82896,note_on,0,0,0,,0,,,60,127
83060,note_off,164,0,0,,0,,,60,127
83060,note_off,0,0,0,,3,,,63,127
83060,note_off,0,0,0,,5,,,41,127
83061,note_on,1,0,0,,7,,,43,127
83061,note_on,0,0,0,,2,,,62,127
83061,note_on,0,0,0,,12,,,59,127
83225,note_off,164,0,0,,12,,,59,127
83225,note_off,0,0,0,,2,,,62,127
83225,note_off,0,0,0,,7,,,43,127
83226,note_on,1,0,0,,0,,,36,127
83226,note_on,0,0,0,,0,,,60,127
83384,note_off,158,0,0,,0,,,60,127
83391,note_on,7,0,0,,3,,,63,127
83514,note_off,123,0,0,,3,,,63,127
83554,note_off,40,0,0,,0,,,36,127
83555,note_on,1,0,0,,7,,,55,127
83555,note_on,0,0,0,,12,,,59,127
83719,note_off,164,0,0,,7,,,55,127
83720,note_on,1,0,0,,10,,,57,127
83884,note_off,164,0,0,,12,,,59,127
83885,note_on,1,0,0,,0,,,60,127
84049,note_off,164,0,0,,0,,,60,127
84049,note_off,0,0,0,,10,,,57,127
84050,note_on,1,0,0,,12,,,59,127
84050,note_on,0,0,0,,2,,,62,127
84214,note_off,164,0,0,,12,,,59,127
84215,note_on,1,0,0,,0,,,60,127
84379,note_off,164,0,0,,2,,,62,127
84380,note_on,1,0,0,,3,,,63,127
84544,note_off,164,0,0,,3,,,63,127
84544,note_off,0,0,0,,0,,,60,127
84545,note_on,1,0,0,,2,,,62,127
84545,note_on,0,0,0,,5,,,65,127
84709,note_off,164,0,0,,2,,,62,127
84710,note_on,1,0,0,,3,,,63,127
84874,note_off,164,0,0,,5,,,65,127
84875,note_on,1,0,0,,7,,,67,127
85039,note_off,164,0,0,,7,,,67,127
85039,note_off,0,0,0,,3,,,63,127
85040,note_on,1,0,0,,5,,,65,127
85040,note_on,0,0,0,,10,,,69,127
85204,note_off,164,0,0,,5,,,65,127
85205,note_on,1,0,0,,7,,,67,127
85369,note_off,164,0,0,,10,,,69,127
85370,note_on,1,0,0,,12,,,71,127
85534,note_off,164,0,0,,12,,,71,127
85534,note_off,0,0,0,,7,,,67,127
85535,note_on,1,0,0,,10,,,69,127
85535,note_on,0,0,0,,0,,,72,127
85699,note_off,164,0,0,,0,,,72,127
85699,note_off,0,0,0,,10,,,69,127
85700,note_on,1,0,0,,12,,,71,127
85700,note_on,0,0,0,,2,,,74,127
85864,note_off,164,0,0,,2,,,74,127
85865,note_on,1,0,0,,3,,,75,127
86029,note_off,164,0,0,,3,,,75,127
86029,note_off,0,0,0,,12,,,71,127
86030,note_on,1,0,0,,7,,,67,127
86030,note_on,0,0,0,,5,,,77,127
86194,note_off,164,0,0,,5,,,77,127
86194,note_off,0,0,0,,7,,,67,127
86195,note_on,1,0,0,,0,,,72,127
86195,note_on,0,0,0,,3,,,75,127
86195,note_on,0,0,0,,5,,,77,127
86359,note_off,164,0,0,,5,,,77,127
86359,note_off,0,0,0,,3,,,75,127
86360,note_on,1,0,0,,2,,,74,127
86524,note_off,164,0,0,,2,,,74,127
86524,note_off,0,0,0,,0,,,72,127
86525,note_on,1,0,0,,8,,,68,127
86525,note_on,0,0,0,,3,,,75,127
86525,note_on,0,0,0,,0,,,72,127
86689,note_off,164,0,0,,0,,,72,127
86689,note_off,0,0,0,,3,,,75,127
86689,note_off,0,0,0,,8,,,68,127
86690,note_on,1,0,0,,5,,,65,127
86690,note_on,0,0,0,,5,,,77,127
86690,note_on,0,0,0,,2,,,74,127
86854,note_off,164,0,0,,2,,,74,127
86854,note_off,0,0,0,,5,,,77,127
86855,note_on,1,0,0,,0,,,72,127
86855,note_on,0,0,0,,3,,,75,127
87019,note_off,164,0,0,,3,,,75,127
87019,note_off,0,0,0,,0,,,72,127
87019,note_off,0,0,0,,5,,,65,127
87020,note_on,1,0,0,,7,,,67,127
87020,note_on,0,0,0,,12,,,71,127
87020,note_on,0,0,0,,2,,,74,127
87184,note_off,164,0,0,,2,,,74,127
87184,note_off,0,0,0,,12,,,71,127
87184,note_off,0,0,0,,7,,,67,127
87185,note_on,1,0,0,,0,,,60,127
87185,note_on,0,0,0,,0,,,72,127
87349,note_off,164,0,0,,0,,,72,127
87350,note_on,1,0,0,,7,,,79,127
87473,note_off,123,0,0,,7,,,79,127
87513,note_off,40,0,0,,0,,,60,127
87514,note_on,1,0,0,,7,,,55,127
87514,note_on,0,0,0,,12,,,59,127
87678,note_off,164,0,0,,7,,,55,127
87679,note_on,1,0,0,,10,,,57,127
87843,note_off,164,0,0,,12,,,59,127
87844,note_on,1,0,0,,0,,,60,127
88008,note_off,164,0,0,,0,,,60,127
88008,note_off,0,0,0,,10,,,57,127
88009,note_on,1,0,0,,12,,,59,127
88009,note_on,0,0,0,,2,,,62,127
88173,note_off,164,0,0,,12,,,59,127
88174,note_on,1,0,0,,0,,,60,127
88338,note_off,164,0,0,,2,,,62,127
88339,note_on,1,0,0,,3,,,63,127
88503,note_off,164,0,0,,3,,,63,127
88503,note_off,0,0,0,,0,,,60,127
88504,note_on,1,0,0,,2,,,62,127
88504,note_on,0,0,0,,5,,,65,127
88668,note_off,164,0,0,,2,,,62,127
88669,note_on,1,0,0,,3,,,63,127
88833,note_off,164,0,0,,5,,,65,127
88834,note_on,1,0,0,,7,,,67,127
88998,note_off,164,0,0,,7,,,67,127
88998,note_off,0,0,0,,3,,,63,127
88999,note_on,1,0,0,,5,,,65,127
88999,note_on,0,0,0,,10,,,69,127
89163,note_off,164,0,0,,5,,,65,127
89164,note_on,1,0,0,,7,,,67,127
89328,note_off,164,0,0,,10,,,69,127
89329,note_on,1,0,0,,12,,,71,127
89493,note_off,164,0,0,,12,,,71,127
89493,note_off,0,0,0,,7,,,67,127
89494,note_on,1,0,0,,10,,,69,127
89494,note_on,0,0,0,,0,,,72,127
89658,note_off,164,0,0,,0,,,72,127
89658,note_off,0,0,0,,10,,,69,127
89659,note_on,1,0,0,,12,,,71,127
89659,note_on,0,0,0,,2,,,74,127
89823,note_off,164,0,0,,2,,,74,127
89824,note_on,1,0,0,,3,,,75,127
89988,note_off,164,0,0,,3,,,75,127
89988,note_off,0,0,0,,12,,,71,127
89989,note_on,1,0,0,,7,,,67,127
89989,note_on,0,0,0,,5,,,77,127
90153,note_off,164,0,0,,5,,,77,127
90153,note_off,0,0,0,,7,,,67,127
90154,note_on,1,0,0,,0,,,72,127
90154,note_on,0,0,0,,3,,,75,127
90154,note_on,0,0,0,,5,,,77,127
90318,note_off,164,0,0,,5,,,77,127
90318,note_off,0,0,0,,3,,,75,127
90319,note_on,1,0,0,,2,,,74,127
90483,note_off,164,0,0,,2,,,74,127
90483,note_off,0,0,0,,0,,,72,127
90484,note_on,1,0,0,,8,,,68,127
90484,note_on,0,0,0,,0,,,72,127
90484,note_on,0,0,0,,3,,,75,127
90648,note_off,164,0,0,,3,,,75,127
90648,note_off,0,0,0,,0,,,72,127
90648,note_off,0,0,0,,8,,,68,127
90649,note_on,1,0,0,,5,,,65,127
90649,note_on,0,0,0,,2,,,74,127
90649,note_on,0,0,0,,5,,,77,127
90813,note_off,164,0,0,,5,,,77,127
90813,note_off,0,0,0,,2,,,74,127
90814,note_on,1,0,0,,0,,,72,127
90814,note_on,0,0,0,,3,,,75,127
90978,note_off,164,0,0,,3,,,75,127
90978,note_off,0,0,0,,0,,,72,127
90978,note_off,0,0,0,,5,,,65,127
90979,note_on,1,0,0,,7,,,67,127
90979,note_on,0,0,0,,2,,,74,127
90979,note_on,0,0,0,,12,,,71,127
91143,note_off,164,0,0,,12,,,71,127
91143,note_off,0,0,0,,2,,,74,127
91143,note_off,0,0,0,,7,,,67,127
91144,note_on,1,0,0,,0,,,60,127
91144,note_on,0,0,0,,7,,,67,127
91144,note_on,0,0,0,,0,,,72,127
91308,note_off,164,0,0,,0,,,72,127
91309,note_on,1,0,0,,8,,,80,127
91473,note_off,164,0,0,,8,,,80,127
91474,note_on,1,0,0,,7,,,79,127
91638,note_off,164,0,0,,7,,,79,127
91638,note_off,0,0,0,,7,,,67,127
91638,note_off,0,0,0,,0,,,60,127
91639,note_on,1,0,0,,7,,,67,127
91639,note_on,0,0,0,,12,,,59,127
91639,note_on,0,0,0,,5,,,77,127
91639,note_on,0,0,0,,7,,,79,127
91803,note_off,164,0,0,,7,,,79,127
91803,note_off,0,0,0,,5,,,77,127
91804,note_on,1,0,0,,3,,,75,127
91968,note_off,164,0,0,,3,,,75,127
91968,note_off,0,0,0,,12,,,59,127
91969,note_on,1,0,0,,7,,,55,127
91969,note_on,0,0,0,,2,,,74,127
92133,note_off,164,0,0,,2,,,74,127
92133,note_off,0,0,0,,7,,,55,127
92134,note_on,1,0,0,,8,,,56,127
92134,note_on,0,0,0,,0,,,72,127
92188,note_off,54,0,0,,0,,,72,127
92189,note_on,1,0,0,,2,,,74,127
92243,note_off,54,0,0,,2,,,74,127
92244,note_on,1,0,0,,0,,,72,127
92298,note_off,54,0,0,,0,,,72,127
92299,note_on,1,0,0,,12,,,71,127
92463,note_off,164,0,0,,12,,,71,127
92463,note_off,0,0,0,,7,,,67,127
92464,note_on,1,0,0,,5,,,65,127
92464,note_on,0,0,0,,0,,,72,127
92464,note_on,0,0,0,,3,,,75,127
92628,note_off,164,0,0,,3,,,75,127
92628,note_off,0,0,0,,0,,,72,127
92628,note_off,0,0,0,,8,,,56,127
92629,note_on,1,0,0,,5,,,53,127
92629,note_on,0,0,0,,2,,,74,127
92629,note_on,0,0,0,,5,,,77,127
92793,note_off,164,0,0,,5,,,77,127
92793,note_off,0,0,0,,2,,,74,127
92794,note_on,1,0,0,,0,,,72,127
92794,note_on,0,0,0,,3,,,75,127
92958,note_off,164,0,0,,3,,,75,127
92958,note_off,0,0,0,,0,,,72,127
92958,note_off,0,0,0,,5,,,53,127
92959,note_on,1,0,0,,7,,,55,127
92959,note_on,0,0,0,,2,,,74,127
92959,note_on,0,0,0,,12,,,71,127
93123,note_off,164,0,0,,12,,,71,127
93123,note_off,0,0,0,,2,,,74,127
93123,note_off,0,0,0,,7,,,55,127
93123,note_off,0,0,0,,5,,,65,127
93126,note_on,3,0,0,,0,,,72,127
93126,note_on,0,0,0,,7,,,55,127
93126,note_on,0,0,0,,0,,,48,127
93292,note_off,166,0,0,,0,,,72,127
93295,note_on,3,0,0,,8,,,68,127
93461,note_off,166,0,0,,8,,,68,127
93464,note_on,3,0,0,,7,,,67,127
93627,note_off,163,0,0,,0,,,48,127
93627,note_off,0,0,0,,7,,,55,127
93630,note_off,3,0,0,,7,,,67,127
93633,note_on,3,0,0,,7,,,67,127
93633,note_on,0,0,0,,5,,,65,127
93633,note_on,0,0,0,,7,,,55,127
93633,note_on,0,0,0,,12,,,47,127
93799,note_off,166,0,0,,5,,,65,127
93799,note_off,0,0,0,,7,,,67,127
93802,note_on,3,0,0,,3,,,63,127
93967,note_off,165,0,0,,12,,,47,127
93968,note_off,1,0,0,,3,,,63,127
93971,note_on,3,0,0,,2,,,62,127
93971,note_on,0,0,0,,7,,,43,127
94137,note_off,166,0,0,,7,,,43,127
94137,note_off,0,0,0,,2,,,62,127
94140,note_on,3,0,0,,2,,,62,127
94140,note_on,0,0,0,,8,,,44,127
94222,note_off,82,0,0,,2,,,62,127
94225,note_on,3,0,0,,0,,,60,127
94307,note_off,82,0,0,,0,,,60,127
94310,note_on,3,0,0,,12,,,59,127
94470,note_off,160,0,0,,7,,,55,127
94476,note_off,6,0,0,,12,,,59,127
94479,note_on,3,0,0,,3,,,63,127
94479,note_on,0,0,0,,0,,,60,127
94479,note_on,0,0,0,,5,,,53,127
94643,note_off,164,0,0,,8,,,44,127
94646,note_off,3,0,0,,5,,,53,127
94646,note_off,0,0,0,,0,,,60,127
94646,note_off,0,0,0,,3,,,63,127
94649,note_on,3,0,0,,5,,,65,127
94649,note_on,0,0,0,,2,,,62,127
94649,note_on,0,0,0,,5,,,53,127
94649,note_on,0,0,0,,5,,,41,127
94815,note_off,166,0,0,,2,,,62,127
94815,note_off,0,0,0,,5,,,65,127
94818,note_on,3,0,0,,3,,,63,127
94818,note_on,0,0,0,,0,,,60,127
94983,note_off,165,0,0,,5,,,41,127
94985,note_off,2,0,0,,0,,,60,127
94985,note_off,0,0,0,,3,,,63,127
94988,note_on,3,0,0,,12,,,59,127
94988,note_on,0,0,0,,2,,,62,127
94988,note_on,0,0,0,,7,,,43,127
95151,note_off,163,0,0,,5,,,53,127
95154,note_off,3,0,0,,7,,,43,127
95154,note_off,0,0,0,,2,,,62,127
95154,note_off,0,0,0,,12,,,59,127
95169,note_on,15,0,0,,0,,,48,127
95169,note_on,0,0,0,,2,,,62,127
95169,note_on,0,0,0,,12,,,59,127
95169,note_on,0,0,0,,0,,,36,127
95664,note_off,495,0,0,,12,,,59,127
95705,note_off,41,0,0,,2,,,62,127
95713,note_on,8,0,0,,0,,,60,127
97276,note_off,1563,0,0,,0,,,60,127
97284,note_off,8,0,0,,0,,,36,127
97284,note_off,0,0,0,,0,,,48,127
101376,end_of_track,4092,1,0,,,,,,
