tick,type,time,meta,track,program,channel,pitch,tempo,note,velocity
0,copyright,0,1,0,,,,,,
0,program_change,0,0,0,6,0,,,,
0,pitchwheel,0,0,0,,0,0,,,
0,program_change,0,0,0,6,1,,,,
0,pitchwheel,0,0,0,,1,-590,,,
0,program_change,0,0,0,6,2,,,,
0,pitchwheel,0,0,0,,2,-272,,,
0,program_change,0,0,0,6,3,,,,
0,pitchwheel,0,0,0,,3,-353,,,
0,program_change,0,0,0,6,4,,,,
0,pitchwheel,0,0,0,,4,-560,,,
0,program_change,0,0,0,6,5,,,,
0,pitchwheel,0,0,0,,5,-80,,,
0,program_change,0,0,0,6,6,,,,
0,pitchwheel,0,0,0,,6,-625,,,
0,program_change,0,0,0,6,7,,,,
0,pitchwheel,0,0,0,,7,-130,,,
0,program_change,0,0,0,6,8,,,,
0,pitchwheel,0,0,0,,8,-512,,,
0,program_change,0,0,0,6,10,,,,
0,pitchwheel,0,0,0,,10,-464,,,
0,program_change,0,0,0,6,11,,,,
0,pitchwheel,0,0,0,,11,-208,,,
0,program_change,0,0,0,6,12,,,,
0,pitchwheel,0,0,0,,12,-553,,,
0,set_tempo,0,1,0,,,,500000,,
99,note_on,99,0,0,,3,,,75,127
298,note_on,199,0,0,,0,,,60,127
496,note_off,198,0,0,,0,,,60,127
497,note_on,1,0,0,,11,,,58,127
695,note_off,198,0,0,,11,,,58,127
695,note_off,0,0,0,,3,,,75,127
696,note_on,1,0,0,,8,,,56,127
696,note_on,0,0,0,,8,,,80,127
894,note_off,198,0,0,,8,,,56,127
895,note_on,1,0,0,,11,,,58,127
1093,note_off,198,0,0,,11,,,58,127
1094,note_on,1,0,0,,0,,,60,127
1292,note_off,198,0,0,,0,,,60,127
1292,note_off,0,0,0,,8,,,80,127
1293,note_on,1,0,0,,1,,,49,127
1293,note_on,0,0,0,,5,,,77,127
1491,note_off,198,0,0,,5,,,77,127
1492,note_on,1,0,0,,1,,,73,127
1690,note_off,198,0,0,,1,,,73,127
1691,note_on,1,0,0,,11,,,70,127
1889,note_off,198,0,0,,11,,,70,127
1889,note_off,0,0,0,,1,,,49,127
1890,note_on,1,0,0,,3,,,51,127
1890,note_on,0,0,0,,7,,,67,127
2089,note_on,199,0,0,,1,,,61,127
2188,note_off,99,0,0,,7,,,67,127
2286,note_off,98,0,0,,1,,,61,127
2287,note_on,1,0,0,,11,,,58,127
2485,note_off,198,0,0,,11,,,58,127
2485,note_off,0,0,0,,3,,,51,127
2486,note_on,1,0,0,,8,,,44,127
2486,note_on,0,0,0,,0,,,60,127
2685,note_on,199,0,0,,3,,,63,127
2883,note_off,198,0,0,,3,,,63,127
2884,note_on,1,0,0,,8,,,68,127
3082,note_off,198,0,0,,0,,,60,127
3082,note_off,0,0,0,,8,,,44,127
3083,note_on,1,0,0,,3,,,51,127
3083,note_on,0,0,0,,11,,,58,127
3281,note_off,198,0,0,,8,,,68,127
3282,note_on,1,0,0,,7,,,67,127
3480,note_off,198,0,0,,7,,,67,127
3480,note_off,0,0,0,,11,,,58,127
3480,note_off,0,0,0,,3,,,51,127
3481,note_on,1,0,0,,1,,,49,127
3481,note_on,0,0,0,,11,,,70,127
3481,note_on,0,0,0,,1,,,61,127
3679,note_off,198,0,0,,1,,,61,127
3679,note_off,0,0,0,,1,,,49,127
3680,note_on,1,0,0,,0,,,48,127
3680,note_on,0,0,0,,0,,,60,127
3878,note_off,198,0,0,,11,,,70,127
3879,note_on,1,0,0,,8,,,68,127
4077,note_off,198,0,0,,8,,,68,127
4077,note_off,0,0,0,,0,,,60,127
4077,note_off,0,0,0,,0,,,48,127
4078,note_on,1,0,0,,8,,,44,127
4078,note_on,0,0,0,,0,,,72,127
4078,note_on,0,0,0,,3,,,63,127
4276,note_off,198,0,0,,8,,,44,127
4277,note_on,1,0,0,,3,,,39,127
4475,note_off,198,0,0,,3,,,63,127
4475,note_off,0,0,0,,0,,,72,127
4476,note_on,1,0,0,,11,,,70,127
4674,note_off,198,0,0,,11,,,70,127
4674,note_off,0,0,0,,3,,,39,127
4675,note_on,1,0,0,,3,,,51,127
4675,note_on,0,0,0,,1,,,73,127
4873,note_off,198,0,0,,3,,,51,127
4874,note_on,1,0,0,,8,,,44,127
5072,note_off,198,0,0,,1,,,73,127
5073,note_on,1,0,0,,0,,,72,127
5171,note_off,98,0,0,,0,,,72,127
5172,note_on,1,0,0,,11,,,70,127
5270,note_off,98,0,0,,11,,,70,127
5270,note_off,0,0,0,,8,,,44,127
5271,note_on,1,0,0,,8,,,56,127
5271,note_on,0,0,0,,8,,,68,127
5395,note_off,124,0,0,,8,,,68,127
5395,note_off,0,0,0,,8,,,56,127
5668,note_on,273,0,0,,8,,,56,127
5668,note_on,0,0,0,,1,,,61,127
5668,note_on,0,0,0,,11,,,70,127
5717,note_off,49,0,0,,8,,,56,127
5718,note_on,1,0,0,,6,,,54,127
5767,note_off,49,0,0,,6,,,54,127
5768,note_on,1,0,0,,8,,,56,127
5817,note_off,49,0,0,,8,,,56,127
5818,note_on,1,0,0,,6,,,54,127
5867,note_off,49,0,0,,6,,,54,127
5867,note_off,0,0,0,,11,,,70,127
5867,note_off,0,0,0,,1,,,61,127
5868,note_on,1,0,0,,5,,,53,127
5868,note_on,0,0,0,,0,,,60,127
5868,note_on,0,0,0,,10,,,69,127
6066,note_off,198,0,0,,10,,,69,127
6066,note_off,0,0,0,,0,,,60,127
6066,note_off,0,0,0,,5,,,53,127
6067,note_on,1,0,0,,3,,,51,127
6067,note_on,0,0,0,,1,,,61,127
6067,note_on,0,0,0,,11,,,70,127
6265,note_off,198,0,0,,11,,,70,127
6265,note_off,0,0,0,,1,,,61,127
6265,note_off,0,0,0,,3,,,51,127
6266,note_on,1,0,0,,1,,,49,127
6266,note_on,0,0,0,,1,,,73,127
6266,note_on,0,0,0,,5,,,65,127
6331,note_off,65,0,0,,1,,,49,127
6332,note_on,1,0,0,,3,,,51,127
6397,note_off,65,0,0,,3,,,51,127
6398,note_on,1,0,0,,1,,,49,127
6463,note_off,65,0,0,,1,,,49,127
6463,note_off,0,0,0,,5,,,65,127
6463,note_off,0,0,0,,1,,,73,127
6464,note_on,1,0,0,,0,,,48,127
6464,note_on,0,0,0,,4,,,64,127
6464,note_on,0,0,0,,0,,,72,127
6662,note_off,198,0,0,,0,,,72,127
6662,note_off,0,0,0,,4,,,64,127
6662,note_off,0,0,0,,0,,,48,127
6663,note_on,1,0,0,,11,,,46,127
6663,note_on,0,0,0,,5,,,65,127
6663,note_on,0,0,0,,1,,,73,127
6861,note_off,198,0,0,,1,,,73,127
6861,note_off,0,0,0,,5,,,65,127
6861,note_off,0,0,0,,11,,,46,127
6862,note_on,1,0,0,,8,,,44,127
6862,note_on,0,0,0,,5,,,77,127
6862,note_on,0,0,0,,8,,,68,127
6927,note_off,65,0,0,,8,,,44,127
6928,note_on,1,0,0,,11,,,46,127
6993,note_off,65,0,0,,11,,,46,127
6994,note_on,1,0,0,,8,,,44,127
7059,note_off,65,0,0,,8,,,44,127
7059,note_off,0,0,0,,8,,,68,127
7059,note_off,0,0,0,,5,,,77,127
7060,note_on,1,0,0,,7,,,43,127
7060,note_on,0,0,0,,4,,,76,127
7060,note_on,0,0,0,,7,,,67,127
7258,note_off,198,0,0,,7,,,67,127
7258,note_off,0,0,0,,4,,,76,127
7258,note_off,0,0,0,,7,,,43,127
7259,note_on,1,0,0,,5,,,41,127
7259,note_on,0,0,0,,4,,,76,127
7259,note_on,0,0,0,,7,,,67,127
7457,note_off,198,0,0,,5,,,41,127
7458,note_on,1,0,0,,8,,,44,127
7656,note_off,198,0,0,,8,,,44,127
7656,note_off,0,0,0,,7,,,67,127
7656,note_off,0,0,0,,4,,,76,127
7657,note_on,1,0,0,,7,,,43,127
7657,note_on,0,0,0,,5,,,77,127
7657,note_on,0,0,0,,5,,,65,127
7855,note_off,198,0,0,,5,,,65,127
7855,note_off,0,0,0,,5,,,77,127
7855,note_off,0,0,0,,7,,,43,127
7856,note_on,1,0,0,,5,,,41,127
8055,note_on,199,0,0,,8,,,68,127
8055,note_on,0,0,0,,0,,,60,127
8249,note_off,194,0,0,,5,,,41,127
8252,note_off,3,0,0,,0,,,60,127
8252,note_off,0,0,0,,8,,,68,127
8253,note_on,1,0,0,,7,,,67,127
8253,note_on,0,0,0,,12,,,59,127
8451,note_off,198,0,0,,12,,,59,127
8451,note_off,0,0,0,,7,,,67,127
8452,note_on,1,0,0,,0,,,60,127
8452,note_on,0,0,0,,8,,,68,127
8650,note_off,198,0,0,,8,,,68,127
8650,note_off,0,0,0,,0,,,60,127
8651,note_on,1,0,0,,5,,,53,127
8651,note_on,0,0,0,,3,,,63,127
8651,note_on,0,0,0,,0,,,72,127
8700,note_off,49,0,0,,5,,,53,127
8701,note_on,1,0,0,,3,,,51,127
8750,note_off,49,0,0,,3,,,51,127
8751,note_on,1,0,0,,5,,,53,127
8800,note_off,49,0,0,,5,,,53,127
8801,note_on,1,0,0,,3,,,51,127
8850,note_off,49,0,0,,3,,,51,127
8850,note_off,0,0,0,,0,,,72,127
8850,note_off,0,0,0,,3,,,63,127
8851,note_on,1,0,0,,2,,,50,127
8851,note_on,0,0,0,,12,,,71,127
8851,note_on,0,0,0,,2,,,62,127
9049,note_off,198,0,0,,2,,,62,127
9049,note_off,0,0,0,,12,,,71,127
9049,note_off,0,0,0,,2,,,50,127
9050,note_on,1,0,0,,0,,,48,127
9050,note_on,0,0,0,,3,,,63,127
9050,note_on,0,0,0,,0,,,72,127
9248,note_off,198,0,0,,0,,,72,127
9248,note_off,0,0,0,,3,,,63,127
9248,note_off,0,0,0,,0,,,48,127
9249,note_on,1,0,0,,7,,,55,127
9249,note_on,0,0,0,,3,,,75,127
9249,note_on,0,0,0,,7,,,67,127
9447,note_off,198,0,0,,3,,,75,127
9448,note_on,1,0,0,,7,,,43,127
9448,note_on,0,0,0,,2,,,74,127
9642,note_off,194,0,0,,7,,,55,127
9645,note_off,3,0,0,,2,,,74,127
9645,note_off,0,0,0,,7,,,43,127
9646,note_on,1,0,0,,0,,,48,127
9646,note_on,0,0,0,,5,,,77,127
9711,note_off,65,0,0,,5,,,77,127
9712,note_on,1,0,0,,3,,,75,127
9777,note_off,65,0,0,,3,,,75,127
9778,note_on,1,0,0,,5,,,77,127
9843,note_off,65,0,0,,5,,,77,127
9844,note_on,1,0,0,,3,,,75,127
9942,note_off,98,0,0,,3,,,75,127
9943,note_on,1,0,0,,2,,,74,127
10041,note_off,98,0,0,,2,,,74,127
10041,note_off,0,0,0,,7,,,67,127
10042,note_on,1,0,0,,0,,,36,127
10042,note_on,0,0,0,,0,,,72,127
10240,note_off,198,0,0,,0,,,72,127
10240,note_off,0,0,0,,0,,,36,127
10240,note_off,0,0,0,,0,,,48,127
10241,note_on,1,0,0,,3,,,51,127
10440,note_on,199,0,0,,7,,,67,127
10440,note_on,0,0,0,,7,,,79,127
10638,note_off,198,0,0,,7,,,79,127
10639,note_on,1,0,0,,0,,,60,127
10639,note_on,0,0,0,,3,,,75,127
10837,note_off,198,0,0,,3,,,75,127
10837,note_off,0,0,0,,3,,,51,127
10838,note_on,1,0,0,,5,,,53,127
10838,note_on,0,0,0,,2,,,74,127
11036,note_off,198,0,0,,2,,,74,127
11036,note_off,0,0,0,,0,,,60,127
11037,note_on,1,0,0,,2,,,62,127
11037,note_on,0,0,0,,5,,,77,127
11235,note_off,198,0,0,,5,,,77,127
11235,note_off,0,0,0,,5,,,53,127
11236,note_on,1,0,0,,7,,,55,127
11236,note_on,0,0,0,,2,,,74,127
11434,note_off,198,0,0,,2,,,74,127
11434,note_off,0,0,0,,7,,,55,127
11435,note_off,1,0,0,,7,,,67,127
11435,note_on,0,0,0,,8,,,56,127
11435,note_on,0,0,0,,0,,,72,127
11633,note_off,198,0,0,,0,,,72,127
11633,note_off,0,0,0,,2,,,62,127
11634,note_on,1,0,0,,3,,,63,127
11634,note_on,0,0,0,,3,,,75,127
11832,note_off,198,0,0,,3,,,75,127
11832,note_off,0,0,0,,3,,,63,127
11833,note_on,1,0,0,,5,,,65,127
11833,note_on,0,0,0,,0,,,72,127
12031,note_off,198,0,0,,0,,,72,127
12031,note_off,0,0,0,,5,,,65,127
12031,note_off,0,0,0,,8,,,56,127
12032,note_on,1,0,0,,3,,,63,127
12032,note_on,0,0,0,,7,,,55,127
12032,note_on,0,0,0,,2,,,74,127
12081,note_off,49,0,0,,2,,,74,127
12082,note_on,1,0,0,,0,,,72,127
12131,note_off,49,0,0,,0,,,72,127
12132,note_on,1,0,0,,2,,,74,127
12181,note_off,49,0,0,,2,,,74,127
12182,note_on,1,0,0,,0,,,72,127
12231,note_off,49,0,0,,0,,,72,127
12231,note_off,0,0,0,,3,,,63,127
12232,note_on,1,0,0,,2,,,62,127
12232,note_on,0,0,0,,12,,,71,127
12430,note_off,198,0,0,,7,,,55,127
12431,note_on,1,0,0,,5,,,53,127
12629,note_off,198,0,0,,5,,,53,127
12629,note_off,0,0,0,,12,,,71,127
12629,note_off,0,0,0,,2,,,62,127
12630,note_on,1,0,0,,3,,,51,127
12829,note_on,199,0,0,,7,,,79,127
12829,note_on,0,0,0,,7,,,67,127
13028,note_on,199,0,0,,0,,,60,127
13126,note_off,98,0,0,,7,,,79,127
13127,note_on,1,0,0,,5,,,77,127
13176,note_off,49,0,0,,5,,,77,127
13177,note_on,1,0,0,,3,,,75,127
13226,note_off,49,0,0,,3,,,75,127
13226,note_off,0,0,0,,3,,,51,127
13227,note_on,1,0,0,,5,,,53,127
13227,note_on,0,0,0,,2,,,74,127
13425,note_off,198,0,0,,2,,,74,127
13425,note_off,0,0,0,,0,,,60,127
13426,note_on,1,0,0,,2,,,62,127
13426,note_on,0,0,0,,5,,,77,127
13624,note_off,198,0,0,,5,,,53,127
13625,note_on,1,0,0,,7,,,55,127
13723,note_off,98,0,0,,5,,,77,127
13724,note_on,1,0,0,,3,,,75,127
13773,note_off,49,0,0,,3,,,75,127
13774,note_on,1,0,0,,2,,,74,127
13823,note_off,49,0,0,,2,,,74,127
13823,note_off,0,0,0,,7,,,55,127
13824,note_off,1,0,0,,7,,,67,127
13824,note_on,0,0,0,,8,,,56,127
13824,note_on,0,0,0,,0,,,72,127
14022,note_off,198,0,0,,0,,,72,127
14022,note_off,0,0,0,,2,,,62,127
14023,note_on,1,0,0,,3,,,63,127
14023,note_on,0,0,0,,3,,,75,127
14221,note_off,198,0,0,,3,,,63,127
14222,note_on,1,0,0,,5,,,65,127
14320,note_off,98,0,0,,3,,,75,127
14321,note_on,1,0,0,,2,,,74,127
14370,note_off,49,0,0,,2,,,74,127
14371,note_on,1,0,0,,0,,,72,127
14420,note_off,49,0,0,,0,,,72,127
14420,note_off,0,0,0,,5,,,65,127
14420,note_off,0,0,0,,8,,,56,127
14421,note_on,1,0,0,,7,,,67,127
14421,note_on,0,0,0,,2,,,74,127
14486,note_off,65,0,0,,2,,,74,127
14487,note_on,1,0,0,,0,,,72,127
14552,note_off,65,0,0,,0,,,72,127
14553,note_on,1,0,0,,2,,,74,127
14618,note_off,65,0,0,,2,,,74,127
14618,note_off,0,0,0,,7,,,67,127
14619,note_on,1,0,0,,7,,,55,127
14619,note_on,0,0,0,,0,,,72,127
14684,note_off,65,0,0,,0,,,72,127
14685,note_on,1,0,0,,12,,,71,127
14750,note_off,65,0,0,,12,,,71,127
14751,note_on,1,0,0,,0,,,72,127
14816,note_off,65,0,0,,0,,,72,127
14817,note_on,1,0,0,,7,,,43,127
14817,note_on,0,0,0,,12,,,71,127
15011,note_off,194,0,0,,7,,,55,127
15014,note_off,3,0,0,,12,,,71,127
15014,note_off,0,0,0,,7,,,43,127
15015,note_on,1,0,0,,7,,,55,127
15214,note_on,199,0,0,,2,,,74,127
15214,note_on,0,0,0,,12,,,71,127
15412,note_off,198,0,0,,12,,,71,127
15412,note_off,0,0,0,,2,,,74,127
15412,note_off,0,0,0,,7,,,55,127
15413,note_on,1,0,0,,3,,,75,127
15413,note_on,0,0,0,,0,,,72,127
15611,note_off,198,0,0,,0,,,72,127
15611,note_off,0,0,0,,3,,,75,127
15612,note_on,1,0,0,,0,,,72,127
15612,note_on,0,0,0,,3,,,75,127
15810,note_off,198,0,0,,3,,,75,127
15810,note_off,0,0,0,,0,,,72,127
15811,note_on,1,0,0,,8,,,56,127
15811,note_on,0,0,0,,5,,,65,127
15811,note_on,0,0,0,,12,,,71,127
15811,note_on,0,0,0,,2,,,74,127
16009,note_off,198,0,0,,5,,,65,127
16009,note_off,0,0,0,,8,,,56,127
16010,note_on,1,0,0,,7,,,67,127
16010,note_on,0,0,0,,7,,,55,127
16208,note_off,198,0,0,,7,,,55,127
16208,note_off,0,0,0,,7,,,67,127
16208,note_off,0,0,0,,2,,,74,127
16208,note_off,0,0,0,,12,,,71,127
16209,note_on,1,0,0,,5,,,65,127
16209,note_on,0,0,0,,8,,,56,127
16408,note_on,199,0,0,,2,,,74,127
16408,note_on,0,0,0,,12,,,71,127
16606,note_off,198,0,0,,12,,,71,127
16606,note_off,0,0,0,,2,,,74,127
16607,note_on,1,0,0,,3,,,75,127
16607,note_on,0,0,0,,0,,,72,127
16805,note_off,198,0,0,,0,,,72,127
16805,note_off,0,0,0,,3,,,75,127
16805,note_off,0,0,0,,8,,,56,127
16805,note_off,0,0,0,,5,,,65,127
16806,note_on,1,0,0,,3,,,75,127
16806,note_on,0,0,0,,0,,,72,127
17004,note_off,198,0,0,,0,,,72,127
17004,note_off,0,0,0,,3,,,75,127
17005,note_on,1,0,0,,5,,,65,127
17005,note_on,0,0,0,,8,,,56,127
17005,note_on,0,0,0,,12,,,71,127
17005,note_on,0,0,0,,2,,,74,127
17203,note_off,198,0,0,,8,,,56,127
17203,note_off,0,0,0,,5,,,65,127
17204,note_on,1,0,0,,7,,,67,127
17204,note_on,0,0,0,,7,,,55,127
17402,note_off,198,0,0,,7,,,55,127
17402,note_off,0,0,0,,7,,,67,127
17403,note_on,1,0,0,,8,,,56,127
17403,note_on,0,0,0,,5,,,65,127
17601,note_off,198,0,0,,5,,,65,127
17601,note_off,0,0,0,,8,,,56,127
17601,note_off,0,0,0,,2,,,74,127
17601,note_off,0,0,0,,12,,,71,127
17602,note_on,1,0,0,,7,,,55,127
17602,note_on,0,0,0,,3,,,63,127
17602,note_on,0,0,0,,0,,,72,127
17800,note_off,198,0,0,,0,,,72,127
17800,note_off,0,0,0,,3,,,63,127
17800,note_off,0,0,0,,7,,,55,127
17801,note_on,1,0,0,,2,,,62,127
17801,note_on,0,0,0,,5,,,53,127
17801,note_on,0,0,0,,2,,,74,127
17999,note_off,198,0,0,,2,,,74,127
17999,note_off,0,0,0,,5,,,53,127
17999,note_off,0,0,0,,2,,,62,127
18000,note_on,1,0,0,,0,,,60,127
18000,note_on,0,0,0,,3,,,51,127
18000,note_on,0,0,0,,0,,,72,127
18000,note_on,0,0,0,,3,,,75,127
18198,note_off,198,0,0,,3,,,75,127
18198,note_off,0,0,0,,0,,,72,127
18198,note_off,0,0,0,,3,,,51,127
18198,note_off,0,0,0,,0,,,60,127
18199,note_on,1,0,0,,2,,,50,127
18199,note_on,0,0,0,,12,,,59,127
18199,note_on,0,0,0,,2,,,74,127
18199,note_on,0,0,0,,5,,,77,127
18397,note_off,198,0,0,,5,,,77,127
18397,note_off,0,0,0,,2,,,74,127
18397,note_off,0,0,0,,12,,,59,127
18397,note_off,0,0,0,,2,,,50,127
18398,note_on,1,0,0,,0,,,60,127
18398,note_on,0,0,0,,0,,,48,127
18398,note_on,0,0,0,,3,,,75,127
18398,note_on,0,0,0,,7,,,79,127
18596,note_off,198,0,0,,7,,,79,127
18596,note_off,0,0,0,,3,,,75,127
18596,note_off,0,0,0,,0,,,48,127
18596,note_off,0,0,0,,0,,,60,127
18597,note_on,1,0,0,,5,,,53,127
18597,note_on,0,0,0,,2,,,74,127
18597,note_on,0,0,0,,5,,,77,127
18795,note_off,198,0,0,,5,,,77,127
18795,note_off,0,0,0,,2,,,74,127
18795,note_off,0,0,0,,5,,,53,127
18796,note_on,1,0,0,,7,,,55,127
18796,note_on,0,0,0,,3,,,75,127
18796,note_on,0,0,0,,0,,,72,127
18994,note_off,198,0,0,,0,,,72,127
18994,note_off,0,0,0,,3,,,75,127
18995,note_on,1,0,0,,7,,,43,127
18995,note_on,0,0,0,,2,,,74,127
18995,note_on,0,0,0,,12,,,71,127
19189,note_off,194,0,0,,7,,,55,127
19192,note_off,3,0,0,,12,,,71,127
19192,note_off,0,0,0,,2,,,74,127
19192,note_off,0,0,0,,7,,,43,127
19193,note_on,1,0,0,,0,,,48,127
19193,note_on,0,0,0,,0,,,72,127
19369,note_off,176,0,0,,0,,,72,127
19391,note_off,22,0,0,,0,,,48,127
19392,note_on,1,0,0,,5,,,65,127
19392,note_on,0,0,0,,8,,,56,127
19392,note_on,0,0,0,,2,,,74,127
19392,note_on,0,0,0,,12,,,71,127
19590,note_off,198,0,0,,12,,,71,127
19590,note_off,0,0,0,,2,,,74,127
19591,note_on,1,0,0,,3,,,75,127
19591,note_on,0,0,0,,0,,,72,127
19789,note_off,198,0,0,,0,,,72,127
19789,note_off,0,0,0,,3,,,75,127
19790,note_on,1,0,0,,0,,,72,127
19790,note_on,0,0,0,,5,,,77,127
19888,note_off,98,0,0,,5,,,77,127
19889,note_on,1,0,0,,3,,,75,127
19987,note_off,98,0,0,,3,,,75,127
19987,note_off,0,0,0,,0,,,72,127
19987,note_off,0,0,0,,8,,,56,127
19987,note_off,0,0,0,,5,,,65,127
19988,note_on,1,0,0,,8,,,56,127
19988,note_on,0,0,0,,5,,,65,127
19988,note_on,0,0,0,,2,,,74,127
19988,note_on,0,0,0,,12,,,71,127
20186,note_off,198,0,0,,5,,,65,127
20186,note_off,0,0,0,,8,,,56,127
20187,note_on,1,0,0,,7,,,55,127
20187,note_on,0,0,0,,7,,,67,127
20385,note_off,198,0,0,,7,,,67,127
20385,note_off,0,0,0,,7,,,55,127
20385,note_off,0,0,0,,12,,,71,127
20385,note_off,0,0,0,,2,,,74,127
20386,note_on,1,0,0,,8,,,56,127
20386,note_on,0,0,0,,5,,,65,127
20585,note_on,199,0,0,,12,,,71,127
20585,note_on,0,0,0,,2,,,74,127
20783,note_off,198,0,0,,2,,,74,127
20783,note_off,0,0,0,,12,,,71,127
20784,note_on,1,0,0,,0,,,72,127
20784,note_on,0,0,0,,3,,,75,127
20982,note_off,198,0,0,,3,,,75,127
20982,note_off,0,0,0,,0,,,72,127
20983,note_on,1,0,0,,5,,,77,127
20983,note_on,0,0,0,,0,,,72,127
21081,note_off,98,0,0,,5,,,77,127
21082,note_on,1,0,0,,3,,,75,127
21180,note_off,98,0,0,,3,,,75,127
21180,note_off,0,0,0,,0,,,72,127
21180,note_off,0,0,0,,5,,,65,127
21180,note_off,0,0,0,,8,,,56,127
21181,note_on,1,0,0,,8,,,56,127
21181,note_on,0,0,0,,5,,,65,127
21181,note_on,0,0,0,,2,,,74,127
21181,note_on,0,0,0,,12,,,71,127
21379,note_off,198,0,0,,5,,,65,127
21379,note_off,0,0,0,,8,,,56,127
21380,note_on,1,0,0,,7,,,55,127
21380,note_on,0,0,0,,7,,,67,127
21578,note_off,198,0,0,,7,,,67,127
21578,note_off,0,0,0,,7,,,55,127
21579,note_on,1,0,0,,5,,,65,127
21579,note_on,0,0,0,,8,,,56,127
21777,note_off,198,0,0,,8,,,56,127
21777,note_off,0,0,0,,5,,,65,127
21777,note_off,0,0,0,,12,,,71,127
21777,note_off,0,0,0,,2,,,74,127
21778,note_on,1,0,0,,7,,,55,127
21778,note_on,0,0,0,,3,,,63,127
21778,note_on,0,0,0,,0,,,72,127
21976,note_off,198,0,0,,0,,,72,127
21976,note_off,0,0,0,,3,,,63,127
21976,note_off,0,0,0,,7,,,55,127
21977,note_on,1,0,0,,5,,,53,127
21977,note_on,0,0,0,,2,,,62,127
21977,note_on,0,0,0,,2,,,74,127
22175,note_off,198,0,0,,2,,,74,127
22175,note_off,0,0,0,,2,,,62,127
22175,note_off,0,0,0,,5,,,53,127
22176,note_on,1,0,0,,0,,,60,127
22176,note_on,0,0,0,,3,,,51,127
22176,note_on,0,0,0,,3,,,75,127
22176,note_on,0,0,0,,0,,,72,127
22374,note_off,198,0,0,,0,,,72,127
22374,note_off,0,0,0,,3,,,75,127
22374,note_off,0,0,0,,3,,,51,127
22374,note_off,0,0,0,,0,,,60,127
22375,note_on,1,0,0,,2,,,50,127
22375,note_on,0,0,0,,12,,,59,127
22375,note_on,0,0,0,,5,,,77,127
22375,note_on,0,0,0,,2,,,74,127
22573,note_off,198,0,0,,2,,,74,127
22573,note_off,0,0,0,,5,,,77,127
22573,note_off,0,0,0,,12,,,59,127
22573,note_off,0,0,0,,2,,,50,127
22574,note_on,1,0,0,,0,,,60,127
22574,note_on,0,0,0,,0,,,48,127
22574,note_on,0,0,0,,3,,,75,127
22574,note_on,0,0,0,,7,,,79,127
22772,note_off,198,0,0,,7,,,79,127
22772,note_off,0,0,0,,3,,,75,127
22772,note_off,0,0,0,,0,,,48,127
22772,note_off,0,0,0,,0,,,60,127
22773,note_on,1,0,0,,5,,,53,127
22773,note_on,0,0,0,,5,,,77,127
22773,note_on,0,0,0,,2,,,74,127
22971,note_off,198,0,0,,2,,,74,127
22971,note_off,0,0,0,,5,,,77,127
22971,note_off,0,0,0,,5,,,53,127
22972,note_on,1,0,0,,7,,,55,127
22972,note_on,0,0,0,,3,,,75,127
22972,note_on,0,0,0,,0,,,72,127
23170,note_off,198,0,0,,0,,,72,127
23170,note_off,0,0,0,,3,,,75,127
23170,note_off,0,0,0,,7,,,55,127
23171,note_on,1,0,0,,5,,,53,127
23171,note_on,0,0,0,,2,,,74,127
23171,note_on,0,0,0,,12,,,71,127
23369,note_off,198,0,0,,12,,,71,127
23369,note_off,0,0,0,,2,,,74,127
23369,note_off,0,0,0,,5,,,53,127
23370,note_on,1,0,0,,3,,,51,127
23370,note_on,0,0,0,,3,,,75,127
23370,note_on,0,0,0,,0,,,72,127
23435,note_off,65,0,0,,3,,,51,127
23436,note_on,1,0,0,,5,,,53,127
23501,note_off,65,0,0,,5,,,53,127
23502,note_on,1,0,0,,3,,,51,127
23567,note_off,65,0,0,,3,,,51,127
23567,note_off,0,0,0,,0,,,72,127
23567,note_off,0,0,0,,3,,,75,127
23568,note_on,1,0,0,,2,,,50,127
23568,note_on,0,0,0,,5,,,77,127
23568,note_on,0,0,0,,2,,,74,127
23766,note_off,198,0,0,,2,,,74,127
23766,note_off,0,0,0,,5,,,77,127
23766,note_off,0,0,0,,2,,,50,127
23767,note_on,1,0,0,,0,,,48,127
23767,note_on,0,0,0,,7,,,79,127
23767,note_on,0,0,0,,3,,,75,127
23965,note_off,198,0,0,,3,,,75,127
23965,note_off,0,0,0,,7,,,79,127
23965,note_off,0,0,0,,0,,,48,127
23966,note_on,1,0,0,,5,,,53,127
23966,note_on,0,0,0,,8,,,68,127
23966,note_on,0,0,0,,5,,,77,127
24164,note_off,198,0,0,,5,,,77,127
24164,note_off,0,0,0,,8,,,68,127
24164,note_off,0,0,0,,5,,,53,127
24165,note_on,1,0,0,,7,,,55,127
24165,note_on,0,0,0,,3,,,75,127
24165,note_on,0,0,0,,7,,,67,127
24363,note_off,198,0,0,,7,,,67,127
24363,note_off,0,0,0,,3,,,75,127
24363,note_off,0,0,0,,7,,,55,127
24364,note_on,1,0,0,,5,,,53,127
24364,note_on,0,0,0,,5,,,65,127
24364,note_on,0,0,0,,2,,,74,127
24562,note_off,198,0,0,,2,,,74,127
24562,note_off,0,0,0,,5,,,65,127
24562,note_off,0,0,0,,5,,,53,127
24563,note_on,1,0,0,,3,,,51,127
24563,note_on,0,0,0,,3,,,63,127
24563,note_on,0,0,0,,0,,,72,127
24628,note_off,65,0,0,,3,,,51,127
24629,note_on,1,0,0,,5,,,53,127
24694,note_off,65,0,0,,5,,,53,127
24695,note_on,1,0,0,,3,,,51,127
24760,note_off,65,0,0,,3,,,51,127
24760,note_off,0,0,0,,0,,,72,127
24760,note_off,0,0,0,,3,,,63,127
24761,note_on,1,0,0,,2,,,50,127
24761,note_on,0,0,0,,5,,,65,127
24761,note_on,0,0,0,,2,,,74,127
24959,note_off,198,0,0,,2,,,74,127
24959,note_off,0,0,0,,5,,,65,127
24959,note_off,0,0,0,,2,,,50,127
24960,note_on,1,0,0,,0,,,48,127
24960,note_on,0,0,0,,3,,,75,127
24960,note_on,0,0,0,,7,,,67,127
25158,note_off,198,0,0,,7,,,67,127
25158,note_off,0,0,0,,3,,,75,127
25158,note_off,0,0,0,,0,,,48,127
25159,note_on,1,0,0,,5,,,53,127
25159,note_on,0,0,0,,5,,,65,127
25159,note_on,0,0,0,,2,,,74,127
25357,note_off,198,0,0,,2,,,74,127
25357,note_off,0,0,0,,5,,,65,127
25357,note_off,0,0,0,,5,,,53,127
25358,note_on,1,0,0,,7,,,55,127
25358,note_on,0,0,0,,0,,,72,127
25358,note_on,0,0,0,,3,,,63,127
25556,note_off,198,0,0,,3,,,63,127
25556,note_off,0,0,0,,0,,,72,127
25556,note_off,0,0,0,,7,,,55,127
25557,note_on,1,0,0,,5,,,53,127
25557,note_on,0,0,0,,12,,,71,127
25557,note_on,0,0,0,,2,,,62,127
25755,note_off,198,0,0,,2,,,62,127
25755,note_off,0,0,0,,12,,,71,127
25755,note_off,0,0,0,,5,,,53,127
25756,note_on,1,0,0,,3,,,51,127
25756,note_on,0,0,0,,3,,,75,127
25756,note_on,0,0,0,,0,,,72,127
25821,note_off,65,0,0,,3,,,51,127
25822,note_on,1,0,0,,5,,,53,127
25887,note_off,65,0,0,,5,,,53,127
25888,note_on,1,0,0,,3,,,51,127
25953,note_off,65,0,0,,3,,,51,127
25953,note_off,0,0,0,,0,,,72,127
25953,note_off,0,0,0,,3,,,75,127
25954,note_on,1,0,0,,2,,,50,127
25954,note_on,0,0,0,,5,,,77,127
25954,note_on,0,0,0,,2,,,74,127
26152,note_off,198,0,0,,2,,,74,127
26152,note_off,0,0,0,,5,,,77,127
26152,note_off,0,0,0,,2,,,50,127
26153,note_on,1,0,0,,0,,,48,127
26153,note_on,0,0,0,,7,,,79,127
26153,note_on,0,0,0,,3,,,75,127
26351,note_off,198,0,0,,3,,,75,127
26351,note_off,0,0,0,,7,,,79,127
26351,note_off,0,0,0,,0,,,48,127
26352,note_on,1,0,0,,5,,,53,127
26352,note_on,0,0,0,,2,,,74,127
26352,note_on,0,0,0,,5,,,77,127
26550,note_off,198,0,0,,5,,,77,127
26550,note_off,0,0,0,,2,,,74,127
26550,note_off,0,0,0,,5,,,53,127
26551,note_on,1,0,0,,7,,,55,127
26551,note_on,0,0,0,,0,,,72,127
26551,note_on,0,0,0,,3,,,75,127
26749,note_off,198,0,0,,3,,,75,127
26749,note_off,0,0,0,,0,,,72,127
26750,note_on,1,0,0,,7,,,43,127
26750,note_on,0,0,0,,12,,,71,127
26750,note_on,0,0,0,,2,,,74,127
26944,note_off,194,0,0,,7,,,55,127
26947,note_off,3,0,0,,2,,,74,127
26947,note_off,0,0,0,,12,,,71,127
26947,note_off,0,0,0,,7,,,43,127
26948,note_on,1,0,0,,0,,,48,127
26948,note_on,0,0,0,,12,,,71,127
27296,note_on,348,0,0,,0,,,72,127
27345,note_off,49,0,0,,12,,,71,127
27544,note_off,199,0,0,,0,,,48,127
27595,note_off,51,0,0,,0,,,72,127
27744,note_on,149,0,0,,0,,,72,127
27744,note_on,0,0,0,,3,,,75,127
27942,note_off,198,0,0,,3,,,75,127
27942,note_off,0,0,0,,0,,,72,127
27943,note_on,1,0,0,,5,,,77,127
27943,note_on,0,0,0,,1,,,73,127
28141,note_off,198,0,0,,1,,,73,127
28141,note_off,0,0,0,,5,,,77,127
28142,note_on,1,0,0,,5,,,77,127
28142,note_on,0,0,0,,1,,,73,127
28340,note_off,198,0,0,,1,,,73,127
28340,note_off,0,0,0,,5,,,77,127
28341,note_on,1,0,0,,3,,,63,127
28341,note_on,0,0,0,,0,,,60,127
28341,note_on,0,0,0,,3,,,75,127
28341,note_on,0,0,0,,0,,,72,127
28539,note_off,198,0,0,,0,,,72,127
28539,note_off,0,0,0,,3,,,75,127
28539,note_off,0,0,0,,0,,,60,127
28539,note_off,0,0,0,,3,,,63,127
28540,note_on,1,0,0,,5,,,65,127
28540,note_on,0,0,0,,1,,,61,127
28738,note_off,198,0,0,,1,,,61,127
28738,note_off,0,0,0,,5,,,65,127
28739,note_on,1,0,0,,5,,,65,127
28739,note_on,0,0,0,,1,,,61,127
28937,note_off,198,0,0,,1,,,61,127
28937,note_off,0,0,0,,5,,,65,127
28938,note_on,1,0,0,,0,,,60,127
28938,note_on,0,0,0,,3,,,63,127
28938,note_on,0,0,0,,0,,,72,127
28938,note_on,0,0,0,,8,,,80,127
29136,note_off,198,0,0,,8,,,80,127
29136,note_off,0,0,0,,0,,,72,127
29136,note_off,0,0,0,,3,,,63,127
29136,note_off,0,0,0,,0,,,60,127
29137,note_on,1,0,0,,11,,,82,127
29137,note_on,0,0,0,,1,,,73,127
29335,note_off,198,0,0,,1,,,73,127
29335,note_off,0,0,0,,11,,,82,127
29336,note_on,1,0,0,,1,,,73,127
29336,note_on,0,0,0,,11,,,82,127
29534,note_off,198,0,0,,11,,,82,127
29534,note_off,0,0,0,,1,,,73,127
29535,note_on,1,0,0,,8,,,68,127
29535,note_on,0,0,0,,0,,,60,127
29535,note_on,0,0,0,,8,,,80,127
29535,note_on,0,0,0,,0,,,72,127
29733,note_off,198,0,0,,0,,,72,127
29733,note_off,0,0,0,,0,,,60,127
29733,note_off,0,0,0,,8,,,68,127
29734,note_on,1,0,0,,11,,,70,127
29734,note_on,0,0,0,,1,,,61,127
29932,note_off,198,0,0,,1,,,61,127
29932,note_off,0,0,0,,11,,,70,127
29933,note_on,1,0,0,,0,,,60,127
29933,note_on,0,0,0,,8,,,68,127
30131,note_off,198,0,0,,8,,,80,127
30132,note_on,1,0,0,,7,,,79,127
30197,note_off,65,0,0,,7,,,79,127
30198,note_on,1,0,0,,8,,,80,127
30263,note_off,65,0,0,,8,,,80,127
30264,note_on,1,0,0,,7,,,79,127
30329,note_off,65,0,0,,7,,,79,127
30329,note_off,0,0,0,,8,,,68,127
30329,note_off,0,0,0,,0,,,60,127
30330,note_on,1,0,0,,5,,,65,127
30330,note_on,0,0,0,,1,,,61,127
30330,note_on,0,0,0,,5,,,77,127
30528,note_off,198,0,0,,1,,,61,127
30528,note_off,0,0,0,,5,,,65,127
30529,note_on,1,0,0,,0,,,60,127
30529,note_on,0,0,0,,3,,,63,127
30727,note_off,198,0,0,,5,,,77,127
30728,note_on,1,0,0,,3,,,75,127
30793,note_off,65,0,0,,3,,,75,127
30794,note_on,1,0,0,,5,,,77,127
30859,note_off,65,0,0,,5,,,77,127
30860,note_on,1,0,0,,3,,,75,127
30925,note_off,65,0,0,,3,,,75,127
30925,note_off,0,0,0,,3,,,63,127
30925,note_off,0,0,0,,0,,,60,127
30926,note_on,1,0,0,,1,,,61,127
30926,note_on,0,0,0,,11,,,58,127
30926,note_on,0,0,0,,1,,,73,127
31124,note_off,198,0,0,,11,,,58,127
31124,note_off,0,0,0,,1,,,61,127
31125,note_on,1,0,0,,0,,,60,127
31125,note_on,0,0,0,,8,,,56,127
31323,note_off,198,0,0,,1,,,73,127
31324,note_on,1,0,0,,0,,,72,127
31389,note_off,65,0,0,,0,,,72,127
31390,note_on,1,0,0,,1,,,73,127
31455,note_off,65,0,0,,1,,,73,127
31456,note_on,1,0,0,,0,,,72,127
31521,note_off,65,0,0,,0,,,72,127
31521,note_off,0,0,0,,8,,,56,127
31521,note_off,0,0,0,,0,,,60,127
31522,note_on,1,0,0,,7,,,55,127
31522,note_on,0,0,0,,11,,,58,127
31522,note_on,0,0,0,,11,,,70,127
31720,note_off,198,0,0,,11,,,58,127
31720,note_off,0,0,0,,7,,,55,127
31721,note_on,1,0,0,,8,,,56,127
31721,note_on,0,0,0,,5,,,53,127
31919,note_off,198,0,0,,8,,,56,127
31919,note_off,0,0,0,,11,,,70,127
31920,note_on,1,0,0,,0,,,60,127
31920,note_on,0,0,0,,11,,,70,127
31985,note_off,65,0,0,,11,,,70,127
31986,note_on,1,0,0,,8,,,68,127
32051,note_off,65,0,0,,8,,,68,127
32052,note_on,1,0,0,,11,,,70,127
32117,note_off,65,0,0,,11,,,70,127
32117,note_off,0,0,0,,0,,,60,127
32118,note_on,1,0,0,,2,,,62,127
32118,note_on,0,0,0,,8,,,68,127
32183,note_off,65,0,0,,8,,,68,127
32184,note_on,1,0,0,,7,,,67,127
32249,note_off,65,0,0,,7,,,67,127
32250,note_on,1,0,0,,8,,,68,127
32315,note_off,65,0,0,,8,,,68,127
32315,note_off,0,0,0,,2,,,62,127
32315,note_off,0,0,0,,5,,,53,127
32316,note_on,1,0,0,,3,,,51,127
32316,note_on,0,0,0,,3,,,63,127
32316,note_on,0,0,0,,7,,,67,127
32514,note_off,198,0,0,,7,,,67,127
32515,note_on,1,0,0,,11,,,70,127
32713,note_off,198,0,0,,11,,,70,127
32714,note_on,1,0,0,,3,,,75,127
32912,note_off,198,0,0,,3,,,75,127
32912,note_off,0,0,0,,3,,,63,127
32912,note_off,0,0,0,,3,,,51,127
32913,note_on,1,0,0,,5,,,53,127
32913,note_on,0,0,0,,3,,,63,127
32913,note_on,0,0,0,,11,,,70,127
33111,note_off,198,0,0,,11,,,70,127
33112,note_on,1,0,0,,11,,,70,127
33177,note_off,65,0,0,,11,,,70,127
33178,note_on,1,0,0,,8,,,68,127
33243,note_off,65,0,0,,8,,,68,127
33244,note_on,1,0,0,,11,,,70,127
33309,note_off,65,0,0,,11,,,70,127
33309,note_off,0,0,0,,3,,,63,127
33310,note_on,1,0,0,,2,,,62,127
33310,note_on,0,0,0,,8,,,68,127
33375,note_off,65,0,0,,8,,,68,127
33376,note_on,1,0,0,,7,,,67,127
33441,note_off,65,0,0,,7,,,67,127
33442,note_on,1,0,0,,8,,,68,127
33507,note_off,65,0,0,,8,,,68,127
33507,note_off,0,0,0,,2,,,62,127
33507,note_off,0,0,0,,5,,,53,127
33508,note_on,1,0,0,,3,,,63,127
33508,note_on,0,0,0,,3,,,51,127
33508,note_on,0,0,0,,7,,,67,127
33706,note_off,198,0,0,,7,,,67,127
33707,note_on,1,0,0,,3,,,75,127
33905,note_off,198,0,0,,3,,,75,127
33906,note_on,1,0,0,,7,,,79,127
34104,note_off,198,0,0,,7,,,79,127
34104,note_off,0,0,0,,3,,,51,127
34104,note_off,0,0,0,,3,,,63,127
34105,note_on,1,0,0,,5,,,53,127
34105,note_on,0,0,0,,3,,,63,127
34105,note_on,0,0,0,,11,,,70,127
34303,note_off,198,0,0,,11,,,70,127
34304,note_on,1,0,0,,11,,,70,127
34369,note_off,65,0,0,,11,,,70,127
34370,note_on,1,0,0,,8,,,68,127
34435,note_off,65,0,0,,8,,,68,127
34436,note_on,1,0,0,,11,,,70,127
34501,note_off,65,0,0,,11,,,70,127
34501,note_off,0,0,0,,3,,,63,127
34502,note_on,1,0,0,,2,,,62,127
34502,note_on,0,0,0,,8,,,68,127
34567,note_off,65,0,0,,8,,,68,127
34568,note_on,1,0,0,,7,,,67,127
34633,note_off,65,0,0,,7,,,67,127
34634,note_on,1,0,0,,8,,,68,127
34699,note_off,65,0,0,,8,,,68,127
34699,note_off,0,0,0,,2,,,62,127
34699,note_off,0,0,0,,5,,,53,127
34700,note_on,1,0,0,,3,,,63,127
34700,note_on,0,0,0,,7,,,67,127
34798,note_off,98,0,0,,7,,,67,127
34799,note_on,1,0,0,,5,,,65,127
34897,note_off,98,0,0,,5,,,65,127
34897,note_off,0,0,0,,3,,,63,127
34898,note_on,1,0,0,,3,,,51,127
34898,note_on,0,0,0,,3,,,63,127
34996,note_off,98,0,0,,3,,,63,127
34997,note_on,1,0,0,,2,,,62,127
35095,note_off,98,0,0,,2,,,62,127
35096,note_on,1,0,0,,3,,,39,127
35096,note_on,0,0,0,,3,,,63,127
35290,note_off,194,0,0,,3,,,51,127
35293,note_off,3,0,0,,3,,,63,127
35293,note_off,0,0,0,,3,,,39,127
35294,note_on,1,0,0,,3,,,51,127
35493,note_on,199,0,0,,6,,,66,127
35493,note_on,0,0,0,,3,,,75,127
35691,note_off,198,0,0,,3,,,75,127
35691,note_off,0,0,0,,6,,,66,127
35691,note_off,0,0,0,,3,,,51,127
35692,note_on,1,0,0,,5,,,65,127
35692,note_on,0,0,0,,1,,,73,127
35890,note_off,198,0,0,,1,,,73,127
35890,note_off,0,0,0,,5,,,65,127
35891,note_on,1,0,0,,6,,,66,127
35891,note_on,0,0,0,,3,,,75,127
36089,note_off,198,0,0,,3,,,75,127
36089,note_off,0,0,0,,6,,,66,127
36090,note_on,1,0,0,,5,,,65,127
36090,note_on,0,0,0,,11,,,70,127
36090,note_on,0,0,0,,6,,,78,127
36155,note_off,65,0,0,,5,,,65,127
36156,note_on,1,0,0,,3,,,63,127
36221,note_off,65,0,0,,3,,,63,127
36222,note_on,1,0,0,,5,,,65,127
36287,note_off,65,0,0,,5,,,65,127
36287,note_off,0,0,0,,6,,,78,127
36287,note_off,0,0,0,,11,,,70,127
36288,note_on,1,0,0,,3,,,63,127
36288,note_on,0,0,0,,8,,,68,127
36288,note_on,0,0,0,,5,,,77,127
36353,note_off,65,0,0,,3,,,63,127
36354,note_on,1,0,0,,5,,,65,127
36419,note_off,65,0,0,,5,,,65,127
36420,note_on,1,0,0,,3,,,63,127
36485,note_off,65,0,0,,3,,,63,127
36485,note_off,0,0,0,,5,,,77,127
36485,note_off,0,0,0,,8,,,68,127
36486,note_on,1,0,0,,5,,,65,127
36486,note_on,0,0,0,,11,,,70,127
36486,note_on,0,0,0,,6,,,78,127
36584,note_off,98,0,0,,5,,,65,127
36585,note_on,1,0,0,,3,,,63,127
36683,note_off,98,0,0,,3,,,63,127
36683,note_off,0,0,0,,6,,,78,127
36683,note_off,0,0,0,,11,,,70,127
36684,note_on,1,0,0,,1,,,61,127
36684,note_on,0,0,0,,11,,,82,127
36684,note_on,0,0,0,,1,,,73,127
36882,note_off,198,0,0,,1,,,73,127
36882,note_off,0,0,0,,11,,,82,127
36882,note_off,0,0,0,,1,,,61,127
36883,note_on,1,0,0,,0,,,60,127
36883,note_on,0,0,0,,10,,,81,127
36883,note_on,0,0,0,,0,,,72,127
37081,note_off,198,0,0,,0,,,72,127
37081,note_off,0,0,0,,10,,,81,127
37081,note_off,0,0,0,,0,,,60,127
37082,note_on,1,0,0,,11,,,58,127
37082,note_on,0,0,0,,10,,,81,127
37082,note_on,0,0,0,,0,,,72,127
37280,note_off,198,0,0,,11,,,58,127
37281,note_on,1,0,0,,1,,,61,127
37479,note_off,198,0,0,,1,,,61,127
37479,note_off,0,0,0,,0,,,72,127
37479,note_off,0,0,0,,10,,,81,127
37480,note_on,1,0,0,,0,,,60,127
37480,note_on,0,0,0,,11,,,82,127
37480,note_on,0,0,0,,1,,,73,127
37678,note_off,198,0,0,,1,,,73,127
37678,note_off,0,0,0,,11,,,82,127
37678,note_off,0,0,0,,0,,,60,127
37679,note_on,1,0,0,,11,,,58,127
37878,note_on,199,0,0,,1,,,73,127
37878,note_on,0,0,0,,5,,,65,127
38076,note_off,198,0,0,,5,,,65,127
38076,note_off,0,0,0,,1,,,73,127
38076,note_off,0,0,0,,11,,,58,127
38077,note_on,1,0,0,,4,,,64,127
38077,note_on,0,0,0,,0,,,72,127
38275,note_off,198,0,0,,0,,,72,127
38275,note_off,0,0,0,,4,,,64,127
38276,note_on,1,0,0,,5,,,65,127
38276,note_on,0,0,0,,1,,,73,127
38474,note_off,198,0,0,,1,,,73,127
38474,note_off,0,0,0,,5,,,65,127
38475,note_on,1,0,0,,11,,,58,127
38475,note_on,0,0,0,,5,,,77,127
38475,note_on,0,0,0,,8,,,68,127
38524,note_off,49,0,0,,11,,,58,127
38525,note_on,1,0,0,,8,,,56,127
38574,note_off,49,0,0,,8,,,56,127
38575,note_on,1,0,0,,11,,,58,127
38624,note_off,49,0,0,,11,,,58,127
38625,note_on,1,0,0,,8,,,56,127
38674,note_off,49,0,0,,8,,,56,127
38674,note_off,0,0,0,,8,,,68,127
38674,note_off,0,0,0,,5,,,77,127
38675,note_on,1,0,0,,7,,,55,127
38675,note_on,0,0,0,,4,,,76,127
38675,note_on,0,0,0,,7,,,67,127
38873,note_off,198,0,0,,7,,,67,127
38873,note_off,0,0,0,,4,,,76,127
38873,note_off,0,0,0,,7,,,55,127
38874,note_on,1,0,0,,8,,,56,127
38874,note_on,0,0,0,,5,,,53,127
38874,note_on,0,0,0,,8,,,68,127
38874,note_on,0,0,0,,5,,,77,127
39072,note_off,198,0,0,,5,,,77,127
39072,note_off,0,0,0,,8,,,68,127
39073,note_on,1,0,0,,0,,,72,127
39073,note_on,0,0,0,,8,,,80,127
39073,note_on,0,0,0,,5,,,77,127
39271,note_off,198,0,0,,5,,,77,127
39271,note_off,0,0,0,,8,,,80,127
39271,note_off,0,0,0,,5,,,53,127
39271,note_off,0,0,0,,8,,,56,127
39272,note_on,1,0,0,,0,,,48,127
39272,note_on,0,0,0,,7,,,55,127
39272,note_on,0,0,0,,4,,,76,127
39272,note_on,0,0,0,,7,,,79,127
39470,note_off,198,0,0,,7,,,79,127
39470,note_off,0,0,0,,4,,,76,127
39470,note_off,0,0,0,,7,,,55,127
39470,note_off,0,0,0,,0,,,48,127
39471,note_on,1,0,0,,5,,,41,127
39471,note_on,0,0,0,,8,,,80,127
39669,note_off,198,0,0,,5,,,41,127
39670,note_on,1,0,0,,5,,,53,127
39768,note_off,98,0,0,,8,,,80,127
39769,note_on,1,0,0,,7,,,79,127
39867,note_off,98,0,0,,7,,,79,127
39867,note_off,0,0,0,,5,,,53,127
39867,note_off,0,0,0,,0,,,72,127
39868,note_on,1,0,0,,7,,,55,127
39868,note_on,0,0,0,,5,,,77,127
40066,note_off,198,0,0,,5,,,77,127
40066,note_off,0,0,0,,7,,,55,127
40067,note_on,1,0,0,,8,,,56,127
40266,note_on,199,0,0,,0,,,84,127
40266,note_on,0,0,0,,0,,,72,127
40464,note_off,198,0,0,,0,,,84,127
40465,note_on,1,0,0,,5,,,65,127
40465,note_on,0,0,0,,8,,,80,127
40663,note_off,198,0,0,,8,,,80,127
40663,note_off,0,0,0,,8,,,56,127
40664,note_on,1,0,0,,11,,,58,127
40664,note_on,0,0,0,,7,,,79,127
40862,note_off,198,0,0,,7,,,79,127
40862,note_off,0,0,0,,5,,,65,127
40863,note_on,1,0,0,,7,,,67,127
40863,note_on,0,0,0,,11,,,82,127
41061,note_off,198,0,0,,11,,,82,127
41061,note_off,0,0,0,,11,,,58,127
41062,note_on,1,0,0,,0,,,60,127
41062,note_on,0,0,0,,7,,,79,127
41260,note_off,198,0,0,,7,,,79,127
41260,note_off,0,0,0,,0,,,60,127
41261,note_off,1,0,0,,0,,,72,127
41261,note_on,0,0,0,,1,,,61,127
41261,note_on,0,0,0,,5,,,77,127
41459,note_off,198,0,0,,5,,,77,127
41459,note_off,0,0,0,,7,,,67,127
41460,note_on,1,0,0,,8,,,68,127
41460,note_on,0,0,0,,8,,,80,127
41658,note_off,198,0,0,,8,,,80,127
41658,note_off,0,0,0,,8,,,68,127
41659,note_on,1,0,0,,11,,,70,127
41659,note_on,0,0,0,,5,,,77,127
41857,note_off,198,0,0,,5,,,77,127
41857,note_off,0,0,0,,11,,,70,127
41857,note_off,0,0,0,,1,,,61,127
41858,note_on,1,0,0,,0,,,60,127
41858,note_on,0,0,0,,8,,,68,127
41858,note_on,0,0,0,,7,,,79,127
41907,note_off,49,0,0,,7,,,79,127
41908,note_on,1,0,0,,5,,,77,127
41957,note_off,49,0,0,,5,,,77,127
41958,note_on,1,0,0,,7,,,79,127
42007,note_off,49,0,0,,7,,,79,127
42008,note_on,1,0,0,,5,,,77,127
42057,note_off,49,0,0,,5,,,77,127
42057,note_off,0,0,0,,8,,,68,127
42058,note_on,1,0,0,,7,,,67,127
42058,note_on,0,0,0,,4,,,76,127
42256,note_off,198,0,0,,0,,,60,127
42257,note_on,1,0,0,,11,,,58,127
42455,note_off,198,0,0,,11,,,58,127
42455,note_off,0,0,0,,4,,,76,127
42455,note_off,0,0,0,,7,,,67,127
42456,note_on,1,0,0,,8,,,56,127
42655,note_on,199,0,0,,0,,,84,127
42655,note_on,0,0,0,,0,,,72,127
42854,note_on,199,0,0,,5,,,65,127
42952,note_off,98,0,0,,0,,,84,127
42953,note_on,1,0,0,,11,,,82,127
43002,note_off,49,0,0,,11,,,82,127
43003,note_on,1,0,0,,8,,,80,127
43052,note_off,49,0,0,,8,,,80,127
43052,note_off,0,0,0,,8,,,56,127
43053,note_on,1,0,0,,11,,,58,127
43053,note_on,0,0,0,,7,,,79,127
43251,note_off,198,0,0,,7,,,79,127
43251,note_off,0,0,0,,5,,,65,127
43252,note_on,1,0,0,,7,,,67,127
43252,note_on,0,0,0,,11,,,82,127
43450,note_off,198,0,0,,11,,,58,127
43451,note_on,1,0,0,,0,,,60,127
43549,note_off,98,0,0,,11,,,82,127
43550,note_on,1,0,0,,8,,,80,127
43599,note_off,49,0,0,,8,,,80,127
43600,note_on,1,0,0,,7,,,79,127
43649,note_off,49,0,0,,7,,,79,127
43649,note_off,0,0,0,,0,,,60,127
43650,note_off,1,0,0,,0,,,72,127
43650,note_on,0,0,0,,1,,,61,127
43650,note_on,0,0,0,,5,,,77,127
43848,note_off,198,0,0,,5,,,77,127
43848,note_off,0,0,0,,7,,,67,127
43849,note_on,1,0,0,,8,,,68,127
43849,note_on,0,0,0,,8,,,80,127
44047,note_off,198,0,0,,8,,,68,127
44048,note_on,1,0,0,,11,,,70,127
44146,note_off,98,0,0,,8,,,80,127
44147,note_on,1,0,0,,7,,,79,127
44196,note_off,49,0,0,,7,,,79,127
44197,note_on,1,0,0,,5,,,77,127
44246,note_off,49,0,0,,5,,,77,127
44246,note_off,0,0,0,,11,,,70,127
44246,note_off,0,0,0,,1,,,61,127
44247,note_on,1,0,0,,0,,,72,127
44247,note_on,0,0,0,,7,,,79,127
44312,note_off,65,0,0,,7,,,79,127
44313,note_on,1,0,0,,5,,,77,127
44378,note_off,65,0,0,,5,,,77,127
44379,note_on,1,0,0,,7,,,79,127
44444,note_off,65,0,0,,7,,,79,127
44444,note_off,0,0,0,,0,,,72,127
44445,note_on,1,0,0,,0,,,60,127
44445,note_on,0,0,0,,5,,,77,127
44510,note_off,65,0,0,,5,,,77,127
44511,note_on,1,0,0,,4,,,76,127
44576,note_off,65,0,0,,4,,,76,127
44577,note_on,1,0,0,,5,,,77,127
44642,note_off,65,0,0,,5,,,77,127
44642,note_off,0,0,0,,0,,,60,127
44643,note_on,1,0,0,,0,,,48,127
44643,note_on,0,0,0,,4,,,76,127
44841,note_off,198,0,0,,4,,,76,127
44841,note_off,0,0,0,,0,,,48,127
44842,note_on,1,0,0,,0,,,36,127
45041,note_on,199,0,0,,4,,,76,127
45041,note_on,0,0,0,,7,,,79,127
45239,note_off,198,0,0,,7,,,79,127
45239,note_off,0,0,0,,4,,,76,127
45240,note_on,1,0,0,,8,,,80,127
45240,note_on,0,0,0,,5,,,77,127
45438,note_off,198,0,0,,5,,,77,127
45438,note_off,0,0,0,,8,,,80,127
45438,note_off,0,0,0,,0,,,36,127
45439,note_on,1,0,0,,8,,,80,127
45439,note_on,0,0,0,,5,,,77,127
45637,note_off,198,0,0,,5,,,77,127
45637,note_off,0,0,0,,8,,,80,127
45638,note_on,1,0,0,,1,,,61,127
45638,note_on,0,0,0,,11,,,70,127
45638,note_on,0,0,0,,4,,,76,127
45638,note_on,0,0,0,,7,,,79,127
45836,note_off,198,0,0,,11,,,70,127
45836,note_off,0,0,0,,1,,,61,127
45837,note_on,1,0,0,,0,,,60,127
45837,note_on,0,0,0,,0,,,72,127
46035,note_off,198,0,0,,0,,,72,127
46035,note_off,0,0,0,,0,,,60,127
46035,note_off,0,0,0,,7,,,79,127
46035,note_off,0,0,0,,4,,,76,127
46036,note_on,1,0,0,,1,,,61,127
46036,note_on,0,0,0,,11,,,70,127
46235,note_on,199,0,0,,4,,,76,127
46235,note_on,0,0,0,,7,,,79,127
46433,note_off,198,0,0,,7,,,79,127
46433,note_off,0,0,0,,4,,,76,127
46434,note_on,1,0,0,,5,,,77,127
46434,note_on,0,0,0,,8,,,80,127
46632,note_off,198,0,0,,8,,,80,127
46632,note_off,0,0,0,,5,,,77,127
46632,note_off,0,0,0,,11,,,70,127
46632,note_off,0,0,0,,1,,,61,127
46633,note_on,1,0,0,,8,,,80,127
46633,note_on,0,0,0,,5,,,77,127
46831,note_off,198,0,0,,5,,,77,127
46831,note_off,0,0,0,,8,,,80,127
46832,note_on,1,0,0,,1,,,61,127
46832,note_on,0,0,0,,11,,,70,127
46832,note_on,0,0,0,,4,,,76,127
46832,note_on,0,0,0,,7,,,79,127
47030,note_off,198,0,0,,11,,,70,127
47030,note_off,0,0,0,,1,,,61,127
47031,note_on,1,0,0,,0,,,60,127
47031,note_on,0,0,0,,0,,,72,127
47229,note_off,198,0,0,,0,,,72,127
47229,note_off,0,0,0,,0,,,60,127
47230,note_on,1,0,0,,11,,,70,127
47230,note_on,0,0,0,,1,,,61,127
47428,note_off,198,0,0,,1,,,61,127
47428,note_off,0,0,0,,11,,,70,127
47428,note_off,0,0,0,,7,,,79,127
47428,note_off,0,0,0,,4,,,76,127
47429,note_on,1,0,0,,8,,,68,127
47429,note_on,0,0,0,,0,,,60,127
47429,note_on,0,0,0,,5,,,77,127
47627,note_off,198,0,0,,5,,,77,127
47627,note_off,0,0,0,,0,,,60,127
47627,note_off,0,0,0,,8,,,68,127
47628,note_on,1,0,0,,7,,,67,127
47628,note_on,0,0,0,,11,,,58,127
47628,note_on,0,0,0,,7,,,79,127
47826,note_off,198,0,0,,7,,,79,127
47826,note_off,0,0,0,,11,,,58,127
47826,note_off,0,0,0,,7,,,67,127
47827,note_on,1,0,0,,8,,,56,127
47827,note_on,0,0,0,,5,,,65,127
47827,note_on,0,0,0,,5,,,77,127
47827,note_on,0,0,0,,8,,,80,127
48025,note_off,198,0,0,,8,,,80,127
48025,note_off,0,0,0,,5,,,77,127
48025,note_off,0,0,0,,5,,,65,127
48025,note_off,0,0,0,,8,,,56,127
48026,note_on,1,0,0,,7,,,55,127
48026,note_on,0,0,0,,4,,,64,127
48026,note_on,0,0,0,,11,,,82,127
48026,note_on,0,0,0,,7,,,79,127
48224,note_off,198,0,0,,7,,,79,127
48224,note_off,0,0,0,,11,,,82,127
48224,note_off,0,0,0,,4,,,64,127
48224,note_off,0,0,0,,7,,,55,127
48225,note_on,1,0,0,,5,,,53,127
48225,note_on,0,0,0,,5,,,65,127
48225,note_on,0,0,0,,8,,,80,127
48225,note_on,0,0,0,,0,,,84,127
48423,note_off,198,0,0,,0,,,84,127
48423,note_off,0,0,0,,8,,,80,127
48423,note_off,0,0,0,,5,,,65,127
48423,note_off,0,0,0,,5,,,53,127
48424,note_on,1,0,0,,11,,,58,127
48424,note_on,0,0,0,,11,,,82,127
48424,note_on,0,0,0,,7,,,79,127
48622,note_off,198,0,0,,7,,,79,127
48622,note_off,0,0,0,,11,,,82,127
48622,note_off,0,0,0,,11,,,58,127
48623,note_on,1,0,0,,0,,,60,127
48623,note_on,0,0,0,,5,,,77,127
48623,note_on,0,0,0,,8,,,80,127
48821,note_off,198,0,0,,8,,,80,127
48821,note_off,0,0,0,,5,,,77,127
48822,note_on,1,0,0,,0,,,48,127
48822,note_on,0,0,0,,4,,,76,127
48822,note_on,0,0,0,,7,,,79,127
49016,note_off,194,0,0,,0,,,60,127
49019,note_off,3,0,0,,7,,,79,127
49019,note_off,0,0,0,,4,,,76,127
49019,note_off,0,0,0,,0,,,48,127
49020,note_on,1,0,0,,5,,,53,127
49020,note_on,0,0,0,,5,,,77,127
49218,note_off,198,0,0,,5,,,77,127
49218,note_off,0,0,0,,5,,,53,127
49219,note_on,1,0,0,,1,,,61,127
49219,note_on,0,0,0,,11,,,70,127
49219,note_on,0,0,0,,4,,,76,127
49219,note_on,0,0,0,,7,,,79,127
49417,note_off,198,0,0,,7,,,79,127
49417,note_off,0,0,0,,4,,,76,127
49418,note_on,1,0,0,,7,,,79,127
49418,note_on,0,0,0,,11,,,82,127
49616,note_off,198,0,0,,11,,,82,127
49616,note_off,0,0,0,,7,,,79,127
49617,note_on,1,0,0,,11,,,82,127
49617,note_on,0,0,0,,5,,,77,127
49715,note_off,98,0,0,,11,,,82,127
49716,note_on,1,0,0,,8,,,80,127
49814,note_off,98,0,0,,8,,,80,127
49814,note_off,0,0,0,,5,,,77,127
49814,note_off,0,0,0,,11,,,70,127
49814,note_off,0,0,0,,1,,,61,127
49815,note_on,1,0,0,,11,,,70,127
49815,note_on,0,0,0,,1,,,61,127
49815,note_on,0,0,0,,4,,,76,127
49815,note_on,0,0,0,,7,,,79,127
50013,note_off,198,0,0,,1,,,61,127
50013,note_off,0,0,0,,11,,,70,127
50014,note_on,1,0,0,,0,,,60,127
50014,note_on,0,0,0,,0,,,72,127
50212,note_off,198,0,0,,0,,,72,127
50212,note_off,0,0,0,,0,,,60,127
50212,note_off,0,0,0,,7,,,79,127
50212,note_off,0,0,0,,4,,,76,127
50213,note_on,1,0,0,,1,,,61,127
50213,note_on,0,0,0,,11,,,70,127
50412,note_on,199,0,0,,7,,,79,127
50412,note_on,0,0,0,,4,,,76,127
50610,note_off,198,0,0,,4,,,76,127
50610,note_off,0,0,0,,7,,,79,127
50611,note_on,1,0,0,,7,,,79,127
50611,note_on,0,0,0,,11,,,82,127
50809,note_off,198,0,0,,11,,,82,127
50809,note_off,0,0,0,,7,,,79,127
50810,note_on,1,0,0,,5,,,77,127
50810,note_on,0,0,0,,11,,,82,127
50908,note_off,98,0,0,,11,,,82,127
50909,note_on,1,0,0,,8,,,80,127
51007,note_off,98,0,0,,8,,,80,127
51007,note_off,0,0,0,,5,,,77,127
51007,note_off,0,0,0,,11,,,70,127
51007,note_off,0,0,0,,1,,,61,127
51008,note_on,1,0,0,,1,,,61,127
51008,note_on,0,0,0,,11,,,70,127
51008,note_on,0,0,0,,7,,,79,127
51008,note_on,0,0,0,,4,,,76,127
51206,note_off,198,0,0,,11,,,70,127
51206,note_off,0,0,0,,1,,,61,127
51207,note_on,1,0,0,,0,,,60,127
51207,note_on,0,0,0,,0,,,72,127
51405,note_off,198,0,0,,0,,,72,127
51405,note_off,0,0,0,,0,,,60,127
51406,note_on,1,0,0,,1,,,61,127
51406,note_on,0,0,0,,11,,,70,127
51604,note_off,198,0,0,,11,,,70,127
51604,note_off,0,0,0,,1,,,61,127
51604,note_off,0,0,0,,4,,,76,127
51604,note_off,0,0,0,,7,,,79,127
51605,note_on,1,0,0,,0,,,60,127
51605,note_on,0,0,0,,8,,,68,127
51605,note_on,0,0,0,,5,,,77,127
51803,note_off,198,0,0,,5,,,77,127
51803,note_off,0,0,0,,8,,,68,127
51803,note_off,0,0,0,,0,,,60,127
51804,note_on,1,0,0,,11,,,58,127
51804,note_on,0,0,0,,7,,,67,127
51804,note_on,0,0,0,,7,,,79,127
52002,note_off,198,0,0,,7,,,79,127
52002,note_off,0,0,0,,7,,,67,127
52002,note_off,0,0,0,,11,,,58,127
52003,note_on,1,0,0,,8,,,56,127
52003,note_on,0,0,0,,5,,,65,127
52003,note_on,0,0,0,,5,,,77,127
52003,note_on,0,0,0,,8,,,80,127
52201,note_off,198,0,0,,8,,,80,127
52201,note_off,0,0,0,,5,,,77,127
52201,note_off,0,0,0,,5,,,65,127
52201,note_off,0,0,0,,8,,,56,127
52202,note_on,1,0,0,,7,,,55,127
52202,note_on,0,0,0,,4,,,64,127
52202,note_on,0,0,0,,11,,,82,127
52202,note_on,0,0,0,,7,,,79,127
52400,note_off,198,0,0,,7,,,79,127
52400,note_off,0,0,0,,11,,,82,127
52400,note_off,0,0,0,,4,,,64,127
52400,note_off,0,0,0,,7,,,55,127
52401,note_on,1,0,0,,5,,,53,127
52401,note_on,0,0,0,,5,,,65,127
52401,note_on,0,0,0,,0,,,84,127
52401,note_on,0,0,0,,8,,,80,127
52599,note_off,198,0,0,,8,,,80,127
52599,note_off,0,0,0,,0,,,84,127
52599,note_off,0,0,0,,5,,,65,127
52599,note_off,0,0,0,,5,,,53,127
52600,note_on,1,0,0,,11,,,58,127
52600,note_on,0,0,0,,11,,,82,127
52600,note_on,0,0,0,,7,,,79,127
52798,note_off,198,0,0,,7,,,79,127
52798,note_off,0,0,0,,11,,,82,127
52798,note_off,0,0,0,,11,,,58,127
52799,note_on,1,0,0,,0,,,60,127
52799,note_on,0,0,0,,8,,,80,127
52799,note_on,0,0,0,,5,,,77,127
52997,note_off,198,0,0,,5,,,77,127
52997,note_off,0,0,0,,8,,,80,127
52997,note_off,0,0,0,,0,,,60,127
52998,note_on,1,0,0,,11,,,58,127
52998,note_on,0,0,0,,3,,,75,127
52998,note_on,0,0,0,,6,,,78,127
53196,note_off,198,0,0,,6,,,78,127
53196,note_off,0,0,0,,3,,,75,127
53196,note_off,0,0,0,,11,,,58,127
53197,note_on,1,0,0,,10,,,57,127
53197,note_on,0,0,0,,3,,,75,127
53197,note_on,0,0,0,,5,,,77,127
53395,note_off,198,0,0,,3,,,75,127
53396,note_on,1,0,0,,1,,,73,127
53594,note_off,198,0,0,,1,,,73,127
53594,note_off,0,0,0,,5,,,77,127
53594,note_off,0,0,0,,10,,,57,127
53595,note_on,1,0,0,,11,,,58,127
53595,note_on,0,0,0,,5,,,77,127
53595,note_on,0,0,0,,1,,,73,127
53793,note_off,198,0,0,,1,,,73,127
53793,note_off,0,0,0,,5,,,77,127
53793,note_off,0,0,0,,11,,,58,127
53794,note_on,1,0,0,,7,,,55,127
53794,note_on,0,0,0,,3,,,75,127
53794,note_on,0,0,0,,1,,,73,127
53992,note_off,198,0,0,,1,,,73,127
53993,note_on,1,0,0,,11,,,70,127
54191,note_off,198,0,0,,11,,,70,127
54191,note_off,0,0,0,,3,,,75,127
54191,note_off,0,0,0,,7,,,55,127
54192,note_on,1,0,0,,8,,,56,127
54192,note_on,0,0,0,,3,,,75,127
54192,note_on,0,0,0,,0,,,72,127
54390,note_off,198,0,0,,0,,,72,127
54390,note_off,0,0,0,,3,,,75,127
54390,note_off,0,0,0,,8,,,56,127
54391,note_on,1,0,0,,5,,,53,127
54391,note_on,0,0,0,,0,,,72,127
54391,note_on,0,0,0,,1,,,73,127
54589,note_off,198,0,0,,1,,,73,127
54589,note_off,0,0,0,,0,,,72,127
54589,note_off,0,0,0,,5,,,53,127
54590,note_on,1,0,0,,7,,,55,127
54590,note_on,0,0,0,,11,,,70,127
54590,note_on,0,0,0,,1,,,73,127
54788,note_off,198,0,0,,1,,,73,127
54788,note_off,0,0,0,,11,,,70,127
54788,note_off,0,0,0,,7,,,55,127
54789,note_on,1,0,0,,3,,,51,127
54789,note_on,0,0,0,,0,,,72,127
54789,note_on,0,0,0,,11,,,70,127
54987,note_off,198,0,0,,11,,,70,127
54987,note_off,0,0,0,,0,,,72,127
54987,note_off,0,0,0,,3,,,51,127
54988,note_on,1,0,0,,5,,,53,127
54988,note_on,0,0,0,,8,,,68,127
54988,note_on,0,0,0,,0,,,72,127
55186,note_off,198,0,0,,0,,,72,127
55186,note_off,0,0,0,,8,,,68,127
55186,note_off,0,0,0,,5,,,53,127
55187,note_on,1,0,0,,1,,,49,127
55187,note_on,0,0,0,,11,,,70,127
55187,note_on,0,0,0,,7,,,67,127
55385,note_off,198,0,0,,7,,,67,127
55385,note_off,0,0,0,,11,,,70,127
55385,note_off,0,0,0,,1,,,49,127
55386,note_on,1,0,0,,3,,,51,127
55386,note_on,0,0,0,,7,,,67,127
55386,note_on,0,0,0,,11,,,70,127
55584,note_off,198,0,0,,11,,,70,127
55584,note_off,0,0,0,,7,,,67,127
55584,note_off,0,0,0,,3,,,51,127
55585,note_on,1,0,0,,0,,,48,127
55585,note_on,0,0,0,,8,,,68,127
55585,note_on,0,0,0,,3,,,63,127
55783,note_off,198,0,0,,8,,,68,127
55783,note_off,0,0,0,,0,,,48,127
55784,note_on,1,0,0,,11,,,46,127
55784,note_on,0,0,0,,11,,,70,127
55982,note_off,198,0,0,,11,,,70,127
55982,note_off,0,0,0,,11,,,46,127
55983,note_on,1,0,0,,8,,,44,127
55983,note_on,0,0,0,,0,,,72,127
56181,note_off,198,0,0,,0,,,72,127
56181,note_off,0,0,0,,8,,,44,127
56182,note_on,1,0,0,,7,,,43,127
56182,note_on,0,0,0,,1,,,73,127
56380,note_off,198,0,0,,7,,,43,127
56380,note_off,0,0,0,,3,,,63,127
56381,note_on,1,0,0,,7,,,55,127
56381,note_on,0,0,0,,3,,,63,127
56579,note_off,198,0,0,,7,,,55,127
56579,note_off,0,0,0,,1,,,73,127
56580,note_on,1,0,0,,8,,,56,127
56580,note_on,0,0,0,,0,,,72,127
56778,note_off,198,0,0,,0,,,72,127
56778,note_off,0,0,0,,8,,,56,127
56779,note_on,1,0,0,,3,,,51,127
56779,note_on,0,0,0,,11,,,70,127
56945,note_off,166,0,0,,11,,,70,127
56977,note_off,32,0,0,,3,,,63,127
56978,note_on,1,0,0,,7,,,67,127
56978,note_on,0,0,0,,3,,,75,127
57176,note_off,198,0,0,,3,,,75,127
57176,note_off,0,0,0,,7,,,67,127
57176,note_off,0,0,0,,3,,,51,127
57177,note_on,1,0,0,,8,,,68,127
57177,note_on,0,0,0,,5,,,77,127
57375,note_off,198,0,0,,5,,,77,127
57375,note_off,0,0,0,,8,,,68,127
57376,note_on,1,0,0,,5,,,77,127
57376,note_on,0,0,0,,8,,,68,127
57574,note_off,198,0,0,,8,,,68,127
57574,note_off,0,0,0,,5,,,77,127
57575,note_on,1,0,0,,7,,,55,127
57575,note_on,0,0,0,,3,,,63,127
57575,note_on,0,0,0,,7,,,67,127
57575,note_on,0,0,0,,3,,,75,127
57773,note_off,198,0,0,,3,,,63,127
57773,note_off,0,0,0,,7,,,55,127
57774,note_on,1,0,0,,8,,,56,127
57774,note_on,0,0,0,,5,,,65,127
57972,note_off,198,0,0,,5,,,65,127
57972,note_off,0,0,0,,8,,,56,127
57972,note_off,0,0,0,,3,,,75,127
57972,note_off,0,0,0,,7,,,67,127
57973,note_on,1,0,0,,8,,,56,127
57973,note_on,0,0,0,,5,,,65,127
58171,note_off,198,0,0,,5,,,65,127
58171,note_off,0,0,0,,8,,,56,127
58172,note_on,1,0,0,,7,,,55,127
58172,note_on,0,0,0,,3,,,63,127
58172,note_on,0,0,0,,7,,,67,127
58172,note_on,0,0,0,,11,,,70,127
58370,note_off,198,0,0,,11,,,70,127
58370,note_off,0,0,0,,7,,,67,127
58371,note_on,1,0,0,,8,,,68,127
58371,note_on,0,0,0,,0,,,72,127
58569,note_off,198,0,0,,0,,,72,127
58569,note_off,0,0,0,,8,,,68,127
58569,note_off,0,0,0,,3,,,63,127
58569,note_off,0,0,0,,7,,,55,127
58570,note_on,1,0,0,,8,,,68,127
58570,note_on,0,0,0,,0,,,72,127
58768,note_off,198,0,0,,0,,,72,127
58768,note_off,0,0,0,,8,,,68,127
58769,note_on,1,0,0,,7,,,55,127
58769,note_on,0,0,0,,3,,,63,127
58769,note_on,0,0,0,,11,,,70,127
58769,note_on,0,0,0,,7,,,67,127
58967,note_off,198,0,0,,3,,,63,127
58967,note_off,0,0,0,,7,,,55,127
58968,note_on,1,0,0,,5,,,65,127
58968,note_on,0,0,0,,8,,,56,127
59166,note_off,198,0,0,,8,,,56,127
59166,note_off,0,0,0,,5,,,65,127
59166,note_off,0,0,0,,7,,,67,127
59166,note_off,0,0,0,,11,,,70,127
59167,note_on,1,0,0,,7,,,55,127
59167,note_on,0,0,0,,3,,,63,127
59365,note_off,198,0,0,,3,,,63,127
59365,note_off,0,0,0,,7,,,55,127
59366,note_on,1,0,0,,3,,,51,127
59366,note_on,0,0,0,,5,,,77,127
59366,note_on,0,0,0,,7,,,67,127
59564,note_off,198,0,0,,5,,,77,127
59565,note_on,1,0,0,,3,,,75,127
59763,note_off,198,0,0,,3,,,75,127
59763,note_off,0,0,0,,7,,,67,127
59763,note_off,0,0,0,,3,,,51,127
59764,note_on,1,0,0,,5,,,53,127
59764,note_on,0,0,0,,1,,,73,127
59764,note_on,0,0,0,,8,,,68,127
59962,note_off,198,0,0,,1,,,73,127
59963,note_on,1,0,0,,0,,,72,127
60161,note_off,198,0,0,,0,,,72,127
60161,note_off,0,0,0,,8,,,68,127
60161,note_off,0,0,0,,5,,,53,127
60162,note_on,1,0,0,,7,,,55,127
60162,note_on,0,0,0,,11,,,70,127
60162,note_on,0,0,0,,7,,,67,127
60360,note_off,198,0,0,,7,,,67,127
60360,note_off,0,0,0,,11,,,70,127
60360,note_off,0,0,0,,7,,,55,127
60361,note_on,1,0,0,,8,,,56,127
60361,note_on,0,0,0,,8,,,68,127
60361,note_on,0,0,0,,0,,,72,127
60559,note_off,198,0,0,,0,,,72,127
60559,note_off,0,0,0,,8,,,68,127
60560,note_on,1,0,0,,1,,,73,127
60560,note_on,0,0,0,,5,,,77,127
60758,note_off,198,0,0,,5,,,77,127
60758,note_off,0,0,0,,1,,,73,127
60758,note_off,0,0,0,,8,,,56,127
60759,note_on,1,0,0,,1,,,49,127
60759,note_on,0,0,0,,0,,,72,127
60759,note_on,0,0,0,,3,,,75,127
60957,note_off,198,0,0,,3,,,75,127
60957,note_off,0,0,0,,0,,,72,127
60957,note_off,0,0,0,,1,,,49,127
60958,note_on,1,0,0,,3,,,51,127
60958,note_on,0,0,0,,1,,,73,127
60958,note_on,0,0,0,,11,,,70,127
61156,note_off,198,0,0,,11,,,70,127
61156,note_off,0,0,0,,1,,,73,127
61156,note_off,0,0,0,,3,,,51,127
61157,note_on,1,0,0,,5,,,53,127
61157,note_on,0,0,0,,0,,,72,127
61157,note_on,0,0,0,,8,,,68,127
61355,note_off,198,0,0,,8,,,68,127
61355,note_off,0,0,0,,0,,,72,127
61355,note_off,0,0,0,,5,,,53,127
61356,note_on,1,0,0,,7,,,55,127
61356,note_on,0,0,0,,11,,,70,127
61356,note_on,0,0,0,,7,,,67,127
61554,note_off,198,0,0,,7,,,67,127
61554,note_off,0,0,0,,11,,,70,127
61554,note_off,0,0,0,,7,,,55,127
61555,note_on,1,0,0,,8,,,56,127
61555,note_on,0,0,0,,0,,,72,127
61555,note_on,0,0,0,,8,,,68,127
61753,note_off,198,0,0,,8,,,68,127
61753,note_off,0,0,0,,0,,,72,127
61753,note_off,0,0,0,,8,,,56,127
61754,note_on,1,0,0,,11,,,58,127
61754,note_on,0,0,0,,1,,,73,127
61754,note_on,0,0,0,,11,,,70,127
61952,note_off,198,0,0,,11,,,70,127
61952,note_off,0,0,0,,1,,,73,127
61952,note_off,0,0,0,,11,,,58,127
61953,note_on,1,0,0,,0,,,60,127
61953,note_on,0,0,0,,8,,,68,127
61953,note_on,0,0,0,,3,,,75,127
62151,note_off,198,0,0,,3,,,75,127
62151,note_off,0,0,0,,8,,,68,127
62151,note_off,0,0,0,,0,,,60,127
62152,note_on,1,0,0,,1,,,61,127
62152,note_on,0,0,0,,1,,,73,127
62152,note_on,0,0,0,,11,,,70,127
62350,note_off,198,0,0,,11,,,70,127
62350,note_off,0,0,0,,1,,,73,127
62350,note_off,0,0,0,,1,,,61,127
62351,note_on,1,0,0,,3,,,63,127
62351,note_on,0,0,0,,0,,,72,127
62351,note_on,0,0,0,,8,,,68,127
62549,note_off,198,0,0,,8,,,68,127
62549,note_off,0,0,0,,0,,,72,127
62549,note_off,0,0,0,,3,,,63,127
62550,note_on,1,0,0,,1,,,61,127
62550,note_on,0,0,0,,11,,,70,127
62550,note_on,0,0,0,,7,,,67,127
62748,note_off,198,0,0,,7,,,67,127
62748,note_off,0,0,0,,11,,,70,127
62748,note_off,0,0,0,,1,,,61,127
62750,note_on,2,0,0,,8,,,68,127
62750,note_on,0,0,0,,0,,,72,127
62750,note_on,0,0,0,,0,,,60,127
62949,note_off,199,0,0,,0,,,60,127
62949,note_off,0,0,0,,0,,,72,127
62949,note_off,0,0,0,,8,,,68,127
62953,note_on,4,0,0,,1,,,73,127
62953,note_on,0,0,0,,11,,,70,127
62953,note_on,0,0,0,,11,,,58,127
63152,note_off,199,0,0,,11,,,58,127
63152,note_off,0,0,0,,11,,,70,127
63152,note_off,0,0,0,,1,,,73,127
63156,note_on,4,0,0,,0,,,72,127
63156,note_on,0,0,0,,3,,,75,127
63156,note_on,0,0,0,,8,,,56,127
63355,note_off,199,0,0,,8,,,56,127
63355,note_off,0,0,0,,3,,,75,127
63355,note_off,0,0,0,,0,,,72,127
63359,note_on,4,0,0,,11,,,70,127
63359,note_on,0,0,0,,1,,,73,127
63359,note_on,0,0,0,,1,,,61,127
63558,note_off,199,0,0,,1,,,61,127
63558,note_off,0,0,0,,1,,,73,127
63558,note_off,0,0,0,,11,,,70,127
63562,note_on,4,0,0,,8,,,68,127
63562,note_on,0,0,0,,0,,,72,127
63562,note_on,0,0,0,,3,,,63,127
63761,note_off,199,0,0,,3,,,63,127
63761,note_off,0,0,0,,0,,,72,127
63761,note_off,0,0,0,,8,,,68,127
63765,note_on,4,0,0,,7,,,67,127
63765,note_on,0,0,0,,11,,,70,127
63765,note_on,0,0,0,,1,,,61,127
63964,note_off,199,0,0,,1,,,61,127
63964,note_off,0,0,0,,11,,,70,127
63964,note_off,0,0,0,,7,,,67,127
63967,note_on,3,0,0,,0,,,72,127
63967,note_on,0,0,0,,8,,,68,127
63967,note_on,0,0,0,,0,,,60,127
64166,note_off,199,0,0,,0,,,60,127
64166,note_off,0,0,0,,8,,,68,127
64166,note_off,0,0,0,,0,,,72,127
64170,note_on,4,0,0,,11,,,70,127
64170,note_on,0,0,0,,1,,,73,127
64170,note_on,0,0,0,,11,,,58,127
64369,note_off,199,0,0,,11,,,58,127
64369,note_off,0,0,0,,1,,,73,127
64369,note_off,0,0,0,,11,,,70,127
64373,note_on,4,0,0,,3,,,75,127
64373,note_on,0,0,0,,0,,,72,127
64373,note_on,0,0,0,,8,,,56,127
64572,note_off,199,0,0,,8,,,56,127
64572,note_off,0,0,0,,0,,,72,127
64572,note_off,0,0,0,,3,,,75,127
64576,note_on,4,0,0,,11,,,70,127
64576,note_on,0,0,0,,1,,,73,127
64576,note_on,0,0,0,,1,,,49,127
64775,note_off,199,0,0,,1,,,49,127
64775,note_off,0,0,0,,1,,,73,127
64775,note_off,0,0,0,,11,,,70,127
64779,note_on,4,0,0,,0,,,72,127
64779,note_on,0,0,0,,8,,,68,127
64779,note_on,0,0,0,,3,,,51,127
64978,note_off,199,0,0,,3,,,51,127
64978,note_off,0,0,0,,8,,,68,127
64978,note_off,0,0,0,,0,,,72,127
64982,note_on,4,0,0,,7,,,67,127
64982,note_on,0,0,0,,11,,,70,127
64982,note_on,0,0,0,,1,,,49,127
65181,note_off,199,0,0,,1,,,49,127
65181,note_off,0,0,0,,11,,,70,127
65181,note_off,0,0,0,,7,,,67,127
65187,note_on,6,0,0,,0,,,48,127
65187,note_on,0,0,0,,8,,,68,127
65187,note_on,0,0,0,,0,,,72,127
65391,note_off,204,0,0,,0,,,72,127
65391,note_off,0,0,0,,8,,,68,127
65391,note_off,0,0,0,,0,,,48,127
65396,note_on,5,0,0,,11,,,46,127
65396,note_on,0,0,0,,11,,,70,127
65396,note_on,0,0,0,,1,,,73,127
65600,note_off,204,0,0,,1,,,73,127
65600,note_off,0,0,0,,11,,,70,127
65600,note_off,0,0,0,,11,,,46,127
65604,note_on,4,0,0,,8,,,44,127
65604,note_on,0,0,0,,3,,,75,127
65604,note_on,0,0,0,,0,,,72,127
65808,note_off,204,0,0,,0,,,72,127
65808,note_off,0,0,0,,3,,,75,127
65808,note_off,0,0,0,,8,,,44,127
65813,note_on,5,0,0,,1,,,37,127
65813,note_on,0,0,0,,1,,,49,127
65813,note_on,0,0,0,,1,,,73,127
65813,note_on,0,0,0,,11,,,70,127
66017,note_off,204,0,0,,11,,,70,127
66017,note_off,0,0,0,,1,,,73,127
66021,note_on,4,0,0,,8,,,68,127
66021,note_on,0,0,0,,0,,,72,127
66224,note_off,203,0,0,,1,,,49,127
66224,note_off,0,0,0,,1,,,37,127
66225,note_off,1,0,0,,0,,,72,127
66225,note_off,0,0,0,,8,,,68,127
66233,note_on,8,0,0,,3,,,39,127
66233,note_on,0,0,0,,3,,,51,127
66233,note_on,0,0,0,,11,,,70,127
66233,note_on,0,0,0,,7,,,67,127
66437,note_off,204,0,0,,7,,,67,127
66437,note_off,0,0,0,,11,,,70,127
66437,note_off,0,0,0,,3,,,51,127
66437,note_off,0,0,0,,3,,,39,127
66460,note_on,23,0,0,,8,,,44,127
66460,note_on,0,0,0,,8,,,56,127
66460,note_on,0,0,0,,7,,,67,127
67122,note_off,662,0,0,,7,,,67,127
67122,note_on,0,0,0,,8,,,68,127
68519,note_off,1397,0,0,,8,,,68,127
68529,note_off,10,0,0,,8,,,56,127
68529,note_off,0,0,0,,8,,,44,127
73728,end_of_track,5199,1,0,,,,,,
