tick,type,time,meta,track,program,channel,pitch,tempo,note,velocity
0,copyright,0,1,0,,,,,,
0,program_change,0,0,0,6,0,,,,
0,pitchwheel,0,0,0,,0,0,,,
0,program_change,0,0,0,6,1,,,,
0,pitchwheel,0,0,0,,1,-590,,,
0,program_change,0,0,0,6,2,,,,
0,pitchwheel,0,0,0,,2,-272,,,
0,program_change,0,0,0,6,3,,,,
0,pitchwheel,0,0,0,,3,-353,,,
0,program_change,0,0,0,6,4,,,,
0,pitchwheel,0,0,0,,4,-560,,,
0,program_change,0,0,0,6,5,,,,
0,pitchwheel,0,0,0,,5,-80,,,
0,program_change,0,0,0,6,6,,,,
0,pitchwheel,0,0,0,,6,-625,,,
0,program_change,0,0,0,6,7,,,,
0,pitchwheel,0,0,0,,7,-130,,,
0,program_change,0,0,0,6,8,,,,
0,pitchwheel,0,0,0,,8,-512,,,
0,program_change,0,0,0,6,10,,,,
0,pitchwheel,0,0,0,,10,-464,,,
0,program_change,0,0,0,6,11,,,,
0,pitchwheel,0,0,0,,11,-208,,,
0,program_change,0,0,0,6,12,,,,
0,pitchwheel,0,0,0,,12,-553,,,
0,set_tempo,0,1,0,,,,500000,,
110,note_on,110,0,0,,11,,,82,127
220,note_on,110,0,0,,6,,,78,127
329,note_off,109,0,0,,6,,,78,127
330,note_on,1,0,0,,5,,,77,127
439,note_off,109,0,0,,5,,,77,127
440,note_on,1,0,0,,3,,,75,127
549,note_off,109,0,0,,3,,,75,127
549,note_off,0,0,0,,11,,,82,127
550,note_on,1,0,0,,1,,,73,127
659,note_off,109,0,0,,1,,,73,127
660,note_on,1,0,0,,0,,,72,127
769,note_off,109,0,0,,0,,,72,127
770,note_on,1,0,0,,11,,,70,127
880,note_on,110,0,0,,6,,,66,127
989,note_off,109,0,0,,6,,,66,127
990,note_on,1,0,0,,5,,,65,127
1099,note_off,109,0,0,,5,,,65,127
1100,note_on,1,0,0,,3,,,63,127
1209,note_off,109,0,0,,3,,,63,127
1209,note_off,0,0,0,,11,,,70,127
1210,note_on,1,0,0,,1,,,61,127
1319,note_off,109,0,0,,1,,,61,127
1320,note_on,1,0,0,,0,,,60,127
1429,note_off,109,0,0,,0,,,60,127
1430,note_on,1,0,0,,11,,,58,127
1540,note_on,110,0,0,,6,,,54,127
1649,note_off,109,0,0,,6,,,54,127
1650,note_on,1,0,0,,5,,,53,127
1759,note_off,109,0,0,,5,,,53,127
1760,note_on,1,0,0,,3,,,51,127
1869,note_off,109,0,0,,3,,,51,127
1869,note_off,0,0,0,,11,,,58,127
1870,note_on,1,0,0,,1,,,49,127
1870,note_on,0,0,0,,0,,,60,127
1979,note_off,109,0,0,,1,,,49,127
1980,note_on,1,0,0,,0,,,48,127
2089,note_off,109,0,0,,0,,,48,127
2089,note_off,0,0,0,,0,,,60,127
2090,note_on,1,0,0,,11,,,46,127
2090,note_on,0,0,0,,3,,,63,127
2144,note_off,54,0,0,,3,,,63,127
2145,note_on,1,0,0,,1,,,61,127
2199,note_off,54,0,0,,1,,,61,127
2200,note_on,1,0,0,,3,,,63,127
2254,note_off,54,0,0,,3,,,63,127
2255,note_on,1,0,0,,1,,,61,127
2309,note_off,54,0,0,,1,,,61,127
2310,note_on,1,0,0,,3,,,63,127
2364,note_off,54,0,0,,3,,,63,127
2365,note_on,1,0,0,,1,,,61,127
2419,note_off,54,0,0,,1,,,61,127
2420,note_on,1,0,0,,0,,,60,127
2474,note_off,54,0,0,,0,,,60,127
2475,note_on,1,0,0,,1,,,61,127
2529,note_off,54,0,0,,1,,,61,127
2530,note_on,1,0,0,,11,,,58,127
2748,note_off,218,0,0,,11,,,58,127
2748,note_off,0,0,0,,11,,,46,127
2749,note_on,1,0,0,,11,,,46,127
2749,note_on,0,0,0,,5,,,53,127
2749,note_on,0,0,0,,5,,,65,127
2967,note_off,218,0,0,,5,,,65,127
2968,note_on,1,0,0,,1,,,85,127
2968,note_on,0,0,0,,11,,,82,127
3186,note_off,218,0,0,,11,,,82,127
3186,note_off,0,0,0,,1,,,85,127
3186,note_off,0,0,0,,5,,,53,127
3186,note_off,0,0,0,,11,,,46,127
3187,note_on,1,0,0,,0,,,48,127
3187,note_on,0,0,0,,3,,,51,127
3187,note_on,0,0,0,,0,,,84,127
3187,note_on,0,0,0,,10,,,81,127
3405,note_off,218,0,0,,10,,,81,127
3405,note_off,0,0,0,,0,,,84,127
3405,note_off,0,0,0,,3,,,51,127
3405,note_off,0,0,0,,0,,,48,127
3406,note_on,1,0,0,,0,,,48,127
3406,note_on,0,0,0,,3,,,51,127
3406,note_on,0,0,0,,3,,,63,127
3624,note_off,218,0,0,,3,,,63,127
3625,note_on,1,0,0,,10,,,81,127
3625,note_on,0,0,0,,6,,,78,127
3843,note_off,218,0,0,,6,,,78,127
3843,note_off,0,0,0,,10,,,81,127
3843,note_off,0,0,0,,3,,,51,127
3843,note_off,0,0,0,,0,,,48,127
3844,note_on,1,0,0,,1,,,49,127
3844,note_on,0,0,0,,11,,,58,127
3844,note_on,0,0,0,,5,,,77,127
3844,note_on,0,0,0,,11,,,82,127
4062,note_off,218,0,0,,11,,,82,127
4062,note_off,0,0,0,,5,,,77,127
4062,note_off,0,0,0,,11,,,58,127
4062,note_off,0,0,0,,1,,,49,127
4063,note_on,1,0,0,,3,,,51,127
4063,note_on,0,0,0,,8,,,80,127
4172,note_off,109,0,0,,8,,,80,127
4173,note_on,1,0,0,,6,,,78,127
4282,note_off,109,0,0,,6,,,78,127
4282,note_off,0,0,0,,3,,,51,127
4283,note_on,1,0,0,,5,,,53,127
4283,note_on,0,0,0,,5,,,77,127
4392,note_off,109,0,0,,5,,,77,127
4393,note_on,1,0,0,,3,,,75,127
4502,note_off,109,0,0,,3,,,75,127
4503,note_on,1,0,0,,5,,,41,127
4503,note_on,0,0,0,,1,,,73,127
4612,note_off,109,0,0,,1,,,73,127
4613,note_on,1,0,0,,0,,,72,127
4718,note_off,105,0,0,,5,,,53,127
4721,note_off,3,0,0,,0,,,72,127
4721,note_off,0,0,0,,5,,,41,127
4722,note_on,1,0,0,,11,,,58,127
4722,note_on,0,0,0,,3,,,75,127
4776,note_off,54,0,0,,3,,,75,127
4777,note_on,1,0,0,,1,,,73,127
4831,note_off,54,0,0,,1,,,73,127
4832,note_on,1,0,0,,3,,,75,127
4886,note_off,54,0,0,,3,,,75,127
4887,note_on,1,0,0,,1,,,73,127
4941,note_off,54,0,0,,1,,,73,127
4942,note_on,1,0,0,,11,,,46,127
4942,note_on,0,0,0,,3,,,75,127
4996,note_off,54,0,0,,3,,,75,127
4997,note_on,1,0,0,,1,,,73,127
5051,note_off,54,0,0,,1,,,73,127
5052,note_on,1,0,0,,0,,,72,127
5161,note_off,109,0,0,,0,,,72,127
5162,note_on,1,0,0,,11,,,70,127
5356,note_off,194,0,0,,11,,,70,127
5380,note_off,24,0,0,,11,,,46,127
5380,note_off,0,0,0,,11,,,58,127
5381,note_on,1,0,0,,1,,,85,127
5381,note_on,0,0,0,,1,,,73,127
5381,note_on,0,0,0,,11,,,70,127
5599,note_off,218,0,0,,11,,,70,127
5599,note_off,0,0,0,,1,,,85,127
5600,note_on,1,0,0,,11,,,46,127
5600,note_on,0,0,0,,5,,,65,127
5818,note_off,218,0,0,,11,,,46,127
5818,note_off,0,0,0,,1,,,73,127
5819,note_on,1,0,0,,0,,,48,127
5819,note_on,0,0,0,,3,,,75,127
6037,note_off,218,0,0,,3,,,75,127
6037,note_off,0,0,0,,0,,,48,127
6037,note_off,0,0,0,,5,,,65,127
6038,note_on,1,0,0,,11,,,82,127
6038,note_on,0,0,0,,5,,,65,127
6038,note_on,0,0,0,,11,,,70,127
6256,note_off,218,0,0,,11,,,70,127
6256,note_off,0,0,0,,11,,,82,127
6257,note_on,1,0,0,,0,,,48,127
6257,note_on,0,0,0,,10,,,69,127
6475,note_off,218,0,0,,10,,,69,127
6475,note_off,0,0,0,,0,,,48,127
6476,note_on,1,0,0,,1,,,49,127
6476,note_on,0,0,0,,11,,,70,127
6694,note_off,218,0,0,,11,,,70,127
6694,note_off,0,0,0,,1,,,49,127
6694,note_off,0,0,0,,5,,,65,127
6695,note_on,1,0,0,,3,,,51,127
6695,note_on,0,0,0,,6,,,78,127
6804,note_off,109,0,0,,6,,,78,127
6805,note_on,1,0,0,,5,,,77,127
6914,note_off,109,0,0,,5,,,77,127
6914,note_off,0,0,0,,3,,,51,127
6915,note_on,1,0,0,,5,,,53,127
6915,note_on,0,0,0,,3,,,75,127
7024,note_off,109,0,0,,3,,,75,127
7025,note_on,1,0,0,,1,,,73,127
7134,note_off,109,0,0,,1,,,73,127
7134,note_off,0,0,0,,5,,,53,127
7135,note_on,1,0,0,,6,,,54,127
7135,note_on,0,0,0,,0,,,72,127
7244,note_off,109,0,0,,0,,,72,127
7245,note_on,1,0,0,,11,,,70,127
7354,note_off,109,0,0,,11,,,70,127
7354,note_off,0,0,0,,6,,,54,127
7355,note_on,1,0,0,,5,,,53,127
7355,note_on,0,0,0,,10,,,69,127
7464,note_off,109,0,0,,10,,,69,127
7465,note_on,1,0,0,,11,,,70,127
7574,note_off,109,0,0,,11,,,70,127
7574,note_off,0,0,0,,5,,,53,127
7575,note_on,1,0,0,,6,,,54,127
7575,note_on,0,0,0,,0,,,72,127
7629,note_off,54,0,0,,0,,,72,127
7630,note_on,1,0,0,,11,,,70,127
7684,note_off,54,0,0,,11,,,70,127
7685,note_on,1,0,0,,0,,,72,127
7739,note_off,54,0,0,,0,,,72,127
7740,note_on,1,0,0,,11,,,70,127
7794,note_off,54,0,0,,11,,,70,127
7795,note_on,1,0,0,,6,,,42,127
7795,note_on,0,0,0,,0,,,72,127
7849,note_off,54,0,0,,0,,,72,127
7850,note_on,1,0,0,,11,,,70,127
7904,note_off,54,0,0,,11,,,70,127
7905,note_on,1,0,0,,10,,,69,127
7959,note_off,54,0,0,,10,,,69,127
7960,note_on,1,0,0,,11,,,70,127
8010,note_off,50,0,0,,6,,,54,127
8013,note_off,3,0,0,,11,,,70,127
8013,note_off,0,0,0,,6,,,42,127
8014,note_on,1,0,0,,5,,,53,127
8014,note_on,0,0,0,,11,,,70,127
8233,note_on,219,0,0,,5,,,41,127
8448,note_off,215,0,0,,5,,,53,127
8451,note_off,3,0,0,,11,,,70,127
8452,note_on,1,0,0,,0,,,72,127
8658,note_off,206,0,0,,0,,,72,127
8671,note_off,13,0,0,,5,,,41,127
8672,note_on,1,0,0,,0,,,84,127
8672,note_on,0,0,0,,10,,,81,127
8890,note_off,218,0,0,,10,,,81,127
8890,note_off,0,0,0,,0,,,84,127
8891,note_on,1,0,0,,5,,,53,127
8891,note_on,0,0,0,,10,,,57,127
9109,note_off,218,0,0,,10,,,57,127
9109,note_off,0,0,0,,5,,,53,127
9110,note_on,1,0,0,,6,,,54,127
9110,note_on,0,0,0,,11,,,58,127
9328,note_off,218,0,0,,11,,,58,127
9328,note_off,0,0,0,,6,,,54,127
9329,note_on,1,0,0,,10,,,81,127
9329,note_on,0,0,0,,6,,,78,127
9547,note_off,218,0,0,,6,,,78,127
9547,note_off,0,0,0,,10,,,81,127
9548,note_on,1,0,0,,10,,,57,127
9548,note_on,0,0,0,,0,,,60,127
9766,note_off,218,0,0,,0,,,60,127
9766,note_off,0,0,0,,10,,,57,127
9767,note_on,1,0,0,,11,,,58,127
9767,note_on,0,0,0,,1,,,61,127
9985,note_off,218,0,0,,1,,,61,127
9985,note_off,0,0,0,,11,,,58,127
9986,note_on,1,0,0,,0,,,60,127
9986,note_on,0,0,0,,3,,,63,127
10095,note_off,109,0,0,,3,,,63,127
10096,note_on,1,0,0,,6,,,66,127
10205,note_off,109,0,0,,6,,,66,127
10205,note_off,0,0,0,,0,,,60,127
10206,note_on,1,0,0,,10,,,57,127
10206,note_on,0,0,0,,5,,,65,127
10315,note_off,109,0,0,,5,,,65,127
10316,note_on,1,0,0,,3,,,63,127
10425,note_off,109,0,0,,3,,,63,127
10425,note_off,0,0,0,,10,,,57,127
10426,note_on,1,0,0,,5,,,53,127
10426,note_on,0,0,0,,1,,,61,127
10535,note_off,109,0,0,,1,,,61,127
10536,note_on,1,0,0,,0,,,60,127
10645,note_off,109,0,0,,0,,,60,127
10645,note_off,0,0,0,,5,,,53,127
10646,note_on,1,0,0,,11,,,58,127
10646,note_on,0,0,0,,3,,,63,127
10700,note_off,54,0,0,,3,,,63,127
10701,note_on,1,0,0,,1,,,61,127
10755,note_off,54,0,0,,1,,,61,127
10756,note_on,1,0,0,,3,,,63,127
10810,note_off,54,0,0,,3,,,63,127
10811,note_on,1,0,0,,1,,,61,127
10865,note_off,54,0,0,,1,,,61,127
10866,note_on,1,0,0,,11,,,46,127
10866,note_on,0,0,0,,3,,,63,127
10920,note_off,54,0,0,,3,,,63,127
10921,note_on,1,0,0,,1,,,61,127
10975,note_off,54,0,0,,1,,,61,127
10976,note_off,1,0,0,,11,,,58,127
10976,note_on,0,0,0,,0,,,60,127
11085,note_off,109,0,0,,0,,,60,127
11086,note_on,1,0,0,,11,,,58,127
11304,note_off,218,0,0,,11,,,58,127
11304,note_off,0,0,0,,11,,,46,127
11305,note_on,1,0,0,,11,,,82,127
11305,note_on,0,0,0,,11,,,70,127
11305,note_on,0,0,0,,1,,,73,127
11523,note_off,218,0,0,,11,,,70,127
11523,note_off,0,0,0,,11,,,82,127
11524,note_on,1,0,0,,11,,,46,127
11524,note_on,0,0,0,,5,,,65,127
11742,note_off,218,0,0,,5,,,65,127
11742,note_off,0,0,0,,11,,,46,127
11742,note_off,0,0,0,,1,,,73,127
11743,note_on,1,0,0,,0,,,48,127
11743,note_on,0,0,0,,0,,,72,127
11743,note_on,0,0,0,,4,,,64,127
11961,note_off,218,0,0,,4,,,64,127
11961,note_off,0,0,0,,0,,,48,127
11962,note_on,1,0,0,,11,,,82,127
11962,note_on,0,0,0,,5,,,65,127
12180,note_off,218,0,0,,11,,,82,127
12180,note_off,0,0,0,,0,,,72,127
12181,note_on,1,0,0,,1,,,49,127
12181,note_on,0,0,0,,11,,,70,127
12399,note_off,218,0,0,,1,,,49,127
12399,note_off,0,0,0,,5,,,65,127
12400,note_on,1,0,0,,4,,,52,127
12400,note_on,0,0,0,,7,,,67,127
12618,note_off,218,0,0,,4,,,52,127
12619,note_on,1,0,0,,0,,,84,127
12837,note_off,218,0,0,,0,,,84,127
12837,note_off,0,0,0,,7,,,67,127
12837,note_off,0,0,0,,11,,,70,127
12838,note_on,1,0,0,,5,,,53,127
12838,note_on,0,0,0,,5,,,65,127
12838,note_on,0,0,0,,11,,,70,127
12947,note_off,109,0,0,,11,,,70,127
12947,note_off,0,0,0,,5,,,65,127
12948,note_on,1,0,0,,8,,,68,127
13057,note_off,109,0,0,,8,,,68,127
13057,note_off,0,0,0,,5,,,53,127
13058,note_on,1,0,0,,7,,,55,127
13058,note_on,0,0,0,,4,,,64,127
13058,note_on,0,0,0,,7,,,67,127
13276,note_off,218,0,0,,7,,,67,127
13276,note_off,0,0,0,,4,,,64,127
13276,note_off,0,0,0,,7,,,55,127
13277,note_on,1,0,0,,0,,,60,127
13277,note_on,0,0,0,,8,,,56,127
13277,note_on,0,0,0,,7,,,67,127
13331,note_off,54,0,0,,7,,,67,127
13332,note_on,1,0,0,,5,,,65,127
13386,note_off,54,0,0,,5,,,65,127
13387,note_on,1,0,0,,7,,,67,127
13441,note_off,54,0,0,,7,,,67,127
13442,note_on,1,0,0,,5,,,65,127
13496,note_off,54,0,0,,5,,,65,127
13496,note_off,0,0,0,,8,,,56,127
13497,note_on,1,0,0,,7,,,55,127
13497,note_on,0,0,0,,4,,,64,127
13715,note_off,218,0,0,,4,,,64,127
13715,note_off,0,0,0,,7,,,55,127
13716,note_on,1,0,0,,5,,,53,127
13716,note_on,0,0,0,,5,,,65,127
13934,note_off,218,0,0,,5,,,65,127
13934,note_off,0,0,0,,5,,,53,127
13934,note_off,0,0,0,,0,,,60,127
13935,note_on,1,0,0,,11,,,58,127
13935,note_on,0,0,0,,4,,,64,127
13935,note_on,0,0,0,,0,,,60,127
13935,note_on,0,0,0,,1,,,73,127
14044,note_off,109,0,0,,1,,,73,127
14045,note_on,1,0,0,,11,,,70,127
14154,note_off,109,0,0,,11,,,70,127
14154,note_off,0,0,0,,0,,,60,127
14154,note_off,0,0,0,,4,,,64,127
14154,note_off,0,0,0,,11,,,58,127
14155,note_on,1,0,0,,0,,,60,127
14155,note_on,0,0,0,,11,,,58,127
14155,note_on,0,0,0,,4,,,64,127
14155,note_on,0,0,0,,11,,,70,127
14264,note_off,109,0,0,,11,,,70,127
14265,note_on,1,0,0,,7,,,67,127
14374,note_off,109,0,0,,7,,,67,127
14374,note_off,0,0,0,,4,,,64,127
14374,note_off,0,0,0,,11,,,58,127
14374,note_off,0,0,0,,0,,,60,127
14375,note_on,1,0,0,,4,,,64,127
14375,note_on,0,0,0,,0,,,60,127
14375,note_on,0,0,0,,11,,,58,127
14375,note_on,0,0,0,,7,,,67,127
14484,note_off,109,0,0,,7,,,67,127
14485,note_on,1,0,0,,4,,,76,127
14594,note_off,109,0,0,,4,,,76,127
14594,note_off,0,0,0,,11,,,58,127
14594,note_off,0,0,0,,0,,,60,127
14594,note_off,0,0,0,,4,,,64,127
14595,note_on,1,0,0,,0,,,60,127
14595,note_on,0,0,0,,8,,,56,127
14595,note_on,0,0,0,,5,,,77,127
14704,note_off,109,0,0,,5,,,77,127
14705,note_on,1,0,0,,0,,,72,127
14814,note_off,109,0,0,,0,,,72,127
14814,note_off,0,0,0,,8,,,56,127
14814,note_off,0,0,0,,0,,,60,127
14815,note_on,1,0,0,,0,,,60,127
14815,note_on,0,0,0,,8,,,56,127
14815,note_on,0,0,0,,0,,,72,127
14924,note_off,109,0,0,,0,,,72,127
14925,note_on,1,0,0,,8,,,68,127
15034,note_off,109,0,0,,8,,,68,127
15034,note_off,0,0,0,,8,,,56,127
15034,note_off,0,0,0,,0,,,60,127
15035,note_on,1,0,0,,8,,,56,127
15035,note_on,0,0,0,,0,,,60,127
15035,note_on,0,0,0,,8,,,68,127
15144,note_off,109,0,0,,8,,,68,127
15145,note_on,1,0,0,,0,,,72,127
15254,note_off,109,0,0,,0,,,72,127
15254,note_off,0,0,0,,0,,,60,127
15254,note_off,0,0,0,,8,,,56,127
15255,note_on,1,0,0,,11,,,58,127
15255,note_on,0,0,0,,0,,,60,127
15255,note_on,0,0,0,,4,,,64,127
15255,note_on,0,0,0,,1,,,73,127
15364,note_off,109,0,0,,1,,,73,127
15365,note_on,1,0,0,,11,,,70,127
15474,note_off,109,0,0,,11,,,70,127
15474,note_off,0,0,0,,4,,,64,127
15474,note_off,0,0,0,,0,,,60,127
15474,note_off,0,0,0,,11,,,58,127
15475,note_on,1,0,0,,11,,,58,127
15475,note_on,0,0,0,,0,,,60,127
15475,note_on,0,0,0,,4,,,64,127
15475,note_on,0,0,0,,11,,,70,127
15584,note_off,109,0,0,,11,,,70,127
15585,note_on,1,0,0,,7,,,67,127
15694,note_off,109,0,0,,7,,,67,127
15694,note_off,0,0,0,,4,,,64,127
15694,note_off,0,0,0,,0,,,60,127
15694,note_off,0,0,0,,11,,,58,127
15695,note_on,1,0,0,,0,,,60,127
15695,note_on,0,0,0,,4,,,64,127
15695,note_on,0,0,0,,11,,,58,127
15695,note_on,0,0,0,,7,,,67,127
15804,note_off,109,0,0,,7,,,67,127
15805,note_on,1,0,0,,4,,,76,127
15914,note_off,109,0,0,,4,,,76,127
15914,note_off,0,0,0,,11,,,58,127
15914,note_off,0,0,0,,4,,,64,127
15914,note_off,0,0,0,,0,,,60,127
15915,note_on,1,0,0,,8,,,56,127
15915,note_on,0,0,0,,0,,,60,127
15915,note_on,0,0,0,,5,,,77,127
16024,note_off,109,0,0,,5,,,77,127
16025,note_on,1,0,0,,0,,,72,127
16134,note_off,109,0,0,,0,,,72,127
16134,note_off,0,0,0,,0,,,60,127
16134,note_off,0,0,0,,8,,,56,127
16135,note_on,1,0,0,,0,,,60,127
16135,note_on,0,0,0,,8,,,56,127
16135,note_on,0,0,0,,0,,,72,127
16244,note_off,109,0,0,,0,,,72,127
16245,note_on,1,0,0,,8,,,68,127
16354,note_off,109,0,0,,8,,,68,127
16354,note_off,0,0,0,,8,,,56,127
16354,note_off,0,0,0,,0,,,60,127
16355,note_on,1,0,0,,8,,,56,127
16355,note_on,0,0,0,,0,,,60,127
16355,note_on,0,0,0,,8,,,68,127
16464,note_off,109,0,0,,8,,,68,127
16465,note_on,1,0,0,,0,,,72,127
16574,note_off,109,0,0,,0,,,72,127
16574,note_off,0,0,0,,0,,,60,127
16574,note_off,0,0,0,,8,,,56,127
16575,note_on,1,0,0,,0,,,60,127
16575,note_on,0,0,0,,4,,,64,127
16575,note_on,0,0,0,,11,,,58,127
16575,note_on,0,0,0,,1,,,73,127
16684,note_off,109,0,0,,1,,,73,127
16685,note_on,1,0,0,,11,,,70,127
16794,note_off,109,0,0,,11,,,70,127
16794,note_off,0,0,0,,11,,,58,127
16794,note_off,0,0,0,,4,,,64,127
16794,note_off,0,0,0,,0,,,60,127
16795,note_on,1,0,0,,0,,,60,127
16795,note_on,0,0,0,,11,,,58,127
16795,note_on,0,0,0,,4,,,64,127
16795,note_on,0,0,0,,11,,,70,127
16904,note_off,109,0,0,,11,,,70,127
16905,note_on,1,0,0,,7,,,67,127
17014,note_off,109,0,0,,7,,,67,127
17014,note_off,0,0,0,,4,,,64,127
17014,note_off,0,0,0,,11,,,58,127
17014,note_off,0,0,0,,0,,,60,127
17015,note_on,1,0,0,,0,,,60,127
17015,note_on,0,0,0,,4,,,64,127
17015,note_on,0,0,0,,11,,,58,127
17015,note_on,0,0,0,,7,,,67,127
17124,note_off,109,0,0,,7,,,67,127
17124,note_off,0,0,0,,4,,,64,127
17125,note_on,1,0,0,,4,,,64,127
17234,note_off,109,0,0,,4,,,64,127
17234,note_off,0,0,0,,11,,,58,127
17234,note_off,0,0,0,,0,,,60,127
17235,note_on,1,0,0,,8,,,56,127
17235,note_on,0,0,0,,0,,,60,127
17235,note_on,0,0,0,,0,,,72,127
17344,note_off,109,0,0,,0,,,72,127
17345,note_on,1,0,0,,11,,,70,127
17454,note_off,109,0,0,,11,,,70,127
17454,note_off,0,0,0,,8,,,56,127
17455,note_on,1,0,0,,7,,,55,127
17455,note_on,0,0,0,,11,,,70,127
17564,note_off,109,0,0,,11,,,70,127
17565,note_on,1,0,0,,8,,,68,127
17674,note_off,109,0,0,,8,,,68,127
17674,note_off,0,0,0,,7,,,55,127
17675,note_on,1,0,0,,5,,,53,127
17675,note_on,0,0,0,,8,,,68,127
17784,note_off,109,0,0,,8,,,68,127
17785,note_on,1,0,0,,7,,,67,127
17894,note_off,109,0,0,,7,,,67,127
17894,note_off,0,0,0,,5,,,53,127
17894,note_off,0,0,0,,0,,,60,127
17895,note_on,1,0,0,,11,,,58,127
17895,note_on,0,0,0,,7,,,67,127
18004,note_off,109,0,0,,7,,,67,127
18005,note_on,1,0,0,,8,,,68,127
18114,note_off,109,0,0,,8,,,68,127
18114,note_off,0,0,0,,11,,,58,127
18115,note_on,1,0,0,,0,,,60,127
18115,note_on,0,0,0,,11,,,70,127
18224,note_off,109,0,0,,11,,,70,127
18225,note_on,1,0,0,,8,,,68,127
18334,note_off,109,0,0,,8,,,68,127
18334,note_off,0,0,0,,0,,,60,127
18335,note_on,1,0,0,,1,,,61,127
18335,note_on,0,0,0,,7,,,67,127
18444,note_off,109,0,0,,7,,,67,127
18445,note_on,1,0,0,,5,,,65,127
18554,note_off,109,0,0,,5,,,65,127
18554,note_off,0,0,0,,1,,,61,127
18555,note_on,1,0,0,,0,,,36,127
18555,note_on,0,0,0,,5,,,65,127
18555,note_on,0,0,0,,7,,,67,127
18664,note_off,109,0,0,,7,,,67,127
18664,note_off,0,0,0,,5,,,65,127
18665,note_on,1,0,0,,4,,,64,127
18774,note_off,109,0,0,,4,,,64,127
18774,note_off,0,0,0,,0,,,36,127
18775,note_on,1,0,0,,1,,,61,127
18775,note_on,0,0,0,,11,,,70,127
18884,note_off,109,0,0,,11,,,70,127
18885,note_on,1,0,0,,8,,,68,127
18994,note_off,109,0,0,,8,,,68,127
18994,note_off,0,0,0,,1,,,61,127
18995,note_on,1,0,0,,11,,,58,127
18995,note_on,0,0,0,,7,,,67,127
19104,note_off,109,0,0,,7,,,67,127
19105,note_on,1,0,0,,5,,,65,127
19214,note_off,109,0,0,,5,,,65,127
19214,note_off,0,0,0,,11,,,58,127
19215,note_on,1,0,0,,0,,,36,127
19215,note_on,0,0,0,,7,,,67,127
19215,note_on,0,0,0,,5,,,65,127
19324,note_off,109,0,0,,5,,,65,127
19324,note_off,0,0,0,,7,,,67,127
19325,note_on,1,0,0,,4,,,64,127
19434,note_off,109,0,0,,4,,,64,127
19434,note_off,0,0,0,,0,,,36,127
19435,note_on,1,0,0,,1,,,61,127
19435,note_on,0,0,0,,11,,,70,127
19544,note_off,109,0,0,,11,,,70,127
19545,note_on,1,0,0,,8,,,68,127
19654,note_off,109,0,0,,8,,,68,127
19654,note_off,0,0,0,,1,,,61,127
19655,note_on,1,0,0,,11,,,58,127
19655,note_on,0,0,0,,7,,,67,127
19764,note_off,109,0,0,,7,,,67,127
19765,note_on,1,0,0,,5,,,65,127
19874,note_off,109,0,0,,5,,,65,127
19874,note_off,0,0,0,,11,,,58,127
19875,note_on,1,0,0,,0,,,36,127
19875,note_on,0,0,0,,4,,,64,127
19984,note_off,109,0,0,,4,,,64,127
19985,note_on,1,0,0,,5,,,65,127
20094,note_off,109,0,0,,5,,,65,127
20094,note_off,0,0,0,,0,,,36,127
20095,note_on,1,0,0,,1,,,61,127
20095,note_on,0,0,0,,7,,,67,127
20149,note_off,54,0,0,,7,,,67,127
20150,note_on,1,0,0,,5,,,65,127
20204,note_off,54,0,0,,5,,,65,127
20205,note_on,1,0,0,,7,,,67,127
20259,note_off,54,0,0,,7,,,67,127
20260,note_on,1,0,0,,5,,,65,127
20314,note_off,54,0,0,,5,,,65,127
20314,note_off,0,0,0,,1,,,61,127
20315,note_on,1,0,0,,11,,,58,127
20315,note_on,0,0,0,,7,,,67,127
20369,note_off,54,0,0,,7,,,67,127
20370,note_on,1,0,0,,5,,,65,127
20424,note_off,54,0,0,,5,,,65,127
20425,note_on,1,0,0,,4,,,64,127
20479,note_off,54,0,0,,4,,,64,127
20480,note_on,1,0,0,,5,,,65,127
20534,note_off,54,0,0,,5,,,65,127
20534,note_off,0,0,0,,11,,,58,127
20535,note_on,1,0,0,,0,,,36,127
20535,note_on,0,0,0,,4,,,64,127
20644,note_off,109,0,0,,4,,,64,127
20645,note_on,1,0,0,,5,,,65,127
20754,note_off,109,0,0,,5,,,65,127
20754,note_off,0,0,0,,0,,,36,127
20755,note_on,1,0,0,,1,,,61,127
20755,note_on,0,0,0,,7,,,67,127
20809,note_off,54,0,0,,7,,,67,127
20810,note_on,1,0,0,,5,,,65,127
20864,note_off,54,0,0,,5,,,65,127
20865,note_on,1,0,0,,7,,,67,127
20919,note_off,54,0,0,,7,,,67,127
20920,note_on,1,0,0,,5,,,65,127
20974,note_off,54,0,0,,5,,,65,127
20974,note_off,0,0,0,,1,,,61,127
20975,note_on,1,0,0,,11,,,58,127
20975,note_on,0,0,0,,7,,,67,127
21029,note_off,54,0,0,,7,,,67,127
21030,note_on,1,0,0,,5,,,65,127
21084,note_off,54,0,0,,5,,,65,127
21085,note_on,1,0,0,,4,,,64,127
21139,note_off,54,0,0,,4,,,64,127
21140,note_on,1,0,0,,5,,,65,127
21194,note_off,54,0,0,,5,,,65,127
21194,note_off,0,0,0,,11,,,58,127
21195,note_on,1,0,0,,0,,,36,127
21195,note_on,0,0,0,,5,,,65,127
21413,note_off,218,0,0,,5,,,65,127
21414,note_on,1,0,0,,7,,,67,127
21791,note_off,377,0,0,,7,,,67,127
21852,note_off,61,0,0,,0,,,36,127
21853,note_on,1,0,0,,0,,,84,127
22071,note_off,218,0,0,,0,,,84,127
22072,note_on,1,0,0,,0,,,60,127
22072,note_on,0,0,0,,4,,,64,127
22290,note_off,218,0,0,,4,,,64,127
22290,note_off,0,0,0,,0,,,60,127
22291,note_on,1,0,0,,2,,,62,127
22291,note_on,0,0,0,,7,,,67,127
22345,note_off,54,0,0,,7,,,67,127
22346,note_on,1,0,0,,5,,,65,127
22400,note_off,54,0,0,,5,,,65,127
22401,note_on,1,0,0,,7,,,67,127
22455,note_off,54,0,0,,7,,,67,127
22456,note_on,1,0,0,,5,,,65,127
22510,note_off,54,0,0,,5,,,65,127
22511,note_on,1,0,0,,0,,,84,127
22729,note_off,218,0,0,,0,,,84,127
22729,note_off,0,0,0,,2,,,62,127
22730,note_on,1,0,0,,2,,,62,127
22730,note_on,0,0,0,,5,,,65,127
22948,note_off,218,0,0,,5,,,65,127
22948,note_off,0,0,0,,2,,,62,127
22949,note_on,1,0,0,,4,,,64,127
22949,note_on,0,0,0,,8,,,68,127
23003,note_off,54,0,0,,8,,,68,127
23004,note_on,1,0,0,,7,,,67,127
23058,note_off,54,0,0,,7,,,67,127
23059,note_on,1,0,0,,8,,,68,127
23113,note_off,54,0,0,,8,,,68,127
23114,note_on,1,0,0,,7,,,67,127
23168,note_off,54,0,0,,4,,,64,127
23169,note_on,1,0,0,,0,,,84,127
23387,note_off,218,0,0,,0,,,84,127
23387,note_off,0,0,0,,7,,,67,127
23388,note_on,1,0,0,,0,,,60,127
23388,note_on,0,0,0,,4,,,64,127
23606,note_off,218,0,0,,4,,,64,127
23606,note_off,0,0,0,,0,,,60,127
23607,note_on,1,0,0,,2,,,62,127
23607,note_on,0,0,0,,7,,,67,127
23661,note_off,54,0,0,,7,,,67,127
23662,note_on,1,0,0,,5,,,65,127
23716,note_off,54,0,0,,5,,,65,127
23717,note_on,1,0,0,,7,,,67,127
23771,note_off,54,0,0,,7,,,67,127
23772,note_on,1,0,0,,5,,,65,127
23826,note_off,54,0,0,,2,,,62,127
23827,note_on,1,0,0,,0,,,84,127
24045,note_off,218,0,0,,0,,,84,127
24045,note_off,0,0,0,,5,,,65,127
24046,note_on,1,0,0,,2,,,62,127
24046,note_on,0,0,0,,5,,,65,127
24264,note_off,218,0,0,,5,,,65,127
24264,note_off,0,0,0,,2,,,62,127
24265,note_on,1,0,0,,4,,,64,127
24265,note_on,0,0,0,,8,,,68,127
24319,note_off,54,0,0,,8,,,68,127
24320,note_on,1,0,0,,7,,,67,127
24374,note_off,54,0,0,,7,,,67,127
24375,note_on,1,0,0,,8,,,68,127
24429,note_off,54,0,0,,8,,,68,127
24430,note_on,1,0,0,,7,,,67,127
24484,note_off,54,0,0,,4,,,64,127
24485,note_on,1,0,0,,0,,,84,127
24703,note_off,218,0,0,,0,,,84,127
24703,note_off,0,0,0,,7,,,67,127
24704,note_on,1,0,0,,4,,,64,127
24704,note_on,0,0,0,,7,,,67,127
24922,note_off,218,0,0,,7,,,67,127
24922,note_off,0,0,0,,4,,,64,127
24923,note_on,1,0,0,,5,,,65,127
24923,note_on,0,0,0,,8,,,68,127
25141,note_off,218,0,0,,8,,,68,127
25141,note_off,0,0,0,,5,,,65,127
25142,note_on,1,0,0,,11,,,58,127
25142,note_on,0,0,0,,11,,,70,127
25214,note_off,72,0,0,,11,,,70,127
25215,note_on,1,0,0,,8,,,68,127
25287,note_off,72,0,0,,8,,,68,127
25287,note_off,0,0,0,,11,,,58,127
25288,note_on,1,0,0,,1,,,61,127
25288,note_on,0,0,0,,7,,,67,127
25360,note_off,72,0,0,,7,,,67,127
25360,note_off,0,0,0,,1,,,61,127
25361,note_on,1,0,0,,0,,,60,127
25361,note_on,0,0,0,,8,,,68,127
25579,note_off,218,0,0,,8,,,68,127
25579,note_off,0,0,0,,0,,,60,127
25580,note_on,1,0,0,,0,,,48,127
25580,note_on,0,0,0,,7,,,67,127
25798,note_off,218,0,0,,7,,,67,127
25798,note_off,0,0,0,,0,,,48,127
25799,note_on,1,0,0,,5,,,41,127
25799,note_on,0,0,0,,5,,,65,127
26017,note_off,218,0,0,,5,,,65,127
26017,note_off,0,0,0,,5,,,41,127
26018,note_on,1,0,0,,1,,,61,127
26018,note_on,0,0,0,,4,,,64,127
26236,note_off,218,0,0,,4,,,64,127
26236,note_off,0,0,0,,1,,,61,127
26237,note_on,1,0,0,,11,,,58,127
26237,note_on,0,0,0,,7,,,67,127
26291,note_off,54,0,0,,7,,,67,127
26292,note_on,1,0,0,,5,,,65,127
26346,note_off,54,0,0,,5,,,65,127
26347,note_on,1,0,0,,4,,,64,127
26401,note_off,54,0,0,,4,,,64,127
26402,note_on,1,0,0,,5,,,65,127
26456,note_off,54,0,0,,5,,,65,127
26457,note_on,1,0,0,,0,,,84,127
26675,note_off,218,0,0,,0,,,84,127
26675,note_off,0,0,0,,11,,,58,127
26676,note_on,1,0,0,,0,,,60,127
26676,note_on,0,0,0,,4,,,64,127
26894,note_off,218,0,0,,4,,,64,127
26894,note_off,0,0,0,,0,,,60,127
26895,note_on,1,0,0,,2,,,62,127
26895,note_on,0,0,0,,7,,,67,127
26949,note_off,54,0,0,,7,,,67,127
26950,note_on,1,0,0,,5,,,65,127
27004,note_off,54,0,0,,5,,,65,127
27005,note_on,1,0,0,,7,,,67,127
27059,note_off,54,0,0,,7,,,67,127
27060,note_on,1,0,0,,5,,,65,127
27114,note_off,54,0,0,,5,,,65,127
27115,note_on,1,0,0,,0,,,84,127
27333,note_off,218,0,0,,0,,,84,127
27333,note_off,0,0,0,,2,,,62,127
27334,note_on,1,0,0,,2,,,62,127
27334,note_on,0,0,0,,5,,,65,127
27552,note_off,218,0,0,,5,,,65,127
27552,note_off,0,0,0,,2,,,62,127
27553,note_on,1,0,0,,4,,,64,127
27553,note_on,0,0,0,,8,,,68,127
27607,note_off,54,0,0,,8,,,68,127
27608,note_on,1,0,0,,7,,,67,127
27662,note_off,54,0,0,,7,,,67,127
27663,note_on,1,0,0,,8,,,68,127
27717,note_off,54,0,0,,8,,,68,127
27718,note_on,1,0,0,,7,,,67,127
27772,note_off,54,0,0,,4,,,64,127
27773,note_on,1,0,0,,0,,,84,127
27991,note_off,218,0,0,,0,,,84,127
27991,note_off,0,0,0,,7,,,67,127
27992,note_on,1,0,0,,0,,,60,127
27992,note_on,0,0,0,,4,,,64,127
28210,note_off,218,0,0,,4,,,64,127
28210,note_off,0,0,0,,0,,,60,127
28211,note_on,1,0,0,,2,,,62,127
28211,note_on,0,0,0,,7,,,67,127
28265,note_off,54,0,0,,7,,,67,127
28266,note_on,1,0,0,,5,,,65,127
28320,note_off,54,0,0,,5,,,65,127
28321,note_on,1,0,0,,7,,,67,127
28375,note_off,54,0,0,,7,,,67,127
28376,note_on,1,0,0,,5,,,65,127
28430,note_off,54,0,0,,2,,,62,127
28431,note_on,1,0,0,,0,,,84,127
28649,note_off,218,0,0,,0,,,84,127
28649,note_off,0,0,0,,5,,,65,127
28650,note_on,1,0,0,,2,,,62,127
28650,note_on,0,0,0,,5,,,65,127
28868,note_off,218,0,0,,5,,,65,127
28868,note_off,0,0,0,,2,,,62,127
28869,note_on,1,0,0,,4,,,64,127
28869,note_on,0,0,0,,8,,,68,127
28923,note_off,54,0,0,,8,,,68,127
28924,note_on,1,0,0,,7,,,67,127
28978,note_off,54,0,0,,7,,,67,127
28979,note_on,1,0,0,,8,,,68,127
29033,note_off,54,0,0,,8,,,68,127
29034,note_on,1,0,0,,7,,,67,127
29088,note_off,54,0,0,,4,,,64,127
29089,note_on,1,0,0,,0,,,84,127
29307,note_off,218,0,0,,0,,,84,127
29307,note_off,0,0,0,,7,,,67,127
29308,note_on,1,0,0,,4,,,64,127
29308,note_on,0,0,0,,7,,,67,127
29526,note_off,218,0,0,,7,,,67,127
29526,note_off,0,0,0,,4,,,64,127
29527,note_on,1,0,0,,5,,,65,127
29527,note_on,0,0,0,,8,,,68,127
29745,note_off,218,0,0,,8,,,68,127
29745,note_off,0,0,0,,5,,,65,127
29746,note_on,1,0,0,,11,,,58,127
29746,note_on,0,0,0,,11,,,70,127
29818,note_off,72,0,0,,11,,,70,127
29819,note_on,1,0,0,,8,,,68,127
29891,note_off,72,0,0,,8,,,68,127
29891,note_off,0,0,0,,11,,,58,127
29892,note_on,1,0,0,,1,,,61,127
29892,note_on,0,0,0,,7,,,67,127
29964,note_off,72,0,0,,7,,,67,127
29964,note_off,0,0,0,,1,,,61,127
29965,note_on,1,0,0,,0,,,60,127
29965,note_on,0,0,0,,8,,,68,127
29965,note_on,0,0,0,,5,,,65,127
30183,note_off,218,0,0,,5,,,65,127
30183,note_off,0,0,0,,8,,,68,127
30183,note_off,0,0,0,,0,,,60,127
30184,note_on,1,0,0,,0,,,48,127
30184,note_on,0,0,0,,7,,,67,127
30184,note_on,0,0,0,,4,,,64,127
30349,note_off,165,0,0,,4,,,64,127
30349,note_off,0,0,0,,7,,,67,127
30403,note_off,54,0,0,,0,,,48,127
30404,note_on,1,0,0,,8,,,56,127
30404,note_on,0,0,0,,5,,,53,127
30404,note_on,0,0,0,,0,,,60,127
30404,note_on,0,0,0,,5,,,65,127
30623,note_on,219,0,0,,5,,,77,127
30695,note_off,72,0,0,,5,,,77,127
30696,note_on,1,0,0,,7,,,79,127
30768,note_off,72,0,0,,7,,,79,127
30769,note_on,1,0,0,,8,,,80,127
30841,note_off,72,0,0,,8,,,80,127
30842,note_on,1,0,0,,7,,,79,127
30842,note_on,0,0,0,,1,,,73,127
31060,note_off,218,0,0,,7,,,79,127
31060,note_off,0,0,0,,5,,,65,127
31060,note_off,0,0,0,,0,,,60,127
31060,note_off,0,0,0,,5,,,53,127
31060,note_off,0,0,0,,8,,,56,127
31061,note_on,1,0,0,,7,,,55,127
31061,note_on,0,0,0,,0,,,60,127
31061,note_on,0,0,0,,11,,,58,127
31061,note_on,0,0,0,,5,,,65,127
31061,note_on,0,0,0,,5,,,77,127
31279,note_off,218,0,0,,5,,,77,127
31279,note_off,0,0,0,,5,,,65,127
31279,note_off,0,0,0,,0,,,60,127
31280,note_on,1,0,0,,4,,,64,127
31280,note_on,0,0,0,,4,,,76,127
31498,note_off,218,0,0,,4,,,76,127
31498,note_off,0,0,0,,4,,,64,127
31498,note_off,0,0,0,,11,,,58,127
31498,note_off,0,0,0,,7,,,55,127
31498,note_off,0,0,0,,1,,,73,127
31499,note_on,1,0,0,,8,,,56,127
31499,note_on,0,0,0,,5,,,65,127
31499,note_on,0,0,0,,0,,,60,127
31499,note_on,0,0,0,,5,,,77,127
31499,note_on,0,0,0,,0,,,72,127
31717,note_off,218,0,0,,0,,,72,127
31717,note_off,0,0,0,,5,,,77,127
31717,note_off,0,0,0,,0,,,60,127
31717,note_off,0,0,0,,5,,,65,127
31717,note_off,0,0,0,,8,,,56,127
31718,note_on,1,0,0,,11,,,58,127
31718,note_on,0,0,0,,5,,,65,127
31936,note_off,218,0,0,,11,,,58,127
31937,note_on,1,0,0,,0,,,60,127
31937,note_on,0,0,0,,1,,,85,127
31937,note_on,0,0,0,,11,,,82,127
32155,note_off,218,0,0,,11,,,82,127
32155,note_off,0,0,0,,1,,,85,127
32155,note_off,0,0,0,,0,,,60,127
32156,note_on,1,0,0,,1,,,61,127
32156,note_on,0,0,0,,11,,,82,127
32156,note_on,0,0,0,,7,,,79,127
32374,note_off,218,0,0,,7,,,79,127
32374,note_off,0,0,0,,11,,,82,127
32374,note_off,0,0,0,,1,,,61,127
32374,note_off,0,0,0,,5,,,65,127
32375,note_on,1,0,0,,0,,,60,127
32375,note_on,0,0,0,,8,,,80,127
32447,note_off,72,0,0,,8,,,80,127
32448,note_on,1,0,0,,7,,,79,127
32520,note_off,72,0,0,,7,,,79,127
32521,note_on,1,0,0,,5,,,77,127
32593,note_off,72,0,0,,5,,,77,127
32594,note_on,1,0,0,,5,,,77,127
32594,note_on,0,0,0,,8,,,80,127
32812,note_off,218,0,0,,8,,,80,127
32812,note_off,0,0,0,,5,,,77,127
32812,note_off,0,0,0,,0,,,60,127
32813,note_on,1,0,0,,0,,,48,127
32813,note_on,0,0,0,,7,,,79,127
32813,note_on,0,0,0,,4,,,76,127
32978,note_off,165,0,0,,4,,,76,127
32978,note_off,0,0,0,,7,,,79,127
33032,note_off,54,0,0,,0,,,48,127
33033,note_on,1,0,0,,5,,,53,127
33033,note_on,0,0,0,,5,,,65,127
33033,note_on,0,0,0,,0,,,60,127
33033,note_on,0,0,0,,8,,,56,127
33252,note_on,219,0,0,,5,,,77,127
33324,note_off,72,0,0,,5,,,77,127
33325,note_on,1,0,0,,7,,,79,127
33397,note_off,72,0,0,,7,,,79,127
33398,note_on,1,0,0,,8,,,80,127
33470,note_off,72,0,0,,8,,,80,127
33471,note_on,1,0,0,,1,,,73,127
33471,note_on,0,0,0,,7,,,79,127
33689,note_off,218,0,0,,7,,,79,127
33689,note_off,0,0,0,,8,,,56,127
33689,note_off,0,0,0,,0,,,60,127
33689,note_off,0,0,0,,5,,,65,127
33689,note_off,0,0,0,,5,,,53,127
33690,note_on,1,0,0,,7,,,55,127
33690,note_on,0,0,0,,0,,,60,127
33690,note_on,0,0,0,,11,,,58,127
33690,note_on,0,0,0,,5,,,65,127
33690,note_on,0,0,0,,5,,,77,127
33908,note_off,218,0,0,,5,,,77,127
33908,note_off,0,0,0,,5,,,65,127
33908,note_off,0,0,0,,0,,,60,127
33909,note_on,1,0,0,,4,,,64,127
33909,note_on,0,0,0,,4,,,76,127
34127,note_off,218,0,0,,4,,,76,127
34127,note_off,0,0,0,,4,,,64,127
34127,note_off,0,0,0,,11,,,58,127
34127,note_off,0,0,0,,7,,,55,127
34127,note_off,0,0,0,,1,,,73,127
34128,note_on,1,0,0,,8,,,56,127
34128,note_on,0,0,0,,5,,,65,127
34128,note_on,0,0,0,,0,,,60,127
34128,note_on,0,0,0,,5,,,77,127
34128,note_on,0,0,0,,0,,,72,127
34346,note_off,218,0,0,,0,,,60,127
34346,note_off,0,0,0,,5,,,65,127
34346,note_off,0,0,0,,8,,,56,127
34347,note_on,1,0,0,,11,,,58,127
34347,note_on,0,0,0,,5,,,65,127
34565,note_off,218,0,0,,11,,,58,127
34565,note_off,0,0,0,,0,,,72,127
34565,note_off,0,0,0,,5,,,77,127
34566,note_on,1,0,0,,0,,,60,127
34566,note_on,0,0,0,,1,,,85,127
34566,note_on,0,0,0,,11,,,82,127
34784,note_off,218,0,0,,11,,,82,127
34784,note_off,0,0,0,,1,,,85,127
34784,note_off,0,0,0,,0,,,60,127
34785,note_on,1,0,0,,1,,,61,127
34785,note_on,0,0,0,,11,,,82,127
34785,note_on,0,0,0,,7,,,79,127
35003,note_off,218,0,0,,7,,,79,127
35003,note_off,0,0,0,,11,,,82,127
35003,note_off,0,0,0,,1,,,61,127
35003,note_off,0,0,0,,5,,,65,127
35004,note_on,1,0,0,,0,,,60,127
35004,note_on,0,0,0,,8,,,80,127
35076,note_off,72,0,0,,8,,,80,127
35077,note_on,1,0,0,,7,,,79,127
35149,note_off,72,0,0,,7,,,79,127
35150,note_on,1,0,0,,5,,,77,127
35222,note_off,72,0,0,,5,,,77,127
35223,note_on,1,0,0,,8,,,80,127
35223,note_on,0,0,0,,5,,,77,127
35441,note_off,218,0,0,,5,,,77,127
35441,note_off,0,0,0,,8,,,80,127
35441,note_off,0,0,0,,0,,,60,127
35442,note_on,1,0,0,,0,,,48,127
35442,note_on,0,0,0,,4,,,76,127
35442,note_on,0,0,0,,7,,,79,127
35660,note_off,218,0,0,,7,,,79,127
35660,note_off,0,0,0,,4,,,76,127
35660,note_off,0,0,0,,0,,,48,127
35661,note_on,1,0,0,,5,,,53,127
35661,note_on,0,0,0,,5,,,77,127
35771,note_on,110,0,0,,1,,,73,127
35880,note_off,109,0,0,,1,,,73,127
35880,note_off,0,0,0,,5,,,53,127
35881,note_on,1,0,0,,11,,,46,127
35881,note_on,0,0,0,,0,,,72,127
35990,note_off,109,0,0,,0,,,72,127
35991,note_on,1,0,0,,11,,,70,127
36100,note_off,109,0,0,,11,,,70,127
36100,note_off,0,0,0,,11,,,46,127
36100,note_off,0,0,0,,5,,,77,127
36101,note_on,1,0,0,,0,,,48,127
36101,note_on,0,0,0,,8,,,68,127
36101,note_on,0,0,0,,4,,,76,127
36210,note_off,109,0,0,,8,,,68,127
36211,note_on,1,0,0,,7,,,67,127
36320,note_off,109,0,0,,7,,,67,127
36320,note_off,0,0,0,,4,,,76,127
36320,note_off,0,0,0,,0,,,48,127
36321,note_on,1,0,0,,8,,,68,127
36321,note_on,0,0,0,,5,,,77,127
36431,note_on,110,0,0,,1,,,61,127
36540,note_off,109,0,0,,1,,,61,127
36541,note_on,1,0,0,,0,,,60,127
36650,note_off,109,0,0,,0,,,60,127
36651,note_on,1,0,0,,11,,,58,127
36760,note_off,109,0,0,,11,,,58,127
36760,note_off,0,0,0,,8,,,68,127
36761,note_on,1,0,0,,8,,,56,127
36761,note_on,0,0,0,,11,,,70,127
36870,note_off,109,0,0,,8,,,56,127
36871,note_on,1,0,0,,7,,,55,127
36980,note_off,109,0,0,,7,,,55,127
36980,note_off,0,0,0,,11,,,70,127
36980,note_off,0,0,0,,5,,,77,127
36981,note_on,1,0,0,,5,,,53,127
36981,note_on,0,0,0,,5,,,77,127
36981,note_on,0,0,0,,0,,,72,127
37090,note_off,109,0,0,,5,,,53,127
37091,note_on,1,0,0,,1,,,49,127
37200,note_off,109,0,0,,1,,,49,127
37200,note_off,0,0,0,,0,,,72,127
37201,note_on,1,0,0,,0,,,48,127
37201,note_on,0,0,0,,5,,,65,127
37310,note_off,109,0,0,,0,,,48,127
37311,note_on,1,0,0,,11,,,46,127
37420,note_off,109,0,0,,11,,,46,127
37420,note_off,0,0,0,,5,,,65,127
37421,note_on,1,0,0,,8,,,44,127
37421,note_on,0,0,0,,7,,,67,127
37530,note_off,109,0,0,,8,,,44,127
37531,note_on,1,0,0,,7,,,43,127
37640,note_off,109,0,0,,7,,,43,127
37640,note_off,0,0,0,,7,,,67,127
37640,note_off,0,0,0,,5,,,77,127
37641,note_on,1,0,0,,5,,,41,127
37641,note_on,0,0,0,,11,,,70,127
37750,note_off,109,0,0,,11,,,70,127
37751,note_on,1,0,0,,8,,,68,127
37860,note_off,109,0,0,,8,,,68,127
37860,note_off,0,0,0,,5,,,41,127
37861,note_on,1,0,0,,11,,,46,127
37861,note_on,0,0,0,,7,,,67,127
37970,note_off,109,0,0,,7,,,67,127
37971,note_on,1,0,0,,5,,,65,127
38080,note_off,109,0,0,,5,,,65,127
38080,note_off,0,0,0,,11,,,46,127
38081,note_on,1,0,0,,0,,,48,127
38081,note_on,0,0,0,,7,,,67,127
38190,note_off,109,0,0,,7,,,67,127
38191,note_on,1,0,0,,4,,,64,127
38300,note_off,109,0,0,,4,,,64,127
38300,note_off,0,0,0,,0,,,48,127
38301,note_on,1,0,0,,1,,,49,127
38301,note_on,0,0,0,,5,,,65,127
38410,note_off,109,0,0,,5,,,65,127
38411,note_on,1,0,0,,8,,,68,127
38520,note_off,109,0,0,,8,,,68,127
38520,note_off,0,0,0,,1,,,49,127
38521,note_on,1,0,0,,11,,,46,127
38521,note_on,0,0,0,,7,,,67,127
38630,note_off,109,0,0,,7,,,67,127
38631,note_on,1,0,0,,5,,,65,127
38740,note_off,109,0,0,,5,,,65,127
38740,note_off,0,0,0,,11,,,46,127
38741,note_on,1,0,0,,0,,,48,127
38741,note_on,0,0,0,,7,,,67,127
38850,note_off,109,0,0,,7,,,67,127
38851,note_on,1,0,0,,4,,,64,127
38960,note_off,109,0,0,,4,,,64,127
38960,note_off,0,0,0,,0,,,48,127
38961,note_on,1,0,0,,1,,,49,127
38961,note_on,0,0,0,,5,,,65,127
39070,note_off,109,0,0,,5,,,65,127
39071,note_on,1,0,0,,8,,,68,127
39180,note_off,109,0,0,,8,,,68,127
39180,note_off,0,0,0,,1,,,49,127
39181,note_on,1,0,0,,11,,,46,127
39181,note_on,0,0,0,,7,,,67,127
39290,note_off,109,0,0,,7,,,67,127
39291,note_on,1,0,0,,5,,,65,127
39400,note_off,109,0,0,,5,,,65,127
39400,note_off,0,0,0,,11,,,46,127
39401,note_on,1,0,0,,0,,,48,127
39401,note_on,0,0,0,,7,,,67,127
39510,note_off,109,0,0,,7,,,67,127
39511,note_on,1,0,0,,4,,,64,127
39620,note_off,109,0,0,,4,,,64,127
39620,note_off,0,0,0,,0,,,48,127
39621,note_on,1,0,0,,11,,,46,127
39621,note_on,0,0,0,,5,,,65,127
39731,note_on,110,0,0,,1,,,61,127
39840,note_off,109,0,0,,1,,,61,127
39840,note_off,0,0,0,,11,,,46,127
39841,note_on,1,0,0,,0,,,48,127
39841,note_on,0,0,0,,0,,,60,127
39950,note_off,109,0,0,,0,,,60,127
39951,note_on,1,0,0,,11,,,58,127
40060,note_off,109,0,0,,11,,,58,127
40060,note_off,0,0,0,,0,,,48,127
40060,note_off,0,0,0,,5,,,65,127
40061,note_on,1,0,0,,0,,,48,127
40061,note_on,0,0,0,,0,,,36,127
40061,note_on,0,0,0,,8,,,56,127
40061,note_on,0,0,0,,4,,,64,127
40170,note_off,109,0,0,,8,,,56,127
40171,note_on,1,0,0,,7,,,55,127
40280,note_off,109,0,0,,7,,,55,127
40280,note_off,0,0,0,,4,,,64,127
40280,note_off,0,0,0,,0,,,36,127
40280,note_off,0,0,0,,0,,,48,127
40281,note_on,1,0,0,,5,,,41,127
40281,note_on,0,0,0,,7,,,55,127
40281,note_on,0,0,0,,4,,,64,127
40499,note_off,218,0,0,,4,,,64,127
40499,note_off,0,0,0,,7,,,55,127
40500,note_on,1,0,0,,5,,,53,127
40500,note_on,0,0,0,,5,,,65,127
40889,note_off,389,0,0,,5,,,65,127
40938,note_off,49,0,0,,5,,,53,127
40938,note_off,0,0,0,,5,,,41,127
40939,note_on,1,0,0,,0,,,84,127
40939,note_on,0,0,0,,10,,,81,127
41157,note_off,218,0,0,,10,,,81,127
41157,note_off,0,0,0,,0,,,84,127
41158,note_on,1,0,0,,5,,,53,127
41158,note_on,0,0,0,,10,,,57,127
41376,note_off,218,0,0,,10,,,57,127
41376,note_off,0,0,0,,5,,,53,127
41377,note_on,1,0,0,,7,,,55,127
41377,note_on,0,0,0,,0,,,60,127
41431,note_off,54,0,0,,0,,,60,127
41432,note_on,1,0,0,,11,,,58,127
41486,note_off,54,0,0,,11,,,58,127
41487,note_on,1,0,0,,0,,,60,127
41541,note_off,54,0,0,,0,,,60,127
41542,note_on,1,0,0,,11,,,58,127
41596,note_off,54,0,0,,11,,,58,127
41597,note_on,1,0,0,,0,,,84,127
41597,note_on,0,0,0,,10,,,81,127
41815,note_off,218,0,0,,10,,,81,127
41815,note_off,0,0,0,,0,,,84,127
41815,note_off,0,0,0,,7,,,55,127
41816,note_on,1,0,0,,10,,,57,127
41816,note_on,0,0,0,,0,,,60,127
42034,note_off,218,0,0,,0,,,60,127
42034,note_off,0,0,0,,10,,,57,127
42035,note_on,1,0,0,,11,,,58,127
42035,note_on,0,0,0,,3,,,63,127
42089,note_off,54,0,0,,3,,,63,127
42090,note_on,1,0,0,,1,,,61,127
42144,note_off,54,0,0,,1,,,61,127
42145,note_on,1,0,0,,3,,,63,127
42199,note_off,54,0,0,,3,,,63,127
42200,note_on,1,0,0,,1,,,61,127
42254,note_off,54,0,0,,1,,,61,127
42254,note_off,0,0,0,,11,,,58,127
42255,note_on,1,0,0,,0,,,60,127
42255,note_on,0,0,0,,3,,,63,127
42364,note_off,109,0,0,,3,,,63,127
42365,note_on,1,0,0,,6,,,66,127
42474,note_off,109,0,0,,6,,,66,127
42474,note_off,0,0,0,,0,,,60,127
42475,note_on,1,0,0,,10,,,57,127
42475,note_on,0,0,0,,5,,,65,127
42584,note_off,109,0,0,,5,,,65,127
42585,note_on,1,0,0,,3,,,63,127
42694,note_off,109,0,0,,3,,,63,127
42694,note_off,0,0,0,,10,,,57,127
42695,note_on,1,0,0,,5,,,53,127
42695,note_on,0,0,0,,1,,,61,127
42804,note_off,109,0,0,,1,,,61,127
42805,note_on,1,0,0,,0,,,60,127
42914,note_off,109,0,0,,0,,,60,127
42914,note_off,0,0,0,,5,,,53,127
42915,note_on,1,0,0,,11,,,58,127
42915,note_on,0,0,0,,3,,,63,127
42969,note_off,54,0,0,,3,,,63,127
42970,note_on,1,0,0,,1,,,61,127
43024,note_off,54,0,0,,1,,,61,127
43025,note_on,1,0,0,,3,,,63,127
43079,note_off,54,0,0,,3,,,63,127
43080,note_on,1,0,0,,1,,,61,127
43134,note_off,54,0,0,,1,,,61,127
43134,note_off,0,0,0,,11,,,58,127
43135,note_on,1,0,0,,11,,,46,127
43135,note_on,0,0,0,,3,,,63,127
43189,note_off,54,0,0,,3,,,63,127
43190,note_on,1,0,0,,1,,,61,127
43244,note_off,54,0,0,,1,,,61,127
43245,note_on,1,0,0,,0,,,60,127
43354,note_off,109,0,0,,0,,,60,127
43355,note_on,1,0,0,,11,,,58,127
43573,note_off,218,0,0,,11,,,58,127
43573,note_off,0,0,0,,11,,,46,127
43574,note_on,1,0,0,,11,,,82,127
43792,note_off,218,0,0,,11,,,82,127
43793,note_on,1,0,0,,11,,,58,127
43793,note_on,0,0,0,,2,,,62,127
44011,note_off,218,0,0,,2,,,62,127
44011,note_off,0,0,0,,11,,,58,127
44012,note_on,1,0,0,,0,,,60,127
44012,note_on,0,0,0,,5,,,65,127
44066,note_off,54,0,0,,5,,,65,127
44067,note_on,1,0,0,,3,,,63,127
44121,note_off,54,0,0,,3,,,63,127
44122,note_on,1,0,0,,5,,,65,127
44176,note_off,54,0,0,,5,,,65,127
44177,note_on,1,0,0,,3,,,63,127
44231,note_off,54,0,0,,3,,,63,127
44232,note_on,1,0,0,,11,,,82,127
44450,note_off,218,0,0,,11,,,82,127
44450,note_off,0,0,0,,0,,,60,127
44451,note_on,1,0,0,,2,,,62,127
44451,note_on,0,0,0,,5,,,65,127
44669,note_off,218,0,0,,5,,,65,127
44669,note_off,0,0,0,,2,,,62,127
44670,note_on,1,0,0,,3,,,63,127
44670,note_on,0,0,0,,8,,,68,127
44724,note_off,54,0,0,,8,,,68,127
44725,note_on,1,0,0,,6,,,66,127
44779,note_off,54,0,0,,6,,,66,127
44780,note_on,1,0,0,,8,,,68,127
44834,note_off,54,0,0,,8,,,68,127
44835,note_on,1,0,0,,6,,,66,127
44889,note_off,54,0,0,,6,,,66,127
44889,note_off,0,0,0,,3,,,63,127
44890,note_on,1,0,0,,5,,,65,127
44890,note_on,0,0,0,,8,,,68,127
44999,note_off,109,0,0,,8,,,68,127
45000,note_on,1,0,0,,12,,,71,127
45109,note_off,109,0,0,,12,,,71,127
45109,note_off,0,0,0,,5,,,65,127
45110,note_on,1,0,0,,2,,,62,127
45110,note_on,0,0,0,,11,,,70,127
45219,note_off,109,0,0,,11,,,70,127
45220,note_on,1,0,0,,8,,,68,127
45329,note_off,109,0,0,,8,,,68,127
45329,note_off,0,0,0,,2,,,62,127
45330,note_on,1,0,0,,11,,,58,127
45330,note_on,0,0,0,,6,,,66,127
45439,note_off,109,0,0,,6,,,66,127
45440,note_on,1,0,0,,5,,,65,127
45549,note_off,109,0,0,,5,,,65,127
45549,note_off,0,0,0,,11,,,58,127
45550,note_on,1,0,0,,3,,,63,127
45550,note_on,0,0,0,,8,,,68,127
45604,note_off,54,0,0,,8,,,68,127
45605,note_on,1,0,0,,6,,,66,127
45659,note_off,54,0,0,,6,,,66,127
45660,note_on,1,0,0,,8,,,68,127
45714,note_off,54,0,0,,8,,,68,127
45715,note_on,1,0,0,,6,,,66,127
45769,note_off,54,0,0,,6,,,66,127
45769,note_off,0,0,0,,3,,,63,127
45770,note_on,1,0,0,,3,,,51,127
45770,note_on,0,0,0,,8,,,68,127
45824,note_off,54,0,0,,8,,,68,127
45825,note_on,1,0,0,,6,,,66,127
45879,note_off,54,0,0,,6,,,66,127
45880,note_on,1,0,0,,5,,,65,127
45989,note_off,109,0,0,,5,,,65,127
45990,note_on,1,0,0,,3,,,63,127
46208,note_off,218,0,0,,3,,,63,127
46208,note_off,0,0,0,,3,,,51,127
46209,note_on,1,0,0,,11,,,82,127
46209,note_on,0,0,0,,6,,,66,127
46209,note_on,0,0,0,,3,,,75,127
46427,note_off,218,0,0,,6,,,66,127
46427,note_off,0,0,0,,11,,,82,127
46428,note_on,1,0,0,,3,,,51,127
46428,note_on,0,0,0,,11,,,70,127
46646,note_off,218,0,0,,11,,,70,127
46646,note_off,0,0,0,,3,,,51,127
46647,note_on,1,0,0,,5,,,53,127
46647,note_on,0,0,0,,10,,,69,127
46865,note_off,218,0,0,,10,,,69,127
46865,note_off,0,0,0,,5,,,53,127
46865,note_off,0,0,0,,3,,,75,127
46866,note_on,1,0,0,,11,,,82,127
46866,note_on,0,0,0,,3,,,75,127
47084,note_off,218,0,0,,11,,,82,127
47085,note_on,1,0,0,,7,,,55,127
47085,note_on,0,0,0,,11,,,70,127
47303,note_off,218,0,0,,11,,,70,127
47303,note_off,0,0,0,,7,,,55,127
47304,note_on,1,0,0,,10,,,57,127
47304,note_on,0,0,0,,0,,,72,127
47522,note_off,218,0,0,,0,,,72,127
47522,note_off,0,0,0,,10,,,57,127
47522,note_off,0,0,0,,3,,,75,127
47523,note_on,1,0,0,,11,,,82,127
47523,note_on,0,0,0,,3,,,75,127
47523,note_on,0,0,0,,5,,,65,127
47741,note_off,218,0,0,,3,,,75,127
47741,note_off,0,0,0,,11,,,82,127
47742,note_on,1,0,0,,11,,,58,127
47742,note_on,0,0,0,,1,,,73,127
47960,note_off,218,0,0,,1,,,73,127
47960,note_off,0,0,0,,11,,,58,127
47961,note_on,1,0,0,,0,,,60,127
47961,note_on,0,0,0,,0,,,72,127
48179,note_off,218,0,0,,0,,,72,127
48179,note_off,0,0,0,,0,,,60,127
48179,note_off,0,0,0,,5,,,65,127
48180,note_on,1,0,0,,1,,,61,127
48180,note_on,0,0,0,,0,,,72,127
48180,note_on,0,0,0,,5,,,65,127
48234,note_off,54,0,0,,0,,,72,127
48235,note_on,1,0,0,,11,,,70,127
48289,note_off,54,0,0,,11,,,70,127
48290,note_on,1,0,0,,0,,,72,127
48344,note_off,54,0,0,,0,,,72,127
48345,note_on,1,0,0,,11,,,70,127
48399,note_off,54,0,0,,11,,,70,127
48399,note_off,0,0,0,,1,,,61,127
48400,note_on,1,0,0,,0,,,60,127
48400,note_on,0,0,0,,10,,,69,127
48618,note_off,218,0,0,,10,,,69,127
48618,note_off,0,0,0,,0,,,60,127
48619,note_on,1,0,0,,11,,,58,127
48619,note_on,0,0,0,,11,,,70,127
48837,note_off,218,0,0,,11,,,70,127
48837,note_off,0,0,0,,11,,,58,127
48837,note_off,0,0,0,,5,,,65,127
48838,note_on,1,0,0,,3,,,63,127
48838,note_on,0,0,0,,5,,,65,127
48838,note_on,0,0,0,,10,,,69,127
48838,note_on,0,0,0,,6,,,78,127
48947,note_off,109,0,0,,6,,,78,127
48948,note_on,1,0,0,,3,,,75,127
49057,note_off,109,0,0,,3,,,75,127
49057,note_off,0,0,0,,10,,,69,127
49057,note_off,0,0,0,,5,,,65,127
49057,note_off,0,0,0,,3,,,63,127
49058,note_on,1,0,0,,3,,,63,127
49058,note_on,0,0,0,,10,,,69,127
49058,note_on,0,0,0,,5,,,65,127
49058,note_on,0,0,0,,3,,,75,127
49167,note_off,109,0,0,,3,,,75,127
49168,note_on,1,0,0,,0,,,72,127
49277,note_off,109,0,0,,0,,,72,127
49277,note_off,0,0,0,,5,,,65,127
49277,note_off,0,0,0,,10,,,69,127
49277,note_off,0,0,0,,3,,,63,127
49278,note_on,1,0,0,,3,,,63,127
49278,note_on,0,0,0,,10,,,69,127
49278,note_on,0,0,0,,5,,,65,127
49278,note_on,0,0,0,,0,,,72,127
49387,note_off,109,0,0,,0,,,72,127
49388,note_on,1,0,0,,3,,,75,127
49497,note_off,109,0,0,,3,,,75,127
49497,note_off,0,0,0,,5,,,65,127
49497,note_off,0,0,0,,10,,,69,127
49497,note_off,0,0,0,,3,,,63,127
49498,note_on,1,0,0,,1,,,61,127
49498,note_on,0,0,0,,5,,,65,127
49498,note_on,0,0,0,,5,,,77,127
49607,note_off,109,0,0,,5,,,77,127
49608,note_on,1,0,0,,1,,,73,127
49717,note_off,109,0,0,,1,,,73,127
49717,note_off,0,0,0,,5,,,65,127
49717,note_off,0,0,0,,1,,,61,127
49718,note_on,1,0,0,,5,,,65,127
49718,note_on,0,0,0,,1,,,61,127
49718,note_on,0,0,0,,1,,,73,127
49827,note_off,109,0,0,,1,,,73,127
49828,note_on,1,0,0,,11,,,70,127
49937,note_off,109,0,0,,11,,,70,127
49937,note_off,0,0,0,,1,,,61,127
49937,note_off,0,0,0,,5,,,65,127
49938,note_on,1,0,0,,5,,,65,127
49938,note_on,0,0,0,,1,,,61,127
49938,note_on,0,0,0,,11,,,70,127
50047,note_off,109,0,0,,11,,,70,127
50047,note_off,0,0,0,,5,,,65,127
50048,note_on,1,0,0,,5,,,65,127
50157,note_off,109,0,0,,5,,,65,127
50157,note_off,0,0,0,,1,,,61,127
50158,note_on,1,0,0,,3,,,63,127
50158,note_on,0,0,0,,5,,,65,127
50158,note_on,0,0,0,,10,,,69,127
50158,note_on,0,0,0,,6,,,78,127
50267,note_off,109,0,0,,6,,,78,127
50268,note_on,1,0,0,,3,,,75,127
50377,note_off,109,0,0,,3,,,75,127
50377,note_off,0,0,0,,10,,,69,127
50377,note_off,0,0,0,,5,,,65,127
50377,note_off,0,0,0,,3,,,63,127
50378,note_on,1,0,0,,3,,,63,127
50378,note_on,0,0,0,,5,,,65,127
50378,note_on,0,0,0,,10,,,69,127
50378,note_on,0,0,0,,3,,,75,127
50487,note_off,109,0,0,,3,,,75,127
50488,note_on,1,0,0,,0,,,72,127
50597,note_off,109,0,0,,0,,,72,127
50597,note_off,0,0,0,,10,,,69,127
50597,note_off,0,0,0,,5,,,65,127
50597,note_off,0,0,0,,3,,,63,127
50598,note_on,1,0,0,,3,,,63,127
50598,note_on,0,0,0,,10,,,69,127
50598,note_on,0,0,0,,5,,,65,127
50598,note_on,0,0,0,,0,,,72,127
50707,note_off,109,0,0,,0,,,72,127
50708,note_on,1,0,0,,3,,,75,127
50817,note_off,109,0,0,,3,,,75,127
50817,note_off,0,0,0,,5,,,65,127
50817,note_off,0,0,0,,10,,,69,127
50817,note_off,0,0,0,,3,,,63,127
50818,note_on,1,0,0,,5,,,65,127
50818,note_on,0,0,0,,1,,,61,127
50818,note_on,0,0,0,,5,,,77,127
50927,note_off,109,0,0,,5,,,77,127
50928,note_on,1,0,0,,1,,,73,127
51037,note_off,109,0,0,,1,,,73,127
51037,note_off,0,0,0,,1,,,61,127
51037,note_off,0,0,0,,5,,,65,127
51038,note_on,1,0,0,,5,,,65,127
51038,note_on,0,0,0,,1,,,61,127
51038,note_on,0,0,0,,1,,,73,127
51147,note_off,109,0,0,,1,,,73,127
51148,note_on,1,0,0,,11,,,70,127
51257,note_off,109,0,0,,11,,,70,127
51257,note_off,0,0,0,,1,,,61,127
51257,note_off,0,0,0,,5,,,65,127
51258,note_on,1,0,0,,1,,,61,127
51258,note_on,0,0,0,,5,,,65,127
51258,note_on,0,0,0,,11,,,70,127
51367,note_off,109,0,0,,11,,,70,127
51367,note_off,0,0,0,,5,,,65,127
51368,note_on,1,0,0,,5,,,65,127
51477,note_off,109,0,0,,5,,,65,127
51477,note_off,0,0,0,,1,,,61,127
51478,note_on,1,0,0,,11,,,58,127
51478,note_on,0,0,0,,0,,,60,127
51478,note_on,0,0,0,,1,,,73,127
51587,note_off,109,0,0,,1,,,73,127
51588,note_on,1,0,0,,11,,,70,127
51697,note_off,109,0,0,,11,,,70,127
51697,note_off,0,0,0,,0,,,60,127
51697,note_off,0,0,0,,11,,,58,127
51698,note_on,1,0,0,,11,,,58,127
51698,note_on,0,0,0,,0,,,60,127
51698,note_on,0,0,0,,11,,,70,127
51807,note_off,109,0,0,,11,,,70,127
51808,note_on,1,0,0,,7,,,67,127
51917,note_off,109,0,0,,7,,,67,127
51917,note_off,0,0,0,,0,,,60,127
51917,note_off,0,0,0,,11,,,58,127
51918,note_on,1,0,0,,11,,,58,127
51918,note_on,0,0,0,,0,,,60,127
51918,note_on,0,0,0,,7,,,67,127
52027,note_off,109,0,0,,7,,,67,127
52028,note_on,1,0,0,,4,,,64,127
52137,note_off,109,0,0,,4,,,64,127
52137,note_off,0,0,0,,0,,,60,127
52137,note_off,0,0,0,,11,,,58,127
52138,note_on,1,0,0,,10,,,57,127
52138,note_on,0,0,0,,0,,,60,127
52138,note_on,0,0,0,,0,,,72,127
52247,note_off,109,0,0,,0,,,72,127
52248,note_on,1,0,0,,10,,,69,127
52357,note_off,109,0,0,,10,,,69,127
52357,note_off,0,0,0,,10,,,57,127
52358,note_on,1,0,0,,5,,,53,127
52358,note_on,0,0,0,,10,,,69,127
52467,note_off,109,0,0,,10,,,69,127
52468,note_on,1,0,0,,5,,,65,127
52577,note_off,109,0,0,,5,,,65,127
52577,note_off,0,0,0,,5,,,53,127
52578,note_on,1,0,0,,10,,,57,127
52578,note_on,0,0,0,,5,,,65,127
52687,note_off,109,0,0,,5,,,65,127
52688,note_on,1,0,0,,3,,,63,127
52797,note_off,109,0,0,,3,,,63,127
52797,note_off,0,0,0,,10,,,57,127
52797,note_off,0,0,0,,0,,,60,127
52798,note_on,1,0,0,,11,,,58,127
52798,note_on,0,0,0,,1,,,61,127
52907,note_off,109,0,0,,1,,,61,127
52908,note_on,1,0,0,,5,,,65,127
53017,note_off,109,0,0,,5,,,65,127
53017,note_off,0,0,0,,11,,,58,127
53018,note_on,1,0,0,,6,,,54,127
53018,note_on,0,0,0,,3,,,63,127
53127,note_off,109,0,0,,3,,,63,127
53128,note_on,1,0,0,,1,,,61,127
53237,note_off,109,0,0,,1,,,61,127
53237,note_off,0,0,0,,6,,,54,127
53238,note_on,1,0,0,,3,,,51,127
53238,note_on,0,0,0,,0,,,60,127
53347,note_off,109,0,0,,0,,,60,127
53348,note_on,1,0,0,,11,,,58,127
53457,note_off,109,0,0,,11,,,58,127
53457,note_off,0,0,0,,3,,,51,127
53458,note_on,1,0,0,,5,,,41,127
53458,note_on,0,0,0,,10,,,57,127
53567,note_off,109,0,0,,10,,,57,127
53568,note_on,1,0,0,,5,,,65,127
53677,note_off,109,0,0,,5,,,65,127
53677,note_off,0,0,0,,5,,,41,127
53678,note_on,1,0,0,,6,,,54,127
53678,note_on,0,0,0,,5,,,65,127
53678,note_on,0,0,0,,3,,,63,127
53787,note_off,109,0,0,,3,,,63,127
53787,note_off,0,0,0,,5,,,65,127
53788,note_on,1,0,0,,1,,,61,127
53897,note_off,109,0,0,,1,,,61,127
53897,note_off,0,0,0,,6,,,54,127
53898,note_on,1,0,0,,3,,,51,127
53898,note_on,0,0,0,,0,,,60,127
54007,note_off,109,0,0,,0,,,60,127
54008,note_on,1,0,0,,11,,,58,127
54117,note_off,109,0,0,,11,,,58,127
54117,note_off,0,0,0,,3,,,51,127
54118,note_on,1,0,0,,5,,,41,127
54118,note_on,0,0,0,,10,,,57,127
54227,note_off,109,0,0,,10,,,57,127
54228,note_on,1,0,0,,5,,,65,127
54337,note_off,109,0,0,,5,,,65,127
54337,note_off,0,0,0,,5,,,41,127
54338,note_on,1,0,0,,6,,,54,127
54338,note_on,0,0,0,,3,,,63,127
54338,note_on,0,0,0,,5,,,65,127
54447,note_off,109,0,0,,5,,,65,127
54447,note_off,0,0,0,,3,,,63,127
54448,note_on,1,0,0,,1,,,61,127
54557,note_off,109,0,0,,1,,,61,127
54557,note_off,0,0,0,,6,,,54,127
54558,note_on,1,0,0,,3,,,51,127
54558,note_on,0,0,0,,0,,,60,127
54667,note_off,109,0,0,,0,,,60,127
54668,note_on,1,0,0,,11,,,58,127
54777,note_off,109,0,0,,11,,,58,127
54777,note_off,0,0,0,,3,,,51,127
54778,note_on,1,0,0,,5,,,41,127
54778,note_on,0,0,0,,10,,,57,127
54887,note_off,109,0,0,,10,,,57,127
54888,note_on,1,0,0,,11,,,58,127
54997,note_off,109,0,0,,11,,,58,127
54997,note_off,0,0,0,,5,,,41,127
54998,note_on,1,0,0,,6,,,54,127
54998,note_on,0,0,0,,0,,,60,127
55052,note_off,54,0,0,,0,,,60,127
55053,note_on,1,0,0,,11,,,58,127
55107,note_off,54,0,0,,11,,,58,127
55108,note_on,1,0,0,,0,,,60,127
55162,note_off,54,0,0,,0,,,60,127
55163,note_on,1,0,0,,11,,,58,127
55217,note_off,54,0,0,,11,,,58,127
55217,note_off,0,0,0,,6,,,54,127
55218,note_on,1,0,0,,3,,,51,127
55218,note_on,0,0,0,,0,,,60,127
55272,note_off,54,0,0,,0,,,60,127
55273,note_on,1,0,0,,11,,,58,127
55327,note_off,54,0,0,,11,,,58,127
55328,note_on,1,0,0,,10,,,57,127
55382,note_off,54,0,0,,10,,,57,127
55383,note_on,1,0,0,,11,,,58,127
55437,note_off,54,0,0,,11,,,58,127
55437,note_off,0,0,0,,3,,,51,127
55438,note_on,1,0,0,,5,,,41,127
55438,note_on,0,0,0,,10,,,57,127
55547,note_off,109,0,0,,10,,,57,127
55548,note_on,1,0,0,,11,,,58,127
55657,note_off,109,0,0,,11,,,58,127
55657,note_off,0,0,0,,5,,,41,127
55658,note_on,1,0,0,,6,,,54,127
55658,note_on,0,0,0,,0,,,60,127
55712,note_off,54,0,0,,0,,,60,127
55713,note_on,1,0,0,,11,,,58,127
55767,note_off,54,0,0,,11,,,58,127
55768,note_on,1,0,0,,0,,,60,127
55822,note_off,54,0,0,,0,,,60,127
55823,note_on,1,0,0,,11,,,58,127
55877,note_off,54,0,0,,11,,,58,127
55877,note_off,0,0,0,,6,,,54,127
55878,note_on,1,0,0,,3,,,51,127
55878,note_on,0,0,0,,0,,,60,127
55932,note_off,54,0,0,,0,,,60,127
55933,note_on,1,0,0,,11,,,58,127
55987,note_off,54,0,0,,11,,,58,127
55988,note_on,1,0,0,,10,,,57,127
56042,note_off,54,0,0,,10,,,57,127
56043,note_on,1,0,0,,11,,,58,127
56097,note_off,54,0,0,,11,,,58,127
56097,note_off,0,0,0,,3,,,51,127
56098,note_on,1,0,0,,5,,,53,127
56098,note_on,0,0,0,,11,,,58,127
56316,note_off,218,0,0,,5,,,53,127
56317,note_on,1,0,0,,5,,,41,127
56535,note_off,218,0,0,,11,,,58,127
56536,note_on,1,0,0,,0,,,60,127
56719,note_off,183,0,0,,0,,,60,127
56754,note_off,35,0,0,,5,,,41,127
56755,note_on,1,0,0,,5,,,77,127
56973,note_off,218,0,0,,5,,,77,127
56974,note_on,1,0,0,,5,,,53,127
56974,note_on,0,0,0,,10,,,57,127
57192,note_off,218,0,0,,10,,,57,127
57192,note_off,0,0,0,,5,,,53,127
57193,note_on,1,0,0,,7,,,55,127
57193,note_on,0,0,0,,0,,,60,127
57247,note_off,54,0,0,,0,,,60,127
57248,note_on,1,0,0,,11,,,58,127
57302,note_off,54,0,0,,11,,,58,127
57303,note_on,1,0,0,,0,,,60,127
57357,note_off,54,0,0,,0,,,60,127
57358,note_on,1,0,0,,11,,,58,127
57412,note_off,54,0,0,,11,,,58,127
57413,note_on,1,0,0,,5,,,77,127
57631,note_off,218,0,0,,5,,,77,127
57631,note_off,0,0,0,,7,,,55,127
57632,note_on,1,0,0,,7,,,55,127
57632,note_on,0,0,0,,11,,,58,127
57850,note_off,218,0,0,,11,,,58,127
57850,note_off,0,0,0,,7,,,55,127
57851,note_on,1,0,0,,10,,,57,127
57851,note_on,0,0,0,,1,,,61,127
57905,note_off,54,0,0,,1,,,61,127
57906,note_on,1,0,0,,0,,,60,127
57960,note_off,54,0,0,,0,,,60,127
57961,note_on,1,0,0,,1,,,61,127
58015,note_off,54,0,0,,1,,,61,127
58016,note_on,1,0,0,,0,,,60,127
58070,note_off,54,0,0,,10,,,57,127
58071,note_on,1,0,0,,5,,,77,127
58289,note_off,218,0,0,,5,,,77,127
58289,note_off,0,0,0,,0,,,60,127
58290,note_on,1,0,0,,5,,,53,127
58290,note_on,0,0,0,,10,,,57,127
58508,note_off,218,0,0,,10,,,57,127
58508,note_off,0,0,0,,5,,,53,127
58509,note_on,1,0,0,,7,,,55,127
58509,note_on,0,0,0,,0,,,60,127
58563,note_off,54,0,0,,0,,,60,127
58564,note_on,1,0,0,,11,,,58,127
58618,note_off,54,0,0,,11,,,58,127
58619,note_on,1,0,0,,0,,,60,127
58673,note_off,54,0,0,,0,,,60,127
58674,note_on,1,0,0,,11,,,58,127
58728,note_off,54,0,0,,7,,,55,127
58729,note_on,1,0,0,,5,,,77,127
58947,note_off,218,0,0,,5,,,77,127
58947,note_off,0,0,0,,11,,,58,127
58948,note_on,1,0,0,,7,,,55,127
58948,note_on,0,0,0,,11,,,58,127
59166,note_off,218,0,0,,11,,,58,127
59166,note_off,0,0,0,,7,,,55,127
59167,note_on,1,0,0,,10,,,57,127
59167,note_on,0,0,0,,1,,,61,127
59221,note_off,54,0,0,,1,,,61,127
59222,note_on,1,0,0,,0,,,60,127
59276,note_off,54,0,0,,0,,,60,127
59277,note_on,1,0,0,,1,,,61,127
59331,note_off,54,0,0,,1,,,61,127
59332,note_on,1,0,0,,0,,,60,127
59386,note_off,54,0,0,,10,,,57,127
59387,note_on,1,0,0,,5,,,77,127
59605,note_off,218,0,0,,5,,,77,127
59605,note_off,0,0,0,,0,,,60,127
59606,note_on,1,0,0,,10,,,57,127
59606,note_on,0,0,0,,0,,,60,127
59824,note_off,218,0,0,,0,,,60,127
59824,note_off,0,0,0,,10,,,57,127
59825,note_on,1,0,0,,11,,,58,127
59825,note_on,0,0,0,,1,,,61,127
60043,note_off,218,0,0,,1,,,61,127
60043,note_off,0,0,0,,11,,,58,127
60044,note_on,1,0,0,,3,,,51,127
60044,note_on,0,0,0,,3,,,63,127
60116,note_off,72,0,0,,3,,,63,127
60117,note_on,1,0,0,,1,,,61,127
60189,note_off,72,0,0,,1,,,61,127
60189,note_off,0,0,0,,3,,,51,127
60190,note_on,1,0,0,,6,,,54,127
60190,note_on,0,0,0,,0,,,60,127
60262,note_off,72,0,0,,0,,,60,127
60262,note_off,0,0,0,,6,,,54,127
60263,note_on,1,0,0,,5,,,53,127
60263,note_on,0,0,0,,1,,,61,127
60263,note_on,0,0,0,,11,,,58,127
60481,note_off,218,0,0,,11,,,58,127
60481,note_off,0,0,0,,1,,,61,127
60481,note_off,0,0,0,,5,,,53,127
60482,note_on,1,0,0,,5,,,41,127
60482,note_on,0,0,0,,10,,,57,127
60482,note_on,0,0,0,,0,,,60,127
60700,note_off,218,0,0,,0,,,60,127
60700,note_off,0,0,0,,10,,,57,127
60700,note_off,0,0,0,,5,,,41,127
60701,note_on,1,0,0,,11,,,46,127
60701,note_on,0,0,0,,11,,,58,127
60919,note_off,218,0,0,,11,,,58,127
60919,note_off,0,0,0,,11,,,46,127
60920,note_on,1,0,0,,6,,,54,127
60920,note_on,0,0,0,,10,,,57,127
61138,note_off,218,0,0,,10,,,57,127
61138,note_off,0,0,0,,6,,,54,127
61139,note_on,1,0,0,,3,,,51,127
61139,note_on,0,0,0,,0,,,60,127
61193,note_off,54,0,0,,0,,,60,127
61194,note_on,1,0,0,,11,,,58,127
61248,note_off,54,0,0,,11,,,58,127
61249,note_on,1,0,0,,10,,,57,127
61303,note_off,54,0,0,,10,,,57,127
61304,note_on,1,0,0,,11,,,58,127
61358,note_off,54,0,0,,11,,,58,127
61359,note_on,1,0,0,,5,,,77,127
61577,note_off,218,0,0,,5,,,77,127
61577,note_off,0,0,0,,3,,,51,127
61578,note_on,1,0,0,,5,,,65,127
61578,note_on,0,0,0,,10,,,69,127
61796,note_off,218,0,0,,10,,,69,127
61796,note_off,0,0,0,,5,,,65,127
61797,note_on,1,0,0,,7,,,67,127
61797,note_on,0,0,0,,0,,,72,127
61851,note_off,54,0,0,,0,,,72,127
61852,note_on,1,0,0,,11,,,70,127
61906,note_off,54,0,0,,11,,,70,127
61907,note_on,1,0,0,,0,,,72,127
61961,note_off,54,0,0,,0,,,72,127
61962,note_on,1,0,0,,11,,,70,127
62016,note_off,54,0,0,,11,,,70,127
62017,note_on,1,0,0,,5,,,77,127
62235,note_off,218,0,0,,5,,,77,127
62235,note_off,0,0,0,,7,,,67,127
62236,note_on,1,0,0,,7,,,67,127
62236,note_on,0,0,0,,11,,,70,127
62454,note_off,218,0,0,,11,,,70,127
62454,note_off,0,0,0,,7,,,67,127
62455,note_on,1,0,0,,10,,,69,127
62455,note_on,0,0,0,,1,,,73,127
62509,note_off,54,0,0,,1,,,73,127
62510,note_on,1,0,0,,0,,,72,127
62564,note_off,54,0,0,,0,,,72,127
62565,note_on,1,0,0,,1,,,73,127
62619,note_off,54,0,0,,1,,,73,127
62620,note_on,1,0,0,,0,,,72,127
62674,note_off,54,0,0,,10,,,69,127
62675,note_on,1,0,0,,5,,,77,127
62893,note_off,218,0,0,,5,,,77,127
62893,note_off,0,0,0,,0,,,72,127
62894,note_on,1,0,0,,5,,,65,127
62894,note_on,0,0,0,,10,,,69,127
63112,note_off,218,0,0,,10,,,69,127
63112,note_off,0,0,0,,5,,,65,127
63113,note_on,1,0,0,,7,,,67,127
63113,note_on,0,0,0,,0,,,72,127
63167,note_off,54,0,0,,0,,,72,127
63168,note_on,1,0,0,,11,,,70,127
63222,note_off,54,0,0,,11,,,70,127
63223,note_on,1,0,0,,0,,,72,127
63277,note_off,54,0,0,,0,,,72,127
63278,note_on,1,0,0,,11,,,70,127
63332,note_off,54,0,0,,7,,,67,127
63333,note_on,1,0,0,,5,,,77,127
63551,note_off,218,0,0,,5,,,77,127
63551,note_off,0,0,0,,11,,,70,127
63552,note_on,1,0,0,,7,,,67,127
63552,note_on,0,0,0,,11,,,70,127
63770,note_off,218,0,0,,11,,,70,127
63770,note_off,0,0,0,,7,,,67,127
63771,note_on,1,0,0,,10,,,69,127
63771,note_on,0,0,0,,1,,,73,127
63825,note_off,54,0,0,,1,,,73,127
63826,note_on,1,0,0,,0,,,72,127
63880,note_off,54,0,0,,0,,,72,127
63881,note_on,1,0,0,,1,,,73,127
63935,note_off,54,0,0,,1,,,73,127
63936,note_on,1,0,0,,0,,,72,127
63990,note_off,54,0,0,,10,,,69,127
63991,note_on,1,0,0,,5,,,77,127
64209,note_off,218,0,0,,5,,,77,127
64209,note_off,0,0,0,,0,,,72,127
64210,note_on,1,0,0,,10,,,69,127
64210,note_on,0,0,0,,0,,,72,127
64428,note_off,218,0,0,,0,,,72,127
64428,note_off,0,0,0,,10,,,69,127
64429,note_on,1,0,0,,11,,,70,127
64429,note_on,0,0,0,,1,,,73,127
64647,note_off,218,0,0,,1,,,73,127
64647,note_off,0,0,0,,11,,,70,127
64648,note_on,1,0,0,,3,,,63,127
64648,note_on,0,0,0,,3,,,75,127
64720,note_off,72,0,0,,3,,,75,127
64721,note_on,1,0,0,,1,,,73,127
64793,note_off,72,0,0,,1,,,73,127
64793,note_off,0,0,0,,3,,,63,127
64794,note_on,1,0,0,,6,,,66,127
64794,note_on,0,0,0,,0,,,72,127
64866,note_off,72,0,0,,0,,,72,127
64866,note_off,0,0,0,,6,,,66,127
64867,note_on,1,0,0,,5,,,65,127
64867,note_on,0,0,0,,11,,,70,127
64867,note_on,0,0,0,,1,,,73,127
65085,note_off,218,0,0,,1,,,73,127
65085,note_off,0,0,0,,11,,,70,127
65085,note_off,0,0,0,,5,,,65,127
65086,note_on,1,0,0,,5,,,53,127
65086,note_on,0,0,0,,0,,,72,127
65086,note_on,0,0,0,,10,,,69,127
65251,note_off,165,0,0,,10,,,69,127
65251,note_off,0,0,0,,0,,,72,127
65305,note_off,54,0,0,,5,,,53,127
65306,note_on,1,0,0,,11,,,58,127
65306,note_on,0,0,0,,1,,,61,127
65306,note_on,0,0,0,,5,,,65,127
65306,note_on,0,0,0,,11,,,70,127
65525,note_on,219,0,0,,11,,,82,127
65597,note_off,72,0,0,,11,,,82,127
65598,note_on,1,0,0,,0,,,84,127
65670,note_off,72,0,0,,0,,,84,127
65671,note_on,1,0,0,,1,,,85,127
65743,note_off,72,0,0,,1,,,85,127
65744,note_on,1,0,0,,0,,,84,127
65744,note_on,0,0,0,,6,,,78,127
65962,note_off,218,0,0,,0,,,84,127
65962,note_off,0,0,0,,11,,,70,127
65962,note_off,0,0,0,,5,,,65,127
65962,note_off,0,0,0,,1,,,61,127
65962,note_off,0,0,0,,11,,,58,127
65963,note_on,1,0,0,,3,,,63,127
65963,note_on,0,0,0,,0,,,60,127
65963,note_on,0,0,0,,5,,,65,127
65963,note_on,0,0,0,,11,,,82,127
66181,note_off,218,0,0,,11,,,82,127
66182,note_on,1,0,0,,10,,,81,127
66400,note_off,218,0,0,,10,,,81,127
66400,note_off,0,0,0,,5,,,65,127
66400,note_off,0,0,0,,0,,,60,127
66400,note_off,0,0,0,,3,,,63,127
66400,note_off,0,0,0,,6,,,78,127
66401,note_on,1,0,0,,5,,,65,127
66401,note_on,0,0,0,,1,,,61,127
66401,note_on,0,0,0,,5,,,77,127
66401,note_on,0,0,0,,11,,,82,127
66619,note_off,218,0,0,,11,,,82,127
66619,note_off,0,0,0,,5,,,77,127
66619,note_off,0,0,0,,1,,,61,127
66619,note_off,0,0,0,,5,,,65,127
66620,note_on,1,0,0,,3,,,63,127
66838,note_off,218,0,0,,3,,,63,127
66839,note_on,1,0,0,,5,,,65,127
66839,note_on,0,0,0,,6,,,78,127
66839,note_on,0,0,0,,3,,,75,127
67057,note_off,218,0,0,,3,,,75,127
67057,note_off,0,0,0,,6,,,78,127
67057,note_off,0,0,0,,5,,,65,127
67058,note_on,1,0,0,,6,,,66,127
67058,note_on,0,0,0,,3,,,75,127
67058,note_on,0,0,0,,0,,,72,127
67276,note_off,218,0,0,,0,,,72,127
67276,note_off,0,0,0,,3,,,75,127
67276,note_off,0,0,0,,6,,,66,127
67277,note_on,1,0,0,,5,,,65,127
67277,note_on,0,0,0,,1,,,73,127
67349,note_off,72,0,0,,1,,,73,127
67350,note_on,1,0,0,,0,,,72,127
67422,note_off,72,0,0,,0,,,72,127
67423,note_on,1,0,0,,11,,,70,127
67495,note_off,72,0,0,,11,,,70,127
67496,note_on,1,0,0,,1,,,73,127
67496,note_on,0,0,0,,11,,,70,127
67714,note_off,218,0,0,,11,,,70,127
67714,note_off,0,0,0,,1,,,73,127
67714,note_off,0,0,0,,5,,,65,127
67715,note_on,1,0,0,,5,,,53,127
67715,note_on,0,0,0,,0,,,72,127
67715,note_on,0,0,0,,10,,,69,127
67880,note_off,165,0,0,,10,,,69,127
67880,note_off,0,0,0,,0,,,72,127
67934,note_off,54,0,0,,5,,,53,127
67935,note_on,1,0,0,,11,,,58,127
67935,note_on,0,0,0,,11,,,70,127
67935,note_on,0,0,0,,5,,,65,127
67935,note_on,0,0,0,,1,,,61,127
68154,note_on,219,0,0,,11,,,82,127
68226,note_off,72,0,0,,11,,,82,127
68227,note_on,1,0,0,,0,,,84,127
68299,note_off,72,0,0,,0,,,84,127
68300,note_on,1,0,0,,1,,,85,127
68372,note_off,72,0,0,,1,,,85,127
68373,note_on,1,0,0,,0,,,84,127
68373,note_on,0,0,0,,6,,,78,127
68591,note_off,218,0,0,,0,,,84,127
68591,note_off,0,0,0,,1,,,61,127
68591,note_off,0,0,0,,5,,,65,127
68591,note_off,0,0,0,,11,,,70,127
68591,note_off,0,0,0,,11,,,58,127
68592,note_on,1,0,0,,3,,,63,127
68592,note_on,0,0,0,,0,,,60,127
68592,note_on,0,0,0,,5,,,65,127
68592,note_on,0,0,0,,11,,,82,127
68810,note_off,218,0,0,,11,,,82,127
68811,note_on,1,0,0,,10,,,81,127
69029,note_off,218,0,0,,10,,,81,127
69029,note_off,0,0,0,,5,,,65,127
69029,note_off,0,0,0,,0,,,60,127
69029,note_off,0,0,0,,3,,,63,127
69029,note_off,0,0,0,,6,,,78,127
69030,note_on,1,0,0,,1,,,61,127
69030,note_on,0,0,0,,5,,,65,127
69030,note_on,0,0,0,,11,,,82,127
69030,note_on,0,0,0,,5,,,77,127
69248,note_off,218,0,0,,5,,,65,127
69248,note_off,0,0,0,,1,,,61,127
69249,note_on,1,0,0,,3,,,63,127
69467,note_off,218,0,0,,3,,,63,127
69467,note_off,0,0,0,,5,,,77,127
69467,note_off,0,0,0,,11,,,82,127
69468,note_on,1,0,0,,5,,,65,127
69468,note_on,0,0,0,,6,,,78,127
69468,note_on,0,0,0,,3,,,75,127
69686,note_off,218,0,0,,3,,,75,127
69686,note_off,0,0,0,,6,,,78,127
69686,note_off,0,0,0,,5,,,65,127
69687,note_on,1,0,0,,6,,,66,127
69687,note_on,0,0,0,,0,,,72,127
69687,note_on,0,0,0,,3,,,75,127
69905,note_off,218,0,0,,3,,,75,127
69905,note_off,0,0,0,,0,,,72,127
69905,note_off,0,0,0,,6,,,66,127
69906,note_on,1,0,0,,5,,,65,127
69906,note_on,0,0,0,,1,,,73,127
69978,note_off,72,0,0,,1,,,73,127
69979,note_on,1,0,0,,0,,,72,127
70051,note_off,72,0,0,,0,,,72,127
70052,note_on,1,0,0,,11,,,70,127
70124,note_off,72,0,0,,11,,,70,127
70125,note_on,1,0,0,,1,,,73,127
70125,note_on,0,0,0,,11,,,70,127
70343,note_off,218,0,0,,11,,,70,127
70343,note_off,0,0,0,,1,,,73,127
70343,note_off,0,0,0,,5,,,65,127
70344,note_on,1,0,0,,5,,,53,127
70344,note_on,0,0,0,,10,,,69,127
70344,note_on,0,0,0,,0,,,72,127
70562,note_off,218,0,0,,0,,,72,127
70562,note_off,0,0,0,,10,,,69,127
70562,note_off,0,0,0,,5,,,53,127
70563,note_on,1,0,0,,6,,,66,127
70563,note_on,0,0,0,,11,,,70,127
70672,note_off,109,0,0,,11,,,70,127
70673,note_on,1,0,0,,3,,,75,127
70782,note_off,109,0,0,,3,,,75,127
70782,note_off,0,0,0,,6,,,66,127
70783,note_on,1,0,0,,3,,,63,127
70783,note_on,0,0,0,,1,,,73,127
70892,note_off,109,0,0,,1,,,73,127
70893,note_on,1,0,0,,0,,,72,127
71002,note_off,109,0,0,,0,,,72,127
71002,note_off,0,0,0,,3,,,63,127
71003,note_on,1,0,0,,5,,,65,127
71003,note_on,0,0,0,,11,,,70,127
71112,note_off,109,0,0,,11,,,70,127
71113,note_on,1,0,0,,10,,,69,127
71222,note_off,109,0,0,,10,,,69,127
71222,note_off,0,0,0,,5,,,65,127
71223,note_on,1,0,0,,6,,,66,127
71223,note_on,0,0,0,,11,,,70,127
71332,note_off,109,0,0,,11,,,70,127
71333,note_on,1,0,0,,3,,,75,127
71442,note_off,109,0,0,,3,,,75,127
71442,note_off,0,0,0,,6,,,66,127
71443,note_on,1,0,0,,3,,,63,127
71443,note_on,0,0,0,,1,,,73,127
71552,note_off,109,0,0,,1,,,73,127
71553,note_on,1,0,0,,0,,,72,127
71662,note_off,109,0,0,,0,,,72,127
71662,note_off,0,0,0,,3,,,63,127
71663,note_on,1,0,0,,5,,,65,127
71663,note_on,0,0,0,,11,,,70,127
71772,note_off,109,0,0,,11,,,70,127
71773,note_on,1,0,0,,10,,,69,127
71882,note_off,109,0,0,,10,,,69,127
71882,note_off,0,0,0,,5,,,65,127
71883,note_on,1,0,0,,6,,,66,127
71883,note_on,0,0,0,,11,,,70,127
71992,note_off,109,0,0,,6,,,66,127
71993,note_on,1,0,0,,3,,,63,127
72102,note_off,109,0,0,,3,,,63,127
72103,note_on,1,0,0,,1,,,61,127
72212,note_off,109,0,0,,1,,,61,127
72213,note_on,1,0,0,,0,,,60,127
72322,note_off,109,0,0,,0,,,60,127
72322,note_off,0,0,0,,11,,,70,127
72323,note_on,1,0,0,,11,,,58,127
72323,note_on,0,0,0,,0,,,72,127
72432,note_off,109,0,0,,11,,,58,127
72433,note_on,1,0,0,,10,,,57,127
72542,note_off,109,0,0,,10,,,57,127
72542,note_off,0,0,0,,0,,,72,127
72543,note_on,1,0,0,,11,,,58,127
72543,note_on,0,0,0,,1,,,73,127
72652,note_off,109,0,0,,11,,,58,127
72653,note_on,1,0,0,,6,,,54,127
72762,note_off,109,0,0,,6,,,54,127
72763,note_on,1,0,0,,5,,,53,127
72872,note_off,109,0,0,,5,,,53,127
72873,note_on,1,0,0,,3,,,51,127
72982,note_off,109,0,0,,3,,,51,127
72982,note_off,0,0,0,,1,,,73,127
72983,note_on,1,0,0,,1,,,49,127
72983,note_on,0,0,0,,3,,,75,127
73092,note_off,109,0,0,,1,,,49,127
73093,note_on,1,0,0,,0,,,48,127
73202,note_off,109,0,0,,0,,,48,127
73202,note_off,0,0,0,,3,,,75,127
73203,note_on,1,0,0,,11,,,46,127
73203,note_on,0,0,0,,5,,,77,127
73312,note_off,109,0,0,,5,,,77,127
73313,note_on,1,0,0,,1,,,73,127
73422,note_off,109,0,0,,1,,,73,127
73422,note_off,0,0,0,,11,,,46,127
73423,note_on,1,0,0,,3,,,51,127
73423,note_on,0,0,0,,0,,,72,127
73532,note_off,109,0,0,,0,,,72,127
73533,note_on,1,0,0,,11,,,70,127
73642,note_off,109,0,0,,11,,,70,127
73642,note_off,0,0,0,,3,,,51,127
73643,note_on,1,0,0,,5,,,53,127
73643,note_on,0,0,0,,0,,,72,127
73752,note_off,109,0,0,,0,,,72,127
73753,note_on,1,0,0,,10,,,69,127
73862,note_off,109,0,0,,10,,,69,127
73862,note_off,0,0,0,,5,,,53,127
73863,note_on,1,0,0,,6,,,54,127
73863,note_on,0,0,0,,11,,,70,127
73972,note_off,109,0,0,,11,,,70,127
73973,note_on,1,0,0,,1,,,73,127
74082,note_off,109,0,0,,1,,,73,127
74082,note_off,0,0,0,,6,,,54,127
74083,note_on,1,0,0,,3,,,51,127
74083,note_on,0,0,0,,0,,,72,127
74192,note_off,109,0,0,,0,,,72,127
74193,note_on,1,0,0,,11,,,70,127
74302,note_off,109,0,0,,11,,,70,127
74302,note_off,0,0,0,,3,,,51,127
74303,note_on,1,0,0,,5,,,53,127
74303,note_on,0,0,0,,0,,,72,127
74412,note_off,109,0,0,,0,,,72,127
74413,note_on,1,0,0,,10,,,69,127
74522,note_off,109,0,0,,10,,,69,127
74522,note_off,0,0,0,,5,,,53,127
74523,note_on,1,0,0,,6,,,54,127
74523,note_on,0,0,0,,11,,,70,127
74632,note_off,109,0,0,,11,,,70,127
74633,note_on,1,0,0,,6,,,66,127
74742,note_off,109,0,0,,6,,,66,127
74742,note_off,0,0,0,,6,,,54,127
74743,note_on,1,0,0,,3,,,51,127
74743,note_on,0,0,0,,5,,,65,127
74852,note_off,109,0,0,,5,,,65,127
74853,note_on,1,0,0,,3,,,63,127
74962,note_off,109,0,0,,3,,,63,127
74962,note_off,0,0,0,,3,,,51,127
74963,note_on,1,0,0,,10,,,57,127
74963,note_on,0,0,0,,1,,,61,127
75072,note_off,109,0,0,,1,,,61,127
75073,note_on,1,0,0,,0,,,60,127
75182,note_off,109,0,0,,0,,,60,127
75182,note_off,0,0,0,,10,,,57,127
75183,note_on,1,0,0,,11,,,58,127
75183,note_on,0,0,0,,3,,,63,127
75292,note_off,109,0,0,,3,,,63,127
75293,note_on,1,0,0,,1,,,61,127
75402,note_off,109,0,0,,1,,,61,127
75402,note_off,0,0,0,,11,,,58,127
75403,note_on,1,0,0,,3,,,51,127
75403,note_on,0,0,0,,0,,,60,127
75512,note_off,109,0,0,,0,,,60,127
75513,note_on,1,0,0,,11,,,58,127
75622,note_off,109,0,0,,11,,,58,127
75622,note_off,0,0,0,,3,,,51,127
75623,note_on,1,0,0,,5,,,53,127
75623,note_on,0,0,0,,0,,,60,127
75732,note_off,109,0,0,,0,,,60,127
75733,note_on,1,0,0,,10,,,57,127
75842,note_off,109,0,0,,10,,,57,127
75842,note_off,0,0,0,,5,,,53,127
75843,note_on,1,0,0,,11,,,46,127
75843,note_on,0,0,0,,10,,,57,127
76611,note_off,768,0,0,,10,,,57,127
76611,note_on,0,0,0,,11,,,58,127
77946,note_off,1335,0,0,,11,,,58,127
77946,note_off,0,0,0,,11,,,46,127
82944,end_of_track,4998,1,0,,,,,,
