tick,type,time,meta,track,program,channel,pitch,tempo,note,velocity
0,copyright,0,1,0,,,,,,
0,program_change,0,0,0,6,0,,,,
0,pitchwheel,0,0,0,,0,0,,,
0,program_change,0,0,0,6,1,,,,
0,pitchwheel,0,0,0,,1,-590,,,
0,program_change,0,0,0,6,2,,,,
0,pitchwheel,0,0,0,,2,-272,,,
0,program_change,0,0,0,6,3,,,,
0,pitchwheel,0,0,0,,3,-353,,,
0,program_change,0,0,0,6,4,,,,
0,pitchwheel,0,0,0,,4,-560,,,
0,program_change,0,0,0,6,5,,,,
0,pitchwheel,0,0,0,,5,-80,,,
0,program_change,0,0,0,6,6,,,,
0,pitchwheel,0,0,0,,6,-625,,,
0,program_change,0,0,0,6,7,,,,
0,pitchwheel,0,0,0,,7,-130,,,
0,program_change,0,0,0,6,8,,,,
0,pitchwheel,0,0,0,,8,-512,,,
0,program_change,0,0,0,6,10,,,,
0,pitchwheel,0,0,0,,10,-464,,,
0,program_change,0,0,0,6,11,,,,
0,pitchwheel,0,0,0,,11,-208,,,
0,program_change,0,0,0,6,12,,,,
0,pitchwheel,0,0,0,,12,-553,,,
0,set_tempo,0,1,0,,,,500000,,
144,note_on,144,0,0,,0,,,48,127
144,note_on,0,0,0,,0,,,84,127
504,note_off,360,0,0,,0,,,84,127
504,note_on,0,0,0,,4,,,52,127
504,note_on,0,0,0,,7,,,79,127
540,note_off,36,0,0,,0,,,48,127
576,note_off,36,0,0,,7,,,79,127
576,note_off,0,0,0,,4,,,52,127
576,note_on,0,0,0,,7,,,55,127
576,note_on,0,0,0,,4,,,76,127
648,note_off,72,0,0,,4,,,76,127
648,note_off,0,0,0,,7,,,55,127
648,note_on,0,0,0,,0,,,60,127
648,note_on,0,0,0,,0,,,72,127
720,note_off,72,0,0,,0,,,72,127
720,note_off,0,0,0,,0,,,60,127
720,note_on,0,0,0,,4,,,64,127
720,note_on,0,0,0,,7,,,67,127
1296,note_off,576,0,0,,7,,,67,127
1296,note_off,0,0,0,,4,,,64,127
1296,note_on,0,0,0,,4,,,64,127
1296,note_on,0,0,0,,10,,,69,127
1368,note_on,72,0,0,,7,,,67,127
1404,note_off,36,0,0,,10,,,69,127
1440,note_off,36,0,0,,7,,,67,127
1440,note_on,0,0,0,,10,,,69,127
1512,note_off,72,0,0,,10,,,69,127
1512,note_on,0,0,0,,7,,,67,127
1584,note_off,72,0,0,,7,,,67,127
1584,note_on,0,0,0,,10,,,69,127
1656,note_off,72,0,0,,10,,,69,127
1656,note_on,0,0,0,,7,,,67,127
1728,note_off,72,0,0,,7,,,67,127
1728,note_on,0,0,0,,10,,,69,127
1800,note_off,72,0,0,,10,,,69,127
1800,note_on,0,0,0,,7,,,67,127
1872,note_off,72,0,0,,7,,,67,127
1880,note_off,8,0,0,,4,,,64,127
1884,note_on,4,0,0,,0,,,48,127
1884,note_on,0,0,0,,0,,,84,127
2244,note_off,360,0,0,,0,,,84,127
2244,note_on,0,0,0,,5,,,53,127
2244,note_on,0,0,0,,10,,,81,127
2316,note_off,72,0,0,,10,,,81,127
2316,note_off,0,0,0,,0,,,48,127
2316,note_on,0,0,0,,10,,,57,127
2316,note_on,0,0,0,,5,,,77,127
2352,note_off,36,0,0,,5,,,53,127
2388,note_off,36,0,0,,5,,,77,127
2388,note_off,0,0,0,,10,,,57,127
2388,note_on,0,0,0,,0,,,60,127
2388,note_on,0,0,0,,0,,,72,127
2460,note_off,72,0,0,,0,,,72,127
2460,note_off,0,0,0,,0,,,60,127
2460,note_on,0,0,0,,5,,,65,127
2460,note_on,0,0,0,,10,,,69,127
3036,note_off,576,0,0,,10,,,69,127
3036,note_off,0,0,0,,5,,,65,127
3036,note_on,0,0,0,,5,,,65,127
3036,note_on,0,0,0,,12,,,71,127
3108,note_on,72,0,0,,10,,,69,127
3144,note_off,36,0,0,,12,,,71,127
3180,note_off,36,0,0,,10,,,69,127
3180,note_on,0,0,0,,12,,,71,127
3252,note_off,72,0,0,,12,,,71,127
3252,note_on,0,0,0,,10,,,69,127
3324,note_off,72,0,0,,10,,,69,127
3324,note_on,0,0,0,,12,,,71,127
3396,note_off,72,0,0,,12,,,71,127
3396,note_on,0,0,0,,10,,,69,127
3468,note_off,72,0,0,,10,,,69,127
3468,note_on,0,0,0,,12,,,71,127
3540,note_off,72,0,0,,12,,,71,127
3540,note_on,0,0,0,,10,,,69,127
3612,note_off,72,0,0,,10,,,69,127
3622,note_off,10,0,0,,5,,,65,127
3624,note_on,2,0,0,,0,,,48,127
3624,note_on,0,0,0,,0,,,84,127
3984,note_off,360,0,0,,0,,,84,127
3984,note_off,0,0,0,,0,,,48,127
3984,note_on,0,0,0,,7,,,79,127
3984,note_on,0,0,0,,4,,,52,127
4056,note_off,72,0,0,,4,,,52,127
4056,note_off,0,0,0,,7,,,79,127
4056,note_on,0,0,0,,4,,,76,127
4056,note_on,0,0,0,,7,,,55,127
4128,note_off,72,0,0,,7,,,55,127
4128,note_off,0,0,0,,4,,,76,127
4128,note_on,0,0,0,,0,,,72,127
4128,note_on,0,0,0,,0,,,60,127
4200,note_off,72,0,0,,0,,,60,127
4200,note_off,0,0,0,,0,,,72,127
4200,note_on,0,0,0,,7,,,67,127
4200,note_on,0,0,0,,4,,,64,127
4776,note_off,576,0,0,,4,,,64,127
4776,note_off,0,0,0,,7,,,67,127
4776,note_on,0,0,0,,10,,,69,127
4776,note_on,0,0,0,,4,,,64,127
4848,note_off,72,0,0,,10,,,69,127
4848,note_on,0,0,0,,7,,,67,127
4920,note_off,72,0,0,,7,,,67,127
4920,note_on,0,0,0,,10,,,69,127
4992,note_off,72,0,0,,10,,,69,127
4992,note_on,0,0,0,,7,,,67,127
5064,note_off,72,0,0,,7,,,67,127
5064,note_on,0,0,0,,10,,,69,127
5136,note_off,72,0,0,,10,,,69,127
5136,note_on,0,0,0,,7,,,67,127
5208,note_off,72,0,0,,7,,,67,127
5208,note_on,0,0,0,,10,,,69,127
5280,note_off,72,0,0,,10,,,69,127
5280,note_on,0,0,0,,7,,,67,127
5352,note_off,72,0,0,,7,,,67,127
5364,note_off,12,0,0,,4,,,64,127
5364,note_on,0,0,0,,5,,,77,127
5364,note_on,0,0,0,,7,,,43,127
5508,note_off,144,0,0,,5,,,77,127
5508,note_on,0,0,0,,2,,,74,127
5652,note_off,144,0,0,,2,,,74,127
5652,note_on,0,0,0,,12,,,71,127
5796,note_off,144,0,0,,12,,,71,127
5796,note_on,0,0,0,,7,,,67,127
5940,note_off,144,0,0,,7,,,67,127
5940,note_off,0,0,0,,7,,,43,127
5940,note_on,0,0,0,,2,,,74,127
5940,note_on,0,0,0,,5,,,77,127
5940,note_on,0,0,0,,7,,,43,127
6228,note_off,288,0,0,,5,,,77,127
6228,note_off,0,0,0,,2,,,74,127
6228,note_on,0,0,0,,0,,,72,127
6228,note_on,0,0,0,,4,,,76,127
6516,note_off,288,0,0,,7,,,43,127
6516,note_on,0,0,0,,7,,,43,127
6804,note_off,288,0,0,,4,,,76,127
6804,note_off,0,0,0,,0,,,72,127
6804,note_on,0,0,0,,2,,,74,127
6804,note_on,0,0,0,,12,,,71,127
7092,note_off,288,0,0,,12,,,71,127
7092,note_off,0,0,0,,2,,,74,127
7092,note_off,0,0,0,,7,,,43,127
7092,note_on,0,0,0,,7,,,79,127
7092,note_on,0,0,0,,0,,,48,127
7092,note_on,0,0,0,,0,,,36,127
7236,note_off,144,0,0,,7,,,79,127
7236,note_on,0,0,0,,4,,,76,127
7380,note_off,144,0,0,,4,,,76,127
7380,note_on,0,0,0,,4,,,76,127
7524,note_off,144,0,0,,4,,,76,127
7524,note_on,0,0,0,,0,,,72,127
7668,note_off,144,0,0,,0,,,72,127
7668,note_on,0,0,0,,0,,,72,127
7812,note_off,144,0,0,,0,,,72,127
7812,note_on,0,0,0,,7,,,67,127
7956,note_off,144,0,0,,7,,,67,127
7956,note_on,0,0,0,,7,,,67,127
8100,note_off,144,0,0,,7,,,67,127
8100,note_on,0,0,0,,0,,,72,127
8244,note_off,144,0,0,,0,,,72,127
8244,note_on,0,0,0,,2,,,74,127
8316,note_off,72,0,0,,2,,,74,127
8316,note_on,0,0,0,,0,,,72,127
8388,note_off,72,0,0,,0,,,72,127
8388,note_on,0,0,0,,2,,,74,127
8460,note_off,72,0,0,,2,,,74,127
8460,note_on,0,0,0,,0,,,72,127
8532,note_off,72,0,0,,0,,,72,127
8532,note_off,0,0,0,,0,,,36,127
8532,note_off,0,0,0,,0,,,48,127
8532,note_on,0,0,0,,2,,,74,127
8604,note_off,72,0,0,,2,,,74,127
8604,note_on,0,0,0,,0,,,72,127
8676,note_off,72,0,0,,0,,,72,127
8676,note_on,0,0,0,,12,,,71,127
8748,note_off,72,0,0,,12,,,71,127
8748,note_on,0,0,0,,0,,,72,127
8868,note_off,120,0,0,,0,,,72,127
8880,note_on,12,0,0,,0,,,48,127
8880,note_on,0,0,0,,0,,,84,127
9240,note_off,360,0,0,,0,,,84,127
9240,note_on,0,0,0,,4,,,52,127
9240,note_on,0,0,0,,7,,,79,127
9276,note_off,36,0,0,,0,,,48,127
9312,note_off,36,0,0,,7,,,79,127
9312,note_off,0,0,0,,4,,,52,127
9312,note_on,0,0,0,,7,,,55,127
9312,note_on,0,0,0,,4,,,76,127
9384,note_off,72,0,0,,4,,,76,127
9384,note_off,0,0,0,,7,,,55,127
9384,note_on,0,0,0,,0,,,60,127
9384,note_on,0,0,0,,0,,,72,127
9456,note_off,72,0,0,,0,,,72,127
9456,note_off,0,0,0,,0,,,60,127
9456,note_on,0,0,0,,4,,,64,127
9456,note_on,0,0,0,,7,,,67,127
9966,note_off,510,0,0,,7,,,67,127
10032,note_off,66,0,0,,4,,,64,127
10032,note_on,0,0,0,,4,,,64,127
10032,note_on,0,0,0,,10,,,69,127
10104,note_off,72,0,0,,10,,,69,127
10104,note_on,0,0,0,,7,,,67,127
10176,note_off,72,0,0,,7,,,67,127
10176,note_on,0,0,0,,10,,,69,127
10248,note_off,72,0,0,,10,,,69,127
10248,note_on,0,0,0,,7,,,67,127
10320,note_off,72,0,0,,7,,,67,127
10320,note_on,0,0,0,,10,,,69,127
10392,note_off,72,0,0,,10,,,69,127
10392,note_on,0,0,0,,7,,,67,127
10464,note_off,72,0,0,,7,,,67,127
10464,note_on,0,0,0,,10,,,69,127
10536,note_off,72,0,0,,10,,,69,127
10536,note_on,0,0,0,,7,,,67,127
10608,note_off,72,0,0,,7,,,67,127
10608,note_off,0,0,0,,4,,,64,127
10632,note_on,24,0,0,,0,,,84,127
10632,note_on,0,0,0,,0,,,48,127
10992,note_off,360,0,0,,0,,,84,127
10992,note_on,0,0,0,,10,,,81,127
10992,note_on,0,0,0,,5,,,53,127
11028,note_off,36,0,0,,0,,,48,127
11064,note_off,36,0,0,,10,,,81,127
11064,note_on,0,0,0,,5,,,77,127
11064,note_on,0,0,0,,10,,,57,127
11136,note_off,72,0,0,,10,,,57,127
11136,note_off,0,0,0,,5,,,77,127
11136,note_off,0,0,0,,5,,,53,127
11136,note_on,0,0,0,,0,,,72,127
11136,note_on,0,0,0,,0,,,60,127
11208,note_off,72,0,0,,0,,,60,127
11208,note_off,0,0,0,,0,,,72,127
11208,note_on,0,0,0,,10,,,69,127
11208,note_on,0,0,0,,5,,,65,127
11718,note_off,510,0,0,,10,,,69,127
11784,note_off,66,0,0,,5,,,65,127
11784,note_on,0,0,0,,12,,,71,127
11784,note_on,0,0,0,,5,,,65,127
11856,note_off,72,0,0,,12,,,71,127
11856,note_on,0,0,0,,10,,,69,127
11928,note_off,72,0,0,,10,,,69,127
11928,note_on,0,0,0,,12,,,71,127
12000,note_off,72,0,0,,12,,,71,127
12000,note_on,0,0,0,,10,,,69,127
12072,note_off,72,0,0,,10,,,69,127
12072,note_on,0,0,0,,12,,,71,127
12144,note_off,72,0,0,,12,,,71,127
12144,note_on,0,0,0,,10,,,69,127
12216,note_off,72,0,0,,10,,,69,127
12216,note_on,0,0,0,,12,,,71,127
12288,note_off,72,0,0,,12,,,71,127
12288,note_on,0,0,0,,10,,,69,127
12360,note_off,72,0,0,,10,,,69,127
12360,note_off,0,0,0,,5,,,65,127
12384,note_on,24,0,0,,0,,,48,127
12384,note_on,0,0,0,,0,,,84,127
12744,note_off,360,0,0,,0,,,84,127
12744,note_on,0,0,0,,4,,,52,127
12744,note_on,0,0,0,,7,,,79,127
12780,note_off,36,0,0,,0,,,48,127
12816,note_off,36,0,0,,7,,,79,127
12816,note_off,0,0,0,,4,,,52,127
12816,note_on,0,0,0,,7,,,55,127
12816,note_on,0,0,0,,4,,,76,127
12888,note_off,72,0,0,,4,,,76,127
12888,note_off,0,0,0,,7,,,55,127
12888,note_on,0,0,0,,0,,,60,127
12888,note_on,0,0,0,,0,,,72,127
12960,note_off,72,0,0,,0,,,72,127
12960,note_off,0,0,0,,0,,,60,127
12960,note_on,0,0,0,,4,,,64,127
12960,note_on,0,0,0,,7,,,67,127
13485,note_off,525,0,0,,7,,,67,127
13536,note_off,51,0,0,,4,,,64,127
13536,note_on,0,0,0,,4,,,64,127
13536,note_on,0,0,0,,10,,,69,127
13608,note_off,72,0,0,,10,,,69,127
13608,note_on,0,0,0,,7,,,67,127
13680,note_off,72,0,0,,7,,,67,127
13680,note_on,0,0,0,,10,,,69,127
13752,note_off,72,0,0,,10,,,69,127
13752,note_on,0,0,0,,7,,,67,127
13824,note_off,72,0,0,,7,,,67,127
13824,note_on,0,0,0,,10,,,69,127
13896,note_off,72,0,0,,10,,,69,127
13896,note_on,0,0,0,,7,,,67,127
13968,note_off,72,0,0,,7,,,67,127
13968,note_on,0,0,0,,10,,,69,127
14040,note_off,72,0,0,,10,,,69,127
14040,note_on,0,0,0,,7,,,67,127
14112,note_off,72,0,0,,7,,,67,127
14122,note_off,10,0,0,,4,,,64,127
14124,note_on,2,0,0,,7,,,43,127
14124,note_on,0,0,0,,5,,,77,127
14268,note_off,144,0,0,,5,,,77,127
14268,note_on,0,0,0,,2,,,74,127
14412,note_off,144,0,0,,2,,,74,127
14412,note_on,0,0,0,,12,,,71,127
14556,note_off,144,0,0,,12,,,71,127
14556,note_on,0,0,0,,7,,,67,127
14700,note_off,144,0,0,,7,,,67,127
14700,note_off,0,0,0,,7,,,43,127
14700,note_on,0,0,0,,7,,,43,127
14700,note_on,0,0,0,,5,,,77,127
14700,note_on,0,0,0,,2,,,74,127
14988,note_off,288,0,0,,2,,,74,127
14988,note_off,0,0,0,,5,,,77,127
14988,note_on,0,0,0,,0,,,72,127
14988,note_on,0,0,0,,4,,,76,127
15276,note_off,288,0,0,,7,,,43,127
15276,note_on,0,0,0,,7,,,43,127
15564,note_off,288,0,0,,4,,,76,127
15564,note_off,0,0,0,,0,,,72,127
15564,note_on,0,0,0,,2,,,74,127
15564,note_on,0,0,0,,12,,,71,127
15852,note_off,288,0,0,,12,,,71,127
15852,note_off,0,0,0,,2,,,74,127
15852,note_off,0,0,0,,7,,,43,127
15852,note_on,0,0,0,,0,,,36,127
15852,note_on,0,0,0,,0,,,48,127
15852,note_on,0,0,0,,7,,,79,127
15996,note_off,144,0,0,,7,,,79,127
15996,note_on,0,0,0,,4,,,76,127
16140,note_off,144,0,0,,4,,,76,127
16140,note_on,0,0,0,,4,,,76,127
16284,note_off,144,0,0,,4,,,76,127
16284,note_on,0,0,0,,0,,,72,127
16428,note_off,144,0,0,,0,,,72,127
16428,note_on,0,0,0,,0,,,72,127
16572,note_off,144,0,0,,0,,,72,127
16572,note_on,0,0,0,,7,,,67,127
16716,note_off,144,0,0,,7,,,67,127
16716,note_on,0,0,0,,7,,,67,127
16860,note_off,144,0,0,,7,,,67,127
16860,note_on,0,0,0,,0,,,72,127
17004,note_off,144,0,0,,0,,,72,127
17004,note_on,0,0,0,,2,,,74,127
17076,note_off,72,0,0,,2,,,74,127
17076,note_on,0,0,0,,0,,,72,127
17148,note_off,72,0,0,,0,,,72,127
17148,note_on,0,0,0,,2,,,74,127
17220,note_off,72,0,0,,2,,,74,127
17220,note_on,0,0,0,,0,,,72,127
17292,note_off,72,0,0,,0,,,72,127
17292,note_on,0,0,0,,2,,,74,127
17364,note_off,72,0,0,,2,,,74,127
17364,note_on,0,0,0,,0,,,72,127
17436,note_off,72,0,0,,0,,,72,127
17436,note_on,0,0,0,,12,,,71,127
17508,note_off,72,0,0,,12,,,71,127
17508,note_on,0,0,0,,0,,,72,127
17580,note_off,72,0,0,,0,,,48,127
17580,note_off,0,0,0,,0,,,36,127
17628,note_on,48,0,0,,0,,,60,127
17628,note_on,0,0,0,,10,,,69,127
17772,note_on,144,0,0,,0,,,84,127
17883,note_off,111,0,0,,0,,,72,127
17916,note_off,33,0,0,,0,,,84,127
17916,note_on,0,0,0,,2,,,74,127
18060,note_off,144,0,0,,2,,,74,127
18060,note_on,0,0,0,,12,,,83,127
18204,note_off,144,0,0,,12,,,83,127
18204,note_off,0,0,0,,10,,,69,127
18204,note_off,0,0,0,,0,,,60,127
18204,note_on,0,0,0,,0,,,60,127
18204,note_on,0,0,0,,10,,,69,127
18204,note_on,0,0,0,,4,,,76,127
18348,note_off,144,0,0,,4,,,76,127
18348,note_on,0,0,0,,0,,,84,127
18492,note_off,144,0,0,,0,,,84,127
18492,note_off,0,0,0,,10,,,69,127
18492,note_on,0,0,0,,10,,,69,127
18636,note_off,144,0,0,,10,,,69,127
18636,note_on,0,0,0,,6,,,78,127
18780,note_off,144,0,0,,6,,,78,127
18780,note_off,0,0,0,,0,,,60,127
18780,note_on,0,0,0,,10,,,69,127
18780,note_on,0,0,0,,0,,,60,127
18780,note_on,0,0,0,,12,,,71,127
18924,note_off,144,0,0,,12,,,71,127
18924,note_on,0,0,0,,7,,,79,127
19068,note_off,144,0,0,,7,,,79,127
19068,note_on,0,0,0,,0,,,72,127
19212,note_off,144,0,0,,0,,,72,127
19212,note_on,0,0,0,,10,,,81,127
19356,note_off,144,0,0,,10,,,81,127
19356,note_off,0,0,0,,0,,,60,127
19356,note_off,0,0,0,,10,,,69,127
19356,note_on,0,0,0,,12,,,59,127
19356,note_on,0,0,0,,10,,,69,127
19356,note_on,0,0,0,,4,,,76,127
19428,note_off,72,0,0,,4,,,76,127
19428,note_on,0,0,0,,2,,,74,127
19500,note_off,72,0,0,,2,,,74,127
19500,note_on,0,0,0,,4,,,76,127
19572,note_off,72,0,0,,4,,,76,127
19572,note_on,0,0,0,,2,,,74,127
19644,note_off,72,0,0,,2,,,74,127
19644,note_on,0,0,0,,4,,,76,127
19716,note_off,72,0,0,,4,,,76,127
19716,note_on,0,0,0,,2,,,74,127
19788,note_on,72,0,0,,1,,,73,127
19824,note_off,36,0,0,,2,,,74,127
19824,note_off,0,0,0,,10,,,69,127
19932,note_on,108,0,0,,10,,,69,127
19932,note_on,0,0,0,,2,,,74,127
19968,note_off,36,0,0,,1,,,73,127
20004,note_off,36,0,0,,10,,,69,127
20004,note_on,0,0,0,,7,,,67,127
20076,note_off,72,0,0,,7,,,67,127
20076,note_on,0,0,0,,10,,,69,127
20148,note_off,72,0,0,,10,,,69,127
20148,note_on,0,0,0,,7,,,67,127
20220,note_off,72,0,0,,7,,,67,127
20220,note_on,0,0,0,,10,,,69,127
20292,note_off,72,0,0,,10,,,69,127
20292,note_on,0,0,0,,7,,,67,127
20364,note_off,72,0,0,,7,,,67,127
20364,note_on,0,0,0,,6,,,66,127
20508,note_off,144,0,0,,6,,,66,127
20508,note_on,0,0,0,,6,,,66,127
20796,note_off,288,0,0,,6,,,66,127
20796,note_on,0,0,0,,7,,,67,127
20832,note_off,36,0,0,,12,,,59,127
21084,note_off,252,0,0,,7,,,67,127
21084,note_off,0,0,0,,2,,,74,127
21096,note_on,12,0,0,,7,,,67,127
21096,note_on,0,0,0,,12,,,59,127
21096,note_on,0,0,0,,12,,,71,127
21240,note_off,144,0,0,,12,,,71,127
21252,note_on,12,0,0,,12,,,83,127
21396,note_off,144,0,0,,12,,,83,127
21396,note_on,0,0,0,,0,,,72,127
21540,note_off,144,0,0,,0,,,72,127
21540,note_on,0,0,0,,10,,,81,127
21672,note_off,132,0,0,,12,,,59,127
21672,note_off,0,0,0,,7,,,67,127
21684,note_off,12,0,0,,10,,,81,127
21684,note_on,0,0,0,,2,,,74,127
21684,note_on,0,0,0,,7,,,67,127
21684,note_on,0,0,0,,12,,,59,127
21828,note_off,144,0,0,,2,,,74,127
21828,note_on,0,0,0,,12,,,83,127
21972,note_off,144,0,0,,12,,,83,127
21972,note_off,0,0,0,,7,,,67,127
21972,note_on,0,0,0,,7,,,67,127
22116,note_off,144,0,0,,7,,,67,127
22116,note_on,0,0,0,,4,,,76,127
22260,note_off,144,0,0,,4,,,76,127
22260,note_off,0,0,0,,12,,,59,127
22260,note_on,0,0,0,,10,,,69,127
22260,note_on,0,0,0,,12,,,59,127
22260,note_on,0,0,0,,7,,,67,127
22404,note_off,144,0,0,,10,,,69,127
22404,note_on,0,0,0,,6,,,78,127
22548,note_off,144,0,0,,6,,,78,127
22548,note_on,0,0,0,,12,,,71,127
22692,note_off,144,0,0,,12,,,71,127
22692,note_on,0,0,0,,7,,,79,127
22836,note_off,144,0,0,,7,,,79,127
22836,note_off,0,0,0,,7,,,67,127
22836,note_off,0,0,0,,12,,,59,127
22836,note_on,0,0,0,,2,,,74,127
22836,note_on,0,0,0,,7,,,67,127
22836,note_on,0,0,0,,10,,,57,127
22908,note_off,72,0,0,,2,,,74,127
22908,note_on,0,0,0,,0,,,72,127
22980,note_off,72,0,0,,0,,,72,127
22980,note_on,0,0,0,,2,,,74,127
23052,note_on,72,0,0,,0,,,72,127
23088,note_off,36,0,0,,2,,,74,127
23124,note_on,36,0,0,,2,,,74,127
23160,note_off,36,0,0,,0,,,72,127
23196,note_off,36,0,0,,2,,,74,127
23196,note_on,0,0,0,,0,,,72,127
23232,note_off,36,0,0,,7,,,67,127
23268,note_off,36,0,0,,0,,,72,127
23268,note_on,0,0,0,,12,,,71,127
23412,note_off,144,0,0,,12,,,71,127
23412,note_on,0,0,0,,0,,,72,127
23412,note_on,0,0,0,,7,,,67,127
23484,note_off,72,0,0,,7,,,67,127
23484,note_on,0,0,0,,6,,,66,127
23556,note_off,72,0,0,,6,,,66,127
23556,note_on,0,0,0,,7,,,67,127
23628,note_off,72,0,0,,7,,,67,127
23628,note_on,0,0,0,,6,,,66,127
23700,note_off,72,0,0,,6,,,66,127
23700,note_on,0,0,0,,7,,,67,127
23772,note_off,72,0,0,,7,,,67,127
23772,note_on,0,0,0,,6,,,66,127
23844,note_off,72,0,0,,6,,,66,127
23844,note_on,0,0,0,,4,,,64,127
23988,note_off,144,0,0,,4,,,64,127
23988,note_on,0,0,0,,4,,,64,127
24276,note_off,288,0,0,,4,,,64,127
24276,note_on,0,0,0,,6,,,66,127
24420,note_off,144,0,0,,10,,,57,127
24564,note_off,144,0,0,,0,,,72,127
24574,note_off,10,0,0,,6,,,66,127
24576,note_on,2,0,0,,10,,,69,127
24576,note_on,0,0,0,,6,,,66,127
24576,note_on,0,0,0,,0,,,60,127
24576,note_on,0,0,0,,2,,,62,127
24576,note_on,0,0,0,,10,,,57,127
24720,note_off,144,0,0,,10,,,69,127
24720,note_on,0,0,0,,10,,,81,127
24864,note_off,144,0,0,,10,,,81,127
24864,note_on,0,0,0,,12,,,71,127
25008,note_off,144,0,0,,12,,,71,127
25008,note_on,0,0,0,,7,,,79,127
25152,note_off,144,0,0,,7,,,79,127
25152,note_off,0,0,0,,10,,,57,127
25152,note_off,0,0,0,,2,,,62,127
25152,note_off,0,0,0,,0,,,60,127
25152,note_off,0,0,0,,6,,,66,127
25152,note_on,0,0,0,,0,,,72,127
25152,note_on,0,0,0,,2,,,62,127
25152,note_on,0,0,0,,6,,,66,127
25152,note_on,0,0,0,,10,,,57,127
25152,note_on,0,0,0,,0,,,60,127
25296,note_off,144,0,0,,0,,,72,127
25296,note_on,0,0,0,,10,,,81,127
25440,note_off,144,0,0,,10,,,81,127
25440,note_off,0,0,0,,6,,,66,127
25440,note_on,0,0,0,,6,,,66,127
25584,note_off,144,0,0,,6,,,66,127
25584,note_on,0,0,0,,10,,,69,127
25728,note_off,144,0,0,,10,,,69,127
25728,note_off,0,0,0,,0,,,60,127
25728,note_off,0,0,0,,10,,,57,127
25728,note_off,0,0,0,,2,,,62,127
25728,note_on,0,0,0,,7,,,67,127
25728,note_on,0,0,0,,2,,,50,127
25728,note_on,0,0,0,,10,,,57,127
25728,note_on,0,0,0,,2,,,62,127
25872,note_off,144,0,0,,7,,,67,127
25872,note_on,0,0,0,,12,,,71,127
26016,note_off,144,0,0,,12,,,71,127
26016,note_on,0,0,0,,10,,,69,127
26160,note_off,144,0,0,,10,,,69,127
26160,note_on,0,0,0,,0,,,72,127
26304,note_off,144,0,0,,0,,,72,127
26304,note_off,0,0,0,,2,,,62,127
26304,note_off,0,0,0,,10,,,57,127
26304,note_off,0,0,0,,2,,,50,127
26304,note_on,0,0,0,,0,,,72,127
26304,note_on,0,0,0,,7,,,55,127
26880,note_off,576,0,0,,0,,,72,127
26880,note_on,0,0,0,,0,,,72,127
26880,note_on,0,0,0,,7,,,43,127
26952,note_off,72,0,0,,0,,,72,127
26952,note_on,0,0,0,,12,,,71,127
27024,note_off,72,0,0,,12,,,71,127
27024,note_on,0,0,0,,0,,,72,127
27096,note_off,72,0,0,,0,,,72,127
27096,note_on,0,0,0,,12,,,71,127
27168,note_off,72,0,0,,12,,,71,127
27168,note_on,0,0,0,,0,,,72,127
27240,note_off,72,0,0,,0,,,72,127
27240,note_on,0,0,0,,12,,,71,127
27312,note_off,72,0,0,,12,,,71,127
27312,note_on,0,0,0,,10,,,69,127
27456,note_off,144,0,0,,10,,,69,127
27456,note_on,0,0,0,,12,,,71,127
28008,note_off,552,0,0,,7,,,43,127
28060,note_off,52,0,0,,7,,,55,127
28070,note_off,10,0,0,,12,,,71,127
28079,note_on,9,0,0,,2,,,74,127
28079,note_on,0,0,0,,2,,,86,127
28079,note_on,0,0,0,,7,,,55,127
28223,note_off,144,0,0,,7,,,55,127
28223,note_on,0,0,0,,11,,,58,127
28367,note_off,144,0,0,,11,,,58,127
28367,note_on,0,0,0,,10,,,57,127
28511,note_off,144,0,0,,10,,,57,127
28511,note_on,0,0,0,,0,,,60,127
28655,note_off,144,0,0,,0,,,60,127
28655,note_off,0,0,0,,2,,,86,127
28655,note_off,0,0,0,,2,,,74,127
28655,note_on,0,0,0,,2,,,86,127
28655,note_on,0,0,0,,2,,,74,127
28655,note_on,0,0,0,,11,,,58,127
28799,note_off,144,0,0,,11,,,58,127
28799,note_on,0,0,0,,2,,,62,127
28943,note_off,144,0,0,,2,,,62,127
28943,note_on,0,0,0,,0,,,60,127
29087,note_off,144,0,0,,0,,,60,127
29087,note_on,0,0,0,,3,,,63,127
29231,note_off,144,0,0,,3,,,63,127
29231,note_off,0,0,0,,2,,,74,127
29231,note_off,0,0,0,,2,,,86,127
29231,note_on,0,0,0,,2,,,74,127
29231,note_on,0,0,0,,2,,,86,127
29231,note_on,0,0,0,,2,,,62,127
29375,note_off,144,0,0,,2,,,62,127
29375,note_on,0,0,0,,7,,,67,127
29519,note_off,144,0,0,,7,,,67,127
29519,note_on,0,0,0,,6,,,66,127
29663,note_off,144,0,0,,6,,,66,127
29663,note_on,0,0,0,,7,,,67,127
29807,note_off,144,0,0,,7,,,67,127
29807,note_on,0,0,0,,2,,,38,127
29951,note_off,144,0,0,,2,,,74,127
29951,note_on,0,0,0,,11,,,82,127
30093,note_off,142,0,0,,2,,,86,127
30095,note_off,2,0,0,,11,,,82,127
30095,note_on,0,0,0,,10,,,81,127
30239,note_off,144,0,0,,10,,,81,127
30239,note_on,0,0,0,,7,,,79,127
30383,note_off,144,0,0,,7,,,79,127
30383,note_off,0,0,0,,2,,,38,127
30383,note_on,0,0,0,,6,,,78,127
30383,note_on,0,0,0,,2,,,38,127
30527,note_off,144,0,0,,6,,,78,127
30527,note_on,0,0,0,,3,,,75,127
30671,note_off,144,0,0,,3,,,75,127
30671,note_on,0,0,0,,2,,,74,127
30815,note_off,144,0,0,,2,,,74,127
30815,note_on,0,0,0,,0,,,72,127
30959,note_off,144,0,0,,0,,,72,127
30959,note_off,0,0,0,,2,,,38,127
30959,note_on,0,0,0,,11,,,70,127
30959,note_on,0,0,0,,2,,,38,127
31103,note_off,144,0,0,,11,,,70,127
31103,note_on,0,0,0,,10,,,69,127
31247,note_off,144,0,0,,10,,,69,127
31247,note_on,0,0,0,,7,,,67,127
31391,note_off,144,0,0,,7,,,67,127
31391,note_on,0,0,0,,6,,,66,127
31535,note_off,144,0,0,,6,,,66,127
31535,note_off,0,0,0,,2,,,38,127
31559,note_on,24,0,0,,7,,,55,127
31559,note_on,0,0,0,,2,,,74,127
31559,note_on,0,0,0,,2,,,86,127
31703,note_off,144,0,0,,7,,,55,127
31703,note_on,0,0,0,,11,,,58,127
31847,note_off,144,0,0,,11,,,58,127
31847,note_on,0,0,0,,10,,,57,127
31991,note_off,144,0,0,,10,,,57,127
31991,note_on,0,0,0,,0,,,60,127
32135,note_off,144,0,0,,0,,,60,127
32135,note_off,0,0,0,,2,,,86,127
32135,note_off,0,0,0,,2,,,74,127
32135,note_on,0,0,0,,11,,,58,127
32135,note_on,0,0,0,,2,,,86,127
32135,note_on,0,0,0,,2,,,74,127
32279,note_off,144,0,0,,11,,,58,127
32279,note_on,0,0,0,,2,,,62,127
32423,note_off,144,0,0,,2,,,62,127
32423,note_on,0,0,0,,0,,,60,127
32567,note_off,144,0,0,,0,,,60,127
32567,note_on,0,0,0,,3,,,63,127
32711,note_off,144,0,0,,3,,,63,127
32711,note_off,0,0,0,,2,,,74,127
32711,note_off,0,0,0,,2,,,86,127
32711,note_on,0,0,0,,2,,,62,127
32711,note_on,0,0,0,,2,,,86,127
32711,note_on,0,0,0,,2,,,74,127
32855,note_off,144,0,0,,2,,,62,127
32855,note_on,0,0,0,,7,,,67,127
32999,note_off,144,0,0,,7,,,67,127
32999,note_on,0,0,0,,6,,,66,127
33143,note_off,144,0,0,,6,,,66,127
33143,note_on,0,0,0,,7,,,67,127
33287,note_off,144,0,0,,7,,,67,127
33287,note_on,0,0,0,,2,,,38,127
33431,note_off,144,0,0,,2,,,74,127
33431,note_off,0,0,0,,2,,,86,127
33431,note_on,0,0,0,,11,,,82,127
33431,note_on,0,0,0,,2,,,86,127
33575,note_off,144,0,0,,2,,,86,127
33575,note_off,0,0,0,,11,,,82,127
33575,note_on,0,0,0,,0,,,84,127
33575,note_on,0,0,0,,10,,,81,127
33719,note_off,144,0,0,,10,,,81,127
33719,note_off,0,0,0,,0,,,84,127
33719,note_on,0,0,0,,11,,,82,127
33719,note_on,0,0,0,,7,,,79,127
33863,note_off,144,0,0,,7,,,79,127
33863,note_off,0,0,0,,11,,,82,127
33863,note_off,0,0,0,,2,,,38,127
33863,note_on,0,0,0,,2,,,38,127
33863,note_on,0,0,0,,10,,,81,127
33863,note_on,0,0,0,,6,,,78,127
34007,note_off,144,0,0,,6,,,78,127
34007,note_off,0,0,0,,10,,,81,127
34007,note_on,0,0,0,,3,,,75,127
34007,note_on,0,0,0,,7,,,79,127
34151,note_off,144,0,0,,7,,,79,127
34151,note_off,0,0,0,,3,,,75,127
34151,note_on,0,0,0,,2,,,74,127
34151,note_on,0,0,0,,6,,,78,127
34295,note_off,144,0,0,,6,,,78,127
34295,note_off,0,0,0,,2,,,74,127
34295,note_on,0,0,0,,0,,,72,127
34295,note_on,0,0,0,,3,,,75,127
34439,note_off,144,0,0,,3,,,75,127
34439,note_off,0,0,0,,0,,,72,127
34439,note_off,0,0,0,,2,,,38,127
34439,note_on,0,0,0,,2,,,38,127
34439,note_on,0,0,0,,2,,,74,127
34439,note_on,0,0,0,,11,,,70,127
34583,note_off,144,0,0,,11,,,70,127
34583,note_off,0,0,0,,2,,,74,127
34583,note_on,0,0,0,,10,,,69,127
34583,note_on,0,0,0,,0,,,72,127
34727,note_off,144,0,0,,0,,,72,127
34727,note_off,0,0,0,,10,,,69,127
34727,note_on,0,0,0,,11,,,70,127
34727,note_on,0,0,0,,7,,,67,127
34871,note_off,144,0,0,,7,,,67,127
34871,note_off,0,0,0,,11,,,70,127
34871,note_on,0,0,0,,6,,,66,127
34871,note_on,0,0,0,,10,,,69,127
35015,note_off,144,0,0,,10,,,69,127
35015,note_off,0,0,0,,6,,,66,127
35015,note_off,0,0,0,,2,,,38,127
35039,note_on,24,0,0,,7,,,67,127
35039,note_on,0,0,0,,7,,,79,127
35039,note_on,0,0,0,,7,,,55,127
35183,note_off,144,0,0,,7,,,55,127
35183,note_on,0,0,0,,12,,,59,127
35327,note_off,144,0,0,,12,,,59,127
35327,note_on,0,0,0,,10,,,57,127
35471,note_off,144,0,0,,10,,,57,127
35471,note_on,0,0,0,,0,,,60,127
35615,note_off,144,0,0,,0,,,60,127
35615,note_off,0,0,0,,7,,,79,127
35615,note_off,0,0,0,,7,,,67,127
35615,note_on,0,0,0,,7,,,67,127
35615,note_on,0,0,0,,7,,,79,127
35615,note_on,0,0,0,,12,,,59,127
35759,note_off,144,0,0,,12,,,59,127
35759,note_on,0,0,0,,2,,,62,127
35903,note_off,144,0,0,,2,,,62,127
35903,note_on,0,0,0,,0,,,60,127
36047,note_off,144,0,0,,0,,,60,127
36047,note_on,0,0,0,,3,,,63,127
36191,note_off,144,0,0,,3,,,63,127
36191,note_off,0,0,0,,7,,,79,127
36191,note_off,0,0,0,,7,,,67,127
36191,note_on,0,0,0,,7,,,67,127
36191,note_on,0,0,0,,7,,,79,127
36191,note_on,0,0,0,,2,,,62,127
36332,note_off,141,0,0,,7,,,67,127
36335,note_off,3,0,0,,2,,,62,127
36335,note_on,0,0,0,,7,,,67,127
36479,note_on,144,0,0,,6,,,66,127
36548,note_off,69,0,0,,7,,,67,127
36623,note_off,75,0,0,,6,,,66,127
36623,note_on,0,0,0,,7,,,67,127
36767,note_off,144,0,0,,7,,,67,127
36767,note_on,0,0,0,,7,,,43,127
36911,note_on,144,0,0,,3,,,75,127
37053,note_off,142,0,0,,7,,,79,127
37055,note_off,2,0,0,,3,,,75,127
37055,note_on,0,0,0,,2,,,74,127
37199,note_off,144,0,0,,2,,,74,127
37199,note_on,0,0,0,,0,,,72,127
37343,note_off,144,0,0,,0,,,72,127
37343,note_off,0,0,0,,7,,,43,127
37343,note_on,0,0,0,,12,,,71,127
37343,note_on,0,0,0,,7,,,43,127
37487,note_off,144,0,0,,12,,,71,127
37487,note_on,0,0,0,,8,,,68,127
37631,note_off,144,0,0,,8,,,68,127
37631,note_on,0,0,0,,7,,,67,127
37775,note_off,144,0,0,,7,,,67,127
37775,note_on,0,0,0,,5,,,65,127
37919,note_off,144,0,0,,5,,,65,127
37919,note_off,0,0,0,,7,,,43,127
37919,note_on,0,0,0,,3,,,63,127
37919,note_on,0,0,0,,7,,,43,127
38063,note_off,144,0,0,,3,,,63,127
38063,note_on,0,0,0,,2,,,62,127
38207,note_off,144,0,0,,2,,,62,127
38207,note_on,0,0,0,,0,,,60,127
38351,note_off,144,0,0,,0,,,60,127
38351,note_on,0,0,0,,12,,,59,127
38495,note_off,144,0,0,,12,,,59,127
38495,note_off,0,0,0,,7,,,43,127
38519,note_on,24,0,0,,7,,,55,127
38519,note_on,0,0,0,,7,,,79,127
38519,note_on,0,0,0,,7,,,67,127
38663,note_off,144,0,0,,7,,,55,127
38663,note_on,0,0,0,,12,,,59,127
38807,note_off,144,0,0,,12,,,59,127
38807,note_on,0,0,0,,10,,,57,127
38951,note_off,144,0,0,,10,,,57,127
38951,note_on,0,0,0,,0,,,60,127
39095,note_off,144,0,0,,0,,,60,127
39095,note_off,0,0,0,,7,,,67,127
39095,note_off,0,0,0,,7,,,79,127
39095,note_on,0,0,0,,12,,,59,127
39095,note_on,0,0,0,,7,,,67,127
39095,note_on,0,0,0,,7,,,79,127
39239,note_off,144,0,0,,12,,,59,127
39239,note_on,0,0,0,,2,,,62,127
39383,note_off,144,0,0,,2,,,62,127
39383,note_on,0,0,0,,0,,,60,127
39527,note_off,144,0,0,,0,,,60,127
39527,note_on,0,0,0,,3,,,63,127
39665,note_off,138,0,0,,7,,,67,127
39671,note_off,6,0,0,,3,,,63,127
39671,note_off,0,0,0,,7,,,79,127
39671,note_on,0,0,0,,2,,,62,127
39671,note_on,0,0,0,,7,,,79,127
39671,note_on,0,0,0,,7,,,67,127
39812,note_off,141,0,0,,7,,,67,127
39815,note_off,3,0,0,,2,,,62,127
39815,note_on,0,0,0,,7,,,67,127
39959,note_on,144,0,0,,6,,,66,127
40100,note_off,141,0,0,,7,,,67,127
40103,note_off,3,0,0,,6,,,66,127
40103,note_on,0,0,0,,7,,,67,127
40247,note_off,144,0,0,,7,,,67,127
40247,note_on,0,0,0,,7,,,43,127
40391,note_off,144,0,0,,7,,,79,127
40391,note_on,0,0,0,,3,,,75,127
40391,note_on,0,0,0,,7,,,79,127
40535,note_off,144,0,0,,7,,,79,127
40535,note_off,0,0,0,,3,,,75,127
40535,note_on,0,0,0,,5,,,77,127
40535,note_on,0,0,0,,2,,,74,127
40679,note_off,144,0,0,,2,,,74,127
40679,note_off,0,0,0,,5,,,77,127
40679,note_on,0,0,0,,3,,,75,127
40679,note_on,0,0,0,,0,,,72,127
40823,note_off,144,0,0,,0,,,72,127
40823,note_off,0,0,0,,3,,,75,127
40823,note_off,0,0,0,,7,,,43,127
40823,note_on,0,0,0,,7,,,43,127
40823,note_on,0,0,0,,2,,,74,127
40823,note_on,0,0,0,,12,,,71,127
40967,note_off,144,0,0,,12,,,71,127
40967,note_off,0,0,0,,2,,,74,127
40967,note_on,0,0,0,,8,,,68,127
40967,note_on,0,0,0,,0,,,72,127
41111,note_off,144,0,0,,0,,,72,127
41111,note_off,0,0,0,,8,,,68,127
41111,note_on,0,0,0,,12,,,71,127
41111,note_on,0,0,0,,7,,,67,127
41255,note_off,144,0,0,,7,,,67,127
41255,note_off,0,0,0,,12,,,71,127
41255,note_on,0,0,0,,5,,,65,127
41255,note_on,0,0,0,,8,,,68,127
41399,note_off,144,0,0,,8,,,68,127
41399,note_off,0,0,0,,5,,,65,127
41399,note_off,0,0,0,,7,,,43,127
41399,note_on,0,0,0,,7,,,43,127
41399,note_on,0,0,0,,7,,,67,127
41399,note_on,0,0,0,,3,,,63,127
41543,note_off,144,0,0,,3,,,63,127
41543,note_off,0,0,0,,7,,,67,127
41543,note_on,0,0,0,,5,,,65,127
41543,note_on,0,0,0,,2,,,62,127
41687,note_off,144,0,0,,2,,,62,127
41687,note_off,0,0,0,,5,,,65,127
41687,note_on,0,0,0,,3,,,63,127
41687,note_on,0,0,0,,0,,,60,127
41831,note_off,144,0,0,,0,,,60,127
41831,note_off,0,0,0,,3,,,63,127
41831,note_on,0,0,0,,12,,,59,127
41831,note_on,0,0,0,,2,,,62,127
41975,note_off,144,0,0,,2,,,62,127
41975,note_off,0,0,0,,12,,,59,127
41975,note_off,0,0,0,,7,,,43,127
41990,note_on,15,0,0,,7,,,67,127
41990,note_on,0,0,0,,3,,,63,127
41990,note_on,0,0,0,,0,,,60,127
42431,note_on,441,0,0,,7,,,79,127
42503,note_off,72,0,0,,7,,,79,127
42503,note_on,0,0,0,,3,,,75,127
42566,note_off,63,0,0,,0,,,60,127
42566,note_off,0,0,0,,3,,,63,127
42566,note_off,0,0,0,,7,,,67,127
42575,note_off,9,0,0,,3,,,75,127
42575,note_on,0,0,0,,1,,,73,127
42575,note_on,0,0,0,,7,,,67,127
42575,note_on,0,0,0,,11,,,58,127
42575,note_on,0,0,0,,2,,,62,127
43007,note_off,432,0,0,,1,,,73,127
43007,note_on,0,0,0,,7,,,79,127
43079,note_off,72,0,0,,7,,,79,127
43079,note_on,0,0,0,,2,,,74,127
43151,note_off,72,0,0,,2,,,74,127
43151,note_off,0,0,0,,2,,,62,127
43151,note_off,0,0,0,,11,,,58,127
43151,note_off,0,0,0,,7,,,67,127
43151,note_on,0,0,0,,12,,,71,127
43151,note_on,0,0,0,,0,,,60,127
43151,note_on,0,0,0,,2,,,62,127
43151,note_on,0,0,0,,6,,,66,127
43151,note_on,0,0,0,,10,,,57,127
43583,note_off,432,0,0,,12,,,71,127
43583,note_on,0,0,0,,7,,,79,127
43655,note_off,72,0,0,,7,,,79,127
43655,note_on,0,0,0,,0,,,72,127
43727,note_off,72,0,0,,0,,,72,127
43727,note_off,0,0,0,,10,,,57,127
43727,note_off,0,0,0,,6,,,66,127
43727,note_off,0,0,0,,2,,,62,127
43727,note_off,0,0,0,,0,,,60,127
43727,note_on,0,0,0,,11,,,70,127
43727,note_on,0,0,0,,7,,,55,127
43871,note_off,144,0,0,,11,,,70,127
43871,note_on,0,0,0,,10,,,69,127
44015,note_off,144,0,0,,10,,,69,127
44015,note_on,0,0,0,,7,,,67,127
44207,note_off,192,0,0,,7,,,67,127
44207,note_on,0,0,0,,3,,,75,127
44303,note_off,96,0,0,,3,,,75,127
44303,note_off,0,0,0,,7,,,55,127
44303,note_on,0,0,0,,7,,,67,127
44303,note_on,0,0,0,,7,,,55,127
44303,note_on,0,0,0,,11,,,58,127
44303,note_on,0,0,0,,2,,,50,127
44399,note_off,96,0,0,,7,,,67,127
44399,note_on,0,0,0,,10,,,69,127
44495,note_off,96,0,0,,10,,,69,127
44495,note_on,0,0,0,,7,,,67,127
44591,note_off,96,0,0,,7,,,67,127
44591,note_on,0,0,0,,6,,,66,127
44687,note_off,96,0,0,,6,,,66,127
44687,note_on,0,0,0,,7,,,67,127
44783,note_off,96,0,0,,7,,,67,127
44783,note_on,0,0,0,,10,,,69,127
44879,note_off,96,0,0,,10,,,69,127
44879,note_off,0,0,0,,2,,,50,127
44879,note_off,0,0,0,,11,,,58,127
44879,note_off,0,0,0,,7,,,55,127
44879,note_on,0,0,0,,11,,,70,127
44879,note_on,0,0,0,,6,,,54,127
44879,note_on,0,0,0,,10,,,57,127
44879,note_on,0,0,0,,2,,,50,127
44951,note_off,72,0,0,,11,,,70,127
44951,note_on,0,0,0,,10,,,69,127
45023,note_off,72,0,0,,10,,,69,127
45023,note_on,0,0,0,,11,,,70,127
45095,note_off,72,0,0,,11,,,70,127
45095,note_on,0,0,0,,10,,,69,127
45167,note_off,72,0,0,,10,,,69,127
45167,note_on,0,0,0,,11,,,70,127
45239,note_off,72,0,0,,11,,,70,127
45239,note_on,0,0,0,,10,,,69,127
45311,note_off,72,0,0,,10,,,69,127
45311,note_on,0,0,0,,11,,,70,127
45383,note_off,72,0,0,,11,,,70,127
45383,note_on,0,0,0,,10,,,69,127
45453,note_off,70,0,0,,10,,,69,127
45455,note_off,2,0,0,,2,,,50,127
45455,note_off,0,0,0,,10,,,57,127
45455,note_off,0,0,0,,6,,,54,127
45491,note_on,36,0,0,,3,,,63,127
45491,note_on,0,0,0,,0,,,60,127
45491,note_on,0,0,0,,7,,,67,127
45923,note_on,432,0,0,,7,,,79,127
45995,note_off,72,0,0,,7,,,79,127
45995,note_on,0,0,0,,3,,,75,127
46067,note_off,72,0,0,,3,,,75,127
46067,note_off,0,0,0,,7,,,67,127
46067,note_off,0,0,0,,0,,,60,127
46067,note_off,0,0,0,,3,,,63,127
46067,note_on,0,0,0,,11,,,58,127
46067,note_on,0,0,0,,2,,,62,127
46067,note_on,0,0,0,,7,,,67,127
46067,note_on,0,0,0,,1,,,73,127
46499,note_off,432,0,0,,1,,,73,127
46499,note_on,0,0,0,,7,,,79,127
46571,note_off,72,0,0,,7,,,79,127
46571,note_on,0,0,0,,2,,,74,127
46643,note_off,72,0,0,,2,,,74,127
46643,note_off,0,0,0,,7,,,67,127
46643,note_off,0,0,0,,2,,,62,127
46643,note_off,0,0,0,,11,,,58,127
46643,note_on,0,0,0,,10,,,57,127
46643,note_on,0,0,0,,6,,,66,127
46643,note_on,0,0,0,,2,,,62,127
46643,note_on,0,0,0,,0,,,60,127
46643,note_on,0,0,0,,12,,,71,127
47075,note_off,432,0,0,,12,,,71,127
47075,note_on,0,0,0,,7,,,79,127
47147,note_off,72,0,0,,7,,,79,127
47147,note_on,0,0,0,,0,,,72,127
47219,note_off,72,0,0,,0,,,72,127
47219,note_off,0,0,0,,0,,,60,127
47219,note_off,0,0,0,,2,,,62,127
47219,note_off,0,0,0,,6,,,66,127
47219,note_off,0,0,0,,10,,,57,127
47219,note_on,0,0,0,,7,,,55,127
47219,note_on,0,0,0,,11,,,70,127
47363,note_off,144,0,0,,11,,,70,127
47363,note_on,0,0,0,,10,,,69,127
47507,note_off,144,0,0,,10,,,69,127
47507,note_on,0,0,0,,7,,,67,127
47699,note_off,192,0,0,,7,,,67,127
47699,note_on,0,0,0,,3,,,75,127
47795,note_off,96,0,0,,3,,,75,127
47795,note_off,0,0,0,,7,,,55,127
47795,note_on,0,0,0,,7,,,55,127
47795,note_on,0,0,0,,2,,,50,127
47795,note_on,0,0,0,,11,,,58,127
47795,note_on,0,0,0,,7,,,67,127
47891,note_off,96,0,0,,7,,,67,127
47891,note_on,0,0,0,,10,,,69,127
47987,note_off,96,0,0,,10,,,69,127
47987,note_on,0,0,0,,7,,,67,127
48083,note_off,96,0,0,,7,,,67,127
48083,note_on,0,0,0,,6,,,66,127
48179,note_off,96,0,0,,6,,,66,127
48179,note_on,0,0,0,,7,,,67,127
48275,note_off,96,0,0,,7,,,67,127
48275,note_on,0,0,0,,10,,,69,127
48371,note_off,96,0,0,,10,,,69,127
48371,note_off,0,0,0,,11,,,58,127
48371,note_off,0,0,0,,2,,,50,127
48371,note_off,0,0,0,,7,,,55,127
48371,note_on,0,0,0,,6,,,54,127
48371,note_on,0,0,0,,2,,,50,127
48371,note_on,0,0,0,,10,,,57,127
48371,note_on,0,0,0,,11,,,70,127
48443,note_off,72,0,0,,11,,,70,127
48443,note_on,0,0,0,,10,,,69,127
48515,note_off,72,0,0,,10,,,69,127
48515,note_on,0,0,0,,11,,,70,127
48584,note_on,69,0,0,,10,,,69,127
48587,note_off,3,0,0,,11,,,70,127
48653,note_on,66,0,0,,11,,,70,127
48656,note_off,3,0,0,,10,,,69,127
48722,note_on,66,0,0,,10,,,69,127
48725,note_off,3,0,0,,11,,,70,127
48791,note_on,66,0,0,,7,,,67,127
48794,note_off,3,0,0,,10,,,69,127
48896,note_off,102,0,0,,7,,,67,127
48947,note_off,51,0,0,,10,,,57,127
48947,note_off,0,0,0,,2,,,50,127
48947,note_off,0,0,0,,6,,,54,127
48947,note_on,0,0,0,,7,,,43,127
48947,note_on,0,0,0,,7,,,55,127
48947,note_on,0,0,0,,10,,,69,127
49019,note_off,72,0,0,,10,,,69,127
49019,note_on,0,0,0,,7,,,67,127
49091,note_off,72,0,0,,7,,,67,127
49091,note_on,0,0,0,,10,,,69,127
49163,note_off,72,0,0,,10,,,69,127
49163,note_on,0,0,0,,7,,,67,127
49235,note_off,72,0,0,,7,,,67,127
49235,note_on,0,0,0,,0,,,72,127
49307,note_off,72,0,0,,0,,,72,127
49307,note_on,0,0,0,,12,,,71,127
49379,note_off,72,0,0,,12,,,71,127
49379,note_on,0,0,0,,0,,,72,127
49451,note_off,72,0,0,,0,,,72,127
49451,note_on,0,0,0,,12,,,71,127
49523,note_off,72,0,0,,12,,,71,127
49523,note_off,0,0,0,,7,,,55,127
49523,note_off,0,0,0,,7,,,43,127
49523,note_on,0,0,0,,7,,,55,127
49523,note_on,0,0,0,,7,,,43,127
49523,note_on,0,0,0,,4,,,76,127
49595,note_off,72,0,0,,4,,,76,127
49595,note_on,0,0,0,,2,,,74,127
49667,note_off,72,0,0,,2,,,74,127
49667,note_on,0,0,0,,4,,,76,127
49739,note_off,72,0,0,,4,,,76,127
49739,note_on,0,0,0,,2,,,74,127
49811,note_off,72,0,0,,2,,,74,127
49811,note_on,0,0,0,,10,,,81,127
49883,note_off,72,0,0,,10,,,81,127
49883,note_on,0,0,0,,7,,,79,127
49955,note_off,72,0,0,,7,,,79,127
49955,note_on,0,0,0,,10,,,81,127
50027,note_off,72,0,0,,10,,,81,127
50027,note_on,0,0,0,,7,,,79,127
50099,note_off,72,0,0,,7,,,79,127
50099,note_off,0,0,0,,7,,,43,127
50099,note_off,0,0,0,,7,,,55,127
50099,note_on,0,0,0,,7,,,43,127
50099,note_on,0,0,0,,7,,,55,127
50099,note_on,0,0,0,,0,,,84,127
50171,note_off,72,0,0,,0,,,84,127
50171,note_on,0,0,0,,12,,,83,127
50243,note_off,72,0,0,,12,,,83,127
50243,note_on,0,0,0,,0,,,84,127
50312,note_on,69,0,0,,12,,,83,127
50315,note_off,3,0,0,,0,,,84,127
50381,note_on,66,0,0,,0,,,84,127
50384,note_off,3,0,0,,12,,,83,127
50450,note_on,66,0,0,,12,,,83,127
50453,note_off,3,0,0,,0,,,84,127
50519,note_on,66,0,0,,10,,,81,127
50522,note_off,3,0,0,,12,,,83,127
50588,note_on,66,0,0,,12,,,83,127
50591,note_off,3,0,0,,10,,,81,127
50660,note_off,69,0,0,,12,,,83,127
50675,note_off,15,0,0,,7,,,55,127
50675,note_off,0,0,0,,7,,,43,127
50684,note_on,9,0,0,,4,,,76,127
50684,note_on,0,0,0,,0,,,60,127
50684,note_on,0,0,0,,0,,,48,127
50828,note_off,144,0,0,,4,,,76,127
50828,note_on,0,0,0,,0,,,72,127
50972,note_off,144,0,0,,0,,,72,127
50972,note_on,0,0,0,,12,,,71,127
51116,note_off,144,0,0,,12,,,71,127
51116,note_on,0,0,0,,10,,,69,127
51260,note_off,144,0,0,,10,,,69,127
51260,note_off,0,0,0,,0,,,48,127
51260,note_off,0,0,0,,0,,,60,127
51260,note_on,0,0,0,,7,,,67,127
51260,note_on,0,0,0,,12,,,59,127
51260,note_on,0,0,0,,7,,,55,127
51260,note_on,0,0,0,,2,,,50,127
51404,note_off,144,0,0,,7,,,67,127
51404,note_on,0,0,0,,6,,,66,127
51548,note_off,144,0,0,,6,,,66,127
51548,note_on,0,0,0,,7,,,67,127
51692,note_off,144,0,0,,7,,,67,127
51692,note_on,0,0,0,,10,,,69,127
51836,note_off,144,0,0,,10,,,69,127
51836,note_off,0,0,0,,2,,,50,127
51836,note_off,0,0,0,,7,,,55,127
51836,note_off,0,0,0,,12,,,59,127
51836,note_on,0,0,0,,12,,,71,127
51836,note_on,0,0,0,,10,,,57,127
51836,note_on,0,0,0,,2,,,50,127
51908,note_off,72,0,0,,12,,,71,127
51908,note_on,0,0,0,,10,,,69,127
51980,note_off,72,0,0,,10,,,69,127
51980,note_on,0,0,0,,12,,,71,127
52052,note_off,72,0,0,,12,,,71,127
52052,note_on,0,0,0,,10,,,69,127
52124,note_off,72,0,0,,10,,,69,127
52124,note_on,0,0,0,,12,,,71,127
52196,note_off,72,0,0,,12,,,71,127
52196,note_on,0,0,0,,10,,,69,127
52268,note_off,72,0,0,,10,,,69,127
52268,note_on,0,0,0,,7,,,67,127
52412,note_off,144,0,0,,7,,,67,127
52412,note_off,0,0,0,,2,,,50,127
52412,note_off,0,0,0,,10,,,57,127
52436,note_on,24,0,0,,7,,,43,127
52436,note_on,0,0,0,,7,,,55,127
52436,note_on,0,0,0,,10,,,69,127
52508,note_off,72,0,0,,10,,,69,127
52508,note_on,0,0,0,,7,,,67,127
52580,note_off,72,0,0,,7,,,67,127
52580,note_on,0,0,0,,10,,,69,127
52652,note_off,72,0,0,,10,,,69,127
52652,note_on,0,0,0,,7,,,67,127
52724,note_off,72,0,0,,7,,,67,127
52724,note_on,0,0,0,,0,,,72,127
52796,note_off,72,0,0,,0,,,72,127
52796,note_on,0,0,0,,12,,,71,127
52868,note_off,72,0,0,,12,,,71,127
52868,note_on,0,0,0,,0,,,72,127
52940,note_off,72,0,0,,0,,,72,127
52940,note_on,0,0,0,,12,,,71,127
53012,note_off,72,0,0,,12,,,71,127
53012,note_off,0,0,0,,7,,,55,127
53012,note_off,0,0,0,,7,,,43,127
53012,note_on,0,0,0,,7,,,43,127
53012,note_on,0,0,0,,7,,,55,127
53012,note_on,0,0,0,,4,,,76,127
53084,note_off,72,0,0,,4,,,76,127
53084,note_on,0,0,0,,2,,,74,127
53156,note_off,72,0,0,,2,,,74,127
53156,note_on,0,0,0,,4,,,76,127
53228,note_off,72,0,0,,4,,,76,127
53228,note_on,0,0,0,,2,,,74,127
53300,note_off,72,0,0,,2,,,74,127
53300,note_on,0,0,0,,10,,,81,127
53372,note_off,72,0,0,,10,,,81,127
53372,note_on,0,0,0,,7,,,79,127
53444,note_off,72,0,0,,7,,,79,127
53444,note_on,0,0,0,,10,,,81,127
53516,note_off,72,0,0,,10,,,81,127
53516,note_on,0,0,0,,7,,,79,127
53588,note_off,72,0,0,,7,,,79,127
53588,note_off,0,0,0,,7,,,55,127
53588,note_off,0,0,0,,7,,,43,127
53588,note_on,0,0,0,,7,,,43,127
53588,note_on,0,0,0,,7,,,55,127
53588,note_on,0,0,0,,0,,,84,127
53660,note_off,72,0,0,,0,,,84,127
53660,note_on,0,0,0,,12,,,83,127
53732,note_off,72,0,0,,12,,,83,127
53732,note_on,0,0,0,,0,,,84,127
53801,note_on,69,0,0,,12,,,83,127
53804,note_off,3,0,0,,0,,,84,127
53870,note_on,66,0,0,,0,,,84,127
53873,note_off,3,0,0,,12,,,83,127
53939,note_on,66,0,0,,12,,,83,127
53942,note_off,3,0,0,,0,,,84,127
54008,note_on,66,0,0,,10,,,81,127
54011,note_off,3,0,0,,12,,,83,127
54077,note_on,66,0,0,,12,,,83,127
54080,note_off,3,0,0,,10,,,81,127
54149,note_off,69,0,0,,12,,,83,127
54164,note_off,15,0,0,,7,,,55,127
54164,note_off,0,0,0,,7,,,43,127
54170,note_on,6,0,0,,4,,,76,127
54170,note_on,0,0,0,,0,,,60,127
54170,note_on,0,0,0,,0,,,48,127
54458,note_off,288,0,0,,4,,,76,127
54458,note_on,0,0,0,,2,,,74,127
54530,note_off,72,0,0,,2,,,74,127
54530,note_on,0,0,0,,0,,,72,127
54602,note_off,72,0,0,,0,,,72,127
54602,note_on,0,0,0,,12,,,71,127
54674,note_off,72,0,0,,12,,,71,127
54674,note_on,0,0,0,,10,,,69,127
54746,note_off,72,0,0,,10,,,69,127
54746,note_off,0,0,0,,0,,,48,127
54746,note_off,0,0,0,,0,,,60,127
54746,note_on,0,0,0,,7,,,67,127
54746,note_on,0,0,0,,7,,,55,127
54746,note_on,0,0,0,,12,,,59,127
54746,note_on,0,0,0,,2,,,50,127
54842,note_off,96,0,0,,7,,,67,127
54842,note_on,0,0,0,,10,,,69,127
54938,note_off,96,0,0,,10,,,69,127
54938,note_on,0,0,0,,7,,,67,127
55034,note_off,96,0,0,,7,,,67,127
55034,note_on,0,0,0,,6,,,66,127
55130,note_off,96,0,0,,6,,,66,127
55130,note_on,0,0,0,,7,,,67,127
55226,note_off,96,0,0,,7,,,67,127
55226,note_on,0,0,0,,10,,,69,127
55322,note_off,96,0,0,,10,,,69,127
55322,note_off,0,0,0,,2,,,50,127
55322,note_off,0,0,0,,12,,,59,127
55322,note_off,0,0,0,,7,,,55,127
55322,note_on,0,0,0,,12,,,71,127
55322,note_on,0,0,0,,10,,,57,127
55322,note_on,0,0,0,,2,,,50,127
55394,note_off,72,0,0,,12,,,71,127
55394,note_on,0,0,0,,10,,,69,127
55466,note_off,72,0,0,,10,,,69,127
55466,note_on,0,0,0,,12,,,71,127
55535,note_on,69,0,0,,10,,,69,127
55538,note_off,3,0,0,,12,,,71,127
55604,note_on,66,0,0,,12,,,71,127
55607,note_off,3,0,0,,10,,,69,127
55673,note_on,66,0,0,,10,,,69,127
55676,note_off,3,0,0,,12,,,71,127
55742,note_on,66,0,0,,7,,,67,127
55745,note_off,3,0,0,,10,,,69,127
55886,note_off,141,0,0,,7,,,67,127
55898,note_off,12,0,0,,2,,,50,127
55898,note_off,0,0,0,,10,,,57,127
55922,note_on,24,0,0,,7,,,43,127
55922,note_on,0,0,0,,7,,,55,127
55922,note_on,0,0,0,,7,,,79,127
56066,note_off,144,0,0,,7,,,79,127
56066,note_on,0,0,0,,2,,,74,127
56210,note_off,144,0,0,,2,,,74,127
56210,note_on,0,0,0,,12,,,83,127
56354,note_off,144,0,0,,12,,,83,127
56354,note_on,0,0,0,,7,,,79,127
56498,note_off,144,0,0,,7,,,79,127
56498,note_off,0,0,0,,7,,,55,127
56498,note_off,0,0,0,,7,,,43,127
56498,note_on,0,0,0,,12,,,71,127
56498,note_on,0,0,0,,7,,,79,127
56642,note_off,144,0,0,,7,,,79,127
56642,note_on,0,0,0,,2,,,74,127
56786,note_off,144,0,0,,2,,,74,127
56786,note_on,0,0,0,,12,,,83,127
56930,note_off,144,0,0,,12,,,83,127
56930,note_on,0,0,0,,7,,,79,127
57074,note_off,144,0,0,,7,,,79,127
57074,note_off,0,0,0,,12,,,71,127
57074,note_on,0,0,0,,0,,,72,127
57074,note_on,0,0,0,,7,,,79,127
57218,note_off,144,0,0,,7,,,79,127
57218,note_on,0,0,0,,4,,,76,127
57362,note_off,144,0,0,,4,,,76,127
57362,note_on,0,0,0,,12,,,83,127
57506,note_off,144,0,0,,12,,,83,127
57506,note_on,0,0,0,,7,,,79,127
57650,note_off,144,0,0,,7,,,79,127
57650,note_off,0,0,0,,0,,,72,127
57650,note_on,0,0,0,,12,,,71,127
57650,note_on,0,0,0,,7,,,79,127
57794,note_off,144,0,0,,7,,,79,127
57794,note_on,0,0,0,,2,,,74,127
57938,note_off,144,0,0,,2,,,74,127
57938,note_on,0,0,0,,12,,,83,127
58082,note_off,144,0,0,,12,,,83,127
58082,note_on,0,0,0,,7,,,79,127
58226,note_off,144,0,0,,7,,,79,127
58226,note_off,0,0,0,,12,,,71,127
58226,note_on,0,0,0,,0,,,60,127
58226,note_on,0,0,0,,7,,,79,127
58370,note_off,144,0,0,,7,,,79,127
58370,note_on,0,0,0,,4,,,76,127
58514,note_off,144,0,0,,4,,,76,127
58514,note_on,0,0,0,,4,,,76,127
58658,note_off,144,0,0,,4,,,76,127
58658,note_on,0,0,0,,0,,,72,127
58802,note_off,144,0,0,,0,,,72,127
58802,note_off,0,0,0,,0,,,60,127
58802,note_on,0,0,0,,2,,,62,127
58802,note_on,0,0,0,,0,,,72,127
58946,note_off,144,0,0,,0,,,72,127
58946,note_on,0,0,0,,10,,,69,127
59090,note_off,144,0,0,,10,,,69,127
59090,note_on,0,0,0,,10,,,69,127
59234,note_off,144,0,0,,10,,,69,127
59234,note_on,0,0,0,,6,,,66,127
59378,note_off,144,0,0,,6,,,66,127
59378,note_off,0,0,0,,2,,,62,127
59378,note_on,0,0,0,,7,,,55,127
59378,note_on,0,0,0,,7,,,67,127
59522,note_off,144,0,0,,7,,,67,127
59522,note_on,0,0,0,,2,,,62,127
59666,note_off,144,0,0,,2,,,62,127
59666,note_on,0,0,0,,12,,,71,127
59810,note_off,144,0,0,,12,,,71,127
59810,note_on,0,0,0,,7,,,67,127
59954,note_off,144,0,0,,7,,,67,127
59954,note_off,0,0,0,,7,,,55,127
59954,note_on,0,0,0,,12,,,59,127
59954,note_on,0,0,0,,7,,,67,127
60098,note_off,144,0,0,,7,,,67,127
60098,note_on,0,0,0,,2,,,62,127
60242,note_off,144,0,0,,2,,,62,127
60242,note_on,0,0,0,,12,,,71,127
60386,note_off,144,0,0,,12,,,71,127
60386,note_on,0,0,0,,7,,,67,127
60530,note_off,144,0,0,,7,,,67,127
60530,note_off,0,0,0,,12,,,59,127
60530,note_on,0,0,0,,0,,,60,127
60530,note_on,0,0,0,,7,,,67,127
60674,note_off,144,0,0,,7,,,67,127
60674,note_on,0,0,0,,4,,,64,127
60818,note_off,144,0,0,,4,,,64,127
60818,note_on,0,0,0,,12,,,71,127
60962,note_off,144,0,0,,12,,,71,127
60962,note_on,0,0,0,,7,,,67,127
61106,note_off,144,0,0,,7,,,67,127
61106,note_off,0,0,0,,0,,,60,127
61106,note_on,0,0,0,,12,,,59,127
61106,note_on,0,0,0,,7,,,67,127
61250,note_off,144,0,0,,7,,,67,127
61250,note_on,0,0,0,,2,,,62,127
61394,note_off,144,0,0,,2,,,62,127
61394,note_on,0,0,0,,12,,,71,127
61538,note_off,144,0,0,,12,,,71,127
61538,note_on,0,0,0,,7,,,67,127
61682,note_off,144,0,0,,7,,,67,127
61682,note_off,0,0,0,,12,,,59,127
61682,note_on,0,0,0,,0,,,48,127
61682,note_on,0,0,0,,7,,,67,127
61826,note_off,144,0,0,,7,,,67,127
61826,note_on,0,0,0,,4,,,64,127
61970,note_off,144,0,0,,4,,,64,127
61970,note_on,0,0,0,,4,,,64,127
62114,note_off,144,0,0,,4,,,64,127
62114,note_on,0,0,0,,0,,,60,127
62258,note_off,144,0,0,,0,,,60,127
62258,note_off,0,0,0,,0,,,48,127
62258,note_on,0,0,0,,2,,,50,127
62258,note_on,0,0,0,,0,,,60,127
62402,note_off,144,0,0,,0,,,60,127
62402,note_on,0,0,0,,10,,,57,127
62546,note_off,144,0,0,,10,,,57,127
62546,note_on,0,0,0,,10,,,57,127
62690,note_off,144,0,0,,10,,,57,127
62690,note_on,0,0,0,,6,,,54,127
62834,note_off,144,0,0,,6,,,54,127
62834,note_off,0,0,0,,2,,,50,127
62843,note_on,9,0,0,,7,,,55,127
62843,note_on,0,0,0,,7,,,43,127
64313,note_off,1470,0,0,,7,,,43,127
64313,note_off,0,0,0,,7,,,55,127
64646,note_on,333,0,0,,7,,,79,127
64646,note_on,0,0,0,,0,,,72,127
64646,note_on,0,0,0,,7,,,67,127
64646,note_on,0,0,0,,11,,,70,127
64646,note_on,0,0,0,,4,,,64,127
65222,note_off,576,0,0,,4,,,64,127
65222,note_off,0,0,0,,11,,,70,127
65222,note_off,0,0,0,,7,,,67,127
65222,note_off,0,0,0,,0,,,72,127
65222,note_off,0,0,0,,7,,,79,127
65246,note_on,24,0,0,,11,,,70,127
65246,note_on,0,0,0,,5,,,65,127
65246,note_on,0,0,0,,0,,,72,127
65246,note_on,0,0,0,,1,,,73,127
65246,note_on,0,0,0,,11,,,82,127
65318,note_off,72,0,0,,11,,,82,127
65318,note_on,0,0,0,,8,,,80,127
65390,note_off,72,0,0,,8,,,80,127
65390,note_on,0,0,0,,11,,,82,127
65462,note_on,72,0,0,,8,,,80,127
65498,note_off,36,0,0,,11,,,82,127
65534,note_on,36,0,0,,11,,,82,127
65570,note_off,36,0,0,,8,,,80,127
65606,note_off,36,0,0,,11,,,82,127
65606,note_on,0,0,0,,8,,,80,127
65678,note_off,72,0,0,,8,,,80,127
65678,note_on,0,0,0,,11,,,82,127
65750,note_off,72,0,0,,11,,,82,127
65750,note_on,0,0,0,,8,,,80,127
65822,note_off,72,0,0,,1,,,73,127
65822,note_off,0,0,0,,0,,,72,127
65822,note_off,0,0,0,,5,,,65,127
65822,note_off,0,0,0,,11,,,70,127
65822,note_on,0,0,0,,5,,,65,127
65822,note_on,0,0,0,,0,,,72,127
65822,note_on,0,0,0,,11,,,70,127
65822,note_on,0,0,0,,1,,,73,127
65822,note_on,0,0,0,,11,,,82,127
65858,note_off,36,0,0,,8,,,80,127
65894,note_off,36,0,0,,11,,,82,127
65894,note_on,0,0,0,,8,,,80,127
65966,note_off,72,0,0,,8,,,80,127
65966,note_on,0,0,0,,11,,,82,127
66038,note_off,72,0,0,,11,,,82,127
66038,note_on,0,0,0,,8,,,80,127
66110,note_on,72,0,0,,11,,,82,127
66146,note_off,36,0,0,,8,,,80,127
66182,note_on,36,0,0,,8,,,80,127
66218,note_off,36,0,0,,11,,,82,127
66254,note_off,36,0,0,,8,,,80,127
66254,note_on,0,0,0,,7,,,79,127
66326,note_off,72,0,0,,7,,,79,127
66326,note_on,0,0,0,,5,,,77,127
66398,note_off,72,0,0,,5,,,77,127
66398,note_off,0,0,0,,1,,,73,127
66398,note_off,0,0,0,,11,,,70,127
66398,note_off,0,0,0,,0,,,72,127
66398,note_off,0,0,0,,5,,,65,127
66398,note_on,0,0,0,,7,,,67,127
66398,note_on,0,0,0,,4,,,64,127
66398,note_on,0,0,0,,0,,,72,127
66398,note_on,0,0,0,,11,,,70,127
66398,note_on,0,0,0,,7,,,79,127
66470,note_off,72,0,0,,7,,,79,127
66470,note_on,0,0,0,,5,,,77,127
66542,note_off,72,0,0,,5,,,77,127
66542,note_on,0,0,0,,7,,,79,127
66614,note_off,72,0,0,,7,,,79,127
66614,note_on,0,0,0,,8,,,80,127
66686,note_off,72,0,0,,8,,,80,127
66686,note_on,0,0,0,,7,,,79,127
66830,note_on,144,0,0,,8,,,80,127
66866,note_off,36,0,0,,7,,,79,127
66902,note_off,36,0,0,,8,,,80,127
66902,note_on,0,0,0,,11,,,82,127
66923,note_off,21,0,0,,11,,,70,127
66923,note_off,0,0,0,,0,,,72,127
66923,note_off,0,0,0,,4,,,64,127
66923,note_off,0,0,0,,7,,,67,127
66974,note_on,51,0,0,,5,,,65,127
66974,note_on,0,0,0,,1,,,73,127
66974,note_on,0,0,0,,0,,,72,127
66974,note_on,0,0,0,,11,,,70,127
66974,note_on,0,0,0,,8,,,80,127
67010,note_off,36,0,0,,8,,,80,127
67046,note_on,36,0,0,,8,,,80,127
67082,note_off,36,0,0,,11,,,82,127
67118,note_off,36,0,0,,8,,,80,127
67118,note_on,0,0,0,,11,,,82,127
67190,note_off,72,0,0,,11,,,82,127
67190,note_on,0,0,0,,8,,,80,127
67262,note_off,72,0,0,,8,,,80,127
67262,note_on,0,0,0,,11,,,82,127
67334,note_off,72,0,0,,11,,,82,127
67334,note_on,0,0,0,,8,,,80,127
67406,note_off,72,0,0,,8,,,80,127
67406,note_on,0,0,0,,11,,,82,127
67478,note_off,72,0,0,,11,,,82,127
67478,note_on,0,0,0,,8,,,80,127
67550,note_off,72,0,0,,11,,,70,127
67550,note_off,0,0,0,,0,,,72,127
67550,note_off,0,0,0,,1,,,73,127
67550,note_off,0,0,0,,5,,,65,127
67550,note_on,0,0,0,,5,,,65,127
67550,note_on,0,0,0,,0,,,72,127
67550,note_on,0,0,0,,11,,,70,127
67550,note_on,0,0,0,,1,,,73,127
67550,note_on,0,0,0,,11,,,82,127
67586,note_off,36,0,0,,8,,,80,127
67622,note_off,36,0,0,,11,,,82,127
67622,note_on,0,0,0,,8,,,80,127
67694,note_off,72,0,0,,8,,,80,127
67694,note_on,0,0,0,,11,,,82,127
67766,note_off,72,0,0,,11,,,82,127
67766,note_on,0,0,0,,8,,,80,127
67838,note_on,72,0,0,,11,,,82,127
67874,note_off,36,0,0,,8,,,80,127
67910,note_off,36,0,0,,11,,,82,127
67910,note_on,0,0,0,,8,,,80,127
67982,note_off,72,0,0,,8,,,80,127
67982,note_on,0,0,0,,7,,,79,127
68054,note_off,72,0,0,,7,,,79,127
68054,note_on,0,0,0,,5,,,77,127
68126,note_off,72,0,0,,5,,,77,127
68126,note_off,0,0,0,,1,,,73,127
68126,note_off,0,0,0,,11,,,70,127
68126,note_off,0,0,0,,0,,,72,127
68126,note_off,0,0,0,,5,,,65,127
68126,note_on,0,0,0,,7,,,67,127
68126,note_on,0,0,0,,4,,,64,127
68126,note_on,0,0,0,,0,,,72,127
68126,note_on,0,0,0,,11,,,70,127
68126,note_on,0,0,0,,7,,,79,127
68198,note_off,72,0,0,,7,,,79,127
68198,note_on,0,0,0,,5,,,77,127
68270,note_off,72,0,0,,5,,,77,127
68270,note_on,0,0,0,,7,,,79,127
68342,note_off,72,0,0,,7,,,79,127
68342,note_on,0,0,0,,8,,,80,127
68414,note_off,72,0,0,,8,,,80,127
68414,note_on,0,0,0,,7,,,79,127
68558,note_off,144,0,0,,7,,,79,127
68558,note_on,0,0,0,,8,,,80,127
68630,note_off,72,0,0,,8,,,80,127
68630,note_on,0,0,0,,11,,,82,127
68681,note_off,51,0,0,,11,,,70,127
68681,note_off,0,0,0,,0,,,72,127
68681,note_off,0,0,0,,4,,,64,127
68681,note_off,0,0,0,,7,,,67,127
68702,note_off,21,0,0,,11,,,82,127
68702,note_on,0,0,0,,5,,,65,127
68702,note_on,0,0,0,,8,,,68,127
68702,note_on,0,0,0,,0,,,72,127
68702,note_on,0,0,0,,11,,,82,127
68774,note_on,72,0,0,,8,,,80,127
68810,note_off,36,0,0,,11,,,82,127
68846,note_off,36,0,0,,8,,,80,127
68846,note_on,0,0,0,,11,,,82,127
68918,note_off,72,0,0,,11,,,82,127
68918,note_on,0,0,0,,8,,,80,127
68990,note_off,72,0,0,,8,,,80,127
68990,note_on,0,0,0,,11,,,82,127
69062,note_on,72,0,0,,8,,,80,127
69098,note_off,36,0,0,,11,,,82,127
69134,note_off,36,0,0,,8,,,80,127
69134,note_on,0,0,0,,11,,,82,127
69206,note_on,72,0,0,,8,,,80,127
69242,note_off,36,0,0,,11,,,82,127
69278,note_off,36,0,0,,8,,,80,127
69278,note_off,0,0,0,,0,,,72,127
69278,note_off,0,0,0,,8,,,68,127
69278,note_off,0,0,0,,5,,,65,127
69278,note_on,0,0,0,,1,,,61,127
69278,note_on,0,0,0,,5,,,65,127
69278,note_on,0,0,0,,11,,,70,127
69278,note_on,0,0,0,,11,,,82,127
69350,note_off,72,0,0,,11,,,82,127
69350,note_on,0,0,0,,8,,,80,127
69422,note_off,72,0,0,,8,,,80,127
69422,note_on,0,0,0,,11,,,82,127
69494,note_off,72,0,0,,11,,,82,127
69494,note_on,0,0,0,,8,,,80,127
69566,note_off,72,0,0,,8,,,80,127
69566,note_on,0,0,0,,11,,,82,127
69638,note_off,72,0,0,,11,,,82,127
69638,note_on,0,0,0,,8,,,80,127
69710,note_off,72,0,0,,8,,,80,127
69710,note_on,0,0,0,,7,,,79,127
69782,note_on,72,0,0,,5,,,77,127
69818,note_off,36,0,0,,7,,,79,127
69854,note_off,36,0,0,,5,,,77,127
69854,note_off,0,0,0,,11,,,70,127
69854,note_off,0,0,0,,5,,,65,127
69854,note_off,0,0,0,,1,,,61,127
69854,note_on,0,0,0,,0,,,60,127
69854,note_on,0,0,0,,0,,,72,127
69854,note_on,0,0,0,,8,,,68,127
69854,note_on,0,0,0,,7,,,79,127
69926,note_off,72,0,0,,7,,,79,127
69926,note_on,0,0,0,,5,,,77,127
69998,note_off,72,0,0,,5,,,77,127
69998,note_on,0,0,0,,7,,,79,127
70070,note_off,72,0,0,,7,,,79,127
70070,note_on,0,0,0,,5,,,77,127
70142,note_off,72,0,0,,5,,,77,127
70142,note_on,0,0,0,,7,,,79,127
70214,note_off,72,0,0,,7,,,79,127
70214,note_on,0,0,0,,5,,,77,127
70286,note_off,72,0,0,,5,,,77,127
70286,note_on,0,0,0,,4,,,76,127
70358,note_off,72,0,0,,4,,,76,127
70358,note_on,0,0,0,,5,,,77,127
70430,note_off,72,0,0,,5,,,77,127
70430,note_off,0,0,0,,8,,,68,127
70430,note_on,0,0,0,,7,,,67,127
70430,note_on,0,0,0,,4,,,76,127
71006,note_off,576,0,0,,0,,,60,127
71030,note_on,24,0,0,,7,,,79,127
71030,note_on,0,0,0,,2,,,62,127
71042,note_off,12,0,0,,4,,,76,127
71102,note_off,60,0,0,,7,,,79,127
71102,note_on,0,0,0,,6,,,78,127
71174,note_off,72,0,0,,6,,,78,127
71174,note_on,0,0,0,,7,,,79,127
71246,note_off,72,0,0,,7,,,79,127
71246,note_on,0,0,0,,6,,,78,127
71318,note_on,72,0,0,,7,,,79,127
71354,note_off,36,0,0,,6,,,78,127
71390,note_off,36,0,0,,7,,,79,127
71390,note_on,0,0,0,,6,,,78,127
71462,note_off,72,0,0,,6,,,78,127
71462,note_on,0,0,0,,4,,,76,127
71534,note_off,72,0,0,,4,,,76,127
71534,note_on,0,0,0,,6,,,78,127
71582,note_off,48,0,0,,7,,,67,127
71582,note_off,0,0,0,,0,,,72,127
71606,note_off,24,0,0,,6,,,78,127
71606,note_off,0,0,0,,2,,,62,127
71606,note_on,0,0,0,,6,,,78,127
71606,note_on,0,0,0,,3,,,63,127
71678,note_off,72,0,0,,6,,,78,127
71678,note_on,0,0,0,,7,,,79,127
71750,note_off,72,0,0,,7,,,79,127
71750,note_on,0,0,0,,10,,,81,127
71822,note_off,72,0,0,,10,,,81,127
71822,note_on,0,0,0,,7,,,79,127
71894,note_off,72,0,0,,7,,,79,127
71894,note_on,0,0,0,,10,,,81,127
71894,note_on,0,0,0,,0,,,72,127
71966,note_off,72,0,0,,10,,,81,127
71966,note_on,0,0,0,,7,,,79,127
72038,note_off,72,0,0,,7,,,79,127
72038,note_on,0,0,0,,10,,,81,127
72110,note_off,72,0,0,,10,,,81,127
72110,note_on,0,0,0,,7,,,79,127
72182,note_off,72,0,0,,7,,,79,127
72182,note_off,0,0,0,,0,,,72,127
72182,note_on,0,0,0,,10,,,81,127
72182,note_on,0,0,0,,11,,,70,127
72254,note_off,72,0,0,,10,,,81,127
72254,note_on,0,0,0,,7,,,79,127
72326,note_off,72,0,0,,7,,,79,127
72326,note_on,0,0,0,,10,,,81,127
72398,note_off,72,0,0,,10,,,81,127
72398,note_on,0,0,0,,7,,,79,127
72470,note_off,72,0,0,,7,,,79,127
72470,note_off,0,0,0,,11,,,70,127
72470,note_on,0,0,0,,10,,,81,127
72470,note_on,0,0,0,,10,,,69,127
72542,note_off,72,0,0,,10,,,81,127
72542,note_on,0,0,0,,7,,,79,127
72614,note_off,72,0,0,,7,,,79,127
72614,note_on,0,0,0,,10,,,81,127
72686,note_off,72,0,0,,10,,,81,127
72686,note_on,0,0,0,,7,,,79,127
72758,note_off,72,0,0,,7,,,79,127
72758,note_off,0,0,0,,10,,,69,127
72758,note_on,0,0,0,,10,,,81,127
72758,note_on,0,0,0,,7,,,67,127
72830,note_off,72,0,0,,10,,,81,127
72830,note_on,0,0,0,,7,,,79,127
72902,note_off,72,0,0,,7,,,79,127
72902,note_off,0,0,0,,7,,,67,127
72902,note_on,0,0,0,,10,,,81,127
72902,note_on,0,0,0,,6,,,66,127
72974,note_off,72,0,0,,10,,,81,127
72974,note_on,0,0,0,,7,,,79,127
73046,note_off,72,0,0,,7,,,79,127
73046,note_off,0,0,0,,6,,,66,127
73046,note_on,0,0,0,,10,,,81,127
73046,note_on,0,0,0,,7,,,67,127
73118,note_off,72,0,0,,10,,,81,127
73118,note_on,0,0,0,,7,,,79,127
73190,note_off,72,0,0,,7,,,79,127
73190,note_off,0,0,0,,7,,,67,127
73190,note_on,0,0,0,,10,,,81,127
73190,note_on,0,0,0,,10,,,69,127
73262,note_off,72,0,0,,10,,,81,127
73262,note_on,0,0,0,,7,,,79,127
73334,note_off,72,0,0,,7,,,79,127
73334,note_off,0,0,0,,10,,,69,127
73334,note_off,0,0,0,,3,,,63,127
73334,note_on,0,0,0,,10,,,81,127
73334,note_on,0,0,0,,2,,,62,127
73334,note_on,0,0,0,,11,,,70,127
73406,note_off,72,0,0,,10,,,81,127
73406,note_on,0,0,0,,7,,,79,127
73478,note_off,72,0,0,,7,,,79,127
73478,note_on,0,0,0,,10,,,81,127
73550,note_off,72,0,0,,10,,,81,127
73550,note_on,0,0,0,,7,,,79,127
73622,note_off,72,0,0,,7,,,79,127
73622,note_off,0,0,0,,11,,,70,127
73622,note_on,0,0,0,,10,,,81,127
73622,note_on,0,0,0,,7,,,67,127
73694,note_off,72,0,0,,10,,,81,127
73694,note_on,0,0,0,,7,,,79,127
73766,note_off,72,0,0,,7,,,79,127
73766,note_on,0,0,0,,10,,,81,127
73838,note_off,72,0,0,,10,,,81,127
73838,note_on,0,0,0,,7,,,79,127
73910,note_off,72,0,0,,7,,,79,127
73910,note_off,0,0,0,,7,,,67,127
73910,note_off,0,0,0,,2,,,62,127
73910,note_on,0,0,0,,10,,,81,127
73910,note_on,0,0,0,,2,,,62,127
73910,note_on,0,0,0,,11,,,70,127
73982,note_off,72,0,0,,10,,,81,127
73982,note_on,0,0,0,,7,,,79,127
74054,note_off,72,0,0,,7,,,79,127
74054,note_on,0,0,0,,10,,,81,127
74126,note_off,72,0,0,,10,,,81,127
74126,note_on,0,0,0,,7,,,79,127
74198,note_off,72,0,0,,7,,,79,127
74198,note_off,0,0,0,,11,,,70,127
74198,note_on,0,0,0,,10,,,81,127
74198,note_on,0,0,0,,7,,,67,127
74270,note_off,72,0,0,,10,,,81,127
74270,note_on,0,0,0,,7,,,79,127
74342,note_off,72,0,0,,7,,,79,127
74342,note_on,0,0,0,,10,,,81,127
74414,note_off,72,0,0,,10,,,81,127
74414,note_on,0,0,0,,7,,,79,127
74486,note_off,72,0,0,,7,,,79,127
74486,note_off,0,0,0,,7,,,67,127
74486,note_off,0,0,0,,2,,,62,127
74486,note_on,0,0,0,,10,,,81,127
74486,note_on,0,0,0,,11,,,70,127
74486,note_on,0,0,0,,2,,,62,127
74558,note_off,72,0,0,,10,,,81,127
74558,note_on,0,0,0,,7,,,79,127
74630,note_off,72,0,0,,7,,,79,127
74630,note_on,0,0,0,,10,,,81,127
74702,note_off,72,0,0,,10,,,81,127
74702,note_on,0,0,0,,7,,,79,127
74774,note_off,72,0,0,,7,,,79,127
74774,note_off,0,0,0,,11,,,70,127
74774,note_on,0,0,0,,10,,,81,127
74774,note_on,0,0,0,,7,,,67,127
74846,note_off,72,0,0,,10,,,81,127
74846,note_on,0,0,0,,7,,,79,127
74918,note_off,72,0,0,,7,,,79,127
74918,note_on,0,0,0,,10,,,81,127
74990,note_off,72,0,0,,10,,,81,127
74990,note_on,0,0,0,,7,,,79,127
75062,note_off,72,0,0,,7,,,67,127
75062,note_off,0,0,0,,2,,,62,127
75086,note_on,24,0,0,,3,,,63,127
75086,note_on,0,0,0,,0,,,60,127
75086,note_on,0,0,0,,10,,,69,127
75086,note_on,0,0,0,,7,,,67,127
75170,note_off,84,0,0,,7,,,79,127
75374,note_on,204,0,0,,2,,,86,127
75662,note_off,288,0,0,,2,,,86,127
75662,note_off,0,0,0,,7,,,67,127
75662,note_off,0,0,0,,10,,,69,127
75662,note_off,0,0,0,,0,,,60,127
75662,note_off,0,0,0,,3,,,63,127
75662,note_on,0,0,0,,10,,,69,127
75662,note_on,0,0,0,,4,,,64,127
75662,note_on,0,0,0,,7,,,67,127
75662,note_on,0,0,0,,1,,,61,127
75662,note_on,0,0,0,,1,,,85,127
75950,note_off,288,0,0,,1,,,85,127
75950,note_on,0,0,0,,11,,,82,127
76238,note_off,288,0,0,,11,,,82,127
76238,note_off,0,0,0,,1,,,61,127
76238,note_off,0,0,0,,7,,,67,127
76238,note_off,0,0,0,,4,,,64,127
76238,note_off,0,0,0,,10,,,69,127
76238,note_on,0,0,0,,1,,,61,127
76238,note_on,0,0,0,,7,,,67,127
76238,note_on,0,0,0,,4,,,64,127
76238,note_on,0,0,0,,10,,,69,127
76238,note_on,0,0,0,,7,,,79,127
76526,note_off,288,0,0,,7,,,79,127
76526,note_on,0,0,0,,4,,,76,127
76814,note_off,288,0,0,,4,,,76,127
76814,note_off,0,0,0,,10,,,69,127
76814,note_off,0,0,0,,4,,,64,127
76814,note_off,0,0,0,,7,,,67,127
76814,note_off,0,0,0,,1,,,61,127
76814,note_on,0,0,0,,2,,,62,127
76814,note_on,0,0,0,,10,,,69,127
76814,note_on,0,0,0,,5,,,65,127
76814,note_on,0,0,0,,7,,,79,127
76886,note_off,72,0,0,,7,,,79,127
76886,note_on,0,0,0,,5,,,77,127
76958,note_off,72,0,0,,5,,,77,127
76958,note_on,0,0,0,,7,,,79,127
77030,note_off,72,0,0,,7,,,79,127
77030,note_on,0,0,0,,5,,,77,127
77102,note_on,72,0,0,,7,,,79,127
77138,note_off,36,0,0,,5,,,77,127
77174,note_off,36,0,0,,7,,,79,127
77174,note_on,0,0,0,,5,,,77,127
77246,note_off,72,0,0,,5,,,77,127
77246,note_on,0,0,0,,4,,,76,127
77318,note_on,72,0,0,,5,,,77,127
77354,note_off,36,0,0,,4,,,76,127
77390,note_off,36,0,0,,5,,,77,127
77390,note_off,0,0,0,,5,,,65,127
77390,note_off,0,0,0,,10,,,69,127
77390,note_off,0,0,0,,2,,,62,127
77390,note_on,0,0,0,,7,,,67,127
77390,note_on,0,0,0,,4,,,64,127
77390,note_on,0,0,0,,10,,,69,127
77390,note_on,0,0,0,,1,,,73,127
77390,note_on,0,0,0,,10,,,81,127
77462,note_off,72,0,0,,10,,,81,127
77462,note_on,0,0,0,,7,,,79,127
77534,note_off,72,0,0,,7,,,79,127
77534,note_on,0,0,0,,10,,,81,127
77606,note_on,72,0,0,,7,,,79,127
77642,note_off,36,0,0,,10,,,81,127
77678,note_off,36,0,0,,7,,,79,127
77678,note_on,0,0,0,,10,,,81,127
77750,note_on,72,0,0,,7,,,79,127
77786,note_off,36,0,0,,10,,,81,127
77822,note_on,36,0,0,,5,,,77,127
77858,note_off,36,0,0,,7,,,79,127
77894,note_on,36,0,0,,7,,,79,127
77930,note_off,36,0,0,,5,,,77,127
77966,note_off,36,0,0,,7,,,79,127
77966,note_off,0,0,0,,1,,,73,127
77966,note_off,0,0,0,,10,,,69,127
77966,note_off,0,0,0,,4,,,64,127
77966,note_off,0,0,0,,7,,,67,127
77966,note_on,0,0,0,,10,,,69,127
77966,note_on,0,0,0,,5,,,65,127
77966,note_on,0,0,0,,2,,,74,127
77966,note_on,0,0,0,,11,,,82,127
78038,note_off,72,0,0,,11,,,82,127
78038,note_on,0,0,0,,10,,,81,127
78110,note_off,72,0,0,,10,,,81,127
78110,note_on,0,0,0,,11,,,82,127
78182,note_off,72,0,0,,11,,,82,127
78182,note_on,0,0,0,,10,,,81,127
78254,note_on,72,0,0,,11,,,82,127
78290,note_off,36,0,0,,10,,,81,127
78326,note_on,36,0,0,,10,,,81,127
78362,note_off,36,0,0,,11,,,82,127
78398,note_on,36,0,0,,7,,,79,127
78434,note_off,36,0,0,,10,,,81,127
78470,note_off,36,0,0,,7,,,79,127
78470,note_on,0,0,0,,10,,,81,127
78542,note_off,72,0,0,,2,,,74,127
78542,note_off,0,0,0,,5,,,65,127
78542,note_off,0,0,0,,10,,,69,127
78542,note_on,0,0,0,,7,,,67,127
78542,note_on,0,0,0,,11,,,82,127
78564,note_off,22,0,0,,10,,,81,127
79118,note_on,554,0,0,,7,,,55,127
79262,note_off,144,0,0,,11,,,82,127
79262,note_on,0,0,0,,10,,,81,127
79406,note_off,144,0,0,,10,,,81,127
79406,note_on,0,0,0,,7,,,79,127
79550,note_off,144,0,0,,7,,,79,127
79550,note_on,0,0,0,,5,,,77,127
79694,note_off,144,0,0,,5,,,77,127
79694,note_off,0,0,0,,7,,,55,127
79694,note_off,0,0,0,,7,,,67,127
79694,note_on,0,0,0,,11,,,58,127
79694,note_on,0,0,0,,4,,,76,127
79838,note_off,144,0,0,,4,,,76,127
79838,note_on,0,0,0,,2,,,74,127
79982,note_off,144,0,0,,2,,,74,127
79982,note_on,0,0,0,,1,,,73,127
80126,note_off,144,0,0,,1,,,73,127
80126,note_on,0,0,0,,2,,,74,127
80270,note_off,144,0,0,,2,,,74,127
80270,note_off,0,0,0,,11,,,58,127
80270,note_on,0,0,0,,10,,,45,127
80270,note_on,0,0,0,,10,,,57,127
80270,note_on,0,0,0,,2,,,74,127
80342,note_off,72,0,0,,2,,,74,127
80342,note_on,0,0,0,,1,,,73,127
80414,note_off,72,0,0,,1,,,73,127
80414,note_on,0,0,0,,2,,,74,127
80486,note_off,72,0,0,,2,,,74,127
80486,note_on,0,0,0,,1,,,73,127
80558,note_off,72,0,0,,1,,,73,127
80558,note_on,0,0,0,,2,,,74,127
80630,note_off,72,0,0,,2,,,74,127
80630,note_on,0,0,0,,1,,,73,127
80702,note_off,72,0,0,,1,,,73,127
80702,note_on,0,0,0,,2,,,74,127
80774,note_off,72,0,0,,2,,,74,127
80774,note_on,0,0,0,,1,,,73,127
80846,note_off,72,0,0,,1,,,73,127
80846,note_on,0,0,0,,2,,,74,127
80918,note_off,72,0,0,,2,,,74,127
80918,note_on,0,0,0,,1,,,73,127
80990,note_off,72,0,0,,1,,,73,127
80990,note_on,0,0,0,,2,,,74,127
81062,note_off,72,0,0,,2,,,74,127
81062,note_on,0,0,0,,1,,,73,127
81134,note_off,72,0,0,,1,,,73,127
81134,note_on,0,0,0,,12,,,71,127
81422,note_off,288,0,0,,12,,,71,127
81422,note_on,0,0,0,,10,,,69,127
81917,note_off,495,0,0,,10,,,69,127
81998,note_off,81,0,0,,10,,,57,127
81998,note_off,0,0,0,,10,,,45,127
82034,note_on,36,0,0,,10,,,81,127
82034,note_on,0,0,0,,10,,,45,127
82394,note_off,360,0,0,,10,,,81,127
82394,note_on,0,0,0,,4,,,76,127
82394,note_on,0,0,0,,1,,,49,127
82430,note_off,36,0,0,,10,,,45,127
82466,note_off,36,0,0,,1,,,49,127
82466,note_off,0,0,0,,4,,,76,127
82466,note_on,0,0,0,,1,,,73,127
82466,note_on,0,0,0,,4,,,52,127
82538,note_off,72,0,0,,4,,,52,127
82538,note_off,0,0,0,,1,,,73,127
82538,note_on,0,0,0,,10,,,69,127
82538,note_on,0,0,0,,10,,,57,127
82610,note_off,72,0,0,,10,,,57,127
82610,note_off,0,0,0,,10,,,69,127
82610,note_on,0,0,0,,4,,,64,127
82610,note_on,0,0,0,,1,,,61,127
83186,note_off,576,0,0,,1,,,61,127
83186,note_off,0,0,0,,4,,,64,127
83186,note_on,0,0,0,,5,,,65,127
83186,note_on,0,0,0,,1,,,61,127
83258,note_off,72,0,0,,5,,,65,127
83258,note_on,0,0,0,,4,,,64,127
83330,note_off,72,0,0,,4,,,64,127
83330,note_on,0,0,0,,5,,,65,127
83402,note_off,72,0,0,,5,,,65,127
83402,note_on,0,0,0,,4,,,64,127
83474,note_off,72,0,0,,4,,,64,127
83474,note_on,0,0,0,,5,,,65,127
83546,note_off,72,0,0,,5,,,65,127
83546,note_on,0,0,0,,4,,,64,127
83618,note_off,72,0,0,,4,,,64,127
83618,note_on,0,0,0,,5,,,65,127
83690,note_off,72,0,0,,5,,,65,127
83690,note_on,0,0,0,,4,,,64,127
83762,note_off,72,0,0,,4,,,64,127
83762,note_off,0,0,0,,1,,,61,127
83777,note_on,15,0,0,,11,,,82,127
83777,note_on,0,0,0,,7,,,43,127
84137,note_off,360,0,0,,11,,,82,127
84137,note_on,0,0,0,,7,,,79,127
84137,note_on,0,0,0,,1,,,49,127
84173,note_off,36,0,0,,7,,,43,127
84209,note_off,36,0,0,,7,,,79,127
84209,note_on,0,0,0,,4,,,76,127
84209,note_on,0,0,0,,4,,,52,127
84245,note_off,36,0,0,,1,,,49,127
84281,note_off,36,0,0,,4,,,52,127
84281,note_off,0,0,0,,4,,,76,127
84281,note_on,0,0,0,,1,,,73,127
84281,note_on,0,0,0,,7,,,55,127
84353,note_off,72,0,0,,7,,,55,127
84353,note_off,0,0,0,,1,,,73,127
84353,note_on,0,0,0,,4,,,64,127
84353,note_on,0,0,0,,1,,,61,127
84929,note_off,576,0,0,,1,,,61,127
84929,note_off,0,0,0,,4,,,64,127
84929,note_on,0,0,0,,5,,,65,127
84929,note_on,0,0,0,,1,,,61,127
85001,note_off,72,0,0,,5,,,65,127
85001,note_on,0,0,0,,4,,,64,127
85073,note_off,72,0,0,,4,,,64,127
85073,note_on,0,0,0,,5,,,65,127
85145,note_off,72,0,0,,5,,,65,127
85145,note_on,0,0,0,,4,,,64,127
85217,note_off,72,0,0,,4,,,64,127
85217,note_on,0,0,0,,5,,,65,127
85289,note_off,72,0,0,,5,,,65,127
85289,note_on,0,0,0,,4,,,64,127
85361,note_off,72,0,0,,4,,,64,127
85361,note_on,0,0,0,,5,,,65,127
85433,note_off,72,0,0,,5,,,65,127
85433,note_on,0,0,0,,4,,,64,127
85505,note_off,72,0,0,,4,,,64,127
85505,note_off,0,0,0,,1,,,61,127
85520,note_on,15,0,0,,10,,,81,127
85520,note_on,0,0,0,,5,,,41,127
85880,note_off,360,0,0,,5,,,41,127
85880,note_off,0,0,0,,10,,,81,127
85880,note_on,0,0,0,,5,,,77,127
85880,note_on,0,0,0,,10,,,45,127
85952,note_off,72,0,0,,5,,,77,127
85952,note_on,0,0,0,,2,,,74,127
85952,note_on,0,0,0,,2,,,50,127
85988,note_off,36,0,0,,10,,,45,127
86024,note_off,36,0,0,,2,,,50,127
86024,note_off,0,0,0,,2,,,74,127
86024,note_on,0,0,0,,10,,,69,127
86024,note_on,0,0,0,,5,,,53,127
86096,note_off,72,0,0,,5,,,53,127
86096,note_off,0,0,0,,10,,,69,127
86096,note_on,0,0,0,,5,,,65,127
86096,note_on,0,0,0,,2,,,62,127
86672,note_off,576,0,0,,2,,,62,127
86672,note_off,0,0,0,,5,,,65,127
86672,note_on,0,0,0,,7,,,67,127
86672,note_on,0,0,0,,2,,,62,127
86744,note_off,72,0,0,,7,,,67,127
86744,note_on,0,0,0,,5,,,65,127
86816,note_off,72,0,0,,5,,,65,127
86816,note_on,0,0,0,,7,,,67,127
86888,note_off,72,0,0,,7,,,67,127
86888,note_on,0,0,0,,5,,,65,127
86960,note_off,72,0,0,,5,,,65,127
86960,note_on,0,0,0,,7,,,67,127
87032,note_off,72,0,0,,7,,,67,127
87032,note_on,0,0,0,,5,,,65,127
87104,note_off,72,0,0,,5,,,65,127
87104,note_on,0,0,0,,7,,,67,127
87176,note_off,72,0,0,,7,,,67,127
87176,note_on,0,0,0,,5,,,65,127
87248,note_off,72,0,0,,5,,,65,127
87248,note_off,0,0,0,,2,,,62,127
87272,note_on,24,0,0,,4,,,40,127
87272,note_on,0,0,0,,7,,,79,127
87632,note_off,360,0,0,,7,,,79,127
87632,note_off,0,0,0,,4,,,40,127
87632,note_on,0,0,0,,7,,,43,127
87632,note_on,0,0,0,,4,,,76,127
87704,note_off,72,0,0,,4,,,76,127
87704,note_off,0,0,0,,7,,,43,127
87704,note_on,0,0,0,,1,,,49,127
87704,note_on,0,0,0,,1,,,73,127
87776,note_off,72,0,0,,1,,,73,127
87776,note_off,0,0,0,,1,,,49,127
87776,note_on,0,0,0,,4,,,52,127
87776,note_on,0,0,0,,7,,,67,127
87848,note_off,72,0,0,,7,,,67,127
87848,note_off,0,0,0,,4,,,52,127
87848,note_on,0,0,0,,1,,,61,127
87848,note_on,0,0,0,,4,,,64,127
88424,note_off,576,0,0,,4,,,64,127
88424,note_off,0,0,0,,1,,,61,127
88424,note_on,0,0,0,,1,,,61,127
88424,note_on,0,0,0,,5,,,65,127
88496,note_off,72,0,0,,5,,,65,127
88496,note_on,0,0,0,,4,,,64,127
88568,note_off,72,0,0,,4,,,64,127
88568,note_on,0,0,0,,5,,,65,127
88640,note_off,72,0,0,,5,,,65,127
88640,note_on,0,0,0,,4,,,64,127
88712,note_off,72,0,0,,4,,,64,127
88712,note_on,0,0,0,,5,,,65,127
88784,note_off,72,0,0,,5,,,65,127
88784,note_on,0,0,0,,4,,,64,127
88856,note_off,72,0,0,,4,,,64,127
88856,note_on,0,0,0,,5,,,65,127
88928,note_off,72,0,0,,5,,,65,127
88928,note_on,0,0,0,,4,,,64,127
89000,note_off,72,0,0,,4,,,64,127
89000,note_off,0,0,0,,1,,,61,127
89000,note_on,0,0,0,,2,,,62,127
89000,note_on,0,0,0,,2,,,50,127
89000,note_on,0,0,0,,7,,,67,127
89072,note_off,72,0,0,,7,,,67,127
89072,note_on,0,0,0,,5,,,65,127
89144,note_off,72,0,0,,5,,,65,127
89144,note_on,0,0,0,,7,,,67,127
89216,note_off,72,0,0,,7,,,67,127
89216,note_on,0,0,0,,5,,,65,127
89288,note_off,72,0,0,,5,,,65,127
89288,note_on,0,0,0,,7,,,67,127
89360,note_off,72,0,0,,7,,,67,127
89360,note_on,0,0,0,,5,,,65,127
89432,note_off,72,0,0,,5,,,65,127
89432,note_on,0,0,0,,7,,,67,127
89504,note_off,72,0,0,,7,,,67,127
89504,note_on,0,0,0,,5,,,65,127
89576,note_off,72,0,0,,5,,,65,127
89576,note_off,0,0,0,,2,,,50,127
89576,note_off,0,0,0,,2,,,62,127
89576,note_on,0,0,0,,2,,,50,127
89576,note_on,0,0,0,,10,,,57,127
89576,note_on,0,0,0,,7,,,67,127
89648,note_off,72,0,0,,7,,,67,127
89648,note_on,0,0,0,,5,,,65,127
89720,note_off,72,0,0,,5,,,65,127
89720,note_on,0,0,0,,7,,,67,127
89792,note_off,72,0,0,,7,,,67,127
89792,note_on,0,0,0,,5,,,65,127
89864,note_off,72,0,0,,5,,,65,127
89864,note_on,0,0,0,,4,,,64,127
90008,note_off,144,0,0,,4,,,64,127
90008,note_on,0,0,0,,2,,,62,127
90152,note_off,144,0,0,,2,,,62,127
90152,note_off,0,0,0,,10,,,57,127
90152,note_off,0,0,0,,2,,,50,127
90166,note_on,14,0,0,,2,,,62,127
90166,note_on,0,0,0,,10,,,57,127
90166,note_on,0,0,0,,2,,,50,127
90646,note_off,480,0,0,,2,,,62,127
90796,note_off,150,0,0,,2,,,50,127
90796,note_off,0,0,0,,10,,,57,127
90812,note_on,16,0,0,,7,,,55,127
90812,note_on,0,0,0,,2,,,50,127
90812,note_on,0,0,0,,0,,,60,127
90812,note_on,0,0,0,,10,,,57,127
90956,note_on,144,0,0,,3,,,63,127
91040,note_on,84,0,0,,6,,,66,127
91058,note_off,18,0,0,,3,,,63,127
91122,note_on,64,0,0,,10,,,69,127
91142,note_off,20,0,0,,6,,,66,127
91208,note_on,66,0,0,,0,,,72,127
91224,note_off,16,0,0,,10,,,69,127
91290,note_on,66,0,0,,3,,,75,127
91310,note_off,20,0,0,,0,,,72,127
91380,note_off,70,0,0,,3,,,75,127
91410,note_off,30,0,0,,10,,,57,127
91410,note_off,0,0,0,,0,,,60,127
91410,note_off,0,0,0,,2,,,50,127
91410,note_off,0,0,0,,7,,,55,127
91410,note_on,0,0,0,,7,,,55,127
91410,note_on,0,0,0,,2,,,50,127
91410,note_on,0,0,0,,0,,,60,127
91410,note_on,0,0,0,,10,,,57,127
91410,note_on,0,0,0,,3,,,75,127
91980,note_off,570,0,0,,3,,,75,127
92049,note_off,69,0,0,,10,,,57,127
92049,note_off,0,0,0,,0,,,60,127
92049,note_off,0,0,0,,2,,,50,127
92049,note_off,0,0,0,,7,,,55,127
92059,note_on,10,0,0,,7,,,55,127
92059,note_on,0,0,0,,10,,,57,127
92059,note_on,0,0,0,,0,,,60,127
92059,note_on,0,0,0,,2,,,50,127
92125,note_on,66,0,0,,2,,,74,127
92197,note_off,72,0,0,,2,,,74,127
92215,note_on,18,0,0,,0,,,72,127
92287,note_off,72,0,0,,0,,,72,127
92287,note_on,0,0,0,,11,,,70,127
92359,note_off,72,0,0,,11,,,70,127
92398,note_on,39,0,0,,10,,,69,127
92470,note_off,72,0,0,,10,,,69,127
92490,note_on,20,0,0,,7,,,67,127
92562,note_off,72,0,0,,7,,,67,127
92596,note_on,34,0,0,,6,,,66,127
92689,note_off,93,0,0,,6,,,66,127
92689,note_off,0,0,0,,2,,,50,127
92689,note_off,0,0,0,,0,,,60,127
92689,note_off,0,0,0,,10,,,57,127
92689,note_off,0,0,0,,7,,,55,127
92710,note_on,21,0,0,,11,,,58,127
92710,note_on,0,0,0,,2,,,62,127
92710,note_on,0,0,0,,6,,,66,127
93007,note_on,297,0,0,,7,,,67,127
93011,note_off,4,0,0,,6,,,66,127
93295,note_off,284,0,0,,11,,,58,127
93303,note_off,8,0,0,,2,,,62,127
93307,note_on,4,0,0,,11,,,58,127
93307,note_on,0,0,0,,2,,,62,127
93697,note_off,390,0,0,,7,,,67,127
93765,note_on,68,0,0,,2,,,74,127
93889,note_off,124,0,0,,2,,,62,127
93889,note_off,0,0,0,,11,,,58,127
93913,note_off,24,0,0,,2,,,74,127
93917,note_on,4,0,0,,2,,,62,127
93917,note_on,0,0,0,,11,,,58,127
93917,note_on,0,0,0,,0,,,72,127
94065,note_off,148,0,0,,0,,,72,127
94067,note_on,2,0,0,,11,,,70,127
94215,note_off,148,0,0,,11,,,70,127
94217,note_on,2,0,0,,10,,,69,127
94365,note_off,148,0,0,,10,,,69,127
94367,note_on,2,0,0,,7,,,67,127
94515,note_off,148,0,0,,7,,,67,127
94515,note_off,0,0,0,,11,,,58,127
94515,note_off,0,0,0,,2,,,62,127
94517,note_on,2,0,0,,8,,,56,127
94517,note_on,0,0,0,,0,,,60,127
94517,note_on,0,0,0,,7,,,67,127
94891,note_off,374,0,0,,7,,,67,127
94909,note_on,18,0,0,,5,,,65,127
94983,note_off,74,0,0,,5,,,65,127
94985,note_on,2,0,0,,8,,,68,127
95059,note_off,74,0,0,,8,,,68,127
95061,note_on,2,0,0,,12,,,71,127
95119,note_off,58,0,0,,12,,,71,127
95134,note_off,15,0,0,,0,,,60,127
95134,note_off,0,0,0,,8,,,56,127
95143,note_on,9,0,0,,12,,,71,127
95143,note_on,0,0,0,,8,,,56,127
95143,note_on,0,0,0,,0,,,60,127
95217,note_off,74,0,0,,12,,,71,127
95233,note_on,16,0,0,,2,,,74,127
95323,note_on,90,0,0,,5,,,77,127
95326,note_off,3,0,0,,2,,,74,127
95414,note_on,88,0,0,,8,,,80,127
95416,note_off,2,0,0,,5,,,77,127
95742,note_off,326,0,0,,0,,,60,127
95742,note_off,0,0,0,,8,,,56,127
95774,note_on,32,0,0,,8,,,56,127
95774,note_on,0,0,0,,0,,,60,127
95818,note_off,44,0,0,,8,,,80,127
95857,note_on,39,0,0,,7,,,79,127
95931,note_off,74,0,0,,7,,,79,127
95934,note_on,3,0,0,,5,,,77,127
96008,note_off,74,0,0,,5,,,77,127
96011,note_on,3,0,0,,3,,,75,127
96085,note_off,74,0,0,,3,,,75,127
96088,note_on,3,0,0,,2,,,74,127
96162,note_off,74,0,0,,2,,,74,127
96165,note_on,3,0,0,,0,,,72,127
96239,note_off,74,0,0,,0,,,72,127
96242,note_on,3,0,0,,12,,,71,127
96316,note_off,74,0,0,,12,,,71,127
96319,note_on,3,0,0,,0,,,72,127
96376,note_off,57,0,0,,0,,,60,127
96376,note_off,0,0,0,,8,,,56,127
96392,note_off,16,0,0,,0,,,72,127
96392,note_on,0,0,0,,7,,,55,127
96392,note_on,0,0,0,,2,,,74,127
96460,note_off,68,0,0,,2,,,74,127
96463,note_on,3,0,0,,0,,,72,127
96531,note_off,68,0,0,,0,,,72,127
96533,note_on,2,0,0,,2,,,74,127
96601,note_off,68,0,0,,2,,,74,127
96604,note_on,3,0,0,,0,,,72,127
96672,note_off,68,0,0,,0,,,72,127
96675,note_on,3,0,0,,2,,,74,127
96743,note_off,68,0,0,,2,,,74,127
96746,note_on,3,0,0,,0,,,72,127
96814,note_off,68,0,0,,0,,,72,127
96814,note_on,0,0,0,,2,,,74,127
96882,note_off,68,0,0,,2,,,74,127
96885,note_on,3,0,0,,0,,,72,127
96953,note_off,68,0,0,,0,,,72,127
96956,note_on,3,0,0,,12,,,71,127
97024,note_off,68,0,0,,12,,,71,127
97026,note_on,2,0,0,,0,,,72,127
97094,note_off,68,0,0,,0,,,72,127
97097,note_on,3,0,0,,7,,,43,127
97097,note_on,0,0,0,,12,,,71,127
97853,note_off,756,0,0,,7,,,55,127
97997,note_off,144,0,0,,12,,,71,127
98252,note_off,255,0,0,,7,,,43,127
98514,note_on,262,0,0,,0,,,84,127
98514,note_on,0,0,0,,0,,,48,127
98874,note_off,360,0,0,,0,,,48,127
98874,note_off,0,0,0,,0,,,84,127
98874,note_on,0,0,0,,7,,,79,127
98874,note_on,0,0,0,,3,,,51,127
98946,note_off,72,0,0,,3,,,51,127
98946,note_off,0,0,0,,7,,,79,127
98946,note_on,0,0,0,,3,,,75,127
98946,note_on,0,0,0,,7,,,55,127
99018,note_off,72,0,0,,7,,,55,127
99018,note_off,0,0,0,,3,,,75,127
99018,note_on,0,0,0,,0,,,72,127
99018,note_on,0,0,0,,0,,,60,127
99090,note_off,72,0,0,,0,,,60,127
99090,note_off,0,0,0,,0,,,72,127
99090,note_on,0,0,0,,7,,,67,127
99090,note_on,0,0,0,,3,,,63,127
99666,note_off,576,0,0,,3,,,63,127
99666,note_off,0,0,0,,7,,,67,127
99666,note_on,0,0,0,,8,,,68,127
99666,note_on,0,0,0,,3,,,63,127
99738,note_off,72,0,0,,8,,,68,127
99738,note_on,0,0,0,,7,,,67,127
99810,note_off,72,0,0,,7,,,67,127
99810,note_on,0,0,0,,8,,,68,127
99882,note_off,72,0,0,,8,,,68,127
99882,note_on,0,0,0,,7,,,67,127
99954,note_off,72,0,0,,7,,,67,127
99954,note_on,0,0,0,,8,,,68,127
100026,note_off,72,0,0,,8,,,68,127
100026,note_on,0,0,0,,7,,,67,127
100098,note_off,72,0,0,,7,,,67,127
100098,note_on,0,0,0,,8,,,68,127
100170,note_off,72,0,0,,8,,,68,127
100170,note_on,0,0,0,,7,,,67,127
100242,note_off,72,0,0,,7,,,67,127
100242,note_off,0,0,0,,3,,,63,127
100266,note_on,24,0,0,,0,,,48,127
100266,note_on,0,0,0,,0,,,84,127
100626,note_off,360,0,0,,0,,,84,127
100626,note_off,0,0,0,,0,,,48,127
100626,note_on,0,0,0,,5,,,53,127
100626,note_on,0,0,0,,8,,,80,127
100698,note_off,72,0,0,,8,,,80,127
100698,note_off,0,0,0,,5,,,53,127
100698,note_on,0,0,0,,8,,,56,127
100698,note_on,0,0,0,,5,,,77,127
100770,note_off,72,0,0,,5,,,77,127
100770,note_off,0,0,0,,8,,,56,127
100770,note_on,0,0,0,,0,,,60,127
100770,note_on,0,0,0,,0,,,72,127
100842,note_off,72,0,0,,0,,,72,127
100842,note_off,0,0,0,,0,,,60,127
100842,note_on,0,0,0,,5,,,65,127
100842,note_on,0,0,0,,8,,,68,127
101418,note_off,576,0,0,,8,,,68,127
101418,note_off,0,0,0,,5,,,65,127
101418,note_on,0,0,0,,5,,,65,127
101418,note_on,0,0,0,,11,,,70,127
101490,note_off,72,0,0,,11,,,70,127
101490,note_on,0,0,0,,8,,,68,127
101562,note_off,72,0,0,,8,,,68,127
101562,note_on,0,0,0,,11,,,70,127
101634,note_off,72,0,0,,11,,,70,127
101634,note_on,0,0,0,,8,,,68,127
101706,note_off,72,0,0,,8,,,68,127
101706,note_on,0,0,0,,11,,,70,127
101778,note_off,72,0,0,,11,,,70,127
101778,note_on,0,0,0,,8,,,68,127
101850,note_off,72,0,0,,8,,,68,127
101850,note_on,0,0,0,,11,,,70,127
101922,note_off,72,0,0,,11,,,70,127
101922,note_on,0,0,0,,8,,,68,127
101994,note_off,72,0,0,,8,,,68,127
101994,note_off,0,0,0,,5,,,65,127
102018,note_on,24,0,0,,0,,,84,127
102018,note_on,0,0,0,,0,,,48,127
102378,note_off,360,0,0,,0,,,48,127
102378,note_off,0,0,0,,0,,,84,127
102378,note_on,0,0,0,,7,,,79,127
102378,note_on,0,0,0,,3,,,51,127
102450,note_off,72,0,0,,3,,,51,127
102450,note_off,0,0,0,,7,,,79,127
102450,note_on,0,0,0,,3,,,75,127
102450,note_on,0,0,0,,7,,,55,127
102522,note_off,72,0,0,,7,,,55,127
102522,note_off,0,0,0,,3,,,75,127
102522,note_on,0,0,0,,0,,,72,127
102522,note_on,0,0,0,,0,,,60,127
102594,note_off,72,0,0,,0,,,60,127
102594,note_off,0,0,0,,0,,,72,127
102594,note_on,0,0,0,,7,,,67,127
102594,note_on,0,0,0,,3,,,63,127
103170,note_off,576,0,0,,3,,,63,127
103170,note_off,0,0,0,,7,,,67,127
103170,note_on,0,0,0,,8,,,68,127
103170,note_on,0,0,0,,3,,,63,127
103242,note_off,72,0,0,,8,,,68,127
103242,note_on,0,0,0,,7,,,67,127
103314,note_off,72,0,0,,7,,,67,127
103314,note_on,0,0,0,,8,,,68,127
103386,note_off,72,0,0,,8,,,68,127
103386,note_on,0,0,0,,7,,,67,127
103458,note_off,72,0,0,,7,,,67,127
103458,note_on,0,0,0,,8,,,68,127
103530,note_off,72,0,0,,8,,,68,127
103530,note_on,0,0,0,,7,,,67,127
103602,note_off,72,0,0,,7,,,67,127
103602,note_on,0,0,0,,8,,,68,127
103674,note_off,72,0,0,,8,,,68,127
103674,note_on,0,0,0,,7,,,67,127
103746,note_off,72,0,0,,7,,,67,127
103746,note_off,0,0,0,,3,,,63,127
103746,note_on,0,0,0,,8,,,68,127
103746,note_on,0,0,0,,0,,,60,127
103746,note_on,0,0,0,,5,,,53,127
103746,note_on,0,0,0,,8,,,56,127
103890,note_off,144,0,0,,8,,,68,127
103890,note_on,0,0,0,,7,,,67,127
104034,note_off,144,0,0,,7,,,67,127
104034,note_on,0,0,0,,0,,,72,127
104178,note_off,144,0,0,,0,,,72,127
104178,note_on,0,0,0,,12,,,71,127
104322,note_off,144,0,0,,12,,,71,127
104322,note_off,0,0,0,,8,,,56,127
104322,note_off,0,0,0,,5,,,53,127
104322,note_off,0,0,0,,0,,,60,127
104322,note_on,0,0,0,,3,,,75,127
104322,note_on,0,0,0,,0,,,60,127
104322,note_on,0,0,0,,5,,,53,127
104322,note_on,0,0,0,,8,,,56,127
104466,note_off,144,0,0,,3,,,75,127
104466,note_on,0,0,0,,2,,,74,127
104610,note_off,144,0,0,,2,,,74,127
104610,note_on,0,0,0,,5,,,77,127
104754,note_off,144,0,0,,5,,,77,127
104754,note_on,0,0,0,,3,,,75,127
104898,note_off,144,0,0,,3,,,75,127
104898,note_off,0,0,0,,8,,,56,127
104898,note_off,0,0,0,,5,,,53,127
104898,note_off,0,0,0,,0,,,60,127
104898,note_on,0,0,0,,7,,,79,127
104898,note_on,0,0,0,,0,,,60,127
104898,note_on,0,0,0,,5,,,53,127
104898,note_on,0,0,0,,8,,,56,127
105042,note_off,144,0,0,,7,,,79,127
105042,note_on,0,0,0,,5,,,77,127
105186,note_off,144,0,0,,5,,,77,127
105186,note_on,0,0,0,,8,,,80,127
105330,note_off,144,0,0,,8,,,80,127
105330,note_on,0,0,0,,7,,,79,127
105450,note_off,120,0,0,,7,,,79,127
105474,note_off,24,0,0,,8,,,56,127
105474,note_off,0,0,0,,5,,,53,127
105474,note_off,0,0,0,,0,,,60,127
105474,note_on,0,0,0,,8,,,68,127
105474,note_on,0,0,0,,0,,,60,127
105474,note_on,0,0,0,,3,,,51,127
105474,note_on,0,0,0,,7,,,55,127
105618,note_off,144,0,0,,8,,,68,127
105618,note_on,0,0,0,,7,,,67,127
105762,note_off,144,0,0,,7,,,67,127
105762,note_on,0,0,0,,0,,,72,127
105906,note_off,144,0,0,,0,,,72,127
105906,note_on,0,0,0,,12,,,71,127
106050,note_off,144,0,0,,12,,,71,127
106050,note_off,0,0,0,,7,,,55,127
106050,note_off,0,0,0,,3,,,51,127
106050,note_off,0,0,0,,0,,,60,127
106050,note_on,0,0,0,,3,,,75,127
106050,note_on,0,0,0,,7,,,55,127
106050,note_on,0,0,0,,0,,,60,127
106050,note_on,0,0,0,,3,,,51,127
106194,note_off,144,0,0,,3,,,75,127
106194,note_on,0,0,0,,2,,,74,127
106338,note_off,144,0,0,,2,,,74,127
106338,note_on,0,0,0,,5,,,77,127
106482,note_off,144,0,0,,5,,,77,127
106482,note_on,0,0,0,,3,,,75,127
106626,note_off,144,0,0,,3,,,75,127
106626,note_off,0,0,0,,3,,,51,127
106626,note_off,0,0,0,,0,,,60,127
106626,note_off,0,0,0,,7,,,55,127
106626,note_on,0,0,0,,7,,,79,127
106626,note_on,0,0,0,,7,,,55,127
106626,note_on,0,0,0,,0,,,60,127
106626,note_on,0,0,0,,3,,,51,127
106770,note_off,144,0,0,,7,,,79,127
106770,note_on,0,0,0,,5,,,77,127
106914,note_off,144,0,0,,5,,,77,127
106914,note_on,0,0,0,,8,,,80,127
107058,note_off,144,0,0,,8,,,80,127
107058,note_on,0,0,0,,7,,,79,127
107178,note_off,120,0,0,,7,,,79,127
107202,note_off,24,0,0,,3,,,51,127
107202,note_off,0,0,0,,0,,,60,127
107202,note_off,0,0,0,,7,,,55,127
107202,note_on,0,0,0,,7,,,67,127
107202,note_on,0,0,0,,0,,,60,127
107202,note_on,0,0,0,,8,,,56,127
107202,note_on,0,0,0,,2,,,50,127
107202,note_on,0,0,0,,5,,,53,127
107346,note_off,144,0,0,,7,,,67,127
107346,note_on,0,0,0,,5,,,65,127
107490,note_off,144,0,0,,5,,,65,127
107490,note_on,0,0,0,,8,,,68,127
107634,note_off,144,0,0,,8,,,68,127
107634,note_on,0,0,0,,7,,,67,127
107778,note_off,144,0,0,,7,,,67,127
107778,note_off,0,0,0,,5,,,53,127
107778,note_off,0,0,0,,2,,,50,127
107778,note_off,0,0,0,,8,,,56,127
107778,note_off,0,0,0,,0,,,60,127
107778,note_on,0,0,0,,0,,,72,127
107778,note_on,0,0,0,,8,,,56,127
107778,note_on,0,0,0,,0,,,60,127
107778,note_on,0,0,0,,5,,,53,127
107778,note_on,0,0,0,,2,,,50,127
107922,note_off,144,0,0,,0,,,72,127
107922,note_on,0,0,0,,12,,,71,127
108066,note_off,144,0,0,,12,,,71,127
108066,note_on,0,0,0,,3,,,75,127
108210,note_off,144,0,0,,3,,,75,127
108210,note_on,0,0,0,,2,,,74,127
108354,note_off,144,0,0,,2,,,74,127
108354,note_off,0,0,0,,2,,,50,127
108354,note_off,0,0,0,,5,,,53,127
108354,note_off,0,0,0,,0,,,60,127
108354,note_off,0,0,0,,8,,,56,127
108354,note_on,0,0,0,,5,,,77,127
108354,note_on,0,0,0,,12,,,59,127
108354,note_on,0,0,0,,7,,,55,127
108354,note_on,0,0,0,,2,,,62,127
108354,note_on,0,0,0,,0,,,60,127
108498,note_off,144,0,0,,5,,,77,127
108498,note_on,0,0,0,,3,,,75,127
108642,note_off,144,0,0,,3,,,75,127
108642,note_on,0,0,0,,7,,,79,127
108786,note_off,144,0,0,,7,,,79,127
108786,note_on,0,0,0,,5,,,77,127
108930,note_off,144,0,0,,5,,,77,127
108930,note_off,0,0,0,,0,,,60,127
108930,note_off,0,0,0,,2,,,62,127
108930,note_off,0,0,0,,7,,,55,127
108930,note_off,0,0,0,,12,,,59,127
108930,note_on,0,0,0,,5,,,77,127
108930,note_on,0,0,0,,0,,,60,127
109002,note_off,72,0,0,,5,,,77,127
109002,note_on,0,0,0,,3,,,75,127
109074,note_off,72,0,0,,3,,,75,127
109074,note_on,0,0,0,,5,,,77,127
109146,note_off,72,0,0,,5,,,77,127
109146,note_on,0,0,0,,3,,,75,127
109218,note_off,72,0,0,,3,,,75,127
109218,note_on,0,0,0,,5,,,77,127
109290,note_off,72,0,0,,5,,,77,127
109290,note_on,0,0,0,,3,,,75,127
109362,note_off,72,0,0,,3,,,75,127
109362,note_on,0,0,0,,5,,,77,127
109434,note_off,72,0,0,,5,,,77,127
109434,note_on,0,0,0,,3,,,75,127
109506,note_off,72,0,0,,3,,,75,127
109506,note_on,0,0,0,,5,,,77,127
109506,note_on,0,0,0,,0,,,48,127
109578,note_off,72,0,0,,5,,,77,127
109578,note_on,0,0,0,,3,,,75,127
109650,note_off,72,0,0,,3,,,75,127
109650,note_on,0,0,0,,5,,,77,127
109722,note_off,72,0,0,,5,,,77,127
109722,note_on,0,0,0,,3,,,75,127
109794,note_off,72,0,0,,3,,,75,127
109794,note_on,0,0,0,,2,,,74,127
110082,note_off,288,0,0,,2,,,74,127
110082,note_on,0,0,0,,0,,,72,127
110556,note_off,474,0,0,,0,,,48,127
110637,note_off,81,0,0,,0,,,72,127
110655,note_off,18,0,0,,0,,,60,127
110682,note_on,27,0,0,,8,,,68,127
110682,note_on,0,0,0,,5,,,65,127
110682,note_on,0,0,0,,0,,,72,127
111114,note_on,432,0,0,,0,,,84,127
111186,note_off,72,0,0,,0,,,84,127
111186,note_on,0,0,0,,8,,,80,127
111258,note_off,72,0,0,,8,,,80,127
111258,note_off,0,0,0,,0,,,72,127
111258,note_off,0,0,0,,5,,,65,127
111258,note_off,0,0,0,,8,,,68,127
111258,note_on,0,0,0,,7,,,67,127
111258,note_on,0,0,0,,3,,,63,127
111258,note_on,0,0,0,,0,,,72,127
111258,note_on,0,0,0,,6,,,78,127
111690,note_off,432,0,0,,6,,,78,127
111690,note_on,0,0,0,,0,,,84,127
111762,note_off,72,0,0,,0,,,84,127
111762,note_on,0,0,0,,7,,,79,127
111834,note_off,72,0,0,,7,,,79,127
111834,note_off,0,0,0,,0,,,72,127
111834,note_off,0,0,0,,3,,,63,127
111834,note_off,0,0,0,,7,,,67,127
111834,note_on,0,0,0,,2,,,62,127
111834,note_on,0,0,0,,12,,,71,127
111834,note_on,0,0,0,,7,,,67,127
111834,note_on,0,0,0,,5,,,65,127
111834,note_on,0,0,0,,4,,,76,127
112266,note_off,432,0,0,,4,,,76,127
112266,note_on,0,0,0,,0,,,84,127
112338,note_off,72,0,0,,0,,,84,127
112338,note_on,0,0,0,,5,,,77,127
112410,note_off,72,0,0,,5,,,77,127
112410,note_off,0,0,0,,5,,,65,127
112410,note_off,0,0,0,,7,,,67,127
112410,note_off,0,0,0,,12,,,71,127
112410,note_off,0,0,0,,2,,,62,127
112410,note_on,0,0,0,,0,,,60,127
112410,note_on,0,0,0,,3,,,75,127
112554,note_off,144,0,0,,3,,,75,127
112554,note_on,0,0,0,,2,,,74,127
112698,note_off,144,0,0,,2,,,74,127
112698,note_on,0,0,0,,0,,,72,127
112890,note_off,192,0,0,,0,,,72,127
112890,note_on,0,0,0,,8,,,80,127
112986,note_off,96,0,0,,8,,,80,127
112986,note_off,0,0,0,,0,,,60,127
112986,note_on,0,0,0,,3,,,63,127
112986,note_on,0,0,0,,0,,,60,127
112986,note_on,0,0,0,,7,,,55,127
112986,note_on,0,0,0,,0,,,72,127
113082,note_off,96,0,0,,0,,,72,127
113082,note_on,0,0,0,,2,,,74,127
113178,note_off,96,0,0,,2,,,74,127
113178,note_on,0,0,0,,0,,,72,127
113274,note_off,96,0,0,,0,,,72,127
113274,note_on,0,0,0,,12,,,71,127
113370,note_off,96,0,0,,12,,,71,127
113370,note_on,0,0,0,,0,,,72,127
113466,note_off,96,0,0,,0,,,72,127
113466,note_on,0,0,0,,2,,,74,127
113562,note_off,96,0,0,,2,,,74,127
113562,note_off,0,0,0,,7,,,55,127
113562,note_off,0,0,0,,0,,,60,127
113562,note_off,0,0,0,,3,,,63,127
113562,note_on,0,0,0,,7,,,55,127
113562,note_on,0,0,0,,2,,,62,127
113562,note_on,0,0,0,,3,,,75,127
113634,note_off,72,0,0,,3,,,75,127
113634,note_on,0,0,0,,2,,,74,127
113706,note_off,72,0,0,,2,,,74,127
113706,note_on,0,0,0,,3,,,75,127
113778,note_off,72,0,0,,3,,,75,127
113778,note_on,0,0,0,,2,,,74,127
113850,note_off,72,0,0,,2,,,74,127
113850,note_on,0,0,0,,3,,,75,127
113922,note_off,72,0,0,,3,,,75,127
113922,note_on,0,0,0,,2,,,74,127
113994,note_off,72,0,0,,2,,,74,127
113994,note_on,0,0,0,,3,,,75,127
114066,note_off,72,0,0,,3,,,75,127
114066,note_on,0,0,0,,2,,,74,127
114138,note_off,72,0,0,,2,,,74,127
114138,note_off,0,0,0,,2,,,62,127
114138,note_off,0,0,0,,7,,,55,127
114186,note_on,48,0,0,,5,,,53,127
114186,note_on,0,0,0,,0,,,60,127
114186,note_on,0,0,0,,8,,,56,127
114618,note_on,432,0,0,,0,,,72,127
114690,note_off,72,0,0,,0,,,72,127
114690,note_on,0,0,0,,8,,,68,127
114762,note_off,72,0,0,,8,,,68,127
114762,note_off,0,0,0,,8,,,56,127
114762,note_off,0,0,0,,0,,,60,127
114762,note_off,0,0,0,,5,,,53,127
114762,note_on,0,0,0,,0,,,60,127
114762,note_on,0,0,0,,7,,,55,127
114762,note_on,0,0,0,,3,,,51,127
114762,note_on,0,0,0,,6,,,66,127
115194,note_off,432,0,0,,6,,,66,127
115194,note_on,0,0,0,,0,,,72,127
115266,note_off,72,0,0,,0,,,72,127
115266,note_on,0,0,0,,7,,,67,127
115338,note_off,72,0,0,,7,,,67,127
115338,note_off,0,0,0,,3,,,51,127
115338,note_off,0,0,0,,7,,,55,127
115338,note_off,0,0,0,,0,,,60,127
115338,note_on,0,0,0,,2,,,50,127
115338,note_on,0,0,0,,12,,,59,127
115338,note_on,0,0,0,,8,,,56,127
115338,note_on,0,0,0,,7,,,55,127
115338,note_on,0,0,0,,4,,,64,127
115770,note_off,432,0,0,,4,,,64,127
115770,note_on,0,0,0,,0,,,72,127
115842,note_off,72,0,0,,0,,,72,127
115842,note_on,0,0,0,,5,,,65,127
115914,note_off,72,0,0,,5,,,65,127
115914,note_off,0,0,0,,7,,,55,127
115914,note_off,0,0,0,,8,,,56,127
115914,note_off,0,0,0,,12,,,59,127
115914,note_off,0,0,0,,2,,,50,127
115914,note_on,0,0,0,,0,,,48,127
115914,note_on,0,0,0,,7,,,55,127
115914,note_on,0,0,0,,0,,,60,127
115914,note_on,0,0,0,,3,,,63,127
116058,note_off,144,0,0,,3,,,63,127
116058,note_on,0,0,0,,2,,,62,127
116200,note_off,142,0,0,,0,,,60,127
116202,note_off,2,0,0,,2,,,62,127
116202,note_on,0,0,0,,0,,,60,127
116394,note_off,192,0,0,,0,,,60,127
116394,note_on,0,0,0,,8,,,68,127
116490,note_off,96,0,0,,8,,,68,127
116490,note_off,0,0,0,,7,,,55,127
116490,note_off,0,0,0,,0,,,48,127
116490,note_on,0,0,0,,7,,,43,127
116490,note_on,0,0,0,,3,,,51,127
116490,note_on,0,0,0,,0,,,48,127
116490,note_on,0,0,0,,0,,,60,127
116586,note_off,96,0,0,,0,,,60,127
116586,note_on,0,0,0,,2,,,62,127
116682,note_off,96,0,0,,2,,,62,127
116682,note_on,0,0,0,,0,,,60,127
116778,note_off,96,0,0,,0,,,60,127
116778,note_on,0,0,0,,12,,,59,127
116874,note_off,96,0,0,,12,,,59,127
116874,note_on,0,0,0,,0,,,60,127
116970,note_off,96,0,0,,0,,,60,127
116970,note_on,0,0,0,,2,,,62,127
117066,note_off,96,0,0,,2,,,62,127
117066,note_off,0,0,0,,0,,,48,127
117066,note_off,0,0,0,,3,,,51,127
117066,note_off,0,0,0,,7,,,43,127
117066,note_on,0,0,0,,7,,,43,127
117066,note_on,0,0,0,,2,,,50,127
117066,note_on,0,0,0,,7,,,55,127
117066,note_on,0,0,0,,3,,,63,127
117138,note_off,72,0,0,,3,,,63,127
117138,note_on,0,0,0,,2,,,62,127
117210,note_off,72,0,0,,2,,,62,127
117210,note_on,0,0,0,,3,,,63,127
117282,note_off,72,0,0,,3,,,63,127
117282,note_on,0,0,0,,2,,,62,127
117354,note_off,72,0,0,,2,,,62,127
117354,note_on,0,0,0,,3,,,63,127
117426,note_off,72,0,0,,3,,,63,127
117426,note_on,0,0,0,,2,,,62,127
117498,note_off,72,0,0,,2,,,62,127
117498,note_on,0,0,0,,0,,,60,127
117642,note_off,144,0,0,,0,,,60,127
117642,note_off,0,0,0,,7,,,55,127
117642,note_off,0,0,0,,2,,,50,127
117642,note_off,0,0,0,,7,,,43,127
117672,note_on,30,0,0,,0,,,48,127
117672,note_on,0,0,0,,0,,,36,127
117672,note_on,0,0,0,,2,,,62,127
117744,note_off,72,0,0,,2,,,62,127
117750,note_on,6,0,0,,0,,,60,127
117822,note_off,72,0,0,,0,,,60,127
117822,note_on,0,0,0,,2,,,62,127
117894,note_off,72,0,0,,2,,,62,127
117894,note_on,0,0,0,,0,,,60,127
117966,note_off,72,0,0,,0,,,60,127
117966,note_on,0,0,0,,5,,,65,127
118038,note_off,72,0,0,,5,,,65,127
118038,note_on,0,0,0,,4,,,64,127
118110,note_off,72,0,0,,4,,,64,127
118110,note_on,0,0,0,,5,,,65,127
118182,note_off,72,0,0,,5,,,65,127
118182,note_on,0,0,0,,4,,,64,127
118248,note_off,66,0,0,,0,,,36,127
118248,note_off,0,0,0,,0,,,48,127
118254,note_off,6,0,0,,4,,,64,127
118254,note_on,0,0,0,,0,,,48,127
118254,note_on,0,0,0,,0,,,36,127
118254,note_on,0,0,0,,10,,,69,127
118326,note_off,72,0,0,,10,,,69,127
118326,note_on,0,0,0,,7,,,67,127
118398,note_off,72,0,0,,7,,,67,127
118398,note_on,0,0,0,,10,,,69,127
118470,note_off,72,0,0,,10,,,69,127
118470,note_on,0,0,0,,7,,,67,127
118542,note_off,72,0,0,,7,,,67,127
118542,note_on,0,0,0,,2,,,74,127
118614,note_off,72,0,0,,2,,,74,127
118614,note_on,0,0,0,,0,,,72,127
118686,note_off,72,0,0,,0,,,72,127
118686,note_on,0,0,0,,2,,,74,127
118758,note_off,72,0,0,,2,,,74,127
118758,note_on,0,0,0,,0,,,72,127
118830,note_off,72,0,0,,0,,,72,127
118830,note_off,0,0,0,,0,,,36,127
118830,note_off,0,0,0,,0,,,48,127
118830,note_on,0,0,0,,0,,,48,127
118830,note_on,0,0,0,,0,,,36,127
118830,note_on,0,0,0,,5,,,77,127
118902,note_off,72,0,0,,5,,,77,127
118902,note_on,0,0,0,,4,,,76,127
118974,note_off,72,0,0,,4,,,76,127
118974,note_on,0,0,0,,5,,,77,127
119046,note_off,72,0,0,,5,,,77,127
119046,note_on,0,0,0,,4,,,76,127
119118,note_off,72,0,0,,4,,,76,127
119118,note_on,0,0,0,,10,,,81,127
119190,note_off,72,0,0,,10,,,81,127
119190,note_on,0,0,0,,7,,,79,127
119262,note_off,72,0,0,,7,,,79,127
119262,note_on,0,0,0,,10,,,81,127
119334,note_off,72,0,0,,10,,,81,127
119334,note_on,0,0,0,,7,,,79,127
119406,note_off,72,0,0,,0,,,36,127
119406,note_off,0,0,0,,0,,,48,127
119418,note_off,12,0,0,,7,,,79,127
119418,note_on,0,0,0,,5,,,41,127
119418,note_on,0,0,0,,5,,,53,127
119418,note_on,0,0,0,,10,,,81,127
119562,note_off,144,0,0,,10,,,81,127
119562,note_on,0,0,0,,5,,,77,127
119706,note_off,144,0,0,,5,,,77,127
119706,note_on,0,0,0,,4,,,76,127
119850,note_off,144,0,0,,4,,,76,127
119850,note_on,0,0,0,,2,,,74,127
119994,note_off,144,0,0,,2,,,74,127
119994,note_off,0,0,0,,5,,,53,127
119994,note_off,0,0,0,,5,,,41,127
119994,note_on,0,0,0,,7,,,43,127
119994,note_on,0,0,0,,0,,,48,127
119994,note_on,0,0,0,,4,,,52,127
119994,note_on,0,0,0,,0,,,72,127
120138,note_off,144,0,0,,0,,,72,127
120138,note_on,0,0,0,,12,,,71,127
120282,note_off,144,0,0,,12,,,71,127
120282,note_on,0,0,0,,0,,,72,127
120426,note_off,144,0,0,,0,,,72,127
120426,note_on,0,0,0,,2,,,74,127
120570,note_off,144,0,0,,2,,,74,127
120570,note_off,0,0,0,,4,,,52,127
120570,note_off,0,0,0,,0,,,48,127
120570,note_off,0,0,0,,7,,,43,127
120570,note_on,0,0,0,,7,,,55,127
120570,note_on,0,0,0,,2,,,50,127
120570,note_on,0,0,0,,7,,,43,127
120570,note_on,0,0,0,,4,,,76,127
120642,note_off,72,0,0,,4,,,76,127
120642,note_on,0,0,0,,2,,,74,127
120714,note_off,72,0,0,,2,,,74,127
120714,note_on,0,0,0,,4,,,76,127
120786,note_off,72,0,0,,4,,,76,127
120786,note_on,0,0,0,,2,,,74,127
120858,note_off,72,0,0,,2,,,74,127
120858,note_on,0,0,0,,4,,,76,127
120930,note_off,72,0,0,,4,,,76,127
120930,note_on,0,0,0,,2,,,74,127
121002,note_off,72,0,0,,2,,,74,127
121002,note_on,0,0,0,,0,,,72,127
121074,note_off,72,0,0,,0,,,72,127
121074,note_on,0,0,0,,2,,,74,127
121146,note_off,72,0,0,,2,,,74,127
121146,note_off,0,0,0,,7,,,43,127
121146,note_off,0,0,0,,2,,,50,127
121146,note_off,0,0,0,,7,,,55,127
121170,note_on,24,0,0,,2,,,62,127
121170,note_on,0,0,0,,0,,,48,127
121242,note_off,72,0,0,,2,,,62,127
121242,note_on,0,0,0,,0,,,60,127
121314,note_off,72,0,0,,0,,,60,127
121314,note_on,0,0,0,,2,,,62,127
121386,note_off,72,0,0,,2,,,62,127
121386,note_on,0,0,0,,0,,,60,127
121458,note_off,72,0,0,,0,,,60,127
121458,note_on,0,0,0,,5,,,65,127
121530,note_off,72,0,0,,5,,,65,127
121530,note_on,0,0,0,,4,,,64,127
121602,note_off,72,0,0,,4,,,64,127
121602,note_on,0,0,0,,5,,,65,127
121674,note_off,72,0,0,,5,,,65,127
121674,note_on,0,0,0,,4,,,64,127
121746,note_off,72,0,0,,4,,,64,127
121746,note_off,0,0,0,,0,,,48,127
121746,note_on,0,0,0,,10,,,69,127
121746,note_on,0,0,0,,0,,,48,127
121818,note_off,72,0,0,,10,,,69,127
121818,note_on,0,0,0,,7,,,67,127
121890,note_off,72,0,0,,7,,,67,127
121890,note_on,0,0,0,,10,,,69,127
121962,note_off,72,0,0,,10,,,69,127
121962,note_on,0,0,0,,7,,,67,127
122034,note_off,72,0,0,,7,,,67,127
122034,note_on,0,0,0,,2,,,74,127
122106,note_off,72,0,0,,2,,,74,127
122106,note_on,0,0,0,,0,,,72,127
122178,note_off,72,0,0,,0,,,72,127
122178,note_on,0,0,0,,2,,,74,127
122250,note_off,72,0,0,,2,,,74,127
122250,note_on,0,0,0,,0,,,72,127
122322,note_off,72,0,0,,0,,,72,127
122322,note_off,0,0,0,,0,,,48,127
122322,note_on,0,0,0,,5,,,77,127
122322,note_on,0,0,0,,0,,,48,127
122394,note_off,72,0,0,,5,,,77,127
122394,note_on,0,0,0,,4,,,76,127
122466,note_off,72,0,0,,4,,,76,127
122466,note_on,0,0,0,,5,,,77,127
122538,note_off,72,0,0,,5,,,77,127
122538,note_on,0,0,0,,4,,,76,127
122610,note_off,72,0,0,,4,,,76,127
122610,note_on,0,0,0,,10,,,81,127
122682,note_off,72,0,0,,10,,,81,127
122682,note_on,0,0,0,,7,,,79,127
122754,note_off,72,0,0,,7,,,79,127
122754,note_on,0,0,0,,10,,,81,127
122826,note_off,72,0,0,,10,,,81,127
122826,note_on,0,0,0,,7,,,79,127
122898,note_off,72,0,0,,0,,,48,127
122916,note_off,18,0,0,,7,,,79,127
122922,note_on,6,0,0,,10,,,81,127
122922,note_on,0,0,0,,5,,,53,127
122922,note_on,0,0,0,,5,,,41,127
123210,note_off,288,0,0,,10,,,81,127
123210,note_on,0,0,0,,7,,,79,127
123282,note_off,72,0,0,,7,,,79,127
123282,note_on,0,0,0,,5,,,77,127
123354,note_off,72,0,0,,5,,,77,127
123354,note_on,0,0,0,,4,,,76,127
123426,note_off,72,0,0,,4,,,76,127
123426,note_on,0,0,0,,2,,,74,127
123498,note_off,72,0,0,,2,,,74,127
123498,note_off,0,0,0,,5,,,41,127
123498,note_off,0,0,0,,5,,,53,127
123498,note_on,0,0,0,,0,,,72,127
123498,note_on,0,0,0,,7,,,43,127
123498,note_on,0,0,0,,0,,,48,127
123498,note_on,0,0,0,,4,,,52,127
123858,note_off,360,0,0,,0,,,72,127
123858,note_on,0,0,0,,12,,,71,127
123930,note_off,72,0,0,,12,,,71,127
123930,note_on,0,0,0,,10,,,69,127
124002,note_off,72,0,0,,10,,,69,127
124002,note_on,0,0,0,,7,,,67,127
124074,note_off,72,0,0,,7,,,67,127
124074,note_off,0,0,0,,4,,,52,127
124074,note_off,0,0,0,,0,,,48,127
124074,note_off,0,0,0,,7,,,43,127
124074,note_on,0,0,0,,4,,,76,127
124074,note_on,0,0,0,,7,,,55,127
124074,note_on,0,0,0,,2,,,50,127
124074,note_on,0,0,0,,7,,,43,127
124146,note_off,72,0,0,,4,,,76,127
124146,note_on,0,0,0,,2,,,74,127
124218,note_off,72,0,0,,2,,,74,127
124218,note_on,0,0,0,,4,,,76,127
124290,note_off,72,0,0,,4,,,76,127
124290,note_on,0,0,0,,2,,,74,127
124362,note_off,72,0,0,,2,,,74,127
124362,note_on,0,0,0,,4,,,76,127
124434,note_off,72,0,0,,4,,,76,127
124434,note_on,0,0,0,,2,,,74,127
124506,note_off,72,0,0,,2,,,74,127
124506,note_on,0,0,0,,0,,,72,127
124578,note_off,72,0,0,,0,,,72,127
124578,note_on,0,0,0,,2,,,74,127
124650,note_off,72,0,0,,2,,,74,127
124650,note_off,0,0,0,,7,,,43,127
124650,note_off,0,0,0,,2,,,50,127
124650,note_off,0,0,0,,7,,,55,127
124674,note_on,24,0,0,,0,,,36,127
124674,note_on,0,0,0,,0,,,48,127
124674,note_on,0,0,0,,0,,,72,127
124818,note_off,144,0,0,,0,,,72,127
124818,note_on,0,0,0,,7,,,67,127
124962,note_off,144,0,0,,7,,,67,127
124962,note_on,0,0,0,,4,,,76,127
125106,note_off,144,0,0,,4,,,76,127
125106,note_on,0,0,0,,0,,,72,127
125250,note_off,144,0,0,,0,,,72,127
125250,note_off,0,0,0,,0,,,48,127
125250,note_off,0,0,0,,0,,,36,127
125250,note_on,0,0,0,,4,,,64,127
125250,note_on,0,0,0,,0,,,72,127
125394,note_off,144,0,0,,0,,,72,127
125394,note_on,0,0,0,,7,,,67,127
125538,note_off,144,0,0,,7,,,67,127
125538,note_on,0,0,0,,4,,,76,127
125682,note_off,144,0,0,,4,,,76,127
125682,note_on,0,0,0,,0,,,72,127
125826,note_off,144,0,0,,0,,,72,127
125826,note_off,0,0,0,,4,,,64,127
125826,note_on,0,0,0,,5,,,65,127
125826,note_on,0,0,0,,0,,,72,127
125970,note_off,144,0,0,,0,,,72,127
125970,note_on,0,0,0,,10,,,69,127
126114,note_off,144,0,0,,10,,,69,127
126114,note_on,0,0,0,,4,,,76,127
126258,note_off,144,0,0,,4,,,76,127
126258,note_on,0,0,0,,0,,,72,127
126402,note_off,144,0,0,,0,,,72,127
126402,note_off,0,0,0,,5,,,65,127
126402,note_on,0,0,0,,4,,,64,127
126402,note_on,0,0,0,,0,,,72,127
126546,note_off,144,0,0,,0,,,72,127
126546,note_on,0,0,0,,7,,,67,127
126690,note_off,144,0,0,,7,,,67,127
126690,note_on,0,0,0,,4,,,76,127
126690,note_on,0,0,0,,7,,,79,127
126834,note_off,144,0,0,,4,,,76,127
126834,note_on,0,0,0,,0,,,72,127
126978,note_off,144,0,0,,0,,,72,127
126978,note_off,0,0,0,,7,,,79,127
126978,note_off,0,0,0,,4,,,64,127
126978,note_on,0,0,0,,5,,,65,127
126978,note_on,0,0,0,,10,,,81,127
126978,note_on,0,0,0,,5,,,77,127
127122,note_off,144,0,0,,5,,,77,127
127122,note_on,0,0,0,,2,,,74,127
127266,note_off,144,0,0,,2,,,74,127
127266,note_on,0,0,0,,2,,,74,127
127410,note_off,144,0,0,,2,,,74,127
127410,note_on,0,0,0,,5,,,77,127
127554,note_off,144,0,0,,5,,,77,127
127554,note_off,0,0,0,,10,,,81,127
127554,note_off,0,0,0,,5,,,65,127
127554,note_on,0,0,0,,7,,,67,127
127554,note_on,0,0,0,,7,,,79,127
127554,note_on,0,0,0,,2,,,74,127
127698,note_off,144,0,0,,2,,,74,127
127698,note_on,0,0,0,,12,,,71,127
127842,note_off,144,0,0,,12,,,71,127
127842,note_on,0,0,0,,12,,,71,127
127986,note_off,144,0,0,,12,,,71,127
127986,note_on,0,0,0,,2,,,74,127
128130,note_off,144,0,0,,2,,,74,127
128130,note_off,0,0,0,,7,,,79,127
128130,note_off,0,0,0,,7,,,67,127
128154,note_on,24,0,0,,0,,,60,127
128154,note_on,0,0,0,,0,,,48,127
128298,note_off,144,0,0,,0,,,60,127
128298,note_on,0,0,0,,7,,,55,127
128442,note_off,144,0,0,,7,,,55,127
128442,note_on,0,0,0,,4,,,64,127
128586,note_off,144,0,0,,4,,,64,127
128586,note_on,0,0,0,,0,,,60,127
128730,note_off,144,0,0,,0,,,60,127
128730,note_off,0,0,0,,0,,,48,127
128730,note_on,0,0,0,,0,,,60,127
128730,note_on,0,0,0,,4,,,52,127
128874,note_off,144,0,0,,0,,,60,127
128874,note_on,0,0,0,,7,,,55,127
129018,note_off,144,0,0,,7,,,55,127
129018,note_on,0,0,0,,4,,,64,127
129162,note_off,144,0,0,,4,,,64,127
129162,note_on,0,0,0,,0,,,60,127
129306,note_off,144,0,0,,0,,,60,127
129306,note_off,0,0,0,,4,,,52,127
129306,note_on,0,0,0,,0,,,60,127
129306,note_on,0,0,0,,5,,,53,127
129450,note_off,144,0,0,,0,,,60,127
129450,note_on,0,0,0,,10,,,57,127
129594,note_off,144,0,0,,10,,,57,127
129594,note_on,0,0,0,,4,,,64,127
129738,note_off,144,0,0,,4,,,64,127
129738,note_on,0,0,0,,0,,,60,127
129882,note_off,144,0,0,,0,,,60,127
129882,note_off,0,0,0,,5,,,53,127
129882,note_on,0,0,0,,0,,,60,127
129882,note_on,0,0,0,,4,,,52,127
130026,note_off,144,0,0,,0,,,60,127
130026,note_on,0,0,0,,7,,,55,127
130170,note_off,144,0,0,,7,,,55,127
130170,note_on,0,0,0,,4,,,64,127
130170,note_on,0,0,0,,7,,,67,127
130314,note_off,144,0,0,,4,,,64,127
130314,note_on,0,0,0,,0,,,60,127
130458,note_off,144,0,0,,0,,,60,127
130458,note_off,0,0,0,,7,,,67,127
130458,note_off,0,0,0,,4,,,52,127
130458,note_on,0,0,0,,10,,,69,127
130458,note_on,0,0,0,,5,,,65,127
130458,note_on,0,0,0,,5,,,53,127
130602,note_off,144,0,0,,5,,,65,127
130602,note_on,0,0,0,,2,,,62,127
130746,note_off,144,0,0,,2,,,62,127
130746,note_on,0,0,0,,2,,,62,127
130890,note_off,144,0,0,,2,,,62,127
130890,note_on,0,0,0,,5,,,65,127
131034,note_off,144,0,0,,5,,,65,127
131034,note_off,0,0,0,,5,,,53,127
131034,note_off,0,0,0,,10,,,69,127
131034,note_on,0,0,0,,2,,,62,127
131034,note_on,0,0,0,,5,,,65,127
131034,note_on,0,0,0,,7,,,55,127
131178,note_off,144,0,0,,2,,,62,127
131178,note_on,0,0,0,,12,,,59,127
131322,note_off,144,0,0,,12,,,59,127
131322,note_on,0,0,0,,12,,,59,127
131466,note_off,144,0,0,,12,,,59,127
131466,note_on,0,0,0,,2,,,62,127
131610,note_off,144,0,0,,2,,,62,127
131610,note_off,0,0,0,,7,,,55,127
131610,note_off,0,0,0,,5,,,65,127
131610,note_on,0,0,0,,2,,,62,127
131610,note_on,0,0,0,,0,,,36,127
131610,note_on,0,0,0,,0,,,48,127
132092,note_on,482,0,0,,0,,,60,127
132096,note_off,4,0,0,,2,,,62,127
133050,note_off,954,0,0,,0,,,48,127
133050,note_off,0,0,0,,0,,,36,127
133628,note_off,578,0,0,,0,,,60,127
135168,end_of_track,1540,1,0,,,,,,
