tick,type,time,meta,track,program,channel,pitch,tempo,note,velocity
0,copyright,0,1,0,,,,,,
0,program_change,0,0,0,6,0,,,,
0,pitchwheel,0,0,0,,0,0,,,
0,program_change,0,0,0,6,1,,,,
0,pitchwheel,0,0,0,,1,-590,,,
0,program_change,0,0,0,6,2,,,,
0,pitchwheel,0,0,0,,2,-272,,,
0,program_change,0,0,0,6,3,,,,
0,pitchwheel,0,0,0,,3,-353,,,
0,program_change,0,0,0,6,4,,,,
0,pitchwheel,0,0,0,,4,-560,,,
0,program_change,0,0,0,6,5,,,,
0,pitchwheel,0,0,0,,5,-80,,,
0,program_change,0,0,0,6,6,,,,
0,pitchwheel,0,0,0,,6,-625,,,
0,program_change,0,0,0,6,7,,,,
0,pitchwheel,0,0,0,,7,-130,,,
0,program_change,0,0,0,6,8,,,,
0,pitchwheel,0,0,0,,8,-512,,,
0,program_change,0,0,0,6,10,,,,
0,pitchwheel,0,0,0,,10,-464,,,
0,program_change,0,0,0,6,11,,,,
0,pitchwheel,0,0,0,,11,-208,,,
0,program_change,0,0,0,6,12,,,,
0,pitchwheel,0,0,0,,12,-553,,,
0,set_tempo,0,1,0,,,,500000,,
103,note_on,103,0,0,,5,,,65,127
103,note_on,0,0,0,,10,,,69,127
103,note_on,0,0,0,,0,,,72,127
154,note_off,51,0,0,,10,,,69,127
154,note_off,0,0,0,,5,,,65,127
154,note_on,0,0,0,,4,,,64,127
154,note_on,0,0,0,,7,,,67,127
205,note_off,51,0,0,,7,,,67,127
205,note_on,0,0,0,,5,,,65,127
205,note_on,0,0,0,,10,,,69,127
207,note_off,2,0,0,,4,,,64,127
256,note_off,49,0,0,,10,,,69,127
256,note_off,0,0,0,,5,,,65,127
256,note_on,0,0,0,,4,,,64,127
256,note_on,0,0,0,,7,,,67,127
307,note_off,51,0,0,,4,,,64,127
307,note_on,0,0,0,,2,,,62,127
307,note_on,0,0,0,,5,,,65,127
312,note_off,5,0,0,,7,,,67,127
512,note_off,200,0,0,,5,,,65,127
512,note_off,0,0,0,,2,,,62,127
512,note_on,0,0,0,,0,,,60,127
512,note_on,0,0,0,,4,,,64,127
694,note_off,182,0,0,,4,,,64,127
694,note_off,0,0,0,,0,,,60,127
718,note_off,24,0,0,,0,,,72,127
718,note_on,0,0,0,,5,,,65,127
718,note_on,0,0,0,,10,,,69,127
718,note_on,0,0,0,,0,,,72,127
769,note_off,51,0,0,,10,,,69,127
769,note_off,0,0,0,,5,,,65,127
769,note_on,0,0,0,,4,,,64,127
769,note_on,0,0,0,,7,,,67,127
820,note_off,51,0,0,,7,,,67,127
820,note_off,0,0,0,,4,,,64,127
820,note_on,0,0,0,,5,,,65,127
820,note_on,0,0,0,,10,,,69,127
871,note_off,51,0,0,,10,,,69,127
871,note_off,0,0,0,,5,,,65,127
871,note_on,0,0,0,,4,,,64,127
871,note_on,0,0,0,,7,,,67,127
922,note_off,51,0,0,,7,,,67,127
922,note_off,0,0,0,,4,,,64,127
922,note_on,0,0,0,,2,,,62,127
922,note_on,0,0,0,,5,,,65,127
1128,note_off,206,0,0,,5,,,65,127
1128,note_off,0,0,0,,2,,,62,127
1128,note_on,0,0,0,,0,,,60,127
1128,note_on,0,0,0,,4,,,64,127
1310,note_off,182,0,0,,4,,,64,127
1310,note_off,0,0,0,,0,,,60,127
1334,note_off,24,0,0,,0,,,72,127
1334,note_on,0,0,0,,5,,,65,127
1334,note_on,0,0,0,,10,,,69,127
1334,note_on,0,0,0,,0,,,72,127
1540,note_off,206,0,0,,10,,,69,127
1540,note_off,0,0,0,,5,,,65,127
1540,note_on,0,0,0,,4,,,64,127
1540,note_on,0,0,0,,7,,,67,127
1746,note_off,206,0,0,,7,,,67,127
1746,note_off,0,0,0,,4,,,64,127
1746,note_off,0,0,0,,0,,,72,127
1746,note_on,0,0,0,,2,,,62,127
1746,note_on,0,0,0,,5,,,65,127
1746,note_on,0,0,0,,5,,,77,127
1952,note_off,206,0,0,,5,,,77,127
1952,note_off,0,0,0,,5,,,65,127
1952,note_off,0,0,0,,2,,,62,127
1952,note_on,0,0,0,,0,,,60,127
1952,note_on,0,0,0,,7,,,67,127
1952,note_on,0,0,0,,4,,,76,127
2158,note_off,206,0,0,,4,,,76,127
2158,note_off,0,0,0,,7,,,67,127
2158,note_on,0,0,0,,5,,,65,127
2158,note_on,0,0,0,,2,,,74,127
2364,note_off,206,0,0,,2,,,74,127
2364,note_off,0,0,0,,5,,,65,127
2364,note_on,0,0,0,,4,,,64,127
2364,note_on,0,0,0,,0,,,72,127
2531,note_off,167,0,0,,0,,,60,127
2570,note_off,39,0,0,,0,,,72,127
2570,note_off,0,0,0,,4,,,64,127
2570,note_on,0,0,0,,4,,,52,127
2570,note_on,0,0,0,,0,,,60,127
2570,note_on,0,0,0,,10,,,69,127
2570,note_on,0,0,0,,0,,,72,127
2621,note_off,51,0,0,,10,,,69,127
2621,note_on,0,0,0,,7,,,67,127
2672,note_off,51,0,0,,7,,,67,127
2672,note_on,0,0,0,,10,,,69,127
2723,note_off,51,0,0,,10,,,69,127
2723,note_on,0,0,0,,7,,,67,127
2774,note_off,51,0,0,,7,,,67,127
2774,note_off,0,0,0,,4,,,52,127
2774,note_on,0,0,0,,2,,,50,127
2774,note_on,0,0,0,,5,,,65,127
2980,note_off,206,0,0,,5,,,65,127
2980,note_off,0,0,0,,2,,,50,127
2980,note_on,0,0,0,,0,,,48,127
2980,note_on,0,0,0,,4,,,64,127
3186,note_off,206,0,0,,4,,,64,127
3186,note_off,0,0,0,,0,,,48,127
3186,note_on,0,0,0,,5,,,53,127
3186,note_on,0,0,0,,10,,,69,127
3392,note_off,206,0,0,,10,,,69,127
3392,note_off,0,0,0,,5,,,53,127
3392,note_on,0,0,0,,7,,,55,127
3392,note_on,0,0,0,,7,,,67,127
3598,note_off,206,0,0,,7,,,67,127
3598,note_off,0,0,0,,7,,,55,127
3598,note_on,0,0,0,,10,,,57,127
3598,note_on,0,0,0,,5,,,65,127
3804,note_off,206,0,0,,5,,,65,127
3804,note_off,0,0,0,,10,,,57,127
3804,note_on,0,0,0,,7,,,55,127
3804,note_on,0,0,0,,4,,,64,127
4010,note_off,206,0,0,,4,,,64,127
4010,note_off,0,0,0,,7,,,55,127
4010,note_off,0,0,0,,0,,,72,127
4010,note_on,0,0,0,,5,,,53,127
4010,note_on,0,0,0,,5,,,65,127
4010,note_on,0,0,0,,2,,,74,127
4216,note_off,206,0,0,,2,,,74,127
4216,note_off,0,0,0,,5,,,65,127
4216,note_off,0,0,0,,5,,,53,127
4216,note_on,0,0,0,,7,,,55,127
4216,note_on,0,0,0,,2,,,62,127
4216,note_on,0,0,0,,12,,,71,127
4422,note_off,206,0,0,,12,,,71,127
4422,note_off,0,0,0,,2,,,62,127
4422,note_off,0,0,0,,7,,,55,127
4422,note_off,0,0,0,,0,,,60,127
4422,note_on,0,0,0,,0,,,48,127
4422,note_on,0,0,0,,2,,,62,127
4422,note_on,0,0,0,,12,,,71,127
4844,note_off,422,0,0,,12,,,71,127
4844,note_off,0,0,0,,2,,,62,127
4848,note_on,4,0,0,,0,,,72,127
4848,note_on,0,0,0,,4,,,64,127
5039,note_off,191,0,0,,0,,,48,127
5054,note_off,15,0,0,,4,,,64,127
5054,note_off,0,0,0,,0,,,72,127
5073,note_on,19,0,0,,0,,,72,127
5073,note_on,0,0,0,,4,,,76,127
5073,note_on,0,0,0,,7,,,79,127
5124,note_off,51,0,0,,4,,,76,127
5124,note_off,0,0,0,,0,,,72,127
5124,note_on,0,0,0,,12,,,71,127
5124,note_on,0,0,0,,2,,,74,127
5175,note_off,51,0,0,,2,,,74,127
5175,note_off,0,0,0,,12,,,71,127
5175,note_on,0,0,0,,0,,,72,127
5175,note_on,0,0,0,,4,,,76,127
5226,note_off,51,0,0,,4,,,76,127
5226,note_off,0,0,0,,0,,,72,127
5226,note_on,0,0,0,,12,,,71,127
5226,note_on,0,0,0,,2,,,74,127
5277,note_off,51,0,0,,2,,,74,127
5277,note_off,0,0,0,,12,,,71,127
5277,note_on,0,0,0,,10,,,69,127
5277,note_on,0,0,0,,0,,,72,127
5483,note_off,206,0,0,,0,,,72,127
5483,note_off,0,0,0,,10,,,69,127
5483,note_on,0,0,0,,7,,,67,127
5483,note_on,0,0,0,,12,,,71,127
5644,note_off,161,0,0,,12,,,71,127
5644,note_off,0,0,0,,7,,,67,127
5689,note_off,45,0,0,,7,,,79,127
5689,note_on,0,0,0,,0,,,72,127
5689,note_on,0,0,0,,4,,,76,127
5689,note_on,0,0,0,,7,,,79,127
5740,note_off,51,0,0,,4,,,76,127
5740,note_off,0,0,0,,0,,,72,127
5740,note_on,0,0,0,,12,,,71,127
5740,note_on,0,0,0,,2,,,74,127
5791,note_off,51,0,0,,2,,,74,127
5791,note_off,0,0,0,,12,,,71,127
5791,note_on,0,0,0,,0,,,72,127
5791,note_on,0,0,0,,4,,,76,127
5842,note_off,51,0,0,,4,,,76,127
5842,note_off,0,0,0,,0,,,72,127
5842,note_on,0,0,0,,12,,,71,127
5842,note_on,0,0,0,,2,,,74,127
5893,note_off,51,0,0,,2,,,74,127
5893,note_off,0,0,0,,12,,,71,127
5893,note_on,0,0,0,,10,,,69,127
5893,note_on,0,0,0,,0,,,72,127
6099,note_off,206,0,0,,0,,,72,127
6099,note_off,0,0,0,,10,,,69,127
6099,note_on,0,0,0,,7,,,67,127
6099,note_on,0,0,0,,12,,,71,127
6260,note_off,161,0,0,,12,,,71,127
6260,note_off,0,0,0,,7,,,67,127
6305,note_off,45,0,0,,7,,,79,127
6305,note_on,0,0,0,,0,,,72,127
6305,note_on,0,0,0,,4,,,76,127
6305,note_on,0,0,0,,7,,,79,127
6511,note_off,206,0,0,,4,,,76,127
6511,note_off,0,0,0,,0,,,72,127
6511,note_on,0,0,0,,12,,,71,127
6511,note_on,0,0,0,,2,,,74,127
6717,note_off,206,0,0,,2,,,74,127
6717,note_off,0,0,0,,12,,,71,127
6717,note_off,0,0,0,,7,,,79,127
6717,note_on,0,0,0,,10,,,69,127
6717,note_on,0,0,0,,0,,,72,127
6717,note_on,0,0,0,,0,,,84,127
6923,note_off,206,0,0,,0,,,84,127
6923,note_off,0,0,0,,0,,,72,127
6923,note_off,0,0,0,,10,,,69,127
6923,note_on,0,0,0,,7,,,67,127
6923,note_on,0,0,0,,2,,,74,127
6923,note_on,0,0,0,,12,,,83,127
7129,note_off,206,0,0,,12,,,83,127
7129,note_off,0,0,0,,2,,,74,127
7129,note_on,0,0,0,,0,,,72,127
7129,note_on,0,0,0,,10,,,81,127
7335,note_off,206,0,0,,10,,,81,127
7335,note_off,0,0,0,,0,,,72,127
7335,note_on,0,0,0,,12,,,71,127
7335,note_on,0,0,0,,7,,,79,127
7496,note_off,161,0,0,,12,,,71,127
7541,note_off,45,0,0,,7,,,79,127
7541,note_off,0,0,0,,7,,,67,127
7541,note_on,0,0,0,,12,,,59,127
7541,note_on,0,0,0,,7,,,67,127
7541,note_on,0,0,0,,4,,,76,127
7541,note_on,0,0,0,,7,,,79,127
7592,note_off,51,0,0,,4,,,76,127
7592,note_on,0,0,0,,2,,,74,127
7643,note_off,51,0,0,,2,,,74,127
7643,note_on,0,0,0,,4,,,76,127
7694,note_off,51,0,0,,4,,,76,127
7694,note_on,0,0,0,,2,,,74,127
7745,note_off,51,0,0,,2,,,74,127
7745,note_off,0,0,0,,12,,,59,127
7745,note_on,0,0,0,,10,,,57,127
7745,note_on,0,0,0,,0,,,72,127
7951,note_off,206,0,0,,0,,,72,127
7951,note_off,0,0,0,,10,,,57,127
7951,note_on,0,0,0,,7,,,55,127
7951,note_on,0,0,0,,12,,,71,127
8157,note_off,206,0,0,,12,,,71,127
8157,note_off,0,0,0,,7,,,55,127
8157,note_off,0,0,0,,7,,,79,127
8157,note_on,0,0,0,,0,,,60,127
8157,note_on,0,0,0,,4,,,76,127
8157,note_on,0,0,0,,7,,,79,127
8363,note_off,206,0,0,,4,,,76,127
8363,note_off,0,0,0,,0,,,60,127
8363,note_on,0,0,0,,2,,,62,127
8363,note_on,0,0,0,,2,,,74,127
8569,note_off,206,0,0,,2,,,74,127
8569,note_off,0,0,0,,2,,,62,127
8569,note_on,0,0,0,,4,,,64,127
8569,note_on,0,0,0,,0,,,72,127
8775,note_off,206,0,0,,0,,,72,127
8775,note_off,0,0,0,,4,,,64,127
8775,note_on,0,0,0,,2,,,62,127
8775,note_on,0,0,0,,12,,,71,127
8981,note_off,206,0,0,,12,,,71,127
8981,note_off,0,0,0,,2,,,62,127
8981,note_off,0,0,0,,7,,,79,127
8981,note_on,0,0,0,,0,,,60,127
8981,note_on,0,0,0,,0,,,72,127
8981,note_on,0,0,0,,10,,,81,127
9187,note_off,206,0,0,,10,,,81,127
9187,note_off,0,0,0,,0,,,72,127
9187,note_off,0,0,0,,0,,,60,127
9187,note_on,0,0,0,,2,,,62,127
9187,note_on,0,0,0,,10,,,69,127
9187,note_on,0,0,0,,6,,,78,127
9393,note_off,206,0,0,,6,,,78,127
9393,note_off,0,0,0,,10,,,69,127
9393,note_off,0,0,0,,2,,,62,127
9393,note_on,0,0,0,,7,,,55,127
9393,note_on,0,0,0,,6,,,78,127
9599,note_off,206,0,0,,6,,,78,127
9599,note_off,0,0,0,,7,,,67,127
9605,note_on,6,0,0,,7,,,67,127
9605,note_on,0,0,0,,7,,,79,127
9811,note_off,206,0,0,,7,,,79,127
9811,note_off,0,0,0,,7,,,67,127
9822,note_on,11,0,0,,5,,,77,127
9822,note_on,0,0,0,,8,,,68,127
10028,note_off,206,0,0,,8,,,68,127
10028,note_on,0,0,0,,7,,,67,127
10215,note_off,187,0,0,,7,,,55,127
10233,note_off,18,0,0,,5,,,77,127
10233,note_on,0,0,0,,3,,,75,127
10439,note_off,206,0,0,,3,,,75,127
10439,note_off,0,0,0,,7,,,67,127
10439,note_on,0,0,0,,2,,,74,127
10439,note_on,0,0,0,,5,,,65,127
10645,note_off,206,0,0,,5,,,65,127
10645,note_off,0,0,0,,2,,,74,127
10645,note_on,0,0,0,,0,,,72,127
10645,note_on,0,0,0,,3,,,63,127
10849,note_off,204,0,0,,0,,,72,127
10868,note_on,19,0,0,,0,,,84,127
11057,note_off,189,0,0,,3,,,63,127
11074,note_off,17,0,0,,0,,,84,127
11074,note_on,0,0,0,,5,,,65,127
11074,note_on,0,0,0,,12,,,71,127
11074,note_on,0,0,0,,8,,,80,127
11280,note_off,206,0,0,,12,,,71,127
11280,note_off,0,0,0,,5,,,65,127
11280,note_on,0,0,0,,3,,,63,127
11280,note_on,0,0,0,,0,,,72,127
11486,note_off,206,0,0,,8,,,80,127
11486,note_on,0,0,0,,7,,,79,127
11692,note_off,206,0,0,,7,,,79,127
11692,note_off,0,0,0,,3,,,63,127
11692,note_on,0,0,0,,2,,,62,127
11692,note_on,0,0,0,,5,,,77,127
11898,note_off,206,0,0,,5,,,77,127
11898,note_off,0,0,0,,2,,,62,127
11898,note_on,0,0,0,,0,,,60,127
11898,note_on,0,0,0,,5,,,77,127
11949,note_off,51,0,0,,5,,,77,127
11949,note_on,0,0,0,,3,,,75,127
12000,note_off,51,0,0,,3,,,75,127
12000,note_on,0,0,0,,5,,,77,127
12051,note_off,51,0,0,,5,,,77,127
12051,note_on,0,0,0,,3,,,75,127
12102,note_off,51,0,0,,3,,,75,127
12102,note_off,0,0,0,,0,,,60,127
12102,note_on,0,0,0,,7,,,67,127
12102,note_on,0,0,0,,2,,,74,127
12308,note_off,206,0,0,,2,,,74,127
12308,note_off,0,0,0,,7,,,67,127
12308,note_off,0,0,0,,0,,,72,127
12308,note_on,0,0,0,,8,,,68,127
12308,note_on,0,0,0,,7,,,79,127
12514,note_off,206,0,0,,7,,,79,127
12514,note_on,0,0,0,,5,,,77,127
12720,note_off,206,0,0,,5,,,77,127
12720,note_off,0,0,0,,8,,,68,127
12720,note_on,0,0,0,,7,,,67,127
12720,note_on,0,0,0,,5,,,77,127
12771,note_off,51,0,0,,5,,,77,127
12771,note_on,0,0,0,,3,,,75,127
12822,note_off,51,0,0,,3,,,75,127
12822,note_on,0,0,0,,5,,,77,127
12873,note_off,51,0,0,,5,,,77,127
12873,note_on,0,0,0,,3,,,75,127
12924,note_off,51,0,0,,3,,,75,127
12924,note_off,0,0,0,,7,,,67,127
12924,note_on,0,0,0,,5,,,65,127
12924,note_on,0,0,0,,2,,,74,127
13130,note_off,206,0,0,,2,,,74,127
13130,note_off,0,0,0,,5,,,65,127
13130,note_on,0,0,0,,3,,,63,127
13130,note_on,0,0,0,,0,,,72,127
13353,note_on,223,0,0,,0,,,84,127
13535,note_off,182,0,0,,0,,,72,127
13541,note_off,6,0,0,,3,,,63,127
13558,note_off,17,0,0,,0,,,84,127
13558,note_on,0,0,0,,8,,,80,127
13558,note_on,0,0,0,,12,,,71,127
13558,note_on,0,0,0,,5,,,65,127
13764,note_off,206,0,0,,5,,,65,127
13764,note_off,0,0,0,,12,,,71,127
13764,note_on,0,0,0,,0,,,72,127
13764,note_on,0,0,0,,3,,,63,127
13970,note_off,206,0,0,,8,,,80,127
13970,note_on,0,0,0,,7,,,79,127
14176,note_off,206,0,0,,7,,,79,127
14176,note_off,0,0,0,,3,,,63,127
14176,note_on,0,0,0,,5,,,77,127
14176,note_on,0,0,0,,2,,,62,127
14382,note_off,206,0,0,,2,,,62,127
14382,note_off,0,0,0,,5,,,77,127
14382,note_off,0,0,0,,0,,,72,127
14382,note_on,0,0,0,,7,,,79,127
14382,note_on,0,0,0,,3,,,75,127
14382,note_on,0,0,0,,0,,,60,127
14588,note_off,206,0,0,,0,,,60,127
14588,note_off,0,0,0,,3,,,75,127
14588,note_on,0,0,0,,2,,,74,127
14588,note_on,0,0,0,,2,,,62,127
14794,note_off,206,0,0,,2,,,62,127
14794,note_off,0,0,0,,2,,,74,127
14794,note_on,0,0,0,,0,,,72,127
14794,note_on,0,0,0,,3,,,63,127
15000,note_off,206,0,0,,3,,,63,127
15000,note_off,0,0,0,,0,,,72,127
15000,note_off,0,0,0,,7,,,79,127
15000,note_on,0,0,0,,7,,,79,127
15000,note_on,0,0,0,,12,,,71,127
15000,note_on,0,0,0,,2,,,62,127
15206,note_off,206,0,0,,2,,,62,127
15206,note_off,0,0,0,,12,,,71,127
15206,note_on,0,0,0,,2,,,74,127
15206,note_on,0,0,0,,3,,,63,127
15257,note_off,51,0,0,,2,,,74,127
15257,note_on,0,0,0,,0,,,72,127
15308,note_off,51,0,0,,0,,,72,127
15308,note_on,0,0,0,,2,,,74,127
15359,note_off,51,0,0,,2,,,74,127
15359,note_on,0,0,0,,0,,,72,127
15410,note_off,51,0,0,,0,,,72,127
15410,note_off,0,0,0,,3,,,63,127
15410,note_on,0,0,0,,2,,,74,127
15410,note_on,0,0,0,,0,,,60,127
15461,note_off,51,0,0,,2,,,74,127
15461,note_on,0,0,0,,0,,,72,127
15512,note_off,51,0,0,,0,,,72,127
15512,note_on,0,0,0,,12,,,71,127
15563,note_off,51,0,0,,12,,,71,127
15563,note_on,0,0,0,,0,,,72,127
15614,note_off,51,0,0,,0,,,72,127
15614,note_off,0,0,0,,0,,,60,127
15614,note_on,0,0,0,,12,,,71,127
15614,note_on,0,0,0,,2,,,62,127
15820,note_off,206,0,0,,2,,,62,127
15820,note_off,0,0,0,,12,,,71,127
15820,note_on,0,0,0,,2,,,74,127
15820,note_on,0,0,0,,3,,,63,127
15871,note_off,51,0,0,,2,,,74,127
15871,note_on,0,0,0,,0,,,72,127
15922,note_off,51,0,0,,0,,,72,127
15922,note_on,0,0,0,,2,,,74,127
15973,note_off,51,0,0,,2,,,74,127
15973,note_on,0,0,0,,0,,,72,127
16024,note_off,51,0,0,,0,,,72,127
16024,note_off,0,0,0,,3,,,63,127
16024,note_on,0,0,0,,2,,,74,127
16024,note_on,0,0,0,,0,,,60,127
16075,note_off,51,0,0,,2,,,74,127
16075,note_on,0,0,0,,0,,,72,127
16126,note_off,51,0,0,,0,,,72,127
16126,note_on,0,0,0,,12,,,71,127
16177,note_off,51,0,0,,12,,,71,127
16177,note_on,0,0,0,,0,,,72,127
16228,note_off,51,0,0,,0,,,72,127
16228,note_off,0,0,0,,0,,,60,127
16228,note_on,0,0,0,,12,,,71,127
16228,note_on,0,0,0,,2,,,62,127
16434,note_off,206,0,0,,2,,,62,127
16434,note_off,0,0,0,,12,,,71,127
16451,note_on,17,0,0,,3,,,63,127
16451,note_on,0,0,0,,2,,,74,127
16502,note_off,51,0,0,,2,,,74,127
16502,note_on,0,0,0,,0,,,72,127
16553,note_off,51,0,0,,0,,,72,127
16553,note_on,0,0,0,,2,,,74,127
16604,note_off,51,0,0,,2,,,74,127
16604,note_on,0,0,0,,0,,,72,127
16655,note_off,51,0,0,,0,,,72,127
16655,note_off,0,0,0,,3,,,63,127
16655,note_on,0,0,0,,0,,,60,127
16655,note_on,0,0,0,,2,,,74,127
16706,note_off,51,0,0,,2,,,74,127
16706,note_on,0,0,0,,0,,,72,127
16757,note_off,51,0,0,,0,,,72,127
16757,note_on,0,0,0,,12,,,71,127
16808,note_off,51,0,0,,12,,,71,127
16808,note_on,0,0,0,,0,,,72,127
16842,note_off,34,0,0,,7,,,79,127
16859,note_off,17,0,0,,0,,,72,127
16859,note_off,0,0,0,,0,,,60,127
16859,note_on,0,0,0,,7,,,55,127
16859,note_on,0,0,0,,0,,,72,127
17086,note_on,227,0,0,,7,,,43,127
17302,note_on,216,0,0,,2,,,74,127
17317,note_off,15,0,0,,0,,,72,127
17469,note_off,152,0,0,,7,,,55,127
17557,note_off,88,0,0,,7,,,43,127
17709,note_off,152,0,0,,2,,,74,127
18056,note_on,347,0,0,,3,,,63,127
18264,note_on,208,0,0,,7,,,79,127
18264,note_on,0,0,0,,3,,,75,127
18468,note_off,204,0,0,,3,,,63,127
18470,note_off,2,0,0,,3,,,75,127
18470,note_off,0,0,0,,7,,,79,127
18470,note_on,0,0,0,,10,,,81,127
18470,note_on,0,0,0,,0,,,72,127
18470,note_on,0,0,0,,0,,,60,127
18676,note_off,206,0,0,,0,,,60,127
18676,note_off,0,0,0,,0,,,72,127
18676,note_off,0,0,0,,10,,,81,127
18676,note_on,0,0,0,,11,,,82,127
18676,note_on,0,0,0,,2,,,74,127
18676,note_on,0,0,0,,11,,,58,127
18882,note_off,206,0,0,,2,,,74,127
18882,note_off,0,0,0,,11,,,82,127
18882,note_on,0,0,0,,5,,,77,127
18882,note_on,0,0,0,,2,,,74,127
19088,note_off,206,0,0,,2,,,74,127
19088,note_off,0,0,0,,5,,,77,127
19088,note_off,0,0,0,,11,,,58,127
19088,note_on,0,0,0,,7,,,79,127
19088,note_on,0,0,0,,4,,,76,127
19088,note_on,0,0,0,,7,,,55,127
19294,note_off,206,0,0,,7,,,55,127
19294,note_off,0,0,0,,4,,,76,127
19294,note_off,0,0,0,,7,,,79,127
19294,note_on,0,0,0,,8,,,80,127
19294,note_on,0,0,0,,5,,,77,127
19294,note_on,0,0,0,,5,,,53,127
19500,note_off,206,0,0,,8,,,80,127
19500,note_on,0,0,0,,2,,,86,127
19706,note_off,206,0,0,,2,,,86,127
19706,note_off,0,0,0,,5,,,53,127
19706,note_off,0,0,0,,5,,,77,127
19706,note_on,0,0,0,,12,,,83,127
19706,note_on,0,0,0,,2,,,74,127
19706,note_on,0,0,0,,7,,,55,127
19912,note_off,206,0,0,,7,,,55,127
19912,note_off,0,0,0,,2,,,74,127
19912,note_off,0,0,0,,12,,,83,127
19912,note_on,0,0,0,,0,,,84,127
19912,note_on,0,0,0,,3,,,75,127
19912,note_on,0,0,0,,0,,,48,127
20118,note_off,206,0,0,,0,,,48,127
20118,note_off,0,0,0,,3,,,75,127
20118,note_off,0,0,0,,0,,,84,127
20118,note_on,0,0,0,,7,,,79,127
20118,note_on,0,0,0,,3,,,75,127
20118,note_on,0,0,0,,0,,,60,127
20324,note_off,206,0,0,,0,,,60,127
20324,note_off,0,0,0,,3,,,75,127
20324,note_off,0,0,0,,7,,,79,127
20324,note_on,0,0,0,,10,,,81,127
20324,note_on,0,0,0,,0,,,72,127
20324,note_on,0,0,0,,10,,,57,127
20530,note_off,206,0,0,,10,,,57,127
20530,note_off,0,0,0,,0,,,72,127
20530,note_off,0,0,0,,10,,,81,127
20530,note_on,0,0,0,,11,,,82,127
20530,note_on,0,0,0,,2,,,74,127
20530,note_on,0,0,0,,7,,,55,127
20736,note_off,206,0,0,,2,,,74,127
20736,note_off,0,0,0,,11,,,82,127
20736,note_on,0,0,0,,11,,,70,127
20736,note_on,0,0,0,,7,,,67,127
20942,note_off,206,0,0,,11,,,70,127
20942,note_off,0,0,0,,7,,,55,127
20942,note_on,0,0,0,,0,,,72,127
20942,note_on,0,0,0,,3,,,51,127
21148,note_off,206,0,0,,3,,,51,127
21148,note_off,0,0,0,,0,,,72,127
21148,note_off,0,0,0,,7,,,67,127
21148,note_on,0,0,0,,0,,,72,127
21148,note_on,0,0,0,,2,,,38,127
21354,note_off,206,0,0,,2,,,38,127
21354,note_on,0,0,0,,2,,,50,127
21560,note_off,206,0,0,,2,,,50,127
21560,note_off,0,0,0,,0,,,72,127
21560,note_on,0,0,0,,2,,,74,127
21560,note_on,0,0,0,,0,,,48,127
21766,note_off,206,0,0,,0,,,48,127
21766,note_on,0,0,0,,11,,,46,127
21972,note_off,206,0,0,,2,,,74,127
21978,note_on,6,0,0,,2,,,62,127
22184,note_off,206,0,0,,2,,,62,127
22188,note_on,4,0,0,,11,,,70,127
22280,note_off,92,0,0,,11,,,46,127
22394,note_off,114,0,0,,11,,,70,127
22394,note_on,0,0,0,,10,,,69,127
22394,note_on,0,0,0,,3,,,63,127
22394,note_on,0,0,0,,0,,,48,127
22394,note_on,0,0,0,,0,,,36,127
22600,note_off,206,0,0,,10,,,69,127
22600,note_on,0,0,0,,7,,,67,127
22806,note_off,206,0,0,,7,,,67,127
22806,note_on,0,0,0,,11,,,70,127
23012,note_off,206,0,0,,11,,,70,127
23012,note_off,0,0,0,,0,,,36,127
23012,note_off,0,0,0,,0,,,48,127
23012,note_off,0,0,0,,3,,,63,127
23012,note_on,0,0,0,,11,,,70,127
23012,note_on,0,0,0,,10,,,69,127
23012,note_on,0,0,0,,2,,,62,127
23012,note_on,0,0,0,,2,,,50,127
23012,note_on,0,0,0,,2,,,38,127
23218,note_off,206,0,0,,10,,,69,127
23218,note_off,0,0,0,,11,,,70,127
23218,note_on,0,0,0,,7,,,67,127
23424,note_off,206,0,0,,7,,,67,127
23424,note_on,0,0,0,,11,,,70,127
23630,note_off,206,0,0,,11,,,70,127
23630,note_off,0,0,0,,2,,,38,127
23630,note_off,0,0,0,,2,,,50,127
23630,note_off,0,0,0,,2,,,62,127
23630,note_on,0,0,0,,10,,,69,127
23630,note_on,0,0,0,,11,,,70,127
23630,note_on,0,0,0,,0,,,60,127
23630,note_on,0,0,0,,3,,,51,127
23630,note_on,0,0,0,,3,,,39,127
23836,note_off,206,0,0,,11,,,70,127
23836,note_off,0,0,0,,10,,,69,127
23836,note_on,0,0,0,,7,,,67,127
24042,note_off,206,0,0,,7,,,67,127
24042,note_on,0,0,0,,11,,,70,127
24248,note_off,206,0,0,,11,,,70,127
24248,note_off,0,0,0,,3,,,39,127
24248,note_off,0,0,0,,3,,,51,127
24248,note_off,0,0,0,,0,,,60,127
24248,note_on,0,0,0,,10,,,69,127
24248,note_on,0,0,0,,11,,,70,127
24248,note_on,0,0,0,,2,,,62,127
24248,note_on,0,0,0,,11,,,46,127
24454,note_off,206,0,0,,11,,,70,127
24454,note_off,0,0,0,,10,,,69,127
24454,note_on,0,0,0,,7,,,67,127
24660,note_off,206,0,0,,7,,,67,127
24660,note_on,0,0,0,,2,,,74,127
24866,note_off,206,0,0,,11,,,46,127
24866,note_off,0,0,0,,2,,,62,127
24866,note_on,0,0,0,,0,,,48,127
24866,note_on,0,0,0,,0,,,36,127
25072,note_off,206,0,0,,2,,,74,127
25072,note_on,0,0,0,,11,,,70,127
25175,note_off,103,0,0,,11,,,70,127
25175,note_on,0,0,0,,10,,,69,127
25278,note_off,103,0,0,,10,,,69,127
25278,note_off,0,0,0,,0,,,48,127
25278,note_on,0,0,0,,7,,,67,127
25278,note_on,0,0,0,,3,,,51,127
25482,note_off,204,0,0,,3,,,51,127
25484,note_off,2,0,0,,7,,,67,127
25484,note_off,0,0,0,,0,,,36,127
25484,note_on,0,0,0,,11,,,70,127
25484,note_on,0,0,0,,2,,,38,127
25535,note_off,51,0,0,,11,,,70,127
25535,note_on,0,0,0,,10,,,69,127
25586,note_off,51,0,0,,10,,,69,127
25586,note_on,0,0,0,,11,,,70,127
25637,note_off,51,0,0,,11,,,70,127
25637,note_on,0,0,0,,10,,,69,127
25688,note_off,51,0,0,,10,,,69,127
25688,note_on,0,0,0,,7,,,67,127
25894,note_off,206,0,0,,7,,,67,127
25894,note_off,0,0,0,,2,,,38,127
25894,note_on,0,0,0,,6,,,66,127
25894,note_on,0,0,0,,2,,,50,127
26100,note_off,206,0,0,,6,,,66,127
26100,note_on,0,0,0,,6,,,66,127
26203,note_off,103,0,0,,2,,,50,127
26310,note_on,107,0,0,,7,,,43,127
26310,note_on,0,0,0,,7,,,55,127
26516,note_off,206,0,0,,7,,,55,127
26516,note_off,0,0,0,,7,,,43,127
26516,note_on,0,0,0,,10,,,57,127
26516,note_on,0,0,0,,10,,,45,127
26529,note_on,13,0,0,,7,,,67,127
26538,note_off,9,0,0,,6,,,66,127
26722,note_off,184,0,0,,10,,,45,127
26722,note_off,0,0,0,,10,,,57,127
26722,note_on,0,0,0,,11,,,46,127
26722,note_on,0,0,0,,11,,,58,127
26928,note_off,206,0,0,,11,,,58,127
26928,note_off,0,0,0,,11,,,46,127
26941,note_off,13,0,0,,7,,,67,127
26941,note_on,0,0,0,,10,,,45,127
26941,note_on,0,0,0,,10,,,57,127
26941,note_on,0,0,0,,7,,,79,127
27147,note_off,206,0,0,,7,,,79,127
27147,note_off,0,0,0,,10,,,57,127
27147,note_off,0,0,0,,10,,,45,127
27147,note_on,0,0,0,,7,,,43,127
27147,note_on,0,0,0,,7,,,55,127
27147,note_on,0,0,0,,11,,,82,127
27353,note_off,206,0,0,,11,,,82,127
27353,note_off,0,0,0,,7,,,55,127
27353,note_off,0,0,0,,7,,,43,127
27353,note_on,0,0,0,,0,,,48,127
27353,note_on,0,0,0,,0,,,60,127
27353,note_on,0,0,0,,3,,,75,127
27353,note_on,0,0,0,,10,,,81,127
27353,note_on,0,0,0,,11,,,82,127
27559,note_off,206,0,0,,11,,,82,127
27559,note_off,0,0,0,,10,,,81,127
27559,note_on,0,0,0,,7,,,79,127
27765,note_off,206,0,0,,7,,,79,127
27765,note_on,0,0,0,,11,,,82,127
27971,note_off,206,0,0,,11,,,82,127
27971,note_off,0,0,0,,3,,,75,127
27971,note_off,0,0,0,,0,,,60,127
27971,note_off,0,0,0,,0,,,48,127
27971,note_on,0,0,0,,2,,,50,127
27971,note_on,0,0,0,,2,,,62,127
27971,note_on,0,0,0,,2,,,74,127
27971,note_on,0,0,0,,11,,,82,127
27971,note_on,0,0,0,,10,,,81,127
28177,note_off,206,0,0,,10,,,81,127
28177,note_off,0,0,0,,11,,,82,127
28177,note_on,0,0,0,,7,,,79,127
28383,note_off,206,0,0,,7,,,79,127
28383,note_on,0,0,0,,11,,,82,127
28589,note_off,206,0,0,,11,,,82,127
28589,note_off,0,0,0,,2,,,74,127
28589,note_off,0,0,0,,2,,,62,127
28589,note_off,0,0,0,,2,,,50,127
28589,note_on,0,0,0,,3,,,51,127
28589,note_on,0,0,0,,3,,,63,127
28589,note_on,0,0,0,,0,,,72,127
28589,note_on,0,0,0,,11,,,82,127
28589,note_on,0,0,0,,10,,,81,127
28795,note_off,206,0,0,,10,,,81,127
28795,note_off,0,0,0,,11,,,82,127
28795,note_on,0,0,0,,7,,,79,127
29001,note_off,206,0,0,,7,,,79,127
29001,note_on,0,0,0,,11,,,82,127
29207,note_off,206,0,0,,11,,,82,127
29207,note_off,0,0,0,,0,,,72,127
29207,note_off,0,0,0,,3,,,63,127
29207,note_off,0,0,0,,3,,,51,127
29207,note_on,0,0,0,,11,,,46,127
29207,note_on,0,0,0,,11,,,58,127
29207,note_on,0,0,0,,2,,,74,127
29207,note_on,0,0,0,,11,,,82,127
29207,note_on,0,0,0,,10,,,81,127
29413,note_off,206,0,0,,10,,,81,127
29413,note_off,0,0,0,,11,,,82,127
29413,note_on,0,0,0,,7,,,79,127
29619,note_off,206,0,0,,7,,,79,127
29619,note_on,0,0,0,,2,,,86,127
29825,note_off,206,0,0,,2,,,74,127
29825,note_off,0,0,0,,11,,,58,127
29825,note_off,0,0,0,,11,,,46,127
29825,note_on,0,0,0,,0,,,48,127
29825,note_on,0,0,0,,0,,,60,127
30031,note_off,206,0,0,,2,,,86,127
30031,note_on,0,0,0,,11,,,82,127
30134,note_off,103,0,0,,11,,,82,127
30134,note_on,0,0,0,,10,,,81,127
30237,note_off,103,0,0,,10,,,81,127
30237,note_off,0,0,0,,0,,,60,127
30237,note_on,0,0,0,,3,,,63,127
30237,note_on,0,0,0,,7,,,79,127
30443,note_off,206,0,0,,7,,,79,127
30443,note_off,0,0,0,,3,,,63,127
30443,note_off,0,0,0,,0,,,48,127
30443,note_on,0,0,0,,2,,,50,127
30443,note_on,0,0,0,,11,,,82,127
30494,note_off,51,0,0,,11,,,82,127
30494,note_on,0,0,0,,10,,,81,127
30545,note_off,51,0,0,,10,,,81,127
30545,note_on,0,0,0,,11,,,82,127
30596,note_off,51,0,0,,11,,,82,127
30596,note_on,0,0,0,,10,,,81,127
30647,note_off,51,0,0,,10,,,81,127
30647,note_on,0,0,0,,7,,,79,127
30853,note_off,206,0,0,,7,,,79,127
30853,note_off,0,0,0,,2,,,50,127
30853,note_on,0,0,0,,2,,,62,127
30853,note_on,0,0,0,,6,,,78,127
31059,note_off,206,0,0,,6,,,78,127
31059,note_off,0,0,0,,2,,,62,127
31059,note_on,0,0,0,,7,,,55,127
31059,note_on,0,0,0,,2,,,62,127
31059,note_on,0,0,0,,6,,,78,127
31265,note_off,206,0,0,,7,,,55,127
31265,note_on,0,0,0,,12,,,59,127
31471,note_off,206,0,0,,12,,,59,127
31471,note_off,0,0,0,,6,,,78,127
31471,note_on,0,0,0,,7,,,55,127
31471,note_on,0,0,0,,7,,,79,127
31677,note_off,206,0,0,,7,,,55,127
31683,note_on,6,0,0,,2,,,50,127
31882,note_off,199,0,0,,7,,,79,127
31899,note_on,17,0,0,,2,,,86,127
31899,note_on,0,0,0,,2,,,74,127
31899,note_on,0,0,0,,6,,,54,127
31905,note_off,6,0,0,,2,,,50,127
32104,note_off,199,0,0,,6,,,54,127
32104,note_off,0,0,0,,2,,,74,127
32104,note_off,0,0,0,,2,,,86,127
32104,note_on,0,0,0,,0,,,84,127
32104,note_on,0,0,0,,0,,,72,127
32104,note_on,0,0,0,,2,,,50,127
32310,note_off,206,0,0,,2,,,50,127
32310,note_off,0,0,0,,0,,,72,127
32310,note_off,0,0,0,,0,,,84,127
32310,note_on,0,0,0,,12,,,83,127
32310,note_on,0,0,0,,12,,,71,127
32310,note_on,0,0,0,,7,,,55,127
32516,note_off,206,0,0,,7,,,55,127
32516,note_off,0,0,0,,12,,,71,127
32516,note_off,0,0,0,,12,,,83,127
32516,note_on,0,0,0,,0,,,84,127
32516,note_on,0,0,0,,0,,,72,127
32516,note_on,0,0,0,,12,,,59,127
32722,note_off,206,0,0,,12,,,59,127
32722,note_off,0,0,0,,0,,,72,127
32722,note_off,0,0,0,,0,,,84,127
32722,note_on,0,0,0,,1,,,85,127
32722,note_on,0,0,0,,1,,,73,127
32722,note_on,0,0,0,,7,,,55,127
32911,note_off,189,0,0,,2,,,62,127
32928,note_off,17,0,0,,7,,,55,127
32934,note_on,6,0,0,,2,,,50,127
32934,note_on,0,0,0,,2,,,62,127
33133,note_off,199,0,0,,1,,,73,127
33133,note_off,0,0,0,,1,,,85,127
33139,note_off,6,0,0,,2,,,50,127
33143,note_on,4,0,0,,2,,,86,127
33143,note_on,0,0,0,,2,,,74,127
33143,note_on,0,0,0,,6,,,54,127
33349,note_off,206,0,0,,6,,,54,127
33349,note_off,0,0,0,,2,,,74,127
33349,note_off,0,0,0,,2,,,86,127
33349,note_on,0,0,0,,0,,,84,127
33349,note_on,0,0,0,,0,,,72,127
33349,note_on,0,0,0,,2,,,50,127
33555,note_off,206,0,0,,2,,,50,127
33555,note_off,0,0,0,,0,,,72,127
33555,note_off,0,0,0,,0,,,84,127
33555,note_on,0,0,0,,12,,,83,127
33555,note_on,0,0,0,,12,,,71,127
33555,note_on,0,0,0,,7,,,55,127
33761,note_off,206,0,0,,7,,,55,127
33761,note_off,0,0,0,,12,,,71,127
33761,note_off,0,0,0,,12,,,83,127
33761,note_on,0,0,0,,0,,,84,127
33761,note_on,0,0,0,,0,,,72,127
33761,note_on,0,0,0,,12,,,59,127
33967,note_off,206,0,0,,12,,,59,127
33967,note_off,0,0,0,,0,,,72,127
33967,note_off,0,0,0,,0,,,84,127
33967,note_on,0,0,0,,1,,,85,127
33967,note_on,0,0,0,,1,,,73,127
33967,note_on,0,0,0,,7,,,55,127
34168,note_off,201,0,0,,2,,,62,127
34172,note_off,4,0,0,,7,,,55,127
34178,note_on,6,0,0,,2,,,62,127
34178,note_on,0,0,0,,2,,,50,127
34377,note_off,199,0,0,,1,,,73,127
34377,note_off,0,0,0,,1,,,85,127
34383,note_off,6,0,0,,2,,,50,127
34387,note_on,4,0,0,,2,,,86,127
34387,note_on,0,0,0,,2,,,74,127
34387,note_on,0,0,0,,6,,,54,127
34593,note_off,206,0,0,,6,,,54,127
34593,note_off,0,0,0,,2,,,74,127
34593,note_off,0,0,0,,2,,,86,127
34593,note_on,0,0,0,,0,,,84,127
34593,note_on,0,0,0,,0,,,72,127
34593,note_on,0,0,0,,2,,,50,127
34799,note_off,206,0,0,,2,,,50,127
34799,note_off,0,0,0,,0,,,72,127
34799,note_off,0,0,0,,0,,,84,127
34799,note_on,0,0,0,,12,,,83,127
34799,note_on,0,0,0,,12,,,71,127
34799,note_on,0,0,0,,7,,,55,127
35005,note_off,206,0,0,,7,,,55,127
35005,note_off,0,0,0,,12,,,71,127
35005,note_off,0,0,0,,12,,,83,127
35005,note_on,0,0,0,,10,,,81,127
35005,note_on,0,0,0,,10,,,69,127
35005,note_on,0,0,0,,10,,,57,127
35211,note_off,206,0,0,,10,,,57,127
35211,note_off,0,0,0,,10,,,69,127
35211,note_off,0,0,0,,10,,,81,127
35211,note_on,0,0,0,,7,,,79,127
35211,note_on,0,0,0,,7,,,67,127
35211,note_on,0,0,0,,12,,,59,127
35417,note_off,206,0,0,,12,,,59,127
35417,note_off,0,0,0,,7,,,67,127
35417,note_off,0,0,0,,7,,,79,127
35417,note_on,0,0,0,,10,,,81,127
35417,note_on,0,0,0,,10,,,69,127
35417,note_on,0,0,0,,0,,,60,127
35618,note_off,201,0,0,,2,,,62,127
35622,note_off,4,0,0,,0,,,60,127
35622,note_off,0,0,0,,10,,,69,127
35622,note_off,0,0,0,,10,,,81,127
35622,note_on,0,0,0,,7,,,79,127
35622,note_on,0,0,0,,7,,,67,127
35622,note_on,0,0,0,,2,,,62,127
35828,note_off,206,0,0,,2,,,62,127
35828,note_off,0,0,0,,7,,,67,127
35828,note_off,0,0,0,,7,,,79,127
35828,note_on,0,0,0,,6,,,78,127
35828,note_on,0,0,0,,6,,,66,127
35828,note_on,0,0,0,,2,,,50,127
36034,note_off,206,0,0,,2,,,50,127
36034,note_off,0,0,0,,6,,,66,127
36034,note_off,0,0,0,,6,,,78,127
36034,note_on,0,0,0,,7,,,79,127
36034,note_on,0,0,0,,7,,,67,127
36034,note_on,0,0,0,,7,,,55,127
36034,note_on,0,0,0,,7,,,43,127
36240,note_off,206,0,0,,7,,,43,127
36240,note_off,0,0,0,,7,,,55,127
36244,note_on,4,0,0,,12,,,59,127
36244,note_on,0,0,0,,12,,,47,127
36450,note_off,206,0,0,,12,,,47,127
36450,note_off,0,0,0,,12,,,59,127
36454,note_on,4,0,0,,7,,,43,127
36454,note_on,0,0,0,,7,,,55,127
36660,note_off,206,0,0,,7,,,55,127
36660,note_off,0,0,0,,7,,,43,127
36664,note_on,4,0,0,,2,,,50,127
36664,note_on,0,0,0,,2,,,38,127
36857,note_off,193,0,0,,7,,,67,127
36857,note_off,0,0,0,,7,,,79,127
36870,note_off,13,0,0,,2,,,38,127
36870,note_off,0,0,0,,2,,,50,127
36874,note_on,4,0,0,,6,,,42,127
36874,note_on,0,0,0,,6,,,54,127
36874,note_on,0,0,0,,2,,,74,127
36874,note_on,0,0,0,,2,,,86,127
37080,note_off,206,0,0,,2,,,86,127
37080,note_off,0,0,0,,2,,,74,127
37080,note_off,0,0,0,,6,,,54,127
37080,note_off,0,0,0,,6,,,42,127
37080,note_on,0,0,0,,2,,,38,127
37080,note_on,0,0,0,,2,,,50,127
37080,note_on,0,0,0,,2,,,74,127
37080,note_on,0,0,0,,2,,,86,127
37286,note_off,206,0,0,,2,,,86,127
37286,note_off,0,0,0,,2,,,74,127
37286,note_off,0,0,0,,2,,,50,127
37286,note_off,0,0,0,,2,,,38,127
37286,note_on,0,0,0,,7,,,43,127
37286,note_on,0,0,0,,7,,,55,127
37286,note_on,0,0,0,,2,,,74,127
37286,note_on,0,0,0,,2,,,86,127
37492,note_off,206,0,0,,2,,,86,127
37492,note_off,0,0,0,,2,,,74,127
37492,note_off,0,0,0,,7,,,55,127
37492,note_off,0,0,0,,7,,,43,127
37492,note_on,0,0,0,,12,,,59,127
37492,note_on,0,0,0,,12,,,47,127
37492,note_on,0,0,0,,12,,,71,127
37492,note_on,0,0,0,,12,,,83,127
37698,note_off,206,0,0,,12,,,83,127
37698,note_off,0,0,0,,12,,,71,127
37698,note_off,0,0,0,,12,,,47,127
37698,note_off,0,0,0,,12,,,59,127
37698,note_on,0,0,0,,7,,,43,127
37698,note_on,0,0,0,,7,,,55,127
37698,note_on,0,0,0,,2,,,74,127
37698,note_on,0,0,0,,2,,,86,127
37904,note_off,206,0,0,,7,,,55,127
37904,note_off,0,0,0,,7,,,43,127
37910,note_on,6,0,0,,2,,,38,127
37910,note_on,0,0,0,,2,,,50,127
38109,note_off,199,0,0,,2,,,86,127
38109,note_off,0,0,0,,2,,,74,127
38115,note_off,6,0,0,,2,,,50,127
38115,note_off,0,0,0,,2,,,38,127
38126,note_on,11,0,0,,2,,,86,127
38126,note_on,0,0,0,,2,,,74,127
38126,note_on,0,0,0,,6,,,54,127
38126,note_on,0,0,0,,6,,,42,127
38332,note_off,206,0,0,,6,,,42,127
38332,note_off,0,0,0,,6,,,54,127
38332,note_off,0,0,0,,2,,,74,127
38332,note_off,0,0,0,,2,,,86,127
38332,note_on,0,0,0,,2,,,86,127
38332,note_on,0,0,0,,2,,,74,127
38332,note_on,0,0,0,,2,,,50,127
38332,note_on,0,0,0,,2,,,38,127
38538,note_off,206,0,0,,2,,,38,127
38538,note_off,0,0,0,,2,,,50,127
38538,note_off,0,0,0,,2,,,74,127
38538,note_off,0,0,0,,2,,,86,127
38538,note_on,0,0,0,,2,,,86,127
38538,note_on,0,0,0,,2,,,74,127
38538,note_on,0,0,0,,7,,,55,127
38538,note_on,0,0,0,,7,,,43,127
38744,note_off,206,0,0,,7,,,43,127
38744,note_off,0,0,0,,7,,,55,127
38744,note_off,0,0,0,,2,,,74,127
38744,note_off,0,0,0,,2,,,86,127
38744,note_on,0,0,0,,12,,,83,127
38744,note_on,0,0,0,,12,,,71,127
38744,note_on,0,0,0,,12,,,59,127
38744,note_on,0,0,0,,12,,,47,127
38950,note_off,206,0,0,,12,,,47,127
38950,note_off,0,0,0,,12,,,59,127
38950,note_off,0,0,0,,12,,,71,127
38950,note_off,0,0,0,,12,,,83,127
38950,note_on,0,0,0,,2,,,86,127
38950,note_on,0,0,0,,2,,,74,127
38950,note_on,0,0,0,,7,,,55,127
38950,note_on,0,0,0,,7,,,43,127
39156,note_off,206,0,0,,7,,,43,127
39156,note_off,0,0,0,,7,,,55,127
39162,note_on,6,0,0,,2,,,38,127
39162,note_on,0,0,0,,2,,,50,127
39361,note_off,199,0,0,,2,,,74,127
39361,note_off,0,0,0,,2,,,86,127
39367,note_off,6,0,0,,2,,,50,127
39367,note_off,0,0,0,,2,,,38,127
39378,note_on,11,0,0,,6,,,42,127
39378,note_on,0,0,0,,6,,,54,127
39378,note_on,0,0,0,,2,,,74,127
39378,note_on,0,0,0,,2,,,86,127
39584,note_off,206,0,0,,2,,,86,127
39584,note_off,0,0,0,,2,,,74,127
39584,note_off,0,0,0,,6,,,54,127
39584,note_off,0,0,0,,6,,,42,127
39584,note_on,0,0,0,,2,,,38,127
39584,note_on,0,0,0,,2,,,50,127
39584,note_on,0,0,0,,2,,,74,127
39584,note_on,0,0,0,,2,,,86,127
39790,note_off,206,0,0,,2,,,86,127
39790,note_off,0,0,0,,2,,,74,127
39790,note_off,0,0,0,,2,,,50,127
39790,note_off,0,0,0,,2,,,38,127
39790,note_on,0,0,0,,7,,,43,127
39790,note_on,0,0,0,,7,,,55,127
39790,note_on,0,0,0,,2,,,74,127
39790,note_on,0,0,0,,2,,,86,127
39996,note_off,206,0,0,,2,,,86,127
39996,note_off,0,0,0,,2,,,74,127
39996,note_off,0,0,0,,7,,,55,127
39996,note_off,0,0,0,,7,,,43,127
39996,note_on,0,0,0,,10,,,45,127
39996,note_on,0,0,0,,10,,,57,127
39996,note_on,0,0,0,,0,,,72,127
39996,note_on,0,0,0,,0,,,84,127
40202,note_off,206,0,0,,0,,,84,127
40202,note_off,0,0,0,,0,,,72,127
40202,note_off,0,0,0,,10,,,57,127
40202,note_off,0,0,0,,10,,,45,127
40202,note_on,0,0,0,,12,,,47,127
40202,note_on,0,0,0,,12,,,59,127
40202,note_on,0,0,0,,12,,,71,127
40202,note_on,0,0,0,,12,,,83,127
40408,note_off,206,0,0,,12,,,83,127
40408,note_off,0,0,0,,12,,,71,127
40408,note_off,0,0,0,,12,,,59,127
40408,note_off,0,0,0,,12,,,47,127
40408,note_on,0,0,0,,0,,,48,127
40408,note_on,0,0,0,,0,,,60,127
40408,note_on,0,0,0,,10,,,69,127
40408,note_on,0,0,0,,10,,,81,127
40614,note_off,206,0,0,,10,,,81,127
40614,note_off,0,0,0,,10,,,69,127
40614,note_off,0,0,0,,0,,,60,127
40614,note_off,0,0,0,,0,,,48,127
40614,note_on,0,0,0,,2,,,50,127
40614,note_on,0,0,0,,2,,,62,127
40614,note_on,0,0,0,,7,,,67,127
40614,note_on,0,0,0,,7,,,79,127
40820,note_off,206,0,0,,7,,,79,127
40820,note_off,0,0,0,,7,,,67,127
40820,note_on,0,0,0,,6,,,66,127
40820,note_on,0,0,0,,6,,,78,127
41026,note_off,206,0,0,,6,,,78,127
41026,note_off,0,0,0,,6,,,66,127
41026,note_off,0,0,0,,2,,,62,127
41026,note_off,0,0,0,,2,,,50,127
41026,note_on,0,0,0,,7,,,55,127
41026,note_on,0,0,0,,2,,,62,127
41026,note_on,0,0,0,,7,,,67,127
41026,note_on,0,0,0,,7,,,79,127
41232,note_off,206,0,0,,7,,,79,127
41232,note_off,0,0,0,,7,,,55,127
41249,note_on,17,0,0,,2,,,74,127
41249,note_on,0,0,0,,12,,,59,127
41455,note_off,206,0,0,,12,,,59,127
41455,note_off,0,0,0,,2,,,74,127
41455,note_on,0,0,0,,12,,,71,127
41455,note_on,0,0,0,,7,,,55,127
41644,note_off,189,0,0,,7,,,67,127
41644,note_off,0,0,0,,2,,,62,127
41661,note_off,17,0,0,,7,,,55,127
41661,note_off,0,0,0,,12,,,71,127
41661,note_on,0,0,0,,4,,,76,127
41661,note_on,0,0,0,,0,,,60,127
41661,note_on,0,0,0,,0,,,48,127
41867,note_off,206,0,0,,4,,,76,127
41867,note_on,0,0,0,,2,,,74,127
42073,note_off,206,0,0,,2,,,74,127
42073,note_off,0,0,0,,0,,,48,127
42073,note_off,0,0,0,,0,,,60,127
42073,note_on,0,0,0,,6,,,66,127
42073,note_on,0,0,0,,2,,,62,127
42073,note_on,0,0,0,,2,,,50,127
42279,note_off,206,0,0,,2,,,50,127
42279,note_off,0,0,0,,6,,,66,127
42279,note_on,0,0,0,,7,,,67,127
42279,note_on,0,0,0,,7,,,43,127
42484,note_off,205,0,0,,2,,,62,127
42485,note_off,1,0,0,,7,,,43,127
42485,note_off,0,0,0,,7,,,67,127
42485,note_on,0,0,0,,2,,,62,127
42485,note_on,0,0,0,,12,,,47,127
42691,note_off,206,0,0,,12,,,47,127
42691,note_on,0,0,0,,12,,,59,127
42691,note_on,0,0,0,,7,,,43,127
42896,note_off,205,0,0,,2,,,62,127
42897,note_off,1,0,0,,7,,,43,127
42897,note_off,0,0,0,,12,,,59,127
42897,note_on,0,0,0,,4,,,64,127
42897,note_on,0,0,0,,0,,,48,127
42897,note_on,0,0,0,,0,,,36,127
43103,note_off,206,0,0,,4,,,64,127
43103,note_on,0,0,0,,2,,,62,127
43309,note_off,206,0,0,,2,,,62,127
43309,note_off,0,0,0,,0,,,36,127
43309,note_off,0,0,0,,0,,,48,127
43309,note_on,0,0,0,,6,,,54,127
43309,note_on,0,0,0,,2,,,50,127
43309,note_on,0,0,0,,2,,,38,127
43515,note_off,206,0,0,,2,,,38,127
43515,note_off,0,0,0,,2,,,50,127
43515,note_off,0,0,0,,6,,,54,127
43515,note_on,0,0,0,,6,,,54,127
43515,note_on,0,0,0,,7,,,43,127
43926,note_off,411,0,0,,6,,,54,127
43926,note_on,0,0,0,,7,,,55,127
44239,note_off,313,0,0,,7,,,43,127
44440,note_off,201,0,0,,7,,,55,127
45109,note_on,669,0,0,,3,,,75,127
45109,note_on,0,0,0,,0,,,72,127
45109,note_on,0,0,0,,8,,,68,127
45160,note_off,51,0,0,,8,,,68,127
45160,note_off,0,0,0,,0,,,72,127
45160,note_on,0,0,0,,11,,,70,127
45160,note_on,0,0,0,,7,,,67,127
45211,note_off,51,0,0,,7,,,67,127
45211,note_off,0,0,0,,11,,,70,127
45211,note_on,0,0,0,,0,,,72,127
45211,note_on,0,0,0,,8,,,68,127
45262,note_off,51,0,0,,8,,,68,127
45262,note_off,0,0,0,,0,,,72,127
45262,note_on,0,0,0,,11,,,70,127
45262,note_on,0,0,0,,7,,,67,127
45313,note_off,51,0,0,,7,,,67,127
45313,note_off,0,0,0,,11,,,70,127
45313,note_on,0,0,0,,8,,,68,127
45313,note_on,0,0,0,,5,,,65,127
45519,note_off,206,0,0,,5,,,65,127
45519,note_off,0,0,0,,8,,,68,127
45519,note_on,0,0,0,,7,,,67,127
45519,note_on,0,0,0,,3,,,63,127
45725,note_off,206,0,0,,3,,,63,127
45725,note_off,0,0,0,,7,,,67,127
45725,note_off,0,0,0,,3,,,75,127
45725,note_on,0,0,0,,3,,,75,127
45725,note_on,0,0,0,,0,,,72,127
45725,note_on,0,0,0,,8,,,68,127
45776,note_off,51,0,0,,8,,,68,127
45776,note_off,0,0,0,,0,,,72,127
45776,note_on,0,0,0,,11,,,70,127
45776,note_on,0,0,0,,7,,,67,127
45827,note_off,51,0,0,,7,,,67,127
45827,note_off,0,0,0,,11,,,70,127
45827,note_on,0,0,0,,0,,,72,127
45827,note_on,0,0,0,,8,,,68,127
45878,note_off,51,0,0,,8,,,68,127
45878,note_off,0,0,0,,0,,,72,127
45878,note_on,0,0,0,,11,,,70,127
45878,note_on,0,0,0,,7,,,67,127
45929,note_off,51,0,0,,7,,,67,127
45929,note_off,0,0,0,,11,,,70,127
45929,note_on,0,0,0,,8,,,68,127
45929,note_on,0,0,0,,5,,,65,127
46135,note_off,206,0,0,,5,,,65,127
46135,note_off,0,0,0,,8,,,68,127
46135,note_on,0,0,0,,7,,,67,127
46135,note_on,0,0,0,,3,,,63,127
46341,note_off,206,0,0,,3,,,63,127
46341,note_off,0,0,0,,7,,,67,127
46341,note_off,0,0,0,,3,,,75,127
46341,note_on,0,0,0,,3,,,75,127
46341,note_on,0,0,0,,0,,,72,127
46341,note_on,0,0,0,,8,,,68,127
46547,note_off,206,0,0,,8,,,68,127
46547,note_off,0,0,0,,0,,,72,127
46547,note_on,0,0,0,,11,,,70,127
46547,note_on,0,0,0,,7,,,67,127
46753,note_off,206,0,0,,7,,,67,127
46753,note_off,0,0,0,,11,,,70,127
46753,note_off,0,0,0,,3,,,75,127
46753,note_on,0,0,0,,8,,,80,127
46753,note_on,0,0,0,,8,,,68,127
46753,note_on,0,0,0,,5,,,65,127
46959,note_off,206,0,0,,5,,,65,127
46959,note_off,0,0,0,,8,,,68,127
46959,note_off,0,0,0,,8,,,80,127
46959,note_on,0,0,0,,7,,,79,127
46959,note_on,0,0,0,,11,,,70,127
46959,note_on,0,0,0,,3,,,63,127
47165,note_off,206,0,0,,7,,,79,127
47165,note_on,0,0,0,,5,,,77,127
47371,note_off,206,0,0,,5,,,77,127
47371,note_on,0,0,0,,3,,,75,127
47577,note_off,206,0,0,,3,,,75,127
47577,note_off,0,0,0,,3,,,63,127
47577,note_off,0,0,0,,11,,,70,127
48297,note_on,720,0,0,,2,,,74,127
48297,note_on,0,0,0,,5,,,77,127
48297,note_on,0,0,0,,7,,,79,127
48348,note_off,51,0,0,,5,,,77,127
48348,note_off,0,0,0,,2,,,74,127
48348,note_on,0,0,0,,0,,,72,127
48348,note_on,0,0,0,,3,,,75,127
48399,note_off,51,0,0,,3,,,75,127
48399,note_off,0,0,0,,0,,,72,127
48399,note_on,0,0,0,,2,,,74,127
48399,note_on,0,0,0,,5,,,77,127
48450,note_off,51,0,0,,5,,,77,127
48450,note_off,0,0,0,,2,,,74,127
48450,note_on,0,0,0,,0,,,72,127
48450,note_on,0,0,0,,3,,,75,127
48501,note_off,51,0,0,,3,,,75,127
48501,note_off,0,0,0,,0,,,72,127
48501,note_on,0,0,0,,11,,,70,127
48501,note_on,0,0,0,,2,,,74,127
48707,note_off,206,0,0,,2,,,74,127
48707,note_off,0,0,0,,11,,,70,127
48707,note_on,0,0,0,,10,,,69,127
48707,note_on,0,0,0,,0,,,72,127
48913,note_off,206,0,0,,0,,,72,127
48913,note_off,0,0,0,,10,,,69,127
48913,note_off,0,0,0,,7,,,79,127
48913,note_on,0,0,0,,2,,,74,127
48913,note_on,0,0,0,,5,,,77,127
48913,note_on,0,0,0,,7,,,79,127
48964,note_off,51,0,0,,5,,,77,127
48964,note_off,0,0,0,,2,,,74,127
48964,note_on,0,0,0,,0,,,72,127
48964,note_on,0,0,0,,3,,,75,127
49015,note_off,51,0,0,,3,,,75,127
49015,note_off,0,0,0,,0,,,72,127
49015,note_on,0,0,0,,2,,,74,127
49015,note_on,0,0,0,,5,,,77,127
49066,note_off,51,0,0,,5,,,77,127
49066,note_off,0,0,0,,2,,,74,127
49066,note_on,0,0,0,,0,,,72,127
49066,note_on,0,0,0,,3,,,75,127
49117,note_off,51,0,0,,3,,,75,127
49117,note_off,0,0,0,,0,,,72,127
49117,note_on,0,0,0,,11,,,70,127
49117,note_on,0,0,0,,2,,,74,127
49323,note_off,206,0,0,,2,,,74,127
49323,note_off,0,0,0,,11,,,70,127
49323,note_on,0,0,0,,10,,,69,127
49323,note_on,0,0,0,,0,,,72,127
49529,note_off,206,0,0,,0,,,72,127
49529,note_off,0,0,0,,10,,,69,127
49529,note_off,0,0,0,,7,,,79,127
49529,note_on,0,0,0,,2,,,74,127
49529,note_on,0,0,0,,5,,,77,127
49529,note_on,0,0,0,,7,,,79,127
49580,note_off,51,0,0,,5,,,77,127
49580,note_off,0,0,0,,2,,,74,127
49580,note_on,0,0,0,,0,,,72,127
49580,note_on,0,0,0,,3,,,75,127
49631,note_off,51,0,0,,3,,,75,127
49631,note_off,0,0,0,,0,,,72,127
49631,note_on,0,0,0,,2,,,74,127
49631,note_on,0,0,0,,5,,,77,127
49682,note_off,51,0,0,,5,,,77,127
49682,note_off,0,0,0,,2,,,74,127
49682,note_on,0,0,0,,0,,,72,127
49682,note_on,0,0,0,,3,,,75,127
49733,note_off,51,0,0,,3,,,75,127
49733,note_off,0,0,0,,0,,,72,127
49733,note_on,0,0,0,,11,,,70,127
49733,note_on,0,0,0,,2,,,74,127
49939,note_off,206,0,0,,2,,,74,127
49939,note_off,0,0,0,,11,,,70,127
49939,note_off,0,0,0,,7,,,79,127
49939,note_on,0,0,0,,10,,,69,127
49939,note_on,0,0,0,,0,,,72,127
49939,note_on,0,0,0,,0,,,84,127
50145,note_off,206,0,0,,0,,,84,127
50145,note_off,0,0,0,,0,,,72,127
50145,note_off,0,0,0,,10,,,69,127
50145,note_on,0,0,0,,7,,,67,127
50145,note_on,0,0,0,,2,,,74,127
50145,note_on,0,0,0,,0,,,84,127
50145,note_on,0,0,0,,11,,,82,127
50351,note_off,206,0,0,,11,,,82,127
50351,note_off,0,0,0,,0,,,84,127
50351,note_on,0,0,0,,10,,,81,127
50567,note_on,216,0,0,,7,,,55,127
50567,note_on,0,0,0,,7,,,79,127
50568,note_off,1,0,0,,10,,,81,127
50659,note_off,91,0,0,,7,,,67,127
50762,note_off,103,0,0,,2,,,74,127
51060,note_off,298,0,0,,7,,,55,127
51296,note_off,236,0,0,,7,,,79,127
51585,note_on,289,0,0,,11,,,70,127
51585,note_on,0,0,0,,7,,,67,127
51791,note_on,206,0,0,,11,,,82,127
51791,note_on,0,0,0,,2,,,74,127
51997,note_off,206,0,0,,11,,,82,127
51997,note_off,0,0,0,,7,,,67,127
51997,note_off,0,0,0,,11,,,70,127
51997,note_on,0,0,0,,5,,,65,127
51997,note_on,0,0,0,,10,,,69,127
51997,note_on,0,0,0,,10,,,81,127
52203,note_off,206,0,0,,10,,,69,127
52203,note_off,0,0,0,,2,,,74,127
52203,note_on,0,0,0,,4,,,64,127
52203,note_on,0,0,0,,7,,,67,127
52203,note_on,0,0,0,,1,,,73,127
52254,note_off,51,0,0,,5,,,65,127
52408,note_off,154,0,0,,10,,,81,127
52408,note_on,0,0,0,,7,,,79,127
52614,note_off,206,0,0,,7,,,79,127
52614,note_off,0,0,0,,1,,,73,127
52614,note_off,0,0,0,,7,,,67,127
52614,note_off,0,0,0,,4,,,64,127
52614,note_on,0,0,0,,2,,,62,127
52614,note_on,0,0,0,,10,,,69,127
52614,note_on,0,0,0,,5,,,77,127
52614,note_on,0,0,0,,2,,,74,127
52820,note_off,206,0,0,,2,,,74,127
52820,note_off,0,0,0,,10,,,69,127
52820,note_off,0,0,0,,2,,,62,127
52820,note_on,0,0,0,,7,,,55,127
52820,note_on,0,0,0,,7,,,67,127
52820,note_on,0,0,0,,11,,,70,127
53026,note_off,206,0,0,,5,,,77,127
53026,note_on,0,0,0,,4,,,76,127
53232,note_off,206,0,0,,4,,,76,127
53232,note_off,0,0,0,,7,,,55,127
53232,note_on,0,0,0,,11,,,58,127
53232,note_on,0,0,0,,2,,,74,127
53438,note_off,206,0,0,,2,,,74,127
53438,note_off,0,0,0,,11,,,58,127
53438,note_off,0,0,0,,11,,,70,127
53438,note_off,0,0,0,,7,,,67,127
53438,note_on,0,0,0,,10,,,57,127
53438,note_on,0,0,0,,4,,,64,127
53438,note_on,0,0,0,,2,,,74,127
53489,note_off,51,0,0,,2,,,74,127
53489,note_on,0,0,0,,1,,,73,127
53540,note_off,51,0,0,,1,,,73,127
53540,note_on,0,0,0,,2,,,74,127
53591,note_off,51,0,0,,2,,,74,127
53591,note_on,0,0,0,,1,,,73,127
53642,note_off,51,0,0,,1,,,73,127
53642,note_on,0,0,0,,2,,,74,127
53693,note_off,51,0,0,,2,,,74,127
53693,note_on,0,0,0,,1,,,73,127
53744,note_off,51,0,0,,1,,,73,127
53744,note_on,0,0,0,,2,,,74,127
53795,note_off,51,0,0,,2,,,74,127
53795,note_on,0,0,0,,1,,,73,127
53846,note_off,51,0,0,,1,,,73,127
53846,note_on,0,0,0,,12,,,71,127
53949,note_off,103,0,0,,12,,,71,127
53949,note_on,0,0,0,,10,,,69,127
54052,note_off,103,0,0,,4,,,64,127
54052,note_off,0,0,0,,10,,,57,127
54091,note_on,39,0,0,,5,,,41,127
54091,note_on,0,0,0,,5,,,53,127
54258,note_off,167,0,0,,10,,,69,127
54309,note_on,51,0,0,,10,,,69,127
54515,note_off,206,0,0,,10,,,69,127
54515,note_on,0,0,0,,5,,,77,127
54708,note_off,193,0,0,,5,,,53,127
54708,note_off,0,0,0,,5,,,41,127
54721,note_off,13,0,0,,5,,,77,127
54721,note_on,0,0,0,,11,,,70,127
54721,note_on,0,0,0,,5,,,77,127
54721,note_on,0,0,0,,4,,,76,127
54721,note_on,0,0,0,,7,,,55,127
54721,note_on,0,0,0,,7,,,43,127
54927,note_off,206,0,0,,4,,,76,127
54927,note_off,0,0,0,,5,,,77,127
54927,note_on,0,0,0,,2,,,74,127
55133,note_off,206,0,0,,2,,,74,127
55133,note_on,0,0,0,,5,,,77,127
55339,note_off,206,0,0,,5,,,77,127
55339,note_off,0,0,0,,7,,,43,127
55339,note_off,0,0,0,,7,,,55,127
55339,note_off,0,0,0,,11,,,70,127
55339,note_on,0,0,0,,10,,,69,127
55339,note_on,0,0,0,,5,,,77,127
55339,note_on,0,0,0,,4,,,76,127
55339,note_on,0,0,0,,10,,,57,127
55339,note_on,0,0,0,,10,,,45,127
55545,note_off,206,0,0,,4,,,76,127
55545,note_off,0,0,0,,5,,,77,127
55545,note_on,0,0,0,,2,,,74,127
55751,note_off,206,0,0,,2,,,74,127
55751,note_on,0,0,0,,5,,,77,127
55957,note_off,206,0,0,,5,,,77,127
55957,note_off,0,0,0,,10,,,45,127
55957,note_off,0,0,0,,10,,,57,127
55957,note_off,0,0,0,,10,,,69,127
55957,note_on,0,0,0,,7,,,67,127
55957,note_on,0,0,0,,4,,,76,127
55957,note_on,0,0,0,,5,,,77,127
55957,note_on,0,0,0,,11,,,58,127
55957,note_on,0,0,0,,11,,,46,127
56163,note_off,206,0,0,,5,,,77,127
56163,note_off,0,0,0,,4,,,76,127
56163,note_on,0,0,0,,2,,,74,127
56369,note_off,206,0,0,,2,,,74,127
56369,note_on,0,0,0,,5,,,77,127
56575,note_off,206,0,0,,5,,,77,127
56575,note_off,0,0,0,,11,,,46,127
56575,note_off,0,0,0,,11,,,58,127
56575,note_off,0,0,0,,7,,,67,127
56575,note_on,0,0,0,,10,,,69,127
56575,note_on,0,0,0,,4,,,76,127
56575,note_on,0,0,0,,5,,,77,127
56575,note_on,0,0,0,,5,,,53,127
56575,note_on,0,0,0,,5,,,41,127
56781,note_off,206,0,0,,5,,,77,127
56781,note_off,0,0,0,,4,,,76,127
56781,note_on,0,0,0,,2,,,74,127
56987,note_off,206,0,0,,2,,,74,127
56987,note_on,0,0,0,,10,,,81,127
57193,note_off,206,0,0,,5,,,41,127
57193,note_off,0,0,0,,5,,,53,127
57193,note_off,0,0,0,,10,,,69,127
57193,note_on,0,0,0,,11,,,70,127
57193,note_on,0,0,0,,7,,,55,127
57193,note_on,0,0,0,,7,,,43,127
57399,note_off,206,0,0,,10,,,81,127
57399,note_on,0,0,0,,5,,,77,127
57502,note_off,103,0,0,,5,,,77,127
57502,note_on,0,0,0,,4,,,76,127
57605,note_off,103,0,0,,4,,,76,127
57605,note_off,0,0,0,,7,,,55,127
57605,note_on,0,0,0,,2,,,74,127
57605,note_on,0,0,0,,11,,,58,127
57809,note_off,204,0,0,,11,,,58,127
57810,note_off,1,0,0,,7,,,43,127
57811,note_off,1,0,0,,2,,,74,127
57811,note_off,0,0,0,,11,,,70,127
57811,note_on,0,0,0,,5,,,77,127
57811,note_on,0,0,0,,10,,,45,127
57862,note_off,51,0,0,,5,,,77,127
57862,note_on,0,0,0,,4,,,76,127
57913,note_off,51,0,0,,4,,,76,127
57913,note_on,0,0,0,,5,,,77,127
57964,note_off,51,0,0,,5,,,77,127
57964,note_on,0,0,0,,4,,,76,127
58015,note_off,51,0,0,,4,,,76,127
58015,note_on,0,0,0,,2,,,74,127
58221,note_off,206,0,0,,2,,,74,127
58221,note_off,0,0,0,,10,,,45,127
58221,note_on,0,0,0,,1,,,73,127
58221,note_on,0,0,0,,10,,,57,127
58427,note_off,206,0,0,,10,,,57,127
58427,note_off,0,0,0,,1,,,73,127
58427,note_on,0,0,0,,1,,,73,127
58427,note_on,0,0,0,,2,,,50,127
58633,note_on,206,0,0,,2,,,62,127
58684,note_off,51,0,0,,2,,,50,127
58834,note_off,150,0,0,,1,,,73,127
58838,note_off,4,0,0,,2,,,62,127
58842,note_on,4,0,0,,2,,,74,127
58842,note_on,0,0,0,,4,,,64,127
59054,note_on,212,0,0,,5,,,65,127
59056,note_off,2,0,0,,4,,,64,127
59142,note_off,86,0,0,,2,,,74,127
59263,note_off,121,0,0,,5,,,65,127
59266,note_on,3,0,0,,4,,,64,127
59266,note_on,0,0,0,,10,,,81,127
59266,note_on,0,0,0,,5,,,77,127
59472,note_off,206,0,0,,5,,,77,127
59472,note_off,0,0,0,,10,,,81,127
59472,note_off,0,0,0,,4,,,64,127
59472,note_on,0,0,0,,2,,,62,127
59472,note_on,0,0,0,,12,,,83,127
59472,note_on,0,0,0,,8,,,80,127
59678,note_off,206,0,0,,8,,,80,127
59678,note_off,0,0,0,,12,,,83,127
59678,note_off,0,0,0,,2,,,62,127
59678,note_on,0,0,0,,0,,,60,127
59678,note_on,0,0,0,,0,,,72,127
59678,note_on,0,0,0,,0,,,84,127
59678,note_on,0,0,0,,10,,,81,127
59860,note_off,182,0,0,,10,,,81,127
59860,note_off,0,0,0,,0,,,84,127
59884,note_off,24,0,0,,0,,,72,127
59884,note_off,0,0,0,,0,,,60,127
59884,note_on,0,0,0,,11,,,58,127
59884,note_on,0,0,0,,11,,,70,127
59884,note_on,0,0,0,,7,,,79,127
59884,note_on,0,0,0,,4,,,76,127
60090,note_off,206,0,0,,4,,,76,127
60090,note_off,0,0,0,,7,,,79,127
60090,note_off,0,0,0,,11,,,70,127
60090,note_off,0,0,0,,11,,,58,127
60090,note_on,0,0,0,,10,,,57,127
60090,note_on,0,0,0,,10,,,69,127
60090,note_on,0,0,0,,10,,,81,127
60090,note_on,0,0,0,,6,,,78,127
60296,note_off,206,0,0,,6,,,78,127
60296,note_off,0,0,0,,10,,,81,127
60296,note_off,0,0,0,,10,,,69,127
60296,note_off,0,0,0,,10,,,57,127
60296,note_on,0,0,0,,7,,,55,127
60296,note_on,0,0,0,,7,,,67,127
60296,note_on,0,0,0,,11,,,82,127
60296,note_on,0,0,0,,7,,,79,127
60489,note_off,193,0,0,,7,,,79,127
60489,note_off,0,0,0,,11,,,82,127
60502,note_off,13,0,0,,7,,,67,127
60502,note_off,0,0,0,,7,,,55,127
60502,note_on,0,0,0,,5,,,53,127
60502,note_on,0,0,0,,5,,,65,127
60502,note_on,0,0,0,,2,,,74,127
60502,note_on,0,0,0,,11,,,70,127
60708,note_off,206,0,0,,11,,,70,127
60708,note_off,0,0,0,,2,,,74,127
60708,note_off,0,0,0,,5,,,65,127
60708,note_off,0,0,0,,5,,,53,127
60708,note_on,0,0,0,,4,,,52,127
60708,note_on,0,0,0,,4,,,64,127
60708,note_on,0,0,0,,4,,,76,127
60708,note_on,0,0,0,,1,,,73,127
60914,note_off,206,0,0,,1,,,73,127
60914,note_off,0,0,0,,4,,,76,127
60914,note_off,0,0,0,,4,,,64,127
60914,note_off,0,0,0,,4,,,52,127
60914,note_on,0,0,0,,2,,,50,127
60914,note_on,0,0,0,,2,,,62,127
60914,note_on,0,0,0,,5,,,77,127
60914,note_on,0,0,0,,2,,,74,127
61107,note_off,193,0,0,,2,,,74,127
61107,note_off,0,0,0,,5,,,77,127
61120,note_off,13,0,0,,2,,,62,127
61120,note_off,0,0,0,,2,,,50,127
61120,note_on,0,0,0,,0,,,48,127
61120,note_on,0,0,0,,0,,,60,127
61120,note_on,0,0,0,,10,,,69,127
61120,note_on,0,0,0,,5,,,65,127
61326,note_off,206,0,0,,5,,,65,127
61326,note_off,0,0,0,,10,,,69,127
61326,note_off,0,0,0,,0,,,60,127
61326,note_off,0,0,0,,0,,,48,127
61326,note_on,0,0,0,,12,,,47,127
61326,note_on,0,0,0,,12,,,59,127
61326,note_on,0,0,0,,12,,,71,127
61326,note_on,0,0,0,,8,,,68,127
61532,note_off,206,0,0,,8,,,68,127
61532,note_off,0,0,0,,12,,,71,127
61532,note_off,0,0,0,,12,,,59,127
61532,note_off,0,0,0,,12,,,47,127
61532,note_on,0,0,0,,10,,,45,127
61532,note_on,0,0,0,,10,,,57,127
61532,note_on,0,0,0,,0,,,72,127
61532,note_on,0,0,0,,10,,,69,127
61738,note_off,206,0,0,,10,,,57,127
61738,note_off,0,0,0,,10,,,45,127
61738,note_on,0,0,0,,7,,,43,127
61738,note_on,0,0,0,,7,,,55,127
61944,note_off,206,0,0,,7,,,55,127
61944,note_off,0,0,0,,7,,,43,127
61944,note_off,0,0,0,,0,,,72,127
61944,note_on,0,0,0,,5,,,41,127
61944,note_on,0,0,0,,5,,,53,127
61944,note_on,0,0,0,,2,,,74,127
62150,note_off,206,0,0,,2,,,74,127
62150,note_off,0,0,0,,5,,,53,127
62150,note_off,0,0,0,,5,,,41,127
62150,note_off,0,0,0,,10,,,69,127
62150,note_on,0,0,0,,4,,,40,127
62150,note_on,0,0,0,,4,,,52,127
62150,note_on,0,0,0,,2,,,74,127
62561,note_off,411,0,0,,2,,,74,127
62561,note_off,0,0,0,,4,,,52,127
62567,note_on,6,0,0,,4,,,76,127
62567,note_on,0,0,0,,4,,,52,127
62567,note_on,0,0,0,,4,,,64,127
62663,note_off,96,0,0,,4,,,40,127
62867,note_off,204,0,0,,4,,,76,127
62978,note_off,111,0,0,,4,,,52,127
62989,note_on,11,0,0,,12,,,83,127
62989,note_on,0,0,0,,8,,,56,127
63195,note_off,206,0,0,,8,,,56,127
63195,note_off,0,0,0,,12,,,83,127
63195,note_on,0,0,0,,4,,,76,127
63195,note_on,0,0,0,,4,,,52,127
63390,note_off,195,0,0,,4,,,64,127
63401,note_off,11,0,0,,4,,,52,127
63401,note_off,0,0,0,,4,,,76,127
63401,note_on,0,0,0,,0,,,72,127
63401,note_on,0,0,0,,4,,,64,127
63401,note_on,0,0,0,,10,,,57,127
63504,note_off,103,0,0,,0,,,72,127
63504,note_on,0,0,0,,12,,,71,127
63607,note_off,103,0,0,,12,,,71,127
63607,note_off,0,0,0,,10,,,57,127
63607,note_on,0,0,0,,0,,,72,127
63607,note_on,0,0,0,,0,,,60,127
63710,note_off,103,0,0,,0,,,72,127
63710,note_on,0,0,0,,2,,,74,127
63813,note_off,103,0,0,,2,,,74,127
63813,note_off,0,0,0,,0,,,60,127
63813,note_on,0,0,0,,4,,,76,127
63813,note_on,0,0,0,,10,,,57,127
64019,note_off,206,0,0,,10,,,57,127
64019,note_on,0,0,0,,4,,,52,127
64225,note_off,206,0,0,,4,,,52,127
64225,note_off,0,0,0,,4,,,76,127
64225,note_on,0,0,0,,12,,,83,127
64225,note_on,0,0,0,,8,,,56,127
64431,note_off,206,0,0,,8,,,56,127
64431,note_off,0,0,0,,12,,,83,127
64431,note_on,0,0,0,,4,,,76,127
64431,note_on,0,0,0,,4,,,52,127
64637,note_off,206,0,0,,4,,,52,127
64637,note_off,0,0,0,,4,,,76,127
64637,note_on,0,0,0,,0,,,72,127
64637,note_on,0,0,0,,10,,,57,127
64740,note_off,103,0,0,,0,,,72,127
64740,note_on,0,0,0,,12,,,71,127
64843,note_off,103,0,0,,12,,,71,127
64843,note_off,0,0,0,,10,,,57,127
64843,note_on,0,0,0,,0,,,72,127
64843,note_on,0,0,0,,0,,,60,127
64946,note_off,103,0,0,,0,,,72,127
64946,note_on,0,0,0,,2,,,74,127
65049,note_off,103,0,0,,2,,,74,127
65049,note_off,0,0,0,,0,,,60,127
65049,note_on,0,0,0,,4,,,76,127
65049,note_on,0,0,0,,10,,,57,127
65255,note_off,206,0,0,,10,,,57,127
65255,note_off,0,0,0,,4,,,64,127
65268,note_on,13,0,0,,2,,,62,127
65268,note_on,0,0,0,,2,,,50,127
65349,note_off,81,0,0,,4,,,76,127
65473,note_off,124,0,0,,2,,,50,127
65473,note_on,0,0,0,,10,,,81,127
65473,note_on,0,0,0,,6,,,54,127
65679,note_off,206,0,0,,6,,,54,127
65679,note_off,0,0,0,,10,,,81,127
65679,note_on,0,0,0,,2,,,74,127
65679,note_on,0,0,0,,2,,,50,127
65885,note_off,206,0,0,,2,,,50,127
65885,note_off,0,0,0,,2,,,74,127
65885,note_on,0,0,0,,12,,,71,127
65885,note_on,0,0,0,,7,,,55,127
65988,note_off,103,0,0,,12,,,71,127
65988,note_on,0,0,0,,10,,,69,127
66091,note_off,103,0,0,,10,,,69,127
66091,note_off,0,0,0,,7,,,55,127
66091,note_on,0,0,0,,12,,,71,127
66091,note_on,0,0,0,,12,,,59,127
66194,note_off,103,0,0,,12,,,71,127
66194,note_on,0,0,0,,0,,,72,127
66297,note_off,103,0,0,,0,,,72,127
66297,note_off,0,0,0,,12,,,59,127
66297,note_on,0,0,0,,2,,,74,127
66297,note_on,0,0,0,,7,,,55,127
66503,note_off,206,0,0,,7,,,55,127
66503,note_on,0,0,0,,2,,,50,127
66709,note_off,206,0,0,,2,,,50,127
66709,note_off,0,0,0,,2,,,74,127
66709,note_on,0,0,0,,10,,,81,127
66709,note_on,0,0,0,,6,,,54,127
66915,note_off,206,0,0,,6,,,54,127
66915,note_off,0,0,0,,10,,,81,127
66915,note_on,0,0,0,,2,,,74,127
66915,note_on,0,0,0,,2,,,50,127
67121,note_off,206,0,0,,2,,,50,127
67121,note_off,0,0,0,,2,,,74,127
67121,note_on,0,0,0,,12,,,71,127
67121,note_on,0,0,0,,7,,,55,127
67224,note_off,103,0,0,,12,,,71,127
67224,note_on,0,0,0,,10,,,69,127
67327,note_off,103,0,0,,10,,,69,127
67327,note_off,0,0,0,,7,,,55,127
67327,note_on,0,0,0,,12,,,71,127
67327,note_on,0,0,0,,12,,,59,127
67430,note_off,103,0,0,,12,,,71,127
67430,note_on,0,0,0,,0,,,72,127
67533,note_off,103,0,0,,0,,,72,127
67533,note_off,0,0,0,,12,,,59,127
67533,note_on,0,0,0,,2,,,74,127
67533,note_on,0,0,0,,7,,,55,127
67739,note_off,206,0,0,,7,,,55,127
67739,note_off,0,0,0,,2,,,62,127
67756,note_on,17,0,0,,4,,,64,127
67876,note_off,120,0,0,,2,,,74,127
67962,note_on,86,0,0,,2,,,62,127
67962,note_on,0,0,0,,7,,,79,127
68168,note_off,206,0,0,,7,,,79,127
68168,note_off,0,0,0,,2,,,62,127
68168,note_on,0,0,0,,0,,,60,127
68168,note_on,0,0,0,,0,,,72,127
68374,note_off,206,0,0,,0,,,72,127
68374,note_off,0,0,0,,0,,,60,127
68374,note_off,0,0,0,,4,,,64,127
68374,note_on,0,0,0,,2,,,62,127
68374,note_on,0,0,0,,5,,,65,127
68374,note_on,0,0,0,,2,,,74,127
68425,note_off,51,0,0,,2,,,74,127
68425,note_on,0,0,0,,0,,,72,127
68476,note_off,51,0,0,,0,,,72,127
68476,note_on,0,0,0,,2,,,74,127
68527,note_off,51,0,0,,2,,,74,127
68527,note_on,0,0,0,,0,,,72,127
68578,note_off,51,0,0,,0,,,72,127
68578,note_on,0,0,0,,12,,,71,127
68784,note_off,206,0,0,,12,,,71,127
68784,note_off,0,0,0,,5,,,65,127
68784,note_off,0,0,0,,2,,,62,127
68784,note_on,0,0,0,,4,,,64,127
68784,note_on,0,0,0,,7,,,67,127
68784,note_on,0,0,0,,0,,,72,127
68990,note_off,206,0,0,,0,,,72,127
68990,note_off,0,0,0,,7,,,67,127
68990,note_off,0,0,0,,4,,,64,127
68990,note_on,0,0,0,,2,,,62,127
68990,note_on,0,0,0,,5,,,65,127
68990,note_on,0,0,0,,2,,,74,127
69041,note_off,51,0,0,,2,,,74,127
69041,note_on,0,0,0,,0,,,72,127
69092,note_off,51,0,0,,0,,,72,127
69092,note_on,0,0,0,,2,,,74,127
69143,note_off,51,0,0,,2,,,74,127
69143,note_on,0,0,0,,0,,,72,127
69194,note_off,51,0,0,,0,,,72,127
69194,note_on,0,0,0,,12,,,71,127
69400,note_off,206,0,0,,12,,,71,127
69400,note_off,0,0,0,,5,,,65,127
69400,note_off,0,0,0,,2,,,62,127
69400,note_on,0,0,0,,4,,,64,127
69400,note_on,0,0,0,,7,,,67,127
69400,note_on,0,0,0,,0,,,72,127
69606,note_off,206,0,0,,0,,,72,127
69606,note_off,0,0,0,,7,,,67,127
69606,note_off,0,0,0,,4,,,64,127
69606,note_on,0,0,0,,2,,,62,127
69606,note_on,0,0,0,,5,,,65,127
69606,note_on,0,0,0,,12,,,71,127
69812,note_off,206,0,0,,12,,,71,127
69812,note_off,0,0,0,,5,,,65,127
69812,note_off,0,0,0,,2,,,62,127
69812,note_on,0,0,0,,0,,,60,127
69812,note_on,0,0,0,,4,,,64,127
69812,note_on,0,0,0,,2,,,74,127
69863,note_off,51,0,0,,2,,,74,127
69863,note_on,0,0,0,,0,,,72,127
69914,note_off,51,0,0,,0,,,72,127
69914,note_on,0,0,0,,2,,,74,127
69965,note_off,51,0,0,,2,,,74,127
69965,note_on,0,0,0,,0,,,72,127
70016,note_off,51,0,0,,0,,,72,127
70016,note_on,0,0,0,,2,,,74,127
70067,note_off,51,0,0,,2,,,74,127
70067,note_on,0,0,0,,0,,,72,127
70118,note_off,51,0,0,,0,,,72,127
70118,note_on,0,0,0,,12,,,71,127
70169,note_off,51,0,0,,12,,,71,127
70169,note_on,0,0,0,,0,,,72,127
70220,note_off,51,0,0,,0,,,72,127
70220,note_off,0,0,0,,4,,,64,127
70220,note_off,0,0,0,,0,,,60,127
70220,note_on,0,0,0,,7,,,55,127
70220,note_on,0,0,0,,7,,,67,127
70220,note_on,0,0,0,,2,,,74,127
70426,note_off,206,0,0,,7,,,67,127
70443,note_on,17,0,0,,7,,,67,127
70443,note_on,0,0,0,,5,,,65,127
70627,note_off,184,0,0,,2,,,74,127
70648,note_off,21,0,0,,5,,,65,127
70648,note_off,0,0,0,,7,,,67,127
70648,note_on,0,0,0,,7,,,79,127
70648,note_on,0,0,0,,4,,,64,127
70837,note_off,189,0,0,,7,,,55,127
70854,note_off,17,0,0,,4,,,64,127
70854,note_off,0,0,0,,7,,,79,127
70854,note_on,0,0,0,,12,,,71,127
70854,note_on,0,0,0,,7,,,79,127
70854,note_on,0,0,0,,5,,,65,127
70854,note_on,0,0,0,,2,,,62,127
71060,note_off,206,0,0,,7,,,79,127
71060,note_on,0,0,0,,5,,,77,127
71266,note_off,206,0,0,,5,,,77,127
71266,note_off,0,0,0,,2,,,62,127
71266,note_off,0,0,0,,5,,,65,127
71266,note_off,0,0,0,,12,,,71,127
71266,note_on,0,0,0,,0,,,72,127
71266,note_on,0,0,0,,4,,,76,127
71266,note_on,0,0,0,,4,,,64,127
71266,note_on,0,0,0,,0,,,60,127
71472,note_off,206,0,0,,0,,,60,127
71472,note_off,0,0,0,,4,,,64,127
71472,note_off,0,0,0,,4,,,76,127
71472,note_on,0,0,0,,2,,,74,127
71472,note_on,0,0,0,,7,,,55,127
71472,note_on,0,0,0,,7,,,43,127
71678,note_off,206,0,0,,7,,,43,127
71678,note_off,0,0,0,,7,,,55,127
71678,note_off,0,0,0,,2,,,74,127
71687,note_on,9,0,0,,7,,,67,127
71687,note_on,0,0,0,,5,,,53,127
71687,note_on,0,0,0,,5,,,41,127
71893,note_off,206,0,0,,5,,,41,127
71893,note_off,0,0,0,,5,,,53,127
71893,note_off,0,0,0,,7,,,67,127
71893,note_on,0,0,0,,7,,,79,127
71893,note_on,0,0,0,,4,,,52,127
71893,note_on,0,0,0,,4,,,40,127
72090,note_off,197,0,0,,0,,,72,127
72099,note_off,9,0,0,,4,,,40,127
72099,note_off,0,0,0,,4,,,52,127
72099,note_off,0,0,0,,7,,,79,127
72099,note_on,0,0,0,,12,,,71,127
72099,note_on,0,0,0,,7,,,79,127
72099,note_on,0,0,0,,2,,,50,127
72099,note_on,0,0,0,,2,,,38,127
72305,note_off,206,0,0,,7,,,79,127
72305,note_on,0,0,0,,5,,,77,127
72511,note_off,206,0,0,,5,,,77,127
72511,note_off,0,0,0,,2,,,38,127
72511,note_off,0,0,0,,2,,,50,127
72511,note_off,0,0,0,,12,,,71,127
72511,note_on,0,0,0,,0,,,72,127
72511,note_on,0,0,0,,4,,,76,127
72511,note_on,0,0,0,,0,,,48,127
72511,note_on,0,0,0,,0,,,36,127
72717,note_off,206,0,0,,0,,,36,127
72717,note_off,0,0,0,,0,,,48,127
72717,note_off,0,0,0,,4,,,76,127
72717,note_on,0,0,0,,2,,,74,127
72717,note_on,0,0,0,,7,,,55,127
72717,note_on,0,0,0,,7,,,43,127
72923,note_off,206,0,0,,2,,,74,127
72932,note_on,9,0,0,,7,,,67,127
72932,note_on,0,0,0,,5,,,53,127
72932,note_on,0,0,0,,5,,,41,127
72933,note_off,1,0,0,,7,,,55,127
72934,note_off,1,0,0,,7,,,43,127
73138,note_off,204,0,0,,5,,,41,127
73138,note_off,0,0,0,,5,,,53,127
73138,note_off,0,0,0,,7,,,67,127
73138,note_on,0,0,0,,7,,,79,127
73138,note_on,0,0,0,,4,,,52,127
73138,note_on,0,0,0,,4,,,40,127
73335,note_off,197,0,0,,0,,,72,127
73344,note_off,9,0,0,,4,,,40,127
73344,note_off,0,0,0,,4,,,52,127
73344,note_off,0,0,0,,7,,,79,127
73344,note_on,0,0,0,,12,,,71,127
73344,note_on,0,0,0,,7,,,79,127
73344,note_on,0,0,0,,2,,,50,127
73344,note_on,0,0,0,,2,,,38,127
73550,note_off,206,0,0,,7,,,79,127
73550,note_on,0,0,0,,5,,,77,127
73756,note_off,206,0,0,,5,,,77,127
73756,note_off,0,0,0,,2,,,38,127
73756,note_off,0,0,0,,2,,,50,127
73756,note_off,0,0,0,,12,,,71,127
73756,note_on,0,0,0,,0,,,72,127
73756,note_on,0,0,0,,4,,,76,127
73756,note_on,0,0,0,,0,,,48,127
73756,note_on,0,0,0,,0,,,36,127
73962,note_off,206,0,0,,0,,,36,127
73962,note_off,0,0,0,,0,,,48,127
73962,note_off,0,0,0,,4,,,76,127
73962,note_off,0,0,0,,0,,,72,127
73962,note_on,0,0,0,,4,,,76,127
73962,note_on,0,0,0,,7,,,55,127
73962,note_on,0,0,0,,7,,,43,127
74401,note_on,439,0,0,,2,,,74,127
74407,note_off,6,0,0,,4,,,76,127
74578,note_off,171,0,0,,7,,,43,127
74578,note_off,0,0,0,,7,,,55,127
74612,note_on,34,0,0,,3,,,51,127
74612,note_on,0,0,0,,3,,,39,127
74657,note_off,45,0,0,,2,,,74,127
74835,note_on,178,0,0,,7,,,67,127
75041,note_off,206,0,0,,7,,,67,127
75041,note_on,0,0,0,,3,,,75,127
75230,note_off,189,0,0,,3,,,39,127
75230,note_off,0,0,0,,3,,,51,127
75247,note_off,17,0,0,,3,,,75,127
75247,note_on,0,0,0,,5,,,41,127
75247,note_on,0,0,0,,5,,,53,127
75247,note_on,0,0,0,,3,,,75,127
75247,note_on,0,0,0,,2,,,74,127
75247,note_on,0,0,0,,8,,,68,127
75453,note_off,206,0,0,,2,,,74,127
75453,note_off,0,0,0,,3,,,75,127
75453,note_on,0,0,0,,0,,,72,127
75659,note_off,206,0,0,,0,,,72,127
75659,note_on,0,0,0,,3,,,75,127
75865,note_off,206,0,0,,3,,,75,127
75865,note_off,0,0,0,,8,,,68,127
75865,note_off,0,0,0,,5,,,53,127
75865,note_off,0,0,0,,5,,,41,127
75865,note_on,0,0,0,,7,,,43,127
75865,note_on,0,0,0,,7,,,55,127
75865,note_on,0,0,0,,2,,,74,127
75865,note_on,0,0,0,,3,,,75,127
75865,note_on,0,0,0,,7,,,67,127
76071,note_off,206,0,0,,3,,,75,127
76071,note_off,0,0,0,,2,,,74,127
76071,note_on,0,0,0,,0,,,72,127
76277,note_off,206,0,0,,0,,,72,127
76277,note_on,0,0,0,,3,,,75,127
76483,note_off,206,0,0,,3,,,75,127
76483,note_off,0,0,0,,7,,,67,127
76483,note_off,0,0,0,,7,,,55,127
76483,note_off,0,0,0,,7,,,43,127
76483,note_on,0,0,0,,8,,,44,127
76483,note_on,0,0,0,,8,,,56,127
76483,note_on,0,0,0,,2,,,74,127
76483,note_on,0,0,0,,3,,,75,127
76483,note_on,0,0,0,,5,,,65,127
76689,note_off,206,0,0,,3,,,75,127
76689,note_off,0,0,0,,2,,,74,127
76689,note_on,0,0,0,,0,,,72,127
76895,note_off,206,0,0,,0,,,72,127
76895,note_on,0,0,0,,3,,,75,127
77101,note_off,206,0,0,,3,,,75,127
77101,note_off,0,0,0,,5,,,65,127
77101,note_off,0,0,0,,8,,,56,127
77101,note_off,0,0,0,,8,,,44,127
77101,note_on,0,0,0,,3,,,39,127
77101,note_on,0,0,0,,3,,,51,127
77101,note_on,0,0,0,,2,,,74,127
77101,note_on,0,0,0,,3,,,75,127
77101,note_on,0,0,0,,7,,,67,127
77307,note_off,206,0,0,,3,,,75,127
77307,note_off,0,0,0,,2,,,74,127
77307,note_on,0,0,0,,0,,,72,127
77513,note_off,206,0,0,,0,,,72,127
77513,note_on,0,0,0,,7,,,79,127
77719,note_off,206,0,0,,7,,,67,127
77719,note_off,0,0,0,,3,,,51,127
77719,note_off,0,0,0,,3,,,39,127
77719,note_on,0,0,0,,5,,,41,127
77719,note_on,0,0,0,,5,,,53,127
77899,note_off,180,0,0,,7,,,79,127
77925,note_on,26,0,0,,3,,,75,127
78028,note_off,103,0,0,,3,,,75,127
78028,note_on,0,0,0,,2,,,74,127
78131,note_off,103,0,0,,2,,,74,127
78131,note_off,0,0,0,,5,,,53,127
78131,note_off,0,0,0,,5,,,41,127
78131,note_on,0,0,0,,8,,,44,127
78131,note_on,0,0,0,,8,,,56,127
78131,note_on,0,0,0,,0,,,72,127
78337,note_off,206,0,0,,0,,,72,127
78337,note_off,0,0,0,,8,,,56,127
78337,note_off,0,0,0,,8,,,44,127
78337,note_on,0,0,0,,7,,,43,127
78337,note_on,0,0,0,,3,,,75,127
78388,note_off,51,0,0,,3,,,75,127
78388,note_on,0,0,0,,2,,,74,127
78439,note_off,51,0,0,,2,,,74,127
78439,note_on,0,0,0,,3,,,75,127
78490,note_off,51,0,0,,3,,,75,127
78490,note_on,0,0,0,,2,,,74,127
78541,note_off,51,0,0,,2,,,74,127
78541,note_on,0,0,0,,0,,,72,127
78747,note_off,206,0,0,,0,,,72,127
78747,note_off,0,0,0,,7,,,43,127
78747,note_on,0,0,0,,7,,,55,127
78747,note_on,0,0,0,,12,,,71,127
78953,note_off,206,0,0,,12,,,71,127
78953,note_on,0,0,0,,12,,,71,127
79133,note_off,180,0,0,,7,,,55,127
79159,note_on,26,0,0,,0,,,48,127
79365,note_off,206,0,0,,0,,,48,127
79365,note_off,0,0,0,,12,,,71,127
79365,note_on,0,0,0,,2,,,50,127
79365,note_on,0,0,0,,0,,,72,127
79571,note_off,206,0,0,,2,,,50,127
79571,note_on,0,0,0,,3,,,51,127
79777,note_off,206,0,0,,3,,,51,127
79777,note_off,0,0,0,,0,,,72,127
79788,note_on,11,0,0,,2,,,50,127
79788,note_on,0,0,0,,7,,,55,127
79994,note_off,206,0,0,,7,,,55,127
79994,note_off,0,0,0,,2,,,50,127
79994,note_on,0,0,0,,0,,,48,127
79994,note_on,0,0,0,,3,,,63,127
80200,note_off,206,0,0,,3,,,63,127
80200,note_off,0,0,0,,0,,,48,127
80200,note_on,0,0,0,,5,,,41,127
80200,note_on,0,0,0,,2,,,62,127
80200,note_on,0,0,0,,8,,,56,127
80406,note_off,206,0,0,,2,,,62,127
80406,note_on,0,0,0,,0,,,60,127
80612,note_off,206,0,0,,0,,,60,127
80612,note_on,0,0,0,,3,,,63,127
80818,note_off,206,0,0,,3,,,63,127
80818,note_off,0,0,0,,8,,,56,127
80818,note_off,0,0,0,,5,,,41,127
80818,note_on,0,0,0,,7,,,43,127
80818,note_on,0,0,0,,3,,,63,127
80818,note_on,0,0,0,,2,,,62,127
80818,note_on,0,0,0,,7,,,55,127
81024,note_off,206,0,0,,2,,,62,127
81024,note_off,0,0,0,,3,,,63,127
81024,note_on,0,0,0,,0,,,60,127
81230,note_off,206,0,0,,0,,,60,127
81230,note_on,0,0,0,,3,,,63,127
81436,note_off,206,0,0,,3,,,63,127
81436,note_off,0,0,0,,7,,,55,127
81436,note_off,0,0,0,,7,,,43,127
81436,note_on,0,0,0,,8,,,44,127
81436,note_on,0,0,0,,3,,,63,127
81436,note_on,0,0,0,,2,,,62,127
81436,note_on,0,0,0,,5,,,53,127
81642,note_off,206,0,0,,2,,,62,127
81642,note_off,0,0,0,,3,,,63,127
81642,note_on,0,0,0,,0,,,60,127
81848,note_off,206,0,0,,0,,,60,127
81848,note_on,0,0,0,,3,,,63,127
82054,note_off,206,0,0,,3,,,63,127
82054,note_off,0,0,0,,5,,,53,127
82054,note_off,0,0,0,,8,,,44,127
82054,note_on,0,0,0,,3,,,39,127
82054,note_on,0,0,0,,2,,,62,127
82054,note_on,0,0,0,,3,,,63,127
82054,note_on,0,0,0,,3,,,51,127
82260,note_off,206,0,0,,3,,,63,127
82260,note_off,0,0,0,,2,,,62,127
82260,note_on,0,0,0,,0,,,60,127
82466,note_off,206,0,0,,0,,,60,127
82466,note_on,0,0,0,,7,,,67,127
82672,note_off,206,0,0,,3,,,51,127
82672,note_off,0,0,0,,3,,,39,127
82672,note_on,0,0,0,,5,,,41,127
82672,note_on,0,0,0,,5,,,53,127
82878,note_off,206,0,0,,7,,,67,127
82878,note_on,0,0,0,,3,,,63,127
82981,note_off,103,0,0,,3,,,63,127
82981,note_on,0,0,0,,2,,,62,127
83084,note_off,103,0,0,,2,,,62,127
83084,note_off,0,0,0,,5,,,53,127
83084,note_off,0,0,0,,5,,,41,127
83084,note_on,0,0,0,,8,,,44,127
83084,note_on,0,0,0,,8,,,56,127
83084,note_on,0,0,0,,0,,,60,127
83290,note_off,206,0,0,,0,,,60,127
83290,note_off,0,0,0,,8,,,56,127
83290,note_off,0,0,0,,8,,,44,127
83290,note_on,0,0,0,,7,,,43,127
83290,note_on,0,0,0,,3,,,63,127
83341,note_off,51,0,0,,3,,,63,127
83341,note_on,0,0,0,,2,,,62,127
83392,note_off,51,0,0,,2,,,62,127
83392,note_on,0,0,0,,3,,,63,127
83443,note_off,51,0,0,,3,,,63,127
83443,note_on,0,0,0,,2,,,62,127
83494,note_off,51,0,0,,2,,,62,127
83494,note_on,0,0,0,,0,,,60,127
83700,note_off,206,0,0,,0,,,60,127
83700,note_off,0,0,0,,7,,,43,127
83700,note_on,0,0,0,,7,,,55,127
83700,note_on,0,0,0,,12,,,59,127
83906,note_off,206,0,0,,12,,,59,127
83906,note_off,0,0,0,,7,,,55,127
83906,note_on,0,0,0,,0,,,48,127
83906,note_on,0,0,0,,12,,,59,127
84112,note_off,206,0,0,,12,,,59,127
84122,note_off,10,0,0,,0,,,48,127
84125,note_on,3,0,0,,4,,,52,127
84125,note_on,0,0,0,,0,,,60,127
84329,note_on,204,0,0,,0,,,48,127
84341,note_off,12,0,0,,4,,,52,127
84541,note_on,200,0,0,,7,,,55,127
84541,note_on,0,0,0,,7,,,43,127
84542,note_off,1,0,0,,0,,,48,127
84742,note_off,200,0,0,,0,,,60,127
84746,note_off,4,0,0,,7,,,43,127
84746,note_on,0,0,0,,7,,,67,127
84746,note_on,0,0,0,,7,,,79,127
84746,note_on,0,0,0,,12,,,47,127
84952,note_off,206,0,0,,12,,,47,127
84952,note_off,0,0,0,,7,,,79,127
84952,note_off,0,0,0,,7,,,67,127
84952,note_on,0,0,0,,5,,,65,127
84952,note_on,0,0,0,,5,,,77,127
84952,note_on,0,0,0,,7,,,43,127
85158,note_off,206,0,0,,7,,,43,127
85158,note_off,0,0,0,,5,,,77,127
85158,note_off,0,0,0,,5,,,65,127
85158,note_on,0,0,0,,4,,,64,127
85158,note_on,0,0,0,,4,,,76,127
85158,note_on,0,0,0,,0,,,48,127
85364,note_off,206,0,0,,0,,,48,127
85364,note_off,0,0,0,,4,,,76,127
85364,note_off,0,0,0,,4,,,64,127
85364,note_on,0,0,0,,5,,,65,127
85364,note_on,0,0,0,,5,,,77,127
85364,note_on,0,0,0,,4,,,52,127
85570,note_off,206,0,0,,4,,,52,127
85570,note_off,0,0,0,,5,,,77,127
85570,note_off,0,0,0,,5,,,65,127
85570,note_on,0,0,0,,6,,,66,127
85570,note_on,0,0,0,,6,,,78,127
85570,note_on,0,0,0,,0,,,48,127
85776,note_off,206,0,0,,0,,,48,127
85776,note_on,0,0,0,,7,,,43,127
85879,note_off,103,0,0,,6,,,78,127
85879,note_off,0,0,0,,6,,,66,127
85982,note_off,103,0,0,,7,,,43,127
85982,note_on,0,0,0,,7,,,67,127
85982,note_on,0,0,0,,7,,,79,127
85982,note_on,0,0,0,,12,,,47,127
86188,note_off,206,0,0,,12,,,47,127
86188,note_off,0,0,0,,7,,,79,127
86188,note_off,0,0,0,,7,,,67,127
86188,note_on,0,0,0,,5,,,65,127
86188,note_on,0,0,0,,5,,,77,127
86188,note_on,0,0,0,,7,,,43,127
86394,note_off,206,0,0,,7,,,43,127
86394,note_off,0,0,0,,5,,,77,127
86394,note_off,0,0,0,,5,,,65,127
86394,note_on,0,0,0,,4,,,64,127
86394,note_on,0,0,0,,4,,,76,127
86394,note_on,0,0,0,,0,,,48,127
86600,note_off,206,0,0,,0,,,48,127
86600,note_off,0,0,0,,4,,,76,127
86600,note_off,0,0,0,,4,,,64,127
86600,note_on,0,0,0,,5,,,65,127
86600,note_on,0,0,0,,5,,,77,127
86600,note_on,0,0,0,,4,,,52,127
86806,note_off,206,0,0,,4,,,52,127
86806,note_off,0,0,0,,5,,,77,127
86806,note_off,0,0,0,,5,,,65,127
86806,note_on,0,0,0,,6,,,66,127
86806,note_on,0,0,0,,6,,,78,127
86806,note_on,0,0,0,,0,,,48,127
87012,note_off,206,0,0,,0,,,48,127
87012,note_on,0,0,0,,7,,,43,127
87115,note_off,103,0,0,,6,,,78,127
87115,note_off,0,0,0,,6,,,66,127
87218,note_off,103,0,0,,7,,,43,127
87218,note_on,0,0,0,,7,,,67,127
87218,note_on,0,0,0,,7,,,79,127
87218,note_on,0,0,0,,12,,,47,127
87424,note_off,206,0,0,,12,,,47,127
87424,note_off,0,0,0,,7,,,79,127
87424,note_off,0,0,0,,7,,,67,127
87424,note_on,0,0,0,,5,,,65,127
87424,note_on,0,0,0,,5,,,77,127
87424,note_on,0,0,0,,7,,,43,127
87630,note_off,206,0,0,,7,,,43,127
87630,note_off,0,0,0,,5,,,77,127
87630,note_off,0,0,0,,5,,,65,127
87630,note_on,0,0,0,,4,,,64,127
87630,note_on,0,0,0,,4,,,76,127
87630,note_on,0,0,0,,0,,,48,127
87836,note_off,206,0,0,,0,,,48,127
87836,note_off,0,0,0,,4,,,76,127
87836,note_off,0,0,0,,4,,,64,127
87836,note_on,0,0,0,,2,,,62,127
87836,note_on,0,0,0,,2,,,74,127
87836,note_on,0,0,0,,2,,,50,127
88042,note_off,206,0,0,,2,,,50,127
88042,note_off,0,0,0,,2,,,74,127
88042,note_off,0,0,0,,2,,,62,127
88042,note_on,0,0,0,,0,,,60,127
88042,note_on,0,0,0,,0,,,72,127
88042,note_on,0,0,0,,4,,,52,127
88248,note_off,206,0,0,,4,,,52,127
88248,note_off,0,0,0,,0,,,72,127
88248,note_off,0,0,0,,0,,,60,127
88248,note_off,0,0,0,,7,,,55,127
88248,note_on,0,0,0,,2,,,62,127
88248,note_on,0,0,0,,2,,,74,127
88248,note_on,0,0,0,,5,,,53,127
88454,note_off,206,0,0,,5,,,53,127
88454,note_off,0,0,0,,2,,,74,127
88454,note_off,0,0,0,,2,,,62,127
88454,note_on,0,0,0,,0,,,60,127
88454,note_on,0,0,0,,0,,,72,127
88454,note_on,0,0,0,,7,,,55,127
88660,note_off,206,0,0,,7,,,55,127
88660,note_off,0,0,0,,0,,,72,127
88660,note_off,0,0,0,,0,,,60,127
88660,note_on,0,0,0,,12,,,59,127
88660,note_on,0,0,0,,12,,,71,127
88660,note_on,0,0,0,,7,,,43,127
88866,note_off,206,0,0,,7,,,43,127
88866,note_off,0,0,0,,12,,,71,127
88866,note_off,0,0,0,,12,,,59,127
88866,note_on,0,0,0,,0,,,60,127
88866,note_on,0,0,0,,0,,,72,127
88866,note_on,0,0,0,,7,,,55,127
88866,note_on,0,0,0,,0,,,48,127
89072,note_off,206,0,0,,0,,,48,127
89072,note_on,0,0,0,,4,,,52,127
89278,note_off,206,0,0,,4,,,52,127
89278,note_on,0,0,0,,0,,,48,127
89484,note_off,206,0,0,,0,,,48,127
89484,note_on,0,0,0,,7,,,43,127
89488,note_off,4,0,0,,0,,,72,127
89488,note_off,0,0,0,,0,,,60,127
89689,note_off,201,0,0,,7,,,43,127
89689,note_on,0,0,0,,2,,,62,127
89689,note_on,0,0,0,,2,,,74,127
89689,note_on,0,0,0,,12,,,47,127
89895,note_off,206,0,0,,12,,,47,127
89895,note_off,0,0,0,,2,,,74,127
89895,note_off,0,0,0,,2,,,62,127
89895,note_on,0,0,0,,5,,,65,127
89895,note_on,0,0,0,,5,,,77,127
89895,note_on,0,0,0,,7,,,43,127
90101,note_off,206,0,0,,7,,,43,127
90101,note_off,0,0,0,,5,,,77,127
90101,note_off,0,0,0,,5,,,65,127
90101,note_on,0,0,0,,4,,,64,127
90101,note_on,0,0,0,,4,,,76,127
90101,note_on,0,0,0,,0,,,48,127
90307,note_off,206,0,0,,0,,,48,127
90307,note_off,0,0,0,,4,,,76,127
90307,note_off,0,0,0,,4,,,64,127
90307,note_on,0,0,0,,7,,,67,127
90307,note_on,0,0,0,,7,,,79,127
90307,note_on,0,0,0,,4,,,52,127
90513,note_off,206,0,0,,4,,,52,127
90513,note_off,0,0,0,,7,,,79,127
90513,note_off,0,0,0,,7,,,67,127
90513,note_on,0,0,0,,0,,,72,127
90513,note_on,0,0,0,,0,,,84,127
90513,note_on,0,0,0,,0,,,48,127
90719,note_off,206,0,0,,0,,,48,127
90719,note_on,0,0,0,,7,,,43,127
90822,note_off,103,0,0,,0,,,84,127
90822,note_off,0,0,0,,0,,,72,127
90925,note_off,103,0,0,,7,,,43,127
90925,note_on,0,0,0,,2,,,74,127
90925,note_on,0,0,0,,2,,,86,127
90925,note_on,0,0,0,,12,,,47,127
91131,note_off,206,0,0,,12,,,47,127
91131,note_off,0,0,0,,2,,,86,127
91131,note_off,0,0,0,,2,,,74,127
91131,note_on,0,0,0,,12,,,71,127
91131,note_on,0,0,0,,12,,,83,127
91131,note_on,0,0,0,,7,,,43,127
91337,note_off,206,0,0,,7,,,43,127
91337,note_off,0,0,0,,12,,,83,127
91337,note_off,0,0,0,,12,,,71,127
91337,note_on,0,0,0,,7,,,67,127
91337,note_on,0,0,0,,7,,,79,127
91337,note_on,0,0,0,,0,,,48,127
91543,note_off,206,0,0,,0,,,48,127
91543,note_off,0,0,0,,7,,,79,127
91543,note_off,0,0,0,,7,,,67,127
91543,note_on,0,0,0,,4,,,64,127
91543,note_on,0,0,0,,4,,,76,127
91543,note_on,0,0,0,,4,,,52,127
91749,note_off,206,0,0,,4,,,52,127
91749,note_off,0,0,0,,4,,,76,127
91749,note_off,0,0,0,,4,,,64,127
91749,note_on,0,0,0,,0,,,72,127
91749,note_on,0,0,0,,0,,,84,127
91749,note_on,0,0,0,,0,,,48,127
91955,note_off,206,0,0,,0,,,48,127
91955,note_on,0,0,0,,7,,,43,127
92058,note_off,103,0,0,,0,,,84,127
92058,note_off,0,0,0,,0,,,72,127
92161,note_off,103,0,0,,7,,,43,127
92161,note_on,0,0,0,,2,,,74,127
92161,note_on,0,0,0,,2,,,86,127
92161,note_on,0,0,0,,12,,,47,127
92367,note_off,206,0,0,,12,,,47,127
92367,note_off,0,0,0,,2,,,86,127
92367,note_off,0,0,0,,2,,,74,127
92367,note_on,0,0,0,,12,,,71,127
92367,note_on,0,0,0,,12,,,83,127
92367,note_on,0,0,0,,7,,,43,127
92573,note_off,206,0,0,,7,,,43,127
92573,note_off,0,0,0,,12,,,83,127
92573,note_off,0,0,0,,12,,,71,127
92573,note_off,0,0,0,,7,,,55,127
92573,note_on,0,0,0,,7,,,67,127
92573,note_on,0,0,0,,7,,,79,127
92573,note_on,0,0,0,,0,,,48,127
92779,note_off,206,0,0,,0,,,48,127
92779,note_off,0,0,0,,7,,,79,127
92779,note_off,0,0,0,,7,,,67,127
92779,note_on,0,0,0,,5,,,65,127
92779,note_on,0,0,0,,5,,,77,127
92779,note_on,0,0,0,,2,,,50,127
92985,note_off,206,0,0,,2,,,50,127
92985,note_off,0,0,0,,5,,,77,127
92985,note_off,0,0,0,,5,,,65,127
92985,note_on,0,0,0,,4,,,64,127
92985,note_on,0,0,0,,4,,,76,127
92985,note_on,0,0,0,,4,,,52,127
93191,note_off,206,0,0,,4,,,52,127
93191,note_off,0,0,0,,4,,,76,127
93191,note_off,0,0,0,,4,,,64,127
93191,note_on,0,0,0,,2,,,62,127
93191,note_on,0,0,0,,2,,,74,127
93191,note_on,0,0,0,,5,,,53,127
93397,note_off,206,0,0,,5,,,53,127
93397,note_off,0,0,0,,2,,,74,127
93397,note_off,0,0,0,,2,,,62,127
93397,note_on,0,0,0,,0,,,60,127
93397,note_on,0,0,0,,0,,,72,127
93397,note_on,0,0,0,,7,,,55,127
93603,note_off,206,0,0,,7,,,55,127
93603,note_off,0,0,0,,0,,,72,127
93603,note_off,0,0,0,,0,,,60,127
93603,note_on,0,0,0,,12,,,59,127
93603,note_on,0,0,0,,12,,,71,127
93603,note_on,0,0,0,,7,,,43,127
93809,note_off,206,0,0,,7,,,43,127
93809,note_off,0,0,0,,12,,,71,127
93809,note_off,0,0,0,,12,,,59,127
93809,note_on,0,0,0,,0,,,60,127
93809,note_on,0,0,0,,0,,,72,127
93809,note_on,0,0,0,,0,,,48,127
94015,note_off,206,0,0,,0,,,48,127
94032,note_on,17,0,0,,4,,,52,127
94238,note_off,206,0,0,,4,,,52,127
94238,note_on,0,0,0,,0,,,48,127
94427,note_off,189,0,0,,0,,,72,127
94427,note_off,0,0,0,,0,,,60,127
94444,note_off,17,0,0,,0,,,48,127
94444,note_on,0,0,0,,5,,,41,127
94444,note_on,0,0,0,,5,,,53,127
94444,note_on,0,0,0,,10,,,81,127
94650,note_off,206,0,0,,10,,,81,127
94650,note_on,0,0,0,,7,,,79,127
94856,note_off,206,0,0,,7,,,79,127
94856,note_off,0,0,0,,5,,,53,127
94856,note_off,0,0,0,,5,,,41,127
94856,note_on,0,0,0,,7,,,43,127
94856,note_on,0,0,0,,7,,,55,127
94856,note_on,0,0,0,,12,,,71,127
95062,note_off,206,0,0,,12,,,71,127
95062,note_off,0,0,0,,7,,,43,127
95062,note_on,0,0,0,,0,,,48,127
95062,note_on,0,0,0,,0,,,72,127
95268,note_off,206,0,0,,0,,,48,127
95285,note_on,17,0,0,,4,,,52,127
95491,note_off,206,0,0,,4,,,52,127
95491,note_on,0,0,0,,0,,,48,127
95680,note_off,189,0,0,,0,,,72,127
95680,note_off,0,0,0,,7,,,55,127
95697,note_off,17,0,0,,0,,,48,127
95697,note_on,0,0,0,,10,,,69,127
95697,note_on,0,0,0,,5,,,53,127
95697,note_on,0,0,0,,5,,,41,127
95903,note_off,206,0,0,,10,,,69,127
95903,note_on,0,0,0,,7,,,67,127
96109,note_off,206,0,0,,7,,,67,127
96109,note_off,0,0,0,,5,,,41,127
96109,note_off,0,0,0,,5,,,53,127
96109,note_on,0,0,0,,12,,,59,127
96109,note_on,0,0,0,,7,,,55,127
96109,note_on,0,0,0,,7,,,43,127
96334,note_off,225,0,0,,7,,,43,127
96355,note_off,21,0,0,,7,,,55,127
96355,note_off,0,0,0,,12,,,59,127
96383,note_on,28,0,0,,0,,,60,127
96383,note_on,0,0,0,,4,,,64,127
96383,note_on,0,0,0,,10,,,57,127
96589,note_off,206,0,0,,4,,,64,127
96589,note_off,0,0,0,,0,,,60,127
96589,note_on,0,0,0,,12,,,59,127
96589,note_on,0,0,0,,2,,,62,127
96795,note_off,206,0,0,,2,,,62,127
96795,note_off,0,0,0,,12,,,59,127
96795,note_off,0,0,0,,10,,,57,127
96795,note_on,0,0,0,,0,,,60,127
96795,note_on,0,0,0,,4,,,64,127
96795,note_on,0,0,0,,4,,,52,127
97001,note_off,206,0,0,,4,,,52,127
97001,note_off,0,0,0,,4,,,64,127
97001,note_off,0,0,0,,0,,,60,127
97001,note_on,0,0,0,,2,,,62,127
97001,note_on,0,0,0,,5,,,65,127
97001,note_on,0,0,0,,5,,,53,127
97207,note_off,206,0,0,,5,,,65,127
97207,note_off,0,0,0,,2,,,62,127
97207,note_on,0,0,0,,0,,,60,127
97207,note_on,0,0,0,,4,,,64,127
97413,note_off,206,0,0,,4,,,64,127
97413,note_off,0,0,0,,0,,,60,127
97413,note_off,0,0,0,,5,,,53,127
97413,note_on,0,0,0,,12,,,59,127
97413,note_on,0,0,0,,2,,,62,127
97413,note_on,0,0,0,,7,,,55,127
97619,note_off,206,0,0,,7,,,55,127
97619,note_off,0,0,0,,2,,,62,127
97619,note_off,0,0,0,,12,,,59,127
97619,note_on,0,0,0,,12,,,59,127
97619,note_on,0,0,0,,2,,,62,127
97619,note_on,0,0,0,,0,,,48,127
98129,note_off,510,0,0,,12,,,59,127
98163,note_off,34,0,0,,2,,,62,127
98163,note_on,0,0,0,,0,,,60,127
100323,note_off,2160,0,0,,0,,,60,127
100323,note_off,0,0,0,,0,,,48,127
104448,end_of_track,4125,1,0,,,,,,
