tick,type,time,meta,track,program,channel,pitch,tempo,note,velocity
0,copyright,0,1,0,,,,,,
0,program_change,0,0,0,6,0,,,,
0,pitchwheel,0,0,0,,0,0,,,
0,program_change,0,0,0,6,1,,,,
0,pitchwheel,0,0,0,,1,-590,,,
0,program_change,0,0,0,6,2,,,,
0,pitchwheel,0,0,0,,2,-272,,,
0,program_change,0,0,0,6,3,,,,
0,pitchwheel,0,0,0,,3,-353,,,
0,program_change,0,0,0,6,4,,,,
0,pitchwheel,0,0,0,,4,-560,,,
0,program_change,0,0,0,6,5,,,,
0,pitchwheel,0,0,0,,5,-80,,,
0,program_change,0,0,0,6,6,,,,
0,pitchwheel,0,0,0,,6,-625,,,
0,program_change,0,0,0,6,7,,,,
0,pitchwheel,0,0,0,,7,-130,,,
0,program_change,0,0,0,6,8,,,,
0,pitchwheel,0,0,0,,8,-512,,,
0,program_change,0,0,0,6,10,,,,
0,pitchwheel,0,0,0,,10,-464,,,
0,program_change,0,0,0,6,11,,,,
0,pitchwheel,0,0,0,,11,-208,,,
0,program_change,0,0,0,6,12,,,,
0,pitchwheel,0,0,0,,12,-553,,,
0,set_tempo,0,1,0,,,,500000,,
120,note_on,120,0,0,,4,,,52,127
120,note_on,0,0,0,,4,,,64,127
120,note_on,0,0,0,,12,,,59,127
120,note_on,0,0,0,,10,,,81,127
239,note_off,119,0,0,,10,,,81,127
240,note_on,1,0,0,,8,,,80,127
359,note_off,119,0,0,,8,,,80,127
360,note_on,1,0,0,,6,,,78,127
479,note_off,119,0,0,,6,,,78,127
480,note_on,1,0,0,,4,,,76,127
599,note_off,119,0,0,,4,,,76,127
600,note_on,1,0,0,,12,,,71,127
719,note_off,119,0,0,,12,,,71,127
720,note_on,1,0,0,,3,,,75,127
839,note_off,119,0,0,,3,,,75,127
839,note_off,0,0,0,,12,,,59,127
839,note_off,0,0,0,,4,,,64,127
839,note_off,0,0,0,,4,,,52,127
840,note_on,1,0,0,,3,,,63,127
840,note_on,0,0,0,,6,,,66,127
840,note_on,0,0,0,,6,,,78,127
959,note_off,119,0,0,,6,,,78,127
960,note_on,1,0,0,,10,,,81,127
1079,note_off,119,0,0,,10,,,81,127
1079,note_off,0,0,0,,6,,,66,127
1079,note_off,0,0,0,,3,,,63,127
1080,note_on,1,0,0,,4,,,52,127
1080,note_on,0,0,0,,12,,,59,127
1080,note_on,0,0,0,,4,,,64,127
1080,note_on,0,0,0,,10,,,81,127
1199,note_off,119,0,0,,10,,,81,127
1200,note_on,1,0,0,,8,,,80,127
1319,note_off,119,0,0,,8,,,80,127
1320,note_on,1,0,0,,6,,,78,127
1439,note_off,119,0,0,,6,,,78,127
1440,note_on,1,0,0,,4,,,76,127
1559,note_off,119,0,0,,4,,,76,127
1560,note_on,1,0,0,,12,,,71,127
1679,note_off,119,0,0,,12,,,71,127
1680,note_on,1,0,0,,3,,,75,127
1799,note_off,119,0,0,,3,,,75,127
1799,note_off,0,0,0,,4,,,64,127
1799,note_off,0,0,0,,12,,,59,127
1799,note_off,0,0,0,,4,,,52,127
1800,note_on,1,0,0,,3,,,63,127
1800,note_on,0,0,0,,6,,,66,127
1800,note_on,0,0,0,,6,,,78,127
1919,note_off,119,0,0,,6,,,78,127
1920,note_on,1,0,0,,10,,,81,127
2039,note_off,119,0,0,,10,,,81,127
2039,note_off,0,0,0,,6,,,66,127
2039,note_off,0,0,0,,3,,,63,127
2040,note_on,1,0,0,,4,,,64,127
2040,note_on,0,0,0,,10,,,81,127
2159,note_off,119,0,0,,10,,,81,127
2160,note_on,1,0,0,,8,,,80,127
2279,note_off,119,0,0,,8,,,80,127
2279,note_off,0,0,0,,4,,,64,127
2280,note_on,1,0,0,,8,,,56,127
2280,note_on,0,0,0,,6,,,78,127
2399,note_off,119,0,0,,6,,,78,127
2400,note_on,1,0,0,,4,,,76,127
2519,note_off,119,0,0,,4,,,76,127
2519,note_off,0,0,0,,8,,,56,127
2520,note_on,1,0,0,,10,,,57,127
2520,note_on,0,0,0,,6,,,78,127
2639,note_off,119,0,0,,6,,,78,127
2640,note_on,1,0,0,,10,,,81,127
2759,note_off,119,0,0,,10,,,81,127
2759,note_off,0,0,0,,10,,,57,127
2760,note_on,1,0,0,,11,,,58,127
2760,note_on,0,0,0,,1,,,85,127
2879,note_off,119,0,0,,1,,,85,127
2880,note_on,1,0,0,,4,,,76,127
2999,note_off,119,0,0,,4,,,76,127
2999,note_off,0,0,0,,11,,,58,127
3000,note_on,1,0,0,,12,,,59,127
3000,note_on,0,0,0,,6,,,78,127
3059,note_off,59,0,0,,6,,,78,127
3060,note_on,1,0,0,,4,,,76,127
3119,note_off,59,0,0,,4,,,76,127
3120,note_on,1,0,0,,6,,,78,127
3179,note_off,59,0,0,,6,,,78,127
3180,note_on,1,0,0,,4,,,76,127
3239,note_off,59,0,0,,4,,,76,127
3240,note_on,1,0,0,,6,,,78,127
3299,note_off,59,0,0,,6,,,78,127
3300,note_on,1,0,0,,4,,,76,127
3359,note_off,59,0,0,,4,,,76,127
3360,note_on,1,0,0,,6,,,78,127
3419,note_off,59,0,0,,6,,,78,127
3420,note_on,1,0,0,,4,,,76,127
3479,note_off,59,0,0,,4,,,76,127
3480,note_on,1,0,0,,12,,,47,127
3480,note_on,0,0,0,,3,,,75,127
3840,note_off,360,0,0,,3,,,75,127
3875,note_off,35,0,0,,12,,,59,127
3955,note_off,80,0,0,,12,,,47,127
3960,note_on,5,0,0,,10,,,69,127
3960,note_on,0,0,0,,8,,,80,127
3960,note_on,0,0,0,,4,,,76,127
4079,note_off,119,0,0,,10,,,69,127
4080,note_on,1,0,0,,8,,,68,127
4199,note_off,119,0,0,,8,,,68,127
4200,note_on,1,0,0,,6,,,66,127
4319,note_off,119,0,0,,6,,,66,127
4320,note_on,1,0,0,,4,,,64,127
4439,note_off,119,0,0,,4,,,64,127
4440,note_on,1,0,0,,12,,,59,127
4500,note_off,60,0,0,,8,,,80,127
4548,note_off,48,0,0,,4,,,76,127
4559,note_off,11,0,0,,12,,,59,127
4560,note_on,1,0,0,,3,,,63,127
4560,note_on,0,0,0,,12,,,83,127
4679,note_off,119,0,0,,12,,,83,127
4679,note_off,0,0,0,,3,,,63,127
4680,note_on,1,0,0,,6,,,66,127
4680,note_on,0,0,0,,12,,,71,127
4799,note_off,119,0,0,,12,,,71,127
4799,note_off,0,0,0,,6,,,66,127
4800,note_on,1,0,0,,10,,,69,127
4800,note_on,0,0,0,,3,,,75,127
4919,note_off,119,0,0,,3,,,75,127
4919,note_off,0,0,0,,10,,,69,127
4920,note_on,1,0,0,,10,,,69,127
4920,note_on,0,0,0,,3,,,75,127
5039,note_off,119,0,0,,10,,,69,127
5040,note_on,1,0,0,,8,,,68,127
5159,note_off,119,0,0,,8,,,68,127
5159,note_off,0,0,0,,3,,,75,127
5160,note_on,1,0,0,,6,,,66,127
5160,note_on,0,0,0,,4,,,76,127
5279,note_off,119,0,0,,6,,,66,127
5280,note_on,1,0,0,,4,,,64,127
5399,note_off,119,0,0,,4,,,64,127
5400,note_on,1,0,0,,12,,,59,127
5510,note_off,110,0,0,,4,,,76,127
5519,note_off,9,0,0,,12,,,59,127
5520,note_on,1,0,0,,3,,,63,127
5520,note_on,0,0,0,,12,,,83,127
5639,note_off,119,0,0,,12,,,83,127
5639,note_off,0,0,0,,3,,,63,127
5640,note_on,1,0,0,,6,,,66,127
5640,note_on,0,0,0,,12,,,71,127
5759,note_off,119,0,0,,12,,,71,127
5759,note_off,0,0,0,,6,,,66,127
5760,note_on,1,0,0,,10,,,69,127
5760,note_on,0,0,0,,3,,,75,127
5879,note_off,119,0,0,,3,,,75,127
5879,note_off,0,0,0,,10,,,69,127
5880,note_on,1,0,0,,10,,,69,127
5880,note_on,0,0,0,,3,,,75,127
5999,note_off,119,0,0,,3,,,75,127
5999,note_off,0,0,0,,10,,,69,127
6000,note_on,1,0,0,,8,,,68,127
6000,note_on,0,0,0,,4,,,76,127
6119,note_off,119,0,0,,4,,,76,127
6119,note_off,0,0,0,,8,,,68,127
6120,note_on,1,0,0,,6,,,66,127
6120,note_on,0,0,0,,6,,,78,127
6239,note_off,119,0,0,,6,,,78,127
6239,note_off,0,0,0,,6,,,66,127
6240,note_on,1,0,0,,4,,,64,127
6240,note_on,0,0,0,,8,,,80,127
6359,note_off,119,0,0,,8,,,80,127
6359,note_off,0,0,0,,4,,,64,127
6360,note_on,1,0,0,,10,,,57,127
6360,note_on,0,0,0,,8,,,80,127
6479,note_off,119,0,0,,8,,,80,127
6480,note_on,1,0,0,,6,,,78,127
6599,note_off,119,0,0,,6,,,78,127
6599,note_off,0,0,0,,10,,,57,127
6600,note_on,1,0,0,,12,,,59,127
6600,note_on,0,0,0,,4,,,76,127
6719,note_off,119,0,0,,4,,,76,127
6720,note_on,1,0,0,,3,,,75,127
6839,note_off,119,0,0,,3,,,75,127
6839,note_off,0,0,0,,12,,,59,127
6840,note_on,1,0,0,,4,,,52,127
6840,note_on,0,0,0,,4,,,76,127
6959,note_off,119,0,0,,4,,,76,127
6960,note_on,1,0,0,,1,,,73,127
7079,note_off,119,0,0,,1,,,73,127
7080,note_on,1,0,0,,1,,,73,127
7199,note_off,119,0,0,,1,,,73,127
7200,note_on,1,0,0,,12,,,71,127
7319,note_off,119,0,0,,12,,,71,127
7320,note_on,1,0,0,,12,,,71,127
7439,note_off,119,0,0,,12,,,71,127
7440,note_on,1,0,0,,10,,,69,127
7559,note_off,119,0,0,,10,,,69,127
7559,note_off,0,0,0,,4,,,52,127
7560,note_on,1,0,0,,10,,,69,127
7679,note_off,119,0,0,,10,,,69,127
7680,note_on,1,0,0,,8,,,68,127
7799,note_off,119,0,0,,8,,,68,127
7800,note_on,1,0,0,,4,,,64,127
7800,note_on,0,0,0,,8,,,68,127
7919,note_off,119,0,0,,8,,,68,127
7920,note_on,1,0,0,,10,,,69,127
8039,note_off,119,0,0,,10,,,69,127
8039,note_off,0,0,0,,4,,,64,127
8040,note_on,1,0,0,,6,,,66,127
8040,note_on,0,0,0,,10,,,69,127
8159,note_off,119,0,0,,10,,,69,127
8160,note_on,1,0,0,,12,,,71,127
8279,note_off,119,0,0,,12,,,71,127
8279,note_off,0,0,0,,6,,,66,127
8280,note_on,1,0,0,,8,,,68,127
8280,note_on,0,0,0,,12,,,71,127
8399,note_off,119,0,0,,12,,,71,127
8400,note_on,1,0,0,,1,,,73,127
8519,note_off,119,0,0,,1,,,73,127
8519,note_off,0,0,0,,8,,,68,127
8520,note_on,1,0,0,,4,,,64,127
8520,note_on,0,0,0,,3,,,75,127
8639,note_off,119,0,0,,3,,,75,127
8640,note_on,1,0,0,,4,,,76,127
8759,note_off,119,0,0,,4,,,76,127
8759,note_off,0,0,0,,4,,,64,127
8760,note_on,1,0,0,,12,,,71,127
8760,note_on,0,0,0,,3,,,75,127
8879,note_off,119,0,0,,3,,,75,127
8880,note_on,1,0,0,,4,,,76,127
8999,note_off,119,0,0,,4,,,76,127
8999,note_off,0,0,0,,12,,,71,127
9000,note_on,1,0,0,,1,,,73,127
9000,note_on,0,0,0,,4,,,76,127
9119,note_off,119,0,0,,4,,,76,127
9120,note_on,1,0,0,,6,,,78,127
9239,note_off,119,0,0,,6,,,78,127
9239,note_off,0,0,0,,1,,,73,127
9240,note_on,1,0,0,,3,,,75,127
9240,note_on,0,0,0,,6,,,78,127
9359,note_off,119,0,0,,6,,,78,127
9360,note_on,1,0,0,,8,,,80,127
9479,note_off,119,0,0,,8,,,80,127
9479,note_off,0,0,0,,3,,,75,127
9480,note_on,1,0,0,,12,,,71,127
9480,note_on,0,0,0,,10,,,81,127
9599,note_off,119,0,0,,10,,,81,127
9600,note_on,1,0,0,,12,,,83,127
9712,note_off,112,0,0,,12,,,83,127
9718,note_off,6,0,0,,12,,,71,127
9719,note_on,1,0,0,,4,,,64,127
9719,note_on,0,0,0,,8,,,68,127
9838,note_off,119,0,0,,8,,,68,127
9839,note_on,1,0,0,,10,,,69,127
9958,note_off,119,0,0,,10,,,69,127
9958,note_off,0,0,0,,4,,,64,127
9959,note_on,1,0,0,,6,,,66,127
9959,note_on,0,0,0,,10,,,69,127
10078,note_off,119,0,0,,10,,,69,127
10079,note_on,1,0,0,,12,,,71,127
10198,note_off,119,0,0,,12,,,71,127
10198,note_off,0,0,0,,6,,,66,127
10199,note_on,1,0,0,,8,,,68,127
10199,note_on,0,0,0,,12,,,71,127
10318,note_off,119,0,0,,12,,,71,127
10319,note_on,1,0,0,,1,,,73,127
10438,note_off,119,0,0,,1,,,73,127
10438,note_off,0,0,0,,8,,,68,127
10439,note_on,1,0,0,,4,,,64,127
10439,note_on,0,0,0,,3,,,75,127
10558,note_off,119,0,0,,3,,,75,127
10559,note_on,1,0,0,,4,,,76,127
10671,note_off,112,0,0,,4,,,76,127
10677,note_off,6,0,0,,4,,,64,127
10678,note_on,1,0,0,,12,,,59,127
10678,note_on,0,0,0,,3,,,63,127
10797,note_off,119,0,0,,3,,,63,127
10798,note_on,1,0,0,,4,,,64,127
10917,note_off,119,0,0,,4,,,64,127
10917,note_off,0,0,0,,12,,,59,127
10918,note_on,1,0,0,,1,,,61,127
10918,note_on,0,0,0,,4,,,64,127
11037,note_off,119,0,0,,4,,,64,127
11038,note_on,1,0,0,,6,,,66,127
11157,note_off,119,0,0,,6,,,66,127
11157,note_off,0,0,0,,1,,,61,127
11158,note_on,1,0,0,,3,,,63,127
11158,note_on,0,0,0,,6,,,66,127
11277,note_off,119,0,0,,6,,,66,127
11278,note_on,1,0,0,,8,,,68,127
11397,note_off,119,0,0,,8,,,68,127
11397,note_off,0,0,0,,3,,,63,127
11398,note_on,1,0,0,,12,,,59,127
11398,note_on,0,0,0,,10,,,69,127
11517,note_off,119,0,0,,10,,,69,127
11518,note_on,1,0,0,,12,,,71,127
11630,note_off,112,0,0,,12,,,71,127
11636,note_off,6,0,0,,12,,,59,127
11637,note_on,1,0,0,,4,,,64,127
11637,note_on,0,0,0,,8,,,68,127
11756,note_off,119,0,0,,8,,,68,127
11757,note_on,1,0,0,,11,,,70,127
11876,note_off,119,0,0,,11,,,70,127
11876,note_off,0,0,0,,4,,,64,127
11877,note_on,1,0,0,,6,,,66,127
11877,note_on,0,0,0,,11,,,70,127
11996,note_off,119,0,0,,11,,,70,127
11997,note_on,1,0,0,,12,,,71,127
12116,note_off,119,0,0,,12,,,71,127
12116,note_off,0,0,0,,6,,,66,127
12117,note_on,1,0,0,,8,,,68,127
12117,note_on,0,0,0,,12,,,71,127
12236,note_off,119,0,0,,12,,,71,127
12237,note_on,1,0,0,,1,,,73,127
12356,note_off,119,0,0,,1,,,73,127
12356,note_off,0,0,0,,8,,,68,127
12357,note_on,1,0,0,,4,,,64,127
12357,note_on,0,0,0,,3,,,75,127
12476,note_off,119,0,0,,3,,,75,127
12477,note_on,1,0,0,,4,,,76,127
12596,note_off,119,0,0,,4,,,76,127
12596,note_off,0,0,0,,4,,,64,127
12597,note_on,1,0,0,,6,,,66,127
12597,note_on,0,0,0,,11,,,70,127
12716,note_off,119,0,0,,11,,,70,127
12717,note_on,1,0,0,,12,,,71,127
12836,note_off,119,0,0,,12,,,71,127
12836,note_off,0,0,0,,6,,,66,127
12837,note_on,1,0,0,,8,,,68,127
12837,note_on,0,0,0,,12,,,71,127
12956,note_off,119,0,0,,12,,,71,127
12957,note_on,1,0,0,,1,,,73,127
13076,note_off,119,0,0,,1,,,73,127
13076,note_off,0,0,0,,8,,,68,127
13077,note_on,1,0,0,,11,,,70,127
13077,note_on,0,0,0,,1,,,73,127
13196,note_off,119,0,0,,1,,,73,127
13197,note_on,1,0,0,,3,,,75,127
13316,note_off,119,0,0,,3,,,75,127
13316,note_off,0,0,0,,11,,,70,127
13317,note_on,1,0,0,,6,,,66,127
13317,note_on,0,0,0,,4,,,76,127
13436,note_off,119,0,0,,4,,,76,127
13437,note_on,1,0,0,,6,,,78,127
13556,note_off,119,0,0,,6,,,78,127
13556,note_off,0,0,0,,6,,,66,127
13557,note_on,1,0,0,,12,,,71,127
13557,note_on,0,0,0,,3,,,75,127
13676,note_off,119,0,0,,3,,,75,127
13677,note_on,1,0,0,,4,,,76,127
13796,note_off,119,0,0,,4,,,76,127
13796,note_off,0,0,0,,12,,,71,127
13797,note_on,1,0,0,,1,,,73,127
13797,note_on,0,0,0,,4,,,76,127
13916,note_off,119,0,0,,4,,,76,127
13917,note_on,1,0,0,,6,,,78,127
14036,note_off,119,0,0,,6,,,78,127
14036,note_off,0,0,0,,1,,,73,127
14037,note_on,1,0,0,,3,,,75,127
14037,note_on,0,0,0,,6,,,78,127
14156,note_off,119,0,0,,6,,,78,127
14157,note_on,1,0,0,,8,,,80,127
14276,note_off,119,0,0,,8,,,80,127
14276,note_off,0,0,0,,3,,,75,127
14277,note_on,1,0,0,,12,,,71,127
14277,note_on,0,0,0,,11,,,82,127
14396,note_off,119,0,0,,11,,,82,127
14397,note_on,1,0,0,,12,,,83,127
14509,note_off,112,0,0,,12,,,83,127
14515,note_off,6,0,0,,12,,,71,127
14516,note_on,1,0,0,,6,,,66,127
14516,note_on,0,0,0,,11,,,70,127
14635,note_off,119,0,0,,11,,,70,127
14636,note_on,1,0,0,,12,,,71,127
14755,note_off,119,0,0,,12,,,71,127
14755,note_off,0,0,0,,6,,,66,127
14756,note_on,1,0,0,,8,,,68,127
14756,note_on,0,0,0,,12,,,71,127
14875,note_off,119,0,0,,12,,,71,127
14876,note_on,1,0,0,,1,,,73,127
14995,note_off,119,0,0,,1,,,73,127
14995,note_off,0,0,0,,8,,,68,127
14996,note_on,1,0,0,,11,,,70,127
14996,note_on,0,0,0,,1,,,73,127
15115,note_off,119,0,0,,1,,,73,127
15116,note_on,1,0,0,,3,,,75,127
15235,note_off,119,0,0,,3,,,75,127
15235,note_off,0,0,0,,11,,,70,127
15236,note_on,1,0,0,,6,,,66,127
15236,note_on,0,0,0,,4,,,76,127
15356,note_on,120,0,0,,1,,,73,127
15474,note_off,118,0,0,,4,,,76,127
15475,note_off,1,0,0,,1,,,73,127
15475,note_off,0,0,0,,6,,,66,127
15476,note_on,1,0,0,,3,,,63,127
15476,note_on,0,0,0,,6,,,78,127
15595,note_off,119,0,0,,6,,,78,127
15596,note_on,1,0,0,,6,,,78,127
15715,note_off,119,0,0,,6,,,78,127
15716,note_on,1,0,0,,12,,,71,127
15716,note_on,0,0,0,,4,,,76,127
15776,note_off,60,0,0,,3,,,63,127
15835,note_off,59,0,0,,4,,,76,127
15836,note_on,1,0,0,,3,,,75,127
15955,note_off,119,0,0,,3,,,75,127
15956,note_on,1,0,0,,1,,,61,127
15956,note_on,0,0,0,,3,,,75,127
16016,note_off,60,0,0,,12,,,71,127
16075,note_off,59,0,0,,3,,,75,127
16076,note_on,1,0,0,,4,,,76,127
16195,note_off,119,0,0,,4,,,76,127
16196,note_on,1,0,0,,11,,,70,127
16196,note_on,0,0,0,,3,,,75,127
16256,note_off,60,0,0,,1,,,61,127
16315,note_off,59,0,0,,3,,,75,127
16316,note_on,1,0,0,,4,,,76,127
16435,note_off,119,0,0,,4,,,76,127
16436,note_on,1,0,0,,3,,,63,127
16436,note_on,0,0,0,,6,,,78,127
16496,note_off,60,0,0,,11,,,70,127
16555,note_off,59,0,0,,6,,,78,127
16556,note_on,1,0,0,,6,,,78,127
16675,note_off,119,0,0,,6,,,78,127
16676,note_on,1,0,0,,12,,,71,127
16676,note_on,0,0,0,,4,,,76,127
16795,note_off,119,0,0,,4,,,76,127
16796,note_off,1,0,0,,3,,,63,127
16796,note_on,0,0,0,,3,,,75,127
16915,note_off,119,0,0,,3,,,75,127
16916,note_on,1,0,0,,1,,,61,127
16916,note_on,0,0,0,,3,,,75,127
17035,note_off,119,0,0,,3,,,75,127
17036,note_off,1,0,0,,12,,,71,127
17036,note_on,0,0,0,,4,,,76,127
17155,note_off,119,0,0,,4,,,76,127
17156,note_on,1,0,0,,11,,,70,127
17156,note_on,0,0,0,,3,,,75,127
17275,note_off,119,0,0,,3,,,75,127
17276,note_off,1,0,0,,1,,,61,127
17276,note_on,0,0,0,,4,,,76,127
17395,note_off,119,0,0,,4,,,76,127
17396,note_on,1,0,0,,3,,,63,127
17396,note_on,0,0,0,,6,,,78,127
17515,note_off,119,0,0,,6,,,78,127
17516,note_off,1,0,0,,11,,,70,127
17516,note_on,0,0,0,,6,,,78,127
17635,note_off,119,0,0,,6,,,78,127
17636,note_on,1,0,0,,12,,,71,127
17636,note_on,0,0,0,,4,,,76,127
17755,note_off,119,0,0,,4,,,76,127
17756,note_on,1,0,0,,3,,,75,127
17816,note_off,60,0,0,,3,,,63,127
17875,note_off,59,0,0,,3,,,75,127
17876,note_on,1,0,0,,1,,,61,127
17876,note_on,0,0,0,,3,,,75,127
17995,note_off,119,0,0,,3,,,75,127
17996,note_on,1,0,0,,4,,,76,127
18056,note_off,60,0,0,,12,,,71,127
18115,note_off,59,0,0,,4,,,76,127
18116,note_on,1,0,0,,11,,,70,127
18116,note_on,0,0,0,,3,,,75,127
18235,note_off,119,0,0,,3,,,75,127
18236,note_on,1,0,0,,4,,,76,127
18296,note_off,60,0,0,,1,,,61,127
18355,note_off,59,0,0,,4,,,76,127
18355,note_off,0,0,0,,11,,,70,127
18356,note_on,1,0,0,,12,,,59,127
18356,note_on,0,0,0,,4,,,76,127
18415,note_off,59,0,0,,4,,,76,127
18416,note_on,1,0,0,,3,,,75,127
18475,note_off,59,0,0,,3,,,75,127
18476,note_on,1,0,0,,4,,,76,127
18535,note_off,59,0,0,,4,,,76,127
18536,note_on,1,0,0,,3,,,75,127
18595,note_off,59,0,0,,3,,,75,127
18595,note_off,0,0,0,,12,,,59,127
18596,note_on,1,0,0,,6,,,54,127
18596,note_on,0,0,0,,1,,,73,127
19196,note_off,600,0,0,,1,,,73,127
19315,note_off,119,0,0,,6,,,54,127
19316,note_on,1,0,0,,4,,,64,127
19316,note_on,0,0,0,,12,,,59,127
19316,note_on,0,0,0,,7,,,67,127
19316,note_on,0,0,0,,4,,,76,127
19435,note_off,119,0,0,,4,,,76,127
19436,note_on,1,0,0,,2,,,74,127
19555,note_off,119,0,0,,2,,,74,127
19556,note_on,1,0,0,,1,,,73,127
19675,note_off,119,0,0,,1,,,73,127
19676,note_on,1,0,0,,12,,,71,127
19795,note_off,119,0,0,,7,,,67,127
19796,note_on,1,0,0,,6,,,66,127
19915,note_off,119,0,0,,12,,,71,127
19916,note_on,1,0,0,,11,,,70,127
20035,note_off,119,0,0,,11,,,70,127
20035,note_off,0,0,0,,12,,,59,127
20035,note_off,0,0,0,,4,,,64,127
20036,note_on,1,0,0,,4,,,64,127
20036,note_on,0,0,0,,1,,,61,127
20036,note_on,0,0,0,,11,,,58,127
20036,note_on,0,0,0,,12,,,59,127
20036,note_on,0,0,0,,1,,,73,127
20155,note_off,119,0,0,,1,,,73,127
20156,note_on,1,0,0,,4,,,76,127
20275,note_off,119,0,0,,4,,,76,127
20275,note_off,0,0,0,,12,,,59,127
20275,note_off,0,0,0,,11,,,58,127
20275,note_off,0,0,0,,1,,,61,127
20275,note_off,0,0,0,,4,,,64,127
20275,note_off,0,0,0,,6,,,66,127
20276,note_on,1,0,0,,7,,,55,127
20276,note_on,0,0,0,,4,,,64,127
20276,note_on,0,0,0,,1,,,61,127
20276,note_on,0,0,0,,12,,,59,127
20276,note_on,0,0,0,,7,,,67,127
20276,note_on,0,0,0,,4,,,76,127
20395,note_off,119,0,0,,4,,,76,127
20396,note_on,1,0,0,,2,,,74,127
20515,note_off,119,0,0,,2,,,74,127
20516,note_on,1,0,0,,1,,,73,127
20635,note_off,119,0,0,,1,,,73,127
20636,note_on,1,0,0,,12,,,71,127
20755,note_off,119,0,0,,7,,,67,127
20756,note_on,1,0,0,,6,,,66,127
20875,note_off,119,0,0,,12,,,71,127
20876,note_on,1,0,0,,11,,,70,127
20995,note_off,119,0,0,,11,,,70,127
20995,note_off,0,0,0,,12,,,59,127
20995,note_off,0,0,0,,1,,,61,127
20995,note_off,0,0,0,,4,,,64,127
20995,note_off,0,0,0,,7,,,55,127
20996,note_on,1,0,0,,6,,,54,127
20996,note_on,0,0,0,,4,,,64,127
20996,note_on,0,0,0,,1,,,61,127
20996,note_on,0,0,0,,12,,,59,127
20996,note_on,0,0,0,,1,,,73,127
21115,note_off,119,0,0,,1,,,73,127
21116,note_on,1,0,0,,4,,,76,127
21235,note_off,119,0,0,,4,,,76,127
21235,note_off,0,0,0,,12,,,59,127
21235,note_off,0,0,0,,1,,,61,127
21235,note_off,0,0,0,,4,,,64,127
21235,note_off,0,0,0,,6,,,54,127
21235,note_off,0,0,0,,6,,,66,127
21236,note_on,1,0,0,,1,,,61,127
21236,note_on,0,0,0,,7,,,55,127
21236,note_on,0,0,0,,12,,,59,127
21236,note_on,0,0,0,,4,,,64,127
21236,note_on,0,0,0,,7,,,67,127
21236,note_on,0,0,0,,4,,,76,127
21355,note_off,119,0,0,,4,,,76,127
21356,note_on,1,0,0,,2,,,74,127
21475,note_off,119,0,0,,2,,,74,127
21476,note_on,1,0,0,,1,,,73,127
21595,note_off,119,0,0,,1,,,73,127
21596,note_on,1,0,0,,12,,,71,127
21715,note_off,119,0,0,,7,,,67,127
21716,note_on,1,0,0,,6,,,66,127
21835,note_off,119,0,0,,12,,,71,127
21836,note_on,1,0,0,,11,,,70,127
21955,note_off,119,0,0,,11,,,70,127
21955,note_off,0,0,0,,4,,,64,127
21955,note_off,0,0,0,,12,,,59,127
21955,note_off,0,0,0,,7,,,55,127
21955,note_off,0,0,0,,1,,,61,127
21956,note_on,1,0,0,,6,,,54,127
21956,note_on,0,0,0,,1,,,61,127
21956,note_on,0,0,0,,4,,,64,127
21956,note_on,0,0,0,,12,,,59,127
21956,note_on,0,0,0,,1,,,73,127
22075,note_off,119,0,0,,1,,,73,127
22076,note_on,1,0,0,,4,,,76,127
22195,note_off,119,0,0,,4,,,76,127
22195,note_off,0,0,0,,12,,,59,127
22195,note_off,0,0,0,,4,,,64,127
22195,note_off,0,0,0,,1,,,61,127
22195,note_off,0,0,0,,6,,,54,127
22195,note_off,0,0,0,,6,,,66,127
22196,note_on,1,0,0,,4,,,64,127
22196,note_on,0,0,0,,4,,,52,127
22196,note_on,0,0,0,,12,,,59,127
22196,note_on,0,0,0,,1,,,61,127
22196,note_on,0,0,0,,4,,,76,127
22196,note_on,0,0,0,,12,,,71,127
22196,note_on,0,0,0,,10,,,81,127
22315,note_off,119,0,0,,10,,,81,127
22316,note_on,1,0,0,,7,,,79,127
22435,note_off,119,0,0,,7,,,79,127
22435,note_off,0,0,0,,4,,,76,127
22436,note_on,1,0,0,,6,,,78,127
22555,note_off,119,0,0,,6,,,78,127
22556,note_on,1,0,0,,4,,,76,127
22674,note_off,118,0,0,,12,,,71,127
22675,note_off,1,0,0,,4,,,76,127
22676,note_on,1,0,0,,12,,,71,127
22795,note_off,119,0,0,,12,,,71,127
22796,note_on,1,0,0,,11,,,70,127
22915,note_off,119,0,0,,11,,,70,127
22915,note_off,0,0,0,,1,,,61,127
22915,note_off,0,0,0,,12,,,59,127
22915,note_off,0,0,0,,4,,,52,127
22915,note_off,0,0,0,,4,,,64,127
22916,note_on,1,0,0,,6,,,54,127
22916,note_on,0,0,0,,12,,,59,127
22916,note_on,0,0,0,,1,,,61,127
22916,note_on,0,0,0,,4,,,64,127
22916,note_on,0,0,0,,1,,,73,127
23036,note_on,120,0,0,,4,,,76,127
23155,note_off,119,0,0,,4,,,76,127
23155,note_off,0,0,0,,1,,,73,127
23155,note_off,0,0,0,,4,,,64,127
23155,note_off,0,0,0,,1,,,61,127
23155,note_off,0,0,0,,12,,,59,127
23155,note_off,0,0,0,,6,,,54,127
23156,note_on,1,0,0,,4,,,52,127
23156,note_on,0,0,0,,4,,,64,127
23156,note_on,0,0,0,,12,,,59,127
23156,note_on,0,0,0,,1,,,61,127
23156,note_on,0,0,0,,4,,,76,127
23156,note_on,0,0,0,,10,,,81,127
23156,note_on,0,0,0,,12,,,71,127
23275,note_off,119,0,0,,10,,,81,127
23276,note_on,1,0,0,,7,,,79,127
23395,note_off,119,0,0,,7,,,79,127
23395,note_off,0,0,0,,4,,,76,127
23396,note_on,1,0,0,,6,,,78,127
23515,note_off,119,0,0,,6,,,78,127
23516,note_on,1,0,0,,4,,,76,127
23634,note_off,118,0,0,,12,,,71,127
23635,note_off,1,0,0,,4,,,76,127
23636,note_on,1,0,0,,12,,,71,127
23755,note_off,119,0,0,,12,,,71,127
23756,note_on,1,0,0,,11,,,70,127
23875,note_off,119,0,0,,11,,,70,127
23875,note_off,0,0,0,,1,,,61,127
23875,note_off,0,0,0,,12,,,59,127
23875,note_off,0,0,0,,4,,,64,127
23875,note_off,0,0,0,,4,,,52,127
23876,note_on,1,0,0,,6,,,54,127
23876,note_on,0,0,0,,4,,,64,127
23876,note_on,0,0,0,,1,,,61,127
23876,note_on,0,0,0,,12,,,59,127
23876,note_on,0,0,0,,1,,,73,127
23995,note_off,119,0,0,,1,,,73,127
23996,note_on,1,0,0,,4,,,76,127
24115,note_off,119,0,0,,4,,,76,127
24115,note_off,0,0,0,,12,,,59,127
24115,note_off,0,0,0,,1,,,61,127
24115,note_off,0,0,0,,4,,,64,127
24115,note_off,0,0,0,,6,,,54,127
24116,note_on,1,0,0,,12,,,59,127
24116,note_on,0,0,0,,4,,,52,127
24116,note_on,0,0,0,,4,,,64,127
24116,note_on,0,0,0,,1,,,61,127
24116,note_on,0,0,0,,1,,,85,127
24116,note_on,0,0,0,,4,,,76,127
24235,note_off,119,0,0,,1,,,85,127
24236,note_on,1,0,0,,12,,,83,127
24355,note_off,119,0,0,,12,,,83,127
24356,note_on,1,0,0,,11,,,82,127
24475,note_off,119,0,0,,11,,,82,127
24476,note_on,1,0,0,,12,,,83,127
24595,note_off,119,0,0,,12,,,83,127
24596,note_on,1,0,0,,4,,,88,127
24715,note_off,119,0,0,,4,,,76,127
24716,note_on,1,0,0,,7,,,79,127
24835,note_off,119,0,0,,7,,,79,127
24835,note_off,0,0,0,,1,,,61,127
24835,note_off,0,0,0,,4,,,64,127
24835,note_off,0,0,0,,4,,,52,127
24835,note_off,0,0,0,,12,,,59,127
24836,note_on,1,0,0,,6,,,54,127
24836,note_on,0,0,0,,4,,,64,127
24836,note_on,0,0,0,,1,,,61,127
24836,note_on,0,0,0,,12,,,59,127
24836,note_on,0,0,0,,6,,,78,127
24955,note_off,119,0,0,,6,,,78,127
24956,note_off,1,0,0,,4,,,88,127
24956,note_on,0,0,0,,11,,,82,127
25075,note_off,119,0,0,,11,,,82,127
25075,note_off,0,0,0,,12,,,59,127
25075,note_off,0,0,0,,1,,,61,127
25075,note_off,0,0,0,,4,,,64,127
25075,note_off,0,0,0,,6,,,54,127
25076,note_on,1,0,0,,7,,,55,127
25076,note_on,0,0,0,,4,,,64,127
25076,note_on,0,0,0,,12,,,59,127
25076,note_on,0,0,0,,1,,,61,127
25076,note_on,0,0,0,,1,,,85,127
25076,note_on,0,0,0,,4,,,76,127
25195,note_off,119,0,0,,1,,,85,127
25196,note_on,1,0,0,,12,,,83,127
25315,note_off,119,0,0,,12,,,83,127
25316,note_on,1,0,0,,11,,,82,127
25435,note_off,119,0,0,,11,,,82,127
25436,note_on,1,0,0,,12,,,83,127
25555,note_off,119,0,0,,12,,,83,127
25556,note_on,1,0,0,,4,,,88,127
25675,note_off,119,0,0,,4,,,76,127
25676,note_on,1,0,0,,7,,,79,127
25795,note_off,119,0,0,,7,,,79,127
25795,note_off,0,0,0,,1,,,61,127
25795,note_off,0,0,0,,12,,,59,127
25795,note_off,0,0,0,,4,,,64,127
25795,note_off,0,0,0,,7,,,55,127
25796,note_on,1,0,0,,6,,,54,127
25796,note_on,0,0,0,,4,,,64,127
25796,note_on,0,0,0,,1,,,61,127
25796,note_on,0,0,0,,12,,,59,127
25796,note_on,0,0,0,,6,,,78,127
25915,note_off,119,0,0,,6,,,78,127
25916,note_off,1,0,0,,4,,,88,127
25916,note_on,0,0,0,,4,,,76,127
26035,note_off,119,0,0,,4,,,76,127
26035,note_off,0,0,0,,12,,,59,127
26035,note_off,0,0,0,,1,,,61,127
26035,note_off,0,0,0,,4,,,64,127
26035,note_off,0,0,0,,6,,,54,127
26036,note_on,1,0,0,,12,,,59,127
26036,note_on,0,0,0,,4,,,76,127
26095,note_off,59,0,0,,4,,,76,127
26096,note_on,1,0,0,,2,,,74,127
26155,note_off,59,0,0,,2,,,74,127
26156,note_on,1,0,0,,4,,,76,127
26215,note_off,59,0,0,,4,,,76,127
26216,note_on,1,0,0,,2,,,74,127
26275,note_off,59,0,0,,2,,,74,127
26275,note_off,0,0,0,,12,,,59,127
26276,note_on,1,0,0,,6,,,54,127
26276,note_on,0,0,0,,1,,,73,127
26576,note_off,300,0,0,,1,,,73,127
26636,note_on,60,0,0,,2,,,74,127
26755,note_off,119,0,0,,2,,,74,127
26755,note_off,0,0,0,,6,,,54,127
26756,note_on,1,0,0,,6,,,78,127
26756,note_on,0,0,0,,1,,,73,127
26875,note_off,119,0,0,,1,,,73,127
26876,note_on,1,0,0,,11,,,70,127
26995,note_off,119,0,0,,11,,,70,127
26995,note_off,0,0,0,,6,,,78,127
26996,note_on,1,0,0,,7,,,79,127
26996,note_on,0,0,0,,11,,,70,127
26996,note_on,0,0,0,,7,,,67,127
27115,note_off,119,0,0,,11,,,70,127
27116,note_on,1,0,0,,12,,,71,127
27235,note_off,119,0,0,,12,,,71,127
27235,note_off,0,0,0,,7,,,79,127
27236,note_on,1,0,0,,4,,,76,127
27236,note_on,0,0,0,,11,,,70,127
27355,note_off,119,0,0,,11,,,70,127
27356,note_on,1,0,0,,12,,,71,127
27475,note_off,119,0,0,,12,,,71,127
27475,note_off,0,0,0,,4,,,76,127
27475,note_off,0,0,0,,7,,,67,127
27476,note_on,1,0,0,,6,,,78,127
27476,note_on,0,0,0,,6,,,66,127
27476,note_on,0,0,0,,12,,,71,127
27595,note_off,119,0,0,,12,,,71,127
27596,note_on,1,0,0,,1,,,73,127
27715,note_off,119,0,0,,1,,,73,127
27715,note_off,0,0,0,,6,,,78,127
27716,note_on,1,0,0,,1,,,61,127
27716,note_on,0,0,0,,2,,,74,127
27835,note_off,119,0,0,,2,,,74,127
27836,note_on,1,0,0,,4,,,76,127
27955,note_off,119,0,0,,4,,,76,127
27955,note_off,0,0,0,,1,,,61,127
27956,note_on,1,0,0,,2,,,62,127
27956,note_on,0,0,0,,4,,,76,127
28075,note_off,119,0,0,,4,,,76,127
28076,note_on,1,0,0,,2,,,74,127
28195,note_off,119,0,0,,2,,,74,127
28195,note_off,0,0,0,,2,,,62,127
28196,note_on,1,0,0,,11,,,58,127
28196,note_on,0,0,0,,2,,,74,127
28315,note_off,119,0,0,,2,,,74,127
28316,note_on,1,0,0,,1,,,73,127
28435,note_off,119,0,0,,1,,,73,127
28435,note_off,0,0,0,,11,,,58,127
28436,note_on,1,0,0,,12,,,59,127
28436,note_on,0,0,0,,2,,,74,127
28436,note_on,0,0,0,,4,,,76,127
28555,note_off,119,0,0,,4,,,76,127
28555,note_off,0,0,0,,2,,,74,127
28556,note_on,1,0,0,,1,,,73,127
28675,note_off,119,0,0,,1,,,73,127
28675,note_off,0,0,0,,12,,,59,127
28676,note_on,1,0,0,,6,,,78,127
28676,note_on,0,0,0,,12,,,71,127
28795,note_off,119,0,0,,12,,,71,127
28796,note_on,1,0,0,,11,,,70,127
28915,note_off,119,0,0,,11,,,70,127
28915,note_off,0,0,0,,6,,,78,127
28915,note_off,0,0,0,,6,,,66,127
28916,note_on,1,0,0,,7,,,79,127
28916,note_on,0,0,0,,7,,,67,127
28916,note_on,0,0,0,,11,,,70,127
29035,note_off,119,0,0,,11,,,70,127
29036,note_on,1,0,0,,12,,,71,127
29155,note_off,119,0,0,,12,,,71,127
29155,note_off,0,0,0,,7,,,79,127
29156,note_on,1,0,0,,4,,,76,127
29156,note_on,0,0,0,,11,,,70,127
29275,note_off,119,0,0,,11,,,70,127
29276,note_on,1,0,0,,12,,,71,127
29395,note_off,119,0,0,,12,,,71,127
29395,note_off,0,0,0,,4,,,76,127
29395,note_off,0,0,0,,7,,,67,127
29396,note_on,1,0,0,,6,,,78,127
29396,note_on,0,0,0,,12,,,71,127
29396,note_on,0,0,0,,6,,,66,127
29515,note_off,119,0,0,,12,,,71,127
29516,note_on,1,0,0,,1,,,73,127
29635,note_off,119,0,0,,1,,,73,127
29635,note_off,0,0,0,,6,,,78,127
29636,note_on,1,0,0,,1,,,61,127
29636,note_on,0,0,0,,2,,,74,127
29755,note_off,119,0,0,,2,,,74,127
29756,note_on,1,0,0,,4,,,76,127
29875,note_off,119,0,0,,4,,,76,127
29875,note_off,0,0,0,,1,,,61,127
29876,note_on,1,0,0,,2,,,62,127
29876,note_on,0,0,0,,4,,,76,127
29995,note_off,119,0,0,,4,,,76,127
29996,note_on,1,0,0,,2,,,74,127
30115,note_off,119,0,0,,2,,,74,127
30115,note_off,0,0,0,,2,,,62,127
30116,note_on,1,0,0,,11,,,58,127
30116,note_on,0,0,0,,2,,,74,127
30235,note_off,119,0,0,,2,,,74,127
30236,note_on,1,0,0,,1,,,73,127
30355,note_off,119,0,0,,1,,,73,127
30355,note_off,0,0,0,,11,,,58,127
30356,note_on,1,0,0,,12,,,59,127
30356,note_on,0,0,0,,2,,,74,127
30356,note_on,0,0,0,,4,,,76,127
30475,note_off,119,0,0,,4,,,76,127
30475,note_off,0,0,0,,2,,,74,127
30476,note_on,1,0,0,,1,,,73,127
30595,note_off,119,0,0,,1,,,73,127
30595,note_off,0,0,0,,12,,,59,127
30596,note_on,1,0,0,,6,,,78,127
30596,note_on,0,0,0,,12,,,71,127
30715,note_off,119,0,0,,12,,,71,127
30716,note_on,1,0,0,,11,,,70,127
30835,note_off,119,0,0,,11,,,70,127
30835,note_off,0,0,0,,6,,,78,127
30835,note_off,0,0,0,,6,,,66,127
30836,note_on,1,0,0,,7,,,79,127
30836,note_on,0,0,0,,12,,,71,127
30836,note_on,0,0,0,,7,,,67,127
30955,note_off,119,0,0,,12,,,71,127
30956,note_on,1,0,0,,11,,,70,127
31075,note_off,119,0,0,,11,,,70,127
31075,note_off,0,0,0,,7,,,79,127
31076,note_on,1,0,0,,4,,,76,127
31076,note_on,0,0,0,,12,,,71,127
31195,note_off,119,0,0,,12,,,71,127
31196,note_on,1,0,0,,1,,,73,127
31315,note_off,119,0,0,,1,,,73,127
31315,note_off,0,0,0,,4,,,76,127
31315,note_off,0,0,0,,7,,,67,127
31316,note_on,1,0,0,,6,,,78,127
31316,note_on,0,0,0,,11,,,70,127
31316,note_on,0,0,0,,6,,,66,127
31435,note_off,119,0,0,,11,,,70,127
31436,note_on,1,0,0,,1,,,73,127
31555,note_off,119,0,0,,1,,,73,127
31555,note_off,0,0,0,,6,,,78,127
31556,note_on,1,0,0,,6,,,54,127
31556,note_on,0,0,0,,6,,,42,127
31556,note_on,0,0,0,,12,,,71,127
31675,note_off,119,0,0,,12,,,71,127
31676,note_on,1,0,0,,11,,,70,127
31795,note_off,119,0,0,,11,,,70,127
31795,note_off,0,0,0,,6,,,42,127
31795,note_off,0,0,0,,6,,,54,127
31795,note_off,0,0,0,,6,,,66,127
31796,note_on,1,0,0,,7,,,43,127
31796,note_on,0,0,0,,7,,,55,127
31796,note_on,0,0,0,,12,,,71,127
31796,note_on,0,0,0,,7,,,67,127
31915,note_off,119,0,0,,12,,,71,127
31916,note_on,1,0,0,,11,,,70,127
32035,note_off,119,0,0,,11,,,70,127
32035,note_off,0,0,0,,7,,,55,127
32035,note_off,0,0,0,,7,,,43,127
32036,note_on,1,0,0,,4,,,52,127
32036,note_on,0,0,0,,4,,,40,127
32036,note_on,0,0,0,,12,,,71,127
32155,note_off,119,0,0,,12,,,71,127
32156,note_on,1,0,0,,1,,,73,127
32275,note_off,119,0,0,,1,,,73,127
32275,note_off,0,0,0,,4,,,40,127
32275,note_off,0,0,0,,4,,,52,127
32275,note_off,0,0,0,,7,,,67,127
32276,note_on,1,0,0,,6,,,42,127
32276,note_on,0,0,0,,6,,,54,127
32276,note_on,0,0,0,,6,,,66,127
32276,note_on,0,0,0,,11,,,70,127
32395,note_off,119,0,0,,11,,,70,127
32395,note_off,0,0,0,,6,,,66,127
32396,note_on,1,0,0,,6,,,66,127
32515,note_off,119,0,0,,6,,,66,127
32515,note_off,0,0,0,,6,,,54,127
32515,note_off,0,0,0,,6,,,42,127
32516,note_on,1,0,0,,4,,,40,127
32516,note_on,0,0,0,,4,,,52,127
32516,note_on,0,0,0,,12,,,71,127
32516,note_on,0,0,0,,7,,,67,127
32635,note_off,119,0,0,,12,,,71,127
32636,note_on,1,0,0,,1,,,73,127
32755,note_off,119,0,0,,1,,,73,127
32755,note_off,0,0,0,,7,,,67,127
32755,note_off,0,0,0,,4,,,52,127
32755,note_off,0,0,0,,4,,,40,127
32756,note_on,1,0,0,,6,,,42,127
32756,note_on,0,0,0,,6,,,54,127
32756,note_on,0,0,0,,11,,,70,127
32875,note_off,119,0,0,,11,,,70,127
32876,note_on,1,0,0,,6,,,66,127
32995,note_off,119,0,0,,6,,,66,127
32995,note_off,0,0,0,,6,,,54,127
32995,note_off,0,0,0,,6,,,42,127
32996,note_on,1,0,0,,12,,,59,127
32996,note_on,0,0,0,,12,,,47,127
32996,note_on,0,0,0,,2,,,74,127
32996,note_on,0,0,0,,12,,,71,127
33115,note_off,119,0,0,,12,,,71,127
33116,note_on,1,0,0,,10,,,69,127
33235,note_off,119,0,0,,10,,,69,127
33235,note_off,0,0,0,,12,,,47,127
33235,note_off,0,0,0,,12,,,59,127
33236,note_on,1,0,0,,4,,,40,127
33236,note_on,0,0,0,,4,,,52,127
33236,note_on,0,0,0,,7,,,67,127
33355,note_off,119,0,0,,7,,,67,127
33356,note_on,1,0,0,,12,,,71,127
33475,note_off,119,0,0,,12,,,71,127
33475,note_off,0,0,0,,4,,,52,127
33475,note_off,0,0,0,,4,,,40,127
33475,note_off,0,0,0,,2,,,74,127
33476,note_on,1,0,0,,10,,,57,127
33476,note_on,0,0,0,,10,,,45,127
33476,note_on,0,0,0,,1,,,73,127
33476,note_on,0,0,0,,10,,,69,127
33595,note_off,119,0,0,,10,,,69,127
33596,note_on,1,0,0,,7,,,67,127
33715,note_off,119,0,0,,7,,,67,127
33715,note_off,0,0,0,,10,,,45,127
33715,note_off,0,0,0,,10,,,57,127
33716,note_on,1,0,0,,2,,,50,127
33716,note_on,0,0,0,,2,,,38,127
33716,note_on,0,0,0,,6,,,66,127
33835,note_off,119,0,0,,6,,,66,127
33836,note_on,1,0,0,,10,,,69,127
33955,note_off,119,0,0,,10,,,69,127
33955,note_off,0,0,0,,2,,,38,127
33955,note_off,0,0,0,,2,,,50,127
33955,note_off,0,0,0,,1,,,73,127
33956,note_on,1,0,0,,7,,,55,127
33956,note_on,0,0,0,,7,,,43,127
33956,note_on,0,0,0,,12,,,71,127
33956,note_on,0,0,0,,7,,,67,127
34075,note_off,119,0,0,,7,,,67,127
34076,note_on,1,0,0,,6,,,66,127
34195,note_off,119,0,0,,6,,,66,127
34195,note_off,0,0,0,,7,,,43,127
34195,note_off,0,0,0,,7,,,55,127
34196,note_on,1,0,0,,1,,,49,127
34196,note_on,0,0,0,,1,,,37,127
34196,note_on,0,0,0,,4,,,64,127
34315,note_off,119,0,0,,4,,,64,127
34316,note_on,1,0,0,,7,,,67,127
34435,note_off,119,0,0,,7,,,67,127
34435,note_off,0,0,0,,1,,,37,127
34435,note_off,0,0,0,,1,,,49,127
34435,note_off,0,0,0,,12,,,71,127
34436,note_on,1,0,0,,6,,,54,127
34436,note_on,0,0,0,,6,,,42,127
34436,note_on,0,0,0,,6,,,66,127
34436,note_on,0,0,0,,11,,,70,127
34555,note_off,119,0,0,,6,,,66,127
34556,note_on,1,0,0,,4,,,64,127
34675,note_off,119,0,0,,4,,,64,127
34675,note_off,0,0,0,,11,,,70,127
34675,note_off,0,0,0,,6,,,42,127
34675,note_off,0,0,0,,6,,,54,127
34676,note_on,1,0,0,,12,,,59,127
34676,note_on,0,0,0,,12,,,47,127
34676,note_on,0,0,0,,12,,,71,127
34676,note_on,0,0,0,,2,,,62,127
34795,note_off,119,0,0,,12,,,71,127
34796,note_on,1,0,0,,1,,,73,127
34915,note_off,119,0,0,,1,,,73,127
34916,note_on,1,0,0,,2,,,74,127
35035,note_off,119,0,0,,2,,,74,127
35036,note_off,1,0,0,,2,,,62,127
35036,note_on,0,0,0,,1,,,73,127
35155,note_off,119,0,0,,1,,,73,127
35156,note_on,1,0,0,,12,,,71,127
35275,note_off,119,0,0,,12,,,71,127
35276,note_on,1,0,0,,10,,,69,127
35395,note_off,119,0,0,,10,,,69,127
35395,note_off,0,0,0,,12,,,47,127
35396,note_on,1,0,0,,2,,,50,127
35396,note_on,0,0,0,,7,,,67,127
35515,note_off,119,0,0,,7,,,67,127
35516,note_on,1,0,0,,6,,,66,127
35635,note_off,119,0,0,,6,,,66,127
35635,note_off,0,0,0,,2,,,50,127
35635,note_off,0,0,0,,12,,,59,127
35636,note_on,1,0,0,,12,,,59,127
35636,note_on,0,0,0,,4,,,52,127
35636,note_on,0,0,0,,7,,,67,127
35756,note_on,120,0,0,,7,,,79,127
35875,note_off,119,0,0,,7,,,79,127
35875,note_off,0,0,0,,7,,,67,127
35875,note_off,0,0,0,,12,,,59,127
35876,note_on,1,0,0,,4,,,64,127
35876,note_on,0,0,0,,6,,,78,127
35995,note_off,119,0,0,,6,,,78,127
35996,note_on,1,0,0,,4,,,76,127
36115,note_off,119,0,0,,4,,,76,127
36116,note_on,1,0,0,,2,,,74,127
36235,note_off,119,0,0,,2,,,74,127
36236,note_on,1,0,0,,1,,,73,127
36355,note_off,119,0,0,,1,,,73,127
36355,note_off,0,0,0,,4,,,64,127
36355,note_off,0,0,0,,4,,,52,127
36356,note_on,1,0,0,,6,,,54,127
36356,note_on,0,0,0,,12,,,71,127
36475,note_off,119,0,0,,12,,,71,127
36476,note_on,1,0,0,,11,,,70,127
36595,note_off,119,0,0,,11,,,70,127
36595,note_off,0,0,0,,6,,,54,127
36596,note_on,1,0,0,,7,,,55,127
36596,note_on,0,0,0,,12,,,71,127
36716,note_on,120,0,0,,12,,,83,127
36835,note_off,119,0,0,,12,,,83,127
36836,note_on,1,0,0,,4,,,52,127
36836,note_on,0,0,0,,10,,,81,127
36896,note_off,60,0,0,,7,,,55,127
36955,note_off,59,0,0,,10,,,81,127
36956,note_on,1,0,0,,7,,,79,127
37075,note_off,119,0,0,,7,,,79,127
37075,note_off,0,0,0,,4,,,52,127
37075,note_off,0,0,0,,12,,,71,127
37076,note_on,1,0,0,,11,,,58,127
37076,note_on,0,0,0,,6,,,78,127
37195,note_off,119,0,0,,6,,,78,127
37196,note_on,1,0,0,,4,,,76,127
37315,note_off,119,0,0,,4,,,76,127
37316,note_on,1,0,0,,6,,,54,127
37316,note_on,0,0,0,,2,,,74,127
37376,note_off,60,0,0,,11,,,58,127
37435,note_off,59,0,0,,2,,,74,127
37436,note_on,1,0,0,,1,,,73,127
37555,note_off,119,0,0,,1,,,73,127
37555,note_off,0,0,0,,6,,,54,127
37556,note_on,1,0,0,,12,,,59,127
37556,note_on,0,0,0,,2,,,74,127
37676,note_on,120,0,0,,2,,,86,127
37795,note_off,119,0,0,,2,,,86,127
37796,note_on,1,0,0,,12,,,47,127
37796,note_on,0,0,0,,1,,,85,127
37915,note_off,119,0,0,,1,,,85,127
37916,note_on,1,0,0,,12,,,83,127
38035,note_off,119,0,0,,12,,,83,127
38035,note_off,0,0,0,,2,,,74,127
38036,note_on,1,0,0,,11,,,82,127
38155,note_off,119,0,0,,11,,,82,127
38156,note_on,1,0,0,,7,,,79,127
38275,note_off,119,0,0,,7,,,79,127
38275,note_off,0,0,0,,12,,,47,127
38275,note_off,0,0,0,,12,,,59,127
38276,note_on,1,0,0,,1,,,61,127
38276,note_on,0,0,0,,6,,,78,127
38395,note_off,119,0,0,,6,,,78,127
38396,note_on,1,0,0,,4,,,76,127
38515,note_off,119,0,0,,4,,,76,127
38515,note_off,0,0,0,,1,,,61,127
38516,note_on,1,0,0,,2,,,62,127
38516,note_on,0,0,0,,6,,,78,127
38636,note_on,120,0,0,,4,,,76,127
38755,note_off,119,0,0,,4,,,76,127
38756,note_on,1,0,0,,2,,,50,127
38756,note_on,0,0,0,,2,,,74,127
38875,note_off,119,0,0,,2,,,74,127
38876,note_on,1,0,0,,1,,,73,127
38995,note_off,119,0,0,,1,,,73,127
38996,note_on,1,0,0,,12,,,71,127
39115,note_off,119,0,0,,12,,,71,127
39116,note_on,1,0,0,,10,,,69,127
39235,note_off,119,0,0,,10,,,69,127
39235,note_off,0,0,0,,2,,,50,127
39235,note_off,0,0,0,,2,,,62,127
39236,note_on,1,0,0,,2,,,62,127
39236,note_on,0,0,0,,7,,,67,127
39355,note_off,119,0,0,,7,,,67,127
39356,note_on,1,0,0,,6,,,66,127
39475,note_off,119,0,0,,6,,,66,127
39475,note_off,0,0,0,,2,,,62,127
39476,note_on,1,0,0,,4,,,64,127
39476,note_on,0,0,0,,7,,,67,127
39595,note_off,119,0,0,,6,,,78,127
39596,note_on,1,0,0,,4,,,76,127
39715,note_off,119,0,0,,4,,,76,127
39716,note_on,1,0,0,,4,,,52,127
39716,note_on,0,0,0,,2,,,74,127
39835,note_off,119,0,0,,2,,,74,127
39836,note_on,1,0,0,,1,,,73,127
39955,note_off,119,0,0,,1,,,73,127
39955,note_off,0,0,0,,4,,,52,127
39955,note_off,0,0,0,,7,,,67,127
39955,note_off,0,0,0,,4,,,64,127
39956,note_on,1,0,0,,12,,,59,127
39956,note_on,0,0,0,,6,,,54,127
39956,note_on,0,0,0,,2,,,62,127
39956,note_on,0,0,0,,6,,,78,127
39956,note_on,0,0,0,,2,,,74,127
40075,note_off,119,0,0,,2,,,74,127
40076,note_on,1,0,0,,12,,,71,127
40195,note_off,119,0,0,,12,,,71,127
40195,note_off,0,0,0,,6,,,78,127
40195,note_off,0,0,0,,2,,,62,127
40195,note_off,0,0,0,,12,,,59,127
40196,note_on,1,0,0,,1,,,61,127
40196,note_on,0,0,0,,1,,,73,127
40196,note_on,0,0,0,,4,,,76,127
40315,note_off,119,0,0,,1,,,73,127
40316,note_on,1,0,0,,11,,,70,127
40435,note_off,119,0,0,,11,,,70,127
40435,note_off,0,0,0,,4,,,76,127
40435,note_off,0,0,0,,1,,,61,127
40435,note_off,0,0,0,,6,,,54,127
40436,note_on,1,0,0,,12,,,59,127
40436,note_on,0,0,0,,12,,,71,127
40556,note_on,120,0,0,,12,,,83,127
40675,note_off,119,0,0,,12,,,83,127
40675,note_off,0,0,0,,12,,,71,127
40675,note_off,0,0,0,,12,,,59,127
40676,note_on,1,0,0,,12,,,59,127
40676,note_on,0,0,0,,12,,,47,127
40676,note_on,0,0,0,,3,,,75,127
40795,note_off,119,0,0,,3,,,75,127
40796,note_on,1,0,0,,4,,,76,127
40915,note_off,119,0,0,,4,,,76,127
40915,note_off,0,0,0,,12,,,47,127
40915,note_off,0,0,0,,12,,,59,127
40916,note_on,1,0,0,,3,,,51,127
40916,note_on,0,0,0,,3,,,63,127
40916,note_on,0,0,0,,6,,,78,127
41035,note_off,119,0,0,,6,,,78,127
41036,note_on,1,0,0,,4,,,76,127
41155,note_off,119,0,0,,4,,,76,127
41155,note_off,0,0,0,,3,,,63,127
41155,note_off,0,0,0,,3,,,51,127
41156,note_on,1,0,0,,6,,,54,127
41156,note_on,0,0,0,,6,,,66,127
41156,note_on,0,0,0,,11,,,82,127
41156,note_on,0,0,0,,3,,,75,127
41275,note_off,119,0,0,,3,,,75,127
41276,note_on,1,0,0,,1,,,73,127
41395,note_off,119,0,0,,1,,,73,127
41395,note_off,0,0,0,,11,,,82,127
41395,note_off,0,0,0,,6,,,66,127
41395,note_off,0,0,0,,6,,,54,127
41396,note_on,1,0,0,,12,,,59,127
41396,note_on,0,0,0,,12,,,71,127
41396,note_on,0,0,0,,3,,,75,127
41396,note_on,0,0,0,,12,,,83,127
41515,note_off,119,0,0,,3,,,75,127
41516,note_on,1,0,0,,1,,,73,127
41635,note_off,119,0,0,,1,,,73,127
41635,note_off,0,0,0,,12,,,71,127
41635,note_off,0,0,0,,12,,,59,127
41636,note_on,1,0,0,,12,,,59,127
41636,note_on,0,0,0,,12,,,47,127
41636,note_on,0,0,0,,3,,,75,127
41755,note_off,119,0,0,,3,,,75,127
41756,note_on,1,0,0,,4,,,76,127
41875,note_off,119,0,0,,4,,,76,127
41875,note_off,0,0,0,,12,,,47,127
41875,note_off,0,0,0,,12,,,59,127
41876,note_on,1,0,0,,3,,,63,127
41876,note_on,0,0,0,,3,,,51,127
41876,note_on,0,0,0,,6,,,78,127
41995,note_off,119,0,0,,6,,,78,127
41996,note_on,1,0,0,,4,,,76,127
42115,note_off,119,0,0,,4,,,76,127
42115,note_off,0,0,0,,3,,,51,127
42115,note_off,0,0,0,,3,,,63,127
42115,note_off,0,0,0,,12,,,83,127
42116,note_on,1,0,0,,6,,,54,127
42116,note_on,0,0,0,,6,,,66,127
42116,note_on,0,0,0,,11,,,82,127
42116,note_on,0,0,0,,3,,,75,127
42235,note_off,119,0,0,,3,,,75,127
42236,note_on,1,0,0,,1,,,73,127
42355,note_off,119,0,0,,1,,,73,127
42355,note_off,0,0,0,,11,,,82,127
42355,note_off,0,0,0,,6,,,66,127
42355,note_off,0,0,0,,6,,,54,127
42356,note_on,1,0,0,,12,,,59,127
42356,note_on,0,0,0,,12,,,71,127
42356,note_on,0,0,0,,12,,,83,127
42356,note_on,0,0,0,,3,,,75,127
42475,note_off,119,0,0,,3,,,75,127
42476,note_on,1,0,0,,4,,,76,127
42595,note_off,119,0,0,,4,,,76,127
42595,note_off,0,0,0,,12,,,71,127
42595,note_off,0,0,0,,12,,,59,127
42596,note_on,1,0,0,,4,,,64,127
42596,note_on,0,0,0,,6,,,78,127
42715,note_off,119,0,0,,6,,,78,127
42716,note_on,1,0,0,,8,,,80,127
42835,note_off,119,0,0,,8,,,80,127
42835,note_off,0,0,0,,4,,,64,127
42835,note_off,0,0,0,,12,,,83,127
42836,note_on,1,0,0,,6,,,66,127
42836,note_on,0,0,0,,6,,,78,127
42955,note_off,119,0,0,,6,,,78,127
42956,note_on,1,0,0,,4,,,76,127
43075,note_off,119,0,0,,4,,,76,127
43076,note_on,1,0,0,,6,,,54,127
43076,note_on,0,0,0,,3,,,75,127
43195,note_off,119,0,0,,3,,,75,127
43196,note_on,1,0,0,,1,,,73,127
43315,note_off,119,0,0,,1,,,73,127
43315,note_off,0,0,0,,6,,,54,127
43315,note_off,0,0,0,,6,,,66,127
43316,note_on,1,0,0,,12,,,59,127
43316,note_on,0,0,0,,12,,,71,127
43436,note_on,120,0,0,,3,,,75,127
43555,note_off,119,0,0,,3,,,75,127
43555,note_off,0,0,0,,12,,,59,127
43556,note_on,1,0,0,,12,,,47,127
43556,note_on,0,0,0,,12,,,35,127
43556,note_on,0,0,0,,6,,,78,127
43675,note_off,119,0,0,,6,,,78,127
43676,note_on,1,0,0,,4,,,76,127
43795,note_off,119,0,0,,4,,,76,127
43795,note_off,0,0,0,,12,,,35,127
43795,note_off,0,0,0,,12,,,47,127
43795,note_off,0,0,0,,12,,,71,127
43796,note_on,1,0,0,,3,,,39,127
43796,note_on,0,0,0,,3,,,51,127
43796,note_on,0,0,0,,3,,,75,127
43915,note_off,119,0,0,,3,,,75,127
43916,note_on,1,0,0,,1,,,73,127
44035,note_off,119,0,0,,1,,,73,127
44035,note_off,0,0,0,,3,,,51,127
44035,note_off,0,0,0,,3,,,39,127
44036,note_on,1,0,0,,6,,,54,127
44036,note_on,0,0,0,,6,,,42,127
44036,note_on,0,0,0,,12,,,71,127
44155,note_off,119,0,0,,12,,,71,127
44156,note_on,1,0,0,,11,,,70,127
44275,note_off,119,0,0,,11,,,70,127
44275,note_off,0,0,0,,6,,,42,127
44275,note_off,0,0,0,,6,,,54,127
44276,note_on,1,0,0,,12,,,59,127
44276,note_on,0,0,0,,12,,,47,127
44276,note_on,0,0,0,,12,,,71,127
44396,note_on,120,0,0,,3,,,75,127
44515,note_off,119,0,0,,3,,,75,127
44515,note_off,0,0,0,,12,,,47,127
44515,note_off,0,0,0,,12,,,59,127
44516,note_on,1,0,0,,12,,,47,127
44516,note_on,0,0,0,,12,,,35,127
44516,note_on,0,0,0,,6,,,78,127
44635,note_off,119,0,0,,6,,,78,127
44636,note_on,1,0,0,,4,,,76,127
44755,note_off,119,0,0,,4,,,76,127
44755,note_off,0,0,0,,12,,,35,127
44755,note_off,0,0,0,,12,,,47,127
44755,note_off,0,0,0,,12,,,71,127
44756,note_on,1,0,0,,3,,,39,127
44756,note_on,0,0,0,,3,,,51,127
44756,note_on,0,0,0,,3,,,75,127
44875,note_off,119,0,0,,3,,,75,127
44876,note_on,1,0,0,,1,,,73,127
44995,note_off,119,0,0,,1,,,73,127
44995,note_off,0,0,0,,3,,,51,127
44995,note_off,0,0,0,,3,,,39,127
44996,note_on,1,0,0,,6,,,42,127
44996,note_on,0,0,0,,6,,,54,127
44996,note_on,0,0,0,,12,,,71,127
45115,note_off,119,0,0,,12,,,71,127
45116,note_on,1,0,0,,11,,,70,127
45235,note_off,119,0,0,,11,,,70,127
45235,note_off,0,0,0,,6,,,54,127
45235,note_off,0,0,0,,6,,,42,127
45236,note_on,1,0,0,,12,,,47,127
45236,note_on,0,0,0,,12,,,59,127
45236,note_on,0,0,0,,12,,,71,127
45356,note_on,120,0,0,,8,,,80,127
45475,note_off,119,0,0,,8,,,80,127
45475,note_off,0,0,0,,12,,,59,127
45475,note_off,0,0,0,,12,,,47,127
45476,note_on,1,0,0,,4,,,52,127
45476,note_on,0,0,0,,6,,,78,127
45536,note_off,60,0,0,,12,,,71,127
45595,note_off,59,0,0,,6,,,78,127
45596,note_on,1,0,0,,4,,,76,127
45715,note_off,119,0,0,,4,,,76,127
45715,note_off,0,0,0,,4,,,52,127
45716,note_on,1,0,0,,6,,,54,127
45716,note_on,0,0,0,,3,,,75,127
45835,note_off,119,0,0,,3,,,75,127
45836,note_on,1,0,0,,1,,,73,127
45955,note_off,119,0,0,,1,,,73,127
45956,note_on,1,0,0,,6,,,42,127
45956,note_on,0,0,0,,12,,,71,127
46075,note_off,119,0,0,,12,,,71,127
46076,note_on,1,0,0,,11,,,70,127
46195,note_off,119,0,0,,11,,,70,127
46195,note_off,0,0,0,,6,,,42,127
46195,note_off,0,0,0,,6,,,54,127
46196,note_on,1,0,0,,12,,,59,127
46196,note_on,0,0,0,,12,,,71,127
46316,note_on,120,0,0,,12,,,83,127
46435,note_off,119,0,0,,12,,,83,127
46435,note_off,0,0,0,,12,,,71,127
46435,note_off,0,0,0,,12,,,59,127
46436,note_on,1,0,0,,8,,,56,127
46436,note_on,0,0,0,,5,,,77,127
46555,note_off,119,0,0,,5,,,77,127
46556,note_on,1,0,0,,8,,,80,127
46675,note_off,119,0,0,,8,,,80,127
46675,note_off,0,0,0,,8,,,56,127
46676,note_on,1,0,0,,11,,,58,127
46676,note_on,0,0,0,,6,,,78,127
46795,note_off,119,0,0,,6,,,78,127
46796,note_on,1,0,0,,8,,,80,127
46915,note_off,119,0,0,,8,,,80,127
46915,note_off,0,0,0,,11,,,58,127
46916,note_on,1,0,0,,6,,,54,127
46916,note_on,0,0,0,,1,,,73,127
47035,note_off,119,0,0,,1,,,73,127
47036,note_on,1,0,0,,4,,,76,127
47155,note_off,119,0,0,,4,,,76,127
47155,note_off,0,0,0,,6,,,54,127
47156,note_on,1,0,0,,12,,,59,127
47156,note_on,0,0,0,,3,,,75,127
47275,note_off,119,0,0,,3,,,75,127
47276,note_on,1,0,0,,6,,,78,127
47395,note_off,119,0,0,,6,,,78,127
47395,note_off,0,0,0,,12,,,59,127
47396,note_on,1,0,0,,4,,,52,127
47396,note_on,0,0,0,,4,,,76,127
47515,note_off,119,0,0,,4,,,76,127
47516,note_on,1,0,0,,8,,,80,127
47635,note_off,119,0,0,,8,,,80,127
47635,note_off,0,0,0,,4,,,52,127
47636,note_on,1,0,0,,6,,,54,127
47636,note_on,0,0,0,,6,,,78,127
47755,note_off,119,0,0,,6,,,78,127
47756,note_on,1,0,0,,4,,,76,127
47875,note_off,119,0,0,,4,,,76,127
47876,note_on,1,0,0,,6,,,42,127
47876,note_on,0,0,0,,3,,,75,127
47995,note_off,119,0,0,,3,,,75,127
47996,note_on,1,0,0,,1,,,73,127
48115,note_off,119,0,0,,1,,,73,127
48115,note_off,0,0,0,,6,,,42,127
48115,note_off,0,0,0,,6,,,54,127
48116,note_on,1,0,0,,8,,,44,127
48116,note_on,0,0,0,,12,,,71,127
48235,note_off,119,0,0,,12,,,71,127
48236,note_on,1,0,0,,1,,,73,127
48355,note_off,119,0,0,,1,,,73,127
48355,note_off,0,0,0,,8,,,44,127
48356,note_on,1,0,0,,8,,,56,127
48356,note_on,0,0,0,,5,,,65,127
48475,note_off,119,0,0,,5,,,65,127
48476,note_on,1,0,0,,8,,,68,127
48595,note_off,119,0,0,,8,,,68,127
48595,note_off,0,0,0,,8,,,56,127
48596,note_on,1,0,0,,11,,,58,127
48596,note_on,0,0,0,,6,,,66,127
48715,note_off,119,0,0,,6,,,66,127
48716,note_on,1,0,0,,8,,,68,127
48835,note_off,119,0,0,,8,,,68,127
48835,note_off,0,0,0,,11,,,58,127
48836,note_on,1,0,0,,6,,,54,127
48836,note_on,0,0,0,,1,,,61,127
48955,note_off,119,0,0,,1,,,61,127
48956,note_on,1,0,0,,4,,,64,127
49075,note_off,119,0,0,,4,,,64,127
49075,note_off,0,0,0,,6,,,54,127
49076,note_on,1,0,0,,12,,,59,127
49076,note_on,0,0,0,,3,,,63,127
49195,note_off,119,0,0,,3,,,63,127
49196,note_on,1,0,0,,6,,,66,127
49315,note_off,119,0,0,,6,,,66,127
49315,note_off,0,0,0,,12,,,59,127
49316,note_on,1,0,0,,4,,,52,127
49316,note_on,0,0,0,,4,,,64,127
49435,note_off,119,0,0,,4,,,64,127
49436,note_on,1,0,0,,8,,,68,127
49555,note_off,119,0,0,,8,,,68,127
49555,note_off,0,0,0,,4,,,52,127
49556,note_on,1,0,0,,6,,,54,127
49556,note_on,0,0,0,,6,,,66,127
49675,note_off,119,0,0,,6,,,66,127
49676,note_on,1,0,0,,4,,,64,127
49795,note_off,119,0,0,,4,,,64,127
49796,note_on,1,0,0,,6,,,42,127
49796,note_on,0,0,0,,3,,,63,127
49915,note_off,119,0,0,,3,,,63,127
49916,note_on,1,0,0,,1,,,61,127
50031,note_off,115,0,0,,6,,,54,127
50035,note_off,4,0,0,,1,,,61,127
50035,note_off,0,0,0,,6,,,42,127
50036,note_on,1,0,0,,12,,,47,127
50036,note_on,0,0,0,,1,,,61,127
50515,note_off,479,0,0,,1,,,61,127
50516,note_on,1,0,0,,12,,,59,127
50941,note_off,425,0,0,,12,,,59,127
50995,note_off,54,0,0,,12,,,47,127
50996,note_on,1,0,0,,6,,,54,127
50996,note_on,0,0,0,,12,,,47,127
50996,note_on,0,0,0,,12,,,59,127
50996,note_on,0,0,0,,4,,,76,127
51115,note_off,119,0,0,,4,,,76,127
51116,note_on,1,0,0,,3,,,75,127
51235,note_off,119,0,0,,3,,,75,127
51236,note_on,1,0,0,,1,,,73,127
51355,note_off,119,0,0,,1,,,73,127
51356,note_on,1,0,0,,12,,,71,127
51475,note_off,119,0,0,,12,,,71,127
51476,note_on,1,0,0,,6,,,66,127
51596,note_on,120,0,0,,11,,,70,127
51715,note_off,119,0,0,,11,,,70,127
51715,note_off,0,0,0,,12,,,59,127
51715,note_off,0,0,0,,12,,,47,127
51715,note_off,0,0,0,,6,,,54,127
51716,note_on,1,0,0,,1,,,61,127
51716,note_on,0,0,0,,11,,,58,127
51716,note_on,0,0,0,,1,,,73,127
51835,note_off,119,0,0,,1,,,73,127
51836,note_on,1,0,0,,4,,,76,127
51955,note_off,119,0,0,,4,,,76,127
51955,note_off,0,0,0,,11,,,58,127
51955,note_off,0,0,0,,1,,,61,127
51955,note_off,0,0,0,,6,,,66,127
51956,note_on,1,0,0,,6,,,54,127
51956,note_on,0,0,0,,12,,,47,127
51956,note_on,0,0,0,,12,,,59,127
51956,note_on,0,0,0,,4,,,76,127
52075,note_off,119,0,0,,4,,,76,127
52076,note_on,1,0,0,,3,,,75,127
52195,note_off,119,0,0,,3,,,75,127
52196,note_on,1,0,0,,1,,,73,127
52315,note_off,119,0,0,,1,,,73,127
52316,note_on,1,0,0,,12,,,71,127
52435,note_off,119,0,0,,12,,,71,127
52436,note_on,1,0,0,,6,,,66,127
52556,note_on,120,0,0,,11,,,70,127
52675,note_off,119,0,0,,11,,,70,127
52675,note_off,0,0,0,,12,,,59,127
52675,note_off,0,0,0,,12,,,47,127
52675,note_off,0,0,0,,6,,,54,127
52676,note_on,1,0,0,,1,,,61,127
52676,note_on,0,0,0,,11,,,58,127
52676,note_on,0,0,0,,1,,,73,127
52795,note_off,119,0,0,,1,,,73,127
52796,note_on,1,0,0,,4,,,76,127
52915,note_off,119,0,0,,4,,,76,127
52915,note_off,0,0,0,,11,,,58,127
52915,note_off,0,0,0,,1,,,61,127
52915,note_off,0,0,0,,6,,,66,127
52916,note_on,1,0,0,,12,,,59,127
52916,note_on,0,0,0,,4,,,76,127
53035,note_off,119,0,0,,4,,,76,127
53036,note_on,1,0,0,,3,,,75,127
53155,note_off,119,0,0,,3,,,75,127
53155,note_off,0,0,0,,12,,,59,127
53156,note_on,1,0,0,,3,,,51,127
53156,note_on,0,0,0,,1,,,73,127
53275,note_off,119,0,0,,1,,,73,127
53276,note_on,1,0,0,,12,,,71,127
53395,note_off,119,0,0,,12,,,71,127
53395,note_off,0,0,0,,3,,,51,127
53396,note_on,1,0,0,,4,,,52,127
53396,note_on,0,0,0,,1,,,73,127
53515,note_off,119,0,0,,1,,,73,127
53516,note_on,1,0,0,,4,,,76,127
53635,note_off,119,0,0,,4,,,76,127
53635,note_off,0,0,0,,4,,,52,127
53636,note_on,1,0,0,,5,,,53,127
53636,note_on,0,0,0,,8,,,80,127
53755,note_off,119,0,0,,8,,,80,127
53756,note_on,1,0,0,,12,,,71,127
53875,note_off,119,0,0,,12,,,71,127
53875,note_off,0,0,0,,5,,,53,127
53876,note_on,1,0,0,,6,,,54,127
53876,note_on,0,0,0,,1,,,73,127
53935,note_off,59,0,0,,1,,,73,127
53936,note_on,1,0,0,,12,,,71,127
53995,note_off,59,0,0,,12,,,71,127
53996,note_on,1,0,0,,1,,,73,127
54055,note_off,59,0,0,,1,,,73,127
54056,note_on,1,0,0,,12,,,71,127
54115,note_off,59,0,0,,12,,,71,127
54116,note_on,1,0,0,,1,,,73,127
54175,note_off,59,0,0,,1,,,73,127
54176,note_on,1,0,0,,12,,,71,127
54235,note_off,59,0,0,,12,,,71,127
54236,note_on,1,0,0,,1,,,73,127
54295,note_off,59,0,0,,1,,,73,127
54296,note_on,1,0,0,,12,,,71,127
54355,note_off,59,0,0,,12,,,71,127
54356,note_on,1,0,0,,6,,,42,127
54356,note_on,0,0,0,,11,,,70,127
54595,note_off,239,0,0,,6,,,54,127
54781,note_off,186,0,0,,11,,,70,127
54835,note_off,54,0,0,,6,,,42,127
54836,note_on,1,0,0,,4,,,64,127
54836,note_on,0,0,0,,12,,,71,127
54836,note_on,0,0,0,,3,,,75,127
54955,note_off,119,0,0,,4,,,64,127
54956,note_on,1,0,0,,3,,,63,127
55075,note_off,119,0,0,,3,,,63,127
55076,note_on,1,0,0,,1,,,61,127
55195,note_off,119,0,0,,1,,,61,127
55196,note_on,1,0,0,,12,,,59,127
55315,note_off,119,0,0,,12,,,59,127
55316,note_on,1,0,0,,6,,,54,127
55386,note_off,70,0,0,,3,,,75,127
55386,note_off,0,0,0,,12,,,71,127
55435,note_off,49,0,0,,6,,,54,127
55436,note_on,1,0,0,,11,,,58,127
55436,note_on,0,0,0,,6,,,78,127
55555,note_off,119,0,0,,6,,,78,127
55555,note_off,0,0,0,,11,,,58,127
55556,note_on,1,0,0,,1,,,61,127
55556,note_on,0,0,0,,6,,,66,127
55675,note_off,119,0,0,,6,,,66,127
55675,note_off,0,0,0,,1,,,61,127
55676,note_on,1,0,0,,4,,,64,127
55676,note_on,0,0,0,,11,,,70,127
55795,note_off,119,0,0,,11,,,70,127
55795,note_off,0,0,0,,4,,,64,127
55796,note_on,1,0,0,,4,,,64,127
55796,note_on,0,0,0,,11,,,70,127
55915,note_off,119,0,0,,4,,,64,127
55916,note_on,1,0,0,,3,,,63,127
56035,note_off,119,0,0,,3,,,63,127
56035,note_off,0,0,0,,11,,,70,127
56036,note_on,1,0,0,,1,,,61,127
56036,note_on,0,0,0,,12,,,71,127
56155,note_off,119,0,0,,1,,,61,127
56156,note_on,1,0,0,,12,,,59,127
56275,note_off,119,0,0,,12,,,59,127
56276,note_on,1,0,0,,6,,,54,127
56336,note_off,60,0,0,,12,,,71,127
56395,note_off,59,0,0,,6,,,54,127
56396,note_on,1,0,0,,11,,,58,127
56396,note_on,0,0,0,,6,,,78,127
56515,note_off,119,0,0,,6,,,78,127
56515,note_off,0,0,0,,11,,,58,127
56516,note_on,1,0,0,,1,,,61,127
56516,note_on,0,0,0,,6,,,66,127
56635,note_off,119,0,0,,6,,,66,127
56635,note_off,0,0,0,,1,,,61,127
56636,note_on,1,0,0,,4,,,64,127
56636,note_on,0,0,0,,11,,,70,127
56755,note_off,119,0,0,,11,,,70,127
56755,note_off,0,0,0,,4,,,64,127
56756,note_on,1,0,0,,4,,,64,127
56756,note_on,0,0,0,,11,,,70,127
56875,note_off,119,0,0,,11,,,70,127
56875,note_off,0,0,0,,4,,,64,127
56876,note_on,1,0,0,,3,,,63,127
56876,note_on,0,0,0,,12,,,71,127
56995,note_off,119,0,0,,12,,,71,127
56995,note_off,0,0,0,,3,,,63,127
56996,note_on,1,0,0,,1,,,61,127
56996,note_on,0,0,0,,1,,,73,127
57115,note_off,119,0,0,,1,,,73,127
57115,note_off,0,0,0,,1,,,61,127
57116,note_on,1,0,0,,12,,,59,127
57116,note_on,0,0,0,,3,,,75,127
57235,note_off,119,0,0,,3,,,75,127
57235,note_off,0,0,0,,12,,,59,127
57236,note_on,1,0,0,,4,,,52,127
57236,note_on,0,0,0,,3,,,75,127
57355,note_off,119,0,0,,3,,,75,127
57356,note_on,1,0,0,,1,,,73,127
57475,note_off,119,0,0,,1,,,73,127
57475,note_off,0,0,0,,4,,,52,127
57476,note_on,1,0,0,,6,,,54,127
57476,note_on,0,0,0,,12,,,71,127
57595,note_off,119,0,0,,12,,,71,127
57596,note_on,1,0,0,,11,,,70,127
57696,note_off,100,0,0,,11,,,70,127
57715,note_off,19,0,0,,6,,,54,127
57716,note_on,1,0,0,,12,,,59,127
57716,note_on,0,0,0,,3,,,63,127
57835,note_off,119,0,0,,3,,,63,127
57836,note_on,1,0,0,,4,,,64,127
57955,note_off,119,0,0,,4,,,64,127
57955,note_off,0,0,0,,12,,,59,127
57956,note_on,1,0,0,,1,,,61,127
57956,note_on,0,0,0,,4,,,64,127
58075,note_off,119,0,0,,4,,,64,127
58076,note_on,1,0,0,,6,,,66,127
58195,note_off,119,0,0,,6,,,66,127
58195,note_off,0,0,0,,1,,,61,127
58196,note_on,1,0,0,,3,,,63,127
58196,note_on,0,0,0,,6,,,66,127
58315,note_off,119,0,0,,6,,,66,127
58316,note_on,1,0,0,,8,,,68,127
58435,note_off,119,0,0,,8,,,68,127
58435,note_off,0,0,0,,3,,,63,127
58436,note_on,1,0,0,,12,,,59,127
58436,note_on,0,0,0,,11,,,70,127
58555,note_off,119,0,0,,11,,,70,127
58556,note_on,1,0,0,,12,,,71,127
58675,note_off,119,0,0,,12,,,71,127
58675,note_off,0,0,0,,12,,,59,127
58676,note_on,1,0,0,,6,,,66,127
58676,note_on,0,0,0,,11,,,70,127
58795,note_off,119,0,0,,11,,,70,127
58796,note_on,1,0,0,,12,,,71,127
58915,note_off,119,0,0,,12,,,71,127
58915,note_off,0,0,0,,6,,,66,127
58916,note_on,1,0,0,,8,,,68,127
58916,note_on,0,0,0,,12,,,71,127
59035,note_off,119,0,0,,12,,,71,127
59036,note_on,1,0,0,,1,,,73,127
59155,note_off,119,0,0,,1,,,73,127
59155,note_off,0,0,0,,8,,,68,127
59156,note_on,1,0,0,,11,,,70,127
59156,note_on,0,0,0,,1,,,73,127
59275,note_off,119,0,0,,1,,,73,127
59276,note_on,1,0,0,,3,,,75,127
59395,note_off,119,0,0,,3,,,75,127
59395,note_off,0,0,0,,11,,,70,127
59396,note_on,1,0,0,,6,,,66,127
59396,note_on,0,0,0,,4,,,76,127
59515,note_off,119,0,0,,4,,,76,127
59516,note_on,1,0,0,,6,,,78,127
59635,note_off,119,0,0,,6,,,78,127
59635,note_off,0,0,0,,6,,,66,127
59636,note_on,1,0,0,,12,,,71,127
59636,note_on,0,0,0,,3,,,75,127
59755,note_off,119,0,0,,3,,,75,127
59756,note_on,1,0,0,,4,,,76,127
59875,note_off,119,0,0,,4,,,76,127
59875,note_off,0,0,0,,12,,,71,127
59876,note_on,1,0,0,,1,,,73,127
59876,note_on,0,0,0,,4,,,76,127
59995,note_off,119,0,0,,4,,,76,127
59996,note_on,1,0,0,,6,,,78,127
60115,note_off,119,0,0,,6,,,78,127
60115,note_off,0,0,0,,1,,,73,127
60116,note_on,1,0,0,,3,,,75,127
60116,note_on,0,0,0,,6,,,78,127
60235,note_off,119,0,0,,6,,,78,127
60236,note_on,1,0,0,,8,,,80,127
60355,note_off,119,0,0,,8,,,80,127
60355,note_off,0,0,0,,3,,,75,127
60356,note_on,1,0,0,,12,,,71,127
60356,note_on,0,0,0,,11,,,82,127
60475,note_off,119,0,0,,11,,,82,127
60476,note_on,1,0,0,,12,,,83,127
60588,note_off,112,0,0,,12,,,83,127
60594,note_off,6,0,0,,12,,,71,127
60595,note_on,1,0,0,,6,,,66,127
60595,note_on,0,0,0,,11,,,70,127
60714,note_off,119,0,0,,11,,,70,127
60715,note_on,1,0,0,,12,,,71,127
60834,note_off,119,0,0,,12,,,71,127
60834,note_off,0,0,0,,6,,,66,127
60835,note_on,1,0,0,,8,,,68,127
60835,note_on,0,0,0,,12,,,71,127
60954,note_off,119,0,0,,12,,,71,127
60955,note_on,1,0,0,,1,,,73,127
61074,note_off,119,0,0,,1,,,73,127
61074,note_off,0,0,0,,8,,,68,127
61075,note_on,1,0,0,,11,,,70,127
61075,note_on,0,0,0,,1,,,73,127
61194,note_off,119,0,0,,1,,,73,127
61195,note_on,1,0,0,,3,,,75,127
61314,note_off,119,0,0,,3,,,75,127
61314,note_off,0,0,0,,11,,,70,127
61315,note_on,1,0,0,,6,,,66,127
61315,note_on,0,0,0,,4,,,76,127
61434,note_off,119,0,0,,4,,,76,127
61435,note_on,1,0,0,,6,,,78,127
61554,note_off,119,0,0,,6,,,78,127
61554,note_off,0,0,0,,6,,,66,127
61555,note_on,1,0,0,,12,,,71,127
61555,note_on,0,0,0,,4,,,76,127
61614,note_off,59,0,0,,4,,,76,127
61615,note_on,1,0,0,,3,,,75,127
61674,note_off,59,0,0,,3,,,75,127
61675,note_on,1,0,0,,4,,,76,127
61734,note_off,59,0,0,,4,,,76,127
61735,note_on,1,0,0,,3,,,75,127
61794,note_off,59,0,0,,3,,,75,127
61794,note_off,0,0,0,,12,,,71,127
61795,note_on,1,0,0,,6,,,66,127
61795,note_on,0,0,0,,1,,,73,127
62095,note_off,300,0,0,,1,,,73,127
62143,note_off,48,0,0,,6,,,66,127
62155,note_on,12,0,0,,6,,,66,127
62274,note_off,119,0,0,,6,,,66,127
62275,note_on,1,0,0,,3,,,63,127
62275,note_on,0,0,0,,7,,,67,127
62334,note_off,59,0,0,,7,,,67,127
62335,note_on,1,0,0,,6,,,66,127
62394,note_off,59,0,0,,6,,,66,127
62395,note_on,1,0,0,,5,,,65,127
62454,note_off,59,0,0,,5,,,65,127
62455,note_on,1,0,0,,6,,,66,127
62514,note_off,59,0,0,,6,,,66,127
62514,note_off,0,0,0,,3,,,63,127
62515,note_on,1,0,0,,4,,,64,127
62515,note_on,0,0,0,,7,,,67,127
62634,note_off,119,0,0,,7,,,67,127
62635,note_on,1,0,0,,11,,,70,127
62754,note_off,119,0,0,,11,,,70,127
62754,note_off,0,0,0,,4,,,64,127
62755,note_on,1,0,0,,1,,,61,127
62755,note_on,0,0,0,,1,,,73,127
62874,note_off,119,0,0,,1,,,73,127
62875,note_on,1,0,0,,4,,,76,127
62994,note_off,119,0,0,,4,,,76,127
62994,note_off,0,0,0,,1,,,61,127
62995,note_on,1,0,0,,11,,,58,127
62995,note_on,0,0,0,,10,,,81,127
63114,note_off,119,0,0,,10,,,81,127
63115,note_on,1,0,0,,7,,,79,127
63234,note_off,119,0,0,,7,,,79,127
63234,note_off,0,0,0,,11,,,58,127
63235,note_on,1,0,0,,6,,,54,127
63235,note_on,0,0,0,,6,,,78,127
63354,note_off,119,0,0,,6,,,78,127
63355,note_on,1,0,0,,4,,,76,127
63474,note_off,119,0,0,,4,,,76,127
63474,note_off,0,0,0,,6,,,54,127
63475,note_on,1,0,0,,12,,,59,127
63475,note_on,0,0,0,,6,,,78,127
63594,note_off,119,0,0,,6,,,78,127
63595,note_on,1,0,0,,4,,,76,127
63714,note_off,119,0,0,,4,,,76,127
63714,note_off,0,0,0,,12,,,59,127
63715,note_on,1,0,0,,1,,,61,127
63715,note_on,0,0,0,,2,,,74,127
63834,note_off,119,0,0,,2,,,74,127
63835,note_on,1,0,0,,1,,,73,127
63954,note_off,119,0,0,,1,,,73,127
63954,note_off,0,0,0,,1,,,61,127
63955,note_on,1,0,0,,2,,,62,127
63955,note_on,0,0,0,,12,,,71,127
64074,note_off,119,0,0,,12,,,71,127
64075,note_on,1,0,0,,10,,,69,127
64194,note_off,119,0,0,,10,,,69,127
64194,note_off,0,0,0,,2,,,62,127
64195,note_on,1,0,0,,12,,,59,127
64195,note_on,0,0,0,,7,,,67,127
64314,note_off,119,0,0,,7,,,67,127
64315,note_on,1,0,0,,6,,,66,127
64434,note_off,119,0,0,,6,,,66,127
64434,note_off,0,0,0,,12,,,59,127
64435,note_on,1,0,0,,4,,,64,127
64435,note_on,0,0,0,,7,,,67,127
64554,note_off,119,0,0,,7,,,67,127
64555,note_on,1,0,0,,11,,,70,127
64674,note_off,119,0,0,,11,,,70,127
64674,note_off,0,0,0,,4,,,64,127
64675,note_on,1,0,0,,1,,,61,127
64675,note_on,0,0,0,,1,,,73,127
64794,note_off,119,0,0,,1,,,73,127
64795,note_on,1,0,0,,4,,,76,127
64914,note_off,119,0,0,,4,,,76,127
64914,note_off,0,0,0,,1,,,61,127
64915,note_on,1,0,0,,11,,,58,127
64915,note_on,0,0,0,,10,,,81,127
65034,note_off,119,0,0,,10,,,81,127
65035,note_on,1,0,0,,7,,,79,127
65154,note_off,119,0,0,,7,,,79,127
65154,note_off,0,0,0,,11,,,58,127
65155,note_on,1,0,0,,6,,,54,127
65155,note_on,0,0,0,,6,,,78,127
65274,note_off,119,0,0,,6,,,78,127
65275,note_on,1,0,0,,4,,,76,127
65394,note_off,119,0,0,,4,,,76,127
65394,note_off,0,0,0,,6,,,54,127
65395,note_on,1,0,0,,12,,,59,127
65395,note_on,0,0,0,,6,,,78,127
65454,note_off,59,0,0,,6,,,78,127
65455,note_on,1,0,0,,4,,,76,127
65514,note_off,59,0,0,,4,,,76,127
65515,note_on,1,0,0,,6,,,78,127
65574,note_off,59,0,0,,6,,,78,127
65575,note_on,1,0,0,,4,,,76,127
65634,note_off,59,0,0,,4,,,76,127
65634,note_off,0,0,0,,12,,,59,127
65635,note_on,1,0,0,,6,,,66,127
65635,note_on,0,0,0,,3,,,75,127
65874,note_off,239,0,0,,6,,,66,127
65875,note_on,1,0,0,,7,,,67,127
65935,note_off,60,0,0,,3,,,75,127
65995,note_on,60,0,0,,6,,,78,127
66114,note_off,119,0,0,,6,,,78,127
66114,note_off,0,0,0,,7,,,67,127
66115,note_on,1,0,0,,4,,,64,127
66115,note_on,0,0,0,,4,,,76,127
66234,note_off,119,0,0,,4,,,76,127
66235,note_on,1,0,0,,12,,,71,127
66354,note_off,119,0,0,,12,,,71,127
66354,note_off,0,0,0,,4,,,64,127
66355,note_on,1,0,0,,10,,,69,127
66355,note_on,0,0,0,,10,,,57,127
66355,note_on,0,0,0,,0,,,72,127
66474,note_off,119,0,0,,0,,,72,127
66475,note_on,1,0,0,,3,,,75,127
66594,note_off,119,0,0,,3,,,75,127
66594,note_off,0,0,0,,10,,,57,127
66595,note_on,1,0,0,,6,,,66,127
66595,note_on,0,0,0,,6,,,78,127
66714,note_off,119,0,0,,6,,,78,127
66715,note_on,1,0,0,,10,,,81,127
66834,note_off,119,0,0,,10,,,81,127
66834,note_off,0,0,0,,6,,,66,127
66834,note_off,0,0,0,,10,,,69,127
66835,note_on,1,0,0,,3,,,63,127
66835,note_on,0,0,0,,2,,,86,127
66954,note_off,119,0,0,,2,,,86,127
66955,note_on,1,0,0,,0,,,84,127
67074,note_off,119,0,0,,0,,,84,127
67074,note_off,0,0,0,,3,,,63,127
67075,note_on,1,0,0,,12,,,59,127
67075,note_on,0,0,0,,12,,,83,127
67194,note_off,119,0,0,,12,,,83,127
67195,note_on,1,0,0,,10,,,81,127
67314,note_off,119,0,0,,10,,,81,127
67314,note_off,0,0,0,,12,,,59,127
67315,note_on,1,0,0,,4,,,64,127
67315,note_on,0,0,0,,12,,,83,127
67434,note_off,119,0,0,,12,,,83,127
67435,note_on,1,0,0,,10,,,81,127
67554,note_off,119,0,0,,10,,,81,127
67554,note_off,0,0,0,,4,,,64,127
67555,note_on,1,0,0,,6,,,66,127
67555,note_on,0,0,0,,7,,,79,127
67674,note_off,119,0,0,,7,,,79,127
67675,note_on,1,0,0,,6,,,78,127
67794,note_off,119,0,0,,6,,,78,127
67794,note_off,0,0,0,,6,,,66,127
67795,note_on,1,0,0,,7,,,67,127
67795,note_on,0,0,0,,4,,,76,127
67914,note_off,119,0,0,,4,,,76,127
67915,note_on,1,0,0,,2,,,74,127
68034,note_off,119,0,0,,2,,,74,127
68034,note_off,0,0,0,,7,,,67,127
68035,note_on,1,0,0,,4,,,64,127
68035,note_on,0,0,0,,0,,,72,127
68154,note_off,119,0,0,,0,,,72,127
68155,note_on,1,0,0,,12,,,71,127
68274,note_off,119,0,0,,12,,,71,127
68274,note_off,0,0,0,,4,,,64,127
68275,note_on,1,0,0,,10,,,57,127
68275,note_on,0,0,0,,10,,,69,127
68275,note_on,0,0,0,,0,,,72,127
68394,note_off,119,0,0,,0,,,72,127
68395,note_on,1,0,0,,3,,,75,127
68514,note_off,119,0,0,,3,,,75,127
68514,note_off,0,0,0,,10,,,57,127
68515,note_on,1,0,0,,6,,,66,127
68515,note_on,0,0,0,,4,,,76,127
68634,note_off,119,0,0,,4,,,76,127
68635,note_on,1,0,0,,10,,,81,127
68754,note_off,119,0,0,,10,,,81,127
68754,note_off,0,0,0,,6,,,66,127
68754,note_off,0,0,0,,10,,,69,127
68755,note_on,1,0,0,,3,,,63,127
68755,note_on,0,0,0,,2,,,86,127
68874,note_off,119,0,0,,2,,,86,127
68875,note_on,1,0,0,,0,,,84,127
68994,note_off,119,0,0,,0,,,84,127
68994,note_off,0,0,0,,3,,,63,127
68995,note_on,1,0,0,,12,,,59,127
68995,note_on,0,0,0,,12,,,83,127
69114,note_off,119,0,0,,12,,,83,127
69115,note_on,1,0,0,,10,,,81,127
69234,note_off,119,0,0,,10,,,81,127
69234,note_off,0,0,0,,12,,,59,127
69235,note_on,1,0,0,,4,,,64,127
69235,note_on,0,0,0,,10,,,81,127
69354,note_off,119,0,0,,10,,,81,127
69355,note_on,1,0,0,,8,,,80,127
69474,note_off,119,0,0,,8,,,80,127
69474,note_off,0,0,0,,4,,,64,127
69475,note_on,1,0,0,,6,,,66,127
69475,note_on,0,0,0,,8,,,80,127
69594,note_off,119,0,0,,8,,,80,127
69595,note_on,1,0,0,,10,,,81,127
69714,note_off,119,0,0,,10,,,81,127
69714,note_off,0,0,0,,6,,,66,127
69715,note_on,1,0,0,,8,,,68,127
69715,note_on,0,0,0,,12,,,83,127
69834,note_off,119,0,0,,12,,,83,127
69835,note_on,1,0,0,,8,,,80,127
69954,note_off,119,0,0,,8,,,80,127
69954,note_off,0,0,0,,8,,,68,127
69955,note_on,1,0,0,,10,,,69,127
69955,note_on,0,0,0,,6,,,78,127
70074,note_off,119,0,0,,6,,,78,127
70075,note_on,1,0,0,,4,,,76,127
70194,note_off,119,0,0,,4,,,76,127
70194,note_off,0,0,0,,10,,,69,127
70195,note_on,1,0,0,,12,,,71,127
70195,note_on,0,0,0,,3,,,75,127
70314,note_off,119,0,0,,3,,,75,127
70315,note_on,1,0,0,,4,,,76,127
70434,note_off,119,0,0,,4,,,76,127
70434,note_off,0,0,0,,12,,,71,127
70435,note_on,1,0,0,,1,,,73,127
70435,note_on,0,0,0,,4,,,76,127
70554,note_off,119,0,0,,4,,,76,127
70555,note_on,1,0,0,,6,,,78,127
70674,note_off,119,0,0,,6,,,78,127
70674,note_off,0,0,0,,1,,,73,127
70675,note_on,1,0,0,,3,,,75,127
70675,note_on,0,0,0,,6,,,78,127
70794,note_off,119,0,0,,6,,,78,127
70795,note_on,1,0,0,,8,,,80,127
70914,note_off,119,0,0,,8,,,80,127
70914,note_off,0,0,0,,3,,,75,127
70915,note_on,1,0,0,,12,,,71,127
70915,note_on,0,0,0,,10,,,81,127
71034,note_off,119,0,0,,10,,,81,127
71035,note_on,1,0,0,,12,,,83,127
71147,note_off,112,0,0,,12,,,83,127
71153,note_off,6,0,0,,12,,,71,127
71154,note_on,1,0,0,,4,,,64,127
71154,note_on,0,0,0,,8,,,68,127
71273,note_off,119,0,0,,8,,,68,127
71274,note_on,1,0,0,,10,,,69,127
71393,note_off,119,0,0,,10,,,69,127
71393,note_off,0,0,0,,4,,,64,127
71394,note_on,1,0,0,,6,,,66,127
71394,note_on,0,0,0,,10,,,69,127
71513,note_off,119,0,0,,10,,,69,127
71514,note_on,1,0,0,,12,,,71,127
71633,note_off,119,0,0,,12,,,71,127
71633,note_off,0,0,0,,6,,,66,127
71634,note_on,1,0,0,,8,,,68,127
71634,note_on,0,0,0,,12,,,71,127
71753,note_off,119,0,0,,12,,,71,127
71754,note_on,1,0,0,,1,,,73,127
71873,note_off,119,0,0,,1,,,73,127
71873,note_off,0,0,0,,8,,,68,127
71874,note_on,1,0,0,,4,,,64,127
71874,note_on,0,0,0,,3,,,75,127
71993,note_off,119,0,0,,3,,,75,127
71994,note_on,1,0,0,,4,,,76,127
72106,note_off,112,0,0,,4,,,76,127
72112,note_off,6,0,0,,4,,,64,127
72113,note_on,1,0,0,,12,,,59,127
72113,note_on,0,0,0,,3,,,63,127
72232,note_off,119,0,0,,3,,,63,127
72233,note_on,1,0,0,,4,,,64,127
72352,note_off,119,0,0,,4,,,64,127
72352,note_off,0,0,0,,12,,,59,127
72353,note_on,1,0,0,,1,,,61,127
72353,note_on,0,0,0,,4,,,64,127
72472,note_off,119,0,0,,4,,,64,127
72473,note_on,1,0,0,,6,,,66,127
72592,note_off,119,0,0,,6,,,66,127
72592,note_off,0,0,0,,1,,,61,127
72593,note_on,1,0,0,,3,,,63,127
72593,note_on,0,0,0,,6,,,66,127
72712,note_off,119,0,0,,6,,,66,127
72713,note_on,1,0,0,,8,,,68,127
72832,note_off,119,0,0,,8,,,68,127
72832,note_off,0,0,0,,3,,,63,127
72833,note_on,1,0,0,,12,,,59,127
72833,note_on,0,0,0,,10,,,69,127
72952,note_off,119,0,0,,10,,,69,127
72953,note_on,1,0,0,,12,,,71,127
73065,note_off,112,0,0,,12,,,71,127
73071,note_off,6,0,0,,12,,,59,127
73072,note_on,1,0,0,,4,,,52,127
73072,note_on,0,0,0,,8,,,56,127
73191,note_off,119,0,0,,8,,,56,127
73192,note_on,1,0,0,,10,,,57,127
73311,note_off,119,0,0,,10,,,57,127
73311,note_off,0,0,0,,4,,,52,127
73312,note_on,1,0,0,,6,,,54,127
73312,note_on,0,0,0,,10,,,57,127
73431,note_off,119,0,0,,10,,,57,127
73432,note_on,1,0,0,,12,,,59,127
73551,note_off,119,0,0,,12,,,59,127
73551,note_off,0,0,0,,6,,,54,127
73552,note_on,1,0,0,,8,,,56,127
73552,note_on,0,0,0,,12,,,59,127
73671,note_off,119,0,0,,12,,,59,127
73672,note_on,1,0,0,,1,,,61,127
73791,note_off,119,0,0,,1,,,61,127
73791,note_off,0,0,0,,8,,,56,127
73792,note_on,1,0,0,,4,,,52,127
73792,note_on,0,0,0,,3,,,63,127
73911,note_off,119,0,0,,3,,,63,127
73912,note_on,1,0,0,,4,,,64,127
74031,note_off,119,0,0,,4,,,64,127
74031,note_off,0,0,0,,4,,,52,127
74032,note_on,1,0,0,,12,,,59,127
74032,note_on,0,0,0,,3,,,63,127
74151,note_off,119,0,0,,3,,,63,127
74152,note_on,1,0,0,,4,,,64,127
74271,note_off,119,0,0,,4,,,64,127
74271,note_off,0,0,0,,12,,,59,127
74272,note_on,1,0,0,,1,,,61,127
74272,note_on,0,0,0,,4,,,64,127
74391,note_off,119,0,0,,4,,,64,127
74392,note_on,1,0,0,,6,,,66,127
74511,note_off,119,0,0,,6,,,66,127
74511,note_off,0,0,0,,1,,,61,127
74512,note_on,1,0,0,,3,,,63,127
74512,note_on,0,0,0,,6,,,66,127
74631,note_off,119,0,0,,6,,,66,127
74632,note_on,1,0,0,,8,,,68,127
74751,note_off,119,0,0,,8,,,68,127
74751,note_off,0,0,0,,3,,,63,127
74752,note_on,1,0,0,,12,,,59,127
74752,note_on,0,0,0,,10,,,69,127
74871,note_off,119,0,0,,10,,,69,127
74872,note_on,1,0,0,,12,,,71,127
74991,note_off,119,0,0,,12,,,71,127
74991,note_off,0,0,0,,12,,,59,127
74992,note_on,1,0,0,,4,,,64,127
74992,note_on,0,0,0,,8,,,68,127
75111,note_off,119,0,0,,8,,,68,127
75112,note_on,1,0,0,,10,,,69,127
75231,note_off,119,0,0,,10,,,69,127
75231,note_off,0,0,0,,4,,,64,127
75232,note_on,1,0,0,,6,,,66,127
75232,note_on,0,0,0,,10,,,69,127
75351,note_off,119,0,0,,10,,,69,127
75352,note_on,1,0,0,,12,,,71,127
75471,note_off,119,0,0,,12,,,71,127
75471,note_off,0,0,0,,6,,,66,127
75472,note_on,1,0,0,,8,,,68,127
75472,note_on,0,0,0,,12,,,71,127
75591,note_off,119,0,0,,12,,,71,127
75592,note_on,1,0,0,,1,,,73,127
75711,note_off,119,0,0,,1,,,73,127
75711,note_off,0,0,0,,8,,,68,127
75712,note_on,1,0,0,,10,,,69,127
75712,note_on,0,0,0,,3,,,75,127
75831,note_off,119,0,0,,3,,,75,127
75832,note_on,1,0,0,,4,,,76,127
75951,note_off,119,0,0,,4,,,76,127
75951,note_off,0,0,0,,10,,,69,127
75952,note_on,1,0,0,,12,,,59,127
75952,note_on,0,0,0,,12,,,71,127
75952,note_on,0,0,0,,4,,,76,127
76011,note_off,59,0,0,,4,,,76,127
76012,note_on,1,0,0,,3,,,75,127
76071,note_off,59,0,0,,3,,,75,127
76072,note_on,1,0,0,,4,,,76,127
76131,note_off,59,0,0,,4,,,76,127
76132,note_on,1,0,0,,3,,,75,127
76191,note_off,59,0,0,,3,,,75,127
76192,note_on,1,0,0,,4,,,76,127
76251,note_off,59,0,0,,4,,,76,127
76252,note_on,1,0,0,,3,,,75,127
76311,note_off,59,0,0,,3,,,75,127
76312,note_on,1,0,0,,1,,,73,127
76431,note_off,119,0,0,,1,,,73,127
76431,note_off,0,0,0,,12,,,71,127
76432,note_on,1,0,0,,12,,,71,127
76502,note_off,70,0,0,,12,,,59,127
76552,note_on,50,0,0,,7,,,79,127
76671,note_off,119,0,0,,7,,,79,127
76672,note_on,1,0,0,,12,,,83,127
76672,note_on,0,0,0,,6,,,78,127
76791,note_off,119,0,0,,6,,,78,127
76792,note_on,1,0,0,,3,,,75,127
76911,note_off,119,0,0,,3,,,75,127
76911,note_off,0,0,0,,12,,,83,127
76911,note_off,0,0,0,,12,,,71,127
76912,note_on,1,0,0,,0,,,84,127
76912,note_on,0,0,0,,0,,,72,127
76912,note_on,0,0,0,,3,,,75,127
77031,note_off,119,0,0,,3,,,75,127
77032,note_on,1,0,0,,4,,,76,127
77151,note_off,119,0,0,,4,,,76,127
77151,note_off,0,0,0,,0,,,84,127
77152,note_on,1,0,0,,10,,,81,127
77152,note_on,0,0,0,,3,,,75,127
77271,note_off,119,0,0,,3,,,75,127
77272,note_on,1,0,0,,4,,,76,127
77391,note_off,119,0,0,,4,,,76,127
77391,note_off,0,0,0,,10,,,81,127
77391,note_off,0,0,0,,0,,,72,127
77392,note_on,1,0,0,,12,,,83,127
77392,note_on,0,0,0,,4,,,76,127
77392,note_on,0,0,0,,12,,,71,127
77511,note_off,119,0,0,,4,,,76,127
77512,note_on,1,0,0,,6,,,78,127
77631,note_off,119,0,0,,6,,,78,127
77631,note_off,0,0,0,,12,,,83,127
77632,note_on,1,0,0,,3,,,63,127
77632,note_on,0,0,0,,7,,,79,127
77751,note_off,119,0,0,,7,,,79,127
77752,note_on,1,0,0,,10,,,81,127
77871,note_off,119,0,0,,10,,,81,127
77871,note_off,0,0,0,,3,,,63,127
77871,note_off,0,0,0,,12,,,71,127
77872,note_on,1,0,0,,4,,,64,127
77872,note_on,0,0,0,,10,,,81,127
77872,note_on,0,0,0,,0,,,72,127
77991,note_off,119,0,0,,10,,,81,127
77992,note_on,1,0,0,,7,,,79,127
78111,note_off,119,0,0,,7,,,79,127
78111,note_off,0,0,0,,4,,,64,127
78112,note_on,1,0,0,,0,,,60,127
78112,note_on,0,0,0,,6,,,78,127
78231,note_off,119,0,0,,6,,,78,127
78232,note_on,1,0,0,,4,,,76,127
78351,note_off,119,0,0,,4,,,76,127
78351,note_off,0,0,0,,0,,,60,127
78351,note_off,0,0,0,,0,,,72,127
78352,note_on,1,0,0,,12,,,59,127
78352,note_on,0,0,0,,4,,,76,127
78352,note_on,0,0,0,,12,,,71,127
78471,note_off,119,0,0,,4,,,76,127
78472,note_on,1,0,0,,6,,,78,127
78591,note_off,119,0,0,,6,,,78,127
78591,note_off,0,0,0,,12,,,59,127
78592,note_on,1,0,0,,12,,,83,127
78592,note_on,0,0,0,,4,,,76,127
78711,note_off,119,0,0,,4,,,76,127
78712,note_on,1,0,0,,3,,,75,127
78831,note_off,119,0,0,,3,,,75,127
78831,note_off,0,0,0,,12,,,83,127
78831,note_off,0,0,0,,12,,,71,127
78832,note_on,1,0,0,,0,,,84,127
78832,note_on,0,0,0,,0,,,72,127
78832,note_on,0,0,0,,3,,,75,127
78951,note_off,119,0,0,,3,,,75,127
78952,note_on,1,0,0,,4,,,76,127
79071,note_off,119,0,0,,4,,,76,127
79071,note_off,0,0,0,,0,,,84,127
79072,note_on,1,0,0,,10,,,81,127
79072,note_on,0,0,0,,3,,,75,127
79191,note_off,119,0,0,,3,,,75,127
79192,note_on,1,0,0,,4,,,76,127
79311,note_off,119,0,0,,4,,,76,127
79311,note_off,0,0,0,,10,,,81,127
79311,note_off,0,0,0,,0,,,72,127
79312,note_on,1,0,0,,12,,,83,127
79312,note_on,0,0,0,,12,,,71,127
79312,note_on,0,0,0,,4,,,76,127
79431,note_off,119,0,0,,4,,,76,127
79432,note_on,1,0,0,,6,,,78,127
79551,note_off,119,0,0,,6,,,78,127
79551,note_off,0,0,0,,12,,,83,127
79552,note_on,1,0,0,,3,,,63,127
79552,note_on,0,0,0,,7,,,79,127
79671,note_off,119,0,0,,7,,,79,127
79672,note_on,1,0,0,,10,,,81,127
79791,note_off,119,0,0,,10,,,81,127
79791,note_off,0,0,0,,3,,,63,127
79791,note_off,0,0,0,,12,,,71,127
79792,note_on,1,0,0,,4,,,64,127
79792,note_on,0,0,0,,0,,,72,127
79792,note_on,0,0,0,,10,,,81,127
79911,note_off,119,0,0,,10,,,81,127
79912,note_on,1,0,0,,7,,,79,127
80031,note_off,119,0,0,,7,,,79,127
80031,note_off,0,0,0,,4,,,64,127
80032,note_on,1,0,0,,0,,,60,127
80032,note_on,0,0,0,,6,,,78,127
80151,note_off,119,0,0,,6,,,78,127
80152,note_on,1,0,0,,4,,,76,127
80271,note_off,119,0,0,,4,,,76,127
80271,note_off,0,0,0,,0,,,60,127
80271,note_off,0,0,0,,0,,,72,127
80272,note_on,1,0,0,,12,,,59,127
80272,note_on,0,0,0,,12,,,71,127
80272,note_on,0,0,0,,4,,,76,127
80391,note_off,119,0,0,,4,,,76,127
80392,note_on,1,0,0,,6,,,78,127
80511,note_off,119,0,0,,6,,,78,127
80511,note_off,0,0,0,,12,,,59,127
80512,note_on,1,0,0,,12,,,83,127
80512,note_on,0,0,0,,4,,,76,127
80631,note_off,119,0,0,,4,,,76,127
80632,note_on,1,0,0,,3,,,75,127
80751,note_off,119,0,0,,3,,,75,127
80751,note_off,0,0,0,,12,,,83,127
80751,note_off,0,0,0,,12,,,71,127
80752,note_on,1,0,0,,0,,,84,127
80752,note_on,0,0,0,,0,,,72,127
80752,note_on,0,0,0,,4,,,76,127
80871,note_off,119,0,0,,4,,,76,127
80872,note_on,1,0,0,,6,,,78,127
80991,note_off,119,0,0,,6,,,78,127
80991,note_off,0,0,0,,0,,,84,127
80992,note_on,1,0,0,,10,,,81,127
80992,note_on,0,0,0,,4,,,76,127
81111,note_off,119,0,0,,4,,,76,127
81112,note_on,1,0,0,,6,,,78,127
81231,note_off,119,0,0,,6,,,78,127
81231,note_off,0,0,0,,10,,,81,127
81231,note_off,0,0,0,,0,,,72,127
81232,note_on,1,0,0,,3,,,87,127
81232,note_on,0,0,0,,12,,,71,127
81232,note_on,0,0,0,,3,,,75,127
81351,note_off,119,0,0,,3,,,75,127
81352,note_on,1,0,0,,6,,,78,127
81471,note_off,119,0,0,,6,,,78,127
81471,note_off,0,0,0,,3,,,87,127
81472,note_on,1,0,0,,12,,,59,127
81472,note_on,0,0,0,,12,,,47,127
81472,note_on,0,0,0,,4,,,76,127
81591,note_off,119,0,0,,4,,,76,127
81592,note_on,1,0,0,,3,,,75,127
81711,note_off,119,0,0,,3,,,75,127
81711,note_off,0,0,0,,12,,,47,127
81711,note_off,0,0,0,,12,,,59,127
81711,note_off,0,0,0,,12,,,71,127
81712,note_on,1,0,0,,0,,,60,127
81712,note_on,0,0,0,,0,,,48,127
81712,note_on,0,0,0,,4,,,76,127
81712,note_on,0,0,0,,0,,,72,127
81831,note_off,119,0,0,,4,,,76,127
81832,note_on,1,0,0,,3,,,75,127
81951,note_off,119,0,0,,3,,,75,127
81951,note_off,0,0,0,,0,,,48,127
81951,note_off,0,0,0,,0,,,60,127
81952,note_on,1,0,0,,10,,,57,127
81952,note_on,0,0,0,,10,,,45,127
81952,note_on,0,0,0,,4,,,76,127
82071,note_off,119,0,0,,4,,,76,127
82072,note_on,1,0,0,,6,,,78,127
82191,note_off,119,0,0,,6,,,78,127
82191,note_off,0,0,0,,10,,,45,127
82191,note_off,0,0,0,,10,,,57,127
82191,note_off,0,0,0,,0,,,72,127
82192,note_on,1,0,0,,12,,,47,127
82192,note_on,0,0,0,,12,,,59,127
82192,note_on,0,0,0,,3,,,75,127
82192,note_on,0,0,0,,12,,,71,127
82311,note_off,119,0,0,,12,,,71,127
82311,note_off,0,0,0,,3,,,75,127
82312,note_on,1,0,0,,12,,,71,127
82431,note_off,119,0,0,,12,,,71,127
82431,note_off,0,0,0,,12,,,59,127
82431,note_off,0,0,0,,12,,,47,127
82432,note_on,1,0,0,,10,,,57,127
82432,note_on,0,0,0,,10,,,45,127
82432,note_on,0,0,0,,0,,,72,127
82432,note_on,0,0,0,,4,,,76,127
82551,note_off,119,0,0,,4,,,76,127
82552,note_on,1,0,0,,6,,,78,127
82671,note_off,119,0,0,,6,,,78,127
82671,note_off,0,0,0,,0,,,72,127
82671,note_off,0,0,0,,10,,,45,127
82671,note_off,0,0,0,,10,,,57,127
82672,note_on,1,0,0,,12,,,47,127
82672,note_on,0,0,0,,12,,,59,127
82672,note_on,0,0,0,,12,,,71,127
82672,note_on,0,0,0,,3,,,75,127
82791,note_off,119,0,0,,12,,,71,127
82792,note_on,1,0,0,,12,,,71,127
82911,note_off,119,0,0,,12,,,71,127
82911,note_off,0,0,0,,3,,,75,127
82911,note_off,0,0,0,,12,,,59,127
82911,note_off,0,0,0,,12,,,47,127
82912,note_on,1,0,0,,4,,,52,127
82912,note_on,0,0,0,,4,,,64,127
82912,note_on,0,0,0,,7,,,79,127
82912,note_on,0,0,0,,4,,,76,127
83031,note_off,119,0,0,,4,,,76,127
83032,note_on,1,0,0,,2,,,74,127
83151,note_off,119,0,0,,2,,,74,127
83151,note_off,0,0,0,,4,,,64,127
83151,note_off,0,0,0,,4,,,52,127
83152,note_on,1,0,0,,10,,,45,127
83152,note_on,0,0,0,,10,,,57,127
83152,note_on,0,0,0,,0,,,72,127
83271,note_off,119,0,0,,0,,,72,127
83272,note_on,1,0,0,,4,,,76,127
83391,note_off,119,0,0,,4,,,76,127
83391,note_off,0,0,0,,10,,,57,127
83391,note_off,0,0,0,,10,,,45,127
83391,note_off,0,0,0,,7,,,79,127
83392,note_on,1,0,0,,2,,,50,127
83392,note_on,0,0,0,,2,,,62,127
83392,note_on,0,0,0,,6,,,78,127
83392,note_on,0,0,0,,2,,,74,127
83511,note_off,119,0,0,,2,,,74,127
83512,note_on,1,0,0,,0,,,72,127
83631,note_off,119,0,0,,0,,,72,127
83631,note_off,0,0,0,,2,,,62,127
83631,note_off,0,0,0,,2,,,50,127
83632,note_on,1,0,0,,7,,,43,127
83632,note_on,0,0,0,,7,,,55,127
83632,note_on,0,0,0,,12,,,71,127
83751,note_off,119,0,0,,12,,,71,127
83752,note_on,1,0,0,,2,,,74,127
83871,note_off,119,0,0,,2,,,74,127
83871,note_off,0,0,0,,7,,,55,127
83871,note_off,0,0,0,,7,,,43,127
83871,note_off,0,0,0,,6,,,78,127
83872,note_on,1,0,0,,0,,,48,127
83872,note_on,0,0,0,,0,,,60,127
83872,note_on,0,0,0,,0,,,72,127
83872,note_on,0,0,0,,4,,,76,127
83991,note_off,119,0,0,,0,,,72,127
83992,note_on,1,0,0,,12,,,71,127
84111,note_off,119,0,0,,12,,,71,127
84111,note_off,0,0,0,,0,,,60,127
84111,note_off,0,0,0,,0,,,48,127
84112,note_on,1,0,0,,6,,,42,127
84112,note_on,0,0,0,,6,,,54,127
84112,note_on,0,0,0,,10,,,69,127
84231,note_off,119,0,0,,10,,,69,127
84232,note_on,1,0,0,,0,,,72,127
84351,note_off,119,0,0,,0,,,72,127
84351,note_off,0,0,0,,6,,,54,127
84351,note_off,0,0,0,,6,,,42,127
84351,note_off,0,0,0,,4,,,76,127
84352,note_on,1,0,0,,12,,,59,127
84352,note_on,0,0,0,,12,,,47,127
84352,note_on,0,0,0,,12,,,71,127
84352,note_on,0,0,0,,3,,,75,127
84471,note_off,119,0,0,,12,,,71,127
84472,note_on,1,0,0,,10,,,69,127
84591,note_off,119,0,0,,10,,,69,127
84591,note_off,0,0,0,,3,,,75,127
84591,note_off,0,0,0,,12,,,47,127
84591,note_off,0,0,0,,12,,,59,127
84592,note_on,1,0,0,,4,,,52,127
84592,note_on,0,0,0,,4,,,40,127
84592,note_on,0,0,0,,4,,,76,127
84592,note_on,0,0,0,,7,,,67,127
84711,note_off,119,0,0,,7,,,67,127
84712,note_on,1,0,0,,10,,,69,127
84831,note_off,119,0,0,,10,,,69,127
84831,note_off,0,0,0,,4,,,40,127
84831,note_off,0,0,0,,4,,,52,127
84832,note_on,1,0,0,,7,,,55,127
84832,note_on,0,0,0,,7,,,43,127
84832,note_on,0,0,0,,12,,,71,127
84951,note_off,119,0,0,,12,,,71,127
84952,note_off,1,0,0,,4,,,76,127
84952,note_on,0,0,0,,10,,,69,127
85071,note_off,119,0,0,,10,,,69,127
85071,note_off,0,0,0,,7,,,43,127
85071,note_off,0,0,0,,7,,,55,127
85072,note_on,1,0,0,,10,,,45,127
85072,note_on,0,0,0,,10,,,57,127
85072,note_on,0,0,0,,7,,,67,127
85191,note_off,119,0,0,,7,,,67,127
85192,note_on,1,0,0,,6,,,66,127
85311,note_off,119,0,0,,6,,,66,127
85311,note_off,0,0,0,,10,,,57,127
85311,note_off,0,0,0,,10,,,45,127
85312,note_on,1,0,0,,12,,,59,127
85312,note_on,0,0,0,,12,,,47,127
85312,note_on,0,0,0,,4,,,64,127
85431,note_off,119,0,0,,4,,,64,127
85432,note_on,1,0,0,,3,,,63,127
85551,note_off,119,0,0,,3,,,63,127
85551,note_off,0,0,0,,12,,,47,127
85551,note_off,0,0,0,,12,,,59,127
85552,note_on,1,0,0,,0,,,60,127
85552,note_on,0,0,0,,0,,,48,127
85552,note_on,0,0,0,,4,,,64,127
85672,note_on,120,0,0,,0,,,72,127
85791,note_off,119,0,0,,0,,,72,127
85791,note_off,0,0,0,,0,,,48,127
85791,note_off,0,0,0,,0,,,60,127
85792,note_on,1,0,0,,10,,,57,127
85792,note_on,0,0,0,,10,,,45,127
85792,note_on,0,0,0,,12,,,71,127
85911,note_off,119,0,0,,12,,,71,127
85912,note_on,1,0,0,,10,,,69,127
86031,note_off,119,0,0,,10,,,69,127
86031,note_off,0,0,0,,10,,,45,127
86031,note_off,0,0,0,,10,,,57,127
86031,note_off,0,0,0,,4,,,64,127
86032,note_on,1,0,0,,12,,,59,127
86032,note_on,0,0,0,,7,,,67,127
86151,note_off,119,0,0,,7,,,67,127
86152,note_on,1,0,0,,6,,,66,127
86271,note_off,119,0,0,,6,,,66,127
86272,note_on,1,0,0,,12,,,47,127
86272,note_on,0,0,0,,4,,,64,127
86391,note_off,119,0,0,,4,,,64,127
86392,note_on,1,0,0,,3,,,63,127
86492,note_off,100,0,0,,3,,,63,127
86511,note_off,19,0,0,,12,,,47,127
86511,note_off,0,0,0,,12,,,59,127
86512,note_on,1,0,0,,4,,,52,127
86512,note_on,0,0,0,,8,,,56,127
86631,note_off,119,0,0,,8,,,56,127
86632,note_on,1,0,0,,10,,,57,127
86751,note_off,119,0,0,,10,,,57,127
86751,note_off,0,0,0,,4,,,52,127
86752,note_on,1,0,0,,6,,,54,127
86752,note_on,0,0,0,,10,,,57,127
86871,note_off,119,0,0,,10,,,57,127
86872,note_on,1,0,0,,12,,,59,127
86991,note_off,119,0,0,,12,,,59,127
86991,note_off,0,0,0,,6,,,54,127
86992,note_on,1,0,0,,8,,,56,127
86992,note_on,0,0,0,,12,,,59,127
87111,note_off,119,0,0,,12,,,59,127
87112,note_on,1,0,0,,1,,,61,127
87231,note_off,119,0,0,,1,,,61,127
87231,note_off,0,0,0,,8,,,56,127
87232,note_on,1,0,0,,4,,,52,127
87232,note_on,0,0,0,,3,,,63,127
87351,note_off,119,0,0,,3,,,63,127
87352,note_on,1,0,0,,4,,,64,127
87471,note_off,119,0,0,,4,,,64,127
87471,note_off,0,0,0,,4,,,52,127
87472,note_on,1,0,0,,12,,,59,127
87472,note_on,0,0,0,,3,,,63,127
87591,note_off,119,0,0,,3,,,63,127
87592,note_on,1,0,0,,4,,,64,127
87711,note_off,119,0,0,,4,,,64,127
87711,note_off,0,0,0,,12,,,59,127
87712,note_on,1,0,0,,1,,,61,127
87712,note_on,0,0,0,,4,,,64,127
87831,note_off,119,0,0,,4,,,64,127
87832,note_on,1,0,0,,6,,,66,127
87951,note_off,119,0,0,,6,,,66,127
87951,note_off,0,0,0,,1,,,61,127
87952,note_on,1,0,0,,3,,,63,127
87952,note_on,0,0,0,,6,,,66,127
88071,note_off,119,0,0,,6,,,66,127
88072,note_on,1,0,0,,8,,,68,127
88191,note_off,119,0,0,,8,,,68,127
88191,note_off,0,0,0,,3,,,63,127
88192,note_on,1,0,0,,12,,,59,127
88192,note_on,0,0,0,,10,,,69,127
88311,note_off,119,0,0,,10,,,69,127
88312,note_on,1,0,0,,12,,,71,127
88431,note_off,119,0,0,,12,,,71,127
88431,note_off,0,0,0,,12,,,59,127
88432,note_on,1,0,0,,4,,,64,127
88432,note_on,0,0,0,,8,,,68,127
88551,note_off,119,0,0,,8,,,68,127
88552,note_on,1,0,0,,10,,,69,127
88671,note_off,119,0,0,,10,,,69,127
88671,note_off,0,0,0,,4,,,64,127
88672,note_on,1,0,0,,6,,,66,127
88672,note_on,0,0,0,,10,,,69,127
88791,note_off,119,0,0,,10,,,69,127
88792,note_on,1,0,0,,12,,,71,127
88911,note_off,119,0,0,,12,,,71,127
88911,note_off,0,0,0,,6,,,66,127
88912,note_on,1,0,0,,8,,,68,127
88912,note_on,0,0,0,,12,,,71,127
89031,note_off,119,0,0,,12,,,71,127
89032,note_on,1,0,0,,1,,,73,127
89151,note_off,119,0,0,,1,,,73,127
89151,note_off,0,0,0,,8,,,68,127
89152,note_on,1,0,0,,4,,,64,127
89152,note_on,0,0,0,,3,,,75,127
89271,note_off,119,0,0,,3,,,75,127
89272,note_on,1,0,0,,4,,,76,127
89391,note_off,119,0,0,,4,,,76,127
89391,note_off,0,0,0,,4,,,64,127
89392,note_on,1,0,0,,12,,,71,127
89392,note_on,0,0,0,,3,,,75,127
89511,note_off,119,0,0,,3,,,75,127
89512,note_on,1,0,0,,4,,,76,127
89631,note_off,119,0,0,,4,,,76,127
89631,note_off,0,0,0,,12,,,71,127
89632,note_on,1,0,0,,1,,,73,127
89632,note_on,0,0,0,,4,,,76,127
89751,note_off,119,0,0,,4,,,76,127
89752,note_on,1,0,0,,6,,,78,127
89871,note_off,119,0,0,,6,,,78,127
89871,note_off,0,0,0,,1,,,73,127
89872,note_on,1,0,0,,3,,,75,127
89872,note_on,0,0,0,,6,,,78,127
89991,note_off,119,0,0,,6,,,78,127
89992,note_on,1,0,0,,8,,,80,127
90111,note_off,119,0,0,,8,,,80,127
90111,note_off,0,0,0,,3,,,75,127
90112,note_on,1,0,0,,12,,,71,127
90112,note_on,0,0,0,,10,,,81,127
90231,note_off,119,0,0,,10,,,81,127
90232,note_on,1,0,0,,12,,,83,127
90351,note_off,119,0,0,,12,,,83,127
90351,note_off,0,0,0,,12,,,71,127
90352,note_on,1,0,0,,4,,,76,127
90352,note_on,0,0,0,,10,,,81,127
90411,note_off,59,0,0,,10,,,81,127
90412,note_on,1,0,0,,8,,,80,127
90471,note_off,59,0,0,,8,,,80,127
90472,note_on,1,0,0,,10,,,81,127
90531,note_off,59,0,0,,10,,,81,127
90532,note_on,1,0,0,,8,,,80,127
90591,note_off,59,0,0,,8,,,80,127
90591,note_off,0,0,0,,4,,,76,127
90592,note_on,1,0,0,,12,,,71,127
90592,note_on,0,0,0,,6,,,78,127
91142,note_off,550,0,0,,6,,,78,127
91311,note_off,169,0,0,,12,,,71,127
91312,note_on,1,0,0,,10,,,69,127
91312,note_on,0,0,0,,4,,,64,127
91312,note_on,0,0,0,,4,,,76,127
91312,note_on,0,0,0,,0,,,72,127
91312,note_on,0,0,0,,10,,,81,127
91431,note_off,119,0,0,,10,,,81,127
91432,note_on,1,0,0,,7,,,79,127
91551,note_off,119,0,0,,7,,,79,127
91551,note_off,0,0,0,,4,,,76,127
91552,note_on,1,0,0,,6,,,78,127
91671,note_off,119,0,0,,6,,,78,127
91672,note_on,1,0,0,,4,,,76,127
91791,note_off,119,0,0,,4,,,76,127
91791,note_off,0,0,0,,0,,,72,127
91792,note_on,1,0,0,,12,,,71,127
91912,note_on,120,0,0,,3,,,75,127
92031,note_off,119,0,0,,3,,,75,127
92031,note_off,0,0,0,,4,,,64,127
92031,note_off,0,0,0,,10,,,69,127
92032,note_on,1,0,0,,6,,,66,127
92032,note_on,0,0,0,,10,,,69,127
92032,note_on,0,0,0,,4,,,64,127
92032,note_on,0,0,0,,3,,,63,127
92032,note_on,0,0,0,,6,,,78,127
92151,note_off,119,0,0,,6,,,78,127
92152,note_on,1,0,0,,10,,,81,127
92271,note_off,119,0,0,,10,,,81,127
92271,note_off,0,0,0,,3,,,63,127
92271,note_off,0,0,0,,4,,,64,127
92271,note_off,0,0,0,,10,,,69,127
92271,note_off,0,0,0,,6,,,66,127
92271,note_off,0,0,0,,12,,,71,127
92272,note_on,1,0,0,,6,,,66,127
92272,note_on,0,0,0,,4,,,64,127
92272,note_on,0,0,0,,0,,,60,127
92272,note_on,0,0,0,,10,,,69,127
92272,note_on,0,0,0,,4,,,76,127
92272,note_on,0,0,0,,0,,,72,127
92272,note_on,0,0,0,,10,,,81,127
92391,note_off,119,0,0,,10,,,81,127
92392,note_on,1,0,0,,7,,,79,127
92511,note_off,119,0,0,,7,,,79,127
92511,note_off,0,0,0,,4,,,76,127
92512,note_on,1,0,0,,6,,,78,127
92631,note_off,119,0,0,,6,,,78,127
92632,note_on,1,0,0,,4,,,76,127
92751,note_off,119,0,0,,4,,,76,127
92751,note_off,0,0,0,,0,,,72,127
92752,note_on,1,0,0,,12,,,71,127
92872,note_on,120,0,0,,3,,,75,127
92991,note_off,119,0,0,,3,,,75,127
92991,note_off,0,0,0,,10,,,69,127
92991,note_off,0,0,0,,0,,,60,127
92991,note_off,0,0,0,,4,,,64,127
92991,note_off,0,0,0,,6,,,66,127
92992,note_on,1,0,0,,12,,,59,127
92992,note_on,0,0,0,,10,,,69,127
92992,note_on,0,0,0,,6,,,66,127
92992,note_on,0,0,0,,4,,,64,127
92992,note_on,0,0,0,,6,,,78,127
93111,note_off,119,0,0,,6,,,78,127
93112,note_on,1,0,0,,10,,,81,127
93231,note_off,119,0,0,,10,,,81,127
93231,note_off,0,0,0,,4,,,64,127
93231,note_off,0,0,0,,6,,,66,127
93231,note_off,0,0,0,,10,,,69,127
93231,note_off,0,0,0,,12,,,59,127
93231,note_off,0,0,0,,12,,,71,127
93232,note_on,1,0,0,,0,,,60,127
93232,note_on,0,0,0,,4,,,64,127
93232,note_on,0,0,0,,10,,,69,127
93232,note_on,0,0,0,,6,,,66,127
93232,note_on,0,0,0,,10,,,81,127
93351,note_off,119,0,0,,10,,,81,127
93352,note_on,1,0,0,,7,,,79,127
93471,note_off,119,0,0,,7,,,79,127
93472,note_on,1,0,0,,6,,,78,127
93591,note_off,119,0,0,,6,,,78,127
93592,note_on,1,0,0,,4,,,76,127
93711,note_off,119,0,0,,4,,,76,127
93712,note_on,1,0,0,,12,,,71,127
93832,note_on,120,0,0,,3,,,75,127
93951,note_off,119,0,0,,3,,,75,127
93951,note_off,0,0,0,,6,,,66,127
93951,note_off,0,0,0,,10,,,69,127
93951,note_off,0,0,0,,4,,,64,127
93951,note_off,0,0,0,,0,,,60,127
93952,note_on,1,0,0,,12,,,59,127
93952,note_on,0,0,0,,6,,,66,127
93952,note_on,0,0,0,,10,,,69,127
93952,note_on,0,0,0,,4,,,64,127
93952,note_on,0,0,0,,6,,,78,127
94071,note_off,119,0,0,,6,,,78,127
94072,note_on,1,0,0,,10,,,81,127
94191,note_off,119,0,0,,10,,,81,127
94191,note_off,0,0,0,,4,,,64,127
94191,note_off,0,0,0,,10,,,69,127
94191,note_off,0,0,0,,6,,,66,127
94191,note_off,0,0,0,,12,,,59,127
94191,note_off,0,0,0,,12,,,71,127
94192,note_on,1,0,0,,4,,,64,127
94192,note_on,0,0,0,,10,,,57,127
94192,note_on,0,0,0,,10,,,69,127
94192,note_on,0,0,0,,6,,,66,127
94192,note_on,0,0,0,,2,,,86,127
94192,note_on,0,0,0,,4,,,76,127
94311,note_off,119,0,0,,2,,,86,127
94312,note_on,1,0,0,,0,,,84,127
94431,note_off,119,0,0,,0,,,84,127
94432,note_on,1,0,0,,12,,,83,127
94551,note_off,119,0,0,,12,,,83,127
94552,note_on,1,0,0,,10,,,81,127
94671,note_off,119,0,0,,10,,,81,127
94671,note_off,0,0,0,,4,,,76,127
94672,note_on,1,0,0,,4,,,76,127
94791,note_off,119,0,0,,4,,,76,127
94792,note_on,1,0,0,,3,,,75,127
94911,note_off,119,0,0,,3,,,75,127
94911,note_off,0,0,0,,6,,,66,127
94911,note_off,0,0,0,,10,,,69,127
94911,note_off,0,0,0,,10,,,57,127
94911,note_off,0,0,0,,4,,,64,127
94912,note_on,1,0,0,,12,,,59,127
94912,note_on,0,0,0,,6,,,66,127
94912,note_on,0,0,0,,10,,,69,127
94912,note_on,0,0,0,,4,,,64,127
94912,note_on,0,0,0,,6,,,78,127
95031,note_off,119,0,0,,6,,,78,127
95032,note_on,1,0,0,,10,,,81,127
95151,note_off,119,0,0,,10,,,81,127
95151,note_off,0,0,0,,4,,,64,127
95151,note_off,0,0,0,,10,,,69,127
95151,note_off,0,0,0,,6,,,66,127
95151,note_off,0,0,0,,12,,,59,127
95152,note_on,1,0,0,,10,,,57,127
95152,note_on,0,0,0,,4,,,64,127
95152,note_on,0,0,0,,6,,,66,127
95152,note_on,0,0,0,,10,,,69,127
95152,note_on,0,0,0,,2,,,86,127
95152,note_on,0,0,0,,4,,,76,127
95271,note_off,119,0,0,,2,,,86,127
95272,note_on,1,0,0,,0,,,84,127
95391,note_off,119,0,0,,0,,,84,127
95392,note_on,1,0,0,,12,,,83,127
95511,note_off,119,0,0,,12,,,83,127
95512,note_on,1,0,0,,10,,,81,127
95631,note_off,119,0,0,,10,,,81,127
95631,note_off,0,0,0,,4,,,76,127
95632,note_on,1,0,0,,4,,,76,127
95751,note_off,119,0,0,,4,,,76,127
95752,note_on,1,0,0,,3,,,75,127
95871,note_off,119,0,0,,3,,,75,127
95871,note_off,0,0,0,,10,,,69,127
95871,note_off,0,0,0,,6,,,66,127
95871,note_off,0,0,0,,4,,,64,127
95871,note_off,0,0,0,,10,,,57,127
95872,note_on,1,0,0,,12,,,59,127
95872,note_on,0,0,0,,6,,,66,127
95872,note_on,0,0,0,,10,,,69,127
95872,note_on,0,0,0,,4,,,64,127
95872,note_on,0,0,0,,6,,,78,127
95991,note_off,119,0,0,,6,,,78,127
95992,note_on,1,0,0,,10,,,81,127
96111,note_off,119,0,0,,10,,,81,127
96111,note_off,0,0,0,,4,,,64,127
96111,note_off,0,0,0,,10,,,69,127
96111,note_off,0,0,0,,6,,,66,127
96111,note_off,0,0,0,,12,,,59,127
96112,note_on,1,0,0,,4,,,64,127
96112,note_on,0,0,0,,10,,,57,127
96112,note_on,0,0,0,,10,,,69,127
96112,note_on,0,0,0,,6,,,66,127
96112,note_on,0,0,0,,2,,,86,127
96112,note_on,0,0,0,,4,,,76,127
96231,note_off,119,0,0,,2,,,86,127
96232,note_on,1,0,0,,0,,,84,127
96351,note_off,119,0,0,,0,,,84,127
96352,note_on,1,0,0,,12,,,83,127
96471,note_off,119,0,0,,12,,,83,127
96472,note_on,1,0,0,,10,,,81,127
96591,note_off,119,0,0,,10,,,81,127
96591,note_off,0,0,0,,4,,,76,127
96592,note_on,1,0,0,,7,,,79,127
96711,note_off,119,0,0,,7,,,79,127
96712,note_on,1,0,0,,6,,,78,127
96831,note_off,119,0,0,,6,,,78,127
96831,note_off,0,0,0,,6,,,66,127
96831,note_off,0,0,0,,10,,,69,127
96831,note_off,0,0,0,,10,,,57,127
96831,note_off,0,0,0,,4,,,64,127
96832,note_on,1,0,0,,12,,,59,127
96832,note_on,0,0,0,,4,,,76,127
96951,note_off,119,0,0,,4,,,76,127
96952,note_on,1,0,0,,3,,,75,127
97071,note_off,119,0,0,,3,,,75,127
97071,note_off,0,0,0,,12,,,59,127
97072,note_on,1,0,0,,0,,,60,127
97072,note_on,0,0,0,,4,,,76,127
97191,note_off,119,0,0,,4,,,76,127
97192,note_on,1,0,0,,3,,,75,127
97311,note_off,119,0,0,,3,,,75,127
97311,note_off,0,0,0,,0,,,60,127
97312,note_on,1,0,0,,12,,,59,127
97312,note_on,0,0,0,,4,,,76,127
97431,note_off,119,0,0,,4,,,76,127
97432,note_on,1,0,0,,3,,,75,127
97551,note_off,119,0,0,,3,,,75,127
97551,note_off,0,0,0,,12,,,59,127
97552,note_on,1,0,0,,0,,,60,127
97552,note_on,0,0,0,,4,,,76,127
97671,note_off,119,0,0,,4,,,76,127
97672,note_on,1,0,0,,3,,,75,127
97791,note_off,119,0,0,,3,,,75,127
97791,note_off,0,0,0,,0,,,60,127
97792,note_on,1,0,0,,12,,,59,127
97792,note_on,0,0,0,,4,,,76,127
97911,note_off,119,0,0,,4,,,76,127
97912,note_on,1,0,0,,3,,,75,127
98031,note_off,119,0,0,,3,,,75,127
98031,note_off,0,0,0,,12,,,59,127
98032,note_on,1,0,0,,0,,,60,127
98032,note_on,0,0,0,,4,,,76,127
98151,note_off,119,0,0,,4,,,76,127
98152,note_on,1,0,0,,0,,,72,127
98271,note_off,119,0,0,,0,,,72,127
98271,note_off,0,0,0,,0,,,60,127
98272,note_on,1,0,0,,10,,,57,127
98272,note_on,0,0,0,,12,,,71,127
98391,note_off,119,0,0,,12,,,71,127
98392,note_on,1,0,0,,10,,,69,127
98511,note_off,119,0,0,,10,,,69,127
98512,note_on,1,0,0,,7,,,67,127
98631,note_off,119,0,0,,7,,,67,127
98632,note_off,1,0,0,,10,,,57,127
98632,note_on,0,0,0,,6,,,66,127
98751,note_off,119,0,0,,6,,,66,127
98752,note_on,1,0,0,,12,,,59,127
98752,note_on,0,0,0,,4,,,64,127
98871,note_off,119,0,0,,4,,,64,127
98872,note_on,1,0,0,,3,,,63,127
98991,note_off,119,0,0,,3,,,63,127
98991,note_off,0,0,0,,12,,,59,127
98992,note_on,1,0,0,,0,,,60,127
98992,note_on,0,0,0,,4,,,64,127
99111,note_off,119,0,0,,4,,,64,127
99112,note_on,1,0,0,,3,,,63,127
99231,note_off,119,0,0,,3,,,63,127
99231,note_off,0,0,0,,0,,,60,127
99232,note_on,1,0,0,,12,,,59,127
99232,note_on,0,0,0,,4,,,64,127
99351,note_off,119,0,0,,4,,,64,127
99352,note_on,1,0,0,,3,,,63,127
99471,note_off,119,0,0,,3,,,63,127
99471,note_off,0,0,0,,12,,,59,127
99472,note_on,1,0,0,,0,,,60,127
99472,note_on,0,0,0,,4,,,64,127
99591,note_off,119,0,0,,4,,,64,127
99592,note_on,1,0,0,,3,,,63,127
99711,note_off,119,0,0,,3,,,63,127
99711,note_off,0,0,0,,0,,,60,127
99712,note_on,1,0,0,,12,,,59,127
99712,note_on,0,0,0,,4,,,64,127
99831,note_off,119,0,0,,4,,,64,127
99832,note_on,1,0,0,,3,,,63,127
99951,note_off,119,0,0,,3,,,63,127
99951,note_off,0,0,0,,12,,,59,127
99952,note_on,1,0,0,,0,,,60,127
99952,note_on,0,0,0,,4,,,64,127
100071,note_off,119,0,0,,4,,,64,127
100072,note_on,1,0,0,,7,,,67,127
100191,note_off,119,0,0,,7,,,67,127
100191,note_off,0,0,0,,0,,,60,127
100192,note_on,1,0,0,,10,,,57,127
100192,note_on,0,0,0,,6,,,66,127
100311,note_off,119,0,0,,6,,,66,127
100312,note_on,1,0,0,,4,,,64,127
100431,note_off,119,0,0,,4,,,64,127
100431,note_off,0,0,0,,10,,,57,127
100432,note_on,1,0,0,,12,,,59,127
100432,note_on,0,0,0,,6,,,66,127
100551,note_off,119,0,0,,6,,,66,127
100552,note_on,1,0,0,,10,,,69,127
100671,note_off,119,0,0,,10,,,69,127
100671,note_off,0,0,0,,12,,,59,127
100672,note_on,1,0,0,,3,,,51,127
100672,note_on,0,0,0,,8,,,68,127
100791,note_off,119,0,0,,8,,,68,127
100792,note_on,1,0,0,,6,,,66,127
100911,note_off,119,0,0,,6,,,66,127
100911,note_off,0,0,0,,3,,,51,127
100912,note_on,1,0,0,,4,,,52,127
100912,note_on,0,0,0,,8,,,68,127
101031,note_off,119,0,0,,8,,,68,127
101032,note_on,1,0,0,,12,,,71,127
101151,note_off,119,0,0,,12,,,71,127
101152,note_on,1,0,0,,4,,,64,127
101152,note_on,0,0,0,,10,,,69,127
101271,note_off,119,0,0,,10,,,69,127
101272,note_on,1,0,0,,8,,,68,127
101391,note_off,119,0,0,,8,,,68,127
101391,note_off,0,0,0,,4,,,64,127
101391,note_off,0,0,0,,4,,,52,127
101392,note_on,1,0,0,,6,,,54,127
101392,note_on,0,0,0,,10,,,69,127
101511,note_off,119,0,0,,10,,,69,127
101512,note_on,1,0,0,,12,,,71,127
101631,note_off,119,0,0,,12,,,71,127
101631,note_off,0,0,0,,6,,,54,127
101632,note_on,1,0,0,,10,,,57,127
101632,note_on,0,0,0,,1,,,73,127
101751,note_off,119,0,0,,1,,,73,127
101752,note_on,1,0,0,,3,,,75,127
101871,note_off,119,0,0,,3,,,75,127
101871,note_off,0,0,0,,10,,,57,127
101872,note_on,1,0,0,,8,,,56,127
101872,note_on,0,0,0,,4,,,76,127
101991,note_off,119,0,0,,4,,,76,127
101992,note_on,1,0,0,,12,,,71,127
102111,note_off,119,0,0,,12,,,71,127
102111,note_off,0,0,0,,8,,,56,127
102112,note_on,1,0,0,,10,,,57,127
102112,note_on,0,0,0,,1,,,73,127
102231,note_off,119,0,0,,1,,,73,127
102232,note_on,1,0,0,,10,,,81,127
102351,note_off,119,0,0,,10,,,81,127
102351,note_off,0,0,0,,10,,,57,127
102352,note_on,1,0,0,,12,,,59,127
102352,note_on,0,0,0,,8,,,80,127
102471,note_off,119,0,0,,8,,,80,127
102472,note_on,1,0,0,,6,,,78,127
102591,note_off,119,0,0,,6,,,78,127
102592,note_on,1,0,0,,12,,,47,127
102592,note_on,0,0,0,,4,,,76,127
102711,note_off,119,0,0,,4,,,76,127
102712,note_on,1,0,0,,3,,,75,127
102831,note_off,119,0,0,,3,,,75,127
102831,note_off,0,0,0,,12,,,47,127
102831,note_off,0,0,0,,12,,,59,127
102832,note_on,1,0,0,,4,,,52,127
102832,note_on,0,0,0,,4,,,76,127
102952,note_on,120,0,0,,12,,,71,127
103071,note_off,119,0,0,,12,,,71,127
103071,note_off,0,0,0,,4,,,76,127
103071,note_off,0,0,0,,4,,,52,127
103072,note_on,1,0,0,,4,,,40,127
103072,note_on,0,0,0,,4,,,52,127
103072,note_on,0,0,0,,8,,,80,127
103191,note_off,119,0,0,,8,,,80,127
103192,note_on,1,0,0,,10,,,81,127
103311,note_off,119,0,0,,10,,,81,127
103311,note_off,0,0,0,,4,,,52,127
103311,note_off,0,0,0,,4,,,40,127
103312,note_on,1,0,0,,8,,,44,127
103312,note_on,0,0,0,,8,,,56,127
103312,note_on,0,0,0,,12,,,83,127
103431,note_off,119,0,0,,12,,,83,127
103432,note_on,1,0,0,,4,,,76,127
103551,note_off,119,0,0,,4,,,76,127
103551,note_off,0,0,0,,8,,,56,127
103551,note_off,0,0,0,,8,,,44,127
103552,note_on,1,0,0,,12,,,59,127
103552,note_on,0,0,0,,12,,,47,127
103552,note_on,0,0,0,,6,,,78,127
103671,note_off,119,0,0,,6,,,78,127
103672,note_on,1,0,0,,3,,,75,127
103791,note_off,119,0,0,,3,,,75,127
103791,note_off,0,0,0,,12,,,47,127
103791,note_off,0,0,0,,12,,,59,127
103792,note_on,1,0,0,,4,,,52,127
103792,note_on,0,0,0,,4,,,64,127
103792,note_on,0,0,0,,4,,,76,127
103912,note_on,120,0,0,,12,,,71,127
104031,note_off,119,0,0,,12,,,71,127
104031,note_off,0,0,0,,4,,,76,127
104031,note_off,0,0,0,,4,,,64,127
104031,note_off,0,0,0,,4,,,52,127
104032,note_on,1,0,0,,4,,,52,127
104032,note_on,0,0,0,,4,,,40,127
104032,note_on,0,0,0,,8,,,80,127
104151,note_off,119,0,0,,8,,,80,127
104152,note_on,1,0,0,,10,,,81,127
104271,note_off,119,0,0,,10,,,81,127
104271,note_off,0,0,0,,4,,,40,127
104271,note_off,0,0,0,,4,,,52,127
104272,note_on,1,0,0,,8,,,44,127
104272,note_on,0,0,0,,8,,,56,127
104272,note_on,0,0,0,,12,,,83,127
104391,note_off,119,0,0,,12,,,83,127
104392,note_on,1,0,0,,4,,,76,127
104511,note_off,119,0,0,,4,,,76,127
104511,note_off,0,0,0,,8,,,56,127
104511,note_off,0,0,0,,8,,,44,127
104512,note_on,1,0,0,,12,,,47,127
104512,note_on,0,0,0,,12,,,59,127
104512,note_on,0,0,0,,6,,,78,127
104631,note_off,119,0,0,,6,,,78,127
104632,note_on,1,0,0,,3,,,75,127
104751,note_off,119,0,0,,3,,,75,127
104751,note_off,0,0,0,,12,,,59,127
104751,note_off,0,0,0,,12,,,47,127
104752,note_on,1,0,0,,4,,,52,127
104752,note_on,0,0,0,,4,,,64,127
104752,note_on,0,0,0,,4,,,76,127
104871,note_off,119,0,0,,4,,,76,127
104872,note_on,1,0,0,,8,,,80,127
104991,note_off,119,0,0,,8,,,80,127
104991,note_off,0,0,0,,4,,,64,127
104991,note_off,0,0,0,,4,,,52,127
104992,note_on,1,0,0,,10,,,57,127
104992,note_on,0,0,0,,6,,,78,127
105111,note_off,119,0,0,,6,,,78,127
105112,note_on,1,0,0,,10,,,81,127
105231,note_off,119,0,0,,10,,,81,127
105231,note_off,0,0,0,,10,,,57,127
105232,note_on,1,0,0,,12,,,59,127
105232,note_on,0,0,0,,8,,,80,127
105351,note_off,119,0,0,,8,,,80,127
105352,note_on,1,0,0,,6,,,78,127
105471,note_off,119,0,0,,6,,,78,127
105472,note_on,1,0,0,,12,,,47,127
105472,note_on,0,0,0,,4,,,76,127
105591,note_off,119,0,0,,4,,,76,127
105592,note_on,1,0,0,,3,,,75,127
105711,note_off,119,0,0,,3,,,75,127
105711,note_off,0,0,0,,12,,,47,127
105711,note_off,0,0,0,,12,,,59,127
105712,note_on,1,0,0,,4,,,52,127
105712,note_on,0,0,0,,4,,,76,127
105832,note_on,120,0,0,,12,,,71,127
105951,note_off,119,0,0,,12,,,71,127
105951,note_off,0,0,0,,4,,,76,127
105951,note_off,0,0,0,,4,,,52,127
105952,note_on,1,0,0,,4,,,52,127
105952,note_on,0,0,0,,4,,,40,127
105952,note_on,0,0,0,,4,,,76,127
105952,note_on,0,0,0,,8,,,80,127
106071,note_off,119,0,0,,8,,,80,127
106071,note_off,0,0,0,,4,,,76,127
106072,note_on,1,0,0,,6,,,78,127
106072,note_on,0,0,0,,10,,,81,127
106191,note_off,119,0,0,,10,,,81,127
106191,note_off,0,0,0,,6,,,78,127
106191,note_off,0,0,0,,4,,,40,127
106191,note_off,0,0,0,,4,,,52,127
106192,note_on,1,0,0,,8,,,56,127
106192,note_on,0,0,0,,8,,,44,127
106192,note_on,0,0,0,,8,,,80,127
106192,note_on,0,0,0,,12,,,83,127
106311,note_off,119,0,0,,12,,,83,127
106311,note_off,0,0,0,,8,,,80,127
106312,note_on,1,0,0,,10,,,81,127
106312,note_on,0,0,0,,6,,,78,127
106431,note_off,119,0,0,,6,,,78,127
106431,note_off,0,0,0,,10,,,81,127
106431,note_off,0,0,0,,8,,,44,127
106431,note_off,0,0,0,,8,,,56,127
106432,note_on,1,0,0,,12,,,59,127
106432,note_on,0,0,0,,12,,,47,127
106432,note_on,0,0,0,,8,,,80,127
106432,note_on,0,0,0,,4,,,76,127
106551,note_off,119,0,0,,4,,,76,127
106551,note_off,0,0,0,,8,,,80,127
106552,note_on,1,0,0,,3,,,75,127
106552,note_on,0,0,0,,6,,,78,127
106671,note_off,119,0,0,,6,,,78,127
106671,note_off,0,0,0,,3,,,75,127
106671,note_off,0,0,0,,12,,,47,127
106671,note_off,0,0,0,,12,,,59,127
106672,note_on,1,0,0,,4,,,64,127
106672,note_on,0,0,0,,4,,,52,127
106672,note_on,0,0,0,,8,,,80,127
106672,note_on,0,0,0,,4,,,76,127
106791,note_off,119,0,0,,4,,,76,127
106791,note_off,0,0,0,,8,,,80,127
106792,note_on,1,0,0,,3,,,75,127
106792,note_on,0,0,0,,6,,,78,127
106911,note_off,119,0,0,,6,,,78,127
106911,note_off,0,0,0,,3,,,75,127
106911,note_off,0,0,0,,4,,,52,127
106911,note_off,0,0,0,,4,,,64,127
106912,note_on,1,0,0,,4,,,52,127
106912,note_on,0,0,0,,4,,,40,127
106912,note_on,0,0,0,,8,,,80,127
106912,note_on,0,0,0,,4,,,76,127
107031,note_off,119,0,0,,4,,,76,127
107031,note_off,0,0,0,,8,,,80,127
107032,note_on,1,0,0,,6,,,78,127
107032,note_on,0,0,0,,10,,,81,127
107151,note_off,119,0,0,,10,,,81,127
107151,note_off,0,0,0,,6,,,78,127
107151,note_off,0,0,0,,4,,,40,127
107151,note_off,0,0,0,,4,,,52,127
107152,note_on,1,0,0,,8,,,56,127
107152,note_on,0,0,0,,8,,,44,127
107152,note_on,0,0,0,,8,,,80,127
107152,note_on,0,0,0,,12,,,83,127
107271,note_off,119,0,0,,12,,,83,127
107271,note_off,0,0,0,,8,,,80,127
107272,note_on,1,0,0,,6,,,78,127
107272,note_on,0,0,0,,10,,,81,127
107391,note_off,119,0,0,,10,,,81,127
107391,note_off,0,0,0,,6,,,78,127
107391,note_off,0,0,0,,8,,,44,127
107391,note_off,0,0,0,,8,,,56,127
107392,note_on,1,0,0,,12,,,47,127
107392,note_on,0,0,0,,12,,,59,127
107392,note_on,0,0,0,,4,,,76,127
107392,note_on,0,0,0,,8,,,80,127
107511,note_off,119,0,0,,8,,,80,127
107511,note_off,0,0,0,,4,,,76,127
107512,note_on,1,0,0,,6,,,78,127
107512,note_on,0,0,0,,3,,,75,127
107631,note_off,119,0,0,,3,,,75,127
107631,note_off,0,0,0,,6,,,78,127
107631,note_off,0,0,0,,12,,,59,127
107631,note_off,0,0,0,,12,,,47,127
107632,note_on,1,0,0,,4,,,64,127
107632,note_on,0,0,0,,4,,,52,127
107632,note_on,0,0,0,,8,,,80,127
107632,note_on,0,0,0,,4,,,76,127
107751,note_off,119,0,0,,4,,,76,127
107751,note_off,0,0,0,,8,,,80,127
107752,note_on,1,0,0,,6,,,78,127
107752,note_on,0,0,0,,3,,,75,127
107871,note_off,119,0,0,,3,,,75,127
107871,note_off,0,0,0,,6,,,78,127
107871,note_off,0,0,0,,4,,,52,127
107871,note_off,0,0,0,,4,,,64,127
107872,note_on,1,0,0,,4,,,52,127
107872,note_on,0,0,0,,4,,,40,127
107872,note_on,0,0,0,,8,,,80,127
107872,note_on,0,0,0,,4,,,76,127
107991,note_off,119,0,0,,4,,,76,127
107991,note_off,0,0,0,,8,,,80,127
107992,note_on,1,0,0,,6,,,78,127
107992,note_on,0,0,0,,10,,,81,127
108111,note_off,119,0,0,,10,,,81,127
108111,note_off,0,0,0,,6,,,78,127
108111,note_off,0,0,0,,4,,,40,127
108111,note_off,0,0,0,,4,,,52,127
108112,note_on,1,0,0,,8,,,56,127
108112,note_on,0,0,0,,8,,,44,127
108112,note_on,0,0,0,,8,,,80,127
108112,note_on,0,0,0,,12,,,83,127
108231,note_off,119,0,0,,12,,,83,127
108231,note_off,0,0,0,,8,,,80,127
108232,note_on,1,0,0,,10,,,81,127
108232,note_on,0,0,0,,6,,,78,127
108351,note_off,119,0,0,,6,,,78,127
108351,note_off,0,0,0,,10,,,81,127
108351,note_off,0,0,0,,8,,,44,127
108351,note_off,0,0,0,,8,,,56,127
108352,note_on,1,0,0,,12,,,59,127
108352,note_on,0,0,0,,12,,,47,127
108352,note_on,0,0,0,,4,,,76,127
108352,note_on,0,0,0,,8,,,80,127
108471,note_off,119,0,0,,8,,,80,127
108471,note_off,0,0,0,,4,,,76,127
108472,note_on,1,0,0,,6,,,78,127
108472,note_on,0,0,0,,3,,,75,127
108591,note_off,119,0,0,,3,,,75,127
108591,note_off,0,0,0,,6,,,78,127
108591,note_off,0,0,0,,12,,,47,127
108591,note_off,0,0,0,,12,,,59,127
108592,note_on,1,0,0,,4,,,64,127
108592,note_on,0,0,0,,4,,,52,127
108592,note_on,0,0,0,,4,,,76,127
108592,note_on,0,0,0,,8,,,80,127
108711,note_off,119,0,0,,8,,,80,127
108711,note_off,0,0,0,,4,,,76,127
108712,note_on,1,0,0,,12,,,83,127
108831,note_off,119,0,0,,12,,,83,127
108831,note_off,0,0,0,,4,,,52,127
108831,note_off,0,0,0,,4,,,64,127
108832,note_on,1,0,0,,10,,,57,127
108832,note_on,0,0,0,,10,,,81,127
108951,note_off,119,0,0,,10,,,81,127
108952,note_on,1,0,0,,1,,,85,127
109071,note_off,119,0,0,,1,,,85,127
109071,note_off,0,0,0,,10,,,57,127
109072,note_on,1,0,0,,12,,,59,127
109072,note_on,0,0,0,,12,,,83,127
109191,note_off,119,0,0,,12,,,83,127
109192,note_on,1,0,0,,10,,,81,127
109311,note_off,119,0,0,,10,,,81,127
109312,note_on,1,0,0,,12,,,47,127
109312,note_on,0,0,0,,8,,,80,127
109431,note_off,119,0,0,,8,,,80,127
109432,note_on,1,0,0,,6,,,78,127
109551,note_off,119,0,0,,6,,,78,127
109551,note_off,0,0,0,,12,,,47,127
109551,note_off,0,0,0,,12,,,59,127
109552,note_on,1,0,0,,4,,,64,127
109552,note_on,0,0,0,,4,,,76,127
109671,note_off,119,0,0,,4,,,76,127
109672,note_on,1,0,0,,8,,,80,127
109791,note_off,119,0,0,,8,,,80,127
109791,note_off,0,0,0,,4,,,64,127
109792,note_on,1,0,0,,1,,,61,127
109792,note_on,0,0,0,,11,,,70,127
109911,note_off,119,0,0,,11,,,70,127
109912,note_on,1,0,0,,1,,,73,127
110031,note_off,119,0,0,,1,,,73,127
110031,note_off,0,0,0,,1,,,61,127
110032,note_on,1,0,0,,3,,,63,127
110032,note_on,0,0,0,,12,,,71,127
110151,note_off,119,0,0,,12,,,71,127
110152,note_on,1,0,0,,1,,,73,127
110271,note_off,119,0,0,,1,,,73,127
110271,note_off,0,0,0,,3,,,63,127
110272,note_on,1,0,0,,12,,,59,127
110272,note_on,0,0,0,,6,,,66,127
110391,note_off,119,0,0,,6,,,66,127
110392,note_on,1,0,0,,10,,,69,127
110511,note_off,119,0,0,,10,,,69,127
110511,note_off,0,0,0,,12,,,59,127
110512,note_on,1,0,0,,4,,,64,127
110512,note_on,0,0,0,,8,,,68,127
110631,note_off,119,0,0,,8,,,68,127
110632,note_on,1,0,0,,12,,,71,127
110751,note_off,119,0,0,,12,,,71,127
110751,note_off,0,0,0,,4,,,64,127
110752,note_on,1,0,0,,10,,,57,127
110752,note_on,0,0,0,,10,,,69,127
110871,note_off,119,0,0,,10,,,69,127
110872,note_on,1,0,0,,1,,,73,127
110991,note_off,119,0,0,,1,,,73,127
110991,note_off,0,0,0,,10,,,57,127
110992,note_on,1,0,0,,12,,,59,127
110992,note_on,0,0,0,,12,,,71,127
111111,note_off,119,0,0,,12,,,71,127
111112,note_on,1,0,0,,10,,,69,127
111231,note_off,119,0,0,,10,,,69,127
111232,note_on,1,0,0,,12,,,47,127
111232,note_on,0,0,0,,8,,,68,127
111351,note_off,119,0,0,,8,,,68,127
111352,note_on,1,0,0,,6,,,66,127
111471,note_off,119,0,0,,6,,,66,127
111471,note_off,0,0,0,,12,,,47,127
111471,note_off,0,0,0,,12,,,59,127
111472,note_on,1,0,0,,4,,,40,127
111472,note_on,0,0,0,,4,,,64,127
111591,note_off,119,0,0,,4,,,64,127
111592,note_on,1,0,0,,8,,,68,127
111711,note_off,119,0,0,,8,,,68,127
111711,note_off,0,0,0,,4,,,40,127
111712,note_on,1,0,0,,4,,,52,127
111712,note_on,0,0,0,,11,,,58,127
111831,note_off,119,0,0,,11,,,58,127
111832,note_on,1,0,0,,1,,,61,127
111951,note_off,119,0,0,,1,,,61,127
111951,note_off,0,0,0,,4,,,52,127
111952,note_on,1,0,0,,3,,,51,127
111952,note_on,0,0,0,,12,,,59,127
112071,note_off,119,0,0,,12,,,59,127
112072,note_on,1,0,0,,1,,,61,127
112191,note_off,119,0,0,,1,,,61,127
112191,note_off,0,0,0,,3,,,51,127
112192,note_on,1,0,0,,12,,,47,127
112192,note_on,0,0,0,,6,,,54,127
112311,note_off,119,0,0,,6,,,54,127
112312,note_on,1,0,0,,10,,,57,127
112431,note_off,119,0,0,,10,,,57,127
112431,note_off,0,0,0,,12,,,47,127
112432,note_on,1,0,0,,4,,,52,127
112432,note_on,0,0,0,,8,,,56,127
112551,note_off,119,0,0,,8,,,56,127
112552,note_on,1,0,0,,12,,,59,127
112671,note_off,119,0,0,,12,,,59,127
112671,note_off,0,0,0,,4,,,52,127
112672,note_on,1,0,0,,10,,,45,127
112672,note_on,0,0,0,,10,,,57,127
112791,note_off,119,0,0,,10,,,57,127
112792,note_on,1,0,0,,1,,,61,127
112911,note_off,119,0,0,,1,,,61,127
112911,note_off,0,0,0,,10,,,45,127
112912,note_on,1,0,0,,12,,,47,127
112912,note_on,0,0,0,,12,,,59,127
113031,note_off,119,0,0,,12,,,59,127
113032,note_on,1,0,0,,10,,,57,127
113151,note_off,119,0,0,,10,,,57,127
113152,note_on,1,0,0,,12,,,35,127
113152,note_on,0,0,0,,8,,,56,127
113271,note_off,119,0,0,,8,,,56,127
113272,note_on,1,0,0,,6,,,54,127
113391,note_off,119,0,0,,6,,,54,127
113391,note_off,0,0,0,,12,,,35,127
113391,note_off,0,0,0,,12,,,47,127
113392,note_on,1,0,0,,4,,,40,127
113392,note_on,0,0,0,,6,,,54,127
113871,note_off,479,0,0,,6,,,54,127
113872,note_on,1,0,0,,4,,,52,127
115432,note_off,1560,0,0,,4,,,52,127
115432,note_off,0,0,0,,4,,,40,127
116736,end_of_track,1304,1,0,,,,,,
