tick,type,time,meta,track,program,channel,pitch,tempo,note,velocity
0,copyright,0,1,0,,,,,,
0,program_change,0,0,0,6,0,,,,
0,pitchwheel,0,0,0,,0,0,,,
0,program_change,0,0,0,6,1,,,,
0,pitchwheel,0,0,0,,1,-590,,,
0,program_change,0,0,0,6,2,,,,
0,pitchwheel,0,0,0,,2,-272,,,
0,program_change,0,0,0,6,3,,,,
0,pitchwheel,0,0,0,,3,-353,,,
0,program_change,0,0,0,6,4,,,,
0,pitchwheel,0,0,0,,4,-560,,,
0,program_change,0,0,0,6,5,,,,
0,pitchwheel,0,0,0,,5,-80,,,
0,program_change,0,0,0,6,6,,,,
0,pitchwheel,0,0,0,,6,-625,,,
0,program_change,0,0,0,6,7,,,,
0,pitchwheel,0,0,0,,7,-130,,,
0,program_change,0,0,0,6,8,,,,
0,pitchwheel,0,0,0,,8,-512,,,
0,program_change,0,0,0,6,10,,,,
0,pitchwheel,0,0,0,,10,-464,,,
0,program_change,0,0,0,6,11,,,,
0,pitchwheel,0,0,0,,11,-208,,,
0,program_change,0,0,0,6,12,,,,
0,pitchwheel,0,0,0,,12,-553,,,
0,set_tempo,0,1,0,,,,500000,,
79,note_on,79,0,0,,4,,,52,127
79,note_on,0,0,0,,4,,,40,127
79,note_on,0,0,0,,12,,,47,127
79,note_on,0,0,0,,12,,,83,127
238,note_on,159,0,0,,8,,,80,127
394,note_off,156,0,0,,12,,,83,127
396,note_off,2,0,0,,8,,,80,127
397,note_on,1,0,0,,4,,,76,127
555,note_off,158,0,0,,4,,,76,127
556,note_on,1,0,0,,12,,,71,127
715,note_on,159,0,0,,8,,,68,127
871,note_off,156,0,0,,12,,,71,127
873,note_off,2,0,0,,8,,,68,127
874,note_on,1,0,0,,4,,,64,127
990,note_off,116,0,0,,12,,,47,127
990,note_off,0,0,0,,4,,,40,127
990,note_off,0,0,0,,4,,,52,127
1032,note_off,42,0,0,,4,,,64,127
1033,note_on,1,0,0,,12,,,59,127
1033,note_on,0,0,0,,10,,,81,127
1192,note_on,159,0,0,,6,,,78,127
1348,note_off,156,0,0,,10,,,81,127
1350,note_off,2,0,0,,6,,,78,127
1351,note_on,1,0,0,,3,,,75,127
1509,note_off,158,0,0,,3,,,75,127
1510,note_on,1,0,0,,10,,,69,127
1669,note_on,159,0,0,,6,,,66,127
1778,note_off,109,0,0,,12,,,59,127
1824,note_off,46,0,0,,10,,,69,127
1826,note_off,2,0,0,,6,,,66,127
1827,note_on,1,0,0,,10,,,81,127
1827,note_on,0,0,0,,3,,,63,127
1985,note_off,158,0,0,,3,,,63,127
1985,note_off,0,0,0,,10,,,81,127
1986,note_on,1,0,0,,10,,,81,127
1986,note_on,0,0,0,,4,,,64,127
2025,note_off,39,0,0,,10,,,81,127
2026,note_on,1,0,0,,8,,,80,127
2065,note_off,39,0,0,,8,,,80,127
2066,note_on,1,0,0,,10,,,81,127
2105,note_off,39,0,0,,10,,,81,127
2106,note_on,1,0,0,,8,,,80,127
2145,note_off,39,0,0,,8,,,80,127
2146,note_on,1,0,0,,6,,,78,127
2304,note_off,158,0,0,,6,,,78,127
2304,note_off,0,0,0,,4,,,64,127
2305,note_on,1,0,0,,4,,,76,127
2305,note_on,0,0,0,,8,,,68,127
2463,note_off,158,0,0,,8,,,68,127
2463,note_off,0,0,0,,4,,,76,127
2464,note_on,1,0,0,,8,,,80,127
2464,note_on,0,0,0,,10,,,57,127
2503,note_off,39,0,0,,8,,,80,127
2504,note_on,1,0,0,,6,,,78,127
2543,note_off,39,0,0,,6,,,78,127
2544,note_on,1,0,0,,8,,,80,127
2583,note_off,39,0,0,,8,,,80,127
2584,note_on,1,0,0,,6,,,78,127
2623,note_off,39,0,0,,6,,,78,127
2624,note_on,1,0,0,,4,,,76,127
2782,note_off,158,0,0,,4,,,76,127
2782,note_off,0,0,0,,10,,,57,127
2783,note_on,1,0,0,,3,,,75,127
2783,note_on,0,0,0,,12,,,59,127
2907,note_off,124,0,0,,3,,,75,127
2941,note_off,34,0,0,,12,,,59,127
2942,note_on,1,0,0,,4,,,76,127
2942,note_on,0,0,0,,4,,,52,127
3101,note_on,159,0,0,,12,,,71,127
3257,note_off,156,0,0,,4,,,76,127
3259,note_off,2,0,0,,12,,,71,127
3260,note_on,1,0,0,,8,,,68,127
3418,note_off,158,0,0,,8,,,68,127
3419,note_on,1,0,0,,4,,,64,127
3578,note_on,159,0,0,,12,,,59,127
3734,note_off,156,0,0,,4,,,64,127
3736,note_off,2,0,0,,12,,,59,127
3737,note_on,1,0,0,,8,,,56,127
3853,note_off,116,0,0,,4,,,52,127
3895,note_off,42,0,0,,8,,,56,127
3896,note_on,1,0,0,,12,,,47,127
3896,note_on,0,0,0,,10,,,69,127
4055,note_on,159,0,0,,6,,,66,127
4211,note_off,156,0,0,,10,,,69,127
4213,note_off,2,0,0,,6,,,66,127
4214,note_on,1,0,0,,3,,,63,127
4372,note_off,158,0,0,,3,,,63,127
4373,note_on,1,0,0,,10,,,57,127
4532,note_on,159,0,0,,6,,,54,127
4641,note_off,109,0,0,,12,,,47,127
4687,note_off,46,0,0,,10,,,57,127
4689,note_off,2,0,0,,6,,,54,127
4690,note_on,1,0,0,,10,,,69,127
4690,note_on,0,0,0,,3,,,51,127
4848,note_off,158,0,0,,3,,,51,127
4848,note_off,0,0,0,,10,,,69,127
4849,note_on,1,0,0,,10,,,69,127
4849,note_on,0,0,0,,4,,,52,127
4888,note_off,39,0,0,,10,,,69,127
4889,note_on,1,0,0,,8,,,68,127
4928,note_off,39,0,0,,8,,,68,127
4929,note_on,1,0,0,,10,,,69,127
4968,note_off,39,0,0,,10,,,69,127
4969,note_on,1,0,0,,8,,,68,127
5008,note_off,39,0,0,,8,,,68,127
5009,note_on,1,0,0,,6,,,66,127
5167,note_off,158,0,0,,6,,,66,127
5167,note_off,0,0,0,,4,,,52,127
5168,note_on,1,0,0,,4,,,64,127
5168,note_on,0,0,0,,8,,,56,127
5326,note_off,158,0,0,,8,,,56,127
5326,note_off,0,0,0,,4,,,64,127
5327,note_on,1,0,0,,8,,,68,127
5327,note_on,0,0,0,,10,,,57,127
5366,note_off,39,0,0,,8,,,68,127
5367,note_on,1,0,0,,6,,,66,127
5406,note_off,39,0,0,,6,,,66,127
5407,note_on,1,0,0,,8,,,68,127
5446,note_off,39,0,0,,8,,,68,127
5447,note_on,1,0,0,,6,,,66,127
5486,note_off,39,0,0,,6,,,66,127
5487,note_on,1,0,0,,4,,,64,127
5645,note_off,158,0,0,,4,,,64,127
5645,note_off,0,0,0,,10,,,57,127
5646,note_on,1,0,0,,3,,,63,127
5646,note_on,0,0,0,,12,,,59,127
5804,note_off,158,0,0,,12,,,59,127
5804,note_off,0,0,0,,3,,,63,127
5805,note_on,1,0,0,,3,,,63,127
5805,note_on,0,0,0,,4,,,52,127
6118,note_on,313,0,0,,4,,,64,127
6122,note_off,4,0,0,,3,,,63,127
6250,note_off,128,0,0,,4,,,64,127
6270,note_off,20,0,0,,4,,,52,127
6282,note_on,12,0,0,,10,,,81,127
6282,note_on,0,0,0,,6,,,78,127
6440,note_off,158,0,0,,6,,,78,127
6441,note_on,1,0,0,,3,,,75,127
6599,note_off,158,0,0,,3,,,75,127
6600,note_on,1,0,0,,12,,,71,127
6758,note_off,158,0,0,,12,,,71,127
6758,note_off,0,0,0,,10,,,81,127
6759,note_on,1,0,0,,8,,,80,127
6759,note_on,0,0,0,,4,,,64,127
6917,note_off,158,0,0,,8,,,80,127
6918,note_on,1,0,0,,4,,,76,127
7076,note_off,158,0,0,,4,,,76,127
7077,note_on,1,0,0,,12,,,71,127
7235,note_off,158,0,0,,12,,,71,127
7235,note_off,0,0,0,,4,,,64,127
7236,note_on,1,0,0,,3,,,75,127
7236,note_on,0,0,0,,12,,,71,127
7236,note_on,0,0,0,,6,,,78,127
7236,note_on,0,0,0,,10,,,69,127
7394,note_off,158,0,0,,10,,,69,127
7395,note_on,1,0,0,,6,,,66,127
7553,note_off,158,0,0,,6,,,66,127
7554,note_on,1,0,0,,12,,,59,127
7712,note_off,158,0,0,,12,,,59,127
7712,note_off,0,0,0,,6,,,78,127
7712,note_off,0,0,0,,3,,,75,127
7713,note_on,1,0,0,,8,,,80,127
7713,note_on,0,0,0,,4,,,64,127
7871,note_off,158,0,0,,8,,,80,127
7872,note_on,1,0,0,,4,,,76,127
8029,note_off,157,0,0,,12,,,71,127
8030,note_off,1,0,0,,4,,,76,127
8031,note_on,1,0,0,,12,,,71,127
8189,note_off,158,0,0,,12,,,71,127
8189,note_off,0,0,0,,4,,,64,127
8190,note_on,1,0,0,,10,,,81,127
8190,note_on,0,0,0,,12,,,71,127
8190,note_on,0,0,0,,6,,,78,127
8190,note_on,0,0,0,,6,,,66,127
8348,note_off,158,0,0,,6,,,66,127
8349,note_on,1,0,0,,3,,,63,127
8507,note_off,158,0,0,,3,,,63,127
8508,note_on,1,0,0,,12,,,59,127
8666,note_off,158,0,0,,12,,,59,127
8666,note_off,0,0,0,,6,,,78,127
8666,note_off,0,0,0,,10,,,81,127
8667,note_on,1,0,0,,8,,,80,127
8667,note_on,0,0,0,,4,,,64,127
8825,note_off,158,0,0,,8,,,80,127
8826,note_on,1,0,0,,4,,,76,127
8983,note_off,157,0,0,,12,,,71,127
8984,note_off,1,0,0,,4,,,76,127
8985,note_on,1,0,0,,12,,,71,127
9143,note_off,158,0,0,,12,,,71,127
9143,note_off,0,0,0,,4,,,64,127
9144,note_on,1,0,0,,3,,,75,127
9144,note_on,0,0,0,,6,,,78,127
9144,note_on,0,0,0,,12,,,71,127
9144,note_on,0,0,0,,10,,,69,127
9302,note_off,158,0,0,,10,,,69,127
9303,note_on,1,0,0,,6,,,66,127
9461,note_off,158,0,0,,6,,,66,127
9462,note_on,1,0,0,,12,,,59,127
9620,note_off,158,0,0,,12,,,59,127
9620,note_off,0,0,0,,6,,,78,127
9620,note_off,0,0,0,,3,,,75,127
9621,note_on,1,0,0,,8,,,80,127
9621,note_on,0,0,0,,4,,,64,127
9779,note_off,158,0,0,,8,,,80,127
9780,note_on,1,0,0,,4,,,76,127
9937,note_off,157,0,0,,12,,,71,127
9938,note_off,1,0,0,,4,,,76,127
9939,note_on,1,0,0,,12,,,71,127
10097,note_off,158,0,0,,12,,,71,127
10097,note_off,0,0,0,,4,,,64,127
10098,note_on,1,0,0,,12,,,71,127
10098,note_on,0,0,0,,10,,,81,127
10098,note_on,0,0,0,,6,,,78,127
10098,note_on,0,0,0,,6,,,66,127
10256,note_off,158,0,0,,6,,,66,127
10257,note_on,1,0,0,,3,,,63,127
10415,note_off,158,0,0,,3,,,63,127
10416,note_on,1,0,0,,12,,,59,127
10574,note_off,158,0,0,,12,,,59,127
10574,note_off,0,0,0,,6,,,78,127
10574,note_off,0,0,0,,10,,,81,127
10574,note_off,0,0,0,,12,,,71,127
10575,note_on,1,0,0,,8,,,80,127
10575,note_on,0,0,0,,10,,,81,127
10575,note_on,0,0,0,,4,,,52,127
10733,note_off,158,0,0,,10,,,81,127
10733,note_off,0,0,0,,8,,,80,127
10734,note_on,1,0,0,,6,,,78,127
10892,note_off,158,0,0,,6,,,78,127
10893,note_on,1,0,0,,4,,,76,127
11051,note_off,158,0,0,,4,,,76,127
11051,note_off,0,0,0,,4,,,52,127
11052,note_on,1,0,0,,12,,,83,127
11052,note_on,0,0,0,,8,,,68,127
11052,note_on,0,0,0,,4,,,64,127
11211,note_on,159,0,0,,8,,,80,127
11367,note_off,156,0,0,,12,,,83,127
11369,note_off,2,0,0,,8,,,80,127
11370,note_on,1,0,0,,4,,,76,127
11528,note_off,158,0,0,,4,,,76,127
11528,note_off,0,0,0,,4,,,64,127
11528,note_off,0,0,0,,8,,,68,127
11529,note_on,1,0,0,,5,,,77,127
11529,note_on,0,0,0,,6,,,66,127
11529,note_on,0,0,0,,3,,,63,127
11687,note_off,158,0,0,,5,,,77,127
11688,note_on,1,0,0,,6,,,78,127
11847,note_on,159,0,0,,12,,,83,127
12003,note_off,156,0,0,,6,,,78,127
12005,note_off,2,0,0,,3,,,63,127
12005,note_off,0,0,0,,6,,,66,127
12006,note_on,1,0,0,,3,,,75,127
12006,note_on,0,0,0,,4,,,64,127
12006,note_on,0,0,0,,1,,,61,127
12079,note_off,73,0,0,,12,,,83,127
12164,note_off,85,0,0,,3,,,75,127
12165,note_on,1,0,0,,4,,,76,127
12324,note_on,159,0,0,,12,,,83,127
12480,note_off,156,0,0,,4,,,76,127
12482,note_off,2,0,0,,1,,,61,127
12482,note_off,0,0,0,,4,,,64,127
12483,note_on,1,0,0,,1,,,73,127
12483,note_on,0,0,0,,12,,,59,127
12483,note_on,0,0,0,,6,,,66,127
12556,note_off,73,0,0,,12,,,83,127
12641,note_off,85,0,0,,1,,,73,127
12642,note_on,1,0,0,,3,,,75,127
12801,note_on,159,0,0,,12,,,83,127
12957,note_off,156,0,0,,3,,,75,127
12959,note_off,2,0,0,,12,,,83,127
12959,note_off,0,0,0,,6,,,66,127
12959,note_off,0,0,0,,12,,,59,127
12960,note_on,1,0,0,,11,,,70,127
12960,note_on,0,0,0,,6,,,54,127
12960,note_on,0,0,0,,1,,,61,127
12960,note_on,0,0,0,,4,,,64,127
13118,note_off,158,0,0,,11,,,70,127
13119,note_on,1,0,0,,1,,,73,127
13277,note_off,158,0,0,,1,,,73,127
13278,note_on,1,0,0,,4,,,76,127
13436,note_off,158,0,0,,4,,,76,127
13436,note_off,0,0,0,,4,,,64,127
13436,note_off,0,0,0,,1,,,61,127
13436,note_off,0,0,0,,6,,,54,127
13437,note_on,1,0,0,,3,,,75,127
13437,note_on,0,0,0,,12,,,71,127
13437,note_on,0,0,0,,12,,,59,127
13595,note_off,158,0,0,,3,,,75,127
13596,note_on,1,0,0,,4,,,76,127
13754,note_off,158,0,0,,4,,,76,127
13755,note_on,1,0,0,,6,,,78,127
13868,note_off,113,0,0,,12,,,59,127
13901,note_off,33,0,0,,12,,,71,127
13913,note_off,12,0,0,,6,,,78,127
13914,note_on,1,0,0,,8,,,80,127
13914,note_on,0,0,0,,4,,,64,127
14073,note_on,159,0,0,,0,,,72,127
14231,note_off,158,0,0,,0,,,72,127
14232,note_on,1,0,0,,1,,,73,127
14390,note_off,158,0,0,,1,,,73,127
14390,note_off,0,0,0,,4,,,64,127
14390,note_off,0,0,0,,8,,,80,127
14391,note_on,1,0,0,,6,,,78,127
14391,note_on,0,0,0,,3,,,63,127
14391,note_on,0,0,0,,6,,,66,127
14550,note_on,159,0,0,,11,,,70,127
14708,note_off,158,0,0,,11,,,70,127
14709,note_on,1,0,0,,12,,,71,127
14867,note_off,158,0,0,,12,,,71,127
14867,note_off,0,0,0,,6,,,66,127
14867,note_off,0,0,0,,3,,,63,127
14867,note_off,0,0,0,,6,,,78,127
14868,note_on,1,0,0,,4,,,76,127
14868,note_on,0,0,0,,4,,,64,127
14868,note_on,0,0,0,,1,,,61,127
15027,note_on,159,0,0,,8,,,68,127
15185,note_off,158,0,0,,8,,,68,127
15186,note_on,1,0,0,,11,,,70,127
15344,note_off,158,0,0,,11,,,70,127
15344,note_off,0,0,0,,1,,,61,127
15344,note_off,0,0,0,,4,,,64,127
15344,note_off,0,0,0,,4,,,76,127
15345,note_on,1,0,0,,3,,,75,127
15345,note_on,0,0,0,,12,,,71,127
15345,note_on,0,0,0,,12,,,59,127
15503,note_off,158,0,0,,12,,,71,127
15503,note_off,0,0,0,,3,,,75,127
15504,note_on,1,0,0,,1,,,73,127
15504,note_on,0,0,0,,4,,,76,127
15662,note_off,158,0,0,,4,,,76,127
15662,note_off,0,0,0,,1,,,73,127
15663,note_on,1,0,0,,3,,,75,127
15663,note_on,0,0,0,,6,,,78,127
15821,note_off,158,0,0,,12,,,59,127
15822,note_on,1,0,0,,4,,,52,127
15980,note_off,158,0,0,,6,,,78,127
15980,note_off,0,0,0,,3,,,75,127
15981,note_on,1,0,0,,4,,,76,127
15981,note_on,0,0,0,,1,,,73,127
16139,note_off,158,0,0,,1,,,73,127
16139,note_off,0,0,0,,4,,,76,127
16140,note_on,1,0,0,,12,,,71,127
16140,note_on,0,0,0,,3,,,75,127
16298,note_off,158,0,0,,4,,,52,127
16299,note_on,1,0,0,,6,,,54,127
16299,note_on,0,0,0,,6,,,42,127
16378,note_off,79,0,0,,3,,,75,127
16378,note_off,0,0,0,,12,,,71,127
16379,note_on,1,0,0,,1,,,73,127
16419,note_on,40,0,0,,3,,,75,127
16426,note_off,7,0,0,,1,,,73,127
16458,note_on,32,0,0,,1,,,73,127
16465,note_off,7,0,0,,3,,,75,127
16497,note_on,32,0,0,,3,,,75,127
16504,note_off,7,0,0,,1,,,73,127
16536,note_on,32,0,0,,1,,,73,127
16543,note_off,7,0,0,,3,,,75,127
16575,note_on,32,0,0,,3,,,75,127
16582,note_off,7,0,0,,1,,,73,127
16614,note_on,32,0,0,,1,,,73,127
16615,note_off,1,0,0,,3,,,75,127
17124,note_off,509,0,0,,6,,,42,127
17124,note_off,0,0,0,,6,,,54,127
17326,note_off,202,0,0,,1,,,73,127
17727,note_on,401,0,0,,6,,,54,127
17886,note_on,159,0,0,,1,,,61,127
17886,note_on,0,0,0,,6,,,66,127
17886,note_on,0,0,0,,11,,,58,127
18044,note_off,158,0,0,,11,,,58,127
18044,note_off,0,0,0,,1,,,61,127
18045,note_on,1,0,0,,3,,,63,127
18045,note_on,0,0,0,,12,,,59,127
18203,note_off,158,0,0,,6,,,54,127
18204,note_on,1,0,0,,4,,,52,127
18321,note_off,117,0,0,,12,,,59,127
18321,note_off,0,0,0,,3,,,63,127
18321,note_off,0,0,0,,6,,,66,127
18363,note_on,42,0,0,,4,,,64,127
18363,note_on,0,0,0,,8,,,68,127
18363,note_on,0,0,0,,1,,,61,127
18521,note_off,158,0,0,,1,,,61,127
18521,note_off,0,0,0,,4,,,64,127
18522,note_on,1,0,0,,2,,,62,127
18522,note_on,0,0,0,,12,,,59,127
18680,note_off,158,0,0,,4,,,52,127
18681,note_on,1,0,0,,6,,,54,127
18798,note_off,117,0,0,,12,,,59,127
18798,note_off,0,0,0,,2,,,62,127
18798,note_off,0,0,0,,8,,,68,127
18840,note_on,42,0,0,,1,,,61,127
18840,note_on,0,0,0,,6,,,66,127
18840,note_on,0,0,0,,11,,,58,127
18998,note_off,158,0,0,,11,,,58,127
18998,note_off,0,0,0,,1,,,61,127
18999,note_on,1,0,0,,2,,,62,127
18999,note_on,0,0,0,,12,,,59,127
19157,note_off,158,0,0,,6,,,54,127
19158,note_on,1,0,0,,4,,,52,127
19275,note_off,117,0,0,,12,,,59,127
19275,note_off,0,0,0,,2,,,62,127
19275,note_off,0,0,0,,6,,,66,127
19317,note_on,42,0,0,,4,,,64,127
19317,note_on,0,0,0,,8,,,68,127
19317,note_on,0,0,0,,1,,,61,127
19475,note_off,158,0,0,,1,,,61,127
19475,note_off,0,0,0,,4,,,64,127
19476,note_on,1,0,0,,2,,,62,127
19476,note_on,0,0,0,,12,,,59,127
19634,note_off,158,0,0,,4,,,52,127
19635,note_on,1,0,0,,6,,,54,127
19752,note_off,117,0,0,,12,,,59,127
19752,note_off,0,0,0,,2,,,62,127
19752,note_off,0,0,0,,8,,,68,127
19794,note_on,42,0,0,,1,,,61,127
19794,note_on,0,0,0,,6,,,66,127
19794,note_on,0,0,0,,11,,,58,127
19952,note_off,158,0,0,,11,,,58,127
19952,note_off,0,0,0,,1,,,61,127
19953,note_on,1,0,0,,2,,,62,127
19953,note_on,0,0,0,,12,,,59,127
20111,note_off,158,0,0,,6,,,54,127
20112,note_on,1,0,0,,4,,,52,127
20229,note_off,117,0,0,,12,,,59,127
20229,note_off,0,0,0,,2,,,62,127
20229,note_off,0,0,0,,6,,,66,127
20271,note_on,42,0,0,,4,,,64,127
20271,note_on,0,0,0,,8,,,68,127
20271,note_on,0,0,0,,1,,,61,127
20429,note_off,158,0,0,,1,,,61,127
20429,note_off,0,0,0,,4,,,64,127
20430,note_on,1,0,0,,2,,,62,127
20430,note_on,0,0,0,,12,,,59,127
20588,note_off,158,0,0,,12,,,59,127
20588,note_off,0,0,0,,2,,,62,127
20588,note_off,0,0,0,,8,,,68,127
20588,note_off,0,0,0,,4,,,52,127
20589,note_on,1,0,0,,1,,,61,127
20589,note_on,0,0,0,,6,,,66,127
20589,note_on,0,0,0,,6,,,54,127
20589,note_on,0,0,0,,11,,,58,127
20747,note_off,158,0,0,,6,,,66,127
20748,note_on,1,0,0,,8,,,68,127
20906,note_off,158,0,0,,8,,,68,127
20906,note_off,0,0,0,,6,,,54,127
20907,note_on,1,0,0,,11,,,70,127
20907,note_on,0,0,0,,4,,,52,127
21065,note_off,158,0,0,,4,,,52,127
21065,note_off,0,0,0,,11,,,70,127
21065,note_off,0,0,0,,11,,,58,127
21065,note_off,0,0,0,,1,,,61,127
21066,note_on,1,0,0,,12,,,71,127
21066,note_on,0,0,0,,12,,,59,127
21066,note_on,0,0,0,,3,,,51,127
21225,note_on,159,0,0,,3,,,63,127
21383,note_off,158,0,0,,3,,,63,127
21383,note_off,0,0,0,,3,,,51,127
21383,note_off,0,0,0,,12,,,71,127
21384,note_on,1,0,0,,4,,,64,127
21384,note_on,0,0,0,,1,,,73,127
21384,note_on,0,0,0,,1,,,49,127
21542,note_off,158,0,0,,1,,,49,127
21542,note_off,0,0,0,,1,,,73,127
21542,note_off,0,0,0,,4,,,64,127
21542,note_off,0,0,0,,12,,,59,127
21543,note_on,1,0,0,,6,,,66,127
21543,note_on,0,0,0,,3,,,75,127
21543,note_on,0,0,0,,12,,,47,127
21543,note_on,0,0,0,,12,,,59,127
21701,note_off,158,0,0,,6,,,66,127
21702,note_on,1,0,0,,4,,,64,127
21860,note_off,158,0,0,,4,,,64,127
21861,note_on,1,0,0,,6,,,66,127
22019,note_off,158,0,0,,6,,,66,127
22019,note_off,0,0,0,,12,,,59,127
22019,note_off,0,0,0,,12,,,47,127
22019,note_off,0,0,0,,3,,,75,127
22020,note_on,1,0,0,,4,,,76,127
22020,note_on,0,0,0,,8,,,68,127
22020,note_on,0,0,0,,4,,,52,127
22020,note_on,0,0,0,,12,,,59,127
22178,note_off,158,0,0,,8,,,68,127
22179,note_on,1,0,0,,11,,,70,127
22337,note_off,158,0,0,,11,,,70,127
22337,note_off,0,0,0,,4,,,76,127
22338,note_on,1,0,0,,12,,,71,127
22338,note_on,0,0,0,,3,,,75,127
22496,note_off,158,0,0,,12,,,59,127
22496,note_off,0,0,0,,4,,,52,127
22497,note_on,1,0,0,,6,,,42,127
22576,note_off,79,0,0,,3,,,75,127
22576,note_off,0,0,0,,12,,,71,127
22577,note_on,1,0,0,,1,,,73,127
22617,note_on,40,0,0,,3,,,75,127
22621,note_off,4,0,0,,1,,,73,127
22657,note_on,36,0,0,,1,,,73,127
22661,note_off,4,0,0,,3,,,75,127
22697,note_on,36,0,0,,3,,,75,127
22701,note_off,4,0,0,,1,,,73,127
22736,note_off,35,0,0,,3,,,75,127
22737,note_on,1,0,0,,1,,,73,127
23372,note_off,635,0,0,,1,,,73,127
23451,note_off,79,0,0,,6,,,42,127
23650,note_on,199,0,0,,6,,,66,127
23809,note_on,159,0,0,,11,,,70,127
23809,note_on,0,0,0,,6,,,78,127
23809,note_on,0,0,0,,1,,,73,127
23967,note_off,158,0,0,,1,,,73,127
23967,note_off,0,0,0,,11,,,70,127
23968,note_on,1,0,0,,12,,,71,127
23968,note_on,0,0,0,,2,,,74,127
24126,note_off,158,0,0,,6,,,66,127
24127,note_on,1,0,0,,4,,,64,127
24244,note_off,117,0,0,,2,,,74,127
24244,note_off,0,0,0,,12,,,71,127
24244,note_off,0,0,0,,6,,,78,127
24286,note_on,42,0,0,,1,,,73,127
24286,note_on,0,0,0,,8,,,80,127
24286,note_on,0,0,0,,4,,,76,127
24444,note_off,158,0,0,,4,,,76,127
24444,note_off,0,0,0,,1,,,73,127
24445,note_on,1,0,0,,12,,,71,127
24445,note_on,0,0,0,,2,,,74,127
24603,note_off,158,0,0,,4,,,64,127
24604,note_on,1,0,0,,6,,,66,127
24721,note_off,117,0,0,,2,,,74,127
24721,note_off,0,0,0,,12,,,71,127
24721,note_off,0,0,0,,8,,,80,127
24763,note_on,42,0,0,,11,,,70,127
24763,note_on,0,0,0,,1,,,73,127
24763,note_on,0,0,0,,6,,,78,127
24921,note_off,158,0,0,,1,,,73,127
24921,note_off,0,0,0,,11,,,70,127
24922,note_on,1,0,0,,12,,,71,127
24922,note_on,0,0,0,,2,,,74,127
25080,note_off,158,0,0,,6,,,66,127
25081,note_on,1,0,0,,4,,,64,127
25198,note_off,117,0,0,,2,,,74,127
25198,note_off,0,0,0,,12,,,71,127
25198,note_off,0,0,0,,6,,,78,127
25240,note_on,42,0,0,,1,,,73,127
25240,note_on,0,0,0,,8,,,80,127
25240,note_on,0,0,0,,4,,,76,127
25398,note_off,158,0,0,,4,,,76,127
25398,note_off,0,0,0,,1,,,73,127
25399,note_on,1,0,0,,12,,,71,127
25399,note_on,0,0,0,,2,,,74,127
25557,note_off,158,0,0,,4,,,64,127
25558,note_on,1,0,0,,6,,,66,127
25675,note_off,117,0,0,,2,,,74,127
25675,note_off,0,0,0,,12,,,71,127
25675,note_off,0,0,0,,8,,,80,127
25717,note_on,42,0,0,,11,,,70,127
25717,note_on,0,0,0,,1,,,85,127
25717,note_on,0,0,0,,1,,,73,127
25875,note_off,158,0,0,,1,,,73,127
25875,note_off,0,0,0,,11,,,70,127
25876,note_on,1,0,0,,12,,,71,127
25876,note_on,0,0,0,,2,,,74,127
26034,note_off,158,0,0,,6,,,66,127
26035,note_on,1,0,0,,4,,,64,127
26152,note_off,117,0,0,,2,,,74,127
26152,note_off,0,0,0,,12,,,71,127
26152,note_off,0,0,0,,1,,,85,127
26194,note_on,42,0,0,,1,,,73,127
26194,note_on,0,0,0,,4,,,76,127
26194,note_on,0,0,0,,1,,,85,127
26352,note_off,158,0,0,,4,,,76,127
26352,note_off,0,0,0,,1,,,73,127
26353,note_on,1,0,0,,12,,,71,127
26353,note_on,0,0,0,,2,,,74,127
26511,note_off,158,0,0,,4,,,64,127
26512,note_on,1,0,0,,6,,,66,127
26629,note_off,117,0,0,,2,,,74,127
26629,note_off,0,0,0,,12,,,71,127
26629,note_off,0,0,0,,1,,,85,127
26671,note_on,42,0,0,,11,,,70,127
26671,note_on,0,0,0,,1,,,73,127
26671,note_on,0,0,0,,1,,,85,127
26829,note_off,158,0,0,,1,,,73,127
26829,note_off,0,0,0,,11,,,70,127
26830,note_on,1,0,0,,12,,,71,127
26830,note_on,0,0,0,,2,,,74,127
26988,note_off,158,0,0,,6,,,66,127
26989,note_on,1,0,0,,4,,,64,127
27106,note_off,117,0,0,,2,,,74,127
27106,note_off,0,0,0,,12,,,71,127
27106,note_off,0,0,0,,1,,,85,127
27148,note_on,42,0,0,,1,,,73,127
27148,note_on,0,0,0,,1,,,85,127
27148,note_on,0,0,0,,4,,,76,127
27306,note_off,158,0,0,,4,,,76,127
27306,note_off,0,0,0,,1,,,73,127
27307,note_on,1,0,0,,12,,,71,127
27307,note_on,0,0,0,,2,,,74,127
27465,note_off,158,0,0,,4,,,64,127
27466,note_on,1,0,0,,6,,,66,127
27583,note_off,117,0,0,,2,,,74,127
27583,note_off,0,0,0,,12,,,71,127
27583,note_off,0,0,0,,1,,,85,127
27625,note_on,42,0,0,,11,,,70,127
27625,note_on,0,0,0,,1,,,85,127
27625,note_on,0,0,0,,1,,,73,127
27783,note_off,158,0,0,,1,,,73,127
27783,note_off,0,0,0,,11,,,70,127
27784,note_on,1,0,0,,12,,,71,127
27784,note_on,0,0,0,,2,,,74,127
27942,note_off,158,0,0,,6,,,66,127
27943,note_on,1,0,0,,4,,,64,127
28060,note_off,117,0,0,,2,,,74,127
28060,note_off,0,0,0,,12,,,71,127
28060,note_off,0,0,0,,1,,,85,127
28102,note_on,42,0,0,,1,,,73,127
28102,note_on,0,0,0,,1,,,85,127
28102,note_on,0,0,0,,4,,,76,127
28260,note_off,158,0,0,,4,,,76,127
28260,note_off,0,0,0,,1,,,73,127
28261,note_on,1,0,0,,12,,,71,127
28261,note_on,0,0,0,,2,,,74,127
28419,note_off,158,0,0,,12,,,71,127
28419,note_off,0,0,0,,4,,,64,127
28420,note_on,1,0,0,,6,,,66,127
28537,note_off,117,0,0,,2,,,74,127
28537,note_off,0,0,0,,1,,,85,127
28579,note_on,42,0,0,,1,,,85,127
28579,note_on,0,0,0,,1,,,73,127
28737,note_off,158,0,0,,6,,,66,127
28738,note_on,1,0,0,,4,,,64,127
28896,note_off,158,0,0,,4,,,64,127
28897,note_on,1,0,0,,2,,,62,127
29055,note_off,158,0,0,,1,,,73,127
29055,note_off,0,0,0,,1,,,85,127
29056,note_on,1,0,0,,2,,,86,127
29056,note_on,0,0,0,,6,,,78,127
29214,note_off,158,0,0,,6,,,78,127
29214,note_off,0,0,0,,2,,,86,127
29214,note_off,0,0,0,,2,,,62,127
29215,note_on,1,0,0,,6,,,66,127
29215,note_on,0,0,0,,1,,,85,127
29215,note_on,0,0,0,,4,,,76,127
29373,note_off,158,0,0,,4,,,76,127
29373,note_off,0,0,0,,1,,,85,127
29373,note_off,0,0,0,,6,,,66,127
29374,note_on,1,0,0,,7,,,67,127
29374,note_on,0,0,0,,12,,,83,127
29374,note_on,0,0,0,,2,,,74,127
29374,note_on,0,0,0,,1,,,85,127
29532,note_off,158,0,0,,1,,,85,127
29532,note_off,0,0,0,,2,,,74,127
29532,note_off,0,0,0,,12,,,83,127
29533,note_on,1,0,0,,1,,,73,127
29533,note_on,0,0,0,,11,,,82,127
29691,note_off,158,0,0,,11,,,82,127
29691,note_off,0,0,0,,1,,,73,127
29691,note_off,0,0,0,,7,,,67,127
29692,note_on,1,0,0,,6,,,66,127
29692,note_on,0,0,0,,12,,,83,127
29692,note_on,0,0,0,,12,,,71,127
29850,note_off,158,0,0,,12,,,71,127
29850,note_off,0,0,0,,12,,,83,127
29850,note_off,0,0,0,,6,,,66,127
29851,note_on,1,0,0,,4,,,64,127
29851,note_on,0,0,0,,1,,,73,127
29851,note_on,0,0,0,,4,,,76,127
30009,note_off,158,0,0,,4,,,76,127
30009,note_off,0,0,0,,1,,,73,127
30010,note_on,1,0,0,,2,,,74,127
30010,note_on,0,0,0,,12,,,71,127
30168,note_off,158,0,0,,12,,,71,127
30168,note_off,0,0,0,,2,,,74,127
30168,note_off,0,0,0,,4,,,64,127
30169,note_on,1,0,0,,6,,,66,127
30169,note_on,0,0,0,,1,,,73,127
30169,note_on,0,0,0,,11,,,70,127
30327,note_off,158,0,0,,11,,,70,127
30327,note_off,0,0,0,,1,,,73,127
30327,note_off,0,0,0,,6,,,66,127
30328,note_on,1,0,0,,12,,,59,127
30328,note_on,0,0,0,,12,,,71,127
30486,note_off,158,0,0,,12,,,59,127
30507,note_on,21,0,0,,1,,,73,127
30507,note_on,0,0,0,,6,,,78,127
30507,note_on,0,0,0,,6,,,66,127
30507,note_on,0,0,0,,11,,,70,127
30519,note_off,12,0,0,,12,,,71,127
30665,note_off,146,0,0,,11,,,70,127
30665,note_off,0,0,0,,1,,,73,127
30666,note_on,1,0,0,,2,,,74,127
30666,note_on,0,0,0,,12,,,71,127
30824,note_off,158,0,0,,6,,,66,127
30825,note_on,1,0,0,,4,,,64,127
30942,note_off,117,0,0,,12,,,71,127
30942,note_off,0,0,0,,2,,,74,127
30942,note_off,0,0,0,,6,,,78,127
30984,note_on,42,0,0,,8,,,80,127
30984,note_on,0,0,0,,4,,,76,127
30984,note_on,0,0,0,,1,,,73,127
31142,note_off,158,0,0,,1,,,73,127
31142,note_off,0,0,0,,4,,,76,127
31143,note_on,1,0,0,,2,,,74,127
31143,note_on,0,0,0,,12,,,71,127
31301,note_off,158,0,0,,4,,,64,127
31302,note_on,1,0,0,,6,,,66,127
31419,note_off,117,0,0,,12,,,71,127
31419,note_off,0,0,0,,2,,,74,127
31419,note_off,0,0,0,,8,,,80,127
31461,note_on,42,0,0,,1,,,73,127
31461,note_on,0,0,0,,6,,,78,127
31461,note_on,0,0,0,,11,,,70,127
31619,note_off,158,0,0,,11,,,70,127
31619,note_off,0,0,0,,1,,,73,127
31620,note_on,1,0,0,,2,,,74,127
31620,note_on,0,0,0,,12,,,71,127
31778,note_off,158,0,0,,6,,,66,127
31779,note_on,1,0,0,,4,,,64,127
31896,note_off,117,0,0,,12,,,71,127
31896,note_off,0,0,0,,2,,,74,127
31896,note_off,0,0,0,,6,,,78,127
31938,note_on,42,0,0,,4,,,76,127
31938,note_on,0,0,0,,8,,,80,127
31938,note_on,0,0,0,,1,,,73,127
32096,note_off,158,0,0,,1,,,73,127
32096,note_off,0,0,0,,4,,,76,127
32097,note_on,1,0,0,,2,,,74,127
32097,note_on,0,0,0,,12,,,71,127
32255,note_off,158,0,0,,4,,,64,127
32256,note_on,1,0,0,,6,,,66,127
32373,note_off,117,0,0,,12,,,71,127
32373,note_off,0,0,0,,2,,,74,127
32373,note_off,0,0,0,,8,,,80,127
32415,note_on,42,0,0,,6,,,78,127
32415,note_on,0,0,0,,1,,,73,127
32415,note_on,0,0,0,,11,,,70,127
32573,note_off,158,0,0,,11,,,70,127
32573,note_off,0,0,0,,1,,,73,127
32574,note_on,1,0,0,,2,,,74,127
32574,note_on,0,0,0,,12,,,71,127
32732,note_off,158,0,0,,6,,,66,127
32733,note_on,1,0,0,,4,,,64,127
32850,note_off,117,0,0,,12,,,71,127
32850,note_off,0,0,0,,2,,,74,127
32850,note_off,0,0,0,,6,,,78,127
32892,note_on,42,0,0,,8,,,80,127
32892,note_on,0,0,0,,4,,,76,127
32892,note_on,0,0,0,,1,,,73,127
33050,note_off,158,0,0,,1,,,73,127
33050,note_off,0,0,0,,4,,,76,127
33051,note_on,1,0,0,,2,,,74,127
33051,note_on,0,0,0,,12,,,71,127
33209,note_off,158,0,0,,4,,,64,127
33210,note_on,1,0,0,,6,,,66,127
33327,note_off,117,0,0,,12,,,71,127
33327,note_off,0,0,0,,2,,,74,127
33327,note_off,0,0,0,,8,,,80,127
33369,note_on,42,0,0,,1,,,85,127
33369,note_on,0,0,0,,1,,,73,127
33369,note_on,0,0,0,,11,,,70,127
33527,note_off,158,0,0,,11,,,70,127
33527,note_off,0,0,0,,1,,,73,127
33528,note_on,1,0,0,,2,,,74,127
33528,note_on,0,0,0,,12,,,71,127
33686,note_off,158,0,0,,6,,,66,127
33687,note_on,1,0,0,,4,,,64,127
33804,note_off,117,0,0,,12,,,71,127
33804,note_off,0,0,0,,2,,,74,127
33804,note_off,0,0,0,,1,,,85,127
33846,note_on,42,0,0,,4,,,76,127
33846,note_on,0,0,0,,1,,,85,127
33846,note_on,0,0,0,,1,,,73,127
34004,note_off,158,0,0,,1,,,73,127
34004,note_off,0,0,0,,4,,,76,127
34005,note_on,1,0,0,,2,,,74,127
34005,note_on,0,0,0,,12,,,71,127
34163,note_off,158,0,0,,4,,,64,127
34164,note_on,1,0,0,,6,,,66,127
34281,note_off,117,0,0,,12,,,71,127
34281,note_off,0,0,0,,2,,,74,127
34281,note_off,0,0,0,,1,,,85,127
34323,note_on,42,0,0,,1,,,85,127
34323,note_on,0,0,0,,1,,,73,127
34323,note_on,0,0,0,,11,,,70,127
34481,note_off,158,0,0,,11,,,70,127
34481,note_off,0,0,0,,1,,,73,127
34482,note_on,1,0,0,,2,,,74,127
34482,note_on,0,0,0,,12,,,71,127
34640,note_off,158,0,0,,6,,,66,127
34641,note_on,1,0,0,,4,,,64,127
34758,note_off,117,0,0,,12,,,71,127
34758,note_off,0,0,0,,2,,,74,127
34758,note_off,0,0,0,,1,,,85,127
34800,note_on,42,0,0,,4,,,76,127
34800,note_on,0,0,0,,1,,,85,127
34800,note_on,0,0,0,,1,,,73,127
34958,note_off,158,0,0,,1,,,73,127
34958,note_off,0,0,0,,4,,,76,127
34959,note_on,1,0,0,,2,,,74,127
34959,note_on,0,0,0,,12,,,71,127
35117,note_off,158,0,0,,4,,,64,127
35118,note_on,1,0,0,,6,,,66,127
35235,note_off,117,0,0,,12,,,71,127
35235,note_off,0,0,0,,2,,,74,127
35235,note_off,0,0,0,,1,,,85,127
35277,note_on,42,0,0,,1,,,73,127
35277,note_on,0,0,0,,1,,,85,127
35435,note_off,158,0,0,,6,,,66,127
35436,note_on,1,0,0,,4,,,64,127
35594,note_off,158,0,0,,4,,,64,127
35595,note_on,1,0,0,,2,,,62,127
35753,note_off,158,0,0,,1,,,85,127
35753,note_off,0,0,0,,1,,,73,127
35754,note_on,1,0,0,,2,,,86,127
35754,note_on,0,0,0,,6,,,78,127
35912,note_off,158,0,0,,6,,,78,127
35912,note_off,0,0,0,,2,,,86,127
35912,note_off,0,0,0,,2,,,62,127
35913,note_on,1,0,0,,1,,,85,127
35913,note_on,0,0,0,,4,,,76,127
35913,note_on,0,0,0,,6,,,66,127
36071,note_off,158,0,0,,6,,,66,127
36071,note_off,0,0,0,,4,,,76,127
36071,note_off,0,0,0,,1,,,85,127
36072,note_on,1,0,0,,2,,,74,127
36072,note_on,0,0,0,,12,,,83,127
36072,note_on,0,0,0,,7,,,67,127
36072,note_on,0,0,0,,1,,,85,127
36230,note_off,158,0,0,,1,,,85,127
36230,note_off,0,0,0,,12,,,83,127
36230,note_off,0,0,0,,2,,,74,127
36231,note_on,1,0,0,,11,,,82,127
36231,note_on,0,0,0,,1,,,73,127
36389,note_off,158,0,0,,1,,,73,127
36389,note_off,0,0,0,,11,,,82,127
36389,note_off,0,0,0,,7,,,67,127
36390,note_on,1,0,0,,12,,,71,127
36390,note_on,0,0,0,,12,,,83,127
36390,note_on,0,0,0,,6,,,66,127
36548,note_off,158,0,0,,6,,,66,127
36548,note_off,0,0,0,,12,,,83,127
36548,note_off,0,0,0,,12,,,71,127
36549,note_on,1,0,0,,1,,,73,127
36549,note_on,0,0,0,,4,,,76,127
36549,note_on,0,0,0,,4,,,64,127
36707,note_off,158,0,0,,4,,,76,127
36707,note_off,0,0,0,,1,,,73,127
36708,note_on,1,0,0,,12,,,71,127
36708,note_on,0,0,0,,2,,,74,127
36866,note_off,158,0,0,,2,,,74,127
36866,note_off,0,0,0,,12,,,71,127
36866,note_off,0,0,0,,4,,,64,127
36867,note_on,1,0,0,,1,,,73,127
36867,note_on,0,0,0,,11,,,70,127
36867,note_on,0,0,0,,6,,,66,127
37025,note_off,158,0,0,,6,,,66,127
37025,note_off,0,0,0,,11,,,70,127
37025,note_off,0,0,0,,1,,,73,127
37026,note_on,1,0,0,,12,,,71,127
37026,note_on,0,0,0,,12,,,47,127
37184,note_off,158,0,0,,12,,,47,127
37185,note_on,1,0,0,,12,,,59,127
37343,note_off,158,0,0,,12,,,59,127
37344,note_on,1,0,0,,12,,,83,127
37344,note_on,0,0,0,,3,,,63,127
37502,note_off,158,0,0,,3,,,63,127
37502,note_off,0,0,0,,12,,,83,127
37502,note_off,0,0,0,,12,,,71,127
37503,note_on,1,0,0,,11,,,82,127
37503,note_on,0,0,0,,6,,,42,127
37582,note_off,79,0,0,,11,,,82,127
37583,note_on,1,0,0,,8,,,80,127
37662,note_off,79,0,0,,8,,,80,127
37662,note_off,0,0,0,,6,,,42,127
37663,note_on,1,0,0,,6,,,78,127
37663,note_on,0,0,0,,6,,,54,127
37742,note_off,79,0,0,,6,,,78,127
37743,note_on,1,0,0,,4,,,76,127
37822,note_off,79,0,0,,4,,,76,127
37822,note_off,0,0,0,,6,,,54,127
37823,note_on,1,0,0,,3,,,75,127
37823,note_on,0,0,0,,11,,,58,127
37902,note_off,79,0,0,,3,,,75,127
37903,note_on,1,0,0,,1,,,73,127
37982,note_off,79,0,0,,1,,,73,127
37982,note_off,0,0,0,,11,,,58,127
37983,note_on,1,0,0,,3,,,75,127
37983,note_on,0,0,0,,12,,,47,127
38062,note_off,79,0,0,,3,,,75,127
38063,note_on,1,0,0,,12,,,71,127
38142,note_off,79,0,0,,12,,,71,127
38142,note_off,0,0,0,,12,,,47,127
38143,note_on,1,0,0,,3,,,75,127
38143,note_on,0,0,0,,12,,,59,127
38222,note_off,79,0,0,,3,,,75,127
38223,note_on,1,0,0,,6,,,78,127
38302,note_off,79,0,0,,6,,,78,127
38302,note_off,0,0,0,,12,,,59,127
38303,note_on,1,0,0,,12,,,83,127
38303,note_on,0,0,0,,3,,,63,127
38461,note_off,158,0,0,,3,,,63,127
38461,note_off,0,0,0,,12,,,83,127
38462,note_on,1,0,0,,11,,,82,127
38462,note_on,0,0,0,,6,,,42,127
38541,note_off,79,0,0,,11,,,82,127
38542,note_on,1,0,0,,8,,,80,127
38621,note_off,79,0,0,,8,,,80,127
38621,note_off,0,0,0,,6,,,42,127
38622,note_on,1,0,0,,6,,,78,127
38622,note_on,0,0,0,,6,,,54,127
38701,note_off,79,0,0,,6,,,78,127
38702,note_on,1,0,0,,4,,,76,127
38781,note_off,79,0,0,,4,,,76,127
38781,note_off,0,0,0,,6,,,54,127
38782,note_on,1,0,0,,3,,,75,127
38782,note_on,0,0,0,,11,,,58,127
38861,note_off,79,0,0,,3,,,75,127
38862,note_on,1,0,0,,1,,,73,127
38941,note_off,79,0,0,,1,,,73,127
38941,note_off,0,0,0,,11,,,58,127
38942,note_on,1,0,0,,3,,,75,127
38942,note_on,0,0,0,,12,,,47,127
39021,note_off,79,0,0,,3,,,75,127
39022,note_on,1,0,0,,12,,,71,127
39101,note_off,79,0,0,,12,,,71,127
39101,note_off,0,0,0,,12,,,47,127
39102,note_on,1,0,0,,3,,,75,127
39102,note_on,0,0,0,,12,,,59,127
39181,note_off,79,0,0,,3,,,75,127
39182,note_on,1,0,0,,6,,,78,127
39261,note_off,79,0,0,,6,,,78,127
39261,note_off,0,0,0,,12,,,59,127
39262,note_on,1,0,0,,12,,,83,127
39262,note_on,0,0,0,,3,,,63,127
39420,note_off,158,0,0,,3,,,63,127
39420,note_off,0,0,0,,12,,,83,127
39421,note_on,1,0,0,,11,,,82,127
39421,note_on,0,0,0,,6,,,42,127
39500,note_off,79,0,0,,11,,,82,127
39501,note_on,1,0,0,,8,,,80,127
39580,note_off,79,0,0,,8,,,80,127
39580,note_off,0,0,0,,6,,,42,127
39581,note_on,1,0,0,,6,,,78,127
39581,note_on,0,0,0,,6,,,54,127
39660,note_off,79,0,0,,6,,,78,127
39661,note_on,1,0,0,,4,,,76,127
39740,note_off,79,0,0,,4,,,76,127
39740,note_off,0,0,0,,6,,,54,127
39741,note_on,1,0,0,,3,,,75,127
39741,note_on,0,0,0,,11,,,58,127
39820,note_off,79,0,0,,3,,,75,127
39821,note_on,1,0,0,,1,,,73,127
39900,note_off,79,0,0,,1,,,73,127
39900,note_off,0,0,0,,11,,,58,127
39901,note_on,1,0,0,,3,,,75,127
39901,note_on,0,0,0,,12,,,59,127
39980,note_off,79,0,0,,3,,,75,127
39981,note_on,1,0,0,,6,,,78,127
40060,note_off,79,0,0,,6,,,78,127
40061,note_on,1,0,0,,4,,,76,127
40140,note_off,79,0,0,,4,,,76,127
40141,note_on,1,0,0,,3,,,75,127
40220,note_off,79,0,0,,3,,,75,127
40220,note_off,0,0,0,,12,,,59,127
40221,note_on,1,0,0,,1,,,73,127
40221,note_on,0,0,0,,3,,,51,127
40300,note_off,79,0,0,,1,,,73,127
40301,note_on,1,0,0,,12,,,71,127
40380,note_off,79,0,0,,12,,,71,127
40380,note_off,0,0,0,,3,,,51,127
40381,note_on,1,0,0,,1,,,73,127
40381,note_on,0,0,0,,4,,,52,127
40460,note_off,79,0,0,,1,,,73,127
40461,note_on,1,0,0,,3,,,75,127
40540,note_off,79,0,0,,3,,,75,127
40541,note_on,1,0,0,,4,,,76,127
40620,note_off,79,0,0,,4,,,76,127
40621,note_on,1,0,0,,1,,,73,127
40700,note_off,79,0,0,,1,,,73,127
40700,note_off,0,0,0,,4,,,52,127
40701,note_on,1,0,0,,12,,,71,127
40701,note_on,0,0,0,,6,,,54,127
40780,note_off,79,0,0,,12,,,71,127
40781,note_on,1,0,0,,11,,,70,127
40860,note_off,79,0,0,,11,,,70,127
40860,note_off,0,0,0,,6,,,54,127
40861,note_on,1,0,0,,12,,,71,127
40861,note_on,0,0,0,,12,,,47,127
40940,note_on,79,0,0,,6,,,66,127
41018,note_off,78,0,0,,12,,,71,127
41019,note_off,1,0,0,,6,,,66,127
41019,note_off,0,0,0,,12,,,47,127
41020,note_on,1,0,0,,3,,,63,127
41020,note_on,0,0,0,,12,,,59,127
41098,note_off,78,0,0,,12,,,59,127
41099,note_off,1,0,0,,3,,,63,127
41100,note_on,1,0,0,,12,,,59,127
41179,note_off,79,0,0,,12,,,59,127
41180,note_on,1,0,0,,12,,,71,127
41180,note_on,0,0,0,,3,,,63,127
41338,note_off,158,0,0,,3,,,63,127
41338,note_off,0,0,0,,12,,,71,127
41339,note_on,1,0,0,,11,,,70,127
41339,note_on,0,0,0,,6,,,42,127
41418,note_off,79,0,0,,11,,,70,127
41419,note_on,1,0,0,,8,,,68,127
41498,note_off,79,0,0,,8,,,68,127
41498,note_off,0,0,0,,6,,,42,127
41499,note_on,1,0,0,,6,,,66,127
41499,note_on,0,0,0,,6,,,54,127
41578,note_off,79,0,0,,6,,,66,127
41579,note_on,1,0,0,,4,,,64,127
41658,note_off,79,0,0,,4,,,64,127
41658,note_off,0,0,0,,6,,,54,127
41659,note_on,1,0,0,,3,,,63,127
41659,note_on,0,0,0,,11,,,58,127
41738,note_off,79,0,0,,3,,,63,127
41739,note_on,1,0,0,,1,,,61,127
41818,note_off,79,0,0,,1,,,61,127
41818,note_off,0,0,0,,11,,,58,127
41819,note_on,1,0,0,,3,,,63,127
41819,note_on,0,0,0,,12,,,47,127
41898,note_off,79,0,0,,3,,,63,127
41899,note_on,1,0,0,,12,,,59,127
41978,note_off,79,0,0,,12,,,59,127
41978,note_off,0,0,0,,12,,,47,127
41979,note_on,1,0,0,,3,,,63,127
41979,note_on,0,0,0,,12,,,59,127
42058,note_off,79,0,0,,3,,,63,127
42059,note_on,1,0,0,,6,,,66,127
42138,note_off,79,0,0,,6,,,66,127
42138,note_off,0,0,0,,12,,,59,127
42139,note_on,1,0,0,,12,,,71,127
42139,note_on,0,0,0,,3,,,63,127
42297,note_off,158,0,0,,3,,,63,127
42297,note_off,0,0,0,,12,,,71,127
42298,note_on,1,0,0,,11,,,70,127
42298,note_on,0,0,0,,6,,,42,127
42377,note_off,79,0,0,,11,,,70,127
42378,note_on,1,0,0,,8,,,68,127
42457,note_off,79,0,0,,8,,,68,127
42457,note_off,0,0,0,,6,,,42,127
42458,note_on,1,0,0,,6,,,66,127
42458,note_on,0,0,0,,6,,,54,127
42537,note_off,79,0,0,,6,,,66,127
42538,note_on,1,0,0,,4,,,64,127
42617,note_off,79,0,0,,4,,,64,127
42617,note_off,0,0,0,,6,,,54,127
42618,note_on,1,0,0,,3,,,63,127
42618,note_on,0,0,0,,11,,,58,127
42697,note_off,79,0,0,,3,,,63,127
42698,note_on,1,0,0,,1,,,61,127
42777,note_off,79,0,0,,1,,,61,127
42777,note_off,0,0,0,,11,,,58,127
42778,note_on,1,0,0,,3,,,63,127
42778,note_on,0,0,0,,12,,,47,127
42857,note_off,79,0,0,,3,,,63,127
42858,note_on,1,0,0,,12,,,59,127
42937,note_off,79,0,0,,12,,,59,127
42937,note_off,0,0,0,,12,,,47,127
42938,note_on,1,0,0,,3,,,63,127
42938,note_on,0,0,0,,12,,,59,127
43017,note_off,79,0,0,,3,,,63,127
43018,note_on,1,0,0,,6,,,66,127
43097,note_off,79,0,0,,6,,,66,127
43097,note_off,0,0,0,,12,,,59,127
43098,note_on,1,0,0,,12,,,71,127
43098,note_on,0,0,0,,3,,,63,127
43256,note_off,158,0,0,,3,,,63,127
43256,note_off,0,0,0,,12,,,71,127
43257,note_on,1,0,0,,11,,,70,127
43257,note_on,0,0,0,,6,,,42,127
43336,note_off,79,0,0,,11,,,70,127
43337,note_on,1,0,0,,8,,,68,127
43416,note_off,79,0,0,,8,,,68,127
43416,note_off,0,0,0,,6,,,42,127
43417,note_on,1,0,0,,6,,,66,127
43417,note_on,0,0,0,,6,,,54,127
43496,note_off,79,0,0,,6,,,66,127
43497,note_on,1,0,0,,4,,,64,127
43576,note_off,79,0,0,,4,,,64,127
43576,note_off,0,0,0,,6,,,54,127
43577,note_on,1,0,0,,3,,,63,127
43577,note_on,0,0,0,,11,,,58,127
43656,note_off,79,0,0,,3,,,63,127
43657,note_on,1,0,0,,1,,,61,127
43736,note_off,79,0,0,,1,,,61,127
43736,note_off,0,0,0,,11,,,58,127
43737,note_on,1,0,0,,3,,,63,127
43737,note_on,0,0,0,,12,,,59,127
43816,note_off,79,0,0,,3,,,63,127
43817,note_on,1,0,0,,4,,,64,127
43896,note_off,79,0,0,,4,,,64,127
43897,note_on,1,0,0,,6,,,66,127
43976,note_off,79,0,0,,6,,,66,127
43977,note_on,1,0,0,,3,,,63,127
44056,note_off,79,0,0,,3,,,63,127
44056,note_off,0,0,0,,12,,,59,127
44057,note_on,1,0,0,,1,,,61,127
44057,note_on,0,0,0,,3,,,51,127
44136,note_off,79,0,0,,1,,,61,127
44137,note_on,1,0,0,,12,,,59,127
44216,note_off,79,0,0,,12,,,59,127
44216,note_off,0,0,0,,3,,,51,127
44217,note_on,1,0,0,,1,,,61,127
44217,note_on,0,0,0,,4,,,52,127
44296,note_off,79,0,0,,1,,,61,127
44297,note_on,1,0,0,,3,,,63,127
44376,note_off,79,0,0,,3,,,63,127
44377,note_on,1,0,0,,4,,,64,127
44456,note_off,79,0,0,,4,,,64,127
44457,note_on,1,0,0,,1,,,61,127
44536,note_off,79,0,0,,1,,,61,127
44536,note_off,0,0,0,,4,,,52,127
44537,note_on,1,0,0,,12,,,59,127
44537,note_on,0,0,0,,6,,,54,127
44616,note_off,79,0,0,,12,,,59,127
44617,note_on,1,0,0,,11,,,58,127
44696,note_off,79,0,0,,11,,,58,127
44696,note_off,0,0,0,,6,,,54,127
44697,note_on,1,0,0,,12,,,59,127
44697,note_on,0,0,0,,12,,,47,127
44855,note_off,158,0,0,,12,,,47,127
44856,note_on,1,0,0,,1,,,49,127
44935,note_off,79,0,0,,12,,,59,127
45014,note_off,79,0,0,,1,,,49,127
45015,note_on,1,0,0,,6,,,66,127
45015,note_on,0,0,0,,3,,,51,127
45173,note_off,158,0,0,,3,,,51,127
45173,note_off,0,0,0,,6,,,66,127
45174,note_on,1,0,0,,8,,,68,127
45174,note_on,0,0,0,,4,,,52,127
45332,note_off,158,0,0,,8,,,68,127
45333,note_on,1,0,0,,4,,,64,127
45491,note_off,158,0,0,,4,,,64,127
45491,note_off,0,0,0,,4,,,52,127
45492,note_on,1,0,0,,11,,,70,127
45492,note_on,0,0,0,,4,,,52,127
45492,note_on,0,0,0,,1,,,49,127
45650,note_off,158,0,0,,1,,,49,127
45650,note_off,0,0,0,,4,,,52,127
45650,note_off,0,0,0,,11,,,70,127
45651,note_on,1,0,0,,12,,,71,127
45651,note_on,0,0,0,,6,,,54,127
45651,note_on,0,0,0,,12,,,59,127
45651,note_on,0,0,0,,3,,,51,127
45809,note_off,158,0,0,,12,,,71,127
45810,note_on,1,0,0,,6,,,66,127
45968,note_off,158,0,0,,6,,,66,127
45968,note_off,0,0,0,,3,,,51,127
45969,note_on,1,0,0,,6,,,78,127
45969,note_on,0,0,0,,12,,,47,127
46127,note_off,158,0,0,,12,,,47,127
46127,note_off,0,0,0,,6,,,78,127
46127,note_off,0,0,0,,6,,,54,127
46128,note_on,1,0,0,,8,,,80,127
46128,note_on,0,0,0,,8,,,56,127
46128,note_on,0,0,0,,4,,,52,127
46286,note_off,158,0,0,,8,,,80,127
46287,note_on,1,0,0,,4,,,76,127
46445,note_off,158,0,0,,4,,,76,127
46445,note_off,0,0,0,,4,,,52,127
46445,note_off,0,0,0,,8,,,56,127
46446,note_on,1,0,0,,11,,,82,127
46446,note_on,0,0,0,,1,,,49,127
46446,note_on,0,0,0,,4,,,52,127
46604,note_off,158,0,0,,4,,,52,127
46604,note_off,0,0,0,,1,,,49,127
46604,note_off,0,0,0,,11,,,82,127
46604,note_off,0,0,0,,12,,,59,127
46605,note_on,1,0,0,,12,,,83,127
46605,note_on,0,0,0,,12,,,59,127
46605,note_on,0,0,0,,3,,,51,127
46763,note_off,158,0,0,,12,,,83,127
46764,note_on,1,0,0,,3,,,75,127
46922,note_off,158,0,0,,3,,,75,127
46922,note_off,0,0,0,,3,,,51,127
46923,note_on,1,0,0,,12,,,71,127
46923,note_on,0,0,0,,8,,,56,127
47081,note_off,158,0,0,,8,,,56,127
47081,note_off,0,0,0,,12,,,71,127
47081,note_off,0,0,0,,12,,,59,127
47082,note_on,1,0,0,,3,,,75,127
47082,note_on,0,0,0,,4,,,52,127
47121,note_off,39,0,0,,3,,,75,127
47122,note_on,1,0,0,,1,,,73,127
47161,note_off,39,0,0,,1,,,73,127
47162,note_on,1,0,0,,3,,,75,127
47201,note_off,39,0,0,,3,,,75,127
47202,note_on,1,0,0,,1,,,73,127
47241,note_off,39,0,0,,1,,,73,127
47242,note_on,1,0,0,,12,,,71,127
47400,note_off,158,0,0,,12,,,71,127
47400,note_off,0,0,0,,4,,,52,127
47401,note_on,1,0,0,,11,,,70,127
47401,note_on,0,0,0,,6,,,54,127
47559,note_off,158,0,0,,6,,,54,127
47559,note_off,0,0,0,,11,,,70,127
47560,note_on,1,0,0,,12,,,71,127
47560,note_on,0,0,0,,12,,,47,127
47718,note_off,158,0,0,,12,,,71,127
47719,note_on,1,0,0,,3,,,63,127
47877,note_off,158,0,0,,3,,,63,127
47877,note_off,0,0,0,,12,,,47,127
47878,note_on,1,0,0,,12,,,59,127
47878,note_on,0,0,0,,3,,,51,127
48036,note_off,158,0,0,,3,,,51,127
48036,note_off,0,0,0,,12,,,59,127
48037,note_on,1,0,0,,3,,,63,127
48037,note_on,0,0,0,,4,,,52,127
48076,note_off,39,0,0,,3,,,63,127
48077,note_on,1,0,0,,1,,,61,127
48116,note_off,39,0,0,,1,,,61,127
48117,note_on,1,0,0,,3,,,63,127
48156,note_off,39,0,0,,3,,,63,127
48157,note_on,1,0,0,,1,,,61,127
48196,note_off,39,0,0,,1,,,61,127
48197,note_on,1,0,0,,12,,,59,127
48355,note_off,158,0,0,,12,,,59,127
48355,note_off,0,0,0,,4,,,52,127
48356,note_on,1,0,0,,11,,,58,127
48356,note_on,0,0,0,,6,,,54,127
48514,note_off,158,0,0,,6,,,54,127
48514,note_off,0,0,0,,11,,,58,127
48515,note_on,1,0,0,,11,,,58,127
48515,note_on,0,0,0,,12,,,47,127
49012,note_off,497,0,0,,11,,,58,127
49014,note_on,2,0,0,,12,,,59,127
49411,note_off,397,0,0,,12,,,59,127
49468,note_off,57,0,0,,12,,,47,127
49509,note_on,41,0,0,,12,,,35,127
49509,note_on,0,0,0,,12,,,47,127
49509,note_on,0,0,0,,6,,,66,127
49509,note_on,0,0,0,,3,,,63,127
49667,note_off,158,0,0,,3,,,63,127
49668,note_on,1,0,0,,12,,,59,127
49826,note_off,158,0,0,,12,,,59,127
49826,note_off,0,0,0,,6,,,66,127
49827,note_on,1,0,0,,8,,,68,127
49827,note_on,0,0,0,,4,,,64,127
49985,note_off,158,0,0,,4,,,64,127
49985,note_off,0,0,0,,8,,,68,127
49986,note_on,1,0,0,,6,,,66,127
49986,note_on,0,0,0,,10,,,69,127
50144,note_off,158,0,0,,6,,,66,127
50145,note_on,1,0,0,,12,,,59,127
50303,note_off,158,0,0,,12,,,59,127
50303,note_off,0,0,0,,10,,,69,127
50304,note_on,1,0,0,,8,,,68,127
50304,note_on,0,0,0,,4,,,64,127
50462,note_off,158,0,0,,4,,,64,127
50462,note_off,0,0,0,,8,,,68,127
50462,note_off,0,0,0,,12,,,47,127
50462,note_off,0,0,0,,12,,,35,127
50463,note_on,1,0,0,,12,,,35,127
50463,note_on,0,0,0,,12,,,47,127
50463,note_on,0,0,0,,6,,,66,127
50463,note_on,0,0,0,,3,,,63,127
50621,note_off,158,0,0,,3,,,63,127
50622,note_on,1,0,0,,12,,,59,127
50780,note_off,158,0,0,,12,,,59,127
50780,note_off,0,0,0,,6,,,66,127
50781,note_on,1,0,0,,8,,,68,127
50781,note_on,0,0,0,,4,,,64,127
50939,note_off,158,0,0,,4,,,64,127
50939,note_off,0,0,0,,8,,,68,127
50940,note_on,1,0,0,,6,,,66,127
50940,note_on,0,0,0,,10,,,69,127
51098,note_off,158,0,0,,6,,,66,127
51099,note_on,1,0,0,,12,,,59,127
51257,note_off,158,0,0,,12,,,59,127
51257,note_off,0,0,0,,10,,,69,127
51258,note_on,1,0,0,,8,,,68,127
51258,note_on,0,0,0,,4,,,64,127
51416,note_off,158,0,0,,4,,,64,127
51416,note_off,0,0,0,,8,,,68,127
51416,note_off,0,0,0,,12,,,47,127
51416,note_off,0,0,0,,12,,,35,127
51417,note_on,1,0,0,,12,,,35,127
51417,note_on,0,0,0,,12,,,47,127
51417,note_on,0,0,0,,6,,,66,127
51417,note_on,0,0,0,,3,,,63,127
51575,note_off,158,0,0,,3,,,63,127
51575,note_off,0,0,0,,6,,,66,127
51576,note_on,1,0,0,,10,,,69,127
51576,note_on,0,0,0,,1,,,73,127
51734,note_off,158,0,0,,1,,,73,127
51734,note_off,0,0,0,,10,,,69,127
51735,note_on,1,0,0,,8,,,68,127
51735,note_on,0,0,0,,12,,,71,127
51893,note_off,158,0,0,,12,,,71,127
51893,note_off,0,0,0,,8,,,68,127
51894,note_on,1,0,0,,6,,,66,127
51894,note_on,0,0,0,,10,,,69,127
52052,note_off,158,0,0,,10,,,69,127
52052,note_off,0,0,0,,6,,,66,127
52053,note_on,1,0,0,,8,,,68,127
52053,note_on,0,0,0,,4,,,64,127
52211,note_off,158,0,0,,4,,,64,127
52211,note_off,0,0,0,,8,,,68,127
52212,note_on,1,0,0,,6,,,66,127
52212,note_on,0,0,0,,3,,,63,127
52370,note_off,158,0,0,,3,,,63,127
52370,note_off,0,0,0,,6,,,66,127
52370,note_off,0,0,0,,12,,,47,127
52370,note_off,0,0,0,,12,,,35,127
52371,note_on,1,0,0,,4,,,40,127
52371,note_on,0,0,0,,6,,,66,127
52847,note_off,476,0,0,,6,,,66,127
52848,note_on,1,0,0,,10,,,69,127
52900,note_off,52,0,0,,10,,,69,127
52901,note_on,1,0,0,,8,,,68,127
52953,note_off,52,0,0,,8,,,68,127
52954,note_on,1,0,0,,10,,,69,127
53006,note_off,52,0,0,,10,,,69,127
53007,note_on,1,0,0,,8,,,68,127
53059,note_off,52,0,0,,8,,,68,127
53060,note_on,1,0,0,,10,,,69,127
53112,note_off,52,0,0,,10,,,69,127
53113,note_on,1,0,0,,8,,,68,127
53149,note_off,36,0,0,,4,,,40,127
53165,note_off,16,0,0,,8,,,68,127
53166,note_on,1,0,0,,6,,,66,127
53218,note_off,52,0,0,,6,,,66,127
53219,note_on,1,0,0,,8,,,68,127
53271,note_off,52,0,0,,8,,,68,127
53272,note_on,1,0,0,,10,,,69,127
53324,note_off,52,0,0,,10,,,69,127
53325,note_on,1,0,0,,4,,,52,127
53325,note_on,0,0,0,,4,,,40,127
53325,note_on,0,0,0,,8,,,68,127
53325,note_on,0,0,0,,12,,,71,127
53483,note_off,158,0,0,,8,,,68,127
53484,note_on,1,0,0,,4,,,64,127
53642,note_off,158,0,0,,4,,,64,127
53642,note_off,0,0,0,,12,,,71,127
53643,note_on,1,0,0,,1,,,73,127
53643,note_on,0,0,0,,10,,,69,127
53801,note_off,158,0,0,,10,,,69,127
53801,note_off,0,0,0,,1,,,73,127
53802,note_on,1,0,0,,2,,,74,127
53802,note_on,0,0,0,,12,,,71,127
53960,note_off,158,0,0,,12,,,71,127
53961,note_on,1,0,0,,4,,,64,127
54119,note_off,158,0,0,,4,,,64,127
54119,note_off,0,0,0,,2,,,74,127
54120,note_on,1,0,0,,1,,,73,127
54120,note_on,0,0,0,,10,,,69,127
54278,note_off,158,0,0,,10,,,69,127
54278,note_off,0,0,0,,1,,,73,127
54278,note_off,0,0,0,,4,,,40,127
54278,note_off,0,0,0,,4,,,52,127
54279,note_on,1,0,0,,4,,,40,127
54279,note_on,0,0,0,,4,,,52,127
54279,note_on,0,0,0,,8,,,68,127
54279,note_on,0,0,0,,12,,,71,127
54437,note_off,158,0,0,,8,,,68,127
54438,note_on,1,0,0,,4,,,64,127
54596,note_off,158,0,0,,4,,,64,127
54596,note_off,0,0,0,,12,,,71,127
54597,note_on,1,0,0,,1,,,73,127
54597,note_on,0,0,0,,10,,,69,127
54755,note_off,158,0,0,,10,,,69,127
54755,note_off,0,0,0,,1,,,73,127
54756,note_on,1,0,0,,12,,,71,127
54756,note_on,0,0,0,,2,,,74,127
54914,note_off,158,0,0,,12,,,71,127
54915,note_on,1,0,0,,4,,,64,127
55073,note_off,158,0,0,,4,,,64,127
55073,note_off,0,0,0,,2,,,74,127
55074,note_on,1,0,0,,10,,,69,127
55074,note_on,0,0,0,,1,,,73,127
55232,note_off,158,0,0,,1,,,73,127
55232,note_off,0,0,0,,10,,,69,127
55232,note_off,0,0,0,,4,,,52,127
55232,note_off,0,0,0,,4,,,40,127
55233,note_on,1,0,0,,4,,,52,127
55233,note_on,0,0,0,,4,,,40,127
55233,note_on,0,0,0,,8,,,68,127
55233,note_on,0,0,0,,12,,,71,127
55391,note_off,158,0,0,,12,,,71,127
55391,note_off,0,0,0,,8,,,68,127
55392,note_on,1,0,0,,6,,,78,127
55392,note_on,0,0,0,,2,,,74,127
55550,note_off,158,0,0,,2,,,74,127
55550,note_off,0,0,0,,6,,,78,127
55551,note_on,1,0,0,,1,,,73,127
55551,note_on,0,0,0,,4,,,76,127
55709,note_off,158,0,0,,4,,,76,127
55709,note_off,0,0,0,,1,,,73,127
55710,note_on,1,0,0,,2,,,74,127
55710,note_on,0,0,0,,12,,,71,127
55868,note_off,158,0,0,,12,,,71,127
55868,note_off,0,0,0,,2,,,74,127
55869,note_on,1,0,0,,10,,,69,127
55869,note_on,0,0,0,,1,,,73,127
56027,note_off,158,0,0,,1,,,73,127
56027,note_off,0,0,0,,10,,,69,127
56028,note_on,1,0,0,,12,,,71,127
56028,note_on,0,0,0,,8,,,68,127
56186,note_off,158,0,0,,8,,,68,127
56186,note_off,0,0,0,,12,,,71,127
56186,note_off,0,0,0,,4,,,40,127
56186,note_off,0,0,0,,4,,,52,127
56187,note_on,1,0,0,,10,,,45,127
56187,note_on,0,0,0,,12,,,71,127
56187,note_on,0,0,0,,8,,,68,127
56663,note_off,476,0,0,,8,,,68,127
56663,note_off,0,0,0,,12,,,71,127
56664,note_on,1,0,0,,2,,,74,127
56716,note_off,52,0,0,,2,,,74,127
56717,note_on,1,0,0,,1,,,73,127
56769,note_off,52,0,0,,1,,,73,127
56770,note_on,1,0,0,,2,,,74,127
56822,note_off,52,0,0,,2,,,74,127
56822,note_off,0,0,0,,10,,,45,127
56823,note_on,1,0,0,,1,,,73,127
56875,note_off,52,0,0,,1,,,73,127
56876,note_on,1,0,0,,2,,,74,127
56928,note_off,52,0,0,,2,,,74,127
56929,note_on,1,0,0,,1,,,73,127
57153,note_off,224,0,0,,1,,,73,127
57160,note_on,7,0,0,,1,,,85,127
57160,note_on,0,0,0,,10,,,69,127
57160,note_on,0,0,0,,1,,,73,127
57319,note_on,159,0,0,,5,,,77,127
57477,note_off,158,0,0,,5,,,77,127
57478,note_on,1,0,0,,6,,,78,127
57636,note_off,158,0,0,,6,,,78,127
57636,note_off,0,0,0,,1,,,73,127
57636,note_off,0,0,0,,10,,,69,127
57636,note_off,0,0,0,,1,,,85,127
57637,note_on,1,0,0,,12,,,83,127
57637,note_on,0,0,0,,12,,,71,127
57637,note_on,0,0,0,,8,,,68,127
57796,note_on,159,0,0,,3,,,75,127
57954,note_off,158,0,0,,3,,,75,127
57955,note_on,1,0,0,,4,,,76,127
58113,note_off,158,0,0,,4,,,76,127
58113,note_off,0,0,0,,8,,,68,127
58113,note_off,0,0,0,,12,,,71,127
58113,note_off,0,0,0,,12,,,83,127
58114,note_on,1,0,0,,10,,,81,127
58114,note_on,0,0,0,,6,,,66,127
58114,note_on,0,0,0,,10,,,69,127
58272,note_off,158,0,0,,10,,,81,127
58273,note_on,1,0,0,,8,,,80,127
58431,note_off,158,0,0,,8,,,80,127
58432,note_on,1,0,0,,6,,,78,127
58590,note_off,158,0,0,,10,,,69,127
58590,note_off,0,0,0,,6,,,66,127
58591,note_on,1,0,0,,1,,,73,127
58591,note_on,0,0,0,,10,,,69,127
58643,note_off,52,0,0,,6,,,78,127
58644,note_on,1,0,0,,8,,,80,127
58696,note_off,52,0,0,,8,,,80,127
58697,note_on,1,0,0,,6,,,78,127
58749,note_off,52,0,0,,6,,,78,127
58750,note_on,1,0,0,,8,,,80,127
58802,note_off,52,0,0,,8,,,80,127
58803,note_on,1,0,0,,6,,,78,127
58855,note_off,52,0,0,,6,,,78,127
58856,note_on,1,0,0,,5,,,77,127
58908,note_off,52,0,0,,5,,,77,127
58909,note_on,1,0,0,,6,,,78,127
58961,note_off,52,0,0,,6,,,78,127
58962,note_on,1,0,0,,8,,,80,127
59014,note_off,52,0,0,,8,,,80,127
59015,note_on,1,0,0,,10,,,81,127
59067,note_off,52,0,0,,10,,,81,127
59067,note_off,0,0,0,,10,,,69,127
59067,note_off,0,0,0,,1,,,73,127
59068,note_on,1,0,0,,12,,,83,127
59068,note_on,0,0,0,,12,,,71,127
59068,note_on,0,0,0,,8,,,68,127
59227,note_on,159,0,0,,3,,,75,127
59385,note_off,158,0,0,,3,,,75,127
59386,note_on,1,0,0,,4,,,76,127
59544,note_off,158,0,0,,4,,,76,127
59544,note_off,0,0,0,,8,,,68,127
59544,note_off,0,0,0,,12,,,71,127
59544,note_off,0,0,0,,12,,,83,127
59545,note_on,1,0,0,,10,,,81,127
59545,note_on,0,0,0,,6,,,66,127
59545,note_on,0,0,0,,10,,,69,127
59704,note_on,159,0,0,,1,,,73,127
59862,note_off,158,0,0,,1,,,73,127
59863,note_on,1,0,0,,3,,,75,127
60021,note_off,158,0,0,,3,,,75,127
60021,note_off,0,0,0,,10,,,69,127
60021,note_off,0,0,0,,6,,,66,127
60021,note_off,0,0,0,,10,,,81,127
60022,note_on,1,0,0,,8,,,80,127
60022,note_on,0,0,0,,4,,,64,127
60022,note_on,0,0,0,,8,,,68,127
60180,note_off,158,0,0,,8,,,80,127
60181,note_on,1,0,0,,6,,,78,127
60339,note_off,158,0,0,,6,,,78,127
60340,note_on,1,0,0,,4,,,76,127
60498,note_off,158,0,0,,8,,,68,127
60498,note_off,0,0,0,,4,,,64,127
60499,note_on,1,0,0,,8,,,68,127
60499,note_on,0,0,0,,12,,,71,127
60551,note_off,52,0,0,,4,,,76,127
60552,note_on,1,0,0,,6,,,78,127
60604,note_off,52,0,0,,6,,,78,127
60605,note_on,1,0,0,,4,,,76,127
60657,note_off,52,0,0,,4,,,76,127
60658,note_on,1,0,0,,6,,,78,127
60710,note_off,52,0,0,,6,,,78,127
60711,note_on,1,0,0,,4,,,76,127
60763,note_off,52,0,0,,4,,,76,127
60764,note_on,1,0,0,,3,,,75,127
60816,note_off,52,0,0,,3,,,75,127
60817,note_on,1,0,0,,4,,,76,127
60869,note_off,52,0,0,,4,,,76,127
60870,note_on,1,0,0,,6,,,78,127
60922,note_off,52,0,0,,6,,,78,127
60923,note_on,1,0,0,,8,,,80,127
60975,note_off,52,0,0,,8,,,80,127
60975,note_off,0,0,0,,12,,,71,127
60975,note_off,0,0,0,,8,,,68,127
60976,note_on,1,0,0,,10,,,81,127
60976,note_on,0,0,0,,6,,,66,127
60976,note_on,0,0,0,,10,,,69,127
61135,note_on,159,0,0,,1,,,73,127
61293,note_off,158,0,0,,1,,,73,127
61294,note_on,1,0,0,,3,,,75,127
61452,note_off,158,0,0,,3,,,75,127
61452,note_off,0,0,0,,10,,,69,127
61452,note_off,0,0,0,,6,,,66,127
61452,note_off,0,0,0,,10,,,81,127
61453,note_on,1,0,0,,8,,,80,127
61453,note_on,0,0,0,,8,,,68,127
61453,note_on,0,0,0,,4,,,64,127
61612,note_on,159,0,0,,12,,,71,127
61770,note_off,158,0,0,,12,,,71,127
61771,note_on,1,0,0,,1,,,73,127
61929,note_off,158,0,0,,1,,,73,127
61929,note_off,0,0,0,,4,,,64,127
61929,note_off,0,0,0,,8,,,68,127
61929,note_off,0,0,0,,8,,,80,127
61930,note_on,1,0,0,,6,,,78,127
61930,note_on,0,0,0,,6,,,66,127
61930,note_on,0,0,0,,3,,,63,127
62088,note_off,158,0,0,,6,,,78,127
62089,note_on,1,0,0,,4,,,76,127
62247,note_off,158,0,0,,4,,,76,127
62248,note_on,1,0,0,,3,,,75,127
62406,note_off,158,0,0,,3,,,63,127
62406,note_off,0,0,0,,6,,,66,127
62407,note_on,1,0,0,,10,,,69,127
62407,note_on,0,0,0,,6,,,66,127
62459,note_off,52,0,0,,3,,,75,127
62460,note_on,1,0,0,,4,,,76,127
62512,note_off,52,0,0,,4,,,76,127
62513,note_on,1,0,0,,3,,,75,127
62565,note_off,52,0,0,,3,,,75,127
62566,note_on,1,0,0,,4,,,76,127
62618,note_off,52,0,0,,4,,,76,127
62619,note_on,1,0,0,,3,,,75,127
62671,note_off,52,0,0,,3,,,75,127
62672,note_on,1,0,0,,1,,,73,127
62724,note_off,52,0,0,,1,,,73,127
62725,note_on,1,0,0,,3,,,75,127
62777,note_off,52,0,0,,3,,,75,127
62778,note_on,1,0,0,,4,,,76,127
62830,note_off,52,0,0,,4,,,76,127
62831,note_on,1,0,0,,6,,,78,127
62883,note_off,52,0,0,,6,,,78,127
62883,note_off,0,0,0,,6,,,66,127
62883,note_off,0,0,0,,10,,,69,127
62884,note_on,1,0,0,,8,,,80,127
62884,note_on,0,0,0,,8,,,68,127
62884,note_on,0,0,0,,4,,,64,127
63043,note_on,159,0,0,,0,,,72,127
63201,note_off,158,0,0,,0,,,72,127
63202,note_on,1,0,0,,1,,,73,127
63360,note_off,158,0,0,,1,,,73,127
63360,note_off,0,0,0,,4,,,64,127
63360,note_off,0,0,0,,8,,,68,127
63360,note_off,0,0,0,,8,,,80,127
63361,note_on,1,0,0,,6,,,78,127
63361,note_on,0,0,0,,6,,,66,127
63361,note_on,0,0,0,,3,,,63,127
63520,note_on,159,0,0,,11,,,70,127
63678,note_off,158,0,0,,11,,,70,127
63679,note_on,1,0,0,,12,,,71,127
63837,note_off,158,0,0,,12,,,71,127
63837,note_off,0,0,0,,3,,,63,127
63837,note_off,0,0,0,,6,,,66,127
63837,note_off,0,0,0,,6,,,78,127
63838,note_on,1,0,0,,4,,,76,127
63838,note_on,0,0,0,,1,,,61,127
63996,note_off,158,0,0,,1,,,61,127
63996,note_off,0,0,0,,4,,,76,127
63997,note_on,1,0,0,,6,,,78,127
63997,note_on,0,0,0,,3,,,63,127
64155,note_off,158,0,0,,3,,,63,127
64155,note_off,0,0,0,,6,,,78,127
64156,note_on,1,0,0,,8,,,80,127
64156,note_on,0,0,0,,4,,,64,127
64314,note_off,158,0,0,,4,,,64,127
64314,note_off,0,0,0,,8,,,80,127
64315,note_on,1,0,0,,10,,,81,127
64315,note_on,0,0,0,,6,,,54,127
64474,note_on,159,0,0,,3,,,75,127
64474,note_on,0,0,0,,6,,,66,127
64632,note_off,158,0,0,,6,,,66,127
64632,note_off,0,0,0,,3,,,75,127
64632,note_off,0,0,0,,10,,,81,127
64633,note_on,1,0,0,,1,,,73,127
64633,note_on,0,0,0,,4,,,64,127
64791,note_off,158,0,0,,1,,,73,127
64791,note_off,0,0,0,,6,,,54,127
64792,note_on,1,0,0,,3,,,75,127
64792,note_on,0,0,0,,8,,,56,127
64831,note_off,39,0,0,,3,,,75,127
64832,note_on,1,0,0,,1,,,73,127
64871,note_off,39,0,0,,1,,,73,127
64872,note_on,1,0,0,,3,,,75,127
64911,note_off,39,0,0,,3,,,75,127
64912,note_on,1,0,0,,1,,,73,127
64951,note_off,39,0,0,,1,,,73,127
64951,note_off,0,0,0,,4,,,64,127
64952,note_on,1,0,0,,0,,,72,127
64952,note_on,0,0,0,,3,,,63,127
65110,note_off,158,0,0,,3,,,63,127
65110,note_off,0,0,0,,0,,,72,127
65111,note_on,1,0,0,,8,,,80,127
65111,note_on,0,0,0,,4,,,64,127
65269,note_off,158,0,0,,8,,,80,127
65269,note_off,0,0,0,,8,,,56,127
65270,note_on,1,0,0,,10,,,81,127
65270,note_on,0,0,0,,6,,,54,127
65428,note_off,158,0,0,,4,,,64,127
65429,note_on,1,0,0,,3,,,75,127
65429,note_on,0,0,0,,6,,,66,127
65587,note_off,158,0,0,,6,,,66,127
65587,note_off,0,0,0,,3,,,75,127
65587,note_off,0,0,0,,10,,,81,127
65588,note_on,1,0,0,,1,,,73,127
65588,note_on,0,0,0,,4,,,64,127
65746,note_off,158,0,0,,1,,,73,127
65746,note_off,0,0,0,,6,,,54,127
65747,note_on,1,0,0,,3,,,75,127
65747,note_on,0,0,0,,8,,,56,127
65786,note_off,39,0,0,,3,,,75,127
65787,note_on,1,0,0,,1,,,73,127
65826,note_off,39,0,0,,1,,,73,127
65827,note_on,1,0,0,,3,,,75,127
65866,note_off,39,0,0,,3,,,75,127
65867,note_on,1,0,0,,1,,,73,127
65906,note_off,39,0,0,,1,,,73,127
65906,note_off,0,0,0,,4,,,64,127
65907,note_on,1,0,0,,0,,,72,127
65907,note_on,0,0,0,,3,,,63,127
66065,note_off,158,0,0,,3,,,63,127
66065,note_off,0,0,0,,0,,,72,127
66066,note_on,1,0,0,,8,,,80,127
66066,note_on,0,0,0,,4,,,64,127
66224,note_off,158,0,0,,8,,,80,127
66224,note_off,0,0,0,,8,,,56,127
66225,note_on,1,0,0,,10,,,81,127
66225,note_on,0,0,0,,6,,,54,127
66383,note_off,158,0,0,,4,,,64,127
66384,note_on,1,0,0,,3,,,75,127
66384,note_on,0,0,0,,6,,,66,127
66542,note_off,158,0,0,,6,,,66,127
66542,note_off,0,0,0,,3,,,75,127
66542,note_off,0,0,0,,10,,,81,127
66543,note_on,1,0,0,,1,,,73,127
66543,note_on,0,0,0,,4,,,64,127
66701,note_off,158,0,0,,1,,,73,127
66701,note_off,0,0,0,,6,,,54,127
66702,note_on,1,0,0,,3,,,75,127
66702,note_on,0,0,0,,8,,,56,127
66741,note_off,39,0,0,,3,,,75,127
66742,note_on,1,0,0,,1,,,73,127
66781,note_off,39,0,0,,1,,,73,127
66782,note_on,1,0,0,,3,,,75,127
66821,note_off,39,0,0,,3,,,75,127
66822,note_on,1,0,0,,1,,,73,127
66861,note_off,39,0,0,,1,,,73,127
66861,note_off,0,0,0,,4,,,64,127
66862,note_on,1,0,0,,0,,,72,127
66862,note_on,0,0,0,,3,,,63,127
67020,note_off,158,0,0,,3,,,63,127
67020,note_off,0,0,0,,0,,,72,127
67021,note_on,1,0,0,,1,,,73,127
67021,note_on,0,0,0,,1,,,61,127
67179,note_off,158,0,0,,1,,,61,127
67179,note_off,0,0,0,,1,,,73,127
67179,note_off,0,0,0,,8,,,56,127
67180,note_on,1,0,0,,3,,,75,127
67180,note_on,0,0,0,,0,,,60,127
67338,note_off,158,0,0,,0,,,60,127
67338,note_off,0,0,0,,3,,,75,127
67339,note_on,1,0,0,,4,,,76,127
67339,note_on,0,0,0,,11,,,58,127
67497,note_off,158,0,0,,11,,,58,127
67497,note_off,0,0,0,,4,,,76,127
67498,note_on,1,0,0,,6,,,78,127
67498,note_on,0,0,0,,8,,,56,127
67656,note_off,158,0,0,,8,,,56,127
67657,note_on,1,0,0,,1,,,61,127
67763,note_off,106,0,0,,6,,,78,127
67816,note_on,53,0,0,,5,,,77,127
67816,note_on,0,0,0,,8,,,68,127
67974,note_off,158,0,0,,8,,,68,127
67974,note_off,0,0,0,,5,,,77,127
67975,note_on,1,0,0,,6,,,78,127
67975,note_on,0,0,0,,10,,,69,127
68133,note_off,158,0,0,,1,,,61,127
68134,note_on,1,0,0,,12,,,59,127
68251,note_off,117,0,0,,10,,,69,127
68251,note_off,0,0,0,,6,,,78,127
68293,note_on,42,0,0,,2,,,74,127
68293,note_on,0,0,0,,8,,,80,127
68293,note_on,0,0,0,,12,,,83,127
68293,note_on,0,0,0,,12,,,71,127
68451,note_off,158,0,0,,12,,,71,127
68451,note_off,0,0,0,,8,,,80,127
68452,note_on,1,0,0,,6,,,78,127
68452,note_on,0,0,0,,10,,,69,127
68610,note_off,158,0,0,,12,,,59,127
68611,note_on,1,0,0,,1,,,61,127
68728,note_off,117,0,0,,10,,,69,127
68728,note_off,0,0,0,,6,,,78,127
68728,note_off,0,0,0,,12,,,83,127
68728,note_off,0,0,0,,2,,,74,127
68770,note_on,42,0,0,,12,,,83,127
68770,note_on,0,0,0,,5,,,77,127
68770,note_on,0,0,0,,8,,,68,127
68928,note_off,158,0,0,,8,,,68,127
68928,note_off,0,0,0,,5,,,77,127
68929,note_on,1,0,0,,6,,,78,127
68929,note_on,0,0,0,,10,,,69,127
69087,note_off,158,0,0,,1,,,61,127
69088,note_on,1,0,0,,12,,,59,127
69205,note_off,117,0,0,,10,,,69,127
69205,note_off,0,0,0,,6,,,78,127
69205,note_off,0,0,0,,12,,,83,127
69247,note_on,42,0,0,,8,,,80,127
69247,note_on,0,0,0,,12,,,83,127
69247,note_on,0,0,0,,2,,,74,127
69247,note_on,0,0,0,,12,,,71,127
69405,note_off,158,0,0,,12,,,71,127
69405,note_off,0,0,0,,8,,,80,127
69406,note_on,1,0,0,,6,,,78,127
69406,note_on,0,0,0,,10,,,69,127
69564,note_off,158,0,0,,12,,,59,127
69565,note_on,1,0,0,,1,,,61,127
69682,note_off,117,0,0,,10,,,69,127
69682,note_off,0,0,0,,6,,,78,127
69682,note_off,0,0,0,,2,,,74,127
69682,note_off,0,0,0,,12,,,83,127
69724,note_on,42,0,0,,12,,,83,127
69724,note_on,0,0,0,,5,,,77,127
69724,note_on,0,0,0,,8,,,68,127
69882,note_off,158,0,0,,8,,,68,127
69882,note_off,0,0,0,,5,,,77,127
69883,note_on,1,0,0,,6,,,78,127
69883,note_on,0,0,0,,10,,,69,127
70041,note_off,158,0,0,,1,,,61,127
70042,note_on,1,0,0,,12,,,59,127
70159,note_off,117,0,0,,10,,,69,127
70159,note_off,0,0,0,,6,,,78,127
70159,note_off,0,0,0,,12,,,83,127
70201,note_on,42,0,0,,12,,,83,127
70201,note_on,0,0,0,,2,,,74,127
70201,note_on,0,0,0,,8,,,80,127
70201,note_on,0,0,0,,12,,,71,127
70359,note_off,158,0,0,,12,,,71,127
70359,note_off,0,0,0,,8,,,80,127
70360,note_on,1,0,0,,6,,,78,127
70360,note_on,0,0,0,,10,,,69,127
70518,note_off,158,0,0,,12,,,59,127
70519,note_on,1,0,0,,1,,,61,127
70636,note_off,117,0,0,,10,,,69,127
70636,note_off,0,0,0,,6,,,78,127
70636,note_off,0,0,0,,2,,,74,127
70636,note_off,0,0,0,,12,,,83,127
70678,note_on,42,0,0,,5,,,77,127
70678,note_on,0,0,0,,8,,,68,127
70836,note_off,158,0,0,,8,,,68,127
70836,note_off,0,0,0,,5,,,77,127
70837,note_on,1,0,0,,6,,,78,127
70837,note_on,0,0,0,,6,,,66,127
70995,note_off,158,0,0,,6,,,66,127
70995,note_off,0,0,0,,6,,,78,127
70995,note_off,0,0,0,,1,,,61,127
70996,note_on,1,0,0,,8,,,80,127
70996,note_on,0,0,0,,5,,,65,127
71154,note_off,158,0,0,,5,,,65,127
71154,note_off,0,0,0,,8,,,80,127
71155,note_on,1,0,0,,10,,,81,127
71155,note_on,0,0,0,,3,,,63,127
71313,note_off,158,0,0,,3,,,63,127
71313,note_off,0,0,0,,10,,,81,127
71314,note_on,1,0,0,,12,,,83,127
71314,note_on,0,0,0,,1,,,61,127
71472,note_off,158,0,0,,1,,,61,127
71473,note_on,1,0,0,,6,,,54,127
71579,note_off,106,0,0,,12,,,83,127
71631,note_off,52,0,0,,6,,,54,127
71632,note_on,1,0,0,,10,,,81,127
71632,note_on,0,0,0,,6,,,66,127
71790,note_off,158,0,0,,6,,,66,127
71790,note_off,0,0,0,,10,,,81,127
71791,note_on,1,0,0,,8,,,80,127
71791,note_on,0,0,0,,8,,,68,127
71949,note_off,158,0,0,,8,,,68,127
71949,note_off,0,0,0,,8,,,80,127
71950,note_on,1,0,0,,8,,,80,127
71950,note_on,0,0,0,,10,,,69,127
72108,note_off,158,0,0,,10,,,69,127
72108,note_off,0,0,0,,8,,,80,127
72109,note_on,1,0,0,,6,,,78,127
72109,note_on,0,0,0,,12,,,71,127
72267,note_off,158,0,0,,12,,,71,127
72267,note_off,0,0,0,,6,,,78,127
72268,note_on,1,0,0,,4,,,76,127
72268,note_on,0,0,0,,1,,,73,127
72426,note_off,158,0,0,,1,,,73,127
72427,note_on,1,0,0,,12,,,59,127
72566,note_off,139,0,0,,4,,,76,127
72585,note_off,19,0,0,,12,,,59,127
72586,note_on,1,0,0,,3,,,75,127
72586,note_on,0,0,0,,12,,,71,127
72744,note_off,158,0,0,,12,,,71,127
72744,note_off,0,0,0,,3,,,75,127
72745,note_on,1,0,0,,4,,,76,127
72745,note_on,0,0,0,,1,,,73,127
72903,note_off,158,0,0,,1,,,73,127
72903,note_off,0,0,0,,4,,,76,127
72904,note_on,1,0,0,,6,,,78,127
72904,note_on,0,0,0,,3,,,75,127
73062,note_off,158,0,0,,3,,,75,127
73062,note_off,0,0,0,,6,,,78,127
73063,note_on,1,0,0,,8,,,80,127
73063,note_on,0,0,0,,1,,,73,127
73221,note_off,158,0,0,,1,,,73,127
73221,note_off,0,0,0,,8,,,80,127
73222,note_on,1,0,0,,10,,,81,127
73222,note_on,0,0,0,,12,,,71,127
73380,note_off,158,0,0,,12,,,71,127
73394,note_on,14,0,0,,4,,,64,127
73454,note_off,60,0,0,,10,,,81,127
73552,note_off,98,0,0,,4,,,64,127
73553,note_on,1,0,0,,4,,,76,127
73553,note_on,0,0,0,,1,,,85,127
73592,note_off,39,0,0,,1,,,85,127
73593,note_on,1,0,0,,12,,,83,127
73632,note_off,39,0,0,,12,,,83,127
73633,note_on,1,0,0,,1,,,85,127
73672,note_off,39,0,0,,1,,,85,127
73673,note_on,1,0,0,,12,,,83,127
73712,note_off,39,0,0,,12,,,83,127
73712,note_off,0,0,0,,4,,,76,127
73713,note_on,1,0,0,,8,,,80,127
73713,note_on,0,0,0,,1,,,85,127
73752,note_off,39,0,0,,1,,,85,127
73753,note_on,1,0,0,,12,,,83,127
73792,note_off,39,0,0,,12,,,83,127
73793,note_on,1,0,0,,1,,,85,127
73832,note_off,39,0,0,,1,,,85,127
73833,note_on,1,0,0,,12,,,83,127
73872,note_off,39,0,0,,8,,,80,127
73873,note_on,1,0,0,,3,,,63,127
74031,note_off,158,0,0,,3,,,63,127
74032,note_off,1,0,0,,12,,,83,127
74032,note_on,0,0,0,,3,,,75,127
74032,note_on,0,0,0,,1,,,85,127
74071,note_off,39,0,0,,1,,,85,127
74072,note_on,1,0,0,,12,,,83,127
74111,note_off,39,0,0,,12,,,83,127
74112,note_on,1,0,0,,1,,,85,127
74151,note_off,39,0,0,,1,,,85,127
74152,note_on,1,0,0,,12,,,83,127
74191,note_off,39,0,0,,12,,,83,127
74191,note_off,0,0,0,,3,,,75,127
74192,note_on,1,0,0,,6,,,78,127
74192,note_on,0,0,0,,1,,,85,127
74231,note_off,39,0,0,,1,,,85,127
74232,note_on,1,0,0,,12,,,83,127
74271,note_off,39,0,0,,12,,,83,127
74272,note_on,1,0,0,,1,,,85,127
74311,note_off,39,0,0,,1,,,85,127
74312,note_on,1,0,0,,12,,,83,127
74351,note_off,39,0,0,,6,,,78,127
74352,note_on,1,0,0,,1,,,61,127
74510,note_off,158,0,0,,1,,,61,127
74511,note_off,1,0,0,,12,,,83,127
74511,note_on,0,0,0,,1,,,73,127
74511,note_on,0,0,0,,1,,,85,127
74550,note_off,39,0,0,,1,,,85,127
74551,note_on,1,0,0,,12,,,83,127
74590,note_off,39,0,0,,12,,,83,127
74591,note_on,1,0,0,,1,,,85,127
74630,note_off,39,0,0,,1,,,85,127
74631,note_on,1,0,0,,12,,,83,127
74670,note_off,39,0,0,,12,,,83,127
74670,note_off,0,0,0,,1,,,73,127
74671,note_on,1,0,0,,4,,,76,127
74671,note_on,0,0,0,,1,,,85,127
74710,note_off,39,0,0,,1,,,85,127
74711,note_on,1,0,0,,12,,,83,127
74750,note_off,39,0,0,,12,,,83,127
74751,note_on,1,0,0,,1,,,85,127
74790,note_off,39,0,0,,1,,,85,127
74791,note_on,1,0,0,,12,,,83,127
74830,note_off,39,0,0,,4,,,76,127
74831,note_on,1,0,0,,12,,,59,127
74989,note_off,158,0,0,,12,,,59,127
74990,note_off,1,0,0,,12,,,83,127
74990,note_on,0,0,0,,12,,,71,127
74990,note_on,0,0,0,,1,,,85,127
75029,note_off,39,0,0,,1,,,85,127
75030,note_on,1,0,0,,12,,,83,127
75069,note_off,39,0,0,,12,,,83,127
75070,note_on,1,0,0,,1,,,85,127
75109,note_off,39,0,0,,1,,,85,127
75110,note_on,1,0,0,,12,,,83,127
75149,note_off,39,0,0,,12,,,83,127
75149,note_off,0,0,0,,12,,,71,127
75150,note_on,1,0,0,,3,,,75,127
75150,note_on,0,0,0,,1,,,85,127
75189,note_off,39,0,0,,1,,,85,127
75190,note_on,1,0,0,,12,,,83,127
75229,note_off,39,0,0,,12,,,83,127
75230,note_on,1,0,0,,1,,,85,127
75269,note_off,39,0,0,,1,,,85,127
75270,note_on,1,0,0,,12,,,83,127
75309,note_off,39,0,0,,3,,,75,127
75310,note_on,1,0,0,,10,,,57,127
75468,note_off,158,0,0,,10,,,57,127
75469,note_off,1,0,0,,12,,,83,127
75469,note_on,0,0,0,,10,,,69,127
75469,note_on,0,0,0,,1,,,85,127
75508,note_off,39,0,0,,1,,,85,127
75509,note_on,1,0,0,,12,,,83,127
75548,note_off,39,0,0,,12,,,83,127
75549,note_on,1,0,0,,1,,,85,127
75588,note_off,39,0,0,,1,,,85,127
75589,note_on,1,0,0,,12,,,83,127
75628,note_off,39,0,0,,12,,,83,127
75628,note_off,0,0,0,,10,,,69,127
75629,note_on,1,0,0,,1,,,73,127
75629,note_on,0,0,0,,1,,,85,127
75668,note_off,39,0,0,,1,,,85,127
75669,note_on,1,0,0,,12,,,83,127
75708,note_off,39,0,0,,12,,,83,127
75709,note_on,1,0,0,,1,,,85,127
75748,note_off,39,0,0,,1,,,85,127
75749,note_on,1,0,0,,12,,,83,127
75788,note_off,39,0,0,,1,,,73,127
75789,note_on,1,0,0,,8,,,56,127
75947,note_off,158,0,0,,8,,,56,127
75948,note_off,1,0,0,,12,,,83,127
75948,note_on,0,0,0,,8,,,68,127
75948,note_on,0,0,0,,1,,,85,127
75987,note_off,39,0,0,,1,,,85,127
75988,note_on,1,0,0,,12,,,83,127
76027,note_off,39,0,0,,12,,,83,127
76028,note_on,1,0,0,,1,,,85,127
76067,note_off,39,0,0,,1,,,85,127
76068,note_on,1,0,0,,12,,,83,127
76107,note_off,39,0,0,,12,,,83,127
76107,note_off,0,0,0,,8,,,68,127
76108,note_on,1,0,0,,12,,,71,127
76108,note_on,0,0,0,,1,,,85,127
76147,note_off,39,0,0,,1,,,85,127
76148,note_on,1,0,0,,12,,,83,127
76187,note_off,39,0,0,,12,,,83,127
76188,note_on,1,0,0,,1,,,85,127
76227,note_off,39,0,0,,1,,,85,127
76228,note_on,1,0,0,,12,,,83,127
76267,note_off,39,0,0,,12,,,71,127
76268,note_on,1,0,0,,6,,,54,127
76426,note_off,158,0,0,,6,,,54,127
76427,note_off,1,0,0,,12,,,83,127
76427,note_on,0,0,0,,6,,,66,127
76427,note_on,0,0,0,,1,,,85,127
76466,note_off,39,0,0,,1,,,85,127
76467,note_on,1,0,0,,12,,,83,127
76506,note_off,39,0,0,,12,,,83,127
76507,note_on,1,0,0,,1,,,85,127
76546,note_off,39,0,0,,1,,,85,127
76547,note_on,1,0,0,,12,,,83,127
76586,note_off,39,0,0,,12,,,83,127
76586,note_off,0,0,0,,6,,,66,127
76587,note_on,1,0,0,,10,,,69,127
76587,note_on,0,0,0,,1,,,85,127
76626,note_off,39,0,0,,1,,,85,127
76627,note_on,1,0,0,,12,,,83,127
76666,note_off,39,0,0,,12,,,83,127
76667,note_on,1,0,0,,1,,,85,127
76706,note_off,39,0,0,,1,,,85,127
76707,note_on,1,0,0,,12,,,83,127
76746,note_off,39,0,0,,10,,,69,127
76747,note_on,1,0,0,,4,,,52,127
76905,note_off,158,0,0,,4,,,52,127
76906,note_off,1,0,0,,12,,,83,127
76906,note_on,0,0,0,,4,,,64,127
76906,note_on,0,0,0,,1,,,85,127
76945,note_off,39,0,0,,1,,,85,127
76946,note_on,1,0,0,,12,,,83,127
76985,note_off,39,0,0,,12,,,83,127
76986,note_on,1,0,0,,1,,,85,127
77025,note_off,39,0,0,,1,,,85,127
77026,note_on,1,0,0,,12,,,83,127
77065,note_off,39,0,0,,12,,,83,127
77065,note_off,0,0,0,,4,,,64,127
77066,note_on,1,0,0,,8,,,68,127
77066,note_on,0,0,0,,1,,,85,127
77105,note_off,39,0,0,,1,,,85,127
77106,note_on,1,0,0,,12,,,83,127
77145,note_off,39,0,0,,12,,,83,127
77146,note_on,1,0,0,,1,,,85,127
77185,note_off,39,0,0,,1,,,85,127
77186,note_on,1,0,0,,12,,,83,127
77225,note_off,39,0,0,,8,,,68,127
77226,note_on,1,0,0,,3,,,51,127
77384,note_off,158,0,0,,3,,,51,127
77385,note_off,1,0,0,,12,,,83,127
77385,note_on,0,0,0,,3,,,63,127
77385,note_on,0,0,0,,1,,,85,127
77424,note_off,39,0,0,,1,,,85,127
77425,note_on,1,0,0,,12,,,83,127
77464,note_off,39,0,0,,12,,,83,127
77465,note_on,1,0,0,,1,,,85,127
77504,note_off,39,0,0,,1,,,85,127
77505,note_on,1,0,0,,12,,,83,127
77544,note_off,39,0,0,,12,,,83,127
77544,note_off,0,0,0,,3,,,63,127
77545,note_on,1,0,0,,6,,,66,127
77545,note_on,0,0,0,,1,,,85,127
77584,note_off,39,0,0,,1,,,85,127
77585,note_on,1,0,0,,12,,,83,127
77624,note_off,39,0,0,,12,,,83,127
77625,note_on,1,0,0,,1,,,85,127
77664,note_off,39,0,0,,1,,,85,127
77665,note_on,1,0,0,,12,,,83,127
77704,note_off,39,0,0,,6,,,66,127
77705,note_on,1,0,0,,1,,,49,127
77863,note_off,158,0,0,,1,,,49,127
77864,note_off,1,0,0,,12,,,83,127
77864,note_on,0,0,0,,1,,,61,127
77864,note_on,0,0,0,,1,,,85,127
77903,note_off,39,0,0,,1,,,85,127
77904,note_on,1,0,0,,12,,,83,127
77943,note_off,39,0,0,,12,,,83,127
77944,note_on,1,0,0,,1,,,85,127
77983,note_off,39,0,0,,1,,,85,127
77984,note_on,1,0,0,,12,,,83,127
78023,note_off,39,0,0,,12,,,83,127
78023,note_off,0,0,0,,1,,,61,127
78024,note_on,1,0,0,,4,,,64,127
78024,note_on,0,0,0,,1,,,85,127
78063,note_off,39,0,0,,1,,,85,127
78064,note_on,1,0,0,,12,,,83,127
78103,note_off,39,0,0,,12,,,83,127
78104,note_on,1,0,0,,1,,,85,127
78143,note_off,39,0,0,,1,,,85,127
78144,note_on,1,0,0,,12,,,83,127
78183,note_off,39,0,0,,4,,,64,127
78184,note_on,1,0,0,,12,,,47,127
78342,note_off,158,0,0,,12,,,47,127
78343,note_off,1,0,0,,12,,,83,127
78343,note_on,0,0,0,,12,,,59,127
78343,note_on,0,0,0,,1,,,85,127
78382,note_off,39,0,0,,1,,,85,127
78383,note_on,1,0,0,,12,,,83,127
78422,note_off,39,0,0,,12,,,83,127
78423,note_on,1,0,0,,1,,,85,127
78462,note_off,39,0,0,,1,,,85,127
78463,note_on,1,0,0,,12,,,83,127
78502,note_off,39,0,0,,12,,,83,127
78502,note_off,0,0,0,,12,,,59,127
78503,note_on,1,0,0,,3,,,63,127
78503,note_on,0,0,0,,1,,,85,127
78542,note_off,39,0,0,,1,,,85,127
78543,note_on,1,0,0,,12,,,83,127
78582,note_off,39,0,0,,12,,,83,127
78583,note_on,1,0,0,,1,,,85,127
78622,note_off,39,0,0,,1,,,85,127
78623,note_on,1,0,0,,12,,,83,127
78662,note_off,39,0,0,,3,,,63,127
78663,note_on,1,0,0,,10,,,45,127
78821,note_off,158,0,0,,10,,,45,127
78822,note_off,1,0,0,,12,,,83,127
78822,note_on,0,0,0,,10,,,57,127
78822,note_on,0,0,0,,1,,,85,127
78861,note_off,39,0,0,,1,,,85,127
78862,note_on,1,0,0,,12,,,83,127
78901,note_off,39,0,0,,12,,,83,127
78902,note_on,1,0,0,,1,,,85,127
78941,note_off,39,0,0,,1,,,85,127
78942,note_on,1,0,0,,12,,,83,127
78981,note_off,39,0,0,,12,,,83,127
78981,note_off,0,0,0,,10,,,57,127
78982,note_on,1,0,0,,1,,,61,127
78982,note_on,0,0,0,,1,,,85,127
79021,note_off,39,0,0,,1,,,85,127
79022,note_on,1,0,0,,12,,,83,127
79061,note_off,39,0,0,,12,,,83,127
79062,note_on,1,0,0,,1,,,85,127
79101,note_off,39,0,0,,1,,,85,127
79102,note_on,1,0,0,,12,,,83,127
79141,note_off,39,0,0,,1,,,61,127
79142,note_on,1,0,0,,8,,,44,127
79300,note_off,158,0,0,,8,,,44,127
79301,note_off,1,0,0,,12,,,83,127
79301,note_on,0,0,0,,8,,,56,127
79301,note_on,0,0,0,,1,,,85,127
79340,note_off,39,0,0,,1,,,85,127
79341,note_on,1,0,0,,12,,,83,127
79380,note_off,39,0,0,,12,,,83,127
79381,note_on,1,0,0,,1,,,85,127
79420,note_off,39,0,0,,1,,,85,127
79421,note_on,1,0,0,,12,,,83,127
79460,note_off,39,0,0,,12,,,83,127
79460,note_off,0,0,0,,8,,,56,127
79461,note_on,1,0,0,,12,,,59,127
79461,note_on,0,0,0,,1,,,85,127
79500,note_off,39,0,0,,1,,,85,127
79501,note_on,1,0,0,,12,,,83,127
79540,note_off,39,0,0,,12,,,83,127
79541,note_on,1,0,0,,1,,,85,127
79580,note_off,39,0,0,,1,,,85,127
79581,note_on,1,0,0,,12,,,83,127
79620,note_off,39,0,0,,12,,,59,127
79621,note_on,1,0,0,,6,,,42,127
79779,note_off,158,0,0,,6,,,42,127
79780,note_off,1,0,0,,12,,,83,127
79780,note_on,0,0,0,,6,,,54,127
79780,note_on,0,0,0,,1,,,85,127
79819,note_off,39,0,0,,1,,,85,127
79820,note_on,1,0,0,,12,,,83,127
79859,note_off,39,0,0,,12,,,83,127
79860,note_on,1,0,0,,1,,,85,127
79899,note_off,39,0,0,,1,,,85,127
79900,note_on,1,0,0,,12,,,83,127
79939,note_off,39,0,0,,12,,,83,127
79939,note_off,0,0,0,,6,,,54,127
79940,note_on,1,0,0,,10,,,57,127
79940,note_on,0,0,0,,1,,,85,127
79979,note_off,39,0,0,,1,,,85,127
79980,note_on,1,0,0,,12,,,83,127
80019,note_off,39,0,0,,12,,,83,127
80020,note_on,1,0,0,,1,,,85,127
80059,note_off,39,0,0,,1,,,85,127
80060,note_on,1,0,0,,12,,,83,127
80099,note_off,39,0,0,,10,,,57,127
80100,note_on,1,0,0,,4,,,40,127
80258,note_off,158,0,0,,4,,,40,127
80259,note_off,1,0,0,,12,,,83,127
80259,note_on,0,0,0,,4,,,52,127
80259,note_on,0,0,0,,1,,,85,127
80298,note_off,39,0,0,,1,,,85,127
80299,note_on,1,0,0,,12,,,83,127
80338,note_off,39,0,0,,12,,,83,127
80339,note_on,1,0,0,,1,,,85,127
80378,note_off,39,0,0,,1,,,85,127
80379,note_on,1,0,0,,12,,,83,127
80418,note_off,39,0,0,,12,,,83,127
80418,note_off,0,0,0,,4,,,52,127
80419,note_on,1,0,0,,8,,,56,127
80419,note_on,0,0,0,,1,,,85,127
80458,note_off,39,0,0,,1,,,85,127
80459,note_on,1,0,0,,12,,,83,127
80498,note_off,39,0,0,,12,,,83,127
80499,note_on,1,0,0,,1,,,85,127
80538,note_off,39,0,0,,1,,,85,127
80539,note_on,1,0,0,,12,,,83,127
80578,note_off,39,0,0,,8,,,56,127
80579,note_on,1,0,0,,12,,,47,127
80579,note_on,0,0,0,,12,,,35,127
80738,note_off,159,0,0,,12,,,83,127
80738,note_on,0,0,0,,1,,,85,127
80777,note_off,39,0,0,,1,,,85,127
80778,note_on,1,0,0,,12,,,83,127
80817,note_off,39,0,0,,12,,,83,127
80818,note_on,1,0,0,,1,,,85,127
80857,note_off,39,0,0,,1,,,85,127
80858,note_on,1,0,0,,12,,,83,127
80897,note_off,39,0,0,,12,,,83,127
80898,note_on,1,0,0,,1,,,85,127
80937,note_off,39,0,0,,1,,,85,127
80938,note_on,1,0,0,,12,,,83,127
80977,note_off,39,0,0,,12,,,83,127
80978,note_on,1,0,0,,1,,,85,127
81017,note_off,39,0,0,,1,,,85,127
81018,note_on,1,0,0,,12,,,83,127
81285,note_on,267,0,0,,10,,,81,127
81326,note_on,41,0,0,,8,,,80,127
81329,note_off,3,0,0,,10,,,81,127
81331,note_off,2,0,0,,12,,,83,127
81367,note_on,36,0,0,,6,,,78,127
81370,note_off,3,0,0,,8,,,80,127
81373,note_off,3,0,0,,12,,,47,127
81408,note_on,35,0,0,,4,,,76,127
81411,note_off,3,0,0,,6,,,78,127
81449,note_on,38,0,0,,3,,,75,127
81452,note_off,3,0,0,,4,,,76,127
81490,note_on,38,0,0,,1,,,73,127
81493,note_off,3,0,0,,3,,,75,127
81530,note_on,37,0,0,,12,,,71,127
81534,note_off,4,0,0,,1,,,73,127
81571,note_on,37,0,0,,10,,,69,127
81574,note_off,3,0,0,,12,,,71,127
81612,note_on,38,0,0,,8,,,68,127
81615,note_off,3,0,0,,10,,,69,127
81653,note_on,38,0,0,,6,,,66,127
81656,note_off,3,0,0,,8,,,68,127
81694,note_on,38,0,0,,4,,,64,127
81697,note_off,3,0,0,,6,,,66,127
81735,note_on,38,0,0,,3,,,63,127
81738,note_off,3,0,0,,4,,,64,127
81776,note_on,38,0,0,,1,,,61,127
81779,note_off,3,0,0,,3,,,63,127
81817,note_on,38,0,0,,12,,,59,127
81820,note_off,3,0,0,,1,,,61,127
81858,note_on,38,0,0,,10,,,57,127
81861,note_off,3,0,0,,12,,,59,127
81899,note_on,38,0,0,,8,,,56,127
81902,note_off,3,0,0,,10,,,57,127
81925,note_off,23,0,0,,12,,,35,127
81940,note_on,15,0,0,,6,,,54,127
81943,note_off,3,0,0,,8,,,56,127
81981,note_on,38,0,0,,4,,,52,127
81984,note_off,3,0,0,,6,,,54,127
82022,note_on,38,0,0,,3,,,51,127
82025,note_off,3,0,0,,4,,,52,127
82062,note_on,37,0,0,,1,,,49,127
82066,note_off,4,0,0,,3,,,51,127
82103,note_on,37,0,0,,12,,,47,127
82106,note_off,3,0,0,,1,,,49,127
82144,note_on,38,0,0,,10,,,45,127
82147,note_off,3,0,0,,12,,,47,127
82185,note_on,38,0,0,,8,,,44,127
82188,note_off,3,0,0,,10,,,45,127
82226,note_on,38,0,0,,6,,,42,127
82229,note_off,3,0,0,,8,,,44,127
82267,note_on,38,0,0,,12,,,35,127
83513,note_off,1246,0,0,,6,,,42,127
83518,note_off,5,0,0,,12,,,35,127
84120,note_on,602,0,0,,12,,,59,127
84120,note_on,0,0,0,,12,,,47,127
84279,note_on,159,0,0,,3,,,63,127
84279,note_on,0,0,0,,6,,,66,127
84437,note_off,158,0,0,,6,,,66,127
84437,note_off,0,0,0,,3,,,63,127
84438,note_on,1,0,0,,7,,,67,127
84438,note_on,0,0,0,,4,,,64,127
84596,note_off,158,0,0,,12,,,47,127
84596,note_off,0,0,0,,12,,,59,127
84597,note_on,1,0,0,,0,,,60,127
84597,note_on,0,0,0,,10,,,45,127
84714,note_off,117,0,0,,4,,,64,127
84714,note_off,0,0,0,,7,,,67,127
84756,note_on,42,0,0,,10,,,69,127
84756,note_on,0,0,0,,6,,,66,127
84914,note_off,158,0,0,,6,,,66,127
84914,note_off,0,0,0,,10,,,69,127
84915,note_on,1,0,0,,7,,,67,127
84915,note_on,0,0,0,,4,,,64,127
85073,note_off,158,0,0,,10,,,45,127
85073,note_off,0,0,0,,0,,,60,127
85074,note_on,1,0,0,,12,,,59,127
85074,note_on,0,0,0,,12,,,47,127
85163,note_off,89,0,0,,4,,,64,127
85163,note_off,0,0,0,,7,,,67,127
85233,note_on,70,0,0,,3,,,63,127
85233,note_on,0,0,0,,6,,,66,127
85391,note_off,158,0,0,,6,,,66,127
85391,note_off,0,0,0,,3,,,63,127
85392,note_on,1,0,0,,7,,,67,127
85392,note_on,0,0,0,,4,,,64,127
85550,note_off,158,0,0,,12,,,47,127
85550,note_off,0,0,0,,12,,,59,127
85551,note_on,1,0,0,,0,,,60,127
85551,note_on,0,0,0,,10,,,45,127
85668,note_off,117,0,0,,4,,,64,127
85668,note_off,0,0,0,,7,,,67,127
85710,note_on,42,0,0,,10,,,69,127
85710,note_on,0,0,0,,6,,,66,127
85868,note_off,158,0,0,,6,,,66,127
85868,note_off,0,0,0,,10,,,69,127
85869,note_on,1,0,0,,4,,,64,127
85869,note_on,0,0,0,,7,,,67,127
86027,note_off,158,0,0,,7,,,67,127
86027,note_off,0,0,0,,4,,,64,127
86027,note_off,0,0,0,,10,,,45,127
86027,note_off,0,0,0,,0,,,60,127
86028,note_on,1,0,0,,12,,,59,127
86028,note_on,0,0,0,,3,,,63,127
86028,note_on,0,0,0,,6,,,66,127
86028,note_on,0,0,0,,12,,,47,127
86186,note_off,158,0,0,,6,,,66,127
86186,note_off,0,0,0,,3,,,63,127
86186,note_off,0,0,0,,12,,,59,127
86187,note_on,1,0,0,,0,,,72,127
86187,note_on,0,0,0,,10,,,69,127
86345,note_off,158,0,0,,10,,,69,127
86345,note_off,0,0,0,,0,,,72,127
86346,note_on,1,0,0,,12,,,71,127
86346,note_on,0,0,0,,7,,,67,127
86504,note_off,158,0,0,,7,,,67,127
86504,note_off,0,0,0,,12,,,71,127
86505,note_on,1,0,0,,6,,,66,127
86505,note_on,0,0,0,,10,,,69,127
86505,note_on,0,0,0,,10,,,57,127
86505,note_on,0,0,0,,6,,,54,127
86663,note_off,158,0,0,,10,,,69,127
86663,note_off,0,0,0,,6,,,66,127
86664,note_on,1,0,0,,4,,,64,127
86664,note_on,0,0,0,,7,,,67,127
86822,note_off,158,0,0,,7,,,67,127
86822,note_off,0,0,0,,4,,,64,127
86823,note_on,1,0,0,,3,,,63,127
86823,note_on,0,0,0,,6,,,66,127
86955,note_off,132,0,0,,6,,,66,127
86955,note_off,0,0,0,,3,,,63,127
86981,note_off,26,0,0,,6,,,54,127
86981,note_off,0,0,0,,10,,,57,127
86981,note_off,0,0,0,,12,,,47,127
86982,note_on,1,0,0,,4,,,64,127
86982,note_on,0,0,0,,4,,,52,127
87154,note_on,172,0,0,,8,,,68,127
87154,note_on,0,0,0,,12,,,71,127
87312,note_off,158,0,0,,12,,,71,127
87312,note_off,0,0,0,,8,,,68,127
87313,note_on,1,0,0,,0,,,72,127
87313,note_on,0,0,0,,10,,,69,127
87458,note_off,145,0,0,,4,,,52,127
87458,note_off,0,0,0,,4,,,64,127
87472,note_on,14,0,0,,2,,,50,127
87472,note_on,0,0,0,,5,,,65,127
87589,note_off,117,0,0,,10,,,69,127
87589,note_off,0,0,0,,0,,,72,127
87631,note_on,42,0,0,,12,,,71,127
87631,note_on,0,0,0,,2,,,74,127
87789,note_off,158,0,0,,2,,,74,127
87789,note_off,0,0,0,,12,,,71,127
87790,note_on,1,0,0,,0,,,72,127
87790,note_on,0,0,0,,10,,,69,127
87948,note_off,158,0,0,,5,,,65,127
87948,note_off,0,0,0,,2,,,50,127
87949,note_on,1,0,0,,4,,,52,127
87949,note_on,0,0,0,,4,,,64,127
88038,note_off,89,0,0,,10,,,69,127
88038,note_off,0,0,0,,0,,,72,127
88108,note_on,70,0,0,,8,,,68,127
88108,note_on,0,0,0,,12,,,71,127
88266,note_off,158,0,0,,12,,,71,127
88266,note_off,0,0,0,,8,,,68,127
88267,note_on,1,0,0,,10,,,69,127
88267,note_on,0,0,0,,0,,,72,127
88425,note_off,158,0,0,,4,,,64,127
88425,note_off,0,0,0,,4,,,52,127
88426,note_on,1,0,0,,2,,,50,127
88426,note_on,0,0,0,,5,,,65,127
88543,note_off,117,0,0,,0,,,72,127
88543,note_off,0,0,0,,10,,,69,127
88585,note_on,42,0,0,,2,,,74,127
88585,note_on,0,0,0,,12,,,71,127
88743,note_off,158,0,0,,12,,,71,127
88743,note_off,0,0,0,,2,,,74,127
88744,note_on,1,0,0,,0,,,72,127
88744,note_on,0,0,0,,10,,,69,127
88902,note_off,158,0,0,,10,,,69,127
88902,note_off,0,0,0,,0,,,72,127
88902,note_off,0,0,0,,5,,,65,127
88902,note_off,0,0,0,,2,,,50,127
88903,note_on,1,0,0,,4,,,52,127
88903,note_on,0,0,0,,8,,,68,127
88903,note_on,0,0,0,,4,,,64,127
88903,note_on,0,0,0,,12,,,71,127
89061,note_off,158,0,0,,12,,,71,127
89061,note_off,0,0,0,,4,,,64,127
89061,note_off,0,0,0,,8,,,68,127
89062,note_on,1,0,0,,5,,,77,127
89062,note_on,0,0,0,,2,,,74,127
89220,note_off,158,0,0,,2,,,74,127
89220,note_off,0,0,0,,5,,,77,127
89221,note_on,1,0,0,,4,,,76,127
89221,note_on,0,0,0,,0,,,72,127
89379,note_off,158,0,0,,0,,,72,127
89379,note_off,0,0,0,,4,,,76,127
89380,note_on,1,0,0,,12,,,59,127
89380,note_on,0,0,0,,2,,,62,127
89380,note_on,0,0,0,,12,,,71,127
89380,note_on,0,0,0,,2,,,74,127
89538,note_off,158,0,0,,2,,,74,127
89538,note_off,0,0,0,,12,,,71,127
89539,note_on,1,0,0,,0,,,72,127
89539,note_on,0,0,0,,10,,,69,127
89697,note_off,158,0,0,,10,,,69,127
89697,note_off,0,0,0,,0,,,72,127
89698,note_on,1,0,0,,12,,,71,127
89698,note_on,0,0,0,,8,,,68,127
89856,note_off,158,0,0,,8,,,68,127
89856,note_off,0,0,0,,12,,,71,127
89856,note_off,0,0,0,,2,,,62,127
89856,note_off,0,0,0,,12,,,59,127
89856,note_off,0,0,0,,4,,,52,127
89857,note_on,1,0,0,,10,,,57,127
89857,note_on,0,0,0,,10,,,69,127
90029,note_on,172,0,0,,10,,,81,127
90089,note_off,60,0,0,,10,,,69,127
90187,note_off,98,0,0,,10,,,81,127
90188,note_on,1,0,0,,7,,,79,127
90333,note_off,145,0,0,,10,,,57,127
90346,note_off,13,0,0,,7,,,79,127
90347,note_on,1,0,0,,0,,,72,127
90347,note_on,0,0,0,,7,,,79,127
90347,note_on,0,0,0,,10,,,81,127
90347,note_on,0,0,0,,10,,,69,127
90505,note_off,158,0,0,,10,,,81,127
90505,note_off,0,0,0,,7,,,79,127
90506,note_on,1,0,0,,6,,,78,127
90664,note_off,158,0,0,,6,,,78,127
90664,note_off,0,0,0,,10,,,69,127
90665,note_on,1,0,0,,4,,,76,127
90665,note_on,0,0,0,,7,,,67,127
90823,note_off,158,0,0,,7,,,67,127
90823,note_off,0,0,0,,0,,,72,127
90824,note_on,1,0,0,,12,,,71,127
90824,note_on,0,0,0,,12,,,59,127
90982,note_off,158,0,0,,4,,,76,127
90983,note_on,1,0,0,,3,,,75,127
90983,note_on,0,0,0,,6,,,66,127
91141,note_off,158,0,0,,6,,,66,127
91141,note_off,0,0,0,,3,,,75,127
91142,note_on,1,0,0,,4,,,76,127
91142,note_on,0,0,0,,7,,,67,127
91300,note_off,158,0,0,,12,,,59,127
91300,note_off,0,0,0,,12,,,71,127
91301,note_on,1,0,0,,0,,,72,127
91301,note_on,0,0,0,,10,,,57,127
91459,note_off,158,0,0,,7,,,67,127
91459,note_off,0,0,0,,4,,,76,127
91460,note_on,1,0,0,,6,,,78,127
91460,note_on,0,0,0,,10,,,69,127
91618,note_off,158,0,0,,10,,,69,127
91618,note_off,0,0,0,,6,,,78,127
91619,note_on,1,0,0,,4,,,76,127
91619,note_on,0,0,0,,7,,,67,127
91777,note_off,158,0,0,,10,,,57,127
91777,note_off,0,0,0,,0,,,72,127
91778,note_on,1,0,0,,12,,,71,127
91778,note_on,0,0,0,,12,,,59,127
91936,note_off,158,0,0,,7,,,67,127
91936,note_off,0,0,0,,4,,,76,127
91937,note_on,1,0,0,,3,,,75,127
91937,note_on,0,0,0,,6,,,66,127
92095,note_off,158,0,0,,6,,,66,127
92095,note_off,0,0,0,,3,,,75,127
92096,note_on,1,0,0,,4,,,76,127
92096,note_on,0,0,0,,7,,,67,127
92254,note_off,158,0,0,,12,,,59,127
92254,note_off,0,0,0,,12,,,71,127
92255,note_on,1,0,0,,0,,,72,127
92255,note_on,0,0,0,,10,,,57,127
92413,note_off,158,0,0,,7,,,67,127
92413,note_off,0,0,0,,4,,,76,127
92414,note_on,1,0,0,,6,,,78,127
92414,note_on,0,0,0,,10,,,69,127
92572,note_off,158,0,0,,10,,,69,127
92572,note_off,0,0,0,,6,,,78,127
92573,note_on,1,0,0,,4,,,76,127
92573,note_on,0,0,0,,7,,,67,127
92731,note_off,158,0,0,,10,,,57,127
92731,note_off,0,0,0,,0,,,72,127
92732,note_on,1,0,0,,12,,,71,127
92732,note_on,0,0,0,,12,,,59,127
92871,note_off,139,0,0,,7,,,67,127
92871,note_off,0,0,0,,4,,,76,127
92891,note_on,20,0,0,,3,,,75,127
92891,note_on,0,0,0,,6,,,66,127
93049,note_off,158,0,0,,6,,,66,127
93049,note_off,0,0,0,,3,,,75,127
93050,note_on,1,0,0,,4,,,76,127
93050,note_on,0,0,0,,7,,,67,127
93208,note_off,158,0,0,,12,,,59,127
93208,note_off,0,0,0,,12,,,71,127
93209,note_on,1,0,0,,0,,,72,127
93209,note_on,0,0,0,,10,,,57,127
93367,note_off,158,0,0,,7,,,67,127
93367,note_off,0,0,0,,4,,,76,127
93368,note_on,1,0,0,,6,,,78,127
93368,note_on,0,0,0,,10,,,69,127
93526,note_off,158,0,0,,10,,,69,127
93526,note_off,0,0,0,,6,,,78,127
93527,note_on,1,0,0,,4,,,76,127
93527,note_on,0,0,0,,7,,,67,127
93685,note_off,158,0,0,,7,,,67,127
93685,note_off,0,0,0,,4,,,76,127
93685,note_off,0,0,0,,10,,,57,127
93685,note_off,0,0,0,,0,,,72,127
93686,note_on,1,0,0,,12,,,71,127
93686,note_on,0,0,0,,12,,,59,127
93844,note_off,158,0,0,,12,,,71,127
93858,note_on,14,0,0,,3,,,75,127
94016,note_off,158,0,0,,3,,,75,127
94017,note_on,1,0,0,,4,,,76,127
94162,note_off,145,0,0,,12,,,59,127
94175,note_off,13,0,0,,4,,,76,127
94176,note_on,1,0,0,,12,,,71,127
94176,note_on,0,0,0,,6,,,78,127
94334,note_off,158,0,0,,6,,,78,127
94335,note_on,1,0,0,,8,,,80,127
94493,note_off,158,0,0,,8,,,80,127
94493,note_off,0,0,0,,12,,,71,127
94494,note_on,1,0,0,,10,,,69,127
94494,note_on,0,0,0,,10,,,81,127
94643,note_off,149,0,0,,10,,,81,127
94666,note_off,23,0,0,,10,,,69,127
94673,note_on,7,0,0,,12,,,83,127
94673,note_on,0,0,0,,8,,,68,127
94831,note_off,158,0,0,,12,,,83,127
94832,note_on,1,0,0,,8,,,80,127
94990,note_off,158,0,0,,8,,,80,127
94990,note_off,0,0,0,,8,,,68,127
94991,note_on,1,0,0,,4,,,76,127
94991,note_on,0,0,0,,1,,,73,127
95149,note_off,158,0,0,,1,,,73,127
95149,note_off,0,0,0,,4,,,76,127
95150,note_on,1,0,0,,8,,,80,127
95150,note_on,0,0,0,,10,,,69,127
95189,note_off,39,0,0,,8,,,80,127
95190,note_on,1,0,0,,6,,,78,127
95229,note_off,39,0,0,,6,,,78,127
95230,note_on,1,0,0,,8,,,80,127
95269,note_off,39,0,0,,8,,,80,127
95270,note_on,1,0,0,,6,,,78,127
95309,note_off,39,0,0,,6,,,78,127
95310,note_on,1,0,0,,4,,,76,127
95468,note_off,158,0,0,,4,,,76,127
95468,note_off,0,0,0,,10,,,69,127
95469,note_on,1,0,0,,3,,,75,127
95469,note_on,0,0,0,,12,,,71,127
95627,note_off,158,0,0,,12,,,71,127
95627,note_off,0,0,0,,3,,,75,127
95628,note_on,1,0,0,,12,,,83,127
95628,note_on,0,0,0,,8,,,68,127
95707,note_off,79,0,0,,12,,,83,127
95708,note_on,1,0,0,,10,,,81,127
95787,note_off,79,0,0,,10,,,81,127
95788,note_on,1,0,0,,8,,,80,127
95867,note_off,79,0,0,,8,,,80,127
95868,note_on,1,0,0,,6,,,78,127
95947,note_off,79,0,0,,6,,,78,127
95947,note_off,0,0,0,,8,,,68,127
95948,note_on,1,0,0,,4,,,76,127
95948,note_on,0,0,0,,1,,,73,127
96027,note_off,79,0,0,,4,,,76,127
96028,note_on,1,0,0,,6,,,78,127
96067,note_off,39,0,0,,6,,,78,127
96068,note_on,1,0,0,,8,,,80,127
96107,note_off,39,0,0,,8,,,80,127
96107,note_off,0,0,0,,1,,,73,127
96108,note_on,1,0,0,,6,,,78,127
96108,note_on,0,0,0,,10,,,69,127
96266,note_off,158,0,0,,6,,,78,127
96267,note_on,1,0,0,,4,,,76,127
96425,note_off,158,0,0,,4,,,76,127
96425,note_off,0,0,0,,10,,,69,127
96426,note_on,1,0,0,,3,,,75,127
96426,note_on,0,0,0,,12,,,71,127
96584,note_off,158,0,0,,12,,,71,127
96584,note_off,0,0,0,,3,,,75,127
96598,note_on,14,0,0,,8,,,68,127
96598,note_on,0,0,0,,12,,,83,127
96677,note_off,79,0,0,,12,,,83,127
96678,note_on,1,0,0,,10,,,81,127
96757,note_off,79,0,0,,10,,,81,127
96758,note_on,1,0,0,,8,,,80,127
96837,note_off,79,0,0,,8,,,80,127
96838,note_on,1,0,0,,6,,,78,127
96917,note_off,79,0,0,,6,,,78,127
96917,note_off,0,0,0,,8,,,68,127
96918,note_on,1,0,0,,1,,,73,127
96918,note_on,0,0,0,,4,,,76,127
96964,note_off,46,0,0,,4,,,76,127
96965,note_on,1,0,0,,6,,,78,127
97011,note_off,46,0,0,,6,,,78,127
97012,note_on,1,0,0,,8,,,80,127
97077,note_off,65,0,0,,8,,,80,127
97077,note_off,0,0,0,,1,,,73,127
97078,note_on,1,0,0,,10,,,69,127
97078,note_on,0,0,0,,6,,,78,127
97236,note_off,158,0,0,,6,,,78,127
97237,note_on,1,0,0,,4,,,76,127
97395,note_off,158,0,0,,4,,,76,127
97395,note_off,0,0,0,,10,,,69,127
97396,note_on,1,0,0,,12,,,71,127
97396,note_on,0,0,0,,3,,,75,127
97554,note_off,158,0,0,,12,,,71,127
97565,note_off,11,0,0,,3,,,75,127
97582,note_on,17,0,0,,12,,,83,127
97582,note_on,0,0,0,,4,,,52,127
97661,note_off,79,0,0,,12,,,83,127
97662,note_on,1,0,0,,10,,,81,127
97741,note_off,79,0,0,,10,,,81,127
97741,note_off,0,0,0,,4,,,52,127
97742,note_on,1,0,0,,8,,,80,127
97742,note_on,0,0,0,,4,,,64,127
97821,note_off,79,0,0,,8,,,80,127
97822,note_on,1,0,0,,6,,,78,127
97901,note_off,79,0,0,,6,,,78,127
97901,note_off,0,0,0,,4,,,64,127
97902,note_on,1,0,0,,4,,,76,127
97902,note_on,0,0,0,,8,,,68,127
97981,note_off,79,0,0,,4,,,76,127
97982,note_on,1,0,0,,8,,,80,127
98061,note_off,79,0,0,,8,,,80,127
98061,note_off,0,0,0,,8,,,68,127
98062,note_on,1,0,0,,6,,,78,127
98062,note_on,0,0,0,,12,,,47,127
98141,note_off,79,0,0,,6,,,78,127
98142,note_on,1,0,0,,4,,,76,127
98221,note_off,79,0,0,,4,,,76,127
98221,note_off,0,0,0,,12,,,47,127
98222,note_on,1,0,0,,3,,,75,127
98222,note_on,0,0,0,,12,,,59,127
98301,note_off,79,0,0,,3,,,75,127
98302,note_on,1,0,0,,1,,,73,127
98381,note_off,79,0,0,,1,,,73,127
98381,note_off,0,0,0,,12,,,59,127
98382,note_on,1,0,0,,12,,,71,127
98382,note_on,0,0,0,,3,,,63,127
98461,note_off,79,0,0,,12,,,71,127
98462,note_on,1,0,0,,10,,,69,127
98541,note_off,79,0,0,,10,,,69,127
98541,note_off,0,0,0,,3,,,63,127
98542,note_on,1,0,0,,12,,,83,127
98542,note_on,0,0,0,,4,,,52,127
98621,note_off,79,0,0,,12,,,83,127
98622,note_on,1,0,0,,10,,,81,127
98701,note_off,79,0,0,,10,,,81,127
98701,note_off,0,0,0,,4,,,52,127
98702,note_on,1,0,0,,8,,,80,127
98702,note_on,0,0,0,,4,,,64,127
98781,note_off,79,0,0,,8,,,80,127
98782,note_on,1,0,0,,6,,,78,127
98861,note_off,79,0,0,,6,,,78,127
98861,note_off,0,0,0,,4,,,64,127
98862,note_on,1,0,0,,4,,,76,127
98862,note_on,0,0,0,,8,,,68,127
98941,note_off,79,0,0,,4,,,76,127
98942,note_on,1,0,0,,8,,,80,127
99021,note_off,79,0,0,,8,,,80,127
99021,note_off,0,0,0,,8,,,68,127
99022,note_on,1,0,0,,6,,,78,127
99022,note_on,0,0,0,,12,,,47,127
99101,note_off,79,0,0,,6,,,78,127
99102,note_on,1,0,0,,4,,,76,127
99181,note_off,79,0,0,,4,,,76,127
99181,note_off,0,0,0,,12,,,47,127
99182,note_on,1,0,0,,3,,,75,127
99182,note_on,0,0,0,,12,,,59,127
99261,note_off,79,0,0,,3,,,75,127
99262,note_on,1,0,0,,1,,,73,127
99341,note_off,79,0,0,,1,,,73,127
99341,note_off,0,0,0,,12,,,59,127
99342,note_on,1,0,0,,12,,,71,127
99342,note_on,0,0,0,,3,,,63,127
99421,note_off,79,0,0,,12,,,71,127
99422,note_on,1,0,0,,10,,,69,127
99501,note_off,79,0,0,,10,,,69,127
99501,note_off,0,0,0,,3,,,63,127
99502,note_on,1,0,0,,12,,,83,127
99502,note_on,0,0,0,,4,,,52,127
99581,note_off,79,0,0,,12,,,83,127
99582,note_on,1,0,0,,10,,,81,127
99661,note_off,79,0,0,,10,,,81,127
99661,note_off,0,0,0,,4,,,52,127
99662,note_on,1,0,0,,8,,,80,127
99662,note_on,0,0,0,,4,,,64,127
99741,note_off,79,0,0,,8,,,80,127
99742,note_on,1,0,0,,6,,,78,127
99821,note_off,79,0,0,,6,,,78,127
99821,note_off,0,0,0,,4,,,64,127
99822,note_on,1,0,0,,4,,,76,127
99822,note_on,0,0,0,,8,,,68,127
99901,note_off,79,0,0,,4,,,76,127
99902,note_on,1,0,0,,8,,,80,127
99981,note_off,79,0,0,,8,,,80,127
99981,note_off,0,0,0,,8,,,68,127
99982,note_on,1,0,0,,6,,,78,127
99982,note_on,0,0,0,,12,,,47,127
100061,note_off,79,0,0,,6,,,78,127
100062,note_on,1,0,0,,4,,,76,127
100141,note_off,79,0,0,,4,,,76,127
100141,note_off,0,0,0,,12,,,47,127
100142,note_on,1,0,0,,3,,,75,127
100142,note_on,0,0,0,,12,,,59,127
100221,note_off,79,0,0,,3,,,75,127
100222,note_on,1,0,0,,1,,,73,127
100301,note_off,79,0,0,,1,,,73,127
100301,note_off,0,0,0,,12,,,59,127
100302,note_on,1,0,0,,12,,,71,127
100302,note_on,0,0,0,,3,,,63,127
100381,note_off,79,0,0,,12,,,71,127
100382,note_on,1,0,0,,10,,,69,127
100461,note_off,79,0,0,,10,,,69,127
100461,note_off,0,0,0,,3,,,63,127
100462,note_on,1,0,0,,8,,,68,127
100462,note_on,0,0,0,,4,,,64,127
100620,note_off,158,0,0,,8,,,68,127
100621,note_on,1,0,0,,12,,,71,127
100779,note_off,158,0,0,,12,,,71,127
100779,note_off,0,0,0,,4,,,64,127
100780,note_on,1,0,0,,8,,,80,127
100780,note_on,0,0,0,,8,,,56,127
100938,note_off,158,0,0,,8,,,56,127
100938,note_off,0,0,0,,8,,,80,127
100939,note_on,1,0,0,,8,,,80,127
100939,note_on,0,0,0,,10,,,57,127
100978,note_off,39,0,0,,8,,,80,127
100979,note_on,1,0,0,,6,,,78,127
101018,note_off,39,0,0,,6,,,78,127
101019,note_on,1,0,0,,8,,,80,127
101058,note_off,39,0,0,,8,,,80,127
101059,note_on,1,0,0,,6,,,78,127
101098,note_off,39,0,0,,6,,,78,127
101099,note_on,1,0,0,,4,,,76,127
101257,note_off,158,0,0,,4,,,76,127
101257,note_off,0,0,0,,10,,,57,127
101258,note_on,1,0,0,,3,,,75,127
101258,note_on,0,0,0,,12,,,59,127
101416,note_off,158,0,0,,12,,,59,127
101416,note_off,0,0,0,,3,,,75,127
101417,note_on,1,0,0,,4,,,76,127
101417,note_on,0,0,0,,4,,,40,127
101575,note_off,158,0,0,,4,,,40,127
101576,note_on,1,0,0,,4,,,64,127
101576,note_on,0,0,0,,4,,,52,127
101734,note_off,158,0,0,,4,,,52,127
101734,note_off,0,0,0,,4,,,64,127
101734,note_off,0,0,0,,4,,,76,127
101735,note_on,1,0,0,,4,,,76,127
101735,note_on,0,0,0,,8,,,56,127
101893,note_off,158,0,0,,8,,,56,127
101893,note_off,0,0,0,,4,,,76,127
101894,note_on,1,0,0,,3,,,75,127
101894,note_on,0,0,0,,12,,,47,127
101973,note_off,79,0,0,,3,,,75,127
101974,note_on,1,0,0,,1,,,73,127
102053,note_off,79,0,0,,1,,,73,127
102053,note_off,0,0,0,,12,,,47,127
102054,note_on,1,0,0,,12,,,71,127
102054,note_on,0,0,0,,12,,,59,127
102133,note_off,79,0,0,,12,,,71,127
102134,note_on,1,0,0,,10,,,69,127
102213,note_off,79,0,0,,10,,,69,127
102213,note_off,0,0,0,,12,,,59,127
102214,note_on,1,0,0,,8,,,68,127
102214,note_on,0,0,0,,3,,,63,127
102293,note_off,79,0,0,,8,,,68,127
102294,note_on,1,0,0,,6,,,66,127
102373,note_off,79,0,0,,6,,,66,127
102373,note_off,0,0,0,,3,,,63,127
102374,note_on,1,0,0,,8,,,68,127
102374,note_on,0,0,0,,4,,,40,127
102453,note_off,79,0,0,,8,,,68,127
102454,note_on,1,0,0,,4,,,64,127
102533,note_off,79,0,0,,4,,,64,127
102533,note_off,0,0,0,,4,,,40,127
102534,note_on,1,0,0,,8,,,68,127
102534,note_on,0,0,0,,4,,,52,127
102613,note_off,79,0,0,,8,,,68,127
102614,note_on,1,0,0,,12,,,71,127
102693,note_off,79,0,0,,12,,,71,127
102693,note_off,0,0,0,,4,,,52,127
102694,note_on,1,0,0,,4,,,76,127
102694,note_on,0,0,0,,8,,,56,127
102852,note_off,158,0,0,,8,,,56,127
102852,note_off,0,0,0,,4,,,76,127
102853,note_on,1,0,0,,3,,,75,127
102853,note_on,0,0,0,,12,,,47,127
102932,note_off,79,0,0,,3,,,75,127
102933,note_on,1,0,0,,1,,,73,127
103012,note_off,79,0,0,,1,,,73,127
103012,note_off,0,0,0,,12,,,47,127
103013,note_on,1,0,0,,12,,,71,127
103013,note_on,0,0,0,,12,,,59,127
103092,note_off,79,0,0,,12,,,71,127
103093,note_on,1,0,0,,10,,,69,127
103172,note_off,79,0,0,,10,,,69,127
103172,note_off,0,0,0,,12,,,59,127
103173,note_on,1,0,0,,8,,,68,127
103173,note_on,0,0,0,,3,,,63,127
103252,note_off,79,0,0,,8,,,68,127
103253,note_on,1,0,0,,6,,,66,127
103332,note_off,79,0,0,,6,,,66,127
103332,note_off,0,0,0,,3,,,63,127
103333,note_on,1,0,0,,8,,,68,127
103333,note_on,0,0,0,,4,,,40,127
103412,note_off,79,0,0,,8,,,68,127
103413,note_on,1,0,0,,4,,,64,127
103492,note_off,79,0,0,,4,,,64,127
103492,note_off,0,0,0,,4,,,40,127
103493,note_on,1,0,0,,8,,,68,127
103493,note_on,0,0,0,,4,,,52,127
103572,note_off,79,0,0,,8,,,68,127
103573,note_on,1,0,0,,12,,,71,127
103652,note_off,79,0,0,,12,,,71,127
103652,note_off,0,0,0,,4,,,52,127
103653,note_on,1,0,0,,4,,,76,127
103653,note_on,0,0,0,,8,,,56,127
103811,note_off,158,0,0,,8,,,56,127
103811,note_off,0,0,0,,4,,,76,127
103812,note_on,1,0,0,,12,,,47,127
103812,note_on,0,0,0,,3,,,75,127
103891,note_off,79,0,0,,3,,,75,127
103893,note_on,2,0,0,,1,,,73,127
103972,note_off,79,0,0,,1,,,73,127
103972,note_off,0,0,0,,12,,,47,127
103974,note_on,2,0,0,,12,,,59,127
103974,note_on,0,0,0,,12,,,71,127
104053,note_off,79,0,0,,12,,,71,127
104055,note_on,2,0,0,,10,,,69,127
104134,note_off,79,0,0,,10,,,69,127
104134,note_off,0,0,0,,12,,,59,127
104136,note_on,2,0,0,,3,,,63,127
104136,note_on,0,0,0,,8,,,68,127
104215,note_off,79,0,0,,8,,,68,127
104217,note_on,2,0,0,,6,,,66,127
104296,note_off,79,0,0,,6,,,66,127
104296,note_off,0,0,0,,3,,,63,127
104298,note_on,2,0,0,,4,,,64,127
104298,note_on,0,0,0,,8,,,68,127
104377,note_off,79,0,0,,8,,,68,127
104379,note_on,2,0,0,,10,,,69,127
104458,note_off,79,0,0,,10,,,69,127
104460,note_on,2,0,0,,12,,,71,127
104539,note_off,79,0,0,,12,,,71,127
104541,note_on,2,0,0,,8,,,68,127
104620,note_off,79,0,0,,8,,,68,127
104620,note_off,0,0,0,,4,,,64,127
104622,note_on,2,0,0,,8,,,56,127
104622,note_on,0,0,0,,6,,,66,127
104701,note_off,79,0,0,,6,,,66,127
104703,note_on,2,0,0,,4,,,64,127
104782,note_off,79,0,0,,4,,,64,127
104782,note_off,0,0,0,,8,,,56,127
104784,note_on,2,0,0,,10,,,57,127
104784,note_on,0,0,0,,6,,,66,127
104863,note_off,79,0,0,,6,,,66,127
104865,note_on,2,0,0,,8,,,68,127
104944,note_off,79,0,0,,8,,,68,127
104946,note_on,2,0,0,,10,,,69,127
105025,note_off,79,0,0,,10,,,69,127
105027,note_on,2,0,0,,6,,,66,127
105106,note_off,79,0,0,,6,,,66,127
105106,note_off,0,0,0,,10,,,57,127
105108,note_on,2,0,0,,12,,,59,127
105108,note_on,0,0,0,,4,,,64,127
105187,note_off,79,0,0,,4,,,64,127
105189,note_on,2,0,0,,3,,,63,127
105268,note_off,79,0,0,,3,,,63,127
105268,note_off,0,0,0,,12,,,59,127
105268,note_on,0,0,0,,4,,,52,127
105268,note_on,0,0,0,,4,,,64,127
105426,note_off,158,0,0,,4,,,52,127
105437,note_on,11,0,0,,6,,,54,127
105507,note_off,70,0,0,,4,,,64,127
105596,note_off,89,0,0,,6,,,54,127
105607,note_on,11,0,0,,12,,,71,127
105607,note_on,0,0,0,,8,,,56,127
105765,note_off,158,0,0,,8,,,56,127
105765,note_off,0,0,0,,12,,,71,127
105766,note_on,1,0,0,,1,,,73,127
105766,note_on,0,0,0,,10,,,57,127
105924,note_off,158,0,0,,1,,,73,127
105925,note_on,1,0,0,,10,,,69,127
106083,note_off,158,0,0,,10,,,69,127
106083,note_off,0,0,0,,10,,,57,127
106084,note_on,1,0,0,,3,,,75,127
106084,note_on,0,0,0,,6,,,54,127
106242,note_off,158,0,0,,6,,,54,127
106242,note_off,0,0,0,,3,,,75,127
106243,note_on,1,0,0,,4,,,76,127
106243,note_on,0,0,0,,8,,,56,127
106402,note_on,159,0,0,,12,,,83,127
106560,note_off,158,0,0,,12,,,83,127
106560,note_off,0,0,0,,8,,,56,127
106560,note_off,0,0,0,,4,,,76,127
106561,note_on,1,0,0,,4,,,76,127
106561,note_on,0,0,0,,1,,,61,127
106719,note_off,158,0,0,,1,,,61,127
106719,note_off,0,0,0,,4,,,76,127
106720,note_on,1,0,0,,8,,,80,127
106720,note_on,0,0,0,,10,,,57,127
106759,note_off,39,0,0,,8,,,80,127
106760,note_on,1,0,0,,6,,,78,127
106799,note_off,39,0,0,,6,,,78,127
106800,note_on,1,0,0,,8,,,80,127
106839,note_off,39,0,0,,8,,,80,127
106840,note_on,1,0,0,,6,,,78,127
106879,note_off,39,0,0,,6,,,78,127
106880,note_on,1,0,0,,4,,,76,127
107038,note_off,158,0,0,,4,,,76,127
107038,note_off,0,0,0,,10,,,57,127
107039,note_on,1,0,0,,3,,,75,127
107039,note_on,0,0,0,,12,,,59,127
107197,note_off,158,0,0,,12,,,59,127
107197,note_off,0,0,0,,3,,,75,127
107198,note_on,1,0,0,,4,,,76,127
107198,note_on,0,0,0,,4,,,52,127
107356,note_off,158,0,0,,4,,,52,127
107363,note_on,7,0,0,,6,,,54,127
107437,note_off,74,0,0,,4,,,76,127
107537,note_off,100,0,0,,6,,,54,127
107542,note_on,5,0,0,,8,,,56,127
107542,note_on,0,0,0,,12,,,59,127
107704,note_off,162,0,0,,12,,,59,127
107704,note_off,0,0,0,,8,,,56,127
107707,note_on,3,0,0,,10,,,45,127
107707,note_on,0,0,0,,1,,,61,127
107869,note_off,162,0,0,,1,,,61,127
107871,note_on,2,0,0,,10,,,57,127
108032,note_off,161,0,0,,10,,,45,127
108033,note_off,1,0,0,,10,,,57,127
108036,note_on,3,0,0,,6,,,42,127
108036,note_on,0,0,0,,3,,,63,127
108198,note_off,162,0,0,,3,,,63,127
108198,note_off,0,0,0,,6,,,42,127
108201,note_on,3,0,0,,8,,,44,127
108201,note_on,0,0,0,,4,,,64,127
108368,note_on,167,0,0,,12,,,71,127
108527,note_off,159,0,0,,4,,,64,127
108527,note_off,0,0,0,,8,,,44,127
108533,note_off,6,0,0,,12,,,71,127
108537,note_on,4,0,0,,4,,,64,127
108537,note_on,0,0,0,,1,,,49,127
108702,note_off,165,0,0,,1,,,49,127
108702,note_off,0,0,0,,4,,,64,127
108706,note_on,4,0,0,,8,,,68,127
108706,note_on,0,0,0,,10,,,45,127
108746,note_off,40,0,0,,8,,,68,127
108750,note_on,4,0,0,,6,,,66,127
108790,note_off,40,0,0,,6,,,66,127
108794,note_on,4,0,0,,8,,,68,127
108834,note_off,40,0,0,,8,,,68,127
108838,note_on,4,0,0,,6,,,66,127
108878,note_off,40,0,0,,6,,,66,127
108879,note_on,1,0,0,,4,,,64,127
109056,note_off,177,0,0,,4,,,64,127
109069,note_off,13,0,0,,10,,,45,127
109072,note_on,3,0,0,,12,,,47,127
109072,note_on,0,0,0,,3,,,63,127
109262,note_off,190,0,0,,3,,,63,127
109262,note_off,0,0,0,,12,,,47,127
109293,note_on,31,0,0,,4,,,40,127
109293,note_on,0,0,0,,3,,,63,127
110215,note_on,922,0,0,,4,,,64,127
110220,note_off,5,0,0,,3,,,63,127
111588,note_off,1368,0,0,,4,,,40,127
111597,note_off,9,0,0,,4,,,64,127
113664,end_of_track,2067,1,0,,,,,,
