tick,type,time,meta,track,program,channel,pitch,tempo,note,velocity
0,copyright,0,1,0,,,,,,
0,program_change,0,0,0,6,0,,,,
0,pitchwheel,0,0,0,,0,0,,,
0,program_change,0,0,0,6,1,,,,
0,pitchwheel,0,0,0,,1,-590,,,
0,program_change,0,0,0,6,2,,,,
0,pitchwheel,0,0,0,,2,-272,,,
0,program_change,0,0,0,6,3,,,,
0,pitchwheel,0,0,0,,3,-353,,,
0,program_change,0,0,0,6,4,,,,
0,pitchwheel,0,0,0,,4,-560,,,
0,program_change,0,0,0,6,5,,,,
0,pitchwheel,0,0,0,,5,-80,,,
0,program_change,0,0,0,6,6,,,,
0,pitchwheel,0,0,0,,6,-625,,,
0,program_change,0,0,0,6,7,,,,
0,pitchwheel,0,0,0,,7,-130,,,
0,program_change,0,0,0,6,8,,,,
0,pitchwheel,0,0,0,,8,-512,,,
0,program_change,0,0,0,6,10,,,,
0,pitchwheel,0,0,0,,10,-464,,,
0,program_change,0,0,0,6,11,,,,
0,pitchwheel,0,0,0,,11,-208,,,
0,program_change,0,0,0,6,12,,,,
0,pitchwheel,0,0,0,,12,-553,,,
0,set_tempo,0,1,0,,,,500000,,
110,note_on,110,0,0,,8,,,80,127
110,note_on,0,0,0,,12,,,83,127
329,note_on,219,0,0,,12,,,71,127
329,note_on,0,0,0,,8,,,68,127
546,note_off,217,0,0,,8,,,68,127
546,note_off,0,0,0,,12,,,71,127
547,note_off,1,0,0,,12,,,83,127
547,note_off,0,0,0,,8,,,80,127
548,note_on,1,0,0,,6,,,66,127
548,note_on,0,0,0,,10,,,69,127
767,note_on,219,0,0,,4,,,76,127
767,note_on,0,0,0,,8,,,80,127
877,note_off,110,0,0,,10,,,69,127
877,note_off,0,0,0,,6,,,66,127
987,note_on,110,0,0,,8,,,68,127
987,note_on,0,0,0,,4,,,64,127
1204,note_off,217,0,0,,4,,,64,127
1204,note_off,0,0,0,,8,,,68,127
1205,note_off,1,0,0,,8,,,80,127
1205,note_off,0,0,0,,4,,,76,127
1206,note_on,1,0,0,,3,,,63,127
1206,note_on,0,0,0,,6,,,66,127
1425,note_on,219,0,0,,4,,,76,127
1425,note_on,0,0,0,,1,,,73,127
1535,note_off,110,0,0,,6,,,66,127
1535,note_off,0,0,0,,3,,,63,127
1645,note_on,110,0,0,,1,,,61,127
1645,note_on,0,0,0,,4,,,64,127
1862,note_off,217,0,0,,4,,,64,127
1862,note_off,0,0,0,,1,,,61,127
1863,note_off,1,0,0,,1,,,73,127
1863,note_off,0,0,0,,4,,,76,127
1864,note_on,1,0,0,,3,,,63,127
1864,note_on,0,0,0,,12,,,59,127
2081,note_off,217,0,0,,12,,,59,127
2081,note_off,0,0,0,,3,,,63,127
2083,note_on,2,0,0,,10,,,57,127
2193,note_on,110,0,0,,1,,,73,127
2300,note_off,107,0,0,,1,,,73,127
2300,note_off,0,0,0,,10,,,57,127
2302,note_on,2,0,0,,8,,,56,127
2302,note_on,0,0,0,,12,,,71,127
2409,note_off,107,0,0,,12,,,71,127
2411,note_on,2,0,0,,4,,,76,127
2518,note_off,107,0,0,,4,,,76,127
2518,note_off,0,0,0,,8,,,56,127
2520,note_on,2,0,0,,6,,,54,127
2520,note_on,0,0,0,,10,,,69,127
2627,note_off,107,0,0,,10,,,69,127
2629,note_on,2,0,0,,6,,,78,127
2736,note_off,107,0,0,,6,,,78,127
2736,note_off,0,0,0,,6,,,54,127
2738,note_on,2,0,0,,4,,,52,127
2738,note_on,0,0,0,,8,,,80,127
2845,note_off,107,0,0,,8,,,80,127
2847,note_on,2,0,0,,4,,,76,127
2954,note_off,107,0,0,,4,,,76,127
2956,note_on,2,0,0,,12,,,71,127
3063,note_off,107,0,0,,12,,,71,127
3065,note_on,2,0,0,,8,,,68,127
3172,note_off,107,0,0,,8,,,68,127
3172,note_off,0,0,0,,4,,,52,127
3174,note_on,2,0,0,,4,,,40,127
3174,note_on,0,0,0,,4,,,64,127
3391,note_off,217,0,0,,4,,,64,127
3393,note_on,2,0,0,,12,,,83,127
3393,note_on,0,0,0,,8,,,80,127
3610,note_off,217,0,0,,4,,,40,127
3612,note_on,2,0,0,,8,,,68,127
3612,note_on,0,0,0,,12,,,71,127
3829,note_off,217,0,0,,12,,,71,127
3829,note_off,0,0,0,,8,,,68,127
3830,note_off,1,0,0,,8,,,80,127
3830,note_off,0,0,0,,12,,,83,127
3831,note_on,1,0,0,,10,,,69,127
3831,note_on,0,0,0,,6,,,66,127
4050,note_on,219,0,0,,8,,,80,127
4050,note_on,0,0,0,,4,,,76,127
4160,note_off,110,0,0,,6,,,66,127
4160,note_off,0,0,0,,10,,,69,127
4270,note_on,110,0,0,,8,,,68,127
4270,note_on,0,0,0,,4,,,64,127
4487,note_off,217,0,0,,4,,,64,127
4487,note_off,0,0,0,,8,,,68,127
4488,note_off,1,0,0,,4,,,76,127
4488,note_off,0,0,0,,8,,,80,127
4489,note_on,1,0,0,,6,,,66,127
4489,note_on,0,0,0,,3,,,63,127
4708,note_on,219,0,0,,1,,,73,127
4708,note_on,0,0,0,,4,,,76,127
4818,note_off,110,0,0,,3,,,63,127
4818,note_off,0,0,0,,6,,,66,127
4928,note_on,110,0,0,,1,,,61,127
4928,note_on,0,0,0,,4,,,64,127
5145,note_off,217,0,0,,4,,,64,127
5145,note_off,0,0,0,,1,,,61,127
5146,note_off,1,0,0,,4,,,76,127
5146,note_off,0,0,0,,1,,,73,127
5147,note_on,1,0,0,,3,,,63,127
5147,note_on,0,0,0,,12,,,59,127
5364,note_off,217,0,0,,12,,,59,127
5364,note_off,0,0,0,,3,,,63,127
5366,note_on,2,0,0,,10,,,57,127
5476,note_on,110,0,0,,1,,,73,127
5583,note_off,107,0,0,,1,,,73,127
5583,note_off,0,0,0,,10,,,57,127
5585,note_on,2,0,0,,8,,,56,127
5585,note_on,0,0,0,,12,,,71,127
5692,note_off,107,0,0,,12,,,71,127
5694,note_on,2,0,0,,4,,,76,127
5801,note_off,107,0,0,,4,,,76,127
5801,note_off,0,0,0,,8,,,56,127
5803,note_on,2,0,0,,6,,,54,127
5803,note_on,0,0,0,,10,,,69,127
5910,note_off,107,0,0,,10,,,69,127
5912,note_on,2,0,0,,6,,,78,127
6019,note_off,107,0,0,,6,,,78,127
6019,note_off,0,0,0,,6,,,54,127
6021,note_on,2,0,0,,4,,,52,127
6021,note_on,0,0,0,,8,,,80,127
6128,note_off,107,0,0,,8,,,80,127
6130,note_on,2,0,0,,4,,,76,127
6237,note_off,107,0,0,,4,,,76,127
6239,note_on,2,0,0,,12,,,71,127
6346,note_off,107,0,0,,12,,,71,127
6348,note_on,2,0,0,,8,,,68,127
6455,note_off,107,0,0,,8,,,68,127
6457,note_on,2,0,0,,4,,,64,127
6564,note_off,107,0,0,,4,,,64,127
6566,note_on,2,0,0,,12,,,59,127
6673,note_off,107,0,0,,12,,,59,127
6673,note_off,0,0,0,,4,,,52,127
6675,note_on,2,0,0,,4,,,40,127
6785,note_on,110,0,0,,12,,,59,127
6892,note_off,107,0,0,,12,,,59,127
6892,note_off,0,0,0,,4,,,40,127
6894,note_on,2,0,0,,12,,,59,127
6894,note_on,0,0,0,,8,,,56,127
6894,note_on,0,0,0,,4,,,64,127
7001,note_off,107,0,0,,4,,,64,127
7003,note_on,2,0,0,,8,,,68,127
7110,note_off,107,0,0,,8,,,68,127
7110,note_off,0,0,0,,8,,,56,127
7110,note_off,0,0,0,,12,,,59,127
7112,note_on,2,0,0,,8,,,56,127
7112,note_on,0,0,0,,4,,,52,127
7112,note_on,0,0,0,,12,,,71,127
7219,note_off,107,0,0,,12,,,71,127
7221,note_on,2,0,0,,4,,,76,127
7328,note_off,107,0,0,,4,,,76,127
7328,note_off,0,0,0,,4,,,52,127
7328,note_off,0,0,0,,8,,,56,127
7330,note_on,2,0,0,,6,,,54,127
7330,note_on,0,0,0,,10,,,57,127
7330,note_on,0,0,0,,4,,,76,127
7547,note_off,217,0,0,,4,,,76,127
7547,note_off,0,0,0,,10,,,57,127
7547,note_off,0,0,0,,6,,,54,127
7549,note_on,2,0,0,,6,,,54,127
7549,note_on,0,0,0,,10,,,57,127
7549,note_on,0,0,0,,3,,,75,127
7766,note_off,217,0,0,,3,,,75,127
7766,note_off,0,0,0,,10,,,57,127
7766,note_off,0,0,0,,6,,,54,127
7768,note_on,2,0,0,,6,,,54,127
7768,note_on,0,0,0,,10,,,57,127
7768,note_on,0,0,0,,6,,,78,127
7985,note_off,217,0,0,,10,,,57,127
7985,note_off,0,0,0,,6,,,54,127
7986,note_off,1,0,0,,6,,,78,127
7987,note_on,1,0,0,,12,,,59,127
7987,note_on,0,0,0,,8,,,56,127
8097,note_on,110,0,0,,4,,,64,127
8204,note_off,107,0,0,,4,,,64,127
8204,note_off,0,0,0,,8,,,56,127
8204,note_off,0,0,0,,12,,,59,127
8206,note_on,2,0,0,,8,,,56,127
8206,note_on,0,0,0,,12,,,59,127
8206,note_on,0,0,0,,8,,,68,127
8313,note_off,107,0,0,,8,,,68,127
8315,note_on,2,0,0,,12,,,71,127
8422,note_off,107,0,0,,12,,,71,127
8422,note_off,0,0,0,,12,,,59,127
8422,note_off,0,0,0,,8,,,56,127
8424,note_on,2,0,0,,12,,,59,127
8424,note_on,0,0,0,,8,,,56,127
8424,note_on,0,0,0,,4,,,76,127
8531,note_off,107,0,0,,4,,,76,127
8533,note_on,2,0,0,,8,,,80,127
8640,note_off,107,0,0,,8,,,80,127
8640,note_off,0,0,0,,8,,,56,127
8640,note_off,0,0,0,,12,,,59,127
8642,note_on,2,0,0,,10,,,57,127
8642,note_on,0,0,0,,8,,,80,127
8859,note_off,217,0,0,,8,,,80,127
8861,note_on,2,0,0,,6,,,78,127
9078,note_off,217,0,0,,6,,,78,127
9078,note_off,0,0,0,,10,,,57,127
9080,note_on,2,0,0,,10,,,69,127
9080,note_on,0,0,0,,1,,,85,127
9297,note_off,217,0,0,,1,,,85,127
9297,note_off,0,0,0,,10,,,69,127
9299,note_on,2,0,0,,10,,,69,127
9299,note_on,0,0,0,,12,,,71,127
9299,note_on,0,0,0,,4,,,76,127
9352,note_off,53,0,0,,4,,,76,127
9354,note_on,2,0,0,,3,,,75,127
9407,note_off,53,0,0,,3,,,75,127
9409,note_on,2,0,0,,1,,,73,127
9462,note_off,53,0,0,,1,,,73,127
9464,note_on,2,0,0,,3,,,75,127
9517,note_off,53,0,0,,3,,,75,127
9517,note_off,0,0,0,,10,,,69,127
9519,note_on,2,0,0,,8,,,68,127
9519,note_on,0,0,0,,4,,,76,127
9736,note_off,217,0,0,,4,,,76,127
9736,note_off,0,0,0,,8,,,68,127
9738,note_on,2,0,0,,4,,,64,127
9738,note_on,0,0,0,,8,,,80,127
9809,note_off,71,0,0,,8,,,80,127
9811,note_on,2,0,0,,10,,,81,127
9882,note_off,71,0,0,,10,,,81,127
9884,note_on,2,0,0,,12,,,83,127
9955,note_off,71,0,0,,4,,,64,127
9956,note_off,1,0,0,,12,,,71,127
9957,note_on,1,0,0,,6,,,66,127
9957,note_on,0,0,0,,12,,,71,127
10010,note_off,53,0,0,,12,,,83,127
10012,note_on,2,0,0,,10,,,81,127
10065,note_off,53,0,0,,10,,,81,127
10067,note_on,2,0,0,,12,,,83,127
10120,note_off,53,0,0,,12,,,83,127
10122,note_on,2,0,0,,10,,,81,127
10175,note_off,53,0,0,,10,,,81,127
10175,note_off,0,0,0,,6,,,66,127
10177,note_on,2,0,0,,3,,,63,127
10177,note_on,0,0,0,,12,,,83,127
10230,note_off,53,0,0,,12,,,83,127
10232,note_on,2,0,0,,10,,,81,127
10285,note_off,53,0,0,,10,,,81,127
10287,note_on,2,0,0,,12,,,83,127
10340,note_off,53,0,0,,12,,,83,127
10342,note_on,2,0,0,,10,,,81,127
10395,note_off,53,0,0,,10,,,81,127
10395,note_off,0,0,0,,3,,,63,127
10397,note_on,2,0,0,,4,,,64,127
10397,note_on,0,0,0,,8,,,80,127
10614,note_off,217,0,0,,8,,,80,127
10614,note_off,0,0,0,,4,,,64,127
10615,note_off,1,0,0,,12,,,71,127
10616,note_on,1,0,0,,10,,,69,127
10616,note_on,0,0,0,,12,,,71,127
10616,note_on,0,0,0,,8,,,80,127
10669,note_off,53,0,0,,8,,,80,127
10671,note_on,2,0,0,,6,,,78,127
10724,note_off,53,0,0,,6,,,78,127
10726,note_on,2,0,0,,4,,,76,127
10779,note_off,53,0,0,,4,,,76,127
10781,note_on,2,0,0,,6,,,78,127
10834,note_off,53,0,0,,6,,,78,127
10834,note_off,0,0,0,,10,,,69,127
10836,note_on,2,0,0,,8,,,68,127
10836,note_on,0,0,0,,4,,,76,127
11053,note_off,217,0,0,,4,,,76,127
11053,note_off,0,0,0,,8,,,68,127
11055,note_on,2,0,0,,4,,,64,127
11055,note_on,0,0,0,,8,,,80,127
11126,note_off,71,0,0,,8,,,80,127
11128,note_on,2,0,0,,10,,,81,127
11199,note_off,71,0,0,,10,,,81,127
11201,note_on,2,0,0,,12,,,83,127
11272,note_off,71,0,0,,4,,,64,127
11273,note_off,1,0,0,,12,,,71,127
11274,note_on,1,0,0,,6,,,66,127
11274,note_on,0,0,0,,12,,,71,127
11327,note_off,53,0,0,,12,,,83,127
11329,note_on,2,0,0,,10,,,81,127
11382,note_off,53,0,0,,10,,,81,127
11384,note_on,2,0,0,,12,,,83,127
11437,note_off,53,0,0,,12,,,83,127
11439,note_on,2,0,0,,10,,,81,127
11492,note_off,53,0,0,,10,,,81,127
11492,note_off,0,0,0,,6,,,66,127
11494,note_on,2,0,0,,3,,,63,127
11494,note_on,0,0,0,,12,,,83,127
11547,note_off,53,0,0,,12,,,83,127
11549,note_on,2,0,0,,10,,,81,127
11602,note_off,53,0,0,,10,,,81,127
11604,note_on,2,0,0,,12,,,83,127
11657,note_off,53,0,0,,12,,,83,127
11659,note_on,2,0,0,,10,,,81,127
11712,note_off,53,0,0,,10,,,81,127
11712,note_off,0,0,0,,3,,,63,127
11714,note_on,2,0,0,,4,,,64,127
11714,note_on,0,0,0,,8,,,80,127
11931,note_off,217,0,0,,8,,,80,127
11931,note_off,0,0,0,,4,,,64,127
11932,note_off,1,0,0,,12,,,71,127
11933,note_on,1,0,0,,12,,,59,127
11933,note_on,0,0,0,,8,,,80,127
12096,note_off,163,0,0,,8,,,80,127
12097,note_on,1,0,0,,6,,,78,127
12152,note_on,55,0,0,,12,,,47,127
12262,note_off,110,0,0,,6,,,78,127
12367,note_off,105,0,0,,12,,,59,127
12372,note_on,5,0,0,,7,,,79,127
12479,note_off,107,0,0,,7,,,79,127
12481,note_on,2,0,0,,4,,,76,127
12588,note_off,107,0,0,,4,,,76,127
12589,note_off,1,0,0,,12,,,47,127
12590,note_on,1,0,0,,4,,,76,127
12590,note_on,0,0,0,,6,,,66,127
12807,note_off,217,0,0,,6,,,66,127
12807,note_off,0,0,0,,4,,,76,127
12809,note_on,2,0,0,,6,,,54,127
12809,note_on,0,0,0,,4,,,64,127
12809,note_on,0,0,0,,6,,,78,127
12862,note_off,53,0,0,,4,,,64,127
12864,note_on,2,0,0,,2,,,62,127
12917,note_off,53,0,0,,2,,,62,127
12919,note_on,2,0,0,,4,,,64,127
12972,note_off,53,0,0,,4,,,64,127
12974,note_on,2,0,0,,2,,,62,127
13027,note_off,53,0,0,,2,,,62,127
13029,note_on,2,0,0,,1,,,61,127
13246,note_off,217,0,0,,1,,,61,127
13247,note_off,1,0,0,,6,,,54,127
13248,note_on,1,0,0,,2,,,62,127
13248,note_on,0,0,0,,12,,,59,127
13465,note_off,217,0,0,,12,,,59,127
13465,note_off,0,0,0,,6,,,78,127
13467,note_on,2,0,0,,10,,,57,127
13467,note_on,0,0,0,,12,,,83,127
13467,note_on,0,0,0,,12,,,71,127
13684,note_off,217,0,0,,12,,,71,127
13684,note_off,0,0,0,,12,,,83,127
13684,note_off,0,0,0,,10,,,57,127
13685,note_off,1,0,0,,2,,,62,127
13686,note_on,1,0,0,,7,,,55,127
13686,note_on,0,0,0,,12,,,59,127
13686,note_on,0,0,0,,4,,,64,127
13686,note_on,0,0,0,,1,,,85,127
13686,note_on,0,0,0,,1,,,73,127
13903,note_off,217,0,0,,1,,,73,127
13903,note_off,0,0,0,,1,,,85,127
13903,note_off,0,0,0,,12,,,59,127
13903,note_off,0,0,0,,7,,,55,127
13905,note_on,2,0,0,,6,,,54,127
13905,note_on,0,0,0,,11,,,58,127
13905,note_on,0,0,0,,6,,,66,127
13905,note_on,0,0,0,,6,,,78,127
14123,note_off,218,0,0,,4,,,64,127
14124,note_on,1,0,0,,4,,,64,127
14177,note_off,53,0,0,,4,,,64,127
14179,note_on,2,0,0,,2,,,62,127
14232,note_off,53,0,0,,2,,,62,127
14234,note_on,2,0,0,,4,,,64,127
14287,note_off,53,0,0,,4,,,64,127
14289,note_on,2,0,0,,2,,,62,127
14342,note_off,53,0,0,,2,,,62,127
14343,note_off,1,0,0,,11,,,58,127
14343,note_off,0,0,0,,6,,,54,127
14344,note_on,1,0,0,,1,,,61,127
14561,note_off,217,0,0,,1,,,61,127
14563,note_on,2,0,0,,12,,,59,127
14563,note_on,0,0,0,,2,,,62,127
14780,note_off,217,0,0,,12,,,59,127
14782,note_on,2,0,0,,10,,,57,127
14999,note_off,217,0,0,,10,,,57,127
14999,note_off,0,0,0,,6,,,78,127
14999,note_off,0,0,0,,6,,,66,127
15000,note_off,1,0,0,,2,,,62,127
15001,note_on,1,0,0,,7,,,55,127
15001,note_on,0,0,0,,4,,,64,127
15001,note_on,0,0,0,,12,,,59,127
15001,note_on,0,0,0,,12,,,71,127
15001,note_on,0,0,0,,12,,,83,127
15218,note_off,217,0,0,,12,,,83,127
15218,note_off,0,0,0,,12,,,71,127
15218,note_off,0,0,0,,12,,,59,127
15218,note_off,0,0,0,,4,,,64,127
15218,note_off,0,0,0,,7,,,55,127
15220,note_on,2,0,0,,6,,,54,127
15220,note_on,0,0,0,,11,,,58,127
15220,note_on,0,0,0,,4,,,64,127
15220,note_on,0,0,0,,1,,,85,127
15220,note_on,0,0,0,,1,,,73,127
15437,note_off,217,0,0,,1,,,73,127
15437,note_off,0,0,0,,1,,,85,127
15437,note_off,0,0,0,,4,,,64,127
15437,note_off,0,0,0,,11,,,58,127
15437,note_off,0,0,0,,6,,,54,127
15439,note_on,2,0,0,,12,,,59,127
15439,note_on,0,0,0,,6,,,54,127
15439,note_on,0,0,0,,2,,,74,127
15439,note_on,0,0,0,,2,,,86,127
15656,note_off,217,0,0,,2,,,86,127
15656,note_off,0,0,0,,2,,,74,127
15656,note_off,0,0,0,,12,,,59,127
15658,note_on,2,0,0,,1,,,61,127
15658,note_on,0,0,0,,1,,,73,127
15658,note_on,0,0,0,,1,,,85,127
15875,note_off,217,0,0,,1,,,85,127
15875,note_off,0,0,0,,1,,,73,127
15875,note_off,0,0,0,,1,,,61,127
15876,note_off,1,0,0,,6,,,54,127
15877,note_on,1,0,0,,6,,,54,127
15877,note_on,0,0,0,,2,,,62,127
15877,note_on,0,0,0,,12,,,83,127
15877,note_on,0,0,0,,12,,,71,127
16094,note_off,217,0,0,,12,,,71,127
16094,note_off,0,0,0,,12,,,83,127
16096,note_on,2,0,0,,10,,,69,127
16096,note_on,0,0,0,,10,,,81,127
16313,note_off,217,0,0,,10,,,81,127
16313,note_off,0,0,0,,10,,,69,127
16313,note_off,0,0,0,,2,,,62,127
16313,note_off,0,0,0,,6,,,54,127
16315,note_on,2,0,0,,4,,,64,127
16315,note_on,0,0,0,,6,,,54,127
16315,note_on,0,0,0,,7,,,79,127
16315,note_on,0,0,0,,7,,,67,127
16532,note_off,217,0,0,,7,,,67,127
16532,note_off,0,0,0,,7,,,79,127
16532,note_off,0,0,0,,6,,,54,127
16532,note_off,0,0,0,,4,,,64,127
16534,note_on,2,0,0,,6,,,54,127
16534,note_on,0,0,0,,6,,,66,127
16534,note_on,0,0,0,,6,,,78,127
16751,note_off,217,0,0,,6,,,78,127
16751,note_off,0,0,0,,6,,,66,127
16751,note_off,0,0,0,,6,,,54,127
16753,note_on,2,0,0,,6,,,54,127
16753,note_on,0,0,0,,12,,,59,127
16753,note_on,0,0,0,,2,,,86,127
16753,note_on,0,0,0,,6,,,78,127
16970,note_off,217,0,0,,6,,,78,127
16970,note_off,0,0,0,,2,,,86,127
16970,note_off,0,0,0,,12,,,59,127
16972,note_on,2,0,0,,1,,,61,127
16972,note_on,0,0,0,,4,,,76,127
16972,note_on,0,0,0,,1,,,85,127
17189,note_off,217,0,0,,1,,,85,127
17189,note_off,0,0,0,,4,,,76,127
17189,note_off,0,0,0,,1,,,61,127
17190,note_off,1,0,0,,6,,,54,127
17191,note_on,1,0,0,,6,,,54,127
17191,note_on,0,0,0,,2,,,62,127
17191,note_on,0,0,0,,12,,,83,127
17191,note_on,0,0,0,,2,,,74,127
17408,note_off,217,0,0,,2,,,74,127
17408,note_off,0,0,0,,12,,,83,127
17410,note_on,2,0,0,,10,,,81,127
17410,note_on,0,0,0,,1,,,73,127
17627,note_off,217,0,0,,1,,,73,127
17627,note_off,0,0,0,,10,,,81,127
17627,note_off,0,0,0,,2,,,62,127
17627,note_off,0,0,0,,6,,,54,127
17629,note_on,2,0,0,,6,,,54,127
17629,note_on,0,0,0,,4,,,64,127
17629,note_on,0,0,0,,12,,,71,127
17629,note_on,0,0,0,,7,,,79,127
17846,note_off,217,0,0,,7,,,79,127
17846,note_off,0,0,0,,12,,,71,127
17846,note_off,0,0,0,,4,,,64,127
17846,note_off,0,0,0,,6,,,54,127
17848,note_on,2,0,0,,6,,,66,127
17848,note_on,0,0,0,,6,,,54,127
17848,note_on,0,0,0,,11,,,70,127
17848,note_on,0,0,0,,6,,,78,127
18065,note_off,217,0,0,,6,,,78,127
18065,note_off,0,0,0,,11,,,70,127
18065,note_off,0,0,0,,6,,,54,127
18065,note_off,0,0,0,,6,,,66,127
18067,note_on,2,0,0,,6,,,54,127
18067,note_on,0,0,0,,12,,,59,127
18067,note_on,0,0,0,,2,,,86,127
18067,note_on,0,0,0,,6,,,78,127
18284,note_off,217,0,0,,6,,,78,127
18284,note_off,0,0,0,,2,,,86,127
18284,note_off,0,0,0,,12,,,59,127
18286,note_on,2,0,0,,1,,,61,127
18286,note_on,0,0,0,,4,,,76,127
18286,note_on,0,0,0,,1,,,85,127
18503,note_off,217,0,0,,1,,,85,127
18503,note_off,0,0,0,,4,,,76,127
18503,note_off,0,0,0,,1,,,61,127
18504,note_off,1,0,0,,6,,,54,127
18505,note_on,1,0,0,,6,,,54,127
18505,note_on,0,0,0,,2,,,62,127
18505,note_on,0,0,0,,12,,,83,127
18505,note_on,0,0,0,,2,,,74,127
18722,note_off,217,0,0,,2,,,74,127
18722,note_off,0,0,0,,12,,,83,127
18724,note_on,2,0,0,,10,,,81,127
18724,note_on,0,0,0,,1,,,73,127
18941,note_off,217,0,0,,1,,,73,127
18941,note_off,0,0,0,,10,,,81,127
18941,note_off,0,0,0,,2,,,62,127
18941,note_off,0,0,0,,6,,,54,127
18943,note_on,2,0,0,,6,,,54,127
18943,note_on,0,0,0,,4,,,64,127
18943,note_on,0,0,0,,7,,,79,127
18943,note_on,0,0,0,,12,,,71,127
19160,note_off,217,0,0,,12,,,71,127
19160,note_off,0,0,0,,7,,,79,127
19160,note_off,0,0,0,,4,,,64,127
19160,note_off,0,0,0,,6,,,54,127
19162,note_on,2,0,0,,6,,,54,127
19162,note_on,0,0,0,,6,,,78,127
19162,note_on,0,0,0,,11,,,70,127
19269,note_off,107,0,0,,6,,,54,127
19271,note_on,2,0,0,,6,,,66,127
19378,note_off,107,0,0,,6,,,66,127
19380,note_on,2,0,0,,6,,,66,127
19487,note_off,107,0,0,,6,,,66,127
19489,note_on,2,0,0,,4,,,64,127
19596,note_off,107,0,0,,4,,,64,127
19597,note_off,1,0,0,,11,,,70,127
19597,note_off,0,0,0,,6,,,78,127
19598,note_on,1,0,0,,4,,,64,127
19705,note_off,107,0,0,,4,,,64,127
19707,note_on,2,0,0,,3,,,63,127
19814,note_off,107,0,0,,3,,,63,127
19816,note_on,2,0,0,,3,,,63,127
19816,note_on,0,0,0,,6,,,78,127
19923,note_off,107,0,0,,6,,,78,127
19925,note_on,2,0,0,,4,,,76,127
20032,note_off,107,0,0,,4,,,76,127
20032,note_off,0,0,0,,3,,,63,127
20034,note_on,2,0,0,,1,,,61,127
20034,note_on,0,0,0,,4,,,76,127
20141,note_off,107,0,0,,4,,,76,127
20143,note_on,2,0,0,,3,,,75,127
20250,note_off,107,0,0,,3,,,75,127
20250,note_off,0,0,0,,1,,,61,127
20252,note_on,2,0,0,,12,,,59,127
20252,note_on,0,0,0,,3,,,75,127
20359,note_off,107,0,0,,3,,,75,127
20361,note_on,2,0,0,,1,,,73,127
20468,note_off,107,0,0,,1,,,73,127
20468,note_off,0,0,0,,12,,,59,127
20470,note_on,2,0,0,,6,,,54,127
20470,note_on,0,0,0,,3,,,75,127
20523,note_off,53,0,0,,3,,,75,127
20525,note_on,2,0,0,,1,,,73,127
20578,note_off,53,0,0,,1,,,73,127
20578,note_off,0,0,0,,6,,,54,127
20580,note_on,2,0,0,,6,,,66,127
20580,note_on,0,0,0,,3,,,75,127
20633,note_off,53,0,0,,3,,,75,127
20635,note_on,2,0,0,,1,,,73,127
20688,note_off,53,0,0,,1,,,73,127
20688,note_off,0,0,0,,6,,,66,127
20690,note_on,2,0,0,,6,,,66,127
20690,note_on,0,0,0,,3,,,75,127
20743,note_off,53,0,0,,3,,,75,127
20745,note_on,2,0,0,,1,,,73,127
20798,note_off,53,0,0,,6,,,66,127
20800,note_on,2,0,0,,4,,,64,127
20907,note_off,107,0,0,,4,,,64,127
20909,note_on,2,0,0,,4,,,64,127
20963,note_off,54,0,0,,1,,,73,127
21017,note_off,54,0,0,,4,,,64,127
21019,note_on,2,0,0,,3,,,63,127
21126,note_off,107,0,0,,3,,,63,127
21128,note_on,2,0,0,,3,,,63,127
21128,note_on,0,0,0,,6,,,78,127
21235,note_off,107,0,0,,6,,,78,127
21237,note_on,2,0,0,,4,,,76,127
21344,note_off,107,0,0,,4,,,76,127
21344,note_off,0,0,0,,3,,,63,127
21346,note_on,2,0,0,,1,,,61,127
21346,note_on,0,0,0,,4,,,76,127
21453,note_off,107,0,0,,4,,,76,127
21455,note_on,2,0,0,,3,,,75,127
21562,note_off,107,0,0,,3,,,75,127
21562,note_off,0,0,0,,1,,,61,127
21564,note_on,2,0,0,,12,,,59,127
21564,note_on,0,0,0,,3,,,75,127
21671,note_off,107,0,0,,3,,,75,127
21673,note_on,2,0,0,,1,,,73,127
21780,note_off,107,0,0,,1,,,73,127
21780,note_off,0,0,0,,12,,,59,127
21782,note_on,2,0,0,,6,,,54,127
21782,note_on,0,0,0,,3,,,75,127
21835,note_off,53,0,0,,3,,,75,127
21837,note_on,2,0,0,,1,,,73,127
21890,note_off,53,0,0,,1,,,73,127
21890,note_off,0,0,0,,6,,,54,127
21892,note_on,2,0,0,,6,,,66,127
21892,note_on,0,0,0,,3,,,75,127
21945,note_off,53,0,0,,3,,,75,127
21947,note_on,2,0,0,,1,,,73,127
22000,note_off,53,0,0,,1,,,73,127
22000,note_off,0,0,0,,6,,,66,127
22002,note_on,2,0,0,,6,,,66,127
22002,note_on,0,0,0,,3,,,75,127
22055,note_off,53,0,0,,3,,,75,127
22057,note_on,2,0,0,,1,,,73,127
22110,note_off,53,0,0,,6,,,66,127
22112,note_on,2,0,0,,4,,,64,127
22219,note_off,107,0,0,,4,,,64,127
22221,note_on,2,0,0,,4,,,64,127
22328,note_off,107,0,0,,4,,,64,127
22330,note_on,2,0,0,,3,,,63,127
22385,note_off,55,0,0,,1,,,73,127
22438,note_off,53,0,0,,3,,,63,127
22440,note_on,2,0,0,,3,,,63,127
22440,note_on,0,0,0,,6,,,78,127
22547,note_off,107,0,0,,6,,,78,127
22549,note_on,2,0,0,,4,,,76,127
22656,note_off,107,0,0,,4,,,76,127
22656,note_off,0,0,0,,3,,,63,127
22658,note_on,2,0,0,,1,,,61,127
22658,note_on,0,0,0,,4,,,76,127
22765,note_off,107,0,0,,4,,,76,127
22767,note_on,2,0,0,,3,,,75,127
22874,note_off,107,0,0,,3,,,75,127
22874,note_off,0,0,0,,1,,,61,127
22876,note_on,2,0,0,,12,,,59,127
22876,note_on,0,0,0,,3,,,75,127
22983,note_off,107,0,0,,3,,,75,127
22985,note_on,2,0,0,,1,,,73,127
23092,note_off,107,0,0,,1,,,73,127
23092,note_off,0,0,0,,12,,,59,127
23094,note_on,2,0,0,,4,,,64,127
23094,note_on,0,0,0,,8,,,80,127
23201,note_off,107,0,0,,8,,,80,127
23203,note_on,2,0,0,,6,,,78,127
23310,note_off,107,0,0,,6,,,78,127
23310,note_off,0,0,0,,4,,,64,127
23312,note_on,2,0,0,,3,,,63,127
23312,note_on,0,0,0,,6,,,78,127
23419,note_off,107,0,0,,6,,,78,127
23421,note_on,2,0,0,,4,,,76,127
23528,note_off,107,0,0,,4,,,76,127
23528,note_off,0,0,0,,3,,,63,127
23530,note_on,2,0,0,,1,,,61,127
23530,note_on,0,0,0,,4,,,76,127
23637,note_off,107,0,0,,4,,,76,127
23639,note_on,2,0,0,,3,,,75,127
23746,note_off,107,0,0,,3,,,75,127
23746,note_off,0,0,0,,1,,,61,127
23748,note_on,2,0,0,,6,,,66,127
23748,note_on,0,0,0,,11,,,82,127
23855,note_off,107,0,0,,11,,,82,127
23857,note_on,2,0,0,,8,,,80,127
23964,note_off,107,0,0,,8,,,80,127
23964,note_off,0,0,0,,6,,,66,127
23966,note_on,2,0,0,,4,,,64,127
23966,note_on,0,0,0,,8,,,80,127
24073,note_off,107,0,0,,8,,,80,127
24075,note_on,2,0,0,,6,,,78,127
24182,note_off,107,0,0,,6,,,78,127
24182,note_off,0,0,0,,4,,,64,127
24184,note_on,2,0,0,,3,,,63,127
24184,note_on,0,0,0,,6,,,78,127
24291,note_off,107,0,0,,6,,,78,127
24293,note_on,2,0,0,,4,,,76,127
24400,note_off,107,0,0,,4,,,76,127
24400,note_off,0,0,0,,3,,,63,127
24402,note_on,2,0,0,,8,,,68,127
24402,note_on,0,0,0,,12,,,83,127
24509,note_off,107,0,0,,12,,,83,127
24511,note_on,2,0,0,,11,,,82,127
24618,note_off,107,0,0,,11,,,82,127
24618,note_off,0,0,0,,8,,,68,127
24620,note_on,2,0,0,,6,,,66,127
24620,note_on,0,0,0,,11,,,82,127
24727,note_off,107,0,0,,11,,,82,127
24729,note_on,2,0,0,,8,,,80,127
24836,note_off,107,0,0,,8,,,80,127
24836,note_off,0,0,0,,6,,,66,127
24838,note_on,2,0,0,,4,,,64,127
24838,note_on,0,0,0,,8,,,80,127
24945,note_off,107,0,0,,8,,,80,127
24947,note_on,2,0,0,,6,,,78,127
25054,note_off,107,0,0,,6,,,78,127
25054,note_off,0,0,0,,4,,,64,127
25056,note_on,2,0,0,,3,,,63,127
25056,note_on,0,0,0,,6,,,78,127
25163,note_off,107,0,0,,6,,,78,127
25165,note_on,2,0,0,,4,,,76,127
25272,note_off,107,0,0,,4,,,76,127
25272,note_off,0,0,0,,3,,,63,127
25274,note_on,2,0,0,,1,,,61,127
25274,note_on,0,0,0,,4,,,76,127
25381,note_off,107,0,0,,4,,,76,127
25383,note_on,2,0,0,,3,,,75,127
25490,note_off,107,0,0,,3,,,75,127
25490,note_off,0,0,0,,1,,,61,127
25492,note_on,2,0,0,,12,,,59,127
25492,note_on,0,0,0,,3,,,75,127
25599,note_off,107,0,0,,3,,,75,127
25601,note_on,2,0,0,,1,,,73,127
25708,note_off,107,0,0,,1,,,73,127
25708,note_off,0,0,0,,12,,,59,127
25710,note_on,2,0,0,,11,,,58,127
25710,note_on,0,0,0,,1,,,73,127
25817,note_off,107,0,0,,1,,,73,127
25819,note_on,2,0,0,,3,,,75,127
25926,note_off,107,0,0,,3,,,75,127
25926,note_off,0,0,0,,11,,,58,127
25928,note_on,2,0,0,,6,,,54,127
25928,note_on,0,0,0,,3,,,75,127
26035,note_off,107,0,0,,3,,,75,127
26037,note_on,2,0,0,,4,,,76,127
26144,note_off,107,0,0,,4,,,76,127
26144,note_off,0,0,0,,6,,,54,127
26146,note_on,2,0,0,,12,,,59,127
26146,note_on,0,0,0,,4,,,76,127
26253,note_off,107,0,0,,4,,,76,127
26255,note_on,2,0,0,,6,,,78,127
26362,note_off,107,0,0,,6,,,78,127
26362,note_off,0,0,0,,12,,,59,127
26364,note_on,2,0,0,,4,,,52,127
26364,note_on,0,0,0,,6,,,78,127
26471,note_off,107,0,0,,6,,,78,127
26473,note_on,2,0,0,,8,,,80,127
26580,note_off,107,0,0,,8,,,80,127
26580,note_off,0,0,0,,4,,,52,127
26582,note_on,2,0,0,,6,,,54,127
26582,note_on,0,0,0,,6,,,78,127
26689,note_off,107,0,0,,6,,,78,127
26691,note_on,2,0,0,,4,,,76,127
26798,note_off,107,0,0,,4,,,76,127
26798,note_off,0,0,0,,6,,,54,127
26800,note_on,2,0,0,,6,,,42,127
26800,note_on,0,0,0,,3,,,75,127
26907,note_off,107,0,0,,3,,,75,127
26909,note_on,2,0,0,,1,,,73,127
27016,note_off,107,0,0,,1,,,73,127
27016,note_off,0,0,0,,6,,,42,127
27018,note_on,2,0,0,,11,,,82,127
27018,note_on,0,0,0,,11,,,70,127
27235,note_off,217,0,0,,11,,,70,127
27235,note_off,0,0,0,,11,,,82,127
27237,note_on,2,0,0,,7,,,67,127
27237,note_on,0,0,0,,12,,,59,127
27237,note_on,0,0,0,,12,,,71,127
27237,note_on,0,0,0,,12,,,83,127
27454,note_off,217,0,0,,7,,,67,127
27456,note_on,2,0,0,,6,,,66,127
27673,note_off,217,0,0,,6,,,66,127
27675,note_on,2,0,0,,4,,,64,127
27675,note_on,0,0,0,,7,,,67,127
27892,note_off,217,0,0,,7,,,67,127
27892,note_off,0,0,0,,4,,,64,127
27894,note_on,2,0,0,,6,,,66,127
27894,note_on,0,0,0,,2,,,62,127
28111,note_off,217,0,0,,2,,,62,127
28111,note_off,0,0,0,,6,,,66,127
28111,note_off,0,0,0,,12,,,83,127
28111,note_off,0,0,0,,12,,,71,127
28113,note_on,2,0,0,,1,,,61,127
28113,note_on,0,0,0,,4,,,64,127
28113,note_on,0,0,0,,1,,,85,127
28113,note_on,0,0,0,,1,,,73,127
28330,note_off,217,0,0,,1,,,73,127
28330,note_off,0,0,0,,1,,,85,127
28330,note_off,0,0,0,,4,,,64,127
28330,note_off,0,0,0,,1,,,61,127
28330,note_off,0,0,0,,12,,,59,127
28332,note_on,2,0,0,,12,,,59,127
28332,note_on,0,0,0,,2,,,86,127
28332,note_on,0,0,0,,2,,,74,127
28549,note_off,217,0,0,,2,,,74,127
28549,note_off,0,0,0,,2,,,86,127
28551,note_on,2,0,0,,7,,,67,127
28551,note_on,0,0,0,,11,,,70,127
28551,note_on,0,0,0,,11,,,82,127
28768,note_off,217,0,0,,11,,,82,127
28768,note_off,0,0,0,,11,,,70,127
28768,note_off,0,0,0,,7,,,67,127
28770,note_on,2,0,0,,6,,,66,127
28770,note_on,0,0,0,,12,,,71,127
28770,note_on,0,0,0,,12,,,83,127
28987,note_off,217,0,0,,6,,,66,127
28989,note_on,2,0,0,,7,,,67,127
28989,note_on,0,0,0,,4,,,64,127
29206,note_off,217,0,0,,4,,,64,127
29206,note_off,0,0,0,,7,,,67,127
29208,note_on,2,0,0,,2,,,62,127
29208,note_on,0,0,0,,6,,,66,127
29425,note_off,217,0,0,,6,,,66,127
29425,note_off,0,0,0,,2,,,62,127
29425,note_off,0,0,0,,12,,,83,127
29425,note_off,0,0,0,,12,,,71,127
29427,note_on,2,0,0,,4,,,64,127
29427,note_on,0,0,0,,1,,,61,127
29427,note_on,0,0,0,,1,,,73,127
29427,note_on,0,0,0,,1,,,85,127
29644,note_off,217,0,0,,1,,,85,127
29644,note_off,0,0,0,,1,,,73,127
29644,note_off,0,0,0,,1,,,61,127
29644,note_off,0,0,0,,4,,,64,127
29644,note_off,0,0,0,,12,,,59,127
29646,note_on,2,0,0,,12,,,59,127
29646,note_on,0,0,0,,2,,,74,127
29646,note_on,0,0,0,,2,,,86,127
29863,note_off,217,0,0,,2,,,86,127
29863,note_off,0,0,0,,2,,,74,127
29865,note_on,2,0,0,,7,,,67,127
29865,note_on,0,0,0,,11,,,82,127
29865,note_on,0,0,0,,11,,,70,127
30082,note_off,217,0,0,,11,,,70,127
30082,note_off,0,0,0,,11,,,82,127
30082,note_off,0,0,0,,7,,,67,127
30084,note_on,2,0,0,,6,,,66,127
30084,note_on,0,0,0,,12,,,71,127
30084,note_on,0,0,0,,12,,,83,127
30301,note_off,217,0,0,,6,,,66,127
30303,note_on,2,0,0,,7,,,67,127
30303,note_on,0,0,0,,4,,,64,127
30520,note_off,217,0,0,,4,,,64,127
30520,note_off,0,0,0,,7,,,67,127
30522,note_on,2,0,0,,6,,,66,127
30522,note_on,0,0,0,,2,,,62,127
30739,note_off,217,0,0,,2,,,62,127
30739,note_off,0,0,0,,6,,,66,127
30739,note_off,0,0,0,,12,,,83,127
30739,note_off,0,0,0,,12,,,71,127
30741,note_on,2,0,0,,1,,,61,127
30741,note_on,0,0,0,,4,,,64,127
30741,note_on,0,0,0,,1,,,85,127
30741,note_on,0,0,0,,1,,,73,127
30958,note_off,217,0,0,,1,,,73,127
30958,note_off,0,0,0,,1,,,85,127
30958,note_off,0,0,0,,4,,,64,127
30958,note_off,0,0,0,,1,,,61,127
30958,note_off,0,0,0,,12,,,59,127
30960,note_on,2,0,0,,7,,,67,127
30960,note_on,0,0,0,,4,,,64,127
30960,note_on,0,0,0,,12,,,59,127
30960,note_on,0,0,0,,2,,,86,127
31067,note_off,107,0,0,,2,,,86,127
31069,note_on,2,0,0,,11,,,82,127
31176,note_off,107,0,0,,11,,,82,127
31178,note_on,2,0,0,,12,,,83,127
31285,note_off,107,0,0,,12,,,83,127
31287,note_on,2,0,0,,6,,,78,127
31394,note_off,107,0,0,,6,,,78,127
31396,note_on,2,0,0,,7,,,79,127
31503,note_off,107,0,0,,7,,,79,127
31505,note_on,2,0,0,,2,,,74,127
31612,note_off,107,0,0,,2,,,74,127
31612,note_off,0,0,0,,12,,,59,127
31612,note_off,0,0,0,,4,,,64,127
31612,note_off,0,0,0,,7,,,67,127
31614,note_on,2,0,0,,12,,,59,127
31614,note_on,0,0,0,,4,,,64,127
31614,note_on,0,0,0,,7,,,67,127
31614,note_on,0,0,0,,4,,,76,127
31721,note_off,107,0,0,,4,,,76,127
31723,note_on,2,0,0,,12,,,71,127
31830,note_off,107,0,0,,12,,,71,127
31832,note_on,2,0,0,,1,,,73,127
31939,note_off,107,0,0,,1,,,73,127
31941,note_on,2,0,0,,11,,,70,127
32048,note_off,107,0,0,,11,,,70,127
32050,note_on,2,0,0,,12,,,71,127
32157,note_off,107,0,0,,12,,,71,127
32157,note_off,0,0,0,,7,,,67,127
32159,note_on,2,0,0,,7,,,67,127
32266,note_off,107,0,0,,7,,,67,127
32266,note_off,0,0,0,,4,,,64,127
32266,note_off,0,0,0,,12,,,59,127
32268,note_on,2,0,0,,11,,,58,127
32268,note_on,0,0,0,,6,,,66,127
32268,note_on,0,0,0,,4,,,64,127
32268,note_on,0,0,0,,1,,,85,127
32375,note_off,107,0,0,,1,,,85,127
32377,note_on,2,0,0,,4,,,76,127
32484,note_off,107,0,0,,4,,,76,127
32486,note_on,2,0,0,,6,,,78,127
32593,note_off,107,0,0,,6,,,78,127
32595,note_on,2,0,0,,12,,,71,127
32702,note_off,107,0,0,,12,,,71,127
32704,note_on,2,0,0,,1,,,73,127
32811,note_off,107,0,0,,1,,,73,127
32813,note_on,2,0,0,,11,,,70,127
32920,note_off,107,0,0,,11,,,70,127
32920,note_off,0,0,0,,4,,,64,127
32920,note_off,0,0,0,,6,,,66,127
32920,note_off,0,0,0,,11,,,58,127
32922,note_on,2,0,0,,11,,,58,127
32922,note_on,0,0,0,,4,,,64,127
32922,note_on,0,0,0,,7,,,67,127
33029,note_off,107,0,0,,7,,,67,127
33031,note_on,2,0,0,,4,,,76,127
33138,note_off,107,0,0,,4,,,76,127
33140,note_on,2,0,0,,6,,,66,127
33247,note_off,107,0,0,,6,,,66,127
33249,note_on,2,0,0,,2,,,74,127
33356,note_off,107,0,0,,2,,,74,127
33356,note_off,0,0,0,,4,,,64,127
33358,note_on,2,0,0,,4,,,64,127
33468,note_on,110,0,0,,1,,,73,127
33575,note_off,107,0,0,,1,,,73,127
33575,note_off,0,0,0,,4,,,64,127
33575,note_off,0,0,0,,11,,,58,127
33577,note_on,2,0,0,,12,,,59,127
33577,note_on,0,0,0,,4,,,64,127
33577,note_on,0,0,0,,7,,,67,127
33577,note_on,0,0,0,,2,,,86,127
33684,note_off,107,0,0,,2,,,86,127
33686,note_on,2,0,0,,11,,,82,127
33793,note_off,107,0,0,,11,,,82,127
33795,note_on,2,0,0,,12,,,83,127
33902,note_off,107,0,0,,12,,,83,127
33904,note_on,2,0,0,,6,,,78,127
34011,note_off,107,0,0,,6,,,78,127
34013,note_on,2,0,0,,7,,,79,127
34120,note_off,107,0,0,,7,,,79,127
34122,note_on,2,0,0,,2,,,74,127
34229,note_off,107,0,0,,2,,,74,127
34229,note_off,0,0,0,,7,,,67,127
34229,note_off,0,0,0,,4,,,64,127
34229,note_off,0,0,0,,12,,,59,127
34231,note_on,2,0,0,,12,,,59,127
34231,note_on,0,0,0,,7,,,67,127
34231,note_on,0,0,0,,4,,,64,127
34231,note_on,0,0,0,,4,,,76,127
34338,note_off,107,0,0,,4,,,76,127
34340,note_on,2,0,0,,12,,,71,127
34447,note_off,107,0,0,,12,,,71,127
34449,note_on,2,0,0,,1,,,73,127
34556,note_off,107,0,0,,1,,,73,127
34558,note_on,2,0,0,,11,,,70,127
34665,note_off,107,0,0,,11,,,70,127
34667,note_on,2,0,0,,12,,,71,127
34774,note_off,107,0,0,,12,,,71,127
34774,note_off,0,0,0,,7,,,67,127
34776,note_on,2,0,0,,7,,,67,127
34883,note_off,107,0,0,,7,,,67,127
34883,note_off,0,0,0,,4,,,64,127
34883,note_off,0,0,0,,12,,,59,127
34885,note_on,2,0,0,,11,,,58,127
34885,note_on,0,0,0,,6,,,66,127
34885,note_on,0,0,0,,4,,,64,127
34885,note_on,0,0,0,,1,,,85,127
34992,note_off,107,0,0,,1,,,85,127
34994,note_on,2,0,0,,4,,,76,127
35101,note_off,107,0,0,,4,,,76,127
35103,note_on,2,0,0,,6,,,78,127
35210,note_off,107,0,0,,6,,,78,127
35212,note_on,2,0,0,,12,,,71,127
35319,note_off,107,0,0,,12,,,71,127
35321,note_on,2,0,0,,1,,,73,127
35428,note_off,107,0,0,,1,,,73,127
35430,note_on,2,0,0,,11,,,70,127
35537,note_off,107,0,0,,11,,,70,127
35537,note_off,0,0,0,,4,,,64,127
35537,note_off,0,0,0,,6,,,66,127
35537,note_off,0,0,0,,11,,,58,127
35539,note_on,2,0,0,,4,,,64,127
35539,note_on,0,0,0,,11,,,58,127
35539,note_on,0,0,0,,7,,,67,127
35649,note_on,110,0,0,,4,,,76,127
35756,note_off,107,0,0,,4,,,76,127
35756,note_off,0,0,0,,7,,,67,127
35758,note_on,2,0,0,,6,,,66,127
35868,note_on,110,0,0,,2,,,74,127
35975,note_off,107,0,0,,2,,,74,127
35975,note_off,0,0,0,,6,,,66,127
35975,note_off,0,0,0,,4,,,64,127
35977,note_on,2,0,0,,4,,,64,127
36087,note_on,110,0,0,,1,,,73,127
36194,note_off,107,0,0,,1,,,73,127
36194,note_off,0,0,0,,4,,,64,127
36194,note_off,0,0,0,,11,,,58,127
36196,note_on,2,0,0,,2,,,62,127
36196,note_on,0,0,0,,12,,,59,127
36196,note_on,0,0,0,,2,,,86,127
36303,note_off,107,0,0,,2,,,86,127
36305,note_on,2,0,0,,12,,,83,127
36412,note_off,107,0,0,,12,,,83,127
36412,note_off,0,0,0,,12,,,59,127
36412,note_off,0,0,0,,2,,,62,127
36414,note_on,2,0,0,,1,,,61,127
36414,note_on,0,0,0,,4,,,64,127
36414,note_on,0,0,0,,1,,,85,127
36521,note_off,107,0,0,,1,,,85,127
36523,note_on,2,0,0,,11,,,82,127
36630,note_off,107,0,0,,11,,,82,127
36630,note_off,0,0,0,,4,,,64,127
36630,note_off,0,0,0,,1,,,61,127
36632,note_on,2,0,0,,2,,,62,127
36632,note_on,0,0,0,,2,,,50,127
36632,note_on,0,0,0,,12,,,83,127
36739,note_off,107,0,0,,12,,,83,127
36741,note_on,2,0,0,,6,,,78,127
36848,note_off,107,0,0,,6,,,78,127
36848,note_off,0,0,0,,2,,,50,127
36848,note_off,0,0,0,,2,,,62,127
36850,note_on,2,0,0,,4,,,52,127
36850,note_on,0,0,0,,7,,,79,127
36957,note_off,107,0,0,,7,,,79,127
36959,note_on,2,0,0,,2,,,74,127
37066,note_off,107,0,0,,2,,,74,127
37066,note_off,0,0,0,,4,,,52,127
37068,note_on,2,0,0,,6,,,54,127
37068,note_on,0,0,0,,4,,,76,127
37175,note_off,107,0,0,,4,,,76,127
37177,note_on,2,0,0,,1,,,73,127
37284,note_off,107,0,0,,1,,,73,127
37284,note_off,0,0,0,,6,,,54,127
37286,note_on,2,0,0,,7,,,55,127
37286,note_on,0,0,0,,2,,,74,127
37393,note_off,107,0,0,,2,,,74,127
37395,note_on,2,0,0,,12,,,71,127
37502,note_off,107,0,0,,12,,,71,127
37502,note_off,0,0,0,,7,,,55,127
37504,note_on,2,0,0,,6,,,54,127
37504,note_on,0,0,0,,2,,,62,127
37504,note_on,0,0,0,,12,,,71,127
37557,note_off,53,0,0,,12,,,71,127
37559,note_on,2,0,0,,11,,,70,127
37612,note_off,53,0,0,,11,,,70,127
37614,note_on,2,0,0,,12,,,71,127
37667,note_off,53,0,0,,12,,,71,127
37669,note_on,2,0,0,,11,,,70,127
37722,note_off,53,0,0,,11,,,70,127
37722,note_off,0,0,0,,2,,,62,127
37722,note_off,0,0,0,,6,,,54,127
37724,note_on,2,0,0,,4,,,52,127
37724,note_on,0,0,0,,1,,,61,127
37724,note_on,0,0,0,,12,,,71,127
37777,note_off,53,0,0,,12,,,71,127
37779,note_on,2,0,0,,11,,,70,127
37832,note_off,53,0,0,,11,,,70,127
37834,note_on,2,0,0,,8,,,68,127
37887,note_off,53,0,0,,8,,,68,127
37889,note_on,2,0,0,,11,,,70,127
37942,note_off,53,0,0,,11,,,70,127
37942,note_off,0,0,0,,1,,,61,127
37942,note_off,0,0,0,,4,,,52,127
37944,note_on,2,0,0,,12,,,59,127
37944,note_on,0,0,0,,2,,,50,127
37944,note_on,0,0,0,,12,,,71,127
38161,note_off,217,0,0,,12,,,71,127
38161,note_off,0,0,0,,2,,,50,127
38161,note_off,0,0,0,,12,,,59,127
38163,note_on,2,0,0,,4,,,52,127
38163,note_on,0,0,0,,12,,,59,127
38163,note_on,0,0,0,,1,,,73,127
38234,note_off,71,0,0,,1,,,73,127
38236,note_on,2,0,0,,2,,,74,127
38307,note_off,71,0,0,,2,,,74,127
38309,note_on,2,0,0,,4,,,76,127
38380,note_off,71,0,0,,4,,,76,127
38380,note_off,0,0,0,,12,,,59,127
38380,note_off,0,0,0,,4,,,52,127
38382,note_on,2,0,0,,12,,,59,127
38382,note_on,0,0,0,,6,,,54,127
38382,note_on,0,0,0,,2,,,62,127
38382,note_on,0,0,0,,2,,,74,127
38489,note_off,107,0,0,,2,,,74,127
38491,note_on,2,0,0,,1,,,73,127
38598,note_off,107,0,0,,1,,,73,127
38598,note_off,0,0,0,,2,,,62,127
38600,note_on,2,0,0,,4,,,64,127
38600,note_on,0,0,0,,1,,,61,127
38600,note_on,0,0,0,,12,,,71,127
38707,note_off,107,0,0,,12,,,71,127
38709,note_on,2,0,0,,11,,,70,127
38816,note_off,107,0,0,,11,,,70,127
38816,note_off,0,0,0,,1,,,61,127
38816,note_off,0,0,0,,4,,,64,127
38817,note_off,1,0,0,,6,,,54,127
38817,note_off,0,0,0,,12,,,59,127
38818,note_on,1,0,0,,12,,,47,127
38818,note_on,0,0,0,,12,,,59,127
38818,note_on,0,0,0,,12,,,83,127
38925,note_off,107,0,0,,12,,,83,127
38927,note_on,2,0,0,,6,,,78,127
39034,note_off,107,0,0,,6,,,78,127
39036,note_on,2,0,0,,3,,,75,127
39143,note_off,107,0,0,,3,,,75,127
39145,note_on,2,0,0,,12,,,71,127
39252,note_off,107,0,0,,12,,,71,127
39252,note_off,0,0,0,,12,,,59,127
39252,note_off,0,0,0,,12,,,47,127
39254,note_on,2,0,0,,3,,,51,127
39254,note_on,0,0,0,,6,,,66,127
39361,note_off,107,0,0,,6,,,66,127
39363,note_on,2,0,0,,3,,,63,127
39470,note_off,107,0,0,,3,,,63,127
39470,note_off,0,0,0,,3,,,51,127
39472,note_on,2,0,0,,4,,,52,127
39472,note_on,0,0,0,,12,,,59,127
39634,note_off,162,0,0,,12,,,59,127
39636,note_on,2,0,0,,6,,,66,127
39689,note_off,53,0,0,,6,,,66,127
39689,note_off,0,0,0,,4,,,52,127
39691,note_on,2,0,0,,6,,,54,127
39691,note_on,0,0,0,,8,,,68,127
39744,note_off,53,0,0,,8,,,68,127
39746,note_on,2,0,0,,6,,,66,127
39799,note_off,53,0,0,,6,,,66,127
39801,note_on,2,0,0,,8,,,68,127
39854,note_off,53,0,0,,8,,,68,127
39856,note_on,2,0,0,,6,,,66,127
39909,note_off,53,0,0,,6,,,66,127
39911,note_on,2,0,0,,6,,,42,127
39911,note_on,0,0,0,,8,,,68,127
39964,note_off,53,0,0,,8,,,68,127
39966,note_on,2,0,0,,6,,,66,127
40019,note_off,53,0,0,,6,,,66,127
40021,note_on,2,0,0,,5,,,65,127
40074,note_off,53,0,0,,5,,,65,127
40076,note_on,2,0,0,,6,,,66,127
40126,note_off,50,0,0,,6,,,54,127
40128,note_off,2,0,0,,6,,,66,127
40128,note_off,0,0,0,,6,,,42,127
40130,note_on,2,0,0,,12,,,47,127
40130,note_on,0,0,0,,12,,,59,127
40130,note_on,0,0,0,,12,,,83,127
40237,note_off,107,0,0,,12,,,83,127
40239,note_on,2,0,0,,6,,,78,127
40346,note_off,107,0,0,,6,,,78,127
40348,note_on,2,0,0,,3,,,75,127
40455,note_off,107,0,0,,3,,,75,127
40457,note_on,2,0,0,,12,,,71,127
40564,note_off,107,0,0,,12,,,71,127
40564,note_off,0,0,0,,12,,,59,127
40564,note_off,0,0,0,,12,,,47,127
40566,note_on,2,0,0,,3,,,51,127
40566,note_on,0,0,0,,6,,,66,127
40673,note_off,107,0,0,,6,,,66,127
40675,note_on,2,0,0,,3,,,63,127
40782,note_off,107,0,0,,3,,,63,127
40782,note_off,0,0,0,,3,,,51,127
40784,note_on,2,0,0,,4,,,52,127
40784,note_on,0,0,0,,12,,,59,127
40946,note_off,162,0,0,,12,,,59,127
40948,note_on,2,0,0,,1,,,73,127
41001,note_off,53,0,0,,1,,,73,127
41001,note_off,0,0,0,,4,,,52,127
41003,note_on,2,0,0,,6,,,54,127
41003,note_on,0,0,0,,3,,,75,127
41056,note_off,53,0,0,,3,,,75,127
41058,note_on,2,0,0,,1,,,73,127
41111,note_off,53,0,0,,1,,,73,127
41113,note_on,2,0,0,,3,,,75,127
41166,note_off,53,0,0,,3,,,75,127
41168,note_on,2,0,0,,1,,,73,127
41221,note_off,53,0,0,,1,,,73,127
41223,note_on,2,0,0,,6,,,42,127
41223,note_on,0,0,0,,3,,,75,127
41276,note_off,53,0,0,,3,,,75,127
41278,note_on,2,0,0,,1,,,73,127
41331,note_off,53,0,0,,1,,,73,127
41333,note_on,2,0,0,,12,,,71,127
41386,note_off,53,0,0,,12,,,71,127
41388,note_on,2,0,0,,1,,,73,127
41438,note_off,50,0,0,,6,,,54,127
41440,note_off,2,0,0,,1,,,73,127
41440,note_off,0,0,0,,6,,,42,127
41442,note_on,2,0,0,,12,,,47,127
41442,note_on,0,0,0,,12,,,59,127
41442,note_on,0,0,0,,12,,,83,127
41549,note_off,107,0,0,,12,,,83,127
41551,note_on,2,0,0,,6,,,78,127
41658,note_off,107,0,0,,6,,,78,127
41660,note_on,2,0,0,,3,,,75,127
41767,note_off,107,0,0,,3,,,75,127
41769,note_on,2,0,0,,12,,,71,127
41876,note_off,107,0,0,,12,,,71,127
41876,note_off,0,0,0,,12,,,59,127
41876,note_off,0,0,0,,12,,,47,127
41878,note_on,2,0,0,,3,,,51,127
41878,note_on,0,0,0,,6,,,66,127
41985,note_off,107,0,0,,6,,,66,127
41987,note_on,2,0,0,,3,,,63,127
42094,note_off,107,0,0,,3,,,63,127
42094,note_off,0,0,0,,3,,,51,127
42096,note_on,2,0,0,,4,,,52,127
42096,note_on,0,0,0,,12,,,59,127
42258,note_off,162,0,0,,12,,,59,127
42260,note_on,2,0,0,,6,,,66,127
42313,note_off,53,0,0,,6,,,66,127
42313,note_off,0,0,0,,4,,,52,127
42315,note_on,2,0,0,,6,,,54,127
42315,note_on,0,0,0,,8,,,68,127
42368,note_off,53,0,0,,8,,,68,127
42370,note_on,2,0,0,,6,,,66,127
42423,note_off,53,0,0,,6,,,66,127
42425,note_on,2,0,0,,8,,,68,127
42478,note_off,53,0,0,,8,,,68,127
42480,note_on,2,0,0,,6,,,66,127
42533,note_off,53,0,0,,6,,,66,127
42535,note_on,2,0,0,,6,,,42,127
42535,note_on,0,0,0,,8,,,68,127
42588,note_off,53,0,0,,8,,,68,127
42590,note_on,2,0,0,,6,,,66,127
42643,note_off,53,0,0,,6,,,66,127
42645,note_on,2,0,0,,5,,,65,127
42698,note_off,53,0,0,,5,,,65,127
42700,note_on,2,0,0,,6,,,66,127
42750,note_off,50,0,0,,6,,,54,127
42752,note_off,2,0,0,,6,,,66,127
42752,note_off,0,0,0,,6,,,42,127
42754,note_on,2,0,0,,12,,,59,127
42754,note_on,0,0,0,,12,,,47,127
42754,note_on,0,0,0,,12,,,83,127
42861,note_off,107,0,0,,12,,,83,127
42863,note_on,2,0,0,,6,,,78,127
42970,note_off,107,0,0,,6,,,78,127
42972,note_on,2,0,0,,3,,,75,127
43079,note_off,107,0,0,,3,,,75,127
43081,note_on,2,0,0,,12,,,71,127
43188,note_off,107,0,0,,12,,,71,127
43188,note_off,0,0,0,,12,,,47,127
43188,note_off,0,0,0,,12,,,59,127
43190,note_on,2,0,0,,3,,,51,127
43190,note_on,0,0,0,,6,,,66,127
43297,note_off,107,0,0,,6,,,66,127
43299,note_on,2,0,0,,3,,,63,127
43406,note_off,107,0,0,,3,,,63,127
43406,note_off,0,0,0,,3,,,51,127
43408,note_on,2,0,0,,4,,,52,127
43408,note_on,0,0,0,,12,,,59,127
43570,note_off,162,0,0,,12,,,59,127
43572,note_on,2,0,0,,1,,,73,127
43625,note_off,53,0,0,,1,,,73,127
43625,note_off,0,0,0,,4,,,52,127
43627,note_on,2,0,0,,6,,,54,127
43627,note_on,0,0,0,,3,,,75,127
43680,note_off,53,0,0,,3,,,75,127
43682,note_on,2,0,0,,1,,,73,127
43735,note_off,53,0,0,,1,,,73,127
43737,note_on,2,0,0,,3,,,75,127
43790,note_off,53,0,0,,3,,,75,127
43792,note_on,2,0,0,,1,,,73,127
43845,note_off,53,0,0,,1,,,73,127
43847,note_on,2,0,0,,6,,,42,127
43847,note_on,0,0,0,,3,,,75,127
43900,note_off,53,0,0,,3,,,75,127
43902,note_on,2,0,0,,1,,,73,127
43955,note_off,53,0,0,,1,,,73,127
43957,note_on,2,0,0,,12,,,71,127
44010,note_off,53,0,0,,12,,,71,127
44012,note_on,2,0,0,,1,,,73,127
44062,note_off,50,0,0,,6,,,54,127
44064,note_off,2,0,0,,1,,,73,127
44064,note_off,0,0,0,,6,,,42,127
44066,note_on,2,0,0,,12,,,47,127
44066,note_on,0,0,0,,12,,,71,127
44173,note_off,107,0,0,,12,,,71,127
44175,note_on,2,0,0,,12,,,83,127
44282,note_off,107,0,0,,12,,,83,127
44284,note_on,2,0,0,,6,,,78,127
44391,note_off,107,0,0,,6,,,78,127
44393,note_on,2,0,0,,3,,,75,127
44500,note_off,107,0,0,,3,,,75,127
44502,note_on,2,0,0,,12,,,71,127
44609,note_off,107,0,0,,12,,,71,127
44611,note_on,2,0,0,,6,,,66,127
44718,note_off,107,0,0,,6,,,66,127
44719,note_off,1,0,0,,12,,,47,127
44720,note_on,1,0,0,,3,,,63,127
44827,note_off,107,0,0,,3,,,63,127
44829,note_on,2,0,0,,12,,,59,127
44939,note_on,110,0,0,,6,,,54,127
45046,note_off,107,0,0,,6,,,54,127
45048,note_on,2,0,0,,3,,,51,127
45155,note_off,107,0,0,,3,,,51,127
45157,note_on,2,0,0,,12,,,47,127
45264,note_off,107,0,0,,12,,,47,127
45266,note_on,2,0,0,,6,,,42,127
45371,note_off,105,0,0,,12,,,59,127
45373,note_off,2,0,0,,6,,,42,127
45375,note_on,2,0,0,,12,,,35,127
46032,note_off,657,0,0,,12,,,35,127
46033,note_on,1,0,0,,10,,,81,127
46033,note_on,0,0,0,,6,,,78,127
46252,note_on,219,0,0,,10,,,69,127
46252,note_on,0,0,0,,1,,,73,127
46469,note_off,217,0,0,,1,,,73,127
46469,note_off,0,0,0,,10,,,69,127
46471,note_on,2,0,0,,8,,,68,127
46471,note_on,0,0,0,,12,,,71,127
46688,note_off,217,0,0,,6,,,78,127
46688,note_off,0,0,0,,10,,,81,127
46690,note_on,2,0,0,,10,,,81,127
46690,note_on,0,0,0,,6,,,78,127
46800,note_off,110,0,0,,12,,,71,127
46800,note_off,0,0,0,,8,,,68,127
46910,note_on,110,0,0,,6,,,66,127
46910,note_on,0,0,0,,10,,,69,127
47127,note_off,217,0,0,,10,,,69,127
47127,note_off,0,0,0,,6,,,66,127
47129,note_on,2,0,0,,8,,,68,127
47129,note_on,0,0,0,,4,,,64,127
47346,note_off,217,0,0,,6,,,78,127
47346,note_off,0,0,0,,10,,,81,127
47348,note_on,2,0,0,,10,,,81,127
47348,note_on,0,0,0,,6,,,78,127
47458,note_off,110,0,0,,4,,,64,127
47458,note_off,0,0,0,,8,,,68,127
47568,note_on,110,0,0,,3,,,63,127
47568,note_on,0,0,0,,6,,,66,127
47785,note_off,217,0,0,,6,,,66,127
47785,note_off,0,0,0,,3,,,63,127
47787,note_on,2,0,0,,1,,,61,127
47787,note_on,0,0,0,,4,,,64,127
48004,note_off,217,0,0,,4,,,64,127
48004,note_off,0,0,0,,1,,,61,127
48004,note_off,0,0,0,,6,,,78,127
48004,note_off,0,0,0,,10,,,81,127
48006,note_on,2,0,0,,12,,,59,127
48006,note_on,0,0,0,,12,,,47,127
48006,note_on,0,0,0,,10,,,81,127
48113,note_off,107,0,0,,10,,,81,127
48115,note_on,2,0,0,,6,,,78,127
48222,note_off,107,0,0,,6,,,78,127
48224,note_on,2,0,0,,3,,,75,127
48331,note_off,107,0,0,,3,,,75,127
48333,note_on,2,0,0,,12,,,71,127
48440,note_off,107,0,0,,12,,,71,127
48442,note_on,2,0,0,,6,,,66,127
48549,note_off,107,0,0,,6,,,66,127
48551,note_on,2,0,0,,10,,,69,127
48658,note_off,107,0,0,,10,,,69,127
48658,note_off,0,0,0,,12,,,47,127
48658,note_off,0,0,0,,12,,,59,127
48660,note_on,2,0,0,,12,,,59,127
48660,note_on,0,0,0,,12,,,47,127
48660,note_on,0,0,0,,12,,,71,127
48660,note_on,0,0,0,,6,,,78,127
48660,note_on,0,0,0,,10,,,81,127
48877,note_off,217,0,0,,10,,,81,127
48877,note_off,0,0,0,,6,,,78,127
48879,note_on,2,0,0,,4,,,76,127
48879,note_on,0,0,0,,8,,,80,127
49096,note_off,217,0,0,,8,,,80,127
49096,note_off,0,0,0,,4,,,76,127
49098,note_on,2,0,0,,6,,,78,127
49098,note_on,0,0,0,,10,,,81,127
49315,note_off,217,0,0,,10,,,81,127
49315,note_off,0,0,0,,6,,,78,127
49316,note_off,1,0,0,,12,,,71,127
49316,note_off,0,0,0,,12,,,47,127
49316,note_off,0,0,0,,12,,,59,127
49317,note_on,1,0,0,,12,,,83,127
49317,note_on,0,0,0,,8,,,80,127
49536,note_on,219,0,0,,2,,,74,127
49536,note_on,0,0,0,,12,,,71,127
49753,note_off,217,0,0,,12,,,71,127
49753,note_off,0,0,0,,2,,,74,127
49755,note_on,2,0,0,,10,,,69,127
49755,note_on,0,0,0,,1,,,73,127
49972,note_off,217,0,0,,8,,,80,127
49972,note_off,0,0,0,,12,,,83,127
49974,note_on,2,0,0,,8,,,80,127
49974,note_on,0,0,0,,12,,,83,127
50084,note_off,110,0,0,,1,,,73,127
50084,note_off,0,0,0,,10,,,69,127
50194,note_on,110,0,0,,8,,,68,127
50194,note_on,0,0,0,,12,,,71,127
50411,note_off,217,0,0,,12,,,71,127
50411,note_off,0,0,0,,8,,,68,127
50413,note_on,2,0,0,,6,,,66,127
50413,note_on,0,0,0,,10,,,69,127
50630,note_off,217,0,0,,12,,,83,127
50630,note_off,0,0,0,,8,,,80,127
50632,note_on,2,0,0,,8,,,80,127
50632,note_on,0,0,0,,12,,,83,127
50742,note_off,110,0,0,,10,,,69,127
50742,note_off,0,0,0,,6,,,66,127
50852,note_on,110,0,0,,8,,,68,127
50852,note_on,0,0,0,,4,,,64,127
51069,note_off,217,0,0,,4,,,64,127
51069,note_off,0,0,0,,8,,,68,127
51071,note_on,2,0,0,,6,,,66,127
51071,note_on,0,0,0,,2,,,62,127
51288,note_off,217,0,0,,2,,,62,127
51288,note_off,0,0,0,,6,,,66,127
51288,note_off,0,0,0,,12,,,83,127
51288,note_off,0,0,0,,8,,,80,127
51290,note_on,2,0,0,,1,,,49,127
51290,note_on,0,0,0,,1,,,61,127
51290,note_on,0,0,0,,12,,,83,127
51397,note_off,107,0,0,,12,,,83,127
51399,note_on,2,0,0,,8,,,80,127
51506,note_off,107,0,0,,8,,,80,127
51508,note_on,2,0,0,,5,,,77,127
51615,note_off,107,0,0,,5,,,77,127
51617,note_on,2,0,0,,2,,,74,127
51724,note_off,107,0,0,,2,,,74,127
51726,note_on,2,0,0,,12,,,71,127
51833,note_off,107,0,0,,12,,,71,127
51835,note_on,2,0,0,,8,,,68,127
51942,note_off,107,0,0,,8,,,68,127
51942,note_off,0,0,0,,1,,,61,127
51942,note_off,0,0,0,,1,,,49,127
51944,note_on,2,0,0,,1,,,49,127
51944,note_on,0,0,0,,1,,,61,127
51944,note_on,0,0,0,,8,,,56,127
51944,note_on,0,0,0,,6,,,54,127
51944,note_on,0,0,0,,12,,,83,127
51944,note_on,0,0,0,,8,,,80,127
52161,note_off,217,0,0,,8,,,80,127
52161,note_off,0,0,0,,12,,,83,127
52163,note_on,2,0,0,,6,,,78,127
52163,note_on,0,0,0,,10,,,81,127
52380,note_off,217,0,0,,10,,,81,127
52380,note_off,0,0,0,,6,,,78,127
52382,note_on,2,0,0,,5,,,77,127
52382,note_on,0,0,0,,8,,,80,127
52599,note_off,217,0,0,,8,,,80,127
52599,note_off,0,0,0,,5,,,77,127
52600,note_off,1,0,0,,6,,,54,127
52600,note_off,0,0,0,,8,,,56,127
52600,note_off,0,0,0,,1,,,61,127
52600,note_off,0,0,0,,1,,,49,127
52601,note_on,1,0,0,,6,,,78,127
52708,note_off,107,0,0,,6,,,78,127
52710,note_on,2,0,0,,10,,,81,127
52817,note_off,107,0,0,,10,,,81,127
52819,note_on,2,0,0,,10,,,69,127
52819,note_on,0,0,0,,6,,,66,127
52819,note_on,0,0,0,,8,,,80,127
53036,note_off,217,0,0,,8,,,80,127
53036,note_off,0,0,0,,6,,,66,127
53038,note_on,2,0,0,,4,,,64,127
53038,note_on,0,0,0,,1,,,73,127
53038,note_on,0,0,0,,6,,,78,127
53255,note_off,217,0,0,,1,,,73,127
53255,note_off,0,0,0,,4,,,64,127
53257,note_on,2,0,0,,2,,,62,127
53257,note_on,0,0,0,,12,,,71,127
53474,note_off,217,0,0,,12,,,71,127
53474,note_off,0,0,0,,2,,,62,127
53476,note_on,2,0,0,,1,,,61,127
53476,note_on,0,0,0,,1,,,73,127
53693,note_off,217,0,0,,1,,,73,127
53693,note_off,0,0,0,,1,,,61,127
53695,note_on,2,0,0,,12,,,59,127
53695,note_on,0,0,0,,2,,,74,127
53912,note_off,217,0,0,,2,,,74,127
53912,note_off,0,0,0,,12,,,59,127
53913,note_off,1,0,0,,6,,,78,127
53914,note_on,1,0,0,,10,,,57,127
53914,note_on,0,0,0,,1,,,73,127
54021,note_off,107,0,0,,1,,,73,127
54023,note_on,2,0,0,,10,,,81,127
54130,note_off,107,0,0,,10,,,81,127
54130,note_off,0,0,0,,10,,,57,127
54131,note_off,1,0,0,,10,,,69,127
54132,note_on,1,0,0,,6,,,66,127
54132,note_on,0,0,0,,10,,,69,127
54132,note_on,0,0,0,,8,,,80,127
54349,note_off,217,0,0,,8,,,80,127
54349,note_off,0,0,0,,6,,,66,127
54351,note_on,2,0,0,,4,,,64,127
54351,note_on,0,0,0,,6,,,78,127
54351,note_on,0,0,0,,1,,,73,127
54568,note_off,217,0,0,,1,,,73,127
54568,note_off,0,0,0,,4,,,64,127
54570,note_on,2,0,0,,2,,,62,127
54570,note_on,0,0,0,,12,,,71,127
54787,note_off,217,0,0,,12,,,71,127
54787,note_off,0,0,0,,2,,,62,127
54789,note_on,2,0,0,,1,,,61,127
54789,note_on,0,0,0,,1,,,73,127
55006,note_off,217,0,0,,1,,,73,127
55006,note_off,0,0,0,,1,,,61,127
55008,note_on,2,0,0,,12,,,59,127
55008,note_on,0,0,0,,2,,,74,127
55225,note_off,217,0,0,,2,,,74,127
55225,note_off,0,0,0,,12,,,59,127
55226,note_off,1,0,0,,6,,,78,127
55227,note_on,1,0,0,,10,,,57,127
55227,note_on,0,0,0,,1,,,73,127
55334,note_off,107,0,0,,1,,,73,127
55336,note_on,2,0,0,,10,,,81,127
55443,note_off,107,0,0,,10,,,81,127
55443,note_off,0,0,0,,10,,,57,127
55444,note_off,1,0,0,,10,,,69,127
55445,note_on,1,0,0,,10,,,69,127
55445,note_on,0,0,0,,6,,,66,127
55445,note_on,0,0,0,,8,,,80,127
55662,note_off,217,0,0,,8,,,80,127
55662,note_off,0,0,0,,6,,,66,127
55664,note_on,2,0,0,,4,,,64,127
55664,note_on,0,0,0,,6,,,78,127
55664,note_on,0,0,0,,1,,,73,127
55881,note_off,217,0,0,,1,,,73,127
55881,note_off,0,0,0,,4,,,64,127
55883,note_on,2,0,0,,2,,,62,127
55883,note_on,0,0,0,,12,,,71,127
56100,note_off,217,0,0,,12,,,71,127
56100,note_off,0,0,0,,2,,,62,127
56102,note_on,2,0,0,,1,,,61,127
56102,note_on,0,0,0,,1,,,73,127
56319,note_off,217,0,0,,1,,,73,127
56319,note_off,0,0,0,,1,,,61,127
56320,note_off,1,0,0,,6,,,78,127
56320,note_off,0,0,0,,10,,,69,127
56321,note_on,1,0,0,,12,,,59,127
56321,note_on,0,0,0,,2,,,74,127
56321,note_on,0,0,0,,8,,,80,127
56538,note_off,217,0,0,,8,,,80,127
56538,note_off,0,0,0,,2,,,74,127
56538,note_off,0,0,0,,12,,,59,127
56540,note_on,2,0,0,,10,,,57,127
56540,note_on,0,0,0,,10,,,81,127
56540,note_on,0,0,0,,1,,,73,127
56647,note_off,107,0,0,,1,,,73,127
56647,note_off,0,0,0,,10,,,81,127
56649,note_on,2,0,0,,1,,,85,127
56756,note_off,107,0,0,,1,,,85,127
56756,note_off,0,0,0,,10,,,57,127
56758,note_on,2,0,0,,10,,,69,127
56758,note_on,0,0,0,,12,,,83,127
56975,note_off,217,0,0,,12,,,83,127
56977,note_on,2,0,0,,8,,,68,127
56977,note_on,0,0,0,,1,,,73,127
56977,note_on,0,0,0,,10,,,81,127
57194,note_off,217,0,0,,1,,,73,127
57194,note_off,0,0,0,,8,,,68,127
57196,note_on,2,0,0,,6,,,66,127
57196,note_on,0,0,0,,2,,,74,127
57413,note_off,217,0,0,,2,,,74,127
57413,note_off,0,0,0,,6,,,66,127
57415,note_on,2,0,0,,4,,,64,127
57415,note_on,0,0,0,,4,,,76,127
57632,note_off,217,0,0,,4,,,76,127
57632,note_off,0,0,0,,4,,,64,127
57634,note_on,2,0,0,,2,,,62,127
57634,note_on,0,0,0,,6,,,78,127
57851,note_off,217,0,0,,6,,,78,127
57851,note_off,0,0,0,,2,,,62,127
57852,note_off,1,0,0,,10,,,81,127
57853,note_on,1,0,0,,1,,,61,127
57853,note_on,0,0,0,,4,,,76,127
57960,note_off,107,0,0,,4,,,76,127
57962,note_on,2,0,0,,1,,,85,127
58069,note_off,107,0,0,,1,,,85,127
58069,note_off,0,0,0,,1,,,61,127
58070,note_off,1,0,0,,10,,,69,127
58071,note_on,1,0,0,,10,,,69,127
58071,note_on,0,0,0,,12,,,83,127
58288,note_off,217,0,0,,12,,,83,127
58290,note_on,2,0,0,,8,,,68,127
58290,note_on,0,0,0,,1,,,73,127
58290,note_on,0,0,0,,10,,,81,127
58507,note_off,217,0,0,,1,,,73,127
58507,note_off,0,0,0,,8,,,68,127
58509,note_on,2,0,0,,6,,,66,127
58509,note_on,0,0,0,,2,,,74,127
58726,note_off,217,0,0,,2,,,74,127
58726,note_off,0,0,0,,6,,,66,127
58728,note_on,2,0,0,,4,,,64,127
58728,note_on,0,0,0,,4,,,76,127
58945,note_off,217,0,0,,4,,,76,127
58945,note_off,0,0,0,,4,,,64,127
58947,note_on,2,0,0,,2,,,62,127
58947,note_on,0,0,0,,6,,,78,127
59164,note_off,217,0,0,,6,,,78,127
59164,note_off,0,0,0,,2,,,62,127
59164,note_off,0,0,0,,10,,,69,127
59165,note_off,1,0,0,,10,,,81,127
59166,note_on,1,0,0,,1,,,61,127
59166,note_on,0,0,0,,10,,,69,127
59166,note_on,0,0,0,,4,,,64,127
59166,note_on,0,0,0,,4,,,76,127
59273,note_off,107,0,0,,4,,,76,127
59275,note_on,2,0,0,,1,,,85,127
59382,note_off,107,0,0,,1,,,85,127
59382,note_off,0,0,0,,4,,,64,127
59382,note_off,0,0,0,,10,,,69,127
59382,note_off,0,0,0,,1,,,61,127
59384,note_on,2,0,0,,1,,,61,127
59384,note_on,0,0,0,,10,,,69,127
59384,note_on,0,0,0,,4,,,64,127
59384,note_on,0,0,0,,1,,,85,127
59491,note_off,107,0,0,,1,,,85,127
59493,note_on,2,0,0,,12,,,83,127
59600,note_off,107,0,0,,12,,,83,127
59600,note_off,0,0,0,,4,,,64,127
59600,note_off,0,0,0,,10,,,69,127
59600,note_off,0,0,0,,1,,,61,127
59602,note_on,2,0,0,,10,,,69,127
59602,note_on,0,0,0,,4,,,64,127
59602,note_on,0,0,0,,1,,,61,127
59602,note_on,0,0,0,,12,,,83,127
59709,note_off,107,0,0,,12,,,83,127
59711,note_on,2,0,0,,10,,,81,127
59818,note_off,107,0,0,,10,,,81,127
59818,note_off,0,0,0,,1,,,61,127
59818,note_off,0,0,0,,4,,,64,127
59818,note_off,0,0,0,,10,,,69,127
59820,note_on,2,0,0,,3,,,63,127
59820,note_on,0,0,0,,12,,,71,127
59820,note_on,0,0,0,,10,,,69,127
59820,note_on,0,0,0,,10,,,81,127
59927,note_off,107,0,0,,10,,,81,127
59929,note_on,2,0,0,,11,,,82,127
60036,note_off,107,0,0,,11,,,82,127
60036,note_off,0,0,0,,10,,,69,127
60036,note_off,0,0,0,,12,,,71,127
60036,note_off,0,0,0,,3,,,63,127
60038,note_on,2,0,0,,3,,,63,127
60038,note_on,0,0,0,,10,,,69,127
60038,note_on,0,0,0,,12,,,71,127
60038,note_on,0,0,0,,11,,,82,127
60145,note_off,107,0,0,,11,,,82,127
60147,note_on,2,0,0,,12,,,83,127
60254,note_off,107,0,0,,12,,,83,127
60254,note_off,0,0,0,,12,,,71,127
60254,note_off,0,0,0,,10,,,69,127
60254,note_off,0,0,0,,3,,,63,127
60256,note_on,2,0,0,,10,,,69,127
60256,note_on,0,0,0,,3,,,63,127
60256,note_on,0,0,0,,12,,,71,127
60256,note_on,0,0,0,,12,,,83,127
60363,note_off,107,0,0,,12,,,83,127
60365,note_on,2,0,0,,10,,,81,127
60472,note_off,107,0,0,,10,,,81,127
60472,note_off,0,0,0,,12,,,71,127
60472,note_off,0,0,0,,3,,,63,127
60472,note_off,0,0,0,,10,,,69,127
60474,note_on,2,0,0,,8,,,68,127
60474,note_on,0,0,0,,4,,,64,127
60474,note_on,0,0,0,,10,,,81,127
60581,note_off,107,0,0,,10,,,81,127
60583,note_on,2,0,0,,8,,,80,127
60690,note_off,107,0,0,,8,,,80,127
60690,note_off,0,0,0,,4,,,64,127
60690,note_off,0,0,0,,8,,,68,127
60692,note_on,2,0,0,,6,,,66,127
60692,note_on,0,0,0,,10,,,69,127
60692,note_on,0,0,0,,8,,,80,127
60799,note_off,107,0,0,,8,,,80,127
60801,note_on,2,0,0,,10,,,81,127
60908,note_off,107,0,0,,10,,,81,127
60908,note_off,0,0,0,,10,,,69,127
60908,note_off,0,0,0,,6,,,66,127
60910,note_on,2,0,0,,12,,,71,127
60910,note_on,0,0,0,,8,,,68,127
60910,note_on,0,0,0,,10,,,81,127
61017,note_off,107,0,0,,10,,,81,127
61019,note_on,2,0,0,,12,,,83,127
61126,note_off,107,0,0,,12,,,83,127
61126,note_off,0,0,0,,8,,,68,127
61126,note_off,0,0,0,,12,,,71,127
61128,note_on,2,0,0,,10,,,57,127
61128,note_on,0,0,0,,10,,,69,127
61128,note_on,0,0,0,,12,,,83,127
61235,note_off,107,0,0,,12,,,83,127
61237,note_on,2,0,0,,10,,,81,127
61344,note_off,107,0,0,,10,,,81,127
61344,note_off,0,0,0,,10,,,57,127
61346,note_on,2,0,0,,12,,,59,127
61346,note_on,0,0,0,,10,,,81,127
61346,note_on,0,0,0,,12,,,83,127
61453,note_off,107,0,0,,12,,,83,127
61453,note_off,0,0,0,,10,,,81,127
61455,note_on,2,0,0,,8,,,80,127
61562,note_off,107,0,0,,8,,,80,127
61562,note_off,0,0,0,,12,,,59,127
61564,note_on,2,0,0,,1,,,61,127
61564,note_on,0,0,0,,6,,,78,127
61671,note_off,107,0,0,,6,,,78,127
61673,note_on,2,0,0,,4,,,76,127
61780,note_off,107,0,0,,4,,,76,127
61780,note_off,0,0,0,,1,,,61,127
61781,note_off,1,0,0,,10,,,69,127
61782,note_on,1,0,0,,12,,,59,127
61782,note_on,0,0,0,,12,,,71,127
61782,note_on,0,0,0,,3,,,75,127
61889,note_off,107,0,0,,3,,,75,127
61891,note_on,2,0,0,,11,,,82,127
61998,note_off,107,0,0,,11,,,82,127
61998,note_off,0,0,0,,12,,,71,127
61998,note_off,0,0,0,,12,,,59,127
62000,note_on,2,0,0,,8,,,68,127
62000,note_on,0,0,0,,11,,,82,127
62107,note_off,107,0,0,,11,,,82,127
62109,note_on,2,0,0,,12,,,83,127
62216,note_off,107,0,0,,12,,,83,127
62216,note_off,0,0,0,,8,,,68,127
62218,note_on,2,0,0,,4,,,64,127
62218,note_on,0,0,0,,11,,,82,127
62325,note_off,107,0,0,,11,,,82,127
62327,note_on,2,0,0,,12,,,83,127
62434,note_off,107,0,0,,12,,,83,127
62434,note_off,0,0,0,,4,,,64,127
62436,note_on,2,0,0,,10,,,57,127
62436,note_on,0,0,0,,10,,,69,127
62436,note_on,0,0,0,,12,,,83,127
62543,note_off,107,0,0,,12,,,83,127
62545,note_on,2,0,0,,10,,,81,127
62652,note_off,107,0,0,,10,,,81,127
62652,note_off,0,0,0,,10,,,57,127
62654,note_on,2,0,0,,12,,,59,127
62654,note_on,0,0,0,,10,,,81,127
62654,note_on,0,0,0,,12,,,83,127
62761,note_off,107,0,0,,12,,,83,127
62761,note_off,0,0,0,,10,,,81,127
62763,note_on,2,0,0,,8,,,80,127
62870,note_off,107,0,0,,8,,,80,127
62870,note_off,0,0,0,,12,,,59,127
62872,note_on,2,0,0,,1,,,61,127
62872,note_on,0,0,0,,6,,,78,127
62979,note_off,107,0,0,,6,,,78,127
62981,note_on,2,0,0,,4,,,76,127
63088,note_off,107,0,0,,4,,,76,127
63088,note_off,0,0,0,,1,,,61,127
63089,note_off,1,0,0,,10,,,69,127
63090,note_on,1,0,0,,12,,,59,127
63090,note_on,0,0,0,,12,,,71,127
63090,note_on,0,0,0,,3,,,75,127
63197,note_off,107,0,0,,3,,,75,127
63199,note_on,2,0,0,,11,,,82,127
63306,note_off,107,0,0,,11,,,82,127
63306,note_off,0,0,0,,12,,,71,127
63306,note_off,0,0,0,,12,,,59,127
63308,note_on,2,0,0,,8,,,68,127
63308,note_on,0,0,0,,11,,,82,127
63415,note_off,107,0,0,,11,,,82,127
63417,note_on,2,0,0,,12,,,83,127
63524,note_off,107,0,0,,12,,,83,127
63524,note_off,0,0,0,,8,,,68,127
63526,note_on,2,0,0,,4,,,64,127
63526,note_on,0,0,0,,11,,,82,127
63633,note_off,107,0,0,,11,,,82,127
63635,note_on,2,0,0,,12,,,83,127
63742,note_off,107,0,0,,12,,,83,127
63742,note_off,0,0,0,,4,,,64,127
63744,note_on,2,0,0,,10,,,57,127
63744,note_on,0,0,0,,10,,,69,127
63744,note_on,0,0,0,,12,,,83,127
63851,note_off,107,0,0,,12,,,83,127
63853,note_on,2,0,0,,10,,,81,127
63960,note_off,107,0,0,,10,,,81,127
63960,note_off,0,0,0,,10,,,57,127
63962,note_on,2,0,0,,12,,,59,127
63962,note_on,0,0,0,,10,,,81,127
63962,note_on,0,0,0,,12,,,83,127
64069,note_off,107,0,0,,12,,,83,127
64069,note_off,0,0,0,,10,,,81,127
64071,note_on,2,0,0,,8,,,80,127
64178,note_off,107,0,0,,8,,,80,127
64178,note_off,0,0,0,,12,,,59,127
64180,note_on,2,0,0,,1,,,61,127
64180,note_on,0,0,0,,6,,,78,127
64287,note_off,107,0,0,,6,,,78,127
64289,note_on,2,0,0,,4,,,76,127
64396,note_off,107,0,0,,4,,,76,127
64396,note_off,0,0,0,,1,,,61,127
64397,note_off,1,0,0,,10,,,69,127
64398,note_on,1,0,0,,4,,,52,127
64398,note_on,0,0,0,,12,,,47,127
64398,note_on,0,0,0,,6,,,54,127
64398,note_on,0,0,0,,12,,,59,127
64398,note_on,0,0,0,,10,,,57,127
64398,note_on,0,0,0,,12,,,83,127
64505,note_off,107,0,0,,12,,,83,127
64507,note_on,2,0,0,,6,,,78,127
64614,note_off,107,0,0,,6,,,78,127
64616,note_on,2,0,0,,7,,,79,127
64723,note_off,107,0,0,,7,,,79,127
64725,note_on,2,0,0,,3,,,75,127
64832,note_off,107,0,0,,3,,,75,127
64834,note_on,2,0,0,,4,,,76,127
64941,note_off,107,0,0,,4,,,76,127
64943,note_on,2,0,0,,12,,,71,127
65050,note_off,107,0,0,,12,,,71,127
65050,note_off,0,0,0,,10,,,57,127
65050,note_off,0,0,0,,12,,,59,127
65050,note_off,0,0,0,,6,,,54,127
65050,note_off,0,0,0,,12,,,47,127
65050,note_off,0,0,0,,4,,,52,127
65052,note_on,2,0,0,,0,,,48,127
65052,note_on,0,0,0,,12,,,59,127
65052,note_on,0,0,0,,10,,,57,127
65052,note_on,0,0,0,,6,,,54,127
65052,note_on,0,0,0,,4,,,52,127
65052,note_on,0,0,0,,0,,,72,127
65159,note_off,107,0,0,,0,,,72,127
65161,note_on,2,0,0,,7,,,67,127
65268,note_off,107,0,0,,7,,,67,127
65270,note_on,2,0,0,,10,,,69,127
65377,note_off,107,0,0,,10,,,69,127
65379,note_on,2,0,0,,6,,,66,127
65486,note_off,107,0,0,,6,,,66,127
65488,note_on,2,0,0,,7,,,67,127
65595,note_off,107,0,0,,7,,,67,127
65597,note_on,2,0,0,,4,,,64,127
65704,note_off,107,0,0,,4,,,64,127
65704,note_off,0,0,0,,4,,,52,127
65704,note_off,0,0,0,,6,,,54,127
65704,note_off,0,0,0,,10,,,57,127
65704,note_off,0,0,0,,12,,,59,127
65704,note_off,0,0,0,,0,,,48,127
65706,note_on,2,0,0,,12,,,47,127
65706,note_on,0,0,0,,4,,,52,127
65706,note_on,0,0,0,,6,,,54,127
65706,note_on,0,0,0,,12,,,59,127
65706,note_on,0,0,0,,10,,,57,127
65706,note_on,0,0,0,,12,,,83,127
65813,note_off,107,0,0,,12,,,83,127
65815,note_on,2,0,0,,6,,,78,127
65922,note_off,107,0,0,,6,,,78,127
65924,note_on,2,0,0,,7,,,79,127
66031,note_off,107,0,0,,7,,,79,127
66033,note_on,2,0,0,,3,,,75,127
66140,note_off,107,0,0,,3,,,75,127
66142,note_on,2,0,0,,4,,,76,127
66249,note_off,107,0,0,,4,,,76,127
66251,note_on,2,0,0,,12,,,71,127
66358,note_off,107,0,0,,12,,,71,127
66358,note_off,0,0,0,,10,,,57,127
66358,note_off,0,0,0,,12,,,59,127
66358,note_off,0,0,0,,6,,,54,127
66358,note_off,0,0,0,,4,,,52,127
66358,note_off,0,0,0,,12,,,47,127
66360,note_on,2,0,0,,0,,,48,127
66360,note_on,0,0,0,,6,,,54,127
66360,note_on,0,0,0,,4,,,52,127
66360,note_on,0,0,0,,12,,,59,127
66360,note_on,0,0,0,,10,,,57,127
66360,note_on,0,0,0,,0,,,72,127
66467,note_off,107,0,0,,0,,,72,127
66469,note_on,2,0,0,,7,,,67,127
66576,note_off,107,0,0,,7,,,67,127
66578,note_on,2,0,0,,10,,,69,127
66685,note_off,107,0,0,,10,,,69,127
66687,note_on,2,0,0,,6,,,66,127
66794,note_off,107,0,0,,6,,,66,127
66796,note_on,2,0,0,,7,,,67,127
66903,note_off,107,0,0,,7,,,67,127
66905,note_on,2,0,0,,4,,,64,127
67012,note_off,107,0,0,,4,,,64,127
67012,note_off,0,0,0,,10,,,57,127
67012,note_off,0,0,0,,12,,,59,127
67012,note_off,0,0,0,,4,,,52,127
67012,note_off,0,0,0,,6,,,54,127
67012,note_off,0,0,0,,0,,,48,127
67014,note_on,2,0,0,,12,,,47,127
67014,note_on,0,0,0,,3,,,63,127
67067,note_off,53,0,0,,3,,,63,127
67069,note_on,2,0,0,,4,,,64,127
67122,note_off,53,0,0,,4,,,64,127
67122,note_off,0,0,0,,12,,,47,127
67124,note_on,2,0,0,,12,,,59,127
67124,note_on,0,0,0,,3,,,63,127
67177,note_off,53,0,0,,3,,,63,127
67179,note_on,2,0,0,,4,,,64,127
67232,note_off,53,0,0,,4,,,64,127
67232,note_off,0,0,0,,12,,,59,127
67234,note_on,2,0,0,,12,,,59,127
67234,note_on,0,0,0,,3,,,63,127
67341,note_off,107,0,0,,12,,,59,127
67343,note_on,2,0,0,,10,,,57,127
67450,note_off,107,0,0,,10,,,57,127
67451,note_off,1,0,0,,3,,,63,127
67452,note_on,1,0,0,,10,,,57,127
67559,note_off,107,0,0,,10,,,57,127
67561,note_on,2,0,0,,8,,,56,127
67668,note_off,107,0,0,,8,,,56,127
67670,note_on,2,0,0,,8,,,56,127
67670,note_on,0,0,0,,12,,,71,127
67777,note_off,107,0,0,,12,,,71,127
67779,note_on,2,0,0,,10,,,69,127
67886,note_off,107,0,0,,10,,,69,127
67886,note_off,0,0,0,,8,,,56,127
67888,note_on,2,0,0,,6,,,54,127
67888,note_on,0,0,0,,10,,,69,127
67995,note_off,107,0,0,,10,,,69,127
67997,note_on,2,0,0,,8,,,68,127
68104,note_off,107,0,0,,8,,,68,127
68104,note_off,0,0,0,,6,,,54,127
68106,note_on,2,0,0,,4,,,52,127
68106,note_on,0,0,0,,8,,,68,127
68213,note_off,107,0,0,,8,,,68,127
68215,note_on,2,0,0,,6,,,66,127
68322,note_off,107,0,0,,6,,,66,127
68322,note_off,0,0,0,,4,,,52,127
68324,note_on,2,0,0,,12,,,47,127
68324,note_on,0,0,0,,8,,,68,127
68377,note_off,53,0,0,,8,,,68,127
68379,note_on,2,0,0,,6,,,66,127
68432,note_off,53,0,0,,6,,,66,127
68432,note_off,0,0,0,,12,,,47,127
68434,note_on,2,0,0,,12,,,59,127
68434,note_on,0,0,0,,8,,,68,127
68487,note_off,53,0,0,,8,,,68,127
68489,note_on,2,0,0,,6,,,66,127
68542,note_off,53,0,0,,12,,,59,127
68544,note_on,2,0,0,,12,,,59,127
68651,note_off,107,0,0,,12,,,59,127
68653,note_on,2,0,0,,10,,,57,127
68760,note_off,107,0,0,,10,,,57,127
68762,note_on,2,0,0,,10,,,57,127
68869,note_off,107,0,0,,10,,,57,127
68871,note_on,2,0,0,,8,,,56,127
68925,note_off,54,0,0,,6,,,66,127
68979,note_off,54,0,0,,8,,,56,127
68981,note_on,2,0,0,,8,,,56,127
68981,note_on,0,0,0,,12,,,71,127
69088,note_off,107,0,0,,12,,,71,127
69090,note_on,2,0,0,,10,,,69,127
69197,note_off,107,0,0,,10,,,69,127
69197,note_off,0,0,0,,8,,,56,127
69199,note_on,2,0,0,,6,,,54,127
69199,note_on,0,0,0,,10,,,69,127
69306,note_off,107,0,0,,10,,,69,127
69308,note_on,2,0,0,,8,,,68,127
69415,note_off,107,0,0,,8,,,68,127
69415,note_off,0,0,0,,6,,,54,127
69417,note_on,2,0,0,,4,,,52,127
69417,note_on,0,0,0,,8,,,68,127
69524,note_off,107,0,0,,8,,,68,127
69526,note_on,2,0,0,,6,,,66,127
69633,note_off,107,0,0,,6,,,66,127
69633,note_off,0,0,0,,4,,,52,127
69635,note_on,2,0,0,,12,,,47,127
69635,note_on,0,0,0,,8,,,68,127
69688,note_off,53,0,0,,8,,,68,127
69690,note_on,2,0,0,,6,,,66,127
69743,note_off,53,0,0,,6,,,66,127
69743,note_off,0,0,0,,12,,,47,127
69745,note_on,2,0,0,,12,,,59,127
69745,note_on,0,0,0,,8,,,68,127
69798,note_off,53,0,0,,8,,,68,127
69800,note_on,2,0,0,,6,,,66,127
69853,note_off,53,0,0,,12,,,59,127
69855,note_on,2,0,0,,12,,,59,127
69962,note_off,107,0,0,,12,,,59,127
69964,note_on,2,0,0,,10,,,57,127
70071,note_off,107,0,0,,10,,,57,127
70073,note_on,2,0,0,,10,,,57,127
70180,note_off,107,0,0,,10,,,57,127
70182,note_on,2,0,0,,8,,,56,127
70236,note_off,54,0,0,,6,,,66,127
70290,note_off,54,0,0,,8,,,56,127
70292,note_on,2,0,0,,8,,,56,127
70292,note_on,0,0,0,,12,,,71,127
70399,note_off,107,0,0,,12,,,71,127
70401,note_on,2,0,0,,10,,,69,127
70508,note_off,107,0,0,,10,,,69,127
70508,note_off,0,0,0,,8,,,56,127
70510,note_on,2,0,0,,6,,,54,127
70510,note_on,0,0,0,,10,,,69,127
70617,note_off,107,0,0,,10,,,69,127
70619,note_on,2,0,0,,8,,,68,127
70726,note_off,107,0,0,,8,,,68,127
70726,note_off,0,0,0,,6,,,54,127
70728,note_on,2,0,0,,4,,,52,127
70728,note_on,0,0,0,,8,,,68,127
70835,note_off,107,0,0,,8,,,68,127
70837,note_on,2,0,0,,6,,,66,127
70944,note_off,107,0,0,,6,,,66,127
70944,note_off,0,0,0,,4,,,52,127
70946,note_on,2,0,0,,10,,,57,127
70946,note_on,0,0,0,,1,,,73,127
71053,note_off,107,0,0,,1,,,73,127
71055,note_on,2,0,0,,12,,,71,127
71162,note_off,107,0,0,,12,,,71,127
71162,note_off,0,0,0,,10,,,57,127
71164,note_on,2,0,0,,8,,,56,127
71164,note_on,0,0,0,,12,,,71,127
71271,note_off,107,0,0,,12,,,71,127
71273,note_on,2,0,0,,10,,,69,127
71380,note_off,107,0,0,,10,,,69,127
71380,note_off,0,0,0,,8,,,56,127
71382,note_on,2,0,0,,6,,,54,127
71382,note_on,0,0,0,,10,,,69,127
71489,note_off,107,0,0,,10,,,69,127
71491,note_on,2,0,0,,8,,,68,127
71598,note_off,107,0,0,,8,,,68,127
71598,note_off,0,0,0,,6,,,54,127
71600,note_on,2,0,0,,12,,,59,127
71600,note_on,0,0,0,,3,,,75,127
71707,note_off,107,0,0,,3,,,75,127
71709,note_on,2,0,0,,1,,,73,127
71816,note_off,107,0,0,,1,,,73,127
71816,note_off,0,0,0,,12,,,59,127
71818,note_on,2,0,0,,10,,,57,127
71818,note_on,0,0,0,,1,,,73,127
71925,note_off,107,0,0,,1,,,73,127
71927,note_on,2,0,0,,12,,,71,127
72034,note_off,107,0,0,,12,,,71,127
72034,note_off,0,0,0,,10,,,57,127
72036,note_on,2,0,0,,8,,,56,127
72036,note_on,0,0,0,,12,,,71,127
72143,note_off,107,0,0,,12,,,71,127
72145,note_on,2,0,0,,10,,,69,127
72252,note_off,107,0,0,,10,,,69,127
72252,note_off,0,0,0,,8,,,56,127
72254,note_on,2,0,0,,1,,,61,127
72254,note_on,0,0,0,,4,,,76,127
72361,note_off,107,0,0,,4,,,76,127
72363,note_on,2,0,0,,3,,,75,127
72470,note_off,107,0,0,,3,,,75,127
72470,note_off,0,0,0,,1,,,61,127
72472,note_on,2,0,0,,12,,,59,127
72472,note_on,0,0,0,,3,,,75,127
72579,note_off,107,0,0,,3,,,75,127
72581,note_on,2,0,0,,1,,,73,127
72688,note_off,107,0,0,,1,,,73,127
72688,note_off,0,0,0,,12,,,59,127
72690,note_on,2,0,0,,10,,,57,127
72690,note_on,0,0,0,,1,,,73,127
72797,note_off,107,0,0,,1,,,73,127
72799,note_on,2,0,0,,12,,,71,127
72906,note_off,107,0,0,,12,,,71,127
72906,note_off,0,0,0,,10,,,57,127
72908,note_on,2,0,0,,3,,,63,127
72908,note_on,0,0,0,,6,,,78,127
73015,note_off,107,0,0,,6,,,78,127
73017,note_on,2,0,0,,4,,,76,127
73124,note_off,107,0,0,,4,,,76,127
73124,note_off,0,0,0,,3,,,63,127
73126,note_on,2,0,0,,1,,,61,127
73126,note_on,0,0,0,,4,,,76,127
73233,note_off,107,0,0,,4,,,76,127
73235,note_on,2,0,0,,3,,,75,127
73342,note_off,107,0,0,,3,,,75,127
73342,note_off,0,0,0,,1,,,61,127
73344,note_on,2,0,0,,12,,,59,127
73344,note_on,0,0,0,,3,,,75,127
73451,note_off,107,0,0,,3,,,75,127
73453,note_on,2,0,0,,1,,,73,127
73560,note_off,107,0,0,,1,,,73,127
73560,note_off,0,0,0,,12,,,59,127
73562,note_on,2,0,0,,4,,,52,127
73562,note_on,0,0,0,,4,,,64,127
73562,note_on,0,0,0,,8,,,80,127
73669,note_off,107,0,0,,8,,,80,127
73671,note_on,2,0,0,,10,,,81,127
73778,note_off,107,0,0,,10,,,81,127
73778,note_off,0,0,0,,4,,,52,127
73780,note_on,2,0,0,,6,,,54,127
73780,note_on,0,0,0,,10,,,81,127
73887,note_off,107,0,0,,10,,,81,127
73889,note_on,2,0,0,,11,,,82,127
73996,note_off,107,0,0,,11,,,82,127
73996,note_off,0,0,0,,6,,,54,127
73998,note_on,2,0,0,,8,,,56,127
73998,note_on,0,0,0,,11,,,82,127
74105,note_off,107,0,0,,11,,,82,127
74107,note_on,2,0,0,,12,,,83,127
74214,note_off,107,0,0,,12,,,83,127
74214,note_off,0,0,0,,8,,,56,127
74215,note_off,1,0,0,,4,,,64,127
74216,note_on,1,0,0,,10,,,57,127
74216,note_on,0,0,0,,4,,,64,127
74216,note_on,0,0,0,,12,,,83,127
74323,note_off,107,0,0,,12,,,83,127
74325,note_on,2,0,0,,1,,,85,127
74432,note_off,107,0,0,,1,,,85,127
74432,note_off,0,0,0,,10,,,57,127
74434,note_on,2,0,0,,12,,,59,127
74434,note_on,0,0,0,,1,,,85,127
74541,note_off,107,0,0,,1,,,85,127
74543,note_on,2,0,0,,12,,,83,127
74650,note_off,107,0,0,,12,,,83,127
74650,note_off,0,0,0,,12,,,59,127
74652,note_on,2,0,0,,1,,,61,127
74652,note_on,0,0,0,,10,,,81,127
74652,note_on,0,0,0,,12,,,83,127
74759,note_off,107,0,0,,12,,,83,127
74759,note_off,0,0,0,,10,,,81,127
74761,note_on,2,0,0,,8,,,80,127
74868,note_off,107,0,0,,8,,,80,127
74868,note_off,0,0,0,,1,,,61,127
74869,note_off,1,0,0,,4,,,64,127
74870,note_on,1,0,0,,12,,,59,127
74870,note_on,0,0,0,,8,,,80,127
74977,note_off,107,0,0,,8,,,80,127
74979,note_on,2,0,0,,6,,,78,127
75086,note_off,107,0,0,,6,,,78,127
75086,note_off,0,0,0,,12,,,59,127
75088,note_on,2,0,0,,10,,,57,127
75088,note_on,0,0,0,,4,,,76,127
75195,note_off,107,0,0,,4,,,76,127
75197,note_on,2,0,0,,3,,,75,127
75304,note_off,107,0,0,,3,,,75,127
75304,note_off,0,0,0,,10,,,57,127
75306,note_on,2,0,0,,8,,,56,127
75306,note_on,0,0,0,,4,,,76,127
75413,note_off,107,0,0,,4,,,76,127
75415,note_on,2,0,0,,8,,,80,127
75522,note_off,107,0,0,,8,,,80,127
75522,note_off,0,0,0,,8,,,56,127
75524,note_on,2,0,0,,10,,,57,127
75524,note_on,0,0,0,,6,,,78,127
75631,note_off,107,0,0,,6,,,78,127
75633,note_on,2,0,0,,10,,,81,127
75740,note_off,107,0,0,,10,,,81,127
75740,note_off,0,0,0,,10,,,57,127
75742,note_on,2,0,0,,12,,,59,127
75742,note_on,0,0,0,,8,,,80,127
75849,note_off,107,0,0,,8,,,80,127
75851,note_on,2,0,0,,6,,,78,127
75958,note_off,107,0,0,,6,,,78,127
75960,note_on,2,0,0,,12,,,47,127
75960,note_on,0,0,0,,4,,,76,127
76067,note_off,107,0,0,,4,,,76,127
76069,note_on,2,0,0,,3,,,75,127
76174,note_off,105,0,0,,12,,,59,127
76176,note_off,2,0,0,,3,,,75,127
76177,note_off,1,0,0,,12,,,47,127
76178,note_on,1,0,0,,6,,,78,127
76231,note_off,53,0,0,,6,,,78,127
76233,note_on,2,0,0,,4,,,76,127
76286,note_off,53,0,0,,4,,,76,127
76288,note_on,2,0,0,,6,,,78,127
76341,note_off,53,0,0,,6,,,78,127
76343,note_on,2,0,0,,4,,,76,127
76396,note_off,53,0,0,,4,,,76,127
76398,note_on,2,0,0,,4,,,64,127
76398,note_on,0,0,0,,0,,,72,127
76398,note_on,0,0,0,,6,,,78,127
76451,note_off,53,0,0,,6,,,78,127
76453,note_on,2,0,0,,4,,,76,127
76506,note_off,53,0,0,,4,,,76,127
76508,note_on,2,0,0,,6,,,78,127
76561,note_off,53,0,0,,6,,,78,127
76563,note_on,2,0,0,,4,,,76,127
76616,note_off,53,0,0,,4,,,76,127
76616,note_off,0,0,0,,0,,,72,127
76618,note_on,2,0,0,,12,,,71,127
76618,note_on,0,0,0,,6,,,78,127
76671,note_off,53,0,0,,6,,,78,127
76673,note_on,2,0,0,,4,,,76,127
76726,note_off,53,0,0,,4,,,76,127
76728,note_on,2,0,0,,6,,,78,127
76781,note_off,53,0,0,,6,,,78,127
76783,note_on,2,0,0,,4,,,76,127
76836,note_off,53,0,0,,4,,,76,127
76836,note_off,0,0,0,,12,,,71,127
76838,note_on,2,0,0,,10,,,69,127
76838,note_on,0,0,0,,0,,,72,127
76838,note_on,0,0,0,,6,,,78,127
76891,note_off,53,0,0,,6,,,78,127
76893,note_on,2,0,0,,4,,,76,127
76946,note_off,53,0,0,,4,,,76,127
76948,note_on,2,0,0,,6,,,78,127
77001,note_off,53,0,0,,6,,,78,127
77003,note_on,2,0,0,,4,,,76,127
77056,note_off,53,0,0,,4,,,76,127
77056,note_off,0,0,0,,0,,,72,127
77056,note_off,0,0,0,,10,,,69,127
77058,note_on,2,0,0,,7,,,67,127
77058,note_on,0,0,0,,12,,,71,127
77058,note_on,0,0,0,,6,,,78,127
77111,note_off,53,0,0,,6,,,78,127
77113,note_on,2,0,0,,4,,,76,127
77166,note_off,53,0,0,,4,,,76,127
77168,note_on,2,0,0,,6,,,78,127
77221,note_off,53,0,0,,6,,,78,127
77223,note_on,2,0,0,,4,,,76,127
77276,note_off,53,0,0,,4,,,76,127
77276,note_off,0,0,0,,12,,,71,127
77276,note_off,0,0,0,,7,,,67,127
77278,note_on,2,0,0,,6,,,66,127
77278,note_on,0,0,0,,10,,,69,127
77278,note_on,0,0,0,,6,,,78,127
77349,note_off,71,0,0,,6,,,78,127
77351,note_on,2,0,0,,7,,,79,127
77422,note_off,71,0,0,,7,,,79,127
77424,note_on,2,0,0,,10,,,81,127
77495,note_off,71,0,0,,10,,,81,127
77495,note_off,0,0,0,,10,,,69,127
77495,note_off,0,0,0,,6,,,66,127
77495,note_off,0,0,0,,4,,,64,127
77497,note_on,2,0,0,,4,,,64,127
77497,note_on,0,0,0,,10,,,81,127
77497,note_on,0,0,0,,7,,,79,127
77568,note_off,71,0,0,,7,,,79,127
77568,note_off,0,0,0,,10,,,81,127
77570,note_on,2,0,0,,6,,,78,127
77641,note_off,71,0,0,,6,,,78,127
77643,note_on,2,0,0,,4,,,76,127
77714,note_off,71,0,0,,4,,,76,127
77716,note_on,2,0,0,,0,,,72,127
77716,note_on,0,0,0,,6,,,78,127
77769,note_off,53,0,0,,6,,,78,127
77771,note_on,2,0,0,,4,,,76,127
77824,note_off,53,0,0,,4,,,76,127
77826,note_on,2,0,0,,6,,,78,127
77879,note_off,53,0,0,,6,,,78,127
77881,note_on,2,0,0,,4,,,76,127
77934,note_off,53,0,0,,4,,,76,127
77934,note_off,0,0,0,,0,,,72,127
77936,note_on,2,0,0,,12,,,71,127
77936,note_on,0,0,0,,6,,,78,127
77989,note_off,53,0,0,,6,,,78,127
77991,note_on,2,0,0,,4,,,76,127
78044,note_off,53,0,0,,4,,,76,127
78046,note_on,2,0,0,,6,,,78,127
78099,note_off,53,0,0,,6,,,78,127
78101,note_on,2,0,0,,4,,,76,127
78154,note_off,53,0,0,,4,,,76,127
78154,note_off,0,0,0,,12,,,71,127
78156,note_on,2,0,0,,10,,,69,127
78156,note_on,0,0,0,,0,,,72,127
78156,note_on,0,0,0,,6,,,78,127
78209,note_off,53,0,0,,6,,,78,127
78211,note_on,2,0,0,,4,,,76,127
78264,note_off,53,0,0,,4,,,76,127
78266,note_on,2,0,0,,6,,,78,127
78319,note_off,53,0,0,,6,,,78,127
78321,note_on,2,0,0,,4,,,76,127
78374,note_off,53,0,0,,4,,,76,127
78374,note_off,0,0,0,,0,,,72,127
78374,note_off,0,0,0,,10,,,69,127
78376,note_on,2,0,0,,7,,,67,127
78376,note_on,0,0,0,,12,,,71,127
78376,note_on,0,0,0,,6,,,78,127
78429,note_off,53,0,0,,6,,,78,127
78431,note_on,2,0,0,,4,,,76,127
78484,note_off,53,0,0,,4,,,76,127
78486,note_on,2,0,0,,6,,,78,127
78539,note_off,53,0,0,,6,,,78,127
78541,note_on,2,0,0,,4,,,76,127
78594,note_off,53,0,0,,4,,,76,127
78594,note_off,0,0,0,,12,,,71,127
78594,note_off,0,0,0,,7,,,67,127
78596,note_on,2,0,0,,6,,,66,127
78596,note_on,0,0,0,,10,,,69,127
78596,note_on,0,0,0,,6,,,78,127
78667,note_off,71,0,0,,6,,,78,127
78669,note_on,2,0,0,,7,,,79,127
78740,note_off,71,0,0,,7,,,79,127
78742,note_on,2,0,0,,10,,,81,127
78813,note_off,71,0,0,,10,,,81,127
78813,note_off,0,0,0,,10,,,69,127
78813,note_off,0,0,0,,6,,,66,127
78813,note_off,0,0,0,,4,,,64,127
78815,note_on,2,0,0,,4,,,64,127
78815,note_on,0,0,0,,10,,,81,127
78815,note_on,0,0,0,,7,,,79,127
78886,note_off,71,0,0,,7,,,79,127
78886,note_off,0,0,0,,10,,,81,127
78888,note_on,2,0,0,,6,,,78,127
78959,note_off,71,0,0,,6,,,78,127
78961,note_on,2,0,0,,4,,,76,127
79032,note_off,71,0,0,,4,,,76,127
79034,note_on,2,0,0,,0,,,72,127
79034,note_on,0,0,0,,6,,,78,127
79087,note_off,53,0,0,,6,,,78,127
79089,note_on,2,0,0,,4,,,76,127
79142,note_off,53,0,0,,4,,,76,127
79144,note_on,2,0,0,,6,,,78,127
79197,note_off,53,0,0,,6,,,78,127
79199,note_on,2,0,0,,4,,,76,127
79252,note_off,53,0,0,,4,,,76,127
79252,note_off,0,0,0,,0,,,72,127
79254,note_on,2,0,0,,12,,,71,127
79254,note_on,0,0,0,,6,,,78,127
79307,note_off,53,0,0,,6,,,78,127
79309,note_on,2,0,0,,4,,,76,127
79362,note_off,53,0,0,,4,,,76,127
79364,note_on,2,0,0,,6,,,78,127
79417,note_off,53,0,0,,6,,,78,127
79419,note_on,2,0,0,,4,,,76,127
79472,note_off,53,0,0,,4,,,76,127
79472,note_off,0,0,0,,12,,,71,127
79474,note_on,2,0,0,,10,,,69,127
79474,note_on,0,0,0,,0,,,72,127
79474,note_on,0,0,0,,6,,,78,127
79527,note_off,53,0,0,,6,,,78,127
79529,note_on,2,0,0,,4,,,76,127
79582,note_off,53,0,0,,4,,,76,127
79584,note_on,2,0,0,,6,,,78,127
79637,note_off,53,0,0,,6,,,78,127
79639,note_on,2,0,0,,4,,,76,127
79692,note_off,53,0,0,,4,,,76,127
79692,note_off,0,0,0,,0,,,72,127
79692,note_off,0,0,0,,10,,,69,127
79694,note_on,2,0,0,,7,,,67,127
79694,note_on,0,0,0,,12,,,71,127
79694,note_on,0,0,0,,6,,,78,127
79747,note_off,53,0,0,,6,,,78,127
79749,note_on,2,0,0,,4,,,76,127
79802,note_off,53,0,0,,4,,,76,127
79804,note_on,2,0,0,,6,,,78,127
79857,note_off,53,0,0,,6,,,78,127
79859,note_on,2,0,0,,4,,,76,127
79912,note_off,53,0,0,,4,,,76,127
79912,note_off,0,0,0,,12,,,71,127
79912,note_off,0,0,0,,7,,,67,127
79914,note_on,2,0,0,,6,,,66,127
79914,note_on,0,0,0,,10,,,69,127
79914,note_on,0,0,0,,6,,,78,127
79985,note_off,71,0,0,,6,,,78,127
79987,note_on,2,0,0,,7,,,79,127
80058,note_off,71,0,0,,7,,,79,127
80060,note_on,2,0,0,,10,,,81,127
80131,note_off,71,0,0,,10,,,81,127
80131,note_off,0,0,0,,10,,,69,127
80131,note_off,0,0,0,,6,,,66,127
80131,note_off,0,0,0,,4,,,64,127
80133,note_on,2,0,0,,12,,,59,127
80133,note_on,0,0,0,,4,,,52,127
80133,note_on,0,0,0,,10,,,57,127
80133,note_on,0,0,0,,12,,,83,127
80240,note_off,107,0,0,,12,,,83,127
80242,note_on,2,0,0,,6,,,78,127
80349,note_off,107,0,0,,6,,,78,127
80351,note_on,2,0,0,,7,,,79,127
80458,note_off,107,0,0,,7,,,79,127
80460,note_on,2,0,0,,3,,,75,127
80567,note_off,107,0,0,,3,,,75,127
80569,note_on,2,0,0,,4,,,76,127
80676,note_off,107,0,0,,4,,,76,127
80678,note_on,2,0,0,,12,,,71,127
80785,note_off,107,0,0,,12,,,71,127
80785,note_off,0,0,0,,10,,,57,127
80785,note_off,0,0,0,,4,,,52,127
80785,note_off,0,0,0,,12,,,59,127
80787,note_on,2,0,0,,4,,,52,127
80787,note_on,0,0,0,,10,,,57,127
80787,note_on,0,0,0,,12,,,59,127
80787,note_on,0,0,0,,0,,,72,127
80894,note_off,107,0,0,,0,,,72,127
80896,note_on,2,0,0,,7,,,67,127
81003,note_off,107,0,0,,7,,,67,127
81005,note_on,2,0,0,,10,,,69,127
81112,note_off,107,0,0,,10,,,69,127
81114,note_on,2,0,0,,6,,,66,127
81221,note_off,107,0,0,,6,,,66,127
81223,note_on,2,0,0,,7,,,67,127
81330,note_off,107,0,0,,7,,,67,127
81332,note_on,2,0,0,,4,,,64,127
81439,note_off,107,0,0,,4,,,64,127
81439,note_off,0,0,0,,12,,,59,127
81439,note_off,0,0,0,,10,,,57,127
81439,note_off,0,0,0,,4,,,52,127
81441,note_on,2,0,0,,3,,,51,127
81441,note_on,0,0,0,,10,,,57,127
81441,note_on,0,0,0,,12,,,59,127
81441,note_on,0,0,0,,12,,,83,127
81548,note_off,107,0,0,,12,,,83,127
81550,note_on,2,0,0,,4,,,76,127
81657,note_off,107,0,0,,4,,,76,127
81659,note_on,2,0,0,,6,,,78,127
81766,note_off,107,0,0,,6,,,78,127
81768,note_on,2,0,0,,12,,,71,127
81875,note_off,107,0,0,,12,,,71,127
81877,note_on,2,0,0,,0,,,72,127
81984,note_off,107,0,0,,0,,,72,127
81986,note_on,2,0,0,,10,,,69,127
82093,note_off,107,0,0,,10,,,69,127
82093,note_off,0,0,0,,12,,,59,127
82093,note_off,0,0,0,,10,,,57,127
82093,note_off,0,0,0,,3,,,51,127
82095,note_on,2,0,0,,3,,,51,127
82095,note_on,0,0,0,,10,,,57,127
82095,note_on,0,0,0,,12,,,59,127
82095,note_on,0,0,0,,12,,,71,127
82205,note_on,110,0,0,,6,,,78,127
82205,note_on,0,0,0,,10,,,81,127
82312,note_off,107,0,0,,12,,,71,127
82314,note_on,2,0,0,,12,,,71,127
82369,note_off,55,0,0,,10,,,81,127
82369,note_off,0,0,0,,6,,,78,127
82424,note_on,55,0,0,,4,,,76,127
82424,note_on,0,0,0,,7,,,79,127
82531,note_off,107,0,0,,12,,,71,127
82533,note_on,2,0,0,,12,,,71,127
82588,note_off,55,0,0,,7,,,79,127
82588,note_off,0,0,0,,4,,,76,127
82643,note_on,55,0,0,,3,,,75,127
82643,note_on,0,0,0,,6,,,78,127
82750,note_off,107,0,0,,12,,,71,127
82750,note_off,0,0,0,,12,,,59,127
82750,note_off,0,0,0,,10,,,57,127
82750,note_off,0,0,0,,3,,,51,127
82751,note_off,1,0,0,,6,,,78,127
82751,note_off,0,0,0,,3,,,75,127
82752,note_on,1,0,0,,4,,,52,127
82752,note_on,0,0,0,,12,,,59,127
82752,note_on,0,0,0,,10,,,57,127
82752,note_on,0,0,0,,12,,,83,127
82859,note_off,107,0,0,,12,,,83,127
82861,note_on,2,0,0,,6,,,78,127
82968,note_off,107,0,0,,6,,,78,127
82970,note_on,2,0,0,,7,,,79,127
83077,note_off,107,0,0,,7,,,79,127
83079,note_on,2,0,0,,3,,,75,127
83186,note_off,107,0,0,,3,,,75,127
83188,note_on,2,0,0,,4,,,76,127
83295,note_off,107,0,0,,4,,,76,127
83297,note_on,2,0,0,,12,,,71,127
83404,note_off,107,0,0,,12,,,71,127
83404,note_off,0,0,0,,10,,,57,127
83404,note_off,0,0,0,,12,,,59,127
83404,note_off,0,0,0,,4,,,52,127
83406,note_on,2,0,0,,10,,,57,127
83406,note_on,0,0,0,,4,,,52,127
83406,note_on,0,0,0,,12,,,59,127
83406,note_on,0,0,0,,0,,,72,127
83513,note_off,107,0,0,,0,,,72,127
83515,note_on,2,0,0,,7,,,67,127
83622,note_off,107,0,0,,7,,,67,127
83624,note_on,2,0,0,,10,,,69,127
83731,note_off,107,0,0,,10,,,69,127
83733,note_on,2,0,0,,6,,,66,127
83840,note_off,107,0,0,,6,,,66,127
83842,note_on,2,0,0,,7,,,67,127
83949,note_off,107,0,0,,7,,,67,127
83951,note_on,2,0,0,,4,,,64,127
84058,note_off,107,0,0,,4,,,64,127
84058,note_off,0,0,0,,12,,,59,127
84058,note_off,0,0,0,,4,,,52,127
84058,note_off,0,0,0,,10,,,57,127
84060,note_on,2,0,0,,3,,,51,127
84060,note_on,0,0,0,,10,,,57,127
84060,note_on,0,0,0,,12,,,59,127
84060,note_on,0,0,0,,12,,,83,127
84167,note_off,107,0,0,,12,,,83,127
84169,note_on,2,0,0,,4,,,76,127
84276,note_off,107,0,0,,4,,,76,127
84278,note_on,2,0,0,,6,,,78,127
84385,note_off,107,0,0,,6,,,78,127
84387,note_on,2,0,0,,12,,,71,127
84494,note_off,107,0,0,,12,,,71,127
84496,note_on,2,0,0,,0,,,72,127
84603,note_off,107,0,0,,0,,,72,127
84605,note_on,2,0,0,,10,,,69,127
84712,note_off,107,0,0,,10,,,69,127
84712,note_off,0,0,0,,12,,,59,127
84712,note_off,0,0,0,,10,,,57,127
84712,note_off,0,0,0,,3,,,51,127
84714,note_on,2,0,0,,3,,,51,127
84714,note_on,0,0,0,,12,,,59,127
84714,note_on,0,0,0,,10,,,57,127
84714,note_on,0,0,0,,12,,,71,127
84824,note_on,110,0,0,,10,,,81,127
84824,note_on,0,0,0,,6,,,78,127
84931,note_off,107,0,0,,12,,,71,127
84933,note_on,2,0,0,,12,,,71,127
84988,note_off,55,0,0,,6,,,78,127
84988,note_off,0,0,0,,10,,,81,127
85043,note_on,55,0,0,,4,,,76,127
85043,note_on,0,0,0,,7,,,79,127
85150,note_off,107,0,0,,12,,,71,127
85152,note_on,2,0,0,,12,,,71,127
85207,note_off,55,0,0,,7,,,79,127
85207,note_off,0,0,0,,4,,,76,127
85262,note_on,55,0,0,,3,,,75,127
85262,note_on,0,0,0,,6,,,78,127
85369,note_off,107,0,0,,6,,,78,127
85369,note_off,0,0,0,,3,,,75,127
85369,note_off,0,0,0,,12,,,71,127
85369,note_off,0,0,0,,10,,,57,127
85369,note_off,0,0,0,,12,,,59,127
85369,note_off,0,0,0,,3,,,51,127
85371,note_on,2,0,0,,7,,,55,127
85371,note_on,0,0,0,,4,,,52,127
85371,note_on,0,0,0,,12,,,83,127
85478,note_off,107,0,0,,12,,,83,127
85480,note_on,2,0,0,,6,,,78,127
85587,note_off,107,0,0,,6,,,78,127
85587,note_off,0,0,0,,4,,,52,127
85587,note_off,0,0,0,,7,,,55,127
85589,note_on,2,0,0,,6,,,54,127
85589,note_on,0,0,0,,10,,,57,127
85589,note_on,0,0,0,,7,,,79,127
85696,note_off,107,0,0,,7,,,79,127
85698,note_on,2,0,0,,3,,,75,127
85805,note_off,107,0,0,,3,,,75,127
85805,note_off,0,0,0,,10,,,57,127
85805,note_off,0,0,0,,6,,,54,127
85807,note_on,2,0,0,,7,,,55,127
85807,note_on,0,0,0,,12,,,59,127
85807,note_on,0,0,0,,4,,,76,127
85914,note_off,107,0,0,,4,,,76,127
85916,note_on,2,0,0,,12,,,71,127
86023,note_off,107,0,0,,12,,,71,127
86023,note_off,0,0,0,,12,,,59,127
86023,note_off,0,0,0,,7,,,55,127
86025,note_on,2,0,0,,10,,,57,127
86025,note_on,0,0,0,,10,,,45,127
86025,note_on,0,0,0,,0,,,72,127
86132,note_off,107,0,0,,0,,,72,127
86134,note_on,2,0,0,,7,,,67,127
86241,note_off,107,0,0,,7,,,67,127
86241,note_off,0,0,0,,10,,,45,127
86243,note_on,2,0,0,,12,,,47,127
86243,note_on,0,0,0,,10,,,69,127
86350,note_off,107,0,0,,10,,,69,127
86352,note_on,2,0,0,,6,,,66,127
86459,note_off,107,0,0,,6,,,66,127
86459,note_off,0,0,0,,12,,,47,127
86461,note_on,2,0,0,,0,,,48,127
86461,note_on,0,0,0,,7,,,67,127
86568,note_off,107,0,0,,7,,,67,127
86570,note_on,2,0,0,,4,,,64,127
86677,note_off,107,0,0,,4,,,64,127
86677,note_off,0,0,0,,0,,,48,127
86678,note_off,1,0,0,,10,,,57,127
86679,note_on,1,0,0,,12,,,47,127
86679,note_on,0,0,0,,7,,,55,127
86679,note_on,0,0,0,,4,,,64,127
86732,note_off,53,0,0,,4,,,64,127
86734,note_on,2,0,0,,3,,,63,127
86787,note_off,53,0,0,,3,,,63,127
86789,note_on,2,0,0,,4,,,64,127
86842,note_off,53,0,0,,4,,,64,127
86844,note_on,2,0,0,,3,,,63,127
86897,note_off,53,0,0,,3,,,63,127
86897,note_off,0,0,0,,7,,,55,127
86897,note_off,0,0,0,,12,,,47,127
86899,note_on,2,0,0,,10,,,45,127
86899,note_on,0,0,0,,6,,,54,127
86899,note_on,0,0,0,,4,,,64,127
86952,note_off,53,0,0,,4,,,64,127
86954,note_on,2,0,0,,3,,,63,127
87007,note_off,53,0,0,,3,,,63,127
87009,note_on,2,0,0,,1,,,61,127
87062,note_off,53,0,0,,1,,,61,127
87064,note_on,2,0,0,,3,,,63,127
87117,note_off,53,0,0,,3,,,63,127
87117,note_off,0,0,0,,6,,,54,127
87117,note_off,0,0,0,,10,,,45,127
87119,note_on,2,0,0,,7,,,43,127
87119,note_on,0,0,0,,4,,,52,127
87119,note_on,0,0,0,,4,,,64,127
87336,note_off,217,0,0,,4,,,64,127
87336,note_off,0,0,0,,4,,,52,127
87336,note_off,0,0,0,,7,,,43,127
87338,note_on,2,0,0,,10,,,45,127
87338,note_on,0,0,0,,4,,,52,127
87338,note_on,0,0,0,,6,,,66,127
87409,note_off,71,0,0,,6,,,66,127
87411,note_on,2,0,0,,7,,,67,127
87482,note_off,71,0,0,,7,,,67,127
87484,note_on,2,0,0,,10,,,69,127
87555,note_off,71,0,0,,10,,,69,127
87555,note_off,0,0,0,,4,,,52,127
87555,note_off,0,0,0,,10,,,45,127
87557,note_on,2,0,0,,12,,,47,127
87557,note_on,0,0,0,,4,,,52,127
87557,note_on,0,0,0,,7,,,55,127
87557,note_on,0,0,0,,7,,,67,127
87664,note_off,107,0,0,,7,,,67,127
87666,note_on,2,0,0,,6,,,66,127
87773,note_off,107,0,0,,6,,,66,127
87773,note_off,0,0,0,,7,,,55,127
87773,note_off,0,0,0,,4,,,52,127
87775,note_on,2,0,0,,10,,,57,127
87775,note_on,0,0,0,,6,,,54,127
87775,note_on,0,0,0,,4,,,64,127
87882,note_off,107,0,0,,4,,,64,127
87884,note_on,2,0,0,,3,,,63,127
87989,note_off,105,0,0,,12,,,47,127
87991,note_off,2,0,0,,3,,,63,127
87991,note_off,0,0,0,,6,,,54,127
87991,note_off,0,0,0,,10,,,57,127
87993,note_on,2,0,0,,4,,,40,127
87993,note_on,0,0,0,,4,,,52,127
87993,note_on,0,0,0,,12,,,83,127
88100,note_off,107,0,0,,12,,,83,127
88102,note_on,2,0,0,,8,,,80,127
88209,note_off,107,0,0,,8,,,80,127
88211,note_on,2,0,0,,4,,,76,127
88318,note_off,107,0,0,,4,,,76,127
88320,note_on,2,0,0,,12,,,71,127
88427,note_off,107,0,0,,12,,,71,127
88427,note_off,0,0,0,,4,,,52,127
88427,note_off,0,0,0,,4,,,40,127
88429,note_on,2,0,0,,8,,,56,127
88429,note_on,0,0,0,,8,,,68,127
88536,note_off,107,0,0,,8,,,68,127
88538,note_on,2,0,0,,4,,,64,127
88645,note_off,107,0,0,,4,,,64,127
88645,note_off,0,0,0,,8,,,56,127
88647,note_on,2,0,0,,10,,,57,127
88647,note_on,0,0,0,,6,,,66,127
88754,note_off,107,0,0,,6,,,66,127
88756,note_on,2,0,0,,12,,,71,127
88863,note_off,107,0,0,,12,,,71,127
88863,note_off,0,0,0,,10,,,57,127
88865,note_on,2,0,0,,12,,,59,127
88865,note_on,0,0,0,,1,,,73,127
88918,note_off,53,0,0,,1,,,73,127
88920,note_on,2,0,0,,12,,,71,127
88973,note_off,53,0,0,,12,,,71,127
88975,note_on,2,0,0,,1,,,73,127
89028,note_off,53,0,0,,1,,,73,127
89030,note_on,2,0,0,,12,,,71,127
89083,note_off,53,0,0,,12,,,71,127
89085,note_on,2,0,0,,12,,,47,127
89085,note_on,0,0,0,,1,,,73,127
89138,note_off,53,0,0,,1,,,73,127
89140,note_on,2,0,0,,12,,,71,127
89193,note_off,53,0,0,,12,,,71,127
89195,note_on,2,0,0,,11,,,70,127
89248,note_off,53,0,0,,11,,,70,127
89250,note_on,2,0,0,,12,,,71,127
89300,note_off,50,0,0,,12,,,59,127
89302,note_off,2,0,0,,12,,,71,127
89302,note_off,0,0,0,,12,,,47,127
89304,note_on,2,0,0,,4,,,52,127
89304,note_on,0,0,0,,4,,,40,127
89304,note_on,0,0,0,,12,,,83,127
89411,note_off,107,0,0,,12,,,83,127
89413,note_on,2,0,0,,8,,,80,127
89520,note_off,107,0,0,,8,,,80,127
89522,note_on,2,0,0,,4,,,76,127
89629,note_off,107,0,0,,4,,,76,127
89631,note_on,2,0,0,,12,,,71,127
89738,note_off,107,0,0,,12,,,71,127
89738,note_off,0,0,0,,4,,,40,127
89738,note_off,0,0,0,,4,,,52,127
89740,note_on,2,0,0,,8,,,56,127
89740,note_on,0,0,0,,8,,,68,127
89847,note_off,107,0,0,,8,,,68,127
89849,note_on,2,0,0,,4,,,64,127
89956,note_off,107,0,0,,4,,,64,127
89956,note_off,0,0,0,,8,,,56,127
89958,note_on,2,0,0,,10,,,57,127
89958,note_on,0,0,0,,6,,,66,127
90065,note_off,107,0,0,,6,,,66,127
90067,note_on,2,0,0,,6,,,78,127
90174,note_off,107,0,0,,6,,,78,127
90174,note_off,0,0,0,,10,,,57,127
90176,note_on,2,0,0,,12,,,59,127
90176,note_on,0,0,0,,8,,,80,127
90229,note_off,53,0,0,,8,,,80,127
90231,note_on,2,0,0,,6,,,78,127
90284,note_off,53,0,0,,6,,,78,127
90286,note_on,2,0,0,,8,,,80,127
90339,note_off,53,0,0,,8,,,80,127
90341,note_on,2,0,0,,6,,,78,127
90394,note_off,53,0,0,,6,,,78,127
90396,note_on,2,0,0,,12,,,47,127
90396,note_on,0,0,0,,8,,,80,127
90449,note_off,53,0,0,,8,,,80,127
90451,note_on,2,0,0,,6,,,78,127
90504,note_off,53,0,0,,6,,,78,127
90506,note_on,2,0,0,,4,,,76,127
90559,note_off,53,0,0,,4,,,76,127
90561,note_on,2,0,0,,6,,,78,127
90611,note_off,50,0,0,,12,,,59,127
90613,note_off,2,0,0,,6,,,78,127
90613,note_off,0,0,0,,12,,,47,127
90615,note_on,2,0,0,,4,,,52,127
90615,note_on,0,0,0,,4,,,40,127
90615,note_on,0,0,0,,12,,,83,127
90722,note_off,107,0,0,,12,,,83,127
90724,note_on,2,0,0,,8,,,80,127
90831,note_off,107,0,0,,8,,,80,127
90833,note_on,2,0,0,,4,,,76,127
90940,note_off,107,0,0,,4,,,76,127
90942,note_on,2,0,0,,12,,,71,127
91049,note_off,107,0,0,,12,,,71,127
91049,note_off,0,0,0,,4,,,40,127
91049,note_off,0,0,0,,4,,,52,127
91051,note_on,2,0,0,,8,,,56,127
91051,note_on,0,0,0,,8,,,68,127
91158,note_off,107,0,0,,8,,,68,127
91160,note_on,2,0,0,,4,,,64,127
91267,note_off,107,0,0,,4,,,64,127
91267,note_off,0,0,0,,8,,,56,127
91269,note_on,2,0,0,,10,,,57,127
91269,note_on,0,0,0,,6,,,66,127
91376,note_off,107,0,0,,6,,,66,127
91378,note_on,2,0,0,,12,,,71,127
91485,note_off,107,0,0,,12,,,71,127
91485,note_off,0,0,0,,10,,,57,127
91487,note_on,2,0,0,,12,,,59,127
91487,note_on,0,0,0,,1,,,73,127
91540,note_off,53,0,0,,1,,,73,127
91542,note_on,2,0,0,,12,,,71,127
91595,note_off,53,0,0,,12,,,71,127
91597,note_on,2,0,0,,1,,,73,127
91650,note_off,53,0,0,,1,,,73,127
91652,note_on,2,0,0,,12,,,71,127
91705,note_off,53,0,0,,12,,,71,127
91707,note_on,2,0,0,,12,,,47,127
91707,note_on,0,0,0,,1,,,73,127
91760,note_off,53,0,0,,1,,,73,127
91762,note_on,2,0,0,,12,,,71,127
91815,note_off,53,0,0,,12,,,71,127
91817,note_on,2,0,0,,11,,,70,127
91870,note_off,53,0,0,,11,,,70,127
91872,note_on,2,0,0,,12,,,71,127
91922,note_off,50,0,0,,12,,,59,127
91924,note_off,2,0,0,,12,,,71,127
91924,note_off,0,0,0,,12,,,47,127
91926,note_on,2,0,0,,4,,,40,127
91926,note_on,0,0,0,,4,,,52,127
91926,note_on,0,0,0,,12,,,83,127
92033,note_off,107,0,0,,12,,,83,127
92035,note_on,2,0,0,,8,,,80,127
92142,note_off,107,0,0,,8,,,80,127
92144,note_on,2,0,0,,4,,,76,127
92251,note_off,107,0,0,,4,,,76,127
92253,note_on,2,0,0,,12,,,71,127
92360,note_off,107,0,0,,12,,,71,127
92360,note_off,0,0,0,,4,,,52,127
92360,note_off,0,0,0,,4,,,40,127
92362,note_on,2,0,0,,8,,,56,127
92362,note_on,0,0,0,,8,,,68,127
92469,note_off,107,0,0,,8,,,68,127
92471,note_on,2,0,0,,4,,,64,127
92578,note_off,107,0,0,,4,,,64,127
92578,note_off,0,0,0,,8,,,56,127
92580,note_on,2,0,0,,10,,,57,127
92580,note_on,0,0,0,,6,,,66,127
92687,note_off,107,0,0,,6,,,66,127
92689,note_on,2,0,0,,6,,,78,127
92796,note_off,107,0,0,,6,,,78,127
92796,note_off,0,0,0,,10,,,57,127
92798,note_on,2,0,0,,12,,,59,127
92798,note_on,0,0,0,,8,,,80,127
92851,note_off,53,0,0,,8,,,80,127
92853,note_on,2,0,0,,6,,,78,127
92906,note_off,53,0,0,,6,,,78,127
92908,note_on,2,0,0,,8,,,80,127
92961,note_off,53,0,0,,8,,,80,127
92963,note_on,2,0,0,,6,,,78,127
93016,note_off,53,0,0,,6,,,78,127
93018,note_on,2,0,0,,12,,,47,127
93018,note_on,0,0,0,,8,,,80,127
93071,note_off,53,0,0,,8,,,80,127
93073,note_on,2,0,0,,6,,,78,127
93126,note_off,53,0,0,,6,,,78,127
93128,note_on,2,0,0,,4,,,76,127
93181,note_off,53,0,0,,4,,,76,127
93183,note_on,2,0,0,,6,,,78,127
93233,note_off,50,0,0,,12,,,59,127
93235,note_off,2,0,0,,6,,,78,127
93235,note_off,0,0,0,,12,,,47,127
93237,note_on,2,0,0,,4,,,40,127
93237,note_on,0,0,0,,4,,,76,127
93344,note_off,107,0,0,,4,,,76,127
93346,note_on,2,0,0,,12,,,83,127
93453,note_off,107,0,0,,12,,,83,127
93455,note_on,2,0,0,,8,,,80,127
93562,note_off,107,0,0,,8,,,80,127
93564,note_on,2,0,0,,4,,,76,127
93671,note_off,107,0,0,,4,,,76,127
93673,note_on,2,0,0,,12,,,71,127
93780,note_off,107,0,0,,12,,,71,127
93782,note_on,2,0,0,,8,,,68,127
93889,note_off,107,0,0,,8,,,68,127
93891,note_on,2,0,0,,4,,,64,127
93998,note_off,107,0,0,,4,,,64,127
94000,note_on,2,0,0,,12,,,59,127
94107,note_off,107,0,0,,12,,,59,127
94109,note_on,2,0,0,,8,,,56,127
94216,note_off,107,0,0,,8,,,56,127
94216,note_off,0,0,0,,4,,,40,127
94218,note_on,2,0,0,,4,,,52,127
94325,note_off,107,0,0,,4,,,52,127
94327,note_on,2,0,0,,12,,,47,127
94434,note_off,107,0,0,,12,,,47,127
94436,note_on,2,0,0,,8,,,44,127
94543,note_off,107,0,0,,8,,,44,127
94545,note_on,2,0,0,,4,,,40,127
95862,note_off,1317,0,0,,4,,,40,127
99840,end_of_track,3978,1,0,,,,,,
