tick,type,time,meta,track,program,channel,pitch,tempo,note,velocity
0,copyright,0,1,0,,,,,,
0,program_change,0,0,0,6,0,,,,
0,pitchwheel,0,0,0,,0,0,,,
0,program_change,0,0,0,6,1,,,,
0,pitchwheel,0,0,0,,1,-590,,,
0,program_change,0,0,0,6,2,,,,
0,pitchwheel,0,0,0,,2,-272,,,
0,program_change,0,0,0,6,3,,,,
0,pitchwheel,0,0,0,,3,-353,,,
0,program_change,0,0,0,6,4,,,,
0,pitchwheel,0,0,0,,4,-560,,,
0,program_change,0,0,0,6,5,,,,
0,pitchwheel,0,0,0,,5,-80,,,
0,program_change,0,0,0,6,6,,,,
0,pitchwheel,0,0,0,,6,-625,,,
0,program_change,0,0,0,6,7,,,,
0,pitchwheel,0,0,0,,7,-130,,,
0,program_change,0,0,0,6,8,,,,
0,pitchwheel,0,0,0,,8,-512,,,
0,program_change,0,0,0,6,10,,,,
0,pitchwheel,0,0,0,,10,-464,,,
0,program_change,0,0,0,6,11,,,,
0,pitchwheel,0,0,0,,11,-208,,,
0,program_change,0,0,0,6,12,,,,
0,pitchwheel,0,0,0,,12,-553,,,
0,set_tempo,0,1,0,,,,500000,,
74,note_on,74,0,0,,10,,,81,127
220,note_on,146,0,0,,6,,,78,127
221,note_off,1,0,0,,10,,,81,127
367,note_off,146,0,0,,6,,,78,127
369,note_on,2,0,0,,2,,,74,127
515,note_off,146,0,0,,2,,,74,127
517,note_on,2,0,0,,10,,,69,127
663,note_off,146,0,0,,10,,,69,127
665,note_on,2,0,0,,6,,,66,127
811,note_off,146,0,0,,6,,,66,127
813,note_on,2,0,0,,2,,,62,127
959,note_off,146,0,0,,2,,,62,127
961,note_on,2,0,0,,10,,,57,127
1107,note_off,146,0,0,,10,,,57,127
1109,note_on,2,0,0,,6,,,54,127
1255,note_off,146,0,0,,6,,,54,127
1257,note_on,2,0,0,,2,,,50,127
1403,note_off,146,0,0,,2,,,50,127
1405,note_on,2,0,0,,10,,,45,127
1551,note_off,146,0,0,,10,,,45,127
1553,note_on,2,0,0,,6,,,42,127
1699,note_off,146,0,0,,6,,,42,127
1701,note_on,2,0,0,,2,,,38,127
1850,note_on,149,0,0,,2,,,86,127
1996,note_off,146,0,0,,2,,,86,127
1998,note_on,2,0,0,,1,,,85,127
2144,note_off,146,0,0,,1,,,85,127
2144,note_off,0,0,0,,2,,,38,127
2146,note_on,2,0,0,,2,,,74,127
2146,note_on,0,0,0,,6,,,54,127
2146,note_on,0,0,0,,10,,,57,127
2295,note_on,149,0,0,,1,,,85,127
2441,note_off,146,0,0,,1,,,85,127
2443,note_on,2,0,0,,12,,,83,127
2589,note_off,146,0,0,,10,,,57,127
2589,note_off,0,0,0,,6,,,54,127
2591,note_off,2,0,0,,2,,,74,127
2592,note_on,1,0,0,,12,,,71,127
2592,note_on,0,0,0,,12,,,59,127
2592,note_on,0,0,0,,7,,,55,127
2740,note_off,148,0,0,,12,,,83,127
2741,note_on,1,0,0,,12,,,83,127
2887,note_off,146,0,0,,12,,,83,127
2889,note_on,2,0,0,,10,,,81,127
3035,note_off,146,0,0,,10,,,81,127
3035,note_off,0,0,0,,7,,,55,127
3035,note_off,0,0,0,,12,,,59,127
3037,note_off,2,0,0,,12,,,71,127
3038,note_on,1,0,0,,10,,,81,127
3038,note_on,0,0,0,,10,,,57,127
3038,note_on,0,0,0,,1,,,61,127
3110,note_off,72,0,0,,10,,,81,127
3112,note_on,2,0,0,,7,,,79,127
3184,note_off,72,0,0,,7,,,79,127
3186,note_on,2,0,0,,6,,,78,127
3332,note_off,146,0,0,,6,,,78,127
3334,note_on,2,0,0,,4,,,76,127
3480,note_off,146,0,0,,4,,,76,127
3480,note_off,0,0,0,,1,,,61,127
3480,note_off,0,0,0,,10,,,57,127
3482,note_on,2,0,0,,6,,,78,127
3482,note_on,0,0,0,,10,,,69,127
3482,note_on,0,0,0,,2,,,62,127
3628,note_off,146,0,0,,6,,,78,127
3630,note_on,2,0,0,,2,,,86,127
3776,note_off,146,0,0,,2,,,86,127
3778,note_on,2,0,0,,10,,,81,127
3924,note_off,146,0,0,,2,,,62,127
3926,note_off,2,0,0,,10,,,69,127
3927,note_on,1,0,0,,10,,,69,127
3927,note_on,0,0,0,,2,,,62,127
3927,note_on,0,0,0,,6,,,54,127
4075,note_off,148,0,0,,10,,,81,127
4076,note_on,1,0,0,,10,,,81,127
4222,note_off,146,0,0,,10,,,81,127
4224,note_on,2,0,0,,7,,,79,127
4370,note_off,146,0,0,,6,,,54,127
4370,note_off,0,0,0,,2,,,62,127
4372,note_off,2,0,0,,10,,,69,127
4373,note_on,1,0,0,,12,,,71,127
4373,note_on,0,0,0,,2,,,62,127
4373,note_on,0,0,0,,7,,,55,127
4521,note_off,148,0,0,,7,,,79,127
4522,note_on,1,0,0,,7,,,79,127
4668,note_off,146,0,0,,7,,,79,127
4670,note_on,2,0,0,,6,,,78,127
4816,note_off,146,0,0,,6,,,78,127
4816,note_off,0,0,0,,7,,,55,127
4816,note_off,0,0,0,,2,,,62,127
4818,note_off,2,0,0,,12,,,71,127
4819,note_on,1,0,0,,6,,,78,127
4819,note_on,0,0,0,,10,,,57,127
4891,note_off,72,0,0,,6,,,78,127
4893,note_on,2,0,0,,4,,,76,127
4965,note_off,72,0,0,,4,,,76,127
4967,note_on,2,0,0,,2,,,74,127
5113,note_off,146,0,0,,2,,,74,127
5115,note_on,2,0,0,,1,,,73,127
5261,note_off,146,0,0,,1,,,73,127
5261,note_off,0,0,0,,10,,,57,127
5263,note_on,2,0,0,,2,,,74,127
5263,note_on,0,0,0,,2,,,62,127
5263,note_on,0,0,0,,2,,,50,127
5409,note_off,146,0,0,,2,,,74,127
5411,note_on,2,0,0,,2,,,86,127
5557,note_off,146,0,0,,2,,,86,127
5559,note_on,2,0,0,,1,,,85,127
5705,note_off,146,0,0,,2,,,50,127
5705,note_off,0,0,0,,2,,,62,127
5707,note_on,2,0,0,,2,,,74,127
5707,note_on,0,0,0,,10,,,57,127
5707,note_on,0,0,0,,6,,,54,127
5855,note_off,148,0,0,,1,,,85,127
5856,note_on,1,0,0,,1,,,85,127
6002,note_off,146,0,0,,1,,,85,127
6004,note_on,2,0,0,,12,,,83,127
6150,note_off,146,0,0,,6,,,54,127
6150,note_off,0,0,0,,10,,,57,127
6152,note_off,2,0,0,,2,,,74,127
6153,note_on,1,0,0,,12,,,71,127
6153,note_on,0,0,0,,12,,,59,127
6153,note_on,0,0,0,,7,,,55,127
6301,note_off,148,0,0,,12,,,83,127
6302,note_on,1,0,0,,12,,,83,127
6448,note_off,146,0,0,,12,,,83,127
6450,note_on,2,0,0,,10,,,81,127
6596,note_off,146,0,0,,10,,,81,127
6596,note_off,0,0,0,,7,,,55,127
6596,note_off,0,0,0,,12,,,59,127
6598,note_off,2,0,0,,12,,,71,127
6599,note_on,1,0,0,,10,,,81,127
6599,note_on,0,0,0,,10,,,57,127
6599,note_on,0,0,0,,1,,,61,127
6671,note_off,72,0,0,,10,,,81,127
6673,note_on,2,0,0,,7,,,79,127
6745,note_off,72,0,0,,7,,,79,127
6747,note_on,2,0,0,,6,,,78,127
6893,note_off,146,0,0,,6,,,78,127
6895,note_on,2,0,0,,4,,,76,127
7041,note_off,146,0,0,,4,,,76,127
7041,note_off,0,0,0,,1,,,61,127
7041,note_off,0,0,0,,10,,,57,127
7043,note_on,2,0,0,,6,,,78,127
7043,note_on,0,0,0,,10,,,69,127
7043,note_on,0,0,0,,2,,,62,127
7189,note_off,146,0,0,,6,,,78,127
7191,note_on,2,0,0,,12,,,83,127
7337,note_off,146,0,0,,12,,,83,127
7339,note_on,2,0,0,,10,,,81,127
7485,note_off,146,0,0,,2,,,62,127
7487,note_off,2,0,0,,10,,,69,127
7488,note_on,1,0,0,,10,,,69,127
7488,note_on,0,0,0,,2,,,62,127
7488,note_on,0,0,0,,6,,,54,127
7636,note_off,148,0,0,,10,,,81,127
7637,note_on,1,0,0,,10,,,81,127
7783,note_off,146,0,0,,10,,,81,127
7785,note_on,2,0,0,,7,,,79,127
7931,note_off,146,0,0,,6,,,54,127
7931,note_off,0,0,0,,2,,,62,127
7933,note_off,2,0,0,,10,,,69,127
7934,note_on,1,0,0,,12,,,71,127
7934,note_on,0,0,0,,7,,,55,127
7934,note_on,0,0,0,,2,,,62,127
8082,note_off,148,0,0,,7,,,79,127
8083,note_on,1,0,0,,7,,,79,127
8229,note_off,146,0,0,,7,,,79,127
8231,note_on,2,0,0,,6,,,78,127
8377,note_off,146,0,0,,6,,,78,127
8377,note_off,0,0,0,,2,,,62,127
8377,note_off,0,0,0,,7,,,55,127
8379,note_off,2,0,0,,12,,,71,127
8380,note_on,1,0,0,,6,,,78,127
8380,note_on,0,0,0,,10,,,57,127
8380,note_on,0,0,0,,1,,,61,127
8452,note_off,72,0,0,,6,,,78,127
8454,note_on,2,0,0,,4,,,76,127
8526,note_off,72,0,0,,4,,,76,127
8528,note_on,2,0,0,,2,,,74,127
8674,note_off,146,0,0,,2,,,74,127
8676,note_on,2,0,0,,1,,,73,127
8822,note_off,146,0,0,,1,,,73,127
8822,note_off,0,0,0,,1,,,61,127
8822,note_off,0,0,0,,10,,,57,127
8824,note_on,2,0,0,,2,,,74,127
8824,note_on,0,0,0,,2,,,62,127
8970,note_off,146,0,0,,2,,,62,127
8972,note_on,2,0,0,,6,,,66,127
9118,note_off,146,0,0,,6,,,66,127
9120,note_on,2,0,0,,2,,,62,127
9266,note_off,146,0,0,,2,,,62,127
9266,note_off,0,0,0,,2,,,74,127
9268,note_on,2,0,0,,4,,,76,127
9268,note_on,0,0,0,,7,,,67,127
9268,note_on,0,0,0,,1,,,61,127
9268,note_on,0,0,0,,10,,,57,127
9414,note_off,146,0,0,,7,,,67,127
9416,note_on,2,0,0,,10,,,69,127
9562,note_off,146,0,0,,10,,,69,127
9564,note_on,2,0,0,,4,,,64,127
9710,note_off,146,0,0,,4,,,64,127
9710,note_off,0,0,0,,10,,,57,127
9710,note_off,0,0,0,,1,,,61,127
9712,note_off,2,0,0,,4,,,76,127
9713,note_on,1,0,0,,6,,,66,127
9713,note_on,0,0,0,,2,,,74,127
9713,note_on,0,0,0,,2,,,62,127
9859,note_off,146,0,0,,2,,,62,127
9860,note_off,1,0,0,,6,,,66,127
9862,note_on,2,0,0,,6,,,66,127
10008,note_off,146,0,0,,6,,,66,127
10010,note_on,2,0,0,,2,,,62,127
10156,note_off,146,0,0,,2,,,62,127
10158,note_off,2,0,0,,2,,,74,127
10159,note_on,1,0,0,,7,,,67,127
10159,note_on,0,0,0,,4,,,76,127
10159,note_on,0,0,0,,10,,,57,127
10159,note_on,0,0,0,,1,,,61,127
10305,note_off,146,0,0,,7,,,67,127
10307,note_on,2,0,0,,10,,,69,127
10453,note_off,146,0,0,,10,,,69,127
10455,note_on,2,0,0,,4,,,64,127
10601,note_off,146,0,0,,4,,,64,127
10601,note_off,0,0,0,,1,,,61,127
10601,note_off,0,0,0,,10,,,57,127
10603,note_off,2,0,0,,4,,,76,127
10604,note_on,1,0,0,,6,,,66,127
10604,note_on,0,0,0,,2,,,74,127
10604,note_on,0,0,0,,2,,,62,127
10750,note_off,146,0,0,,2,,,62,127
10751,note_off,1,0,0,,6,,,66,127
10753,note_on,2,0,0,,6,,,66,127
10899,note_off,146,0,0,,6,,,66,127
10901,note_on,2,0,0,,2,,,62,127
11047,note_off,146,0,0,,2,,,62,127
11047,note_off,0,0,0,,2,,,74,127
11049,note_on,2,0,0,,7,,,67,127
11049,note_on,0,0,0,,4,,,76,127
11049,note_on,0,0,0,,10,,,57,127
11195,note_off,146,0,0,,7,,,67,127
11197,note_on,2,0,0,,10,,,69,127
11343,note_off,146,0,0,,10,,,69,127
11345,note_on,2,0,0,,4,,,64,127
11491,note_off,146,0,0,,4,,,64,127
11491,note_off,0,0,0,,10,,,57,127
11493,note_off,2,0,0,,4,,,76,127
11494,note_on,1,0,0,,2,,,74,127
11494,note_on,0,0,0,,6,,,66,127
11494,note_on,0,0,0,,2,,,50,127
11640,note_off,146,0,0,,2,,,50,127
11642,note_on,2,0,0,,2,,,62,127
11788,note_off,146,0,0,,6,,,66,127
11789,note_off,1,0,0,,2,,,62,127
11791,note_off,2,0,0,,2,,,74,127
11792,note_on,1,0,0,,6,,,66,127
11938,note_off,146,0,0,,6,,,66,127
11940,note_on,2,0,0,,12,,,83,127
11940,note_on,0,0,0,,10,,,45,127
12086,note_off,146,0,0,,12,,,83,127
12088,note_on,2,0,0,,10,,,81,127
12234,note_off,146,0,0,,10,,,81,127
12236,note_on,2,0,0,,1,,,73,127
12236,note_on,0,0,0,,4,,,76,127
12382,note_off,146,0,0,,4,,,76,127
12382,note_off,0,0,0,,1,,,73,127
12382,note_off,0,0,0,,10,,,45,127
12384,note_on,2,0,0,,1,,,73,127
12384,note_on,0,0,0,,4,,,76,127
12384,note_on,0,0,0,,2,,,50,127
12530,note_off,146,0,0,,2,,,50,127
12532,note_on,2,0,0,,2,,,62,127
12678,note_off,146,0,0,,2,,,62,127
12678,note_off,0,0,0,,4,,,76,127
12678,note_off,0,0,0,,1,,,73,127
12680,note_on,2,0,0,,2,,,74,127
12680,note_on,0,0,0,,6,,,78,127
12680,note_on,0,0,0,,6,,,66,127
12826,note_off,146,0,0,,6,,,66,127
12826,note_off,0,0,0,,6,,,78,127
12826,note_off,0,0,0,,2,,,74,127
12828,note_on,2,0,0,,12,,,83,127
12828,note_on,0,0,0,,10,,,45,127
12974,note_off,146,0,0,,12,,,83,127
12976,note_on,2,0,0,,10,,,81,127
13122,note_off,146,0,0,,10,,,81,127
13124,note_on,2,0,0,,1,,,73,127
13124,note_on,0,0,0,,4,,,76,127
13270,note_off,146,0,0,,4,,,76,127
13270,note_off,0,0,0,,1,,,73,127
13270,note_off,0,0,0,,10,,,45,127
13272,note_on,2,0,0,,1,,,73,127
13272,note_on,0,0,0,,4,,,76,127
13272,note_on,0,0,0,,2,,,50,127
13418,note_off,146,0,0,,2,,,50,127
13420,note_on,2,0,0,,2,,,62,127
13566,note_off,146,0,0,,2,,,62,127
13566,note_off,0,0,0,,4,,,76,127
13566,note_off,0,0,0,,1,,,73,127
13568,note_on,2,0,0,,6,,,78,127
13568,note_on,0,0,0,,2,,,74,127
13568,note_on,0,0,0,,6,,,66,127
13714,note_off,146,0,0,,6,,,66,127
13714,note_off,0,0,0,,2,,,74,127
13714,note_off,0,0,0,,6,,,78,127
13716,note_on,2,0,0,,12,,,83,127
13716,note_on,0,0,0,,10,,,45,127
13862,note_off,146,0,0,,12,,,83,127
13864,note_on,2,0,0,,10,,,81,127
14010,note_off,146,0,0,,10,,,81,127
14012,note_on,2,0,0,,1,,,73,127
14012,note_on,0,0,0,,4,,,76,127
14158,note_off,146,0,0,,4,,,76,127
14158,note_off,0,0,0,,1,,,73,127
14158,note_off,0,0,0,,10,,,45,127
14160,note_on,2,0,0,,1,,,73,127
14160,note_on,0,0,0,,4,,,76,127
14160,note_on,0,0,0,,2,,,50,127
14455,note_off,295,0,0,,4,,,76,127
14455,note_off,0,0,0,,1,,,73,127
14457,note_on,2,0,0,,2,,,74,127
14457,note_on,0,0,0,,6,,,78,127
14603,note_off,146,0,0,,6,,,78,127
14603,note_off,0,0,0,,2,,,74,127
14603,note_off,0,0,0,,2,,,50,127
14605,note_on,2,0,0,,6,,,78,127
14605,note_on,0,0,0,,2,,,86,127
14605,note_on,0,0,0,,2,,,62,127
14751,note_off,146,0,0,,6,,,78,127
14753,note_on,2,0,0,,4,,,76,127
14899,note_off,146,0,0,,4,,,76,127
14901,note_on,2,0,0,,6,,,78,127
15047,note_off,146,0,0,,6,,,78,127
15047,note_off,0,0,0,,2,,,62,127
15049,note_off,2,0,0,,2,,,86,127
15050,note_on,1,0,0,,4,,,76,127
15050,note_on,0,0,0,,1,,,85,127
15050,note_on,0,0,0,,10,,,57,127
15196,note_off,146,0,0,,4,,,76,127
15198,note_on,2,0,0,,2,,,74,127
15344,note_off,146,0,0,,2,,,74,127
15346,note_on,2,0,0,,4,,,76,127
15492,note_off,146,0,0,,4,,,76,127
15492,note_off,0,0,0,,10,,,57,127
15494,note_off,2,0,0,,1,,,85,127
15495,note_on,1,0,0,,2,,,74,127
15495,note_on,0,0,0,,12,,,83,127
15495,note_on,0,0,0,,4,,,52,127
15641,note_off,146,0,0,,2,,,74,127
15643,note_on,2,0,0,,1,,,73,127
15789,note_off,146,0,0,,1,,,73,127
15791,note_on,2,0,0,,2,,,74,127
15937,note_off,146,0,0,,2,,,74,127
15937,note_off,0,0,0,,4,,,52,127
15939,note_off,2,0,0,,12,,,83,127
15940,note_on,1,0,0,,1,,,73,127
15940,note_on,0,0,0,,10,,,81,127
15940,note_on,0,0,0,,10,,,57,127
16086,note_off,146,0,0,,1,,,73,127
16088,note_on,2,0,0,,12,,,71,127
16234,note_off,146,0,0,,12,,,71,127
16236,note_on,2,0,0,,1,,,73,127
16382,note_off,146,0,0,,1,,,73,127
16382,note_off,0,0,0,,10,,,57,127
16384,note_off,2,0,0,,10,,,81,127
16385,note_on,1,0,0,,2,,,74,127
16385,note_on,0,0,0,,6,,,78,127
16385,note_on,0,0,0,,2,,,62,127
16531,note_off,146,0,0,,2,,,74,127
16533,note_on,2,0,0,,1,,,73,127
16679,note_off,146,0,0,,1,,,73,127
16681,note_on,2,0,0,,2,,,74,127
16827,note_off,146,0,0,,2,,,74,127
16827,note_off,0,0,0,,2,,,62,127
16829,note_off,2,0,0,,6,,,78,127
16830,note_on,1,0,0,,4,,,76,127
16830,note_on,0,0,0,,1,,,73,127
16830,note_on,0,0,0,,4,,,64,127
16976,note_off,146,0,0,,1,,,73,127
16978,note_on,2,0,0,,12,,,71,127
17124,note_off,146,0,0,,12,,,71,127
17126,note_on,2,0,0,,1,,,73,127
17272,note_off,146,0,0,,1,,,73,127
17274,note_off,2,0,0,,4,,,76,127
17275,note_on,1,0,0,,12,,,71,127
17275,note_on,0,0,0,,2,,,74,127
17275,note_on,0,0,0,,4,,,52,127
17421,note_off,146,0,0,,12,,,71,127
17423,note_on,2,0,0,,10,,,69,127
17569,note_off,146,0,0,,10,,,69,127
17571,note_on,2,0,0,,12,,,71,127
17717,note_off,146,0,0,,12,,,71,127
17717,note_off,0,0,0,,4,,,52,127
17718,note_off,1,0,0,,4,,,64,127
17719,note_off,1,0,0,,2,,,74,127
17720,note_on,1,0,0,,1,,,73,127
17720,note_on,0,0,0,,1,,,61,127
17720,note_on,0,0,0,,10,,,57,127
17869,note_on,149,0,0,,6,,,78,127
18015,note_off,146,0,0,,6,,,78,127
18017,note_on,2,0,0,,4,,,76,127
18163,note_off,146,0,0,,10,,,57,127
18163,note_off,0,0,0,,1,,,61,127
18165,note_off,2,0,0,,1,,,73,127
18166,note_on,1,0,0,,12,,,71,127
18166,note_on,0,0,0,,8,,,56,127
18166,note_on,0,0,0,,12,,,59,127
18314,note_off,148,0,0,,4,,,76,127
18315,note_on,1,0,0,,12,,,83,127
18461,note_off,146,0,0,,12,,,83,127
18463,note_on,2,0,0,,10,,,81,127
18609,note_off,146,0,0,,10,,,81,127
18609,note_off,0,0,0,,12,,,59,127
18609,note_off,0,0,0,,8,,,56,127
18611,note_off,2,0,0,,12,,,71,127
18612,note_on,1,0,0,,12,,,71,127
18612,note_on,0,0,0,,10,,,69,127
18612,note_on,0,0,0,,6,,,54,127
18612,note_on,0,0,0,,10,,,57,127
18758,note_off,146,0,0,,10,,,69,127
18758,note_off,0,0,0,,12,,,71,127
18760,note_on,2,0,0,,8,,,68,127
18906,note_off,146,0,0,,8,,,68,127
18908,note_on,2,0,0,,10,,,69,127
19054,note_off,146,0,0,,10,,,69,127
19054,note_off,0,0,0,,10,,,57,127
19054,note_off,0,0,0,,6,,,54,127
19056,note_on,2,0,0,,12,,,71,127
19056,note_on,0,0,0,,4,,,52,127
19202,note_off,146,0,0,,12,,,71,127
19204,note_on,2,0,0,,1,,,73,127
19350,note_off,146,0,0,,1,,,73,127
19352,note_on,2,0,0,,2,,,74,127
19498,note_off,146,0,0,,2,,,74,127
19498,note_off,0,0,0,,4,,,52,127
19500,note_on,2,0,0,,1,,,73,127
19500,note_on,0,0,0,,1,,,61,127
19500,note_on,0,0,0,,10,,,57,127
19649,note_on,149,0,0,,6,,,78,127
19795,note_off,146,0,0,,6,,,78,127
19797,note_on,2,0,0,,4,,,76,127
19943,note_off,146,0,0,,10,,,57,127
19943,note_off,0,0,0,,1,,,61,127
19945,note_off,2,0,0,,1,,,73,127
19946,note_on,1,0,0,,12,,,71,127
19946,note_on,0,0,0,,8,,,56,127
19946,note_on,0,0,0,,12,,,59,127
20094,note_off,148,0,0,,4,,,76,127
20095,note_on,1,0,0,,12,,,83,127
20241,note_off,146,0,0,,12,,,83,127
20243,note_on,2,0,0,,10,,,81,127
20389,note_off,146,0,0,,10,,,81,127
20389,note_off,0,0,0,,12,,,59,127
20389,note_off,0,0,0,,8,,,56,127
20391,note_off,2,0,0,,12,,,71,127
20392,note_on,1,0,0,,12,,,71,127
20392,note_on,0,0,0,,10,,,69,127
20392,note_on,0,0,0,,6,,,54,127
20392,note_on,0,0,0,,10,,,57,127
20538,note_off,146,0,0,,10,,,69,127
20538,note_off,0,0,0,,12,,,71,127
20540,note_on,2,0,0,,8,,,68,127
20686,note_off,146,0,0,,8,,,68,127
20688,note_on,2,0,0,,10,,,69,127
20834,note_off,146,0,0,,10,,,69,127
20834,note_off,0,0,0,,10,,,57,127
20834,note_off,0,0,0,,6,,,54,127
20836,note_on,2,0,0,,12,,,71,127
20836,note_on,0,0,0,,4,,,52,127
20982,note_off,146,0,0,,12,,,71,127
20984,note_on,2,0,0,,1,,,73,127
21130,note_off,146,0,0,,1,,,73,127
21132,note_on,2,0,0,,2,,,74,127
21278,note_off,146,0,0,,2,,,74,127
21278,note_off,0,0,0,,4,,,52,127
21280,note_on,2,0,0,,0,,,72,127
21280,note_on,0,0,0,,0,,,60,127
21280,note_on,0,0,0,,10,,,57,127
21429,note_on,149,0,0,,0,,,84,127
21575,note_off,146,0,0,,0,,,84,127
21577,note_on,2,0,0,,12,,,83,127
21723,note_off,146,0,0,,10,,,57,127
21723,note_off,0,0,0,,0,,,60,127
21725,note_off,2,0,0,,0,,,72,127
21726,note_on,1,0,0,,12,,,71,127
21726,note_on,0,0,0,,7,,,55,127
21726,note_on,0,0,0,,12,,,59,127
21874,note_off,148,0,0,,12,,,83,127
21875,note_on,1,0,0,,12,,,83,127
22021,note_off,146,0,0,,12,,,83,127
22023,note_on,2,0,0,,10,,,81,127
22169,note_off,146,0,0,,12,,,59,127
22169,note_off,0,0,0,,7,,,55,127
22171,note_off,2,0,0,,12,,,71,127
22172,note_on,1,0,0,,10,,,69,127
22172,note_on,0,0,0,,5,,,53,127
22172,note_on,0,0,0,,10,,,57,127
22318,note_off,146,0,0,,10,,,69,127
22320,note_off,2,0,0,,10,,,81,127
22321,note_on,1,0,0,,8,,,80,127
22467,note_off,146,0,0,,8,,,80,127
22469,note_on,2,0,0,,10,,,81,127
22615,note_off,146,0,0,,10,,,81,127
22615,note_off,0,0,0,,10,,,57,127
22615,note_off,0,0,0,,5,,,53,127
22617,note_on,2,0,0,,12,,,83,127
22617,note_on,0,0,0,,2,,,50,127
22617,note_on,0,0,0,,10,,,57,127
22617,note_on,0,0,0,,12,,,59,127
22763,note_off,146,0,0,,12,,,83,127
22765,note_on,2,0,0,,0,,,84,127
22911,note_off,146,0,0,,0,,,84,127
22913,note_on,2,0,0,,2,,,86,127
23003,note_off,90,0,0,,2,,,50,127
23060,note_off,57,0,0,,2,,,86,127
23060,note_off,0,0,0,,12,,,59,127
23060,note_off,0,0,0,,10,,,57,127
23062,note_on,2,0,0,,0,,,72,127
23062,note_on,0,0,0,,0,,,60,127
23062,note_on,0,0,0,,10,,,57,127
23211,note_on,149,0,0,,0,,,84,127
23357,note_off,146,0,0,,0,,,84,127
23359,note_on,2,0,0,,12,,,83,127
23505,note_off,146,0,0,,10,,,57,127
23505,note_off,0,0,0,,0,,,60,127
23507,note_off,2,0,0,,0,,,72,127
23508,note_on,1,0,0,,12,,,71,127
23508,note_on,0,0,0,,12,,,59,127
23508,note_on,0,0,0,,7,,,55,127
23656,note_off,148,0,0,,12,,,83,127
23657,note_on,1,0,0,,12,,,83,127
23803,note_off,146,0,0,,12,,,83,127
23805,note_on,2,0,0,,10,,,81,127
23951,note_off,146,0,0,,7,,,55,127
23951,note_off,0,0,0,,12,,,59,127
23953,note_off,2,0,0,,12,,,71,127
23954,note_on,1,0,0,,10,,,69,127
23954,note_on,0,0,0,,5,,,53,127
23954,note_on,0,0,0,,10,,,57,127
24100,note_off,146,0,0,,10,,,69,127
24102,note_off,2,0,0,,10,,,81,127
24103,note_on,1,0,0,,8,,,80,127
24249,note_off,146,0,0,,8,,,80,127
24251,note_on,2,0,0,,10,,,81,127
24397,note_off,146,0,0,,10,,,81,127
24397,note_off,0,0,0,,10,,,57,127
24397,note_off,0,0,0,,5,,,53,127
24399,note_on,2,0,0,,12,,,83,127
24399,note_on,0,0,0,,12,,,59,127
24399,note_on,0,0,0,,2,,,50,127
24399,note_on,0,0,0,,10,,,57,127
24545,note_off,146,0,0,,12,,,83,127
24547,note_on,2,0,0,,0,,,84,127
24693,note_off,146,0,0,,0,,,84,127
24695,note_on,2,0,0,,2,,,86,127
24841,note_off,146,0,0,,2,,,86,127
24841,note_off,0,0,0,,2,,,50,127
24841,note_off,0,0,0,,12,,,59,127
24843,note_on,2,0,0,,2,,,86,127
24843,note_on,0,0,0,,10,,,69,127
24890,note_off,47,0,0,,2,,,86,127
24892,note_on,2,0,0,,0,,,84,127
24939,note_off,47,0,0,,0,,,84,127
24941,note_on,2,0,0,,2,,,86,127
24988,note_off,47,0,0,,2,,,86,127
24988,note_off,0,0,0,,10,,,69,127
24990,note_off,2,0,0,,10,,,57,127
24991,note_on,1,0,0,,0,,,84,127
24991,note_on,0,0,0,,0,,,72,127
25038,note_off,47,0,0,,0,,,84,127
25040,note_on,2,0,0,,2,,,86,127
25087,note_off,47,0,0,,2,,,86,127
25089,note_on,2,0,0,,0,,,84,127
25136,note_off,47,0,0,,0,,,84,127
25136,note_off,0,0,0,,0,,,72,127
25138,note_on,2,0,0,,2,,,86,127
25138,note_on,0,0,0,,10,,,69,127
25185,note_off,47,0,0,,2,,,86,127
25187,note_on,2,0,0,,0,,,84,127
25234,note_off,47,0,0,,0,,,84,127
25236,note_on,2,0,0,,2,,,86,127
25283,note_off,47,0,0,,2,,,86,127
25283,note_off,0,0,0,,10,,,69,127
25285,note_on,2,0,0,,0,,,84,127
25285,note_on,0,0,0,,2,,,62,127
25332,note_off,47,0,0,,0,,,84,127
25334,note_on,2,0,0,,2,,,86,127
25381,note_off,47,0,0,,2,,,86,127
25383,note_on,2,0,0,,0,,,84,127
25430,note_off,47,0,0,,0,,,84,127
25430,note_off,0,0,0,,2,,,62,127
25432,note_on,2,0,0,,2,,,86,127
25432,note_on,0,0,0,,5,,,65,127
25479,note_off,47,0,0,,2,,,86,127
25481,note_on,2,0,0,,0,,,84,127
25528,note_off,47,0,0,,0,,,84,127
25530,note_on,2,0,0,,2,,,86,127
25577,note_off,47,0,0,,2,,,86,127
25577,note_off,0,0,0,,5,,,65,127
25579,note_on,2,0,0,,0,,,84,127
25579,note_on,0,0,0,,2,,,62,127
25626,note_off,47,0,0,,0,,,84,127
25628,note_on,2,0,0,,12,,,83,127
25675,note_off,47,0,0,,12,,,83,127
25677,note_on,2,0,0,,10,,,81,127
25724,note_off,47,0,0,,10,,,81,127
25724,note_off,0,0,0,,2,,,62,127
25726,note_on,2,0,0,,0,,,84,127
25726,note_on,0,0,0,,7,,,67,127
25773,note_off,47,0,0,,0,,,84,127
25775,note_on,2,0,0,,12,,,83,127
25822,note_off,47,0,0,,12,,,83,127
25824,note_on,2,0,0,,0,,,84,127
25871,note_off,47,0,0,,0,,,84,127
25871,note_off,0,0,0,,7,,,67,127
25873,note_on,2,0,0,,12,,,83,127
25873,note_on,0,0,0,,12,,,71,127
25920,note_off,47,0,0,,12,,,83,127
25922,note_on,2,0,0,,0,,,84,127
25969,note_off,47,0,0,,0,,,84,127
25971,note_on,2,0,0,,12,,,83,127
26018,note_off,47,0,0,,12,,,83,127
26018,note_off,0,0,0,,12,,,71,127
26020,note_on,2,0,0,,0,,,84,127
26020,note_on,0,0,0,,7,,,67,127
26067,note_off,47,0,0,,0,,,84,127
26069,note_on,2,0,0,,12,,,83,127
26116,note_off,47,0,0,,12,,,83,127
26118,note_on,2,0,0,,0,,,84,127
26165,note_off,47,0,0,,0,,,84,127
26165,note_off,0,0,0,,7,,,67,127
26167,note_on,2,0,0,,12,,,83,127
26167,note_on,0,0,0,,0,,,60,127
26214,note_off,47,0,0,,12,,,83,127
26216,note_on,2,0,0,,0,,,84,127
26263,note_off,47,0,0,,0,,,84,127
26265,note_on,2,0,0,,12,,,83,127
26312,note_off,47,0,0,,12,,,83,127
26312,note_off,0,0,0,,0,,,60,127
26314,note_on,2,0,0,,0,,,84,127
26314,note_on,0,0,0,,4,,,64,127
26361,note_off,47,0,0,,0,,,84,127
26363,note_on,2,0,0,,12,,,83,127
26410,note_off,47,0,0,,12,,,83,127
26412,note_on,2,0,0,,0,,,84,127
26459,note_off,47,0,0,,0,,,84,127
26459,note_off,0,0,0,,4,,,64,127
26461,note_on,2,0,0,,12,,,83,127
26461,note_on,0,0,0,,0,,,60,127
26508,note_off,47,0,0,,12,,,83,127
26510,note_on,2,0,0,,10,,,81,127
26557,note_off,47,0,0,,10,,,81,127
26559,note_on,2,0,0,,8,,,80,127
26606,note_off,47,0,0,,8,,,80,127
26606,note_off,0,0,0,,0,,,60,127
26608,note_on,2,0,0,,12,,,83,127
26608,note_on,0,0,0,,5,,,65,127
26655,note_off,47,0,0,,12,,,83,127
26657,note_on,2,0,0,,10,,,81,127
26704,note_off,47,0,0,,10,,,81,127
26706,note_on,2,0,0,,12,,,83,127
26753,note_off,47,0,0,,12,,,83,127
26753,note_off,0,0,0,,5,,,65,127
26755,note_on,2,0,0,,10,,,81,127
26755,note_on,0,0,0,,10,,,69,127
26802,note_off,47,0,0,,10,,,81,127
26804,note_on,2,0,0,,12,,,83,127
26851,note_off,47,0,0,,12,,,83,127
26853,note_on,2,0,0,,10,,,81,127
26900,note_off,47,0,0,,10,,,81,127
26900,note_off,0,0,0,,10,,,69,127
26902,note_on,2,0,0,,12,,,83,127
26902,note_on,0,0,0,,5,,,65,127
26949,note_off,47,0,0,,12,,,83,127
26951,note_on,2,0,0,,10,,,81,127
26998,note_off,47,0,0,,10,,,81,127
27000,note_on,2,0,0,,12,,,83,127
27047,note_off,47,0,0,,12,,,83,127
27047,note_off,0,0,0,,5,,,65,127
27049,note_on,2,0,0,,10,,,81,127
27049,note_on,0,0,0,,12,,,59,127
27096,note_off,47,0,0,,10,,,81,127
27098,note_on,2,0,0,,12,,,83,127
27145,note_off,47,0,0,,12,,,83,127
27147,note_on,2,0,0,,10,,,81,127
27194,note_off,47,0,0,,10,,,81,127
27194,note_off,0,0,0,,12,,,59,127
27196,note_on,2,0,0,,12,,,83,127
27196,note_on,0,0,0,,2,,,62,127
27243,note_off,47,0,0,,12,,,83,127
27245,note_on,2,0,0,,10,,,81,127
27292,note_off,47,0,0,,10,,,81,127
27294,note_on,2,0,0,,12,,,83,127
27341,note_off,47,0,0,,12,,,83,127
27341,note_off,0,0,0,,2,,,62,127
27343,note_on,2,0,0,,10,,,81,127
27343,note_on,0,0,0,,12,,,59,127
27390,note_off,47,0,0,,10,,,81,127
27392,note_on,2,0,0,,8,,,80,127
27439,note_off,47,0,0,,8,,,80,127
27441,note_on,2,0,0,,6,,,78,127
27488,note_off,47,0,0,,6,,,78,127
27488,note_off,0,0,0,,12,,,59,127
27490,note_on,2,0,0,,8,,,80,127
27490,note_on,0,0,0,,4,,,64,127
27636,note_off,146,0,0,,4,,,64,127
27636,note_off,0,0,0,,8,,,80,127
27638,note_on,2,0,0,,4,,,76,127
27638,note_on,0,0,0,,8,,,68,127
27784,note_off,146,0,0,,8,,,68,127
27784,note_off,0,0,0,,4,,,76,127
27786,note_on,2,0,0,,4,,,76,127
27786,note_on,0,0,0,,4,,,64,127
27932,note_off,146,0,0,,4,,,64,127
27932,note_off,0,0,0,,4,,,76,127
27934,note_on,2,0,0,,4,,,76,127
27934,note_on,0,0,0,,10,,,69,127
28080,note_off,146,0,0,,10,,,69,127
28080,note_off,0,0,0,,4,,,76,127
28082,note_on,2,0,0,,10,,,81,127
28082,note_on,0,0,0,,1,,,61,127
28228,note_off,146,0,0,,1,,,61,127
28228,note_off,0,0,0,,10,,,81,127
28230,note_on,2,0,0,,4,,,76,127
28230,note_on,0,0,0,,10,,,57,127
28376,note_off,146,0,0,,10,,,57,127
28376,note_off,0,0,0,,4,,,76,127
28378,note_on,2,0,0,,4,,,76,127
28378,note_on,0,0,0,,4,,,64,127
28524,note_off,146,0,0,,4,,,64,127
28524,note_off,0,0,0,,4,,,76,127
28526,note_on,2,0,0,,12,,,83,127
28526,note_on,0,0,0,,8,,,56,127
28672,note_off,146,0,0,,8,,,56,127
28672,note_off,0,0,0,,12,,,83,127
28674,note_on,2,0,0,,4,,,76,127
28674,note_on,0,0,0,,4,,,52,127
28820,note_off,146,0,0,,4,,,52,127
28820,note_off,0,0,0,,4,,,76,127
28822,note_on,2,0,0,,4,,,76,127
28822,note_on,0,0,0,,10,,,57,127
28968,note_off,146,0,0,,10,,,57,127
28968,note_off,0,0,0,,4,,,76,127
28970,note_on,2,0,0,,1,,,85,127
28970,note_on,0,0,0,,1,,,49,127
29116,note_off,146,0,0,,1,,,49,127
29116,note_off,0,0,0,,1,,,85,127
29118,note_on,2,0,0,,4,,,76,127
29118,note_on,0,0,0,,10,,,45,127
29264,note_off,146,0,0,,10,,,45,127
29264,note_off,0,0,0,,4,,,76,127
29266,note_on,2,0,0,,4,,,76,127
29266,note_on,0,0,0,,4,,,52,127
29412,note_off,146,0,0,,4,,,52,127
29412,note_off,0,0,0,,4,,,76,127
29414,note_on,2,0,0,,2,,,86,127
29414,note_on,0,0,0,,8,,,56,127
29560,note_off,146,0,0,,8,,,56,127
29560,note_off,0,0,0,,2,,,86,127
29562,note_on,2,0,0,,4,,,76,127
29562,note_on,0,0,0,,4,,,52,127
29708,note_off,146,0,0,,4,,,52,127
29708,note_off,0,0,0,,4,,,76,127
29710,note_on,2,0,0,,4,,,76,127
29710,note_on,0,0,0,,10,,,57,127
29856,note_off,146,0,0,,10,,,57,127
29856,note_off,0,0,0,,4,,,76,127
29858,note_on,2,0,0,,1,,,85,127
29858,note_on,0,0,0,,1,,,61,127
30004,note_off,146,0,0,,1,,,61,127
30004,note_off,0,0,0,,1,,,85,127
30006,note_on,2,0,0,,4,,,76,127
30006,note_on,0,0,0,,10,,,57,127
30152,note_off,146,0,0,,10,,,57,127
30152,note_off,0,0,0,,4,,,76,127
30154,note_on,2,0,0,,4,,,76,127
30154,note_on,0,0,0,,4,,,64,127
30300,note_off,146,0,0,,4,,,64,127
30300,note_off,0,0,0,,4,,,76,127
30302,note_on,2,0,0,,12,,,83,127
30302,note_on,0,0,0,,8,,,68,127
30448,note_off,146,0,0,,8,,,68,127
30448,note_off,0,0,0,,12,,,83,127
30450,note_on,2,0,0,,4,,,76,127
30450,note_on,0,0,0,,4,,,64,127
30596,note_off,146,0,0,,4,,,64,127
30596,note_off,0,0,0,,4,,,76,127
30598,note_on,2,0,0,,4,,,76,127
30598,note_on,0,0,0,,10,,,69,127
30744,note_off,146,0,0,,4,,,76,127
30746,note_on,2,0,0,,1,,,85,127
30892,note_off,146,0,0,,1,,,85,127
30894,note_on,2,0,0,,10,,,81,127
31040,note_off,146,0,0,,10,,,81,127
31040,note_off,0,0,0,,10,,,69,127
31042,note_on,2,0,0,,6,,,78,127
31042,note_on,0,0,0,,10,,,69,127
31042,note_on,0,0,0,,2,,,62,127
31188,note_off,146,0,0,,6,,,78,127
31190,note_on,2,0,0,,2,,,86,127
31336,note_off,146,0,0,,2,,,86,127
31338,note_on,2,0,0,,1,,,85,127
31484,note_off,146,0,0,,1,,,85,127
31484,note_off,0,0,0,,2,,,62,127
31484,note_off,0,0,0,,10,,,69,127
31486,note_on,2,0,0,,1,,,85,127
31486,note_on,0,0,0,,12,,,71,127
31486,note_on,0,0,0,,10,,,69,127
31486,note_on,0,0,0,,4,,,64,127
31558,note_off,72,0,0,,1,,,85,127
31560,note_on,2,0,0,,12,,,83,127
31632,note_off,72,0,0,,12,,,83,127
31634,note_on,2,0,0,,10,,,81,127
31780,note_off,146,0,0,,10,,,81,127
31782,note_on,2,0,0,,8,,,80,127
31928,note_off,146,0,0,,8,,,80,127
31928,note_off,0,0,0,,4,,,64,127
31928,note_off,0,0,0,,10,,,69,127
31928,note_off,0,0,0,,12,,,71,127
31930,note_on,2,0,0,,10,,,81,127
31930,note_on,0,0,0,,10,,,57,127
32076,note_off,146,0,0,,10,,,57,127
32078,note_on,2,0,0,,4,,,76,127
32078,note_on,0,0,0,,1,,,61,127
32224,note_off,146,0,0,,1,,,61,127
32224,note_off,0,0,0,,4,,,76,127
32226,note_off,2,0,0,,10,,,81,127
32227,note_on,1,0,0,,4,,,76,127
32227,note_on,0,0,0,,10,,,57,127
32373,note_off,146,0,0,,10,,,57,127
32373,note_off,0,0,0,,4,,,76,127
32375,note_on,2,0,0,,4,,,76,127
32375,note_on,0,0,0,,4,,,64,127
32521,note_off,146,0,0,,4,,,64,127
32523,note_on,2,0,0,,12,,,83,127
32523,note_on,0,0,0,,8,,,68,127
32669,note_off,146,0,0,,4,,,76,127
32670,note_off,1,0,0,,8,,,68,127
32670,note_off,0,0,0,,12,,,83,127
32672,note_on,2,0,0,,4,,,76,127
32672,note_on,0,0,0,,4,,,64,127
32818,note_off,146,0,0,,4,,,64,127
32818,note_off,0,0,0,,4,,,76,127
32820,note_on,2,0,0,,4,,,76,127
32820,note_on,0,0,0,,10,,,69,127
32966,note_off,146,0,0,,10,,,69,127
32968,note_on,2,0,0,,1,,,85,127
32968,note_on,0,0,0,,1,,,61,127
33114,note_off,146,0,0,,4,,,76,127
33115,note_off,1,0,0,,1,,,61,127
33115,note_off,0,0,0,,1,,,85,127
33117,note_on,2,0,0,,4,,,76,127
33117,note_on,0,0,0,,10,,,57,127
33263,note_off,146,0,0,,10,,,57,127
33263,note_off,0,0,0,,4,,,76,127
33265,note_on,2,0,0,,4,,,76,127
33265,note_on,0,0,0,,4,,,64,127
33411,note_off,146,0,0,,4,,,64,127
33413,note_on,2,0,0,,2,,,86,127
33413,note_on,0,0,0,,8,,,56,127
33559,note_off,146,0,0,,4,,,76,127
33560,note_off,1,0,0,,8,,,56,127
33560,note_off,0,0,0,,2,,,86,127
33562,note_on,2,0,0,,4,,,76,127
33562,note_on,0,0,0,,4,,,52,127
33708,note_off,146,0,0,,4,,,52,127
33708,note_off,0,0,0,,4,,,76,127
33710,note_on,2,0,0,,4,,,76,127
33710,note_on,0,0,0,,10,,,57,127
33856,note_off,146,0,0,,10,,,57,127
33858,note_on,2,0,0,,1,,,85,127
33858,note_on,0,0,0,,1,,,49,127
34004,note_off,146,0,0,,4,,,76,127
34005,note_off,1,0,0,,1,,,49,127
34005,note_off,0,0,0,,1,,,85,127
34007,note_on,2,0,0,,4,,,76,127
34007,note_on,0,0,0,,10,,,45,127
34153,note_off,146,0,0,,10,,,45,127
34153,note_off,0,0,0,,4,,,76,127
34155,note_on,2,0,0,,4,,,76,127
34155,note_on,0,0,0,,4,,,52,127
34301,note_off,146,0,0,,4,,,52,127
34303,note_on,2,0,0,,12,,,83,127
34303,note_on,0,0,0,,8,,,56,127
34449,note_off,146,0,0,,4,,,76,127
34450,note_off,1,0,0,,8,,,56,127
34450,note_off,0,0,0,,12,,,83,127
34452,note_on,2,0,0,,4,,,76,127
34452,note_on,0,0,0,,4,,,52,127
34598,note_off,146,0,0,,4,,,52,127
34598,note_off,0,0,0,,4,,,76,127
34600,note_on,2,0,0,,4,,,76,127
34600,note_on,0,0,0,,10,,,57,127
34746,note_off,146,0,0,,10,,,57,127
34748,note_on,2,0,0,,1,,,85,127
34748,note_on,0,0,0,,1,,,61,127
34894,note_off,146,0,0,,4,,,76,127
34895,note_off,1,0,0,,1,,,61,127
34895,note_off,0,0,0,,1,,,85,127
34897,note_on,2,0,0,,4,,,76,127
34897,note_on,0,0,0,,10,,,57,127
35043,note_off,146,0,0,,10,,,57,127
35043,note_off,0,0,0,,4,,,76,127
35045,note_on,2,0,0,,4,,,76,127
35045,note_on,0,0,0,,4,,,64,127
35191,note_off,146,0,0,,4,,,64,127
35193,note_on,2,0,0,,2,,,86,127
35193,note_on,0,0,0,,8,,,68,127
35339,note_off,146,0,0,,4,,,76,127
35340,note_off,1,0,0,,8,,,68,127
35340,note_off,0,0,0,,2,,,86,127
35342,note_on,2,0,0,,4,,,76,127
35342,note_on,0,0,0,,4,,,64,127
35488,note_off,146,0,0,,4,,,64,127
35488,note_off,0,0,0,,4,,,76,127
35490,note_on,2,0,0,,4,,,76,127
35490,note_on,0,0,0,,10,,,69,127
35636,note_off,146,0,0,,10,,,69,127
35638,note_on,2,0,0,,1,,,85,127
35638,note_on,0,0,0,,1,,,61,127
35784,note_off,146,0,0,,4,,,76,127
35785,note_off,1,0,0,,1,,,61,127
35785,note_off,0,0,0,,1,,,85,127
35787,note_on,2,0,0,,4,,,76,127
35787,note_on,0,0,0,,10,,,57,127
35933,note_off,146,0,0,,10,,,57,127
35933,note_off,0,0,0,,4,,,76,127
35935,note_on,2,0,0,,4,,,76,127
35935,note_on,0,0,0,,4,,,64,127
36081,note_off,146,0,0,,4,,,64,127
36083,note_on,2,0,0,,12,,,83,127
36083,note_on,0,0,0,,8,,,56,127
36229,note_off,146,0,0,,4,,,76,127
36230,note_off,1,0,0,,8,,,56,127
36230,note_off,0,0,0,,12,,,83,127
36232,note_on,2,0,0,,4,,,76,127
36232,note_on,0,0,0,,4,,,52,127
36378,note_off,146,0,0,,4,,,52,127
36378,note_off,0,0,0,,4,,,76,127
36380,note_on,2,0,0,,4,,,76,127
36380,note_on,0,0,0,,10,,,57,127
36526,note_off,146,0,0,,4,,,76,127
36528,note_on,2,0,0,,1,,,85,127
36674,note_off,146,0,0,,1,,,85,127
36676,note_on,2,0,0,,12,,,83,127
36822,note_off,146,0,0,,12,,,83,127
36822,note_off,0,0,0,,10,,,57,127
36824,note_on,2,0,0,,1,,,85,127
36824,note_on,0,0,0,,10,,,57,127
36824,note_on,0,0,0,,1,,,49,127
36896,note_off,72,0,0,,1,,,85,127
36898,note_on,2,0,0,,12,,,83,127
36970,note_off,72,0,0,,12,,,83,127
36972,note_on,2,0,0,,10,,,81,127
37118,note_off,146,0,0,,10,,,81,127
37120,note_on,2,0,0,,8,,,80,127
37266,note_off,146,0,0,,8,,,80,127
37266,note_off,0,0,0,,1,,,49,127
37266,note_off,0,0,0,,10,,,57,127
37268,note_on,2,0,0,,6,,,78,127
37268,note_on,0,0,0,,12,,,59,127
37268,note_on,0,0,0,,2,,,50,127
37268,note_on,0,0,0,,10,,,57,127
37414,note_off,146,0,0,,6,,,78,127
37416,note_on,2,0,0,,4,,,76,127
37562,note_off,146,0,0,,4,,,76,127
37564,note_on,2,0,0,,2,,,74,127
37710,note_off,146,0,0,,2,,,74,127
37710,note_off,0,0,0,,10,,,57,127
37710,note_off,0,0,0,,2,,,50,127
37710,note_off,0,0,0,,12,,,59,127
37712,note_on,2,0,0,,1,,,73,127
37712,note_on,0,0,0,,10,,,57,127
37712,note_on,0,0,0,,12,,,59,127
37712,note_on,0,0,0,,4,,,52,127
37858,note_off,146,0,0,,1,,,73,127
37860,note_on,2,0,0,,2,,,74,127
38006,note_off,146,0,0,,2,,,74,127
38008,note_on,2,0,0,,12,,,71,127
38154,note_off,146,0,0,,12,,,71,127
38154,note_off,0,0,0,,4,,,52,127
38154,note_off,0,0,0,,12,,,59,127
38154,note_off,0,0,0,,10,,,57,127
38156,note_on,2,0,0,,10,,,69,127
38156,note_on,0,0,0,,10,,,45,127
38302,note_off,146,0,0,,10,,,45,127
38304,note_on,2,0,0,,10,,,57,127
38450,note_off,146,0,0,,10,,,57,127
38452,note_off,2,0,0,,10,,,69,127
38453,note_on,1,0,0,,1,,,61,127
38599,note_off,146,0,0,,1,,,61,127
38601,note_on,2,0,0,,6,,,78,127
38601,note_on,0,0,0,,2,,,38,127
38747,note_off,146,0,0,,6,,,78,127
38749,note_on,2,0,0,,4,,,76,127
38895,note_off,146,0,0,,4,,,76,127
38895,note_off,0,0,0,,2,,,38,127
38897,note_on,2,0,0,,8,,,68,127
38897,note_on,0,0,0,,12,,,71,127
38897,note_on,0,0,0,,4,,,40,127
39043,note_off,146,0,0,,4,,,40,127
39043,note_off,0,0,0,,12,,,71,127
39043,note_off,0,0,0,,8,,,68,127
39045,note_on,2,0,0,,8,,,68,127
39045,note_on,0,0,0,,12,,,71,127
39045,note_on,0,0,0,,10,,,45,127
39191,note_off,146,0,0,,10,,,45,127
39193,note_on,2,0,0,,10,,,57,127
39339,note_off,146,0,0,,10,,,57,127
39339,note_off,0,0,0,,12,,,71,127
39339,note_off,0,0,0,,8,,,68,127
39341,note_on,2,0,0,,1,,,73,127
39341,note_on,0,0,0,,10,,,69,127
39341,note_on,0,0,0,,1,,,61,127
39487,note_off,146,0,0,,1,,,61,127
39487,note_off,0,0,0,,10,,,69,127
39487,note_off,0,0,0,,1,,,73,127
39489,note_on,2,0,0,,6,,,78,127
39489,note_on,0,0,0,,2,,,38,127
39635,note_off,146,0,0,,6,,,78,127
39637,note_on,2,0,0,,4,,,76,127
39783,note_off,146,0,0,,4,,,76,127
39783,note_off,0,0,0,,2,,,38,127
39785,note_on,2,0,0,,8,,,68,127
39785,note_on,0,0,0,,12,,,71,127
39785,note_on,0,0,0,,4,,,40,127
39931,note_off,146,0,0,,4,,,40,127
39931,note_off,0,0,0,,12,,,71,127
39931,note_off,0,0,0,,8,,,68,127
39933,note_on,2,0,0,,12,,,71,127
39933,note_on,0,0,0,,8,,,68,127
39933,note_on,0,0,0,,10,,,45,127
40079,note_off,146,0,0,,10,,,45,127
40081,note_on,2,0,0,,10,,,57,127
40227,note_off,146,0,0,,10,,,57,127
40227,note_off,0,0,0,,8,,,68,127
40227,note_off,0,0,0,,12,,,71,127
40229,note_on,2,0,0,,10,,,69,127
40229,note_on,0,0,0,,1,,,73,127
40229,note_on,0,0,0,,1,,,61,127
40375,note_off,146,0,0,,1,,,61,127
40375,note_off,0,0,0,,1,,,73,127
40375,note_off,0,0,0,,10,,,69,127
40377,note_on,2,0,0,,6,,,78,127
40377,note_on,0,0,0,,2,,,38,127
40523,note_off,146,0,0,,6,,,78,127
40525,note_on,2,0,0,,4,,,76,127
40671,note_off,146,0,0,,4,,,76,127
40671,note_off,0,0,0,,2,,,38,127
40673,note_on,2,0,0,,12,,,71,127
40673,note_on,0,0,0,,8,,,68,127
40673,note_on,0,0,0,,4,,,40,127
40819,note_off,146,0,0,,4,,,40,127
40819,note_off,0,0,0,,8,,,68,127
40819,note_off,0,0,0,,12,,,71,127
40821,note_on,2,0,0,,10,,,69,127
40821,note_on,0,0,0,,1,,,73,127
40821,note_on,0,0,0,,10,,,45,127
40967,note_off,146,0,0,,1,,,73,127
40969,note_on,2,0,0,,4,,,76,127
41115,note_off,146,0,0,,4,,,76,127
41115,note_off,0,0,0,,10,,,45,127
41117,note_off,2,0,0,,10,,,69,127
41118,note_on,1,0,0,,2,,,74,127
41118,note_on,0,0,0,,2,,,50,127
41264,note_off,146,0,0,,2,,,50,127
41264,note_off,0,0,0,,2,,,74,127
41266,note_on,2,0,0,,4,,,76,127
41266,note_on,0,0,0,,4,,,52,127
41338,note_off,72,0,0,,4,,,76,127
41340,note_on,2,0,0,,2,,,74,127
41412,note_off,72,0,0,,2,,,74,127
41414,note_on,2,0,0,,1,,,73,127
41560,note_off,146,0,0,,1,,,73,127
41560,note_off,0,0,0,,4,,,52,127
41562,note_on,2,0,0,,8,,,80,127
41562,note_on,0,0,0,,12,,,71,127
41562,note_on,0,0,0,,4,,,40,127
41708,note_off,146,0,0,,4,,,40,127
41708,note_off,0,0,0,,12,,,71,127
41708,note_off,0,0,0,,8,,,80,127
41710,note_on,2,0,0,,10,,,81,127
41710,note_on,0,0,0,,1,,,73,127
41710,note_on,0,0,0,,10,,,57,127
41856,note_off,146,0,0,,1,,,73,127
41858,note_on,2,0,0,,4,,,76,127
42004,note_off,146,0,0,,4,,,76,127
42004,note_off,0,0,0,,10,,,57,127
42006,note_on,2,0,0,,2,,,74,127
42006,note_on,0,0,0,,2,,,50,127
42152,note_off,146,0,0,,2,,,50,127
42153,note_off,1,0,0,,2,,,74,127
42155,note_on,2,0,0,,2,,,74,127
42155,note_on,0,0,0,,4,,,52,127
42302,note_off,147,0,0,,2,,,74,127
42304,note_on,2,0,0,,1,,,73,127
42450,note_off,146,0,0,,1,,,73,127
42450,note_off,0,0,0,,4,,,52,127
42451,note_off,1,0,0,,10,,,81,127
42453,note_on,2,0,0,,8,,,80,127
42453,note_on,0,0,0,,12,,,71,127
42453,note_on,0,0,0,,4,,,40,127
42599,note_off,146,0,0,,4,,,40,127
42599,note_off,0,0,0,,12,,,71,127
42599,note_off,0,0,0,,8,,,80,127
42601,note_on,2,0,0,,1,,,73,127
42601,note_on,0,0,0,,10,,,81,127
42601,note_on,0,0,0,,10,,,57,127
42747,note_off,146,0,0,,10,,,81,127
42747,note_off,0,0,0,,1,,,73,127
42749,note_on,2,0,0,,12,,,71,127
42749,note_on,0,0,0,,8,,,80,127
42895,note_off,146,0,0,,8,,,80,127
42895,note_off,0,0,0,,12,,,71,127
42895,note_off,0,0,0,,10,,,57,127
42897,note_on,2,0,0,,1,,,73,127
42897,note_on,0,0,0,,10,,,81,127
42897,note_on,0,0,0,,6,,,54,127
43043,note_off,146,0,0,,6,,,54,127
43043,note_off,0,0,0,,10,,,81,127
43043,note_off,0,0,0,,1,,,73,127
43045,note_on,2,0,0,,2,,,74,127
43045,note_on,0,0,0,,12,,,83,127
43045,note_on,0,0,0,,2,,,50,127
43191,note_off,146,0,0,,12,,,83,127
43191,note_off,0,0,0,,2,,,74,127
43193,note_on,2,0,0,,1,,,73,127
43193,note_on,0,0,0,,10,,,81,127
43339,note_off,146,0,0,,10,,,81,127
43339,note_off,0,0,0,,1,,,73,127
43339,note_off,0,0,0,,2,,,50,127
43341,note_on,2,0,0,,8,,,80,127
43341,note_on,0,0,0,,12,,,71,127
43341,note_on,0,0,0,,4,,,52,127
43487,note_off,146,0,0,,4,,,52,127
43487,note_off,0,0,0,,12,,,71,127
43487,note_off,0,0,0,,8,,,80,127
43489,note_on,2,0,0,,10,,,81,127
43489,note_on,0,0,0,,1,,,73,127
43489,note_on,0,0,0,,10,,,57,127
43635,note_off,146,0,0,,1,,,73,127
43635,note_off,0,0,0,,10,,,81,127
43637,note_on,2,0,0,,8,,,80,127
43637,note_on,0,0,0,,12,,,71,127
43783,note_off,146,0,0,,12,,,71,127
43783,note_off,0,0,0,,8,,,80,127
43783,note_off,0,0,0,,10,,,57,127
43785,note_on,2,0,0,,1,,,73,127
43785,note_on,0,0,0,,10,,,81,127
43785,note_on,0,0,0,,6,,,54,127
43931,note_off,146,0,0,,6,,,54,127
43931,note_off,0,0,0,,10,,,81,127
43931,note_off,0,0,0,,1,,,73,127
43933,note_on,2,0,0,,2,,,74,127
43933,note_on,0,0,0,,12,,,83,127
43933,note_on,0,0,0,,2,,,50,127
44079,note_off,146,0,0,,12,,,83,127
44079,note_off,0,0,0,,2,,,74,127
44081,note_on,2,0,0,,1,,,73,127
44081,note_on,0,0,0,,10,,,81,127
44227,note_off,146,0,0,,10,,,81,127
44227,note_off,0,0,0,,1,,,73,127
44227,note_off,0,0,0,,2,,,50,127
44229,note_on,2,0,0,,12,,,71,127
44229,note_on,0,0,0,,8,,,80,127
44229,note_on,0,0,0,,4,,,52,127
44375,note_off,146,0,0,,4,,,52,127
44375,note_off,0,0,0,,8,,,80,127
44375,note_off,0,0,0,,12,,,71,127
44377,note_on,2,0,0,,10,,,81,127
44377,note_on,0,0,0,,10,,,45,127
44523,note_off,146,0,0,,10,,,81,127
44525,note_on,2,0,0,,4,,,76,127
44671,note_off,146,0,0,,4,,,76,127
44673,note_on,2,0,0,,1,,,73,127
44819,note_off,146,0,0,,1,,,73,127
44821,note_on,2,0,0,,10,,,69,127
44967,note_off,146,0,0,,10,,,69,127
44969,note_on,2,0,0,,4,,,64,127
45115,note_off,146,0,0,,4,,,64,127
45117,note_on,2,0,0,,1,,,61,127
45263,note_off,146,0,0,,1,,,61,127
45263,note_off,0,0,0,,10,,,45,127
45265,note_on,2,0,0,,10,,,57,127
45265,note_on,0,0,0,,10,,,33,127
46155,note_off,890,0,0,,10,,,33,127
46155,note_off,0,0,0,,10,,,57,127
46157,note_on,2,0,0,,4,,,64,127
46157,note_on,0,0,0,,2,,,62,127
46157,note_on,0,0,0,,10,,,57,127
46306,note_on,149,0,0,,12,,,83,127
46452,note_off,146,0,0,,12,,,83,127
46454,note_on,2,0,0,,10,,,81,127
46600,note_off,146,0,0,,10,,,81,127
46600,note_off,0,0,0,,10,,,57,127
46600,note_off,0,0,0,,2,,,62,127
46600,note_off,0,0,0,,4,,,64,127
46602,note_on,2,0,0,,1,,,73,127
46602,note_on,0,0,0,,4,,,64,127
46602,note_on,0,0,0,,7,,,55,127
46602,note_on,0,0,0,,2,,,62,127
46751,note_on,149,0,0,,12,,,83,127
46897,note_off,146,0,0,,12,,,83,127
46899,note_on,2,0,0,,10,,,81,127
47045,note_off,146,0,0,,2,,,62,127
47045,note_off,0,0,0,,7,,,55,127
47045,note_off,0,0,0,,4,,,64,127
47047,note_off,2,0,0,,1,,,73,127
47048,note_on,1,0,0,,2,,,74,127
47048,note_on,0,0,0,,2,,,62,127
47048,note_on,0,0,0,,6,,,54,127
47048,note_on,0,0,0,,10,,,57,127
47196,note_off,148,0,0,,10,,,81,127
47197,note_on,1,0,0,,10,,,81,127
47343,note_off,146,0,0,,10,,,81,127
47345,note_on,2,0,0,,7,,,79,127
47491,note_off,146,0,0,,10,,,57,127
47491,note_off,0,0,0,,6,,,54,127
47491,note_off,0,0,0,,2,,,62,127
47493,note_off,2,0,0,,2,,,74,127
47494,note_on,1,0,0,,7,,,67,127
47494,note_on,0,0,0,,7,,,55,127
47494,note_on,0,0,0,,1,,,61,127
47494,note_on,0,0,0,,10,,,57,127
47494,note_on,0,0,0,,4,,,52,127
47642,note_off,148,0,0,,7,,,79,127
47643,note_on,1,0,0,,7,,,79,127
47789,note_off,146,0,0,,7,,,79,127
47791,note_on,2,0,0,,6,,,78,127
47937,note_off,146,0,0,,4,,,52,127
47937,note_off,0,0,0,,10,,,57,127
47937,note_off,0,0,0,,1,,,61,127
47937,note_off,0,0,0,,7,,,55,127
47939,note_off,2,0,0,,7,,,67,127
47940,note_on,1,0,0,,6,,,66,127
47940,note_on,0,0,0,,2,,,62,127
47940,note_on,0,0,0,,10,,,57,127
47940,note_on,0,0,0,,2,,,50,127
48088,note_off,148,0,0,,6,,,78,127
48089,note_on,1,0,0,,7,,,79,127
48235,note_off,146,0,0,,7,,,79,127
48237,note_on,2,0,0,,6,,,78,127
48383,note_off,146,0,0,,2,,,50,127
48383,note_off,0,0,0,,10,,,57,127
48383,note_off,0,0,0,,2,,,62,127
48385,note_off,2,0,0,,6,,,66,127
48386,note_on,1,0,0,,11,,,70,127
48386,note_on,0,0,0,,6,,,66,127
48386,note_on,0,0,0,,4,,,64,127
48386,note_on,0,0,0,,1,,,61,127
48534,note_off,148,0,0,,6,,,78,127
48535,note_on,1,0,0,,6,,,78,127
48681,note_off,146,0,0,,6,,,78,127
48683,note_on,2,0,0,,4,,,76,127
48829,note_off,146,0,0,,4,,,76,127
48829,note_off,0,0,0,,1,,,61,127
48829,note_off,0,0,0,,4,,,64,127
48829,note_off,0,0,0,,6,,,66,127
48831,note_off,2,0,0,,11,,,70,127
48832,note_on,1,0,0,,12,,,71,127
48832,note_on,0,0,0,,2,,,74,127
48832,note_on,0,0,0,,12,,,59,127
48832,note_on,0,0,0,,2,,,62,127
48832,note_on,0,0,0,,6,,,66,127
48978,note_off,146,0,0,,2,,,74,127
48980,note_on,2,0,0,,7,,,79,127
49126,note_off,146,0,0,,7,,,79,127
49128,note_on,2,0,0,,6,,,78,127
49274,note_off,146,0,0,,6,,,66,127
49274,note_off,0,0,0,,2,,,62,127
49274,note_off,0,0,0,,12,,,59,127
49276,note_off,2,0,0,,12,,,71,127
49277,note_on,1,0,0,,10,,,69,127
49277,note_on,0,0,0,,1,,,73,127
49423,note_off,146,0,0,,6,,,78,127
49425,note_on,2,0,0,,7,,,79,127
49571,note_off,146,0,0,,7,,,79,127
49573,note_on,2,0,0,,6,,,78,127
49719,note_off,146,0,0,,1,,,73,127
49719,note_off,0,0,0,,10,,,69,127
49721,note_on,2,0,0,,7,,,67,127
49721,note_on,0,0,0,,12,,,71,127
49867,note_off,146,0,0,,6,,,78,127
49869,note_on,2,0,0,,7,,,79,127
50015,note_off,146,0,0,,7,,,79,127
50017,note_on,2,0,0,,6,,,78,127
50163,note_off,146,0,0,,12,,,71,127
50163,note_off,0,0,0,,7,,,67,127
50165,note_on,2,0,0,,11,,,70,127
50165,note_on,0,0,0,,6,,,66,127
50311,note_off,146,0,0,,6,,,78,127
50313,note_on,2,0,0,,7,,,79,127
50459,note_off,146,0,0,,7,,,79,127
50461,note_on,2,0,0,,6,,,78,127
50607,note_off,146,0,0,,6,,,78,127
50607,note_off,0,0,0,,6,,,66,127
50607,note_off,0,0,0,,11,,,70,127
50609,note_on,2,0,0,,12,,,71,127
50609,note_on,0,0,0,,7,,,67,127
50755,note_off,146,0,0,,12,,,71,127
50757,note_on,2,0,0,,1,,,73,127
50903,note_off,146,0,0,,1,,,73,127
50903,note_off,0,0,0,,7,,,67,127
50905,note_on,2,0,0,,2,,,74,127
50905,note_on,0,0,0,,6,,,66,127
51051,note_off,146,0,0,,6,,,66,127
51051,note_off,0,0,0,,2,,,74,127
51053,note_on,2,0,0,,4,,,76,127
51053,note_on,0,0,0,,4,,,64,127
51125,note_off,72,0,0,,4,,,76,127
51127,note_on,2,0,0,,2,,,74,127
51199,note_off,72,0,0,,2,,,74,127
51201,note_on,2,0,0,,1,,,73,127
51347,note_off,146,0,0,,1,,,73,127
51349,note_on,2,0,0,,12,,,71,127
51495,note_off,146,0,0,,12,,,71,127
51495,note_off,0,0,0,,4,,,64,127
51497,note_on,2,0,0,,1,,,73,127
51497,note_on,0,0,0,,6,,,66,127
51643,note_off,146,0,0,,6,,,66,127
51645,note_on,2,0,0,,11,,,70,127
51791,note_off,146,0,0,,11,,,70,127
51793,note_on,2,0,0,,6,,,66,127
51939,note_off,146,0,0,,6,,,66,127
51941,note_on,2,0,0,,12,,,71,127
52087,note_off,146,0,0,,12,,,71,127
52087,note_off,0,0,0,,1,,,73,127
52089,note_on,2,0,0,,2,,,74,127
52089,note_on,0,0,0,,6,,,78,127
52089,note_on,0,0,0,,2,,,62,127
52235,note_off,146,0,0,,2,,,62,127
52235,note_off,0,0,0,,2,,,74,127
52237,note_on,2,0,0,,12,,,71,127
52237,note_on,0,0,0,,12,,,59,127
52383,note_off,146,0,0,,12,,,59,127
52383,note_off,0,0,0,,12,,,71,127
52385,note_on,2,0,0,,2,,,74,127
52385,note_on,0,0,0,,6,,,66,127
52432,note_off,47,0,0,,2,,,74,127
52434,note_on,2,0,0,,1,,,73,127
52481,note_off,47,0,0,,1,,,73,127
52483,note_on,2,0,0,,2,,,74,127
52530,note_off,47,0,0,,2,,,74,127
52530,note_off,0,0,0,,6,,,66,127
52532,note_on,2,0,0,,1,,,73,127
52532,note_on,0,0,0,,11,,,70,127
52579,note_off,47,0,0,,1,,,73,127
52581,note_on,2,0,0,,2,,,74,127
52628,note_off,47,0,0,,2,,,74,127
52630,note_on,2,0,0,,1,,,73,127
52677,note_off,47,0,0,,11,,,70,127
52679,note_on,2,0,0,,6,,,66,127
52825,note_off,146,0,0,,6,,,66,127
52827,note_off,2,0,0,,6,,,78,127
52827,note_on,0,0,0,,12,,,71,127
52925,note_off,98,0,0,,1,,,73,127
52973,note_off,48,0,0,,12,,,71,127
52975,note_on,2,0,0,,2,,,74,127
52975,note_on,0,0,0,,6,,,78,127
52975,note_on,0,0,0,,2,,,62,127
53121,note_off,146,0,0,,2,,,62,127
53121,note_off,0,0,0,,2,,,74,127
53123,note_on,2,0,0,,12,,,71,127
53123,note_on,0,0,0,,12,,,59,127
53269,note_off,146,0,0,,12,,,59,127
53269,note_off,0,0,0,,12,,,71,127
53271,note_on,2,0,0,,2,,,74,127
53271,note_on,0,0,0,,6,,,66,127
53318,note_off,47,0,0,,2,,,74,127
53320,note_on,2,0,0,,1,,,73,127
53367,note_off,47,0,0,,1,,,73,127
53369,note_on,2,0,0,,2,,,74,127
53416,note_off,47,0,0,,2,,,74,127
53416,note_off,0,0,0,,6,,,66,127
53418,note_on,2,0,0,,1,,,73,127
53418,note_on,0,0,0,,11,,,70,127
53465,note_off,47,0,0,,1,,,73,127
53467,note_on,2,0,0,,2,,,74,127
53514,note_off,47,0,0,,2,,,74,127
53516,note_on,2,0,0,,1,,,73,127
53563,note_off,47,0,0,,11,,,70,127
53565,note_on,2,0,0,,6,,,66,127
53711,note_off,146,0,0,,6,,,66,127
53713,note_off,2,0,0,,6,,,78,127
53713,note_on,0,0,0,,12,,,59,127
53811,note_off,98,0,0,,1,,,73,127
53859,note_off,48,0,0,,12,,,59,127
53861,note_on,2,0,0,,7,,,79,127
53861,note_on,0,0,0,,6,,,66,127
54007,note_off,146,0,0,,6,,,66,127
54007,note_off,0,0,0,,7,,,79,127
54009,note_on,2,0,0,,6,,,78,127
54009,note_on,0,0,0,,12,,,71,127
54155,note_off,146,0,0,,12,,,71,127
54155,note_off,0,0,0,,6,,,78,127
54157,note_on,2,0,0,,6,,,78,127
54157,note_on,0,0,0,,4,,,76,127
54157,note_on,0,0,0,,0,,,60,127
54303,note_off,146,0,0,,0,,,60,127
54303,note_off,0,0,0,,4,,,76,127
54303,note_off,0,0,0,,6,,,78,127
54305,note_on,2,0,0,,3,,,75,127
54305,note_on,0,0,0,,4,,,64,127
54451,note_off,146,0,0,,4,,,64,127
54451,note_off,0,0,0,,3,,,75,127
54453,note_on,2,0,0,,4,,,76,127
54453,note_on,0,0,0,,10,,,69,127
54599,note_off,146,0,0,,10,,,69,127
54601,note_on,2,0,0,,12,,,59,127
54747,note_off,146,0,0,,12,,,59,127
54747,note_off,0,0,0,,4,,,76,127
54749,note_on,2,0,0,,7,,,79,127
54749,note_on,0,0,0,,4,,,64,127
54895,note_off,146,0,0,,4,,,64,127
54895,note_off,0,0,0,,7,,,79,127
54897,note_on,2,0,0,,6,,,78,127
54897,note_on,0,0,0,,12,,,71,127
55043,note_off,146,0,0,,12,,,71,127
55043,note_off,0,0,0,,6,,,78,127
55045,note_on,2,0,0,,4,,,76,127
55045,note_on,0,0,0,,0,,,60,127
55191,note_off,146,0,0,,0,,,60,127
55191,note_off,0,0,0,,4,,,76,127
55193,note_on,2,0,0,,3,,,75,127
55193,note_on,0,0,0,,4,,,64,127
55339,note_off,146,0,0,,4,,,64,127
55339,note_off,0,0,0,,3,,,75,127
55341,note_on,2,0,0,,4,,,76,127
55341,note_on,0,0,0,,10,,,69,127
55487,note_off,146,0,0,,10,,,69,127
55489,note_on,2,0,0,,12,,,59,127
55635,note_off,146,0,0,,12,,,59,127
55635,note_off,0,0,0,,4,,,76,127
55637,note_on,2,0,0,,7,,,79,127
55637,note_on,0,0,0,,4,,,64,127
55783,note_off,146,0,0,,4,,,64,127
55783,note_off,0,0,0,,7,,,79,127
55785,note_on,2,0,0,,6,,,78,127
55785,note_on,0,0,0,,12,,,71,127
55931,note_off,146,0,0,,12,,,71,127
55931,note_off,0,0,0,,6,,,78,127
55933,note_on,2,0,0,,6,,,78,127
55933,note_on,0,0,0,,4,,,76,127
55933,note_on,0,0,0,,0,,,60,127
56079,note_off,146,0,0,,0,,,60,127
56079,note_off,0,0,0,,4,,,76,127
56079,note_off,0,0,0,,6,,,78,127
56081,note_on,2,0,0,,3,,,75,127
56081,note_on,0,0,0,,4,,,64,127
56227,note_off,146,0,0,,4,,,64,127
56227,note_off,0,0,0,,3,,,75,127
56229,note_on,2,0,0,,4,,,76,127
56229,note_on,0,0,0,,10,,,69,127
56375,note_off,146,0,0,,10,,,69,127
56375,note_off,0,0,0,,4,,,76,127
56377,note_on,2,0,0,,6,,,78,127
56377,note_on,0,0,0,,12,,,59,127
56523,note_off,146,0,0,,12,,,59,127
56523,note_off,0,0,0,,6,,,78,127
56525,note_on,2,0,0,,7,,,79,127
56525,note_on,0,0,0,,3,,,63,127
56671,note_off,146,0,0,,3,,,63,127
56671,note_off,0,0,0,,7,,,79,127
56673,note_on,2,0,0,,10,,,81,127
56673,note_on,0,0,0,,12,,,71,127
56813,note_off,140,0,0,,10,,,81,127
56819,note_off,6,0,0,,12,,,71,127
56821,note_on,2,0,0,,10,,,81,127
56821,note_on,0,0,0,,4,,,64,127
56868,note_off,47,0,0,,10,,,81,127
56870,note_on,2,0,0,,7,,,79,127
56917,note_off,47,0,0,,7,,,79,127
56919,note_on,2,0,0,,10,,,81,127
56966,note_off,47,0,0,,10,,,81,127
56966,note_off,0,0,0,,4,,,64,127
56968,note_on,2,0,0,,7,,,79,127
56968,note_on,0,0,0,,7,,,67,127
57015,note_off,47,0,0,,7,,,79,127
57017,note_on,2,0,0,,10,,,81,127
57064,note_off,47,0,0,,10,,,81,127
57066,note_on,2,0,0,,7,,,79,127
57113,note_off,47,0,0,,7,,,79,127
57113,note_off,0,0,0,,7,,,67,127
57115,note_on,2,0,0,,10,,,81,127
57115,note_on,0,0,0,,4,,,64,127
57162,note_off,47,0,0,,10,,,81,127
57164,note_on,2,0,0,,7,,,79,127
57211,note_off,47,0,0,,7,,,79,127
57213,note_on,2,0,0,,6,,,78,127
57260,note_off,47,0,0,,6,,,78,127
57260,note_off,0,0,0,,4,,,64,127
57262,note_on,2,0,0,,4,,,76,127
57262,note_on,0,0,0,,0,,,60,127
57408,note_off,146,0,0,,0,,,60,127
57410,note_on,2,0,0,,4,,,64,127
57556,note_off,146,0,0,,4,,,64,127
57558,note_on,2,0,0,,0,,,60,127
57704,note_off,146,0,0,,0,,,60,127
57704,note_off,0,0,0,,4,,,76,127
57706,note_on,2,0,0,,2,,,86,127
57706,note_on,0,0,0,,10,,,57,127
57753,note_off,47,0,0,,2,,,86,127
57755,note_on,2,0,0,,0,,,84,127
57802,note_off,47,0,0,,0,,,84,127
57804,note_on,2,0,0,,2,,,86,127
57851,note_off,47,0,0,,2,,,86,127
57851,note_off,0,0,0,,10,,,57,127
57853,note_on,2,0,0,,0,,,84,127
57853,note_on,0,0,0,,0,,,60,127
57900,note_off,47,0,0,,0,,,84,127
57902,note_on,2,0,0,,2,,,86,127
57949,note_off,47,0,0,,2,,,86,127
57951,note_on,2,0,0,,0,,,84,127
57998,note_off,47,0,0,,0,,,84,127
57998,note_off,0,0,0,,0,,,60,127
58000,note_on,2,0,0,,2,,,86,127
58000,note_on,0,0,0,,10,,,57,127
58047,note_off,47,0,0,,2,,,86,127
58049,note_on,2,0,0,,0,,,84,127
58096,note_off,47,0,0,,0,,,84,127
58098,note_on,2,0,0,,12,,,83,127
58145,note_off,47,0,0,,10,,,57,127
58147,note_on,2,0,0,,6,,,54,127
58190,note_off,43,0,0,,12,,,83,127
58196,note_on,6,0,0,,10,,,81,127
58243,note_off,47,0,0,,10,,,81,127
58245,note_on,2,0,0,,12,,,83,127
58292,note_off,47,0,0,,12,,,83,127
58292,note_off,0,0,0,,6,,,54,127
58294,note_on,2,0,0,,10,,,81,127
58294,note_on,0,0,0,,10,,,57,127
58341,note_off,47,0,0,,10,,,81,127
58343,note_on,2,0,0,,12,,,83,127
58390,note_off,47,0,0,,12,,,83,127
58392,note_on,2,0,0,,10,,,81,127
58439,note_off,47,0,0,,10,,,81,127
58439,note_off,0,0,0,,10,,,57,127
58441,note_on,2,0,0,,12,,,83,127
58441,note_on,0,0,0,,6,,,54,127
58488,note_off,47,0,0,,12,,,83,127
58490,note_on,2,0,0,,10,,,81,127
58537,note_off,47,0,0,,10,,,81,127
58539,note_on,2,0,0,,7,,,79,127
58586,note_off,47,0,0,,6,,,54,127
58588,note_on,2,0,0,,2,,,50,127
58631,note_off,43,0,0,,7,,,79,127
58637,note_on,6,0,0,,6,,,78,127
58684,note_off,47,0,0,,6,,,78,127
58686,note_on,2,0,0,,7,,,79,127
58733,note_off,47,0,0,,7,,,79,127
58733,note_off,0,0,0,,2,,,50,127
58735,note_on,2,0,0,,6,,,78,127
58735,note_on,0,0,0,,6,,,54,127
58782,note_off,47,0,0,,6,,,78,127
58784,note_on,2,0,0,,7,,,79,127
58831,note_off,47,0,0,,7,,,79,127
58833,note_on,2,0,0,,6,,,78,127
58880,note_off,47,0,0,,6,,,78,127
58880,note_off,0,0,0,,6,,,54,127
58882,note_on,2,0,0,,7,,,79,127
58882,note_on,0,0,0,,2,,,50,127
58929,note_off,47,0,0,,7,,,79,127
58931,note_on,2,0,0,,6,,,78,127
58978,note_off,47,0,0,,6,,,78,127
58980,note_on,2,0,0,,4,,,76,127
59027,note_off,47,0,0,,4,,,76,127
59027,note_off,0,0,0,,2,,,50,127
59029,note_on,2,0,0,,2,,,74,127
59029,note_on,0,0,0,,12,,,47,127
59175,note_off,146,0,0,,12,,,47,127
59177,note_on,2,0,0,,2,,,50,127
59323,note_off,146,0,0,,2,,,50,127
59325,note_on,2,0,0,,12,,,47,127
59471,note_off,146,0,0,,12,,,47,127
59471,note_off,0,0,0,,2,,,74,127
59473,note_on,2,0,0,,12,,,83,127
59473,note_on,0,0,0,,7,,,43,127
59619,note_off,146,0,0,,7,,,43,127
59621,note_on,2,0,0,,7,,,55,127
59767,note_off,146,0,0,,7,,,55,127
59769,note_on,2,0,0,,12,,,59,127
59915,note_off,146,0,0,,12,,,59,127
59915,note_off,0,0,0,,12,,,83,127
59917,note_on,2,0,0,,6,,,78,127
59917,note_on,0,0,0,,10,,,45,127
59964,note_off,47,0,0,,6,,,78,127
59966,note_on,2,0,0,,4,,,76,127
60013,note_off,47,0,0,,4,,,76,127
60015,note_on,2,0,0,,6,,,78,127
60062,note_off,47,0,0,,6,,,78,127
60062,note_off,0,0,0,,10,,,45,127
60064,note_on,2,0,0,,4,,,76,127
60064,note_on,0,0,0,,10,,,57,127
60111,note_off,47,0,0,,4,,,76,127
60113,note_on,2,0,0,,6,,,78,127
60160,note_off,47,0,0,,6,,,78,127
60162,note_on,2,0,0,,4,,,76,127
60209,note_off,47,0,0,,4,,,76,127
60209,note_off,0,0,0,,10,,,57,127
60211,note_on,2,0,0,,6,,,78,127
60211,note_on,0,0,0,,1,,,61,127
60246,note_off,35,0,0,,6,,,78,127
60248,note_on,2,0,0,,4,,,76,127
60283,note_off,35,0,0,,4,,,76,127
60285,note_on,2,0,0,,2,,,74,127
60320,note_off,35,0,0,,2,,,74,127
60322,note_on,2,0,0,,4,,,76,127
60357,note_off,35,0,0,,4,,,76,127
60357,note_off,0,0,0,,1,,,61,127
60359,note_on,2,0,0,,6,,,78,127
60359,note_on,0,0,0,,2,,,50,127
60505,note_off,146,0,0,,2,,,50,127
60507,note_on,2,0,0,,2,,,62,127
60653,note_off,146,0,0,,2,,,62,127
60655,note_on,2,0,0,,6,,,66,127
60801,note_off,146,0,0,,6,,,66,127
60801,note_off,0,0,0,,6,,,78,127
60803,note_on,2,0,0,,12,,,83,127
60803,note_on,0,0,0,,7,,,43,127
60949,note_off,146,0,0,,7,,,43,127
60951,note_on,2,0,0,,7,,,55,127
61097,note_off,146,0,0,,7,,,55,127
61099,note_on,2,0,0,,12,,,59,127
61245,note_off,146,0,0,,12,,,59,127
61245,note_off,0,0,0,,12,,,83,127
61247,note_on,2,0,0,,6,,,78,127
61247,note_on,0,0,0,,10,,,45,127
61294,note_off,47,0,0,,6,,,78,127
61296,note_on,2,0,0,,4,,,76,127
61343,note_off,47,0,0,,4,,,76,127
61345,note_on,2,0,0,,6,,,78,127
61392,note_off,47,0,0,,6,,,78,127
61392,note_off,0,0,0,,10,,,45,127
61394,note_on,2,0,0,,4,,,76,127
61394,note_on,0,0,0,,10,,,57,127
61441,note_off,47,0,0,,4,,,76,127
61443,note_on,2,0,0,,6,,,78,127
61490,note_off,47,0,0,,6,,,78,127
61492,note_on,2,0,0,,4,,,76,127
61539,note_off,47,0,0,,4,,,76,127
61539,note_off,0,0,0,,10,,,57,127
61541,note_on,2,0,0,,6,,,78,127
61541,note_on,0,0,0,,1,,,61,127
61576,note_off,35,0,0,,6,,,78,127
61578,note_on,2,0,0,,4,,,76,127
61613,note_off,35,0,0,,4,,,76,127
61615,note_on,2,0,0,,2,,,74,127
61650,note_off,35,0,0,,2,,,74,127
61652,note_on,2,0,0,,4,,,76,127
61687,note_off,35,0,0,,4,,,76,127
61687,note_off,0,0,0,,1,,,61,127
61689,note_on,2,0,0,,6,,,78,127
61689,note_on,0,0,0,,2,,,50,127
61835,note_off,146,0,0,,2,,,50,127
61837,note_on,2,0,0,,2,,,62,127
61983,note_off,146,0,0,,2,,,62,127
61985,note_on,2,0,0,,6,,,66,127
62131,note_off,146,0,0,,6,,,66,127
62131,note_off,0,0,0,,6,,,78,127
62133,note_on,2,0,0,,12,,,83,127
62133,note_on,0,0,0,,7,,,43,127
62279,note_off,146,0,0,,7,,,43,127
62281,note_on,2,0,0,,7,,,55,127
62427,note_off,146,0,0,,7,,,55,127
62429,note_on,2,0,0,,12,,,59,127
62575,note_off,146,0,0,,12,,,59,127
62575,note_off,0,0,0,,12,,,83,127
62577,note_on,2,0,0,,6,,,78,127
62577,note_on,0,0,0,,10,,,45,127
62624,note_off,47,0,0,,6,,,78,127
62626,note_on,2,0,0,,4,,,76,127
62673,note_off,47,0,0,,4,,,76,127
62675,note_on,2,0,0,,6,,,78,127
62722,note_off,47,0,0,,6,,,78,127
62722,note_off,0,0,0,,10,,,45,127
62724,note_on,2,0,0,,4,,,76,127
62724,note_on,0,0,0,,10,,,57,127
62771,note_off,47,0,0,,4,,,76,127
62773,note_on,2,0,0,,6,,,78,127
62820,note_off,47,0,0,,6,,,78,127
62822,note_on,2,0,0,,4,,,76,127
62869,note_off,47,0,0,,4,,,76,127
62869,note_off,0,0,0,,10,,,57,127
62871,note_on,2,0,0,,6,,,78,127
62871,note_on,0,0,0,,1,,,61,127
62906,note_off,35,0,0,,6,,,78,127
62908,note_on,2,0,0,,4,,,76,127
62943,note_off,35,0,0,,4,,,76,127
62945,note_on,2,0,0,,2,,,74,127
62980,note_off,35,0,0,,2,,,74,127
62982,note_on,2,0,0,,4,,,76,127
63017,note_off,35,0,0,,4,,,76,127
63017,note_off,0,0,0,,1,,,61,127
63019,note_on,2,0,0,,6,,,78,127
63019,note_on,0,0,0,,2,,,62,127
63165,note_off,146,0,0,,6,,,78,127
63167,note_on,2,0,0,,7,,,79,127
63313,note_off,146,0,0,,7,,,79,127
63315,note_on,2,0,0,,10,,,81,127
63461,note_off,146,0,0,,10,,,81,127
63461,note_off,0,0,0,,2,,,62,127
63463,note_on,2,0,0,,12,,,83,127
63463,note_on,0,0,0,,7,,,55,127
63609,note_off,146,0,0,,12,,,83,127
63611,note_on,2,0,0,,6,,,78,127
63683,note_off,72,0,0,,6,,,78,127
63685,note_on,2,0,0,,4,,,76,127
63757,note_off,72,0,0,,4,,,76,127
63759,note_on,2,0,0,,2,,,74,127
63905,note_off,146,0,0,,2,,,74,127
63905,note_off,0,0,0,,7,,,55,127
63907,note_on,2,0,0,,1,,,73,127
63907,note_on,0,0,0,,10,,,57,127
64053,note_off,146,0,0,,1,,,73,127
64055,note_on,2,0,0,,10,,,81,127
64201,note_off,146,0,0,,10,,,81,127
64203,note_on,2,0,0,,4,,,76,127
64349,note_off,146,0,0,,4,,,76,127
64351,note_on,2,0,0,,1,,,73,127
64497,note_off,146,0,0,,1,,,73,127
64499,note_on,2,0,0,,10,,,69,127
64645,note_off,146,0,0,,10,,,69,127
64647,note_on,2,0,0,,4,,,64,127
64793,note_off,146,0,0,,4,,,64,127
64795,note_on,2,0,0,,1,,,61,127
64795,note_on,0,0,0,,10,,,45,127
64941,note_off,146,0,0,,1,,,61,127
64943,note_on,2,0,0,,10,,,69,127
65089,note_off,146,0,0,,10,,,69,127
65091,note_on,2,0,0,,4,,,64,127
65237,note_off,146,0,0,,4,,,64,127
65239,note_on,2,0,0,,1,,,61,127
65381,note_off,142,0,0,,10,,,57,127
65385,note_off,4,0,0,,1,,,61,127
65387,note_on,2,0,0,,10,,,57,127
65533,note_off,146,0,0,,10,,,57,127
65535,note_on,2,0,0,,10,,,57,127
65681,note_off,146,0,0,,10,,,57,127
65681,note_off,0,0,0,,10,,,45,127
65683,note_on,2,0,0,,12,,,59,127
65683,note_on,0,0,0,,10,,,45,127
65730,note_off,47,0,0,,12,,,59,127
65732,note_on,2,0,0,,10,,,57,127
65779,note_off,47,0,0,,10,,,57,127
65781,note_on,2,0,0,,12,,,59,127
65828,note_off,47,0,0,,12,,,59,127
65830,note_on,2,0,0,,10,,,57,127
66275,note_off,445,0,0,,10,,,57,127
66571,note_off,296,0,0,,10,,,45,127
66573,note_on,2,0,0,,4,,,64,127
66573,note_on,0,0,0,,2,,,62,127
66573,note_on,0,0,0,,10,,,57,127
66722,note_on,149,0,0,,10,,,81,127
66868,note_off,146,0,0,,10,,,81,127
66870,note_on,2,0,0,,7,,,79,127
67016,note_off,146,0,0,,10,,,57,127
67016,note_off,0,0,0,,2,,,62,127
67016,note_off,0,0,0,,4,,,64,127
67018,note_on,2,0,0,,7,,,67,127
67018,note_on,0,0,0,,4,,,64,127
67018,note_on,0,0,0,,2,,,62,127
67018,note_on,0,0,0,,10,,,57,127
67164,note_off,146,0,0,,7,,,79,127
67166,note_on,2,0,0,,7,,,79,127
67312,note_off,146,0,0,,7,,,79,127
67314,note_on,2,0,0,,5,,,77,127
67460,note_off,146,0,0,,10,,,57,127
67460,note_off,0,0,0,,2,,,62,127
67460,note_off,0,0,0,,4,,,64,127
67460,note_off,0,0,0,,7,,,67,127
67462,note_on,2,0,0,,2,,,62,127
67462,note_on,0,0,0,,5,,,65,127
67462,note_on,0,0,0,,4,,,64,127
67462,note_on,0,0,0,,11,,,58,127
67608,note_off,146,0,0,,5,,,77,127
67610,note_on,2,0,0,,4,,,76,127
67756,note_off,146,0,0,,4,,,76,127
67758,note_on,2,0,0,,2,,,74,127
67904,note_off,146,0,0,,2,,,74,127
67904,note_off,0,0,0,,11,,,58,127
67904,note_off,0,0,0,,4,,,64,127
67904,note_off,0,0,0,,5,,,65,127
67904,note_off,0,0,0,,2,,,62,127
67906,note_on,2,0,0,,2,,,74,127
67906,note_on,0,0,0,,4,,,76,127
67906,note_on,0,0,0,,4,,,64,127
67906,note_on,0,0,0,,2,,,62,127
67906,note_on,0,0,0,,11,,,58,127
68052,note_off,146,0,0,,4,,,76,127
68052,note_off,0,0,0,,2,,,74,127
68054,note_on,2,0,0,,1,,,73,127
68200,note_off,146,0,0,,1,,,73,127
68202,note_on,2,0,0,,2,,,74,127
68348,note_off,146,0,0,,2,,,74,127
68348,note_off,0,0,0,,11,,,58,127
68348,note_off,0,0,0,,2,,,62,127
68348,note_off,0,0,0,,4,,,64,127
68350,note_on,2,0,0,,4,,,76,127
68350,note_on,0,0,0,,10,,,57,127
68350,note_on,0,0,0,,2,,,62,127
68350,note_on,0,0,0,,4,,,64,127
68496,note_off,146,0,0,,4,,,76,127
68498,note_on,2,0,0,,10,,,81,127
68644,note_off,146,0,0,,10,,,81,127
68646,note_on,2,0,0,,7,,,79,127
68792,note_off,146,0,0,,4,,,64,127
68792,note_off,0,0,0,,2,,,62,127
68792,note_off,0,0,0,,10,,,57,127
68794,note_on,2,0,0,,4,,,64,127
68794,note_on,0,0,0,,7,,,67,127
68794,note_on,0,0,0,,2,,,62,127
68794,note_on,0,0,0,,10,,,57,127
68940,note_off,146,0,0,,7,,,79,127
68942,note_on,2,0,0,,7,,,79,127
69088,note_off,146,0,0,,7,,,79,127
69090,note_on,2,0,0,,5,,,77,127
69236,note_off,146,0,0,,10,,,57,127
69236,note_off,0,0,0,,2,,,62,127
69236,note_off,0,0,0,,7,,,67,127
69236,note_off,0,0,0,,4,,,64,127
69238,note_on,2,0,0,,5,,,65,127
69238,note_on,0,0,0,,4,,,64,127
69238,note_on,0,0,0,,2,,,62,127
69238,note_on,0,0,0,,11,,,58,127
69384,note_off,146,0,0,,5,,,77,127
69386,note_on,2,0,0,,4,,,76,127
69532,note_off,146,0,0,,4,,,76,127
69534,note_on,2,0,0,,2,,,74,127
69680,note_off,146,0,0,,2,,,74,127
69680,note_off,0,0,0,,11,,,58,127
69680,note_off,0,0,0,,2,,,62,127
69680,note_off,0,0,0,,4,,,64,127
69680,note_off,0,0,0,,5,,,65,127
69682,note_on,2,0,0,,4,,,76,127
69682,note_on,0,0,0,,2,,,74,127
69682,note_on,0,0,0,,2,,,62,127
69682,note_on,0,0,0,,4,,,64,127
69682,note_on,0,0,0,,11,,,58,127
69828,note_off,146,0,0,,2,,,74,127
69828,note_off,0,0,0,,4,,,76,127
69830,note_on,2,0,0,,1,,,73,127
69976,note_off,146,0,0,,1,,,73,127
69978,note_on,2,0,0,,2,,,74,127
70124,note_off,146,0,0,,2,,,74,127
70124,note_off,0,0,0,,11,,,58,127
70124,note_off,0,0,0,,4,,,64,127
70124,note_off,0,0,0,,2,,,62,127
70126,note_on,2,0,0,,4,,,76,127
70126,note_on,0,0,0,,4,,,64,127
70126,note_on,0,0,0,,2,,,62,127
70126,note_on,0,0,0,,10,,,57,127
70272,note_off,146,0,0,,4,,,76,127
70274,note_on,2,0,0,,10,,,81,127
70420,note_off,146,0,0,,10,,,81,127
70422,note_on,2,0,0,,7,,,79,127
70568,note_off,146,0,0,,7,,,79,127
70568,note_off,0,0,0,,10,,,57,127
70568,note_off,0,0,0,,2,,,62,127
70568,note_off,0,0,0,,4,,,64,127
70570,note_on,2,0,0,,7,,,79,127
70570,note_on,0,0,0,,10,,,81,127
70570,note_on,0,0,0,,10,,,69,127
70570,note_on,0,0,0,,7,,,67,127
70570,note_on,0,0,0,,1,,,61,127
70716,note_off,146,0,0,,10,,,81,127
70716,note_off,0,0,0,,7,,,79,127
70718,note_on,2,0,0,,5,,,77,127
70864,note_off,146,0,0,,5,,,77,127
70866,note_on,2,0,0,,4,,,76,127
71012,note_off,146,0,0,,4,,,76,127
71012,note_off,0,0,0,,1,,,61,127
71012,note_off,0,0,0,,7,,,67,127
71012,note_off,0,0,0,,10,,,69,127
71014,note_on,2,0,0,,5,,,77,127
71014,note_on,0,0,0,,2,,,62,127
71014,note_on,0,0,0,,2,,,50,127
71163,note_on,149,0,0,,2,,,86,127
71309,note_off,146,0,0,,2,,,86,127
71311,note_on,2,0,0,,0,,,84,127
71457,note_off,146,0,0,,2,,,50,127
71457,note_off,0,0,0,,2,,,62,127
71459,note_off,2,0,0,,5,,,77,127
71460,note_on,1,0,0,,0,,,72,127
71460,note_on,0,0,0,,5,,,65,127
71460,note_on,0,0,0,,10,,,69,127
71606,note_off,146,0,0,,0,,,84,127
71608,note_on,2,0,0,,0,,,84,127
71754,note_off,146,0,0,,0,,,84,127
71756,note_on,2,0,0,,11,,,82,127
71902,note_off,146,0,0,,10,,,69,127
71902,note_off,0,0,0,,5,,,65,127
71902,note_off,0,0,0,,0,,,72,127
71904,note_on,2,0,0,,2,,,62,127
71904,note_on,0,0,0,,7,,,67,127
71904,note_on,0,0,0,,11,,,70,127
72050,note_off,146,0,0,,11,,,82,127
72052,note_on,2,0,0,,11,,,82,127
72198,note_off,146,0,0,,11,,,82,127
72200,note_on,2,0,0,,10,,,81,127
72346,note_off,146,0,0,,10,,,81,127
72346,note_off,0,0,0,,11,,,70,127
72346,note_off,0,0,0,,7,,,67,127
72346,note_off,0,0,0,,2,,,62,127
72348,note_on,2,0,0,,7,,,79,127
72348,note_on,0,0,0,,10,,,81,127
72348,note_on,0,0,0,,2,,,62,127
72348,note_on,0,0,0,,7,,,67,127
72348,note_on,0,0,0,,1,,,61,127
72348,note_on,0,0,0,,4,,,64,127
72348,note_on,0,0,0,,10,,,57,127
72494,note_off,146,0,0,,10,,,81,127
72494,note_off,0,0,0,,7,,,79,127
72496,note_on,2,0,0,,5,,,77,127
72642,note_off,146,0,0,,5,,,77,127
72644,note_on,2,0,0,,4,,,76,127
72790,note_off,146,0,0,,4,,,76,127
72790,note_off,0,0,0,,10,,,57,127
72790,note_off,0,0,0,,4,,,64,127
72790,note_off,0,0,0,,1,,,61,127
72790,note_off,0,0,0,,7,,,67,127
72790,note_off,0,0,0,,2,,,62,127
72792,note_on,2,0,0,,5,,,77,127
72792,note_on,0,0,0,,2,,,62,127
72792,note_on,0,0,0,,2,,,50,127
72941,note_on,149,0,0,,2,,,86,127
73087,note_off,146,0,0,,2,,,86,127
73089,note_on,2,0,0,,0,,,84,127
73235,note_off,146,0,0,,2,,,50,127
73235,note_off,0,0,0,,2,,,62,127
73237,note_off,2,0,0,,5,,,77,127
73238,note_on,1,0,0,,10,,,69,127
73238,note_on,0,0,0,,5,,,65,127
73238,note_on,0,0,0,,0,,,72,127
73384,note_off,146,0,0,,0,,,84,127
73386,note_on,2,0,0,,0,,,84,127
73532,note_off,146,0,0,,0,,,84,127
73534,note_on,2,0,0,,11,,,82,127
73680,note_off,146,0,0,,0,,,72,127
73680,note_off,0,0,0,,5,,,65,127
73680,note_off,0,0,0,,10,,,69,127
73682,note_on,2,0,0,,7,,,67,127
73682,note_on,0,0,0,,11,,,70,127
73682,note_on,0,0,0,,2,,,62,127
73828,note_off,146,0,0,,11,,,82,127
73830,note_on,2,0,0,,11,,,82,127
73976,note_off,146,0,0,,11,,,82,127
73978,note_on,2,0,0,,10,,,81,127
74124,note_off,146,0,0,,10,,,81,127
74124,note_off,0,0,0,,2,,,62,127
74124,note_off,0,0,0,,11,,,70,127
74124,note_off,0,0,0,,7,,,67,127
74126,note_on,2,0,0,,7,,,79,127
74126,note_on,0,0,0,,10,,,81,127
74126,note_on,0,0,0,,4,,,64,127
74126,note_on,0,0,0,,7,,,67,127
74126,note_on,0,0,0,,1,,,61,127
74126,note_on,0,0,0,,2,,,62,127
74126,note_on,0,0,0,,10,,,57,127
74272,note_off,146,0,0,,10,,,81,127
74272,note_off,0,0,0,,7,,,79,127
74274,note_on,2,0,0,,5,,,77,127
74420,note_off,146,0,0,,5,,,77,127
74422,note_on,2,0,0,,4,,,76,127
74568,note_off,146,0,0,,4,,,76,127
74568,note_off,0,0,0,,10,,,57,127
74568,note_off,0,0,0,,2,,,62,127
74568,note_off,0,0,0,,1,,,61,127
74568,note_off,0,0,0,,7,,,67,127
74568,note_off,0,0,0,,4,,,64,127
74570,note_on,2,0,0,,5,,,77,127
74570,note_on,0,0,0,,2,,,62,127
74716,note_off,146,0,0,,2,,,62,127
74718,note_on,2,0,0,,5,,,65,127
74864,note_off,146,0,0,,5,,,65,127
74866,note_on,2,0,0,,2,,,62,127
75012,note_off,146,0,0,,2,,,62,127
75012,note_off,0,0,0,,5,,,77,127
75014,note_on,2,0,0,,0,,,84,127
75014,note_on,0,0,0,,7,,,67,127
75061,note_off,47,0,0,,0,,,84,127
75063,note_on,2,0,0,,11,,,82,127
75110,note_off,47,0,0,,11,,,82,127
75112,note_on,2,0,0,,0,,,84,127
75159,note_off,47,0,0,,0,,,84,127
75159,note_off,0,0,0,,7,,,67,127
75161,note_on,2,0,0,,11,,,82,127
75161,note_on,0,0,0,,11,,,58,127
75208,note_off,47,0,0,,11,,,82,127
75210,note_on,2,0,0,,0,,,84,127
75257,note_off,47,0,0,,0,,,84,127
75259,note_on,2,0,0,,11,,,82,127
75306,note_off,47,0,0,,11,,,82,127
75306,note_off,0,0,0,,11,,,58,127
75308,note_on,2,0,0,,0,,,84,127
75308,note_on,0,0,0,,7,,,55,127
75355,note_off,47,0,0,,0,,,84,127
75357,note_on,2,0,0,,11,,,82,127
75454,note_off,97,0,0,,11,,,82,127
75454,note_off,0,0,0,,7,,,55,127
75456,note_on,2,0,0,,4,,,76,127
75456,note_on,0,0,0,,0,,,60,127
75602,note_off,146,0,0,,0,,,60,127
75604,note_on,2,0,0,,4,,,64,127
75750,note_off,146,0,0,,4,,,64,127
75752,note_on,2,0,0,,0,,,60,127
75898,note_off,146,0,0,,0,,,60,127
75898,note_off,0,0,0,,4,,,76,127
75900,note_on,2,0,0,,11,,,82,127
75900,note_on,0,0,0,,5,,,65,127
75947,note_off,47,0,0,,11,,,82,127
75949,note_on,2,0,0,,10,,,81,127
75996,note_off,47,0,0,,10,,,81,127
75998,note_on,2,0,0,,11,,,82,127
76045,note_off,47,0,0,,11,,,82,127
76045,note_off,0,0,0,,5,,,65,127
76047,note_on,2,0,0,,10,,,81,127
76047,note_on,0,0,0,,10,,,57,127
76094,note_off,47,0,0,,10,,,81,127
76096,note_on,2,0,0,,11,,,82,127
76143,note_off,47,0,0,,11,,,82,127
76145,note_on,2,0,0,,10,,,81,127
76192,note_off,47,0,0,,10,,,81,127
76192,note_off,0,0,0,,10,,,57,127
76194,note_on,2,0,0,,11,,,82,127
76194,note_on,0,0,0,,5,,,53,127
76241,note_off,47,0,0,,11,,,82,127
76243,note_on,2,0,0,,10,,,81,127
76340,note_off,97,0,0,,10,,,81,127
76340,note_off,0,0,0,,5,,,53,127
76342,note_on,2,0,0,,2,,,74,127
76342,note_on,0,0,0,,11,,,58,127
76488,note_off,146,0,0,,11,,,58,127
76490,note_on,2,0,0,,2,,,62,127
76636,note_off,146,0,0,,2,,,62,127
76638,note_on,2,0,0,,11,,,58,127
76784,note_off,146,0,0,,11,,,58,127
76784,note_off,0,0,0,,2,,,74,127
76786,note_on,2,0,0,,10,,,81,127
76786,note_on,0,0,0,,4,,,64,127
76833,note_off,47,0,0,,10,,,81,127
76835,note_on,2,0,0,,7,,,79,127
76882,note_off,47,0,0,,7,,,79,127
76884,note_on,2,0,0,,10,,,81,127
76931,note_off,47,0,0,,10,,,81,127
76931,note_off,0,0,0,,4,,,64,127
76933,note_on,2,0,0,,7,,,79,127
76933,note_on,0,0,0,,7,,,55,127
76980,note_off,47,0,0,,7,,,79,127
76982,note_on,2,0,0,,10,,,81,127
77029,note_off,47,0,0,,10,,,81,127
77031,note_on,2,0,0,,7,,,79,127
77078,note_off,47,0,0,,7,,,79,127
77078,note_off,0,0,0,,7,,,55,127
77080,note_on,2,0,0,,10,,,81,127
77080,note_on,0,0,0,,4,,,52,127
77127,note_off,47,0,0,,10,,,81,127
77129,note_on,2,0,0,,7,,,79,127
77226,note_off,97,0,0,,7,,,79,127
77226,note_off,0,0,0,,4,,,52,127
77228,note_on,2,0,0,,1,,,73,127
77228,note_on,0,0,0,,10,,,57,127
77374,note_off,146,0,0,,10,,,57,127
77376,note_on,2,0,0,,10,,,69,127
77376,note_on,0,0,0,,1,,,61,127
77522,note_off,146,0,0,,1,,,61,127
77522,note_off,0,0,0,,10,,,69,127
77524,note_off,2,0,0,,1,,,73,127
77525,note_on,1,0,0,,10,,,69,127
77525,note_on,0,0,0,,10,,,57,127
77671,note_off,146,0,0,,10,,,57,127
77671,note_off,0,0,0,,10,,,69,127
77673,note_on,2,0,0,,10,,,69,127
77673,note_on,0,0,0,,2,,,62,127
77819,note_off,146,0,0,,2,,,62,127
77819,note_off,0,0,0,,10,,,69,127
77821,note_on,2,0,0,,2,,,74,127
77821,note_on,0,0,0,,6,,,54,127
77967,note_off,146,0,0,,6,,,54,127
77967,note_off,0,0,0,,2,,,74,127
77969,note_on,2,0,0,,10,,,69,127
77969,note_on,0,0,0,,2,,,50,127
78115,note_off,146,0,0,,2,,,50,127
78115,note_off,0,0,0,,10,,,69,127
78117,note_on,2,0,0,,10,,,69,127
78117,note_on,0,0,0,,10,,,57,127
78263,note_off,146,0,0,,10,,,57,127
78263,note_off,0,0,0,,10,,,69,127
78265,note_on,2,0,0,,4,,,76,127
78265,note_on,0,0,0,,1,,,49,127
78411,note_off,146,0,0,,1,,,49,127
78411,note_off,0,0,0,,4,,,76,127
78413,note_on,2,0,0,,10,,,69,127
78413,note_on,0,0,0,,10,,,45,127
78559,note_off,146,0,0,,10,,,45,127
78559,note_off,0,0,0,,10,,,69,127
78561,note_on,2,0,0,,10,,,69,127
78561,note_on,0,0,0,,2,,,50,127
78707,note_off,146,0,0,,2,,,50,127
78707,note_off,0,0,0,,10,,,69,127
78709,note_on,2,0,0,,6,,,78,127
78709,note_on,0,0,0,,6,,,54,127
78855,note_off,146,0,0,,6,,,54,127
78855,note_off,0,0,0,,6,,,78,127
78857,note_on,2,0,0,,10,,,69,127
78857,note_on,0,0,0,,2,,,50,127
79003,note_off,146,0,0,,2,,,50,127
79003,note_off,0,0,0,,10,,,69,127
79005,note_on,2,0,0,,10,,,69,127
79005,note_on,0,0,0,,10,,,57,127
79151,note_off,146,0,0,,10,,,57,127
79151,note_off,0,0,0,,10,,,69,127
79153,note_on,2,0,0,,7,,,79,127
79153,note_on,0,0,0,,1,,,61,127
79299,note_off,146,0,0,,1,,,61,127
79299,note_off,0,0,0,,7,,,79,127
79301,note_on,2,0,0,,10,,,69,127
79301,note_on,0,0,0,,10,,,57,127
79447,note_off,146,0,0,,10,,,57,127
79447,note_off,0,0,0,,10,,,69,127
79449,note_on,2,0,0,,10,,,69,127
79449,note_on,0,0,0,,2,,,62,127
79595,note_off,146,0,0,,2,,,62,127
79595,note_off,0,0,0,,10,,,69,127
79597,note_on,2,0,0,,6,,,78,127
79597,note_on,0,0,0,,6,,,54,127
79743,note_off,146,0,0,,6,,,54,127
79743,note_off,0,0,0,,6,,,78,127
79745,note_on,2,0,0,,10,,,69,127
79745,note_on,0,0,0,,2,,,50,127
79891,note_off,146,0,0,,2,,,50,127
79891,note_off,0,0,0,,10,,,69,127
79893,note_on,2,0,0,,10,,,69,127
79893,note_on,0,0,0,,10,,,57,127
80039,note_off,146,0,0,,10,,,57,127
80039,note_off,0,0,0,,10,,,69,127
80041,note_on,2,0,0,,4,,,76,127
80041,note_on,0,0,0,,1,,,49,127
80187,note_off,146,0,0,,1,,,49,127
80187,note_off,0,0,0,,4,,,76,127
80189,note_on,2,0,0,,10,,,69,127
80189,note_on,0,0,0,,10,,,45,127
80335,note_off,146,0,0,,10,,,45,127
80335,note_off,0,0,0,,10,,,69,127
80337,note_on,2,0,0,,10,,,69,127
80337,note_on,0,0,0,,2,,,50,127
80483,note_off,146,0,0,,10,,,69,127
80485,note_on,2,0,0,,6,,,78,127
80631,note_off,146,0,0,,6,,,78,127
80633,note_on,2,0,0,,2,,,74,127
80779,note_off,146,0,0,,2,,,74,127
80779,note_off,0,0,0,,2,,,50,127
80781,note_on,2,0,0,,12,,,71,127
80781,note_on,0,0,0,,4,,,64,127
80781,note_on,0,0,0,,7,,,55,127
80781,note_on,0,0,0,,2,,,62,127
80927,note_off,146,0,0,,12,,,71,127
80929,note_on,2,0,0,,7,,,79,127
81075,note_off,146,0,0,,7,,,79,127
81077,note_on,2,0,0,,6,,,78,127
81223,note_off,146,0,0,,6,,,78,127
81223,note_off,0,0,0,,2,,,62,127
81223,note_off,0,0,0,,7,,,55,127
81223,note_off,0,0,0,,4,,,64,127
81225,note_on,2,0,0,,6,,,78,127
81225,note_on,0,0,0,,4,,,64,127
81225,note_on,0,0,0,,10,,,57,127
81225,note_on,0,0,0,,2,,,62,127
81297,note_off,72,0,0,,6,,,78,127
81299,note_on,2,0,0,,4,,,76,127
81371,note_off,72,0,0,,4,,,76,127
81373,note_on,2,0,0,,2,,,74,127
81519,note_off,146,0,0,,2,,,74,127
81521,note_on,2,0,0,,1,,,73,127
81667,note_off,146,0,0,,1,,,73,127
81667,note_off,0,0,0,,2,,,62,127
81667,note_off,0,0,0,,10,,,57,127
81667,note_off,0,0,0,,4,,,64,127
81669,note_on,2,0,0,,2,,,74,127
81669,note_on,0,0,0,,2,,,62,127
81815,note_off,146,0,0,,2,,,62,127
81815,note_off,0,0,0,,2,,,74,127
81817,note_on,2,0,0,,10,,,69,127
81817,note_on,0,0,0,,6,,,66,127
81963,note_off,146,0,0,,6,,,66,127
81963,note_off,0,0,0,,10,,,69,127
81965,note_on,2,0,0,,10,,,69,127
81965,note_on,0,0,0,,2,,,62,127
82111,note_off,146,0,0,,2,,,62,127
82111,note_off,0,0,0,,10,,,69,127
82113,note_on,2,0,0,,10,,,69,127
82113,note_on,0,0,0,,10,,,57,127
82259,note_off,146,0,0,,10,,,57,127
82261,note_on,2,0,0,,4,,,76,127
82261,note_on,0,0,0,,1,,,61,127
82407,note_off,146,0,0,,10,,,69,127
82408,note_off,1,0,0,,1,,,61,127
82408,note_off,0,0,0,,4,,,76,127
82410,note_on,2,0,0,,10,,,69,127
82410,note_on,0,0,0,,10,,,57,127
82556,note_off,146,0,0,,10,,,57,127
82556,note_off,0,0,0,,10,,,69,127
82558,note_on,2,0,0,,10,,,69,127
82558,note_on,0,0,0,,2,,,62,127
82704,note_off,146,0,0,,2,,,62,127
82706,note_on,2,0,0,,6,,,78,127
82706,note_on,0,0,0,,6,,,54,127
82852,note_off,146,0,0,,10,,,69,127
82853,note_off,1,0,0,,6,,,54,127
82853,note_off,0,0,0,,6,,,78,127
82855,note_on,2,0,0,,10,,,69,127
82855,note_on,0,0,0,,2,,,50,127
83001,note_off,146,0,0,,2,,,50,127
83001,note_off,0,0,0,,10,,,69,127
83003,note_on,2,0,0,,10,,,69,127
83003,note_on,0,0,0,,10,,,57,127
83149,note_off,146,0,0,,10,,,57,127
83151,note_on,2,0,0,,7,,,79,127
83151,note_on,0,0,0,,1,,,49,127
83297,note_off,146,0,0,,10,,,69,127
83298,note_off,1,0,0,,1,,,49,127
83298,note_off,0,0,0,,7,,,79,127
83300,note_on,2,0,0,,10,,,69,127
83300,note_on,0,0,0,,10,,,45,127
83446,note_off,146,0,0,,10,,,45,127
83446,note_off,0,0,0,,10,,,69,127
83448,note_on,2,0,0,,10,,,69,127
83448,note_on,0,0,0,,2,,,50,127
83594,note_off,146,0,0,,2,,,50,127
83596,note_on,2,0,0,,6,,,78,127
83596,note_on,0,0,0,,6,,,54,127
83742,note_off,146,0,0,,10,,,69,127
83743,note_off,1,0,0,,6,,,54,127
83743,note_off,0,0,0,,6,,,78,127
83745,note_on,2,0,0,,10,,,69,127
83745,note_on,0,0,0,,2,,,50,127
83891,note_off,146,0,0,,2,,,50,127
83891,note_off,0,0,0,,10,,,69,127
83893,note_on,2,0,0,,10,,,69,127
83893,note_on,0,0,0,,10,,,57,127
84039,note_off,146,0,0,,10,,,57,127
84041,note_on,2,0,0,,4,,,76,127
84041,note_on,0,0,0,,1,,,61,127
84187,note_off,146,0,0,,10,,,69,127
84188,note_off,1,0,0,,1,,,61,127
84188,note_off,0,0,0,,4,,,76,127
84190,note_on,2,0,0,,10,,,69,127
84190,note_on,0,0,0,,10,,,57,127
84336,note_off,146,0,0,,10,,,57,127
84336,note_off,0,0,0,,10,,,69,127
84338,note_on,2,0,0,,10,,,69,127
84338,note_on,0,0,0,,2,,,62,127
84484,note_off,146,0,0,,2,,,62,127
84486,note_on,2,0,0,,6,,,78,127
84486,note_on,0,0,0,,6,,,54,127
84632,note_off,146,0,0,,10,,,69,127
84633,note_off,1,0,0,,6,,,54,127
84633,note_off,0,0,0,,6,,,78,127
84635,note_on,2,0,0,,10,,,69,127
84635,note_on,0,0,0,,2,,,50,127
84781,note_off,146,0,0,,2,,,50,127
84781,note_off,0,0,0,,10,,,69,127
84783,note_on,2,0,0,,10,,,69,127
84783,note_on,0,0,0,,10,,,57,127
84929,note_off,146,0,0,,10,,,57,127
84931,note_on,2,0,0,,7,,,79,127
84931,note_on,0,0,0,,1,,,49,127
85077,note_off,146,0,0,,10,,,69,127
85078,note_off,1,0,0,,1,,,49,127
85078,note_off,0,0,0,,7,,,79,127
85080,note_on,2,0,0,,10,,,69,127
85080,note_on,0,0,0,,10,,,45,127
85226,note_off,146,0,0,,10,,,45,127
85226,note_off,0,0,0,,10,,,69,127
85228,note_on,2,0,0,,10,,,69,127
85228,note_on,0,0,0,,2,,,50,127
85374,note_off,146,0,0,,10,,,69,127
85376,note_on,2,0,0,,6,,,78,127
85522,note_off,146,0,0,,6,,,78,127
85524,note_on,2,0,0,,7,,,79,127
85670,note_off,146,0,0,,7,,,79,127
85670,note_off,0,0,0,,2,,,50,127
85672,note_on,2,0,0,,10,,,81,127
85672,note_on,0,0,0,,2,,,62,127
85672,note_on,0,0,0,,6,,,54,127
85818,note_off,146,0,0,,10,,,81,127
85820,note_on,2,0,0,,2,,,74,127
85966,note_off,146,0,0,,2,,,74,127
85968,note_on,2,0,0,,1,,,73,127
86114,note_off,146,0,0,,1,,,73,127
86114,note_off,0,0,0,,6,,,54,127
86114,note_off,0,0,0,,2,,,62,127
86116,note_on,2,0,0,,12,,,71,127
86116,note_on,0,0,0,,2,,,62,127
86116,note_on,0,0,0,,4,,,64,127
86116,note_on,0,0,0,,7,,,55,127
86262,note_off,146,0,0,,12,,,71,127
86264,note_on,2,0,0,,7,,,79,127
86410,note_off,146,0,0,,7,,,79,127
86412,note_on,2,0,0,,6,,,78,127
86558,note_off,146,0,0,,6,,,78,127
86558,note_off,0,0,0,,7,,,55,127
86558,note_off,0,0,0,,4,,,64,127
86558,note_off,0,0,0,,2,,,62,127
86560,note_on,2,0,0,,6,,,78,127
86560,note_on,0,0,0,,4,,,76,127
86560,note_on,0,0,0,,4,,,64,127
86560,note_on,0,0,0,,2,,,62,127
86560,note_on,0,0,0,,10,,,57,127
86706,note_off,146,0,0,,4,,,76,127
86706,note_off,0,0,0,,6,,,78,127
86708,note_on,2,0,0,,2,,,74,127
86854,note_off,146,0,0,,2,,,74,127
86856,note_on,2,0,0,,1,,,73,127
87002,note_off,146,0,0,,1,,,73,127
87002,note_off,0,0,0,,10,,,57,127
87002,note_off,0,0,0,,2,,,62,127
87002,note_off,0,0,0,,4,,,64,127
87004,note_on,2,0,0,,2,,,74,127
87004,note_on,0,0,0,,2,,,50,127
87150,note_off,146,0,0,,2,,,50,127
87152,note_on,2,0,0,,2,,,62,127
87298,note_off,146,0,0,,2,,,62,127
87300,note_on,2,0,0,,6,,,66,127
87446,note_off,146,0,0,,6,,,66,127
87446,note_off,0,0,0,,2,,,74,127
87448,note_on,2,0,0,,12,,,83,127
87448,note_on,0,0,0,,7,,,43,127
87594,note_off,146,0,0,,12,,,83,127
87596,note_on,2,0,0,,10,,,81,127
87742,note_off,146,0,0,,10,,,81,127
87742,note_off,0,0,0,,7,,,43,127
87744,note_on,2,0,0,,1,,,73,127
87744,note_on,0,0,0,,4,,,76,127
87744,note_on,0,0,0,,10,,,45,127
87890,note_off,146,0,0,,10,,,45,127
87890,note_off,0,0,0,,4,,,76,127
87890,note_off,0,0,0,,1,,,73,127
87892,note_on,2,0,0,,1,,,73,127
87892,note_on,0,0,0,,4,,,76,127
87892,note_on,0,0,0,,2,,,50,127
88038,note_off,146,0,0,,2,,,50,127
88040,note_on,2,0,0,,2,,,62,127
88186,note_off,146,0,0,,2,,,62,127
88186,note_off,0,0,0,,4,,,76,127
88186,note_off,0,0,0,,1,,,73,127
88188,note_on,2,0,0,,2,,,74,127
88188,note_on,0,0,0,,6,,,78,127
88188,note_on,0,0,0,,6,,,66,127
88334,note_off,146,0,0,,6,,,66,127
88334,note_off,0,0,0,,6,,,78,127
88334,note_off,0,0,0,,2,,,74,127
88336,note_on,2,0,0,,12,,,83,127
88336,note_on,0,0,0,,7,,,43,127
88482,note_off,146,0,0,,12,,,83,127
88484,note_on,2,0,0,,10,,,81,127
88630,note_off,146,0,0,,10,,,81,127
88630,note_off,0,0,0,,7,,,43,127
88632,note_on,2,0,0,,4,,,76,127
88632,note_on,0,0,0,,1,,,73,127
88632,note_on,0,0,0,,10,,,45,127
88778,note_off,146,0,0,,10,,,45,127
88778,note_off,0,0,0,,1,,,73,127
88778,note_off,0,0,0,,4,,,76,127
88780,note_on,2,0,0,,1,,,73,127
88780,note_on,0,0,0,,4,,,76,127
88780,note_on,0,0,0,,2,,,50,127
88926,note_off,146,0,0,,2,,,50,127
88928,note_on,2,0,0,,2,,,62,127
89074,note_off,146,0,0,,2,,,62,127
89074,note_off,0,0,0,,4,,,76,127
89074,note_off,0,0,0,,1,,,73,127
89076,note_on,2,0,0,,2,,,74,127
89076,note_on,0,0,0,,6,,,78,127
89076,note_on,0,0,0,,6,,,66,127
89222,note_off,146,0,0,,6,,,66,127
89222,note_off,0,0,0,,6,,,78,127
89222,note_off,0,0,0,,2,,,74,127
89224,note_on,2,0,0,,12,,,83,127
89224,note_on,0,0,0,,7,,,43,127
89370,note_off,146,0,0,,12,,,83,127
89372,note_on,2,0,0,,10,,,81,127
89518,note_off,146,0,0,,10,,,81,127
89518,note_off,0,0,0,,7,,,43,127
89520,note_on,2,0,0,,4,,,76,127
89520,note_on,0,0,0,,1,,,73,127
89520,note_on,0,0,0,,10,,,45,127
89666,note_off,146,0,0,,10,,,45,127
89666,note_off,0,0,0,,1,,,73,127
89666,note_off,0,0,0,,4,,,76,127
89668,note_on,2,0,0,,2,,,74,127
89668,note_on,0,0,0,,6,,,78,127
89668,note_on,0,0,0,,2,,,50,127
89814,note_off,146,0,0,,6,,,78,127
89816,note_on,2,0,0,,10,,,81,127
89962,note_off,146,0,0,,2,,,74,127
89963,note_off,1,0,0,,10,,,81,127
89963,note_off,0,0,0,,2,,,50,127
89965,note_on,2,0,0,,7,,,79,127
89965,note_on,0,0,0,,7,,,55,127
90111,note_off,146,0,0,,7,,,55,127
90111,note_off,0,0,0,,7,,,79,127
90113,note_on,2,0,0,,7,,,79,127
90113,note_on,0,0,0,,10,,,81,127
90113,note_on,0,0,0,,10,,,57,127
90259,note_off,146,0,0,,10,,,81,127
90259,note_off,0,0,0,,7,,,79,127
90261,note_on,2,0,0,,6,,,78,127
90407,note_off,146,0,0,,6,,,78,127
90407,note_off,0,0,0,,10,,,57,127
90409,note_on,2,0,0,,1,,,85,127
90409,note_on,0,0,0,,4,,,76,127
90409,note_on,0,0,0,,10,,,45,127
90555,note_off,146,0,0,,10,,,45,127
90555,note_off,0,0,0,,4,,,76,127
90555,note_off,0,0,0,,1,,,85,127
90557,note_on,2,0,0,,2,,,86,127
90557,note_on,0,0,0,,6,,,78,127
90557,note_on,0,0,0,,2,,,50,127
90703,note_off,146,0,0,,6,,,78,127
90705,note_on,2,0,0,,10,,,81,127
90851,note_off,146,0,0,,10,,,81,127
90851,note_off,0,0,0,,2,,,50,127
90853,note_on,2,0,0,,7,,,79,127
90853,note_on,0,0,0,,7,,,55,127
90999,note_off,146,0,0,,7,,,55,127
90999,note_off,0,0,0,,7,,,79,127
91001,note_on,2,0,0,,7,,,79,127
91001,note_on,0,0,0,,10,,,81,127
91001,note_on,0,0,0,,10,,,57,127
91147,note_off,146,0,0,,10,,,81,127
91147,note_off,0,0,0,,7,,,79,127
91149,note_on,2,0,0,,6,,,78,127
91295,note_off,146,0,0,,6,,,78,127
91295,note_off,0,0,0,,10,,,57,127
91296,note_off,1,0,0,,2,,,86,127
91298,note_on,2,0,0,,1,,,85,127
91298,note_on,0,0,0,,4,,,76,127
91298,note_on,0,0,0,,10,,,45,127
91444,note_off,146,0,0,,10,,,45,127
91444,note_off,0,0,0,,4,,,76,127
91444,note_off,0,0,0,,1,,,85,127
91446,note_on,2,0,0,,6,,,78,127
91446,note_on,0,0,0,,2,,,86,127
91446,note_on,0,0,0,,2,,,50,127
91592,note_off,146,0,0,,2,,,86,127
91592,note_off,0,0,0,,6,,,78,127
91594,note_on,2,0,0,,10,,,69,127
91740,note_off,146,0,0,,10,,,69,127
91740,note_off,0,0,0,,2,,,50,127
91742,note_on,2,0,0,,7,,,67,127
91742,note_on,0,0,0,,7,,,55,127
91888,note_off,146,0,0,,7,,,55,127
91888,note_off,0,0,0,,7,,,67,127
91890,note_on,2,0,0,,10,,,69,127
91890,note_on,0,0,0,,7,,,67,127
91890,note_on,0,0,0,,10,,,57,127
92036,note_off,146,0,0,,7,,,67,127
92036,note_off,0,0,0,,10,,,69,127
92038,note_on,2,0,0,,6,,,66,127
92184,note_off,146,0,0,,6,,,66,127
92184,note_off,0,0,0,,10,,,57,127
92186,note_on,2,0,0,,1,,,73,127
92186,note_on,0,0,0,,4,,,64,127
92186,note_on,0,0,0,,10,,,45,127
92332,note_off,146,0,0,,10,,,45,127
92332,note_off,0,0,0,,4,,,64,127
92332,note_off,0,0,0,,1,,,73,127
92334,note_on,2,0,0,,6,,,66,127
92334,note_on,0,0,0,,2,,,74,127
92334,note_on,0,0,0,,2,,,50,127
92480,note_off,146,0,0,,6,,,66,127
92482,note_on,2,0,0,,10,,,69,127
92628,note_off,146,0,0,,10,,,69,127
92628,note_off,0,0,0,,2,,,50,127
92630,note_on,2,0,0,,7,,,67,127
92630,note_on,0,0,0,,7,,,55,127
92776,note_off,146,0,0,,7,,,55,127
92776,note_off,0,0,0,,7,,,67,127
92778,note_on,2,0,0,,7,,,67,127
92778,note_on,0,0,0,,10,,,69,127
92778,note_on,0,0,0,,10,,,57,127
92924,note_off,146,0,0,,10,,,69,127
92924,note_off,0,0,0,,7,,,67,127
92926,note_on,2,0,0,,6,,,66,127
93072,note_off,146,0,0,,6,,,66,127
93072,note_off,0,0,0,,10,,,57,127
93073,note_off,1,0,0,,2,,,74,127
93075,note_on,2,0,0,,1,,,73,127
93075,note_on,0,0,0,,4,,,64,127
93075,note_on,0,0,0,,10,,,45,127
93221,note_off,146,0,0,,10,,,45,127
93221,note_off,0,0,0,,4,,,64,127
93221,note_off,0,0,0,,1,,,73,127
93223,note_on,2,0,0,,6,,,66,127
93223,note_on,0,0,0,,2,,,74,127
93223,note_on,0,0,0,,2,,,50,127
93369,note_off,146,0,0,,2,,,74,127
93369,note_off,0,0,0,,6,,,66,127
93371,note_on,2,0,0,,4,,,64,127
93371,note_on,0,0,0,,1,,,73,127
93517,note_off,146,0,0,,1,,,73,127
93517,note_off,0,0,0,,4,,,64,127
93517,note_off,0,0,0,,2,,,50,127
93519,note_on,2,0,0,,6,,,66,127
93519,note_on,0,0,0,,2,,,74,127
93519,note_on,0,0,0,,12,,,47,127
93665,note_off,146,0,0,,12,,,47,127
93665,note_off,0,0,0,,2,,,74,127
93665,note_off,0,0,0,,6,,,66,127
93667,note_on,2,0,0,,7,,,67,127
93667,note_on,0,0,0,,4,,,76,127
93667,note_on,0,0,0,,7,,,43,127
93813,note_off,146,0,0,,4,,,76,127
93813,note_off,0,0,0,,7,,,67,127
93815,note_on,2,0,0,,6,,,66,127
93815,note_on,0,0,0,,2,,,74,127
93961,note_off,146,0,0,,2,,,74,127
93961,note_off,0,0,0,,6,,,66,127
93961,note_off,0,0,0,,7,,,43,127
93963,note_on,2,0,0,,4,,,64,127
93963,note_on,0,0,0,,1,,,73,127
93963,note_on,0,0,0,,10,,,45,127
94109,note_off,146,0,0,,10,,,45,127
94109,note_off,0,0,0,,1,,,73,127
94109,note_off,0,0,0,,4,,,64,127
94111,note_on,2,0,0,,6,,,66,127
94111,note_on,0,0,0,,2,,,74,127
94111,note_on,0,0,0,,2,,,50,127
94257,note_off,146,0,0,,2,,,74,127
94257,note_off,0,0,0,,6,,,66,127
94259,note_on,2,0,0,,4,,,64,127
94259,note_on,0,0,0,,1,,,73,127
94405,note_off,146,0,0,,1,,,73,127
94405,note_off,0,0,0,,4,,,64,127
94405,note_off,0,0,0,,2,,,50,127
94407,note_on,2,0,0,,6,,,66,127
94407,note_on,0,0,0,,2,,,74,127
94407,note_on,0,0,0,,12,,,47,127
94553,note_off,146,0,0,,12,,,47,127
94553,note_off,0,0,0,,2,,,74,127
94553,note_off,0,0,0,,6,,,66,127
94555,note_on,2,0,0,,7,,,67,127
94555,note_on,0,0,0,,4,,,76,127
94555,note_on,0,0,0,,7,,,43,127
94701,note_off,146,0,0,,4,,,76,127
94701,note_off,0,0,0,,7,,,67,127
94703,note_on,2,0,0,,2,,,74,127
94703,note_on,0,0,0,,6,,,66,127
94849,note_off,146,0,0,,6,,,66,127
94849,note_off,0,0,0,,2,,,74,127
94849,note_off,0,0,0,,7,,,43,127
94851,note_on,2,0,0,,4,,,64,127
94851,note_on,0,0,0,,1,,,73,127
94851,note_on,0,0,0,,10,,,45,127
94997,note_off,146,0,0,,10,,,45,127
94997,note_off,0,0,0,,1,,,73,127
94997,note_off,0,0,0,,4,,,64,127
94999,note_on,2,0,0,,2,,,74,127
94999,note_on,0,0,0,,2,,,38,127
95145,note_off,146,0,0,,2,,,74,127
95147,note_on,2,0,0,,10,,,69,127
95293,note_off,146,0,0,,10,,,69,127
95295,note_on,2,0,0,,6,,,66,127
95441,note_off,146,0,0,,6,,,66,127
95443,note_on,2,0,0,,2,,,62,127
95589,note_off,146,0,0,,2,,,62,127
95591,note_on,2,0,0,,10,,,57,127
95737,note_off,146,0,0,,10,,,57,127
95739,note_on,2,0,0,,6,,,54,127
95885,note_off,146,0,0,,6,,,54,127
95885,note_off,0,0,0,,2,,,38,127
95887,note_on,2,0,0,,4,,,52,127
95887,note_on,0,0,0,,2,,,38,127
95934,note_off,47,0,0,,4,,,52,127
95936,note_on,2,0,0,,2,,,50,127
95983,note_off,47,0,0,,2,,,50,127
95985,note_on,2,0,0,,4,,,52,127
96032,note_off,47,0,0,,4,,,52,127
96034,note_on,2,0,0,,2,,,50,127
97598,note_off,1564,0,0,,2,,,50,127
97598,note_off,0,0,0,,2,,,38,127
99840,end_of_track,2242,1,0,,,,,,
