tick,type,time,meta,track,program,channel,pitch,tempo,note,velocity
0,copyright,0,1,0,,,,,,
0,program_change,0,0,0,6,0,,,,
0,pitchwheel,0,0,0,,0,0,,,
0,program_change,0,0,0,6,1,,,,
0,pitchwheel,0,0,0,,1,-590,,,
0,program_change,0,0,0,6,2,,,,
0,pitchwheel,0,0,0,,2,-272,,,
0,program_change,0,0,0,6,3,,,,
0,pitchwheel,0,0,0,,3,-353,,,
0,program_change,0,0,0,6,4,,,,
0,pitchwheel,0,0,0,,4,-560,,,
0,program_change,0,0,0,6,5,,,,
0,pitchwheel,0,0,0,,5,-80,,,
0,program_change,0,0,0,6,6,,,,
0,pitchwheel,0,0,0,,6,-625,,,
0,program_change,0,0,0,6,7,,,,
0,pitchwheel,0,0,0,,7,-130,,,
0,program_change,0,0,0,6,8,,,,
0,pitchwheel,0,0,0,,8,-512,,,
0,program_change,0,0,0,6,10,,,,
0,pitchwheel,0,0,0,,10,-464,,,
0,program_change,0,0,0,6,11,,,,
0,pitchwheel,0,0,0,,11,-208,,,
0,program_change,0,0,0,6,12,,,,
0,pitchwheel,0,0,0,,12,-553,,,
0,set_tempo,0,1,0,,,,500000,,
115,note_on,115,0,0,,2,,,62,127
115,note_on,0,0,0,,5,,,65,127
230,note_on,115,0,0,,10,,,69,127
343,note_off,113,0,0,,10,,,69,127
345,note_on,2,0,0,,10,,,81,127
458,note_off,113,0,0,,10,,,81,127
460,note_on,2,0,0,,7,,,79,127
573,note_off,113,0,0,,7,,,79,127
573,note_off,0,0,0,,5,,,65,127
573,note_off,0,0,0,,2,,,62,127
575,note_on,2,0,0,,1,,,61,127
575,note_on,0,0,0,,4,,,64,127
575,note_on,0,0,0,,7,,,79,127
630,note_off,55,0,0,,7,,,79,127
632,note_on,2,0,0,,5,,,77,127
687,note_off,55,0,0,,5,,,77,127
689,note_on,2,0,0,,4,,,76,127
802,note_off,113,0,0,,4,,,76,127
802,note_off,0,0,0,,4,,,64,127
802,note_off,0,0,0,,1,,,61,127
804,note_on,2,0,0,,2,,,62,127
804,note_on,0,0,0,,5,,,65,127
804,note_on,0,0,0,,5,,,77,127
917,note_off,113,0,0,,5,,,77,127
919,note_on,2,0,0,,2,,,74,127
1032,note_off,113,0,0,,2,,,74,127
1034,note_on,2,0,0,,1,,,73,127
1147,note_off,113,0,0,,1,,,73,127
1149,note_on,2,0,0,,2,,,74,127
1262,note_off,113,0,0,,2,,,74,127
1262,note_off,0,0,0,,5,,,65,127
1262,note_off,0,0,0,,2,,,62,127
1264,note_on,2,0,0,,2,,,62,127
1264,note_on,0,0,0,,11,,,58,127
1264,note_on,0,0,0,,4,,,64,127
1264,note_on,0,0,0,,1,,,73,127
1377,note_off,113,0,0,,1,,,73,127
1379,note_on,2,0,0,,2,,,74,127
1492,note_off,113,0,0,,4,,,64,127
1492,note_off,0,0,0,,11,,,58,127
1492,note_off,0,0,0,,2,,,62,127
1494,note_on,2,0,0,,2,,,62,127
1494,note_on,0,0,0,,7,,,55,127
1494,note_on,0,0,0,,4,,,64,127
1523,note_off,29,0,0,,2,,,74,127
1609,note_on,86,0,0,,4,,,76,127
1722,note_off,113,0,0,,4,,,76,127
1724,note_on,2,0,0,,10,,,81,127
1837,note_off,113,0,0,,10,,,81,127
1839,note_on,2,0,0,,7,,,79,127
1952,note_off,113,0,0,,7,,,79,127
1952,note_off,0,0,0,,4,,,64,127
1952,note_off,0,0,0,,7,,,55,127
1952,note_off,0,0,0,,2,,,62,127
1954,note_on,2,0,0,,10,,,57,127
1954,note_on,0,0,0,,2,,,62,127
1954,note_on,0,0,0,,4,,,64,127
1954,note_on,0,0,0,,7,,,79,127
2009,note_off,55,0,0,,7,,,79,127
2011,note_on,2,0,0,,5,,,77,127
2066,note_off,55,0,0,,5,,,77,127
2068,note_on,2,0,0,,4,,,76,127
2181,note_off,113,0,0,,4,,,76,127
2181,note_off,0,0,0,,4,,,64,127
2181,note_off,0,0,0,,2,,,62,127
2181,note_off,0,0,0,,10,,,57,127
2183,note_on,2,0,0,,5,,,65,127
2183,note_on,0,0,0,,2,,,62,127
2183,note_on,0,0,0,,5,,,77,127
2296,note_off,113,0,0,,5,,,77,127
2298,note_on,2,0,0,,2,,,74,127
2411,note_off,113,0,0,,2,,,74,127
2413,note_on,2,0,0,,1,,,73,127
2526,note_off,113,0,0,,1,,,73,127
2528,note_on,2,0,0,,2,,,74,127
2641,note_off,113,0,0,,2,,,74,127
2641,note_off,0,0,0,,2,,,62,127
2641,note_off,0,0,0,,5,,,65,127
2643,note_on,2,0,0,,2,,,62,127
2643,note_on,0,0,0,,11,,,58,127
2643,note_on,0,0,0,,4,,,64,127
2643,note_on,0,0,0,,1,,,73,127
2756,note_off,113,0,0,,1,,,73,127
2758,note_on,2,0,0,,2,,,74,127
2871,note_off,113,0,0,,4,,,64,127
2871,note_off,0,0,0,,11,,,58,127
2871,note_off,0,0,0,,2,,,62,127
2873,note_on,2,0,0,,2,,,62,127
2873,note_on,0,0,0,,7,,,55,127
2873,note_on,0,0,0,,4,,,64,127
2902,note_off,29,0,0,,2,,,74,127
2988,note_on,86,0,0,,4,,,76,127
3101,note_off,113,0,0,,4,,,76,127
3103,note_on,2,0,0,,10,,,81,127
3216,note_off,113,0,0,,10,,,81,127
3218,note_on,2,0,0,,7,,,79,127
3331,note_off,113,0,0,,7,,,79,127
3331,note_off,0,0,0,,4,,,64,127
3331,note_off,0,0,0,,7,,,55,127
3331,note_off,0,0,0,,2,,,62,127
3333,note_on,2,0,0,,10,,,57,127
3333,note_on,0,0,0,,2,,,62,127
3333,note_on,0,0,0,,1,,,61,127
3333,note_on,0,0,0,,4,,,64,127
3333,note_on,0,0,0,,7,,,79,127
3388,note_off,55,0,0,,7,,,79,127
3390,note_on,2,0,0,,5,,,77,127
3445,note_off,55,0,0,,5,,,77,127
3447,note_on,2,0,0,,4,,,76,127
3560,note_off,113,0,0,,4,,,76,127
3560,note_off,0,0,0,,4,,,64,127
3560,note_off,0,0,0,,1,,,61,127
3560,note_off,0,0,0,,2,,,62,127
3560,note_off,0,0,0,,10,,,57,127
3562,note_on,2,0,0,,2,,,62,127
3562,note_on,0,0,0,,5,,,77,127
3675,note_off,113,0,0,,5,,,77,127
3677,note_on,2,0,0,,2,,,74,127
3790,note_off,113,0,0,,2,,,74,127
3790,note_off,0,0,0,,2,,,62,127
3792,note_on,2,0,0,,4,,,64,127
3792,note_on,0,0,0,,2,,,86,127
3905,note_off,113,0,0,,2,,,86,127
3907,note_on,2,0,0,,0,,,84,127
4020,note_off,113,0,0,,0,,,84,127
4020,note_off,0,0,0,,4,,,64,127
4022,note_on,2,0,0,,5,,,65,127
4022,note_on,0,0,0,,11,,,82,127
4135,note_off,113,0,0,,11,,,82,127
4137,note_on,2,0,0,,10,,,81,127
4250,note_off,113,0,0,,10,,,81,127
4250,note_off,0,0,0,,5,,,65,127
4252,note_on,2,0,0,,7,,,67,127
4252,note_on,0,0,0,,7,,,79,127
4365,note_off,113,0,0,,7,,,79,127
4367,note_on,2,0,0,,11,,,82,127
4480,note_off,113,0,0,,11,,,82,127
4480,note_off,0,0,0,,7,,,67,127
4482,note_on,2,0,0,,10,,,69,127
4482,note_on,0,0,0,,10,,,81,127
4595,note_off,113,0,0,,10,,,81,127
4597,note_on,2,0,0,,7,,,79,127
4710,note_off,113,0,0,,7,,,79,127
4712,note_on,2,0,0,,10,,,57,127
4712,note_on,0,0,0,,5,,,77,127
4825,note_off,113,0,0,,5,,,77,127
4827,note_off,2,0,0,,10,,,69,127
4827,note_on,0,0,0,,4,,,76,127
4940,note_off,113,0,0,,4,,,76,127
4940,note_off,0,0,0,,10,,,57,127
4942,note_on,2,0,0,,2,,,50,127
4942,note_on,0,0,0,,7,,,79,127
4942,note_on,0,0,0,,5,,,77,127
5055,note_off,113,0,0,,5,,,77,127
5055,note_off,0,0,0,,7,,,79,127
5057,note_on,2,0,0,,4,,,76,127
5170,note_off,113,0,0,,4,,,76,127
5170,note_off,0,0,0,,2,,,50,127
5172,note_on,2,0,0,,4,,,52,127
5172,note_on,0,0,0,,2,,,74,127
5285,note_off,113,0,0,,2,,,74,127
5287,note_on,2,0,0,,0,,,72,127
5400,note_off,113,0,0,,0,,,72,127
5400,note_off,0,0,0,,4,,,52,127
5402,note_on,2,0,0,,5,,,53,127
5402,note_on,0,0,0,,11,,,70,127
5515,note_off,113,0,0,,11,,,70,127
5517,note_on,2,0,0,,10,,,69,127
5630,note_off,113,0,0,,10,,,69,127
5630,note_off,0,0,0,,5,,,53,127
5632,note_on,2,0,0,,7,,,55,127
5632,note_on,0,0,0,,7,,,67,127
5745,note_off,113,0,0,,7,,,67,127
5747,note_on,2,0,0,,11,,,70,127
5860,note_off,113,0,0,,11,,,70,127
5860,note_off,0,0,0,,7,,,55,127
5862,note_on,2,0,0,,10,,,57,127
5862,note_on,0,0,0,,10,,,69,127
5975,note_off,113,0,0,,10,,,69,127
5977,note_on,2,0,0,,7,,,67,127
6090,note_off,113,0,0,,7,,,67,127
6092,note_on,2,0,0,,10,,,45,127
6092,note_on,0,0,0,,5,,,65,127
6205,note_off,113,0,0,,5,,,65,127
6207,note_off,2,0,0,,10,,,57,127
6207,note_on,0,0,0,,4,,,64,127
6320,note_off,113,0,0,,4,,,64,127
6320,note_off,0,0,0,,10,,,45,127
6322,note_on,2,0,0,,2,,,38,127
6322,note_on,0,0,0,,7,,,67,127
6322,note_on,0,0,0,,5,,,65,127
6435,note_off,113,0,0,,5,,,65,127
6435,note_off,0,0,0,,7,,,67,127
6437,note_on,2,0,0,,4,,,64,127
6550,note_off,113,0,0,,4,,,64,127
6550,note_off,0,0,0,,2,,,38,127
6552,note_on,2,0,0,,4,,,40,127
6552,note_on,0,0,0,,2,,,62,127
6665,note_off,113,0,0,,2,,,62,127
6667,note_on,2,0,0,,0,,,60,127
6780,note_off,113,0,0,,0,,,60,127
6780,note_off,0,0,0,,4,,,40,127
6782,note_on,2,0,0,,5,,,41,127
6782,note_on,0,0,0,,11,,,58,127
6895,note_off,113,0,0,,11,,,58,127
6897,note_on,2,0,0,,10,,,57,127
7010,note_off,113,0,0,,10,,,57,127
7010,note_off,0,0,0,,5,,,41,127
7012,note_on,2,0,0,,7,,,43,127
7012,note_on,0,0,0,,7,,,55,127
7125,note_off,113,0,0,,7,,,55,127
7127,note_on,2,0,0,,11,,,58,127
7240,note_off,113,0,0,,11,,,58,127
7240,note_off,0,0,0,,7,,,43,127
7242,note_on,2,0,0,,10,,,45,127
7242,note_on,0,0,0,,10,,,57,127
7355,note_off,113,0,0,,10,,,57,127
7357,note_on,2,0,0,,7,,,55,127
7470,note_off,113,0,0,,7,,,55,127
7470,note_off,0,0,0,,10,,,45,127
7472,note_on,2,0,0,,10,,,45,127
7472,note_on,0,0,0,,5,,,53,127
7585,note_off,113,0,0,,5,,,53,127
7587,note_on,2,0,0,,4,,,52,127
7700,note_off,113,0,0,,4,,,52,127
7700,note_off,0,0,0,,10,,,45,127
7702,note_on,2,0,0,,2,,,38,127
7702,note_on,0,0,0,,4,,,52,127
7757,note_off,55,0,0,,4,,,52,127
7759,note_on,2,0,0,,2,,,50,127
7814,note_off,55,0,0,,2,,,50,127
7816,note_on,2,0,0,,4,,,52,127
7871,note_off,55,0,0,,4,,,52,127
7873,note_on,2,0,0,,2,,,50,127
8389,note_off,516,0,0,,2,,,38,127
8425,note_off,36,0,0,,2,,,50,127
8545,note_on,120,0,0,,2,,,62,127
8545,note_on,0,0,0,,5,,,65,127
8660,note_on,115,0,0,,10,,,69,127
8773,note_off,113,0,0,,10,,,69,127
8773,note_off,0,0,0,,5,,,65,127
8773,note_off,0,0,0,,2,,,62,127
8775,note_on,2,0,0,,2,,,74,127
8775,note_on,0,0,0,,2,,,62,127
8775,note_on,0,0,0,,5,,,65,127
8888,note_off,113,0,0,,2,,,74,127
8890,note_on,2,0,0,,5,,,77,127
9003,note_off,113,0,0,,5,,,77,127
9003,note_off,0,0,0,,5,,,65,127
9003,note_off,0,0,0,,2,,,62,127
9005,note_on,2,0,0,,10,,,81,127
9005,note_on,0,0,0,,2,,,62,127
9005,note_on,0,0,0,,5,,,65,127
9118,note_off,113,0,0,,10,,,81,127
9120,note_on,2,0,0,,10,,,69,127
9233,note_off,113,0,0,,10,,,69,127
9233,note_off,0,0,0,,5,,,65,127
9233,note_off,0,0,0,,2,,,62,127
9235,note_on,2,0,0,,11,,,70,127
9235,note_on,0,0,0,,2,,,62,127
9235,note_on,0,0,0,,7,,,67,127
9463,note_off,228,0,0,,7,,,67,127
9463,note_off,0,0,0,,2,,,62,127
9463,note_off,0,0,0,,11,,,70,127
9465,note_on,2,0,0,,11,,,82,127
9465,note_on,0,0,0,,7,,,67,127
9465,note_on,0,0,0,,2,,,62,127
9693,note_off,228,0,0,,2,,,62,127
9693,note_off,0,0,0,,7,,,67,127
9693,note_off,0,0,0,,11,,,82,127
9695,note_on,2,0,0,,7,,,79,127
9695,note_on,0,0,0,,7,,,67,127
9695,note_on,0,0,0,,2,,,62,127
9923,note_off,228,0,0,,2,,,62,127
9923,note_off,0,0,0,,7,,,67,127
9924,note_off,1,0,0,,7,,,79,127
9925,note_on,1,0,0,,7,,,67,127
9925,note_on,0,0,0,,4,,,64,127
9925,note_on,0,0,0,,1,,,61,127
10040,note_on,115,0,0,,10,,,69,127
10153,note_off,113,0,0,,10,,,69,127
10153,note_off,0,0,0,,1,,,61,127
10153,note_off,0,0,0,,4,,,64,127
10153,note_off,0,0,0,,7,,,67,127
10155,note_on,2,0,0,,1,,,73,127
10155,note_on,0,0,0,,7,,,67,127
10155,note_on,0,0,0,,1,,,61,127
10155,note_on,0,0,0,,4,,,64,127
10268,note_off,113,0,0,,1,,,73,127
10270,note_on,2,0,0,,4,,,76,127
10383,note_off,113,0,0,,4,,,76,127
10383,note_off,0,0,0,,4,,,64,127
10383,note_off,0,0,0,,1,,,61,127
10383,note_off,0,0,0,,7,,,67,127
10385,note_on,2,0,0,,7,,,79,127
10385,note_on,0,0,0,,7,,,67,127
10385,note_on,0,0,0,,1,,,61,127
10385,note_on,0,0,0,,4,,,64,127
10498,note_off,113,0,0,,7,,,79,127
10500,note_on,2,0,0,,4,,,76,127
10613,note_off,113,0,0,,4,,,76,127
10613,note_off,0,0,0,,4,,,64,127
10613,note_off,0,0,0,,1,,,61,127
10613,note_off,0,0,0,,7,,,67,127
10615,note_on,2,0,0,,5,,,77,127
10615,note_on,0,0,0,,10,,,69,127
10615,note_on,0,0,0,,5,,,65,127
10615,note_on,0,0,0,,2,,,62,127
10843,note_off,228,0,0,,2,,,62,127
10843,note_off,0,0,0,,5,,,65,127
10843,note_off,0,0,0,,10,,,69,127
10843,note_off,0,0,0,,5,,,77,127
10845,note_on,2,0,0,,2,,,86,127
10845,note_on,0,0,0,,2,,,62,127
10845,note_on,0,0,0,,5,,,65,127
10845,note_on,0,0,0,,10,,,69,127
11073,note_off,228,0,0,,10,,,69,127
11073,note_off,0,0,0,,5,,,65,127
11073,note_off,0,0,0,,2,,,62,127
11073,note_off,0,0,0,,2,,,86,127
11075,note_on,2,0,0,,10,,,81,127
11075,note_on,0,0,0,,10,,,69,127
11075,note_on,0,0,0,,2,,,62,127
11075,note_on,0,0,0,,5,,,65,127
11303,note_off,228,0,0,,5,,,65,127
11303,note_off,0,0,0,,2,,,62,127
11303,note_off,0,0,0,,10,,,69,127
11305,note_on,2,0,0,,5,,,65,127
11305,note_on,0,0,0,,2,,,62,127
11418,note_off,113,0,0,,10,,,81,127
11420,note_on,2,0,0,,10,,,69,127
11533,note_off,113,0,0,,10,,,69,127
11533,note_off,0,0,0,,2,,,62,127
11533,note_off,0,0,0,,5,,,65,127
11535,note_on,2,0,0,,2,,,74,127
11535,note_on,0,0,0,,2,,,62,127
11535,note_on,0,0,0,,5,,,65,127
11648,note_off,113,0,0,,2,,,74,127
11650,note_on,2,0,0,,5,,,77,127
11763,note_off,113,0,0,,5,,,77,127
11763,note_off,0,0,0,,5,,,65,127
11763,note_off,0,0,0,,2,,,62,127
11765,note_on,2,0,0,,10,,,81,127
11765,note_on,0,0,0,,2,,,62,127
11765,note_on,0,0,0,,5,,,65,127
11878,note_off,113,0,0,,10,,,81,127
11880,note_on,2,0,0,,10,,,69,127
11993,note_off,113,0,0,,10,,,69,127
11993,note_off,0,0,0,,5,,,65,127
11993,note_off,0,0,0,,2,,,62,127
11995,note_on,2,0,0,,11,,,70,127
11995,note_on,0,0,0,,7,,,67,127
11995,note_on,0,0,0,,2,,,62,127
12223,note_off,228,0,0,,2,,,62,127
12223,note_off,0,0,0,,7,,,67,127
12223,note_off,0,0,0,,11,,,70,127
12225,note_on,2,0,0,,11,,,82,127
12225,note_on,0,0,0,,7,,,67,127
12225,note_on,0,0,0,,2,,,62,127
12453,note_off,228,0,0,,2,,,62,127
12453,note_off,0,0,0,,7,,,67,127
12453,note_off,0,0,0,,11,,,82,127
12455,note_on,2,0,0,,7,,,79,127
12455,note_on,0,0,0,,7,,,67,127
12455,note_on,0,0,0,,2,,,62,127
12683,note_off,228,0,0,,2,,,62,127
12683,note_off,0,0,0,,7,,,67,127
12684,note_off,1,0,0,,7,,,79,127
12685,note_on,1,0,0,,7,,,67,127
12685,note_on,0,0,0,,4,,,64,127
12685,note_on,0,0,0,,1,,,61,127
12800,note_on,115,0,0,,10,,,69,127
12913,note_off,113,0,0,,10,,,69,127
12913,note_off,0,0,0,,1,,,61,127
12913,note_off,0,0,0,,4,,,64,127
12913,note_off,0,0,0,,7,,,67,127
12915,note_on,2,0,0,,1,,,73,127
12915,note_on,0,0,0,,1,,,61,127
12915,note_on,0,0,0,,4,,,64,127
12915,note_on,0,0,0,,7,,,67,127
13028,note_off,113,0,0,,1,,,73,127
13030,note_on,2,0,0,,4,,,76,127
13143,note_off,113,0,0,,4,,,76,127
13143,note_off,0,0,0,,7,,,67,127
13143,note_off,0,0,0,,4,,,64,127
13143,note_off,0,0,0,,1,,,61,127
13145,note_on,2,0,0,,7,,,79,127
13145,note_on,0,0,0,,4,,,64,127
13145,note_on,0,0,0,,7,,,67,127
13145,note_on,0,0,0,,1,,,61,127
13258,note_off,113,0,0,,7,,,79,127
13260,note_on,2,0,0,,4,,,76,127
13373,note_off,113,0,0,,4,,,76,127
13373,note_off,0,0,0,,1,,,61,127
13373,note_off,0,0,0,,7,,,67,127
13373,note_off,0,0,0,,4,,,64,127
13375,note_on,2,0,0,,5,,,77,127
13375,note_on,0,0,0,,5,,,65,127
13375,note_on,0,0,0,,10,,,69,127
13375,note_on,0,0,0,,2,,,62,127
13603,note_off,228,0,0,,2,,,62,127
13603,note_off,0,0,0,,10,,,69,127
13603,note_off,0,0,0,,5,,,65,127
13603,note_off,0,0,0,,5,,,77,127
13605,note_on,2,0,0,,2,,,86,127
13605,note_on,0,0,0,,2,,,62,127
13605,note_on,0,0,0,,10,,,69,127
13605,note_on,0,0,0,,5,,,65,127
13833,note_off,228,0,0,,5,,,65,127
13833,note_off,0,0,0,,10,,,69,127
13833,note_off,0,0,0,,2,,,62,127
13833,note_off,0,0,0,,2,,,86,127
13835,note_on,2,0,0,,10,,,81,127
13835,note_on,0,0,0,,10,,,69,127
13835,note_on,0,0,0,,2,,,62,127
13835,note_on,0,0,0,,5,,,65,127
14063,note_off,228,0,0,,5,,,65,127
14063,note_off,0,0,0,,2,,,62,127
14063,note_off,0,0,0,,10,,,69,127
14064,note_off,1,0,0,,10,,,81,127
14065,note_on,1,0,0,,8,,,68,127
14065,note_on,0,0,0,,5,,,65,127
14065,note_on,0,0,0,,12,,,59,127
14065,note_on,0,0,0,,2,,,62,127
14180,note_on,115,0,0,,2,,,86,127
14293,note_off,113,0,0,,2,,,86,127
14293,note_off,0,0,0,,2,,,62,127
14293,note_off,0,0,0,,12,,,59,127
14293,note_off,0,0,0,,5,,,65,127
14293,note_off,0,0,0,,8,,,68,127
14295,note_on,2,0,0,,12,,,83,127
14295,note_on,0,0,0,,8,,,68,127
14295,note_on,0,0,0,,12,,,59,127
14295,note_on,0,0,0,,2,,,62,127
14295,note_on,0,0,0,,5,,,65,127
14408,note_off,113,0,0,,12,,,83,127
14410,note_on,2,0,0,,8,,,80,127
14523,note_off,113,0,0,,8,,,80,127
14523,note_off,0,0,0,,5,,,65,127
14523,note_off,0,0,0,,2,,,62,127
14523,note_off,0,0,0,,12,,,59,127
14523,note_off,0,0,0,,8,,,68,127
14525,note_on,2,0,0,,5,,,77,127
14525,note_on,0,0,0,,5,,,65,127
14525,note_on,0,0,0,,8,,,68,127
14525,note_on,0,0,0,,12,,,59,127
14525,note_on,0,0,0,,2,,,62,127
14638,note_off,113,0,0,,5,,,77,127
14640,note_on,2,0,0,,2,,,74,127
14753,note_off,113,0,0,,2,,,74,127
14753,note_off,0,0,0,,2,,,62,127
14753,note_off,0,0,0,,12,,,59,127
14753,note_off,0,0,0,,8,,,68,127
14753,note_off,0,0,0,,5,,,65,127
14755,note_on,2,0,0,,4,,,76,127
14755,note_on,0,0,0,,10,,,69,127
14755,note_on,0,0,0,,0,,,60,127
14755,note_on,0,0,0,,4,,,64,127
14983,note_off,228,0,0,,4,,,64,127
14983,note_off,0,0,0,,0,,,60,127
14983,note_off,0,0,0,,10,,,69,127
14983,note_off,0,0,0,,4,,,76,127
14985,note_on,2,0,0,,0,,,84,127
14985,note_on,0,0,0,,10,,,69,127
14985,note_on,0,0,0,,0,,,60,127
14985,note_on,0,0,0,,4,,,64,127
15213,note_off,228,0,0,,4,,,64,127
15213,note_off,0,0,0,,0,,,60,127
15213,note_off,0,0,0,,10,,,69,127
15213,note_off,0,0,0,,0,,,84,127
15215,note_on,2,0,0,,10,,,81,127
15215,note_on,0,0,0,,4,,,64,127
15215,note_on,0,0,0,,10,,,69,127
15215,note_on,0,0,0,,0,,,60,127
15443,note_off,228,0,0,,0,,,60,127
15443,note_off,0,0,0,,10,,,69,127
15443,note_off,0,0,0,,4,,,64,127
15445,note_on,2,0,0,,4,,,64,127
15445,note_on,0,0,0,,2,,,62,127
15445,note_on,0,0,0,,8,,,56,127
15445,note_on,0,0,0,,12,,,59,127
15503,note_off,58,0,0,,10,,,81,127
15561,note_on,58,0,0,,12,,,83,127
15674,note_off,113,0,0,,12,,,83,127
15674,note_off,0,0,0,,12,,,59,127
15674,note_off,0,0,0,,8,,,56,127
15674,note_off,0,0,0,,2,,,62,127
15674,note_off,0,0,0,,4,,,64,127
15676,note_on,2,0,0,,8,,,80,127
15676,note_on,0,0,0,,4,,,64,127
15676,note_on,0,0,0,,12,,,59,127
15676,note_on,0,0,0,,2,,,62,127
15676,note_on,0,0,0,,8,,,56,127
15789,note_off,113,0,0,,8,,,80,127
15791,note_on,2,0,0,,5,,,77,127
15904,note_off,113,0,0,,5,,,77,127
15904,note_off,0,0,0,,8,,,56,127
15904,note_off,0,0,0,,2,,,62,127
15904,note_off,0,0,0,,12,,,59,127
15904,note_off,0,0,0,,4,,,64,127
15906,note_on,2,0,0,,2,,,74,127
15906,note_on,0,0,0,,4,,,64,127
15906,note_on,0,0,0,,2,,,62,127
15906,note_on,0,0,0,,8,,,56,127
15906,note_on,0,0,0,,12,,,59,127
16019,note_off,113,0,0,,2,,,74,127
16021,note_on,2,0,0,,12,,,71,127
16134,note_off,113,0,0,,12,,,71,127
16134,note_off,0,0,0,,12,,,59,127
16134,note_off,0,0,0,,8,,,56,127
16134,note_off,0,0,0,,2,,,62,127
16134,note_off,0,0,0,,4,,,64,127
16136,note_on,2,0,0,,0,,,72,127
16136,note_on,0,0,0,,0,,,60,127
16136,note_on,0,0,0,,4,,,64,127
16136,note_on,0,0,0,,10,,,57,127
16364,note_off,228,0,0,,10,,,57,127
16364,note_off,0,0,0,,4,,,64,127
16364,note_off,0,0,0,,0,,,60,127
16364,note_off,0,0,0,,0,,,72,127
16366,note_on,2,0,0,,10,,,81,127
16366,note_on,0,0,0,,10,,,57,127
16366,note_on,0,0,0,,4,,,64,127
16366,note_on,0,0,0,,0,,,60,127
16594,note_off,228,0,0,,0,,,60,127
16594,note_off,0,0,0,,4,,,64,127
16594,note_off,0,0,0,,10,,,57,127
16594,note_off,0,0,0,,10,,,81,127
16596,note_on,2,0,0,,4,,,76,127
16596,note_on,0,0,0,,10,,,57,127
16596,note_on,0,0,0,,0,,,60,127
16596,note_on,0,0,0,,4,,,64,127
16824,note_off,228,0,0,,4,,,64,127
16824,note_off,0,0,0,,0,,,60,127
16824,note_off,0,0,0,,10,,,57,127
16824,note_off,0,0,0,,4,,,76,127
16826,note_on,2,0,0,,5,,,65,127
16826,note_on,0,0,0,,2,,,62,127
16941,note_on,115,0,0,,10,,,81,127
17054,note_off,113,0,0,,10,,,81,127
17054,note_off,0,0,0,,2,,,62,127
17054,note_off,0,0,0,,5,,,65,127
17056,note_on,2,0,0,,5,,,77,127
17056,note_on,0,0,0,,5,,,65,127
17056,note_on,0,0,0,,2,,,62,127
17169,note_off,113,0,0,,5,,,77,127
17171,note_on,2,0,0,,2,,,74,127
17284,note_off,113,0,0,,2,,,74,127
17284,note_off,0,0,0,,2,,,62,127
17284,note_off,0,0,0,,5,,,65,127
17286,note_on,2,0,0,,12,,,71,127
17286,note_on,0,0,0,,2,,,62,127
17286,note_on,0,0,0,,5,,,65,127
17399,note_off,113,0,0,,12,,,71,127
17401,note_on,2,0,0,,8,,,68,127
17514,note_off,113,0,0,,8,,,68,127
17514,note_off,0,0,0,,5,,,65,127
17514,note_off,0,0,0,,2,,,62,127
17516,note_on,2,0,0,,10,,,69,127
17516,note_on,0,0,0,,0,,,60,127
17516,note_on,0,0,0,,4,,,64,127
17744,note_off,228,0,0,,4,,,64,127
17744,note_off,0,0,0,,0,,,60,127
17744,note_off,0,0,0,,10,,,69,127
17746,note_on,2,0,0,,4,,,76,127
17746,note_on,0,0,0,,0,,,60,127
17746,note_on,0,0,0,,4,,,64,127
17974,note_off,228,0,0,,4,,,64,127
17974,note_off,0,0,0,,0,,,60,127
17974,note_off,0,0,0,,4,,,76,127
17976,note_on,2,0,0,,0,,,72,127
17976,note_on,0,0,0,,4,,,64,127
17976,note_on,0,0,0,,0,,,60,127
18204,note_off,228,0,0,,0,,,60,127
18204,note_off,0,0,0,,4,,,64,127
18204,note_off,0,0,0,,0,,,72,127
18206,note_on,2,0,0,,8,,,56,127
18206,note_on,0,0,0,,12,,,59,127
18206,note_on,0,0,0,,2,,,62,127
18321,note_on,115,0,0,,2,,,74,127
18434,note_off,113,0,0,,2,,,74,127
18434,note_off,0,0,0,,2,,,62,127
18434,note_off,0,0,0,,12,,,59,127
18434,note_off,0,0,0,,8,,,56,127
18436,note_on,2,0,0,,12,,,71,127
18436,note_on,0,0,0,,12,,,59,127
18436,note_on,0,0,0,,2,,,62,127
18436,note_on,0,0,0,,8,,,56,127
18549,note_off,113,0,0,,12,,,71,127
18551,note_on,2,0,0,,8,,,68,127
18664,note_off,113,0,0,,8,,,68,127
18664,note_off,0,0,0,,8,,,56,127
18664,note_off,0,0,0,,2,,,62,127
18664,note_off,0,0,0,,12,,,59,127
18666,note_on,2,0,0,,5,,,65,127
18666,note_on,0,0,0,,12,,,59,127
18666,note_on,0,0,0,,2,,,62,127
18666,note_on,0,0,0,,8,,,56,127
18779,note_off,113,0,0,,5,,,65,127
18780,note_off,1,0,0,,2,,,62,127
18781,note_on,1,0,0,,2,,,62,127
18894,note_off,113,0,0,,2,,,62,127
18894,note_off,0,0,0,,8,,,56,127
18894,note_off,0,0,0,,12,,,59,127
18896,note_on,2,0,0,,10,,,57,127
18896,note_on,0,0,0,,0,,,60,127
19008,note_off,112,0,0,,10,,,57,127
19012,note_on,4,0,0,,10,,,57,127
19078,note_off,66,0,0,,0,,,60,127
19127,note_on,49,0,0,,0,,,60,127
19127,note_on,0,0,0,,4,,,64,127
19193,note_off,66,0,0,,10,,,57,127
19239,note_off,46,0,0,,0,,,60,127
19243,note_on,4,0,0,,0,,,60,127
19309,note_off,66,0,0,,4,,,64,127
19358,note_on,49,0,0,,10,,,57,127
19358,note_on,0,0,0,,10,,,69,127
19424,note_off,66,0,0,,0,,,60,127
19473,note_on,49,0,0,,0,,,60,127
19539,note_off,66,0,0,,10,,,69,127
19539,note_off,0,0,0,,10,,,57,127
19588,note_on,49,0,0,,12,,,59,127
19588,note_on,0,0,0,,2,,,62,127
19654,note_off,66,0,0,,0,,,60,127
19700,note_off,46,0,0,,12,,,59,127
19704,note_on,4,0,0,,12,,,59,127
19770,note_off,66,0,0,,2,,,62,127
19819,note_on,49,0,0,,2,,,62,127
19819,note_on,0,0,0,,8,,,68,127
19885,note_off,66,0,0,,12,,,59,127
19931,note_off,46,0,0,,2,,,62,127
19935,note_on,4,0,0,,2,,,62,127
20001,note_off,66,0,0,,8,,,68,127
20050,note_on,49,0,0,,12,,,59,127
20050,note_on,0,0,0,,12,,,71,127
20116,note_off,66,0,0,,2,,,62,127
20165,note_on,49,0,0,,2,,,62,127
20231,note_off,66,0,0,,12,,,71,127
20231,note_off,0,0,0,,12,,,59,127
20280,note_on,49,0,0,,0,,,60,127
20280,note_on,0,0,0,,4,,,64,127
20346,note_off,66,0,0,,2,,,62,127
20392,note_off,46,0,0,,0,,,60,127
20396,note_on,4,0,0,,0,,,60,127
20462,note_off,66,0,0,,4,,,64,127
20511,note_on,49,0,0,,4,,,64,127
20511,note_on,0,0,0,,10,,,69,127
20577,note_off,66,0,0,,0,,,60,127
20623,note_off,46,0,0,,4,,,64,127
20627,note_on,4,0,0,,4,,,64,127
20693,note_off,66,0,0,,10,,,69,127
20742,note_on,49,0,0,,0,,,60,127
20742,note_on,0,0,0,,0,,,72,127
20808,note_off,66,0,0,,4,,,64,127
20857,note_on,49,0,0,,4,,,64,127
20923,note_off,66,0,0,,0,,,72,127
20923,note_off,0,0,0,,0,,,60,127
20972,note_on,49,0,0,,2,,,62,127
20972,note_on,0,0,0,,5,,,65,127
21038,note_off,66,0,0,,4,,,64,127
21084,note_off,46,0,0,,2,,,62,127
21088,note_on,4,0,0,,2,,,62,127
21154,note_off,66,0,0,,5,,,65,127
21203,note_on,49,0,0,,5,,,65,127
21203,note_on,0,0,0,,12,,,71,127
21269,note_off,66,0,0,,2,,,62,127
21315,note_off,46,0,0,,5,,,65,127
21319,note_on,4,0,0,,5,,,65,127
21385,note_off,66,0,0,,12,,,71,127
21434,note_on,49,0,0,,2,,,62,127
21434,note_on,0,0,0,,2,,,74,127
21500,note_off,66,0,0,,5,,,65,127
21549,note_on,49,0,0,,5,,,65,127
21615,note_off,66,0,0,,2,,,74,127
21615,note_off,0,0,0,,2,,,62,127
21664,note_on,49,0,0,,4,,,64,127
21664,note_on,0,0,0,,8,,,68,127
21730,note_off,66,0,0,,5,,,65,127
21776,note_off,46,0,0,,4,,,64,127
21780,note_on,4,0,0,,4,,,64,127
21846,note_off,66,0,0,,8,,,68,127
21895,note_on,49,0,0,,8,,,68,127
21895,note_on,0,0,0,,12,,,71,127
21961,note_off,66,0,0,,4,,,64,127
22007,note_off,46,0,0,,8,,,68,127
22011,note_on,4,0,0,,8,,,68,127
22077,note_off,66,0,0,,12,,,71,127
22126,note_on,49,0,0,,4,,,64,127
22126,note_on,0,0,0,,2,,,74,127
22192,note_off,66,0,0,,8,,,68,127
22241,note_on,49,0,0,,12,,,71,127
22307,note_off,66,0,0,,2,,,74,127
22307,note_off,0,0,0,,4,,,64,127
22356,note_on,49,0,0,,10,,,57,127
22356,note_on,0,0,0,,0,,,60,127
22422,note_off,66,0,0,,12,,,71,127
22468,note_off,46,0,0,,10,,,57,127
22472,note_on,4,0,0,,10,,,57,127
22538,note_off,66,0,0,,0,,,60,127
22587,note_on,49,0,0,,0,,,60,127
22587,note_on,0,0,0,,4,,,64,127
22653,note_off,66,0,0,,10,,,57,127
22699,note_off,46,0,0,,0,,,60,127
22703,note_on,4,0,0,,0,,,60,127
22769,note_off,66,0,0,,4,,,64,127
22818,note_on,49,0,0,,10,,,57,127
22818,note_on,0,0,0,,10,,,69,127
22884,note_off,66,0,0,,0,,,60,127
22933,note_on,49,0,0,,0,,,60,127
22999,note_off,66,0,0,,10,,,69,127
22999,note_off,0,0,0,,10,,,57,127
23048,note_on,49,0,0,,12,,,59,127
23048,note_on,0,0,0,,2,,,62,127
23114,note_off,66,0,0,,0,,,60,127
23160,note_off,46,0,0,,12,,,59,127
23164,note_on,4,0,0,,12,,,59,127
23230,note_off,66,0,0,,2,,,62,127
23279,note_on,49,0,0,,2,,,62,127
23279,note_on,0,0,0,,8,,,68,127
23345,note_off,66,0,0,,12,,,59,127
23391,note_off,46,0,0,,2,,,62,127
23395,note_on,4,0,0,,2,,,62,127
23461,note_off,66,0,0,,8,,,68,127
23510,note_on,49,0,0,,12,,,59,127
23510,note_on,0,0,0,,12,,,71,127
23576,note_off,66,0,0,,2,,,62,127
23625,note_on,49,0,0,,2,,,62,127
23691,note_off,66,0,0,,12,,,71,127
23691,note_off,0,0,0,,12,,,59,127
23740,note_on,49,0,0,,0,,,60,127
23740,note_on,0,0,0,,4,,,64,127
23806,note_off,66,0,0,,2,,,62,127
23852,note_off,46,0,0,,0,,,60,127
23856,note_on,4,0,0,,0,,,60,127
23922,note_off,66,0,0,,4,,,64,127
23971,note_on,49,0,0,,4,,,64,127
23971,note_on,0,0,0,,10,,,69,127
24037,note_off,66,0,0,,0,,,60,127
24083,note_off,46,0,0,,4,,,64,127
24087,note_on,4,0,0,,4,,,64,127
24153,note_off,66,0,0,,10,,,69,127
24202,note_on,49,0,0,,0,,,60,127
24202,note_on,0,0,0,,0,,,72,127
24268,note_off,66,0,0,,4,,,64,127
24317,note_on,49,0,0,,4,,,64,127
24383,note_off,66,0,0,,0,,,72,127
24383,note_off,0,0,0,,0,,,60,127
24432,note_on,49,0,0,,2,,,62,127
24432,note_on,0,0,0,,5,,,65,127
24498,note_off,66,0,0,,4,,,64,127
24544,note_off,46,0,0,,2,,,62,127
24548,note_on,4,0,0,,2,,,62,127
24614,note_off,66,0,0,,5,,,65,127
24663,note_on,49,0,0,,5,,,65,127
24663,note_on,0,0,0,,12,,,71,127
24729,note_off,66,0,0,,2,,,62,127
24775,note_off,46,0,0,,5,,,65,127
24779,note_on,4,0,0,,5,,,65,127
24845,note_off,66,0,0,,12,,,71,127
24894,note_on,49,0,0,,2,,,62,127
24894,note_on,0,0,0,,2,,,74,127
24960,note_off,66,0,0,,5,,,65,127
25009,note_on,49,0,0,,5,,,65,127
25075,note_off,66,0,0,,2,,,74,127
25075,note_off,0,0,0,,2,,,62,127
25124,note_on,49,0,0,,4,,,64,127
25124,note_on,0,0,0,,8,,,68,127
25190,note_off,66,0,0,,5,,,65,127
25236,note_off,46,0,0,,4,,,64,127
25240,note_on,4,0,0,,4,,,64,127
25306,note_off,66,0,0,,8,,,68,127
25355,note_on,49,0,0,,8,,,68,127
25355,note_on,0,0,0,,12,,,71,127
25421,note_off,66,0,0,,4,,,64,127
25467,note_off,46,0,0,,8,,,68,127
25471,note_on,4,0,0,,8,,,68,127
25537,note_off,66,0,0,,12,,,71,127
25586,note_on,49,0,0,,4,,,64,127
25586,note_on,0,0,0,,2,,,74,127
25652,note_off,66,0,0,,8,,,68,127
25701,note_on,49,0,0,,12,,,71,127
25767,note_off,66,0,0,,2,,,74,127
25767,note_off,0,0,0,,4,,,64,127
25816,note_on,49,0,0,,10,,,69,127
25816,note_on,0,0,0,,0,,,72,127
25882,note_off,66,0,0,,12,,,71,127
25928,note_off,46,0,0,,10,,,69,127
25932,note_on,4,0,0,,10,,,69,127
25998,note_off,66,0,0,,0,,,72,127
26047,note_on,49,0,0,,0,,,72,127
26047,note_on,0,0,0,,4,,,76,127
26113,note_off,66,0,0,,10,,,69,127
26159,note_off,46,0,0,,0,,,72,127
26163,note_on,4,0,0,,0,,,72,127
26229,note_off,66,0,0,,4,,,76,127
26278,note_on,49,0,0,,10,,,69,127
26278,note_on,0,0,0,,10,,,81,127
26344,note_off,66,0,0,,0,,,72,127
26393,note_on,49,0,0,,0,,,72,127
26459,note_off,66,0,0,,10,,,81,127
26459,note_off,0,0,0,,10,,,69,127
26508,note_on,49,0,0,,4,,,64,127
26508,note_on,0,0,0,,8,,,68,127
26574,note_off,66,0,0,,0,,,72,127
26620,note_off,46,0,0,,4,,,64,127
26624,note_on,4,0,0,,4,,,64,127
26690,note_off,66,0,0,,8,,,68,127
26739,note_on,49,0,0,,8,,,68,127
26739,note_on,0,0,0,,12,,,71,127
26805,note_off,66,0,0,,4,,,64,127
26851,note_off,46,0,0,,8,,,68,127
26855,note_on,4,0,0,,8,,,68,127
26921,note_off,66,0,0,,12,,,71,127
26970,note_on,49,0,0,,4,,,64,127
26970,note_on,0,0,0,,2,,,74,127
27036,note_off,66,0,0,,8,,,68,127
27085,note_on,49,0,0,,12,,,71,127
27151,note_off,66,0,0,,2,,,74,127
27151,note_off,0,0,0,,4,,,64,127
27200,note_on,49,0,0,,10,,,69,127
27200,note_on,0,0,0,,0,,,72,127
27266,note_off,66,0,0,,12,,,71,127
27312,note_off,46,0,0,,10,,,69,127
27316,note_on,4,0,0,,10,,,69,127
27382,note_off,66,0,0,,0,,,72,127
27431,note_on,49,0,0,,0,,,72,127
27431,note_on,0,0,0,,4,,,76,127
27497,note_off,66,0,0,,10,,,69,127
27543,note_off,46,0,0,,0,,,72,127
27547,note_on,4,0,0,,0,,,72,127
27613,note_off,66,0,0,,4,,,76,127
27662,note_on,49,0,0,,10,,,69,127
27662,note_on,0,0,0,,10,,,81,127
27728,note_off,66,0,0,,0,,,72,127
27777,note_on,49,0,0,,0,,,72,127
27843,note_off,66,0,0,,10,,,81,127
27843,note_off,0,0,0,,10,,,69,127
27892,note_on,49,0,0,,4,,,64,127
27892,note_on,0,0,0,,8,,,68,127
27958,note_off,66,0,0,,0,,,72,127
28004,note_off,46,0,0,,4,,,64,127
28008,note_on,4,0,0,,4,,,64,127
28074,note_off,66,0,0,,8,,,68,127
28123,note_on,49,0,0,,8,,,68,127
28123,note_on,0,0,0,,12,,,71,127
28189,note_off,66,0,0,,4,,,64,127
28235,note_off,46,0,0,,8,,,68,127
28239,note_on,4,0,0,,8,,,68,127
28305,note_off,66,0,0,,12,,,71,127
28354,note_on,49,0,0,,4,,,64,127
28354,note_on,0,0,0,,2,,,74,127
28420,note_off,66,0,0,,8,,,68,127
28469,note_on,49,0,0,,12,,,71,127
28535,note_off,66,0,0,,2,,,74,127
28535,note_off,0,0,0,,4,,,64,127
28584,note_on,49,0,0,,10,,,69,127
28584,note_on,0,0,0,,0,,,72,127
28650,note_off,66,0,0,,12,,,71,127
28696,note_off,46,0,0,,10,,,69,127
28700,note_on,4,0,0,,10,,,69,127
28766,note_off,66,0,0,,0,,,72,127
28815,note_on,49,0,0,,12,,,71,127
28815,note_on,0,0,0,,8,,,80,127
28881,note_off,66,0,0,,10,,,69,127
28930,note_on,49,0,0,,4,,,76,127
28996,note_off,66,0,0,,8,,,80,127
28996,note_off,0,0,0,,12,,,71,127
29045,note_on,49,0,0,,0,,,72,127
29045,note_on,0,0,0,,10,,,81,127
29111,note_off,66,0,0,,4,,,76,127
29160,note_on,49,0,0,,4,,,76,127
29226,note_off,66,0,0,,10,,,81,127
29226,note_off,0,0,0,,0,,,72,127
29275,note_on,49,0,0,,12,,,83,127
29275,note_on,0,0,0,,2,,,74,127
29275,note_on,0,0,0,,2,,,62,127
29341,note_off,66,0,0,,4,,,76,127
29389,note_off,48,0,0,,12,,,83,127
29390,note_on,1,0,0,,0,,,84,127
29445,note_off,55,0,0,,0,,,84,127
29447,note_on,2,0,0,,2,,,86,127
29502,note_off,55,0,0,,2,,,86,127
29502,note_off,0,0,0,,2,,,62,127
29502,note_off,0,0,0,,2,,,74,127
29504,note_on,2,0,0,,0,,,84,127
29504,note_on,0,0,0,,0,,,72,127
29504,note_on,0,0,0,,10,,,69,127
29504,note_on,0,0,0,,4,,,64,127
29618,note_off,114,0,0,,0,,,84,127
29619,note_on,1,0,0,,12,,,83,127
29732,note_off,113,0,0,,10,,,69,127
29732,note_off,0,0,0,,0,,,72,127
29733,note_off,1,0,0,,12,,,83,127
29734,note_on,1,0,0,,10,,,81,127
29734,note_on,0,0,0,,12,,,71,127
29848,note_off,114,0,0,,10,,,81,127
29849,note_on,1,0,0,,8,,,80,127
29962,note_off,113,0,0,,12,,,71,127
29963,note_off,1,0,0,,8,,,80,127
29963,note_off,0,0,0,,4,,,64,127
29964,note_on,1,0,0,,10,,,69,127
29964,note_on,0,0,0,,0,,,72,127
30076,note_off,112,0,0,,10,,,69,127
30080,note_on,4,0,0,,10,,,69,127
30146,note_off,66,0,0,,0,,,72,127
30195,note_on,49,0,0,,0,,,72,127
30195,note_on,0,0,0,,4,,,76,127
30261,note_off,66,0,0,,10,,,69,127
30307,note_off,46,0,0,,0,,,72,127
30311,note_on,4,0,0,,0,,,72,127
30377,note_off,66,0,0,,4,,,76,127
30426,note_on,49,0,0,,10,,,69,127
30426,note_on,0,0,0,,10,,,81,127
30492,note_off,66,0,0,,0,,,72,127
30541,note_on,49,0,0,,0,,,72,127
30607,note_off,66,0,0,,10,,,81,127
30607,note_off,0,0,0,,10,,,69,127
30656,note_on,49,0,0,,4,,,64,127
30656,note_on,0,0,0,,8,,,68,127
30722,note_off,66,0,0,,0,,,72,127
30768,note_off,46,0,0,,4,,,64,127
30772,note_on,4,0,0,,4,,,64,127
30838,note_off,66,0,0,,8,,,68,127
30887,note_on,49,0,0,,8,,,68,127
30887,note_on,0,0,0,,12,,,71,127
30953,note_off,66,0,0,,4,,,64,127
30999,note_off,46,0,0,,8,,,68,127
31003,note_on,4,0,0,,8,,,68,127
31069,note_off,66,0,0,,12,,,71,127
31118,note_on,49,0,0,,4,,,64,127
31118,note_on,0,0,0,,2,,,74,127
31184,note_off,66,0,0,,8,,,68,127
31233,note_on,49,0,0,,12,,,71,127
31299,note_off,66,0,0,,2,,,74,127
31299,note_off,0,0,0,,4,,,64,127
31348,note_on,49,0,0,,10,,,69,127
31348,note_on,0,0,0,,0,,,72,127
31414,note_off,66,0,0,,12,,,71,127
31460,note_off,46,0,0,,10,,,69,127
31464,note_on,4,0,0,,10,,,69,127
31530,note_off,66,0,0,,0,,,72,127
31579,note_on,49,0,0,,0,,,72,127
31579,note_on,0,0,0,,4,,,76,127
31645,note_off,66,0,0,,10,,,69,127
31691,note_off,46,0,0,,0,,,72,127
31695,note_on,4,0,0,,0,,,72,127
31761,note_off,66,0,0,,4,,,76,127
31810,note_on,49,0,0,,10,,,69,127
31810,note_on,0,0,0,,10,,,81,127
31876,note_off,66,0,0,,0,,,72,127
31925,note_on,49,0,0,,0,,,72,127
31991,note_off,66,0,0,,10,,,81,127
31991,note_off,0,0,0,,10,,,69,127
32040,note_on,49,0,0,,4,,,64,127
32040,note_on,0,0,0,,8,,,68,127
32106,note_off,66,0,0,,0,,,72,127
32152,note_off,46,0,0,,4,,,64,127
32156,note_on,4,0,0,,4,,,64,127
32222,note_off,66,0,0,,8,,,68,127
32271,note_on,49,0,0,,8,,,68,127
32271,note_on,0,0,0,,12,,,71,127
32337,note_off,66,0,0,,4,,,64,127
32383,note_off,46,0,0,,8,,,68,127
32387,note_on,4,0,0,,8,,,68,127
32453,note_off,66,0,0,,12,,,71,127
32502,note_on,49,0,0,,4,,,64,127
32502,note_on,0,0,0,,2,,,74,127
32568,note_off,66,0,0,,8,,,68,127
32617,note_on,49,0,0,,12,,,71,127
32683,note_off,66,0,0,,2,,,74,127
32683,note_off,0,0,0,,4,,,64,127
32732,note_on,49,0,0,,10,,,69,127
32732,note_on,0,0,0,,0,,,72,127
32798,note_off,66,0,0,,12,,,71,127
32844,note_off,46,0,0,,10,,,69,127
32848,note_on,4,0,0,,10,,,69,127
32914,note_off,66,0,0,,0,,,72,127
32963,note_on,49,0,0,,12,,,71,127
32963,note_on,0,0,0,,8,,,80,127
33029,note_off,66,0,0,,10,,,69,127
33078,note_on,49,0,0,,4,,,76,127
33144,note_off,66,0,0,,8,,,80,127
33144,note_off,0,0,0,,12,,,71,127
33193,note_on,49,0,0,,0,,,72,127
33193,note_on,0,0,0,,10,,,81,127
33259,note_off,66,0,0,,4,,,76,127
33308,note_on,49,0,0,,4,,,76,127
33374,note_off,66,0,0,,10,,,81,127
33374,note_off,0,0,0,,0,,,72,127
33423,note_on,49,0,0,,12,,,83,127
33423,note_on,0,0,0,,2,,,62,127
33423,note_on,0,0,0,,2,,,74,127
33489,note_off,66,0,0,,4,,,76,127
33536,note_off,47,0,0,,12,,,83,127
33538,note_on,2,0,0,,0,,,84,127
33593,note_off,55,0,0,,0,,,84,127
33595,note_on,2,0,0,,2,,,86,127
33650,note_off,55,0,0,,2,,,86,127
33650,note_off,0,0,0,,2,,,74,127
33650,note_off,0,0,0,,2,,,62,127
33652,note_on,2,0,0,,0,,,84,127
33652,note_on,0,0,0,,10,,,69,127
33652,note_on,0,0,0,,0,,,72,127
33652,note_on,0,0,0,,4,,,64,127
33765,note_off,113,0,0,,0,,,84,127
33767,note_on,2,0,0,,12,,,83,127
33880,note_off,113,0,0,,12,,,83,127
33880,note_off,0,0,0,,0,,,72,127
33880,note_off,0,0,0,,10,,,69,127
33882,note_on,2,0,0,,10,,,81,127
33882,note_on,0,0,0,,12,,,71,127
33995,note_off,113,0,0,,10,,,81,127
33997,note_on,2,0,0,,8,,,80,127
34110,note_off,113,0,0,,8,,,80,127
34110,note_off,0,0,0,,12,,,71,127
34111,note_off,1,0,0,,4,,,64,127
34112,note_on,1,0,0,,10,,,81,127
34112,note_on,0,0,0,,10,,,57,127
34225,note_off,113,0,0,,10,,,81,127
34227,note_on,2,0,0,,7,,,79,127
34340,note_off,113,0,0,,7,,,79,127
34342,note_on,2,0,0,,5,,,77,127
34455,note_off,113,0,0,,5,,,77,127
34457,note_on,2,0,0,,4,,,76,127
34570,note_off,113,0,0,,4,,,76,127
34570,note_off,0,0,0,,10,,,57,127
34572,note_on,2,0,0,,3,,,75,127
34572,note_on,0,0,0,,10,,,69,127
34685,note_off,113,0,0,,3,,,75,127
34687,note_on,2,0,0,,4,,,76,127
34800,note_off,113,0,0,,4,,,76,127
34800,note_off,0,0,0,,10,,,69,127
34802,note_on,2,0,0,,12,,,71,127
34802,note_on,0,0,0,,8,,,68,127
34915,note_off,113,0,0,,12,,,71,127
34917,note_on,2,0,0,,0,,,72,127
35030,note_off,113,0,0,,0,,,72,127
35030,note_off,0,0,0,,8,,,68,127
35032,note_on,2,0,0,,1,,,73,127
35032,note_on,0,0,0,,6,,,66,127
35145,note_off,113,0,0,,1,,,73,127
35147,note_on,2,0,0,,2,,,74,127
35260,note_off,113,0,0,,2,,,74,127
35260,note_off,0,0,0,,6,,,66,127
35262,note_on,2,0,0,,4,,,76,127
35262,note_on,0,0,0,,4,,,64,127
35375,note_off,113,0,0,,4,,,76,127
35377,note_on,2,0,0,,2,,,74,127
35490,note_off,113,0,0,,2,,,74,127
35490,note_off,0,0,0,,4,,,64,127
35492,note_on,2,0,0,,2,,,74,127
35492,note_on,0,0,0,,10,,,57,127
35605,note_off,113,0,0,,2,,,74,127
35607,note_on,2,0,0,,0,,,72,127
35720,note_off,113,0,0,,0,,,72,127
35720,note_off,0,0,0,,10,,,57,127
35722,note_on,2,0,0,,12,,,71,127
35722,note_on,0,0,0,,12,,,59,127
35835,note_off,113,0,0,,12,,,71,127
35837,note_on,2,0,0,,0,,,72,127
35950,note_off,113,0,0,,0,,,72,127
35950,note_off,0,0,0,,12,,,59,127
35952,note_on,2,0,0,,10,,,69,127
35952,note_on,0,0,0,,0,,,60,127
36065,note_off,113,0,0,,10,,,69,127
36067,note_on,2,0,0,,12,,,71,127
36180,note_off,113,0,0,,12,,,71,127
36180,note_off,0,0,0,,0,,,60,127
36182,note_on,2,0,0,,0,,,72,127
36182,note_on,0,0,0,,2,,,62,127
36295,note_off,113,0,0,,0,,,72,127
36297,note_on,2,0,0,,2,,,74,127
36410,note_off,113,0,0,,2,,,74,127
36410,note_off,0,0,0,,2,,,62,127
36412,note_on,2,0,0,,0,,,72,127
36412,note_on,0,0,0,,4,,,64,127
36467,note_off,55,0,0,,0,,,72,127
36469,note_on,2,0,0,,12,,,71,127
36524,note_off,55,0,0,,12,,,71,127
36526,note_on,2,0,0,,10,,,69,127
36639,note_off,113,0,0,,10,,,69,127
36641,note_on,2,0,0,,12,,,71,127
36641,note_on,0,0,0,,4,,,52,127
36754,note_off,113,0,0,,12,,,71,127
36756,note_off,2,0,0,,4,,,64,127
36756,note_on,0,0,0,,8,,,68,127
36869,note_off,113,0,0,,8,,,68,127
36869,note_off,0,0,0,,4,,,52,127
36871,note_on,2,0,0,,10,,,69,127
36871,note_on,0,0,0,,10,,,45,127
36984,note_off,113,0,0,,10,,,69,127
36986,note_on,2,0,0,,7,,,67,127
37099,note_off,113,0,0,,7,,,67,127
37101,note_on,2,0,0,,5,,,65,127
37214,note_off,113,0,0,,5,,,65,127
37216,note_on,2,0,0,,4,,,64,127
37329,note_off,113,0,0,,4,,,64,127
37329,note_off,0,0,0,,10,,,45,127
37331,note_on,2,0,0,,3,,,63,127
37331,note_on,0,0,0,,10,,,57,127
37444,note_off,113,0,0,,3,,,63,127
37446,note_on,2,0,0,,4,,,64,127
37559,note_off,113,0,0,,4,,,64,127
37559,note_off,0,0,0,,10,,,57,127
37561,note_on,2,0,0,,12,,,59,127
37561,note_on,0,0,0,,8,,,56,127
37674,note_off,113,0,0,,12,,,59,127
37676,note_on,2,0,0,,0,,,60,127
37789,note_off,113,0,0,,0,,,60,127
37789,note_off,0,0,0,,8,,,56,127
37791,note_on,2,0,0,,1,,,61,127
37791,note_on,0,0,0,,6,,,54,127
37904,note_off,113,0,0,,1,,,61,127
37906,note_on,2,0,0,,2,,,62,127
38019,note_off,113,0,0,,2,,,62,127
38019,note_off,0,0,0,,6,,,54,127
38021,note_on,2,0,0,,4,,,64,127
38021,note_on,0,0,0,,4,,,52,127
38134,note_off,113,0,0,,4,,,64,127
38136,note_on,2,0,0,,2,,,62,127
38249,note_off,113,0,0,,2,,,62,127
38249,note_off,0,0,0,,4,,,52,127
38251,note_on,2,0,0,,2,,,62,127
38251,note_on,0,0,0,,10,,,45,127
38364,note_off,113,0,0,,2,,,62,127
38366,note_on,2,0,0,,0,,,60,127
38479,note_off,113,0,0,,0,,,60,127
38479,note_off,0,0,0,,10,,,45,127
38481,note_on,2,0,0,,12,,,59,127
38481,note_on,0,0,0,,12,,,47,127
38594,note_off,113,0,0,,12,,,59,127
38596,note_on,2,0,0,,0,,,60,127
38709,note_off,113,0,0,,0,,,60,127
38709,note_off,0,0,0,,12,,,47,127
38711,note_on,2,0,0,,10,,,57,127
38711,note_on,0,0,0,,0,,,48,127
38824,note_off,113,0,0,,10,,,57,127
38826,note_on,2,0,0,,12,,,59,127
38939,note_off,113,0,0,,12,,,59,127
38939,note_off,0,0,0,,0,,,48,127
38941,note_on,2,0,0,,0,,,60,127
38941,note_on,0,0,0,,2,,,50,127
39054,note_off,113,0,0,,0,,,60,127
39056,note_on,2,0,0,,2,,,62,127
39169,note_off,113,0,0,,2,,,62,127
39169,note_off,0,0,0,,2,,,50,127
39171,note_on,2,0,0,,0,,,60,127
39171,note_on,0,0,0,,4,,,52,127
39226,note_off,55,0,0,,0,,,60,127
39228,note_on,2,0,0,,12,,,59,127
39283,note_off,55,0,0,,12,,,59,127
39285,note_on,2,0,0,,10,,,57,127
39398,note_off,113,0,0,,10,,,57,127
39400,note_on,2,0,0,,12,,,59,127
39400,note_on,0,0,0,,4,,,40,127
39513,note_off,113,0,0,,12,,,59,127
39515,note_on,2,0,0,,8,,,56,127
39625,note_off,110,0,0,,4,,,52,127
39627,note_off,2,0,0,,8,,,56,127
39627,note_off,0,0,0,,4,,,40,127
39629,note_on,2,0,0,,8,,,56,127
39629,note_on,0,0,0,,10,,,45,127
39857,note_off,228,0,0,,8,,,56,127
39859,note_on,2,0,0,,10,,,57,127
40277,note_off,418,0,0,,10,,,57,127
40318,note_off,41,0,0,,10,,,45,127
40320,note_on,2,0,0,,4,,,64,127
40320,note_on,0,0,0,,2,,,62,127
40320,note_on,0,0,0,,10,,,57,127
40434,note_off,114,0,0,,4,,,64,127
40435,note_on,1,0,0,,4,,,64,127
40550,note_on,115,0,0,,4,,,76,127
40663,note_off,113,0,0,,4,,,76,127
40665,note_on,2,0,0,,2,,,74,127
40778,note_off,113,0,0,,2,,,74,127
40778,note_off,0,0,0,,4,,,64,127
40778,note_off,0,0,0,,10,,,57,127
40778,note_off,0,0,0,,2,,,62,127
40780,note_on,2,0,0,,2,,,74,127
40780,note_on,0,0,0,,4,,,64,127
40780,note_on,0,0,0,,2,,,62,127
40780,note_on,0,0,0,,8,,,56,127
40835,note_off,55,0,0,,2,,,74,127
40837,note_on,2,0,0,,1,,,73,127
40892,note_off,55,0,0,,1,,,73,127
40894,note_on,2,0,0,,12,,,71,127
41007,note_off,113,0,0,,12,,,71,127
41007,note_off,0,0,0,,8,,,56,127
41007,note_off,0,0,0,,2,,,62,127
41007,note_off,0,0,0,,4,,,64,127
41009,note_on,2,0,0,,10,,,81,127
41009,note_on,0,0,0,,2,,,62,127
41009,note_on,0,0,0,,4,,,64,127
41009,note_on,0,0,0,,10,,,57,127
41122,note_off,113,0,0,,10,,,81,127
41124,note_on,2,0,0,,10,,,69,127
41237,note_off,113,0,0,,10,,,69,127
41239,note_on,2,0,0,,4,,,76,127
41352,note_off,113,0,0,,4,,,76,127
41354,note_on,2,0,0,,2,,,74,127
41467,note_off,113,0,0,,2,,,74,127
41467,note_off,0,0,0,,10,,,57,127
41467,note_off,0,0,0,,4,,,64,127
41467,note_off,0,0,0,,2,,,62,127
41469,note_on,2,0,0,,2,,,74,127
41469,note_on,0,0,0,,4,,,64,127
41469,note_on,0,0,0,,2,,,62,127
41469,note_on,0,0,0,,8,,,56,127
41524,note_off,55,0,0,,2,,,74,127
41526,note_on,2,0,0,,1,,,73,127
41581,note_off,55,0,0,,1,,,73,127
41583,note_on,2,0,0,,12,,,71,127
41696,note_off,113,0,0,,12,,,71,127
41696,note_off,0,0,0,,8,,,56,127
41696,note_off,0,0,0,,2,,,62,127
41696,note_off,0,0,0,,4,,,64,127
41698,note_on,2,0,0,,10,,,81,127
41698,note_on,0,0,0,,4,,,64,127
41698,note_on,0,0,0,,2,,,62,127
41698,note_on,0,0,0,,10,,,57,127
41811,note_off,113,0,0,,10,,,81,127
41813,note_on,2,0,0,,10,,,69,127
41926,note_off,113,0,0,,10,,,69,127
41928,note_on,2,0,0,,4,,,76,127
42041,note_off,113,0,0,,4,,,76,127
42043,note_on,2,0,0,,2,,,74,127
42156,note_off,113,0,0,,2,,,74,127
42156,note_off,0,0,0,,10,,,57,127
42156,note_off,0,0,0,,2,,,62,127
42156,note_off,0,0,0,,4,,,64,127
42158,note_on,2,0,0,,2,,,74,127
42158,note_on,0,0,0,,4,,,64,127
42158,note_on,0,0,0,,2,,,62,127
42158,note_on,0,0,0,,8,,,56,127
42213,note_off,55,0,0,,2,,,74,127
42215,note_on,2,0,0,,1,,,73,127
42270,note_off,55,0,0,,1,,,73,127
42272,note_on,2,0,0,,12,,,71,127
42385,note_off,113,0,0,,12,,,71,127
42385,note_off,0,0,0,,8,,,56,127
42385,note_off,0,0,0,,2,,,62,127
42385,note_off,0,0,0,,4,,,64,127
42387,note_on,2,0,0,,10,,,81,127
42387,note_on,0,0,0,,4,,,64,127
42387,note_on,0,0,0,,2,,,62,127
42387,note_on,0,0,0,,10,,,57,127
42500,note_off,113,0,0,,10,,,81,127
42502,note_on,2,0,0,,10,,,69,127
42615,note_off,113,0,0,,10,,,69,127
42617,note_on,2,0,0,,10,,,81,127
42730,note_off,113,0,0,,10,,,81,127
42732,note_on,2,0,0,,7,,,79,127
42845,note_off,113,0,0,,7,,,79,127
42845,note_off,0,0,0,,10,,,57,127
42845,note_off,0,0,0,,2,,,62,127
42845,note_off,0,0,0,,4,,,64,127
42847,note_on,2,0,0,,7,,,79,127
42847,note_on,0,0,0,,10,,,69,127
42847,note_on,0,0,0,,7,,,67,127
42847,note_on,0,0,0,,1,,,61,127
42902,note_off,55,0,0,,7,,,79,127
42904,note_on,2,0,0,,5,,,77,127
42959,note_off,55,0,0,,5,,,77,127
42961,note_on,2,0,0,,4,,,76,127
43074,note_off,113,0,0,,4,,,76,127
43074,note_off,0,0,0,,1,,,61,127
43074,note_off,0,0,0,,7,,,67,127
43074,note_off,0,0,0,,10,,,69,127
43076,note_on,2,0,0,,2,,,86,127
43076,note_on,0,0,0,,10,,,69,127
43076,note_on,0,0,0,,7,,,67,127
43076,note_on,0,0,0,,2,,,62,127
43189,note_off,113,0,0,,2,,,86,127
43191,note_on,2,0,0,,2,,,74,127
43304,note_off,113,0,0,,2,,,74,127
43306,note_on,2,0,0,,10,,,81,127
43419,note_off,113,0,0,,10,,,81,127
43421,note_on,2,0,0,,7,,,79,127
43534,note_off,113,0,0,,7,,,79,127
43534,note_off,0,0,0,,2,,,62,127
43534,note_off,0,0,0,,7,,,67,127
43534,note_off,0,0,0,,10,,,69,127
43536,note_on,2,0,0,,7,,,79,127
43536,note_on,0,0,0,,7,,,67,127
43536,note_on,0,0,0,,10,,,69,127
43536,note_on,0,0,0,,1,,,61,127
43591,note_off,55,0,0,,7,,,79,127
43593,note_on,2,0,0,,5,,,77,127
43648,note_off,55,0,0,,5,,,77,127
43650,note_on,2,0,0,,4,,,76,127
43763,note_off,113,0,0,,4,,,76,127
43763,note_off,0,0,0,,1,,,61,127
43763,note_off,0,0,0,,10,,,69,127
43763,note_off,0,0,0,,7,,,67,127
43765,note_on,2,0,0,,2,,,86,127
43765,note_on,0,0,0,,10,,,69,127
43765,note_on,0,0,0,,7,,,67,127
43765,note_on,0,0,0,,2,,,62,127
43878,note_off,113,0,0,,2,,,86,127
43880,note_on,2,0,0,,2,,,74,127
43993,note_off,113,0,0,,2,,,74,127
43995,note_on,2,0,0,,10,,,81,127
44108,note_off,113,0,0,,10,,,81,127
44110,note_on,2,0,0,,7,,,79,127
44223,note_off,113,0,0,,7,,,79,127
44223,note_off,0,0,0,,2,,,62,127
44223,note_off,0,0,0,,7,,,67,127
44223,note_off,0,0,0,,10,,,69,127
44225,note_on,2,0,0,,7,,,79,127
44225,note_on,0,0,0,,10,,,69,127
44225,note_on,0,0,0,,7,,,67,127
44225,note_on,0,0,0,,1,,,61,127
44280,note_off,55,0,0,,7,,,79,127
44282,note_on,2,0,0,,5,,,77,127
44337,note_off,55,0,0,,5,,,77,127
44339,note_on,2,0,0,,4,,,76,127
44452,note_off,113,0,0,,4,,,76,127
44452,note_off,0,0,0,,1,,,61,127
44452,note_off,0,0,0,,7,,,67,127
44452,note_off,0,0,0,,10,,,69,127
44454,note_on,2,0,0,,2,,,86,127
44454,note_on,0,0,0,,5,,,65,127
44454,note_on,0,0,0,,10,,,69,127
44454,note_on,0,0,0,,2,,,62,127
44567,note_off,113,0,0,,2,,,86,127
44569,note_on,2,0,0,,2,,,74,127
44682,note_off,113,0,0,,2,,,74,127
44684,note_on,2,0,0,,2,,,86,127
44797,note_off,113,0,0,,2,,,86,127
44799,note_on,2,0,0,,0,,,84,127
44912,note_off,113,0,0,,0,,,84,127
44912,note_off,0,0,0,,2,,,62,127
44912,note_off,0,0,0,,10,,,69,127
44912,note_off,0,0,0,,5,,,65,127
44914,note_on,2,0,0,,0,,,84,127
44914,note_on,0,0,0,,10,,,69,127
44914,note_on,0,0,0,,6,,,66,127
44969,note_off,55,0,0,,0,,,84,127
44971,note_on,2,0,0,,11,,,82,127
45026,note_off,55,0,0,,11,,,82,127
45028,note_on,2,0,0,,10,,,81,127
45141,note_off,113,0,0,,10,,,81,127
45141,note_off,0,0,0,,6,,,66,127
45141,note_off,0,0,0,,10,,,69,127
45143,note_on,2,0,0,,11,,,82,127
45143,note_on,0,0,0,,7,,,67,127
45143,note_on,0,0,0,,11,,,70,127
45256,note_off,113,0,0,,11,,,82,127
45258,note_on,2,0,0,,2,,,74,127
45371,note_off,113,0,0,,2,,,74,127
45373,note_on,2,0,0,,2,,,86,127
45486,note_off,113,0,0,,2,,,86,127
45488,note_on,2,0,0,,0,,,84,127
45601,note_off,113,0,0,,0,,,84,127
45601,note_off,0,0,0,,11,,,70,127
45601,note_off,0,0,0,,7,,,67,127
45603,note_on,2,0,0,,0,,,84,127
45603,note_on,0,0,0,,10,,,69,127
45603,note_on,0,0,0,,6,,,66,127
45658,note_off,55,0,0,,0,,,84,127
45660,note_on,2,0,0,,11,,,82,127
45715,note_off,55,0,0,,11,,,82,127
45717,note_on,2,0,0,,10,,,81,127
45830,note_off,113,0,0,,10,,,81,127
45830,note_off,0,0,0,,6,,,66,127
45830,note_off,0,0,0,,10,,,69,127
45832,note_on,2,0,0,,11,,,82,127
45832,note_on,0,0,0,,7,,,67,127
45832,note_on,0,0,0,,11,,,70,127
45945,note_off,113,0,0,,11,,,82,127
45947,note_on,2,0,0,,2,,,74,127
46060,note_off,113,0,0,,2,,,74,127
46062,note_on,2,0,0,,2,,,86,127
46175,note_off,113,0,0,,2,,,86,127
46177,note_on,2,0,0,,0,,,84,127
46290,note_off,113,0,0,,0,,,84,127
46290,note_off,0,0,0,,11,,,70,127
46290,note_off,0,0,0,,7,,,67,127
46292,note_on,2,0,0,,0,,,84,127
46292,note_on,0,0,0,,6,,,66,127
46292,note_on,0,0,0,,10,,,69,127
46347,note_off,55,0,0,,0,,,84,127
46349,note_on,2,0,0,,11,,,82,127
46404,note_off,55,0,0,,11,,,82,127
46406,note_on,2,0,0,,10,,,81,127
46519,note_off,113,0,0,,10,,,81,127
46519,note_off,0,0,0,,10,,,69,127
46519,note_off,0,0,0,,6,,,66,127
46521,note_on,2,0,0,,11,,,82,127
46521,note_on,0,0,0,,0,,,84,127
46521,note_on,0,0,0,,7,,,67,127
46634,note_off,113,0,0,,0,,,84,127
46634,note_off,0,0,0,,11,,,82,127
46636,note_on,2,0,0,,10,,,81,127
46749,note_off,113,0,0,,10,,,81,127
46749,note_off,0,0,0,,7,,,67,127
46751,note_on,2,0,0,,7,,,79,127
46751,note_on,0,0,0,,10,,,69,127
46864,note_off,113,0,0,,7,,,79,127
46866,note_on,2,0,0,,5,,,77,127
46979,note_off,113,0,0,,5,,,77,127
46979,note_off,0,0,0,,10,,,69,127
46981,note_on,2,0,0,,3,,,75,127
46981,note_on,0,0,0,,11,,,70,127
47094,note_off,113,0,0,,3,,,75,127
47096,note_on,2,0,0,,2,,,74,127
47209,note_off,113,0,0,,2,,,74,127
47209,note_off,0,0,0,,11,,,70,127
47211,note_on,2,0,0,,0,,,72,127
47211,note_on,0,0,0,,0,,,60,127
47324,note_off,113,0,0,,0,,,72,127
47326,note_on,2,0,0,,3,,,75,127
47439,note_off,113,0,0,,3,,,75,127
47439,note_off,0,0,0,,0,,,60,127
47441,note_on,2,0,0,,2,,,74,127
47441,note_on,0,0,0,,2,,,62,127
47554,note_off,113,0,0,,2,,,74,127
47556,note_on,2,0,0,,0,,,72,127
47669,note_off,113,0,0,,0,,,72,127
47671,note_on,2,0,0,,11,,,70,127
47671,note_on,0,0,0,,2,,,50,127
47784,note_off,113,0,0,,11,,,70,127
47786,note_on,2,0,0,,10,,,69,127
47896,note_off,110,0,0,,2,,,62,127
47898,note_off,2,0,0,,10,,,69,127
47898,note_off,0,0,0,,2,,,50,127
47900,note_on,2,0,0,,0,,,72,127
47900,note_on,0,0,0,,11,,,70,127
47900,note_on,0,0,0,,7,,,55,127
48013,note_off,113,0,0,,11,,,70,127
48013,note_off,0,0,0,,0,,,72,127
48015,note_on,2,0,0,,10,,,69,127
48128,note_off,113,0,0,,10,,,69,127
48128,note_off,0,0,0,,7,,,55,127
48130,note_on,2,0,0,,7,,,67,127
48130,note_on,0,0,0,,10,,,57,127
48243,note_off,113,0,0,,7,,,67,127
48245,note_on,2,0,0,,5,,,65,127
48358,note_off,113,0,0,,5,,,65,127
48358,note_off,0,0,0,,10,,,57,127
48360,note_on,2,0,0,,3,,,63,127
48360,note_on,0,0,0,,11,,,58,127
48473,note_off,113,0,0,,3,,,63,127
48475,note_on,2,0,0,,2,,,62,127
48588,note_off,113,0,0,,2,,,62,127
48588,note_off,0,0,0,,11,,,58,127
48590,note_on,2,0,0,,0,,,60,127
48590,note_on,0,0,0,,0,,,48,127
48703,note_off,113,0,0,,0,,,60,127
48705,note_on,2,0,0,,3,,,63,127
48818,note_off,113,0,0,,3,,,63,127
48818,note_off,0,0,0,,0,,,48,127
48820,note_on,2,0,0,,2,,,62,127
48820,note_on,0,0,0,,2,,,50,127
48933,note_off,113,0,0,,2,,,62,127
48935,note_on,2,0,0,,0,,,60,127
49048,note_off,113,0,0,,0,,,60,127
49050,note_on,2,0,0,,11,,,58,127
49050,note_on,0,0,0,,2,,,38,127
49163,note_off,113,0,0,,11,,,58,127
49165,note_on,2,0,0,,10,,,57,127
49275,note_off,110,0,0,,2,,,50,127
49277,note_off,2,0,0,,10,,,57,127
49277,note_off,0,0,0,,2,,,38,127
49279,note_on,2,0,0,,0,,,60,127
49279,note_on,0,0,0,,7,,,43,127
49334,note_off,55,0,0,,0,,,60,127
49336,note_on,2,0,0,,11,,,58,127
49391,note_off,55,0,0,,11,,,58,127
49393,note_on,2,0,0,,0,,,60,127
49448,note_off,55,0,0,,0,,,60,127
49450,note_on,2,0,0,,11,,,58,127
49505,note_off,55,0,0,,11,,,58,127
49507,note_on,2,0,0,,0,,,60,127
49562,note_off,55,0,0,,0,,,60,127
49564,note_on,2,0,0,,11,,,58,127
49619,note_off,55,0,0,,11,,,58,127
49621,note_on,2,0,0,,10,,,57,127
49734,note_off,113,0,0,,10,,,57,127
49736,note_on,2,0,0,,7,,,55,127
49909,note_off,173,0,0,,7,,,55,127
49964,note_off,55,0,0,,7,,,43,127
49966,note_on,2,0,0,,7,,,55,127
49966,note_on,0,0,0,,11,,,58,127
49966,note_on,0,0,0,,2,,,62,127
50081,note_on,115,0,0,,7,,,67,127
50194,note_off,113,0,0,,7,,,67,127
50194,note_off,0,0,0,,2,,,62,127
50194,note_off,0,0,0,,11,,,58,127
50194,note_off,0,0,0,,7,,,55,127
50196,note_on,2,0,0,,11,,,70,127
50196,note_on,0,0,0,,7,,,55,127
50196,note_on,0,0,0,,11,,,58,127
50196,note_on,0,0,0,,2,,,62,127
50309,note_off,113,0,0,,11,,,70,127
50311,note_on,2,0,0,,2,,,74,127
50424,note_off,113,0,0,,2,,,74,127
50424,note_off,0,0,0,,2,,,62,127
50424,note_off,0,0,0,,11,,,58,127
50424,note_off,0,0,0,,7,,,55,127
50426,note_on,2,0,0,,7,,,79,127
50426,note_on,0,0,0,,2,,,62,127
50426,note_on,0,0,0,,7,,,55,127
50426,note_on,0,0,0,,11,,,58,127
50539,note_off,113,0,0,,7,,,79,127
50541,note_on,2,0,0,,11,,,82,127
50654,note_off,113,0,0,,11,,,82,127
50654,note_off,0,0,0,,11,,,58,127
50654,note_off,0,0,0,,7,,,55,127
50654,note_off,0,0,0,,2,,,62,127
50656,note_on,2,0,0,,10,,,81,127
50656,note_on,0,0,0,,2,,,62,127
50656,note_on,0,0,0,,10,,,57,127
50656,note_on,0,0,0,,5,,,53,127
50884,note_off,228,0,0,,5,,,53,127
50884,note_off,0,0,0,,10,,,57,127
50884,note_off,0,0,0,,2,,,62,127
50884,note_off,0,0,0,,10,,,81,127
50886,note_on,2,0,0,,2,,,86,127
50886,note_on,0,0,0,,2,,,62,127
50886,note_on,0,0,0,,5,,,53,127
50886,note_on,0,0,0,,10,,,57,127
51114,note_off,228,0,0,,10,,,57,127
51114,note_off,0,0,0,,5,,,53,127
51114,note_off,0,0,0,,2,,,62,127
51114,note_off,0,0,0,,2,,,86,127
51116,note_on,2,0,0,,10,,,81,127
51116,note_on,0,0,0,,2,,,62,127
51116,note_on,0,0,0,,10,,,57,127
51116,note_on,0,0,0,,5,,,53,127
51344,note_off,228,0,0,,5,,,53,127
51344,note_off,0,0,0,,10,,,57,127
51344,note_off,0,0,0,,2,,,62,127
51346,note_on,2,0,0,,1,,,61,127
51346,note_on,0,0,0,,10,,,57,127
51346,note_on,0,0,0,,4,,,52,127
51346,note_on,0,0,0,,7,,,55,127
51404,note_off,58,0,0,,10,,,81,127
51462,note_on,58,0,0,,7,,,67,127
51575,note_off,113,0,0,,7,,,67,127
51575,note_off,0,0,0,,7,,,55,127
51575,note_off,0,0,0,,4,,,52,127
51575,note_off,0,0,0,,10,,,57,127
51575,note_off,0,0,0,,1,,,61,127
51577,note_on,2,0,0,,11,,,70,127
51577,note_on,0,0,0,,7,,,55,127
51577,note_on,0,0,0,,10,,,57,127
51577,note_on,0,0,0,,1,,,61,127
51577,note_on,0,0,0,,4,,,52,127
51690,note_off,113,0,0,,11,,,70,127
51692,note_on,2,0,0,,1,,,73,127
51805,note_off,113,0,0,,1,,,73,127
51805,note_off,0,0,0,,4,,,52,127
51805,note_off,0,0,0,,1,,,61,127
51805,note_off,0,0,0,,10,,,57,127
51805,note_off,0,0,0,,7,,,55,127
51807,note_on,2,0,0,,4,,,76,127
51807,note_on,0,0,0,,4,,,52,127
51807,note_on,0,0,0,,7,,,55,127
51807,note_on,0,0,0,,10,,,57,127
51807,note_on,0,0,0,,1,,,61,127
51920,note_off,113,0,0,,4,,,76,127
51922,note_on,2,0,0,,7,,,79,127
52035,note_off,113,0,0,,7,,,79,127
52035,note_off,0,0,0,,1,,,61,127
52035,note_off,0,0,0,,10,,,57,127
52035,note_off,0,0,0,,7,,,55,127
52035,note_off,0,0,0,,4,,,52,127
52037,note_on,2,0,0,,5,,,77,127
52037,note_on,0,0,0,,2,,,62,127
52037,note_on,0,0,0,,10,,,57,127
52037,note_on,0,0,0,,2,,,50,127
52037,note_on,0,0,0,,5,,,53,127
52265,note_off,228,0,0,,5,,,53,127
52265,note_off,0,0,0,,2,,,50,127
52265,note_off,0,0,0,,10,,,57,127
52265,note_off,0,0,0,,2,,,62,127
52265,note_off,0,0,0,,5,,,77,127
52267,note_on,2,0,0,,2,,,86,127
52267,note_on,0,0,0,,2,,,62,127
52267,note_on,0,0,0,,2,,,50,127
52267,note_on,0,0,0,,5,,,53,127
52267,note_on,0,0,0,,10,,,57,127
52495,note_off,228,0,0,,10,,,57,127
52495,note_off,0,0,0,,5,,,53,127
52495,note_off,0,0,0,,2,,,50,127
52495,note_off,0,0,0,,2,,,62,127
52495,note_off,0,0,0,,2,,,86,127
52497,note_on,2,0,0,,10,,,81,127
52497,note_on,0,0,0,,2,,,62,127
52497,note_on,0,0,0,,5,,,53,127
52497,note_on,0,0,0,,10,,,57,127
52497,note_on,0,0,0,,2,,,50,127
52725,note_off,228,0,0,,2,,,50,127
52725,note_off,0,0,0,,10,,,57,127
52725,note_off,0,0,0,,5,,,53,127
52725,note_off,0,0,0,,2,,,62,127
52726,note_off,1,0,0,,10,,,81,127
52727,note_on,1,0,0,,7,,,55,127
52727,note_on,0,0,0,,2,,,62,127
52727,note_on,0,0,0,,11,,,58,127
52842,note_on,115,0,0,,7,,,67,127
52955,note_off,113,0,0,,7,,,67,127
52955,note_off,0,0,0,,11,,,58,127
52955,note_off,0,0,0,,2,,,62,127
52955,note_off,0,0,0,,7,,,55,127
52957,note_on,2,0,0,,11,,,70,127
52957,note_on,0,0,0,,2,,,62,127
52957,note_on,0,0,0,,11,,,58,127
52957,note_on,0,0,0,,7,,,55,127
53070,note_off,113,0,0,,11,,,70,127
53072,note_on,2,0,0,,2,,,74,127
53185,note_off,113,0,0,,2,,,74,127
53185,note_off,0,0,0,,7,,,55,127
53185,note_off,0,0,0,,11,,,58,127
53185,note_off,0,0,0,,2,,,62,127
53187,note_on,2,0,0,,7,,,79,127
53187,note_on,0,0,0,,2,,,62,127
53187,note_on,0,0,0,,11,,,58,127
53187,note_on,0,0,0,,7,,,55,127
53300,note_off,113,0,0,,7,,,79,127
53302,note_on,2,0,0,,11,,,82,127
53415,note_off,113,0,0,,11,,,82,127
53415,note_off,0,0,0,,7,,,55,127
53415,note_off,0,0,0,,11,,,58,127
53415,note_off,0,0,0,,2,,,62,127
53417,note_on,2,0,0,,10,,,81,127
53417,note_on,0,0,0,,10,,,57,127
53417,note_on,0,0,0,,2,,,62,127
53417,note_on,0,0,0,,5,,,53,127
53645,note_off,228,0,0,,5,,,53,127
53645,note_off,0,0,0,,2,,,62,127
53645,note_off,0,0,0,,10,,,57,127
53645,note_off,0,0,0,,10,,,81,127
53647,note_on,2,0,0,,2,,,86,127
53647,note_on,0,0,0,,5,,,53,127
53647,note_on,0,0,0,,10,,,57,127
53647,note_on,0,0,0,,2,,,62,127
53875,note_off,228,0,0,,2,,,62,127
53875,note_off,0,0,0,,10,,,57,127
53875,note_off,0,0,0,,5,,,53,127
53875,note_off,0,0,0,,2,,,86,127
53877,note_on,2,0,0,,10,,,81,127
53877,note_on,0,0,0,,2,,,62,127
53877,note_on,0,0,0,,5,,,53,127
53877,note_on,0,0,0,,10,,,57,127
54105,note_off,228,0,0,,10,,,57,127
54105,note_off,0,0,0,,5,,,53,127
54105,note_off,0,0,0,,2,,,62,127
54107,note_on,2,0,0,,1,,,61,127
54107,note_on,0,0,0,,10,,,57,127
54107,note_on,0,0,0,,4,,,52,127
54107,note_on,0,0,0,,7,,,55,127
54165,note_off,58,0,0,,10,,,81,127
54223,note_on,58,0,0,,7,,,67,127
54336,note_off,113,0,0,,7,,,67,127
54336,note_off,0,0,0,,7,,,55,127
54336,note_off,0,0,0,,4,,,52,127
54336,note_off,0,0,0,,10,,,57,127
54336,note_off,0,0,0,,1,,,61,127
54338,note_on,2,0,0,,11,,,70,127
54338,note_on,0,0,0,,10,,,57,127
54338,note_on,0,0,0,,1,,,61,127
54338,note_on,0,0,0,,4,,,52,127
54338,note_on,0,0,0,,7,,,55,127
54451,note_off,113,0,0,,11,,,70,127
54453,note_on,2,0,0,,1,,,73,127
54566,note_off,113,0,0,,1,,,73,127
54566,note_off,0,0,0,,7,,,55,127
54566,note_off,0,0,0,,4,,,52,127
54566,note_off,0,0,0,,1,,,61,127
54566,note_off,0,0,0,,10,,,57,127
54568,note_on,2,0,0,,4,,,76,127
54568,note_on,0,0,0,,1,,,61,127
54568,note_on,0,0,0,,7,,,55,127
54568,note_on,0,0,0,,10,,,57,127
54568,note_on,0,0,0,,4,,,52,127
54681,note_off,113,0,0,,4,,,76,127
54683,note_on,2,0,0,,7,,,79,127
54796,note_off,113,0,0,,7,,,79,127
54796,note_off,0,0,0,,4,,,52,127
54796,note_off,0,0,0,,10,,,57,127
54796,note_off,0,0,0,,7,,,55,127
54796,note_off,0,0,0,,1,,,61,127
54798,note_on,2,0,0,,5,,,77,127
54798,note_on,0,0,0,,2,,,62,127
54798,note_on,0,0,0,,5,,,53,127
54798,note_on,0,0,0,,10,,,57,127
54798,note_on,0,0,0,,2,,,50,127
55026,note_off,228,0,0,,2,,,50,127
55026,note_off,0,0,0,,10,,,57,127
55026,note_off,0,0,0,,5,,,53,127
55026,note_off,0,0,0,,2,,,62,127
55026,note_off,0,0,0,,5,,,77,127
55028,note_on,2,0,0,,2,,,86,127
55028,note_on,0,0,0,,10,,,57,127
55028,note_on,0,0,0,,2,,,62,127
55028,note_on,0,0,0,,2,,,50,127
55028,note_on,0,0,0,,5,,,53,127
55256,note_off,228,0,0,,5,,,53,127
55256,note_off,0,0,0,,2,,,50,127
55256,note_off,0,0,0,,2,,,62,127
55256,note_off,0,0,0,,10,,,57,127
55256,note_off,0,0,0,,2,,,86,127
55258,note_on,2,0,0,,10,,,81,127
55258,note_on,0,0,0,,2,,,62,127
55258,note_on,0,0,0,,2,,,50,127
55258,note_on,0,0,0,,5,,,53,127
55258,note_on,0,0,0,,10,,,57,127
55486,note_off,228,0,0,,10,,,57,127
55486,note_off,0,0,0,,5,,,53,127
55486,note_off,0,0,0,,2,,,50,127
55486,note_off,0,0,0,,2,,,62,127
55487,note_off,1,0,0,,10,,,81,127
55488,note_on,1,0,0,,4,,,64,127
55488,note_on,0,0,0,,7,,,55,127
55488,note_on,0,0,0,,11,,,58,127
55488,note_on,0,0,0,,1,,,61,127
55603,note_on,115,0,0,,11,,,82,127
55716,note_off,113,0,0,,11,,,82,127
55716,note_off,0,0,0,,1,,,61,127
55716,note_off,0,0,0,,11,,,58,127
55716,note_off,0,0,0,,7,,,55,127
55716,note_off,0,0,0,,4,,,64,127
55718,note_on,2,0,0,,7,,,79,127
55718,note_on,0,0,0,,4,,,64,127
55718,note_on,0,0,0,,11,,,58,127
55718,note_on,0,0,0,,1,,,61,127
55718,note_on,0,0,0,,7,,,55,127
55831,note_off,113,0,0,,7,,,79,127
55833,note_on,2,0,0,,4,,,76,127
55946,note_off,113,0,0,,4,,,76,127
55946,note_off,0,0,0,,7,,,55,127
55946,note_off,0,0,0,,1,,,61,127
55946,note_off,0,0,0,,11,,,58,127
55946,note_off,0,0,0,,4,,,64,127
55948,note_on,2,0,0,,1,,,73,127
55948,note_on,0,0,0,,1,,,61,127
55948,note_on,0,0,0,,4,,,64,127
55948,note_on,0,0,0,,7,,,55,127
55948,note_on,0,0,0,,11,,,58,127
56061,note_off,113,0,0,,1,,,73,127
56063,note_on,2,0,0,,11,,,70,127
56176,note_off,113,0,0,,11,,,70,127
56176,note_off,0,0,0,,11,,,58,127
56176,note_off,0,0,0,,7,,,55,127
56176,note_off,0,0,0,,4,,,64,127
56176,note_off,0,0,0,,1,,,61,127
56178,note_on,2,0,0,,10,,,69,127
56178,note_on,0,0,0,,2,,,62,127
56178,note_on,0,0,0,,5,,,53,127
56178,note_on,0,0,0,,10,,,57,127
56406,note_off,228,0,0,,10,,,57,127
56406,note_off,0,0,0,,5,,,53,127
56406,note_off,0,0,0,,2,,,62,127
56406,note_off,0,0,0,,10,,,69,127
56408,note_on,2,0,0,,10,,,81,127
56408,note_on,0,0,0,,10,,,57,127
56408,note_on,0,0,0,,2,,,62,127
56408,note_on,0,0,0,,5,,,53,127
56636,note_off,228,0,0,,5,,,53,127
56636,note_off,0,0,0,,2,,,62,127
56636,note_off,0,0,0,,10,,,57,127
56636,note_off,0,0,0,,10,,,81,127
56638,note_on,2,0,0,,5,,,77,127
56638,note_on,0,0,0,,2,,,62,127
56638,note_on,0,0,0,,5,,,53,127
56638,note_on,0,0,0,,10,,,57,127
56866,note_off,228,0,0,,10,,,57,127
56866,note_off,0,0,0,,5,,,53,127
56866,note_off,0,0,0,,2,,,62,127
56868,note_on,2,0,0,,10,,,57,127
56868,note_on,0,0,0,,7,,,55,127
56868,note_on,0,0,0,,1,,,49,127
56926,note_off,58,0,0,,5,,,77,127
56984,note_on,58,0,0,,7,,,79,127
57097,note_off,113,0,0,,7,,,79,127
57097,note_off,0,0,0,,1,,,49,127
57097,note_off,0,0,0,,7,,,55,127
57097,note_off,0,0,0,,10,,,57,127
57099,note_on,2,0,0,,4,,,76,127
57099,note_on,0,0,0,,10,,,57,127
57099,note_on,0,0,0,,1,,,49,127
57099,note_on,0,0,0,,7,,,55,127
57212,note_off,113,0,0,,4,,,76,127
57214,note_on,2,0,0,,1,,,73,127
57327,note_off,113,0,0,,1,,,73,127
57327,note_off,0,0,0,,7,,,55,127
57327,note_off,0,0,0,,1,,,49,127
57327,note_off,0,0,0,,10,,,57,127
57329,note_on,2,0,0,,7,,,67,127
57329,note_on,0,0,0,,1,,,49,127
57329,note_on,0,0,0,,7,,,55,127
57329,note_on,0,0,0,,10,,,57,127
57442,note_off,113,0,0,,7,,,67,127
57444,note_on,2,0,0,,4,,,64,127
57557,note_off,113,0,0,,4,,,64,127
57557,note_off,0,0,0,,10,,,57,127
57557,note_off,0,0,0,,7,,,55,127
57557,note_off,0,0,0,,1,,,49,127
57559,note_on,2,0,0,,5,,,65,127
57559,note_on,0,0,0,,2,,,50,127
57559,note_on,0,0,0,,5,,,53,127
57559,note_on,0,0,0,,10,,,57,127
57787,note_off,228,0,0,,10,,,57,127
57787,note_off,0,0,0,,5,,,53,127
57787,note_off,0,0,0,,2,,,50,127
57787,note_off,0,0,0,,5,,,65,127
57789,note_on,2,0,0,,5,,,77,127
57789,note_on,0,0,0,,2,,,50,127
57789,note_on,0,0,0,,5,,,53,127
57789,note_on,0,0,0,,10,,,57,127
58017,note_off,228,0,0,,10,,,57,127
58017,note_off,0,0,0,,5,,,53,127
58017,note_off,0,0,0,,2,,,50,127
58017,note_off,0,0,0,,5,,,77,127
58019,note_on,2,0,0,,2,,,74,127
58019,note_on,0,0,0,,10,,,57,127
58019,note_on,0,0,0,,2,,,50,127
58019,note_on,0,0,0,,5,,,53,127
58247,note_off,228,0,0,,5,,,53,127
58247,note_off,0,0,0,,2,,,50,127
58247,note_off,0,0,0,,10,,,57,127
58248,note_off,1,0,0,,2,,,74,127
58249,note_on,1,0,0,,7,,,55,127
58249,note_on,0,0,0,,2,,,62,127
58249,note_on,0,0,0,,4,,,64,127
58364,note_on,115,0,0,,4,,,76,127
58477,note_off,113,0,0,,4,,,76,127
58479,note_on,2,0,0,,1,,,73,127
58592,note_off,113,0,0,,1,,,73,127
58594,note_on,2,0,0,,11,,,70,127
58707,note_off,113,0,0,,11,,,70,127
58707,note_off,0,0,0,,4,,,64,127
58707,note_off,0,0,0,,2,,,62,127
58707,note_off,0,0,0,,7,,,55,127
58709,note_on,2,0,0,,7,,,67,127
58709,note_on,0,0,0,,4,,,64,127
58709,note_on,0,0,0,,2,,,62,127
58709,note_on,0,0,0,,10,,,57,127
58822,note_off,113,0,0,,7,,,67,127
58823,note_off,1,0,0,,4,,,64,127
58824,note_on,1,0,0,,4,,,64,127
58937,note_off,113,0,0,,4,,,64,127
58937,note_off,0,0,0,,10,,,57,127
58937,note_off,0,0,0,,2,,,62,127
58939,note_on,2,0,0,,5,,,65,127
58939,note_on,0,0,0,,2,,,62,127
58939,note_on,0,0,0,,10,,,57,127
58939,note_on,0,0,0,,2,,,50,127
59052,note_off,113,0,0,,5,,,65,127
59054,note_on,2,0,0,,5,,,77,127
59167,note_off,113,0,0,,5,,,77,127
59169,note_on,2,0,0,,2,,,74,127
59282,note_off,113,0,0,,2,,,74,127
59284,note_on,2,0,0,,10,,,69,127
59397,note_off,113,0,0,,10,,,69,127
59397,note_off,0,0,0,,2,,,50,127
59397,note_off,0,0,0,,10,,,57,127
59397,note_off,0,0,0,,2,,,62,127
59399,note_on,2,0,0,,5,,,65,127
59399,note_on,0,0,0,,2,,,62,127
59399,note_on,0,0,0,,10,,,57,127
59399,note_on,0,0,0,,5,,,53,127
59512,note_off,113,0,0,,5,,,65,127
59513,note_off,1,0,0,,2,,,62,127
59514,note_on,1,0,0,,2,,,62,127
59627,note_off,113,0,0,,5,,,53,127
59627,note_off,0,0,0,,10,,,57,127
59628,note_off,1,0,0,,2,,,62,127
59629,note_on,1,0,0,,2,,,62,127
59629,note_on,0,0,0,,4,,,64,127
59629,note_on,0,0,0,,7,,,55,127
59744,note_on,115,0,0,,4,,,76,127
59857,note_off,113,0,0,,4,,,76,127
59859,note_on,2,0,0,,1,,,73,127
59972,note_off,113,0,0,,1,,,73,127
59974,note_on,2,0,0,,11,,,70,127
60087,note_off,113,0,0,,11,,,70,127
60087,note_off,0,0,0,,7,,,55,127
60087,note_off,0,0,0,,4,,,64,127
60087,note_off,0,0,0,,2,,,62,127
60089,note_on,2,0,0,,7,,,67,127
60089,note_on,0,0,0,,1,,,61,127
60089,note_on,0,0,0,,2,,,62,127
60089,note_on,0,0,0,,4,,,64,127
60089,note_on,0,0,0,,10,,,57,127
60202,note_off,113,0,0,,7,,,67,127
60203,note_off,1,0,0,,4,,,64,127
60204,note_on,1,0,0,,4,,,64,127
60317,note_off,113,0,0,,4,,,64,127
60317,note_off,0,0,0,,10,,,57,127
60317,note_off,0,0,0,,2,,,62,127
60317,note_off,0,0,0,,1,,,61,127
60319,note_on,2,0,0,,5,,,65,127
60319,note_on,0,0,0,,10,,,57,127
60319,note_on,0,0,0,,2,,,62,127
60319,note_on,0,0,0,,2,,,50,127
60432,note_off,113,0,0,,5,,,65,127
60434,note_on,2,0,0,,5,,,77,127
60547,note_off,113,0,0,,5,,,77,127
60549,note_on,2,0,0,,2,,,74,127
60662,note_off,113,0,0,,2,,,74,127
60664,note_on,2,0,0,,10,,,69,127
60777,note_off,113,0,0,,10,,,69,127
60777,note_off,0,0,0,,2,,,50,127
60777,note_off,0,0,0,,2,,,62,127
60777,note_off,0,0,0,,10,,,57,127
60779,note_on,2,0,0,,5,,,65,127
60779,note_on,0,0,0,,2,,,62,127
60779,note_on,0,0,0,,10,,,57,127
60779,note_on,0,0,0,,5,,,53,127
60892,note_off,113,0,0,,5,,,65,127
60893,note_off,1,0,0,,2,,,62,127
60894,note_on,1,0,0,,2,,,62,127
61007,note_off,113,0,0,,5,,,53,127
61007,note_off,0,0,0,,10,,,57,127
61008,note_off,1,0,0,,2,,,62,127
61009,note_on,1,0,0,,4,,,64,127
61009,note_on,0,0,0,,7,,,55,127
61009,note_on,0,0,0,,2,,,62,127
61124,note_on,115,0,0,,4,,,76,127
61237,note_off,113,0,0,,4,,,76,127
61239,note_on,2,0,0,,1,,,73,127
61352,note_off,113,0,0,,1,,,73,127
61354,note_on,2,0,0,,11,,,70,127
61467,note_off,113,0,0,,11,,,70,127
61467,note_off,0,0,0,,2,,,62,127
61467,note_off,0,0,0,,7,,,55,127
61467,note_off,0,0,0,,4,,,64,127
61469,note_on,2,0,0,,7,,,67,127
61469,note_on,0,0,0,,1,,,61,127
61469,note_on,0,0,0,,2,,,62,127
61469,note_on,0,0,0,,4,,,64,127
61469,note_on,0,0,0,,10,,,57,127
61582,note_off,113,0,0,,7,,,67,127
61583,note_off,1,0,0,,4,,,64,127
61584,note_on,1,0,0,,4,,,64,127
61697,note_off,113,0,0,,4,,,64,127
61697,note_off,0,0,0,,10,,,57,127
61697,note_off,0,0,0,,2,,,62,127
61697,note_off,0,0,0,,1,,,61,127
61699,note_on,2,0,0,,5,,,65,127
61699,note_on,0,0,0,,2,,,50,127
61812,note_off,113,0,0,,5,,,65,127
61814,note_on,2,0,0,,2,,,74,127
61927,note_off,113,0,0,,2,,,74,127
61927,note_off,0,0,0,,2,,,50,127
61929,note_on,2,0,0,,10,,,69,127
61929,note_on,0,0,0,,4,,,52,127
62042,note_off,113,0,0,,10,,,69,127
62044,note_on,2,0,0,,5,,,65,127
62157,note_off,113,0,0,,5,,,65,127
62157,note_off,0,0,0,,4,,,52,127
62159,note_on,2,0,0,,2,,,62,127
62159,note_on,0,0,0,,5,,,53,127
62272,note_off,113,0,0,,2,,,62,127
62274,note_on,2,0,0,,10,,,69,127
62387,note_off,113,0,0,,10,,,69,127
62387,note_off,0,0,0,,5,,,53,127
62389,note_on,2,0,0,,11,,,70,127
62389,note_on,0,0,0,,7,,,55,127
62389,note_on,0,0,0,,11,,,58,127
62502,note_off,113,0,0,,11,,,70,127
62504,note_on,2,0,0,,7,,,67,127
62617,note_off,113,0,0,,7,,,67,127
62617,note_off,0,0,0,,11,,,58,127
62617,note_off,0,0,0,,7,,,55,127
62619,note_on,2,0,0,,4,,,64,127
62619,note_on,0,0,0,,7,,,55,127
62619,note_on,0,0,0,,11,,,58,127
62732,note_off,113,0,0,,4,,,64,127
62734,note_on,2,0,0,,1,,,61,127
62847,note_off,113,0,0,,1,,,61,127
62847,note_off,0,0,0,,11,,,58,127
62847,note_off,0,0,0,,7,,,55,127
62849,note_on,2,0,0,,7,,,67,127
62849,note_on,0,0,0,,7,,,55,127
62849,note_on,0,0,0,,11,,,58,127
62962,note_off,113,0,0,,7,,,67,127
62964,note_on,2,0,0,,11,,,70,127
63077,note_off,113,0,0,,11,,,70,127
63077,note_off,0,0,0,,11,,,58,127
63077,note_off,0,0,0,,7,,,55,127
63079,note_on,2,0,0,,10,,,69,127
63079,note_on,0,0,0,,10,,,57,127
63079,note_on,0,0,0,,5,,,53,127
63192,note_off,113,0,0,,10,,,69,127
63194,note_on,2,0,0,,5,,,65,127
63307,note_off,113,0,0,,5,,,65,127
63307,note_off,0,0,0,,5,,,53,127
63307,note_off,0,0,0,,10,,,57,127
63309,note_on,2,0,0,,2,,,62,127
63309,note_on,0,0,0,,10,,,57,127
63309,note_on,0,0,0,,5,,,53,127
63422,note_off,113,0,0,,2,,,62,127
63423,note_off,1,0,0,,10,,,57,127
63424,note_on,1,0,0,,10,,,57,127
63537,note_off,113,0,0,,10,,,57,127
63537,note_off,0,0,0,,5,,,53,127
63539,note_on,2,0,0,,5,,,65,127
63539,note_on,0,0,0,,5,,,53,127
63539,note_on,0,0,0,,10,,,57,127
63652,note_off,113,0,0,,5,,,65,127
63654,note_on,2,0,0,,10,,,69,127
63767,note_off,113,0,0,,10,,,69,127
63767,note_off,0,0,0,,10,,,57,127
63767,note_off,0,0,0,,5,,,53,127
63769,note_on,2,0,0,,7,,,67,127
63769,note_on,0,0,0,,4,,,52,127
63769,note_on,0,0,0,,7,,,55,127
63882,note_off,113,0,0,,7,,,67,127
63884,note_on,2,0,0,,4,,,64,127
63997,note_off,113,0,0,,4,,,64,127
63997,note_off,0,0,0,,7,,,55,127
63997,note_off,0,0,0,,4,,,52,127
63999,note_on,2,0,0,,1,,,61,127
63999,note_on,0,0,0,,4,,,52,127
63999,note_on,0,0,0,,7,,,55,127
64112,note_off,113,0,0,,1,,,61,127
64114,note_on,2,0,0,,10,,,57,127
64227,note_off,113,0,0,,10,,,57,127
64227,note_off,0,0,0,,7,,,55,127
64227,note_off,0,0,0,,4,,,52,127
64229,note_on,2,0,0,,4,,,64,127
64229,note_on,0,0,0,,4,,,52,127
64229,note_on,0,0,0,,7,,,55,127
64342,note_off,113,0,0,,4,,,64,127
64344,note_on,2,0,0,,7,,,67,127
64457,note_off,113,0,0,,7,,,67,127
64457,note_off,0,0,0,,7,,,55,127
64457,note_off,0,0,0,,4,,,52,127
64459,note_on,2,0,0,,2,,,50,127
64459,note_on,0,0,0,,5,,,53,127
64571,note_off,112,0,0,,2,,,50,127
64575,note_on,4,0,0,,2,,,50,127
64641,note_off,66,0,0,,5,,,53,127
64690,note_on,49,0,0,,5,,,53,127
64690,note_on,0,0,0,,10,,,57,127
64756,note_off,66,0,0,,2,,,50,127
64802,note_off,46,0,0,,5,,,53,127
64806,note_on,4,0,0,,5,,,53,127
64872,note_off,66,0,0,,10,,,57,127
64921,note_on,49,0,0,,2,,,50,127
64921,note_on,0,0,0,,2,,,62,127
64987,note_off,66,0,0,,5,,,53,127
65036,note_on,49,0,0,,5,,,53,127
65102,note_off,66,0,0,,2,,,62,127
65102,note_off,0,0,0,,2,,,50,127
65151,note_on,49,0,0,,4,,,52,127
65151,note_on,0,0,0,,7,,,55,127
65217,note_off,66,0,0,,5,,,53,127
65263,note_off,46,0,0,,4,,,52,127
65267,note_on,4,0,0,,4,,,52,127
65333,note_off,66,0,0,,7,,,55,127
65382,note_on,49,0,0,,7,,,55,127
65382,note_on,0,0,0,,1,,,61,127
65448,note_off,66,0,0,,4,,,52,127
65494,note_off,46,0,0,,7,,,55,127
65498,note_on,4,0,0,,7,,,55,127
65564,note_off,66,0,0,,1,,,61,127
65613,note_on,49,0,0,,4,,,52,127
65613,note_on,0,0,0,,4,,,64,127
65679,note_off,66,0,0,,7,,,55,127
65728,note_on,49,0,0,,7,,,55,127
65794,note_off,66,0,0,,4,,,64,127
65794,note_off,0,0,0,,4,,,52,127
65843,note_on,49,0,0,,5,,,53,127
65843,note_on,0,0,0,,2,,,50,127
65909,note_off,66,0,0,,7,,,55,127
65955,note_off,46,0,0,,5,,,53,127
65959,note_on,4,0,0,,5,,,53,127
66025,note_off,66,0,0,,2,,,50,127
66071,note_off,46,0,0,,5,,,53,127
66075,note_on,4,0,0,,5,,,53,127
66075,note_on,0,0,0,,10,,,57,127
66187,note_off,112,0,0,,5,,,53,127
66191,note_on,4,0,0,,5,,,53,127
66257,note_off,66,0,0,,10,,,57,127
66306,note_on,49,0,0,,2,,,50,127
66306,note_on,0,0,0,,2,,,62,127
66372,note_off,66,0,0,,5,,,53,127
66421,note_on,49,0,0,,5,,,53,127
66487,note_off,66,0,0,,2,,,62,127
66487,note_off,0,0,0,,2,,,50,127
66536,note_on,49,0,0,,4,,,52,127
66536,note_on,0,0,0,,7,,,55,127
66602,note_off,66,0,0,,5,,,53,127
66648,note_off,46,0,0,,4,,,52,127
66652,note_on,4,0,0,,4,,,52,127
66718,note_off,66,0,0,,7,,,55,127
66767,note_on,49,0,0,,7,,,55,127
66767,note_on,0,0,0,,1,,,61,127
66833,note_off,66,0,0,,4,,,52,127
66879,note_off,46,0,0,,7,,,55,127
66883,note_on,4,0,0,,7,,,55,127
66949,note_off,66,0,0,,1,,,61,127
66998,note_on,49,0,0,,4,,,52,127
66998,note_on,0,0,0,,4,,,64,127
67064,note_off,66,0,0,,7,,,55,127
67113,note_on,49,0,0,,7,,,55,127
67179,note_off,66,0,0,,4,,,64,127
67179,note_off,0,0,0,,4,,,52,127
67228,note_on,49,0,0,,10,,,57,127
67228,note_on,0,0,0,,1,,,61,127
67294,note_off,66,0,0,,7,,,55,127
67340,note_off,46,0,0,,10,,,57,127
67344,note_on,4,0,0,,10,,,57,127
67410,note_off,66,0,0,,1,,,61,127
67459,note_on,49,0,0,,1,,,61,127
67459,note_on,0,0,0,,4,,,64,127
67525,note_off,66,0,0,,10,,,57,127
67571,note_off,46,0,0,,1,,,61,127
67575,note_on,4,0,0,,1,,,61,127
67641,note_off,66,0,0,,4,,,64,127
67690,note_on,49,0,0,,10,,,57,127
67690,note_on,0,0,0,,7,,,67,127
67756,note_off,66,0,0,,1,,,61,127
67805,note_on,49,0,0,,4,,,64,127
67871,note_off,66,0,0,,7,,,67,127
67871,note_off,0,0,0,,10,,,57,127
67920,note_on,49,0,0,,2,,,62,127
67920,note_on,0,0,0,,5,,,65,127
67986,note_off,66,0,0,,4,,,64,127
68032,note_off,46,0,0,,2,,,62,127
68036,note_on,4,0,0,,2,,,62,127
68102,note_off,66,0,0,,5,,,65,127
68151,note_on,49,0,0,,5,,,65,127
68151,note_on,0,0,0,,10,,,69,127
68217,note_off,66,0,0,,2,,,62,127
68263,note_off,46,0,0,,5,,,65,127
68267,note_on,4,0,0,,5,,,65,127
68333,note_off,66,0,0,,10,,,69,127
68382,note_on,49,0,0,,2,,,62,127
68382,note_on,0,0,0,,2,,,74,127
68448,note_off,66,0,0,,5,,,65,127
68497,note_on,49,0,0,,5,,,65,127
68563,note_off,66,0,0,,2,,,74,127
68563,note_off,0,0,0,,2,,,62,127
68612,note_on,49,0,0,,10,,,69,127
68612,note_on,0,0,0,,1,,,73,127
68678,note_off,66,0,0,,5,,,65,127
68724,note_off,46,0,0,,10,,,69,127
68728,note_on,4,0,0,,10,,,69,127
68794,note_off,66,0,0,,1,,,73,127
68843,note_on,49,0,0,,1,,,73,127
68843,note_on,0,0,0,,4,,,76,127
68909,note_off,66,0,0,,10,,,69,127
68955,note_off,46,0,0,,1,,,73,127
68959,note_on,4,0,0,,1,,,73,127
69025,note_off,66,0,0,,4,,,76,127
69074,note_on,49,0,0,,10,,,69,127
69074,note_on,0,0,0,,7,,,79,127
69140,note_off,66,0,0,,1,,,73,127
69189,note_on,49,0,0,,4,,,76,127
69255,note_off,66,0,0,,7,,,79,127
69255,note_off,0,0,0,,10,,,69,127
69304,note_on,49,0,0,,2,,,74,127
69304,note_on,0,0,0,,5,,,77,127
69370,note_off,66,0,0,,4,,,76,127
69416,note_off,46,0,0,,2,,,74,127
69420,note_on,4,0,0,,2,,,74,127
69486,note_off,66,0,0,,5,,,77,127
69535,note_on,49,0,0,,5,,,77,127
69535,note_on,0,0,0,,10,,,81,127
69601,note_off,66,0,0,,2,,,74,127
69647,note_off,46,0,0,,5,,,77,127
69651,note_on,4,0,0,,5,,,77,127
69717,note_off,66,0,0,,10,,,81,127
69766,note_on,49,0,0,,2,,,74,127
69766,note_on,0,0,0,,2,,,86,127
69832,note_off,66,0,0,,5,,,77,127
69881,note_on,49,0,0,,5,,,77,127
69947,note_off,66,0,0,,2,,,86,127
69947,note_off,0,0,0,,2,,,74,127
69996,note_on,49,0,0,,10,,,69,127
69996,note_on,0,0,0,,1,,,73,127
70062,note_off,66,0,0,,5,,,77,127
70108,note_off,46,0,0,,10,,,69,127
70112,note_on,4,0,0,,10,,,69,127
70178,note_off,66,0,0,,1,,,73,127
70227,note_on,49,0,0,,1,,,73,127
70227,note_on,0,0,0,,4,,,76,127
70293,note_off,66,0,0,,10,,,69,127
70339,note_off,46,0,0,,1,,,73,127
70343,note_on,4,0,0,,1,,,73,127
70409,note_off,66,0,0,,4,,,76,127
70458,note_on,49,0,0,,10,,,69,127
70458,note_on,0,0,0,,7,,,79,127
70524,note_off,66,0,0,,1,,,73,127
70573,note_on,49,0,0,,4,,,76,127
70639,note_off,66,0,0,,7,,,79,127
70639,note_off,0,0,0,,10,,,69,127
70688,note_on,49,0,0,,2,,,74,127
70688,note_on,0,0,0,,5,,,77,127
70754,note_off,66,0,0,,4,,,76,127
70800,note_off,46,0,0,,2,,,74,127
70804,note_on,4,0,0,,2,,,74,127
70870,note_off,66,0,0,,5,,,77,127
70919,note_on,49,0,0,,5,,,77,127
70919,note_on,0,0,0,,10,,,81,127
70985,note_off,66,0,0,,2,,,74,127
71031,note_off,46,0,0,,5,,,77,127
71035,note_on,4,0,0,,5,,,77,127
71101,note_off,66,0,0,,10,,,81,127
71150,note_on,49,0,0,,2,,,74,127
71150,note_on,0,0,0,,2,,,86,127
71216,note_off,66,0,0,,5,,,77,127
71265,note_on,49,0,0,,5,,,77,127
71331,note_off,66,0,0,,2,,,86,127
71331,note_off,0,0,0,,2,,,74,127
71380,note_on,49,0,0,,10,,,69,127
71380,note_on,0,0,0,,1,,,73,127
71446,note_off,66,0,0,,5,,,77,127
71492,note_off,46,0,0,,10,,,69,127
71496,note_on,4,0,0,,10,,,69,127
71562,note_off,66,0,0,,1,,,73,127
71611,note_on,49,0,0,,1,,,73,127
71611,note_on,0,0,0,,4,,,76,127
71677,note_off,66,0,0,,10,,,69,127
71723,note_off,46,0,0,,1,,,73,127
71727,note_on,4,0,0,,1,,,73,127
71793,note_off,66,0,0,,4,,,76,127
71842,note_on,49,0,0,,10,,,69,127
71842,note_on,0,0,0,,7,,,79,127
71908,note_off,66,0,0,,1,,,73,127
71957,note_on,49,0,0,,4,,,76,127
72023,note_off,66,0,0,,7,,,79,127
72023,note_off,0,0,0,,10,,,69,127
72072,note_on,49,0,0,,5,,,77,127
72072,note_on,0,0,0,,2,,,62,127
72138,note_off,66,0,0,,4,,,76,127
72187,note_on,49,0,0,,2,,,74,127
72253,note_off,66,0,0,,5,,,77,127
72300,note_off,47,0,0,,2,,,62,127
72302,note_on,2,0,0,,1,,,85,127
72302,note_on,0,0,0,,4,,,64,127
72368,note_off,66,0,0,,2,,,74,127
72417,note_on,49,0,0,,10,,,81,127
72483,note_off,66,0,0,,1,,,85,127
72530,note_off,47,0,0,,4,,,64,127
72532,note_on,2,0,0,,2,,,86,127
72532,note_on,0,0,0,,5,,,65,127
72598,note_off,66,0,0,,10,,,81,127
72647,note_on,49,0,0,,10,,,81,127
72713,note_off,66,0,0,,2,,,86,127
72760,note_off,47,0,0,,5,,,65,127
72762,note_on,2,0,0,,7,,,79,127
72762,note_on,0,0,0,,7,,,67,127
72828,note_off,66,0,0,,10,,,81,127
72876,note_off,48,0,0,,7,,,79,127
72877,note_on,1,0,0,,10,,,81,127
72932,note_off,55,0,0,,10,,,81,127
72934,note_on,2,0,0,,11,,,82,127
72989,note_off,55,0,0,,11,,,82,127
72989,note_off,0,0,0,,7,,,67,127
72991,note_on,2,0,0,,10,,,81,127
72991,note_on,0,0,0,,10,,,69,127
73105,note_off,114,0,0,,10,,,81,127
73106,note_on,1,0,0,,7,,,79,127
73219,note_off,113,0,0,,10,,,69,127
73220,note_off,1,0,0,,7,,,79,127
73221,note_on,1,0,0,,5,,,77,127
73221,note_on,0,0,0,,10,,,57,127
73335,note_off,114,0,0,,5,,,77,127
73336,note_on,1,0,0,,4,,,76,127
73449,note_off,113,0,0,,10,,,57,127
73450,note_off,1,0,0,,4,,,76,127
73451,note_on,1,0,0,,5,,,77,127
73451,note_on,0,0,0,,2,,,74,127
73563,note_off,112,0,0,,2,,,74,127
73567,note_on,4,0,0,,2,,,74,127
73633,note_off,66,0,0,,5,,,77,127
73682,note_on,49,0,0,,7,,,79,127
73682,note_on,0,0,0,,11,,,70,127
73748,note_off,66,0,0,,2,,,74,127
73797,note_on,49,0,0,,4,,,76,127
73863,note_off,66,0,0,,7,,,79,127
73910,note_off,47,0,0,,11,,,70,127
73912,note_on,2,0,0,,11,,,82,127
73912,note_on,0,0,0,,7,,,67,127
73978,note_off,66,0,0,,4,,,76,127
74027,note_on,49,0,0,,2,,,74,127
74093,note_off,66,0,0,,11,,,82,127
74140,note_off,47,0,0,,7,,,67,127
74142,note_on,2,0,0,,1,,,73,127
74142,note_on,0,0,0,,10,,,69,127
74208,note_off,66,0,0,,2,,,74,127
74254,note_off,46,0,0,,10,,,69,127
74258,note_on,4,0,0,,10,,,69,127
74324,note_off,66,0,0,,1,,,73,127
74373,note_on,49,0,0,,4,,,76,127
74373,note_on,0,0,0,,1,,,73,127
74439,note_off,66,0,0,,10,,,69,127
74485,note_off,46,0,0,,1,,,73,127
74489,note_on,4,0,0,,1,,,73,127
74555,note_off,66,0,0,,4,,,76,127
74604,note_on,49,0,0,,7,,,79,127
74604,note_on,0,0,0,,10,,,69,127
74670,note_off,66,0,0,,1,,,73,127
74718,note_off,48,0,0,,10,,,69,127
74719,note_on,1,0,0,,4,,,76,127
74785,note_off,66,0,0,,7,,,79,127
74834,note_on,49,0,0,,2,,,74,127
74834,note_on,0,0,0,,5,,,77,127
74900,note_off,66,0,0,,4,,,76,127
74946,note_off,46,0,0,,2,,,74,127
74950,note_on,4,0,0,,2,,,74,127
75016,note_off,66,0,0,,5,,,77,127
75065,note_on,49,0,0,,5,,,77,127
75065,note_on,0,0,0,,10,,,81,127
75131,note_off,66,0,0,,2,,,74,127
75177,note_off,46,0,0,,5,,,77,127
75181,note_on,4,0,0,,5,,,77,127
75247,note_off,66,0,0,,10,,,81,127
75296,note_on,49,0,0,,2,,,74,127
75296,note_on,0,0,0,,2,,,86,127
75362,note_off,66,0,0,,5,,,77,127
75411,note_on,49,0,0,,5,,,77,127
75477,note_off,66,0,0,,2,,,86,127
75477,note_off,0,0,0,,2,,,74,127
75526,note_on,49,0,0,,10,,,69,127
75526,note_on,0,0,0,,1,,,73,127
75592,note_off,66,0,0,,5,,,77,127
75638,note_off,46,0,0,,10,,,69,127
75642,note_on,4,0,0,,10,,,69,127
75708,note_off,66,0,0,,1,,,73,127
75757,note_on,49,0,0,,1,,,73,127
75757,note_on,0,0,0,,4,,,76,127
75823,note_off,66,0,0,,10,,,69,127
75869,note_off,46,0,0,,1,,,73,127
75873,note_on,4,0,0,,1,,,73,127
75939,note_off,66,0,0,,4,,,76,127
75988,note_on,49,0,0,,10,,,69,127
75988,note_on,0,0,0,,7,,,79,127
76054,note_off,66,0,0,,1,,,73,127
76103,note_on,49,0,0,,4,,,76,127
76169,note_off,66,0,0,,7,,,79,127
76169,note_off,0,0,0,,10,,,69,127
76218,note_on,49,0,0,,2,,,74,127
76218,note_on,0,0,0,,5,,,77,127
76284,note_off,66,0,0,,4,,,76,127
76330,note_off,46,0,0,,2,,,74,127
76334,note_on,4,0,0,,2,,,74,127
76400,note_off,66,0,0,,5,,,77,127
76449,note_on,49,0,0,,5,,,77,127
76449,note_on,0,0,0,,10,,,81,127
76515,note_off,66,0,0,,2,,,74,127
76561,note_off,46,0,0,,5,,,77,127
76565,note_on,4,0,0,,5,,,77,127
76631,note_off,66,0,0,,10,,,81,127
76680,note_on,49,0,0,,2,,,74,127
76680,note_on,0,0,0,,2,,,86,127
76746,note_off,66,0,0,,5,,,77,127
76795,note_on,49,0,0,,5,,,77,127
76861,note_off,66,0,0,,2,,,86,127
76861,note_off,0,0,0,,2,,,74,127
76910,note_on,49,0,0,,10,,,69,127
76910,note_on,0,0,0,,1,,,73,127
76976,note_off,66,0,0,,5,,,77,127
77022,note_off,46,0,0,,10,,,69,127
77026,note_on,4,0,0,,10,,,69,127
77092,note_off,66,0,0,,1,,,73,127
77141,note_on,49,0,0,,1,,,73,127
77141,note_on,0,0,0,,4,,,76,127
77207,note_off,66,0,0,,10,,,69,127
77253,note_off,46,0,0,,1,,,73,127
77257,note_on,4,0,0,,1,,,73,127
77323,note_off,66,0,0,,4,,,76,127
77372,note_on,49,0,0,,10,,,69,127
77372,note_on,0,0,0,,7,,,79,127
77438,note_off,66,0,0,,1,,,73,127
77487,note_on,49,0,0,,4,,,76,127
77553,note_off,66,0,0,,7,,,79,127
77553,note_off,0,0,0,,10,,,69,127
77602,note_on,49,0,0,,5,,,77,127
77602,note_on,0,0,0,,2,,,62,127
77668,note_off,66,0,0,,4,,,76,127
77715,note_off,47,0,0,,5,,,77,127
77717,note_on,2,0,0,,2,,,74,127
77830,note_off,113,0,0,,2,,,74,127
77830,note_off,0,0,0,,2,,,62,127
77832,note_on,2,0,0,,1,,,85,127
77832,note_on,0,0,0,,4,,,64,127
77945,note_off,113,0,0,,1,,,85,127
77947,note_on,2,0,0,,10,,,81,127
78060,note_off,113,0,0,,10,,,81,127
78060,note_off,0,0,0,,4,,,64,127
78062,note_on,2,0,0,,2,,,86,127
78062,note_on,0,0,0,,5,,,65,127
78175,note_off,113,0,0,,2,,,86,127
78177,note_on,2,0,0,,10,,,81,127
78290,note_off,113,0,0,,10,,,81,127
78290,note_off,0,0,0,,5,,,65,127
78292,note_on,2,0,0,,7,,,79,127
78292,note_on,0,0,0,,7,,,67,127
78406,note_off,114,0,0,,7,,,79,127
78407,note_on,1,0,0,,10,,,81,127
78462,note_off,55,0,0,,10,,,81,127
78464,note_on,2,0,0,,11,,,82,127
78519,note_off,55,0,0,,11,,,82,127
78519,note_off,0,0,0,,7,,,67,127
78521,note_on,2,0,0,,10,,,81,127
78521,note_on,0,0,0,,10,,,69,127
78635,note_off,114,0,0,,10,,,81,127
78636,note_on,1,0,0,,7,,,79,127
78749,note_off,113,0,0,,10,,,69,127
78750,note_off,1,0,0,,7,,,79,127
78751,note_on,1,0,0,,5,,,77,127
78751,note_on,0,0,0,,10,,,57,127
78865,note_off,114,0,0,,5,,,77,127
78866,note_on,1,0,0,,4,,,76,127
78950,note_off,84,0,0,,4,,,76,127
78979,note_off,29,0,0,,10,,,57,127
78981,note_on,2,0,0,,2,,,86,127
78981,note_on,0,0,0,,2,,,62,127
79094,note_off,113,0,0,,2,,,86,127
79096,note_on,2,0,0,,0,,,84,127
79209,note_off,113,0,0,,0,,,84,127
79211,note_on,2,0,0,,11,,,82,127
79324,note_off,113,0,0,,11,,,82,127
79326,note_on,2,0,0,,10,,,81,127
79439,note_off,113,0,0,,10,,,81,127
79439,note_off,0,0,0,,2,,,62,127
79441,note_on,2,0,0,,8,,,80,127
79441,note_on,0,0,0,,2,,,74,127
79554,note_off,113,0,0,,8,,,80,127
79556,note_on,2,0,0,,10,,,81,127
79669,note_off,113,0,0,,10,,,81,127
79669,note_off,0,0,0,,2,,,74,127
79671,note_on,2,0,0,,4,,,76,127
79671,note_on,0,0,0,,1,,,73,127
79784,note_off,113,0,0,,4,,,76,127
79786,note_on,2,0,0,,5,,,77,127
79899,note_off,113,0,0,,5,,,77,127
79899,note_off,0,0,0,,1,,,73,127
79901,note_on,2,0,0,,6,,,78,127
79901,note_on,0,0,0,,12,,,71,127
80014,note_off,113,0,0,,6,,,78,127
80016,note_on,2,0,0,,7,,,79,127
80129,note_off,113,0,0,,7,,,79,127
80129,note_off,0,0,0,,12,,,71,127
80131,note_on,2,0,0,,10,,,81,127
80131,note_on,0,0,0,,10,,,69,127
80244,note_off,113,0,0,,10,,,81,127
80246,note_on,2,0,0,,7,,,79,127
80359,note_off,113,0,0,,7,,,79,127
80359,note_off,0,0,0,,10,,,69,127
80361,note_on,2,0,0,,7,,,79,127
80361,note_on,0,0,0,,2,,,62,127
80474,note_off,113,0,0,,7,,,79,127
80476,note_on,2,0,0,,5,,,77,127
80589,note_off,113,0,0,,5,,,77,127
80589,note_off,0,0,0,,2,,,62,127
80591,note_on,2,0,0,,4,,,76,127
80591,note_on,0,0,0,,4,,,64,127
80704,note_off,113,0,0,,4,,,76,127
80706,note_on,2,0,0,,5,,,77,127
80819,note_off,113,0,0,,5,,,77,127
80819,note_off,0,0,0,,4,,,64,127
80821,note_on,2,0,0,,2,,,74,127
80821,note_on,0,0,0,,5,,,65,127
80934,note_off,113,0,0,,2,,,74,127
80936,note_on,2,0,0,,4,,,76,127
81049,note_off,113,0,0,,4,,,76,127
81049,note_off,0,0,0,,5,,,65,127
81051,note_on,2,0,0,,5,,,77,127
81051,note_on,0,0,0,,7,,,67,127
81164,note_off,113,0,0,,5,,,77,127
81166,note_on,2,0,0,,7,,,79,127
81279,note_off,113,0,0,,7,,,79,127
81279,note_off,0,0,0,,7,,,67,127
81281,note_on,2,0,0,,5,,,77,127
81281,note_on,0,0,0,,10,,,69,127
81336,note_off,55,0,0,,5,,,77,127
81338,note_on,2,0,0,,4,,,76,127
81393,note_off,55,0,0,,4,,,76,127
81395,note_on,2,0,0,,2,,,74,127
81508,note_off,113,0,0,,2,,,74,127
81508,note_off,0,0,0,,10,,,69,127
81510,note_on,2,0,0,,4,,,76,127
81510,note_on,0,0,0,,10,,,57,127
81623,note_off,113,0,0,,4,,,76,127
81625,note_on,2,0,0,,1,,,73,127
81738,note_off,113,0,0,,1,,,73,127
81738,note_off,0,0,0,,10,,,57,127
81740,note_on,2,0,0,,2,,,74,127
81740,note_on,0,0,0,,2,,,50,127
81853,note_off,113,0,0,,2,,,74,127
81855,note_on,2,0,0,,0,,,72,127
81968,note_off,113,0,0,,0,,,72,127
81970,note_on,2,0,0,,11,,,70,127
82083,note_off,113,0,0,,11,,,70,127
82085,note_on,2,0,0,,10,,,69,127
82198,note_off,113,0,0,,10,,,69,127
82198,note_off,0,0,0,,2,,,50,127
82200,note_on,2,0,0,,8,,,68,127
82200,note_on,0,0,0,,2,,,62,127
82313,note_off,113,0,0,,8,,,68,127
82315,note_on,2,0,0,,10,,,69,127
82428,note_off,113,0,0,,10,,,69,127
82428,note_off,0,0,0,,2,,,62,127
82430,note_on,2,0,0,,4,,,64,127
82430,note_on,0,0,0,,1,,,61,127
82543,note_off,113,0,0,,4,,,64,127
82545,note_on,2,0,0,,5,,,65,127
82658,note_off,113,0,0,,5,,,65,127
82658,note_off,0,0,0,,1,,,61,127
82660,note_on,2,0,0,,6,,,66,127
82660,note_on,0,0,0,,12,,,59,127
82773,note_off,113,0,0,,6,,,66,127
82775,note_on,2,0,0,,7,,,67,127
82888,note_off,113,0,0,,7,,,67,127
82888,note_off,0,0,0,,12,,,59,127
82890,note_on,2,0,0,,10,,,69,127
82890,note_on,0,0,0,,10,,,57,127
83003,note_off,113,0,0,,10,,,69,127
83005,note_on,2,0,0,,7,,,67,127
83118,note_off,113,0,0,,7,,,67,127
83118,note_off,0,0,0,,10,,,57,127
83120,note_on,2,0,0,,7,,,67,127
83120,note_on,0,0,0,,2,,,50,127
83233,note_off,113,0,0,,7,,,67,127
83235,note_on,2,0,0,,5,,,65,127
83348,note_off,113,0,0,,5,,,65,127
83348,note_off,0,0,0,,2,,,50,127
83350,note_on,2,0,0,,4,,,64,127
83350,note_on,0,0,0,,4,,,52,127
83463,note_off,113,0,0,,4,,,64,127
83465,note_on,2,0,0,,5,,,65,127
83578,note_off,113,0,0,,5,,,65,127
83578,note_off,0,0,0,,4,,,52,127
83580,note_on,2,0,0,,2,,,62,127
83580,note_on,0,0,0,,5,,,53,127
83693,note_off,113,0,0,,2,,,62,127
83695,note_on,2,0,0,,4,,,64,127
83808,note_off,113,0,0,,4,,,64,127
83808,note_off,0,0,0,,5,,,53,127
83810,note_on,2,0,0,,5,,,65,127
83810,note_on,0,0,0,,7,,,55,127
83923,note_off,113,0,0,,5,,,65,127
83925,note_on,2,0,0,,7,,,67,127
84038,note_off,113,0,0,,7,,,67,127
84038,note_off,0,0,0,,7,,,55,127
84040,note_on,2,0,0,,5,,,65,127
84040,note_on,0,0,0,,10,,,57,127
84095,note_off,55,0,0,,5,,,65,127
84097,note_on,2,0,0,,4,,,64,127
84152,note_off,55,0,0,,4,,,64,127
84154,note_on,2,0,0,,2,,,62,127
84267,note_off,113,0,0,,2,,,62,127
84269,note_on,2,0,0,,4,,,64,127
84269,note_on,0,0,0,,10,,,45,127
84382,note_off,113,0,0,,4,,,64,127
84384,note_on,2,0,0,,1,,,61,127
84494,note_off,110,0,0,,10,,,57,127
84496,note_off,2,0,0,,1,,,61,127
84496,note_off,0,0,0,,10,,,45,127
84498,note_on,2,0,0,,1,,,61,127
84498,note_on,0,0,0,,2,,,38,127
84498,note_on,0,0,0,,2,,,50,127
84920,note_off,422,0,0,,1,,,61,127
84920,note_on,0,0,0,,2,,,62,127
86533,note_off,1613,0,0,,2,,,62,127
86533,note_off,0,0,0,,2,,,50,127
86533,note_off,0,0,0,,2,,,38,127
92160,end_of_track,5627,1,0,,,,,,
