tick,type,time,meta,track,program,channel,pitch,tempo,note,velocity
0,copyright,0,1,0,,,,,,
0,program_change,0,0,0,6,0,,,,
0,pitchwheel,0,0,0,,0,0,,,
0,program_change,0,0,0,6,1,,,,
0,pitchwheel,0,0,0,,1,-590,,,
0,program_change,0,0,0,6,2,,,,
0,pitchwheel,0,0,0,,2,-272,,,
0,program_change,0,0,0,6,3,,,,
0,pitchwheel,0,0,0,,3,-353,,,
0,program_change,0,0,0,6,4,,,,
0,pitchwheel,0,0,0,,4,-560,,,
0,program_change,0,0,0,6,5,,,,
0,pitchwheel,0,0,0,,5,-80,,,
0,program_change,0,0,0,6,6,,,,
0,pitchwheel,0,0,0,,6,-625,,,
0,program_change,0,0,0,6,7,,,,
0,pitchwheel,0,0,0,,7,-130,,,
0,program_change,0,0,0,6,8,,,,
0,pitchwheel,0,0,0,,8,-512,,,
0,program_change,0,0,0,6,10,,,,
0,pitchwheel,0,0,0,,10,-464,,,
0,program_change,0,0,0,6,11,,,,
0,pitchwheel,0,0,0,,11,-208,,,
0,program_change,0,0,0,6,12,,,,
0,pitchwheel,0,0,0,,12,-553,,,
0,set_tempo,0,1,0,,,,500000,,
128,note_on,128,0,0,,0,,,72,127
255,note_off,127,0,0,,0,,,72,127
256,note_on,1,0,0,,2,,,74,127
383,note_off,127,0,0,,2,,,74,127
384,note_on,1,0,0,,3,,,75,127
511,note_off,127,0,0,,3,,,75,127
512,note_on,1,0,0,,5,,,77,127
639,note_off,127,0,0,,5,,,77,127
640,note_on,1,0,0,,7,,,79,127
767,note_off,127,0,0,,7,,,79,127
768,note_on,1,0,0,,0,,,72,127
895,note_off,127,0,0,,0,,,72,127
896,note_on,1,0,0,,8,,,80,127
1023,note_off,127,0,0,,8,,,80,127
1024,note_on,1,0,0,,0,,,84,127
1151,note_off,127,0,0,,0,,,84,127
1152,note_on,1,0,0,,7,,,67,127
1152,note_on,0,0,0,,12,,,83,127
1279,note_off,127,0,0,,7,,,67,127
1280,note_on,1,0,0,,10,,,69,127
1407,note_off,127,0,0,,10,,,69,127
1408,note_on,1,0,0,,12,,,71,127
1535,note_off,127,0,0,,12,,,71,127
1536,note_on,1,0,0,,0,,,72,127
1663,note_off,127,0,0,,0,,,72,127
1664,note_on,1,0,0,,2,,,74,127
1792,note_on,128,0,0,,7,,,67,127
1917,note_off,125,0,0,,2,,,74,127
1918,note_off,1,0,0,,7,,,67,127
1918,note_off,0,0,0,,12,,,83,127
1919,note_on,1,0,0,,2,,,74,127
1919,note_on,0,0,0,,8,,,80,127
2046,note_off,127,0,0,,2,,,74,127
2047,note_on,1,0,0,,5,,,77,127
2174,note_off,127,0,0,,5,,,77,127
2174,note_off,0,0,0,,8,,,80,127
2175,note_on,1,0,0,,3,,,75,127
2175,note_on,0,0,0,,7,,,79,127
2302,note_off,127,0,0,,3,,,75,127
2303,note_on,1,0,0,,0,,,72,127
2430,note_off,127,0,0,,0,,,72,127
2430,note_off,0,0,0,,7,,,79,127
2431,note_on,1,0,0,,2,,,74,127
2431,note_on,0,0,0,,5,,,77,127
2558,note_off,127,0,0,,2,,,74,127
2559,note_on,1,0,0,,12,,,71,127
2686,note_off,127,0,0,,12,,,71,127
2686,note_off,0,0,0,,5,,,77,127
2687,note_on,1,0,0,,0,,,72,127
2687,note_on,0,0,0,,3,,,75,127
2814,note_off,127,0,0,,0,,,72,127
2815,note_on,1,0,0,,5,,,65,127
2942,note_off,127,0,0,,5,,,65,127
2942,note_off,0,0,0,,3,,,75,127
2943,note_on,1,0,0,,7,,,67,127
2943,note_on,0,0,0,,2,,,74,127
3070,note_off,127,0,0,,7,,,67,127
3071,note_on,1,0,0,,7,,,55,127
3198,note_off,127,0,0,,7,,,55,127
3198,note_off,0,0,0,,2,,,74,127
3199,note_on,1,0,0,,0,,,60,127
3199,note_on,0,0,0,,3,,,75,127
3326,note_off,127,0,0,,3,,,75,127
3327,note_on,1,0,0,,2,,,74,127
3454,note_off,127,0,0,,2,,,74,127
3455,note_on,1,0,0,,0,,,72,127
3582,note_off,127,0,0,,0,,,72,127
3583,note_on,1,0,0,,12,,,71,127
3710,note_off,127,0,0,,12,,,71,127
3711,note_on,1,0,0,,0,,,72,127
3838,note_off,127,0,0,,0,,,72,127
3839,note_on,1,0,0,,7,,,67,127
3966,note_off,127,0,0,,7,,,67,127
3966,note_off,0,0,0,,0,,,60,127
3967,note_on,1,0,0,,5,,,65,127
3967,note_on,0,0,0,,8,,,68,127
4094,note_off,127,0,0,,5,,,65,127
4095,note_on,1,0,0,,2,,,62,127
4222,note_off,127,0,0,,2,,,62,127
4222,note_off,0,0,0,,8,,,68,127
4223,note_on,1,0,0,,3,,,63,127
4223,note_on,0,0,0,,7,,,67,127
4350,note_off,127,0,0,,3,,,63,127
4351,note_on,1,0,0,,2,,,62,127
4478,note_off,127,0,0,,2,,,62,127
4478,note_off,0,0,0,,7,,,67,127
4479,note_on,1,0,0,,0,,,60,127
4479,note_on,0,0,0,,5,,,65,127
4606,note_off,127,0,0,,0,,,60,127
4607,note_on,1,0,0,,12,,,59,127
4734,note_off,127,0,0,,12,,,59,127
4734,note_off,0,0,0,,5,,,65,127
4735,note_on,1,0,0,,0,,,60,127
4735,note_on,0,0,0,,3,,,63,127
4862,note_off,127,0,0,,0,,,60,127
4863,note_on,1,0,0,,5,,,53,127
4990,note_off,127,0,0,,5,,,53,127
4990,note_off,0,0,0,,3,,,63,127
4991,note_on,1,0,0,,7,,,55,127
4991,note_on,0,0,0,,2,,,62,127
5118,note_off,127,0,0,,7,,,55,127
5119,note_on,1,0,0,,7,,,43,127
5246,note_off,127,0,0,,7,,,43,127
5246,note_off,0,0,0,,2,,,62,127
5247,note_on,1,0,0,,0,,,36,127
5247,note_on,0,0,0,,3,,,63,127
5374,note_off,127,0,0,,3,,,63,127
5375,note_on,1,0,0,,2,,,62,127
5502,note_off,127,0,0,,2,,,62,127
5503,note_on,1,0,0,,0,,,60,127
5630,note_off,127,0,0,,0,,,60,127
5631,note_on,1,0,0,,12,,,59,127
5758,note_off,127,0,0,,12,,,59,127
5759,note_on,1,0,0,,0,,,60,127
5886,note_off,127,0,0,,0,,,60,127
5887,note_off,1,0,0,,0,,,36,127
5887,note_on,0,0,0,,7,,,55,127
6014,note_off,127,0,0,,7,,,55,127
6015,note_on,1,0,0,,5,,,53,127
6015,note_on,0,0,0,,8,,,56,127
6143,note_on,128,0,0,,5,,,65,127
6270,note_off,127,0,0,,8,,,56,127
6271,note_on,1,0,0,,12,,,59,127
6398,note_off,127,0,0,,5,,,65,127
6399,note_on,1,0,0,,7,,,67,127
6526,note_off,127,0,0,,12,,,59,127
6526,note_off,0,0,0,,5,,,53,127
6527,note_on,1,0,0,,0,,,60,127
6527,note_on,0,0,0,,3,,,51,127
6654,note_off,127,0,0,,7,,,67,127
6655,note_on,1,0,0,,0,,,72,127
6782,note_off,127,0,0,,3,,,51,127
6782,note_off,0,0,0,,0,,,60,127
6783,note_on,1,0,0,,2,,,50,127
6783,note_on,0,0,0,,5,,,65,127
6910,note_off,127,0,0,,0,,,72,127
6911,note_on,1,0,0,,5,,,77,127
7038,note_off,127,0,0,,5,,,65,127
7038,note_off,0,0,0,,2,,,50,127
7039,note_on,1,0,0,,0,,,48,127
7039,note_on,0,0,0,,7,,,67,127
7166,note_off,127,0,0,,5,,,77,127
7167,note_on,1,0,0,,3,,,75,127
7294,note_off,127,0,0,,3,,,75,127
7294,note_off,0,0,0,,7,,,67,127
7294,note_off,0,0,0,,0,,,48,127
7295,note_on,1,0,0,,7,,,43,127
7295,note_on,0,0,0,,2,,,74,127
7422,note_off,127,0,0,,2,,,74,127
7423,note_on,1,0,0,,0,,,72,127
7550,note_off,127,0,0,,0,,,72,127
7551,note_on,1,0,0,,12,,,71,127
7678,note_off,127,0,0,,12,,,71,127
7679,note_on,1,0,0,,10,,,69,127
7806,note_off,127,0,0,,10,,,69,127
7807,note_on,1,0,0,,7,,,67,127
7934,note_off,127,0,0,,7,,,67,127
7935,note_off,1,0,0,,7,,,43,127
7935,note_on,0,0,0,,2,,,74,127
8062,note_off,127,0,0,,2,,,74,127
8063,note_on,1,0,0,,0,,,60,127
8063,note_on,0,0,0,,3,,,75,127
8191,note_on,128,0,0,,7,,,67,127
8318,note_off,127,0,0,,7,,,67,127
8318,note_off,0,0,0,,0,,,60,127
8319,note_on,1,0,0,,5,,,65,127
8319,note_on,0,0,0,,8,,,68,127
8446,note_off,127,0,0,,3,,,75,127
8447,note_on,1,0,0,,2,,,74,127
8574,note_off,127,0,0,,8,,,68,127
8574,note_off,0,0,0,,5,,,65,127
8575,note_on,1,0,0,,3,,,63,127
8575,note_on,0,0,0,,7,,,67,127
8702,note_off,127,0,0,,2,,,74,127
8703,note_on,1,0,0,,0,,,72,127
8830,note_off,127,0,0,,7,,,67,127
8830,note_off,0,0,0,,3,,,63,127
8831,note_on,1,0,0,,2,,,62,127
8831,note_on,0,0,0,,5,,,65,127
8958,note_off,127,0,0,,0,,,72,127
8959,note_on,1,0,0,,12,,,71,127
9086,note_off,127,0,0,,12,,,71,127
9086,note_off,0,0,0,,2,,,62,127
9087,note_on,1,0,0,,0,,,60,127
9087,note_on,0,0,0,,0,,,72,127
9214,note_off,127,0,0,,5,,,65,127
9215,note_on,1,0,0,,3,,,63,127
9342,note_off,127,0,0,,3,,,63,127
9342,note_off,0,0,0,,0,,,72,127
9342,note_off,0,0,0,,0,,,60,127
9343,note_on,1,0,0,,7,,,43,127
9343,note_on,0,0,0,,2,,,62,127
9470,note_off,127,0,0,,2,,,62,127
9471,note_on,1,0,0,,0,,,60,127
9598,note_off,127,0,0,,0,,,60,127
9599,note_on,1,0,0,,12,,,59,127
9726,note_off,127,0,0,,12,,,59,127
9727,note_on,1,0,0,,10,,,57,127
9854,note_off,127,0,0,,10,,,57,127
9854,note_off,0,0,0,,7,,,43,127
9855,note_on,1,0,0,,7,,,55,127
9983,note_on,128,0,0,,5,,,77,127
10110,note_off,127,0,0,,5,,,77,127
10110,note_off,0,0,0,,7,,,55,127
10111,note_on,1,0,0,,2,,,74,127
10111,note_on,0,0,0,,5,,,65,127
10238,note_off,127,0,0,,2,,,74,127
10239,note_on,1,0,0,,12,,,71,127
10366,note_off,127,0,0,,12,,,71,127
10366,note_off,0,0,0,,5,,,65,127
10367,note_on,1,0,0,,0,,,72,127
10367,note_on,0,0,0,,3,,,63,127
10494,note_off,127,0,0,,3,,,63,127
10495,note_on,1,0,0,,12,,,59,127
10622,note_off,127,0,0,,12,,,59,127
10623,note_on,1,0,0,,0,,,60,127
10750,note_off,127,0,0,,0,,,60,127
10751,note_on,1,0,0,,8,,,56,127
10878,note_off,127,0,0,,8,,,56,127
10878,note_off,0,0,0,,0,,,72,127
10879,note_on,1,0,0,,7,,,55,127
11007,note_on,128,0,0,,5,,,77,127
11134,note_off,127,0,0,,5,,,77,127
11134,note_off,0,0,0,,7,,,55,127
11135,note_on,1,0,0,,2,,,74,127
11135,note_on,0,0,0,,5,,,65,127
11262,note_off,127,0,0,,2,,,74,127
11263,note_on,1,0,0,,12,,,71,127
11390,note_off,127,0,0,,12,,,71,127
11390,note_off,0,0,0,,5,,,65,127
11391,note_on,1,0,0,,0,,,72,127
11391,note_on,0,0,0,,3,,,63,127
11518,note_off,127,0,0,,3,,,63,127
11519,note_on,1,0,0,,12,,,59,127
11646,note_off,127,0,0,,12,,,59,127
11647,note_on,1,0,0,,0,,,60,127
11774,note_off,127,0,0,,0,,,60,127
11775,note_on,1,0,0,,8,,,56,127
11902,note_off,127,0,0,,8,,,56,127
11902,note_off,0,0,0,,0,,,72,127
11903,note_on,1,0,0,,7,,,55,127
12031,note_on,128,0,0,,5,,,77,127
12158,note_off,127,0,0,,5,,,77,127
12158,note_off,0,0,0,,7,,,55,127
12159,note_on,1,0,0,,2,,,74,127
12159,note_on,0,0,0,,5,,,65,127
12286,note_off,127,0,0,,2,,,74,127
12287,note_on,1,0,0,,12,,,71,127
12414,note_off,127,0,0,,12,,,71,127
12414,note_off,0,0,0,,5,,,65,127
12415,note_on,1,0,0,,0,,,72,127
12415,note_on,0,0,0,,3,,,63,127
12542,note_off,127,0,0,,3,,,63,127
12543,note_on,1,0,0,,2,,,62,127
12670,note_off,127,0,0,,2,,,62,127
12671,note_on,1,0,0,,0,,,60,127
12798,note_off,127,0,0,,0,,,60,127
12799,note_on,1,0,0,,12,,,59,127
12926,note_off,127,0,0,,12,,,59,127
12926,note_off,0,0,0,,0,,,72,127
12927,note_on,1,0,0,,0,,,60,127
13055,note_on,128,0,0,,0,,,72,127
13182,note_off,127,0,0,,0,,,72,127
13182,note_off,0,0,0,,0,,,60,127
13183,note_on,1,0,0,,10,,,69,127
13183,note_on,0,0,0,,2,,,62,127
13310,note_off,127,0,0,,10,,,69,127
13311,note_on,1,0,0,,6,,,66,127
13438,note_off,127,0,0,,6,,,66,127
13438,note_off,0,0,0,,2,,,62,127
13439,note_on,1,0,0,,7,,,67,127
13439,note_on,0,0,0,,11,,,58,127
13566,note_off,127,0,0,,11,,,58,127
13567,note_on,1,0,0,,6,,,54,127
13694,note_off,127,0,0,,6,,,54,127
13695,note_on,1,0,0,,7,,,55,127
13822,note_off,127,0,0,,7,,,55,127
13823,note_on,1,0,0,,3,,,51,127
13950,note_off,127,0,0,,3,,,51,127
13950,note_off,0,0,0,,7,,,67,127
13951,note_on,1,0,0,,2,,,50,127
14079,note_on,128,0,0,,0,,,72,127
14206,note_off,127,0,0,,0,,,72,127
14206,note_off,0,0,0,,2,,,50,127
14207,note_on,1,0,0,,10,,,69,127
14207,note_on,0,0,0,,0,,,60,127
14334,note_off,127,0,0,,10,,,69,127
14335,note_on,1,0,0,,6,,,66,127
14462,note_off,127,0,0,,6,,,66,127
14462,note_off,0,0,0,,0,,,60,127
14463,note_on,1,0,0,,7,,,67,127
14463,note_on,0,0,0,,11,,,58,127
14590,note_off,127,0,0,,11,,,58,127
14591,note_on,1,0,0,,6,,,54,127
14718,note_off,127,0,0,,6,,,54,127
14719,note_on,1,0,0,,7,,,55,127
14846,note_off,127,0,0,,7,,,55,127
14847,note_on,1,0,0,,3,,,51,127
14974,note_off,127,0,0,,3,,,51,127
14974,note_off,0,0,0,,7,,,67,127
14975,note_on,1,0,0,,2,,,50,127
15103,note_on,128,0,0,,0,,,72,127
15230,note_off,127,0,0,,0,,,72,127
15230,note_off,0,0,0,,2,,,50,127
15231,note_on,1,0,0,,10,,,69,127
15231,note_on,0,0,0,,0,,,60,127
15358,note_off,127,0,0,,10,,,69,127
15359,note_on,1,0,0,,6,,,66,127
15486,note_off,127,0,0,,6,,,66,127
15486,note_off,0,0,0,,0,,,60,127
15487,note_on,1,0,0,,7,,,67,127
15487,note_on,0,0,0,,11,,,58,127
15614,note_off,127,0,0,,11,,,58,127
15615,note_on,1,0,0,,7,,,55,127
15742,note_off,127,0,0,,7,,,55,127
15742,note_off,0,0,0,,7,,,67,127
15743,note_on,1,0,0,,3,,,75,127
15743,note_on,0,0,0,,10,,,57,127
15870,note_off,127,0,0,,10,,,57,127
15871,note_on,1,0,0,,7,,,67,127
15998,note_off,127,0,0,,7,,,67,127
15998,note_off,0,0,0,,3,,,75,127
15999,note_on,1,0,0,,2,,,74,127
15999,note_on,0,0,0,,6,,,66,127
16126,note_off,127,0,0,,6,,,66,127
16127,note_on,1,0,0,,10,,,69,127
16254,note_off,127,0,0,,10,,,69,127
16254,note_off,0,0,0,,2,,,74,127
16255,note_on,1,0,0,,6,,,78,127
16255,note_on,0,0,0,,2,,,62,127
16382,note_off,127,0,0,,2,,,62,127
16383,note_on,1,0,0,,0,,,60,127
16510,note_off,127,0,0,,0,,,60,127
16510,note_off,0,0,0,,6,,,78,127
16511,note_on,1,0,0,,7,,,79,127
16511,note_on,0,0,0,,11,,,58,127
16638,note_off,127,0,0,,11,,,58,127
16639,note_on,1,0,0,,7,,,55,127
16766,note_off,127,0,0,,7,,,55,127
16766,note_off,0,0,0,,7,,,79,127
16767,note_on,1,0,0,,3,,,75,127
16767,note_on,0,0,0,,10,,,57,127
16894,note_off,127,0,0,,10,,,57,127
16895,note_on,1,0,0,,7,,,67,127
17022,note_off,127,0,0,,7,,,67,127
17022,note_off,0,0,0,,3,,,75,127
17023,note_on,1,0,0,,2,,,74,127
17023,note_on,0,0,0,,6,,,66,127
17150,note_off,127,0,0,,6,,,66,127
17151,note_on,1,0,0,,10,,,69,127
17278,note_off,127,0,0,,10,,,69,127
17278,note_off,0,0,0,,2,,,74,127
17279,note_on,1,0,0,,6,,,78,127
17279,note_on,0,0,0,,2,,,62,127
17406,note_off,127,0,0,,2,,,62,127
17407,note_on,1,0,0,,0,,,60,127
17534,note_off,127,0,0,,0,,,60,127
17534,note_off,0,0,0,,6,,,78,127
17535,note_on,1,0,0,,7,,,79,127
17535,note_on,0,0,0,,11,,,58,127
17662,note_off,127,0,0,,11,,,58,127
17663,note_on,1,0,0,,7,,,55,127
17790,note_off,127,0,0,,7,,,55,127
17790,note_off,0,0,0,,7,,,79,127
17791,note_on,1,0,0,,3,,,75,127
17791,note_on,0,0,0,,10,,,57,127
17918,note_off,127,0,0,,10,,,57,127
17919,note_on,1,0,0,,7,,,67,127
18046,note_off,127,0,0,,7,,,67,127
18046,note_off,0,0,0,,3,,,75,127
18047,note_on,1,0,0,,2,,,74,127
18047,note_on,0,0,0,,6,,,66,127
18174,note_off,127,0,0,,6,,,66,127
18175,note_on,1,0,0,,10,,,69,127
18302,note_off,127,0,0,,10,,,69,127
18302,note_off,0,0,0,,2,,,74,127
18303,note_on,1,0,0,,6,,,78,127
18303,note_on,0,0,0,,2,,,62,127
18430,note_off,127,0,0,,2,,,62,127
18431,note_on,1,0,0,,0,,,60,127
18558,note_off,127,0,0,,0,,,60,127
18558,note_off,0,0,0,,6,,,78,127
18559,note_on,1,0,0,,7,,,79,127
18559,note_on,0,0,0,,11,,,58,127
18686,note_off,127,0,0,,7,,,79,127
18687,note_on,1,0,0,,5,,,77,127
18814,note_off,127,0,0,,5,,,77,127
18814,note_off,0,0,0,,11,,,58,127
18815,note_on,1,0,0,,3,,,75,127
18815,note_on,0,0,0,,7,,,55,127
18942,note_off,127,0,0,,3,,,75,127
18943,note_on,1,0,0,,2,,,74,127
19070,note_off,127,0,0,,2,,,74,127
19070,note_off,0,0,0,,7,,,55,127
19071,note_on,1,0,0,,0,,,72,127
19071,note_on,0,0,0,,0,,,60,127
19198,note_off,127,0,0,,0,,,72,127
19199,note_on,1,0,0,,11,,,70,127
19326,note_off,127,0,0,,11,,,70,127
19326,note_off,0,0,0,,0,,,60,127
19327,note_on,1,0,0,,10,,,69,127
19327,note_on,0,0,0,,3,,,63,127
19454,note_off,127,0,0,,10,,,69,127
19455,note_on,1,0,0,,7,,,67,127
19582,note_off,127,0,0,,7,,,67,127
19582,note_off,0,0,0,,3,,,63,127
19583,note_on,1,0,0,,6,,,66,127
19583,note_on,0,0,0,,2,,,62,127
19710,note_off,127,0,0,,6,,,66,127
19711,note_on,1,0,0,,3,,,75,127
19838,note_off,127,0,0,,3,,,75,127
19838,note_off,0,0,0,,2,,,62,127
19839,note_on,1,0,0,,2,,,74,127
19839,note_on,0,0,0,,6,,,66,127
19966,note_off,127,0,0,,2,,,74,127
19967,note_on,1,0,0,,0,,,72,127
20094,note_off,127,0,0,,0,,,72,127
20094,note_off,0,0,0,,6,,,66,127
20095,note_on,1,0,0,,11,,,70,127
20095,note_on,0,0,0,,7,,,67,127
20222,note_off,127,0,0,,7,,,67,127
20223,note_on,1,0,0,,10,,,69,127
20350,note_off,127,0,0,,10,,,69,127
20350,note_off,0,0,0,,11,,,70,127
20351,note_on,1,0,0,,11,,,70,127
20478,note_off,127,0,0,,11,,,70,127
20479,note_on,1,0,0,,0,,,72,127
20606,note_off,127,0,0,,0,,,72,127
20607,note_on,1,0,0,,2,,,74,127
20734,note_off,127,0,0,,2,,,74,127
20735,note_on,1,0,0,,0,,,72,127
20862,note_off,127,0,0,,0,,,72,127
20863,note_on,1,0,0,,2,,,62,127
20863,note_on,0,0,0,,11,,,58,127
20863,note_on,0,0,0,,11,,,70,127
20990,note_off,127,0,0,,11,,,70,127
20991,note_on,1,0,0,,10,,,69,127
21118,note_off,127,0,0,,10,,,69,127
21118,note_off,0,0,0,,11,,,58,127
21118,note_off,0,0,0,,2,,,62,127
21119,note_on,1,0,0,,3,,,63,127
21119,note_on,0,0,0,,7,,,67,127
21246,note_off,127,0,0,,7,,,67,127
21247,note_on,1,0,0,,3,,,75,127
21374,note_off,127,0,0,,3,,,75,127
21374,note_off,0,0,0,,3,,,63,127
21375,note_on,1,0,0,,0,,,60,127
21375,note_on,0,0,0,,2,,,74,127
21502,note_off,127,0,0,,2,,,74,127
21503,note_on,1,0,0,,0,,,72,127
21630,note_off,127,0,0,,0,,,72,127
21630,note_off,0,0,0,,0,,,60,127
21631,note_on,1,0,0,,2,,,62,127
21631,note_on,0,0,0,,11,,,70,127
21758,note_off,127,0,0,,11,,,70,127
21759,note_on,1,0,0,,10,,,69,127
21886,note_off,127,0,0,,10,,,69,127
21887,note_on,1,0,0,,2,,,50,127
21887,note_on,0,0,0,,7,,,67,127
22014,note_off,127,0,0,,7,,,67,127
22015,note_on,1,0,0,,6,,,66,127
22138,note_off,123,0,0,,2,,,62,127
22142,note_off,4,0,0,,6,,,66,127
22142,note_off,0,0,0,,2,,,50,127
22143,note_on,1,0,0,,7,,,55,127
22143,note_on,0,0,0,,7,,,67,127
22250,note_off,107,0,0,,7,,,67,127
22271,note_on,21,0,0,,2,,,74,127
22398,note_off,127,0,0,,2,,,74,127
22398,note_off,0,0,0,,7,,,55,127
22399,note_on,1,0,0,,7,,,67,127
22399,note_on,0,0,0,,3,,,75,127
22526,note_off,127,0,0,,3,,,75,127
22527,note_on,1,0,0,,0,,,72,127
22654,note_off,127,0,0,,0,,,72,127
22654,note_off,0,0,0,,7,,,67,127
22655,note_on,1,0,0,,10,,,69,127
22655,note_on,0,0,0,,6,,,66,127
22655,note_on,0,0,0,,2,,,74,127
22782,note_off,127,0,0,,2,,,74,127
22783,note_on,1,0,0,,7,,,79,127
22910,note_off,127,0,0,,7,,,79,127
22910,note_off,0,0,0,,6,,,66,127
22911,note_on,1,0,0,,2,,,62,127
22911,note_on,0,0,0,,7,,,79,127
22943,note_on,32,0,0,,6,,,78,127
22954,note_off,11,0,0,,7,,,79,127
22975,note_on,21,0,0,,7,,,79,127
22986,note_off,11,0,0,,6,,,78,127
23007,note_on,21,0,0,,6,,,78,127
23018,note_off,11,0,0,,7,,,79,127
23166,note_off,148,0,0,,2,,,62,127
23166,note_off,0,0,0,,10,,,69,127
23167,note_on,1,0,0,,3,,,63,127
23167,note_on,0,0,0,,7,,,67,127
23294,note_off,127,0,0,,6,,,78,127
23295,note_on,1,0,0,,2,,,74,127
23422,note_off,127,0,0,,2,,,74,127
23422,note_off,0,0,0,,3,,,63,127
23423,note_on,1,0,0,,0,,,60,127
23423,note_on,0,0,0,,3,,,75,127
23550,note_off,127,0,0,,3,,,75,127
23551,note_on,1,0,0,,0,,,72,127
23678,note_off,127,0,0,,0,,,72,127
23678,note_off,0,0,0,,0,,,60,127
23678,note_off,0,0,0,,7,,,67,127
23679,note_on,1,0,0,,10,,,69,127
23679,note_on,0,0,0,,6,,,66,127
23679,note_on,0,0,0,,2,,,74,127
23806,note_off,127,0,0,,2,,,74,127
23807,note_on,1,0,0,,11,,,82,127
23934,note_off,127,0,0,,11,,,82,127
23934,note_off,0,0,0,,6,,,66,127
23935,note_on,1,0,0,,2,,,62,127
23935,note_on,0,0,0,,11,,,82,127
23967,note_on,32,0,0,,10,,,81,127
23978,note_off,11,0,0,,11,,,82,127
23999,note_on,21,0,0,,11,,,82,127
24010,note_off,11,0,0,,10,,,81,127
24031,note_on,21,0,0,,10,,,81,127
24042,note_off,11,0,0,,11,,,82,127
24190,note_off,148,0,0,,2,,,62,127
24190,note_off,0,0,0,,10,,,69,127
24191,note_on,1,0,0,,7,,,67,127
24191,note_on,0,0,0,,3,,,63,127
24318,note_off,127,0,0,,10,,,81,127
24319,note_on,1,0,0,,2,,,74,127
24446,note_off,127,0,0,,2,,,74,127
24446,note_off,0,0,0,,3,,,63,127
24447,note_on,1,0,0,,0,,,60,127
24447,note_on,0,0,0,,3,,,75,127
24574,note_off,127,0,0,,3,,,75,127
24575,note_on,1,0,0,,0,,,72,127
24702,note_off,127,0,0,,0,,,72,127
24702,note_off,0,0,0,,0,,,60,127
24702,note_off,0,0,0,,7,,,67,127
24703,note_on,1,0,0,,6,,,66,127
24703,note_on,0,0,0,,10,,,69,127
24703,note_on,0,0,0,,2,,,74,127
24830,note_off,127,0,0,,2,,,74,127
24831,note_on,1,0,0,,2,,,86,127
24958,note_off,127,0,0,,2,,,86,127
24958,note_off,0,0,0,,6,,,66,127
24959,note_on,1,0,0,,2,,,62,127
24959,note_on,0,0,0,,2,,,86,127
24991,note_on,32,0,0,,0,,,84,127
25002,note_off,11,0,0,,2,,,86,127
25023,note_on,21,0,0,,2,,,86,127
25034,note_off,11,0,0,,0,,,84,127
25055,note_on,21,0,0,,0,,,84,127
25066,note_off,11,0,0,,2,,,86,127
25214,note_off,148,0,0,,2,,,62,127
25214,note_off,0,0,0,,10,,,69,127
25215,note_on,1,0,0,,3,,,63,127
25215,note_on,0,0,0,,7,,,67,127
25342,note_off,127,0,0,,0,,,84,127
25343,note_on,1,0,0,,11,,,82,127
25470,note_off,127,0,0,,11,,,82,127
25470,note_off,0,0,0,,3,,,63,127
25471,note_on,1,0,0,,0,,,60,127
25471,note_on,0,0,0,,10,,,81,127
25598,note_off,127,0,0,,10,,,81,127
25599,note_on,1,0,0,,7,,,79,127
25726,note_off,127,0,0,,7,,,79,127
25726,note_off,0,0,0,,0,,,60,127
25726,note_off,0,0,0,,7,,,67,127
25727,note_on,1,0,0,,2,,,62,127
25727,note_on,0,0,0,,7,,,79,127
25982,note_off,255,0,0,,7,,,79,127
25982,note_off,0,0,0,,2,,,62,127
25983,note_on,1,0,0,,2,,,50,127
25983,note_on,0,0,0,,6,,,78,127
26026,note_on,43,0,0,,7,,,79,127
26047,note_off,21,0,0,,6,,,78,127
26068,note_on,21,0,0,,6,,,78,127
26089,note_off,21,0,0,,7,,,79,127
26237,note_off,148,0,0,,2,,,50,127
26238,note_on,1,0,0,,7,,,43,127
26365,note_off,127,0,0,,6,,,78,127
26366,note_on,1,0,0,,2,,,62,127
26493,note_off,127,0,0,,2,,,62,127
26493,note_off,0,0,0,,7,,,43,127
26494,note_on,1,0,0,,7,,,55,127
26494,note_on,0,0,0,,3,,,63,127
26621,note_off,127,0,0,,3,,,63,127
26622,note_on,1,0,0,,0,,,60,127
26749,note_off,127,0,0,,0,,,60,127
26749,note_off,0,0,0,,7,,,55,127
26750,note_on,1,0,0,,6,,,54,127
26750,note_on,0,0,0,,10,,,57,127
26750,note_on,0,0,0,,2,,,62,127
26877,note_off,127,0,0,,2,,,62,127
26878,note_on,1,0,0,,7,,,67,127
27005,note_off,127,0,0,,7,,,67,127
27005,note_off,0,0,0,,6,,,54,127
27006,note_on,1,0,0,,2,,,50,127
27006,note_on,0,0,0,,7,,,67,127
27038,note_on,32,0,0,,6,,,66,127
27049,note_off,11,0,0,,7,,,67,127
27070,note_on,21,0,0,,7,,,67,127
27081,note_off,11,0,0,,6,,,66,127
27102,note_on,21,0,0,,6,,,66,127
27113,note_off,11,0,0,,7,,,67,127
27261,note_off,148,0,0,,2,,,50,127
27261,note_off,0,0,0,,10,,,57,127
27262,note_on,1,0,0,,3,,,51,127
27262,note_on,0,0,0,,7,,,55,127
27389,note_off,127,0,0,,6,,,66,127
27390,note_on,1,0,0,,2,,,62,127
27517,note_off,127,0,0,,2,,,62,127
27517,note_off,0,0,0,,3,,,51,127
27518,note_on,1,0,0,,0,,,48,127
27518,note_on,0,0,0,,3,,,63,127
27645,note_off,127,0,0,,3,,,63,127
27646,note_on,1,0,0,,0,,,60,127
27773,note_off,127,0,0,,0,,,60,127
27773,note_off,0,0,0,,0,,,48,127
27773,note_off,0,0,0,,7,,,55,127
27774,note_on,1,0,0,,10,,,57,127
27774,note_on,0,0,0,,6,,,54,127
27774,note_on,0,0,0,,2,,,62,127
27901,note_off,127,0,0,,2,,,62,127
27902,note_on,1,0,0,,11,,,70,127
28029,note_off,127,0,0,,11,,,70,127
28029,note_off,0,0,0,,6,,,54,127
28030,note_on,1,0,0,,2,,,50,127
28030,note_on,0,0,0,,11,,,70,127
28062,note_on,32,0,0,,10,,,69,127
28073,note_off,11,0,0,,11,,,70,127
28094,note_on,21,0,0,,11,,,70,127
28105,note_off,11,0,0,,10,,,69,127
28126,note_on,21,0,0,,10,,,69,127
28137,note_off,11,0,0,,11,,,70,127
28285,note_off,148,0,0,,2,,,50,127
28285,note_off,0,0,0,,10,,,57,127
28286,note_on,1,0,0,,3,,,51,127
28286,note_on,0,0,0,,7,,,55,127
28413,note_off,127,0,0,,10,,,69,127
28414,note_on,1,0,0,,2,,,62,127
28541,note_off,127,0,0,,2,,,62,127
28541,note_off,0,0,0,,3,,,51,127
28542,note_on,1,0,0,,0,,,48,127
28542,note_on,0,0,0,,3,,,63,127
28669,note_off,127,0,0,,3,,,63,127
28670,note_on,1,0,0,,0,,,60,127
28797,note_off,127,0,0,,0,,,60,127
28797,note_off,0,0,0,,0,,,48,127
28797,note_off,0,0,0,,7,,,55,127
28798,note_on,1,0,0,,10,,,57,127
28798,note_on,0,0,0,,6,,,54,127
28798,note_on,0,0,0,,2,,,62,127
28925,note_off,127,0,0,,2,,,62,127
28926,note_on,1,0,0,,2,,,74,127
29053,note_off,127,0,0,,2,,,74,127
29053,note_off,0,0,0,,6,,,54,127
29054,note_on,1,0,0,,2,,,50,127
29054,note_on,0,0,0,,2,,,74,127
29086,note_on,32,0,0,,0,,,72,127
29097,note_off,11,0,0,,2,,,74,127
29118,note_on,21,0,0,,2,,,74,127
29129,note_off,11,0,0,,0,,,72,127
29150,note_on,21,0,0,,0,,,72,127
29161,note_off,11,0,0,,2,,,74,127
29309,note_off,148,0,0,,2,,,50,127
29309,note_off,0,0,0,,10,,,57,127
29310,note_on,1,0,0,,3,,,51,127
29310,note_on,0,0,0,,7,,,55,127
29437,note_off,127,0,0,,0,,,72,127
29438,note_on,1,0,0,,11,,,70,127
29565,note_off,127,0,0,,11,,,70,127
29565,note_off,0,0,0,,3,,,51,127
29566,note_on,1,0,0,,0,,,48,127
29566,note_on,0,0,0,,10,,,69,127
29693,note_off,127,0,0,,10,,,69,127
29694,note_on,1,0,0,,7,,,67,127
29821,note_off,127,0,0,,7,,,67,127
29821,note_off,0,0,0,,0,,,48,127
29821,note_off,0,0,0,,7,,,55,127
29822,note_on,1,0,0,,7,,,55,127
29822,note_on,0,0,0,,11,,,58,127
29822,note_on,0,0,0,,2,,,50,127
29822,note_on,0,0,0,,7,,,67,127
30077,note_off,255,0,0,,7,,,67,127
30077,note_off,0,0,0,,2,,,50,127
30077,note_off,0,0,0,,11,,,58,127
30077,note_off,0,0,0,,7,,,55,127
30078,note_on,1,0,0,,2,,,50,127
30078,note_on,0,0,0,,10,,,57,127
30078,note_on,0,0,0,,0,,,60,127
30078,note_on,0,0,0,,7,,,67,127
30121,note_on,43,0,0,,6,,,66,127
30142,note_off,21,0,0,,7,,,67,127
30163,note_on,21,0,0,,7,,,67,127
30184,note_off,21,0,0,,6,,,66,127
30205,note_on,21,0,0,,6,,,66,127
30226,note_off,21,0,0,,7,,,67,127
30247,note_on,21,0,0,,7,,,67,127
30268,note_off,21,0,0,,6,,,66,127
30289,note_on,21,0,0,,6,,,66,127
30310,note_off,21,0,0,,7,,,67,127
30330,note_off,20,0,0,,0,,,60,127
30330,note_off,0,0,0,,10,,,57,127
30330,note_off,0,0,0,,2,,,50,127
30331,note_on,1,0,0,,7,,,55,127
30331,note_on,0,0,0,,10,,,69,127
30352,note_off,21,0,0,,6,,,66,127
30373,note_on,21,0,0,,7,,,67,127
30394,note_off,21,0,0,,10,,,69,127
30415,note_on,21,0,0,,10,,,69,127
30436,note_off,21,0,0,,7,,,67,127
30457,note_on,21,0,0,,7,,,67,127
30478,note_off,21,0,0,,10,,,69,127
30499,note_on,21,0,0,,10,,,69,127
30520,note_off,21,0,0,,7,,,67,127
30541,note_on,21,0,0,,7,,,67,127
30562,note_off,21,0,0,,10,,,69,127
30582,note_off,20,0,0,,7,,,55,127
30583,note_on,1,0,0,,6,,,66,127
30583,note_on,0,0,0,,11,,,70,127
30604,note_off,21,0,0,,7,,,67,127
30625,note_on,21,0,0,,10,,,69,127
30646,note_off,21,0,0,,11,,,70,127
30667,note_on,21,0,0,,11,,,70,127
30688,note_off,21,0,0,,10,,,69,127
30709,note_on,21,0,0,,10,,,69,127
30730,note_off,21,0,0,,11,,,70,127
30751,note_on,21,0,0,,11,,,70,127
30772,note_off,21,0,0,,10,,,69,127
30793,note_on,21,0,0,,10,,,69,127
30814,note_off,21,0,0,,11,,,70,127
30834,note_off,20,0,0,,6,,,66,127
30835,note_on,1,0,0,,7,,,67,127
30835,note_on,0,0,0,,0,,,72,127
30856,note_off,21,0,0,,10,,,69,127
30877,note_on,21,0,0,,11,,,70,127
30898,note_off,21,0,0,,0,,,72,127
30919,note_on,21,0,0,,0,,,72,127
30940,note_off,21,0,0,,11,,,70,127
30961,note_on,21,0,0,,11,,,70,127
30982,note_off,21,0,0,,0,,,72,127
31003,note_on,21,0,0,,0,,,72,127
31024,note_off,21,0,0,,11,,,70,127
31045,note_on,21,0,0,,11,,,70,127
31066,note_off,21,0,0,,0,,,72,127
31086,note_off,20,0,0,,7,,,67,127
31087,note_on,1,0,0,,5,,,65,127
31087,note_on,0,0,0,,0,,,72,127
31108,note_off,21,0,0,,11,,,70,127
31129,note_on,21,0,0,,12,,,71,127
31150,note_off,21,0,0,,0,,,72,127
31171,note_on,21,0,0,,0,,,72,127
31192,note_off,21,0,0,,12,,,71,127
31213,note_on,21,0,0,,12,,,71,127
31234,note_off,21,0,0,,0,,,72,127
31255,note_on,21,0,0,,0,,,72,127
31276,note_off,21,0,0,,12,,,71,127
31297,note_on,21,0,0,,12,,,71,127
31318,note_off,21,0,0,,0,,,72,127
31338,note_off,20,0,0,,5,,,65,127
31339,note_on,1,0,0,,7,,,67,127
31339,note_on,0,0,0,,3,,,63,127
31339,note_on,0,0,0,,2,,,74,127
31360,note_off,21,0,0,,12,,,71,127
31381,note_on,21,0,0,,0,,,72,127
31402,note_off,21,0,0,,2,,,74,127
31423,note_on,21,0,0,,2,,,74,127
31444,note_off,21,0,0,,0,,,72,127
31465,note_on,21,0,0,,0,,,72,127
31486,note_off,21,0,0,,2,,,74,127
31507,note_on,21,0,0,,2,,,74,127
31528,note_off,21,0,0,,0,,,72,127
31549,note_on,21,0,0,,0,,,72,127
31570,note_off,21,0,0,,2,,,74,127
31590,note_off,20,0,0,,3,,,63,127
31590,note_off,0,0,0,,7,,,67,127
31591,note_on,1,0,0,,5,,,65,127
31591,note_on,0,0,0,,2,,,62,127
31591,note_on,0,0,0,,3,,,75,127
31612,note_off,21,0,0,,0,,,72,127
31633,note_on,21,0,0,,2,,,74,127
31654,note_off,21,0,0,,3,,,75,127
31675,note_on,21,0,0,,3,,,75,127
31696,note_off,21,0,0,,2,,,74,127
31717,note_on,21,0,0,,2,,,74,127
31738,note_off,21,0,0,,3,,,75,127
31759,note_on,21,0,0,,3,,,75,127
31780,note_off,21,0,0,,2,,,74,127
31801,note_on,21,0,0,,2,,,74,127
31822,note_off,21,0,0,,3,,,75,127
31842,note_off,20,0,0,,2,,,62,127
31842,note_off,0,0,0,,5,,,65,127
31843,note_on,1,0,0,,0,,,60,127
31843,note_on,0,0,0,,7,,,67,127
31843,note_on,0,0,0,,5,,,77,127
31864,note_off,21,0,0,,2,,,74,127
31885,note_on,21,0,0,,3,,,75,127
31906,note_off,21,0,0,,5,,,77,127
31927,note_on,21,0,0,,5,,,77,127
31948,note_off,21,0,0,,3,,,75,127
31969,note_on,21,0,0,,3,,,75,127
31990,note_off,21,0,0,,5,,,77,127
32011,note_on,21,0,0,,5,,,77,127
32032,note_off,21,0,0,,3,,,75,127
32053,note_on,21,0,0,,3,,,75,127
32074,note_off,21,0,0,,5,,,77,127
32094,note_off,20,0,0,,0,,,60,127
32095,note_on,1,0,0,,2,,,62,127
32095,note_on,0,0,0,,11,,,58,127
32095,note_on,0,0,0,,5,,,77,127
32116,note_off,21,0,0,,3,,,75,127
32137,note_on,21,0,0,,4,,,76,127
32158,note_off,21,0,0,,5,,,77,127
32179,note_on,21,0,0,,5,,,77,127
32200,note_off,21,0,0,,4,,,76,127
32221,note_on,21,0,0,,4,,,76,127
32242,note_off,21,0,0,,5,,,77,127
32263,note_on,21,0,0,,5,,,77,127
32284,note_off,21,0,0,,4,,,76,127
32305,note_on,21,0,0,,4,,,76,127
32326,note_off,21,0,0,,5,,,77,127
32346,note_off,20,0,0,,11,,,58,127
32346,note_off,0,0,0,,2,,,62,127
32347,note_on,1,0,0,,10,,,57,127
32347,note_on,0,0,0,,0,,,60,127
32347,note_on,0,0,0,,7,,,79,127
32368,note_off,21,0,0,,4,,,76,127
32389,note_on,21,0,0,,6,,,78,127
32410,note_off,21,0,0,,7,,,79,127
32431,note_on,21,0,0,,7,,,79,127
32452,note_off,21,0,0,,6,,,78,127
32473,note_on,21,0,0,,6,,,78,127
32494,note_off,21,0,0,,7,,,79,127
32515,note_on,21,0,0,,7,,,79,127
32536,note_off,21,0,0,,6,,,78,127
32557,note_on,21,0,0,,6,,,78,127
32578,note_off,21,0,0,,7,,,79,127
32598,note_off,20,0,0,,0,,,60,127
32598,note_off,0,0,0,,10,,,57,127
32599,note_on,1,0,0,,7,,,55,127
32599,note_on,0,0,0,,2,,,62,127
32599,note_on,0,0,0,,7,,,79,127
32620,note_off,21,0,0,,6,,,78,127
32725,note_off,105,0,0,,7,,,79,127
32726,note_on,1,0,0,,10,,,81,127
32853,note_off,127,0,0,,10,,,81,127
32853,note_off,0,0,0,,2,,,62,127
32853,note_off,0,0,0,,7,,,55,127
32853,note_off,0,0,0,,7,,,67,127
32854,note_on,1,0,0,,2,,,62,127
32854,note_on,0,0,0,,11,,,82,127
32981,note_off,127,0,0,,11,,,82,127
32982,note_on,1,0,0,,7,,,79,127
33109,note_off,127,0,0,,7,,,79,127
33110,note_on,1,0,0,,2,,,50,127
33110,note_on,0,0,0,,10,,,81,127
33237,note_off,127,0,0,,10,,,81,127
33238,note_on,1,0,0,,6,,,78,127
33365,note_off,127,0,0,,6,,,78,127
33365,note_off,0,0,0,,2,,,50,127
33365,note_off,0,0,0,,2,,,62,127
33366,note_on,1,0,0,,7,,,55,127
33366,note_on,0,0,0,,7,,,67,127
33621,note_off,255,0,0,,7,,,67,127
33621,note_off,0,0,0,,7,,,55,127
33622,note_on,1,0,0,,6,,,66,127
33622,note_on,0,0,0,,11,,,70,127
33665,note_on,43,0,0,,10,,,69,127
33686,note_off,21,0,0,,11,,,70,127
33707,note_on,21,0,0,,11,,,70,127
33728,note_off,21,0,0,,10,,,69,127
33749,note_on,21,0,0,,10,,,69,127
33770,note_off,21,0,0,,11,,,70,127
33791,note_on,21,0,0,,11,,,70,127
33812,note_off,21,0,0,,10,,,69,127
33833,note_on,21,0,0,,10,,,69,127
33854,note_off,21,0,0,,11,,,70,127
33874,note_off,20,0,0,,6,,,66,127
33875,note_on,1,0,0,,7,,,67,127
33875,note_on,0,0,0,,0,,,72,127
33896,note_off,21,0,0,,10,,,69,127
33917,note_on,21,0,0,,11,,,70,127
33938,note_off,21,0,0,,0,,,72,127
33959,note_on,21,0,0,,0,,,72,127
33980,note_off,21,0,0,,11,,,70,127
34001,note_on,21,0,0,,11,,,70,127
34022,note_off,21,0,0,,0,,,72,127
34043,note_on,21,0,0,,0,,,72,127
34064,note_off,21,0,0,,11,,,70,127
34085,note_on,21,0,0,,11,,,70,127
34106,note_off,21,0,0,,0,,,72,127
34126,note_off,20,0,0,,7,,,67,127
34127,note_on,1,0,0,,5,,,65,127
34127,note_on,0,0,0,,0,,,72,127
34148,note_off,21,0,0,,11,,,70,127
34169,note_on,21,0,0,,12,,,71,127
34190,note_off,21,0,0,,0,,,72,127
34211,note_on,21,0,0,,0,,,72,127
34232,note_off,21,0,0,,12,,,71,127
34253,note_on,21,0,0,,12,,,71,127
34274,note_off,21,0,0,,0,,,72,127
34295,note_on,21,0,0,,0,,,72,127
34316,note_off,21,0,0,,12,,,71,127
34337,note_on,21,0,0,,12,,,71,127
34358,note_off,21,0,0,,0,,,72,127
34378,note_off,20,0,0,,5,,,65,127
34379,note_on,1,0,0,,7,,,67,127
34379,note_on,0,0,0,,3,,,63,127
34379,note_on,0,0,0,,2,,,74,127
34400,note_off,21,0,0,,12,,,71,127
34421,note_on,21,0,0,,0,,,72,127
34442,note_off,21,0,0,,2,,,74,127
34463,note_on,21,0,0,,2,,,74,127
34484,note_off,21,0,0,,0,,,72,127
34505,note_on,21,0,0,,0,,,72,127
34526,note_off,21,0,0,,2,,,74,127
34547,note_on,21,0,0,,2,,,74,127
34568,note_off,21,0,0,,0,,,72,127
34589,note_on,21,0,0,,0,,,72,127
34610,note_off,21,0,0,,2,,,74,127
34630,note_off,20,0,0,,3,,,63,127
34630,note_off,0,0,0,,7,,,67,127
34631,note_on,1,0,0,,2,,,62,127
34631,note_on,0,0,0,,5,,,65,127
34631,note_on,0,0,0,,3,,,75,127
34652,note_off,21,0,0,,0,,,72,127
34673,note_on,21,0,0,,2,,,74,127
34694,note_off,21,0,0,,3,,,75,127
34715,note_on,21,0,0,,3,,,75,127
34736,note_off,21,0,0,,2,,,74,127
34757,note_on,21,0,0,,2,,,74,127
34778,note_off,21,0,0,,3,,,75,127
34799,note_on,21,0,0,,3,,,75,127
34820,note_off,21,0,0,,2,,,74,127
34841,note_on,21,0,0,,2,,,74,127
34862,note_off,21,0,0,,3,,,75,127
34882,note_off,20,0,0,,5,,,65,127
34882,note_off,0,0,0,,2,,,62,127
34883,note_on,1,0,0,,7,,,67,127
34883,note_on,0,0,0,,0,,,60,127
34883,note_on,0,0,0,,5,,,77,127
34904,note_off,21,0,0,,2,,,74,127
34925,note_on,21,0,0,,3,,,75,127
34946,note_off,21,0,0,,5,,,77,127
34967,note_on,21,0,0,,5,,,77,127
34988,note_off,21,0,0,,3,,,75,127
35009,note_on,21,0,0,,3,,,75,127
35030,note_off,21,0,0,,5,,,77,127
35051,note_on,21,0,0,,5,,,77,127
35072,note_off,21,0,0,,3,,,75,127
35093,note_on,21,0,0,,3,,,75,127
35114,note_off,21,0,0,,5,,,77,127
35134,note_off,20,0,0,,0,,,60,127
35135,note_on,1,0,0,,2,,,62,127
35135,note_on,0,0,0,,11,,,58,127
35135,note_on,0,0,0,,5,,,77,127
35156,note_off,21,0,0,,3,,,75,127
35177,note_on,21,0,0,,4,,,76,127
35198,note_off,21,0,0,,5,,,77,127
35219,note_on,21,0,0,,5,,,77,127
35240,note_off,21,0,0,,4,,,76,127
35261,note_on,21,0,0,,4,,,76,127
35282,note_off,21,0,0,,5,,,77,127
35303,note_on,21,0,0,,5,,,77,127
35324,note_off,21,0,0,,4,,,76,127
35345,note_on,21,0,0,,4,,,76,127
35366,note_off,21,0,0,,5,,,77,127
35386,note_off,20,0,0,,11,,,58,127
35386,note_off,0,0,0,,2,,,62,127
35387,note_on,1,0,0,,10,,,57,127
35387,note_on,0,0,0,,0,,,60,127
35387,note_on,0,0,0,,7,,,79,127
35408,note_off,21,0,0,,4,,,76,127
35429,note_on,21,0,0,,6,,,78,127
35450,note_off,21,0,0,,7,,,79,127
35471,note_on,21,0,0,,7,,,79,127
35492,note_off,21,0,0,,6,,,78,127
35513,note_on,21,0,0,,6,,,78,127
35534,note_off,21,0,0,,7,,,79,127
35555,note_on,21,0,0,,7,,,79,127
35576,note_off,21,0,0,,6,,,78,127
35597,note_on,21,0,0,,6,,,78,127
35618,note_off,21,0,0,,7,,,79,127
35638,note_off,20,0,0,,0,,,60,127
35638,note_off,0,0,0,,10,,,57,127
35639,note_on,1,0,0,,2,,,62,127
35639,note_on,0,0,0,,7,,,55,127
35639,note_on,0,0,0,,7,,,79,127
35660,note_off,21,0,0,,6,,,78,127
35765,note_off,105,0,0,,7,,,79,127
35766,note_on,1,0,0,,10,,,81,127
35893,note_off,127,0,0,,10,,,81,127
35893,note_off,0,0,0,,7,,,55,127
35893,note_off,0,0,0,,2,,,62,127
35893,note_off,0,0,0,,7,,,67,127
35894,note_on,1,0,0,,2,,,62,127
35894,note_on,0,0,0,,11,,,82,127
36021,note_off,127,0,0,,11,,,82,127
36022,note_on,1,0,0,,7,,,79,127
36149,note_off,127,0,0,,7,,,79,127
36150,note_on,1,0,0,,2,,,50,127
36150,note_on,0,0,0,,10,,,81,127
36277,note_off,127,0,0,,10,,,81,127
36278,note_on,1,0,0,,6,,,78,127
36405,note_off,127,0,0,,6,,,78,127
36405,note_off,0,0,0,,2,,,50,127
36405,note_off,0,0,0,,2,,,62,127
36406,note_on,1,0,0,,7,,,55,127
36406,note_on,0,0,0,,7,,,79,127
36533,note_off,127,0,0,,7,,,79,127
36534,note_on,1,0,0,,3,,,75,127
36661,note_off,127,0,0,,3,,,75,127
36661,note_off,0,0,0,,7,,,55,127
36662,note_on,1,0,0,,7,,,55,127
36662,note_on,0,0,0,,6,,,78,127
36789,note_off,127,0,0,,6,,,78,127
36790,note_on,1,0,0,,2,,,74,127
36917,note_off,127,0,0,,2,,,74,127
36917,note_off,0,0,0,,7,,,55,127
36918,note_on,1,0,0,,0,,,60,127
36918,note_on,0,0,0,,3,,,63,127
36918,note_on,0,0,0,,3,,,75,127
36918,note_on,0,0,0,,7,,,79,127
37045,note_off,127,0,0,,3,,,75,127
37046,note_on,1,0,0,,0,,,72,127
37173,note_off,127,0,0,,0,,,72,127
37173,note_off,0,0,0,,7,,,79,127
37173,note_off,0,0,0,,3,,,63,127
37173,note_off,0,0,0,,0,,,60,127
37174,note_on,1,0,0,,2,,,62,127
37174,note_on,0,0,0,,11,,,58,127
37174,note_on,0,0,0,,2,,,74,127
37301,note_off,127,0,0,,2,,,74,127
37302,note_on,1,0,0,,11,,,70,127
37429,note_off,127,0,0,,11,,,70,127
37429,note_off,0,0,0,,11,,,58,127
37429,note_off,0,0,0,,2,,,62,127
37430,note_on,1,0,0,,10,,,57,127
37430,note_on,0,0,0,,0,,,60,127
37430,note_on,0,0,0,,2,,,74,127
37557,note_off,127,0,0,,2,,,74,127
37558,note_on,1,0,0,,0,,,72,127
37685,note_off,127,0,0,,0,,,72,127
37685,note_off,0,0,0,,0,,,60,127
37685,note_off,0,0,0,,10,,,57,127
37686,note_on,1,0,0,,7,,,55,127
37686,note_on,0,0,0,,11,,,70,127
37813,note_off,127,0,0,,11,,,70,127
37814,note_on,1,0,0,,10,,,69,127
37941,note_off,127,0,0,,10,,,69,127
37941,note_off,0,0,0,,7,,,55,127
37942,note_on,1,0,0,,2,,,62,127
37942,note_on,0,0,0,,2,,,74,127
37942,note_on,0,0,0,,11,,,70,127
38069,note_off,127,0,0,,11,,,70,127
38070,note_on,1,0,0,,7,,,67,127
38197,note_off,127,0,0,,7,,,67,127
38197,note_off,0,0,0,,2,,,74,127
38197,note_off,0,0,0,,2,,,62,127
38198,note_on,1,0,0,,2,,,50,127
38198,note_on,0,0,0,,0,,,72,127
38198,note_on,0,0,0,,10,,,69,127
38325,note_off,127,0,0,,10,,,69,127
38326,note_on,1,0,0,,6,,,66,127
38453,note_off,127,0,0,,6,,,66,127
38453,note_off,0,0,0,,0,,,72,127
38453,note_off,0,0,0,,2,,,50,127
38454,note_on,1,0,0,,7,,,43,127
38454,note_on,0,0,0,,7,,,67,127
38454,note_on,0,0,0,,11,,,70,127
38581,note_off,127,0,0,,7,,,67,127
38582,note_on,1,0,0,,3,,,63,127
38709,note_off,127,0,0,,3,,,63,127
38709,note_off,0,0,0,,11,,,70,127
38709,note_off,0,0,0,,7,,,43,127
38710,note_on,1,0,0,,7,,,55,127
38710,note_on,0,0,0,,6,,,66,127
38837,note_off,127,0,0,,6,,,66,127
38838,note_on,1,0,0,,2,,,62,127
38965,note_off,127,0,0,,2,,,62,127
38965,note_off,0,0,0,,7,,,55,127
38966,note_on,1,0,0,,0,,,48,127
38966,note_on,0,0,0,,7,,,67,127
38966,note_on,0,0,0,,3,,,63,127
39093,note_off,127,0,0,,3,,,63,127
39094,note_on,1,0,0,,0,,,60,127
39221,note_off,127,0,0,,0,,,60,127
39221,note_off,0,0,0,,7,,,67,127
39221,note_off,0,0,0,,0,,,48,127
39222,note_on,1,0,0,,11,,,46,127
39222,note_on,0,0,0,,2,,,62,127
39349,note_off,127,0,0,,2,,,62,127
39350,note_on,1,0,0,,11,,,58,127
39477,note_off,127,0,0,,11,,,58,127
39477,note_off,0,0,0,,11,,,46,127
39478,note_on,1,0,0,,10,,,45,127
39478,note_on,0,0,0,,2,,,62,127
39478,note_on,0,0,0,,6,,,66,127
39605,note_off,127,0,0,,2,,,62,127
39606,note_on,1,0,0,,0,,,60,127
39733,note_off,127,0,0,,0,,,60,127
39733,note_off,0,0,0,,6,,,66,127
39733,note_off,0,0,0,,10,,,45,127
39734,note_on,1,0,0,,7,,,43,127
39734,note_on,0,0,0,,7,,,67,127
39734,note_on,0,0,0,,11,,,58,127
39861,note_off,127,0,0,,11,,,58,127
39862,note_on,1,0,0,,10,,,57,127
39989,note_off,127,0,0,,10,,,57,127
39989,note_off,0,0,0,,7,,,67,127
39989,note_off,0,0,0,,7,,,43,127
39990,note_on,1,0,0,,2,,,50,127
39990,note_on,0,0,0,,11,,,58,127
40117,note_off,127,0,0,,11,,,58,127
40118,note_on,1,0,0,,7,,,55,127
40245,note_off,127,0,0,,7,,,55,127
40246,note_on,1,0,0,,2,,,38,127
40246,note_on,0,0,0,,10,,,57,127
40373,note_off,127,0,0,,10,,,57,127
40374,note_on,1,0,0,,6,,,54,127
40501,note_off,127,0,0,,6,,,54,127
40501,note_off,0,0,0,,2,,,38,127
40501,note_off,0,0,0,,2,,,50,127
40502,note_on,1,0,0,,7,,,43,127
40502,note_on,0,0,0,,7,,,55,127
40969,note_off,467,0,0,,7,,,55,127
41013,note_off,44,0,0,,7,,,43,127
41014,note_on,1,0,0,,7,,,55,127
41141,note_off,127,0,0,,7,,,55,127
41142,note_on,1,0,0,,10,,,57,127
41269,note_off,127,0,0,,10,,,57,127
41270,note_on,1,0,0,,12,,,59,127
41397,note_off,127,0,0,,12,,,59,127
41398,note_on,1,0,0,,0,,,60,127
41525,note_off,127,0,0,,0,,,60,127
41526,note_on,1,0,0,,2,,,62,127
41653,note_off,127,0,0,,2,,,62,127
41654,note_on,1,0,0,,7,,,55,127
41781,note_off,127,0,0,,7,,,55,127
41782,note_on,1,0,0,,2,,,62,127
41909,note_off,127,0,0,,2,,,62,127
41910,note_on,1,0,0,,5,,,65,127
42037,note_off,127,0,0,,5,,,65,127
42038,note_on,1,0,0,,3,,,63,127
42038,note_on,0,0,0,,7,,,67,127
42165,note_off,127,0,0,,7,,,67,127
42166,note_on,1,0,0,,10,,,69,127
42293,note_off,127,0,0,,10,,,69,127
42294,note_on,1,0,0,,12,,,71,127
42421,note_off,127,0,0,,12,,,71,127
42422,note_on,1,0,0,,0,,,72,127
42549,note_off,127,0,0,,0,,,72,127
42549,note_off,0,0,0,,3,,,63,127
42550,note_on,1,0,0,,3,,,63,127
42550,note_on,0,0,0,,2,,,74,127
42614,note_on,64,0,0,,2,,,62,127
42635,note_off,21,0,0,,3,,,63,127
42676,note_off,41,0,0,,2,,,74,127
42677,note_on,1,0,0,,3,,,63,127
42677,note_on,0,0,0,,7,,,67,127
42698,note_off,21,0,0,,2,,,62,127
42741,note_on,43,0,0,,2,,,62,127
42762,note_off,21,0,0,,3,,,63,127
42803,note_off,41,0,0,,7,,,67,127
42804,note_on,1,0,0,,3,,,63,127
42804,note_on,0,0,0,,2,,,74,127
42825,note_off,21,0,0,,2,,,62,127
42868,note_on,43,0,0,,2,,,62,127
42889,note_off,21,0,0,,3,,,63,127
42930,note_off,41,0,0,,2,,,74,127
42931,note_on,1,0,0,,3,,,63,127
42931,note_on,0,0,0,,5,,,77,127
42952,note_off,21,0,0,,2,,,62,127
42995,note_on,43,0,0,,2,,,62,127
43016,note_off,21,0,0,,3,,,63,127
43057,note_off,41,0,0,,5,,,77,127
43058,note_on,1,0,0,,0,,,60,127
43058,note_on,0,0,0,,3,,,75,127
43079,note_off,21,0,0,,2,,,62,127
43184,note_off,105,0,0,,0,,,60,127
43185,note_on,1,0,0,,2,,,62,127
43312,note_off,127,0,0,,2,,,62,127
43313,note_on,1,0,0,,3,,,63,127
43440,note_off,127,0,0,,3,,,63,127
43441,note_on,1,0,0,,5,,,65,127
43568,note_off,127,0,0,,5,,,65,127
43568,note_off,0,0,0,,3,,,75,127
43569,note_on,1,0,0,,7,,,67,127
43569,note_on,0,0,0,,3,,,75,127
43633,note_on,64,0,0,,2,,,74,127
43654,note_off,21,0,0,,3,,,75,127
43695,note_off,41,0,0,,7,,,67,127
43696,note_on,1,0,0,,0,,,60,127
43696,note_on,0,0,0,,3,,,75,127
43717,note_off,21,0,0,,2,,,74,127
43760,note_on,43,0,0,,2,,,74,127
43781,note_off,21,0,0,,3,,,75,127
43822,note_off,41,0,0,,0,,,60,127
43823,note_on,1,0,0,,7,,,67,127
43823,note_on,0,0,0,,3,,,75,127
43844,note_off,21,0,0,,2,,,74,127
43887,note_on,43,0,0,,2,,,74,127
43908,note_off,21,0,0,,3,,,75,127
43949,note_off,41,0,0,,7,,,67,127
43950,note_on,1,0,0,,11,,,70,127
43950,note_on,0,0,0,,3,,,75,127
43971,note_off,21,0,0,,2,,,74,127
44014,note_on,43,0,0,,2,,,74,127
44035,note_off,21,0,0,,3,,,75,127
44076,note_off,41,0,0,,11,,,70,127
44077,note_on,1,0,0,,8,,,68,127
44077,note_on,0,0,0,,0,,,72,127
44098,note_off,21,0,0,,2,,,74,127
44203,note_off,105,0,0,,0,,,72,127
44204,note_on,1,0,0,,2,,,74,127
44331,note_off,127,0,0,,2,,,74,127
44332,note_on,1,0,0,,3,,,75,127
44459,note_off,127,0,0,,3,,,75,127
44460,note_on,1,0,0,,5,,,77,127
44587,note_off,127,0,0,,5,,,77,127
44587,note_off,0,0,0,,8,,,68,127
44588,note_on,1,0,0,,7,,,67,127
44588,note_on,0,0,0,,7,,,79,127
44715,note_off,127,0,0,,7,,,79,127
44716,note_on,1,0,0,,0,,,72,127
44843,note_off,127,0,0,,0,,,72,127
44844,note_on,1,0,0,,7,,,79,127
44971,note_off,127,0,0,,7,,,79,127
44972,note_on,1,0,0,,11,,,82,127
45099,note_off,127,0,0,,11,,,82,127
45099,note_off,0,0,0,,7,,,67,127
45100,note_on,1,0,0,,5,,,65,127
45100,note_on,0,0,0,,8,,,80,127
45227,note_off,127,0,0,,8,,,80,127
45228,note_on,1,0,0,,7,,,79,127
45355,note_off,127,0,0,,7,,,79,127
45356,note_on,1,0,0,,5,,,77,127
45483,note_off,127,0,0,,5,,,77,127
45484,note_on,1,0,0,,3,,,75,127
45611,note_off,127,0,0,,3,,,75,127
45611,note_off,0,0,0,,5,,,65,127
45612,note_on,1,0,0,,11,,,58,127
45612,note_on,0,0,0,,2,,,74,127
45739,note_off,127,0,0,,2,,,74,127
45740,note_on,1,0,0,,0,,,72,127
45867,note_off,127,0,0,,0,,,72,127
45868,note_on,1,0,0,,11,,,70,127
45995,note_off,127,0,0,,11,,,70,127
45996,note_on,1,0,0,,8,,,68,127
46123,note_off,127,0,0,,8,,,68,127
46123,note_off,0,0,0,,11,,,58,127
46124,note_on,1,0,0,,3,,,51,127
46124,note_on,0,0,0,,7,,,67,127
46251,note_off,127,0,0,,3,,,51,127
46252,note_on,1,0,0,,5,,,53,127
46379,note_off,127,0,0,,5,,,53,127
46380,note_on,1,0,0,,7,,,55,127
46507,note_off,127,0,0,,7,,,55,127
46508,note_on,1,0,0,,8,,,56,127
46635,note_off,127,0,0,,8,,,56,127
46636,note_on,1,0,0,,11,,,58,127
46763,note_off,127,0,0,,11,,,58,127
46764,note_off,1,0,0,,7,,,67,127
46764,note_on,0,0,0,,0,,,60,127
46891,note_off,127,0,0,,0,,,60,127
46892,note_on,1,0,0,,2,,,62,127
46892,note_on,0,0,0,,3,,,75,127
47019,note_off,127,0,0,,2,,,62,127
47020,note_on,1,0,0,,3,,,63,127
47147,note_off,127,0,0,,3,,,63,127
47147,note_off,0,0,0,,3,,,75,127
47148,note_on,1,0,0,,5,,,65,127
47148,note_on,0,0,0,,8,,,68,127
47275,note_off,127,0,0,,5,,,65,127
47276,note_on,1,0,0,,3,,,63,127
47403,note_off,127,0,0,,3,,,63,127
47403,note_off,0,0,0,,8,,,68,127
47404,note_on,1,0,0,,2,,,62,127
47404,note_on,0,0,0,,2,,,74,127
47531,note_off,127,0,0,,2,,,62,127
47532,note_on,1,0,0,,0,,,60,127
47659,note_off,127,0,0,,0,,,60,127
47659,note_off,0,0,0,,2,,,74,127
47660,note_on,1,0,0,,11,,,58,127
47660,note_on,0,0,0,,5,,,77,127
47787,note_off,127,0,0,,11,,,58,127
47788,note_on,1,0,0,,8,,,56,127
47915,note_off,127,0,0,,8,,,56,127
47915,note_off,0,0,0,,5,,,77,127
47916,note_on,1,0,0,,7,,,55,127
47916,note_on,0,0,0,,8,,,68,127
48043,note_off,127,0,0,,7,,,55,127
48044,note_on,1,0,0,,5,,,53,127
48171,note_off,127,0,0,,5,,,53,127
48171,note_off,0,0,0,,8,,,68,127
48172,note_on,1,0,0,,3,,,51,127
48172,note_on,0,0,0,,7,,,67,127
48299,note_off,127,0,0,,3,,,51,127
48300,note_on,1,0,0,,5,,,53,127
48427,note_off,127,0,0,,5,,,53,127
48427,note_off,0,0,0,,7,,,67,127
48428,note_on,1,0,0,,7,,,55,127
48428,note_on,0,0,0,,11,,,70,127
48555,note_off,127,0,0,,7,,,55,127
48556,note_on,1,0,0,,8,,,56,127
48683,note_off,127,0,0,,8,,,56,127
48684,note_on,1,0,0,,11,,,58,127
48811,note_off,127,0,0,,11,,,58,127
48812,note_on,1,0,0,,0,,,60,127
48939,note_off,127,0,0,,0,,,60,127
48939,note_off,0,0,0,,11,,,70,127
48940,note_on,1,0,0,,2,,,62,127
48940,note_on,0,0,0,,3,,,75,127
49067,note_off,127,0,0,,2,,,62,127
49068,note_on,1,0,0,,3,,,63,127
49195,note_off,127,0,0,,3,,,63,127
49195,note_off,0,0,0,,3,,,75,127
49196,note_on,1,0,0,,5,,,65,127
49196,note_on,0,0,0,,8,,,68,127
49323,note_off,127,0,0,,5,,,65,127
49324,note_on,1,0,0,,3,,,63,127
49451,note_off,127,0,0,,3,,,63,127
49451,note_off,0,0,0,,8,,,68,127
49452,note_on,1,0,0,,2,,,62,127
49452,note_on,0,0,0,,2,,,74,127
49579,note_off,127,0,0,,2,,,62,127
49580,note_on,1,0,0,,0,,,60,127
49707,note_off,127,0,0,,0,,,60,127
49707,note_off,0,0,0,,2,,,74,127
49708,note_on,1,0,0,,11,,,58,127
49708,note_on,0,0,0,,5,,,77,127
49835,note_off,127,0,0,,11,,,58,127
49836,note_on,1,0,0,,8,,,56,127
49963,note_off,127,0,0,,8,,,56,127
49963,note_off,0,0,0,,5,,,77,127
49964,note_on,1,0,0,,7,,,55,127
49964,note_on,0,0,0,,8,,,68,127
50091,note_off,127,0,0,,7,,,55,127
50092,note_on,1,0,0,,5,,,53,127
50219,note_off,127,0,0,,5,,,53,127
50219,note_off,0,0,0,,8,,,68,127
50220,note_on,1,0,0,,3,,,51,127
50220,note_on,0,0,0,,7,,,67,127
50475,note_off,255,0,0,,7,,,67,127
50476,note_on,1,0,0,,7,,,67,127
50731,note_off,255,0,0,,7,,,67,127
50732,note_on,1,0,0,,6,,,78,127
50987,note_off,255,0,0,,6,,,78,127
50987,note_off,0,0,0,,3,,,51,127
50988,note_on,1,0,0,,7,,,79,127
51244,note_on,256,0,0,,3,,,63,127
51244,note_on,0,0,0,,7,,,67,127
51371,note_off,127,0,0,,7,,,79,127
51372,note_on,1,0,0,,5,,,77,127
51499,note_off,127,0,0,,5,,,77,127
51499,note_off,0,0,0,,7,,,67,127
51499,note_off,0,0,0,,3,,,63,127
51500,note_on,1,0,0,,3,,,63,127
51500,note_on,0,0,0,,7,,,67,127
51500,note_on,0,0,0,,3,,,75,127
51627,note_off,127,0,0,,3,,,75,127
51628,note_on,1,0,0,,2,,,74,127
51755,note_off,127,0,0,,2,,,74,127
51755,note_off,0,0,0,,7,,,67,127
51755,note_off,0,0,0,,3,,,63,127
51756,note_on,1,0,0,,7,,,67,127
51756,note_on,0,0,0,,3,,,63,127
51756,note_on,0,0,0,,2,,,74,127
51883,note_off,127,0,0,,2,,,74,127
51884,note_on,1,0,0,,0,,,72,127
52011,note_off,127,0,0,,0,,,72,127
52011,note_off,0,0,0,,3,,,63,127
52011,note_off,0,0,0,,7,,,67,127
52012,note_on,1,0,0,,3,,,63,127
52012,note_on,0,0,0,,7,,,67,127
52012,note_on,0,0,0,,12,,,71,127
52139,note_off,127,0,0,,12,,,71,127
52140,note_on,1,0,0,,0,,,72,127
52267,note_off,127,0,0,,0,,,72,127
52267,note_off,0,0,0,,7,,,67,127
52267,note_off,0,0,0,,3,,,63,127
52268,note_on,1,0,0,,2,,,62,127
52268,note_on,0,0,0,,5,,,65,127
52268,note_on,0,0,0,,11,,,70,127
52332,note_on,64,0,0,,8,,,68,127
52353,note_off,21,0,0,,11,,,70,127
52396,note_on,43,0,0,,11,,,70,127
52417,note_off,21,0,0,,8,,,68,127
52460,note_on,43,0,0,,8,,,68,127
52481,note_off,21,0,0,,11,,,70,127
52522,note_off,41,0,0,,5,,,65,127
52522,note_off,0,0,0,,2,,,62,127
52523,note_on,1,0,0,,2,,,62,127
52523,note_on,0,0,0,,5,,,65,127
52523,note_on,0,0,0,,11,,,70,127
52544,note_off,21,0,0,,8,,,68,127
52587,note_on,43,0,0,,8,,,68,127
52608,note_off,21,0,0,,11,,,70,127
52651,note_on,43,0,0,,7,,,67,127
52672,note_off,21,0,0,,8,,,68,127
52715,note_on,43,0,0,,8,,,68,127
52736,note_off,21,0,0,,7,,,67,127
52777,note_off,41,0,0,,5,,,65,127
52777,note_off,0,0,0,,2,,,62,127
52778,note_on,1,0,0,,2,,,62,127
52778,note_on,0,0,0,,5,,,65,127
52778,note_on,0,0,0,,5,,,77,127
52799,note_off,21,0,0,,8,,,68,127
53032,note_off,233,0,0,,5,,,65,127
53032,note_off,0,0,0,,2,,,62,127
53033,note_on,1,0,0,,2,,,62,127
53033,note_on,0,0,0,,5,,,65,127
53288,note_off,255,0,0,,5,,,65,127
53288,note_off,0,0,0,,2,,,62,127
53288,note_off,0,0,0,,5,,,77,127
53289,note_on,1,0,0,,0,,,60,127
53289,note_on,0,0,0,,5,,,65,127
53289,note_on,0,0,0,,11,,,70,127
53353,note_on,64,0,0,,8,,,68,127
53374,note_off,21,0,0,,11,,,70,127
53417,note_on,43,0,0,,11,,,70,127
53438,note_off,21,0,0,,8,,,68,127
53481,note_on,43,0,0,,8,,,68,127
53502,note_off,21,0,0,,11,,,70,127
53543,note_off,41,0,0,,5,,,65,127
53543,note_off,0,0,0,,0,,,60,127
53544,note_on,1,0,0,,5,,,65,127
53544,note_on,0,0,0,,0,,,60,127
53544,note_on,0,0,0,,11,,,70,127
53565,note_off,21,0,0,,8,,,68,127
53608,note_on,43,0,0,,8,,,68,127
53629,note_off,21,0,0,,11,,,70,127
53672,note_on,43,0,0,,7,,,67,127
53693,note_off,21,0,0,,8,,,68,127
53736,note_on,43,0,0,,8,,,68,127
53757,note_off,21,0,0,,7,,,67,127
53798,note_off,41,0,0,,0,,,60,127
53798,note_off,0,0,0,,5,,,65,127
53799,note_on,1,0,0,,0,,,60,127
53799,note_on,0,0,0,,5,,,65,127
53799,note_on,0,0,0,,5,,,77,127
53820,note_off,21,0,0,,8,,,68,127
54053,note_off,233,0,0,,5,,,65,127
54053,note_off,0,0,0,,0,,,60,127
54054,note_on,1,0,0,,0,,,60,127
54054,note_on,0,0,0,,5,,,65,127
54309,note_off,255,0,0,,5,,,65,127
54309,note_off,0,0,0,,0,,,60,127
54310,note_on,1,0,0,,5,,,65,127
54310,note_on,0,0,0,,12,,,59,127
54310,note_on,0,0,0,,7,,,67,127
54565,note_off,255,0,0,,12,,,59,127
54565,note_off,0,0,0,,5,,,65,127
54566,note_on,1,0,0,,12,,,59,127
54566,note_on,0,0,0,,5,,,65,127
54821,note_off,255,0,0,,5,,,65,127
54821,note_off,0,0,0,,12,,,59,127
54822,note_on,1,0,0,,11,,,58,127
54822,note_on,0,0,0,,4,,,64,127
55077,note_off,255,0,0,,5,,,77,127
55078,note_on,1,0,0,,4,,,76,127
55333,note_off,255,0,0,,7,,,67,127
55334,note_on,1,0,0,,7,,,79,127
55589,note_off,255,0,0,,4,,,76,127
55589,note_off,0,0,0,,4,,,64,127
55589,note_off,0,0,0,,11,,,58,127
55590,note_on,1,0,0,,11,,,58,127
55590,note_on,0,0,0,,5,,,65,127
55590,note_on,0,0,0,,2,,,74,127
55845,note_off,255,0,0,,2,,,74,127
55845,note_off,0,0,0,,5,,,65,127
55845,note_off,0,0,0,,11,,,58,127
55845,note_off,0,0,0,,7,,,79,127
55846,note_on,1,0,0,,7,,,67,127
55846,note_on,0,0,0,,11,,,58,127
55846,note_on,0,0,0,,1,,,73,127
55846,note_on,0,0,0,,7,,,79,127
56101,note_off,255,0,0,,1,,,73,127
56101,note_off,0,0,0,,11,,,58,127
56102,note_on,1,0,0,,11,,,58,127
56102,note_on,0,0,0,,2,,,74,127
56357,note_off,255,0,0,,2,,,74,127
56357,note_off,0,0,0,,11,,,58,127
56357,note_off,0,0,0,,7,,,79,127
56357,note_off,0,0,0,,7,,,67,127
56358,note_on,1,0,0,,7,,,67,127
56358,note_on,0,0,0,,4,,,64,127
56358,note_on,0,0,0,,10,,,57,127
56358,note_on,0,0,0,,1,,,73,127
56358,note_on,0,0,0,,7,,,79,127
56613,note_off,255,0,0,,10,,,57,127
56613,note_off,0,0,0,,4,,,64,127
56613,note_off,0,0,0,,7,,,67,127
56614,note_on,1,0,0,,7,,,67,127
56614,note_on,0,0,0,,4,,,64,127
56614,note_on,0,0,0,,10,,,57,127
56869,note_off,255,0,0,,10,,,57,127
56869,note_off,0,0,0,,4,,,64,127
56869,note_off,0,0,0,,7,,,67,127
56869,note_off,0,0,0,,7,,,79,127
56869,note_off,0,0,0,,1,,,73,127
56870,note_on,1,0,0,,4,,,64,127
56870,note_on,0,0,0,,7,,,67,127
56870,note_on,0,0,0,,11,,,58,127
56870,note_on,0,0,0,,7,,,79,127
56870,note_on,0,0,0,,4,,,76,127
56934,note_on,64,0,0,,2,,,74,127
56955,note_off,21,0,0,,4,,,76,127
56998,note_on,43,0,0,,4,,,76,127
57019,note_off,21,0,0,,2,,,74,127
57062,note_on,43,0,0,,2,,,74,127
57083,note_off,21,0,0,,4,,,76,127
57124,note_off,41,0,0,,11,,,58,127
57124,note_off,0,0,0,,7,,,67,127
57124,note_off,0,0,0,,4,,,64,127
57125,note_on,1,0,0,,7,,,67,127
57125,note_on,0,0,0,,4,,,64,127
57125,note_on,0,0,0,,11,,,58,127
57125,note_on,0,0,0,,4,,,76,127
57146,note_off,21,0,0,,2,,,74,127
57189,note_on,43,0,0,,2,,,74,127
57210,note_off,21,0,0,,4,,,76,127
57253,note_on,43,0,0,,1,,,73,127
57274,note_off,21,0,0,,2,,,74,127
57317,note_on,43,0,0,,2,,,74,127
57338,note_off,21,0,0,,1,,,73,127
57379,note_off,41,0,0,,2,,,74,127
57379,note_off,0,0,0,,11,,,58,127
57379,note_off,0,0,0,,4,,,64,127
57379,note_off,0,0,0,,7,,,67,127
57379,note_off,0,0,0,,7,,,79,127
57380,note_on,1,0,0,,4,,,64,127
57380,note_on,0,0,0,,7,,,67,127
57380,note_on,0,0,0,,10,,,57,127
57380,note_on,0,0,0,,7,,,79,127
57380,note_on,0,0,0,,1,,,73,127
57635,note_off,255,0,0,,10,,,57,127
57635,note_off,0,0,0,,7,,,67,127
57635,note_off,0,0,0,,4,,,64,127
57636,note_on,1,0,0,,7,,,67,127
57636,note_on,0,0,0,,4,,,64,127
57636,note_on,0,0,0,,10,,,57,127
57891,note_off,255,0,0,,10,,,57,127
57891,note_off,0,0,0,,4,,,64,127
57891,note_off,0,0,0,,7,,,67,127
57891,note_off,0,0,0,,1,,,73,127
57891,note_off,0,0,0,,7,,,79,127
57892,note_on,1,0,0,,7,,,67,127
57892,note_on,0,0,0,,11,,,58,127
57892,note_on,0,0,0,,4,,,64,127
57892,note_on,0,0,0,,4,,,76,127
57892,note_on,0,0,0,,7,,,79,127
57956,note_on,64,0,0,,2,,,74,127
57977,note_off,21,0,0,,4,,,76,127
58020,note_on,43,0,0,,4,,,76,127
58041,note_off,21,0,0,,2,,,74,127
58084,note_on,43,0,0,,2,,,74,127
58105,note_off,21,0,0,,4,,,76,127
58146,note_off,41,0,0,,4,,,64,127
58146,note_off,0,0,0,,11,,,58,127
58146,note_off,0,0,0,,7,,,67,127
58147,note_on,1,0,0,,7,,,67,127
58147,note_on,0,0,0,,4,,,64,127
58147,note_on,0,0,0,,11,,,58,127
58147,note_on,0,0,0,,4,,,76,127
58168,note_off,21,0,0,,2,,,74,127
58211,note_on,43,0,0,,2,,,74,127
58232,note_off,21,0,0,,4,,,76,127
58275,note_on,43,0,0,,1,,,73,127
58296,note_off,21,0,0,,2,,,74,127
58339,note_on,43,0,0,,2,,,74,127
58360,note_off,21,0,0,,1,,,73,127
58401,note_off,41,0,0,,2,,,74,127
58401,note_off,0,0,0,,11,,,58,127
58401,note_off,0,0,0,,4,,,64,127
58401,note_off,0,0,0,,7,,,67,127
58401,note_off,0,0,0,,7,,,79,127
58402,note_on,1,0,0,,7,,,67,127
58402,note_on,0,0,0,,10,,,57,127
58402,note_on,0,0,0,,4,,,64,127
58402,note_on,0,0,0,,1,,,73,127
58402,note_on,0,0,0,,7,,,79,127
58657,note_off,255,0,0,,4,,,64,127
58657,note_off,0,0,0,,10,,,57,127
58657,note_off,0,0,0,,7,,,67,127
58658,note_on,1,0,0,,7,,,67,127
58658,note_on,0,0,0,,10,,,57,127
58658,note_on,0,0,0,,4,,,64,127
58913,note_off,255,0,0,,4,,,64,127
58913,note_off,0,0,0,,10,,,57,127
58913,note_off,0,0,0,,7,,,67,127
58914,note_on,1,0,0,,7,,,67,127
58914,note_on,0,0,0,,4,,,64,127
58914,note_on,0,0,0,,10,,,57,127
59169,note_off,255,0,0,,10,,,57,127
59169,note_off,0,0,0,,4,,,64,127
59169,note_off,0,0,0,,7,,,67,127
59169,note_off,0,0,0,,1,,,73,127
59170,note_on,1,0,0,,12,,,59,127
59170,note_on,0,0,0,,3,,,75,127
59425,note_off,255,0,0,,3,,,75,127
59425,note_off,0,0,0,,12,,,59,127
59426,note_on,1,0,0,,4,,,64,127
59426,note_on,0,0,0,,0,,,60,127
59426,note_on,0,0,0,,4,,,76,127
59681,note_off,255,0,0,,7,,,79,127
59682,note_on,1,0,0,,8,,,80,127
59937,note_off,255,0,0,,8,,,80,127
59938,note_on,1,0,0,,10,,,81,127
60193,note_off,255,0,0,,10,,,81,127
60194,note_on,1,0,0,,11,,,82,127
60449,note_off,255,0,0,,11,,,82,127
60449,note_off,0,0,0,,0,,,60,127
60449,note_off,0,0,0,,4,,,64,127
60450,note_on,1,0,0,,12,,,71,127
60450,note_on,0,0,0,,6,,,66,127
60450,note_on,0,0,0,,12,,,59,127
60450,note_on,0,0,0,,12,,,83,127
60705,note_off,255,0,0,,12,,,59,127
60705,note_off,0,0,0,,6,,,66,127
60705,note_off,0,0,0,,12,,,71,127
60705,note_off,0,0,0,,4,,,76,127
60706,note_on,1,0,0,,12,,,71,127
60706,note_on,0,0,0,,6,,,66,127
60706,note_on,0,0,0,,12,,,59,127
60706,note_on,0,0,0,,3,,,75,127
60961,note_off,255,0,0,,3,,,75,127
60961,note_off,0,0,0,,12,,,59,127
60961,note_off,0,0,0,,6,,,66,127
60961,note_off,0,0,0,,12,,,71,127
60961,note_off,0,0,0,,12,,,83,127
60962,note_on,1,0,0,,6,,,66,127
60962,note_on,0,0,0,,10,,,69,127
60962,note_on,0,0,0,,4,,,64,127
60962,note_on,0,0,0,,0,,,60,127
60962,note_on,0,0,0,,10,,,81,127
60962,note_on,0,0,0,,6,,,78,127
61026,note_on,64,0,0,,4,,,76,127
61047,note_off,21,0,0,,6,,,78,127
61090,note_on,43,0,0,,6,,,78,127
61111,note_off,21,0,0,,4,,,76,127
61154,note_on,43,0,0,,4,,,76,127
61175,note_off,21,0,0,,6,,,78,127
61216,note_off,41,0,0,,0,,,60,127
61216,note_off,0,0,0,,4,,,64,127
61216,note_off,0,0,0,,10,,,69,127
61216,note_off,0,0,0,,6,,,66,127
61217,note_on,1,0,0,,10,,,69,127
61217,note_on,0,0,0,,6,,,66,127
61217,note_on,0,0,0,,0,,,60,127
61217,note_on,0,0,0,,4,,,64,127
61217,note_on,0,0,0,,6,,,78,127
61238,note_off,21,0,0,,4,,,76,127
61281,note_on,43,0,0,,4,,,76,127
61302,note_off,21,0,0,,6,,,78,127
61345,note_on,43,0,0,,3,,,75,127
61366,note_off,21,0,0,,4,,,76,127
61409,note_on,43,0,0,,4,,,76,127
61430,note_off,21,0,0,,3,,,75,127
61471,note_off,41,0,0,,4,,,76,127
61471,note_off,0,0,0,,4,,,64,127
61471,note_off,0,0,0,,0,,,60,127
61471,note_off,0,0,0,,6,,,66,127
61471,note_off,0,0,0,,10,,,69,127
61471,note_off,0,0,0,,10,,,81,127
61472,note_on,1,0,0,,4,,,64,127
61472,note_on,0,0,0,,12,,,71,127
61472,note_on,0,0,0,,12,,,59,127
61472,note_on,0,0,0,,6,,,66,127
61472,note_on,0,0,0,,3,,,75,127
61472,note_on,0,0,0,,10,,,81,127
61727,note_off,255,0,0,,6,,,66,127
61727,note_off,0,0,0,,12,,,59,127
61727,note_off,0,0,0,,12,,,71,127
61727,note_off,0,0,0,,4,,,64,127
61728,note_on,1,0,0,,6,,,66,127
61728,note_on,0,0,0,,12,,,71,127
61728,note_on,0,0,0,,12,,,59,127
61728,note_on,0,0,0,,4,,,64,127
61983,note_off,255,0,0,,4,,,64,127
61983,note_off,0,0,0,,12,,,59,127
61983,note_off,0,0,0,,12,,,71,127
61983,note_off,0,0,0,,6,,,66,127
61983,note_off,0,0,0,,10,,,81,127
61983,note_off,0,0,0,,3,,,75,127
61984,note_on,1,0,0,,10,,,69,127
61984,note_on,0,0,0,,0,,,60,127
61984,note_on,0,0,0,,4,,,64,127
61984,note_on,0,0,0,,6,,,66,127
61984,note_on,0,0,0,,6,,,78,127
61984,note_on,0,0,0,,10,,,81,127
62048,note_on,64,0,0,,4,,,76,127
62069,note_off,21,0,0,,6,,,78,127
62112,note_on,43,0,0,,6,,,78,127
62133,note_off,21,0,0,,4,,,76,127
62176,note_on,43,0,0,,4,,,76,127
62197,note_off,21,0,0,,6,,,78,127
62238,note_off,41,0,0,,6,,,66,127
62238,note_off,0,0,0,,4,,,64,127
62238,note_off,0,0,0,,0,,,60,127
62238,note_off,0,0,0,,10,,,69,127
62239,note_on,1,0,0,,4,,,64,127
62239,note_on,0,0,0,,6,,,66,127
62239,note_on,0,0,0,,10,,,69,127
62239,note_on,0,0,0,,0,,,60,127
62239,note_on,0,0,0,,6,,,78,127
62260,note_off,21,0,0,,4,,,76,127
62303,note_on,43,0,0,,4,,,76,127
62324,note_off,21,0,0,,6,,,78,127
62367,note_on,43,0,0,,3,,,75,127
62388,note_off,21,0,0,,4,,,76,127
62431,note_on,43,0,0,,4,,,76,127
62452,note_off,21,0,0,,3,,,75,127
62493,note_off,41,0,0,,4,,,76,127
62493,note_off,0,0,0,,0,,,60,127
62493,note_off,0,0,0,,10,,,69,127
62493,note_off,0,0,0,,6,,,66,127
62493,note_off,0,0,0,,4,,,64,127
62493,note_off,0,0,0,,10,,,81,127
62494,note_on,1,0,0,,12,,,71,127
62494,note_on,0,0,0,,4,,,64,127
62494,note_on,0,0,0,,6,,,66,127
62494,note_on,0,0,0,,12,,,59,127
62494,note_on,0,0,0,,10,,,81,127
62494,note_on,0,0,0,,3,,,75,127
62749,note_off,255,0,0,,12,,,59,127
62749,note_off,0,0,0,,6,,,66,127
62749,note_off,0,0,0,,4,,,64,127
62749,note_off,0,0,0,,12,,,71,127
62750,note_on,1,0,0,,12,,,71,127
62750,note_on,0,0,0,,12,,,59,127
62750,note_on,0,0,0,,4,,,64,127
62750,note_on,0,0,0,,6,,,66,127
63005,note_off,255,0,0,,6,,,66,127
63005,note_off,0,0,0,,4,,,64,127
63005,note_off,0,0,0,,12,,,59,127
63005,note_off,0,0,0,,12,,,71,127
63005,note_off,0,0,0,,3,,,75,127
63005,note_off,0,0,0,,10,,,81,127
63006,note_on,1,0,0,,4,,,64,127
63006,note_on,0,0,0,,6,,,66,127
63006,note_on,0,0,0,,10,,,69,127
63006,note_on,0,0,0,,0,,,60,127
63006,note_on,0,0,0,,6,,,78,127
63006,note_on,0,0,0,,10,,,81,127
63070,note_on,64,0,0,,4,,,76,127
63091,note_off,21,0,0,,6,,,78,127
63134,note_on,43,0,0,,6,,,78,127
63155,note_off,21,0,0,,4,,,76,127
63198,note_on,43,0,0,,4,,,76,127
63219,note_off,21,0,0,,6,,,78,127
63260,note_off,41,0,0,,0,,,60,127
63260,note_off,0,0,0,,10,,,69,127
63260,note_off,0,0,0,,6,,,66,127
63260,note_off,0,0,0,,4,,,64,127
63261,note_on,1,0,0,,10,,,69,127
63261,note_on,0,0,0,,4,,,64,127
63261,note_on,0,0,0,,6,,,66,127
63261,note_on,0,0,0,,0,,,60,127
63261,note_on,0,0,0,,6,,,78,127
63282,note_off,21,0,0,,4,,,76,127
63325,note_on,43,0,0,,4,,,76,127
63346,note_off,21,0,0,,6,,,78,127
63389,note_on,43,0,0,,3,,,75,127
63410,note_off,21,0,0,,4,,,76,127
63453,note_on,43,0,0,,4,,,76,127
63474,note_off,21,0,0,,3,,,75,127
63515,note_off,41,0,0,,4,,,76,127
63515,note_off,0,0,0,,0,,,60,127
63515,note_off,0,0,0,,6,,,66,127
63515,note_off,0,0,0,,4,,,64,127
63515,note_off,0,0,0,,10,,,69,127
63515,note_off,0,0,0,,10,,,81,127
63516,note_on,1,0,0,,6,,,66,127
63516,note_on,0,0,0,,12,,,59,127
63516,note_on,0,0,0,,10,,,81,127
63516,note_on,0,0,0,,3,,,75,127
63771,note_off,255,0,0,,12,,,59,127
63771,note_off,0,0,0,,6,,,66,127
63772,note_on,1,0,0,,12,,,71,127
64027,note_off,255,0,0,,3,,,75,127
64027,note_off,0,0,0,,10,,,81,127
64028,note_on,1,0,0,,12,,,83,127
64283,note_off,255,0,0,,12,,,71,127
64284,note_on,1,0,0,,10,,,69,127
64539,note_off,255,0,0,,10,,,69,127
64540,note_on,1,0,0,,12,,,71,127
64540,note_on,0,0,0,,7,,,67,127
64667,note_off,127,0,0,,12,,,83,127
64668,note_on,1,0,0,,10,,,81,127
64795,note_off,127,0,0,,10,,,81,127
64795,note_off,0,0,0,,7,,,67,127
64795,note_off,0,0,0,,12,,,71,127
64796,note_on,1,0,0,,12,,,71,127
64796,note_on,0,0,0,,7,,,67,127
64796,note_on,0,0,0,,7,,,79,127
64923,note_off,127,0,0,,7,,,79,127
64924,note_on,1,0,0,,6,,,78,127
65051,note_off,127,0,0,,6,,,78,127
65051,note_off,0,0,0,,7,,,67,127
65051,note_off,0,0,0,,12,,,71,127
65052,note_on,1,0,0,,7,,,67,127
65052,note_on,0,0,0,,12,,,71,127
65052,note_on,0,0,0,,6,,,78,127
65179,note_off,127,0,0,,6,,,78,127
65180,note_on,1,0,0,,4,,,76,127
65307,note_off,127,0,0,,4,,,76,127
65307,note_off,0,0,0,,12,,,71,127
65307,note_off,0,0,0,,7,,,67,127
65308,note_on,1,0,0,,7,,,67,127
65308,note_on,0,0,0,,12,,,71,127
65308,note_on,0,0,0,,3,,,75,127
65435,note_off,127,0,0,,3,,,75,127
65436,note_on,1,0,0,,4,,,76,127
65563,note_off,127,0,0,,4,,,76,127
65563,note_off,0,0,0,,12,,,71,127
65563,note_off,0,0,0,,7,,,67,127
65564,note_on,1,0,0,,10,,,69,127
65564,note_on,0,0,0,,7,,,67,127
65564,note_on,0,0,0,,2,,,74,127
65628,note_on,64,0,0,,0,,,72,127
65649,note_off,21,0,0,,2,,,74,127
65692,note_on,43,0,0,,2,,,74,127
65713,note_off,21,0,0,,0,,,72,127
65756,note_on,43,0,0,,0,,,72,127
65777,note_off,21,0,0,,2,,,74,127
65818,note_off,41,0,0,,7,,,67,127
65818,note_off,0,0,0,,10,,,69,127
65819,note_on,1,0,0,,7,,,67,127
65819,note_on,0,0,0,,10,,,69,127
65819,note_on,0,0,0,,2,,,74,127
65840,note_off,21,0,0,,0,,,72,127
65883,note_on,43,0,0,,0,,,72,127
65904,note_off,21,0,0,,2,,,74,127
65947,note_on,43,0,0,,12,,,71,127
65968,note_off,21,0,0,,0,,,72,127
66011,note_on,43,0,0,,0,,,72,127
66032,note_off,21,0,0,,12,,,71,127
66073,note_off,41,0,0,,10,,,69,127
66073,note_off,0,0,0,,7,,,67,127
66074,note_on,1,0,0,,10,,,69,127
66074,note_on,0,0,0,,7,,,67,127
66074,note_on,0,0,0,,8,,,80,127
66095,note_off,21,0,0,,0,,,72,127
66328,note_off,233,0,0,,8,,,80,127
66328,note_off,0,0,0,,7,,,67,127
66328,note_off,0,0,0,,10,,,69,127
66329,note_on,1,0,0,,7,,,67,127
66329,note_on,0,0,0,,10,,,69,127
66329,note_on,0,0,0,,10,,,81,127
66584,note_off,255,0,0,,10,,,69,127
66584,note_off,0,0,0,,7,,,67,127
66585,note_on,1,0,0,,10,,,69,127
66585,note_on,0,0,0,,5,,,65,127
66712,note_off,127,0,0,,10,,,81,127
66713,note_on,1,0,0,,7,,,79,127
66840,note_off,127,0,0,,7,,,79,127
66840,note_off,0,0,0,,5,,,65,127
66840,note_off,0,0,0,,10,,,69,127
66841,note_on,1,0,0,,5,,,65,127
66841,note_on,0,0,0,,10,,,69,127
66841,note_on,0,0,0,,5,,,77,127
66968,note_off,127,0,0,,5,,,77,127
66969,note_on,1,0,0,,4,,,76,127
67096,note_off,127,0,0,,4,,,76,127
67096,note_off,0,0,0,,10,,,69,127
67096,note_off,0,0,0,,5,,,65,127
67097,note_on,1,0,0,,10,,,69,127
67097,note_on,0,0,0,,5,,,65,127
67097,note_on,0,0,0,,4,,,76,127
67224,note_off,127,0,0,,4,,,76,127
67225,note_on,1,0,0,,2,,,74,127
67352,note_off,127,0,0,,2,,,74,127
67352,note_off,0,0,0,,5,,,65,127
67352,note_off,0,0,0,,10,,,69,127
67353,note_on,1,0,0,,10,,,69,127
67353,note_on,0,0,0,,5,,,65,127
67353,note_on,0,0,0,,1,,,73,127
67480,note_off,127,0,0,,1,,,73,127
67481,note_on,1,0,0,,2,,,74,127
67608,note_off,127,0,0,,2,,,74,127
67608,note_off,0,0,0,,5,,,65,127
67608,note_off,0,0,0,,10,,,69,127
67609,note_on,1,0,0,,5,,,65,127
67609,note_on,0,0,0,,7,,,67,127
67609,note_on,0,0,0,,0,,,72,127
67673,note_on,64,0,0,,11,,,70,127
67694,note_off,21,0,0,,0,,,72,127
67737,note_on,43,0,0,,0,,,72,127
67758,note_off,21,0,0,,11,,,70,127
67801,note_on,43,0,0,,11,,,70,127
67822,note_off,21,0,0,,0,,,72,127
67863,note_off,41,0,0,,7,,,67,127
67863,note_off,0,0,0,,5,,,65,127
67864,note_on,1,0,0,,7,,,67,127
67864,note_on,0,0,0,,5,,,65,127
67864,note_on,0,0,0,,0,,,72,127
67885,note_off,21,0,0,,11,,,70,127
67928,note_on,43,0,0,,11,,,70,127
67949,note_off,21,0,0,,0,,,72,127
67992,note_on,43,0,0,,10,,,69,127
68013,note_off,21,0,0,,11,,,70,127
68056,note_on,43,0,0,,11,,,70,127
68077,note_off,21,0,0,,10,,,69,127
68118,note_off,41,0,0,,5,,,65,127
68118,note_off,0,0,0,,7,,,67,127
68119,note_on,1,0,0,,5,,,65,127
68119,note_on,0,0,0,,7,,,67,127
68119,note_on,0,0,0,,6,,,78,127
68140,note_off,21,0,0,,11,,,70,127
68373,note_off,233,0,0,,6,,,78,127
68373,note_off,0,0,0,,7,,,67,127
68373,note_off,0,0,0,,5,,,65,127
68374,note_on,1,0,0,,7,,,67,127
68374,note_on,0,0,0,,5,,,65,127
68374,note_on,0,0,0,,7,,,79,127
68629,note_off,255,0,0,,5,,,65,127
68629,note_off,0,0,0,,7,,,67,127
68630,note_on,1,0,0,,7,,,67,127
68630,note_on,0,0,0,,4,,,64,127
68757,note_off,127,0,0,,7,,,79,127
68758,note_on,1,0,0,,5,,,77,127
68885,note_off,127,0,0,,5,,,77,127
68885,note_off,0,0,0,,4,,,64,127
68885,note_off,0,0,0,,7,,,67,127
68886,note_on,1,0,0,,4,,,64,127
68886,note_on,0,0,0,,7,,,67,127
68886,note_on,0,0,0,,4,,,76,127
69013,note_off,127,0,0,,4,,,76,127
69014,note_on,1,0,0,,2,,,74,127
69141,note_off,127,0,0,,2,,,74,127
69141,note_off,0,0,0,,7,,,67,127
69141,note_off,0,0,0,,4,,,64,127
69142,note_on,1,0,0,,4,,,64,127
69142,note_on,0,0,0,,7,,,67,127
69142,note_on,0,0,0,,0,,,72,127
69269,note_off,127,0,0,,0,,,72,127
69270,note_on,1,0,0,,11,,,70,127
69397,note_off,127,0,0,,11,,,70,127
69397,note_off,0,0,0,,7,,,67,127
69397,note_off,0,0,0,,4,,,64,127
69398,note_on,1,0,0,,7,,,67,127
69398,note_on,0,0,0,,4,,,64,127
69398,note_on,0,0,0,,10,,,69,127
69525,note_off,127,0,0,,10,,,69,127
69526,note_on,1,0,0,,11,,,70,127
69653,note_off,127,0,0,,11,,,70,127
69653,note_off,0,0,0,,4,,,64,127
69653,note_off,0,0,0,,7,,,67,127
69654,note_on,1,0,0,,5,,,65,127
69654,note_on,0,0,0,,3,,,63,127
69654,note_on,0,0,0,,11,,,70,127
69718,note_on,64,0,0,,10,,,69,127
69739,note_off,21,0,0,,11,,,70,127
69782,note_on,43,0,0,,11,,,70,127
69803,note_off,21,0,0,,10,,,69,127
69846,note_on,43,0,0,,10,,,69,127
69867,note_off,21,0,0,,11,,,70,127
69908,note_off,41,0,0,,3,,,63,127
69908,note_off,0,0,0,,5,,,65,127
69909,note_on,1,0,0,,5,,,65,127
69909,note_on,0,0,0,,3,,,63,127
69909,note_on,0,0,0,,11,,,70,127
69930,note_off,21,0,0,,10,,,69,127
69973,note_on,43,0,0,,10,,,69,127
69994,note_off,21,0,0,,11,,,70,127
70037,note_on,43,0,0,,7,,,67,127
70058,note_off,21,0,0,,10,,,69,127
70101,note_on,43,0,0,,10,,,69,127
70122,note_off,21,0,0,,7,,,67,127
70163,note_off,41,0,0,,3,,,63,127
70163,note_off,0,0,0,,5,,,65,127
70164,note_on,1,0,0,,5,,,65,127
70164,note_on,0,0,0,,3,,,63,127
70164,note_on,0,0,0,,5,,,77,127
70185,note_off,21,0,0,,10,,,69,127
70418,note_off,233,0,0,,3,,,63,127
70418,note_off,0,0,0,,5,,,65,127
70419,note_on,1,0,0,,3,,,63,127
70419,note_on,0,0,0,,5,,,65,127
70674,note_off,255,0,0,,5,,,65,127
70674,note_off,0,0,0,,3,,,63,127
70675,note_on,1,0,0,,1,,,61,127
70675,note_on,0,0,0,,5,,,65,127
70802,note_off,127,0,0,,5,,,77,127
70803,note_on,1,0,0,,3,,,75,127
70930,note_off,127,0,0,,3,,,75,127
70930,note_off,0,0,0,,5,,,65,127
70930,note_off,0,0,0,,1,,,61,127
70931,note_on,1,0,0,,5,,,65,127
70931,note_on,0,0,0,,1,,,61,127
70931,note_on,0,0,0,,1,,,73,127
71058,note_off,127,0,0,,1,,,73,127
71059,note_on,1,0,0,,0,,,72,127
71186,note_off,127,0,0,,0,,,72,127
71186,note_off,0,0,0,,1,,,61,127
71186,note_off,0,0,0,,5,,,65,127
71187,note_on,1,0,0,,5,,,65,127
71187,note_on,0,0,0,,1,,,61,127
71187,note_on,0,0,0,,11,,,70,127
71314,note_off,127,0,0,,11,,,70,127
71315,note_on,1,0,0,,8,,,68,127
71442,note_off,127,0,0,,8,,,68,127
71442,note_off,0,0,0,,1,,,61,127
71442,note_off,0,0,0,,5,,,65,127
71443,note_on,1,0,0,,1,,,61,127
71443,note_on,0,0,0,,7,,,67,127
71570,note_off,127,0,0,,7,,,67,127
71571,note_on,1,0,0,,5,,,65,127
71698,note_off,127,0,0,,5,,,65,127
71698,note_off,0,0,0,,1,,,61,127
71699,note_on,1,0,0,,0,,,60,127
71699,note_on,0,0,0,,5,,,65,127
71742,note_on,43,0,0,,4,,,64,127
71763,note_off,21,0,0,,5,,,65,127
71784,note_on,21,0,0,,5,,,65,127
71805,note_off,21,0,0,,4,,,64,127
71826,note_on,21,0,0,,4,,,64,127
71847,note_off,21,0,0,,5,,,65,127
71868,note_on,21,0,0,,5,,,65,127
71889,note_off,21,0,0,,4,,,64,127
71910,note_on,21,0,0,,4,,,64,127
71931,note_off,21,0,0,,5,,,65,127
71951,note_off,20,0,0,,0,,,60,127
71952,note_on,1,0,0,,11,,,58,127
71952,note_on,0,0,0,,5,,,65,127
71973,note_off,21,0,0,,4,,,64,127
71994,note_on,21,0,0,,4,,,64,127
72015,note_off,21,0,0,,5,,,65,127
72036,note_on,21,0,0,,5,,,65,127
72057,note_off,21,0,0,,4,,,64,127
72078,note_on,21,0,0,,4,,,64,127
72099,note_off,21,0,0,,5,,,65,127
72120,note_on,21,0,0,,5,,,65,127
72141,note_off,21,0,0,,4,,,64,127
72162,note_on,21,0,0,,4,,,64,127
72183,note_off,21,0,0,,5,,,65,127
72203,note_off,20,0,0,,11,,,58,127
72204,note_on,1,0,0,,0,,,60,127
72204,note_on,0,0,0,,8,,,56,127
72204,note_on,0,0,0,,7,,,67,127
72225,note_off,21,0,0,,4,,,64,127
72246,note_on,21,0,0,,5,,,65,127
72267,note_off,21,0,0,,7,,,67,127
72288,note_on,21,0,0,,7,,,67,127
72309,note_off,21,0,0,,5,,,65,127
72330,note_on,21,0,0,,5,,,65,127
72351,note_off,21,0,0,,7,,,67,127
72372,note_on,21,0,0,,7,,,67,127
72393,note_off,21,0,0,,5,,,65,127
72414,note_on,21,0,0,,5,,,65,127
72435,note_off,21,0,0,,7,,,67,127
72455,note_off,20,0,0,,8,,,56,127
72455,note_off,0,0,0,,0,,,60,127
72456,note_on,1,0,0,,7,,,55,127
72456,note_on,0,0,0,,11,,,58,127
72456,note_on,0,0,0,,8,,,68,127
72477,note_off,21,0,0,,5,,,65,127
72498,note_on,21,0,0,,7,,,67,127
72519,note_off,21,0,0,,8,,,68,127
72540,note_on,21,0,0,,8,,,68,127
72561,note_off,21,0,0,,7,,,67,127
72582,note_on,21,0,0,,7,,,67,127
72603,note_off,21,0,0,,8,,,68,127
72624,note_on,21,0,0,,8,,,68,127
72645,note_off,21,0,0,,7,,,67,127
72666,note_on,21,0,0,,7,,,67,127
72687,note_off,21,0,0,,8,,,68,127
72707,note_off,20,0,0,,11,,,58,127
72707,note_off,0,0,0,,7,,,55,127
72708,note_on,1,0,0,,5,,,53,127
72708,note_on,0,0,0,,0,,,60,127
72708,note_on,0,0,0,,11,,,70,127
72729,note_off,21,0,0,,7,,,67,127
72750,note_on,21,0,0,,8,,,68,127
72771,note_off,21,0,0,,11,,,70,127
72792,note_on,21,0,0,,11,,,70,127
72813,note_off,21,0,0,,8,,,68,127
72834,note_on,21,0,0,,8,,,68,127
72855,note_off,21,0,0,,11,,,70,127
72876,note_on,21,0,0,,11,,,70,127
72897,note_off,21,0,0,,8,,,68,127
72918,note_on,21,0,0,,8,,,68,127
72939,note_off,21,0,0,,11,,,70,127
72959,note_off,20,0,0,,0,,,60,127
72959,note_off,0,0,0,,5,,,53,127
72960,note_on,1,0,0,,3,,,51,127
72960,note_on,0,0,0,,11,,,70,127
72981,note_off,21,0,0,,8,,,68,127
73002,note_on,21,0,0,,10,,,69,127
73023,note_off,21,0,0,,11,,,70,127
73044,note_on,21,0,0,,11,,,70,127
73065,note_off,21,0,0,,10,,,69,127
73086,note_on,21,0,0,,10,,,69,127
73107,note_off,21,0,0,,11,,,70,127
73128,note_on,21,0,0,,11,,,70,127
73149,note_off,21,0,0,,10,,,69,127
73170,note_on,21,0,0,,10,,,69,127
73191,note_off,21,0,0,,11,,,70,127
73211,note_off,20,0,0,,3,,,51,127
73212,note_on,1,0,0,,1,,,49,127
73212,note_on,0,0,0,,0,,,72,127
73233,note_off,21,0,0,,10,,,69,127
73254,note_on,21,0,0,,11,,,70,127
73275,note_off,21,0,0,,0,,,72,127
73296,note_on,21,0,0,,0,,,72,127
73317,note_off,21,0,0,,11,,,70,127
73338,note_on,21,0,0,,11,,,70,127
73359,note_off,21,0,0,,0,,,72,127
73380,note_on,21,0,0,,0,,,72,127
73401,note_off,21,0,0,,11,,,70,127
73422,note_on,21,0,0,,11,,,70,127
73443,note_off,21,0,0,,0,,,72,127
73464,note_on,21,0,0,,12,,,71,127
73485,note_off,21,0,0,,11,,,70,127
73590,note_off,105,0,0,,12,,,71,127
73591,note_on,1,0,0,,0,,,72,127
73718,note_off,127,0,0,,0,,,72,127
73718,note_off,0,0,0,,1,,,49,127
73719,note_on,1,0,0,,0,,,60,127
73719,note_on,0,0,0,,0,,,48,127
73719,note_on,0,0,0,,5,,,65,127
73762,note_on,43,0,0,,4,,,64,127
73783,note_off,21,0,0,,5,,,65,127
73804,note_on,21,0,0,,5,,,65,127
73825,note_off,21,0,0,,4,,,64,127
73846,note_on,21,0,0,,4,,,64,127
73867,note_off,21,0,0,,5,,,65,127
73888,note_on,21,0,0,,5,,,65,127
73909,note_off,21,0,0,,4,,,64,127
73930,note_on,21,0,0,,4,,,64,127
73951,note_off,21,0,0,,5,,,65,127
73971,note_off,20,0,0,,0,,,48,127
73971,note_off,0,0,0,,0,,,60,127
73972,note_on,1,0,0,,11,,,58,127
73972,note_on,0,0,0,,11,,,46,127
73972,note_on,0,0,0,,5,,,65,127
73993,note_off,21,0,0,,4,,,64,127
74014,note_on,21,0,0,,4,,,64,127
74035,note_off,21,0,0,,5,,,65,127
74056,note_on,21,0,0,,5,,,65,127
74077,note_off,21,0,0,,4,,,64,127
74098,note_on,21,0,0,,4,,,64,127
74119,note_off,21,0,0,,5,,,65,127
74140,note_on,21,0,0,,5,,,65,127
74161,note_off,21,0,0,,4,,,64,127
74182,note_on,21,0,0,,4,,,64,127
74203,note_off,21,0,0,,5,,,65,127
74223,note_off,20,0,0,,11,,,46,127
74223,note_off,0,0,0,,11,,,58,127
74224,note_on,1,0,0,,8,,,56,127
74224,note_on,0,0,0,,8,,,44,127
74224,note_on,0,0,0,,7,,,67,127
74245,note_off,21,0,0,,4,,,64,127
74266,note_on,21,0,0,,5,,,65,127
74287,note_off,21,0,0,,7,,,67,127
74308,note_on,21,0,0,,7,,,67,127
74329,note_off,21,0,0,,5,,,65,127
74350,note_on,21,0,0,,5,,,65,127
74371,note_off,21,0,0,,7,,,67,127
74392,note_on,21,0,0,,7,,,67,127
74413,note_off,21,0,0,,5,,,65,127
74434,note_on,21,0,0,,5,,,65,127
74455,note_off,21,0,0,,7,,,67,127
74475,note_off,20,0,0,,8,,,44,127
74475,note_off,0,0,0,,8,,,56,127
74476,note_on,1,0,0,,7,,,55,127
74476,note_on,0,0,0,,7,,,43,127
74476,note_on,0,0,0,,8,,,68,127
74497,note_off,21,0,0,,5,,,65,127
74518,note_on,21,0,0,,7,,,67,127
74539,note_off,21,0,0,,8,,,68,127
74560,note_on,21,0,0,,8,,,68,127
74581,note_off,21,0,0,,7,,,67,127
74602,note_on,21,0,0,,7,,,67,127
74623,note_off,21,0,0,,8,,,68,127
74644,note_on,21,0,0,,8,,,68,127
74665,note_off,21,0,0,,7,,,67,127
74686,note_on,21,0,0,,7,,,67,127
74707,note_off,21,0,0,,8,,,68,127
74727,note_off,20,0,0,,7,,,43,127
74727,note_off,0,0,0,,7,,,55,127
74728,note_on,1,0,0,,5,,,53,127
74728,note_on,0,0,0,,5,,,41,127
74728,note_on,0,0,0,,11,,,70,127
74749,note_off,21,0,0,,7,,,67,127
74770,note_on,21,0,0,,8,,,68,127
74791,note_off,21,0,0,,11,,,70,127
74812,note_on,21,0,0,,11,,,70,127
74833,note_off,21,0,0,,8,,,68,127
74854,note_on,21,0,0,,8,,,68,127
74875,note_off,21,0,0,,11,,,70,127
74896,note_on,21,0,0,,11,,,70,127
74917,note_off,21,0,0,,8,,,68,127
74938,note_on,21,0,0,,8,,,68,127
74959,note_off,21,0,0,,11,,,70,127
74979,note_off,20,0,0,,5,,,41,127
74979,note_off,0,0,0,,5,,,53,127
74980,note_on,1,0,0,,3,,,51,127
74980,note_on,0,0,0,,3,,,39,127
74980,note_on,0,0,0,,11,,,70,127
75001,note_off,21,0,0,,8,,,68,127
75022,note_on,21,0,0,,10,,,69,127
75043,note_off,21,0,0,,11,,,70,127
75064,note_on,21,0,0,,11,,,70,127
75085,note_off,21,0,0,,10,,,69,127
75106,note_on,21,0,0,,10,,,69,127
75127,note_off,21,0,0,,11,,,70,127
75148,note_on,21,0,0,,11,,,70,127
75169,note_off,21,0,0,,10,,,69,127
75190,note_on,21,0,0,,10,,,69,127
75211,note_off,21,0,0,,11,,,70,127
75231,note_off,20,0,0,,3,,,39,127
75231,note_off,0,0,0,,3,,,51,127
75232,note_on,1,0,0,,1,,,49,127
75232,note_on,0,0,0,,1,,,37,127
75232,note_on,0,0,0,,0,,,72,127
75253,note_off,21,0,0,,10,,,69,127
75274,note_on,21,0,0,,11,,,70,127
75295,note_off,21,0,0,,0,,,72,127
75316,note_on,21,0,0,,0,,,72,127
75337,note_off,21,0,0,,11,,,70,127
75358,note_on,21,0,0,,11,,,70,127
75379,note_off,21,0,0,,0,,,72,127
75400,note_on,21,0,0,,0,,,72,127
75421,note_off,21,0,0,,11,,,70,127
75442,note_on,21,0,0,,11,,,70,127
75463,note_off,21,0,0,,0,,,72,127
75484,note_on,21,0,0,,12,,,71,127
75505,note_off,21,0,0,,11,,,70,127
75610,note_off,105,0,0,,12,,,71,127
75611,note_on,1,0,0,,0,,,72,127
75738,note_off,127,0,0,,0,,,72,127
75738,note_off,0,0,0,,1,,,37,127
75738,note_off,0,0,0,,1,,,49,127
75739,note_on,1,0,0,,0,,,36,127
75739,note_on,0,0,0,,0,,,48,127
75739,note_on,0,0,0,,5,,,65,127
75782,note_on,43,0,0,,4,,,64,127
75803,note_off,21,0,0,,5,,,65,127
75824,note_on,21,0,0,,5,,,65,127
75845,note_off,21,0,0,,4,,,64,127
75866,note_on,21,0,0,,4,,,64,127
75887,note_off,21,0,0,,5,,,65,127
75908,note_on,21,0,0,,5,,,65,127
75929,note_off,21,0,0,,4,,,64,127
75950,note_on,21,0,0,,4,,,64,127
75971,note_off,21,0,0,,5,,,65,127
75991,note_off,20,0,0,,0,,,48,127
75991,note_off,0,0,0,,0,,,36,127
75992,note_on,1,0,0,,11,,,58,127
75992,note_on,0,0,0,,11,,,46,127
75992,note_on,0,0,0,,5,,,65,127
76013,note_off,21,0,0,,4,,,64,127
76034,note_on,21,0,0,,4,,,64,127
76055,note_off,21,0,0,,5,,,65,127
76076,note_on,21,0,0,,5,,,65,127
76097,note_off,21,0,0,,4,,,64,127
76118,note_on,21,0,0,,4,,,64,127
76139,note_off,21,0,0,,5,,,65,127
76160,note_on,21,0,0,,5,,,65,127
76181,note_off,21,0,0,,4,,,64,127
76202,note_on,21,0,0,,4,,,64,127
76223,note_off,21,0,0,,5,,,65,127
76243,note_off,20,0,0,,11,,,46,127
76243,note_off,0,0,0,,11,,,58,127
76244,note_on,1,0,0,,8,,,56,127
76244,note_on,0,0,0,,8,,,44,127
76244,note_on,0,0,0,,7,,,67,127
76265,note_off,21,0,0,,4,,,64,127
76286,note_on,21,0,0,,5,,,65,127
76307,note_off,21,0,0,,7,,,67,127
76328,note_on,21,0,0,,7,,,67,127
76349,note_off,21,0,0,,5,,,65,127
76370,note_on,21,0,0,,5,,,65,127
76391,note_off,21,0,0,,7,,,67,127
76412,note_on,21,0,0,,7,,,67,127
76433,note_off,21,0,0,,5,,,65,127
76454,note_on,21,0,0,,5,,,65,127
76475,note_off,21,0,0,,7,,,67,127
76495,note_off,20,0,0,,8,,,44,127
76495,note_off,0,0,0,,8,,,56,127
76496,note_on,1,0,0,,7,,,55,127
76496,note_on,0,0,0,,7,,,43,127
76496,note_on,0,0,0,,8,,,68,127
76517,note_off,21,0,0,,5,,,65,127
76538,note_on,21,0,0,,7,,,67,127
76559,note_off,21,0,0,,8,,,68,127
76580,note_on,21,0,0,,8,,,68,127
76601,note_off,21,0,0,,7,,,67,127
76622,note_on,21,0,0,,7,,,67,127
76643,note_off,21,0,0,,8,,,68,127
76664,note_on,21,0,0,,8,,,68,127
76685,note_off,21,0,0,,7,,,67,127
76706,note_on,21,0,0,,7,,,67,127
76727,note_off,21,0,0,,8,,,68,127
76747,note_off,20,0,0,,7,,,43,127
76747,note_off,0,0,0,,7,,,55,127
76748,note_on,1,0,0,,5,,,53,127
76748,note_on,0,0,0,,5,,,41,127
76748,note_on,0,0,0,,11,,,70,127
76769,note_off,21,0,0,,7,,,67,127
76790,note_on,21,0,0,,8,,,68,127
76811,note_off,21,0,0,,11,,,70,127
76832,note_on,21,0,0,,11,,,70,127
76853,note_off,21,0,0,,8,,,68,127
76874,note_on,21,0,0,,8,,,68,127
76895,note_off,21,0,0,,11,,,70,127
76916,note_on,21,0,0,,11,,,70,127
76937,note_off,21,0,0,,8,,,68,127
76958,note_on,21,0,0,,8,,,68,127
76979,note_off,21,0,0,,11,,,70,127
76999,note_off,20,0,0,,5,,,41,127
76999,note_off,0,0,0,,5,,,53,127
77000,note_on,1,0,0,,3,,,51,127
77000,note_on,0,0,0,,3,,,39,127
77000,note_on,0,0,0,,11,,,70,127
77021,note_off,21,0,0,,8,,,68,127
77042,note_on,21,0,0,,10,,,69,127
77063,note_off,21,0,0,,11,,,70,127
77084,note_on,21,0,0,,11,,,70,127
77105,note_off,21,0,0,,10,,,69,127
77126,note_on,21,0,0,,10,,,69,127
77147,note_off,21,0,0,,11,,,70,127
77168,note_on,21,0,0,,11,,,70,127
77189,note_off,21,0,0,,10,,,69,127
77210,note_on,21,0,0,,10,,,69,127
77231,note_off,21,0,0,,11,,,70,127
77251,note_off,20,0,0,,3,,,39,127
77251,note_off,0,0,0,,3,,,51,127
77252,note_on,1,0,0,,1,,,49,127
77252,note_on,0,0,0,,1,,,37,127
77252,note_on,0,0,0,,0,,,72,127
77273,note_off,21,0,0,,10,,,69,127
77294,note_on,21,0,0,,11,,,70,127
77315,note_off,21,0,0,,0,,,72,127
77336,note_on,21,0,0,,0,,,72,127
77357,note_off,21,0,0,,11,,,70,127
77378,note_on,21,0,0,,11,,,70,127
77399,note_off,21,0,0,,0,,,72,127
77420,note_on,21,0,0,,0,,,72,127
77441,note_off,21,0,0,,11,,,70,127
77462,note_on,21,0,0,,11,,,70,127
77483,note_off,21,0,0,,0,,,72,127
77504,note_on,21,0,0,,0,,,72,127
77525,note_off,21,0,0,,11,,,70,127
77546,note_on,21,0,0,,12,,,71,127
77567,note_off,21,0,0,,0,,,72,127
77588,note_on,21,0,0,,0,,,72,127
77609,note_off,21,0,0,,12,,,71,127
77630,note_on,21,0,0,,12,,,71,127
77651,note_off,21,0,0,,0,,,72,127
77672,note_on,21,0,0,,0,,,72,127
77693,note_off,21,0,0,,12,,,71,127
77714,note_on,21,0,0,,12,,,71,127
77735,note_off,21,0,0,,0,,,72,127
77755,note_off,20,0,0,,1,,,37,127
77755,note_off,0,0,0,,1,,,49,127
77756,note_on,1,0,0,,0,,,36,127
77756,note_on,0,0,0,,0,,,48,127
77756,note_on,0,0,0,,0,,,72,127
77777,note_off,21,0,0,,12,,,71,127
77882,note_off,105,0,0,,0,,,72,127
77883,note_on,1,0,0,,7,,,67,127
78010,note_off,127,0,0,,7,,,67,127
78011,note_on,1,0,0,,4,,,64,127
78138,note_off,127,0,0,,4,,,64,127
78139,note_on,1,0,0,,7,,,67,127
78266,note_off,127,0,0,,7,,,67,127
78266,note_off,0,0,0,,0,,,48,127
78266,note_off,0,0,0,,0,,,36,127
78267,note_on,1,0,0,,0,,,60,127
78395,note_on,128,0,0,,11,,,82,127
78522,note_off,127,0,0,,11,,,82,127
78522,note_off,0,0,0,,0,,,60,127
78523,note_on,1,0,0,,7,,,79,127
78523,note_on,0,0,0,,11,,,70,127
78650,note_off,127,0,0,,7,,,79,127
78651,note_on,1,0,0,,4,,,76,127
78778,note_off,127,0,0,,4,,,76,127
78778,note_off,0,0,0,,11,,,70,127
78779,note_on,1,0,0,,5,,,77,127
78779,note_on,0,0,0,,8,,,68,127
78906,note_off,127,0,0,,8,,,68,127
78907,note_on,1,0,0,,4,,,64,127
79034,note_off,127,0,0,,4,,,64,127
79035,note_on,1,0,0,,5,,,65,127
79162,note_off,127,0,0,,5,,,65,127
79163,note_on,1,0,0,,1,,,61,127
79290,note_off,127,0,0,,1,,,61,127
79290,note_off,0,0,0,,5,,,77,127
79291,note_on,1,0,0,,0,,,60,127
79419,note_on,128,0,0,,11,,,82,127
79546,note_off,127,0,0,,11,,,82,127
79546,note_off,0,0,0,,0,,,60,127
79547,note_on,1,0,0,,7,,,79,127
79547,note_on,0,0,0,,11,,,70,127
79674,note_off,127,0,0,,7,,,79,127
79675,note_on,1,0,0,,4,,,76,127
79802,note_off,127,0,0,,4,,,76,127
79802,note_off,0,0,0,,11,,,70,127
79803,note_on,1,0,0,,5,,,77,127
79803,note_on,0,0,0,,8,,,68,127
79930,note_off,127,0,0,,8,,,68,127
79931,note_on,1,0,0,,4,,,64,127
80058,note_off,127,0,0,,4,,,64,127
80059,note_on,1,0,0,,5,,,65,127
80186,note_off,127,0,0,,5,,,65,127
80187,note_on,1,0,0,,1,,,61,127
80314,note_off,127,0,0,,1,,,61,127
80314,note_off,0,0,0,,5,,,77,127
80315,note_on,1,0,0,,0,,,60,127
80443,note_on,128,0,0,,11,,,82,127
80570,note_off,127,0,0,,11,,,82,127
80570,note_off,0,0,0,,0,,,60,127
80571,note_on,1,0,0,,7,,,79,127
80571,note_on,0,0,0,,11,,,70,127
80698,note_off,127,0,0,,7,,,79,127
80699,note_on,1,0,0,,4,,,76,127
80826,note_off,127,0,0,,4,,,76,127
80826,note_off,0,0,0,,11,,,70,127
80827,note_on,1,0,0,,5,,,77,127
80827,note_on,0,0,0,,8,,,68,127
80954,note_off,127,0,0,,8,,,68,127
80955,note_on,1,0,0,,7,,,67,127
81082,note_off,127,0,0,,7,,,67,127
81083,note_on,1,0,0,,5,,,65,127
81210,note_off,127,0,0,,5,,,65,127
81211,note_on,1,0,0,,4,,,64,127
81338,note_off,127,0,0,,4,,,64,127
81338,note_off,0,0,0,,5,,,77,127
81339,note_on,1,0,0,,5,,,65,127
81467,note_on,128,0,0,,8,,,80,127
81594,note_off,127,0,0,,8,,,80,127
81594,note_off,0,0,0,,5,,,65,127
81595,note_on,1,0,0,,5,,,77,127
81595,note_on,0,0,0,,8,,,68,127
81722,note_off,127,0,0,,5,,,77,127
81723,note_on,1,0,0,,2,,,74,127
81850,note_off,127,0,0,,2,,,74,127
81850,note_off,0,0,0,,8,,,68,127
81851,note_on,1,0,0,,3,,,75,127
81851,note_on,0,0,0,,7,,,67,127
81978,note_off,127,0,0,,7,,,67,127
81979,note_on,1,0,0,,2,,,62,127
82106,note_off,127,0,0,,2,,,62,127
82107,note_on,1,0,0,,3,,,63,127
82234,note_off,127,0,0,,3,,,63,127
82235,note_on,1,0,0,,0,,,60,127
82362,note_off,127,0,0,,0,,,60,127
82362,note_off,0,0,0,,3,,,75,127
82363,note_on,1,0,0,,11,,,58,127
82491,note_on,128,0,0,,8,,,80,127
82618,note_off,127,0,0,,8,,,80,127
82618,note_off,0,0,0,,11,,,58,127
82619,note_on,1,0,0,,5,,,77,127
82619,note_on,0,0,0,,8,,,68,127
82746,note_off,127,0,0,,5,,,77,127
82747,note_on,1,0,0,,2,,,74,127
82874,note_off,127,0,0,,2,,,74,127
82874,note_off,0,0,0,,8,,,68,127
82875,note_on,1,0,0,,3,,,75,127
82875,note_on,0,0,0,,7,,,67,127
83002,note_off,127,0,0,,7,,,67,127
83003,note_on,1,0,0,,2,,,62,127
83130,note_off,127,0,0,,2,,,62,127
83131,note_on,1,0,0,,3,,,63,127
83258,note_off,127,0,0,,3,,,63,127
83259,note_on,1,0,0,,12,,,59,127
83386,note_off,127,0,0,,12,,,59,127
83386,note_off,0,0,0,,3,,,75,127
83387,note_on,1,0,0,,0,,,60,127
83515,note_on,128,0,0,,5,,,77,127
83642,note_off,127,0,0,,5,,,77,127
83642,note_off,0,0,0,,0,,,60,127
83643,note_on,1,0,0,,2,,,74,127
83643,note_on,0,0,0,,5,,,65,127
83770,note_off,127,0,0,,2,,,74,127
83771,note_on,1,0,0,,12,,,71,127
83898,note_off,127,0,0,,12,,,71,127
83898,note_off,0,0,0,,5,,,65,127
83899,note_on,1,0,0,,0,,,72,127
83899,note_on,0,0,0,,3,,,63,127
84026,note_off,127,0,0,,3,,,63,127
84027,note_on,1,0,0,,12,,,59,127
84154,note_off,127,0,0,,12,,,59,127
84155,note_on,1,0,0,,0,,,60,127
84282,note_off,127,0,0,,0,,,60,127
84283,note_on,1,0,0,,8,,,56,127
84410,note_off,127,0,0,,8,,,56,127
84410,note_off,0,0,0,,0,,,72,127
84411,note_on,1,0,0,,7,,,55,127
84539,note_on,128,0,0,,5,,,77,127
84666,note_off,127,0,0,,5,,,77,127
84666,note_off,0,0,0,,7,,,55,127
84667,note_on,1,0,0,,2,,,74,127
84667,note_on,0,0,0,,5,,,65,127
84794,note_off,127,0,0,,2,,,74,127
84795,note_on,1,0,0,,12,,,71,127
84922,note_off,127,0,0,,12,,,71,127
84922,note_off,0,0,0,,5,,,65,127
84923,note_on,1,0,0,,0,,,72,127
84923,note_on,0,0,0,,3,,,63,127
85050,note_off,127,0,0,,3,,,63,127
85051,note_on,1,0,0,,12,,,59,127
85178,note_off,127,0,0,,12,,,59,127
85179,note_on,1,0,0,,0,,,60,127
85306,note_off,127,0,0,,0,,,60,127
85307,note_on,1,0,0,,8,,,56,127
85434,note_off,127,0,0,,8,,,56,127
85434,note_off,0,0,0,,0,,,72,127
85435,note_on,1,0,0,,7,,,55,127
85563,note_on,128,0,0,,5,,,77,127
85690,note_off,127,0,0,,5,,,77,127
85690,note_off,0,0,0,,7,,,55,127
85691,note_on,1,0,0,,2,,,74,127
85691,note_on,0,0,0,,5,,,65,127
85818,note_off,127,0,0,,2,,,74,127
85819,note_on,1,0,0,,12,,,71,127
85946,note_off,127,0,0,,12,,,71,127
85946,note_off,0,0,0,,5,,,65,127
85947,note_on,1,0,0,,0,,,72,127
85947,note_on,0,0,0,,3,,,63,127
86074,note_off,127,0,0,,3,,,63,127
86075,note_on,1,0,0,,0,,,60,127
86202,note_off,127,0,0,,0,,,60,127
86202,note_off,0,0,0,,0,,,72,127
86203,note_on,1,0,0,,8,,,80,127
86203,note_on,0,0,0,,5,,,65,127
86330,note_off,127,0,0,,5,,,65,127
86331,note_on,1,0,0,,0,,,72,127
86458,note_off,127,0,0,,0,,,72,127
86458,note_off,0,0,0,,8,,,80,127
86459,note_on,1,0,0,,7,,,79,127
86459,note_on,0,0,0,,12,,,71,127
86586,note_off,127,0,0,,12,,,71,127
86587,note_on,1,0,0,,2,,,74,127
86714,note_off,127,0,0,,2,,,74,127
86714,note_off,0,0,0,,7,,,79,127
86715,note_on,1,0,0,,12,,,83,127
86715,note_on,0,0,0,,7,,,67,127
86842,note_off,127,0,0,,7,,,67,127
86843,note_on,1,0,0,,5,,,65,127
86970,note_off,127,0,0,,5,,,65,127
86970,note_off,0,0,0,,12,,,83,127
86971,note_on,1,0,0,,0,,,84,127
86971,note_on,0,0,0,,3,,,63,127
87098,note_off,127,0,0,,3,,,63,127
87099,note_on,1,0,0,,0,,,60,127
87226,note_off,127,0,0,,0,,,60,127
87226,note_off,0,0,0,,0,,,84,127
87227,note_on,1,0,0,,8,,,80,127
87227,note_on,0,0,0,,5,,,65,127
87354,note_off,127,0,0,,5,,,65,127
87355,note_on,1,0,0,,0,,,72,127
87482,note_off,127,0,0,,0,,,72,127
87482,note_off,0,0,0,,8,,,80,127
87483,note_on,1,0,0,,7,,,79,127
87483,note_on,0,0,0,,12,,,71,127
87610,note_off,127,0,0,,12,,,71,127
87611,note_on,1,0,0,,2,,,74,127
87738,note_off,127,0,0,,2,,,74,127
87738,note_off,0,0,0,,7,,,79,127
87739,note_on,1,0,0,,12,,,83,127
87739,note_on,0,0,0,,7,,,67,127
87866,note_off,127,0,0,,7,,,67,127
87867,note_on,1,0,0,,5,,,65,127
87994,note_off,127,0,0,,5,,,65,127
87994,note_off,0,0,0,,12,,,83,127
87995,note_on,1,0,0,,0,,,84,127
87995,note_on,0,0,0,,3,,,63,127
88122,note_off,127,0,0,,3,,,63,127
88123,note_on,1,0,0,,0,,,60,127
88250,note_off,127,0,0,,0,,,60,127
88250,note_off,0,0,0,,0,,,84,127
88251,note_on,1,0,0,,8,,,80,127
88251,note_on,0,0,0,,5,,,65,127
88378,note_off,127,0,0,,5,,,65,127
88379,note_on,1,0,0,,0,,,72,127
88506,note_off,127,0,0,,0,,,72,127
88506,note_off,0,0,0,,8,,,80,127
88507,note_on,1,0,0,,7,,,79,127
88507,note_on,0,0,0,,12,,,71,127
88634,note_off,127,0,0,,12,,,71,127
88635,note_on,1,0,0,,2,,,74,127
88762,note_off,127,0,0,,2,,,74,127
88762,note_off,0,0,0,,7,,,79,127
88763,note_on,1,0,0,,12,,,83,127
88763,note_on,0,0,0,,7,,,67,127
88890,note_off,127,0,0,,7,,,67,127
88891,note_on,1,0,0,,5,,,65,127
89018,note_off,127,0,0,,5,,,65,127
89018,note_off,0,0,0,,12,,,83,127
89019,note_on,1,0,0,,0,,,84,127
89019,note_on,0,0,0,,3,,,63,127
89146,note_off,127,0,0,,0,,,84,127
89147,note_on,1,0,0,,11,,,82,127
89274,note_off,127,0,0,,11,,,82,127
89274,note_off,0,0,0,,3,,,63,127
89275,note_on,1,0,0,,8,,,80,127
89275,note_on,0,0,0,,0,,,60,127
89402,note_off,127,0,0,,8,,,80,127
89403,note_on,1,0,0,,7,,,79,127
89530,note_off,127,0,0,,7,,,79,127
89530,note_off,0,0,0,,0,,,60,127
89531,note_on,1,0,0,,5,,,77,127
89531,note_on,0,0,0,,5,,,65,127
89658,note_off,127,0,0,,5,,,77,127
89659,note_on,1,0,0,,3,,,75,127
89786,note_off,127,0,0,,3,,,75,127
89786,note_off,0,0,0,,5,,,65,127
89787,note_on,1,0,0,,2,,,74,127
89787,note_on,0,0,0,,8,,,68,127
89914,note_off,127,0,0,,2,,,74,127
89915,note_on,1,0,0,,0,,,72,127
90042,note_off,127,0,0,,0,,,72,127
90042,note_off,0,0,0,,8,,,68,127
90043,note_on,1,0,0,,12,,,71,127
90043,note_on,0,0,0,,7,,,67,127
90170,note_off,127,0,0,,7,,,67,127
90171,note_on,1,0,0,,10,,,69,127
90296,note_off,125,0,0,,12,,,71,127
90297,note_off,1,0,0,,10,,,69,127
90298,note_on,1,0,0,,12,,,71,127
90425,note_off,127,0,0,,12,,,71,127
90426,note_on,1,0,0,,0,,,72,127
90553,note_off,127,0,0,,0,,,72,127
90554,note_on,1,0,0,,2,,,74,127
90681,note_off,127,0,0,,2,,,74,127
90682,note_on,1,0,0,,5,,,77,127
90809,note_off,127,0,0,,5,,,77,127
90810,note_on,1,0,0,,3,,,75,127
90937,note_off,127,0,0,,3,,,75,127
90938,note_on,1,0,0,,2,,,74,127
91065,note_off,127,0,0,,2,,,74,127
91066,note_on,1,0,0,,8,,,68,127
91066,note_on,0,0,0,,0,,,72,127
91193,note_off,127,0,0,,0,,,72,127
91194,note_on,1,0,0,,8,,,80,127
91321,note_off,127,0,0,,8,,,80,127
91321,note_off,0,0,0,,8,,,68,127
91322,note_on,1,0,0,,5,,,65,127
91322,note_on,0,0,0,,7,,,79,127
91449,note_off,127,0,0,,7,,,79,127
91450,note_on,1,0,0,,5,,,77,127
91577,note_off,127,0,0,,5,,,77,127
91577,note_off,0,0,0,,5,,,65,127
91578,note_on,1,0,0,,7,,,67,127
91578,note_on,0,0,0,,3,,,75,127
91705,note_off,127,0,0,,3,,,75,127
91706,note_on,1,0,0,,2,,,74,127
91833,note_off,127,0,0,,2,,,74,127
91833,note_off,0,0,0,,7,,,67,127
91834,note_on,1,0,0,,7,,,55,127
91834,note_on,0,0,0,,0,,,72,127
91961,note_off,127,0,0,,0,,,72,127
91962,note_on,1,0,0,,12,,,71,127
92089,note_off,127,0,0,,12,,,71,127
92089,note_off,0,0,0,,7,,,55,127
92090,note_on,1,0,0,,0,,,48,127
92090,note_on,0,0,0,,0,,,72,127
92195,note_off,105,0,0,,0,,,72,127
92218,note_on,23,0,0,,7,,,67,127
92345,note_off,127,0,0,,7,,,67,127
92345,note_off,0,0,0,,0,,,48,127
92346,note_on,1,0,0,,0,,,60,127
92346,note_on,0,0,0,,8,,,68,127
92473,note_off,127,0,0,,8,,,68,127
92474,note_on,1,0,0,,5,,,65,127
92601,note_off,127,0,0,,5,,,65,127
92601,note_off,0,0,0,,0,,,60,127
92602,note_on,1,0,0,,2,,,62,127
92602,note_on,0,0,0,,12,,,59,127
92602,note_on,0,0,0,,7,,,67,127
92729,note_off,127,0,0,,7,,,67,127
92730,note_on,1,0,0,,0,,,72,127
92857,note_off,127,0,0,,0,,,72,127
92857,note_off,0,0,0,,12,,,59,127
92858,note_on,1,0,0,,7,,,55,127
92858,note_on,0,0,0,,0,,,72,127
92901,note_on,43,0,0,,12,,,71,127
92922,note_off,21,0,0,,0,,,72,127
92943,note_on,21,0,0,,0,,,72,127
92964,note_off,21,0,0,,12,,,71,127
92985,note_on,21,0,0,,12,,,71,127
93006,note_off,21,0,0,,0,,,72,127
93111,note_off,105,0,0,,7,,,55,127
93111,note_off,0,0,0,,2,,,62,127
93112,note_on,1,0,0,,0,,,60,127
93112,note_on,0,0,0,,8,,,56,127
93239,note_off,127,0,0,,12,,,71,127
93240,note_on,1,0,0,,7,,,67,127
93367,note_off,127,0,0,,7,,,67,127
93367,note_off,0,0,0,,8,,,56,127
93368,note_on,1,0,0,,5,,,53,127
93368,note_on,0,0,0,,8,,,68,127
93495,note_off,127,0,0,,8,,,68,127
93496,note_on,1,0,0,,5,,,65,127
93623,note_off,127,0,0,,5,,,65,127
93623,note_off,0,0,0,,5,,,53,127
93623,note_off,0,0,0,,0,,,60,127
93624,note_on,1,0,0,,2,,,62,127
93624,note_on,0,0,0,,12,,,59,127
93624,note_on,0,0,0,,7,,,67,127
93751,note_off,127,0,0,,7,,,67,127
93752,note_on,1,0,0,,3,,,75,127
93879,note_off,127,0,0,,3,,,75,127
93879,note_off,0,0,0,,12,,,59,127
93880,note_on,1,0,0,,7,,,55,127
93880,note_on,0,0,0,,3,,,75,127
93923,note_on,43,0,0,,2,,,74,127
93944,note_off,21,0,0,,3,,,75,127
93965,note_on,21,0,0,,3,,,75,127
93986,note_off,21,0,0,,2,,,74,127
94007,note_on,21,0,0,,2,,,74,127
94028,note_off,21,0,0,,3,,,75,127
94133,note_off,105,0,0,,7,,,55,127
94133,note_off,0,0,0,,2,,,62,127
94134,note_on,1,0,0,,0,,,60,127
94134,note_on,0,0,0,,8,,,56,127
94261,note_off,127,0,0,,2,,,74,127
94262,note_on,1,0,0,,7,,,67,127
94389,note_off,127,0,0,,7,,,67,127
94389,note_off,0,0,0,,8,,,56,127
94390,note_on,1,0,0,,5,,,53,127
94390,note_on,0,0,0,,8,,,68,127
94517,note_off,127,0,0,,8,,,68,127
94518,note_on,1,0,0,,5,,,65,127
94645,note_off,127,0,0,,5,,,65,127
94645,note_off,0,0,0,,5,,,53,127
94645,note_off,0,0,0,,0,,,60,127
94646,note_on,1,0,0,,12,,,59,127
94646,note_on,0,0,0,,2,,,62,127
94646,note_on,0,0,0,,7,,,67,127
94773,note_off,127,0,0,,7,,,67,127
94774,note_on,1,0,0,,7,,,79,127
94901,note_off,127,0,0,,7,,,79,127
94901,note_off,0,0,0,,12,,,59,127
94902,note_on,1,0,0,,7,,,55,127
94902,note_on,0,0,0,,7,,,79,127
94945,note_on,43,0,0,,5,,,77,127
94966,note_off,21,0,0,,7,,,79,127
94987,note_on,21,0,0,,7,,,79,127
95008,note_off,21,0,0,,5,,,77,127
95029,note_on,21,0,0,,5,,,77,127
95050,note_off,21,0,0,,7,,,79,127
95155,note_off,105,0,0,,7,,,55,127
95155,note_off,0,0,0,,2,,,62,127
95156,note_on,1,0,0,,0,,,60,127
95156,note_on,0,0,0,,8,,,56,127
95283,note_off,127,0,0,,5,,,77,127
95284,note_on,1,0,0,,3,,,75,127
95411,note_off,127,0,0,,3,,,75,127
95411,note_off,0,0,0,,8,,,56,127
95412,note_on,1,0,0,,5,,,53,127
95412,note_on,0,0,0,,2,,,74,127
95539,note_off,127,0,0,,2,,,74,127
95540,note_on,1,0,0,,0,,,72,127
95667,note_off,127,0,0,,0,,,72,127
95667,note_off,0,0,0,,5,,,53,127
95667,note_off,0,0,0,,0,,,60,127
95668,note_on,1,0,0,,3,,,63,127
95668,note_on,0,0,0,,0,,,60,127
95668,note_on,0,0,0,,7,,,55,127
95668,note_on,0,0,0,,0,,,72,127
95923,note_off,255,0,0,,0,,,72,127
95923,note_off,0,0,0,,7,,,55,127
95923,note_off,0,0,0,,0,,,60,127
95923,note_off,0,0,0,,3,,,63,127
95924,note_on,1,0,0,,5,,,65,127
95924,note_on,0,0,0,,2,,,62,127
95924,note_on,0,0,0,,7,,,55,127
95924,note_on,0,0,0,,12,,,71,127
95987,note_off,63,0,0,,12,,,71,127
95988,note_on,1,0,0,,0,,,72,127
96051,note_off,63,0,0,,0,,,72,127
96052,note_on,1,0,0,,12,,,71,127
96179,note_off,127,0,0,,12,,,71,127
96179,note_off,0,0,0,,7,,,55,127
96179,note_off,0,0,0,,2,,,62,127
96179,note_off,0,0,0,,5,,,65,127
96180,note_on,1,0,0,,0,,,48,127
96180,note_on,0,0,0,,0,,,72,127
96307,note_off,127,0,0,,0,,,72,127
96308,note_on,1,0,0,,7,,,79,127
96435,note_off,127,0,0,,7,,,79,127
96435,note_off,0,0,0,,0,,,48,127
96436,note_on,1,0,0,,0,,,60,127
96436,note_on,0,0,0,,8,,,80,127
96563,note_off,127,0,0,,8,,,80,127
96564,note_on,1,0,0,,5,,,77,127
96691,note_off,127,0,0,,5,,,77,127
96691,note_off,0,0,0,,0,,,60,127
96692,note_on,1,0,0,,2,,,62,127
96692,note_on,0,0,0,,12,,,59,127
96692,note_on,0,0,0,,7,,,79,127
96819,note_off,127,0,0,,7,,,79,127
96820,note_on,1,0,0,,3,,,75,127
96947,note_off,127,0,0,,3,,,75,127
96947,note_off,0,0,0,,12,,,59,127
96948,note_on,1,0,0,,7,,,55,127
96948,note_on,0,0,0,,3,,,75,127
96991,note_on,43,0,0,,2,,,74,127
97012,note_off,21,0,0,,3,,,75,127
97033,note_on,21,0,0,,3,,,75,127
97054,note_off,21,0,0,,2,,,74,127
97075,note_on,21,0,0,,2,,,74,127
97096,note_off,21,0,0,,3,,,75,127
97201,note_off,105,0,0,,7,,,55,127
97201,note_off,0,0,0,,2,,,62,127
97202,note_on,1,0,0,,8,,,56,127
97202,note_on,0,0,0,,0,,,60,127
97329,note_off,127,0,0,,2,,,74,127
97330,note_on,1,0,0,,7,,,79,127
97457,note_off,127,0,0,,7,,,79,127
97457,note_off,0,0,0,,8,,,56,127
97458,note_on,1,0,0,,5,,,53,127
97458,note_on,0,0,0,,8,,,80,127
97585,note_off,127,0,0,,8,,,80,127
97586,note_on,1,0,0,,5,,,77,127
97713,note_off,127,0,0,,5,,,77,127
97713,note_off,0,0,0,,5,,,53,127
97713,note_off,0,0,0,,0,,,60,127
97714,note_on,1,0,0,,12,,,59,127
97714,note_on,0,0,0,,2,,,62,127
97714,note_on,0,0,0,,7,,,79,127
97841,note_off,127,0,0,,7,,,79,127
97842,note_on,1,0,0,,0,,,72,127
97969,note_off,127,0,0,,0,,,72,127
97969,note_off,0,0,0,,12,,,59,127
97970,note_on,1,0,0,,7,,,55,127
97970,note_on,0,0,0,,0,,,72,127
98013,note_on,43,0,0,,12,,,71,127
98034,note_off,21,0,0,,0,,,72,127
98055,note_on,21,0,0,,0,,,72,127
98076,note_off,21,0,0,,12,,,71,127
98097,note_on,21,0,0,,12,,,71,127
98118,note_off,21,0,0,,0,,,72,127
98223,note_off,105,0,0,,7,,,55,127
98223,note_off,0,0,0,,2,,,62,127
98224,note_on,1,0,0,,0,,,60,127
98224,note_on,0,0,0,,8,,,56,127
98351,note_off,127,0,0,,12,,,71,127
98352,note_on,1,0,0,,7,,,79,127
98479,note_off,127,0,0,,7,,,79,127
98479,note_off,0,0,0,,8,,,56,127
98480,note_on,1,0,0,,5,,,53,127
98480,note_on,0,0,0,,8,,,80,127
98607,note_off,127,0,0,,8,,,80,127
98608,note_on,1,0,0,,5,,,77,127
98735,note_off,127,0,0,,5,,,77,127
98735,note_off,0,0,0,,5,,,53,127
98735,note_off,0,0,0,,0,,,60,127
98736,note_on,1,0,0,,2,,,62,127
98736,note_on,0,0,0,,12,,,59,127
98736,note_on,0,0,0,,7,,,79,127
98863,note_off,127,0,0,,7,,,79,127
98864,note_on,1,0,0,,8,,,68,127
98991,note_off,127,0,0,,8,,,68,127
98991,note_off,0,0,0,,12,,,59,127
98992,note_on,1,0,0,,7,,,55,127
98992,note_on,0,0,0,,7,,,67,127
99119,note_off,127,0,0,,7,,,67,127
99120,note_on,1,0,0,,5,,,65,127
99247,note_off,127,0,0,,5,,,65,127
99247,note_off,0,0,0,,7,,,55,127
99247,note_off,0,0,0,,2,,,62,127
99248,note_on,1,0,0,,0,,,60,127
99248,note_on,0,0,0,,5,,,65,127
99375,note_off,127,0,0,,5,,,65,127
99376,note_on,1,0,0,,3,,,63,127
99503,note_off,127,0,0,,3,,,63,127
99503,note_off,0,0,0,,0,,,60,127
99504,note_on,1,0,0,,5,,,53,127
99504,note_on,0,0,0,,2,,,62,127
99631,note_off,127,0,0,,2,,,62,127
99632,note_on,1,0,0,,0,,,60,127
99759,note_off,127,0,0,,0,,,60,127
99759,note_off,0,0,0,,5,,,53,127
99760,note_on,1,0,0,,7,,,55,127
99760,note_on,0,0,0,,7,,,67,127
99887,note_off,127,0,0,,7,,,67,127
99888,note_on,1,0,0,,5,,,65,127
100015,note_off,127,0,0,,5,,,65,127
100016,note_on,1,0,0,,7,,,43,127
100016,note_on,0,0,0,,3,,,63,127
100143,note_off,127,0,0,,3,,,63,127
100144,note_on,1,0,0,,2,,,62,127
100271,note_off,127,0,0,,2,,,62,127
100271,note_off,0,0,0,,7,,,43,127
100271,note_off,0,0,0,,7,,,55,127
100272,note_on,1,0,0,,0,,,48,127
100272,note_on,0,0,0,,0,,,60,127
100527,note_off,255,0,0,,0,,,60,127
100527,note_off,0,0,0,,0,,,48,127
100528,note_on,1,0,0,,12,,,59,127
100528,note_on,0,0,0,,3,,,63,127
100571,note_on,43,0,0,,2,,,62,127
100592,note_off,21,0,0,,3,,,63,127
100613,note_on,21,0,0,,3,,,63,127
100634,note_off,21,0,0,,2,,,62,127
100655,note_on,21,0,0,,2,,,62,127
100676,note_off,21,0,0,,3,,,63,127
100697,note_on,21,0,0,,3,,,63,127
100718,note_off,21,0,0,,2,,,62,127
100739,note_on,21,0,0,,2,,,62,127
100760,note_off,21,0,0,,3,,,63,127
100780,note_off,20,0,0,,12,,,59,127
100781,note_on,1,0,0,,0,,,60,127
100781,note_on,0,0,0,,5,,,65,127
100802,note_off,21,0,0,,2,,,62,127
100823,note_on,21,0,0,,3,,,63,127
100844,note_off,21,0,0,,5,,,65,127
100865,note_on,21,0,0,,5,,,65,127
100886,note_off,21,0,0,,3,,,63,127
100907,note_on,21,0,0,,3,,,63,127
100928,note_off,21,0,0,,5,,,65,127
100949,note_on,21,0,0,,5,,,65,127
100970,note_off,21,0,0,,3,,,63,127
100991,note_on,21,0,0,,3,,,63,127
101012,note_off,21,0,0,,5,,,65,127
101032,note_off,20,0,0,,0,,,60,127
101033,note_on,1,0,0,,11,,,58,127
101033,note_on,0,0,0,,5,,,65,127
101054,note_off,21,0,0,,3,,,63,127
101075,note_on,21,0,0,,4,,,64,127
101096,note_off,21,0,0,,5,,,65,127
101117,note_on,21,0,0,,5,,,65,127
101138,note_off,21,0,0,,4,,,64,127
101159,note_on,21,0,0,,4,,,64,127
101180,note_off,21,0,0,,5,,,65,127
101201,note_on,21,0,0,,5,,,65,127
101222,note_off,21,0,0,,4,,,64,127
101243,note_on,21,0,0,,4,,,64,127
101264,note_off,21,0,0,,5,,,65,127
101284,note_off,20,0,0,,11,,,58,127
101285,note_on,1,0,0,,0,,,60,127
101285,note_on,0,0,0,,8,,,56,127
101285,note_on,0,0,0,,7,,,67,127
101306,note_off,21,0,0,,4,,,64,127
101327,note_on,21,0,0,,5,,,65,127
101348,note_off,21,0,0,,7,,,67,127
101369,note_on,21,0,0,,7,,,67,127
101390,note_off,21,0,0,,5,,,65,127
101411,note_on,21,0,0,,5,,,65,127
101432,note_off,21,0,0,,7,,,67,127
101453,note_on,21,0,0,,7,,,67,127
101474,note_off,21,0,0,,5,,,65,127
101495,note_on,21,0,0,,5,,,65,127
101516,note_off,21,0,0,,7,,,67,127
101536,note_off,20,0,0,,8,,,56,127
101536,note_off,0,0,0,,0,,,60,127
101537,note_on,1,0,0,,7,,,55,127
101537,note_on,0,0,0,,11,,,58,127
101537,note_on,0,0,0,,8,,,68,127
101558,note_off,21,0,0,,5,,,65,127
101579,note_on,21,0,0,,7,,,67,127
101600,note_off,21,0,0,,8,,,68,127
101621,note_on,21,0,0,,8,,,68,127
101642,note_off,21,0,0,,7,,,67,127
101663,note_on,21,0,0,,7,,,67,127
101684,note_off,21,0,0,,8,,,68,127
101705,note_on,21,0,0,,8,,,68,127
101726,note_off,21,0,0,,7,,,67,127
101747,note_on,21,0,0,,7,,,67,127
101768,note_off,21,0,0,,8,,,68,127
101788,note_off,20,0,0,,11,,,58,127
101788,note_off,0,0,0,,7,,,55,127
101789,note_on,1,0,0,,0,,,60,127
101789,note_on,0,0,0,,5,,,53,127
101789,note_on,0,0,0,,11,,,70,127
101810,note_off,21,0,0,,7,,,67,127
101831,note_on,21,0,0,,8,,,68,127
101852,note_off,21,0,0,,11,,,70,127
101873,note_on,21,0,0,,11,,,70,127
101894,note_off,21,0,0,,8,,,68,127
101915,note_on,21,0,0,,8,,,68,127
101936,note_off,21,0,0,,11,,,70,127
101957,note_on,21,0,0,,11,,,70,127
101978,note_off,21,0,0,,8,,,68,127
101999,note_on,21,0,0,,8,,,68,127
102020,note_off,21,0,0,,11,,,70,127
102040,note_off,20,0,0,,5,,,53,127
102041,note_on,1,0,0,,3,,,51,127
102041,note_on,0,0,0,,11,,,70,127
102062,note_off,21,0,0,,8,,,68,127
102083,note_on,21,0,0,,10,,,69,127
102104,note_off,21,0,0,,11,,,70,127
102125,note_on,21,0,0,,11,,,70,127
102146,note_off,21,0,0,,10,,,69,127
102167,note_on,21,0,0,,10,,,69,127
102188,note_off,21,0,0,,11,,,70,127
102209,note_on,21,0,0,,11,,,70,127
102230,note_off,21,0,0,,10,,,69,127
102251,note_on,21,0,0,,10,,,69,127
102272,note_off,21,0,0,,11,,,70,127
102292,note_off,20,0,0,,3,,,51,127
102292,note_off,0,0,0,,0,,,60,127
102293,note_on,1,0,0,,12,,,59,127
102293,note_on,0,0,0,,2,,,50,127
102293,note_on,0,0,0,,0,,,72,127
102314,note_off,21,0,0,,10,,,69,127
102335,note_on,21,0,0,,12,,,71,127
102356,note_off,21,0,0,,0,,,72,127
102377,note_on,21,0,0,,0,,,72,127
102398,note_off,21,0,0,,12,,,71,127
102419,note_on,21,0,0,,12,,,71,127
102440,note_off,21,0,0,,0,,,72,127
102461,note_on,21,0,0,,0,,,72,127
102482,note_off,21,0,0,,12,,,71,127
102503,note_on,21,0,0,,12,,,71,127
102524,note_off,21,0,0,,0,,,72,127
102544,note_off,20,0,0,,2,,,50,127
102544,note_off,0,0,0,,12,,,59,127
102545,note_on,1,0,0,,0,,,60,127
102545,note_on,0,0,0,,0,,,48,127
102545,note_on,0,0,0,,0,,,72,127
102566,note_off,21,0,0,,12,,,71,127
102671,note_off,105,0,0,,0,,,72,127
102672,note_on,1,0,0,,2,,,74,127
102799,note_off,127,0,0,,2,,,74,127
102799,note_off,0,0,0,,0,,,48,127
102799,note_off,0,0,0,,0,,,60,127
102800,note_on,1,0,0,,7,,,55,127
102800,note_on,0,0,0,,3,,,63,127
102800,note_on,0,0,0,,3,,,75,127
102927,note_off,127,0,0,,3,,,75,127
102928,note_on,1,0,0,,0,,,72,127
103055,note_off,127,0,0,,0,,,72,127
103055,note_off,0,0,0,,3,,,63,127
103055,note_off,0,0,0,,7,,,55,127
103056,note_on,1,0,0,,2,,,62,127
103056,note_on,0,0,0,,5,,,65,127
103056,note_on,0,0,0,,7,,,55,127
103056,note_on,0,0,0,,2,,,74,127
103183,note_off,127,0,0,,2,,,74,127
103184,note_on,1,0,0,,12,,,71,127
103311,note_off,127,0,0,,12,,,71,127
103311,note_off,0,0,0,,7,,,55,127
103311,note_off,0,0,0,,5,,,65,127
103311,note_off,0,0,0,,2,,,62,127
103312,note_on,1,0,0,,0,,,60,127
103312,note_on,0,0,0,,0,,,72,127
103567,note_off,255,0,0,,0,,,72,127
103567,note_off,0,0,0,,0,,,60,127
103568,note_on,1,0,0,,12,,,71,127
103568,note_on,0,0,0,,3,,,75,127
103611,note_on,43,0,0,,2,,,74,127
103632,note_off,21,0,0,,3,,,75,127
103653,note_on,21,0,0,,3,,,75,127
103674,note_off,21,0,0,,2,,,74,127
103695,note_on,21,0,0,,2,,,74,127
103716,note_off,21,0,0,,3,,,75,127
103737,note_on,21,0,0,,3,,,75,127
103758,note_off,21,0,0,,2,,,74,127
103779,note_on,21,0,0,,2,,,74,127
103800,note_off,21,0,0,,3,,,75,127
103820,note_off,20,0,0,,12,,,71,127
103821,note_on,1,0,0,,0,,,72,127
103821,note_on,0,0,0,,5,,,77,127
103842,note_off,21,0,0,,2,,,74,127
103863,note_on,21,0,0,,3,,,75,127
103884,note_off,21,0,0,,5,,,77,127
103905,note_on,21,0,0,,5,,,77,127
103926,note_off,21,0,0,,3,,,75,127
103947,note_on,21,0,0,,3,,,75,127
103968,note_off,21,0,0,,5,,,77,127
103989,note_on,21,0,0,,5,,,77,127
104010,note_off,21,0,0,,3,,,75,127
104031,note_on,21,0,0,,3,,,75,127
104052,note_off,21,0,0,,5,,,77,127
104072,note_off,20,0,0,,0,,,72,127
104073,note_on,1,0,0,,11,,,70,127
104073,note_on,0,0,0,,5,,,77,127
104094,note_off,21,0,0,,3,,,75,127
104115,note_on,21,0,0,,4,,,76,127
104136,note_off,21,0,0,,5,,,77,127
104157,note_on,21,0,0,,5,,,77,127
104178,note_off,21,0,0,,4,,,76,127
104199,note_on,21,0,0,,4,,,76,127
104220,note_off,21,0,0,,5,,,77,127
104241,note_on,21,0,0,,5,,,77,127
104262,note_off,21,0,0,,4,,,76,127
104283,note_on,21,0,0,,4,,,76,127
104304,note_off,21,0,0,,5,,,77,127
104324,note_off,20,0,0,,11,,,70,127
104325,note_on,1,0,0,,0,,,72,127
104325,note_on,0,0,0,,8,,,68,127
104325,note_on,0,0,0,,7,,,79,127
104346,note_off,21,0,0,,4,,,76,127
104367,note_on,21,0,0,,5,,,77,127
104388,note_off,21,0,0,,7,,,79,127
104409,note_on,21,0,0,,7,,,79,127
104430,note_off,21,0,0,,5,,,77,127
104451,note_on,21,0,0,,5,,,77,127
104472,note_off,21,0,0,,7,,,79,127
104493,note_on,21,0,0,,7,,,79,127
104514,note_off,21,0,0,,5,,,77,127
104535,note_on,21,0,0,,5,,,77,127
104556,note_off,21,0,0,,7,,,79,127
104576,note_off,20,0,0,,8,,,68,127
104576,note_off,0,0,0,,0,,,72,127
104577,note_on,1,0,0,,7,,,67,127
104577,note_on,0,0,0,,11,,,70,127
104577,note_on,0,0,0,,8,,,80,127
104598,note_off,21,0,0,,5,,,77,127
104619,note_on,21,0,0,,7,,,79,127
104640,note_off,21,0,0,,8,,,80,127
104661,note_on,21,0,0,,8,,,80,127
104682,note_off,21,0,0,,7,,,79,127
104703,note_on,21,0,0,,7,,,79,127
104724,note_off,21,0,0,,8,,,80,127
104745,note_on,21,0,0,,8,,,80,127
104766,note_off,21,0,0,,7,,,79,127
104787,note_on,21,0,0,,7,,,79,127
104808,note_off,21,0,0,,8,,,80,127
104828,note_off,20,0,0,,11,,,70,127
104828,note_off,0,0,0,,7,,,67,127
104829,note_on,1,0,0,,0,,,72,127
104829,note_on,0,0,0,,5,,,65,127
104829,note_on,0,0,0,,11,,,82,127
104850,note_off,21,0,0,,7,,,79,127
104871,note_on,21,0,0,,8,,,80,127
104892,note_off,21,0,0,,11,,,82,127
104913,note_on,21,0,0,,11,,,82,127
104934,note_off,21,0,0,,8,,,80,127
104955,note_on,21,0,0,,8,,,80,127
104976,note_off,21,0,0,,11,,,82,127
104997,note_on,21,0,0,,11,,,82,127
105018,note_off,21,0,0,,8,,,80,127
105039,note_on,21,0,0,,8,,,80,127
105060,note_off,21,0,0,,11,,,82,127
105080,note_off,20,0,0,,5,,,65,127
105081,note_on,1,0,0,,3,,,63,127
105081,note_on,0,0,0,,11,,,82,127
105102,note_off,21,0,0,,8,,,80,127
105123,note_on,21,0,0,,10,,,81,127
105144,note_off,21,0,0,,11,,,82,127
105165,note_on,21,0,0,,11,,,82,127
105186,note_off,21,0,0,,10,,,81,127
105207,note_on,21,0,0,,10,,,81,127
105228,note_off,21,0,0,,11,,,82,127
105249,note_on,21,0,0,,11,,,82,127
105270,note_off,21,0,0,,10,,,81,127
105291,note_on,21,0,0,,10,,,81,127
105312,note_off,21,0,0,,11,,,82,127
105332,note_off,20,0,0,,3,,,63,127
105332,note_off,0,0,0,,0,,,72,127
105333,note_on,1,0,0,,2,,,62,127
105333,note_on,0,0,0,,12,,,71,127
105333,note_on,0,0,0,,0,,,84,127
105354,note_off,21,0,0,,10,,,81,127
105375,note_on,21,0,0,,12,,,83,127
105396,note_off,21,0,0,,0,,,84,127
105417,note_on,21,0,0,,0,,,84,127
105438,note_off,21,0,0,,12,,,83,127
105459,note_on,21,0,0,,12,,,83,127
105480,note_off,21,0,0,,0,,,84,127
105501,note_on,21,0,0,,0,,,84,127
105522,note_off,21,0,0,,12,,,83,127
105543,note_on,21,0,0,,12,,,83,127
105564,note_off,21,0,0,,0,,,84,127
105584,note_off,20,0,0,,12,,,71,127
105584,note_off,0,0,0,,2,,,62,127
105585,note_on,1,0,0,,12,,,71,127
105585,note_on,0,0,0,,0,,,72,127
105585,note_on,0,0,0,,0,,,60,127
105585,note_on,0,0,0,,0,,,84,127
105606,note_off,21,0,0,,12,,,83,127
105711,note_off,105,0,0,,0,,,84,127
105712,note_on,1,0,0,,2,,,86,127
105839,note_off,127,0,0,,2,,,86,127
105839,note_off,0,0,0,,0,,,60,127
105839,note_off,0,0,0,,0,,,72,127
105839,note_off,0,0,0,,12,,,71,127
105840,note_on,1,0,0,,7,,,67,127
105840,note_on,0,0,0,,3,,,75,127
105967,note_off,127,0,0,,3,,,75,127
105968,note_on,1,0,0,,0,,,84,127
106095,note_off,127,0,0,,0,,,84,127
106095,note_off,0,0,0,,7,,,67,127
106096,note_on,1,0,0,,7,,,55,127
106096,note_on,0,0,0,,2,,,74,127
106223,note_off,127,0,0,,2,,,74,127
106224,note_on,1,0,0,,12,,,83,127
106351,note_off,127,0,0,,12,,,83,127
106351,note_off,0,0,0,,7,,,55,127
106352,note_on,1,0,0,,0,,,60,127
106352,note_on,0,0,0,,0,,,84,127
106479,note_off,127,0,0,,0,,,84,127
106480,note_on,1,0,0,,8,,,80,127
106607,note_off,127,0,0,,8,,,80,127
106607,note_off,0,0,0,,0,,,60,127
106608,note_on,1,0,0,,0,,,60,127
106608,note_on,0,0,0,,11,,,82,127
106735,note_off,127,0,0,,11,,,82,127
106736,note_on,1,0,0,,7,,,79,127
106863,note_off,127,0,0,,7,,,79,127
106863,note_off,0,0,0,,0,,,60,127
106864,note_on,1,0,0,,0,,,72,127
106864,note_on,0,0,0,,8,,,80,127
106991,note_off,127,0,0,,8,,,80,127
106992,note_on,1,0,0,,5,,,77,127
107119,note_off,127,0,0,,5,,,77,127
107120,note_on,1,0,0,,3,,,63,127
107120,note_on,0,0,0,,7,,,79,127
107247,note_off,127,0,0,,7,,,79,127
107248,note_on,1,0,0,,3,,,75,127
107375,note_off,127,0,0,,3,,,75,127
107375,note_off,0,0,0,,3,,,63,127
107375,note_off,0,0,0,,0,,,72,127
107376,note_on,1,0,0,,12,,,71,127
107376,note_on,0,0,0,,2,,,62,127
107376,note_on,0,0,0,,7,,,79,127
107503,note_off,127,0,0,,7,,,79,127
107504,note_on,1,0,0,,5,,,77,127
107631,note_off,127,0,0,,5,,,77,127
107631,note_off,0,0,0,,2,,,62,127
107631,note_off,0,0,0,,12,,,71,127
107632,note_on,1,0,0,,0,,,72,127
107632,note_on,0,0,0,,0,,,60,127
107632,note_on,0,0,0,,3,,,75,127
107759,note_off,127,0,0,,3,,,75,127
107760,note_on,1,0,0,,2,,,74,127
107887,note_off,127,0,0,,2,,,74,127
107887,note_off,0,0,0,,0,,,60,127
107887,note_off,0,0,0,,0,,,72,127
107888,note_on,1,0,0,,7,,,67,127
107888,note_on,0,0,0,,3,,,75,127
108015,note_off,127,0,0,,3,,,75,127
108016,note_on,1,0,0,,0,,,72,127
108143,note_off,127,0,0,,0,,,72,127
108144,note_on,1,0,0,,7,,,55,127
108144,note_on,0,0,0,,2,,,74,127
108271,note_off,127,0,0,,2,,,74,127
108272,note_on,1,0,0,,12,,,71,127
108399,note_off,127,0,0,,12,,,71,127
108399,note_off,0,0,0,,7,,,55,127
108399,note_off,0,0,0,,7,,,67,127
108400,note_on,1,0,0,,0,,,48,127
108400,note_on,0,0,0,,0,,,72,127
108527,note_off,127,0,0,,0,,,72,127
108528,note_on,1,0,0,,8,,,68,127
108655,note_off,127,0,0,,8,,,68,127
108655,note_off,0,0,0,,0,,,48,127
108656,note_on,1,0,0,,0,,,60,127
108656,note_on,0,0,0,,11,,,70,127
108783,note_off,127,0,0,,11,,,70,127
108784,note_on,1,0,0,,7,,,67,127
108911,note_off,127,0,0,,7,,,67,127
108911,note_off,0,0,0,,0,,,60,127
108912,note_on,1,0,0,,0,,,60,127
108912,note_on,0,0,0,,5,,,53,127
108912,note_on,0,0,0,,8,,,68,127
109039,note_off,127,0,0,,8,,,68,127
109040,note_on,1,0,0,,5,,,65,127
109167,note_off,127,0,0,,5,,,65,127
109167,note_off,0,0,0,,5,,,53,127
109168,note_on,1,0,0,,3,,,51,127
109168,note_on,0,0,0,,7,,,67,127
109295,note_off,127,0,0,,7,,,67,127
109296,note_on,1,0,0,,3,,,63,127
109423,note_off,127,0,0,,3,,,63,127
109423,note_off,0,0,0,,3,,,51,127
109423,note_off,0,0,0,,0,,,60,127
109424,note_on,1,0,0,,2,,,50,127
109424,note_on,0,0,0,,12,,,59,127
109424,note_on,0,0,0,,7,,,67,127
109551,note_off,127,0,0,,7,,,67,127
109552,note_on,1,0,0,,5,,,65,127
109679,note_off,127,0,0,,5,,,65,127
109679,note_off,0,0,0,,12,,,59,127
109679,note_off,0,0,0,,2,,,50,127
109680,note_on,1,0,0,,0,,,60,127
109680,note_on,0,0,0,,0,,,48,127
109680,note_on,0,0,0,,3,,,63,127
109807,note_off,127,0,0,,3,,,63,127
109808,note_on,1,0,0,,2,,,62,127
109935,note_off,127,0,0,,2,,,62,127
109935,note_off,0,0,0,,0,,,48,127
109935,note_off,0,0,0,,0,,,60,127
109936,note_on,1,0,0,,7,,,55,127
109936,note_on,0,0,0,,3,,,63,127
110063,note_off,127,0,0,,3,,,63,127
110064,note_on,1,0,0,,0,,,60,127
110191,note_off,127,0,0,,0,,,60,127
110192,note_on,1,0,0,,7,,,43,127
110192,note_on,0,0,0,,2,,,62,127
110319,note_off,127,0,0,,2,,,62,127
110320,note_on,1,0,0,,12,,,59,127
110447,note_off,127,0,0,,12,,,59,127
110447,note_off,0,0,0,,7,,,43,127
110447,note_off,0,0,0,,7,,,55,127
110472,note_on,25,0,0,,0,,,48,127
110472,note_on,0,0,0,,0,,,36,127
110472,note_on,0,0,0,,0,,,60,127
112339,note_off,1867,0,0,,0,,,60,127
112339,note_off,0,0,0,,0,,,36,127
112339,note_off,0,0,0,,0,,,48,127
118272,end_of_track,5933,1,0,,,,,,
