tick,type,time,meta,track,program,channel,pitch,tempo,note,velocity
0,copyright,0,1,0,,,,,,
0,program_change,0,0,0,6,0,,,,
0,pitchwheel,0,0,0,,0,0,,,
0,program_change,0,0,0,6,1,,,,
0,pitchwheel,0,0,0,,1,-590,,,
0,program_change,0,0,0,6,2,,,,
0,pitchwheel,0,0,0,,2,-272,,,
0,program_change,0,0,0,6,3,,,,
0,pitchwheel,0,0,0,,3,-353,,,
0,program_change,0,0,0,6,4,,,,
0,pitchwheel,0,0,0,,4,-560,,,
0,program_change,0,0,0,6,5,,,,
0,pitchwheel,0,0,0,,5,-80,,,
0,program_change,0,0,0,6,6,,,,
0,pitchwheel,0,0,0,,6,-625,,,
0,program_change,0,0,0,6,7,,,,
0,pitchwheel,0,0,0,,7,-130,,,
0,program_change,0,0,0,6,8,,,,
0,pitchwheel,0,0,0,,8,-512,,,
0,program_change,0,0,0,6,10,,,,
0,pitchwheel,0,0,0,,10,-464,,,
0,program_change,0,0,0,6,11,,,,
0,pitchwheel,0,0,0,,11,-208,,,
0,program_change,0,0,0,6,12,,,,
0,pitchwheel,0,0,0,,12,-553,,,
0,set_tempo,0,1,0,,,,500000,,
154,note_on,154,0,0,,2,,,62,127
301,note_off,147,0,0,,2,,,62,127
307,note_on,6,0,0,,6,,,66,127
454,note_off,147,0,0,,6,,,66,127
460,note_on,6,0,0,,10,,,69,127
607,note_off,147,0,0,,10,,,69,127
613,note_on,6,0,0,,2,,,74,127
760,note_off,147,0,0,,2,,,74,127
766,note_on,6,0,0,,2,,,74,127
766,note_on,0,0,0,,10,,,81,127
913,note_off,147,0,0,,2,,,74,127
919,note_on,6,0,0,,10,,,69,127
1066,note_off,147,0,0,,10,,,69,127
1072,note_on,6,0,0,,6,,,66,127
1219,note_off,147,0,0,,6,,,66,127
1225,note_on,6,0,0,,2,,,62,127
1372,note_off,147,0,0,,2,,,62,127
1378,note_on,6,0,0,,10,,,57,127
1679,note_off,301,0,0,,10,,,81,127
1685,note_on,6,0,0,,7,,,79,127
1832,note_off,147,0,0,,7,,,79,127
1838,note_on,6,0,0,,6,,,78,127
1985,note_off,147,0,0,,6,,,78,127
1985,note_off,0,0,0,,10,,,57,127
1991,note_on,6,0,0,,7,,,67,127
1991,note_on,0,0,0,,6,,,78,127
2138,note_off,147,0,0,,6,,,78,127
2144,note_on,6,0,0,,4,,,76,127
2291,note_off,147,0,0,,4,,,76,127
2297,note_on,6,0,0,,2,,,74,127
2444,note_off,147,0,0,,2,,,74,127
2450,note_on,6,0,0,,1,,,73,127
2597,note_off,147,0,0,,1,,,73,127
2597,note_off,0,0,0,,7,,,67,127
2603,note_on,6,0,0,,6,,,66,127
2603,note_on,0,0,0,,1,,,73,127
2750,note_off,147,0,0,,1,,,73,127
2750,note_off,0,0,0,,6,,,66,127
2756,note_on,6,0,0,,10,,,69,127
2756,note_on,0,0,0,,2,,,74,127
2903,note_off,147,0,0,,10,,,69,127
2909,note_on,6,0,0,,6,,,66,127
3056,note_off,147,0,0,,6,,,66,127
3056,note_off,0,0,0,,2,,,74,127
3062,note_on,6,0,0,,2,,,62,127
3062,note_on,0,0,0,,10,,,69,127
3062,note_on,0,0,0,,10,,,81,127
3209,note_off,147,0,0,,10,,,81,127
3209,note_off,0,0,0,,10,,,69,127
3209,note_off,0,0,0,,2,,,62,127
3215,note_on,6,0,0,,10,,,57,127
3215,note_on,0,0,0,,12,,,71,127
3215,note_on,0,0,0,,7,,,79,127
3362,note_off,147,0,0,,7,,,79,127
3362,note_off,0,0,0,,12,,,71,127
3368,note_on,6,0,0,,10,,,69,127
3368,note_on,0,0,0,,6,,,78,127
3515,note_off,147,0,0,,6,,,78,127
3515,note_off,0,0,0,,10,,,69,127
3521,note_on,6,0,0,,12,,,71,127
3521,note_on,0,0,0,,7,,,79,127
3668,note_off,147,0,0,,7,,,79,127
3668,note_off,0,0,0,,12,,,71,127
3674,note_on,6,0,0,,1,,,73,127
3674,note_on,0,0,0,,4,,,76,127
3821,note_off,147,0,0,,4,,,76,127
3821,note_off,0,0,0,,1,,,73,127
3821,note_off,0,0,0,,10,,,57,127
3827,note_on,6,0,0,,2,,,62,127
3827,note_on,0,0,0,,2,,,74,127
3827,note_on,0,0,0,,6,,,78,127
3974,note_off,147,0,0,,2,,,62,127
3980,note_on,6,0,0,,10,,,57,127
4127,note_off,147,0,0,,10,,,57,127
4133,note_on,6,0,0,,6,,,54,127
4280,note_off,147,0,0,,6,,,54,127
4280,note_off,0,0,0,,6,,,78,127
4280,note_off,0,0,0,,2,,,74,127
4286,note_on,6,0,0,,2,,,50,127
4286,note_on,0,0,0,,10,,,69,127
4286,note_on,0,0,0,,10,,,81,127
4433,note_off,147,0,0,,10,,,81,127
4433,note_off,0,0,0,,10,,,69,127
4433,note_off,0,0,0,,2,,,50,127
4439,note_on,6,0,0,,10,,,45,127
4439,note_on,0,0,0,,12,,,71,127
4439,note_on,0,0,0,,7,,,79,127
4586,note_off,147,0,0,,7,,,79,127
4586,note_off,0,0,0,,12,,,71,127
4592,note_on,6,0,0,,10,,,69,127
4592,note_on,0,0,0,,6,,,78,127
4739,note_off,147,0,0,,6,,,78,127
4739,note_off,0,0,0,,10,,,69,127
4745,note_on,6,0,0,,12,,,71,127
4745,note_on,0,0,0,,7,,,79,127
4892,note_off,147,0,0,,7,,,79,127
4892,note_off,0,0,0,,12,,,71,127
4898,note_on,6,0,0,,1,,,73,127
4898,note_on,0,0,0,,4,,,76,127
5045,note_off,147,0,0,,4,,,76,127
5045,note_off,0,0,0,,1,,,73,127
5045,note_off,0,0,0,,10,,,45,127
5051,note_on,6,0,0,,2,,,50,127
5051,note_on,0,0,0,,2,,,74,127
5051,note_on,0,0,0,,6,,,78,127
5198,note_off,147,0,0,,2,,,50,127
5204,note_on,6,0,0,,10,,,45,127
5351,note_off,147,0,0,,10,,,45,127
5357,note_on,6,0,0,,6,,,42,127
5504,note_off,147,0,0,,6,,,42,127
5504,note_off,0,0,0,,6,,,78,127
5504,note_off,0,0,0,,2,,,74,127
5510,note_on,6,0,0,,2,,,38,127
5510,note_on,0,0,0,,10,,,69,127
5510,note_on,0,0,0,,10,,,81,127
5657,note_off,147,0,0,,10,,,81,127
5657,note_off,0,0,0,,10,,,69,127
5657,note_off,0,0,0,,2,,,38,127
5663,note_on,6,0,0,,10,,,33,127
5663,note_on,0,0,0,,12,,,71,127
5663,note_on,0,0,0,,7,,,79,127
5810,note_off,147,0,0,,7,,,79,127
5810,note_off,0,0,0,,12,,,71,127
5816,note_on,6,0,0,,10,,,69,127
5816,note_on,0,0,0,,6,,,78,127
5963,note_off,147,0,0,,6,,,78,127
5963,note_off,0,0,0,,10,,,69,127
5969,note_on,6,0,0,,12,,,71,127
5969,note_on,0,0,0,,7,,,79,127
6116,note_off,147,0,0,,7,,,79,127
6116,note_off,0,0,0,,12,,,71,127
6122,note_on,6,0,0,,1,,,73,127
6122,note_on,0,0,0,,4,,,76,127
6269,note_off,147,0,0,,4,,,76,127
6269,note_off,0,0,0,,1,,,73,127
6269,note_off,0,0,0,,10,,,33,127
6275,note_on,6,0,0,,2,,,38,127
6275,note_on,0,0,0,,2,,,74,127
6275,note_on,0,0,0,,6,,,78,127
6422,note_off,147,0,0,,6,,,78,127
6422,note_off,0,0,0,,2,,,74,127
6428,note_on,6,0,0,,4,,,76,127
6428,note_on,0,0,0,,7,,,79,127
6575,note_off,147,0,0,,7,,,79,127
6575,note_off,0,0,0,,4,,,76,127
6581,note_on,6,0,0,,6,,,78,127
6581,note_on,0,0,0,,10,,,81,127
6728,note_off,147,0,0,,10,,,81,127
6728,note_off,0,0,0,,6,,,78,127
6734,note_on,6,0,0,,2,,,74,127
6734,note_on,0,0,0,,6,,,78,127
6881,note_off,147,0,0,,6,,,78,127
6881,note_off,0,0,0,,2,,,74,127
6881,note_off,0,0,0,,2,,,38,127
6887,note_on,6,0,0,,7,,,43,127
6887,note_on,0,0,0,,7,,,79,127
6887,note_on,0,0,0,,12,,,83,127
7034,note_off,147,0,0,,12,,,83,127
7034,note_off,0,0,0,,7,,,79,127
7040,note_on,6,0,0,,6,,,78,127
7040,note_on,0,0,0,,10,,,81,127
7187,note_off,147,0,0,,10,,,81,127
7187,note_off,0,0,0,,6,,,78,127
7193,note_on,6,0,0,,4,,,76,127
7193,note_on,0,0,0,,7,,,79,127
7340,note_off,147,0,0,,7,,,79,127
7340,note_off,0,0,0,,4,,,76,127
7346,note_on,6,0,0,,2,,,74,127
7346,note_on,0,0,0,,6,,,78,127
7493,note_off,147,0,0,,6,,,78,127
7493,note_off,0,0,0,,2,,,74,127
7493,note_off,0,0,0,,7,,,43,127
7499,note_on,6,0,0,,10,,,45,127
7499,note_on,0,0,0,,1,,,73,127
7499,note_on,0,0,0,,4,,,76,127
7653,note_on,154,0,0,,12,,,71,127
7653,note_on,0,0,0,,2,,,74,127
7659,note_off,6,0,0,,4,,,76,127
7659,note_off,0,0,0,,1,,,73,127
7806,note_on,147,0,0,,1,,,49,127
7806,note_on,0,0,0,,10,,,69,127
7806,note_on,0,0,0,,1,,,73,127
7812,note_off,6,0,0,,2,,,74,127
7812,note_off,0,0,0,,12,,,71,127
7812,note_off,0,0,0,,10,,,45,127
7959,note_on,147,0,0,,7,,,67,127
7959,note_on,0,0,0,,12,,,71,127
7965,note_off,6,0,0,,1,,,73,127
7965,note_off,0,0,0,,10,,,69,127
8112,note_on,147,0,0,,2,,,50,127
8118,note_off,6,0,0,,1,,,49,127
8265,note_on,147,0,0,,6,,,66,127
8265,note_on,0,0,0,,10,,,69,127
8271,note_off,6,0,0,,12,,,71,127
8271,note_off,0,0,0,,7,,,67,127
8418,note_on,147,0,0,,7,,,55,127
8418,note_on,0,0,0,,4,,,64,127
8418,note_on,0,0,0,,7,,,67,127
8424,note_off,6,0,0,,10,,,69,127
8424,note_off,0,0,0,,6,,,66,127
8424,note_off,0,0,0,,2,,,50,127
8571,note_on,147,0,0,,2,,,62,127
8571,note_on,0,0,0,,6,,,66,127
8577,note_off,6,0,0,,7,,,67,127
8577,note_off,0,0,0,,4,,,64,127
8724,note_on,147,0,0,,10,,,45,127
8724,note_on,0,0,0,,10,,,57,127
8724,note_on,0,0,0,,4,,,64,127
8730,note_off,6,0,0,,6,,,66,127
8730,note_off,0,0,0,,2,,,62,127
8730,note_off,0,0,0,,7,,,55,127
8976,note_off,246,0,0,,4,,,64,127
8976,note_off,0,0,0,,10,,,57,127
9030,note_on,54,0,0,,10,,,57,127
9030,note_on,0,0,0,,4,,,64,127
9163,note_off,133,0,0,,4,,,64,127
9163,note_off,0,0,0,,10,,,57,127
9184,note_on,21,0,0,,2,,,62,127
9184,note_on,0,0,0,,6,,,66,127
9229,note_off,45,0,0,,10,,,45,127
9317,note_off,88,0,0,,6,,,66,127
9317,note_off,0,0,0,,2,,,62,127
9338,note_on,21,0,0,,10,,,33,127
9338,note_on,0,0,0,,10,,,57,127
9338,note_on,0,0,0,,4,,,64,127
9471,note_off,133,0,0,,4,,,64,127
9471,note_off,0,0,0,,10,,,57,127
9492,note_on,21,0,0,,6,,,54,127
9492,note_on,0,0,0,,2,,,62,127
9625,note_off,133,0,0,,2,,,62,127
9625,note_off,0,0,0,,6,,,54,127
9646,note_on,21,0,0,,10,,,57,127
9646,note_on,0,0,0,,4,,,64,127
9779,note_off,133,0,0,,4,,,64,127
9779,note_off,0,0,0,,10,,,57,127
9800,note_on,21,0,0,,2,,,62,127
9800,note_on,0,0,0,,6,,,66,127
9845,note_off,45,0,0,,10,,,33,127
9933,note_off,88,0,0,,6,,,66,127
9933,note_off,0,0,0,,2,,,62,127
9954,note_on,21,0,0,,10,,,45,127
9954,note_on,0,0,0,,10,,,33,127
9954,note_on,0,0,0,,10,,,57,127
9954,note_on,0,0,0,,4,,,64,127
10207,note_off,253,0,0,,4,,,64,127
10207,note_off,0,0,0,,10,,,57,127
10261,note_on,54,0,0,,10,,,57,127
10261,note_on,0,0,0,,4,,,64,127
10394,note_off,133,0,0,,4,,,64,127
10394,note_off,0,0,0,,10,,,57,127
10415,note_on,21,0,0,,2,,,62,127
10415,note_on,0,0,0,,6,,,66,127
10460,note_off,45,0,0,,10,,,33,127
10460,note_off,0,0,0,,10,,,45,127
10548,note_off,88,0,0,,6,,,66,127
10548,note_off,0,0,0,,2,,,62,127
10569,note_on,21,0,0,,10,,,33,127
10569,note_on,0,0,0,,10,,,57,127
10569,note_on,0,0,0,,4,,,64,127
10702,note_off,133,0,0,,4,,,64,127
10702,note_off,0,0,0,,10,,,57,127
10723,note_on,21,0,0,,6,,,54,127
10723,note_on,0,0,0,,2,,,62,127
10856,note_off,133,0,0,,2,,,62,127
10856,note_off,0,0,0,,6,,,54,127
10877,note_on,21,0,0,,10,,,57,127
10877,note_on,0,0,0,,4,,,64,127
11010,note_off,133,0,0,,4,,,64,127
11010,note_off,0,0,0,,10,,,57,127
11031,note_on,21,0,0,,2,,,62,127
11031,note_on,0,0,0,,6,,,66,127
11076,note_off,45,0,0,,10,,,33,127
11164,note_off,88,0,0,,6,,,66,127
11164,note_off,0,0,0,,2,,,62,127
11185,note_on,21,0,0,,10,,,33,127
11185,note_on,0,0,0,,10,,,57,127
11185,note_on,0,0,0,,4,,,64,127
11318,note_off,133,0,0,,4,,,64,127
11318,note_off,0,0,0,,10,,,57,127
11339,note_on,21,0,0,,6,,,54,127
11339,note_on,0,0,0,,2,,,62,127
11438,note_off,99,0,0,,10,,,33,127
11472,note_off,34,0,0,,2,,,62,127
11472,note_off,0,0,0,,6,,,54,127
11493,note_on,21,0,0,,10,,,33,127
11493,note_on,0,0,0,,10,,,57,127
11493,note_on,0,0,0,,4,,,64,127
11626,note_off,133,0,0,,4,,,64,127
11626,note_off,0,0,0,,10,,,57,127
11647,note_on,21,0,0,,2,,,62,127
11647,note_on,0,0,0,,6,,,66,127
11746,note_off,99,0,0,,10,,,33,127
11780,note_off,34,0,0,,6,,,66,127
11780,note_off,0,0,0,,2,,,62,127
11801,note_on,21,0,0,,10,,,33,127
11801,note_on,0,0,0,,10,,,57,127
11801,note_on,0,0,0,,4,,,64,127
11934,note_off,133,0,0,,4,,,64,127
11934,note_off,0,0,0,,10,,,57,127
11955,note_on,21,0,0,,6,,,54,127
11955,note_on,0,0,0,,2,,,62,127
12054,note_off,99,0,0,,10,,,33,127
12088,note_off,34,0,0,,2,,,62,127
12088,note_off,0,0,0,,6,,,54,127
12109,note_on,21,0,0,,10,,,33,127
12109,note_on,0,0,0,,10,,,57,127
12109,note_on,0,0,0,,4,,,64,127
12242,note_off,133,0,0,,4,,,64,127
12242,note_off,0,0,0,,10,,,57,127
12263,note_on,21,0,0,,2,,,62,127
12263,note_on,0,0,0,,6,,,66,127
12362,note_off,99,0,0,,10,,,33,127
12396,note_off,34,0,0,,6,,,66,127
12396,note_off,0,0,0,,2,,,62,127
12417,note_on,21,0,0,,10,,,45,127
12417,note_on,0,0,0,,10,,,57,127
12417,note_on,0,0,0,,6,,,66,127
12455,note_off,38,0,0,,6,,,66,127
12455,note_on,0,0,0,,4,,,64,127
12493,note_off,38,0,0,,4,,,64,127
12493,note_on,0,0,0,,6,,,66,127
12531,note_off,38,0,0,,6,,,66,127
12531,note_on,0,0,0,,4,,,64,127
12569,note_off,38,0,0,,4,,,64,127
12569,note_on,0,0,0,,6,,,66,127
12607,note_off,38,0,0,,6,,,66,127
12607,note_on,0,0,0,,4,,,64,127
13644,note_off,1037,0,0,,4,,,64,127
13644,note_off,0,0,0,,10,,,57,127
13644,note_off,0,0,0,,10,,,45,127
14258,note_on,614,0,0,,0,,,72,127
14258,note_on,0,0,0,,4,,,76,127
14412,note_off,154,0,0,,4,,,76,127
14412,note_off,0,0,0,,0,,,72,127
14566,note_on,154,0,0,,0,,,72,127
14566,note_on,0,0,0,,4,,,76,127
14643,note_off,77,0,0,,4,,,76,127
14720,note_off,77,0,0,,0,,,72,127
14720,note_on,0,0,0,,5,,,77,127
14797,note_off,77,0,0,,5,,,77,127
14874,note_on,77,0,0,,0,,,72,127
14874,note_on,0,0,0,,4,,,76,127
15028,note_off,154,0,0,,4,,,76,127
15028,note_off,0,0,0,,0,,,72,127
15182,note_on,154,0,0,,7,,,67,127
15182,note_on,0,0,0,,2,,,74,127
15336,note_off,154,0,0,,2,,,74,127
15336,note_off,0,0,0,,7,,,67,127
15490,note_on,154,0,0,,4,,,64,127
15490,note_on,0,0,0,,2,,,74,127
15528,note_off,38,0,0,,2,,,74,127
15528,note_on,0,0,0,,0,,,72,127
15566,note_off,38,0,0,,0,,,72,127
15566,note_on,0,0,0,,2,,,74,127
15604,note_off,38,0,0,,2,,,74,127
15604,note_on,0,0,0,,0,,,72,127
15719,note_off,115,0,0,,0,,,72,127
15719,note_off,0,0,0,,4,,,64,127
15796,note_on,77,0,0,,0,,,72,127
15873,note_off,77,0,0,,0,,,72,127
15950,note_on,77,0,0,,7,,,67,127
15950,note_on,0,0,0,,2,,,74,127
16027,note_off,77,0,0,,2,,,74,127
16027,note_off,0,0,0,,7,,,67,127
16104,note_on,77,0,0,,0,,,72,127
16104,note_on,0,0,0,,4,,,76,127
16181,note_off,77,0,0,,4,,,76,127
16181,note_off,0,0,0,,0,,,72,127
16258,note_on,77,0,0,,2,,,74,127
16258,note_on,0,0,0,,5,,,77,127
16335,note_off,77,0,0,,5,,,77,127
16335,note_off,0,0,0,,2,,,74,127
16412,note_on,77,0,0,,4,,,76,127
16412,note_on,0,0,0,,7,,,79,127
16489,note_off,77,0,0,,7,,,79,127
16489,note_off,0,0,0,,4,,,76,127
16566,note_on,77,0,0,,2,,,74,127
16566,note_on,0,0,0,,5,,,77,127
16643,note_off,77,0,0,,5,,,77,127
16643,note_off,0,0,0,,2,,,74,127
16720,note_on,77,0,0,,0,,,72,127
16720,note_on,0,0,0,,4,,,76,127
16874,note_off,154,0,0,,4,,,76,127
16874,note_off,0,0,0,,0,,,72,127
17028,note_on,154,0,0,,0,,,72,127
17028,note_on,0,0,0,,4,,,76,127
17105,note_off,77,0,0,,4,,,76,127
17182,note_off,77,0,0,,0,,,72,127
17182,note_on,0,0,0,,5,,,77,127
17259,note_off,77,0,0,,5,,,77,127
17336,note_on,77,0,0,,0,,,72,127
17336,note_on,0,0,0,,4,,,76,127
17490,note_off,154,0,0,,4,,,76,127
17490,note_off,0,0,0,,0,,,72,127
17644,note_on,154,0,0,,7,,,67,127
17644,note_on,0,0,0,,2,,,74,127
17798,note_off,154,0,0,,2,,,74,127
17798,note_off,0,0,0,,7,,,67,127
17952,note_on,154,0,0,,4,,,64,127
17952,note_on,0,0,0,,2,,,74,127
17990,note_off,38,0,0,,2,,,74,127
17990,note_on,0,0,0,,0,,,72,127
18028,note_off,38,0,0,,0,,,72,127
18028,note_on,0,0,0,,2,,,74,127
18066,note_off,38,0,0,,2,,,74,127
18066,note_on,0,0,0,,0,,,72,127
18181,note_off,115,0,0,,0,,,72,127
18181,note_off,0,0,0,,4,,,64,127
18258,note_on,77,0,0,,0,,,72,127
18335,note_off,77,0,0,,0,,,72,127
18412,note_on,77,0,0,,7,,,67,127
18412,note_on,0,0,0,,2,,,74,127
18489,note_off,77,0,0,,2,,,74,127
18489,note_off,0,0,0,,7,,,67,127
18566,note_on,77,0,0,,0,,,72,127
18566,note_on,0,0,0,,4,,,76,127
18643,note_off,77,0,0,,4,,,76,127
18643,note_off,0,0,0,,0,,,72,127
18720,note_on,77,0,0,,2,,,74,127
18720,note_on,0,0,0,,5,,,77,127
18797,note_off,77,0,0,,5,,,77,127
18797,note_off,0,0,0,,2,,,74,127
18874,note_on,77,0,0,,4,,,76,127
18874,note_on,0,0,0,,7,,,79,127
18951,note_off,77,0,0,,7,,,79,127
18951,note_off,0,0,0,,4,,,76,127
19028,note_on,77,0,0,,2,,,74,127
19028,note_on,0,0,0,,5,,,77,127
19105,note_off,77,0,0,,5,,,77,127
19105,note_off,0,0,0,,2,,,74,127
19182,note_on,77,0,0,,0,,,72,127
19182,note_on,0,0,0,,4,,,76,127
19259,note_off,77,0,0,,4,,,76,127
19259,note_off,0,0,0,,0,,,72,127
19336,note_on,77,0,0,,12,,,71,127
19336,note_on,0,0,0,,2,,,74,127
19413,note_off,77,0,0,,2,,,74,127
19413,note_off,0,0,0,,12,,,71,127
19490,note_on,77,0,0,,0,,,72,127
19490,note_on,0,0,0,,4,,,76,127
19567,note_off,77,0,0,,4,,,76,127
19567,note_off,0,0,0,,0,,,72,127
19644,note_on,77,0,0,,2,,,74,127
19644,note_on,0,0,0,,5,,,77,127
19721,note_off,77,0,0,,5,,,77,127
19721,note_off,0,0,0,,2,,,74,127
19798,note_on,77,0,0,,4,,,76,127
19798,note_on,0,0,0,,7,,,79,127
19875,note_off,77,0,0,,7,,,79,127
19875,note_off,0,0,0,,4,,,76,127
19952,note_on,77,0,0,,4,,,76,127
19952,note_on,0,0,0,,7,,,79,127
20029,note_off,77,0,0,,7,,,79,127
20029,note_off,0,0,0,,4,,,76,127
20106,note_on,77,0,0,,2,,,74,127
20106,note_on,0,0,0,,5,,,77,127
20183,note_off,77,0,0,,5,,,77,127
20183,note_off,0,0,0,,2,,,74,127
20260,note_on,77,0,0,,0,,,72,127
20260,note_on,0,0,0,,4,,,76,127
20337,note_off,77,0,0,,4,,,76,127
20337,note_off,0,0,0,,0,,,72,127
20414,note_on,77,0,0,,7,,,67,127
20414,note_on,0,0,0,,4,,,76,127
20452,note_off,38,0,0,,4,,,76,127
20452,note_on,0,0,0,,2,,,74,127
20490,note_off,38,0,0,,2,,,74,127
20490,note_on,0,0,0,,4,,,76,127
20528,note_off,38,0,0,,4,,,76,127
20528,note_on,0,0,0,,2,,,74,127
20566,note_off,38,0,0,,7,,,67,127
20643,note_off,77,0,0,,2,,,74,127
20720,note_on,77,0,0,,7,,,67,127
20720,note_on,0,0,0,,2,,,74,127
20797,note_off,77,0,0,,2,,,74,127
20797,note_off,0,0,0,,7,,,67,127
20874,note_on,77,0,0,,7,,,67,127
20874,note_on,0,0,0,,2,,,74,127
20951,note_off,77,0,0,,2,,,74,127
20951,note_off,0,0,0,,7,,,67,127
21028,note_on,77,0,0,,7,,,67,127
21028,note_on,0,0,0,,2,,,74,127
21105,note_off,77,0,0,,2,,,74,127
21105,note_off,0,0,0,,7,,,67,127
21182,note_on,77,0,0,,0,,,72,127
21182,note_on,0,0,0,,4,,,76,127
21259,note_off,77,0,0,,4,,,76,127
21259,note_off,0,0,0,,0,,,72,127
21336,note_on,77,0,0,,7,,,67,127
21336,note_on,0,0,0,,2,,,74,127
21413,note_off,77,0,0,,2,,,74,127
21413,note_off,0,0,0,,7,,,67,127
21490,note_on,77,0,0,,4,,,64,127
21490,note_on,0,0,0,,0,,,72,127
21567,note_off,77,0,0,,0,,,72,127
21567,note_off,0,0,0,,4,,,64,127
21644,note_on,77,0,0,,7,,,67,127
21644,note_on,0,0,0,,4,,,76,127
21682,note_off,38,0,0,,4,,,76,127
21682,note_on,0,0,0,,2,,,74,127
21720,note_off,38,0,0,,2,,,74,127
21720,note_on,0,0,0,,4,,,76,127
21758,note_off,38,0,0,,4,,,76,127
21758,note_on,0,0,0,,2,,,74,127
21796,note_off,38,0,0,,7,,,67,127
21873,note_off,77,0,0,,2,,,74,127
21950,note_on,77,0,0,,7,,,67,127
21950,note_on,0,0,0,,2,,,74,127
22027,note_off,77,0,0,,2,,,74,127
22027,note_off,0,0,0,,7,,,67,127
22104,note_on,77,0,0,,7,,,67,127
22104,note_on,0,0,0,,2,,,74,127
22181,note_off,77,0,0,,2,,,74,127
22181,note_off,0,0,0,,7,,,67,127
22258,note_on,77,0,0,,7,,,67,127
22258,note_on,0,0,0,,2,,,74,127
22335,note_off,77,0,0,,2,,,74,127
22335,note_off,0,0,0,,7,,,67,127
22412,note_on,77,0,0,,0,,,72,127
22412,note_on,0,0,0,,4,,,76,127
22489,note_off,77,0,0,,4,,,76,127
22489,note_off,0,0,0,,0,,,72,127
22566,note_on,77,0,0,,7,,,67,127
22566,note_on,0,0,0,,2,,,74,127
22643,note_off,77,0,0,,2,,,74,127
22643,note_off,0,0,0,,7,,,67,127
22720,note_on,77,0,0,,4,,,64,127
22720,note_on,0,0,0,,0,,,72,127
22797,note_off,77,0,0,,0,,,72,127
22797,note_off,0,0,0,,4,,,64,127
22874,note_on,77,0,0,,7,,,67,127
22874,note_on,0,0,0,,2,,,74,127
22951,note_off,77,0,0,,2,,,74,127
22951,note_off,0,0,0,,7,,,67,127
23028,note_on,77,0,0,,0,,,72,127
23028,note_on,0,0,0,,4,,,76,127
23105,note_off,77,0,0,,4,,,76,127
23105,note_off,0,0,0,,0,,,72,127
23182,note_on,77,0,0,,7,,,67,127
23182,note_on,0,0,0,,2,,,74,127
23259,note_off,77,0,0,,2,,,74,127
23259,note_off,0,0,0,,7,,,67,127
23336,note_on,77,0,0,,4,,,64,127
23336,note_on,0,0,0,,0,,,72,127
23413,note_off,77,0,0,,0,,,72,127
23413,note_off,0,0,0,,4,,,64,127
23490,note_on,77,0,0,,7,,,67,127
23490,note_on,0,0,0,,2,,,74,127
23567,note_off,77,0,0,,2,,,74,127
23567,note_off,0,0,0,,7,,,67,127
23644,note_on,77,0,0,,0,,,72,127
23644,note_on,0,0,0,,4,,,76,127
23721,note_off,77,0,0,,4,,,76,127
23721,note_off,0,0,0,,0,,,72,127
23798,note_on,77,0,0,,7,,,67,127
23798,note_on,0,0,0,,2,,,74,127
23875,note_off,77,0,0,,2,,,74,127
23875,note_off,0,0,0,,7,,,67,127
23952,note_on,77,0,0,,4,,,64,127
23952,note_on,0,0,0,,0,,,72,127
24029,note_off,77,0,0,,0,,,72,127
24029,note_off,0,0,0,,4,,,64,127
24106,note_on,77,0,0,,7,,,67,127
24106,note_on,0,0,0,,4,,,76,127
24144,note_off,38,0,0,,4,,,76,127
24144,note_on,0,0,0,,2,,,74,127
24182,note_off,38,0,0,,2,,,74,127
24182,note_on,0,0,0,,4,,,76,127
24220,note_off,38,0,0,,4,,,76,127
24220,note_on,0,0,0,,2,,,74,127
24258,note_off,38,0,0,,2,,,74,127
24258,note_on,0,0,0,,4,,,76,127
24296,note_off,38,0,0,,4,,,76,127
24296,note_on,0,0,0,,2,,,74,127
25333,note_off,1037,0,0,,2,,,74,127
25333,note_off,0,0,0,,7,,,67,127
25947,note_on,614,0,0,,2,,,74,127
26024,note_off,77,0,0,,2,,,74,127
26024,note_on,0,0,0,,4,,,76,127
26101,note_off,77,0,0,,4,,,76,127
26101,note_on,0,0,0,,5,,,77,127
26255,note_on,154,0,0,,5,,,65,127
26255,note_on,0,0,0,,2,,,62,127
26255,note_on,0,0,0,,10,,,57,127
26556,note_off,301,0,0,,10,,,57,127
26556,note_off,0,0,0,,2,,,62,127
26556,note_off,0,0,0,,5,,,65,127
26562,note_on,6,0,0,,4,,,64,127
26562,note_on,0,0,0,,8,,,56,127
26562,note_on,0,0,0,,2,,,62,127
26709,note_off,147,0,0,,5,,,77,127
26715,note_on,6,0,0,,2,,,74,127
26862,note_off,147,0,0,,2,,,74,127
26862,note_off,0,0,0,,2,,,62,127
26862,note_off,0,0,0,,8,,,56,127
26862,note_off,0,0,0,,4,,,64,127
26868,note_on,6,0,0,,4,,,64,127
26868,note_on,0,0,0,,8,,,56,127
26868,note_on,0,0,0,,2,,,62,127
26868,note_on,0,0,0,,0,,,72,127
27015,note_off,147,0,0,,0,,,72,127
27021,note_on,6,0,0,,12,,,71,127
27168,note_off,147,0,0,,12,,,71,127
27174,note_off,6,0,0,,2,,,62,127
27174,note_off,0,0,0,,8,,,56,127
27174,note_off,0,0,0,,4,,,64,127
27174,note_on,0,0,0,,2,,,74,127
27251,note_off,77,0,0,,2,,,74,127
27251,note_on,0,0,0,,4,,,76,127
27328,note_off,77,0,0,,4,,,76,127
27328,note_on,0,0,0,,5,,,77,127
27482,note_on,154,0,0,,5,,,65,127
27482,note_on,0,0,0,,10,,,57,127
27482,note_on,0,0,0,,2,,,62,127
27783,note_off,301,0,0,,2,,,62,127
27783,note_off,0,0,0,,10,,,57,127
27783,note_off,0,0,0,,5,,,65,127
27789,note_on,6,0,0,,4,,,64,127
27789,note_on,0,0,0,,8,,,56,127
27789,note_on,0,0,0,,2,,,62,127
27936,note_off,147,0,0,,5,,,77,127
27942,note_on,6,0,0,,2,,,74,127
28089,note_off,147,0,0,,2,,,74,127
28089,note_off,0,0,0,,2,,,62,127
28089,note_off,0,0,0,,8,,,56,127
28089,note_off,0,0,0,,4,,,64,127
28095,note_on,6,0,0,,4,,,64,127
28095,note_on,0,0,0,,8,,,56,127
28095,note_on,0,0,0,,2,,,62,127
28095,note_on,0,0,0,,0,,,72,127
28242,note_off,147,0,0,,0,,,72,127
28248,note_on,6,0,0,,12,,,71,127
28395,note_off,147,0,0,,2,,,62,127
28395,note_off,0,0,0,,8,,,56,127
28395,note_off,0,0,0,,4,,,64,127
28401,note_off,6,0,0,,12,,,71,127
28401,note_on,0,0,0,,10,,,57,127
28555,note_on,154,0,0,,0,,,84,127
28555,note_on,0,0,0,,4,,,76,127
28702,note_off,147,0,0,,4,,,76,127
28702,note_off,0,0,0,,0,,,84,127
28708,note_on,6,0,0,,10,,,45,127
28708,note_on,0,0,0,,12,,,83,127
28708,note_on,0,0,0,,2,,,74,127
28855,note_off,147,0,0,,2,,,74,127
28855,note_off,0,0,0,,12,,,83,127
28861,note_on,6,0,0,,0,,,84,127
28861,note_on,0,0,0,,4,,,76,127
29008,note_off,147,0,0,,4,,,76,127
29008,note_off,0,0,0,,0,,,84,127
29008,note_off,0,0,0,,10,,,45,127
29008,note_off,0,0,0,,10,,,57,127
29014,note_on,6,0,0,,4,,,52,127
29014,note_on,0,0,0,,2,,,86,127
29014,note_on,0,0,0,,5,,,77,127
29161,note_off,147,0,0,,5,,,77,127
29161,note_off,0,0,0,,2,,,86,127
29167,note_on,6,0,0,,12,,,83,127
29167,note_on,0,0,0,,2,,,74,127
29314,note_off,147,0,0,,2,,,74,127
29314,note_off,0,0,0,,12,,,83,127
29320,note_on,6,0,0,,4,,,40,127
29320,note_on,0,0,0,,10,,,81,127
29320,note_on,0,0,0,,0,,,72,127
29467,note_off,147,0,0,,0,,,72,127
29467,note_off,0,0,0,,10,,,81,127
29473,note_on,6,0,0,,8,,,80,127
29473,note_on,0,0,0,,12,,,71,127
29601,note_off,128,0,0,,8,,,80,127
29620,note_off,19,0,0,,12,,,71,127
29620,note_off,0,0,0,,4,,,52,127
29626,note_off,6,0,0,,4,,,40,127
29626,note_on,0,0,0,,2,,,74,127
29703,note_off,77,0,0,,2,,,74,127
29703,note_on,0,0,0,,4,,,76,127
29780,note_off,77,0,0,,4,,,76,127
29780,note_on,0,0,0,,5,,,77,127
29934,note_on,154,0,0,,2,,,62,127
29934,note_on,0,0,0,,10,,,57,127
29934,note_on,0,0,0,,5,,,65,127
30235,note_off,301,0,0,,5,,,65,127
30235,note_off,0,0,0,,10,,,57,127
30235,note_off,0,0,0,,2,,,62,127
30241,note_on,6,0,0,,2,,,62,127
30241,note_on,0,0,0,,4,,,64,127
30241,note_on,0,0,0,,8,,,56,127
30388,note_off,147,0,0,,5,,,77,127
30394,note_on,6,0,0,,2,,,74,127
30541,note_off,147,0,0,,2,,,74,127
30541,note_off,0,0,0,,8,,,56,127
30541,note_off,0,0,0,,4,,,64,127
30541,note_off,0,0,0,,2,,,62,127
30547,note_on,6,0,0,,2,,,62,127
30547,note_on,0,0,0,,4,,,64,127
30547,note_on,0,0,0,,8,,,56,127
30547,note_on,0,0,0,,0,,,72,127
30694,note_off,147,0,0,,0,,,72,127
30700,note_on,6,0,0,,12,,,71,127
30847,note_off,147,0,0,,12,,,71,127
30853,note_off,6,0,0,,8,,,56,127
30853,note_off,0,0,0,,4,,,64,127
30853,note_off,0,0,0,,2,,,62,127
30853,note_on,0,0,0,,2,,,74,127
30930,note_off,77,0,0,,2,,,74,127
30930,note_on,0,0,0,,4,,,76,127
31007,note_off,77,0,0,,4,,,76,127
31007,note_on,0,0,0,,5,,,77,127
31161,note_on,154,0,0,,2,,,62,127
31161,note_on,0,0,0,,5,,,65,127
31161,note_on,0,0,0,,10,,,57,127
31462,note_off,301,0,0,,10,,,57,127
31462,note_off,0,0,0,,5,,,65,127
31462,note_off,0,0,0,,2,,,62,127
31468,note_on,6,0,0,,2,,,62,127
31468,note_on,0,0,0,,4,,,64,127
31468,note_on,0,0,0,,8,,,56,127
31615,note_off,147,0,0,,5,,,77,127
31621,note_on,6,0,0,,2,,,74,127
31768,note_off,147,0,0,,2,,,74,127
31768,note_off,0,0,0,,8,,,56,127
31768,note_off,0,0,0,,4,,,64,127
31768,note_off,0,0,0,,2,,,62,127
31774,note_on,6,0,0,,4,,,64,127
31774,note_on,0,0,0,,8,,,56,127
31774,note_on,0,0,0,,2,,,62,127
31774,note_on,0,0,0,,0,,,72,127
31921,note_off,147,0,0,,0,,,72,127
31927,note_on,6,0,0,,12,,,71,127
32074,note_off,147,0,0,,2,,,62,127
32074,note_off,0,0,0,,8,,,56,127
32074,note_off,0,0,0,,4,,,64,127
32080,note_off,6,0,0,,12,,,71,127
32080,note_on,0,0,0,,10,,,57,127
32234,note_on,154,0,0,,0,,,84,127
32234,note_on,0,0,0,,4,,,76,127
32381,note_off,147,0,0,,4,,,76,127
32381,note_off,0,0,0,,0,,,84,127
32387,note_on,6,0,0,,10,,,45,127
32387,note_on,0,0,0,,12,,,83,127
32387,note_on,0,0,0,,2,,,74,127
32534,note_off,147,0,0,,2,,,74,127
32534,note_off,0,0,0,,12,,,83,127
32540,note_on,6,0,0,,0,,,84,127
32540,note_on,0,0,0,,4,,,76,127
32687,note_off,147,0,0,,4,,,76,127
32687,note_off,0,0,0,,0,,,84,127
32687,note_off,0,0,0,,10,,,45,127
32687,note_off,0,0,0,,10,,,57,127
32693,note_on,6,0,0,,4,,,52,127
32693,note_on,0,0,0,,2,,,86,127
32693,note_on,0,0,0,,5,,,77,127
32840,note_off,147,0,0,,5,,,77,127
32840,note_off,0,0,0,,2,,,86,127
32846,note_on,6,0,0,,12,,,83,127
32846,note_on,0,0,0,,2,,,74,127
32993,note_off,147,0,0,,2,,,74,127
32993,note_off,0,0,0,,12,,,83,127
32999,note_on,6,0,0,,4,,,40,127
32999,note_on,0,0,0,,10,,,81,127
32999,note_on,0,0,0,,0,,,72,127
33146,note_off,147,0,0,,0,,,72,127
33146,note_off,0,0,0,,10,,,81,127
33152,note_on,6,0,0,,8,,,80,127
33152,note_on,0,0,0,,12,,,71,127
33299,note_off,147,0,0,,12,,,71,127
33299,note_off,0,0,0,,8,,,80,127
33299,note_off,0,0,0,,4,,,40,127
33299,note_off,0,0,0,,4,,,52,127
33305,note_on,6,0,0,,5,,,53,127
33305,note_on,0,0,0,,10,,,81,127
33305,note_on,0,0,0,,0,,,72,127
33452,note_off,147,0,0,,0,,,72,127
33452,note_off,0,0,0,,10,,,81,127
33458,note_on,6,0,0,,12,,,83,127
33458,note_on,0,0,0,,2,,,74,127
33605,note_off,147,0,0,,2,,,74,127
33605,note_off,0,0,0,,12,,,83,127
33605,note_off,0,0,0,,5,,,53,127
33611,note_on,6,0,0,,2,,,50,127
33611,note_on,0,0,0,,0,,,84,127
33611,note_on,0,0,0,,4,,,76,127
33758,note_off,147,0,0,,4,,,76,127
33758,note_off,0,0,0,,0,,,84,127
33764,note_on,6,0,0,,2,,,86,127
33764,note_on,0,0,0,,5,,,77,127
33911,note_off,147,0,0,,5,,,77,127
33911,note_off,0,0,0,,2,,,86,127
33911,note_off,0,0,0,,2,,,50,127
33917,note_on,6,0,0,,4,,,52,127
33917,note_on,0,0,0,,0,,,84,127
33917,note_on,0,0,0,,4,,,76,127
34064,note_off,147,0,0,,4,,,76,127
34064,note_off,0,0,0,,0,,,84,127
34070,note_on,6,0,0,,12,,,83,127
34070,note_on,0,0,0,,2,,,74,127
34217,note_off,147,0,0,,2,,,74,127
34217,note_off,0,0,0,,12,,,83,127
34223,note_on,6,0,0,,4,,,40,127
34223,note_on,0,0,0,,10,,,81,127
34223,note_on,0,0,0,,0,,,72,127
34370,note_off,147,0,0,,0,,,72,127
34370,note_off,0,0,0,,10,,,81,127
34376,note_on,6,0,0,,8,,,80,127
34376,note_on,0,0,0,,12,,,71,127
34523,note_off,147,0,0,,12,,,71,127
34523,note_off,0,0,0,,8,,,80,127
34523,note_off,0,0,0,,4,,,40,127
34523,note_off,0,0,0,,4,,,52,127
34529,note_on,6,0,0,,5,,,53,127
34529,note_on,0,0,0,,10,,,81,127
34529,note_on,0,0,0,,0,,,72,127
34676,note_off,147,0,0,,0,,,72,127
34676,note_off,0,0,0,,10,,,81,127
34682,note_on,6,0,0,,12,,,83,127
34682,note_on,0,0,0,,2,,,74,127
34829,note_off,147,0,0,,2,,,74,127
34829,note_off,0,0,0,,12,,,83,127
34829,note_off,0,0,0,,5,,,53,127
34835,note_on,6,0,0,,2,,,50,127
34835,note_on,0,0,0,,0,,,84,127
34835,note_on,0,0,0,,4,,,76,127
34982,note_off,147,0,0,,4,,,76,127
34982,note_off,0,0,0,,0,,,84,127
34988,note_on,6,0,0,,2,,,86,127
34988,note_on,0,0,0,,5,,,77,127
35135,note_off,147,0,0,,5,,,77,127
35135,note_off,0,0,0,,2,,,86,127
35135,note_off,0,0,0,,2,,,50,127
35141,note_on,6,0,0,,4,,,52,127
35141,note_on,0,0,0,,0,,,84,127
35141,note_on,0,0,0,,4,,,76,127
35288,note_off,147,0,0,,4,,,76,127
35288,note_off,0,0,0,,0,,,84,127
35294,note_on,6,0,0,,12,,,83,127
35294,note_on,0,0,0,,2,,,74,127
35441,note_off,147,0,0,,2,,,74,127
35441,note_off,0,0,0,,12,,,83,127
35447,note_on,6,0,0,,4,,,40,127
35447,note_on,0,0,0,,10,,,81,127
35447,note_on,0,0,0,,0,,,72,127
35594,note_off,147,0,0,,0,,,72,127
35594,note_off,0,0,0,,10,,,81,127
35600,note_on,6,0,0,,8,,,80,127
35600,note_on,0,0,0,,12,,,71,127
35747,note_off,147,0,0,,12,,,71,127
35747,note_off,0,0,0,,8,,,80,127
35747,note_off,0,0,0,,4,,,40,127
35747,note_off,0,0,0,,4,,,52,127
35753,note_on,6,0,0,,5,,,53,127
35753,note_on,0,0,0,,10,,,81,127
35753,note_on,0,0,0,,0,,,72,127
35900,note_off,147,0,0,,0,,,72,127
35900,note_off,0,0,0,,10,,,81,127
35906,note_on,6,0,0,,5,,,77,127
35906,note_on,0,0,0,,2,,,74,127
36053,note_off,147,0,0,,2,,,74,127
36053,note_off,0,0,0,,5,,,77,127
36053,note_off,0,0,0,,5,,,53,127
36059,note_on,6,0,0,,2,,,50,127
36059,note_on,0,0,0,,4,,,76,127
36059,note_on,0,0,0,,0,,,72,127
36206,note_off,147,0,0,,0,,,72,127
36206,note_off,0,0,0,,4,,,76,127
36212,note_on,6,0,0,,2,,,74,127
36212,note_on,0,0,0,,12,,,71,127
36359,note_off,147,0,0,,12,,,71,127
36359,note_off,0,0,0,,2,,,74,127
36359,note_off,0,0,0,,2,,,50,127
36365,note_on,6,0,0,,4,,,52,127
36365,note_on,0,0,0,,4,,,76,127
36365,note_on,0,0,0,,0,,,72,127
36512,note_off,147,0,0,,0,,,72,127
36512,note_off,0,0,0,,4,,,76,127
36518,note_on,6,0,0,,2,,,74,127
36518,note_on,0,0,0,,12,,,71,127
36665,note_off,147,0,0,,12,,,71,127
36665,note_off,0,0,0,,2,,,74,127
36671,note_on,6,0,0,,4,,,40,127
36671,note_on,0,0,0,,0,,,72,127
36671,note_on,0,0,0,,10,,,69,127
36818,note_off,147,0,0,,10,,,69,127
36818,note_off,0,0,0,,0,,,72,127
36824,note_on,6,0,0,,12,,,71,127
36824,note_on,0,0,0,,8,,,68,127
36971,note_off,147,0,0,,8,,,68,127
36971,note_off,0,0,0,,12,,,71,127
36971,note_off,0,0,0,,4,,,40,127
36971,note_off,0,0,0,,4,,,52,127
36977,note_on,6,0,0,,10,,,45,127
36977,note_on,0,0,0,,10,,,69,127
37124,note_off,147,0,0,,10,,,69,127
37130,note_on,6,0,0,,4,,,64,127
37277,note_off,147,0,0,,4,,,64,127
37283,note_on,6,0,0,,0,,,72,127
37430,note_off,147,0,0,,0,,,72,127
37436,note_on,6,0,0,,4,,,64,127
37583,note_off,147,0,0,,4,,,64,127
37583,note_off,0,0,0,,10,,,45,127
37589,note_on,6,0,0,,5,,,41,127
37589,note_on,0,0,0,,10,,,69,127
37736,note_off,147,0,0,,10,,,69,127
37742,note_on,6,0,0,,5,,,65,127
37889,note_off,147,0,0,,5,,,65,127
37889,note_off,0,0,0,,5,,,41,127
37895,note_on,6,0,0,,10,,,81,127
37895,note_on,0,0,0,,0,,,72,127
38042,note_off,147,0,0,,0,,,72,127
38048,note_on,6,0,0,,5,,,65,127
38195,note_off,147,0,0,,5,,,65,127
38195,note_off,0,0,0,,10,,,81,127
38201,note_on,6,0,0,,2,,,38,127
38201,note_on,0,0,0,,10,,,69,127
38348,note_off,147,0,0,,10,,,69,127
38354,note_on,6,0,0,,5,,,65,127
38501,note_off,147,0,0,,5,,,65,127
38501,note_off,0,0,0,,2,,,38,127
38507,note_on,6,0,0,,10,,,81,127
38507,note_on,0,0,0,,2,,,74,127
38654,note_off,147,0,0,,2,,,74,127
38660,note_on,6,0,0,,5,,,65,127
38807,note_off,147,0,0,,5,,,65,127
38807,note_off,0,0,0,,10,,,81,127
38813,note_on,6,0,0,,4,,,40,127
38813,note_on,0,0,0,,0,,,72,127
38813,note_on,0,0,0,,4,,,64,127
38960,note_off,147,0,0,,0,,,72,127
38966,note_on,6,0,0,,12,,,71,127
39113,note_off,147,0,0,,12,,,71,127
39119,note_on,6,0,0,,10,,,69,127
39266,note_off,147,0,0,,10,,,69,127
39272,note_on,6,0,0,,8,,,68,127
39419,note_off,147,0,0,,8,,,68,127
39419,note_off,0,0,0,,4,,,40,127
39425,note_on,6,0,0,,10,,,57,127
39425,note_on,0,0,0,,10,,,69,127
39572,note_off,147,0,0,,10,,,57,127
39578,note_on,6,0,0,,0,,,60,127
39725,note_off,147,0,0,,0,,,60,127
39725,note_off,0,0,0,,10,,,69,127
39730,note_off,5,0,0,,4,,,64,127
39732,note_on,2,0,0,,4,,,64,127
39732,note_on,0,0,0,,10,,,81,127
39879,note_off,147,0,0,,4,,,64,127
39885,note_on,6,0,0,,10,,,57,127
40032,note_off,147,0,0,,10,,,57,127
40032,note_off,0,0,0,,10,,,81,127
40038,note_on,6,0,0,,5,,,53,127
40038,note_on,0,0,0,,5,,,41,127
40185,note_off,147,0,0,,5,,,53,127
40191,note_on,6,0,0,,10,,,57,127
40338,note_off,147,0,0,,10,,,57,127
40338,note_off,0,0,0,,5,,,41,127
40344,note_on,6,0,0,,2,,,62,127
40344,note_on,0,0,0,,10,,,81,127
40491,note_off,147,0,0,,2,,,62,127
40497,note_on,6,0,0,,10,,,57,127
40644,note_off,147,0,0,,10,,,57,127
40644,note_off,0,0,0,,10,,,81,127
40650,note_on,6,0,0,,2,,,50,127
40650,note_on,0,0,0,,2,,,38,127
40797,note_off,147,0,0,,2,,,50,127
40803,note_on,6,0,0,,5,,,53,127
40950,note_off,147,0,0,,5,,,53,127
40950,note_off,0,0,0,,2,,,38,127
40956,note_on,6,0,0,,10,,,57,127
40956,note_on,0,0,0,,2,,,86,127
41103,note_off,147,0,0,,10,,,57,127
41109,note_on,6,0,0,,2,,,62,127
41256,note_off,147,0,0,,2,,,62,127
41256,note_off,0,0,0,,2,,,86,127
41262,note_on,6,0,0,,0,,,60,127
41262,note_on,0,0,0,,10,,,57,127
41262,note_on,0,0,0,,4,,,52,127
41262,note_on,0,0,0,,0,,,84,127
41409,note_off,147,0,0,,0,,,84,127
41415,note_on,6,0,0,,12,,,83,127
41562,note_off,147,0,0,,12,,,83,127
41562,note_off,0,0,0,,10,,,57,127
41562,note_off,0,0,0,,0,,,60,127
41568,note_on,6,0,0,,12,,,59,127
41568,note_on,0,0,0,,10,,,81,127
41715,note_off,147,0,0,,10,,,81,127
41721,note_on,6,0,0,,8,,,80,127
41868,note_off,147,0,0,,8,,,80,127
41868,note_off,0,0,0,,12,,,59,127
41868,note_off,0,0,0,,4,,,52,127
41874,note_on,6,0,0,,5,,,53,127
41874,note_on,0,0,0,,10,,,81,127
42021,note_off,147,0,0,,5,,,53,127
42027,note_on,6,0,0,,10,,,57,127
42174,note_off,147,0,0,,10,,,57,127
42174,note_off,0,0,0,,10,,,81,127
42180,note_on,6,0,0,,2,,,50,127
42180,note_on,0,0,0,,2,,,74,127
42327,note_off,147,0,0,,2,,,50,127
42333,note_on,6,0,0,,2,,,62,127
42480,note_off,147,0,0,,2,,,62,127
42480,note_off,0,0,0,,2,,,74,127
42486,note_on,6,0,0,,0,,,60,127
42486,note_on,0,0,0,,4,,,52,127
42486,note_on,0,0,0,,0,,,72,127
42633,note_off,147,0,0,,0,,,72,127
42639,note_on,6,0,0,,12,,,71,127
42786,note_off,147,0,0,,12,,,71,127
42786,note_off,0,0,0,,0,,,60,127
42792,note_on,6,0,0,,12,,,59,127
42792,note_on,0,0,0,,10,,,69,127
42939,note_off,147,0,0,,10,,,69,127
42945,note_on,6,0,0,,8,,,68,127
43092,note_off,147,0,0,,8,,,68,127
43092,note_off,0,0,0,,12,,,59,127
43092,note_off,0,0,0,,4,,,52,127
43098,note_on,6,0,0,,5,,,53,127
43098,note_on,0,0,0,,10,,,69,127
43245,note_off,147,0,0,,5,,,53,127
43251,note_on,6,0,0,,10,,,57,127
43398,note_off,147,0,0,,10,,,57,127
43398,note_off,0,0,0,,10,,,69,127
43404,note_on,6,0,0,,2,,,50,127
43404,note_on,0,0,0,,2,,,62,127
43705,note_off,301,0,0,,2,,,62,127
43705,note_off,0,0,0,,2,,,50,127
43711,note_on,6,0,0,,4,,,52,127
43711,note_on,0,0,0,,0,,,60,127
43858,note_off,147,0,0,,0,,,60,127
43864,note_on,6,0,0,,12,,,59,127
44011,note_off,147,0,0,,12,,,59,127
44017,note_on,6,0,0,,4,,,40,127
44017,note_on,0,0,0,,10,,,57,127
44164,note_off,147,0,0,,10,,,57,127
44170,note_on,6,0,0,,8,,,56,127
44317,note_off,147,0,0,,8,,,56,127
44317,note_off,0,0,0,,4,,,40,127
44317,note_off,0,0,0,,4,,,52,127
44323,note_on,6,0,0,,10,,,45,127
44323,note_on,0,0,0,,8,,,56,127
44737,note_off,414,0,0,,8,,,56,127
44739,note_on,2,0,0,,10,,,57,127
45432,note_off,693,0,0,,10,,,57,127
45546,note_off,114,0,0,,10,,,45,127
45552,note_on,6,0,0,,10,,,57,127
45699,note_off,147,0,0,,10,,,57,127
45705,note_on,6,0,0,,1,,,61,127
45852,note_off,147,0,0,,1,,,61,127
45858,note_on,6,0,0,,4,,,64,127
46005,note_off,147,0,0,,4,,,64,127
46011,note_on,6,0,0,,10,,,69,127
46158,note_off,147,0,0,,10,,,69,127
46164,note_on,6,0,0,,10,,,69,127
46164,note_on,0,0,0,,4,,,76,127
46311,note_off,147,0,0,,10,,,69,127
46317,note_on,6,0,0,,4,,,64,127
46464,note_off,147,0,0,,4,,,64,127
46470,note_on,6,0,0,,1,,,61,127
46617,note_off,147,0,0,,1,,,61,127
46623,note_on,6,0,0,,10,,,57,127
46770,note_off,147,0,0,,10,,,57,127
46776,note_on,6,0,0,,7,,,55,127
46923,note_off,147,0,0,,4,,,76,127
46929,note_on,6,0,0,,7,,,79,127
47076,note_off,147,0,0,,7,,,79,127
47082,note_on,6,0,0,,4,,,76,127
47229,note_off,147,0,0,,4,,,76,127
47235,note_on,6,0,0,,1,,,73,127
47382,note_off,147,0,0,,1,,,73,127
47388,note_on,6,0,0,,7,,,67,127
47535,note_off,147,0,0,,7,,,67,127
47541,note_on,6,0,0,,4,,,64,127
47688,note_off,147,0,0,,4,,,64,127
47694,note_on,6,0,0,,1,,,61,127
47841,note_off,147,0,0,,1,,,61,127
47847,note_on,6,0,0,,10,,,57,127
47994,note_off,147,0,0,,10,,,57,127
47994,note_off,0,0,0,,7,,,55,127
48000,note_on,6,0,0,,6,,,54,127
48000,note_on,0,0,0,,2,,,62,127
48147,note_off,147,0,0,,2,,,62,127
48153,note_on,6,0,0,,6,,,66,127
48300,note_off,147,0,0,,6,,,66,127
48306,note_on,6,0,0,,10,,,69,127
48453,note_off,147,0,0,,10,,,69,127
48459,note_on,6,0,0,,2,,,74,127
48606,note_off,147,0,0,,2,,,74,127
48612,note_on,6,0,0,,10,,,81,127
48759,note_off,147,0,0,,6,,,54,127
48765,note_on,6,0,0,,10,,,57,127
48912,note_off,147,0,0,,10,,,57,127
48918,note_on,6,0,0,,2,,,62,127
49065,note_off,147,0,0,,2,,,62,127
49071,note_on,6,0,0,,6,,,66,127
49218,note_off,147,0,0,,6,,,66,127
49224,note_on,6,0,0,,4,,,52,127
49371,note_off,147,0,0,,10,,,81,127
49377,note_on,6,0,0,,7,,,79,127
49524,note_off,147,0,0,,7,,,79,127
49530,note_on,6,0,0,,4,,,76,127
49677,note_off,147,0,0,,4,,,76,127
49683,note_on,6,0,0,,1,,,73,127
49830,note_off,147,0,0,,1,,,73,127
49830,note_off,0,0,0,,4,,,52,127
49836,note_on,6,0,0,,10,,,45,127
49836,note_on,0,0,0,,7,,,67,127
49983,note_off,147,0,0,,7,,,67,127
49989,note_on,6,0,0,,4,,,64,127
50136,note_off,147,0,0,,4,,,64,127
50142,note_on,6,0,0,,1,,,61,127
50289,note_off,147,0,0,,1,,,61,127
50295,note_on,6,0,0,,10,,,57,127
50442,note_off,147,0,0,,10,,,57,127
50442,note_off,0,0,0,,10,,,45,127
50448,note_on,6,0,0,,2,,,38,127
50448,note_on,0,0,0,,2,,,62,127
50595,note_off,147,0,0,,2,,,62,127
50601,note_on,6,0,0,,6,,,66,127
50748,note_off,147,0,0,,6,,,66,127
50754,note_on,6,0,0,,10,,,69,127
50901,note_off,147,0,0,,10,,,69,127
50907,note_on,6,0,0,,2,,,74,127
51054,note_off,147,0,0,,2,,,74,127
51060,note_on,6,0,0,,0,,,72,127
51214,note_off,154,0,0,,2,,,38,127
51368,note_on,154,0,0,,6,,,66,127
51368,note_on,0,0,0,,2,,,62,127
51368,note_on,0,0,0,,10,,,69,127
51669,note_off,301,0,0,,10,,,69,127
51669,note_off,0,0,0,,2,,,62,127
51669,note_off,0,0,0,,6,,,66,127
51669,note_off,0,0,0,,0,,,72,127
51675,note_on,6,0,0,,7,,,67,127
51675,note_on,0,0,0,,2,,,62,127
51675,note_on,0,0,0,,12,,,71,127
51675,note_on,0,0,0,,7,,,79,127
51976,note_off,301,0,0,,7,,,79,127
51976,note_off,0,0,0,,12,,,71,127
51976,note_off,0,0,0,,2,,,62,127
51976,note_off,0,0,0,,7,,,67,127
51982,note_on,6,0,0,,6,,,66,127
51982,note_on,0,0,0,,2,,,62,127
51982,note_on,0,0,0,,10,,,69,127
51982,note_on,0,0,0,,0,,,72,127
51982,note_on,0,0,0,,10,,,81,127
52084,note_off,102,0,0,,0,,,72,127
52084,note_on,0,0,0,,12,,,71,127
52186,note_off,102,0,0,,12,,,71,127
52186,note_on,0,0,0,,0,,,72,127
52282,note_off,96,0,0,,10,,,81,127
52282,note_off,0,0,0,,10,,,69,127
52282,note_off,0,0,0,,2,,,62,127
52282,note_off,0,0,0,,6,,,66,127
52288,note_off,6,0,0,,0,,,72,127
52288,note_on,0,0,0,,7,,,67,127
52288,note_on,0,0,0,,2,,,62,127
52288,note_on,0,0,0,,7,,,79,127
52288,note_on,0,0,0,,12,,,71,127
52589,note_off,301,0,0,,12,,,71,127
52589,note_off,0,0,0,,7,,,79,127
52589,note_off,0,0,0,,2,,,62,127
52589,note_off,0,0,0,,7,,,67,127
52595,note_on,6,0,0,,6,,,66,127
52595,note_on,0,0,0,,2,,,62,127
52595,note_on,0,0,0,,10,,,69,127
52595,note_on,0,0,0,,10,,,81,127
52595,note_on,0,0,0,,0,,,72,127
52697,note_off,102,0,0,,0,,,72,127
52697,note_on,0,0,0,,12,,,71,127
52799,note_off,102,0,0,,12,,,71,127
52799,note_on,0,0,0,,0,,,72,127
52895,note_off,96,0,0,,10,,,81,127
52895,note_off,0,0,0,,10,,,69,127
52895,note_off,0,0,0,,2,,,62,127
52895,note_off,0,0,0,,6,,,66,127
52901,note_off,6,0,0,,0,,,72,127
52901,note_on,0,0,0,,7,,,55,127
52901,note_on,0,0,0,,12,,,71,127
53048,note_off,147,0,0,,12,,,71,127
53054,note_on,6,0,0,,12,,,83,127
53201,note_off,147,0,0,,12,,,83,127
53207,note_on,6,0,0,,6,,,78,127
53354,note_off,147,0,0,,6,,,78,127
53360,note_on,6,0,0,,7,,,79,127
53507,note_off,147,0,0,,7,,,79,127
53507,note_off,0,0,0,,7,,,55,127
53513,note_on,6,0,0,,3,,,75,127
53660,note_off,147,0,0,,3,,,75,127
53666,note_on,6,0,0,,4,,,76,127
53813,note_off,147,0,0,,4,,,76,127
53819,note_on,6,0,0,,11,,,70,127
53966,note_off,147,0,0,,11,,,70,127
53972,note_on,6,0,0,,12,,,71,127
54119,note_off,147,0,0,,12,,,71,127
54125,note_on,6,0,0,,2,,,86,127
54272,note_off,147,0,0,,2,,,86,127
54278,note_on,6,0,0,,12,,,83,127
54425,note_off,147,0,0,,12,,,83,127
54431,note_on,6,0,0,,8,,,80,127
54578,note_off,147,0,0,,8,,,80,127
54584,note_on,6,0,0,,4,,,76,127
54731,note_off,147,0,0,,4,,,76,127
54737,note_on,6,0,0,,2,,,74,127
55044,note_on,307,0,0,,4,,,64,127
55044,note_on,0,0,0,,12,,,71,127
55044,note_on,0,0,0,,8,,,68,127
55345,note_off,301,0,0,,8,,,68,127
55345,note_off,0,0,0,,12,,,71,127
55345,note_off,0,0,0,,4,,,64,127
55345,note_off,0,0,0,,2,,,74,127
55351,note_on,6,0,0,,10,,,69,127
55351,note_on,0,0,0,,4,,,64,127
55351,note_on,0,0,0,,10,,,81,127
55351,note_on,0,0,0,,1,,,73,127
55652,note_off,301,0,0,,1,,,73,127
55652,note_off,0,0,0,,10,,,81,127
55652,note_off,0,0,0,,4,,,64,127
55652,note_off,0,0,0,,10,,,69,127
55658,note_on,6,0,0,,4,,,64,127
55658,note_on,0,0,0,,12,,,71,127
55658,note_on,0,0,0,,8,,,68,127
55658,note_on,0,0,0,,12,,,83,127
55658,note_on,0,0,0,,2,,,74,127
55760,note_off,102,0,0,,2,,,74,127
55760,note_on,0,0,0,,1,,,73,127
55862,note_off,102,0,0,,1,,,73,127
55862,note_on,0,0,0,,2,,,74,127
55958,note_off,96,0,0,,12,,,83,127
55958,note_off,0,0,0,,8,,,68,127
55958,note_off,0,0,0,,12,,,71,127
55958,note_off,0,0,0,,4,,,64,127
55964,note_off,6,0,0,,2,,,74,127
55964,note_on,0,0,0,,10,,,69,127
55964,note_on,0,0,0,,4,,,64,127
55964,note_on,0,0,0,,10,,,81,127
55964,note_on,0,0,0,,1,,,73,127
56265,note_off,301,0,0,,1,,,73,127
56265,note_off,0,0,0,,10,,,81,127
56265,note_off,0,0,0,,4,,,64,127
56265,note_off,0,0,0,,10,,,69,127
56271,note_on,6,0,0,,8,,,68,127
56271,note_on,0,0,0,,4,,,64,127
56271,note_on,0,0,0,,12,,,71,127
56271,note_on,0,0,0,,12,,,83,127
56271,note_on,0,0,0,,2,,,74,127
56373,note_off,102,0,0,,2,,,74,127
56373,note_on,0,0,0,,1,,,73,127
56475,note_off,102,0,0,,1,,,73,127
56475,note_on,0,0,0,,2,,,74,127
56571,note_off,96,0,0,,12,,,83,127
56571,note_off,0,0,0,,12,,,71,127
56571,note_off,0,0,0,,4,,,64,127
56571,note_off,0,0,0,,8,,,68,127
56577,note_off,6,0,0,,2,,,74,127
56577,note_on,0,0,0,,10,,,57,127
56577,note_on,0,0,0,,1,,,73,127
56577,note_on,0,0,0,,4,,,76,127
56878,note_off,301,0,0,,4,,,76,127
56878,note_off,0,0,0,,1,,,73,127
56884,note_on,6,0,0,,1,,,73,127
56884,note_on,0,0,0,,4,,,76,127
57031,note_off,147,0,0,,4,,,76,127
57031,note_off,0,0,0,,1,,,73,127
57037,note_on,6,0,0,,2,,,74,127
57037,note_on,0,0,0,,6,,,78,127
57184,note_off,147,0,0,,6,,,78,127
57184,note_off,0,0,0,,2,,,74,127
57190,note_on,6,0,0,,4,,,76,127
57190,note_on,0,0,0,,7,,,79,127
57337,note_off,147,0,0,,7,,,79,127
57337,note_off,0,0,0,,4,,,76,127
57343,note_on,6,0,0,,6,,,78,127
57343,note_on,0,0,0,,10,,,81,127
57490,note_off,147,0,0,,10,,,81,127
57490,note_off,0,0,0,,6,,,78,127
57496,note_on,6,0,0,,4,,,76,127
57496,note_on,0,0,0,,7,,,79,127
57534,note_off,38,0,0,,10,,,57,127
57643,note_off,109,0,0,,7,,,79,127
57643,note_off,0,0,0,,4,,,76,127
57649,note_on,6,0,0,,2,,,74,127
57649,note_on,0,0,0,,6,,,78,127
57796,note_off,147,0,0,,6,,,78,127
57796,note_off,0,0,0,,2,,,74,127
57802,note_on,6,0,0,,10,,,45,127
57802,note_on,0,0,0,,10,,,57,127
57802,note_on,0,0,0,,1,,,73,127
57802,note_on,0,0,0,,4,,,76,127
57949,note_off,147,0,0,,4,,,76,127
57949,note_off,0,0,0,,1,,,73,127
57955,note_on,6,0,0,,2,,,74,127
57955,note_on,0,0,0,,6,,,78,127
58102,note_off,147,0,0,,6,,,78,127
58102,note_off,0,0,0,,2,,,74,127
58108,note_on,6,0,0,,4,,,76,127
58108,note_on,0,0,0,,7,,,79,127
58255,note_off,147,0,0,,7,,,79,127
58255,note_off,0,0,0,,4,,,76,127
58261,note_on,6,0,0,,6,,,78,127
58261,note_on,0,0,0,,10,,,81,127
58408,note_off,147,0,0,,10,,,81,127
58408,note_off,0,0,0,,6,,,78,127
58408,note_off,0,0,0,,10,,,57,127
58408,note_off,0,0,0,,10,,,45,127
58414,note_on,6,0,0,,7,,,43,127
58414,note_on,0,0,0,,7,,,55,127
58414,note_on,0,0,0,,7,,,79,127
58414,note_on,0,0,0,,12,,,83,127
58561,note_off,147,0,0,,12,,,83,127
58561,note_off,0,0,0,,7,,,79,127
58567,note_on,6,0,0,,6,,,78,127
58567,note_on,0,0,0,,10,,,81,127
58714,note_off,147,0,0,,10,,,81,127
58714,note_off,0,0,0,,6,,,78,127
58720,note_on,6,0,0,,4,,,76,127
58720,note_on,0,0,0,,7,,,79,127
58867,note_off,147,0,0,,7,,,79,127
58867,note_off,0,0,0,,4,,,76,127
58873,note_on,6,0,0,,2,,,74,127
58873,note_on,0,0,0,,6,,,78,127
59020,note_off,147,0,0,,6,,,78,127
59020,note_off,0,0,0,,2,,,74,127
59020,note_off,0,0,0,,7,,,55,127
59020,note_off,0,0,0,,7,,,43,127
59026,note_on,6,0,0,,10,,,45,127
59026,note_on,0,0,0,,10,,,57,127
59026,note_on,0,0,0,,10,,,69,127
59026,note_on,0,0,0,,4,,,76,127
59279,note_off,253,0,0,,4,,,76,127
59279,note_off,0,0,0,,10,,,69,127
59333,note_on,54,0,0,,10,,,69,127
59333,note_on,0,0,0,,4,,,76,127
59466,note_off,133,0,0,,4,,,76,127
59466,note_off,0,0,0,,10,,,69,127
59487,note_on,21,0,0,,10,,,69,127
59487,note_on,0,0,0,,4,,,76,127
59620,note_off,133,0,0,,4,,,76,127
59620,note_off,0,0,0,,10,,,69,127
59641,note_on,21,0,0,,10,,,69,127
59641,note_on,0,0,0,,4,,,76,127
59774,note_off,133,0,0,,4,,,76,127
59774,note_off,0,0,0,,10,,,69,127
59795,note_on,21,0,0,,2,,,74,127
59795,note_on,0,0,0,,6,,,78,127
59928,note_off,133,0,0,,6,,,78,127
59928,note_off,0,0,0,,2,,,74,127
59949,note_on,21,0,0,,10,,,69,127
59949,note_on,0,0,0,,4,,,76,127
60040,note_off,91,0,0,,10,,,57,127
60040,note_off,0,0,0,,10,,,45,127
60082,note_off,42,0,0,,4,,,76,127
60082,note_off,0,0,0,,10,,,69,127
60103,note_on,21,0,0,,6,,,66,127
60103,note_on,0,0,0,,2,,,74,127
60236,note_off,133,0,0,,2,,,74,127
60236,note_off,0,0,0,,6,,,66,127
60257,note_on,21,0,0,,10,,,45,127
60257,note_on,0,0,0,,10,,,57,127
60257,note_on,0,0,0,,10,,,69,127
60257,note_on,0,0,0,,4,,,76,127
60510,note_off,253,0,0,,4,,,76,127
60510,note_off,0,0,0,,10,,,69,127
60564,note_on,54,0,0,,10,,,69,127
60564,note_on,0,0,0,,4,,,76,127
60697,note_off,133,0,0,,4,,,76,127
60697,note_off,0,0,0,,10,,,69,127
60718,note_on,21,0,0,,10,,,69,127
60718,note_on,0,0,0,,4,,,76,127
60851,note_off,133,0,0,,4,,,76,127
60851,note_off,0,0,0,,10,,,69,127
60872,note_on,21,0,0,,10,,,69,127
60872,note_on,0,0,0,,4,,,76,127
61005,note_off,133,0,0,,4,,,76,127
61005,note_off,0,0,0,,10,,,69,127
61026,note_on,21,0,0,,2,,,74,127
61026,note_on,0,0,0,,6,,,78,127
61159,note_off,133,0,0,,6,,,78,127
61159,note_off,0,0,0,,2,,,74,127
61180,note_on,21,0,0,,10,,,69,127
61180,note_on,0,0,0,,4,,,76,127
61271,note_off,91,0,0,,10,,,57,127
61271,note_off,0,0,0,,10,,,45,127
61313,note_off,42,0,0,,4,,,76,127
61313,note_off,0,0,0,,10,,,69,127
61334,note_on,21,0,0,,6,,,66,127
61334,note_on,0,0,0,,2,,,74,127
61467,note_off,133,0,0,,2,,,74,127
61467,note_off,0,0,0,,6,,,66,127
61488,note_on,21,0,0,,10,,,45,127
61488,note_on,0,0,0,,10,,,57,127
61488,note_on,0,0,0,,10,,,69,127
61488,note_on,0,0,0,,4,,,76,127
61621,note_off,133,0,0,,4,,,76,127
61621,note_off,0,0,0,,10,,,69,127
61642,note_on,21,0,0,,2,,,74,127
61642,note_on,0,0,0,,6,,,78,127
61741,note_off,99,0,0,,10,,,57,127
61741,note_off,0,0,0,,10,,,45,127
61775,note_off,34,0,0,,6,,,78,127
61775,note_off,0,0,0,,2,,,74,127
61796,note_on,21,0,0,,10,,,45,127
61796,note_on,0,0,0,,10,,,69,127
61796,note_on,0,0,0,,4,,,76,127
61929,note_off,133,0,0,,4,,,76,127
61929,note_off,0,0,0,,10,,,69,127
61950,note_on,21,0,0,,6,,,66,127
61950,note_on,0,0,0,,2,,,74,127
62049,note_off,99,0,0,,10,,,45,127
62083,note_off,34,0,0,,2,,,74,127
62083,note_off,0,0,0,,6,,,66,127
62104,note_on,21,0,0,,10,,,45,127
62104,note_on,0,0,0,,10,,,69,127
62104,note_on,0,0,0,,4,,,76,127
62237,note_off,133,0,0,,4,,,76,127
62237,note_off,0,0,0,,10,,,69,127
62258,note_on,21,0,0,,2,,,74,127
62258,note_on,0,0,0,,6,,,78,127
62357,note_off,99,0,0,,10,,,45,127
62391,note_off,34,0,0,,6,,,78,127
62391,note_off,0,0,0,,2,,,74,127
62412,note_on,21,0,0,,10,,,45,127
62412,note_on,0,0,0,,10,,,69,127
62412,note_on,0,0,0,,4,,,76,127
62545,note_off,133,0,0,,4,,,76,127
62545,note_off,0,0,0,,10,,,69,127
62566,note_on,21,0,0,,6,,,66,127
62566,note_on,0,0,0,,2,,,74,127
62665,note_off,99,0,0,,10,,,45,127
62699,note_off,34,0,0,,2,,,74,127
62699,note_off,0,0,0,,6,,,66,127
62720,note_on,21,0,0,,10,,,45,127
62720,note_on,0,0,0,,10,,,69,127
62720,note_on,0,0,0,,6,,,78,127
62758,note_off,38,0,0,,6,,,78,127
62758,note_on,0,0,0,,4,,,76,127
62796,note_off,38,0,0,,4,,,76,127
62796,note_on,0,0,0,,6,,,78,127
62834,note_off,38,0,0,,6,,,78,127
62834,note_on,0,0,0,,4,,,76,127
62872,note_off,38,0,0,,4,,,76,127
62872,note_on,0,0,0,,6,,,78,127
62910,note_off,38,0,0,,6,,,78,127
62910,note_on,0,0,0,,4,,,76,127
63947,note_off,1037,0,0,,4,,,76,127
63947,note_off,0,0,0,,10,,,69,127
63947,note_off,0,0,0,,10,,,45,127
64561,note_on,614,0,0,,5,,,77,127
64561,note_on,0,0,0,,10,,,81,127
64715,note_off,154,0,0,,10,,,81,127
64715,note_off,0,0,0,,5,,,77,127
64869,note_on,154,0,0,,5,,,77,127
64869,note_on,0,0,0,,10,,,81,127
64946,note_off,77,0,0,,10,,,81,127
65023,note_off,77,0,0,,5,,,77,127
65023,note_on,0,0,0,,11,,,82,127
65100,note_off,77,0,0,,11,,,82,127
65177,note_on,77,0,0,,5,,,77,127
65177,note_on,0,0,0,,10,,,81,127
65331,note_off,154,0,0,,10,,,81,127
65331,note_off,0,0,0,,5,,,77,127
65485,note_on,154,0,0,,0,,,72,127
65485,note_on,0,0,0,,7,,,79,127
65639,note_off,154,0,0,,7,,,79,127
65639,note_off,0,0,0,,0,,,72,127
65793,note_on,154,0,0,,10,,,69,127
65793,note_on,0,0,0,,7,,,79,127
65831,note_off,38,0,0,,7,,,79,127
65831,note_on,0,0,0,,5,,,77,127
65869,note_off,38,0,0,,5,,,77,127
65869,note_on,0,0,0,,7,,,79,127
65907,note_off,38,0,0,,7,,,79,127
65907,note_on,0,0,0,,5,,,77,127
66022,note_off,115,0,0,,5,,,77,127
66022,note_off,0,0,0,,10,,,69,127
66099,note_on,77,0,0,,5,,,77,127
66176,note_off,77,0,0,,5,,,77,127
66253,note_on,77,0,0,,0,,,72,127
66253,note_on,0,0,0,,7,,,79,127
66330,note_off,77,0,0,,7,,,79,127
66330,note_off,0,0,0,,0,,,72,127
66407,note_on,77,0,0,,5,,,77,127
66407,note_on,0,0,0,,10,,,81,127
66484,note_off,77,0,0,,10,,,81,127
66484,note_off,0,0,0,,5,,,77,127
66561,note_on,77,0,0,,7,,,79,127
66561,note_on,0,0,0,,11,,,82,127
66638,note_off,77,0,0,,11,,,82,127
66638,note_off,0,0,0,,7,,,79,127
66715,note_on,77,0,0,,10,,,81,127
66715,note_on,0,0,0,,0,,,84,127
66792,note_off,77,0,0,,0,,,84,127
66792,note_off,0,0,0,,10,,,81,127
66869,note_on,77,0,0,,7,,,79,127
66869,note_on,0,0,0,,11,,,82,127
66946,note_off,77,0,0,,11,,,82,127
66946,note_off,0,0,0,,7,,,79,127
67023,note_on,77,0,0,,5,,,77,127
67023,note_on,0,0,0,,10,,,81,127
67177,note_off,154,0,0,,10,,,81,127
67177,note_off,0,0,0,,5,,,77,127
67331,note_on,154,0,0,,5,,,77,127
67331,note_on,0,0,0,,10,,,81,127
67408,note_off,77,0,0,,10,,,81,127
67485,note_off,77,0,0,,5,,,77,127
67485,note_on,0,0,0,,11,,,82,127
67562,note_off,77,0,0,,11,,,82,127
67639,note_on,77,0,0,,5,,,77,127
67639,note_on,0,0,0,,10,,,81,127
67793,note_off,154,0,0,,10,,,81,127
67793,note_off,0,0,0,,5,,,77,127
67947,note_on,154,0,0,,0,,,72,127
67947,note_on,0,0,0,,7,,,79,127
68101,note_off,154,0,0,,7,,,79,127
68101,note_off,0,0,0,,0,,,72,127
68255,note_on,154,0,0,,10,,,69,127
68255,note_on,0,0,0,,7,,,79,127
68293,note_off,38,0,0,,7,,,79,127
68293,note_on,0,0,0,,5,,,77,127
68331,note_off,38,0,0,,5,,,77,127
68331,note_on,0,0,0,,7,,,79,127
68369,note_off,38,0,0,,7,,,79,127
68369,note_on,0,0,0,,5,,,77,127
68484,note_off,115,0,0,,5,,,77,127
68484,note_off,0,0,0,,10,,,69,127
68561,note_on,77,0,0,,5,,,77,127
68638,note_off,77,0,0,,5,,,77,127
68715,note_on,77,0,0,,0,,,72,127
68715,note_on,0,0,0,,7,,,79,127
68792,note_off,77,0,0,,7,,,79,127
68792,note_off,0,0,0,,0,,,72,127
68869,note_on,77,0,0,,5,,,77,127
68869,note_on,0,0,0,,10,,,81,127
68946,note_off,77,0,0,,10,,,81,127
68946,note_off,0,0,0,,5,,,77,127
69023,note_on,77,0,0,,7,,,79,127
69023,note_on,0,0,0,,11,,,82,127
69100,note_off,77,0,0,,11,,,82,127
69100,note_off,0,0,0,,7,,,79,127
69177,note_on,77,0,0,,10,,,81,127
69177,note_on,0,0,0,,0,,,84,127
69254,note_off,77,0,0,,0,,,84,127
69254,note_off,0,0,0,,10,,,81,127
69331,note_on,77,0,0,,7,,,79,127
69331,note_on,0,0,0,,11,,,82,127
69408,note_off,77,0,0,,11,,,82,127
69408,note_off,0,0,0,,7,,,79,127
69485,note_on,77,0,0,,5,,,77,127
69485,note_on,0,0,0,,10,,,81,127
69562,note_off,77,0,0,,10,,,81,127
69562,note_off,0,0,0,,5,,,77,127
69639,note_on,77,0,0,,4,,,76,127
69639,note_on,0,0,0,,7,,,79,127
69716,note_off,77,0,0,,7,,,79,127
69716,note_off,0,0,0,,4,,,76,127
69793,note_on,77,0,0,,5,,,77,127
69793,note_on,0,0,0,,10,,,81,127
69870,note_off,77,0,0,,10,,,81,127
69870,note_off,0,0,0,,5,,,77,127
69947,note_on,77,0,0,,7,,,79,127
69947,note_on,0,0,0,,11,,,82,127
70024,note_off,77,0,0,,11,,,82,127
70024,note_off,0,0,0,,7,,,79,127
70101,note_on,77,0,0,,10,,,81,127
70101,note_on,0,0,0,,0,,,84,127
70178,note_off,77,0,0,,0,,,84,127
70178,note_off,0,0,0,,10,,,81,127
70255,note_on,77,0,0,,10,,,81,127
70255,note_on,0,0,0,,0,,,84,127
70332,note_off,77,0,0,,0,,,84,127
70332,note_off,0,0,0,,10,,,81,127
70409,note_on,77,0,0,,7,,,79,127
70409,note_on,0,0,0,,11,,,82,127
70486,note_off,77,0,0,,11,,,82,127
70486,note_off,0,0,0,,7,,,79,127
70563,note_on,77,0,0,,5,,,77,127
70563,note_on,0,0,0,,10,,,81,127
70640,note_off,77,0,0,,10,,,81,127
70640,note_off,0,0,0,,5,,,77,127
70717,note_on,77,0,0,,0,,,72,127
70717,note_on,0,0,0,,10,,,81,127
70755,note_off,38,0,0,,10,,,81,127
70755,note_on,0,0,0,,7,,,79,127
70793,note_off,38,0,0,,7,,,79,127
70793,note_on,0,0,0,,10,,,81,127
70831,note_off,38,0,0,,10,,,81,127
70831,note_on,0,0,0,,7,,,79,127
70869,note_off,38,0,0,,0,,,72,127
70946,note_off,77,0,0,,7,,,79,127
71023,note_on,77,0,0,,0,,,72,127
71023,note_on,0,0,0,,7,,,79,127
71100,note_off,77,0,0,,7,,,79,127
71100,note_off,0,0,0,,0,,,72,127
71177,note_on,77,0,0,,0,,,72,127
71177,note_on,0,0,0,,7,,,79,127
71254,note_off,77,0,0,,7,,,79,127
71254,note_off,0,0,0,,0,,,72,127
71331,note_on,77,0,0,,0,,,72,127
71331,note_on,0,0,0,,7,,,79,127
71408,note_off,77,0,0,,7,,,79,127
71408,note_off,0,0,0,,0,,,72,127
71485,note_on,77,0,0,,5,,,77,127
71485,note_on,0,0,0,,10,,,81,127
71562,note_off,77,0,0,,10,,,81,127
71562,note_off,0,0,0,,5,,,77,127
71639,note_on,77,0,0,,0,,,72,127
71639,note_on,0,0,0,,7,,,79,127
71716,note_off,77,0,0,,7,,,79,127
71716,note_off,0,0,0,,0,,,72,127
71793,note_on,77,0,0,,10,,,69,127
71793,note_on,0,0,0,,5,,,77,127
71870,note_off,77,0,0,,5,,,77,127
71870,note_off,0,0,0,,10,,,69,127
71947,note_on,77,0,0,,0,,,72,127
71947,note_on,0,0,0,,7,,,79,127
72024,note_off,77,0,0,,7,,,79,127
72024,note_off,0,0,0,,0,,,72,127
72101,note_on,77,0,0,,5,,,77,127
72101,note_on,0,0,0,,10,,,81,127
72178,note_off,77,0,0,,10,,,81,127
72178,note_off,0,0,0,,5,,,77,127
72255,note_on,77,0,0,,0,,,72,127
72255,note_on,0,0,0,,7,,,79,127
72332,note_off,77,0,0,,7,,,79,127
72332,note_off,0,0,0,,0,,,72,127
72409,note_on,77,0,0,,10,,,69,127
72409,note_on,0,0,0,,5,,,77,127
72486,note_off,77,0,0,,5,,,77,127
72486,note_off,0,0,0,,10,,,69,127
72563,note_on,77,0,0,,0,,,72,127
72563,note_on,0,0,0,,7,,,79,127
72640,note_off,77,0,0,,7,,,79,127
72640,note_off,0,0,0,,0,,,72,127
72717,note_on,77,0,0,,5,,,77,127
72717,note_on,0,0,0,,10,,,81,127
72794,note_off,77,0,0,,10,,,81,127
72794,note_off,0,0,0,,5,,,77,127
72871,note_on,77,0,0,,0,,,72,127
72871,note_on,0,0,0,,7,,,79,127
72948,note_off,77,0,0,,7,,,79,127
72948,note_off,0,0,0,,0,,,72,127
73025,note_on,77,0,0,,10,,,69,127
73025,note_on,0,0,0,,5,,,77,127
73102,note_off,77,0,0,,5,,,77,127
73102,note_off,0,0,0,,10,,,69,127
73179,note_on,77,0,0,,0,,,60,127
73179,note_on,0,0,0,,10,,,69,127
73217,note_off,38,0,0,,10,,,69,127
73217,note_on,0,0,0,,7,,,67,127
73255,note_off,38,0,0,,7,,,67,127
73255,note_on,0,0,0,,10,,,69,127
73293,note_off,38,0,0,,10,,,69,127
73293,note_on,0,0,0,,7,,,67,127
73331,note_off,38,0,0,,0,,,60,127
73408,note_off,77,0,0,,7,,,67,127
73485,note_on,77,0,0,,0,,,60,127
73485,note_on,0,0,0,,7,,,67,127
73562,note_off,77,0,0,,7,,,67,127
73562,note_off,0,0,0,,0,,,60,127
73639,note_on,77,0,0,,0,,,60,127
73639,note_on,0,0,0,,7,,,67,127
73716,note_off,77,0,0,,7,,,67,127
73716,note_off,0,0,0,,0,,,60,127
73793,note_on,77,0,0,,0,,,60,127
73793,note_on,0,0,0,,7,,,67,127
73870,note_off,77,0,0,,7,,,67,127
73870,note_off,0,0,0,,0,,,60,127
73947,note_on,77,0,0,,5,,,65,127
73947,note_on,0,0,0,,10,,,69,127
74024,note_off,77,0,0,,10,,,69,127
74024,note_off,0,0,0,,5,,,65,127
74101,note_on,77,0,0,,0,,,60,127
74101,note_on,0,0,0,,7,,,67,127
74178,note_off,77,0,0,,7,,,67,127
74178,note_off,0,0,0,,0,,,60,127
74255,note_on,77,0,0,,10,,,57,127
74255,note_on,0,0,0,,5,,,65,127
74332,note_off,77,0,0,,5,,,65,127
74332,note_off,0,0,0,,10,,,57,127
74409,note_on,77,0,0,,0,,,48,127
74409,note_on,0,0,0,,10,,,57,127
74447,note_off,38,0,0,,10,,,57,127
74447,note_on,0,0,0,,7,,,55,127
74485,note_off,38,0,0,,7,,,55,127
74485,note_on,0,0,0,,10,,,57,127
74523,note_off,38,0,0,,10,,,57,127
74523,note_on,0,0,0,,7,,,55,127
74561,note_off,38,0,0,,0,,,48,127
74638,note_off,77,0,0,,7,,,55,127
74715,note_on,77,0,0,,0,,,48,127
74715,note_on,0,0,0,,7,,,55,127
74792,note_off,77,0,0,,7,,,55,127
74792,note_off,0,0,0,,0,,,48,127
74869,note_on,77,0,0,,0,,,48,127
74869,note_on,0,0,0,,7,,,55,127
74946,note_off,77,0,0,,7,,,55,127
74946,note_off,0,0,0,,0,,,48,127
75023,note_on,77,0,0,,0,,,48,127
75023,note_on,0,0,0,,7,,,55,127
75100,note_off,77,0,0,,7,,,55,127
75100,note_off,0,0,0,,0,,,48,127
75177,note_on,77,0,0,,5,,,53,127
75177,note_on,0,0,0,,10,,,57,127
75254,note_off,77,0,0,,10,,,57,127
75254,note_off,0,0,0,,5,,,53,127
75331,note_on,77,0,0,,0,,,48,127
75331,note_on,0,0,0,,7,,,55,127
75408,note_off,77,0,0,,7,,,55,127
75408,note_off,0,0,0,,0,,,48,127
75485,note_on,77,0,0,,10,,,45,127
75485,note_on,0,0,0,,5,,,53,127
75562,note_off,77,0,0,,5,,,53,127
75562,note_off,0,0,0,,10,,,45,127
75639,note_on,77,0,0,,0,,,48,127
75639,note_on,0,0,0,,7,,,55,127
75716,note_off,77,0,0,,7,,,55,127
75716,note_off,0,0,0,,0,,,48,127
75793,note_on,77,0,0,,5,,,53,127
75793,note_on,0,0,0,,10,,,57,127
75870,note_off,77,0,0,,10,,,57,127
75870,note_off,0,0,0,,5,,,53,127
75947,note_on,77,0,0,,0,,,48,127
75947,note_on,0,0,0,,7,,,55,127
76024,note_off,77,0,0,,7,,,55,127
76024,note_off,0,0,0,,0,,,48,127
76101,note_on,77,0,0,,10,,,45,127
76101,note_on,0,0,0,,5,,,53,127
76178,note_off,77,0,0,,5,,,53,127
76178,note_off,0,0,0,,10,,,45,127
76255,note_on,77,0,0,,0,,,48,127
76255,note_on,0,0,0,,7,,,55,127
76332,note_off,77,0,0,,7,,,55,127
76332,note_off,0,0,0,,0,,,48,127
76409,note_on,77,0,0,,5,,,53,127
76409,note_on,0,0,0,,10,,,57,127
76486,note_off,77,0,0,,10,,,57,127
76486,note_off,0,0,0,,5,,,53,127
76563,note_on,77,0,0,,0,,,48,127
76563,note_on,0,0,0,,7,,,55,127
76640,note_off,77,0,0,,7,,,55,127
76640,note_off,0,0,0,,0,,,48,127
76717,note_on,77,0,0,,10,,,45,127
76717,note_on,0,0,0,,5,,,53,127
76794,note_off,77,0,0,,5,,,53,127
76794,note_off,0,0,0,,10,,,45,127
76871,note_on,77,0,0,,0,,,36,127
76871,note_on,0,0,0,,10,,,57,127
76909,note_off,38,0,0,,10,,,57,127
76909,note_on,0,0,0,,7,,,55,127
76947,note_off,38,0,0,,7,,,55,127
76947,note_on,0,0,0,,10,,,57,127
76985,note_off,38,0,0,,10,,,57,127
76985,note_on,0,0,0,,7,,,55,127
77023,note_off,38,0,0,,7,,,55,127
77023,note_on,0,0,0,,10,,,57,127
77061,note_off,38,0,0,,10,,,57,127
77061,note_on,0,0,0,,7,,,55,127
78098,note_off,1037,0,0,,7,,,55,127
78098,note_off,0,0,0,,0,,,36,127
78712,note_on,614,0,0,,7,,,79,127
78789,note_off,77,0,0,,7,,,79,127
78789,note_on,0,0,0,,10,,,81,127
78866,note_off,77,0,0,,10,,,81,127
78866,note_on,0,0,0,,11,,,82,127
79020,note_on,154,0,0,,7,,,67,127
79020,note_on,0,0,0,,2,,,62,127
79020,note_on,0,0,0,,11,,,70,127
79321,note_off,301,0,0,,11,,,70,127
79321,note_off,0,0,0,,2,,,62,127
79321,note_off,0,0,0,,7,,,67,127
79327,note_on,6,0,0,,7,,,67,127
79327,note_on,0,0,0,,1,,,61,127
79327,note_on,0,0,0,,10,,,69,127
79474,note_off,147,0,0,,11,,,82,127
79480,note_on,6,0,0,,7,,,79,127
79627,note_off,147,0,0,,7,,,79,127
79627,note_off,0,0,0,,10,,,69,127
79627,note_off,0,0,0,,1,,,61,127
79627,note_off,0,0,0,,7,,,67,127
79633,note_on,6,0,0,,10,,,69,127
79633,note_on,0,0,0,,7,,,67,127
79633,note_on,0,0,0,,1,,,61,127
79633,note_on,0,0,0,,5,,,77,127
79780,note_off,147,0,0,,5,,,77,127
79786,note_on,6,0,0,,4,,,76,127
79933,note_off,147,0,0,,4,,,76,127
79939,note_off,6,0,0,,1,,,61,127
79939,note_off,0,0,0,,7,,,67,127
79939,note_off,0,0,0,,10,,,69,127
79939,note_on,0,0,0,,7,,,79,127
80016,note_off,77,0,0,,7,,,79,127
80016,note_on,0,0,0,,10,,,81,127
80093,note_off,77,0,0,,10,,,81,127
80093,note_on,0,0,0,,11,,,82,127
80247,note_on,154,0,0,,7,,,67,127
80247,note_on,0,0,0,,2,,,62,127
80247,note_on,0,0,0,,11,,,70,127
80548,note_off,301,0,0,,11,,,70,127
80548,note_off,0,0,0,,2,,,62,127
80548,note_off,0,0,0,,7,,,67,127
80554,note_on,6,0,0,,1,,,61,127
80554,note_on,0,0,0,,10,,,69,127
80554,note_on,0,0,0,,7,,,67,127
80701,note_off,147,0,0,,11,,,82,127
80707,note_on,6,0,0,,7,,,79,127
80854,note_off,147,0,0,,7,,,79,127
80854,note_off,0,0,0,,7,,,67,127
80854,note_off,0,0,0,,10,,,69,127
80854,note_off,0,0,0,,1,,,61,127
80860,note_on,6,0,0,,1,,,61,127
80860,note_on,0,0,0,,10,,,69,127
80860,note_on,0,0,0,,7,,,67,127
80860,note_on,0,0,0,,5,,,77,127
81007,note_off,147,0,0,,5,,,77,127
81013,note_on,6,0,0,,4,,,76,127
81160,note_off,147,0,0,,4,,,76,127
81160,note_off,0,0,0,,7,,,67,127
81160,note_off,0,0,0,,10,,,69,127
81160,note_off,0,0,0,,1,,,61,127
81166,note_on,6,0,0,,2,,,62,127
81166,note_on,0,0,0,,10,,,69,127
81166,note_on,0,0,0,,5,,,77,127
81467,note_off,301,0,0,,10,,,69,127
81467,note_off,0,0,0,,2,,,62,127
81473,note_on,6,0,0,,2,,,62,127
81473,note_on,0,0,0,,10,,,69,127
81620,note_off,147,0,0,,5,,,77,127
81626,note_on,6,0,0,,4,,,76,127
81703,note_off,77,0,0,,4,,,76,127
81703,note_on,0,0,0,,5,,,77,127
81773,note_off,70,0,0,,10,,,69,127
81773,note_off,0,0,0,,2,,,62,127
81779,note_off,6,0,0,,5,,,77,127
81779,note_on,0,0,0,,11,,,58,127
81779,note_on,0,0,0,,7,,,67,127
81779,note_on,0,0,0,,7,,,79,127
81926,note_off,147,0,0,,7,,,79,127
81932,note_on,6,0,0,,1,,,73,127
82079,note_off,147,0,0,,7,,,67,127
82079,note_off,0,0,0,,11,,,58,127
82085,note_on,6,0,0,,7,,,55,127
82232,note_off,147,0,0,,1,,,73,127
82238,note_on,6,0,0,,2,,,74,127
82355,note_off,117,0,0,,2,,,74,127
82392,note_on,37,0,0,,7,,,79,127
82469,note_off,77,0,0,,7,,,79,127
82469,note_on,0,0,0,,10,,,81,127
82546,note_off,77,0,0,,10,,,81,127
82546,note_on,0,0,0,,11,,,82,127
82693,note_off,147,0,0,,7,,,55,127
82699,note_on,6,0,0,,11,,,70,127
82699,note_on,0,0,0,,2,,,62,127
82699,note_on,0,0,0,,7,,,67,127
83000,note_off,301,0,0,,7,,,67,127
83000,note_off,0,0,0,,2,,,62,127
83000,note_off,0,0,0,,11,,,70,127
83006,note_on,6,0,0,,7,,,67,127
83006,note_on,0,0,0,,1,,,61,127
83006,note_on,0,0,0,,10,,,69,127
83153,note_off,147,0,0,,11,,,82,127
83159,note_on,6,0,0,,7,,,79,127
83306,note_off,147,0,0,,7,,,79,127
83306,note_off,0,0,0,,10,,,69,127
83306,note_off,0,0,0,,1,,,61,127
83306,note_off,0,0,0,,7,,,67,127
83312,note_on,6,0,0,,7,,,67,127
83312,note_on,0,0,0,,1,,,61,127
83312,note_on,0,0,0,,10,,,69,127
83312,note_on,0,0,0,,5,,,77,127
83459,note_off,147,0,0,,5,,,77,127
83465,note_on,6,0,0,,4,,,76,127
83612,note_off,147,0,0,,4,,,76,127
83618,note_off,6,0,0,,10,,,69,127
83618,note_off,0,0,0,,1,,,61,127
83618,note_off,0,0,0,,7,,,67,127
83618,note_on,0,0,0,,7,,,79,127
83695,note_off,77,0,0,,7,,,79,127
83695,note_on,0,0,0,,10,,,81,127
83772,note_off,77,0,0,,10,,,81,127
83772,note_on,0,0,0,,11,,,82,127
83926,note_on,154,0,0,,7,,,67,127
83926,note_on,0,0,0,,2,,,62,127
83926,note_on,0,0,0,,11,,,70,127
84227,note_off,301,0,0,,11,,,70,127
84227,note_off,0,0,0,,2,,,62,127
84227,note_off,0,0,0,,7,,,67,127
84233,note_on,6,0,0,,1,,,61,127
84233,note_on,0,0,0,,10,,,69,127
84233,note_on,0,0,0,,7,,,67,127
84380,note_off,147,0,0,,11,,,82,127
84386,note_on,6,0,0,,7,,,79,127
84533,note_off,147,0,0,,7,,,79,127
84533,note_off,0,0,0,,7,,,67,127
84533,note_off,0,0,0,,10,,,69,127
84533,note_off,0,0,0,,1,,,61,127
84539,note_on,6,0,0,,1,,,61,127
84539,note_on,0,0,0,,10,,,69,127
84539,note_on,0,0,0,,7,,,67,127
84539,note_on,0,0,0,,5,,,77,127
84686,note_off,147,0,0,,5,,,77,127
84692,note_on,6,0,0,,4,,,76,127
84839,note_off,147,0,0,,4,,,76,127
84839,note_off,0,0,0,,7,,,67,127
84839,note_off,0,0,0,,10,,,69,127
84839,note_off,0,0,0,,1,,,61,127
84845,note_on,6,0,0,,10,,,69,127
84845,note_on,0,0,0,,2,,,62,127
84845,note_on,0,0,0,,8,,,80,127
84992,note_off,147,0,0,,8,,,80,127
84998,note_on,6,0,0,,10,,,81,127
85145,note_off,147,0,0,,10,,,81,127
85145,note_off,0,0,0,,2,,,62,127
85145,note_off,0,0,0,,10,,,69,127
85151,note_on,6,0,0,,11,,,58,127
85151,note_on,0,0,0,,7,,,67,127
85151,note_on,0,0,0,,7,,,79,127
85298,note_off,147,0,0,,7,,,79,127
85304,note_on,6,0,0,,5,,,77,127
85451,note_off,147,0,0,,5,,,77,127
85451,note_off,0,0,0,,7,,,67,127
85451,note_off,0,0,0,,11,,,58,127
85457,note_on,6,0,0,,7,,,55,127
85457,note_on,0,0,0,,7,,,67,127
85457,note_on,0,0,0,,5,,,77,127
85604,note_off,147,0,0,,5,,,77,127
85610,note_on,6,0,0,,4,,,76,127
85757,note_off,147,0,0,,4,,,76,127
85757,note_off,0,0,0,,7,,,67,127
85757,note_off,0,0,0,,7,,,55,127
85763,note_on,6,0,0,,10,,,57,127
85763,note_on,0,0,0,,10,,,69,127
85763,note_on,0,0,0,,2,,,74,127
85910,note_off,147,0,0,,2,,,74,127
85916,note_on,6,0,0,,1,,,73,127
86063,note_off,147,0,0,,1,,,73,127
86063,note_off,0,0,0,,10,,,69,127
86063,note_off,0,0,0,,10,,,57,127
86069,note_on,6,0,0,,2,,,50,127
86069,note_on,0,0,0,,5,,,77,127
86069,note_on,0,0,0,,2,,,86,127
86216,note_off,147,0,0,,2,,,86,127
86216,note_off,0,0,0,,5,,,77,127
86222,note_on,6,0,0,,4,,,76,127
86222,note_on,0,0,0,,0,,,84,127
86369,note_off,147,0,0,,0,,,84,127
86369,note_off,0,0,0,,4,,,76,127
86369,note_off,0,0,0,,2,,,50,127
86375,note_on,6,0,0,,2,,,62,127
86375,note_on,0,0,0,,2,,,74,127
86375,note_on,0,0,0,,11,,,82,127
86522,note_off,147,0,0,,11,,,82,127
86522,note_off,0,0,0,,2,,,74,127
86528,note_on,6,0,0,,0,,,72,127
86528,note_on,0,0,0,,10,,,81,127
86675,note_off,147,0,0,,0,,,72,127
86681,note_on,6,0,0,,11,,,70,127
86828,note_off,147,0,0,,10,,,81,127
86834,note_on,6,0,0,,7,,,79,127
86981,note_off,147,0,0,,7,,,79,127
86981,note_off,0,0,0,,11,,,70,127
86981,note_off,0,0,0,,2,,,62,127
86987,note_on,6,0,0,,1,,,61,127
86987,note_on,0,0,0,,10,,,69,127
86987,note_on,0,0,0,,5,,,77,127
87134,note_off,147,0,0,,5,,,77,127
87134,note_off,0,0,0,,10,,,69,127
87140,note_on,6,0,0,,7,,,67,127
87140,note_on,0,0,0,,4,,,76,127
87287,note_off,147,0,0,,4,,,76,127
87287,note_off,0,0,0,,7,,,67,127
87287,note_off,0,0,0,,1,,,61,127
87293,note_on,6,0,0,,2,,,50,127
87293,note_on,0,0,0,,5,,,77,127
87293,note_on,0,0,0,,2,,,86,127
87440,note_off,147,0,0,,2,,,86,127
87440,note_off,0,0,0,,5,,,77,127
87446,note_on,6,0,0,,4,,,76,127
87446,note_on,0,0,0,,0,,,84,127
87593,note_off,147,0,0,,0,,,84,127
87593,note_off,0,0,0,,4,,,76,127
87593,note_off,0,0,0,,2,,,50,127
87599,note_on,6,0,0,,2,,,62,127
87599,note_on,0,0,0,,2,,,74,127
87599,note_on,0,0,0,,11,,,82,127
87746,note_off,147,0,0,,11,,,82,127
87746,note_off,0,0,0,,2,,,74,127
87752,note_on,6,0,0,,0,,,72,127
87752,note_on,0,0,0,,10,,,81,127
87899,note_off,147,0,0,,0,,,72,127
87905,note_on,6,0,0,,11,,,70,127
88052,note_off,147,0,0,,10,,,81,127
88058,note_on,6,0,0,,7,,,79,127
88205,note_off,147,0,0,,7,,,79,127
88205,note_off,0,0,0,,11,,,70,127
88205,note_off,0,0,0,,2,,,62,127
88211,note_on,6,0,0,,1,,,61,127
88211,note_on,0,0,0,,10,,,69,127
88211,note_on,0,0,0,,5,,,77,127
88358,note_off,147,0,0,,5,,,77,127
88358,note_off,0,0,0,,10,,,69,127
88364,note_on,6,0,0,,7,,,67,127
88364,note_on,0,0,0,,4,,,76,127
88511,note_off,147,0,0,,4,,,76,127
88511,note_off,0,0,0,,7,,,67,127
88511,note_off,0,0,0,,1,,,61,127
88517,note_on,6,0,0,,2,,,62,127
88517,note_on,0,0,0,,5,,,65,127
88517,note_on,0,0,0,,2,,,74,127
88664,note_off,147,0,0,,2,,,74,127
88664,note_off,0,0,0,,5,,,65,127
88670,note_on,6,0,0,,7,,,67,127
88670,note_on,0,0,0,,4,,,76,127
88817,note_off,147,0,0,,4,,,76,127
88817,note_off,0,0,0,,7,,,67,127
88817,note_off,0,0,0,,2,,,62,127
88823,note_on,6,0,0,,7,,,55,127
88823,note_on,0,0,0,,10,,,69,127
88823,note_on,0,0,0,,5,,,77,127
88970,note_off,147,0,0,,5,,,77,127
88970,note_off,0,0,0,,10,,,69,127
88976,note_on,6,0,0,,11,,,70,127
88976,note_on,0,0,0,,7,,,79,127
89123,note_off,147,0,0,,7,,,79,127
89123,note_off,0,0,0,,11,,,70,127
89123,note_off,0,0,0,,7,,,55,127
89129,note_on,6,0,0,,10,,,57,127
89129,note_on,0,0,0,,10,,,69,127
89129,note_on,0,0,0,,5,,,77,127
89276,note_off,147,0,0,,5,,,77,127
89276,note_off,0,0,0,,10,,,69,127
89282,note_on,6,0,0,,7,,,67,127
89282,note_on,0,0,0,,4,,,76,127
89429,note_off,147,0,0,,4,,,76,127
89429,note_off,0,0,0,,7,,,67,127
89435,note_on,6,0,0,,10,,,45,127
89435,note_on,0,0,0,,5,,,65,127
89435,note_on,0,0,0,,2,,,74,127
89582,note_off,147,0,0,,2,,,74,127
89582,note_off,0,0,0,,5,,,65,127
89588,note_on,6,0,0,,4,,,64,127
89588,note_on,0,0,0,,1,,,73,127
89735,note_off,147,0,0,,1,,,73,127
89735,note_off,0,0,0,,4,,,64,127
89735,note_off,0,0,0,,10,,,45,127
89735,note_off,0,0,0,,10,,,57,127
89741,note_on,6,0,0,,11,,,46,127
89741,note_on,0,0,0,,5,,,65,127
89741,note_on,0,0,0,,2,,,74,127
89888,note_off,147,0,0,,2,,,74,127
89888,note_off,0,0,0,,5,,,65,127
89894,note_on,6,0,0,,7,,,67,127
89894,note_on,0,0,0,,4,,,76,127
90041,note_off,147,0,0,,4,,,76,127
90041,note_off,0,0,0,,7,,,67,127
90047,note_on,6,0,0,,7,,,55,127
90047,note_on,0,0,0,,10,,,69,127
90047,note_on,0,0,0,,5,,,77,127
90194,note_off,147,0,0,,5,,,77,127
90194,note_off,0,0,0,,10,,,69,127
90200,note_off,6,0,0,,11,,,46,127
90200,note_on,0,0,0,,11,,,70,127
90200,note_on,0,0,0,,7,,,79,127
90347,note_off,147,0,0,,7,,,79,127
90347,note_off,0,0,0,,11,,,70,127
90347,note_off,0,0,0,,7,,,55,127
90353,note_on,6,0,0,,10,,,45,127
90353,note_on,0,0,0,,10,,,57,127
90353,note_on,0,0,0,,10,,,69,127
90353,note_on,0,0,0,,5,,,77,127
90500,note_off,147,0,0,,5,,,77,127
90500,note_off,0,0,0,,10,,,69,127
90506,note_on,6,0,0,,7,,,67,127
90506,note_on,0,0,0,,4,,,76,127
90653,note_off,147,0,0,,4,,,76,127
90653,note_off,0,0,0,,7,,,67,127
90659,note_on,6,0,0,,5,,,65,127
90659,note_on,0,0,0,,2,,,74,127
90806,note_off,147,0,0,,2,,,74,127
90806,note_off,0,0,0,,5,,,65,127
90812,note_on,6,0,0,,4,,,64,127
90812,note_on,0,0,0,,1,,,73,127
90959,note_off,147,0,0,,1,,,73,127
90959,note_off,0,0,0,,4,,,64,127
90959,note_off,0,0,0,,10,,,57,127
90959,note_off,0,0,0,,10,,,45,127
90965,note_on,6,0,0,,11,,,46,127
90965,note_on,0,0,0,,5,,,65,127
90965,note_on,0,0,0,,2,,,74,127
91112,note_off,147,0,0,,2,,,74,127
91112,note_off,0,0,0,,5,,,65,127
91118,note_on,6,0,0,,7,,,67,127
91118,note_on,0,0,0,,4,,,76,127
91265,note_off,147,0,0,,4,,,76,127
91265,note_off,0,0,0,,7,,,67,127
91271,note_on,6,0,0,,7,,,55,127
91271,note_on,0,0,0,,10,,,69,127
91271,note_on,0,0,0,,5,,,77,127
91418,note_off,147,0,0,,5,,,77,127
91418,note_off,0,0,0,,10,,,69,127
91424,note_off,6,0,0,,11,,,46,127
91424,note_on,0,0,0,,11,,,70,127
91424,note_on,0,0,0,,7,,,79,127
91571,note_off,147,0,0,,7,,,79,127
91571,note_off,0,0,0,,11,,,70,127
91571,note_off,0,0,0,,7,,,55,127
91577,note_on,6,0,0,,10,,,45,127
91577,note_on,0,0,0,,10,,,57,127
91577,note_on,0,0,0,,10,,,69,127
91577,note_on,0,0,0,,5,,,77,127
91724,note_off,147,0,0,,5,,,77,127
91724,note_off,0,0,0,,10,,,69,127
91730,note_on,6,0,0,,7,,,67,127
91730,note_on,0,0,0,,4,,,76,127
91877,note_off,147,0,0,,4,,,76,127
91877,note_off,0,0,0,,7,,,67,127
91877,note_off,0,0,0,,10,,,57,127
91883,note_on,6,0,0,,10,,,57,127
91883,note_on,0,0,0,,5,,,65,127
91883,note_on,0,0,0,,2,,,74,127
92030,note_off,147,0,0,,2,,,74,127
92030,note_off,0,0,0,,5,,,65,127
92036,note_on,6,0,0,,4,,,64,127
92036,note_on,0,0,0,,1,,,73,127
92183,note_off,147,0,0,,1,,,73,127
92183,note_off,0,0,0,,4,,,64,127
92183,note_off,0,0,0,,10,,,57,127
92183,note_off,0,0,0,,10,,,45,127
92189,note_on,6,0,0,,2,,,50,127
92189,note_on,0,0,0,,2,,,74,127
92336,note_off,147,0,0,,2,,,74,127
92342,note_on,6,0,0,,10,,,69,127
92489,note_off,147,0,0,,10,,,69,127
92489,note_off,0,0,0,,2,,,50,127
92495,note_on,6,0,0,,2,,,86,127
92495,note_on,0,0,0,,5,,,77,127
92642,note_off,147,0,0,,5,,,77,127
92648,note_on,6,0,0,,10,,,69,127
92795,note_off,147,0,0,,10,,,69,127
92795,note_off,0,0,0,,2,,,86,127
92801,note_on,6,0,0,,11,,,46,127
92801,note_on,0,0,0,,2,,,74,127
92948,note_off,147,0,0,,2,,,74,127
92954,note_on,6,0,0,,11,,,70,127
93101,note_off,147,0,0,,11,,,70,127
93101,note_off,0,0,0,,11,,,46,127
93107,note_on,6,0,0,,2,,,86,127
93107,note_on,0,0,0,,5,,,77,127
93254,note_off,147,0,0,,5,,,77,127
93260,note_on,6,0,0,,11,,,70,127
93407,note_off,147,0,0,,11,,,70,127
93407,note_off,0,0,0,,2,,,86,127
93413,note_on,6,0,0,,7,,,43,127
93413,note_on,0,0,0,,2,,,74,127
93560,note_off,147,0,0,,2,,,74,127
93566,note_on,6,0,0,,11,,,70,127
93713,note_off,147,0,0,,11,,,70,127
93713,note_off,0,0,0,,7,,,43,127
93719,note_on,6,0,0,,2,,,86,127
93719,note_on,0,0,0,,7,,,79,127
93866,note_off,147,0,0,,7,,,79,127
93872,note_on,6,0,0,,11,,,70,127
94019,note_off,147,0,0,,11,,,70,127
94019,note_off,0,0,0,,2,,,86,127
94025,note_on,6,0,0,,10,,,45,127
94025,note_on,0,0,0,,10,,,69,127
94025,note_on,0,0,0,,5,,,77,127
94172,note_off,147,0,0,,5,,,77,127
94172,note_off,0,0,0,,10,,,69,127
94178,note_on,6,0,0,,7,,,67,127
94178,note_on,0,0,0,,4,,,76,127
94325,note_off,147,0,0,,4,,,76,127
94325,note_off,0,0,0,,7,,,67,127
94325,note_off,0,0,0,,10,,,45,127
94331,note_on,6,0,0,,10,,,45,127
94331,note_on,0,0,0,,5,,,65,127
94331,note_on,0,0,0,,2,,,74,127
94478,note_off,147,0,0,,2,,,74,127
94478,note_off,0,0,0,,5,,,65,127
94484,note_on,6,0,0,,4,,,64,127
94484,note_on,0,0,0,,1,,,73,127
94631,note_off,147,0,0,,1,,,73,127
94631,note_off,0,0,0,,4,,,64,127
94631,note_off,0,0,0,,10,,,45,127
94637,note_on,6,0,0,,2,,,62,127
94637,note_on,0,0,0,,2,,,74,127
94784,note_off,147,0,0,,2,,,62,127
94790,note_on,6,0,0,,5,,,65,127
94937,note_off,147,0,0,,5,,,65,127
94937,note_off,0,0,0,,2,,,74,127
94943,note_on,6,0,0,,10,,,69,127
94943,note_on,0,0,0,,2,,,86,127
95090,note_off,147,0,0,,10,,,69,127
95096,note_on,6,0,0,,5,,,65,127
95243,note_off,147,0,0,,5,,,65,127
95243,note_off,0,0,0,,2,,,86,127
95249,note_on,6,0,0,,11,,,58,127
95249,note_on,0,0,0,,11,,,46,127
95396,note_off,147,0,0,,11,,,58,127
95402,note_on,6,0,0,,2,,,62,127
95549,note_off,147,0,0,,2,,,62,127
95549,note_off,0,0,0,,11,,,46,127
95555,note_on,6,0,0,,7,,,67,127
95555,note_on,0,0,0,,2,,,86,127
95702,note_off,147,0,0,,7,,,67,127
95708,note_on,6,0,0,,2,,,62,127
95855,note_off,147,0,0,,2,,,62,127
95855,note_off,0,0,0,,2,,,86,127
95861,note_on,6,0,0,,7,,,55,127
95861,note_on,0,0,0,,7,,,43,127
96008,note_off,147,0,0,,7,,,55,127
96014,note_on,6,0,0,,11,,,58,127
96161,note_off,147,0,0,,11,,,58,127
96161,note_off,0,0,0,,7,,,43,127
96167,note_on,6,0,0,,2,,,62,127
96167,note_on,0,0,0,,2,,,86,127
96314,note_off,147,0,0,,2,,,62,127
96320,note_on,6,0,0,,7,,,67,127
96467,note_off,147,0,0,,7,,,67,127
96467,note_off,0,0,0,,2,,,86,127
96473,note_on,6,0,0,,10,,,57,127
96473,note_on,0,0,0,,5,,,65,127
96473,note_on,0,0,0,,10,,,45,127
96620,note_off,147,0,0,,5,,,65,127
96620,note_off,0,0,0,,10,,,57,127
96626,note_on,6,0,0,,4,,,64,127
96773,note_off,147,0,0,,4,,,64,127
96773,note_off,0,0,0,,10,,,45,127
96779,note_on,6,0,0,,2,,,62,127
96779,note_on,0,0,0,,10,,,33,127
96926,note_off,147,0,0,,2,,,62,127
96932,note_on,6,0,0,,1,,,61,127
97079,note_off,147,0,0,,1,,,61,127
97079,note_off,0,0,0,,10,,,33,127
97085,note_on,6,0,0,,2,,,50,127
97085,note_on,0,0,0,,2,,,38,127
97232,note_off,147,0,0,,2,,,50,127
97238,note_on,6,0,0,,2,,,62,127
97385,note_off,147,0,0,,2,,,62,127
97385,note_off,0,0,0,,2,,,38,127
97391,note_on,6,0,0,,7,,,55,127
97391,note_on,0,0,0,,7,,,79,127
97538,note_off,147,0,0,,7,,,55,127
97544,note_on,6,0,0,,4,,,64,127
97691,note_off,147,0,0,,4,,,64,127
97691,note_off,0,0,0,,7,,,79,127
97697,note_on,6,0,0,,10,,,57,127
97697,note_on,0,0,0,,5,,,77,127
97844,note_off,147,0,0,,5,,,77,127
97850,note_on,6,0,0,,4,,,76,127
97997,note_off,147,0,0,,4,,,76,127
98003,note_on,6,0,0,,10,,,45,127
98003,note_on,0,0,0,,2,,,74,127
98150,note_off,147,0,0,,2,,,74,127
98156,note_on,6,0,0,,1,,,73,127
98303,note_off,147,0,0,,1,,,73,127
98303,note_off,0,0,0,,10,,,45,127
98303,note_off,0,0,0,,10,,,57,127
98309,note_on,6,0,0,,11,,,46,127
98309,note_on,0,0,0,,2,,,74,127
98456,note_off,147,0,0,,11,,,46,127
98462,note_on,6,0,0,,2,,,50,127
98609,note_off,147,0,0,,2,,,50,127
98609,note_off,0,0,0,,2,,,74,127
98615,note_on,6,0,0,,7,,,43,127
98615,note_on,0,0,0,,7,,,67,127
98762,note_off,147,0,0,,7,,,43,127
98768,note_on,6,0,0,,7,,,55,127
98915,note_off,147,0,0,,7,,,55,127
98915,note_off,0,0,0,,7,,,67,127
98921,note_on,6,0,0,,10,,,45,127
98921,note_on,0,0,0,,5,,,65,127
99068,note_off,147,0,0,,5,,,65,127
99074,note_on,6,0,0,,4,,,64,127
99221,note_off,147,0,0,,4,,,64,127
99227,note_on,6,0,0,,10,,,57,127
99227,note_on,0,0,0,,2,,,62,127
99374,note_off,147,0,0,,2,,,62,127
99380,note_off,6,0,0,,10,,,45,127
99380,note_on,0,0,0,,1,,,61,127
99527,note_off,147,0,0,,1,,,61,127
99527,note_off,0,0,0,,10,,,57,127
99533,note_on,6,0,0,,11,,,46,127
99533,note_on,0,0,0,,2,,,62,127
99687,note_on,154,0,0,,11,,,58,127
99834,note_off,147,0,0,,11,,,58,127
99834,note_off,0,0,0,,11,,,46,127
99840,note_on,6,0,0,,7,,,43,127
99840,note_on,0,0,0,,10,,,57,127
99987,note_off,147,0,0,,10,,,57,127
99987,note_off,0,0,0,,2,,,62,127
99993,note_on,6,0,0,,7,,,55,127
99993,note_on,0,0,0,,4,,,64,127
100140,note_off,147,0,0,,4,,,64,127
100140,note_off,0,0,0,,7,,,55,127
100140,note_off,0,0,0,,7,,,43,127
100146,note_on,6,0,0,,10,,,45,127
100146,note_on,0,0,0,,5,,,53,127
100293,note_off,147,0,0,,5,,,53,127
100299,note_on,6,0,0,,2,,,62,127
100446,note_off,147,0,0,,2,,,62,127
100452,note_on,6,0,0,,10,,,33,127
100452,note_on,0,0,0,,4,,,52,127
100599,note_off,147,0,0,,4,,,52,127
100605,note_on,6,0,0,,1,,,61,127
100752,note_off,147,0,0,,1,,,61,127
100752,note_off,0,0,0,,10,,,33,127
100752,note_off,0,0,0,,10,,,45,127
100786,note_on,34,0,0,,2,,,38,127
100786,note_on,0,0,0,,2,,,62,127
102909,note_off,2123,0,0,,2,,,62,127
102909,note_off,0,0,0,,2,,,38,127
104448,end_of_track,1539,1,0,,,,,,
