tick,type,time,meta,track,program,channel,pitch,tempo,note,velocity
0,copyright,0,1,0,,,,,,
0,program_change,0,0,0,6,0,,,,
0,pitchwheel,0,0,0,,0,0,,,
0,program_change,0,0,0,6,1,,,,
0,pitchwheel,0,0,0,,1,-590,,,
0,program_change,0,0,0,6,2,,,,
0,pitchwheel,0,0,0,,2,-272,,,
0,program_change,0,0,0,6,3,,,,
0,pitchwheel,0,0,0,,3,-353,,,
0,program_change,0,0,0,6,4,,,,
0,pitchwheel,0,0,0,,4,-560,,,
0,program_change,0,0,0,6,5,,,,
0,pitchwheel,0,0,0,,5,-80,,,
0,program_change,0,0,0,6,6,,,,
0,pitchwheel,0,0,0,,6,-625,,,
0,program_change,0,0,0,6,7,,,,
0,pitchwheel,0,0,0,,7,-130,,,
0,program_change,0,0,0,6,8,,,,
0,pitchwheel,0,0,0,,8,-512,,,
0,program_change,0,0,0,6,10,,,,
0,pitchwheel,0,0,0,,10,-464,,,
0,program_change,0,0,0,6,11,,,,
0,pitchwheel,0,0,0,,11,-208,,,
0,program_change,0,0,0,6,12,,,,
0,pitchwheel,0,0,0,,12,-553,,,
0,set_tempo,0,1,0,,,,500000,,
100,note_on,100,0,0,,2,,,50,127
100,note_on,0,0,0,,5,,,53,127
100,note_on,0,0,0,,10,,,57,127
100,note_on,0,0,0,,2,,,62,127
100,note_on,0,0,0,,2,,,74,127
194,note_off,94,0,0,,2,,,74,127
200,note_on,6,0,0,,2,,,74,127
294,note_off,94,0,0,,2,,,74,127
300,note_on,6,0,0,,2,,,74,127
394,note_off,94,0,0,,2,,,74,127
400,note_on,6,0,0,,2,,,74,127
494,note_off,94,0,0,,2,,,74,127
500,note_on,6,0,0,,2,,,74,127
509,note_off,9,0,0,,2,,,62,127
509,note_off,0,0,0,,10,,,57,127
509,note_off,0,0,0,,5,,,53,127
509,note_off,0,0,0,,2,,,50,127
594,note_off,85,0,0,,2,,,74,127
600,note_on,6,0,0,,2,,,74,127
694,note_off,94,0,0,,2,,,74,127
700,note_on,6,0,0,,2,,,50,127
700,note_on,0,0,0,,10,,,57,127
700,note_on,0,0,0,,5,,,53,127
700,note_on,0,0,0,,2,,,62,127
700,note_on,0,0,0,,5,,,77,127
794,note_off,94,0,0,,5,,,77,127
800,note_on,6,0,0,,5,,,77,127
894,note_off,94,0,0,,5,,,77,127
900,note_on,6,0,0,,5,,,77,127
994,note_off,94,0,0,,5,,,77,127
1000,note_on,6,0,0,,5,,,77,127
1094,note_off,94,0,0,,5,,,77,127
1100,note_on,6,0,0,,5,,,77,127
1109,note_off,9,0,0,,2,,,62,127
1109,note_off,0,0,0,,5,,,53,127
1109,note_off,0,0,0,,10,,,57,127
1109,note_off,0,0,0,,2,,,50,127
1194,note_off,85,0,0,,5,,,77,127
1200,note_on,6,0,0,,5,,,77,127
1294,note_off,94,0,0,,5,,,77,127
1300,note_on,6,0,0,,4,,,64,127
1300,note_on,0,0,0,,1,,,61,127
1300,note_on,0,0,0,,10,,,69,127
1300,note_on,0,0,0,,10,,,57,127
1300,note_on,0,0,0,,4,,,76,127
1394,note_off,94,0,0,,4,,,76,127
1400,note_on,6,0,0,,4,,,76,127
1494,note_off,94,0,0,,4,,,76,127
1500,note_on,6,0,0,,4,,,76,127
1594,note_off,94,0,0,,4,,,76,127
1600,note_on,6,0,0,,4,,,76,127
1694,note_off,94,0,0,,4,,,76,127
1700,note_on,6,0,0,,4,,,76,127
1709,note_off,9,0,0,,10,,,57,127
1709,note_off,0,0,0,,10,,,69,127
1709,note_off,0,0,0,,1,,,61,127
1709,note_off,0,0,0,,4,,,64,127
1794,note_off,85,0,0,,4,,,76,127
1800,note_on,6,0,0,,4,,,76,127
1894,note_off,94,0,0,,4,,,76,127
1900,note_on,6,0,0,,1,,,61,127
1900,note_on,0,0,0,,11,,,58,127
1900,note_on,0,0,0,,7,,,67,127
1900,note_on,0,0,0,,2,,,62,127
1900,note_on,0,0,0,,2,,,74,127
1994,note_off,94,0,0,,2,,,74,127
2000,note_on,6,0,0,,2,,,74,127
2094,note_off,94,0,0,,2,,,74,127
2100,note_on,6,0,0,,2,,,74,127
2194,note_off,94,0,0,,2,,,74,127
2200,note_on,6,0,0,,2,,,74,127
2294,note_off,94,0,0,,2,,,74,127
2300,note_on,6,0,0,,2,,,74,127
2309,note_off,9,0,0,,2,,,62,127
2309,note_off,0,0,0,,7,,,67,127
2309,note_off,0,0,0,,11,,,58,127
2309,note_off,0,0,0,,1,,,61,127
2394,note_off,85,0,0,,2,,,74,127
2400,note_on,6,0,0,,2,,,74,127
2494,note_off,94,0,0,,2,,,74,127
2500,note_on,6,0,0,,10,,,57,127
2500,note_on,0,0,0,,4,,,64,127
2500,note_on,0,0,0,,1,,,61,127
2500,note_on,0,0,0,,10,,,69,127
2500,note_on,0,0,0,,4,,,76,127
2594,note_off,94,0,0,,4,,,76,127
2600,note_on,6,0,0,,4,,,76,127
2694,note_off,94,0,0,,4,,,76,127
2700,note_on,6,0,0,,4,,,76,127
2794,note_off,94,0,0,,4,,,76,127
2800,note_on,6,0,0,,4,,,76,127
2894,note_off,94,0,0,,4,,,76,127
2900,note_on,6,0,0,,4,,,76,127
2909,note_off,9,0,0,,10,,,69,127
2909,note_off,0,0,0,,1,,,61,127
2909,note_off,0,0,0,,4,,,64,127
2909,note_off,0,0,0,,10,,,57,127
2994,note_off,85,0,0,,4,,,76,127
3000,note_on,6,0,0,,4,,,76,127
3094,note_off,94,0,0,,4,,,76,127
3100,note_on,6,0,0,,2,,,62,127
3100,note_on,0,0,0,,10,,,57,127
3100,note_on,0,0,0,,5,,,53,127
3100,note_on,0,0,0,,10,,,81,127
3194,note_off,94,0,0,,10,,,81,127
3200,note_on,6,0,0,,10,,,81,127
3294,note_off,94,0,0,,10,,,81,127
3300,note_on,6,0,0,,10,,,81,127
3394,note_off,94,0,0,,10,,,81,127
3400,note_on,6,0,0,,10,,,81,127
3494,note_off,94,0,0,,10,,,81,127
3500,note_on,6,0,0,,10,,,81,127
3509,note_off,9,0,0,,5,,,53,127
3509,note_off,0,0,0,,10,,,57,127
3509,note_off,0,0,0,,2,,,62,127
3594,note_off,85,0,0,,10,,,81,127
3600,note_on,6,0,0,,10,,,81,127
3694,note_off,94,0,0,,10,,,81,127
3700,note_on,6,0,0,,11,,,58,127
3700,note_on,0,0,0,,2,,,62,127
3700,note_on,0,0,0,,7,,,55,127
3700,note_on,0,0,0,,2,,,86,127
3794,note_off,94,0,0,,2,,,86,127
3800,note_on,6,0,0,,11,,,82,127
3894,note_off,94,0,0,,11,,,82,127
3900,note_on,6,0,0,,10,,,81,127
3994,note_off,94,0,0,,10,,,81,127
4000,note_on,6,0,0,,7,,,79,127
4094,note_off,94,0,0,,7,,,79,127
4100,note_on,6,0,0,,5,,,77,127
4109,note_off,9,0,0,,7,,,55,127
4109,note_off,0,0,0,,2,,,62,127
4109,note_off,0,0,0,,11,,,58,127
4194,note_off,85,0,0,,5,,,77,127
4200,note_on,6,0,0,,4,,,76,127
4294,note_off,94,0,0,,4,,,76,127
4300,note_on,6,0,0,,10,,,57,127
4300,note_on,0,0,0,,5,,,65,127
4300,note_on,0,0,0,,2,,,62,127
4300,note_on,0,0,0,,5,,,77,127
4394,note_off,94,0,0,,5,,,77,127
4400,note_on,6,0,0,,7,,,79,127
4494,note_off,94,0,0,,7,,,79,127
4500,note_on,6,0,0,,10,,,81,127
4594,note_off,94,0,0,,10,,,81,127
4600,note_on,6,0,0,,2,,,74,127
4694,note_off,94,0,0,,2,,,74,127
4696,note_off,2,0,0,,2,,,62,127
4696,note_off,0,0,0,,5,,,65,127
4696,note_off,0,0,0,,10,,,57,127
4700,note_on,4,0,0,,10,,,57,127
4700,note_on,0,0,0,,4,,,64,127
4700,note_on,0,0,0,,7,,,67,127
4700,note_on,0,0,0,,4,,,76,127
4794,note_off,94,0,0,,4,,,76,127
4800,note_on,6,0,0,,1,,,73,127
4867,note_off,67,0,0,,7,,,67,127
4894,note_off,27,0,0,,1,,,73,127
4898,note_off,4,0,0,,4,,,64,127
4898,note_off,0,0,0,,10,,,57,127
4900,note_on,2,0,0,,2,,,50,127
4900,note_on,0,0,0,,2,,,74,127
4900,note_on,0,0,0,,2,,,62,127
4994,note_off,94,0,0,,2,,,74,127
5000,note_on,6,0,0,,11,,,70,127
5094,note_off,94,0,0,,11,,,70,127
5100,note_on,6,0,0,,10,,,69,127
5194,note_off,94,0,0,,10,,,69,127
5200,note_on,6,0,0,,7,,,67,127
5294,note_off,94,0,0,,7,,,67,127
5296,note_off,2,0,0,,2,,,62,127
5300,note_on,4,0,0,,5,,,65,127
5394,note_off,94,0,0,,5,,,65,127
5400,note_off,6,0,0,,2,,,50,127
5400,note_on,0,0,0,,4,,,64,127
5494,note_off,94,0,0,,4,,,64,127
5500,note_on,6,0,0,,2,,,38,127
5500,note_on,0,0,0,,5,,,41,127
5500,note_on,0,0,0,,10,,,45,127
5500,note_on,0,0,0,,2,,,50,127
5500,note_on,0,0,0,,2,,,62,127
5594,note_off,94,0,0,,2,,,62,127
5600,note_on,6,0,0,,2,,,62,127
5694,note_off,94,0,0,,2,,,62,127
5700,note_on,6,0,0,,2,,,62,127
5794,note_off,94,0,0,,2,,,62,127
5800,note_on,6,0,0,,2,,,62,127
5894,note_off,94,0,0,,2,,,62,127
5900,note_on,6,0,0,,2,,,62,127
5909,note_off,9,0,0,,2,,,50,127
5909,note_off,0,0,0,,10,,,45,127
5909,note_off,0,0,0,,5,,,41,127
5909,note_off,0,0,0,,2,,,38,127
5994,note_off,85,0,0,,2,,,62,127
6000,note_on,6,0,0,,2,,,62,127
6094,note_off,94,0,0,,2,,,62,127
6100,note_on,6,0,0,,2,,,38,127
6100,note_on,0,0,0,,2,,,50,127
6100,note_on,0,0,0,,10,,,45,127
6100,note_on,0,0,0,,5,,,41,127
6100,note_on,0,0,0,,5,,,65,127
6194,note_off,94,0,0,,5,,,65,127
6200,note_on,6,0,0,,5,,,65,127
6294,note_off,94,0,0,,5,,,65,127
6300,note_on,6,0,0,,5,,,65,127
6394,note_off,94,0,0,,5,,,65,127
6400,note_on,6,0,0,,5,,,65,127
6494,note_off,94,0,0,,5,,,65,127
6500,note_on,6,0,0,,5,,,65,127
6509,note_off,9,0,0,,5,,,41,127
6509,note_off,0,0,0,,10,,,45,127
6509,note_off,0,0,0,,2,,,50,127
6509,note_off,0,0,0,,2,,,38,127
6594,note_off,85,0,0,,5,,,65,127
6600,note_on,6,0,0,,5,,,65,127
6694,note_off,94,0,0,,5,,,65,127
6700,note_on,6,0,0,,4,,,52,127
6700,note_on,0,0,0,,1,,,49,127
6700,note_on,0,0,0,,10,,,45,127
6700,note_on,0,0,0,,10,,,57,127
6700,note_on,0,0,0,,4,,,64,127
6794,note_off,94,0,0,,4,,,64,127
6800,note_on,6,0,0,,4,,,64,127
6894,note_off,94,0,0,,4,,,64,127
6900,note_on,6,0,0,,4,,,64,127
6994,note_off,94,0,0,,4,,,64,127
7000,note_on,6,0,0,,4,,,64,127
7094,note_off,94,0,0,,4,,,64,127
7100,note_on,6,0,0,,4,,,64,127
7109,note_off,9,0,0,,10,,,57,127
7109,note_off,0,0,0,,10,,,45,127
7109,note_off,0,0,0,,1,,,49,127
7109,note_off,0,0,0,,4,,,52,127
7194,note_off,85,0,0,,4,,,64,127
7200,note_on,6,0,0,,4,,,64,127
7294,note_off,94,0,0,,4,,,64,127
7300,note_on,6,0,0,,11,,,46,127
7300,note_on,0,0,0,,2,,,50,127
7300,note_on,0,0,0,,7,,,55,127
7300,note_on,0,0,0,,2,,,62,127
7394,note_off,94,0,0,,2,,,62,127
7400,note_on,6,0,0,,2,,,62,127
7494,note_off,94,0,0,,2,,,62,127
7500,note_on,6,0,0,,2,,,62,127
7594,note_off,94,0,0,,2,,,62,127
7600,note_on,6,0,0,,2,,,62,127
7694,note_off,94,0,0,,2,,,62,127
7700,note_on,6,0,0,,2,,,62,127
7709,note_off,9,0,0,,7,,,55,127
7709,note_off,0,0,0,,2,,,50,127
7709,note_off,0,0,0,,11,,,46,127
7794,note_off,85,0,0,,2,,,62,127
7800,note_on,6,0,0,,2,,,62,127
7894,note_off,94,0,0,,2,,,62,127
7900,note_on,6,0,0,,10,,,45,127
7900,note_on,0,0,0,,4,,,52,127
7900,note_on,0,0,0,,1,,,49,127
7900,note_on,0,0,0,,10,,,57,127
7900,note_on,0,0,0,,4,,,64,127
7994,note_off,94,0,0,,4,,,64,127
8000,note_on,6,0,0,,4,,,64,127
8094,note_off,94,0,0,,4,,,64,127
8100,note_on,6,0,0,,4,,,64,127
8194,note_off,94,0,0,,4,,,64,127
8200,note_on,6,0,0,,4,,,64,127
8294,note_off,94,0,0,,4,,,64,127
8300,note_on,6,0,0,,4,,,64,127
8309,note_off,9,0,0,,10,,,57,127
8309,note_off,0,0,0,,1,,,49,127
8309,note_off,0,0,0,,4,,,52,127
8309,note_off,0,0,0,,10,,,45,127
8394,note_off,85,0,0,,4,,,64,127
8400,note_on,6,0,0,,4,,,64,127
8494,note_off,94,0,0,,4,,,64,127
8500,note_on,6,0,0,,5,,,41,127
8500,note_on,0,0,0,,2,,,50,127
8500,note_on,0,0,0,,10,,,45,127
8500,note_on,0,0,0,,10,,,69,127
8594,note_off,94,0,0,,10,,,69,127
8600,note_on,6,0,0,,10,,,69,127
8694,note_off,94,0,0,,10,,,69,127
8700,note_on,6,0,0,,10,,,69,127
8794,note_off,94,0,0,,10,,,69,127
8800,note_on,6,0,0,,10,,,69,127
8894,note_off,94,0,0,,10,,,69,127
8900,note_on,6,0,0,,10,,,69,127
8909,note_off,9,0,0,,10,,,45,127
8909,note_off,0,0,0,,2,,,50,127
8909,note_off,0,0,0,,5,,,41,127
8994,note_off,85,0,0,,10,,,69,127
9000,note_on,6,0,0,,10,,,69,127
9094,note_off,94,0,0,,10,,,69,127
9100,note_on,6,0,0,,7,,,43,127
9100,note_on,0,0,0,,2,,,50,127
9100,note_on,0,0,0,,11,,,46,127
9100,note_on,0,0,0,,7,,,55,127
9100,note_on,0,0,0,,2,,,74,127
9194,note_off,94,0,0,,2,,,74,127
9200,note_on,6,0,0,,11,,,70,127
9294,note_off,94,0,0,,11,,,70,127
9300,note_on,6,0,0,,10,,,69,127
9394,note_off,94,0,0,,10,,,69,127
9400,note_on,6,0,0,,7,,,67,127
9494,note_off,94,0,0,,7,,,67,127
9500,note_on,6,0,0,,5,,,65,127
9509,note_off,9,0,0,,7,,,55,127
9509,note_off,0,0,0,,11,,,46,127
9509,note_off,0,0,0,,2,,,50,127
9509,note_off,0,0,0,,7,,,43,127
9594,note_off,85,0,0,,5,,,65,127
9600,note_on,6,0,0,,4,,,64,127
9694,note_off,94,0,0,,4,,,64,127
9700,note_on,6,0,0,,2,,,50,127
9700,note_on,0,0,0,,10,,,45,127
9700,note_on,0,0,0,,5,,,53,127
9700,note_on,0,0,0,,5,,,65,127
9794,note_off,94,0,0,,5,,,65,127
9800,note_on,6,0,0,,7,,,67,127
9894,note_off,94,0,0,,7,,,67,127
9900,note_on,6,0,0,,10,,,69,127
9994,note_off,94,0,0,,10,,,69,127
10000,note_on,6,0,0,,2,,,62,127
10094,note_off,94,0,0,,2,,,62,127
10096,note_off,2,0,0,,5,,,53,127
10096,note_off,0,0,0,,10,,,45,127
10096,note_off,0,0,0,,2,,,50,127
10100,note_on,4,0,0,,10,,,45,127
10100,note_on,0,0,0,,7,,,55,127
10100,note_on,0,0,0,,4,,,52,127
10100,note_on,0,0,0,,4,,,64,127
10194,note_off,94,0,0,,4,,,64,127
10200,note_on,6,0,0,,1,,,61,127
10267,note_off,67,0,0,,7,,,55,127
10294,note_off,27,0,0,,1,,,61,127
10298,note_off,4,0,0,,4,,,52,127
10298,note_off,0,0,0,,10,,,45,127
10300,note_on,2,0,0,,2,,,50,127
10300,note_on,0,0,0,,2,,,38,127
10300,note_on,0,0,0,,2,,,62,127
10853,note_off,553,0,0,,2,,,38,127
10895,note_off,42,0,0,,2,,,62,127
10895,note_off,0,0,0,,2,,,50,127
10901,note_on,6,0,0,,10,,,69,127
10901,note_on,0,0,0,,10,,,81,127
10995,note_off,94,0,0,,10,,,69,127
11001,note_on,6,0,0,,5,,,65,127
11095,note_off,94,0,0,,5,,,65,127
11101,note_on,6,0,0,,2,,,62,127
11195,note_off,94,0,0,,2,,,62,127
11201,note_on,6,0,0,,10,,,57,127
11295,note_off,94,0,0,,10,,,57,127
11301,note_on,6,0,0,,5,,,53,127
11395,note_off,94,0,0,,5,,,53,127
11401,note_on,6,0,0,,2,,,50,127
11495,note_off,94,0,0,,2,,,50,127
11501,note_on,6,0,0,,10,,,45,127
11595,note_off,94,0,0,,10,,,81,127
11601,note_on,6,0,0,,4,,,76,127
11695,note_off,94,0,0,,4,,,76,127
11701,note_on,6,0,0,,1,,,73,127
11795,note_off,94,0,0,,1,,,73,127
11801,note_on,6,0,0,,10,,,69,127
11895,note_off,94,0,0,,10,,,69,127
11901,note_on,6,0,0,,7,,,79,127
11995,note_off,94,0,0,,7,,,79,127
12001,note_on,6,0,0,,4,,,76,127
12095,note_off,94,0,0,,4,,,76,127
12095,note_off,0,0,0,,10,,,45,127
12101,note_on,6,0,0,,10,,,69,127
12101,note_on,0,0,0,,10,,,81,127
12195,note_off,94,0,0,,10,,,69,127
12201,note_on,6,0,0,,5,,,65,127
12295,note_off,94,0,0,,5,,,65,127
12301,note_on,6,0,0,,2,,,62,127
12395,note_off,94,0,0,,2,,,62,127
12401,note_on,6,0,0,,10,,,57,127
12495,note_off,94,0,0,,10,,,57,127
12501,note_on,6,0,0,,5,,,53,127
12595,note_off,94,0,0,,5,,,53,127
12601,note_on,6,0,0,,2,,,50,127
12695,note_off,94,0,0,,2,,,50,127
12701,note_on,6,0,0,,10,,,45,127
12795,note_off,94,0,0,,10,,,81,127
12801,note_on,6,0,0,,4,,,76,127
12895,note_off,94,0,0,,4,,,76,127
12901,note_on,6,0,0,,1,,,73,127
12995,note_off,94,0,0,,1,,,73,127
13001,note_on,6,0,0,,10,,,69,127
13095,note_off,94,0,0,,10,,,69,127
13101,note_on,6,0,0,,7,,,79,127
13195,note_off,94,0,0,,7,,,79,127
13201,note_on,6,0,0,,4,,,76,127
13295,note_off,94,0,0,,4,,,76,127
13295,note_off,0,0,0,,10,,,45,127
13301,note_on,6,0,0,,10,,,69,127
13301,note_on,0,0,0,,10,,,81,127
13395,note_off,94,0,0,,10,,,69,127
13401,note_on,6,0,0,,5,,,65,127
13495,note_off,94,0,0,,5,,,65,127
13501,note_on,6,0,0,,2,,,62,127
13595,note_off,94,0,0,,2,,,62,127
13601,note_on,6,0,0,,10,,,57,127
13695,note_off,94,0,0,,10,,,57,127
13701,note_on,6,0,0,,5,,,53,127
13795,note_off,94,0,0,,5,,,53,127
13801,note_on,6,0,0,,2,,,50,127
13895,note_off,94,0,0,,2,,,50,127
13895,note_off,0,0,0,,10,,,81,127
13901,note_on,6,0,0,,7,,,43,127
13901,note_on,0,0,0,,11,,,82,127
13995,note_off,94,0,0,,11,,,82,127
14001,note_on,6,0,0,,7,,,79,127
14095,note_off,94,0,0,,7,,,79,127
14101,note_on,6,0,0,,2,,,74,127
14195,note_off,94,0,0,,2,,,74,127
14201,note_on,6,0,0,,11,,,70,127
14295,note_off,94,0,0,,11,,,70,127
14301,note_on,6,0,0,,7,,,67,127
14395,note_off,94,0,0,,7,,,67,127
14401,note_on,6,0,0,,11,,,70,127
14495,note_off,94,0,0,,11,,,70,127
14495,note_off,0,0,0,,7,,,43,127
14501,note_on,6,0,0,,7,,,67,127
14501,note_on,0,0,0,,7,,,79,127
14595,note_off,94,0,0,,7,,,67,127
14601,note_on,6,0,0,,4,,,64,127
14695,note_off,94,0,0,,4,,,64,127
14701,note_on,6,0,0,,0,,,60,127
14795,note_off,94,0,0,,0,,,60,127
14801,note_on,6,0,0,,7,,,55,127
14895,note_off,94,0,0,,7,,,55,127
14901,note_on,6,0,0,,4,,,52,127
14995,note_off,94,0,0,,4,,,52,127
15001,note_on,6,0,0,,0,,,48,127
15095,note_off,94,0,0,,0,,,48,127
15095,note_off,0,0,0,,7,,,79,127
15101,note_on,6,0,0,,5,,,41,127
15101,note_on,0,0,0,,10,,,81,127
15195,note_off,94,0,0,,10,,,81,127
15201,note_on,6,0,0,,5,,,77,127
15295,note_off,94,0,0,,5,,,77,127
15301,note_on,6,0,0,,0,,,72,127
15395,note_off,94,0,0,,0,,,72,127
15401,note_on,6,0,0,,10,,,69,127
15495,note_off,94,0,0,,10,,,69,127
15501,note_on,6,0,0,,5,,,65,127
15595,note_off,94,0,0,,5,,,65,127
15601,note_on,6,0,0,,10,,,69,127
15695,note_off,94,0,0,,10,,,69,127
15695,note_off,0,0,0,,5,,,41,127
15701,note_on,6,0,0,,5,,,65,127
15701,note_on,0,0,0,,5,,,77,127
15795,note_off,94,0,0,,5,,,65,127
15801,note_on,6,0,0,,2,,,62,127
15895,note_off,94,0,0,,2,,,62,127
15901,note_on,6,0,0,,11,,,58,127
15995,note_off,94,0,0,,11,,,58,127
16001,note_on,6,0,0,,5,,,53,127
16095,note_off,94,0,0,,5,,,53,127
16101,note_on,6,0,0,,2,,,50,127
16195,note_off,94,0,0,,2,,,50,127
16201,note_on,6,0,0,,11,,,46,127
16295,note_off,94,0,0,,11,,,46,127
16295,note_off,0,0,0,,5,,,77,127
16301,note_on,6,0,0,,4,,,40,127
16301,note_on,0,0,0,,7,,,79,127
16395,note_off,94,0,0,,7,,,79,127
16401,note_on,6,0,0,,4,,,76,127
16495,note_off,94,0,0,,4,,,76,127
16501,note_on,6,0,0,,1,,,73,127
16595,note_off,94,0,0,,1,,,73,127
16601,note_on,6,0,0,,7,,,67,127
16695,note_off,94,0,0,,7,,,67,127
16701,note_on,6,0,0,,4,,,64,127
16795,note_off,94,0,0,,4,,,64,127
16801,note_on,6,0,0,,7,,,67,127
16895,note_off,94,0,0,,7,,,67,127
16895,note_off,0,0,0,,4,,,40,127
16901,note_on,6,0,0,,4,,,64,127
16901,note_on,0,0,0,,4,,,76,127
16995,note_off,94,0,0,,4,,,64,127
17001,note_on,6,0,0,,1,,,61,127
17095,note_off,94,0,0,,1,,,61,127
17101,note_on,6,0,0,,10,,,57,127
17195,note_off,94,0,0,,10,,,57,127
17201,note_on,6,0,0,,4,,,52,127
17295,note_off,94,0,0,,4,,,52,127
17301,note_on,6,0,0,,1,,,49,127
17395,note_off,94,0,0,,1,,,49,127
17401,note_on,6,0,0,,10,,,45,127
17495,note_off,94,0,0,,10,,,45,127
17495,note_off,0,0,0,,4,,,76,127
17501,note_on,6,0,0,,2,,,38,127
17501,note_on,0,0,0,,5,,,77,127
17595,note_off,94,0,0,,5,,,77,127
17601,note_on,6,0,0,,2,,,74,127
17695,note_off,94,0,0,,2,,,74,127
17701,note_on,6,0,0,,10,,,69,127
17795,note_off,94,0,0,,10,,,69,127
17801,note_on,6,0,0,,5,,,65,127
17895,note_off,94,0,0,,5,,,65,127
17901,note_on,6,0,0,,2,,,62,127
17995,note_off,94,0,0,,2,,,62,127
18001,note_on,6,0,0,,5,,,65,127
18095,note_off,94,0,0,,5,,,65,127
18095,note_off,0,0,0,,2,,,38,127
18101,note_on,6,0,0,,2,,,50,127
18101,note_on,0,0,0,,2,,,62,127
18101,note_on,0,0,0,,5,,,77,127
18195,note_off,94,0,0,,5,,,77,127
18201,note_on,6,0,0,,4,,,76,127
18295,note_off,94,0,0,,4,,,76,127
18295,note_off,0,0,0,,2,,,50,127
18301,note_on,6,0,0,,4,,,52,127
18301,note_on,0,0,0,,2,,,74,127
18395,note_off,94,0,0,,2,,,74,127
18401,note_on,6,0,0,,0,,,72,127
18495,note_off,94,0,0,,0,,,72,127
18495,note_off,0,0,0,,4,,,52,127
18501,note_on,6,0,0,,5,,,53,127
18501,note_on,0,0,0,,11,,,70,127
18595,note_off,94,0,0,,11,,,70,127
18601,note_on,6,0,0,,10,,,69,127
18695,note_off,94,0,0,,10,,,69,127
18695,note_off,0,0,0,,5,,,53,127
18700,note_off,5,0,0,,2,,,62,127
18701,note_on,1,0,0,,7,,,55,127
18701,note_on,0,0,0,,7,,,67,127
18701,note_on,0,0,0,,11,,,82,127
18795,note_off,94,0,0,,11,,,82,127
18801,note_on,6,0,0,,10,,,81,127
18895,note_off,94,0,0,,10,,,81,127
18895,note_off,0,0,0,,7,,,55,127
18901,note_on,6,0,0,,10,,,57,127
18901,note_on,0,0,0,,7,,,79,127
18995,note_off,94,0,0,,7,,,79,127
19001,note_on,6,0,0,,5,,,77,127
19095,note_off,94,0,0,,5,,,77,127
19095,note_off,0,0,0,,10,,,57,127
19101,note_on,6,0,0,,11,,,58,127
19101,note_on,0,0,0,,4,,,76,127
19195,note_off,94,0,0,,4,,,76,127
19201,note_on,6,0,0,,2,,,74,127
19295,note_off,94,0,0,,2,,,74,127
19295,note_off,0,0,0,,11,,,58,127
19300,note_off,5,0,0,,7,,,67,127
19301,note_on,1,0,0,,10,,,57,127
19301,note_on,0,0,0,,7,,,67,127
19301,note_on,0,0,0,,1,,,73,127
19395,note_off,94,0,0,,1,,,73,127
19401,note_on,6,0,0,,2,,,74,127
19495,note_off,94,0,0,,2,,,74,127
19495,note_off,0,0,0,,10,,,57,127
19501,note_on,6,0,0,,11,,,58,127
19501,note_on,0,0,0,,4,,,76,127
19562,note_off,61,0,0,,4,,,76,127
19568,note_on,6,0,0,,2,,,74,127
19629,note_off,61,0,0,,2,,,74,127
19635,note_on,6,0,0,,4,,,76,127
19696,note_off,61,0,0,,4,,,76,127
19702,note_on,6,0,0,,2,,,74,127
19763,note_off,61,0,0,,2,,,74,127
19769,note_on,6,0,0,,1,,,73,127
19830,note_off,61,0,0,,1,,,73,127
19836,note_on,6,0,0,,2,,,74,127
19897,note_off,61,0,0,,2,,,74,127
19897,note_off,0,0,0,,11,,,58,127
19902,note_off,5,0,0,,7,,,67,127
19903,note_on,1,0,0,,10,,,57,127
19903,note_on,0,0,0,,7,,,67,127
19903,note_on,0,0,0,,4,,,76,127
19964,note_off,61,0,0,,4,,,76,127
19970,note_on,6,0,0,,5,,,77,127
20031,note_off,61,0,0,,5,,,77,127
20037,note_on,6,0,0,,7,,,79,127
20098,note_off,61,0,0,,7,,,79,127
20098,note_off,0,0,0,,10,,,57,127
20104,note_on,6,0,0,,11,,,58,127
20104,note_on,0,0,0,,10,,,81,127
20165,note_off,61,0,0,,10,,,81,127
20171,note_on,6,0,0,,7,,,79,127
20232,note_off,61,0,0,,7,,,79,127
20238,note_on,6,0,0,,10,,,81,127
20299,note_off,61,0,0,,10,,,81,127
20305,note_on,6,0,0,,7,,,79,127
20366,note_off,61,0,0,,7,,,79,127
20372,note_on,6,0,0,,5,,,77,127
20433,note_off,61,0,0,,5,,,77,127
20439,note_on,6,0,0,,7,,,79,127
20500,note_off,61,0,0,,7,,,79,127
20500,note_off,0,0,0,,11,,,58,127
20505,note_off,5,0,0,,7,,,67,127
20506,note_on,1,0,0,,10,,,57,127
20506,note_on,0,0,0,,7,,,67,127
20506,note_on,0,0,0,,1,,,73,127
20600,note_off,94,0,0,,1,,,73,127
20606,note_on,6,0,0,,2,,,74,127
20700,note_off,94,0,0,,2,,,74,127
20700,note_off,0,0,0,,10,,,57,127
20706,note_on,6,0,0,,11,,,58,127
20706,note_on,0,0,0,,4,,,76,127
20767,note_off,61,0,0,,4,,,76,127
20773,note_on,6,0,0,,2,,,74,127
20834,note_off,61,0,0,,2,,,74,127
20840,note_on,6,0,0,,4,,,76,127
20901,note_off,61,0,0,,4,,,76,127
20907,note_on,6,0,0,,2,,,74,127
20968,note_off,61,0,0,,2,,,74,127
20974,note_on,6,0,0,,1,,,73,127
21035,note_off,61,0,0,,1,,,73,127
21041,note_on,6,0,0,,2,,,74,127
21102,note_off,61,0,0,,2,,,74,127
21102,note_off,0,0,0,,11,,,58,127
21107,note_off,5,0,0,,7,,,67,127
21108,note_on,1,0,0,,10,,,57,127
21108,note_on,0,0,0,,7,,,67,127
21108,note_on,0,0,0,,4,,,76,127
21169,note_off,61,0,0,,4,,,76,127
21175,note_on,6,0,0,,5,,,77,127
21236,note_off,61,0,0,,5,,,77,127
21242,note_on,6,0,0,,7,,,79,127
21303,note_off,61,0,0,,7,,,79,127
21303,note_off,0,0,0,,10,,,57,127
21309,note_on,6,0,0,,11,,,58,127
21309,note_on,0,0,0,,10,,,81,127
21370,note_off,61,0,0,,10,,,81,127
21376,note_on,6,0,0,,7,,,79,127
21437,note_off,61,0,0,,7,,,79,127
21443,note_on,6,0,0,,10,,,81,127
21504,note_off,61,0,0,,10,,,81,127
21510,note_on,6,0,0,,7,,,79,127
21571,note_off,61,0,0,,7,,,79,127
21577,note_on,6,0,0,,5,,,77,127
21638,note_off,61,0,0,,5,,,77,127
21644,note_on,6,0,0,,7,,,79,127
21705,note_off,61,0,0,,7,,,79,127
21705,note_off,0,0,0,,11,,,58,127
21710,note_off,5,0,0,,7,,,67,127
21711,note_on,1,0,0,,10,,,57,127
21711,note_on,0,0,0,,10,,,81,127
21805,note_off,94,0,0,,10,,,81,127
21811,note_on,6,0,0,,4,,,76,127
21905,note_off,94,0,0,,4,,,76,127
21911,note_on,6,0,0,,1,,,73,127
22005,note_off,94,0,0,,1,,,73,127
22011,note_on,6,0,0,,10,,,69,127
22105,note_off,94,0,0,,10,,,69,127
22111,note_on,6,0,0,,4,,,64,127
22205,note_off,94,0,0,,4,,,64,127
22211,note_on,6,0,0,,1,,,61,127
22305,note_off,94,0,0,,1,,,61,127
22305,note_off,0,0,0,,10,,,57,127
22311,note_on,6,0,0,,10,,,57,127
22411,note_on,100,0,0,,4,,,52,127
22505,note_off,94,0,0,,4,,,52,127
22511,note_on,6,0,0,,1,,,49,127
22605,note_off,94,0,0,,1,,,49,127
22611,note_on,6,0,0,,10,,,45,127
22705,note_off,94,0,0,,10,,,45,127
22711,note_on,6,0,0,,4,,,40,127
22805,note_off,94,0,0,,4,,,40,127
22811,note_on,6,0,0,,1,,,37,127
22905,note_off,94,0,0,,1,,,37,127
22910,note_off,5,0,0,,10,,,57,127
22911,note_on,1,0,0,,10,,,33,127
23506,note_off,595,0,0,,10,,,33,127
23913,note_on,407,0,0,,10,,,57,127
23913,note_on,0,0,0,,4,,,64,127
24007,note_off,94,0,0,,4,,,64,127
24013,note_on,6,0,0,,4,,,64,127
24107,note_off,94,0,0,,4,,,64,127
24107,note_off,0,0,0,,10,,,57,127
24113,note_on,6,0,0,,12,,,59,127
24113,note_on,0,0,0,,4,,,64,127
24207,note_off,94,0,0,,4,,,64,127
24213,note_on,6,0,0,,4,,,64,127
24307,note_off,94,0,0,,4,,,64,127
24307,note_off,0,0,0,,12,,,59,127
24313,note_on,6,0,0,,1,,,61,127
24313,note_on,0,0,0,,4,,,64,127
24407,note_off,94,0,0,,4,,,64,127
24413,note_on,6,0,0,,4,,,64,127
24507,note_off,94,0,0,,4,,,64,127
24507,note_off,0,0,0,,1,,,61,127
24513,note_on,6,0,0,,2,,,50,127
24513,note_on,0,0,0,,5,,,65,127
24607,note_off,94,0,0,,5,,,65,127
24613,note_on,6,0,0,,5,,,65,127
24707,note_off,94,0,0,,5,,,65,127
24713,note_on,6,0,0,,2,,,62,127
24713,note_on,0,0,0,,5,,,65,127
24807,note_off,94,0,0,,5,,,65,127
24813,note_on,6,0,0,,5,,,65,127
24907,note_off,94,0,0,,5,,,65,127
24907,note_off,0,0,0,,2,,,62,127
24913,note_on,6,0,0,,0,,,60,127
24913,note_on,0,0,0,,5,,,65,127
25007,note_off,94,0,0,,5,,,65,127
25013,note_on,6,0,0,,5,,,65,127
25107,note_off,94,0,0,,5,,,65,127
25107,note_off,0,0,0,,0,,,60,127
25112,note_off,5,0,0,,2,,,50,127
25113,note_on,1,0,0,,12,,,59,127
25113,note_on,0,0,0,,8,,,68,127
25207,note_off,94,0,0,,8,,,68,127
25213,note_on,6,0,0,,8,,,68,127
25307,note_off,94,0,0,,8,,,68,127
25313,note_on,6,0,0,,2,,,62,127
25313,note_on,0,0,0,,8,,,68,127
25407,note_off,94,0,0,,8,,,68,127
25413,note_on,6,0,0,,8,,,68,127
25507,note_off,94,0,0,,8,,,68,127
25512,note_off,5,0,0,,12,,,59,127
25513,note_on,1,0,0,,10,,,57,127
25513,note_on,0,0,0,,8,,,68,127
25607,note_off,94,0,0,,8,,,68,127
25613,note_on,6,0,0,,8,,,68,127
25707,note_off,94,0,0,,8,,,68,127
25707,note_off,0,0,0,,10,,,57,127
25713,note_on,6,0,0,,8,,,56,127
25713,note_on,0,0,0,,12,,,71,127
25807,note_off,94,0,0,,12,,,71,127
25813,note_on,6,0,0,,12,,,71,127
25907,note_off,94,0,0,,12,,,71,127
25912,note_off,5,0,0,,2,,,62,127
25913,note_on,1,0,0,,4,,,64,127
25913,note_on,0,0,0,,12,,,71,127
26007,note_off,94,0,0,,12,,,71,127
26013,note_on,6,0,0,,12,,,71,127
26107,note_off,94,0,0,,12,,,71,127
26112,note_off,5,0,0,,8,,,56,127
26113,note_on,1,0,0,,6,,,54,127
26113,note_on,0,0,0,,12,,,71,127
26207,note_off,94,0,0,,12,,,71,127
26213,note_on,6,0,0,,12,,,71,127
26307,note_off,94,0,0,,12,,,71,127
26307,note_off,0,0,0,,6,,,54,127
26313,note_on,6,0,0,,4,,,52,127
26313,note_on,0,0,0,,2,,,74,127
26407,note_off,94,0,0,,2,,,74,127
26413,note_on,6,0,0,,2,,,74,127
26507,note_off,94,0,0,,2,,,74,127
26507,note_off,0,0,0,,4,,,52,127
26513,note_on,6,0,0,,6,,,54,127
26513,note_on,0,0,0,,2,,,74,127
26607,note_off,94,0,0,,2,,,74,127
26613,note_on,6,0,0,,2,,,74,127
26707,note_off,94,0,0,,2,,,74,127
26707,note_off,0,0,0,,6,,,54,127
26713,note_on,6,0,0,,8,,,56,127
26713,note_on,0,0,0,,2,,,74,127
26807,note_off,94,0,0,,2,,,74,127
26813,note_on,6,0,0,,2,,,74,127
26907,note_off,94,0,0,,2,,,74,127
26907,note_off,0,0,0,,8,,,56,127
26913,note_off,6,0,0,,4,,,64,127
26913,note_on,0,0,0,,10,,,45,127
26913,note_on,0,0,0,,0,,,72,127
26913,note_on,0,0,0,,2,,,74,127
27007,note_off,94,0,0,,2,,,74,127
27007,note_off,0,0,0,,0,,,72,127
27013,note_on,6,0,0,,12,,,71,127
27107,note_off,94,0,0,,12,,,71,127
27113,note_on,6,0,0,,10,,,69,127
27207,note_off,94,0,0,,10,,,69,127
27213,note_on,6,0,0,,8,,,68,127
27307,note_off,94,0,0,,8,,,68,127
27313,note_on,6,0,0,,10,,,69,127
27507,note_off,194,0,0,,10,,,69,127
27507,note_off,0,0,0,,10,,,45,127
27513,note_on,6,0,0,,10,,,57,127
27513,note_on,0,0,0,,4,,,76,127
27607,note_off,94,0,0,,4,,,76,127
27613,note_on,6,0,0,,4,,,76,127
27707,note_off,94,0,0,,4,,,76,127
27707,note_off,0,0,0,,10,,,57,127
27713,note_on,6,0,0,,12,,,59,127
27713,note_on,0,0,0,,4,,,76,127
27807,note_off,94,0,0,,4,,,76,127
27813,note_on,6,0,0,,4,,,76,127
27907,note_off,94,0,0,,4,,,76,127
27907,note_off,0,0,0,,12,,,59,127
27913,note_on,6,0,0,,1,,,61,127
27913,note_on,0,0,0,,4,,,76,127
28007,note_off,94,0,0,,4,,,76,127
28013,note_on,6,0,0,,4,,,76,127
28107,note_off,94,0,0,,4,,,76,127
28107,note_off,0,0,0,,1,,,61,127
28113,note_on,6,0,0,,2,,,62,127
28113,note_on,0,0,0,,5,,,77,127
28207,note_off,94,0,0,,5,,,77,127
28213,note_on,6,0,0,,5,,,77,127
28307,note_off,94,0,0,,5,,,77,127
28313,note_on,6,0,0,,2,,,74,127
28313,note_on,0,0,0,,5,,,77,127
28407,note_off,94,0,0,,5,,,77,127
28413,note_on,6,0,0,,5,,,77,127
28507,note_off,94,0,0,,5,,,77,127
28507,note_off,0,0,0,,2,,,74,127
28513,note_on,6,0,0,,0,,,72,127
28513,note_on,0,0,0,,5,,,77,127
28607,note_off,94,0,0,,5,,,77,127
28613,note_on,6,0,0,,5,,,77,127
28707,note_off,94,0,0,,5,,,77,127
28707,note_off,0,0,0,,0,,,72,127
28712,note_off,5,0,0,,2,,,62,127
28713,note_on,1,0,0,,12,,,71,127
28713,note_on,0,0,0,,8,,,80,127
28807,note_off,94,0,0,,8,,,80,127
28813,note_on,6,0,0,,8,,,80,127
28907,note_off,94,0,0,,8,,,80,127
28913,note_on,6,0,0,,2,,,74,127
28913,note_on,0,0,0,,8,,,80,127
29007,note_off,94,0,0,,8,,,80,127
29013,note_on,6,0,0,,8,,,80,127
29107,note_off,94,0,0,,8,,,80,127
29112,note_off,5,0,0,,12,,,71,127
29113,note_on,1,0,0,,10,,,69,127
29113,note_on,0,0,0,,8,,,80,127
29207,note_off,94,0,0,,8,,,80,127
29213,note_on,6,0,0,,8,,,80,127
29307,note_off,94,0,0,,8,,,80,127
29307,note_off,0,0,0,,10,,,69,127
29313,note_on,6,0,0,,8,,,68,127
29313,note_on,0,0,0,,12,,,83,127
29407,note_off,94,0,0,,12,,,83,127
29413,note_on,6,0,0,,12,,,83,127
29507,note_off,94,0,0,,12,,,83,127
29512,note_off,5,0,0,,2,,,74,127
29513,note_on,1,0,0,,4,,,76,127
29513,note_on,0,0,0,,12,,,83,127
29607,note_off,94,0,0,,12,,,83,127
29613,note_on,6,0,0,,12,,,83,127
29707,note_off,94,0,0,,12,,,83,127
29712,note_off,5,0,0,,8,,,68,127
29713,note_on,1,0,0,,6,,,66,127
29713,note_on,0,0,0,,12,,,83,127
29807,note_off,94,0,0,,12,,,83,127
29813,note_on,6,0,0,,12,,,83,127
29907,note_off,94,0,0,,12,,,83,127
29907,note_off,0,0,0,,6,,,66,127
29913,note_on,6,0,0,,4,,,64,127
29913,note_on,0,0,0,,2,,,86,127
30007,note_off,94,0,0,,2,,,86,127
30013,note_on,6,0,0,,2,,,86,127
30107,note_off,94,0,0,,2,,,86,127
30107,note_off,0,0,0,,4,,,64,127
30113,note_on,6,0,0,,6,,,66,127
30113,note_on,0,0,0,,2,,,86,127
30207,note_off,94,0,0,,2,,,86,127
30213,note_on,6,0,0,,2,,,86,127
30307,note_off,94,0,0,,2,,,86,127
30307,note_off,0,0,0,,6,,,66,127
30313,note_on,6,0,0,,8,,,68,127
30313,note_on,0,0,0,,2,,,86,127
30407,note_off,94,0,0,,2,,,86,127
30413,note_on,6,0,0,,2,,,86,127
30507,note_off,94,0,0,,2,,,86,127
30507,note_off,0,0,0,,8,,,68,127
30513,note_off,6,0,0,,4,,,76,127
30513,note_on,0,0,0,,10,,,57,127
30513,note_on,0,0,0,,0,,,84,127
30513,note_on,0,0,0,,2,,,86,127
30607,note_off,94,0,0,,2,,,86,127
30607,note_off,0,0,0,,0,,,84,127
30613,note_on,6,0,0,,12,,,83,127
30707,note_off,94,0,0,,12,,,83,127
30713,note_on,6,0,0,,10,,,81,127
30807,note_off,94,0,0,,10,,,81,127
30813,note_on,6,0,0,,8,,,80,127
30907,note_off,94,0,0,,8,,,80,127
30913,note_on,6,0,0,,10,,,81,127
31313,note_off,400,0,0,,10,,,81,127
31313,note_off,0,0,0,,10,,,57,127
31715,note_on,402,0,0,,5,,,41,127
31815,note_on,100,0,0,,5,,,53,127
31909,note_off,94,0,0,,5,,,41,127
31915,note_on,6,0,0,,5,,,41,127
31915,note_on,0,0,0,,10,,,57,127
31961,note_off,46,0,0,,5,,,53,127
32015,note_on,54,0,0,,5,,,53,127
32061,note_off,46,0,0,,10,,,57,127
32109,note_off,48,0,0,,5,,,41,127
32115,note_on,6,0,0,,5,,,41,127
32115,note_on,0,0,0,,0,,,60,127
32161,note_off,46,0,0,,5,,,53,127
32215,note_on,54,0,0,,10,,,57,127
32261,note_off,46,0,0,,0,,,60,127
32309,note_off,48,0,0,,5,,,41,127
32315,note_on,6,0,0,,5,,,41,127
32315,note_on,0,0,0,,3,,,63,127
32361,note_off,46,0,0,,10,,,57,127
32415,note_on,54,0,0,,5,,,53,127
32461,note_off,46,0,0,,3,,,63,127
32509,note_off,48,0,0,,5,,,41,127
32515,note_on,6,0,0,,5,,,41,127
32515,note_on,0,0,0,,0,,,60,127
32561,note_off,46,0,0,,5,,,53,127
32615,note_on,54,0,0,,5,,,53,127
32661,note_off,46,0,0,,0,,,60,127
32709,note_off,48,0,0,,5,,,41,127
32715,note_on,6,0,0,,5,,,41,127
32715,note_on,0,0,0,,10,,,57,127
32761,note_off,46,0,0,,5,,,53,127
32815,note_on,54,0,0,,5,,,53,127
32861,note_off,46,0,0,,10,,,57,127
32909,note_off,48,0,0,,5,,,41,127
32915,note_on,6,0,0,,5,,,41,127
32915,note_on,0,0,0,,3,,,63,127
32961,note_off,46,0,0,,5,,,53,127
33015,note_on,54,0,0,,5,,,53,127
33061,note_off,46,0,0,,3,,,63,127
33109,note_off,48,0,0,,5,,,41,127
33115,note_on,6,0,0,,5,,,41,127
33115,note_on,0,0,0,,2,,,62,127
33161,note_off,46,0,0,,5,,,53,127
33215,note_on,54,0,0,,5,,,53,127
33261,note_off,46,0,0,,2,,,62,127
33309,note_off,48,0,0,,5,,,41,127
33315,note_on,6,0,0,,5,,,41,127
33315,note_on,0,0,0,,3,,,63,127
33361,note_off,46,0,0,,5,,,53,127
33415,note_on,54,0,0,,5,,,53,127
33461,note_off,46,0,0,,3,,,63,127
33509,note_off,48,0,0,,5,,,41,127
33515,note_on,6,0,0,,8,,,44,127
33515,note_on,0,0,0,,5,,,65,127
33515,note_on,0,0,0,,3,,,63,127
33561,note_off,46,0,0,,5,,,53,127
33615,note_on,54,0,0,,5,,,53,127
33661,note_off,46,0,0,,3,,,63,127
33709,note_off,48,0,0,,8,,,44,127
33715,note_on,6,0,0,,8,,,44,127
33715,note_on,0,0,0,,2,,,62,127
33761,note_off,46,0,0,,5,,,53,127
33815,note_on,54,0,0,,5,,,53,127
33861,note_off,46,0,0,,2,,,62,127
33909,note_off,48,0,0,,8,,,44,127
33915,note_on,6,0,0,,8,,,44,127
33915,note_on,0,0,0,,0,,,60,127
33961,note_off,46,0,0,,5,,,53,127
34015,note_on,54,0,0,,5,,,53,127
34061,note_off,46,0,0,,0,,,60,127
34109,note_off,48,0,0,,8,,,44,127
34115,note_on,6,0,0,,7,,,43,127
34115,note_on,0,0,0,,12,,,59,127
34161,note_off,46,0,0,,5,,,53,127
34215,note_on,54,0,0,,7,,,55,127
34261,note_off,46,0,0,,12,,,59,127
34309,note_off,48,0,0,,7,,,43,127
34314,note_off,5,0,0,,5,,,65,127
34315,note_on,1,0,0,,7,,,43,127
34315,note_on,0,0,0,,12,,,59,127
34361,note_off,46,0,0,,7,,,55,127
34415,note_on,54,0,0,,7,,,55,127
34461,note_off,46,0,0,,12,,,59,127
34509,note_off,48,0,0,,7,,,43,127
34515,note_on,6,0,0,,7,,,43,127
34515,note_on,0,0,0,,2,,,62,127
34561,note_off,46,0,0,,7,,,55,127
34615,note_on,54,0,0,,7,,,55,127
34661,note_off,46,0,0,,2,,,62,127
34709,note_off,48,0,0,,7,,,43,127
34715,note_on,6,0,0,,7,,,43,127
34715,note_on,0,0,0,,5,,,65,127
34761,note_off,46,0,0,,7,,,55,127
34815,note_on,54,0,0,,7,,,55,127
34861,note_off,46,0,0,,5,,,65,127
34909,note_off,48,0,0,,7,,,43,127
34915,note_on,6,0,0,,7,,,43,127
34915,note_on,0,0,0,,2,,,62,127
34961,note_off,46,0,0,,7,,,55,127
35015,note_on,54,0,0,,7,,,55,127
35061,note_off,46,0,0,,2,,,62,127
35109,note_off,48,0,0,,7,,,43,127
35115,note_on,6,0,0,,7,,,43,127
35115,note_on,0,0,0,,12,,,59,127
35161,note_off,46,0,0,,7,,,55,127
35215,note_on,54,0,0,,7,,,55,127
35261,note_off,46,0,0,,12,,,59,127
35309,note_off,48,0,0,,7,,,43,127
35315,note_on,6,0,0,,7,,,43,127
35315,note_on,0,0,0,,5,,,65,127
35361,note_off,46,0,0,,7,,,55,127
35415,note_on,54,0,0,,7,,,55,127
35461,note_off,46,0,0,,5,,,65,127
35509,note_off,48,0,0,,7,,,43,127
35515,note_on,6,0,0,,7,,,43,127
35515,note_on,0,0,0,,4,,,64,127
35561,note_off,46,0,0,,7,,,55,127
35615,note_on,54,0,0,,7,,,55,127
35661,note_off,46,0,0,,4,,,64,127
35709,note_off,48,0,0,,7,,,43,127
35715,note_on,6,0,0,,7,,,43,127
35715,note_on,0,0,0,,5,,,65,127
35761,note_off,46,0,0,,7,,,55,127
35815,note_on,54,0,0,,7,,,55,127
35861,note_off,46,0,0,,5,,,65,127
35909,note_off,48,0,0,,7,,,43,127
35915,note_on,6,0,0,,11,,,46,127
35915,note_on,0,0,0,,7,,,67,127
35915,note_on,0,0,0,,5,,,65,127
35961,note_off,46,0,0,,7,,,55,127
36015,note_on,54,0,0,,7,,,55,127
36061,note_off,46,0,0,,5,,,65,127
36109,note_off,48,0,0,,11,,,46,127
36115,note_on,6,0,0,,11,,,46,127
36115,note_on,0,0,0,,4,,,64,127
36161,note_off,46,0,0,,7,,,55,127
36215,note_on,54,0,0,,7,,,55,127
36261,note_off,46,0,0,,4,,,64,127
36309,note_off,48,0,0,,11,,,46,127
36315,note_on,6,0,0,,11,,,46,127
36315,note_on,0,0,0,,2,,,62,127
36361,note_off,46,0,0,,7,,,55,127
36415,note_on,54,0,0,,7,,,55,127
36461,note_off,46,0,0,,2,,,62,127
36509,note_off,48,0,0,,11,,,46,127
36515,note_on,6,0,0,,10,,,45,127
36515,note_on,0,0,0,,1,,,61,127
36561,note_off,46,0,0,,7,,,55,127
36615,note_on,54,0,0,,10,,,57,127
36661,note_off,46,0,0,,1,,,61,127
36709,note_off,48,0,0,,10,,,45,127
36714,note_off,5,0,0,,7,,,67,127
36715,note_on,1,0,0,,10,,,45,127
36715,note_on,0,0,0,,1,,,61,127
36761,note_off,46,0,0,,10,,,57,127
36815,note_on,54,0,0,,10,,,57,127
36861,note_off,46,0,0,,1,,,61,127
36909,note_off,48,0,0,,10,,,45,127
36915,note_on,6,0,0,,10,,,45,127
36915,note_on,0,0,0,,4,,,64,127
36961,note_off,46,0,0,,10,,,57,127
37015,note_on,54,0,0,,10,,,57,127
37061,note_off,46,0,0,,4,,,64,127
37109,note_off,48,0,0,,10,,,45,127
37115,note_on,6,0,0,,10,,,45,127
37115,note_on,0,0,0,,7,,,67,127
37161,note_off,46,0,0,,10,,,57,127
37215,note_on,54,0,0,,10,,,57,127
37261,note_off,46,0,0,,7,,,67,127
37309,note_off,48,0,0,,10,,,45,127
37315,note_on,6,0,0,,10,,,45,127
37315,note_on,0,0,0,,4,,,64,127
37361,note_off,46,0,0,,10,,,57,127
37415,note_on,54,0,0,,10,,,57,127
37461,note_off,46,0,0,,4,,,64,127
37509,note_off,48,0,0,,10,,,45,127
37515,note_on,6,0,0,,10,,,45,127
37515,note_on,0,0,0,,1,,,61,127
37561,note_off,46,0,0,,10,,,57,127
37615,note_on,54,0,0,,10,,,57,127
37661,note_off,46,0,0,,1,,,61,127
37709,note_off,48,0,0,,10,,,45,127
37715,note_on,6,0,0,,10,,,45,127
37715,note_on,0,0,0,,7,,,67,127
37761,note_off,46,0,0,,10,,,57,127
37815,note_on,54,0,0,,10,,,57,127
37861,note_off,46,0,0,,7,,,67,127
37909,note_off,48,0,0,,10,,,45,127
37915,note_on,6,0,0,,10,,,45,127
37915,note_on,0,0,0,,6,,,66,127
37961,note_off,46,0,0,,10,,,57,127
38015,note_on,54,0,0,,10,,,57,127
38061,note_off,46,0,0,,6,,,66,127
38109,note_off,48,0,0,,10,,,45,127
38115,note_on,6,0,0,,10,,,45,127
38115,note_on,0,0,0,,7,,,67,127
38161,note_off,46,0,0,,10,,,57,127
38215,note_on,54,0,0,,10,,,57,127
38261,note_off,46,0,0,,7,,,67,127
38309,note_off,48,0,0,,10,,,45,127
38315,note_on,6,0,0,,0,,,48,127
38315,note_on,0,0,0,,10,,,69,127
38315,note_on,0,0,0,,7,,,67,127
38361,note_off,46,0,0,,10,,,57,127
38415,note_on,54,0,0,,10,,,57,127
38461,note_off,46,0,0,,7,,,67,127
38509,note_off,48,0,0,,0,,,48,127
38515,note_on,6,0,0,,0,,,48,127
38515,note_on,0,0,0,,6,,,66,127
38561,note_off,46,0,0,,10,,,57,127
38615,note_on,54,0,0,,10,,,57,127
38661,note_off,46,0,0,,6,,,66,127
38709,note_off,48,0,0,,0,,,48,127
38715,note_on,6,0,0,,0,,,48,127
38715,note_on,0,0,0,,4,,,64,127
38761,note_off,46,0,0,,10,,,57,127
38815,note_on,54,0,0,,10,,,57,127
38861,note_off,46,0,0,,4,,,64,127
38909,note_off,48,0,0,,0,,,48,127
38914,note_off,5,0,0,,10,,,69,127
38915,note_on,1,0,0,,12,,,47,127
38915,note_on,0,0,0,,3,,,63,127
38961,note_off,46,0,0,,10,,,57,127
39015,note_on,54,0,0,,12,,,59,127
39061,note_off,46,0,0,,3,,,63,127
39109,note_off,48,0,0,,12,,,47,127
39115,note_on,6,0,0,,12,,,47,127
39115,note_on,0,0,0,,6,,,66,127
39161,note_off,46,0,0,,12,,,59,127
39215,note_on,54,0,0,,3,,,63,127
39261,note_off,46,0,0,,6,,,66,127
39309,note_off,48,0,0,,12,,,47,127
39315,note_on,6,0,0,,12,,,47,127
39315,note_on,0,0,0,,10,,,69,127
39361,note_off,46,0,0,,3,,,63,127
39415,note_on,54,0,0,,3,,,63,127
39461,note_off,46,0,0,,10,,,69,127
39509,note_off,48,0,0,,12,,,47,127
39515,note_on,6,0,0,,12,,,47,127
39515,note_on,0,0,0,,10,,,57,127
39515,note_on,0,0,0,,0,,,72,127
39561,note_off,46,0,0,,3,,,63,127
39615,note_on,54,0,0,,3,,,63,127
39661,note_off,46,0,0,,0,,,72,127
39709,note_off,48,0,0,,10,,,57,127
39709,note_off,0,0,0,,12,,,47,127
39715,note_on,6,0,0,,12,,,47,127
39715,note_on,0,0,0,,10,,,57,127
39715,note_on,0,0,0,,12,,,71,127
39761,note_off,46,0,0,,3,,,63,127
39815,note_on,54,0,0,,3,,,63,127
39861,note_off,46,0,0,,12,,,71,127
39909,note_off,48,0,0,,10,,,57,127
39909,note_off,0,0,0,,12,,,47,127
39915,note_on,6,0,0,,12,,,47,127
39915,note_on,0,0,0,,10,,,57,127
39915,note_on,0,0,0,,10,,,69,127
39961,note_off,46,0,0,,3,,,63,127
40015,note_on,54,0,0,,3,,,63,127
40061,note_off,46,0,0,,10,,,69,127
40109,note_off,48,0,0,,10,,,57,127
40109,note_off,0,0,0,,12,,,47,127
40115,note_on,6,0,0,,4,,,52,127
40115,note_on,0,0,0,,8,,,68,127
40161,note_off,46,0,0,,3,,,63,127
40215,note_on,54,0,0,,2,,,62,127
40261,note_off,46,0,0,,8,,,68,127
40309,note_off,48,0,0,,4,,,52,127
40311,note_off,2,0,0,,2,,,62,127
40315,note_on,4,0,0,,2,,,62,127
40315,note_on,0,0,0,,4,,,52,127
40315,note_on,0,0,0,,12,,,71,127
40415,note_on,100,0,0,,5,,,65,127
40461,note_off,46,0,0,,12,,,71,127
40509,note_off,48,0,0,,4,,,52,127
40509,note_off,0,0,0,,2,,,62,127
40515,note_on,6,0,0,,4,,,52,127
40515,note_on,0,0,0,,2,,,62,127
40515,note_on,0,0,0,,2,,,74,127
40561,note_off,46,0,0,,5,,,65,127
40615,note_on,54,0,0,,8,,,68,127
40661,note_off,46,0,0,,2,,,74,127
40709,note_off,48,0,0,,2,,,62,127
40709,note_off,0,0,0,,4,,,52,127
40715,note_on,6,0,0,,2,,,62,127
40715,note_on,0,0,0,,4,,,52,127
40715,note_on,0,0,0,,5,,,77,127
40761,note_off,46,0,0,,8,,,68,127
40815,note_on,54,0,0,,8,,,68,127
40861,note_off,46,0,0,,5,,,77,127
40909,note_off,48,0,0,,4,,,52,127
40909,note_off,0,0,0,,2,,,62,127
40915,note_on,6,0,0,,2,,,62,127
40915,note_on,0,0,0,,4,,,52,127
40915,note_on,0,0,0,,4,,,76,127
40961,note_off,46,0,0,,8,,,68,127
41015,note_on,54,0,0,,8,,,68,127
41061,note_off,46,0,0,,4,,,76,127
41109,note_off,48,0,0,,4,,,52,127
41109,note_off,0,0,0,,2,,,62,127
41115,note_on,6,0,0,,2,,,62,127
41115,note_on,0,0,0,,4,,,52,127
41115,note_on,0,0,0,,2,,,74,127
41161,note_off,46,0,0,,8,,,68,127
41215,note_on,54,0,0,,8,,,68,127
41261,note_off,46,0,0,,2,,,74,127
41309,note_off,48,0,0,,4,,,52,127
41309,note_off,0,0,0,,2,,,62,127
41315,note_on,6,0,0,,10,,,57,127
41315,note_on,0,0,0,,1,,,73,127
41361,note_off,46,0,0,,8,,,68,127
41415,note_on,54,0,0,,7,,,67,127
41461,note_off,46,0,0,,1,,,73,127
41509,note_off,48,0,0,,10,,,57,127
41514,note_off,5,0,0,,7,,,67,127
41515,note_on,1,0,0,,7,,,67,127
41515,note_on,0,0,0,,10,,,57,127
41515,note_on,0,0,0,,4,,,76,127
41615,note_on,100,0,0,,11,,,70,127
41661,note_off,46,0,0,,4,,,76,127
41709,note_off,48,0,0,,10,,,57,127
41709,note_off,0,0,0,,7,,,67,127
41715,note_on,6,0,0,,7,,,67,127
41715,note_on,0,0,0,,10,,,57,127
41715,note_on,0,0,0,,7,,,79,127
41761,note_off,46,0,0,,11,,,70,127
41815,note_on,54,0,0,,1,,,73,127
41861,note_off,46,0,0,,7,,,79,127
41909,note_off,48,0,0,,10,,,57,127
41909,note_off,0,0,0,,7,,,67,127
41915,note_on,6,0,0,,7,,,67,127
41915,note_on,0,0,0,,10,,,57,127
41915,note_on,0,0,0,,11,,,82,127
41961,note_off,46,0,0,,1,,,73,127
42015,note_on,54,0,0,,1,,,73,127
42061,note_off,46,0,0,,11,,,82,127
42109,note_off,48,0,0,,10,,,57,127
42109,note_off,0,0,0,,7,,,67,127
42115,note_on,6,0,0,,7,,,67,127
42115,note_on,0,0,0,,10,,,57,127
42115,note_on,0,0,0,,10,,,81,127
42161,note_off,46,0,0,,1,,,73,127
42215,note_on,54,0,0,,1,,,73,127
42261,note_off,46,0,0,,10,,,81,127
42309,note_off,48,0,0,,10,,,57,127
42309,note_off,0,0,0,,7,,,67,127
42315,note_on,6,0,0,,7,,,67,127
42315,note_on,0,0,0,,10,,,57,127
42315,note_on,0,0,0,,7,,,79,127
42361,note_off,46,0,0,,1,,,73,127
42415,note_on,54,0,0,,1,,,73,127
42461,note_off,46,0,0,,7,,,79,127
42509,note_off,48,0,0,,10,,,57,127
42509,note_off,0,0,0,,7,,,67,127
42515,note_on,6,0,0,,2,,,62,127
42515,note_on,0,0,0,,5,,,65,127
42515,note_on,0,0,0,,5,,,77,127
42561,note_off,46,0,0,,1,,,73,127
42615,note_on,54,0,0,,4,,,76,127
42661,note_off,46,0,0,,5,,,77,127
42709,note_off,48,0,0,,5,,,65,127
42709,note_off,0,0,0,,2,,,62,127
42715,note_on,6,0,0,,4,,,64,127
42715,note_on,0,0,0,,2,,,74,127
42761,note_off,46,0,0,,4,,,76,127
42815,note_on,54,0,0,,0,,,72,127
42861,note_off,46,0,0,,2,,,74,127
42909,note_off,48,0,0,,4,,,64,127
42915,note_on,6,0,0,,5,,,65,127
42915,note_on,0,0,0,,12,,,71,127
42961,note_off,46,0,0,,0,,,72,127
43015,note_on,54,0,0,,10,,,69,127
43061,note_off,46,0,0,,12,,,71,127
43109,note_off,48,0,0,,5,,,65,127
43115,note_on,6,0,0,,4,,,52,127
43115,note_on,0,0,0,,8,,,68,127
43161,note_off,46,0,0,,10,,,69,127
43215,note_on,54,0,0,,4,,,64,127
43261,note_off,46,0,0,,8,,,68,127
43309,note_off,48,0,0,,4,,,52,127
43315,note_on,6,0,0,,0,,,72,127
43315,note_on,0,0,0,,10,,,69,127
43361,note_off,46,0,0,,4,,,64,127
43415,note_on,54,0,0,,4,,,64,127
43461,note_off,46,0,0,,10,,,69,127
43509,note_off,48,0,0,,0,,,72,127
43515,note_on,6,0,0,,2,,,74,127
43515,note_on,0,0,0,,12,,,71,127
43561,note_off,46,0,0,,4,,,64,127
43615,note_on,54,0,0,,4,,,64,127
43661,note_off,46,0,0,,12,,,71,127
43709,note_off,48,0,0,,2,,,74,127
43715,note_on,6,0,0,,4,,,76,127
43715,note_on,0,0,0,,8,,,68,127
43761,note_off,46,0,0,,4,,,64,127
43815,note_on,54,0,0,,4,,,64,127
43861,note_off,46,0,0,,8,,,68,127
43909,note_off,48,0,0,,4,,,76,127
43915,note_on,6,0,0,,0,,,48,127
43915,note_on,0,0,0,,10,,,69,127
43961,note_off,46,0,0,,4,,,64,127
44015,note_on,54,0,0,,4,,,64,127
44061,note_off,46,0,0,,10,,,69,127
44109,note_off,48,0,0,,0,,,48,127
44115,note_on,6,0,0,,2,,,50,127
44115,note_on,0,0,0,,6,,,66,127
44161,note_off,46,0,0,,4,,,64,127
44215,note_on,54,0,0,,4,,,64,127
44261,note_off,46,0,0,,6,,,66,127
44309,note_off,48,0,0,,2,,,50,127
44315,note_on,6,0,0,,4,,,52,127
44315,note_on,0,0,0,,8,,,68,127
44361,note_off,46,0,0,,4,,,64,127
44415,note_on,54,0,0,,4,,,64,127
44461,note_off,46,0,0,,8,,,68,127
44509,note_off,48,0,0,,4,,,52,127
44515,note_on,6,0,0,,0,,,72,127
44515,note_on,0,0,0,,10,,,69,127
44561,note_off,46,0,0,,4,,,64,127
44615,note_on,54,0,0,,4,,,64,127
44661,note_off,46,0,0,,10,,,69,127
44709,note_off,48,0,0,,0,,,72,127
44715,note_on,6,0,0,,2,,,74,127
44715,note_on,0,0,0,,12,,,71,127
44761,note_off,46,0,0,,4,,,64,127
44815,note_on,54,0,0,,4,,,64,127
44861,note_off,46,0,0,,12,,,71,127
44909,note_off,48,0,0,,2,,,74,127
44915,note_on,6,0,0,,4,,,76,127
44915,note_on,0,0,0,,8,,,68,127
44961,note_off,46,0,0,,4,,,64,127
45015,note_on,54,0,0,,4,,,64,127
45061,note_off,46,0,0,,8,,,68,127
45109,note_off,48,0,0,,4,,,76,127
45115,note_on,6,0,0,,0,,,48,127
45115,note_on,0,0,0,,10,,,69,127
45161,note_off,46,0,0,,4,,,64,127
45215,note_on,54,0,0,,4,,,64,127
45261,note_off,46,0,0,,10,,,69,127
45309,note_off,48,0,0,,0,,,48,127
45315,note_on,6,0,0,,2,,,50,127
45315,note_on,0,0,0,,6,,,66,127
45361,note_off,46,0,0,,4,,,64,127
45415,note_on,54,0,0,,4,,,64,127
45461,note_off,46,0,0,,6,,,66,127
45509,note_off,48,0,0,,2,,,50,127
45515,note_on,6,0,0,,4,,,52,127
45515,note_on,0,0,0,,8,,,68,127
45561,note_off,46,0,0,,4,,,64,127
45615,note_on,54,0,0,,4,,,64,127
45661,note_off,46,0,0,,8,,,68,127
45709,note_off,48,0,0,,4,,,52,127
45715,note_on,6,0,0,,0,,,72,127
45715,note_on,0,0,0,,10,,,57,127
45761,note_off,46,0,0,,4,,,64,127
45815,note_on,54,0,0,,4,,,64,127
45861,note_off,46,0,0,,10,,,57,127
45909,note_off,48,0,0,,0,,,72,127
45915,note_on,6,0,0,,2,,,74,127
45915,note_on,0,0,0,,10,,,57,127
45961,note_off,46,0,0,,4,,,64,127
46015,note_on,54,0,0,,4,,,64,127
46061,note_off,46,0,0,,10,,,57,127
46109,note_off,48,0,0,,2,,,74,127
46115,note_on,6,0,0,,4,,,76,127
46115,note_on,0,0,0,,8,,,56,127
46161,note_off,46,0,0,,4,,,64,127
46215,note_on,54,0,0,,4,,,64,127
46261,note_off,46,0,0,,8,,,56,127
46309,note_off,48,0,0,,4,,,76,127
46315,note_on,6,0,0,,10,,,45,127
46315,note_on,0,0,0,,10,,,57,127
46361,note_off,46,0,0,,4,,,64,127
46415,note_on,54,0,0,,4,,,64,127
46461,note_off,46,0,0,,10,,,57,127
46509,note_off,48,0,0,,10,,,45,127
46515,note_on,6,0,0,,5,,,41,127
46515,note_on,0,0,0,,5,,,53,127
46561,note_off,46,0,0,,4,,,64,127
46615,note_on,54,0,0,,2,,,62,127
46661,note_off,46,0,0,,5,,,53,127
46709,note_off,48,0,0,,5,,,41,127
46715,note_on,6,0,0,,4,,,40,127
46715,note_on,0,0,0,,4,,,52,127
46761,note_off,46,0,0,,2,,,62,127
46815,note_on,54,0,0,,4,,,64,127
46861,note_off,46,0,0,,4,,,52,127
46909,note_off,48,0,0,,4,,,40,127
46915,note_on,6,0,0,,0,,,72,127
46915,note_on,0,0,0,,10,,,57,127
46961,note_off,46,0,0,,4,,,64,127
47015,note_on,54,0,0,,4,,,64,127
47061,note_off,46,0,0,,10,,,57,127
47109,note_off,48,0,0,,0,,,72,127
47115,note_on,6,0,0,,2,,,74,127
47115,note_on,0,0,0,,10,,,57,127
47161,note_off,46,0,0,,4,,,64,127
47215,note_on,54,0,0,,4,,,64,127
47261,note_off,46,0,0,,10,,,57,127
47309,note_off,48,0,0,,2,,,74,127
47315,note_on,6,0,0,,4,,,76,127
47315,note_on,0,0,0,,8,,,56,127
47361,note_off,46,0,0,,4,,,64,127
47415,note_on,54,0,0,,4,,,64,127
47461,note_off,46,0,0,,8,,,56,127
47509,note_off,48,0,0,,4,,,76,127
47515,note_on,6,0,0,,10,,,45,127
47515,note_on,0,0,0,,10,,,57,127
47561,note_off,46,0,0,,4,,,64,127
47615,note_on,54,0,0,,4,,,64,127
47661,note_off,46,0,0,,10,,,57,127
47709,note_off,48,0,0,,10,,,45,127
47715,note_on,6,0,0,,5,,,41,127
47715,note_on,0,0,0,,5,,,53,127
47761,note_off,46,0,0,,4,,,64,127
47815,note_on,54,0,0,,2,,,62,127
47861,note_off,46,0,0,,5,,,53,127
47909,note_off,48,0,0,,5,,,41,127
47915,note_on,6,0,0,,4,,,40,127
47915,note_on,0,0,0,,4,,,52,127
47961,note_off,46,0,0,,2,,,62,127
48109,note_off,148,0,0,,4,,,52,127
48109,note_off,0,0,0,,4,,,40,127
48115,note_on,6,0,0,,4,,,64,127
48115,note_on,0,0,0,,4,,,76,127
48209,note_off,94,0,0,,4,,,76,127
48215,note_on,6,0,0,,2,,,74,127
48309,note_off,94,0,0,,2,,,74,127
48309,note_off,0,0,0,,4,,,64,127
48315,note_on,6,0,0,,8,,,56,127
48315,note_on,0,0,0,,0,,,72,127
48409,note_off,94,0,0,,0,,,72,127
48415,note_on,6,0,0,,12,,,71,127
48509,note_off,94,0,0,,12,,,71,127
48509,note_off,0,0,0,,8,,,56,127
48515,note_on,6,0,0,,10,,,57,127
48515,note_on,0,0,0,,10,,,81,127
48609,note_off,94,0,0,,10,,,81,127
48615,note_on,6,0,0,,7,,,79,127
48709,note_off,94,0,0,,7,,,79,127
48709,note_off,0,0,0,,10,,,57,127
48715,note_on,6,0,0,,12,,,59,127
48715,note_on,0,0,0,,5,,,77,127
48809,note_off,94,0,0,,5,,,77,127
48815,note_on,6,0,0,,4,,,76,127
48909,note_off,94,0,0,,4,,,76,127
48909,note_off,0,0,0,,12,,,59,127
48915,note_on,6,0,0,,0,,,60,127
48915,note_on,0,0,0,,2,,,74,127
49009,note_off,94,0,0,,2,,,74,127
49015,note_on,6,0,0,,0,,,72,127
49109,note_off,94,0,0,,0,,,72,127
49109,note_off,0,0,0,,0,,,60,127
49115,note_on,6,0,0,,2,,,62,127
49115,note_on,0,0,0,,12,,,71,127
49176,note_off,61,0,0,,12,,,71,127
49182,note_on,6,0,0,,0,,,72,127
49243,note_off,61,0,0,,0,,,72,127
49249,note_on,6,0,0,,2,,,74,127
49310,note_off,61,0,0,,2,,,74,127
49310,note_off,0,0,0,,2,,,62,127
49316,note_on,6,0,0,,4,,,64,127
49316,note_on,0,0,0,,0,,,72,127
49410,note_off,94,0,0,,0,,,72,127
49416,note_on,6,0,0,,12,,,71,127
49510,note_off,94,0,0,,12,,,71,127
49510,note_off,0,0,0,,4,,,64,127
49516,note_on,6,0,0,,4,,,52,127
49516,note_on,0,0,0,,10,,,69,127
49610,note_off,94,0,0,,10,,,69,127
49616,note_on,6,0,0,,8,,,68,127
49710,note_off,94,0,0,,8,,,68,127
49710,note_off,0,0,0,,4,,,52,127
49716,note_on,6,0,0,,10,,,45,127
49716,note_on,0,0,0,,10,,,69,127
49810,note_off,94,0,0,,10,,,69,127
49816,note_on,6,0,0,,7,,,67,127
49910,note_off,94,0,0,,7,,,67,127
49910,note_off,0,0,0,,10,,,45,127
49916,note_on,6,0,0,,12,,,47,127
49916,note_on,0,0,0,,5,,,65,127
50010,note_off,94,0,0,,5,,,65,127
50016,note_on,6,0,0,,4,,,64,127
50110,note_off,94,0,0,,4,,,64,127
50110,note_off,0,0,0,,12,,,47,127
50116,note_on,6,0,0,,0,,,48,127
50116,note_on,0,0,0,,2,,,62,127
50210,note_off,94,0,0,,2,,,62,127
50216,note_on,6,0,0,,0,,,60,127
50310,note_off,94,0,0,,0,,,60,127
50310,note_off,0,0,0,,0,,,48,127
50316,note_on,6,0,0,,2,,,50,127
50316,note_on,0,0,0,,12,,,59,127
50377,note_off,61,0,0,,12,,,59,127
50383,note_on,6,0,0,,0,,,60,127
50444,note_off,61,0,0,,0,,,60,127
50450,note_on,6,0,0,,2,,,62,127
50511,note_off,61,0,0,,2,,,62,127
50511,note_off,0,0,0,,2,,,50,127
50517,note_on,6,0,0,,4,,,52,127
50517,note_on,0,0,0,,0,,,60,127
50611,note_off,94,0,0,,0,,,60,127
50617,note_on,6,0,0,,12,,,59,127
50711,note_off,94,0,0,,12,,,59,127
50711,note_off,0,0,0,,4,,,52,127
50717,note_on,6,0,0,,4,,,40,127
50717,note_on,0,0,0,,10,,,57,127
50811,note_off,94,0,0,,10,,,57,127
50817,note_on,6,0,0,,8,,,56,127
50911,note_off,94,0,0,,8,,,56,127
50911,note_off,0,0,0,,4,,,40,127
50917,note_on,6,0,0,,10,,,45,127
50917,note_on,0,0,0,,10,,,57,127
51512,note_off,595,0,0,,10,,,57,127
51512,note_off,0,0,0,,10,,,45,127
51518,note_on,6,0,0,,10,,,69,127
51518,note_on,0,0,0,,1,,,73,127
51518,note_on,0,0,0,,4,,,76,127
51612,note_off,94,0,0,,4,,,76,127
51618,note_on,6,0,0,,4,,,76,127
51712,note_off,94,0,0,,4,,,76,127
51712,note_off,0,0,0,,1,,,73,127
51712,note_off,0,0,0,,10,,,69,127
51718,note_on,6,0,0,,1,,,73,127
51718,note_on,0,0,0,,10,,,69,127
51718,note_on,0,0,0,,4,,,76,127
51812,note_off,94,0,0,,4,,,76,127
51818,note_on,6,0,0,,4,,,76,127
51912,note_off,94,0,0,,4,,,76,127
51912,note_off,0,0,0,,10,,,69,127
51912,note_off,0,0,0,,1,,,73,127
51918,note_on,6,0,0,,10,,,69,127
51918,note_on,0,0,0,,1,,,73,127
51918,note_on,0,0,0,,4,,,76,127
52012,note_off,94,0,0,,4,,,76,127
52018,note_on,6,0,0,,4,,,76,127
52112,note_off,94,0,0,,4,,,76,127
52112,note_off,0,0,0,,1,,,73,127
52112,note_off,0,0,0,,10,,,69,127
52118,note_on,6,0,0,,2,,,74,127
52118,note_on,0,0,0,,7,,,67,127
52118,note_on,0,0,0,,11,,,70,127
52118,note_on,0,0,0,,4,,,76,127
52212,note_off,94,0,0,,4,,,76,127
52218,note_on,6,0,0,,4,,,76,127
52312,note_off,94,0,0,,4,,,76,127
52312,note_off,0,0,0,,11,,,70,127
52312,note_off,0,0,0,,7,,,67,127
52312,note_off,0,0,0,,2,,,74,127
52318,note_on,6,0,0,,2,,,74,127
52318,note_on,0,0,0,,7,,,67,127
52318,note_on,0,0,0,,11,,,70,127
52318,note_on,0,0,0,,4,,,76,127
52412,note_off,94,0,0,,4,,,76,127
52418,note_on,6,0,0,,4,,,76,127
52512,note_off,94,0,0,,4,,,76,127
52512,note_off,0,0,0,,11,,,70,127
52512,note_off,0,0,0,,7,,,67,127
52512,note_off,0,0,0,,2,,,74,127
52518,note_on,6,0,0,,2,,,74,127
52518,note_on,0,0,0,,7,,,67,127
52518,note_on,0,0,0,,11,,,70,127
52518,note_on,0,0,0,,4,,,76,127
52612,note_off,94,0,0,,4,,,76,127
52618,note_on,6,0,0,,4,,,76,127
52712,note_off,94,0,0,,4,,,76,127
52712,note_off,0,0,0,,11,,,70,127
52712,note_off,0,0,0,,7,,,67,127
52712,note_off,0,0,0,,2,,,74,127
52718,note_on,6,0,0,,1,,,73,127
52718,note_on,0,0,0,,10,,,69,127
52718,note_on,0,0,0,,4,,,76,127
52812,note_off,94,0,0,,4,,,76,127
52818,note_on,6,0,0,,4,,,76,127
52912,note_off,94,0,0,,4,,,76,127
52912,note_off,0,0,0,,10,,,69,127
52912,note_off,0,0,0,,1,,,73,127
52918,note_on,6,0,0,,1,,,73,127
52918,note_on,0,0,0,,10,,,69,127
52918,note_on,0,0,0,,4,,,76,127
53012,note_off,94,0,0,,4,,,76,127
53018,note_on,6,0,0,,4,,,76,127
53112,note_off,94,0,0,,4,,,76,127
53112,note_off,0,0,0,,10,,,69,127
53112,note_off,0,0,0,,1,,,73,127
53118,note_on,6,0,0,,10,,,69,127
53118,note_on,0,0,0,,1,,,73,127
53118,note_on,0,0,0,,4,,,76,127
53212,note_off,94,0,0,,4,,,76,127
53218,note_on,6,0,0,,4,,,76,127
53312,note_off,94,0,0,,4,,,76,127
53312,note_off,0,0,0,,1,,,73,127
53312,note_off,0,0,0,,10,,,69,127
53318,note_on,6,0,0,,2,,,74,127
53318,note_on,0,0,0,,7,,,67,127
53318,note_on,0,0,0,,11,,,70,127
53318,note_on,0,0,0,,4,,,76,127
53412,note_off,94,0,0,,4,,,76,127
53418,note_on,6,0,0,,4,,,76,127
53512,note_off,94,0,0,,4,,,76,127
53512,note_off,0,0,0,,11,,,70,127
53512,note_off,0,0,0,,7,,,67,127
53512,note_off,0,0,0,,2,,,74,127
53518,note_on,6,0,0,,7,,,67,127
53518,note_on,0,0,0,,11,,,70,127
53518,note_on,0,0,0,,2,,,74,127
53518,note_on,0,0,0,,4,,,76,127
53612,note_off,94,0,0,,4,,,76,127
53618,note_on,6,0,0,,4,,,76,127
53712,note_off,94,0,0,,4,,,76,127
53712,note_off,0,0,0,,2,,,74,127
53712,note_off,0,0,0,,11,,,70,127
53712,note_off,0,0,0,,7,,,67,127
53718,note_on,6,0,0,,11,,,70,127
53718,note_on,0,0,0,,2,,,74,127
53718,note_on,0,0,0,,7,,,67,127
53718,note_on,0,0,0,,4,,,76,127
53812,note_off,94,0,0,,4,,,76,127
53818,note_on,6,0,0,,4,,,76,127
53912,note_off,94,0,0,,4,,,76,127
53912,note_off,0,0,0,,7,,,67,127
53912,note_off,0,0,0,,2,,,74,127
53912,note_off,0,0,0,,11,,,70,127
53918,note_on,6,0,0,,0,,,72,127
53918,note_on,0,0,0,,7,,,67,127
53918,note_on,0,0,0,,11,,,70,127
53918,note_on,0,0,0,,4,,,76,127
54012,note_off,94,0,0,,4,,,76,127
54018,note_on,6,0,0,,4,,,76,127
54112,note_off,94,0,0,,4,,,76,127
54112,note_off,0,0,0,,11,,,70,127
54112,note_off,0,0,0,,7,,,67,127
54112,note_off,0,0,0,,0,,,72,127
54118,note_on,6,0,0,,0,,,72,127
54118,note_on,0,0,0,,7,,,67,127
54118,note_on,0,0,0,,11,,,70,127
54118,note_on,0,0,0,,4,,,76,127
54212,note_off,94,0,0,,4,,,76,127
54218,note_on,6,0,0,,4,,,76,127
54312,note_off,94,0,0,,4,,,76,127
54312,note_off,0,0,0,,11,,,70,127
54312,note_off,0,0,0,,7,,,67,127
54312,note_off,0,0,0,,0,,,72,127
54318,note_on,6,0,0,,0,,,72,127
54318,note_on,0,0,0,,7,,,67,127
54318,note_on,0,0,0,,11,,,70,127
54318,note_on,0,0,0,,4,,,76,127
54412,note_off,94,0,0,,4,,,76,127
54418,note_on,6,0,0,,4,,,76,127
54512,note_off,94,0,0,,4,,,76,127
54512,note_off,0,0,0,,11,,,70,127
54512,note_off,0,0,0,,7,,,67,127
54512,note_off,0,0,0,,0,,,72,127
54518,note_on,6,0,0,,0,,,72,127
54518,note_on,0,0,0,,7,,,67,127
54518,note_on,0,0,0,,11,,,70,127
54518,note_on,0,0,0,,4,,,76,127
54612,note_off,94,0,0,,4,,,76,127
54618,note_on,6,0,0,,4,,,76,127
54712,note_off,94,0,0,,4,,,76,127
54712,note_off,0,0,0,,11,,,70,127
54712,note_off,0,0,0,,7,,,67,127
54712,note_off,0,0,0,,0,,,72,127
54718,note_on,6,0,0,,0,,,72,127
54718,note_on,0,0,0,,7,,,67,127
54718,note_on,0,0,0,,11,,,70,127
54718,note_on,0,0,0,,4,,,76,127
54812,note_off,94,0,0,,4,,,76,127
54818,note_on,6,0,0,,4,,,76,127
54912,note_off,94,0,0,,4,,,76,127
54912,note_off,0,0,0,,11,,,70,127
54912,note_off,0,0,0,,7,,,67,127
54912,note_off,0,0,0,,0,,,72,127
54918,note_on,6,0,0,,11,,,70,127
54918,note_on,0,0,0,,0,,,72,127
54918,note_on,0,0,0,,7,,,67,127
54918,note_on,0,0,0,,4,,,76,127
55012,note_off,94,0,0,,4,,,76,127
55018,note_on,6,0,0,,4,,,76,127
55112,note_off,94,0,0,,4,,,76,127
55112,note_off,0,0,0,,7,,,67,127
55112,note_off,0,0,0,,0,,,72,127
55112,note_off,0,0,0,,11,,,70,127
55118,note_on,6,0,0,,8,,,68,127
55118,note_on,0,0,0,,0,,,72,127
55118,note_on,0,0,0,,5,,,65,127
55118,note_on,0,0,0,,5,,,77,127
55212,note_off,94,0,0,,5,,,77,127
55218,note_on,6,0,0,,5,,,77,127
55312,note_off,94,0,0,,5,,,77,127
55312,note_off,0,0,0,,5,,,65,127
55312,note_off,0,0,0,,0,,,72,127
55312,note_off,0,0,0,,8,,,68,127
55318,note_on,6,0,0,,5,,,65,127
55318,note_on,0,0,0,,8,,,68,127
55318,note_on,0,0,0,,0,,,72,127
55318,note_on,0,0,0,,5,,,77,127
55412,note_off,94,0,0,,5,,,77,127
55418,note_on,6,0,0,,5,,,77,127
55512,note_off,94,0,0,,5,,,77,127
55512,note_off,0,0,0,,0,,,72,127
55512,note_off,0,0,0,,8,,,68,127
55512,note_off,0,0,0,,5,,,65,127
55518,note_on,6,0,0,,5,,,65,127
55518,note_on,0,0,0,,8,,,68,127
55518,note_on,0,0,0,,0,,,72,127
55518,note_on,0,0,0,,5,,,77,127
55612,note_off,94,0,0,,5,,,77,127
55618,note_on,6,0,0,,5,,,77,127
55712,note_off,94,0,0,,5,,,77,127
55712,note_off,0,0,0,,0,,,72,127
55712,note_off,0,0,0,,8,,,68,127
55712,note_off,0,0,0,,5,,,65,127
55718,note_on,6,0,0,,2,,,74,127
55718,note_on,0,0,0,,7,,,67,127
55718,note_on,0,0,0,,12,,,71,127
55718,note_on,0,0,0,,5,,,77,127
55812,note_off,94,0,0,,5,,,77,127
55818,note_on,6,0,0,,5,,,77,127
55912,note_off,94,0,0,,5,,,77,127
55912,note_off,0,0,0,,12,,,71,127
55912,note_off,0,0,0,,7,,,67,127
55912,note_off,0,0,0,,2,,,74,127
55918,note_on,6,0,0,,2,,,74,127
55918,note_on,0,0,0,,7,,,67,127
55918,note_on,0,0,0,,12,,,71,127
55918,note_on,0,0,0,,5,,,77,127
56012,note_off,94,0,0,,5,,,77,127
56018,note_on,6,0,0,,5,,,77,127
56112,note_off,94,0,0,,5,,,77,127
56112,note_off,0,0,0,,12,,,71,127
56112,note_off,0,0,0,,7,,,67,127
56112,note_off,0,0,0,,2,,,74,127
56118,note_on,6,0,0,,2,,,74,127
56118,note_on,0,0,0,,7,,,67,127
56118,note_on,0,0,0,,12,,,71,127
56118,note_on,0,0,0,,5,,,77,127
56212,note_off,94,0,0,,5,,,77,127
56218,note_on,6,0,0,,5,,,77,127
56312,note_off,94,0,0,,5,,,77,127
56312,note_off,0,0,0,,12,,,71,127
56312,note_off,0,0,0,,7,,,67,127
56312,note_off,0,0,0,,2,,,74,127
56318,note_on,6,0,0,,2,,,74,127
56318,note_on,0,0,0,,8,,,68,127
56318,note_on,0,0,0,,0,,,72,127
56318,note_on,0,0,0,,5,,,77,127
56412,note_off,94,0,0,,5,,,77,127
56418,note_on,6,0,0,,5,,,77,127
56512,note_off,94,0,0,,5,,,77,127
56512,note_off,0,0,0,,0,,,72,127
56512,note_off,0,0,0,,8,,,68,127
56512,note_off,0,0,0,,2,,,74,127
56518,note_on,6,0,0,,0,,,72,127
56518,note_on,0,0,0,,2,,,74,127
56518,note_on,0,0,0,,8,,,68,127
56518,note_on,0,0,0,,5,,,77,127
56612,note_off,94,0,0,,5,,,77,127
56618,note_on,6,0,0,,5,,,77,127
56712,note_off,94,0,0,,5,,,77,127
56712,note_off,0,0,0,,8,,,68,127
56712,note_off,0,0,0,,2,,,74,127
56712,note_off,0,0,0,,0,,,72,127
56718,note_on,6,0,0,,2,,,74,127
56718,note_on,0,0,0,,8,,,68,127
56718,note_on,0,0,0,,0,,,72,127
56718,note_on,0,0,0,,5,,,77,127
56812,note_off,94,0,0,,5,,,77,127
56818,note_on,6,0,0,,5,,,77,127
56912,note_off,94,0,0,,5,,,77,127
56912,note_off,0,0,0,,0,,,72,127
56912,note_off,0,0,0,,8,,,68,127
56912,note_off,0,0,0,,2,,,74,127
56918,note_on,6,0,0,,2,,,74,127
56918,note_on,0,0,0,,7,,,67,127
56918,note_on,0,0,0,,12,,,71,127
56918,note_on,0,0,0,,5,,,77,127
57012,note_off,94,0,0,,5,,,77,127
57018,note_on,6,0,0,,5,,,77,127
57112,note_off,94,0,0,,5,,,77,127
57112,note_off,0,0,0,,12,,,71,127
57112,note_off,0,0,0,,7,,,67,127
57112,note_off,0,0,0,,2,,,74,127
57118,note_on,6,0,0,,2,,,74,127
57118,note_on,0,0,0,,7,,,67,127
57118,note_on,0,0,0,,12,,,71,127
57118,note_on,0,0,0,,5,,,77,127
57212,note_off,94,0,0,,5,,,77,127
57218,note_on,6,0,0,,5,,,77,127
57312,note_off,94,0,0,,5,,,77,127
57312,note_off,0,0,0,,12,,,71,127
57312,note_off,0,0,0,,7,,,67,127
57312,note_off,0,0,0,,2,,,74,127
57318,note_on,6,0,0,,7,,,67,127
57318,note_on,0,0,0,,12,,,71,127
57318,note_on,0,0,0,,2,,,74,127
57318,note_on,0,0,0,,5,,,77,127
57412,note_off,94,0,0,,5,,,77,127
57418,note_on,6,0,0,,5,,,77,127
57512,note_off,94,0,0,,5,,,77,127
57512,note_off,0,0,0,,2,,,74,127
57512,note_off,0,0,0,,12,,,71,127
57512,note_off,0,0,0,,7,,,67,127
57518,note_on,6,0,0,,0,,,72,127
57518,note_on,0,0,0,,7,,,67,127
57518,note_on,0,0,0,,3,,,75,127
57612,note_off,94,0,0,,3,,,75,127
57618,note_on,6,0,0,,3,,,75,127
57712,note_off,94,0,0,,3,,,75,127
57712,note_off,0,0,0,,7,,,67,127
57712,note_off,0,0,0,,0,,,72,127
57718,note_on,6,0,0,,0,,,72,127
57718,note_on,0,0,0,,7,,,67,127
57718,note_on,0,0,0,,3,,,75,127
57812,note_off,94,0,0,,3,,,75,127
57818,note_on,6,0,0,,3,,,75,127
57912,note_off,94,0,0,,3,,,75,127
57912,note_off,0,0,0,,7,,,67,127
57912,note_off,0,0,0,,0,,,72,127
57918,note_on,6,0,0,,0,,,72,127
57918,note_on,0,0,0,,7,,,67,127
57918,note_on,0,0,0,,3,,,75,127
58012,note_off,94,0,0,,3,,,75,127
58018,note_on,6,0,0,,3,,,75,127
58112,note_off,94,0,0,,3,,,75,127
58112,note_off,0,0,0,,7,,,67,127
58112,note_off,0,0,0,,0,,,72,127
58118,note_on,6,0,0,,0,,,72,127
58118,note_on,0,0,0,,6,,,66,127
58118,note_on,0,0,0,,2,,,74,127
58212,note_off,94,0,0,,2,,,74,127
58218,note_on,6,0,0,,2,,,74,127
58312,note_off,94,0,0,,2,,,74,127
58312,note_off,0,0,0,,6,,,66,127
58312,note_off,0,0,0,,0,,,72,127
58318,note_on,6,0,0,,0,,,72,127
58318,note_on,0,0,0,,6,,,66,127
58318,note_on,0,0,0,,2,,,74,127
58412,note_off,94,0,0,,2,,,74,127
58418,note_on,6,0,0,,2,,,74,127
58512,note_off,94,0,0,,2,,,74,127
58512,note_off,0,0,0,,6,,,66,127
58512,note_off,0,0,0,,0,,,72,127
58518,note_on,6,0,0,,0,,,72,127
58518,note_on,0,0,0,,6,,,66,127
58518,note_on,0,0,0,,2,,,74,127
58612,note_off,94,0,0,,2,,,74,127
58618,note_on,6,0,0,,2,,,74,127
58712,note_off,94,0,0,,2,,,74,127
58712,note_off,0,0,0,,6,,,66,127
58712,note_off,0,0,0,,0,,,72,127
58718,note_on,6,0,0,,7,,,67,127
58718,note_on,0,0,0,,0,,,72,127
58718,note_on,0,0,0,,3,,,75,127
58812,note_off,94,0,0,,3,,,75,127
58818,note_on,6,0,0,,3,,,75,127
58912,note_off,94,0,0,,3,,,75,127
58912,note_off,0,0,0,,0,,,72,127
58912,note_off,0,0,0,,7,,,67,127
58918,note_on,6,0,0,,0,,,72,127
58918,note_on,0,0,0,,7,,,67,127
58918,note_on,0,0,0,,3,,,75,127
59012,note_off,94,0,0,,3,,,75,127
59018,note_on,6,0,0,,3,,,75,127
59112,note_off,94,0,0,,3,,,75,127
59112,note_off,0,0,0,,7,,,67,127
59112,note_off,0,0,0,,0,,,72,127
59118,note_on,6,0,0,,7,,,67,127
59118,note_on,0,0,0,,0,,,72,127
59118,note_on,0,0,0,,3,,,75,127
59212,note_off,94,0,0,,3,,,75,127
59218,note_on,6,0,0,,3,,,75,127
59312,note_off,94,0,0,,3,,,75,127
59312,note_off,0,0,0,,0,,,72,127
59312,note_off,0,0,0,,7,,,67,127
59318,note_on,6,0,0,,0,,,72,127
59318,note_on,0,0,0,,6,,,66,127
59318,note_on,0,0,0,,2,,,74,127
59412,note_off,94,0,0,,2,,,74,127
59418,note_on,6,0,0,,2,,,74,127
59512,note_off,94,0,0,,2,,,74,127
59512,note_off,0,0,0,,6,,,66,127
59512,note_off,0,0,0,,0,,,72,127
59518,note_on,6,0,0,,0,,,72,127
59518,note_on,0,0,0,,6,,,66,127
59518,note_on,0,0,0,,2,,,74,127
59612,note_off,94,0,0,,2,,,74,127
59618,note_on,6,0,0,,2,,,74,127
59712,note_off,94,0,0,,2,,,74,127
59712,note_off,0,0,0,,6,,,66,127
59712,note_off,0,0,0,,0,,,72,127
59718,note_on,6,0,0,,0,,,72,127
59718,note_on,0,0,0,,6,,,66,127
59718,note_on,0,0,0,,2,,,74,127
59812,note_off,94,0,0,,2,,,74,127
59818,note_on,6,0,0,,2,,,74,127
59912,note_off,94,0,0,,2,,,74,127
59912,note_off,0,0,0,,6,,,66,127
59912,note_off,0,0,0,,0,,,72,127
59918,note_on,6,0,0,,0,,,72,127
59918,note_on,0,0,0,,5,,,65,127
59918,note_on,0,0,0,,2,,,74,127
60012,note_off,94,0,0,,2,,,74,127
60018,note_on,6,0,0,,2,,,74,127
60112,note_off,94,0,0,,2,,,74,127
60112,note_off,0,0,0,,5,,,65,127
60112,note_off,0,0,0,,0,,,72,127
60118,note_on,6,0,0,,5,,,65,127
60118,note_on,0,0,0,,12,,,71,127
60118,note_on,0,0,0,,2,,,74,127
60212,note_off,94,0,0,,2,,,74,127
60218,note_on,6,0,0,,2,,,74,127
60312,note_off,94,0,0,,2,,,74,127
60312,note_off,0,0,0,,12,,,71,127
60312,note_off,0,0,0,,5,,,65,127
60318,note_on,6,0,0,,10,,,69,127
60318,note_on,0,0,0,,5,,,65,127
60318,note_on,0,0,0,,2,,,74,127
60412,note_off,94,0,0,,2,,,74,127
60418,note_on,6,0,0,,2,,,74,127
60512,note_off,94,0,0,,2,,,74,127
60512,note_off,0,0,0,,5,,,65,127
60512,note_off,0,0,0,,10,,,69,127
60518,note_on,6,0,0,,12,,,71,127
60518,note_on,0,0,0,,4,,,64,127
60518,note_on,0,0,0,,8,,,68,127
60518,note_on,0,0,0,,2,,,74,127
60612,note_off,94,0,0,,2,,,74,127
60618,note_on,6,0,0,,2,,,74,127
60712,note_off,94,0,0,,2,,,74,127
60712,note_off,0,0,0,,8,,,68,127
60712,note_off,0,0,0,,4,,,64,127
60712,note_off,0,0,0,,12,,,71,127
60718,note_on,6,0,0,,8,,,68,127
60718,note_on,0,0,0,,12,,,71,127
60718,note_on,0,0,0,,4,,,64,127
60718,note_on,0,0,0,,2,,,74,127
60812,note_off,94,0,0,,2,,,74,127
60818,note_on,6,0,0,,2,,,74,127
60912,note_off,94,0,0,,2,,,74,127
60912,note_off,0,0,0,,4,,,64,127
60912,note_off,0,0,0,,12,,,71,127
60912,note_off,0,0,0,,8,,,68,127
60918,note_on,6,0,0,,8,,,68,127
60918,note_on,0,0,0,,12,,,71,127
60918,note_on,0,0,0,,4,,,64,127
60918,note_on,0,0,0,,2,,,74,127
61012,note_off,94,0,0,,2,,,74,127
61018,note_on,6,0,0,,2,,,74,127
61112,note_off,94,0,0,,2,,,74,127
61112,note_off,0,0,0,,4,,,64,127
61112,note_off,0,0,0,,12,,,71,127
61112,note_off,0,0,0,,8,,,68,127
61118,note_on,6,0,0,,5,,,65,127
61118,note_on,0,0,0,,10,,,69,127
61118,note_on,0,0,0,,2,,,74,127
61212,note_off,94,0,0,,2,,,74,127
61218,note_on,6,0,0,,2,,,74,127
61312,note_off,94,0,0,,2,,,74,127
61312,note_off,0,0,0,,10,,,69,127
61312,note_off,0,0,0,,5,,,65,127
61318,note_on,6,0,0,,5,,,65,127
61318,note_on,0,0,0,,10,,,69,127
61318,note_on,0,0,0,,2,,,74,127
61412,note_off,94,0,0,,2,,,74,127
61418,note_on,6,0,0,,2,,,74,127
61512,note_off,94,0,0,,2,,,74,127
61512,note_off,0,0,0,,10,,,69,127
61512,note_off,0,0,0,,5,,,65,127
61518,note_on,6,0,0,,5,,,65,127
61518,note_on,0,0,0,,10,,,69,127
61518,note_on,0,0,0,,2,,,74,127
61612,note_off,94,0,0,,2,,,74,127
61618,note_on,6,0,0,,2,,,74,127
61712,note_off,94,0,0,,2,,,74,127
61712,note_off,0,0,0,,10,,,69,127
61712,note_off,0,0,0,,5,,,65,127
61718,note_on,6,0,0,,4,,,64,127
61718,note_on,0,0,0,,7,,,67,127
61718,note_on,0,0,0,,10,,,69,127
61718,note_on,0,0,0,,1,,,73,127
61812,note_off,94,0,0,,1,,,73,127
61818,note_on,6,0,0,,1,,,73,127
61912,note_off,94,0,0,,1,,,73,127
61912,note_off,0,0,0,,10,,,69,127
61912,note_off,0,0,0,,7,,,67,127
61912,note_off,0,0,0,,4,,,64,127
61918,note_on,6,0,0,,10,,,69,127
61918,note_on,0,0,0,,4,,,64,127
61918,note_on,0,0,0,,7,,,67,127
61918,note_on,0,0,0,,1,,,73,127
62012,note_off,94,0,0,,1,,,73,127
62018,note_on,6,0,0,,1,,,73,127
62112,note_off,94,0,0,,1,,,73,127
62112,note_off,0,0,0,,7,,,67,127
62112,note_off,0,0,0,,4,,,64,127
62112,note_off,0,0,0,,10,,,69,127
62118,note_on,6,0,0,,10,,,69,127
62118,note_on,0,0,0,,4,,,64,127
62118,note_on,0,0,0,,7,,,67,127
62118,note_on,0,0,0,,1,,,73,127
62212,note_off,94,0,0,,1,,,73,127
62218,note_on,6,0,0,,1,,,73,127
62312,note_off,94,0,0,,1,,,73,127
62312,note_off,0,0,0,,7,,,67,127
62312,note_off,0,0,0,,4,,,64,127
62312,note_off,0,0,0,,10,,,69,127
62318,note_on,6,0,0,,11,,,70,127
62318,note_on,0,0,0,,2,,,62,127
62318,note_on,0,0,0,,7,,,67,127
62318,note_on,0,0,0,,2,,,74,127
62412,note_off,94,0,0,,2,,,74,127
62418,note_on,6,0,0,,2,,,74,127
62512,note_off,94,0,0,,2,,,74,127
62512,note_off,0,0,0,,7,,,67,127
62512,note_off,0,0,0,,2,,,62,127
62512,note_off,0,0,0,,11,,,70,127
62518,note_on,6,0,0,,2,,,62,127
62518,note_on,0,0,0,,7,,,67,127
62518,note_on,0,0,0,,11,,,70,127
62518,note_on,0,0,0,,2,,,74,127
62612,note_off,94,0,0,,2,,,74,127
62618,note_on,6,0,0,,2,,,74,127
62712,note_off,94,0,0,,2,,,74,127
62712,note_off,0,0,0,,11,,,70,127
62712,note_off,0,0,0,,7,,,67,127
62712,note_off,0,0,0,,2,,,62,127
62718,note_on,6,0,0,,2,,,62,127
62718,note_on,0,0,0,,7,,,67,127
62718,note_on,0,0,0,,11,,,70,127
62718,note_on,0,0,0,,2,,,74,127
62812,note_off,94,0,0,,2,,,74,127
62818,note_on,6,0,0,,2,,,74,127
62912,note_off,94,0,0,,2,,,74,127
62912,note_off,0,0,0,,11,,,70,127
62912,note_off,0,0,0,,7,,,67,127
62912,note_off,0,0,0,,2,,,62,127
62918,note_on,6,0,0,,7,,,67,127
62918,note_on,0,0,0,,10,,,69,127
62918,note_on,0,0,0,,1,,,61,127
62918,note_on,0,0,0,,4,,,76,127
63012,note_off,94,0,0,,4,,,76,127
63018,note_on,6,0,0,,4,,,76,127
63112,note_off,94,0,0,,4,,,76,127
63112,note_off,0,0,0,,1,,,61,127
63112,note_off,0,0,0,,10,,,69,127
63112,note_off,0,0,0,,7,,,67,127
63118,note_on,6,0,0,,7,,,67,127
63118,note_on,0,0,0,,10,,,69,127
63118,note_on,0,0,0,,1,,,61,127
63118,note_on,0,0,0,,4,,,76,127
63212,note_off,94,0,0,,4,,,76,127
63218,note_on,6,0,0,,4,,,76,127
63312,note_off,94,0,0,,4,,,76,127
63312,note_off,0,0,0,,1,,,61,127
63312,note_off,0,0,0,,10,,,69,127
63312,note_off,0,0,0,,7,,,67,127
63318,note_on,6,0,0,,10,,,69,127
63318,note_on,0,0,0,,7,,,67,127
63318,note_on,0,0,0,,1,,,61,127
63318,note_on,0,0,0,,4,,,76,127
63412,note_off,94,0,0,,4,,,76,127
63418,note_on,6,0,0,,4,,,76,127
63512,note_off,94,0,0,,4,,,76,127
63512,note_off,0,0,0,,1,,,61,127
63512,note_off,0,0,0,,7,,,67,127
63512,note_off,0,0,0,,10,,,69,127
63518,note_on,6,0,0,,10,,,69,127
63518,note_on,0,0,0,,2,,,62,127
63518,note_on,0,0,0,,5,,,65,127
63518,note_on,0,0,0,,5,,,77,127
63612,note_off,94,0,0,,5,,,77,127
63618,note_on,6,0,0,,5,,,77,127
63712,note_off,94,0,0,,5,,,77,127
63712,note_off,0,0,0,,5,,,65,127
63712,note_off,0,0,0,,2,,,62,127
63712,note_off,0,0,0,,10,,,69,127
63718,note_on,6,0,0,,2,,,62,127
63718,note_on,0,0,0,,5,,,65,127
63718,note_on,0,0,0,,10,,,69,127
63718,note_on,0,0,0,,5,,,77,127
63812,note_off,94,0,0,,5,,,77,127
63818,note_on,6,0,0,,5,,,77,127
63912,note_off,94,0,0,,5,,,77,127
63912,note_off,0,0,0,,10,,,69,127
63912,note_off,0,0,0,,5,,,65,127
63912,note_off,0,0,0,,2,,,62,127
63918,note_on,6,0,0,,10,,,69,127
63918,note_on,0,0,0,,2,,,62,127
63918,note_on,0,0,0,,5,,,65,127
63918,note_on,0,0,0,,5,,,77,127
64012,note_off,94,0,0,,5,,,77,127
64018,note_on,6,0,0,,5,,,77,127
64112,note_off,94,0,0,,5,,,77,127
64112,note_off,0,0,0,,5,,,65,127
64112,note_off,0,0,0,,2,,,62,127
64112,note_off,0,0,0,,10,,,69,127
64118,note_on,6,0,0,,7,,,67,127
64118,note_on,0,0,0,,11,,,58,127
64118,note_on,0,0,0,,4,,,64,127
64118,note_on,0,0,0,,7,,,79,127
64212,note_off,94,0,0,,7,,,79,127
64218,note_on,6,0,0,,7,,,79,127
64312,note_off,94,0,0,,7,,,79,127
64312,note_off,0,0,0,,4,,,64,127
64312,note_off,0,0,0,,11,,,58,127
64312,note_off,0,0,0,,7,,,67,127
64318,note_on,6,0,0,,7,,,67,127
64318,note_on,0,0,0,,4,,,64,127
64318,note_on,0,0,0,,11,,,58,127
64318,note_on,0,0,0,,7,,,79,127
64412,note_off,94,0,0,,7,,,79,127
64418,note_on,6,0,0,,7,,,79,127
64512,note_off,94,0,0,,7,,,79,127
64512,note_off,0,0,0,,11,,,58,127
64512,note_off,0,0,0,,4,,,64,127
64512,note_off,0,0,0,,7,,,67,127
64518,note_on,6,0,0,,11,,,58,127
64518,note_on,0,0,0,,4,,,64,127
64518,note_on,0,0,0,,7,,,67,127
64518,note_on,0,0,0,,7,,,79,127
64612,note_off,94,0,0,,7,,,79,127
64618,note_on,6,0,0,,7,,,79,127
64712,note_off,94,0,0,,7,,,79,127
64712,note_off,0,0,0,,7,,,67,127
64712,note_off,0,0,0,,4,,,64,127
64712,note_off,0,0,0,,11,,,58,127
64718,note_on,6,0,0,,2,,,62,127
64718,note_on,0,0,0,,5,,,53,127
64718,note_on,0,0,0,,10,,,57,127
64718,note_on,0,0,0,,10,,,81,127
64812,note_off,94,0,0,,10,,,81,127
64818,note_on,6,0,0,,10,,,81,127
64912,note_off,94,0,0,,10,,,81,127
64912,note_off,0,0,0,,10,,,57,127
64912,note_off,0,0,0,,5,,,53,127
64912,note_off,0,0,0,,2,,,62,127
64918,note_on,6,0,0,,10,,,57,127
64918,note_on,0,0,0,,2,,,62,127
64918,note_on,0,0,0,,5,,,53,127
64918,note_on,0,0,0,,10,,,81,127
65012,note_off,94,0,0,,10,,,81,127
65018,note_on,6,0,0,,10,,,81,127
65112,note_off,94,0,0,,10,,,81,127
65112,note_off,0,0,0,,5,,,53,127
65112,note_off,0,0,0,,2,,,62,127
65112,note_off,0,0,0,,10,,,57,127
65118,note_on,6,0,0,,2,,,62,127
65118,note_on,0,0,0,,5,,,53,127
65118,note_on,0,0,0,,10,,,57,127
65118,note_on,0,0,0,,10,,,81,127
65212,note_off,94,0,0,,10,,,81,127
65218,note_on,6,0,0,,10,,,81,127
65312,note_off,94,0,0,,10,,,81,127
65312,note_off,0,0,0,,10,,,57,127
65312,note_off,0,0,0,,5,,,53,127
65312,note_off,0,0,0,,2,,,62,127
65318,note_on,6,0,0,,7,,,55,127
65318,note_on,0,0,0,,2,,,62,127
65318,note_on,0,0,0,,11,,,82,127
65412,note_off,94,0,0,,11,,,82,127
65418,note_on,6,0,0,,10,,,81,127
65512,note_off,94,0,0,,10,,,81,127
65512,note_off,0,0,0,,2,,,62,127
65512,note_off,0,0,0,,7,,,55,127
65518,note_on,6,0,0,,10,,,57,127
65518,note_on,0,0,0,,7,,,79,127
65612,note_off,94,0,0,,7,,,79,127
65618,note_on,6,0,0,,5,,,77,127
65712,note_off,94,0,0,,5,,,77,127
65712,note_off,0,0,0,,10,,,57,127
65718,note_on,6,0,0,,11,,,58,127
65718,note_on,0,0,0,,4,,,76,127
65812,note_off,94,0,0,,4,,,76,127
65818,note_on,6,0,0,,2,,,74,127
65912,note_off,94,0,0,,2,,,74,127
65912,note_off,0,0,0,,11,,,58,127
65918,note_on,6,0,0,,10,,,57,127
65918,note_on,0,0,0,,1,,,73,127
66012,note_off,94,0,0,,1,,,73,127
66018,note_on,6,0,0,,12,,,71,127
66112,note_off,94,0,0,,12,,,71,127
66112,note_off,0,0,0,,10,,,57,127
66118,note_on,6,0,0,,12,,,59,127
66118,note_on,0,0,0,,10,,,69,127
66212,note_off,94,0,0,,10,,,69,127
66218,note_on,6,0,0,,7,,,67,127
66312,note_off,94,0,0,,7,,,67,127
66312,note_off,0,0,0,,12,,,59,127
66318,note_on,6,0,0,,1,,,61,127
66318,note_on,0,0,0,,5,,,65,127
66412,note_off,94,0,0,,5,,,65,127
66418,note_on,6,0,0,,4,,,64,127
66512,note_off,94,0,0,,4,,,64,127
66512,note_off,0,0,0,,1,,,61,127
66518,note_on,6,0,0,,2,,,62,127
66518,note_on,0,0,0,,5,,,65,127
66612,note_off,94,0,0,,5,,,65,127
66618,note_on,6,0,0,,10,,,69,127
66712,note_off,94,0,0,,10,,,69,127
66712,note_off,0,0,0,,2,,,62,127
66718,note_on,6,0,0,,11,,,58,127
66718,note_on,0,0,0,,7,,,67,127
66812,note_off,94,0,0,,7,,,67,127
66818,note_on,6,0,0,,5,,,65,127
66912,note_off,94,0,0,,5,,,65,127
66912,note_off,0,0,0,,11,,,58,127
66918,note_on,6,0,0,,7,,,55,127
66918,note_on,0,0,0,,4,,,64,127
67012,note_off,94,0,0,,4,,,64,127
67018,note_on,6,0,0,,2,,,62,127
67112,note_off,94,0,0,,2,,,62,127
67112,note_off,0,0,0,,7,,,55,127
67118,note_on,6,0,0,,10,,,45,127
67118,note_on,0,0,0,,2,,,62,127
67179,note_off,61,0,0,,2,,,62,127
67185,note_on,6,0,0,,1,,,61,127
67246,note_off,61,0,0,,1,,,61,127
67252,note_on,6,0,0,,2,,,62,127
67313,note_off,61,0,0,,2,,,62,127
67319,note_on,6,0,0,,1,,,61,127
67380,note_off,61,0,0,,1,,,61,127
67386,note_on,6,0,0,,2,,,62,127
67447,note_off,61,0,0,,2,,,62,127
67453,note_on,6,0,0,,1,,,61,127
67714,note_off,261,0,0,,1,,,61,127
67720,note_on,6,0,0,,10,,,57,127
67814,note_off,94,0,0,,10,,,57,127
67820,note_on,6,0,0,,10,,,57,127
67914,note_off,94,0,0,,10,,,57,127
67920,note_on,6,0,0,,10,,,57,127
68014,note_off,94,0,0,,10,,,57,127
68020,note_on,6,0,0,,10,,,57,127
68114,note_off,94,0,0,,10,,,57,127
68114,note_off,0,0,0,,10,,,45,127
68120,note_on,6,0,0,,10,,,45,127
68120,note_on,0,0,0,,10,,,57,127
68214,note_off,94,0,0,,10,,,57,127
68220,note_on,6,0,0,,10,,,57,127
68314,note_off,94,0,0,,10,,,57,127
68314,note_off,0,0,0,,10,,,45,127
68320,note_on,6,0,0,,10,,,45,127
68320,note_on,0,0,0,,11,,,58,127
68414,note_off,94,0,0,,11,,,58,127
68420,note_on,6,0,0,,11,,,58,127
68514,note_off,94,0,0,,11,,,58,127
68520,note_on,6,0,0,,7,,,55,127
68520,note_on,0,0,0,,11,,,58,127
68614,note_off,94,0,0,,11,,,58,127
68620,note_on,6,0,0,,11,,,58,127
68714,note_off,94,0,0,,11,,,58,127
68714,note_off,0,0,0,,7,,,55,127
68720,note_on,6,0,0,,5,,,53,127
68720,note_on,0,0,0,,11,,,58,127
68814,note_off,94,0,0,,11,,,58,127
68820,note_on,6,0,0,,11,,,58,127
68914,note_off,94,0,0,,11,,,58,127
68914,note_off,0,0,0,,5,,,53,127
68919,note_off,5,0,0,,10,,,45,127
68920,note_on,1,0,0,,4,,,52,127
68920,note_on,0,0,0,,1,,,61,127
69014,note_off,94,0,0,,1,,,61,127
69020,note_on,6,0,0,,1,,,61,127
69114,note_off,94,0,0,,1,,,61,127
69120,note_on,6,0,0,,7,,,55,127
69120,note_on,0,0,0,,1,,,61,127
69214,note_off,94,0,0,,1,,,61,127
69220,note_on,6,0,0,,1,,,61,127
69314,note_off,94,0,0,,1,,,61,127
69319,note_off,5,0,0,,4,,,52,127
69320,note_on,1,0,0,,2,,,50,127
69320,note_on,0,0,0,,1,,,61,127
69414,note_off,94,0,0,,1,,,61,127
69420,note_on,6,0,0,,1,,,61,127
69514,note_off,94,0,0,,1,,,61,127
69514,note_off,0,0,0,,2,,,50,127
69520,note_on,6,0,0,,1,,,49,127
69520,note_on,0,0,0,,4,,,64,127
69614,note_off,94,0,0,,4,,,64,127
69620,note_on,6,0,0,,4,,,64,127
69714,note_off,94,0,0,,4,,,64,127
69719,note_off,5,0,0,,7,,,55,127
69720,note_on,1,0,0,,10,,,57,127
69720,note_on,0,0,0,,4,,,64,127
69814,note_off,94,0,0,,4,,,64,127
69820,note_on,6,0,0,,4,,,64,127
69914,note_off,94,0,0,,4,,,64,127
69919,note_off,5,0,0,,1,,,49,127
69920,note_on,1,0,0,,11,,,46,127
69920,note_on,0,0,0,,4,,,64,127
70014,note_off,94,0,0,,4,,,64,127
70020,note_on,6,0,0,,4,,,64,127
70114,note_off,94,0,0,,4,,,64,127
70114,note_off,0,0,0,,11,,,46,127
70120,note_on,6,0,0,,10,,,45,127
70120,note_on,0,0,0,,7,,,67,127
70214,note_off,94,0,0,,7,,,67,127
70220,note_on,6,0,0,,7,,,67,127
70314,note_off,94,0,0,,7,,,67,127
70314,note_off,0,0,0,,10,,,45,127
70320,note_on,6,0,0,,12,,,47,127
70320,note_on,0,0,0,,7,,,67,127
70414,note_off,94,0,0,,7,,,67,127
70420,note_on,6,0,0,,7,,,67,127
70514,note_off,94,0,0,,7,,,67,127
70514,note_off,0,0,0,,12,,,47,127
70520,note_on,6,0,0,,1,,,49,127
70520,note_on,0,0,0,,7,,,67,127
70614,note_off,94,0,0,,7,,,67,127
70620,note_on,6,0,0,,7,,,67,127
70714,note_off,94,0,0,,7,,,67,127
70714,note_off,0,0,0,,1,,,49,127
70720,note_off,6,0,0,,10,,,57,127
70720,note_on,0,0,0,,2,,,50,127
70720,note_on,0,0,0,,5,,,65,127
70720,note_on,0,0,0,,7,,,67,127
70814,note_off,94,0,0,,7,,,67,127
70814,note_off,0,0,0,,5,,,65,127
70820,note_on,6,0,0,,4,,,64,127
70914,note_off,94,0,0,,4,,,64,127
70920,note_on,6,0,0,,2,,,62,127
71014,note_off,94,0,0,,2,,,62,127
71020,note_on,6,0,0,,1,,,61,127
71114,note_off,94,0,0,,1,,,61,127
71120,note_on,6,0,0,,2,,,62,127
71314,note_off,194,0,0,,2,,,62,127
71320,note_on,6,0,0,,10,,,69,127
71414,note_off,94,0,0,,10,,,69,127
71420,note_on,6,0,0,,10,,,69,127
71514,note_off,94,0,0,,10,,,69,127
71519,note_off,5,0,0,,2,,,50,127
71520,note_on,1,0,0,,10,,,69,127
71614,note_off,94,0,0,,10,,,69,127
71620,note_on,6,0,0,,10,,,69,127
71714,note_off,94,0,0,,10,,,69,127
71720,note_on,6,0,0,,10,,,57,127
71720,note_on,0,0,0,,10,,,69,127
71814,note_off,94,0,0,,10,,,69,127
71820,note_on,6,0,0,,10,,,69,127
71914,note_off,94,0,0,,10,,,69,127
71914,note_off,0,0,0,,10,,,57,127
71920,note_on,6,0,0,,10,,,57,127
71920,note_on,0,0,0,,11,,,70,127
72014,note_off,94,0,0,,11,,,70,127
72020,note_on,6,0,0,,11,,,70,127
72114,note_off,94,0,0,,11,,,70,127
72120,note_on,6,0,0,,7,,,67,127
72120,note_on,0,0,0,,11,,,70,127
72214,note_off,94,0,0,,11,,,70,127
72220,note_on,6,0,0,,11,,,70,127
72314,note_off,94,0,0,,11,,,70,127
72314,note_off,0,0,0,,7,,,67,127
72320,note_on,6,0,0,,5,,,65,127
72320,note_on,0,0,0,,11,,,70,127
72414,note_off,94,0,0,,11,,,70,127
72420,note_on,6,0,0,,11,,,70,127
72514,note_off,94,0,0,,11,,,70,127
72514,note_off,0,0,0,,5,,,65,127
72519,note_off,5,0,0,,10,,,57,127
72520,note_on,1,0,0,,4,,,64,127
72520,note_on,0,0,0,,1,,,73,127
72614,note_off,94,0,0,,1,,,73,127
72620,note_on,6,0,0,,1,,,73,127
72714,note_off,94,0,0,,1,,,73,127
72720,note_on,6,0,0,,7,,,67,127
72720,note_on,0,0,0,,1,,,73,127
72814,note_off,94,0,0,,1,,,73,127
72820,note_on,6,0,0,,1,,,73,127
72914,note_off,94,0,0,,1,,,73,127
72919,note_off,5,0,0,,4,,,64,127
72920,note_on,1,0,0,,2,,,62,127
72920,note_on,0,0,0,,1,,,73,127
73014,note_off,94,0,0,,1,,,73,127
73020,note_on,6,0,0,,1,,,73,127
73114,note_off,94,0,0,,1,,,73,127
73114,note_off,0,0,0,,2,,,62,127
73120,note_on,6,0,0,,1,,,61,127
73120,note_on,0,0,0,,4,,,76,127
73214,note_off,94,0,0,,4,,,76,127
73220,note_on,6,0,0,,4,,,76,127
73314,note_off,94,0,0,,4,,,76,127
73319,note_off,5,0,0,,7,,,67,127
73320,note_on,1,0,0,,10,,,69,127
73320,note_on,0,0,0,,4,,,76,127
73414,note_off,94,0,0,,4,,,76,127
73420,note_on,6,0,0,,4,,,76,127
73514,note_off,94,0,0,,4,,,76,127
73519,note_off,5,0,0,,1,,,61,127
73520,note_on,1,0,0,,11,,,58,127
73520,note_on,0,0,0,,4,,,76,127
73614,note_off,94,0,0,,4,,,76,127
73620,note_on,6,0,0,,4,,,76,127
73714,note_off,94,0,0,,4,,,76,127
73714,note_off,0,0,0,,11,,,58,127
73720,note_on,6,0,0,,10,,,57,127
73720,note_on,0,0,0,,7,,,79,127
73814,note_off,94,0,0,,7,,,79,127
73820,note_on,6,0,0,,7,,,79,127
73914,note_off,94,0,0,,7,,,79,127
73914,note_off,0,0,0,,10,,,57,127
73920,note_on,6,0,0,,12,,,59,127
73920,note_on,0,0,0,,7,,,79,127
74014,note_off,94,0,0,,7,,,79,127
74020,note_on,6,0,0,,7,,,79,127
74114,note_off,94,0,0,,7,,,79,127
74114,note_off,0,0,0,,12,,,59,127
74120,note_on,6,0,0,,1,,,61,127
74120,note_on,0,0,0,,7,,,79,127
74214,note_off,94,0,0,,7,,,79,127
74220,note_on,6,0,0,,7,,,79,127
74314,note_off,94,0,0,,7,,,79,127
74314,note_off,0,0,0,,1,,,61,127
74320,note_off,6,0,0,,10,,,69,127
74320,note_on,0,0,0,,2,,,50,127
74320,note_on,0,0,0,,5,,,77,127
74320,note_on,0,0,0,,7,,,79,127
74414,note_off,94,0,0,,7,,,79,127
74414,note_off,0,0,0,,5,,,77,127
74420,note_on,6,0,0,,4,,,76,127
74514,note_off,94,0,0,,4,,,76,127
74520,note_on,6,0,0,,2,,,74,127
74614,note_off,94,0,0,,2,,,74,127
74620,note_on,6,0,0,,1,,,73,127
74714,note_off,94,0,0,,1,,,73,127
74720,note_on,6,0,0,,2,,,74,127
75120,note_off,400,0,0,,2,,,74,127
75120,note_off,0,0,0,,2,,,50,127
75522,note_on,402,0,0,,11,,,46,127
75522,note_on,0,0,0,,11,,,34,127
75622,note_on,100,0,0,,11,,,58,127
75716,note_off,94,0,0,,11,,,34,127
75722,note_on,6,0,0,,11,,,34,127
75722,note_on,0,0,0,,2,,,62,127
75768,note_off,46,0,0,,11,,,58,127
75822,note_on,54,0,0,,11,,,58,127
75868,note_off,46,0,0,,2,,,62,127
75916,note_off,48,0,0,,11,,,34,127
75922,note_on,6,0,0,,11,,,34,127
75922,note_on,0,0,0,,5,,,65,127
75968,note_off,46,0,0,,11,,,58,127
76022,note_on,54,0,0,,2,,,62,127
76068,note_off,46,0,0,,5,,,65,127
76116,note_off,48,0,0,,11,,,34,127
76121,note_off,5,0,0,,11,,,46,127
76122,note_on,1,0,0,,11,,,34,127
76122,note_on,0,0,0,,11,,,46,127
76122,note_on,0,0,0,,8,,,68,127
76168,note_off,46,0,0,,2,,,62,127
76222,note_on,54,0,0,,11,,,58,127
76268,note_off,46,0,0,,8,,,68,127
76316,note_off,48,0,0,,11,,,34,127
76322,note_on,6,0,0,,11,,,34,127
76322,note_on,0,0,0,,5,,,65,127
76368,note_off,46,0,0,,11,,,58,127
76422,note_on,54,0,0,,11,,,58,127
76468,note_off,46,0,0,,5,,,65,127
76516,note_off,48,0,0,,11,,,34,127
76522,note_on,6,0,0,,11,,,34,127
76522,note_on,0,0,0,,2,,,62,127
76568,note_off,46,0,0,,11,,,58,127
76622,note_on,54,0,0,,11,,,58,127
76668,note_off,46,0,0,,2,,,62,127
76716,note_off,48,0,0,,11,,,34,127
76721,note_off,5,0,0,,11,,,46,127
76722,note_on,1,0,0,,11,,,34,127
76722,note_on,0,0,0,,11,,,46,127
76722,note_on,0,0,0,,8,,,68,127
76768,note_off,46,0,0,,11,,,58,127
76822,note_on,54,0,0,,11,,,58,127
76868,note_off,46,0,0,,8,,,68,127
76916,note_off,48,0,0,,11,,,34,127
76922,note_on,6,0,0,,11,,,34,127
76922,note_on,0,0,0,,7,,,67,127
76968,note_off,46,0,0,,11,,,58,127
77022,note_on,54,0,0,,11,,,58,127
77068,note_off,46,0,0,,7,,,67,127
77116,note_off,48,0,0,,11,,,34,127
77122,note_on,6,0,0,,11,,,34,127
77122,note_on,0,0,0,,8,,,68,127
77168,note_off,46,0,0,,11,,,58,127
77222,note_on,54,0,0,,11,,,58,127
77268,note_off,46,0,0,,8,,,68,127
77316,note_off,48,0,0,,11,,,34,127
77321,note_off,5,0,0,,11,,,46,127
77322,note_on,1,0,0,,1,,,37,127
77322,note_on,0,0,0,,11,,,70,127
77322,note_on,0,0,0,,8,,,68,127
77368,note_off,46,0,0,,11,,,58,127
77422,note_on,54,0,0,,11,,,58,127
77468,note_off,46,0,0,,8,,,68,127
77516,note_off,48,0,0,,1,,,37,127
77522,note_on,6,0,0,,1,,,37,127
77522,note_on,0,0,0,,7,,,67,127
77568,note_off,46,0,0,,11,,,58,127
77622,note_on,54,0,0,,11,,,58,127
77668,note_off,46,0,0,,7,,,67,127
77716,note_off,48,0,0,,1,,,37,127
77722,note_on,6,0,0,,1,,,37,127
77722,note_on,0,0,0,,5,,,65,127
77768,note_off,46,0,0,,11,,,58,127
77822,note_on,54,0,0,,11,,,58,127
77868,note_off,46,0,0,,5,,,65,127
77916,note_off,48,0,0,,1,,,37,127
77922,note_on,6,0,0,,0,,,48,127
77922,note_on,0,0,0,,0,,,36,127
77922,note_on,0,0,0,,4,,,64,127
77968,note_off,46,0,0,,11,,,58,127
78022,note_on,54,0,0,,0,,,60,127
78068,note_off,46,0,0,,4,,,64,127
78116,note_off,48,0,0,,0,,,36,127
78121,note_off,5,0,0,,11,,,70,127
78122,note_on,1,0,0,,0,,,36,127
78122,note_on,0,0,0,,4,,,64,127
78168,note_off,46,0,0,,0,,,60,127
78222,note_on,54,0,0,,0,,,60,127
78268,note_off,46,0,0,,4,,,64,127
78316,note_off,48,0,0,,0,,,36,127
78322,note_on,6,0,0,,0,,,36,127
78322,note_on,0,0,0,,7,,,67,127
78368,note_off,46,0,0,,0,,,60,127
78422,note_on,54,0,0,,0,,,60,127
78468,note_off,46,0,0,,7,,,67,127
78516,note_off,48,0,0,,0,,,36,127
78521,note_off,5,0,0,,0,,,48,127
78522,note_on,1,0,0,,0,,,48,127
78522,note_on,0,0,0,,0,,,36,127
78522,note_on,0,0,0,,11,,,70,127
78568,note_off,46,0,0,,0,,,60,127
78622,note_on,54,0,0,,0,,,60,127
78668,note_off,46,0,0,,11,,,70,127
78716,note_off,48,0,0,,0,,,36,127
78722,note_on,6,0,0,,0,,,36,127
78722,note_on,0,0,0,,7,,,67,127
78768,note_off,46,0,0,,0,,,60,127
78822,note_on,54,0,0,,0,,,60,127
78868,note_off,46,0,0,,7,,,67,127
78916,note_off,48,0,0,,0,,,36,127
78922,note_on,6,0,0,,0,,,36,127
78922,note_on,0,0,0,,4,,,64,127
78968,note_off,46,0,0,,0,,,60,127
79022,note_on,54,0,0,,0,,,60,127
79068,note_off,46,0,0,,4,,,64,127
79116,note_off,48,0,0,,0,,,36,127
79121,note_off,5,0,0,,0,,,48,127
79122,note_on,1,0,0,,0,,,48,127
79122,note_on,0,0,0,,0,,,36,127
79122,note_on,0,0,0,,11,,,70,127
79168,note_off,46,0,0,,0,,,60,127
79222,note_on,54,0,0,,0,,,60,127
79268,note_off,46,0,0,,11,,,70,127
79316,note_off,48,0,0,,0,,,36,127
79322,note_on,6,0,0,,0,,,36,127
79322,note_on,0,0,0,,10,,,69,127
79368,note_off,46,0,0,,0,,,60,127
79422,note_on,54,0,0,,0,,,60,127
79468,note_off,46,0,0,,10,,,69,127
79516,note_off,48,0,0,,0,,,36,127
79522,note_on,6,0,0,,0,,,36,127
79522,note_on,0,0,0,,11,,,70,127
79568,note_off,46,0,0,,0,,,60,127
79622,note_on,54,0,0,,0,,,60,127
79668,note_off,46,0,0,,11,,,70,127
79716,note_off,48,0,0,,0,,,36,127
79721,note_off,5,0,0,,0,,,48,127
79722,note_on,1,0,0,,3,,,39,127
79722,note_on,0,0,0,,0,,,72,127
79722,note_on,0,0,0,,11,,,70,127
79768,note_off,46,0,0,,0,,,60,127
79822,note_on,54,0,0,,0,,,60,127
79868,note_off,46,0,0,,11,,,70,127
79916,note_off,48,0,0,,3,,,39,127
79922,note_on,6,0,0,,3,,,39,127
79922,note_on,0,0,0,,10,,,69,127
79968,note_off,46,0,0,,0,,,60,127
80022,note_on,54,0,0,,0,,,60,127
80068,note_off,46,0,0,,10,,,69,127
80116,note_off,48,0,0,,3,,,39,127
80122,note_on,6,0,0,,3,,,39,127
80122,note_on,0,0,0,,7,,,67,127
80168,note_off,46,0,0,,0,,,60,127
80222,note_on,54,0,0,,0,,,60,127
80268,note_off,46,0,0,,7,,,67,127
80316,note_off,48,0,0,,3,,,39,127
80322,note_on,6,0,0,,2,,,50,127
80322,note_on,0,0,0,,2,,,38,127
80322,note_on,0,0,0,,6,,,66,127
80368,note_off,46,0,0,,0,,,60,127
80422,note_on,54,0,0,,2,,,62,127
80468,note_off,46,0,0,,6,,,66,127
80516,note_off,48,0,0,,2,,,38,127
80521,note_off,5,0,0,,0,,,72,127
80522,note_on,1,0,0,,2,,,38,127
80522,note_on,0,0,0,,6,,,66,127
80568,note_off,46,0,0,,2,,,62,127
80622,note_on,54,0,0,,2,,,62,127
80668,note_off,46,0,0,,6,,,66,127
80716,note_off,48,0,0,,2,,,38,127
80722,note_on,6,0,0,,2,,,38,127
80722,note_on,0,0,0,,10,,,69,127
80768,note_off,46,0,0,,2,,,62,127
80822,note_on,54,0,0,,2,,,62,127
80868,note_off,46,0,0,,10,,,69,127
80916,note_off,48,0,0,,2,,,38,127
80921,note_off,5,0,0,,2,,,50,127
80922,note_on,1,0,0,,2,,,50,127
80922,note_on,0,0,0,,2,,,38,127
80922,note_on,0,0,0,,0,,,72,127
80968,note_off,46,0,0,,2,,,62,127
81022,note_on,54,0,0,,2,,,62,127
81068,note_off,46,0,0,,0,,,72,127
81116,note_off,48,0,0,,2,,,38,127
81122,note_on,6,0,0,,2,,,38,127
81122,note_on,0,0,0,,10,,,69,127
81168,note_off,46,0,0,,2,,,62,127
81222,note_on,54,0,0,,2,,,62,127
81268,note_off,46,0,0,,10,,,69,127
81316,note_off,48,0,0,,2,,,38,127
81322,note_on,6,0,0,,2,,,38,127
81322,note_on,0,0,0,,6,,,66,127
81368,note_off,46,0,0,,2,,,62,127
81422,note_on,54,0,0,,2,,,62,127
81468,note_off,46,0,0,,6,,,66,127
81516,note_off,48,0,0,,2,,,38,127
81521,note_off,5,0,0,,2,,,50,127
81522,note_on,1,0,0,,2,,,50,127
81522,note_on,0,0,0,,2,,,38,127
81522,note_on,0,0,0,,0,,,72,127
81568,note_off,46,0,0,,2,,,62,127
81622,note_on,54,0,0,,2,,,62,127
81668,note_off,46,0,0,,0,,,72,127
81716,note_off,48,0,0,,2,,,38,127
81722,note_on,6,0,0,,2,,,38,127
81722,note_on,0,0,0,,12,,,71,127
81768,note_off,46,0,0,,2,,,62,127
81822,note_on,54,0,0,,2,,,62,127
81868,note_off,46,0,0,,12,,,71,127
81916,note_off,48,0,0,,2,,,38,127
81922,note_on,6,0,0,,2,,,38,127
81922,note_on,0,0,0,,0,,,72,127
81968,note_off,46,0,0,,2,,,62,127
82022,note_on,54,0,0,,2,,,62,127
82068,note_off,46,0,0,,0,,,72,127
82116,note_off,48,0,0,,2,,,38,127
82121,note_off,5,0,0,,2,,,50,127
82122,note_on,1,0,0,,5,,,41,127
82122,note_on,0,0,0,,2,,,74,127
82122,note_on,0,0,0,,0,,,72,127
82168,note_off,46,0,0,,2,,,62,127
82222,note_on,54,0,0,,2,,,62,127
82268,note_off,46,0,0,,0,,,72,127
82316,note_off,48,0,0,,5,,,41,127
82322,note_on,6,0,0,,5,,,41,127
82322,note_on,0,0,0,,12,,,71,127
82368,note_off,46,0,0,,2,,,62,127
82422,note_on,54,0,0,,2,,,62,127
82468,note_off,46,0,0,,12,,,71,127
82516,note_off,48,0,0,,5,,,41,127
82522,note_on,6,0,0,,5,,,41,127
82522,note_on,0,0,0,,10,,,69,127
82568,note_off,46,0,0,,2,,,62,127
82622,note_on,54,0,0,,2,,,62,127
82668,note_off,46,0,0,,10,,,69,127
82716,note_off,48,0,0,,5,,,41,127
82721,note_off,5,0,0,,2,,,74,127
82722,note_on,1,0,0,,4,,,40,127
82722,note_on,0,0,0,,8,,,68,127
82768,note_off,46,0,0,,2,,,62,127
82822,note_on,54,0,0,,2,,,62,127
82868,note_off,46,0,0,,8,,,68,127
82916,note_off,48,0,0,,4,,,40,127
82922,note_on,6,0,0,,4,,,40,127
82922,note_on,0,0,0,,12,,,71,127
82968,note_off,46,0,0,,2,,,62,127
83022,note_on,54,0,0,,5,,,65,127
83068,note_off,46,0,0,,12,,,71,127
83116,note_off,48,0,0,,4,,,40,127
83122,note_on,6,0,0,,4,,,40,127
83122,note_on,0,0,0,,2,,,74,127
83168,note_off,46,0,0,,5,,,65,127
83222,note_on,54,0,0,,8,,,68,127
83268,note_off,46,0,0,,2,,,74,127
83316,note_off,48,0,0,,4,,,40,127
83322,note_on,6,0,0,,2,,,62,127
83322,note_on,0,0,0,,12,,,59,127
83322,note_on,0,0,0,,4,,,52,127
83322,note_on,0,0,0,,5,,,77,127
83368,note_off,46,0,0,,8,,,68,127
83422,note_on,54,0,0,,8,,,68,127
83468,note_off,46,0,0,,5,,,77,127
83516,note_off,48,0,0,,4,,,52,127
83516,note_off,0,0,0,,12,,,59,127
83516,note_off,0,0,0,,2,,,62,127
83522,note_on,6,0,0,,2,,,62,127
83522,note_on,0,0,0,,4,,,52,127
83522,note_on,0,0,0,,12,,,59,127
83522,note_on,0,0,0,,4,,,76,127
83568,note_off,46,0,0,,8,,,68,127
83622,note_on,54,0,0,,8,,,68,127
83668,note_off,46,0,0,,4,,,76,127
83716,note_off,48,0,0,,12,,,59,127
83716,note_off,0,0,0,,4,,,52,127
83716,note_off,0,0,0,,2,,,62,127
83722,note_on,6,0,0,,12,,,59,127
83722,note_on,0,0,0,,2,,,62,127
83722,note_on,0,0,0,,4,,,52,127
83722,note_on,0,0,0,,2,,,74,127
83768,note_off,46,0,0,,8,,,68,127
83822,note_on,54,0,0,,8,,,68,127
83868,note_off,46,0,0,,2,,,74,127
83916,note_off,48,0,0,,4,,,52,127
83916,note_off,0,0,0,,2,,,62,127
83916,note_off,0,0,0,,12,,,59,127
83922,note_on,6,0,0,,4,,,64,127
83922,note_on,0,0,0,,7,,,67,127
83922,note_on,0,0,0,,10,,,57,127
83922,note_on,0,0,0,,1,,,73,127
83968,note_off,46,0,0,,8,,,68,127
84022,note_on,54,0,0,,10,,,69,127
84068,note_off,46,0,0,,1,,,73,127
84116,note_off,48,0,0,,10,,,57,127
84116,note_off,0,0,0,,7,,,67,127
84116,note_off,0,0,0,,4,,,64,127
84122,note_on,6,0,0,,7,,,67,127
84122,note_on,0,0,0,,4,,,64,127
84122,note_on,0,0,0,,10,,,57,127
84122,note_on,0,0,0,,4,,,76,127
84168,note_off,46,0,0,,10,,,69,127
84222,note_on,54,0,0,,11,,,70,127
84268,note_off,46,0,0,,4,,,76,127
84316,note_off,48,0,0,,10,,,57,127
84316,note_off,0,0,0,,4,,,64,127
84316,note_off,0,0,0,,7,,,67,127
84322,note_on,6,0,0,,7,,,67,127
84322,note_on,0,0,0,,10,,,57,127
84322,note_on,0,0,0,,4,,,64,127
84322,note_on,0,0,0,,7,,,79,127
84368,note_off,46,0,0,,11,,,70,127
84422,note_on,54,0,0,,1,,,73,127
84468,note_off,46,0,0,,7,,,79,127
84516,note_off,48,0,0,,4,,,64,127
84516,note_off,0,0,0,,10,,,57,127
84516,note_off,0,0,0,,7,,,67,127
84522,note_on,6,0,0,,7,,,67,127
84522,note_on,0,0,0,,10,,,57,127
84522,note_on,0,0,0,,4,,,64,127
84522,note_on,0,0,0,,11,,,82,127
84568,note_off,46,0,0,,1,,,73,127
84622,note_on,54,0,0,,1,,,73,127
84668,note_off,46,0,0,,11,,,82,127
84716,note_off,48,0,0,,4,,,64,127
84716,note_off,0,0,0,,10,,,57,127
84716,note_off,0,0,0,,7,,,67,127
84722,note_on,6,0,0,,4,,,64,127
84722,note_on,0,0,0,,7,,,67,127
84722,note_on,0,0,0,,10,,,57,127
84722,note_on,0,0,0,,10,,,81,127
84768,note_off,46,0,0,,1,,,73,127
84822,note_on,54,0,0,,1,,,73,127
84868,note_off,46,0,0,,10,,,81,127
84916,note_off,48,0,0,,10,,,57,127
84916,note_off,0,0,0,,7,,,67,127
84916,note_off,0,0,0,,4,,,64,127
84922,note_on,6,0,0,,7,,,67,127
84922,note_on,0,0,0,,10,,,57,127
84922,note_on,0,0,0,,4,,,64,127
84922,note_on,0,0,0,,7,,,79,127
84968,note_off,46,0,0,,1,,,73,127
85022,note_on,54,0,0,,1,,,73,127
85068,note_off,46,0,0,,7,,,79,127
85116,note_off,48,0,0,,4,,,64,127
85116,note_off,0,0,0,,10,,,57,127
85116,note_off,0,0,0,,7,,,67,127
85122,note_on,6,0,0,,2,,,62,127
85122,note_on,0,0,0,,5,,,65,127
85122,note_on,0,0,0,,5,,,77,127
85168,note_off,46,0,0,,1,,,73,127
85216,note_off,48,0,0,,5,,,77,127
85222,note_on,6,0,0,,2,,,74,127
85316,note_off,94,0,0,,2,,,74,127
85316,note_off,0,0,0,,5,,,65,127
85316,note_off,0,0,0,,2,,,62,127
85322,note_on,6,0,0,,4,,,64,127
85322,note_on,0,0,0,,7,,,67,127
85322,note_on,0,0,0,,2,,,86,127
85416,note_off,94,0,0,,2,,,86,127
85422,note_on,6,0,0,,0,,,84,127
85516,note_off,94,0,0,,0,,,84,127
85516,note_off,0,0,0,,7,,,67,127
85516,note_off,0,0,0,,4,,,64,127
85522,note_on,6,0,0,,10,,,69,127
85522,note_on,0,0,0,,5,,,65,127
85522,note_on,0,0,0,,11,,,82,127
85616,note_off,94,0,0,,11,,,82,127
85622,note_on,6,0,0,,10,,,81,127
85716,note_off,94,0,0,,10,,,81,127
85716,note_off,0,0,0,,5,,,65,127
85716,note_off,0,0,0,,10,,,69,127
85722,note_on,6,0,0,,7,,,67,127
85722,note_on,0,0,0,,7,,,55,127
85722,note_on,0,0,0,,11,,,82,127
85816,note_off,94,0,0,,11,,,82,127
85822,note_on,6,0,0,,10,,,81,127
85916,note_off,94,0,0,,10,,,81,127
85916,note_off,0,0,0,,7,,,55,127
85916,note_off,0,0,0,,7,,,67,127
85922,note_on,6,0,0,,10,,,57,127
85922,note_on,0,0,0,,7,,,67,127
85922,note_on,0,0,0,,7,,,79,127
86016,note_off,94,0,0,,7,,,79,127
86022,note_on,6,0,0,,5,,,77,127
86116,note_off,94,0,0,,5,,,77,127
86116,note_off,0,0,0,,7,,,67,127
86116,note_off,0,0,0,,10,,,57,127
86122,note_on,6,0,0,,11,,,58,127
86122,note_on,0,0,0,,7,,,67,127
86122,note_on,0,0,0,,4,,,76,127
86216,note_off,94,0,0,,4,,,76,127
86222,note_on,6,0,0,,2,,,74,127
86316,note_off,94,0,0,,2,,,74,127
86316,note_off,0,0,0,,7,,,67,127
86316,note_off,0,0,0,,11,,,58,127
86322,note_on,6,0,0,,10,,,57,127
86322,note_on,0,0,0,,1,,,73,127
86416,note_off,94,0,0,,1,,,73,127
86422,note_on,6,0,0,,2,,,74,127
86516,note_off,94,0,0,,2,,,74,127
86516,note_off,0,0,0,,10,,,57,127
86522,note_on,6,0,0,,11,,,58,127
86522,note_on,0,0,0,,4,,,76,127
86583,note_off,61,0,0,,4,,,76,127
86589,note_on,6,0,0,,2,,,74,127
86650,note_off,61,0,0,,2,,,74,127
86656,note_on,6,0,0,,4,,,76,127
86717,note_off,61,0,0,,4,,,76,127
86717,note_off,0,0,0,,11,,,58,127
86723,note_on,6,0,0,,11,,,58,127
86723,note_on,0,0,0,,2,,,74,127
86784,note_off,61,0,0,,2,,,74,127
86790,note_on,6,0,0,,1,,,73,127
86851,note_off,61,0,0,,1,,,73,127
86857,note_on,6,0,0,,2,,,74,127
86918,note_off,61,0,0,,2,,,74,127
86918,note_off,0,0,0,,11,,,58,127
86924,note_on,6,0,0,,10,,,57,127
86924,note_on,0,0,0,,4,,,76,127
87024,note_on,100,0,0,,10,,,69,127
87070,note_off,46,0,0,,4,,,76,127
87118,note_off,48,0,0,,10,,,57,127
87124,note_on,6,0,0,,5,,,77,127
87124,note_on,0,0,0,,2,,,74,127
87170,note_off,46,0,0,,10,,,69,127
87224,note_on,54,0,0,,10,,,69,127
87270,note_off,46,0,0,,2,,,74,127
87318,note_off,48,0,0,,5,,,77,127
87324,note_on,6,0,0,,7,,,79,127
87324,note_on,0,0,0,,4,,,76,127
87370,note_off,46,0,0,,10,,,69,127
87424,note_on,54,0,0,,10,,,69,127
87470,note_off,46,0,0,,4,,,76,127
87518,note_off,48,0,0,,7,,,79,127
87524,note_on,6,0,0,,10,,,81,127
87524,note_on,0,0,0,,1,,,73,127
87570,note_off,46,0,0,,10,,,69,127
87624,note_on,54,0,0,,10,,,69,127
87670,note_off,46,0,0,,1,,,73,127
87718,note_off,48,0,0,,10,,,81,127
87724,note_on,6,0,0,,5,,,53,127
87724,note_on,0,0,0,,2,,,74,127
87770,note_off,46,0,0,,10,,,69,127
87824,note_on,54,0,0,,10,,,69,127
87870,note_off,46,0,0,,2,,,74,127
87918,note_off,48,0,0,,5,,,53,127
87924,note_on,6,0,0,,7,,,55,127
87924,note_on,0,0,0,,12,,,71,127
87970,note_off,46,0,0,,10,,,69,127
88024,note_on,54,0,0,,10,,,69,127
88070,note_off,46,0,0,,12,,,71,127
88118,note_off,48,0,0,,7,,,55,127
88124,note_on,6,0,0,,10,,,57,127
88124,note_on,0,0,0,,1,,,73,127
88170,note_off,46,0,0,,10,,,69,127
88224,note_on,54,0,0,,10,,,69,127
88270,note_off,46,0,0,,1,,,73,127
88318,note_off,48,0,0,,10,,,57,127
88324,note_on,6,0,0,,5,,,77,127
88324,note_on,0,0,0,,2,,,74,127
88370,note_off,46,0,0,,10,,,69,127
88424,note_on,54,0,0,,10,,,69,127
88470,note_off,46,0,0,,2,,,74,127
88518,note_off,48,0,0,,5,,,77,127
88524,note_on,6,0,0,,7,,,79,127
88524,note_on,0,0,0,,4,,,76,127
88570,note_off,46,0,0,,10,,,69,127
88624,note_on,54,0,0,,10,,,69,127
88670,note_off,46,0,0,,4,,,76,127
88718,note_off,48,0,0,,7,,,79,127
88724,note_on,6,0,0,,10,,,81,127
88724,note_on,0,0,0,,1,,,73,127
88770,note_off,46,0,0,,10,,,69,127
88824,note_on,54,0,0,,10,,,69,127
88870,note_off,46,0,0,,1,,,73,127
88918,note_off,48,0,0,,10,,,81,127
88924,note_on,6,0,0,,5,,,53,127
88924,note_on,0,0,0,,2,,,74,127
88970,note_off,46,0,0,,10,,,69,127
89024,note_on,54,0,0,,10,,,69,127
89070,note_off,46,0,0,,2,,,74,127
89118,note_off,48,0,0,,5,,,53,127
89124,note_on,6,0,0,,7,,,55,127
89124,note_on,0,0,0,,12,,,71,127
89170,note_off,46,0,0,,10,,,69,127
89224,note_on,54,0,0,,10,,,69,127
89270,note_off,46,0,0,,12,,,71,127
89318,note_off,48,0,0,,7,,,55,127
89324,note_on,6,0,0,,10,,,57,127
89324,note_on,0,0,0,,1,,,73,127
89370,note_off,46,0,0,,10,,,69,127
89424,note_on,54,0,0,,10,,,69,127
89470,note_off,46,0,0,,1,,,73,127
89518,note_off,48,0,0,,10,,,57,127
89524,note_on,6,0,0,,5,,,77,127
89524,note_on,0,0,0,,2,,,62,127
89570,note_off,46,0,0,,10,,,69,127
89624,note_on,54,0,0,,10,,,69,127
89670,note_off,46,0,0,,2,,,62,127
89718,note_off,48,0,0,,5,,,77,127
89724,note_on,6,0,0,,7,,,79,127
89724,note_on,0,0,0,,2,,,62,127
89770,note_off,46,0,0,,10,,,69,127
89824,note_on,54,0,0,,10,,,69,127
89870,note_off,46,0,0,,2,,,62,127
89918,note_off,48,0,0,,7,,,79,127
89924,note_on,6,0,0,,10,,,81,127
89924,note_on,0,0,0,,1,,,61,127
89970,note_off,46,0,0,,10,,,69,127
90024,note_on,54,0,0,,10,,,69,127
90070,note_off,46,0,0,,1,,,61,127
90118,note_off,48,0,0,,10,,,81,127
90124,note_on,6,0,0,,2,,,50,127
90124,note_on,0,0,0,,2,,,62,127
90170,note_off,46,0,0,,10,,,69,127
90224,note_on,54,0,0,,10,,,69,127
90270,note_off,46,0,0,,2,,,62,127
90318,note_off,48,0,0,,2,,,50,127
90324,note_on,6,0,0,,11,,,46,127
90324,note_on,0,0,0,,11,,,58,127
90370,note_off,46,0,0,,10,,,69,127
90424,note_on,54,0,0,,7,,,67,127
90470,note_off,46,0,0,,11,,,58,127
90518,note_off,48,0,0,,11,,,46,127
90524,note_on,6,0,0,,10,,,45,127
90524,note_on,0,0,0,,10,,,57,127
90570,note_off,46,0,0,,7,,,67,127
90624,note_on,54,0,0,,10,,,69,127
90670,note_off,46,0,0,,10,,,57,127
90718,note_off,48,0,0,,10,,,45,127
90724,note_on,6,0,0,,5,,,77,127
90724,note_on,0,0,0,,2,,,62,127
90770,note_off,46,0,0,,10,,,69,127
90824,note_on,54,0,0,,10,,,69,127
90870,note_off,46,0,0,,2,,,62,127
90918,note_off,48,0,0,,5,,,77,127
90924,note_on,6,0,0,,7,,,79,127
90924,note_on,0,0,0,,2,,,62,127
90970,note_off,46,0,0,,10,,,69,127
91024,note_on,54,0,0,,10,,,69,127
91070,note_off,46,0,0,,2,,,62,127
91118,note_off,48,0,0,,7,,,79,127
91124,note_on,6,0,0,,10,,,81,127
91124,note_on,0,0,0,,1,,,61,127
91170,note_off,46,0,0,,10,,,69,127
91224,note_on,54,0,0,,10,,,69,127
91270,note_off,46,0,0,,1,,,61,127
91318,note_off,48,0,0,,10,,,81,127
91324,note_on,6,0,0,,2,,,50,127
91324,note_on,0,0,0,,2,,,62,127
91370,note_off,46,0,0,,10,,,69,127
91424,note_on,54,0,0,,10,,,69,127
91470,note_off,46,0,0,,2,,,62,127
91518,note_off,48,0,0,,2,,,50,127
91524,note_on,6,0,0,,11,,,46,127
91524,note_on,0,0,0,,11,,,58,127
91570,note_off,46,0,0,,10,,,69,127
91624,note_on,54,0,0,,7,,,67,127
91670,note_off,46,0,0,,11,,,58,127
91718,note_off,48,0,0,,11,,,46,127
91724,note_on,6,0,0,,10,,,45,127
91724,note_on,0,0,0,,1,,,61,127
91770,note_off,46,0,0,,7,,,67,127
91824,note_on,54,0,0,,10,,,69,127
91870,note_off,46,0,0,,1,,,61,127
91918,note_off,48,0,0,,10,,,45,127
91924,note_on,6,0,0,,2,,,38,127
91924,note_on,0,0,0,,2,,,62,127
91970,note_off,46,0,0,,10,,,69,127
92024,note_on,54,0,0,,10,,,69,127
92070,note_off,46,0,0,,2,,,62,127
92118,note_off,48,0,0,,2,,,38,127
92124,note_on,6,0,0,,11,,,34,127
92124,note_on,0,0,0,,11,,,58,127
92170,note_off,46,0,0,,10,,,69,127
92224,note_on,54,0,0,,7,,,67,127
92270,note_off,46,0,0,,11,,,58,127
92318,note_off,48,0,0,,11,,,34,127
92324,note_on,6,0,0,,10,,,33,127
92324,note_on,0,0,0,,10,,,57,127
92370,note_off,46,0,0,,7,,,67,127
92721,note_off,351,0,0,,10,,,57,127
92721,note_off,0,0,0,,10,,,33,127
92725,note_on,4,0,0,,10,,,69,127
92725,note_on,0,0,0,,10,,,81,127
92819,note_off,94,0,0,,10,,,81,127
92825,note_on,6,0,0,,7,,,79,127
92919,note_off,94,0,0,,7,,,79,127
92925,note_on,6,0,0,,5,,,77,127
92925,note_on,0,0,0,,10,,,57,127
93019,note_off,94,0,0,,5,,,77,127
93025,note_on,6,0,0,,4,,,76,127
93119,note_off,94,0,0,,4,,,76,127
93119,note_off,0,0,0,,10,,,57,127
93121,note_off,2,0,0,,10,,,69,127
93125,note_on,4,0,0,,2,,,86,127
93125,note_on,0,0,0,,2,,,62,127
93219,note_off,94,0,0,,2,,,86,127
93225,note_on,6,0,0,,0,,,84,127
93319,note_off,94,0,0,,0,,,84,127
93319,note_off,0,0,0,,2,,,62,127
93325,note_on,6,0,0,,11,,,82,127
93325,note_on,0,0,0,,4,,,64,127
93419,note_off,94,0,0,,11,,,82,127
93425,note_on,6,0,0,,10,,,81,127
93519,note_off,94,0,0,,10,,,81,127
93519,note_off,0,0,0,,4,,,64,127
93525,note_on,6,0,0,,7,,,79,127
93525,note_on,0,0,0,,5,,,65,127
93619,note_off,94,0,0,,7,,,79,127
93625,note_on,6,0,0,,5,,,77,127
93719,note_off,94,0,0,,5,,,77,127
93719,note_off,0,0,0,,5,,,65,127
93725,note_on,6,0,0,,4,,,76,127
93725,note_on,0,0,0,,7,,,67,127
93786,note_off,61,0,0,,4,,,76,127
93792,note_on,6,0,0,,5,,,77,127
93853,note_off,61,0,0,,5,,,77,127
93859,note_on,6,0,0,,7,,,79,127
93920,note_off,61,0,0,,7,,,79,127
93920,note_off,0,0,0,,7,,,67,127
93926,note_on,6,0,0,,5,,,77,127
93926,note_on,0,0,0,,10,,,69,127
94020,note_off,94,0,0,,5,,,77,127
94026,note_on,6,0,0,,4,,,76,127
94120,note_off,94,0,0,,4,,,76,127
94120,note_off,0,0,0,,10,,,69,127
94126,note_on,6,0,0,,2,,,74,127
94126,note_on,0,0,0,,10,,,57,127
94220,note_off,94,0,0,,2,,,74,127
94226,note_on,6,0,0,,1,,,73,127
94320,note_off,94,0,0,,1,,,73,127
94320,note_off,0,0,0,,10,,,57,127
94326,note_on,6,0,0,,2,,,74,127
94326,note_on,0,0,0,,2,,,50,127
94420,note_off,94,0,0,,2,,,74,127
94426,note_on,6,0,0,,0,,,72,127
94520,note_off,94,0,0,,0,,,72,127
94520,note_off,0,0,0,,2,,,50,127
94526,note_on,6,0,0,,11,,,70,127
94526,note_on,0,0,0,,4,,,52,127
94620,note_off,94,0,0,,11,,,70,127
94626,note_on,6,0,0,,10,,,69,127
94720,note_off,94,0,0,,10,,,69,127
94720,note_off,0,0,0,,4,,,52,127
94726,note_on,6,0,0,,7,,,67,127
94726,note_on,0,0,0,,5,,,53,127
94820,note_off,94,0,0,,7,,,67,127
94826,note_on,6,0,0,,5,,,65,127
94920,note_off,94,0,0,,5,,,65,127
94920,note_off,0,0,0,,5,,,53,127
94926,note_on,6,0,0,,4,,,64,127
94926,note_on,0,0,0,,7,,,55,127
94987,note_off,61,0,0,,4,,,64,127
94993,note_on,6,0,0,,5,,,65,127
95054,note_off,61,0,0,,5,,,65,127
95060,note_on,6,0,0,,7,,,67,127
95121,note_off,61,0,0,,7,,,67,127
95121,note_off,0,0,0,,7,,,55,127
95127,note_on,6,0,0,,5,,,65,127
95127,note_on,0,0,0,,10,,,57,127
95221,note_off,94,0,0,,5,,,65,127
95227,note_on,6,0,0,,4,,,64,127
95321,note_off,94,0,0,,4,,,64,127
95321,note_off,0,0,0,,10,,,57,127
95327,note_on,6,0,0,,2,,,62,127
95327,note_on,0,0,0,,10,,,45,127
95421,note_off,94,0,0,,2,,,62,127
95427,note_on,6,0,0,,1,,,61,127
95521,note_off,94,0,0,,1,,,61,127
95521,note_off,0,0,0,,10,,,45,127
95527,note_on,6,0,0,,2,,,62,127
95527,note_on,0,0,0,,2,,,38,127
95621,note_off,94,0,0,,2,,,62,127
95627,note_on,6,0,0,,0,,,60,127
95721,note_off,94,0,0,,0,,,60,127
95721,note_off,0,0,0,,2,,,38,127
95727,note_on,6,0,0,,11,,,58,127
95727,note_on,0,0,0,,4,,,40,127
95821,note_off,94,0,0,,11,,,58,127
95827,note_on,6,0,0,,10,,,57,127
95921,note_off,94,0,0,,10,,,57,127
95921,note_off,0,0,0,,4,,,40,127
95927,note_on,6,0,0,,7,,,55,127
95927,note_on,0,0,0,,5,,,41,127
96021,note_off,94,0,0,,7,,,55,127
96027,note_on,6,0,0,,5,,,53,127
96121,note_off,94,0,0,,5,,,53,127
96121,note_off,0,0,0,,5,,,41,127
96127,note_on,6,0,0,,4,,,52,127
96127,note_on,0,0,0,,7,,,43,127
96188,note_off,61,0,0,,4,,,52,127
96194,note_on,6,0,0,,5,,,53,127
96255,note_off,61,0,0,,5,,,53,127
96261,note_on,6,0,0,,7,,,55,127
96322,note_off,61,0,0,,7,,,55,127
96322,note_off,0,0,0,,7,,,43,127
96328,note_on,6,0,0,,5,,,53,127
96328,note_on,0,0,0,,10,,,45,127
96422,note_off,94,0,0,,5,,,53,127
96428,note_on,6,0,0,,4,,,52,127
96522,note_off,94,0,0,,4,,,52,127
96522,note_off,0,0,0,,10,,,45,127
96528,note_on,6,0,0,,2,,,50,127
96528,note_on,0,0,0,,10,,,45,127
96622,note_off,94,0,0,,2,,,50,127
96628,note_on,6,0,0,,1,,,49,127
96722,note_off,94,0,0,,1,,,49,127
96722,note_off,0,0,0,,10,,,45,127
96728,note_on,6,0,0,,2,,,50,127
96728,note_on,0,0,0,,2,,,38,127
98531,note_off,1803,0,0,,2,,,38,127
98531,note_off,0,0,0,,2,,,50,127
101376,end_of_track,2845,1,0,,,,,,
