tick,type,time,meta,track,program,channel,pitch,tempo,note,velocity
0,copyright,0,1,0,,,,,,
0,program_change,0,0,0,6,0,,,,
0,pitchwheel,0,0,0,,0,0,,,
0,program_change,0,0,0,6,1,,,,
0,pitchwheel,0,0,0,,1,-590,,,
0,program_change,0,0,0,6,2,,,,
0,pitchwheel,0,0,0,,2,-272,,,
0,program_change,0,0,0,6,3,,,,
0,pitchwheel,0,0,0,,3,-353,,,
0,program_change,0,0,0,6,4,,,,
0,pitchwheel,0,0,0,,4,-560,,,
0,program_change,0,0,0,6,5,,,,
0,pitchwheel,0,0,0,,5,-80,,,
0,program_change,0,0,0,6,6,,,,
0,pitchwheel,0,0,0,,6,-625,,,
0,program_change,0,0,0,6,7,,,,
0,pitchwheel,0,0,0,,7,-130,,,
0,program_change,0,0,0,6,8,,,,
0,pitchwheel,0,0,0,,8,-512,,,
0,program_change,0,0,0,6,10,,,,
0,pitchwheel,0,0,0,,10,-464,,,
0,program_change,0,0,0,6,11,,,,
0,pitchwheel,0,0,0,,11,-208,,,
0,program_change,0,0,0,6,12,,,,
0,pitchwheel,0,0,0,,12,-553,,,
0,set_tempo,0,1,0,,,,500000,,
48,note_on,48,0,0,,6,,,42,127
217,note_on,169,0,0,,6,,,78,127
385,note_off,168,0,0,,6,,,78,127
387,note_on,2,0,0,,1,,,73,127
555,note_off,168,0,0,,1,,,73,127
557,note_on,2,0,0,,10,,,69,127
725,note_off,168,0,0,,10,,,69,127
727,note_on,2,0,0,,6,,,66,127
895,note_off,168,0,0,,6,,,66,127
897,note_on,2,0,0,,1,,,61,127
1065,note_off,168,0,0,,1,,,61,127
1065,note_off,0,0,0,,6,,,42,127
1067,note_on,2,0,0,,10,,,57,127
1235,note_off,168,0,0,,10,,,57,127
1237,note_on,2,0,0,,6,,,54,127
1405,note_off,168,0,0,,6,,,54,127
1407,note_on,2,0,0,,1,,,49,127
1575,note_off,168,0,0,,1,,,49,127
1577,note_on,2,0,0,,6,,,42,127
1914,note_off,337,0,0,,6,,,42,127
1916,note_on,2,0,0,,1,,,73,127
2084,note_off,168,0,0,,1,,,73,127
2086,note_on,2,0,0,,12,,,47,127
2086,note_on,0,0,0,,2,,,74,127
2086,note_on,0,0,0,,4,,,76,127
2254,note_off,168,0,0,,4,,,76,127
2254,note_off,0,0,0,,2,,,74,127
2256,note_on,2,0,0,,1,,,73,127
2424,note_off,168,0,0,,1,,,73,127
2426,note_on,2,0,0,,12,,,71,127
2594,note_off,168,0,0,,12,,,71,127
2594,note_off,0,0,0,,12,,,47,127
2596,note_on,2,0,0,,1,,,49,127
2596,note_on,0,0,0,,1,,,73,127
2596,note_on,0,0,0,,12,,,71,127
2764,note_off,168,0,0,,12,,,71,127
2764,note_off,0,0,0,,1,,,73,127
2766,note_on,2,0,0,,10,,,69,127
2934,note_off,168,0,0,,10,,,69,127
2936,note_on,2,0,0,,8,,,68,127
3104,note_off,168,0,0,,8,,,68,127
3104,note_off,0,0,0,,1,,,49,127
3106,note_on,2,0,0,,6,,,42,127
3106,note_on,0,0,0,,8,,,68,127
3443,note_off,337,0,0,,8,,,68,127
3445,note_on,2,0,0,,10,,,69,127
3613,note_off,168,0,0,,10,,,69,127
3613,note_off,0,0,0,,6,,,42,127
3615,note_on,2,0,0,,6,,,54,127
3615,note_on,0,0,0,,10,,,69,127
3615,note_on,0,0,0,,12,,,71,127
3783,note_off,168,0,0,,12,,,71,127
3783,note_off,0,0,0,,10,,,69,127
3785,note_on,2,0,0,,8,,,68,127
3953,note_off,168,0,0,,8,,,68,127
3955,note_on,2,0,0,,10,,,69,127
4123,note_off,168,0,0,,10,,,69,127
4123,note_off,0,0,0,,6,,,54,127
4125,note_on,2,0,0,,12,,,47,127
4125,note_on,0,0,0,,12,,,71,127
4293,note_off,168,0,0,,12,,,71,127
4295,note_on,2,0,0,,10,,,69,127
4463,note_off,168,0,0,,10,,,69,127
4465,note_on,2,0,0,,8,,,68,127
4633,note_off,168,0,0,,8,,,68,127
4633,note_off,0,0,0,,12,,,47,127
4635,note_on,2,0,0,,1,,,49,127
4635,note_on,0,0,0,,6,,,66,127
4803,note_off,168,0,0,,6,,,66,127
4805,note_on,2,0,0,,8,,,68,127
4973,note_off,168,0,0,,8,,,68,127
4975,note_on,2,0,0,,5,,,65,127
5143,note_off,168,0,0,,5,,,65,127
5143,note_off,0,0,0,,1,,,49,127
5145,note_on,2,0,0,,6,,,42,127
5145,note_on,0,0,0,,5,,,65,127
5482,note_off,337,0,0,,5,,,65,127
5484,note_on,2,0,0,,6,,,66,127
5652,note_off,168,0,0,,6,,,42,127
5654,note_on,2,0,0,,6,,,54,127
5908,note_off,254,0,0,,6,,,66,127
5993,note_on,85,0,0,,1,,,73,127
6161,note_off,168,0,0,,1,,,73,127
6161,note_off,0,0,0,,6,,,54,127
6163,note_on,2,0,0,,12,,,47,127
6163,note_on,0,0,0,,4,,,76,127
6163,note_on,0,0,0,,2,,,74,127
6331,note_off,168,0,0,,2,,,74,127
6331,note_off,0,0,0,,4,,,76,127
6333,note_on,2,0,0,,1,,,73,127
6501,note_off,168,0,0,,1,,,73,127
6503,note_on,2,0,0,,12,,,71,127
6671,note_off,168,0,0,,12,,,71,127
6671,note_off,0,0,0,,12,,,47,127
6673,note_on,2,0,0,,1,,,49,127
6673,note_on,0,0,0,,12,,,71,127
6842,note_on,169,0,0,,12,,,83,127
7010,note_off,168,0,0,,12,,,83,127
7012,note_on,2,0,0,,8,,,80,127
7180,note_off,168,0,0,,8,,,80,127
7180,note_off,0,0,0,,1,,,49,127
7181,note_off,1,0,0,,12,,,71,127
7182,note_on,1,0,0,,6,,,54,127
7182,note_on,0,0,0,,8,,,80,127
7182,note_on,0,0,0,,12,,,71,127
7519,note_off,337,0,0,,12,,,71,127
7519,note_off,0,0,0,,8,,,80,127
7521,note_on,2,0,0,,10,,,81,127
7521,note_on,0,0,0,,1,,,73,127
7689,note_off,168,0,0,,1,,,73,127
7689,note_off,0,0,0,,10,,,81,127
7689,note_off,0,0,0,,6,,,54,127
7691,note_on,2,0,0,,6,,,66,127
7691,note_on,0,0,0,,10,,,81,127
7691,note_on,0,0,0,,1,,,73,127
7859,note_off,168,0,0,,1,,,73,127
7859,note_off,0,0,0,,10,,,81,127
7861,note_on,2,0,0,,8,,,80,127
7861,note_on,0,0,0,,12,,,71,127
8029,note_off,168,0,0,,12,,,71,127
8029,note_off,0,0,0,,8,,,80,127
8031,note_on,2,0,0,,10,,,81,127
8031,note_on,0,0,0,,1,,,73,127
8199,note_off,168,0,0,,1,,,73,127
8199,note_off,0,0,0,,10,,,81,127
8199,note_off,0,0,0,,6,,,66,127
8201,note_on,2,0,0,,12,,,59,127
8201,note_on,0,0,0,,2,,,74,127
8201,note_on,0,0,0,,12,,,83,127
8369,note_off,168,0,0,,12,,,83,127
8371,note_on,2,0,0,,10,,,81,127
8539,note_off,168,0,0,,10,,,81,127
8541,note_on,2,0,0,,8,,,80,127
8709,note_off,168,0,0,,8,,,80,127
8709,note_off,0,0,0,,12,,,59,127
8710,note_off,1,0,0,,2,,,74,127
8711,note_on,1,0,0,,1,,,61,127
8711,note_on,0,0,0,,1,,,73,127
8711,note_on,0,0,0,,6,,,78,127
8879,note_off,168,0,0,,6,,,78,127
8881,note_on,2,0,0,,8,,,80,127
9049,note_off,168,0,0,,8,,,80,127
9051,note_on,2,0,0,,5,,,77,127
9219,note_off,168,0,0,,5,,,77,127
9219,note_off,0,0,0,,1,,,61,127
9220,note_off,1,0,0,,1,,,73,127
9221,note_on,1,0,0,,6,,,54,127
9221,note_on,0,0,0,,5,,,77,127
9558,note_off,337,0,0,,5,,,77,127
9560,note_on,2,0,0,,6,,,78,127
9728,note_off,168,0,0,,6,,,54,127
9730,note_on,2,0,0,,6,,,42,127
9896,note_off,166,0,0,,6,,,78,127
9984,note_on,88,0,0,,5,,,77,127
10067,note_off,83,0,0,,5,,,77,127
10069,note_on,2,0,0,,6,,,78,127
10152,note_off,83,0,0,,6,,,78,127
10154,note_on,2,0,0,,8,,,80,127
10237,note_off,83,0,0,,8,,,80,127
10238,note_off,1,0,0,,6,,,42,127
10239,note_on,1,0,0,,10,,,81,127
10407,note_off,168,0,0,,10,,,81,127
10409,note_on,2,0,0,,6,,,78,127
10577,note_off,168,0,0,,6,,,78,127
10579,note_on,2,0,0,,1,,,73,127
10747,note_off,168,0,0,,1,,,73,127
10749,note_on,2,0,0,,6,,,54,127
10749,note_on,0,0,0,,10,,,69,127
10917,note_off,168,0,0,,10,,,69,127
10919,note_on,2,0,0,,6,,,66,127
11087,note_off,168,0,0,,6,,,66,127
11089,note_on,2,0,0,,10,,,81,127
11257,note_off,168,0,0,,10,,,81,127
11257,note_off,0,0,0,,6,,,54,127
11259,note_on,2,0,0,,4,,,52,127
11259,note_on,0,0,0,,10,,,81,127
11427,note_off,168,0,0,,10,,,81,127
11429,note_on,2,0,0,,8,,,80,127
11597,note_off,168,0,0,,8,,,80,127
11599,note_on,2,0,0,,6,,,78,127
11767,note_off,168,0,0,,6,,,78,127
11767,note_off,0,0,0,,4,,,52,127
11769,note_on,2,0,0,,4,,,64,127
11769,note_on,0,0,0,,10,,,81,127
11769,note_on,0,0,0,,8,,,80,127
11937,note_off,168,0,0,,8,,,80,127
11937,note_off,0,0,0,,10,,,81,127
11939,note_on,2,0,0,,6,,,78,127
12107,note_off,168,0,0,,6,,,78,127
12109,note_on,2,0,0,,8,,,80,127
12277,note_off,168,0,0,,8,,,80,127
12278,note_off,1,0,0,,4,,,64,127
12279,note_on,1,0,0,,6,,,78,127
12447,note_off,168,0,0,,6,,,78,127
12449,note_on,2,0,0,,2,,,74,127
12617,note_off,168,0,0,,2,,,74,127
12619,note_on,2,0,0,,10,,,69,127
12787,note_off,168,0,0,,10,,,69,127
12789,note_on,2,0,0,,2,,,50,127
12789,note_on,0,0,0,,6,,,66,127
12957,note_off,168,0,0,,6,,,66,127
12959,note_on,2,0,0,,2,,,62,127
13127,note_off,168,0,0,,2,,,62,127
13129,note_on,2,0,0,,6,,,78,127
13297,note_off,168,0,0,,6,,,78,127
13297,note_off,0,0,0,,2,,,50,127
13299,note_on,2,0,0,,1,,,49,127
13299,note_on,0,0,0,,6,,,78,127
13467,note_off,168,0,0,,6,,,78,127
13469,note_on,2,0,0,,4,,,76,127
13637,note_off,168,0,0,,4,,,76,127
13639,note_on,2,0,0,,3,,,75,127
13807,note_off,168,0,0,,3,,,75,127
13807,note_off,0,0,0,,1,,,49,127
13809,note_on,2,0,0,,1,,,61,127
13809,note_on,0,0,0,,4,,,76,127
13809,note_on,0,0,0,,6,,,78,127
13977,note_off,168,0,0,,6,,,78,127
13977,note_off,0,0,0,,4,,,76,127
13979,note_on,2,0,0,,3,,,75,127
14147,note_off,168,0,0,,3,,,75,127
14149,note_on,2,0,0,,4,,,76,127
14317,note_off,168,0,0,,4,,,76,127
14317,note_off,0,0,0,,1,,,61,127
14319,note_on,2,0,0,,12,,,47,127
14319,note_on,0,0,0,,2,,,74,127
14487,note_off,168,0,0,,2,,,74,127
14489,note_on,2,0,0,,12,,,71,127
14657,note_off,168,0,0,,12,,,71,127
14659,note_on,2,0,0,,8,,,68,127
14827,note_off,168,0,0,,8,,,68,127
14827,note_off,0,0,0,,12,,,47,127
14829,note_on,2,0,0,,4,,,52,127
14829,note_on,0,0,0,,2,,,62,127
14997,note_off,168,0,0,,2,,,62,127
14999,note_on,2,0,0,,8,,,68,127
15167,note_off,168,0,0,,8,,,68,127
15169,note_on,2,0,0,,12,,,71,127
15337,note_off,168,0,0,,12,,,71,127
15337,note_off,0,0,0,,4,,,52,127
15339,note_on,2,0,0,,10,,,45,127
15339,note_on,0,0,0,,2,,,74,127
15339,note_on,0,0,0,,4,,,76,127
15507,note_off,168,0,0,,4,,,76,127
15507,note_off,0,0,0,,2,,,74,127
15509,note_on,2,0,0,,1,,,73,127
15677,note_off,168,0,0,,1,,,73,127
15679,note_on,2,0,0,,12,,,71,127
15847,note_off,168,0,0,,12,,,71,127
15847,note_off,0,0,0,,10,,,45,127
15849,note_on,2,0,0,,10,,,57,127
15849,note_on,0,0,0,,1,,,73,127
16017,note_off,168,0,0,,1,,,73,127
16019,note_on,2,0,0,,2,,,74,127
16187,note_off,168,0,0,,2,,,74,127
16189,note_on,2,0,0,,4,,,76,127
16357,note_off,168,0,0,,4,,,76,127
16357,note_off,0,0,0,,10,,,57,127
16359,note_on,2,0,0,,2,,,50,127
16359,note_on,0,0,0,,6,,,78,127
16527,note_off,168,0,0,,6,,,78,127
16529,note_on,2,0,0,,8,,,80,127
16697,note_off,168,0,0,,8,,,80,127
16699,note_on,2,0,0,,10,,,81,127
16867,note_off,168,0,0,,10,,,81,127
16867,note_off,0,0,0,,2,,,50,127
16869,note_on,2,0,0,,6,,,54,127
16869,note_on,0,0,0,,1,,,73,127
17037,note_off,168,0,0,,1,,,73,127
17039,note_on,2,0,0,,12,,,71,127
17207,note_off,168,0,0,,12,,,71,127
17209,note_on,2,0,0,,10,,,69,127
17377,note_off,168,0,0,,10,,,69,127
17377,note_off,0,0,0,,6,,,54,127
17379,note_on,2,0,0,,4,,,52,127
17379,note_on,0,0,0,,8,,,68,127
17547,note_off,168,0,0,,8,,,68,127
17549,note_on,2,0,0,,10,,,69,127
17717,note_off,168,0,0,,10,,,69,127
17719,note_on,2,0,0,,12,,,71,127
17887,note_off,168,0,0,,12,,,71,127
17887,note_off,0,0,0,,4,,,52,127
17889,note_on,2,0,0,,1,,,49,127
17889,note_on,0,0,0,,10,,,57,127
17889,note_on,0,0,0,,1,,,73,127
18057,note_off,168,0,0,,1,,,73,127
18059,note_on,2,0,0,,2,,,74,127
18227,note_off,168,0,0,,2,,,74,127
18229,note_on,2,0,0,,4,,,76,127
18397,note_off,168,0,0,,4,,,76,127
18397,note_off,0,0,0,,1,,,49,127
18399,note_on,2,0,0,,2,,,50,127
18399,note_on,0,0,0,,6,,,78,127
18567,note_off,168,0,0,,6,,,78,127
18569,note_on,2,0,0,,8,,,80,127
18737,note_off,168,0,0,,8,,,80,127
18739,note_on,2,0,0,,10,,,81,127
18907,note_off,168,0,0,,10,,,81,127
18907,note_off,0,0,0,,2,,,50,127
18909,note_on,2,0,0,,6,,,54,127
18909,note_on,0,0,0,,1,,,73,127
19077,note_off,168,0,0,,1,,,73,127
19079,note_on,2,0,0,,12,,,71,127
19247,note_off,168,0,0,,12,,,71,127
19249,note_on,2,0,0,,10,,,69,127
19411,note_off,162,0,0,,10,,,57,127
19416,note_off,5,0,0,,10,,,69,127
19416,note_off,0,0,0,,6,,,54,127
19418,note_on,2,0,0,,4,,,52,127
19418,note_on,0,0,0,,12,,,59,127
19418,note_on,0,0,0,,8,,,68,127
19586,note_off,168,0,0,,8,,,68,127
19588,note_on,2,0,0,,10,,,69,127
19756,note_off,168,0,0,,10,,,69,127
19758,note_on,2,0,0,,12,,,71,127
19926,note_off,168,0,0,,12,,,71,127
19926,note_off,0,0,0,,12,,,59,127
19926,note_off,0,0,0,,4,,,52,127
19928,note_on,2,0,0,,1,,,49,127
19928,note_on,0,0,0,,10,,,57,127
19928,note_on,0,0,0,,1,,,73,127
20096,note_off,168,0,0,,1,,,73,127
20098,note_on,2,0,0,,2,,,74,127
20266,note_off,168,0,0,,2,,,74,127
20268,note_on,2,0,0,,4,,,76,127
20436,note_off,168,0,0,,4,,,76,127
20436,note_off,0,0,0,,1,,,49,127
20438,note_on,2,0,0,,2,,,50,127
20438,note_on,0,0,0,,6,,,78,127
20606,note_off,168,0,0,,6,,,78,127
20608,note_on,2,0,0,,8,,,80,127
20776,note_off,168,0,0,,8,,,80,127
20778,note_on,2,0,0,,10,,,81,127
20946,note_off,168,0,0,,10,,,81,127
20946,note_off,0,0,0,,2,,,50,127
20948,note_on,2,0,0,,6,,,54,127
20948,note_on,0,0,0,,1,,,73,127
21116,note_off,168,0,0,,1,,,73,127
21118,note_on,2,0,0,,12,,,71,127
21286,note_off,168,0,0,,12,,,71,127
21288,note_on,2,0,0,,10,,,69,127
21450,note_off,162,0,0,,10,,,57,127
21455,note_off,5,0,0,,10,,,69,127
21455,note_off,0,0,0,,6,,,54,127
21457,note_on,2,0,0,,4,,,52,127
21457,note_on,0,0,0,,8,,,68,127
21625,note_off,168,0,0,,8,,,68,127
21627,note_on,2,0,0,,6,,,66,127
21795,note_off,168,0,0,,6,,,66,127
21797,note_on,2,0,0,,4,,,64,127
21967,note_on,170,0,0,,4,,,40,127
22098,note_off,131,0,0,,4,,,64,127
22137,note_on,39,0,0,,4,,,64,127
22306,note_on,169,0,0,,4,,,76,127
22472,note_off,166,0,0,,4,,,64,127
22474,note_off,2,0,0,,4,,,76,127
22474,note_off,0,0,0,,4,,,40,127
22476,note_on,2,0,0,,4,,,40,127
22476,note_on,0,0,0,,5,,,65,127
22476,note_on,0,0,0,,4,,,76,127
22644,note_off,168,0,0,,4,,,76,127
22646,note_on,2,0,0,,0,,,72,127
22814,note_off,168,0,0,,0,,,72,127
22816,note_on,2,0,0,,2,,,74,127
22984,note_off,168,0,0,,2,,,74,127
22984,note_off,0,0,0,,4,,,40,127
22985,note_off,1,0,0,,5,,,65,127
22986,note_on,1,0,0,,4,,,40,127
22986,note_on,0,0,0,,4,,,64,127
22986,note_on,0,0,0,,2,,,74,127
23154,note_off,168,0,0,,2,,,74,127
23156,note_on,2,0,0,,12,,,71,127
23324,note_off,168,0,0,,12,,,71,127
23326,note_on,2,0,0,,0,,,72,127
23494,note_off,168,0,0,,0,,,72,127
23494,note_off,0,0,0,,4,,,40,127
23495,note_off,1,0,0,,4,,,64,127
23496,note_on,1,0,0,,4,,,40,127
23496,note_on,0,0,0,,0,,,72,127
23496,note_on,0,0,0,,2,,,62,127
23664,note_off,168,0,0,,0,,,72,127
23666,note_on,2,0,0,,10,,,69,127
23834,note_off,168,0,0,,10,,,69,127
23836,note_on,2,0,0,,0,,,72,127
24004,note_off,168,0,0,,0,,,72,127
24006,note_on,2,0,0,,0,,,72,127
24062,note_off,56,0,0,,0,,,72,127
24063,note_on,1,0,0,,12,,,71,127
24119,note_off,56,0,0,,12,,,71,127
24120,note_on,1,0,0,,0,,,72,127
24176,note_off,56,0,0,,0,,,72,127
24177,note_on,1,0,0,,12,,,71,127
24345,note_off,168,0,0,,12,,,71,127
24347,note_off,2,0,0,,2,,,62,127
24347,note_off,0,0,0,,4,,,40,127
24347,note_on,0,0,0,,5,,,65,127
24347,note_on,0,0,0,,2,,,74,127
24457,note_off,110,0,0,,4,,,52,127
24515,note_off,58,0,0,,2,,,74,127
24515,note_off,0,0,0,,5,,,65,127
24517,note_on,2,0,0,,4,,,40,127
24517,note_on,0,0,0,,2,,,74,127
24517,note_on,0,0,0,,4,,,64,127
24685,note_off,168,0,0,,2,,,74,127
24687,note_on,2,0,0,,12,,,71,127
24855,note_off,168,0,0,,12,,,71,127
24857,note_on,2,0,0,,0,,,72,127
25025,note_off,168,0,0,,0,,,72,127
25025,note_off,0,0,0,,4,,,40,127
25026,note_off,1,0,0,,4,,,64,127
25027,note_on,1,0,0,,4,,,40,127
25027,note_on,0,0,0,,0,,,72,127
25027,note_on,0,0,0,,2,,,62,127
25195,note_off,168,0,0,,0,,,72,127
25197,note_on,2,0,0,,10,,,69,127
25365,note_off,168,0,0,,10,,,69,127
25367,note_on,2,0,0,,12,,,71,127
25535,note_off,168,0,0,,12,,,71,127
25535,note_off,0,0,0,,4,,,40,127
25536,note_off,1,0,0,,2,,,62,127
25537,note_on,1,0,0,,4,,,40,127
25537,note_on,0,0,0,,12,,,71,127
25537,note_on,0,0,0,,0,,,60,127
25705,note_off,168,0,0,,12,,,71,127
25707,note_on,2,0,0,,8,,,68,127
25875,note_off,168,0,0,,8,,,68,127
25877,note_on,2,0,0,,12,,,71,127
26045,note_off,168,0,0,,12,,,71,127
26047,note_on,2,0,0,,12,,,71,127
26103,note_off,56,0,0,,12,,,71,127
26104,note_on,1,0,0,,10,,,69,127
26160,note_off,56,0,0,,10,,,69,127
26161,note_on,1,0,0,,12,,,71,127
26217,note_off,56,0,0,,12,,,71,127
26218,note_on,1,0,0,,10,,,69,127
26386,note_off,168,0,0,,10,,,69,127
26388,note_off,2,0,0,,0,,,60,127
26388,note_off,0,0,0,,4,,,40,127
26388,note_on,0,0,0,,0,,,72,127
26388,note_on,0,0,0,,4,,,64,127
26556,note_off,168,0,0,,4,,,64,127
26556,note_off,0,0,0,,0,,,72,127
26558,note_on,2,0,0,,4,,,40,127
26558,note_on,0,0,0,,2,,,62,127
26558,note_on,0,0,0,,0,,,72,127
26726,note_off,168,0,0,,0,,,72,127
26728,note_on,2,0,0,,10,,,69,127
26896,note_off,168,0,0,,10,,,69,127
26898,note_on,2,0,0,,12,,,71,127
27066,note_off,168,0,0,,12,,,71,127
27066,note_off,0,0,0,,4,,,40,127
27067,note_off,1,0,0,,2,,,62,127
27068,note_on,1,0,0,,4,,,40,127
27068,note_on,0,0,0,,12,,,71,127
27068,note_on,0,0,0,,0,,,60,127
27236,note_off,168,0,0,,12,,,71,127
27238,note_on,2,0,0,,8,,,68,127
27406,note_off,168,0,0,,8,,,68,127
27408,note_on,2,0,0,,10,,,69,127
27576,note_off,168,0,0,,10,,,69,127
27576,note_off,0,0,0,,4,,,40,127
27577,note_off,1,0,0,,0,,,60,127
27578,note_on,1,0,0,,4,,,40,127
27578,note_on,0,0,0,,12,,,59,127
27578,note_on,0,0,0,,10,,,69,127
27746,note_off,168,0,0,,10,,,69,127
27748,note_on,2,0,0,,6,,,66,127
27916,note_off,168,0,0,,6,,,66,127
27918,note_on,2,0,0,,10,,,69,127
28086,note_off,168,0,0,,10,,,69,127
28087,note_off,1,0,0,,12,,,59,127
28088,note_on,1,0,0,,8,,,68,127
28257,note_off,169,0,0,,4,,,40,127
28427,note_on,170,0,0,,4,,,64,127
28595,note_off,168,0,0,,4,,,64,127
28596,note_off,1,0,0,,8,,,68,127
28597,note_on,1,0,0,,2,,,62,127
28597,note_on,0,0,0,,5,,,65,127
28765,note_off,168,0,0,,5,,,65,127
28767,note_on,2,0,0,,4,,,64,127
28935,note_off,168,0,0,,4,,,64,127
28937,note_on,2,0,0,,5,,,65,127
29105,note_off,168,0,0,,5,,,65,127
29105,note_off,0,0,0,,2,,,62,127
29107,note_on,2,0,0,,0,,,60,127
29107,note_on,0,0,0,,4,,,64,127
29275,note_off,168,0,0,,4,,,64,127
29277,note_on,2,0,0,,2,,,62,127
29445,note_off,168,0,0,,2,,,62,127
29447,note_on,2,0,0,,4,,,64,127
29615,note_off,168,0,0,,4,,,64,127
29615,note_off,0,0,0,,0,,,60,127
29617,note_on,2,0,0,,12,,,59,127
29617,note_on,0,0,0,,2,,,62,127
29786,note_on,169,0,0,,5,,,77,127
29954,note_off,168,0,0,,5,,,77,127
29956,note_on,2,0,0,,2,,,74,127
30124,note_off,168,0,0,,2,,,74,127
30126,note_on,2,0,0,,0,,,72,127
30182,note_off,56,0,0,,0,,,72,127
30183,note_on,1,0,0,,12,,,71,127
30239,note_off,56,0,0,,12,,,71,127
30240,note_on,1,0,0,,0,,,72,127
30296,note_off,56,0,0,,0,,,72,127
30297,note_on,1,0,0,,12,,,71,127
30301,note_off,4,0,0,,2,,,62,127
30417,note_off,116,0,0,,12,,,59,127
30466,note_on,49,0,0,,2,,,62,127
30466,note_on,0,0,0,,5,,,65,127
30544,note_off,78,0,0,,12,,,71,127
30634,note_off,90,0,0,,5,,,65,127
30634,note_off,0,0,0,,2,,,62,127
30636,note_on,2,0,0,,0,,,60,127
30636,note_on,0,0,0,,4,,,64,127
30804,note_off,168,0,0,,4,,,64,127
30804,note_off,0,0,0,,0,,,60,127
30806,note_on,2,0,0,,2,,,62,127
30806,note_on,0,0,0,,12,,,59,127
30974,note_off,168,0,0,,12,,,59,127
30974,note_off,0,0,0,,2,,,62,127
30976,note_on,2,0,0,,0,,,60,127
30976,note_on,0,0,0,,4,,,64,127
31144,note_off,168,0,0,,4,,,64,127
31144,note_off,0,0,0,,0,,,60,127
31146,note_on,2,0,0,,12,,,59,127
31146,note_on,0,0,0,,2,,,62,127
31314,note_off,168,0,0,,2,,,62,127
31314,note_off,0,0,0,,12,,,59,127
31316,note_on,2,0,0,,10,,,57,127
31316,note_on,0,0,0,,0,,,60,127
31484,note_off,168,0,0,,0,,,60,127
31484,note_off,0,0,0,,10,,,57,127
31486,note_on,2,0,0,,12,,,59,127
31486,note_on,0,0,0,,2,,,62,127
31654,note_off,168,0,0,,2,,,62,127
31654,note_off,0,0,0,,12,,,59,127
31656,note_on,2,0,0,,10,,,57,127
31656,note_on,0,0,0,,0,,,60,127
31825,note_on,169,0,0,,4,,,76,127
31993,note_off,168,0,0,,4,,,76,127
31995,note_on,2,0,0,,0,,,72,127
32163,note_off,168,0,0,,0,,,72,127
32165,note_on,2,0,0,,12,,,71,127
32221,note_off,56,0,0,,12,,,71,127
32222,note_on,1,0,0,,10,,,69,127
32278,note_off,56,0,0,,10,,,69,127
32279,note_on,1,0,0,,12,,,71,127
32335,note_off,56,0,0,,12,,,71,127
32336,note_on,1,0,0,,10,,,69,127
32456,note_off,120,0,0,,10,,,57,127
32505,note_off,49,0,0,,0,,,60,127
32505,note_on,0,0,0,,0,,,60,127
32505,note_on,0,0,0,,4,,,64,127
32671,note_off,166,0,0,,10,,,69,127
32673,note_off,2,0,0,,4,,,64,127
32673,note_off,0,0,0,,0,,,60,127
32675,note_on,2,0,0,,12,,,59,127
32675,note_on,0,0,0,,2,,,62,127
32843,note_off,168,0,0,,2,,,62,127
32843,note_off,0,0,0,,12,,,59,127
32845,note_on,2,0,0,,10,,,57,127
32845,note_on,0,0,0,,0,,,60,127
33013,note_off,168,0,0,,0,,,60,127
33013,note_off,0,0,0,,10,,,57,127
33015,note_on,2,0,0,,12,,,59,127
33015,note_on,0,0,0,,2,,,62,127
33183,note_off,168,0,0,,2,,,62,127
33183,note_off,0,0,0,,12,,,59,127
33185,note_on,2,0,0,,0,,,60,127
33185,note_on,0,0,0,,10,,,57,127
33353,note_off,168,0,0,,10,,,57,127
33353,note_off,0,0,0,,0,,,60,127
33355,note_on,2,0,0,,12,,,59,127
33355,note_on,0,0,0,,8,,,56,127
33523,note_off,168,0,0,,8,,,56,127
33523,note_off,0,0,0,,12,,,59,127
33525,note_on,2,0,0,,10,,,57,127
33525,note_on,0,0,0,,0,,,60,127
33693,note_off,168,0,0,,0,,,60,127
33693,note_off,0,0,0,,10,,,57,127
33695,note_on,2,0,0,,12,,,59,127
33695,note_on,0,0,0,,8,,,56,127
33863,note_off,168,0,0,,8,,,56,127
33865,note_on,2,0,0,,4,,,52,127
33865,note_on,0,0,0,,4,,,76,127
34031,note_off,166,0,0,,12,,,59,127
34033,note_off,2,0,0,,4,,,76,127
34035,note_on,2,0,0,,2,,,74,127
34201,note_off,166,0,0,,4,,,52,127
34203,note_off,2,0,0,,2,,,74,127
34205,note_on,2,0,0,,1,,,73,127
34373,note_off,168,0,0,,1,,,73,127
34375,note_on,2,0,0,,12,,,71,127
34543,note_off,168,0,0,,12,,,71,127
34545,note_on,2,0,0,,10,,,57,127
34545,note_on,0,0,0,,10,,,69,127
34545,note_on,0,0,0,,4,,,64,127
34713,note_off,168,0,0,,4,,,64,127
34713,note_off,0,0,0,,10,,,69,127
34713,note_off,0,0,0,,10,,,57,127
34715,note_on,2,0,0,,8,,,56,127
34715,note_on,0,0,0,,12,,,71,127
34715,note_on,0,0,0,,4,,,64,127
34883,note_off,168,0,0,,12,,,71,127
34885,note_on,2,0,0,,1,,,73,127
35053,note_off,168,0,0,,1,,,73,127
35053,note_off,0,0,0,,8,,,56,127
35055,note_on,2,0,0,,4,,,52,127
35055,note_on,0,0,0,,2,,,74,127
35223,note_off,168,0,0,,2,,,74,127
35225,note_on,2,0,0,,1,,,73,127
35393,note_off,168,0,0,,1,,,73,127
35395,note_on,2,0,0,,12,,,71,127
35476,note_off,81,0,0,,4,,,64,127
35480,note_off,4,0,0,,4,,,52,127
35563,note_off,83,0,0,,12,,,71,127
35565,note_on,2,0,0,,10,,,57,127
35565,note_on,0,0,0,,10,,,69,127
35565,note_on,0,0,0,,4,,,64,127
35733,note_off,168,0,0,,4,,,64,127
35733,note_off,0,0,0,,10,,,69,127
35733,note_off,0,0,0,,10,,,57,127
35735,note_on,2,0,0,,8,,,56,127
35735,note_on,0,0,0,,12,,,71,127
35735,note_on,0,0,0,,4,,,64,127
35903,note_off,168,0,0,,12,,,71,127
35905,note_on,2,0,0,,1,,,73,127
36073,note_off,168,0,0,,1,,,73,127
36073,note_off,0,0,0,,8,,,56,127
36075,note_on,2,0,0,,4,,,52,127
36075,note_on,0,0,0,,2,,,74,127
36243,note_off,168,0,0,,2,,,74,127
36245,note_on,2,0,0,,1,,,73,127
36413,note_off,168,0,0,,1,,,73,127
36415,note_on,2,0,0,,2,,,74,127
36500,note_off,85,0,0,,4,,,52,127
36583,note_off,83,0,0,,2,,,74,127
36585,note_off,2,0,0,,4,,,64,127
36585,note_on,0,0,0,,10,,,57,127
36585,note_on,0,0,0,,4,,,76,127
36585,note_on,0,0,0,,4,,,64,127
36753,note_off,168,0,0,,4,,,64,127
36753,note_off,0,0,0,,4,,,76,127
36753,note_off,0,0,0,,10,,,57,127
36755,note_on,2,0,0,,2,,,50,127
36755,note_on,0,0,0,,2,,,62,127
36755,note_on,0,0,0,,6,,,78,127
36923,note_off,168,0,0,,6,,,78,127
36925,note_on,2,0,0,,8,,,80,127
37093,note_off,168,0,0,,8,,,80,127
37093,note_off,0,0,0,,2,,,50,127
37095,note_on,2,0,0,,6,,,54,127
37095,note_on,0,0,0,,10,,,81,127
37263,note_off,168,0,0,,10,,,81,127
37263,note_off,0,0,0,,6,,,54,127
37264,note_off,1,0,0,,2,,,62,127
37265,note_on,1,0,0,,4,,,52,127
37265,note_on,0,0,0,,1,,,61,127
37265,note_on,0,0,0,,10,,,69,127
37433,note_off,168,0,0,,10,,,69,127
37435,note_on,2,0,0,,12,,,71,127
37603,note_off,168,0,0,,12,,,71,127
37603,note_off,0,0,0,,1,,,61,127
37605,note_on,2,0,0,,12,,,59,127
37605,note_on,0,0,0,,8,,,68,127
37773,note_off,168,0,0,,8,,,68,127
37773,note_off,0,0,0,,12,,,59,127
37774,note_off,1,0,0,,4,,,52,127
37775,note_on,1,0,0,,10,,,45,127
37775,note_on,0,0,0,,10,,,69,127
37943,note_off,168,0,0,,10,,,69,127
37945,note_on,2,0,0,,4,,,76,127
38113,note_off,168,0,0,,4,,,76,127
38115,note_on,2,0,0,,2,,,74,127
38283,note_off,168,0,0,,2,,,74,127
38285,note_on,2,0,0,,1,,,73,127
38453,note_off,168,0,0,,1,,,73,127
38454,note_off,1,0,0,,10,,,45,127
38455,note_on,1,0,0,,12,,,71,127
38623,note_off,168,0,0,,12,,,71,127
38625,note_on,2,0,0,,10,,,57,127
38625,note_on,0,0,0,,4,,,64,127
38625,note_on,0,0,0,,10,,,69,127
38793,note_off,168,0,0,,10,,,69,127
38793,note_off,0,0,0,,4,,,64,127
38793,note_off,0,0,0,,10,,,57,127
38795,note_on,2,0,0,,8,,,56,127
38795,note_on,0,0,0,,12,,,71,127
38795,note_on,0,0,0,,4,,,64,127
38963,note_off,168,0,0,,12,,,71,127
38965,note_on,2,0,0,,4,,,76,127
39133,note_off,168,0,0,,4,,,76,127
39133,note_off,0,0,0,,8,,,56,127
39135,note_on,2,0,0,,4,,,52,127
39135,note_on,0,0,0,,2,,,74,127
39303,note_off,168,0,0,,2,,,74,127
39305,note_on,2,0,0,,1,,,73,127
39473,note_off,168,0,0,,1,,,73,127
39475,note_on,2,0,0,,12,,,71,127
39560,note_off,85,0,0,,4,,,52,127
39643,note_off,83,0,0,,12,,,71,127
39645,note_off,2,0,0,,4,,,64,127
39645,note_on,0,0,0,,10,,,57,127
39645,note_on,0,0,0,,10,,,69,127
39645,note_on,0,0,0,,4,,,64,127
39813,note_off,168,0,0,,4,,,64,127
39813,note_off,0,0,0,,10,,,69,127
39813,note_off,0,0,0,,10,,,57,127
39815,note_on,2,0,0,,8,,,56,127
39815,note_on,0,0,0,,4,,,64,127
39815,note_on,0,0,0,,12,,,71,127
39983,note_off,168,0,0,,12,,,71,127
39985,note_on,2,0,0,,4,,,76,127
40153,note_off,168,0,0,,4,,,76,127
40153,note_off,0,0,0,,8,,,56,127
40155,note_on,2,0,0,,4,,,52,127
40155,note_on,0,0,0,,2,,,74,127
40323,note_off,168,0,0,,2,,,74,127
40325,note_on,2,0,0,,1,,,73,127
40493,note_off,168,0,0,,1,,,73,127
40495,note_on,2,0,0,,2,,,74,127
40580,note_off,85,0,0,,4,,,52,127
40663,note_off,83,0,0,,2,,,74,127
40665,note_off,2,0,0,,4,,,64,127
40665,note_on,0,0,0,,10,,,57,127
40665,note_on,0,0,0,,4,,,76,127
40665,note_on,0,0,0,,4,,,64,127
40833,note_off,168,0,0,,4,,,64,127
40833,note_off,0,0,0,,4,,,76,127
40833,note_off,0,0,0,,10,,,57,127
40835,note_on,2,0,0,,2,,,50,127
40835,note_on,0,0,0,,2,,,62,127
40835,note_on,0,0,0,,6,,,78,127
41003,note_off,168,0,0,,6,,,78,127
41005,note_on,2,0,0,,8,,,80,127
41173,note_off,168,0,0,,8,,,80,127
41173,note_off,0,0,0,,2,,,50,127
41175,note_on,2,0,0,,6,,,54,127
41175,note_on,0,0,0,,10,,,81,127
41343,note_off,168,0,0,,10,,,81,127
41343,note_off,0,0,0,,6,,,54,127
41344,note_off,1,0,0,,2,,,62,127
41345,note_on,1,0,0,,1,,,61,127
41345,note_on,0,0,0,,4,,,52,127
41345,note_on,0,0,0,,10,,,69,127
41513,note_off,168,0,0,,10,,,69,127
41515,note_on,2,0,0,,12,,,71,127
41683,note_off,168,0,0,,12,,,71,127
41683,note_off,0,0,0,,1,,,61,127
41685,note_on,2,0,0,,12,,,59,127
41685,note_on,0,0,0,,8,,,68,127
41853,note_off,168,0,0,,8,,,68,127
41853,note_off,0,0,0,,12,,,59,127
41854,note_off,1,0,0,,4,,,52,127
41855,note_on,1,0,0,,10,,,45,127
41855,note_on,0,0,0,,10,,,69,127
42023,note_off,168,0,0,,10,,,69,127
42025,note_on,2,0,0,,4,,,64,127
42193,note_off,168,0,0,,4,,,64,127
42195,note_on,2,0,0,,1,,,73,127
42363,note_off,168,0,0,,1,,,73,127
42365,note_on,2,0,0,,4,,,76,127
42534,note_off,169,0,0,,10,,,45,127
42704,note_on,170,0,0,,10,,,57,127
42704,note_on,0,0,0,,1,,,61,127
42872,note_off,168,0,0,,1,,,61,127
42872,note_off,0,0,0,,10,,,57,127
42874,note_on,2,0,0,,8,,,56,127
42874,note_on,0,0,0,,12,,,59,127
43042,note_off,168,0,0,,4,,,76,127
43044,note_on,2,0,0,,4,,,64,127
43212,note_off,168,0,0,,4,,,64,127
43212,note_off,0,0,0,,8,,,56,127
43214,note_on,2,0,0,,4,,,52,127
43214,note_on,0,0,0,,12,,,71,127
43382,note_off,168,0,0,,12,,,71,127
43384,note_on,2,0,0,,4,,,76,127
43635,note_off,251,0,0,,12,,,59,127
43639,note_off,4,0,0,,4,,,52,127
43724,note_on,85,0,0,,1,,,61,127
43724,note_on,0,0,0,,10,,,57,127
43892,note_off,168,0,0,,10,,,57,127
43892,note_off,0,0,0,,1,,,61,127
43894,note_on,2,0,0,,8,,,56,127
43894,note_on,0,0,0,,12,,,59,127
44062,note_off,168,0,0,,4,,,76,127
44064,note_on,2,0,0,,4,,,64,127
44223,note_off,159,0,0,,4,,,64,127
44232,note_off,9,0,0,,8,,,56,127
44234,note_on,2,0,0,,4,,,52,127
44234,note_on,0,0,0,,12,,,71,127
44319,note_off,85,0,0,,12,,,59,127
44384,note_off,65,0,0,,12,,,71,127
44403,note_on,19,0,0,,10,,,81,127
44569,note_off,166,0,0,,4,,,52,127
44742,note_on,173,0,0,,1,,,49,127
44742,note_on,0,0,0,,10,,,57,127
44910,note_off,168,0,0,,1,,,49,127
44912,note_on,2,0,0,,2,,,50,127
45080,note_off,168,0,0,,10,,,81,127
45082,note_on,2,0,0,,6,,,78,127
45250,note_off,168,0,0,,6,,,78,127
45250,note_off,0,0,0,,2,,,50,127
45251,note_off,1,0,0,,10,,,57,127
45252,note_on,1,0,0,,6,,,54,127
45252,note_on,0,0,0,,2,,,62,127
45252,note_on,0,0,0,,2,,,74,127
45420,note_off,168,0,0,,2,,,74,127
45420,note_off,0,0,0,,2,,,62,127
45420,note_off,0,0,0,,6,,,54,127
45422,note_on,2,0,0,,1,,,61,127
45422,note_on,0,0,0,,4,,,52,127
45422,note_on,0,0,0,,10,,,69,127
45590,note_off,168,0,0,,10,,,69,127
45592,note_on,2,0,0,,12,,,71,127
45760,note_off,168,0,0,,12,,,71,127
45760,note_off,0,0,0,,1,,,61,127
45762,note_on,2,0,0,,12,,,59,127
45762,note_on,0,0,0,,8,,,68,127
45930,note_off,168,0,0,,8,,,68,127
45930,note_off,0,0,0,,12,,,59,127
45931,note_off,1,0,0,,4,,,52,127
45932,note_on,1,0,0,,10,,,45,127
45932,note_on,0,0,0,,10,,,69,127
46100,note_off,168,0,0,,10,,,69,127
46102,note_on,2,0,0,,4,,,64,127
46270,note_off,168,0,0,,4,,,64,127
46272,note_on,2,0,0,,1,,,73,127
46440,note_off,168,0,0,,1,,,73,127
46442,note_on,2,0,0,,4,,,76,127
46611,note_off,169,0,0,,10,,,45,127
46781,note_on,170,0,0,,10,,,57,127
46781,note_on,0,0,0,,1,,,61,127
46949,note_off,168,0,0,,1,,,61,127
46949,note_off,0,0,0,,10,,,57,127
46951,note_on,2,0,0,,12,,,59,127
46951,note_on,0,0,0,,8,,,56,127
47120,note_on,169,0,0,,4,,,64,127
47288,note_off,168,0,0,,4,,,64,127
47288,note_off,0,0,0,,8,,,56,127
47290,note_off,2,0,0,,4,,,76,127
47290,note_on,0,0,0,,4,,,52,127
47290,note_on,0,0,0,,12,,,71,127
47458,note_off,168,0,0,,12,,,71,127
47460,note_on,2,0,0,,4,,,76,127
47711,note_off,251,0,0,,12,,,59,127
47715,note_off,4,0,0,,4,,,52,127
47800,note_on,85,0,0,,10,,,57,127
47800,note_on,0,0,0,,1,,,61,127
47968,note_off,168,0,0,,1,,,61,127
47968,note_off,0,0,0,,10,,,57,127
47970,note_on,2,0,0,,8,,,56,127
47970,note_on,0,0,0,,12,,,59,127
48138,note_off,168,0,0,,4,,,76,127
48140,note_on,2,0,0,,4,,,64,127
48250,note_off,110,0,0,,12,,,59,127
48290,note_off,40,0,0,,8,,,56,127
48299,note_off,9,0,0,,4,,,64,127
48310,note_on,11,0,0,,4,,,52,127
48310,note_on,0,0,0,,12,,,71,127
48437,note_off,127,0,0,,12,,,71,127
48479,note_on,42,0,0,,10,,,81,127
48536,note_off,57,0,0,,4,,,52,127
48818,note_on,282,0,0,,1,,,49,127
48818,note_on,0,0,0,,10,,,57,127
48986,note_off,168,0,0,,1,,,49,127
48988,note_on,2,0,0,,2,,,50,127
49156,note_off,168,0,0,,10,,,81,127
49158,note_on,2,0,0,,6,,,78,127
49326,note_off,168,0,0,,6,,,78,127
49326,note_off,0,0,0,,2,,,50,127
49327,note_off,1,0,0,,10,,,57,127
49328,note_on,1,0,0,,6,,,54,127
49328,note_on,0,0,0,,2,,,62,127
49328,note_on,0,0,0,,2,,,74,127
49496,note_off,168,0,0,,2,,,74,127
49496,note_off,0,0,0,,2,,,62,127
49496,note_off,0,0,0,,6,,,54,127
49498,note_on,2,0,0,,1,,,61,127
49498,note_on,0,0,0,,4,,,52,127
49498,note_on,0,0,0,,10,,,69,127
49666,note_off,168,0,0,,10,,,69,127
49668,note_on,2,0,0,,12,,,71,127
49836,note_off,168,0,0,,12,,,71,127
49836,note_off,0,0,0,,1,,,61,127
49838,note_on,2,0,0,,12,,,59,127
49838,note_on,0,0,0,,8,,,68,127
50006,note_off,168,0,0,,8,,,68,127
50006,note_off,0,0,0,,12,,,59,127
50007,note_off,1,0,0,,4,,,52,127
50008,note_on,1,0,0,,10,,,45,127
50008,note_on,0,0,0,,10,,,57,127
50177,note_on,169,0,0,,1,,,61,127
50345,note_off,168,0,0,,1,,,61,127
50347,note_on,2,0,0,,4,,,64,127
50515,note_off,168,0,0,,4,,,64,127
50516,note_off,1,0,0,,10,,,57,127
50517,note_on,1,0,0,,10,,,69,127
50854,note_off,337,0,0,,10,,,45,127
50856,note_on,2,0,0,,1,,,49,127
50856,note_on,0,0,0,,10,,,57,127
51024,note_off,168,0,0,,1,,,49,127
51026,note_on,2,0,0,,2,,,50,127
51192,note_off,166,0,0,,10,,,57,127
51194,note_off,2,0,0,,10,,,69,127
51196,note_on,2,0,0,,6,,,66,127
51364,note_off,168,0,0,,6,,,66,127
51364,note_off,0,0,0,,2,,,50,127
51366,note_on,2,0,0,,6,,,54,127
51366,note_on,0,0,0,,2,,,62,127
51534,note_off,168,0,0,,2,,,62,127
51534,note_off,0,0,0,,6,,,54,127
51536,note_on,2,0,0,,10,,,57,127
51536,note_on,0,0,0,,4,,,52,127
51704,note_off,168,0,0,,10,,,57,127
51706,note_on,2,0,0,,12,,,59,127
51872,note_off,166,0,0,,4,,,52,127
51874,note_off,2,0,0,,12,,,59,127
51876,note_on,2,0,0,,8,,,56,127
51876,note_on,0,0,0,,4,,,40,127
52044,note_off,168,0,0,,4,,,40,127
52044,note_off,0,0,0,,8,,,56,127
52046,note_on,2,0,0,,10,,,57,127
52046,note_on,0,0,0,,10,,,45,127
53061,note_off,1015,0,0,,10,,,45,127
53061,note_off,0,0,0,,10,,,57,127
53063,note_on,2,0,0,,2,,,38,127
53232,note_on,169,0,0,,10,,,81,127
53400,note_off,168,0,0,,10,,,81,127
53402,note_on,2,0,0,,6,,,78,127
53570,note_off,168,0,0,,6,,,78,127
53572,note_on,2,0,0,,2,,,74,127
53740,note_off,168,0,0,,2,,,74,127
53742,note_on,2,0,0,,10,,,69,127
53910,note_off,168,0,0,,10,,,69,127
53912,note_on,2,0,0,,6,,,66,127
54080,note_off,168,0,0,,6,,,66,127
54080,note_off,0,0,0,,2,,,38,127
54082,note_on,2,0,0,,2,,,62,127
54250,note_off,168,0,0,,2,,,62,127
54252,note_on,2,0,0,,10,,,57,127
54420,note_off,168,0,0,,10,,,57,127
54422,note_on,2,0,0,,6,,,54,127
54590,note_off,168,0,0,,6,,,54,127
54592,note_on,2,0,0,,2,,,50,127
54931,note_on,339,0,0,,10,,,81,127
55092,note_off,161,0,0,,2,,,50,127
55099,note_off,7,0,0,,10,,,81,127
55101,note_on,2,0,0,,7,,,55,127
55101,note_on,0,0,0,,7,,,79,127
55269,note_off,168,0,0,,7,,,79,127
55271,note_on,2,0,0,,12,,,83,127
55439,note_off,168,0,0,,12,,,83,127
55441,note_on,2,0,0,,10,,,81,127
55609,note_off,168,0,0,,10,,,81,127
55609,note_off,0,0,0,,7,,,55,127
55611,note_on,2,0,0,,10,,,57,127
55611,note_on,0,0,0,,10,,,81,127
55611,note_on,0,0,0,,7,,,79,127
55779,note_off,168,0,0,,7,,,79,127
55779,note_off,0,0,0,,10,,,81,127
55781,note_on,2,0,0,,6,,,78,127
55949,note_off,168,0,0,,6,,,78,127
55951,note_on,2,0,0,,4,,,76,127
56119,note_off,168,0,0,,4,,,76,127
56119,note_off,0,0,0,,10,,,57,127
56121,note_on,2,0,0,,2,,,50,127
56121,note_on,0,0,0,,4,,,76,127
56458,note_off,337,0,0,,4,,,76,127
56460,note_on,2,0,0,,6,,,78,127
56628,note_off,168,0,0,,2,,,50,127
56630,note_on,2,0,0,,6,,,54,127
56630,note_on,0,0,0,,2,,,62,127
56884,note_off,254,0,0,,6,,,78,127
56969,note_on,85,0,0,,6,,,78,127
57137,note_off,168,0,0,,6,,,78,127
57137,note_off,0,0,0,,2,,,62,127
57137,note_off,0,0,0,,6,,,54,127
57139,note_on,2,0,0,,7,,,55,127
57139,note_on,0,0,0,,2,,,62,127
57139,note_on,0,0,0,,4,,,64,127
57139,note_on,0,0,0,,4,,,76,127
57307,note_off,168,0,0,,4,,,76,127
57309,note_on,2,0,0,,12,,,83,127
57309,note_on,0,0,0,,7,,,79,127
57477,note_off,168,0,0,,7,,,79,127
57477,note_off,0,0,0,,12,,,83,127
57479,note_on,2,0,0,,10,,,81,127
57479,note_on,0,0,0,,6,,,78,127
57647,note_off,168,0,0,,6,,,78,127
57647,note_off,0,0,0,,10,,,81,127
57647,note_off,0,0,0,,4,,,64,127
57647,note_off,0,0,0,,2,,,62,127
57647,note_off,0,0,0,,7,,,55,127
57649,note_on,2,0,0,,10,,,57,127
57649,note_on,0,0,0,,4,,,64,127
57649,note_on,0,0,0,,7,,,79,127
57649,note_on,0,0,0,,4,,,76,127
57817,note_off,168,0,0,,4,,,76,127
57817,note_off,0,0,0,,7,,,79,127
57819,note_on,2,0,0,,6,,,78,127
57819,note_on,0,0,0,,2,,,74,127
57987,note_off,168,0,0,,2,,,74,127
57987,note_off,0,0,0,,6,,,78,127
57989,note_on,2,0,0,,4,,,76,127
57989,note_on,0,0,0,,1,,,73,127
58157,note_off,168,0,0,,1,,,73,127
58157,note_off,0,0,0,,4,,,76,127
58157,note_off,0,0,0,,4,,,64,127
58157,note_off,0,0,0,,10,,,57,127
58159,note_on,2,0,0,,2,,,50,127
58159,note_on,0,0,0,,2,,,62,127
58159,note_on,0,0,0,,2,,,74,127
58329,note_on,170,0,0,,10,,,69,127
58497,note_off,168,0,0,,10,,,69,127
58499,note_on,2,0,0,,6,,,78,127
58659,note_off,160,0,0,,2,,,74,127
58667,note_off,8,0,0,,6,,,78,127
58669,note_on,2,0,0,,10,,,81,127
58838,note_off,169,0,0,,2,,,62,127
58838,note_off,0,0,0,,2,,,50,127
59008,note_on,170,0,0,,6,,,66,127
59008,note_on,0,0,0,,2,,,62,127
59176,note_off,168,0,0,,2,,,62,127
59176,note_off,0,0,0,,6,,,66,127
59178,note_on,2,0,0,,1,,,61,127
59178,note_on,0,0,0,,4,,,64,127
59346,note_off,168,0,0,,10,,,81,127
59348,note_on,2,0,0,,10,,,69,127
59516,note_off,168,0,0,,10,,,69,127
59516,note_off,0,0,0,,4,,,64,127
59516,note_off,0,0,0,,1,,,61,127
59518,note_on,2,0,0,,10,,,57,127
59518,note_on,0,0,0,,4,,,76,127
59686,note_off,168,0,0,,4,,,76,127
59688,note_on,2,0,0,,10,,,81,127
59942,note_off,254,0,0,,10,,,57,127
60027,note_on,85,0,0,,2,,,62,127
60027,note_on,0,0,0,,6,,,66,127
60195,note_off,168,0,0,,6,,,66,127
60195,note_off,0,0,0,,2,,,62,127
60197,note_on,2,0,0,,4,,,64,127
60197,note_on,0,0,0,,1,,,61,127
60365,note_off,168,0,0,,10,,,81,127
60367,note_on,2,0,0,,10,,,69,127
60535,note_off,168,0,0,,10,,,69,127
60535,note_off,0,0,0,,1,,,61,127
60535,note_off,0,0,0,,4,,,64,127
60537,note_on,2,0,0,,10,,,57,127
60537,note_on,0,0,0,,4,,,76,127
60705,note_off,168,0,0,,4,,,76,127
60707,note_on,2,0,0,,10,,,81,127
60961,note_off,254,0,0,,10,,,57,127
61046,note_on,85,0,0,,12,,,59,127
61046,note_on,0,0,0,,2,,,62,127
61214,note_off,168,0,0,,2,,,62,127
61214,note_off,0,0,0,,12,,,59,127
61216,note_on,2,0,0,,0,,,60,127
61216,note_on,0,0,0,,4,,,64,127
61216,note_on,0,0,0,,10,,,69,127
61384,note_off,168,0,0,,10,,,81,127
61386,note_on,2,0,0,,0,,,84,127
61554,note_off,168,0,0,,0,,,84,127
61556,note_on,2,0,0,,12,,,83,127
61724,note_off,168,0,0,,12,,,83,127
61724,note_off,0,0,0,,10,,,69,127
61724,note_off,0,0,0,,4,,,64,127
61724,note_off,0,0,0,,0,,,60,127
61726,note_on,2,0,0,,12,,,59,127
61726,note_on,0,0,0,,4,,,64,127
61726,note_on,0,0,0,,6,,,66,127
61726,note_on,0,0,0,,10,,,69,127
61726,note_on,0,0,0,,10,,,81,127
61894,note_off,168,0,0,,10,,,81,127
61896,note_on,2,0,0,,7,,,79,127
62064,note_off,168,0,0,,7,,,79,127
62066,note_on,2,0,0,,6,,,78,127
62234,note_off,168,0,0,,6,,,78,127
62234,note_off,0,0,0,,10,,,69,127
62234,note_off,0,0,0,,6,,,66,127
62234,note_off,0,0,0,,4,,,64,127
62234,note_off,0,0,0,,12,,,59,127
62236,note_on,2,0,0,,7,,,67,127
62236,note_on,0,0,0,,4,,,64,127
62236,note_on,0,0,0,,7,,,79,127
62404,note_off,168,0,0,,7,,,79,127
62406,note_on,2,0,0,,12,,,71,127
62574,note_off,168,0,0,,12,,,71,127
62576,note_on,2,0,0,,4,,,76,127
62744,note_off,168,0,0,,4,,,76,127
62746,note_on,2,0,0,,12,,,83,127
62915,note_off,169,0,0,,7,,,67,127
62997,note_off,82,0,0,,4,,,64,127
63085,note_on,88,0,0,,4,,,64,127
63085,note_on,0,0,0,,7,,,67,127
63253,note_off,168,0,0,,7,,,67,127
63253,note_off,0,0,0,,4,,,64,127
63255,note_on,2,0,0,,6,,,66,127
63255,note_on,0,0,0,,3,,,63,127
63423,note_off,168,0,0,,12,,,83,127
63425,note_on,2,0,0,,12,,,71,127
63593,note_off,168,0,0,,12,,,71,127
63593,note_off,0,0,0,,6,,,66,127
63595,note_on,2,0,0,,12,,,59,127
63595,note_on,0,0,0,,6,,,78,127
63680,note_off,85,0,0,,3,,,63,127
63763,note_off,83,0,0,,6,,,78,127
63765,note_on,2,0,0,,12,,,83,127
64019,note_off,254,0,0,,12,,,59,127
64104,note_on,85,0,0,,4,,,64,127
64104,note_on,0,0,0,,7,,,67,127
64272,note_off,168,0,0,,7,,,67,127
64272,note_off,0,0,0,,4,,,64,127
64274,note_on,2,0,0,,6,,,66,127
64274,note_on,0,0,0,,3,,,63,127
64442,note_off,168,0,0,,12,,,83,127
64444,note_on,2,0,0,,12,,,71,127
64612,note_off,168,0,0,,12,,,71,127
64612,note_off,0,0,0,,6,,,66,127
64614,note_on,2,0,0,,12,,,59,127
64614,note_on,0,0,0,,6,,,78,127
64699,note_off,85,0,0,,3,,,63,127
64782,note_off,83,0,0,,6,,,78,127
64784,note_on,2,0,0,,12,,,83,127
65038,note_off,254,0,0,,12,,,59,127
65123,note_on,85,0,0,,4,,,64,127
65123,note_on,0,0,0,,7,,,67,127
65291,note_off,168,0,0,,7,,,67,127
65291,note_off,0,0,0,,4,,,64,127
65293,note_on,2,0,0,,6,,,66,127
65293,note_on,0,0,0,,2,,,62,127
65461,note_off,168,0,0,,12,,,83,127
65463,note_on,2,0,0,,2,,,86,127
65631,note_off,168,0,0,,2,,,86,127
65633,note_on,2,0,0,,1,,,85,127
65801,note_off,168,0,0,,1,,,85,127
65801,note_off,0,0,0,,2,,,62,127
65801,note_off,0,0,0,,6,,,66,127
65803,note_on,2,0,0,,1,,,61,127
65803,note_on,0,0,0,,6,,,66,127
65803,note_on,0,0,0,,8,,,68,127
65803,note_on,0,0,0,,12,,,71,127
65803,note_on,0,0,0,,12,,,83,127
65971,note_off,168,0,0,,12,,,83,127
65973,note_on,2,0,0,,10,,,81,127
66141,note_off,168,0,0,,10,,,81,127
66143,note_on,2,0,0,,8,,,80,127
66311,note_off,168,0,0,,8,,,80,127
66311,note_off,0,0,0,,12,,,71,127
66311,note_off,0,0,0,,8,,,68,127
66311,note_off,0,0,0,,6,,,66,127
66311,note_off,0,0,0,,1,,,61,127
66313,note_on,2,0,0,,10,,,69,127
66313,note_on,0,0,0,,6,,,66,127
66313,note_on,0,0,0,,10,,,81,127
66481,note_off,168,0,0,,10,,,81,127
66483,note_on,2,0,0,,1,,,73,127
66651,note_off,168,0,0,,1,,,73,127
66653,note_on,2,0,0,,6,,,78,127
66821,note_off,168,0,0,,6,,,78,127
66823,note_on,2,0,0,,1,,,85,127
67135,note_off,312,0,0,,6,,,66,127
67159,note_off,24,0,0,,10,,,69,127
67162,note_on,3,0,0,,6,,,66,127
67162,note_on,0,0,0,,10,,,69,127
67330,note_off,168,0,0,,10,,,69,127
67330,note_off,0,0,0,,6,,,66,127
67332,note_on,2,0,0,,5,,,65,127
67332,note_on,0,0,0,,8,,,68,127
67500,note_off,168,0,0,,1,,,85,127
67502,note_on,2,0,0,,1,,,73,127
67670,note_off,168,0,0,,1,,,73,127
67672,note_on,2,0,0,,1,,,61,127
67672,note_on,0,0,0,,8,,,80,127
67840,note_off,168,0,0,,8,,,80,127
67841,note_off,1,0,0,,8,,,68,127
67841,note_off,0,0,0,,5,,,65,127
67842,note_on,1,0,0,,1,,,85,127
68096,note_off,254,0,0,,1,,,61,127
68181,note_on,85,0,0,,6,,,66,127
68181,note_on,0,0,0,,10,,,69,127
68349,note_off,168,0,0,,10,,,69,127
68349,note_off,0,0,0,,6,,,66,127
68351,note_on,2,0,0,,5,,,65,127
68351,note_on,0,0,0,,8,,,68,127
68519,note_off,168,0,0,,1,,,85,127
68521,note_on,2,0,0,,1,,,73,127
68689,note_off,168,0,0,,1,,,73,127
68691,note_on,2,0,0,,1,,,61,127
68691,note_on,0,0,0,,8,,,80,127
68859,note_off,168,0,0,,8,,,80,127
68860,note_off,1,0,0,,8,,,68,127
68860,note_off,0,0,0,,5,,,65,127
68861,note_on,1,0,0,,1,,,85,127
69115,note_off,254,0,0,,1,,,61,127
69200,note_on,85,0,0,,12,,,59,127
69200,note_on,0,0,0,,8,,,68,127
69200,note_on,0,0,0,,5,,,65,127
69368,note_off,168,0,0,,5,,,65,127
69368,note_off,0,0,0,,8,,,68,127
69368,note_off,0,0,0,,12,,,59,127
69370,note_on,2,0,0,,1,,,61,127
69370,note_on,0,0,0,,6,,,66,127
69370,note_on,0,0,0,,10,,,57,127
69538,note_off,168,0,0,,1,,,85,127
69540,note_on,2,0,0,,12,,,83,127
69708,note_off,168,0,0,,12,,,83,127
69710,note_on,2,0,0,,10,,,81,127
69878,note_off,168,0,0,,10,,,81,127
69878,note_off,0,0,0,,10,,,57,127
69878,note_off,0,0,0,,6,,,66,127
69878,note_off,0,0,0,,1,,,61,127
69880,note_on,2,0,0,,2,,,62,127
69880,note_on,0,0,0,,12,,,59,127
69880,note_on,0,0,0,,6,,,66,127
69880,note_on,0,0,0,,8,,,80,127
70048,note_off,168,0,0,,8,,,80,127
70050,note_on,2,0,0,,10,,,81,127
70218,note_off,168,0,0,,10,,,81,127
70220,note_on,2,0,0,,6,,,78,127
70388,note_off,168,0,0,,6,,,78,127
70388,note_off,0,0,0,,6,,,66,127
70388,note_off,0,0,0,,12,,,59,127
70388,note_off,0,0,0,,2,,,62,127
70390,note_on,2,0,0,,1,,,49,127
70390,note_on,0,0,0,,1,,,61,127
70390,note_on,0,0,0,,5,,,77,127
70558,note_off,168,0,0,,5,,,77,127
70560,note_on,2,0,0,,3,,,75,127
70728,note_off,168,0,0,,3,,,75,127
70730,note_on,2,0,0,,1,,,73,127
71056,note_off,326,0,0,,1,,,73,127
71084,note_on,28,0,0,,1,,,73,127
71237,note_off,153,0,0,,1,,,61,127
71237,note_off,0,0,0,,1,,,49,127
71253,note_on,16,0,0,,1,,,85,127
71419,note_off,166,0,0,,1,,,73,127
71421,note_off,2,0,0,,1,,,85,127
71423,note_on,2,0,0,,2,,,74,127
71423,note_on,0,0,0,,1,,,85,127
71423,note_on,0,0,0,,1,,,49,127
71591,note_off,168,0,0,,1,,,85,127
71593,note_on,2,0,0,,10,,,81,127
71761,note_off,168,0,0,,10,,,81,127
71763,note_on,2,0,0,,12,,,83,127
71931,note_off,168,0,0,,12,,,83,127
71931,note_off,0,0,0,,1,,,49,127
71932,note_off,1,0,0,,2,,,74,127
71933,note_on,1,0,0,,1,,,73,127
71933,note_on,0,0,0,,12,,,83,127
71933,note_on,0,0,0,,1,,,49,127
72101,note_off,168,0,0,,12,,,83,127
72103,note_on,2,0,0,,8,,,80,127
72271,note_off,168,0,0,,8,,,80,127
72273,note_on,2,0,0,,10,,,81,127
72441,note_off,168,0,0,,10,,,81,127
72441,note_off,0,0,0,,1,,,49,127
72442,note_off,1,0,0,,1,,,73,127
72443,note_on,1,0,0,,12,,,71,127
72443,note_on,0,0,0,,10,,,81,127
72443,note_on,0,0,0,,1,,,49,127
72611,note_off,168,0,0,,10,,,81,127
72613,note_on,2,0,0,,6,,,78,127
72781,note_off,168,0,0,,6,,,78,127
72783,note_on,2,0,0,,10,,,81,127
72951,note_off,168,0,0,,10,,,81,127
72953,note_on,2,0,0,,10,,,81,127
73009,note_off,56,0,0,,10,,,81,127
73010,note_on,1,0,0,,8,,,80,127
73066,note_off,56,0,0,,8,,,80,127
73067,note_on,1,0,0,,10,,,81,127
73123,note_off,56,0,0,,10,,,81,127
73123,note_off,0,0,0,,12,,,71,127
73124,note_on,1,0,0,,8,,,80,127
73292,note_off,168,0,0,,8,,,80,127
73294,note_off,2,0,0,,1,,,49,127
73294,note_on,0,0,0,,2,,,74,127
73294,note_on,0,0,0,,12,,,83,127
73462,note_off,168,0,0,,12,,,83,127
73462,note_off,0,0,0,,2,,,74,127
73464,note_on,2,0,0,,1,,,73,127
73464,note_on,0,0,0,,12,,,83,127
73464,note_on,0,0,0,,1,,,49,127
73632,note_off,168,0,0,,12,,,83,127
73634,note_on,2,0,0,,8,,,80,127
73802,note_off,168,0,0,,8,,,80,127
73804,note_on,2,0,0,,10,,,81,127
73972,note_off,168,0,0,,10,,,81,127
73972,note_off,0,0,0,,1,,,49,127
73973,note_off,1,0,0,,1,,,73,127
73974,note_on,1,0,0,,10,,,81,127
73974,note_on,0,0,0,,12,,,71,127
73974,note_on,0,0,0,,1,,,49,127
74142,note_off,168,0,0,,10,,,81,127
74144,note_on,2,0,0,,6,,,78,127
74312,note_off,168,0,0,,6,,,78,127
74314,note_on,2,0,0,,8,,,80,127
74482,note_off,168,0,0,,8,,,80,127
74482,note_off,0,0,0,,1,,,49,127
74483,note_off,1,0,0,,12,,,71,127
74484,note_on,1,0,0,,10,,,69,127
74484,note_on,0,0,0,,8,,,80,127
74484,note_on,0,0,0,,1,,,49,127
74652,note_off,168,0,0,,8,,,80,127
74654,note_on,2,0,0,,5,,,77,127
74822,note_off,168,0,0,,5,,,77,127
74824,note_on,2,0,0,,8,,,80,127
74992,note_off,168,0,0,,8,,,80,127
74994,note_on,2,0,0,,8,,,80,127
75050,note_off,56,0,0,,8,,,80,127
75051,note_on,1,0,0,,6,,,78,127
75107,note_off,56,0,0,,6,,,78,127
75108,note_on,1,0,0,,8,,,80,127
75164,note_off,56,0,0,,8,,,80,127
75164,note_off,0,0,0,,10,,,69,127
75165,note_on,1,0,0,,6,,,78,127
75333,note_off,168,0,0,,6,,,78,127
75335,note_off,2,0,0,,1,,,49,127
75335,note_on,0,0,0,,1,,,73,127
75335,note_on,0,0,0,,10,,,81,127
75503,note_off,168,0,0,,10,,,81,127
75503,note_off,0,0,0,,1,,,73,127
75505,note_on,2,0,0,,12,,,71,127
75505,note_on,0,0,0,,10,,,81,127
75505,note_on,0,0,0,,1,,,49,127
75673,note_off,168,0,0,,10,,,81,127
75675,note_on,2,0,0,,6,,,78,127
75843,note_off,168,0,0,,6,,,78,127
75845,note_on,2,0,0,,8,,,80,127
76013,note_off,168,0,0,,8,,,80,127
76013,note_off,0,0,0,,1,,,49,127
76014,note_off,1,0,0,,12,,,71,127
76015,note_on,1,0,0,,10,,,69,127
76015,note_on,0,0,0,,8,,,80,127
76015,note_on,0,0,0,,1,,,49,127
76183,note_off,168,0,0,,8,,,80,127
76185,note_on,2,0,0,,5,,,77,127
76353,note_off,168,0,0,,5,,,77,127
76355,note_on,2,0,0,,6,,,78,127
76523,note_off,168,0,0,,6,,,78,127
76523,note_off,0,0,0,,1,,,49,127
76524,note_off,1,0,0,,10,,,69,127
76525,note_on,1,0,0,,6,,,78,127
76525,note_on,0,0,0,,8,,,68,127
76525,note_on,0,0,0,,1,,,49,127
76693,note_off,168,0,0,,6,,,78,127
76695,note_on,2,0,0,,3,,,75,127
76863,note_off,168,0,0,,3,,,75,127
76865,note_on,2,0,0,,6,,,78,127
77033,note_off,168,0,0,,6,,,78,127
77035,note_on,2,0,0,,6,,,78,127
77081,note_off,46,0,0,,6,,,78,127
77082,note_on,1,0,0,,5,,,77,127
77128,note_off,46,0,0,,5,,,77,127
77129,note_on,1,0,0,,6,,,78,127
77175,note_off,46,0,0,,6,,,78,127
77176,note_on,1,0,0,,5,,,77,127
77204,note_off,28,0,0,,8,,,68,127
77370,note_off,166,0,0,,5,,,77,127
77374,note_off,4,0,0,,1,,,49,127
77374,note_on,0,0,0,,1,,,61,127
77542,note_off,168,0,0,,1,,,61,127
77544,note_on,2,0,0,,2,,,62,127
77544,note_on,0,0,0,,12,,,59,127
77712,note_off,168,0,0,,2,,,62,127
77714,note_on,2,0,0,,1,,,61,127
77882,note_off,168,0,0,,1,,,61,127
77884,note_on,2,0,0,,2,,,62,127
78052,note_off,168,0,0,,2,,,62,127
78052,note_off,0,0,0,,12,,,59,127
78054,note_on,2,0,0,,1,,,61,127
78054,note_on,0,0,0,,10,,,57,127
78222,note_off,168,0,0,,1,,,61,127
78224,note_on,2,0,0,,12,,,59,127
78392,note_off,168,0,0,,12,,,59,127
78394,note_on,2,0,0,,1,,,61,127
78562,note_off,168,0,0,,1,,,61,127
78563,note_off,1,0,0,,10,,,57,127
78564,note_on,1,0,0,,12,,,59,127
78564,note_on,0,0,0,,8,,,56,127
78733,note_on,169,0,0,,6,,,78,127
78901,note_off,168,0,0,,6,,,78,127
78903,note_on,2,0,0,,2,,,74,127
79071,note_off,168,0,0,,2,,,74,127
79073,note_on,2,0,0,,1,,,73,127
79129,note_off,56,0,0,,1,,,73,127
79130,note_on,1,0,0,,12,,,71,127
79186,note_off,56,0,0,,12,,,71,127
79187,note_on,1,0,0,,1,,,73,127
79243,note_off,56,0,0,,1,,,73,127
79244,note_on,1,0,0,,12,,,71,127
79360,note_off,116,0,0,,8,,,56,127
79360,note_off,0,0,0,,12,,,59,127
79411,note_off,51,0,0,,12,,,71,127
79413,note_on,2,0,0,,2,,,62,127
79413,note_on,0,0,0,,12,,,59,127
79581,note_off,168,0,0,,12,,,59,127
79581,note_off,0,0,0,,2,,,62,127
79583,note_on,2,0,0,,10,,,57,127
79583,note_on,0,0,0,,1,,,61,127
79751,note_off,168,0,0,,1,,,61,127
79753,note_on,2,0,0,,12,,,59,127
79921,note_off,168,0,0,,12,,,59,127
79923,note_on,2,0,0,,1,,,61,127
80091,note_off,168,0,0,,1,,,61,127
80092,note_off,1,0,0,,10,,,57,127
80093,note_on,1,0,0,,8,,,56,127
80093,note_on,0,0,0,,12,,,59,127
80261,note_off,168,0,0,,12,,,59,127
80263,note_on,2,0,0,,10,,,57,127
80431,note_off,168,0,0,,10,,,57,127
80433,note_on,2,0,0,,12,,,59,127
80601,note_off,168,0,0,,12,,,59,127
80602,note_off,1,0,0,,8,,,56,127
80603,note_on,1,0,0,,10,,,57,127
80603,note_on,0,0,0,,6,,,54,127
80772,note_on,169,0,0,,6,,,78,127
80940,note_off,168,0,0,,6,,,78,127
80942,note_on,2,0,0,,1,,,73,127
81110,note_off,168,0,0,,1,,,73,127
81112,note_on,2,0,0,,12,,,71,127
81168,note_off,56,0,0,,12,,,71,127
81169,note_on,1,0,0,,10,,,69,127
81225,note_off,56,0,0,,10,,,69,127
81226,note_on,1,0,0,,12,,,71,127
81282,note_off,56,0,0,,12,,,71,127
81283,note_on,1,0,0,,10,,,69,127
81364,note_off,81,0,0,,6,,,54,127
81364,note_off,0,0,0,,10,,,57,127
81452,note_on,88,0,0,,10,,,57,127
81452,note_on,0,0,0,,1,,,61,127
81530,note_off,78,0,0,,10,,,69,127
81620,note_off,90,0,0,,1,,,61,127
81620,note_off,0,0,0,,10,,,57,127
81622,note_on,2,0,0,,12,,,59,127
81622,note_on,0,0,0,,8,,,56,127
81790,note_off,168,0,0,,12,,,59,127
81792,note_on,2,0,0,,10,,,57,127
81960,note_off,168,0,0,,10,,,57,127
81962,note_on,2,0,0,,12,,,59,127
82130,note_off,168,0,0,,12,,,59,127
82131,note_off,1,0,0,,8,,,56,127
82132,note_on,1,0,0,,10,,,57,127
82132,note_on,0,0,0,,6,,,54,127
82300,note_off,168,0,0,,10,,,57,127
82302,note_on,2,0,0,,8,,,56,127
82470,note_off,168,0,0,,8,,,56,127
82472,note_on,2,0,0,,10,,,57,127
82640,note_off,168,0,0,,10,,,57,127
82641,note_off,1,0,0,,6,,,54,127
82642,note_on,1,0,0,,5,,,53,127
82642,note_on,0,0,0,,8,,,56,127
82811,note_on,169,0,0,,1,,,73,127
82979,note_off,168,0,0,,1,,,73,127
82979,note_off,0,0,0,,8,,,56,127
82979,note_off,0,0,0,,5,,,53,127
82981,note_on,2,0,0,,12,,,71,127
82981,note_on,0,0,0,,1,,,49,127
83149,note_off,168,0,0,,12,,,71,127
83151,note_on,2,0,0,,10,,,69,127
83319,note_off,168,0,0,,10,,,69,127
83321,note_on,2,0,0,,8,,,68,127
83406,note_off,85,0,0,,1,,,49,127
83489,note_off,83,0,0,,8,,,68,127
83491,note_on,2,0,0,,6,,,66,127
83491,note_on,0,0,0,,10,,,57,127
83491,note_on,0,0,0,,6,,,54,127
83659,note_off,168,0,0,,6,,,54,127
83659,note_off,0,0,0,,10,,,57,127
83659,note_off,0,0,0,,6,,,66,127
83661,note_on,2,0,0,,8,,,68,127
83661,note_on,0,0,0,,8,,,56,127
83661,note_on,0,0,0,,5,,,53,127
83829,note_off,168,0,0,,8,,,68,127
83831,note_on,2,0,0,,1,,,73,127
83999,note_off,168,0,0,,1,,,73,127
83999,note_off,0,0,0,,5,,,53,127
83999,note_off,0,0,0,,8,,,56,127
84001,note_on,2,0,0,,12,,,71,127
84001,note_on,0,0,0,,1,,,49,127
84169,note_off,168,0,0,,12,,,71,127
84171,note_on,2,0,0,,10,,,69,127
84339,note_off,168,0,0,,10,,,69,127
84341,note_on,2,0,0,,8,,,68,127
84426,note_off,85,0,0,,1,,,49,127
84509,note_off,83,0,0,,8,,,68,127
84511,note_on,2,0,0,,6,,,66,127
84511,note_on,0,0,0,,6,,,54,127
84511,note_on,0,0,0,,10,,,57,127
84679,note_off,168,0,0,,10,,,57,127
84679,note_off,0,0,0,,6,,,54,127
84679,note_off,0,0,0,,6,,,66,127
84681,note_on,2,0,0,,8,,,68,127
84681,note_on,0,0,0,,8,,,56,127
84681,note_on,0,0,0,,5,,,53,127
84849,note_off,168,0,0,,8,,,68,127
84851,note_on,2,0,0,,1,,,73,127
85019,note_off,168,0,0,,1,,,73,127
85019,note_off,0,0,0,,5,,,53,127
85019,note_off,0,0,0,,8,,,56,127
85021,note_on,2,0,0,,12,,,71,127
85021,note_on,0,0,0,,1,,,49,127
85189,note_off,168,0,0,,12,,,71,127
85191,note_on,2,0,0,,10,,,69,127
85359,note_off,168,0,0,,10,,,69,127
85361,note_on,2,0,0,,12,,,71,127
85446,note_off,85,0,0,,1,,,49,127
85529,note_off,83,0,0,,12,,,71,127
85531,note_on,2,0,0,,1,,,73,127
85531,note_on,0,0,0,,10,,,57,127
85531,note_on,0,0,0,,6,,,54,127
85699,note_off,168,0,0,,6,,,54,127
85699,note_off,0,0,0,,10,,,57,127
85699,note_off,0,0,0,,1,,,73,127
85701,note_on,2,0,0,,2,,,74,127
85701,note_on,0,0,0,,12,,,59,127
85701,note_on,0,0,0,,12,,,47,127
85869,note_off,168,0,0,,2,,,74,127
85871,note_on,2,0,0,,1,,,73,127
86039,note_off,168,0,0,,1,,,73,127
86041,note_on,2,0,0,,12,,,71,127
86209,note_off,168,0,0,,12,,,71,127
86209,note_off,0,0,0,,12,,,47,127
86209,note_off,0,0,0,,12,,,59,127
86211,note_on,2,0,0,,10,,,69,127
86211,note_on,0,0,0,,12,,,59,127
86211,note_on,0,0,0,,2,,,50,127
86379,note_off,168,0,0,,10,,,69,127
86381,note_on,2,0,0,,8,,,68,127
86549,note_off,168,0,0,,8,,,68,127
86551,note_on,2,0,0,,6,,,66,127
86719,note_off,168,0,0,,6,,,66,127
86719,note_off,0,0,0,,2,,,50,127
86719,note_off,0,0,0,,12,,,59,127
86721,note_on,2,0,0,,6,,,66,127
86721,note_on,0,0,0,,1,,,61,127
86721,note_on,0,0,0,,1,,,49,127
87058,note_off,337,0,0,,6,,,66,127
87060,note_on,2,0,0,,8,,,68,127
87398,note_off,338,0,0,,1,,,49,127
87398,note_off,0,0,0,,1,,,61,127
87484,note_off,86,0,0,,8,,,68,127
87569,note_on,85,0,0,,8,,,68,127
87737,note_off,168,0,0,,8,,,68,127
87739,note_on,2,0,0,,8,,,68,127
87907,note_off,168,0,0,,8,,,68,127
87909,note_on,2,0,0,,10,,,69,127
88077,note_off,168,0,0,,10,,,69,127
88079,note_on,2,0,0,,10,,,69,127
88247,note_off,168,0,0,,10,,,69,127
88249,note_on,2,0,0,,10,,,69,127
88249,note_on,0,0,0,,4,,,64,127
88249,note_on,0,0,0,,1,,,61,127
88417,note_off,168,0,0,,10,,,69,127
88419,note_on,2,0,0,,11,,,70,127
88587,note_off,168,0,0,,11,,,70,127
88589,note_on,2,0,0,,11,,,70,127
88757,note_off,168,0,0,,11,,,70,127
88757,note_off,0,0,0,,1,,,61,127
88757,note_off,0,0,0,,4,,,64,127
88759,note_on,2,0,0,,11,,,70,127
88759,note_on,0,0,0,,6,,,66,127
88759,note_on,0,0,0,,2,,,62,127
88927,note_off,168,0,0,,11,,,70,127
88929,note_on,2,0,0,,12,,,71,127
89097,note_off,168,0,0,,12,,,71,127
89099,note_on,2,0,0,,11,,,70,127
89267,note_off,168,0,0,,11,,,70,127
89267,note_off,0,0,0,,2,,,62,127
89267,note_off,0,0,0,,6,,,66,127
89269,note_on,2,0,0,,12,,,71,127
89269,note_on,0,0,0,,6,,,66,127
89269,note_on,0,0,0,,2,,,62,127
89437,note_off,168,0,0,,12,,,71,127
89439,note_on,2,0,0,,11,,,70,127
89607,note_off,168,0,0,,11,,,70,127
89609,note_on,2,0,0,,11,,,70,127
89777,note_off,168,0,0,,11,,,70,127
89778,note_off,1,0,0,,2,,,62,127
89778,note_off,0,0,0,,6,,,66,127
89779,note_on,1,0,0,,11,,,70,127
89947,note_off,168,0,0,,11,,,70,127
89949,note_on,2,0,0,,12,,,71,127
90117,note_off,168,0,0,,12,,,71,127
90119,note_on,2,0,0,,12,,,71,127
90287,note_off,168,0,0,,12,,,71,127
90289,note_on,2,0,0,,12,,,71,127
90289,note_on,0,0,0,,3,,,63,127
90289,note_on,0,0,0,,6,,,66,127
90457,note_off,168,0,0,,12,,,71,127
90459,note_on,2,0,0,,0,,,72,127
90627,note_off,168,0,0,,0,,,72,127
90629,note_on,2,0,0,,0,,,72,127
90797,note_off,168,0,0,,0,,,72,127
90797,note_off,0,0,0,,6,,,66,127
90797,note_off,0,0,0,,3,,,63,127
90799,note_on,2,0,0,,0,,,72,127
90799,note_on,0,0,0,,5,,,65,127
90799,note_on,0,0,0,,8,,,68,127
90967,note_off,168,0,0,,0,,,72,127
90969,note_on,2,0,0,,1,,,73,127
91137,note_off,168,0,0,,1,,,73,127
91139,note_on,2,0,0,,0,,,72,127
91307,note_off,168,0,0,,0,,,72,127
91307,note_off,0,0,0,,8,,,68,127
91307,note_off,0,0,0,,5,,,65,127
91309,note_on,2,0,0,,1,,,73,127
91309,note_on,0,0,0,,8,,,68,127
91309,note_on,0,0,0,,5,,,65,127
91477,note_off,168,0,0,,1,,,73,127
91479,note_on,2,0,0,,1,,,73,127
91647,note_off,168,0,0,,1,,,73,127
91649,note_on,2,0,0,,1,,,73,127
91817,note_off,168,0,0,,1,,,73,127
91817,note_off,0,0,0,,5,,,65,127
91817,note_off,0,0,0,,8,,,68,127
91819,note_on,2,0,0,,1,,,73,127
91819,note_on,0,0,0,,6,,,66,127
91819,note_on,0,0,0,,10,,,69,127
91987,note_off,168,0,0,,1,,,73,127
91989,note_on,2,0,0,,2,,,74,127
92157,note_off,168,0,0,,2,,,74,127
92159,note_on,2,0,0,,2,,,74,127
92327,note_off,168,0,0,,2,,,74,127
92327,note_off,0,0,0,,10,,,69,127
92327,note_off,0,0,0,,6,,,66,127
92329,note_on,2,0,0,,2,,,74,127
92329,note_on,0,0,0,,12,,,59,127
92329,note_on,0,0,0,,2,,,62,127
92329,note_on,0,0,0,,6,,,66,127
92497,note_off,168,0,0,,2,,,74,127
92499,note_on,2,0,0,,5,,,77,127
92667,note_off,168,0,0,,5,,,77,127
92669,note_on,2,0,0,,5,,,77,127
92837,note_off,168,0,0,,5,,,77,127
92837,note_off,0,0,0,,6,,,66,127
92837,note_off,0,0,0,,2,,,62,127
92837,note_off,0,0,0,,12,,,59,127
92839,note_on,2,0,0,,5,,,77,127
92839,note_on,0,0,0,,10,,,57,127
92839,note_on,0,0,0,,1,,,61,127
92839,note_on,0,0,0,,6,,,66,127
93007,note_off,168,0,0,,5,,,77,127
93009,note_on,2,0,0,,6,,,78,127
93177,note_off,168,0,0,,6,,,78,127
93179,note_on,2,0,0,,5,,,77,127
93347,note_off,168,0,0,,5,,,77,127
93347,note_off,0,0,0,,6,,,66,127
93347,note_off,0,0,0,,1,,,61,127
93347,note_off,0,0,0,,10,,,57,127
93349,note_on,2,0,0,,6,,,78,127
93349,note_on,0,0,0,,10,,,57,127
93349,note_on,0,0,0,,1,,,61,127
93349,note_on,0,0,0,,6,,,66,127
93517,note_off,168,0,0,,6,,,78,127
93519,note_on,2,0,0,,8,,,80,127
93687,note_off,168,0,0,,8,,,80,127
93689,note_on,2,0,0,,10,,,81,127
93857,note_off,168,0,0,,10,,,81,127
93857,note_off,0,0,0,,6,,,66,127
93857,note_off,0,0,0,,1,,,61,127
93857,note_off,0,0,0,,10,,,57,127
93859,note_on,2,0,0,,8,,,80,127
93859,note_on,0,0,0,,2,,,74,127
93859,note_on,0,0,0,,12,,,71,127
93859,note_on,0,0,0,,12,,,59,127
93859,note_on,0,0,0,,6,,,66,127
94027,note_off,168,0,0,,8,,,80,127
94029,note_on,2,0,0,,10,,,81,127
94197,note_off,168,0,0,,10,,,81,127
94199,note_on,2,0,0,,12,,,83,127
94367,note_off,168,0,0,,6,,,66,127
94367,note_off,0,0,0,,12,,,59,127
94367,note_off,0,0,0,,12,,,71,127
94367,note_off,0,0,0,,2,,,74,127
94369,note_on,2,0,0,,1,,,73,127
94369,note_on,0,0,0,,12,,,71,127
94369,note_on,0,0,0,,1,,,61,127
94369,note_on,0,0,0,,8,,,68,127
94537,note_off,168,0,0,,12,,,83,127
94539,note_on,2,0,0,,10,,,81,127
94707,note_off,168,0,0,,10,,,81,127
94709,note_on,2,0,0,,8,,,80,127
94877,note_off,168,0,0,,8,,,80,127
94877,note_off,0,0,0,,8,,,68,127
94877,note_off,0,0,0,,1,,,61,127
94877,note_off,0,0,0,,12,,,71,127
94877,note_off,0,0,0,,1,,,73,127
94879,note_on,2,0,0,,6,,,78,127
94879,note_on,0,0,0,,6,,,66,127
94879,note_on,0,0,0,,10,,,69,127
95047,note_off,168,0,0,,6,,,78,127
95049,note_on,2,0,0,,1,,,73,127
95217,note_off,168,0,0,,1,,,73,127
95219,note_on,2,0,0,,10,,,81,127
95387,note_off,168,0,0,,10,,,81,127
95389,note_on,2,0,0,,1,,,85,127
95640,note_off,251,0,0,,6,,,66,127
95726,note_off,86,0,0,,10,,,69,127
95728,note_on,2,0,0,,10,,,69,127
95728,note_on,0,0,0,,6,,,66,127
95896,note_off,168,0,0,,6,,,66,127
95896,note_off,0,0,0,,10,,,69,127
95898,note_on,2,0,0,,8,,,68,127
95898,note_on,0,0,0,,5,,,65,127
96066,note_off,168,0,0,,1,,,85,127
96068,note_on,2,0,0,,1,,,73,127
96236,note_off,168,0,0,,1,,,73,127
96236,note_off,0,0,0,,5,,,65,127
96238,note_on,2,0,0,,8,,,80,127
96238,note_on,0,0,0,,1,,,61,127
96406,note_off,168,0,0,,8,,,80,127
96408,note_on,2,0,0,,1,,,85,127
96659,note_off,251,0,0,,8,,,68,127
96663,note_off,4,0,0,,1,,,61,127
96748,note_on,85,0,0,,6,,,66,127
96748,note_on,0,0,0,,10,,,69,127
96916,note_off,168,0,0,,10,,,69,127
96916,note_off,0,0,0,,6,,,66,127
96918,note_on,2,0,0,,8,,,68,127
96918,note_on,0,0,0,,5,,,65,127
97086,note_off,168,0,0,,1,,,85,127
97088,note_on,2,0,0,,1,,,73,127
97256,note_off,168,0,0,,1,,,73,127
97256,note_off,0,0,0,,5,,,65,127
97258,note_on,2,0,0,,8,,,80,127
97258,note_on,0,0,0,,1,,,61,127
97426,note_off,168,0,0,,8,,,80,127
97428,note_on,2,0,0,,1,,,85,127
97679,note_off,251,0,0,,8,,,68,127
97683,note_off,4,0,0,,1,,,61,127
97768,note_on,85,0,0,,1,,,61,127
97768,note_on,0,0,0,,5,,,65,127
97936,note_off,168,0,0,,5,,,65,127
97936,note_off,0,0,0,,1,,,61,127
97938,note_on,2,0,0,,6,,,66,127
97938,note_on,0,0,0,,10,,,57,127
97938,note_on,0,0,0,,1,,,61,127
98106,note_off,168,0,0,,1,,,85,127
98108,note_on,2,0,0,,12,,,83,127
98276,note_off,168,0,0,,12,,,83,127
98278,note_on,2,0,0,,10,,,81,127
98446,note_off,168,0,0,,10,,,81,127
98446,note_off,0,0,0,,1,,,61,127
98446,note_off,0,0,0,,10,,,57,127
98446,note_off,0,0,0,,6,,,66,127
98448,note_on,2,0,0,,8,,,80,127
98448,note_on,0,0,0,,12,,,71,127
98448,note_on,0,0,0,,8,,,68,127
98448,note_on,0,0,0,,6,,,66,127
98448,note_on,0,0,0,,12,,,59,127
98616,note_off,168,0,0,,8,,,80,127
98618,note_on,2,0,0,,10,,,81,127
98786,note_off,168,0,0,,10,,,81,127
98788,note_on,2,0,0,,6,,,78,127
98956,note_off,168,0,0,,6,,,78,127
98956,note_off,0,0,0,,12,,,59,127
98956,note_off,0,0,0,,6,,,66,127
98956,note_off,0,0,0,,8,,,68,127
98956,note_off,0,0,0,,12,,,71,127
98958,note_on,2,0,0,,1,,,73,127
98958,note_on,0,0,0,,12,,,71,127
98958,note_on,0,0,0,,8,,,68,127
98958,note_on,0,0,0,,1,,,61,127
99126,note_off,168,0,0,,1,,,73,127
99128,note_on,2,0,0,,8,,,80,127
99296,note_off,168,0,0,,8,,,80,127
99298,note_on,2,0,0,,12,,,83,127
99466,note_off,168,0,0,,12,,,83,127
99468,note_on,2,0,0,,12,,,83,127
99636,note_off,168,0,0,,12,,,83,127
99637,note_off,1,0,0,,8,,,68,127
99637,note_off,0,0,0,,12,,,71,127
99638,note_on,1,0,0,,10,,,81,127
99719,note_off,81,0,0,,1,,,61,127
99807,note_on,88,0,0,,10,,,69,127
99807,note_on,0,0,0,,6,,,66,127
99975,note_off,168,0,0,,6,,,66,127
99975,note_off,0,0,0,,10,,,69,127
99975,note_off,0,0,0,,10,,,81,127
99977,note_on,2,0,0,,1,,,73,127
99977,note_on,0,0,0,,8,,,68,127
99977,note_on,0,0,0,,5,,,65,127
100145,note_off,168,0,0,,1,,,73,127
100147,note_on,2,0,0,,8,,,80,127
100315,note_off,168,0,0,,8,,,80,127
100315,note_off,0,0,0,,5,,,65,127
100317,note_on,2,0,0,,12,,,83,127
100317,note_on,0,0,0,,1,,,61,127
100485,note_off,168,0,0,,12,,,83,127
100487,note_on,2,0,0,,12,,,83,127
100655,note_off,168,0,0,,12,,,83,127
100656,note_off,1,0,0,,8,,,68,127
100657,note_on,1,0,0,,10,,,81,127
100825,note_off,168,0,0,,1,,,61,127
100827,note_on,2,0,0,,6,,,66,127
100827,note_on,0,0,0,,10,,,69,127
100995,note_off,168,0,0,,10,,,69,127
100995,note_off,0,0,0,,6,,,66,127
100995,note_off,0,0,0,,10,,,81,127
100997,note_on,2,0,0,,1,,,73,127
100997,note_on,0,0,0,,5,,,65,127
100997,note_on,0,0,0,,8,,,68,127
101165,note_off,168,0,0,,1,,,73,127
101167,note_on,2,0,0,,8,,,80,127
101335,note_off,168,0,0,,8,,,80,127
101335,note_off,0,0,0,,5,,,65,127
101337,note_on,2,0,0,,12,,,83,127
101337,note_on,0,0,0,,1,,,61,127
101505,note_off,168,0,0,,12,,,83,127
101507,note_on,2,0,0,,12,,,83,127
101675,note_off,168,0,0,,12,,,83,127
101676,note_off,1,0,0,,8,,,68,127
101677,note_on,1,0,0,,10,,,81,127
101845,note_off,168,0,0,,10,,,81,127
101845,note_off,0,0,0,,1,,,61,127
101847,note_on,2,0,0,,1,,,73,127
101847,note_on,0,0,0,,6,,,66,127
101847,note_on,0,0,0,,10,,,57,127
102015,note_off,168,0,0,,10,,,57,127
102015,note_off,0,0,0,,6,,,66,127
102017,note_on,2,0,0,,2,,,74,127
102017,note_on,0,0,0,,6,,,66,127
102017,note_on,0,0,0,,12,,,59,127
102185,note_off,168,0,0,,1,,,73,127
102187,note_on,2,0,0,,8,,,80,127
102355,note_off,168,0,0,,8,,,80,127
102355,note_off,0,0,0,,2,,,74,127
102357,note_on,2,0,0,,6,,,78,127
102357,note_on,0,0,0,,12,,,71,127
102525,note_off,168,0,0,,12,,,71,127
102525,note_off,0,0,0,,6,,,78,127
102526,note_off,1,0,0,,12,,,59,127
102526,note_off,0,0,0,,6,,,66,127
102527,note_on,1,0,0,,1,,,73,127
102527,note_on,0,0,0,,10,,,69,127
102527,note_on,0,0,0,,6,,,66,127
102527,note_on,0,0,0,,1,,,61,127
102696,note_on,169,0,0,,8,,,80,127
102864,note_off,168,0,0,,8,,,80,127
102864,note_off,0,0,0,,6,,,66,127
102864,note_off,0,0,0,,10,,,69,127
102864,note_off,0,0,0,,1,,,73,127
102866,note_on,2,0,0,,5,,,77,127
102866,note_on,0,0,0,,12,,,71,127
102866,note_on,0,0,0,,8,,,68,127
103034,note_off,168,0,0,,8,,,68,127
103034,note_off,0,0,0,,12,,,71,127
103034,note_off,0,0,0,,5,,,77,127
103035,note_off,1,0,0,,1,,,61,127
103036,note_on,1,0,0,,6,,,78,127
103036,note_on,0,0,0,,6,,,54,127
103204,note_off,168,0,0,,6,,,54,127
103214,note_on,10,0,0,,1,,,61,127
103372,note_off,158,0,0,,6,,,78,127
103382,note_off,10,0,0,,1,,,61,127
103392,note_on,10,0,0,,12,,,71,127
103560,note_off,168,0,0,,12,,,71,127
103562,note_on,2,0,0,,12,,,71,127
103899,note_off,337,0,0,,12,,,71,127
103901,note_on,2,0,0,,10,,,57,127
103901,note_on,0,0,0,,6,,,54,127
103901,note_on,0,0,0,,10,,,69,127
104069,note_off,168,0,0,,6,,,54,127
104069,note_off,0,0,0,,10,,,57,127
104071,note_on,2,0,0,,8,,,56,127
104071,note_on,0,0,0,,5,,,53,127
104071,note_on,0,0,0,,12,,,59,127
104071,note_on,0,0,0,,1,,,61,127
104239,note_off,168,0,0,,10,,,69,127
104241,note_on,2,0,0,,8,,,68,127
104409,note_off,168,0,0,,8,,,68,127
104409,note_off,0,0,0,,12,,,59,127
104409,note_off,0,0,0,,5,,,53,127
104409,note_off,0,0,0,,8,,,56,127
104411,note_on,2,0,0,,1,,,49,127
104411,note_on,0,0,0,,12,,,71,127
104579,note_off,168,0,0,,12,,,71,127
104581,note_on,2,0,0,,12,,,71,127
104750,note_off,169,0,0,,1,,,61,127
104919,note_off,169,0,0,,12,,,71,127
104919,note_off,0,0,0,,1,,,49,127
104921,note_on,2,0,0,,6,,,54,127
104921,note_on,0,0,0,,10,,,57,127
104921,note_on,0,0,0,,10,,,69,127
105089,note_off,168,0,0,,10,,,69,127
105089,note_off,0,0,0,,10,,,57,127
105089,note_off,0,0,0,,6,,,54,127
105091,note_on,2,0,0,,5,,,53,127
105091,note_on,0,0,0,,8,,,56,127
105091,note_on,0,0,0,,12,,,59,127
105091,note_on,0,0,0,,1,,,61,127
105259,note_off,168,0,0,,1,,,61,127
105261,note_on,2,0,0,,8,,,68,127
105422,note_off,161,0,0,,8,,,68,127
105428,note_off,6,0,0,,8,,,56,127
105428,note_off,0,0,0,,5,,,53,127
105430,note_on,2,0,0,,1,,,49,127
105430,note_on,0,0,0,,12,,,71,127
105541,note_off,111,0,0,,12,,,59,127
105552,note_off,11,0,0,,12,,,71,127
105599,note_on,47,0,0,,10,,,69,127
105710,note_off,111,0,0,,1,,,49,127
105938,note_on,228,0,0,,10,,,57,127
105938,note_on,0,0,0,,6,,,54,127
105938,note_on,0,0,0,,1,,,61,127
106106,note_off,168,0,0,,1,,,61,127
106106,note_off,0,0,0,,6,,,54,127
106106,note_off,0,0,0,,10,,,57,127
106108,note_on,2,0,0,,6,,,54,127
106108,note_on,0,0,0,,12,,,47,127
106108,note_on,0,0,0,,2,,,62,127
106277,note_off,169,0,0,,10,,,69,127
106278,note_on,1,0,0,,8,,,68,127
106446,note_off,168,0,0,,8,,,68,127
106446,note_off,0,0,0,,6,,,54,127
106448,note_on,2,0,0,,12,,,59,127
106448,note_on,0,0,0,,6,,,66,127
106616,note_off,168,0,0,,6,,,66,127
106616,note_off,0,0,0,,12,,,59,127
106617,note_off,1,0,0,,2,,,62,127
106617,note_off,0,0,0,,12,,,47,127
106618,note_on,1,0,0,,1,,,49,127
106618,note_on,0,0,0,,6,,,54,127
106618,note_on,0,0,0,,10,,,57,127
106618,note_on,0,0,0,,1,,,61,127
106618,note_on,0,0,0,,6,,,66,127
106786,note_off,168,0,0,,6,,,66,127
106788,note_on,2,0,0,,8,,,68,127
106956,note_off,168,0,0,,8,,,68,127
106956,note_off,0,0,0,,10,,,57,127
106956,note_off,0,0,0,,6,,,54,127
106958,note_on,2,0,0,,8,,,56,127
106958,note_on,0,0,0,,12,,,59,127
106958,note_on,0,0,0,,5,,,65,127
107126,note_off,168,0,0,,5,,,65,127
107126,note_off,0,0,0,,12,,,59,127
107126,note_off,0,0,0,,8,,,56,127
107127,note_off,1,0,0,,1,,,61,127
107127,note_off,0,0,0,,1,,,49,127
107128,note_on,1,0,0,,6,,,42,127
107128,note_on,0,0,0,,6,,,54,127
107128,note_on,0,0,0,,6,,,66,127
107296,note_off,168,0,0,,6,,,66,127
107298,note_on,2,0,0,,10,,,69,127
107466,note_off,168,0,0,,10,,,69,127
107468,note_on,2,0,0,,1,,,73,127
107636,note_off,168,0,0,,1,,,73,127
107638,note_on,2,0,0,,6,,,78,127
107806,note_off,168,0,0,,6,,,78,127
107807,note_off,1,0,0,,6,,,54,127
107807,note_off,0,0,0,,6,,,42,127
107808,note_on,1,0,0,,10,,,81,127
107976,note_off,168,0,0,,10,,,81,127
107978,note_on,2,0,0,,6,,,78,127
108146,note_off,168,0,0,,6,,,78,127
108148,note_on,2,0,0,,6,,,54,127
108148,note_on,0,0,0,,12,,,47,127
108148,note_on,0,0,0,,12,,,59,127
108148,note_on,0,0,0,,4,,,76,127
108148,note_on,0,0,0,,2,,,74,127
108316,note_off,168,0,0,,2,,,74,127
108316,note_off,0,0,0,,4,,,76,127
108318,note_on,2,0,0,,1,,,73,127
108486,note_off,168,0,0,,1,,,73,127
108488,note_on,2,0,0,,12,,,71,127
108656,note_off,168,0,0,,12,,,71,127
108656,note_off,0,0,0,,12,,,59,127
108656,note_off,0,0,0,,12,,,47,127
108656,note_off,0,0,0,,6,,,54,127
108658,note_on,2,0,0,,1,,,49,127
108658,note_on,0,0,0,,6,,,54,127
108658,note_on,0,0,0,,8,,,56,127
108658,note_on,0,0,0,,12,,,59,127
108658,note_on,0,0,0,,10,,,69,127
108826,note_off,168,0,0,,10,,,69,127
108828,note_on,2,0,0,,12,,,71,127
108996,note_off,168,0,0,,12,,,71,127
108998,note_on,2,0,0,,8,,,68,127
109166,note_off,168,0,0,,8,,,68,127
109166,note_off,0,0,0,,12,,,59,127
109166,note_off,0,0,0,,8,,,56,127
109166,note_off,0,0,0,,6,,,54,127
109166,note_off,0,0,0,,1,,,49,127
109168,note_on,2,0,0,,6,,,42,127
109168,note_on,0,0,0,,6,,,54,127
109168,note_on,0,0,0,,10,,,69,127
109251,note_off,83,0,0,,10,,,69,127
109253,note_on,2,0,0,,12,,,71,127
109336,note_off,83,0,0,,12,,,71,127
109338,note_on,2,0,0,,10,,,69,127
109421,note_off,83,0,0,,10,,,69,127
109423,note_on,2,0,0,,8,,,68,127
109506,note_off,83,0,0,,8,,,68,127
109508,note_on,2,0,0,,6,,,66,127
109591,note_off,83,0,0,,6,,,66,127
109593,note_on,2,0,0,,4,,,64,127
109676,note_off,83,0,0,,4,,,64,127
109677,note_off,1,0,0,,6,,,54,127
109677,note_off,0,0,0,,6,,,42,127
109678,note_on,1,0,0,,2,,,62,127
109761,note_off,83,0,0,,2,,,62,127
109763,note_on,2,0,0,,1,,,61,127
109846,note_off,83,0,0,,1,,,61,127
109848,note_on,2,0,0,,12,,,59,127
109931,note_off,83,0,0,,12,,,59,127
109933,note_on,2,0,0,,10,,,57,127
110016,note_off,83,0,0,,10,,,57,127
110018,note_on,2,0,0,,8,,,56,127
110101,note_off,83,0,0,,8,,,56,127
110103,note_on,2,0,0,,6,,,54,127
110214,note_on,111,0,0,,2,,,62,127
110214,note_on,0,0,0,,12,,,47,127
110221,note_off,7,0,0,,6,,,54,127
110382,note_off,161,0,0,,2,,,62,127
110390,note_on,8,0,0,,1,,,61,127
110558,note_off,168,0,0,,1,,,61,127
110560,note_on,2,0,0,,12,,,59,127
110722,note_off,162,0,0,,12,,,47,127
110728,note_off,6,0,0,,12,,,59,127
110730,note_on,2,0,0,,1,,,49,127
110730,note_on,0,0,0,,10,,,57,127
110898,note_off,168,0,0,,10,,,57,127
110900,note_on,2,0,0,,12,,,59,127
111068,note_off,168,0,0,,12,,,59,127
111070,note_on,2,0,0,,8,,,56,127
111238,note_off,168,0,0,,8,,,56,127
111238,note_off,0,0,0,,1,,,49,127
111256,note_on,18,0,0,,6,,,54,127
111256,note_on,0,0,0,,6,,,42,127
112844,note_off,1588,0,0,,6,,,42,127
112844,note_off,0,0,0,,6,,,54,127
118272,end_of_track,5428,1,0,,,,,,
