tick,type,time,meta,track,program,channel,pitch,tempo,note,velocity
0,copyright,0,1,0,,,,,,
0,program_change,0,0,0,6,0,,,,
0,pitchwheel,0,0,0,,0,0,,,
0,program_change,0,0,0,6,1,,,,
0,pitchwheel,0,0,0,,1,-590,,,
0,program_change,0,0,0,6,2,,,,
0,pitchwheel,0,0,0,,2,-272,,,
0,program_change,0,0,0,6,3,,,,
0,pitchwheel,0,0,0,,3,-353,,,
0,program_change,0,0,0,6,4,,,,
0,pitchwheel,0,0,0,,4,-560,,,
0,program_change,0,0,0,6,5,,,,
0,pitchwheel,0,0,0,,5,-80,,,
0,program_change,0,0,0,6,6,,,,
0,pitchwheel,0,0,0,,6,-625,,,
0,program_change,0,0,0,6,7,,,,
0,pitchwheel,0,0,0,,7,-130,,,
0,program_change,0,0,0,6,8,,,,
0,pitchwheel,0,0,0,,8,-512,,,
0,program_change,0,0,0,6,10,,,,
0,pitchwheel,0,0,0,,10,-464,,,
0,program_change,0,0,0,6,11,,,,
0,pitchwheel,0,0,0,,11,-208,,,
0,program_change,0,0,0,6,12,,,,
0,pitchwheel,0,0,0,,12,-553,,,
0,set_tempo,0,1,0,,,,500000,,
48,note_on,48,0,0,,0,,,36,127
48,note_on,0,0,0,,7,,,43,127
48,note_on,0,0,0,,0,,,48,127
48,note_on,0,0,0,,0,,,84,127
192,note_on,144,0,0,,7,,,79,127
218,note_off,26,0,0,,0,,,84,127
329,note_off,111,0,0,,7,,,79,127
336,note_on,7,0,0,,4,,,76,127
473,note_off,137,0,0,,4,,,76,127
480,note_on,7,0,0,,0,,,72,127
617,note_off,137,0,0,,0,,,72,127
624,note_on,7,0,0,,7,,,67,127
761,note_off,137,0,0,,7,,,67,127
768,note_on,7,0,0,,4,,,64,127
905,note_off,137,0,0,,4,,,64,127
909,note_off,4,0,0,,0,,,48,127
912,note_on,3,0,0,,0,,,60,127
1053,note_off,141,0,0,,7,,,43,127
1056,note_on,3,0,0,,7,,,55,127
1082,note_off,26,0,0,,0,,,60,127
1193,note_off,111,0,0,,7,,,55,127
1199,note_off,6,0,0,,0,,,36,127
1201,note_on,2,0,0,,4,,,52,127
1338,note_off,137,0,0,,4,,,52,127
1345,note_on,7,0,0,,0,,,48,127
1482,note_off,137,0,0,,0,,,48,127
1489,note_on,7,0,0,,7,,,43,127
1626,note_off,137,0,0,,7,,,43,127
1633,note_on,7,0,0,,4,,,40,127
1770,note_off,137,0,0,,4,,,40,127
1777,note_on,7,0,0,,0,,,36,127
2105,note_on,328,0,0,,10,,,81,127
2174,note_off,69,0,0,,10,,,81,127
2177,note_on,3,0,0,,7,,,79,127
2197,note_off,20,0,0,,0,,,36,127
2246,note_off,49,0,0,,7,,,79,127
2249,note_on,3,0,0,,10,,,81,127
2318,note_off,69,0,0,,10,,,81,127
2321,note_on,3,0,0,,7,,,79,127
2390,note_off,69,0,0,,7,,,79,127
2393,note_on,3,0,0,,4,,,64,127
2393,note_on,0,0,0,,10,,,81,127
2462,note_off,69,0,0,,10,,,81,127
2465,note_on,3,0,0,,7,,,79,127
2534,note_off,69,0,0,,7,,,79,127
2537,note_on,3,0,0,,5,,,77,127
2606,note_off,69,0,0,,5,,,77,127
2609,note_on,3,0,0,,7,,,79,127
2678,note_off,69,0,0,,7,,,79,127
2678,note_off,0,0,0,,4,,,64,127
2681,note_on,3,0,0,,5,,,65,127
2681,note_on,0,0,0,,8,,,80,127
2822,note_off,141,0,0,,8,,,80,127
2825,note_on,3,0,0,,10,,,81,127
2966,note_off,141,0,0,,10,,,81,127
2969,note_on,3,0,0,,5,,,77,127
3110,note_off,141,0,0,,5,,,77,127
3113,note_on,3,0,0,,2,,,74,127
3206,note_off,93,0,0,,5,,,65,127
3254,note_off,48,0,0,,2,,,74,127
3257,note_on,3,0,0,,7,,,67,127
3257,note_on,0,0,0,,0,,,72,127
3398,note_off,141,0,0,,0,,,72,127
3401,note_on,3,0,0,,12,,,71,127
3542,note_off,141,0,0,,12,,,71,127
3542,note_off,0,0,0,,7,,,67,127
3545,note_on,3,0,0,,10,,,69,127
3545,note_on,0,0,0,,12,,,71,127
3686,note_off,141,0,0,,12,,,71,127
3689,note_on,3,0,0,,0,,,72,127
3830,note_off,141,0,0,,0,,,72,127
3833,note_on,3,0,0,,10,,,81,127
3902,note_off,69,0,0,,10,,,81,127
3905,note_on,3,0,0,,7,,,79,127
3974,note_off,69,0,0,,7,,,79,127
3977,note_on,3,0,0,,10,,,81,127
3995,note_off,18,0,0,,10,,,69,127
4046,note_off,51,0,0,,10,,,81,127
4049,note_on,3,0,0,,7,,,79,127
4118,note_off,69,0,0,,7,,,79,127
4121,note_on,3,0,0,,4,,,64,127
4121,note_on,0,0,0,,10,,,81,127
4190,note_off,69,0,0,,10,,,81,127
4193,note_on,3,0,0,,7,,,79,127
4262,note_off,69,0,0,,7,,,79,127
4265,note_on,3,0,0,,5,,,77,127
4334,note_off,69,0,0,,5,,,77,127
4337,note_on,3,0,0,,7,,,79,127
4406,note_off,69,0,0,,7,,,79,127
4406,note_off,0,0,0,,4,,,64,127
4409,note_on,3,0,0,,5,,,65,127
4409,note_on,0,0,0,,8,,,80,127
4550,note_off,141,0,0,,8,,,80,127
4553,note_on,3,0,0,,10,,,81,127
4694,note_off,141,0,0,,10,,,81,127
4697,note_on,3,0,0,,5,,,77,127
4838,note_off,141,0,0,,5,,,77,127
4841,note_on,3,0,0,,2,,,74,127
4982,note_off,141,0,0,,2,,,74,127
4982,note_off,0,0,0,,5,,,65,127
4985,note_on,3,0,0,,7,,,67,127
4985,note_on,0,0,0,,0,,,72,127
5126,note_off,141,0,0,,0,,,72,127
5129,note_on,3,0,0,,12,,,71,127
5247,note_off,118,0,0,,7,,,67,127
5269,note_off,22,0,0,,12,,,71,127
5272,note_on,3,0,0,,4,,,64,127
5272,note_on,0,0,0,,2,,,74,127
5341,note_off,69,0,0,,2,,,74,127
5344,note_on,3,0,0,,0,,,72,127
5413,note_off,69,0,0,,0,,,72,127
5416,note_on,3,0,0,,2,,,74,127
5485,note_off,69,0,0,,2,,,74,127
5488,note_on,3,0,0,,0,,,72,127
5557,note_off,69,0,0,,0,,,72,127
5557,note_off,0,0,0,,4,,,64,127
5560,note_on,3,0,0,,5,,,65,127
5560,note_on,0,0,0,,4,,,76,127
5629,note_off,69,0,0,,4,,,76,127
5632,note_on,3,0,0,,2,,,74,127
5701,note_off,69,0,0,,2,,,74,127
5704,note_on,3,0,0,,4,,,76,127
5773,note_off,69,0,0,,4,,,76,127
5776,note_on,3,0,0,,2,,,74,127
5845,note_off,69,0,0,,2,,,74,127
5845,note_off,0,0,0,,5,,,65,127
5848,note_on,3,0,0,,7,,,67,127
5848,note_on,0,0,0,,5,,,77,127
5917,note_off,69,0,0,,5,,,77,127
5920,note_on,3,0,0,,4,,,76,127
5989,note_off,69,0,0,,4,,,76,127
5992,note_on,3,0,0,,5,,,77,127
6061,note_off,69,0,0,,5,,,77,127
6064,note_on,3,0,0,,4,,,76,127
6133,note_off,69,0,0,,4,,,76,127
6133,note_off,0,0,0,,7,,,67,127
6136,note_on,3,0,0,,10,,,69,127
6136,note_on,0,0,0,,7,,,79,127
6205,note_off,69,0,0,,7,,,79,127
6208,note_on,3,0,0,,5,,,77,127
6277,note_off,69,0,0,,5,,,77,127
6280,note_on,3,0,0,,7,,,79,127
6349,note_off,69,0,0,,7,,,79,127
6352,note_on,3,0,0,,5,,,77,127
6421,note_off,69,0,0,,5,,,77,127
6421,note_off,0,0,0,,10,,,69,127
6424,note_on,3,0,0,,12,,,71,127
6424,note_on,0,0,0,,7,,,79,127
6493,note_off,69,0,0,,7,,,79,127
6496,note_on,3,0,0,,5,,,77,127
6565,note_off,69,0,0,,5,,,77,127
6568,note_on,3,0,0,,7,,,79,127
6637,note_off,69,0,0,,7,,,79,127
6640,note_on,3,0,0,,10,,,81,127
6709,note_off,69,0,0,,10,,,81,127
6709,note_off,0,0,0,,12,,,71,127
6712,note_on,3,0,0,,7,,,67,127
6712,note_on,0,0,0,,7,,,79,127
6781,note_off,69,0,0,,7,,,79,127
6784,note_on,3,0,0,,5,,,77,127
6853,note_off,69,0,0,,5,,,77,127
6856,note_on,3,0,0,,4,,,76,127
6925,note_off,69,0,0,,4,,,76,127
6928,note_on,3,0,0,,2,,,74,127
6997,note_off,69,0,0,,2,,,74,127
6997,note_off,0,0,0,,7,,,67,127
7000,note_on,3,0,0,,4,,,64,127
7000,note_on,0,0,0,,2,,,74,127
7066,note_on,66,0,0,,0,,,72,127
7070,note_off,4,0,0,,2,,,74,127
7132,note_on,62,0,0,,2,,,74,127
7136,note_off,4,0,0,,0,,,72,127
7198,note_on,62,0,0,,0,,,72,127
7202,note_off,4,0,0,,2,,,74,127
7288,note_off,86,0,0,,4,,,64,127
7291,note_on,3,0,0,,5,,,65,127
7291,note_on,0,0,0,,4,,,76,127
7301,note_off,10,0,0,,0,,,72,127
7356,note_on,55,0,0,,2,,,74,127
7361,note_off,5,0,0,,4,,,76,127
7421,note_on,60,0,0,,4,,,76,127
7426,note_off,5,0,0,,2,,,74,127
7486,note_on,60,0,0,,2,,,74,127
7491,note_off,5,0,0,,4,,,76,127
7579,note_off,88,0,0,,5,,,65,127
7582,note_on,3,0,0,,7,,,67,127
7582,note_on,0,0,0,,5,,,77,127
7590,note_off,8,0,0,,2,,,74,127
7645,note_on,55,0,0,,4,,,76,127
7652,note_off,7,0,0,,5,,,77,127
7708,note_on,56,0,0,,5,,,77,127
7715,note_off,7,0,0,,4,,,76,127
7771,note_on,56,0,0,,4,,,76,127
7778,note_off,7,0,0,,5,,,77,127
7870,note_off,92,0,0,,7,,,67,127
7873,note_on,3,0,0,,10,,,69,127
7873,note_on,0,0,0,,7,,,79,127
7881,note_off,8,0,0,,4,,,76,127
7937,note_on,56,0,0,,5,,,77,127
7942,note_off,5,0,0,,7,,,79,127
8001,note_on,59,0,0,,7,,,79,127
8006,note_off,5,0,0,,5,,,77,127
8065,note_on,59,0,0,,5,,,77,127
8070,note_off,5,0,0,,7,,,79,127
8158,note_off,88,0,0,,10,,,69,127
8161,note_on,3,0,0,,12,,,71,127
8287,note_off,126,0,0,,5,,,77,127
8305,note_on,18,0,0,,7,,,79,127
8374,note_off,69,0,0,,7,,,79,127
8377,note_on,3,0,0,,10,,,81,127
8446,note_off,69,0,0,,10,,,81,127
8446,note_off,0,0,0,,12,,,71,127
8449,note_on,3,0,0,,7,,,67,127
8449,note_on,0,0,0,,7,,,79,127
8518,note_off,69,0,0,,7,,,79,127
8521,note_on,3,0,0,,5,,,77,127
8590,note_off,69,0,0,,5,,,77,127
8593,note_on,3,0,0,,4,,,76,127
8662,note_off,69,0,0,,4,,,76,127
8665,note_on,3,0,0,,2,,,74,127
8734,note_off,69,0,0,,2,,,74,127
8734,note_off,0,0,0,,7,,,67,127
8737,note_on,3,0,0,,4,,,64,127
8737,note_on,0,0,0,,2,,,74,127
8872,note_off,135,0,0,,2,,,74,127
8881,note_on,9,0,0,,0,,,72,127
9016,note_off,135,0,0,,0,,,72,127
9022,note_off,6,0,0,,4,,,64,127
9025,note_on,3,0,0,,5,,,65,127
9025,note_on,0,0,0,,4,,,76,127
9160,note_off,135,0,0,,4,,,76,127
9169,note_on,9,0,0,,2,,,74,127
9304,note_off,135,0,0,,2,,,74,127
9310,note_off,6,0,0,,5,,,65,127
9313,note_on,3,0,0,,7,,,67,127
9313,note_on,0,0,0,,5,,,77,127
9448,note_off,135,0,0,,5,,,77,127
9457,note_on,9,0,0,,4,,,76,127
9592,note_off,135,0,0,,4,,,76,127
9598,note_off,6,0,0,,7,,,67,127
9601,note_on,3,0,0,,10,,,69,127
9601,note_on,0,0,0,,7,,,79,127
9736,note_off,135,0,0,,7,,,79,127
9745,note_on,9,0,0,,5,,,77,127
9886,note_off,141,0,0,,10,,,69,127
9889,note_on,3,0,0,,12,,,71,127
10030,note_off,141,0,0,,5,,,77,127
10033,note_on,3,0,0,,7,,,79,127
10102,note_off,69,0,0,,7,,,79,127
10105,note_on,3,0,0,,10,,,81,127
10174,note_off,69,0,0,,10,,,81,127
10174,note_off,0,0,0,,12,,,71,127
10177,note_on,3,0,0,,7,,,67,127
10177,note_on,0,0,0,,7,,,79,127
10246,note_off,69,0,0,,7,,,79,127
10249,note_on,3,0,0,,5,,,77,127
10318,note_off,69,0,0,,5,,,77,127
10321,note_on,3,0,0,,4,,,76,127
10390,note_off,69,0,0,,4,,,76,127
10393,note_on,3,0,0,,2,,,74,127
10462,note_off,69,0,0,,2,,,74,127
10462,note_off,0,0,0,,7,,,67,127
10465,note_on,3,0,0,,0,,,72,127
10465,note_on,0,0,0,,4,,,76,127
10606,note_off,141,0,0,,4,,,76,127
10606,note_off,0,0,0,,0,,,72,127
10609,note_on,3,0,0,,7,,,67,127
10609,note_on,0,0,0,,2,,,74,127
10750,note_off,141,0,0,,2,,,74,127
10750,note_off,0,0,0,,7,,,67,127
10753,note_on,3,0,0,,4,,,64,127
10753,note_on,0,0,0,,0,,,72,127
10894,note_off,141,0,0,,0,,,72,127
10894,note_off,0,0,0,,4,,,64,127
10897,note_on,3,0,0,,0,,,60,127
10897,note_on,0,0,0,,12,,,71,127
11038,note_off,141,0,0,,12,,,71,127
11038,note_off,0,0,0,,0,,,60,127
11041,note_on,3,0,0,,7,,,55,127
11041,note_on,0,0,0,,0,,,72,127
11182,note_off,141,0,0,,0,,,72,127
11182,note_off,0,0,0,,7,,,55,127
11185,note_on,3,0,0,,4,,,52,127
11185,note_on,0,0,0,,2,,,74,127
11326,note_off,141,0,0,,2,,,74,127
11326,note_off,0,0,0,,4,,,52,127
11329,note_on,3,0,0,,0,,,48,127
11329,note_on,0,0,0,,4,,,76,127
11464,note_off,135,0,0,,4,,,76,127
11470,note_off,6,0,0,,0,,,48,127
11473,note_on,3,0,0,,7,,,43,127
11473,note_on,0,0,0,,2,,,74,127
11608,note_off,135,0,0,,2,,,74,127
11614,note_off,6,0,0,,7,,,43,127
11617,note_on,3,0,0,,4,,,40,127
11617,note_on,0,0,0,,0,,,72,127
11752,note_off,135,0,0,,0,,,72,127
11758,note_off,6,0,0,,4,,,40,127
11758,note_on,0,0,0,,12,,,71,127
11758,note_on,0,0,0,,0,,,36,127
11858,note_off,100,0,0,,0,,,36,127
11858,note_off,0,0,0,,12,,,71,127
11909,note_on,51,0,0,,0,,,72,127
12305,note_on,396,0,0,,0,,,60,127
12389,note_off,84,0,0,,0,,,72,127
12593,note_on,204,0,0,,5,,,65,127
12662,note_off,69,0,0,,5,,,65,127
12665,note_on,3,0,0,,4,,,64,127
12734,note_off,69,0,0,,4,,,64,127
12737,note_on,3,0,0,,5,,,65,127
12806,note_off,69,0,0,,5,,,65,127
12809,note_on,3,0,0,,4,,,64,127
12878,note_off,69,0,0,,4,,,64,127
12878,note_off,0,0,0,,0,,,60,127
12881,note_on,3,0,0,,2,,,62,127
12881,note_on,0,0,0,,0,,,60,127
12975,note_off,94,0,0,,2,,,62,127
12977,note_on,2,0,0,,4,,,64,127
13071,note_off,94,0,0,,4,,,64,127
13073,note_on,2,0,0,,6,,,66,127
13166,note_off,93,0,0,,0,,,60,127
13168,note_off,2,0,0,,6,,,66,127
13170,note_on,2,0,0,,7,,,67,127
13170,note_on,0,0,0,,2,,,62,127
13170,note_on,0,0,0,,12,,,59,127
13311,note_off,141,0,0,,7,,,67,127
13314,note_on,3,0,0,,10,,,69,127
13455,note_off,141,0,0,,10,,,69,127
13458,note_on,3,0,0,,12,,,71,127
13599,note_off,141,0,0,,12,,,71,127
13602,note_on,3,0,0,,0,,,72,127
13743,note_off,141,0,0,,0,,,72,127
13743,note_off,0,0,0,,12,,,59,127
13743,note_off,0,0,0,,2,,,62,127
13746,note_on,3,0,0,,1,,,73,127
13746,note_on,0,0,0,,12,,,59,127
13746,note_on,0,0,0,,2,,,62,127
13887,note_off,141,0,0,,1,,,73,127
13890,note_on,3,0,0,,2,,,74,127
14031,note_off,141,0,0,,2,,,74,127
14031,note_off,0,0,0,,2,,,62,127
14031,note_off,0,0,0,,12,,,59,127
14034,note_on,3,0,0,,4,,,64,127
14034,note_on,0,0,0,,0,,,60,127
14034,note_on,0,0,0,,10,,,57,127
14322,note_on,288,0,0,,2,,,74,127
14391,note_off,69,0,0,,2,,,74,127
14394,note_on,3,0,0,,0,,,72,127
14463,note_off,69,0,0,,0,,,72,127
14466,note_on,3,0,0,,2,,,74,127
14535,note_off,69,0,0,,2,,,74,127
14538,note_on,3,0,0,,0,,,72,127
14607,note_off,69,0,0,,0,,,72,127
14607,note_off,0,0,0,,10,,,57,127
14607,note_off,0,0,0,,0,,,60,127
14607,note_off,0,0,0,,4,,,64,127
14610,note_on,3,0,0,,12,,,71,127
14610,note_on,0,0,0,,4,,,64,127
14610,note_on,0,0,0,,10,,,57,127
14610,note_on,0,0,0,,0,,,60,127
14751,note_off,141,0,0,,12,,,71,127
14754,note_on,3,0,0,,0,,,72,127
14823,note_off,69,0,0,,0,,,72,127
14826,note_on,3,0,0,,2,,,74,127
14895,note_off,69,0,0,,2,,,74,127
14895,note_off,0,0,0,,0,,,60,127
14895,note_off,0,0,0,,10,,,57,127
14895,note_off,0,0,0,,4,,,64,127
14898,note_on,3,0,0,,4,,,76,127
14898,note_on,0,0,0,,4,,,64,127
14898,note_on,0,0,0,,7,,,55,127
14898,note_on,0,0,0,,0,,,60,127
15039,note_off,141,0,0,,4,,,76,127
15042,note_on,3,0,0,,5,,,77,127
15183,note_off,141,0,0,,5,,,77,127
15186,note_on,3,0,0,,6,,,78,127
15327,note_off,141,0,0,,6,,,78,127
15330,note_on,3,0,0,,7,,,79,127
15471,note_off,141,0,0,,7,,,79,127
15471,note_off,0,0,0,,0,,,60,127
15471,note_off,0,0,0,,7,,,55,127
15471,note_off,0,0,0,,4,,,64,127
15474,note_on,3,0,0,,8,,,80,127
15474,note_on,0,0,0,,4,,,64,127
15474,note_on,0,0,0,,0,,,60,127
15474,note_on,0,0,0,,7,,,55,127
15615,note_off,141,0,0,,8,,,80,127
15618,note_on,3,0,0,,10,,,81,127
15759,note_off,141,0,0,,10,,,81,127
15759,note_off,0,0,0,,7,,,55,127
15759,note_off,0,0,0,,0,,,60,127
15759,note_off,0,0,0,,4,,,64,127
15762,note_on,3,0,0,,0,,,60,127
15762,note_on,0,0,0,,2,,,62,127
15762,note_on,0,0,0,,5,,,53,127
15906,note_on,144,0,0,,10,,,81,127
16047,note_off,141,0,0,,10,,,81,127
16050,note_on,3,0,0,,5,,,77,127
16191,note_off,141,0,0,,5,,,77,127
16194,note_on,3,0,0,,2,,,74,127
16335,note_off,141,0,0,,2,,,74,127
16335,note_off,0,0,0,,5,,,53,127
16335,note_off,0,0,0,,2,,,62,127
16335,note_off,0,0,0,,0,,,60,127
16338,note_on,3,0,0,,0,,,72,127
16338,note_on,0,0,0,,2,,,62,127
16338,note_on,0,0,0,,5,,,53,127
16338,note_on,0,0,0,,12,,,59,127
16479,note_off,141,0,0,,0,,,72,127
16482,note_on,3,0,0,,12,,,71,127
16623,note_off,141,0,0,,12,,,71,127
16623,note_off,0,0,0,,12,,,59,127
16623,note_off,0,0,0,,5,,,53,127
16623,note_off,0,0,0,,2,,,62,127
16626,note_on,3,0,0,,0,,,72,127
16626,note_on,0,0,0,,7,,,55,127
16626,note_on,0,0,0,,0,,,60,127
16626,note_on,0,0,0,,4,,,52,127
16767,note_off,141,0,0,,0,,,72,127
16770,note_on,3,0,0,,2,,,74,127
16839,note_off,69,0,0,,2,,,74,127
16842,note_on,3,0,0,,4,,,76,127
16911,note_off,69,0,0,,4,,,76,127
16914,note_on,3,0,0,,5,,,77,127
16983,note_off,69,0,0,,5,,,77,127
16986,note_on,3,0,0,,7,,,79,127
17055,note_off,69,0,0,,7,,,79,127
17058,note_on,3,0,0,,10,,,81,127
17127,note_off,69,0,0,,10,,,81,127
17130,note_on,3,0,0,,12,,,83,127
17199,note_off,69,0,0,,12,,,83,127
17199,note_off,0,0,0,,4,,,52,127
17199,note_off,0,0,0,,0,,,60,127
17199,note_off,0,0,0,,7,,,55,127
17202,note_on,3,0,0,,0,,,84,127
17202,note_on,0,0,0,,0,,,60,127
17202,note_on,0,0,0,,4,,,52,127
17202,note_on,0,0,0,,7,,,55,127
17343,note_off,141,0,0,,0,,,84,127
17346,note_on,3,0,0,,7,,,79,127
17487,note_off,141,0,0,,7,,,79,127
17487,note_off,0,0,0,,7,,,55,127
17487,note_off,0,0,0,,4,,,52,127
17487,note_off,0,0,0,,0,,,60,127
17490,note_on,3,0,0,,7,,,79,127
17490,note_on,0,0,0,,5,,,77,127
17490,note_on,0,0,0,,2,,,50,127
17490,note_on,0,0,0,,5,,,53,127
17490,note_on,0,0,0,,12,,,59,127
17775,note_off,285,0,0,,12,,,59,127
17775,note_off,0,0,0,,5,,,53,127
17775,note_off,0,0,0,,2,,,50,127
17775,note_off,0,0,0,,5,,,77,127
17775,note_off,0,0,0,,7,,,79,127
17778,note_on,3,0,0,,5,,,77,127
17778,note_on,0,0,0,,0,,,60,127
17847,note_off,69,0,0,,5,,,77,127
17850,note_on,3,0,0,,4,,,76,127
17919,note_off,69,0,0,,4,,,76,127
17922,note_on,3,0,0,,5,,,77,127
17991,note_off,69,0,0,,5,,,77,127
17994,note_on,3,0,0,,4,,,76,127
18063,note_off,69,0,0,,4,,,76,127
18063,note_off,0,0,0,,0,,,60,127
18066,note_on,3,0,0,,5,,,77,127
18066,note_on,0,0,0,,0,,,48,127
18135,note_off,69,0,0,,5,,,77,127
18138,note_on,3,0,0,,4,,,76,127
18207,note_off,69,0,0,,4,,,76,127
18210,note_on,3,0,0,,2,,,74,127
18279,note_off,69,0,0,,2,,,74,127
18282,note_on,3,0,0,,4,,,76,127
18351,note_off,69,0,0,,4,,,76,127
18351,note_off,0,0,0,,0,,,48,127
18354,note_on,3,0,0,,2,,,74,127
18354,note_on,0,0,0,,7,,,55,127
18495,note_off,141,0,0,,2,,,74,127
18498,note_on,3,0,0,,2,,,86,127
18639,note_off,141,0,0,,2,,,86,127
18639,note_off,0,0,0,,7,,,55,127
18642,note_on,3,0,0,,5,,,77,127
18642,note_on,0,0,0,,0,,,60,127
18711,note_off,69,0,0,,5,,,77,127
18714,note_on,3,0,0,,4,,,76,127
18783,note_off,69,0,0,,4,,,76,127
18786,note_on,3,0,0,,5,,,77,127
18855,note_off,69,0,0,,5,,,77,127
18858,note_on,3,0,0,,4,,,76,127
18927,note_off,69,0,0,,4,,,76,127
18927,note_off,0,0,0,,0,,,60,127
18930,note_on,3,0,0,,5,,,77,127
18930,note_on,0,0,0,,0,,,48,127
18999,note_off,69,0,0,,5,,,77,127
19002,note_on,3,0,0,,4,,,76,127
19071,note_off,69,0,0,,4,,,76,127
19074,note_on,3,0,0,,2,,,74,127
19143,note_off,69,0,0,,2,,,74,127
19146,note_on,3,0,0,,4,,,76,127
19215,note_off,69,0,0,,4,,,76,127
19215,note_off,0,0,0,,0,,,48,127
19218,note_on,3,0,0,,2,,,74,127
19218,note_on,0,0,0,,7,,,55,127
19359,note_off,141,0,0,,2,,,74,127
19362,note_on,3,0,0,,0,,,84,127
19503,note_off,141,0,0,,0,,,84,127
19503,note_off,0,0,0,,7,,,55,127
19506,note_on,3,0,0,,2,,,74,127
19506,note_on,0,0,0,,0,,,48,127
19575,note_off,69,0,0,,2,,,74,127
19578,note_on,3,0,0,,0,,,72,127
19647,note_off,69,0,0,,0,,,72,127
19650,note_on,3,0,0,,2,,,74,127
19719,note_off,69,0,0,,2,,,74,127
19722,note_on,3,0,0,,0,,,72,127
19791,note_off,69,0,0,,0,,,72,127
19791,note_off,0,0,0,,0,,,48,127
19794,note_on,3,0,0,,2,,,74,127
19794,note_on,0,0,0,,0,,,36,127
19863,note_off,69,0,0,,2,,,74,127
19866,note_on,3,0,0,,0,,,72,127
19935,note_off,69,0,0,,0,,,72,127
19938,note_on,3,0,0,,12,,,71,127
20007,note_off,69,0,0,,12,,,71,127
20010,note_on,3,0,0,,0,,,72,127
20079,note_off,69,0,0,,0,,,72,127
20079,note_off,0,0,0,,0,,,36,127
20082,note_on,3,0,0,,12,,,71,127
20082,note_on,0,0,0,,7,,,43,127
20223,note_off,141,0,0,,12,,,71,127
20226,note_on,3,0,0,,2,,,86,127
20367,note_off,141,0,0,,2,,,86,127
20367,note_off,0,0,0,,7,,,43,127
20370,note_on,3,0,0,,5,,,77,127
20370,note_on,0,0,0,,0,,,60,127
20439,note_off,69,0,0,,5,,,77,127
20442,note_on,3,0,0,,4,,,76,127
20511,note_off,69,0,0,,4,,,76,127
20514,note_on,3,0,0,,5,,,77,127
20583,note_off,69,0,0,,5,,,77,127
20586,note_on,3,0,0,,4,,,76,127
20655,note_off,69,0,0,,4,,,76,127
20655,note_off,0,0,0,,0,,,60,127
20658,note_on,3,0,0,,5,,,77,127
20658,note_on,0,0,0,,0,,,48,127
20727,note_off,69,0,0,,5,,,77,127
20730,note_on,3,0,0,,4,,,76,127
20799,note_off,69,0,0,,4,,,76,127
20802,note_on,3,0,0,,2,,,74,127
20871,note_off,69,0,0,,2,,,74,127
20874,note_on,3,0,0,,4,,,76,127
20943,note_off,69,0,0,,4,,,76,127
20943,note_off,0,0,0,,0,,,48,127
20946,note_on,3,0,0,,2,,,74,127
20946,note_on,0,0,0,,7,,,55,127
21087,note_off,141,0,0,,2,,,74,127
21090,note_on,3,0,0,,0,,,84,127
21231,note_off,141,0,0,,0,,,84,127
21231,note_off,0,0,0,,7,,,55,127
21234,note_on,3,0,0,,2,,,74,127
21234,note_on,0,0,0,,0,,,48,127
21303,note_off,69,0,0,,2,,,74,127
21306,note_on,3,0,0,,0,,,72,127
21375,note_off,69,0,0,,0,,,72,127
21378,note_on,3,0,0,,2,,,74,127
21447,note_off,69,0,0,,2,,,74,127
21450,note_on,3,0,0,,0,,,72,127
21519,note_off,69,0,0,,0,,,72,127
21519,note_off,0,0,0,,0,,,48,127
21522,note_on,3,0,0,,2,,,74,127
21522,note_on,0,0,0,,0,,,36,127
21591,note_off,69,0,0,,2,,,74,127
21594,note_on,3,0,0,,0,,,72,127
21663,note_off,69,0,0,,0,,,72,127
21666,note_on,3,0,0,,12,,,71,127
21735,note_off,69,0,0,,12,,,71,127
21738,note_on,3,0,0,,0,,,72,127
21807,note_off,69,0,0,,0,,,72,127
21807,note_off,0,0,0,,0,,,36,127
21810,note_on,3,0,0,,12,,,71,127
21810,note_on,0,0,0,,7,,,43,127
21951,note_off,141,0,0,,12,,,71,127
21954,note_on,3,0,0,,7,,,79,127
22095,note_off,141,0,0,,7,,,79,127
22098,note_on,3,0,0,,2,,,74,127
22239,note_off,141,0,0,,2,,,74,127
22242,note_on,3,0,0,,12,,,71,127
22383,note_off,141,0,0,,12,,,71,127
22386,note_on,3,0,0,,7,,,67,127
22527,note_off,141,0,0,,7,,,67,127
22530,note_on,3,0,0,,2,,,62,127
22671,note_off,141,0,0,,2,,,62,127
22671,note_off,0,0,0,,7,,,43,127
22674,note_on,3,0,0,,12,,,59,127
22815,note_off,141,0,0,,12,,,59,127
22818,note_on,3,0,0,,7,,,55,127
22959,note_off,141,0,0,,7,,,55,127
22962,note_on,3,0,0,,2,,,50,127
23103,note_off,141,0,0,,2,,,50,127
23106,note_on,3,0,0,,12,,,47,127
23247,note_off,141,0,0,,12,,,47,127
23250,note_on,3,0,0,,7,,,43,127
23391,note_off,141,0,0,,7,,,43,127
23394,note_on,3,0,0,,2,,,38,127
23535,note_off,141,0,0,,2,,,38,127
23554,note_on,19,0,0,,7,,,31,127
24554,note_off,1000,0,0,,7,,,31,127
24682,note_on,128,0,0,,8,,,68,127
24823,note_off,141,0,0,,8,,,68,127
24826,note_on,3,0,0,,7,,,67,127
24967,note_off,141,0,0,,7,,,67,127
24970,note_on,3,0,0,,5,,,65,127
25111,note_off,141,0,0,,5,,,65,127
25114,note_on,3,0,0,,3,,,63,127
25255,note_off,141,0,0,,3,,,63,127
25258,note_on,3,0,0,,2,,,62,127
25399,note_off,141,0,0,,2,,,62,127
25402,note_on,3,0,0,,5,,,65,127
25471,note_off,69,0,0,,5,,,65,127
25474,note_on,3,0,0,,3,,,63,127
25543,note_off,69,0,0,,3,,,63,127
25546,note_on,3,0,0,,5,,,65,127
25546,note_on,0,0,0,,0,,,72,127
25615,note_off,69,0,0,,5,,,65,127
25618,note_on,3,0,0,,3,,,63,127
25687,note_off,69,0,0,,3,,,63,127
25687,note_off,0,0,0,,0,,,72,127
25690,note_on,3,0,0,,5,,,65,127
25690,note_on,0,0,0,,0,,,84,127
25759,note_off,69,0,0,,5,,,65,127
25762,note_on,3,0,0,,3,,,63,127
25831,note_off,69,0,0,,3,,,63,127
25831,note_off,0,0,0,,0,,,84,127
25834,note_on,3,0,0,,2,,,62,127
25834,note_on,0,0,0,,11,,,82,127
25975,note_off,141,0,0,,11,,,82,127
25975,note_off,0,0,0,,2,,,62,127
25978,note_on,3,0,0,,0,,,60,127
25978,note_on,0,0,0,,8,,,80,127
26119,note_off,141,0,0,,8,,,80,127
26122,note_on,3,0,0,,7,,,79,127
26263,note_off,141,0,0,,7,,,79,127
26263,note_off,0,0,0,,0,,,60,127
26266,note_on,3,0,0,,5,,,65,127
26266,note_on,0,0,0,,8,,,80,127
26407,note_off,141,0,0,,8,,,80,127
26410,note_on,3,0,0,,0,,,72,127
26551,note_off,141,0,0,,0,,,72,127
26551,note_off,0,0,0,,5,,,65,127
26554,note_on,3,0,0,,7,,,67,127
26554,note_on,0,0,0,,12,,,71,127
26695,note_off,141,0,0,,7,,,67,127
26698,note_on,3,0,0,,5,,,65,127
26839,note_off,141,0,0,,5,,,65,127
26839,note_off,0,0,0,,12,,,71,127
26842,note_on,3,0,0,,3,,,63,127
26842,note_on,0,0,0,,7,,,79,127
26983,note_off,141,0,0,,3,,,63,127
26986,note_on,3,0,0,,2,,,62,127
27127,note_off,141,0,0,,2,,,62,127
27127,note_off,0,0,0,,7,,,79,127
27130,note_on,3,0,0,,5,,,65,127
27194,note_off,64,0,0,,5,,,65,127
27196,note_on,2,0,0,,3,,,63,127
27260,note_off,64,0,0,,3,,,63,127
27262,note_on,2,0,0,,5,,,65,127
27274,note_on,12,0,0,,0,,,72,127
27326,note_off,52,0,0,,5,,,65,127
27328,note_on,2,0,0,,3,,,63,127
27392,note_off,64,0,0,,3,,,63,127
27394,note_on,2,0,0,,5,,,65,127
27415,note_off,21,0,0,,0,,,72,127
27418,note_on,3,0,0,,0,,,84,127
27458,note_off,40,0,0,,5,,,65,127
27460,note_on,2,0,0,,3,,,63,127
27559,note_off,99,0,0,,0,,,84,127
27562,note_on,3,0,0,,2,,,62,127
27562,note_on,0,0,0,,11,,,82,127
27564,note_off,2,0,0,,3,,,63,127
27704,note_off,140,0,0,,11,,,82,127
27704,note_off,0,0,0,,2,,,62,127
27707,note_on,3,0,0,,0,,,60,127
27707,note_on,0,0,0,,8,,,80,127
27848,note_off,141,0,0,,8,,,80,127
27851,note_on,3,0,0,,7,,,79,127
27992,note_off,141,0,0,,7,,,79,127
27992,note_off,0,0,0,,0,,,60,127
27995,note_on,3,0,0,,5,,,65,127
27995,note_on,0,0,0,,8,,,80,127
28139,note_on,144,0,0,,0,,,72,127
28280,note_off,141,0,0,,0,,,72,127
28280,note_off,0,0,0,,8,,,80,127
28280,note_off,0,0,0,,5,,,65,127
28283,note_on,3,0,0,,7,,,67,127
28283,note_on,0,0,0,,12,,,71,127
28424,note_off,141,0,0,,7,,,67,127
28427,note_on,3,0,0,,5,,,65,127
28568,note_off,141,0,0,,5,,,65,127
28568,note_off,0,0,0,,12,,,71,127
28571,note_on,3,0,0,,3,,,63,127
28571,note_on,0,0,0,,7,,,79,127
28712,note_off,141,0,0,,3,,,63,127
28715,note_on,3,0,0,,2,,,62,127
28856,note_off,141,0,0,,2,,,62,127
28856,note_off,0,0,0,,7,,,79,127
28859,note_on,3,0,0,,5,,,65,127
28919,note_off,60,0,0,,5,,,65,127
28919,note_on,0,0,0,,3,,,63,127
28979,note_off,60,0,0,,3,,,63,127
28979,note_on,0,0,0,,5,,,65,127
29003,note_on,24,0,0,,0,,,72,127
29039,note_off,36,0,0,,5,,,65,127
29039,note_on,0,0,0,,3,,,63,127
29099,note_off,60,0,0,,3,,,63,127
29099,note_on,0,0,0,,5,,,65,127
29144,note_off,45,0,0,,0,,,72,127
29147,note_on,3,0,0,,3,,,63,127
29147,note_on,0,0,0,,0,,,84,127
29159,note_off,12,0,0,,5,,,65,127
29288,note_off,129,0,0,,0,,,84,127
29290,note_off,2,0,0,,3,,,63,127
29292,note_on,2,0,0,,2,,,62,127
29292,note_on,0,0,0,,11,,,82,127
29433,note_off,141,0,0,,11,,,82,127
29433,note_off,0,0,0,,2,,,62,127
29436,note_on,3,0,0,,0,,,60,127
29436,note_on,0,0,0,,8,,,80,127
29577,note_off,141,0,0,,8,,,80,127
29580,note_on,3,0,0,,7,,,79,127
29721,note_off,141,0,0,,7,,,79,127
29721,note_off,0,0,0,,0,,,60,127
29724,note_on,3,0,0,,2,,,62,127
29724,note_on,0,0,0,,6,,,78,127
29865,note_off,141,0,0,,6,,,78,127
29868,note_on,3,0,0,,3,,,75,127
30009,note_off,141,0,0,,3,,,75,127
30012,note_on,3,0,0,,2,,,74,127
30153,note_off,141,0,0,,2,,,62,127
30156,note_on,3,0,0,,0,,,72,127
30297,note_off,141,0,0,,0,,,72,127
30300,note_on,3,0,0,,11,,,70,127
30441,note_off,141,0,0,,11,,,70,127
30441,note_off,0,0,0,,2,,,74,127
30444,note_on,3,0,0,,10,,,69,127
30444,note_on,0,0,0,,1,,,73,127
30585,note_off,141,0,0,,1,,,73,127
30585,note_off,0,0,0,,10,,,69,127
30588,note_on,3,0,0,,11,,,70,127
30588,note_on,0,0,0,,2,,,74,127
30729,note_off,141,0,0,,2,,,74,127
30732,note_on,3,0,0,,2,,,86,127
30873,note_off,141,0,0,,2,,,86,127
30876,note_on,3,0,0,,1,,,85,127
31017,note_off,141,0,0,,1,,,85,127
31020,note_on,3,0,0,,11,,,82,127
31161,note_off,141,0,0,,11,,,82,127
31161,note_off,0,0,0,,11,,,70,127
31164,note_on,3,0,0,,3,,,63,127
31164,note_on,0,0,0,,10,,,81,127
31305,note_off,141,0,0,,10,,,81,127
31308,note_on,3,0,0,,7,,,79,127
31449,note_off,141,0,0,,7,,,79,127
31449,note_off,0,0,0,,3,,,63,127
31452,note_on,3,0,0,,2,,,62,127
31452,note_on,0,0,0,,6,,,78,127
31593,note_off,141,0,0,,6,,,78,127
31596,note_on,3,0,0,,3,,,75,127
31737,note_off,141,0,0,,3,,,75,127
31740,note_on,3,0,0,,3,,,75,127
31881,note_off,141,0,0,,3,,,75,127
31881,note_off,0,0,0,,2,,,62,127
31884,note_on,3,0,0,,0,,,72,127
31884,note_on,0,0,0,,2,,,74,127
32025,note_off,141,0,0,,0,,,72,127
32028,note_on,3,0,0,,11,,,70,127
32169,note_off,141,0,0,,11,,,70,127
32169,note_off,0,0,0,,2,,,74,127
32172,note_on,3,0,0,,10,,,69,127
32172,note_on,0,0,0,,1,,,73,127
32313,note_off,141,0,0,,1,,,73,127
32313,note_off,0,0,0,,10,,,69,127
32316,note_on,3,0,0,,11,,,70,127
32316,note_on,0,0,0,,2,,,74,127
32457,note_off,141,0,0,,2,,,74,127
32460,note_on,3,0,0,,2,,,86,127
32601,note_off,141,0,0,,2,,,86,127
32601,note_off,0,0,0,,11,,,70,127
32604,note_on,3,0,0,,1,,,85,127
32745,note_off,141,0,0,,1,,,85,127
32748,note_on,3,0,0,,11,,,82,127
32889,note_off,141,0,0,,11,,,82,127
32892,note_on,3,0,0,,3,,,63,127
32892,note_on,0,0,0,,10,,,81,127
33033,note_off,141,0,0,,10,,,81,127
33036,note_on,3,0,0,,7,,,79,127
33177,note_off,141,0,0,,7,,,79,127
33177,note_off,0,0,0,,3,,,63,127
33180,note_on,3,0,0,,2,,,62,127
33180,note_on,0,0,0,,6,,,78,127
33321,note_off,141,0,0,,6,,,78,127
33324,note_on,3,0,0,,4,,,76,127
33465,note_off,141,0,0,,4,,,76,127
33468,note_on,3,0,0,,2,,,74,127
33578,note_off,110,0,0,,2,,,62,127
33612,note_on,34,0,0,,0,,,72,127
33753,note_off,141,0,0,,0,,,72,127
33756,note_on,3,0,0,,12,,,71,127
33897,note_off,141,0,0,,12,,,71,127
33897,note_off,0,0,0,,2,,,74,127
33900,note_on,3,0,0,,10,,,69,127
33900,note_on,0,0,0,,0,,,72,127
34041,note_off,141,0,0,,0,,,72,127
34041,note_off,0,0,0,,10,,,69,127
34044,note_on,3,0,0,,7,,,67,127
34044,note_on,0,0,0,,12,,,71,127
34329,note_off,285,0,0,,12,,,71,127
34329,note_off,0,0,0,,7,,,67,127
34332,note_on,3,0,0,,7,,,43,127
34332,note_on,0,0,0,,7,,,79,127
34332,note_on,0,0,0,,12,,,83,127
34617,note_off,285,0,0,,12,,,83,127
34617,note_off,0,0,0,,7,,,79,127
34617,note_off,0,0,0,,7,,,43,127
34620,note_on,3,0,0,,6,,,66,127
34620,note_on,0,0,0,,10,,,69,127
34905,note_off,285,0,0,,10,,,69,127
34905,note_off,0,0,0,,6,,,66,127
34908,note_on,3,0,0,,6,,,78,127
34908,note_on,0,0,0,,6,,,42,127
34908,note_on,0,0,0,,10,,,81,127
35193,note_off,285,0,0,,10,,,81,127
35193,note_off,0,0,0,,6,,,42,127
35193,note_off,0,0,0,,6,,,78,127
35196,note_on,3,0,0,,4,,,64,127
35196,note_on,0,0,0,,7,,,67,127
35481,note_off,285,0,0,,7,,,67,127
35481,note_off,0,0,0,,4,,,64,127
35484,note_on,3,0,0,,4,,,76,127
35484,note_on,0,0,0,,4,,,40,127
35484,note_on,0,0,0,,7,,,79,127
35769,note_off,285,0,0,,7,,,79,127
35769,note_off,0,0,0,,4,,,40,127
35769,note_off,0,0,0,,4,,,76,127
35772,note_on,3,0,0,,2,,,62,127
35772,note_on,0,0,0,,6,,,66,127
36057,note_off,285,0,0,,6,,,66,127
36057,note_off,0,0,0,,2,,,62,127
36060,note_on,3,0,0,,2,,,38,127
36060,note_on,0,0,0,,2,,,74,127
36060,note_on,0,0,0,,6,,,78,127
36345,note_off,285,0,0,,6,,,78,127
36345,note_off,0,0,0,,2,,,74,127
36345,note_off,0,0,0,,2,,,38,127
36348,note_on,3,0,0,,0,,,60,127
36348,note_on,0,0,0,,4,,,64,127
36633,note_off,285,0,0,,4,,,64,127
36633,note_off,0,0,0,,0,,,60,127
36636,note_on,3,0,0,,0,,,72,127
36636,note_on,0,0,0,,0,,,36,127
36636,note_on,0,0,0,,4,,,76,127
36921,note_off,285,0,0,,4,,,76,127
36921,note_off,0,0,0,,0,,,36,127
36921,note_off,0,0,0,,0,,,72,127
36924,note_on,3,0,0,,12,,,59,127
36924,note_on,0,0,0,,2,,,62,127
37209,note_off,285,0,0,,2,,,62,127
37209,note_off,0,0,0,,12,,,59,127
37212,note_on,3,0,0,,12,,,35,127
37212,note_on,0,0,0,,2,,,74,127
37212,note_on,0,0,0,,12,,,71,127
37497,note_off,285,0,0,,12,,,71,127
37497,note_off,0,0,0,,2,,,74,127
37497,note_off,0,0,0,,12,,,35,127
37500,note_on,3,0,0,,10,,,57,127
37500,note_on,0,0,0,,0,,,60,127
37785,note_off,285,0,0,,0,,,60,127
37785,note_off,0,0,0,,10,,,57,127
37788,note_on,3,0,0,,10,,,33,127
37788,note_on,0,0,0,,0,,,72,127
37788,note_on,0,0,0,,10,,,69,127
38073,note_off,285,0,0,,10,,,69,127
38073,note_off,0,0,0,,0,,,72,127
38073,note_off,0,0,0,,10,,,33,127
38076,note_on,3,0,0,,7,,,55,127
38076,note_on,0,0,0,,12,,,59,127
38361,note_off,285,0,0,,12,,,59,127
38361,note_off,0,0,0,,7,,,55,127
38364,note_on,3,0,0,,7,,,31,127
38364,note_on,0,0,0,,12,,,71,127
38364,note_on,0,0,0,,7,,,67,127
38649,note_off,285,0,0,,7,,,67,127
38649,note_off,0,0,0,,12,,,71,127
38649,note_off,0,0,0,,7,,,31,127
38652,note_on,3,0,0,,2,,,50,127
38652,note_on,0,0,0,,10,,,69,127
38652,note_on,0,0,0,,6,,,66,127
38793,note_off,141,0,0,,10,,,69,127
38796,note_on,3,0,0,,7,,,67,127
38937,note_off,141,0,0,,7,,,67,127
38937,note_off,0,0,0,,6,,,66,127
38937,note_off,0,0,0,,2,,,50,127
38940,note_on,3,0,0,,0,,,48,127
38940,note_on,0,0,0,,6,,,66,127
39081,note_off,141,0,0,,6,,,66,127
39084,note_on,3,0,0,,4,,,64,127
39225,note_off,141,0,0,,4,,,64,127
39225,note_off,0,0,0,,0,,,48,127
39228,note_on,3,0,0,,12,,,47,127
39228,note_on,0,0,0,,7,,,55,127
39228,note_on,0,0,0,,2,,,62,127
39369,note_off,141,0,0,,2,,,62,127
39372,note_on,3,0,0,,2,,,74,127
39372,note_on,0,0,0,,12,,,71,127
39513,note_off,141,0,0,,12,,,71,127
39513,note_off,0,0,0,,2,,,74,127
39513,note_off,0,0,0,,7,,,55,127
39513,note_off,0,0,0,,12,,,47,127
39516,note_on,3,0,0,,0,,,48,127
39516,note_on,0,0,0,,0,,,72,127
39516,note_on,0,0,0,,10,,,69,127
39657,note_off,141,0,0,,10,,,69,127
39657,note_off,0,0,0,,0,,,72,127
39660,note_on,3,0,0,,12,,,71,127
39660,note_on,0,0,0,,7,,,67,127
39801,note_off,141,0,0,,7,,,67,127
39801,note_off,0,0,0,,12,,,71,127
39801,note_off,0,0,0,,0,,,48,127
39804,note_on,3,0,0,,2,,,50,127
39804,note_on,0,0,0,,10,,,69,127
39804,note_on,0,0,0,,6,,,66,127
39945,note_off,141,0,0,,6,,,66,127
39945,note_off,0,0,0,,10,,,69,127
39948,note_on,3,0,0,,0,,,72,127
40089,note_off,141,0,0,,0,,,72,127
40089,note_off,0,0,0,,2,,,50,127
40092,note_on,3,0,0,,7,,,67,127
40092,note_on,0,0,0,,12,,,71,127
40377,note_off,285,0,0,,12,,,71,127
40377,note_off,0,0,0,,7,,,67,127
40380,note_on,3,0,0,,7,,,43,127
40380,note_on,0,0,0,,12,,,83,127
40380,note_on,0,0,0,,7,,,79,127
40665,note_off,285,0,0,,7,,,79,127
40665,note_off,0,0,0,,12,,,83,127
40665,note_off,0,0,0,,7,,,43,127
40668,note_on,3,0,0,,6,,,66,127
40668,note_on,0,0,0,,10,,,69,127
40953,note_off,285,0,0,,10,,,69,127
40953,note_off,0,0,0,,6,,,66,127
40956,note_on,3,0,0,,6,,,42,127
40956,note_on,0,0,0,,10,,,81,127
40956,note_on,0,0,0,,6,,,78,127
41241,note_off,285,0,0,,6,,,78,127
41241,note_off,0,0,0,,10,,,81,127
41241,note_off,0,0,0,,6,,,42,127
41244,note_on,3,0,0,,4,,,64,127
41244,note_on,0,0,0,,7,,,67,127
41529,note_off,285,0,0,,7,,,67,127
41529,note_off,0,0,0,,4,,,64,127
41532,note_on,3,0,0,,4,,,40,127
41532,note_on,0,0,0,,4,,,76,127
41532,note_on,0,0,0,,7,,,79,127
41817,note_off,285,0,0,,7,,,79,127
41817,note_off,0,0,0,,4,,,76,127
41817,note_off,0,0,0,,4,,,40,127
41820,note_on,3,0,0,,2,,,62,127
41820,note_on,0,0,0,,6,,,66,127
42105,note_off,285,0,0,,6,,,66,127
42105,note_off,0,0,0,,2,,,62,127
42108,note_on,3,0,0,,2,,,38,127
42108,note_on,0,0,0,,2,,,74,127
42108,note_on,0,0,0,,6,,,78,127
42393,note_off,285,0,0,,6,,,78,127
42393,note_off,0,0,0,,2,,,74,127
42393,note_off,0,0,0,,2,,,38,127
42396,note_on,3,0,0,,0,,,60,127
42396,note_on,0,0,0,,4,,,64,127
42681,note_off,285,0,0,,4,,,64,127
42681,note_off,0,0,0,,0,,,60,127
42684,note_on,3,0,0,,0,,,72,127
42684,note_on,0,0,0,,0,,,36,127
42684,note_on,0,0,0,,4,,,76,127
42969,note_off,285,0,0,,4,,,76,127
42969,note_off,0,0,0,,0,,,36,127
42969,note_off,0,0,0,,0,,,72,127
42972,note_on,3,0,0,,12,,,59,127
42972,note_on,0,0,0,,2,,,62,127
43257,note_off,285,0,0,,2,,,62,127
43257,note_off,0,0,0,,12,,,59,127
43260,note_on,3,0,0,,12,,,71,127
43260,note_on,0,0,0,,12,,,35,127
43260,note_on,0,0,0,,2,,,74,127
43545,note_off,285,0,0,,2,,,74,127
43545,note_off,0,0,0,,12,,,35,127
43545,note_off,0,0,0,,12,,,71,127
43548,note_on,3,0,0,,10,,,57,127
43548,note_on,0,0,0,,0,,,60,127
43833,note_off,285,0,0,,0,,,60,127
43833,note_off,0,0,0,,10,,,57,127
43836,note_on,3,0,0,,10,,,69,127
43836,note_on,0,0,0,,10,,,33,127
43836,note_on,0,0,0,,0,,,72,127
44121,note_off,285,0,0,,0,,,72,127
44121,note_off,0,0,0,,10,,,33,127
44121,note_off,0,0,0,,10,,,69,127
44124,note_on,3,0,0,,7,,,55,127
44124,note_on,0,0,0,,12,,,59,127
44409,note_off,285,0,0,,12,,,59,127
44409,note_off,0,0,0,,7,,,55,127
44412,note_on,3,0,0,,7,,,67,127
44412,note_on,0,0,0,,7,,,31,127
44412,note_on,0,0,0,,12,,,71,127
44697,note_off,285,0,0,,12,,,71,127
44697,note_off,0,0,0,,7,,,31,127
44697,note_off,0,0,0,,7,,,67,127
44700,note_on,3,0,0,,6,,,66,127
44700,note_on,0,0,0,,2,,,50,127
44700,note_on,0,0,0,,10,,,69,127
44841,note_off,141,0,0,,10,,,69,127
44844,note_on,3,0,0,,7,,,67,127
44985,note_off,141,0,0,,7,,,67,127
44985,note_off,0,0,0,,6,,,66,127
44988,note_on,3,0,0,,6,,,66,127
45129,note_off,141,0,0,,6,,,66,127
45129,note_off,0,0,0,,2,,,50,127
45132,note_on,3,0,0,,0,,,48,127
45132,note_on,0,0,0,,4,,,64,127
45273,note_off,141,0,0,,4,,,64,127
45273,note_off,0,0,0,,0,,,48,127
45276,note_on,3,0,0,,12,,,47,127
45276,note_on,0,0,0,,2,,,62,127
45417,note_off,141,0,0,,2,,,62,127
45420,note_on,3,0,0,,12,,,71,127
45420,note_on,0,0,0,,2,,,74,127
45561,note_off,141,0,0,,2,,,74,127
45561,note_off,0,0,0,,12,,,71,127
45561,note_off,0,0,0,,12,,,47,127
45564,note_on,3,0,0,,10,,,69,127
45564,note_on,0,0,0,,0,,,48,127
45564,note_on,0,0,0,,0,,,72,127
45705,note_off,141,0,0,,0,,,72,127
45705,note_off,0,0,0,,10,,,69,127
45708,note_on,3,0,0,,7,,,67,127
45708,note_on,0,0,0,,12,,,71,127
45849,note_off,141,0,0,,12,,,71,127
45849,note_off,0,0,0,,7,,,67,127
45849,note_off,0,0,0,,0,,,48,127
45852,note_on,3,0,0,,2,,,50,127
45852,note_on,0,0,0,,6,,,66,127
45852,note_on,0,0,0,,10,,,69,127
45993,note_off,141,0,0,,10,,,69,127
45996,note_on,3,0,0,,0,,,72,127
46137,note_off,141,0,0,,0,,,72,127
46137,note_off,0,0,0,,6,,,66,127
46137,note_off,0,0,0,,2,,,50,127
46140,note_on,3,0,0,,7,,,43,127
46140,note_on,0,0,0,,7,,,67,127
46140,note_on,0,0,0,,12,,,71,127
46425,note_off,285,0,0,,12,,,71,127
46428,note_on,3,0,0,,10,,,81,127
46497,note_off,69,0,0,,10,,,81,127
46500,note_on,3,0,0,,7,,,79,127
46560,note_off,60,0,0,,7,,,43,127
46569,note_off,9,0,0,,7,,,79,127
46572,note_on,3,0,0,,10,,,81,127
46641,note_off,69,0,0,,10,,,81,127
46644,note_on,3,0,0,,7,,,79,127
46713,note_off,69,0,0,,7,,,79,127
46713,note_off,0,0,0,,7,,,67,127
46716,note_on,3,0,0,,12,,,59,127
46716,note_on,0,0,0,,7,,,67,127
46716,note_on,0,0,0,,10,,,81,127
46785,note_off,69,0,0,,10,,,81,127
46788,note_on,3,0,0,,7,,,79,127
46857,note_off,69,0,0,,7,,,79,127
46860,note_on,3,0,0,,10,,,81,127
46940,note_off,80,0,0,,10,,,81,127
47001,note_off,61,0,0,,7,,,67,127
47001,note_off,0,0,0,,12,,,59,127
47004,note_on,3,0,0,,0,,,60,127
47004,note_on,0,0,0,,7,,,67,127
47004,note_on,0,0,0,,10,,,69,127
47145,note_off,141,0,0,,10,,,69,127
47148,note_on,3,0,0,,4,,,76,127
47289,note_off,141,0,0,,4,,,76,127
47292,note_on,3,0,0,,2,,,74,127
47433,note_off,141,0,0,,2,,,74,127
47436,note_on,3,0,0,,0,,,72,127
47577,note_off,141,0,0,,0,,,72,127
47577,note_off,0,0,0,,7,,,67,127
47577,note_off,0,0,0,,0,,,60,127
47580,note_on,3,0,0,,6,,,66,127
47580,note_on,0,0,0,,2,,,62,127
47580,note_on,0,0,0,,12,,,71,127
47721,note_off,141,0,0,,12,,,71,127
47724,note_on,3,0,0,,10,,,69,127
47865,note_off,141,0,0,,10,,,69,127
47865,note_off,0,0,0,,2,,,62,127
47865,note_off,0,0,0,,6,,,66,127
47868,note_on,3,0,0,,7,,,55,127
47868,note_on,0,0,0,,7,,,67,127
47868,note_on,0,0,0,,12,,,71,127
48153,note_off,285,0,0,,12,,,71,127
48156,note_on,3,0,0,,10,,,81,127
48216,note_off,60,0,0,,10,,,81,127
48216,note_on,0,0,0,,7,,,79,127
48276,note_off,60,0,0,,7,,,79,127
48276,note_on,0,0,0,,10,,,81,127
48336,note_off,60,0,0,,10,,,81,127
48336,note_on,0,0,0,,7,,,79,127
48396,note_off,60,0,0,,7,,,79,127
48396,note_on,0,0,0,,10,,,81,127
48441,note_off,45,0,0,,7,,,67,127
48441,note_off,0,0,0,,7,,,55,127
48444,note_on,3,0,0,,12,,,59,127
48444,note_on,0,0,0,,7,,,67,127
48444,note_on,0,0,0,,7,,,79,127
48456,note_off,12,0,0,,10,,,81,127
48586,note_off,130,0,0,,7,,,79,127
48588,note_on,2,0,0,,10,,,81,127
48729,note_off,141,0,0,,10,,,81,127
48729,note_off,0,0,0,,7,,,67,127
48729,note_off,0,0,0,,12,,,59,127
48732,note_on,3,0,0,,0,,,60,127
48732,note_on,0,0,0,,7,,,67,127
48732,note_on,0,0,0,,10,,,69,127
48873,note_off,141,0,0,,10,,,69,127
48876,note_on,3,0,0,,0,,,72,127
49017,note_off,141,0,0,,0,,,72,127
49020,note_on,3,0,0,,12,,,71,127
49161,note_off,141,0,0,,12,,,71,127
49164,note_on,3,0,0,,10,,,69,127
49305,note_off,141,0,0,,10,,,69,127
49305,note_off,0,0,0,,7,,,67,127
49305,note_off,0,0,0,,0,,,60,127
49308,note_on,3,0,0,,2,,,62,127
49308,note_on,0,0,0,,7,,,67,127
49449,note_off,141,0,0,,7,,,67,127
49452,note_on,3,0,0,,6,,,66,127
49593,note_off,141,0,0,,6,,,66,127
49593,note_off,0,0,0,,2,,,62,127
49596,note_on,3,0,0,,7,,,55,127
49596,note_on,0,0,0,,7,,,67,127
49881,note_off,285,0,0,,7,,,67,127
49884,note_on,3,0,0,,4,,,76,127
49953,note_off,69,0,0,,4,,,76,127
49956,note_on,3,0,0,,2,,,74,127
50025,note_off,69,0,0,,2,,,74,127
50028,note_on,3,0,0,,4,,,76,127
50097,note_off,69,0,0,,4,,,76,127
50100,note_on,3,0,0,,2,,,74,127
50169,note_off,69,0,0,,2,,,74,127
50169,note_off,0,0,0,,7,,,55,127
50172,note_on,3,0,0,,12,,,47,127
50172,note_on,0,0,0,,4,,,76,127
50241,note_off,69,0,0,,4,,,76,127
50244,note_on,3,0,0,,2,,,74,127
50313,note_off,69,0,0,,2,,,74,127
50316,note_on,3,0,0,,4,,,76,127
50396,note_off,80,0,0,,4,,,76,127
50457,note_off,61,0,0,,12,,,47,127
50460,note_on,3,0,0,,0,,,48,127
50460,note_on,0,0,0,,4,,,64,127
50601,note_off,141,0,0,,4,,,64,127
50604,note_on,3,0,0,,0,,,72,127
50604,note_on,0,0,0,,4,,,76,127
50745,note_off,141,0,0,,4,,,76,127
50745,note_off,0,0,0,,0,,,72,127
50745,note_off,0,0,0,,0,,,48,127
50748,note_on,3,0,0,,2,,,50,127
50748,note_on,0,0,0,,12,,,71,127
50748,note_on,0,0,0,,2,,,74,127
50889,note_off,141,0,0,,2,,,74,127
50889,note_off,0,0,0,,12,,,71,127
50892,note_on,3,0,0,,10,,,69,127
50892,note_on,0,0,0,,0,,,72,127
51033,note_off,141,0,0,,0,,,72,127
51033,note_off,0,0,0,,10,,,69,127
51033,note_off,0,0,0,,2,,,50,127
51036,note_on,3,0,0,,2,,,38,127
51036,note_on,0,0,0,,7,,,67,127
51036,note_on,0,0,0,,12,,,71,127
51177,note_off,141,0,0,,12,,,71,127
51177,note_off,0,0,0,,7,,,67,127
51180,note_on,3,0,0,,6,,,66,127
51180,note_on,0,0,0,,10,,,69,127
51321,note_off,141,0,0,,10,,,69,127
51321,note_off,0,0,0,,6,,,66,127
51321,note_off,0,0,0,,2,,,38,127
51324,note_on,3,0,0,,7,,,43,127
51324,note_on,0,0,0,,7,,,67,127
51324,note_on,0,0,0,,12,,,71,127
51609,note_off,285,0,0,,12,,,71,127
51612,note_on,3,0,0,,4,,,76,127
51672,note_off,60,0,0,,4,,,76,127
51672,note_on,0,0,0,,2,,,74,127
51732,note_off,60,0,0,,2,,,74,127
51732,note_on,0,0,0,,4,,,76,127
51792,note_off,60,0,0,,4,,,76,127
51792,note_on,0,0,0,,2,,,74,127
51852,note_off,60,0,0,,2,,,74,127
51852,note_on,0,0,0,,4,,,76,127
51897,note_off,45,0,0,,7,,,67,127
51897,note_off,0,0,0,,7,,,43,127
51900,note_on,3,0,0,,12,,,47,127
51900,note_on,0,0,0,,2,,,74,127
51912,note_off,12,0,0,,4,,,76,127
52042,note_off,130,0,0,,2,,,74,127
52044,note_on,2,0,0,,4,,,76,127
52185,note_off,141,0,0,,4,,,76,127
52185,note_off,0,0,0,,12,,,47,127
52188,note_on,3,0,0,,0,,,48,127
52188,note_on,0,0,0,,4,,,64,127
52329,note_off,141,0,0,,4,,,64,127
52332,note_on,3,0,0,,4,,,64,127
52332,note_on,0,0,0,,0,,,72,127
52473,note_off,141,0,0,,0,,,72,127
52473,note_off,0,0,0,,4,,,64,127
52473,note_off,0,0,0,,0,,,48,127
52476,note_on,3,0,0,,2,,,50,127
52476,note_on,0,0,0,,2,,,62,127
52476,note_on,0,0,0,,12,,,71,127
52617,note_off,141,0,0,,12,,,71,127
52617,note_off,0,0,0,,2,,,62,127
52620,note_on,3,0,0,,0,,,60,127
52620,note_on,0,0,0,,10,,,69,127
52761,note_off,141,0,0,,10,,,69,127
52761,note_off,0,0,0,,0,,,60,127
52761,note_off,0,0,0,,2,,,50,127
52764,note_on,3,0,0,,2,,,38,127
52764,note_on,0,0,0,,12,,,59,127
52764,note_on,0,0,0,,7,,,67,127
52905,note_off,141,0,0,,7,,,67,127
52905,note_off,0,0,0,,12,,,59,127
52908,note_on,3,0,0,,10,,,57,127
52908,note_on,0,0,0,,6,,,66,127
53049,note_off,141,0,0,,6,,,66,127
53049,note_off,0,0,0,,10,,,57,127
53049,note_off,0,0,0,,2,,,38,127
53052,note_on,3,0,0,,7,,,43,127
53052,note_on,0,0,0,,7,,,55,127
53052,note_on,0,0,0,,7,,,67,127
53914,note_off,862,0,0,,7,,,67,127
53914,note_off,0,0,0,,7,,,55,127
53914,note_off,0,0,0,,7,,,43,127
54180,note_on,266,0,0,,5,,,77,127
54180,note_on,0,0,0,,8,,,80,127
54321,note_off,141,0,0,,8,,,80,127
54321,note_off,0,0,0,,5,,,77,127
54324,note_on,3,0,0,,3,,,75,127
54324,note_on,0,0,0,,7,,,79,127
54465,note_off,141,0,0,,7,,,79,127
54465,note_off,0,0,0,,3,,,75,127
54468,note_on,3,0,0,,2,,,74,127
54468,note_on,0,0,0,,5,,,77,127
54609,note_off,141,0,0,,5,,,77,127
54609,note_off,0,0,0,,2,,,74,127
54612,note_on,3,0,0,,0,,,72,127
54612,note_on,0,0,0,,3,,,75,127
54753,note_off,141,0,0,,3,,,75,127
54753,note_off,0,0,0,,0,,,72,127
54756,note_on,3,0,0,,2,,,74,127
54756,note_on,0,0,0,,12,,,71,127
54897,note_off,141,0,0,,12,,,71,127
54897,note_off,0,0,0,,2,,,74,127
54900,note_on,3,0,0,,5,,,77,127
54900,note_on,0,0,0,,2,,,74,127
55044,note_on,144,0,0,,8,,,68,127
55185,note_off,141,0,0,,8,,,68,127
55185,note_off,0,0,0,,2,,,74,127
55185,note_off,0,0,0,,5,,,77,127
55188,note_on,3,0,0,,7,,,67,127
55188,note_on,0,0,0,,0,,,72,127
55188,note_on,0,0,0,,3,,,75,127
55329,note_off,141,0,0,,7,,,67,127
55332,note_on,3,0,0,,5,,,65,127
55473,note_off,141,0,0,,5,,,65,127
55473,note_off,0,0,0,,3,,,75,127
55473,note_off,0,0,0,,0,,,72,127
55476,note_on,3,0,0,,3,,,63,127
55476,note_on,0,0,0,,2,,,74,127
55476,note_on,0,0,0,,12,,,71,127
55617,note_off,141,0,0,,3,,,63,127
55620,note_on,3,0,0,,2,,,62,127
55761,note_off,141,0,0,,2,,,62,127
55761,note_off,0,0,0,,12,,,71,127
55761,note_off,0,0,0,,2,,,74,127
55764,note_on,3,0,0,,7,,,55,127
55908,note_on,144,0,0,,8,,,80,127
55908,note_on,0,0,0,,5,,,77,127
56049,note_off,141,0,0,,5,,,77,127
56049,note_off,0,0,0,,8,,,80,127
56049,note_off,0,0,0,,7,,,55,127
56052,note_on,3,0,0,,7,,,43,127
56052,note_on,0,0,0,,3,,,75,127
56052,note_on,0,0,0,,7,,,79,127
56193,note_off,141,0,0,,7,,,79,127
56193,note_off,0,0,0,,3,,,75,127
56196,note_on,3,0,0,,5,,,77,127
56196,note_on,0,0,0,,2,,,74,127
56337,note_off,141,0,0,,2,,,74,127
56337,note_off,0,0,0,,5,,,77,127
56340,note_on,3,0,0,,0,,,72,127
56340,note_on,0,0,0,,3,,,75,127
56481,note_off,141,0,0,,3,,,75,127
56481,note_off,0,0,0,,0,,,72,127
56484,note_on,3,0,0,,2,,,74,127
56484,note_on,0,0,0,,12,,,71,127
56622,note_off,138,0,0,,7,,,43,127
56625,note_off,3,0,0,,12,,,71,127
56625,note_off,0,0,0,,2,,,74,127
56628,note_on,3,0,0,,5,,,77,127
56628,note_on,0,0,0,,2,,,74,127
56772,note_on,144,0,0,,8,,,68,127
56913,note_off,141,0,0,,8,,,68,127
56913,note_off,0,0,0,,2,,,74,127
56913,note_off,0,0,0,,5,,,77,127
56916,note_on,3,0,0,,7,,,67,127
56916,note_on,0,0,0,,3,,,75,127
56916,note_on,0,0,0,,0,,,72,127
57057,note_off,141,0,0,,7,,,67,127
57060,note_on,3,0,0,,5,,,65,127
57201,note_off,141,0,0,,5,,,65,127
57201,note_off,0,0,0,,0,,,72,127
57201,note_off,0,0,0,,3,,,75,127
57204,note_on,3,0,0,,3,,,63,127
57204,note_on,0,0,0,,2,,,74,127
57204,note_on,0,0,0,,12,,,71,127
57345,note_off,141,0,0,,3,,,63,127
57348,note_on,3,0,0,,2,,,62,127
57474,note_off,126,0,0,,12,,,71,127
57474,note_off,0,0,0,,2,,,74,127
57482,note_off,8,0,0,,2,,,62,127
57508,note_on,26,0,0,,7,,,55,127
57652,note_on,144,0,0,,11,,,82,127
57652,note_on,0,0,0,,7,,,79,127
57793,note_off,141,0,0,,7,,,79,127
57793,note_off,0,0,0,,11,,,82,127
57793,note_off,0,0,0,,7,,,55,127
57796,note_on,3,0,0,,10,,,81,127
57796,note_on,0,0,0,,5,,,77,127
57796,note_on,0,0,0,,10,,,57,127
57937,note_off,141,0,0,,5,,,77,127
57937,note_off,0,0,0,,10,,,81,127
57940,note_on,3,0,0,,4,,,76,127
57940,note_on,0,0,0,,7,,,79,127
58081,note_off,141,0,0,,7,,,79,127
58081,note_off,0,0,0,,4,,,76,127
58081,note_off,0,0,0,,10,,,57,127
58084,note_on,3,0,0,,5,,,77,127
58084,note_on,0,0,0,,2,,,74,127
58084,note_on,0,0,0,,10,,,45,127
58225,note_off,141,0,0,,2,,,74,127
58225,note_off,0,0,0,,5,,,77,127
58228,note_on,3,0,0,,1,,,73,127
58228,note_on,0,0,0,,4,,,76,127
58369,note_off,141,0,0,,4,,,76,127
58369,note_off,0,0,0,,1,,,73,127
58369,note_off,0,0,0,,10,,,45,127
58372,note_on,3,0,0,,4,,,76,127
58372,note_on,0,0,0,,7,,,79,127
58516,note_on,144,0,0,,11,,,70,127
58657,note_off,141,0,0,,11,,,70,127
58657,note_off,0,0,0,,7,,,79,127
58657,note_off,0,0,0,,4,,,76,127
58660,note_on,3,0,0,,2,,,74,127
58660,note_on,0,0,0,,5,,,77,127
58660,note_on,0,0,0,,10,,,69,127
58801,note_off,141,0,0,,10,,,69,127
58804,note_on,3,0,0,,7,,,67,127
58945,note_off,141,0,0,,7,,,67,127
58945,note_off,0,0,0,,5,,,77,127
58945,note_off,0,0,0,,2,,,74,127
58948,note_on,3,0,0,,1,,,73,127
58948,note_on,0,0,0,,4,,,76,127
58948,note_on,0,0,0,,5,,,65,127
59089,note_off,141,0,0,,5,,,65,127
59092,note_on,3,0,0,,4,,,64,127
59233,note_off,141,0,0,,4,,,64,127
59233,note_off,0,0,0,,4,,,76,127
59233,note_off,0,0,0,,1,,,73,127
59236,note_on,3,0,0,,10,,,57,127
59380,note_on,144,0,0,,7,,,79,127
59380,note_on,0,0,0,,11,,,82,127
59521,note_off,141,0,0,,11,,,82,127
59521,note_off,0,0,0,,7,,,79,127
59521,note_off,0,0,0,,10,,,57,127
59524,note_on,3,0,0,,5,,,77,127
59524,note_on,0,0,0,,10,,,81,127
59524,note_on,0,0,0,,10,,,45,127
59665,note_off,141,0,0,,10,,,81,127
59665,note_off,0,0,0,,5,,,77,127
59668,note_on,3,0,0,,4,,,76,127
59668,note_on,0,0,0,,7,,,79,127
59809,note_off,141,0,0,,7,,,79,127
59809,note_off,0,0,0,,4,,,76,127
59812,note_on,3,0,0,,2,,,74,127
59812,note_on,0,0,0,,5,,,77,127
59953,note_off,141,0,0,,5,,,77,127
59953,note_off,0,0,0,,2,,,74,127
59956,note_on,3,0,0,,4,,,76,127
59956,note_on,0,0,0,,1,,,73,127
60094,note_off,138,0,0,,10,,,45,127
60097,note_off,3,0,0,,1,,,73,127
60097,note_off,0,0,0,,4,,,76,127
60100,note_on,3,0,0,,7,,,79,127
60100,note_on,0,0,0,,4,,,76,127
60244,note_on,144,0,0,,11,,,70,127
60385,note_off,141,0,0,,11,,,70,127
60385,note_off,0,0,0,,4,,,76,127
60385,note_off,0,0,0,,7,,,79,127
60388,note_on,3,0,0,,2,,,74,127
60388,note_on,0,0,0,,5,,,77,127
60388,note_on,0,0,0,,10,,,69,127
60529,note_off,141,0,0,,10,,,69,127
60532,note_on,3,0,0,,7,,,67,127
60673,note_off,141,0,0,,7,,,67,127
60673,note_off,0,0,0,,5,,,77,127
60673,note_off,0,0,0,,2,,,74,127
60676,note_on,3,0,0,,1,,,73,127
60676,note_on,0,0,0,,4,,,76,127
60676,note_on,0,0,0,,5,,,65,127
60817,note_off,141,0,0,,5,,,65,127
60820,note_on,3,0,0,,4,,,64,127
60961,note_off,141,0,0,,4,,,64,127
60961,note_off,0,0,0,,4,,,76,127
60961,note_off,0,0,0,,1,,,73,127
60964,note_on,3,0,0,,7,,,55,127
61108,note_on,144,0,0,,11,,,82,127
61108,note_on,0,0,0,,7,,,79,127
61249,note_off,141,0,0,,7,,,79,127
61249,note_off,0,0,0,,11,,,82,127
61252,note_on,3,0,0,,10,,,81,127
61252,note_on,0,0,0,,5,,,77,127
61393,note_off,141,0,0,,5,,,77,127
61393,note_off,0,0,0,,10,,,81,127
61396,note_on,3,0,0,,7,,,79,127
61396,note_on,0,0,0,,4,,,76,127
61534,note_off,138,0,0,,7,,,55,127
61537,note_off,3,0,0,,4,,,76,127
61537,note_off,0,0,0,,7,,,79,127
61540,note_on,3,0,0,,5,,,77,127
61540,note_on,0,0,0,,2,,,74,127
61540,note_on,0,0,0,,10,,,57,127
61681,note_off,141,0,0,,2,,,74,127
61681,note_off,0,0,0,,5,,,77,127
61684,note_on,3,0,0,,4,,,76,127
61684,note_on,0,0,0,,1,,,73,127
61825,note_off,141,0,0,,1,,,73,127
61825,note_off,0,0,0,,4,,,76,127
61825,note_off,0,0,0,,10,,,57,127
61828,note_on,3,0,0,,5,,,77,127
61828,note_on,0,0,0,,2,,,62,127
61969,note_off,141,0,0,,5,,,77,127
61972,note_on,3,0,0,,2,,,74,127
62113,note_off,141,0,0,,2,,,74,127
62116,note_on,3,0,0,,2,,,86,127
62257,note_off,141,0,0,,2,,,86,127
62257,note_off,0,0,0,,2,,,62,127
62260,note_on,3,0,0,,0,,,84,127
62260,note_on,0,0,0,,4,,,64,127
62401,note_off,141,0,0,,4,,,64,127
62401,note_off,0,0,0,,0,,,84,127
62404,note_on,3,0,0,,12,,,83,127
62404,note_on,0,0,0,,5,,,65,127
62545,note_off,141,0,0,,12,,,83,127
62548,note_on,3,0,0,,10,,,81,127
62689,note_off,141,0,0,,10,,,81,127
62689,note_off,0,0,0,,5,,,65,127
62692,note_on,3,0,0,,8,,,80,127
62692,note_on,0,0,0,,4,,,64,127
62833,note_off,141,0,0,,8,,,80,127
62836,note_on,3,0,0,,4,,,76,127
62977,note_off,141,0,0,,4,,,76,127
62977,note_off,0,0,0,,4,,,64,127
62980,note_on,3,0,0,,5,,,77,127
62980,note_on,0,0,0,,2,,,62,127
63121,note_off,141,0,0,,5,,,77,127
63124,note_on,3,0,0,,2,,,86,127
63265,note_off,141,0,0,,2,,,86,127
63268,note_on,3,0,0,,12,,,83,127
63268,note_on,0,0,0,,2,,,74,127
63409,note_off,141,0,0,,12,,,83,127
63412,note_on,3,0,0,,10,,,81,127
63550,note_off,138,0,0,,2,,,62,127
63553,note_off,3,0,0,,10,,,81,127
63553,note_off,0,0,0,,2,,,74,127
63556,note_on,3,0,0,,8,,,80,127
63556,note_on,0,0,0,,12,,,71,127
63556,note_on,0,0,0,,4,,,64,127
63697,note_off,141,0,0,,8,,,80,127
63700,note_on,3,0,0,,4,,,76,127
63841,note_off,141,0,0,,4,,,76,127
63841,note_off,0,0,0,,4,,,64,127
63841,note_off,0,0,0,,12,,,71,127
63844,note_on,3,0,0,,5,,,77,127
63844,note_on,0,0,0,,10,,,69,127
63844,note_on,0,0,0,,2,,,62,127
63985,note_off,141,0,0,,5,,,77,127
63988,note_on,3,0,0,,2,,,86,127
64129,note_off,141,0,0,,2,,,86,127
64129,note_off,0,0,0,,10,,,69,127
64132,note_on,3,0,0,,12,,,83,127
64132,note_on,0,0,0,,2,,,74,127
64273,note_off,141,0,0,,12,,,83,127
64276,note_on,3,0,0,,10,,,81,127
64414,note_off,138,0,0,,2,,,62,127
64417,note_off,3,0,0,,10,,,81,127
64417,note_off,0,0,0,,2,,,74,127
64420,note_on,3,0,0,,8,,,80,127
64420,note_on,0,0,0,,4,,,64,127
64420,note_on,0,0,0,,12,,,71,127
64554,note_off,134,0,0,,8,,,80,127
64564,note_on,10,0,0,,5,,,77,127
64698,note_off,134,0,0,,5,,,77,127
64708,note_on,10,0,0,,4,,,76,127
64849,note_off,141,0,0,,12,,,71,127
64849,note_off,0,0,0,,4,,,64,127
64852,note_on,3,0,0,,2,,,62,127
64993,note_off,141,0,0,,2,,,62,127
64996,note_on,3,0,0,,0,,,60,127
65137,note_off,141,0,0,,0,,,60,127
65137,note_off,0,0,0,,4,,,76,127
65140,note_on,3,0,0,,2,,,74,127
65140,note_on,0,0,0,,2,,,86,127
65140,note_on,0,0,0,,12,,,59,127
65281,note_off,141,0,0,,12,,,59,127
65281,note_off,0,0,0,,2,,,86,127
65281,note_off,0,0,0,,2,,,74,127
65284,note_on,3,0,0,,0,,,72,127
65284,note_on,0,0,0,,0,,,84,127
65284,note_on,0,0,0,,10,,,57,127
65418,note_off,134,0,0,,0,,,84,127
65418,note_off,0,0,0,,0,,,72,127
65428,note_on,10,0,0,,12,,,71,127
65428,note_on,0,0,0,,12,,,83,127
65562,note_off,134,0,0,,12,,,83,127
65562,note_off,0,0,0,,12,,,71,127
65572,note_on,10,0,0,,10,,,69,127
65572,note_on,0,0,0,,10,,,81,127
65713,note_off,141,0,0,,10,,,57,127
65716,note_on,3,0,0,,2,,,62,127
65716,note_on,0,0,0,,5,,,65,127
65857,note_off,141,0,0,,5,,,65,127
65857,note_off,0,0,0,,2,,,62,127
65860,note_on,3,0,0,,0,,,60,127
65860,note_on,0,0,0,,4,,,64,127
66001,note_off,141,0,0,,4,,,64,127
66001,note_off,0,0,0,,0,,,60,127
66001,note_off,0,0,0,,10,,,81,127
66001,note_off,0,0,0,,10,,,69,127
66004,note_on,3,0,0,,2,,,74,127
66004,note_on,0,0,0,,2,,,86,127
66004,note_on,0,0,0,,12,,,59,127
66004,note_on,0,0,0,,2,,,62,127
66145,note_off,141,0,0,,2,,,62,127
66145,note_off,0,0,0,,12,,,59,127
66145,note_off,0,0,0,,2,,,86,127
66145,note_off,0,0,0,,2,,,74,127
66148,note_on,3,0,0,,0,,,72,127
66148,note_on,0,0,0,,0,,,84,127
66148,note_on,0,0,0,,10,,,57,127
66148,note_on,0,0,0,,4,,,64,127
66282,note_off,134,0,0,,0,,,84,127
66282,note_off,0,0,0,,0,,,72,127
66292,note_on,10,0,0,,12,,,71,127
66292,note_on,0,0,0,,12,,,83,127
66426,note_off,134,0,0,,12,,,83,127
66426,note_off,0,0,0,,12,,,71,127
66436,note_on,10,0,0,,10,,,81,127
66436,note_on,0,0,0,,10,,,69,127
66577,note_off,141,0,0,,4,,,64,127
66577,note_off,0,0,0,,10,,,57,127
66580,note_on,3,0,0,,5,,,65,127
66580,note_on,0,0,0,,2,,,62,127
66721,note_off,141,0,0,,2,,,62,127
66721,note_off,0,0,0,,5,,,65,127
66724,note_on,3,0,0,,0,,,60,127
66724,note_on,0,0,0,,4,,,64,127
66865,note_off,141,0,0,,4,,,64,127
66865,note_off,0,0,0,,0,,,60,127
66865,note_off,0,0,0,,10,,,69,127
66865,note_off,0,0,0,,10,,,81,127
66868,note_on,3,0,0,,2,,,74,127
66868,note_on,0,0,0,,2,,,86,127
66868,note_on,0,0,0,,12,,,59,127
66868,note_on,0,0,0,,2,,,62,127
67009,note_off,141,0,0,,2,,,62,127
67009,note_off,0,0,0,,12,,,59,127
67009,note_off,0,0,0,,2,,,86,127
67009,note_off,0,0,0,,2,,,74,127
67012,note_on,3,0,0,,0,,,72,127
67012,note_on,0,0,0,,0,,,84,127
67012,note_on,0,0,0,,10,,,57,127
67012,note_on,0,0,0,,4,,,64,127
67146,note_off,134,0,0,,0,,,84,127
67146,note_off,0,0,0,,0,,,72,127
67156,note_on,10,0,0,,12,,,71,127
67156,note_on,0,0,0,,12,,,83,127
67290,note_off,134,0,0,,12,,,83,127
67290,note_off,0,0,0,,12,,,71,127
67300,note_on,10,0,0,,10,,,69,127
67300,note_on,0,0,0,,10,,,81,127
67441,note_off,141,0,0,,4,,,64,127
67441,note_off,0,0,0,,10,,,57,127
67444,note_on,3,0,0,,12,,,59,127
67585,note_off,141,0,0,,12,,,59,127
67588,note_on,3,0,0,,0,,,60,127
67729,note_off,141,0,0,,0,,,60,127
67729,note_off,0,0,0,,10,,,81,127
67729,note_off,0,0,0,,10,,,69,127
67732,note_on,3,0,0,,7,,,67,127
67732,note_on,0,0,0,,7,,,79,127
67732,note_on,0,0,0,,10,,,57,127
67873,note_off,141,0,0,,10,,,57,127
67873,note_off,0,0,0,,7,,,79,127
67873,note_off,0,0,0,,7,,,67,127
67876,note_on,3,0,0,,6,,,66,127
67876,note_on,0,0,0,,6,,,78,127
67876,note_on,0,0,0,,2,,,50,127
68010,note_off,134,0,0,,6,,,78,127
68010,note_off,0,0,0,,6,,,66,127
68020,note_on,10,0,0,,4,,,64,127
68020,note_on,0,0,0,,4,,,76,127
68154,note_off,134,0,0,,4,,,76,127
68154,note_off,0,0,0,,4,,,64,127
68164,note_on,10,0,0,,2,,,62,127
68164,note_on,0,0,0,,2,,,74,127
68305,note_off,141,0,0,,2,,,50,127
68308,note_on,3,0,0,,0,,,60,127
68449,note_off,141,0,0,,0,,,60,127
68452,note_on,3,0,0,,12,,,59,127
68593,note_off,141,0,0,,12,,,59,127
68593,note_off,0,0,0,,2,,,74,127
68593,note_off,0,0,0,,2,,,62,127
68596,note_on,3,0,0,,0,,,72,127
68596,note_on,0,0,0,,0,,,84,127
68596,note_on,0,0,0,,10,,,57,127
68737,note_off,141,0,0,,10,,,57,127
68737,note_off,0,0,0,,0,,,84,127
68737,note_off,0,0,0,,0,,,72,127
68740,note_on,3,0,0,,12,,,71,127
68740,note_on,0,0,0,,12,,,83,127
68740,note_on,0,0,0,,7,,,55,127
68874,note_off,134,0,0,,12,,,83,127
68874,note_off,0,0,0,,12,,,71,127
68884,note_on,10,0,0,,10,,,69,127
68884,note_on,0,0,0,,10,,,81,127
69018,note_off,134,0,0,,10,,,81,127
69018,note_off,0,0,0,,10,,,69,127
69028,note_on,10,0,0,,7,,,67,127
69028,note_on,0,0,0,,7,,,79,127
69169,note_off,141,0,0,,7,,,55,127
69172,note_on,3,0,0,,4,,,64,127
69172,note_on,0,0,0,,0,,,60,127
69313,note_off,141,0,0,,0,,,60,127
69313,note_off,0,0,0,,4,,,64,127
69316,note_on,3,0,0,,2,,,62,127
69316,note_on,0,0,0,,12,,,59,127
69457,note_off,141,0,0,,12,,,59,127
69457,note_off,0,0,0,,2,,,62,127
69457,note_off,0,0,0,,7,,,79,127
69457,note_off,0,0,0,,7,,,67,127
69460,note_on,3,0,0,,0,,,72,127
69460,note_on,0,0,0,,0,,,84,127
69460,note_on,0,0,0,,0,,,60,127
69460,note_on,0,0,0,,10,,,57,127
69601,note_off,141,0,0,,10,,,57,127
69601,note_off,0,0,0,,0,,,60,127
69601,note_off,0,0,0,,0,,,84,127
69601,note_off,0,0,0,,0,,,72,127
69604,note_on,3,0,0,,12,,,71,127
69604,note_on,0,0,0,,12,,,83,127
69604,note_on,0,0,0,,12,,,59,127
69604,note_on,0,0,0,,7,,,55,127
69738,note_off,134,0,0,,12,,,83,127
69738,note_off,0,0,0,,12,,,71,127
69748,note_on,10,0,0,,10,,,69,127
69748,note_on,0,0,0,,10,,,81,127
69882,note_off,134,0,0,,10,,,81,127
69882,note_off,0,0,0,,10,,,69,127
69892,note_on,10,0,0,,7,,,67,127
69892,note_on,0,0,0,,7,,,79,127
70033,note_off,141,0,0,,7,,,55,127
70033,note_off,0,0,0,,12,,,59,127
70036,note_on,3,0,0,,4,,,64,127
70036,note_on,0,0,0,,0,,,60,127
70177,note_off,141,0,0,,0,,,60,127
70177,note_off,0,0,0,,4,,,64,127
70180,note_on,3,0,0,,2,,,62,127
70180,note_on,0,0,0,,12,,,59,127
70321,note_off,141,0,0,,12,,,59,127
70321,note_off,0,0,0,,2,,,62,127
70321,note_off,0,0,0,,7,,,79,127
70321,note_off,0,0,0,,7,,,67,127
70324,note_on,3,0,0,,0,,,72,127
70324,note_on,0,0,0,,0,,,84,127
70324,note_on,0,0,0,,0,,,60,127
70324,note_on,0,0,0,,10,,,57,127
70465,note_off,141,0,0,,10,,,57,127
70465,note_off,0,0,0,,0,,,60,127
70465,note_off,0,0,0,,0,,,84,127
70465,note_off,0,0,0,,0,,,72,127
70468,note_on,3,0,0,,12,,,71,127
70468,note_on,0,0,0,,12,,,83,127
70468,note_on,0,0,0,,12,,,59,127
70468,note_on,0,0,0,,7,,,55,127
70602,note_off,134,0,0,,12,,,83,127
70602,note_off,0,0,0,,12,,,71,127
70612,note_on,10,0,0,,10,,,69,127
70612,note_on,0,0,0,,10,,,81,127
70746,note_off,134,0,0,,10,,,81,127
70746,note_off,0,0,0,,10,,,69,127
70756,note_on,10,0,0,,7,,,67,127
70756,note_on,0,0,0,,7,,,79,127
70897,note_off,141,0,0,,7,,,55,127
70897,note_off,0,0,0,,12,,,59,127
70900,note_on,3,0,0,,10,,,57,127
71041,note_off,141,0,0,,10,,,57,127
71044,note_on,3,0,0,,12,,,59,127
71185,note_off,141,0,0,,12,,,59,127
71185,note_off,0,0,0,,7,,,79,127
71185,note_off,0,0,0,,7,,,67,127
71188,note_on,3,0,0,,5,,,65,127
71188,note_on,0,0,0,,5,,,77,127
71188,note_on,0,0,0,,7,,,55,127
71329,note_off,141,0,0,,7,,,55,127
71329,note_off,0,0,0,,5,,,77,127
71329,note_off,0,0,0,,5,,,65,127
71332,note_on,3,0,0,,4,,,64,127
71332,note_on,0,0,0,,4,,,76,127
71332,note_on,0,0,0,,0,,,60,127
71332,note_on,0,0,0,,0,,,48,127
71466,note_off,134,0,0,,4,,,76,127
71466,note_off,0,0,0,,4,,,64,127
71476,note_on,10,0,0,,2,,,62,127
71476,note_on,0,0,0,,2,,,74,127
71610,note_off,134,0,0,,2,,,74,127
71610,note_off,0,0,0,,2,,,62,127
71618,note_off,8,0,0,,0,,,60,127
71621,note_on,3,0,0,,0,,,60,127
71621,note_on,0,0,0,,0,,,72,127
71762,note_off,141,0,0,,0,,,48,127
71765,note_on,3,0,0,,2,,,50,127
71906,note_off,141,0,0,,2,,,50,127
71909,note_on,3,0,0,,4,,,52,127
72050,note_off,141,0,0,,4,,,52,127
72050,note_off,0,0,0,,0,,,72,127
72050,note_off,0,0,0,,0,,,60,127
72053,note_on,3,0,0,,7,,,79,127
72053,note_on,0,0,0,,7,,,67,127
72053,note_on,0,0,0,,0,,,48,127
72194,note_off,141,0,0,,0,,,48,127
72194,note_off,0,0,0,,7,,,67,127
72194,note_off,0,0,0,,7,,,79,127
72197,note_on,3,0,0,,10,,,69,127
72197,note_on,0,0,0,,10,,,81,127
72197,note_on,0,0,0,,5,,,41,127
72332,note_off,135,0,0,,10,,,81,127
72332,note_off,0,0,0,,10,,,69,127
72341,note_on,9,0,0,,7,,,67,127
72341,note_on,0,0,0,,7,,,79,127
72476,note_off,135,0,0,,7,,,79,127
72476,note_off,0,0,0,,7,,,67,127
72485,note_on,9,0,0,,5,,,65,127
72485,note_on,0,0,0,,5,,,77,127
72620,note_off,135,0,0,,5,,,77,127
72620,note_off,0,0,0,,5,,,65,127
72629,note_on,9,0,0,,4,,,64,127
72629,note_on,0,0,0,,4,,,76,127
72764,note_off,135,0,0,,4,,,76,127
72764,note_off,0,0,0,,4,,,64,127
72773,note_on,9,0,0,,2,,,74,127
72773,note_on,0,0,0,,2,,,62,127
72908,note_off,135,0,0,,2,,,62,127
72908,note_off,0,0,0,,2,,,74,127
72917,note_on,9,0,0,,0,,,60,127
72917,note_on,0,0,0,,0,,,72,127
73052,note_off,135,0,0,,0,,,72,127
73052,note_off,0,0,0,,0,,,60,127
73058,note_off,6,0,0,,5,,,41,127
73061,note_on,3,0,0,,12,,,59,127
73061,note_on,0,0,0,,12,,,71,127
73061,note_on,0,0,0,,7,,,43,127
73196,note_off,135,0,0,,12,,,71,127
73196,note_off,0,0,0,,12,,,59,127
73205,note_on,9,0,0,,10,,,69,127
73205,note_on,0,0,0,,10,,,57,127
73340,note_off,135,0,0,,10,,,57,127
73340,note_off,0,0,0,,10,,,69,127
73349,note_on,9,0,0,,7,,,67,127
73349,note_on,0,0,0,,7,,,55,127
73484,note_off,135,0,0,,7,,,55,127
73484,note_off,0,0,0,,7,,,67,127
73493,note_on,9,0,0,,5,,,53,127
73493,note_on,0,0,0,,5,,,65,127
73628,note_off,135,0,0,,5,,,65,127
73628,note_off,0,0,0,,5,,,53,127
73637,note_on,9,0,0,,4,,,52,127
73637,note_on,0,0,0,,4,,,64,127
73772,note_off,135,0,0,,4,,,64,127
73772,note_off,0,0,0,,4,,,52,127
73781,note_on,9,0,0,,2,,,50,127
73781,note_on,0,0,0,,2,,,62,127
73922,note_off,141,0,0,,2,,,62,127
73922,note_off,0,0,0,,2,,,50,127
73922,note_off,0,0,0,,7,,,43,127
73925,note_on,3,0,0,,4,,,52,127
73925,note_on,0,0,0,,0,,,36,127
74210,note_off,285,0,0,,0,,,36,127
74210,note_off,0,0,0,,4,,,52,127
74213,note_on,3,0,0,,4,,,76,127
74213,note_on,0,0,0,,0,,,72,127
74213,note_on,0,0,0,,0,,,48,127
74498,note_off,285,0,0,,0,,,48,127
74498,note_off,0,0,0,,0,,,72,127
74498,note_off,0,0,0,,4,,,76,127
74501,note_on,3,0,0,,5,,,53,127
74501,note_on,0,0,0,,2,,,38,127
74786,note_off,285,0,0,,2,,,38,127
74786,note_off,0,0,0,,5,,,53,127
74789,note_on,3,0,0,,5,,,77,127
74789,note_on,0,0,0,,2,,,74,127
74789,note_on,0,0,0,,2,,,50,127
75074,note_off,285,0,0,,2,,,50,127
75074,note_off,0,0,0,,2,,,74,127
75074,note_off,0,0,0,,5,,,77,127
75077,note_on,3,0,0,,7,,,55,127
75077,note_on,0,0,0,,4,,,40,127
75362,note_off,285,0,0,,4,,,40,127
75362,note_off,0,0,0,,7,,,55,127
75365,note_on,3,0,0,,4,,,76,127
75365,note_on,0,0,0,,7,,,79,127
75365,note_on,0,0,0,,4,,,52,127
75650,note_off,285,0,0,,4,,,52,127
75650,note_off,0,0,0,,7,,,79,127
75650,note_off,0,0,0,,4,,,76,127
75653,note_on,3,0,0,,10,,,57,127
75653,note_on,0,0,0,,5,,,41,127
75938,note_off,285,0,0,,5,,,41,127
75938,note_off,0,0,0,,10,,,57,127
75941,note_on,3,0,0,,5,,,77,127
75941,note_on,0,0,0,,10,,,81,127
75941,note_on,0,0,0,,5,,,53,127
76226,note_off,285,0,0,,5,,,53,127
76226,note_off,0,0,0,,10,,,81,127
76226,note_off,0,0,0,,5,,,77,127
76229,note_on,3,0,0,,12,,,59,127
76229,note_on,0,0,0,,7,,,43,127
76514,note_off,285,0,0,,7,,,43,127
76514,note_off,0,0,0,,12,,,59,127
76517,note_on,3,0,0,,12,,,83,127
76517,note_on,0,0,0,,7,,,79,127
76517,note_on,0,0,0,,7,,,55,127
76802,note_off,285,0,0,,7,,,55,127
76802,note_off,0,0,0,,7,,,79,127
76802,note_off,0,0,0,,12,,,83,127
76805,note_on,3,0,0,,0,,,60,127
76805,note_on,0,0,0,,10,,,45,127
77090,note_off,285,0,0,,10,,,45,127
77090,note_off,0,0,0,,0,,,60,127
77093,note_on,3,0,0,,10,,,81,127
77093,note_on,0,0,0,,0,,,84,127
77093,note_on,0,0,0,,10,,,57,127
77378,note_off,285,0,0,,10,,,57,127
77378,note_off,0,0,0,,0,,,84,127
77378,note_off,0,0,0,,10,,,81,127
77381,note_on,3,0,0,,2,,,86,127
77381,note_on,0,0,0,,2,,,74,127
77381,note_on,0,0,0,,7,,,43,127
77381,note_on,0,0,0,,7,,,55,127
77516,note_off,135,0,0,,2,,,74,127
77516,note_off,0,0,0,,2,,,86,127
77525,note_on,9,0,0,,0,,,72,127
77525,note_on,0,0,0,,0,,,84,127
77660,note_off,135,0,0,,0,,,84,127
77660,note_off,0,0,0,,0,,,72,127
77666,note_off,6,0,0,,7,,,55,127
77666,note_off,0,0,0,,7,,,43,127
77669,note_on,3,0,0,,12,,,71,127
77669,note_on,0,0,0,,12,,,83,127
77669,note_on,0,0,0,,10,,,45,127
77804,note_off,135,0,0,,12,,,83,127
77804,note_off,0,0,0,,12,,,71,127
77813,note_on,9,0,0,,10,,,81,127
77813,note_on,0,0,0,,10,,,69,127
77948,note_off,135,0,0,,10,,,69,127
77948,note_off,0,0,0,,10,,,81,127
77954,note_off,6,0,0,,10,,,45,127
77957,note_on,3,0,0,,7,,,67,127
77957,note_on,0,0,0,,7,,,79,127
77957,note_on,0,0,0,,12,,,47,127
78092,note_off,135,0,0,,7,,,79,127
78092,note_off,0,0,0,,7,,,67,127
78101,note_on,9,0,0,,5,,,65,127
78101,note_on,0,0,0,,5,,,77,127
78242,note_off,141,0,0,,5,,,77,127
78242,note_off,0,0,0,,5,,,65,127
78242,note_off,0,0,0,,12,,,47,127
78277,note_on,35,0,0,,4,,,52,127
78277,note_on,0,0,0,,0,,,36,127
78538,note_off,261,0,0,,4,,,52,127
78549,note_on,11,0,0,,0,,,48,127
78549,note_on,0,0,0,,4,,,76,127
78549,note_on,0,0,0,,0,,,72,127
78562,note_off,13,0,0,,0,,,36,127
78834,note_off,272,0,0,,0,,,72,127
78834,note_off,0,0,0,,4,,,76,127
78834,note_off,0,0,0,,0,,,48,127
78837,note_on,3,0,0,,2,,,38,127
78837,note_on,0,0,0,,5,,,53,127
79122,note_off,285,0,0,,5,,,53,127
79122,note_off,0,0,0,,2,,,38,127
79125,note_on,3,0,0,,2,,,50,127
79125,note_on,0,0,0,,5,,,77,127
79125,note_on,0,0,0,,2,,,74,127
79410,note_off,285,0,0,,2,,,74,127
79410,note_off,0,0,0,,5,,,77,127
79410,note_off,0,0,0,,2,,,50,127
79413,note_on,3,0,0,,4,,,40,127
79413,note_on,0,0,0,,7,,,55,127
79698,note_off,285,0,0,,7,,,55,127
79698,note_off,0,0,0,,4,,,40,127
79701,note_on,3,0,0,,4,,,52,127
79701,note_on,0,0,0,,4,,,76,127
79701,note_on,0,0,0,,7,,,79,127
79986,note_off,285,0,0,,7,,,79,127
79986,note_off,0,0,0,,4,,,76,127
79986,note_off,0,0,0,,4,,,52,127
79989,note_on,3,0,0,,5,,,41,127
79989,note_on,0,0,0,,10,,,57,127
80274,note_off,285,0,0,,10,,,57,127
80274,note_off,0,0,0,,5,,,41,127
80277,note_on,3,0,0,,5,,,53,127
80277,note_on,0,0,0,,10,,,81,127
80277,note_on,0,0,0,,5,,,77,127
80562,note_off,285,0,0,,5,,,77,127
80562,note_off,0,0,0,,10,,,81,127
80562,note_off,0,0,0,,5,,,53,127
80565,note_on,3,0,0,,7,,,43,127
80565,note_on,0,0,0,,12,,,59,127
80850,note_off,285,0,0,,12,,,59,127
80850,note_off,0,0,0,,7,,,43,127
80853,note_on,3,0,0,,7,,,55,127
80853,note_on,0,0,0,,7,,,79,127
80853,note_on,0,0,0,,12,,,83,127
81138,note_off,285,0,0,,12,,,83,127
81138,note_off,0,0,0,,7,,,79,127
81138,note_off,0,0,0,,7,,,55,127
81141,note_on,3,0,0,,10,,,45,127
81141,note_on,0,0,0,,0,,,60,127
81426,note_off,285,0,0,,0,,,60,127
81426,note_off,0,0,0,,10,,,45,127
81429,note_on,3,0,0,,10,,,57,127
81429,note_on,0,0,0,,10,,,81,127
81429,note_on,0,0,0,,0,,,84,127
81714,note_off,285,0,0,,0,,,84,127
81714,note_off,0,0,0,,10,,,81,127
81714,note_off,0,0,0,,10,,,57,127
81717,note_on,3,0,0,,7,,,55,127
81717,note_on,0,0,0,,7,,,43,127
81717,note_on,0,0,0,,12,,,83,127
81858,note_off,141,0,0,,12,,,83,127
81861,note_on,3,0,0,,10,,,81,127
82002,note_off,141,0,0,,10,,,81,127
82002,note_off,0,0,0,,7,,,43,127
82002,note_off,0,0,0,,7,,,55,127
82005,note_on,3,0,0,,10,,,45,127
82005,note_on,0,0,0,,7,,,79,127
82146,note_off,141,0,0,,7,,,79,127
82149,note_on,3,0,0,,5,,,77,127
82290,note_off,141,0,0,,5,,,77,127
82290,note_off,0,0,0,,10,,,45,127
82293,note_on,3,0,0,,12,,,47,127
82293,note_on,0,0,0,,4,,,76,127
82434,note_off,141,0,0,,4,,,76,127
82437,note_on,3,0,0,,2,,,74,127
82578,note_off,141,0,0,,2,,,74,127
82578,note_off,0,0,0,,12,,,47,127
82581,note_on,3,0,0,,0,,,48,127
82581,note_on,0,0,0,,0,,,60,127
82581,note_on,0,0,0,,4,,,76,127
82722,note_off,141,0,0,,4,,,76,127
82725,note_on,3,0,0,,5,,,77,127
82866,note_off,141,0,0,,5,,,77,127
82869,note_on,3,0,0,,7,,,79,127
83010,note_off,141,0,0,,7,,,79,127
83010,note_off,0,0,0,,0,,,60,127
83010,note_off,0,0,0,,0,,,48,127
83013,note_on,3,0,0,,2,,,50,127
83013,note_on,0,0,0,,12,,,71,127
83154,note_off,141,0,0,,12,,,71,127
83154,note_off,0,0,0,,2,,,50,127
83157,note_on,3,0,0,,4,,,52,127
83157,note_on,0,0,0,,0,,,72,127
83298,note_off,141,0,0,,0,,,72,127
83301,note_on,3,0,0,,4,,,76,127
83442,note_off,141,0,0,,4,,,76,127
83442,note_off,0,0,0,,4,,,52,127
83445,note_on,3,0,0,,5,,,53,127
83445,note_on,0,0,0,,5,,,65,127
83445,note_on,0,0,0,,2,,,74,127
83586,note_off,141,0,0,,2,,,74,127
83589,note_on,3,0,0,,5,,,77,127
83730,note_off,141,0,0,,5,,,77,127
83730,note_off,0,0,0,,5,,,65,127
83730,note_off,0,0,0,,5,,,53,127
83733,note_on,3,0,0,,7,,,55,127
83733,note_on,0,0,0,,4,,,64,127
83733,note_on,0,0,0,,4,,,76,127
83874,note_off,141,0,0,,4,,,76,127
83877,note_on,3,0,0,,2,,,74,127
84018,note_off,141,0,0,,2,,,74,127
84018,note_off,0,0,0,,4,,,64,127
84018,note_off,0,0,0,,7,,,55,127
84021,note_on,3,0,0,,2,,,62,127
84021,note_on,0,0,0,,0,,,72,127
84162,note_off,141,0,0,,0,,,72,127
84165,note_on,3,0,0,,12,,,71,127
84306,note_off,141,0,0,,12,,,71,127
84306,note_off,0,0,0,,2,,,62,127
84309,note_on,3,0,0,,0,,,48,127
84309,note_on,0,0,0,,0,,,72,127
84594,note_off,285,0,0,,0,,,72,127
84597,note_on,3,0,0,,0,,,84,127
84597,note_on,0,0,0,,3,,,75,127
84738,note_off,141,0,0,,3,,,75,127
84738,note_off,0,0,0,,0,,,84,127
84741,note_on,3,0,0,,11,,,82,127
84741,note_on,0,0,0,,2,,,74,127
84882,note_off,141,0,0,,2,,,74,127
84882,note_off,0,0,0,,11,,,82,127
84885,note_on,3,0,0,,10,,,81,127
84885,note_on,0,0,0,,0,,,72,127
85026,note_off,141,0,0,,0,,,72,127
85026,note_off,0,0,0,,10,,,81,127
85029,note_off,3,0,0,,0,,,48,127
85029,note_on,0,0,0,,7,,,79,127
85029,note_on,0,0,0,,11,,,70,127
85173,note_on,144,0,0,,2,,,38,127
85389,note_off,216,0,0,,11,,,70,127
85389,note_off,0,0,0,,7,,,79,127
85461,note_on,72,0,0,,6,,,78,127
85461,note_on,0,0,0,,10,,,69,127
85602,note_off,141,0,0,,10,,,69,127
85602,note_off,0,0,0,,6,,,78,127
85605,note_on,3,0,0,,3,,,75,127
85605,note_on,0,0,0,,7,,,67,127
85746,note_off,141,0,0,,7,,,67,127
85746,note_off,0,0,0,,3,,,75,127
85749,note_on,3,0,0,,2,,,74,127
85749,note_on,0,0,0,,6,,,66,127
85890,note_off,141,0,0,,6,,,66,127
85890,note_off,0,0,0,,2,,,74,127
85893,note_off,3,0,0,,2,,,38,127
85893,note_on,0,0,0,,0,,,72,127
85893,note_on,0,0,0,,3,,,63,127
86037,note_on,144,0,0,,7,,,43,127
86253,note_off,216,0,0,,3,,,63,127
86253,note_off,0,0,0,,0,,,72,127
86325,note_on,72,0,0,,2,,,62,127
86325,note_on,0,0,0,,12,,,71,127
86466,note_off,141,0,0,,12,,,71,127
86466,note_off,0,0,0,,2,,,62,127
86469,note_on,3,0,0,,0,,,60,127
86469,note_on,0,0,0,,8,,,68,127
86610,note_off,141,0,0,,8,,,68,127
86610,note_off,0,0,0,,0,,,60,127
86613,note_on,3,0,0,,7,,,67,127
86613,note_on,0,0,0,,12,,,59,127
86754,note_off,141,0,0,,12,,,59,127
86754,note_off,0,0,0,,7,,,67,127
86757,note_off,3,0,0,,7,,,43,127
86757,note_on,0,0,0,,8,,,56,127
86757,note_on,0,0,0,,5,,,65,127
86901,note_on,144,0,0,,0,,,36,127
87117,note_off,216,0,0,,5,,,65,127
87117,note_off,0,0,0,,8,,,56,127
87189,note_on,72,0,0,,4,,,64,127
87189,note_on,0,0,0,,7,,,55,127
87330,note_off,141,0,0,,7,,,55,127
87330,note_off,0,0,0,,4,,,64,127
87333,note_on,3,0,0,,1,,,61,127
87333,note_on,0,0,0,,5,,,53,127
87474,note_off,141,0,0,,5,,,53,127
87474,note_off,0,0,0,,1,,,61,127
87477,note_on,3,0,0,,4,,,52,127
87477,note_on,0,0,0,,0,,,60,127
87618,note_off,141,0,0,,0,,,60,127
87618,note_off,0,0,0,,4,,,52,127
87621,note_on,3,0,0,,11,,,58,127
87621,note_on,0,0,0,,7,,,55,127
87745,note_off,124,0,0,,0,,,36,127
87761,note_off,16,0,0,,7,,,55,127
87761,note_off,0,0,0,,11,,,58,127
87764,note_on,3,0,0,,5,,,41,127
87764,note_on,0,0,0,,10,,,57,127
87905,note_off,141,0,0,,10,,,57,127
87908,note_on,3,0,0,,0,,,60,127
88049,note_off,141,0,0,,0,,,60,127
88049,note_off,0,0,0,,5,,,41,127
88052,note_on,3,0,0,,5,,,53,127
88052,note_on,0,0,0,,12,,,59,127
88193,note_off,141,0,0,,12,,,59,127
88196,note_on,3,0,0,,2,,,62,127
88337,note_off,141,0,0,,2,,,62,127
88337,note_off,0,0,0,,5,,,53,127
88340,note_on,3,0,0,,4,,,52,127
88340,note_on,0,0,0,,0,,,60,127
88481,note_off,141,0,0,,0,,,60,127
88484,note_on,3,0,0,,4,,,64,127
88625,note_off,141,0,0,,4,,,64,127
88625,note_off,0,0,0,,4,,,52,127
88628,note_on,3,0,0,,5,,,53,127
88628,note_on,0,0,0,,2,,,62,127
88769,note_off,141,0,0,,2,,,62,127
88772,note_on,3,0,0,,5,,,65,127
88913,note_off,141,0,0,,5,,,65,127
88913,note_off,0,0,0,,5,,,53,127
88916,note_on,3,0,0,,7,,,55,127
88916,note_on,0,0,0,,4,,,64,127
89057,note_off,141,0,0,,4,,,64,127
89060,note_on,3,0,0,,2,,,62,127
89201,note_off,141,0,0,,2,,,62,127
89201,note_off,0,0,0,,7,,,55,127
89204,note_on,3,0,0,,7,,,43,127
89204,note_on,0,0,0,,0,,,60,127
89345,note_off,141,0,0,,0,,,60,127
89348,note_on,3,0,0,,12,,,59,127
89489,note_off,141,0,0,,12,,,59,127
89489,note_off,0,0,0,,7,,,43,127
89492,note_on,3,0,0,,0,,,48,127
89492,note_on,0,0,0,,0,,,60,127
89660,note_on,168,0,0,,2,,,62,127
89705,note_off,45,0,0,,2,,,62,127
89708,note_on,3,0,0,,4,,,64,127
89712,note_off,4,0,0,,0,,,60,127
89753,note_off,41,0,0,,4,,,64,127
89756,note_on,3,0,0,,5,,,65,127
89801,note_off,45,0,0,,5,,,65,127
89804,note_on,3,0,0,,7,,,67,127
89849,note_off,45,0,0,,7,,,67,127
89852,note_on,3,0,0,,10,,,69,127
89897,note_off,45,0,0,,10,,,69,127
89900,note_on,3,0,0,,12,,,71,127
89945,note_off,45,0,0,,12,,,71,127
89948,note_on,3,0,0,,0,,,72,127
89993,note_off,45,0,0,,0,,,72,127
89996,note_on,3,0,0,,2,,,74,127
90041,note_off,45,0,0,,2,,,74,127
90044,note_on,3,0,0,,4,,,76,127
90065,note_off,21,0,0,,0,,,48,127
90089,note_off,24,0,0,,4,,,76,127
90092,note_on,3,0,0,,5,,,77,127
90137,note_off,45,0,0,,5,,,77,127
90140,note_on,3,0,0,,4,,,52,127
90140,note_on,0,0,0,,0,,,60,127
90140,note_on,0,0,0,,7,,,79,127
90281,note_off,141,0,0,,7,,,79,127
90284,note_on,3,0,0,,10,,,81,127
90425,note_off,141,0,0,,10,,,81,127
90425,note_off,0,0,0,,0,,,60,127
90425,note_off,0,0,0,,4,,,52,127
90428,note_on,3,0,0,,5,,,53,127
90428,note_on,0,0,0,,5,,,65,127
90428,note_on,0,0,0,,7,,,79,127
90569,note_off,141,0,0,,7,,,79,127
90572,note_on,3,0,0,,5,,,77,127
90713,note_off,141,0,0,,5,,,77,127
90713,note_off,0,0,0,,5,,,65,127
90713,note_off,0,0,0,,5,,,53,127
90716,note_on,3,0,0,,7,,,55,127
90716,note_on,0,0,0,,4,,,64,127
90716,note_on,0,0,0,,4,,,76,127
90857,note_off,141,0,0,,4,,,76,127
90860,note_on,3,0,0,,2,,,74,127
91001,note_off,141,0,0,,2,,,74,127
91001,note_off,0,0,0,,4,,,64,127
91004,note_on,3,0,0,,2,,,62,127
91004,note_on,0,0,0,,0,,,72,127
91145,note_off,141,0,0,,0,,,72,127
91148,note_on,3,0,0,,12,,,71,127
91286,note_off,138,0,0,,7,,,55,127
91289,note_off,3,0,0,,12,,,71,127
91289,note_off,0,0,0,,2,,,62,127
91292,note_on,3,0,0,,0,,,48,127
91292,note_on,0,0,0,,0,,,60,127
91292,note_on,0,0,0,,0,,,72,127
91577,note_off,285,0,0,,0,,,72,127
91580,note_on,3,0,0,,10,,,81,127
91649,note_off,69,0,0,,10,,,81,127
91652,note_on,3,0,0,,7,,,79,127
91721,note_off,69,0,0,,7,,,79,127
91721,note_off,0,0,0,,0,,,48,127
91724,note_on,3,0,0,,2,,,50,127
91724,note_on,0,0,0,,10,,,81,127
91793,note_off,69,0,0,,10,,,81,127
91796,note_on,3,0,0,,7,,,79,127
91865,note_off,69,0,0,,7,,,79,127
91865,note_off,0,0,0,,2,,,50,127
91868,note_on,3,0,0,,4,,,52,127
91868,note_on,0,0,0,,10,,,81,127
91937,note_off,69,0,0,,10,,,81,127
91940,note_on,3,0,0,,7,,,79,127
92009,note_off,69,0,0,,7,,,79,127
92012,note_on,3,0,0,,10,,,81,127
92153,note_off,141,0,0,,10,,,81,127
92153,note_off,0,0,0,,4,,,52,127
92155,note_off,2,0,0,,0,,,60,127
92157,note_on,2,0,0,,5,,,53,127
92157,note_on,0,0,0,,10,,,69,127
92301,note_on,144,0,0,,10,,,81,127
92301,note_on,0,0,0,,5,,,77,127
92442,note_off,141,0,0,,5,,,77,127
92442,note_off,0,0,0,,10,,,81,127
92442,note_off,0,0,0,,10,,,69,127
92442,note_off,0,0,0,,5,,,53,127
92445,note_on,3,0,0,,7,,,55,127
92445,note_on,0,0,0,,7,,,79,127
92445,note_on,0,0,0,,4,,,76,127
92586,note_off,141,0,0,,4,,,76,127
92586,note_off,0,0,0,,7,,,79,127
92589,note_on,3,0,0,,5,,,77,127
92589,note_on,0,0,0,,2,,,74,127
92730,note_off,141,0,0,,2,,,74,127
92730,note_off,0,0,0,,5,,,77,127
92733,note_on,3,0,0,,7,,,43,127
92733,note_on,0,0,0,,4,,,76,127
92733,note_on,0,0,0,,0,,,72,127
92874,note_off,141,0,0,,0,,,72,127
92874,note_off,0,0,0,,4,,,76,127
92877,note_on,3,0,0,,12,,,71,127
92877,note_on,0,0,0,,2,,,74,127
93015,note_off,138,0,0,,7,,,55,127
93018,note_off,3,0,0,,2,,,74,127
93018,note_off,0,0,0,,12,,,71,127
93018,note_off,0,0,0,,7,,,43,127
93021,note_on,3,0,0,,0,,,48,127
93021,note_on,0,0,0,,0,,,72,127
93021,note_on,0,0,0,,4,,,76,127
93162,note_off,141,0,0,,4,,,76,127
93162,note_off,0,0,0,,0,,,72,127
93165,note_on,3,0,0,,2,,,74,127
93306,note_off,141,0,0,,2,,,74,127
93309,note_on,3,0,0,,4,,,76,127
93450,note_off,141,0,0,,0,,,48,127
93453,note_on,3,0,0,,2,,,50,127
93594,note_off,141,0,0,,2,,,50,127
93597,note_on,3,0,0,,4,,,52,127
93738,note_off,141,0,0,,4,,,76,127
93741,note_on,3,0,0,,5,,,77,127
93882,note_off,141,0,0,,5,,,77,127
93882,note_off,0,0,0,,4,,,52,127
93885,note_on,3,0,0,,5,,,53,127
93885,note_on,0,0,0,,10,,,69,127
94026,note_off,141,0,0,,10,,,69,127
94029,note_on,3,0,0,,5,,,77,127
94029,note_on,0,0,0,,10,,,69,127
94170,note_off,141,0,0,,10,,,69,127
94170,note_off,0,0,0,,5,,,77,127
94170,note_off,0,0,0,,5,,,53,127
94173,note_on,3,0,0,,7,,,55,127
94173,note_on,0,0,0,,4,,,76,127
94173,note_on,0,0,0,,7,,,67,127
94314,note_off,141,0,0,,7,,,67,127
94314,note_off,0,0,0,,4,,,76,127
94317,note_on,3,0,0,,5,,,65,127
94317,note_on,0,0,0,,2,,,74,127
94458,note_off,141,0,0,,2,,,74,127
94458,note_off,0,0,0,,5,,,65,127
94458,note_off,0,0,0,,7,,,55,127
94461,note_on,3,0,0,,7,,,43,127
94461,note_on,0,0,0,,4,,,64,127
94461,note_on,0,0,0,,0,,,72,127
94602,note_off,141,0,0,,0,,,72,127
94602,note_off,0,0,0,,4,,,64,127
94605,note_on,3,0,0,,12,,,71,127
94605,note_on,0,0,0,,2,,,62,127
94746,note_off,141,0,0,,2,,,62,127
94746,note_off,0,0,0,,12,,,71,127
94746,note_off,0,0,0,,7,,,43,127
94749,note_on,3,0,0,,0,,,48,127
94749,note_on,0,0,0,,0,,,60,127
94749,note_on,0,0,0,,0,,,72,127
95034,note_off,285,0,0,,0,,,72,127
95037,note_on,3,0,0,,7,,,67,127
95178,note_off,141,0,0,,0,,,48,127
95181,note_on,3,0,0,,2,,,50,127
95322,note_off,141,0,0,,2,,,50,127
95325,note_on,3,0,0,,4,,,52,127
95466,note_off,141,0,0,,7,,,67,127
95469,note_off,3,0,0,,0,,,60,127
95469,note_on,0,0,0,,10,,,69,127
95610,note_off,141,0,0,,10,,,69,127
95610,note_off,0,0,0,,4,,,52,127
95613,note_on,3,0,0,,5,,,41,127
95613,note_on,0,0,0,,10,,,57,127
95757,note_on,144,0,0,,5,,,65,127
95757,note_on,0,0,0,,10,,,69,127
95898,note_off,141,0,0,,10,,,69,127
95898,note_off,0,0,0,,5,,,65,127
95898,note_off,0,0,0,,10,,,57,127
95898,note_off,0,0,0,,5,,,41,127
95901,note_on,3,0,0,,7,,,43,127
95901,note_on,0,0,0,,7,,,67,127
95901,note_on,0,0,0,,4,,,64,127
96042,note_off,141,0,0,,4,,,64,127
96042,note_off,0,0,0,,7,,,67,127
96045,note_on,3,0,0,,5,,,65,127
96045,note_on,0,0,0,,2,,,62,127
96186,note_off,141,0,0,,2,,,62,127
96186,note_off,0,0,0,,5,,,65,127
96189,note_on,3,0,0,,0,,,60,127
96189,note_on,0,0,0,,4,,,64,127
96330,note_off,141,0,0,,4,,,64,127
96330,note_off,0,0,0,,0,,,60,127
96333,note_on,3,0,0,,12,,,59,127
96333,note_on,0,0,0,,2,,,62,127
96474,note_off,141,0,0,,2,,,62,127
96474,note_off,0,0,0,,12,,,59,127
96474,note_off,0,0,0,,7,,,43,127
96477,note_on,3,0,0,,0,,,36,127
96477,note_on,0,0,0,,0,,,48,127
96477,note_on,0,0,0,,4,,,64,127
96477,note_on,0,0,0,,0,,,60,127
96618,note_off,141,0,0,,4,,,64,127
96621,note_on,3,0,0,,2,,,62,127
96762,note_off,141,0,0,,2,,,62,127
96765,note_on,3,0,0,,4,,,64,127
96906,note_off,141,0,0,,0,,,48,127
96906,note_off,0,0,0,,0,,,36,127
96909,note_on,3,0,0,,2,,,50,127
97050,note_off,141,0,0,,2,,,50,127
97053,note_on,3,0,0,,4,,,52,127
97194,note_off,141,0,0,,4,,,64,127
97197,note_on,3,0,0,,5,,,65,127
97338,note_off,141,0,0,,5,,,65,127
97338,note_off,0,0,0,,4,,,52,127
97340,note_off,2,0,0,,0,,,60,127
97342,note_on,2,0,0,,5,,,41,127
97342,note_on,0,0,0,,10,,,57,127
97483,note_off,141,0,0,,10,,,57,127
97486,note_on,3,0,0,,10,,,57,127
97486,note_on,0,0,0,,5,,,65,127
97627,note_off,141,0,0,,5,,,65,127
97627,note_off,0,0,0,,10,,,57,127
97627,note_off,0,0,0,,5,,,41,127
97630,note_on,3,0,0,,7,,,43,127
97630,note_on,0,0,0,,4,,,64,127
97630,note_on,0,0,0,,7,,,55,127
97771,note_off,141,0,0,,7,,,55,127
97771,note_off,0,0,0,,4,,,64,127
97774,note_on,3,0,0,,2,,,62,127
97774,note_on,0,0,0,,5,,,53,127
97915,note_off,141,0,0,,5,,,53,127
97915,note_off,0,0,0,,2,,,62,127
97915,note_off,0,0,0,,7,,,43,127
97918,note_on,3,0,0,,7,,,43,127
97918,note_on,0,0,0,,4,,,52,127
97918,note_on,0,0,0,,0,,,60,127
98059,note_off,141,0,0,,0,,,60,127
98059,note_off,0,0,0,,4,,,52,127
98078,note_on,19,0,0,,12,,,59,127
98078,note_on,0,0,0,,2,,,50,127
98223,note_off,145,0,0,,7,,,43,127
98229,note_off,6,0,0,,2,,,50,127
98229,note_off,0,0,0,,12,,,59,127
98254,note_on,25,0,0,,4,,,52,127
98254,note_on,0,0,0,,0,,,60,127
98254,note_on,0,0,0,,0,,,36,127
99752,note_off,1498,0,0,,0,,,36,127
99752,note_off,0,0,0,,0,,,60,127
99752,note_off,0,0,0,,4,,,52,127
104448,end_of_track,4696,1,0,,,,,,
