tick,type,time,meta,track,program,channel,pitch,tempo,note,velocity
0,copyright,0,1,0,,,,,,
0,program_change,0,0,0,6,0,,,,
0,pitchwheel,0,0,0,,0,0,,,
0,program_change,0,0,0,6,1,,,,
0,pitchwheel,0,0,0,,1,-590,,,
0,program_change,0,0,0,6,2,,,,
0,pitchwheel,0,0,0,,2,-272,,,
0,program_change,0,0,0,6,3,,,,
0,pitchwheel,0,0,0,,3,-353,,,
0,program_change,0,0,0,6,4,,,,
0,pitchwheel,0,0,0,,4,-560,,,
0,program_change,0,0,0,6,5,,,,
0,pitchwheel,0,0,0,,5,-80,,,
0,program_change,0,0,0,6,6,,,,
0,pitchwheel,0,0,0,,6,-625,,,
0,program_change,0,0,0,6,7,,,,
0,pitchwheel,0,0,0,,7,-130,,,
0,program_change,0,0,0,6,8,,,,
0,pitchwheel,0,0,0,,8,-512,,,
0,program_change,0,0,0,6,10,,,,
0,pitchwheel,0,0,0,,10,-464,,,
0,program_change,0,0,0,6,11,,,,
0,pitchwheel,0,0,0,,11,-208,,,
0,program_change,0,0,0,6,12,,,,
0,pitchwheel,0,0,0,,12,-553,,,
0,set_tempo,0,1,0,,,,500000,,
48,note_on,48,0,0,,2,,,74,127
598,note_off,550,0,0,,2,,,74,127
624,note_on,26,0,0,,7,,,79,127
1198,note_off,574,0,0,,7,,,79,127
1200,note_on,2,0,0,,7,,,79,127
1774,note_off,574,0,0,,7,,,79,127
1776,note_on,2,0,0,,7,,,79,127
2350,note_off,574,0,0,,7,,,79,127
2352,note_on,2,0,0,,7,,,67,127
2352,note_on,0,0,0,,10,,,81,127
2352,note_on,0,0,0,,7,,,79,127
2544,note_off,192,0,0,,10,,,81,127
2544,note_on,0,0,0,,6,,,78,127
2550,note_off,6,0,0,,7,,,79,127
2736,note_on,186,0,0,,4,,,76,127
2742,note_off,6,0,0,,6,,,78,127
2926,note_off,184,0,0,,7,,,67,127
2927,note_off,1,0,0,,4,,,76,127
2928,note_on,1,0,0,,7,,,67,127
2928,note_on,0,0,0,,4,,,76,127
3144,note_off,216,0,0,,4,,,76,127
3144,note_on,0,0,0,,2,,,74,127
3216,note_on,72,0,0,,4,,,76,127
3224,note_off,8,0,0,,2,,,74,127
3288,note_on,64,0,0,,2,,,74,127
3296,note_off,8,0,0,,4,,,76,127
3360,note_on,64,0,0,,4,,,76,127
3368,note_off,8,0,0,,2,,,74,127
3432,note_on,64,0,0,,2,,,74,127
3440,note_off,8,0,0,,4,,,76,127
3502,note_off,62,0,0,,7,,,67,127
3504,note_on,2,0,0,,7,,,67,127
4078,note_off,574,0,0,,7,,,67,127
4080,note_on,2,0,0,,6,,,66,127
4532,note_off,452,0,0,,2,,,74,127
4654,note_off,122,0,0,,6,,,66,127
4656,note_on,2,0,0,,2,,,62,127
4656,note_on,0,0,0,,2,,,74,127
4726,note_off,70,0,0,,2,,,74,127
4728,note_on,2,0,0,,0,,,72,127
4798,note_off,70,0,0,,0,,,72,127
4800,note_on,2,0,0,,2,,,74,127
4870,note_off,70,0,0,,2,,,74,127
4872,note_on,2,0,0,,0,,,72,127
4942,note_off,70,0,0,,0,,,72,127
4944,note_on,2,0,0,,2,,,74,127
5014,note_off,70,0,0,,2,,,74,127
5016,note_on,2,0,0,,0,,,72,127
5086,note_off,70,0,0,,0,,,72,127
5088,note_on,2,0,0,,2,,,74,127
5158,note_off,70,0,0,,2,,,74,127
5160,note_on,2,0,0,,0,,,72,127
5230,note_off,70,0,0,,0,,,72,127
5230,note_off,0,0,0,,2,,,62,127
5232,note_on,2,0,0,,7,,,67,127
5232,note_on,0,0,0,,12,,,71,127
5374,note_off,142,0,0,,12,,,71,127
5376,note_on,2,0,0,,0,,,72,127
5518,note_off,142,0,0,,0,,,72,127
5520,note_on,2,0,0,,2,,,74,127
5806,note_off,286,0,0,,2,,,74,127
5806,note_off,0,0,0,,7,,,67,127
5808,note_on,2,0,0,,12,,,59,127
5808,note_on,0,0,0,,2,,,74,127
6094,note_off,286,0,0,,2,,,74,127
6096,note_on,2,0,0,,2,,,74,127
6382,note_off,286,0,0,,2,,,74,127
6382,note_off,0,0,0,,12,,,59,127
6384,note_on,2,0,0,,0,,,60,127
6384,note_on,0,0,0,,2,,,74,127
6670,note_off,286,0,0,,2,,,74,127
6672,note_on,2,0,0,,4,,,76,127
6958,note_off,286,0,0,,4,,,76,127
6958,note_off,0,0,0,,0,,,60,127
6960,note_on,2,0,0,,4,,,64,127
6960,note_on,0,0,0,,2,,,74,127
7101,note_off,141,0,0,,2,,,74,127
7104,note_on,3,0,0,,0,,,72,127
7245,note_off,141,0,0,,0,,,72,127
7248,note_on,3,0,0,,12,,,71,127
7389,note_off,141,0,0,,12,,,71,127
7392,note_on,3,0,0,,10,,,69,127
7533,note_off,141,0,0,,10,,,69,127
7535,note_off,2,0,0,,4,,,64,127
7537,note_on,2,0,0,,2,,,62,127
7537,note_on,0,0,0,,7,,,67,127
7753,note_on,216,0,0,,6,,,66,127
7755,note_off,2,0,0,,7,,,67,127
7830,note_on,75,0,0,,7,,,67,127
7833,note_off,3,0,0,,6,,,66,127
7907,note_on,74,0,0,,6,,,66,127
7910,note_off,3,0,0,,7,,,67,127
8111,note_off,201,0,0,,2,,,62,127
8113,note_on,2,0,0,,0,,,60,127
8510,note_off,397,0,0,,6,,,66,127
8687,note_off,177,0,0,,0,,,60,127
8689,note_on,2,0,0,,2,,,62,127
8689,note_on,0,0,0,,12,,,59,127
8977,note_on,288,0,0,,2,,,74,127
9263,note_off,286,0,0,,2,,,74,127
9263,note_off,0,0,0,,12,,,59,127
9263,note_off,0,0,0,,2,,,62,127
9265,note_on,2,0,0,,12,,,59,127
9265,note_on,0,0,0,,2,,,62,127
9265,note_on,0,0,0,,0,,,72,127
9407,note_off,142,0,0,,0,,,72,127
9409,note_on,2,0,0,,12,,,71,127
9551,note_off,142,0,0,,12,,,71,127
9553,note_on,2,0,0,,10,,,69,127
9695,note_off,142,0,0,,10,,,69,127
9697,note_on,2,0,0,,7,,,67,127
9839,note_off,142,0,0,,7,,,67,127
9839,note_off,0,0,0,,2,,,62,127
9839,note_off,0,0,0,,12,,,59,127
9841,note_on,2,0,0,,4,,,64,127
9841,note_on,0,0,0,,0,,,60,127
9841,note_on,0,0,0,,8,,,68,127
9983,note_off,142,0,0,,8,,,68,127
9985,note_on,2,0,0,,10,,,69,127
10127,note_off,142,0,0,,10,,,69,127
10129,note_on,2,0,0,,10,,,69,127
10271,note_off,142,0,0,,10,,,69,127
10273,note_on,2,0,0,,8,,,68,127
10415,note_off,142,0,0,,8,,,68,127
10415,note_off,0,0,0,,0,,,60,127
10415,note_off,0,0,0,,4,,,64,127
10417,note_on,2,0,0,,4,,,64,127
10417,note_on,0,0,0,,0,,,60,127
10417,note_on,0,0,0,,8,,,68,127
10703,note_off,286,0,0,,8,,,68,127
10705,note_on,2,0,0,,10,,,69,127
10991,note_off,286,0,0,,0,,,60,127
10991,note_off,0,0,0,,4,,,64,127
10993,note_on,2,0,0,,6,,,66,127
10993,note_on,0,0,0,,2,,,62,127
11125,note_off,132,0,0,,10,,,69,127
11281,note_on,156,0,0,,4,,,76,127
11567,note_off,286,0,0,,4,,,76,127
11567,note_off,0,0,0,,2,,,62,127
11567,note_off,0,0,0,,6,,,66,127
11569,note_on,2,0,0,,2,,,62,127
11569,note_on,0,0,0,,6,,,66,127
11569,note_on,0,0,0,,2,,,74,127
11711,note_off,142,0,0,,2,,,74,127
11713,note_on,2,0,0,,0,,,72,127
11855,note_off,142,0,0,,0,,,72,127
11857,note_on,2,0,0,,12,,,71,127
11999,note_off,142,0,0,,12,,,71,127
12001,note_on,2,0,0,,10,,,69,127
12143,note_off,142,0,0,,10,,,69,127
12143,note_off,0,0,0,,6,,,66,127
12143,note_off,0,0,0,,2,,,62,127
12145,note_on,2,0,0,,7,,,55,127
12145,note_on,0,0,0,,2,,,62,127
12145,note_on,0,0,0,,11,,,70,127
12287,note_off,142,0,0,,11,,,70,127
12289,note_on,2,0,0,,12,,,71,127
12431,note_off,142,0,0,,12,,,71,127
12433,note_on,2,0,0,,12,,,71,127
12575,note_off,142,0,0,,12,,,71,127
12577,note_on,2,0,0,,11,,,70,127
12719,note_off,142,0,0,,11,,,70,127
12719,note_off,0,0,0,,2,,,62,127
12719,note_off,0,0,0,,7,,,55,127
12721,note_on,2,0,0,,7,,,67,127
12721,note_on,0,0,0,,11,,,70,127
13007,note_off,286,0,0,,11,,,70,127
13009,note_on,2,0,0,,12,,,71,127
13295,note_off,286,0,0,,7,,,67,127
13297,note_on,2,0,0,,7,,,67,127
13429,note_off,132,0,0,,12,,,71,127
13585,note_on,156,0,0,,12,,,83,127
13871,note_off,286,0,0,,12,,,83,127
13871,note_off,0,0,0,,7,,,67,127
13873,note_on,2,0,0,,7,,,67,127
13873,note_on,0,0,0,,10,,,81,127
13873,note_on,0,0,0,,7,,,79,127
14015,note_off,142,0,0,,7,,,79,127
14015,note_off,0,0,0,,10,,,81,127
14017,note_on,2,0,0,,6,,,78,127
14159,note_off,142,0,0,,6,,,78,127
14161,note_on,2,0,0,,4,,,76,127
14303,note_off,142,0,0,,4,,,76,127
14305,note_on,2,0,0,,3,,,75,127
14447,note_off,142,0,0,,3,,,75,127
14447,note_off,0,0,0,,7,,,67,127
14449,note_on,2,0,0,,7,,,67,127
14449,note_on,0,0,0,,4,,,76,127
14737,note_on,288,0,0,,12,,,83,127
14789,note_off,52,0,0,,4,,,76,127
15023,note_off,234,0,0,,12,,,83,127
15023,note_off,0,0,0,,7,,,67,127
15025,note_on,2,0,0,,7,,,67,127
15025,note_on,0,0,0,,7,,,79,127
15025,note_on,0,0,0,,10,,,81,127
15167,note_off,142,0,0,,10,,,81,127
15167,note_off,0,0,0,,7,,,79,127
15169,note_on,2,0,0,,6,,,78,127
15311,note_off,142,0,0,,6,,,78,127
15313,note_on,2,0,0,,4,,,76,127
15455,note_off,142,0,0,,4,,,76,127
15457,note_on,2,0,0,,2,,,74,127
15599,note_off,142,0,0,,2,,,74,127
15599,note_off,0,0,0,,7,,,67,127
15601,note_on,2,0,0,,7,,,67,127
15601,note_on,0,0,0,,1,,,73,127
15889,note_on,288,0,0,,7,,,79,127
15911,note_off,22,0,0,,1,,,73,127
16175,note_off,264,0,0,,7,,,79,127
16175,note_off,0,0,0,,7,,,67,127
16177,note_on,2,0,0,,7,,,67,127
16177,note_on,0,0,0,,4,,,76,127
16177,note_on,0,0,0,,6,,,78,127
16319,note_off,142,0,0,,6,,,78,127
16319,note_off,0,0,0,,4,,,76,127
16321,note_on,2,0,0,,2,,,74,127
16463,note_off,142,0,0,,2,,,74,127
16465,note_on,2,0,0,,1,,,73,127
16607,note_off,142,0,0,,1,,,73,127
16609,note_on,2,0,0,,12,,,71,127
16751,note_off,142,0,0,,12,,,71,127
16751,note_off,0,0,0,,7,,,67,127
16753,note_on,2,0,0,,7,,,67,127
16753,note_on,0,0,0,,12,,,71,127
16969,note_off,216,0,0,,12,,,71,127
16969,note_on,0,0,0,,10,,,69,127
17039,note_off,70,0,0,,10,,,69,127
17041,note_on,2,0,0,,12,,,71,127
17111,note_off,70,0,0,,12,,,71,127
17113,note_on,2,0,0,,10,,,69,127
17183,note_off,70,0,0,,10,,,69,127
17185,note_on,2,0,0,,12,,,71,127
17255,note_off,70,0,0,,12,,,71,127
17257,note_on,2,0,0,,10,,,69,127
17323,note_off,66,0,0,,7,,,67,127
17329,note_on,6,0,0,,5,,,65,127
17615,note_off,286,0,0,,5,,,65,127
17617,note_on,2,0,0,,4,,,64,127
17903,note_off,286,0,0,,4,,,64,127
17905,note_on,2,0,0,,5,,,65,127
17977,note_off,72,0,0,,10,,,69,127
18193,note_on,216,0,0,,10,,,81,127
18479,note_off,286,0,0,,10,,,81,127
18479,note_off,0,0,0,,5,,,65,127
18481,note_on,2,0,0,,5,,,65,127
18481,note_on,0,0,0,,7,,,79,127
18481,note_on,0,0,0,,5,,,77,127
18623,note_off,142,0,0,,5,,,77,127
18623,note_off,0,0,0,,7,,,79,127
18625,note_on,2,0,0,,4,,,76,127
18767,note_off,142,0,0,,4,,,76,127
18769,note_on,2,0,0,,2,,,74,127
18911,note_off,142,0,0,,2,,,74,127
18913,note_on,2,0,0,,1,,,73,127
19055,note_off,142,0,0,,1,,,73,127
19055,note_off,0,0,0,,5,,,65,127
19057,note_on,2,0,0,,5,,,65,127
19057,note_on,0,0,0,,2,,,74,127
19345,note_on,288,0,0,,10,,,81,127
19367,note_off,22,0,0,,2,,,74,127
19631,note_off,264,0,0,,10,,,81,127
19631,note_off,0,0,0,,5,,,65,127
19633,note_on,2,0,0,,5,,,65,127
19633,note_on,0,0,0,,5,,,77,127
19633,note_on,0,0,0,,7,,,79,127
19775,note_off,142,0,0,,7,,,79,127
19775,note_off,0,0,0,,5,,,77,127
19777,note_on,2,0,0,,4,,,76,127
19919,note_off,142,0,0,,4,,,76,127
19921,note_on,2,0,0,,2,,,74,127
20063,note_off,142,0,0,,2,,,74,127
20065,note_on,2,0,0,,1,,,73,127
20207,note_off,142,0,0,,1,,,73,127
20207,note_off,0,0,0,,5,,,65,127
20209,note_on,2,0,0,,5,,,65,127
20209,note_on,0,0,0,,2,,,74,127
20495,note_off,286,0,0,,2,,,74,127
20497,note_on,2,0,0,,5,,,77,127
20783,note_off,286,0,0,,5,,,77,127
20783,note_off,0,0,0,,5,,,65,127
20785,note_on,2,0,0,,5,,,65,127
20785,note_on,0,0,0,,2,,,74,127
20785,note_on,0,0,0,,4,,,76,127
20927,note_off,142,0,0,,4,,,76,127
20927,note_off,0,0,0,,2,,,74,127
20929,note_on,2,0,0,,0,,,72,127
21071,note_off,142,0,0,,0,,,72,127
21073,note_on,2,0,0,,12,,,71,127
21215,note_off,142,0,0,,12,,,71,127
21217,note_on,2,0,0,,10,,,69,127
21359,note_off,142,0,0,,10,,,69,127
21359,note_off,0,0,0,,5,,,65,127
21361,note_on,2,0,0,,5,,,65,127
21361,note_on,0,0,0,,7,,,67,127
21647,note_off,286,0,0,,5,,,65,127
21649,note_on,2,0,0,,5,,,65,127
21935,note_off,286,0,0,,5,,,65,127
21937,note_on,2,0,0,,4,,,64,127
22223,note_off,286,0,0,,4,,,64,127
22225,note_on,2,0,0,,2,,,62,127
22511,note_off,286,0,0,,2,,,62,127
22513,note_on,2,0,0,,4,,,64,127
22657,note_on,144,0,0,,11,,,70,127
22801,note_on,144,0,0,,1,,,73,127
22945,note_on,144,0,0,,4,,,76,127
23073,note_off,128,0,0,,7,,,67,127
23081,note_off,8,0,0,,1,,,73,127
23087,note_off,6,0,0,,4,,,76,127
23087,note_off,0,0,0,,4,,,64,127
23089,note_on,2,0,0,,7,,,67,127
23089,note_on,0,0,0,,4,,,64,127
23089,note_on,0,0,0,,7,,,79,127
23137,note_off,48,0,0,,11,,,70,127
23231,note_off,94,0,0,,7,,,79,127
23233,note_on,2,0,0,,11,,,82,127
23375,note_off,142,0,0,,11,,,82,127
23377,note_on,2,0,0,,7,,,79,127
23663,note_off,286,0,0,,4,,,64,127
23663,note_off,0,0,0,,7,,,67,127
23665,note_on,2,0,0,,4,,,64,127
23665,note_on,0,0,0,,7,,,67,127
23665,note_on,0,0,0,,1,,,61,127
23737,note_off,72,0,0,,7,,,79,127
23809,note_on,72,0,0,,4,,,76,127
23951,note_off,142,0,0,,4,,,76,127
23953,note_on,2,0,0,,7,,,79,127
24239,note_off,286,0,0,,1,,,61,127
24239,note_off,0,0,0,,7,,,67,127
24239,note_off,0,0,0,,4,,,64,127
24241,note_on,2,0,0,,1,,,61,127
24241,note_on,0,0,0,,7,,,67,127
24241,note_on,0,0,0,,11,,,58,127
24241,note_on,0,0,0,,4,,,64,127
24313,note_off,72,0,0,,7,,,79,127
24385,note_on,72,0,0,,11,,,82,127
24527,note_off,142,0,0,,11,,,82,127
24529,note_on,2,0,0,,7,,,79,127
24815,note_off,286,0,0,,4,,,64,127
24815,note_off,0,0,0,,11,,,58,127
24815,note_off,0,0,0,,7,,,67,127
24815,note_off,0,0,0,,1,,,61,127
24817,note_on,2,0,0,,7,,,67,127
24817,note_on,0,0,0,,1,,,61,127
24817,note_on,0,0,0,,4,,,64,127
24817,note_on,0,0,0,,10,,,57,127
24889,note_off,72,0,0,,7,,,79,127
24961,note_on,72,0,0,,4,,,76,127
25103,note_off,142,0,0,,4,,,76,127
25105,note_on,2,0,0,,7,,,79,127
25391,note_off,286,0,0,,10,,,57,127
25391,note_off,0,0,0,,4,,,64,127
25391,note_off,0,0,0,,1,,,61,127
25391,note_off,0,0,0,,7,,,67,127
25393,note_on,2,0,0,,7,,,67,127
25393,note_on,0,0,0,,11,,,58,127
25393,note_on,0,0,0,,2,,,62,127
25393,note_on,0,0,0,,7,,,55,127
25535,note_off,142,0,0,,7,,,79,127
25537,note_on,2,0,0,,11,,,82,127
25679,note_off,142,0,0,,11,,,82,127
25681,note_on,2,0,0,,7,,,79,127
25823,note_off,142,0,0,,7,,,79,127
25825,note_on,2,0,0,,4,,,76,127
25967,note_off,142,0,0,,4,,,76,127
25967,note_off,0,0,0,,7,,,55,127
25967,note_off,0,0,0,,2,,,62,127
25967,note_off,0,0,0,,11,,,58,127
25967,note_off,0,0,0,,7,,,67,127
25969,note_on,2,0,0,,7,,,67,127
25969,note_on,0,0,0,,4,,,64,127
25969,note_on,0,0,0,,10,,,57,127
25969,note_on,0,0,0,,1,,,61,127
25969,note_on,0,0,0,,2,,,74,127
26039,note_off,70,0,0,,2,,,74,127
26041,note_on,2,0,0,,1,,,73,127
26111,note_off,70,0,0,,1,,,73,127
26113,note_on,2,0,0,,2,,,74,127
26183,note_off,70,0,0,,2,,,74,127
26185,note_on,2,0,0,,1,,,73,127
26543,note_off,358,0,0,,1,,,61,127
26543,note_off,0,0,0,,10,,,57,127
26543,note_off,0,0,0,,4,,,64,127
26543,note_off,0,0,0,,7,,,67,127
26545,note_on,2,0,0,,7,,,67,127
26545,note_on,0,0,0,,4,,,64,127
26545,note_on,0,0,0,,1,,,61,127
26545,note_on,0,0,0,,10,,,57,127
27047,note_off,502,0,0,,1,,,73,127
27119,note_off,72,0,0,,10,,,57,127
27119,note_off,0,0,0,,1,,,61,127
27119,note_off,0,0,0,,4,,,64,127
27119,note_off,0,0,0,,7,,,67,127
27121,note_on,2,0,0,,7,,,67,127
27121,note_on,0,0,0,,4,,,64,127
27121,note_on,0,0,0,,10,,,57,127
27121,note_on,0,0,0,,1,,,61,127
27265,note_on,144,0,0,,5,,,77,127
27407,note_off,142,0,0,,5,,,77,127
27409,note_on,2,0,0,,4,,,76,127
27551,note_off,142,0,0,,4,,,76,127
27553,note_on,2,0,0,,10,,,81,127
27695,note_off,142,0,0,,10,,,81,127
27695,note_off,0,0,0,,1,,,61,127
27695,note_off,0,0,0,,10,,,57,127
27695,note_off,0,0,0,,4,,,64,127
27695,note_off,0,0,0,,7,,,67,127
27697,note_on,2,0,0,,7,,,67,127
27697,note_on,0,0,0,,10,,,57,127
27697,note_on,0,0,0,,1,,,61,127
27697,note_on,0,0,0,,4,,,64,127
27697,note_on,0,0,0,,7,,,79,127
27839,note_off,142,0,0,,7,,,79,127
27841,note_on,2,0,0,,5,,,77,127
27983,note_off,142,0,0,,5,,,77,127
27985,note_on,2,0,0,,4,,,76,127
28127,note_off,142,0,0,,4,,,76,127
28129,note_on,2,0,0,,2,,,74,127
28271,note_off,142,0,0,,2,,,74,127
28271,note_off,0,0,0,,4,,,64,127
28271,note_off,0,0,0,,1,,,61,127
28271,note_off,0,0,0,,10,,,57,127
28271,note_off,0,0,0,,7,,,67,127
28273,note_on,2,0,0,,7,,,55,127
28273,note_on,0,0,0,,1,,,61,127
28273,note_on,0,0,0,,4,,,64,127
28273,note_on,0,0,0,,4,,,76,127
28343,note_off,70,0,0,,4,,,76,127
28345,note_on,2,0,0,,2,,,74,127
28415,note_off,70,0,0,,2,,,74,127
28417,note_on,2,0,0,,1,,,73,127
28559,note_off,142,0,0,,1,,,73,127
28561,note_on,2,0,0,,7,,,79,127
28847,note_off,286,0,0,,4,,,64,127
28847,note_off,0,0,0,,1,,,61,127
28847,note_off,0,0,0,,7,,,55,127
28849,note_on,2,0,0,,7,,,55,127
28849,note_on,0,0,0,,1,,,61,127
28849,note_on,0,0,0,,4,,,64,127
28991,note_off,142,0,0,,7,,,79,127
28993,note_on,2,0,0,,5,,,77,127
29135,note_off,142,0,0,,5,,,77,127
29137,note_on,2,0,0,,5,,,77,127
29279,note_off,142,0,0,,5,,,77,127
29281,note_on,2,0,0,,4,,,76,127
29423,note_off,142,0,0,,4,,,76,127
29423,note_off,0,0,0,,4,,,64,127
29423,note_off,0,0,0,,1,,,61,127
29423,note_off,0,0,0,,7,,,55,127
29425,note_on,2,0,0,,4,,,64,127
29425,note_on,0,0,0,,7,,,55,127
29425,note_on,0,0,0,,10,,,57,127
29425,note_on,0,0,0,,1,,,61,127
29425,note_on,0,0,0,,4,,,76,127
29567,note_off,142,0,0,,4,,,76,127
29569,note_on,2,0,0,,2,,,74,127
29711,note_off,142,0,0,,2,,,74,127
29713,note_on,2,0,0,,2,,,74,127
29855,note_off,142,0,0,,2,,,74,127
29857,note_on,2,0,0,,1,,,73,127
29999,note_off,142,0,0,,1,,,73,127
29999,note_off,0,0,0,,1,,,61,127
29999,note_off,0,0,0,,10,,,57,127
29999,note_off,0,0,0,,7,,,55,127
29999,note_off,0,0,0,,4,,,64,127
30001,note_on,2,0,0,,4,,,64,127
30001,note_on,0,0,0,,10,,,57,127
30001,note_on,0,0,0,,7,,,55,127
30001,note_on,0,0,0,,1,,,61,127
30001,note_on,0,0,0,,1,,,73,127
30143,note_off,142,0,0,,1,,,73,127
30145,note_on,2,0,0,,12,,,71,127
30287,note_off,142,0,0,,12,,,71,127
30289,note_on,2,0,0,,12,,,71,127
30431,note_off,142,0,0,,12,,,71,127
30433,note_on,2,0,0,,10,,,69,127
30575,note_off,142,0,0,,10,,,69,127
30575,note_off,0,0,0,,1,,,61,127
30575,note_off,0,0,0,,7,,,55,127
30575,note_off,0,0,0,,10,,,57,127
30575,note_off,0,0,0,,4,,,64,127
30577,note_on,2,0,0,,2,,,62,127
30577,note_on,0,0,0,,10,,,57,127
30577,note_on,0,0,0,,6,,,54,127
30577,note_on,0,0,0,,10,,,69,127
30719,note_off,142,0,0,,10,,,69,127
30721,note_on,2,0,0,,8,,,80,127
30863,note_off,142,0,0,,8,,,80,127
30865,note_on,2,0,0,,8,,,80,127
31007,note_off,142,0,0,,8,,,80,127
31009,note_on,2,0,0,,10,,,81,127
31151,note_off,142,0,0,,6,,,54,127
31151,note_off,0,0,0,,10,,,57,127
31151,note_off,0,0,0,,2,,,62,127
31153,note_on,2,0,0,,2,,,62,127
31153,note_on,0,0,0,,6,,,54,127
31153,note_on,0,0,0,,10,,,57,127
31295,note_off,142,0,0,,10,,,81,127
31297,note_on,2,0,0,,7,,,79,127
31439,note_off,142,0,0,,7,,,79,127
31441,note_on,2,0,0,,7,,,79,127
31583,note_off,142,0,0,,7,,,79,127
31585,note_on,2,0,0,,6,,,78,127
31727,note_off,142,0,0,,6,,,78,127
31727,note_off,0,0,0,,10,,,57,127
31727,note_off,0,0,0,,6,,,54,127
31727,note_off,0,0,0,,2,,,62,127
31729,note_on,2,0,0,,2,,,62,127
31729,note_on,0,0,0,,10,,,57,127
31729,note_on,0,0,0,,6,,,54,127
31729,note_on,0,0,0,,6,,,78,127
31871,note_off,142,0,0,,6,,,78,127
31873,note_on,2,0,0,,4,,,76,127
32015,note_off,142,0,0,,4,,,76,127
32017,note_on,2,0,0,,4,,,76,127
32159,note_off,142,0,0,,4,,,76,127
32161,note_on,2,0,0,,2,,,74,127
32303,note_off,142,0,0,,2,,,74,127
32303,note_off,0,0,0,,6,,,54,127
32303,note_off,0,0,0,,10,,,57,127
32303,note_off,0,0,0,,2,,,62,127
32305,note_on,2,0,0,,2,,,62,127
32305,note_on,0,0,0,,10,,,57,127
32305,note_on,0,0,0,,6,,,54,127
32305,note_on,0,0,0,,2,,,74,127
32447,note_off,142,0,0,,2,,,74,127
32449,note_on,2,0,0,,1,,,73,127
32591,note_off,142,0,0,,1,,,73,127
32593,note_on,2,0,0,,1,,,73,127
32735,note_off,142,0,0,,1,,,73,127
32737,note_on,2,0,0,,12,,,71,127
32863,note_off,126,0,0,,12,,,71,127
32868,note_off,5,0,0,,2,,,62,127
32879,note_off,11,0,0,,6,,,54,127
32879,note_off,0,0,0,,10,,,57,127
32881,note_on,2,0,0,,4,,,64,127
32881,note_on,0,0,0,,2,,,62,127
32881,note_on,0,0,0,,7,,,55,127
32881,note_on,0,0,0,,11,,,82,127
33023,note_off,142,0,0,,11,,,82,127
33025,note_on,2,0,0,,12,,,83,127
33167,note_off,142,0,0,,12,,,83,127
33169,note_on,2,0,0,,10,,,81,127
33311,note_off,142,0,0,,10,,,81,127
33313,note_on,2,0,0,,7,,,79,127
33455,note_off,142,0,0,,7,,,79,127
33455,note_off,0,0,0,,7,,,55,127
33455,note_off,0,0,0,,2,,,62,127
33455,note_off,0,0,0,,4,,,64,127
33457,note_on,2,0,0,,7,,,55,127
33457,note_on,0,0,0,,2,,,62,127
33457,note_on,0,0,0,,4,,,64,127
33457,note_on,0,0,0,,6,,,78,127
33599,note_off,142,0,0,,6,,,78,127
33601,note_on,2,0,0,,4,,,76,127
33743,note_off,142,0,0,,4,,,76,127
33745,note_on,2,0,0,,12,,,71,127
33887,note_off,142,0,0,,12,,,71,127
33889,note_on,2,0,0,,4,,,76,127
34031,note_off,142,0,0,,4,,,76,127
34031,note_off,0,0,0,,4,,,64,127
34031,note_off,0,0,0,,2,,,62,127
34031,note_off,0,0,0,,7,,,55,127
34033,note_on,2,0,0,,6,,,66,127
34033,note_on,0,0,0,,10,,,57,127
34033,note_on,0,0,0,,2,,,62,127
34033,note_on,0,0,0,,2,,,74,127
34391,note_off,358,0,0,,2,,,74,127
34393,note_on,2,0,0,,12,,,71,127
34463,note_off,70,0,0,,12,,,71,127
34465,note_on,2,0,0,,1,,,73,127
34535,note_off,70,0,0,,1,,,73,127
34537,note_on,2,0,0,,2,,,74,127
34607,note_off,70,0,0,,2,,,74,127
34607,note_off,0,0,0,,2,,,62,127
34607,note_off,0,0,0,,10,,,57,127
34607,note_off,0,0,0,,6,,,66,127
34609,note_on,2,0,0,,10,,,57,127
34609,note_on,0,0,0,,4,,,64,127
34609,note_on,0,0,0,,2,,,74,127
34679,note_off,70,0,0,,2,,,74,127
34681,note_on,2,0,0,,1,,,73,127
34751,note_off,70,0,0,,1,,,73,127
34753,note_on,2,0,0,,2,,,74,127
34823,note_off,70,0,0,,2,,,74,127
34825,note_on,2,0,0,,1,,,73,127
35110,note_off,285,0,0,,1,,,73,127
35184,note_off,74,0,0,,4,,,64,127
35184,note_off,0,0,0,,10,,,57,127
35186,note_on,2,0,0,,2,,,62,127
35186,note_on,0,0,0,,12,,,59,127
35186,note_on,0,0,0,,6,,,66,127
35328,note_off,142,0,0,,6,,,66,127
35330,note_on,2,0,0,,7,,,67,127
35472,note_off,142,0,0,,7,,,67,127
35474,note_on,2,0,0,,11,,,70,127
35616,note_off,142,0,0,,11,,,70,127
35618,note_on,2,0,0,,12,,,71,127
35760,note_off,142,0,0,,12,,,71,127
35760,note_off,0,0,0,,12,,,59,127
35760,note_off,0,0,0,,2,,,62,127
35762,note_on,2,0,0,,2,,,62,127
35762,note_on,0,0,0,,7,,,55,127
35762,note_on,0,0,0,,4,,,64,127
35762,note_on,0,0,0,,3,,,75,127
35856,note_off,94,0,0,,3,,,75,127
35858,note_on,2,0,0,,4,,,76,127
35952,note_off,94,0,0,,4,,,76,127
35954,note_on,2,0,0,,6,,,78,127
36048,note_off,94,0,0,,6,,,78,127
36050,note_on,2,0,0,,7,,,79,127
36144,note_off,94,0,0,,7,,,79,127
36146,note_on,2,0,0,,6,,,78,127
36240,note_off,94,0,0,,6,,,78,127
36242,note_on,2,0,0,,4,,,76,127
36336,note_off,94,0,0,,4,,,76,127
36336,note_off,0,0,0,,4,,,64,127
36336,note_off,0,0,0,,7,,,55,127
36336,note_off,0,0,0,,2,,,62,127
36338,note_on,2,0,0,,2,,,62,127
36338,note_on,0,0,0,,10,,,57,127
36338,note_on,0,0,0,,6,,,66,127
36338,note_on,0,0,0,,2,,,74,127
36552,note_off,214,0,0,,2,,,74,127
36554,note_on,2,0,0,,4,,,76,127
36624,note_off,70,0,0,,4,,,76,127
36626,note_on,2,0,0,,2,,,74,127
36696,note_off,70,0,0,,2,,,74,127
36698,note_on,2,0,0,,1,,,73,127
36768,note_off,70,0,0,,1,,,73,127
36770,note_on,2,0,0,,2,,,74,127
36840,note_off,70,0,0,,2,,,74,127
36842,note_on,2,0,0,,4,,,76,127
36912,note_off,70,0,0,,4,,,76,127
36912,note_off,0,0,0,,6,,,66,127
36912,note_off,0,0,0,,10,,,57,127
36912,note_off,0,0,0,,2,,,62,127
36914,note_on,2,0,0,,2,,,62,127
36914,note_on,0,0,0,,10,,,57,127
36914,note_on,0,0,0,,4,,,64,127
36914,note_on,0,0,0,,6,,,78,127
36984,note_off,70,0,0,,6,,,78,127
36986,note_on,2,0,0,,4,,,76,127
37056,note_off,70,0,0,,4,,,76,127
37058,note_on,2,0,0,,6,,,78,127
37128,note_off,70,0,0,,6,,,78,127
37130,note_on,2,0,0,,4,,,76,127
37200,note_off,70,0,0,,4,,,76,127
37202,note_on,2,0,0,,6,,,78,127
37272,note_off,70,0,0,,6,,,78,127
37274,note_on,2,0,0,,4,,,76,127
37344,note_off,70,0,0,,4,,,76,127
37346,note_on,2,0,0,,2,,,74,127
37442,note_off,96,0,0,,2,,,74,127
37488,note_off,46,0,0,,4,,,64,127
37488,note_off,0,0,0,,10,,,57,127
37488,note_off,0,0,0,,2,,,62,127
37506,note_on,18,0,0,,6,,,66,127
37506,note_on,0,0,0,,12,,,59,127
37506,note_on,0,0,0,,2,,,62,127
37648,note_off,142,0,0,,6,,,66,127
37650,note_on,2,0,0,,7,,,67,127
37792,note_off,142,0,0,,7,,,67,127
37794,note_on,2,0,0,,11,,,70,127
37936,note_off,142,0,0,,11,,,70,127
37938,note_on,2,0,0,,12,,,71,127
38080,note_off,142,0,0,,12,,,71,127
38080,note_off,0,0,0,,2,,,62,127
38080,note_off,0,0,0,,12,,,59,127
38082,note_on,2,0,0,,3,,,75,127
38082,note_on,0,0,0,,4,,,64,127
38082,note_on,0,0,0,,2,,,62,127
38082,note_on,0,0,0,,7,,,55,127
38224,note_off,142,0,0,,3,,,75,127
38226,note_on,2,0,0,,4,,,76,127
38368,note_off,142,0,0,,4,,,76,127
38370,note_on,2,0,0,,7,,,79,127
38512,note_off,142,0,0,,7,,,79,127
38514,note_on,2,0,0,,6,,,78,127
38584,note_off,70,0,0,,6,,,78,127
38586,note_on,2,0,0,,4,,,76,127
38656,note_off,70,0,0,,4,,,76,127
38656,note_off,0,0,0,,7,,,55,127
38656,note_off,0,0,0,,2,,,62,127
38656,note_off,0,0,0,,4,,,64,127
38658,note_on,2,0,0,,2,,,74,127
38658,note_on,0,0,0,,6,,,66,127
38658,note_on,0,0,0,,2,,,62,127
38658,note_on,0,0,0,,10,,,57,127
38872,note_off,214,0,0,,2,,,74,127
38874,note_on,2,0,0,,4,,,76,127
38944,note_off,70,0,0,,4,,,76,127
38946,note_on,2,0,0,,2,,,74,127
39016,note_off,70,0,0,,2,,,74,127
39018,note_on,2,0,0,,1,,,73,127
39088,note_off,70,0,0,,1,,,73,127
39090,note_on,2,0,0,,2,,,74,127
39160,note_off,70,0,0,,2,,,74,127
39162,note_on,2,0,0,,4,,,76,127
39232,note_off,70,0,0,,4,,,76,127
39232,note_off,0,0,0,,10,,,57,127
39232,note_off,0,0,0,,2,,,62,127
39232,note_off,0,0,0,,6,,,66,127
39234,note_on,2,0,0,,6,,,78,127
39234,note_on,0,0,0,,10,,,57,127
39234,note_on,0,0,0,,7,,,67,127
39234,note_on,0,0,0,,4,,,64,127
39234,note_on,0,0,0,,1,,,61,127
39304,note_off,70,0,0,,6,,,78,127
39306,note_on,2,0,0,,4,,,76,127
39360,note_off,54,0,0,,4,,,76,127
39360,note_on,0,0,0,,6,,,78,127
39414,note_off,54,0,0,,6,,,78,127
39414,note_on,0,0,0,,4,,,76,127
39468,note_off,54,0,0,,4,,,76,127
39468,note_on,0,0,0,,6,,,78,127
39522,note_off,54,0,0,,6,,,78,127
39522,note_on,0,0,0,,4,,,76,127
39664,note_off,142,0,0,,4,,,76,127
39666,note_on,2,0,0,,2,,,74,127
39808,note_off,142,0,0,,2,,,74,127
39808,note_off,0,0,0,,1,,,61,127
39808,note_off,0,0,0,,4,,,64,127
39808,note_off,0,0,0,,7,,,67,127
39808,note_off,0,0,0,,10,,,57,127
39810,note_on,2,0,0,,2,,,74,127
39810,note_on,0,0,0,,2,,,50,127
39952,note_off,142,0,0,,2,,,74,127
39954,note_on,2,0,0,,2,,,86,127
40096,note_off,142,0,0,,2,,,86,127
40098,note_on,2,0,0,,10,,,81,127
40240,note_off,142,0,0,,10,,,81,127
40242,note_on,2,0,0,,6,,,78,127
40384,note_off,142,0,0,,6,,,78,127
40386,note_on,2,0,0,,2,,,74,127
40528,note_off,142,0,0,,2,,,74,127
40530,note_on,2,0,0,,10,,,69,127
40672,note_off,142,0,0,,10,,,69,127
40674,note_on,2,0,0,,6,,,66,127
40816,note_off,142,0,0,,6,,,66,127
40818,note_on,2,0,0,,2,,,62,127
40960,note_off,142,0,0,,2,,,62,127
40960,note_off,0,0,0,,2,,,50,127
40962,note_on,2,0,0,,10,,,57,127
41104,note_off,142,0,0,,10,,,57,127
41106,note_on,2,0,0,,6,,,54,127
41248,note_off,142,0,0,,6,,,54,127
41250,note_on,2,0,0,,2,,,50,127
41392,note_off,142,0,0,,2,,,50,127
41394,note_on,2,0,0,,10,,,45,127
41536,note_off,142,0,0,,10,,,45,127
41548,note_on,12,0,0,,2,,,38,127
42202,note_on,654,0,0,,2,,,74,127
42228,note_off,26,0,0,,2,,,38,127
42504,note_off,276,0,0,,2,,,74,127
42506,note_on,2,0,0,,2,,,74,127
42506,note_on,0,0,0,,6,,,66,127
42506,note_on,0,0,0,,2,,,62,127
42808,note_off,302,0,0,,2,,,62,127
42808,note_off,0,0,0,,6,,,66,127
42808,note_off,0,0,0,,2,,,74,127
42810,note_on,2,0,0,,2,,,74,127
42810,note_on,0,0,0,,2,,,62,127
42810,note_on,0,0,0,,6,,,66,127
43112,note_off,302,0,0,,6,,,66,127
43112,note_off,0,0,0,,2,,,62,127
43112,note_off,0,0,0,,2,,,74,127
43114,note_on,2,0,0,,0,,,72,127
43114,note_on,0,0,0,,2,,,62,127
43114,note_on,0,0,0,,6,,,66,127
43264,note_off,150,0,0,,0,,,72,127
43266,note_on,2,0,0,,12,,,71,127
43416,note_off,150,0,0,,12,,,71,127
43416,note_off,0,0,0,,6,,,66,127
43416,note_off,0,0,0,,2,,,62,127
43418,note_on,2,0,0,,10,,,69,127
43418,note_on,0,0,0,,1,,,61,127
43418,note_on,0,0,0,,4,,,64,127
43720,note_off,302,0,0,,4,,,64,127
43720,note_off,0,0,0,,1,,,61,127
43722,note_on,2,0,0,,1,,,61,127
43722,note_on,0,0,0,,4,,,64,127
44024,note_off,302,0,0,,4,,,64,127
44024,note_off,0,0,0,,1,,,61,127
44024,note_off,0,0,0,,10,,,69,127
44026,note_on,2,0,0,,10,,,69,127
44026,note_on,0,0,0,,0,,,60,127
44026,note_on,0,0,0,,4,,,64,127
44176,note_off,150,0,0,,10,,,69,127
44178,note_on,2,0,0,,4,,,76,127
44328,note_off,150,0,0,,4,,,76,127
44328,note_off,0,0,0,,4,,,64,127
44328,note_off,0,0,0,,0,,,60,127
44330,note_on,2,0,0,,0,,,72,127
44330,note_on,0,0,0,,2,,,74,127
44330,note_on,0,0,0,,0,,,60,127
44330,note_on,0,0,0,,4,,,64,127
44480,note_off,150,0,0,,2,,,74,127
44480,note_off,0,0,0,,0,,,72,127
44482,note_on,2,0,0,,12,,,71,127
44556,note_off,74,0,0,,12,,,71,127
44558,note_on,2,0,0,,10,,,69,127
44632,note_off,74,0,0,,10,,,69,127
44632,note_off,0,0,0,,4,,,64,127
44632,note_off,0,0,0,,0,,,60,127
44634,note_on,2,0,0,,8,,,80,127
44634,note_on,0,0,0,,12,,,59,127
44634,note_on,0,0,0,,2,,,62,127
44784,note_off,150,0,0,,8,,,80,127
44786,note_on,2,0,0,,12,,,83,127
44936,note_off,150,0,0,,12,,,83,127
44938,note_on,2,0,0,,5,,,77,127
45240,note_off,302,0,0,,2,,,62,127
45240,note_off,0,0,0,,12,,,59,127
45242,note_on,2,0,0,,2,,,62,127
45242,note_on,0,0,0,,12,,,59,127
45390,note_off,148,0,0,,5,,,77,127
45394,note_on,4,0,0,,5,,,77,127
45546,note_on,152,0,0,,4,,,76,127
45554,note_off,8,0,0,,5,,,77,127
45698,note_on,144,0,0,,2,,,74,127
45706,note_off,8,0,0,,4,,,76,127
45848,note_off,142,0,0,,2,,,74,127
45848,note_off,0,0,0,,12,,,59,127
45848,note_off,0,0,0,,2,,,62,127
45850,note_on,2,0,0,,2,,,74,127
45850,note_on,0,0,0,,5,,,65,127
45850,note_on,0,0,0,,12,,,59,127
45850,note_on,0,0,0,,2,,,62,127
46000,note_off,150,0,0,,2,,,74,127
46002,note_on,2,0,0,,2,,,74,127
46154,note_on,152,0,0,,0,,,72,127
46162,note_off,8,0,0,,2,,,74,127
46306,note_on,144,0,0,,12,,,71,127
46314,note_off,8,0,0,,0,,,72,127
46456,note_off,142,0,0,,12,,,71,127
46456,note_off,0,0,0,,2,,,62,127
46456,note_off,0,0,0,,12,,,59,127
46456,note_off,0,0,0,,5,,,65,127
46458,note_on,2,0,0,,5,,,77,127
46458,note_on,0,0,0,,2,,,62,127
46458,note_on,0,0,0,,10,,,57,127
46458,note_on,0,0,0,,5,,,65,127
46608,note_off,150,0,0,,5,,,77,127
46610,note_on,2,0,0,,5,,,77,127
46762,note_on,152,0,0,,4,,,76,127
46770,note_off,8,0,0,,5,,,77,127
46914,note_on,144,0,0,,2,,,74,127
46922,note_off,8,0,0,,4,,,76,127
47064,note_off,142,0,0,,2,,,74,127
47064,note_off,0,0,0,,5,,,65,127
47064,note_off,0,0,0,,10,,,57,127
47064,note_off,0,0,0,,2,,,62,127
47066,note_on,2,0,0,,2,,,74,127
47066,note_on,0,0,0,,8,,,56,127
47066,note_on,0,0,0,,4,,,64,127
47066,note_on,0,0,0,,2,,,62,127
47216,note_off,150,0,0,,2,,,74,127
47218,note_on,2,0,0,,2,,,74,127
47370,note_on,152,0,0,,0,,,72,127
47378,note_off,8,0,0,,2,,,74,127
47522,note_on,144,0,0,,12,,,71,127
47530,note_off,8,0,0,,0,,,72,127
47672,note_off,142,0,0,,12,,,71,127
47672,note_off,0,0,0,,2,,,62,127
47672,note_off,0,0,0,,4,,,64,127
47672,note_off,0,0,0,,8,,,56,127
47674,note_on,2,0,0,,12,,,83,127
47674,note_on,0,0,0,,2,,,62,127
47674,note_on,0,0,0,,8,,,56,127
47674,note_on,0,0,0,,4,,,64,127
47824,note_off,150,0,0,,12,,,83,127
47826,note_on,2,0,0,,10,,,81,127
47976,note_off,150,0,0,,10,,,81,127
47978,note_on,2,0,0,,8,,,80,127
48128,note_off,150,0,0,,8,,,80,127
48130,note_on,2,0,0,,6,,,78,127
48280,note_off,150,0,0,,6,,,78,127
48280,note_off,0,0,0,,4,,,64,127
48280,note_off,0,0,0,,8,,,56,127
48280,note_off,0,0,0,,2,,,62,127
48282,note_on,2,0,0,,8,,,80,127
48282,note_on,0,0,0,,2,,,62,127
48282,note_on,0,0,0,,8,,,56,127
48282,note_on,0,0,0,,4,,,64,127
48432,note_off,150,0,0,,8,,,80,127
48434,note_on,2,0,0,,5,,,77,127
48584,note_off,150,0,0,,5,,,77,127
48586,note_on,2,0,0,,5,,,77,127
48738,note_on,152,0,0,,4,,,76,127
48746,note_off,8,0,0,,5,,,77,127
48888,note_off,142,0,0,,4,,,76,127
48888,note_off,0,0,0,,4,,,64,127
48888,note_off,0,0,0,,8,,,56,127
48888,note_off,0,0,0,,2,,,62,127
48890,note_on,2,0,0,,4,,,76,127
48890,note_on,0,0,0,,8,,,56,127
48890,note_on,0,0,0,,2,,,62,127
48890,note_on,0,0,0,,4,,,64,127
49042,note_on,152,0,0,,2,,,74,127
49050,note_off,8,0,0,,4,,,76,127
49192,note_off,142,0,0,,2,,,74,127
49194,note_on,2,0,0,,2,,,74,127
49346,note_on,152,0,0,,1,,,73,127
49354,note_off,8,0,0,,2,,,74,127
49496,note_off,142,0,0,,1,,,73,127
49496,note_off,0,0,0,,4,,,64,127
49496,note_off,0,0,0,,2,,,62,127
49496,note_off,0,0,0,,8,,,56,127
49498,note_on,2,0,0,,1,,,73,127
49498,note_on,0,0,0,,7,,,55,127
49498,note_on,0,0,0,,4,,,64,127
49648,note_off,150,0,0,,1,,,73,127
49650,note_on,2,0,0,,2,,,74,127
49800,note_off,150,0,0,,2,,,74,127
49802,note_on,2,0,0,,2,,,74,127
49952,note_off,150,0,0,,2,,,74,127
49954,note_on,2,0,0,,3,,,75,127
50104,note_off,150,0,0,,3,,,75,127
50104,note_off,0,0,0,,4,,,64,127
50104,note_off,0,0,0,,7,,,55,127
50106,note_on,2,0,0,,3,,,75,127
50106,note_on,0,0,0,,7,,,55,127
50106,note_on,0,0,0,,4,,,64,127
50106,note_on,0,0,0,,11,,,58,127
50256,note_off,150,0,0,,3,,,75,127
50258,note_on,2,0,0,,4,,,76,127
50408,note_off,150,0,0,,4,,,76,127
50410,note_on,2,0,0,,4,,,76,127
50560,note_off,150,0,0,,4,,,76,127
50562,note_on,2,0,0,,6,,,78,127
50712,note_off,150,0,0,,6,,,78,127
50712,note_off,0,0,0,,11,,,58,127
50712,note_off,0,0,0,,4,,,64,127
50712,note_off,0,0,0,,7,,,55,127
50714,note_on,2,0,0,,6,,,78,127
50714,note_on,0,0,0,,11,,,58,127
50714,note_on,0,0,0,,4,,,64,127
50714,note_on,0,0,0,,7,,,55,127
50864,note_off,150,0,0,,6,,,78,127
50866,note_on,2,0,0,,7,,,79,127
51016,note_off,150,0,0,,7,,,79,127
51018,note_on,2,0,0,,7,,,79,127
51018,note_on,0,0,0,,10,,,81,127
51168,note_off,150,0,0,,10,,,81,127
51168,note_off,0,0,0,,7,,,79,127
51170,note_on,2,0,0,,6,,,78,127
51320,note_off,150,0,0,,6,,,78,127
51320,note_off,0,0,0,,7,,,55,127
51320,note_off,0,0,0,,4,,,64,127
51320,note_off,0,0,0,,11,,,58,127
51322,note_on,2,0,0,,4,,,76,127
51322,note_on,0,0,0,,11,,,58,127
51322,note_on,0,0,0,,7,,,55,127
51322,note_on,0,0,0,,4,,,64,127
51472,note_off,150,0,0,,4,,,76,127
51474,note_on,2,0,0,,2,,,74,127
51624,note_off,150,0,0,,2,,,74,127
51626,note_on,2,0,0,,1,,,73,127
51776,note_off,150,0,0,,1,,,73,127
51778,note_on,2,0,0,,12,,,71,127
51928,note_off,150,0,0,,12,,,71,127
51928,note_off,0,0,0,,4,,,64,127
51928,note_off,0,0,0,,7,,,55,127
51928,note_off,0,0,0,,11,,,58,127
51940,note_on,12,0,0,,0,,,84,127
51940,note_on,0,0,0,,4,,,64,127
51940,note_on,0,0,0,,10,,,57,127
51940,note_on,0,0,0,,6,,,54,127
52090,note_off,150,0,0,,0,,,84,127
52098,note_on,8,0,0,,12,,,83,127
52248,note_off,150,0,0,,12,,,83,127
52250,note_on,2,0,0,,12,,,83,127
52400,note_off,150,0,0,,12,,,83,127
52402,note_on,2,0,0,,10,,,81,127
52546,note_off,144,0,0,,6,,,54,127
52546,note_off,0,0,0,,10,,,57,127
52546,note_off,0,0,0,,4,,,64,127
52552,note_off,6,0,0,,10,,,81,127
52554,note_on,2,0,0,,4,,,64,127
52554,note_on,0,0,0,,6,,,54,127
52554,note_on,0,0,0,,10,,,57,127
52554,note_on,0,0,0,,10,,,81,127
52704,note_off,150,0,0,,10,,,81,127
52706,note_on,2,0,0,,7,,,79,127
52856,note_off,150,0,0,,7,,,79,127
52858,note_on,2,0,0,,6,,,78,127
53008,note_off,150,0,0,,6,,,78,127
53010,note_on,2,0,0,,4,,,76,127
53160,note_off,150,0,0,,4,,,76,127
53160,note_off,0,0,0,,10,,,57,127
53160,note_off,0,0,0,,6,,,54,127
53160,note_off,0,0,0,,4,,,64,127
53162,note_on,2,0,0,,6,,,66,127
53162,note_on,0,0,0,,12,,,59,127
53162,note_on,0,0,0,,4,,,64,127
53162,note_on,0,0,0,,4,,,76,127
53312,note_off,150,0,0,,4,,,76,127
53314,note_on,2,0,0,,3,,,75,127
53464,note_off,150,0,0,,3,,,75,127
53466,note_on,2,0,0,,6,,,78,127
53616,note_off,150,0,0,,6,,,78,127
53618,note_on,2,0,0,,4,,,76,127
53768,note_off,150,0,0,,4,,,76,127
53768,note_off,0,0,0,,4,,,64,127
53768,note_off,0,0,0,,12,,,59,127
53768,note_off,0,0,0,,6,,,66,127
53770,note_on,2,0,0,,4,,,64,127
53770,note_on,0,0,0,,6,,,66,127
53770,note_on,0,0,0,,12,,,59,127
53770,note_on,0,0,0,,3,,,75,127
53920,note_off,150,0,0,,3,,,75,127
53922,note_on,2,0,0,,0,,,72,127
54072,note_off,150,0,0,,0,,,72,127
54074,note_on,2,0,0,,12,,,71,127
54224,note_off,150,0,0,,12,,,71,127
54226,note_on,2,0,0,,10,,,69,127
54376,note_off,150,0,0,,10,,,69,127
54376,note_off,0,0,0,,12,,,59,127
54376,note_off,0,0,0,,6,,,66,127
54376,note_off,0,0,0,,4,,,64,127
54378,note_on,2,0,0,,2,,,62,127
54378,note_on,0,0,0,,12,,,59,127
54378,note_on,0,0,0,,10,,,69,127
54528,note_off,150,0,0,,10,,,69,127
54530,note_on,2,0,0,,8,,,68,127
54680,note_off,150,0,0,,8,,,68,127
54682,note_on,2,0,0,,8,,,68,127
54832,note_off,150,0,0,,8,,,68,127
54834,note_on,2,0,0,,10,,,69,127
54984,note_off,150,0,0,,10,,,69,127
54984,note_off,0,0,0,,12,,,59,127
54984,note_off,0,0,0,,2,,,62,127
54986,note_on,2,0,0,,2,,,62,127
54986,note_on,0,0,0,,12,,,59,127
54986,note_on,0,0,0,,5,,,65,127
54986,note_on,0,0,0,,10,,,69,127
55136,note_off,150,0,0,,10,,,69,127
55138,note_on,2,0,0,,12,,,71,127
55288,note_off,150,0,0,,12,,,71,127
55290,note_on,2,0,0,,12,,,71,127
55440,note_off,150,0,0,,12,,,71,127
55442,note_on,2,0,0,,0,,,72,127
55592,note_off,150,0,0,,0,,,72,127
55592,note_off,0,0,0,,5,,,65,127
55592,note_off,0,0,0,,12,,,59,127
55592,note_off,0,0,0,,2,,,62,127
55594,note_on,2,0,0,,2,,,62,127
55594,note_on,0,0,0,,4,,,64,127
55594,note_on,0,0,0,,8,,,56,127
55594,note_on,0,0,0,,1,,,73,127
55744,note_off,150,0,0,,1,,,73,127
55746,note_on,2,0,0,,2,,,74,127
55896,note_off,150,0,0,,2,,,74,127
55898,note_on,2,0,0,,2,,,74,127
56200,note_off,302,0,0,,8,,,56,127
56200,note_off,0,0,0,,4,,,64,127
56200,note_off,0,0,0,,2,,,62,127
56202,note_on,2,0,0,,4,,,64,127
56202,note_on,0,0,0,,8,,,56,127
56202,note_on,0,0,0,,2,,,62,127
56276,note_off,74,0,0,,2,,,74,127
56278,note_on,2,0,0,,2,,,74,127
56352,note_off,74,0,0,,2,,,74,127
56354,note_on,2,0,0,,4,,,76,127
56428,note_off,74,0,0,,4,,,76,127
56430,note_on,2,0,0,,5,,,77,127
56504,note_off,74,0,0,,5,,,77,127
56506,note_on,2,0,0,,4,,,76,127
56656,note_off,150,0,0,,4,,,76,127
56658,note_on,2,0,0,,2,,,74,127
56808,note_off,150,0,0,,2,,,74,127
56808,note_off,0,0,0,,2,,,62,127
56808,note_off,0,0,0,,8,,,56,127
56808,note_off,0,0,0,,4,,,64,127
56810,note_on,2,0,0,,4,,,64,127
56810,note_on,0,0,0,,7,,,55,127
56810,note_on,0,0,0,,1,,,61,127
56810,note_on,0,0,0,,11,,,82,127
56960,note_off,150,0,0,,11,,,82,127
56962,note_on,2,0,0,,7,,,79,127
57112,note_off,150,0,0,,7,,,79,127
57114,note_on,2,0,0,,4,,,76,127
57264,note_off,150,0,0,,4,,,76,127
57266,note_on,2,0,0,,1,,,73,127
57416,note_off,150,0,0,,1,,,73,127
57416,note_off,0,0,0,,1,,,61,127
57416,note_off,0,0,0,,7,,,55,127
57416,note_off,0,0,0,,4,,,64,127
57418,note_on,2,0,0,,4,,,64,127
57418,note_on,0,0,0,,7,,,55,127
57418,note_on,0,0,0,,1,,,61,127
57418,note_on,0,0,0,,11,,,70,127
57568,note_off,150,0,0,,11,,,70,127
57570,note_on,2,0,0,,7,,,67,127
57720,note_off,150,0,0,,7,,,67,127
57722,note_on,2,0,0,,5,,,65,127
57861,note_off,139,0,0,,4,,,64,127
57872,note_off,11,0,0,,5,,,65,127
57874,note_on,2,0,0,,4,,,64,127
58024,note_off,150,0,0,,4,,,64,127
58024,note_off,0,0,0,,1,,,61,127
58024,note_off,0,0,0,,7,,,55,127
58026,note_on,2,0,0,,10,,,57,127
58026,note_on,0,0,0,,5,,,53,127
58026,note_on,0,0,0,,4,,,64,127
58026,note_on,0,0,0,,8,,,68,127
58176,note_off,150,0,0,,8,,,68,127
58178,note_on,2,0,0,,10,,,69,127
58328,note_off,150,0,0,,10,,,69,127
58330,note_on,2,0,0,,10,,,69,127
58632,note_off,302,0,0,,4,,,64,127
58632,note_off,0,0,0,,5,,,53,127
58632,note_off,0,0,0,,10,,,57,127
58634,note_on,2,0,0,,2,,,62,127
58634,note_on,0,0,0,,5,,,53,127
58634,note_on,0,0,0,,10,,,57,127
58784,note_off,150,0,0,,10,,,69,127
58786,note_on,2,0,0,,10,,,81,127
58936,note_off,150,0,0,,10,,,81,127
58938,note_on,2,0,0,,10,,,81,127
59088,note_off,150,0,0,,10,,,81,127
59090,note_on,2,0,0,,11,,,82,127
59240,note_off,150,0,0,,11,,,82,127
59240,note_off,0,0,0,,10,,,57,127
59240,note_off,0,0,0,,5,,,53,127
59240,note_off,0,0,0,,2,,,62,127
59242,note_on,2,0,0,,7,,,55,127
59242,note_on,0,0,0,,2,,,62,127
59242,note_on,0,0,0,,3,,,51,127
59242,note_on,0,0,0,,11,,,82,127
59392,note_off,150,0,0,,11,,,82,127
59394,note_on,2,0,0,,6,,,78,127
59544,note_off,150,0,0,,6,,,78,127
59546,note_on,2,0,0,,6,,,78,127
59848,note_off,302,0,0,,3,,,51,127
59848,note_off,0,0,0,,2,,,62,127
59848,note_off,0,0,0,,7,,,55,127
59850,note_on,2,0,0,,0,,,60,127
59850,note_on,0,0,0,,7,,,55,127
59850,note_on,0,0,0,,3,,,51,127
59896,note_off,46,0,0,,6,,,78,127
60002,note_on,106,0,0,,7,,,79,127
60152,note_off,150,0,0,,7,,,79,127
60154,note_on,2,0,0,,6,,,78,127
60304,note_off,150,0,0,,6,,,78,127
60306,note_on,2,0,0,,7,,,79,127
60456,note_off,150,0,0,,7,,,79,127
60456,note_off,0,0,0,,3,,,51,127
60456,note_off,0,0,0,,7,,,55,127
60456,note_off,0,0,0,,0,,,60,127
60458,note_on,2,0,0,,0,,,60,127
60458,note_on,0,0,0,,5,,,53,127
60458,note_on,0,0,0,,10,,,57,127
60458,note_on,0,0,0,,2,,,50,127
60458,note_on,0,0,0,,8,,,80,127
60608,note_off,150,0,0,,8,,,80,127
60610,note_on,2,0,0,,7,,,79,127
60760,note_off,150,0,0,,7,,,79,127
60762,note_on,2,0,0,,5,,,77,127
60912,note_off,150,0,0,,5,,,77,127
60914,note_on,2,0,0,,3,,,75,127
61064,note_off,150,0,0,,3,,,75,127
61064,note_off,0,0,0,,2,,,50,127
61064,note_off,0,0,0,,10,,,57,127
61064,note_off,0,0,0,,5,,,53,127
61064,note_off,0,0,0,,0,,,60,127
61066,note_on,2,0,0,,0,,,60,127
61066,note_on,0,0,0,,10,,,57,127
61066,note_on,0,0,0,,5,,,53,127
61066,note_on,0,0,0,,2,,,50,127
61066,note_on,0,0,0,,3,,,75,127
61216,note_off,150,0,0,,3,,,75,127
61218,note_on,2,0,0,,2,,,74,127
61368,note_off,150,0,0,,2,,,74,127
61370,note_on,2,0,0,,2,,,74,127
61520,note_off,150,0,0,,2,,,74,127
61522,note_on,2,0,0,,0,,,72,127
61672,note_off,150,0,0,,0,,,72,127
61672,note_off,0,0,0,,2,,,50,127
61672,note_off,0,0,0,,5,,,53,127
61672,note_off,0,0,0,,10,,,57,127
61672,note_off,0,0,0,,0,,,60,127
61674,note_on,2,0,0,,7,,,55,127
61674,note_on,0,0,0,,5,,,65,127
61674,note_on,0,0,0,,2,,,62,127
61674,note_on,0,0,0,,0,,,72,127
61824,note_off,150,0,0,,0,,,72,127
61826,note_on,2,0,0,,12,,,71,127
61976,note_off,150,0,0,,12,,,71,127
61978,note_on,2,0,0,,2,,,74,127
62128,note_off,150,0,0,,2,,,74,127
62130,note_on,2,0,0,,0,,,72,127
62280,note_off,150,0,0,,0,,,72,127
62280,note_off,0,0,0,,2,,,62,127
62280,note_off,0,0,0,,5,,,65,127
62280,note_off,0,0,0,,7,,,55,127
62282,note_on,2,0,0,,5,,,65,127
62282,note_on,0,0,0,,2,,,62,127
62282,note_on,0,0,0,,7,,,55,127
62282,note_on,0,0,0,,12,,,71,127
62432,note_off,150,0,0,,12,,,71,127
62434,note_on,2,0,0,,10,,,69,127
62584,note_off,150,0,0,,10,,,69,127
62586,note_on,2,0,0,,7,,,67,127
62725,note_off,139,0,0,,5,,,65,127
62736,note_off,11,0,0,,7,,,67,127
62738,note_on,2,0,0,,5,,,65,127
62888,note_off,150,0,0,,5,,,65,127
62888,note_off,0,0,0,,7,,,55,127
62888,note_off,0,0,0,,2,,,62,127
62890,note_on,2,0,0,,0,,,60,127
62890,note_on,0,0,0,,7,,,55,127
62890,note_on,0,0,0,,0,,,48,127
62890,note_on,0,0,0,,7,,,67,127
62953,note_off,63,0,0,,7,,,67,127
62953,note_on,0,0,0,,5,,,65,127
63016,note_off,63,0,0,,5,,,65,127
63016,note_on,0,0,0,,7,,,67,127
63079,note_off,63,0,0,,7,,,67,127
63079,note_on,0,0,0,,5,,,65,127
63142,note_off,63,0,0,,5,,,65,127
63142,note_on,0,0,0,,7,,,67,127
63193,note_on,51,0,0,,5,,,65,127
63206,note_off,13,0,0,,7,,,67,127
63493,note_off,287,0,0,,5,,,65,127
63495,note_off,2,0,0,,0,,,48,127
63495,note_off,0,0,0,,7,,,55,127
63495,note_off,0,0,0,,0,,,60,127
63497,note_on,2,0,0,,7,,,55,127
63497,note_on,0,0,0,,0,,,60,127
63497,note_on,0,0,0,,0,,,48,127
63497,note_on,0,0,0,,4,,,64,127
63939,note_off,442,0,0,,4,,,64,127
64102,note_off,163,0,0,,0,,,60,127
64112,note_off,10,0,0,,0,,,48,127
64112,note_off,0,0,0,,7,,,55,127
64136,note_on,24,0,0,,0,,,48,127
64136,note_on,0,0,0,,4,,,64,127
64438,note_off,302,0,0,,4,,,64,127
64440,note_on,2,0,0,,4,,,76,127
64742,note_off,302,0,0,,4,,,76,127
64742,note_off,0,0,0,,0,,,48,127
64744,note_on,2,0,0,,0,,,60,127
64744,note_on,0,0,0,,2,,,74,127
64744,note_on,0,0,0,,0,,,72,127
64894,note_off,150,0,0,,0,,,72,127
64894,note_off,0,0,0,,2,,,74,127
64896,note_on,2,0,0,,12,,,71,127
64970,note_off,74,0,0,,12,,,71,127
64972,note_on,2,0,0,,10,,,69,127
65046,note_off,74,0,0,,10,,,69,127
65048,note_on,2,0,0,,7,,,67,127
65198,note_off,150,0,0,,7,,,67,127
65200,note_on,2,0,0,,6,,,66,127
65274,note_off,74,0,0,,6,,,66,127
65276,note_on,2,0,0,,4,,,64,127
65350,note_off,74,0,0,,4,,,64,127
65350,note_off,0,0,0,,0,,,60,127
65352,note_on,2,0,0,,0,,,60,127
65352,note_on,0,0,0,,2,,,62,127
65502,note_off,150,0,0,,2,,,62,127
65504,note_on,2,0,0,,6,,,66,127
65654,note_off,150,0,0,,6,,,66,127
65656,note_on,2,0,0,,10,,,69,127
65806,note_off,150,0,0,,10,,,69,127
65808,note_on,2,0,0,,0,,,72,127
65958,note_off,150,0,0,,0,,,72,127
65958,note_off,0,0,0,,0,,,60,127
65960,note_on,2,0,0,,2,,,62,127
65960,note_on,0,0,0,,12,,,59,127
65960,note_on,0,0,0,,1,,,73,127
66262,note_off,302,0,0,,1,,,73,127
66264,note_on,2,0,0,,2,,,74,127
66566,note_off,302,0,0,,12,,,59,127
66566,note_off,0,0,0,,2,,,62,127
66568,note_on,2,0,0,,2,,,62,127
66568,note_on,0,0,0,,12,,,59,127
66707,note_off,139,0,0,,2,,,74,127
66871,note_on,164,0,0,,2,,,74,127
67173,note_off,302,0,0,,2,,,74,127
67173,note_off,0,0,0,,12,,,59,127
67173,note_off,0,0,0,,2,,,62,127
67175,note_on,2,0,0,,2,,,62,127
67175,note_on,0,0,0,,12,,,59,127
67175,note_on,0,0,0,,12,,,71,127
67175,note_on,0,0,0,,0,,,72,127
67325,note_off,150,0,0,,0,,,72,127
67325,note_off,0,0,0,,12,,,71,127
67327,note_on,2,0,0,,10,,,69,127
67401,note_off,74,0,0,,10,,,69,127
67403,note_on,2,0,0,,7,,,67,127
67477,note_off,74,0,0,,7,,,67,127
67479,note_on,2,0,0,,6,,,66,127
67629,note_off,150,0,0,,6,,,66,127
67631,note_on,2,0,0,,4,,,64,127
67682,note_off,51,0,0,,2,,,62,127
67706,note_off,24,0,0,,4,,,64,127
67708,note_on,2,0,0,,2,,,62,127
67782,note_off,74,0,0,,2,,,62,127
67782,note_off,0,0,0,,12,,,59,127
67784,note_on,2,0,0,,0,,,60,127
67784,note_on,0,0,0,,12,,,59,127
67784,note_on,0,0,0,,3,,,75,127
67934,note_off,150,0,0,,3,,,75,127
67936,note_on,2,0,0,,4,,,76,127
68086,note_off,150,0,0,,4,,,76,127
68088,note_on,2,0,0,,0,,,72,127
68238,note_off,150,0,0,,0,,,72,127
68240,note_on,2,0,0,,12,,,71,127
68390,note_off,150,0,0,,12,,,71,127
68390,note_off,0,0,0,,12,,,59,127
68390,note_off,0,0,0,,0,,,60,127
68392,note_on,2,0,0,,10,,,57,127
68392,note_on,0,0,0,,0,,,60,127
68392,note_on,0,0,0,,12,,,71,127
68694,note_off,302,0,0,,12,,,71,127
68696,note_on,2,0,0,,0,,,72,127
68996,note_off,300,0,0,,0,,,72,127
68998,note_off,2,0,0,,0,,,60,127
68998,note_off,0,0,0,,10,,,57,127
69000,note_on,2,0,0,,4,,,64,127
69000,note_on,0,0,0,,0,,,60,127
69000,note_on,0,0,0,,7,,,55,127
69152,note_on,152,0,0,,4,,,76,127
69302,note_off,150,0,0,,4,,,76,127
69304,note_on,2,0,0,,0,,,72,127
69454,note_off,150,0,0,,0,,,72,127
69456,note_on,2,0,0,,12,,,71,127
69606,note_off,150,0,0,,12,,,71,127
69606,note_off,0,0,0,,7,,,55,127
69606,note_off,0,0,0,,0,,,60,127
69606,note_off,0,0,0,,4,,,64,127
69608,note_on,2,0,0,,4,,,64,127
69608,note_on,0,0,0,,0,,,60,127
69608,note_on,0,0,0,,7,,,55,127
69608,note_on,0,0,0,,12,,,71,127
69910,note_off,302,0,0,,12,,,71,127
69912,note_on,2,0,0,,0,,,72,127
70214,note_off,302,0,0,,7,,,55,127
70214,note_off,0,0,0,,0,,,60,127
70214,note_off,0,0,0,,4,,,64,127
70216,note_on,2,0,0,,2,,,62,127
70216,note_on,0,0,0,,5,,,53,127
70216,note_on,0,0,0,,0,,,60,127
70366,note_off,150,0,0,,0,,,72,127
70368,note_on,2,0,0,,10,,,81,127
70518,note_off,150,0,0,,10,,,81,127
70520,note_on,2,0,0,,0,,,72,127
70670,note_off,150,0,0,,0,,,72,127
70672,note_on,2,0,0,,12,,,71,127
70822,note_off,150,0,0,,12,,,71,127
70822,note_off,0,0,0,,0,,,60,127
70822,note_off,0,0,0,,5,,,53,127
70822,note_off,0,0,0,,2,,,62,127
70824,note_on,2,0,0,,0,,,60,127
70824,note_on,0,0,0,,7,,,55,127
70824,note_on,0,0,0,,4,,,52,127
70824,note_on,0,0,0,,0,,,72,127
70974,note_off,150,0,0,,0,,,72,127
70976,note_on,2,0,0,,0,,,84,127
71126,note_off,150,0,0,,0,,,84,127
71128,note_on,2,0,0,,10,,,81,127
71128,note_on,0,0,0,,12,,,83,127
71278,note_off,150,0,0,,12,,,83,127
71278,note_off,0,0,0,,10,,,81,127
71280,note_on,2,0,0,,7,,,79,127
71430,note_off,150,0,0,,7,,,79,127
71430,note_off,0,0,0,,4,,,52,127
71430,note_off,0,0,0,,7,,,55,127
71430,note_off,0,0,0,,0,,,60,127
71432,note_on,2,0,0,,0,,,60,127
71432,note_on,0,0,0,,2,,,62,127
71432,note_on,0,0,0,,10,,,57,127
71432,note_on,0,0,0,,2,,,50,127
71432,note_on,0,0,0,,7,,,79,127
71582,note_off,150,0,0,,7,,,79,127
71584,note_on,2,0,0,,6,,,78,127
71734,note_off,150,0,0,,6,,,78,127
71736,note_on,2,0,0,,10,,,81,127
71886,note_off,150,0,0,,10,,,81,127
71888,note_on,2,0,0,,7,,,79,127
72038,note_off,150,0,0,,7,,,79,127
72038,note_off,0,0,0,,2,,,50,127
72038,note_off,0,0,0,,10,,,57,127
72038,note_off,0,0,0,,2,,,62,127
72038,note_off,0,0,0,,0,,,60,127
72040,note_on,2,0,0,,2,,,62,127
72040,note_on,0,0,0,,0,,,60,127
72040,note_on,0,0,0,,10,,,57,127
72040,note_on,0,0,0,,2,,,50,127
72040,note_on,0,0,0,,6,,,78,127
72190,note_off,150,0,0,,6,,,78,127
72192,note_on,2,0,0,,4,,,76,127
72342,note_off,150,0,0,,4,,,76,127
72344,note_on,2,0,0,,2,,,74,127
72494,note_off,150,0,0,,2,,,74,127
72496,note_on,2,0,0,,0,,,72,127
72646,note_off,150,0,0,,0,,,72,127
72646,note_off,0,0,0,,2,,,50,127
72646,note_off,0,0,0,,10,,,57,127
72646,note_off,0,0,0,,0,,,60,127
72646,note_off,0,0,0,,2,,,62,127
72664,note_on,18,0,0,,11,,,70,127
72664,note_on,0,0,0,,2,,,62,127
72664,note_on,0,0,0,,7,,,55,127
72814,note_off,150,0,0,,11,,,70,127
72816,note_on,2,0,0,,12,,,71,127
72966,note_off,150,0,0,,12,,,71,127
72968,note_on,2,0,0,,3,,,75,127
73118,note_off,150,0,0,,3,,,75,127
73120,note_on,2,0,0,,4,,,76,127
73270,note_off,150,0,0,,4,,,76,127
73270,note_off,0,0,0,,7,,,55,127
73270,note_off,0,0,0,,2,,,62,127
73272,note_on,2,0,0,,8,,,80,127
73272,note_on,0,0,0,,0,,,48,127
73272,note_on,0,0,0,,0,,,60,127
73422,note_off,150,0,0,,8,,,80,127
73424,note_on,2,0,0,,10,,,81,127
73574,note_off,150,0,0,,10,,,81,127
73576,note_on,2,0,0,,0,,,84,127
73726,note_off,150,0,0,,0,,,84,127
73728,note_on,2,0,0,,12,,,83,127
73802,note_off,74,0,0,,12,,,83,127
73804,note_on,2,0,0,,10,,,81,127
73878,note_off,74,0,0,,10,,,81,127
73878,note_off,0,0,0,,0,,,60,127
73878,note_off,0,0,0,,0,,,48,127
73880,note_on,2,0,0,,7,,,79,127
73880,note_on,0,0,0,,2,,,50,127
73880,note_on,0,0,0,,7,,,55,127
73880,note_on,0,0,0,,12,,,59,127
74106,note_off,226,0,0,,7,,,79,127
74108,note_on,2,0,0,,10,,,81,127
74182,note_off,74,0,0,,10,,,81,127
74184,note_on,2,0,0,,7,,,79,127
74258,note_off,74,0,0,,7,,,79,127
74260,note_on,2,0,0,,6,,,78,127
74334,note_off,74,0,0,,6,,,78,127
74336,note_on,2,0,0,,7,,,79,127
74410,note_off,74,0,0,,7,,,79,127
74412,note_on,2,0,0,,10,,,81,127
74486,note_off,74,0,0,,10,,,81,127
74486,note_off,0,0,0,,12,,,59,127
74486,note_off,0,0,0,,7,,,55,127
74486,note_off,0,0,0,,2,,,50,127
74488,note_on,2,0,0,,12,,,83,127
74488,note_on,0,0,0,,2,,,50,127
74488,note_on,0,0,0,,2,,,62,127
74488,note_on,0,0,0,,10,,,57,127
74559,note_on,71,0,0,,10,,,81,127
74562,note_off,3,0,0,,12,,,83,127
74630,note_on,68,0,0,,12,,,83,127
74633,note_off,3,0,0,,10,,,81,127
74701,note_on,68,0,0,,10,,,81,127
74704,note_off,3,0,0,,12,,,83,127
74772,note_on,68,0,0,,12,,,83,127
74775,note_off,3,0,0,,10,,,81,127
74843,note_on,68,0,0,,10,,,81,127
74846,note_off,3,0,0,,12,,,83,127
74934,note_off,88,0,0,,10,,,81,127
74942,note_on,8,0,0,,7,,,79,127
75092,note_off,150,0,0,,7,,,79,127
75092,note_off,0,0,0,,10,,,57,127
75092,note_off,0,0,0,,2,,,62,127
75092,note_off,0,0,0,,2,,,50,127
75110,note_on,18,0,0,,7,,,55,127
75110,note_on,0,0,0,,4,,,52,127
75110,note_on,0,0,0,,12,,,71,127
75260,note_off,150,0,0,,12,,,71,127
75262,note_on,2,0,0,,0,,,72,127
75412,note_off,150,0,0,,0,,,72,127
75414,note_on,2,0,0,,3,,,75,127
75564,note_off,150,0,0,,3,,,75,127
75566,note_on,2,0,0,,4,,,76,127
75716,note_off,150,0,0,,4,,,76,127
75716,note_off,0,0,0,,4,,,52,127
75716,note_off,0,0,0,,7,,,55,127
75718,note_on,2,0,0,,0,,,60,127
75718,note_on,0,0,0,,0,,,48,127
75718,note_on,0,0,0,,8,,,68,127
75868,note_off,150,0,0,,8,,,68,127
75870,note_on,2,0,0,,10,,,69,127
76020,note_off,150,0,0,,10,,,69,127
76022,note_on,2,0,0,,2,,,74,127
76096,note_off,74,0,0,,2,,,74,127
76098,note_on,2,0,0,,0,,,72,127
76172,note_off,74,0,0,,0,,,72,127
76174,note_on,2,0,0,,12,,,71,127
76248,note_off,74,0,0,,12,,,71,127
76250,note_on,2,0,0,,10,,,69,127
76324,note_off,74,0,0,,10,,,69,127
76324,note_off,0,0,0,,0,,,48,127
76324,note_off,0,0,0,,0,,,60,127
76326,note_on,2,0,0,,7,,,55,127
76326,note_on,0,0,0,,12,,,59,127
76326,note_on,0,0,0,,2,,,50,127
76326,note_on,0,0,0,,7,,,67,127
76531,note_off,205,0,0,,7,,,67,127
76534,note_on,3,0,0,,10,,,69,127
76591,note_on,57,0,0,,7,,,67,127
76597,note_off,6,0,0,,10,,,69,127
76648,note_on,51,0,0,,6,,,66,127
76654,note_off,6,0,0,,7,,,67,127
76705,note_on,51,0,0,,7,,,67,127
76711,note_off,6,0,0,,6,,,66,127
76762,note_on,51,0,0,,10,,,69,127
76768,note_off,6,0,0,,7,,,67,127
76819,note_on,51,0,0,,7,,,67,127
76825,note_off,6,0,0,,10,,,69,127
76876,note_on,51,0,0,,10,,,69,127
76882,note_off,6,0,0,,7,,,67,127
76928,note_off,46,0,0,,10,,,69,127
76931,note_off,3,0,0,,2,,,50,127
76931,note_off,0,0,0,,12,,,59,127
76931,note_off,0,0,0,,7,,,55,127
76933,note_on,2,0,0,,2,,,38,127
76933,note_on,0,0,0,,12,,,71,127
76996,note_off,63,0,0,,12,,,71,127
76996,note_on,0,0,0,,10,,,69,127
77059,note_off,63,0,0,,10,,,69,127
77059,note_on,0,0,0,,12,,,71,127
77122,note_off,63,0,0,,12,,,71,127
77122,note_on,0,0,0,,10,,,69,127
77185,note_off,63,0,0,,10,,,69,127
77185,note_on,0,0,0,,12,,,71,127
77236,note_on,51,0,0,,10,,,69,127
77249,note_off,13,0,0,,12,,,71,127
77386,note_off,137,0,0,,10,,,69,127
77388,note_on,2,0,0,,7,,,67,127
77538,note_off,150,0,0,,7,,,67,127
77538,note_off,0,0,0,,2,,,38,127
77540,note_on,2,0,0,,7,,,43,127
77540,note_on,0,0,0,,7,,,67,127
77651,note_off,111,0,0,,7,,,67,127
77692,note_on,41,0,0,,2,,,62,127
77803,note_off,111,0,0,,2,,,62,127
77844,note_on,41,0,0,,12,,,59,127
77955,note_off,111,0,0,,12,,,59,127
77996,note_on,41,0,0,,7,,,55,127
78131,note_off,135,0,0,,7,,,43,127
78137,note_off,6,0,0,,7,,,55,127
78244,note_on,107,0,0,,7,,,43,127
79821,note_off,1577,0,0,,7,,,43,127
84480,end_of_track,4659,1,0,,,,,,
