tick,type,time,meta,track,program,channel,pitch,tempo,note,velocity
0,copyright,0,1,0,,,,,,
0,program_change,0,0,0,6,0,,,,
0,pitchwheel,0,0,0,,0,0,,,
0,program_change,0,0,0,6,1,,,,
0,pitchwheel,0,0,0,,1,-590,,,
0,program_change,0,0,0,6,2,,,,
0,pitchwheel,0,0,0,,2,-272,,,
0,program_change,0,0,0,6,3,,,,
0,pitchwheel,0,0,0,,3,-353,,,
0,program_change,0,0,0,6,4,,,,
0,pitchwheel,0,0,0,,4,-560,,,
0,program_change,0,0,0,6,5,,,,
0,pitchwheel,0,0,0,,5,-80,,,
0,program_change,0,0,0,6,6,,,,
0,pitchwheel,0,0,0,,6,-625,,,
0,program_change,0,0,0,6,7,,,,
0,pitchwheel,0,0,0,,7,-130,,,
0,program_change,0,0,0,6,8,,,,
0,pitchwheel,0,0,0,,8,-512,,,
0,program_change,0,0,0,6,10,,,,
0,pitchwheel,0,0,0,,10,-464,,,
0,program_change,0,0,0,6,11,,,,
0,pitchwheel,0,0,0,,11,-208,,,
0,program_change,0,0,0,6,12,,,,
0,pitchwheel,0,0,0,,12,-553,,,
0,set_tempo,0,1,0,,,,500000,,
154,note_on,154,0,0,,2,,,50,127
154,note_on,0,0,0,,10,,,69,127
231,note_on,77,0,0,,6,,,54,127
231,note_on,0,0,0,,2,,,74,127
308,note_on,77,0,0,,10,,,57,127
308,note_on,0,0,0,,6,,,78,127
314,note_off,6,0,0,,2,,,74,127
314,note_off,0,0,0,,6,,,54,127
384,note_on,70,0,0,,2,,,62,127
384,note_on,0,0,0,,10,,,81,127
390,note_off,6,0,0,,6,,,78,127
390,note_off,0,0,0,,10,,,57,127
457,note_off,67,0,0,,2,,,62,127
457,note_off,0,0,0,,10,,,69,127
457,note_off,0,0,0,,2,,,50,127
460,note_on,3,0,0,,10,,,57,127
460,note_on,0,0,0,,2,,,62,127
460,note_on,0,0,0,,6,,,66,127
460,note_on,0,0,0,,10,,,69,127
466,note_off,6,0,0,,10,,,81,127
765,note_off,299,0,0,,10,,,69,127
765,note_off,0,0,0,,6,,,66,127
765,note_off,0,0,0,,2,,,62,127
765,note_off,0,0,0,,10,,,57,127
767,note_on,2,0,0,,10,,,57,127
767,note_on,0,0,0,,1,,,61,127
767,note_on,0,0,0,,4,,,64,127
767,note_on,0,0,0,,7,,,67,127
1073,note_off,306,0,0,,7,,,67,127
1073,note_off,0,0,0,,4,,,64,127
1073,note_off,0,0,0,,1,,,61,127
1073,note_off,0,0,0,,10,,,57,127
1075,note_on,2,0,0,,2,,,50,127
1075,note_on,0,0,0,,2,,,62,127
1176,note_off,101,0,0,,2,,,62,127
1178,note_on,2,0,0,,6,,,66,127
1279,note_off,101,0,0,,6,,,66,127
1281,note_on,2,0,0,,7,,,67,127
1382,note_off,101,0,0,,7,,,67,127
1384,note_on,2,0,0,,10,,,69,127
1485,note_off,101,0,0,,10,,,69,127
1487,note_on,2,0,0,,12,,,71,127
1588,note_off,101,0,0,,12,,,71,127
1590,note_on,2,0,0,,1,,,73,127
1686,note_off,96,0,0,,2,,,50,127
1691,note_off,5,0,0,,1,,,73,127
1693,note_on,2,0,0,,2,,,74,127
1794,note_off,101,0,0,,2,,,74,127
1796,note_on,2,0,0,,6,,,78,127
1897,note_off,101,0,0,,6,,,78,127
1899,note_on,2,0,0,,7,,,79,127
2000,note_off,101,0,0,,7,,,79,127
2002,note_on,2,0,0,,10,,,81,127
2308,note_off,306,0,0,,10,,,81,127
2310,note_on,2,0,0,,10,,,57,127
2310,note_on,0,0,0,,2,,,62,127
2310,note_on,0,0,0,,6,,,66,127
2310,note_on,0,0,0,,10,,,69,127
2616,note_off,306,0,0,,10,,,69,127
2616,note_off,0,0,0,,6,,,66,127
2616,note_off,0,0,0,,2,,,62,127
2616,note_off,0,0,0,,10,,,57,127
2618,note_on,2,0,0,,10,,,57,127
2618,note_on,0,0,0,,4,,,64,127
2618,note_on,0,0,0,,1,,,61,127
2618,note_on,0,0,0,,7,,,67,127
2924,note_off,306,0,0,,7,,,67,127
2924,note_off,0,0,0,,1,,,61,127
2924,note_off,0,0,0,,4,,,64,127
2924,note_off,0,0,0,,10,,,57,127
2926,note_on,2,0,0,,2,,,50,127
2926,note_on,0,0,0,,2,,,62,127
3027,note_off,101,0,0,,2,,,62,127
3029,note_on,2,0,0,,6,,,66,127
3130,note_off,101,0,0,,6,,,66,127
3132,note_on,2,0,0,,7,,,67,127
3233,note_off,101,0,0,,7,,,67,127
3235,note_on,2,0,0,,10,,,69,127
3336,note_off,101,0,0,,10,,,69,127
3338,note_on,2,0,0,,12,,,71,127
3439,note_off,101,0,0,,12,,,71,127
3441,note_on,2,0,0,,1,,,73,127
3542,note_off,101,0,0,,1,,,73,127
3544,note_on,2,0,0,,2,,,74,127
3645,note_off,101,0,0,,2,,,74,127
3647,note_on,2,0,0,,6,,,78,127
3698,note_off,51,0,0,,2,,,50,127
3748,note_off,50,0,0,,6,,,78,127
3750,note_on,2,0,0,,7,,,79,127
3849,note_off,99,0,0,,7,,,79,127
3851,note_on,2,0,0,,10,,,81,127
4158,note_off,307,0,0,,10,,,81,127
4160,note_on,2,0,0,,10,,,57,127
4160,note_on,0,0,0,,2,,,62,127
4160,note_on,0,0,0,,6,,,66,127
4160,note_on,0,0,0,,10,,,69,127
4466,note_off,306,0,0,,10,,,69,127
4466,note_off,0,0,0,,6,,,66,127
4466,note_off,0,0,0,,2,,,62,127
4466,note_off,0,0,0,,10,,,57,127
4468,note_on,2,0,0,,1,,,61,127
4468,note_on,0,0,0,,10,,,57,127
4468,note_on,0,0,0,,4,,,64,127
4468,note_on,0,0,0,,7,,,67,127
4774,note_off,306,0,0,,7,,,67,127
4774,note_off,0,0,0,,4,,,64,127
4774,note_off,0,0,0,,10,,,57,127
4774,note_off,0,0,0,,1,,,61,127
4776,note_on,2,0,0,,2,,,62,127
4776,note_on,0,0,0,,6,,,66,127
4928,note_off,152,0,0,,6,,,66,127
4930,note_on,2,0,0,,4,,,64,127
5082,note_off,152,0,0,,4,,,64,127
5082,note_off,0,0,0,,2,,,62,127
5084,note_on,2,0,0,,2,,,62,127
5238,note_on,154,0,0,,10,,,57,127
5392,note_on,154,0,0,,2,,,38,127
5469,note_off,77,0,0,,10,,,57,127
5546,note_off,77,0,0,,2,,,62,127
5698,note_off,152,0,0,,2,,,38,127
5700,note_on,2,0,0,,2,,,50,127
5854,note_on,154,0,0,,10,,,69,127
6006,note_off,152,0,0,,10,,,69,127
6008,note_on,2,0,0,,6,,,66,127
6162,note_on,154,0,0,,6,,,54,127
6314,note_off,152,0,0,,6,,,54,127
6316,note_on,2,0,0,,12,,,59,127
6468,note_off,152,0,0,,6,,,66,127
6470,note_on,2,0,0,,2,,,62,127
6622,note_off,152,0,0,,2,,,50,127
6624,note_on,2,0,0,,4,,,52,127
6776,note_off,152,0,0,,2,,,62,127
6778,note_on,2,0,0,,7,,,67,127
6930,note_off,152,0,0,,7,,,67,127
6932,note_on,2,0,0,,4,,,64,127
7084,note_off,152,0,0,,12,,,59,127
7086,note_on,2,0,0,,7,,,55,127
7238,note_off,152,0,0,,7,,,55,127
7240,note_on,2,0,0,,10,,,57,127
7392,note_off,152,0,0,,4,,,64,127
7394,note_on,2,0,0,,1,,,61,127
7546,note_off,152,0,0,,4,,,52,127
7548,note_on,2,0,0,,2,,,50,127
7586,note_off,38,0,0,,1,,,61,127
7701,note_on,115,0,0,,10,,,69,127
7853,note_off,152,0,0,,10,,,69,127
7855,note_on,2,0,0,,6,,,66,127
8007,note_off,152,0,0,,10,,,57,127
8009,note_on,2,0,0,,6,,,54,127
8161,note_off,152,0,0,,6,,,54,127
8163,note_on,2,0,0,,12,,,59,127
8315,note_off,152,0,0,,6,,,66,127
8317,note_on,2,0,0,,2,,,62,127
8469,note_off,152,0,0,,2,,,50,127
8471,note_on,2,0,0,,4,,,52,127
8623,note_off,152,0,0,,2,,,62,127
8625,note_on,2,0,0,,7,,,67,127
8777,note_off,152,0,0,,7,,,67,127
8779,note_on,2,0,0,,4,,,64,127
8931,note_off,152,0,0,,12,,,59,127
8933,note_on,2,0,0,,7,,,55,127
9085,note_off,152,0,0,,7,,,55,127
9087,note_on,2,0,0,,10,,,57,127
9239,note_off,152,0,0,,4,,,64,127
9241,note_on,2,0,0,,1,,,61,127
9393,note_off,152,0,0,,10,,,57,127
9393,note_off,0,0,0,,4,,,52,127
9395,note_on,2,0,0,,2,,,50,127
9433,note_off,38,0,0,,1,,,61,127
9548,note_on,115,0,0,,6,,,66,127
9700,note_off,152,0,0,,6,,,66,127
9702,note_on,2,0,0,,6,,,54,127
9702,note_on,0,0,0,,2,,,62,127
10003,note_off,301,0,0,,2,,,50,127
10008,note_off,5,0,0,,6,,,54,127
10010,note_on,2,0,0,,1,,,49,127
10010,note_on,0,0,0,,10,,,57,127
10162,note_off,152,0,0,,2,,,62,127
10164,note_on,2,0,0,,7,,,67,127
10164,note_on,0,0,0,,4,,,64,127
10316,note_off,152,0,0,,4,,,64,127
10316,note_off,0,0,0,,10,,,57,127
10316,note_off,0,0,0,,1,,,49,127
10318,note_on,2,0,0,,2,,,50,127
10318,note_on,0,0,0,,2,,,62,127
10470,note_off,152,0,0,,2,,,62,127
10470,note_off,0,0,0,,7,,,67,127
10472,note_on,2,0,0,,6,,,66,127
10626,note_on,154,0,0,,10,,,57,127
10778,note_off,152,0,0,,6,,,66,127
10780,note_on,2,0,0,,4,,,64,127
10932,note_off,152,0,0,,10,,,57,127
10932,note_off,0,0,0,,2,,,50,127
10934,note_on,2,0,0,,12,,,59,127
10934,note_on,0,0,0,,7,,,55,127
11086,note_off,152,0,0,,4,,,64,127
11088,note_on,2,0,0,,12,,,71,127
11240,note_off,152,0,0,,7,,,55,127
11240,note_off,0,0,0,,12,,,59,127
11242,note_on,2,0,0,,6,,,54,127
11394,note_off,152,0,0,,12,,,71,127
11396,note_on,2,0,0,,10,,,69,127
11548,note_off,152,0,0,,10,,,69,127
11550,note_on,2,0,0,,2,,,62,127
11550,note_on,0,0,0,,6,,,66,127
11856,note_off,306,0,0,,6,,,54,127
11858,note_on,2,0,0,,12,,,59,127
11983,note_off,125,0,0,,6,,,66,127
12012,note_on,29,0,0,,2,,,74,127
12164,note_off,152,0,0,,12,,,59,127
12164,note_off,0,0,0,,2,,,62,127
12166,note_on,2,0,0,,10,,,57,127
12166,note_on,0,0,0,,4,,,64,127
12318,note_off,152,0,0,,2,,,74,127
12320,note_on,2,0,0,,1,,,73,127
12472,note_off,152,0,0,,1,,,73,127
12472,note_off,0,0,0,,4,,,64,127
12474,note_on,2,0,0,,6,,,66,127
12474,note_on,0,0,0,,10,,,69,127
12780,note_off,306,0,0,,10,,,57,127
12782,note_on,2,0,0,,2,,,62,127
12913,note_off,131,0,0,,10,,,69,127
12935,note_on,22,0,0,,6,,,78,127
13087,note_off,152,0,0,,2,,,62,127
13087,note_off,0,0,0,,6,,,66,127
13089,note_on,2,0,0,,10,,,57,127
13241,note_off,152,0,0,,6,,,78,127
13243,note_on,2,0,0,,4,,,76,127
13395,note_off,152,0,0,,10,,,57,127
13397,note_on,2,0,0,,10,,,81,127
13549,note_off,152,0,0,,4,,,76,127
13551,note_on,2,0,0,,1,,,73,127
13703,note_off,152,0,0,,10,,,81,127
13705,note_on,2,0,0,,10,,,57,127
13857,note_off,152,0,0,,1,,,73,127
13859,note_on,2,0,0,,10,,,69,127
14011,note_off,152,0,0,,10,,,57,127
14013,note_on,2,0,0,,12,,,59,127
14319,note_off,306,0,0,,12,,,59,127
14319,note_off,0,0,0,,10,,,69,127
14321,note_on,2,0,0,,4,,,64,127
14321,note_on,0,0,0,,2,,,74,127
14627,note_off,306,0,0,,2,,,74,127
14627,note_off,0,0,0,,4,,,64,127
14629,note_on,2,0,0,,8,,,68,127
14629,note_on,0,0,0,,12,,,83,127
14781,note_off,152,0,0,,8,,,68,127
14783,note_on,2,0,0,,4,,,52,127
14933,note_off,150,0,0,,12,,,83,127
14935,note_off,2,0,0,,4,,,52,127
14937,note_on,2,0,0,,10,,,57,127
15091,note_on,154,0,0,,4,,,76,127
15243,note_off,152,0,0,,10,,,57,127
15245,note_on,2,0,0,,10,,,81,127
15397,note_off,152,0,0,,4,,,76,127
15399,note_on,2,0,0,,1,,,73,127
15551,note_off,152,0,0,,10,,,81,127
15553,note_on,2,0,0,,10,,,57,127
15705,note_off,152,0,0,,1,,,73,127
15707,note_on,2,0,0,,10,,,69,127
15859,note_off,152,0,0,,10,,,57,127
15861,note_on,2,0,0,,12,,,59,127
16167,note_off,306,0,0,,12,,,59,127
16167,note_off,0,0,0,,10,,,69,127
16169,note_on,2,0,0,,4,,,64,127
16169,note_on,0,0,0,,2,,,74,127
16475,note_off,306,0,0,,2,,,74,127
16475,note_off,0,0,0,,4,,,64,127
16477,note_on,2,0,0,,8,,,68,127
16477,note_on,0,0,0,,12,,,83,127
16629,note_off,152,0,0,,8,,,68,127
16631,note_on,2,0,0,,4,,,52,127
16783,note_off,152,0,0,,4,,,52,127
16783,note_off,0,0,0,,12,,,83,127
16785,note_on,2,0,0,,10,,,57,127
16785,note_on,0,0,0,,10,,,69,127
16886,note_off,101,0,0,,10,,,69,127
16888,note_on,2,0,0,,0,,,72,127
16989,note_off,101,0,0,,0,,,72,127
16991,note_on,2,0,0,,10,,,69,127
17092,note_off,101,0,0,,10,,,69,127
17092,note_off,0,0,0,,10,,,57,127
17094,note_on,2,0,0,,10,,,81,127
17094,note_on,0,0,0,,10,,,69,127
17195,note_off,101,0,0,,10,,,69,127
17197,note_on,2,0,0,,0,,,72,127
17298,note_off,101,0,0,,0,,,72,127
17300,note_on,2,0,0,,2,,,74,127
17401,note_off,101,0,0,,2,,,74,127
17401,note_off,0,0,0,,10,,,81,127
17403,note_on,2,0,0,,10,,,57,127
17403,note_on,0,0,0,,4,,,76,127
17504,note_off,101,0,0,,4,,,76,127
17506,note_on,2,0,0,,0,,,72,127
17607,note_off,101,0,0,,0,,,72,127
17609,note_on,2,0,0,,12,,,71,127
17710,note_off,101,0,0,,12,,,71,127
17710,note_off,0,0,0,,10,,,57,127
17712,note_on,2,0,0,,7,,,55,127
17712,note_on,0,0,0,,10,,,69,127
17813,note_off,101,0,0,,10,,,69,127
17815,note_on,2,0,0,,0,,,72,127
17916,note_off,101,0,0,,0,,,72,127
17918,note_on,2,0,0,,12,,,71,127
18019,note_off,101,0,0,,12,,,71,127
18019,note_off,0,0,0,,7,,,55,127
18021,note_on,2,0,0,,10,,,81,127
18021,note_on,0,0,0,,10,,,69,127
18122,note_off,101,0,0,,10,,,69,127
18124,note_on,2,0,0,,0,,,72,127
18225,note_off,101,0,0,,0,,,72,127
18227,note_on,2,0,0,,2,,,74,127
18328,note_off,101,0,0,,2,,,74,127
18328,note_off,0,0,0,,10,,,81,127
18330,note_on,2,0,0,,7,,,55,127
18330,note_on,0,0,0,,4,,,76,127
18431,note_off,101,0,0,,4,,,76,127
18433,note_on,2,0,0,,0,,,72,127
18534,note_off,101,0,0,,0,,,72,127
18536,note_on,2,0,0,,12,,,71,127
18637,note_off,101,0,0,,12,,,71,127
18637,note_off,0,0,0,,7,,,55,127
18639,note_on,2,0,0,,5,,,53,127
18639,note_on,0,0,0,,10,,,69,127
18740,note_off,101,0,0,,10,,,69,127
18742,note_on,2,0,0,,0,,,72,127
18843,note_off,101,0,0,,0,,,72,127
18845,note_on,2,0,0,,12,,,71,127
18946,note_off,101,0,0,,12,,,71,127
18946,note_off,0,0,0,,5,,,53,127
18948,note_on,2,0,0,,10,,,81,127
18948,note_on,0,0,0,,10,,,69,127
19049,note_off,101,0,0,,10,,,69,127
19051,note_on,2,0,0,,0,,,72,127
19152,note_off,101,0,0,,0,,,72,127
19154,note_on,2,0,0,,2,,,74,127
19255,note_off,101,0,0,,2,,,74,127
19255,note_off,0,0,0,,10,,,81,127
19257,note_on,2,0,0,,5,,,53,127
19257,note_on,0,0,0,,4,,,76,127
19358,note_off,101,0,0,,4,,,76,127
19360,note_on,2,0,0,,0,,,72,127
19461,note_off,101,0,0,,0,,,72,127
19463,note_on,2,0,0,,12,,,71,127
19564,note_off,101,0,0,,12,,,71,127
19564,note_off,0,0,0,,5,,,53,127
19566,note_on,2,0,0,,4,,,52,127
19566,note_on,0,0,0,,10,,,69,127
19667,note_off,101,0,0,,10,,,69,127
19669,note_on,2,0,0,,0,,,72,127
19770,note_off,101,0,0,,0,,,72,127
19772,note_on,2,0,0,,12,,,71,127
19873,note_off,101,0,0,,12,,,71,127
19873,note_off,0,0,0,,4,,,52,127
19875,note_on,2,0,0,,10,,,81,127
19875,note_on,0,0,0,,10,,,69,127
19976,note_off,101,0,0,,10,,,69,127
19978,note_on,2,0,0,,0,,,72,127
20079,note_off,101,0,0,,0,,,72,127
20081,note_on,2,0,0,,2,,,74,127
20182,note_off,101,0,0,,2,,,74,127
20182,note_off,0,0,0,,10,,,81,127
20184,note_on,2,0,0,,4,,,52,127
20184,note_on,0,0,0,,4,,,76,127
20285,note_off,101,0,0,,4,,,76,127
20287,note_on,2,0,0,,0,,,72,127
20388,note_off,101,0,0,,0,,,72,127
20390,note_on,2,0,0,,12,,,71,127
20491,note_off,101,0,0,,12,,,71,127
20491,note_off,0,0,0,,4,,,52,127
20493,note_on,2,0,0,,3,,,51,127
20493,note_on,0,0,0,,10,,,69,127
20594,note_off,101,0,0,,10,,,69,127
20596,note_on,2,0,0,,0,,,72,127
20697,note_off,101,0,0,,0,,,72,127
20699,note_on,2,0,0,,12,,,71,127
20800,note_off,101,0,0,,12,,,71,127
20800,note_off,0,0,0,,3,,,51,127
20802,note_on,2,0,0,,6,,,78,127
20802,note_on,0,0,0,,10,,,69,127
20903,note_off,101,0,0,,10,,,69,127
20905,note_on,2,0,0,,12,,,71,127
21006,note_off,101,0,0,,12,,,71,127
21008,note_on,2,0,0,,0,,,72,127
21109,note_off,101,0,0,,0,,,72,127
21109,note_off,0,0,0,,6,,,78,127
21111,note_on,2,0,0,,3,,,51,127
21111,note_on,0,0,0,,3,,,75,127
21212,note_off,101,0,0,,3,,,75,127
21214,note_on,2,0,0,,0,,,72,127
21315,note_off,101,0,0,,0,,,72,127
21317,note_on,2,0,0,,12,,,71,127
21418,note_off,101,0,0,,12,,,71,127
21418,note_off,0,0,0,,3,,,51,127
21420,note_on,2,0,0,,3,,,51,127
21420,note_on,0,0,0,,10,,,69,127
21521,note_off,101,0,0,,10,,,69,127
21523,note_on,2,0,0,,0,,,72,127
21624,note_off,101,0,0,,0,,,72,127
21626,note_on,2,0,0,,12,,,71,127
21727,note_off,101,0,0,,12,,,71,127
21727,note_off,0,0,0,,3,,,51,127
21729,note_on,2,0,0,,6,,,78,127
21729,note_on,0,0,0,,10,,,69,127
21830,note_off,101,0,0,,10,,,69,127
21832,note_on,2,0,0,,12,,,71,127
21933,note_off,101,0,0,,12,,,71,127
21935,note_on,2,0,0,,0,,,72,127
22036,note_off,101,0,0,,0,,,72,127
22036,note_off,0,0,0,,6,,,78,127
22038,note_on,2,0,0,,3,,,51,127
22038,note_on,0,0,0,,3,,,75,127
22115,note_on,77,0,0,,0,,,72,127
22121,note_off,6,0,0,,3,,,75,127
22191,note_on,70,0,0,,12,,,71,127
22197,note_off,6,0,0,,0,,,72,127
22267,note_on,70,0,0,,10,,,69,127
22273,note_off,6,0,0,,12,,,71,127
22342,note_off,69,0,0,,3,,,51,127
22342,note_on,0,0,0,,12,,,71,127
22344,note_on,2,0,0,,4,,,52,127
22350,note_off,6,0,0,,10,,,69,127
22420,note_on,70,0,0,,8,,,68,127
22425,note_off,5,0,0,,12,,,71,127
22497,note_on,72,0,0,,3,,,63,127
22503,note_off,6,0,0,,8,,,68,127
22573,note_on,70,0,0,,4,,,64,127
22579,note_off,6,0,0,,3,,,63,127
22648,note_off,69,0,0,,4,,,52,127
22650,note_on,2,0,0,,12,,,83,127
22650,note_on,0,0,0,,2,,,74,127
22656,note_off,6,0,0,,4,,,64,127
22955,note_off,299,0,0,,2,,,74,127
22955,note_off,0,0,0,,12,,,83,127
22957,note_on,2,0,0,,10,,,81,127
22957,note_on,0,0,0,,1,,,73,127
23263,note_off,306,0,0,,1,,,73,127
23263,note_off,0,0,0,,10,,,81,127
23265,note_on,2,0,0,,8,,,80,127
23265,note_on,0,0,0,,12,,,71,127
23342,note_on,77,0,0,,8,,,68,127
23348,note_off,6,0,0,,12,,,71,127
23418,note_on,70,0,0,,3,,,63,127
23424,note_off,6,0,0,,8,,,68,127
23494,note_on,70,0,0,,4,,,64,127
23500,note_off,6,0,0,,3,,,63,127
23569,note_off,69,0,0,,8,,,80,127
23571,note_on,2,0,0,,4,,,52,127
23571,note_on,0,0,0,,12,,,71,127
23571,note_on,0,0,0,,8,,,68,127
23577,note_off,6,0,0,,4,,,64,127
23876,note_off,299,0,0,,8,,,68,127
23876,note_off,0,0,0,,12,,,71,127
23876,note_off,0,0,0,,4,,,52,127
23878,note_on,2,0,0,,3,,,51,127
23878,note_on,0,0,0,,0,,,72,127
23878,note_on,0,0,0,,10,,,69,127
24184,note_off,306,0,0,,10,,,69,127
24184,note_off,0,0,0,,0,,,72,127
24184,note_off,0,0,0,,3,,,51,127
24186,note_on,2,0,0,,4,,,52,127
24186,note_on,0,0,0,,12,,,71,127
24263,note_on,77,0,0,,8,,,68,127
24269,note_off,6,0,0,,12,,,71,127
24339,note_on,70,0,0,,3,,,63,127
24345,note_off,6,0,0,,8,,,68,127
24415,note_on,70,0,0,,4,,,64,127
24421,note_off,6,0,0,,3,,,63,127
24490,note_off,69,0,0,,4,,,52,127
24492,note_on,2,0,0,,12,,,83,127
24492,note_on,0,0,0,,2,,,74,127
24498,note_off,6,0,0,,4,,,64,127
24797,note_off,299,0,0,,2,,,74,127
24797,note_off,0,0,0,,12,,,83,127
24799,note_on,2,0,0,,10,,,81,127
24799,note_on,0,0,0,,1,,,73,127
25105,note_off,306,0,0,,1,,,73,127
25105,note_off,0,0,0,,10,,,81,127
25107,note_on,2,0,0,,8,,,80,127
25107,note_on,0,0,0,,12,,,71,127
25184,note_on,77,0,0,,8,,,68,127
25190,note_off,6,0,0,,12,,,71,127
25260,note_on,70,0,0,,3,,,63,127
25266,note_off,6,0,0,,8,,,68,127
25336,note_on,70,0,0,,4,,,64,127
25342,note_off,6,0,0,,3,,,63,127
25411,note_off,69,0,0,,8,,,80,127
25413,note_on,2,0,0,,4,,,52,127
25413,note_on,0,0,0,,8,,,68,127
25413,note_on,0,0,0,,12,,,71,127
25419,note_off,6,0,0,,4,,,64,127
25718,note_off,299,0,0,,12,,,71,127
25718,note_off,0,0,0,,8,,,68,127
25718,note_off,0,0,0,,4,,,52,127
25720,note_on,2,0,0,,3,,,51,127
25720,note_on,0,0,0,,10,,,69,127
25720,note_on,0,0,0,,0,,,72,127
26026,note_off,306,0,0,,0,,,72,127
26026,note_off,0,0,0,,10,,,69,127
26026,note_off,0,0,0,,3,,,51,127
26028,note_on,2,0,0,,4,,,52,127
26028,note_on,0,0,0,,8,,,68,127
26028,note_on,0,0,0,,12,,,71,127
26334,note_off,306,0,0,,12,,,71,127
26334,note_off,0,0,0,,8,,,68,127
26334,note_off,0,0,0,,4,,,52,127
26336,note_on,2,0,0,,2,,,62,127
26336,note_on,0,0,0,,5,,,77,127
26413,note_on,77,0,0,,2,,,74,127
26490,note_on,77,0,0,,11,,,70,127
26493,note_off,3,0,0,,5,,,77,127
26496,note_off,3,0,0,,2,,,74,127
26566,note_on,70,0,0,,12,,,71,127
26572,note_off,6,0,0,,11,,,70,127
26641,note_off,69,0,0,,2,,,62,127
26643,note_on,2,0,0,,0,,,60,127
26643,note_on,0,0,0,,4,,,76,127
26649,note_off,6,0,0,,12,,,71,127
26719,note_on,70,0,0,,0,,,72,127
26796,note_on,77,0,0,,8,,,68,127
26799,note_off,3,0,0,,4,,,76,127
26802,note_off,3,0,0,,0,,,72,127
26872,note_on,70,0,0,,10,,,69,127
26878,note_off,6,0,0,,8,,,68,127
26947,note_off,69,0,0,,0,,,60,127
26949,note_on,2,0,0,,12,,,59,127
26949,note_on,0,0,0,,2,,,74,127
26955,note_off,6,0,0,,10,,,69,127
27025,note_on,70,0,0,,12,,,71,127
27102,note_on,77,0,0,,6,,,66,127
27105,note_off,3,0,0,,2,,,74,127
27108,note_off,3,0,0,,12,,,71,127
27178,note_on,70,0,0,,8,,,68,127
27184,note_off,6,0,0,,6,,,66,127
27253,note_off,69,0,0,,12,,,59,127
27255,note_on,2,0,0,,10,,,57,127
27255,note_on,0,0,0,,0,,,72,127
27261,note_off,6,0,0,,8,,,68,127
27331,note_on,70,0,0,,10,,,69,127
27408,note_on,77,0,0,,3,,,63,127
27411,note_off,3,0,0,,0,,,72,127
27414,note_off,3,0,0,,10,,,69,127
27484,note_on,70,0,0,,4,,,64,127
27490,note_off,6,0,0,,3,,,63,127
27559,note_off,69,0,0,,10,,,57,127
27561,note_on,2,0,0,,8,,,56,127
27561,note_on,0,0,0,,12,,,71,127
27567,note_off,6,0,0,,4,,,64,127
27637,note_on,70,0,0,,8,,,68,127
27714,note_on,77,0,0,,3,,,63,127
27717,note_off,3,0,0,,12,,,71,127
27720,note_off,3,0,0,,8,,,68,127
27790,note_on,70,0,0,,4,,,64,127
27796,note_off,6,0,0,,3,,,63,127
27865,note_off,69,0,0,,8,,,56,127
27867,note_on,2,0,0,,10,,,57,127
27867,note_on,0,0,0,,0,,,72,127
27873,note_off,6,0,0,,4,,,64,127
27943,note_on,70,0,0,,10,,,69,127
28020,note_on,77,0,0,,3,,,63,127
28023,note_off,3,0,0,,0,,,72,127
28026,note_off,3,0,0,,10,,,69,127
28096,note_on,70,0,0,,4,,,64,127
28102,note_off,6,0,0,,3,,,63,127
28171,note_off,69,0,0,,10,,,57,127
28173,note_on,2,0,0,,7,,,55,127
28173,note_on,0,0,0,,12,,,71,127
28179,note_off,6,0,0,,4,,,64,127
28249,note_on,70,0,0,,7,,,67,127
28326,note_on,77,0,0,,3,,,63,127
28329,note_off,3,0,0,,12,,,71,127
28332,note_off,3,0,0,,7,,,67,127
28402,note_on,70,0,0,,4,,,64,127
28408,note_off,6,0,0,,3,,,63,127
28477,note_off,69,0,0,,7,,,55,127
28479,note_on,2,0,0,,5,,,53,127
28479,note_on,0,0,0,,10,,,69,127
28485,note_off,6,0,0,,4,,,64,127
28555,note_on,70,0,0,,5,,,65,127
28632,note_on,77,0,0,,1,,,61,127
28635,note_off,3,0,0,,10,,,69,127
28638,note_off,3,0,0,,5,,,65,127
28708,note_on,70,0,0,,2,,,62,127
28714,note_off,6,0,0,,1,,,61,127
28783,note_off,69,0,0,,5,,,53,127
28785,note_on,2,0,0,,4,,,52,127
28785,note_on,0,0,0,,8,,,68,127
28791,note_off,6,0,0,,2,,,62,127
28861,note_on,70,0,0,,4,,,64,127
28867,note_off,6,0,0,,8,,,68,127
28937,note_on,70,0,0,,6,,,66,127
28943,note_off,6,0,0,,4,,,64,127
29013,note_on,70,0,0,,8,,,68,127
29019,note_off,6,0,0,,6,,,66,127
29088,note_off,69,0,0,,4,,,52,127
29090,note_on,2,0,0,,6,,,54,127
29090,note_on,0,0,0,,10,,,69,127
29096,note_off,6,0,0,,8,,,68,127
29166,note_on,70,0,0,,1,,,73,127
29172,note_off,6,0,0,,10,,,69,127
29242,note_on,70,0,0,,12,,,71,127
29248,note_off,6,0,0,,1,,,73,127
29318,note_on,70,0,0,,10,,,69,127
29324,note_off,6,0,0,,12,,,71,127
29393,note_off,69,0,0,,6,,,54,127
29395,note_on,2,0,0,,8,,,56,127
29395,note_on,0,0,0,,12,,,71,127
29401,note_off,6,0,0,,10,,,69,127
29471,note_on,70,0,0,,2,,,74,127
29477,note_off,6,0,0,,12,,,71,127
29547,note_on,70,0,0,,1,,,73,127
29553,note_off,6,0,0,,2,,,74,127
29623,note_on,70,0,0,,12,,,71,127
29629,note_off,6,0,0,,1,,,73,127
29698,note_off,69,0,0,,8,,,56,127
29700,note_on,2,0,0,,10,,,57,127
29700,note_on,0,0,0,,1,,,73,127
29706,note_off,6,0,0,,12,,,71,127
29776,note_on,70,0,0,,10,,,69,127
29782,note_off,6,0,0,,1,,,73,127
29852,note_on,70,0,0,,12,,,71,127
29858,note_off,6,0,0,,10,,,69,127
29928,note_on,70,0,0,,1,,,73,127
29934,note_off,6,0,0,,12,,,71,127
30004,note_on,70,0,0,,2,,,74,127
30010,note_off,6,0,0,,1,,,73,127
30080,note_on,70,0,0,,4,,,76,127
30086,note_off,6,0,0,,2,,,74,127
30156,note_on,70,0,0,,6,,,78,127
30162,note_off,6,0,0,,4,,,76,127
30232,note_on,70,0,0,,8,,,80,127
30238,note_off,6,0,0,,6,,,78,127
30307,note_off,69,0,0,,10,,,57,127
30309,note_on,2,0,0,,10,,,81,127
30315,note_off,6,0,0,,8,,,80,127
30385,note_on,70,0,0,,6,,,78,127
30391,note_off,6,0,0,,10,,,81,127
30461,note_on,70,0,0,,4,,,76,127
30467,note_off,6,0,0,,6,,,78,127
30537,note_on,70,0,0,,2,,,74,127
30543,note_off,6,0,0,,4,,,76,127
30613,note_on,70,0,0,,1,,,49,127
30613,note_on,0,0,0,,4,,,76,127
30619,note_off,6,0,0,,2,,,74,127
30689,note_on,70,0,0,,1,,,73,127
30695,note_off,6,0,0,,4,,,76,127
30765,note_on,70,0,0,,12,,,71,127
30771,note_off,6,0,0,,1,,,73,127
30841,note_on,70,0,0,,10,,,69,127
30847,note_off,6,0,0,,12,,,71,127
30916,note_off,69,0,0,,1,,,49,127
30918,note_on,2,0,0,,2,,,50,127
30918,note_on,0,0,0,,2,,,62,127
30924,note_off,6,0,0,,10,,,69,127
31174,note_off,250,0,0,,2,,,62,127
31174,note_off,0,0,0,,2,,,50,127
31225,note_on,51,0,0,,4,,,52,127
31225,note_on,0,0,0,,4,,,64,127
31481,note_off,256,0,0,,4,,,64,127
31481,note_off,0,0,0,,4,,,52,127
31532,note_on,51,0,0,,5,,,53,127
31532,note_on,0,0,0,,5,,,65,127
32313,note_off,781,0,0,,5,,,65,127
32452,note_off,139,0,0,,5,,,53,127
32454,note_on,2,0,0,,5,,,77,127
32606,note_off,152,0,0,,5,,,77,127
32608,note_on,2,0,0,,4,,,76,127
32760,note_off,152,0,0,,4,,,76,127
32762,note_on,2,0,0,,3,,,75,127
32914,note_off,152,0,0,,3,,,75,127
32916,note_on,2,0,0,,0,,,72,127
33068,note_off,152,0,0,,0,,,72,127
33070,note_on,2,0,0,,12,,,71,127
33222,note_off,152,0,0,,12,,,71,127
33224,note_on,2,0,0,,10,,,69,127
33376,note_off,152,0,0,,10,,,69,127
33378,note_on,2,0,0,,8,,,68,127
33530,note_off,152,0,0,,8,,,68,127
33532,note_on,2,0,0,,5,,,65,127
33684,note_off,152,0,0,,5,,,65,127
33686,note_on,2,0,0,,4,,,64,127
33838,note_off,152,0,0,,4,,,64,127
33840,note_on,2,0,0,,10,,,69,127
33992,note_off,152,0,0,,10,,,69,127
33994,note_on,2,0,0,,8,,,68,127
34146,note_off,152,0,0,,8,,,68,127
34148,note_on,2,0,0,,2,,,74,127
34300,note_off,152,0,0,,2,,,74,127
34302,note_on,2,0,0,,10,,,57,127
34302,note_on,0,0,0,,1,,,73,127
34379,note_on,77,0,0,,10,,,81,127
34385,note_off,6,0,0,,1,,,73,127
34455,note_on,70,0,0,,8,,,80,127
34461,note_off,6,0,0,,10,,,81,127
34531,note_on,70,0,0,,6,,,78,127
34537,note_off,6,0,0,,8,,,80,127
34606,note_off,69,0,0,,10,,,57,127
34608,note_on,2,0,0,,1,,,49,127
34608,note_on,0,0,0,,4,,,76,127
34614,note_off,6,0,0,,6,,,78,127
34684,note_on,70,0,0,,2,,,74,127
34690,note_off,6,0,0,,4,,,76,127
34760,note_on,70,0,0,,1,,,73,127
34766,note_off,6,0,0,,2,,,74,127
34836,note_on,70,0,0,,12,,,71,127
34842,note_off,6,0,0,,1,,,73,127
34911,note_off,69,0,0,,1,,,49,127
34913,note_on,2,0,0,,10,,,45,127
34913,note_on,0,0,0,,10,,,69,127
34919,note_off,6,0,0,,12,,,71,127
34989,note_on,70,0,0,,4,,,76,127
34995,note_off,6,0,0,,10,,,69,127
35065,note_on,70,0,0,,2,,,74,127
35071,note_off,6,0,0,,4,,,76,127
35141,note_on,70,0,0,,1,,,73,127
35147,note_off,6,0,0,,2,,,74,127
35216,note_off,69,0,0,,10,,,45,127
35218,note_on,2,0,0,,2,,,50,127
35218,note_on,0,0,0,,6,,,78,127
35224,note_off,6,0,0,,1,,,73,127
35294,note_on,70,0,0,,4,,,76,127
35300,note_off,6,0,0,,6,,,78,127
35370,note_on,70,0,0,,2,,,74,127
35376,note_off,6,0,0,,4,,,76,127
35446,note_on,70,0,0,,1,,,73,127
35452,note_off,6,0,0,,2,,,74,127
35521,note_off,69,0,0,,2,,,50,127
35523,note_on,2,0,0,,4,,,52,127
35523,note_on,0,0,0,,12,,,71,127
35529,note_off,6,0,0,,1,,,73,127
35599,note_on,70,0,0,,10,,,69,127
35605,note_off,6,0,0,,12,,,71,127
35675,note_on,70,0,0,,8,,,68,127
35681,note_off,6,0,0,,10,,,69,127
35751,note_on,70,0,0,,6,,,66,127
35757,note_off,6,0,0,,8,,,68,127
35827,note_on,70,0,0,,4,,,64,127
35833,note_off,6,0,0,,6,,,66,127
35903,note_on,70,0,0,,2,,,62,127
35909,note_off,6,0,0,,4,,,64,127
35979,note_on,70,0,0,,1,,,61,127
35985,note_off,6,0,0,,2,,,62,127
36055,note_on,70,0,0,,12,,,59,127
36061,note_off,6,0,0,,1,,,61,127
36130,note_off,69,0,0,,4,,,52,127
36132,note_on,2,0,0,,10,,,57,127
36138,note_off,6,0,0,,12,,,59,127
36208,note_on,70,0,0,,4,,,64,127
36285,note_on,77,0,0,,1,,,61,127
36291,note_off,6,0,0,,4,,,64,127
36360,note_off,69,0,0,,10,,,57,127
36362,note_on,2,0,0,,10,,,57,127
36368,note_off,6,0,0,,1,,,61,127
36438,note_on,70,0,0,,1,,,61,127
36513,note_off,75,0,0,,10,,,57,127
36515,note_on,2,0,0,,10,,,69,127
36592,note_on,77,0,0,,4,,,64,127
36598,note_off,6,0,0,,10,,,69,127
36667,note_off,69,0,0,,1,,,61,127
36669,note_on,2,0,0,,1,,,61,127
36675,note_off,6,0,0,,4,,,64,127
36745,note_on,70,0,0,,4,,,64,127
36820,note_off,75,0,0,,1,,,61,127
36822,note_on,2,0,0,,1,,,73,127
36899,note_on,77,0,0,,10,,,69,127
36905,note_off,6,0,0,,1,,,73,127
36974,note_off,69,0,0,,4,,,64,127
36976,note_on,2,0,0,,4,,,64,127
36982,note_off,6,0,0,,10,,,69,127
37052,note_on,70,0,0,,10,,,69,127
37127,note_off,75,0,0,,4,,,64,127
37129,note_on,2,0,0,,4,,,76,127
37206,note_on,77,0,0,,1,,,73,127
37212,note_off,6,0,0,,4,,,76,127
37281,note_off,69,0,0,,10,,,69,127
37283,note_on,2,0,0,,10,,,69,127
37289,note_off,6,0,0,,1,,,73,127
37359,note_on,70,0,0,,1,,,73,127
37434,note_off,75,0,0,,10,,,69,127
37436,note_on,2,0,0,,10,,,81,127
37513,note_on,77,0,0,,4,,,76,127
37519,note_off,6,0,0,,10,,,81,127
37588,note_off,69,0,0,,1,,,73,127
37590,note_on,2,0,0,,1,,,73,127
37596,note_off,6,0,0,,4,,,76,127
37666,note_on,70,0,0,,10,,,69,127
37741,note_off,75,0,0,,1,,,73,127
37743,note_on,2,0,0,,4,,,76,127
37820,note_on,77,0,0,,1,,,73,127
37826,note_off,6,0,0,,4,,,76,127
37895,note_off,69,0,0,,10,,,69,127
37897,note_on,2,0,0,,10,,,69,127
37903,note_off,6,0,0,,1,,,73,127
37973,note_on,70,0,0,,4,,,64,127
38048,note_off,75,0,0,,10,,,69,127
38050,note_on,2,0,0,,1,,,73,127
38127,note_on,77,0,0,,10,,,69,127
38133,note_off,6,0,0,,1,,,73,127
38202,note_off,69,0,0,,4,,,64,127
38204,note_on,2,0,0,,4,,,64,127
38210,note_off,6,0,0,,10,,,69,127
38280,note_on,70,0,0,,1,,,61,127
38355,note_off,75,0,0,,4,,,64,127
38357,note_on,2,0,0,,10,,,69,127
38434,note_on,77,0,0,,4,,,64,127
38440,note_off,6,0,0,,10,,,69,127
38509,note_off,69,0,0,,1,,,61,127
38511,note_on,2,0,0,,1,,,61,127
38517,note_off,6,0,0,,4,,,64,127
38587,note_on,70,0,0,,10,,,57,127
38662,note_off,75,0,0,,1,,,61,127
38664,note_on,2,0,0,,4,,,64,127
38741,note_on,77,0,0,,1,,,61,127
38747,note_off,6,0,0,,4,,,64,127
38816,note_off,69,0,0,,10,,,57,127
38818,note_on,2,0,0,,10,,,57,127
38824,note_off,6,0,0,,1,,,61,127
38894,note_on,70,0,0,,10,,,45,127
38900,note_off,6,0,0,,10,,,57,127
39047,note_on,147,0,0,,2,,,50,127
39124,note_on,77,0,0,,4,,,52,127
39130,note_off,6,0,0,,2,,,50,127
39197,note_off,67,0,0,,10,,,45,127
39200,note_on,3,0,0,,10,,,57,127
39206,note_off,6,0,0,,4,,,52,127
39660,note_off,454,0,0,,10,,,57,127
39812,note_on,152,0,0,,4,,,64,127
39814,note_on,2,0,0,,10,,,45,127
39891,note_on,77,0,0,,1,,,49,127
39891,note_on,0,0,0,,10,,,69,127
39968,note_on,77,0,0,,4,,,52,127
39968,note_on,0,0,0,,1,,,73,127
39974,note_off,6,0,0,,10,,,69,127
39974,note_off,0,0,0,,1,,,49,127
40044,note_on,70,0,0,,10,,,57,127
40044,note_on,0,0,0,,4,,,76,127
40050,note_off,6,0,0,,1,,,73,127
40050,note_off,0,0,0,,4,,,52,127
40116,note_off,66,0,0,,4,,,64,127
40118,note_off,2,0,0,,10,,,57,127
40118,note_off,0,0,0,,10,,,45,127
40121,note_on,3,0,0,,4,,,52,127
40121,note_on,0,0,0,,10,,,57,127
40121,note_on,0,0,0,,1,,,61,127
40121,note_on,0,0,0,,4,,,64,127
40127,note_off,6,0,0,,4,,,76,127
40426,note_off,299,0,0,,4,,,64,127
40426,note_off,0,0,0,,1,,,61,127
40426,note_off,0,0,0,,10,,,57,127
40426,note_off,0,0,0,,4,,,52,127
40428,note_on,2,0,0,,8,,,56,127
40428,note_on,0,0,0,,4,,,52,127
40428,note_on,0,0,0,,12,,,59,127
40428,note_on,0,0,0,,2,,,62,127
40734,note_off,306,0,0,,2,,,62,127
40734,note_off,0,0,0,,12,,,59,127
40734,note_off,0,0,0,,4,,,52,127
40734,note_off,0,0,0,,8,,,56,127
40736,note_on,2,0,0,,10,,,45,127
40736,note_on,0,0,0,,10,,,57,127
40837,note_off,101,0,0,,10,,,57,127
40839,note_on,2,0,0,,1,,,61,127
40940,note_off,101,0,0,,1,,,61,127
40942,note_on,2,0,0,,2,,,62,127
41043,note_off,101,0,0,,2,,,62,127
41045,note_on,2,0,0,,4,,,64,127
41146,note_off,101,0,0,,4,,,64,127
41148,note_on,2,0,0,,6,,,66,127
41249,note_off,101,0,0,,6,,,66,127
41251,note_on,2,0,0,,8,,,68,127
41347,note_off,96,0,0,,10,,,45,127
41352,note_off,5,0,0,,8,,,68,127
41354,note_on,2,0,0,,10,,,69,127
41455,note_off,101,0,0,,10,,,69,127
41457,note_on,2,0,0,,1,,,73,127
41558,note_off,101,0,0,,1,,,73,127
41560,note_on,2,0,0,,2,,,74,127
41661,note_off,101,0,0,,2,,,74,127
41663,note_on,2,0,0,,4,,,76,127
41969,note_off,306,0,0,,4,,,76,127
41971,note_on,2,0,0,,1,,,61,127
41971,note_on,0,0,0,,10,,,57,127
41971,note_on,0,0,0,,4,,,52,127
41971,note_on,0,0,0,,4,,,64,127
42277,note_off,306,0,0,,4,,,64,127
42277,note_off,0,0,0,,4,,,52,127
42277,note_off,0,0,0,,10,,,57,127
42277,note_off,0,0,0,,1,,,61,127
42279,note_on,2,0,0,,8,,,56,127
42279,note_on,0,0,0,,4,,,52,127
42279,note_on,0,0,0,,12,,,59,127
42279,note_on,0,0,0,,2,,,62,127
42585,note_off,306,0,0,,2,,,62,127
42585,note_off,0,0,0,,12,,,59,127
42585,note_off,0,0,0,,4,,,52,127
42585,note_off,0,0,0,,8,,,56,127
42587,note_on,2,0,0,,10,,,45,127
42587,note_on,0,0,0,,10,,,57,127
42688,note_off,101,0,0,,10,,,57,127
42690,note_on,2,0,0,,1,,,61,127
42791,note_off,101,0,0,,1,,,61,127
42793,note_on,2,0,0,,2,,,62,127
42894,note_off,101,0,0,,2,,,62,127
42896,note_on,2,0,0,,4,,,64,127
42997,note_off,101,0,0,,4,,,64,127
42999,note_on,2,0,0,,6,,,66,127
43100,note_off,101,0,0,,6,,,66,127
43102,note_on,2,0,0,,8,,,68,127
43203,note_off,101,0,0,,8,,,68,127
43205,note_on,2,0,0,,10,,,69,127
43306,note_off,101,0,0,,10,,,69,127
43308,note_on,2,0,0,,1,,,73,127
43359,note_off,51,0,0,,10,,,45,127
43409,note_off,50,0,0,,1,,,73,127
43411,note_on,2,0,0,,2,,,74,127
43510,note_off,99,0,0,,2,,,74,127
43512,note_on,2,0,0,,4,,,76,127
43819,note_off,307,0,0,,4,,,76,127
43821,note_on,2,0,0,,10,,,57,127
43821,note_on,0,0,0,,4,,,52,127
43821,note_on,0,0,0,,1,,,61,127
43821,note_on,0,0,0,,4,,,64,127
44127,note_off,306,0,0,,4,,,64,127
44127,note_off,0,0,0,,1,,,61,127
44127,note_off,0,0,0,,4,,,52,127
44127,note_off,0,0,0,,10,,,57,127
44129,note_on,2,0,0,,4,,,52,127
44129,note_on,0,0,0,,8,,,56,127
44129,note_on,0,0,0,,12,,,59,127
44129,note_on,0,0,0,,2,,,62,127
44435,note_off,306,0,0,,2,,,62,127
44435,note_off,0,0,0,,12,,,59,127
44435,note_off,0,0,0,,8,,,56,127
44435,note_off,0,0,0,,4,,,52,127
44437,note_on,2,0,0,,10,,,57,127
44437,note_on,0,0,0,,1,,,61,127
44589,note_off,152,0,0,,1,,,61,127
44591,note_on,2,0,0,,12,,,59,127
44741,note_off,150,0,0,,10,,,57,127
44743,note_off,2,0,0,,12,,,59,127
44745,note_on,2,0,0,,10,,,57,127
44899,note_on,154,0,0,,4,,,52,127
45051,note_off,152,0,0,,4,,,52,127
45053,note_on,2,0,0,,10,,,45,127
45207,note_off,154,0,0,,10,,,57,127
45359,note_off,152,0,0,,10,,,45,127
45361,note_on,2,0,0,,10,,,57,127
45515,note_on,154,0,0,,4,,,76,127
45667,note_off,152,0,0,,4,,,76,127
45669,note_on,2,0,0,,1,,,73,127
45823,note_on,154,0,0,,1,,,61,127
45975,note_off,152,0,0,,1,,,61,127
45977,note_on,2,0,0,,6,,,66,127
46129,note_off,152,0,0,,1,,,73,127
46131,note_on,2,0,0,,10,,,69,127
46283,note_off,152,0,0,,10,,,57,127
46285,note_on,2,0,0,,12,,,59,127
46437,note_off,152,0,0,,10,,,69,127
46439,note_on,2,0,0,,2,,,74,127
46591,note_off,152,0,0,,2,,,74,127
46593,note_on,2,0,0,,12,,,71,127
46745,note_off,152,0,0,,6,,,66,127
46747,note_on,2,0,0,,2,,,62,127
46899,note_off,152,0,0,,2,,,62,127
46901,note_on,2,0,0,,4,,,64,127
47053,note_off,152,0,0,,12,,,71,127
47055,note_on,2,0,0,,8,,,68,127
47207,note_off,152,0,0,,12,,,59,127
47209,note_on,2,0,0,,10,,,57,127
47247,note_off,38,0,0,,8,,,68,127
47362,note_on,115,0,0,,4,,,76,127
47514,note_off,152,0,0,,4,,,76,127
47516,note_on,2,0,0,,1,,,73,127
47668,note_off,152,0,0,,4,,,64,127
47670,note_on,2,0,0,,1,,,61,127
47822,note_off,152,0,0,,1,,,61,127
47824,note_on,2,0,0,,6,,,66,127
47976,note_off,152,0,0,,1,,,73,127
47978,note_on,2,0,0,,10,,,69,127
48130,note_off,152,0,0,,10,,,57,127
48132,note_on,2,0,0,,12,,,59,127
48284,note_off,152,0,0,,10,,,69,127
48286,note_on,2,0,0,,2,,,74,127
48438,note_off,152,0,0,,2,,,74,127
48440,note_on,2,0,0,,12,,,71,127
48592,note_off,152,0,0,,6,,,66,127
48594,note_on,2,0,0,,2,,,62,127
48746,note_off,152,0,0,,2,,,62,127
48748,note_on,2,0,0,,4,,,64,127
48900,note_off,152,0,0,,12,,,71,127
48902,note_on,2,0,0,,8,,,68,127
49054,note_off,152,0,0,,12,,,59,127
49056,note_on,2,0,0,,10,,,57,127
49094,note_off,38,0,0,,8,,,68,127
49209,note_on,115,0,0,,4,,,76,127
49361,note_off,152,0,0,,4,,,76,127
49363,note_on,2,0,0,,1,,,73,127
49515,note_off,152,0,0,,4,,,64,127
49517,note_on,2,0,0,,1,,,61,127
49669,note_off,152,0,0,,1,,,61,127
49671,note_on,2,0,0,,6,,,66,127
49823,note_off,152,0,0,,1,,,73,127
49825,note_on,2,0,0,,10,,,69,127
49977,note_off,152,0,0,,10,,,57,127
49979,note_on,2,0,0,,10,,,57,127
50131,note_off,152,0,0,,10,,,69,127
50133,note_on,2,0,0,,10,,,81,127
50285,note_off,152,0,0,,10,,,81,127
50287,note_on,2,0,0,,6,,,78,127
50439,note_off,152,0,0,,6,,,66,127
50441,note_on,2,0,0,,0,,,60,127
50593,note_off,152,0,0,,0,,,60,127
50595,note_on,2,0,0,,6,,,66,127
50747,note_off,152,0,0,,6,,,78,127
50749,note_on,2,0,0,,4,,,76,127
50901,note_off,152,0,0,,10,,,57,127
50903,note_on,2,0,0,,12,,,59,127
51055,note_off,152,0,0,,4,,,76,127
51057,note_on,2,0,0,,6,,,78,127
51209,note_off,152,0,0,,6,,,78,127
51211,note_on,2,0,0,,3,,,75,127
51363,note_off,152,0,0,,6,,,66,127
51365,note_on,2,0,0,,6,,,66,127
51517,note_off,152,0,0,,6,,,66,127
51519,note_on,2,0,0,,10,,,69,127
51671,note_off,152,0,0,,3,,,75,127
51673,note_on,2,0,0,,0,,,72,127
51825,note_off,152,0,0,,10,,,69,127
51825,note_off,0,0,0,,12,,,59,127
51827,note_on,2,0,0,,3,,,51,127
51961,note_off,134,0,0,,0,,,72,127
51980,note_on,19,0,0,,12,,,71,127
52132,note_off,152,0,0,,12,,,71,127
52134,note_on,2,0,0,,6,,,78,127
52288,note_on,154,0,0,,10,,,57,127
52440,note_off,152,0,0,,10,,,57,127
52442,note_on,2,0,0,,12,,,59,127
52594,note_off,152,0,0,,6,,,78,127
52596,note_on,2,0,0,,10,,,69,127
52748,note_off,152,0,0,,12,,,59,127
52748,note_off,0,0,0,,3,,,51,127
52750,note_on,2,0,0,,4,,,52,127
52902,note_off,152,0,0,,10,,,69,127
52904,note_on,2,0,0,,7,,,67,127
53058,note_on,154,0,0,,7,,,55,127
53210,note_off,152,0,0,,7,,,67,127
53212,note_on,2,0,0,,4,,,76,127
53364,note_off,152,0,0,,7,,,55,127
53366,note_on,2,0,0,,6,,,54,127
53518,note_off,152,0,0,,4,,,76,127
53520,note_on,2,0,0,,2,,,74,127
53672,note_off,152,0,0,,6,,,54,127
53672,note_off,0,0,0,,4,,,52,127
53674,note_on,2,0,0,,4,,,52,127
53826,note_off,152,0,0,,2,,,74,127
53828,note_on,2,0,0,,1,,,73,127
53982,note_on,154,0,0,,1,,,61,127
54134,note_off,152,0,0,,1,,,73,127
54136,note_on,2,0,0,,8,,,80,127
54288,note_off,152,0,0,,4,,,52,127
54290,note_on,2,0,0,,5,,,53,127
54442,note_off,152,0,0,,8,,,80,127
54444,note_on,2,0,0,,12,,,71,127
54596,note_off,152,0,0,,5,,,53,127
54598,note_on,2,0,0,,6,,,54,127
54750,note_off,152,0,0,,12,,,71,127
54752,note_on,2,0,0,,10,,,69,127
54904,note_off,152,0,0,,6,,,54,127
54904,note_off,0,0,0,,1,,,61,127
54906,note_on,2,0,0,,6,,,78,127
55058,note_off,152,0,0,,10,,,69,127
55060,note_on,2,0,0,,6,,,66,127
55212,note_off,152,0,0,,6,,,78,127
55214,note_on,2,0,0,,11,,,82,127
55366,note_off,152,0,0,,6,,,66,127
55368,note_on,2,0,0,,4,,,64,127
55520,note_off,152,0,0,,4,,,64,127
55520,note_off,0,0,0,,11,,,82,127
55522,note_on,2,0,0,,12,,,59,127
55676,note_on,154,0,0,,12,,,83,127
55828,note_off,152,0,0,,12,,,59,127
55830,note_on,2,0,0,,3,,,63,127
55982,note_off,152,0,0,,12,,,83,127
55984,note_on,2,0,0,,6,,,54,127
56136,note_off,152,0,0,,3,,,63,127
56138,note_on,2,0,0,,10,,,69,127
56290,note_off,152,0,0,,6,,,54,127
56292,note_on,2,0,0,,3,,,51,127
56444,note_off,152,0,0,,3,,,51,127
56444,note_off,0,0,0,,10,,,69,127
56446,note_on,2,0,0,,4,,,52,127
56600,note_on,154,0,0,,8,,,68,127
56752,note_off,152,0,0,,4,,,52,127
56754,note_on,2,0,0,,4,,,76,127
56906,note_off,152,0,0,,8,,,68,127
56908,note_on,2,0,0,,4,,,64,127
57060,note_off,152,0,0,,4,,,76,127
57062,note_on,2,0,0,,8,,,80,127
57214,note_off,152,0,0,,4,,,64,127
57216,note_on,2,0,0,,2,,,62,127
57368,note_off,152,0,0,,2,,,62,127
57368,note_off,0,0,0,,8,,,80,127
57370,note_on,2,0,0,,10,,,57,127
57524,note_on,154,0,0,,10,,,81,127
57676,note_off,152,0,0,,10,,,57,127
57678,note_on,2,0,0,,4,,,64,127
57830,note_off,152,0,0,,10,,,81,127
57832,note_on,2,0,0,,4,,,52,127
57984,note_off,152,0,0,,4,,,64,127
57986,note_on,2,0,0,,7,,,67,127
58138,note_off,152,0,0,,4,,,52,127
58140,note_on,2,0,0,,1,,,49,127
58292,note_off,152,0,0,,1,,,49,127
58292,note_off,0,0,0,,7,,,67,127
58294,note_on,2,0,0,,2,,,50,127
58448,note_on,154,0,0,,6,,,66,127
58600,note_off,152,0,0,,2,,,50,127
58602,note_on,2,0,0,,2,,,74,127
58754,note_off,152,0,0,,6,,,66,127
58756,note_on,2,0,0,,2,,,62,127
58908,note_off,152,0,0,,2,,,74,127
58910,note_on,2,0,0,,6,,,78,127
59062,note_off,152,0,0,,2,,,62,127
59064,note_on,2,0,0,,0,,,60,127
59216,note_off,152,0,0,,0,,,60,127
59216,note_off,0,0,0,,6,,,78,127
59218,note_on,2,0,0,,7,,,43,127
59218,note_on,0,0,0,,12,,,59,127
59319,note_off,101,0,0,,12,,,59,127
59321,note_on,2,0,0,,1,,,61,127
59422,note_off,101,0,0,,1,,,61,127
59424,note_on,2,0,0,,2,,,62,127
59525,note_off,101,0,0,,2,,,62,127
59525,note_off,0,0,0,,7,,,43,127
59527,note_on,2,0,0,,12,,,71,127
59527,note_on,0,0,0,,4,,,64,127
59628,note_off,101,0,0,,4,,,64,127
59630,note_on,2,0,0,,6,,,66,127
59731,note_off,101,0,0,,6,,,66,127
59733,note_on,2,0,0,,7,,,67,127
59834,note_off,101,0,0,,7,,,67,127
59834,note_off,0,0,0,,12,,,71,127
59836,note_on,2,0,0,,7,,,43,127
59836,note_on,0,0,0,,12,,,59,127
59937,note_off,101,0,0,,12,,,59,127
59939,note_on,2,0,0,,1,,,61,127
60040,note_off,101,0,0,,1,,,61,127
60042,note_on,2,0,0,,2,,,62,127
60143,note_off,101,0,0,,2,,,62,127
60143,note_off,0,0,0,,7,,,43,127
60145,note_on,2,0,0,,10,,,45,127
60145,note_on,0,0,0,,1,,,61,127
60246,note_off,101,0,0,,1,,,61,127
60248,note_on,2,0,0,,2,,,62,127
60349,note_off,101,0,0,,2,,,62,127
60351,note_on,2,0,0,,4,,,64,127
60452,note_off,101,0,0,,4,,,64,127
60452,note_off,0,0,0,,10,,,45,127
60454,note_on,2,0,0,,1,,,73,127
60454,note_on,0,0,0,,6,,,66,127
60555,note_off,101,0,0,,6,,,66,127
60557,note_on,2,0,0,,7,,,67,127
60658,note_off,101,0,0,,7,,,67,127
60660,note_on,2,0,0,,10,,,69,127
60761,note_off,101,0,0,,10,,,69,127
60761,note_off,0,0,0,,1,,,73,127
60763,note_on,2,0,0,,10,,,45,127
60763,note_on,0,0,0,,1,,,61,127
60864,note_off,101,0,0,,1,,,61,127
60866,note_on,2,0,0,,2,,,62,127
60967,note_off,101,0,0,,2,,,62,127
60969,note_on,2,0,0,,4,,,64,127
61070,note_off,101,0,0,,4,,,64,127
61070,note_off,0,0,0,,10,,,45,127
61072,note_on,2,0,0,,12,,,47,127
61072,note_on,0,0,0,,2,,,62,127
61173,note_off,101,0,0,,2,,,62,127
61175,note_on,2,0,0,,4,,,64,127
61276,note_off,101,0,0,,4,,,64,127
61278,note_on,2,0,0,,6,,,66,127
61379,note_off,101,0,0,,6,,,66,127
61379,note_off,0,0,0,,12,,,47,127
61381,note_on,2,0,0,,2,,,74,127
61381,note_on,0,0,0,,7,,,67,127
61482,note_off,101,0,0,,7,,,67,127
61484,note_on,2,0,0,,10,,,69,127
61585,note_off,101,0,0,,10,,,69,127
61587,note_on,2,0,0,,12,,,71,127
61688,note_off,101,0,0,,12,,,71,127
61688,note_off,0,0,0,,2,,,74,127
61690,note_on,2,0,0,,12,,,47,127
61690,note_on,0,0,0,,2,,,62,127
61791,note_off,101,0,0,,2,,,62,127
61793,note_on,2,0,0,,4,,,64,127
61894,note_off,101,0,0,,4,,,64,127
61896,note_on,2,0,0,,6,,,66,127
61997,note_off,101,0,0,,6,,,66,127
61997,note_off,0,0,0,,12,,,47,127
61999,note_on,2,0,0,,1,,,49,127
61999,note_on,0,0,0,,4,,,64,127
62100,note_off,101,0,0,,4,,,64,127
62102,note_on,2,0,0,,6,,,66,127
62203,note_off,101,0,0,,6,,,66,127
62205,note_on,2,0,0,,7,,,67,127
62306,note_off,101,0,0,,7,,,67,127
62306,note_off,0,0,0,,1,,,49,127
62308,note_on,2,0,0,,4,,,76,127
62308,note_on,0,0,0,,10,,,69,127
62409,note_off,101,0,0,,10,,,69,127
62411,note_on,2,0,0,,12,,,71,127
62512,note_off,101,0,0,,12,,,71,127
62514,note_on,2,0,0,,1,,,73,127
62615,note_off,101,0,0,,1,,,73,127
62615,note_off,0,0,0,,4,,,76,127
62617,note_on,2,0,0,,1,,,49,127
62617,note_on,0,0,0,,4,,,64,127
62718,note_off,101,0,0,,4,,,64,127
62720,note_on,2,0,0,,6,,,66,127
62821,note_off,101,0,0,,6,,,66,127
62823,note_on,2,0,0,,7,,,67,127
62922,note_off,99,0,0,,7,,,67,127
62924,note_off,2,0,0,,1,,,49,127
62924,note_on,0,0,0,,6,,,66,127
62926,note_on,2,0,0,,2,,,50,127
63003,note_on,77,0,0,,10,,,69,127
63008,note_off,5,0,0,,6,,,66,127
63080,note_on,72,0,0,,7,,,67,127
63086,note_off,6,0,0,,10,,,69,127
63156,note_on,70,0,0,,6,,,66,127
63162,note_off,6,0,0,,7,,,67,127
63231,note_off,69,0,0,,2,,,50,127
63233,note_on,2,0,0,,7,,,55,127
63233,note_on,0,0,0,,12,,,71,127
63239,note_off,6,0,0,,6,,,66,127
63309,note_on,70,0,0,,7,,,67,127
63315,note_off,6,0,0,,12,,,71,127
63385,note_on,70,0,0,,10,,,69,127
63391,note_off,6,0,0,,7,,,67,127
63461,note_on,70,0,0,,6,,,66,127
63467,note_off,6,0,0,,10,,,69,127
63537,note_on,70,0,0,,7,,,43,127
63537,note_on,0,0,0,,7,,,67,127
63543,note_off,6,0,0,,6,,,66,127
63613,note_on,70,0,0,,4,,,64,127
63619,note_off,6,0,0,,7,,,67,127
63689,note_on,70,0,0,,6,,,66,127
63695,note_off,6,0,0,,4,,,64,127
63765,note_on,70,0,0,,2,,,62,127
63771,note_off,6,0,0,,6,,,66,127
63835,note_off,64,0,0,,7,,,55,127
63840,note_off,5,0,0,,7,,,43,127
63842,note_on,2,0,0,,10,,,45,127
63919,note_off,77,0,0,,2,,,62,127
63919,note_on,0,0,0,,1,,,61,127
63996,note_on,77,0,0,,2,,,62,127
64002,note_off,6,0,0,,1,,,61,127
64072,note_on,70,0,0,,1,,,61,127
64078,note_off,6,0,0,,2,,,62,127
64148,note_on,70,0,0,,2,,,62,127
64154,note_off,6,0,0,,1,,,61,127
64224,note_on,70,0,0,,1,,,61,127
64230,note_off,6,0,0,,2,,,62,127
64300,note_on,70,0,0,,12,,,59,127
64306,note_off,6,0,0,,1,,,61,127
64376,note_on,70,0,0,,1,,,61,127
64382,note_off,6,0,0,,12,,,59,127
64452,note_on,70,0,0,,10,,,57,127
64458,note_off,6,0,0,,1,,,61,127
64708,note_off,250,0,0,,10,,,57,127
64758,note_off,50,0,0,,10,,,45,127
64760,note_on,2,0,0,,4,,,64,127
64837,note_on,77,0,0,,1,,,61,127
64843,note_off,6,0,0,,4,,,64,127
64913,note_on,70,0,0,,8,,,56,127
64919,note_off,6,0,0,,1,,,61,127
64989,note_on,70,0,0,,10,,,57,127
64995,note_off,6,0,0,,8,,,56,127
65065,note_on,70,0,0,,4,,,76,127
65065,note_on,0,0,0,,7,,,67,127
65071,note_off,6,0,0,,10,,,57,127
65370,note_off,299,0,0,,7,,,67,127
65370,note_off,0,0,0,,4,,,76,127
65372,note_on,2,0,0,,2,,,74,127
65372,note_on,0,0,0,,6,,,66,127
65678,note_off,306,0,0,,6,,,66,127
65678,note_off,0,0,0,,2,,,74,127
65680,note_on,2,0,0,,1,,,73,127
65680,note_on,0,0,0,,4,,,64,127
65757,note_on,77,0,0,,1,,,61,127
65763,note_off,6,0,0,,4,,,64,127
65833,note_on,70,0,0,,8,,,56,127
65839,note_off,6,0,0,,1,,,61,127
65909,note_on,70,0,0,,10,,,57,127
65915,note_off,6,0,0,,8,,,56,127
65984,note_off,69,0,0,,1,,,73,127
65986,note_on,2,0,0,,10,,,45,127
65986,note_on,0,0,0,,4,,,64,127
65986,note_on,0,0,0,,1,,,61,127
65992,note_off,6,0,0,,10,,,57,127
66291,note_off,299,0,0,,1,,,61,127
66291,note_off,0,0,0,,4,,,64,127
66291,note_off,0,0,0,,10,,,45,127
66293,note_on,2,0,0,,8,,,44,127
66293,note_on,0,0,0,,5,,,65,127
66293,note_on,0,0,0,,2,,,62,127
66599,note_off,306,0,0,,2,,,62,127
66599,note_off,0,0,0,,5,,,65,127
66599,note_off,0,0,0,,8,,,44,127
66601,note_on,2,0,0,,10,,,45,127
66601,note_on,0,0,0,,4,,,64,127
66678,note_on,77,0,0,,1,,,61,127
66684,note_off,6,0,0,,4,,,64,127
66754,note_on,70,0,0,,8,,,56,127
66760,note_off,6,0,0,,1,,,61,127
66830,note_on,70,0,0,,10,,,57,127
66836,note_off,6,0,0,,8,,,56,127
66905,note_off,69,0,0,,10,,,45,127
66907,note_on,2,0,0,,4,,,76,127
66907,note_on,0,0,0,,7,,,67,127
66913,note_off,6,0,0,,10,,,57,127
67212,note_off,299,0,0,,7,,,67,127
67212,note_off,0,0,0,,4,,,76,127
67214,note_on,2,0,0,,2,,,74,127
67214,note_on,0,0,0,,6,,,66,127
67520,note_off,306,0,0,,6,,,66,127
67520,note_off,0,0,0,,2,,,74,127
67522,note_on,2,0,0,,1,,,73,127
67522,note_on,0,0,0,,4,,,64,127
67599,note_on,77,0,0,,1,,,61,127
67605,note_off,6,0,0,,4,,,64,127
67675,note_on,70,0,0,,8,,,56,127
67681,note_off,6,0,0,,1,,,61,127
67751,note_on,70,0,0,,10,,,57,127
67757,note_off,6,0,0,,8,,,56,127
67826,note_off,69,0,0,,1,,,73,127
67828,note_on,2,0,0,,10,,,45,127
67828,note_on,0,0,0,,1,,,61,127
67828,note_on,0,0,0,,4,,,64,127
67834,note_off,6,0,0,,10,,,57,127
68133,note_off,299,0,0,,4,,,64,127
68133,note_off,0,0,0,,1,,,61,127
68133,note_off,0,0,0,,10,,,45,127
68135,note_on,2,0,0,,8,,,44,127
68135,note_on,0,0,0,,5,,,65,127
68135,note_on,0,0,0,,2,,,62,127
68441,note_off,306,0,0,,2,,,62,127
68441,note_off,0,0,0,,5,,,65,127
68441,note_off,0,0,0,,8,,,44,127
68443,note_on,2,0,0,,10,,,45,127
68443,note_on,0,0,0,,4,,,64,127
68443,note_on,0,0,0,,1,,,61,127
68749,note_off,306,0,0,,1,,,61,127
68749,note_off,0,0,0,,4,,,64,127
68749,note_off,0,0,0,,10,,,45,127
68751,note_on,2,0,0,,7,,,67,127
68751,note_on,0,0,0,,11,,,82,127
68828,note_on,77,0,0,,7,,,79,127
68905,note_on,77,0,0,,3,,,75,127
68908,note_off,3,0,0,,11,,,82,127
68911,note_off,3,0,0,,7,,,79,127
68981,note_on,70,0,0,,4,,,76,127
68987,note_off,6,0,0,,3,,,75,127
69056,note_off,69,0,0,,7,,,67,127
69058,note_on,2,0,0,,5,,,65,127
69058,note_on,0,0,0,,10,,,81,127
69064,note_off,6,0,0,,4,,,76,127
69134,note_on,70,0,0,,5,,,77,127
69211,note_on,77,0,0,,1,,,73,127
69214,note_off,3,0,0,,10,,,81,127
69217,note_off,3,0,0,,5,,,77,127
69287,note_on,70,0,0,,2,,,74,127
69293,note_off,6,0,0,,1,,,73,127
69362,note_off,69,0,0,,5,,,65,127
69364,note_on,2,0,0,,4,,,64,127
69364,note_on,0,0,0,,7,,,79,127
69370,note_off,6,0,0,,2,,,74,127
69440,note_on,70,0,0,,4,,,76,127
69517,note_on,77,0,0,,12,,,71,127
69520,note_off,3,0,0,,7,,,79,127
69523,note_off,3,0,0,,4,,,76,127
69593,note_on,70,0,0,,1,,,73,127
69599,note_off,6,0,0,,12,,,71,127
69668,note_off,69,0,0,,4,,,64,127
69670,note_on,2,0,0,,2,,,62,127
69670,note_on,0,0,0,,5,,,77,127
69676,note_off,6,0,0,,1,,,73,127
69746,note_on,70,0,0,,2,,,74,127
69823,note_on,77,0,0,,8,,,68,127
69826,note_off,3,0,0,,5,,,77,127
69829,note_off,3,0,0,,2,,,74,127
69899,note_on,70,0,0,,10,,,69,127
69905,note_off,6,0,0,,8,,,68,127
69974,note_off,69,0,0,,2,,,62,127
69976,note_on,2,0,0,,1,,,61,127
69976,note_on,0,0,0,,4,,,76,127
69982,note_off,6,0,0,,10,,,69,127
70052,note_on,70,0,0,,1,,,73,127
70129,note_on,77,0,0,,8,,,68,127
70132,note_off,3,0,0,,4,,,76,127
70135,note_off,3,0,0,,1,,,73,127
70205,note_on,70,0,0,,10,,,69,127
70211,note_off,6,0,0,,8,,,68,127
70280,note_off,69,0,0,,1,,,61,127
70282,note_on,2,0,0,,2,,,62,127
70282,note_on,0,0,0,,5,,,77,127
70288,note_off,6,0,0,,10,,,69,127
70358,note_on,70,0,0,,2,,,74,127
70435,note_on,77,0,0,,8,,,68,127
70438,note_off,3,0,0,,5,,,77,127
70441,note_off,3,0,0,,2,,,74,127
70511,note_on,70,0,0,,10,,,69,127
70517,note_off,6,0,0,,8,,,68,127
70586,note_off,69,0,0,,2,,,62,127
70588,note_on,2,0,0,,1,,,61,127
70588,note_on,0,0,0,,4,,,76,127
70594,note_off,6,0,0,,10,,,69,127
70664,note_on,70,0,0,,1,,,73,127
70741,note_on,77,0,0,,8,,,68,127
70744,note_off,3,0,0,,4,,,76,127
70747,note_off,3,0,0,,1,,,73,127
70817,note_on,70,0,0,,10,,,69,127
70823,note_off,6,0,0,,8,,,68,127
70892,note_off,69,0,0,,1,,,61,127
70894,note_on,2,0,0,,11,,,58,127
70894,note_on,0,0,0,,2,,,74,127
70900,note_off,6,0,0,,10,,,69,127
70970,note_on,70,0,0,,11,,,70,127
71047,note_on,77,0,0,,6,,,66,127
71050,note_off,3,0,0,,2,,,74,127
71053,note_off,3,0,0,,11,,,70,127
71123,note_on,70,0,0,,7,,,67,127
71129,note_off,6,0,0,,6,,,66,127
71198,note_off,69,0,0,,11,,,58,127
71200,note_on,2,0,0,,10,,,57,127
71200,note_on,0,0,0,,1,,,73,127
71206,note_off,6,0,0,,7,,,67,127
71276,note_on,70,0,0,,10,,,69,127
71282,note_off,6,0,0,,1,,,73,127
71352,note_on,70,0,0,,12,,,71,127
71358,note_off,6,0,0,,10,,,69,127
71428,note_on,70,0,0,,1,,,73,127
71434,note_off,6,0,0,,12,,,71,127
71503,note_off,69,0,0,,10,,,57,127
71505,note_on,2,0,0,,6,,,54,127
71505,note_on,0,0,0,,2,,,74,127
71511,note_off,6,0,0,,1,,,73,127
71581,note_on,70,0,0,,6,,,78,127
71587,note_off,6,0,0,,2,,,74,127
71657,note_on,70,0,0,,4,,,76,127
71663,note_off,6,0,0,,6,,,78,127
71733,note_on,70,0,0,,2,,,74,127
71739,note_off,6,0,0,,4,,,76,127
71808,note_off,69,0,0,,6,,,54,127
71810,note_on,2,0,0,,1,,,49,127
71810,note_on,0,0,0,,4,,,76,127
71816,note_off,6,0,0,,2,,,74,127
71886,note_on,70,0,0,,7,,,79,127
71892,note_off,6,0,0,,4,,,76,127
71962,note_on,70,0,0,,6,,,78,127
71968,note_off,6,0,0,,7,,,79,127
72038,note_on,70,0,0,,4,,,76,127
72044,note_off,6,0,0,,6,,,78,127
72113,note_off,69,0,0,,1,,,49,127
72115,note_on,2,0,0,,2,,,50,127
72115,note_on,0,0,0,,6,,,78,127
72121,note_off,6,0,0,,4,,,76,127
72191,note_on,70,0,0,,2,,,74,127
72197,note_off,6,0,0,,6,,,78,127
72267,note_on,70,0,0,,4,,,76,127
72273,note_off,6,0,0,,2,,,74,127
72343,note_on,70,0,0,,6,,,78,127
72349,note_off,6,0,0,,4,,,76,127
72418,note_off,69,0,0,,2,,,50,127
72420,note_on,2,0,0,,12,,,59,127
72420,note_on,0,0,0,,7,,,79,127
72426,note_off,6,0,0,,6,,,78,127
72496,note_on,70,0,0,,12,,,83,127
72502,note_off,6,0,0,,7,,,79,127
72572,note_on,70,0,0,,10,,,81,127
72578,note_off,6,0,0,,12,,,83,127
72648,note_on,70,0,0,,7,,,79,127
72654,note_off,6,0,0,,10,,,81,127
72723,note_off,69,0,0,,12,,,59,127
72725,note_on,2,0,0,,6,,,54,127
72725,note_on,0,0,0,,10,,,81,127
72731,note_off,6,0,0,,7,,,79,127
72801,note_on,70,0,0,,1,,,85,127
72807,note_off,6,0,0,,10,,,81,127
72877,note_on,70,0,0,,12,,,83,127
72883,note_off,6,0,0,,1,,,85,127
72953,note_on,70,0,0,,10,,,81,127
72959,note_off,6,0,0,,12,,,83,127
73028,note_off,69,0,0,,6,,,54,127
73030,note_on,2,0,0,,7,,,55,127
73030,note_on,0,0,0,,12,,,83,127
73036,note_off,6,0,0,,10,,,81,127
73106,note_on,70,0,0,,10,,,81,127
73112,note_off,6,0,0,,12,,,83,127
73182,note_on,70,0,0,,7,,,79,127
73188,note_off,6,0,0,,10,,,81,127
73258,note_on,70,0,0,,6,,,78,127
73264,note_off,6,0,0,,7,,,79,127
73334,note_on,70,0,0,,4,,,76,127
73340,note_off,6,0,0,,6,,,78,127
73410,note_on,70,0,0,,2,,,74,127
73416,note_off,6,0,0,,4,,,76,127
73486,note_on,70,0,0,,1,,,73,127
73492,note_off,6,0,0,,2,,,74,127
73562,note_on,70,0,0,,12,,,71,127
73568,note_off,6,0,0,,1,,,73,127
73637,note_off,69,0,0,,7,,,55,127
73639,note_on,2,0,0,,10,,,57,127
73639,note_on,0,0,0,,10,,,69,127
73645,note_off,6,0,0,,12,,,71,127
73715,note_on,70,0,0,,7,,,67,127
73721,note_off,6,0,0,,10,,,69,127
73791,note_on,70,0,0,,6,,,66,127
73797,note_off,6,0,0,,7,,,67,127
73867,note_on,70,0,0,,4,,,64,127
73873,note_off,6,0,0,,6,,,66,127
73942,note_off,69,0,0,,10,,,57,127
73944,note_on,2,0,0,,2,,,50,127
73944,note_on,0,0,0,,6,,,66,127
73950,note_off,6,0,0,,4,,,64,127
74020,note_on,70,0,0,,2,,,62,127
74026,note_off,6,0,0,,6,,,66,127
74096,note_on,70,0,0,,4,,,64,127
74102,note_off,6,0,0,,2,,,62,127
74172,note_on,70,0,0,,6,,,66,127
74178,note_off,6,0,0,,4,,,64,127
74248,note_on,70,0,0,,7,,,67,127
74254,note_off,6,0,0,,6,,,66,127
74324,note_on,70,0,0,,10,,,69,127
74330,note_off,6,0,0,,7,,,67,127
74400,note_on,70,0,0,,12,,,71,127
74406,note_off,6,0,0,,10,,,69,127
74476,note_on,70,0,0,,1,,,73,127
74482,note_off,6,0,0,,12,,,71,127
74552,note_on,70,0,0,,2,,,74,127
74558,note_off,6,0,0,,1,,,73,127
74628,note_on,70,0,0,,12,,,71,127
74634,note_off,6,0,0,,2,,,74,127
74704,note_on,70,0,0,,10,,,69,127
74710,note_off,6,0,0,,12,,,71,127
74780,note_on,70,0,0,,7,,,67,127
74786,note_off,6,0,0,,10,,,69,127
74856,note_on,70,0,0,,10,,,69,127
74862,note_off,6,0,0,,7,,,67,127
74932,note_on,70,0,0,,6,,,66,127
74938,note_off,6,0,0,,10,,,69,127
75008,note_on,70,0,0,,4,,,64,127
75014,note_off,6,0,0,,6,,,66,127
75084,note_on,70,0,0,,2,,,62,127
75090,note_off,6,0,0,,4,,,64,127
75159,note_off,69,0,0,,2,,,50,127
75161,note_on,2,0,0,,7,,,43,127
75161,note_on,0,0,0,,7,,,55,127
75167,note_off,6,0,0,,2,,,62,127
75417,note_off,250,0,0,,7,,,55,127
75417,note_off,0,0,0,,7,,,43,127
75468,note_on,51,0,0,,10,,,45,127
75468,note_on,0,0,0,,10,,,57,127
75724,note_off,256,0,0,,10,,,57,127
75724,note_off,0,0,0,,10,,,45,127
75775,note_on,51,0,0,,11,,,46,127
75775,note_on,0,0,0,,11,,,58,127
76556,note_off,781,0,0,,11,,,58,127
76695,note_off,139,0,0,,11,,,46,127
76697,note_on,2,0,0,,11,,,82,127
76849,note_off,152,0,0,,11,,,82,127
76851,note_on,2,0,0,,10,,,81,127
77003,note_off,152,0,0,,10,,,81,127
77005,note_on,2,0,0,,8,,,80,127
77157,note_off,152,0,0,,8,,,80,127
77159,note_on,2,0,0,,5,,,77,127
77311,note_off,152,0,0,,5,,,77,127
77313,note_on,2,0,0,,4,,,76,127
77465,note_off,152,0,0,,4,,,76,127
77467,note_on,2,0,0,,2,,,74,127
77619,note_off,152,0,0,,2,,,74,127
77621,note_on,2,0,0,,1,,,73,127
77773,note_off,152,0,0,,1,,,73,127
77775,note_on,2,0,0,,11,,,70,127
77927,note_off,152,0,0,,11,,,70,127
77929,note_on,2,0,0,,10,,,69,127
78081,note_off,152,0,0,,10,,,69,127
78083,note_on,2,0,0,,2,,,74,127
78235,note_off,152,0,0,,2,,,74,127
78237,note_on,2,0,0,,1,,,73,127
78389,note_off,152,0,0,,1,,,73,127
78391,note_on,2,0,0,,7,,,79,127
78543,note_off,152,0,0,,7,,,79,127
78545,note_on,2,0,0,,2,,,50,127
78545,note_on,0,0,0,,6,,,78,127
78622,note_on,77,0,0,,2,,,74,127
78628,note_off,6,0,0,,6,,,78,127
78698,note_on,70,0,0,,1,,,73,127
78704,note_off,6,0,0,,2,,,74,127
78774,note_on,70,0,0,,12,,,71,127
78780,note_off,6,0,0,,1,,,73,127
78850,note_on,70,0,0,,10,,,69,127
78856,note_off,6,0,0,,12,,,71,127
78926,note_on,70,0,0,,7,,,67,127
78932,note_off,6,0,0,,10,,,69,127
79002,note_on,70,0,0,,6,,,66,127
79008,note_off,6,0,0,,7,,,67,127
79078,note_on,70,0,0,,4,,,64,127
79084,note_off,6,0,0,,6,,,66,127
79153,note_off,69,0,0,,2,,,50,127
79155,note_on,2,0,0,,6,,,54,127
79155,note_on,0,0,0,,2,,,62,127
79161,note_off,6,0,0,,4,,,64,127
79231,note_on,70,0,0,,10,,,69,127
79237,note_off,6,0,0,,2,,,62,127
79307,note_on,70,0,0,,7,,,67,127
79313,note_off,6,0,0,,10,,,69,127
79383,note_on,70,0,0,,6,,,66,127
79389,note_off,6,0,0,,7,,,67,127
79458,note_off,69,0,0,,6,,,54,127
79460,note_on,2,0,0,,7,,,43,127
79460,note_on,0,0,0,,12,,,71,127
79466,note_off,6,0,0,,6,,,66,127
79536,note_on,70,0,0,,10,,,69,127
79542,note_off,6,0,0,,12,,,71,127
79612,note_on,70,0,0,,7,,,67,127
79618,note_off,6,0,0,,10,,,69,127
79688,note_on,70,0,0,,6,,,66,127
79694,note_off,6,0,0,,7,,,67,127
79763,note_off,69,0,0,,7,,,43,127
79765,note_on,2,0,0,,10,,,45,127
79765,note_on,0,0,0,,4,,,64,127
79771,note_off,6,0,0,,6,,,66,127
79841,note_on,70,0,0,,2,,,62,127
79847,note_off,6,0,0,,4,,,64,127
79917,note_on,70,0,0,,1,,,61,127
79923,note_off,6,0,0,,2,,,62,127
79993,note_on,70,0,0,,12,,,59,127
79999,note_off,6,0,0,,1,,,61,127
80069,note_on,70,0,0,,10,,,57,127
80075,note_off,6,0,0,,12,,,59,127
80145,note_on,70,0,0,,7,,,55,127
80151,note_off,6,0,0,,10,,,57,127
80221,note_on,70,0,0,,6,,,54,127
80227,note_off,6,0,0,,7,,,55,127
80297,note_on,70,0,0,,4,,,52,127
80303,note_off,6,0,0,,6,,,54,127
80372,note_off,69,0,0,,10,,,45,127
80374,note_on,2,0,0,,2,,,50,127
80380,note_off,6,0,0,,4,,,52,127
80450,note_on,70,0,0,,10,,,57,127
80527,note_on,77,0,0,,6,,,54,127
80533,note_off,6,0,0,,10,,,57,127
80602,note_off,69,0,0,,2,,,50,127
80604,note_on,2,0,0,,2,,,50,127
80610,note_off,6,0,0,,6,,,54,127
80680,note_on,70,0,0,,6,,,54,127
80755,note_off,75,0,0,,2,,,50,127
80757,note_on,2,0,0,,2,,,62,127
80834,note_on,77,0,0,,10,,,57,127
80840,note_off,6,0,0,,2,,,62,127
80909,note_off,69,0,0,,6,,,54,127
80911,note_on,2,0,0,,6,,,54,127
80917,note_off,6,0,0,,10,,,57,127
80987,note_on,70,0,0,,10,,,57,127
81062,note_off,75,0,0,,6,,,54,127
81064,note_on,2,0,0,,6,,,66,127
81141,note_on,77,0,0,,2,,,62,127
81147,note_off,6,0,0,,6,,,66,127
81216,note_off,69,0,0,,10,,,57,127
81218,note_on,2,0,0,,10,,,57,127
81224,note_off,6,0,0,,2,,,62,127
81294,note_on,70,0,0,,2,,,62,127
81369,note_off,75,0,0,,10,,,57,127
81371,note_on,2,0,0,,10,,,69,127
81448,note_on,77,0,0,,6,,,66,127
81454,note_off,6,0,0,,10,,,69,127
81523,note_off,69,0,0,,2,,,62,127
81525,note_on,2,0,0,,2,,,62,127
81531,note_off,6,0,0,,6,,,66,127
81601,note_on,70,0,0,,6,,,66,127
81676,note_off,75,0,0,,2,,,62,127
81678,note_on,2,0,0,,2,,,74,127
81755,note_on,77,0,0,,10,,,69,127
81761,note_off,6,0,0,,2,,,74,127
81830,note_off,69,0,0,,6,,,66,127
81832,note_on,2,0,0,,6,,,66,127
81838,note_off,6,0,0,,10,,,69,127
81908,note_on,70,0,0,,10,,,69,127
81983,note_off,75,0,0,,6,,,66,127
81985,note_on,2,0,0,,6,,,78,127
82062,note_on,77,0,0,,2,,,74,127
82068,note_off,6,0,0,,6,,,78,127
82137,note_off,69,0,0,,10,,,69,127
82139,note_on,2,0,0,,10,,,69,127
82145,note_off,6,0,0,,2,,,74,127
82215,note_on,70,0,0,,2,,,74,127
82290,note_off,75,0,0,,10,,,69,127
82292,note_on,2,0,0,,10,,,81,127
82369,note_on,77,0,0,,6,,,78,127
82375,note_off,6,0,0,,10,,,81,127
82444,note_off,69,0,0,,2,,,74,127
82446,note_on,2,0,0,,2,,,74,127
82452,note_off,6,0,0,,6,,,78,127
82522,note_on,70,0,0,,10,,,69,127
82597,note_off,75,0,0,,2,,,74,127
82599,note_on,2,0,0,,6,,,78,127
82676,note_on,77,0,0,,2,,,74,127
82682,note_off,6,0,0,,6,,,78,127
82751,note_off,69,0,0,,10,,,69,127
82753,note_on,2,0,0,,10,,,69,127
82759,note_off,6,0,0,,2,,,74,127
82829,note_on,70,0,0,,6,,,66,127
82904,note_off,75,0,0,,10,,,69,127
82906,note_on,2,0,0,,2,,,74,127
82983,note_on,77,0,0,,10,,,69,127
82989,note_off,6,0,0,,2,,,74,127
83058,note_off,69,0,0,,6,,,66,127
83060,note_on,2,0,0,,6,,,66,127
83066,note_off,6,0,0,,10,,,69,127
83136,note_on,70,0,0,,2,,,62,127
83211,note_off,75,0,0,,6,,,66,127
83213,note_on,2,0,0,,10,,,69,127
83290,note_on,77,0,0,,6,,,66,127
83296,note_off,6,0,0,,10,,,69,127
83365,note_off,69,0,0,,2,,,62,127
83367,note_on,2,0,0,,2,,,62,127
83373,note_off,6,0,0,,6,,,66,127
83443,note_on,70,0,0,,10,,,57,127
83518,note_off,75,0,0,,2,,,62,127
83520,note_on,2,0,0,,6,,,66,127
83597,note_on,77,0,0,,2,,,62,127
83603,note_off,6,0,0,,6,,,66,127
83672,note_off,69,0,0,,10,,,57,127
83674,note_on,2,0,0,,10,,,57,127
83680,note_off,6,0,0,,2,,,62,127
83750,note_on,70,0,0,,6,,,54,127
83825,note_off,75,0,0,,10,,,57,127
83827,note_on,2,0,0,,2,,,62,127
83904,note_on,77,0,0,,10,,,57,127
83910,note_off,6,0,0,,2,,,62,127
83979,note_off,69,0,0,,6,,,54,127
83981,note_on,2,0,0,,6,,,54,127
83987,note_off,6,0,0,,10,,,57,127
84057,note_on,70,0,0,,2,,,50,127
84063,note_off,6,0,0,,6,,,54,127
84210,note_on,147,0,0,,7,,,55,127
84287,note_on,77,0,0,,10,,,57,127
84293,note_off,6,0,0,,7,,,55,127
84363,note_on,70,0,0,,2,,,62,127
84369,note_off,6,0,0,,10,,,57,127
84439,note_off,70,0,0,,2,,,50,127
85898,note_off,1459,0,0,,2,,,62,127
92160,end_of_track,6262,1,0,,,,,,
