tick,type,time,meta,track,program,channel,pitch,tempo,note,velocity
0,copyright,0,1,0,,,,,,
0,program_change,0,0,0,6,0,,,,
0,pitchwheel,0,0,0,,0,0,,,
0,program_change,0,0,0,6,1,,,,
0,pitchwheel,0,0,0,,1,-590,,,
0,program_change,0,0,0,6,2,,,,
0,pitchwheel,0,0,0,,2,-272,,,
0,program_change,0,0,0,6,3,,,,
0,pitchwheel,0,0,0,,3,-353,,,
0,program_change,0,0,0,6,4,,,,
0,pitchwheel,0,0,0,,4,-560,,,
0,program_change,0,0,0,6,5,,,,
0,pitchwheel,0,0,0,,5,-80,,,
0,program_change,0,0,0,6,6,,,,
0,pitchwheel,0,0,0,,6,-625,,,
0,program_change,0,0,0,6,7,,,,
0,pitchwheel,0,0,0,,7,-130,,,
0,program_change,0,0,0,6,8,,,,
0,pitchwheel,0,0,0,,8,-512,,,
0,program_change,0,0,0,6,10,,,,
0,pitchwheel,0,0,0,,10,-464,,,
0,program_change,0,0,0,6,11,,,,
0,pitchwheel,0,0,0,,11,-208,,,
0,program_change,0,0,0,6,12,,,,
0,pitchwheel,0,0,0,,12,-553,,,
0,set_tempo,0,1,0,,,,500000,,
154,note_on,154,0,0,,7,,,67,127
154,note_on,0,0,0,,12,,,71,127
154,note_on,0,0,0,,4,,,76,127
229,note_off,75,0,0,,4,,,76,127
231,note_on,2,0,0,,2,,,74,127
306,note_off,75,0,0,,2,,,74,127
308,note_on,2,0,0,,0,,,72,127
383,note_off,75,0,0,,0,,,72,127
385,note_on,2,0,0,,2,,,74,127
460,note_off,75,0,0,,2,,,74,127
460,note_off,0,0,0,,12,,,71,127
462,note_on,2,0,0,,0,,,72,127
462,note_on,0,0,0,,4,,,76,127
768,note_off,306,0,0,,4,,,76,127
768,note_off,0,0,0,,0,,,72,127
768,note_off,0,0,0,,7,,,67,127
770,note_on,2,0,0,,10,,,69,127
770,note_on,0,0,0,,6,,,78,127
1076,note_off,306,0,0,,6,,,78,127
1076,note_off,0,0,0,,10,,,69,127
1078,note_on,2,0,0,,7,,,67,127
1155,note_on,77,0,0,,7,,,79,127
1230,note_off,75,0,0,,7,,,79,127
1232,note_on,2,0,0,,2,,,74,127
1307,note_off,75,0,0,,2,,,74,127
1309,note_on,2,0,0,,12,,,71,127
1384,note_off,75,0,0,,12,,,71,127
1384,note_off,0,0,0,,7,,,67,127
1386,note_on,2,0,0,,7,,,67,127
1461,note_off,75,0,0,,7,,,67,127
1463,note_on,2,0,0,,7,,,67,127
1540,note_on,77,0,0,,2,,,62,127
1615,note_off,75,0,0,,2,,,62,127
1615,note_off,0,0,0,,7,,,67,127
1617,note_on,2,0,0,,12,,,59,127
1692,note_off,75,0,0,,12,,,59,127
1694,note_on,2,0,0,,7,,,43,127
2000,note_off,306,0,0,,7,,,43,127
2002,note_on,2,0,0,,7,,,67,127
2002,note_on,0,0,0,,12,,,71,127
2002,note_on,0,0,0,,4,,,76,127
2077,note_off,75,0,0,,4,,,76,127
2079,note_on,2,0,0,,2,,,74,127
2154,note_off,75,0,0,,2,,,74,127
2156,note_on,2,0,0,,0,,,72,127
2231,note_off,75,0,0,,0,,,72,127
2233,note_on,2,0,0,,2,,,74,127
2308,note_off,75,0,0,,2,,,74,127
2308,note_off,0,0,0,,12,,,71,127
2310,note_on,2,0,0,,0,,,72,127
2310,note_on,0,0,0,,4,,,76,127
2616,note_off,306,0,0,,4,,,76,127
2616,note_off,0,0,0,,0,,,72,127
2616,note_off,0,0,0,,7,,,67,127
2618,note_on,2,0,0,,10,,,69,127
2618,note_on,0,0,0,,6,,,78,127
2924,note_off,306,0,0,,6,,,78,127
2924,note_off,0,0,0,,10,,,69,127
2926,note_on,2,0,0,,7,,,67,127
2926,note_on,0,0,0,,7,,,79,127
3001,note_off,75,0,0,,7,,,79,127
3003,note_on,2,0,0,,12,,,83,127
3078,note_off,75,0,0,,12,,,83,127
3080,note_on,2,0,0,,7,,,79,127
3155,note_off,75,0,0,,7,,,79,127
3157,note_on,2,0,0,,2,,,74,127
3232,note_off,75,0,0,,2,,,74,127
3234,note_on,2,0,0,,12,,,71,127
3309,note_off,75,0,0,,7,,,67,127
3311,note_on,2,0,0,,7,,,67,127
3388,note_off,77,0,0,,12,,,71,127
3388,note_on,0,0,0,,2,,,62,127
3463,note_off,75,0,0,,2,,,62,127
3463,note_off,0,0,0,,7,,,67,127
3465,note_on,2,0,0,,12,,,59,127
3540,note_off,75,0,0,,12,,,59,127
3542,note_on,2,0,0,,7,,,43,127
3848,note_off,306,0,0,,7,,,43,127
3850,note_on,2,0,0,,12,,,71,127
3850,note_on,0,0,0,,2,,,74,127
4002,note_off,152,0,0,,2,,,74,127
4002,note_off,0,0,0,,12,,,71,127
4004,note_on,2,0,0,,7,,,67,127
4004,note_on,0,0,0,,12,,,83,127
4156,note_off,152,0,0,,12,,,83,127
4156,note_off,0,0,0,,7,,,67,127
4158,note_on,2,0,0,,10,,,69,127
4158,note_on,0,0,0,,0,,,72,127
4310,note_off,152,0,0,,0,,,72,127
4310,note_off,0,0,0,,10,,,69,127
4312,note_on,2,0,0,,6,,,66,127
4312,note_on,0,0,0,,10,,,81,127
4464,note_off,152,0,0,,10,,,81,127
4464,note_off,0,0,0,,6,,,66,127
4466,note_on,2,0,0,,7,,,67,127
4466,note_on,0,0,0,,12,,,71,127
4618,note_off,152,0,0,,12,,,71,127
4620,note_on,2,0,0,,7,,,79,127
4772,note_off,152,0,0,,7,,,79,127
4772,note_off,0,0,0,,7,,,67,127
4774,note_on,2,0,0,,2,,,62,127
4774,note_on,0,0,0,,10,,,69,127
4849,note_off,75,0,0,,10,,,69,127
4851,note_on,2,0,0,,6,,,78,127
4926,note_off,75,0,0,,6,,,78,127
4928,note_on,2,0,0,,2,,,74,127
5003,note_off,75,0,0,,2,,,74,127
5005,note_on,2,0,0,,10,,,69,127
5080,note_off,75,0,0,,10,,,69,127
5082,note_on,2,0,0,,6,,,66,127
5157,note_off,75,0,0,,2,,,62,127
5159,note_on,2,0,0,,2,,,62,127
5234,note_off,75,0,0,,2,,,62,127
5236,note_off,2,0,0,,6,,,66,127
5236,note_on,0,0,0,,10,,,57,127
5311,note_off,75,0,0,,10,,,57,127
5313,note_on,2,0,0,,6,,,54,127
5388,note_off,75,0,0,,6,,,54,127
5390,note_on,2,0,0,,2,,,38,127
5696,note_off,306,0,0,,2,,,38,127
5698,note_on,2,0,0,,6,,,66,127
5698,note_on,0,0,0,,2,,,62,127
5698,note_on,0,0,0,,12,,,71,127
5773,note_off,75,0,0,,12,,,71,127
5775,note_on,2,0,0,,10,,,69,127
5850,note_off,75,0,0,,10,,,69,127
5852,note_on,2,0,0,,7,,,67,127
5927,note_off,75,0,0,,7,,,67,127
5929,note_on,2,0,0,,10,,,69,127
6004,note_off,75,0,0,,10,,,69,127
6004,note_off,0,0,0,,6,,,66,127
6006,note_on,2,0,0,,7,,,67,127
6006,note_on,0,0,0,,12,,,71,127
6312,note_off,306,0,0,,12,,,71,127
6312,note_off,0,0,0,,7,,,67,127
6312,note_off,0,0,0,,2,,,62,127
6314,note_on,2,0,0,,4,,,64,127
6314,note_on,0,0,0,,1,,,73,127
6620,note_off,306,0,0,,1,,,73,127
6620,note_off,0,0,0,,4,,,64,127
6622,note_on,2,0,0,,2,,,62,127
6699,note_on,77,0,0,,2,,,74,127
6774,note_off,75,0,0,,2,,,74,127
6776,note_on,2,0,0,,10,,,69,127
6851,note_off,75,0,0,,10,,,69,127
6853,note_on,2,0,0,,6,,,66,127
6928,note_off,75,0,0,,6,,,66,127
6928,note_off,0,0,0,,2,,,62,127
6930,note_on,2,0,0,,2,,,62,127
7005,note_off,75,0,0,,2,,,62,127
7007,note_on,2,0,0,,2,,,62,127
7084,note_on,77,0,0,,10,,,57,127
7159,note_off,75,0,0,,10,,,57,127
7159,note_off,0,0,0,,2,,,62,127
7161,note_on,2,0,0,,6,,,54,127
7236,note_off,75,0,0,,6,,,54,127
7238,note_on,2,0,0,,2,,,38,127
7544,note_off,306,0,0,,2,,,38,127
7546,note_on,2,0,0,,6,,,66,127
7546,note_on,0,0,0,,10,,,69,127
7698,note_off,152,0,0,,10,,,69,127
7698,note_off,0,0,0,,6,,,66,127
7700,note_on,2,0,0,,2,,,62,127
7700,note_on,0,0,0,,2,,,74,127
7852,note_off,152,0,0,,2,,,74,127
7852,note_off,0,0,0,,2,,,62,127
7854,note_on,2,0,0,,7,,,67,127
7854,note_on,0,0,0,,12,,,71,127
8006,note_off,152,0,0,,12,,,71,127
8006,note_off,0,0,0,,7,,,67,127
8008,note_on,2,0,0,,4,,,64,127
8008,note_on,0,0,0,,4,,,76,127
8160,note_off,152,0,0,,4,,,76,127
8160,note_off,0,0,0,,4,,,64,127
8162,note_on,2,0,0,,10,,,69,127
8162,note_on,0,0,0,,1,,,73,127
8314,note_off,152,0,0,,1,,,73,127
8314,note_off,0,0,0,,10,,,69,127
8316,note_on,2,0,0,,6,,,66,127
8316,note_on,0,0,0,,6,,,78,127
8468,note_off,152,0,0,,6,,,78,127
8468,note_off,0,0,0,,6,,,66,127
8470,note_on,2,0,0,,12,,,71,127
8470,note_on,0,0,0,,2,,,74,127
8622,note_off,152,0,0,,2,,,74,127
8622,note_off,0,0,0,,12,,,71,127
8624,note_on,2,0,0,,7,,,67,127
8624,note_on,0,0,0,,7,,,79,127
8776,note_off,152,0,0,,7,,,79,127
8776,note_off,0,0,0,,7,,,67,127
8778,note_on,2,0,0,,1,,,73,127
8778,note_on,0,0,0,,4,,,76,127
8930,note_off,152,0,0,,4,,,76,127
8930,note_off,0,0,0,,1,,,73,127
8932,note_on,2,0,0,,10,,,69,127
8932,note_on,0,0,0,,10,,,81,127
9084,note_off,152,0,0,,10,,,81,127
9084,note_off,0,0,0,,10,,,69,127
9086,note_on,2,0,0,,2,,,74,127
9086,note_on,0,0,0,,6,,,78,127
9238,note_off,152,0,0,,6,,,78,127
9238,note_off,0,0,0,,2,,,74,127
9240,note_on,2,0,0,,1,,,73,127
9240,note_on,0,0,0,,4,,,76,127
9392,note_off,152,0,0,,4,,,76,127
9392,note_off,0,0,0,,1,,,73,127
9394,note_on,2,0,0,,12,,,71,127
9394,note_on,0,0,0,,7,,,79,127
9546,note_off,152,0,0,,7,,,79,127
9546,note_off,0,0,0,,12,,,71,127
9548,note_on,2,0,0,,10,,,69,127
9548,note_on,0,0,0,,6,,,78,127
9700,note_off,152,0,0,,6,,,78,127
9700,note_off,0,0,0,,10,,,69,127
9702,note_on,2,0,0,,7,,,67,127
9702,note_on,0,0,0,,4,,,76,127
9854,note_off,152,0,0,,4,,,76,127
9854,note_off,0,0,0,,7,,,67,127
9856,note_on,2,0,0,,10,,,69,127
9856,note_on,0,0,0,,6,,,78,127
10008,note_off,152,0,0,,6,,,78,127
10008,note_off,0,0,0,,10,,,69,127
10010,note_on,2,0,0,,12,,,71,127
10010,note_on,0,0,0,,4,,,76,127
10162,note_off,152,0,0,,4,,,76,127
10162,note_off,0,0,0,,12,,,71,127
10164,note_on,2,0,0,,7,,,67,127
10164,note_on,0,0,0,,2,,,74,127
10316,note_off,152,0,0,,2,,,74,127
10316,note_off,0,0,0,,7,,,67,127
10318,note_on,2,0,0,,10,,,69,127
10318,note_on,0,0,0,,10,,,81,127
10472,note_on,154,0,0,,1,,,73,127
10472,note_on,0,0,0,,4,,,76,127
10510,note_off,38,0,0,,10,,,69,127
10622,note_off,112,0,0,,10,,,81,127
10624,note_off,2,0,0,,4,,,76,127
10624,note_off,0,0,0,,1,,,73,127
10626,note_on,2,0,0,,2,,,74,127
10626,note_on,0,0,0,,5,,,77,127
10778,note_off,152,0,0,,5,,,77,127
10778,note_off,0,0,0,,2,,,74,127
10780,note_on,2,0,0,,0,,,72,127
10780,note_on,0,0,0,,4,,,76,127
10932,note_off,152,0,0,,4,,,76,127
10932,note_off,0,0,0,,0,,,72,127
10934,note_on,2,0,0,,11,,,70,127
10934,note_on,0,0,0,,7,,,79,127
11086,note_off,152,0,0,,7,,,79,127
11086,note_off,0,0,0,,11,,,70,127
11088,note_on,2,0,0,,10,,,69,127
11088,note_on,0,0,0,,5,,,77,127
11240,note_off,152,0,0,,5,,,77,127
11240,note_off,0,0,0,,10,,,69,127
11242,note_on,2,0,0,,7,,,67,127
11242,note_on,0,0,0,,11,,,82,127
11396,note_on,154,0,0,,11,,,70,127
11396,note_on,0,0,0,,1,,,73,127
11434,note_off,38,0,0,,7,,,67,127
11472,note_off,38,0,0,,11,,,82,127
11547,note_off,75,0,0,,1,,,73,127
11547,note_off,0,0,0,,11,,,70,127
11549,note_on,2,0,0,,10,,,69,127
11549,note_on,0,0,0,,5,,,77,127
11701,note_off,152,0,0,,5,,,77,127
11701,note_off,0,0,0,,10,,,69,127
11703,note_on,2,0,0,,7,,,67,127
11703,note_on,0,0,0,,4,,,76,127
11855,note_off,152,0,0,,4,,,76,127
11855,note_off,0,0,0,,7,,,67,127
11857,note_on,2,0,0,,5,,,65,127
11857,note_on,0,0,0,,2,,,74,127
12009,note_off,152,0,0,,2,,,74,127
12009,note_off,0,0,0,,5,,,65,127
12011,note_on,2,0,0,,4,,,64,127
12011,note_on,0,0,0,,1,,,73,127
12163,note_off,152,0,0,,1,,,73,127
12163,note_off,0,0,0,,4,,,64,127
12165,note_on,2,0,0,,2,,,62,127
12165,note_on,0,0,0,,2,,,74,127
12317,note_off,152,0,0,,2,,,62,127
12319,note_on,2,0,0,,1,,,61,127
12319,note_on,0,0,0,,10,,,81,127
12396,note_off,77,0,0,,2,,,74,127
12471,note_off,75,0,0,,10,,,81,127
12471,note_off,0,0,0,,1,,,61,127
12473,note_on,2,0,0,,12,,,59,127
12473,note_on,0,0,0,,7,,,79,127
12625,note_off,152,0,0,,7,,,79,127
12625,note_off,0,0,0,,12,,,59,127
12627,note_on,2,0,0,,10,,,57,127
12627,note_on,0,0,0,,6,,,78,127
12779,note_off,152,0,0,,6,,,78,127
12779,note_off,0,0,0,,10,,,57,127
12781,note_on,2,0,0,,7,,,55,127
12781,note_on,0,0,0,,4,,,76,127
12933,note_off,152,0,0,,4,,,76,127
12933,note_off,0,0,0,,7,,,55,127
12935,note_on,2,0,0,,12,,,59,127
12935,note_on,0,0,0,,2,,,74,127
13087,note_off,152,0,0,,2,,,74,127
13087,note_off,0,0,0,,12,,,59,127
13089,note_on,2,0,0,,10,,,57,127
13089,note_on,0,0,0,,2,,,74,127
13164,note_off,75,0,0,,2,,,74,127
13166,note_on,2,0,0,,1,,,73,127
13241,note_off,75,0,0,,1,,,73,127
13243,note_on,2,0,0,,12,,,71,127
13318,note_off,75,0,0,,12,,,71,127
13320,note_on,2,0,0,,1,,,73,127
13395,note_off,75,0,0,,1,,,73,127
13397,note_on,2,0,0,,10,,,45,127
13397,note_on,0,0,0,,10,,,69,127
13925,note_off,528,0,0,,10,,,69,127
14010,note_off,85,0,0,,10,,,45,127
14010,note_off,0,0,0,,10,,,57,127
14012,note_on,2,0,0,,8,,,68,127
14087,note_off,75,0,0,,8,,,68,127
14089,note_on,2,0,0,,10,,,69,127
14164,note_off,75,0,0,,10,,,69,127
14166,note_on,2,0,0,,8,,,68,127
14241,note_off,75,0,0,,8,,,68,127
14243,note_on,2,0,0,,10,,,69,127
14318,note_off,75,0,0,,10,,,69,127
14320,note_on,2,0,0,,1,,,73,127
14395,note_off,75,0,0,,1,,,73,127
14397,note_on,2,0,0,,2,,,74,127
14472,note_off,75,0,0,,2,,,74,127
14474,note_on,2,0,0,,1,,,73,127
14549,note_off,75,0,0,,1,,,73,127
14551,note_on,2,0,0,,2,,,74,127
14626,note_off,75,0,0,,2,,,74,127
14628,note_on,2,0,0,,3,,,75,127
14703,note_off,75,0,0,,3,,,75,127
14705,note_on,2,0,0,,4,,,76,127
14780,note_off,75,0,0,,4,,,76,127
14782,note_on,2,0,0,,3,,,75,127
14857,note_off,75,0,0,,3,,,75,127
14859,note_on,2,0,0,,4,,,76,127
14934,note_off,75,0,0,,4,,,76,127
14936,note_on,2,0,0,,10,,,69,127
14936,note_on,0,0,0,,7,,,79,127
14936,note_on,0,0,0,,4,,,76,127
15242,note_off,306,0,0,,4,,,76,127
15242,note_off,0,0,0,,7,,,79,127
15244,note_on,2,0,0,,2,,,74,127
15244,note_on,0,0,0,,6,,,78,127
15550,note_off,306,0,0,,6,,,78,127
15550,note_off,0,0,0,,2,,,74,127
15552,note_on,2,0,0,,4,,,76,127
15552,note_on,0,0,0,,1,,,73,127
15858,note_off,306,0,0,,1,,,73,127
15858,note_off,0,0,0,,4,,,76,127
15858,note_off,0,0,0,,10,,,69,127
15860,note_on,2,0,0,,8,,,68,127
15935,note_off,75,0,0,,8,,,68,127
15937,note_on,2,0,0,,10,,,69,127
16012,note_off,75,0,0,,10,,,69,127
16014,note_on,2,0,0,,8,,,68,127
16089,note_off,75,0,0,,8,,,68,127
16091,note_on,2,0,0,,10,,,69,127
16166,note_off,75,0,0,,10,,,69,127
16168,note_on,2,0,0,,1,,,73,127
16243,note_off,75,0,0,,1,,,73,127
16245,note_on,2,0,0,,2,,,74,127
16320,note_off,75,0,0,,2,,,74,127
16322,note_on,2,0,0,,1,,,73,127
16397,note_off,75,0,0,,1,,,73,127
16399,note_on,2,0,0,,2,,,74,127
16474,note_off,75,0,0,,2,,,74,127
16476,note_on,2,0,0,,3,,,75,127
16551,note_off,75,0,0,,3,,,75,127
16553,note_on,2,0,0,,4,,,76,127
16628,note_off,75,0,0,,4,,,76,127
16630,note_on,2,0,0,,3,,,75,127
16705,note_off,75,0,0,,3,,,75,127
16707,note_on,2,0,0,,4,,,76,127
16782,note_off,75,0,0,,4,,,76,127
16784,note_on,2,0,0,,10,,,69,127
16784,note_on,0,0,0,,6,,,78,127
16784,note_on,0,0,0,,10,,,81,127
17090,note_off,306,0,0,,10,,,81,127
17090,note_off,0,0,0,,6,,,78,127
17092,note_on,2,0,0,,4,,,76,127
17092,note_on,0,0,0,,7,,,79,127
17398,note_off,306,0,0,,7,,,79,127
17398,note_off,0,0,0,,4,,,76,127
17400,note_on,2,0,0,,6,,,78,127
17400,note_on,0,0,0,,2,,,74,127
17706,note_off,306,0,0,,2,,,74,127
17706,note_off,0,0,0,,6,,,78,127
17706,note_off,0,0,0,,10,,,69,127
17708,note_on,2,0,0,,8,,,68,127
17783,note_off,75,0,0,,8,,,68,127
17785,note_on,2,0,0,,10,,,69,127
17860,note_off,75,0,0,,10,,,69,127
17862,note_on,2,0,0,,8,,,68,127
17937,note_off,75,0,0,,8,,,68,127
17939,note_on,2,0,0,,10,,,69,127
18014,note_off,75,0,0,,10,,,69,127
18016,note_on,2,0,0,,1,,,73,127
18091,note_off,75,0,0,,1,,,73,127
18093,note_on,2,0,0,,2,,,74,127
18168,note_off,75,0,0,,2,,,74,127
18170,note_on,2,0,0,,1,,,73,127
18245,note_off,75,0,0,,1,,,73,127
18247,note_on,2,0,0,,2,,,74,127
18322,note_off,75,0,0,,2,,,74,127
18324,note_on,2,0,0,,3,,,75,127
18399,note_off,75,0,0,,3,,,75,127
18401,note_on,2,0,0,,4,,,76,127
18476,note_off,75,0,0,,4,,,76,127
18478,note_on,2,0,0,,3,,,75,127
18553,note_off,75,0,0,,3,,,75,127
18555,note_on,2,0,0,,4,,,76,127
18630,note_off,75,0,0,,4,,,76,127
18632,note_on,2,0,0,,10,,,69,127
18632,note_on,0,0,0,,7,,,79,127
18632,note_on,0,0,0,,12,,,83,127
18938,note_off,306,0,0,,12,,,83,127
18938,note_off,0,0,0,,7,,,79,127
18940,note_on,2,0,0,,6,,,78,127
18940,note_on,0,0,0,,10,,,81,127
19246,note_off,306,0,0,,10,,,81,127
19246,note_off,0,0,0,,6,,,78,127
19248,note_on,2,0,0,,4,,,76,127
19248,note_on,0,0,0,,7,,,79,127
19554,note_off,306,0,0,,7,,,79,127
19554,note_off,0,0,0,,4,,,76,127
19556,note_on,2,0,0,,6,,,78,127
19556,note_on,0,0,0,,2,,,74,127
19862,note_off,306,0,0,,2,,,74,127
19862,note_off,0,0,0,,6,,,78,127
19864,note_on,2,0,0,,2,,,74,127
19864,note_on,0,0,0,,6,,,78,127
19915,note_on,51,0,0,,1,,,73,127
19915,note_on,0,0,0,,4,,,76,127
19939,note_off,24,0,0,,6,,,78,127
19939,note_off,0,0,0,,2,,,74,127
19966,note_on,27,0,0,,2,,,74,127
19966,note_on,0,0,0,,6,,,78,127
19990,note_off,24,0,0,,4,,,76,127
19990,note_off,0,0,0,,1,,,73,127
20017,note_on,27,0,0,,1,,,73,127
20017,note_on,0,0,0,,4,,,76,127
20041,note_off,24,0,0,,6,,,78,127
20041,note_off,0,0,0,,2,,,74,127
20399,note_off,358,0,0,,4,,,76,127
20399,note_off,0,0,0,,1,,,73,127
20476,note_off,77,0,0,,10,,,69,127
20631,note_on,155,0,0,,1,,,61,127
20706,note_off,75,0,0,,1,,,61,127
20708,note_on,2,0,0,,2,,,62,127
20783,note_off,75,0,0,,2,,,62,127
20785,note_on,2,0,0,,1,,,61,127
20860,note_off,75,0,0,,1,,,61,127
20862,note_on,2,0,0,,2,,,62,127
20937,note_off,75,0,0,,2,,,62,127
20939,note_on,2,0,0,,3,,,63,127
21014,note_off,75,0,0,,3,,,63,127
21016,note_on,2,0,0,,4,,,64,127
21091,note_off,75,0,0,,4,,,64,127
21093,note_on,2,0,0,,3,,,63,127
21168,note_off,75,0,0,,3,,,63,127
21170,note_on,2,0,0,,4,,,64,127
21245,note_off,75,0,0,,4,,,64,127
21247,note_on,2,0,0,,6,,,66,127
21322,note_off,75,0,0,,6,,,66,127
21324,note_on,2,0,0,,7,,,67,127
21399,note_off,75,0,0,,7,,,67,127
21401,note_on,2,0,0,,6,,,66,127
21476,note_off,75,0,0,,6,,,66,127
21478,note_on,2,0,0,,7,,,67,127
21553,note_off,75,0,0,,7,,,67,127
21555,note_on,2,0,0,,8,,,68,127
21630,note_off,75,0,0,,8,,,68,127
21632,note_on,2,0,0,,10,,,69,127
21707,note_off,75,0,0,,10,,,69,127
21709,note_on,2,0,0,,8,,,68,127
21784,note_off,75,0,0,,8,,,68,127
21786,note_on,2,0,0,,10,,,69,127
21861,note_off,75,0,0,,10,,,69,127
21863,note_on,2,0,0,,11,,,70,127
21938,note_off,75,0,0,,11,,,70,127
21940,note_on,2,0,0,,12,,,71,127
22015,note_off,75,0,0,,12,,,71,127
22017,note_on,2,0,0,,11,,,70,127
22092,note_off,75,0,0,,11,,,70,127
22094,note_on,2,0,0,,12,,,71,127
22169,note_off,75,0,0,,12,,,71,127
22171,note_on,2,0,0,,1,,,73,127
22246,note_off,75,0,0,,1,,,73,127
22248,note_on,2,0,0,,2,,,74,127
22323,note_off,75,0,0,,2,,,74,127
22325,note_on,2,0,0,,1,,,73,127
22400,note_off,75,0,0,,1,,,73,127
22402,note_on,2,0,0,,2,,,74,127
22479,note_on,77,0,0,,7,,,67,127
22554,note_off,75,0,0,,2,,,74,127
22556,note_on,2,0,0,,12,,,71,127
22631,note_off,75,0,0,,12,,,71,127
22633,note_on,2,0,0,,12,,,83,127
22708,note_off,75,0,0,,12,,,83,127
22710,note_on,2,0,0,,10,,,81,127
22785,note_off,75,0,0,,10,,,81,127
22785,note_off,0,0,0,,7,,,67,127
22787,note_on,2,0,0,,7,,,79,127
22787,note_on,0,0,0,,10,,,69,127
22862,note_off,75,0,0,,7,,,79,127
22864,note_on,2,0,0,,6,,,78,127
22939,note_off,75,0,0,,6,,,78,127
22941,note_on,2,0,0,,4,,,76,127
23016,note_off,75,0,0,,4,,,76,127
23018,note_on,2,0,0,,2,,,74,127
23093,note_off,75,0,0,,2,,,74,127
23093,note_off,0,0,0,,10,,,69,127
23095,note_on,2,0,0,,1,,,73,127
23095,note_on,0,0,0,,10,,,57,127
23170,note_off,75,0,0,,1,,,73,127
23172,note_on,2,0,0,,12,,,71,127
23247,note_off,75,0,0,,12,,,71,127
23249,note_on,2,0,0,,10,,,69,127
23324,note_off,75,0,0,,10,,,69,127
23326,note_on,2,0,0,,4,,,76,127
23401,note_off,75,0,0,,4,,,76,127
23401,note_off,0,0,0,,10,,,57,127
23403,note_on,2,0,0,,2,,,50,127
23480,note_on,77,0,0,,2,,,74,127
23555,note_off,75,0,0,,2,,,74,127
23557,note_on,2,0,0,,1,,,73,127
23632,note_off,75,0,0,,1,,,73,127
23634,note_on,2,0,0,,12,,,71,127
23709,note_off,75,0,0,,12,,,71,127
23711,note_on,2,0,0,,10,,,69,127
23786,note_off,75,0,0,,10,,,69,127
23788,note_on,2,0,0,,7,,,67,127
23863,note_off,75,0,0,,7,,,67,127
23865,note_on,2,0,0,,6,,,66,127
23940,note_off,75,0,0,,6,,,66,127
23942,note_on,2,0,0,,4,,,64,127
24017,note_off,75,0,0,,4,,,64,127
24019,note_on,2,0,0,,2,,,62,127
24094,note_off,75,0,0,,2,,,50,127
24096,note_on,2,0,0,,6,,,54,127
24171,note_off,75,0,0,,6,,,54,127
24173,note_on,2,0,0,,10,,,57,127
24243,note_off,70,0,0,,2,,,62,127
24248,note_off,5,0,0,,10,,,57,127
24250,note_on,2,0,0,,2,,,62,127
24325,note_off,75,0,0,,2,,,62,127
24327,note_on,2,0,0,,1,,,61,127
24402,note_off,75,0,0,,1,,,61,127
24404,note_on,2,0,0,,2,,,62,127
24479,note_off,75,0,0,,2,,,62,127
24481,note_on,2,0,0,,1,,,61,127
24556,note_off,75,0,0,,1,,,61,127
24558,note_on,2,0,0,,2,,,62,127
24633,note_off,75,0,0,,2,,,62,127
24635,note_on,2,0,0,,3,,,63,127
24710,note_off,75,0,0,,3,,,63,127
24712,note_on,2,0,0,,4,,,64,127
24787,note_off,75,0,0,,4,,,64,127
24789,note_on,2,0,0,,3,,,63,127
24864,note_off,75,0,0,,3,,,63,127
24866,note_on,2,0,0,,4,,,64,127
24941,note_off,75,0,0,,4,,,64,127
24943,note_on,2,0,0,,6,,,66,127
25018,note_off,75,0,0,,6,,,66,127
25020,note_on,2,0,0,,7,,,67,127
25095,note_off,75,0,0,,7,,,67,127
25097,note_on,2,0,0,,6,,,66,127
25172,note_off,75,0,0,,6,,,66,127
25174,note_on,2,0,0,,7,,,67,127
25249,note_off,75,0,0,,7,,,67,127
25251,note_on,2,0,0,,8,,,68,127
25326,note_off,75,0,0,,8,,,68,127
25328,note_on,2,0,0,,10,,,69,127
25403,note_off,75,0,0,,10,,,69,127
25405,note_on,2,0,0,,8,,,68,127
25480,note_off,75,0,0,,8,,,68,127
25482,note_on,2,0,0,,10,,,69,127
25557,note_off,75,0,0,,10,,,69,127
25559,note_on,2,0,0,,11,,,70,127
25634,note_off,75,0,0,,11,,,70,127
25636,note_on,2,0,0,,12,,,71,127
25711,note_off,75,0,0,,12,,,71,127
25713,note_on,2,0,0,,11,,,70,127
25788,note_off,75,0,0,,11,,,70,127
25790,note_on,2,0,0,,12,,,71,127
25865,note_off,75,0,0,,12,,,71,127
25867,note_on,2,0,0,,1,,,73,127
25942,note_off,75,0,0,,1,,,73,127
25944,note_on,2,0,0,,2,,,74,127
26019,note_off,75,0,0,,2,,,74,127
26021,note_on,2,0,0,,1,,,73,127
26096,note_off,75,0,0,,1,,,73,127
26098,note_on,2,0,0,,2,,,74,127
26175,note_on,77,0,0,,7,,,67,127
26250,note_off,75,0,0,,2,,,74,127
26252,note_on,2,0,0,,12,,,71,127
26327,note_off,75,0,0,,12,,,71,127
26329,note_on,2,0,0,,12,,,83,127
26404,note_off,75,0,0,,12,,,83,127
26406,note_on,2,0,0,,10,,,81,127
26481,note_off,75,0,0,,10,,,81,127
26481,note_off,0,0,0,,7,,,67,127
26483,note_on,2,0,0,,7,,,79,127
26483,note_on,0,0,0,,10,,,69,127
26558,note_off,75,0,0,,7,,,79,127
26560,note_on,2,0,0,,6,,,78,127
26635,note_off,75,0,0,,6,,,78,127
26637,note_on,2,0,0,,4,,,76,127
26712,note_off,75,0,0,,4,,,76,127
26714,note_on,2,0,0,,2,,,74,127
26789,note_off,75,0,0,,2,,,74,127
26789,note_off,0,0,0,,10,,,69,127
26791,note_on,2,0,0,,1,,,73,127
26791,note_on,0,0,0,,10,,,57,127
26866,note_off,75,0,0,,1,,,73,127
26868,note_on,2,0,0,,12,,,71,127
26943,note_off,75,0,0,,12,,,71,127
26945,note_on,2,0,0,,10,,,69,127
27020,note_off,75,0,0,,10,,,69,127
27022,note_on,2,0,0,,4,,,76,127
27097,note_off,75,0,0,,4,,,76,127
27097,note_off,0,0,0,,10,,,57,127
27099,note_on,2,0,0,,2,,,74,127
27099,note_on,0,0,0,,2,,,50,127
27174,note_off,75,0,0,,2,,,50,127
27176,note_on,2,0,0,,6,,,54,127
27251,note_off,75,0,0,,6,,,54,127
27253,note_on,2,0,0,,10,,,57,127
27328,note_off,75,0,0,,10,,,57,127
27330,note_on,2,0,0,,2,,,62,127
27405,note_off,75,0,0,,2,,,74,127
27407,note_on,2,0,0,,6,,,78,127
27482,note_off,75,0,0,,6,,,78,127
27484,note_on,2,0,0,,10,,,81,127
27559,note_off,75,0,0,,10,,,81,127
27561,note_on,2,0,0,,6,,,78,127
27636,note_off,75,0,0,,6,,,78,127
27638,note_on,2,0,0,,2,,,74,127
27713,note_off,75,0,0,,2,,,74,127
27715,note_on,2,0,0,,10,,,69,127
27790,note_off,75,0,0,,10,,,69,127
27792,note_on,2,0,0,,6,,,78,127
27867,note_off,75,0,0,,6,,,78,127
27869,note_on,2,0,0,,2,,,74,127
27944,note_off,75,0,0,,2,,,74,127
27946,note_on,2,0,0,,10,,,69,127
28021,note_off,75,0,0,,10,,,69,127
28021,note_off,0,0,0,,2,,,62,127
28023,note_on,2,0,0,,6,,,66,127
28023,note_on,0,0,0,,2,,,50,127
28098,note_off,75,0,0,,2,,,50,127
28100,note_on,2,0,0,,6,,,54,127
28175,note_off,75,0,0,,6,,,54,127
28177,note_on,2,0,0,,10,,,57,127
28252,note_off,75,0,0,,10,,,57,127
28254,note_on,2,0,0,,2,,,62,127
28329,note_off,75,0,0,,6,,,66,127
28331,note_on,2,0,0,,2,,,74,127
28406,note_off,75,0,0,,2,,,74,127
28408,note_on,2,0,0,,6,,,78,127
28483,note_off,75,0,0,,6,,,78,127
28485,note_on,2,0,0,,2,,,74,127
28560,note_off,75,0,0,,2,,,74,127
28562,note_on,2,0,0,,10,,,69,127
28637,note_off,75,0,0,,10,,,69,127
28639,note_on,2,0,0,,6,,,66,127
28714,note_off,75,0,0,,6,,,66,127
28716,note_on,2,0,0,,2,,,74,127
28791,note_off,75,0,0,,2,,,74,127
28793,note_on,2,0,0,,10,,,69,127
28868,note_off,75,0,0,,10,,,69,127
28870,note_on,2,0,0,,6,,,66,127
28945,note_off,75,0,0,,6,,,66,127
28945,note_off,0,0,0,,2,,,62,127
28947,note_on,2,0,0,,2,,,62,127
28947,note_on,0,0,0,,2,,,50,127
29022,note_off,75,0,0,,2,,,50,127
29024,note_on,2,0,0,,6,,,54,127
29099,note_off,75,0,0,,6,,,54,127
29101,note_on,2,0,0,,10,,,57,127
29176,note_off,75,0,0,,10,,,57,127
29176,note_off,0,0,0,,2,,,62,127
29178,note_on,2,0,0,,2,,,62,127
29255,note_on,77,0,0,,10,,,69,127
29330,note_off,75,0,0,,10,,,69,127
29332,note_on,2,0,0,,2,,,74,127
29407,note_off,75,0,0,,2,,,74,127
29409,note_on,2,0,0,,10,,,69,127
29484,note_off,75,0,0,,10,,,69,127
29486,note_on,2,0,0,,6,,,66,127
29556,note_off,70,0,0,,2,,,62,127
29561,note_off,5,0,0,,6,,,66,127
29563,note_on,2,0,0,,2,,,62,127
29638,note_off,75,0,0,,2,,,62,127
29640,note_on,2,0,0,,10,,,69,127
29715,note_off,75,0,0,,10,,,69,127
29717,note_on,2,0,0,,6,,,66,127
29792,note_off,75,0,0,,6,,,66,127
29794,note_on,2,0,0,,2,,,62,127
29869,note_off,75,0,0,,2,,,62,127
29871,note_on,2,0,0,,2,,,38,127
30791,note_off,920,0,0,,2,,,38,127
30793,note_on,2,0,0,,12,,,71,127
30793,note_on,0,0,0,,2,,,62,127
30793,note_on,0,0,0,,6,,,66,127
30868,note_off,75,0,0,,12,,,71,127
30870,note_on,2,0,0,,10,,,69,127
30945,note_off,75,0,0,,10,,,69,127
30947,note_on,2,0,0,,7,,,67,127
31022,note_off,75,0,0,,7,,,67,127
31024,note_on,2,0,0,,10,,,69,127
31099,note_off,75,0,0,,10,,,69,127
31099,note_off,0,0,0,,6,,,66,127
31101,note_on,2,0,0,,12,,,71,127
31101,note_on,0,0,0,,7,,,67,127
31407,note_off,306,0,0,,7,,,67,127
31407,note_off,0,0,0,,12,,,71,127
31407,note_off,0,0,0,,2,,,62,127
31409,note_on,2,0,0,,1,,,73,127
31409,note_on,0,0,0,,4,,,64,127
31715,note_off,306,0,0,,4,,,64,127
31715,note_off,0,0,0,,1,,,73,127
31717,note_on,2,0,0,,2,,,62,127
31794,note_on,77,0,0,,2,,,74,127
31869,note_off,75,0,0,,2,,,74,127
31871,note_on,2,0,0,,10,,,69,127
31946,note_off,75,0,0,,10,,,69,127
31948,note_on,2,0,0,,6,,,66,127
32023,note_off,75,0,0,,6,,,66,127
32023,note_off,0,0,0,,2,,,62,127
32025,note_on,2,0,0,,2,,,62,127
32100,note_off,75,0,0,,2,,,62,127
32102,note_on,2,0,0,,2,,,62,127
32179,note_on,77,0,0,,10,,,57,127
32254,note_off,75,0,0,,10,,,57,127
32254,note_off,0,0,0,,2,,,62,127
32256,note_on,2,0,0,,6,,,54,127
32331,note_off,75,0,0,,6,,,54,127
32333,note_on,2,0,0,,2,,,38,127
32639,note_off,306,0,0,,2,,,38,127
32641,note_on,2,0,0,,12,,,71,127
32641,note_on,0,0,0,,2,,,62,127
32641,note_on,0,0,0,,6,,,66,127
32716,note_off,75,0,0,,12,,,71,127
32718,note_on,2,0,0,,10,,,69,127
32793,note_off,75,0,0,,10,,,69,127
32795,note_on,2,0,0,,7,,,67,127
32870,note_off,75,0,0,,7,,,67,127
32872,note_on,2,0,0,,10,,,69,127
32947,note_off,75,0,0,,10,,,69,127
32947,note_off,0,0,0,,6,,,66,127
32949,note_on,2,0,0,,12,,,71,127
32949,note_on,0,0,0,,7,,,67,127
33255,note_off,306,0,0,,7,,,67,127
33255,note_off,0,0,0,,12,,,71,127
33255,note_off,0,0,0,,2,,,62,127
33257,note_on,2,0,0,,1,,,73,127
33257,note_on,0,0,0,,4,,,64,127
33563,note_off,306,0,0,,4,,,64,127
33563,note_off,0,0,0,,1,,,73,127
33565,note_on,2,0,0,,2,,,74,127
33565,note_on,0,0,0,,2,,,62,127
33640,note_off,75,0,0,,2,,,74,127
33642,note_on,2,0,0,,6,,,78,127
33717,note_off,75,0,0,,6,,,78,127
33719,note_on,2,0,0,,2,,,74,127
33794,note_off,75,0,0,,2,,,74,127
33796,note_on,2,0,0,,10,,,69,127
33871,note_off,75,0,0,,10,,,69,127
33873,note_on,2,0,0,,6,,,66,127
33948,note_off,75,0,0,,2,,,62,127
33950,note_on,2,0,0,,2,,,62,127
34025,note_off,75,0,0,,2,,,62,127
34027,note_off,2,0,0,,6,,,66,127
34027,note_on,0,0,0,,10,,,57,127
34102,note_off,75,0,0,,10,,,57,127
34104,note_on,2,0,0,,6,,,54,127
34179,note_off,75,0,0,,6,,,54,127
34181,note_on,2,0,0,,2,,,38,127
34487,note_off,306,0,0,,2,,,38,127
34489,note_on,2,0,0,,2,,,74,127
34489,note_on,0,0,0,,2,,,62,127
34641,note_off,152,0,0,,2,,,62,127
34641,note_off,0,0,0,,2,,,74,127
34643,note_on,2,0,0,,10,,,69,127
34643,note_on,0,0,0,,5,,,65,127
34795,note_off,152,0,0,,5,,,65,127
34795,note_off,0,0,0,,10,,,69,127
34797,note_on,2,0,0,,0,,,72,127
34797,note_on,0,0,0,,4,,,64,127
34949,note_off,152,0,0,,4,,,64,127
34949,note_off,0,0,0,,0,,,72,127
34951,note_on,2,0,0,,12,,,71,127
34951,note_on,0,0,0,,2,,,62,127
35103,note_off,152,0,0,,2,,,62,127
35103,note_off,0,0,0,,12,,,71,127
35105,note_on,2,0,0,,10,,,69,127
35105,note_on,0,0,0,,0,,,60,127
35257,note_off,152,0,0,,0,,,60,127
35257,note_off,0,0,0,,10,,,69,127
35259,note_on,2,0,0,,8,,,68,127
35259,note_on,0,0,0,,12,,,59,127
35411,note_off,152,0,0,,12,,,59,127
35411,note_off,0,0,0,,8,,,68,127
35413,note_on,2,0,0,,10,,,57,127
35490,note_on,77,0,0,,10,,,81,127
35565,note_off,75,0,0,,10,,,81,127
35567,note_on,2,0,0,,4,,,76,127
35642,note_off,75,0,0,,4,,,76,127
35644,note_on,2,0,0,,0,,,72,127
35719,note_off,75,0,0,,0,,,72,127
35721,note_on,2,0,0,,10,,,69,127
35796,note_off,75,0,0,,10,,,69,127
35796,note_off,0,0,0,,10,,,57,127
35798,note_on,2,0,0,,10,,,69,127
35875,note_on,77,0,0,,4,,,64,127
35950,note_off,75,0,0,,4,,,64,127
35950,note_off,0,0,0,,10,,,69,127
35952,note_on,2,0,0,,0,,,60,127
36027,note_off,75,0,0,,0,,,60,127
36029,note_on,2,0,0,,10,,,45,127
36335,note_off,306,0,0,,10,,,45,127
36337,note_on,2,0,0,,5,,,77,127
36337,note_on,0,0,0,,2,,,74,127
36337,note_on,0,0,0,,10,,,69,127
36412,note_off,75,0,0,,2,,,74,127
36412,note_off,0,0,0,,5,,,77,127
36414,note_on,2,0,0,,4,,,76,127
36414,note_on,0,0,0,,0,,,72,127
36489,note_off,75,0,0,,0,,,72,127
36489,note_off,0,0,0,,4,,,76,127
36491,note_on,2,0,0,,2,,,74,127
36491,note_on,0,0,0,,12,,,71,127
36566,note_off,75,0,0,,12,,,71,127
36566,note_off,0,0,0,,2,,,74,127
36568,note_on,2,0,0,,4,,,76,127
36568,note_on,0,0,0,,0,,,72,127
36643,note_off,75,0,0,,0,,,72,127
36643,note_off,0,0,0,,4,,,76,127
36645,note_on,2,0,0,,5,,,77,127
36645,note_on,0,0,0,,2,,,74,127
36951,note_off,306,0,0,,2,,,74,127
36951,note_off,0,0,0,,5,,,77,127
36951,note_off,0,0,0,,10,,,69,127
36953,note_on,2,0,0,,8,,,80,127
36953,note_on,0,0,0,,12,,,71,127
37259,note_off,306,0,0,,12,,,71,127
37259,note_off,0,0,0,,8,,,80,127
37261,note_on,2,0,0,,10,,,69,127
37338,note_on,77,0,0,,10,,,81,127
37413,note_off,75,0,0,,10,,,81,127
37415,note_on,2,0,0,,4,,,76,127
37490,note_off,75,0,0,,4,,,76,127
37492,note_on,2,0,0,,0,,,72,127
37567,note_off,75,0,0,,0,,,72,127
37567,note_off,0,0,0,,10,,,69,127
37569,note_on,2,0,0,,10,,,69,127
37644,note_off,75,0,0,,10,,,69,127
37646,note_on,2,0,0,,10,,,69,127
37723,note_on,77,0,0,,4,,,64,127
37798,note_off,75,0,0,,4,,,64,127
37798,note_off,0,0,0,,10,,,69,127
37800,note_on,2,0,0,,0,,,60,127
37875,note_off,75,0,0,,0,,,60,127
37877,note_on,2,0,0,,10,,,45,127
38183,note_off,306,0,0,,10,,,45,127
38185,note_on,2,0,0,,4,,,76,127
38185,note_on,0,0,0,,0,,,60,127
38337,note_off,152,0,0,,0,,,60,127
38337,note_off,0,0,0,,4,,,76,127
38339,note_on,2,0,0,,7,,,67,127
38339,note_on,0,0,0,,4,,,64,127
38491,note_off,152,0,0,,4,,,64,127
38491,note_off,0,0,0,,7,,,67,127
38493,note_on,2,0,0,,12,,,71,127
38493,note_on,0,0,0,,2,,,62,127
38645,note_off,152,0,0,,2,,,62,127
38645,note_off,0,0,0,,12,,,71,127
38647,note_on,2,0,0,,10,,,69,127
38647,note_on,0,0,0,,0,,,60,127
38799,note_off,152,0,0,,0,,,60,127
38799,note_off,0,0,0,,10,,,69,127
38801,note_on,2,0,0,,7,,,67,127
38801,note_on,0,0,0,,12,,,59,127
38953,note_off,152,0,0,,12,,,59,127
38953,note_off,0,0,0,,7,,,67,127
38955,note_on,2,0,0,,6,,,66,127
38955,note_on,0,0,0,,10,,,57,127
39107,note_off,152,0,0,,10,,,57,127
39107,note_off,0,0,0,,6,,,66,127
39109,note_on,2,0,0,,7,,,55,127
39186,note_on,77,0,0,,7,,,79,127
39261,note_off,75,0,0,,7,,,79,127
39263,note_on,2,0,0,,2,,,74,127
39338,note_off,75,0,0,,2,,,74,127
39340,note_on,2,0,0,,12,,,71,127
39415,note_off,75,0,0,,12,,,71,127
39417,note_on,2,0,0,,7,,,67,127
39492,note_off,75,0,0,,7,,,55,127
39494,note_on,2,0,0,,2,,,62,127
39569,note_off,75,0,0,,2,,,62,127
39571,note_on,2,0,0,,12,,,59,127
39646,note_off,75,0,0,,12,,,59,127
39648,note_on,2,0,0,,7,,,55,127
39723,note_off,75,0,0,,7,,,55,127
39723,note_off,0,0,0,,7,,,67,127
39725,note_on,2,0,0,,7,,,43,127
40031,note_off,306,0,0,,7,,,43,127
40033,note_on,2,0,0,,2,,,62,127
40033,note_on,0,0,0,,12,,,59,127
40185,note_off,152,0,0,,12,,,59,127
40185,note_off,0,0,0,,2,,,62,127
40187,note_on,2,0,0,,7,,,67,127
40187,note_on,0,0,0,,7,,,55,127
40339,note_off,152,0,0,,7,,,55,127
40339,note_off,0,0,0,,7,,,67,127
40341,note_on,2,0,0,,4,,,64,127
40341,note_on,0,0,0,,0,,,60,127
40493,note_off,152,0,0,,0,,,60,127
40493,note_off,0,0,0,,4,,,64,127
40495,note_on,2,0,0,,10,,,69,127
40495,note_on,0,0,0,,10,,,57,127
40647,note_off,152,0,0,,10,,,57,127
40647,note_off,0,0,0,,10,,,69,127
40649,note_on,2,0,0,,6,,,66,127
40649,note_on,0,0,0,,2,,,62,127
40801,note_off,152,0,0,,2,,,62,127
40801,note_off,0,0,0,,6,,,66,127
40803,note_on,2,0,0,,12,,,71,127
40803,note_on,0,0,0,,12,,,59,127
40955,note_off,152,0,0,,12,,,59,127
40955,note_off,0,0,0,,12,,,71,127
40957,note_on,2,0,0,,7,,,67,127
40957,note_on,0,0,0,,4,,,64,127
41109,note_off,152,0,0,,4,,,64,127
41109,note_off,0,0,0,,7,,,67,127
41111,note_on,2,0,0,,0,,,72,127
41111,note_on,0,0,0,,0,,,60,127
41263,note_off,152,0,0,,0,,,60,127
41263,note_off,0,0,0,,0,,,72,127
41265,note_on,2,0,0,,10,,,69,127
41265,note_on,0,0,0,,6,,,66,127
41417,note_off,152,0,0,,6,,,66,127
41417,note_off,0,0,0,,10,,,69,127
41419,note_on,2,0,0,,2,,,74,127
41419,note_on,0,0,0,,2,,,62,127
41571,note_off,152,0,0,,2,,,62,127
41571,note_off,0,0,0,,2,,,74,127
41573,note_on,2,0,0,,12,,,71,127
41573,note_on,0,0,0,,7,,,67,127
41725,note_off,152,0,0,,7,,,67,127
41725,note_off,0,0,0,,12,,,71,127
41727,note_on,2,0,0,,10,,,69,127
41727,note_on,0,0,0,,6,,,66,127
41879,note_off,152,0,0,,6,,,66,127
41879,note_off,0,0,0,,10,,,69,127
41881,note_on,2,0,0,,0,,,72,127
41881,note_on,0,0,0,,4,,,64,127
42033,note_off,152,0,0,,4,,,64,127
42033,note_off,0,0,0,,0,,,72,127
42035,note_on,2,0,0,,12,,,71,127
42035,note_on,0,0,0,,2,,,62,127
42187,note_off,152,0,0,,2,,,62,127
42187,note_off,0,0,0,,12,,,71,127
42189,note_on,2,0,0,,10,,,69,127
42189,note_on,0,0,0,,0,,,60,127
42341,note_off,152,0,0,,0,,,60,127
42341,note_off,0,0,0,,10,,,69,127
42343,note_on,2,0,0,,12,,,71,127
42343,note_on,0,0,0,,2,,,62,127
42495,note_off,152,0,0,,2,,,62,127
42495,note_off,0,0,0,,12,,,71,127
42497,note_on,2,0,0,,10,,,69,127
42497,note_on,0,0,0,,4,,,64,127
42649,note_off,152,0,0,,4,,,64,127
42649,note_off,0,0,0,,10,,,69,127
42651,note_on,2,0,0,,7,,,67,127
42651,note_on,0,0,0,,0,,,60,127
42803,note_off,152,0,0,,0,,,60,127
42803,note_off,0,0,0,,7,,,67,127
42805,note_on,2,0,0,,2,,,74,127
42805,note_on,0,0,0,,2,,,62,127
42959,note_on,154,0,0,,10,,,69,127
42959,note_on,0,0,0,,6,,,66,127
42997,note_off,38,0,0,,2,,,62,127
42997,note_off,0,0,0,,2,,,74,127
43111,note_off,114,0,0,,6,,,66,127
43111,note_off,0,0,0,,10,,,69,127
43113,note_on,2,0,0,,11,,,70,127
43113,note_on,0,0,0,,7,,,67,127
43265,note_off,152,0,0,,7,,,67,127
43265,note_off,0,0,0,,11,,,70,127
43267,note_on,2,0,0,,10,,,69,127
43267,note_on,0,0,0,,5,,,65,127
43419,note_off,152,0,0,,5,,,65,127
43419,note_off,0,0,0,,10,,,69,127
43421,note_on,2,0,0,,0,,,72,127
43421,note_on,0,0,0,,3,,,63,127
43573,note_off,152,0,0,,3,,,63,127
43573,note_off,0,0,0,,0,,,72,127
43575,note_on,2,0,0,,11,,,70,127
43575,note_on,0,0,0,,2,,,62,127
43727,note_off,152,0,0,,2,,,62,127
43727,note_off,0,0,0,,11,,,70,127
43729,note_on,2,0,0,,3,,,75,127
43729,note_on,0,0,0,,0,,,60,127
43883,note_on,154,0,0,,6,,,66,127
43883,note_on,0,0,0,,3,,,63,127
43921,note_off,38,0,0,,0,,,60,127
43921,note_off,0,0,0,,3,,,75,127
44035,note_off,114,0,0,,3,,,63,127
44035,note_off,0,0,0,,6,,,66,127
44037,note_on,2,0,0,,11,,,70,127
44037,note_on,0,0,0,,2,,,62,127
44189,note_off,152,0,0,,2,,,62,127
44189,note_off,0,0,0,,11,,,70,127
44191,note_on,2,0,0,,10,,,69,127
44191,note_on,0,0,0,,0,,,60,127
44343,note_off,152,0,0,,0,,,60,127
44343,note_off,0,0,0,,10,,,69,127
44345,note_on,2,0,0,,7,,,67,127
44345,note_on,0,0,0,,11,,,58,127
44497,note_off,152,0,0,,11,,,58,127
44497,note_off,0,0,0,,7,,,67,127
44499,note_on,2,0,0,,6,,,66,127
44499,note_on,0,0,0,,10,,,57,127
44651,note_off,152,0,0,,10,,,57,127
44651,note_off,0,0,0,,6,,,66,127
44653,note_on,2,0,0,,7,,,67,127
44653,note_on,0,0,0,,7,,,55,127
44805,note_off,152,0,0,,7,,,55,127
44807,note_on,2,0,0,,2,,,74,127
44807,note_on,0,0,0,,6,,,54,127
44845,note_off,38,0,0,,7,,,67,127
44959,note_off,114,0,0,,6,,,54,127
44959,note_off,0,0,0,,2,,,74,127
44961,note_on,2,0,0,,0,,,72,127
44961,note_on,0,0,0,,4,,,52,127
45113,note_off,152,0,0,,4,,,52,127
45113,note_off,0,0,0,,0,,,72,127
45115,note_on,2,0,0,,12,,,71,127
45115,note_on,0,0,0,,2,,,50,127
45267,note_off,152,0,0,,2,,,50,127
45267,note_off,0,0,0,,12,,,71,127
45269,note_on,2,0,0,,10,,,69,127
45269,note_on,0,0,0,,0,,,48,127
45421,note_off,152,0,0,,0,,,48,127
45421,note_off,0,0,0,,10,,,69,127
45423,note_on,2,0,0,,7,,,67,127
45423,note_on,0,0,0,,4,,,52,127
45575,note_off,152,0,0,,4,,,52,127
45575,note_off,0,0,0,,7,,,67,127
45577,note_on,2,0,0,,7,,,67,127
45577,note_on,0,0,0,,2,,,50,127
45652,note_off,75,0,0,,7,,,67,127
45654,note_on,2,0,0,,6,,,66,127
45729,note_off,75,0,0,,6,,,66,127
45729,note_off,0,0,0,,2,,,50,127
45731,note_on,2,0,0,,4,,,64,127
45731,note_on,0,0,0,,10,,,45,127
45806,note_off,75,0,0,,4,,,64,127
45808,note_on,2,0,0,,6,,,66,127
45883,note_off,75,0,0,,6,,,66,127
45883,note_off,0,0,0,,10,,,45,127
45885,note_on,2,0,0,,2,,,62,127
45885,note_on,0,0,0,,2,,,38,127
46498,note_off,613,0,0,,2,,,38,127
46498,note_off,0,0,0,,2,,,62,127
46500,note_on,2,0,0,,1,,,61,127
46575,note_off,75,0,0,,1,,,61,127
46577,note_on,2,0,0,,2,,,62,127
46652,note_off,75,0,0,,2,,,62,127
46654,note_on,2,0,0,,1,,,61,127
46729,note_off,75,0,0,,1,,,61,127
46731,note_on,2,0,0,,2,,,62,127
46806,note_off,75,0,0,,2,,,62,127
46808,note_on,2,0,0,,6,,,66,127
46883,note_off,75,0,0,,6,,,66,127
46885,note_on,2,0,0,,7,,,67,127
46960,note_off,75,0,0,,7,,,67,127
46962,note_on,2,0,0,,6,,,66,127
47037,note_off,75,0,0,,6,,,66,127
47039,note_on,2,0,0,,7,,,67,127
47114,note_off,75,0,0,,7,,,67,127
47116,note_on,2,0,0,,8,,,68,127
47191,note_off,75,0,0,,8,,,68,127
47193,note_on,2,0,0,,10,,,69,127
47268,note_off,75,0,0,,10,,,69,127
47270,note_on,2,0,0,,8,,,68,127
47345,note_off,75,0,0,,8,,,68,127
47347,note_on,2,0,0,,10,,,69,127
47422,note_off,75,0,0,,10,,,69,127
47424,note_on,2,0,0,,10,,,69,127
47424,note_on,0,0,0,,0,,,72,127
47424,note_on,0,0,0,,2,,,62,127
47730,note_off,306,0,0,,0,,,72,127
47730,note_off,0,0,0,,10,,,69,127
47732,note_on,2,0,0,,12,,,71,127
47732,note_on,0,0,0,,7,,,67,127
48038,note_off,306,0,0,,7,,,67,127
48038,note_off,0,0,0,,12,,,71,127
48040,note_on,2,0,0,,10,,,69,127
48040,note_on,0,0,0,,6,,,66,127
48346,note_off,306,0,0,,6,,,66,127
48346,note_off,0,0,0,,10,,,69,127
48346,note_off,0,0,0,,2,,,62,127
48348,note_on,2,0,0,,1,,,61,127
48423,note_off,75,0,0,,1,,,61,127
48425,note_on,2,0,0,,2,,,62,127
48500,note_off,75,0,0,,2,,,62,127
48502,note_on,2,0,0,,1,,,61,127
48577,note_off,75,0,0,,1,,,61,127
48579,note_on,2,0,0,,2,,,62,127
48654,note_off,75,0,0,,2,,,62,127
48656,note_on,2,0,0,,6,,,66,127
48731,note_off,75,0,0,,6,,,66,127
48733,note_on,2,0,0,,7,,,67,127
48808,note_off,75,0,0,,7,,,67,127
48810,note_on,2,0,0,,6,,,66,127
48885,note_off,75,0,0,,6,,,66,127
48887,note_on,2,0,0,,7,,,67,127
48962,note_off,75,0,0,,7,,,67,127
48964,note_on,2,0,0,,8,,,68,127
49039,note_off,75,0,0,,8,,,68,127
49041,note_on,2,0,0,,10,,,69,127
49116,note_off,75,0,0,,10,,,69,127
49118,note_on,2,0,0,,8,,,68,127
49193,note_off,75,0,0,,8,,,68,127
49195,note_on,2,0,0,,10,,,69,127
49270,note_off,75,0,0,,10,,,69,127
49272,note_on,2,0,0,,12,,,71,127
49272,note_on,0,0,0,,2,,,74,127
49272,note_on,0,0,0,,2,,,62,127
49578,note_off,306,0,0,,2,,,74,127
49578,note_off,0,0,0,,12,,,71,127
49580,note_on,2,0,0,,0,,,72,127
49580,note_on,0,0,0,,10,,,69,127
49886,note_off,306,0,0,,10,,,69,127
49886,note_off,0,0,0,,0,,,72,127
49888,note_on,2,0,0,,7,,,67,127
49888,note_on,0,0,0,,12,,,71,127
50194,note_off,306,0,0,,12,,,71,127
50194,note_off,0,0,0,,7,,,67,127
50194,note_off,0,0,0,,2,,,62,127
50196,note_on,2,0,0,,1,,,61,127
50271,note_off,75,0,0,,1,,,61,127
50273,note_on,2,0,0,,2,,,62,127
50348,note_off,75,0,0,,2,,,62,127
50350,note_on,2,0,0,,1,,,61,127
50425,note_off,75,0,0,,1,,,61,127
50427,note_on,2,0,0,,2,,,62,127
50502,note_off,75,0,0,,2,,,62,127
50504,note_on,2,0,0,,6,,,66,127
50579,note_off,75,0,0,,6,,,66,127
50581,note_on,2,0,0,,7,,,67,127
50656,note_off,75,0,0,,7,,,67,127
50658,note_on,2,0,0,,6,,,66,127
50733,note_off,75,0,0,,6,,,66,127
50735,note_on,2,0,0,,7,,,67,127
50810,note_off,75,0,0,,7,,,67,127
50812,note_on,2,0,0,,8,,,68,127
50887,note_off,75,0,0,,8,,,68,127
50889,note_on,2,0,0,,10,,,69,127
50964,note_off,75,0,0,,10,,,69,127
50966,note_on,2,0,0,,8,,,68,127
51041,note_off,75,0,0,,8,,,68,127
51043,note_on,2,0,0,,10,,,69,127
51118,note_off,75,0,0,,10,,,69,127
51120,note_on,2,0,0,,4,,,76,127
51120,note_on,0,0,0,,0,,,72,127
51120,note_on,0,0,0,,2,,,62,127
51426,note_off,306,0,0,,0,,,72,127
51426,note_off,0,0,0,,4,,,76,127
51428,note_on,2,0,0,,12,,,71,127
51428,note_on,0,0,0,,2,,,74,127
51734,note_off,306,0,0,,2,,,74,127
51734,note_off,0,0,0,,12,,,71,127
51736,note_on,2,0,0,,0,,,72,127
51736,note_on,0,0,0,,10,,,69,127
52042,note_off,306,0,0,,10,,,69,127
52042,note_off,0,0,0,,0,,,72,127
52044,note_on,2,0,0,,12,,,71,127
52044,note_on,0,0,0,,7,,,67,127
52350,note_off,306,0,0,,7,,,67,127
52350,note_off,0,0,0,,12,,,71,127
52352,note_on,2,0,0,,7,,,67,127
52352,note_on,0,0,0,,12,,,71,127
52403,note_on,51,0,0,,10,,,69,127
52403,note_on,0,0,0,,6,,,66,127
52427,note_off,24,0,0,,12,,,71,127
52427,note_off,0,0,0,,7,,,67,127
52454,note_on,27,0,0,,12,,,71,127
52454,note_on,0,0,0,,7,,,67,127
52478,note_off,24,0,0,,6,,,66,127
52478,note_off,0,0,0,,10,,,69,127
52505,note_on,27,0,0,,10,,,69,127
52505,note_on,0,0,0,,6,,,66,127
52529,note_off,24,0,0,,7,,,67,127
52529,note_off,0,0,0,,12,,,71,127
52887,note_off,358,0,0,,6,,,66,127
52887,note_off,0,0,0,,10,,,69,127
52964,note_off,77,0,0,,2,,,62,127
53119,note_on,155,0,0,,6,,,54,127
53194,note_off,75,0,0,,6,,,54,127
53196,note_on,2,0,0,,7,,,55,127
53271,note_off,75,0,0,,7,,,55,127
53273,note_on,2,0,0,,6,,,54,127
53348,note_off,75,0,0,,6,,,54,127
53350,note_on,2,0,0,,7,,,55,127
53425,note_off,75,0,0,,7,,,55,127
53427,note_on,2,0,0,,8,,,56,127
53502,note_off,75,0,0,,8,,,56,127
53504,note_on,2,0,0,,10,,,57,127
53579,note_off,75,0,0,,10,,,57,127
53581,note_on,2,0,0,,8,,,56,127
53656,note_off,75,0,0,,8,,,56,127
53658,note_on,2,0,0,,10,,,57,127
53733,note_off,75,0,0,,10,,,57,127
53735,note_on,2,0,0,,11,,,58,127
53810,note_off,75,0,0,,11,,,58,127
53812,note_on,2,0,0,,12,,,59,127
53887,note_off,75,0,0,,12,,,59,127
53889,note_on,2,0,0,,11,,,58,127
53964,note_off,75,0,0,,11,,,58,127
53966,note_on,2,0,0,,12,,,59,127
54041,note_off,75,0,0,,12,,,59,127
54043,note_on,2,0,0,,1,,,61,127
54118,note_off,75,0,0,,1,,,61,127
54120,note_on,2,0,0,,2,,,62,127
54195,note_off,75,0,0,,2,,,62,127
54197,note_on,2,0,0,,1,,,61,127
54272,note_off,75,0,0,,1,,,61,127
54274,note_on,2,0,0,,2,,,62,127
54349,note_off,75,0,0,,2,,,62,127
54351,note_on,2,0,0,,3,,,63,127
54426,note_off,75,0,0,,3,,,63,127
54428,note_on,2,0,0,,4,,,64,127
54503,note_off,75,0,0,,4,,,64,127
54505,note_on,2,0,0,,3,,,63,127
54580,note_off,75,0,0,,3,,,63,127
54582,note_on,2,0,0,,4,,,64,127
54657,note_off,75,0,0,,4,,,64,127
54659,note_on,2,0,0,,6,,,66,127
54734,note_off,75,0,0,,6,,,66,127
54736,note_on,2,0,0,,7,,,67,127
54811,note_off,75,0,0,,7,,,67,127
54813,note_on,2,0,0,,6,,,66,127
54888,note_off,75,0,0,,6,,,66,127
54890,note_on,2,0,0,,7,,,67,127
54967,note_on,77,0,0,,0,,,60,127
55042,note_off,75,0,0,,7,,,67,127
55044,note_on,2,0,0,,4,,,64,127
55119,note_off,75,0,0,,4,,,64,127
55121,note_on,2,0,0,,4,,,76,127
55196,note_off,75,0,0,,4,,,76,127
55198,note_on,2,0,0,,2,,,74,127
55273,note_off,75,0,0,,2,,,74,127
55273,note_off,0,0,0,,0,,,60,127
55275,note_on,2,0,0,,2,,,62,127
55275,note_on,0,0,0,,0,,,72,127
55350,note_off,75,0,0,,0,,,72,127
55352,note_on,2,0,0,,12,,,71,127
55427,note_off,75,0,0,,12,,,71,127
55429,note_on,2,0,0,,10,,,69,127
55504,note_off,75,0,0,,10,,,69,127
55506,note_on,2,0,0,,7,,,67,127
55581,note_off,75,0,0,,7,,,67,127
55581,note_off,0,0,0,,2,,,62,127
55583,note_on,2,0,0,,2,,,50,127
55583,note_on,0,0,0,,6,,,66,127
55658,note_off,75,0,0,,6,,,66,127
55660,note_on,2,0,0,,4,,,64,127
55735,note_off,75,0,0,,4,,,64,127
55737,note_on,2,0,0,,2,,,62,127
55812,note_off,75,0,0,,2,,,62,127
55814,note_on,2,0,0,,10,,,69,127
55889,note_off,75,0,0,,10,,,69,127
55889,note_off,0,0,0,,2,,,50,127
55891,note_on,2,0,0,,7,,,43,127
55968,note_on,77,0,0,,7,,,67,127
56043,note_off,75,0,0,,7,,,67,127
56045,note_on,2,0,0,,6,,,66,127
56120,note_off,75,0,0,,6,,,66,127
56122,note_on,2,0,0,,4,,,64,127
56197,note_off,75,0,0,,4,,,64,127
56199,note_on,2,0,0,,2,,,62,127
56274,note_off,75,0,0,,2,,,62,127
56276,note_on,2,0,0,,0,,,60,127
56351,note_off,75,0,0,,0,,,60,127
56353,note_on,2,0,0,,12,,,59,127
56428,note_off,75,0,0,,12,,,59,127
56430,note_on,2,0,0,,10,,,57,127
56505,note_off,75,0,0,,10,,,57,127
56507,note_on,2,0,0,,7,,,55,127
56582,note_off,75,0,0,,7,,,43,127
56584,note_on,2,0,0,,12,,,47,127
56659,note_off,75,0,0,,12,,,47,127
56661,note_on,2,0,0,,2,,,50,127
56736,note_off,75,0,0,,2,,,50,127
56736,note_off,0,0,0,,7,,,55,127
56738,note_on,2,0,0,,7,,,55,127
56813,note_off,75,0,0,,7,,,55,127
56815,note_on,2,0,0,,6,,,54,127
56890,note_off,75,0,0,,6,,,54,127
56892,note_on,2,0,0,,7,,,55,127
56967,note_off,75,0,0,,7,,,55,127
56969,note_on,2,0,0,,6,,,54,127
57044,note_off,75,0,0,,6,,,54,127
57046,note_on,2,0,0,,7,,,55,127
57121,note_off,75,0,0,,7,,,55,127
57123,note_on,2,0,0,,8,,,56,127
57198,note_off,75,0,0,,8,,,56,127
57200,note_on,2,0,0,,10,,,57,127
57275,note_off,75,0,0,,10,,,57,127
57277,note_on,2,0,0,,8,,,56,127
57352,note_off,75,0,0,,8,,,56,127
57354,note_on,2,0,0,,10,,,57,127
57429,note_off,75,0,0,,10,,,57,127
57431,note_on,2,0,0,,11,,,58,127
57506,note_off,75,0,0,,11,,,58,127
57508,note_on,2,0,0,,12,,,59,127
57583,note_off,75,0,0,,12,,,59,127
57585,note_on,2,0,0,,11,,,58,127
57660,note_off,75,0,0,,11,,,58,127
57662,note_on,2,0,0,,12,,,59,127
57737,note_off,75,0,0,,12,,,59,127
57739,note_on,2,0,0,,1,,,61,127
57814,note_off,75,0,0,,1,,,61,127
57816,note_on,2,0,0,,2,,,62,127
57891,note_off,75,0,0,,2,,,62,127
57893,note_on,2,0,0,,1,,,61,127
57968,note_off,75,0,0,,1,,,61,127
57970,note_on,2,0,0,,2,,,62,127
58045,note_off,75,0,0,,2,,,62,127
58047,note_on,2,0,0,,3,,,63,127
58122,note_off,75,0,0,,3,,,63,127
58124,note_on,2,0,0,,4,,,64,127
58199,note_off,75,0,0,,4,,,64,127
58201,note_on,2,0,0,,3,,,63,127
58276,note_off,75,0,0,,3,,,63,127
58278,note_on,2,0,0,,4,,,64,127
58353,note_off,75,0,0,,4,,,64,127
58355,note_on,2,0,0,,6,,,66,127
58430,note_off,75,0,0,,6,,,66,127
58432,note_on,2,0,0,,7,,,67,127
58507,note_off,75,0,0,,7,,,67,127
58509,note_on,2,0,0,,6,,,66,127
58584,note_off,75,0,0,,6,,,66,127
58586,note_on,2,0,0,,7,,,67,127
58663,note_on,77,0,0,,0,,,60,127
58738,note_off,75,0,0,,7,,,67,127
58740,note_on,2,0,0,,4,,,64,127
58815,note_off,75,0,0,,4,,,64,127
58817,note_on,2,0,0,,4,,,76,127
58892,note_off,75,0,0,,4,,,76,127
58894,note_on,2,0,0,,2,,,74,127
58969,note_off,75,0,0,,2,,,74,127
58969,note_off,0,0,0,,0,,,60,127
58971,note_on,2,0,0,,2,,,62,127
58971,note_on,0,0,0,,0,,,72,127
59046,note_off,75,0,0,,0,,,72,127
59048,note_on,2,0,0,,12,,,71,127
59123,note_off,75,0,0,,12,,,71,127
59125,note_on,2,0,0,,10,,,69,127
59200,note_off,75,0,0,,10,,,69,127
59202,note_on,2,0,0,,7,,,67,127
59277,note_off,75,0,0,,7,,,67,127
59277,note_off,0,0,0,,2,,,62,127
59279,note_on,2,0,0,,2,,,50,127
59279,note_on,0,0,0,,6,,,66,127
59354,note_off,75,0,0,,6,,,66,127
59356,note_on,2,0,0,,4,,,64,127
59431,note_off,75,0,0,,4,,,64,127
59433,note_on,2,0,0,,2,,,62,127
59508,note_off,75,0,0,,2,,,62,127
59510,note_on,2,0,0,,10,,,69,127
59585,note_off,75,0,0,,10,,,69,127
59585,note_off,0,0,0,,2,,,50,127
59587,note_on,2,0,0,,7,,,43,127
59587,note_on,0,0,0,,7,,,67,127
59662,note_off,75,0,0,,7,,,43,127
59664,note_on,2,0,0,,12,,,47,127
59739,note_off,75,0,0,,12,,,47,127
59741,note_on,2,0,0,,2,,,50,127
59816,note_off,75,0,0,,2,,,50,127
59818,note_on,2,0,0,,7,,,55,127
59893,note_off,75,0,0,,7,,,67,127
59895,note_on,2,0,0,,7,,,79,127
59970,note_off,75,0,0,,7,,,79,127
59972,note_on,2,0,0,,12,,,83,127
60047,note_off,75,0,0,,12,,,83,127
60049,note_on,2,0,0,,7,,,79,127
60124,note_off,75,0,0,,7,,,79,127
60126,note_on,2,0,0,,2,,,74,127
60201,note_off,75,0,0,,2,,,74,127
60203,note_on,2,0,0,,12,,,71,127
60278,note_off,75,0,0,,12,,,71,127
60280,note_on,2,0,0,,7,,,79,127
60355,note_off,75,0,0,,7,,,79,127
60357,note_on,2,0,0,,2,,,74,127
60432,note_off,75,0,0,,2,,,74,127
60434,note_on,2,0,0,,12,,,71,127
60509,note_off,75,0,0,,12,,,71,127
60509,note_off,0,0,0,,7,,,55,127
60511,note_on,2,0,0,,7,,,43,127
60511,note_on,0,0,0,,7,,,67,127
60586,note_off,75,0,0,,7,,,43,127
60588,note_on,2,0,0,,12,,,47,127
60663,note_off,75,0,0,,12,,,47,127
60665,note_on,2,0,0,,2,,,50,127
60740,note_off,75,0,0,,2,,,50,127
60742,note_on,2,0,0,,7,,,55,127
60817,note_off,75,0,0,,7,,,67,127
60819,note_on,2,0,0,,2,,,74,127
60894,note_off,75,0,0,,2,,,74,127
60896,note_on,2,0,0,,7,,,79,127
60971,note_off,75,0,0,,7,,,79,127
60973,note_on,2,0,0,,2,,,74,127
61048,note_off,75,0,0,,2,,,74,127
61050,note_on,2,0,0,,12,,,71,127
61125,note_off,75,0,0,,12,,,71,127
61127,note_on,2,0,0,,7,,,67,127
61202,note_off,75,0,0,,7,,,67,127
61204,note_on,2,0,0,,2,,,74,127
61279,note_off,75,0,0,,2,,,74,127
61281,note_on,2,0,0,,12,,,71,127
61356,note_off,75,0,0,,12,,,71,127
61358,note_on,2,0,0,,7,,,67,127
61433,note_off,75,0,0,,7,,,67,127
61433,note_off,0,0,0,,7,,,55,127
61435,note_on,2,0,0,,7,,,43,127
61435,note_on,0,0,0,,2,,,62,127
61510,note_off,75,0,0,,7,,,43,127
61512,note_on,2,0,0,,12,,,47,127
61587,note_off,75,0,0,,12,,,47,127
61589,note_on,2,0,0,,2,,,50,127
61664,note_off,75,0,0,,2,,,50,127
61666,note_on,2,0,0,,7,,,55,127
61741,note_off,75,0,0,,2,,,62,127
61743,note_on,2,0,0,,7,,,67,127
61818,note_off,75,0,0,,7,,,67,127
61820,note_on,2,0,0,,12,,,71,127
61895,note_off,75,0,0,,12,,,71,127
61897,note_on,2,0,0,,7,,,67,127
61972,note_off,75,0,0,,7,,,67,127
61974,note_on,2,0,0,,2,,,62,127
62049,note_off,75,0,0,,2,,,62,127
62051,note_on,2,0,0,,12,,,59,127
62126,note_off,75,0,0,,12,,,59,127
62128,note_on,2,0,0,,7,,,67,127
62203,note_off,75,0,0,,7,,,67,127
62205,note_on,2,0,0,,2,,,62,127
62280,note_off,75,0,0,,2,,,62,127
62282,note_on,2,0,0,,12,,,59,127
62356,note_off,74,0,0,,12,,,59,127
62358,note_off,2,0,0,,7,,,55,127
62360,note_on,2,0,0,,7,,,43,127
64202,note_off,1842,0,0,,7,,,43,127
67584,end_of_track,3382,1,0,,,,,,
