tick,type,time,meta,track,program,channel,pitch,tempo,note,velocity
0,copyright,0,1,0,,,,,,
0,program_change,0,0,0,6,0,,,,
0,pitchwheel,0,0,0,,0,0,,,
0,program_change,0,0,0,6,1,,,,
0,pitchwheel,0,0,0,,1,-590,,,
0,program_change,0,0,0,6,2,,,,
0,pitchwheel,0,0,0,,2,-272,,,
0,program_change,0,0,0,6,3,,,,
0,pitchwheel,0,0,0,,3,-353,,,
0,program_change,0,0,0,6,4,,,,
0,pitchwheel,0,0,0,,4,-560,,,
0,program_change,0,0,0,6,5,,,,
0,pitchwheel,0,0,0,,5,-80,,,
0,program_change,0,0,0,6,6,,,,
0,pitchwheel,0,0,0,,6,-625,,,
0,program_change,0,0,0,6,7,,,,
0,pitchwheel,0,0,0,,7,-130,,,
0,program_change,0,0,0,6,8,,,,
0,pitchwheel,0,0,0,,8,-512,,,
0,program_change,0,0,0,6,10,,,,
0,pitchwheel,0,0,0,,10,-464,,,
0,program_change,0,0,0,6,11,,,,
0,pitchwheel,0,0,0,,11,-208,,,
0,program_change,0,0,0,6,12,,,,
0,pitchwheel,0,0,0,,12,-553,,,
0,set_tempo,0,1,0,,,,500000,,
100,note_on,100,0,0,,7,,,67,127
100,note_on,0,0,0,,4,,,64,127
100,note_on,0,0,0,,7,,,79,127
100,note_on,0,0,0,,4,,,76,127
100,note_on,0,0,0,,12,,,71,127
100,note_on,0,0,0,,12,,,83,127
298,note_off,198,0,0,,12,,,83,127
300,note_on,2,0,0,,0,,,84,127
498,note_off,198,0,0,,0,,,84,127
500,note_on,2,0,0,,12,,,83,127
698,note_off,198,0,0,,12,,,83,127
698,note_off,0,0,0,,4,,,64,127
698,note_off,0,0,0,,7,,,67,127
699,note_off,1,0,0,,12,,,71,127
699,note_off,0,0,0,,4,,,76,127
699,note_off,0,0,0,,7,,,79,127
700,note_on,1,0,0,,10,,,69,127
700,note_on,0,0,0,,6,,,66,127
700,note_on,0,0,0,,3,,,75,127
898,note_off,198,0,0,,3,,,75,127
898,note_off,0,0,0,,6,,,66,127
898,note_off,0,0,0,,10,,,69,127
900,note_on,2,0,0,,7,,,67,127
900,note_on,0,0,0,,12,,,71,127
900,note_on,0,0,0,,4,,,76,127
1098,note_off,198,0,0,,4,,,76,127
1098,note_off,0,0,0,,12,,,71,127
1098,note_off,0,0,0,,7,,,67,127
1100,note_on,2,0,0,,6,,,66,127
1100,note_on,0,0,0,,10,,,69,127
1100,note_on,0,0,0,,6,,,78,127
1298,note_off,198,0,0,,6,,,78,127
1298,note_off,0,0,0,,10,,,69,127
1298,note_off,0,0,0,,6,,,66,127
1300,note_on,2,0,0,,4,,,64,127
1300,note_on,0,0,0,,7,,,67,127
1300,note_on,0,0,0,,7,,,79,127
1500,note_on,200,0,0,,12,,,71,127
1698,note_off,198,0,0,,12,,,71,127
1698,note_off,0,0,0,,7,,,67,127
1700,note_on,2,0,0,,10,,,69,127
1700,note_on,0,0,0,,0,,,72,127
1898,note_off,198,0,0,,0,,,72,127
1900,note_on,2,0,0,,12,,,71,127
2096,note_off,196,0,0,,10,,,69,127
2099,note_off,3,0,0,,7,,,79,127
2099,note_off,0,0,0,,4,,,64,127
2100,note_on,1,0,0,,3,,,63,127
2100,note_on,0,0,0,,6,,,78,127
2298,note_off,198,0,0,,6,,,78,127
2300,note_on,2,0,0,,6,,,66,127
2300,note_on,0,0,0,,10,,,81,127
2498,note_off,198,0,0,,10,,,81,127
2498,note_off,0,0,0,,6,,,66,127
2499,note_off,1,0,0,,3,,,63,127
2499,note_off,0,0,0,,12,,,71,127
2500,note_on,1,0,0,,7,,,67,127
2500,note_on,0,0,0,,4,,,64,127
2500,note_on,0,0,0,,7,,,79,127
2698,note_off,198,0,0,,4,,,64,127
2698,note_off,0,0,0,,7,,,67,127
2700,note_on,2,0,0,,10,,,69,127
2700,note_on,0,0,0,,6,,,66,127
2700,note_on,0,0,0,,3,,,75,127
2898,note_off,198,0,0,,3,,,75,127
2898,note_off,0,0,0,,6,,,66,127
2898,note_off,0,0,0,,10,,,69,127
2900,note_on,2,0,0,,7,,,67,127
2900,note_on,0,0,0,,12,,,71,127
2900,note_on,0,0,0,,4,,,64,127
2900,note_on,0,0,0,,4,,,76,127
3098,note_off,198,0,0,,4,,,76,127
3099,note_off,1,0,0,,12,,,71,127
3100,note_on,1,0,0,,12,,,71,127
3298,note_off,198,0,0,,12,,,71,127
3298,note_off,0,0,0,,7,,,67,127
3300,note_on,2,0,0,,10,,,69,127
3300,note_on,0,0,0,,0,,,72,127
3498,note_off,198,0,0,,0,,,72,127
3500,note_on,2,0,0,,12,,,71,127
3696,note_off,196,0,0,,10,,,69,127
3699,note_off,3,0,0,,4,,,64,127
3699,note_off,0,0,0,,7,,,79,127
3700,note_on,1,0,0,,3,,,63,127
3700,note_on,0,0,0,,6,,,78,127
3898,note_off,198,0,0,,6,,,78,127
3900,note_on,2,0,0,,6,,,66,127
3900,note_on,0,0,0,,10,,,81,127
4098,note_off,198,0,0,,10,,,81,127
4098,note_off,0,0,0,,6,,,66,127
4099,note_off,1,0,0,,3,,,63,127
4099,note_off,0,0,0,,12,,,71,127
4100,note_on,1,0,0,,7,,,67,127
4100,note_on,0,0,0,,4,,,64,127
4100,note_on,0,0,0,,7,,,79,127
4298,note_off,198,0,0,,4,,,64,127
4298,note_off,0,0,0,,7,,,67,127
4300,note_on,2,0,0,,6,,,66,127
4300,note_on,0,0,0,,10,,,69,127
4300,note_on,0,0,0,,3,,,75,127
4498,note_off,198,0,0,,3,,,75,127
4498,note_off,0,0,0,,10,,,69,127
4498,note_off,0,0,0,,6,,,66,127
4500,note_on,2,0,0,,7,,,67,127
4500,note_on,0,0,0,,4,,,76,127
4699,note_off,199,0,0,,7,,,79,127
4700,note_on,1,0,0,,0,,,60,127
4700,note_on,0,0,0,,10,,,81,127
4898,note_off,198,0,0,,10,,,81,127
4898,note_off,0,0,0,,0,,,60,127
4899,note_off,1,0,0,,4,,,76,127
4899,note_off,0,0,0,,7,,,67,127
4900,note_on,1,0,0,,2,,,62,127
4900,note_on,0,0,0,,6,,,78,127
5100,note_on,200,0,0,,6,,,66,127
5100,note_on,0,0,0,,10,,,69,127
5298,note_off,198,0,0,,10,,,69,127
5298,note_off,0,0,0,,6,,,66,127
5300,note_on,2,0,0,,7,,,67,127
5300,note_on,0,0,0,,12,,,71,127
5484,note_off,184,0,0,,2,,,62,127
5500,note_off,16,0,0,,6,,,78,127
5501,note_on,1,0,0,,12,,,59,127
5501,note_on,0,0,0,,3,,,75,127
5699,note_off,198,0,0,,3,,,75,127
5699,note_off,0,0,0,,12,,,59,127
5700,note_off,1,0,0,,7,,,67,127
5701,note_on,1,0,0,,0,,,60,127
5701,note_on,0,0,0,,4,,,76,127
5900,note_off,199,0,0,,12,,,71,127
5901,note_on,1,0,0,,4,,,64,127
5901,note_on,0,0,0,,7,,,67,127
6099,note_off,198,0,0,,7,,,67,127
6099,note_off,0,0,0,,4,,,64,127
6101,note_on,2,0,0,,6,,,66,127
6101,note_on,0,0,0,,10,,,69,127
6285,note_off,184,0,0,,0,,,60,127
6301,note_off,16,0,0,,4,,,76,127
6302,note_on,1,0,0,,10,,,57,127
6302,note_on,0,0,0,,1,,,73,127
6500,note_off,198,0,0,,1,,,73,127
6500,note_off,0,0,0,,10,,,57,127
6501,note_off,1,0,0,,6,,,66,127
6502,note_on,1,0,0,,12,,,59,127
6502,note_on,0,0,0,,2,,,74,127
6701,note_off,199,0,0,,10,,,69,127
6702,note_on,1,0,0,,2,,,62,127
6702,note_on,0,0,0,,6,,,66,127
6900,note_off,198,0,0,,6,,,66,127
6900,note_off,0,0,0,,2,,,62,127
6902,note_on,2,0,0,,4,,,64,127
6902,note_on,0,0,0,,7,,,67,127
7086,note_off,184,0,0,,12,,,59,127
7102,note_off,16,0,0,,2,,,74,127
7103,note_on,1,0,0,,7,,,55,127
7103,note_on,0,0,0,,12,,,71,127
7301,note_off,198,0,0,,12,,,71,127
7301,note_off,0,0,0,,7,,,55,127
7303,note_on,2,0,0,,10,,,57,127
7303,note_on,0,0,0,,0,,,72,127
7502,note_off,199,0,0,,7,,,67,127
7502,note_off,0,0,0,,4,,,64,127
7503,note_on,1,0,0,,0,,,60,127
7503,note_on,0,0,0,,4,,,64,127
7701,note_off,198,0,0,,4,,,64,127
7701,note_off,0,0,0,,0,,,60,127
7703,note_on,2,0,0,,2,,,62,127
7703,note_on,0,0,0,,6,,,66,127
7887,note_off,184,0,0,,10,,,57,127
7903,note_off,16,0,0,,0,,,72,127
7904,note_on,1,0,0,,6,,,54,127
7904,note_on,0,0,0,,10,,,69,127
8102,note_off,198,0,0,,10,,,69,127
8102,note_off,0,0,0,,6,,,54,127
8104,note_on,2,0,0,,7,,,55,127
8104,note_on,0,0,0,,12,,,71,127
8303,note_off,199,0,0,,6,,,66,127
8303,note_off,0,0,0,,2,,,62,127
8304,note_on,1,0,0,,12,,,59,127
8304,note_on,0,0,0,,3,,,63,127
8502,note_off,198,0,0,,3,,,63,127
8502,note_off,0,0,0,,12,,,59,127
8504,note_on,2,0,0,,0,,,60,127
8504,note_on,0,0,0,,4,,,64,127
8688,note_off,184,0,0,,7,,,55,127
8704,note_off,16,0,0,,12,,,71,127
8705,note_on,1,0,0,,4,,,52,127
8705,note_on,0,0,0,,8,,,68,127
8903,note_off,198,0,0,,8,,,68,127
8903,note_off,0,0,0,,4,,,52,127
8905,note_on,2,0,0,,6,,,54,127
8905,note_on,0,0,0,,10,,,69,127
9104,note_off,199,0,0,,4,,,64,127
9104,note_off,0,0,0,,0,,,60,127
9105,note_on,1,0,0,,10,,,57,127
9105,note_on,0,0,0,,1,,,61,127
9303,note_off,198,0,0,,1,,,61,127
9303,note_off,0,0,0,,10,,,57,127
9305,note_on,2,0,0,,12,,,59,127
9305,note_on,0,0,0,,3,,,63,127
9489,note_off,184,0,0,,6,,,54,127
9505,note_off,16,0,0,,10,,,69,127
9506,note_on,1,0,0,,12,,,47,127
9506,note_on,0,0,0,,6,,,66,127
9704,note_off,198,0,0,,6,,,66,127
9704,note_off,0,0,0,,12,,,47,127
9705,note_off,1,0,0,,3,,,63,127
9705,note_off,0,0,0,,12,,,59,127
9706,note_on,1,0,0,,4,,,52,127
9706,note_on,0,0,0,,7,,,67,127
9904,note_off,198,0,0,,4,,,52,127
9906,note_on,2,0,0,,12,,,59,127
9906,note_on,0,0,0,,10,,,69,127
10104,note_off,198,0,0,,10,,,69,127
10104,note_off,0,0,0,,12,,,59,127
10106,note_on,2,0,0,,2,,,50,127
10106,note_on,0,0,0,,12,,,71,127
10304,note_off,198,0,0,,2,,,50,127
10305,note_off,1,0,0,,7,,,67,127
10306,note_on,1,0,0,,12,,,59,127
10306,note_on,0,0,0,,6,,,66,127
10504,note_off,198,0,0,,6,,,66,127
10504,note_off,0,0,0,,12,,,59,127
10506,note_on,2,0,0,,2,,,50,127
10506,note_on,0,0,0,,4,,,64,127
10571,note_off,65,0,0,,2,,,50,127
10573,note_on,2,0,0,,0,,,48,127
10638,note_off,65,0,0,,0,,,48,127
10640,note_on,2,0,0,,2,,,50,127
10705,note_off,65,0,0,,2,,,50,127
10705,note_off,0,0,0,,4,,,64,127
10707,note_on,2,0,0,,0,,,48,127
10707,note_on,0,0,0,,7,,,67,127
10772,note_off,65,0,0,,0,,,48,127
10774,note_on,2,0,0,,2,,,50,127
10839,note_off,65,0,0,,2,,,50,127
10841,note_on,2,0,0,,0,,,48,127
10906,note_off,65,0,0,,0,,,48,127
10906,note_off,0,0,0,,7,,,67,127
10907,note_off,1,0,0,,12,,,71,127
10908,note_on,1,0,0,,2,,,50,127
10908,note_on,0,0,0,,6,,,66,127
10908,note_on,0,0,0,,10,,,69,127
10973,note_off,65,0,0,,2,,,50,127
10975,note_on,2,0,0,,0,,,48,127
11040,note_off,65,0,0,,0,,,48,127
11042,note_on,2,0,0,,2,,,50,127
11107,note_off,65,0,0,,2,,,50,127
11107,note_off,0,0,0,,6,,,66,127
11109,note_on,2,0,0,,0,,,48,127
11109,note_on,0,0,0,,4,,,64,127
11174,note_off,65,0,0,,0,,,48,127
11176,note_on,2,0,0,,12,,,47,127
11241,note_off,65,0,0,,12,,,47,127
11243,note_on,2,0,0,,0,,,48,127
11308,note_off,65,0,0,,0,,,48,127
11308,note_off,0,0,0,,4,,,64,127
11309,note_off,1,0,0,,10,,,69,127
11310,note_on,1,0,0,,12,,,47,127
11310,note_on,0,0,0,,12,,,59,127
11310,note_on,0,0,0,,3,,,63,127
11310,note_on,0,0,0,,12,,,71,127
11310,note_on,0,0,0,,6,,,66,127
11508,note_off,198,0,0,,12,,,59,127
11508,note_off,0,0,0,,12,,,47,127
11510,note_on,2,0,0,,0,,,60,127
11708,note_off,198,0,0,,0,,,60,127
11710,note_on,2,0,0,,12,,,59,127
11819,note_off,109,0,0,,12,,,71,127
11894,note_off,75,0,0,,6,,,66,127
11894,note_off,0,0,0,,3,,,63,127
11909,note_off,15,0,0,,12,,,59,127
11911,note_on,2,0,0,,3,,,51,127
11911,note_on,0,0,0,,6,,,66,127
11911,note_on,0,0,0,,10,,,69,127
12109,note_off,198,0,0,,10,,,69,127
12109,note_off,0,0,0,,6,,,66,127
12109,note_off,0,0,0,,3,,,51,127
12111,note_on,2,0,0,,4,,,52,127
12111,note_on,0,0,0,,10,,,69,127
12111,note_on,0,0,0,,6,,,66,127
12309,note_off,198,0,0,,6,,,66,127
12309,note_off,0,0,0,,10,,,69,127
12309,note_off,0,0,0,,4,,,52,127
12311,note_on,2,0,0,,0,,,60,127
12311,note_on,0,0,0,,7,,,67,127
12311,note_on,0,0,0,,4,,,64,127
12509,note_off,198,0,0,,0,,,60,127
12511,note_on,2,0,0,,12,,,59,127
12697,note_off,186,0,0,,4,,,64,127
12697,note_off,0,0,0,,7,,,67,127
12710,note_off,13,0,0,,12,,,59,127
12712,note_on,2,0,0,,4,,,52,127
12712,note_on,0,0,0,,7,,,67,127
12712,note_on,0,0,0,,4,,,64,127
12910,note_off,198,0,0,,4,,,64,127
12910,note_off,0,0,0,,7,,,67,127
12910,note_off,0,0,0,,4,,,52,127
12912,note_on,2,0,0,,3,,,51,127
12912,note_on,0,0,0,,7,,,67,127
12912,note_on,0,0,0,,4,,,64,127
13110,note_off,198,0,0,,4,,,64,127
13110,note_off,0,0,0,,7,,,67,127
13110,note_off,0,0,0,,3,,,51,127
13112,note_on,2,0,0,,0,,,60,127
13112,note_on,0,0,0,,3,,,63,127
13112,note_on,0,0,0,,6,,,66,127
13310,note_off,198,0,0,,0,,,60,127
13312,note_on,2,0,0,,12,,,59,127
13498,note_off,186,0,0,,6,,,66,127
13498,note_off,0,0,0,,3,,,63,127
13511,note_off,13,0,0,,12,,,59,127
13513,note_on,2,0,0,,3,,,51,127
13513,note_on,0,0,0,,10,,,69,127
13513,note_on,0,0,0,,6,,,66,127
13711,note_off,198,0,0,,6,,,66,127
13711,note_off,0,0,0,,10,,,69,127
13711,note_off,0,0,0,,3,,,51,127
13713,note_on,2,0,0,,4,,,52,127
13713,note_on,0,0,0,,6,,,66,127
13713,note_on,0,0,0,,10,,,69,127
13911,note_off,198,0,0,,10,,,69,127
13911,note_off,0,0,0,,6,,,66,127
13911,note_off,0,0,0,,4,,,52,127
13913,note_on,2,0,0,,0,,,60,127
13913,note_on,0,0,0,,7,,,67,127
13913,note_on,0,0,0,,4,,,64,127
14111,note_off,198,0,0,,0,,,60,127
14113,note_on,2,0,0,,12,,,59,127
14299,note_off,186,0,0,,4,,,64,127
14299,note_off,0,0,0,,7,,,67,127
14312,note_off,13,0,0,,12,,,59,127
14314,note_on,2,0,0,,4,,,52,127
14314,note_on,0,0,0,,10,,,69,127
14314,note_on,0,0,0,,5,,,65,127
14512,note_off,198,0,0,,5,,,65,127
14512,note_off,0,0,0,,10,,,69,127
14512,note_off,0,0,0,,4,,,52,127
14514,note_on,2,0,0,,2,,,50,127
14514,note_on,0,0,0,,5,,,65,127
14514,note_on,0,0,0,,10,,,69,127
14712,note_off,198,0,0,,10,,,69,127
14712,note_off,0,0,0,,2,,,50,127
14714,note_on,2,0,0,,0,,,60,127
14714,note_on,0,0,0,,8,,,68,127
14912,note_off,198,0,0,,0,,,60,127
14914,note_on,2,0,0,,12,,,59,127
15098,note_off,184,0,0,,5,,,65,127
15100,note_off,2,0,0,,8,,,68,127
15113,note_off,13,0,0,,12,,,59,127
15115,note_on,2,0,0,,2,,,50,127
15115,note_on,0,0,0,,12,,,71,127
15115,note_on,0,0,0,,5,,,65,127
15313,note_off,198,0,0,,5,,,65,127
15313,note_off,0,0,0,,12,,,71,127
15313,note_off,0,0,0,,2,,,50,127
15315,note_on,2,0,0,,0,,,48,127
15315,note_on,0,0,0,,12,,,71,127
15315,note_on,0,0,0,,4,,,64,127
15513,note_off,198,0,0,,12,,,71,127
15513,note_off,0,0,0,,0,,,48,127
15515,note_on,2,0,0,,12,,,59,127
15515,note_on,0,0,0,,10,,,69,127
15713,note_off,198,0,0,,12,,,59,127
15715,note_on,2,0,0,,10,,,57,127
15899,note_off,184,0,0,,4,,,64,127
15901,note_off,2,0,0,,10,,,69,127
15914,note_off,13,0,0,,10,,,57,127
15916,note_on,2,0,0,,0,,,48,127
15916,note_on,0,0,0,,0,,,72,127
15916,note_on,0,0,0,,4,,,64,127
16114,note_off,198,0,0,,4,,,64,127
16114,note_off,0,0,0,,0,,,72,127
16114,note_off,0,0,0,,0,,,48,127
16116,note_on,2,0,0,,12,,,47,127
16116,note_on,0,0,0,,0,,,72,127
16116,note_on,0,0,0,,2,,,62,127
16314,note_off,198,0,0,,0,,,72,127
16314,note_off,0,0,0,,12,,,47,127
16316,note_on,2,0,0,,10,,,57,127
16316,note_on,0,0,0,,12,,,71,127
16514,note_off,198,0,0,,10,,,57,127
16516,note_on,2,0,0,,8,,,56,127
16670,note_off,154,0,0,,12,,,71,127
16699,note_off,29,0,0,,2,,,62,127
16714,note_off,15,0,0,,8,,,56,127
16716,note_on,2,0,0,,12,,,47,127
16716,note_on,0,0,0,,2,,,74,127
16716,note_on,0,0,0,,12,,,71,127
16914,note_off,198,0,0,,12,,,71,127
16914,note_off,0,0,0,,2,,,74,127
16914,note_off,0,0,0,,12,,,47,127
16916,note_on,2,0,0,,10,,,45,127
16916,note_on,0,0,0,,2,,,74,127
16916,note_on,0,0,0,,12,,,71,127
17114,note_off,198,0,0,,12,,,71,127
17114,note_off,0,0,0,,2,,,74,127
17116,note_on,2,0,0,,6,,,54,127
17116,note_on,0,0,0,,10,,,69,127
17116,note_on,0,0,0,,0,,,72,127
17314,note_off,198,0,0,,0,,,72,127
17314,note_off,0,0,0,,10,,,69,127
17315,note_off,1,0,0,,10,,,45,127
17316,note_on,1,0,0,,12,,,47,127
17316,note_on,0,0,0,,0,,,72,127
17316,note_on,0,0,0,,10,,,69,127
17514,note_off,198,0,0,,10,,,69,127
17514,note_off,0,0,0,,0,,,72,127
17515,note_off,1,0,0,,6,,,54,127
17516,note_on,1,0,0,,7,,,55,127
17516,note_on,0,0,0,,7,,,67,127
17516,note_on,0,0,0,,12,,,71,127
17714,note_off,198,0,0,,12,,,71,127
17714,note_off,0,0,0,,7,,,67,127
17715,note_off,1,0,0,,12,,,47,127
17716,note_on,1,0,0,,0,,,48,127
17716,note_on,0,0,0,,12,,,71,127
17716,note_on,0,0,0,,7,,,67,127
17914,note_off,198,0,0,,7,,,67,127
17914,note_off,0,0,0,,12,,,71,127
17915,note_off,1,0,0,,7,,,55,127
17916,note_on,1,0,0,,10,,,57,127
17916,note_on,0,0,0,,4,,,64,127
17916,note_on,0,0,0,,10,,,69,127
18114,note_off,198,0,0,,10,,,69,127
18114,note_off,0,0,0,,4,,,64,127
18115,note_off,1,0,0,,0,,,48,127
18116,note_on,1,0,0,,1,,,49,127
18116,note_on,0,0,0,,10,,,69,127
18116,note_on,0,0,0,,4,,,64,127
18304,note_off,188,0,0,,4,,,64,127
18304,note_off,0,0,0,,10,,,69,127
18315,note_off,11,0,0,,10,,,57,127
18316,note_on,1,0,0,,1,,,61,127
18316,note_on,0,0,0,,4,,,76,127
18316,note_on,0,0,0,,7,,,67,127
18514,note_off,198,0,0,,7,,,67,127
18514,note_off,0,0,0,,4,,,76,127
18515,note_off,1,0,0,,1,,,49,127
18516,note_on,1,0,0,,2,,,50,127
18516,note_on,0,0,0,,7,,,67,127
18516,note_on,0,0,0,,4,,,76,127
18714,note_off,198,0,0,,4,,,76,127
18714,note_off,0,0,0,,7,,,67,127
18715,note_off,1,0,0,,1,,,61,127
18716,note_on,1,0,0,,2,,,62,127
18716,note_on,0,0,0,,2,,,74,127
18716,note_on,0,0,0,,6,,,66,127
18914,note_off,198,0,0,,6,,,66,127
18914,note_off,0,0,0,,2,,,74,127
18915,note_off,1,0,0,,2,,,50,127
18916,note_on,1,0,0,,4,,,52,127
18916,note_on,0,0,0,,2,,,74,127
18916,note_on,0,0,0,,6,,,66,127
19114,note_off,198,0,0,,6,,,66,127
19114,note_off,0,0,0,,2,,,74,127
19115,note_off,1,0,0,,2,,,62,127
19116,note_on,1,0,0,,7,,,55,127
19116,note_on,0,0,0,,4,,,64,127
19116,note_on,0,0,0,,1,,,73,127
19314,note_off,198,0,0,,1,,,73,127
19314,note_off,0,0,0,,4,,,64,127
19314,note_off,0,0,0,,7,,,55,127
19315,note_off,1,0,0,,4,,,52,127
19316,note_on,1,0,0,,6,,,54,127
19316,note_on,0,0,0,,2,,,74,127
19316,note_on,0,0,0,,2,,,62,127
19514,note_off,198,0,0,,2,,,74,127
19514,note_off,0,0,0,,6,,,54,127
19516,note_on,2,0,0,,10,,,57,127
19516,note_on,0,0,0,,0,,,72,127
19714,note_off,198,0,0,,0,,,72,127
19714,note_off,0,0,0,,10,,,57,127
19715,note_off,1,0,0,,2,,,62,127
19716,note_on,1,0,0,,2,,,50,127
19716,note_on,0,0,0,,0,,,72,127
19914,note_off,198,0,0,,2,,,50,127
19916,note_on,2,0,0,,6,,,54,127
19916,note_on,0,0,0,,10,,,81,127
20114,note_off,198,0,0,,6,,,54,127
20115,note_off,1,0,0,,0,,,72,127
20116,note_on,1,0,0,,7,,,55,127
20116,note_on,0,0,0,,12,,,71,127
20314,note_off,198,0,0,,7,,,55,127
20315,note_off,1,0,0,,10,,,81,127
20316,note_on,1,0,0,,12,,,59,127
20316,note_on,0,0,0,,7,,,79,127
20514,note_off,198,0,0,,12,,,59,127
20515,note_off,1,0,0,,12,,,71,127
20516,note_on,1,0,0,,0,,,60,127
20516,note_on,0,0,0,,10,,,69,127
20714,note_off,198,0,0,,0,,,60,127
20715,note_off,1,0,0,,7,,,79,127
20716,note_on,1,0,0,,10,,,57,127
20716,note_on,0,0,0,,6,,,78,127
20914,note_off,198,0,0,,6,,,78,127
20914,note_off,0,0,0,,10,,,57,127
20915,note_off,1,0,0,,10,,,69,127
20916,note_on,1,0,0,,12,,,59,127
20916,note_on,0,0,0,,2,,,62,127
20916,note_on,0,0,0,,7,,,79,127
20916,note_on,0,0,0,,7,,,67,127
21114,note_off,198,0,0,,7,,,79,127
21116,note_on,2,0,0,,6,,,78,127
21314,note_off,198,0,0,,6,,,78,127
21314,note_off,0,0,0,,2,,,62,127
21314,note_off,0,0,0,,12,,,59,127
21315,note_off,1,0,0,,7,,,67,127
21316,note_on,1,0,0,,7,,,55,127
21316,note_on,0,0,0,,2,,,62,127
21316,note_on,0,0,0,,12,,,59,127
21316,note_on,0,0,0,,7,,,67,127
21316,note_on,0,0,0,,6,,,78,127
21514,note_off,198,0,0,,6,,,78,127
21516,note_on,2,0,0,,4,,,76,127
21714,note_off,198,0,0,,4,,,76,127
21714,note_off,0,0,0,,12,,,59,127
21714,note_off,0,0,0,,2,,,62,127
21714,note_off,0,0,0,,7,,,55,127
21715,note_off,1,0,0,,7,,,67,127
21716,note_on,1,0,0,,0,,,60,127
21716,note_on,0,0,0,,4,,,64,127
21716,note_on,0,0,0,,7,,,67,127
21716,note_on,0,0,0,,4,,,76,127
21914,note_off,198,0,0,,4,,,76,127
21916,note_on,2,0,0,,2,,,74,127
22114,note_off,198,0,0,,2,,,74,127
22114,note_off,0,0,0,,4,,,64,127
22114,note_off,0,0,0,,0,,,60,127
22115,note_off,1,0,0,,7,,,67,127
22116,note_on,1,0,0,,12,,,59,127
22116,note_on,0,0,0,,2,,,62,127
22116,note_on,0,0,0,,7,,,67,127
22116,note_on,0,0,0,,2,,,74,127
22314,note_off,198,0,0,,2,,,74,127
22316,note_on,2,0,0,,0,,,72,127
22514,note_off,198,0,0,,0,,,72,127
22514,note_off,0,0,0,,2,,,62,127
22514,note_off,0,0,0,,12,,,59,127
22516,note_on,2,0,0,,0,,,60,127
22516,note_on,0,0,0,,10,,,57,127
22516,note_on,0,0,0,,0,,,72,127
22715,note_off,199,0,0,,7,,,67,127
22716,note_on,1,0,0,,6,,,66,127
22914,note_off,198,0,0,,6,,,66,127
22914,note_off,0,0,0,,10,,,57,127
22914,note_off,0,0,0,,0,,,60,127
22916,note_on,2,0,0,,7,,,55,127
22916,note_on,0,0,0,,2,,,62,127
22916,note_on,0,0,0,,7,,,67,127
23115,note_off,199,0,0,,0,,,72,127
23116,note_on,1,0,0,,12,,,71,127
23314,note_off,198,0,0,,12,,,71,127
23314,note_off,0,0,0,,2,,,62,127
23314,note_off,0,0,0,,7,,,55,127
23315,note_off,1,0,0,,7,,,67,127
23316,note_on,1,0,0,,2,,,50,127
23316,note_on,0,0,0,,10,,,69,127
23316,note_on,0,0,0,,6,,,66,127
23514,note_off,198,0,0,,2,,,50,127
23516,note_on,2,0,0,,2,,,62,127
23714,note_off,198,0,0,,2,,,62,127
23715,note_off,1,0,0,,6,,,66,127
23716,note_on,1,0,0,,6,,,66,127
23825,note_off,109,0,0,,10,,,69,127
23915,note_off,90,0,0,,6,,,66,127
23917,note_on,2,0,0,,10,,,69,127
23917,note_on,0,0,0,,0,,,72,127
23917,note_on,0,0,0,,10,,,81,127
24115,note_off,198,0,0,,10,,,81,127
24115,note_off,0,0,0,,0,,,72,127
24115,note_off,0,0,0,,10,,,69,127
24117,note_on,2,0,0,,2,,,38,127
24117,note_on,0,0,0,,10,,,81,127
24117,note_on,0,0,0,,0,,,72,127
24315,note_off,198,0,0,,0,,,72,127
24315,note_off,0,0,0,,10,,,81,127
24317,note_on,2,0,0,,12,,,71,127
24317,note_on,0,0,0,,7,,,79,127
24515,note_off,198,0,0,,7,,,79,127
24515,note_off,0,0,0,,12,,,71,127
24517,note_on,2,0,0,,7,,,79,127
24517,note_on,0,0,0,,12,,,71,127
24715,note_off,198,0,0,,12,,,71,127
24715,note_off,0,0,0,,7,,,79,127
24717,note_on,2,0,0,,6,,,78,127
24717,note_on,0,0,0,,10,,,69,127
24915,note_off,198,0,0,,10,,,69,127
24915,note_off,0,0,0,,6,,,78,127
24915,note_off,0,0,0,,2,,,38,127
24917,note_on,2,0,0,,7,,,43,127
24917,note_on,0,0,0,,6,,,78,127
24917,note_on,0,0,0,,10,,,69,127
25115,note_off,198,0,0,,10,,,69,127
25115,note_off,0,0,0,,6,,,78,127
25115,note_off,0,0,0,,7,,,43,127
25117,note_on,2,0,0,,7,,,55,127
25117,note_on,0,0,0,,12,,,71,127
25117,note_on,0,0,0,,7,,,79,127
25315,note_off,198,0,0,,7,,,55,127
25317,note_on,2,0,0,,12,,,59,127
25513,note_off,196,0,0,,7,,,79,127
25513,note_off,0,0,0,,12,,,71,127
25515,note_off,2,0,0,,12,,,59,127
25517,note_on,2,0,0,,2,,,62,127
25517,note_on,0,0,0,,2,,,74,127
25517,note_on,0,0,0,,12,,,71,127
25715,note_off,198,0,0,,12,,,71,127
25715,note_off,0,0,0,,2,,,74,127
25715,note_off,0,0,0,,2,,,62,127
25717,note_on,2,0,0,,2,,,38,127
25717,note_on,0,0,0,,12,,,71,127
25717,note_on,0,0,0,,2,,,74,127
25915,note_off,198,0,0,,2,,,74,127
25915,note_off,0,0,0,,12,,,71,127
25917,note_on,2,0,0,,10,,,69,127
25917,note_on,0,0,0,,0,,,72,127
26115,note_off,198,0,0,,0,,,72,127
26115,note_off,0,0,0,,10,,,69,127
26117,note_on,2,0,0,,7,,,67,127
26117,note_on,0,0,0,,12,,,71,127
26315,note_off,198,0,0,,12,,,71,127
26315,note_off,0,0,0,,7,,,67,127
26317,note_on,2,0,0,,10,,,69,127
26317,note_on,0,0,0,,6,,,66,127
26515,note_off,198,0,0,,6,,,66,127
26515,note_off,0,0,0,,10,,,69,127
26515,note_off,0,0,0,,2,,,38,127
26517,note_on,2,0,0,,7,,,43,127
26517,note_on,0,0,0,,6,,,66,127
26517,note_on,0,0,0,,10,,,69,127
26715,note_off,198,0,0,,10,,,69,127
26715,note_off,0,0,0,,6,,,66,127
26715,note_off,0,0,0,,7,,,43,127
26717,note_on,2,0,0,,7,,,55,127
26717,note_on,0,0,0,,7,,,67,127
26717,note_on,0,0,0,,12,,,71,127
26915,note_off,198,0,0,,7,,,55,127
26917,note_on,2,0,0,,12,,,59,127
27082,note_off,165,0,0,,12,,,71,127
27082,note_off,0,0,0,,7,,,67,127
27115,note_off,33,0,0,,12,,,59,127
27117,note_on,2,0,0,,2,,,62,127
27117,note_on,0,0,0,,2,,,74,127
27117,note_on,0,0,0,,12,,,83,127
27315,note_off,198,0,0,,12,,,83,127
27315,note_off,0,0,0,,2,,,74,127
27315,note_off,0,0,0,,2,,,62,127
27317,note_on,2,0,0,,4,,,40,127
27317,note_on,0,0,0,,2,,,74,127
27317,note_on,0,0,0,,12,,,83,127
27515,note_off,198,0,0,,12,,,83,127
27515,note_off,0,0,0,,2,,,74,127
27517,note_on,2,0,0,,10,,,81,127
27517,note_on,0,0,0,,0,,,72,127
27715,note_off,198,0,0,,0,,,72,127
27715,note_off,0,0,0,,10,,,81,127
27717,note_on,2,0,0,,10,,,81,127
27717,note_on,0,0,0,,0,,,72,127
27915,note_off,198,0,0,,0,,,72,127
27915,note_off,0,0,0,,10,,,81,127
27917,note_on,2,0,0,,12,,,71,127
27917,note_on,0,0,0,,8,,,80,127
28115,note_off,198,0,0,,8,,,80,127
28115,note_off,0,0,0,,12,,,71,127
28115,note_off,0,0,0,,4,,,40,127
28117,note_on,2,0,0,,10,,,45,127
28117,note_on,0,0,0,,12,,,71,127
28117,note_on,0,0,0,,8,,,80,127
28315,note_off,198,0,0,,8,,,80,127
28315,note_off,0,0,0,,12,,,71,127
28315,note_off,0,0,0,,10,,,45,127
28317,note_on,2,0,0,,10,,,57,127
28317,note_on,0,0,0,,10,,,81,127
28317,note_on,0,0,0,,0,,,72,127
28515,note_off,198,0,0,,10,,,57,127
28517,note_on,2,0,0,,0,,,60,127
28715,note_off,198,0,0,,0,,,60,127
28715,note_off,0,0,0,,0,,,72,127
28715,note_off,0,0,0,,10,,,81,127
28717,note_on,2,0,0,,4,,,64,127
28717,note_on,0,0,0,,0,,,72,127
28717,note_on,0,0,0,,4,,,76,127
28915,note_off,198,0,0,,4,,,76,127
28915,note_off,0,0,0,,0,,,72,127
28915,note_off,0,0,0,,4,,,64,127
28917,note_on,2,0,0,,4,,,40,127
28917,note_on,0,0,0,,0,,,72,127
28917,note_on,0,0,0,,4,,,76,127
29115,note_off,198,0,0,,4,,,76,127
29115,note_off,0,0,0,,0,,,72,127
29117,note_on,2,0,0,,2,,,74,127
29117,note_on,0,0,0,,12,,,71,127
29315,note_off,198,0,0,,12,,,71,127
29315,note_off,0,0,0,,2,,,74,127
29317,note_on,2,0,0,,10,,,69,127
29317,note_on,0,0,0,,0,,,72,127
29515,note_off,198,0,0,,0,,,72,127
29515,note_off,0,0,0,,10,,,69,127
29517,note_on,2,0,0,,8,,,68,127
29517,note_on,0,0,0,,12,,,71,127
29715,note_off,198,0,0,,12,,,71,127
29715,note_off,0,0,0,,8,,,68,127
29715,note_off,0,0,0,,4,,,40,127
29717,note_on,2,0,0,,10,,,45,127
29717,note_on,0,0,0,,8,,,68,127
29717,note_on,0,0,0,,12,,,71,127
29915,note_off,198,0,0,,12,,,71,127
29915,note_off,0,0,0,,8,,,68,127
29915,note_off,0,0,0,,10,,,45,127
29917,note_on,2,0,0,,10,,,57,127
29917,note_on,0,0,0,,0,,,72,127
29917,note_on,0,0,0,,10,,,69,127
30115,note_off,198,0,0,,10,,,57,127
30117,note_on,2,0,0,,0,,,60,127
30282,note_off,165,0,0,,10,,,69,127
30282,note_off,0,0,0,,0,,,72,127
30315,note_off,33,0,0,,0,,,60,127
30317,note_on,2,0,0,,4,,,64,127
30317,note_on,0,0,0,,4,,,76,127
30317,note_on,0,0,0,,0,,,72,127
30515,note_off,198,0,0,,0,,,72,127
30515,note_off,0,0,0,,4,,,76,127
30515,note_off,0,0,0,,4,,,64,127
30517,note_on,2,0,0,,6,,,42,127
30517,note_on,0,0,0,,4,,,76,127
30517,note_on,0,0,0,,0,,,72,127
30715,note_off,198,0,0,,0,,,72,127
30715,note_off,0,0,0,,4,,,76,127
30717,note_on,2,0,0,,12,,,71,127
30717,note_on,0,0,0,,2,,,74,127
30915,note_off,198,0,0,,2,,,74,127
30915,note_off,0,0,0,,12,,,71,127
30917,note_on,2,0,0,,2,,,74,127
30917,note_on,0,0,0,,12,,,71,127
31115,note_off,198,0,0,,12,,,71,127
31115,note_off,0,0,0,,2,,,74,127
31117,note_on,2,0,0,,10,,,69,127
31117,note_on,0,0,0,,0,,,72,127
31315,note_off,198,0,0,,0,,,72,127
31315,note_off,0,0,0,,10,,,69,127
31315,note_off,0,0,0,,6,,,42,127
31317,note_on,2,0,0,,7,,,43,127
31317,note_on,0,0,0,,10,,,69,127
31317,note_on,0,0,0,,0,,,72,127
31515,note_off,198,0,0,,0,,,72,127
31515,note_off,0,0,0,,10,,,69,127
31515,note_off,0,0,0,,7,,,43,127
31517,note_on,2,0,0,,7,,,55,127
31517,note_on,0,0,0,,7,,,67,127
31517,note_on,0,0,0,,12,,,71,127
31715,note_off,198,0,0,,7,,,55,127
31717,note_on,2,0,0,,12,,,59,127
31913,note_off,196,0,0,,12,,,71,127
31913,note_off,0,0,0,,7,,,67,127
31915,note_off,2,0,0,,12,,,59,127
31917,note_on,2,0,0,,2,,,62,127
31917,note_on,0,0,0,,12,,,71,127
31917,note_on,0,0,0,,2,,,74,127
32115,note_off,198,0,0,,2,,,74,127
32115,note_off,0,0,0,,12,,,71,127
32115,note_off,0,0,0,,2,,,62,127
32117,note_on,2,0,0,,2,,,38,127
32117,note_on,0,0,0,,2,,,74,127
32117,note_on,0,0,0,,12,,,71,127
32315,note_off,198,0,0,,12,,,71,127
32315,note_off,0,0,0,,2,,,74,127
32317,note_on,2,0,0,,10,,,69,127
32317,note_on,0,0,0,,0,,,72,127
32515,note_off,198,0,0,,0,,,72,127
32515,note_off,0,0,0,,10,,,69,127
32517,note_on,2,0,0,,0,,,72,127
32517,note_on,0,0,0,,10,,,69,127
32715,note_off,198,0,0,,10,,,69,127
32715,note_off,0,0,0,,0,,,72,127
32717,note_on,2,0,0,,7,,,67,127
32717,note_on,0,0,0,,12,,,71,127
32915,note_off,198,0,0,,12,,,71,127
32915,note_off,0,0,0,,7,,,67,127
32915,note_off,0,0,0,,2,,,38,127
32917,note_on,2,0,0,,6,,,42,127
32917,note_on,0,0,0,,7,,,67,127
32917,note_on,0,0,0,,12,,,71,127
33115,note_off,198,0,0,,12,,,71,127
33115,note_off,0,0,0,,7,,,67,127
33115,note_off,0,0,0,,6,,,42,127
33117,note_on,2,0,0,,6,,,54,127
33117,note_on,0,0,0,,6,,,66,127
33117,note_on,0,0,0,,10,,,69,127
33315,note_off,198,0,0,,6,,,54,127
33317,note_on,2,0,0,,10,,,57,127
33513,note_off,196,0,0,,10,,,69,127
33513,note_off,0,0,0,,6,,,66,127
33515,note_off,2,0,0,,10,,,57,127
33517,note_on,2,0,0,,0,,,60,127
33517,note_on,0,0,0,,0,,,72,127
33517,note_on,0,0,0,,10,,,69,127
33715,note_off,198,0,0,,10,,,69,127
33715,note_off,0,0,0,,0,,,72,127
33715,note_off,0,0,0,,0,,,60,127
33717,note_on,2,0,0,,3,,,39,127
33717,note_on,0,0,0,,0,,,72,127
33717,note_on,0,0,0,,10,,,69,127
33915,note_off,198,0,0,,10,,,69,127
33915,note_off,0,0,0,,0,,,72,127
33917,note_on,2,0,0,,7,,,67,127
33917,note_on,0,0,0,,12,,,71,127
34115,note_off,198,0,0,,12,,,71,127
34115,note_off,0,0,0,,7,,,67,127
34117,note_on,2,0,0,,7,,,67,127
34117,note_on,0,0,0,,12,,,71,127
34315,note_off,198,0,0,,12,,,71,127
34315,note_off,0,0,0,,7,,,67,127
34317,note_on,2,0,0,,6,,,66,127
34317,note_on,0,0,0,,10,,,69,127
34515,note_off,198,0,0,,10,,,69,127
34515,note_off,0,0,0,,6,,,66,127
34515,note_off,0,0,0,,3,,,39,127
34517,note_on,2,0,0,,4,,,40,127
34517,note_on,0,0,0,,7,,,67,127
34517,note_on,0,0,0,,4,,,64,127
34715,note_off,198,0,0,,4,,,40,127
34716,note_off,1,0,0,,4,,,64,127
34717,note_on,1,0,0,,4,,,64,127
34915,note_off,198,0,0,,4,,,64,127
34916,note_off,1,0,0,,7,,,67,127
34917,note_on,1,0,0,,7,,,67,127
35115,note_off,198,0,0,,7,,,67,127
35117,note_on,2,0,0,,12,,,71,127
35117,note_on,0,0,0,,12,,,83,127
35117,note_on,0,0,0,,7,,,79,127
35315,note_off,198,0,0,,7,,,79,127
35315,note_off,0,0,0,,12,,,83,127
35315,note_off,0,0,0,,12,,,71,127
35317,note_on,2,0,0,,12,,,47,127
35317,note_on,0,0,0,,12,,,83,127
35317,note_on,0,0,0,,7,,,79,127
35515,note_off,198,0,0,,7,,,79,127
35515,note_off,0,0,0,,12,,,83,127
35517,note_on,2,0,0,,10,,,81,127
35517,note_on,0,0,0,,6,,,78,127
35715,note_off,198,0,0,,6,,,78,127
35715,note_off,0,0,0,,10,,,81,127
35717,note_on,2,0,0,,4,,,76,127
35717,note_on,0,0,0,,7,,,79,127
35915,note_off,198,0,0,,7,,,79,127
35915,note_off,0,0,0,,4,,,76,127
35917,note_on,2,0,0,,3,,,75,127
35917,note_on,0,0,0,,6,,,78,127
36115,note_off,198,0,0,,6,,,78,127
36115,note_off,0,0,0,,3,,,75,127
36115,note_off,0,0,0,,12,,,47,127
36117,note_on,2,0,0,,4,,,52,127
36117,note_on,0,0,0,,6,,,78,127
36117,note_on,0,0,0,,3,,,75,127
36315,note_off,198,0,0,,3,,,75,127
36315,note_off,0,0,0,,6,,,78,127
36315,note_off,0,0,0,,4,,,52,127
36317,note_on,2,0,0,,4,,,64,127
36317,note_on,0,0,0,,4,,,76,127
36317,note_on,0,0,0,,7,,,79,127
36515,note_off,198,0,0,,4,,,64,127
36517,note_on,2,0,0,,7,,,67,127
36715,note_off,198,0,0,,7,,,67,127
36715,note_off,0,0,0,,7,,,79,127
36715,note_off,0,0,0,,4,,,76,127
36717,note_on,2,0,0,,12,,,71,127
36717,note_on,0,0,0,,12,,,83,127
36717,note_on,0,0,0,,7,,,79,127
36915,note_off,198,0,0,,7,,,79,127
36915,note_off,0,0,0,,12,,,83,127
36915,note_off,0,0,0,,12,,,71,127
36917,note_on,2,0,0,,12,,,47,127
36917,note_on,0,0,0,,12,,,83,127
36917,note_on,0,0,0,,7,,,79,127
37115,note_off,198,0,0,,7,,,79,127
37115,note_off,0,0,0,,12,,,83,127
37117,note_on,2,0,0,,6,,,78,127
37117,note_on,0,0,0,,10,,,81,127
37315,note_off,198,0,0,,10,,,81,127
37315,note_off,0,0,0,,6,,,78,127
37317,note_on,2,0,0,,4,,,76,127
37317,note_on,0,0,0,,7,,,79,127
37515,note_off,198,0,0,,7,,,79,127
37515,note_off,0,0,0,,4,,,76,127
37517,note_on,2,0,0,,3,,,75,127
37517,note_on,0,0,0,,6,,,78,127
37715,note_off,198,0,0,,6,,,78,127
37715,note_off,0,0,0,,3,,,75,127
37715,note_off,0,0,0,,12,,,47,127
37717,note_on,2,0,0,,4,,,52,127
37717,note_on,0,0,0,,6,,,78,127
37717,note_on,0,0,0,,3,,,75,127
37915,note_off,198,0,0,,3,,,75,127
37915,note_off,0,0,0,,6,,,78,127
37915,note_off,0,0,0,,4,,,52,127
37917,note_on,2,0,0,,4,,,64,127
37917,note_on,0,0,0,,4,,,76,127
37917,note_on,0,0,0,,7,,,79,127
38115,note_off,198,0,0,,4,,,64,127
38117,note_on,2,0,0,,7,,,67,127
38315,note_off,198,0,0,,7,,,67,127
38315,note_off,0,0,0,,7,,,79,127
38315,note_off,0,0,0,,4,,,76,127
38317,note_on,2,0,0,,12,,,71,127
38317,note_on,0,0,0,,12,,,83,127
38317,note_on,0,0,0,,2,,,74,127
38515,note_off,198,0,0,,2,,,74,127
38515,note_off,0,0,0,,12,,,83,127
38515,note_off,0,0,0,,12,,,71,127
38517,note_on,2,0,0,,10,,,45,127
38517,note_on,0,0,0,,12,,,83,127
38517,note_on,0,0,0,,2,,,74,127
38715,note_off,198,0,0,,2,,,74,127
38715,note_off,0,0,0,,12,,,83,127
38717,note_on,2,0,0,,0,,,72,127
38717,note_on,0,0,0,,10,,,81,127
38915,note_off,198,0,0,,10,,,81,127
38915,note_off,0,0,0,,0,,,72,127
38917,note_on,2,0,0,,0,,,72,127
38917,note_on,0,0,0,,10,,,81,127
39115,note_off,198,0,0,,10,,,81,127
39115,note_off,0,0,0,,0,,,72,127
39117,note_on,2,0,0,,7,,,79,127
39117,note_on,0,0,0,,12,,,71,127
39315,note_off,198,0,0,,12,,,71,127
39315,note_off,0,0,0,,7,,,79,127
39315,note_off,0,0,0,,10,,,45,127
39317,note_on,2,0,0,,2,,,50,127
39317,note_on,0,0,0,,12,,,71,127
39317,note_on,0,0,0,,7,,,79,127
39515,note_off,198,0,0,,7,,,79,127
39515,note_off,0,0,0,,12,,,71,127
39515,note_off,0,0,0,,2,,,50,127
39517,note_on,2,0,0,,2,,,62,127
39517,note_on,0,0,0,,10,,,69,127
39517,note_on,0,0,0,,6,,,78,127
39715,note_off,198,0,0,,2,,,62,127
39717,note_on,2,0,0,,6,,,66,127
39908,note_off,191,0,0,,6,,,78,127
39908,note_off,0,0,0,,10,,,69,127
39915,note_off,7,0,0,,6,,,66,127
39917,note_on,2,0,0,,10,,,69,127
39917,note_on,0,0,0,,10,,,81,127
39917,note_on,0,0,0,,6,,,78,127
40115,note_off,198,0,0,,6,,,78,127
40115,note_off,0,0,0,,10,,,81,127
40115,note_off,0,0,0,,10,,,69,127
40117,note_on,2,0,0,,10,,,45,127
40117,note_on,0,0,0,,6,,,78,127
40117,note_on,0,0,0,,10,,,81,127
40315,note_off,198,0,0,,10,,,81,127
40315,note_off,0,0,0,,6,,,78,127
40317,note_on,2,0,0,,7,,,79,127
40317,note_on,0,0,0,,4,,,76,127
40515,note_off,198,0,0,,4,,,76,127
40515,note_off,0,0,0,,7,,,79,127
40517,note_on,2,0,0,,6,,,78,127
40517,note_on,0,0,0,,2,,,74,127
40715,note_off,198,0,0,,2,,,74,127
40715,note_off,0,0,0,,6,,,78,127
40717,note_on,2,0,0,,4,,,76,127
40717,note_on,0,0,0,,1,,,73,127
40915,note_off,198,0,0,,1,,,73,127
40915,note_off,0,0,0,,4,,,76,127
40915,note_off,0,0,0,,10,,,45,127
40917,note_on,2,0,0,,2,,,50,127
40917,note_on,0,0,0,,1,,,73,127
40917,note_on,0,0,0,,4,,,76,127
41115,note_off,198,0,0,,4,,,76,127
41115,note_off,0,0,0,,1,,,73,127
41115,note_off,0,0,0,,2,,,50,127
41117,note_on,2,0,0,,2,,,62,127
41117,note_on,0,0,0,,6,,,78,127
41117,note_on,0,0,0,,2,,,74,127
41315,note_off,198,0,0,,2,,,62,127
41317,note_on,2,0,0,,6,,,66,127
41515,note_off,198,0,0,,6,,,66,127
41515,note_off,0,0,0,,2,,,74,127
41515,note_off,0,0,0,,6,,,78,127
41517,note_on,2,0,0,,10,,,69,127
41517,note_on,0,0,0,,10,,,81,127
41517,note_on,0,0,0,,0,,,72,127
41715,note_off,198,0,0,,0,,,72,127
41715,note_off,0,0,0,,10,,,81,127
41715,note_off,0,0,0,,10,,,69,127
41717,note_on,2,0,0,,7,,,43,127
41717,note_on,0,0,0,,0,,,72,127
41717,note_on,0,0,0,,10,,,81,127
41915,note_off,198,0,0,,10,,,81,127
41915,note_off,0,0,0,,0,,,72,127
41917,note_on,2,0,0,,12,,,71,127
41917,note_on,0,0,0,,7,,,79,127
42115,note_off,198,0,0,,7,,,79,127
42115,note_off,0,0,0,,12,,,71,127
42117,note_on,2,0,0,,7,,,79,127
42117,note_on,0,0,0,,12,,,71,127
42315,note_off,198,0,0,,12,,,71,127
42315,note_off,0,0,0,,7,,,79,127
42317,note_on,2,0,0,,10,,,69,127
42317,note_on,0,0,0,,6,,,78,127
42515,note_off,198,0,0,,6,,,78,127
42515,note_off,0,0,0,,10,,,69,127
42515,note_off,0,0,0,,7,,,43,127
42517,note_on,2,0,0,,0,,,48,127
42517,note_on,0,0,0,,6,,,78,127
42517,note_on,0,0,0,,10,,,69,127
42715,note_off,198,0,0,,10,,,69,127
42715,note_off,0,0,0,,6,,,78,127
42715,note_off,0,0,0,,0,,,48,127
42717,note_on,2,0,0,,0,,,60,127
42717,note_on,0,0,0,,4,,,76,127
42717,note_on,0,0,0,,7,,,67,127
42915,note_off,198,0,0,,0,,,60,127
42917,note_on,2,0,0,,4,,,64,127
43115,note_off,198,0,0,,4,,,64,127
43115,note_off,0,0,0,,7,,,67,127
43115,note_off,0,0,0,,4,,,76,127
43117,note_on,2,0,0,,7,,,67,127
43117,note_on,0,0,0,,12,,,71,127
43117,note_on,0,0,0,,7,,,79,127
43315,note_off,198,0,0,,7,,,79,127
43315,note_off,0,0,0,,12,,,71,127
43315,note_off,0,0,0,,7,,,67,127
43317,note_on,2,0,0,,7,,,43,127
43317,note_on,0,0,0,,7,,,79,127
43317,note_on,0,0,0,,12,,,71,127
43515,note_off,198,0,0,,12,,,71,127
43515,note_off,0,0,0,,7,,,79,127
43517,note_on,2,0,0,,10,,,69,127
43517,note_on,0,0,0,,6,,,78,127
43715,note_off,198,0,0,,6,,,78,127
43715,note_off,0,0,0,,10,,,69,127
43715,note_off,0,0,0,,7,,,43,127
43717,note_on,2,0,0,,10,,,45,127
43717,note_on,0,0,0,,10,,,69,127
43717,note_on,0,0,0,,6,,,78,127
43915,note_off,198,0,0,,6,,,78,127
43915,note_off,0,0,0,,10,,,69,127
43917,note_on,2,0,0,,4,,,76,127
43917,note_on,0,0,0,,7,,,67,127
44115,note_off,198,0,0,,7,,,67,127
44115,note_off,0,0,0,,4,,,76,127
44115,note_off,0,0,0,,10,,,45,127
44117,note_on,2,0,0,,3,,,75,127
44117,note_on,0,0,0,,6,,,66,127
44217,note_on,100,0,0,,12,,,47,127
44315,note_off,98,0,0,,12,,,47,127
44317,note_on,2,0,0,,3,,,51,127
44415,note_off,98,0,0,,3,,,51,127
44417,note_on,2,0,0,,6,,,54,127
44515,note_off,98,0,0,,6,,,54,127
44517,note_on,2,0,0,,12,,,59,127
44615,note_off,98,0,0,,12,,,59,127
44617,note_on,2,0,0,,3,,,63,127
44715,note_off,98,0,0,,3,,,63,127
44716,note_off,1,0,0,,6,,,66,127
44717,note_on,1,0,0,,6,,,66,127
44815,note_off,98,0,0,,6,,,66,127
44817,note_on,2,0,0,,12,,,71,127
44915,note_off,98,0,0,,12,,,71,127
44915,note_off,0,0,0,,3,,,75,127
44917,note_on,2,0,0,,12,,,47,127
44917,note_on,0,0,0,,6,,,78,127
45015,note_off,98,0,0,,6,,,78,127
45017,note_on,2,0,0,,10,,,69,127
45115,note_off,98,0,0,,10,,,69,127
45117,note_on,2,0,0,,4,,,76,127
45215,note_off,98,0,0,,4,,,76,127
45217,note_on,2,0,0,,7,,,67,127
45315,note_off,98,0,0,,7,,,67,127
45317,note_on,2,0,0,,3,,,75,127
45415,note_off,98,0,0,,3,,,75,127
45417,note_on,2,0,0,,6,,,66,127
45515,note_off,98,0,0,,6,,,66,127
45517,note_on,2,0,0,,1,,,73,127
45615,note_off,98,0,0,,1,,,73,127
45617,note_on,2,0,0,,4,,,64,127
45715,note_off,98,0,0,,4,,,64,127
45717,note_on,2,0,0,,6,,,66,127
45717,note_on,0,0,0,,3,,,75,127
45815,note_off,98,0,0,,12,,,47,127
45817,note_on,2,0,0,,12,,,47,127
45915,note_off,98,0,0,,12,,,47,127
45917,note_on,2,0,0,,3,,,51,127
46015,note_off,98,0,0,,3,,,51,127
46017,note_on,2,0,0,,6,,,54,127
46115,note_off,98,0,0,,6,,,54,127
46117,note_on,2,0,0,,12,,,59,127
46215,note_off,98,0,0,,12,,,59,127
46217,note_on,2,0,0,,3,,,63,127
46315,note_off,98,0,0,,3,,,63,127
46316,note_off,1,0,0,,6,,,66,127
46317,note_on,1,0,0,,6,,,66,127
46415,note_off,98,0,0,,6,,,66,127
46417,note_on,2,0,0,,10,,,69,127
46515,note_off,98,0,0,,10,,,69,127
46515,note_off,0,0,0,,3,,,75,127
46517,note_on,2,0,0,,12,,,47,127
46517,note_on,0,0,0,,6,,,78,127
46615,note_off,98,0,0,,6,,,78,127
46617,note_on,2,0,0,,10,,,69,127
46715,note_off,98,0,0,,10,,,69,127
46717,note_on,2,0,0,,4,,,76,127
46815,note_off,98,0,0,,4,,,76,127
46817,note_on,2,0,0,,7,,,67,127
46915,note_off,98,0,0,,7,,,67,127
46917,note_on,2,0,0,,3,,,75,127
47015,note_off,98,0,0,,3,,,75,127
47017,note_on,2,0,0,,6,,,66,127
47115,note_off,98,0,0,,6,,,66,127
47117,note_on,2,0,0,,1,,,73,127
47215,note_off,98,0,0,,1,,,73,127
47217,note_on,2,0,0,,4,,,64,127
47315,note_off,98,0,0,,4,,,64,127
47317,note_on,2,0,0,,6,,,66,127
47317,note_on,0,0,0,,3,,,75,127
47415,note_off,98,0,0,,12,,,47,127
47417,note_on,2,0,0,,12,,,47,127
47515,note_off,98,0,0,,12,,,47,127
47517,note_on,2,0,0,,3,,,51,127
47615,note_off,98,0,0,,3,,,51,127
47617,note_on,2,0,0,,6,,,54,127
47715,note_off,98,0,0,,6,,,54,127
47717,note_on,2,0,0,,12,,,59,127
47815,note_off,98,0,0,,12,,,59,127
47817,note_on,2,0,0,,3,,,63,127
47915,note_off,98,0,0,,3,,,63,127
47916,note_off,1,0,0,,6,,,66,127
47917,note_on,1,0,0,,6,,,66,127
48015,note_off,98,0,0,,6,,,66,127
48017,note_on,2,0,0,,10,,,69,127
48115,note_off,98,0,0,,10,,,69,127
48115,note_off,0,0,0,,3,,,75,127
48117,note_on,2,0,0,,12,,,47,127
48117,note_on,0,0,0,,12,,,83,127
48215,note_off,98,0,0,,12,,,83,127
48217,note_on,2,0,0,,3,,,75,127
48315,note_off,98,0,0,,3,,,75,127
48317,note_on,2,0,0,,10,,,81,127
48415,note_off,98,0,0,,10,,,81,127
48417,note_on,2,0,0,,1,,,73,127
48515,note_off,98,0,0,,1,,,73,127
48517,note_on,2,0,0,,7,,,79,127
48615,note_off,98,0,0,,7,,,79,127
48617,note_on,2,0,0,,12,,,71,127
48715,note_off,98,0,0,,12,,,71,127
48717,note_on,2,0,0,,6,,,78,127
48815,note_off,98,0,0,,6,,,78,127
48817,note_on,2,0,0,,10,,,69,127
48915,note_off,98,0,0,,10,,,69,127
48917,note_on,2,0,0,,12,,,71,127
48917,note_on,0,0,0,,7,,,79,127
49015,note_off,98,0,0,,12,,,47,127
49017,note_on,2,0,0,,4,,,52,127
49115,note_off,98,0,0,,4,,,52,127
49117,note_on,2,0,0,,7,,,55,127
49215,note_off,98,0,0,,7,,,55,127
49217,note_on,2,0,0,,12,,,59,127
49315,note_off,98,0,0,,12,,,59,127
49317,note_on,2,0,0,,4,,,64,127
49415,note_off,98,0,0,,4,,,64,127
49417,note_on,2,0,0,,7,,,67,127
49515,note_off,98,0,0,,7,,,67,127
49516,note_off,1,0,0,,12,,,71,127
49517,note_on,1,0,0,,12,,,71,127
49615,note_off,98,0,0,,12,,,71,127
49617,note_on,2,0,0,,7,,,67,127
49715,note_off,98,0,0,,7,,,67,127
49715,note_off,0,0,0,,7,,,79,127
49717,note_on,2,0,0,,12,,,47,127
49717,note_on,0,0,0,,12,,,83,127
49815,note_off,98,0,0,,12,,,83,127
49817,note_on,2,0,0,,3,,,75,127
49915,note_off,98,0,0,,3,,,75,127
49917,note_on,2,0,0,,10,,,81,127
50015,note_off,98,0,0,,10,,,81,127
50017,note_on,2,0,0,,1,,,73,127
50115,note_off,98,0,0,,1,,,73,127
50117,note_on,2,0,0,,7,,,79,127
50215,note_off,98,0,0,,7,,,79,127
50217,note_on,2,0,0,,12,,,71,127
50315,note_off,98,0,0,,12,,,71,127
50317,note_on,2,0,0,,6,,,78,127
50415,note_off,98,0,0,,6,,,78,127
50417,note_on,2,0,0,,10,,,69,127
50515,note_off,98,0,0,,10,,,69,127
50517,note_on,2,0,0,,7,,,79,127
50517,note_on,0,0,0,,12,,,71,127
50592,note_off,75,0,0,,12,,,47,127
50617,note_on,25,0,0,,4,,,52,127
50715,note_off,98,0,0,,4,,,52,127
50717,note_on,2,0,0,,7,,,55,127
50815,note_off,98,0,0,,7,,,55,127
50817,note_on,2,0,0,,12,,,59,127
50915,note_off,98,0,0,,12,,,59,127
50917,note_on,2,0,0,,4,,,64,127
51015,note_off,98,0,0,,4,,,64,127
51017,note_on,2,0,0,,7,,,67,127
51115,note_off,98,0,0,,7,,,67,127
51116,note_off,1,0,0,,12,,,71,127
51117,note_on,1,0,0,,12,,,71,127
51215,note_off,98,0,0,,12,,,71,127
51217,note_on,2,0,0,,7,,,67,127
51315,note_off,98,0,0,,7,,,67,127
51317,note_on,2,0,0,,4,,,52,127
51415,note_off,98,0,0,,7,,,79,127
51417,note_on,2,0,0,,12,,,71,127
51515,note_off,98,0,0,,12,,,71,127
51517,note_on,2,0,0,,0,,,72,127
51615,note_off,98,0,0,,0,,,72,127
51617,note_on,2,0,0,,12,,,71,127
51715,note_off,98,0,0,,12,,,71,127
51715,note_off,0,0,0,,4,,,52,127
51717,note_on,2,0,0,,4,,,76,127
51717,note_on,0,0,0,,7,,,79,127
51815,note_off,98,0,0,,7,,,79,127
51817,note_on,2,0,0,,12,,,71,127
51915,note_off,98,0,0,,12,,,71,127
51917,note_on,2,0,0,,0,,,72,127
52015,note_off,98,0,0,,0,,,72,127
52017,note_on,2,0,0,,12,,,71,127
52115,note_off,98,0,0,,12,,,71,127
52115,note_off,0,0,0,,4,,,76,127
52117,note_on,2,0,0,,0,,,72,127
52117,note_on,0,0,0,,4,,,76,127
52215,note_off,98,0,0,,4,,,76,127
52217,note_on,2,0,0,,7,,,67,127
52315,note_off,98,0,0,,7,,,67,127
52317,note_on,2,0,0,,10,,,69,127
52415,note_off,98,0,0,,10,,,69,127
52417,note_on,2,0,0,,7,,,67,127
52515,note_off,98,0,0,,7,,,67,127
52515,note_off,0,0,0,,0,,,72,127
52517,note_on,2,0,0,,10,,,69,127
52517,note_on,0,0,0,,0,,,72,127
52615,note_off,98,0,0,,0,,,72,127
52617,note_on,2,0,0,,4,,,64,127
52715,note_off,98,0,0,,4,,,64,127
52717,note_on,2,0,0,,6,,,66,127
52815,note_off,98,0,0,,6,,,66,127
52817,note_on,2,0,0,,4,,,64,127
52915,note_off,98,0,0,,4,,,64,127
52915,note_off,0,0,0,,10,,,69,127
52917,note_on,2,0,0,,12,,,47,127
52917,note_on,0,0,0,,12,,,71,127
52917,note_on,0,0,0,,6,,,66,127
52917,note_on,0,0,0,,3,,,63,127
53015,note_off,98,0,0,,3,,,63,127
53015,note_off,0,0,0,,6,,,66,127
53015,note_off,0,0,0,,12,,,71,127
53017,note_on,2,0,0,,12,,,71,127
53115,note_off,98,0,0,,12,,,71,127
53117,note_on,2,0,0,,0,,,72,127
53215,note_off,98,0,0,,0,,,72,127
53217,note_on,2,0,0,,12,,,71,127
53315,note_off,98,0,0,,12,,,71,127
53315,note_off,0,0,0,,12,,,47,127
53317,note_on,2,0,0,,4,,,76,127
53317,note_on,0,0,0,,7,,,79,127
53415,note_off,98,0,0,,7,,,79,127
53417,note_on,2,0,0,,12,,,71,127
53515,note_off,98,0,0,,12,,,71,127
53517,note_on,2,0,0,,0,,,72,127
53615,note_off,98,0,0,,0,,,72,127
53617,note_on,2,0,0,,12,,,71,127
53715,note_off,98,0,0,,12,,,71,127
53715,note_off,0,0,0,,4,,,76,127
53717,note_on,2,0,0,,0,,,72,127
53717,note_on,0,0,0,,4,,,76,127
53815,note_off,98,0,0,,4,,,76,127
53817,note_on,2,0,0,,7,,,67,127
53915,note_off,98,0,0,,7,,,67,127
53917,note_on,2,0,0,,10,,,69,127
54015,note_off,98,0,0,,10,,,69,127
54017,note_on,2,0,0,,7,,,67,127
54115,note_off,98,0,0,,7,,,67,127
54115,note_off,0,0,0,,0,,,72,127
54117,note_on,2,0,0,,10,,,69,127
54117,note_on,0,0,0,,0,,,72,127
54215,note_off,98,0,0,,0,,,72,127
54217,note_on,2,0,0,,4,,,64,127
54315,note_off,98,0,0,,4,,,64,127
54317,note_on,2,0,0,,6,,,66,127
54415,note_off,98,0,0,,6,,,66,127
54417,note_on,2,0,0,,4,,,64,127
54515,note_off,98,0,0,,4,,,64,127
54515,note_off,0,0,0,,10,,,69,127
54517,note_on,2,0,0,,12,,,47,127
54517,note_on,0,0,0,,3,,,63,127
54517,note_on,0,0,0,,12,,,71,127
54517,note_on,0,0,0,,6,,,66,127
54615,note_off,98,0,0,,6,,,66,127
54615,note_off,0,0,0,,12,,,71,127
54615,note_off,0,0,0,,3,,,63,127
54617,note_on,2,0,0,,12,,,71,127
54715,note_off,98,0,0,,12,,,71,127
54717,note_on,2,0,0,,0,,,72,127
54815,note_off,98,0,0,,0,,,72,127
54817,note_on,2,0,0,,12,,,71,127
54915,note_off,98,0,0,,12,,,71,127
54915,note_off,0,0,0,,12,,,47,127
54917,note_on,2,0,0,,4,,,76,127
54917,note_on,0,0,0,,7,,,79,127
55015,note_off,98,0,0,,7,,,79,127
55017,note_on,2,0,0,,12,,,71,127
55115,note_off,98,0,0,,12,,,71,127
55117,note_on,2,0,0,,0,,,72,127
55215,note_off,98,0,0,,0,,,72,127
55217,note_on,2,0,0,,12,,,71,127
55315,note_off,98,0,0,,12,,,71,127
55315,note_off,0,0,0,,4,,,76,127
55317,note_on,2,0,0,,0,,,72,127
55317,note_on,0,0,0,,4,,,76,127
55415,note_off,98,0,0,,4,,,76,127
55417,note_on,2,0,0,,7,,,67,127
55515,note_off,98,0,0,,7,,,67,127
55517,note_on,2,0,0,,10,,,69,127
55615,note_off,98,0,0,,10,,,69,127
55617,note_on,2,0,0,,7,,,67,127
55715,note_off,98,0,0,,7,,,67,127
55715,note_off,0,0,0,,0,,,72,127
55717,note_on,2,0,0,,10,,,69,127
55717,note_on,0,0,0,,0,,,72,127
55815,note_off,98,0,0,,0,,,72,127
55817,note_on,2,0,0,,4,,,64,127
55915,note_off,98,0,0,,4,,,64,127
55917,note_on,2,0,0,,6,,,66,127
56015,note_off,98,0,0,,6,,,66,127
56017,note_on,2,0,0,,4,,,64,127
56115,note_off,98,0,0,,4,,,64,127
56115,note_off,0,0,0,,10,,,69,127
56117,note_on,2,0,0,,12,,,47,127
56117,note_on,0,0,0,,6,,,66,127
56117,note_on,0,0,0,,3,,,63,127
56117,note_on,0,0,0,,12,,,71,127
56217,note_on,100,0,0,,12,,,59,127
56252,note_off,35,0,0,,12,,,47,127
56317,note_on,65,0,0,,12,,,47,127
56352,note_off,35,0,0,,12,,,59,127
56417,note_on,65,0,0,,10,,,57,127
56452,note_off,35,0,0,,12,,,47,127
56517,note_on,65,0,0,,12,,,47,127
56552,note_off,35,0,0,,10,,,57,127
56617,note_on,65,0,0,,7,,,55,127
56652,note_off,35,0,0,,12,,,47,127
56717,note_on,65,0,0,,12,,,47,127
56752,note_off,35,0,0,,7,,,55,127
56817,note_on,65,0,0,,6,,,54,127
56852,note_off,35,0,0,,12,,,47,127
56915,note_off,63,0,0,,12,,,71,127
56915,note_off,0,0,0,,3,,,63,127
56915,note_off,0,0,0,,6,,,66,127
56917,note_on,2,0,0,,12,,,47,127
56917,note_on,0,0,0,,10,,,69,127
56917,note_on,0,0,0,,6,,,66,127
56917,note_on,0,0,0,,0,,,72,127
56952,note_off,35,0,0,,6,,,54,127
57017,note_on,65,0,0,,10,,,57,127
57052,note_off,35,0,0,,12,,,47,127
57117,note_on,65,0,0,,12,,,47,127
57152,note_off,35,0,0,,10,,,57,127
57217,note_on,65,0,0,,7,,,55,127
57252,note_off,35,0,0,,12,,,47,127
57317,note_on,65,0,0,,12,,,47,127
57352,note_off,35,0,0,,7,,,55,127
57417,note_on,65,0,0,,6,,,54,127
57452,note_off,35,0,0,,12,,,47,127
57517,note_on,65,0,0,,12,,,47,127
57552,note_off,35,0,0,,6,,,54,127
57617,note_on,65,0,0,,4,,,52,127
57652,note_off,35,0,0,,12,,,47,127
57715,note_off,63,0,0,,0,,,72,127
57715,note_off,0,0,0,,6,,,66,127
57715,note_off,0,0,0,,10,,,69,127
57717,note_on,2,0,0,,12,,,47,127
57717,note_on,0,0,0,,6,,,66,127
57717,note_on,0,0,0,,3,,,63,127
57717,note_on,0,0,0,,12,,,71,127
57752,note_off,35,0,0,,4,,,52,127
57817,note_on,65,0,0,,12,,,59,127
57852,note_off,35,0,0,,12,,,47,127
57917,note_on,65,0,0,,12,,,47,127
57952,note_off,35,0,0,,12,,,59,127
58017,note_on,65,0,0,,10,,,57,127
58052,note_off,35,0,0,,12,,,47,127
58115,note_off,63,0,0,,12,,,71,127
58115,note_off,0,0,0,,3,,,63,127
58115,note_off,0,0,0,,6,,,66,127
58117,note_on,2,0,0,,12,,,47,127
58117,note_on,0,0,0,,4,,,64,127
58117,note_on,0,0,0,,12,,,71,127
58117,note_on,0,0,0,,7,,,67,127
58152,note_off,35,0,0,,10,,,57,127
58217,note_on,65,0,0,,7,,,55,127
58252,note_off,35,0,0,,12,,,47,127
58317,note_on,65,0,0,,12,,,47,127
58352,note_off,35,0,0,,7,,,55,127
58417,note_on,65,0,0,,6,,,54,127
58452,note_off,35,0,0,,12,,,47,127
58515,note_off,63,0,0,,7,,,67,127
58515,note_off,0,0,0,,12,,,71,127
58515,note_off,0,0,0,,4,,,64,127
58517,note_on,2,0,0,,12,,,47,127
58517,note_on,0,0,0,,4,,,64,127
58517,note_on,0,0,0,,0,,,72,127
58517,note_on,0,0,0,,10,,,69,127
58552,note_off,35,0,0,,6,,,54,127
58617,note_on,65,0,0,,10,,,57,127
58652,note_off,35,0,0,,12,,,47,127
58717,note_on,65,0,0,,12,,,47,127
58752,note_off,35,0,0,,10,,,57,127
58817,note_on,65,0,0,,7,,,55,127
58852,note_off,35,0,0,,12,,,47,127
58917,note_on,65,0,0,,12,,,47,127
58952,note_off,35,0,0,,7,,,55,127
59017,note_on,65,0,0,,6,,,54,127
59052,note_off,35,0,0,,12,,,47,127
59115,note_off,63,0,0,,10,,,69,127
59115,note_off,0,0,0,,0,,,72,127
59115,note_off,0,0,0,,4,,,64,127
59117,note_on,2,0,0,,12,,,47,127
59117,note_on,0,0,0,,10,,,69,127
59117,note_on,0,0,0,,4,,,64,127
59117,note_on,0,0,0,,0,,,72,127
59152,note_off,35,0,0,,6,,,54,127
59217,note_on,65,0,0,,4,,,52,127
59252,note_off,35,0,0,,12,,,47,127
59315,note_off,63,0,0,,0,,,72,127
59315,note_off,0,0,0,,4,,,64,127
59315,note_off,0,0,0,,10,,,69,127
59317,note_on,2,0,0,,12,,,47,127
59317,note_on,0,0,0,,3,,,63,127
59317,note_on,0,0,0,,12,,,71,127
59317,note_on,0,0,0,,6,,,66,127
59352,note_off,35,0,0,,4,,,52,127
59417,note_on,65,0,0,,12,,,59,127
59452,note_off,35,0,0,,12,,,47,127
59517,note_on,65,0,0,,12,,,47,127
59552,note_off,35,0,0,,12,,,59,127
59617,note_on,65,0,0,,10,,,57,127
59652,note_off,35,0,0,,12,,,47,127
59715,note_off,63,0,0,,6,,,66,127
59715,note_off,0,0,0,,12,,,71,127
59715,note_off,0,0,0,,3,,,63,127
59717,note_on,2,0,0,,12,,,47,127
59717,note_on,0,0,0,,12,,,71,127
59717,note_on,0,0,0,,4,,,64,127
59717,note_on,0,0,0,,7,,,67,127
59752,note_off,35,0,0,,10,,,57,127
59817,note_on,65,0,0,,7,,,55,127
59852,note_off,35,0,0,,12,,,47,127
59917,note_on,65,0,0,,12,,,47,127
59952,note_off,35,0,0,,7,,,55,127
60017,note_on,65,0,0,,6,,,54,127
60052,note_off,35,0,0,,12,,,47,127
60115,note_off,63,0,0,,7,,,67,127
60115,note_off,0,0,0,,4,,,64,127
60115,note_off,0,0,0,,12,,,71,127
60117,note_on,2,0,0,,12,,,47,127
60117,note_on,0,0,0,,0,,,72,127
60117,note_on,0,0,0,,10,,,69,127
60117,note_on,0,0,0,,4,,,64,127
60152,note_off,35,0,0,,6,,,54,127
60217,note_on,65,0,0,,10,,,57,127
60252,note_off,35,0,0,,12,,,47,127
60317,note_on,65,0,0,,12,,,47,127
60352,note_off,35,0,0,,10,,,57,127
60417,note_on,65,0,0,,7,,,55,127
60452,note_off,35,0,0,,12,,,47,127
60517,note_on,65,0,0,,12,,,47,127
60552,note_off,35,0,0,,7,,,55,127
60617,note_on,65,0,0,,6,,,54,127
60652,note_off,35,0,0,,12,,,47,127
60715,note_off,63,0,0,,4,,,64,127
60715,note_off,0,0,0,,10,,,69,127
60715,note_off,0,0,0,,0,,,72,127
60717,note_on,2,0,0,,12,,,47,127
60717,note_on,0,0,0,,4,,,64,127
60717,note_on,0,0,0,,0,,,72,127
60717,note_on,0,0,0,,10,,,69,127
60752,note_off,35,0,0,,6,,,54,127
60817,note_on,65,0,0,,4,,,52,127
60852,note_off,35,0,0,,12,,,47,127
60915,note_off,63,0,0,,10,,,69,127
60915,note_off,0,0,0,,0,,,72,127
60915,note_off,0,0,0,,4,,,64,127
60916,note_off,1,0,0,,4,,,52,127
60917,note_on,1,0,0,,12,,,47,127
60917,note_on,0,0,0,,6,,,66,127
60917,note_on,0,0,0,,3,,,63,127
60917,note_on,0,0,0,,12,,,71,127
61015,note_off,98,0,0,,12,,,47,127
61017,note_on,2,0,0,,12,,,59,127
61115,note_off,98,0,0,,12,,,59,127
61117,note_on,2,0,0,,11,,,58,127
61215,note_off,98,0,0,,11,,,58,127
61217,note_on,2,0,0,,12,,,59,127
61315,note_off,98,0,0,,12,,,59,127
61315,note_off,0,0,0,,12,,,71,127
61315,note_off,0,0,0,,3,,,63,127
61315,note_off,0,0,0,,6,,,66,127
61317,note_on,2,0,0,,1,,,49,127
61317,note_on,0,0,0,,4,,,64,127
61317,note_on,0,0,0,,10,,,69,127
61415,note_off,98,0,0,,1,,,49,127
61417,note_on,2,0,0,,12,,,59,127
61515,note_off,98,0,0,,12,,,59,127
61517,note_on,2,0,0,,11,,,58,127
61615,note_off,98,0,0,,11,,,58,127
61617,note_on,2,0,0,,12,,,59,127
61715,note_off,98,0,0,,12,,,59,127
61715,note_off,0,0,0,,10,,,69,127
61715,note_off,0,0,0,,4,,,64,127
61717,note_on,2,0,0,,3,,,51,127
61717,note_on,0,0,0,,6,,,66,127
61717,note_on,0,0,0,,10,,,69,127
61717,note_on,0,0,0,,3,,,63,127
61815,note_off,98,0,0,,3,,,51,127
61817,note_on,2,0,0,,12,,,59,127
61915,note_off,98,0,0,,12,,,59,127
61917,note_on,2,0,0,,11,,,58,127
62015,note_off,98,0,0,,11,,,58,127
62017,note_on,2,0,0,,12,,,59,127
62115,note_off,98,0,0,,12,,,59,127
62115,note_off,0,0,0,,3,,,63,127
62115,note_off,0,0,0,,10,,,69,127
62115,note_off,0,0,0,,6,,,66,127
62117,note_on,2,0,0,,4,,,52,127
62117,note_on,0,0,0,,7,,,67,127
62117,note_on,0,0,0,,4,,,64,127
62215,note_off,98,0,0,,4,,,52,127
62217,note_on,2,0,0,,12,,,59,127
62315,note_off,98,0,0,,12,,,59,127
62317,note_on,2,0,0,,11,,,58,127
62415,note_off,98,0,0,,11,,,58,127
62417,note_on,2,0,0,,12,,,59,127
62515,note_off,98,0,0,,12,,,59,127
62515,note_off,0,0,0,,4,,,64,127
62515,note_off,0,0,0,,7,,,67,127
62517,note_on,2,0,0,,12,,,47,127
62517,note_on,0,0,0,,6,,,66,127
62517,note_on,0,0,0,,3,,,63,127
62517,note_on,0,0,0,,12,,,71,127
62615,note_off,98,0,0,,12,,,47,127
62617,note_on,2,0,0,,12,,,59,127
62715,note_off,98,0,0,,12,,,59,127
62717,note_on,2,0,0,,11,,,58,127
62815,note_off,98,0,0,,11,,,58,127
62817,note_on,2,0,0,,12,,,59,127
62915,note_off,98,0,0,,12,,,59,127
62915,note_off,0,0,0,,12,,,71,127
62915,note_off,0,0,0,,3,,,63,127
62915,note_off,0,0,0,,6,,,66,127
62917,note_on,2,0,0,,1,,,49,127
62917,note_on,0,0,0,,4,,,64,127
62917,note_on,0,0,0,,10,,,69,127
63015,note_off,98,0,0,,1,,,49,127
63017,note_on,2,0,0,,12,,,59,127
63115,note_off,98,0,0,,12,,,59,127
63117,note_on,2,0,0,,11,,,58,127
63215,note_off,98,0,0,,11,,,58,127
63217,note_on,2,0,0,,12,,,59,127
63315,note_off,98,0,0,,12,,,59,127
63315,note_off,0,0,0,,10,,,69,127
63315,note_off,0,0,0,,4,,,64,127
63317,note_on,2,0,0,,3,,,51,127
63317,note_on,0,0,0,,10,,,69,127
63317,note_on,0,0,0,,6,,,66,127
63317,note_on,0,0,0,,3,,,63,127
63415,note_off,98,0,0,,3,,,51,127
63417,note_on,2,0,0,,12,,,59,127
63515,note_off,98,0,0,,12,,,59,127
63517,note_on,2,0,0,,11,,,58,127
63615,note_off,98,0,0,,11,,,58,127
63617,note_on,2,0,0,,12,,,59,127
63715,note_off,98,0,0,,12,,,59,127
63715,note_off,0,0,0,,3,,,63,127
63715,note_off,0,0,0,,6,,,66,127
63715,note_off,0,0,0,,10,,,69,127
63717,note_on,2,0,0,,4,,,52,127
63717,note_on,0,0,0,,7,,,67,127
63717,note_on,0,0,0,,4,,,64,127
63815,note_off,98,0,0,,4,,,52,127
63817,note_on,2,0,0,,12,,,59,127
63915,note_off,98,0,0,,12,,,59,127
63917,note_on,2,0,0,,11,,,58,127
64015,note_off,98,0,0,,11,,,58,127
64017,note_on,2,0,0,,12,,,59,127
64115,note_off,98,0,0,,12,,,59,127
64115,note_off,0,0,0,,4,,,64,127
64115,note_off,0,0,0,,7,,,67,127
64117,note_on,2,0,0,,12,,,47,127
64117,note_on,0,0,0,,3,,,63,127
64117,note_on,0,0,0,,6,,,66,127
64117,note_on,0,0,0,,12,,,71,127
64215,note_off,98,0,0,,12,,,47,127
64217,note_on,2,0,0,,12,,,59,127
64315,note_off,98,0,0,,12,,,59,127
64317,note_on,2,0,0,,11,,,58,127
64415,note_off,98,0,0,,11,,,58,127
64417,note_on,2,0,0,,12,,,59,127
64515,note_off,98,0,0,,12,,,59,127
64515,note_off,0,0,0,,12,,,71,127
64515,note_off,0,0,0,,6,,,66,127
64515,note_off,0,0,0,,3,,,63,127
64517,note_on,2,0,0,,1,,,49,127
64517,note_on,0,0,0,,4,,,64,127
64517,note_on,0,0,0,,10,,,69,127
64615,note_off,98,0,0,,1,,,49,127
64617,note_on,2,0,0,,12,,,59,127
64715,note_off,98,0,0,,12,,,59,127
64717,note_on,2,0,0,,11,,,58,127
64815,note_off,98,0,0,,11,,,58,127
64817,note_on,2,0,0,,12,,,59,127
64915,note_off,98,0,0,,12,,,59,127
64915,note_off,0,0,0,,10,,,69,127
64915,note_off,0,0,0,,4,,,64,127
64917,note_on,2,0,0,,3,,,51,127
64917,note_on,0,0,0,,6,,,66,127
64917,note_on,0,0,0,,10,,,69,127
64917,note_on,0,0,0,,3,,,63,127
65015,note_off,98,0,0,,3,,,51,127
65017,note_on,2,0,0,,12,,,59,127
65115,note_off,98,0,0,,12,,,59,127
65117,note_on,2,0,0,,11,,,58,127
65215,note_off,98,0,0,,11,,,58,127
65217,note_on,2,0,0,,12,,,59,127
65315,note_off,98,0,0,,12,,,59,127
65315,note_off,0,0,0,,3,,,63,127
65315,note_off,0,0,0,,10,,,69,127
65315,note_off,0,0,0,,6,,,66,127
65317,note_on,2,0,0,,4,,,52,127
65317,note_on,0,0,0,,4,,,64,127
65317,note_on,0,0,0,,7,,,67,127
65415,note_off,98,0,0,,4,,,52,127
65417,note_on,2,0,0,,12,,,59,127
65515,note_off,98,0,0,,12,,,59,127
65517,note_on,2,0,0,,11,,,58,127
65615,note_off,98,0,0,,11,,,58,127
65617,note_on,2,0,0,,12,,,59,127
65715,note_off,98,0,0,,12,,,59,127
65715,note_off,0,0,0,,7,,,67,127
65715,note_off,0,0,0,,4,,,64,127
65717,note_on,2,0,0,,12,,,47,127
65717,note_on,0,0,0,,6,,,66,127
65815,note_off,98,0,0,,6,,,66,127
65817,note_on,2,0,0,,12,,,59,127
65915,note_off,98,0,0,,12,,,59,127
65917,note_on,2,0,0,,11,,,58,127
66015,note_off,98,0,0,,11,,,58,127
66017,note_on,2,0,0,,12,,,59,127
66115,note_off,98,0,0,,12,,,59,127
66117,note_on,2,0,0,,3,,,63,127
66215,note_off,98,0,0,,3,,,63,127
66217,note_on,2,0,0,,12,,,59,127
66315,note_off,98,0,0,,12,,,59,127
66317,note_on,2,0,0,,6,,,66,127
66415,note_off,98,0,0,,6,,,66,127
66417,note_on,2,0,0,,3,,,63,127
66515,note_off,98,0,0,,3,,,63,127
66515,note_off,0,0,0,,12,,,47,127
66517,note_on,2,0,0,,12,,,47,127
66517,note_on,0,0,0,,12,,,71,127
66615,note_off,98,0,0,,12,,,71,127
66617,note_on,2,0,0,,3,,,63,127
66715,note_off,98,0,0,,3,,,63,127
66717,note_on,2,0,0,,6,,,66,127
66815,note_off,98,0,0,,6,,,66,127
66817,note_on,2,0,0,,12,,,71,127
66915,note_off,98,0,0,,12,,,71,127
66917,note_on,2,0,0,,3,,,75,127
67015,note_off,98,0,0,,3,,,75,127
67017,note_on,2,0,0,,12,,,71,127
67115,note_off,98,0,0,,12,,,71,127
67117,note_on,2,0,0,,3,,,75,127
67215,note_off,98,0,0,,3,,,75,127
67217,note_on,2,0,0,,6,,,78,127
67315,note_off,98,0,0,,6,,,78,127
67316,note_off,1,0,0,,12,,,47,127
67317,note_on,1,0,0,,12,,,83,127
68131,note_off,814,0,0,,12,,,83,127
68269,note_on,138,0,0,,6,,,78,127
68269,note_on,0,0,0,,3,,,75,127
68269,note_on,0,0,0,,3,,,63,127
68269,note_on,0,0,0,,12,,,59,127
68467,note_off,198,0,0,,3,,,75,127
68467,note_off,0,0,0,,6,,,78,127
68469,note_on,2,0,0,,7,,,79,127
68667,note_off,198,0,0,,7,,,79,127
68669,note_on,2,0,0,,6,,,78,127
68867,note_off,198,0,0,,6,,,78,127
68867,note_off,0,0,0,,12,,,59,127
68867,note_off,0,0,0,,3,,,63,127
68869,note_on,2,0,0,,11,,,70,127
68869,note_on,0,0,0,,1,,,61,127
68869,note_on,0,0,0,,4,,,64,127
69067,note_off,198,0,0,,4,,,64,127
69067,note_off,0,0,0,,1,,,61,127
69067,note_off,0,0,0,,11,,,70,127
69069,note_on,2,0,0,,12,,,71,127
69069,note_on,0,0,0,,3,,,63,127
69069,note_on,0,0,0,,6,,,66,127
69267,note_off,198,0,0,,12,,,71,127
69269,note_on,2,0,0,,0,,,84,127
69467,note_off,198,0,0,,0,,,84,127
69469,note_on,2,0,0,,12,,,83,127
69667,note_off,198,0,0,,12,,,83,127
69667,note_off,0,0,0,,6,,,66,127
69667,note_off,0,0,0,,3,,,63,127
69669,note_on,2,0,0,,10,,,81,127
69669,note_on,0,0,0,,3,,,63,127
69669,note_on,0,0,0,,6,,,66,127
69867,note_off,198,0,0,,6,,,66,127
69867,note_off,0,0,0,,3,,,63,127
69867,note_off,0,0,0,,10,,,81,127
69869,note_on,2,0,0,,7,,,79,127
69869,note_on,0,0,0,,4,,,64,127
69869,note_on,0,0,0,,7,,,67,127
70069,note_on,200,0,0,,12,,,71,127
70267,note_off,198,0,0,,12,,,71,127
70267,note_off,0,0,0,,7,,,67,127
70267,note_off,0,0,0,,4,,,64,127
70268,note_off,1,0,0,,7,,,79,127
70269,note_on,1,0,0,,0,,,72,127
70269,note_on,0,0,0,,3,,,63,127
70269,note_on,0,0,0,,6,,,66,127
70269,note_on,0,0,0,,10,,,69,127
70469,note_on,200,0,0,,6,,,78,127
70469,note_on,0,0,0,,10,,,81,127
70667,note_off,198,0,0,,10,,,69,127
70667,note_off,0,0,0,,6,,,66,127
70667,note_off,0,0,0,,3,,,63,127
70668,note_off,1,0,0,,0,,,72,127
70669,note_on,1,0,0,,12,,,71,127
70669,note_on,0,0,0,,4,,,64,127
70669,note_on,0,0,0,,7,,,67,127
70868,note_off,199,0,0,,10,,,81,127
70868,note_off,0,0,0,,6,,,78,127
70869,note_on,1,0,0,,7,,,79,127
70869,note_on,0,0,0,,4,,,76,127
71067,note_off,198,0,0,,7,,,67,127
71067,note_off,0,0,0,,4,,,64,127
71068,note_off,1,0,0,,12,,,71,127
71069,note_on,1,0,0,,0,,,72,127
71069,note_on,0,0,0,,6,,,66,127
71069,note_on,0,0,0,,10,,,69,127
71069,note_on,0,0,0,,3,,,63,127
71268,note_off,199,0,0,,4,,,76,127
71268,note_off,0,0,0,,7,,,79,127
71269,note_on,1,0,0,,6,,,78,127
71269,note_on,0,0,0,,10,,,81,127
71467,note_off,198,0,0,,3,,,63,127
71467,note_off,0,0,0,,10,,,69,127
71467,note_off,0,0,0,,6,,,66,127
71468,note_off,1,0,0,,0,,,72,127
71469,note_on,1,0,0,,12,,,71,127
71469,note_on,0,0,0,,7,,,67,127
71469,note_on,0,0,0,,4,,,64,127
71668,note_off,199,0,0,,10,,,81,127
71668,note_off,0,0,0,,6,,,78,127
71669,note_on,1,0,0,,4,,,76,127
71669,note_on,0,0,0,,7,,,79,127
71867,note_off,198,0,0,,4,,,64,127
71867,note_off,0,0,0,,7,,,67,127
71868,note_off,1,0,0,,12,,,71,127
71869,note_on,1,0,0,,0,,,72,127
71869,note_on,0,0,0,,10,,,69,127
71869,note_on,0,0,0,,3,,,63,127
71869,note_on,0,0,0,,6,,,66,127
72068,note_off,199,0,0,,7,,,79,127
72068,note_off,0,0,0,,4,,,76,127
72069,note_on,1,0,0,,10,,,81,127
72069,note_on,0,0,0,,6,,,78,127
72267,note_off,198,0,0,,6,,,78,127
72267,note_off,0,0,0,,10,,,81,127
72267,note_off,0,0,0,,6,,,66,127
72267,note_off,0,0,0,,3,,,63,127
72267,note_off,0,0,0,,10,,,69,127
72268,note_off,1,0,0,,0,,,72,127
72269,note_on,1,0,0,,8,,,80,127
72269,note_on,0,0,0,,12,,,71,127
72269,note_on,0,0,0,,4,,,64,127
72467,note_off,198,0,0,,12,,,71,127
72469,note_on,2,0,0,,5,,,77,127
72667,note_off,198,0,0,,5,,,77,127
72667,note_off,0,0,0,,4,,,64,127
72668,note_off,1,0,0,,8,,,80,127
72669,note_on,1,0,0,,4,,,76,127
72669,note_on,0,0,0,,12,,,71,127
72669,note_on,0,0,0,,4,,,64,127
72669,note_on,0,0,0,,8,,,68,127
72867,note_off,198,0,0,,4,,,76,127
72869,note_on,2,0,0,,2,,,74,127
72869,note_on,0,0,0,,12,,,83,127
73067,note_off,198,0,0,,2,,,74,127
73067,note_off,0,0,0,,8,,,68,127
73067,note_off,0,0,0,,4,,,64,127
73067,note_off,0,0,0,,12,,,71,127
73069,note_on,2,0,0,,4,,,76,127
73069,note_on,0,0,0,,0,,,72,127
73069,note_on,0,0,0,,4,,,64,127
73069,note_on,0,0,0,,10,,,69,127
73268,note_off,199,0,0,,12,,,83,127
73269,note_on,1,0,0,,0,,,84,127
73467,note_off,198,0,0,,10,,,69,127
73467,note_off,0,0,0,,4,,,64,127
73467,note_off,0,0,0,,0,,,72,127
73468,note_off,1,0,0,,4,,,76,127
73469,note_on,1,0,0,,5,,,77,127
73469,note_on,0,0,0,,2,,,74,127
73469,note_on,0,0,0,,4,,,64,127
73469,note_on,0,0,0,,12,,,71,127
73668,note_off,199,0,0,,0,,,84,127
73669,note_on,1,0,0,,12,,,83,127
73867,note_off,198,0,0,,12,,,71,127
73867,note_off,0,0,0,,4,,,64,127
73867,note_off,0,0,0,,2,,,74,127
73868,note_off,1,0,0,,5,,,77,127
73869,note_on,1,0,0,,4,,,76,127
73869,note_on,0,0,0,,10,,,69,127
73869,note_on,0,0,0,,0,,,72,127
73869,note_on,0,0,0,,4,,,64,127
74068,note_off,199,0,0,,12,,,83,127
74069,note_on,1,0,0,,0,,,84,127
74267,note_off,198,0,0,,4,,,64,127
74267,note_off,0,0,0,,0,,,72,127
74267,note_off,0,0,0,,10,,,69,127
74268,note_off,1,0,0,,4,,,76,127
74269,note_on,1,0,0,,5,,,77,127
74269,note_on,0,0,0,,2,,,74,127
74269,note_on,0,0,0,,4,,,64,127
74269,note_on,0,0,0,,12,,,71,127
74468,note_off,199,0,0,,0,,,84,127
74469,note_on,1,0,0,,12,,,83,127
74667,note_off,198,0,0,,12,,,71,127
74667,note_off,0,0,0,,4,,,64,127
74667,note_off,0,0,0,,2,,,74,127
74668,note_off,1,0,0,,5,,,77,127
74669,note_on,1,0,0,,4,,,76,127
74669,note_on,0,0,0,,10,,,69,127
74669,note_on,0,0,0,,0,,,72,127
74669,note_on,0,0,0,,4,,,64,127
74868,note_off,199,0,0,,12,,,83,127
74869,note_on,1,0,0,,10,,,81,127
75067,note_off,198,0,0,,4,,,64,127
75067,note_off,0,0,0,,0,,,72,127
75067,note_off,0,0,0,,10,,,69,127
75068,note_off,1,0,0,,4,,,76,127
75069,note_on,1,0,0,,2,,,74,127
75069,note_on,0,0,0,,12,,,71,127
75069,note_on,0,0,0,,4,,,64,127
75268,note_off,199,0,0,,10,,,81,127
75269,note_on,1,0,0,,8,,,80,127
75467,note_off,198,0,0,,8,,,80,127
75467,note_off,0,0,0,,4,,,64,127
75467,note_off,0,0,0,,12,,,71,127
75468,note_off,1,0,0,,2,,,74,127
75469,note_on,1,0,0,,8,,,80,127
75469,note_on,0,0,0,,2,,,74,127
75469,note_on,0,0,0,,10,,,45,127
75667,note_off,198,0,0,,10,,,45,127
75667,note_off,0,0,0,,2,,,74,127
75667,note_off,0,0,0,,8,,,80,127
75669,note_on,2,0,0,,10,,,81,127
75669,note_on,0,0,0,,1,,,73,127
75669,note_on,0,0,0,,10,,,57,127
75867,note_off,198,0,0,,10,,,57,127
75869,note_on,2,0,0,,1,,,61,127
76023,note_off,154,0,0,,1,,,73,127
76023,note_off,0,0,0,,10,,,81,127
76067,note_off,44,0,0,,1,,,61,127
76069,note_on,2,0,0,,10,,,81,127
76069,note_on,0,0,0,,1,,,73,127
76069,note_on,0,0,0,,4,,,64,127
76267,note_off,198,0,0,,4,,,64,127
76267,note_off,0,0,0,,1,,,73,127
76267,note_off,0,0,0,,10,,,81,127
76269,note_on,2,0,0,,10,,,81,127
76269,note_on,0,0,0,,1,,,73,127
76269,note_on,0,0,0,,10,,,45,127
76467,note_off,198,0,0,,1,,,73,127
76467,note_off,0,0,0,,10,,,81,127
76469,note_on,2,0,0,,7,,,79,127
76469,note_on,0,0,0,,4,,,76,127
76667,note_off,198,0,0,,4,,,76,127
76667,note_off,0,0,0,,7,,,79,127
76669,note_on,2,0,0,,7,,,79,127
76669,note_on,0,0,0,,4,,,76,127
76867,note_off,198,0,0,,4,,,76,127
76867,note_off,0,0,0,,7,,,79,127
76869,note_on,2,0,0,,2,,,74,127
76869,note_on,0,0,0,,5,,,77,127
77067,note_off,198,0,0,,5,,,77,127
77067,note_off,0,0,0,,2,,,74,127
77067,note_off,0,0,0,,10,,,45,127
77069,note_on,2,0,0,,5,,,77,127
77069,note_on,0,0,0,,2,,,74,127
77069,note_on,0,0,0,,10,,,45,127
77267,note_off,198,0,0,,10,,,45,127
77267,note_off,0,0,0,,2,,,74,127
77267,note_off,0,0,0,,5,,,77,127
77269,note_on,2,0,0,,7,,,79,127
77269,note_on,0,0,0,,4,,,76,127
77269,note_on,0,0,0,,10,,,57,127
77467,note_off,198,0,0,,10,,,57,127
77469,note_on,2,0,0,,1,,,61,127
77655,note_off,186,0,0,,4,,,76,127
77655,note_off,0,0,0,,7,,,79,127
77668,note_off,13,0,0,,1,,,61,127
77670,note_on,2,0,0,,4,,,76,127
77670,note_on,0,0,0,,7,,,79,127
77670,note_on,0,0,0,,4,,,64,127
77868,note_off,198,0,0,,4,,,64,127
77868,note_off,0,0,0,,7,,,79,127
77868,note_off,0,0,0,,4,,,76,127
77870,note_on,2,0,0,,4,,,76,127
77870,note_on,0,0,0,,7,,,79,127
77870,note_on,0,0,0,,10,,,45,127
78068,note_off,198,0,0,,7,,,79,127
78068,note_off,0,0,0,,4,,,76,127
78070,note_on,2,0,0,,5,,,77,127
78070,note_on,0,0,0,,2,,,74,127
78268,note_off,198,0,0,,2,,,74,127
78268,note_off,0,0,0,,5,,,77,127
78270,note_on,2,0,0,,5,,,77,127
78270,note_on,0,0,0,,2,,,74,127
78468,note_off,198,0,0,,2,,,74,127
78468,note_off,0,0,0,,5,,,77,127
78470,note_on,2,0,0,,1,,,73,127
78470,note_on,0,0,0,,4,,,76,127
78668,note_off,198,0,0,,4,,,76,127
78668,note_off,0,0,0,,1,,,73,127
78668,note_off,0,0,0,,10,,,45,127
78670,note_on,2,0,0,,1,,,73,127
78670,note_on,0,0,0,,4,,,76,127
78670,note_on,0,0,0,,10,,,45,127
78868,note_off,198,0,0,,10,,,45,127
78868,note_off,0,0,0,,4,,,76,127
78868,note_off,0,0,0,,1,,,73,127
78870,note_on,2,0,0,,2,,,74,127
78870,note_on,0,0,0,,5,,,77,127
78870,note_on,0,0,0,,10,,,57,127
79068,note_off,198,0,0,,10,,,57,127
79070,note_on,2,0,0,,2,,,62,127
79256,note_off,186,0,0,,5,,,77,127
79256,note_off,0,0,0,,2,,,74,127
79269,note_off,13,0,0,,2,,,62,127
79271,note_on,2,0,0,,2,,,74,127
79271,note_on,0,0,0,,5,,,77,127
79271,note_on,0,0,0,,5,,,65,127
79469,note_off,198,0,0,,5,,,65,127
79469,note_off,0,0,0,,5,,,77,127
79469,note_off,0,0,0,,2,,,74,127
79471,note_on,2,0,0,,5,,,77,127
79471,note_on,0,0,0,,2,,,74,127
79471,note_on,0,0,0,,10,,,45,127
79669,note_off,198,0,0,,2,,,74,127
79669,note_off,0,0,0,,5,,,77,127
79671,note_on,2,0,0,,4,,,76,127
79671,note_on,0,0,0,,1,,,73,127
79869,note_off,198,0,0,,1,,,73,127
79869,note_off,0,0,0,,4,,,76,127
79871,note_on,2,0,0,,1,,,73,127
79871,note_on,0,0,0,,4,,,76,127
80069,note_off,198,0,0,,4,,,76,127
80069,note_off,0,0,0,,1,,,73,127
80071,note_on,2,0,0,,12,,,71,127
80071,note_on,0,0,0,,2,,,74,127
80269,note_off,198,0,0,,2,,,74,127
80269,note_off,0,0,0,,12,,,71,127
80269,note_off,0,0,0,,10,,,45,127
80271,note_on,2,0,0,,2,,,74,127
80271,note_on,0,0,0,,12,,,71,127
80271,note_on,0,0,0,,10,,,45,127
80469,note_off,198,0,0,,10,,,45,127
80469,note_off,0,0,0,,12,,,71,127
80469,note_off,0,0,0,,2,,,74,127
80471,note_on,2,0,0,,4,,,76,127
80471,note_on,0,0,0,,1,,,73,127
80471,note_on,0,0,0,,10,,,57,127
80669,note_off,198,0,0,,10,,,57,127
80671,note_on,2,0,0,,1,,,61,127
80805,note_off,134,0,0,,1,,,73,127
80805,note_off,0,0,0,,4,,,76,127
80870,note_off,65,0,0,,1,,,61,127
80872,note_on,2,0,0,,4,,,76,127
80872,note_on,0,0,0,,1,,,73,127
80872,note_on,0,0,0,,4,,,64,127
81070,note_off,198,0,0,,4,,,64,127
81070,note_off,0,0,0,,1,,,73,127
81070,note_off,0,0,0,,4,,,76,127
81072,note_on,2,0,0,,4,,,76,127
81072,note_on,0,0,0,,1,,,73,127
81072,note_on,0,0,0,,10,,,45,127
81270,note_off,198,0,0,,1,,,73,127
81270,note_off,0,0,0,,4,,,76,127
81272,note_on,2,0,0,,6,,,78,127
81272,note_on,0,0,0,,2,,,74,127
81470,note_off,198,0,0,,2,,,74,127
81470,note_off,0,0,0,,6,,,78,127
81472,note_on,2,0,0,,7,,,79,127
81472,note_on,0,0,0,,4,,,76,127
81670,note_off,198,0,0,,4,,,76,127
81670,note_off,0,0,0,,7,,,79,127
81672,note_on,2,0,0,,6,,,78,127
81672,note_on,0,0,0,,2,,,74,127
81870,note_off,198,0,0,,2,,,74,127
81870,note_off,0,0,0,,6,,,78,127
81870,note_off,0,0,0,,10,,,45,127
81872,note_on,2,0,0,,2,,,74,127
81872,note_on,0,0,0,,6,,,78,127
81872,note_on,0,0,0,,10,,,45,127
82070,note_off,198,0,0,,10,,,45,127
82070,note_off,0,0,0,,6,,,78,127
82070,note_off,0,0,0,,2,,,74,127
82072,note_on,2,0,0,,4,,,76,127
82072,note_on,0,0,0,,1,,,73,127
82072,note_on,0,0,0,,10,,,57,127
82270,note_off,198,0,0,,10,,,57,127
82272,note_on,2,0,0,,1,,,61,127
82458,note_off,186,0,0,,1,,,73,127
82458,note_off,0,0,0,,4,,,76,127
82471,note_off,13,0,0,,1,,,61,127
82473,note_on,2,0,0,,4,,,76,127
82473,note_on,0,0,0,,1,,,73,127
82473,note_on,0,0,0,,4,,,64,127
82671,note_off,198,0,0,,4,,,64,127
82671,note_off,0,0,0,,1,,,73,127
82671,note_off,0,0,0,,4,,,76,127
82673,note_on,2,0,0,,4,,,76,127
82673,note_on,0,0,0,,1,,,73,127
82673,note_on,0,0,0,,7,,,43,127
82871,note_off,198,0,0,,1,,,73,127
82871,note_off,0,0,0,,4,,,76,127
82873,note_on,2,0,0,,2,,,74,127
82873,note_on,0,0,0,,6,,,78,127
83071,note_off,198,0,0,,6,,,78,127
83071,note_off,0,0,0,,2,,,74,127
83073,note_on,2,0,0,,7,,,79,127
83073,note_on,0,0,0,,4,,,76,127
83271,note_off,198,0,0,,4,,,76,127
83271,note_off,0,0,0,,7,,,79,127
83273,note_on,2,0,0,,10,,,81,127
83273,note_on,0,0,0,,6,,,78,127
83471,note_off,198,0,0,,6,,,78,127
83471,note_off,0,0,0,,10,,,81,127
83471,note_off,0,0,0,,7,,,43,127
83473,note_on,2,0,0,,6,,,78,127
83473,note_on,0,0,0,,10,,,81,127
83473,note_on,0,0,0,,7,,,43,127
83671,note_off,198,0,0,,7,,,43,127
83671,note_off,0,0,0,,10,,,81,127
83671,note_off,0,0,0,,6,,,78,127
83673,note_on,2,0,0,,7,,,79,127
83673,note_on,0,0,0,,4,,,76,127
83673,note_on,0,0,0,,7,,,55,127
83871,note_off,198,0,0,,7,,,55,127
83873,note_on,2,0,0,,1,,,61,127
84059,note_off,186,0,0,,4,,,76,127
84059,note_off,0,0,0,,7,,,79,127
84072,note_off,13,0,0,,1,,,61,127
84074,note_on,2,0,0,,7,,,79,127
84074,note_on,0,0,0,,4,,,76,127
84074,note_on,0,0,0,,4,,,64,127
84272,note_off,198,0,0,,4,,,64,127
84272,note_off,0,0,0,,4,,,76,127
84272,note_off,0,0,0,,7,,,79,127
84274,note_on,2,0,0,,7,,,79,127
84274,note_on,0,0,0,,4,,,76,127
84274,note_on,0,0,0,,7,,,43,127
84472,note_off,198,0,0,,4,,,76,127
84472,note_off,0,0,0,,7,,,79,127
84474,note_on,2,0,0,,6,,,78,127
84474,note_on,0,0,0,,2,,,74,127
84670,note_off,196,0,0,,7,,,43,127
84672,note_off,2,0,0,,2,,,74,127
84672,note_off,0,0,0,,6,,,78,127
84674,note_on,2,0,0,,1,,,73,127
84674,note_on,0,0,0,,4,,,76,127
84872,note_off,198,0,0,,4,,,76,127
84872,note_off,0,0,0,,1,,,73,127
84874,note_on,2,0,0,,12,,,71,127
84874,note_on,0,0,0,,2,,,74,127
85072,note_off,198,0,0,,2,,,74,127
85072,note_off,0,0,0,,12,,,71,127
85074,note_on,2,0,0,,1,,,73,127
85074,note_on,0,0,0,,11,,,70,127
85074,note_on,0,0,0,,6,,,78,127
85074,note_on,0,0,0,,6,,,54,127
85174,note_on,100,0,0,,6,,,66,127
85209,note_off,35,0,0,,6,,,54,127
85274,note_on,65,0,0,,6,,,54,127
85309,note_off,35,0,0,,6,,,66,127
85374,note_on,65,0,0,,4,,,64,127
85409,note_off,35,0,0,,6,,,54,127
85474,note_on,65,0,0,,6,,,54,127
85509,note_off,35,0,0,,4,,,64,127
85574,note_on,65,0,0,,2,,,62,127
85609,note_off,35,0,0,,6,,,54,127
85672,note_off,63,0,0,,6,,,78,127
85672,note_off,0,0,0,,11,,,70,127
85672,note_off,0,0,0,,1,,,73,127
85674,note_on,2,0,0,,6,,,78,127
85674,note_on,0,0,0,,1,,,73,127
85674,note_on,0,0,0,,11,,,70,127
85674,note_on,0,0,0,,6,,,54,127
85709,note_off,35,0,0,,2,,,62,127
85774,note_on,65,0,0,,1,,,61,127
85809,note_off,35,0,0,,6,,,54,127
85872,note_off,63,0,0,,11,,,70,127
85872,note_off,0,0,0,,1,,,73,127
85872,note_off,0,0,0,,6,,,78,127
85874,note_on,2,0,0,,12,,,71,127
85874,note_on,0,0,0,,7,,,79,127
85874,note_on,0,0,0,,4,,,76,127
85874,note_on,0,0,0,,4,,,52,127
85909,note_off,35,0,0,,1,,,61,127
85974,note_on,65,0,0,,4,,,64,127
86009,note_off,35,0,0,,4,,,52,127
86074,note_on,65,0,0,,4,,,52,127
86109,note_off,35,0,0,,4,,,64,127
86174,note_on,65,0,0,,2,,,62,127
86209,note_off,35,0,0,,4,,,52,127
86272,note_off,63,0,0,,4,,,76,127
86272,note_off,0,0,0,,7,,,79,127
86272,note_off,0,0,0,,12,,,71,127
86274,note_on,2,0,0,,4,,,76,127
86274,note_on,0,0,0,,12,,,71,127
86274,note_on,0,0,0,,7,,,79,127
86274,note_on,0,0,0,,4,,,52,127
86309,note_off,35,0,0,,2,,,62,127
86374,note_on,65,0,0,,1,,,61,127
86409,note_off,35,0,0,,4,,,52,127
86474,note_on,65,0,0,,4,,,52,127
86509,note_off,35,0,0,,1,,,61,127
86574,note_on,65,0,0,,12,,,59,127
86609,note_off,35,0,0,,4,,,52,127
86672,note_off,63,0,0,,7,,,79,127
86672,note_off,0,0,0,,12,,,71,127
86672,note_off,0,0,0,,4,,,76,127
86674,note_on,2,0,0,,6,,,78,127
86674,note_on,0,0,0,,11,,,70,127
86674,note_on,0,0,0,,1,,,73,127
86674,note_on,0,0,0,,6,,,54,127
86709,note_off,35,0,0,,12,,,59,127
86774,note_on,65,0,0,,6,,,66,127
86809,note_off,35,0,0,,6,,,54,127
86874,note_on,65,0,0,,6,,,54,127
86909,note_off,35,0,0,,6,,,66,127
86974,note_on,65,0,0,,4,,,64,127
87009,note_off,35,0,0,,6,,,54,127
87074,note_on,65,0,0,,6,,,54,127
87109,note_off,35,0,0,,4,,,64,127
87174,note_on,65,0,0,,2,,,62,127
87209,note_off,35,0,0,,6,,,54,127
87272,note_off,63,0,0,,1,,,73,127
87272,note_off,0,0,0,,11,,,70,127
87272,note_off,0,0,0,,6,,,78,127
87274,note_on,2,0,0,,6,,,78,127
87274,note_on,0,0,0,,1,,,73,127
87274,note_on,0,0,0,,11,,,70,127
87274,note_on,0,0,0,,6,,,54,127
87309,note_off,35,0,0,,2,,,62,127
87374,note_on,65,0,0,,1,,,61,127
87409,note_off,35,0,0,,6,,,54,127
87472,note_off,63,0,0,,11,,,70,127
87472,note_off,0,0,0,,1,,,73,127
87472,note_off,0,0,0,,6,,,78,127
87474,note_on,2,0,0,,12,,,71,127
87474,note_on,0,0,0,,7,,,79,127
87474,note_on,0,0,0,,4,,,76,127
87474,note_on,0,0,0,,4,,,52,127
87509,note_off,35,0,0,,1,,,61,127
87574,note_on,65,0,0,,4,,,64,127
87609,note_off,35,0,0,,4,,,52,127
87674,note_on,65,0,0,,4,,,52,127
87709,note_off,35,0,0,,4,,,64,127
87774,note_on,65,0,0,,2,,,62,127
87809,note_off,35,0,0,,4,,,52,127
87872,note_off,63,0,0,,4,,,76,127
87872,note_off,0,0,0,,7,,,79,127
87872,note_off,0,0,0,,12,,,71,127
87874,note_on,2,0,0,,12,,,71,127
87874,note_on,0,0,0,,7,,,79,127
87874,note_on,0,0,0,,4,,,76,127
87874,note_on,0,0,0,,4,,,52,127
87909,note_off,35,0,0,,2,,,62,127
87974,note_on,65,0,0,,1,,,61,127
88009,note_off,35,0,0,,4,,,52,127
88074,note_on,65,0,0,,4,,,52,127
88109,note_off,35,0,0,,1,,,61,127
88174,note_on,65,0,0,,12,,,59,127
88209,note_off,35,0,0,,4,,,52,127
88272,note_off,63,0,0,,4,,,76,127
88272,note_off,0,0,0,,7,,,79,127
88272,note_off,0,0,0,,12,,,71,127
88274,note_on,2,0,0,,6,,,78,127
88274,note_on,0,0,0,,1,,,73,127
88274,note_on,0,0,0,,11,,,70,127
88274,note_on,0,0,0,,6,,,54,127
88309,note_off,35,0,0,,12,,,59,127
88374,note_on,65,0,0,,6,,,66,127
88409,note_off,35,0,0,,6,,,54,127
88474,note_on,65,0,0,,6,,,54,127
88509,note_off,35,0,0,,6,,,66,127
88574,note_on,65,0,0,,4,,,64,127
88609,note_off,35,0,0,,6,,,54,127
88674,note_on,65,0,0,,6,,,54,127
88709,note_off,35,0,0,,4,,,64,127
88774,note_on,65,0,0,,3,,,63,127
88809,note_off,35,0,0,,6,,,54,127
88872,note_off,63,0,0,,11,,,70,127
88872,note_off,0,0,0,,1,,,73,127
88872,note_off,0,0,0,,6,,,78,127
88874,note_on,2,0,0,,1,,,73,127
88874,note_on,0,0,0,,11,,,70,127
88874,note_on,0,0,0,,4,,,76,127
88874,note_on,0,0,0,,6,,,54,127
88909,note_off,35,0,0,,3,,,63,127
88974,note_on,65,0,0,,1,,,61,127
89009,note_off,35,0,0,,6,,,54,127
89072,note_off,63,0,0,,4,,,76,127
89072,note_off,0,0,0,,11,,,70,127
89072,note_off,0,0,0,,1,,,73,127
89074,note_on,2,0,0,,3,,,75,127
89074,note_on,0,0,0,,12,,,71,127
89074,note_on,0,0,0,,12,,,59,127
89109,note_off,35,0,0,,1,,,61,127
89173,note_off,64,0,0,,12,,,71,127
89174,note_on,1,0,0,,12,,,71,127
89209,note_off,35,0,0,,12,,,59,127
89274,note_on,65,0,0,,12,,,59,127
89309,note_off,35,0,0,,12,,,71,127
89374,note_on,65,0,0,,10,,,69,127
89409,note_off,35,0,0,,12,,,59,127
89474,note_on,65,0,0,,12,,,59,127
89509,note_off,35,0,0,,10,,,69,127
89574,note_on,65,0,0,,7,,,67,127
89609,note_off,35,0,0,,12,,,59,127
89672,note_off,63,0,0,,3,,,75,127
89674,note_on,2,0,0,,3,,,75,127
89674,note_on,0,0,0,,12,,,83,127
89674,note_on,0,0,0,,6,,,78,127
89674,note_on,0,0,0,,12,,,59,127
89709,note_off,35,0,0,,7,,,67,127
89774,note_on,65,0,0,,6,,,66,127
89809,note_off,35,0,0,,12,,,59,127
89872,note_off,63,0,0,,6,,,78,127
89872,note_off,0,0,0,,12,,,83,127
89872,note_off,0,0,0,,3,,,75,127
89874,note_on,2,0,0,,0,,,84,127
89874,note_on,0,0,0,,10,,,81,127
89874,note_on,0,0,0,,4,,,76,127
89874,note_on,0,0,0,,12,,,59,127
89909,note_off,35,0,0,,6,,,66,127
89974,note_on,65,0,0,,10,,,69,127
90009,note_off,35,0,0,,12,,,59,127
90074,note_on,65,0,0,,12,,,59,127
90109,note_off,35,0,0,,10,,,69,127
90174,note_on,65,0,0,,7,,,67,127
90209,note_off,35,0,0,,12,,,59,127
90274,note_on,65,0,0,,12,,,59,127
90309,note_off,35,0,0,,7,,,67,127
90374,note_on,65,0,0,,6,,,66,127
90409,note_off,35,0,0,,12,,,59,127
90472,note_off,63,0,0,,4,,,76,127
90472,note_off,0,0,0,,10,,,81,127
90472,note_off,0,0,0,,0,,,84,127
90474,note_on,2,0,0,,10,,,81,127
90474,note_on,0,0,0,,4,,,76,127
90474,note_on,0,0,0,,0,,,84,127
90474,note_on,0,0,0,,12,,,59,127
90509,note_off,35,0,0,,6,,,66,127
90574,note_on,65,0,0,,4,,,64,127
90609,note_off,35,0,0,,12,,,59,127
90672,note_off,63,0,0,,0,,,84,127
90672,note_off,0,0,0,,4,,,76,127
90672,note_off,0,0,0,,10,,,81,127
90674,note_on,2,0,0,,12,,,83,127
90674,note_on,0,0,0,,6,,,78,127
90674,note_on,0,0,0,,3,,,75,127
90674,note_on,0,0,0,,12,,,59,127
90709,note_off,35,0,0,,4,,,64,127
90774,note_on,65,0,0,,12,,,71,127
90809,note_off,35,0,0,,12,,,59,127
90874,note_on,65,0,0,,12,,,59,127
90909,note_off,35,0,0,,12,,,71,127
90974,note_on,65,0,0,,10,,,69,127
91009,note_off,35,0,0,,12,,,59,127
91074,note_on,65,0,0,,12,,,59,127
91109,note_off,35,0,0,,10,,,69,127
91174,note_on,65,0,0,,7,,,67,127
91209,note_off,35,0,0,,12,,,59,127
91272,note_off,63,0,0,,3,,,75,127
91272,note_off,0,0,0,,6,,,78,127
91272,note_off,0,0,0,,12,,,83,127
91274,note_on,2,0,0,,6,,,78,127
91274,note_on,0,0,0,,3,,,75,127
91274,note_on,0,0,0,,12,,,83,127
91274,note_on,0,0,0,,12,,,59,127
91309,note_off,35,0,0,,7,,,67,127
91374,note_on,65,0,0,,6,,,66,127
91409,note_off,35,0,0,,12,,,59,127
91472,note_off,63,0,0,,12,,,83,127
91472,note_off,0,0,0,,3,,,75,127
91472,note_off,0,0,0,,6,,,78,127
91474,note_on,2,0,0,,0,,,84,127
91474,note_on,0,0,0,,10,,,81,127
91474,note_on,0,0,0,,4,,,76,127
91474,note_on,0,0,0,,12,,,59,127
91509,note_off,35,0,0,,6,,,66,127
91574,note_on,65,0,0,,10,,,69,127
91609,note_off,35,0,0,,12,,,59,127
91674,note_on,65,0,0,,12,,,59,127
91709,note_off,35,0,0,,10,,,69,127
91774,note_on,65,0,0,,7,,,67,127
91809,note_off,35,0,0,,12,,,59,127
91874,note_on,65,0,0,,12,,,59,127
91909,note_off,35,0,0,,7,,,67,127
91974,note_on,65,0,0,,6,,,66,127
92009,note_off,35,0,0,,12,,,59,127
92072,note_off,63,0,0,,4,,,76,127
92072,note_off,0,0,0,,10,,,81,127
92072,note_off,0,0,0,,0,,,84,127
92074,note_on,2,0,0,,4,,,76,127
92074,note_on,0,0,0,,0,,,84,127
92074,note_on,0,0,0,,10,,,81,127
92074,note_on,0,0,0,,12,,,59,127
92109,note_off,35,0,0,,6,,,66,127
92174,note_on,65,0,0,,4,,,64,127
92209,note_off,35,0,0,,12,,,59,127
92272,note_off,63,0,0,,4,,,64,127
92272,note_off,0,0,0,,10,,,81,127
92272,note_off,0,0,0,,0,,,84,127
92272,note_off,0,0,0,,4,,,76,127
92274,note_on,2,0,0,,3,,,75,127
92274,note_on,0,0,0,,12,,,83,127
92274,note_on,0,0,0,,6,,,78,127
92274,note_on,0,0,0,,12,,,47,127
92472,note_off,198,0,0,,12,,,47,127
92474,note_on,2,0,0,,12,,,59,127
92672,note_off,198,0,0,,12,,,59,127
92674,note_on,2,0,0,,3,,,63,127
92872,note_off,198,0,0,,3,,,63,127
92872,note_off,0,0,0,,6,,,78,127
92872,note_off,0,0,0,,12,,,83,127
92872,note_off,0,0,0,,3,,,75,127
92874,note_on,2,0,0,,6,,,78,127
92874,note_on,0,0,0,,3,,,75,127
92874,note_on,0,0,0,,6,,,66,127
93072,note_off,198,0,0,,6,,,66,127
93072,note_off,0,0,0,,3,,,75,127
93072,note_off,0,0,0,,6,,,78,127
93074,note_on,2,0,0,,3,,,75,127
93074,note_on,0,0,0,,6,,,78,127
93074,note_on,0,0,0,,12,,,47,127
93272,note_off,198,0,0,,6,,,78,127
93272,note_off,0,0,0,,3,,,75,127
93274,note_on,2,0,0,,7,,,79,127
93274,note_on,0,0,0,,4,,,76,127
93472,note_off,198,0,0,,4,,,76,127
93472,note_off,0,0,0,,7,,,79,127
93474,note_on,2,0,0,,10,,,81,127
93474,note_on,0,0,0,,6,,,78,127
93672,note_off,198,0,0,,6,,,78,127
93672,note_off,0,0,0,,10,,,81,127
93674,note_on,2,0,0,,12,,,83,127
93674,note_on,0,0,0,,8,,,80,127
93872,note_off,198,0,0,,8,,,80,127
93872,note_off,0,0,0,,12,,,83,127
93872,note_off,0,0,0,,12,,,47,127
93874,note_on,2,0,0,,8,,,80,127
93874,note_on,0,0,0,,12,,,83,127
93874,note_on,0,0,0,,10,,,45,127
94072,note_off,198,0,0,,10,,,45,127
94072,note_off,0,0,0,,12,,,83,127
94072,note_off,0,0,0,,8,,,80,127
94074,note_on,2,0,0,,10,,,81,127
94074,note_on,0,0,0,,0,,,84,127
94074,note_on,0,0,0,,10,,,57,127
94272,note_off,198,0,0,,10,,,57,127
94274,note_on,2,0,0,,0,,,60,127
94472,note_off,198,0,0,,0,,,60,127
94472,note_off,0,0,0,,0,,,84,127
94472,note_off,0,0,0,,10,,,81,127
94474,note_on,2,0,0,,10,,,81,127
94474,note_on,0,0,0,,0,,,84,127
94474,note_on,0,0,0,,4,,,64,127
94672,note_off,198,0,0,,4,,,64,127
94672,note_off,0,0,0,,0,,,84,127
94672,note_off,0,0,0,,10,,,81,127
94674,note_on,2,0,0,,12,,,83,127
94674,note_on,0,0,0,,7,,,79,127
94674,note_on,0,0,0,,12,,,47,127
94872,note_off,198,0,0,,7,,,79,127
94872,note_off,0,0,0,,12,,,83,127
94874,note_on,2,0,0,,6,,,78,127
94874,note_on,0,0,0,,10,,,81,127
95072,note_off,198,0,0,,10,,,81,127
95072,note_off,0,0,0,,6,,,78,127
95072,note_off,0,0,0,,12,,,47,127
95074,note_on,2,0,0,,4,,,76,127
95074,note_on,0,0,0,,7,,,79,127
95074,note_on,0,0,0,,12,,,47,127
95272,note_off,198,0,0,,7,,,79,127
95272,note_off,0,0,0,,4,,,76,127
95274,note_on,2,0,0,,6,,,78,127
95274,note_on,0,0,0,,3,,,75,127
95472,note_off,198,0,0,,3,,,75,127
95472,note_off,0,0,0,,6,,,78,127
95472,note_off,0,0,0,,12,,,47,127
95474,note_on,2,0,0,,7,,,79,127
95474,note_on,0,0,0,,4,,,76,127
95474,note_on,0,0,0,,4,,,52,127
95572,note_off,98,0,0,,4,,,76,127
95572,note_off,0,0,0,,7,,,79,127
95574,note_on,2,0,0,,4,,,76,127
95672,note_off,98,0,0,,4,,,76,127
95674,note_on,2,0,0,,6,,,78,127
95772,note_off,98,0,0,,6,,,78,127
95774,note_on,2,0,0,,4,,,76,127
95872,note_off,98,0,0,,4,,,76,127
95872,note_off,0,0,0,,4,,,52,127
95874,note_on,2,0,0,,0,,,84,127
95874,note_on,0,0,0,,10,,,81,127
95972,note_off,98,0,0,,0,,,84,127
95974,note_on,2,0,0,,4,,,76,127
96072,note_off,98,0,0,,4,,,76,127
96074,note_on,2,0,0,,6,,,78,127
96172,note_off,98,0,0,,6,,,78,127
96174,note_on,2,0,0,,4,,,76,127
96272,note_off,98,0,0,,4,,,76,127
96272,note_off,0,0,0,,10,,,81,127
96274,note_on,2,0,0,,10,,,81,127
96274,note_on,0,0,0,,6,,,78,127
96372,note_off,98,0,0,,10,,,81,127
96374,note_on,2,0,0,,0,,,72,127
96472,note_off,98,0,0,,0,,,72,127
96474,note_on,2,0,0,,2,,,74,127
96572,note_off,98,0,0,,2,,,74,127
96574,note_on,2,0,0,,0,,,72,127
96672,note_off,98,0,0,,0,,,72,127
96672,note_off,0,0,0,,6,,,78,127
96674,note_on,2,0,0,,6,,,78,127
96674,note_on,0,0,0,,2,,,50,127
96772,note_off,98,0,0,,6,,,78,127
96774,note_on,2,0,0,,10,,,69,127
96872,note_off,98,0,0,,10,,,69,127
96874,note_on,2,0,0,,12,,,71,127
96972,note_off,98,0,0,,12,,,71,127
96974,note_on,2,0,0,,10,,,69,127
97072,note_off,98,0,0,,10,,,69,127
97072,note_off,0,0,0,,2,,,50,127
97074,note_on,2,0,0,,12,,,83,127
97074,note_on,0,0,0,,7,,,43,127
97172,note_off,98,0,0,,12,,,83,127
97174,note_on,2,0,0,,2,,,74,127
97272,note_off,98,0,0,,2,,,74,127
97274,note_on,2,0,0,,4,,,76,127
97372,note_off,98,0,0,,4,,,76,127
97374,note_on,2,0,0,,2,,,74,127
97472,note_off,98,0,0,,2,,,74,127
97472,note_off,0,0,0,,7,,,43,127
97474,note_on,2,0,0,,12,,,83,127
97474,note_on,0,0,0,,7,,,79,127
97572,note_off,98,0,0,,12,,,83,127
97574,note_on,2,0,0,,2,,,74,127
97672,note_off,98,0,0,,2,,,74,127
97674,note_on,2,0,0,,4,,,76,127
97772,note_off,98,0,0,,4,,,76,127
97774,note_on,2,0,0,,2,,,74,127
97872,note_off,98,0,0,,2,,,74,127
97872,note_off,0,0,0,,7,,,79,127
97874,note_on,2,0,0,,7,,,79,127
97874,note_on,0,0,0,,4,,,76,127
97972,note_off,98,0,0,,7,,,79,127
97974,note_on,2,0,0,,12,,,71,127
98072,note_off,98,0,0,,12,,,71,127
98074,note_on,2,0,0,,0,,,72,127
98172,note_off,98,0,0,,0,,,72,127
98174,note_on,2,0,0,,12,,,71,127
98272,note_off,98,0,0,,12,,,71,127
98272,note_off,0,0,0,,4,,,76,127
98274,note_on,2,0,0,,4,,,76,127
98274,note_on,0,0,0,,0,,,48,127
98372,note_off,98,0,0,,4,,,76,127
98374,note_on,2,0,0,,7,,,67,127
98472,note_off,98,0,0,,7,,,67,127
98474,note_on,2,0,0,,10,,,69,127
98572,note_off,98,0,0,,10,,,69,127
98574,note_on,2,0,0,,7,,,67,127
98672,note_off,98,0,0,,7,,,67,127
98672,note_off,0,0,0,,0,,,48,127
98674,note_on,2,0,0,,10,,,81,127
98674,note_on,0,0,0,,6,,,42,127
98772,note_off,98,0,0,,10,,,81,127
98774,note_on,2,0,0,,0,,,72,127
98872,note_off,98,0,0,,0,,,72,127
98874,note_on,2,0,0,,2,,,74,127
98972,note_off,98,0,0,,2,,,74,127
98974,note_on,2,0,0,,0,,,72,127
99072,note_off,98,0,0,,0,,,72,127
99072,note_off,0,0,0,,6,,,42,127
99074,note_on,2,0,0,,10,,,81,127
99074,note_on,0,0,0,,6,,,78,127
99172,note_off,98,0,0,,10,,,81,127
99174,note_on,2,0,0,,0,,,72,127
99272,note_off,98,0,0,,0,,,72,127
99274,note_on,2,0,0,,2,,,74,127
99372,note_off,98,0,0,,2,,,74,127
99374,note_on,2,0,0,,0,,,72,127
99472,note_off,98,0,0,,0,,,72,127
99472,note_off,0,0,0,,6,,,78,127
99474,note_on,2,0,0,,6,,,78,127
99474,note_on,0,0,0,,3,,,75,127
99572,note_off,98,0,0,,6,,,78,127
99574,note_on,2,0,0,,10,,,69,127
99672,note_off,98,0,0,,10,,,69,127
99674,note_on,2,0,0,,12,,,71,127
99772,note_off,98,0,0,,12,,,71,127
99774,note_on,2,0,0,,10,,,69,127
99872,note_off,98,0,0,,10,,,69,127
99872,note_off,0,0,0,,3,,,75,127
99874,note_on,2,0,0,,3,,,75,127
99874,note_on,0,0,0,,12,,,47,127
99972,note_off,98,0,0,,3,,,75,127
99974,note_on,2,0,0,,6,,,66,127
100072,note_off,98,0,0,,6,,,66,127
100074,note_on,2,0,0,,7,,,67,127
100172,note_off,98,0,0,,7,,,67,127
100174,note_on,2,0,0,,6,,,66,127
100272,note_off,98,0,0,,6,,,66,127
100272,note_off,0,0,0,,12,,,47,127
100274,note_on,2,0,0,,7,,,79,127
100274,note_on,0,0,0,,4,,,40,127
100372,note_off,98,0,0,,7,,,79,127
100374,note_on,2,0,0,,12,,,71,127
100472,note_off,98,0,0,,12,,,71,127
100474,note_on,2,0,0,,0,,,72,127
100572,note_off,98,0,0,,0,,,72,127
100574,note_on,2,0,0,,12,,,71,127
100672,note_off,98,0,0,,12,,,71,127
100672,note_off,0,0,0,,4,,,40,127
100674,note_on,2,0,0,,7,,,79,127
100674,note_on,0,0,0,,4,,,76,127
100772,note_off,98,0,0,,7,,,79,127
100774,note_on,2,0,0,,12,,,71,127
100872,note_off,98,0,0,,12,,,71,127
100874,note_on,2,0,0,,0,,,72,127
100972,note_off,98,0,0,,0,,,72,127
100974,note_on,2,0,0,,12,,,71,127
101072,note_off,98,0,0,,12,,,71,127
101072,note_off,0,0,0,,4,,,76,127
101074,note_on,2,0,0,,4,,,76,127
101074,note_on,0,0,0,,0,,,72,127
101172,note_off,98,0,0,,4,,,76,127
101174,note_on,2,0,0,,7,,,67,127
101272,note_off,98,0,0,,7,,,67,127
101274,note_on,2,0,0,,10,,,69,127
101372,note_off,98,0,0,,10,,,69,127
101374,note_on,2,0,0,,7,,,67,127
101472,note_off,98,0,0,,7,,,67,127
101472,note_off,0,0,0,,0,,,72,127
101474,note_on,2,0,0,,0,,,72,127
101474,note_on,0,0,0,,10,,,45,127
101572,note_off,98,0,0,,0,,,72,127
101574,note_on,2,0,0,,4,,,64,127
101672,note_off,98,0,0,,4,,,64,127
101674,note_on,2,0,0,,6,,,66,127
101772,note_off,98,0,0,,6,,,66,127
101774,note_on,2,0,0,,4,,,64,127
101872,note_off,98,0,0,,4,,,64,127
101872,note_off,0,0,0,,10,,,45,127
101874,note_on,2,0,0,,3,,,63,127
101874,note_on,0,0,0,,12,,,71,127
101874,note_on,0,0,0,,6,,,66,127
101874,note_on,0,0,0,,12,,,47,127
101974,note_on,100,0,0,,12,,,59,127
102009,note_off,35,0,0,,12,,,47,127
102074,note_on,65,0,0,,12,,,47,127
102109,note_off,35,0,0,,12,,,59,127
102174,note_on,65,0,0,,10,,,57,127
102209,note_off,35,0,0,,12,,,47,127
102272,note_off,63,0,0,,6,,,66,127
102272,note_off,0,0,0,,12,,,71,127
102272,note_off,0,0,0,,3,,,63,127
102274,note_on,2,0,0,,7,,,67,127
102274,note_on,0,0,0,,12,,,71,127
102274,note_on,0,0,0,,4,,,64,127
102274,note_on,0,0,0,,12,,,47,127
102309,note_off,35,0,0,,10,,,57,127
102374,note_on,65,0,0,,7,,,55,127
102409,note_off,35,0,0,,12,,,47,127
102474,note_on,65,0,0,,12,,,47,127
102509,note_off,35,0,0,,7,,,55,127
102574,note_on,65,0,0,,6,,,54,127
102609,note_off,35,0,0,,12,,,47,127
102672,note_off,63,0,0,,4,,,64,127
102672,note_off,0,0,0,,12,,,71,127
102672,note_off,0,0,0,,7,,,67,127
102674,note_on,2,0,0,,10,,,69,127
102674,note_on,0,0,0,,4,,,64,127
102674,note_on,0,0,0,,0,,,72,127
102674,note_on,0,0,0,,12,,,47,127
102709,note_off,35,0,0,,6,,,54,127
102774,note_on,65,0,0,,10,,,57,127
102809,note_off,35,0,0,,12,,,47,127
102874,note_on,65,0,0,,12,,,47,127
102909,note_off,35,0,0,,10,,,57,127
102974,note_on,65,0,0,,7,,,55,127
103009,note_off,35,0,0,,12,,,47,127
103074,note_on,65,0,0,,12,,,47,127
103109,note_off,35,0,0,,7,,,55,127
103174,note_on,65,0,0,,6,,,54,127
103209,note_off,35,0,0,,12,,,47,127
103272,note_off,63,0,0,,0,,,72,127
103272,note_off,0,0,0,,4,,,64,127
103272,note_off,0,0,0,,10,,,69,127
103274,note_on,2,0,0,,10,,,69,127
103274,note_on,0,0,0,,4,,,64,127
103274,note_on,0,0,0,,0,,,72,127
103274,note_on,0,0,0,,12,,,47,127
103309,note_off,35,0,0,,6,,,54,127
103374,note_on,65,0,0,,4,,,52,127
103409,note_off,35,0,0,,12,,,47,127
103472,note_off,63,0,0,,0,,,72,127
103472,note_off,0,0,0,,4,,,64,127
103472,note_off,0,0,0,,10,,,69,127
103474,note_on,2,0,0,,3,,,63,127
103474,note_on,0,0,0,,12,,,71,127
103474,note_on,0,0,0,,6,,,66,127
103474,note_on,0,0,0,,12,,,47,127
103509,note_off,35,0,0,,4,,,52,127
103574,note_on,65,0,0,,12,,,59,127
103609,note_off,35,0,0,,12,,,47,127
103674,note_on,65,0,0,,12,,,47,127
103709,note_off,35,0,0,,12,,,59,127
103774,note_on,65,0,0,,10,,,57,127
103809,note_off,35,0,0,,12,,,47,127
103872,note_off,63,0,0,,6,,,66,127
103872,note_off,0,0,0,,12,,,71,127
103872,note_off,0,0,0,,3,,,63,127
103874,note_on,2,0,0,,4,,,64,127
103874,note_on,0,0,0,,12,,,71,127
103874,note_on,0,0,0,,7,,,67,127
103874,note_on,0,0,0,,12,,,47,127
103909,note_off,35,0,0,,10,,,57,127
103974,note_on,65,0,0,,7,,,55,127
104009,note_off,35,0,0,,12,,,47,127
104074,note_on,65,0,0,,12,,,47,127
104109,note_off,35,0,0,,7,,,55,127
104174,note_on,65,0,0,,6,,,54,127
104209,note_off,35,0,0,,12,,,47,127
104272,note_off,63,0,0,,7,,,67,127
104272,note_off,0,0,0,,12,,,71,127
104272,note_off,0,0,0,,4,,,64,127
104274,note_on,2,0,0,,4,,,64,127
104274,note_on,0,0,0,,0,,,72,127
104274,note_on,0,0,0,,10,,,69,127
104274,note_on,0,0,0,,12,,,47,127
104309,note_off,35,0,0,,6,,,54,127
104374,note_on,65,0,0,,10,,,57,127
104409,note_off,35,0,0,,12,,,47,127
104474,note_on,65,0,0,,12,,,47,127
104509,note_off,35,0,0,,10,,,57,127
104574,note_on,65,0,0,,7,,,55,127
104609,note_off,35,0,0,,12,,,47,127
104674,note_on,65,0,0,,12,,,47,127
104709,note_off,35,0,0,,7,,,55,127
104774,note_on,65,0,0,,6,,,54,127
104809,note_off,35,0,0,,12,,,47,127
104872,note_off,63,0,0,,10,,,69,127
104872,note_off,0,0,0,,0,,,72,127
104872,note_off,0,0,0,,4,,,64,127
104874,note_on,2,0,0,,10,,,69,127
104874,note_on,0,0,0,,4,,,64,127
104874,note_on,0,0,0,,0,,,72,127
104874,note_on,0,0,0,,12,,,47,127
104909,note_off,35,0,0,,6,,,54,127
104974,note_on,65,0,0,,4,,,52,127
105009,note_off,35,0,0,,12,,,47,127
105072,note_off,63,0,0,,0,,,72,127
105072,note_off,0,0,0,,4,,,64,127
105072,note_off,0,0,0,,10,,,69,127
105073,note_off,1,0,0,,4,,,52,127
105074,note_on,1,0,0,,6,,,66,127
105074,note_on,0,0,0,,3,,,63,127
105074,note_on,0,0,0,,12,,,71,127
105074,note_on,0,0,0,,12,,,47,127
105172,note_off,98,0,0,,12,,,47,127
105174,note_on,2,0,0,,12,,,59,127
105272,note_off,98,0,0,,12,,,59,127
105274,note_on,2,0,0,,10,,,57,127
105372,note_off,98,0,0,,10,,,57,127
105374,note_on,2,0,0,,12,,,59,127
105472,note_off,98,0,0,,12,,,59,127
105472,note_off,0,0,0,,12,,,71,127
105472,note_off,0,0,0,,3,,,63,127
105472,note_off,0,0,0,,6,,,66,127
105474,note_on,2,0,0,,12,,,83,127
105474,note_on,0,0,0,,7,,,79,127
105474,note_on,0,0,0,,7,,,43,127
105572,note_off,98,0,0,,7,,,43,127
105574,note_on,2,0,0,,7,,,55,127
105672,note_off,98,0,0,,7,,,55,127
105674,note_on,2,0,0,,6,,,54,127
105772,note_off,98,0,0,,6,,,54,127
105774,note_on,2,0,0,,7,,,55,127
105872,note_off,98,0,0,,7,,,55,127
105872,note_off,0,0,0,,7,,,79,127
105872,note_off,0,0,0,,12,,,83,127
105874,note_on,2,0,0,,0,,,60,127
105874,note_on,0,0,0,,10,,,45,127
105972,note_off,98,0,0,,10,,,45,127
105974,note_on,2,0,0,,10,,,57,127
106072,note_off,98,0,0,,10,,,57,127
106074,note_on,2,0,0,,7,,,55,127
106172,note_off,98,0,0,,7,,,55,127
106174,note_on,2,0,0,,10,,,57,127
106272,note_off,98,0,0,,10,,,57,127
106272,note_off,0,0,0,,0,,,60,127
106274,note_on,2,0,0,,10,,,81,127
106274,note_on,0,0,0,,6,,,78,127
106274,note_on,0,0,0,,6,,,42,127
106372,note_off,98,0,0,,6,,,42,127
106374,note_on,2,0,0,,6,,,54,127
106472,note_off,98,0,0,,6,,,54,127
106474,note_on,2,0,0,,4,,,52,127
106572,note_off,98,0,0,,4,,,52,127
106574,note_on,2,0,0,,6,,,54,127
106672,note_off,98,0,0,,6,,,54,127
106672,note_off,0,0,0,,6,,,78,127
106672,note_off,0,0,0,,10,,,81,127
106674,note_on,2,0,0,,12,,,59,127
106674,note_on,0,0,0,,7,,,43,127
106772,note_off,98,0,0,,7,,,43,127
106774,note_on,2,0,0,,7,,,55,127
106872,note_off,98,0,0,,7,,,55,127
106874,note_on,2,0,0,,6,,,54,127
106972,note_off,98,0,0,,6,,,54,127
106974,note_on,2,0,0,,7,,,55,127
107072,note_off,98,0,0,,7,,,55,127
107072,note_off,0,0,0,,12,,,59,127
107074,note_on,2,0,0,,7,,,79,127
107074,note_on,0,0,0,,4,,,76,127
107074,note_on,0,0,0,,4,,,40,127
107172,note_off,98,0,0,,4,,,40,127
107174,note_on,2,0,0,,4,,,52,127
107272,note_off,98,0,0,,4,,,52,127
107274,note_on,2,0,0,,3,,,51,127
107372,note_off,98,0,0,,3,,,51,127
107374,note_on,2,0,0,,4,,,52,127
107472,note_off,98,0,0,,4,,,52,127
107472,note_off,0,0,0,,4,,,76,127
107472,note_off,0,0,0,,7,,,79,127
107474,note_on,2,0,0,,10,,,57,127
107474,note_on,0,0,0,,6,,,42,127
107572,note_off,98,0,0,,6,,,42,127
107574,note_on,2,0,0,,6,,,54,127
107672,note_off,98,0,0,,6,,,54,127
107674,note_on,2,0,0,,4,,,52,127
107772,note_off,98,0,0,,4,,,52,127
107774,note_on,2,0,0,,6,,,54,127
107872,note_off,98,0,0,,6,,,54,127
107872,note_off,0,0,0,,10,,,57,127
107874,note_on,2,0,0,,3,,,75,127
107874,note_on,0,0,0,,6,,,78,127
107874,note_on,0,0,0,,12,,,47,127
107972,note_off,98,0,0,,12,,,47,127
107974,note_on,2,0,0,,12,,,59,127
108072,note_off,98,0,0,,12,,,59,127
108074,note_on,2,0,0,,10,,,57,127
108172,note_off,98,0,0,,10,,,57,127
108174,note_on,2,0,0,,12,,,59,127
108272,note_off,98,0,0,,12,,,59,127
108272,note_off,0,0,0,,6,,,78,127
108272,note_off,0,0,0,,3,,,75,127
108274,note_on,2,0,0,,7,,,55,127
108274,note_on,0,0,0,,4,,,52,127
108372,note_off,98,0,0,,4,,,52,127
108374,note_on,2,0,0,,6,,,54,127
108472,note_off,98,0,0,,6,,,54,127
108472,note_off,0,0,0,,7,,,55,127
108474,note_on,2,0,0,,12,,,59,127
108474,note_on,0,0,0,,7,,,55,127
108572,note_off,98,0,0,,7,,,55,127
108574,note_on,2,0,0,,4,,,52,127
108672,note_off,98,0,0,,4,,,52,127
108672,note_off,0,0,0,,12,,,59,127
108674,note_on,2,0,0,,0,,,60,127
108674,note_on,0,0,0,,10,,,57,127
108772,note_off,98,0,0,,10,,,57,127
108774,note_on,2,0,0,,12,,,59,127
108872,note_off,98,0,0,,12,,,59,127
108872,note_off,0,0,0,,0,,,60,127
108874,note_on,2,0,0,,4,,,64,127
108874,note_on,0,0,0,,0,,,60,127
108972,note_off,98,0,0,,0,,,60,127
108974,note_on,2,0,0,,10,,,57,127
109072,note_off,98,0,0,,10,,,57,127
109072,note_off,0,0,0,,4,,,64,127
109074,note_on,2,0,0,,3,,,63,127
109074,note_on,0,0,0,,12,,,59,127
109172,note_off,98,0,0,,12,,,59,127
109174,note_on,2,0,0,,1,,,61,127
109272,note_off,98,0,0,,1,,,61,127
109272,note_off,0,0,0,,3,,,63,127
109274,note_on,2,0,0,,6,,,66,127
109274,note_on,0,0,0,,3,,,63,127
109372,note_off,98,0,0,,3,,,63,127
109374,note_on,2,0,0,,12,,,59,127
109472,note_off,98,0,0,,12,,,59,127
109472,note_off,0,0,0,,6,,,66,127
109474,note_on,2,0,0,,7,,,67,127
109474,note_on,0,0,0,,4,,,64,127
109572,note_off,98,0,0,,4,,,64,127
109574,note_on,2,0,0,,6,,,66,127
109672,note_off,98,0,0,,6,,,66,127
109672,note_off,0,0,0,,7,,,67,127
109674,note_on,2,0,0,,12,,,71,127
109674,note_on,0,0,0,,7,,,67,127
109772,note_off,98,0,0,,7,,,67,127
109774,note_on,2,0,0,,4,,,64,127
109872,note_off,98,0,0,,4,,,64,127
109872,note_off,0,0,0,,12,,,71,127
109874,note_on,2,0,0,,0,,,72,127
109874,note_on,0,0,0,,10,,,69,127
109972,note_off,98,0,0,,10,,,69,127
109974,note_on,2,0,0,,12,,,71,127
110072,note_off,98,0,0,,12,,,71,127
110072,note_off,0,0,0,,0,,,72,127
110074,note_on,2,0,0,,4,,,76,127
110074,note_on,0,0,0,,0,,,72,127
110172,note_off,98,0,0,,0,,,72,127
110174,note_on,2,0,0,,10,,,69,127
110272,note_off,98,0,0,,10,,,69,127
110272,note_off,0,0,0,,4,,,76,127
110274,note_on,2,0,0,,3,,,75,127
110274,note_on,0,0,0,,12,,,71,127
110372,note_off,98,0,0,,12,,,71,127
110374,note_on,2,0,0,,1,,,73,127
110472,note_off,98,0,0,,1,,,73,127
110472,note_off,0,0,0,,3,,,75,127
110474,note_on,2,0,0,,6,,,78,127
110474,note_on,0,0,0,,3,,,75,127
110572,note_off,98,0,0,,3,,,75,127
110574,note_on,2,0,0,,12,,,71,127
110672,note_off,98,0,0,,12,,,71,127
110672,note_off,0,0,0,,6,,,78,127
110674,note_on,2,0,0,,7,,,79,127
110674,note_on,0,0,0,,4,,,76,127
110772,note_off,98,0,0,,4,,,76,127
110774,note_on,2,0,0,,6,,,78,127
110872,note_off,98,0,0,,6,,,78,127
110872,note_off,0,0,0,,7,,,79,127
110874,note_on,2,0,0,,12,,,83,127
110874,note_on,0,0,0,,7,,,79,127
110972,note_off,98,0,0,,7,,,79,127
110974,note_on,2,0,0,,4,,,76,127
111072,note_off,98,0,0,,4,,,76,127
111072,note_off,0,0,0,,12,,,83,127
111074,note_on,2,0,0,,0,,,84,127
111074,note_on,0,0,0,,10,,,81,127
111172,note_off,98,0,0,,10,,,81,127
111172,note_off,0,0,0,,0,,,84,127
111174,note_on,2,0,0,,12,,,83,127
111174,note_on,0,0,0,,7,,,79,127
111272,note_off,98,0,0,,7,,,79,127
111272,note_off,0,0,0,,12,,,83,127
111274,note_on,2,0,0,,10,,,81,127
111274,note_on,0,0,0,,6,,,78,127
111372,note_off,98,0,0,,6,,,78,127
111372,note_off,0,0,0,,10,,,81,127
111374,note_on,2,0,0,,7,,,79,127
111374,note_on,0,0,0,,4,,,76,127
111472,note_off,98,0,0,,4,,,76,127
111472,note_off,0,0,0,,7,,,79,127
111474,note_on,2,0,0,,6,,,78,127
111474,note_on,0,0,0,,3,,,75,127
111572,note_off,98,0,0,,3,,,75,127
111572,note_off,0,0,0,,6,,,78,127
111574,note_on,2,0,0,,4,,,76,127
111574,note_on,0,0,0,,1,,,73,127
111672,note_off,98,0,0,,1,,,73,127
111672,note_off,0,0,0,,4,,,76,127
111674,note_on,2,0,0,,3,,,75,127
111674,note_on,0,0,0,,12,,,71,127
111772,note_off,98,0,0,,12,,,71,127
111772,note_off,0,0,0,,3,,,75,127
111774,note_on,2,0,0,,1,,,73,127
111774,note_on,0,0,0,,10,,,69,127
111872,note_off,98,0,0,,10,,,69,127
111872,note_off,0,0,0,,1,,,73,127
111874,note_on,2,0,0,,12,,,71,127
111874,note_on,0,0,0,,7,,,67,127
111972,note_off,98,0,0,,7,,,67,127
111972,note_off,0,0,0,,12,,,71,127
111974,note_on,2,0,0,,10,,,69,127
111974,note_on,0,0,0,,6,,,66,127
112072,note_off,98,0,0,,6,,,66,127
112072,note_off,0,0,0,,10,,,69,127
112074,note_on,2,0,0,,7,,,67,127
112074,note_on,0,0,0,,4,,,64,127
112172,note_off,98,0,0,,4,,,64,127
112172,note_off,0,0,0,,7,,,67,127
112174,note_on,2,0,0,,6,,,66,127
112174,note_on,0,0,0,,2,,,62,127
112272,note_off,98,0,0,,2,,,62,127
112272,note_off,0,0,0,,6,,,66,127
112274,note_on,2,0,0,,4,,,64,127
112274,note_on,0,0,0,,0,,,60,127
112372,note_off,98,0,0,,4,,,64,127
112374,note_on,2,0,0,,10,,,69,127
112472,note_off,98,0,0,,10,,,69,127
112472,note_off,0,0,0,,0,,,60,127
112474,note_on,2,0,0,,7,,,67,127
112474,note_on,0,0,0,,10,,,57,127
112572,note_off,98,0,0,,7,,,67,127
112574,note_on,2,0,0,,6,,,66,127
112672,note_off,98,0,0,,6,,,66,127
112672,note_off,0,0,0,,10,,,57,127
112674,note_on,2,0,0,,7,,,67,127
112674,note_on,0,0,0,,12,,,59,127
112772,note_off,98,0,0,,7,,,67,127
112774,note_on,2,0,0,,4,,,64,127
112872,note_off,98,0,0,,4,,,64,127
112874,note_on,2,0,0,,6,,,66,127
112874,note_on,0,0,0,,12,,,47,127
112972,note_off,98,0,0,,6,,,66,127
112974,note_on,2,0,0,,3,,,63,127
113070,note_off,96,0,0,,12,,,59,127
113072,note_off,2,0,0,,3,,,63,127
113072,note_off,0,0,0,,12,,,47,127
113074,note_on,2,0,0,,4,,,64,127
113074,note_on,0,0,0,,4,,,52,127
113172,note_off,98,0,0,,4,,,52,127
113173,note_off,1,0,0,,4,,,64,127
113174,note_on,1,0,0,,4,,,64,127
113272,note_off,98,0,0,,4,,,64,127
113274,note_on,2,0,0,,3,,,63,127
113372,note_off,98,0,0,,3,,,63,127
113374,note_on,2,0,0,,4,,,64,127
113472,note_off,98,0,0,,4,,,64,127
113474,note_on,2,0,0,,2,,,74,127
113474,note_on,0,0,0,,10,,,69,127
113474,note_on,0,0,0,,6,,,66,127
113474,note_on,0,0,0,,6,,,54,127
113572,note_off,98,0,0,,6,,,54,127
113574,note_on,2,0,0,,4,,,64,127
113672,note_off,98,0,0,,4,,,64,127
113674,note_on,2,0,0,,3,,,63,127
113772,note_off,98,0,0,,3,,,63,127
113774,note_on,2,0,0,,4,,,64,127
113872,note_off,98,0,0,,4,,,64,127
113872,note_off,0,0,0,,6,,,66,127
113872,note_off,0,0,0,,10,,,69,127
113872,note_off,0,0,0,,2,,,74,127
113874,note_on,2,0,0,,2,,,74,127
113874,note_on,0,0,0,,12,,,71,127
113874,note_on,0,0,0,,8,,,68,127
113874,note_on,0,0,0,,8,,,56,127
113972,note_off,98,0,0,,8,,,56,127
113974,note_on,2,0,0,,4,,,64,127
114072,note_off,98,0,0,,4,,,64,127
114074,note_on,2,0,0,,3,,,63,127
114172,note_off,98,0,0,,3,,,63,127
114174,note_on,2,0,0,,4,,,64,127
114272,note_off,98,0,0,,4,,,64,127
114272,note_off,0,0,0,,8,,,68,127
114272,note_off,0,0,0,,12,,,71,127
114272,note_off,0,0,0,,2,,,74,127
114274,note_on,2,0,0,,0,,,72,127
114274,note_on,0,0,0,,10,,,69,127
114274,note_on,0,0,0,,10,,,57,127
114372,note_off,98,0,0,,10,,,57,127
114374,note_on,2,0,0,,4,,,64,127
114472,note_off,98,0,0,,4,,,64,127
114474,note_on,2,0,0,,3,,,63,127
114572,note_off,98,0,0,,3,,,63,127
114574,note_on,2,0,0,,4,,,64,127
114672,note_off,98,0,0,,4,,,64,127
114672,note_off,0,0,0,,10,,,69,127
114672,note_off,0,0,0,,0,,,72,127
114674,note_on,2,0,0,,8,,,68,127
114674,note_on,0,0,0,,4,,,64,127
114674,note_on,0,0,0,,12,,,71,127
114674,note_on,0,0,0,,4,,,52,127
114772,note_off,98,0,0,,4,,,52,127
114773,note_off,1,0,0,,4,,,64,127
114774,note_on,1,0,0,,4,,,64,127
114872,note_off,98,0,0,,4,,,64,127
114874,note_on,2,0,0,,3,,,63,127
114972,note_off,98,0,0,,3,,,63,127
114974,note_on,2,0,0,,4,,,64,127
115072,note_off,98,0,0,,4,,,64,127
115072,note_off,0,0,0,,12,,,71,127
115072,note_off,0,0,0,,8,,,68,127
115074,note_on,2,0,0,,2,,,74,127
115074,note_on,0,0,0,,10,,,69,127
115074,note_on,0,0,0,,6,,,66,127
115074,note_on,0,0,0,,6,,,54,127
115172,note_off,98,0,0,,6,,,54,127
115174,note_on,2,0,0,,4,,,64,127
115272,note_off,98,0,0,,4,,,64,127
115274,note_on,2,0,0,,3,,,63,127
115372,note_off,98,0,0,,3,,,63,127
115374,note_on,2,0,0,,4,,,64,127
115472,note_off,98,0,0,,4,,,64,127
115472,note_off,0,0,0,,6,,,66,127
115472,note_off,0,0,0,,10,,,69,127
115472,note_off,0,0,0,,2,,,74,127
115474,note_on,2,0,0,,2,,,74,127
115474,note_on,0,0,0,,12,,,71,127
115474,note_on,0,0,0,,8,,,68,127
115474,note_on,0,0,0,,8,,,56,127
115572,note_off,98,0,0,,8,,,56,127
115574,note_on,2,0,0,,4,,,64,127
115672,note_off,98,0,0,,4,,,64,127
115674,note_on,2,0,0,,3,,,63,127
115772,note_off,98,0,0,,3,,,63,127
115774,note_on,2,0,0,,4,,,64,127
115872,note_off,98,0,0,,4,,,64,127
115872,note_off,0,0,0,,8,,,68,127
115872,note_off,0,0,0,,12,,,71,127
115872,note_off,0,0,0,,2,,,74,127
115874,note_on,2,0,0,,10,,,69,127
115874,note_on,0,0,0,,0,,,72,127
115874,note_on,0,0,0,,10,,,57,127
115972,note_off,98,0,0,,10,,,57,127
115974,note_on,2,0,0,,4,,,64,127
116072,note_off,98,0,0,,4,,,64,127
116074,note_on,2,0,0,,3,,,63,127
116172,note_off,98,0,0,,3,,,63,127
116174,note_on,2,0,0,,4,,,64,127
116272,note_off,98,0,0,,4,,,64,127
116272,note_off,0,0,0,,0,,,72,127
116272,note_off,0,0,0,,10,,,69,127
116274,note_on,2,0,0,,8,,,68,127
116274,note_on,0,0,0,,4,,,64,127
116274,note_on,0,0,0,,12,,,71,127
116274,note_on,0,0,0,,4,,,40,127
116372,note_off,98,0,0,,4,,,40,127
116374,note_on,2,0,0,,4,,,52,127
116472,note_off,98,0,0,,4,,,52,127
116474,note_on,2,0,0,,3,,,51,127
116572,note_off,98,0,0,,3,,,51,127
116574,note_on,2,0,0,,4,,,52,127
116672,note_off,98,0,0,,4,,,52,127
116672,note_off,0,0,0,,12,,,71,127
116672,note_off,0,0,0,,4,,,64,127
116672,note_off,0,0,0,,8,,,68,127
116674,note_on,2,0,0,,2,,,74,127
116674,note_on,0,0,0,,10,,,69,127
116674,note_on,0,0,0,,6,,,42,127
116772,note_off,98,0,0,,6,,,42,127
116774,note_on,2,0,0,,4,,,52,127
116872,note_off,98,0,0,,4,,,52,127
116874,note_on,2,0,0,,3,,,51,127
116972,note_off,98,0,0,,3,,,51,127
116974,note_on,2,0,0,,4,,,52,127
117072,note_off,98,0,0,,4,,,52,127
117072,note_off,0,0,0,,10,,,69,127
117072,note_off,0,0,0,,2,,,74,127
117074,note_on,2,0,0,,4,,,64,127
117074,note_on,0,0,0,,2,,,74,127
117074,note_on,0,0,0,,12,,,71,127
117074,note_on,0,0,0,,8,,,68,127
117074,note_on,0,0,0,,8,,,44,127
117172,note_off,98,0,0,,8,,,44,127
117174,note_on,2,0,0,,4,,,52,127
117272,note_off,98,0,0,,4,,,52,127
117274,note_on,2,0,0,,3,,,51,127
117372,note_off,98,0,0,,3,,,51,127
117374,note_on,2,0,0,,4,,,52,127
117472,note_off,98,0,0,,4,,,52,127
117472,note_off,0,0,0,,8,,,68,127
117472,note_off,0,0,0,,12,,,71,127
117472,note_off,0,0,0,,2,,,74,127
117472,note_off,0,0,0,,4,,,64,127
117474,note_on,2,0,0,,4,,,64,127
117474,note_on,0,0,0,,0,,,72,127
117474,note_on,0,0,0,,10,,,69,127
117474,note_on,0,0,0,,10,,,45,127
117572,note_off,98,0,0,,10,,,45,127
117574,note_on,2,0,0,,4,,,52,127
117672,note_off,98,0,0,,4,,,52,127
117674,note_on,2,0,0,,3,,,51,127
117772,note_off,98,0,0,,3,,,51,127
117774,note_on,2,0,0,,4,,,52,127
117872,note_off,98,0,0,,4,,,52,127
117872,note_off,0,0,0,,10,,,69,127
117872,note_off,0,0,0,,0,,,72,127
117872,note_off,0,0,0,,4,,,64,127
117874,note_on,2,0,0,,8,,,68,127
117874,note_on,0,0,0,,4,,,40,127
117972,note_off,98,0,0,,8,,,68,127
117974,note_on,2,0,0,,4,,,64,127
118072,note_off,98,0,0,,4,,,64,127
118074,note_on,2,0,0,,3,,,63,127
118172,note_off,98,0,0,,3,,,63,127
118174,note_on,2,0,0,,4,,,64,127
118272,note_off,98,0,0,,4,,,64,127
118274,note_on,2,0,0,,8,,,68,127
118372,note_off,98,0,0,,8,,,68,127
118374,note_on,2,0,0,,4,,,64,127
118472,note_off,98,0,0,,4,,,64,127
118474,note_on,2,0,0,,12,,,71,127
118572,note_off,98,0,0,,12,,,71,127
118574,note_on,2,0,0,,8,,,68,127
118672,note_off,98,0,0,,8,,,68,127
118672,note_off,0,0,0,,4,,,40,127
118674,note_on,2,0,0,,4,,,76,127
118674,note_on,0,0,0,,4,,,40,127
118772,note_off,98,0,0,,4,,,76,127
118774,note_on,2,0,0,,12,,,71,127
118872,note_off,98,0,0,,12,,,71,127
118874,note_on,2,0,0,,4,,,76,127
118972,note_off,98,0,0,,4,,,76,127
118974,note_on,2,0,0,,8,,,80,127
119072,note_off,98,0,0,,8,,,80,127
119074,note_on,2,0,0,,12,,,83,127
119172,note_off,98,0,0,,12,,,83,127
119174,note_on,2,0,0,,8,,,80,127
119272,note_off,98,0,0,,8,,,80,127
119274,note_on,2,0,0,,4,,,76,127
119372,note_off,98,0,0,,4,,,76,127
119374,note_on,2,0,0,,8,,,80,127
119472,note_off,98,0,0,,8,,,80,127
119472,note_off,0,0,0,,4,,,40,127
119474,note_on,2,0,0,,12,,,71,127
119474,note_on,0,0,0,,4,,,40,127
119572,note_off,98,0,0,,12,,,71,127
119574,note_on,2,0,0,,4,,,76,127
119672,note_off,98,0,0,,4,,,76,127
119674,note_on,2,0,0,,8,,,68,127
119772,note_off,98,0,0,,8,,,68,127
119774,note_on,2,0,0,,12,,,71,127
119872,note_off,98,0,0,,12,,,71,127
119874,note_on,2,0,0,,4,,,64,127
119972,note_off,98,0,0,,4,,,64,127
119974,note_on,2,0,0,,8,,,68,127
120072,note_off,98,0,0,,8,,,68,127
120074,note_on,2,0,0,,12,,,59,127
120172,note_off,98,0,0,,12,,,59,127
120174,note_on,2,0,0,,4,,,64,127
120255,note_off,81,0,0,,4,,,40,127
120302,note_off,47,0,0,,4,,,64,127
120329,note_on,27,0,0,,4,,,40,127
122207,note_off,1878,0,0,,4,,,40,127
127488,end_of_track,5281,1,0,,,,,,
