tick,type,time,meta,track,program,channel,pitch,tempo,note,velocity
0,copyright,0,1,0,,,,,,
0,program_change,0,0,0,6,0,,,,
0,pitchwheel,0,0,0,,0,0,,,
0,program_change,0,0,0,6,1,,,,
0,pitchwheel,0,0,0,,1,-590,,,
0,program_change,0,0,0,6,2,,,,
0,pitchwheel,0,0,0,,2,-272,,,
0,program_change,0,0,0,6,3,,,,
0,pitchwheel,0,0,0,,3,-353,,,
0,program_change,0,0,0,6,4,,,,
0,pitchwheel,0,0,0,,4,-560,,,
0,program_change,0,0,0,6,5,,,,
0,pitchwheel,0,0,0,,5,-80,,,
0,program_change,0,0,0,6,6,,,,
0,pitchwheel,0,0,0,,6,-625,,,
0,program_change,0,0,0,6,7,,,,
0,pitchwheel,0,0,0,,7,-130,,,
0,program_change,0,0,0,6,8,,,,
0,pitchwheel,0,0,0,,8,-512,,,
0,program_change,0,0,0,6,10,,,,
0,pitchwheel,0,0,0,,10,-464,,,
0,program_change,0,0,0,6,11,,,,
0,pitchwheel,0,0,0,,11,-208,,,
0,program_change,0,0,0,6,12,,,,
0,pitchwheel,0,0,0,,12,-553,,,
0,set_tempo,0,1,0,,,,500000,,
115,note_on,115,0,0,,10,,,57,127
115,note_on,0,0,0,,4,,,76,127
344,note_off,229,0,0,,10,,,57,127
345,note_on,1,0,0,,12,,,59,127
574,note_off,229,0,0,,12,,,59,127
575,note_on,1,0,0,,0,,,60,127
798,note_off,223,0,0,,4,,,76,127
804,note_off,6,0,0,,0,,,60,127
805,note_on,1,0,0,,2,,,62,127
805,note_on,0,0,0,,5,,,77,127
1034,note_off,229,0,0,,5,,,77,127
1035,note_on,1,0,0,,2,,,74,127
1264,note_off,229,0,0,,2,,,74,127
1264,note_off,0,0,0,,2,,,62,127
1265,note_on,1,0,0,,2,,,62,127
1265,note_on,0,0,0,,12,,,71,127
1494,note_off,229,0,0,,12,,,71,127
1494,note_off,0,0,0,,2,,,62,127
1495,note_on,1,0,0,,0,,,60,127
1495,note_on,0,0,0,,4,,,76,127
1724,note_off,229,0,0,,4,,,76,127
1725,note_on,1,0,0,,0,,,72,127
1954,note_off,229,0,0,,0,,,72,127
1954,note_off,0,0,0,,0,,,60,127
1955,note_on,1,0,0,,0,,,60,127
1955,note_on,0,0,0,,10,,,69,127
2184,note_off,229,0,0,,10,,,69,127
2184,note_off,0,0,0,,0,,,60,127
2185,note_on,1,0,0,,8,,,56,127
2185,note_on,0,0,0,,12,,,71,127
2414,note_off,229,0,0,,8,,,56,127
2415,note_on,1,0,0,,4,,,52,127
2491,note_off,76,0,0,,12,,,71,127
2492,note_on,1,0,0,,0,,,72,127
2568,note_off,76,0,0,,0,,,72,127
2569,note_on,1,0,0,,2,,,74,127
2645,note_off,76,0,0,,2,,,74,127
2645,note_off,0,0,0,,4,,,52,127
2646,note_on,1,0,0,,10,,,57,127
2646,note_on,0,0,0,,0,,,72,127
2875,note_off,229,0,0,,10,,,57,127
2876,note_on,1,0,0,,2,,,62,127
2934,note_on,58,0,0,,0,,,60,127
2952,note_off,18,0,0,,2,,,62,127
2992,note_off,40,0,0,,0,,,72,127
2992,note_on,0,0,0,,2,,,62,127
3010,note_off,18,0,0,,0,,,60,127
3050,note_on,40,0,0,,0,,,60,127
3068,note_off,18,0,0,,2,,,62,127
3108,note_on,40,0,0,,12,,,59,127
3126,note_off,18,0,0,,0,,,60,127
3337,note_off,211,0,0,,12,,,59,127
3338,note_on,1,0,0,,10,,,57,127
3338,note_on,0,0,0,,4,,,76,127
3567,note_off,229,0,0,,4,,,76,127
3567,note_off,0,0,0,,10,,,57,127
3568,note_on,1,0,0,,8,,,56,127
3568,note_on,0,0,0,,12,,,71,127
3797,note_off,229,0,0,,8,,,56,127
3798,note_on,1,0,0,,4,,,52,127
3874,note_off,76,0,0,,12,,,71,127
3875,note_on,1,0,0,,0,,,72,127
3951,note_off,76,0,0,,0,,,72,127
3952,note_on,1,0,0,,2,,,74,127
4028,note_off,76,0,0,,2,,,74,127
4028,note_off,0,0,0,,4,,,52,127
4029,note_on,1,0,0,,10,,,57,127
4029,note_on,0,0,0,,0,,,72,127
4258,note_off,229,0,0,,10,,,57,127
4259,note_on,1,0,0,,2,,,62,127
4317,note_on,58,0,0,,0,,,60,127
4335,note_off,18,0,0,,2,,,62,127
4375,note_off,40,0,0,,0,,,72,127
4375,note_on,0,0,0,,2,,,62,127
4393,note_off,18,0,0,,0,,,60,127
4433,note_on,40,0,0,,0,,,60,127
4451,note_off,18,0,0,,2,,,62,127
4491,note_on,40,0,0,,12,,,59,127
4509,note_off,18,0,0,,0,,,60,127
4720,note_off,211,0,0,,12,,,59,127
4721,note_on,1,0,0,,10,,,57,127
4721,note_on,0,0,0,,4,,,76,127
4950,note_off,229,0,0,,4,,,76,127
4950,note_off,0,0,0,,10,,,57,127
4951,note_on,1,0,0,,8,,,56,127
4951,note_on,0,0,0,,12,,,71,127
5180,note_off,229,0,0,,8,,,56,127
5181,note_on,1,0,0,,4,,,52,127
5257,note_off,76,0,0,,12,,,71,127
5258,note_on,1,0,0,,0,,,72,127
5334,note_off,76,0,0,,0,,,72,127
5335,note_on,1,0,0,,2,,,74,127
5411,note_off,76,0,0,,2,,,74,127
5411,note_off,0,0,0,,4,,,52,127
5412,note_on,1,0,0,,10,,,57,127
5412,note_on,0,0,0,,0,,,72,127
5641,note_off,229,0,0,,10,,,57,127
5642,note_on,1,0,0,,5,,,53,127
5820,note_off,178,0,0,,0,,,72,127
5873,note_on,53,0,0,,10,,,81,127
6102,note_off,229,0,0,,10,,,81,127
6102,note_off,0,0,0,,5,,,53,127
6103,note_on,1,0,0,,2,,,62,127
6103,note_on,0,0,0,,5,,,77,127
6332,note_off,229,0,0,,2,,,62,127
6333,note_on,1,0,0,,4,,,52,127
6562,note_off,229,0,0,,5,,,77,127
6563,note_on,1,0,0,,7,,,79,127
6792,note_off,229,0,0,,7,,,79,127
6792,note_off,0,0,0,,4,,,52,127
6793,note_on,1,0,0,,0,,,60,127
6793,note_on,0,0,0,,4,,,76,127
7022,note_off,229,0,0,,0,,,60,127
7023,note_on,1,0,0,,2,,,50,127
7252,note_off,229,0,0,,4,,,76,127
7253,note_on,1,0,0,,5,,,77,127
7482,note_off,229,0,0,,5,,,77,127
7482,note_off,0,0,0,,2,,,50,127
7483,note_on,1,0,0,,12,,,59,127
7483,note_on,0,0,0,,2,,,74,127
7712,note_off,229,0,0,,12,,,59,127
7713,note_on,1,0,0,,0,,,48,127
7891,note_off,178,0,0,,2,,,74,127
7943,note_off,52,0,0,,0,,,48,127
7944,note_on,1,0,0,,0,,,60,127
7944,note_on,0,0,0,,4,,,76,127
8173,note_off,229,0,0,,4,,,76,127
8173,note_off,0,0,0,,0,,,60,127
8174,note_on,1,0,0,,2,,,62,127
8174,note_on,0,0,0,,5,,,77,127
8403,note_off,229,0,0,,5,,,77,127
8403,note_off,0,0,0,,2,,,62,127
8404,note_on,1,0,0,,4,,,64,127
8404,note_on,0,0,0,,7,,,79,127
8633,note_off,229,0,0,,7,,,79,127
8634,note_on,1,0,0,,4,,,76,127
8863,note_off,229,0,0,,4,,,76,127
8863,note_off,0,0,0,,4,,,64,127
8864,note_on,1,0,0,,4,,,64,127
8864,note_on,0,0,0,,0,,,72,127
9093,note_off,229,0,0,,0,,,72,127
9093,note_off,0,0,0,,4,,,64,127
9094,note_on,1,0,0,,12,,,59,127
9094,note_on,0,0,0,,2,,,74,127
9323,note_off,229,0,0,,12,,,59,127
9324,note_on,1,0,0,,7,,,55,127
9400,note_off,76,0,0,,2,,,74,127
9401,note_on,1,0,0,,4,,,76,127
9477,note_off,76,0,0,,4,,,76,127
9478,note_on,1,0,0,,5,,,77,127
9554,note_off,76,0,0,,5,,,77,127
9554,note_off,0,0,0,,7,,,55,127
9555,note_on,1,0,0,,0,,,60,127
9555,note_on,0,0,0,,4,,,76,127
9784,note_off,229,0,0,,0,,,60,127
9785,note_on,1,0,0,,5,,,65,127
9843,note_on,58,0,0,,4,,,64,127
9861,note_off,18,0,0,,5,,,65,127
9901,note_off,40,0,0,,4,,,76,127
9901,note_on,0,0,0,,5,,,65,127
9919,note_off,18,0,0,,4,,,64,127
9959,note_on,40,0,0,,4,,,64,127
9977,note_off,18,0,0,,5,,,65,127
10017,note_on,40,0,0,,2,,,62,127
10035,note_off,18,0,0,,4,,,64,127
10246,note_off,211,0,0,,2,,,62,127
10247,note_on,1,0,0,,0,,,60,127
10247,note_on,0,0,0,,7,,,79,127
10476,note_off,229,0,0,,7,,,79,127
10476,note_off,0,0,0,,0,,,60,127
10477,note_on,1,0,0,,12,,,59,127
10477,note_on,0,0,0,,2,,,74,127
10706,note_off,229,0,0,,12,,,59,127
10707,note_on,1,0,0,,7,,,55,127
10783,note_off,76,0,0,,2,,,74,127
10784,note_on,1,0,0,,4,,,76,127
10860,note_off,76,0,0,,4,,,76,127
10861,note_on,1,0,0,,5,,,77,127
10937,note_off,76,0,0,,5,,,77,127
10937,note_off,0,0,0,,7,,,55,127
10938,note_on,1,0,0,,0,,,60,127
10938,note_on,0,0,0,,4,,,76,127
11167,note_off,229,0,0,,0,,,60,127
11168,note_on,1,0,0,,0,,,48,127
11168,note_on,0,0,0,,0,,,60,127
11394,note_off,226,0,0,,4,,,76,127
11398,note_off,4,0,0,,0,,,60,127
11398,note_off,0,0,0,,0,,,48,127
11399,note_on,1,0,0,,0,,,60,127
11399,note_on,0,0,0,,0,,,48,127
11399,note_on,0,0,0,,0,,,84,127
11628,note_off,229,0,0,,0,,,84,127
11628,note_off,0,0,0,,0,,,48,127
11628,note_off,0,0,0,,0,,,60,127
11629,note_on,1,0,0,,0,,,48,127
11629,note_on,0,0,0,,0,,,60,127
11629,note_on,0,0,0,,4,,,76,127
11858,note_off,229,0,0,,4,,,76,127
11858,note_off,0,0,0,,0,,,60,127
11858,note_off,0,0,0,,0,,,48,127
11859,note_on,1,0,0,,0,,,60,127
11859,note_on,0,0,0,,2,,,50,127
11859,note_on,0,0,0,,7,,,79,127
11917,note_on,58,0,0,,6,,,78,127
11935,note_off,18,0,0,,7,,,79,127
11975,note_on,40,0,0,,7,,,79,127
11993,note_off,18,0,0,,6,,,78,127
12033,note_on,40,0,0,,6,,,78,127
12051,note_off,18,0,0,,7,,,79,127
12089,note_off,38,0,0,,2,,,50,127
12089,note_off,0,0,0,,0,,,60,127
12090,note_on,1,0,0,,0,,,60,127
12090,note_on,0,0,0,,2,,,50,127
12090,note_on,0,0,0,,7,,,79,127
12108,note_off,18,0,0,,6,,,78,127
12148,note_on,40,0,0,,6,,,78,127
12166,note_off,18,0,0,,7,,,79,127
12206,note_on,40,0,0,,7,,,79,127
12224,note_off,18,0,0,,6,,,78,127
12264,note_on,40,0,0,,6,,,78,127
12282,note_off,18,0,0,,7,,,79,127
12320,note_off,38,0,0,,2,,,50,127
12320,note_off,0,0,0,,0,,,60,127
12321,note_on,1,0,0,,2,,,50,127
12321,note_on,0,0,0,,0,,,60,127
12321,note_on,0,0,0,,7,,,79,127
12339,note_off,18,0,0,,6,,,78,127
12379,note_on,40,0,0,,6,,,78,127
12397,note_off,18,0,0,,7,,,79,127
12437,note_on,40,0,0,,7,,,79,127
12455,note_off,18,0,0,,6,,,78,127
12495,note_on,40,0,0,,6,,,78,127
12513,note_off,18,0,0,,7,,,79,127
12551,note_off,38,0,0,,0,,,60,127
12551,note_off,0,0,0,,2,,,50,127
12552,note_on,1,0,0,,2,,,50,127
12552,note_on,0,0,0,,12,,,59,127
12552,note_on,0,0,0,,10,,,81,127
12570,note_off,18,0,0,,6,,,78,127
12610,note_on,40,0,0,,7,,,79,127
12628,note_off,18,0,0,,10,,,81,127
12668,note_on,40,0,0,,10,,,81,127
12686,note_off,18,0,0,,7,,,79,127
12726,note_on,40,0,0,,7,,,79,127
12744,note_off,18,0,0,,10,,,81,127
12782,note_off,38,0,0,,12,,,59,127
12782,note_off,0,0,0,,2,,,50,127
12783,note_on,1,0,0,,2,,,50,127
12783,note_on,0,0,0,,12,,,59,127
12783,note_on,0,0,0,,10,,,81,127
12801,note_off,18,0,0,,7,,,79,127
12841,note_on,40,0,0,,7,,,79,127
12859,note_off,18,0,0,,10,,,81,127
12899,note_on,40,0,0,,10,,,81,127
12917,note_off,18,0,0,,7,,,79,127
12957,note_on,40,0,0,,7,,,79,127
12975,note_off,18,0,0,,10,,,81,127
13013,note_off,38,0,0,,12,,,59,127
13013,note_off,0,0,0,,2,,,50,127
13014,note_on,1,0,0,,12,,,59,127
13014,note_on,0,0,0,,2,,,50,127
13014,note_on,0,0,0,,10,,,81,127
13032,note_off,18,0,0,,7,,,79,127
13072,note_on,40,0,0,,7,,,79,127
13090,note_off,18,0,0,,10,,,81,127
13130,note_on,40,0,0,,10,,,81,127
13148,note_off,18,0,0,,7,,,79,127
13188,note_on,40,0,0,,7,,,79,127
13206,note_off,18,0,0,,10,,,81,127
13242,note_off,36,0,0,,7,,,79,127
13244,note_off,2,0,0,,2,,,50,127
13244,note_off,0,0,0,,12,,,59,127
13245,note_on,1,0,0,,2,,,50,127
13245,note_on,0,0,0,,1,,,61,127
13245,note_on,0,0,0,,7,,,79,127
13245,note_on,0,0,0,,11,,,82,127
13303,note_on,58,0,0,,10,,,81,127
13321,note_off,18,0,0,,11,,,82,127
13361,note_on,40,0,0,,11,,,82,127
13379,note_off,18,0,0,,10,,,81,127
13419,note_on,40,0,0,,10,,,81,127
13437,note_off,18,0,0,,11,,,82,127
13475,note_off,38,0,0,,1,,,61,127
13475,note_off,0,0,0,,2,,,50,127
13476,note_on,1,0,0,,2,,,50,127
13476,note_on,0,0,0,,1,,,61,127
13476,note_on,0,0,0,,11,,,82,127
13494,note_off,18,0,0,,10,,,81,127
13534,note_on,40,0,0,,10,,,81,127
13552,note_off,18,0,0,,11,,,82,127
13592,note_on,40,0,0,,11,,,82,127
13610,note_off,18,0,0,,10,,,81,127
13650,note_on,40,0,0,,10,,,81,127
13668,note_off,18,0,0,,11,,,82,127
13706,note_off,38,0,0,,1,,,61,127
13706,note_off,0,0,0,,2,,,50,127
13707,note_on,1,0,0,,1,,,61,127
13707,note_on,0,0,0,,2,,,50,127
13707,note_on,0,0,0,,11,,,82,127
13725,note_off,18,0,0,,10,,,81,127
13765,note_on,40,0,0,,10,,,81,127
13783,note_off,18,0,0,,11,,,82,127
13823,note_on,40,0,0,,11,,,82,127
13841,note_off,18,0,0,,10,,,81,127
13881,note_on,40,0,0,,10,,,81,127
13899,note_off,18,0,0,,11,,,82,127
13937,note_off,38,0,0,,2,,,50,127
13937,note_off,0,0,0,,1,,,61,127
13937,note_off,0,0,0,,7,,,79,127
13938,note_on,1,0,0,,2,,,62,127
13938,note_on,0,0,0,,2,,,50,127
13938,note_on,0,0,0,,11,,,82,127
13938,note_on,0,0,0,,5,,,77,127
13956,note_off,18,0,0,,10,,,81,127
13996,note_on,40,0,0,,10,,,81,127
14014,note_off,18,0,0,,11,,,82,127
14054,note_on,40,0,0,,11,,,82,127
14072,note_off,18,0,0,,10,,,81,127
14112,note_on,40,0,0,,10,,,81,127
14130,note_off,18,0,0,,11,,,82,127
14168,note_off,38,0,0,,2,,,50,127
14168,note_off,0,0,0,,2,,,62,127
14169,note_on,1,0,0,,2,,,62,127
14169,note_on,0,0,0,,2,,,50,127
14169,note_on,0,0,0,,11,,,82,127
14187,note_off,18,0,0,,10,,,81,127
14227,note_on,40,0,0,,10,,,81,127
14245,note_off,18,0,0,,11,,,82,127
14285,note_on,40,0,0,,11,,,82,127
14303,note_off,18,0,0,,10,,,81,127
14343,note_on,40,0,0,,10,,,81,127
14361,note_off,18,0,0,,11,,,82,127
14399,note_off,38,0,0,,2,,,50,127
14399,note_off,0,0,0,,2,,,62,127
14400,note_on,1,0,0,,2,,,62,127
14400,note_on,0,0,0,,2,,,50,127
14400,note_on,0,0,0,,11,,,82,127
14418,note_off,18,0,0,,10,,,81,127
14458,note_on,40,0,0,,10,,,81,127
14476,note_off,18,0,0,,11,,,82,127
14516,note_on,40,0,0,,11,,,82,127
14534,note_off,18,0,0,,10,,,81,127
14574,note_on,40,0,0,,10,,,81,127
14592,note_off,18,0,0,,11,,,82,127
14629,note_off,37,0,0,,10,,,81,127
14630,note_off,1,0,0,,2,,,50,127
14630,note_off,0,0,0,,2,,,62,127
14630,note_off,0,0,0,,5,,,77,127
14631,note_on,1,0,0,,4,,,52,127
14631,note_on,0,0,0,,2,,,62,127
14631,note_on,0,0,0,,4,,,76,127
14631,note_on,0,0,0,,10,,,81,127
14689,note_on,58,0,0,,8,,,80,127
14707,note_off,18,0,0,,10,,,81,127
14747,note_on,40,0,0,,10,,,81,127
14765,note_off,18,0,0,,8,,,80,127
14805,note_on,40,0,0,,8,,,80,127
14823,note_off,18,0,0,,10,,,81,127
14861,note_off,38,0,0,,2,,,62,127
14861,note_off,0,0,0,,4,,,52,127
14862,note_on,1,0,0,,2,,,62,127
14862,note_on,0,0,0,,4,,,52,127
14862,note_on,0,0,0,,10,,,81,127
14880,note_off,18,0,0,,8,,,80,127
14920,note_on,40,0,0,,8,,,80,127
14938,note_off,18,0,0,,10,,,81,127
14978,note_on,40,0,0,,10,,,81,127
14996,note_off,18,0,0,,8,,,80,127
15036,note_on,40,0,0,,8,,,80,127
15054,note_off,18,0,0,,10,,,81,127
15092,note_off,38,0,0,,4,,,52,127
15092,note_off,0,0,0,,2,,,62,127
15093,note_on,1,0,0,,2,,,62,127
15093,note_on,0,0,0,,4,,,52,127
15093,note_on,0,0,0,,10,,,81,127
15111,note_off,18,0,0,,8,,,80,127
15151,note_on,40,0,0,,8,,,80,127
15169,note_off,18,0,0,,10,,,81,127
15209,note_on,40,0,0,,10,,,81,127
15227,note_off,18,0,0,,8,,,80,127
15267,note_on,40,0,0,,8,,,80,127
15285,note_off,18,0,0,,10,,,81,127
15323,note_off,38,0,0,,4,,,52,127
15323,note_off,0,0,0,,2,,,62,127
15323,note_off,0,0,0,,4,,,76,127
15324,note_on,1,0,0,,0,,,60,127
15324,note_on,0,0,0,,4,,,52,127
15324,note_on,0,0,0,,0,,,72,127
15324,note_on,0,0,0,,12,,,83,127
15324,note_on,0,0,0,,4,,,76,127
15342,note_off,18,0,0,,8,,,80,127
15382,note_on,40,0,0,,10,,,81,127
15400,note_off,18,0,0,,12,,,83,127
15440,note_on,40,0,0,,12,,,83,127
15458,note_off,18,0,0,,10,,,81,127
15498,note_on,40,0,0,,10,,,81,127
15516,note_off,18,0,0,,12,,,83,127
15554,note_off,38,0,0,,4,,,52,127
15554,note_off,0,0,0,,0,,,60,127
15555,note_on,1,0,0,,4,,,52,127
15555,note_on,0,0,0,,0,,,60,127
15555,note_on,0,0,0,,12,,,83,127
15573,note_off,18,0,0,,10,,,81,127
15613,note_on,40,0,0,,10,,,81,127
15631,note_off,18,0,0,,12,,,83,127
15671,note_on,40,0,0,,12,,,83,127
15689,note_off,18,0,0,,10,,,81,127
15729,note_on,40,0,0,,10,,,81,127
15747,note_off,18,0,0,,12,,,83,127
15785,note_off,38,0,0,,0,,,60,127
15785,note_off,0,0,0,,4,,,52,127
15786,note_on,1,0,0,,4,,,52,127
15786,note_on,0,0,0,,0,,,60,127
15786,note_on,0,0,0,,12,,,83,127
15804,note_off,18,0,0,,10,,,81,127
15844,note_on,40,0,0,,10,,,81,127
15862,note_off,18,0,0,,12,,,83,127
15902,note_on,40,0,0,,12,,,83,127
15920,note_off,18,0,0,,10,,,81,127
15960,note_on,40,0,0,,10,,,81,127
15978,note_off,18,0,0,,12,,,83,127
16016,note_off,38,0,0,,0,,,60,127
16016,note_off,0,0,0,,4,,,52,127
16016,note_off,0,0,0,,4,,,76,127
16016,note_off,0,0,0,,0,,,72,127
16017,note_on,1,0,0,,3,,,63,127
16017,note_on,0,0,0,,4,,,52,127
16017,note_on,0,0,0,,6,,,78,127
16017,note_on,0,0,0,,12,,,71,127
16017,note_on,0,0,0,,12,,,83,127
16035,note_off,18,0,0,,10,,,81,127
16075,note_on,40,0,0,,10,,,81,127
16093,note_off,18,0,0,,12,,,83,127
16133,note_on,40,0,0,,12,,,83,127
16151,note_off,18,0,0,,10,,,81,127
16191,note_on,40,0,0,,10,,,81,127
16209,note_off,18,0,0,,12,,,83,127
16247,note_off,38,0,0,,4,,,52,127
16247,note_off,0,0,0,,3,,,63,127
16248,note_on,1,0,0,,4,,,52,127
16248,note_on,0,0,0,,3,,,63,127
16248,note_on,0,0,0,,12,,,83,127
16266,note_off,18,0,0,,10,,,81,127
16306,note_on,40,0,0,,10,,,81,127
16324,note_off,18,0,0,,12,,,83,127
16364,note_on,40,0,0,,12,,,83,127
16382,note_off,18,0,0,,10,,,81,127
16422,note_on,40,0,0,,10,,,81,127
16440,note_off,18,0,0,,12,,,83,127
16478,note_off,38,0,0,,3,,,63,127
16478,note_off,0,0,0,,4,,,52,127
16479,note_on,1,0,0,,3,,,63,127
16479,note_on,0,0,0,,4,,,52,127
16479,note_on,0,0,0,,12,,,83,127
16497,note_off,18,0,0,,10,,,81,127
16537,note_on,40,0,0,,10,,,81,127
16555,note_off,18,0,0,,12,,,83,127
16595,note_on,40,0,0,,12,,,83,127
16613,note_off,18,0,0,,10,,,81,127
16653,note_on,40,0,0,,10,,,81,127
16671,note_off,18,0,0,,12,,,83,127
16709,note_off,38,0,0,,10,,,81,127
16709,note_off,0,0,0,,4,,,52,127
16709,note_off,0,0,0,,3,,,63,127
16709,note_off,0,0,0,,12,,,71,127
16709,note_off,0,0,0,,6,,,78,127
16710,note_on,1,0,0,,4,,,52,127
16710,note_on,0,0,0,,4,,,64,127
16710,note_on,0,0,0,,8,,,80,127
16939,note_off,229,0,0,,8,,,80,127
16939,note_off,0,0,0,,4,,,64,127
16939,note_off,0,0,0,,4,,,52,127
16940,note_on,1,0,0,,6,,,54,127
16940,note_on,0,0,0,,10,,,81,127
17169,note_off,229,0,0,,10,,,81,127
17169,note_off,0,0,0,,6,,,54,127
17170,note_on,1,0,0,,7,,,55,127
17170,note_on,0,0,0,,12,,,83,127
17399,note_off,229,0,0,,12,,,83,127
17399,note_off,0,0,0,,7,,,55,127
17400,note_on,1,0,0,,10,,,57,127
17400,note_on,0,0,0,,6,,,78,127
17629,note_off,229,0,0,,6,,,78,127
17630,note_on,1,0,0,,7,,,79,127
17859,note_off,229,0,0,,7,,,79,127
17859,note_off,0,0,0,,10,,,57,127
17860,note_on,1,0,0,,12,,,59,127
17860,note_on,0,0,0,,10,,,81,127
18089,note_off,229,0,0,,10,,,81,127
18089,note_off,0,0,0,,12,,,59,127
18090,note_on,1,0,0,,0,,,60,127
18090,note_on,0,0,0,,3,,,75,127
18319,note_off,229,0,0,,3,,,75,127
18320,note_on,1,0,0,,4,,,76,127
18434,note_off,114,0,0,,4,,,76,127
18435,note_on,1,0,0,,6,,,78,127
18549,note_off,114,0,0,,6,,,78,127
18549,note_off,0,0,0,,0,,,60,127
18550,note_on,1,0,0,,0,,,60,127
18550,note_on,0,0,0,,7,,,79,127
18664,note_off,114,0,0,,7,,,79,127
18665,note_on,1,0,0,,10,,,81,127
18779,note_off,114,0,0,,10,,,81,127
18779,note_off,0,0,0,,0,,,60,127
18780,note_on,1,0,0,,12,,,59,127
18780,note_on,0,0,0,,10,,,81,127
19009,note_off,229,0,0,,10,,,81,127
19010,note_on,1,0,0,,12,,,83,127
19239,note_off,229,0,0,,12,,,59,127
19240,note_on,1,0,0,,12,,,71,127
19469,note_off,229,0,0,,12,,,71,127
19470,note_on,1,0,0,,12,,,71,127
19528,note_on,58,0,0,,10,,,69,127
19546,note_off,18,0,0,,12,,,71,127
19586,note_on,40,0,0,,12,,,71,127
19604,note_off,18,0,0,,10,,,69,127
19644,note_on,40,0,0,,10,,,69,127
19662,note_off,18,0,0,,12,,,71,127
19700,note_off,38,0,0,,12,,,83,127
19701,note_on,1,0,0,,7,,,67,127
19719,note_off,18,0,0,,10,,,69,127
19930,note_off,211,0,0,,7,,,67,127
19931,note_on,1,0,0,,6,,,66,127
19931,note_on,0,0,0,,12,,,83,127
20160,note_off,229,0,0,,12,,,83,127
20160,note_off,0,0,0,,6,,,66,127
20161,note_on,1,0,0,,3,,,63,127
20161,note_on,0,0,0,,6,,,78,127
20390,note_off,229,0,0,,3,,,63,127
20391,note_on,1,0,0,,12,,,59,127
20467,note_off,76,0,0,,6,,,78,127
20468,note_on,1,0,0,,7,,,79,127
20544,note_off,76,0,0,,7,,,79,127
20545,note_on,1,0,0,,10,,,81,127
20621,note_off,76,0,0,,10,,,81,127
20621,note_off,0,0,0,,12,,,59,127
20622,note_on,1,0,0,,4,,,64,127
20622,note_on,0,0,0,,7,,,79,127
20851,note_off,229,0,0,,4,,,64,127
20852,note_on,1,0,0,,10,,,69,127
20910,note_on,58,0,0,,7,,,67,127
20928,note_off,18,0,0,,10,,,69,127
20968,note_off,40,0,0,,7,,,79,127
20968,note_on,0,0,0,,10,,,69,127
20986,note_off,18,0,0,,7,,,67,127
21026,note_on,40,0,0,,7,,,67,127
21044,note_off,18,0,0,,10,,,69,127
21084,note_on,40,0,0,,6,,,66,127
21102,note_off,18,0,0,,7,,,67,127
21313,note_off,211,0,0,,6,,,66,127
21314,note_on,1,0,0,,4,,,64,127
21314,note_on,0,0,0,,12,,,83,127
21543,note_off,229,0,0,,12,,,83,127
21543,note_off,0,0,0,,4,,,64,127
21544,note_on,1,0,0,,3,,,63,127
21544,note_on,0,0,0,,6,,,78,127
21773,note_off,229,0,0,,3,,,63,127
21774,note_on,1,0,0,,12,,,59,127
21850,note_off,76,0,0,,6,,,78,127
21851,note_on,1,0,0,,7,,,79,127
21927,note_off,76,0,0,,7,,,79,127
21928,note_on,1,0,0,,10,,,81,127
22004,note_off,76,0,0,,10,,,81,127
22004,note_off,0,0,0,,12,,,59,127
22005,note_on,1,0,0,,4,,,64,127
22005,note_on,0,0,0,,7,,,79,127
22234,note_off,229,0,0,,4,,,64,127
22235,note_on,1,0,0,,11,,,58,127
22449,note_off,214,0,0,,7,,,79,127
22466,note_on,17,0,0,,6,,,78,127
22695,note_off,229,0,0,,6,,,78,127
22696,note_on,1,0,0,,4,,,76,127
22925,note_off,229,0,0,,4,,,76,127
22925,note_off,0,0,0,,11,,,58,127
22926,note_on,1,0,0,,10,,,57,127
22926,note_on,0,0,0,,0,,,84,127
23156,note_on,230,0,0,,3,,,75,127
23178,note_off,22,0,0,,0,,,84,127
23386,note_off,208,0,0,,3,,,75,127
23386,note_off,0,0,0,,10,,,57,127
23387,note_on,1,0,0,,7,,,55,127
23387,note_on,0,0,0,,4,,,76,127
23616,note_off,229,0,0,,4,,,76,127
23616,note_off,0,0,0,,7,,,55,127
23617,note_on,1,0,0,,10,,,57,127
23617,note_on,0,0,0,,10,,,81,127
23693,note_off,76,0,0,,10,,,81,127
23694,note_on,1,0,0,,7,,,79,127
23770,note_off,76,0,0,,7,,,79,127
23771,note_on,1,0,0,,6,,,78,127
23847,note_off,76,0,0,,6,,,78,127
23847,note_off,0,0,0,,10,,,57,127
23848,note_on,1,0,0,,12,,,59,127
23848,note_on,0,0,0,,7,,,79,127
23848,note_on,0,0,0,,4,,,76,127
24077,note_off,229,0,0,,4,,,76,127
24077,note_off,0,0,0,,7,,,79,127
24078,note_on,1,0,0,,12,,,47,127
24078,note_on,0,0,0,,3,,,75,127
24078,note_on,0,0,0,,6,,,78,127
24307,note_off,229,0,0,,6,,,78,127
24307,note_off,0,0,0,,3,,,75,127
24307,note_off,0,0,0,,12,,,47,127
24307,note_off,0,0,0,,12,,,59,127
24308,note_on,1,0,0,,4,,,76,127
24538,note_on,230,0,0,,4,,,52,127
24767,note_off,229,0,0,,4,,,52,127
24768,note_on,1,0,0,,10,,,57,127
24997,note_off,229,0,0,,10,,,57,127
24997,note_off,0,0,0,,4,,,76,127
24998,note_on,1,0,0,,10,,,57,127
25056,note_on,58,0,0,,7,,,55,127
25074,note_off,18,0,0,,10,,,57,127
25114,note_on,40,0,0,,10,,,57,127
25132,note_off,18,0,0,,7,,,55,127
25172,note_on,40,0,0,,7,,,55,127
25190,note_off,18,0,0,,10,,,57,127
25230,note_on,40,0,0,,6,,,54,127
25248,note_off,18,0,0,,7,,,55,127
25459,note_off,211,0,0,,6,,,54,127
25460,note_on,1,0,0,,4,,,52,127
25460,note_on,0,0,0,,12,,,71,127
25689,note_off,229,0,0,,12,,,71,127
25689,note_off,0,0,0,,4,,,52,127
25690,note_on,1,0,0,,3,,,51,127
25690,note_on,0,0,0,,6,,,66,127
25919,note_off,229,0,0,,3,,,51,127
25920,note_on,1,0,0,,12,,,47,127
25996,note_off,76,0,0,,6,,,66,127
25997,note_on,1,0,0,,7,,,67,127
26073,note_off,76,0,0,,7,,,67,127
26074,note_on,1,0,0,,10,,,69,127
26150,note_off,76,0,0,,10,,,69,127
26150,note_off,0,0,0,,12,,,47,127
26151,note_on,1,0,0,,4,,,52,127
26151,note_on,0,0,0,,7,,,67,127
26380,note_off,229,0,0,,4,,,52,127
26381,note_on,1,0,0,,10,,,57,127
26439,note_on,58,0,0,,7,,,55,127
26457,note_off,18,0,0,,10,,,57,127
26497,note_off,40,0,0,,7,,,67,127
26497,note_on,0,0,0,,10,,,57,127
26515,note_off,18,0,0,,7,,,55,127
26555,note_on,40,0,0,,7,,,55,127
26573,note_off,18,0,0,,10,,,57,127
26613,note_on,40,0,0,,6,,,54,127
26631,note_off,18,0,0,,7,,,55,127
26842,note_off,211,0,0,,6,,,54,127
26843,note_on,1,0,0,,4,,,52,127
26843,note_on,0,0,0,,12,,,71,127
27072,note_off,229,0,0,,12,,,71,127
27072,note_off,0,0,0,,4,,,52,127
27073,note_on,1,0,0,,3,,,51,127
27073,note_on,0,0,0,,6,,,66,127
27302,note_off,229,0,0,,3,,,51,127
27303,note_on,1,0,0,,12,,,47,127
27379,note_off,76,0,0,,6,,,66,127
27380,note_on,1,0,0,,7,,,67,127
27456,note_off,76,0,0,,7,,,67,127
27457,note_on,1,0,0,,10,,,69,127
27533,note_off,76,0,0,,10,,,69,127
27533,note_off,0,0,0,,12,,,47,127
27534,note_on,1,0,0,,4,,,52,127
27534,note_on,0,0,0,,7,,,67,127
27763,note_off,229,0,0,,4,,,52,127
27764,note_on,1,0,0,,11,,,46,127
27993,note_off,229,0,0,,7,,,67,127
27994,note_on,1,0,0,,6,,,66,127
28223,note_off,229,0,0,,6,,,66,127
28224,note_on,1,0,0,,4,,,64,127
28453,note_off,229,0,0,,4,,,64,127
28453,note_off,0,0,0,,11,,,46,127
28454,note_on,1,0,0,,10,,,45,127
28454,note_on,0,0,0,,0,,,72,127
28684,note_on,230,0,0,,3,,,63,127
28706,note_off,22,0,0,,0,,,72,127
28914,note_off,208,0,0,,3,,,63,127
28914,note_off,0,0,0,,10,,,45,127
28915,note_on,1,0,0,,7,,,43,127
28915,note_on,0,0,0,,4,,,64,127
29144,note_off,229,0,0,,4,,,64,127
29144,note_off,0,0,0,,7,,,43,127
29145,note_on,1,0,0,,10,,,45,127
29145,note_on,0,0,0,,10,,,69,127
29221,note_off,76,0,0,,10,,,69,127
29222,note_on,1,0,0,,7,,,67,127
29298,note_off,76,0,0,,7,,,67,127
29299,note_on,1,0,0,,6,,,66,127
29375,note_off,76,0,0,,6,,,66,127
29375,note_off,0,0,0,,10,,,45,127
29376,note_on,1,0,0,,12,,,47,127
29376,note_on,0,0,0,,7,,,67,127
29376,note_on,0,0,0,,4,,,64,127
29605,note_off,229,0,0,,4,,,64,127
29605,note_off,0,0,0,,7,,,67,127
29606,note_on,1,0,0,,6,,,66,127
29606,note_on,0,0,0,,3,,,63,127
29835,note_off,229,0,0,,3,,,63,127
29835,note_off,0,0,0,,6,,,66,127
29835,note_off,0,0,0,,12,,,47,127
29836,note_on,1,0,0,,0,,,48,127
29836,note_on,0,0,0,,4,,,64,127
30052,note_off,216,0,0,,4,,,64,127
30066,note_on,14,0,0,,4,,,76,127
30295,note_off,229,0,0,,4,,,76,127
30295,note_off,0,0,0,,0,,,48,127
30296,note_on,1,0,0,,2,,,50,127
30296,note_on,0,0,0,,5,,,77,127
30296,note_on,0,0,0,,10,,,69,127
30525,note_off,229,0,0,,10,,,69,127
30525,note_off,0,0,0,,2,,,50,127
30526,note_on,1,0,0,,4,,,52,127
30526,note_on,0,0,0,,8,,,68,127
30755,note_off,229,0,0,,5,,,77,127
30756,note_on,1,0,0,,4,,,76,127
30985,note_off,229,0,0,,4,,,76,127
30986,note_on,1,0,0,,2,,,74,127
31215,note_off,229,0,0,,2,,,74,127
31215,note_off,0,0,0,,8,,,68,127
31215,note_off,0,0,0,,4,,,52,127
31216,note_on,1,0,0,,10,,,45,127
31216,note_on,0,0,0,,2,,,74,127
31274,note_on,58,0,0,,0,,,72,127
31292,note_off,18,0,0,,2,,,74,127
31332,note_on,40,0,0,,2,,,74,127
31350,note_off,18,0,0,,0,,,72,127
31390,note_on,40,0,0,,0,,,72,127
31408,note_off,18,0,0,,2,,,74,127
31446,note_off,38,0,0,,10,,,45,127
31447,note_on,1,0,0,,10,,,57,127
31447,note_on,0,0,0,,2,,,74,127
31465,note_off,18,0,0,,0,,,72,127
31505,note_on,40,0,0,,0,,,72,127
31523,note_off,18,0,0,,2,,,74,127
31563,note_on,40,0,0,,2,,,74,127
31581,note_off,18,0,0,,0,,,72,127
31621,note_on,40,0,0,,0,,,72,127
31639,note_off,18,0,0,,2,,,74,127
31677,note_off,38,0,0,,10,,,57,127
31678,note_on,1,0,0,,7,,,55,127
31678,note_on,0,0,0,,12,,,71,127
31696,note_off,18,0,0,,0,,,72,127
31907,note_off,211,0,0,,12,,,71,127
31907,note_off,0,0,0,,7,,,55,127
31908,note_on,1,0,0,,10,,,57,127
31908,note_on,0,0,0,,10,,,69,127
31984,note_off,76,0,0,,10,,,69,127
31985,note_on,1,0,0,,7,,,67,127
32061,note_off,76,0,0,,7,,,67,127
32062,note_on,1,0,0,,6,,,66,127
32138,note_off,76,0,0,,6,,,66,127
32138,note_off,0,0,0,,10,,,57,127
32139,note_on,1,0,0,,12,,,59,127
32139,note_on,0,0,0,,4,,,64,127
32139,note_on,0,0,0,,7,,,67,127
32368,note_off,229,0,0,,7,,,67,127
32368,note_off,0,0,0,,4,,,64,127
32369,note_on,1,0,0,,12,,,47,127
32369,note_on,0,0,0,,6,,,66,127
32369,note_on,0,0,0,,3,,,63,127
32598,note_off,229,0,0,,3,,,63,127
32598,note_off,0,0,0,,6,,,66,127
32598,note_off,0,0,0,,12,,,47,127
32598,note_off,0,0,0,,12,,,59,127
32599,note_on,1,0,0,,0,,,48,127
32599,note_on,0,0,0,,4,,,64,127
32815,note_off,216,0,0,,4,,,64,127
32829,note_on,14,0,0,,4,,,76,127
33058,note_off,229,0,0,,4,,,76,127
33058,note_off,0,0,0,,0,,,48,127
33059,note_on,1,0,0,,2,,,50,127
33059,note_on,0,0,0,,5,,,77,127
33059,note_on,0,0,0,,10,,,69,127
33288,note_off,229,0,0,,10,,,69,127
33288,note_off,0,0,0,,2,,,50,127
33289,note_on,1,0,0,,4,,,52,127
33289,note_on,0,0,0,,8,,,68,127
33518,note_off,229,0,0,,5,,,77,127
33519,note_on,1,0,0,,4,,,76,127
33748,note_off,229,0,0,,4,,,76,127
33749,note_on,1,0,0,,2,,,74,127
33978,note_off,229,0,0,,2,,,74,127
33978,note_off,0,0,0,,8,,,68,127
33978,note_off,0,0,0,,4,,,52,127
33979,note_on,1,0,0,,10,,,45,127
33979,note_on,0,0,0,,2,,,74,127
34037,note_on,58,0,0,,0,,,72,127
34055,note_off,18,0,0,,2,,,74,127
34095,note_on,40,0,0,,2,,,74,127
34113,note_off,18,0,0,,0,,,72,127
34153,note_on,40,0,0,,0,,,72,127
34171,note_off,18,0,0,,2,,,74,127
34209,note_off,38,0,0,,10,,,45,127
34210,note_on,1,0,0,,10,,,57,127
34210,note_on,0,0,0,,2,,,74,127
34228,note_off,18,0,0,,0,,,72,127
34268,note_on,40,0,0,,0,,,72,127
34286,note_off,18,0,0,,2,,,74,127
34326,note_on,40,0,0,,2,,,74,127
34344,note_off,18,0,0,,0,,,72,127
34384,note_on,40,0,0,,0,,,72,127
34402,note_off,18,0,0,,2,,,74,127
34440,note_off,38,0,0,,10,,,57,127
34441,note_on,1,0,0,,7,,,55,127
34441,note_on,0,0,0,,12,,,71,127
34459,note_off,18,0,0,,0,,,72,127
34670,note_off,211,0,0,,12,,,71,127
34670,note_off,0,0,0,,7,,,55,127
34671,note_on,1,0,0,,10,,,57,127
34671,note_on,0,0,0,,10,,,69,127
34747,note_off,76,0,0,,10,,,69,127
34748,note_on,1,0,0,,7,,,67,127
34824,note_off,76,0,0,,7,,,67,127
34825,note_on,1,0,0,,6,,,66,127
34901,note_off,76,0,0,,6,,,66,127
34901,note_off,0,0,0,,10,,,57,127
34902,note_on,1,0,0,,12,,,59,127
34902,note_on,0,0,0,,4,,,64,127
34902,note_on,0,0,0,,7,,,67,127
35131,note_off,229,0,0,,7,,,67,127
35131,note_off,0,0,0,,4,,,64,127
35132,note_on,1,0,0,,12,,,47,127
35132,note_on,0,0,0,,3,,,63,127
35132,note_on,0,0,0,,6,,,66,127
35361,note_off,229,0,0,,6,,,66,127
35361,note_off,0,0,0,,3,,,63,127
35361,note_off,0,0,0,,12,,,47,127
35361,note_off,0,0,0,,12,,,59,127
35362,note_on,1,0,0,,4,,,52,127
35362,note_on,0,0,0,,4,,,64,127
35938,note_off,576,0,0,,4,,,64,127
36052,note_off,114,0,0,,4,,,52,127
36053,note_on,1,0,0,,4,,,76,127
36283,note_on,230,0,0,,4,,,64,127
36512,note_off,229,0,0,,4,,,64,127
36513,note_on,1,0,0,,2,,,62,127
36742,note_off,229,0,0,,2,,,62,127
36742,note_off,0,0,0,,4,,,76,127
36743,note_on,1,0,0,,1,,,61,127
36743,note_on,0,0,0,,4,,,76,127
36972,note_off,229,0,0,,1,,,61,127
36973,note_on,1,0,0,,4,,,64,127
37202,note_off,229,0,0,,4,,,64,127
37203,note_on,1,0,0,,11,,,58,127
37432,note_off,229,0,0,,11,,,58,127
37432,note_off,0,0,0,,4,,,76,127
37433,note_on,1,0,0,,10,,,57,127
37433,note_on,0,0,0,,4,,,76,127
37662,note_off,229,0,0,,10,,,57,127
37663,note_on,1,0,0,,4,,,64,127
37892,note_off,229,0,0,,4,,,64,127
37893,note_on,1,0,0,,7,,,55,127
38122,note_off,229,0,0,,7,,,55,127
38123,note_on,1,0,0,,10,,,57,127
38123,note_on,0,0,0,,5,,,53,127
38352,note_off,229,0,0,,4,,,76,127
38353,note_on,1,0,0,,10,,,81,127
38582,note_off,229,0,0,,10,,,81,127
38582,note_off,0,0,0,,5,,,53,127
38582,note_off,0,0,0,,10,,,57,127
38583,note_on,1,0,0,,4,,,52,127
38583,note_on,0,0,0,,1,,,61,127
38583,note_on,0,0,0,,7,,,79,127
38812,note_off,229,0,0,,7,,,79,127
38812,note_off,0,0,0,,1,,,61,127
38812,note_off,0,0,0,,4,,,52,127
38813,note_on,1,0,0,,2,,,50,127
38813,note_on,0,0,0,,2,,,62,127
38813,note_on,0,0,0,,7,,,79,127
38871,note_on,58,0,0,,5,,,77,127
38889,note_off,18,0,0,,7,,,79,127
38929,note_on,40,0,0,,7,,,79,127
38947,note_off,18,0,0,,5,,,77,127
38987,note_on,40,0,0,,5,,,77,127
39005,note_off,18,0,0,,7,,,79,127
39045,note_on,40,0,0,,4,,,76,127
39063,note_off,18,0,0,,5,,,77,127
39274,note_off,211,0,0,,4,,,76,127
39275,note_on,1,0,0,,2,,,74,127
39504,note_off,229,0,0,,2,,,74,127
39505,note_on,1,0,0,,2,,,74,127
39734,note_off,229,0,0,,2,,,62,127
39734,note_off,0,0,0,,2,,,50,127
39735,note_on,1,0,0,,2,,,62,127
39964,note_off,229,0,0,,2,,,62,127
39965,note_on,1,0,0,,0,,,60,127
40194,note_off,229,0,0,,0,,,60,127
40194,note_off,0,0,0,,2,,,74,127
40195,note_on,1,0,0,,12,,,59,127
40195,note_on,0,0,0,,2,,,74,127
40424,note_off,229,0,0,,12,,,59,127
40425,note_on,1,0,0,,2,,,62,127
40654,note_off,229,0,0,,2,,,62,127
40655,note_on,1,0,0,,10,,,57,127
40884,note_off,229,0,0,,10,,,57,127
40884,note_off,0,0,0,,2,,,74,127
40885,note_on,1,0,0,,7,,,55,127
40885,note_on,0,0,0,,2,,,74,127
41114,note_off,229,0,0,,7,,,55,127
41115,note_on,1,0,0,,2,,,62,127
41344,note_off,229,0,0,,2,,,62,127
41345,note_on,1,0,0,,5,,,53,127
41574,note_off,229,0,0,,5,,,53,127
41575,note_on,1,0,0,,4,,,52,127
41575,note_on,0,0,0,,7,,,55,127
41804,note_off,229,0,0,,2,,,74,127
41805,note_on,1,0,0,,7,,,79,127
42034,note_off,229,0,0,,7,,,79,127
42034,note_off,0,0,0,,7,,,55,127
42034,note_off,0,0,0,,4,,,52,127
42035,note_on,1,0,0,,2,,,50,127
42035,note_on,0,0,0,,12,,,59,127
42035,note_on,0,0,0,,5,,,77,127
42264,note_off,229,0,0,,5,,,77,127
42264,note_off,0,0,0,,12,,,59,127
42264,note_off,0,0,0,,2,,,50,127
42265,note_on,1,0,0,,0,,,60,127
42265,note_on,0,0,0,,0,,,48,127
42265,note_on,0,0,0,,5,,,77,127
42323,note_on,58,0,0,,4,,,76,127
42341,note_off,18,0,0,,5,,,77,127
42381,note_on,40,0,0,,5,,,77,127
42399,note_off,18,0,0,,4,,,76,127
42439,note_on,40,0,0,,4,,,76,127
42457,note_off,18,0,0,,5,,,77,127
42497,note_on,40,0,0,,2,,,74,127
42515,note_off,18,0,0,,4,,,76,127
42726,note_off,211,0,0,,2,,,74,127
42727,note_on,1,0,0,,0,,,72,127
42956,note_off,229,0,0,,0,,,72,127
42956,note_off,0,0,0,,0,,,48,127
42956,note_off,0,0,0,,0,,,60,127
42957,note_on,1,0,0,,4,,,52,127
42957,note_on,0,0,0,,7,,,79,127
43186,note_off,229,0,0,,7,,,79,127
43187,note_on,1,0,0,,4,,,76,127
43416,note_off,229,0,0,,4,,,76,127
43416,note_off,0,0,0,,4,,,52,127
43417,note_on,1,0,0,,4,,,52,127
43417,note_on,0,0,0,,1,,,73,127
43646,note_off,229,0,0,,1,,,73,127
43646,note_off,0,0,0,,4,,,52,127
43647,note_on,1,0,0,,1,,,73,127
43876,note_off,229,0,0,,1,,,73,127
43877,note_on,1,0,0,,2,,,50,127
43877,note_on,0,0,0,,2,,,74,127
44106,note_off,229,0,0,,2,,,50,127
44107,note_on,1,0,0,,4,,,52,127
44336,note_off,229,0,0,,4,,,52,127
44337,note_on,1,0,0,,6,,,54,127
44452,note_off,115,0,0,,2,,,74,127
44567,note_on,115,0,0,,10,,,81,127
44796,note_off,229,0,0,,10,,,81,127
44796,note_off,0,0,0,,6,,,54,127
44797,note_on,1,0,0,,6,,,54,127
44797,note_on,0,0,0,,0,,,72,127
45026,note_off,229,0,0,,6,,,54,127
45027,note_on,1,0,0,,7,,,55,127
45256,note_off,229,0,0,,0,,,72,127
45257,note_on,1,0,0,,7,,,79,127
45486,note_off,229,0,0,,7,,,79,127
45486,note_off,0,0,0,,7,,,55,127
45487,note_on,1,0,0,,7,,,55,127
45487,note_on,0,0,0,,12,,,71,127
45716,note_off,229,0,0,,7,,,55,127
45717,note_on,1,0,0,,0,,,48,127
45946,note_off,229,0,0,,12,,,71,127
45947,note_on,1,0,0,,4,,,76,127
46176,note_off,229,0,0,,4,,,76,127
46176,note_off,0,0,0,,0,,,48,127
46177,note_on,1,0,0,,0,,,48,127
46177,note_on,0,0,0,,7,,,67,127
46406,note_off,229,0,0,,0,,,48,127
46407,note_on,1,0,0,,2,,,50,127
46636,note_off,229,0,0,,7,,,67,127
46637,note_on,1,0,0,,7,,,67,127
46713,note_off,76,0,0,,7,,,67,127
46714,note_on,1,0,0,,6,,,66,127
46790,note_off,76,0,0,,6,,,66,127
46791,note_on,1,0,0,,4,,,64,127
46867,note_off,76,0,0,,4,,,64,127
46868,note_on,1,0,0,,2,,,62,127
47097,note_off,229,0,0,,2,,,62,127
47097,note_off,0,0,0,,2,,,50,127
47098,note_on,1,0,0,,0,,,60,127
47156,note_on,58,0,0,,12,,,59,127
47174,note_off,18,0,0,,0,,,60,127
47214,note_on,40,0,0,,0,,,60,127
47232,note_off,18,0,0,,12,,,59,127
47272,note_on,40,0,0,,12,,,59,127
47290,note_off,18,0,0,,0,,,60,127
47330,note_on,40,0,0,,10,,,57,127
47348,note_off,18,0,0,,12,,,59,127
47559,note_off,211,0,0,,10,,,57,127
47560,note_on,1,0,0,,7,,,55,127
47560,note_on,0,0,0,,2,,,74,127
47789,note_off,229,0,0,,2,,,74,127
47789,note_off,0,0,0,,7,,,55,127
47790,note_on,1,0,0,,6,,,54,127
47790,note_on,0,0,0,,10,,,69,127
48019,note_off,229,0,0,,6,,,54,127
48020,note_on,1,0,0,,2,,,50,127
48096,note_off,76,0,0,,10,,,69,127
48097,note_on,1,0,0,,12,,,71,127
48173,note_off,76,0,0,,12,,,71,127
48174,note_on,1,0,0,,0,,,72,127
48250,note_off,76,0,0,,0,,,72,127
48250,note_off,0,0,0,,2,,,50,127
48251,note_on,1,0,0,,7,,,55,127
48251,note_on,0,0,0,,12,,,71,127
48480,note_off,229,0,0,,7,,,55,127
48481,note_on,1,0,0,,0,,,60,127
48539,note_on,58,0,0,,12,,,59,127
48557,note_off,18,0,0,,0,,,60,127
48597,note_off,40,0,0,,12,,,71,127
48597,note_on,0,0,0,,0,,,60,127
48615,note_off,18,0,0,,12,,,59,127
48655,note_on,40,0,0,,12,,,59,127
48673,note_off,18,0,0,,0,,,60,127
48713,note_on,40,0,0,,10,,,57,127
48731,note_off,18,0,0,,12,,,59,127
48942,note_off,211,0,0,,10,,,57,127
48943,note_on,1,0,0,,7,,,55,127
48943,note_on,0,0,0,,2,,,74,127
49172,note_off,229,0,0,,2,,,74,127
49172,note_off,0,0,0,,7,,,55,127
49173,note_on,1,0,0,,6,,,54,127
49173,note_on,0,0,0,,10,,,69,127
49402,note_off,229,0,0,,6,,,54,127
49403,note_on,1,0,0,,2,,,50,127
49479,note_off,76,0,0,,10,,,69,127
49480,note_on,1,0,0,,12,,,71,127
49556,note_off,76,0,0,,12,,,71,127
49557,note_on,1,0,0,,0,,,72,127
49633,note_off,76,0,0,,0,,,72,127
49633,note_off,0,0,0,,2,,,50,127
49634,note_on,1,0,0,,7,,,55,127
49634,note_on,0,0,0,,12,,,71,127
49850,note_off,216,0,0,,12,,,71,127
49863,note_off,13,0,0,,7,,,55,127
49864,note_on,1,0,0,,7,,,55,127
49864,note_on,0,0,0,,5,,,65,127
49864,note_on,0,0,0,,12,,,83,127
49864,note_on,0,0,0,,12,,,71,127
50093,note_off,229,0,0,,5,,,65,127
50093,note_off,0,0,0,,7,,,55,127
50094,note_on,1,0,0,,5,,,65,127
50094,note_on,0,0,0,,7,,,55,127
50323,note_off,229,0,0,,7,,,55,127
50323,note_off,0,0,0,,5,,,65,127
50324,note_on,1,0,0,,5,,,65,127
50324,note_on,0,0,0,,7,,,55,127
50553,note_off,229,0,0,,7,,,55,127
50553,note_off,0,0,0,,5,,,65,127
50553,note_off,0,0,0,,12,,,71,127
50553,note_off,0,0,0,,12,,,83,127
50554,note_on,1,0,0,,7,,,55,127
50554,note_on,0,0,0,,4,,,64,127
50554,note_on,0,0,0,,0,,,84,127
50554,note_on,0,0,0,,0,,,72,127
50783,note_off,229,0,0,,4,,,64,127
50783,note_off,0,0,0,,7,,,55,127
50784,note_on,1,0,0,,7,,,55,127
50784,note_on,0,0,0,,4,,,64,127
51013,note_off,229,0,0,,4,,,64,127
51013,note_off,0,0,0,,7,,,55,127
51014,note_on,1,0,0,,4,,,64,127
51014,note_on,0,0,0,,7,,,55,127
51243,note_off,229,0,0,,7,,,55,127
51243,note_off,0,0,0,,4,,,64,127
51243,note_off,0,0,0,,0,,,72,127
51243,note_off,0,0,0,,0,,,84,127
51244,note_on,1,0,0,,10,,,57,127
51244,note_on,0,0,0,,7,,,67,127
51244,note_on,0,0,0,,1,,,85,127
51244,note_on,0,0,0,,1,,,73,127
51473,note_off,229,0,0,,7,,,67,127
51473,note_off,0,0,0,,10,,,57,127
51474,note_on,1,0,0,,10,,,57,127
51474,note_on,0,0,0,,7,,,67,127
51703,note_off,229,0,0,,7,,,67,127
51703,note_off,0,0,0,,10,,,57,127
51704,note_on,1,0,0,,10,,,57,127
51704,note_on,0,0,0,,7,,,67,127
51933,note_off,229,0,0,,7,,,67,127
51933,note_off,0,0,0,,10,,,57,127
51933,note_off,0,0,0,,1,,,73,127
51933,note_off,0,0,0,,1,,,85,127
51934,note_on,1,0,0,,10,,,57,127
51934,note_on,0,0,0,,6,,,66,127
51934,note_on,0,0,0,,2,,,74,127
51934,note_on,0,0,0,,2,,,86,127
52163,note_off,229,0,0,,6,,,66,127
52163,note_off,0,0,0,,10,,,57,127
52164,note_on,1,0,0,,6,,,66,127
52164,note_on,0,0,0,,10,,,57,127
52393,note_off,229,0,0,,10,,,57,127
52393,note_off,0,0,0,,6,,,66,127
52394,note_on,1,0,0,,10,,,57,127
52394,note_on,0,0,0,,6,,,66,127
52623,note_off,229,0,0,,6,,,66,127
52623,note_off,0,0,0,,10,,,57,127
52623,note_off,0,0,0,,2,,,86,127
52623,note_off,0,0,0,,2,,,74,127
52624,note_on,1,0,0,,12,,,59,127
52624,note_on,0,0,0,,10,,,69,127
52624,note_on,0,0,0,,10,,,81,127
52624,note_on,0,0,0,,3,,,75,127
52853,note_off,229,0,0,,10,,,69,127
52853,note_off,0,0,0,,12,,,59,127
52854,note_on,1,0,0,,12,,,59,127
52854,note_on,0,0,0,,10,,,69,127
53083,note_off,229,0,0,,10,,,69,127
53083,note_off,0,0,0,,12,,,59,127
53084,note_on,1,0,0,,12,,,59,127
53084,note_on,0,0,0,,10,,,69,127
53313,note_off,229,0,0,,10,,,69,127
53313,note_off,0,0,0,,12,,,59,127
53313,note_off,0,0,0,,3,,,75,127
53313,note_off,0,0,0,,10,,,81,127
53314,note_on,1,0,0,,12,,,59,127
53314,note_on,0,0,0,,7,,,67,127
53314,note_on,0,0,0,,12,,,83,127
53314,note_on,0,0,0,,2,,,74,127
53543,note_off,229,0,0,,7,,,67,127
53543,note_off,0,0,0,,12,,,59,127
53544,note_on,1,0,0,,12,,,59,127
53544,note_on,0,0,0,,7,,,67,127
53773,note_off,229,0,0,,7,,,67,127
53773,note_off,0,0,0,,12,,,59,127
53774,note_on,1,0,0,,12,,,59,127
53774,note_on,0,0,0,,7,,,67,127
53985,note_off,211,0,0,,2,,,74,127
53985,note_off,0,0,0,,12,,,83,127
54003,note_off,18,0,0,,7,,,67,127
54003,note_off,0,0,0,,12,,,59,127
54004,note_on,1,0,0,,10,,,69,127
54004,note_on,0,0,0,,10,,,57,127
54004,note_on,0,0,0,,0,,,84,127
54233,note_off,229,0,0,,0,,,84,127
54233,note_off,0,0,0,,10,,,57,127
54233,note_off,0,0,0,,10,,,69,127
54234,note_on,1,0,0,,7,,,67,127
54234,note_on,0,0,0,,7,,,55,127
54234,note_on,0,0,0,,12,,,83,127
54463,note_off,229,0,0,,12,,,83,127
54463,note_off,0,0,0,,7,,,55,127
54463,note_off,0,0,0,,7,,,67,127
54464,note_on,1,0,0,,5,,,65,127
54464,note_on,0,0,0,,5,,,53,127
54464,note_on,0,0,0,,10,,,81,127
54693,note_off,229,0,0,,5,,,53,127
54693,note_off,0,0,0,,5,,,65,127
54694,note_on,1,0,0,,4,,,64,127
54694,note_on,0,0,0,,4,,,52,127
54923,note_off,229,0,0,,10,,,81,127
54924,note_on,1,0,0,,10,,,81,127
55000,note_off,76,0,0,,10,,,81,127
55001,note_on,1,0,0,,8,,,80,127
55077,note_off,76,0,0,,8,,,80,127
55078,note_on,1,0,0,,6,,,78,127
55154,note_off,76,0,0,,6,,,78,127
55155,note_on,1,0,0,,4,,,76,127
55384,note_off,229,0,0,,4,,,52,127
55384,note_off,0,0,0,,4,,,64,127
55385,note_on,1,0,0,,2,,,62,127
55443,note_on,58,0,0,,0,,,60,127
55461,note_off,18,0,0,,2,,,62,127
55501,note_off,40,0,0,,4,,,76,127
55501,note_on,0,0,0,,2,,,62,127
55519,note_off,18,0,0,,0,,,60,127
55559,note_on,40,0,0,,0,,,60,127
55577,note_off,18,0,0,,2,,,62,127
55617,note_on,40,0,0,,12,,,59,127
55635,note_off,18,0,0,,0,,,60,127
55846,note_off,211,0,0,,12,,,59,127
55847,note_on,1,0,0,,10,,,57,127
55847,note_on,0,0,0,,4,,,76,127
56076,note_off,229,0,0,,4,,,76,127
56076,note_off,0,0,0,,10,,,57,127
56077,note_on,1,0,0,,8,,,56,127
56077,note_on,0,0,0,,12,,,71,127
56306,note_off,229,0,0,,8,,,56,127
56307,note_on,1,0,0,,4,,,52,127
56383,note_off,76,0,0,,12,,,71,127
56384,note_on,1,0,0,,0,,,72,127
56460,note_off,76,0,0,,0,,,72,127
56461,note_on,1,0,0,,2,,,74,127
56537,note_off,76,0,0,,2,,,74,127
56537,note_off,0,0,0,,4,,,52,127
56538,note_on,1,0,0,,10,,,57,127
56538,note_on,0,0,0,,0,,,72,127
56767,note_off,229,0,0,,10,,,57,127
56768,note_on,1,0,0,,2,,,62,127
56826,note_on,58,0,0,,0,,,60,127
56844,note_off,18,0,0,,2,,,62,127
56884,note_off,40,0,0,,0,,,72,127
56884,note_on,0,0,0,,2,,,62,127
56902,note_off,18,0,0,,0,,,60,127
56942,note_on,40,0,0,,0,,,60,127
56960,note_off,18,0,0,,2,,,62,127
57000,note_on,40,0,0,,12,,,59,127
57018,note_off,18,0,0,,0,,,60,127
57229,note_off,211,0,0,,12,,,59,127
57230,note_on,1,0,0,,10,,,57,127
57230,note_on,0,0,0,,4,,,76,127
57459,note_off,229,0,0,,4,,,76,127
57459,note_off,0,0,0,,10,,,57,127
57460,note_on,1,0,0,,8,,,56,127
57460,note_on,0,0,0,,12,,,71,127
57689,note_off,229,0,0,,8,,,56,127
57690,note_on,1,0,0,,4,,,52,127
57766,note_off,76,0,0,,12,,,71,127
57767,note_on,1,0,0,,0,,,72,127
57843,note_off,76,0,0,,0,,,72,127
57844,note_on,1,0,0,,2,,,74,127
57920,note_off,76,0,0,,2,,,74,127
57920,note_off,0,0,0,,4,,,52,127
57921,note_on,1,0,0,,10,,,57,127
57921,note_on,0,0,0,,0,,,72,127
58150,note_off,229,0,0,,10,,,57,127
58151,note_on,1,0,0,,3,,,51,127
58368,note_off,217,0,0,,0,,,72,127
58381,note_on,13,0,0,,12,,,71,127
58610,note_off,229,0,0,,12,,,71,127
58611,note_on,1,0,0,,10,,,69,127
58840,note_off,229,0,0,,10,,,69,127
58840,note_off,0,0,0,,3,,,51,127
58841,note_on,1,0,0,,2,,,50,127
58841,note_on,0,0,0,,5,,,77,127
59071,note_on,230,0,0,,8,,,68,127
59093,note_off,22,0,0,,5,,,77,127
59301,note_off,208,0,0,,8,,,68,127
59301,note_off,0,0,0,,2,,,50,127
59302,note_on,1,0,0,,0,,,48,127
59302,note_on,0,0,0,,10,,,69,127
59531,note_off,229,0,0,,10,,,69,127
59531,note_off,0,0,0,,0,,,48,127
59532,note_on,1,0,0,,2,,,50,127
59532,note_on,0,0,0,,2,,,74,127
59608,note_off,76,0,0,,2,,,74,127
59609,note_on,1,0,0,,0,,,72,127
59685,note_off,76,0,0,,0,,,72,127
59686,note_on,1,0,0,,12,,,71,127
59762,note_off,76,0,0,,12,,,71,127
59762,note_off,0,0,0,,2,,,50,127
59763,note_on,1,0,0,,4,,,52,127
59763,note_on,0,0,0,,0,,,72,127
59763,note_on,0,0,0,,10,,,69,127
59992,note_off,229,0,0,,10,,,69,127
59992,note_off,0,0,0,,0,,,72,127
59993,note_on,1,0,0,,4,,,40,127
59993,note_on,0,0,0,,8,,,68,127
59993,note_on,0,0,0,,12,,,71,127
60222,note_off,229,0,0,,12,,,71,127
60222,note_off,0,0,0,,8,,,68,127
60222,note_off,0,0,0,,4,,,40,127
60222,note_off,0,0,0,,4,,,52,127
60223,note_on,1,0,0,,10,,,45,127
60223,note_on,0,0,0,,10,,,69,127
60439,note_off,216,0,0,,10,,,45,127
60453,note_on,14,0,0,,10,,,57,127
60682,note_off,229,0,0,,10,,,57,127
60683,note_on,1,0,0,,12,,,59,127
60912,note_off,229,0,0,,12,,,59,127
60912,note_off,0,0,0,,10,,,69,127
60913,note_on,1,0,0,,2,,,62,127
60971,note_on,58,0,0,,0,,,60,127
60989,note_off,18,0,0,,2,,,62,127
61029,note_on,40,0,0,,2,,,62,127
61047,note_off,18,0,0,,0,,,60,127
61087,note_on,40,0,0,,0,,,60,127
61105,note_off,18,0,0,,2,,,62,127
61145,note_on,40,0,0,,12,,,59,127
61163,note_off,18,0,0,,0,,,60,127
61374,note_off,211,0,0,,12,,,59,127
61375,note_on,1,0,0,,10,,,57,127
61375,note_on,0,0,0,,4,,,76,127
61604,note_off,229,0,0,,4,,,76,127
61604,note_off,0,0,0,,10,,,57,127
61605,note_on,1,0,0,,8,,,56,127
61605,note_on,0,0,0,,12,,,71,127
61834,note_off,229,0,0,,8,,,56,127
61835,note_on,1,0,0,,4,,,52,127
61911,note_off,76,0,0,,12,,,71,127
61912,note_on,1,0,0,,0,,,72,127
61988,note_off,76,0,0,,0,,,72,127
61989,note_on,1,0,0,,2,,,74,127
62065,note_off,76,0,0,,2,,,74,127
62065,note_off,0,0,0,,4,,,52,127
62066,note_on,1,0,0,,10,,,57,127
62066,note_on,0,0,0,,0,,,72,127
62295,note_off,229,0,0,,10,,,57,127
62296,note_on,1,0,0,,2,,,62,127
62354,note_on,58,0,0,,0,,,60,127
62372,note_off,18,0,0,,2,,,62,127
62412,note_off,40,0,0,,0,,,72,127
62412,note_on,0,0,0,,2,,,62,127
62430,note_off,18,0,0,,0,,,60,127
62470,note_on,40,0,0,,0,,,60,127
62488,note_off,18,0,0,,2,,,62,127
62528,note_on,40,0,0,,12,,,59,127
62546,note_off,18,0,0,,0,,,60,127
62757,note_off,211,0,0,,12,,,59,127
62758,note_on,1,0,0,,10,,,57,127
62758,note_on,0,0,0,,4,,,76,127
62987,note_off,229,0,0,,4,,,76,127
62987,note_off,0,0,0,,10,,,57,127
62988,note_on,1,0,0,,8,,,56,127
62988,note_on,0,0,0,,12,,,71,127
63217,note_off,229,0,0,,8,,,56,127
63218,note_on,1,0,0,,4,,,52,127
63294,note_off,76,0,0,,12,,,71,127
63295,note_on,1,0,0,,0,,,72,127
63371,note_off,76,0,0,,0,,,72,127
63372,note_on,1,0,0,,2,,,74,127
63448,note_off,76,0,0,,2,,,74,127
63448,note_off,0,0,0,,4,,,52,127
63449,note_on,1,0,0,,10,,,57,127
63449,note_on,0,0,0,,0,,,72,127
63678,note_off,229,0,0,,10,,,57,127
63679,note_on,1,0,0,,3,,,51,127
63902,note_off,223,0,0,,0,,,72,127
63909,note_on,7,0,0,,12,,,71,127
64138,note_off,229,0,0,,12,,,71,127
64139,note_on,1,0,0,,10,,,69,127
64368,note_off,229,0,0,,10,,,69,127
64368,note_off,0,0,0,,3,,,51,127
64369,note_on,1,0,0,,2,,,50,127
64369,note_on,0,0,0,,5,,,77,127
64599,note_on,230,0,0,,8,,,68,127
64621,note_off,22,0,0,,5,,,77,127
64829,note_off,208,0,0,,8,,,68,127
64829,note_off,0,0,0,,2,,,50,127
64830,note_on,1,0,0,,0,,,48,127
64830,note_on,0,0,0,,10,,,69,127
65059,note_off,229,0,0,,10,,,69,127
65059,note_off,0,0,0,,0,,,48,127
65060,note_on,1,0,0,,2,,,50,127
65060,note_on,0,0,0,,2,,,74,127
65136,note_off,76,0,0,,2,,,74,127
65137,note_on,1,0,0,,0,,,72,127
65213,note_off,76,0,0,,0,,,72,127
65214,note_on,1,0,0,,12,,,71,127
65290,note_off,76,0,0,,12,,,71,127
65290,note_off,0,0,0,,2,,,50,127
65291,note_on,1,0,0,,4,,,52,127
65291,note_on,0,0,0,,10,,,69,127
65291,note_on,0,0,0,,0,,,72,127
65520,note_off,229,0,0,,0,,,72,127
65520,note_off,0,0,0,,10,,,69,127
65521,note_on,1,0,0,,4,,,40,127
65521,note_on,0,0,0,,8,,,68,127
65521,note_on,0,0,0,,12,,,71,127
65750,note_off,229,0,0,,12,,,71,127
65750,note_off,0,0,0,,8,,,68,127
65750,note_off,0,0,0,,4,,,40,127
65750,note_off,0,0,0,,4,,,52,127
65751,note_on,1,0,0,,5,,,53,127
65751,note_on,0,0,0,,10,,,69,127
65967,note_off,216,0,0,,10,,,69,127
65981,note_on,14,0,0,,10,,,81,127
66210,note_off,229,0,0,,10,,,81,127
66210,note_off,0,0,0,,5,,,53,127
66211,note_on,1,0,0,,7,,,55,127
66211,note_on,0,0,0,,11,,,82,127
66211,note_on,0,0,0,,2,,,74,127
66440,note_off,229,0,0,,2,,,74,127
66440,note_off,0,0,0,,7,,,55,127
66441,note_on,1,0,0,,10,,,57,127
66441,note_on,0,0,0,,1,,,73,127
66670,note_off,229,0,0,,11,,,82,127
66671,note_on,1,0,0,,10,,,81,127
66900,note_off,229,0,0,,10,,,81,127
66901,note_on,1,0,0,,7,,,79,127
67130,note_off,229,0,0,,7,,,79,127
67130,note_off,0,0,0,,1,,,73,127
67130,note_off,0,0,0,,10,,,57,127
67131,note_on,1,0,0,,2,,,50,127
67131,note_on,0,0,0,,7,,,79,127
67189,note_on,58,0,0,,5,,,77,127
67207,note_off,18,0,0,,7,,,79,127
67247,note_on,40,0,0,,7,,,79,127
67265,note_off,18,0,0,,5,,,77,127
67305,note_on,40,0,0,,5,,,77,127
67323,note_off,18,0,0,,7,,,79,127
67361,note_off,38,0,0,,2,,,50,127
67362,note_on,1,0,0,,2,,,62,127
67362,note_on,0,0,0,,7,,,79,127
67380,note_off,18,0,0,,5,,,77,127
67420,note_on,40,0,0,,5,,,77,127
67438,note_off,18,0,0,,7,,,79,127
67478,note_on,40,0,0,,7,,,79,127
67496,note_off,18,0,0,,5,,,77,127
67536,note_on,40,0,0,,5,,,77,127
67554,note_off,18,0,0,,7,,,79,127
67592,note_off,38,0,0,,2,,,62,127
67593,note_on,1,0,0,,0,,,60,127
67593,note_on,0,0,0,,4,,,76,127
67611,note_off,18,0,0,,5,,,77,127
67822,note_off,211,0,0,,4,,,76,127
67822,note_off,0,0,0,,0,,,60,127
67823,note_on,1,0,0,,2,,,62,127
67823,note_on,0,0,0,,2,,,74,127
67899,note_off,76,0,0,,2,,,74,127
67900,note_on,1,0,0,,0,,,72,127
67976,note_off,76,0,0,,0,,,72,127
67977,note_on,1,0,0,,12,,,71,127
68053,note_off,76,0,0,,12,,,71,127
68053,note_off,0,0,0,,2,,,62,127
68054,note_on,1,0,0,,4,,,64,127
68054,note_on,0,0,0,,0,,,72,127
68054,note_on,0,0,0,,10,,,69,127
68283,note_off,229,0,0,,10,,,69,127
68283,note_off,0,0,0,,0,,,72,127
68284,note_on,1,0,0,,4,,,52,127
68284,note_on,0,0,0,,12,,,71,127
68284,note_on,0,0,0,,8,,,68,127
68513,note_off,229,0,0,,8,,,68,127
68513,note_off,0,0,0,,12,,,71,127
68513,note_off,0,0,0,,4,,,52,127
68513,note_off,0,0,0,,4,,,64,127
68514,note_on,1,0,0,,5,,,53,127
68514,note_on,0,0,0,,10,,,69,127
68730,note_off,216,0,0,,10,,,69,127
68744,note_on,14,0,0,,10,,,81,127
68973,note_off,229,0,0,,10,,,81,127
68973,note_off,0,0,0,,5,,,53,127
68974,note_on,1,0,0,,7,,,55,127
68974,note_on,0,0,0,,11,,,82,127
68974,note_on,0,0,0,,2,,,74,127
69203,note_off,229,0,0,,2,,,74,127
69203,note_off,0,0,0,,7,,,55,127
69204,note_on,1,0,0,,10,,,57,127
69204,note_on,0,0,0,,1,,,73,127
69433,note_off,229,0,0,,11,,,82,127
69434,note_on,1,0,0,,10,,,81,127
69663,note_off,229,0,0,,10,,,81,127
69664,note_on,1,0,0,,10,,,45,127
69664,note_on,0,0,0,,7,,,79,127
69893,note_off,229,0,0,,7,,,79,127
69893,note_off,0,0,0,,10,,,45,127
69893,note_off,0,0,0,,1,,,73,127
69893,note_off,0,0,0,,10,,,57,127
69894,note_on,1,0,0,,2,,,38,127
69894,note_on,0,0,0,,7,,,79,127
69952,note_on,58,0,0,,5,,,77,127
69970,note_off,18,0,0,,7,,,79,127
70010,note_on,40,0,0,,7,,,79,127
70028,note_off,18,0,0,,5,,,77,127
70068,note_on,40,0,0,,5,,,77,127
70086,note_off,18,0,0,,7,,,79,127
70124,note_off,38,0,0,,2,,,38,127
70125,note_on,1,0,0,,2,,,50,127
70125,note_on,0,0,0,,7,,,79,127
70143,note_off,18,0,0,,5,,,77,127
70183,note_on,40,0,0,,5,,,77,127
70201,note_off,18,0,0,,7,,,79,127
70241,note_on,40,0,0,,7,,,79,127
70259,note_off,18,0,0,,5,,,77,127
70299,note_on,40,0,0,,5,,,77,127
70317,note_off,18,0,0,,7,,,79,127
70355,note_off,38,0,0,,2,,,50,127
70356,note_on,1,0,0,,0,,,48,127
70356,note_on,0,0,0,,4,,,76,127
70374,note_off,18,0,0,,5,,,77,127
70585,note_off,211,0,0,,4,,,76,127
70585,note_off,0,0,0,,0,,,48,127
70586,note_on,1,0,0,,2,,,50,127
70586,note_on,0,0,0,,2,,,74,127
70662,note_off,76,0,0,,2,,,74,127
70663,note_on,1,0,0,,0,,,72,127
70739,note_off,76,0,0,,0,,,72,127
70740,note_on,1,0,0,,12,,,71,127
70816,note_off,76,0,0,,12,,,71,127
70816,note_off,0,0,0,,2,,,50,127
70817,note_on,1,0,0,,4,,,52,127
70817,note_on,0,0,0,,10,,,69,127
70817,note_on,0,0,0,,0,,,72,127
71046,note_off,229,0,0,,0,,,72,127
71046,note_off,0,0,0,,10,,,69,127
71057,note_on,11,0,0,,4,,,40,127
71057,note_on,0,0,0,,8,,,68,127
71057,note_on,0,0,0,,12,,,71,127
71277,note_off,220,0,0,,4,,,52,127
71287,note_off,10,0,0,,12,,,71,127
71287,note_off,0,0,0,,8,,,68,127
71287,note_off,0,0,0,,4,,,40,127
71312,note_on,25,0,0,,10,,,69,127
71312,note_on,0,0,0,,10,,,45,127
73122,note_off,1810,0,0,,10,,,45,127
73122,note_off,0,0,0,,10,,,69,127
73728,end_of_track,606,1,0,,,,,,
