tick,type,time,meta,track,program,channel,pitch,tempo,note,velocity
0,copyright,0,1,0,,,,,,
0,program_change,0,0,0,6,0,,,,
0,pitchwheel,0,0,0,,0,0,,,
0,program_change,0,0,0,6,1,,,,
0,pitchwheel,0,0,0,,1,-590,,,
0,program_change,0,0,0,6,2,,,,
0,pitchwheel,0,0,0,,2,-272,,,
0,program_change,0,0,0,6,3,,,,
0,pitchwheel,0,0,0,,3,-353,,,
0,program_change,0,0,0,6,4,,,,
0,pitchwheel,0,0,0,,4,-560,,,
0,program_change,0,0,0,6,5,,,,
0,pitchwheel,0,0,0,,5,-80,,,
0,program_change,0,0,0,6,6,,,,
0,pitchwheel,0,0,0,,6,-625,,,
0,program_change,0,0,0,6,7,,,,
0,pitchwheel,0,0,0,,7,-130,,,
0,program_change,0,0,0,6,8,,,,
0,pitchwheel,0,0,0,,8,-512,,,
0,program_change,0,0,0,6,10,,,,
0,pitchwheel,0,0,0,,10,-464,,,
0,program_change,0,0,0,6,11,,,,
0,pitchwheel,0,0,0,,11,-208,,,
0,program_change,0,0,0,6,12,,,,
0,pitchwheel,0,0,0,,12,-553,,,
0,set_tempo,0,1,0,,,,500000,,
121,note_on,121,0,0,,5,,,77,127
364,note_on,243,0,0,,0,,,84,127
425,note_off,61,0,0,,5,,,77,127
607,note_on,182,0,0,,0,,,72,127
844,note_off,237,0,0,,0,,,84,127
848,note_off,4,0,0,,0,,,72,127
849,note_on,1,0,0,,2,,,74,127
1092,note_on,243,0,0,,10,,,81,127
1153,note_off,61,0,0,,2,,,74,127
1335,note_on,182,0,0,,10,,,69,127
1572,note_off,237,0,0,,10,,,81,127
1576,note_off,4,0,0,,10,,,69,127
1577,note_on,1,0,0,,11,,,70,127
1820,note_on,243,0,0,,5,,,77,127
1881,note_off,61,0,0,,11,,,70,127
2063,note_on,182,0,0,,5,,,65,127
2184,note_off,121,0,0,,5,,,77,127
2304,note_off,120,0,0,,5,,,65,127
2305,note_on,1,0,0,,0,,,60,127
2548,note_on,243,0,0,,10,,,81,127
2785,note_off,237,0,0,,0,,,60,127
2789,note_off,4,0,0,,10,,,81,127
2790,note_on,1,0,0,,10,,,81,127
3031,note_off,241,0,0,,10,,,81,127
3032,note_on,1,0,0,,11,,,82,127
3032,note_on,0,0,0,,10,,,81,127
3273,note_off,241,0,0,,10,,,81,127
3274,note_on,1,0,0,,10,,,81,127
3354,note_off,80,0,0,,10,,,81,127
3355,note_on,1,0,0,,7,,,79,127
3435,note_off,80,0,0,,7,,,79,127
3436,note_on,1,0,0,,5,,,77,127
3516,note_off,80,0,0,,5,,,77,127
3516,note_off,0,0,0,,11,,,82,127
3517,note_on,1,0,0,,7,,,79,127
3517,note_on,0,0,0,,11,,,82,127
3758,note_off,241,0,0,,11,,,82,127
3758,note_off,0,0,0,,7,,,79,127
3759,note_on,1,0,0,,10,,,81,127
3759,note_on,0,0,0,,7,,,79,127
4000,note_off,241,0,0,,7,,,79,127
4001,note_on,1,0,0,,7,,,79,127
4081,note_off,80,0,0,,7,,,79,127
4082,note_on,1,0,0,,5,,,77,127
4162,note_off,80,0,0,,5,,,77,127
4163,note_on,1,0,0,,4,,,76,127
4243,note_off,80,0,0,,4,,,76,127
4243,note_off,0,0,0,,10,,,81,127
4244,note_on,1,0,0,,5,,,77,127
4244,note_on,0,0,0,,10,,,81,127
4485,note_off,241,0,0,,10,,,81,127
4485,note_off,0,0,0,,5,,,77,127
4486,note_on,1,0,0,,11,,,70,127
4607,note_on,121,0,0,,7,,,79,127
4714,note_off,107,0,0,,11,,,70,127
4728,note_on,14,0,0,,10,,,69,127
4835,note_off,107,0,0,,7,,,79,127
4849,note_on,14,0,0,,5,,,77,127
4956,note_off,107,0,0,,10,,,69,127
4970,note_on,14,0,0,,7,,,67,127
5077,note_off,107,0,0,,5,,,77,127
5091,note_on,14,0,0,,4,,,76,127
5198,note_off,107,0,0,,7,,,67,127
5204,note_off,6,0,0,,4,,,76,127
5212,note_on,8,0,0,,5,,,65,127
5212,note_on,0,0,0,,10,,,81,127
5453,note_off,241,0,0,,10,,,81,127
5453,note_off,0,0,0,,5,,,65,127
5454,note_on,1,0,0,,0,,,72,127
5454,note_on,0,0,0,,10,,,81,127
5513,note_off,59,0,0,,10,,,81,127
5514,note_on,1,0,0,,7,,,79,127
5573,note_off,59,0,0,,7,,,79,127
5574,note_on,1,0,0,,10,,,81,127
5633,note_off,59,0,0,,10,,,81,127
5634,note_on,1,0,0,,7,,,79,127
5693,note_off,59,0,0,,7,,,79,127
5693,note_off,0,0,0,,0,,,72,127
5694,note_on,1,0,0,,0,,,60,127
5694,note_on,0,0,0,,10,,,81,127
5753,note_off,59,0,0,,10,,,81,127
5754,note_on,1,0,0,,7,,,79,127
5813,note_off,59,0,0,,7,,,79,127
5814,note_on,1,0,0,,5,,,77,127
5873,note_off,59,0,0,,5,,,77,127
5874,note_on,1,0,0,,4,,,76,127
5933,note_off,59,0,0,,4,,,76,127
5933,note_off,0,0,0,,0,,,60,127
5934,note_on,1,0,0,,2,,,62,127
5934,note_on,0,0,0,,5,,,77,127
6175,note_off,241,0,0,,5,,,77,127
6175,note_off,0,0,0,,2,,,62,127
6176,note_on,1,0,0,,10,,,69,127
6176,note_on,0,0,0,,5,,,77,127
6235,note_off,59,0,0,,5,,,77,127
6236,note_on,1,0,0,,4,,,76,127
6295,note_off,59,0,0,,4,,,76,127
6296,note_on,1,0,0,,5,,,77,127
6355,note_off,59,0,0,,5,,,77,127
6356,note_on,1,0,0,,4,,,76,127
6415,note_off,59,0,0,,4,,,76,127
6415,note_off,0,0,0,,10,,,69,127
6416,note_on,1,0,0,,10,,,57,127
6416,note_on,0,0,0,,5,,,77,127
6475,note_off,59,0,0,,5,,,77,127
6476,note_on,1,0,0,,4,,,76,127
6535,note_off,59,0,0,,4,,,76,127
6536,note_on,1,0,0,,2,,,74,127
6595,note_off,59,0,0,,2,,,74,127
6596,note_on,1,0,0,,0,,,72,127
6655,note_off,59,0,0,,0,,,72,127
6655,note_off,0,0,0,,10,,,57,127
6656,note_on,1,0,0,,11,,,58,127
6656,note_on,0,0,0,,2,,,74,127
6897,note_off,241,0,0,,2,,,74,127
6897,note_off,0,0,0,,11,,,58,127
6898,note_on,1,0,0,,5,,,65,127
6898,note_on,0,0,0,,2,,,74,127
6957,note_off,59,0,0,,2,,,74,127
6958,note_on,1,0,0,,0,,,72,127
7017,note_off,59,0,0,,0,,,72,127
7018,note_on,1,0,0,,2,,,74,127
7077,note_off,59,0,0,,2,,,74,127
7078,note_on,1,0,0,,0,,,72,127
7137,note_off,59,0,0,,0,,,72,127
7137,note_off,0,0,0,,5,,,65,127
7138,note_on,1,0,0,,5,,,53,127
7138,note_on,0,0,0,,2,,,74,127
7197,note_off,59,0,0,,2,,,74,127
7198,note_on,1,0,0,,0,,,72,127
7257,note_off,59,0,0,,0,,,72,127
7258,note_on,1,0,0,,11,,,70,127
7317,note_off,59,0,0,,11,,,70,127
7318,note_on,1,0,0,,10,,,69,127
7377,note_off,59,0,0,,10,,,69,127
7377,note_off,0,0,0,,5,,,53,127
7378,note_on,1,0,0,,0,,,48,127
7378,note_on,0,0,0,,7,,,67,127
7593,note_off,215,0,0,,7,,,67,127
7620,note_off,27,0,0,,0,,,48,127
7621,note_on,1,0,0,,10,,,69,127
7621,note_on,0,0,0,,0,,,60,127
7621,note_on,0,0,0,,0,,,72,127
7862,note_off,241,0,0,,0,,,60,127
7862,note_off,0,0,0,,10,,,69,127
7863,note_on,1,0,0,,0,,,60,127
7863,note_on,0,0,0,,10,,,69,127
7983,note_off,120,0,0,,0,,,72,127
7984,note_on,1,0,0,,5,,,77,127
8104,note_off,120,0,0,,5,,,77,127
8104,note_off,0,0,0,,10,,,69,127
8104,note_off,0,0,0,,0,,,60,127
8105,note_on,1,0,0,,0,,,60,127
8105,note_on,0,0,0,,10,,,69,127
8105,note_on,0,0,0,,0,,,72,127
8346,note_off,241,0,0,,0,,,72,127
8346,note_off,0,0,0,,10,,,69,127
8346,note_off,0,0,0,,0,,,60,127
8347,note_on,1,0,0,,7,,,67,127
8347,note_on,0,0,0,,0,,,60,127
8347,note_on,0,0,0,,0,,,72,127
8427,note_off,80,0,0,,0,,,72,127
8428,note_on,1,0,0,,11,,,70,127
8508,note_off,80,0,0,,11,,,70,127
8509,note_on,1,0,0,,10,,,69,127
8589,note_off,80,0,0,,10,,,69,127
8589,note_off,0,0,0,,0,,,60,127
8589,note_off,0,0,0,,7,,,67,127
8590,note_on,1,0,0,,7,,,67,127
8590,note_on,0,0,0,,0,,,60,127
8590,note_on,0,0,0,,11,,,70,127
8831,note_off,241,0,0,,11,,,70,127
8831,note_off,0,0,0,,0,,,60,127
8831,note_off,0,0,0,,7,,,67,127
8832,note_on,1,0,0,,7,,,67,127
8832,note_on,0,0,0,,0,,,60,127
8832,note_on,0,0,0,,11,,,70,127
9073,note_off,241,0,0,,11,,,70,127
9073,note_off,0,0,0,,0,,,60,127
9073,note_off,0,0,0,,7,,,67,127
9074,note_on,1,0,0,,0,,,60,127
9074,note_on,0,0,0,,7,,,67,127
9074,note_on,0,0,0,,7,,,79,127
9315,note_off,241,0,0,,7,,,67,127
9315,note_off,0,0,0,,0,,,60,127
9316,note_on,1,0,0,,7,,,67,127
9316,note_on,0,0,0,,0,,,60,127
9436,note_off,120,0,0,,7,,,79,127
9437,note_on,1,0,0,,11,,,70,127
9557,note_off,120,0,0,,11,,,70,127
9557,note_off,0,0,0,,0,,,60,127
9557,note_off,0,0,0,,7,,,67,127
9558,note_on,1,0,0,,5,,,53,127
9558,note_on,0,0,0,,5,,,65,127
9558,note_on,0,0,0,,10,,,69,127
9678,note_off,120,0,0,,10,,,69,127
9679,note_on,1,0,0,,0,,,72,127
9799,note_off,120,0,0,,0,,,72,127
9800,note_on,1,0,0,,5,,,77,127
9920,note_off,120,0,0,,5,,,77,127
9921,note_on,1,0,0,,10,,,81,127
10041,note_off,120,0,0,,10,,,81,127
10041,note_off,0,0,0,,5,,,65,127
10041,note_off,0,0,0,,5,,,53,127
10042,note_on,1,0,0,,10,,,57,127
10042,note_on,0,0,0,,5,,,65,127
10042,note_on,0,0,0,,5,,,77,127
10162,note_off,120,0,0,,5,,,77,127
10163,note_on,1,0,0,,0,,,72,127
10283,note_off,120,0,0,,0,,,72,127
10283,note_off,0,0,0,,5,,,65,127
10283,note_off,0,0,0,,10,,,57,127
10284,note_on,1,0,0,,11,,,58,127
10284,note_on,0,0,0,,5,,,65,127
10284,note_on,0,0,0,,4,,,76,127
10284,note_on,0,0,0,,2,,,74,127
10364,note_off,80,0,0,,2,,,74,127
10364,note_off,0,0,0,,4,,,76,127
10365,note_on,1,0,0,,0,,,72,127
10445,note_off,80,0,0,,0,,,72,127
10446,note_on,1,0,0,,11,,,70,127
10526,note_off,80,0,0,,11,,,70,127
10526,note_off,0,0,0,,11,,,58,127
10527,note_on,1,0,0,,0,,,60,127
10527,note_on,0,0,0,,10,,,69,127
10768,note_off,241,0,0,,10,,,69,127
10768,note_off,0,0,0,,5,,,65,127
10769,note_on,1,0,0,,4,,,64,127
10769,note_on,0,0,0,,7,,,67,127
11010,note_off,241,0,0,,7,,,67,127
11010,note_off,0,0,0,,4,,,64,127
11010,note_off,0,0,0,,0,,,60,127
11011,note_on,1,0,0,,5,,,53,127
11011,note_on,0,0,0,,5,,,65,127
11226,note_off,215,0,0,,5,,,65,127
11253,note_off,27,0,0,,5,,,53,127
11254,note_on,1,0,0,,5,,,53,127
11254,note_on,0,0,0,,10,,,81,127
11374,note_off,120,0,0,,5,,,53,127
11375,note_on,1,0,0,,7,,,55,127
11495,note_off,120,0,0,,7,,,55,127
11496,note_on,1,0,0,,10,,,57,127
11616,note_off,120,0,0,,10,,,57,127
11616,note_off,0,0,0,,10,,,81,127
11617,note_on,1,0,0,,11,,,58,127
11617,note_on,0,0,0,,0,,,84,127
11737,note_off,120,0,0,,0,,,84,127
11737,note_off,0,0,0,,11,,,58,127
11738,note_on,1,0,0,,0,,,60,127
11738,note_on,0,0,0,,7,,,79,127
11858,note_off,120,0,0,,0,,,60,127
11859,note_on,1,0,0,,2,,,62,127
11979,note_off,120,0,0,,2,,,62,127
11979,note_off,0,0,0,,7,,,79,127
11980,note_on,1,0,0,,4,,,64,127
11980,note_on,0,0,0,,0,,,72,127
12100,note_off,120,0,0,,4,,,64,127
12101,note_on,1,0,0,,5,,,65,127
12221,note_off,120,0,0,,5,,,65,127
12221,note_off,0,0,0,,0,,,72,127
12222,note_on,1,0,0,,7,,,67,127
12222,note_on,0,0,0,,0,,,72,127
12281,note_off,59,0,0,,0,,,72,127
12282,note_on,1,0,0,,11,,,70,127
12341,note_off,59,0,0,,11,,,70,127
12341,note_off,0,0,0,,7,,,67,127
12342,note_on,1,0,0,,4,,,64,127
12342,note_on,0,0,0,,10,,,69,127
12401,note_off,59,0,0,,10,,,69,127
12402,note_on,1,0,0,,11,,,70,127
12461,note_off,59,0,0,,11,,,70,127
12461,note_off,0,0,0,,4,,,64,127
12462,note_on,1,0,0,,5,,,53,127
12462,note_on,0,0,0,,5,,,65,127
12462,note_on,0,0,0,,10,,,69,127
12703,note_off,241,0,0,,10,,,69,127
12703,note_off,0,0,0,,5,,,65,127
12703,note_off,0,0,0,,5,,,53,127
12704,note_on,1,0,0,,5,,,53,127
12704,note_on,0,0,0,,10,,,81,127
12824,note_off,120,0,0,,5,,,53,127
12825,note_on,1,0,0,,7,,,55,127
12945,note_off,120,0,0,,7,,,55,127
12946,note_on,1,0,0,,10,,,57,127
13066,note_off,120,0,0,,10,,,57,127
13066,note_off,0,0,0,,10,,,81,127
13067,note_on,1,0,0,,11,,,58,127
13067,note_on,0,0,0,,0,,,84,127
13187,note_off,120,0,0,,0,,,84,127
13187,note_off,0,0,0,,11,,,58,127
13188,note_on,1,0,0,,0,,,60,127
13188,note_on,0,0,0,,7,,,79,127
13308,note_off,120,0,0,,0,,,60,127
13309,note_on,1,0,0,,2,,,62,127
13429,note_off,120,0,0,,2,,,62,127
13429,note_off,0,0,0,,7,,,79,127
13430,note_on,1,0,0,,4,,,64,127
13430,note_on,0,0,0,,0,,,72,127
13550,note_off,120,0,0,,4,,,64,127
13551,note_on,1,0,0,,5,,,65,127
13671,note_off,120,0,0,,5,,,65,127
13671,note_off,0,0,0,,0,,,72,127
13672,note_on,1,0,0,,7,,,67,127
13672,note_on,0,0,0,,0,,,72,127
13731,note_off,59,0,0,,0,,,72,127
13732,note_on,1,0,0,,11,,,70,127
13791,note_off,59,0,0,,11,,,70,127
13791,note_off,0,0,0,,7,,,67,127
13792,note_on,1,0,0,,4,,,64,127
13792,note_on,0,0,0,,10,,,69,127
13851,note_off,59,0,0,,10,,,69,127
13852,note_on,1,0,0,,11,,,70,127
13911,note_off,59,0,0,,11,,,70,127
13911,note_off,0,0,0,,4,,,64,127
13912,note_on,1,0,0,,5,,,53,127
13912,note_on,0,0,0,,5,,,65,127
13912,note_on,0,0,0,,10,,,69,127
14153,note_off,241,0,0,,10,,,69,127
14153,note_off,0,0,0,,5,,,65,127
14153,note_off,0,0,0,,5,,,53,127
14154,note_on,1,0,0,,5,,,65,127
14154,note_on,0,0,0,,10,,,81,127
14274,note_off,120,0,0,,5,,,65,127
14275,note_on,1,0,0,,4,,,64,127
14395,note_off,120,0,0,,4,,,64,127
14396,note_on,1,0,0,,2,,,62,127
14516,note_off,120,0,0,,2,,,62,127
14516,note_off,0,0,0,,10,,,81,127
14517,note_on,1,0,0,,0,,,60,127
14517,note_on,0,0,0,,0,,,84,127
14637,note_off,120,0,0,,0,,,84,127
14637,note_off,0,0,0,,0,,,60,127
14638,note_on,1,0,0,,12,,,59,127
14638,note_on,0,0,0,,7,,,79,127
14758,note_off,120,0,0,,12,,,59,127
14759,note_on,1,0,0,,10,,,57,127
14879,note_off,120,0,0,,10,,,57,127
14879,note_off,0,0,0,,7,,,79,127
14880,note_on,1,0,0,,7,,,55,127
14880,note_on,0,0,0,,7,,,79,127
14939,note_off,59,0,0,,7,,,79,127
14940,note_on,1,0,0,,5,,,77,127
14999,note_off,59,0,0,,5,,,77,127
14999,note_off,0,0,0,,7,,,55,127
15000,note_on,1,0,0,,5,,,53,127
15000,note_on,0,0,0,,7,,,79,127
15059,note_off,59,0,0,,7,,,79,127
15060,note_on,1,0,0,,5,,,77,127
15119,note_off,59,0,0,,5,,,77,127
15119,note_off,0,0,0,,5,,,53,127
15120,note_on,1,0,0,,4,,,52,127
15120,note_on,0,0,0,,7,,,79,127
15179,note_off,59,0,0,,7,,,79,127
15180,note_on,1,0,0,,5,,,77,127
15239,note_off,59,0,0,,5,,,77,127
15239,note_off,0,0,0,,4,,,52,127
15240,note_on,1,0,0,,2,,,50,127
15240,note_on,0,0,0,,4,,,76,127
15299,note_off,59,0,0,,4,,,76,127
15300,note_on,1,0,0,,5,,,77,127
15359,note_off,59,0,0,,5,,,77,127
15359,note_off,0,0,0,,2,,,50,127
15360,note_on,1,0,0,,0,,,48,127
15360,note_on,0,0,0,,4,,,76,127
15601,note_off,241,0,0,,4,,,76,127
15601,note_off,0,0,0,,0,,,48,127
15602,note_on,1,0,0,,5,,,65,127
15602,note_on,0,0,0,,10,,,81,127
15722,note_off,120,0,0,,5,,,65,127
15723,note_on,1,0,0,,4,,,64,127
15843,note_off,120,0,0,,4,,,64,127
15844,note_on,1,0,0,,2,,,62,127
15964,note_off,120,0,0,,2,,,62,127
15964,note_off,0,0,0,,10,,,81,127
15965,note_on,1,0,0,,0,,,60,127
15965,note_on,0,0,0,,0,,,84,127
16085,note_off,120,0,0,,0,,,84,127
16085,note_off,0,0,0,,0,,,60,127
16086,note_on,1,0,0,,12,,,59,127
16086,note_on,0,0,0,,7,,,79,127
16206,note_off,120,0,0,,12,,,59,127
16207,note_on,1,0,0,,10,,,57,127
16327,note_off,120,0,0,,10,,,57,127
16327,note_off,0,0,0,,7,,,79,127
16328,note_on,1,0,0,,7,,,55,127
16328,note_on,0,0,0,,7,,,79,127
16387,note_off,59,0,0,,7,,,79,127
16388,note_on,1,0,0,,5,,,77,127
16447,note_off,59,0,0,,5,,,77,127
16447,note_off,0,0,0,,7,,,55,127
16448,note_on,1,0,0,,5,,,53,127
16448,note_on,0,0,0,,7,,,79,127
16507,note_off,59,0,0,,7,,,79,127
16508,note_on,1,0,0,,5,,,77,127
16567,note_off,59,0,0,,5,,,77,127
16567,note_off,0,0,0,,5,,,53,127
16568,note_on,1,0,0,,4,,,52,127
16568,note_on,0,0,0,,7,,,79,127
16627,note_off,59,0,0,,7,,,79,127
16628,note_on,1,0,0,,5,,,77,127
16687,note_off,59,0,0,,5,,,77,127
16687,note_off,0,0,0,,4,,,52,127
16688,note_on,1,0,0,,2,,,50,127
16688,note_on,0,0,0,,4,,,76,127
16747,note_off,59,0,0,,4,,,76,127
16748,note_on,1,0,0,,5,,,77,127
16807,note_off,59,0,0,,5,,,77,127
16807,note_off,0,0,0,,2,,,50,127
16808,note_on,1,0,0,,0,,,48,127
16808,note_on,0,0,0,,4,,,76,127
17049,note_off,241,0,0,,4,,,76,127
17050,note_on,1,0,0,,0,,,84,127
17170,note_off,120,0,0,,0,,,84,127
17171,note_on,1,0,0,,7,,,79,127
17291,note_off,120,0,0,,7,,,79,127
17291,note_off,0,0,0,,0,,,48,127
17292,note_on,1,0,0,,4,,,52,127
17292,note_on,0,0,0,,0,,,60,127
17292,note_on,0,0,0,,4,,,76,127
17412,note_off,120,0,0,,4,,,76,127
17413,note_on,1,0,0,,0,,,72,127
17533,note_off,120,0,0,,0,,,72,127
17533,note_off,0,0,0,,0,,,60,127
17533,note_off,0,0,0,,4,,,52,127
17534,note_on,1,0,0,,5,,,53,127
17534,note_on,0,0,0,,0,,,60,127
17534,note_on,0,0,0,,1,,,73,127
17654,note_off,120,0,0,,1,,,73,127
17655,note_on,1,0,0,,2,,,74,127
17775,note_off,120,0,0,,2,,,74,127
17776,note_on,1,0,0,,10,,,81,127
17896,note_off,120,0,0,,10,,,81,127
17897,note_on,1,0,0,,5,,,77,127
18017,note_off,120,0,0,,5,,,77,127
18017,note_off,0,0,0,,0,,,60,127
18017,note_off,0,0,0,,5,,,53,127
18018,note_on,1,0,0,,5,,,53,127
18018,note_on,0,0,0,,2,,,50,127
18018,note_on,0,0,0,,12,,,59,127
18018,note_on,0,0,0,,7,,,55,127
18018,note_on,0,0,0,,2,,,74,127
18138,note_off,120,0,0,,2,,,74,127
18139,note_on,1,0,0,,12,,,71,127
18259,note_off,120,0,0,,12,,,71,127
18259,note_off,0,0,0,,7,,,55,127
18259,note_off,0,0,0,,12,,,59,127
18259,note_off,0,0,0,,2,,,50,127
18259,note_off,0,0,0,,5,,,53,127
18260,note_on,1,0,0,,7,,,55,127
18260,note_on,0,0,0,,4,,,52,127
18260,note_on,0,0,0,,0,,,60,127
18260,note_on,0,0,0,,12,,,71,127
18380,note_off,120,0,0,,12,,,71,127
18381,note_on,1,0,0,,0,,,72,127
18501,note_off,120,0,0,,0,,,72,127
18502,note_on,1,0,0,,0,,,84,127
18622,note_off,120,0,0,,0,,,84,127
18623,note_on,1,0,0,,7,,,79,127
18743,note_off,120,0,0,,7,,,79,127
18743,note_off,0,0,0,,0,,,60,127
18743,note_off,0,0,0,,4,,,52,127
18743,note_off,0,0,0,,7,,,55,127
18744,note_on,1,0,0,,0,,,60,127
18744,note_on,0,0,0,,4,,,52,127
18744,note_on,0,0,0,,4,,,76,127
18864,note_off,120,0,0,,4,,,76,127
18865,note_on,1,0,0,,0,,,72,127
18985,note_off,120,0,0,,0,,,72,127
18985,note_off,0,0,0,,4,,,52,127
18985,note_off,0,0,0,,0,,,60,127
18986,note_on,1,0,0,,5,,,53,127
18986,note_on,0,0,0,,1,,,73,127
19106,note_off,120,0,0,,1,,,73,127
19107,note_on,1,0,0,,2,,,74,127
19227,note_off,120,0,0,,2,,,74,127
19228,note_on,1,0,0,,2,,,74,127
19287,note_off,59,0,0,,2,,,74,127
19288,note_on,1,0,0,,4,,,76,127
19347,note_off,59,0,0,,4,,,76,127
19348,note_on,1,0,0,,5,,,77,127
19468,note_off,120,0,0,,5,,,53,127
19469,note_on,1,0,0,,5,,,65,127
19589,note_off,120,0,0,,5,,,77,127
19590,note_on,1,0,0,,2,,,74,127
19710,note_off,120,0,0,,2,,,74,127
19711,note_on,1,0,0,,12,,,71,127
19831,note_off,120,0,0,,12,,,71,127
19832,note_on,1,0,0,,0,,,72,127
19952,note_off,120,0,0,,0,,,72,127
19953,note_on,1,0,0,,5,,,77,127
20012,note_off,59,0,0,,5,,,77,127
20013,note_on,1,0,0,,7,,,79,127
20072,note_off,59,0,0,,7,,,79,127
20073,note_on,1,0,0,,10,,,81,127
20193,note_off,120,0,0,,5,,,65,127
20194,note_on,1,0,0,,5,,,65,127
20314,note_off,120,0,0,,10,,,81,127
20315,note_on,1,0,0,,2,,,74,127
20435,note_off,120,0,0,,2,,,74,127
20436,note_on,1,0,0,,12,,,71,127
20556,note_off,120,0,0,,12,,,71,127
20557,note_on,1,0,0,,0,,,72,127
20677,note_off,120,0,0,,0,,,72,127
20678,note_on,1,0,0,,10,,,81,127
20737,note_off,59,0,0,,10,,,81,127
20738,note_on,1,0,0,,12,,,83,127
20797,note_off,59,0,0,,12,,,83,127
20798,note_on,1,0,0,,0,,,84,127
20918,note_off,120,0,0,,5,,,65,127
20919,note_on,1,0,0,,5,,,65,127
21039,note_off,120,0,0,,0,,,84,127
21040,note_on,1,0,0,,2,,,74,127
21160,note_off,120,0,0,,2,,,74,127
21161,note_on,1,0,0,,12,,,71,127
21281,note_off,120,0,0,,12,,,71,127
21282,note_on,1,0,0,,0,,,72,127
21402,note_off,120,0,0,,5,,,65,127
21403,note_on,1,0,0,,4,,,64,127
21523,note_off,120,0,0,,0,,,72,127
21524,note_on,1,0,0,,4,,,76,127
21644,note_off,120,0,0,,4,,,76,127
21644,note_off,0,0,0,,4,,,64,127
21645,note_on,1,0,0,,0,,,60,127
21645,note_on,0,0,0,,7,,,79,127
21765,note_off,120,0,0,,7,,,79,127
21766,note_on,1,0,0,,0,,,84,127
21886,note_off,120,0,0,,0,,,84,127
21886,note_off,0,0,0,,0,,,60,127
21887,note_on,1,0,0,,5,,,65,127
21887,note_on,0,0,0,,12,,,83,127
21887,note_on,0,0,0,,10,,,81,127
21967,note_off,80,0,0,,10,,,81,127
21967,note_off,0,0,0,,12,,,83,127
21968,note_on,1,0,0,,7,,,79,127
22048,note_off,80,0,0,,7,,,79,127
22049,note_on,1,0,0,,5,,,77,127
22129,note_off,80,0,0,,5,,,77,127
22129,note_off,0,0,0,,5,,,65,127
22130,note_on,1,0,0,,7,,,67,127
22130,note_on,0,0,0,,4,,,76,127
22371,note_off,241,0,0,,4,,,76,127
22371,note_off,0,0,0,,7,,,67,127
22372,note_on,1,0,0,,7,,,55,127
22372,note_on,0,0,0,,2,,,74,127
22601,note_off,229,0,0,,2,,,74,127
22614,note_off,13,0,0,,7,,,55,127
22615,note_on,1,0,0,,0,,,48,127
22736,note_on,121,0,0,,4,,,76,127
22856,note_off,120,0,0,,4,,,76,127
22857,note_on,1,0,0,,5,,,77,127
22978,note_off,121,0,0,,0,,,48,127
23099,note_on,121,0,0,,5,,,65,127
23219,note_off,120,0,0,,5,,,77,127
23220,note_on,1,0,0,,2,,,74,127
23340,note_off,120,0,0,,2,,,74,127
23341,note_on,1,0,0,,12,,,71,127
23461,note_off,120,0,0,,12,,,71,127
23462,note_on,1,0,0,,0,,,72,127
23582,note_off,120,0,0,,0,,,72,127
23583,note_on,1,0,0,,6,,,78,127
23703,note_off,120,0,0,,6,,,78,127
23704,note_on,1,0,0,,7,,,79,127
23824,note_off,120,0,0,,5,,,65,127
23825,note_on,1,0,0,,5,,,65,127
23945,note_off,120,0,0,,7,,,79,127
23946,note_on,1,0,0,,2,,,74,127
24066,note_off,120,0,0,,2,,,74,127
24067,note_on,1,0,0,,12,,,71,127
24187,note_off,120,0,0,,12,,,71,127
24188,note_on,1,0,0,,0,,,72,127
24308,note_off,120,0,0,,0,,,72,127
24309,note_on,1,0,0,,12,,,83,127
24429,note_off,120,0,0,,12,,,83,127
24430,note_on,1,0,0,,0,,,84,127
24550,note_off,120,0,0,,5,,,65,127
24551,note_on,1,0,0,,5,,,65,127
24671,note_off,120,0,0,,0,,,84,127
24672,note_on,1,0,0,,2,,,74,127
24792,note_off,120,0,0,,2,,,74,127
24793,note_on,1,0,0,,12,,,71,127
24913,note_off,120,0,0,,12,,,71,127
24914,note_on,1,0,0,,0,,,72,127
25034,note_off,120,0,0,,5,,,65,127
25035,note_on,1,0,0,,4,,,64,127
25155,note_off,120,0,0,,0,,,72,127
25156,note_on,1,0,0,,4,,,76,127
25276,note_off,120,0,0,,4,,,76,127
25276,note_off,0,0,0,,4,,,64,127
25277,note_on,1,0,0,,0,,,60,127
25277,note_on,0,0,0,,7,,,79,127
25397,note_off,120,0,0,,7,,,79,127
25398,note_on,1,0,0,,0,,,84,127
25518,note_off,120,0,0,,0,,,84,127
25518,note_off,0,0,0,,0,,,60,127
25519,note_on,1,0,0,,5,,,65,127
25519,note_on,0,0,0,,12,,,83,127
25519,note_on,0,0,0,,10,,,81,127
25599,note_off,80,0,0,,10,,,81,127
25599,note_off,0,0,0,,12,,,83,127
25600,note_on,1,0,0,,7,,,79,127
25680,note_off,80,0,0,,7,,,79,127
25681,note_on,1,0,0,,5,,,77,127
25761,note_off,80,0,0,,5,,,77,127
25761,note_off,0,0,0,,5,,,65,127
25762,note_on,1,0,0,,7,,,67,127
25762,note_on,0,0,0,,4,,,76,127
26003,note_off,241,0,0,,4,,,76,127
26004,note_on,1,0,0,,7,,,55,127
26004,note_on,0,0,0,,2,,,74,127
26125,note_off,121,0,0,,7,,,67,127
26245,note_off,120,0,0,,2,,,74,127
26245,note_off,0,0,0,,7,,,55,127
26246,note_on,1,0,0,,0,,,48,127
26246,note_on,0,0,0,,0,,,72,127
26487,note_off,241,0,0,,0,,,72,127
26488,note_on,1,0,0,,10,,,81,127
26488,note_on,0,0,0,,7,,,79,127
26608,note_off,120,0,0,,10,,,81,127
26609,note_off,1,0,0,,0,,,48,127
26730,note_on,121,0,0,,4,,,52,127
26730,note_on,0,0,0,,0,,,60,127
26850,note_off,120,0,0,,7,,,79,127
26851,note_on,1,0,0,,0,,,72,127
26971,note_off,120,0,0,,0,,,72,127
26971,note_off,0,0,0,,0,,,60,127
26971,note_off,0,0,0,,4,,,52,127
26972,note_on,1,0,0,,5,,,53,127
26972,note_on,0,0,0,,0,,,60,127
26972,note_on,0,0,0,,1,,,73,127
27092,note_off,120,0,0,,1,,,73,127
27093,note_on,1,0,0,,2,,,74,127
27213,note_off,120,0,0,,2,,,74,127
27214,note_on,1,0,0,,7,,,79,127
27214,note_on,0,0,0,,5,,,77,127
27334,note_off,120,0,0,,7,,,79,127
27455,note_off,121,0,0,,0,,,60,127
27455,note_off,0,0,0,,5,,,53,127
27456,note_on,1,0,0,,12,,,59,127
27456,note_on,0,0,0,,2,,,50,127
27576,note_off,120,0,0,,5,,,77,127
27577,note_on,1,0,0,,12,,,71,127
27697,note_off,120,0,0,,12,,,71,127
27697,note_off,0,0,0,,2,,,50,127
27697,note_off,0,0,0,,12,,,59,127
27698,note_on,1,0,0,,4,,,52,127
27698,note_on,0,0,0,,0,,,60,127
27698,note_on,0,0,0,,7,,,55,127
27698,note_on,0,0,0,,12,,,71,127
27818,note_off,120,0,0,,12,,,71,127
27819,note_on,1,0,0,,0,,,72,127
27939,note_off,120,0,0,,0,,,72,127
27940,note_on,1,0,0,,10,,,81,127
27940,note_on,0,0,0,,7,,,79,127
28060,note_off,120,0,0,,10,,,81,127
28181,note_off,121,0,0,,7,,,55,127
28181,note_off,0,0,0,,0,,,60,127
28181,note_off,0,0,0,,4,,,52,127
28182,note_on,1,0,0,,4,,,52,127
28182,note_on,0,0,0,,0,,,60,127
28182,note_on,0,0,0,,7,,,55,127
28302,note_off,120,0,0,,7,,,79,127
28303,note_on,1,0,0,,1,,,73,127
28423,note_off,120,0,0,,1,,,73,127
28423,note_off,0,0,0,,7,,,55,127
28423,note_off,0,0,0,,0,,,60,127
28423,note_off,0,0,0,,4,,,52,127
28424,note_on,1,0,0,,5,,,53,127
28424,note_on,0,0,0,,1,,,73,127
28544,note_off,120,0,0,,1,,,73,127
28545,note_on,1,0,0,,2,,,74,127
28665,note_off,120,0,0,,2,,,74,127
28666,note_on,1,0,0,,7,,,79,127
28666,note_on,0,0,0,,5,,,77,127
28786,note_off,120,0,0,,7,,,79,127
28907,note_off,121,0,0,,5,,,53,127
28908,note_on,1,0,0,,2,,,50,127
28908,note_on,0,0,0,,12,,,59,127
29028,note_off,120,0,0,,5,,,77,127
29029,note_on,1,0,0,,12,,,71,127
29149,note_off,120,0,0,,12,,,71,127
29149,note_off,0,0,0,,12,,,59,127
29149,note_off,0,0,0,,2,,,50,127
29150,note_on,1,0,0,,4,,,52,127
29150,note_on,0,0,0,,0,,,60,127
29150,note_on,0,0,0,,0,,,72,127
29270,note_off,120,0,0,,0,,,72,127
29271,note_on,1,0,0,,4,,,76,127
29391,note_off,120,0,0,,4,,,76,127
29392,note_on,1,0,0,,7,,,79,127
29512,note_off,120,0,0,,7,,,79,127
29513,note_on,1,0,0,,0,,,84,127
29633,note_off,120,0,0,,0,,,84,127
29633,note_off,0,0,0,,0,,,60,127
29633,note_off,0,0,0,,4,,,52,127
29634,note_on,1,0,0,,4,,,52,127
29634,note_on,0,0,0,,0,,,60,127
29634,note_on,0,0,0,,7,,,79,127
29754,note_off,120,0,0,,7,,,79,127
29755,note_on,1,0,0,,4,,,76,127
29875,note_off,120,0,0,,4,,,76,127
29875,note_off,0,0,0,,0,,,60,127
29875,note_off,0,0,0,,4,,,52,127
29876,note_on,1,0,0,,0,,,60,127
29876,note_on,0,0,0,,5,,,53,127
29876,note_on,0,0,0,,12,,,83,127
29876,note_on,0,0,0,,10,,,81,127
29956,note_off,80,0,0,,10,,,81,127
29956,note_off,0,0,0,,12,,,83,127
29957,note_on,1,0,0,,7,,,79,127
30037,note_off,80,0,0,,7,,,79,127
30038,note_on,1,0,0,,5,,,77,127
30118,note_off,80,0,0,,5,,,77,127
30118,note_off,0,0,0,,5,,,53,127
30119,note_on,1,0,0,,7,,,55,127
30119,note_on,0,0,0,,4,,,76,127
30360,note_off,241,0,0,,4,,,76,127
30360,note_off,0,0,0,,0,,,60,127
30361,note_on,1,0,0,,12,,,59,127
30361,note_on,0,0,0,,4,,,76,127
30420,note_off,59,0,0,,4,,,76,127
30421,note_on,1,0,0,,2,,,74,127
30480,note_off,59,0,0,,2,,,74,127
30481,note_on,1,0,0,,4,,,76,127
30540,note_off,59,0,0,,4,,,76,127
30541,note_on,1,0,0,,2,,,74,127
30600,note_off,59,0,0,,2,,,74,127
30600,note_off,0,0,0,,12,,,59,127
30600,note_off,0,0,0,,7,,,55,127
30601,note_on,1,0,0,,5,,,53,127
30601,note_on,0,0,0,,0,,,60,127
30601,note_on,0,0,0,,12,,,71,127
30601,note_on,0,0,0,,10,,,69,127
30681,note_off,80,0,0,,10,,,69,127
30681,note_off,0,0,0,,12,,,71,127
30682,note_on,1,0,0,,7,,,67,127
30762,note_off,80,0,0,,7,,,67,127
30763,note_on,1,0,0,,5,,,65,127
30843,note_off,80,0,0,,5,,,65,127
30843,note_off,0,0,0,,5,,,53,127
30844,note_on,1,0,0,,7,,,55,127
30844,note_on,0,0,0,,4,,,64,127
31085,note_off,241,0,0,,4,,,64,127
31085,note_off,0,0,0,,0,,,60,127
31086,note_on,1,0,0,,12,,,59,127
31086,note_on,0,0,0,,4,,,64,127
31145,note_off,59,0,0,,4,,,64,127
31146,note_on,1,0,0,,2,,,62,127
31205,note_off,59,0,0,,2,,,62,127
31206,note_on,1,0,0,,4,,,64,127
31265,note_off,59,0,0,,4,,,64,127
31266,note_on,1,0,0,,2,,,62,127
31325,note_off,59,0,0,,2,,,62,127
31325,note_off,0,0,0,,12,,,59,127
31325,note_off,0,0,0,,7,,,55,127
31326,note_on,1,0,0,,5,,,53,127
31326,note_on,0,0,0,,0,,,60,127
31326,note_on,0,0,0,,12,,,83,127
31326,note_on,0,0,0,,10,,,81,127
31406,note_off,80,0,0,,10,,,81,127
31406,note_off,0,0,0,,12,,,83,127
31407,note_on,1,0,0,,7,,,79,127
31487,note_off,80,0,0,,7,,,79,127
31488,note_on,1,0,0,,5,,,77,127
31568,note_off,80,0,0,,5,,,77,127
31568,note_off,0,0,0,,5,,,53,127
31569,note_on,1,0,0,,7,,,55,127
31569,note_on,0,0,0,,4,,,76,127
31810,note_off,241,0,0,,4,,,76,127
31810,note_off,0,0,0,,0,,,60,127
31811,note_on,1,0,0,,12,,,59,127
31811,note_on,0,0,0,,4,,,76,127
31870,note_off,59,0,0,,4,,,76,127
31871,note_on,1,0,0,,2,,,74,127
31930,note_off,59,0,0,,2,,,74,127
31931,note_on,1,0,0,,4,,,76,127
31990,note_off,59,0,0,,4,,,76,127
31991,note_on,1,0,0,,2,,,74,127
32050,note_off,59,0,0,,2,,,74,127
32050,note_off,0,0,0,,12,,,59,127
32050,note_off,0,0,0,,7,,,55,127
32051,note_on,1,0,0,,5,,,53,127
32051,note_on,0,0,0,,10,,,69,127
32051,note_on,0,0,0,,12,,,71,127
32131,note_off,80,0,0,,12,,,71,127
32131,note_off,0,0,0,,10,,,69,127
32132,note_on,1,0,0,,7,,,67,127
32212,note_off,80,0,0,,7,,,67,127
32213,note_on,1,0,0,,5,,,65,127
32293,note_off,80,0,0,,5,,,65,127
32293,note_off,0,0,0,,5,,,53,127
32294,note_on,1,0,0,,7,,,55,127
32294,note_on,0,0,0,,4,,,64,127
32535,note_off,241,0,0,,4,,,64,127
32536,note_on,1,0,0,,7,,,43,127
32536,note_on,0,0,0,,4,,,64,127
32595,note_off,59,0,0,,4,,,64,127
32596,note_on,1,0,0,,2,,,62,127
32655,note_off,59,0,0,,2,,,62,127
32656,note_on,1,0,0,,4,,,64,127
32715,note_off,59,0,0,,4,,,64,127
32716,note_on,1,0,0,,2,,,62,127
32775,note_off,59,0,0,,2,,,62,127
32775,note_off,0,0,0,,7,,,43,127
32775,note_off,0,0,0,,7,,,55,127
32776,note_on,1,0,0,,0,,,48,127
32776,note_on,0,0,0,,0,,,36,127
32776,note_on,0,0,0,,0,,,60,127
32991,note_off,215,0,0,,0,,,60,127
33019,note_on,28,0,0,,7,,,79,127
33256,note_off,237,0,0,,0,,,36,127
33260,note_off,4,0,0,,7,,,79,127
33261,note_on,1,0,0,,7,,,79,127
33502,note_off,241,0,0,,7,,,79,127
33502,note_off,0,0,0,,0,,,48,127
33503,note_on,1,0,0,,8,,,80,127
33503,note_on,0,0,0,,7,,,79,127
33744,note_off,241,0,0,,7,,,79,127
33745,note_on,1,0,0,,7,,,79,127
33825,note_off,80,0,0,,7,,,79,127
33826,note_on,1,0,0,,5,,,77,127
33906,note_off,80,0,0,,5,,,77,127
33907,note_on,1,0,0,,4,,,76,127
33987,note_off,80,0,0,,4,,,76,127
33987,note_off,0,0,0,,8,,,80,127
33988,note_on,1,0,0,,5,,,77,127
33988,note_on,0,0,0,,8,,,80,127
34229,note_off,241,0,0,,8,,,80,127
34229,note_off,0,0,0,,5,,,77,127
34230,note_on,1,0,0,,7,,,79,127
34230,note_on,0,0,0,,5,,,77,127
34471,note_off,241,0,0,,5,,,77,127
34472,note_on,1,0,0,,0,,,72,127
34472,note_on,0,0,0,,5,,,77,127
34552,note_off,80,0,0,,5,,,77,127
34553,note_on,1,0,0,,3,,,75,127
34633,note_off,80,0,0,,3,,,75,127
34634,note_on,1,0,0,,2,,,74,127
34714,note_off,80,0,0,,2,,,74,127
34714,note_off,0,0,0,,0,,,72,127
34714,note_off,0,0,0,,7,,,79,127
34715,note_on,1,0,0,,0,,,72,127
34715,note_on,0,0,0,,3,,,75,127
34715,note_on,0,0,0,,0,,,84,127
34956,note_off,241,0,0,,0,,,84,127
34956,note_off,0,0,0,,3,,,75,127
34956,note_off,0,0,0,,0,,,72,127
34957,note_on,1,0,0,,5,,,65,127
34957,note_on,0,0,0,,0,,,72,127
34957,note_on,0,0,0,,1,,,73,127
34957,note_on,0,0,0,,0,,,84,127
35198,note_off,241,0,0,,0,,,72,127
35199,note_on,1,0,0,,0,,,72,127
35279,note_off,80,0,0,,0,,,72,127
35280,note_on,1,0,0,,11,,,70,127
35360,note_off,80,0,0,,11,,,70,127
35361,note_on,1,0,0,,10,,,69,127
35441,note_off,80,0,0,,10,,,69,127
35441,note_off,0,0,0,,0,,,84,127
35441,note_off,0,0,0,,1,,,73,127
35441,note_off,0,0,0,,5,,,65,127
35442,note_on,1,0,0,,11,,,70,127
35442,note_on,0,0,0,,5,,,65,127
35442,note_on,0,0,0,,11,,,82,127
35442,note_on,0,0,0,,1,,,73,127
35683,note_off,241,0,0,,1,,,73,127
35683,note_off,0,0,0,,11,,,82,127
35683,note_off,0,0,0,,5,,,65,127
35683,note_off,0,0,0,,11,,,70,127
35684,note_on,1,0,0,,4,,,64,127
35684,note_on,0,0,0,,11,,,82,127
35684,note_on,0,0,0,,0,,,72,127
35925,note_off,241,0,0,,11,,,82,127
35925,note_off,0,0,0,,4,,,64,127
35926,note_on,1,0,0,,5,,,65,127
35926,note_on,0,0,0,,8,,,80,127
36166,note_off,240,0,0,,5,,,65,127
36167,note_off,1,0,0,,8,,,80,127
36167,note_off,0,0,0,,0,,,72,127
36168,note_on,1,0,0,,0,,,60,127
36168,note_on,0,0,0,,7,,,79,127
36168,note_on,0,0,0,,0,,,72,127
36409,note_off,241,0,0,,0,,,72,127
36409,note_off,0,0,0,,7,,,79,127
36409,note_off,0,0,0,,0,,,60,127
36410,note_on,1,0,0,,1,,,61,127
36410,note_on,0,0,0,,7,,,67,127
36410,note_on,0,0,0,,7,,,79,127
36410,note_on,0,0,0,,0,,,72,127
36651,note_off,241,0,0,,0,,,72,127
36651,note_off,0,0,0,,7,,,79,127
36651,note_off,0,0,0,,1,,,61,127
36652,note_on,1,0,0,,1,,,61,127
36652,note_on,0,0,0,,7,,,79,127
36711,note_off,59,0,0,,7,,,79,127
36712,note_on,1,0,0,,5,,,77,127
36771,note_off,59,0,0,,5,,,77,127
36772,note_on,1,0,0,,7,,,79,127
36831,note_off,59,0,0,,7,,,79,127
36832,note_on,1,0,0,,5,,,77,127
36891,note_off,59,0,0,,5,,,77,127
36891,note_off,0,0,0,,1,,,61,127
36891,note_off,0,0,0,,7,,,67,127
36892,note_on,1,0,0,,11,,,70,127
36892,note_on,0,0,0,,1,,,61,127
36892,note_on,0,0,0,,7,,,79,127
36951,note_off,59,0,0,,7,,,79,127
36952,note_on,1,0,0,,5,,,77,127
37011,note_off,59,0,0,,5,,,77,127
37012,note_on,1,0,0,,4,,,76,127
37071,note_off,59,0,0,,4,,,76,127
37072,note_on,1,0,0,,5,,,77,127
37131,note_off,59,0,0,,5,,,77,127
37131,note_off,0,0,0,,1,,,61,127
37131,note_off,0,0,0,,11,,,70,127
37132,note_on,1,0,0,,0,,,60,127
37132,note_on,0,0,0,,0,,,72,127
37132,note_on,0,0,0,,7,,,79,127
37366,note_off,234,0,0,,7,,,79,127
37374,note_off,8,0,0,,0,,,72,127
37375,note_on,1,0,0,,7,,,79,127
37612,note_off,237,0,0,,0,,,60,127
37616,note_off,4,0,0,,7,,,79,127
37617,note_on,1,0,0,,7,,,79,127
37858,note_off,241,0,0,,7,,,79,127
37859,note_on,1,0,0,,8,,,80,127
37859,note_on,0,0,0,,7,,,79,127
38100,note_off,241,0,0,,7,,,79,127
38101,note_on,1,0,0,,7,,,79,127
38181,note_off,80,0,0,,7,,,79,127
38182,note_on,1,0,0,,5,,,77,127
38262,note_off,80,0,0,,5,,,77,127
38263,note_on,1,0,0,,4,,,76,127
38343,note_off,80,0,0,,4,,,76,127
38343,note_off,0,0,0,,8,,,80,127
38344,note_on,1,0,0,,5,,,77,127
38344,note_on,0,0,0,,8,,,80,127
38585,note_off,241,0,0,,8,,,80,127
38585,note_off,0,0,0,,5,,,77,127
38586,note_on,1,0,0,,7,,,79,127
38586,note_on,0,0,0,,5,,,77,127
38827,note_off,241,0,0,,5,,,77,127
38828,note_on,1,0,0,,0,,,72,127
38828,note_on,0,0,0,,5,,,77,127
38908,note_off,80,0,0,,5,,,77,127
38909,note_on,1,0,0,,3,,,75,127
38989,note_off,80,0,0,,3,,,75,127
38990,note_on,1,0,0,,2,,,74,127
39070,note_off,80,0,0,,2,,,74,127
39070,note_off,0,0,0,,0,,,72,127
39070,note_off,0,0,0,,7,,,79,127
39071,note_on,1,0,0,,0,,,72,127
39071,note_on,0,0,0,,0,,,84,127
39071,note_on,0,0,0,,3,,,75,127
39312,note_off,241,0,0,,3,,,75,127
39312,note_off,0,0,0,,0,,,84,127
39312,note_off,0,0,0,,0,,,72,127
39313,note_on,1,0,0,,5,,,65,127
39313,note_on,0,0,0,,0,,,72,127
39313,note_on,0,0,0,,0,,,84,127
39313,note_on,0,0,0,,1,,,73,127
39554,note_off,241,0,0,,0,,,72,127
39555,note_on,1,0,0,,0,,,72,127
39635,note_off,80,0,0,,0,,,72,127
39636,note_on,1,0,0,,11,,,70,127
39716,note_off,80,0,0,,11,,,70,127
39717,note_on,1,0,0,,10,,,69,127
39797,note_off,80,0,0,,10,,,69,127
39797,note_off,0,0,0,,1,,,73,127
39797,note_off,0,0,0,,0,,,84,127
39797,note_off,0,0,0,,5,,,65,127
39798,note_on,1,0,0,,11,,,70,127
39798,note_on,0,0,0,,5,,,65,127
39798,note_on,0,0,0,,11,,,82,127
39798,note_on,0,0,0,,1,,,73,127
40039,note_off,241,0,0,,1,,,73,127
40039,note_off,0,0,0,,11,,,82,127
40039,note_off,0,0,0,,5,,,65,127
40039,note_off,0,0,0,,11,,,70,127
40040,note_on,1,0,0,,4,,,64,127
40040,note_on,0,0,0,,11,,,82,127
40040,note_on,0,0,0,,0,,,72,127
40281,note_off,241,0,0,,11,,,82,127
40281,note_off,0,0,0,,4,,,64,127
40282,note_on,1,0,0,,5,,,65,127
40282,note_on,0,0,0,,8,,,80,127
40523,note_off,241,0,0,,8,,,80,127
40523,note_off,0,0,0,,5,,,65,127
40523,note_off,0,0,0,,0,,,72,127
40524,note_on,1,0,0,,0,,,60,127
40524,note_on,0,0,0,,0,,,72,127
40524,note_on,0,0,0,,7,,,79,127
40765,note_off,241,0,0,,7,,,79,127
40765,note_off,0,0,0,,0,,,72,127
40765,note_off,0,0,0,,0,,,60,127
40766,note_on,1,0,0,,7,,,67,127
40766,note_on,0,0,0,,1,,,61,127
40766,note_on,0,0,0,,7,,,79,127
40766,note_on,0,0,0,,0,,,72,127
41007,note_off,241,0,0,,0,,,72,127
41007,note_off,0,0,0,,7,,,79,127
41007,note_off,0,0,0,,1,,,61,127
41008,note_on,1,0,0,,1,,,61,127
41008,note_on,0,0,0,,7,,,79,127
41067,note_off,59,0,0,,7,,,79,127
41068,note_on,1,0,0,,5,,,77,127
41127,note_off,59,0,0,,5,,,77,127
41128,note_on,1,0,0,,7,,,79,127
41187,note_off,59,0,0,,7,,,79,127
41188,note_on,1,0,0,,5,,,77,127
41247,note_off,59,0,0,,5,,,77,127
41247,note_off,0,0,0,,1,,,61,127
41247,note_off,0,0,0,,7,,,67,127
41248,note_on,1,0,0,,11,,,70,127
41248,note_on,0,0,0,,1,,,61,127
41248,note_on,0,0,0,,7,,,79,127
41307,note_off,59,0,0,,7,,,79,127
41308,note_on,1,0,0,,5,,,77,127
41367,note_off,59,0,0,,5,,,77,127
41368,note_on,1,0,0,,4,,,76,127
41427,note_off,59,0,0,,4,,,76,127
41428,note_on,1,0,0,,5,,,77,127
41487,note_off,59,0,0,,5,,,77,127
41487,note_off,0,0,0,,1,,,61,127
41487,note_off,0,0,0,,11,,,70,127
41488,note_on,1,0,0,,0,,,60,127
41488,note_on,0,0,0,,7,,,79,127
41488,note_on,0,0,0,,0,,,72,127
41715,note_off,227,0,0,,7,,,79,127
41730,note_on,15,0,0,,0,,,84,127
41791,note_off,61,0,0,,0,,,72,127
41968,note_off,177,0,0,,0,,,60,127
41973,note_on,5,0,0,,0,,,72,127
42210,note_off,237,0,0,,0,,,84,127
42214,note_off,4,0,0,,0,,,72,127
42215,note_on,1,0,0,,2,,,74,127
42458,note_on,243,0,0,,0,,,48,127
42458,note_on,0,0,0,,11,,,58,127
42458,note_on,0,0,0,,2,,,86,127
42519,note_off,61,0,0,,2,,,74,127
42700,note_off,181,0,0,,11,,,58,127
42700,note_off,0,0,0,,0,,,48,127
42701,note_on,1,0,0,,11,,,58,127
42701,note_on,0,0,0,,0,,,48,127
42701,note_on,0,0,0,,2,,,74,127
42938,note_off,237,0,0,,2,,,86,127
42942,note_off,4,0,0,,2,,,74,127
42942,note_off,0,0,0,,0,,,48,127
42942,note_off,0,0,0,,11,,,58,127
42943,note_on,1,0,0,,0,,,48,127
42943,note_on,0,0,0,,11,,,58,127
42943,note_on,0,0,0,,4,,,76,127
43184,note_off,241,0,0,,4,,,76,127
43184,note_off,0,0,0,,11,,,58,127
43184,note_off,0,0,0,,0,,,48,127
43185,note_on,1,0,0,,10,,,57,127
43185,note_on,0,0,0,,0,,,48,127
43185,note_on,0,0,0,,5,,,77,127
43426,note_off,241,0,0,,5,,,77,127
43426,note_off,0,0,0,,0,,,48,127
43426,note_off,0,0,0,,10,,,57,127
43427,note_on,1,0,0,,0,,,48,127
43427,note_on,0,0,0,,7,,,55,127
43427,note_on,0,0,0,,7,,,79,127
43668,note_off,241,0,0,,7,,,79,127
43668,note_off,0,0,0,,7,,,55,127
43668,note_off,0,0,0,,0,,,48,127
43669,note_on,1,0,0,,5,,,53,127
43669,note_on,0,0,0,,0,,,48,127
43669,note_on,0,0,0,,11,,,82,127
43669,note_on,0,0,0,,10,,,81,127
43749,note_off,80,0,0,,10,,,81,127
43749,note_off,0,0,0,,11,,,82,127
43750,note_on,1,0,0,,7,,,79,127
43830,note_off,80,0,0,,7,,,79,127
43831,note_on,1,0,0,,10,,,81,127
43911,note_off,80,0,0,,10,,,81,127
43911,note_off,0,0,0,,0,,,48,127
43911,note_off,0,0,0,,5,,,53,127
43912,note_on,1,0,0,,7,,,55,127
43912,note_on,0,0,0,,0,,,48,127
43912,note_on,0,0,0,,11,,,82,127
43992,note_off,80,0,0,,11,,,82,127
43993,note_on,1,0,0,,10,,,81,127
44073,note_off,80,0,0,,10,,,81,127
44074,note_on,1,0,0,,11,,,82,127
44154,note_off,80,0,0,,11,,,82,127
44154,note_off,0,0,0,,0,,,48,127
44154,note_off,0,0,0,,7,,,55,127
44155,note_on,1,0,0,,0,,,48,127
44155,note_on,0,0,0,,4,,,52,127
44155,note_on,0,0,0,,0,,,84,127
44275,note_off,120,0,0,,0,,,84,127
44276,note_on,1,0,0,,11,,,82,127
44396,note_off,120,0,0,,11,,,82,127
44396,note_off,0,0,0,,4,,,52,127
44396,note_off,0,0,0,,0,,,48,127
44397,note_on,1,0,0,,0,,,48,127
44397,note_on,0,0,0,,5,,,53,127
44397,note_on,0,0,0,,11,,,82,127
44397,note_on,0,0,0,,10,,,81,127
44477,note_off,80,0,0,,10,,,81,127
44477,note_off,0,0,0,,11,,,82,127
44478,note_on,1,0,0,,7,,,79,127
44558,note_off,80,0,0,,7,,,79,127
44559,note_on,1,0,0,,5,,,77,127
44639,note_off,80,0,0,,5,,,53,127
44639,note_off,0,0,0,,0,,,48,127
44640,note_on,1,0,0,,0,,,36,127
44640,note_on,0,0,0,,0,,,84,127
44655,note_off,15,0,0,,5,,,77,127
44882,note_on,227,0,0,,0,,,72,127
45119,note_off,237,0,0,,0,,,84,127
45119,note_off,0,0,0,,0,,,36,127
45123,note_off,4,0,0,,0,,,72,127
45124,note_on,1,0,0,,2,,,74,127
45367,note_on,243,0,0,,0,,,48,127
45367,note_on,0,0,0,,11,,,58,127
45367,note_on,0,0,0,,2,,,86,127
45428,note_off,61,0,0,,2,,,74,127
45609,note_off,181,0,0,,11,,,58,127
45609,note_off,0,0,0,,0,,,48,127
45610,note_on,1,0,0,,0,,,48,127
45610,note_on,0,0,0,,11,,,58,127
45610,note_on,0,0,0,,2,,,74,127
45847,note_off,237,0,0,,2,,,86,127
45851,note_off,4,0,0,,2,,,74,127
45851,note_off,0,0,0,,11,,,58,127
45851,note_off,0,0,0,,0,,,48,127
45852,note_on,1,0,0,,0,,,48,127
45852,note_on,0,0,0,,11,,,58,127
45852,note_on,0,0,0,,4,,,76,127
46093,note_off,241,0,0,,4,,,76,127
46093,note_off,0,0,0,,11,,,58,127
46093,note_off,0,0,0,,0,,,48,127
46094,note_on,1,0,0,,10,,,57,127
46094,note_on,0,0,0,,0,,,48,127
46094,note_on,0,0,0,,5,,,77,127
46335,note_off,241,0,0,,5,,,77,127
46335,note_off,0,0,0,,0,,,48,127
46335,note_off,0,0,0,,10,,,57,127
46336,note_on,1,0,0,,7,,,55,127
46336,note_on,0,0,0,,0,,,48,127
46336,note_on,0,0,0,,7,,,67,127
46576,note_off,240,0,0,,7,,,67,127
46577,note_off,1,0,0,,0,,,48,127
46577,note_off,0,0,0,,7,,,55,127
46577,note_on,0,0,0,,11,,,70,127
46577,note_on,0,0,0,,10,,,69,127
46578,note_on,1,0,0,,0,,,48,127
46578,note_on,0,0,0,,5,,,53,127
46658,note_off,80,0,0,,10,,,69,127
46658,note_off,0,0,0,,11,,,70,127
46659,note_on,1,0,0,,7,,,67,127
46739,note_off,80,0,0,,7,,,67,127
46740,note_on,1,0,0,,10,,,69,127
46820,note_off,80,0,0,,10,,,69,127
46820,note_off,0,0,0,,5,,,53,127
46820,note_off,0,0,0,,0,,,48,127
46821,note_on,1,0,0,,7,,,55,127
46821,note_on,0,0,0,,0,,,48,127
46821,note_on,0,0,0,,11,,,70,127
46901,note_off,80,0,0,,11,,,70,127
46902,note_on,1,0,0,,10,,,69,127
46982,note_off,80,0,0,,10,,,69,127
46983,note_on,1,0,0,,11,,,70,127
47063,note_off,80,0,0,,11,,,70,127
47063,note_off,0,0,0,,0,,,48,127
47063,note_off,0,0,0,,7,,,55,127
47064,note_on,1,0,0,,4,,,52,127
47064,note_on,0,0,0,,0,,,48,127
47064,note_on,0,0,0,,0,,,72,127
47184,note_off,120,0,0,,0,,,72,127
47185,note_on,1,0,0,,11,,,70,127
47305,note_off,120,0,0,,11,,,70,127
47305,note_off,0,0,0,,0,,,48,127
47305,note_off,0,0,0,,4,,,52,127
47306,note_on,1,0,0,,5,,,53,127
47306,note_on,0,0,0,,0,,,48,127
47306,note_on,0,0,0,,11,,,70,127
47306,note_on,0,0,0,,10,,,69,127
47386,note_off,80,0,0,,10,,,69,127
47386,note_off,0,0,0,,11,,,70,127
47387,note_on,1,0,0,,7,,,67,127
47467,note_off,80,0,0,,7,,,67,127
47468,note_on,1,0,0,,5,,,65,127
47548,note_off,80,0,0,,5,,,65,127
47548,note_off,0,0,0,,0,,,48,127
47548,note_off,0,0,0,,5,,,53,127
47549,note_on,1,0,0,,0,,,60,127
47549,note_on,0,0,0,,4,,,64,127
47629,note_off,80,0,0,,4,,,64,127
47630,note_on,1,0,0,,5,,,65,127
47710,note_off,80,0,0,,5,,,65,127
47711,note_on,1,0,0,,7,,,67,127
47791,note_off,80,0,0,,7,,,67,127
47791,note_off,0,0,0,,0,,,60,127
47792,note_on,1,0,0,,2,,,62,127
47792,note_on,0,0,0,,5,,,65,127
47872,note_off,80,0,0,,5,,,65,127
47873,note_on,1,0,0,,7,,,67,127
47953,note_off,80,0,0,,7,,,67,127
47954,note_on,1,0,0,,10,,,69,127
48034,note_off,80,0,0,,10,,,69,127
48034,note_off,0,0,0,,2,,,62,127
48035,note_on,1,0,0,,4,,,64,127
48035,note_on,0,0,0,,7,,,67,127
48115,note_off,80,0,0,,7,,,67,127
48116,note_on,1,0,0,,10,,,69,127
48196,note_off,80,0,0,,10,,,69,127
48197,note_on,1,0,0,,11,,,70,127
48277,note_off,80,0,0,,11,,,70,127
48277,note_off,0,0,0,,4,,,64,127
48278,note_on,1,0,0,,5,,,65,127
48278,note_on,0,0,0,,10,,,69,127
48358,note_off,80,0,0,,10,,,69,127
48359,note_on,1,0,0,,11,,,70,127
48439,note_off,80,0,0,,11,,,70,127
48440,note_on,1,0,0,,0,,,72,127
48520,note_off,80,0,0,,0,,,72,127
48520,note_off,0,0,0,,5,,,65,127
48521,note_on,1,0,0,,11,,,58,127
48521,note_on,0,0,0,,2,,,74,127
48601,note_off,80,0,0,,2,,,74,127
48602,note_on,1,0,0,,4,,,76,127
48682,note_off,80,0,0,,4,,,76,127
48683,note_on,1,0,0,,5,,,77,127
48763,note_off,80,0,0,,5,,,77,127
48763,note_off,0,0,0,,11,,,58,127
48764,note_on,1,0,0,,0,,,60,127
48764,note_on,0,0,0,,4,,,76,127
48844,note_off,80,0,0,,4,,,76,127
48845,note_on,1,0,0,,2,,,74,127
48925,note_off,80,0,0,,2,,,74,127
48926,note_on,1,0,0,,0,,,72,127
49006,note_off,80,0,0,,0,,,72,127
49006,note_off,0,0,0,,0,,,60,127
49007,note_on,1,0,0,,0,,,60,127
49007,note_on,0,0,0,,4,,,64,127
49087,note_off,80,0,0,,4,,,64,127
49088,note_on,1,0,0,,5,,,65,127
49168,note_off,80,0,0,,5,,,65,127
49169,note_on,1,0,0,,7,,,67,127
49249,note_off,80,0,0,,7,,,67,127
49249,note_off,0,0,0,,0,,,60,127
49250,note_on,1,0,0,,2,,,62,127
49250,note_on,0,0,0,,5,,,65,127
49330,note_off,80,0,0,,5,,,65,127
49331,note_on,1,0,0,,7,,,67,127
49411,note_off,80,0,0,,7,,,67,127
49412,note_on,1,0,0,,10,,,69,127
49492,note_off,80,0,0,,10,,,69,127
49492,note_off,0,0,0,,2,,,62,127
49493,note_on,1,0,0,,4,,,64,127
49493,note_on,0,0,0,,7,,,67,127
49573,note_off,80,0,0,,7,,,67,127
49574,note_on,1,0,0,,10,,,69,127
49654,note_off,80,0,0,,10,,,69,127
49655,note_on,1,0,0,,11,,,70,127
49735,note_off,80,0,0,,11,,,70,127
49735,note_off,0,0,0,,4,,,64,127
49736,note_on,1,0,0,,5,,,65,127
49736,note_on,0,0,0,,10,,,69,127
49816,note_off,80,0,0,,10,,,69,127
49817,note_on,1,0,0,,11,,,70,127
49897,note_off,80,0,0,,11,,,70,127
49898,note_on,1,0,0,,0,,,72,127
49978,note_off,80,0,0,,0,,,72,127
49978,note_off,0,0,0,,5,,,65,127
49979,note_on,1,0,0,,11,,,58,127
49979,note_on,0,0,0,,2,,,74,127
50059,note_off,80,0,0,,2,,,74,127
50060,note_on,1,0,0,,4,,,76,127
50140,note_off,80,0,0,,4,,,76,127
50141,note_on,1,0,0,,5,,,77,127
50221,note_off,80,0,0,,5,,,77,127
50221,note_off,0,0,0,,11,,,58,127
50222,note_on,1,0,0,,0,,,60,127
50222,note_on,0,0,0,,4,,,76,127
50302,note_off,80,0,0,,4,,,76,127
50303,note_on,1,0,0,,2,,,74,127
50383,note_off,80,0,0,,2,,,74,127
50384,note_on,1,0,0,,0,,,72,127
50464,note_off,80,0,0,,0,,,72,127
50465,note_on,1,0,0,,4,,,76,127
50545,note_off,80,0,0,,4,,,76,127
50546,note_on,1,0,0,,5,,,77,127
50626,note_off,80,0,0,,5,,,77,127
50627,note_on,1,0,0,,7,,,79,127
50703,note_off,76,0,0,,0,,,60,127
50707,note_off,4,0,0,,7,,,79,127
50708,note_on,1,0,0,,4,,,76,127
50708,note_on,0,0,0,,5,,,77,127
50788,note_off,80,0,0,,5,,,77,127
50788,note_off,0,0,0,,4,,,76,127
50789,note_on,1,0,0,,2,,,74,127
50869,note_off,80,0,0,,2,,,74,127
50870,note_on,1,0,0,,0,,,72,127
50946,note_off,76,0,0,,0,,,72,127
50951,note_on,5,0,0,,0,,,36,127
51194,note_on,243,0,0,,7,,,67,127
51253,note_off,59,0,0,,7,,,67,127
51254,note_on,1,0,0,,10,,,69,127
51313,note_off,59,0,0,,10,,,69,127
51314,note_on,1,0,0,,11,,,70,127
51434,note_off,120,0,0,,0,,,36,127
51435,note_on,1,0,0,,11,,,58,127
51555,note_off,120,0,0,,11,,,70,127
51556,note_on,1,0,0,,7,,,67,127
51676,note_off,120,0,0,,7,,,67,127
51677,note_on,1,0,0,,4,,,64,127
51797,note_off,120,0,0,,4,,,64,127
51798,note_on,1,0,0,,5,,,65,127
51918,note_off,120,0,0,,5,,,65,127
51919,note_on,1,0,0,,11,,,70,127
51978,note_off,59,0,0,,11,,,70,127
51979,note_on,1,0,0,,0,,,72,127
52038,note_off,59,0,0,,0,,,72,127
52039,note_on,1,0,0,,2,,,74,127
52159,note_off,120,0,0,,11,,,58,127
52160,note_on,1,0,0,,11,,,58,127
52280,note_off,120,0,0,,2,,,74,127
52281,note_on,1,0,0,,7,,,67,127
52401,note_off,120,0,0,,7,,,67,127
52402,note_on,1,0,0,,4,,,64,127
52522,note_off,120,0,0,,4,,,64,127
52523,note_on,1,0,0,,5,,,65,127
52643,note_off,120,0,0,,5,,,65,127
52644,note_on,1,0,0,,2,,,74,127
52703,note_off,59,0,0,,2,,,74,127
52704,note_on,1,0,0,,4,,,76,127
52763,note_off,59,0,0,,4,,,76,127
52764,note_on,1,0,0,,5,,,77,127
52884,note_off,120,0,0,,11,,,58,127
52885,note_on,1,0,0,,11,,,58,127
53005,note_off,120,0,0,,5,,,77,127
53006,note_on,1,0,0,,7,,,67,127
53126,note_off,120,0,0,,7,,,67,127
53127,note_on,1,0,0,,4,,,64,127
53247,note_off,120,0,0,,4,,,64,127
53248,note_on,1,0,0,,5,,,65,127
53368,note_off,120,0,0,,11,,,58,127
53369,note_on,1,0,0,,10,,,57,127
53489,note_off,120,0,0,,5,,,65,127
53490,note_on,1,0,0,,10,,,69,127
53610,note_off,120,0,0,,10,,,69,127
53610,note_off,0,0,0,,10,,,57,127
53611,note_on,1,0,0,,5,,,53,127
53611,note_on,0,0,0,,0,,,72,127
53731,note_off,120,0,0,,0,,,72,127
53732,note_on,1,0,0,,5,,,77,127
53852,note_off,120,0,0,,5,,,77,127
53852,note_off,0,0,0,,5,,,53,127
53853,note_on,1,0,0,,11,,,58,127
53853,note_on,0,0,0,,4,,,76,127
53853,note_on,0,0,0,,2,,,74,127
53933,note_off,80,0,0,,2,,,74,127
53933,note_off,0,0,0,,4,,,76,127
53934,note_on,1,0,0,,0,,,72,127
54014,note_off,80,0,0,,0,,,72,127
54015,note_on,1,0,0,,11,,,70,127
54095,note_off,80,0,0,,11,,,70,127
54095,note_off,0,0,0,,11,,,58,127
54096,note_on,1,0,0,,0,,,60,127
54096,note_on,0,0,0,,10,,,69,127
54337,note_off,241,0,0,,10,,,69,127
54338,note_on,1,0,0,,0,,,48,127
54338,note_on,0,0,0,,7,,,67,127
54459,note_off,121,0,0,,0,,,60,127
54565,note_off,106,0,0,,7,,,67,127
54579,note_off,14,0,0,,0,,,48,127
54580,note_on,1,0,0,,5,,,41,127
54701,note_on,121,0,0,,10,,,69,127
54820,note_off,119,0,0,,5,,,41,127
54821,note_off,1,0,0,,10,,,69,127
54822,note_on,1,0,0,,11,,,70,127
55065,note_on,243,0,0,,11,,,58,127
55185,note_off,120,0,0,,11,,,70,127
55186,note_on,1,0,0,,7,,,67,127
55306,note_off,120,0,0,,7,,,67,127
55307,note_on,1,0,0,,4,,,64,127
55427,note_off,120,0,0,,4,,,64,127
55428,note_on,1,0,0,,5,,,65,127
55548,note_off,120,0,0,,5,,,65,127
55549,note_on,1,0,0,,1,,,73,127
55669,note_off,120,0,0,,1,,,73,127
55670,note_on,1,0,0,,2,,,74,127
55790,note_off,120,0,0,,11,,,58,127
55791,note_on,1,0,0,,11,,,58,127
55911,note_off,120,0,0,,2,,,74,127
55912,note_on,1,0,0,,7,,,67,127
56032,note_off,120,0,0,,7,,,67,127
56033,note_on,1,0,0,,4,,,64,127
56153,note_off,120,0,0,,4,,,64,127
56154,note_on,1,0,0,,5,,,65,127
56274,note_off,120,0,0,,5,,,65,127
56275,note_on,1,0,0,,4,,,76,127
56395,note_off,120,0,0,,4,,,76,127
56396,note_on,1,0,0,,5,,,77,127
56516,note_off,120,0,0,,11,,,58,127
56517,note_on,1,0,0,,11,,,58,127
56637,note_off,120,0,0,,5,,,77,127
56638,note_on,1,0,0,,7,,,67,127
56758,note_off,120,0,0,,7,,,67,127
56759,note_on,1,0,0,,4,,,64,127
56879,note_off,120,0,0,,4,,,64,127
56880,note_on,1,0,0,,5,,,65,127
57000,note_off,120,0,0,,11,,,58,127
57001,note_on,1,0,0,,10,,,57,127
57121,note_off,120,0,0,,5,,,65,127
57122,note_on,1,0,0,,10,,,69,127
57242,note_off,120,0,0,,10,,,69,127
57242,note_off,0,0,0,,10,,,57,127
57243,note_on,1,0,0,,5,,,53,127
57243,note_on,0,0,0,,0,,,72,127
57363,note_off,120,0,0,,0,,,72,127
57364,note_on,1,0,0,,5,,,77,127
57484,note_off,120,0,0,,5,,,77,127
57484,note_off,0,0,0,,5,,,53,127
57485,note_on,1,0,0,,11,,,58,127
57485,note_on,0,0,0,,4,,,76,127
57485,note_on,0,0,0,,2,,,74,127
57565,note_off,80,0,0,,2,,,74,127
57565,note_off,0,0,0,,4,,,76,127
57566,note_on,1,0,0,,0,,,72,127
57646,note_off,80,0,0,,0,,,72,127
57647,note_on,1,0,0,,11,,,70,127
57727,note_off,80,0,0,,11,,,70,127
57727,note_off,0,0,0,,11,,,58,127
57728,note_on,1,0,0,,0,,,60,127
57728,note_on,0,0,0,,10,,,69,127
57969,note_off,241,0,0,,10,,,69,127
57970,note_on,1,0,0,,0,,,48,127
57970,note_on,0,0,0,,7,,,67,127
58091,note_off,121,0,0,,0,,,60,127
58211,note_off,120,0,0,,7,,,67,127
58211,note_off,0,0,0,,0,,,48,127
58212,note_on,1,0,0,,5,,,41,127
58212,note_on,0,0,0,,5,,,65,127
58427,note_off,215,0,0,,5,,,65,127
58455,note_on,28,0,0,,0,,,84,127
58455,note_on,0,0,0,,2,,,86,127
58575,note_off,120,0,0,,2,,,86,127
58696,note_off,121,0,0,,5,,,41,127
58697,note_on,1,0,0,,10,,,57,127
58697,note_on,0,0,0,,0,,,60,127
58817,note_off,120,0,0,,0,,,84,127
58818,note_on,1,0,0,,5,,,77,127
58938,note_off,120,0,0,,5,,,77,127
58938,note_off,0,0,0,,0,,,60,127
58938,note_off,0,0,0,,10,,,57,127
58939,note_on,1,0,0,,11,,,58,127
58939,note_on,0,0,0,,2,,,62,127
58939,note_on,0,0,0,,6,,,78,127
59059,note_off,120,0,0,,6,,,78,127
59060,note_on,1,0,0,,7,,,79,127
59180,note_off,120,0,0,,7,,,79,127
59181,note_on,1,0,0,,0,,,84,127
59181,note_on,0,0,0,,11,,,82,127
59301,note_off,120,0,0,,0,,,84,127
59422,note_off,121,0,0,,2,,,62,127
59422,note_off,0,0,0,,11,,,58,127
59423,note_on,1,0,0,,11,,,58,127
59423,note_on,0,0,0,,7,,,55,127
59543,note_off,120,0,0,,11,,,82,127
59544,note_on,1,0,0,,4,,,76,127
59664,note_off,120,0,0,,4,,,76,127
59664,note_off,0,0,0,,7,,,55,127
59664,note_off,0,0,0,,11,,,58,127
59665,note_on,1,0,0,,10,,,57,127
59665,note_on,0,0,0,,0,,,60,127
59665,note_on,0,0,0,,4,,,76,127
59785,note_off,120,0,0,,4,,,76,127
59786,note_on,1,0,0,,5,,,77,127
59906,note_off,120,0,0,,5,,,77,127
59907,note_on,1,0,0,,0,,,72,127
59907,note_on,0,0,0,,2,,,74,127
60027,note_off,120,0,0,,2,,,74,127
60148,note_off,121,0,0,,0,,,60,127
60148,note_off,0,0,0,,10,,,57,127
60149,note_on,1,0,0,,10,,,57,127
60149,note_on,0,0,0,,0,,,60,127
60269,note_off,120,0,0,,0,,,72,127
60270,note_on,1,0,0,,5,,,65,127
60390,note_off,120,0,0,,5,,,65,127
60390,note_off,0,0,0,,0,,,60,127
60390,note_off,0,0,0,,10,,,57,127
60391,note_on,1,0,0,,11,,,58,127
60391,note_on,0,0,0,,2,,,62,127
60391,note_on,0,0,0,,6,,,66,127
60511,note_off,120,0,0,,6,,,66,127
60512,note_on,1,0,0,,7,,,67,127
60632,note_off,120,0,0,,7,,,67,127
60633,note_on,1,0,0,,11,,,70,127
60633,note_on,0,0,0,,0,,,72,127
60753,note_off,120,0,0,,0,,,72,127
60874,note_off,121,0,0,,2,,,62,127
60874,note_off,0,0,0,,11,,,58,127
60875,note_on,1,0,0,,7,,,55,127
60875,note_on,0,0,0,,11,,,58,127
60995,note_off,120,0,0,,11,,,70,127
60996,note_on,1,0,0,,4,,,64,127
61116,note_off,120,0,0,,4,,,64,127
61116,note_off,0,0,0,,11,,,58,127
61116,note_off,0,0,0,,7,,,55,127
61117,note_on,1,0,0,,10,,,57,127
61117,note_on,0,0,0,,0,,,60,127
61117,note_on,0,0,0,,5,,,65,127
61237,note_off,120,0,0,,5,,,65,127
61238,note_on,1,0,0,,10,,,69,127
61358,note_off,120,0,0,,10,,,69,127
61359,note_on,1,0,0,,0,,,72,127
61479,note_off,120,0,0,,0,,,72,127
61480,note_on,1,0,0,,10,,,81,127
61600,note_off,120,0,0,,10,,,81,127
61600,note_off,0,0,0,,0,,,60,127
61600,note_off,0,0,0,,10,,,57,127
61601,note_on,1,0,0,,10,,,57,127
61601,note_on,0,0,0,,5,,,65,127
61601,note_on,0,0,0,,5,,,77,127
61721,note_off,120,0,0,,5,,,77,127
61722,note_on,1,0,0,,0,,,72,127
61842,note_off,120,0,0,,0,,,72,127
61842,note_off,0,0,0,,5,,,65,127
61842,note_off,0,0,0,,10,,,57,127
61843,note_on,1,0,0,,11,,,58,127
61843,note_on,0,0,0,,5,,,65,127
61843,note_on,0,0,0,,4,,,76,127
61843,note_on,0,0,0,,2,,,74,127
61923,note_off,80,0,0,,2,,,74,127
61923,note_off,0,0,0,,4,,,76,127
61924,note_on,1,0,0,,0,,,72,127
62004,note_off,80,0,0,,0,,,72,127
62005,note_on,1,0,0,,11,,,70,127
62085,note_off,80,0,0,,11,,,70,127
62085,note_off,0,0,0,,11,,,58,127
62086,note_on,1,0,0,,0,,,60,127
62086,note_on,0,0,0,,10,,,69,127
62327,note_off,241,0,0,,10,,,69,127
62327,note_off,0,0,0,,5,,,65,127
62328,note_on,1,0,0,,4,,,64,127
62328,note_on,0,0,0,,10,,,69,127
62387,note_off,59,0,0,,10,,,69,127
62388,note_on,1,0,0,,7,,,67,127
62447,note_off,59,0,0,,7,,,67,127
62448,note_on,1,0,0,,10,,,69,127
62507,note_off,59,0,0,,10,,,69,127
62508,note_on,1,0,0,,7,,,67,127
62567,note_off,59,0,0,,7,,,67,127
62567,note_off,0,0,0,,4,,,64,127
62567,note_off,0,0,0,,0,,,60,127
62568,note_on,1,0,0,,11,,,58,127
62568,note_on,0,0,0,,5,,,65,127
62568,note_on,0,0,0,,4,,,88,127
62568,note_on,0,0,0,,2,,,86,127
62648,note_off,80,0,0,,2,,,86,127
62648,note_off,0,0,0,,4,,,88,127
62649,note_on,1,0,0,,0,,,84,127
62729,note_off,80,0,0,,0,,,84,127
62730,note_on,1,0,0,,11,,,82,127
62810,note_off,80,0,0,,11,,,82,127
62810,note_off,0,0,0,,11,,,58,127
62811,note_on,1,0,0,,0,,,60,127
62811,note_on,0,0,0,,10,,,81,127
63052,note_off,241,0,0,,10,,,81,127
63052,note_off,0,0,0,,5,,,65,127
63053,note_on,1,0,0,,4,,,64,127
63053,note_on,0,0,0,,10,,,81,127
63112,note_off,59,0,0,,10,,,81,127
63113,note_on,1,0,0,,7,,,79,127
63172,note_off,59,0,0,,7,,,79,127
63173,note_on,1,0,0,,10,,,81,127
63232,note_off,59,0,0,,10,,,81,127
63233,note_on,1,0,0,,7,,,79,127
63292,note_off,59,0,0,,7,,,79,127
63292,note_off,0,0,0,,4,,,64,127
63292,note_off,0,0,0,,0,,,60,127
63293,note_on,1,0,0,,11,,,58,127
63293,note_on,0,0,0,,5,,,65,127
63293,note_on,0,0,0,,4,,,76,127
63293,note_on,0,0,0,,2,,,74,127
63373,note_off,80,0,0,,2,,,74,127
63373,note_off,0,0,0,,4,,,76,127
63374,note_on,1,0,0,,0,,,72,127
63454,note_off,80,0,0,,0,,,72,127
63455,note_on,1,0,0,,11,,,70,127
63535,note_off,80,0,0,,11,,,70,127
63535,note_off,0,0,0,,11,,,58,127
63536,note_on,1,0,0,,0,,,60,127
63536,note_on,0,0,0,,10,,,69,127
63777,note_off,241,0,0,,10,,,69,127
63777,note_off,0,0,0,,5,,,65,127
63778,note_on,1,0,0,,4,,,64,127
63778,note_on,0,0,0,,10,,,69,127
63837,note_off,59,0,0,,10,,,69,127
63838,note_on,1,0,0,,7,,,67,127
63897,note_off,59,0,0,,7,,,67,127
63898,note_on,1,0,0,,10,,,69,127
63957,note_off,59,0,0,,10,,,69,127
63958,note_on,1,0,0,,7,,,67,127
64017,note_off,59,0,0,,7,,,67,127
64017,note_off,0,0,0,,4,,,64,127
64017,note_off,0,0,0,,0,,,60,127
64018,note_on,1,0,0,,11,,,58,127
64018,note_on,0,0,0,,2,,,86,127
64018,note_on,0,0,0,,4,,,88,127
64098,note_off,80,0,0,,4,,,88,127
64098,note_off,0,0,0,,2,,,86,127
64099,note_on,1,0,0,,0,,,84,127
64179,note_off,80,0,0,,0,,,84,127
64180,note_on,1,0,0,,11,,,82,127
64260,note_off,80,0,0,,11,,,82,127
64260,note_off,0,0,0,,11,,,58,127
64261,note_on,1,0,0,,0,,,60,127
64261,note_on,0,0,0,,10,,,81,127
64502,note_off,241,0,0,,10,,,81,127
64503,note_on,1,0,0,,0,,,48,127
64503,note_on,0,0,0,,10,,,81,127
64562,note_off,59,0,0,,10,,,81,127
64563,note_on,1,0,0,,7,,,79,127
64622,note_off,59,0,0,,7,,,79,127
64623,note_off,1,0,0,,0,,,60,127
64623,note_on,0,0,0,,10,,,81,127
64682,note_off,59,0,0,,10,,,81,127
64683,note_on,1,0,0,,7,,,79,127
64742,note_off,59,0,0,,7,,,79,127
64742,note_off,0,0,0,,0,,,48,127
64743,note_on,1,0,0,,5,,,41,127
64743,note_on,0,0,0,,5,,,77,127
64863,note_off,120,0,0,,5,,,77,127
64864,note_on,1,0,0,,0,,,72,127
64984,note_off,120,0,0,,0,,,72,127
64985,note_on,1,0,0,,10,,,69,127
65105,note_off,120,0,0,,10,,,69,127
65106,note_on,1,0,0,,5,,,65,127
65226,note_off,120,0,0,,5,,,65,127
65227,note_on,1,0,0,,0,,,60,127
65347,note_off,120,0,0,,0,,,60,127
65348,note_on,1,0,0,,10,,,57,127
65467,note_off,119,0,0,,10,,,57,127
65468,note_off,1,0,0,,5,,,41,127
65469,note_on,1,0,0,,5,,,53,127
66803,note_off,1334,0,0,,5,,,53,127
67584,end_of_track,781,1,0,,,,,,
