tick,type,time,meta,track,program,channel,pitch,tempo,note,velocity
0,copyright,0,1,0,,,,,,
0,program_change,0,0,0,6,0,,,,
0,pitchwheel,0,0,0,,0,0,,,
0,program_change,0,0,0,6,1,,,,
0,pitchwheel,0,0,0,,1,-590,,,
0,program_change,0,0,0,6,2,,,,
0,pitchwheel,0,0,0,,2,-272,,,
0,program_change,0,0,0,6,3,,,,
0,pitchwheel,0,0,0,,3,-353,,,
0,program_change,0,0,0,6,4,,,,
0,pitchwheel,0,0,0,,4,-560,,,
0,program_change,0,0,0,6,5,,,,
0,pitchwheel,0,0,0,,5,-80,,,
0,program_change,0,0,0,6,6,,,,
0,pitchwheel,0,0,0,,6,-625,,,
0,program_change,0,0,0,6,7,,,,
0,pitchwheel,0,0,0,,7,-130,,,
0,program_change,0,0,0,6,8,,,,
0,pitchwheel,0,0,0,,8,-512,,,
0,program_change,0,0,0,6,10,,,,
0,pitchwheel,0,0,0,,10,-464,,,
0,program_change,0,0,0,6,11,,,,
0,pitchwheel,0,0,0,,11,-208,,,
0,program_change,0,0,0,6,12,,,,
0,pitchwheel,0,0,0,,12,-553,,,
0,set_tempo,0,1,0,,,,500000,,
118,note_on,118,0,0,,7,,,55,127
118,note_on,0,0,0,,7,,,79,127
352,note_off,234,0,0,,7,,,55,127
353,note_on,1,0,0,,12,,,59,127
587,note_off,234,0,0,,12,,,59,127
588,note_on,1,0,0,,7,,,55,127
822,note_off,234,0,0,,7,,,55,127
823,note_on,1,0,0,,0,,,48,127
823,note_on,0,0,0,,0,,,60,127
939,note_off,116,0,0,,7,,,79,127
940,note_on,1,0,0,,12,,,83,127
1056,note_off,116,0,0,,12,,,83,127
1057,note_on,1,0,0,,10,,,81,127
1173,note_off,116,0,0,,10,,,81,127
1174,note_on,1,0,0,,7,,,79,127
1290,note_off,116,0,0,,7,,,79,127
1290,note_off,0,0,0,,0,,,60,127
1290,note_off,0,0,0,,0,,,48,127
1291,note_on,1,0,0,,2,,,50,127
1291,note_on,0,0,0,,2,,,62,127
1291,note_on,0,0,0,,6,,,78,127
1407,note_off,116,0,0,,6,,,78,127
1408,note_on,1,0,0,,10,,,81,127
1524,note_off,116,0,0,,10,,,81,127
1524,note_off,0,0,0,,2,,,62,127
1524,note_off,0,0,0,,2,,,50,127
1525,note_on,1,0,0,,7,,,55,127
1525,note_on,0,0,0,,7,,,79,127
1748,note_off,223,0,0,,7,,,79,127
1759,note_off,11,0,0,,7,,,55,127
1760,note_on,1,0,0,,12,,,59,127
1760,note_on,0,0,0,,2,,,74,127
1983,note_off,223,0,0,,2,,,74,127
1994,note_off,11,0,0,,12,,,59,127
1995,note_on,1,0,0,,7,,,55,127
1995,note_on,0,0,0,,12,,,83,127
2229,note_off,234,0,0,,7,,,55,127
2230,note_on,1,0,0,,0,,,48,127
2230,note_on,0,0,0,,0,,,60,127
2346,note_off,116,0,0,,12,,,83,127
2347,note_on,1,0,0,,2,,,86,127
2463,note_off,116,0,0,,2,,,86,127
2464,note_on,1,0,0,,0,,,84,127
2580,note_off,116,0,0,,0,,,84,127
2581,note_on,1,0,0,,12,,,83,127
2697,note_off,116,0,0,,12,,,83,127
2697,note_off,0,0,0,,0,,,60,127
2697,note_off,0,0,0,,0,,,48,127
2698,note_on,1,0,0,,2,,,50,127
2698,note_on,0,0,0,,2,,,62,127
2698,note_on,0,0,0,,10,,,81,127
2814,note_off,116,0,0,,10,,,81,127
2815,note_on,1,0,0,,0,,,84,127
2931,note_off,116,0,0,,0,,,84,127
2931,note_off,0,0,0,,2,,,62,127
2931,note_off,0,0,0,,2,,,50,127
2932,note_on,1,0,0,,7,,,55,127
2932,note_on,0,0,0,,12,,,83,127
3155,note_off,223,0,0,,12,,,83,127
3166,note_off,11,0,0,,7,,,55,127
3167,note_on,1,0,0,,12,,,59,127
3167,note_on,0,0,0,,2,,,74,127
3390,note_off,223,0,0,,2,,,74,127
3401,note_off,11,0,0,,12,,,59,127
3402,note_on,1,0,0,,7,,,55,127
3402,note_on,0,0,0,,7,,,79,127
3636,note_off,234,0,0,,7,,,55,127
3637,note_on,1,0,0,,0,,,48,127
3637,note_on,0,0,0,,0,,,60,127
3753,note_off,116,0,0,,7,,,79,127
3754,note_on,1,0,0,,12,,,83,127
3870,note_off,116,0,0,,12,,,83,127
3871,note_on,1,0,0,,10,,,81,127
3987,note_off,116,0,0,,10,,,81,127
3988,note_on,1,0,0,,7,,,79,127
4104,note_off,116,0,0,,7,,,79,127
4104,note_off,0,0,0,,0,,,60,127
4104,note_off,0,0,0,,0,,,48,127
4105,note_on,1,0,0,,2,,,50,127
4105,note_on,0,0,0,,2,,,62,127
4105,note_on,0,0,0,,6,,,78,127
4221,note_off,116,0,0,,6,,,78,127
4222,note_on,1,0,0,,10,,,81,127
4338,note_off,116,0,0,,10,,,81,127
4338,note_off,0,0,0,,2,,,62,127
4338,note_off,0,0,0,,2,,,50,127
4339,note_on,1,0,0,,7,,,55,127
4339,note_on,0,0,0,,7,,,79,127
4562,note_off,223,0,0,,7,,,79,127
4573,note_off,11,0,0,,7,,,55,127
4574,note_on,1,0,0,,12,,,59,127
4574,note_on,0,0,0,,2,,,74,127
4797,note_off,223,0,0,,2,,,74,127
4808,note_off,11,0,0,,12,,,59,127
4809,note_on,1,0,0,,7,,,55,127
4809,note_on,0,0,0,,12,,,83,127
5043,note_off,234,0,0,,7,,,55,127
5044,note_on,1,0,0,,0,,,48,127
5044,note_on,0,0,0,,0,,,60,127
5160,note_off,116,0,0,,12,,,83,127
5161,note_on,1,0,0,,2,,,86,127
5277,note_off,116,0,0,,2,,,86,127
5278,note_on,1,0,0,,0,,,84,127
5394,note_off,116,0,0,,0,,,84,127
5395,note_on,1,0,0,,12,,,83,127
5511,note_off,116,0,0,,12,,,83,127
5511,note_off,0,0,0,,0,,,60,127
5511,note_off,0,0,0,,0,,,48,127
5512,note_on,1,0,0,,2,,,50,127
5512,note_on,0,0,0,,2,,,62,127
5512,note_on,0,0,0,,10,,,81,127
5628,note_off,116,0,0,,10,,,81,127
5629,note_on,1,0,0,,0,,,84,127
5745,note_off,116,0,0,,0,,,84,127
5745,note_off,0,0,0,,2,,,62,127
5745,note_off,0,0,0,,2,,,50,127
5746,note_on,1,0,0,,7,,,55,127
5746,note_on,0,0,0,,12,,,83,127
5862,note_off,116,0,0,,12,,,83,127
5863,note_on,1,0,0,,10,,,81,127
5979,note_off,116,0,0,,10,,,81,127
5979,note_off,0,0,0,,7,,,55,127
5980,note_on,1,0,0,,10,,,57,127
5980,note_on,0,0,0,,7,,,79,127
6096,note_off,116,0,0,,7,,,79,127
6097,note_on,1,0,0,,6,,,78,127
6213,note_off,116,0,0,,6,,,78,127
6213,note_off,0,0,0,,10,,,57,127
6214,note_on,1,0,0,,12,,,59,127
6214,note_on,0,0,0,,4,,,76,127
6330,note_off,116,0,0,,4,,,76,127
6331,note_on,1,0,0,,2,,,74,127
6447,note_off,116,0,0,,2,,,74,127
6447,note_off,0,0,0,,12,,,59,127
6448,note_on,1,0,0,,0,,,60,127
6448,note_on,0,0,0,,0,,,72,127
6564,note_off,116,0,0,,0,,,72,127
6565,note_on,1,0,0,,4,,,76,127
6681,note_off,116,0,0,,4,,,76,127
6681,note_off,0,0,0,,0,,,60,127
6682,note_on,1,0,0,,2,,,62,127
6682,note_on,0,0,0,,2,,,74,127
6798,note_off,116,0,0,,2,,,74,127
6799,note_on,1,0,0,,0,,,72,127
6915,note_off,116,0,0,,0,,,72,127
6915,note_off,0,0,0,,2,,,62,127
6916,note_on,1,0,0,,2,,,50,127
6916,note_on,0,0,0,,12,,,71,127
7032,note_off,116,0,0,,12,,,71,127
7033,note_on,1,0,0,,10,,,69,127
7149,note_off,116,0,0,,10,,,69,127
7149,note_off,0,0,0,,2,,,50,127
7150,note_on,1,0,0,,7,,,43,127
7150,note_on,0,0,0,,0,,,72,127
7266,note_off,116,0,0,,0,,,72,127
7267,note_on,1,0,0,,12,,,71,127
7383,note_off,116,0,0,,12,,,71,127
7384,note_on,1,0,0,,10,,,69,127
7500,note_off,116,0,0,,10,,,69,127
7501,note_on,1,0,0,,12,,,71,127
7617,note_off,116,0,0,,12,,,71,127
7618,note_on,1,0,0,,7,,,67,127
7852,note_off,234,0,0,,7,,,43,127
7861,note_on,9,0,0,,7,,,55,127
7861,note_on,0,0,0,,2,,,62,127
8084,note_off,223,0,0,,7,,,67,127
8095,note_off,11,0,0,,2,,,62,127
8095,note_off,0,0,0,,7,,,55,127
8096,note_on,1,0,0,,7,,,55,127
8096,note_on,0,0,0,,2,,,62,127
8096,note_on,0,0,0,,7,,,79,127
8212,note_off,116,0,0,,7,,,79,127
8213,note_on,1,0,0,,4,,,76,127
8329,note_off,116,0,0,,4,,,76,127
8329,note_off,0,0,0,,2,,,62,127
8329,note_off,0,0,0,,7,,,55,127
8330,note_on,1,0,0,,7,,,55,127
8330,note_on,0,0,0,,2,,,62,127
8330,note_on,0,0,0,,2,,,74,127
8446,note_off,116,0,0,,2,,,74,127
8447,note_on,1,0,0,,1,,,73,127
8563,note_off,116,0,0,,1,,,73,127
8563,note_off,0,0,0,,2,,,62,127
8563,note_off,0,0,0,,7,,,55,127
8564,note_on,1,0,0,,6,,,54,127
8564,note_on,0,0,0,,2,,,62,127
8564,note_on,0,0,0,,10,,,57,127
8564,note_on,0,0,0,,1,,,73,127
8798,note_off,234,0,0,,10,,,57,127
8798,note_off,0,0,0,,2,,,62,127
8798,note_off,0,0,0,,6,,,54,127
8799,note_on,1,0,0,,6,,,54,127
8799,note_on,0,0,0,,10,,,57,127
8799,note_on,0,0,0,,2,,,62,127
9033,note_off,234,0,0,,2,,,62,127
9033,note_off,0,0,0,,10,,,57,127
9033,note_off,0,0,0,,6,,,54,127
9033,note_off,0,0,0,,1,,,73,127
9034,note_on,1,0,0,,10,,,57,127
9034,note_on,0,0,0,,6,,,54,127
9034,note_on,0,0,0,,2,,,62,127
9034,note_on,0,0,0,,2,,,74,127
9268,note_off,234,0,0,,2,,,62,127
9268,note_off,0,0,0,,6,,,54,127
9268,note_off,0,0,0,,10,,,57,127
9269,note_on,1,0,0,,7,,,55,127
9269,note_on,0,0,0,,2,,,62,127
9387,note_off,118,0,0,,2,,,74,127
9503,note_off,116,0,0,,2,,,62,127
9503,note_off,0,0,0,,7,,,55,127
9504,note_on,1,0,0,,7,,,55,127
9504,note_on,0,0,0,,2,,,62,127
9504,note_on,0,0,0,,12,,,83,127
9620,note_off,116,0,0,,12,,,83,127
9621,note_on,1,0,0,,4,,,76,127
9737,note_off,116,0,0,,4,,,76,127
9737,note_off,0,0,0,,2,,,62,127
9737,note_off,0,0,0,,7,,,55,127
9738,note_on,1,0,0,,7,,,55,127
9738,note_on,0,0,0,,2,,,62,127
9738,note_on,0,0,0,,2,,,74,127
9854,note_off,116,0,0,,2,,,74,127
9855,note_on,1,0,0,,1,,,73,127
9971,note_off,116,0,0,,1,,,73,127
9971,note_off,0,0,0,,2,,,62,127
9971,note_off,0,0,0,,7,,,55,127
9972,note_on,1,0,0,,6,,,54,127
9972,note_on,0,0,0,,10,,,57,127
9972,note_on,0,0,0,,2,,,62,127
9972,note_on,0,0,0,,1,,,73,127
10206,note_off,234,0,0,,2,,,62,127
10206,note_off,0,0,0,,10,,,57,127
10206,note_off,0,0,0,,6,,,54,127
10207,note_on,1,0,0,,6,,,54,127
10207,note_on,0,0,0,,10,,,57,127
10207,note_on,0,0,0,,2,,,62,127
10441,note_off,234,0,0,,2,,,62,127
10441,note_off,0,0,0,,10,,,57,127
10441,note_off,0,0,0,,6,,,54,127
10441,note_off,0,0,0,,1,,,73,127
10442,note_on,1,0,0,,6,,,54,127
10442,note_on,0,0,0,,10,,,57,127
10442,note_on,0,0,0,,2,,,62,127
10442,note_on,0,0,0,,2,,,74,127
10676,note_off,234,0,0,,2,,,62,127
10676,note_off,0,0,0,,10,,,57,127
10676,note_off,0,0,0,,6,,,54,127
10677,note_on,1,0,0,,5,,,53,127
10677,note_on,0,0,0,,2,,,62,127
10677,note_on,0,0,0,,10,,,57,127
10795,note_off,118,0,0,,2,,,74,127
10911,note_off,116,0,0,,10,,,57,127
10911,note_off,0,0,0,,2,,,62,127
10911,note_off,0,0,0,,5,,,53,127
10912,note_on,1,0,0,,5,,,53,127
10912,note_on,0,0,0,,2,,,62,127
10912,note_on,0,0,0,,10,,,57,127
10912,note_on,0,0,0,,10,,,81,127
11028,note_off,116,0,0,,10,,,81,127
11029,note_on,1,0,0,,5,,,77,127
11145,note_off,116,0,0,,5,,,77,127
11145,note_off,0,0,0,,10,,,57,127
11145,note_off,0,0,0,,2,,,62,127
11145,note_off,0,0,0,,5,,,53,127
11146,note_on,1,0,0,,5,,,53,127
11146,note_on,0,0,0,,2,,,62,127
11146,note_on,0,0,0,,10,,,57,127
11146,note_on,0,0,0,,4,,,76,127
11262,note_off,116,0,0,,4,,,76,127
11263,note_on,1,0,0,,2,,,74,127
11379,note_off,116,0,0,,2,,,74,127
11379,note_off,0,0,0,,10,,,57,127
11379,note_off,0,0,0,,2,,,62,127
11379,note_off,0,0,0,,5,,,53,127
11380,note_on,1,0,0,,2,,,62,127
11380,note_on,0,0,0,,7,,,55,127
11380,note_on,0,0,0,,4,,,64,127
11380,note_on,0,0,0,,2,,,74,127
11614,note_off,234,0,0,,4,,,64,127
11614,note_off,0,0,0,,7,,,55,127
11614,note_off,0,0,0,,2,,,62,127
11615,note_on,1,0,0,,2,,,62,127
11615,note_on,0,0,0,,7,,,55,127
11615,note_on,0,0,0,,4,,,64,127
11849,note_off,234,0,0,,4,,,64,127
11849,note_off,0,0,0,,7,,,55,127
11849,note_off,0,0,0,,2,,,62,127
11849,note_off,0,0,0,,2,,,74,127
11850,note_on,1,0,0,,2,,,62,127
11850,note_on,0,0,0,,7,,,55,127
11850,note_on,0,0,0,,4,,,64,127
11850,note_on,0,0,0,,4,,,76,127
12084,note_off,234,0,0,,4,,,64,127
12084,note_off,0,0,0,,7,,,55,127
12084,note_off,0,0,0,,2,,,62,127
12085,note_on,1,0,0,,2,,,62,127
12085,note_on,0,0,0,,8,,,56,127
12085,note_on,0,0,0,,4,,,64,127
12203,note_off,118,0,0,,4,,,76,127
12319,note_off,116,0,0,,4,,,64,127
12319,note_off,0,0,0,,8,,,56,127
12319,note_off,0,0,0,,2,,,62,127
12320,note_on,1,0,0,,8,,,56,127
12320,note_on,0,0,0,,4,,,64,127
12320,note_on,0,0,0,,2,,,62,127
12320,note_on,0,0,0,,11,,,82,127
12436,note_off,116,0,0,,11,,,82,127
12437,note_on,1,0,0,,2,,,74,127
12553,note_off,116,0,0,,2,,,74,127
12553,note_off,0,0,0,,2,,,62,127
12553,note_off,0,0,0,,4,,,64,127
12553,note_off,0,0,0,,8,,,56,127
12554,note_on,1,0,0,,8,,,56,127
12554,note_on,0,0,0,,2,,,62,127
12554,note_on,0,0,0,,4,,,64,127
12554,note_on,0,0,0,,1,,,73,127
12670,note_off,116,0,0,,1,,,73,127
12671,note_on,1,0,0,,2,,,74,127
12787,note_off,116,0,0,,2,,,74,127
12787,note_off,0,0,0,,4,,,64,127
12787,note_off,0,0,0,,2,,,62,127
12787,note_off,0,0,0,,8,,,56,127
12788,note_on,1,0,0,,10,,,57,127
12788,note_on,0,0,0,,4,,,64,127
12788,note_on,0,0,0,,2,,,74,127
13022,note_off,234,0,0,,4,,,64,127
13022,note_off,0,0,0,,10,,,57,127
13023,note_on,1,0,0,,10,,,57,127
13023,note_on,0,0,0,,4,,,64,127
13257,note_off,234,0,0,,4,,,64,127
13257,note_off,0,0,0,,10,,,57,127
13257,note_off,0,0,0,,2,,,74,127
13258,note_on,1,0,0,,10,,,57,127
13258,note_on,0,0,0,,4,,,64,127
13258,note_on,0,0,0,,1,,,73,127
13492,note_off,234,0,0,,4,,,64,127
13492,note_off,0,0,0,,10,,,57,127
13493,note_on,1,0,0,,5,,,53,127
13493,note_on,0,0,0,,10,,,57,127
13493,note_on,0,0,0,,2,,,62,127
13552,note_off,59,0,0,,1,,,73,127
13727,note_off,175,0,0,,2,,,62,127
13727,note_off,0,0,0,,10,,,57,127
13727,note_off,0,0,0,,5,,,53,127
13728,note_on,1,0,0,,10,,,57,127
13728,note_on,0,0,0,,5,,,53,127
13728,note_on,0,0,0,,2,,,62,127
13728,note_on,0,0,0,,10,,,81,127
13844,note_off,116,0,0,,10,,,81,127
13845,note_on,1,0,0,,5,,,77,127
13961,note_off,116,0,0,,5,,,77,127
13961,note_off,0,0,0,,2,,,62,127
13961,note_off,0,0,0,,5,,,53,127
13961,note_off,0,0,0,,10,,,57,127
13962,note_on,1,0,0,,5,,,53,127
13962,note_on,0,0,0,,10,,,57,127
13962,note_on,0,0,0,,2,,,62,127
13962,note_on,0,0,0,,4,,,76,127
14078,note_off,116,0,0,,4,,,76,127
14079,note_on,1,0,0,,2,,,74,127
14195,note_off,116,0,0,,2,,,74,127
14195,note_off,0,0,0,,2,,,62,127
14195,note_off,0,0,0,,10,,,57,127
14195,note_off,0,0,0,,5,,,53,127
14196,note_on,1,0,0,,7,,,55,127
14196,note_on,0,0,0,,2,,,62,127
14196,note_on,0,0,0,,4,,,64,127
14196,note_on,0,0,0,,2,,,74,127
14430,note_off,234,0,0,,4,,,64,127
14430,note_off,0,0,0,,2,,,62,127
14430,note_off,0,0,0,,7,,,55,127
14431,note_on,1,0,0,,7,,,55,127
14431,note_on,0,0,0,,4,,,64,127
14431,note_on,0,0,0,,2,,,62,127
14665,note_off,234,0,0,,2,,,62,127
14665,note_off,0,0,0,,4,,,64,127
14665,note_off,0,0,0,,7,,,55,127
14665,note_off,0,0,0,,2,,,74,127
14666,note_on,1,0,0,,7,,,55,127
14666,note_on,0,0,0,,2,,,62,127
14666,note_on,0,0,0,,4,,,64,127
14666,note_on,0,0,0,,4,,,76,127
14900,note_off,234,0,0,,4,,,64,127
14900,note_off,0,0,0,,2,,,62,127
14900,note_off,0,0,0,,7,,,55,127
14901,note_on,1,0,0,,8,,,56,127
14901,note_on,0,0,0,,2,,,62,127
14901,note_on,0,0,0,,4,,,64,127
15019,note_off,118,0,0,,4,,,76,127
15135,note_off,116,0,0,,4,,,64,127
15135,note_off,0,0,0,,2,,,62,127
15135,note_off,0,0,0,,8,,,56,127
15136,note_on,1,0,0,,8,,,56,127
15136,note_on,0,0,0,,2,,,62,127
15136,note_on,0,0,0,,4,,,64,127
15136,note_on,0,0,0,,11,,,82,127
15252,note_off,116,0,0,,11,,,82,127
15253,note_on,1,0,0,,2,,,74,127
15369,note_off,116,0,0,,2,,,74,127
15369,note_off,0,0,0,,4,,,64,127
15369,note_off,0,0,0,,2,,,62,127
15369,note_off,0,0,0,,8,,,56,127
15370,note_on,1,0,0,,8,,,56,127
15370,note_on,0,0,0,,2,,,62,127
15370,note_on,0,0,0,,4,,,64,127
15370,note_on,0,0,0,,1,,,73,127
15486,note_off,116,0,0,,1,,,73,127
15487,note_on,1,0,0,,2,,,74,127
15603,note_off,116,0,0,,2,,,74,127
15603,note_off,0,0,0,,4,,,64,127
15603,note_off,0,0,0,,2,,,62,127
15603,note_off,0,0,0,,8,,,56,127
15604,note_on,1,0,0,,10,,,57,127
15604,note_on,0,0,0,,4,,,64,127
15604,note_on,0,0,0,,2,,,74,127
15838,note_off,234,0,0,,4,,,64,127
15838,note_off,0,0,0,,10,,,57,127
15839,note_on,1,0,0,,10,,,57,127
15839,note_on,0,0,0,,4,,,64,127
16073,note_off,234,0,0,,4,,,64,127
16073,note_off,0,0,0,,10,,,57,127
16073,note_off,0,0,0,,2,,,74,127
16074,note_on,1,0,0,,4,,,64,127
16074,note_on,0,0,0,,10,,,57,127
16074,note_on,0,0,0,,1,,,73,127
16250,note_off,176,0,0,,1,,,73,127
16308,note_off,58,0,0,,10,,,57,127
16308,note_off,0,0,0,,4,,,64,127
16309,note_on,1,0,0,,7,,,55,127
16309,note_on,0,0,0,,4,,,64,127
16427,note_on,118,0,0,,4,,,76,127
16543,note_off,116,0,0,,4,,,76,127
16543,note_off,0,0,0,,4,,,64,127
16543,note_off,0,0,0,,7,,,55,127
16544,note_on,1,0,0,,4,,,64,127
16544,note_on,0,0,0,,7,,,55,127
16544,note_on,0,0,0,,4,,,76,127
16660,note_off,116,0,0,,4,,,76,127
16661,note_on,1,0,0,,4,,,76,127
16777,note_off,116,0,0,,4,,,76,127
16777,note_off,0,0,0,,7,,,55,127
16777,note_off,0,0,0,,4,,,64,127
16778,note_on,1,0,0,,7,,,55,127
16778,note_on,0,0,0,,4,,,64,127
16778,note_on,0,0,0,,4,,,76,127
16894,note_off,116,0,0,,4,,,76,127
16895,note_on,1,0,0,,4,,,76,127
17011,note_off,116,0,0,,4,,,76,127
17011,note_off,0,0,0,,4,,,64,127
17011,note_off,0,0,0,,7,,,55,127
17012,note_on,1,0,0,,6,,,54,127
17012,note_on,0,0,0,,10,,,57,127
17012,note_on,0,0,0,,2,,,62,127
17012,note_on,0,0,0,,10,,,81,127
17128,note_off,116,0,0,,10,,,81,127
17129,note_on,1,0,0,,7,,,79,127
17187,note_off,58,0,0,,7,,,79,127
17188,note_on,1,0,0,,6,,,78,127
17246,note_off,58,0,0,,6,,,78,127
17246,note_off,0,0,0,,2,,,62,127
17246,note_off,0,0,0,,10,,,57,127
17246,note_off,0,0,0,,6,,,54,127
17247,note_on,1,0,0,,6,,,54,127
17247,note_on,0,0,0,,2,,,62,127
17247,note_on,0,0,0,,10,,,57,127
17247,note_on,0,0,0,,4,,,76,127
17363,note_off,116,0,0,,4,,,76,127
17364,note_on,1,0,0,,2,,,74,127
17480,note_off,116,0,0,,2,,,74,127
17480,note_off,0,0,0,,10,,,57,127
17480,note_off,0,0,0,,2,,,62,127
17480,note_off,0,0,0,,6,,,54,127
17481,note_on,1,0,0,,2,,,62,127
17481,note_on,0,0,0,,10,,,57,127
17481,note_on,0,0,0,,6,,,54,127
17481,note_on,0,0,0,,1,,,73,127
17597,note_off,116,0,0,,1,,,73,127
17598,note_on,1,0,0,,2,,,74,127
17714,note_off,116,0,0,,6,,,54,127
17714,note_off,0,0,0,,10,,,57,127
17714,note_off,0,0,0,,2,,,62,127
17715,note_on,1,0,0,,7,,,55,127
17715,note_on,0,0,0,,4,,,64,127
17774,note_off,59,0,0,,2,,,74,127
17833,note_on,59,0,0,,4,,,76,127
17949,note_off,116,0,0,,4,,,76,127
17949,note_off,0,0,0,,4,,,64,127
17949,note_off,0,0,0,,7,,,55,127
17950,note_on,1,0,0,,4,,,64,127
17950,note_on,0,0,0,,7,,,55,127
17950,note_on,0,0,0,,4,,,76,127
18066,note_off,116,0,0,,4,,,76,127
18067,note_on,1,0,0,,4,,,76,127
18183,note_off,116,0,0,,4,,,76,127
18183,note_off,0,0,0,,7,,,55,127
18183,note_off,0,0,0,,4,,,64,127
18184,note_on,1,0,0,,7,,,55,127
18184,note_on,0,0,0,,4,,,64,127
18184,note_on,0,0,0,,4,,,76,127
18300,note_off,116,0,0,,4,,,76,127
18301,note_on,1,0,0,,4,,,76,127
18417,note_off,116,0,0,,4,,,76,127
18417,note_off,0,0,0,,4,,,64,127
18417,note_off,0,0,0,,7,,,55,127
18418,note_on,1,0,0,,6,,,54,127
18418,note_on,0,0,0,,2,,,62,127
18418,note_on,0,0,0,,10,,,57,127
18418,note_on,0,0,0,,10,,,81,127
18534,note_off,116,0,0,,10,,,81,127
18535,note_on,1,0,0,,7,,,79,127
18593,note_off,58,0,0,,7,,,79,127
18594,note_on,1,0,0,,6,,,78,127
18652,note_off,58,0,0,,6,,,78,127
18652,note_off,0,0,0,,10,,,57,127
18652,note_off,0,0,0,,2,,,62,127
18652,note_off,0,0,0,,6,,,54,127
18653,note_on,1,0,0,,6,,,54,127
18653,note_on,0,0,0,,2,,,62,127
18653,note_on,0,0,0,,10,,,57,127
18653,note_on,0,0,0,,4,,,76,127
18769,note_off,116,0,0,,4,,,76,127
18770,note_on,1,0,0,,2,,,74,127
18886,note_off,116,0,0,,2,,,74,127
18886,note_off,0,0,0,,10,,,57,127
18886,note_off,0,0,0,,2,,,62,127
18886,note_off,0,0,0,,6,,,54,127
18887,note_on,1,0,0,,6,,,54,127
18887,note_on,0,0,0,,2,,,62,127
18887,note_on,0,0,0,,10,,,57,127
18887,note_on,0,0,0,,1,,,73,127
19003,note_off,116,0,0,,1,,,73,127
19004,note_on,1,0,0,,2,,,74,127
19120,note_off,116,0,0,,10,,,57,127
19120,note_off,0,0,0,,2,,,62,127
19120,note_off,0,0,0,,6,,,54,127
19121,note_on,1,0,0,,2,,,62,127
19121,note_on,0,0,0,,12,,,59,127
19121,note_on,0,0,0,,7,,,55,127
19180,note_off,59,0,0,,2,,,74,127
19239,note_on,59,0,0,,12,,,83,127
19355,note_off,116,0,0,,12,,,83,127
19355,note_off,0,0,0,,7,,,55,127
19355,note_off,0,0,0,,12,,,59,127
19355,note_off,0,0,0,,2,,,62,127
19356,note_on,1,0,0,,12,,,59,127
19356,note_on,0,0,0,,7,,,55,127
19356,note_on,0,0,0,,2,,,62,127
19356,note_on,0,0,0,,12,,,83,127
19472,note_off,116,0,0,,12,,,83,127
19473,note_on,1,0,0,,12,,,83,127
19589,note_off,116,0,0,,12,,,83,127
19589,note_off,0,0,0,,2,,,62,127
19589,note_off,0,0,0,,7,,,55,127
19589,note_off,0,0,0,,12,,,59,127
19590,note_on,1,0,0,,12,,,59,127
19590,note_on,0,0,0,,7,,,55,127
19590,note_on,0,0,0,,2,,,62,127
19590,note_on,0,0,0,,12,,,83,127
19706,note_off,116,0,0,,12,,,83,127
19707,note_on,1,0,0,,1,,,85,127
19823,note_off,116,0,0,,1,,,85,127
19823,note_off,0,0,0,,2,,,62,127
19823,note_off,0,0,0,,7,,,55,127
19823,note_off,0,0,0,,12,,,59,127
19824,note_on,1,0,0,,2,,,62,127
19824,note_on,0,0,0,,6,,,54,127
19824,note_on,0,0,0,,10,,,57,127
19824,note_on,0,0,0,,2,,,86,127
19940,note_off,116,0,0,,2,,,86,127
19941,note_on,1,0,0,,1,,,85,127
19999,note_off,58,0,0,,1,,,85,127
20000,note_on,1,0,0,,12,,,83,127
20058,note_off,58,0,0,,12,,,83,127
20058,note_off,0,0,0,,10,,,57,127
20058,note_off,0,0,0,,6,,,54,127
20058,note_off,0,0,0,,2,,,62,127
20059,note_on,1,0,0,,6,,,54,127
20059,note_on,0,0,0,,10,,,57,127
20059,note_on,0,0,0,,2,,,62,127
20059,note_on,0,0,0,,10,,,81,127
20175,note_off,116,0,0,,10,,,81,127
20176,note_on,1,0,0,,7,,,79,127
20292,note_off,116,0,0,,7,,,79,127
20292,note_off,0,0,0,,2,,,62,127
20292,note_off,0,0,0,,10,,,57,127
20292,note_off,0,0,0,,6,,,54,127
20293,note_on,1,0,0,,2,,,62,127
20293,note_on,0,0,0,,6,,,54,127
20293,note_on,0,0,0,,10,,,57,127
20293,note_on,0,0,0,,7,,,79,127
20409,note_off,116,0,0,,7,,,79,127
20410,note_on,1,0,0,,6,,,78,127
20526,note_off,116,0,0,,6,,,78,127
20526,note_off,0,0,0,,10,,,57,127
20526,note_off,0,0,0,,6,,,54,127
20526,note_off,0,0,0,,2,,,62,127
20527,note_on,1,0,0,,7,,,55,127
20527,note_on,0,0,0,,6,,,78,127
20643,note_off,116,0,0,,6,,,78,127
20644,note_on,1,0,0,,4,,,76,127
20760,note_off,116,0,0,,4,,,76,127
20760,note_off,0,0,0,,7,,,55,127
20761,note_on,1,0,0,,10,,,57,127
20761,note_on,0,0,0,,4,,,76,127
20877,note_off,116,0,0,,4,,,76,127
20878,note_on,1,0,0,,2,,,74,127
20994,note_off,116,0,0,,2,,,74,127
20995,note_on,1,0,0,,10,,,45,127
20995,note_on,0,0,0,,2,,,74,127
21111,note_off,116,0,0,,2,,,74,127
21112,note_on,1,0,0,,1,,,73,127
21225,note_off,113,0,0,,10,,,57,127
21229,note_off,4,0,0,,1,,,73,127
21229,note_off,0,0,0,,10,,,45,127
21230,note_on,1,0,0,,2,,,50,127
21230,note_on,0,0,0,,1,,,73,127
21464,note_off,234,0,0,,2,,,50,127
21465,note_on,1,0,0,,4,,,52,127
21699,note_off,234,0,0,,4,,,52,127
21699,note_off,0,0,0,,1,,,73,127
21700,note_on,1,0,0,,6,,,54,127
21700,note_on,0,0,0,,2,,,74,127
21881,note_off,181,0,0,,2,,,74,127
21934,note_off,53,0,0,,6,,,54,127
21935,note_on,1,0,0,,4,,,64,127
21935,note_on,0,0,0,,7,,,55,127
22053,note_on,118,0,0,,4,,,76,127
22169,note_off,116,0,0,,4,,,76,127
22169,note_off,0,0,0,,7,,,55,127
22169,note_off,0,0,0,,4,,,64,127
22170,note_on,1,0,0,,7,,,55,127
22170,note_on,0,0,0,,4,,,64,127
22170,note_on,0,0,0,,4,,,76,127
22286,note_off,116,0,0,,4,,,76,127
22287,note_on,1,0,0,,4,,,76,127
22403,note_off,116,0,0,,4,,,76,127
22403,note_off,0,0,0,,4,,,64,127
22403,note_off,0,0,0,,7,,,55,127
22404,note_on,1,0,0,,4,,,64,127
22404,note_on,0,0,0,,7,,,55,127
22404,note_on,0,0,0,,4,,,76,127
22520,note_off,116,0,0,,4,,,76,127
22521,note_on,1,0,0,,4,,,76,127
22637,note_off,116,0,0,,4,,,76,127
22637,note_off,0,0,0,,7,,,55,127
22637,note_off,0,0,0,,4,,,64,127
22638,note_on,1,0,0,,2,,,62,127
22638,note_on,0,0,0,,10,,,57,127
22638,note_on,0,0,0,,6,,,54,127
22638,note_on,0,0,0,,10,,,81,127
22754,note_off,116,0,0,,10,,,81,127
22755,note_on,1,0,0,,7,,,79,127
22813,note_off,58,0,0,,7,,,79,127
22814,note_on,1,0,0,,6,,,78,127
22872,note_off,58,0,0,,6,,,78,127
22872,note_off,0,0,0,,6,,,54,127
22872,note_off,0,0,0,,10,,,57,127
22872,note_off,0,0,0,,2,,,62,127
22873,note_on,1,0,0,,6,,,54,127
22873,note_on,0,0,0,,10,,,57,127
22873,note_on,0,0,0,,2,,,62,127
22873,note_on,0,0,0,,4,,,76,127
22989,note_off,116,0,0,,4,,,76,127
22990,note_on,1,0,0,,2,,,74,127
23106,note_off,116,0,0,,2,,,74,127
23106,note_off,0,0,0,,2,,,62,127
23106,note_off,0,0,0,,10,,,57,127
23106,note_off,0,0,0,,6,,,54,127
23107,note_on,1,0,0,,6,,,54,127
23107,note_on,0,0,0,,2,,,62,127
23107,note_on,0,0,0,,10,,,57,127
23107,note_on,0,0,0,,1,,,73,127
23223,note_off,116,0,0,,1,,,73,127
23224,note_on,1,0,0,,2,,,74,127
23340,note_off,116,0,0,,10,,,57,127
23340,note_off,0,0,0,,2,,,62,127
23340,note_off,0,0,0,,6,,,54,127
23341,note_on,1,0,0,,4,,,64,127
23341,note_on,0,0,0,,7,,,55,127
23370,note_off,29,0,0,,2,,,74,127
23458,note_on,88,0,0,,4,,,76,127
23574,note_off,116,0,0,,4,,,76,127
23574,note_off,0,0,0,,7,,,55,127
23574,note_off,0,0,0,,4,,,64,127
23575,note_on,1,0,0,,7,,,55,127
23575,note_on,0,0,0,,4,,,64,127
23575,note_on,0,0,0,,4,,,76,127
23691,note_off,116,0,0,,4,,,76,127
23692,note_on,1,0,0,,4,,,76,127
23808,note_off,116,0,0,,4,,,76,127
23808,note_off,0,0,0,,4,,,64,127
23808,note_off,0,0,0,,7,,,55,127
23809,note_on,1,0,0,,7,,,55,127
23809,note_on,0,0,0,,4,,,64,127
23809,note_on,0,0,0,,4,,,76,127
23925,note_off,116,0,0,,4,,,76,127
23926,note_on,1,0,0,,4,,,76,127
24042,note_off,116,0,0,,4,,,76,127
24042,note_off,0,0,0,,4,,,64,127
24042,note_off,0,0,0,,7,,,55,127
24043,note_on,1,0,0,,2,,,62,127
24043,note_on,0,0,0,,10,,,57,127
24043,note_on,0,0,0,,6,,,54,127
24043,note_on,0,0,0,,10,,,81,127
24159,note_off,116,0,0,,10,,,81,127
24160,note_on,1,0,0,,7,,,79,127
24218,note_off,58,0,0,,7,,,79,127
24219,note_on,1,0,0,,6,,,78,127
24277,note_off,58,0,0,,6,,,78,127
24277,note_off,0,0,0,,6,,,54,127
24277,note_off,0,0,0,,10,,,57,127
24277,note_off,0,0,0,,2,,,62,127
24278,note_on,1,0,0,,6,,,54,127
24278,note_on,0,0,0,,2,,,62,127
24278,note_on,0,0,0,,10,,,57,127
24278,note_on,0,0,0,,4,,,76,127
24394,note_off,116,0,0,,4,,,76,127
24395,note_on,1,0,0,,2,,,74,127
24511,note_off,116,0,0,,2,,,74,127
24511,note_off,0,0,0,,10,,,57,127
24511,note_off,0,0,0,,2,,,62,127
24511,note_off,0,0,0,,6,,,54,127
24512,note_on,1,0,0,,2,,,62,127
24512,note_on,0,0,0,,10,,,57,127
24512,note_on,0,0,0,,6,,,54,127
24512,note_on,0,0,0,,1,,,73,127
24628,note_off,116,0,0,,1,,,73,127
24629,note_on,1,0,0,,2,,,74,127
24745,note_off,116,0,0,,6,,,54,127
24745,note_off,0,0,0,,10,,,57,127
24745,note_off,0,0,0,,2,,,62,127
24746,note_on,1,0,0,,12,,,59,127
24746,note_on,0,0,0,,7,,,55,127
24746,note_on,0,0,0,,2,,,62,127
24775,note_off,29,0,0,,2,,,74,127
24863,note_on,88,0,0,,12,,,83,127
24979,note_off,116,0,0,,12,,,83,127
24979,note_off,0,0,0,,2,,,62,127
24979,note_off,0,0,0,,7,,,55,127
24979,note_off,0,0,0,,12,,,59,127
24980,note_on,1,0,0,,12,,,59,127
24980,note_on,0,0,0,,7,,,55,127
24980,note_on,0,0,0,,2,,,62,127
24980,note_on,0,0,0,,12,,,83,127
25096,note_off,116,0,0,,12,,,83,127
25097,note_on,1,0,0,,12,,,83,127
25213,note_off,116,0,0,,12,,,83,127
25213,note_off,0,0,0,,2,,,62,127
25213,note_off,0,0,0,,7,,,55,127
25213,note_off,0,0,0,,12,,,59,127
25214,note_on,1,0,0,,2,,,62,127
25214,note_on,0,0,0,,12,,,59,127
25214,note_on,0,0,0,,7,,,55,127
25214,note_on,0,0,0,,12,,,83,127
25330,note_off,116,0,0,,12,,,83,127
25331,note_on,1,0,0,,1,,,85,127
25447,note_off,116,0,0,,1,,,85,127
25447,note_off,0,0,0,,7,,,55,127
25447,note_off,0,0,0,,12,,,59,127
25447,note_off,0,0,0,,2,,,62,127
25448,note_on,1,0,0,,6,,,54,127
25448,note_on,0,0,0,,10,,,57,127
25448,note_on,0,0,0,,2,,,62,127
25448,note_on,0,0,0,,2,,,86,127
25564,note_off,116,0,0,,2,,,86,127
25565,note_on,1,0,0,,1,,,85,127
25623,note_off,58,0,0,,1,,,85,127
25624,note_on,1,0,0,,12,,,83,127
25682,note_off,58,0,0,,12,,,83,127
25682,note_off,0,0,0,,2,,,62,127
25682,note_off,0,0,0,,10,,,57,127
25682,note_off,0,0,0,,6,,,54,127
25683,note_on,1,0,0,,2,,,62,127
25683,note_on,0,0,0,,10,,,57,127
25683,note_on,0,0,0,,6,,,54,127
25683,note_on,0,0,0,,10,,,81,127
25799,note_off,116,0,0,,10,,,81,127
25800,note_on,1,0,0,,7,,,79,127
25916,note_off,116,0,0,,7,,,79,127
25916,note_off,0,0,0,,6,,,54,127
25916,note_off,0,0,0,,10,,,57,127
25916,note_off,0,0,0,,2,,,62,127
25917,note_on,1,0,0,,6,,,54,127
25917,note_on,0,0,0,,10,,,57,127
25917,note_on,0,0,0,,2,,,62,127
25917,note_on,0,0,0,,7,,,79,127
26033,note_off,116,0,0,,7,,,79,127
26034,note_on,1,0,0,,6,,,78,127
26150,note_off,116,0,0,,6,,,78,127
26150,note_off,0,0,0,,2,,,62,127
26150,note_off,0,0,0,,10,,,57,127
26150,note_off,0,0,0,,6,,,54,127
26151,note_on,1,0,0,,7,,,55,127
26151,note_on,0,0,0,,6,,,78,127
26267,note_off,116,0,0,,6,,,78,127
26268,note_on,1,0,0,,4,,,76,127
26384,note_off,116,0,0,,4,,,76,127
26384,note_off,0,0,0,,7,,,55,127
26385,note_on,1,0,0,,10,,,57,127
26385,note_on,0,0,0,,4,,,76,127
26501,note_off,116,0,0,,4,,,76,127
26502,note_on,1,0,0,,2,,,74,127
26618,note_off,116,0,0,,2,,,74,127
26619,note_on,1,0,0,,10,,,45,127
26619,note_on,0,0,0,,2,,,74,127
26735,note_off,116,0,0,,2,,,74,127
26736,note_on,1,0,0,,1,,,73,127
26844,note_off,108,0,0,,1,,,73,127
26849,note_off,5,0,0,,10,,,57,127
26853,note_off,4,0,0,,10,,,45,127
26854,note_on,1,0,0,,2,,,50,127
26854,note_on,0,0,0,,2,,,74,127
26970,note_off,116,0,0,,2,,,74,127
26971,note_on,1,0,0,,6,,,78,127
27087,note_off,116,0,0,,6,,,78,127
27087,note_off,0,0,0,,2,,,50,127
27088,note_on,1,0,0,,4,,,52,127
27088,note_on,0,0,0,,6,,,78,127
27204,note_off,116,0,0,,6,,,78,127
27205,note_on,1,0,0,,10,,,81,127
27321,note_off,116,0,0,,10,,,81,127
27321,note_off,0,0,0,,4,,,52,127
27322,note_on,1,0,0,,6,,,54,127
27322,note_on,0,0,0,,10,,,81,127
27438,note_off,116,0,0,,10,,,81,127
27439,note_on,1,0,0,,7,,,79,127
27555,note_off,116,0,0,,7,,,79,127
27555,note_off,0,0,0,,6,,,54,127
27556,note_on,1,0,0,,7,,,55,127
27556,note_on,0,0,0,,7,,,79,127
27672,note_off,116,0,0,,7,,,79,127
27673,note_on,1,0,0,,6,,,78,127
27789,note_off,116,0,0,,6,,,78,127
27789,note_off,0,0,0,,7,,,55,127
27790,note_on,1,0,0,,10,,,57,127
27790,note_on,0,0,0,,6,,,78,127
27906,note_off,116,0,0,,6,,,78,127
27907,note_on,1,0,0,,4,,,76,127
28023,note_off,116,0,0,,4,,,76,127
28024,note_on,1,0,0,,10,,,45,127
28024,note_on,0,0,0,,2,,,74,127
28140,note_off,116,0,0,,2,,,74,127
28141,note_on,1,0,0,,1,,,73,127
28254,note_off,113,0,0,,10,,,57,127
28258,note_off,4,0,0,,1,,,73,127
28258,note_off,0,0,0,,10,,,45,127
28259,note_on,1,0,0,,2,,,50,127
28259,note_on,0,0,0,,2,,,74,127
28375,note_off,116,0,0,,2,,,74,127
28376,note_on,1,0,0,,6,,,78,127
28492,note_off,116,0,0,,6,,,78,127
28492,note_off,0,0,0,,2,,,50,127
28493,note_on,1,0,0,,4,,,52,127
28493,note_on,0,0,0,,6,,,78,127
28609,note_off,116,0,0,,6,,,78,127
28610,note_on,1,0,0,,10,,,81,127
28726,note_off,116,0,0,,10,,,81,127
28726,note_off,0,0,0,,4,,,52,127
28727,note_on,1,0,0,,6,,,54,127
28727,note_on,0,0,0,,10,,,81,127
28843,note_off,116,0,0,,10,,,81,127
28844,note_on,1,0,0,,7,,,79,127
28960,note_off,116,0,0,,7,,,79,127
28960,note_off,0,0,0,,6,,,54,127
28961,note_on,1,0,0,,7,,,55,127
28961,note_on,0,0,0,,7,,,79,127
29077,note_off,116,0,0,,7,,,79,127
29078,note_on,1,0,0,,6,,,78,127
29194,note_off,116,0,0,,6,,,78,127
29194,note_off,0,0,0,,7,,,55,127
29195,note_on,1,0,0,,10,,,57,127
29195,note_on,0,0,0,,6,,,78,127
29311,note_off,116,0,0,,6,,,78,127
29312,note_on,1,0,0,,4,,,76,127
29428,note_off,116,0,0,,4,,,76,127
29429,note_on,1,0,0,,10,,,45,127
29429,note_on,0,0,0,,2,,,74,127
29545,note_off,116,0,0,,2,,,74,127
29546,note_off,1,0,0,,10,,,57,127
29546,note_on,0,0,0,,1,,,73,127
29662,note_off,116,0,0,,1,,,73,127
29662,note_off,0,0,0,,10,,,45,127
29663,note_on,1,0,0,,2,,,38,127
29663,note_on,0,0,0,,2,,,74,127
29779,note_off,116,0,0,,2,,,74,127
29780,note_on,1,0,0,,10,,,81,127
29896,note_off,116,0,0,,10,,,81,127
29896,note_off,0,0,0,,2,,,38,127
29897,note_on,1,0,0,,4,,,40,127
29897,note_on,0,0,0,,10,,,81,127
30013,note_off,116,0,0,,10,,,81,127
30014,note_on,1,0,0,,2,,,86,127
30130,note_off,116,0,0,,2,,,86,127
30130,note_off,0,0,0,,4,,,40,127
30131,note_on,1,0,0,,6,,,42,127
30131,note_on,0,0,0,,2,,,86,127
30247,note_off,116,0,0,,2,,,86,127
30248,note_on,1,0,0,,2,,,74,127
30364,note_off,116,0,0,,2,,,74,127
30364,note_off,0,0,0,,6,,,42,127
30365,note_on,1,0,0,,7,,,43,127
30365,note_on,0,0,0,,2,,,74,127
30481,note_off,116,0,0,,2,,,74,127
30482,note_on,1,0,0,,4,,,76,127
30598,note_off,116,0,0,,4,,,76,127
30598,note_off,0,0,0,,7,,,43,127
30599,note_on,1,0,0,,10,,,45,127
30599,note_on,0,0,0,,6,,,78,127
30715,note_off,116,0,0,,6,,,78,127
30716,note_on,1,0,0,,7,,,79,127
30832,note_off,116,0,0,,7,,,79,127
30832,note_off,0,0,0,,10,,,45,127
30833,note_on,1,0,0,,10,,,45,127
30833,note_on,0,0,0,,10,,,81,127
30949,note_off,116,0,0,,10,,,81,127
30950,note_on,1,0,0,,1,,,73,127
31066,note_off,116,0,0,,1,,,73,127
31066,note_off,0,0,0,,10,,,45,127
31067,note_on,1,0,0,,2,,,38,127
31067,note_on,0,0,0,,4,,,76,127
31125,note_off,58,0,0,,4,,,76,127
31126,note_on,1,0,0,,2,,,74,127
31184,note_off,58,0,0,,2,,,74,127
31185,note_on,1,0,0,,4,,,76,127
31243,note_off,58,0,0,,4,,,76,127
31244,note_on,1,0,0,,2,,,74,127
31772,note_off,528,0,0,,2,,,38,127
31773,note_on,1,0,0,,2,,,50,127
31773,note_on,0,0,0,,2,,,62,127
31881,note_off,108,0,0,,2,,,74,127
31891,note_on,10,0,0,,10,,,81,127
32007,note_off,116,0,0,,10,,,81,127
32007,note_off,0,0,0,,2,,,62,127
32007,note_off,0,0,0,,2,,,50,127
32008,note_on,1,0,0,,2,,,50,127
32008,note_on,0,0,0,,2,,,62,127
32008,note_on,0,0,0,,2,,,74,127
32124,note_off,116,0,0,,2,,,74,127
32125,note_on,1,0,0,,4,,,76,127
32241,note_off,116,0,0,,4,,,76,127
32241,note_off,0,0,0,,2,,,62,127
32241,note_off,0,0,0,,2,,,50,127
32242,note_on,1,0,0,,2,,,62,127
32242,note_on,0,0,0,,2,,,50,127
32242,note_on,0,0,0,,6,,,78,127
32358,note_off,116,0,0,,6,,,78,127
32359,note_on,1,0,0,,7,,,79,127
32475,note_off,116,0,0,,7,,,79,127
32475,note_off,0,0,0,,2,,,50,127
32475,note_off,0,0,0,,2,,,62,127
32476,note_on,1,0,0,,2,,,50,127
32476,note_on,0,0,0,,0,,,60,127
32476,note_on,0,0,0,,10,,,81,127
32592,note_off,116,0,0,,10,,,81,127
32593,note_on,1,0,0,,12,,,83,127
32709,note_off,116,0,0,,12,,,83,127
32709,note_off,0,0,0,,0,,,60,127
32709,note_off,0,0,0,,2,,,50,127
32710,note_on,1,0,0,,2,,,50,127
32710,note_on,0,0,0,,0,,,60,127
32710,note_on,0,0,0,,0,,,84,127
32826,note_off,116,0,0,,0,,,84,127
32827,note_on,1,0,0,,12,,,83,127
32943,note_off,116,0,0,,12,,,83,127
32943,note_off,0,0,0,,0,,,60,127
32943,note_off,0,0,0,,2,,,50,127
32944,note_on,1,0,0,,0,,,60,127
32944,note_on,0,0,0,,2,,,50,127
32944,note_on,0,0,0,,12,,,83,127
33060,note_off,116,0,0,,12,,,83,127
33061,note_on,1,0,0,,0,,,84,127
33177,note_off,116,0,0,,2,,,50,127
33177,note_off,0,0,0,,0,,,60,127
33178,note_on,1,0,0,,2,,,50,127
33178,note_on,0,0,0,,0,,,60,127
33269,note_off,91,0,0,,0,,,84,127
33296,note_on,27,0,0,,10,,,81,127
33412,note_off,116,0,0,,10,,,81,127
33412,note_off,0,0,0,,0,,,60,127
33412,note_off,0,0,0,,2,,,50,127
33413,note_on,1,0,0,,0,,,60,127
33413,note_on,0,0,0,,2,,,50,127
33413,note_on,0,0,0,,0,,,72,127
33529,note_off,116,0,0,,0,,,72,127
33530,note_on,1,0,0,,2,,,74,127
33646,note_off,116,0,0,,2,,,74,127
33646,note_off,0,0,0,,2,,,50,127
33646,note_off,0,0,0,,0,,,60,127
33647,note_on,1,0,0,,0,,,60,127
33647,note_on,0,0,0,,2,,,50,127
33647,note_on,0,0,0,,4,,,76,127
33763,note_off,116,0,0,,4,,,76,127
33764,note_on,1,0,0,,6,,,78,127
33880,note_off,116,0,0,,6,,,78,127
33880,note_off,0,0,0,,2,,,50,127
33880,note_off,0,0,0,,0,,,60,127
33881,note_on,1,0,0,,2,,,50,127
33881,note_on,0,0,0,,12,,,59,127
33881,note_on,0,0,0,,7,,,79,127
33997,note_off,116,0,0,,7,,,79,127
33998,note_on,1,0,0,,10,,,81,127
34114,note_off,116,0,0,,10,,,81,127
34114,note_off,0,0,0,,12,,,59,127
34114,note_off,0,0,0,,2,,,50,127
34115,note_on,1,0,0,,12,,,59,127
34115,note_on,0,0,0,,2,,,50,127
34115,note_on,0,0,0,,12,,,83,127
34231,note_off,116,0,0,,12,,,83,127
34232,note_on,1,0,0,,10,,,81,127
34348,note_off,116,0,0,,10,,,81,127
34348,note_off,0,0,0,,2,,,50,127
34348,note_off,0,0,0,,12,,,59,127
34349,note_on,1,0,0,,2,,,50,127
34349,note_on,0,0,0,,12,,,59,127
34349,note_on,0,0,0,,10,,,81,127
34465,note_off,116,0,0,,10,,,81,127
34466,note_on,1,0,0,,12,,,83,127
34582,note_off,116,0,0,,12,,,59,127
34582,note_off,0,0,0,,2,,,50,127
34583,note_on,1,0,0,,2,,,50,127
34583,note_on,0,0,0,,12,,,59,127
34674,note_off,91,0,0,,12,,,83,127
34701,note_on,27,0,0,,7,,,79,127
34817,note_off,116,0,0,,7,,,79,127
34817,note_off,0,0,0,,12,,,59,127
34817,note_off,0,0,0,,2,,,50,127
34818,note_on,1,0,0,,2,,,50,127
34818,note_on,0,0,0,,12,,,59,127
34818,note_on,0,0,0,,12,,,71,127
34934,note_off,116,0,0,,12,,,71,127
34935,note_on,1,0,0,,0,,,72,127
35051,note_off,116,0,0,,0,,,72,127
35051,note_off,0,0,0,,12,,,59,127
35051,note_off,0,0,0,,2,,,50,127
35052,note_on,1,0,0,,12,,,59,127
35052,note_on,0,0,0,,2,,,50,127
35052,note_on,0,0,0,,2,,,74,127
35168,note_off,116,0,0,,2,,,74,127
35169,note_on,1,0,0,,4,,,76,127
35285,note_off,116,0,0,,4,,,76,127
35285,note_off,0,0,0,,2,,,50,127
35285,note_off,0,0,0,,12,,,59,127
35286,note_on,1,0,0,,2,,,50,127
35286,note_on,0,0,0,,10,,,57,127
35286,note_on,0,0,0,,6,,,78,127
35402,note_off,116,0,0,,6,,,78,127
35403,note_on,1,0,0,,7,,,79,127
35519,note_off,116,0,0,,7,,,79,127
35519,note_off,0,0,0,,10,,,57,127
35519,note_off,0,0,0,,2,,,50,127
35520,note_on,1,0,0,,2,,,50,127
35520,note_on,0,0,0,,10,,,57,127
35520,note_on,0,0,0,,10,,,81,127
35636,note_off,116,0,0,,10,,,81,127
35637,note_on,1,0,0,,7,,,79,127
35753,note_off,116,0,0,,7,,,79,127
35753,note_off,0,0,0,,10,,,57,127
35753,note_off,0,0,0,,2,,,50,127
35754,note_on,1,0,0,,2,,,50,127
35754,note_on,0,0,0,,10,,,57,127
35754,note_on,0,0,0,,7,,,79,127
35870,note_off,116,0,0,,7,,,79,127
35871,note_on,1,0,0,,10,,,81,127
35987,note_off,116,0,0,,10,,,57,127
35987,note_off,0,0,0,,2,,,50,127
35988,note_on,1,0,0,,10,,,57,127
35988,note_on,0,0,0,,3,,,51,127
35988,note_on,0,0,0,,12,,,59,127
36079,note_off,91,0,0,,10,,,81,127
36106,note_on,27,0,0,,0,,,84,127
36222,note_off,116,0,0,,0,,,84,127
36222,note_off,0,0,0,,12,,,59,127
36222,note_off,0,0,0,,3,,,51,127
36222,note_off,0,0,0,,10,,,57,127
36223,note_on,1,0,0,,3,,,51,127
36223,note_on,0,0,0,,12,,,59,127
36223,note_on,0,0,0,,10,,,57,127
36223,note_on,0,0,0,,0,,,84,127
36339,note_off,116,0,0,,0,,,84,127
36340,note_on,1,0,0,,12,,,83,127
36456,note_off,116,0,0,,12,,,83,127
36456,note_off,0,0,0,,10,,,57,127
36456,note_off,0,0,0,,12,,,59,127
36456,note_off,0,0,0,,3,,,51,127
36457,note_on,1,0,0,,3,,,51,127
36457,note_on,0,0,0,,12,,,59,127
36457,note_on,0,0,0,,10,,,57,127
36457,note_on,0,0,0,,12,,,83,127
36573,note_off,116,0,0,,12,,,83,127
36574,note_on,1,0,0,,10,,,81,127
36690,note_off,116,0,0,,10,,,81,127
36690,note_off,0,0,0,,10,,,57,127
36690,note_off,0,0,0,,12,,,59,127
36690,note_off,0,0,0,,3,,,51,127
36691,note_on,1,0,0,,12,,,59,127
36691,note_on,0,0,0,,4,,,52,127
36691,note_on,0,0,0,,8,,,80,127
36807,note_off,116,0,0,,8,,,80,127
36808,note_on,1,0,0,,5,,,77,127
36924,note_off,116,0,0,,5,,,77,127
36924,note_off,0,0,0,,4,,,52,127
36924,note_off,0,0,0,,12,,,59,127
36925,note_on,1,0,0,,4,,,52,127
36925,note_on,0,0,0,,12,,,59,127
36925,note_on,0,0,0,,5,,,77,127
37041,note_off,116,0,0,,5,,,77,127
37042,note_on,1,0,0,,4,,,76,127
37158,note_off,116,0,0,,4,,,76,127
37158,note_off,0,0,0,,12,,,59,127
37158,note_off,0,0,0,,4,,,52,127
37159,note_on,1,0,0,,4,,,52,127
37159,note_on,0,0,0,,12,,,59,127
37159,note_on,0,0,0,,4,,,76,127
37275,note_off,116,0,0,,4,,,76,127
37276,note_on,1,0,0,,2,,,74,127
37392,note_off,116,0,0,,2,,,74,127
37392,note_off,0,0,0,,12,,,59,127
37392,note_off,0,0,0,,4,,,52,127
37393,note_on,1,0,0,,5,,,53,127
37393,note_on,0,0,0,,2,,,62,127
37393,note_on,0,0,0,,10,,,57,127
37393,note_on,0,0,0,,2,,,74,127
37509,note_off,116,0,0,,2,,,74,127
37510,note_on,1,0,0,,0,,,72,127
37626,note_off,116,0,0,,0,,,72,127
37626,note_off,0,0,0,,10,,,57,127
37626,note_off,0,0,0,,2,,,62,127
37626,note_off,0,0,0,,5,,,53,127
37627,note_on,1,0,0,,5,,,53,127
37627,note_on,0,0,0,,2,,,62,127
37627,note_on,0,0,0,,10,,,57,127
37627,note_on,0,0,0,,0,,,72,127
37743,note_off,116,0,0,,0,,,72,127
37744,note_on,1,0,0,,12,,,71,127
37860,note_off,116,0,0,,12,,,71,127
37860,note_off,0,0,0,,10,,,57,127
37860,note_off,0,0,0,,2,,,62,127
37860,note_off,0,0,0,,5,,,53,127
37861,note_on,1,0,0,,10,,,57,127
37861,note_on,0,0,0,,5,,,53,127
37861,note_on,0,0,0,,2,,,62,127
37861,note_on,0,0,0,,12,,,71,127
37977,note_off,116,0,0,,12,,,71,127
37978,note_on,1,0,0,,10,,,69,127
38094,note_off,116,0,0,,10,,,69,127
38094,note_off,0,0,0,,2,,,62,127
38094,note_off,0,0,0,,5,,,53,127
38094,note_off,0,0,0,,10,,,57,127
38095,note_on,1,0,0,,4,,,52,127
38095,note_on,0,0,0,,4,,,40,127
38095,note_on,0,0,0,,12,,,71,127
38153,note_off,58,0,0,,12,,,71,127
38154,note_on,1,0,0,,10,,,69,127
38212,note_off,58,0,0,,10,,,69,127
38213,note_on,1,0,0,,12,,,71,127
38271,note_off,58,0,0,,12,,,71,127
38272,note_on,1,0,0,,10,,,69,127
38330,note_off,58,0,0,,10,,,69,127
38331,note_on,1,0,0,,12,,,71,127
38389,note_off,58,0,0,,12,,,71,127
38390,note_on,1,0,0,,10,,,69,127
38448,note_off,58,0,0,,10,,,69,127
38449,note_on,1,0,0,,12,,,71,127
38507,note_off,58,0,0,,12,,,71,127
38508,note_on,1,0,0,,10,,,69,127
38566,note_off,58,0,0,,10,,,69,127
38567,note_on,1,0,0,,8,,,68,127
38763,note_off,196,0,0,,8,,,68,127
38801,note_off,38,0,0,,4,,,40,127
38801,note_off,0,0,0,,4,,,52,127
38802,note_on,1,0,0,,2,,,50,127
38802,note_on,0,0,0,,12,,,59,127
38802,note_on,0,0,0,,8,,,56,127
38920,note_on,118,0,0,,12,,,71,127
39036,note_off,116,0,0,,12,,,71,127
39036,note_off,0,0,0,,8,,,56,127
39036,note_off,0,0,0,,12,,,59,127
39036,note_off,0,0,0,,2,,,50,127
39037,note_on,1,0,0,,2,,,50,127
39037,note_on,0,0,0,,12,,,59,127
39037,note_on,0,0,0,,8,,,56,127
39037,note_on,0,0,0,,12,,,71,127
39153,note_off,116,0,0,,12,,,71,127
39154,note_on,1,0,0,,12,,,71,127
39270,note_off,116,0,0,,12,,,71,127
39270,note_off,0,0,0,,8,,,56,127
39270,note_off,0,0,0,,12,,,59,127
39270,note_off,0,0,0,,2,,,50,127
39271,note_on,1,0,0,,8,,,56,127
39271,note_on,0,0,0,,2,,,50,127
39271,note_on,0,0,0,,12,,,59,127
39271,note_on,0,0,0,,12,,,71,127
39387,note_off,116,0,0,,12,,,71,127
39388,note_on,1,0,0,,12,,,71,127
39504,note_off,116,0,0,,12,,,71,127
39504,note_off,0,0,0,,12,,,59,127
39504,note_off,0,0,0,,2,,,50,127
39504,note_off,0,0,0,,8,,,56,127
39505,note_on,1,0,0,,4,,,52,127
39505,note_on,0,0,0,,0,,,48,127
39505,note_on,0,0,0,,10,,,57,127
39505,note_on,0,0,0,,4,,,76,127
39621,note_off,116,0,0,,4,,,76,127
39622,note_on,1,0,0,,2,,,74,127
39680,note_off,58,0,0,,2,,,74,127
39681,note_on,1,0,0,,0,,,72,127
39739,note_off,58,0,0,,0,,,72,127
39739,note_off,0,0,0,,10,,,57,127
39739,note_off,0,0,0,,0,,,48,127
39739,note_off,0,0,0,,4,,,52,127
39740,note_on,1,0,0,,10,,,57,127
39740,note_on,0,0,0,,4,,,52,127
39740,note_on,0,0,0,,0,,,48,127
39740,note_on,0,0,0,,12,,,71,127
39856,note_off,116,0,0,,12,,,71,127
39857,note_on,1,0,0,,10,,,69,127
39973,note_off,116,0,0,,10,,,69,127
39973,note_off,0,0,0,,0,,,48,127
39973,note_off,0,0,0,,4,,,52,127
39973,note_off,0,0,0,,10,,,57,127
39974,note_on,1,0,0,,4,,,52,127
39974,note_on,0,0,0,,0,,,48,127
39974,note_on,0,0,0,,10,,,57,127
39974,note_on,0,0,0,,8,,,68,127
40090,note_off,116,0,0,,8,,,68,127
40091,note_on,1,0,0,,10,,,69,127
40207,note_off,116,0,0,,10,,,57,127
40207,note_off,0,0,0,,0,,,48,127
40207,note_off,0,0,0,,4,,,52,127
40208,note_on,1,0,0,,12,,,59,127
40208,note_on,0,0,0,,2,,,50,127
40208,note_on,0,0,0,,8,,,56,127
40267,note_off,59,0,0,,10,,,69,127
40326,note_on,59,0,0,,12,,,71,127
40442,note_off,116,0,0,,12,,,71,127
40442,note_off,0,0,0,,8,,,56,127
40442,note_off,0,0,0,,2,,,50,127
40442,note_off,0,0,0,,12,,,59,127
40443,note_on,1,0,0,,8,,,56,127
40443,note_on,0,0,0,,2,,,50,127
40443,note_on,0,0,0,,12,,,59,127
40443,note_on,0,0,0,,12,,,71,127
40559,note_off,116,0,0,,12,,,71,127
40560,note_on,1,0,0,,12,,,71,127
40676,note_off,116,0,0,,12,,,71,127
40676,note_off,0,0,0,,12,,,59,127
40676,note_off,0,0,0,,2,,,50,127
40676,note_off,0,0,0,,8,,,56,127
40677,note_on,1,0,0,,2,,,50,127
40677,note_on,0,0,0,,12,,,59,127
40677,note_on,0,0,0,,8,,,56,127
40677,note_on,0,0,0,,12,,,71,127
40793,note_off,116,0,0,,12,,,71,127
40794,note_on,1,0,0,,12,,,71,127
40910,note_off,116,0,0,,12,,,71,127
40910,note_off,0,0,0,,8,,,56,127
40910,note_off,0,0,0,,12,,,59,127
40910,note_off,0,0,0,,2,,,50,127
40911,note_on,1,0,0,,10,,,57,127
40911,note_on,0,0,0,,4,,,52,127
40911,note_on,0,0,0,,0,,,48,127
40911,note_on,0,0,0,,4,,,76,127
41027,note_off,116,0,0,,4,,,76,127
41028,note_on,1,0,0,,2,,,74,127
41086,note_off,58,0,0,,2,,,74,127
41087,note_on,1,0,0,,0,,,72,127
41145,note_off,58,0,0,,0,,,72,127
41145,note_off,0,0,0,,0,,,48,127
41145,note_off,0,0,0,,4,,,52,127
41145,note_off,0,0,0,,10,,,57,127
41146,note_on,1,0,0,,4,,,52,127
41146,note_on,0,0,0,,10,,,57,127
41146,note_on,0,0,0,,0,,,48,127
41146,note_on,0,0,0,,12,,,71,127
41262,note_off,116,0,0,,12,,,71,127
41263,note_on,1,0,0,,10,,,69,127
41379,note_off,116,0,0,,10,,,69,127
41379,note_off,0,0,0,,0,,,48,127
41379,note_off,0,0,0,,10,,,57,127
41379,note_off,0,0,0,,4,,,52,127
41380,note_on,1,0,0,,4,,,52,127
41380,note_on,0,0,0,,0,,,48,127
41380,note_on,0,0,0,,10,,,57,127
41380,note_on,0,0,0,,8,,,68,127
41496,note_off,116,0,0,,8,,,68,127
41497,note_on,1,0,0,,10,,,69,127
41613,note_off,116,0,0,,10,,,57,127
41613,note_off,0,0,0,,0,,,48,127
41613,note_off,0,0,0,,4,,,52,127
41614,note_on,1,0,0,,0,,,48,127
41614,note_on,0,0,0,,10,,,57,127
41614,note_on,0,0,0,,4,,,52,127
41673,note_off,59,0,0,,10,,,69,127
41732,note_on,59,0,0,,4,,,76,127
41848,note_off,116,0,0,,4,,,76,127
41848,note_off,0,0,0,,4,,,52,127
41848,note_off,0,0,0,,10,,,57,127
41848,note_off,0,0,0,,0,,,48,127
41849,note_on,1,0,0,,4,,,52,127
41849,note_on,0,0,0,,0,,,48,127
41849,note_on,0,0,0,,10,,,57,127
41849,note_on,0,0,0,,4,,,76,127
41965,note_off,116,0,0,,4,,,76,127
41966,note_on,1,0,0,,4,,,76,127
42082,note_off,116,0,0,,4,,,76,127
42082,note_off,0,0,0,,10,,,57,127
42082,note_off,0,0,0,,0,,,48,127
42082,note_off,0,0,0,,4,,,52,127
42083,note_on,1,0,0,,0,,,48,127
42083,note_on,0,0,0,,10,,,57,127
42083,note_on,0,0,0,,4,,,52,127
42083,note_on,0,0,0,,4,,,76,127
42199,note_off,116,0,0,,4,,,76,127
42200,note_on,1,0,0,,6,,,78,127
42316,note_off,116,0,0,,6,,,78,127
42316,note_off,0,0,0,,4,,,52,127
42316,note_off,0,0,0,,10,,,57,127
42316,note_off,0,0,0,,0,,,48,127
42317,note_on,1,0,0,,7,,,55,127
42317,note_on,0,0,0,,2,,,50,127
42317,note_on,0,0,0,,12,,,47,127
42317,note_on,0,0,0,,7,,,79,127
42433,note_off,116,0,0,,7,,,79,127
42434,note_on,1,0,0,,6,,,78,127
42492,note_off,58,0,0,,6,,,78,127
42493,note_on,1,0,0,,4,,,76,127
42551,note_off,58,0,0,,4,,,76,127
42551,note_off,0,0,0,,12,,,47,127
42551,note_off,0,0,0,,2,,,50,127
42551,note_off,0,0,0,,7,,,55,127
42552,note_on,1,0,0,,7,,,55,127
42552,note_on,0,0,0,,2,,,50,127
42552,note_on,0,0,0,,12,,,47,127
42552,note_on,0,0,0,,2,,,74,127
42668,note_off,116,0,0,,2,,,74,127
42669,note_on,1,0,0,,2,,,86,127
42785,note_off,116,0,0,,2,,,86,127
42785,note_off,0,0,0,,12,,,47,127
42785,note_off,0,0,0,,2,,,50,127
42785,note_off,0,0,0,,7,,,55,127
42786,note_on,1,0,0,,12,,,47,127
42786,note_on,0,0,0,,7,,,55,127
42786,note_on,0,0,0,,2,,,50,127
42786,note_on,0,0,0,,2,,,86,127
42902,note_off,116,0,0,,2,,,86,127
42903,note_on,1,0,0,,0,,,84,127
43019,note_off,116,0,0,,0,,,84,127
43019,note_off,0,0,0,,2,,,50,127
43019,note_off,0,0,0,,7,,,55,127
43019,note_off,0,0,0,,12,,,47,127
43020,note_on,1,0,0,,7,,,55,127
43020,note_on,0,0,0,,0,,,48,127
43020,note_on,0,0,0,,0,,,84,127
43136,note_off,116,0,0,,0,,,84,127
43137,note_on,1,0,0,,12,,,83,127
43253,note_off,116,0,0,,12,,,83,127
43253,note_off,0,0,0,,0,,,48,127
43253,note_off,0,0,0,,7,,,55,127
43254,note_on,1,0,0,,7,,,55,127
43254,note_on,0,0,0,,0,,,48,127
43254,note_on,0,0,0,,12,,,83,127
43370,note_off,116,0,0,,12,,,83,127
43371,note_on,1,0,0,,10,,,81,127
43487,note_off,116,0,0,,10,,,81,127
43487,note_off,0,0,0,,0,,,48,127
43487,note_off,0,0,0,,7,,,55,127
43488,note_on,1,0,0,,1,,,49,127
43488,note_on,0,0,0,,10,,,57,127
43488,note_on,0,0,0,,7,,,55,127
43488,note_on,0,0,0,,10,,,81,127
43604,note_off,116,0,0,,10,,,81,127
43605,note_on,1,0,0,,7,,,79,127
43721,note_off,116,0,0,,7,,,79,127
43721,note_off,0,0,0,,7,,,55,127
43721,note_off,0,0,0,,10,,,57,127
43721,note_off,0,0,0,,1,,,49,127
43722,note_on,1,0,0,,2,,,50,127
43722,note_on,0,0,0,,7,,,79,127
43780,note_off,58,0,0,,7,,,79,127
43781,note_on,1,0,0,,6,,,78,127
43839,note_off,58,0,0,,6,,,78,127
43840,note_on,1,0,0,,7,,,79,127
43898,note_off,58,0,0,,7,,,79,127
43899,note_on,1,0,0,,6,,,78,127
43957,note_off,58,0,0,,6,,,78,127
43958,note_on,1,0,0,,7,,,79,127
44016,note_off,58,0,0,,7,,,79,127
44017,note_on,1,0,0,,6,,,78,127
44075,note_off,58,0,0,,6,,,78,127
44076,note_on,1,0,0,,4,,,76,127
44192,note_off,116,0,0,,4,,,76,127
44193,note_on,1,0,0,,2,,,38,127
44193,note_on,0,0,0,,2,,,74,127
44426,note_off,233,0,0,,2,,,74,127
44427,note_off,1,0,0,,2,,,38,127
44427,note_off,0,0,0,,2,,,50,127
44428,note_on,1,0,0,,0,,,48,127
44428,note_on,0,0,0,,10,,,57,127
44546,note_on,118,0,0,,10,,,81,127
44662,note_off,116,0,0,,10,,,81,127
44662,note_off,0,0,0,,10,,,57,127
44662,note_off,0,0,0,,0,,,48,127
44663,note_on,1,0,0,,10,,,57,127
44663,note_on,0,0,0,,0,,,48,127
44663,note_on,0,0,0,,10,,,81,127
44779,note_off,116,0,0,,10,,,81,127
44780,note_on,1,0,0,,10,,,81,127
44896,note_off,116,0,0,,10,,,81,127
44896,note_off,0,0,0,,0,,,48,127
44896,note_off,0,0,0,,10,,,57,127
44897,note_on,1,0,0,,10,,,57,127
44897,note_on,0,0,0,,0,,,48,127
44897,note_on,0,0,0,,10,,,81,127
45013,note_off,116,0,0,,10,,,81,127
45014,note_on,1,0,0,,10,,,81,127
45130,note_off,116,0,0,,10,,,81,127
45130,note_off,0,0,0,,0,,,48,127
45130,note_off,0,0,0,,10,,,57,127
45131,note_on,1,0,0,,7,,,55,127
45131,note_on,0,0,0,,12,,,47,127
45131,note_on,0,0,0,,2,,,86,127
45247,note_off,116,0,0,,2,,,86,127
45248,note_on,1,0,0,,0,,,84,127
45306,note_off,58,0,0,,0,,,84,127
45307,note_on,1,0,0,,12,,,83,127
45365,note_off,58,0,0,,12,,,83,127
45365,note_off,0,0,0,,12,,,47,127
45365,note_off,0,0,0,,7,,,55,127
45366,note_on,1,0,0,,12,,,47,127
45366,note_on,0,0,0,,7,,,55,127
45366,note_on,0,0,0,,10,,,81,127
45482,note_off,116,0,0,,10,,,81,127
45483,note_on,1,0,0,,7,,,79,127
45599,note_off,116,0,0,,7,,,79,127
45599,note_off,0,0,0,,7,,,55,127
45599,note_off,0,0,0,,12,,,47,127
45600,note_on,1,0,0,,7,,,55,127
45600,note_on,0,0,0,,12,,,47,127
45600,note_on,0,0,0,,6,,,78,127
45716,note_off,116,0,0,,6,,,78,127
45717,note_on,1,0,0,,7,,,79,127
45833,note_off,116,0,0,,12,,,47,127
45833,note_off,0,0,0,,7,,,55,127
45834,note_on,1,0,0,,0,,,48,127
45834,note_on,0,0,0,,10,,,57,127
45863,note_off,29,0,0,,7,,,79,127
45951,note_on,88,0,0,,10,,,81,127
46067,note_off,116,0,0,,10,,,81,127
46067,note_off,0,0,0,,10,,,57,127
46067,note_off,0,0,0,,0,,,48,127
46068,note_on,1,0,0,,10,,,57,127
46068,note_on,0,0,0,,0,,,48,127
46068,note_on,0,0,0,,10,,,81,127
46184,note_off,116,0,0,,10,,,81,127
46185,note_on,1,0,0,,10,,,81,127
46301,note_off,116,0,0,,10,,,81,127
46301,note_off,0,0,0,,0,,,48,127
46301,note_off,0,0,0,,10,,,57,127
46302,note_on,1,0,0,,0,,,48,127
46302,note_on,0,0,0,,10,,,57,127
46302,note_on,0,0,0,,10,,,81,127
46418,note_off,116,0,0,,10,,,81,127
46419,note_on,1,0,0,,10,,,81,127
46535,note_off,116,0,0,,10,,,81,127
46535,note_off,0,0,0,,10,,,57,127
46535,note_off,0,0,0,,0,,,48,127
46536,note_on,1,0,0,,7,,,55,127
46536,note_on,0,0,0,,12,,,47,127
46536,note_on,0,0,0,,2,,,86,127
46652,note_off,116,0,0,,2,,,86,127
46653,note_on,1,0,0,,0,,,84,127
46711,note_off,58,0,0,,0,,,84,127
46712,note_on,1,0,0,,12,,,83,127
46770,note_off,58,0,0,,12,,,83,127
46770,note_off,0,0,0,,12,,,47,127
46770,note_off,0,0,0,,7,,,55,127
46771,note_on,1,0,0,,7,,,55,127
46771,note_on,0,0,0,,12,,,47,127
46771,note_on,0,0,0,,10,,,81,127
46887,note_off,116,0,0,,10,,,81,127
46888,note_on,1,0,0,,7,,,79,127
47004,note_off,116,0,0,,7,,,79,127
47004,note_off,0,0,0,,12,,,47,127
47004,note_off,0,0,0,,7,,,55,127
47005,note_on,1,0,0,,7,,,55,127
47005,note_on,0,0,0,,12,,,47,127
47005,note_on,0,0,0,,6,,,78,127
47121,note_off,116,0,0,,6,,,78,127
47122,note_on,1,0,0,,7,,,79,127
47238,note_off,116,0,0,,12,,,47,127
47238,note_off,0,0,0,,7,,,55,127
47239,note_on,1,0,0,,7,,,55,127
47239,note_on,0,0,0,,0,,,48,127
47268,note_off,29,0,0,,7,,,79,127
47356,note_on,88,0,0,,4,,,76,127
47472,note_off,116,0,0,,4,,,76,127
47472,note_off,0,0,0,,0,,,48,127
47472,note_off,0,0,0,,7,,,55,127
47473,note_on,1,0,0,,0,,,48,127
47473,note_on,0,0,0,,7,,,55,127
47473,note_on,0,0,0,,4,,,76,127
47589,note_off,116,0,0,,4,,,76,127
47590,note_on,1,0,0,,4,,,76,127
47706,note_off,116,0,0,,4,,,76,127
47706,note_off,0,0,0,,7,,,55,127
47706,note_off,0,0,0,,0,,,48,127
47707,note_on,1,0,0,,0,,,48,127
47707,note_on,0,0,0,,7,,,55,127
47707,note_on,0,0,0,,4,,,76,127
47823,note_off,116,0,0,,4,,,76,127
47824,note_on,1,0,0,,6,,,78,127
47940,note_off,116,0,0,,6,,,78,127
47940,note_off,0,0,0,,7,,,55,127
47940,note_off,0,0,0,,0,,,48,127
47941,note_on,1,0,0,,12,,,47,127
47941,note_on,0,0,0,,7,,,55,127
47941,note_on,0,0,0,,7,,,79,127
48057,note_off,116,0,0,,7,,,79,127
48058,note_on,1,0,0,,6,,,78,127
48116,note_off,58,0,0,,6,,,78,127
48117,note_on,1,0,0,,4,,,76,127
48175,note_off,58,0,0,,4,,,76,127
48175,note_off,0,0,0,,7,,,55,127
48175,note_off,0,0,0,,12,,,47,127
48176,note_on,1,0,0,,7,,,55,127
48176,note_on,0,0,0,,12,,,47,127
48176,note_on,0,0,0,,2,,,74,127
48292,note_off,116,0,0,,2,,,74,127
48293,note_on,1,0,0,,0,,,84,127
48409,note_off,116,0,0,,0,,,84,127
48409,note_off,0,0,0,,12,,,47,127
48409,note_off,0,0,0,,7,,,55,127
48410,note_on,1,0,0,,12,,,47,127
48410,note_on,0,0,0,,7,,,55,127
48410,note_on,0,0,0,,0,,,84,127
48526,note_off,116,0,0,,0,,,84,127
48527,note_on,1,0,0,,12,,,83,127
48643,note_off,116,0,0,,12,,,83,127
48643,note_off,0,0,0,,7,,,55,127
48643,note_off,0,0,0,,12,,,47,127
48644,note_on,1,0,0,,0,,,48,127
48644,note_on,0,0,0,,12,,,83,127
48760,note_off,116,0,0,,12,,,83,127
48761,note_on,1,0,0,,10,,,81,127
48877,note_off,116,0,0,,10,,,81,127
48877,note_off,0,0,0,,0,,,48,127
48878,note_on,1,0,0,,2,,,50,127
48878,note_on,0,0,0,,10,,,81,127
48994,note_off,116,0,0,,10,,,81,127
48995,note_on,1,0,0,,7,,,79,127
49111,note_off,116,0,0,,7,,,79,127
49112,note_on,1,0,0,,2,,,38,127
49112,note_on,0,0,0,,7,,,79,127
49228,note_off,116,0,0,,7,,,79,127
49229,note_on,1,0,0,,6,,,78,127
49342,note_off,113,0,0,,2,,,50,127
49346,note_off,4,0,0,,6,,,78,127
49346,note_off,0,0,0,,2,,,38,127
49347,note_on,1,0,0,,7,,,43,127
49347,note_on,0,0,0,,6,,,78,127
49581,note_off,234,0,0,,7,,,43,127
49582,note_on,1,0,0,,10,,,45,127
49816,note_off,234,0,0,,10,,,45,127
49816,note_off,0,0,0,,6,,,78,127
49817,note_on,1,0,0,,12,,,47,127
49817,note_on,0,0,0,,7,,,79,127
50050,note_off,233,0,0,,7,,,79,127
50051,note_off,1,0,0,,12,,,47,127
50052,note_on,1,0,0,,0,,,48,127
50052,note_on,0,0,0,,10,,,57,127
50170,note_on,118,0,0,,10,,,81,127
50286,note_off,116,0,0,,10,,,81,127
50286,note_off,0,0,0,,10,,,57,127
50286,note_off,0,0,0,,0,,,48,127
50287,note_on,1,0,0,,10,,,57,127
50287,note_on,0,0,0,,0,,,48,127
50287,note_on,0,0,0,,10,,,81,127
50403,note_off,116,0,0,,10,,,81,127
50404,note_on,1,0,0,,10,,,81,127
50520,note_off,116,0,0,,10,,,81,127
50520,note_off,0,0,0,,0,,,48,127
50520,note_off,0,0,0,,10,,,57,127
50521,note_on,1,0,0,,0,,,48,127
50521,note_on,0,0,0,,10,,,57,127
50521,note_on,0,0,0,,10,,,81,127
50637,note_off,116,0,0,,10,,,81,127
50638,note_on,1,0,0,,10,,,81,127
50754,note_off,116,0,0,,10,,,81,127
50754,note_off,0,0,0,,10,,,57,127
50754,note_off,0,0,0,,0,,,48,127
50755,note_on,1,0,0,,7,,,55,127
50755,note_on,0,0,0,,12,,,47,127
50755,note_on,0,0,0,,2,,,86,127
50871,note_off,116,0,0,,2,,,86,127
50872,note_on,1,0,0,,0,,,84,127
50930,note_off,58,0,0,,0,,,84,127
50931,note_on,1,0,0,,12,,,83,127
50989,note_off,58,0,0,,12,,,83,127
50989,note_off,0,0,0,,12,,,47,127
50989,note_off,0,0,0,,7,,,55,127
50990,note_on,1,0,0,,7,,,55,127
50990,note_on,0,0,0,,12,,,47,127
50990,note_on,0,0,0,,10,,,81,127
51106,note_off,116,0,0,,10,,,81,127
51107,note_on,1,0,0,,7,,,79,127
51223,note_off,116,0,0,,7,,,79,127
51223,note_off,0,0,0,,12,,,47,127
51223,note_off,0,0,0,,7,,,55,127
51224,note_on,1,0,0,,7,,,55,127
51224,note_on,0,0,0,,12,,,47,127
51224,note_on,0,0,0,,6,,,78,127
51340,note_off,116,0,0,,6,,,78,127
51341,note_on,1,0,0,,7,,,79,127
51457,note_off,116,0,0,,12,,,47,127
51457,note_off,0,0,0,,7,,,55,127
51458,note_on,1,0,0,,0,,,48,127
51458,note_on,0,0,0,,10,,,57,127
51487,note_off,29,0,0,,7,,,79,127
51575,note_on,88,0,0,,10,,,81,127
51691,note_off,116,0,0,,10,,,81,127
51691,note_off,0,0,0,,10,,,57,127
51691,note_off,0,0,0,,0,,,48,127
51692,note_on,1,0,0,,0,,,48,127
51692,note_on,0,0,0,,10,,,57,127
51692,note_on,0,0,0,,10,,,81,127
51808,note_off,116,0,0,,10,,,81,127
51809,note_on,1,0,0,,10,,,81,127
51925,note_off,116,0,0,,10,,,81,127
51925,note_off,0,0,0,,10,,,57,127
51925,note_off,0,0,0,,0,,,48,127
51926,note_on,1,0,0,,0,,,48,127
51926,note_on,0,0,0,,10,,,57,127
51926,note_on,0,0,0,,10,,,81,127
52042,note_off,116,0,0,,10,,,81,127
52043,note_on,1,0,0,,10,,,81,127
52159,note_off,116,0,0,,10,,,81,127
52159,note_off,0,0,0,,10,,,57,127
52159,note_off,0,0,0,,0,,,48,127
52160,note_on,1,0,0,,7,,,55,127
52160,note_on,0,0,0,,12,,,47,127
52160,note_on,0,0,0,,2,,,86,127
52276,note_off,116,0,0,,2,,,86,127
52277,note_on,1,0,0,,0,,,84,127
52335,note_off,58,0,0,,0,,,84,127
52336,note_on,1,0,0,,12,,,83,127
52394,note_off,58,0,0,,12,,,83,127
52394,note_off,0,0,0,,12,,,47,127
52394,note_off,0,0,0,,7,,,55,127
52395,note_on,1,0,0,,7,,,55,127
52395,note_on,0,0,0,,12,,,47,127
52395,note_on,0,0,0,,10,,,81,127
52511,note_off,116,0,0,,10,,,81,127
52512,note_on,1,0,0,,7,,,79,127
52628,note_off,116,0,0,,7,,,79,127
52628,note_off,0,0,0,,12,,,47,127
52628,note_off,0,0,0,,7,,,55,127
52629,note_on,1,0,0,,7,,,55,127
52629,note_on,0,0,0,,12,,,47,127
52629,note_on,0,0,0,,6,,,78,127
52745,note_off,116,0,0,,6,,,78,127
52746,note_on,1,0,0,,7,,,79,127
52862,note_off,116,0,0,,12,,,47,127
52862,note_off,0,0,0,,7,,,55,127
52863,note_on,1,0,0,,0,,,48,127
52863,note_on,0,0,0,,7,,,55,127
52892,note_off,29,0,0,,7,,,79,127
52980,note_on,88,0,0,,4,,,76,127
53096,note_off,116,0,0,,4,,,76,127
53096,note_off,0,0,0,,7,,,55,127
53096,note_off,0,0,0,,0,,,48,127
53097,note_on,1,0,0,,0,,,48,127
53097,note_on,0,0,0,,7,,,55,127
53097,note_on,0,0,0,,4,,,76,127
53213,note_off,116,0,0,,4,,,76,127
53214,note_on,1,0,0,,4,,,76,127
53330,note_off,116,0,0,,4,,,76,127
53330,note_off,0,0,0,,7,,,55,127
53330,note_off,0,0,0,,0,,,48,127
53331,note_on,1,0,0,,0,,,48,127
53331,note_on,0,0,0,,7,,,55,127
53331,note_on,0,0,0,,4,,,76,127
53447,note_off,116,0,0,,4,,,76,127
53448,note_on,1,0,0,,6,,,78,127
53564,note_off,116,0,0,,6,,,78,127
53564,note_off,0,0,0,,7,,,55,127
53564,note_off,0,0,0,,0,,,48,127
53565,note_on,1,0,0,,7,,,55,127
53565,note_on,0,0,0,,12,,,47,127
53565,note_on,0,0,0,,7,,,79,127
53681,note_off,116,0,0,,7,,,79,127
53682,note_on,1,0,0,,6,,,78,127
53740,note_off,58,0,0,,6,,,78,127
53741,note_on,1,0,0,,4,,,76,127
53799,note_off,58,0,0,,4,,,76,127
53799,note_off,0,0,0,,12,,,47,127
53799,note_off,0,0,0,,7,,,55,127
53800,note_on,1,0,0,,7,,,55,127
53800,note_on,0,0,0,,12,,,47,127
53800,note_on,0,0,0,,2,,,74,127
53916,note_off,116,0,0,,2,,,74,127
53917,note_on,1,0,0,,0,,,84,127
54033,note_off,116,0,0,,0,,,84,127
54033,note_off,0,0,0,,12,,,47,127
54033,note_off,0,0,0,,7,,,55,127
54034,note_on,1,0,0,,7,,,55,127
54034,note_on,0,0,0,,12,,,47,127
54034,note_on,0,0,0,,0,,,84,127
54150,note_off,116,0,0,,0,,,84,127
54151,note_on,1,0,0,,12,,,83,127
54267,note_off,116,0,0,,12,,,83,127
54267,note_off,0,0,0,,12,,,47,127
54267,note_off,0,0,0,,7,,,55,127
54268,note_on,1,0,0,,0,,,48,127
54268,note_on,0,0,0,,12,,,83,127
54384,note_off,116,0,0,,12,,,83,127
54385,note_on,1,0,0,,10,,,81,127
54501,note_off,116,0,0,,10,,,81,127
54501,note_off,0,0,0,,0,,,48,127
54502,note_on,1,0,0,,2,,,50,127
54502,note_on,0,0,0,,10,,,81,127
54618,note_off,116,0,0,,10,,,81,127
54619,note_on,1,0,0,,7,,,79,127
54735,note_off,116,0,0,,7,,,79,127
54736,note_on,1,0,0,,2,,,38,127
54736,note_on,0,0,0,,7,,,79,127
54852,note_off,116,0,0,,7,,,79,127
54853,note_on,1,0,0,,6,,,78,127
54951,note_off,98,0,0,,6,,,78,127
54966,note_off,15,0,0,,2,,,50,127
54970,note_off,4,0,0,,2,,,38,127
54971,note_on,1,0,0,,7,,,55,127
54971,note_on,0,0,0,,7,,,79,127
55087,note_off,116,0,0,,7,,,79,127
55088,note_on,1,0,0,,12,,,83,127
55204,note_off,116,0,0,,12,,,83,127
55204,note_off,0,0,0,,7,,,55,127
55205,note_on,1,0,0,,10,,,57,127
55205,note_on,0,0,0,,12,,,83,127
55321,note_off,116,0,0,,12,,,83,127
55322,note_on,1,0,0,,2,,,86,127
55438,note_off,116,0,0,,2,,,86,127
55438,note_off,0,0,0,,10,,,57,127
55439,note_on,1,0,0,,12,,,59,127
55439,note_on,0,0,0,,2,,,86,127
55555,note_off,116,0,0,,2,,,86,127
55556,note_on,1,0,0,,0,,,84,127
55672,note_off,116,0,0,,0,,,84,127
55672,note_off,0,0,0,,12,,,59,127
55673,note_on,1,0,0,,0,,,60,127
55673,note_on,0,0,0,,0,,,84,127
55789,note_off,116,0,0,,0,,,84,127
55790,note_on,1,0,0,,12,,,83,127
55906,note_off,116,0,0,,12,,,83,127
55906,note_off,0,0,0,,0,,,60,127
55907,note_on,1,0,0,,2,,,62,127
55907,note_on,0,0,0,,12,,,83,127
56023,note_off,116,0,0,,12,,,83,127
56024,note_on,1,0,0,,10,,,81,127
56140,note_off,116,0,0,,10,,,81,127
56141,note_on,1,0,0,,2,,,50,127
56141,note_on,0,0,0,,7,,,79,127
56257,note_off,116,0,0,,7,,,79,127
56258,note_on,1,0,0,,6,,,78,127
56371,note_off,113,0,0,,2,,,62,127
56375,note_off,4,0,0,,6,,,78,127
56375,note_off,0,0,0,,2,,,50,127
56376,note_on,1,0,0,,7,,,55,127
56376,note_on,0,0,0,,7,,,79,127
56492,note_off,116,0,0,,7,,,79,127
56493,note_on,1,0,0,,12,,,83,127
56609,note_off,116,0,0,,12,,,83,127
56609,note_off,0,0,0,,7,,,55,127
56610,note_on,1,0,0,,10,,,57,127
56610,note_on,0,0,0,,12,,,83,127
56726,note_off,116,0,0,,12,,,83,127
56727,note_on,1,0,0,,2,,,86,127
56843,note_off,116,0,0,,2,,,86,127
56843,note_off,0,0,0,,10,,,57,127
56844,note_on,1,0,0,,12,,,59,127
56844,note_on,0,0,0,,2,,,86,127
56960,note_off,116,0,0,,2,,,86,127
56961,note_on,1,0,0,,0,,,84,127
57077,note_off,116,0,0,,0,,,84,127
57077,note_off,0,0,0,,12,,,59,127
57078,note_on,1,0,0,,0,,,60,127
57078,note_on,0,0,0,,0,,,84,127
57194,note_off,116,0,0,,0,,,84,127
57195,note_on,1,0,0,,12,,,83,127
57311,note_off,116,0,0,,12,,,83,127
57311,note_off,0,0,0,,0,,,60,127
57312,note_on,1,0,0,,2,,,62,127
57312,note_on,0,0,0,,12,,,83,127
57428,note_off,116,0,0,,12,,,83,127
57429,note_on,1,0,0,,10,,,81,127
57545,note_off,116,0,0,,10,,,81,127
57546,note_on,1,0,0,,2,,,50,127
57546,note_on,0,0,0,,7,,,79,127
57662,note_off,116,0,0,,7,,,79,127
57663,note_off,1,0,0,,2,,,62,127
57663,note_on,0,0,0,,6,,,78,127
57779,note_off,116,0,0,,6,,,78,127
57779,note_off,0,0,0,,2,,,50,127
57780,note_on,1,0,0,,7,,,43,127
57780,note_on,0,0,0,,7,,,79,127
57896,note_off,116,0,0,,7,,,79,127
57897,note_on,1,0,0,,6,,,78,127
58013,note_off,116,0,0,,6,,,78,127
58013,note_off,0,0,0,,7,,,43,127
58014,note_on,1,0,0,,10,,,45,127
58014,note_on,0,0,0,,4,,,76,127
58130,note_off,116,0,0,,4,,,76,127
58131,note_on,1,0,0,,2,,,74,127
58247,note_off,116,0,0,,2,,,74,127
58247,note_off,0,0,0,,10,,,45,127
58248,note_on,1,0,0,,12,,,47,127
58248,note_on,0,0,0,,0,,,72,127
58364,note_off,116,0,0,,0,,,72,127
58365,note_on,1,0,0,,12,,,71,127
58481,note_off,116,0,0,,12,,,71,127
58481,note_off,0,0,0,,12,,,47,127
58482,note_on,1,0,0,,0,,,48,127
58482,note_on,0,0,0,,10,,,69,127
58598,note_off,116,0,0,,10,,,69,127
58599,note_on,1,0,0,,12,,,71,127
58657,note_off,58,0,0,,12,,,71,127
58658,note_on,1,0,0,,0,,,72,127
58716,note_off,58,0,0,,0,,,72,127
58716,note_off,0,0,0,,0,,,48,127
58717,note_on,1,0,0,,2,,,50,127
58717,note_on,0,0,0,,12,,,71,127
58833,note_off,116,0,0,,12,,,71,127
58834,note_on,1,0,0,,10,,,69,127
58950,note_off,116,0,0,,10,,,69,127
58951,note_on,1,0,0,,2,,,38,127
58951,note_on,0,0,0,,7,,,67,127
59067,note_off,116,0,0,,7,,,67,127
59068,note_on,1,0,0,,6,,,66,127
59181,note_off,113,0,0,,2,,,50,127
59185,note_off,4,0,0,,6,,,66,127
59185,note_off,0,0,0,,2,,,38,127
59186,note_on,1,0,0,,7,,,43,127
59186,note_on,0,0,0,,10,,,69,127
59244,note_off,58,0,0,,10,,,69,127
59245,note_on,1,0,0,,7,,,67,127
59303,note_off,58,0,0,,7,,,67,127
59304,note_on,1,0,0,,10,,,69,127
59362,note_off,58,0,0,,10,,,69,127
59363,note_on,1,0,0,,7,,,67,127
61178,note_off,1815,0,0,,7,,,67,127
61178,note_off,0,0,0,,7,,,43,127
62976,end_of_track,1798,1,0,,,,,,
