tick,type,time,meta,track,program,channel,pitch,tempo,note,velocity
0,copyright,0,1,0,,,,,,
0,program_change,0,0,0,6,0,,,,
0,pitchwheel,0,0,0,,0,0,,,
0,program_change,0,0,0,6,1,,,,
0,pitchwheel,0,0,0,,1,-590,,,
0,program_change,0,0,0,6,2,,,,
0,pitchwheel,0,0,0,,2,-272,,,
0,program_change,0,0,0,6,3,,,,
0,pitchwheel,0,0,0,,3,-353,,,
0,program_change,0,0,0,6,4,,,,
0,pitchwheel,0,0,0,,4,-560,,,
0,program_change,0,0,0,6,5,,,,
0,pitchwheel,0,0,0,,5,-80,,,
0,program_change,0,0,0,6,6,,,,
0,pitchwheel,0,0,0,,6,-625,,,
0,program_change,0,0,0,6,7,,,,
0,pitchwheel,0,0,0,,7,-130,,,
0,program_change,0,0,0,6,8,,,,
0,pitchwheel,0,0,0,,8,-512,,,
0,program_change,0,0,0,6,10,,,,
0,pitchwheel,0,0,0,,10,-464,,,
0,program_change,0,0,0,6,11,,,,
0,pitchwheel,0,0,0,,11,-208,,,
0,program_change,0,0,0,6,12,,,,
0,pitchwheel,0,0,0,,12,-553,,,
0,set_tempo,0,1,0,,,,500000,,
148,note_on,148,0,0,,7,,,55,127
148,note_on,0,0,0,,10,,,81,127
197,note_on,49,0,0,,7,,,79,127
217,note_off,20,0,0,,10,,,81,127
246,note_on,29,0,0,,10,,,81,127
266,note_off,20,0,0,,7,,,79,127
294,note_off,28,0,0,,7,,,55,127
296,note_on,2,0,0,,12,,,59,127
296,note_on,0,0,0,,7,,,79,127
316,note_off,20,0,0,,10,,,81,127
345,note_on,29,0,0,,10,,,81,127
365,note_off,20,0,0,,7,,,79,127
394,note_on,29,0,0,,7,,,79,127
414,note_off,20,0,0,,10,,,81,127
442,note_off,28,0,0,,12,,,59,127
444,note_on,2,0,0,,7,,,55,127
444,note_on,0,0,0,,10,,,81,127
464,note_off,20,0,0,,7,,,79,127
493,note_on,29,0,0,,7,,,79,127
513,note_off,20,0,0,,10,,,81,127
590,note_off,77,0,0,,7,,,79,127
590,note_off,0,0,0,,7,,,55,127
592,note_on,2,0,0,,2,,,62,127
592,note_on,0,0,0,,12,,,83,127
641,note_on,49,0,0,,10,,,81,127
661,note_off,20,0,0,,12,,,83,127
690,note_on,29,0,0,,12,,,83,127
710,note_off,20,0,0,,10,,,81,127
738,note_off,28,0,0,,2,,,62,127
740,note_on,2,0,0,,6,,,54,127
740,note_on,0,0,0,,10,,,81,127
760,note_off,20,0,0,,12,,,83,127
789,note_on,29,0,0,,12,,,83,127
809,note_off,20,0,0,,10,,,81,127
838,note_on,29,0,0,,10,,,81,127
858,note_off,20,0,0,,12,,,83,127
886,note_off,28,0,0,,6,,,54,127
888,note_on,2,0,0,,2,,,50,127
888,note_on,0,0,0,,12,,,83,127
908,note_off,20,0,0,,10,,,81,127
937,note_on,29,0,0,,10,,,81,127
957,note_off,20,0,0,,12,,,83,127
1034,note_off,77,0,0,,10,,,81,127
1034,note_off,0,0,0,,2,,,50,127
1036,note_on,2,0,0,,7,,,55,127
1036,note_on,0,0,0,,12,,,83,127
1182,note_off,146,0,0,,12,,,83,127
1184,note_on,2,0,0,,7,,,79,127
1330,note_off,146,0,0,,7,,,79,127
1332,note_on,2,0,0,,2,,,74,127
1478,note_off,146,0,0,,2,,,74,127
1478,note_off,0,0,0,,7,,,55,127
1480,note_on,2,0,0,,6,,,54,127
1480,note_on,0,0,0,,0,,,84,127
1626,note_off,146,0,0,,0,,,84,127
1628,note_on,2,0,0,,10,,,81,127
1774,note_off,146,0,0,,10,,,81,127
1776,note_on,2,0,0,,2,,,74,127
1922,note_off,146,0,0,,2,,,74,127
1922,note_off,0,0,0,,6,,,54,127
1924,note_on,2,0,0,,7,,,55,127
1924,note_on,0,0,0,,0,,,84,127
1973,note_on,49,0,0,,12,,,83,127
1993,note_off,20,0,0,,0,,,84,127
2022,note_on,29,0,0,,0,,,84,127
2042,note_off,20,0,0,,12,,,83,127
2070,note_off,28,0,0,,7,,,55,127
2072,note_on,2,0,0,,12,,,59,127
2072,note_on,0,0,0,,12,,,83,127
2092,note_off,20,0,0,,0,,,84,127
2121,note_on,29,0,0,,0,,,84,127
2141,note_off,20,0,0,,12,,,83,127
2170,note_on,29,0,0,,12,,,83,127
2190,note_off,20,0,0,,0,,,84,127
2218,note_off,28,0,0,,12,,,59,127
2220,note_on,2,0,0,,7,,,55,127
2220,note_on,0,0,0,,0,,,84,127
2240,note_off,20,0,0,,12,,,83,127
2269,note_on,29,0,0,,12,,,83,127
2289,note_off,20,0,0,,0,,,84,127
2366,note_off,77,0,0,,7,,,55,127
2368,note_on,2,0,0,,2,,,62,127
2416,note_off,48,0,0,,12,,,83,127
2418,note_on,2,0,0,,10,,,81,127
2467,note_on,49,0,0,,12,,,83,127
2487,note_off,20,0,0,,10,,,81,127
2515,note_off,28,0,0,,2,,,62,127
2517,note_on,2,0,0,,6,,,54,127
2517,note_on,0,0,0,,10,,,81,127
2537,note_off,20,0,0,,12,,,83,127
2566,note_on,29,0,0,,12,,,83,127
2586,note_off,20,0,0,,10,,,81,127
2615,note_on,29,0,0,,10,,,81,127
2635,note_off,20,0,0,,12,,,83,127
2663,note_off,28,0,0,,6,,,54,127
2665,note_on,2,0,0,,2,,,50,127
2665,note_on,0,0,0,,12,,,83,127
2685,note_off,20,0,0,,10,,,81,127
2714,note_on,29,0,0,,10,,,81,127
2734,note_off,20,0,0,,12,,,83,127
2811,note_off,77,0,0,,10,,,81,127
2811,note_off,0,0,0,,2,,,50,127
2813,note_on,2,0,0,,7,,,55,127
2813,note_on,0,0,0,,12,,,83,127
2959,note_off,146,0,0,,12,,,83,127
2961,note_on,2,0,0,,7,,,79,127
3107,note_off,146,0,0,,7,,,79,127
3109,note_on,2,0,0,,2,,,74,127
3255,note_off,146,0,0,,2,,,74,127
3255,note_off,0,0,0,,7,,,55,127
3257,note_on,2,0,0,,6,,,54,127
3257,note_on,0,0,0,,0,,,84,127
3403,note_off,146,0,0,,0,,,84,127
3405,note_on,2,0,0,,10,,,81,127
3551,note_off,146,0,0,,10,,,81,127
3553,note_on,2,0,0,,2,,,74,127
3699,note_off,146,0,0,,2,,,74,127
3699,note_off,0,0,0,,6,,,54,127
3701,note_on,2,0,0,,7,,,55,127
3701,note_on,0,0,0,,12,,,83,127
3847,note_off,146,0,0,,12,,,83,127
3849,note_on,2,0,0,,7,,,79,127
3995,note_off,146,0,0,,7,,,79,127
3997,note_on,2,0,0,,6,,,78,127
4143,note_off,146,0,0,,6,,,78,127
4143,note_off,0,0,0,,7,,,55,127
4145,note_on,2,0,0,,12,,,47,127
4145,note_on,0,0,0,,6,,,78,127
4291,note_off,146,0,0,,6,,,78,127
4293,note_on,2,0,0,,4,,,76,127
4439,note_off,146,0,0,,4,,,76,127
4441,note_on,2,0,0,,2,,,74,127
4587,note_off,146,0,0,,2,,,74,127
4587,note_off,0,0,0,,12,,,47,127
4589,note_on,2,0,0,,0,,,48,127
4589,note_on,0,0,0,,2,,,74,127
4735,note_off,146,0,0,,2,,,74,127
4737,note_on,2,0,0,,0,,,72,127
4883,note_off,146,0,0,,0,,,72,127
4885,note_on,2,0,0,,12,,,71,127
5031,note_off,146,0,0,,12,,,71,127
5031,note_off,0,0,0,,0,,,48,127
5033,note_on,2,0,0,,2,,,50,127
5033,note_on,0,0,0,,0,,,72,127
5179,note_off,146,0,0,,0,,,72,127
5181,note_on,2,0,0,,10,,,81,127
5327,note_off,146,0,0,,10,,,81,127
5329,note_on,2,0,0,,0,,,72,127
5475,note_off,146,0,0,,0,,,72,127
5475,note_off,0,0,0,,2,,,50,127
5477,note_on,2,0,0,,7,,,55,127
5477,note_on,0,0,0,,12,,,71,127
5592,note_off,115,0,0,,12,,,71,127
5624,note_on,32,0,0,,7,,,79,127
5770,note_off,146,0,0,,7,,,79,127
5772,note_on,2,0,0,,6,,,78,127
5918,note_off,146,0,0,,7,,,55,127
5920,note_on,2,0,0,,12,,,47,127
6065,note_off,145,0,0,,6,,,78,127
6068,note_on,3,0,0,,4,,,76,127
6214,note_off,146,0,0,,4,,,76,127
6216,note_on,2,0,0,,2,,,74,127
6362,note_off,146,0,0,,12,,,47,127
6364,note_on,2,0,0,,0,,,48,127
6509,note_off,145,0,0,,2,,,74,127
6512,note_on,3,0,0,,0,,,72,127
6658,note_off,146,0,0,,0,,,72,127
6660,note_on,2,0,0,,12,,,71,127
6806,note_off,146,0,0,,12,,,71,127
6806,note_off,0,0,0,,0,,,48,127
6808,note_on,2,0,0,,2,,,50,127
6808,note_on,0,0,0,,0,,,72,127
6954,note_off,146,0,0,,0,,,72,127
6956,note_on,2,0,0,,10,,,81,127
7102,note_off,146,0,0,,10,,,81,127
7104,note_on,2,0,0,,0,,,72,127
7250,note_off,146,0,0,,0,,,72,127
7250,note_off,0,0,0,,2,,,50,127
7252,note_on,2,0,0,,7,,,55,127
7252,note_on,0,0,0,,12,,,71,127
7398,note_off,146,0,0,,7,,,55,127
7400,note_on,2,0,0,,12,,,59,127
7546,note_off,146,0,0,,12,,,59,127
7546,note_off,0,0,0,,12,,,71,127
7548,note_on,2,0,0,,7,,,55,127
7694,note_off,146,0,0,,7,,,55,127
7696,note_on,2,0,0,,2,,,62,127
7696,note_on,0,0,0,,4,,,76,127
7745,note_on,49,0,0,,2,,,74,127
7765,note_off,20,0,0,,4,,,76,127
7794,note_on,29,0,0,,4,,,76,127
7814,note_off,20,0,0,,2,,,74,127
7842,note_off,28,0,0,,2,,,62,127
7844,note_on,2,0,0,,6,,,54,127
7844,note_on,0,0,0,,2,,,74,127
7864,note_off,20,0,0,,4,,,76,127
7893,note_on,29,0,0,,4,,,76,127
7913,note_off,20,0,0,,2,,,74,127
7942,note_on,29,0,0,,2,,,74,127
7962,note_off,20,0,0,,4,,,76,127
7990,note_off,28,0,0,,6,,,54,127
7992,note_on,2,0,0,,2,,,50,127
7992,note_on,0,0,0,,4,,,76,127
8012,note_off,20,0,0,,2,,,74,127
8041,note_on,29,0,0,,2,,,74,127
8061,note_off,20,0,0,,4,,,76,127
8090,note_on,29,0,0,,4,,,76,127
8110,note_off,20,0,0,,2,,,74,127
8138,note_off,28,0,0,,2,,,50,127
8140,note_on,2,0,0,,7,,,55,127
8140,note_on,0,0,0,,2,,,74,127
8160,note_off,20,0,0,,4,,,76,127
8189,note_on,29,0,0,,4,,,76,127
8209,note_off,20,0,0,,2,,,74,127
8238,note_on,29,0,0,,2,,,74,127
8258,note_off,20,0,0,,4,,,76,127
8286,note_off,28,0,0,,7,,,55,127
8288,note_on,2,0,0,,12,,,59,127
8288,note_on,0,0,0,,4,,,76,127
8308,note_off,20,0,0,,2,,,74,127
8337,note_on,29,0,0,,2,,,74,127
8357,note_off,20,0,0,,4,,,76,127
8386,note_on,29,0,0,,4,,,76,127
8406,note_off,20,0,0,,2,,,74,127
8434,note_off,28,0,0,,12,,,59,127
8436,note_on,2,0,0,,7,,,55,127
8436,note_on,0,0,0,,2,,,74,127
8456,note_off,20,0,0,,4,,,76,127
8485,note_on,29,0,0,,4,,,76,127
8505,note_off,20,0,0,,2,,,74,127
8534,note_on,29,0,0,,2,,,74,127
8554,note_off,20,0,0,,4,,,76,127
8582,note_off,28,0,0,,7,,,55,127
8584,note_on,2,0,0,,2,,,62,127
8584,note_on,0,0,0,,4,,,76,127
8604,note_off,20,0,0,,2,,,74,127
8633,note_on,29,0,0,,2,,,74,127
8653,note_off,20,0,0,,4,,,76,127
8682,note_on,29,0,0,,4,,,76,127
8702,note_off,20,0,0,,2,,,74,127
8730,note_off,28,0,0,,2,,,62,127
8732,note_on,2,0,0,,6,,,54,127
8732,note_on,0,0,0,,2,,,74,127
8752,note_off,20,0,0,,4,,,76,127
8781,note_on,29,0,0,,4,,,76,127
8801,note_off,20,0,0,,2,,,74,127
8830,note_on,29,0,0,,2,,,74,127
8850,note_off,20,0,0,,4,,,76,127
8878,note_off,28,0,0,,6,,,54,127
8880,note_on,2,0,0,,2,,,50,127
8880,note_on,0,0,0,,4,,,76,127
8900,note_off,20,0,0,,2,,,74,127
8929,note_on,29,0,0,,2,,,74,127
8949,note_off,20,0,0,,4,,,76,127
8978,note_on,29,0,0,,4,,,76,127
8998,note_off,20,0,0,,2,,,74,127
9026,note_off,28,0,0,,2,,,50,127
9028,note_on,2,0,0,,2,,,62,127
9028,note_on,0,0,0,,7,,,55,127
9028,note_on,0,0,0,,2,,,74,127
9048,note_off,20,0,0,,4,,,76,127
9174,note_off,126,0,0,,2,,,74,127
9176,note_on,2,0,0,,12,,,83,127
9322,note_off,146,0,0,,12,,,83,127
9324,note_on,2,0,0,,10,,,81,127
9470,note_off,146,0,0,,10,,,81,127
9470,note_off,0,0,0,,7,,,55,127
9470,note_off,0,0,0,,2,,,62,127
9472,note_on,2,0,0,,2,,,62,127
9472,note_on,0,0,0,,6,,,54,127
9472,note_on,0,0,0,,10,,,81,127
9618,note_off,146,0,0,,10,,,81,127
9620,note_on,2,0,0,,7,,,79,127
9766,note_off,146,0,0,,7,,,79,127
9768,note_on,2,0,0,,6,,,78,127
9914,note_off,146,0,0,,6,,,54,127
9914,note_off,0,0,0,,2,,,62,127
9916,note_on,2,0,0,,4,,,52,127
9916,note_on,0,0,0,,2,,,62,127
9990,note_off,74,0,0,,6,,,78,127
10064,note_on,74,0,0,,10,,,81,127
10210,note_off,146,0,0,,10,,,81,127
10212,note_on,2,0,0,,7,,,79,127
10358,note_off,146,0,0,,7,,,79,127
10358,note_off,0,0,0,,2,,,62,127
10358,note_off,0,0,0,,4,,,52,127
10360,note_on,2,0,0,,1,,,61,127
10360,note_on,0,0,0,,10,,,57,127
10360,note_on,0,0,0,,7,,,79,127
10506,note_off,146,0,0,,7,,,79,127
10508,note_on,2,0,0,,6,,,78,127
10654,note_off,146,0,0,,6,,,78,127
10656,note_on,2,0,0,,4,,,76,127
10802,note_off,146,0,0,,10,,,57,127
10802,note_off,0,0,0,,1,,,61,127
10804,note_on,2,0,0,,2,,,50,127
10804,note_on,0,0,0,,2,,,62,127
10878,note_off,74,0,0,,4,,,76,127
10952,note_on,74,0,0,,6,,,78,127
11098,note_off,146,0,0,,6,,,78,127
11100,note_on,2,0,0,,7,,,79,127
11246,note_off,146,0,0,,7,,,79,127
11246,note_off,0,0,0,,2,,,62,127
11246,note_off,0,0,0,,2,,,50,127
11248,note_on,2,0,0,,10,,,57,127
11248,note_on,0,0,0,,1,,,49,127
11248,note_on,0,0,0,,10,,,81,127
11394,note_off,146,0,0,,10,,,81,127
11396,note_on,2,0,0,,10,,,81,127
11542,note_off,146,0,0,,10,,,81,127
11544,note_on,2,0,0,,10,,,81,127
11690,note_off,146,0,0,,10,,,81,127
11690,note_off,0,0,0,,1,,,49,127
11690,note_off,0,0,0,,10,,,57,127
11692,note_on,2,0,0,,10,,,57,127
11692,note_on,0,0,0,,2,,,50,127
11692,note_on,0,0,0,,10,,,81,127
11838,note_off,146,0,0,,10,,,81,127
11840,note_on,2,0,0,,6,,,78,127
11986,note_off,146,0,0,,6,,,78,127
11988,note_on,2,0,0,,10,,,81,127
12134,note_off,146,0,0,,10,,,81,127
12134,note_off,0,0,0,,2,,,50,127
12134,note_off,0,0,0,,10,,,57,127
12136,note_on,2,0,0,,10,,,57,127
12136,note_on,0,0,0,,1,,,49,127
12136,note_on,0,0,0,,10,,,81,127
12282,note_off,146,0,0,,10,,,81,127
12284,note_on,2,0,0,,10,,,81,127
12430,note_off,146,0,0,,10,,,81,127
12432,note_on,2,0,0,,10,,,81,127
12578,note_off,146,0,0,,10,,,81,127
12578,note_off,0,0,0,,1,,,49,127
12578,note_off,0,0,0,,10,,,57,127
12580,note_on,2,0,0,,10,,,57,127
12580,note_on,0,0,0,,2,,,50,127
12580,note_on,0,0,0,,10,,,81,127
12726,note_off,146,0,0,,10,,,81,127
12728,note_on,2,0,0,,6,,,78,127
12874,note_off,146,0,0,,6,,,78,127
12876,note_on,2,0,0,,10,,,81,127
13022,note_off,146,0,0,,10,,,81,127
13022,note_off,0,0,0,,2,,,50,127
13022,note_off,0,0,0,,10,,,57,127
13024,note_on,2,0,0,,10,,,57,127
13024,note_on,0,0,0,,1,,,49,127
13024,note_on,0,0,0,,10,,,81,127
13170,note_off,146,0,0,,10,,,81,127
13172,note_on,2,0,0,,10,,,81,127
13318,note_off,146,0,0,,10,,,81,127
13320,note_on,2,0,0,,10,,,81,127
13394,note_off,74,0,0,,1,,,49,127
13394,note_off,0,0,0,,10,,,57,127
13466,note_off,72,0,0,,10,,,81,127
13468,note_on,2,0,0,,10,,,81,127
13616,note_on,148,0,0,,2,,,50,127
13762,note_off,146,0,0,,2,,,50,127
13762,note_off,0,0,0,,10,,,81,127
13764,note_on,2,0,0,,4,,,52,127
13910,note_off,146,0,0,,4,,,52,127
13912,note_on,2,0,0,,6,,,54,127
13912,note_on,0,0,0,,4,,,88,127
13961,note_on,49,0,0,,2,,,86,127
13981,note_off,20,0,0,,4,,,88,127
14010,note_on,29,0,0,,4,,,88,127
14030,note_off,20,0,0,,2,,,86,127
14058,note_off,28,0,0,,6,,,54,127
14060,note_on,2,0,0,,2,,,50,127
14060,note_on,0,0,0,,2,,,86,127
14080,note_off,20,0,0,,4,,,88,127
14109,note_on,29,0,0,,4,,,88,127
14129,note_off,20,0,0,,2,,,86,127
14158,note_on,29,0,0,,2,,,86,127
14178,note_off,20,0,0,,4,,,88,127
14206,note_off,28,0,0,,2,,,50,127
14208,note_on,2,0,0,,6,,,54,127
14208,note_on,0,0,0,,4,,,88,127
14228,note_off,20,0,0,,2,,,86,127
14257,note_on,29,0,0,,2,,,86,127
14277,note_off,20,0,0,,4,,,88,127
14306,note_on,29,0,0,,4,,,88,127
14326,note_off,20,0,0,,2,,,86,127
14354,note_off,28,0,0,,6,,,54,127
14356,note_on,2,0,0,,7,,,55,127
14356,note_on,0,0,0,,2,,,86,127
14376,note_off,20,0,0,,4,,,88,127
14405,note_on,29,0,0,,4,,,88,127
14425,note_off,20,0,0,,2,,,86,127
14454,note_on,29,0,0,,2,,,86,127
14474,note_off,20,0,0,,4,,,88,127
14502,note_off,28,0,0,,7,,,55,127
14504,note_on,2,0,0,,4,,,52,127
14504,note_on,0,0,0,,4,,,88,127
14524,note_off,20,0,0,,2,,,86,127
14553,note_on,29,0,0,,2,,,86,127
14573,note_off,20,0,0,,4,,,88,127
14602,note_on,29,0,0,,4,,,88,127
14622,note_off,20,0,0,,2,,,86,127
14650,note_off,28,0,0,,4,,,52,127
14652,note_on,2,0,0,,7,,,55,127
14652,note_on,0,0,0,,2,,,86,127
14672,note_off,20,0,0,,4,,,88,127
14701,note_on,29,0,0,,4,,,88,127
14721,note_off,20,0,0,,2,,,86,127
14750,note_on,29,0,0,,2,,,86,127
14770,note_off,20,0,0,,4,,,88,127
14798,note_off,28,0,0,,7,,,55,127
14800,note_on,2,0,0,,10,,,57,127
14800,note_on,0,0,0,,4,,,88,127
14820,note_off,20,0,0,,2,,,86,127
14849,note_on,29,0,0,,2,,,86,127
14869,note_off,20,0,0,,4,,,88,127
14898,note_on,29,0,0,,4,,,88,127
14918,note_off,20,0,0,,2,,,86,127
14946,note_off,28,0,0,,10,,,57,127
14948,note_on,2,0,0,,6,,,54,127
14948,note_on,0,0,0,,2,,,86,127
14968,note_off,20,0,0,,4,,,88,127
14997,note_on,29,0,0,,4,,,88,127
15017,note_off,20,0,0,,2,,,86,127
15046,note_on,29,0,0,,2,,,86,127
15066,note_off,20,0,0,,4,,,88,127
15094,note_off,28,0,0,,6,,,54,127
15096,note_on,2,0,0,,10,,,57,127
15096,note_on,0,0,0,,4,,,88,127
15116,note_off,20,0,0,,2,,,86,127
15145,note_on,29,0,0,,2,,,86,127
15165,note_off,20,0,0,,4,,,88,127
15194,note_on,29,0,0,,4,,,88,127
15214,note_off,20,0,0,,2,,,86,127
15242,note_off,28,0,0,,10,,,57,127
15244,note_on,2,0,0,,12,,,59,127
15244,note_on,0,0,0,,2,,,86,127
15264,note_off,20,0,0,,4,,,88,127
15293,note_on,29,0,0,,4,,,88,127
15313,note_off,20,0,0,,2,,,86,127
15342,note_on,29,0,0,,2,,,86,127
15362,note_off,20,0,0,,4,,,88,127
15390,note_off,28,0,0,,12,,,59,127
15392,note_on,2,0,0,,7,,,55,127
15392,note_on,0,0,0,,4,,,88,127
15412,note_off,20,0,0,,2,,,86,127
15441,note_on,29,0,0,,2,,,86,127
15461,note_off,20,0,0,,4,,,88,127
15490,note_on,29,0,0,,4,,,88,127
15510,note_off,20,0,0,,2,,,86,127
15538,note_off,28,0,0,,7,,,55,127
15540,note_on,2,0,0,,12,,,59,127
15540,note_on,0,0,0,,2,,,86,127
15560,note_off,20,0,0,,4,,,88,127
15686,note_off,126,0,0,,2,,,86,127
15686,note_off,0,0,0,,12,,,59,127
15688,note_on,2,0,0,,1,,,61,127
15688,note_on,0,0,0,,4,,,76,127
15834,note_off,146,0,0,,1,,,61,127
15836,note_on,2,0,0,,10,,,57,127
15982,note_off,146,0,0,,10,,,57,127
15984,note_on,2,0,0,,1,,,61,127
16130,note_off,146,0,0,,1,,,61,127
16130,note_off,0,0,0,,4,,,76,127
16132,note_on,2,0,0,,2,,,62,127
16132,note_on,0,0,0,,6,,,78,127
16278,note_off,146,0,0,,6,,,78,127
16280,note_on,2,0,0,,10,,,81,127
16426,note_off,146,0,0,,10,,,81,127
16426,note_off,0,0,0,,2,,,62,127
16428,note_on,2,0,0,,6,,,54,127
16428,note_on,0,0,0,,2,,,74,127
16574,note_off,146,0,0,,2,,,74,127
16574,note_off,0,0,0,,6,,,54,127
16576,note_on,2,0,0,,7,,,55,127
16576,note_on,0,0,0,,4,,,76,127
16722,note_off,146,0,0,,4,,,76,127
16724,note_on,2,0,0,,2,,,74,127
16870,note_off,146,0,0,,2,,,74,127
16870,note_off,0,0,0,,7,,,55,127
16872,note_on,2,0,0,,10,,,57,127
16872,note_on,0,0,0,,1,,,73,127
17018,note_off,146,0,0,,1,,,73,127
17018,note_off,0,0,0,,10,,,57,127
17020,note_on,2,0,0,,2,,,50,127
17020,note_on,0,0,0,,2,,,74,127
17166,note_off,146,0,0,,2,,,74,127
17168,note_on,2,0,0,,6,,,78,127
17314,note_off,146,0,0,,6,,,78,127
17316,note_on,2,0,0,,10,,,81,127
17462,note_off,146,0,0,,10,,,81,127
17462,note_off,0,0,0,,2,,,50,127
17464,note_on,2,0,0,,6,,,54,127
17464,note_on,0,0,0,,4,,,88,127
17513,note_on,49,0,0,,2,,,86,127
17533,note_off,20,0,0,,4,,,88,127
17562,note_on,29,0,0,,4,,,88,127
17582,note_off,20,0,0,,2,,,86,127
17610,note_off,28,0,0,,6,,,54,127
17612,note_on,2,0,0,,2,,,50,127
17612,note_on,0,0,0,,2,,,86,127
17632,note_off,20,0,0,,4,,,88,127
17661,note_on,29,0,0,,4,,,88,127
17681,note_off,20,0,0,,2,,,86,127
17710,note_on,29,0,0,,2,,,86,127
17730,note_off,20,0,0,,4,,,88,127
17758,note_off,28,0,0,,2,,,50,127
17760,note_on,2,0,0,,6,,,54,127
17760,note_on,0,0,0,,4,,,88,127
17780,note_off,20,0,0,,2,,,86,127
17809,note_on,29,0,0,,2,,,86,127
17829,note_off,20,0,0,,4,,,88,127
17858,note_on,29,0,0,,4,,,88,127
17878,note_off,20,0,0,,2,,,86,127
17906,note_off,28,0,0,,6,,,54,127
17908,note_on,2,0,0,,7,,,55,127
17908,note_on,0,0,0,,2,,,86,127
17928,note_off,20,0,0,,4,,,88,127
17957,note_on,29,0,0,,4,,,88,127
17977,note_off,20,0,0,,2,,,86,127
18006,note_on,29,0,0,,2,,,86,127
18026,note_off,20,0,0,,4,,,88,127
18054,note_off,28,0,0,,7,,,55,127
18056,note_on,2,0,0,,4,,,52,127
18056,note_on,0,0,0,,4,,,88,127
18076,note_off,20,0,0,,2,,,86,127
18105,note_on,29,0,0,,2,,,86,127
18125,note_off,20,0,0,,4,,,88,127
18154,note_on,29,0,0,,4,,,88,127
18174,note_off,20,0,0,,2,,,86,127
18202,note_off,28,0,0,,4,,,52,127
18204,note_on,2,0,0,,7,,,55,127
18204,note_on,0,0,0,,2,,,86,127
18224,note_off,20,0,0,,4,,,88,127
18253,note_on,29,0,0,,4,,,88,127
18273,note_off,20,0,0,,2,,,86,127
18302,note_on,29,0,0,,2,,,86,127
18322,note_off,20,0,0,,4,,,88,127
18350,note_off,28,0,0,,7,,,55,127
18352,note_on,2,0,0,,10,,,57,127
18352,note_on,0,0,0,,4,,,88,127
18372,note_off,20,0,0,,2,,,86,127
18401,note_on,29,0,0,,2,,,86,127
18421,note_off,20,0,0,,4,,,88,127
18450,note_on,29,0,0,,4,,,88,127
18470,note_off,20,0,0,,2,,,86,127
18498,note_off,28,0,0,,10,,,57,127
18500,note_on,2,0,0,,6,,,54,127
18500,note_on,0,0,0,,2,,,86,127
18520,note_off,20,0,0,,4,,,88,127
18549,note_on,29,0,0,,4,,,88,127
18569,note_off,20,0,0,,2,,,86,127
18598,note_on,29,0,0,,2,,,86,127
18618,note_off,20,0,0,,4,,,88,127
18646,note_off,28,0,0,,6,,,54,127
18648,note_on,2,0,0,,10,,,57,127
18648,note_on,0,0,0,,4,,,88,127
18668,note_off,20,0,0,,2,,,86,127
18697,note_on,29,0,0,,2,,,86,127
18717,note_off,20,0,0,,4,,,88,127
18746,note_on,29,0,0,,4,,,88,127
18766,note_off,20,0,0,,2,,,86,127
18794,note_off,28,0,0,,10,,,57,127
18796,note_on,2,0,0,,12,,,59,127
18796,note_on,0,0,0,,2,,,86,127
18816,note_off,20,0,0,,4,,,88,127
18845,note_on,29,0,0,,4,,,88,127
18865,note_off,20,0,0,,2,,,86,127
18894,note_on,29,0,0,,2,,,86,127
18914,note_off,20,0,0,,4,,,88,127
18942,note_off,28,0,0,,12,,,59,127
18944,note_on,2,0,0,,7,,,55,127
18944,note_on,0,0,0,,4,,,88,127
18964,note_off,20,0,0,,2,,,86,127
18993,note_on,29,0,0,,2,,,86,127
19013,note_off,20,0,0,,4,,,88,127
19042,note_on,29,0,0,,4,,,88,127
19062,note_off,20,0,0,,2,,,86,127
19090,note_off,28,0,0,,7,,,55,127
19092,note_on,2,0,0,,12,,,59,127
19092,note_on,0,0,0,,2,,,86,127
19112,note_off,20,0,0,,4,,,88,127
19238,note_off,126,0,0,,2,,,86,127
19238,note_off,0,0,0,,12,,,59,127
19240,note_on,2,0,0,,1,,,61,127
19240,note_on,0,0,0,,4,,,76,127
19386,note_off,146,0,0,,1,,,61,127
19388,note_on,2,0,0,,10,,,57,127
19534,note_off,146,0,0,,10,,,57,127
19536,note_on,2,0,0,,1,,,61,127
19610,note_off,74,0,0,,4,,,76,127
19682,note_off,72,0,0,,1,,,61,127
19684,note_on,2,0,0,,2,,,62,127
19684,note_on,0,0,0,,6,,,78,127
19830,note_off,146,0,0,,6,,,78,127
19832,note_on,2,0,0,,10,,,81,127
19978,note_off,146,0,0,,10,,,81,127
19978,note_off,0,0,0,,2,,,62,127
19980,note_on,2,0,0,,6,,,54,127
19980,note_on,0,0,0,,2,,,74,127
20126,note_off,146,0,0,,2,,,74,127
20126,note_off,0,0,0,,6,,,54,127
20128,note_on,2,0,0,,7,,,55,127
20128,note_on,0,0,0,,4,,,76,127
20128,note_on,0,0,0,,6,,,78,127
20274,note_off,146,0,0,,6,,,78,127
20274,note_off,0,0,0,,4,,,76,127
20276,note_on,2,0,0,,2,,,74,127
20422,note_off,146,0,0,,2,,,74,127
20422,note_off,0,0,0,,7,,,55,127
20424,note_on,2,0,0,,10,,,57,127
20424,note_on,0,0,0,,1,,,73,127
20570,note_off,146,0,0,,1,,,73,127
20570,note_off,0,0,0,,10,,,57,127
20572,note_on,2,0,0,,2,,,50,127
20572,note_on,0,0,0,,2,,,74,127
20718,note_off,146,0,0,,2,,,74,127
20720,note_on,2,0,0,,6,,,78,127
20866,note_off,146,0,0,,6,,,78,127
20866,note_off,0,0,0,,2,,,50,127
20868,note_on,2,0,0,,6,,,54,127
20868,note_on,0,0,0,,10,,,81,127
21014,note_off,146,0,0,,6,,,54,127
21016,note_on,2,0,0,,7,,,55,127
21162,note_off,146,0,0,,10,,,81,127
21164,note_on,2,0,0,,4,,,76,127
21310,note_off,146,0,0,,4,,,76,127
21310,note_off,0,0,0,,7,,,55,127
21312,note_on,2,0,0,,10,,,57,127
21312,note_on,0,0,0,,1,,,73,127
21458,note_off,146,0,0,,1,,,73,127
21458,note_off,0,0,0,,10,,,57,127
21460,note_on,2,0,0,,2,,,50,127
21460,note_on,0,0,0,,2,,,74,127
21606,note_off,146,0,0,,2,,,74,127
21608,note_on,2,0,0,,6,,,78,127
21754,note_off,146,0,0,,6,,,78,127
21754,note_off,0,0,0,,2,,,50,127
21756,note_on,2,0,0,,6,,,54,127
21756,note_on,0,0,0,,10,,,81,127
21902,note_off,146,0,0,,6,,,54,127
21904,note_on,2,0,0,,7,,,55,127
22050,note_off,146,0,0,,10,,,81,127
22052,note_on,2,0,0,,4,,,76,127
22198,note_off,146,0,0,,4,,,76,127
22198,note_off,0,0,0,,7,,,55,127
22200,note_on,2,0,0,,10,,,57,127
22200,note_on,0,0,0,,1,,,73,127
22346,note_off,146,0,0,,1,,,73,127
22346,note_off,0,0,0,,10,,,57,127
22348,note_on,2,0,0,,2,,,50,127
22348,note_on,0,0,0,,2,,,74,127
22494,note_off,146,0,0,,2,,,74,127
22496,note_on,2,0,0,,10,,,81,127
22642,note_off,146,0,0,,10,,,81,127
22642,note_off,0,0,0,,2,,,50,127
22644,note_on,2,0,0,,6,,,42,127
22644,note_on,0,0,0,,2,,,74,127
22790,note_off,146,0,0,,2,,,74,127
22790,note_off,0,0,0,,6,,,42,127
22792,note_on,2,0,0,,7,,,43,127
22792,note_on,0,0,0,,4,,,76,127
22938,note_off,146,0,0,,4,,,76,127
22940,note_on,2,0,0,,2,,,74,127
23086,note_off,146,0,0,,2,,,74,127
23086,note_off,0,0,0,,7,,,43,127
23088,note_on,2,0,0,,10,,,45,127
23088,note_on,0,0,0,,1,,,73,127
23234,note_off,146,0,0,,1,,,73,127
23234,note_off,0,0,0,,10,,,45,127
23236,note_on,2,0,0,,2,,,38,127
23236,note_on,0,0,0,,2,,,74,127
23605,note_off,369,0,0,,2,,,74,127
23688,note_on,83,0,0,,2,,,74,127
23825,note_off,137,0,0,,2,,,38,127
23836,note_on,11,0,0,,2,,,50,127
23982,note_off,146,0,0,,2,,,50,127
23984,note_on,2,0,0,,4,,,52,127
24130,note_off,146,0,0,,4,,,52,127
24130,note_off,0,0,0,,2,,,74,127
24132,note_on,2,0,0,,6,,,54,127
24132,note_on,0,0,0,,2,,,74,127
24181,note_on,49,0,0,,0,,,72,127
24201,note_off,20,0,0,,2,,,74,127
24230,note_on,29,0,0,,2,,,74,127
24250,note_off,20,0,0,,0,,,72,127
24279,note_on,29,0,0,,2,,,62,127
24279,note_on,0,0,0,,0,,,72,127
24299,note_off,20,0,0,,2,,,74,127
24328,note_on,29,0,0,,2,,,74,127
24348,note_off,20,0,0,,0,,,72,127
24353,note_off,5,0,0,,6,,,54,127
24378,note_on,25,0,0,,0,,,72,127
24398,note_off,20,0,0,,2,,,74,127
24427,note_on,29,0,0,,6,,,54,127
24427,note_on,0,0,0,,2,,,74,127
24447,note_off,20,0,0,,0,,,72,127
24476,note_on,29,0,0,,0,,,72,127
24496,note_off,20,0,0,,2,,,74,127
24501,note_off,5,0,0,,2,,,62,127
24573,note_off,72,0,0,,0,,,72,127
24573,note_off,0,0,0,,6,,,54,127
24575,note_on,2,0,0,,7,,,55,127
24575,note_on,0,0,0,,12,,,71,127
24723,note_on,148,0,0,,2,,,62,127
24797,note_off,74,0,0,,7,,,55,127
24871,note_on,74,0,0,,7,,,55,127
24945,note_off,74,0,0,,2,,,62,127
25017,note_off,72,0,0,,7,,,55,127
25017,note_off,0,0,0,,12,,,71,127
25019,note_on,2,0,0,,6,,,54,127
25019,note_on,0,0,0,,2,,,74,127
25068,note_on,49,0,0,,0,,,72,127
25088,note_off,20,0,0,,2,,,74,127
25117,note_on,29,0,0,,2,,,74,127
25137,note_off,20,0,0,,0,,,72,127
25166,note_on,29,0,0,,2,,,62,127
25166,note_on,0,0,0,,0,,,72,127
25186,note_off,20,0,0,,2,,,74,127
25215,note_on,29,0,0,,2,,,74,127
25235,note_off,20,0,0,,0,,,72,127
25240,note_off,5,0,0,,6,,,54,127
25265,note_on,25,0,0,,0,,,72,127
25285,note_off,20,0,0,,2,,,74,127
25314,note_on,29,0,0,,6,,,54,127
25314,note_on,0,0,0,,2,,,74,127
25334,note_off,20,0,0,,0,,,72,127
25363,note_on,29,0,0,,0,,,72,127
25383,note_off,20,0,0,,2,,,74,127
25388,note_off,5,0,0,,2,,,62,127
25460,note_off,72,0,0,,0,,,72,127
25460,note_off,0,0,0,,6,,,54,127
25462,note_on,2,0,0,,7,,,55,127
25462,note_on,0,0,0,,12,,,71,127
25610,note_on,148,0,0,,2,,,62,127
25684,note_off,74,0,0,,7,,,55,127
25758,note_on,74,0,0,,7,,,55,127
25832,note_off,74,0,0,,2,,,62,127
25904,note_off,72,0,0,,7,,,55,127
25904,note_off,0,0,0,,12,,,71,127
25906,note_on,2,0,0,,6,,,54,127
25906,note_on,0,0,0,,2,,,74,127
25955,note_on,49,0,0,,0,,,72,127
25975,note_off,20,0,0,,2,,,74,127
26004,note_on,29,0,0,,2,,,74,127
26024,note_off,20,0,0,,0,,,72,127
26053,note_on,29,0,0,,2,,,62,127
26053,note_on,0,0,0,,0,,,72,127
26073,note_off,20,0,0,,2,,,74,127
26102,note_on,29,0,0,,2,,,74,127
26122,note_off,20,0,0,,0,,,72,127
26127,note_off,5,0,0,,6,,,54,127
26152,note_on,25,0,0,,0,,,72,127
26172,note_off,20,0,0,,2,,,74,127
26201,note_on,29,0,0,,6,,,54,127
26201,note_on,0,0,0,,2,,,74,127
26221,note_off,20,0,0,,0,,,72,127
26250,note_on,29,0,0,,0,,,72,127
26270,note_off,20,0,0,,2,,,74,127
26275,note_off,5,0,0,,2,,,62,127
26347,note_off,72,0,0,,0,,,72,127
26347,note_off,0,0,0,,6,,,54,127
26349,note_on,2,0,0,,7,,,55,127
26349,note_on,0,0,0,,12,,,71,127
26497,note_on,148,0,0,,2,,,62,127
26571,note_off,74,0,0,,7,,,55,127
26645,note_on,74,0,0,,7,,,55,127
26719,note_off,74,0,0,,2,,,62,127
26791,note_off,72,0,0,,7,,,55,127
26791,note_off,0,0,0,,12,,,71,127
26793,note_on,2,0,0,,5,,,53,127
26793,note_on,0,0,0,,2,,,74,127
26941,note_on,148,0,0,,2,,,62,127
27015,note_off,74,0,0,,5,,,53,127
27089,note_on,74,0,0,,5,,,53,127
27163,note_off,74,0,0,,2,,,62,127
27235,note_off,72,0,0,,5,,,53,127
27235,note_off,0,0,0,,2,,,74,127
27237,note_on,2,0,0,,4,,,52,127
27237,note_on,0,0,0,,8,,,80,127
27237,note_on,0,0,0,,2,,,74,127
27385,note_on,148,0,0,,2,,,62,127
27459,note_off,74,0,0,,4,,,52,127
27533,note_on,74,0,0,,4,,,52,127
27607,note_off,74,0,0,,2,,,62,127
27679,note_off,72,0,0,,4,,,52,127
27679,note_off,0,0,0,,2,,,74,127
27679,note_off,0,0,0,,8,,,80,127
27681,note_on,2,0,0,,5,,,53,127
27681,note_on,0,0,0,,2,,,74,127
27681,note_on,0,0,0,,10,,,81,127
27829,note_on,148,0,0,,2,,,62,127
27903,note_off,74,0,0,,5,,,53,127
27977,note_on,74,0,0,,5,,,53,127
28051,note_off,74,0,0,,2,,,62,127
28123,note_off,72,0,0,,5,,,53,127
28123,note_off,0,0,0,,10,,,81,127
28123,note_off,0,0,0,,2,,,74,127
28125,note_on,2,0,0,,4,,,52,127
28125,note_on,0,0,0,,8,,,80,127
28125,note_on,0,0,0,,2,,,74,127
28273,note_on,148,0,0,,2,,,62,127
28347,note_off,74,0,0,,4,,,52,127
28421,note_on,74,0,0,,4,,,52,127
28495,note_off,74,0,0,,2,,,62,127
28567,note_off,72,0,0,,4,,,52,127
28567,note_off,0,0,0,,2,,,74,127
28567,note_off,0,0,0,,8,,,80,127
28569,note_on,2,0,0,,5,,,53,127
28569,note_on,0,0,0,,2,,,74,127
28569,note_on,0,0,0,,10,,,81,127
28717,note_on,148,0,0,,2,,,62,127
28791,note_off,74,0,0,,5,,,53,127
28865,note_on,74,0,0,,5,,,53,127
28939,note_off,74,0,0,,2,,,62,127
29011,note_off,72,0,0,,5,,,53,127
29011,note_off,0,0,0,,10,,,81,127
29011,note_off,0,0,0,,2,,,74,127
29013,note_on,2,0,0,,4,,,52,127
29013,note_on,0,0,0,,2,,,62,127
29013,note_on,0,0,0,,8,,,80,127
29159,note_off,146,0,0,,8,,,80,127
29161,note_on,2,0,0,,10,,,81,127
29307,note_off,146,0,0,,10,,,81,127
29309,note_on,2,0,0,,12,,,83,127
29455,note_off,146,0,0,,12,,,83,127
29455,note_off,0,0,0,,2,,,62,127
29455,note_off,0,0,0,,4,,,52,127
29457,note_on,2,0,0,,2,,,62,127
29457,note_on,0,0,0,,4,,,52,127
29457,note_on,0,0,0,,12,,,83,127
29603,note_off,146,0,0,,12,,,83,127
29605,note_on,2,0,0,,0,,,84,127
29751,note_off,146,0,0,,0,,,84,127
29753,note_on,2,0,0,,2,,,86,127
29899,note_off,146,0,0,,2,,,86,127
29899,note_off,0,0,0,,4,,,52,127
29899,note_off,0,0,0,,2,,,62,127
29901,note_on,2,0,0,,10,,,57,127
29901,note_on,0,0,0,,4,,,64,127
29901,note_on,0,0,0,,2,,,86,127
29901,note_on,0,0,0,,0,,,84,127
30047,note_off,146,0,0,,0,,,84,127
30047,note_off,0,0,0,,2,,,86,127
30049,note_on,2,0,0,,12,,,83,127
30195,note_off,146,0,0,,12,,,83,127
30197,note_on,2,0,0,,10,,,81,127
30343,note_off,146,0,0,,4,,,64,127
30343,note_off,0,0,0,,10,,,57,127
30345,note_on,2,0,0,,8,,,56,127
30345,note_on,0,0,0,,4,,,64,127
30345,note_on,0,0,0,,4,,,76,127
30419,note_off,74,0,0,,10,,,81,127
30491,note_off,72,0,0,,4,,,76,127
30493,note_on,2,0,0,,12,,,83,127
30639,note_off,146,0,0,,12,,,83,127
30641,note_on,2,0,0,,2,,,86,127
30787,note_off,146,0,0,,2,,,86,127
30787,note_off,0,0,0,,4,,,64,127
30787,note_off,0,0,0,,8,,,56,127
30789,note_on,2,0,0,,4,,,64,127
30789,note_on,0,0,0,,10,,,57,127
30789,note_on,0,0,0,,0,,,84,127
30789,note_on,0,0,0,,2,,,86,127
30935,note_off,146,0,0,,2,,,86,127
30935,note_off,0,0,0,,0,,,84,127
30937,note_on,2,0,0,,12,,,83,127
31083,note_off,146,0,0,,12,,,83,127
31085,note_on,2,0,0,,10,,,81,127
31231,note_off,146,0,0,,10,,,57,127
31231,note_off,0,0,0,,4,,,64,127
31233,note_on,2,0,0,,8,,,56,127
31233,note_on,0,0,0,,4,,,64,127
31233,note_on,0,0,0,,4,,,76,127
31307,note_off,74,0,0,,10,,,81,127
31379,note_off,72,0,0,,4,,,76,127
31381,note_on,2,0,0,,12,,,83,127
31527,note_off,146,0,0,,12,,,83,127
31529,note_on,2,0,0,,2,,,86,127
31675,note_off,146,0,0,,2,,,86,127
31675,note_off,0,0,0,,4,,,64,127
31675,note_off,0,0,0,,8,,,56,127
31677,note_on,2,0,0,,4,,,64,127
31677,note_on,0,0,0,,10,,,57,127
31677,note_on,0,0,0,,0,,,84,127
31823,note_off,146,0,0,,0,,,84,127
31825,note_on,2,0,0,,12,,,83,127
31971,note_off,146,0,0,,12,,,83,127
31973,note_on,2,0,0,,10,,,81,127
32119,note_off,146,0,0,,10,,,57,127
32119,note_off,0,0,0,,4,,,64,127
32121,note_on,2,0,0,,4,,,64,127
32121,note_on,0,0,0,,0,,,60,127
32235,note_off,114,0,0,,10,,,81,127
32269,note_on,34,0,0,,10,,,81,127
32415,note_off,146,0,0,,10,,,81,127
32417,note_on,2,0,0,,7,,,79,127
32563,note_off,146,0,0,,7,,,79,127
32563,note_off,0,0,0,,0,,,60,127
32563,note_off,0,0,0,,4,,,64,127
32565,note_on,2,0,0,,2,,,62,127
32565,note_on,0,0,0,,2,,,50,127
32565,note_on,0,0,0,,7,,,79,127
32711,note_off,146,0,0,,7,,,79,127
32713,note_on,2,0,0,,6,,,78,127
32859,note_off,146,0,0,,6,,,78,127
32861,note_on,2,0,0,,7,,,79,127
33007,note_off,146,0,0,,7,,,79,127
33007,note_off,0,0,0,,2,,,50,127
33007,note_off,0,0,0,,2,,,62,127
33009,note_on,2,0,0,,6,,,54,127
33009,note_on,0,0,0,,2,,,62,127
33009,note_on,0,0,0,,10,,,81,127
33155,note_off,146,0,0,,10,,,81,127
33157,note_on,2,0,0,,12,,,83,127
33303,note_off,146,0,0,,12,,,83,127
33305,note_on,2,0,0,,0,,,84,127
33451,note_off,146,0,0,,0,,,84,127
33451,note_off,0,0,0,,2,,,62,127
33451,note_off,0,0,0,,6,,,54,127
33453,note_on,2,0,0,,7,,,55,127
33453,note_on,0,0,0,,2,,,62,127
33453,note_on,0,0,0,,12,,,83,127
33453,note_on,0,0,0,,0,,,84,127
33599,note_off,146,0,0,,0,,,84,127
33599,note_off,0,0,0,,12,,,83,127
33601,note_on,2,0,0,,10,,,81,127
33747,note_off,146,0,0,,10,,,81,127
33749,note_on,2,0,0,,7,,,79,127
33895,note_off,146,0,0,,2,,,62,127
33895,note_off,0,0,0,,7,,,55,127
33897,note_on,2,0,0,,6,,,54,127
33897,note_on,0,0,0,,2,,,62,127
33897,note_on,0,0,0,,2,,,74,127
33971,note_off,74,0,0,,7,,,79,127
34043,note_off,72,0,0,,2,,,74,127
34045,note_on,2,0,0,,10,,,81,127
34191,note_off,146,0,0,,10,,,81,127
34193,note_on,2,0,0,,0,,,84,127
34339,note_off,146,0,0,,0,,,84,127
34339,note_off,0,0,0,,2,,,62,127
34339,note_off,0,0,0,,6,,,54,127
34341,note_on,2,0,0,,2,,,62,127
34341,note_on,0,0,0,,7,,,55,127
34341,note_on,0,0,0,,0,,,84,127
34341,note_on,0,0,0,,12,,,83,127
34487,note_off,146,0,0,,12,,,83,127
34487,note_off,0,0,0,,0,,,84,127
34489,note_on,2,0,0,,10,,,81,127
34635,note_off,146,0,0,,10,,,81,127
34637,note_on,2,0,0,,7,,,79,127
34783,note_off,146,0,0,,7,,,55,127
34783,note_off,0,0,0,,2,,,62,127
34785,note_on,2,0,0,,6,,,54,127
34785,note_on,0,0,0,,2,,,62,127
34785,note_on,0,0,0,,2,,,74,127
34859,note_off,74,0,0,,7,,,79,127
34931,note_off,72,0,0,,2,,,74,127
34933,note_on,2,0,0,,10,,,81,127
35079,note_off,146,0,0,,10,,,81,127
35081,note_on,2,0,0,,0,,,84,127
35227,note_off,146,0,0,,0,,,84,127
35227,note_off,0,0,0,,2,,,62,127
35227,note_off,0,0,0,,6,,,54,127
35229,note_on,2,0,0,,2,,,62,127
35229,note_on,0,0,0,,7,,,55,127
35229,note_on,0,0,0,,12,,,83,127
35375,note_off,146,0,0,,12,,,83,127
35377,note_on,2,0,0,,10,,,81,127
35523,note_off,146,0,0,,10,,,81,127
35525,note_on,2,0,0,,7,,,79,127
35671,note_off,146,0,0,,7,,,55,127
35671,note_off,0,0,0,,2,,,62,127
35673,note_on,2,0,0,,2,,,62,127
35673,note_on,0,0,0,,12,,,59,127
35747,note_off,74,0,0,,7,,,79,127
35821,note_on,74,0,0,,7,,,79,127
35967,note_off,146,0,0,,7,,,79,127
35969,note_on,2,0,0,,6,,,78,127
36115,note_off,146,0,0,,6,,,78,127
36115,note_off,0,0,0,,12,,,59,127
36115,note_off,0,0,0,,2,,,62,127
36117,note_on,2,0,0,,4,,,64,127
36117,note_on,0,0,0,,0,,,60,127
36117,note_on,0,0,0,,4,,,76,127
36263,note_off,146,0,0,,4,,,76,127
36265,note_on,2,0,0,,6,,,78,127
36411,note_off,146,0,0,,6,,,78,127
36413,note_on,2,0,0,,7,,,79,127
36559,note_off,146,0,0,,7,,,79,127
36559,note_off,0,0,0,,0,,,60,127
36559,note_off,0,0,0,,4,,,64,127
36561,note_on,2,0,0,,10,,,57,127
36561,note_on,0,0,0,,0,,,84,127
36707,note_off,146,0,0,,0,,,84,127
36709,note_on,2,0,0,,10,,,81,127
36855,note_off,146,0,0,,10,,,81,127
36857,note_on,2,0,0,,7,,,79,127
37003,note_off,146,0,0,,7,,,79,127
37003,note_off,0,0,0,,10,,,57,127
37005,note_on,2,0,0,,2,,,62,127
37005,note_on,0,0,0,,2,,,50,127
37005,note_on,0,0,0,,6,,,78,127
37151,note_off,146,0,0,,6,,,78,127
37153,note_on,2,0,0,,7,,,79,127
37299,note_off,146,0,0,,7,,,79,127
37301,note_on,2,0,0,,10,,,81,127
37447,note_off,146,0,0,,2,,,50,127
37447,note_off,0,0,0,,2,,,62,127
37449,note_on,2,0,0,,12,,,59,127
37449,note_on,0,0,0,,2,,,62,127
37523,note_off,74,0,0,,10,,,81,127
37597,note_on,74,0,0,,7,,,79,127
37743,note_off,146,0,0,,7,,,79,127
37745,note_on,2,0,0,,6,,,78,127
37891,note_off,146,0,0,,6,,,78,127
37891,note_off,0,0,0,,2,,,62,127
37891,note_off,0,0,0,,12,,,59,127
37893,note_on,2,0,0,,0,,,60,127
37893,note_on,0,0,0,,4,,,64,127
37893,note_on,0,0,0,,4,,,76,127
38039,note_off,146,0,0,,4,,,76,127
38041,note_on,2,0,0,,6,,,78,127
38187,note_off,146,0,0,,6,,,78,127
38189,note_on,2,0,0,,7,,,79,127
38335,note_off,146,0,0,,7,,,79,127
38335,note_off,0,0,0,,4,,,64,127
38335,note_off,0,0,0,,0,,,60,127
38337,note_on,2,0,0,,10,,,57,127
38337,note_on,0,0,0,,0,,,84,127
38483,note_off,146,0,0,,0,,,84,127
38485,note_on,2,0,0,,10,,,81,127
38631,note_off,146,0,0,,10,,,81,127
38633,note_on,2,0,0,,7,,,79,127
38779,note_off,146,0,0,,7,,,79,127
38779,note_off,0,0,0,,10,,,57,127
38781,note_on,2,0,0,,2,,,50,127
38781,note_on,0,0,0,,2,,,62,127
38781,note_on,0,0,0,,6,,,78,127
38927,note_off,146,0,0,,6,,,78,127
38929,note_on,2,0,0,,4,,,76,127
39075,note_off,146,0,0,,4,,,76,127
39077,note_on,2,0,0,,2,,,74,127
39208,note_off,131,0,0,,2,,,74,127
39223,note_off,15,0,0,,2,,,62,127
39223,note_off,0,0,0,,2,,,50,127
39225,note_on,2,0,0,,12,,,47,127
39225,note_on,0,0,0,,10,,,81,127
39274,note_on,49,0,0,,7,,,79,127
39294,note_off,20,0,0,,10,,,81,127
39323,note_on,29,0,0,,10,,,81,127
39343,note_off,20,0,0,,7,,,79,127
39371,note_off,28,0,0,,12,,,47,127
39373,note_on,2,0,0,,7,,,43,127
39373,note_on,0,0,0,,7,,,79,127
39393,note_off,20,0,0,,10,,,81,127
39422,note_on,29,0,0,,10,,,81,127
39442,note_off,20,0,0,,7,,,79,127
39471,note_on,29,0,0,,7,,,79,127
39491,note_off,20,0,0,,10,,,81,127
39519,note_off,28,0,0,,7,,,43,127
39521,note_on,2,0,0,,12,,,47,127
39521,note_on,0,0,0,,10,,,81,127
39541,note_off,20,0,0,,7,,,79,127
39570,note_on,29,0,0,,7,,,79,127
39590,note_off,20,0,0,,10,,,81,127
39619,note_on,29,0,0,,10,,,81,127
39639,note_off,20,0,0,,7,,,79,127
39667,note_off,28,0,0,,12,,,47,127
39669,note_on,2,0,0,,0,,,48,127
39669,note_on,0,0,0,,7,,,79,127
39689,note_off,20,0,0,,10,,,81,127
39718,note_on,29,0,0,,10,,,81,127
39738,note_off,20,0,0,,7,,,79,127
39767,note_on,29,0,0,,7,,,79,127
39787,note_off,20,0,0,,10,,,81,127
39815,note_off,28,0,0,,0,,,48,127
39817,note_on,2,0,0,,10,,,45,127
39817,note_on,0,0,0,,10,,,81,127
39837,note_off,20,0,0,,7,,,79,127
39866,note_on,29,0,0,,7,,,79,127
39886,note_off,20,0,0,,10,,,81,127
39915,note_on,29,0,0,,10,,,81,127
39935,note_off,20,0,0,,7,,,79,127
39963,note_off,28,0,0,,10,,,45,127
39965,note_on,2,0,0,,0,,,48,127
39965,note_on,0,0,0,,7,,,79,127
39985,note_off,20,0,0,,10,,,81,127
40014,note_on,29,0,0,,10,,,81,127
40034,note_off,20,0,0,,7,,,79,127
40063,note_on,29,0,0,,7,,,79,127
40083,note_off,20,0,0,,10,,,81,127
40111,note_off,28,0,0,,0,,,48,127
40113,note_on,2,0,0,,2,,,50,127
40113,note_on,0,0,0,,10,,,81,127
40133,note_off,20,0,0,,7,,,79,127
40162,note_on,29,0,0,,7,,,79,127
40182,note_off,20,0,0,,10,,,81,127
40211,note_on,29,0,0,,10,,,81,127
40231,note_off,20,0,0,,7,,,79,127
40259,note_off,28,0,0,,2,,,50,127
40261,note_on,2,0,0,,12,,,47,127
40261,note_on,0,0,0,,7,,,79,127
40281,note_off,20,0,0,,10,,,81,127
40310,note_on,29,0,0,,10,,,81,127
40330,note_off,20,0,0,,7,,,79,127
40359,note_on,29,0,0,,7,,,79,127
40379,note_off,20,0,0,,10,,,81,127
40407,note_off,28,0,0,,12,,,47,127
40409,note_on,2,0,0,,2,,,50,127
40409,note_on,0,0,0,,10,,,81,127
40429,note_off,20,0,0,,7,,,79,127
40458,note_on,29,0,0,,7,,,79,127
40478,note_off,20,0,0,,10,,,81,127
40507,note_on,29,0,0,,10,,,81,127
40527,note_off,20,0,0,,7,,,79,127
40555,note_off,28,0,0,,2,,,50,127
40557,note_on,2,0,0,,4,,,52,127
40557,note_on,0,0,0,,7,,,79,127
40577,note_off,20,0,0,,10,,,81,127
40606,note_on,29,0,0,,10,,,81,127
40626,note_off,20,0,0,,7,,,79,127
40655,note_on,29,0,0,,7,,,79,127
40675,note_off,20,0,0,,10,,,81,127
40703,note_off,28,0,0,,4,,,52,127
40705,note_on,2,0,0,,0,,,48,127
40705,note_on,0,0,0,,10,,,81,127
40725,note_off,20,0,0,,7,,,79,127
40754,note_on,29,0,0,,7,,,79,127
40774,note_off,20,0,0,,10,,,81,127
40803,note_on,29,0,0,,10,,,81,127
40823,note_off,20,0,0,,7,,,79,127
40851,note_off,28,0,0,,0,,,48,127
40853,note_on,2,0,0,,4,,,52,127
40853,note_on,0,0,0,,7,,,79,127
40873,note_off,20,0,0,,10,,,81,127
40902,note_on,29,0,0,,10,,,81,127
40922,note_off,20,0,0,,7,,,79,127
40951,note_on,29,0,0,,7,,,79,127
40971,note_off,20,0,0,,10,,,81,127
40999,note_off,28,0,0,,4,,,52,127
41001,note_on,2,0,0,,6,,,54,127
41001,note_on,0,0,0,,10,,,81,127
41021,note_off,20,0,0,,7,,,79,127
41050,note_on,29,0,0,,12,,,83,127
41070,note_off,20,0,0,,10,,,81,127
41099,note_on,29,0,0,,0,,,84,127
41119,note_off,20,0,0,,12,,,83,127
41147,note_off,28,0,0,,6,,,54,127
41149,note_on,2,0,0,,2,,,50,127
41295,note_off,146,0,0,,2,,,50,127
41297,note_on,2,0,0,,6,,,54,127
41443,note_off,146,0,0,,6,,,54,127
41443,note_off,0,0,0,,0,,,84,127
41445,note_on,2,0,0,,7,,,55,127
41445,note_on,0,0,0,,12,,,83,127
41591,note_off,146,0,0,,12,,,83,127
41593,note_on,2,0,0,,2,,,86,127
41739,note_off,146,0,0,,2,,,86,127
41739,note_off,0,0,0,,7,,,55,127
41741,note_on,2,0,0,,12,,,47,127
41741,note_on,0,0,0,,7,,,79,127
41887,note_off,146,0,0,,7,,,79,127
41887,note_off,0,0,0,,12,,,47,127
41889,note_on,2,0,0,,0,,,48,127
41889,note_on,0,0,0,,10,,,81,127
42035,note_off,146,0,0,,10,,,81,127
42037,note_on,2,0,0,,7,,,79,127
42183,note_off,146,0,0,,7,,,79,127
42183,note_off,0,0,0,,0,,,48,127
42185,note_on,2,0,0,,2,,,50,127
42185,note_on,0,0,0,,6,,,78,127
42331,note_off,146,0,0,,6,,,78,127
42331,note_off,0,0,0,,2,,,50,127
42333,note_on,2,0,0,,7,,,43,127
42333,note_on,0,0,0,,7,,,79,127
42481,note_on,148,0,0,,2,,,74,127
42518,note_off,37,0,0,,7,,,79,127
42627,note_off,109,0,0,,2,,,74,127
42629,note_on,2,0,0,,7,,,79,127
42775,note_off,146,0,0,,7,,,79,127
42775,note_off,0,0,0,,7,,,43,127
42777,note_on,2,0,0,,12,,,47,127
42777,note_on,0,0,0,,10,,,81,127
42826,note_on,49,0,0,,7,,,79,127
42846,note_off,20,0,0,,10,,,81,127
42875,note_on,29,0,0,,10,,,81,127
42895,note_off,20,0,0,,7,,,79,127
42923,note_off,28,0,0,,12,,,47,127
42925,note_on,2,0,0,,7,,,43,127
42925,note_on,0,0,0,,7,,,79,127
42945,note_off,20,0,0,,10,,,81,127
42974,note_on,29,0,0,,10,,,81,127
42994,note_off,20,0,0,,7,,,79,127
43023,note_on,29,0,0,,7,,,79,127
43043,note_off,20,0,0,,10,,,81,127
43071,note_off,28,0,0,,7,,,43,127
43073,note_on,2,0,0,,12,,,47,127
43073,note_on,0,0,0,,10,,,81,127
43093,note_off,20,0,0,,7,,,79,127
43122,note_on,29,0,0,,7,,,79,127
43142,note_off,20,0,0,,10,,,81,127
43171,note_on,29,0,0,,10,,,81,127
43191,note_off,20,0,0,,7,,,79,127
43219,note_off,28,0,0,,12,,,47,127
43221,note_on,2,0,0,,0,,,48,127
43221,note_on,0,0,0,,7,,,79,127
43241,note_off,20,0,0,,10,,,81,127
43270,note_on,29,0,0,,10,,,81,127
43290,note_off,20,0,0,,7,,,79,127
43319,note_on,29,0,0,,7,,,79,127
43339,note_off,20,0,0,,10,,,81,127
43367,note_off,28,0,0,,0,,,48,127
43369,note_on,2,0,0,,10,,,45,127
43369,note_on,0,0,0,,10,,,81,127
43389,note_off,20,0,0,,7,,,79,127
43418,note_on,29,0,0,,7,,,79,127
43438,note_off,20,0,0,,10,,,81,127
43467,note_on,29,0,0,,10,,,81,127
43487,note_off,20,0,0,,7,,,79,127
43515,note_off,28,0,0,,10,,,45,127
43517,note_on,2,0,0,,0,,,48,127
43517,note_on,0,0,0,,7,,,79,127
43537,note_off,20,0,0,,10,,,81,127
43566,note_on,29,0,0,,10,,,81,127
43586,note_off,20,0,0,,7,,,79,127
43615,note_on,29,0,0,,7,,,79,127
43635,note_off,20,0,0,,10,,,81,127
43663,note_off,28,0,0,,0,,,48,127
43665,note_on,2,0,0,,2,,,50,127
43665,note_on,0,0,0,,10,,,81,127
43685,note_off,20,0,0,,7,,,79,127
43714,note_on,29,0,0,,7,,,79,127
43734,note_off,20,0,0,,10,,,81,127
43763,note_on,29,0,0,,10,,,81,127
43783,note_off,20,0,0,,7,,,79,127
43811,note_off,28,0,0,,2,,,50,127
43813,note_on,2,0,0,,12,,,47,127
43813,note_on,0,0,0,,7,,,79,127
43833,note_off,20,0,0,,10,,,81,127
43862,note_on,29,0,0,,10,,,81,127
43882,note_off,20,0,0,,7,,,79,127
43911,note_on,29,0,0,,7,,,79,127
43931,note_off,20,0,0,,10,,,81,127
43959,note_off,28,0,0,,12,,,47,127
43961,note_on,2,0,0,,2,,,50,127
43961,note_on,0,0,0,,10,,,81,127
43981,note_off,20,0,0,,7,,,79,127
44010,note_on,29,0,0,,7,,,79,127
44030,note_off,20,0,0,,10,,,81,127
44059,note_on,29,0,0,,10,,,81,127
44079,note_off,20,0,0,,7,,,79,127
44107,note_off,28,0,0,,2,,,50,127
44109,note_on,2,0,0,,4,,,52,127
44109,note_on,0,0,0,,7,,,79,127
44129,note_off,20,0,0,,10,,,81,127
44158,note_on,29,0,0,,10,,,81,127
44178,note_off,20,0,0,,7,,,79,127
44207,note_on,29,0,0,,7,,,79,127
44227,note_off,20,0,0,,10,,,81,127
44255,note_off,28,0,0,,4,,,52,127
44257,note_on,2,0,0,,0,,,48,127
44257,note_on,0,0,0,,10,,,81,127
44277,note_off,20,0,0,,7,,,79,127
44306,note_on,29,0,0,,7,,,79,127
44326,note_off,20,0,0,,10,,,81,127
44355,note_on,29,0,0,,10,,,81,127
44375,note_off,20,0,0,,7,,,79,127
44403,note_off,28,0,0,,0,,,48,127
44405,note_on,2,0,0,,4,,,52,127
44405,note_on,0,0,0,,7,,,79,127
44425,note_off,20,0,0,,10,,,81,127
44454,note_on,29,0,0,,10,,,81,127
44474,note_off,20,0,0,,7,,,79,127
44503,note_on,29,0,0,,7,,,79,127
44523,note_off,20,0,0,,10,,,81,127
44551,note_off,28,0,0,,4,,,52,127
44553,note_on,2,0,0,,6,,,54,127
44553,note_on,0,0,0,,10,,,81,127
44573,note_off,20,0,0,,7,,,79,127
44602,note_on,29,0,0,,12,,,83,127
44622,note_off,20,0,0,,10,,,81,127
44651,note_on,29,0,0,,0,,,84,127
44671,note_off,20,0,0,,12,,,83,127
44699,note_off,28,0,0,,6,,,54,127
44701,note_on,2,0,0,,2,,,50,127
44847,note_off,146,0,0,,2,,,50,127
44849,note_on,2,0,0,,6,,,54,127
44995,note_off,146,0,0,,6,,,54,127
44995,note_off,0,0,0,,0,,,84,127
44997,note_on,2,0,0,,7,,,55,127
44997,note_on,0,0,0,,12,,,83,127
45143,note_off,146,0,0,,12,,,83,127
45145,note_on,2,0,0,,2,,,86,127
45291,note_off,146,0,0,,2,,,86,127
45291,note_off,0,0,0,,7,,,55,127
45293,note_on,2,0,0,,12,,,47,127
45293,note_on,0,0,0,,7,,,79,127
45439,note_off,146,0,0,,7,,,79,127
45439,note_off,0,0,0,,12,,,47,127
45441,note_on,2,0,0,,0,,,48,127
45441,note_on,0,0,0,,10,,,81,127
45441,note_on,0,0,0,,12,,,83,127
45587,note_off,146,0,0,,12,,,83,127
45587,note_off,0,0,0,,10,,,81,127
45589,note_on,2,0,0,,7,,,79,127
45735,note_off,146,0,0,,7,,,79,127
45735,note_off,0,0,0,,0,,,48,127
45737,note_on,2,0,0,,2,,,50,127
45737,note_on,0,0,0,,6,,,78,127
45883,note_off,146,0,0,,6,,,78,127
45883,note_off,0,0,0,,2,,,50,127
45885,note_on,2,0,0,,7,,,55,127
45885,note_on,0,0,0,,7,,,79,127
46031,note_off,146,0,0,,7,,,79,127
46033,note_on,2,0,0,,12,,,83,127
46179,note_off,146,0,0,,12,,,83,127
46179,note_off,0,0,0,,7,,,55,127
46181,note_on,2,0,0,,12,,,47,127
46181,note_on,0,0,0,,2,,,86,127
46327,note_off,146,0,0,,12,,,47,127
46329,note_on,2,0,0,,0,,,48,127
46458,note_off,129,0,0,,2,,,86,127
46476,note_on,18,0,0,,10,,,81,127
46622,note_off,146,0,0,,10,,,81,127
46622,note_off,0,0,0,,0,,,48,127
46624,note_on,2,0,0,,2,,,50,127
46624,note_on,0,0,0,,6,,,78,127
46770,note_off,146,0,0,,6,,,78,127
46770,note_off,0,0,0,,2,,,50,127
46772,note_on,2,0,0,,7,,,55,127
46772,note_on,0,0,0,,7,,,79,127
46918,note_off,146,0,0,,7,,,79,127
46920,note_on,2,0,0,,12,,,83,127
47066,note_off,146,0,0,,12,,,83,127
47066,note_off,0,0,0,,7,,,55,127
47068,note_on,2,0,0,,12,,,47,127
47068,note_on,0,0,0,,2,,,86,127
47214,note_off,146,0,0,,12,,,47,127
47216,note_on,2,0,0,,0,,,48,127
47345,note_off,129,0,0,,2,,,86,127
47363,note_on,18,0,0,,10,,,81,127
47509,note_off,146,0,0,,10,,,81,127
47509,note_off,0,0,0,,0,,,48,127
47511,note_on,2,0,0,,2,,,50,127
47511,note_on,0,0,0,,6,,,78,127
47657,note_off,146,0,0,,6,,,78,127
47657,note_off,0,0,0,,2,,,50,127
47659,note_on,2,0,0,,7,,,43,127
47659,note_on,0,0,0,,7,,,79,127
47807,note_on,148,0,0,,2,,,74,127
47844,note_off,37,0,0,,7,,,79,127
47953,note_off,109,0,0,,2,,,74,127
47955,note_on,2,0,0,,12,,,71,127
48101,note_off,146,0,0,,12,,,71,127
48103,note_on,2,0,0,,7,,,67,127
48249,note_off,146,0,0,,7,,,43,127
48251,note_on,2,0,0,,2,,,62,127
48288,note_off,37,0,0,,7,,,67,127
48397,note_off,109,0,0,,2,,,62,127
48399,note_on,2,0,0,,12,,,59,127
48545,note_off,146,0,0,,12,,,59,127
48547,note_on,2,0,0,,7,,,55,127
48701,note_off,154,0,0,,7,,,55,127
48707,note_on,6,0,0,,2,,,50,127
48861,note_off,154,0,0,,2,,,50,127
48864,note_on,3,0,0,,12,,,47,127
49018,note_off,154,0,0,,12,,,47,127
49050,note_on,32,0,0,,7,,,43,127
50822,note_off,1772,0,0,,7,,,43,127
55296,end_of_track,4474,1,0,,,,,,
