tick,type,time,meta,track,program,channel,pitch,tempo,note,velocity
0,copyright,0,1,0,,,,,,
0,program_change,0,0,0,6,0,,,,
0,pitchwheel,0,0,0,,0,0,,,
0,program_change,0,0,0,6,1,,,,
0,pitchwheel,0,0,0,,1,-590,,,
0,program_change,0,0,0,6,2,,,,
0,pitchwheel,0,0,0,,2,-272,,,
0,program_change,0,0,0,6,3,,,,
0,pitchwheel,0,0,0,,3,-353,,,
0,program_change,0,0,0,6,4,,,,
0,pitchwheel,0,0,0,,4,-560,,,
0,program_change,0,0,0,6,5,,,,
0,pitchwheel,0,0,0,,5,-80,,,
0,program_change,0,0,0,6,6,,,,
0,pitchwheel,0,0,0,,6,-625,,,
0,program_change,0,0,0,6,7,,,,
0,pitchwheel,0,0,0,,7,-130,,,
0,program_change,0,0,0,6,8,,,,
0,pitchwheel,0,0,0,,8,-512,,,
0,program_change,0,0,0,6,10,,,,
0,pitchwheel,0,0,0,,10,-464,,,
0,program_change,0,0,0,6,11,,,,
0,pitchwheel,0,0,0,,11,-208,,,
0,program_change,0,0,0,6,12,,,,
0,pitchwheel,0,0,0,,12,-553,,,
0,set_tempo,0,1,0,,,,500000,,
121,note_on,121,0,0,,11,,,46,127
364,note_on,243,0,0,,5,,,77,127
605,note_off,241,0,0,,5,,,77,127
606,note_on,1,0,0,,11,,,82,127
847,note_off,241,0,0,,11,,,82,127
848,note_on,1,0,0,,5,,,77,127
1089,note_off,241,0,0,,5,,,77,127
1089,note_off,0,0,0,,11,,,46,127
1090,note_on,1,0,0,,11,,,82,127
1333,note_on,243,0,0,,11,,,58,127
1574,note_off,241,0,0,,11,,,58,127
1575,note_on,1,0,0,,2,,,62,127
1766,note_off,191,0,0,,11,,,82,127
1817,note_off,51,0,0,,2,,,62,127
1818,note_on,1,0,0,,11,,,58,127
1818,note_on,0,0,0,,5,,,77,127
2059,note_off,241,0,0,,5,,,77,127
2059,note_off,0,0,0,,11,,,58,127
2060,note_on,1,0,0,,3,,,63,127
2060,note_on,0,0,0,,7,,,79,127
2301,note_off,241,0,0,,7,,,79,127
2301,note_off,0,0,0,,3,,,63,127
2302,note_on,1,0,0,,2,,,62,127
2302,note_on,0,0,0,,5,,,77,127
2543,note_off,241,0,0,,5,,,77,127
2543,note_off,0,0,0,,2,,,62,127
2544,note_on,1,0,0,,0,,,60,127
2544,note_on,0,0,0,,5,,,77,127
2605,note_on,61,0,0,,3,,,75,127
2620,note_off,15,0,0,,5,,,77,127
2665,note_on,45,0,0,,5,,,77,127
2680,note_off,15,0,0,,3,,,75,127
2725,note_on,45,0,0,,3,,,75,127
2740,note_off,15,0,0,,5,,,77,127
2784,note_off,44,0,0,,0,,,60,127
2785,note_on,1,0,0,,5,,,53,127
2785,note_on,0,0,0,,5,,,77,127
2800,note_off,15,0,0,,3,,,75,127
2845,note_on,45,0,0,,3,,,75,127
2860,note_off,15,0,0,,5,,,77,127
2905,note_on,45,0,0,,2,,,74,127
2920,note_off,15,0,0,,3,,,75,127
2965,note_on,45,0,0,,3,,,75,127
2980,note_off,15,0,0,,2,,,74,127
3025,note_off,45,0,0,,3,,,75,127
3025,note_on,0,0,0,,2,,,74,127
3086,note_off,61,0,0,,5,,,53,127
3268,note_on,182,0,0,,11,,,58,127
3509,note_off,241,0,0,,11,,,58,127
3510,note_on,1,0,0,,2,,,62,127
3701,note_off,191,0,0,,2,,,74,127
3752,note_off,51,0,0,,2,,,62,127
3753,note_on,1,0,0,,11,,,58,127
3753,note_on,0,0,0,,11,,,82,127
3873,note_off,120,0,0,,11,,,82,127
3874,note_on,1,0,0,,10,,,81,127
3994,note_off,120,0,0,,10,,,81,127
3994,note_off,0,0,0,,11,,,58,127
3995,note_on,1,0,0,,3,,,63,127
3995,note_on,0,0,0,,7,,,79,127
4115,note_off,120,0,0,,7,,,79,127
4116,note_on,1,0,0,,5,,,77,127
4236,note_off,120,0,0,,5,,,77,127
4236,note_off,0,0,0,,3,,,63,127
4237,note_on,1,0,0,,2,,,62,127
4237,note_on,0,0,0,,3,,,75,127
4357,note_off,120,0,0,,3,,,75,127
4358,note_on,1,0,0,,2,,,74,127
4478,note_off,120,0,0,,2,,,74,127
4478,note_off,0,0,0,,2,,,62,127
4479,note_on,1,0,0,,0,,,60,127
4479,note_on,0,0,0,,5,,,77,127
4540,note_on,61,0,0,,3,,,75,127
4555,note_off,15,0,0,,5,,,77,127
4600,note_on,45,0,0,,5,,,77,127
4615,note_off,15,0,0,,3,,,75,127
4660,note_on,45,0,0,,3,,,75,127
4675,note_off,15,0,0,,5,,,77,127
4719,note_off,44,0,0,,0,,,60,127
4720,note_on,1,0,0,,5,,,53,127
4720,note_on,0,0,0,,5,,,77,127
4735,note_off,15,0,0,,3,,,75,127
4780,note_on,45,0,0,,3,,,75,127
4795,note_off,15,0,0,,5,,,77,127
4840,note_on,45,0,0,,2,,,74,127
4855,note_off,15,0,0,,3,,,75,127
4900,note_on,45,0,0,,3,,,75,127
4915,note_off,15,0,0,,2,,,74,127
4960,note_off,45,0,0,,3,,,75,127
4960,note_on,0,0,0,,2,,,74,127
5021,note_off,61,0,0,,5,,,53,127
5202,note_off,181,0,0,,2,,,74,127
5203,note_on,1,0,0,,11,,,58,127
5203,note_on,0,0,0,,2,,,86,127
5323,note_off,120,0,0,,2,,,86,127
5324,note_on,1,0,0,,0,,,84,127
5444,note_off,120,0,0,,0,,,84,127
5444,note_off,0,0,0,,11,,,58,127
5445,note_on,1,0,0,,2,,,62,127
5445,note_on,0,0,0,,11,,,82,127
5565,note_off,120,0,0,,11,,,82,127
5566,note_on,1,0,0,,10,,,81,127
5686,note_off,120,0,0,,10,,,81,127
5686,note_off,0,0,0,,2,,,62,127
5687,note_on,1,0,0,,11,,,58,127
5687,note_on,0,0,0,,7,,,79,127
5807,note_off,120,0,0,,7,,,79,127
5808,note_on,1,0,0,,5,,,77,127
5928,note_off,120,0,0,,5,,,77,127
5928,note_off,0,0,0,,11,,,58,127
5929,note_on,1,0,0,,3,,,63,127
5929,note_on,0,0,0,,7,,,79,127
6170,note_off,241,0,0,,7,,,79,127
6170,note_off,0,0,0,,3,,,63,127
6171,note_on,1,0,0,,2,,,62,127
6171,note_on,0,0,0,,5,,,77,127
6412,note_off,241,0,0,,2,,,62,127
6413,note_on,1,0,0,,0,,,60,127
6474,note_on,61,0,0,,3,,,75,127
6487,note_off,13,0,0,,5,,,77,127
6535,note_on,48,0,0,,5,,,77,127
6550,note_off,15,0,0,,3,,,75,127
6595,note_on,45,0,0,,3,,,75,127
6610,note_off,15,0,0,,5,,,77,127
6654,note_off,44,0,0,,0,,,60,127
6655,note_on,1,0,0,,5,,,53,127
6655,note_on,0,0,0,,5,,,77,127
6670,note_off,15,0,0,,3,,,75,127
6715,note_on,45,0,0,,3,,,75,127
6730,note_off,15,0,0,,5,,,77,127
6775,note_on,45,0,0,,2,,,74,127
6790,note_off,15,0,0,,3,,,75,127
6835,note_on,45,0,0,,3,,,75,127
6850,note_off,15,0,0,,2,,,74,127
6895,note_off,45,0,0,,3,,,75,127
6895,note_on,0,0,0,,2,,,74,127
6956,note_off,61,0,0,,5,,,53,127
7138,note_on,182,0,0,,11,,,58,127
7379,note_off,241,0,0,,11,,,58,127
7380,note_on,1,0,0,,2,,,62,127
7511,note_off,131,0,0,,2,,,74,127
7621,note_off,110,0,0,,2,,,62,127
7622,note_on,1,0,0,,11,,,58,127
7622,note_on,0,0,0,,5,,,77,127
7863,note_off,241,0,0,,5,,,77,127
7864,note_on,1,0,0,,7,,,79,127
7984,note_off,120,0,0,,7,,,79,127
7985,note_off,1,0,0,,11,,,58,127
7985,note_on,0,0,0,,5,,,77,127
8105,note_off,120,0,0,,5,,,77,127
8106,note_on,1,0,0,,3,,,51,127
8106,note_on,0,0,0,,3,,,75,127
8347,note_off,241,0,0,,3,,,51,127
8348,note_on,1,0,0,,7,,,55,127
8539,note_off,191,0,0,,3,,,75,127
8590,note_off,51,0,0,,7,,,55,127
8591,note_on,1,0,0,,3,,,51,127
8591,note_on,0,0,0,,11,,,82,127
8832,note_off,241,0,0,,11,,,82,127
8833,note_on,1,0,0,,10,,,81,127
8953,note_off,120,0,0,,10,,,81,127
8954,note_off,1,0,0,,3,,,51,127
8954,note_on,0,0,0,,11,,,82,127
9074,note_off,120,0,0,,11,,,82,127
9075,note_on,1,0,0,,5,,,53,127
9075,note_on,0,0,0,,0,,,84,127
9316,note_off,241,0,0,,5,,,53,127
9317,note_on,1,0,0,,10,,,57,127
9508,note_off,191,0,0,,0,,,84,127
9559,note_off,51,0,0,,10,,,57,127
9560,note_on,1,0,0,,5,,,53,127
9560,note_on,0,0,0,,0,,,72,127
9801,note_off,241,0,0,,0,,,72,127
9802,note_on,1,0,0,,2,,,74,127
9922,note_off,120,0,0,,2,,,74,127
9923,note_off,1,0,0,,5,,,53,127
9923,note_on,0,0,0,,3,,,75,127
10043,note_off,120,0,0,,3,,,75,127
10044,note_on,1,0,0,,11,,,58,127
10044,note_on,0,0,0,,5,,,77,127
10285,note_off,241,0,0,,11,,,58,127
10286,note_on,1,0,0,,2,,,62,127
10477,note_off,191,0,0,,5,,,77,127
10528,note_off,51,0,0,,2,,,62,127
10529,note_on,1,0,0,,11,,,58,127
10529,note_on,0,0,0,,6,,,78,127
10770,note_off,241,0,0,,6,,,78,127
10771,note_on,1,0,0,,7,,,79,127
10806,note_off,35,0,0,,11,,,58,127
10891,note_off,85,0,0,,7,,,79,127
10892,note_on,1,0,0,,5,,,77,127
11012,note_off,120,0,0,,5,,,77,127
11013,note_on,1,0,0,,3,,,51,127
11013,note_on,0,0,0,,3,,,75,127
11254,note_off,241,0,0,,3,,,51,127
11255,note_on,1,0,0,,7,,,55,127
11446,note_off,191,0,0,,3,,,75,127
11497,note_off,51,0,0,,7,,,55,127
11498,note_on,1,0,0,,3,,,51,127
11498,note_on,0,0,0,,11,,,82,127
11739,note_off,241,0,0,,11,,,82,127
11739,note_off,0,0,0,,3,,,51,127
11740,note_on,1,0,0,,5,,,53,127
11740,note_on,0,0,0,,11,,,82,127
11860,note_off,120,0,0,,11,,,82,127
11861,note_on,1,0,0,,10,,,81,127
11981,note_off,120,0,0,,10,,,81,127
11982,note_on,1,0,0,,0,,,84,127
12102,note_off,120,0,0,,0,,,84,127
12103,note_on,1,0,0,,11,,,82,127
12223,note_off,120,0,0,,11,,,82,127
12224,note_on,1,0,0,,5,,,41,127
12224,note_on,0,0,0,,10,,,81,127
12344,note_off,120,0,0,,10,,,81,127
12345,note_on,1,0,0,,7,,,79,127
12465,note_off,120,0,0,,7,,,79,127
12466,note_on,1,0,0,,5,,,77,127
12586,note_off,120,0,0,,5,,,77,127
12587,note_on,1,0,0,,3,,,75,127
12703,note_off,116,0,0,,5,,,41,127
12707,note_off,4,0,0,,3,,,75,127
12707,note_off,0,0,0,,5,,,53,127
12708,note_on,1,0,0,,2,,,74,127
12828,note_off,120,0,0,,2,,,74,127
12829,note_on,1,0,0,,0,,,72,127
12949,note_off,120,0,0,,0,,,72,127
12950,note_on,1,0,0,,11,,,58,127
12950,note_on,0,0,0,,11,,,70,127
13191,note_off,241,0,0,,11,,,58,127
13192,note_on,1,0,0,,2,,,62,127
13313,note_off,121,0,0,,11,,,70,127
13433,note_off,120,0,0,,2,,,62,127
13434,note_on,1,0,0,,11,,,58,127
13434,note_on,0,0,0,,11,,,82,127
13675,note_off,241,0,0,,11,,,82,127
13676,note_on,1,0,0,,4,,,76,127
13797,note_off,121,0,0,,11,,,58,127
13917,note_off,120,0,0,,4,,,76,127
13918,note_on,1,0,0,,0,,,60,127
13918,note_on,0,0,0,,11,,,82,127
14159,note_off,241,0,0,,0,,,60,127
14160,note_on,1,0,0,,4,,,64,127
14351,note_off,191,0,0,,11,,,82,127
14402,note_off,51,0,0,,4,,,64,127
14403,note_on,1,0,0,,0,,,60,127
14403,note_on,0,0,0,,11,,,82,127
14644,note_off,241,0,0,,11,,,82,127
14645,note_on,1,0,0,,5,,,77,127
14766,note_off,121,0,0,,0,,,60,127
14886,note_off,120,0,0,,5,,,77,127
14887,note_on,1,0,0,,2,,,62,127
14887,note_on,0,0,0,,11,,,82,127
15128,note_off,241,0,0,,2,,,62,127
15129,note_on,1,0,0,,5,,,65,127
15320,note_off,191,0,0,,11,,,82,127
15371,note_off,51,0,0,,5,,,65,127
15372,note_on,1,0,0,,2,,,62,127
15372,note_on,0,0,0,,11,,,82,127
15613,note_off,241,0,0,,11,,,82,127
15614,note_on,1,0,0,,11,,,82,127
15734,note_off,120,0,0,,11,,,82,127
15735,note_off,1,0,0,,2,,,62,127
15735,note_on,0,0,0,,10,,,81,127
15855,note_off,120,0,0,,10,,,81,127
15856,note_on,1,0,0,,0,,,48,127
15856,note_on,0,0,0,,7,,,79,127
15976,note_off,120,0,0,,7,,,79,127
15977,note_on,1,0,0,,5,,,77,127
16097,note_off,120,0,0,,5,,,77,127
16097,note_off,0,0,0,,0,,,48,127
16098,note_on,1,0,0,,2,,,50,127
16098,note_on,0,0,0,,4,,,76,127
16218,note_off,120,0,0,,4,,,76,127
16219,note_on,1,0,0,,2,,,74,127
16339,note_off,120,0,0,,2,,,74,127
16339,note_off,0,0,0,,2,,,50,127
16340,note_on,1,0,0,,4,,,52,127
16340,note_on,0,0,0,,0,,,72,127
16460,note_off,120,0,0,,0,,,72,127
16461,note_on,1,0,0,,11,,,70,127
16581,note_off,120,0,0,,11,,,70,127
16582,note_on,1,0,0,,0,,,72,127
16643,note_on,61,0,0,,11,,,70,127
16658,note_off,15,0,0,,0,,,72,127
16703,note_off,45,0,0,,4,,,52,127
16703,note_on,0,0,0,,10,,,69,127
16718,note_off,15,0,0,,11,,,70,127
16763,note_on,45,0,0,,11,,,70,127
16778,note_off,15,0,0,,10,,,69,127
16823,note_off,45,0,0,,11,,,70,127
16823,note_on,0,0,0,,5,,,53,127
16823,note_on,0,0,0,,10,,,69,127
17064,note_off,241,0,0,,5,,,53,127
17065,note_on,1,0,0,,10,,,57,127
17186,note_off,121,0,0,,10,,,69,127
17306,note_off,120,0,0,,10,,,57,127
17307,note_on,1,0,0,,5,,,53,127
17307,note_on,0,0,0,,0,,,72,127
17548,note_off,241,0,0,,0,,,72,127
17549,note_on,1,0,0,,1,,,73,127
17670,note_off,121,0,0,,5,,,53,127
17790,note_off,120,0,0,,1,,,73,127
17791,note_on,1,0,0,,11,,,58,127
17791,note_on,0,0,0,,2,,,74,127
18032,note_off,241,0,0,,11,,,58,127
18033,note_on,1,0,0,,2,,,62,127
18224,note_off,191,0,0,,2,,,74,127
18275,note_off,51,0,0,,2,,,62,127
18276,note_on,1,0,0,,11,,,58,127
18276,note_on,0,0,0,,2,,,74,127
18517,note_off,241,0,0,,2,,,74,127
18518,note_on,1,0,0,,5,,,77,127
18579,note_on,61,0,0,,4,,,76,127
18594,note_off,15,0,0,,5,,,77,127
18639,note_off,45,0,0,,11,,,58,127
18639,note_on,0,0,0,,5,,,77,127
18654,note_off,15,0,0,,4,,,76,127
18699,note_on,45,0,0,,4,,,76,127
18714,note_off,15,0,0,,5,,,77,127
18759,note_on,45,0,0,,0,,,60,127
18875,note_off,116,0,0,,4,,,76,127
18880,note_on,5,0,0,,4,,,76,127
19000,note_off,120,0,0,,4,,,76,127
19000,note_off,0,0,0,,0,,,60,127
19001,note_on,1,0,0,,10,,,57,127
19001,note_on,0,0,0,,7,,,79,127
19062,note_on,61,0,0,,5,,,77,127
19077,note_off,15,0,0,,7,,,79,127
19122,note_on,45,0,0,,7,,,79,127
19137,note_off,15,0,0,,5,,,77,127
19182,note_on,45,0,0,,5,,,77,127
19197,note_off,15,0,0,,7,,,79,127
19241,note_off,44,0,0,,10,,,57,127
19242,note_on,1,0,0,,5,,,53,127
19358,note_off,116,0,0,,5,,,77,127
19363,note_on,5,0,0,,5,,,77,127
19483,note_off,120,0,0,,5,,,77,127
19483,note_off,0,0,0,,5,,,53,127
19484,note_on,1,0,0,,4,,,52,127
19484,note_on,0,0,0,,10,,,81,127
19545,note_on,61,0,0,,7,,,79,127
19560,note_off,15,0,0,,10,,,81,127
19605,note_on,45,0,0,,10,,,81,127
19620,note_off,15,0,0,,7,,,79,127
19665,note_on,45,0,0,,7,,,79,127
19680,note_off,15,0,0,,10,,,81,127
19724,note_off,44,0,0,,4,,,52,127
19725,note_on,1,0,0,,0,,,48,127
19841,note_off,116,0,0,,7,,,79,127
19846,note_on,5,0,0,,7,,,79,127
19966,note_off,120,0,0,,7,,,79,127
19966,note_off,0,0,0,,0,,,48,127
19967,note_on,1,0,0,,5,,,53,127
19967,note_on,0,0,0,,11,,,82,127
20028,note_on,61,0,0,,10,,,81,127
20043,note_off,15,0,0,,11,,,82,127
20088,note_on,45,0,0,,11,,,82,127
20103,note_off,15,0,0,,10,,,81,127
20148,note_on,45,0,0,,10,,,81,127
20163,note_off,15,0,0,,11,,,82,127
20207,note_off,44,0,0,,5,,,53,127
20208,note_on,1,0,0,,11,,,58,127
20324,note_off,116,0,0,,10,,,81,127
20329,note_on,5,0,0,,11,,,82,127
20449,note_off,120,0,0,,11,,,82,127
20449,note_off,0,0,0,,11,,,58,127
20450,note_on,1,0,0,,0,,,60,127
20450,note_on,0,0,0,,10,,,81,127
20511,note_on,61,0,0,,7,,,79,127
20526,note_off,15,0,0,,10,,,81,127
20571,note_on,45,0,0,,10,,,81,127
20586,note_off,15,0,0,,7,,,79,127
20631,note_on,45,0,0,,7,,,79,127
20646,note_off,15,0,0,,10,,,81,127
20690,note_off,44,0,0,,0,,,60,127
20691,note_on,1,0,0,,4,,,64,127
20807,note_off,116,0,0,,7,,,79,127
20812,note_on,5,0,0,,7,,,79,127
20932,note_off,120,0,0,,7,,,79,127
20932,note_off,0,0,0,,4,,,64,127
20933,note_on,1,0,0,,5,,,65,127
20933,note_on,0,0,0,,11,,,82,127
20994,note_on,61,0,0,,10,,,81,127
21009,note_off,15,0,0,,11,,,82,127
21054,note_on,45,0,0,,11,,,82,127
21069,note_off,15,0,0,,10,,,81,127
21114,note_on,45,0,0,,10,,,81,127
21129,note_off,15,0,0,,11,,,82,127
21173,note_off,44,0,0,,5,,,65,127
21174,note_on,1,0,0,,11,,,58,127
21290,note_off,116,0,0,,10,,,81,127
21295,note_on,5,0,0,,11,,,82,127
21415,note_off,120,0,0,,11,,,82,127
21415,note_off,0,0,0,,11,,,58,127
21416,note_on,1,0,0,,0,,,60,127
21416,note_on,0,0,0,,10,,,81,127
21477,note_on,61,0,0,,7,,,79,127
21492,note_off,15,0,0,,10,,,81,127
21537,note_on,45,0,0,,10,,,81,127
21552,note_off,15,0,0,,7,,,79,127
21597,note_on,45,0,0,,7,,,79,127
21612,note_off,15,0,0,,10,,,81,127
21656,note_off,44,0,0,,0,,,60,127
21657,note_on,1,0,0,,4,,,52,127
21773,note_off,116,0,0,,7,,,79,127
21778,note_on,5,0,0,,7,,,79,127
21898,note_off,120,0,0,,7,,,79,127
21898,note_off,0,0,0,,4,,,52,127
21899,note_on,1,0,0,,5,,,53,127
21899,note_on,0,0,0,,11,,,82,127
21960,note_on,61,0,0,,10,,,81,127
21975,note_off,15,0,0,,11,,,82,127
22020,note_on,45,0,0,,11,,,82,127
22035,note_off,15,0,0,,10,,,81,127
22080,note_on,45,0,0,,10,,,81,127
22095,note_off,15,0,0,,11,,,82,127
22139,note_off,44,0,0,,5,,,53,127
22140,note_on,1,0,0,,11,,,46,127
22256,note_off,116,0,0,,10,,,81,127
22261,note_on,5,0,0,,11,,,82,127
22381,note_off,120,0,0,,11,,,82,127
22381,note_off,0,0,0,,11,,,46,127
22382,note_on,1,0,0,,0,,,36,127
22382,note_on,0,0,0,,10,,,81,127
22443,note_on,61,0,0,,7,,,79,127
22458,note_off,15,0,0,,10,,,81,127
22503,note_on,45,0,0,,10,,,81,127
22518,note_off,15,0,0,,7,,,79,127
22563,note_on,45,0,0,,7,,,79,127
22578,note_off,15,0,0,,10,,,81,127
22623,note_on,45,0,0,,10,,,81,127
22638,note_off,15,0,0,,7,,,79,127
22683,note_on,45,0,0,,7,,,79,127
22698,note_off,15,0,0,,10,,,81,127
23047,note_off,349,0,0,,7,,,79,127
23106,note_off,59,0,0,,0,,,36,127
23107,note_on,1,0,0,,7,,,79,127
23348,note_off,241,0,0,,7,,,79,127
23349,note_on,1,0,0,,0,,,84,127
23590,note_off,241,0,0,,0,,,84,127
23591,note_on,1,0,0,,5,,,65,127
23591,note_on,0,0,0,,8,,,80,127
23832,note_off,241,0,0,,5,,,65,127
23833,note_on,1,0,0,,1,,,61,127
24024,note_off,191,0,0,,8,,,80,127
24075,note_off,51,0,0,,1,,,61,127
24076,note_on,1,0,0,,11,,,58,127
24076,note_on,0,0,0,,5,,,77,127
24317,note_off,241,0,0,,5,,,77,127
24318,note_on,1,0,0,,7,,,79,127
24379,note_on,61,0,0,,5,,,77,127
24394,note_off,15,0,0,,7,,,79,127
24439,note_off,45,0,0,,11,,,58,127
24439,note_on,0,0,0,,4,,,76,127
24454,note_off,15,0,0,,5,,,77,127
24499,note_on,45,0,0,,5,,,77,127
24514,note_off,15,0,0,,4,,,76,127
24559,note_off,45,0,0,,5,,,77,127
24559,note_on,0,0,0,,7,,,67,127
24559,note_on,0,0,0,,4,,,76,127
24800,note_off,241,0,0,,7,,,67,127
24801,note_on,1,0,0,,4,,,64,127
24992,note_off,191,0,0,,4,,,76,127
25043,note_off,51,0,0,,4,,,64,127
25044,note_on,1,0,0,,0,,,60,127
25044,note_on,0,0,0,,11,,,82,127
25285,note_off,241,0,0,,11,,,82,127
25286,note_on,1,0,0,,1,,,85,127
25407,note_off,121,0,0,,0,,,60,127
25527,note_off,120,0,0,,1,,,85,127
25528,note_on,1,0,0,,7,,,67,127
25528,note_on,0,0,0,,11,,,82,127
25769,note_off,241,0,0,,7,,,67,127
25770,note_on,1,0,0,,4,,,64,127
25961,note_off,191,0,0,,11,,,82,127
26012,note_off,51,0,0,,4,,,64,127
26013,note_on,1,0,0,,0,,,60,127
26013,note_on,0,0,0,,7,,,79,127
26254,note_off,241,0,0,,7,,,79,127
26255,note_on,1,0,0,,7,,,79,127
26376,note_off,121,0,0,,0,,,60,127
26496,note_off,120,0,0,,7,,,79,127
26497,note_on,1,0,0,,5,,,53,127
26497,note_on,0,0,0,,8,,,80,127
26738,note_off,241,0,0,,5,,,53,127
26739,note_on,1,0,0,,8,,,56,127
26930,note_off,191,0,0,,8,,,80,127
26981,note_off,51,0,0,,8,,,56,127
26982,note_on,1,0,0,,5,,,53,127
26982,note_on,0,0,0,,0,,,84,127
27223,note_off,241,0,0,,0,,,84,127
27223,note_off,0,0,0,,5,,,53,127
27224,note_on,1,0,0,,11,,,58,127
27224,note_on,0,0,0,,11,,,82,127
27344,note_off,120,0,0,,11,,,82,127
27345,note_on,1,0,0,,1,,,85,127
27465,note_off,120,0,0,,1,,,85,127
27465,note_off,0,0,0,,11,,,58,127
27466,note_on,1,0,0,,1,,,61,127
27466,note_on,0,0,0,,7,,,79,127
27586,note_off,120,0,0,,7,,,79,127
27587,note_on,1,0,0,,11,,,82,127
27707,note_off,120,0,0,,11,,,82,127
27707,note_off,0,0,0,,1,,,61,127
27708,note_on,1,0,0,,0,,,60,127
27708,note_on,0,0,0,,5,,,77,127
27951,note_on,243,0,0,,0,,,48,127
28012,note_on,61,0,0,,4,,,76,127
28025,note_off,13,0,0,,5,,,77,127
28073,note_on,48,0,0,,5,,,77,127
28088,note_off,15,0,0,,4,,,76,127
28133,note_on,45,0,0,,4,,,76,127
28148,note_off,15,0,0,,5,,,77,127
28183,note_off,35,0,0,,4,,,76,127
28188,note_off,5,0,0,,0,,,60,127
28192,note_off,4,0,0,,0,,,48,127
28193,note_on,1,0,0,,5,,,53,127
28193,note_on,0,0,0,,4,,,76,127
28434,note_off,241,0,0,,4,,,76,127
28434,note_off,0,0,0,,5,,,53,127
28435,note_on,1,0,0,,0,,,48,127
28435,note_on,0,0,0,,5,,,77,127
28676,note_off,241,0,0,,0,,,48,127
28677,note_on,1,0,0,,5,,,41,127
28798,note_off,121,0,0,,5,,,77,127
28919,note_on,121,0,0,,1,,,85,127
29148,note_off,229,0,0,,5,,,41,127
29161,note_off,13,0,0,,1,,,85,127
29162,note_on,1,0,0,,0,,,84,127
29403,note_off,241,0,0,,0,,,84,127
29404,note_on,1,0,0,,5,,,65,127
29404,note_on,0,0,0,,8,,,80,127
29645,note_off,241,0,0,,5,,,65,127
29646,note_on,1,0,0,,1,,,61,127
29837,note_off,191,0,0,,8,,,80,127
29888,note_off,51,0,0,,1,,,61,127
29889,note_on,1,0,0,,11,,,58,127
29889,note_on,0,0,0,,5,,,77,127
30130,note_off,241,0,0,,5,,,77,127
30131,note_on,1,0,0,,7,,,79,127
30192,note_on,61,0,0,,5,,,77,127
30207,note_off,15,0,0,,7,,,79,127
30252,note_off,45,0,0,,11,,,58,127
30252,note_on,0,0,0,,4,,,76,127
30267,note_off,15,0,0,,5,,,77,127
30312,note_on,45,0,0,,5,,,77,127
30327,note_off,15,0,0,,4,,,76,127
30372,note_off,45,0,0,,5,,,77,127
30372,note_on,0,0,0,,7,,,67,127
30372,note_on,0,0,0,,4,,,76,127
30613,note_off,241,0,0,,7,,,67,127
30614,note_on,1,0,0,,4,,,64,127
30805,note_off,191,0,0,,4,,,76,127
30856,note_off,51,0,0,,4,,,64,127
30857,note_on,1,0,0,,0,,,60,127
30857,note_on,0,0,0,,11,,,82,127
31098,note_off,241,0,0,,11,,,82,127
31099,note_on,1,0,0,,1,,,85,127
31220,note_off,121,0,0,,0,,,60,127
31340,note_off,120,0,0,,1,,,85,127
31341,note_on,1,0,0,,7,,,67,127
31341,note_on,0,0,0,,11,,,82,127
31582,note_off,241,0,0,,7,,,67,127
31583,note_on,1,0,0,,4,,,64,127
31774,note_off,191,0,0,,11,,,82,127
31825,note_off,51,0,0,,4,,,64,127
31826,note_on,1,0,0,,0,,,60,127
31826,note_on,0,0,0,,7,,,79,127
32067,note_off,241,0,0,,7,,,79,127
32068,note_on,1,0,0,,7,,,79,127
32189,note_off,121,0,0,,0,,,60,127
32309,note_off,120,0,0,,7,,,79,127
32310,note_on,1,0,0,,5,,,53,127
32310,note_on,0,0,0,,8,,,80,127
32551,note_off,241,0,0,,5,,,53,127
32552,note_on,1,0,0,,8,,,56,127
32744,note_off,192,0,0,,8,,,80,127
32793,note_off,49,0,0,,8,,,56,127
32794,note_on,1,0,0,,5,,,53,127
32794,note_on,0,0,0,,0,,,84,127
33035,note_off,241,0,0,,0,,,84,127
33035,note_off,0,0,0,,5,,,53,127
33036,note_on,1,0,0,,11,,,58,127
33036,note_on,0,0,0,,11,,,82,127
33156,note_off,120,0,0,,11,,,82,127
33157,note_on,1,0,0,,1,,,85,127
33277,note_off,120,0,0,,1,,,85,127
33277,note_off,0,0,0,,11,,,58,127
33278,note_on,1,0,0,,1,,,61,127
33278,note_on,0,0,0,,7,,,79,127
33398,note_off,120,0,0,,7,,,79,127
33399,note_on,1,0,0,,11,,,82,127
33519,note_off,120,0,0,,11,,,82,127
33519,note_off,0,0,0,,1,,,61,127
33520,note_on,1,0,0,,0,,,60,127
33520,note_on,0,0,0,,5,,,77,127
33761,note_off,241,0,0,,5,,,77,127
33762,note_on,1,0,0,,0,,,48,127
33762,note_on,0,0,0,,5,,,77,127
33823,note_on,61,0,0,,4,,,76,127
33838,note_off,15,0,0,,5,,,77,127
33883,note_on,45,0,0,,5,,,77,127
33898,note_off,15,0,0,,4,,,76,127
33943,note_on,45,0,0,,4,,,76,127
33958,note_off,15,0,0,,5,,,77,127
33998,note_off,40,0,0,,0,,,60,127
34003,note_on,5,0,0,,7,,,79,127
34018,note_off,15,0,0,,4,,,76,127
34063,note_on,45,0,0,,5,,,77,127
34078,note_off,15,0,0,,7,,,79,127
34123,note_off,45,0,0,,0,,,48,127
34123,note_on,0,0,0,,7,,,79,127
34138,note_off,15,0,0,,5,,,77,127
34183,note_on,45,0,0,,5,,,77,127
34198,note_off,15,0,0,,7,,,79,127
34243,note_on,45,0,0,,5,,,53,127
34359,note_off,116,0,0,,5,,,77,127
34364,note_on,5,0,0,,5,,,77,127
34484,note_off,120,0,0,,5,,,77,127
34484,note_off,0,0,0,,5,,,53,127
34485,note_on,1,0,0,,4,,,52,127
34485,note_on,0,0,0,,10,,,81,127
34546,note_on,61,0,0,,7,,,79,127
34561,note_off,15,0,0,,10,,,81,127
34606,note_on,45,0,0,,10,,,81,127
34621,note_off,15,0,0,,7,,,79,127
34666,note_on,45,0,0,,7,,,79,127
34681,note_off,15,0,0,,10,,,81,127
34725,note_off,44,0,0,,4,,,52,127
34726,note_on,1,0,0,,0,,,48,127
34842,note_off,116,0,0,,7,,,79,127
34847,note_on,5,0,0,,7,,,79,127
34967,note_off,120,0,0,,7,,,79,127
34967,note_off,0,0,0,,0,,,48,127
34968,note_on,1,0,0,,5,,,53,127
34968,note_on,0,0,0,,11,,,82,127
35029,note_on,61,0,0,,10,,,81,127
35044,note_off,15,0,0,,11,,,82,127
35089,note_on,45,0,0,,11,,,82,127
35104,note_off,15,0,0,,10,,,81,127
35149,note_on,45,0,0,,10,,,81,127
35164,note_off,15,0,0,,11,,,82,127
35208,note_off,44,0,0,,5,,,53,127
35209,note_on,1,0,0,,11,,,46,127
35325,note_off,116,0,0,,10,,,81,127
35330,note_on,5,0,0,,11,,,82,127
35450,note_off,120,0,0,,11,,,82,127
35450,note_off,0,0,0,,11,,,46,127
35451,note_on,1,0,0,,0,,,48,127
35451,note_on,0,0,0,,10,,,81,127
35512,note_on,61,0,0,,7,,,79,127
35527,note_off,15,0,0,,10,,,81,127
35572,note_on,45,0,0,,10,,,81,127
35587,note_off,15,0,0,,7,,,79,127
35632,note_on,45,0,0,,7,,,79,127
35647,note_off,15,0,0,,10,,,81,127
35691,note_off,44,0,0,,0,,,48,127
35692,note_on,1,0,0,,4,,,52,127
35808,note_off,116,0,0,,7,,,79,127
35813,note_on,5,0,0,,7,,,79,127
35933,note_off,120,0,0,,7,,,79,127
35933,note_off,0,0,0,,4,,,52,127
35934,note_on,1,0,0,,5,,,53,127
35934,note_on,0,0,0,,11,,,82,127
35995,note_on,61,0,0,,10,,,81,127
36010,note_off,15,0,0,,11,,,82,127
36055,note_on,45,0,0,,11,,,82,127
36070,note_off,15,0,0,,10,,,81,127
36115,note_on,45,0,0,,10,,,81,127
36130,note_off,15,0,0,,11,,,82,127
36174,note_off,44,0,0,,5,,,53,127
36175,note_on,1,0,0,,11,,,46,127
36291,note_off,116,0,0,,10,,,81,127
36296,note_on,5,0,0,,11,,,82,127
36416,note_off,120,0,0,,11,,,82,127
36416,note_off,0,0,0,,11,,,46,127
36417,note_on,1,0,0,,0,,,48,127
36417,note_on,0,0,0,,10,,,81,127
36478,note_on,61,0,0,,7,,,79,127
36493,note_off,15,0,0,,10,,,81,127
36538,note_on,45,0,0,,10,,,81,127
36553,note_off,15,0,0,,7,,,79,127
36598,note_on,45,0,0,,7,,,79,127
36613,note_off,15,0,0,,10,,,81,127
36657,note_off,44,0,0,,0,,,48,127
36658,note_on,1,0,0,,4,,,52,127
36774,note_off,116,0,0,,7,,,79,127
36779,note_on,5,0,0,,7,,,79,127
36899,note_off,120,0,0,,7,,,79,127
36899,note_off,0,0,0,,4,,,52,127
36900,note_on,1,0,0,,5,,,53,127
36900,note_on,0,0,0,,10,,,81,127
37020,note_off,120,0,0,,10,,,81,127
37021,note_on,1,0,0,,0,,,84,127
37141,note_off,120,0,0,,0,,,84,127
37142,note_on,1,0,0,,10,,,81,127
37262,note_off,120,0,0,,10,,,81,127
37263,note_on,1,0,0,,7,,,79,127
37379,note_off,116,0,0,,5,,,53,127
37383,note_off,4,0,0,,7,,,79,127
37384,note_on,1,0,0,,5,,,77,127
37504,note_off,120,0,0,,5,,,77,127
37505,note_on,1,0,0,,4,,,76,127
37625,note_off,120,0,0,,4,,,76,127
37626,note_on,1,0,0,,10,,,57,127
37626,note_on,0,0,0,,2,,,74,127
37746,note_off,120,0,0,,2,,,74,127
37747,note_on,1,0,0,,1,,,73,127
37867,note_off,120,0,0,,1,,,73,127
37867,note_off,0,0,0,,10,,,57,127
37868,note_on,1,0,0,,11,,,58,127
37868,note_on,0,0,0,,2,,,74,127
37988,note_off,120,0,0,,2,,,74,127
37989,note_on,1,0,0,,4,,,76,127
38109,note_off,120,0,0,,4,,,76,127
38110,note_on,1,0,0,,11,,,46,127
38110,note_on,0,0,0,,5,,,77,127
38230,note_off,120,0,0,,5,,,77,127
38231,note_on,1,0,0,,7,,,79,127
38347,note_off,116,0,0,,11,,,58,127
38351,note_off,4,0,0,,7,,,79,127
38351,note_off,0,0,0,,11,,,46,127
38352,note_on,1,0,0,,0,,,60,127
38352,note_on,0,0,0,,10,,,81,127
38413,note_on,61,0,0,,7,,,79,127
38428,note_off,15,0,0,,10,,,81,127
38473,note_on,45,0,0,,10,,,81,127
38488,note_off,15,0,0,,7,,,79,127
38533,note_on,45,0,0,,7,,,79,127
38548,note_off,15,0,0,,10,,,81,127
38592,note_off,44,0,0,,0,,,60,127
38593,note_on,1,0,0,,0,,,48,127
38593,note_on,0,0,0,,10,,,81,127
38608,note_off,15,0,0,,7,,,79,127
38653,note_on,45,0,0,,7,,,79,127
38668,note_off,15,0,0,,10,,,81,127
38713,note_on,45,0,0,,5,,,77,127
38728,note_off,15,0,0,,7,,,79,127
38773,note_on,45,0,0,,7,,,79,127
38788,note_off,15,0,0,,5,,,77,127
38832,note_off,44,0,0,,0,,,48,127
38833,note_off,1,0,0,,7,,,79,127
38833,note_on,0,0,0,,5,,,53,127
38833,note_on,0,0,0,,10,,,81,127
38953,note_off,120,0,0,,10,,,81,127
38954,note_on,1,0,0,,0,,,84,127
39074,note_off,120,0,0,,0,,,84,127
39075,note_on,1,0,0,,10,,,81,127
39195,note_off,120,0,0,,10,,,81,127
39196,note_on,1,0,0,,7,,,79,127
39316,note_off,120,0,0,,7,,,79,127
39317,note_on,1,0,0,,5,,,77,127
39437,note_off,120,0,0,,5,,,77,127
39438,note_on,1,0,0,,4,,,76,127
39558,note_off,120,0,0,,4,,,76,127
39558,note_off,0,0,0,,5,,,53,127
39559,note_on,1,0,0,,10,,,57,127
39559,note_on,0,0,0,,2,,,74,127
39679,note_off,120,0,0,,2,,,74,127
39680,note_on,1,0,0,,1,,,73,127
39800,note_off,120,0,0,,1,,,73,127
39800,note_off,0,0,0,,10,,,57,127
39801,note_on,1,0,0,,11,,,58,127
39801,note_on,0,0,0,,2,,,74,127
39921,note_off,120,0,0,,2,,,74,127
39922,note_on,1,0,0,,2,,,86,127
40042,note_off,120,0,0,,2,,,86,127
40043,note_on,1,0,0,,11,,,46,127
40043,note_on,0,0,0,,11,,,82,127
40163,note_off,120,0,0,,11,,,82,127
40164,note_on,1,0,0,,7,,,79,127
40280,note_off,116,0,0,,11,,,58,127
40284,note_off,4,0,0,,7,,,79,127
40284,note_off,0,0,0,,11,,,46,127
40285,note_on,1,0,0,,0,,,48,127
40285,note_on,0,0,0,,5,,,77,127
40528,note_on,243,0,0,,0,,,36,127
40589,note_on,61,0,0,,4,,,76,127
40602,note_off,13,0,0,,5,,,77,127
40650,note_on,48,0,0,,5,,,77,127
40665,note_off,15,0,0,,4,,,76,127
40710,note_on,45,0,0,,4,,,76,127
40725,note_off,15,0,0,,5,,,77,127
40765,note_off,40,0,0,,0,,,48,127
40769,note_off,4,0,0,,0,,,36,127
40770,note_off,1,0,0,,4,,,76,127
40770,note_on,0,0,0,,5,,,41,127
40770,note_on,0,0,0,,5,,,77,127
41496,note_off,726,0,0,,5,,,77,127
41739,note_off,243,0,0,,5,,,41,127
41740,note_on,1,0,0,,11,,,46,127
41983,note_on,243,0,0,,5,,,77,127
42224,note_off,241,0,0,,5,,,77,127
42225,note_on,1,0,0,,11,,,82,127
42466,note_off,241,0,0,,11,,,82,127
42467,note_on,1,0,0,,5,,,77,127
42708,note_off,241,0,0,,5,,,77,127
42708,note_off,0,0,0,,11,,,46,127
42709,note_on,1,0,0,,11,,,82,127
42952,note_on,243,0,0,,11,,,58,127
43193,note_off,241,0,0,,11,,,58,127
43193,note_off,0,0,0,,11,,,82,127
43194,note_on,1,0,0,,0,,,60,127
43194,note_on,0,0,0,,8,,,80,127
43435,note_off,241,0,0,,0,,,60,127
43436,note_on,1,0,0,,2,,,62,127
43677,note_off,241,0,0,,8,,,80,127
43678,note_on,1,0,0,,8,,,80,127
43739,note_on,61,0,0,,7,,,79,127
43754,note_off,15,0,0,,8,,,80,127
43799,note_off,45,0,0,,2,,,62,127
43799,note_on,0,0,0,,8,,,80,127
43814,note_off,15,0,0,,7,,,79,127
43859,note_on,45,0,0,,7,,,79,127
43874,note_off,15,0,0,,8,,,80,127
43919,note_on,45,0,0,,3,,,63,127
44035,note_off,116,0,0,,7,,,79,127
44040,note_on,5,0,0,,7,,,79,127
44160,note_off,120,0,0,,7,,,79,127
44160,note_off,0,0,0,,3,,,63,127
44161,note_on,1,0,0,,2,,,62,127
44161,note_on,0,0,0,,7,,,79,127
44222,note_on,61,0,0,,5,,,77,127
44237,note_off,15,0,0,,7,,,79,127
44282,note_on,45,0,0,,7,,,79,127
44297,note_off,15,0,0,,5,,,77,127
44342,note_on,45,0,0,,5,,,77,127
44357,note_off,15,0,0,,7,,,79,127
44401,note_off,44,0,0,,2,,,62,127
44402,note_on,1,0,0,,12,,,59,127
44518,note_off,116,0,0,,5,,,77,127
44523,note_on,5,0,0,,5,,,77,127
44643,note_off,120,0,0,,5,,,77,127
44643,note_off,0,0,0,,12,,,59,127
44644,note_on,1,0,0,,0,,,60,127
44644,note_on,0,0,0,,5,,,77,127
44705,note_on,61,0,0,,3,,,75,127
44720,note_off,15,0,0,,5,,,77,127
44765,note_on,45,0,0,,5,,,77,127
44780,note_off,15,0,0,,3,,,75,127
44825,note_on,45,0,0,,3,,,75,127
44840,note_off,15,0,0,,5,,,77,127
44884,note_off,44,0,0,,0,,,60,127
44885,note_on,1,0,0,,0,,,60,127
45001,note_off,116,0,0,,3,,,75,127
45006,note_on,5,0,0,,3,,,75,127
45126,note_off,120,0,0,,3,,,75,127
45126,note_off,0,0,0,,0,,,60,127
45127,note_on,1,0,0,,12,,,59,127
45127,note_on,0,0,0,,3,,,75,127
45188,note_on,61,0,0,,2,,,74,127
45203,note_off,15,0,0,,3,,,75,127
45248,note_on,45,0,0,,3,,,75,127
45263,note_off,15,0,0,,2,,,74,127
45308,note_on,45,0,0,,2,,,74,127
45323,note_off,15,0,0,,3,,,75,127
45367,note_off,44,0,0,,12,,,59,127
45368,note_on,1,0,0,,7,,,55,127
45484,note_off,116,0,0,,2,,,74,127
45489,note_on,5,0,0,,2,,,74,127
45609,note_off,120,0,0,,2,,,74,127
45610,note_on,1,0,0,,2,,,74,127
45671,note_on,61,0,0,,0,,,72,127
45686,note_off,15,0,0,,2,,,74,127
45731,note_off,45,0,0,,7,,,55,127
45731,note_on,0,0,0,,2,,,74,127
45746,note_off,15,0,0,,0,,,72,127
45791,note_on,45,0,0,,0,,,72,127
45806,note_off,15,0,0,,2,,,74,127
45851,note_on,45,0,0,,8,,,56,127
45967,note_off,116,0,0,,0,,,72,127
45972,note_on,5,0,0,,0,,,72,127
46092,note_off,120,0,0,,0,,,72,127
46092,note_off,0,0,0,,8,,,56,127
46093,note_on,1,0,0,,7,,,55,127
46093,note_on,0,0,0,,0,,,72,127
46154,note_on,61,0,0,,12,,,71,127
46169,note_off,15,0,0,,0,,,72,127
46214,note_on,45,0,0,,0,,,72,127
46229,note_off,15,0,0,,12,,,71,127
46274,note_on,45,0,0,,12,,,71,127
46289,note_off,15,0,0,,0,,,72,127
46333,note_off,44,0,0,,7,,,55,127
46334,note_on,1,0,0,,5,,,53,127
46450,note_off,116,0,0,,12,,,71,127
46455,note_on,5,0,0,,12,,,71,127
46575,note_off,120,0,0,,12,,,71,127
46575,note_off,0,0,0,,5,,,53,127
46576,note_on,1,0,0,,3,,,51,127
46576,note_on,0,0,0,,0,,,72,127
46696,note_off,120,0,0,,0,,,72,127
46697,note_on,1,0,0,,0,,,72,127
46817,note_off,120,0,0,,0,,,72,127
46817,note_off,0,0,0,,3,,,51,127
46818,note_on,1,0,0,,5,,,53,127
46818,note_on,0,0,0,,2,,,74,127
46938,note_off,120,0,0,,2,,,74,127
46939,note_on,1,0,0,,3,,,75,127
47059,note_off,120,0,0,,3,,,75,127
47059,note_off,0,0,0,,5,,,53,127
47060,note_on,1,0,0,,7,,,55,127
47060,note_on,0,0,0,,2,,,74,127
47180,note_off,120,0,0,,2,,,74,127
47181,note_on,1,0,0,,2,,,74,127
47301,note_off,120,0,0,,2,,,74,127
47302,note_on,1,0,0,,7,,,43,127
47302,note_on,0,0,0,,3,,,75,127
47422,note_off,120,0,0,,3,,,75,127
47423,note_on,1,0,0,,5,,,77,127
47539,note_off,116,0,0,,7,,,55,127
47543,note_off,4,0,0,,5,,,77,127
47544,note_on,1,0,0,,3,,,75,127
47664,note_off,120,0,0,,3,,,75,127
47665,note_off,1,0,0,,7,,,43,127
47665,note_on,0,0,0,,2,,,74,127
47785,note_off,120,0,0,,2,,,74,127
47786,note_on,1,0,0,,0,,,60,127
47786,note_on,0,0,0,,0,,,72,127
48027,note_off,241,0,0,,0,,,60,127
48028,note_on,1,0,0,,3,,,63,127
48149,note_off,121,0,0,,0,,,72,127
48269,note_off,120,0,0,,3,,,63,127
48270,note_on,1,0,0,,0,,,60,127
48270,note_on,0,0,0,,7,,,79,127
48511,note_off,241,0,0,,7,,,79,127
48512,note_on,1,0,0,,6,,,78,127
48632,note_off,120,0,0,,6,,,78,127
48633,note_off,1,0,0,,0,,,60,127
48633,note_on,0,0,0,,10,,,81,127
48753,note_off,120,0,0,,10,,,81,127
48754,note_on,1,0,0,,2,,,62,127
48754,note_on,0,0,0,,0,,,72,127
48995,note_off,241,0,0,,2,,,62,127
48996,note_on,1,0,0,,6,,,66,127
49187,note_off,191,0,0,,0,,,72,127
49238,note_off,51,0,0,,6,,,66,127
49239,note_on,1,0,0,,2,,,62,127
49239,note_on,0,0,0,,0,,,84,127
49480,note_off,241,0,0,,0,,,84,127
49481,note_on,1,0,0,,11,,,82,127
49601,note_off,120,0,0,,11,,,82,127
49602,note_off,1,0,0,,2,,,62,127
49602,note_on,0,0,0,,10,,,81,127
49722,note_off,120,0,0,,10,,,81,127
49723,note_on,1,0,0,,7,,,55,127
49723,note_on,0,0,0,,7,,,79,127
49964,note_off,241,0,0,,7,,,55,127
49965,note_on,1,0,0,,11,,,58,127
50156,note_off,191,0,0,,7,,,79,127
50207,note_off,51,0,0,,11,,,58,127
50208,note_on,1,0,0,,7,,,55,127
50208,note_on,0,0,0,,7,,,79,127
50449,note_off,241,0,0,,7,,,79,127
50450,note_on,1,0,0,,7,,,79,127
50530,note_off,80,0,0,,7,,,79,127
50531,note_on,1,0,0,,5,,,77,127
50571,note_off,40,0,0,,7,,,55,127
50610,note_off,39,0,0,,5,,,77,127
50611,note_on,1,0,0,,4,,,76,127
50691,note_off,80,0,0,,4,,,76,127
50692,note_on,1,0,0,,10,,,57,127
50692,note_on,0,0,0,,1,,,61,127
50692,note_on,0,0,0,,7,,,79,127
50933,note_off,241,0,0,,1,,,61,127
50933,note_off,0,0,0,,10,,,57,127
50934,note_on,1,0,0,,2,,,62,127
50934,note_on,0,0,0,,11,,,58,127
51125,note_off,191,0,0,,7,,,79,127
51176,note_off,51,0,0,,11,,,58,127
51177,note_on,1,0,0,,7,,,55,127
51177,note_on,0,0,0,,7,,,79,127
51418,note_off,241,0,0,,7,,,79,127
51418,note_off,0,0,0,,2,,,62,127
51419,note_on,1,0,0,,7,,,79,127
51499,note_off,80,0,0,,7,,,79,127
51500,note_on,1,0,0,,5,,,77,127
51540,note_off,40,0,0,,7,,,55,127
51579,note_off,39,0,0,,5,,,77,127
51580,note_on,1,0,0,,4,,,76,127
51660,note_off,80,0,0,,4,,,76,127
51661,note_on,1,0,0,,10,,,57,127
51661,note_on,0,0,0,,1,,,61,127
51661,note_on,0,0,0,,7,,,79,127
51902,note_off,241,0,0,,1,,,61,127
51902,note_off,0,0,0,,10,,,57,127
51903,note_on,1,0,0,,2,,,62,127
51903,note_on,0,0,0,,11,,,58,127
52094,note_off,191,0,0,,7,,,79,127
52145,note_off,51,0,0,,11,,,58,127
52146,note_on,1,0,0,,7,,,55,127
52146,note_on,0,0,0,,7,,,79,127
52387,note_off,241,0,0,,7,,,79,127
52387,note_off,0,0,0,,2,,,62,127
52388,note_on,1,0,0,,7,,,79,127
52508,note_off,120,0,0,,7,,,79,127
52509,note_off,1,0,0,,7,,,55,127
52509,note_on,0,0,0,,10,,,81,127
52629,note_off,120,0,0,,10,,,81,127
52630,note_on,1,0,0,,4,,,64,127
52630,note_on,0,0,0,,1,,,61,127
52630,note_on,0,0,0,,11,,,82,127
52750,note_off,120,0,0,,11,,,82,127
52751,note_on,1,0,0,,10,,,81,127
52871,note_off,120,0,0,,10,,,81,127
52871,note_off,0,0,0,,1,,,61,127
52871,note_off,0,0,0,,4,,,64,127
52872,note_on,1,0,0,,4,,,64,127
52872,note_on,0,0,0,,1,,,61,127
52872,note_on,0,0,0,,11,,,82,127
52992,note_off,120,0,0,,11,,,82,127
52993,note_on,1,0,0,,7,,,79,127
53113,note_off,120,0,0,,7,,,79,127
53113,note_off,0,0,0,,1,,,61,127
53114,note_on,1,0,0,,1,,,61,127
53114,note_on,0,0,0,,5,,,77,127
53234,note_off,120,0,0,,5,,,77,127
53235,note_on,1,0,0,,4,,,76,127
53355,note_off,120,0,0,,4,,,76,127
53355,note_off,0,0,0,,4,,,64,127
53356,note_on,1,0,0,,4,,,76,127
53417,note_on,61,0,0,,2,,,74,127
53432,note_off,15,0,0,,4,,,76,127
53477,note_off,45,0,0,,1,,,61,127
53477,note_on,0,0,0,,4,,,76,127
53492,note_off,15,0,0,,2,,,74,127
53537,note_on,45,0,0,,2,,,74,127
53552,note_off,15,0,0,,4,,,76,127
53597,note_on,45,0,0,,11,,,58,127
53713,note_off,116,0,0,,2,,,74,127
53718,note_on,5,0,0,,2,,,74,127
53838,note_off,120,0,0,,2,,,74,127
53838,note_off,0,0,0,,11,,,58,127
53839,note_on,1,0,0,,7,,,55,127
53839,note_on,0,0,0,,5,,,77,127
53900,note_on,61,0,0,,4,,,76,127
53915,note_off,15,0,0,,5,,,77,127
53960,note_on,45,0,0,,5,,,77,127
53975,note_off,15,0,0,,4,,,76,127
54020,note_on,45,0,0,,4,,,76,127
54035,note_off,15,0,0,,5,,,77,127
54079,note_off,44,0,0,,7,,,55,127
54080,note_on,1,0,0,,10,,,57,127
54196,note_off,116,0,0,,4,,,76,127
54201,note_on,5,0,0,,4,,,76,127
54321,note_off,120,0,0,,4,,,76,127
54321,note_off,0,0,0,,10,,,57,127
54322,note_on,1,0,0,,2,,,62,127
54322,note_on,0,0,0,,7,,,79,127
54383,note_on,61,0,0,,5,,,77,127
54398,note_off,15,0,0,,7,,,79,127
54443,note_on,45,0,0,,7,,,79,127
54458,note_off,15,0,0,,5,,,77,127
54503,note_on,45,0,0,,5,,,77,127
54518,note_off,15,0,0,,7,,,79,127
54562,note_off,44,0,0,,2,,,62,127
54563,note_on,1,0,0,,7,,,55,127
54679,note_off,116,0,0,,5,,,77,127
54684,note_on,5,0,0,,7,,,79,127
54804,note_off,120,0,0,,7,,,79,127
54804,note_off,0,0,0,,7,,,55,127
54805,note_on,1,0,0,,10,,,57,127
54805,note_on,0,0,0,,5,,,77,127
54866,note_on,61,0,0,,4,,,76,127
54881,note_off,15,0,0,,5,,,77,127
54926,note_on,45,0,0,,5,,,77,127
54941,note_off,15,0,0,,4,,,76,127
54986,note_on,45,0,0,,4,,,76,127
55001,note_off,15,0,0,,5,,,77,127
55045,note_off,44,0,0,,10,,,57,127
55046,note_on,1,0,0,,1,,,61,127
55162,note_off,116,0,0,,4,,,76,127
55167,note_on,5,0,0,,4,,,76,127
55287,note_off,120,0,0,,4,,,76,127
55288,note_on,1,0,0,,5,,,77,127
55368,note_off,80,0,0,,5,,,77,127
55369,note_on,1,0,0,,4,,,76,127
55409,note_off,40,0,0,,1,,,61,127
55448,note_off,39,0,0,,4,,,76,127
55449,note_on,1,0,0,,2,,,74,127
55529,note_off,80,0,0,,2,,,74,127
55530,note_on,1,0,0,,2,,,62,127
55530,note_on,0,0,0,,5,,,77,127
55771,note_off,241,0,0,,2,,,62,127
55772,note_on,1,0,0,,2,,,62,127
55963,note_off,191,0,0,,5,,,77,127
56014,note_off,51,0,0,,2,,,62,127
56015,note_on,1,0,0,,0,,,60,127
56015,note_on,0,0,0,,5,,,77,127
56256,note_off,241,0,0,,5,,,77,127
56257,note_on,1,0,0,,5,,,77,127
56337,note_off,80,0,0,,5,,,77,127
56338,note_on,1,0,0,,4,,,76,127
56378,note_off,40,0,0,,0,,,60,127
56417,note_off,39,0,0,,4,,,76,127
56418,note_on,1,0,0,,2,,,74,127
56498,note_off,80,0,0,,2,,,74,127
56499,note_on,1,0,0,,12,,,59,127
56499,note_on,0,0,0,,5,,,77,127
56740,note_off,241,0,0,,12,,,59,127
56741,note_on,1,0,0,,12,,,59,127
56932,note_off,191,0,0,,5,,,77,127
56983,note_off,51,0,0,,12,,,59,127
56984,note_on,1,0,0,,10,,,57,127
56984,note_on,0,0,0,,5,,,77,127
57225,note_off,241,0,0,,5,,,77,127
57226,note_on,1,0,0,,5,,,77,127
57346,note_off,120,0,0,,5,,,77,127
57347,note_off,1,0,0,,10,,,57,127
57347,note_on,0,0,0,,7,,,79,127
57467,note_off,120,0,0,,7,,,79,127
57468,note_on,1,0,0,,7,,,55,127
57468,note_on,0,0,0,,8,,,80,127
57588,note_off,120,0,0,,8,,,80,127
57589,note_on,1,0,0,,7,,,79,127
57709,note_off,120,0,0,,7,,,79,127
57709,note_off,0,0,0,,7,,,55,127
57710,note_on,1,0,0,,7,,,55,127
57710,note_on,0,0,0,,8,,,80,127
57830,note_off,120,0,0,,8,,,80,127
57831,note_on,1,0,0,,5,,,77,127
57951,note_off,120,0,0,,5,,,77,127
57951,note_off,0,0,0,,7,,,55,127
57952,note_on,1,0,0,,7,,,55,127
57952,note_on,0,0,0,,3,,,75,127
58072,note_off,120,0,0,,3,,,75,127
58073,note_on,1,0,0,,2,,,74,127
58193,note_off,120,0,0,,2,,,74,127
58193,note_off,0,0,0,,7,,,55,127
58194,note_on,1,0,0,,8,,,56,127
58194,note_on,0,0,0,,2,,,74,127
58255,note_on,61,0,0,,0,,,72,127
58270,note_off,15,0,0,,2,,,74,127
58315,note_on,45,0,0,,2,,,74,127
58330,note_off,15,0,0,,0,,,72,127
58375,note_on,45,0,0,,0,,,72,127
58390,note_off,15,0,0,,2,,,74,127
58434,note_off,44,0,0,,8,,,56,127
58435,note_on,1,0,0,,3,,,51,127
58551,note_off,116,0,0,,0,,,72,127
58556,note_on,5,0,0,,0,,,72,127
58676,note_off,120,0,0,,0,,,72,127
58676,note_off,0,0,0,,3,,,51,127
58677,note_on,1,0,0,,5,,,53,127
58677,note_on,0,0,0,,3,,,75,127
58738,note_on,61,0,0,,2,,,74,127
58753,note_off,15,0,0,,3,,,75,127
58798,note_on,45,0,0,,3,,,75,127
58813,note_off,15,0,0,,2,,,74,127
58858,note_on,45,0,0,,2,,,74,127
58873,note_off,15,0,0,,3,,,75,127
58917,note_off,44,0,0,,5,,,53,127
58918,note_on,1,0,0,,7,,,55,127
59034,note_off,116,0,0,,2,,,74,127
59039,note_on,5,0,0,,2,,,74,127
59159,note_off,120,0,0,,2,,,74,127
59159,note_off,0,0,0,,7,,,55,127
59160,note_on,1,0,0,,0,,,60,127
59160,note_on,0,0,0,,5,,,77,127
59221,note_on,61,0,0,,3,,,75,127
59236,note_off,15,0,0,,5,,,77,127
59281,note_on,45,0,0,,5,,,77,127
59296,note_off,15,0,0,,3,,,75,127
59341,note_on,45,0,0,,3,,,75,127
59356,note_off,15,0,0,,5,,,77,127
59400,note_off,44,0,0,,0,,,60,127
59401,note_on,1,0,0,,5,,,53,127
59517,note_off,116,0,0,,3,,,75,127
59522,note_on,5,0,0,,5,,,77,127
59642,note_off,120,0,0,,5,,,77,127
59642,note_off,0,0,0,,5,,,53,127
59643,note_on,1,0,0,,7,,,55,127
59643,note_on,0,0,0,,3,,,75,127
59704,note_on,61,0,0,,2,,,74,127
59719,note_off,15,0,0,,3,,,75,127
59764,note_on,45,0,0,,3,,,75,127
59779,note_off,15,0,0,,2,,,74,127
59824,note_on,45,0,0,,2,,,74,127
59839,note_off,15,0,0,,3,,,75,127
59883,note_off,44,0,0,,7,,,55,127
59884,note_on,1,0,0,,12,,,59,127
59884,note_on,0,0,0,,3,,,75,127
59899,note_off,15,0,0,,2,,,74,127
59944,note_on,45,0,0,,2,,,74,127
59959,note_off,15,0,0,,3,,,75,127
60004,note_on,45,0,0,,7,,,79,127
60019,note_off,15,0,0,,2,,,74,127
60124,note_off,105,0,0,,7,,,79,127
60124,note_off,0,0,0,,12,,,59,127
60125,note_on,1,0,0,,0,,,60,127
60125,note_on,0,0,0,,3,,,75,127
60245,note_off,120,0,0,,3,,,75,127
60246,note_on,1,0,0,,2,,,74,127
60366,note_off,120,0,0,,2,,,74,127
60366,note_off,0,0,0,,0,,,60,127
60367,note_on,1,0,0,,3,,,51,127
60367,note_on,0,0,0,,0,,,72,127
60487,note_off,120,0,0,,0,,,72,127
60488,note_on,1,0,0,,11,,,70,127
60608,note_off,120,0,0,,11,,,70,127
60608,note_off,0,0,0,,3,,,51,127
60609,note_on,1,0,0,,5,,,53,127
60609,note_on,0,0,0,,11,,,70,127
60670,note_on,61,0,0,,10,,,69,127
60685,note_off,15,0,0,,11,,,70,127
60730,note_on,45,0,0,,11,,,70,127
60745,note_off,15,0,0,,10,,,69,127
60790,note_on,45,0,0,,10,,,69,127
60805,note_off,15,0,0,,11,,,70,127
60849,note_off,44,0,0,,5,,,53,127
60850,note_on,1,0,0,,3,,,51,127
60966,note_off,116,0,0,,10,,,69,127
60971,note_on,5,0,0,,10,,,69,127
61091,note_off,120,0,0,,10,,,69,127
61091,note_off,0,0,0,,3,,,51,127
61092,note_on,1,0,0,,2,,,50,127
61092,note_on,0,0,0,,0,,,72,127
61153,note_on,61,0,0,,11,,,70,127
61168,note_off,15,0,0,,0,,,72,127
61213,note_on,45,0,0,,0,,,72,127
61228,note_off,15,0,0,,11,,,70,127
61273,note_on,45,0,0,,11,,,70,127
61288,note_off,15,0,0,,0,,,72,127
61332,note_off,44,0,0,,2,,,50,127
61333,note_on,1,0,0,,11,,,58,127
61449,note_off,116,0,0,,11,,,70,127
61454,note_on,5,0,0,,11,,,70,127
61574,note_off,120,0,0,,11,,,70,127
61574,note_off,0,0,0,,11,,,58,127
61575,note_on,1,0,0,,10,,,57,127
61575,note_on,0,0,0,,2,,,74,127
61636,note_on,61,0,0,,0,,,72,127
61651,note_off,15,0,0,,2,,,74,127
61696,note_on,45,0,0,,2,,,74,127
61711,note_off,15,0,0,,0,,,72,127
61756,note_on,45,0,0,,0,,,72,127
61771,note_off,15,0,0,,2,,,74,127
61815,note_off,44,0,0,,10,,,57,127
61816,note_on,1,0,0,,5,,,53,127
61932,note_off,116,0,0,,0,,,72,127
61937,note_on,5,0,0,,0,,,72,127
62057,note_off,120,0,0,,0,,,72,127
62057,note_off,0,0,0,,5,,,53,127
62058,note_on,1,0,0,,11,,,58,127
62058,note_on,0,0,0,,3,,,75,127
62119,note_on,61,0,0,,2,,,74,127
62134,note_off,15,0,0,,3,,,75,127
62179,note_on,45,0,0,,3,,,75,127
62194,note_off,15,0,0,,2,,,74,127
62239,note_on,45,0,0,,2,,,74,127
62254,note_off,15,0,0,,3,,,75,127
62298,note_off,44,0,0,,11,,,58,127
62299,note_on,1,0,0,,3,,,51,127
62415,note_off,116,0,0,,2,,,74,127
62420,note_on,5,0,0,,3,,,75,127
62540,note_off,120,0,0,,3,,,75,127
62540,note_off,0,0,0,,3,,,51,127
62541,note_on,1,0,0,,5,,,53,127
62541,note_on,0,0,0,,2,,,74,127
62602,note_on,61,0,0,,0,,,72,127
62617,note_off,15,0,0,,2,,,74,127
62662,note_on,45,0,0,,2,,,74,127
62677,note_off,15,0,0,,0,,,72,127
62722,note_on,45,0,0,,0,,,72,127
62737,note_off,15,0,0,,2,,,74,127
62781,note_off,44,0,0,,5,,,53,127
62782,note_on,1,0,0,,3,,,51,127
62898,note_off,116,0,0,,0,,,72,127
62903,note_on,5,0,0,,0,,,72,127
63023,note_off,120,0,0,,0,,,72,127
63023,note_off,0,0,0,,3,,,51,127
63024,note_on,1,0,0,,2,,,50,127
63024,note_on,0,0,0,,5,,,77,127
63144,note_off,120,0,0,,5,,,77,127
63145,note_on,1,0,0,,2,,,74,127
63265,note_off,120,0,0,,2,,,74,127
63266,note_on,1,0,0,,7,,,79,127
63386,note_off,120,0,0,,7,,,79,127
63387,note_on,1,0,0,,5,,,77,127
63507,note_off,120,0,0,,5,,,77,127
63507,note_off,0,0,0,,2,,,50,127
63508,note_on,1,0,0,,3,,,51,127
63508,note_on,0,0,0,,3,,,75,127
63628,note_off,120,0,0,,3,,,75,127
63629,note_on,1,0,0,,2,,,74,127
63749,note_off,120,0,0,,2,,,74,127
63750,note_on,1,0,0,,0,,,72,127
63870,note_off,120,0,0,,0,,,72,127
63871,note_on,1,0,0,,11,,,70,127
63991,note_off,120,0,0,,11,,,70,127
63991,note_off,0,0,0,,3,,,51,127
63992,note_on,1,0,0,,5,,,53,127
63992,note_on,0,0,0,,10,,,69,127
64112,note_off,120,0,0,,10,,,69,127
64113,note_on,1,0,0,,11,,,70,127
64233,note_off,120,0,0,,11,,,70,127
64233,note_off,0,0,0,,5,,,53,127
64234,note_on,1,0,0,,0,,,48,127
64234,note_on,0,0,0,,0,,,72,127
64475,note_off,241,0,0,,0,,,48,127
64476,note_on,1,0,0,,5,,,41,127
64597,note_off,121,0,0,,0,,,72,127
64718,note_on,121,0,0,,0,,,72,127
64947,note_off,229,0,0,,5,,,41,127
64960,note_off,13,0,0,,0,,,72,127
64961,note_on,1,0,0,,5,,,77,127
65202,note_off,241,0,0,,5,,,77,127
65203,note_on,1,0,0,,11,,,58,127
65203,note_on,0,0,0,,1,,,73,127
65444,note_off,241,0,0,,11,,,58,127
65445,note_on,1,0,0,,6,,,54,127
65636,note_off,191,0,0,,1,,,73,127
65687,note_off,51,0,0,,6,,,54,127
65688,note_on,1,0,0,,3,,,51,127
65688,note_on,0,0,0,,11,,,70,127
65929,note_off,241,0,0,,11,,,70,127
65930,note_on,1,0,0,,0,,,72,127
65991,note_on,61,0,0,,11,,,70,127
66006,note_off,15,0,0,,0,,,72,127
66051,note_off,45,0,0,,3,,,51,127
66051,note_on,0,0,0,,10,,,69,127
66066,note_off,15,0,0,,11,,,70,127
66111,note_on,45,0,0,,11,,,70,127
66126,note_off,15,0,0,,10,,,69,127
66171,note_off,45,0,0,,11,,,70,127
66171,note_on,0,0,0,,5,,,53,127
66171,note_on,0,0,0,,10,,,69,127
66412,note_off,241,0,0,,5,,,53,127
66413,note_on,1,0,0,,10,,,57,127
66604,note_off,191,0,0,,10,,,69,127
66655,note_off,51,0,0,,10,,,57,127
66656,note_on,1,0,0,,5,,,53,127
66656,note_on,0,0,0,,5,,,77,127
66897,note_off,241,0,0,,5,,,77,127
66898,note_on,1,0,0,,6,,,78,127
67019,note_off,121,0,0,,5,,,53,127
67139,note_off,120,0,0,,6,,,78,127
67140,note_on,1,0,0,,0,,,60,127
67140,note_on,0,0,0,,3,,,75,127
67381,note_off,241,0,0,,0,,,60,127
67382,note_on,1,0,0,,10,,,57,127
67573,note_off,191,0,0,,3,,,75,127
67624,note_off,51,0,0,,10,,,57,127
67625,note_on,1,0,0,,5,,,53,127
67625,note_on,0,0,0,,0,,,72,127
67866,note_off,241,0,0,,0,,,72,127
67867,note_on,1,0,0,,0,,,72,127
67988,note_off,121,0,0,,5,,,53,127
68108,note_off,120,0,0,,0,,,72,127
68109,note_on,1,0,0,,11,,,58,127
68109,note_on,0,0,0,,1,,,73,127
68350,note_off,241,0,0,,11,,,58,127
68351,note_on,1,0,0,,1,,,61,127
68542,note_off,191,0,0,,1,,,73,127
68593,note_off,51,0,0,,1,,,61,127
68594,note_on,1,0,0,,11,,,58,127
68594,note_on,0,0,0,,5,,,77,127
68835,note_off,241,0,0,,5,,,77,127
68835,note_off,0,0,0,,11,,,58,127
68836,note_on,1,0,0,,3,,,51,127
68836,note_on,0,0,0,,3,,,75,127
68956,note_off,120,0,0,,3,,,75,127
68957,note_on,1,0,0,,6,,,78,127
69077,note_off,120,0,0,,6,,,78,127
69077,note_off,0,0,0,,3,,,51,127
69078,note_on,1,0,0,,6,,,54,127
69078,note_on,0,0,0,,0,,,72,127
69198,note_off,120,0,0,,0,,,72,127
69199,note_on,1,0,0,,3,,,75,127
69319,note_off,120,0,0,,3,,,75,127
69319,note_off,0,0,0,,6,,,54,127
69320,note_on,1,0,0,,5,,,53,127
69320,note_on,0,0,0,,11,,,70,127
69563,note_on,243,0,0,,5,,,41,127
69624,note_on,61,0,0,,10,,,69,127
69637,note_off,13,0,0,,11,,,70,127
69685,note_on,48,0,0,,11,,,70,127
69700,note_off,15,0,0,,10,,,69,127
69745,note_on,45,0,0,,10,,,69,127
69760,note_off,15,0,0,,11,,,70,127
69795,note_off,35,0,0,,10,,,69,127
69800,note_off,5,0,0,,5,,,53,127
69805,note_on,5,0,0,,10,,,69,127
69926,note_off,121,0,0,,5,,,41,127
70046,note_off,120,0,0,,10,,,69,127
70047,note_on,1,0,0,,11,,,58,127
70047,note_on,0,0,0,,11,,,70,127
70288,note_off,241,0,0,,11,,,58,127
70289,note_on,1,0,0,,1,,,61,127
70410,note_off,121,0,0,,11,,,70,127
70530,note_off,120,0,0,,1,,,61,127
70531,note_on,1,0,0,,11,,,58,127
70531,note_on,0,0,0,,11,,,82,127
70772,note_off,241,0,0,,11,,,82,127
70773,note_on,1,0,0,,4,,,76,127
70894,note_off,121,0,0,,11,,,58,127
71014,note_off,120,0,0,,4,,,76,127
71015,note_on,1,0,0,,7,,,67,127
71015,note_on,0,0,0,,11,,,82,127
71256,note_off,241,0,0,,7,,,67,127
71257,note_on,1,0,0,,4,,,64,127
71448,note_off,191,0,0,,11,,,82,127
71499,note_off,51,0,0,,4,,,64,127
71500,note_on,1,0,0,,0,,,60,127
71500,note_on,0,0,0,,11,,,82,127
71741,note_off,241,0,0,,11,,,82,127
71742,note_on,1,0,0,,10,,,81,127
71862,note_off,120,0,0,,10,,,81,127
71863,note_off,1,0,0,,0,,,60,127
71863,note_on,0,0,0,,0,,,84,127
71983,note_off,120,0,0,,0,,,84,127
71984,note_on,1,0,0,,0,,,60,127
71984,note_on,0,0,0,,3,,,75,127
72225,note_off,241,0,0,,0,,,60,127
72226,note_on,1,0,0,,10,,,57,127
72417,note_off,191,0,0,,3,,,75,127
72468,note_off,51,0,0,,10,,,57,127
72469,note_on,1,0,0,,5,,,53,127
72469,note_on,0,0,0,,0,,,72,127
72710,note_off,241,0,0,,0,,,72,127
72711,note_on,1,0,0,,0,,,72,127
72832,note_off,121,0,0,,5,,,53,127
72952,note_off,120,0,0,,0,,,72,127
72953,note_on,1,0,0,,11,,,58,127
72953,note_on,0,0,0,,1,,,73,127
73194,note_off,241,0,0,,11,,,58,127
73195,note_on,1,0,0,,1,,,61,127
73386,note_off,191,0,0,,1,,,73,127
73437,note_off,51,0,0,,1,,,61,127
73438,note_on,1,0,0,,11,,,58,127
73438,note_on,0,0,0,,5,,,77,127
73679,note_off,241,0,0,,5,,,77,127
73679,note_off,0,0,0,,11,,,58,127
73680,note_on,1,0,0,,3,,,51,127
73680,note_on,0,0,0,,3,,,75,127
73800,note_off,120,0,0,,3,,,75,127
73801,note_on,1,0,0,,6,,,78,127
73921,note_off,120,0,0,,6,,,78,127
73921,note_off,0,0,0,,3,,,51,127
73922,note_on,1,0,0,,6,,,54,127
73922,note_on,0,0,0,,0,,,72,127
74042,note_off,120,0,0,,0,,,72,127
74043,note_on,1,0,0,,3,,,75,127
74163,note_off,120,0,0,,3,,,75,127
74163,note_off,0,0,0,,6,,,54,127
74164,note_on,1,0,0,,5,,,53,127
74164,note_on,0,0,0,,11,,,70,127
74405,note_off,241,0,0,,11,,,70,127
74406,note_on,1,0,0,,5,,,41,127
74406,note_on,0,0,0,,11,,,70,127
74467,note_on,61,0,0,,10,,,69,127
74482,note_off,15,0,0,,11,,,70,127
74527,note_on,45,0,0,,11,,,70,127
74542,note_off,15,0,0,,10,,,69,127
74587,note_on,45,0,0,,10,,,69,127
74602,note_off,15,0,0,,11,,,70,127
74642,note_off,40,0,0,,5,,,53,127
74646,note_off,4,0,0,,5,,,41,127
74647,note_on,1,0,0,,11,,,46,127
74647,note_on,0,0,0,,0,,,72,127
74662,note_off,15,0,0,,10,,,69,127
74707,note_on,45,0,0,,11,,,70,127
74722,note_off,15,0,0,,0,,,72,127
74767,note_on,45,0,0,,0,,,72,127
74782,note_off,15,0,0,,11,,,70,127
74827,note_on,45,0,0,,11,,,70,127
74842,note_off,15,0,0,,0,,,72,127
74886,note_off,44,0,0,,11,,,46,127
74887,note_on,1,0,0,,11,,,58,127
75003,note_off,116,0,0,,11,,,70,127
75008,note_on,5,0,0,,11,,,70,127
75128,note_off,120,0,0,,11,,,70,127
75128,note_off,0,0,0,,11,,,58,127
75129,note_on,1,0,0,,10,,,57,127
75129,note_on,0,0,0,,2,,,74,127
75190,note_on,61,0,0,,0,,,72,127
75205,note_off,15,0,0,,2,,,74,127
75250,note_on,45,0,0,,2,,,74,127
75265,note_off,15,0,0,,0,,,72,127
75310,note_on,45,0,0,,0,,,72,127
75325,note_off,15,0,0,,2,,,74,127
75369,note_off,44,0,0,,10,,,57,127
75370,note_on,1,0,0,,5,,,53,127
75486,note_off,116,0,0,,0,,,72,127
75491,note_on,5,0,0,,0,,,72,127
75611,note_off,120,0,0,,0,,,72,127
75611,note_off,0,0,0,,5,,,53,127
75612,note_on,1,0,0,,11,,,58,127
75612,note_on,0,0,0,,3,,,75,127
75673,note_on,61,0,0,,2,,,74,127
75688,note_off,15,0,0,,3,,,75,127
75733,note_on,45,0,0,,3,,,75,127
75748,note_off,15,0,0,,2,,,74,127
75793,note_on,45,0,0,,2,,,74,127
75808,note_off,15,0,0,,3,,,75,127
75852,note_off,44,0,0,,11,,,58,127
75853,note_on,1,0,0,,3,,,51,127
75969,note_off,116,0,0,,2,,,74,127
75974,note_on,5,0,0,,2,,,74,127
76094,note_off,120,0,0,,2,,,74,127
76094,note_off,0,0,0,,3,,,51,127
76095,note_on,1,0,0,,5,,,53,127
76095,note_on,0,0,0,,2,,,74,127
76156,note_on,61,0,0,,0,,,72,127
76171,note_off,15,0,0,,2,,,74,127
76216,note_on,45,0,0,,2,,,74,127
76231,note_off,15,0,0,,0,,,72,127
76276,note_on,45,0,0,,0,,,72,127
76291,note_off,15,0,0,,2,,,74,127
76335,note_off,44,0,0,,5,,,53,127
76336,note_on,1,0,0,,10,,,57,127
76452,note_off,116,0,0,,0,,,72,127
76457,note_on,5,0,0,,0,,,72,127
76577,note_off,120,0,0,,0,,,72,127
76577,note_off,0,0,0,,10,,,57,127
76578,note_on,1,0,0,,11,,,58,127
76578,note_on,0,0,0,,3,,,75,127
76639,note_on,61,0,0,,2,,,74,127
76654,note_off,15,0,0,,3,,,75,127
76699,note_on,45,0,0,,3,,,75,127
76714,note_off,15,0,0,,2,,,74,127
76759,note_on,45,0,0,,2,,,74,127
76774,note_off,15,0,0,,3,,,75,127
76818,note_off,44,0,0,,11,,,58,127
76819,note_on,1,0,0,,3,,,51,127
76935,note_off,116,0,0,,2,,,74,127
76940,note_on,5,0,0,,3,,,75,127
77060,note_off,120,0,0,,3,,,75,127
77060,note_off,0,0,0,,3,,,51,127
77061,note_on,1,0,0,,5,,,53,127
77061,note_on,0,0,0,,2,,,74,127
77122,note_on,61,0,0,,0,,,72,127
77137,note_off,15,0,0,,2,,,74,127
77182,note_on,45,0,0,,2,,,74,127
77197,note_off,15,0,0,,0,,,72,127
77242,note_on,45,0,0,,0,,,72,127
77257,note_off,15,0,0,,2,,,74,127
77301,note_off,44,0,0,,5,,,53,127
77302,note_on,1,0,0,,3,,,51,127
77418,note_off,116,0,0,,0,,,72,127
77423,note_on,5,0,0,,0,,,72,127
77543,note_off,120,0,0,,0,,,72,127
77543,note_off,0,0,0,,3,,,51,127
77544,note_on,1,0,0,,2,,,50,127
77544,note_on,0,0,0,,5,,,77,127
77664,note_off,120,0,0,,5,,,77,127
77665,note_on,1,0,0,,2,,,74,127
77785,note_off,120,0,0,,2,,,74,127
77785,note_off,0,0,0,,2,,,50,127
77786,note_on,1,0,0,,3,,,51,127
77786,note_on,0,0,0,,7,,,79,127
77906,note_off,120,0,0,,7,,,79,127
77907,note_on,1,0,0,,3,,,75,127
78027,note_off,120,0,0,,3,,,75,127
78027,note_off,0,0,0,,3,,,51,127
78028,note_on,1,0,0,,5,,,53,127
78028,note_on,0,0,0,,2,,,74,127
78271,note_on,243,0,0,,5,,,41,127
78332,note_on,61,0,0,,0,,,72,127
78345,note_off,13,0,0,,2,,,74,127
78393,note_on,48,0,0,,2,,,74,127
78408,note_off,15,0,0,,0,,,72,127
78453,note_on,45,0,0,,0,,,72,127
78468,note_off,15,0,0,,2,,,74,127
78508,note_off,40,0,0,,5,,,53,127
78513,note_on,5,0,0,,0,,,84,127
78528,note_off,15,0,0,,0,,,72,127
78573,note_on,45,0,0,,11,,,82,127
78588,note_off,15,0,0,,0,,,84,127
78633,note_off,45,0,0,,5,,,41,127
78633,note_on,0,0,0,,0,,,84,127
78648,note_off,15,0,0,,11,,,82,127
78693,note_on,45,0,0,,11,,,82,127
78708,note_off,15,0,0,,0,,,84,127
78753,note_on,45,0,0,,11,,,58,127
78869,note_off,116,0,0,,11,,,82,127
78874,note_on,5,0,0,,0,,,84,127
78994,note_off,120,0,0,,0,,,84,127
78994,note_off,0,0,0,,11,,,58,127
78995,note_on,1,0,0,,10,,,57,127
78995,note_on,0,0,0,,7,,,79,127
79056,note_on,61,0,0,,5,,,77,127
79071,note_off,15,0,0,,7,,,79,127
79116,note_on,45,0,0,,7,,,79,127
79131,note_off,15,0,0,,5,,,77,127
79176,note_on,45,0,0,,5,,,77,127
79191,note_off,15,0,0,,7,,,79,127
79235,note_off,44,0,0,,10,,,57,127
79236,note_on,1,0,0,,5,,,53,127
79236,note_on,0,0,0,,7,,,79,127
79251,note_off,15,0,0,,5,,,77,127
79296,note_on,45,0,0,,5,,,77,127
79311,note_off,15,0,0,,7,,,79,127
79346,note_off,35,0,0,,5,,,77,127
79356,note_on,10,0,0,,5,,,77,127
79476,note_off,120,0,0,,5,,,77,127
79476,note_off,0,0,0,,5,,,53,127
79477,note_on,1,0,0,,2,,,50,127
79477,note_on,0,0,0,,0,,,84,127
79538,note_on,61,0,0,,11,,,82,127
79553,note_off,15,0,0,,0,,,84,127
79598,note_on,45,0,0,,0,,,84,127
79613,note_off,15,0,0,,11,,,82,127
79658,note_on,45,0,0,,11,,,82,127
79673,note_off,15,0,0,,0,,,84,127
79717,note_off,44,0,0,,2,,,50,127
79718,note_on,1,0,0,,11,,,58,127
79718,note_on,0,0,0,,0,,,84,127
79733,note_off,15,0,0,,11,,,82,127
79778,note_on,45,0,0,,11,,,82,127
79793,note_off,15,0,0,,0,,,84,127
79838,note_on,45,0,0,,0,,,84,127
79853,note_off,15,0,0,,11,,,82,127
79958,note_off,105,0,0,,0,,,84,127
79958,note_off,0,0,0,,11,,,58,127
79959,note_on,1,0,0,,10,,,57,127
79959,note_on,0,0,0,,7,,,79,127
80020,note_on,61,0,0,,5,,,77,127
80035,note_off,15,0,0,,7,,,79,127
80080,note_on,45,0,0,,7,,,79,127
80095,note_off,15,0,0,,5,,,77,127
80140,note_on,45,0,0,,5,,,77,127
80155,note_off,15,0,0,,7,,,79,127
80199,note_off,44,0,0,,10,,,57,127
80200,note_on,1,0,0,,5,,,53,127
80316,note_off,116,0,0,,5,,,77,127
80321,note_on,5,0,0,,5,,,77,127
80441,note_off,120,0,0,,5,,,77,127
80441,note_off,0,0,0,,5,,,53,127
80442,note_on,1,0,0,,2,,,50,127
80442,note_on,0,0,0,,5,,,77,127
80562,note_off,120,0,0,,5,,,77,127
80563,note_on,1,0,0,,2,,,74,127
80683,note_off,120,0,0,,2,,,74,127
80683,note_off,0,0,0,,2,,,50,127
80684,note_on,1,0,0,,3,,,51,127
80684,note_on,0,0,0,,7,,,79,127
80804,note_off,120,0,0,,7,,,79,127
80805,note_on,1,0,0,,3,,,75,127
80925,note_off,120,0,0,,3,,,75,127
80925,note_off,0,0,0,,3,,,51,127
80926,note_on,1,0,0,,5,,,53,127
80926,note_on,0,0,0,,2,,,74,127
81167,note_off,241,0,0,,2,,,74,127
81167,note_off,0,0,0,,5,,,53,127
81168,note_on,1,0,0,,3,,,51,127
81168,note_on,0,0,0,,2,,,74,127
81229,note_on,61,0,0,,0,,,72,127
81244,note_off,15,0,0,,2,,,74,127
81289,note_on,45,0,0,,2,,,74,127
81304,note_off,15,0,0,,0,,,72,127
81349,note_on,45,0,0,,0,,,72,127
81364,note_off,15,0,0,,2,,,74,127
81408,note_off,44,0,0,,3,,,51,127
81409,note_off,1,0,0,,0,,,72,127
81409,note_on,0,0,0,,2,,,50,127
81409,note_on,0,0,0,,5,,,77,127
81529,note_off,120,0,0,,5,,,77,127
81530,note_on,1,0,0,,2,,,74,127
81650,note_off,120,0,0,,2,,,74,127
81650,note_off,0,0,0,,2,,,50,127
81651,note_on,1,0,0,,3,,,51,127
81651,note_on,0,0,0,,7,,,79,127
81771,note_off,120,0,0,,7,,,79,127
81772,note_on,1,0,0,,3,,,75,127
81892,note_off,120,0,0,,3,,,75,127
81892,note_off,0,0,0,,3,,,51,127
81893,note_on,1,0,0,,5,,,53,127
81893,note_on,0,0,0,,2,,,74,127
82134,note_off,241,0,0,,2,,,74,127
82134,note_off,0,0,0,,5,,,53,127
82135,note_on,1,0,0,,3,,,51,127
82135,note_on,0,0,0,,2,,,74,127
82196,note_on,61,0,0,,0,,,72,127
82211,note_off,15,0,0,,2,,,74,127
82256,note_on,45,0,0,,2,,,74,127
82271,note_off,15,0,0,,0,,,72,127
82316,note_on,45,0,0,,0,,,72,127
82331,note_off,15,0,0,,2,,,74,127
82375,note_off,44,0,0,,3,,,51,127
82376,note_off,1,0,0,,0,,,72,127
82376,note_on,0,0,0,,2,,,50,127
82376,note_on,0,0,0,,11,,,82,127
82496,note_off,120,0,0,,11,,,82,127
82497,note_on,1,0,0,,11,,,70,127
82617,note_off,120,0,0,,11,,,70,127
82617,note_off,0,0,0,,2,,,50,127
82618,note_on,1,0,0,,3,,,51,127
82618,note_on,0,0,0,,3,,,75,127
82738,note_off,120,0,0,,3,,,75,127
82739,note_on,1,0,0,,0,,,72,127
82859,note_off,120,0,0,,0,,,72,127
82859,note_off,0,0,0,,3,,,51,127
82860,note_on,1,0,0,,5,,,53,127
82860,note_on,0,0,0,,2,,,74,127
83103,note_on,243,0,0,,5,,,41,127
83164,note_on,61,0,0,,0,,,72,127
83177,note_off,13,0,0,,2,,,74,127
83225,note_on,48,0,0,,2,,,74,127
83240,note_off,15,0,0,,0,,,72,127
83285,note_on,45,0,0,,0,,,72,127
83300,note_off,15,0,0,,2,,,74,127
83344,note_off,44,0,0,,5,,,41,127
83344,note_off,0,0,0,,5,,,53,127
83345,note_off,1,0,0,,0,,,72,127
83345,note_on,0,0,0,,11,,,46,127
83345,note_on,0,0,0,,11,,,70,127
85280,note_off,1935,0,0,,11,,,70,127
85280,note_off,0,0,0,,11,,,46,127
87552,end_of_track,2272,1,0,,,,,,
