tick,type,time,meta,track,program,channel,pitch,tempo,note,velocity
0,copyright,0,1,0,,,,,,
0,program_change,0,0,0,6,0,,,,
0,pitchwheel,0,0,0,,0,0,,,
0,program_change,0,0,0,6,1,,,,
0,pitchwheel,0,0,0,,1,-590,,,
0,program_change,0,0,0,6,2,,,,
0,pitchwheel,0,0,0,,2,-272,,,
0,program_change,0,0,0,6,3,,,,
0,pitchwheel,0,0,0,,3,-353,,,
0,program_change,0,0,0,6,4,,,,
0,pitchwheel,0,0,0,,4,-560,,,
0,program_change,0,0,0,6,5,,,,
0,pitchwheel,0,0,0,,5,-80,,,
0,program_change,0,0,0,6,6,,,,
0,pitchwheel,0,0,0,,6,-625,,,
0,program_change,0,0,0,6,7,,,,
0,pitchwheel,0,0,0,,7,-130,,,
0,program_change,0,0,0,6,8,,,,
0,pitchwheel,0,0,0,,8,-512,,,
0,program_change,0,0,0,6,10,,,,
0,pitchwheel,0,0,0,,10,-464,,,
0,program_change,0,0,0,6,11,,,,
0,pitchwheel,0,0,0,,11,-208,,,
0,program_change,0,0,0,6,12,,,,
0,pitchwheel,0,0,0,,12,-553,,,
0,set_tempo,0,1,0,,,,500000,,
100,note_on,100,0,0,,11,,,46,127
300,note_on,200,0,0,,5,,,77,127
497,note_off,197,0,0,,5,,,77,127
500,note_on,3,0,0,,2,,,74,127
697,note_off,197,0,0,,2,,,74,127
700,note_on,3,0,0,,11,,,70,127
898,note_off,198,0,0,,11,,,70,127
900,note_on,2,0,0,,5,,,77,127
1069,note_off,169,0,0,,11,,,46,127
1097,note_off,28,0,0,,5,,,77,127
1100,note_on,3,0,0,,2,,,74,127
1297,note_off,197,0,0,,2,,,74,127
1300,note_on,3,0,0,,11,,,70,127
1500,note_on,200,0,0,,11,,,82,127
1600,note_off,100,0,0,,11,,,70,127
1697,note_off,97,0,0,,11,,,82,127
1700,note_on,3,0,0,,2,,,62,127
1700,note_on,0,0,0,,5,,,77,127
1897,note_off,197,0,0,,5,,,77,127
1899,note_off,2,0,0,,2,,,62,127
1900,note_on,1,0,0,,0,,,60,127
1900,note_on,0,0,0,,7,,,79,127
1900,note_on,0,0,0,,5,,,77,127
2097,note_off,197,0,0,,5,,,77,127
2097,note_off,0,0,0,,7,,,79,127
2100,note_on,3,0,0,,3,,,75,127
2297,note_off,197,0,0,,3,,,75,127
2299,note_off,2,0,0,,0,,,60,127
2300,note_on,1,0,0,,10,,,57,127
2300,note_on,0,0,0,,0,,,84,127
2497,note_off,197,0,0,,0,,,84,127
2499,note_off,2,0,0,,10,,,57,127
2500,note_on,1,0,0,,11,,,58,127
2500,note_on,0,0,0,,3,,,75,127
2500,note_on,0,0,0,,5,,,77,127
2697,note_off,197,0,0,,5,,,77,127
2697,note_off,0,0,0,,3,,,75,127
2700,note_on,3,0,0,,2,,,74,127
2897,note_off,197,0,0,,2,,,74,127
2899,note_off,2,0,0,,11,,,58,127
2900,note_on,1,0,0,,2,,,50,127
2900,note_on,0,0,0,,11,,,82,127
3097,note_off,197,0,0,,11,,,82,127
3099,note_off,2,0,0,,2,,,50,127
3100,note_on,1,0,0,,3,,,51,127
3100,note_on,0,0,0,,3,,,75,127
3100,note_on,0,0,0,,2,,,74,127
3297,note_off,197,0,0,,2,,,74,127
3297,note_off,0,0,0,,3,,,75,127
3300,note_on,3,0,0,,0,,,72,127
3497,note_off,197,0,0,,0,,,72,127
3499,note_off,2,0,0,,3,,,51,127
3500,note_on,1,0,0,,5,,,53,127
3500,note_on,0,0,0,,10,,,81,127
3697,note_off,197,0,0,,10,,,81,127
3699,note_off,2,0,0,,5,,,53,127
3700,note_on,1,0,0,,11,,,46,127
3700,note_on,0,0,0,,11,,,82,127
3797,note_off,97,0,0,,11,,,82,127
3800,note_on,3,0,0,,5,,,77,127
3897,note_off,97,0,0,,5,,,77,127
3900,note_on,3,0,0,,2,,,74,127
3997,note_off,97,0,0,,2,,,74,127
4000,note_on,3,0,0,,11,,,70,127
4097,note_off,97,0,0,,11,,,70,127
4099,note_off,2,0,0,,11,,,46,127
4100,note_on,1,0,0,,2,,,62,127
4100,note_on,0,0,0,,5,,,77,127
4297,note_off,197,0,0,,5,,,77,127
4299,note_off,2,0,0,,2,,,62,127
4300,note_on,1,0,0,,0,,,60,127
4300,note_on,0,0,0,,7,,,79,127
4300,note_on,0,0,0,,5,,,77,127
4497,note_off,197,0,0,,5,,,77,127
4497,note_off,0,0,0,,7,,,79,127
4500,note_on,3,0,0,,3,,,75,127
4697,note_off,197,0,0,,3,,,75,127
4699,note_off,2,0,0,,0,,,60,127
4700,note_on,1,0,0,,10,,,57,127
4700,note_on,0,0,0,,0,,,84,127
4897,note_off,197,0,0,,0,,,84,127
4899,note_off,2,0,0,,10,,,57,127
4900,note_on,1,0,0,,11,,,58,127
4900,note_on,0,0,0,,5,,,77,127
4900,note_on,0,0,0,,3,,,75,127
5097,note_off,197,0,0,,3,,,75,127
5097,note_off,0,0,0,,5,,,77,127
5100,note_on,3,0,0,,2,,,74,127
5297,note_off,197,0,0,,2,,,74,127
5299,note_off,2,0,0,,11,,,58,127
5300,note_on,1,0,0,,2,,,50,127
5300,note_on,0,0,0,,11,,,82,127
5497,note_off,197,0,0,,11,,,82,127
5499,note_off,2,0,0,,2,,,50,127
5500,note_on,1,0,0,,3,,,51,127
5500,note_on,0,0,0,,2,,,74,127
5500,note_on,0,0,0,,3,,,75,127
5697,note_off,197,0,0,,3,,,75,127
5697,note_off,0,0,0,,2,,,74,127
5700,note_on,3,0,0,,0,,,72,127
5897,note_off,197,0,0,,0,,,72,127
5899,note_off,2,0,0,,3,,,51,127
5900,note_on,1,0,0,,5,,,53,127
5900,note_on,0,0,0,,10,,,81,127
6097,note_off,197,0,0,,10,,,81,127
6099,note_off,2,0,0,,5,,,53,127
6100,note_on,1,0,0,,11,,,46,127
6100,note_on,0,0,0,,11,,,82,127
6197,note_off,97,0,0,,11,,,82,127
6200,note_on,3,0,0,,5,,,77,127
6297,note_off,97,0,0,,5,,,77,127
6300,note_on,3,0,0,,2,,,74,127
6397,note_off,97,0,0,,2,,,74,127
6400,note_on,3,0,0,,11,,,70,127
6497,note_off,97,0,0,,11,,,70,127
6500,note_on,3,0,0,,5,,,65,127
6597,note_off,97,0,0,,5,,,65,127
6600,note_on,3,0,0,,2,,,62,127
6697,note_off,97,0,0,,2,,,62,127
6699,note_off,2,0,0,,11,,,46,127
6700,note_on,1,0,0,,11,,,46,127
7300,note_off,600,0,0,,11,,,46,127
7501,note_on,201,0,0,,5,,,77,127
7698,note_off,197,0,0,,5,,,77,127
7701,note_on,3,0,0,,2,,,74,127
7898,note_off,197,0,0,,2,,,74,127
7901,note_on,3,0,0,,2,,,74,127
7901,note_on,0,0,0,,3,,,75,127
8098,note_off,197,0,0,,3,,,75,127
8100,note_off,2,0,0,,2,,,74,127
8101,note_on,1,0,0,,0,,,72,127
8101,note_on,0,0,0,,3,,,75,127
8298,note_off,197,0,0,,3,,,75,127
8300,note_off,2,0,0,,0,,,72,127
8301,note_on,1,0,0,,0,,,72,127
8301,note_on,0,0,0,,6,,,78,127
8498,note_off,197,0,0,,6,,,78,127
8500,note_off,2,0,0,,0,,,72,127
8501,note_on,1,0,0,,12,,,71,127
8501,note_on,0,0,0,,7,,,79,127
8698,note_off,197,0,0,,7,,,79,127
8700,note_off,2,0,0,,12,,,71,127
8701,note_on,1,0,0,,7,,,67,127
8701,note_on,0,0,0,,7,,,79,127
8798,note_off,97,0,0,,7,,,79,127
8800,note_off,2,0,0,,7,,,67,127
8801,note_on,1,0,0,,5,,,65,127
8801,note_on,0,0,0,,5,,,77,127
8898,note_off,97,0,0,,5,,,77,127
8900,note_off,2,0,0,,5,,,65,127
8901,note_on,1,0,0,,3,,,63,127
8901,note_on,0,0,0,,3,,,75,127
8998,note_off,97,0,0,,3,,,75,127
9000,note_off,2,0,0,,3,,,63,127
9001,note_on,1,0,0,,2,,,62,127
9001,note_on,0,0,0,,2,,,74,127
9098,note_off,97,0,0,,2,,,74,127
9100,note_off,2,0,0,,2,,,62,127
9101,note_on,1,0,0,,0,,,60,127
9101,note_on,0,0,0,,0,,,72,127
9165,note_off,64,0,0,,0,,,72,127
9168,note_on,3,0,0,,2,,,74,127
9232,note_off,64,0,0,,2,,,74,127
9235,note_on,3,0,0,,0,,,72,127
9299,note_off,64,0,0,,0,,,72,127
9301,note_off,2,0,0,,0,,,60,127
9302,note_on,1,0,0,,12,,,59,127
9302,note_on,0,0,0,,12,,,71,127
9499,note_off,197,0,0,,12,,,71,127
9501,note_off,2,0,0,,12,,,59,127
9502,note_on,1,0,0,,0,,,60,127
9502,note_on,0,0,0,,0,,,72,127
9699,note_off,197,0,0,,0,,,72,127
9701,note_off,2,0,0,,0,,,60,127
9702,note_on,1,0,0,,7,,,55,127
9702,note_on,0,0,0,,7,,,67,127
9899,note_off,197,0,0,,7,,,67,127
9902,note_on,3,0,0,,7,,,79,127
10099,note_off,197,0,0,,7,,,79,127
10101,note_off,2,0,0,,7,,,55,127
10102,note_on,1,0,0,,4,,,76,127
10299,note_off,197,0,0,,4,,,76,127
10302,note_on,3,0,0,,4,,,76,127
10302,note_on,0,0,0,,5,,,77,127
10499,note_off,197,0,0,,5,,,77,127
10501,note_off,2,0,0,,4,,,76,127
10502,note_on,1,0,0,,2,,,74,127
10502,note_on,0,0,0,,5,,,77,127
10699,note_off,197,0,0,,5,,,77,127
10701,note_off,2,0,0,,2,,,74,127
10702,note_on,1,0,0,,2,,,74,127
10702,note_on,0,0,0,,8,,,80,127
10899,note_off,197,0,0,,8,,,80,127
10901,note_off,2,0,0,,2,,,74,127
10902,note_on,1,0,0,,1,,,73,127
10902,note_on,0,0,0,,10,,,81,127
11099,note_off,197,0,0,,10,,,81,127
11101,note_off,2,0,0,,1,,,73,127
11102,note_on,1,0,0,,10,,,69,127
11102,note_on,0,0,0,,10,,,81,127
11199,note_off,97,0,0,,10,,,81,127
11201,note_off,2,0,0,,10,,,69,127
11202,note_on,1,0,0,,7,,,67,127
11202,note_on,0,0,0,,7,,,79,127
11299,note_off,97,0,0,,7,,,79,127
11301,note_off,2,0,0,,7,,,67,127
11302,note_on,1,0,0,,5,,,65,127
11302,note_on,0,0,0,,5,,,77,127
11399,note_off,97,0,0,,5,,,77,127
11401,note_off,2,0,0,,5,,,65,127
11402,note_on,1,0,0,,4,,,64,127
11402,note_on,0,0,0,,4,,,76,127
11499,note_off,97,0,0,,4,,,76,127
11501,note_off,2,0,0,,4,,,64,127
11502,note_on,1,0,0,,2,,,62,127
11502,note_on,0,0,0,,2,,,74,127
11566,note_off,64,0,0,,2,,,74,127
11569,note_on,3,0,0,,4,,,76,127
11633,note_off,64,0,0,,4,,,76,127
11636,note_on,3,0,0,,2,,,74,127
11700,note_off,64,0,0,,2,,,74,127
11702,note_off,2,0,0,,2,,,62,127
11703,note_on,1,0,0,,1,,,61,127
11703,note_on,0,0,0,,1,,,73,127
11900,note_off,197,0,0,,1,,,73,127
11902,note_off,2,0,0,,1,,,61,127
11903,note_on,1,0,0,,2,,,62,127
11903,note_on,0,0,0,,2,,,74,127
12100,note_off,197,0,0,,2,,,74,127
12102,note_off,2,0,0,,2,,,62,127
12103,note_on,1,0,0,,10,,,57,127
12103,note_on,0,0,0,,10,,,69,127
12300,note_off,197,0,0,,10,,,69,127
12302,note_off,2,0,0,,10,,,57,127
12303,note_on,1,0,0,,10,,,69,127
12303,note_on,0,0,0,,10,,,81,127
12402,note_off,99,0,0,,10,,,69,127
12403,note_on,1,0,0,,7,,,67,127
12500,note_off,97,0,0,,10,,,81,127
12502,note_off,2,0,0,,7,,,67,127
12503,note_on,1,0,0,,6,,,66,127
12503,note_on,0,0,0,,10,,,81,127
12602,note_off,99,0,0,,6,,,66,127
12603,note_on,1,0,0,,4,,,64,127
12700,note_off,97,0,0,,10,,,81,127
12702,note_off,2,0,0,,4,,,64,127
12703,note_on,1,0,0,,2,,,62,127
12703,note_on,0,0,0,,10,,,81,127
12900,note_off,197,0,0,,10,,,81,127
12902,note_off,2,0,0,,2,,,62,127
12903,note_on,1,0,0,,2,,,62,127
12903,note_on,0,0,0,,10,,,81,127
13002,note_off,99,0,0,,2,,,62,127
13003,note_on,1,0,0,,0,,,60,127
13100,note_off,97,0,0,,10,,,81,127
13102,note_off,2,0,0,,0,,,60,127
13103,note_on,1,0,0,,11,,,58,127
13103,note_on,0,0,0,,10,,,81,127
13202,note_off,99,0,0,,11,,,58,127
13203,note_on,1,0,0,,10,,,57,127
13300,note_off,97,0,0,,10,,,81,127
13302,note_off,2,0,0,,10,,,57,127
13303,note_on,1,0,0,,7,,,55,127
13303,note_on,0,0,0,,11,,,82,127
13500,note_off,197,0,0,,11,,,82,127
13502,note_off,2,0,0,,7,,,55,127
13503,note_on,1,0,0,,7,,,67,127
13503,note_on,0,0,0,,7,,,79,127
13602,note_off,99,0,0,,7,,,67,127
13603,note_on,1,0,0,,5,,,65,127
13700,note_off,97,0,0,,7,,,79,127
13702,note_off,2,0,0,,5,,,65,127
13703,note_on,1,0,0,,4,,,64,127
13703,note_on,0,0,0,,7,,,79,127
13802,note_off,99,0,0,,4,,,64,127
13803,note_on,1,0,0,,2,,,62,127
13900,note_off,97,0,0,,7,,,79,127
13902,note_off,2,0,0,,2,,,62,127
13903,note_on,1,0,0,,0,,,60,127
13903,note_on,0,0,0,,7,,,79,127
14100,note_off,197,0,0,,7,,,79,127
14102,note_off,2,0,0,,0,,,60,127
14103,note_on,1,0,0,,0,,,60,127
14103,note_on,0,0,0,,7,,,79,127
14202,note_off,99,0,0,,0,,,60,127
14203,note_on,1,0,0,,11,,,58,127
14300,note_off,97,0,0,,7,,,79,127
14302,note_off,2,0,0,,11,,,58,127
14303,note_on,1,0,0,,10,,,57,127
14303,note_on,0,0,0,,7,,,79,127
14402,note_off,99,0,0,,10,,,57,127
14403,note_on,1,0,0,,7,,,55,127
14500,note_off,97,0,0,,7,,,79,127
14502,note_off,2,0,0,,7,,,55,127
14503,note_on,1,0,0,,5,,,53,127
14503,note_on,0,0,0,,10,,,81,127
14600,note_off,97,0,0,,10,,,81,127
14603,note_on,3,0,0,,7,,,79,127
14700,note_off,97,0,0,,7,,,79,127
14703,note_on,3,0,0,,5,,,77,127
14800,note_off,97,0,0,,5,,,77,127
14803,note_on,3,0,0,,4,,,76,127
14900,note_off,97,0,0,,4,,,76,127
14903,note_on,3,0,0,,2,,,74,127
15000,note_off,97,0,0,,2,,,74,127
15003,note_on,3,0,0,,0,,,72,127
15100,note_off,97,0,0,,0,,,72,127
15102,note_off,2,0,0,,5,,,53,127
15103,note_on,1,0,0,,11,,,46,127
15103,note_on,0,0,0,,11,,,70,127
15200,note_off,97,0,0,,11,,,70,127
15203,note_on,3,0,0,,10,,,69,127
15300,note_off,97,0,0,,10,,,69,127
15303,note_on,3,0,0,,7,,,67,127
15400,note_off,97,0,0,,7,,,67,127
15403,note_on,3,0,0,,5,,,65,127
15500,note_off,97,0,0,,5,,,65,127
15503,note_on,3,0,0,,4,,,64,127
15600,note_off,97,0,0,,4,,,64,127
15603,note_on,3,0,0,,2,,,62,127
15700,note_off,97,0,0,,2,,,62,127
15702,note_off,2,0,0,,11,,,46,127
15703,note_on,1,0,0,,0,,,48,127
15703,note_on,0,0,0,,2,,,62,127
15750,note_off,47,0,0,,2,,,62,127
15753,note_on,3,0,0,,0,,,60,127
15800,note_off,47,0,0,,0,,,60,127
15803,note_on,3,0,0,,2,,,62,127
15850,note_off,47,0,0,,2,,,62,127
15853,note_on,3,0,0,,0,,,60,127
15900,note_off,47,0,0,,0,,,60,127
15902,note_off,2,0,0,,0,,,48,127
15903,note_on,1,0,0,,0,,,48,127
15903,note_on,0,0,0,,0,,,60,127
16000,note_off,97,0,0,,0,,,60,127
16002,note_off,2,0,0,,0,,,48,127
16003,note_on,1,0,0,,2,,,50,127
16003,note_on,0,0,0,,2,,,62,127
16100,note_off,97,0,0,,2,,,62,127
16102,note_off,2,0,0,,2,,,50,127
16103,note_on,1,0,0,,4,,,52,127
16103,note_on,0,0,0,,4,,,64,127
16200,note_off,97,0,0,,4,,,64,127
16202,note_off,2,0,0,,4,,,52,127
16203,note_on,1,0,0,,5,,,53,127
16203,note_on,0,0,0,,5,,,65,127
16300,note_off,97,0,0,,5,,,65,127
16302,note_off,2,0,0,,5,,,53,127
16303,note_on,1,0,0,,7,,,55,127
16303,note_on,0,0,0,,7,,,67,127
16400,note_off,97,0,0,,7,,,67,127
16402,note_off,2,0,0,,7,,,55,127
16403,note_on,1,0,0,,10,,,57,127
16403,note_on,0,0,0,,10,,,69,127
16500,note_off,97,0,0,,10,,,69,127
16502,note_off,2,0,0,,10,,,57,127
16503,note_on,1,0,0,,11,,,58,127
16503,note_on,0,0,0,,11,,,70,127
16600,note_off,97,0,0,,11,,,70,127
16602,note_off,2,0,0,,11,,,58,127
16603,note_on,1,0,0,,0,,,60,127
16603,note_on,0,0,0,,0,,,72,127
16700,note_off,97,0,0,,0,,,72,127
16702,note_off,2,0,0,,0,,,60,127
16703,note_on,1,0,0,,2,,,62,127
16703,note_on,0,0,0,,2,,,74,127
16800,note_off,97,0,0,,2,,,74,127
16802,note_off,2,0,0,,2,,,62,127
16803,note_on,1,0,0,,4,,,64,127
16803,note_on,0,0,0,,4,,,76,127
16900,note_off,97,0,0,,4,,,76,127
16902,note_off,2,0,0,,4,,,64,127
16903,note_on,1,0,0,,5,,,65,127
16903,note_on,0,0,0,,5,,,77,127
17000,note_off,97,0,0,,5,,,77,127
17002,note_off,2,0,0,,5,,,65,127
17003,note_on,1,0,0,,7,,,67,127
17003,note_on,0,0,0,,7,,,79,127
17100,note_off,97,0,0,,7,,,79,127
17102,note_off,2,0,0,,7,,,67,127
17103,note_on,1,0,0,,10,,,69,127
17103,note_on,0,0,0,,10,,,81,127
17200,note_off,97,0,0,,10,,,81,127
17202,note_off,2,0,0,,10,,,69,127
17203,note_on,1,0,0,,11,,,70,127
17203,note_on,0,0,0,,11,,,82,127
17300,note_off,97,0,0,,11,,,82,127
17302,note_off,2,0,0,,11,,,70,127
17303,note_on,1,0,0,,0,,,72,127
17303,note_on,0,0,0,,0,,,84,127
17400,note_off,97,0,0,,0,,,84,127
17402,note_off,2,0,0,,0,,,72,127
17403,note_on,1,0,0,,11,,,70,127
17403,note_on,0,0,0,,11,,,82,127
17500,note_off,97,0,0,,11,,,82,127
17502,note_off,2,0,0,,11,,,70,127
17503,note_on,1,0,0,,10,,,69,127
17503,note_on,0,0,0,,10,,,81,127
17700,note_off,197,0,0,,10,,,81,127
17702,note_off,2,0,0,,10,,,69,127
17703,note_on,1,0,0,,7,,,67,127
17703,note_on,0,0,0,,7,,,79,127
17767,note_off,64,0,0,,7,,,79,127
17770,note_on,3,0,0,,10,,,81,127
17834,note_off,64,0,0,,10,,,81,127
17837,note_on,3,0,0,,7,,,79,127
17901,note_off,64,0,0,,7,,,79,127
17903,note_off,2,0,0,,7,,,67,127
17904,note_on,1,0,0,,5,,,65,127
17904,note_on,0,0,0,,5,,,77,127
18087,note_off,183,0,0,,5,,,77,127
18104,note_off,17,0,0,,5,,,65,127
18105,note_on,1,0,0,,0,,,48,127
18105,note_on,0,0,0,,0,,,60,127
18302,note_off,197,0,0,,0,,,60,127
18304,note_off,2,0,0,,0,,,48,127
18305,note_on,1,0,0,,0,,,48,127
18305,note_on,0,0,0,,0,,,60,127
18402,note_off,97,0,0,,0,,,60,127
18404,note_off,2,0,0,,0,,,48,127
18405,note_on,1,0,0,,2,,,50,127
18405,note_on,0,0,0,,2,,,62,127
18502,note_off,97,0,0,,2,,,62,127
18504,note_off,2,0,0,,2,,,50,127
18505,note_on,1,0,0,,4,,,52,127
18505,note_on,0,0,0,,4,,,64,127
18602,note_off,97,0,0,,4,,,64,127
18604,note_off,2,0,0,,4,,,52,127
18605,note_on,1,0,0,,5,,,53,127
18605,note_on,0,0,0,,5,,,65,127
18702,note_off,97,0,0,,5,,,65,127
18704,note_off,2,0,0,,5,,,53,127
18705,note_on,1,0,0,,7,,,55,127
18705,note_on,0,0,0,,7,,,67,127
18802,note_off,97,0,0,,7,,,67,127
18804,note_off,2,0,0,,7,,,55,127
18805,note_on,1,0,0,,10,,,57,127
18805,note_on,0,0,0,,10,,,69,127
18902,note_off,97,0,0,,10,,,69,127
18904,note_off,2,0,0,,10,,,57,127
18905,note_on,1,0,0,,11,,,58,127
18905,note_on,0,0,0,,11,,,70,127
19002,note_off,97,0,0,,11,,,70,127
19004,note_off,2,0,0,,11,,,58,127
19005,note_on,1,0,0,,0,,,60,127
19005,note_on,0,0,0,,0,,,72,127
19102,note_off,97,0,0,,0,,,72,127
19104,note_off,2,0,0,,0,,,60,127
19105,note_on,1,0,0,,2,,,62,127
19105,note_on,0,0,0,,2,,,74,127
19202,note_off,97,0,0,,2,,,74,127
19204,note_off,2,0,0,,2,,,62,127
19205,note_on,1,0,0,,4,,,64,127
19205,note_on,0,0,0,,4,,,76,127
19302,note_off,97,0,0,,4,,,76,127
19304,note_off,2,0,0,,4,,,64,127
19305,note_on,1,0,0,,5,,,65,127
19305,note_on,0,0,0,,5,,,77,127
19402,note_off,97,0,0,,5,,,77,127
19404,note_off,2,0,0,,5,,,65,127
19405,note_on,1,0,0,,7,,,67,127
19405,note_on,0,0,0,,7,,,79,127
19502,note_off,97,0,0,,7,,,79,127
19504,note_off,2,0,0,,7,,,67,127
19505,note_on,1,0,0,,10,,,69,127
19505,note_on,0,0,0,,10,,,81,127
19602,note_off,97,0,0,,10,,,81,127
19604,note_off,2,0,0,,10,,,69,127
19605,note_on,1,0,0,,11,,,70,127
19605,note_on,0,0,0,,11,,,82,127
19702,note_off,97,0,0,,11,,,82,127
19704,note_off,2,0,0,,11,,,70,127
19705,note_on,1,0,0,,0,,,72,127
19705,note_on,0,0,0,,0,,,84,127
19802,note_off,97,0,0,,0,,,84,127
19804,note_off,2,0,0,,0,,,72,127
19805,note_on,1,0,0,,11,,,70,127
19805,note_on,0,0,0,,11,,,82,127
19902,note_off,97,0,0,,11,,,82,127
19904,note_off,2,0,0,,11,,,70,127
19905,note_on,1,0,0,,10,,,69,127
19905,note_on,0,0,0,,10,,,81,127
20102,note_off,197,0,0,,10,,,81,127
20104,note_off,2,0,0,,10,,,69,127
20105,note_on,1,0,0,,7,,,67,127
20105,note_on,0,0,0,,7,,,79,127
20169,note_off,64,0,0,,7,,,79,127
20172,note_on,3,0,0,,10,,,81,127
20236,note_off,64,0,0,,10,,,81,127
20239,note_on,3,0,0,,7,,,79,127
20303,note_off,64,0,0,,7,,,79,127
20305,note_off,2,0,0,,7,,,67,127
20306,note_on,1,0,0,,5,,,65,127
20306,note_on,0,0,0,,5,,,77,127
20503,note_off,197,0,0,,5,,,77,127
20505,note_off,2,0,0,,5,,,65,127
20506,note_on,1,0,0,,0,,,60,127
20506,note_on,0,0,0,,0,,,72,127
20705,note_off,199,0,0,,0,,,60,127
20706,note_on,1,0,0,,4,,,64,127
20706,note_on,0,0,0,,7,,,79,127
20756,note_off,50,0,0,,0,,,72,127
20803,note_off,47,0,0,,7,,,79,127
20806,note_on,3,0,0,,4,,,76,127
20903,note_off,97,0,0,,4,,,76,127
20905,note_off,2,0,0,,4,,,64,127
20906,note_on,1,0,0,,5,,,65,127
20906,note_on,0,0,0,,10,,,81,127
21003,note_off,97,0,0,,10,,,81,127
21006,note_on,3,0,0,,5,,,77,127
21103,note_off,97,0,0,,5,,,77,127
21105,note_off,2,0,0,,5,,,65,127
21106,note_on,1,0,0,,7,,,67,127
21106,note_on,0,0,0,,11,,,82,127
21303,note_off,197,0,0,,11,,,82,127
21305,note_off,2,0,0,,7,,,67,127
21306,note_on,1,0,0,,5,,,65,127
21306,note_on,0,0,0,,10,,,81,127
21403,note_off,97,0,0,,10,,,81,127
21406,note_on,3,0,0,,5,,,77,127
21503,note_off,97,0,0,,5,,,77,127
21505,note_off,2,0,0,,5,,,65,127
21506,note_on,1,0,0,,7,,,67,127
21506,note_on,0,0,0,,11,,,82,127
21603,note_off,97,0,0,,11,,,82,127
21606,note_on,3,0,0,,7,,,79,127
21703,note_off,97,0,0,,7,,,79,127
21705,note_off,2,0,0,,7,,,67,127
21706,note_on,1,0,0,,10,,,69,127
21706,note_on,0,0,0,,0,,,84,127
21903,note_off,197,0,0,,0,,,84,127
21905,note_off,2,0,0,,10,,,69,127
21906,note_on,1,0,0,,7,,,67,127
21906,note_on,0,0,0,,11,,,82,127
22003,note_off,97,0,0,,11,,,82,127
22006,note_on,3,0,0,,7,,,79,127
22103,note_off,97,0,0,,7,,,79,127
22105,note_off,2,0,0,,7,,,67,127
22106,note_on,1,0,0,,10,,,69,127
22106,note_on,0,0,0,,0,,,84,127
22203,note_off,97,0,0,,0,,,84,127
22206,note_on,3,0,0,,10,,,81,127
22303,note_off,97,0,0,,10,,,81,127
22305,note_off,2,0,0,,10,,,69,127
22306,note_on,1,0,0,,11,,,70,127
22306,note_on,0,0,0,,2,,,86,127
22503,note_off,197,0,0,,2,,,86,127
22505,note_off,2,0,0,,11,,,70,127
22506,note_on,1,0,0,,11,,,70,127
22506,note_on,0,0,0,,4,,,76,127
22703,note_off,197,0,0,,4,,,76,127
22705,note_off,2,0,0,,11,,,70,127
22706,note_on,1,0,0,,10,,,69,127
22706,note_on,0,0,0,,5,,,77,127
22903,note_off,197,0,0,,5,,,77,127
22905,note_off,2,0,0,,10,,,69,127
22906,note_on,1,0,0,,7,,,67,127
22906,note_on,0,0,0,,11,,,82,127
23103,note_off,197,0,0,,11,,,82,127
23105,note_off,2,0,0,,7,,,67,127
23106,note_on,1,0,0,,7,,,67,127
23106,note_on,0,0,0,,2,,,74,127
23303,note_off,197,0,0,,2,,,74,127
23305,note_off,2,0,0,,7,,,67,127
23306,note_on,1,0,0,,5,,,65,127
23306,note_on,0,0,0,,4,,,76,127
23503,note_off,197,0,0,,4,,,76,127
23505,note_off,2,0,0,,5,,,65,127
23506,note_on,1,0,0,,4,,,64,127
23506,note_on,0,0,0,,7,,,79,127
23703,note_off,197,0,0,,7,,,79,127
23706,note_on,3,0,0,,11,,,70,127
23902,note_off,196,0,0,,4,,,64,127
23903,note_off,1,0,0,,11,,,70,127
23906,note_on,3,0,0,,2,,,62,127
23906,note_on,0,0,0,,12,,,71,127
24103,note_off,197,0,0,,12,,,71,127
24105,note_off,2,0,0,,2,,,62,127
24106,note_on,1,0,0,,0,,,60,127
24106,note_on,0,0,0,,0,,,72,127
24303,note_off,197,0,0,,0,,,72,127
24306,note_on,3,0,0,,11,,,82,127
24505,note_off,199,0,0,,0,,,60,127
24506,note_on,1,0,0,,4,,,64,127
24703,note_off,197,0,0,,11,,,82,127
24705,note_off,2,0,0,,4,,,64,127
24706,note_on,1,0,0,,5,,,65,127
24706,note_on,0,0,0,,10,,,81,127
24770,note_off,64,0,0,,10,,,81,127
24773,note_on,3,0,0,,7,,,79,127
24837,note_off,64,0,0,,7,,,79,127
24840,note_on,3,0,0,,5,,,77,127
24904,note_off,64,0,0,,5,,,77,127
24906,note_off,2,0,0,,5,,,65,127
24907,note_on,1,0,0,,0,,,60,127
24907,note_on,0,0,0,,10,,,81,127
25104,note_off,197,0,0,,10,,,81,127
25107,note_on,3,0,0,,0,,,48,127
25107,note_on,0,0,0,,7,,,79,127
25171,note_off,64,0,0,,7,,,79,127
25174,note_on,3,0,0,,10,,,81,127
25238,note_off,64,0,0,,10,,,81,127
25241,note_on,3,0,0,,7,,,79,127
25304,note_off,63,0,0,,0,,,60,127
25305,note_off,1,0,0,,7,,,79,127
25307,note_off,2,0,0,,0,,,48,127
25308,note_on,1,0,0,,5,,,53,127
25308,note_on,0,0,0,,5,,,77,127
25505,note_off,197,0,0,,5,,,77,127
25507,note_off,2,0,0,,5,,,53,127
25508,note_on,1,0,0,,4,,,64,127
25508,note_on,0,0,0,,7,,,79,127
25605,note_off,97,0,0,,7,,,79,127
25608,note_on,3,0,0,,4,,,76,127
25705,note_off,97,0,0,,4,,,76,127
25707,note_off,2,0,0,,4,,,64,127
25708,note_on,1,0,0,,5,,,65,127
25708,note_on,0,0,0,,10,,,81,127
25805,note_off,97,0,0,,10,,,81,127
25808,note_on,3,0,0,,5,,,77,127
25905,note_off,97,0,0,,5,,,77,127
25907,note_off,2,0,0,,5,,,65,127
25908,note_on,1,0,0,,7,,,67,127
25908,note_on,0,0,0,,11,,,82,127
26105,note_off,197,0,0,,11,,,82,127
26107,note_off,2,0,0,,7,,,67,127
26108,note_on,1,0,0,,5,,,65,127
26108,note_on,0,0,0,,10,,,81,127
26205,note_off,97,0,0,,10,,,81,127
26208,note_on,3,0,0,,5,,,77,127
26305,note_off,97,0,0,,5,,,77,127
26307,note_off,2,0,0,,5,,,65,127
26308,note_on,1,0,0,,7,,,67,127
26308,note_on,0,0,0,,11,,,82,127
26405,note_off,97,0,0,,11,,,82,127
26408,note_on,3,0,0,,7,,,79,127
26505,note_off,97,0,0,,7,,,79,127
26507,note_off,2,0,0,,7,,,67,127
26508,note_on,1,0,0,,10,,,69,127
26508,note_on,0,0,0,,0,,,84,127
26705,note_off,197,0,0,,0,,,84,127
26707,note_off,2,0,0,,10,,,69,127
26708,note_on,1,0,0,,7,,,67,127
26708,note_on,0,0,0,,11,,,82,127
26805,note_off,97,0,0,,11,,,82,127
26808,note_on,3,0,0,,7,,,79,127
26905,note_off,97,0,0,,7,,,79,127
26907,note_off,2,0,0,,7,,,67,127
26908,note_on,1,0,0,,10,,,69,127
26908,note_on,0,0,0,,0,,,84,127
27005,note_off,97,0,0,,0,,,84,127
27008,note_on,3,0,0,,10,,,81,127
27105,note_off,97,0,0,,10,,,81,127
27107,note_off,2,0,0,,10,,,69,127
27108,note_on,1,0,0,,11,,,70,127
27108,note_on,0,0,0,,2,,,86,127
27305,note_off,197,0,0,,2,,,86,127
27308,note_on,3,0,0,,4,,,76,127
27504,note_off,196,0,0,,11,,,70,127
27505,note_off,1,0,0,,4,,,76,127
27508,note_on,3,0,0,,10,,,69,127
27508,note_on,0,0,0,,5,,,77,127
27705,note_off,197,0,0,,5,,,77,127
27707,note_off,2,0,0,,10,,,69,127
27708,note_on,1,0,0,,7,,,67,127
27708,note_on,0,0,0,,11,,,82,127
27905,note_off,197,0,0,,11,,,82,127
27907,note_off,2,0,0,,7,,,67,127
27908,note_on,1,0,0,,7,,,67,127
27908,note_on,0,0,0,,2,,,74,127
28105,note_off,197,0,0,,2,,,74,127
28107,note_off,2,0,0,,7,,,67,127
28108,note_on,1,0,0,,5,,,65,127
28108,note_on,0,0,0,,4,,,76,127
28305,note_off,197,0,0,,4,,,76,127
28307,note_off,2,0,0,,5,,,65,127
28308,note_on,1,0,0,,4,,,64,127
28308,note_on,0,0,0,,7,,,79,127
28505,note_off,197,0,0,,7,,,79,127
28507,note_off,2,0,0,,4,,,64,127
28508,note_on,1,0,0,,4,,,64,127
28508,note_on,0,0,0,,11,,,70,127
28705,note_off,197,0,0,,11,,,70,127
28707,note_off,2,0,0,,4,,,64,127
28708,note_on,1,0,0,,2,,,62,127
28708,note_on,0,0,0,,12,,,71,127
28905,note_off,197,0,0,,12,,,71,127
28907,note_off,2,0,0,,2,,,62,127
28908,note_on,1,0,0,,0,,,60,127
28908,note_on,0,0,0,,0,,,72,127
29105,note_off,197,0,0,,0,,,72,127
29108,note_on,3,0,0,,11,,,82,127
29307,note_off,199,0,0,,0,,,60,127
29308,note_on,1,0,0,,4,,,64,127
29505,note_off,197,0,0,,11,,,82,127
29507,note_off,2,0,0,,4,,,64,127
29508,note_on,1,0,0,,5,,,65,127
29508,note_on,0,0,0,,10,,,81,127
29572,note_off,64,0,0,,10,,,81,127
29575,note_on,3,0,0,,7,,,79,127
29639,note_off,64,0,0,,7,,,79,127
29642,note_on,3,0,0,,5,,,77,127
29706,note_off,64,0,0,,5,,,77,127
29708,note_off,2,0,0,,5,,,65,127
29709,note_on,1,0,0,,0,,,60,127
29709,note_on,0,0,0,,10,,,81,127
29906,note_off,197,0,0,,10,,,81,127
29909,note_on,3,0,0,,0,,,48,127
29909,note_on,0,0,0,,7,,,79,127
29973,note_off,64,0,0,,7,,,79,127
29976,note_on,3,0,0,,10,,,81,127
30040,note_off,64,0,0,,10,,,81,127
30043,note_on,3,0,0,,7,,,79,127
30106,note_off,63,0,0,,0,,,60,127
30107,note_off,1,0,0,,7,,,79,127
30109,note_off,2,0,0,,0,,,48,127
30110,note_on,1,0,0,,5,,,53,127
30110,note_on,0,0,0,,5,,,77,127
30283,note_off,173,0,0,,5,,,77,127
30310,note_on,27,0,0,,10,,,81,127
30407,note_off,97,0,0,,10,,,81,127
30410,note_on,3,0,0,,7,,,79,127
30507,note_off,97,0,0,,7,,,79,127
30509,note_off,2,0,0,,5,,,53,127
30510,note_on,1,0,0,,10,,,57,127
30510,note_on,0,0,0,,5,,,77,127
30607,note_off,97,0,0,,5,,,77,127
30610,note_on,3,0,0,,4,,,76,127
30707,note_off,97,0,0,,4,,,76,127
30709,note_off,2,0,0,,10,,,57,127
30710,note_on,1,0,0,,7,,,55,127
30710,note_on,0,0,0,,4,,,76,127
30710,note_on,0,0,0,,5,,,77,127
30807,note_off,97,0,0,,5,,,77,127
30807,note_off,0,0,0,,4,,,76,127
30810,note_on,3,0,0,,2,,,74,127
30907,note_off,97,0,0,,2,,,74,127
30910,note_on,3,0,0,,0,,,72,127
31007,note_off,97,0,0,,0,,,72,127
31010,note_on,3,0,0,,11,,,70,127
31107,note_off,97,0,0,,11,,,70,127
31109,note_off,2,0,0,,7,,,55,127
31110,note_on,1,0,0,,4,,,52,127
31110,note_on,0,0,0,,10,,,69,127
31207,note_off,97,0,0,,10,,,69,127
31210,note_on,3,0,0,,7,,,67,127
31307,note_off,97,0,0,,7,,,67,127
31309,note_off,2,0,0,,4,,,52,127
31310,note_on,1,0,0,,5,,,53,127
31310,note_on,0,0,0,,10,,,69,127
31507,note_off,197,0,0,,10,,,69,127
31510,note_on,3,0,0,,5,,,77,127
31607,note_off,97,0,0,,5,,,77,127
31610,note_on,3,0,0,,4,,,76,127
31707,note_off,97,0,0,,4,,,76,127
31709,note_off,2,0,0,,5,,,53,127
31710,note_on,1,0,0,,10,,,45,127
31710,note_on,0,0,0,,2,,,74,127
31807,note_off,97,0,0,,2,,,74,127
31810,note_on,3,0,0,,0,,,72,127
31907,note_off,97,0,0,,0,,,72,127
31909,note_off,2,0,0,,10,,,45,127
31910,note_on,1,0,0,,11,,,46,127
31910,note_on,0,0,0,,2,,,74,127
31910,note_on,0,0,0,,0,,,72,127
32007,note_off,97,0,0,,0,,,72,127
32007,note_off,0,0,0,,2,,,74,127
32010,note_on,3,0,0,,11,,,70,127
32107,note_off,97,0,0,,11,,,70,127
32110,note_on,3,0,0,,10,,,69,127
32207,note_off,97,0,0,,10,,,69,127
32210,note_on,3,0,0,,7,,,67,127
32307,note_off,97,0,0,,7,,,67,127
32309,note_off,2,0,0,,11,,,46,127
32310,note_on,1,0,0,,0,,,48,127
32310,note_on,0,0,0,,5,,,65,127
32407,note_off,97,0,0,,5,,,65,127
32410,note_on,3,0,0,,4,,,64,127
32507,note_off,97,0,0,,4,,,64,127
32509,note_off,2,0,0,,0,,,48,127
32510,note_on,1,0,0,,5,,,41,127
32510,note_on,0,0,0,,5,,,65,127
32687,note_off,177,0,0,,5,,,65,127
32710,note_on,23,0,0,,10,,,81,127
32807,note_off,97,0,0,,10,,,81,127
32810,note_on,3,0,0,,7,,,79,127
32907,note_off,97,0,0,,7,,,79,127
32909,note_off,2,0,0,,5,,,41,127
32910,note_on,1,0,0,,10,,,57,127
32910,note_on,0,0,0,,5,,,77,127
33007,note_off,97,0,0,,5,,,77,127
33010,note_on,3,0,0,,4,,,76,127
33107,note_off,97,0,0,,4,,,76,127
33109,note_off,2,0,0,,10,,,57,127
33110,note_on,1,0,0,,7,,,55,127
33110,note_on,0,0,0,,5,,,77,127
33110,note_on,0,0,0,,4,,,76,127
33207,note_off,97,0,0,,4,,,76,127
33207,note_off,0,0,0,,5,,,77,127
33210,note_on,3,0,0,,2,,,74,127
33307,note_off,97,0,0,,2,,,74,127
33310,note_on,3,0,0,,0,,,72,127
33407,note_off,97,0,0,,0,,,72,127
33410,note_on,3,0,0,,11,,,70,127
33507,note_off,97,0,0,,11,,,70,127
33509,note_off,2,0,0,,7,,,55,127
33510,note_on,1,0,0,,4,,,52,127
33510,note_on,0,0,0,,10,,,69,127
33607,note_off,97,0,0,,10,,,69,127
33610,note_on,3,0,0,,7,,,67,127
33707,note_off,97,0,0,,7,,,67,127
33709,note_off,2,0,0,,4,,,52,127
33710,note_on,1,0,0,,5,,,53,127
33710,note_on,0,0,0,,10,,,69,127
33907,note_off,197,0,0,,10,,,69,127
33910,note_on,3,0,0,,5,,,77,127
34007,note_off,97,0,0,,5,,,77,127
34010,note_on,3,0,0,,4,,,76,127
34107,note_off,97,0,0,,4,,,76,127
34109,note_off,2,0,0,,5,,,53,127
34110,note_on,1,0,0,,10,,,45,127
34110,note_on,0,0,0,,2,,,74,127
34207,note_off,97,0,0,,2,,,74,127
34210,note_on,3,0,0,,0,,,72,127
34307,note_off,97,0,0,,0,,,72,127
34309,note_off,2,0,0,,10,,,45,127
34310,note_on,1,0,0,,11,,,46,127
34310,note_on,0,0,0,,0,,,72,127
34310,note_on,0,0,0,,2,,,74,127
34407,note_off,97,0,0,,2,,,74,127
34407,note_off,0,0,0,,0,,,72,127
34410,note_on,3,0,0,,11,,,70,127
34507,note_off,97,0,0,,11,,,70,127
34510,note_on,3,0,0,,10,,,69,127
34607,note_off,97,0,0,,10,,,69,127
34610,note_on,3,0,0,,7,,,67,127
34707,note_off,97,0,0,,7,,,67,127
34709,note_off,2,0,0,,11,,,46,127
34710,note_on,1,0,0,,0,,,48,127
34710,note_on,0,0,0,,5,,,65,127
34807,note_off,97,0,0,,5,,,65,127
34810,note_on,3,0,0,,4,,,64,127
34907,note_off,97,0,0,,4,,,64,127
34909,note_off,2,0,0,,0,,,48,127
34910,note_on,1,0,0,,5,,,41,127
34910,note_on,0,0,0,,5,,,65,127
35109,note_off,199,0,0,,5,,,41,127
35110,note_on,1,0,0,,5,,,53,127
35209,note_off,99,0,0,,5,,,53,127
35210,note_on,1,0,0,,3,,,51,127
35307,note_off,97,0,0,,5,,,65,127
35309,note_off,2,0,0,,3,,,51,127
35310,note_on,1,0,0,,2,,,50,127
35409,note_off,99,0,0,,2,,,50,127
35410,note_on,1,0,0,,0,,,48,127
35509,note_off,99,0,0,,0,,,48,127
35510,note_on,1,0,0,,11,,,46,127
35710,note_on,200,0,0,,5,,,77,127
35907,note_off,197,0,0,,5,,,77,127
35910,note_on,3,0,0,,2,,,74,127
36107,note_off,197,0,0,,2,,,74,127
36110,note_on,3,0,0,,11,,,70,127
36307,note_off,197,0,0,,11,,,70,127
36309,note_off,2,0,0,,11,,,46,127
36310,note_on,1,0,0,,11,,,82,127
36507,note_off,197,0,0,,11,,,82,127
36510,note_on,3,0,0,,7,,,79,127
36707,note_off,197,0,0,,7,,,79,127
36710,note_on,3,0,0,,8,,,80,127
36710,note_on,0,0,0,,11,,,82,127
36907,note_off,197,0,0,,11,,,82,127
36907,note_off,0,0,0,,8,,,80,127
36910,note_on,3,0,0,,8,,,68,127
36910,note_on,0,0,0,,7,,,79,127
37007,note_off,97,0,0,,7,,,79,127
37010,note_on,3,0,0,,5,,,77,127
37107,note_off,97,0,0,,5,,,77,127
37109,note_off,2,0,0,,8,,,68,127
37110,note_on,1,0,0,,8,,,68,127
37110,note_on,0,0,0,,3,,,75,127
37207,note_off,97,0,0,,3,,,75,127
37210,note_on,3,0,0,,2,,,74,127
37307,note_off,97,0,0,,2,,,74,127
37309,note_off,2,0,0,,8,,,68,127
37310,note_on,1,0,0,,7,,,67,127
37310,note_on,0,0,0,,11,,,82,127
37407,note_off,97,0,0,,11,,,82,127
37410,note_on,3,0,0,,8,,,80,127
37507,note_off,97,0,0,,8,,,80,127
37509,note_off,2,0,0,,7,,,67,127
37510,note_on,1,0,0,,7,,,67,127
37510,note_on,0,0,0,,7,,,79,127
37607,note_off,97,0,0,,7,,,79,127
37610,note_on,3,0,0,,5,,,77,127
37707,note_off,97,0,0,,5,,,77,127
37709,note_off,2,0,0,,7,,,67,127
37710,note_on,1,0,0,,7,,,67,127
37710,note_on,0,0,0,,3,,,75,127
37807,note_off,97,0,0,,3,,,75,127
37810,note_on,3,0,0,,2,,,74,127
37907,note_off,97,0,0,,2,,,74,127
37909,note_off,2,0,0,,7,,,67,127
37910,note_on,1,0,0,,8,,,68,127
37910,note_on,0,0,0,,0,,,72,127
38107,note_off,197,0,0,,0,,,72,127
38109,note_off,2,0,0,,8,,,68,127
38110,note_on,1,0,0,,11,,,70,127
38110,note_on,0,0,0,,3,,,75,127
38174,note_off,64,0,0,,3,,,75,127
38177,note_on,3,0,0,,2,,,74,127
38241,note_off,64,0,0,,2,,,74,127
38244,note_on,3,0,0,,3,,,75,127
38308,note_off,64,0,0,,3,,,75,127
38310,note_off,2,0,0,,11,,,70,127
38311,note_on,1,0,0,,8,,,68,127
38311,note_on,0,0,0,,2,,,74,127
38375,note_off,64,0,0,,2,,,74,127
38378,note_on,3,0,0,,0,,,72,127
38442,note_off,64,0,0,,0,,,72,127
38445,note_on,3,0,0,,2,,,74,127
38509,note_off,64,0,0,,2,,,74,127
38511,note_off,2,0,0,,8,,,68,127
38512,note_on,1,0,0,,7,,,67,127
38512,note_on,0,0,0,,3,,,75,127
38679,note_off,167,0,0,,3,,,75,127
38712,note_on,33,0,0,,11,,,82,127
38812,note_off,100,0,0,,7,,,67,127
38909,note_off,97,0,0,,11,,,82,127
38912,note_on,3,0,0,,7,,,79,127
39109,note_off,197,0,0,,7,,,79,127
39112,note_on,3,0,0,,5,,,77,127
39159,note_off,47,0,0,,5,,,77,127
39162,note_on,3,0,0,,4,,,76,127
39209,note_off,47,0,0,,4,,,76,127
39212,note_on,3,0,0,,5,,,77,127
39259,note_off,47,0,0,,5,,,77,127
39262,note_on,3,0,0,,4,,,76,127
39309,note_off,47,0,0,,4,,,76,127
39312,note_on,3,0,0,,0,,,84,127
39509,note_off,197,0,0,,0,,,84,127
39512,note_on,3,0,0,,10,,,81,127
39709,note_off,197,0,0,,10,,,81,127
39712,note_on,3,0,0,,7,,,79,127
39759,note_off,47,0,0,,7,,,79,127
39762,note_on,3,0,0,,6,,,78,127
39809,note_off,47,0,0,,6,,,78,127
39812,note_on,3,0,0,,7,,,79,127
39859,note_off,47,0,0,,7,,,79,127
39862,note_on,3,0,0,,6,,,78,127
39909,note_off,47,0,0,,6,,,78,127
39912,note_on,3,0,0,,2,,,62,127
39912,note_on,0,0,0,,2,,,74,127
40009,note_off,97,0,0,,2,,,74,127
40011,note_off,2,0,0,,2,,,62,127
40012,note_on,1,0,0,,0,,,60,127
40012,note_on,0,0,0,,0,,,72,127
40109,note_off,97,0,0,,0,,,72,127
40111,note_off,2,0,0,,0,,,60,127
40112,note_on,1,0,0,,11,,,58,127
40112,note_on,0,0,0,,11,,,70,127
40209,note_off,97,0,0,,11,,,70,127
40211,note_off,2,0,0,,11,,,58,127
40212,note_on,1,0,0,,10,,,57,127
40212,note_on,0,0,0,,10,,,69,127
40309,note_off,97,0,0,,10,,,69,127
40311,note_off,2,0,0,,10,,,57,127
40312,note_on,1,0,0,,7,,,55,127
40312,note_on,0,0,0,,7,,,67,127
40376,note_off,64,0,0,,7,,,67,127
40379,note_on,3,0,0,,10,,,69,127
40443,note_off,64,0,0,,10,,,69,127
40446,note_on,3,0,0,,7,,,67,127
40510,note_off,64,0,0,,7,,,67,127
40512,note_off,2,0,0,,7,,,55,127
40513,note_on,1,0,0,,6,,,54,127
40513,note_on,0,0,0,,6,,,66,127
40710,note_off,197,0,0,,6,,,66,127
40712,note_off,2,0,0,,6,,,54,127
40713,note_on,1,0,0,,7,,,55,127
40713,note_on,0,0,0,,7,,,67,127
40910,note_off,197,0,0,,7,,,67,127
40912,note_off,2,0,0,,7,,,55,127
40913,note_on,1,0,0,,2,,,50,127
40913,note_on,0,0,0,,2,,,62,127
41010,note_off,97,0,0,,2,,,62,127
41012,note_off,2,0,0,,2,,,50,127
41013,note_on,1,0,0,,3,,,51,127
41013,note_on,0,0,0,,3,,,63,127
41110,note_off,97,0,0,,3,,,63,127
41112,note_off,2,0,0,,3,,,51,127
41113,note_on,1,0,0,,6,,,54,127
41113,note_on,0,0,0,,6,,,66,127
41210,note_off,97,0,0,,6,,,66,127
41212,note_off,2,0,0,,6,,,54,127
41213,note_on,1,0,0,,7,,,55,127
41213,note_on,0,0,0,,7,,,67,127
41310,note_off,97,0,0,,7,,,67,127
41312,note_off,2,0,0,,7,,,55,127
41313,note_on,1,0,0,,10,,,57,127
41313,note_on,0,0,0,,10,,,69,127
41410,note_off,97,0,0,,10,,,69,127
41412,note_off,2,0,0,,10,,,57,127
41413,note_on,1,0,0,,11,,,58,127
41413,note_on,0,0,0,,11,,,70,127
41510,note_off,97,0,0,,11,,,70,127
41512,note_off,2,0,0,,11,,,58,127
41513,note_on,1,0,0,,0,,,60,127
41513,note_on,0,0,0,,0,,,72,127
41610,note_off,97,0,0,,0,,,72,127
41612,note_off,2,0,0,,0,,,60,127
41613,note_on,1,0,0,,2,,,62,127
41613,note_on,0,0,0,,2,,,74,127
41710,note_off,97,0,0,,2,,,74,127
41712,note_off,2,0,0,,2,,,62,127
41713,note_on,1,0,0,,3,,,63,127
41713,note_on,0,0,0,,3,,,75,127
41810,note_off,97,0,0,,3,,,75,127
41812,note_off,2,0,0,,3,,,63,127
41813,note_on,1,0,0,,6,,,66,127
41813,note_on,0,0,0,,6,,,78,127
41910,note_off,97,0,0,,6,,,78,127
41912,note_off,2,0,0,,6,,,66,127
41913,note_on,1,0,0,,7,,,67,127
41913,note_on,0,0,0,,7,,,79,127
42010,note_off,97,0,0,,7,,,79,127
42012,note_off,2,0,0,,7,,,67,127
42013,note_on,1,0,0,,10,,,69,127
42013,note_on,0,0,0,,10,,,81,127
42110,note_off,97,0,0,,10,,,81,127
42112,note_off,2,0,0,,10,,,69,127
42113,note_on,1,0,0,,11,,,70,127
42113,note_on,0,0,0,,0,,,84,127
42160,note_off,47,0,0,,0,,,84,127
42163,note_on,3,0,0,,11,,,82,127
42210,note_off,47,0,0,,11,,,82,127
42213,note_on,3,0,0,,0,,,84,127
42260,note_off,47,0,0,,0,,,84,127
42263,note_on,3,0,0,,11,,,82,127
42310,note_off,47,0,0,,11,,,82,127
42312,note_off,2,0,0,,11,,,70,127
42313,note_on,1,0,0,,10,,,69,127
42313,note_on,0,0,0,,10,,,81,127
42510,note_off,197,0,0,,10,,,81,127
42512,note_off,2,0,0,,10,,,69,127
42513,note_on,1,0,0,,7,,,67,127
42513,note_on,0,0,0,,7,,,79,127
42710,note_off,197,0,0,,7,,,79,127
42712,note_off,2,0,0,,7,,,67,127
42713,note_on,1,0,0,,2,,,50,127
42713,note_on,0,0,0,,2,,,62,127
42810,note_off,97,0,0,,2,,,62,127
42812,note_off,2,0,0,,2,,,50,127
42813,note_on,1,0,0,,3,,,51,127
42813,note_on,0,0,0,,3,,,63,127
42910,note_off,97,0,0,,3,,,63,127
42912,note_off,2,0,0,,3,,,51,127
42913,note_on,1,0,0,,6,,,54,127
42913,note_on,0,0,0,,6,,,66,127
43010,note_off,97,0,0,,6,,,66,127
43012,note_off,2,0,0,,6,,,54,127
43013,note_on,1,0,0,,7,,,55,127
43013,note_on,0,0,0,,7,,,67,127
43110,note_off,97,0,0,,7,,,67,127
43112,note_off,2,0,0,,7,,,55,127
43113,note_on,1,0,0,,10,,,57,127
43113,note_on,0,0,0,,10,,,69,127
43210,note_off,97,0,0,,10,,,69,127
43212,note_off,2,0,0,,10,,,57,127
43213,note_on,1,0,0,,11,,,58,127
43213,note_on,0,0,0,,11,,,70,127
43310,note_off,97,0,0,,11,,,70,127
43312,note_off,2,0,0,,11,,,58,127
43313,note_on,1,0,0,,0,,,60,127
43313,note_on,0,0,0,,0,,,72,127
43410,note_off,97,0,0,,0,,,72,127
43412,note_off,2,0,0,,0,,,60,127
43413,note_on,1,0,0,,2,,,62,127
43413,note_on,0,0,0,,2,,,74,127
43510,note_off,97,0,0,,2,,,74,127
43512,note_off,2,0,0,,2,,,62,127
43513,note_on,1,0,0,,3,,,63,127
43513,note_on,0,0,0,,3,,,75,127
43610,note_off,97,0,0,,3,,,75,127
43612,note_off,2,0,0,,3,,,63,127
43613,note_on,1,0,0,,6,,,66,127
43613,note_on,0,0,0,,6,,,78,127
43710,note_off,97,0,0,,6,,,78,127
43712,note_off,2,0,0,,6,,,66,127
43713,note_on,1,0,0,,7,,,67,127
43713,note_on,0,0,0,,7,,,79,127
43810,note_off,97,0,0,,7,,,79,127
43812,note_off,2,0,0,,7,,,67,127
43813,note_on,1,0,0,,10,,,69,127
43813,note_on,0,0,0,,10,,,81,127
43910,note_off,97,0,0,,10,,,81,127
43912,note_off,2,0,0,,10,,,69,127
43913,note_on,1,0,0,,11,,,70,127
43913,note_on,0,0,0,,0,,,84,127
43960,note_off,47,0,0,,0,,,84,127
43963,note_on,3,0,0,,11,,,82,127
44010,note_off,47,0,0,,11,,,82,127
44013,note_on,3,0,0,,0,,,84,127
44060,note_off,47,0,0,,0,,,84,127
44063,note_on,3,0,0,,11,,,82,127
44110,note_off,47,0,0,,11,,,82,127
44112,note_off,2,0,0,,11,,,70,127
44113,note_on,1,0,0,,10,,,69,127
44113,note_on,0,0,0,,10,,,81,127
44310,note_off,197,0,0,,10,,,81,127
44312,note_off,2,0,0,,10,,,69,127
44313,note_on,1,0,0,,7,,,67,127
44313,note_on,0,0,0,,7,,,79,127
44510,note_off,197,0,0,,7,,,79,127
44512,note_off,2,0,0,,7,,,67,127
44513,note_on,1,0,0,,2,,,62,127
44513,note_on,0,0,0,,2,,,74,127
44680,note_off,167,0,0,,2,,,74,127
44712,note_off,32,0,0,,2,,,62,127
44713,note_on,1,0,0,,2,,,62,127
44713,note_on,0,0,0,,5,,,77,127
44810,note_off,97,0,0,,5,,,77,127
44813,note_on,3,0,0,,2,,,74,127
44910,note_off,97,0,0,,2,,,74,127
44912,note_off,2,0,0,,2,,,62,127
44913,note_on,1,0,0,,2,,,62,127
44913,note_on,0,0,0,,3,,,75,127
45010,note_off,97,0,0,,3,,,75,127
45013,note_on,3,0,0,,0,,,72,127
45110,note_off,97,0,0,,0,,,72,127
45112,note_off,2,0,0,,2,,,62,127
45113,note_on,1,0,0,,5,,,65,127
45113,note_on,0,0,0,,2,,,62,127
45113,note_on,0,0,0,,12,,,71,127
45303,note_off,190,0,0,,12,,,71,127
45312,note_off,9,0,0,,2,,,62,127
45312,note_off,0,0,0,,5,,,65,127
45313,note_on,1,0,0,,5,,,65,127
45313,note_on,0,0,0,,2,,,62,127
45313,note_on,0,0,0,,8,,,80,127
45410,note_off,97,0,0,,8,,,80,127
45413,note_on,3,0,0,,5,,,77,127
45510,note_off,97,0,0,,5,,,77,127
45512,note_off,2,0,0,,2,,,62,127
45512,note_off,0,0,0,,5,,,65,127
45513,note_on,1,0,0,,5,,,65,127
45513,note_on,0,0,0,,2,,,62,127
45513,note_on,0,0,0,,7,,,79,127
45610,note_off,97,0,0,,7,,,79,127
45613,note_on,3,0,0,,3,,,75,127
45710,note_off,97,0,0,,3,,,75,127
45712,note_off,2,0,0,,2,,,62,127
45712,note_off,0,0,0,,5,,,65,127
45713,note_on,1,0,0,,8,,,68,127
45713,note_on,0,0,0,,2,,,62,127
45713,note_on,0,0,0,,5,,,65,127
45713,note_on,0,0,0,,2,,,74,127
45910,note_off,197,0,0,,2,,,74,127
45912,note_off,2,0,0,,5,,,65,127
45912,note_off,0,0,0,,2,,,62,127
45912,note_off,0,0,0,,8,,,68,127
45913,note_on,1,0,0,,8,,,68,127
45913,note_on,0,0,0,,5,,,65,127
45913,note_on,0,0,0,,2,,,62,127
45913,note_on,0,0,0,,3,,,87,127
45977,note_off,64,0,0,,3,,,87,127
45980,note_on,3,0,0,,2,,,86,127
46044,note_off,64,0,0,,2,,,86,127
46047,note_on,3,0,0,,3,,,87,127
46111,note_off,64,0,0,,3,,,87,127
46113,note_off,2,0,0,,2,,,62,127
46113,note_off,0,0,0,,5,,,65,127
46113,note_off,0,0,0,,8,,,68,127
46114,note_on,1,0,0,,2,,,62,127
46114,note_on,0,0,0,,8,,,68,127
46114,note_on,0,0,0,,5,,,65,127
46114,note_on,0,0,0,,2,,,86,127
46178,note_off,64,0,0,,2,,,86,127
46181,note_on,3,0,0,,3,,,87,127
46245,note_off,64,0,0,,3,,,87,127
46248,note_on,3,0,0,,2,,,86,127
46314,note_off,66,0,0,,5,,,65,127
46314,note_off,0,0,0,,8,,,68,127
46314,note_off,0,0,0,,2,,,62,127
46315,note_on,1,0,0,,2,,,62,127
46315,note_on,0,0,0,,7,,,55,127
46315,note_on,0,0,0,,5,,,65,127
46412,note_off,97,0,0,,2,,,86,127
46415,note_on,3,0,0,,0,,,84,127
46512,note_off,97,0,0,,0,,,84,127
46514,note_off,2,0,0,,5,,,65,127
46514,note_off,0,0,0,,7,,,55,127
46514,note_off,0,0,0,,2,,,62,127
46515,note_on,1,0,0,,5,,,65,127
46515,note_on,0,0,0,,2,,,62,127
46515,note_on,0,0,0,,7,,,55,127
46515,note_on,0,0,0,,12,,,83,127
46612,note_off,97,0,0,,12,,,83,127
46615,note_on,3,0,0,,8,,,80,127
46712,note_off,97,0,0,,8,,,80,127
46714,note_off,2,0,0,,7,,,55,127
46714,note_off,0,0,0,,2,,,62,127
46714,note_off,0,0,0,,5,,,65,127
46715,note_on,1,0,0,,5,,,65,127
46715,note_on,0,0,0,,2,,,62,127
46715,note_on,0,0,0,,7,,,55,127
46715,note_on,0,0,0,,7,,,79,127
46812,note_off,97,0,0,,7,,,79,127
46815,note_on,3,0,0,,5,,,77,127
46912,note_off,97,0,0,,5,,,77,127
46914,note_off,2,0,0,,7,,,55,127
46914,note_off,0,0,0,,2,,,62,127
46914,note_off,0,0,0,,5,,,65,127
46915,note_on,1,0,0,,3,,,63,127
46915,note_on,0,0,0,,0,,,60,127
46915,note_on,0,0,0,,3,,,75,127
47112,note_off,197,0,0,,3,,,75,127
47114,note_off,2,0,0,,0,,,60,127
47114,note_off,0,0,0,,3,,,63,127
47115,note_on,1,0,0,,0,,,60,127
47115,note_on,0,0,0,,3,,,63,127
47115,note_on,0,0,0,,2,,,86,127
47179,note_off,64,0,0,,2,,,86,127
47182,note_on,3,0,0,,0,,,84,127
47246,note_off,64,0,0,,0,,,84,127
47249,note_on,3,0,0,,2,,,86,127
47313,note_off,64,0,0,,2,,,86,127
47315,note_off,2,0,0,,3,,,63,127
47315,note_off,0,0,0,,0,,,60,127
47316,note_on,1,0,0,,3,,,63,127
47316,note_on,0,0,0,,0,,,60,127
47316,note_on,0,0,0,,0,,,84,127
47380,note_off,64,0,0,,0,,,84,127
47383,note_on,3,0,0,,2,,,86,127
47447,note_off,64,0,0,,2,,,86,127
47450,note_on,3,0,0,,0,,,84,127
47516,note_off,66,0,0,,0,,,60,127
47516,note_off,0,0,0,,3,,,63,127
47517,note_on,1,0,0,,5,,,53,127
47517,note_on,0,0,0,,3,,,63,127
47517,note_on,0,0,0,,0,,,60,127
47614,note_off,97,0,0,,0,,,84,127
47617,note_on,3,0,0,,11,,,82,127
47714,note_off,97,0,0,,11,,,82,127
47716,note_off,2,0,0,,0,,,60,127
47716,note_off,0,0,0,,3,,,63,127
47716,note_off,0,0,0,,5,,,53,127
47717,note_on,1,0,0,,0,,,60,127
47717,note_on,0,0,0,,5,,,53,127
47717,note_on,0,0,0,,3,,,63,127
47717,note_on,0,0,0,,10,,,81,127
47814,note_off,97,0,0,,10,,,81,127
47817,note_on,3,0,0,,7,,,79,127
47914,note_off,97,0,0,,7,,,79,127
47916,note_off,2,0,0,,3,,,63,127
47916,note_off,0,0,0,,5,,,53,127
47916,note_off,0,0,0,,0,,,60,127
47917,note_on,1,0,0,,0,,,60,127
47917,note_on,0,0,0,,5,,,53,127
47917,note_on,0,0,0,,3,,,63,127
47917,note_on,0,0,0,,5,,,77,127
48014,note_off,97,0,0,,5,,,77,127
48017,note_on,3,0,0,,3,,,75,127
48114,note_off,97,0,0,,3,,,75,127
48116,note_off,2,0,0,,3,,,63,127
48116,note_off,0,0,0,,5,,,53,127
48116,note_off,0,0,0,,0,,,60,127
48117,note_on,1,0,0,,2,,,62,127
48117,note_on,0,0,0,,11,,,58,127
48117,note_on,0,0,0,,2,,,74,127
48314,note_off,197,0,0,,2,,,74,127
48316,note_off,2,0,0,,11,,,58,127
48316,note_off,0,0,0,,2,,,62,127
48317,note_on,1,0,0,,11,,,70,127
48317,note_on,0,0,0,,11,,,82,127
48414,note_off,97,0,0,,11,,,82,127
48416,note_off,2,0,0,,11,,,70,127
48417,note_on,1,0,0,,10,,,69,127
48417,note_on,0,0,0,,10,,,81,127
48514,note_off,97,0,0,,10,,,81,127
48516,note_off,2,0,0,,10,,,69,127
48517,note_on,1,0,0,,7,,,67,127
48517,note_on,0,0,0,,7,,,79,127
48614,note_off,97,0,0,,7,,,79,127
48616,note_off,2,0,0,,7,,,67,127
48617,note_on,1,0,0,,5,,,65,127
48617,note_on,0,0,0,,5,,,77,127
48714,note_off,97,0,0,,5,,,77,127
48716,note_off,2,0,0,,5,,,65,127
48717,note_on,1,0,0,,3,,,63,127
48717,note_on,0,0,0,,3,,,75,127
48814,note_off,97,0,0,,3,,,75,127
48816,note_off,2,0,0,,3,,,63,127
48817,note_on,1,0,0,,2,,,62,127
48817,note_on,0,0,0,,2,,,74,127
48914,note_off,97,0,0,,2,,,74,127
48916,note_off,2,0,0,,2,,,62,127
48917,note_on,1,0,0,,0,,,60,127
48917,note_on,0,0,0,,0,,,72,127
49014,note_off,97,0,0,,0,,,72,127
49016,note_off,2,0,0,,0,,,60,127
49017,note_on,1,0,0,,11,,,58,127
49017,note_on,0,0,0,,11,,,70,127
49114,note_off,97,0,0,,11,,,70,127
49116,note_off,2,0,0,,11,,,58,127
49117,note_on,1,0,0,,10,,,57,127
49117,note_on,0,0,0,,10,,,69,127
49214,note_off,97,0,0,,10,,,69,127
49216,note_off,2,0,0,,10,,,57,127
49217,note_on,1,0,0,,7,,,55,127
49217,note_on,0,0,0,,7,,,67,127
49314,note_off,97,0,0,,7,,,67,127
49316,note_off,2,0,0,,7,,,55,127
49317,note_on,1,0,0,,5,,,53,127
49317,note_on,0,0,0,,7,,,67,127
49364,note_off,47,0,0,,7,,,67,127
49367,note_on,3,0,0,,5,,,65,127
49414,note_off,47,0,0,,5,,,65,127
49417,note_on,3,0,0,,7,,,67,127
49464,note_off,47,0,0,,7,,,67,127
49467,note_on,3,0,0,,5,,,65,127
49514,note_off,47,0,0,,5,,,65,127
49516,note_off,2,0,0,,5,,,53,127
49517,note_on,1,0,0,,5,,,53,127
49517,note_on,0,0,0,,5,,,65,127
49614,note_off,97,0,0,,5,,,65,127
49616,note_off,2,0,0,,5,,,53,127
49617,note_on,1,0,0,,7,,,55,127
49617,note_on,0,0,0,,7,,,67,127
49714,note_off,97,0,0,,7,,,67,127
49716,note_off,2,0,0,,7,,,55,127
49717,note_on,1,0,0,,10,,,57,127
49717,note_on,0,0,0,,10,,,69,127
49814,note_off,97,0,0,,10,,,69,127
49816,note_off,2,0,0,,10,,,57,127
49817,note_on,1,0,0,,11,,,58,127
49817,note_on,0,0,0,,11,,,70,127
49914,note_off,97,0,0,,11,,,70,127
49916,note_off,2,0,0,,11,,,58,127
49917,note_on,1,0,0,,0,,,60,127
49917,note_on,0,0,0,,0,,,72,127
50014,note_off,97,0,0,,0,,,72,127
50016,note_off,2,0,0,,0,,,60,127
50017,note_on,1,0,0,,2,,,62,127
50017,note_on,0,0,0,,2,,,74,127
50114,note_off,97,0,0,,2,,,74,127
50116,note_off,2,0,0,,2,,,62,127
50117,note_on,1,0,0,,3,,,63,127
50117,note_on,0,0,0,,3,,,75,127
50214,note_off,97,0,0,,3,,,75,127
50216,note_off,2,0,0,,3,,,63,127
50217,note_on,1,0,0,,5,,,65,127
50217,note_on,0,0,0,,5,,,77,127
50314,note_off,97,0,0,,5,,,77,127
50316,note_off,2,0,0,,5,,,65,127
50317,note_on,1,0,0,,7,,,67,127
50317,note_on,0,0,0,,7,,,79,127
50414,note_off,97,0,0,,7,,,79,127
50416,note_off,2,0,0,,7,,,67,127
50417,note_on,1,0,0,,5,,,65,127
50417,note_on,0,0,0,,5,,,77,127
50514,note_off,97,0,0,,5,,,77,127
50516,note_off,2,0,0,,5,,,65,127
50517,note_on,1,0,0,,3,,,63,127
50517,note_on,0,0,0,,3,,,75,127
50581,note_off,64,0,0,,3,,,75,127
50584,note_on,3,0,0,,5,,,77,127
50648,note_off,64,0,0,,5,,,77,127
50651,note_on,3,0,0,,3,,,75,127
50715,note_off,64,0,0,,3,,,75,127
50717,note_off,2,0,0,,3,,,63,127
50718,note_on,1,0,0,,2,,,62,127
50718,note_on,0,0,0,,2,,,74,127
50915,note_off,197,0,0,,2,,,74,127
50917,note_off,2,0,0,,2,,,62,127
50918,note_on,1,0,0,,3,,,63,127
50918,note_on,0,0,0,,3,,,75,127
51115,note_off,197,0,0,,3,,,75,127
51117,note_off,2,0,0,,3,,,63,127
51118,note_on,1,0,0,,3,,,51,127
51118,note_on,0,0,0,,5,,,65,127
51165,note_off,47,0,0,,5,,,65,127
51168,note_on,3,0,0,,3,,,63,127
51215,note_off,47,0,0,,3,,,63,127
51218,note_on,3,0,0,,5,,,65,127
51265,note_off,47,0,0,,5,,,65,127
51268,note_on,3,0,0,,3,,,63,127
51315,note_off,47,0,0,,3,,,63,127
51317,note_off,2,0,0,,3,,,51,127
51318,note_on,1,0,0,,3,,,51,127
51318,note_on,0,0,0,,3,,,63,127
51415,note_off,97,0,0,,3,,,63,127
51417,note_off,2,0,0,,3,,,51,127
51418,note_on,1,0,0,,5,,,53,127
51418,note_on,0,0,0,,5,,,65,127
51515,note_off,97,0,0,,5,,,65,127
51517,note_off,2,0,0,,5,,,53,127
51518,note_on,1,0,0,,7,,,55,127
51518,note_on,0,0,0,,7,,,67,127
51615,note_off,97,0,0,,7,,,67,127
51617,note_off,2,0,0,,7,,,55,127
51618,note_on,1,0,0,,10,,,57,127
51618,note_on,0,0,0,,10,,,69,127
51715,note_off,97,0,0,,10,,,69,127
51717,note_off,2,0,0,,10,,,57,127
51718,note_on,1,0,0,,11,,,58,127
51718,note_on,0,0,0,,11,,,70,127
51815,note_off,97,0,0,,11,,,70,127
51817,note_off,2,0,0,,11,,,58,127
51818,note_on,1,0,0,,0,,,60,127
51818,note_on,0,0,0,,0,,,72,127
51915,note_off,97,0,0,,0,,,72,127
51917,note_off,2,0,0,,0,,,60,127
51918,note_on,1,0,0,,2,,,62,127
51918,note_on,0,0,0,,2,,,74,127
52015,note_off,97,0,0,,2,,,74,127
52017,note_off,2,0,0,,2,,,62,127
52018,note_on,1,0,0,,3,,,63,127
52018,note_on,0,0,0,,3,,,75,127
52115,note_off,97,0,0,,3,,,75,127
52117,note_off,2,0,0,,3,,,63,127
52118,note_on,1,0,0,,5,,,65,127
52118,note_on,0,0,0,,5,,,77,127
52215,note_off,97,0,0,,5,,,77,127
52217,note_off,2,0,0,,5,,,65,127
52218,note_on,1,0,0,,3,,,63,127
52218,note_on,0,0,0,,3,,,75,127
52315,note_off,97,0,0,,3,,,75,127
52317,note_off,2,0,0,,3,,,63,127
52318,note_on,1,0,0,,2,,,62,127
52318,note_on,0,0,0,,2,,,74,127
52382,note_off,64,0,0,,2,,,74,127
52385,note_on,3,0,0,,3,,,75,127
52449,note_off,64,0,0,,3,,,75,127
52452,note_on,3,0,0,,2,,,74,127
52516,note_off,64,0,0,,2,,,74,127
52518,note_off,2,0,0,,2,,,62,127
52519,note_on,1,0,0,,0,,,60,127
52519,note_on,0,0,0,,0,,,72,127
52716,note_off,197,0,0,,0,,,72,127
52718,note_off,2,0,0,,0,,,60,127
52719,note_on,1,0,0,,2,,,62,127
52719,note_on,0,0,0,,2,,,74,127
52916,note_off,197,0,0,,2,,,74,127
52918,note_off,2,0,0,,2,,,62,127
52919,note_on,1,0,0,,2,,,50,127
52919,note_on,0,0,0,,2,,,62,127
53016,note_off,97,0,0,,2,,,62,127
53018,note_off,2,0,0,,2,,,50,127
53019,note_on,1,0,0,,3,,,51,127
53019,note_on,0,0,0,,3,,,63,127
53116,note_off,97,0,0,,3,,,63,127
53118,note_off,2,0,0,,3,,,51,127
53119,note_on,1,0,0,,5,,,53,127
53119,note_on,0,0,0,,5,,,65,127
53216,note_off,97,0,0,,5,,,65,127
53218,note_off,2,0,0,,5,,,53,127
53219,note_on,1,0,0,,7,,,55,127
53219,note_on,0,0,0,,7,,,67,127
53316,note_off,97,0,0,,7,,,67,127
53318,note_off,2,0,0,,7,,,55,127
53319,note_on,1,0,0,,10,,,57,127
53319,note_on,0,0,0,,10,,,69,127
53416,note_off,97,0,0,,10,,,69,127
53418,note_off,2,0,0,,10,,,57,127
53419,note_on,1,0,0,,11,,,58,127
53419,note_on,0,0,0,,11,,,70,127
53516,note_off,97,0,0,,11,,,70,127
53518,note_off,2,0,0,,11,,,58,127
53519,note_on,1,0,0,,0,,,60,127
53519,note_on,0,0,0,,0,,,72,127
53616,note_off,97,0,0,,0,,,72,127
53618,note_off,2,0,0,,0,,,60,127
53619,note_on,1,0,0,,2,,,62,127
53619,note_on,0,0,0,,2,,,74,127
53716,note_off,97,0,0,,2,,,74,127
53718,note_off,2,0,0,,2,,,62,127
53719,note_on,1,0,0,,3,,,63,127
53719,note_on,0,0,0,,3,,,75,127
53816,note_off,97,0,0,,3,,,75,127
53818,note_off,2,0,0,,3,,,63,127
53819,note_on,1,0,0,,5,,,65,127
53819,note_on,0,0,0,,5,,,77,127
53916,note_off,97,0,0,,5,,,77,127
53918,note_off,2,0,0,,5,,,65,127
53919,note_on,1,0,0,,7,,,67,127
53919,note_on,0,0,0,,7,,,79,127
54016,note_off,97,0,0,,7,,,79,127
54018,note_off,2,0,0,,7,,,67,127
54019,note_on,1,0,0,,5,,,65,127
54019,note_on,0,0,0,,5,,,77,127
54116,note_off,97,0,0,,5,,,77,127
54118,note_off,2,0,0,,5,,,65,127
54119,note_on,1,0,0,,3,,,63,127
54119,note_on,0,0,0,,3,,,75,127
54183,note_off,64,0,0,,3,,,75,127
54186,note_on,3,0,0,,5,,,77,127
54250,note_off,64,0,0,,5,,,77,127
54253,note_on,3,0,0,,3,,,75,127
54317,note_off,64,0,0,,3,,,75,127
54319,note_off,2,0,0,,3,,,63,127
54320,note_on,1,0,0,,2,,,62,127
54320,note_on,0,0,0,,2,,,74,127
54517,note_off,197,0,0,,2,,,74,127
54519,note_off,2,0,0,,2,,,62,127
54520,note_on,1,0,0,,0,,,60,127
54520,note_on,0,0,0,,0,,,72,127
54717,note_off,197,0,0,,0,,,72,127
54719,note_off,2,0,0,,0,,,60,127
54720,note_on,1,0,0,,11,,,58,127
54720,note_on,0,0,0,,11,,,70,127
54784,note_off,64,0,0,,11,,,70,127
54787,note_on,3,0,0,,0,,,72,127
54851,note_off,64,0,0,,0,,,72,127
54854,note_on,3,0,0,,11,,,70,127
54918,note_off,64,0,0,,11,,,70,127
54920,note_off,2,0,0,,11,,,58,127
54921,note_on,1,0,0,,10,,,57,127
54921,note_on,0,0,0,,10,,,69,127
55118,note_off,197,0,0,,10,,,69,127
55120,note_off,2,0,0,,10,,,57,127
55121,note_on,1,0,0,,7,,,55,127
55121,note_on,0,0,0,,7,,,67,127
55318,note_off,197,0,0,,7,,,67,127
55320,note_off,2,0,0,,7,,,55,127
55321,note_on,1,0,0,,5,,,53,127
55321,note_on,0,0,0,,5,,,65,127
55520,note_off,199,0,0,,5,,,53,127
55521,note_on,1,0,0,,10,,,57,127
55521,note_on,0,0,0,,0,,,72,127
55561,note_off,40,0,0,,5,,,65,127
55618,note_off,57,0,0,,0,,,72,127
55621,note_on,3,0,0,,10,,,69,127
55718,note_off,97,0,0,,10,,,69,127
55720,note_off,2,0,0,,10,,,57,127
55721,note_on,1,0,0,,11,,,58,127
55721,note_on,0,0,0,,2,,,74,127
55818,note_off,97,0,0,,2,,,74,127
55821,note_on,3,0,0,,11,,,70,127
55918,note_off,97,0,0,,11,,,70,127
55920,note_off,2,0,0,,11,,,58,127
55921,note_on,1,0,0,,0,,,60,127
55921,note_on,0,0,0,,3,,,75,127
56118,note_off,197,0,0,,3,,,75,127
56120,note_off,2,0,0,,0,,,60,127
56121,note_on,1,0,0,,11,,,58,127
56121,note_on,0,0,0,,2,,,74,127
56218,note_off,97,0,0,,2,,,74,127
56221,note_on,3,0,0,,11,,,70,127
56318,note_off,97,0,0,,11,,,70,127
56320,note_off,2,0,0,,11,,,58,127
56321,note_on,1,0,0,,0,,,60,127
56321,note_on,0,0,0,,3,,,75,127
56418,note_off,97,0,0,,3,,,75,127
56421,note_on,3,0,0,,0,,,72,127
56518,note_off,97,0,0,,0,,,72,127
56520,note_off,2,0,0,,0,,,60,127
56521,note_on,1,0,0,,2,,,62,127
56521,note_on,0,0,0,,5,,,77,127
56718,note_off,197,0,0,,5,,,77,127
56720,note_off,2,0,0,,2,,,62,127
56721,note_on,1,0,0,,0,,,60,127
56721,note_on,0,0,0,,3,,,75,127
56818,note_off,97,0,0,,3,,,75,127
56821,note_on,3,0,0,,0,,,72,127
56918,note_off,97,0,0,,0,,,72,127
56920,note_off,2,0,0,,0,,,60,127
56921,note_on,1,0,0,,2,,,62,127
56921,note_on,0,0,0,,5,,,77,127
57018,note_off,97,0,0,,5,,,77,127
57021,note_on,3,0,0,,2,,,74,127
57118,note_off,97,0,0,,2,,,74,127
57120,note_off,2,0,0,,2,,,62,127
57121,note_on,1,0,0,,3,,,63,127
57121,note_on,0,0,0,,7,,,79,127
57318,note_off,197,0,0,,7,,,79,127
57320,note_off,2,0,0,,3,,,63,127
57321,note_on,1,0,0,,3,,,63,127
57321,note_on,0,0,0,,10,,,69,127
57518,note_off,197,0,0,,10,,,69,127
57520,note_off,2,0,0,,3,,,63,127
57521,note_on,1,0,0,,2,,,62,127
57521,note_on,0,0,0,,11,,,70,127
57718,note_off,197,0,0,,11,,,70,127
57720,note_off,2,0,0,,2,,,62,127
57721,note_on,1,0,0,,0,,,60,127
57721,note_on,0,0,0,,3,,,75,127
57918,note_off,197,0,0,,3,,,75,127
57920,note_off,2,0,0,,0,,,60,127
57921,note_on,1,0,0,,0,,,60,127
57921,note_on,0,0,0,,7,,,67,127
58118,note_off,197,0,0,,7,,,67,127
58120,note_off,2,0,0,,0,,,60,127
58121,note_on,1,0,0,,11,,,58,127
58121,note_on,0,0,0,,10,,,69,127
58318,note_off,197,0,0,,10,,,69,127
58320,note_off,2,0,0,,11,,,58,127
58321,note_on,1,0,0,,10,,,57,127
58321,note_on,0,0,0,,0,,,72,127
58518,note_off,197,0,0,,0,,,72,127
58521,note_on,3,0,0,,3,,,63,127
58717,note_off,196,0,0,,10,,,57,127
58718,note_off,1,0,0,,3,,,63,127
58721,note_on,3,0,0,,7,,,55,127
58721,note_on,0,0,0,,4,,,64,127
58918,note_off,197,0,0,,4,,,64,127
58920,note_off,2,0,0,,7,,,55,127
58921,note_on,1,0,0,,5,,,53,127
58921,note_on,0,0,0,,5,,,65,127
59118,note_off,197,0,0,,5,,,65,127
59121,note_on,3,0,0,,3,,,75,127
59320,note_off,199,0,0,,5,,,53,127
59321,note_on,1,0,0,,10,,,57,127
59518,note_off,197,0,0,,3,,,75,127
59520,note_off,2,0,0,,10,,,57,127
59521,note_on,1,0,0,,11,,,58,127
59521,note_on,0,0,0,,2,,,74,127
59585,note_off,64,0,0,,2,,,74,127
59588,note_on,3,0,0,,0,,,72,127
59652,note_off,64,0,0,,0,,,72,127
59655,note_on,3,0,0,,11,,,70,127
59719,note_off,64,0,0,,11,,,70,127
59721,note_off,2,0,0,,11,,,58,127
59722,note_on,1,0,0,,5,,,53,127
59722,note_on,0,0,0,,2,,,74,127
59919,note_off,197,0,0,,2,,,74,127
59922,note_on,3,0,0,,5,,,41,127
59922,note_on,0,0,0,,0,,,72,127
59986,note_off,64,0,0,,0,,,72,127
59989,note_on,3,0,0,,2,,,74,127
60053,note_off,64,0,0,,2,,,74,127
60056,note_on,3,0,0,,0,,,72,127
60119,note_off,63,0,0,,5,,,53,127
60120,note_off,1,0,0,,0,,,72,127
60122,note_off,2,0,0,,5,,,41,127
60123,note_on,1,0,0,,11,,,46,127
60123,note_on,0,0,0,,11,,,70,127
60300,note_off,177,0,0,,11,,,70,127
60322,note_off,22,0,0,,11,,,46,127
60323,note_on,1,0,0,,10,,,57,127
60323,note_on,0,0,0,,0,,,72,127
60420,note_off,97,0,0,,0,,,72,127
60423,note_on,3,0,0,,10,,,69,127
60520,note_off,97,0,0,,10,,,69,127
60522,note_off,2,0,0,,10,,,57,127
60523,note_on,1,0,0,,11,,,58,127
60523,note_on,0,0,0,,2,,,74,127
60620,note_off,97,0,0,,2,,,74,127
60623,note_on,3,0,0,,11,,,70,127
60720,note_off,97,0,0,,11,,,70,127
60722,note_off,2,0,0,,11,,,58,127
60723,note_on,1,0,0,,0,,,60,127
60723,note_on,0,0,0,,3,,,75,127
60920,note_off,197,0,0,,3,,,75,127
60922,note_off,2,0,0,,0,,,60,127
60923,note_on,1,0,0,,11,,,58,127
60923,note_on,0,0,0,,2,,,74,127
61020,note_off,97,0,0,,2,,,74,127
61023,note_on,3,0,0,,11,,,70,127
61120,note_off,97,0,0,,11,,,70,127
61122,note_off,2,0,0,,11,,,58,127
61123,note_on,1,0,0,,0,,,60,127
61123,note_on,0,0,0,,3,,,75,127
61220,note_off,97,0,0,,3,,,75,127
61223,note_on,3,0,0,,0,,,72,127
61320,note_off,97,0,0,,0,,,72,127
61322,note_off,2,0,0,,0,,,60,127
61323,note_on,1,0,0,,2,,,62,127
61323,note_on,0,0,0,,5,,,77,127
61520,note_off,197,0,0,,5,,,77,127
61522,note_off,2,0,0,,2,,,62,127
61523,note_on,1,0,0,,0,,,60,127
61523,note_on,0,0,0,,3,,,75,127
61620,note_off,97,0,0,,3,,,75,127
61623,note_on,3,0,0,,0,,,72,127
61720,note_off,97,0,0,,0,,,72,127
61722,note_off,2,0,0,,0,,,60,127
61723,note_on,1,0,0,,2,,,62,127
61723,note_on,0,0,0,,5,,,77,127
61820,note_off,97,0,0,,5,,,77,127
61823,note_on,3,0,0,,2,,,74,127
61920,note_off,97,0,0,,2,,,74,127
61922,note_off,2,0,0,,2,,,62,127
61923,note_on,1,0,0,,3,,,63,127
61923,note_on,0,0,0,,7,,,79,127
62120,note_off,197,0,0,,7,,,79,127
62123,note_on,3,0,0,,10,,,69,127
62319,note_off,196,0,0,,3,,,63,127
62320,note_off,1,0,0,,10,,,69,127
62323,note_on,3,0,0,,2,,,62,127
62323,note_on,0,0,0,,11,,,70,127
62520,note_off,197,0,0,,11,,,70,127
62522,note_off,2,0,0,,2,,,62,127
62523,note_on,1,0,0,,0,,,60,127
62523,note_on,0,0,0,,3,,,75,127
62720,note_off,197,0,0,,3,,,75,127
62722,note_off,2,0,0,,0,,,60,127
62723,note_on,1,0,0,,0,,,60,127
62723,note_on,0,0,0,,7,,,67,127
62920,note_off,197,0,0,,7,,,67,127
62922,note_off,2,0,0,,0,,,60,127
62923,note_on,1,0,0,,11,,,58,127
62923,note_on,0,0,0,,10,,,69,127
63120,note_off,197,0,0,,10,,,69,127
63122,note_off,2,0,0,,11,,,58,127
63123,note_on,1,0,0,,10,,,57,127
63123,note_on,0,0,0,,0,,,72,127
63320,note_off,197,0,0,,0,,,72,127
63322,note_off,2,0,0,,10,,,57,127
63323,note_on,1,0,0,,10,,,57,127
63323,note_on,0,0,0,,3,,,63,127
63520,note_off,197,0,0,,3,,,63,127
63522,note_off,2,0,0,,10,,,57,127
63523,note_on,1,0,0,,7,,,55,127
63523,note_on,0,0,0,,4,,,64,127
63720,note_off,197,0,0,,4,,,64,127
63722,note_off,2,0,0,,7,,,55,127
63723,note_on,1,0,0,,5,,,53,127
63723,note_on,0,0,0,,5,,,65,127
63920,note_off,197,0,0,,5,,,65,127
63923,note_on,3,0,0,,3,,,75,127
64122,note_off,199,0,0,,5,,,53,127
64123,note_on,1,0,0,,10,,,57,127
64320,note_off,197,0,0,,3,,,75,127
64322,note_off,2,0,0,,10,,,57,127
64323,note_on,1,0,0,,11,,,58,127
64323,note_on,0,0,0,,2,,,74,127
64387,note_off,64,0,0,,2,,,74,127
64390,note_on,3,0,0,,0,,,72,127
64454,note_off,64,0,0,,0,,,72,127
64457,note_on,3,0,0,,11,,,70,127
64521,note_off,64,0,0,,11,,,70,127
64523,note_off,2,0,0,,11,,,58,127
64524,note_on,1,0,0,,5,,,53,127
64524,note_on,0,0,0,,2,,,74,127
64721,note_off,197,0,0,,2,,,74,127
64724,note_on,3,0,0,,5,,,41,127
64724,note_on,0,0,0,,0,,,72,127
64788,note_off,64,0,0,,0,,,72,127
64791,note_on,3,0,0,,2,,,74,127
64855,note_off,64,0,0,,2,,,74,127
64858,note_on,3,0,0,,0,,,72,127
64921,note_off,63,0,0,,5,,,53,127
64922,note_off,1,0,0,,0,,,72,127
64924,note_off,2,0,0,,5,,,41,127
64925,note_on,1,0,0,,11,,,46,127
64925,note_on,0,0,0,,11,,,70,127
65122,note_off,197,0,0,,11,,,70,127
65125,note_on,3,0,0,,2,,,86,127
65222,note_off,97,0,0,,2,,,86,127
65225,note_on,3,0,0,,0,,,84,127
65322,note_off,97,0,0,,0,,,84,127
65324,note_off,2,0,0,,11,,,46,127
65325,note_on,1,0,0,,2,,,62,127
65325,note_on,0,0,0,,11,,,82,127
65422,note_off,97,0,0,,11,,,82,127
65425,note_on,3,0,0,,10,,,81,127
65522,note_off,97,0,0,,10,,,81,127
65524,note_off,2,0,0,,2,,,62,127
65525,note_on,1,0,0,,0,,,60,127
65525,note_on,0,0,0,,11,,,82,127
65525,note_on,0,0,0,,10,,,81,127
65622,note_off,97,0,0,,10,,,81,127
65622,note_off,0,0,0,,11,,,82,127
65625,note_on,3,0,0,,7,,,79,127
65722,note_off,97,0,0,,7,,,79,127
65725,note_on,3,0,0,,5,,,77,127
65822,note_off,97,0,0,,5,,,77,127
65825,note_on,3,0,0,,3,,,75,127
65922,note_off,97,0,0,,3,,,75,127
65924,note_off,2,0,0,,0,,,60,127
65925,note_on,1,0,0,,10,,,57,127
65925,note_on,0,0,0,,2,,,74,127
66022,note_off,97,0,0,,2,,,74,127
66025,note_on,3,0,0,,0,,,72,127
66122,note_off,97,0,0,,0,,,72,127
66124,note_off,2,0,0,,10,,,57,127
66125,note_on,1,0,0,,11,,,58,127
66125,note_on,0,0,0,,2,,,74,127
66322,note_off,197,0,0,,2,,,74,127
66325,note_on,3,0,0,,11,,,82,127
66422,note_off,97,0,0,,11,,,82,127
66425,note_on,3,0,0,,10,,,81,127
66522,note_off,97,0,0,,10,,,81,127
66524,note_off,2,0,0,,11,,,58,127
66525,note_on,1,0,0,,2,,,50,127
66525,note_on,0,0,0,,7,,,79,127
66622,note_off,97,0,0,,7,,,79,127
66625,note_on,3,0,0,,5,,,77,127
66722,note_off,97,0,0,,5,,,77,127
66724,note_off,2,0,0,,2,,,50,127
66725,note_on,1,0,0,,3,,,51,127
66725,note_on,0,0,0,,7,,,79,127
66725,note_on,0,0,0,,5,,,77,127
66822,note_off,97,0,0,,5,,,77,127
66822,note_off,0,0,0,,7,,,79,127
66825,note_on,3,0,0,,3,,,75,127
66922,note_off,97,0,0,,3,,,75,127
66925,note_on,3,0,0,,2,,,74,127
67022,note_off,97,0,0,,2,,,74,127
67025,note_on,3,0,0,,0,,,72,127
67122,note_off,97,0,0,,0,,,72,127
67124,note_off,2,0,0,,3,,,51,127
67125,note_on,1,0,0,,5,,,53,127
67125,note_on,0,0,0,,11,,,70,127
67222,note_off,97,0,0,,11,,,70,127
67225,note_on,3,0,0,,10,,,69,127
67322,note_off,97,0,0,,10,,,69,127
67324,note_off,2,0,0,,5,,,53,127
67325,note_on,1,0,0,,11,,,46,127
67325,note_on,0,0,0,,11,,,70,127
67522,note_off,197,0,0,,11,,,70,127
67525,note_on,3,0,0,,2,,,86,127
67622,note_off,97,0,0,,2,,,86,127
67625,note_on,3,0,0,,0,,,84,127
67722,note_off,97,0,0,,0,,,84,127
67724,note_off,2,0,0,,11,,,46,127
67725,note_on,1,0,0,,2,,,62,127
67725,note_on,0,0,0,,11,,,82,127
67822,note_off,97,0,0,,11,,,82,127
67825,note_on,3,0,0,,10,,,81,127
67922,note_off,97,0,0,,10,,,81,127
67924,note_off,2,0,0,,2,,,62,127
67925,note_on,1,0,0,,0,,,60,127
67925,note_on,0,0,0,,10,,,81,127
67925,note_on,0,0,0,,11,,,82,127
68022,note_off,97,0,0,,11,,,82,127
68022,note_off,0,0,0,,10,,,81,127
68025,note_on,3,0,0,,7,,,79,127
68122,note_off,97,0,0,,7,,,79,127
68125,note_on,3,0,0,,5,,,77,127
68222,note_off,97,0,0,,5,,,77,127
68225,note_on,3,0,0,,3,,,75,127
68322,note_off,97,0,0,,3,,,75,127
68324,note_off,2,0,0,,0,,,60,127
68325,note_on,1,0,0,,10,,,57,127
68325,note_on,0,0,0,,2,,,74,127
68422,note_off,97,0,0,,2,,,74,127
68425,note_on,3,0,0,,0,,,72,127
68522,note_off,97,0,0,,0,,,72,127
68524,note_off,2,0,0,,10,,,57,127
68525,note_on,1,0,0,,11,,,58,127
68525,note_on,0,0,0,,2,,,74,127
68722,note_off,197,0,0,,2,,,74,127
68725,note_on,3,0,0,,11,,,82,127
68822,note_off,97,0,0,,11,,,82,127
68825,note_on,3,0,0,,10,,,81,127
68922,note_off,97,0,0,,10,,,81,127
68924,note_off,2,0,0,,11,,,58,127
68925,note_on,1,0,0,,2,,,50,127
68925,note_on,0,0,0,,7,,,79,127
69022,note_off,97,0,0,,7,,,79,127
69025,note_on,3,0,0,,5,,,77,127
69122,note_off,97,0,0,,5,,,77,127
69124,note_off,2,0,0,,2,,,50,127
69125,note_on,1,0,0,,3,,,51,127
69125,note_on,0,0,0,,7,,,79,127
69125,note_on,0,0,0,,5,,,77,127
69222,note_off,97,0,0,,5,,,77,127
69222,note_off,0,0,0,,7,,,79,127
69225,note_on,3,0,0,,3,,,75,127
69322,note_off,97,0,0,,3,,,75,127
69325,note_on,3,0,0,,2,,,74,127
69422,note_off,97,0,0,,2,,,74,127
69425,note_on,3,0,0,,0,,,72,127
69522,note_off,97,0,0,,0,,,72,127
69524,note_off,2,0,0,,3,,,51,127
69525,note_on,1,0,0,,5,,,53,127
69525,note_on,0,0,0,,11,,,70,127
69622,note_off,97,0,0,,11,,,70,127
69625,note_on,3,0,0,,10,,,69,127
69722,note_off,97,0,0,,10,,,69,127
69724,note_off,2,0,0,,5,,,53,127
69725,note_on,1,0,0,,11,,,46,127
69725,note_on,0,0,0,,11,,,70,127
69822,note_off,97,0,0,,11,,,70,127
69825,note_on,3,0,0,,2,,,74,127
69922,note_off,97,0,0,,2,,,74,127
69924,note_off,2,0,0,,11,,,46,127
69925,note_on,1,0,0,,0,,,48,127
69925,note_on,0,0,0,,11,,,70,127
70022,note_off,97,0,0,,11,,,70,127
70025,note_on,3,0,0,,5,,,77,127
70122,note_off,97,0,0,,5,,,77,127
70124,note_off,2,0,0,,0,,,48,127
70125,note_on,1,0,0,,2,,,50,127
70125,note_on,0,0,0,,11,,,70,127
70322,note_off,197,0,0,,11,,,70,127
70324,note_off,2,0,0,,2,,,50,127
70325,note_on,1,0,0,,3,,,51,127
70325,note_on,0,0,0,,11,,,82,127
70517,note_off,192,0,0,,11,,,82,127
70524,note_off,7,0,0,,3,,,51,127
70525,note_on,1,0,0,,5,,,53,127
70525,note_on,0,0,0,,2,,,74,127
70589,note_off,64,0,0,,2,,,74,127
70592,note_on,3,0,0,,0,,,72,127
70656,note_off,64,0,0,,0,,,72,127
70659,note_on,3,0,0,,2,,,74,127
70723,note_off,64,0,0,,2,,,74,127
70726,note_on,3,0,0,,5,,,41,127
70726,note_on,0,0,0,,0,,,72,127
70790,note_off,64,0,0,,0,,,72,127
70793,note_on,3,0,0,,11,,,70,127
70857,note_off,64,0,0,,11,,,70,127
70860,note_on,3,0,0,,0,,,72,127
70923,note_off,63,0,0,,5,,,53,127
70924,note_off,1,0,0,,0,,,72,127
70926,note_off,2,0,0,,5,,,41,127
70927,note_on,1,0,0,,11,,,46,127
70927,note_on,0,0,0,,11,,,70,127
71024,note_off,97,0,0,,11,,,70,127
71027,note_on,3,0,0,,2,,,74,127
71124,note_off,97,0,0,,2,,,74,127
71126,note_off,2,0,0,,11,,,46,127
71127,note_on,1,0,0,,0,,,48,127
71127,note_on,0,0,0,,11,,,70,127
71224,note_off,97,0,0,,11,,,70,127
71227,note_on,3,0,0,,5,,,77,127
71324,note_off,97,0,0,,5,,,77,127
71326,note_off,2,0,0,,0,,,48,127
71327,note_on,1,0,0,,2,,,50,127
71327,note_on,0,0,0,,11,,,70,127
71524,note_off,197,0,0,,11,,,70,127
71526,note_off,2,0,0,,2,,,50,127
71527,note_on,1,0,0,,3,,,51,127
71527,note_on,0,0,0,,11,,,82,127
71713,note_off,186,0,0,,11,,,82,127
71727,note_off,14,0,0,,3,,,51,127
71728,note_on,1,0,0,,5,,,53,127
71728,note_on,0,0,0,,2,,,74,127
71792,note_off,64,0,0,,2,,,74,127
71795,note_on,3,0,0,,0,,,72,127
71859,note_off,64,0,0,,0,,,72,127
71862,note_on,3,0,0,,2,,,74,127
71926,note_off,64,0,0,,2,,,74,127
71929,note_on,3,0,0,,5,,,41,127
71929,note_on,0,0,0,,0,,,72,127
71993,note_off,64,0,0,,0,,,72,127
71996,note_on,3,0,0,,11,,,70,127
72060,note_off,64,0,0,,11,,,70,127
72064,note_on,4,0,0,,0,,,72,127
72126,note_off,62,0,0,,5,,,53,127
72129,note_off,3,0,0,,0,,,72,127
72129,note_off,0,0,0,,5,,,41,127
72133,note_on,4,0,0,,11,,,70,127
72133,note_on,0,0,0,,11,,,46,127
72232,note_off,99,0,0,,11,,,70,127
72237,note_on,5,0,0,,2,,,74,127
72336,note_off,99,0,0,,2,,,74,127
72337,note_off,1,0,0,,11,,,46,127
72341,note_on,4,0,0,,11,,,70,127
72341,note_on,0,0,0,,0,,,48,127
72440,note_off,99,0,0,,11,,,70,127
72445,note_on,5,0,0,,5,,,77,127
72544,note_off,99,0,0,,5,,,77,127
72545,note_off,1,0,0,,0,,,48,127
72549,note_on,4,0,0,,11,,,70,127
72549,note_on,0,0,0,,2,,,50,127
72751,note_off,202,0,0,,11,,,70,127
72753,note_off,2,0,0,,2,,,50,127
72756,note_on,3,0,0,,11,,,82,127
72756,note_on,0,0,0,,3,,,51,127
72939,note_off,183,0,0,,11,,,82,127
72961,note_off,22,0,0,,3,,,51,127
72965,note_on,4,0,0,,2,,,74,127
72965,note_on,0,0,0,,5,,,53,127
73030,note_off,65,0,0,,2,,,74,127
73035,note_on,5,0,0,,0,,,72,127
73100,note_off,65,0,0,,0,,,72,127
73104,note_on,4,0,0,,2,,,74,127
73169,note_off,65,0,0,,2,,,74,127
73174,note_on,5,0,0,,0,,,72,127
73174,note_on,0,0,0,,5,,,41,127
73239,note_off,65,0,0,,0,,,72,127
73243,note_on,4,0,0,,11,,,70,127
73308,note_off,65,0,0,,11,,,70,127
73316,note_on,8,0,0,,0,,,72,127
73373,note_off,57,0,0,,5,,,53,127
73378,note_off,5,0,0,,5,,,41,127
73380,note_off,2,0,0,,0,,,72,127
73411,note_on,31,0,0,,11,,,70,127
73411,note_on,0,0,0,,11,,,46,127
75164,note_off,1753,0,0,,11,,,46,127
75164,note_off,0,0,0,,11,,,70,127
79872,end_of_track,4708,1,0,,,,,,
