tick,type,time,meta,track,program,channel,pitch,tempo,note,velocity
0,copyright,0,1,0,,,,,,
0,program_change,0,0,0,6,0,,,,
0,pitchwheel,0,0,0,,0,0,,,
0,program_change,0,0,0,6,1,,,,
0,pitchwheel,0,0,0,,1,-590,,,
0,program_change,0,0,0,6,2,,,,
0,pitchwheel,0,0,0,,2,-272,,,
0,program_change,0,0,0,6,3,,,,
0,pitchwheel,0,0,0,,3,-353,,,
0,program_change,0,0,0,6,4,,,,
0,pitchwheel,0,0,0,,4,-560,,,
0,program_change,0,0,0,6,5,,,,
0,pitchwheel,0,0,0,,5,-80,,,
0,program_change,0,0,0,6,6,,,,
0,pitchwheel,0,0,0,,6,-625,,,
0,program_change,0,0,0,6,7,,,,
0,pitchwheel,0,0,0,,7,-130,,,
0,program_change,0,0,0,6,8,,,,
0,pitchwheel,0,0,0,,8,-512,,,
0,program_change,0,0,0,6,10,,,,
0,pitchwheel,0,0,0,,10,-464,,,
0,program_change,0,0,0,6,11,,,,
0,pitchwheel,0,0,0,,11,-208,,,
0,program_change,0,0,0,6,12,,,,
0,pitchwheel,0,0,0,,12,-553,,,
0,set_tempo,0,1,0,,,,500000,,
121,note_on,121,0,0,,7,,,79,127
241,note_off,120,0,0,,7,,,79,127
242,note_on,1,0,0,,5,,,77,127
362,note_off,120,0,0,,5,,,77,127
363,note_on,1,0,0,,4,,,76,127
604,note_off,241,0,0,,4,,,76,127
605,note_on,1,0,0,,2,,,74,127
846,note_off,241,0,0,,2,,,74,127
847,note_on,1,0,0,,0,,,72,127
1074,note_off,227,0,0,,0,,,72,127
1089,note_on,15,0,0,,12,,,71,127
1089,note_on,0,0,0,,7,,,67,127
1209,note_off,120,0,0,,7,,,67,127
1210,note_on,1,0,0,,5,,,65,127
1330,note_off,120,0,0,,5,,,65,127
1330,note_off,0,0,0,,12,,,71,127
1331,note_on,1,0,0,,0,,,72,127
1331,note_on,0,0,0,,4,,,64,127
1572,note_off,241,0,0,,4,,,64,127
1572,note_off,0,0,0,,0,,,72,127
1573,note_on,1,0,0,,2,,,74,127
1573,note_on,0,0,0,,2,,,62,127
1814,note_off,241,0,0,,2,,,62,127
1814,note_off,0,0,0,,2,,,74,127
1815,note_on,1,0,0,,4,,,76,127
1815,note_on,0,0,0,,0,,,60,127
2042,note_off,227,0,0,,4,,,76,127
2056,note_off,14,0,0,,0,,,60,127
2057,note_on,1,0,0,,12,,,71,127
2057,note_on,0,0,0,,7,,,55,127
2177,note_off,120,0,0,,7,,,55,127
2178,note_on,1,0,0,,5,,,53,127
2298,note_off,120,0,0,,5,,,53,127
2298,note_off,0,0,0,,12,,,71,127
2299,note_on,1,0,0,,0,,,72,127
2299,note_on,0,0,0,,4,,,52,127
2540,note_off,241,0,0,,4,,,52,127
2540,note_off,0,0,0,,0,,,72,127
2541,note_on,1,0,0,,2,,,74,127
2541,note_on,0,0,0,,2,,,50,127
2782,note_off,241,0,0,,2,,,50,127
2782,note_off,0,0,0,,2,,,74,127
2783,note_on,1,0,0,,4,,,76,127
2783,note_on,0,0,0,,0,,,48,127
2998,note_off,215,0,0,,4,,,76,127
3036,note_on,38,0,0,,0,,,84,127
3156,note_off,120,0,0,,0,,,84,127
3157,note_on,1,0,0,,10,,,81,127
3263,note_off,106,0,0,,0,,,48,127
3277,note_off,14,0,0,,10,,,81,127
3278,note_on,1,0,0,,7,,,79,127
3521,note_on,243,0,0,,4,,,64,127
3762,note_off,241,0,0,,4,,,64,127
3763,note_on,1,0,0,,5,,,65,127
4004,note_off,241,0,0,,5,,,65,127
4004,note_off,0,0,0,,7,,,79,127
4005,note_on,1,0,0,,5,,,77,127
4005,note_on,0,0,0,,10,,,69,127
4125,note_off,120,0,0,,5,,,77,127
4126,note_on,1,0,0,,2,,,74,127
4246,note_off,120,0,0,,2,,,74,127
4246,note_off,0,0,0,,10,,,69,127
4247,note_on,1,0,0,,0,,,72,127
4247,note_on,0,0,0,,7,,,67,127
4488,note_off,241,0,0,,7,,,67,127
4488,note_off,0,0,0,,0,,,72,127
4489,note_on,1,0,0,,0,,,72,127
4489,note_on,0,0,0,,5,,,65,127
4548,note_off,59,0,0,,0,,,72,127
4549,note_on,1,0,0,,12,,,71,127
4608,note_off,59,0,0,,12,,,71,127
4609,note_on,1,0,0,,10,,,69,127
4668,note_off,59,0,0,,10,,,69,127
4669,note_on,1,0,0,,12,,,71,127
4728,note_off,59,0,0,,12,,,71,127
4728,note_off,0,0,0,,5,,,65,127
4729,note_on,1,0,0,,0,,,72,127
4729,note_on,0,0,0,,4,,,64,127
4972,note_on,243,0,0,,0,,,84,127
5092,note_off,120,0,0,,0,,,84,127
5093,note_on,1,0,0,,10,,,81,127
5209,note_off,116,0,0,,0,,,72,127
5213,note_off,4,0,0,,10,,,81,127
5214,note_on,1,0,0,,7,,,79,127
5419,note_off,205,0,0,,4,,,64,127
5457,note_on,38,0,0,,0,,,60,127
5457,note_on,0,0,0,,4,,,52,127
5698,note_off,241,0,0,,4,,,52,127
5698,note_off,0,0,0,,0,,,60,127
5699,note_on,1,0,0,,5,,,53,127
5699,note_on,0,0,0,,10,,,57,127
5940,note_off,241,0,0,,10,,,57,127
5940,note_off,0,0,0,,7,,,79,127
5941,note_on,1,0,0,,5,,,77,127
5941,note_on,0,0,0,,5,,,65,127
6061,note_off,120,0,0,,5,,,77,127
6062,note_on,1,0,0,,2,,,74,127
6182,note_off,120,0,0,,2,,,74,127
6182,note_off,0,0,0,,5,,,65,127
6182,note_off,0,0,0,,5,,,53,127
6183,note_on,1,0,0,,0,,,72,127
6183,note_on,0,0,0,,4,,,64,127
6183,note_on,0,0,0,,7,,,55,127
6424,note_off,241,0,0,,4,,,64,127
6424,note_off,0,0,0,,0,,,72,127
6425,note_on,1,0,0,,0,,,72,127
6425,note_on,0,0,0,,2,,,62,127
6484,note_off,59,0,0,,0,,,72,127
6485,note_on,1,0,0,,12,,,71,127
6544,note_off,59,0,0,,12,,,71,127
6545,note_on,1,0,0,,10,,,69,127
6604,note_off,59,0,0,,10,,,69,127
6605,note_on,1,0,0,,12,,,71,127
6664,note_off,59,0,0,,12,,,71,127
6664,note_off,0,0,0,,2,,,62,127
6664,note_off,0,0,0,,7,,,55,127
6665,note_on,1,0,0,,0,,,72,127
6665,note_on,0,0,0,,0,,,48,127
6928,note_on,263,0,0,,10,,,81,127
7048,note_off,120,0,0,,10,,,81,127
7049,note_on,1,0,0,,5,,,77,127
7149,note_off,100,0,0,,0,,,72,127
7169,note_off,20,0,0,,5,,,77,127
7170,note_on,1,0,0,,7,,,79,127
7354,note_off,184,0,0,,0,,,48,127
7412,note_on,58,0,0,,0,,,72,127
7412,note_on,0,0,0,,4,,,76,127
7526,note_off,114,0,0,,0,,,72,127
7532,note_off,6,0,0,,4,,,76,127
7533,note_on,1,0,0,,0,,,72,127
7653,note_off,120,0,0,,0,,,72,127
7654,note_on,1,0,0,,12,,,71,127
7654,note_on,0,0,0,,2,,,74,127
7895,note_off,241,0,0,,2,,,74,127
7895,note_off,0,0,0,,12,,,71,127
7896,note_on,1,0,0,,7,,,67,127
7896,note_on,0,0,0,,12,,,71,127
8010,note_off,114,0,0,,7,,,67,127
8016,note_off,6,0,0,,12,,,71,127
8017,note_on,1,0,0,,7,,,67,127
8137,note_off,120,0,0,,7,,,67,127
8138,note_on,1,0,0,,4,,,64,127
8138,note_on,0,0,0,,0,,,72,127
8379,note_off,241,0,0,,0,,,72,127
8379,note_off,0,0,0,,4,,,64,127
8380,note_on,1,0,0,,0,,,60,127
8380,note_on,0,0,0,,4,,,76,127
8500,note_off,120,0,0,,4,,,76,127
8501,note_on,1,0,0,,0,,,72,127
8621,note_off,120,0,0,,0,,,72,127
8621,note_off,0,0,0,,0,,,60,127
8622,note_on,1,0,0,,7,,,55,127
8622,note_on,0,0,0,,2,,,74,127
8865,note_off,243,0,0,,7,,,79,127
8885,note_on,20,0,0,,10,,,81,127
9005,note_off,120,0,0,,10,,,81,127
9006,note_on,1,0,0,,5,,,77,127
9106,note_off,100,0,0,,2,,,74,127
9126,note_off,20,0,0,,5,,,77,127
9127,note_on,1,0,0,,7,,,79,127
9311,note_off,184,0,0,,7,,,55,127
9369,note_on,58,0,0,,4,,,76,127
9369,note_on,0,0,0,,0,,,72,127
9483,note_off,114,0,0,,0,,,72,127
9489,note_off,6,0,0,,4,,,76,127
9490,note_on,1,0,0,,0,,,72,127
9610,note_off,120,0,0,,0,,,72,127
9611,note_on,1,0,0,,2,,,74,127
9611,note_on,0,0,0,,12,,,71,127
9852,note_off,241,0,0,,12,,,71,127
9852,note_off,0,0,0,,2,,,74,127
9853,note_on,1,0,0,,12,,,71,127
9853,note_on,0,0,0,,7,,,67,127
9967,note_off,114,0,0,,7,,,67,127
9973,note_off,6,0,0,,12,,,71,127
9974,note_on,1,0,0,,7,,,67,127
10094,note_off,120,0,0,,7,,,67,127
10095,note_on,1,0,0,,0,,,72,127
10095,note_on,0,0,0,,4,,,64,127
10336,note_off,241,0,0,,4,,,64,127
10336,note_off,0,0,0,,0,,,72,127
10337,note_on,1,0,0,,4,,,76,127
10337,note_on,0,0,0,,0,,,60,127
10457,note_off,120,0,0,,4,,,76,127
10458,note_on,1,0,0,,0,,,72,127
10578,note_off,120,0,0,,0,,,72,127
10578,note_off,0,0,0,,0,,,60,127
10579,note_on,1,0,0,,2,,,74,127
10579,note_on,0,0,0,,7,,,55,127
10627,note_off,48,0,0,,2,,,74,127
10779,note_off,152,0,0,,7,,,79,127
10852,note_on,73,0,0,,0,,,84,127
10943,note_off,91,0,0,,7,,,55,127
10972,note_off,29,0,0,,0,,,84,127
10973,note_on,1,0,0,,10,,,81,127
11093,note_off,120,0,0,,10,,,81,127
11094,note_on,1,0,0,,11,,,82,127
11337,note_on,243,0,0,,7,,,67,127
11337,note_on,0,0,0,,3,,,75,127
11457,note_off,120,0,0,,3,,,75,127
11458,note_on,1,0,0,,0,,,72,127
11578,note_off,120,0,0,,0,,,72,127
11578,note_off,0,0,0,,7,,,67,127
11579,note_on,1,0,0,,6,,,66,127
11579,note_on,0,0,0,,2,,,74,127
11820,note_off,241,0,0,,6,,,66,127
11820,note_off,0,0,0,,11,,,82,127
11821,note_on,1,0,0,,2,,,62,127
11821,note_on,0,0,0,,10,,,81,127
11941,note_off,120,0,0,,10,,,81,127
11942,note_on,1,0,0,,6,,,78,127
12062,note_off,120,0,0,,6,,,78,127
12062,note_off,0,0,0,,2,,,62,127
12062,note_off,0,0,0,,2,,,74,127
12063,note_on,1,0,0,,3,,,63,127
12063,note_on,0,0,0,,7,,,79,127
12304,note_off,241,0,0,,3,,,63,127
12305,note_on,1,0,0,,0,,,60,127
12305,note_on,0,0,0,,3,,,75,127
12425,note_off,120,0,0,,3,,,75,127
12426,note_on,1,0,0,,0,,,72,127
12546,note_off,120,0,0,,0,,,72,127
12546,note_off,0,0,0,,0,,,60,127
12546,note_off,0,0,0,,7,,,79,127
12547,note_on,1,0,0,,2,,,62,127
12547,note_on,0,0,0,,2,,,74,127
12810,note_on,263,0,0,,0,,,84,127
12930,note_off,120,0,0,,0,,,84,127
12931,note_on,1,0,0,,10,,,81,127
13031,note_off,100,0,0,,2,,,74,127
13051,note_off,20,0,0,,10,,,81,127
13052,note_on,1,0,0,,11,,,82,127
13236,note_off,184,0,0,,2,,,62,127
13294,note_on,58,0,0,,3,,,75,127
13294,note_on,0,0,0,,7,,,67,127
13414,note_off,120,0,0,,3,,,75,127
13415,note_on,1,0,0,,0,,,72,127
13535,note_off,120,0,0,,0,,,72,127
13535,note_off,0,0,0,,7,,,67,127
13536,note_on,1,0,0,,2,,,74,127
13536,note_on,0,0,0,,6,,,66,127
13777,note_off,241,0,0,,6,,,66,127
13777,note_off,0,0,0,,11,,,82,127
13778,note_on,1,0,0,,10,,,81,127
13778,note_on,0,0,0,,2,,,62,127
13898,note_off,120,0,0,,10,,,81,127
13899,note_on,1,0,0,,6,,,78,127
14019,note_off,120,0,0,,6,,,78,127
14019,note_off,0,0,0,,2,,,62,127
14019,note_off,0,0,0,,2,,,74,127
14020,note_on,1,0,0,,7,,,79,127
14020,note_on,0,0,0,,3,,,63,127
14261,note_off,241,0,0,,3,,,63,127
14262,note_on,1,0,0,,3,,,75,127
14262,note_on,0,0,0,,0,,,60,127
14382,note_off,120,0,0,,3,,,75,127
14383,note_on,1,0,0,,0,,,72,127
14503,note_off,120,0,0,,0,,,72,127
14503,note_off,0,0,0,,7,,,79,127
14504,note_on,1,0,0,,2,,,74,127
14625,note_off,121,0,0,,0,,,60,127
14746,note_on,121,0,0,,2,,,62,127
14746,note_on,0,0,0,,6,,,66,127
14987,note_off,241,0,0,,6,,,66,127
14987,note_off,0,0,0,,2,,,62,127
14987,note_off,0,0,0,,2,,,74,127
14988,note_on,1,0,0,,2,,,74,127
14988,note_on,0,0,0,,4,,,64,127
14988,note_on,0,0,0,,7,,,67,127
15047,note_off,59,0,0,,2,,,74,127
15048,note_on,1,0,0,,0,,,72,127
15107,note_off,59,0,0,,0,,,72,127
15108,note_on,1,0,0,,2,,,74,127
15167,note_off,59,0,0,,2,,,74,127
15168,note_on,1,0,0,,0,,,72,127
15227,note_off,59,0,0,,0,,,72,127
15227,note_off,0,0,0,,7,,,67,127
15227,note_off,0,0,0,,4,,,64,127
15228,note_on,1,0,0,,2,,,74,127
15228,note_on,0,0,0,,10,,,69,127
15228,note_on,0,0,0,,6,,,66,127
15287,note_off,59,0,0,,2,,,74,127
15308,note_on,21,0,0,,0,,,72,127
15367,note_off,59,0,0,,0,,,72,127
15368,note_on,1,0,0,,12,,,71,127
15427,note_off,59,0,0,,12,,,71,127
15428,note_on,1,0,0,,0,,,72,127
15487,note_off,59,0,0,,0,,,72,127
15488,note_on,1,0,0,,2,,,74,127
15568,note_off,80,0,0,,2,,,74,127
15569,note_on,1,0,0,,12,,,71,127
15589,note_off,20,0,0,,6,,,66,127
15589,note_off,0,0,0,,10,,,69,127
15648,note_off,59,0,0,,12,,,71,127
15649,note_on,1,0,0,,4,,,76,127
15729,note_off,80,0,0,,4,,,76,127
15730,note_on,1,0,0,,12,,,71,127
15730,note_on,0,0,0,,7,,,67,127
15730,note_on,0,0,0,,2,,,74,127
15971,note_off,241,0,0,,7,,,67,127
15971,note_off,0,0,0,,12,,,71,127
15972,note_on,1,0,0,,6,,,66,127
15972,note_on,0,0,0,,10,,,69,127
16213,note_off,241,0,0,,10,,,69,127
16213,note_off,0,0,0,,6,,,66,127
16214,note_on,1,0,0,,6,,,66,127
16214,note_on,0,0,0,,2,,,62,127
16455,note_off,241,0,0,,2,,,74,127
16456,note_on,1,0,0,,2,,,74,127
16536,note_off,80,0,0,,2,,,74,127
16537,note_on,1,0,0,,12,,,71,127
16577,note_off,40,0,0,,2,,,62,127
16577,note_off,0,0,0,,6,,,66,127
16616,note_off,39,0,0,,12,,,71,127
16617,note_on,1,0,0,,7,,,79,127
16697,note_off,80,0,0,,7,,,79,127
16698,note_on,1,0,0,,12,,,71,127
16698,note_on,0,0,0,,7,,,67,127
16698,note_on,0,0,0,,2,,,74,127
16939,note_off,241,0,0,,7,,,67,127
16939,note_off,0,0,0,,12,,,71,127
16940,note_on,1,0,0,,6,,,66,127
16940,note_on,0,0,0,,10,,,69,127
17181,note_off,241,0,0,,10,,,69,127
17181,note_off,0,0,0,,6,,,66,127
17182,note_on,1,0,0,,6,,,66,127
17182,note_on,0,0,0,,2,,,62,127
17423,note_off,241,0,0,,2,,,74,127
17424,note_on,1,0,0,,2,,,74,127
17504,note_off,80,0,0,,2,,,74,127
17505,note_on,1,0,0,,12,,,71,127
17545,note_off,40,0,0,,2,,,62,127
17545,note_off,0,0,0,,6,,,66,127
17584,note_off,39,0,0,,12,,,71,127
17585,note_on,1,0,0,,12,,,83,127
17665,note_off,80,0,0,,12,,,83,127
17666,note_on,1,0,0,,7,,,55,127
17666,note_on,0,0,0,,12,,,59,127
17666,note_on,0,0,0,,2,,,74,127
17907,note_off,241,0,0,,12,,,59,127
17907,note_off,0,0,0,,7,,,55,127
17908,note_on,1,0,0,,6,,,54,127
17908,note_on,0,0,0,,10,,,57,127
18149,note_off,241,0,0,,10,,,57,127
18149,note_off,0,0,0,,6,,,54,127
18150,note_on,1,0,0,,2,,,50,127
18150,note_on,0,0,0,,2,,,62,127
18391,note_off,241,0,0,,2,,,74,127
18392,note_on,1,0,0,,2,,,74,127
18472,note_off,80,0,0,,2,,,74,127
18473,note_on,1,0,0,,12,,,71,127
18513,note_off,40,0,0,,2,,,62,127
18513,note_off,0,0,0,,2,,,50,127
18552,note_off,39,0,0,,12,,,71,127
18553,note_on,1,0,0,,2,,,86,127
18633,note_off,80,0,0,,2,,,86,127
18634,note_on,1,0,0,,12,,,59,127
18634,note_on,0,0,0,,7,,,55,127
18634,note_on,0,0,0,,2,,,74,127
18875,note_off,241,0,0,,7,,,55,127
18875,note_off,0,0,0,,12,,,59,127
18876,note_on,1,0,0,,10,,,57,127
18876,note_on,0,0,0,,6,,,54,127
19117,note_off,241,0,0,,6,,,54,127
19117,note_off,0,0,0,,10,,,57,127
19118,note_on,1,0,0,,2,,,50,127
19118,note_on,0,0,0,,2,,,62,127
19359,note_off,241,0,0,,2,,,62,127
19359,note_off,0,0,0,,2,,,50,127
19360,note_on,1,0,0,,7,,,55,127
19440,note_off,80,0,0,,2,,,74,127
19441,note_on,1,0,0,,0,,,72,127
19521,note_off,80,0,0,,0,,,72,127
19522,note_on,1,0,0,,2,,,74,127
19602,note_off,80,0,0,,2,,,74,127
19602,note_off,0,0,0,,7,,,55,127
19603,note_on,1,0,0,,0,,,60,127
19603,note_on,0,0,0,,4,,,76,127
19683,note_off,80,0,0,,4,,,76,127
19684,note_on,1,0,0,,0,,,72,127
19764,note_off,80,0,0,,0,,,72,127
19765,note_on,1,0,0,,10,,,69,127
19845,note_off,80,0,0,,10,,,69,127
19845,note_off,0,0,0,,0,,,60,127
19846,note_on,1,0,0,,2,,,62,127
19846,note_on,0,0,0,,12,,,71,127
20087,note_off,241,0,0,,12,,,71,127
20088,note_on,1,0,0,,2,,,50,127
20088,note_on,0,0,0,,12,,,71,127
20147,note_off,59,0,0,,12,,,71,127
20148,note_on,1,0,0,,10,,,69,127
20207,note_off,59,0,0,,10,,,69,127
20208,note_off,1,0,0,,2,,,62,127
20208,note_on,0,0,0,,7,,,67,127
20267,note_off,59,0,0,,7,,,67,127
20268,note_on,1,0,0,,10,,,69,127
20327,note_off,59,0,0,,10,,,69,127
20327,note_off,0,0,0,,2,,,50,127
20328,note_on,1,0,0,,7,,,43,127
20328,note_on,0,0,0,,7,,,67,127
20569,note_off,241,0,0,,7,,,67,127
20590,note_on,21,0,0,,12,,,83,127
20670,note_off,80,0,0,,12,,,83,127
20671,note_on,1,0,0,,0,,,84,127
20751,note_off,80,0,0,,0,,,84,127
20752,note_on,1,0,0,,2,,,86,127
20832,note_off,80,0,0,,2,,,86,127
20833,note_on,1,0,0,,0,,,84,127
20913,note_off,80,0,0,,0,,,84,127
20914,note_on,1,0,0,,12,,,83,127
20994,note_off,80,0,0,,12,,,83,127
20995,note_on,1,0,0,,10,,,81,127
21054,note_off,59,0,0,,7,,,43,127
21074,note_off,20,0,0,,10,,,81,127
21075,note_on,1,0,0,,7,,,79,127
21155,note_off,80,0,0,,7,,,79,127
21156,note_on,1,0,0,,6,,,78,127
21236,note_off,80,0,0,,6,,,78,127
21237,note_on,1,0,0,,4,,,76,127
21317,note_off,80,0,0,,4,,,76,127
21318,note_on,1,0,0,,2,,,74,127
21398,note_off,80,0,0,,2,,,74,127
21399,note_on,1,0,0,,12,,,71,127
21479,note_off,80,0,0,,12,,,71,127
21480,note_on,1,0,0,,4,,,76,127
21560,note_off,80,0,0,,4,,,76,127
21561,note_on,1,0,0,,2,,,74,127
21561,note_on,0,0,0,,7,,,67,127
21561,note_on,0,0,0,,12,,,71,127
21802,note_off,241,0,0,,12,,,71,127
21802,note_off,0,0,0,,7,,,67,127
21803,note_on,1,0,0,,6,,,66,127
21803,note_on,0,0,0,,10,,,69,127
22044,note_off,241,0,0,,10,,,69,127
22044,note_off,0,0,0,,6,,,66,127
22045,note_on,1,0,0,,2,,,62,127
22045,note_on,0,0,0,,6,,,66,127
22286,note_off,241,0,0,,2,,,74,127
22287,note_on,1,0,0,,2,,,74,127
22367,note_off,80,0,0,,2,,,74,127
22368,note_on,1,0,0,,12,,,71,127
22408,note_off,40,0,0,,6,,,66,127
22408,note_off,0,0,0,,2,,,62,127
22447,note_off,39,0,0,,12,,,71,127
22448,note_on,1,0,0,,7,,,79,127
22528,note_off,80,0,0,,7,,,79,127
22529,note_on,1,0,0,,2,,,74,127
22529,note_on,0,0,0,,7,,,67,127
22529,note_on,0,0,0,,12,,,71,127
22770,note_off,241,0,0,,12,,,71,127
22770,note_off,0,0,0,,7,,,67,127
22771,note_on,1,0,0,,10,,,69,127
22771,note_on,0,0,0,,6,,,66,127
23012,note_off,241,0,0,,6,,,66,127
23012,note_off,0,0,0,,10,,,69,127
23013,note_on,1,0,0,,2,,,62,127
23013,note_on,0,0,0,,6,,,66,127
23254,note_off,241,0,0,,2,,,74,127
23255,note_on,1,0,0,,2,,,74,127
23335,note_off,80,0,0,,2,,,74,127
23336,note_on,1,0,0,,12,,,71,127
23376,note_off,40,0,0,,6,,,66,127
23376,note_off,0,0,0,,2,,,62,127
23415,note_off,39,0,0,,12,,,71,127
23416,note_on,1,0,0,,12,,,83,127
23496,note_off,80,0,0,,12,,,83,127
23497,note_on,1,0,0,,2,,,74,127
23497,note_on,0,0,0,,7,,,55,127
23497,note_on,0,0,0,,12,,,59,127
23738,note_off,241,0,0,,12,,,59,127
23738,note_off,0,0,0,,7,,,55,127
23739,note_on,1,0,0,,10,,,57,127
23739,note_on,0,0,0,,6,,,54,127
23980,note_off,241,0,0,,6,,,54,127
23980,note_off,0,0,0,,10,,,57,127
23981,note_on,1,0,0,,2,,,62,127
23981,note_on,0,0,0,,2,,,50,127
24222,note_off,241,0,0,,2,,,74,127
24223,note_on,1,0,0,,2,,,74,127
24303,note_off,80,0,0,,2,,,74,127
24304,note_on,1,0,0,,12,,,71,127
24344,note_off,40,0,0,,2,,,50,127
24344,note_off,0,0,0,,2,,,62,127
24383,note_off,39,0,0,,12,,,71,127
24384,note_on,1,0,0,,2,,,86,127
24464,note_off,80,0,0,,2,,,86,127
24465,note_on,1,0,0,,2,,,74,127
24465,note_on,0,0,0,,7,,,55,127
24465,note_on,0,0,0,,12,,,59,127
24706,note_off,241,0,0,,12,,,59,127
24706,note_off,0,0,0,,7,,,55,127
24707,note_on,1,0,0,,6,,,54,127
24707,note_on,0,0,0,,10,,,57,127
24948,note_off,241,0,0,,10,,,57,127
24948,note_off,0,0,0,,6,,,54,127
24949,note_on,1,0,0,,2,,,50,127
24949,note_on,0,0,0,,2,,,62,127
25190,note_off,241,0,0,,2,,,62,127
25190,note_off,0,0,0,,2,,,50,127
25191,note_on,1,0,0,,7,,,55,127
25271,note_off,80,0,0,,2,,,74,127
25272,note_on,1,0,0,,0,,,72,127
25352,note_off,80,0,0,,0,,,72,127
25353,note_on,1,0,0,,2,,,74,127
25433,note_off,80,0,0,,2,,,74,127
25433,note_off,0,0,0,,7,,,55,127
25434,note_on,1,0,0,,4,,,76,127
25434,note_on,0,0,0,,0,,,60,127
25514,note_off,80,0,0,,4,,,76,127
25515,note_on,1,0,0,,0,,,72,127
25595,note_off,80,0,0,,0,,,72,127
25596,note_on,1,0,0,,10,,,69,127
25676,note_off,80,0,0,,10,,,69,127
25676,note_off,0,0,0,,0,,,60,127
25677,note_on,1,0,0,,12,,,71,127
25677,note_on,0,0,0,,2,,,62,127
25918,note_off,241,0,0,,12,,,71,127
25919,note_on,1,0,0,,12,,,71,127
25919,note_on,0,0,0,,2,,,50,127
25978,note_off,59,0,0,,12,,,71,127
25979,note_on,1,0,0,,10,,,69,127
26038,note_off,59,0,0,,10,,,69,127
26039,note_off,1,0,0,,2,,,62,127
26039,note_on,0,0,0,,7,,,67,127
26098,note_off,59,0,0,,7,,,67,127
26099,note_on,1,0,0,,10,,,69,127
26158,note_off,59,0,0,,10,,,69,127
26158,note_off,0,0,0,,2,,,50,127
26159,note_on,1,0,0,,7,,,67,127
26159,note_on,0,0,0,,7,,,43,127
26400,note_off,241,0,0,,7,,,43,127
26400,note_off,0,0,0,,7,,,67,127
26421,note_on,21,0,0,,12,,,59,127
26421,note_on,0,0,0,,2,,,74,127
26662,note_off,241,0,0,,2,,,74,127
26663,note_on,1,0,0,,4,,,76,127
26722,note_off,59,0,0,,4,,,76,127
26723,note_on,1,0,0,,0,,,72,127
26782,note_off,59,0,0,,0,,,72,127
26783,note_off,1,0,0,,12,,,59,127
26783,note_on,0,0,0,,10,,,69,127
26904,note_on,121,0,0,,4,,,64,127
26904,note_on,0,0,0,,0,,,60,127
27145,note_off,241,0,0,,10,,,69,127
27146,note_on,1,0,0,,2,,,74,127
27205,note_off,59,0,0,,2,,,74,127
27206,note_on,1,0,0,,12,,,71,127
27265,note_off,59,0,0,,12,,,71,127
27266,note_off,1,0,0,,0,,,60,127
27266,note_off,0,0,0,,4,,,64,127
27266,note_on,0,0,0,,7,,,67,127
27387,note_on,121,0,0,,2,,,62,127
27387,note_on,0,0,0,,12,,,59,127
27628,note_off,241,0,0,,12,,,59,127
27628,note_off,0,0,0,,2,,,62,127
27628,note_off,0,0,0,,7,,,67,127
27629,note_on,1,0,0,,4,,,64,127
27629,note_on,0,0,0,,0,,,60,127
27629,note_on,0,0,0,,12,,,83,127
27688,note_off,59,0,0,,12,,,83,127
27689,note_on,1,0,0,,10,,,81,127
27748,note_off,59,0,0,,10,,,81,127
27749,note_on,1,0,0,,12,,,83,127
27808,note_off,59,0,0,,12,,,83,127
27809,note_on,1,0,0,,10,,,81,127
27868,note_off,59,0,0,,10,,,81,127
27868,note_off,0,0,0,,0,,,60,127
27868,note_off,0,0,0,,4,,,64,127
27869,note_on,1,0,0,,6,,,66,127
27869,note_on,0,0,0,,2,,,62,127
27869,note_on,0,0,0,,12,,,83,127
27928,note_off,59,0,0,,12,,,83,127
27929,note_on,1,0,0,,10,,,81,127
27988,note_off,59,0,0,,10,,,81,127
27989,note_on,1,0,0,,7,,,79,127
28048,note_off,59,0,0,,7,,,79,127
28049,note_on,1,0,0,,10,,,81,127
28108,note_off,59,0,0,,10,,,81,127
28108,note_off,0,0,0,,2,,,62,127
28108,note_off,0,0,0,,6,,,66,127
28109,note_on,1,0,0,,7,,,55,127
28109,note_on,0,0,0,,12,,,83,127
28350,note_off,241,0,0,,12,,,83,127
28350,note_off,0,0,0,,7,,,55,127
28371,note_on,21,0,0,,2,,,74,127
28371,note_on,0,0,0,,7,,,67,127
28612,note_off,241,0,0,,2,,,74,127
28613,note_on,1,0,0,,4,,,76,127
28672,note_off,59,0,0,,4,,,76,127
28673,note_on,1,0,0,,0,,,72,127
28732,note_off,59,0,0,,0,,,72,127
28733,note_off,1,0,0,,7,,,67,127
28733,note_on,0,0,0,,10,,,69,127
28854,note_on,121,0,0,,0,,,60,127
28854,note_on,0,0,0,,4,,,64,127
29095,note_off,241,0,0,,10,,,69,127
29096,note_on,1,0,0,,2,,,74,127
29155,note_off,59,0,0,,2,,,74,127
29156,note_on,1,0,0,,12,,,71,127
29215,note_off,59,0,0,,12,,,71,127
29216,note_off,1,0,0,,4,,,64,127
29216,note_off,0,0,0,,0,,,60,127
29216,note_on,0,0,0,,7,,,67,127
29337,note_on,121,0,0,,12,,,59,127
29337,note_on,0,0,0,,2,,,62,127
29578,note_off,241,0,0,,2,,,62,127
29578,note_off,0,0,0,,12,,,59,127
29578,note_off,0,0,0,,7,,,67,127
29579,note_on,1,0,0,,12,,,83,127
29579,note_on,0,0,0,,0,,,60,127
29579,note_on,0,0,0,,4,,,64,127
29638,note_off,59,0,0,,12,,,83,127
29639,note_on,1,0,0,,10,,,81,127
29698,note_off,59,0,0,,10,,,81,127
29699,note_on,1,0,0,,12,,,83,127
29758,note_off,59,0,0,,12,,,83,127
29759,note_on,1,0,0,,10,,,81,127
29818,note_off,59,0,0,,10,,,81,127
29818,note_off,0,0,0,,4,,,64,127
29818,note_off,0,0,0,,0,,,60,127
29819,note_on,1,0,0,,12,,,83,127
29819,note_on,0,0,0,,2,,,62,127
29819,note_on,0,0,0,,6,,,66,127
29878,note_off,59,0,0,,12,,,83,127
29879,note_on,1,0,0,,10,,,81,127
29938,note_off,59,0,0,,10,,,81,127
29939,note_on,1,0,0,,7,,,79,127
29998,note_off,59,0,0,,7,,,79,127
29999,note_on,1,0,0,,10,,,81,127
30057,note_off,58,0,0,,6,,,66,127
30058,note_off,1,0,0,,10,,,81,127
30059,note_on,1,0,0,,7,,,79,127
30180,note_off,121,0,0,,2,,,62,127
30300,note_off,120,0,0,,7,,,79,127
30321,note_on,21,0,0,,12,,,59,127
30321,note_on,0,0,0,,2,,,62,127
30562,note_off,241,0,0,,2,,,62,127
30562,note_off,0,0,0,,12,,,59,127
30563,note_on,1,0,0,,0,,,60,127
30563,note_on,0,0,0,,4,,,64,127
30643,note_off,80,0,0,,4,,,64,127
30644,note_on,1,0,0,,6,,,66,127
30724,note_off,80,0,0,,6,,,66,127
30725,note_on,1,0,0,,7,,,67,127
30805,note_off,80,0,0,,7,,,67,127
30805,note_off,0,0,0,,0,,,60,127
30806,note_on,1,0,0,,0,,,48,127
30806,note_on,0,0,0,,10,,,69,127
30886,note_off,80,0,0,,10,,,69,127
30887,note_on,1,0,0,,12,,,71,127
30967,note_off,80,0,0,,12,,,71,127
30968,note_on,1,0,0,,0,,,72,127
31048,note_off,80,0,0,,0,,,72,127
31049,note_on,1,0,0,,7,,,79,127
31170,note_off,121,0,0,,0,,,48,127
31290,note_off,120,0,0,,7,,,79,127
31291,note_on,1,0,0,,12,,,47,127
31291,note_on,0,0,0,,7,,,55,127
31291,note_on,0,0,0,,7,,,67,127
31532,note_off,241,0,0,,7,,,67,127
31532,note_off,0,0,0,,7,,,55,127
31532,note_off,0,0,0,,12,,,47,127
31533,note_on,1,0,0,,0,,,48,127
31533,note_on,0,0,0,,12,,,71,127
31592,note_off,59,0,0,,12,,,71,127
31593,note_on,1,0,0,,10,,,69,127
31652,note_off,59,0,0,,10,,,69,127
31653,note_on,1,0,0,,12,,,71,127
31712,note_off,59,0,0,,12,,,71,127
31713,note_on,1,0,0,,10,,,69,127
31772,note_off,59,0,0,,10,,,69,127
31772,note_off,0,0,0,,0,,,48,127
31773,note_on,1,0,0,,6,,,54,127
31773,note_on,0,0,0,,2,,,50,127
31773,note_on,0,0,0,,12,,,71,127
31832,note_off,59,0,0,,12,,,71,127
31833,note_on,1,0,0,,10,,,69,127
31892,note_off,59,0,0,,10,,,69,127
31893,note_on,1,0,0,,7,,,67,127
31952,note_off,59,0,0,,7,,,67,127
31953,note_on,1,0,0,,10,,,69,127
32012,note_off,59,0,0,,10,,,69,127
32013,note_on,1,0,0,,7,,,79,127
32134,note_off,121,0,0,,2,,,50,127
32134,note_off,0,0,0,,6,,,54,127
32254,note_off,120,0,0,,7,,,79,127
32255,note_on,1,0,0,,12,,,59,127
32255,note_on,0,0,0,,2,,,62,127
32496,note_off,241,0,0,,2,,,62,127
32496,note_off,0,0,0,,12,,,59,127
32497,note_on,1,0,0,,0,,,60,127
32497,note_on,0,0,0,,4,,,64,127
32577,note_off,80,0,0,,4,,,64,127
32578,note_on,1,0,0,,6,,,66,127
32658,note_off,80,0,0,,6,,,66,127
32659,note_on,1,0,0,,7,,,67,127
32739,note_off,80,0,0,,7,,,67,127
32739,note_off,0,0,0,,0,,,60,127
32740,note_on,1,0,0,,0,,,48,127
32740,note_on,0,0,0,,10,,,69,127
32820,note_off,80,0,0,,10,,,69,127
32821,note_on,1,0,0,,12,,,71,127
32901,note_off,80,0,0,,12,,,71,127
32902,note_on,1,0,0,,0,,,72,127
32982,note_off,80,0,0,,0,,,72,127
32983,note_on,1,0,0,,7,,,79,127
33104,note_off,121,0,0,,0,,,48,127
33224,note_off,120,0,0,,7,,,79,127
33225,note_on,1,0,0,,7,,,55,127
33225,note_on,0,0,0,,12,,,47,127
33225,note_on,0,0,0,,7,,,67,127
33466,note_off,241,0,0,,7,,,67,127
33466,note_off,0,0,0,,12,,,47,127
33467,note_on,1,0,0,,0,,,48,127
33467,note_on,0,0,0,,12,,,71,127
33526,note_off,59,0,0,,12,,,71,127
33527,note_on,1,0,0,,10,,,69,127
33586,note_off,59,0,0,,10,,,69,127
33587,note_on,1,0,0,,12,,,71,127
33646,note_off,59,0,0,,12,,,71,127
33647,note_on,1,0,0,,10,,,69,127
33706,note_off,59,0,0,,10,,,69,127
33706,note_off,0,0,0,,0,,,48,127
33706,note_off,0,0,0,,7,,,55,127
33707,note_on,1,0,0,,6,,,54,127
33707,note_on,0,0,0,,2,,,50,127
33707,note_on,0,0,0,,12,,,71,127
33766,note_off,59,0,0,,12,,,71,127
33767,note_on,1,0,0,,10,,,69,127
33826,note_off,59,0,0,,10,,,69,127
33827,note_on,1,0,0,,7,,,67,127
33886,note_off,59,0,0,,7,,,67,127
33887,note_on,1,0,0,,6,,,66,127
33946,note_off,59,0,0,,6,,,66,127
33947,note_on,1,0,0,,7,,,79,127
34068,note_off,121,0,0,,2,,,50,127
34068,note_off,0,0,0,,6,,,54,127
34188,note_off,120,0,0,,7,,,79,127
34189,note_on,1,0,0,,12,,,59,127
34189,note_on,0,0,0,,2,,,62,127
34189,note_on,0,0,0,,7,,,67,127
34430,note_off,241,0,0,,7,,,67,127
34430,note_off,0,0,0,,2,,,62,127
34430,note_off,0,0,0,,12,,,59,127
34431,note_on,1,0,0,,4,,,64,127
34431,note_on,0,0,0,,0,,,60,127
34431,note_on,0,0,0,,12,,,71,127
34490,note_off,59,0,0,,12,,,71,127
34491,note_on,1,0,0,,10,,,69,127
34550,note_off,59,0,0,,10,,,69,127
34551,note_on,1,0,0,,12,,,71,127
34610,note_off,59,0,0,,12,,,71,127
34611,note_on,1,0,0,,10,,,69,127
34670,note_off,59,0,0,,10,,,69,127
34670,note_off,0,0,0,,0,,,60,127
34670,note_off,0,0,0,,4,,,64,127
34671,note_on,1,0,0,,0,,,60,127
34671,note_on,0,0,0,,10,,,57,127
34671,note_on,0,0,0,,12,,,71,127
34730,note_off,59,0,0,,12,,,71,127
34731,note_on,1,0,0,,10,,,69,127
34790,note_off,59,0,0,,10,,,69,127
34791,note_on,1,0,0,,7,,,67,127
34850,note_off,59,0,0,,7,,,67,127
34851,note_on,1,0,0,,10,,,69,127
34910,note_off,59,0,0,,10,,,69,127
34910,note_off,0,0,0,,10,,,57,127
34910,note_off,0,0,0,,0,,,60,127
34911,note_on,1,0,0,,2,,,62,127
34911,note_on,0,0,0,,12,,,59,127
34911,note_on,0,0,0,,7,,,79,127
35152,note_off,241,0,0,,12,,,59,127
35152,note_off,0,0,0,,2,,,62,127
35163,note_on,11,0,0,,12,,,47,127
35163,note_on,0,0,0,,12,,,59,127
35163,note_on,0,0,0,,7,,,67,127
35390,note_off,227,0,0,,7,,,79,127
35404,note_off,14,0,0,,7,,,67,127
35404,note_off,0,0,0,,12,,,59,127
35404,note_off,0,0,0,,12,,,47,127
35415,note_on,11,0,0,,12,,,71,127
35415,note_on,0,0,0,,0,,,48,127
35415,note_on,0,0,0,,0,,,60,127
35474,note_off,59,0,0,,12,,,71,127
35475,note_on,1,0,0,,10,,,69,127
35534,note_off,59,0,0,,10,,,69,127
35535,note_on,1,0,0,,12,,,71,127
35594,note_off,59,0,0,,12,,,71,127
35595,note_on,1,0,0,,10,,,69,127
35654,note_off,59,0,0,,10,,,69,127
35654,note_off,0,0,0,,0,,,60,127
35654,note_off,0,0,0,,0,,,48,127
35655,note_on,1,0,0,,12,,,71,127
35655,note_on,0,0,0,,2,,,62,127
35655,note_on,0,0,0,,2,,,50,127
35714,note_off,59,0,0,,12,,,71,127
35715,note_on,1,0,0,,10,,,69,127
35774,note_off,59,0,0,,10,,,69,127
35775,note_on,1,0,0,,7,,,67,127
35834,note_off,59,0,0,,7,,,67,127
35835,note_on,1,0,0,,6,,,66,127
35894,note_off,59,0,0,,6,,,66,127
35894,note_off,0,0,0,,2,,,50,127
35894,note_off,0,0,0,,2,,,62,127
35895,note_on,1,0,0,,7,,,67,127
35895,note_on,0,0,0,,7,,,55,127
35895,note_on,0,0,0,,7,,,43,127
36122,note_off,227,0,0,,7,,,67,127
36209,note_on,87,0,0,,2,,,74,127
36248,note_off,39,0,0,,7,,,43,127
36248,note_off,0,0,0,,7,,,55,127
36451,note_off,203,0,0,,2,,,74,127
36470,note_on,19,0,0,,5,,,77,127
36550,note_off,80,0,0,,5,,,77,127
36551,note_on,1,0,0,,4,,,76,127
36631,note_off,80,0,0,,4,,,76,127
36632,note_on,1,0,0,,2,,,74,127
36712,note_off,80,0,0,,2,,,74,127
36713,note_on,1,0,0,,0,,,72,127
36713,note_on,0,0,0,,10,,,69,127
36954,note_off,241,0,0,,10,,,69,127
36954,note_off,0,0,0,,0,,,72,127
36955,note_on,1,0,0,,12,,,71,127
36955,note_on,0,0,0,,8,,,68,127
37196,note_off,241,0,0,,8,,,68,127
37196,note_off,0,0,0,,12,,,71,127
37197,note_on,1,0,0,,0,,,72,127
37197,note_on,0,0,0,,4,,,76,127
37197,note_on,0,0,0,,10,,,69,127
37438,note_off,241,0,0,,10,,,69,127
37438,note_off,0,0,0,,0,,,72,127
37439,note_on,1,0,0,,12,,,71,127
37439,note_on,0,0,0,,8,,,68,127
37680,note_off,241,0,0,,8,,,68,127
37680,note_off,0,0,0,,12,,,71,127
37680,note_off,0,0,0,,4,,,76,127
37681,note_on,1,0,0,,2,,,74,127
37681,note_on,0,0,0,,10,,,69,127
37681,note_on,0,0,0,,5,,,65,127
37922,note_off,241,0,0,,5,,,65,127
37922,note_off,0,0,0,,10,,,69,127
37922,note_off,0,0,0,,2,,,74,127
37923,note_on,1,0,0,,8,,,68,127
37923,note_on,0,0,0,,4,,,76,127
37923,note_on,0,0,0,,4,,,64,127
38164,note_off,241,0,0,,4,,,76,127
38185,note_on,21,0,0,,4,,,76,127
38426,note_off,241,0,0,,4,,,76,127
38427,note_on,1,0,0,,5,,,77,127
38507,note_off,80,0,0,,5,,,77,127
38508,note_on,1,0,0,,4,,,76,127
38588,note_off,80,0,0,,4,,,76,127
38589,note_on,1,0,0,,2,,,74,127
38612,note_off,23,0,0,,4,,,64,127
38649,note_off,37,0,0,,8,,,68,127
38669,note_off,20,0,0,,2,,,74,127
38670,note_on,1,0,0,,10,,,69,127
38670,note_on,0,0,0,,0,,,72,127
38911,note_off,241,0,0,,0,,,72,127
38911,note_off,0,0,0,,10,,,69,127
38912,note_on,1,0,0,,8,,,68,127
38912,note_on,0,0,0,,12,,,71,127
39153,note_off,241,0,0,,12,,,71,127
39153,note_off,0,0,0,,8,,,68,127
39154,note_on,1,0,0,,10,,,69,127
39154,note_on,0,0,0,,4,,,76,127
39154,note_on,0,0,0,,0,,,72,127
39395,note_off,241,0,0,,0,,,72,127
39395,note_off,0,0,0,,10,,,69,127
39396,note_on,1,0,0,,8,,,68,127
39396,note_on,0,0,0,,12,,,71,127
39637,note_off,241,0,0,,12,,,71,127
39637,note_off,0,0,0,,8,,,68,127
39637,note_off,0,0,0,,4,,,76,127
39638,note_on,1,0,0,,5,,,65,127
39638,note_on,0,0,0,,10,,,69,127
39638,note_on,0,0,0,,2,,,74,127
39879,note_off,241,0,0,,2,,,74,127
39879,note_off,0,0,0,,10,,,69,127
39879,note_off,0,0,0,,5,,,65,127
39880,note_on,1,0,0,,4,,,64,127
39880,note_on,0,0,0,,8,,,68,127
39880,note_on,0,0,0,,4,,,76,127
40121,note_off,241,0,0,,4,,,76,127
40142,note_on,21,0,0,,4,,,76,127
40383,note_off,241,0,0,,4,,,76,127
40384,note_on,1,0,0,,5,,,77,127
40464,note_off,80,0,0,,5,,,77,127
40465,note_on,1,0,0,,4,,,76,127
40545,note_off,80,0,0,,4,,,76,127
40546,note_on,1,0,0,,2,,,74,127
40569,note_off,23,0,0,,4,,,64,127
40606,note_off,37,0,0,,8,,,68,127
40626,note_off,20,0,0,,2,,,74,127
40627,note_on,1,0,0,,12,,,71,127
40627,note_on,0,0,0,,8,,,80,127
40627,note_on,0,0,0,,2,,,62,127
40868,note_off,241,0,0,,2,,,62,127
40868,note_off,0,0,0,,8,,,80,127
40868,note_off,0,0,0,,12,,,71,127
40869,note_on,1,0,0,,10,,,69,127
40869,note_on,0,0,0,,0,,,72,127
40869,note_on,0,0,0,,10,,,81,127
40869,note_on,0,0,0,,0,,,60,127
41110,note_off,241,0,0,,0,,,60,127
41110,note_off,0,0,0,,0,,,72,127
41111,note_on,1,0,0,,2,,,74,127
41111,note_on,0,0,0,,2,,,62,127
41352,note_off,241,0,0,,2,,,62,127
41352,note_off,0,0,0,,2,,,74,127
41353,note_on,1,0,0,,0,,,72,127
41353,note_on,0,0,0,,0,,,60,127
41594,note_off,241,0,0,,0,,,60,127
41594,note_off,0,0,0,,0,,,72,127
41594,note_off,0,0,0,,10,,,81,127
41594,note_off,0,0,0,,10,,,69,127
41595,note_on,1,0,0,,12,,,83,127
41595,note_on,0,0,0,,2,,,74,127
41595,note_on,0,0,0,,8,,,68,127
41595,note_on,0,0,0,,12,,,59,127
41836,note_off,241,0,0,,12,,,59,127
41836,note_off,0,0,0,,8,,,68,127
41836,note_off,0,0,0,,2,,,74,127
41836,note_off,0,0,0,,12,,,83,127
41837,note_on,1,0,0,,0,,,84,127
41837,note_on,0,0,0,,10,,,57,127
41837,note_on,0,0,0,,10,,,69,127
42078,note_off,241,0,0,,0,,,84,127
42099,note_on,21,0,0,,4,,,76,127
42340,note_off,241,0,0,,4,,,76,127
42341,note_on,1,0,0,,5,,,77,127
42421,note_off,80,0,0,,5,,,77,127
42422,note_on,1,0,0,,4,,,76,127
42502,note_off,80,0,0,,4,,,76,127
42503,note_on,1,0,0,,2,,,74,127
42526,note_off,23,0,0,,10,,,69,127
42526,note_off,0,0,0,,10,,,57,127
42583,note_off,57,0,0,,2,,,74,127
42584,note_on,1,0,0,,2,,,62,127
42584,note_on,0,0,0,,12,,,71,127
42584,note_on,0,0,0,,8,,,80,127
42825,note_off,241,0,0,,8,,,80,127
42825,note_off,0,0,0,,12,,,71,127
42825,note_off,0,0,0,,2,,,62,127
42826,note_on,1,0,0,,0,,,60,127
42826,note_on,0,0,0,,4,,,76,127
42826,note_on,0,0,0,,10,,,69,127
42826,note_on,0,0,0,,10,,,81,127
43067,note_off,241,0,0,,4,,,76,127
43067,note_off,0,0,0,,0,,,60,127
43068,note_on,1,0,0,,2,,,62,127
43068,note_on,0,0,0,,5,,,77,127
43309,note_off,241,0,0,,5,,,77,127
43309,note_off,0,0,0,,2,,,62,127
43310,note_on,1,0,0,,0,,,60,127
43310,note_on,0,0,0,,4,,,76,127
43551,note_off,241,0,0,,4,,,76,127
43551,note_off,0,0,0,,0,,,60,127
43551,note_off,0,0,0,,10,,,81,127
43551,note_off,0,0,0,,10,,,69,127
43552,note_on,1,0,0,,8,,,68,127
43552,note_on,0,0,0,,12,,,59,127
43552,note_on,0,0,0,,12,,,83,127
43552,note_on,0,0,0,,2,,,74,127
43793,note_off,241,0,0,,2,,,74,127
43793,note_off,0,0,0,,12,,,83,127
43793,note_off,0,0,0,,12,,,59,127
43793,note_off,0,0,0,,8,,,68,127
43794,note_on,1,0,0,,10,,,69,127
43794,note_on,0,0,0,,10,,,57,127
43794,note_on,0,0,0,,0,,,84,127
43794,note_on,0,0,0,,4,,,76,127
44035,note_off,241,0,0,,4,,,76,127
44035,note_off,0,0,0,,0,,,84,127
44056,note_on,21,0,0,,10,,,81,127
44297,note_off,241,0,0,,10,,,81,127
44298,note_on,1,0,0,,0,,,84,127
44378,note_off,80,0,0,,0,,,84,127
44379,note_on,1,0,0,,12,,,83,127
44459,note_off,80,0,0,,12,,,83,127
44460,note_on,1,0,0,,10,,,81,127
44483,note_off,23,0,0,,10,,,57,127
44483,note_off,0,0,0,,10,,,69,127
44540,note_off,57,0,0,,10,,,81,127
44541,note_on,1,0,0,,7,,,79,127
44541,note_on,0,0,0,,12,,,71,127
44782,note_off,241,0,0,,12,,,71,127
44782,note_off,0,0,0,,7,,,79,127
44783,note_on,1,0,0,,6,,,78,127
44783,note_on,0,0,0,,10,,,69,127
44783,note_on,0,0,0,,0,,,72,127
45024,note_off,241,0,0,,0,,,72,127
45024,note_off,0,0,0,,10,,,69,127
45024,note_off,0,0,0,,6,,,78,127
45025,note_on,1,0,0,,4,,,76,127
45025,note_on,0,0,0,,7,,,67,127
45025,note_on,0,0,0,,12,,,71,127
45266,note_off,241,0,0,,12,,,71,127
45266,note_off,0,0,0,,7,,,67,127
45266,note_off,0,0,0,,4,,,76,127
45267,note_on,1,0,0,,3,,,75,127
45267,note_on,0,0,0,,6,,,66,127
45267,note_on,0,0,0,,10,,,69,127
45508,note_off,241,0,0,,6,,,66,127
45508,note_off,0,0,0,,3,,,75,127
45509,note_on,1,0,0,,10,,,81,127
45509,note_on,0,0,0,,0,,,72,127
45509,note_on,0,0,0,,4,,,64,127
45750,note_off,241,0,0,,4,,,64,127
45750,note_off,0,0,0,,0,,,72,127
45750,note_off,0,0,0,,10,,,69,127
45751,note_on,1,0,0,,12,,,71,127
45751,note_on,0,0,0,,3,,,63,127
45751,note_on,0,0,0,,10,,,69,127
45992,note_off,241,0,0,,10,,,81,127
46013,note_on,21,0,0,,12,,,83,127
46234,note_off,221,0,0,,12,,,71,127
46254,note_off,20,0,0,,12,,,83,127
46255,note_on,1,0,0,,0,,,84,127
46335,note_off,80,0,0,,0,,,84,127
46336,note_on,1,0,0,,12,,,83,127
46416,note_off,80,0,0,,12,,,83,127
46417,note_on,1,0,0,,10,,,81,127
46440,note_off,23,0,0,,10,,,69,127
46440,note_off,0,0,0,,3,,,63,127
46497,note_off,57,0,0,,10,,,81,127
46498,note_on,1,0,0,,12,,,71,127
46498,note_on,0,0,0,,7,,,79,127
46739,note_off,241,0,0,,7,,,79,127
46739,note_off,0,0,0,,12,,,71,127
46740,note_on,1,0,0,,0,,,72,127
46740,note_on,0,0,0,,10,,,69,127
46740,note_on,0,0,0,,6,,,78,127
46981,note_off,241,0,0,,6,,,78,127
46981,note_off,0,0,0,,10,,,69,127
46981,note_off,0,0,0,,0,,,72,127
46982,note_on,1,0,0,,12,,,71,127
46982,note_on,0,0,0,,7,,,67,127
46982,note_on,0,0,0,,4,,,76,127
47223,note_off,241,0,0,,4,,,76,127
47223,note_off,0,0,0,,7,,,67,127
47223,note_off,0,0,0,,12,,,71,127
47224,note_on,1,0,0,,10,,,69,127
47224,note_on,0,0,0,,6,,,66,127
47224,note_on,0,0,0,,3,,,75,127
47465,note_off,241,0,0,,3,,,75,127
47465,note_off,0,0,0,,6,,,66,127
47466,note_on,1,0,0,,4,,,64,127
47466,note_on,0,0,0,,10,,,81,127
47466,note_on,0,0,0,,0,,,72,127
47707,note_off,241,0,0,,0,,,72,127
47707,note_off,0,0,0,,4,,,64,127
47707,note_off,0,0,0,,10,,,69,127
47708,note_on,1,0,0,,3,,,63,127
47708,note_on,0,0,0,,10,,,69,127
47708,note_on,0,0,0,,12,,,71,127
47949,note_off,241,0,0,,3,,,63,127
47949,note_off,0,0,0,,10,,,81,127
47950,note_on,1,0,0,,0,,,60,127
47950,note_on,0,0,0,,4,,,76,127
48191,note_off,241,0,0,,4,,,76,127
48191,note_off,0,0,0,,0,,,60,127
48191,note_off,0,0,0,,12,,,71,127
48191,note_off,0,0,0,,10,,,69,127
48192,note_on,1,0,0,,12,,,59,127
48192,note_on,0,0,0,,10,,,69,127
48192,note_on,0,0,0,,10,,,81,127
48192,note_on,0,0,0,,3,,,75,127
48433,note_off,241,0,0,,3,,,75,127
48433,note_off,0,0,0,,12,,,59,127
48434,note_on,1,0,0,,0,,,60,127
48434,note_on,0,0,0,,4,,,76,127
48675,note_off,241,0,0,,4,,,76,127
48675,note_off,0,0,0,,0,,,60,127
48675,note_off,0,0,0,,10,,,81,127
48675,note_off,0,0,0,,10,,,69,127
48676,note_on,1,0,0,,12,,,59,127
48676,note_on,0,0,0,,10,,,69,127
48676,note_on,0,0,0,,10,,,81,127
48676,note_on,0,0,0,,3,,,75,127
48917,note_off,241,0,0,,3,,,75,127
48917,note_off,0,0,0,,10,,,81,127
48918,note_on,1,0,0,,10,,,81,127
48918,note_on,0,0,0,,6,,,78,127
49159,note_off,241,0,0,,6,,,78,127
49159,note_off,0,0,0,,10,,,81,127
49159,note_off,0,0,0,,12,,,59,127
49160,note_on,1,0,0,,12,,,59,127
49160,note_on,0,0,0,,7,,,79,127
49160,note_on,0,0,0,,4,,,76,127
49401,note_off,241,0,0,,4,,,76,127
49401,note_off,0,0,0,,7,,,79,127
49401,note_off,0,0,0,,10,,,69,127
49402,note_on,1,0,0,,6,,,66,127
49402,note_on,0,0,0,,10,,,69,127
49402,note_on,0,0,0,,3,,,75,127
49402,note_on,0,0,0,,6,,,78,127
49643,note_off,241,0,0,,6,,,78,127
49643,note_off,0,0,0,,3,,,75,127
49643,note_off,0,0,0,,10,,,69,127
49643,note_off,0,0,0,,6,,,66,127
49643,note_off,0,0,0,,12,,,59,127
49654,note_on,11,0,0,,7,,,67,127
49654,note_on,0,0,0,,4,,,64,127
49654,note_on,0,0,0,,12,,,59,127
49654,note_on,0,0,0,,4,,,76,127
49654,note_on,0,0,0,,7,,,79,127
49734,note_off,80,0,0,,7,,,79,127
49735,note_on,1,0,0,,6,,,78,127
49815,note_off,80,0,0,,6,,,78,127
49816,note_on,1,0,0,,7,,,79,127
49896,note_off,80,0,0,,7,,,79,127
49896,note_off,0,0,0,,4,,,76,127
49896,note_off,0,0,0,,4,,,64,127
49896,note_off,0,0,0,,7,,,67,127
49897,note_on,1,0,0,,6,,,66,127
49897,note_on,0,0,0,,3,,,63,127
49897,note_on,0,0,0,,10,,,81,127
49897,note_on,0,0,0,,6,,,78,127
50138,note_off,241,0,0,,6,,,78,127
50138,note_off,0,0,0,,10,,,81,127
50138,note_off,0,0,0,,3,,,63,127
50138,note_off,0,0,0,,6,,,66,127
50138,note_off,0,0,0,,12,,,59,127
50139,note_on,1,0,0,,7,,,67,127
50139,note_on,0,0,0,,4,,,64,127
50139,note_on,0,0,0,,12,,,59,127
50139,note_on,0,0,0,,4,,,76,127
50139,note_on,0,0,0,,7,,,79,127
50380,note_off,241,0,0,,7,,,79,127
50380,note_off,0,0,0,,4,,,76,127
50380,note_off,0,0,0,,4,,,64,127
50380,note_off,0,0,0,,7,,,67,127
50381,note_on,1,0,0,,6,,,66,127
50381,note_on,0,0,0,,10,,,69,127
50381,note_on,0,0,0,,6,,,78,127
50381,note_on,0,0,0,,3,,,75,127
50622,note_off,241,0,0,,3,,,75,127
50622,note_off,0,0,0,,6,,,78,127
50622,note_off,0,0,0,,10,,,69,127
50622,note_off,0,0,0,,6,,,66,127
50622,note_off,0,0,0,,12,,,59,127
50623,note_on,1,0,0,,12,,,59,127
50623,note_on,0,0,0,,7,,,67,127
50623,note_on,0,0,0,,4,,,64,127
50623,note_on,0,0,0,,7,,,79,127
50623,note_on,0,0,0,,4,,,76,127
50703,note_off,80,0,0,,7,,,79,127
50704,note_on,1,0,0,,6,,,78,127
50784,note_off,80,0,0,,6,,,78,127
50785,note_on,1,0,0,,7,,,79,127
50865,note_off,80,0,0,,7,,,79,127
50865,note_off,0,0,0,,4,,,76,127
50865,note_off,0,0,0,,4,,,64,127
50865,note_off,0,0,0,,7,,,67,127
50866,note_on,1,0,0,,6,,,66,127
50866,note_on,0,0,0,,3,,,63,127
50866,note_on,0,0,0,,6,,,78,127
50866,note_on,0,0,0,,10,,,81,127
51107,note_off,241,0,0,,10,,,81,127
51107,note_off,0,0,0,,6,,,78,127
51107,note_off,0,0,0,,3,,,63,127
51107,note_off,0,0,0,,6,,,66,127
51107,note_off,0,0,0,,12,,,59,127
51108,note_on,1,0,0,,12,,,59,127
51108,note_on,0,0,0,,7,,,67,127
51108,note_on,0,0,0,,4,,,64,127
51108,note_on,0,0,0,,4,,,76,127
51108,note_on,0,0,0,,7,,,79,127
51349,note_off,241,0,0,,7,,,79,127
51349,note_off,0,0,0,,4,,,76,127
51349,note_off,0,0,0,,4,,,64,127
51349,note_off,0,0,0,,7,,,67,127
51350,note_on,1,0,0,,6,,,66,127
51350,note_on,0,0,0,,10,,,69,127
51350,note_on,0,0,0,,3,,,75,127
51350,note_on,0,0,0,,6,,,78,127
51591,note_off,241,0,0,,6,,,78,127
51591,note_off,0,0,0,,3,,,75,127
51591,note_off,0,0,0,,10,,,69,127
51591,note_off,0,0,0,,6,,,66,127
51591,note_off,0,0,0,,12,,,59,127
51592,note_on,1,0,0,,7,,,67,127
51592,note_on,0,0,0,,4,,,64,127
51592,note_on,0,0,0,,4,,,76,127
51592,note_on,0,0,0,,7,,,79,127
51833,note_off,241,0,0,,7,,,79,127
51833,note_off,0,0,0,,4,,,76,127
51834,note_on,1,0,0,,7,,,79,127
51834,note_on,0,0,0,,4,,,76,127
52075,note_off,241,0,0,,4,,,76,127
52075,note_off,0,0,0,,7,,,79,127
52076,note_on,1,0,0,,2,,,74,127
52076,note_on,0,0,0,,5,,,77,127
52281,note_off,205,0,0,,4,,,64,127
52281,note_off,0,0,0,,7,,,67,127
52318,note_off,37,0,0,,5,,,77,127
52318,note_off,0,0,0,,2,,,74,127
52319,note_on,1,0,0,,4,,,64,127
52319,note_on,0,0,0,,10,,,57,127
52319,note_on,0,0,0,,7,,,67,127
52319,note_on,0,0,0,,4,,,76,127
52319,note_on,0,0,0,,1,,,73,127
52560,note_off,241,0,0,,1,,,73,127
52560,note_off,0,0,0,,4,,,76,127
52560,note_off,0,0,0,,7,,,67,127
52560,note_off,0,0,0,,10,,,57,127
52560,note_off,0,0,0,,4,,,64,127
52571,note_on,11,0,0,,10,,,57,127
52571,note_on,0,0,0,,2,,,62,127
52571,note_on,0,0,0,,5,,,65,127
52571,note_on,0,0,0,,2,,,74,127
52571,note_on,0,0,0,,5,,,77,127
52651,note_off,80,0,0,,5,,,77,127
52652,note_on,1,0,0,,4,,,76,127
52732,note_off,80,0,0,,4,,,76,127
52733,note_on,1,0,0,,5,,,77,127
52813,note_off,80,0,0,,5,,,77,127
52813,note_off,0,0,0,,2,,,74,127
52813,note_off,0,0,0,,5,,,65,127
52813,note_off,0,0,0,,2,,,62,127
52814,note_on,1,0,0,,4,,,64,127
52814,note_on,0,0,0,,1,,,61,127
52814,note_on,0,0,0,,4,,,76,127
52814,note_on,0,0,0,,7,,,79,127
53055,note_off,241,0,0,,7,,,79,127
53055,note_off,0,0,0,,4,,,76,127
53055,note_off,0,0,0,,1,,,61,127
53055,note_off,0,0,0,,4,,,64,127
53055,note_off,0,0,0,,10,,,57,127
53056,note_on,1,0,0,,10,,,57,127
53056,note_on,0,0,0,,5,,,65,127
53056,note_on,0,0,0,,2,,,62,127
53056,note_on,0,0,0,,5,,,77,127
53056,note_on,0,0,0,,2,,,74,127
53297,note_off,241,0,0,,2,,,74,127
53297,note_off,0,0,0,,5,,,77,127
53297,note_off,0,0,0,,2,,,62,127
53297,note_off,0,0,0,,5,,,65,127
53298,note_on,1,0,0,,7,,,67,127
53298,note_on,0,0,0,,4,,,64,127
53298,note_on,0,0,0,,4,,,76,127
53298,note_on,0,0,0,,1,,,73,127
53539,note_off,241,0,0,,1,,,73,127
53539,note_off,0,0,0,,4,,,76,127
53539,note_off,0,0,0,,4,,,64,127
53539,note_off,0,0,0,,7,,,67,127
53539,note_off,0,0,0,,10,,,57,127
53540,note_on,1,0,0,,10,,,57,127
53540,note_on,0,0,0,,5,,,65,127
53540,note_on,0,0,0,,2,,,62,127
53540,note_on,0,0,0,,2,,,74,127
53540,note_on,0,0,0,,5,,,77,127
53620,note_off,80,0,0,,5,,,77,127
53621,note_on,1,0,0,,4,,,76,127
53701,note_off,80,0,0,,4,,,76,127
53702,note_on,1,0,0,,5,,,77,127
53782,note_off,80,0,0,,5,,,77,127
53782,note_off,0,0,0,,2,,,74,127
53782,note_off,0,0,0,,2,,,62,127
53782,note_off,0,0,0,,5,,,65,127
53783,note_on,1,0,0,,4,,,64,127
53783,note_on,0,0,0,,1,,,61,127
53783,note_on,0,0,0,,7,,,79,127
53783,note_on,0,0,0,,4,,,76,127
54024,note_off,241,0,0,,4,,,76,127
54024,note_off,0,0,0,,7,,,79,127
54024,note_off,0,0,0,,1,,,61,127
54024,note_off,0,0,0,,4,,,64,127
54024,note_off,0,0,0,,10,,,57,127
54025,note_on,1,0,0,,5,,,65,127
54025,note_on,0,0,0,,2,,,62,127
54025,note_on,0,0,0,,10,,,57,127
54025,note_on,0,0,0,,5,,,77,127
54025,note_on,0,0,0,,2,,,74,127
54266,note_off,241,0,0,,2,,,74,127
54266,note_off,0,0,0,,5,,,77,127
54266,note_off,0,0,0,,2,,,62,127
54266,note_off,0,0,0,,5,,,65,127
54267,note_on,1,0,0,,4,,,64,127
54267,note_on,0,0,0,,7,,,67,127
54267,note_on,0,0,0,,1,,,73,127
54267,note_on,0,0,0,,4,,,76,127
54508,note_off,241,0,0,,4,,,76,127
54508,note_off,0,0,0,,1,,,73,127
54508,note_off,0,0,0,,7,,,67,127
54508,note_off,0,0,0,,4,,,64,127
54508,note_off,0,0,0,,10,,,57,127
54509,note_on,1,0,0,,2,,,62,127
54509,note_on,0,0,0,,5,,,65,127
54509,note_on,0,0,0,,5,,,77,127
54509,note_on,0,0,0,,2,,,74,127
54750,note_off,241,0,0,,2,,,74,127
54750,note_off,0,0,0,,5,,,77,127
54751,note_on,1,0,0,,5,,,77,127
54751,note_on,0,0,0,,2,,,74,127
54992,note_off,241,0,0,,2,,,74,127
54992,note_off,0,0,0,,5,,,77,127
54993,note_on,1,0,0,,4,,,76,127
54993,note_on,0,0,0,,0,,,72,127
55198,note_off,205,0,0,,5,,,65,127
55198,note_off,0,0,0,,2,,,62,127
55235,note_off,37,0,0,,0,,,72,127
55235,note_off,0,0,0,,4,,,76,127
55236,note_on,1,0,0,,7,,,55,127
55236,note_on,0,0,0,,2,,,62,127
55236,note_on,0,0,0,,5,,,65,127
55236,note_on,0,0,0,,12,,,71,127
55236,note_on,0,0,0,,2,,,74,127
55477,note_off,241,0,0,,2,,,74,127
55477,note_off,0,0,0,,12,,,71,127
55477,note_off,0,0,0,,5,,,65,127
55477,note_off,0,0,0,,2,,,62,127
55477,note_off,0,0,0,,7,,,55,127
55488,note_on,11,0,0,,0,,,60,127
55488,note_on,0,0,0,,7,,,55,127
55488,note_on,0,0,0,,4,,,64,127
55488,note_on,0,0,0,,4,,,76,127
55488,note_on,0,0,0,,0,,,72,127
55568,note_off,80,0,0,,4,,,76,127
55569,note_on,1,0,0,,2,,,74,127
55649,note_off,80,0,0,,2,,,74,127
55650,note_on,1,0,0,,4,,,76,127
55730,note_off,80,0,0,,4,,,76,127
55730,note_off,0,0,0,,0,,,72,127
55730,note_off,0,0,0,,4,,,64,127
55730,note_off,0,0,0,,0,,,60,127
55731,note_on,1,0,0,,2,,,62,127
55731,note_on,0,0,0,,12,,,59,127
55731,note_on,0,0,0,,5,,,77,127
55731,note_on,0,0,0,,2,,,74,127
55972,note_off,241,0,0,,2,,,74,127
55972,note_off,0,0,0,,5,,,77,127
55972,note_off,0,0,0,,12,,,59,127
55972,note_off,0,0,0,,2,,,62,127
55972,note_off,0,0,0,,7,,,55,127
55973,note_on,1,0,0,,7,,,55,127
55973,note_on,0,0,0,,4,,,64,127
55973,note_on,0,0,0,,0,,,60,127
55973,note_on,0,0,0,,4,,,76,127
55973,note_on,0,0,0,,0,,,72,127
56214,note_off,241,0,0,,0,,,72,127
56214,note_off,0,0,0,,4,,,76,127
56214,note_off,0,0,0,,0,,,60,127
56214,note_off,0,0,0,,4,,,64,127
56215,note_on,1,0,0,,2,,,62,127
56215,note_on,0,0,0,,5,,,65,127
56215,note_on,0,0,0,,2,,,74,127
56215,note_on,0,0,0,,12,,,71,127
56456,note_off,241,0,0,,12,,,71,127
56456,note_off,0,0,0,,2,,,74,127
56456,note_off,0,0,0,,5,,,65,127
56456,note_off,0,0,0,,2,,,62,127
56456,note_off,0,0,0,,7,,,55,127
56457,note_on,1,0,0,,7,,,55,127
56457,note_on,0,0,0,,4,,,64,127
56457,note_on,0,0,0,,0,,,60,127
56457,note_on,0,0,0,,4,,,76,127
56457,note_on,0,0,0,,0,,,72,127
56537,note_off,80,0,0,,4,,,76,127
56538,note_on,1,0,0,,2,,,74,127
56618,note_off,80,0,0,,2,,,74,127
56619,note_on,1,0,0,,4,,,76,127
56699,note_off,80,0,0,,4,,,76,127
56699,note_off,0,0,0,,0,,,72,127
56699,note_off,0,0,0,,0,,,60,127
56699,note_off,0,0,0,,4,,,64,127
56700,note_on,1,0,0,,12,,,59,127
56700,note_on,0,0,0,,2,,,62,127
56700,note_on,0,0,0,,5,,,77,127
56700,note_on,0,0,0,,2,,,74,127
56941,note_off,241,0,0,,2,,,74,127
56941,note_off,0,0,0,,5,,,77,127
56941,note_off,0,0,0,,2,,,62,127
56941,note_off,0,0,0,,12,,,59,127
56941,note_off,0,0,0,,7,,,55,127
56942,note_on,1,0,0,,4,,,64,127
56942,note_on,0,0,0,,0,,,60,127
56942,note_on,0,0,0,,7,,,55,127
56942,note_on,0,0,0,,4,,,76,127
56942,note_on,0,0,0,,0,,,72,127
57183,note_off,241,0,0,,0,,,72,127
57183,note_off,0,0,0,,4,,,76,127
57183,note_off,0,0,0,,0,,,60,127
57183,note_off,0,0,0,,4,,,64,127
57184,note_on,1,0,0,,5,,,65,127
57184,note_on,0,0,0,,2,,,62,127
57184,note_on,0,0,0,,2,,,74,127
57184,note_on,0,0,0,,12,,,71,127
57425,note_off,241,0,0,,12,,,71,127
57425,note_off,0,0,0,,2,,,74,127
57425,note_off,0,0,0,,2,,,62,127
57425,note_off,0,0,0,,5,,,65,127
57425,note_off,0,0,0,,7,,,55,127
57426,note_on,1,0,0,,0,,,60,127
57426,note_on,0,0,0,,4,,,64,127
57426,note_on,0,0,0,,0,,,72,127
57426,note_on,0,0,0,,4,,,76,127
57506,note_off,80,0,0,,4,,,76,127
57506,note_off,0,0,0,,0,,,72,127
57507,note_on,1,0,0,,10,,,81,127
57587,note_off,80,0,0,,10,,,81,127
57588,note_on,1,0,0,,7,,,79,127
57668,note_off,80,0,0,,7,,,79,127
57669,note_on,1,0,0,,5,,,77,127
57749,note_off,80,0,0,,5,,,77,127
57750,note_on,1,0,0,,4,,,76,127
57830,note_off,80,0,0,,4,,,76,127
57831,note_on,1,0,0,,2,,,74,127
57911,note_off,80,0,0,,2,,,74,127
57911,note_off,0,0,0,,4,,,64,127
57911,note_off,0,0,0,,0,,,60,127
57912,note_on,1,0,0,,0,,,72,127
57992,note_off,80,0,0,,0,,,72,127
57993,note_on,1,0,0,,4,,,76,127
58073,note_off,80,0,0,,4,,,76,127
58074,note_on,1,0,0,,2,,,74,127
58154,note_off,80,0,0,,2,,,74,127
58155,note_on,1,0,0,,0,,,72,127
58235,note_off,80,0,0,,0,,,72,127
58236,note_on,1,0,0,,12,,,71,127
58316,note_off,80,0,0,,12,,,71,127
58317,note_on,1,0,0,,10,,,69,127
58397,note_off,80,0,0,,10,,,69,127
58398,note_on,1,0,0,,7,,,67,127
58478,note_off,80,0,0,,7,,,67,127
58479,note_on,1,0,0,,4,,,64,127
58559,note_off,80,0,0,,4,,,64,127
58560,note_on,1,0,0,,10,,,69,127
58640,note_off,80,0,0,,10,,,69,127
58641,note_on,1,0,0,,0,,,60,127
58641,note_on,0,0,0,,4,,,64,127
58641,note_on,0,0,0,,7,,,67,127
58882,note_off,241,0,0,,4,,,64,127
58882,note_off,0,0,0,,0,,,60,127
58883,note_on,1,0,0,,12,,,59,127
58883,note_on,0,0,0,,2,,,62,127
59124,note_off,241,0,0,,2,,,62,127
59124,note_off,0,0,0,,12,,,59,127
59125,note_on,1,0,0,,7,,,55,127
59366,note_off,241,0,0,,7,,,67,127
59367,note_on,1,0,0,,7,,,67,127
59447,note_off,80,0,0,,7,,,67,127
59448,note_on,1,0,0,,4,,,64,127
59488,note_off,40,0,0,,7,,,55,127
59527,note_off,39,0,0,,4,,,64,127
59528,note_on,1,0,0,,0,,,72,127
59608,note_off,80,0,0,,0,,,72,127
59609,note_on,1,0,0,,0,,,60,127
59609,note_on,0,0,0,,4,,,64,127
59609,note_on,0,0,0,,7,,,67,127
59850,note_off,241,0,0,,4,,,64,127
59850,note_off,0,0,0,,0,,,60,127
59851,note_on,1,0,0,,2,,,62,127
59851,note_on,0,0,0,,12,,,59,127
60092,note_off,241,0,0,,12,,,59,127
60092,note_off,0,0,0,,2,,,62,127
60093,note_on,1,0,0,,7,,,55,127
60334,note_off,241,0,0,,7,,,67,127
60335,note_on,1,0,0,,7,,,67,127
60415,note_off,80,0,0,,7,,,67,127
60416,note_on,1,0,0,,4,,,64,127
60456,note_off,40,0,0,,7,,,55,127
60495,note_off,39,0,0,,4,,,64,127
60496,note_on,1,0,0,,4,,,76,127
60576,note_off,80,0,0,,4,,,76,127
60577,note_on,1,0,0,,4,,,64,127
60577,note_on,0,0,0,,0,,,60,127
60577,note_on,0,0,0,,7,,,67,127
60818,note_off,241,0,0,,0,,,60,127
60818,note_off,0,0,0,,4,,,64,127
60819,note_on,1,0,0,,2,,,62,127
60819,note_on,0,0,0,,12,,,59,127
61060,note_off,241,0,0,,12,,,59,127
61060,note_off,0,0,0,,2,,,62,127
61061,note_on,1,0,0,,7,,,55,127
61302,note_off,241,0,0,,7,,,55,127
61303,note_on,1,0,0,,4,,,52,127
61383,note_off,80,0,0,,7,,,67,127
61384,note_on,1,0,0,,5,,,65,127
61464,note_off,80,0,0,,5,,,65,127
61465,note_on,1,0,0,,7,,,67,127
61545,note_off,80,0,0,,7,,,67,127
61545,note_off,0,0,0,,4,,,52,127
61546,note_on,1,0,0,,5,,,53,127
61546,note_on,0,0,0,,10,,,69,127
61626,note_off,80,0,0,,10,,,69,127
61627,note_on,1,0,0,,7,,,67,127
61707,note_off,80,0,0,,7,,,67,127
61708,note_on,1,0,0,,10,,,69,127
61788,note_off,80,0,0,,10,,,69,127
61788,note_off,0,0,0,,5,,,53,127
61789,note_on,1,0,0,,7,,,55,127
61789,note_on,0,0,0,,4,,,76,127
61848,note_off,59,0,0,,4,,,76,127
61849,note_on,1,0,0,,2,,,74,127
61908,note_off,59,0,0,,2,,,74,127
61909,note_on,1,0,0,,4,,,76,127
61968,note_off,59,0,0,,4,,,76,127
61969,note_on,1,0,0,,2,,,74,127
62028,note_off,59,0,0,,2,,,74,127
62029,note_on,1,0,0,,7,,,43,127
62029,note_on,0,0,0,,4,,,76,127
62088,note_off,59,0,0,,4,,,76,127
62089,note_on,1,0,0,,2,,,74,127
62148,note_off,59,0,0,,2,,,74,127
62149,note_on,1,0,0,,0,,,72,127
62208,note_off,59,0,0,,0,,,72,127
62209,note_on,1,0,0,,2,,,74,127
62268,note_off,59,0,0,,2,,,74,127
62310,note_on,42,0,0,,7,,,79,127
62390,note_off,80,0,0,,7,,,79,127
62391,note_off,1,0,0,,7,,,43,127
62391,note_off,0,0,0,,7,,,55,127
62391,note_on,0,0,0,,4,,,76,127
62471,note_off,80,0,0,,4,,,76,127
62472,note_on,1,0,0,,10,,,81,127
62552,note_off,80,0,0,,10,,,81,127
62553,note_on,1,0,0,,4,,,64,127
62553,note_on,0,0,0,,0,,,60,127
62553,note_on,0,0,0,,7,,,67,127
62553,note_on,0,0,0,,7,,,79,127
62794,note_off,241,0,0,,7,,,67,127
62794,note_off,0,0,0,,0,,,60,127
62794,note_off,0,0,0,,4,,,64,127
62795,note_on,1,0,0,,12,,,59,127
62795,note_on,0,0,0,,7,,,67,127
62795,note_on,0,0,0,,2,,,62,127
63036,note_off,241,0,0,,12,,,59,127
63037,note_on,1,0,0,,7,,,55,127
63278,note_off,241,0,0,,2,,,62,127
63278,note_off,0,0,0,,7,,,67,127
63278,note_off,0,0,0,,7,,,79,127
63279,note_on,1,0,0,,7,,,79,127
63359,note_off,80,0,0,,7,,,79,127
63360,note_on,1,0,0,,4,,,76,127
63400,note_off,40,0,0,,7,,,55,127
63439,note_off,39,0,0,,4,,,76,127
63440,note_on,1,0,0,,0,,,84,127
63520,note_off,80,0,0,,0,,,84,127
63521,note_on,1,0,0,,4,,,64,127
63521,note_on,0,0,0,,0,,,60,127
63521,note_on,0,0,0,,7,,,67,127
63521,note_on,0,0,0,,7,,,79,127
63762,note_off,241,0,0,,7,,,67,127
63762,note_off,0,0,0,,0,,,60,127
63762,note_off,0,0,0,,4,,,64,127
63763,note_on,1,0,0,,12,,,59,127
63763,note_on,0,0,0,,7,,,67,127
63763,note_on,0,0,0,,2,,,62,127
64004,note_off,241,0,0,,2,,,62,127
64004,note_off,0,0,0,,7,,,67,127
64004,note_off,0,0,0,,12,,,59,127
64005,note_on,1,0,0,,7,,,55,127
64246,note_off,241,0,0,,7,,,79,127
64247,note_on,1,0,0,,7,,,79,127
64327,note_off,80,0,0,,7,,,79,127
64328,note_on,1,0,0,,4,,,76,127
64368,note_off,40,0,0,,7,,,55,127
64407,note_off,39,0,0,,4,,,76,127
64408,note_on,1,0,0,,4,,,88,127
64488,note_off,80,0,0,,4,,,88,127
64489,note_on,1,0,0,,0,,,60,127
64489,note_on,0,0,0,,4,,,64,127
64489,note_on,0,0,0,,7,,,67,127
64489,note_on,0,0,0,,7,,,79,127
64730,note_off,241,0,0,,7,,,67,127
64730,note_off,0,0,0,,4,,,64,127
64730,note_off,0,0,0,,0,,,60,127
64731,note_on,1,0,0,,2,,,62,127
64731,note_on,0,0,0,,12,,,59,127
64731,note_on,0,0,0,,7,,,67,127
64972,note_off,241,0,0,,12,,,59,127
64973,note_on,1,0,0,,7,,,55,127
65214,note_off,241,0,0,,7,,,55,127
65214,note_off,0,0,0,,7,,,67,127
65214,note_off,0,0,0,,2,,,62,127
65215,note_on,1,0,0,,0,,,60,127
65215,note_on,0,0,0,,4,,,52,127
65295,note_off,80,0,0,,7,,,79,127
65296,note_on,1,0,0,,5,,,77,127
65376,note_off,80,0,0,,5,,,77,127
65377,note_on,1,0,0,,7,,,79,127
65457,note_off,80,0,0,,7,,,79,127
65457,note_off,0,0,0,,4,,,52,127
65457,note_off,0,0,0,,0,,,60,127
65458,note_on,1,0,0,,5,,,53,127
65458,note_on,0,0,0,,10,,,81,127
65538,note_off,80,0,0,,10,,,81,127
65539,note_on,1,0,0,,5,,,77,127
65619,note_off,80,0,0,,5,,,77,127
65620,note_on,1,0,0,,2,,,74,127
65700,note_off,80,0,0,,2,,,74,127
65700,note_off,0,0,0,,5,,,53,127
65701,note_on,1,0,0,,7,,,55,127
65701,note_on,0,0,0,,4,,,76,127
65942,note_off,241,0,0,,4,,,76,127
65943,note_on,1,0,0,,7,,,43,127
65943,note_on,0,0,0,,4,,,76,127
66002,note_off,59,0,0,,4,,,76,127
66003,note_on,1,0,0,,2,,,74,127
66062,note_off,59,0,0,,2,,,74,127
66063,note_on,1,0,0,,0,,,72,127
66122,note_off,59,0,0,,0,,,72,127
66123,note_on,1,0,0,,2,,,74,127
66182,note_off,59,0,0,,2,,,74,127
66182,note_off,0,0,0,,7,,,43,127
66182,note_off,0,0,0,,7,,,55,127
66183,note_on,1,0,0,,0,,,48,127
66183,note_on,0,0,0,,0,,,72,127
66424,note_off,241,0,0,,0,,,72,127
66424,note_off,0,0,0,,0,,,48,127
66445,note_on,21,0,0,,7,,,79,127
66445,note_on,0,0,0,,4,,,52,127
66445,note_on,0,0,0,,0,,,60,127
66686,note_off,241,0,0,,7,,,79,127
66687,note_on,1,0,0,,10,,,81,127
66746,note_off,59,0,0,,10,,,81,127
66747,note_on,1,0,0,,5,,,77,127
66806,note_off,59,0,0,,5,,,77,127
66807,note_off,1,0,0,,0,,,60,127
66807,note_off,0,0,0,,4,,,52,127
66807,note_on,0,0,0,,2,,,74,127
66928,note_on,121,0,0,,12,,,59,127
66928,note_on,0,0,0,,5,,,53,127
67169,note_off,241,0,0,,2,,,74,127
67170,note_on,1,0,0,,7,,,79,127
67229,note_off,59,0,0,,7,,,79,127
67230,note_on,1,0,0,,4,,,76,127
67289,note_off,59,0,0,,4,,,76,127
67290,note_off,1,0,0,,5,,,53,127
67290,note_off,0,0,0,,12,,,59,127
67290,note_on,0,0,0,,0,,,72,127
67411,note_on,121,0,0,,4,,,52,127
67411,note_on,0,0,0,,0,,,60,127
67652,note_off,241,0,0,,0,,,60,127
67652,note_off,0,0,0,,4,,,52,127
67652,note_off,0,0,0,,0,,,72,127
67653,note_on,1,0,0,,4,,,64,127
67653,note_on,0,0,0,,5,,,53,127
67712,note_off,59,0,0,,4,,,64,127
67713,note_on,1,0,0,,2,,,62,127
67772,note_off,59,0,0,,2,,,62,127
67773,note_on,1,0,0,,4,,,64,127
67832,note_off,59,0,0,,4,,,64,127
67833,note_on,1,0,0,,2,,,62,127
67892,note_off,59,0,0,,2,,,62,127
67892,note_off,0,0,0,,5,,,53,127
67893,note_on,1,0,0,,4,,,64,127
67893,note_on,0,0,0,,12,,,59,127
67893,note_on,0,0,0,,7,,,55,127
67952,note_off,59,0,0,,4,,,64,127
67953,note_on,1,0,0,,2,,,62,127
68012,note_off,59,0,0,,2,,,62,127
68013,note_on,1,0,0,,0,,,60,127
68072,note_off,59,0,0,,0,,,60,127
68073,note_on,1,0,0,,2,,,62,127
68132,note_off,59,0,0,,2,,,62,127
68132,note_off,0,0,0,,7,,,55,127
68132,note_off,0,0,0,,12,,,59,127
68133,note_on,1,0,0,,4,,,64,127
68133,note_on,0,0,0,,0,,,48,127
68374,note_off,241,0,0,,0,,,48,127
68374,note_off,0,0,0,,4,,,64,127
68375,note_on,1,0,0,,4,,,52,127
68375,note_on,0,0,0,,0,,,60,127
68375,note_on,0,0,0,,7,,,79,127
68616,note_off,241,0,0,,7,,,79,127
68617,note_on,1,0,0,,10,,,81,127
68676,note_off,59,0,0,,10,,,81,127
68677,note_on,1,0,0,,5,,,77,127
68736,note_off,59,0,0,,5,,,77,127
68737,note_off,1,0,0,,0,,,60,127
68737,note_off,0,0,0,,4,,,52,127
68737,note_on,0,0,0,,2,,,74,127
68858,note_on,121,0,0,,5,,,53,127
68858,note_on,0,0,0,,12,,,59,127
69099,note_off,241,0,0,,2,,,74,127
69100,note_on,1,0,0,,7,,,79,127
69159,note_off,59,0,0,,7,,,79,127
69160,note_on,1,0,0,,4,,,76,127
69219,note_off,59,0,0,,4,,,76,127
69220,note_off,1,0,0,,12,,,59,127
69220,note_off,0,0,0,,5,,,53,127
69220,note_on,0,0,0,,0,,,72,127
69341,note_on,121,0,0,,0,,,60,127
69341,note_on,0,0,0,,4,,,52,127
69582,note_off,241,0,0,,4,,,52,127
69582,note_off,0,0,0,,0,,,60,127
69582,note_off,0,0,0,,0,,,72,127
69583,note_on,1,0,0,,5,,,53,127
69583,note_on,0,0,0,,4,,,64,127
69642,note_off,59,0,0,,4,,,64,127
69643,note_on,1,0,0,,2,,,62,127
69702,note_off,59,0,0,,2,,,62,127
69703,note_on,1,0,0,,4,,,64,127
69762,note_off,59,0,0,,4,,,64,127
69763,note_on,1,0,0,,2,,,62,127
69822,note_off,59,0,0,,2,,,62,127
69822,note_off,0,0,0,,5,,,53,127
69823,note_on,1,0,0,,7,,,55,127
69823,note_on,0,0,0,,4,,,64,127
69882,note_off,59,0,0,,4,,,64,127
69883,note_on,1,0,0,,2,,,62,127
69942,note_off,59,0,0,,2,,,62,127
69943,note_on,1,0,0,,0,,,60,127
70002,note_off,59,0,0,,0,,,60,127
70003,note_on,1,0,0,,12,,,59,127
70062,note_off,59,0,0,,12,,,59,127
70062,note_off,0,0,0,,7,,,55,127
70063,note_on,1,0,0,,0,,,48,127
70063,note_on,0,0,0,,0,,,60,127
70304,note_off,241,0,0,,0,,,60,127
70304,note_off,0,0,0,,0,,,48,127
70325,note_on,21,0,0,,7,,,67,127
70325,note_on,0,0,0,,4,,,52,127
70325,note_on,0,0,0,,0,,,60,127
70566,note_off,241,0,0,,7,,,67,127
70567,note_on,1,0,0,,10,,,69,127
70647,note_off,80,0,0,,10,,,69,127
70648,note_on,1,0,0,,12,,,71,127
70688,note_off,40,0,0,,0,,,60,127
70688,note_off,0,0,0,,4,,,52,127
70727,note_off,39,0,0,,12,,,71,127
70728,note_on,1,0,0,,0,,,72,127
70808,note_off,80,0,0,,0,,,72,127
70809,note_on,1,0,0,,2,,,74,127
70809,note_on,0,0,0,,0,,,60,127
70809,note_on,0,0,0,,5,,,53,127
70889,note_off,80,0,0,,2,,,74,127
70890,note_on,1,0,0,,4,,,76,127
70970,note_off,80,0,0,,4,,,76,127
70971,note_on,1,0,0,,5,,,77,127
71051,note_off,80,0,0,,5,,,77,127
71052,note_on,1,0,0,,0,,,84,127
71173,note_off,121,0,0,,5,,,53,127
71173,note_off,0,0,0,,0,,,60,127
71293,note_off,120,0,0,,0,,,84,127
71294,note_on,1,0,0,,0,,,72,127
71294,note_on,0,0,0,,0,,,60,127
71294,note_on,0,0,0,,4,,,52,127
71535,note_off,241,0,0,,4,,,52,127
71535,note_off,0,0,0,,0,,,60,127
71535,note_off,0,0,0,,0,,,72,127
71536,note_on,1,0,0,,4,,,76,127
71536,note_on,0,0,0,,5,,,53,127
71595,note_off,59,0,0,,4,,,76,127
71596,note_on,1,0,0,,2,,,74,127
71655,note_off,59,0,0,,2,,,74,127
71656,note_on,1,0,0,,4,,,76,127
71715,note_off,59,0,0,,4,,,76,127
71716,note_on,1,0,0,,2,,,74,127
71775,note_off,59,0,0,,2,,,74,127
71775,note_off,0,0,0,,5,,,53,127
71776,note_on,1,0,0,,4,,,76,127
71776,note_on,0,0,0,,7,,,55,127
71776,note_on,0,0,0,,12,,,59,127
71835,note_off,59,0,0,,4,,,76,127
71836,note_on,1,0,0,,2,,,74,127
71895,note_off,59,0,0,,2,,,74,127
71896,note_on,1,0,0,,0,,,72,127
71955,note_off,59,0,0,,0,,,72,127
71956,note_on,1,0,0,,2,,,74,127
72015,note_off,59,0,0,,2,,,74,127
72016,note_on,1,0,0,,0,,,84,127
72137,note_off,121,0,0,,12,,,59,127
72137,note_off,0,0,0,,7,,,55,127
72257,note_off,120,0,0,,0,,,84,127
72278,note_on,21,0,0,,0,,,60,127
72278,note_on,0,0,0,,4,,,52,127
72278,note_on,0,0,0,,7,,,67,127
72519,note_off,241,0,0,,7,,,67,127
72519,note_off,0,0,0,,4,,,52,127
72519,note_off,0,0,0,,0,,,60,127
72520,note_on,1,0,0,,5,,,53,127
72520,note_on,0,0,0,,10,,,69,127
72600,note_off,80,0,0,,10,,,69,127
72601,note_on,1,0,0,,12,,,71,127
72681,note_off,80,0,0,,12,,,71,127
72682,note_on,1,0,0,,0,,,72,127
72762,note_off,80,0,0,,0,,,72,127
72762,note_off,0,0,0,,5,,,53,127
72763,note_on,1,0,0,,12,,,59,127
72763,note_on,0,0,0,,7,,,55,127
72763,note_on,0,0,0,,2,,,74,127
72843,note_off,80,0,0,,2,,,74,127
72844,note_on,1,0,0,,4,,,76,127
72924,note_off,80,0,0,,4,,,76,127
72925,note_on,1,0,0,,5,,,77,127
73005,note_off,80,0,0,,5,,,77,127
73006,note_on,1,0,0,,0,,,84,127
73127,note_off,121,0,0,,7,,,55,127
73127,note_off,0,0,0,,12,,,59,127
73247,note_off,120,0,0,,0,,,84,127
73248,note_on,1,0,0,,4,,,52,127
73248,note_on,0,0,0,,0,,,60,127
73248,note_on,0,0,0,,0,,,72,127
73489,note_off,241,0,0,,0,,,72,127
73489,note_off,0,0,0,,0,,,60,127
73489,note_off,0,0,0,,4,,,52,127
73490,note_on,1,0,0,,5,,,53,127
73490,note_on,0,0,0,,4,,,76,127
73549,note_off,59,0,0,,4,,,76,127
73550,note_on,1,0,0,,2,,,74,127
73609,note_off,59,0,0,,2,,,74,127
73610,note_on,1,0,0,,4,,,76,127
73669,note_off,59,0,0,,4,,,76,127
73670,note_on,1,0,0,,2,,,74,127
73729,note_off,59,0,0,,2,,,74,127
73729,note_off,0,0,0,,5,,,53,127
73730,note_on,1,0,0,,7,,,55,127
73730,note_on,0,0,0,,12,,,59,127
73730,note_on,0,0,0,,4,,,76,127
73789,note_off,59,0,0,,4,,,76,127
73790,note_on,1,0,0,,2,,,74,127
73849,note_off,59,0,0,,2,,,74,127
73850,note_on,1,0,0,,0,,,72,127
73909,note_off,59,0,0,,0,,,72,127
73910,note_on,1,0,0,,2,,,74,127
73969,note_off,59,0,0,,2,,,74,127
73969,note_off,0,0,0,,12,,,59,127
73969,note_off,0,0,0,,7,,,55,127
73970,note_on,1,0,0,,0,,,48,127
73970,note_on,0,0,0,,0,,,60,127
73970,note_on,0,0,0,,0,,,84,127
74211,note_off,241,0,0,,0,,,84,127
74211,note_off,0,0,0,,0,,,60,127
74211,note_off,0,0,0,,0,,,48,127
74212,note_on,1,0,0,,10,,,57,127
74212,note_on,0,0,0,,10,,,45,127
74212,note_on,0,0,0,,0,,,72,127
74453,note_off,241,0,0,,0,,,72,127
74453,note_off,0,0,0,,10,,,45,127
74453,note_off,0,0,0,,10,,,57,127
74454,note_on,1,0,0,,5,,,41,127
74454,note_on,0,0,0,,5,,,53,127
74454,note_on,0,0,0,,4,,,76,127
74513,note_off,59,0,0,,4,,,76,127
74514,note_on,1,0,0,,2,,,74,127
74573,note_off,59,0,0,,2,,,74,127
74574,note_on,1,0,0,,4,,,76,127
74633,note_off,59,0,0,,4,,,76,127
74634,note_on,1,0,0,,2,,,74,127
74693,note_off,59,0,0,,2,,,74,127
74693,note_off,0,0,0,,5,,,53,127
74693,note_off,0,0,0,,5,,,41,127
74694,note_on,1,0,0,,7,,,43,127
74694,note_on,0,0,0,,7,,,55,127
74694,note_on,0,0,0,,4,,,76,127
74753,note_off,59,0,0,,4,,,76,127
74754,note_on,1,0,0,,2,,,74,127
74813,note_off,59,0,0,,2,,,74,127
74814,note_on,1,0,0,,0,,,72,127
74873,note_off,59,0,0,,0,,,72,127
74874,note_on,1,0,0,,12,,,71,127
74933,note_off,59,0,0,,12,,,71,127
74933,note_off,0,0,0,,7,,,55,127
74933,note_off,0,0,0,,7,,,43,127
74947,note_on,14,0,0,,0,,,72,127
74947,note_on,0,0,0,,0,,,48,127
74947,note_on,0,0,0,,0,,,36,127
76693,note_off,1746,0,0,,0,,,36,127
76693,note_off,0,0,0,,0,,,48,127
76693,note_off,0,0,0,,0,,,72,127
78336,end_of_track,1643,1,0,,,,,,
