tick,type,time,meta,track,program,channel,pitch,tempo,note,velocity
0,copyright,0,1,0,,,,,,
0,program_change,0,0,0,6,0,,,,
0,pitchwheel,0,0,0,,0,0,,,
0,program_change,0,0,0,6,1,,,,
0,pitchwheel,0,0,0,,1,-590,,,
0,program_change,0,0,0,6,2,,,,
0,pitchwheel,0,0,0,,2,-272,,,
0,program_change,0,0,0,6,3,,,,
0,pitchwheel,0,0,0,,3,-353,,,
0,program_change,0,0,0,6,4,,,,
0,pitchwheel,0,0,0,,4,-560,,,
0,program_change,0,0,0,6,5,,,,
0,pitchwheel,0,0,0,,5,-80,,,
0,program_change,0,0,0,6,6,,,,
0,pitchwheel,0,0,0,,6,-625,,,
0,program_change,0,0,0,6,7,,,,
0,pitchwheel,0,0,0,,7,-130,,,
0,program_change,0,0,0,6,8,,,,
0,pitchwheel,0,0,0,,8,-512,,,
0,program_change,0,0,0,6,10,,,,
0,pitchwheel,0,0,0,,10,-464,,,
0,program_change,0,0,0,6,11,,,,
0,pitchwheel,0,0,0,,11,-208,,,
0,program_change,0,0,0,6,12,,,,
0,pitchwheel,0,0,0,,12,-553,,,
0,set_tempo,0,1,0,,,,500000,,
85,note_on,85,0,0,,0,,,72,127
255,note_off,170,0,0,,0,,,72,127
256,note_on,1,0,0,,4,,,76,127
426,note_off,170,0,0,,4,,,76,127
427,note_on,1,0,0,,7,,,79,127
597,note_off,170,0,0,,7,,,79,127
598,note_on,1,0,0,,7,,,79,127
768,note_off,170,0,0,,7,,,79,127
769,note_on,1,0,0,,4,,,76,127
939,note_off,170,0,0,,4,,,76,127
940,note_on,1,0,0,,7,,,79,127
1110,note_off,170,0,0,,7,,,79,127
1111,note_on,1,0,0,,7,,,79,127
1281,note_off,170,0,0,,7,,,79,127
1282,note_on,1,0,0,,4,,,76,127
1452,note_off,170,0,0,,4,,,76,127
1453,note_on,1,0,0,,7,,,79,127
1623,note_off,170,0,0,,7,,,79,127
1624,note_on,1,0,0,,0,,,60,127
1624,note_on,0,0,0,,7,,,79,127
1794,note_off,170,0,0,,0,,,60,127
1795,note_on,1,0,0,,4,,,64,127
1965,note_off,170,0,0,,4,,,64,127
1966,note_on,1,0,0,,7,,,67,127
2136,note_off,170,0,0,,7,,,67,127
2137,note_on,1,0,0,,7,,,67,127
2307,note_off,170,0,0,,7,,,67,127
2307,note_off,0,0,0,,7,,,79,127
2308,note_on,1,0,0,,4,,,64,127
2308,note_on,0,0,0,,7,,,79,127
2478,note_off,170,0,0,,7,,,79,127
2478,note_off,0,0,0,,4,,,64,127
2479,note_on,1,0,0,,7,,,67,127
2479,note_on,0,0,0,,0,,,72,127
2649,note_off,170,0,0,,0,,,72,127
2649,note_off,0,0,0,,7,,,67,127
2650,note_on,1,0,0,,7,,,67,127
2650,note_on,0,0,0,,12,,,71,127
2820,note_off,170,0,0,,7,,,67,127
2821,note_on,1,0,0,,4,,,64,127
2821,note_on,0,0,0,,7,,,79,127
2906,note_off,85,0,0,,12,,,71,127
2990,note_off,84,0,0,,7,,,79,127
2990,note_off,0,0,0,,4,,,64,127
2991,note_on,1,0,0,,7,,,67,127
2991,note_on,0,0,0,,0,,,72,127
3161,note_off,170,0,0,,0,,,72,127
3161,note_off,0,0,0,,7,,,67,127
3162,note_on,1,0,0,,7,,,67,127
3162,note_on,0,0,0,,12,,,71,127
3332,note_off,170,0,0,,12,,,71,127
3332,note_off,0,0,0,,7,,,67,127
3333,note_on,1,0,0,,10,,,69,127
3333,note_on,0,0,0,,0,,,72,127
3503,note_off,170,0,0,,0,,,72,127
3503,note_off,0,0,0,,10,,,69,127
3504,note_on,1,0,0,,12,,,71,127
3504,note_on,0,0,0,,2,,,74,127
3674,note_off,170,0,0,,2,,,74,127
3674,note_off,0,0,0,,12,,,71,127
3675,note_on,1,0,0,,0,,,72,127
3675,note_on,0,0,0,,4,,,76,127
3845,note_off,170,0,0,,0,,,72,127
3846,note_on,1,0,0,,0,,,60,127
3846,note_on,0,0,0,,0,,,84,127
3960,note_off,114,0,0,,4,,,76,127
4016,note_off,56,0,0,,0,,,84,127
4016,note_off,0,0,0,,0,,,60,127
4017,note_on,1,0,0,,10,,,69,127
4017,note_on,0,0,0,,0,,,72,127
4187,note_off,170,0,0,,0,,,72,127
4187,note_off,0,0,0,,10,,,69,127
4188,note_on,1,0,0,,12,,,71,127
4188,note_on,0,0,0,,2,,,74,127
4358,note_off,170,0,0,,12,,,71,127
4359,note_on,1,0,0,,12,,,59,127
4359,note_on,0,0,0,,0,,,84,127
4473,note_off,114,0,0,,2,,,74,127
4529,note_off,56,0,0,,0,,,84,127
4529,note_off,0,0,0,,12,,,59,127
4530,note_on,1,0,0,,7,,,67,127
4530,note_on,0,0,0,,12,,,71,127
4700,note_off,170,0,0,,12,,,71,127
4700,note_off,0,0,0,,7,,,67,127
4701,note_on,1,0,0,,10,,,69,127
4701,note_on,0,0,0,,0,,,72,127
4871,note_off,170,0,0,,10,,,69,127
4872,note_on,1,0,0,,10,,,57,127
4872,note_on,0,0,0,,0,,,84,127
4986,note_off,114,0,0,,0,,,72,127
5042,note_off,56,0,0,,0,,,84,127
5042,note_off,0,0,0,,10,,,57,127
5043,note_on,1,0,0,,5,,,65,127
5043,note_on,0,0,0,,10,,,69,127
5213,note_off,170,0,0,,10,,,69,127
5213,note_off,0,0,0,,5,,,65,127
5214,note_on,1,0,0,,7,,,67,127
5214,note_on,0,0,0,,12,,,71,127
5384,note_off,170,0,0,,7,,,67,127
5385,note_on,1,0,0,,7,,,55,127
5385,note_on,0,0,0,,0,,,84,127
5499,note_off,114,0,0,,12,,,71,127
5555,note_off,56,0,0,,0,,,84,127
5555,note_off,0,0,0,,7,,,55,127
5556,note_on,1,0,0,,4,,,64,127
5556,note_on,0,0,0,,7,,,67,127
5726,note_off,170,0,0,,7,,,67,127
5726,note_off,0,0,0,,4,,,64,127
5727,note_on,1,0,0,,5,,,65,127
5727,note_on,0,0,0,,10,,,69,127
5897,note_off,170,0,0,,10,,,69,127
5897,note_off,0,0,0,,5,,,65,127
5898,note_on,1,0,0,,5,,,53,127
5898,note_on,0,0,0,,0,,,84,127
6068,note_off,170,0,0,,0,,,84,127
6068,note_off,0,0,0,,5,,,53,127
6069,note_on,1,0,0,,2,,,62,127
6069,note_on,0,0,0,,5,,,65,127
6239,note_off,170,0,0,,5,,,65,127
6239,note_off,0,0,0,,2,,,62,127
6240,note_on,1,0,0,,4,,,64,127
6240,note_on,0,0,0,,7,,,67,127
6410,note_off,170,0,0,,7,,,67,127
6410,note_off,0,0,0,,4,,,64,127
6411,note_on,1,0,0,,4,,,52,127
6411,note_on,0,0,0,,0,,,84,127
6581,note_off,170,0,0,,0,,,84,127
6581,note_off,0,0,0,,4,,,52,127
6582,note_on,1,0,0,,0,,,60,127
6582,note_on,0,0,0,,4,,,64,127
6752,note_off,170,0,0,,4,,,64,127
6752,note_off,0,0,0,,0,,,60,127
6753,note_on,1,0,0,,2,,,62,127
6753,note_on,0,0,0,,5,,,65,127
6923,note_off,170,0,0,,5,,,65,127
6923,note_off,0,0,0,,2,,,62,127
6924,note_on,1,0,0,,2,,,50,127
6924,note_on,0,0,0,,0,,,84,127
7094,note_off,170,0,0,,0,,,84,127
7094,note_off,0,0,0,,2,,,50,127
7095,note_on,1,0,0,,12,,,59,127
7095,note_on,0,0,0,,2,,,62,127
7251,note_off,156,0,0,,2,,,62,127
7251,note_off,0,0,0,,12,,,59,127
7266,note_on,15,0,0,,0,,,48,127
7266,note_on,0,0,0,,4,,,64,127
7436,note_off,170,0,0,,0,,,48,127
7437,note_on,1,0,0,,0,,,60,127
7437,note_on,0,0,0,,4,,,76,127
7607,note_off,170,0,0,,4,,,76,127
7607,note_off,0,0,0,,0,,,60,127
7608,note_on,1,0,0,,0,,,48,127
7608,note_on,0,0,0,,0,,,72,127
7778,note_off,170,0,0,,0,,,72,127
7778,note_off,0,0,0,,0,,,48,127
7778,note_off,0,0,0,,4,,,64,127
7779,note_on,1,0,0,,2,,,50,127
7779,note_on,0,0,0,,5,,,65,127
7949,note_off,170,0,0,,2,,,50,127
7950,note_on,1,0,0,,0,,,60,127
7950,note_on,0,0,0,,4,,,76,127
8120,note_off,170,0,0,,4,,,76,127
8120,note_off,0,0,0,,0,,,60,127
8121,note_on,1,0,0,,2,,,50,127
8121,note_on,0,0,0,,0,,,72,127
8206,note_off,85,0,0,,5,,,65,127
8290,note_off,84,0,0,,0,,,72,127
8290,note_off,0,0,0,,2,,,50,127
8291,note_on,1,0,0,,4,,,52,127
8291,note_on,0,0,0,,7,,,67,127
8461,note_off,170,0,0,,4,,,52,127
8462,note_on,1,0,0,,0,,,60,127
8462,note_on,0,0,0,,4,,,76,127
8632,note_off,170,0,0,,4,,,76,127
8632,note_off,0,0,0,,0,,,60,127
8633,note_on,1,0,0,,4,,,52,127
8633,note_on,0,0,0,,0,,,72,127
8718,note_off,85,0,0,,7,,,67,127
8802,note_off,84,0,0,,0,,,72,127
8802,note_off,0,0,0,,4,,,52,127
8803,note_on,1,0,0,,6,,,54,127
8803,note_on,0,0,0,,10,,,69,127
8973,note_off,170,0,0,,6,,,54,127
8974,note_on,1,0,0,,0,,,60,127
8974,note_on,0,0,0,,4,,,76,127
9141,note_off,167,0,0,,10,,,69,127
9144,note_off,3,0,0,,4,,,76,127
9144,note_off,0,0,0,,0,,,60,127
9145,note_on,1,0,0,,6,,,54,127
9145,note_on,0,0,0,,0,,,72,127
9305,note_off,160,0,0,,0,,,72,127
9305,note_off,0,0,0,,6,,,54,127
9316,note_on,11,0,0,,7,,,55,127
9316,note_on,0,0,0,,12,,,71,127
9486,note_off,170,0,0,,7,,,55,127
9487,note_on,1,0,0,,7,,,67,127
9487,note_on,0,0,0,,12,,,83,127
9657,note_off,170,0,0,,12,,,83,127
9657,note_off,0,0,0,,7,,,67,127
9658,note_on,1,0,0,,7,,,55,127
9658,note_on,0,0,0,,7,,,79,127
9828,note_off,170,0,0,,7,,,79,127
9828,note_off,0,0,0,,7,,,55,127
9828,note_off,0,0,0,,12,,,71,127
9829,note_on,1,0,0,,10,,,57,127
9829,note_on,0,0,0,,0,,,72,127
9999,note_off,170,0,0,,10,,,57,127
10000,note_on,1,0,0,,7,,,67,127
10000,note_on,0,0,0,,12,,,83,127
10170,note_off,170,0,0,,12,,,83,127
10170,note_off,0,0,0,,7,,,67,127
10171,note_on,1,0,0,,10,,,57,127
10171,note_on,0,0,0,,7,,,79,127
10256,note_off,85,0,0,,0,,,72,127
10340,note_off,84,0,0,,7,,,79,127
10340,note_off,0,0,0,,10,,,57,127
10341,note_on,1,0,0,,12,,,59,127
10341,note_on,0,0,0,,2,,,74,127
10511,note_off,170,0,0,,12,,,59,127
10512,note_on,1,0,0,,7,,,67,127
10512,note_on,0,0,0,,12,,,83,127
10682,note_off,170,0,0,,12,,,83,127
10682,note_off,0,0,0,,7,,,67,127
10683,note_on,1,0,0,,12,,,59,127
10683,note_on,0,0,0,,7,,,79,127
10768,note_off,85,0,0,,2,,,74,127
10852,note_off,84,0,0,,7,,,79,127
10852,note_off,0,0,0,,12,,,59,127
10853,note_on,1,0,0,,0,,,60,127
10853,note_on,0,0,0,,4,,,76,127
11023,note_off,170,0,0,,4,,,76,127
11024,note_on,1,0,0,,0,,,72,127
11024,note_on,0,0,0,,10,,,81,127
11194,note_off,170,0,0,,10,,,81,127
11194,note_off,0,0,0,,0,,,72,127
11195,note_on,1,0,0,,12,,,71,127
11195,note_on,0,0,0,,7,,,79,127
11280,note_off,85,0,0,,0,,,60,127
11364,note_off,84,0,0,,7,,,79,127
11364,note_off,0,0,0,,12,,,71,127
11365,note_on,1,0,0,,2,,,62,127
11365,note_on,0,0,0,,10,,,69,127
11365,note_on,0,0,0,,6,,,78,127
11535,note_off,170,0,0,,10,,,69,127
11536,note_on,1,0,0,,2,,,74,127
11536,note_on,0,0,0,,12,,,83,127
11579,note_off,43,0,0,,6,,,78,127
11706,note_off,127,0,0,,12,,,83,127
11706,note_off,0,0,0,,2,,,74,127
11707,note_on,1,0,0,,0,,,72,127
11707,note_on,0,0,0,,10,,,81,127
11792,note_off,85,0,0,,2,,,62,127
11876,note_off,84,0,0,,10,,,81,127
11876,note_off,0,0,0,,0,,,72,127
11877,note_on,1,0,0,,12,,,71,127
11877,note_on,0,0,0,,4,,,64,127
11877,note_on,0,0,0,,8,,,80,127
12047,note_off,170,0,0,,12,,,71,127
12048,note_on,1,0,0,,4,,,76,127
12048,note_on,0,0,0,,0,,,84,127
12133,note_off,85,0,0,,8,,,80,127
12217,note_off,84,0,0,,0,,,84,127
12217,note_off,0,0,0,,4,,,76,127
12218,note_on,1,0,0,,2,,,74,127
12218,note_on,0,0,0,,12,,,83,127
12388,note_off,170,0,0,,12,,,83,127
12388,note_off,0,0,0,,2,,,74,127
12388,note_off,0,0,0,,4,,,64,127
12389,note_on,1,0,0,,0,,,72,127
12389,note_on,0,0,0,,5,,,65,127
12389,note_on,0,0,0,,10,,,81,127
12389,note_on,0,0,0,,12,,,83,127
12559,note_off,170,0,0,,12,,,83,127
12559,note_off,0,0,0,,10,,,81,127
12559,note_off,0,0,0,,0,,,72,127
12560,note_on,1,0,0,,12,,,71,127
12560,note_on,0,0,0,,8,,,80,127
12730,note_off,170,0,0,,8,,,80,127
12730,note_off,0,0,0,,12,,,71,127
12731,note_on,1,0,0,,0,,,72,127
12731,note_on,0,0,0,,10,,,81,127
12901,note_off,170,0,0,,5,,,65,127
12902,note_on,1,0,0,,2,,,62,127
12902,note_on,0,0,0,,5,,,77,127
13072,note_off,170,0,0,,10,,,81,127
13072,note_off,0,0,0,,0,,,72,127
13073,note_on,1,0,0,,2,,,74,127
13073,note_on,0,0,0,,12,,,83,127
13243,note_off,170,0,0,,12,,,83,127
13243,note_off,0,0,0,,2,,,74,127
13244,note_on,1,0,0,,0,,,72,127
13244,note_on,0,0,0,,10,,,81,127
13414,note_off,170,0,0,,10,,,81,127
13414,note_off,0,0,0,,0,,,72,127
13414,note_off,0,0,0,,5,,,77,127
13414,note_off,0,0,0,,2,,,62,127
13415,note_on,1,0,0,,12,,,71,127
13415,note_on,0,0,0,,4,,,64,127
13415,note_on,0,0,0,,4,,,76,127
13415,note_on,0,0,0,,8,,,80,127
13585,note_off,170,0,0,,8,,,80,127
13585,note_off,0,0,0,,4,,,76,127
13585,note_off,0,0,0,,12,,,71,127
13586,note_on,1,0,0,,4,,,76,127
13586,note_on,0,0,0,,0,,,84,127
13756,note_off,170,0,0,,0,,,84,127
13756,note_off,0,0,0,,4,,,76,127
13757,note_on,1,0,0,,2,,,74,127
13757,note_on,0,0,0,,12,,,83,127
13842,note_off,85,0,0,,4,,,64,127
13926,note_off,84,0,0,,12,,,83,127
13926,note_off,0,0,0,,2,,,74,127
13927,note_on,1,0,0,,5,,,65,127
13927,note_on,0,0,0,,0,,,72,127
13927,note_on,0,0,0,,10,,,81,127
14097,note_off,170,0,0,,10,,,81,127
14097,note_off,0,0,0,,0,,,72,127
14098,note_on,1,0,0,,12,,,71,127
14098,note_on,0,0,0,,8,,,80,127
14268,note_off,170,0,0,,8,,,80,127
14268,note_off,0,0,0,,12,,,71,127
14269,note_on,1,0,0,,0,,,72,127
14269,note_on,0,0,0,,10,,,81,127
14439,note_off,170,0,0,,5,,,65,127
14440,note_on,1,0,0,,2,,,62,127
14440,note_on,0,0,0,,5,,,77,127
14610,note_off,170,0,0,,10,,,81,127
14610,note_off,0,0,0,,0,,,72,127
14611,note_on,1,0,0,,2,,,74,127
14611,note_on,0,0,0,,12,,,83,127
14781,note_off,170,0,0,,12,,,83,127
14781,note_off,0,0,0,,2,,,74,127
14782,note_on,1,0,0,,0,,,72,127
14782,note_on,0,0,0,,10,,,81,127
14952,note_off,170,0,0,,10,,,81,127
14952,note_off,0,0,0,,0,,,72,127
14952,note_off,0,0,0,,5,,,77,127
14952,note_off,0,0,0,,2,,,62,127
14953,note_on,1,0,0,,4,,,64,127
14953,note_on,0,0,0,,12,,,71,127
14953,note_on,0,0,0,,7,,,79,127
14953,note_on,0,0,0,,10,,,81,127
14953,note_on,0,0,0,,4,,,76,127
15123,note_off,170,0,0,,10,,,81,127
15123,note_off,0,0,0,,7,,,79,127
15123,note_off,0,0,0,,12,,,71,127
15124,note_on,1,0,0,,11,,,70,127
15124,note_on,0,0,0,,6,,,78,127
15294,note_off,170,0,0,,6,,,78,127
15294,note_off,0,0,0,,11,,,70,127
15295,note_on,1,0,0,,12,,,71,127
15295,note_on,0,0,0,,7,,,79,127
15465,note_off,170,0,0,,7,,,79,127
15465,note_off,0,0,0,,12,,,71,127
15465,note_off,0,0,0,,4,,,64,127
15466,note_on,1,0,0,,6,,,66,127
15466,note_on,0,0,0,,10,,,69,127
15466,note_on,0,0,0,,10,,,81,127
15636,note_off,170,0,0,,4,,,76,127
15637,note_on,1,0,0,,3,,,75,127
15807,note_off,170,0,0,,3,,,75,127
15807,note_off,0,0,0,,10,,,81,127
15807,note_off,0,0,0,,10,,,69,127
15807,note_off,0,0,0,,6,,,66,127
15808,note_on,1,0,0,,6,,,66,127
15808,note_on,0,0,0,,10,,,69,127
15808,note_on,0,0,0,,0,,,72,127
15808,note_on,0,0,0,,4,,,76,127
15978,note_off,170,0,0,,4,,,76,127
15978,note_off,0,0,0,,0,,,72,127
15978,note_off,0,0,0,,10,,,69,127
15978,note_off,0,0,0,,6,,,66,127
15979,note_on,1,0,0,,10,,,69,127
15979,note_on,0,0,0,,3,,,63,127
15979,note_on,0,0,0,,12,,,71,127
15979,note_on,0,0,0,,6,,,78,127
16149,note_off,170,0,0,,6,,,78,127
16149,note_off,0,0,0,,3,,,63,127
16150,note_on,1,0,0,,4,,,64,127
16150,note_on,0,0,0,,7,,,79,127
16320,note_off,170,0,0,,7,,,79,127
16320,note_off,0,0,0,,4,,,64,127
16321,note_on,1,0,0,,6,,,66,127
16321,note_on,0,0,0,,10,,,81,127
16491,note_off,170,0,0,,10,,,81,127
16491,note_off,0,0,0,,6,,,66,127
16491,note_off,0,0,0,,12,,,71,127
16491,note_off,0,0,0,,10,,,69,127
16492,note_on,1,0,0,,4,,,64,127
16492,note_on,0,0,0,,7,,,79,127
16492,note_on,0,0,0,,12,,,71,127
16492,note_on,0,0,0,,10,,,81,127
16662,note_off,170,0,0,,10,,,81,127
16662,note_off,0,0,0,,12,,,71,127
16662,note_off,0,0,0,,7,,,79,127
16662,note_off,0,0,0,,4,,,64,127
16663,note_on,1,0,0,,6,,,66,127
16663,note_on,0,0,0,,6,,,78,127
16833,note_off,170,0,0,,6,,,78,127
16833,note_off,0,0,0,,6,,,66,127
16834,note_on,1,0,0,,7,,,67,127
16834,note_on,0,0,0,,4,,,76,127
16994,note_off,160,0,0,,4,,,76,127
16994,note_off,0,0,0,,7,,,67,127
17005,note_on,11,0,0,,6,,,66,127
17005,note_on,0,0,0,,11,,,70,127
17005,note_on,0,0,0,,4,,,76,127
17005,note_on,0,0,0,,6,,,78,127
17175,note_off,170,0,0,,4,,,76,127
17176,note_on,1,0,0,,1,,,73,127
17346,note_off,170,0,0,,1,,,73,127
17346,note_off,0,0,0,,11,,,70,127
17346,note_off,0,0,0,,6,,,66,127
17347,note_on,1,0,0,,6,,,66,127
17347,note_on,0,0,0,,11,,,70,127
17347,note_on,0,0,0,,2,,,74,127
17517,note_off,170,0,0,,2,,,74,127
17517,note_off,0,0,0,,11,,,70,127
17517,note_off,0,0,0,,6,,,66,127
17517,note_off,0,0,0,,6,,,78,127
17518,note_on,1,0,0,,12,,,71,127
17518,note_on,0,0,0,,7,,,67,127
17518,note_on,0,0,0,,4,,,76,127
17688,note_off,170,0,0,,4,,,76,127
17688,note_off,0,0,0,,7,,,67,127
17689,note_on,1,0,0,,6,,,66,127
17689,note_on,0,0,0,,11,,,82,127
17859,note_off,170,0,0,,11,,,82,127
17859,note_off,0,0,0,,6,,,66,127
17860,note_on,1,0,0,,4,,,64,127
17860,note_on,0,0,0,,12,,,83,127
18030,note_off,170,0,0,,12,,,83,127
18030,note_off,0,0,0,,4,,,64,127
18030,note_off,0,0,0,,12,,,71,127
18031,note_on,1,0,0,,6,,,66,127
18031,note_on,0,0,0,,11,,,70,127
18031,note_on,0,0,0,,4,,,76,127
18031,note_on,0,0,0,,6,,,78,127
18201,note_off,170,0,0,,4,,,76,127
18202,note_on,1,0,0,,1,,,73,127
18372,note_off,170,0,0,,1,,,73,127
18372,note_off,0,0,0,,11,,,70,127
18372,note_off,0,0,0,,6,,,66,127
18373,note_on,1,0,0,,6,,,66,127
18373,note_on,0,0,0,,11,,,70,127
18373,note_on,0,0,0,,2,,,74,127
18543,note_off,170,0,0,,2,,,74,127
18543,note_off,0,0,0,,11,,,70,127
18543,note_off,0,0,0,,6,,,66,127
18543,note_off,0,0,0,,6,,,78,127
18544,note_on,1,0,0,,7,,,67,127
18544,note_on,0,0,0,,12,,,71,127
18544,note_on,0,0,0,,4,,,76,127
18714,note_off,170,0,0,,4,,,76,127
18714,note_off,0,0,0,,7,,,67,127
18715,note_on,1,0,0,,6,,,66,127
18715,note_on,0,0,0,,11,,,82,127
18885,note_off,170,0,0,,11,,,82,127
18885,note_off,0,0,0,,6,,,66,127
18886,note_on,1,0,0,,4,,,64,127
18886,note_on,0,0,0,,12,,,83,127
19056,note_off,170,0,0,,12,,,83,127
19056,note_off,0,0,0,,4,,,64,127
19056,note_off,0,0,0,,12,,,71,127
19057,note_on,1,0,0,,11,,,70,127
19057,note_on,0,0,0,,6,,,66,127
19057,note_on,0,0,0,,4,,,76,127
19057,note_on,0,0,0,,6,,,78,127
19227,note_off,170,0,0,,6,,,78,127
19227,note_off,0,0,0,,4,,,76,127
19227,note_off,0,0,0,,6,,,66,127
19227,note_off,0,0,0,,11,,,70,127
19228,note_on,1,0,0,,8,,,68,127
19228,note_on,0,0,0,,2,,,74,127
19398,note_off,170,0,0,,2,,,74,127
19398,note_off,0,0,0,,8,,,68,127
19399,note_on,1,0,0,,11,,,70,127
19399,note_on,0,0,0,,1,,,73,127
19559,note_off,160,0,0,,1,,,73,127
19559,note_off,0,0,0,,11,,,70,127
19570,note_on,11,0,0,,12,,,59,127
19570,note_on,0,0,0,,12,,,71,127
19570,note_on,0,0,0,,2,,,74,127
19740,note_off,170,0,0,,2,,,74,127
19740,note_off,0,0,0,,12,,,59,127
19741,note_on,1,0,0,,0,,,60,127
19741,note_on,0,0,0,,4,,,76,127
19911,note_off,170,0,0,,4,,,76,127
19911,note_off,0,0,0,,0,,,60,127
19912,note_on,1,0,0,,2,,,62,127
19912,note_on,0,0,0,,5,,,77,127
20082,note_off,170,0,0,,5,,,77,127
20082,note_off,0,0,0,,2,,,62,127
20082,note_off,0,0,0,,12,,,71,127
20083,note_on,1,0,0,,4,,,64,127
20083,note_on,0,0,0,,8,,,68,127
20083,note_on,0,0,0,,4,,,76,127
20083,note_on,0,0,0,,2,,,74,127
20253,note_off,170,0,0,,2,,,74,127
20254,note_on,1,0,0,,12,,,71,127
20424,note_off,170,0,0,,12,,,71,127
20424,note_off,0,0,0,,8,,,68,127
20424,note_off,0,0,0,,4,,,64,127
20425,note_on,1,0,0,,8,,,68,127
20425,note_on,0,0,0,,4,,,64,127
20425,note_on,0,0,0,,0,,,72,127
20595,note_off,170,0,0,,0,,,72,127
20595,note_off,0,0,0,,4,,,64,127
20595,note_off,0,0,0,,8,,,68,127
20595,note_off,0,0,0,,4,,,76,127
20596,note_on,1,0,0,,5,,,65,127
20596,note_on,0,0,0,,10,,,69,127
20596,note_on,0,0,0,,2,,,74,127
20766,note_off,170,0,0,,2,,,74,127
20766,note_off,0,0,0,,5,,,65,127
20767,note_on,1,0,0,,4,,,64,127
20767,note_on,0,0,0,,8,,,80,127
20937,note_off,170,0,0,,8,,,80,127
20937,note_off,0,0,0,,4,,,64,127
20938,note_on,1,0,0,,2,,,62,127
20938,note_on,0,0,0,,10,,,81,127
21108,note_off,170,0,0,,10,,,81,127
21108,note_off,0,0,0,,2,,,62,127
21108,note_off,0,0,0,,10,,,69,127
21109,note_on,1,0,0,,4,,,64,127
21109,note_on,0,0,0,,8,,,68,127
21109,note_on,0,0,0,,4,,,76,127
21109,note_on,0,0,0,,2,,,74,127
21279,note_off,170,0,0,,2,,,74,127
21280,note_on,1,0,0,,12,,,71,127
21450,note_off,170,0,0,,12,,,71,127
21450,note_off,0,0,0,,8,,,68,127
21450,note_off,0,0,0,,4,,,64,127
21451,note_on,1,0,0,,8,,,68,127
21451,note_on,0,0,0,,4,,,64,127
21451,note_on,0,0,0,,0,,,72,127
21621,note_off,170,0,0,,0,,,72,127
21621,note_off,0,0,0,,4,,,64,127
21621,note_off,0,0,0,,8,,,68,127
21621,note_off,0,0,0,,4,,,76,127
21622,note_on,1,0,0,,5,,,65,127
21622,note_on,0,0,0,,10,,,69,127
21622,note_on,0,0,0,,2,,,74,127
21792,note_off,170,0,0,,2,,,74,127
21792,note_off,0,0,0,,5,,,65,127
21793,note_on,1,0,0,,4,,,64,127
21793,note_on,0,0,0,,8,,,80,127
21963,note_off,170,0,0,,8,,,80,127
21963,note_off,0,0,0,,4,,,64,127
21964,note_on,1,0,0,,2,,,62,127
21964,note_on,0,0,0,,10,,,81,127
22134,note_off,170,0,0,,10,,,81,127
22134,note_off,0,0,0,,2,,,62,127
22134,note_off,0,0,0,,10,,,69,127
22135,note_on,1,0,0,,4,,,64,127
22135,note_on,0,0,0,,8,,,68,127
22135,note_on,0,0,0,,2,,,74,127
22135,note_on,0,0,0,,4,,,76,127
22305,note_off,170,0,0,,4,,,76,127
22305,note_off,0,0,0,,2,,,74,127
22305,note_off,0,0,0,,8,,,68,127
22305,note_off,0,0,0,,4,,,64,127
22306,note_on,1,0,0,,6,,,66,127
22306,note_on,0,0,0,,0,,,72,127
22476,note_off,170,0,0,,0,,,72,127
22476,note_off,0,0,0,,6,,,66,127
22477,note_on,1,0,0,,8,,,68,127
22477,note_on,0,0,0,,12,,,71,127
22637,note_off,160,0,0,,12,,,71,127
22637,note_off,0,0,0,,8,,,68,127
22648,note_on,11,0,0,,10,,,57,127
22648,note_on,0,0,0,,0,,,72,127
22648,note_on,0,0,0,,10,,,69,127
22818,note_off,170,0,0,,0,,,72,127
22818,note_off,0,0,0,,10,,,57,127
22819,note_on,1,0,0,,12,,,59,127
22819,note_on,0,0,0,,2,,,74,127
22989,note_off,170,0,0,,2,,,74,127
22989,note_off,0,0,0,,12,,,59,127
22990,note_on,1,0,0,,0,,,60,127
22990,note_on,0,0,0,,4,,,76,127
23160,note_off,170,0,0,,4,,,76,127
23160,note_off,0,0,0,,0,,,60,127
23160,note_off,0,0,0,,10,,,69,127
23161,note_on,1,0,0,,2,,,62,127
23161,note_on,0,0,0,,6,,,66,127
23161,note_on,0,0,0,,0,,,72,127
23161,note_on,0,0,0,,2,,,74,127
23331,note_off,170,0,0,,0,,,72,127
23332,note_on,1,0,0,,10,,,69,127
23502,note_off,170,0,0,,10,,,69,127
23502,note_off,0,0,0,,6,,,66,127
23502,note_off,0,0,0,,2,,,62,127
23503,note_on,1,0,0,,2,,,62,127
23503,note_on,0,0,0,,6,,,66,127
23503,note_on,0,0,0,,12,,,71,127
23673,note_off,170,0,0,,12,,,71,127
23673,note_off,0,0,0,,6,,,66,127
23673,note_off,0,0,0,,2,,,62,127
23673,note_off,0,0,0,,2,,,74,127
23674,note_on,1,0,0,,7,,,67,127
23674,note_on,0,0,0,,4,,,64,127
23674,note_on,0,0,0,,0,,,72,127
23844,note_off,170,0,0,,0,,,72,127
23844,note_off,0,0,0,,4,,,64,127
23845,note_on,1,0,0,,2,,,62,127
23845,note_on,0,0,0,,6,,,78,127
24015,note_off,170,0,0,,6,,,78,127
24015,note_off,0,0,0,,2,,,62,127
24016,note_on,1,0,0,,0,,,60,127
24016,note_on,0,0,0,,7,,,79,127
24186,note_off,170,0,0,,7,,,79,127
24186,note_off,0,0,0,,0,,,60,127
24186,note_off,0,0,0,,7,,,67,127
24187,note_on,1,0,0,,6,,,66,127
24187,note_on,0,0,0,,2,,,62,127
24187,note_on,0,0,0,,2,,,74,127
24187,note_on,0,0,0,,0,,,72,127
24357,note_off,170,0,0,,0,,,72,127
24358,note_on,1,0,0,,10,,,69,127
24528,note_off,170,0,0,,10,,,69,127
24528,note_off,0,0,0,,2,,,62,127
24528,note_off,0,0,0,,6,,,66,127
24529,note_on,1,0,0,,2,,,62,127
24529,note_on,0,0,0,,6,,,66,127
24529,note_on,0,0,0,,12,,,71,127
24699,note_off,170,0,0,,12,,,71,127
24699,note_off,0,0,0,,6,,,66,127
24699,note_off,0,0,0,,2,,,62,127
24699,note_off,0,0,0,,2,,,74,127
24700,note_on,1,0,0,,7,,,67,127
24700,note_on,0,0,0,,4,,,64,127
24700,note_on,0,0,0,,0,,,72,127
24870,note_off,170,0,0,,0,,,72,127
24870,note_off,0,0,0,,4,,,64,127
24871,note_on,1,0,0,,2,,,62,127
24871,note_on,0,0,0,,6,,,78,127
25041,note_off,170,0,0,,6,,,78,127
25041,note_off,0,0,0,,2,,,62,127
25042,note_on,1,0,0,,0,,,60,127
25042,note_on,0,0,0,,7,,,79,127
25212,note_off,170,0,0,,7,,,79,127
25212,note_off,0,0,0,,0,,,60,127
25212,note_off,0,0,0,,7,,,67,127
25213,note_on,1,0,0,,2,,,62,127
25213,note_on,0,0,0,,6,,,66,127
25213,note_on,0,0,0,,2,,,74,127
25213,note_on,0,0,0,,0,,,72,127
25383,note_off,170,0,0,,0,,,72,127
25383,note_off,0,0,0,,2,,,74,127
25383,note_off,0,0,0,,6,,,66,127
25383,note_off,0,0,0,,2,,,62,127
25384,note_on,1,0,0,,4,,,64,127
25384,note_on,0,0,0,,12,,,71,127
25554,note_off,170,0,0,,12,,,71,127
25554,note_off,0,0,0,,4,,,64,127
25555,note_on,1,0,0,,6,,,66,127
25555,note_on,0,0,0,,10,,,69,127
25715,note_off,160,0,0,,10,,,69,127
25715,note_off,0,0,0,,6,,,66,127
25726,note_on,11,0,0,,7,,,67,127
25726,note_on,0,0,0,,12,,,71,127
25896,note_off,170,0,0,,7,,,67,127
25897,note_on,1,0,0,,7,,,55,127
25897,note_on,0,0,0,,7,,,79,127
26011,note_off,114,0,0,,12,,,71,127
26067,note_off,56,0,0,,7,,,79,127
26067,note_off,0,0,0,,7,,,55,127
26068,note_on,1,0,0,,4,,,64,127
26068,note_on,0,0,0,,7,,,67,127
26238,note_off,170,0,0,,7,,,67,127
26238,note_off,0,0,0,,4,,,64,127
26239,note_on,1,0,0,,6,,,66,127
26239,note_on,0,0,0,,10,,,69,127
26409,note_off,170,0,0,,6,,,66,127
26410,note_on,1,0,0,,6,,,54,127
26410,note_on,0,0,0,,7,,,79,127
26524,note_off,114,0,0,,10,,,69,127
26580,note_off,56,0,0,,7,,,79,127
26580,note_off,0,0,0,,6,,,54,127
26581,note_on,1,0,0,,2,,,62,127
26581,note_on,0,0,0,,6,,,66,127
26751,note_off,170,0,0,,6,,,66,127
26751,note_off,0,0,0,,2,,,62,127
26752,note_on,1,0,0,,4,,,64,127
26752,note_on,0,0,0,,7,,,67,127
26922,note_off,170,0,0,,4,,,64,127
26923,note_on,1,0,0,,4,,,52,127
26923,note_on,0,0,0,,7,,,79,127
27037,note_off,114,0,0,,7,,,67,127
27093,note_off,56,0,0,,7,,,79,127
27093,note_off,0,0,0,,4,,,52,127
27094,note_on,1,0,0,,0,,,60,127
27094,note_on,0,0,0,,4,,,64,127
27264,note_off,170,0,0,,4,,,64,127
27264,note_off,0,0,0,,0,,,60,127
27265,note_on,1,0,0,,2,,,62,127
27265,note_on,0,0,0,,6,,,66,127
27435,note_off,170,0,0,,2,,,62,127
27436,note_on,1,0,0,,2,,,50,127
27436,note_on,0,0,0,,7,,,79,127
27514,note_off,78,0,0,,6,,,66,127
27606,note_off,92,0,0,,7,,,79,127
27606,note_off,0,0,0,,2,,,50,127
27607,note_on,1,0,0,,12,,,59,127
27607,note_on,0,0,0,,2,,,62,127
27777,note_off,170,0,0,,2,,,62,127
27777,note_off,0,0,0,,12,,,59,127
27778,note_on,1,0,0,,0,,,60,127
27778,note_on,0,0,0,,4,,,64,127
27948,note_off,170,0,0,,4,,,64,127
27948,note_off,0,0,0,,0,,,60,127
27949,note_on,1,0,0,,0,,,48,127
27949,note_on,0,0,0,,7,,,79,127
28119,note_off,170,0,0,,7,,,79,127
28119,note_off,0,0,0,,0,,,48,127
28120,note_on,1,0,0,,10,,,57,127
28120,note_on,0,0,0,,0,,,60,127
28290,note_off,170,0,0,,0,,,60,127
28290,note_off,0,0,0,,10,,,57,127
28291,note_on,1,0,0,,12,,,59,127
28291,note_on,0,0,0,,2,,,62,127
28461,note_off,170,0,0,,2,,,62,127
28461,note_off,0,0,0,,12,,,59,127
28462,note_on,1,0,0,,12,,,47,127
28462,note_on,0,0,0,,7,,,79,127
28632,note_off,170,0,0,,7,,,79,127
28632,note_off,0,0,0,,12,,,47,127
28633,note_on,1,0,0,,7,,,55,127
28633,note_on,0,0,0,,12,,,59,127
28803,note_off,170,0,0,,12,,,59,127
28803,note_off,0,0,0,,7,,,55,127
28804,note_on,1,0,0,,10,,,57,127
28804,note_on,0,0,0,,0,,,60,127
28974,note_off,170,0,0,,0,,,60,127
28974,note_off,0,0,0,,10,,,57,127
28975,note_on,1,0,0,,10,,,45,127
28975,note_on,0,0,0,,7,,,79,127
29145,note_off,170,0,0,,7,,,79,127
29145,note_off,0,0,0,,10,,,45,127
29146,note_on,1,0,0,,6,,,54,127
29146,note_on,0,0,0,,10,,,57,127
29306,note_off,160,0,0,,10,,,57,127
29306,note_off,0,0,0,,6,,,54,127
29317,note_on,11,0,0,,7,,,43,127
29317,note_on,0,0,0,,12,,,59,127
29487,note_off,170,0,0,,12,,,59,127
29488,note_on,1,0,0,,2,,,62,127
29658,note_off,170,0,0,,2,,,62,127
29658,note_off,0,0,0,,7,,,43,127
29659,note_on,1,0,0,,7,,,55,127
29659,note_on,0,0,0,,5,,,65,127
29829,note_off,170,0,0,,5,,,65,127
29829,note_off,0,0,0,,7,,,55,127
29830,note_on,1,0,0,,0,,,48,127
29830,note_on,0,0,0,,4,,,64,127
30000,note_off,170,0,0,,4,,,64,127
30001,note_on,1,0,0,,3,,,63,127
30171,note_off,170,0,0,,3,,,63,127
30171,note_off,0,0,0,,0,,,48,127
30172,note_on,1,0,0,,10,,,57,127
30172,note_on,0,0,0,,10,,,69,127
30342,note_off,170,0,0,,10,,,69,127
30342,note_off,0,0,0,,10,,,57,127
30343,note_on,1,0,0,,2,,,50,127
30343,note_on,0,0,0,,7,,,67,127
30513,note_off,170,0,0,,7,,,67,127
30514,note_on,1,0,0,,6,,,66,127
30684,note_off,170,0,0,,6,,,66,127
30684,note_off,0,0,0,,2,,,50,127
30685,note_on,1,0,0,,2,,,62,127
30685,note_on,0,0,0,,0,,,72,127
30855,note_off,170,0,0,,0,,,72,127
30855,note_off,0,0,0,,2,,,62,127
30856,note_on,1,0,0,,7,,,43,127
30856,note_on,0,0,0,,12,,,71,127
31026,note_off,170,0,0,,12,,,71,127
31027,note_on,1,0,0,,11,,,70,127
31197,note_off,170,0,0,,11,,,70,127
31197,note_off,0,0,0,,7,,,43,127
31198,note_on,1,0,0,,7,,,55,127
31198,note_on,0,0,0,,5,,,77,127
31368,note_off,170,0,0,,5,,,77,127
31368,note_off,0,0,0,,7,,,55,127
31369,note_on,1,0,0,,0,,,48,127
31369,note_on,0,0,0,,4,,,76,127
31539,note_off,170,0,0,,4,,,76,127
31540,note_on,1,0,0,,3,,,75,127
31710,note_off,170,0,0,,3,,,75,127
31710,note_off,0,0,0,,0,,,48,127
31711,note_on,1,0,0,,0,,,60,127
31711,note_on,0,0,0,,10,,,81,127
31881,note_off,170,0,0,,10,,,81,127
31881,note_off,0,0,0,,0,,,60,127
31882,note_on,1,0,0,,2,,,62,127
31882,note_on,0,0,0,,7,,,79,127
32052,note_off,170,0,0,,7,,,79,127
32052,note_off,0,0,0,,2,,,62,127
32053,note_on,1,0,0,,0,,,60,127
32053,note_on,0,0,0,,6,,,78,127
32223,note_off,170,0,0,,6,,,78,127
32223,note_off,0,0,0,,0,,,60,127
32224,note_on,1,0,0,,12,,,59,127
32224,note_on,0,0,0,,2,,,74,127
32224,note_on,0,0,0,,2,,,86,127
32394,note_off,170,0,0,,2,,,86,127
32394,note_off,0,0,0,,2,,,74,127
32394,note_off,0,0,0,,12,,,59,127
32395,note_on,1,0,0,,0,,,60,127
32395,note_on,0,0,0,,0,,,84,127
32395,note_on,0,0,0,,4,,,76,127
32565,note_off,170,0,0,,4,,,76,127
32565,note_off,0,0,0,,0,,,84,127
32565,note_off,0,0,0,,0,,,60,127
32566,note_on,1,0,0,,2,,,62,127
32566,note_on,0,0,0,,12,,,83,127
32566,note_on,0,0,0,,2,,,74,127
32736,note_off,170,0,0,,2,,,74,127
32736,note_off,0,0,0,,12,,,83,127
32736,note_off,0,0,0,,2,,,62,127
32737,note_on,1,0,0,,2,,,50,127
32737,note_on,0,0,0,,10,,,81,127
32737,note_on,0,0,0,,0,,,72,127
32907,note_off,170,0,0,,0,,,72,127
32907,note_off,0,0,0,,10,,,81,127
32907,note_off,0,0,0,,2,,,50,127
32908,note_on,1,0,0,,7,,,55,127
32908,note_on,0,0,0,,7,,,79,127
32908,note_on,0,0,0,,12,,,71,127
33078,note_off,170,0,0,,12,,,71,127
33078,note_off,0,0,0,,7,,,55,127
33079,note_on,1,0,0,,10,,,57,127
33079,note_on,0,0,0,,0,,,72,127
33249,note_off,170,0,0,,0,,,72,127
33249,note_off,0,0,0,,10,,,57,127
33250,note_on,1,0,0,,12,,,59,127
33250,note_on,0,0,0,,2,,,74,127
33420,note_off,170,0,0,,12,,,59,127
33420,note_off,0,0,0,,7,,,79,127
33421,note_on,1,0,0,,0,,,60,127
33506,note_off,85,0,0,,2,,,74,127
33590,note_off,84,0,0,,0,,,60,127
33591,note_on,1,0,0,,2,,,62,127
33591,note_on,0,0,0,,10,,,81,127
33591,note_on,0,0,0,,4,,,76,127
33761,note_off,170,0,0,,4,,,76,127
33762,note_on,1,0,0,,2,,,50,127
33762,note_on,0,0,0,,2,,,74,127
33929,note_off,167,0,0,,2,,,62,127
33932,note_off,3,0,0,,2,,,50,127
33932,note_off,0,0,0,,10,,,81,127
33933,note_on,1,0,0,,7,,,55,127
34018,note_off,85,0,0,,2,,,74,127
34102,note_off,84,0,0,,7,,,55,127
34103,note_on,1,0,0,,10,,,57,127
34103,note_on,0,0,0,,12,,,83,127
34103,note_on,0,0,0,,4,,,76,127
34273,note_off,170,0,0,,4,,,76,127
34273,note_off,0,0,0,,10,,,57,127
34274,note_on,1,0,0,,12,,,59,127
34274,note_on,0,0,0,,2,,,74,127
34444,note_off,170,0,0,,12,,,59,127
34444,note_off,0,0,0,,12,,,83,127
34445,note_on,1,0,0,,0,,,60,127
34530,note_off,85,0,0,,2,,,74,127
34614,note_off,84,0,0,,0,,,60,127
34615,note_on,1,0,0,,2,,,62,127
34615,note_on,0,0,0,,0,,,84,127
34615,note_on,0,0,0,,4,,,76,127
34785,note_off,170,0,0,,4,,,76,127
34786,note_on,1,0,0,,2,,,50,127
34786,note_on,0,0,0,,2,,,74,127
34953,note_off,167,0,0,,2,,,62,127
34956,note_off,3,0,0,,2,,,50,127
34956,note_off,0,0,0,,0,,,84,127
34957,note_on,1,0,0,,7,,,55,127
35042,note_off,85,0,0,,2,,,74,127
35126,note_off,84,0,0,,7,,,55,127
35127,note_on,1,0,0,,10,,,57,127
35127,note_on,0,0,0,,2,,,86,127
35127,note_on,0,0,0,,4,,,76,127
35297,note_off,170,0,0,,4,,,76,127
35297,note_off,0,0,0,,10,,,57,127
35298,note_on,1,0,0,,12,,,59,127
35298,note_on,0,0,0,,2,,,74,127
35468,note_off,170,0,0,,2,,,74,127
35468,note_off,0,0,0,,12,,,59,127
35468,note_off,0,0,0,,2,,,86,127
35469,note_on,1,0,0,,0,,,60,127
35469,note_on,0,0,0,,0,,,72,127
35469,note_on,0,0,0,,0,,,84,127
35639,note_off,170,0,0,,0,,,84,127
35639,note_off,0,0,0,,0,,,72,127
35639,note_off,0,0,0,,0,,,60,127
35640,note_on,1,0,0,,2,,,62,127
35640,note_on,0,0,0,,12,,,83,127
35640,note_on,0,0,0,,12,,,71,127
35810,note_off,170,0,0,,12,,,71,127
35810,note_off,0,0,0,,12,,,83,127
35811,note_on,1,0,0,,2,,,50,127
35811,note_on,0,0,0,,10,,,81,127
35811,note_on,0,0,0,,10,,,69,127
35978,note_off,167,0,0,,2,,,62,127
35981,note_off,3,0,0,,10,,,69,127
35981,note_off,0,0,0,,10,,,81,127
35981,note_off,0,0,0,,2,,,50,127
35982,note_on,1,0,0,,7,,,55,127
35982,note_on,0,0,0,,7,,,79,127
35982,note_on,0,0,0,,12,,,71,127
36152,note_off,170,0,0,,12,,,71,127
36152,note_off,0,0,0,,7,,,55,127
36153,note_on,1,0,0,,10,,,57,127
36153,note_on,0,0,0,,0,,,72,127
36323,note_off,170,0,0,,0,,,72,127
36323,note_off,0,0,0,,10,,,57,127
36324,note_on,1,0,0,,12,,,59,127
36324,note_on,0,0,0,,2,,,74,127
36494,note_off,170,0,0,,12,,,59,127
36494,note_off,0,0,0,,7,,,79,127
36495,note_on,1,0,0,,0,,,60,127
36580,note_off,85,0,0,,2,,,74,127
36664,note_off,84,0,0,,0,,,60,127
36665,note_on,1,0,0,,2,,,62,127
36665,note_on,0,0,0,,4,,,76,127
36665,note_on,0,0,0,,10,,,81,127
36835,note_off,170,0,0,,4,,,76,127
36836,note_on,1,0,0,,2,,,50,127
36836,note_on,0,0,0,,2,,,74,127
37003,note_off,167,0,0,,2,,,62,127
37006,note_off,3,0,0,,2,,,50,127
37006,note_off,0,0,0,,10,,,81,127
37007,note_on,1,0,0,,7,,,55,127
37092,note_off,85,0,0,,2,,,74,127
37176,note_off,84,0,0,,7,,,55,127
37177,note_on,1,0,0,,10,,,57,127
37177,note_on,0,0,0,,12,,,83,127
37177,note_on,0,0,0,,4,,,76,127
37347,note_off,170,0,0,,4,,,76,127
37347,note_off,0,0,0,,10,,,57,127
37348,note_on,1,0,0,,12,,,59,127
37348,note_on,0,0,0,,2,,,74,127
37518,note_off,170,0,0,,12,,,59,127
37518,note_off,0,0,0,,12,,,83,127
37519,note_on,1,0,0,,0,,,60,127
37604,note_off,85,0,0,,2,,,74,127
37688,note_off,84,0,0,,0,,,60,127
37689,note_on,1,0,0,,2,,,62,127
37689,note_on,0,0,0,,0,,,84,127
37689,note_on,0,0,0,,4,,,76,127
37859,note_off,170,0,0,,4,,,76,127
37860,note_on,1,0,0,,2,,,50,127
37860,note_on,0,0,0,,2,,,74,127
38027,note_off,167,0,0,,2,,,62,127
38030,note_off,3,0,0,,2,,,50,127
38030,note_off,0,0,0,,0,,,84,127
38031,note_on,1,0,0,,7,,,55,127
38116,note_off,85,0,0,,2,,,74,127
38200,note_off,84,0,0,,7,,,55,127
38201,note_on,1,0,0,,10,,,57,127
38201,note_on,0,0,0,,2,,,86,127
38201,note_on,0,0,0,,4,,,76,127
38371,note_off,170,0,0,,4,,,76,127
38371,note_off,0,0,0,,10,,,57,127
38372,note_on,1,0,0,,12,,,59,127
38372,note_on,0,0,0,,2,,,74,127
38542,note_off,170,0,0,,2,,,74,127
38542,note_off,0,0,0,,12,,,59,127
38542,note_off,0,0,0,,2,,,86,127
38543,note_on,1,0,0,,0,,,60,127
38543,note_on,0,0,0,,0,,,84,127
38543,note_on,0,0,0,,4,,,76,127
38713,note_off,170,0,0,,4,,,76,127
38713,note_off,0,0,0,,0,,,84,127
38713,note_off,0,0,0,,0,,,60,127
38714,note_on,1,0,0,,2,,,62,127
38714,note_on,0,0,0,,12,,,83,127
38714,note_on,0,0,0,,2,,,74,127
38884,note_off,170,0,0,,2,,,74,127
38884,note_off,0,0,0,,12,,,83,127
38885,note_on,1,0,0,,2,,,50,127
38885,note_on,0,0,0,,10,,,81,127
38885,note_on,0,0,0,,0,,,72,127
39052,note_off,167,0,0,,2,,,62,127
39055,note_off,3,0,0,,0,,,72,127
39055,note_off,0,0,0,,10,,,81,127
39055,note_off,0,0,0,,2,,,50,127
39056,note_on,1,0,0,,7,,,43,127
39056,note_on,0,0,0,,12,,,71,127
39056,note_on,0,0,0,,6,,,78,127
39226,note_off,170,0,0,,6,,,78,127
39226,note_off,0,0,0,,7,,,43,127
39227,note_on,1,0,0,,10,,,45,127
39227,note_on,0,0,0,,7,,,79,127
39397,note_off,170,0,0,,10,,,45,127
39398,note_on,1,0,0,,12,,,47,127
39530,note_off,132,0,0,,7,,,79,127
39532,note_off,2,0,0,,12,,,71,127
39568,note_off,36,0,0,,12,,,47,127
39569,note_on,1,0,0,,0,,,48,127
39569,note_on,0,0,0,,4,,,64,127
39569,note_on,0,0,0,,0,,,72,127
39739,note_off,170,0,0,,0,,,72,127
39739,note_off,0,0,0,,4,,,64,127
39739,note_off,0,0,0,,0,,,48,127
39740,note_on,1,0,0,,2,,,50,127
39740,note_on,0,0,0,,2,,,62,127
39740,note_on,0,0,0,,12,,,71,127
39910,note_off,170,0,0,,12,,,71,127
39910,note_off,0,0,0,,2,,,62,127
39911,note_on,1,0,0,,2,,,38,127
39911,note_on,0,0,0,,0,,,60,127
39911,note_on,0,0,0,,10,,,69,127
40078,note_off,167,0,0,,2,,,50,127
40081,note_off,3,0,0,,10,,,69,127
40081,note_off,0,0,0,,0,,,60,127
40081,note_off,0,0,0,,2,,,38,127
40082,note_on,1,0,0,,7,,,43,127
40082,note_on,0,0,0,,12,,,59,127
40082,note_on,0,0,0,,6,,,66,127
40252,note_off,170,0,0,,6,,,66,127
40252,note_off,0,0,0,,7,,,43,127
40253,note_on,1,0,0,,10,,,45,127
40253,note_on,0,0,0,,7,,,67,127
40423,note_off,170,0,0,,10,,,45,127
40424,note_on,1,0,0,,12,,,47,127
40572,note_off,148,0,0,,7,,,67,127
40580,note_off,8,0,0,,12,,,59,127
40593,note_off,13,0,0,,12,,,47,127
40594,note_on,1,0,0,,0,,,48,127
40594,note_on,0,0,0,,0,,,60,127
40594,note_on,0,0,0,,10,,,57,127
40764,note_off,170,0,0,,10,,,57,127
40764,note_off,0,0,0,,0,,,60,127
40764,note_off,0,0,0,,0,,,48,127
40765,note_on,1,0,0,,2,,,50,127
40765,note_on,0,0,0,,7,,,55,127
40765,note_on,0,0,0,,12,,,59,127
40935,note_off,170,0,0,,12,,,59,127
40935,note_off,0,0,0,,7,,,55,127
40936,note_on,1,0,0,,2,,,38,127
40936,note_on,0,0,0,,6,,,54,127
40936,note_on,0,0,0,,10,,,57,127
41103,note_off,167,0,0,,2,,,50,127
41106,note_off,3,0,0,,10,,,57,127
41106,note_off,0,0,0,,6,,,54,127
41106,note_off,0,0,0,,2,,,38,127
41107,note_on,1,0,0,,7,,,43,127
41107,note_on,0,0,0,,7,,,55,127
41618,note_off,511,0,0,,7,,,55,127
41618,note_off,0,0,0,,7,,,43,127
41662,note_on,44,0,0,,7,,,67,127
41832,note_off,170,0,0,,7,,,67,127
41833,note_on,1,0,0,,12,,,71,127
42003,note_off,170,0,0,,12,,,71,127
42004,note_on,1,0,0,,2,,,74,127
42174,note_off,170,0,0,,2,,,74,127
42175,note_on,1,0,0,,5,,,77,127
42345,note_off,170,0,0,,5,,,77,127
42346,note_on,1,0,0,,2,,,74,127
42516,note_off,170,0,0,,2,,,74,127
42517,note_on,1,0,0,,5,,,77,127
42687,note_off,170,0,0,,5,,,77,127
42688,note_on,1,0,0,,5,,,77,127
42858,note_off,170,0,0,,5,,,77,127
42859,note_on,1,0,0,,2,,,74,127
43029,note_off,170,0,0,,2,,,74,127
43030,note_on,1,0,0,,5,,,77,127
43200,note_off,170,0,0,,5,,,77,127
43201,note_on,1,0,0,,5,,,77,127
43201,note_on,0,0,0,,7,,,55,127
43371,note_off,170,0,0,,7,,,55,127
43372,note_on,1,0,0,,12,,,59,127
43542,note_off,170,0,0,,12,,,59,127
43543,note_on,1,0,0,,2,,,62,127
43713,note_off,170,0,0,,2,,,62,127
43714,note_on,1,0,0,,5,,,65,127
43842,note_off,128,0,0,,5,,,77,127
43884,note_off,42,0,0,,5,,,65,127
43885,note_on,1,0,0,,10,,,81,127
43885,note_on,0,0,0,,2,,,62,127
44055,note_off,170,0,0,,2,,,62,127
44055,note_off,0,0,0,,10,,,81,127
44056,note_on,1,0,0,,5,,,77,127
44056,note_on,0,0,0,,5,,,65,127
44226,note_off,170,0,0,,5,,,65,127
44226,note_off,0,0,0,,5,,,77,127
44227,note_on,1,0,0,,2,,,74,127
44227,note_on,0,0,0,,5,,,65,127
44397,note_off,170,0,0,,5,,,65,127
44398,note_on,1,0,0,,10,,,81,127
44398,note_on,0,0,0,,2,,,62,127
44512,note_off,114,0,0,,2,,,74,127
44568,note_off,56,0,0,,2,,,62,127
44568,note_off,0,0,0,,10,,,81,127
44569,note_on,1,0,0,,5,,,77,127
44569,note_on,0,0,0,,5,,,65,127
44739,note_off,170,0,0,,5,,,65,127
44739,note_off,0,0,0,,5,,,77,127
44740,note_on,1,0,0,,2,,,74,127
44740,note_on,0,0,0,,5,,,65,127
44910,note_off,170,0,0,,5,,,65,127
44911,note_on,1,0,0,,7,,,79,127
44911,note_on,0,0,0,,11,,,70,127
45043,note_off,132,0,0,,2,,,74,127
45081,note_off,38,0,0,,11,,,70,127
45081,note_off,0,0,0,,7,,,79,127
45082,note_on,1,0,0,,4,,,76,127
45082,note_on,0,0,0,,7,,,67,127
45252,note_off,170,0,0,,7,,,67,127
45252,note_off,0,0,0,,4,,,76,127
45253,note_on,1,0,0,,1,,,73,127
45253,note_on,0,0,0,,4,,,64,127
45423,note_off,170,0,0,,4,,,64,127
45424,note_on,1,0,0,,11,,,82,127
45424,note_on,0,0,0,,7,,,67,127
45538,note_off,114,0,0,,1,,,73,127
45594,note_off,56,0,0,,7,,,67,127
45594,note_off,0,0,0,,11,,,82,127
45595,note_on,1,0,0,,7,,,79,127
45595,note_on,0,0,0,,4,,,64,127
45765,note_off,170,0,0,,4,,,64,127
45765,note_off,0,0,0,,7,,,79,127
45766,note_on,1,0,0,,4,,,76,127
45766,note_on,0,0,0,,1,,,61,127
45936,note_off,170,0,0,,1,,,61,127
45937,note_on,1,0,0,,7,,,79,127
45937,note_on,0,0,0,,4,,,64,127
46086,note_off,149,0,0,,4,,,76,127
46106,note_off,20,0,0,,4,,,64,127
46106,note_off,0,0,0,,7,,,79,127
46107,note_on,1,0,0,,4,,,76,127
46107,note_on,0,0,0,,1,,,61,127
46277,note_off,170,0,0,,1,,,61,127
46277,note_off,0,0,0,,4,,,76,127
46278,note_on,1,0,0,,1,,,73,127
46278,note_on,0,0,0,,10,,,57,127
46449,note_on,171,0,0,,5,,,77,127
46449,note_on,0,0,0,,10,,,69,127
46616,note_off,167,0,0,,1,,,73,127
46619,note_off,3,0,0,,10,,,69,127
46619,note_off,0,0,0,,5,,,77,127
46620,note_on,1,0,0,,4,,,76,127
46620,note_on,0,0,0,,7,,,67,127
46759,note_off,139,0,0,,10,,,57,127
46790,note_off,31,0,0,,7,,,67,127
46790,note_off,0,0,0,,4,,,76,127
46791,note_on,1,0,0,,2,,,74,127
46791,note_on,0,0,0,,4,,,76,127
46791,note_on,0,0,0,,5,,,65,127
46791,note_on,0,0,0,,11,,,58,127
46961,note_off,170,0,0,,5,,,65,127
46961,note_off,0,0,0,,4,,,76,127
46961,note_off,0,0,0,,2,,,74,127
46962,note_on,1,0,0,,1,,,73,127
46962,note_on,0,0,0,,4,,,64,127
47132,note_off,170,0,0,,4,,,64,127
47132,note_off,0,0,0,,1,,,73,127
47133,note_on,1,0,0,,2,,,74,127
47133,note_on,0,0,0,,5,,,65,127
47303,note_off,170,0,0,,11,,,58,127
47304,note_on,1,0,0,,11,,,70,127
47304,note_on,0,0,0,,7,,,55,127
47346,note_off,42,0,0,,2,,,74,127
47474,note_off,128,0,0,,5,,,65,127
47475,note_on,1,0,0,,4,,,76,127
47475,note_on,0,0,0,,7,,,67,127
47645,note_off,170,0,0,,7,,,67,127
47645,note_off,0,0,0,,4,,,76,127
47646,note_on,1,0,0,,2,,,74,127
47646,note_on,0,0,0,,5,,,65,127
47816,note_off,170,0,0,,5,,,65,127
47816,note_off,0,0,0,,2,,,74,127
47816,note_off,0,0,0,,7,,,55,127
47816,note_off,0,0,0,,11,,,70,127
47817,note_on,1,0,0,,10,,,69,127
47817,note_on,0,0,0,,1,,,73,127
47817,note_on,0,0,0,,10,,,57,127
47987,note_off,170,0,0,,1,,,73,127
47987,note_off,0,0,0,,10,,,69,127
47988,note_on,1,0,0,,5,,,77,127
47988,note_on,0,0,0,,10,,,69,127
48158,note_off,170,0,0,,10,,,69,127
48158,note_off,0,0,0,,5,,,77,127
48159,note_on,1,0,0,,4,,,76,127
48159,note_on,0,0,0,,7,,,67,127
48329,note_off,170,0,0,,7,,,67,127
48329,note_off,0,0,0,,4,,,76,127
48329,note_off,0,0,0,,10,,,57,127
48330,note_on,1,0,0,,2,,,74,127
48330,note_on,0,0,0,,4,,,76,127
48330,note_on,0,0,0,,5,,,65,127
48330,note_on,0,0,0,,11,,,58,127
48500,note_off,170,0,0,,5,,,65,127
48500,note_off,0,0,0,,4,,,76,127
48500,note_off,0,0,0,,2,,,74,127
48501,note_on,1,0,0,,1,,,73,127
48501,note_on,0,0,0,,4,,,64,127
48671,note_off,170,0,0,,4,,,64,127
48671,note_off,0,0,0,,1,,,73,127
48672,note_on,1,0,0,,2,,,74,127
48672,note_on,0,0,0,,5,,,65,127
48842,note_off,170,0,0,,2,,,74,127
48842,note_off,0,0,0,,11,,,58,127
48843,note_on,1,0,0,,11,,,70,127
48843,note_on,0,0,0,,7,,,55,127
49013,note_off,170,0,0,,5,,,65,127
49014,note_on,1,0,0,,4,,,76,127
49014,note_on,0,0,0,,7,,,67,127
49184,note_off,170,0,0,,7,,,67,127
49184,note_off,0,0,0,,4,,,76,127
49185,note_on,1,0,0,,2,,,74,127
49185,note_on,0,0,0,,5,,,65,127
49341,note_off,156,0,0,,7,,,55,127
49345,note_off,4,0,0,,2,,,74,127
49347,note_off,2,0,0,,11,,,70,127
49350,note_off,3,0,0,,5,,,65,127
49356,note_on,6,0,0,,1,,,73,127
49356,note_on,0,0,0,,10,,,81,127
49356,note_on,0,0,0,,4,,,64,127
49356,note_on,0,0,0,,10,,,57,127
49526,note_off,170,0,0,,10,,,57,127
49526,note_off,0,0,0,,1,,,73,127
49527,note_on,1,0,0,,2,,,74,127
49527,note_on,0,0,0,,12,,,59,127
49697,note_off,170,0,0,,12,,,59,127
49697,note_off,0,0,0,,2,,,74,127
49697,note_off,0,0,0,,10,,,81,127
49698,note_on,1,0,0,,4,,,76,127
49698,note_on,0,0,0,,7,,,79,127
49698,note_on,0,0,0,,1,,,61,127
49862,note_off,164,0,0,,7,,,79,127
49862,note_off,0,0,0,,4,,,76,127
49868,note_off,6,0,0,,1,,,61,127
49868,note_off,0,0,0,,4,,,64,127
49869,note_on,1,0,0,,5,,,77,127
49869,note_on,0,0,0,,2,,,74,127
50039,note_off,170,0,0,,2,,,74,127
50040,note_on,1,0,0,,10,,,81,127
50040,note_on,0,0,0,,2,,,62,127
50154,note_off,114,0,0,,5,,,77,127
50210,note_off,56,0,0,,2,,,62,127
50210,note_off,0,0,0,,10,,,81,127
50211,note_on,1,0,0,,2,,,74,127
50211,note_on,0,0,0,,12,,,71,127
50381,note_off,170,0,0,,12,,,71,127
50381,note_off,0,0,0,,2,,,74,127
50382,note_on,1,0,0,,4,,,76,127
50382,note_on,0,0,0,,0,,,72,127
50552,note_off,170,0,0,,0,,,72,127
50553,note_on,1,0,0,,10,,,81,127
50553,note_on,0,0,0,,0,,,60,127
50667,note_off,114,0,0,,4,,,76,127
50723,note_off,56,0,0,,0,,,60,127
50723,note_off,0,0,0,,10,,,81,127
50724,note_on,1,0,0,,1,,,73,127
50724,note_on,0,0,0,,10,,,69,127
50894,note_off,170,0,0,,10,,,69,127
50894,note_off,0,0,0,,1,,,73,127
50895,note_on,1,0,0,,2,,,74,127
50895,note_on,0,0,0,,11,,,70,127
51065,note_off,170,0,0,,11,,,70,127
51066,note_on,1,0,0,,10,,,81,127
51066,note_on,0,0,0,,11,,,58,127
51180,note_off,114,0,0,,2,,,74,127
51236,note_off,56,0,0,,11,,,58,127
51236,note_off,0,0,0,,10,,,81,127
51237,note_on,1,0,0,,12,,,71,127
51237,note_on,0,0,0,,7,,,67,127
51407,note_off,170,0,0,,7,,,67,127
51407,note_off,0,0,0,,12,,,71,127
51408,note_on,1,0,0,,1,,,73,127
51408,note_on,0,0,0,,10,,,69,127
51578,note_off,170,0,0,,10,,,69,127
51579,note_on,1,0,0,,10,,,81,127
51579,note_on,0,0,0,,10,,,57,127
51693,note_off,114,0,0,,1,,,73,127
51749,note_off,56,0,0,,10,,,57,127
51749,note_off,0,0,0,,10,,,81,127
51750,note_on,1,0,0,,10,,,69,127
51750,note_on,0,0,0,,5,,,65,127
51920,note_off,170,0,0,,5,,,65,127
51920,note_off,0,0,0,,10,,,69,127
51921,note_on,1,0,0,,11,,,70,127
51921,note_on,0,0,0,,7,,,67,127
52091,note_off,170,0,0,,7,,,67,127
52092,note_on,1,0,0,,10,,,81,127
52092,note_on,0,0,0,,7,,,55,127
52206,note_off,114,0,0,,11,,,70,127
52262,note_off,56,0,0,,7,,,55,127
52262,note_off,0,0,0,,10,,,81,127
52263,note_on,1,0,0,,7,,,67,127
52263,note_on,0,0,0,,4,,,64,127
52433,note_off,170,0,0,,4,,,64,127
52433,note_off,0,0,0,,7,,,67,127
52434,note_on,1,0,0,,10,,,69,127
52434,note_on,0,0,0,,5,,,65,127
52604,note_off,170,0,0,,5,,,65,127
52605,note_on,1,0,0,,10,,,81,127
52605,note_on,0,0,0,,5,,,53,127
52719,note_off,114,0,0,,10,,,69,127
52775,note_off,56,0,0,,5,,,53,127
52775,note_off,0,0,0,,10,,,81,127
52776,note_on,1,0,0,,5,,,65,127
52776,note_on,0,0,0,,2,,,62,127
52946,note_off,170,0,0,,2,,,62,127
52946,note_off,0,0,0,,5,,,65,127
52947,note_on,1,0,0,,7,,,67,127
52947,note_on,0,0,0,,4,,,64,127
53117,note_off,170,0,0,,4,,,64,127
53118,note_on,1,0,0,,10,,,81,127
53118,note_on,0,0,0,,1,,,61,127
53196,note_off,78,0,0,,7,,,67,127
53288,note_off,92,0,0,,1,,,61,127
53288,note_off,0,0,0,,10,,,81,127
53289,note_on,1,0,0,,4,,,64,127
53289,note_on,0,0,0,,10,,,57,127
53440,note_off,151,0,0,,4,,,64,127
53459,note_off,19,0,0,,10,,,57,127
53474,note_on,15,0,0,,2,,,50,127
53474,note_on,0,0,0,,6,,,66,127
53644,note_off,170,0,0,,6,,,66,127
53645,note_on,1,0,0,,10,,,69,127
53815,note_off,170,0,0,,10,,,69,127
53815,note_off,0,0,0,,2,,,50,127
53816,note_on,1,0,0,,2,,,62,127
53816,note_on,0,0,0,,0,,,72,127
53986,note_off,170,0,0,,0,,,72,127
53986,note_off,0,0,0,,2,,,62,127
53987,note_on,1,0,0,,6,,,54,127
53987,note_on,0,0,0,,6,,,78,127
54157,note_off,170,0,0,,6,,,78,127
54158,note_on,1,0,0,,10,,,81,127
54328,note_off,170,0,0,,10,,,81,127
54328,note_off,0,0,0,,6,,,54,127
54329,note_on,1,0,0,,2,,,50,127
54329,note_on,0,0,0,,0,,,84,127
54499,note_off,170,0,0,,0,,,84,127
54499,note_off,0,0,0,,2,,,50,127
54500,note_on,1,0,0,,7,,,55,127
54500,note_on,0,0,0,,11,,,82,127
54556,note_off,56,0,0,,11,,,82,127
54557,note_on,1,0,0,,0,,,84,127
54613,note_off,56,0,0,,0,,,84,127
54614,note_on,1,0,0,,11,,,82,127
54670,note_off,56,0,0,,11,,,82,127
54670,note_off,0,0,0,,7,,,55,127
54671,note_on,1,0,0,,10,,,57,127
54671,note_on,0,0,0,,10,,,81,127
54841,note_off,170,0,0,,10,,,81,127
54841,note_off,0,0,0,,10,,,57,127
54842,note_on,1,0,0,,11,,,58,127
54842,note_on,0,0,0,,7,,,79,127
55012,note_off,170,0,0,,7,,,79,127
55012,note_off,0,0,0,,11,,,58,127
55013,note_on,1,0,0,,0,,,60,127
55013,note_on,0,0,0,,3,,,75,127
55069,note_off,56,0,0,,3,,,75,127
55070,note_on,1,0,0,,5,,,77,127
55126,note_off,56,0,0,,5,,,77,127
55127,note_on,1,0,0,,3,,,75,127
55183,note_off,56,0,0,,3,,,75,127
55183,note_off,0,0,0,,0,,,60,127
55184,note_on,1,0,0,,2,,,62,127
55184,note_on,0,0,0,,2,,,74,127
55354,note_off,170,0,0,,2,,,74,127
55354,note_off,0,0,0,,2,,,62,127
55355,note_on,1,0,0,,2,,,50,127
55355,note_on,0,0,0,,0,,,72,127
55497,note_off,142,0,0,,0,,,72,127
55525,note_off,28,0,0,,2,,,50,127
55540,note_on,15,0,0,,5,,,65,127
55540,note_on,0,0,0,,7,,,55,127
55710,note_off,170,0,0,,5,,,65,127
55711,note_on,1,0,0,,8,,,68,127
55881,note_off,170,0,0,,8,,,68,127
55881,note_off,0,0,0,,7,,,55,127
55882,note_on,1,0,0,,12,,,71,127
55882,note_on,0,0,0,,2,,,62,127
56052,note_off,170,0,0,,2,,,62,127
56052,note_off,0,0,0,,12,,,71,127
56053,note_on,1,0,0,,2,,,74,127
56053,note_on,0,0,0,,5,,,53,127
56223,note_off,170,0,0,,2,,,74,127
56224,note_on,1,0,0,,5,,,77,127
56394,note_off,170,0,0,,5,,,77,127
56394,note_off,0,0,0,,5,,,53,127
56395,note_on,1,0,0,,12,,,83,127
56395,note_on,0,0,0,,2,,,50,127
56565,note_off,170,0,0,,2,,,50,127
56565,note_off,0,0,0,,12,,,83,127
56566,note_on,1,0,0,,0,,,84,127
56566,note_on,0,0,0,,3,,,51,127
56736,note_off,170,0,0,,0,,,84,127
56737,note_on,1,0,0,,7,,,79,127
56907,note_off,170,0,0,,7,,,79,127
56908,note_on,1,0,0,,0,,,72,127
56908,note_on,0,0,0,,0,,,60,127
57078,note_off,170,0,0,,0,,,72,127
57078,note_off,0,0,0,,3,,,51,127
57079,note_on,1,0,0,,5,,,77,127
57079,note_on,0,0,0,,5,,,53,127
57249,note_off,170,0,0,,5,,,53,127
57249,note_off,0,0,0,,5,,,77,127
57249,note_off,0,0,0,,0,,,60,127
57250,note_on,1,0,0,,3,,,75,127
57250,note_on,0,0,0,,7,,,55,127
57306,note_off,56,0,0,,3,,,75,127
57307,note_on,1,0,0,,5,,,77,127
57363,note_off,56,0,0,,5,,,77,127
57364,note_on,1,0,0,,3,,,75,127
57420,note_off,56,0,0,,3,,,75,127
57421,note_on,1,0,0,,2,,,74,127
57421,note_on,0,0,0,,12,,,59,127
57567,note_off,146,0,0,,2,,,74,127
57591,note_off,24,0,0,,12,,,59,127
57591,note_off,0,0,0,,7,,,55,127
57606,note_on,15,0,0,,0,,,48,127
57606,note_on,0,0,0,,4,,,64,127
57776,note_off,170,0,0,,4,,,64,127
57777,note_on,1,0,0,,7,,,67,127
57947,note_off,170,0,0,,7,,,67,127
57947,note_off,0,0,0,,0,,,48,127
57948,note_on,1,0,0,,0,,,60,127
57948,note_on,0,0,0,,11,,,70,127
58118,note_off,170,0,0,,11,,,70,127
58118,note_off,0,0,0,,0,,,60,127
58119,note_on,1,0,0,,11,,,58,127
58119,note_on,0,0,0,,1,,,73,127
58289,note_off,170,0,0,,1,,,73,127
58290,note_on,1,0,0,,7,,,79,127
58460,note_off,170,0,0,,7,,,79,127
58460,note_off,0,0,0,,11,,,58,127
58461,note_on,1,0,0,,4,,,52,127
58461,note_on,0,0,0,,11,,,82,127
58631,note_off,170,0,0,,11,,,82,127
58631,note_off,0,0,0,,4,,,52,127
58632,note_on,1,0,0,,5,,,53,127
58632,note_on,0,0,0,,8,,,80,127
58688,note_off,56,0,0,,8,,,80,127
58689,note_on,1,0,0,,11,,,82,127
58745,note_off,56,0,0,,11,,,82,127
58746,note_on,1,0,0,,8,,,80,127
58802,note_off,56,0,0,,8,,,80,127
58802,note_off,0,0,0,,5,,,53,127
58803,note_on,1,0,0,,7,,,55,127
58803,note_on,0,0,0,,7,,,79,127
58973,note_off,170,0,0,,7,,,79,127
58973,note_off,0,0,0,,7,,,55,127
58974,note_on,1,0,0,,8,,,56,127
58974,note_on,0,0,0,,5,,,77,127
59144,note_off,170,0,0,,5,,,77,127
59144,note_off,0,0,0,,8,,,56,127
59145,note_on,1,0,0,,11,,,58,127
59145,note_on,0,0,0,,3,,,75,127
59187,note_off,42,0,0,,3,,,75,127
59188,note_on,1,0,0,,1,,,73,127
59230,note_off,42,0,0,,1,,,73,127
59231,note_on,1,0,0,,3,,,75,127
59273,note_off,42,0,0,,3,,,75,127
59274,note_on,1,0,0,,1,,,73,127
59316,note_off,42,0,0,,1,,,73,127
59316,note_off,0,0,0,,11,,,58,127
59317,note_on,1,0,0,,0,,,60,127
59317,note_on,0,0,0,,0,,,72,127
59487,note_off,170,0,0,,0,,,72,127
59487,note_off,0,0,0,,0,,,60,127
59488,note_on,1,0,0,,0,,,48,127
59488,note_on,0,0,0,,11,,,70,127
59640,note_off,152,0,0,,11,,,70,127
59658,note_off,18,0,0,,0,,,48,127
59673,note_on,15,0,0,,5,,,65,127
59673,note_on,0,0,0,,5,,,53,127
59843,note_off,170,0,0,,5,,,65,127
59844,note_on,1,0,0,,10,,,69,127
60014,note_off,170,0,0,,10,,,69,127
60014,note_off,0,0,0,,5,,,53,127
60015,note_on,1,0,0,,0,,,72,127
60015,note_on,0,0,0,,0,,,60,127
60185,note_off,170,0,0,,0,,,60,127
60185,note_off,0,0,0,,0,,,72,127
60186,note_on,1,0,0,,3,,,75,127
60186,note_on,0,0,0,,3,,,51,127
60356,note_off,170,0,0,,3,,,75,127
60357,note_on,1,0,0,,10,,,81,127
60527,note_off,170,0,0,,10,,,81,127
60527,note_off,0,0,0,,3,,,51,127
60528,note_on,1,0,0,,0,,,84,127
60528,note_on,0,0,0,,10,,,57,127
60698,note_off,170,0,0,,10,,,57,127
60698,note_off,0,0,0,,0,,,84,127
60699,note_on,1,0,0,,1,,,85,127
60699,note_on,0,0,0,,11,,,58,127
60699,note_on,0,0,0,,11,,,46,127
60869,note_off,170,0,0,,1,,,85,127
60870,note_on,1,0,0,,10,,,81,127
61040,note_off,170,0,0,,10,,,81,127
61040,note_off,0,0,0,,11,,,46,127
61041,note_on,1,0,0,,11,,,82,127
61041,note_on,0,0,0,,1,,,49,127
61211,note_off,170,0,0,,1,,,49,127
61211,note_off,0,0,0,,11,,,82,127
61212,note_on,1,0,0,,6,,,78,127
61212,note_on,0,0,0,,3,,,51,127
61382,note_off,170,0,0,,3,,,51,127
61382,note_off,0,0,0,,6,,,78,127
61383,note_on,1,0,0,,5,,,77,127
61383,note_on,0,0,0,,5,,,53,127
61439,note_off,56,0,0,,5,,,77,127
61440,note_on,1,0,0,,6,,,78,127
61496,note_off,56,0,0,,6,,,78,127
61497,note_on,1,0,0,,5,,,77,127
61552,note_off,55,0,0,,11,,,58,127
61553,note_off,1,0,0,,5,,,77,127
61554,note_on,1,0,0,,3,,,75,127
61554,note_on,0,0,0,,10,,,57,127
61714,note_off,160,0,0,,3,,,75,127
61724,note_off,10,0,0,,10,,,57,127
61724,note_off,0,0,0,,5,,,53,127
61739,note_on,15,0,0,,11,,,46,127
61739,note_on,0,0,0,,5,,,65,127
61909,note_off,170,0,0,,5,,,65,127
61910,note_on,1,0,0,,8,,,68,127
62080,note_off,170,0,0,,8,,,68,127
62080,note_off,0,0,0,,11,,,46,127
62081,note_on,1,0,0,,11,,,58,127
62081,note_on,0,0,0,,11,,,70,127
62251,note_off,170,0,0,,11,,,70,127
62251,note_off,0,0,0,,11,,,58,127
62252,note_on,1,0,0,,8,,,56,127
62252,note_on,0,0,0,,2,,,74,127
62422,note_off,170,0,0,,2,,,74,127
62423,note_on,1,0,0,,5,,,77,127
62593,note_off,170,0,0,,5,,,77,127
62593,note_off,0,0,0,,8,,,56,127
62594,note_on,1,0,0,,2,,,50,127
62594,note_on,0,0,0,,8,,,80,127
62764,note_off,170,0,0,,8,,,80,127
62764,note_off,0,0,0,,2,,,50,127
62765,note_on,1,0,0,,3,,,51,127
62765,note_on,0,0,0,,6,,,78,127
62821,note_off,56,0,0,,6,,,78,127
62822,note_on,1,0,0,,8,,,80,127
62878,note_off,56,0,0,,8,,,80,127
62879,note_on,1,0,0,,6,,,78,127
62935,note_off,56,0,0,,6,,,78,127
62935,note_off,0,0,0,,3,,,51,127
62936,note_on,1,0,0,,5,,,53,127
62936,note_on,0,0,0,,5,,,77,127
63106,note_off,170,0,0,,5,,,77,127
63106,note_off,0,0,0,,5,,,53,127
63107,note_on,1,0,0,,6,,,54,127
63107,note_on,0,0,0,,3,,,75,127
63277,note_off,170,0,0,,3,,,75,127
63277,note_off,0,0,0,,6,,,54,127
63278,note_on,1,0,0,,8,,,56,127
63278,note_on,0,0,0,,1,,,73,127
63320,note_off,42,0,0,,1,,,73,127
63321,note_on,1,0,0,,12,,,71,127
63363,note_off,42,0,0,,12,,,71,127
63364,note_on,1,0,0,,1,,,73,127
63406,note_off,42,0,0,,1,,,73,127
63407,note_on,1,0,0,,12,,,71,127
63449,note_off,42,0,0,,12,,,71,127
63449,note_off,0,0,0,,8,,,56,127
63450,note_on,1,0,0,,11,,,58,127
63450,note_on,0,0,0,,11,,,70,127
63620,note_off,170,0,0,,11,,,70,127
63620,note_off,0,0,0,,11,,,58,127
63621,note_on,1,0,0,,11,,,46,127
63621,note_on,0,0,0,,8,,,68,127
63791,note_off,170,0,0,,8,,,68,127
63791,note_off,0,0,0,,11,,,46,127
63792,note_on,1,0,0,,3,,,51,127
63792,note_on,0,0,0,,6,,,66,127
63962,note_off,170,0,0,,3,,,51,127
63963,note_on,1,0,0,,3,,,63,127
63963,note_on,0,0,0,,6,,,78,127
63963,note_on,0,0,0,,3,,,75,127
64130,note_off,167,0,0,,6,,,66,127
64133,note_off,3,0,0,,3,,,75,127
64133,note_off,0,0,0,,3,,,63,127
64134,note_on,1,0,0,,6,,,54,127
64134,note_on,0,0,0,,11,,,70,127
64304,note_off,170,0,0,,11,,,70,127
64304,note_off,0,0,0,,6,,,54,127
64305,note_on,1,0,0,,5,,,53,127
64305,note_on,0,0,0,,10,,,69,127
64475,note_off,170,0,0,,10,,,69,127
64475,note_off,0,0,0,,5,,,53,127
64475,note_off,0,0,0,,6,,,78,127
64476,note_on,1,0,0,,3,,,63,127
64476,note_on,0,0,0,,6,,,78,127
64476,note_on,0,0,0,,3,,,75,127
64646,note_off,170,0,0,,3,,,75,127
64646,note_off,0,0,0,,3,,,63,127
64647,note_on,1,0,0,,6,,,54,127
64647,note_on,0,0,0,,11,,,70,127
64817,note_off,170,0,0,,11,,,70,127
64817,note_off,0,0,0,,6,,,54,127
64818,note_on,1,0,0,,5,,,53,127
64818,note_on,0,0,0,,10,,,69,127
64988,note_off,170,0,0,,10,,,69,127
64988,note_off,0,0,0,,5,,,53,127
64988,note_off,0,0,0,,6,,,78,127
64989,note_on,1,0,0,,3,,,63,127
64989,note_on,0,0,0,,6,,,78,127
64989,note_on,0,0,0,,3,,,75,127
65159,note_off,170,0,0,,3,,,75,127
65159,note_off,0,0,0,,3,,,63,127
65160,note_on,1,0,0,,6,,,54,127
65160,note_on,0,0,0,,11,,,70,127
65330,note_off,170,0,0,,11,,,70,127
65330,note_off,0,0,0,,6,,,54,127
65331,note_on,1,0,0,,5,,,53,127
65331,note_on,0,0,0,,10,,,69,127
65501,note_off,170,0,0,,10,,,69,127
65501,note_off,0,0,0,,6,,,78,127
65502,note_on,1,0,0,,6,,,78,127
65502,note_on,0,0,0,,3,,,75,127
65672,note_off,170,0,0,,3,,,75,127
65672,note_off,0,0,0,,6,,,78,127
65673,note_on,1,0,0,,1,,,73,127
65673,note_on,0,0,0,,5,,,77,127
65843,note_off,170,0,0,,5,,,77,127
65843,note_off,0,0,0,,1,,,73,127
65843,note_off,0,0,0,,5,,,53,127
65844,note_on,1,0,0,,5,,,53,127
65844,note_on,0,0,0,,3,,,75,127
65844,note_on,0,0,0,,0,,,72,127
66014,note_off,170,0,0,,0,,,72,127
66014,note_off,0,0,0,,3,,,75,127
66014,note_off,0,0,0,,5,,,53,127
66015,note_on,1,0,0,,7,,,55,127
66015,note_on,0,0,0,,11,,,70,127
66015,note_on,0,0,0,,1,,,73,127
66185,note_off,170,0,0,,1,,,73,127
66185,note_off,0,0,0,,11,,,70,127
66185,note_off,0,0,0,,7,,,55,127
66186,note_on,1,0,0,,10,,,57,127
66186,note_on,0,0,0,,0,,,72,127
66186,note_on,0,0,0,,10,,,69,127
66346,note_off,160,0,0,,10,,,69,127
66346,note_off,0,0,0,,0,,,72,127
66356,note_off,10,0,0,,10,,,57,127
66357,note_on,1,0,0,,11,,,58,127
66357,note_on,0,0,0,,11,,,70,127
66527,note_off,170,0,0,,11,,,70,127
66528,note_on,1,0,0,,5,,,65,127
66528,note_on,0,0,0,,8,,,80,127
66528,note_on,0,0,0,,5,,,77,127
66613,note_off,85,0,0,,11,,,58,127
66697,note_off,84,0,0,,5,,,77,127
66697,note_off,0,0,0,,5,,,65,127
66698,note_on,1,0,0,,5,,,53,127
66698,note_on,0,0,0,,0,,,72,127
66868,note_off,170,0,0,,0,,,72,127
66868,note_off,0,0,0,,5,,,53,127
66869,note_on,1,0,0,,7,,,55,127
66869,note_on,0,0,0,,12,,,71,127
67039,note_off,170,0,0,,12,,,71,127
67039,note_off,0,0,0,,8,,,80,127
67040,note_on,1,0,0,,5,,,65,127
67040,note_on,0,0,0,,5,,,77,127
67040,note_on,0,0,0,,8,,,80,127
67125,note_off,85,0,0,,7,,,55,127
67209,note_off,84,0,0,,5,,,77,127
67209,note_off,0,0,0,,5,,,65,127
67210,note_on,1,0,0,,8,,,56,127
67210,note_on,0,0,0,,0,,,72,127
67380,note_off,170,0,0,,0,,,72,127
67380,note_off,0,0,0,,8,,,56,127
67381,note_on,1,0,0,,7,,,55,127
67381,note_on,0,0,0,,12,,,71,127
67551,note_off,170,0,0,,12,,,71,127
67551,note_off,0,0,0,,8,,,80,127
67552,note_on,1,0,0,,5,,,65,127
67552,note_on,0,0,0,,8,,,80,127
67552,note_on,0,0,0,,5,,,77,127
67637,note_off,85,0,0,,7,,,55,127
67721,note_off,84,0,0,,5,,,77,127
67721,note_off,0,0,0,,5,,,65,127
67722,note_on,1,0,0,,8,,,56,127
67722,note_on,0,0,0,,0,,,72,127
67892,note_off,170,0,0,,0,,,72,127
67892,note_off,0,0,0,,8,,,56,127
67893,note_on,1,0,0,,7,,,55,127
67893,note_on,0,0,0,,12,,,71,127
68063,note_off,170,0,0,,12,,,71,127
68063,note_off,0,0,0,,8,,,80,127
68064,note_on,1,0,0,,5,,,77,127
68064,note_on,0,0,0,,8,,,80,127
68234,note_off,170,0,0,,8,,,80,127
68234,note_off,0,0,0,,5,,,77,127
68235,note_on,1,0,0,,7,,,79,127
68235,note_on,0,0,0,,3,,,75,127
68405,note_off,170,0,0,,3,,,75,127
68405,note_off,0,0,0,,7,,,79,127
68405,note_off,0,0,0,,7,,,55,127
68406,note_on,1,0,0,,7,,,55,127
68406,note_on,0,0,0,,5,,,77,127
68406,note_on,0,0,0,,2,,,74,127
68576,note_off,170,0,0,,2,,,74,127
68576,note_off,0,0,0,,5,,,77,127
68576,note_off,0,0,0,,7,,,55,127
68577,note_on,1,0,0,,10,,,57,127
68577,note_on,0,0,0,,0,,,72,127
68577,note_on,0,0,0,,3,,,75,127
68747,note_off,170,0,0,,3,,,75,127
68747,note_off,0,0,0,,0,,,72,127
68747,note_off,0,0,0,,10,,,57,127
68748,note_on,1,0,0,,12,,,59,127
68748,note_on,0,0,0,,2,,,74,127
68748,note_on,0,0,0,,12,,,71,127
68918,note_off,170,0,0,,12,,,71,127
68918,note_off,0,0,0,,2,,,74,127
68918,note_off,0,0,0,,12,,,59,127
68926,note_on,8,0,0,,3,,,75,127
68926,note_on,0,0,0,,0,,,60,127
68926,note_on,0,0,0,,7,,,67,127
68926,note_on,0,0,0,,0,,,72,127
69096,note_off,170,0,0,,0,,,60,127
69096,note_off,0,0,0,,3,,,75,127
69104,note_on,8,0,0,,6,,,78,127
69104,note_on,0,0,0,,2,,,62,127
69274,note_off,170,0,0,,2,,,62,127
69274,note_off,0,0,0,,6,,,78,127
69275,note_on,1,0,0,,7,,,79,127
69275,note_on,0,0,0,,3,,,63,127
69438,note_off,163,0,0,,0,,,72,127
69438,note_off,0,0,0,,7,,,67,127
69445,note_off,7,0,0,,3,,,63,127
69445,note_off,0,0,0,,7,,,79,127
69446,note_on,1,0,0,,2,,,74,127
69446,note_on,0,0,0,,6,,,78,127
69446,note_on,0,0,0,,2,,,62,127
69616,note_off,170,0,0,,2,,,62,127
69616,note_off,0,0,0,,6,,,78,127
69617,note_on,1,0,0,,7,,,79,127
69617,note_on,0,0,0,,4,,,64,127
69787,note_off,170,0,0,,4,,,64,127
69787,note_off,0,0,0,,7,,,79,127
69788,note_on,1,0,0,,10,,,81,127
69788,note_on,0,0,0,,6,,,66,127
69958,note_off,170,0,0,,6,,,66,127
69958,note_off,0,0,0,,10,,,81,127
69958,note_off,0,0,0,,2,,,74,127
69959,note_on,1,0,0,,12,,,71,127
69959,note_on,0,0,0,,7,,,79,127
69959,note_on,0,0,0,,7,,,67,127
70129,note_off,170,0,0,,7,,,67,127
70129,note_off,0,0,0,,12,,,71,127
70130,note_on,1,0,0,,0,,,72,127
70130,note_on,0,0,0,,10,,,69,127
70300,note_off,170,0,0,,10,,,69,127
70300,note_off,0,0,0,,0,,,72,127
70301,note_on,1,0,0,,2,,,74,127
70301,note_on,0,0,0,,12,,,71,127
70393,note_off,92,0,0,,7,,,79,127
70461,note_off,68,0,0,,12,,,71,127
70461,note_off,0,0,0,,2,,,74,127
70472,note_on,11,0,0,,4,,,76,127
70472,note_on,0,0,0,,0,,,72,127
70642,note_off,170,0,0,,0,,,72,127
70643,note_on,1,0,0,,7,,,79,127
70643,note_on,0,0,0,,0,,,60,127
70757,note_off,114,0,0,,4,,,76,127
70813,note_off,56,0,0,,0,,,60,127
70813,note_off,0,0,0,,7,,,79,127
70814,note_on,1,0,0,,0,,,72,127
70814,note_on,0,0,0,,10,,,69,127
70984,note_off,170,0,0,,10,,,69,127
70984,note_off,0,0,0,,0,,,72,127
70985,note_on,1,0,0,,2,,,74,127
70985,note_on,0,0,0,,12,,,71,127
71155,note_off,170,0,0,,12,,,71,127
71156,note_on,1,0,0,,7,,,79,127
71156,note_on,0,0,0,,12,,,59,127
71270,note_off,114,0,0,,2,,,74,127
71326,note_off,56,0,0,,12,,,59,127
71326,note_off,0,0,0,,7,,,79,127
71327,note_on,1,0,0,,12,,,71,127
71327,note_on,0,0,0,,7,,,67,127
71497,note_off,170,0,0,,7,,,67,127
71497,note_off,0,0,0,,12,,,71,127
71498,note_on,1,0,0,,0,,,72,127
71498,note_on,0,0,0,,10,,,69,127
71668,note_off,170,0,0,,10,,,69,127
71669,note_on,1,0,0,,7,,,79,127
71669,note_on,0,0,0,,10,,,57,127
71783,note_off,114,0,0,,0,,,72,127
71839,note_off,56,0,0,,10,,,57,127
71839,note_off,0,0,0,,7,,,79,127
71840,note_on,1,0,0,,10,,,69,127
71840,note_on,0,0,0,,5,,,65,127
72010,note_off,170,0,0,,5,,,65,127
72010,note_off,0,0,0,,10,,,69,127
72011,note_on,1,0,0,,12,,,71,127
72011,note_on,0,0,0,,7,,,67,127
72181,note_off,170,0,0,,7,,,67,127
72182,note_on,1,0,0,,7,,,79,127
72182,note_on,0,0,0,,7,,,55,127
72296,note_off,114,0,0,,12,,,71,127
72352,note_off,56,0,0,,7,,,55,127
72352,note_off,0,0,0,,7,,,79,127
72353,note_on,1,0,0,,7,,,67,127
72353,note_on,0,0,0,,4,,,64,127
72523,note_off,170,0,0,,4,,,64,127
72523,note_off,0,0,0,,7,,,67,127
72524,note_on,1,0,0,,10,,,69,127
72524,note_on,0,0,0,,5,,,65,127
72694,note_off,170,0,0,,5,,,65,127
72695,note_on,1,0,0,,7,,,79,127
72695,note_on,0,0,0,,5,,,53,127
72809,note_off,114,0,0,,10,,,69,127
72865,note_off,56,0,0,,5,,,53,127
72865,note_off,0,0,0,,7,,,79,127
72866,note_on,1,0,0,,5,,,65,127
72866,note_on,0,0,0,,2,,,62,127
73036,note_off,170,0,0,,2,,,62,127
73036,note_off,0,0,0,,5,,,65,127
73037,note_on,1,0,0,,7,,,67,127
73037,note_on,0,0,0,,4,,,64,127
73207,note_off,170,0,0,,4,,,64,127
73208,note_on,1,0,0,,7,,,79,127
73208,note_on,0,0,0,,4,,,52,127
73322,note_off,114,0,0,,7,,,67,127
73378,note_off,56,0,0,,4,,,52,127
73378,note_off,0,0,0,,7,,,79,127
73379,note_on,1,0,0,,4,,,64,127
73379,note_on,0,0,0,,0,,,60,127
73549,note_off,170,0,0,,0,,,60,127
73549,note_off,0,0,0,,4,,,64,127
73550,note_on,1,0,0,,5,,,65,127
73550,note_on,0,0,0,,2,,,62,127
73720,note_off,170,0,0,,2,,,62,127
73721,note_on,1,0,0,,7,,,79,127
73721,note_on,0,0,0,,2,,,50,127
73799,note_off,78,0,0,,5,,,65,127
73891,note_off,92,0,0,,2,,,50,127
73891,note_off,0,0,0,,7,,,79,127
73892,note_on,1,0,0,,2,,,62,127
73892,note_on,0,0,0,,12,,,59,127
74062,note_off,170,0,0,,12,,,59,127
74062,note_off,0,0,0,,2,,,62,127
74077,note_on,15,0,0,,0,,,48,127
74077,note_on,0,0,0,,0,,,60,127
74077,note_on,0,0,0,,4,,,64,127
74247,note_off,170,0,0,,4,,,64,127
74247,note_off,0,0,0,,0,,,48,127
74248,note_on,1,0,0,,2,,,50,127
74248,note_on,0,0,0,,5,,,65,127
74418,note_off,170,0,0,,5,,,65,127
74418,note_off,0,0,0,,2,,,50,127
74419,note_on,1,0,0,,4,,,52,127
74419,note_on,0,0,0,,7,,,67,127
74589,note_off,170,0,0,,7,,,67,127
74589,note_off,0,0,0,,4,,,52,127
74590,note_on,1,0,0,,5,,,53,127
74590,note_on,0,0,0,,8,,,68,127
74760,note_off,170,0,0,,8,,,68,127
74761,note_on,1,0,0,,10,,,69,127
74931,note_off,170,0,0,,10,,,69,127
74932,note_on,1,0,0,,0,,,72,127
75092,note_off,160,0,0,,0,,,72,127
75101,note_off,9,0,0,,0,,,60,127
75102,note_off,1,0,0,,5,,,53,127
75103,note_on,1,0,0,,7,,,55,127
75103,note_on,0,0,0,,12,,,71,127
75273,note_off,170,0,0,,12,,,71,127
75273,note_off,0,0,0,,7,,,55,127
75274,note_on,1,0,0,,10,,,57,127
75274,note_on,0,0,0,,0,,,72,127
75444,note_off,170,0,0,,0,,,72,127
75444,note_off,0,0,0,,10,,,57,127
75445,note_on,1,0,0,,12,,,59,127
75445,note_on,0,0,0,,2,,,74,127
75615,note_off,170,0,0,,2,,,74,127
75615,note_off,0,0,0,,12,,,59,127
75616,note_on,1,0,0,,0,,,48,127
75616,note_on,0,0,0,,0,,,60,127
75616,note_on,0,0,0,,3,,,75,127
75786,note_off,170,0,0,,3,,,75,127
75787,note_on,1,0,0,,4,,,76,127
75957,note_off,170,0,0,,4,,,76,127
75958,note_on,1,0,0,,5,,,77,127
76128,note_off,170,0,0,,5,,,77,127
76128,note_off,0,0,0,,0,,,60,127
76128,note_off,0,0,0,,0,,,48,127
76129,note_on,1,0,0,,0,,,48,127
76129,note_on,0,0,0,,0,,,60,127
76129,note_on,0,0,0,,7,,,79,127
76299,note_off,170,0,0,,7,,,79,127
76299,note_off,0,0,0,,0,,,48,127
76300,note_on,1,0,0,,5,,,53,127
76300,note_on,0,0,0,,8,,,80,127
76470,note_off,170,0,0,,8,,,80,127
76471,note_on,1,0,0,,10,,,81,127
76641,note_off,170,0,0,,10,,,81,127
76642,note_on,1,0,0,,12,,,83,127
76812,note_off,170,0,0,,12,,,83,127
76813,note_on,1,0,0,,0,,,84,127
76983,note_off,170,0,0,,0,,,84,127
76983,note_off,0,0,0,,5,,,53,127
76984,note_on,1,0,0,,4,,,52,127
76984,note_on,0,0,0,,7,,,79,127
77153,note_off,169,0,0,,0,,,60,127
77154,note_off,1,0,0,,7,,,79,127
77154,note_off,0,0,0,,4,,,52,127
77155,note_on,1,0,0,,5,,,53,127
77155,note_on,0,0,0,,0,,,60,127
77155,note_on,0,0,0,,5,,,77,127
77325,note_off,170,0,0,,5,,,77,127
77325,note_off,0,0,0,,5,,,53,127
77326,note_on,1,0,0,,7,,,55,127
77326,note_on,0,0,0,,4,,,76,127
77496,note_off,170,0,0,,4,,,76,127
77496,note_off,0,0,0,,0,,,60,127
77497,note_on,1,0,0,,12,,,59,127
77497,note_on,0,0,0,,2,,,74,127
77667,note_off,170,0,0,,2,,,74,127
77667,note_off,0,0,0,,12,,,59,127
77667,note_off,0,0,0,,7,,,55,127
77682,note_on,15,0,0,,0,,,72,127
77682,note_on,0,0,0,,4,,,76,127
77682,note_on,0,0,0,,0,,,60,127
77682,note_on,0,0,0,,0,,,48,127
77852,note_off,170,0,0,,0,,,48,127
77852,note_off,0,0,0,,4,,,76,127
77853,note_on,1,0,0,,5,,,77,127
77853,note_on,0,0,0,,2,,,50,127
78023,note_off,170,0,0,,2,,,50,127
78023,note_off,0,0,0,,5,,,77,127
78024,note_on,1,0,0,,7,,,79,127
78024,note_on,0,0,0,,4,,,52,127
78194,note_off,170,0,0,,4,,,52,127
78194,note_off,0,0,0,,0,,,60,127
78194,note_off,0,0,0,,0,,,72,127
78195,note_on,1,0,0,,5,,,53,127
78280,note_off,85,0,0,,7,,,79,127
78364,note_off,84,0,0,,5,,,53,127
78365,note_on,1,0,0,,2,,,74,127
78365,note_on,0,0,0,,10,,,81,127
78365,note_on,0,0,0,,7,,,55,127
78535,note_off,170,0,0,,10,,,81,127
78536,note_on,1,0,0,,7,,,79,127
78536,note_on,0,0,0,,7,,,43,127
78703,note_off,167,0,0,,7,,,55,127
78706,note_off,3,0,0,,7,,,43,127
78706,note_off,0,0,0,,2,,,74,127
78707,note_on,1,0,0,,0,,,48,127
78792,note_off,85,0,0,,7,,,79,127
78876,note_off,84,0,0,,0,,,48,127
78877,note_on,1,0,0,,0,,,72,127
78877,note_on,0,0,0,,10,,,81,127
78877,note_on,0,0,0,,2,,,50,127
79047,note_off,170,0,0,,2,,,50,127
79047,note_off,0,0,0,,10,,,81,127
79048,note_on,1,0,0,,7,,,79,127
79048,note_on,0,0,0,,4,,,52,127
79218,note_off,170,0,0,,4,,,52,127
79218,note_off,0,0,0,,0,,,72,127
79219,note_on,1,0,0,,5,,,53,127
79304,note_off,85,0,0,,7,,,79,127
79388,note_off,84,0,0,,5,,,53,127
79389,note_on,1,0,0,,12,,,71,127
79389,note_on,0,0,0,,10,,,81,127
79389,note_on,0,0,0,,7,,,55,127
79559,note_off,170,0,0,,10,,,81,127
79560,note_on,1,0,0,,7,,,79,127
79560,note_on,0,0,0,,7,,,43,127
79727,note_off,167,0,0,,7,,,55,127
79730,note_off,3,0,0,,7,,,43,127
79730,note_off,0,0,0,,12,,,71,127
79731,note_on,1,0,0,,0,,,48,127
79816,note_off,85,0,0,,7,,,79,127
79900,note_off,84,0,0,,0,,,48,127
79901,note_on,1,0,0,,4,,,76,127
79901,note_on,0,0,0,,10,,,81,127
79901,note_on,0,0,0,,2,,,50,127
80071,note_off,170,0,0,,2,,,50,127
80071,note_off,0,0,0,,10,,,81,127
80072,note_on,1,0,0,,7,,,79,127
80072,note_on,0,0,0,,4,,,52,127
80242,note_off,170,0,0,,4,,,52,127
80242,note_off,0,0,0,,4,,,76,127
80243,note_on,1,0,0,,5,,,53,127
80328,note_off,85,0,0,,7,,,79,127
80412,note_off,84,0,0,,5,,,53,127
80413,note_on,1,0,0,,2,,,74,127
80413,note_on,0,0,0,,10,,,81,127
80413,note_on,0,0,0,,7,,,55,127
80583,note_off,170,0,0,,10,,,81,127
80584,note_on,1,0,0,,7,,,79,127
80584,note_on,0,0,0,,7,,,43,127
80751,note_off,167,0,0,,7,,,55,127
80754,note_off,3,0,0,,7,,,43,127
80754,note_off,0,0,0,,2,,,74,127
80755,note_on,1,0,0,,0,,,48,127
80840,note_off,85,0,0,,7,,,79,127
80924,note_off,84,0,0,,0,,,48,127
80925,note_on,1,0,0,,10,,,81,127
80925,note_on,0,0,0,,0,,,72,127
80925,note_on,0,0,0,,2,,,50,127
81095,note_off,170,0,0,,2,,,50,127
81095,note_off,0,0,0,,10,,,81,127
81096,note_on,1,0,0,,7,,,79,127
81096,note_on,0,0,0,,4,,,52,127
81266,note_off,170,0,0,,4,,,52,127
81266,note_off,0,0,0,,0,,,72,127
81267,note_on,1,0,0,,5,,,53,127
81352,note_off,85,0,0,,7,,,79,127
81436,note_off,84,0,0,,5,,,53,127
81437,note_on,1,0,0,,10,,,81,127
81437,note_on,0,0,0,,12,,,71,127
81437,note_on,0,0,0,,7,,,55,127
81607,note_off,170,0,0,,10,,,81,127
81608,note_on,1,0,0,,7,,,79,127
81608,note_on,0,0,0,,7,,,43,127
81775,note_off,167,0,0,,7,,,55,127
81778,note_off,3,0,0,,7,,,43,127
81778,note_off,0,0,0,,12,,,71,127
81779,note_on,1,0,0,,4,,,76,127
81779,note_on,0,0,0,,0,,,48,127
81949,note_off,170,0,0,,0,,,48,127
81949,note_off,0,0,0,,4,,,76,127
81949,note_off,0,0,0,,7,,,79,127
81950,note_on,1,0,0,,5,,,77,127
81950,note_on,0,0,0,,2,,,74,127
81950,note_on,0,0,0,,2,,,50,127
82120,note_off,170,0,0,,2,,,50,127
82120,note_off,0,0,0,,2,,,74,127
82120,note_off,0,0,0,,5,,,77,127
82121,note_on,1,0,0,,0,,,72,127
82121,note_on,0,0,0,,4,,,76,127
82121,note_on,0,0,0,,4,,,52,127
82291,note_off,170,0,0,,4,,,52,127
82291,note_off,0,0,0,,4,,,76,127
82291,note_off,0,0,0,,0,,,72,127
82292,note_on,1,0,0,,2,,,74,127
82292,note_on,0,0,0,,5,,,65,127
82292,note_on,0,0,0,,5,,,53,127
82462,note_off,170,0,0,,5,,,53,127
82462,note_off,0,0,0,,5,,,65,127
82462,note_off,0,0,0,,2,,,74,127
82463,note_on,1,0,0,,0,,,72,127
82463,note_on,0,0,0,,4,,,64,127
82463,note_on,0,0,0,,7,,,55,127
82633,note_off,170,0,0,,4,,,64,127
82633,note_off,0,0,0,,0,,,72,127
82634,note_on,1,0,0,,2,,,62,127
82634,note_on,0,0,0,,12,,,71,127
82634,note_on,0,0,0,,7,,,43,127
82801,note_off,167,0,0,,7,,,55,127
82804,note_off,3,0,0,,12,,,71,127
82804,note_off,0,0,0,,2,,,62,127
82816,note_off,12,0,0,,7,,,43,127
82819,note_on,3,0,0,,0,,,48,127
82819,note_on,0,0,0,,4,,,76,127
82819,note_on,0,0,0,,0,,,72,127
82989,note_off,170,0,0,,4,,,76,127
82989,note_off,0,0,0,,0,,,48,127
82990,note_on,1,0,0,,2,,,50,127
82990,note_on,0,0,0,,5,,,77,127
83160,note_off,170,0,0,,5,,,77,127
83160,note_off,0,0,0,,2,,,50,127
83161,note_on,1,0,0,,4,,,52,127
83161,note_on,0,0,0,,7,,,79,127
83331,note_off,170,0,0,,4,,,52,127
83331,note_off,0,0,0,,0,,,72,127
83332,note_on,1,0,0,,5,,,53,127
83417,note_off,85,0,0,,7,,,79,127
83501,note_off,84,0,0,,5,,,53,127
83502,note_on,1,0,0,,7,,,55,127
83502,note_on,0,0,0,,10,,,81,127
83502,note_on,0,0,0,,2,,,74,127
83672,note_off,170,0,0,,10,,,81,127
83673,note_on,1,0,0,,7,,,43,127
83673,note_on,0,0,0,,7,,,79,127
83840,note_off,167,0,0,,7,,,55,127
83843,note_off,3,0,0,,7,,,43,127
83843,note_off,0,0,0,,2,,,74,127
83844,note_on,1,0,0,,0,,,48,127
83929,note_off,85,0,0,,7,,,79,127
84013,note_off,84,0,0,,0,,,48,127
84014,note_on,1,0,0,,2,,,50,127
84014,note_on,0,0,0,,10,,,81,127
84014,note_on,0,0,0,,0,,,72,127
84184,note_off,170,0,0,,10,,,81,127
84184,note_off,0,0,0,,2,,,50,127
84185,note_on,1,0,0,,4,,,52,127
84185,note_on,0,0,0,,7,,,79,127
84355,note_off,170,0,0,,4,,,52,127
84355,note_off,0,0,0,,0,,,72,127
84356,note_on,1,0,0,,5,,,53,127
84441,note_off,85,0,0,,7,,,79,127
84525,note_off,84,0,0,,5,,,53,127
84526,note_on,1,0,0,,7,,,55,127
84526,note_on,0,0,0,,12,,,71,127
84526,note_on,0,0,0,,10,,,81,127
84696,note_off,170,0,0,,10,,,81,127
84697,note_on,1,0,0,,7,,,43,127
84697,note_on,0,0,0,,7,,,79,127
84864,note_off,167,0,0,,7,,,55,127
84867,note_off,3,0,0,,7,,,43,127
84867,note_off,0,0,0,,12,,,71,127
84868,note_on,1,0,0,,0,,,48,127
84953,note_off,85,0,0,,7,,,79,127
85037,note_off,84,0,0,,0,,,48,127
85038,note_on,1,0,0,,2,,,50,127
85038,note_on,0,0,0,,10,,,81,127
85038,note_on,0,0,0,,4,,,76,127
85208,note_off,170,0,0,,10,,,81,127
85208,note_off,0,0,0,,2,,,50,127
85209,note_on,1,0,0,,4,,,52,127
85209,note_on,0,0,0,,7,,,79,127
85379,note_off,170,0,0,,4,,,52,127
85379,note_off,0,0,0,,4,,,76,127
85380,note_on,1,0,0,,5,,,53,127
85465,note_off,85,0,0,,7,,,79,127
85549,note_off,84,0,0,,5,,,53,127
85550,note_on,1,0,0,,7,,,55,127
85550,note_on,0,0,0,,10,,,81,127
85550,note_on,0,0,0,,2,,,74,127
85720,note_off,170,0,0,,10,,,81,127
85721,note_on,1,0,0,,7,,,43,127
85721,note_on,0,0,0,,7,,,79,127
85888,note_off,167,0,0,,7,,,55,127
85891,note_off,3,0,0,,7,,,43,127
85891,note_off,0,0,0,,2,,,74,127
85892,note_on,1,0,0,,0,,,48,127
85977,note_off,85,0,0,,7,,,79,127
86061,note_off,84,0,0,,0,,,48,127
86062,note_on,1,0,0,,2,,,50,127
86062,note_on,0,0,0,,10,,,81,127
86062,note_on,0,0,0,,0,,,72,127
86232,note_off,170,0,0,,10,,,81,127
86232,note_off,0,0,0,,2,,,50,127
86233,note_on,1,0,0,,4,,,52,127
86233,note_on,0,0,0,,7,,,79,127
86403,note_off,170,0,0,,4,,,52,127
86403,note_off,0,0,0,,0,,,72,127
86404,note_on,1,0,0,,5,,,53,127
86489,note_off,85,0,0,,7,,,79,127
86573,note_off,84,0,0,,5,,,53,127
86574,note_on,1,0,0,,7,,,55,127
86574,note_on,0,0,0,,12,,,71,127
86574,note_on,0,0,0,,10,,,81,127
86744,note_off,170,0,0,,10,,,81,127
86745,note_on,1,0,0,,7,,,43,127
86745,note_on,0,0,0,,7,,,79,127
86912,note_off,167,0,0,,7,,,55,127
86915,note_off,3,0,0,,7,,,43,127
86915,note_off,0,0,0,,12,,,71,127
86923,note_on,8,0,0,,4,,,76,127
86923,note_on,0,0,0,,0,,,48,127
87086,note_off,163,0,0,,7,,,79,127
87093,note_off,7,0,0,,0,,,48,127
87093,note_off,0,0,0,,4,,,76,127
87094,note_on,1,0,0,,5,,,77,127
87094,note_on,0,0,0,,2,,,74,127
87094,note_on,0,0,0,,2,,,50,127
87264,note_off,170,0,0,,2,,,50,127
87264,note_off,0,0,0,,2,,,74,127
87264,note_off,0,0,0,,5,,,77,127
87265,note_on,1,0,0,,0,,,72,127
87265,note_on,0,0,0,,4,,,76,127
87265,note_on,0,0,0,,4,,,52,127
87435,note_off,170,0,0,,4,,,52,127
87435,note_off,0,0,0,,4,,,76,127
87435,note_off,0,0,0,,0,,,72,127
87436,note_on,1,0,0,,2,,,74,127
87436,note_on,0,0,0,,5,,,65,127
87436,note_on,0,0,0,,5,,,53,127
87606,note_off,170,0,0,,5,,,53,127
87606,note_off,0,0,0,,5,,,65,127
87606,note_off,0,0,0,,2,,,74,127
87607,note_on,1,0,0,,4,,,64,127
87607,note_on,0,0,0,,0,,,72,127
87607,note_on,0,0,0,,7,,,55,127
87777,note_off,170,0,0,,7,,,55,127
87777,note_off,0,0,0,,0,,,72,127
87777,note_off,0,0,0,,4,,,64,127
87778,note_on,1,0,0,,2,,,62,127
87778,note_on,0,0,0,,12,,,71,127
87778,note_on,0,0,0,,5,,,53,127
87948,note_off,170,0,0,,5,,,53,127
87948,note_off,0,0,0,,12,,,71,127
87948,note_off,0,0,0,,2,,,62,127
87963,note_on,15,0,0,,0,,,72,127
87963,note_on,0,0,0,,4,,,64,127
87963,note_on,0,0,0,,4,,,52,127
88133,note_off,170,0,0,,4,,,52,127
88133,note_off,0,0,0,,4,,,64,127
88133,note_off,0,0,0,,0,,,72,127
88134,note_on,1,0,0,,5,,,65,127
88134,note_on,0,0,0,,2,,,74,127
88134,note_on,0,0,0,,2,,,50,127
88304,note_off,170,0,0,,2,,,50,127
88304,note_off,0,0,0,,2,,,74,127
88304,note_off,0,0,0,,5,,,65,127
88305,note_on,1,0,0,,7,,,67,127
88305,note_on,0,0,0,,4,,,76,127
88305,note_on,0,0,0,,0,,,48,127
88475,note_off,170,0,0,,0,,,48,127
88475,note_off,0,0,0,,4,,,76,127
88475,note_off,0,0,0,,7,,,67,127
88476,note_on,1,0,0,,2,,,74,127
88476,note_on,0,0,0,,5,,,65,127
88476,note_on,0,0,0,,5,,,53,127
88646,note_off,170,0,0,,5,,,53,127
88646,note_off,0,0,0,,5,,,65,127
88646,note_off,0,0,0,,2,,,74,127
88647,note_on,1,0,0,,4,,,64,127
88647,note_on,0,0,0,,0,,,72,127
88647,note_on,0,0,0,,7,,,55,127
88817,note_off,170,0,0,,7,,,55,127
88817,note_off,0,0,0,,0,,,72,127
88817,note_off,0,0,0,,4,,,64,127
88818,note_on,1,0,0,,2,,,62,127
88818,note_on,0,0,0,,12,,,71,127
88818,note_on,0,0,0,,5,,,53,127
88988,note_off,170,0,0,,5,,,53,127
88988,note_off,0,0,0,,12,,,71,127
88988,note_off,0,0,0,,2,,,62,127
88999,note_on,11,0,0,,4,,,52,127
88999,note_on,0,0,0,,0,,,72,127
88999,note_on,0,0,0,,4,,,64,127
89171,note_off,172,0,0,,4,,,64,127
89171,note_off,0,0,0,,0,,,72,127
89171,note_off,0,0,0,,4,,,52,127
89175,note_on,4,0,0,,2,,,50,127
89175,note_on,0,0,0,,5,,,65,127
89175,note_on,0,0,0,,2,,,74,127
89347,note_off,172,0,0,,2,,,74,127
89347,note_off,0,0,0,,5,,,65,127
89347,note_off,0,0,0,,2,,,50,127
89351,note_on,4,0,0,,0,,,48,127
89351,note_on,0,0,0,,4,,,76,127
89351,note_on,0,0,0,,7,,,67,127
89523,note_off,172,0,0,,7,,,67,127
89523,note_off,0,0,0,,4,,,76,127
89523,note_off,0,0,0,,0,,,48,127
89527,note_on,4,0,0,,5,,,53,127
89527,note_on,0,0,0,,2,,,74,127
89527,note_on,0,0,0,,5,,,65,127
89699,note_off,172,0,0,,5,,,65,127
89699,note_off,0,0,0,,2,,,74,127
89699,note_off,0,0,0,,5,,,53,127
89702,note_on,3,0,0,,7,,,55,127
89702,note_on,0,0,0,,4,,,64,127
89702,note_on,0,0,0,,0,,,72,127
89874,note_off,172,0,0,,0,,,72,127
89874,note_off,0,0,0,,4,,,64,127
89874,note_off,0,0,0,,7,,,55,127
89878,note_on,4,0,0,,7,,,43,127
89878,note_on,0,0,0,,2,,,62,127
89878,note_on,0,0,0,,12,,,71,127
90050,note_off,172,0,0,,12,,,71,127
90050,note_off,0,0,0,,2,,,62,127
90050,note_off,0,0,0,,7,,,43,127
90062,note_on,12,0,0,,12,,,71,127
90062,note_on,0,0,0,,2,,,62,127
90062,note_on,0,0,0,,0,,,36,127
90633,note_off,571,0,0,,2,,,62,127
90633,note_off,0,0,0,,12,,,71,127
90639,note_on,6,0,0,,0,,,72,127
90639,note_on,0,0,0,,0,,,60,127
92295,note_off,1656,0,0,,0,,,60,127
92295,note_off,0,0,0,,0,,,72,127
92295,note_off,0,0,0,,0,,,36,127
96768,end_of_track,4473,1,0,,,,,,
