tick,type,time,meta,track,program,channel,pitch,tempo,note,velocity
0,copyright,0,1,0,,,,,,
0,program_change,0,0,0,6,0,,,,
0,pitchwheel,0,0,0,,0,0,,,
0,program_change,0,0,0,6,1,,,,
0,pitchwheel,0,0,0,,1,-590,,,
0,program_change,0,0,0,6,2,,,,
0,pitchwheel,0,0,0,,2,-272,,,
0,program_change,0,0,0,6,3,,,,
0,pitchwheel,0,0,0,,3,-353,,,
0,program_change,0,0,0,6,4,,,,
0,pitchwheel,0,0,0,,4,-560,,,
0,program_change,0,0,0,6,5,,,,
0,pitchwheel,0,0,0,,5,-80,,,
0,program_change,0,0,0,6,6,,,,
0,pitchwheel,0,0,0,,6,-625,,,
0,program_change,0,0,0,6,7,,,,
0,pitchwheel,0,0,0,,7,-130,,,
0,program_change,0,0,0,6,8,,,,
0,pitchwheel,0,0,0,,8,-512,,,
0,program_change,0,0,0,6,10,,,,
0,pitchwheel,0,0,0,,10,-464,,,
0,program_change,0,0,0,6,11,,,,
0,pitchwheel,0,0,0,,11,-208,,,
0,program_change,0,0,0,6,12,,,,
0,pitchwheel,0,0,0,,12,-553,,,
0,set_tempo,0,1,0,,,,500000,,
136,note_on,136,0,0,,7,,,79,127
406,note_off,270,0,0,,7,,,79,127
407,note_on,1,0,0,,3,,,75,127
677,note_off,270,0,0,,3,,,75,127
678,note_on,1,0,0,,0,,,72,127
948,note_off,270,0,0,,0,,,72,127
949,note_on,1,0,0,,12,,,71,127
1220,note_on,271,0,0,,7,,,67,127
1274,note_off,54,0,0,,12,,,71,127
1490,note_off,216,0,0,,7,,,67,127
1491,note_on,1,0,0,,2,,,74,127
1491,note_on,0,0,0,,8,,,68,127
1761,note_off,270,0,0,,8,,,68,127
1762,note_on,1,0,0,,8,,,56,127
1762,note_on,0,0,0,,5,,,65,127
2032,note_off,270,0,0,,5,,,65,127
2032,note_off,0,0,0,,8,,,56,127
2032,note_off,0,0,0,,2,,,74,127
2033,note_on,1,0,0,,7,,,55,127
2033,note_on,0,0,0,,3,,,63,127
2033,note_on,0,0,0,,0,,,72,127
2303,note_off,270,0,0,,0,,,72,127
2303,note_off,0,0,0,,3,,,63,127
2303,note_off,0,0,0,,7,,,55,127
2304,note_on,1,0,0,,5,,,53,127
2304,note_on,0,0,0,,2,,,62,127
2304,note_on,0,0,0,,2,,,74,127
2574,note_off,270,0,0,,2,,,74,127
2574,note_off,0,0,0,,2,,,62,127
2574,note_off,0,0,0,,5,,,53,127
2575,note_on,1,0,0,,3,,,51,127
2575,note_on,0,0,0,,0,,,60,127
2575,note_on,0,0,0,,3,,,75,127
2845,note_off,270,0,0,,3,,,75,127
2845,note_off,0,0,0,,0,,,60,127
2845,note_off,0,0,0,,3,,,51,127
2846,note_on,1,0,0,,2,,,50,127
2846,note_on,0,0,0,,12,,,59,127
2846,note_on,0,0,0,,5,,,77,127
3116,note_off,270,0,0,,5,,,77,127
3116,note_off,0,0,0,,12,,,59,127
3116,note_off,0,0,0,,2,,,50,127
3117,note_on,1,0,0,,0,,,48,127
3117,note_on,0,0,0,,0,,,60,127
3117,note_on,0,0,0,,7,,,79,127
3387,note_off,270,0,0,,7,,,79,127
3387,note_off,0,0,0,,0,,,60,127
3387,note_off,0,0,0,,0,,,48,127
3388,note_on,1,0,0,,5,,,53,127
3388,note_on,0,0,0,,2,,,62,127
3388,note_on,0,0,0,,0,,,60,127
3388,note_on,0,0,0,,8,,,80,127
3658,note_off,270,0,0,,8,,,80,127
3658,note_off,0,0,0,,0,,,60,127
3658,note_off,0,0,0,,2,,,62,127
3658,note_off,0,0,0,,5,,,53,127
3659,note_on,1,0,0,,7,,,55,127
3659,note_on,0,0,0,,3,,,63,127
3659,note_on,0,0,0,,0,,,60,127
3659,note_on,0,0,0,,0,,,72,127
3929,note_off,270,0,0,,0,,,60,127
3929,note_off,0,0,0,,3,,,63,127
3930,note_on,1,0,0,,2,,,62,127
3998,note_on,68,0,0,,12,,,71,127
4012,note_off,14,0,0,,0,,,72,127
4066,note_on,54,0,0,,0,,,72,127
4087,note_off,21,0,0,,12,,,71,127
4134,note_on,47,0,0,,12,,,71,127
4155,note_off,21,0,0,,0,,,72,127
4200,note_off,45,0,0,,12,,,71,127
4200,note_off,0,0,0,,2,,,62,127
4200,note_off,0,0,0,,7,,,55,127
4201,note_on,1,0,0,,0,,,60,127
4201,note_on,0,0,0,,12,,,71,127
4471,note_off,270,0,0,,12,,,71,127
4472,note_on,1,0,0,,0,,,72,127
4743,note_on,271,0,0,,0,,,48,127
5013,note_off,270,0,0,,0,,,72,127
5013,note_off,0,0,0,,0,,,60,127
5014,note_on,1,0,0,,0,,,60,127
5284,note_off,270,0,0,,0,,,48,127
5285,note_on,1,0,0,,3,,,63,127
5374,note_off,89,0,0,,3,,,63,127
5375,note_on,1,0,0,,5,,,65,127
5464,note_off,89,0,0,,5,,,65,127
5465,note_on,1,0,0,,7,,,67,127
5554,note_off,89,0,0,,7,,,67,127
5554,note_off,0,0,0,,0,,,60,127
5555,note_on,1,0,0,,5,,,53,127
5555,note_on,0,0,0,,0,,,60,127
5555,note_on,0,0,0,,8,,,68,127
5825,note_off,270,0,0,,0,,,60,127
5825,note_off,0,0,0,,5,,,53,127
5826,note_on,1,0,0,,3,,,51,127
5826,note_on,0,0,0,,0,,,60,127
5962,note_off,136,0,0,,8,,,68,127
6098,note_on,136,0,0,,7,,,67,127
6187,note_off,89,0,0,,7,,,67,127
6188,note_on,1,0,0,,10,,,69,127
6277,note_off,89,0,0,,10,,,69,127
6278,note_on,1,0,0,,12,,,71,127
6367,note_off,89,0,0,,12,,,71,127
6367,note_off,0,0,0,,0,,,60,127
6367,note_off,0,0,0,,3,,,51,127
6368,note_on,1,0,0,,8,,,56,127
6368,note_on,0,0,0,,0,,,60,127
6368,note_on,0,0,0,,0,,,72,127
6638,note_off,270,0,0,,0,,,60,127
6638,note_off,0,0,0,,8,,,56,127
6639,note_on,1,0,0,,7,,,55,127
6639,note_on,0,0,0,,2,,,62,127
6909,note_off,270,0,0,,0,,,72,127
6910,note_on,1,0,0,,12,,,71,127
6999,note_off,89,0,0,,12,,,71,127
7000,note_on,1,0,0,,0,,,72,127
7089,note_off,89,0,0,,0,,,72,127
7090,note_on,1,0,0,,2,,,74,127
7179,note_off,89,0,0,,2,,,74,127
7179,note_off,0,0,0,,2,,,62,127
7179,note_off,0,0,0,,7,,,55,127
7180,note_on,1,0,0,,0,,,60,127
7180,note_on,0,0,0,,3,,,75,127
7450,note_off,270,0,0,,0,,,60,127
7451,note_on,1,0,0,,7,,,67,127
7451,note_on,0,0,0,,12,,,59,127
7721,note_off,270,0,0,,3,,,75,127
7722,note_on,1,0,0,,2,,,74,127
7811,note_off,89,0,0,,2,,,74,127
7812,note_on,1,0,0,,3,,,75,127
7901,note_off,89,0,0,,3,,,75,127
7902,note_on,1,0,0,,5,,,77,127
7991,note_off,89,0,0,,5,,,77,127
7991,note_off,0,0,0,,12,,,59,127
7991,note_off,0,0,0,,7,,,67,127
7992,note_on,1,0,0,,3,,,63,127
7992,note_on,0,0,0,,7,,,79,127
8262,note_off,270,0,0,,7,,,79,127
8262,note_off,0,0,0,,3,,,63,127
8263,note_on,1,0,0,,5,,,65,127
8263,note_on,0,0,0,,2,,,62,127
8263,note_on,0,0,0,,5,,,77,127
8533,note_off,270,0,0,,2,,,62,127
8533,note_off,0,0,0,,5,,,65,127
8534,note_on,1,0,0,,0,,,60,127
8534,note_on,0,0,0,,3,,,63,127
8602,note_on,68,0,0,,3,,,75,127
8616,note_off,14,0,0,,5,,,77,127
8670,note_on,54,0,0,,5,,,77,127
8691,note_off,21,0,0,,3,,,75,127
8738,note_on,47,0,0,,3,,,75,127
8759,note_off,21,0,0,,5,,,77,127
8804,note_off,45,0,0,,3,,,63,127
8804,note_off,0,0,0,,0,,,60,127
8805,note_on,1,0,0,,0,,,48,127
8805,note_on,0,0,0,,5,,,77,127
8826,note_off,21,0,0,,3,,,75,127
8873,note_on,47,0,0,,3,,,75,127
8894,note_off,21,0,0,,5,,,77,127
8941,note_on,47,0,0,,2,,,74,127
8962,note_off,21,0,0,,3,,,75,127
9009,note_on,47,0,0,,3,,,75,127
9030,note_off,21,0,0,,2,,,74,127
9075,note_off,45,0,0,,3,,,75,127
9075,note_off,0,0,0,,0,,,48,127
9076,note_on,1,0,0,,7,,,55,127
9076,note_on,0,0,0,,3,,,75,127
9346,note_off,270,0,0,,3,,,75,127
9346,note_off,0,0,0,,7,,,55,127
9347,note_on,1,0,0,,2,,,50,127
9347,note_on,0,0,0,,2,,,74,127
9550,note_off,203,0,0,,2,,,74,127
9616,note_off,66,0,0,,2,,,50,127
9617,note_on,1,0,0,,7,,,43,127
9887,note_off,270,0,0,,7,,,43,127
9888,note_on,1,0,0,,0,,,60,127
10159,note_on,271,0,0,,3,,,63,127
10248,note_off,89,0,0,,3,,,63,127
10249,note_on,1,0,0,,5,,,65,127
10338,note_off,89,0,0,,5,,,65,127
10339,note_on,1,0,0,,7,,,67,127
10428,note_off,89,0,0,,7,,,67,127
10428,note_off,0,0,0,,0,,,60,127
10429,note_on,1,0,0,,5,,,53,127
10429,note_on,0,0,0,,0,,,60,127
10429,note_on,0,0,0,,8,,,68,127
10699,note_off,270,0,0,,0,,,60,127
10699,note_off,0,0,0,,5,,,53,127
10700,note_on,1,0,0,,3,,,51,127
10700,note_on,0,0,0,,11,,,58,127
10700,note_on,0,0,0,,3,,,63,127
10836,note_off,136,0,0,,8,,,68,127
10972,note_on,136,0,0,,7,,,67,127
11061,note_off,89,0,0,,7,,,67,127
11062,note_on,1,0,0,,8,,,68,127
11151,note_off,89,0,0,,8,,,68,127
11152,note_on,1,0,0,,11,,,70,127
11241,note_off,89,0,0,,11,,,70,127
11241,note_off,0,0,0,,3,,,63,127
11241,note_off,0,0,0,,11,,,58,127
11241,note_off,0,0,0,,3,,,51,127
11242,note_on,1,0,0,,8,,,56,127
11242,note_on,0,0,0,,0,,,60,127
11242,note_on,0,0,0,,0,,,72,127
11512,note_off,270,0,0,,0,,,60,127
11512,note_off,0,0,0,,8,,,56,127
11513,note_on,1,0,0,,3,,,63,127
11513,note_on,0,0,0,,7,,,55,127
11783,note_off,270,0,0,,0,,,72,127
11784,note_on,1,0,0,,11,,,70,127
11873,note_off,89,0,0,,11,,,70,127
11874,note_on,1,0,0,,0,,,72,127
11963,note_off,89,0,0,,0,,,72,127
11964,note_on,1,0,0,,2,,,74,127
12053,note_off,89,0,0,,2,,,74,127
12053,note_off,0,0,0,,7,,,55,127
12053,note_off,0,0,0,,3,,,63,127
12054,note_on,1,0,0,,0,,,60,127
12054,note_on,0,0,0,,3,,,75,127
12324,note_off,270,0,0,,0,,,60,127
12325,note_on,1,0,0,,11,,,58,127
12325,note_on,0,0,0,,5,,,65,127
12549,note_off,224,0,0,,3,,,75,127
12550,note_on,1,0,0,,2,,,74,127
12595,note_on,45,0,0,,0,,,72,127
12639,note_off,44,0,0,,2,,,74,127
12640,note_on,1,0,0,,2,,,74,127
12684,note_off,44,0,0,,0,,,72,127
12685,note_on,1,0,0,,3,,,75,127
12729,note_off,44,0,0,,2,,,74,127
12730,note_on,1,0,0,,5,,,77,127
12774,note_off,44,0,0,,3,,,75,127
12775,note_on,1,0,0,,7,,,79,127
12819,note_off,44,0,0,,5,,,77,127
12820,note_on,1,0,0,,8,,,80,127
12864,note_off,44,0,0,,7,,,79,127
12864,note_off,0,0,0,,5,,,65,127
12864,note_off,0,0,0,,11,,,58,127
12865,note_on,1,0,0,,3,,,63,127
12865,note_on,0,0,0,,11,,,58,127
12865,note_on,0,0,0,,7,,,55,127
12865,note_on,0,0,0,,11,,,82,127
12909,note_off,44,0,0,,8,,,80,127
13135,note_off,226,0,0,,11,,,82,127
13135,note_off,0,0,0,,7,,,55,127
13135,note_off,0,0,0,,11,,,58,127
13135,note_off,0,0,0,,3,,,63,127
13136,note_on,1,0,0,,8,,,56,127
13136,note_on,0,0,0,,5,,,65,127
13136,note_on,0,0,0,,3,,,63,127
13136,note_on,0,0,0,,0,,,84,127
13406,note_off,270,0,0,,0,,,84,127
13406,note_off,0,0,0,,3,,,63,127
13406,note_off,0,0,0,,5,,,65,127
13406,note_off,0,0,0,,8,,,56,127
13407,note_on,1,0,0,,11,,,58,127
13407,note_on,0,0,0,,3,,,63,127
13407,note_on,0,0,0,,7,,,67,127
13407,note_on,0,0,0,,3,,,75,127
13677,note_off,270,0,0,,7,,,67,127
13677,note_off,0,0,0,,3,,,63,127
13678,note_on,1,0,0,,5,,,65,127
13746,note_on,68,0,0,,2,,,74,127
13760,note_off,14,0,0,,3,,,75,127
13814,note_on,54,0,0,,3,,,75,127
13835,note_off,21,0,0,,2,,,74,127
13882,note_on,47,0,0,,2,,,74,127
13903,note_off,21,0,0,,3,,,75,127
13948,note_off,45,0,0,,2,,,74,127
13948,note_off,0,0,0,,5,,,65,127
13948,note_off,0,0,0,,11,,,58,127
13949,note_on,1,0,0,,3,,,63,127
13949,note_on,0,0,0,,2,,,74,127
14219,note_off,270,0,0,,2,,,74,127
14219,note_off,0,0,0,,3,,,63,127
14220,note_on,1,0,0,,7,,,67,127
14220,note_on,0,0,0,,3,,,75,127
14490,note_off,270,0,0,,7,,,67,127
14491,note_on,1,0,0,,3,,,63,127
14761,note_off,270,0,0,,3,,,63,127
14761,note_off,0,0,0,,3,,,75,127
14762,note_on,1,0,0,,11,,,58,127
15033,note_on,271,0,0,,5,,,65,127
15033,note_on,0,0,0,,2,,,74,127
15101,note_on,68,0,0,,5,,,77,127
15122,note_off,21,0,0,,2,,,74,127
15169,note_on,47,0,0,,3,,,75,127
15190,note_off,21,0,0,,5,,,77,127
15237,note_on,47,0,0,,7,,,79,127
15258,note_off,21,0,0,,3,,,75,127
15303,note_off,45,0,0,,5,,,65,127
15304,note_on,1,0,0,,2,,,62,127
15304,note_on,0,0,0,,5,,,77,127
15325,note_off,21,0,0,,7,,,79,127
15573,note_off,248,0,0,,2,,,62,127
15573,note_off,0,0,0,,11,,,58,127
15574,note_on,1,0,0,,7,,,55,127
15811,note_off,237,0,0,,5,,,77,127
15845,note_on,34,0,0,,3,,,63,127
15845,note_on,0,0,0,,3,,,75,127
15913,note_on,68,0,0,,7,,,79,127
15934,note_off,21,0,0,,3,,,75,127
15981,note_on,47,0,0,,5,,,77,127
16002,note_off,21,0,0,,7,,,79,127
16049,note_on,47,0,0,,8,,,80,127
16070,note_off,21,0,0,,5,,,77,127
16115,note_off,45,0,0,,3,,,63,127
16116,note_on,1,0,0,,11,,,58,127
16116,note_on,0,0,0,,7,,,79,127
16137,note_off,21,0,0,,8,,,80,127
16385,note_off,248,0,0,,11,,,58,127
16385,note_off,0,0,0,,7,,,55,127
16386,note_on,1,0,0,,5,,,53,127
16623,note_off,237,0,0,,7,,,79,127
16657,note_on,34,0,0,,2,,,62,127
16657,note_on,0,0,0,,5,,,77,127
16725,note_on,68,0,0,,8,,,80,127
16746,note_off,21,0,0,,5,,,77,127
16793,note_on,47,0,0,,7,,,79,127
16814,note_off,21,0,0,,8,,,80,127
16861,note_on,47,0,0,,11,,,82,127
16882,note_off,21,0,0,,7,,,79,127
16927,note_off,45,0,0,,2,,,62,127
16928,note_on,1,0,0,,8,,,56,127
16928,note_on,0,0,0,,8,,,80,127
16949,note_off,21,0,0,,11,,,82,127
17197,note_off,248,0,0,,8,,,56,127
17197,note_off,0,0,0,,5,,,53,127
17198,note_on,1,0,0,,3,,,51,127
17435,note_off,237,0,0,,8,,,80,127
17469,note_on,34,0,0,,3,,,63,127
17469,note_on,0,0,0,,7,,,79,127
17537,note_on,68,0,0,,11,,,82,127
17558,note_off,21,0,0,,7,,,79,127
17605,note_on,47,0,0,,8,,,80,127
17626,note_off,21,0,0,,11,,,82,127
17673,note_on,47,0,0,,0,,,84,127
17694,note_off,21,0,0,,8,,,80,127
17739,note_off,45,0,0,,3,,,63,127
17740,note_on,1,0,0,,11,,,58,127
17740,note_on,0,0,0,,11,,,82,127
17761,note_off,21,0,0,,0,,,84,127
18009,note_off,248,0,0,,11,,,58,127
18009,note_off,0,0,0,,3,,,51,127
18010,note_on,1,0,0,,8,,,56,127
18247,note_off,237,0,0,,11,,,82,127
18281,note_on,34,0,0,,3,,,63,127
18281,note_on,0,0,0,,0,,,84,127
18551,note_off,270,0,0,,0,,,84,127
18551,note_off,0,0,0,,3,,,63,127
18552,note_on,1,0,0,,5,,,65,127
18552,note_on,0,0,0,,0,,,72,127
18822,note_off,270,0,0,,0,,,72,127
18822,note_off,0,0,0,,5,,,65,127
18822,note_off,0,0,0,,8,,,56,127
18823,note_on,1,0,0,,8,,,56,127
18823,note_on,0,0,0,,11,,,58,127
18823,note_on,0,0,0,,2,,,62,127
18823,note_on,0,0,0,,5,,,65,127
18823,note_on,0,0,0,,3,,,75,127
19093,note_off,270,0,0,,3,,,75,127
19094,note_on,1,0,0,,2,,,74,127
19162,note_on,68,0,0,,3,,,75,127
19183,note_off,21,0,0,,2,,,74,127
19230,note_on,47,0,0,,2,,,74,127
19251,note_off,21,0,0,,3,,,75,127
19364,note_off,113,0,0,,2,,,74,127
19364,note_off,0,0,0,,5,,,65,127
19364,note_off,0,0,0,,2,,,62,127
19364,note_off,0,0,0,,11,,,58,127
19364,note_off,0,0,0,,8,,,56,127
19365,note_on,1,0,0,,7,,,55,127
19365,note_on,0,0,0,,11,,,58,127
19365,note_on,0,0,0,,3,,,63,127
19365,note_on,0,0,0,,3,,,75,127
19635,note_off,270,0,0,,3,,,63,127
19635,note_off,0,0,0,,11,,,58,127
19635,note_off,0,0,0,,7,,,55,127
19636,note_on,1,0,0,,8,,,56,127
19636,note_on,0,0,0,,5,,,65,127
19636,note_on,0,0,0,,3,,,63,127
19636,note_on,0,0,0,,3,,,87,127
19906,note_off,270,0,0,,3,,,63,127
19906,note_off,0,0,0,,5,,,65,127
19906,note_off,0,0,0,,8,,,56,127
19906,note_off,0,0,0,,3,,,75,127
19907,note_on,1,0,0,,11,,,58,127
19907,note_on,0,0,0,,3,,,63,127
19907,note_on,0,0,0,,7,,,67,127
19907,note_on,0,0,0,,3,,,75,127
20172,note_off,265,0,0,,3,,,87,127
20176,note_off,4,0,0,,3,,,75,127
20176,note_off,0,0,0,,7,,,67,127
20176,note_off,0,0,0,,3,,,63,127
20177,note_on,1,0,0,,5,,,65,127
20177,note_on,0,0,0,,2,,,74,127
20447,note_off,270,0,0,,2,,,74,127
20447,note_off,0,0,0,,5,,,65,127
20447,note_off,0,0,0,,11,,,58,127
20448,note_on,1,0,0,,3,,,63,127
20448,note_on,0,0,0,,2,,,74,127
20718,note_off,270,0,0,,2,,,74,127
20718,note_off,0,0,0,,3,,,63,127
20719,note_on,1,0,0,,7,,,67,127
20719,note_on,0,0,0,,3,,,75,127
20787,note_on,68,0,0,,2,,,74,127
20808,note_off,21,0,0,,3,,,75,127
20855,note_on,47,0,0,,3,,,75,127
20876,note_off,21,0,0,,2,,,74,127
20923,note_on,47,0,0,,2,,,74,127
20944,note_off,21,0,0,,3,,,75,127
20989,note_off,45,0,0,,7,,,67,127
20990,note_on,1,0,0,,3,,,63,127
20990,note_on,0,0,0,,3,,,75,127
21011,note_off,21,0,0,,2,,,74,127
21259,note_off,248,0,0,,3,,,63,127
21260,note_on,1,0,0,,11,,,58,127
21396,note_off,136,0,0,,3,,,75,127
21532,note_on,136,0,0,,5,,,65,127
21532,note_on,0,0,0,,2,,,74,127
21600,note_on,68,0,0,,5,,,77,127
21621,note_off,21,0,0,,2,,,74,127
21668,note_on,47,0,0,,3,,,75,127
21689,note_off,21,0,0,,5,,,77,127
21736,note_on,47,0,0,,7,,,79,127
21757,note_off,21,0,0,,3,,,75,127
21802,note_off,45,0,0,,5,,,65,127
21803,note_on,1,0,0,,2,,,62,127
21803,note_on,0,0,0,,5,,,77,127
21824,note_off,21,0,0,,7,,,79,127
22072,note_off,248,0,0,,2,,,62,127
22072,note_off,0,0,0,,11,,,58,127
22073,note_on,1,0,0,,7,,,55,127
22209,note_off,136,0,0,,5,,,77,127
22345,note_on,136,0,0,,3,,,63,127
22345,note_on,0,0,0,,3,,,75,127
22413,note_on,68,0,0,,7,,,79,127
22434,note_off,21,0,0,,3,,,75,127
22481,note_on,47,0,0,,5,,,77,127
22502,note_off,21,0,0,,7,,,79,127
22549,note_on,47,0,0,,8,,,80,127
22570,note_off,21,0,0,,5,,,77,127
22615,note_off,45,0,0,,3,,,63,127
22616,note_on,1,0,0,,11,,,58,127
22616,note_on,0,0,0,,7,,,79,127
22637,note_off,21,0,0,,8,,,80,127
22885,note_off,248,0,0,,11,,,58,127
22885,note_off,0,0,0,,7,,,55,127
22886,note_on,1,0,0,,5,,,53,127
23022,note_off,136,0,0,,7,,,79,127
23158,note_on,136,0,0,,2,,,62,127
23158,note_on,0,0,0,,5,,,77,127
23226,note_on,68,0,0,,8,,,80,127
23247,note_off,21,0,0,,5,,,77,127
23294,note_on,47,0,0,,7,,,79,127
23315,note_off,21,0,0,,8,,,80,127
23362,note_on,47,0,0,,11,,,82,127
23383,note_off,21,0,0,,7,,,79,127
23428,note_off,45,0,0,,2,,,62,127
23429,note_on,1,0,0,,8,,,56,127
23429,note_on,0,0,0,,8,,,80,127
23450,note_off,21,0,0,,11,,,82,127
23698,note_off,248,0,0,,8,,,56,127
23698,note_off,0,0,0,,5,,,53,127
23699,note_on,1,0,0,,3,,,51,127
23835,note_off,136,0,0,,8,,,80,127
23971,note_on,136,0,0,,3,,,63,127
23971,note_on,0,0,0,,7,,,79,127
24039,note_on,68,0,0,,11,,,82,127
24060,note_off,21,0,0,,7,,,79,127
24107,note_on,47,0,0,,8,,,80,127
24128,note_off,21,0,0,,11,,,82,127
24175,note_on,47,0,0,,0,,,84,127
24196,note_off,21,0,0,,8,,,80,127
24241,note_off,45,0,0,,3,,,63,127
24242,note_on,1,0,0,,7,,,55,127
24242,note_on,0,0,0,,11,,,82,127
24263,note_off,21,0,0,,0,,,84,127
24511,note_off,248,0,0,,11,,,82,127
24511,note_off,0,0,0,,7,,,55,127
24511,note_off,0,0,0,,3,,,51,127
24512,note_on,1,0,0,,8,,,56,127
24512,note_on,0,0,0,,12,,,83,127
24782,note_off,270,0,0,,12,,,83,127
24783,note_on,1,0,0,,3,,,63,127
24783,note_on,0,0,0,,0,,,84,127
25053,note_off,270,0,0,,0,,,84,127
25053,note_off,0,0,0,,3,,,63,127
25054,note_on,1,0,0,,5,,,65,127
25054,note_on,0,0,0,,0,,,72,127
25324,note_off,270,0,0,,0,,,72,127
25324,note_off,0,0,0,,5,,,65,127
25324,note_off,0,0,0,,8,,,56,127
25325,note_on,1,0,0,,8,,,56,127
25325,note_on,0,0,0,,11,,,58,127
25325,note_on,0,0,0,,2,,,62,127
25325,note_on,0,0,0,,5,,,65,127
25325,note_on,0,0,0,,3,,,75,127
25595,note_off,270,0,0,,3,,,75,127
25596,note_on,1,0,0,,2,,,74,127
25664,note_on,68,0,0,,3,,,75,127
25685,note_off,21,0,0,,2,,,74,127
25732,note_on,47,0,0,,2,,,74,127
25753,note_off,21,0,0,,3,,,75,127
25866,note_off,113,0,0,,2,,,74,127
25866,note_off,0,0,0,,5,,,65,127
25866,note_off,0,0,0,,2,,,62,127
25866,note_off,0,0,0,,11,,,58,127
25866,note_off,0,0,0,,8,,,56,127
25867,note_on,1,0,0,,7,,,55,127
25867,note_on,0,0,0,,3,,,63,127
25867,note_on,0,0,0,,3,,,75,127
26137,note_off,270,0,0,,3,,,63,127
26137,note_off,0,0,0,,7,,,55,127
26138,note_on,1,0,0,,8,,,56,127
26138,note_on,0,0,0,,5,,,65,127
26138,note_on,0,0,0,,3,,,63,127
26138,note_on,0,0,0,,3,,,87,127
26408,note_off,270,0,0,,3,,,63,127
26408,note_off,0,0,0,,5,,,65,127
26408,note_off,0,0,0,,8,,,56,127
26408,note_off,0,0,0,,3,,,75,127
26409,note_on,1,0,0,,3,,,63,127
26409,note_on,0,0,0,,11,,,58,127
26409,note_on,0,0,0,,7,,,67,127
26409,note_on,0,0,0,,3,,,75,127
26674,note_off,265,0,0,,3,,,87,127
26678,note_off,4,0,0,,3,,,75,127
26678,note_off,0,0,0,,7,,,67,127
26678,note_off,0,0,0,,3,,,63,127
26679,note_on,1,0,0,,5,,,65,127
26679,note_on,0,0,0,,2,,,74,127
26949,note_off,270,0,0,,2,,,74,127
26949,note_off,0,0,0,,5,,,65,127
26949,note_off,0,0,0,,11,,,58,127
26950,note_on,1,0,0,,3,,,63,127
26950,note_on,0,0,0,,2,,,74,127
27220,note_off,270,0,0,,2,,,74,127
27220,note_off,0,0,0,,3,,,63,127
27221,note_on,1,0,0,,5,,,65,127
27221,note_on,0,0,0,,3,,,75,127
27491,note_off,270,0,0,,5,,,65,127
27492,note_on,1,0,0,,7,,,67,127
27673,note_off,181,0,0,,3,,,75,127
27762,note_off,89,0,0,,7,,,67,127
27763,note_on,1,0,0,,8,,,68,127
27763,note_on,0,0,0,,3,,,75,127
27763,note_on,0,0,0,,2,,,74,127
27828,note_on,65,0,0,,0,,,72,127
27852,note_off,24,0,0,,2,,,74,127
27893,note_on,41,0,0,,2,,,74,127
27917,note_off,24,0,0,,0,,,72,127
27958,note_on,41,0,0,,0,,,72,127
27982,note_off,24,0,0,,2,,,74,127
28034,note_on,52,0,0,,11,,,70,127
28047,note_off,13,0,0,,0,,,72,127
28304,note_off,257,0,0,,8,,,68,127
28305,note_on,1,0,0,,7,,,67,127
28575,note_off,270,0,0,,7,,,67,127
28575,note_off,0,0,0,,11,,,70,127
28575,note_off,0,0,0,,3,,,75,127
28576,note_on,1,0,0,,5,,,65,127
28576,note_on,0,0,0,,3,,,75,127
28576,note_on,0,0,0,,11,,,70,127
28641,note_on,65,0,0,,8,,,68,127
28665,note_off,24,0,0,,11,,,70,127
28706,note_on,41,0,0,,11,,,70,127
28730,note_off,24,0,0,,8,,,68,127
28771,note_on,41,0,0,,8,,,68,127
28795,note_off,24,0,0,,11,,,70,127
28847,note_on,52,0,0,,7,,,67,127
28860,note_off,13,0,0,,8,,,68,127
29117,note_off,257,0,0,,5,,,65,127
29118,note_on,1,0,0,,3,,,63,127
29388,note_off,270,0,0,,3,,,63,127
29388,note_off,0,0,0,,7,,,67,127
29388,note_off,0,0,0,,3,,,75,127
29389,note_on,1,0,0,,8,,,56,127
29389,note_on,0,0,0,,3,,,75,127
29389,note_on,0,0,0,,7,,,67,127
29454,note_on,65,0,0,,5,,,65,127
29478,note_off,24,0,0,,7,,,67,127
29519,note_on,41,0,0,,7,,,67,127
29543,note_off,24,0,0,,5,,,65,127
29584,note_on,41,0,0,,5,,,65,127
29608,note_off,24,0,0,,7,,,67,127
29660,note_on,52,0,0,,3,,,63,127
29673,note_off,13,0,0,,5,,,65,127
29930,note_off,257,0,0,,8,,,56,127
29931,note_on,1,0,0,,7,,,55,127
30201,note_off,270,0,0,,7,,,55,127
30201,note_off,0,0,0,,3,,,63,127
30201,note_off,0,0,0,,3,,,75,127
30202,note_on,1,0,0,,8,,,56,127
30202,note_on,0,0,0,,8,,,68,127
30291,note_off,89,0,0,,8,,,68,127
30292,note_on,1,0,0,,7,,,67,127
30381,note_off,89,0,0,,7,,,67,127
30382,note_on,1,0,0,,5,,,65,127
30471,note_off,89,0,0,,5,,,65,127
30471,note_off,0,0,0,,8,,,56,127
30472,note_on,1,0,0,,11,,,58,127
30472,note_on,0,0,0,,7,,,67,127
30742,note_off,270,0,0,,7,,,67,127
30743,note_on,1,0,0,,11,,,46,127
30743,note_on,0,0,0,,5,,,65,127
31013,note_off,270,0,0,,5,,,65,127
31013,note_off,0,0,0,,11,,,46,127
31013,note_off,0,0,0,,11,,,58,127
31014,note_on,1,0,0,,3,,,51,127
31014,note_on,0,0,0,,5,,,65,127
31284,note_off,270,0,0,,5,,,65,127
31284,note_off,0,0,0,,3,,,51,127
31285,note_on,1,0,0,,5,,,53,127
31285,note_on,0,0,0,,3,,,63,127
31555,note_off,270,0,0,,5,,,53,127
31556,note_on,1,0,0,,7,,,55,127
31692,note_off,136,0,0,,3,,,63,127
31826,note_off,134,0,0,,7,,,55,127
31827,note_on,1,0,0,,8,,,56,127
31827,note_on,0,0,0,,11,,,58,127
31827,note_on,0,0,0,,2,,,62,127
31827,note_on,0,0,0,,2,,,74,127
32097,note_off,270,0,0,,2,,,74,127
32097,note_off,0,0,0,,2,,,62,127
32098,note_on,1,0,0,,3,,,63,127
32098,note_on,0,0,0,,3,,,75,127
32368,note_off,270,0,0,,11,,,58,127
32368,note_off,0,0,0,,8,,,56,127
32369,note_on,1,0,0,,7,,,55,127
32369,note_on,0,0,0,,11,,,58,127
32639,note_off,270,0,0,,11,,,58,127
32639,note_off,0,0,0,,7,,,55,127
32639,note_off,0,0,0,,3,,,75,127
32639,note_off,0,0,0,,3,,,63,127
32640,note_on,1,0,0,,0,,,60,127
32640,note_on,0,0,0,,8,,,56,127
32640,note_on,0,0,0,,5,,,77,127
32640,note_on,0,0,0,,5,,,65,127
32910,note_off,270,0,0,,5,,,65,127
32910,note_off,0,0,0,,5,,,77,127
32911,note_on,1,0,0,,3,,,63,127
32911,note_on,0,0,0,,3,,,75,127
33181,note_off,270,0,0,,8,,,56,127
33181,note_off,0,0,0,,0,,,60,127
33182,note_on,1,0,0,,11,,,58,127
33182,note_on,0,0,0,,7,,,55,127
33452,note_off,270,0,0,,7,,,55,127
33452,note_off,0,0,0,,11,,,58,127
33452,note_off,0,0,0,,3,,,75,127
33452,note_off,0,0,0,,3,,,63,127
33453,note_on,1,0,0,,8,,,56,127
33453,note_on,0,0,0,,0,,,84,127
33723,note_off,270,0,0,,0,,,84,127
33723,note_off,0,0,0,,8,,,56,127
33724,note_on,1,0,0,,11,,,58,127
33724,note_on,0,0,0,,11,,,82,127
33994,note_off,270,0,0,,11,,,82,127
33995,note_on,1,0,0,,11,,,46,127
33995,note_on,0,0,0,,2,,,74,127
34265,note_off,270,0,0,,2,,,74,127
34265,note_off,0,0,0,,11,,,46,127
34265,note_off,0,0,0,,11,,,58,127
34266,note_on,1,0,0,,3,,,51,127
34266,note_on,0,0,0,,5,,,77,127
34334,note_on,68,0,0,,3,,,75,127
34355,note_off,21,0,0,,5,,,77,127
34402,note_on,47,0,0,,5,,,77,127
34423,note_off,21,0,0,,3,,,75,127
34470,note_on,47,0,0,,3,,,75,127
34491,note_off,21,0,0,,5,,,77,127
34536,note_off,45,0,0,,3,,,51,127
34537,note_on,1,0,0,,5,,,53,127
34537,note_on,0,0,0,,5,,,77,127
34558,note_off,21,0,0,,3,,,75,127
34605,note_on,47,0,0,,3,,,75,127
34626,note_off,21,0,0,,5,,,77,127
34673,note_on,47,0,0,,5,,,77,127
34694,note_off,21,0,0,,3,,,75,127
34741,note_on,47,0,0,,3,,,75,127
34762,note_off,21,0,0,,5,,,77,127
34807,note_off,45,0,0,,5,,,53,127
34808,note_on,1,0,0,,7,,,55,127
34808,note_on,0,0,0,,5,,,77,127
34829,note_off,21,0,0,,3,,,75,127
34876,note_on,47,0,0,,3,,,75,127
34897,note_off,21,0,0,,5,,,77,127
34944,note_on,47,0,0,,2,,,74,127
34965,note_off,21,0,0,,3,,,75,127
35012,note_on,47,0,0,,3,,,75,127
35033,note_off,21,0,0,,2,,,74,127
35078,note_off,45,0,0,,7,,,55,127
35079,note_on,1,0,0,,11,,,58,127
35079,note_on,0,0,0,,8,,,56,127
35079,note_on,0,0,0,,2,,,62,127
35079,note_on,0,0,0,,2,,,74,127
35100,note_off,21,0,0,,3,,,75,127
35348,note_off,248,0,0,,2,,,74,127
35348,note_off,0,0,0,,2,,,62,127
35349,note_on,1,0,0,,3,,,75,127
35349,note_on,0,0,0,,3,,,63,127
35619,note_off,270,0,0,,8,,,56,127
35619,note_off,0,0,0,,11,,,58,127
35620,note_on,1,0,0,,11,,,58,127
35620,note_on,0,0,0,,7,,,55,127
35857,note_off,237,0,0,,3,,,63,127
35857,note_off,0,0,0,,3,,,75,127
35889,note_off,32,0,0,,7,,,55,127
35889,note_off,0,0,0,,11,,,58,127
35890,note_on,1,0,0,,0,,,60,127
35890,note_on,0,0,0,,8,,,56,127
35890,note_on,0,0,0,,5,,,65,127
35890,note_on,0,0,0,,5,,,77,127
36160,note_off,270,0,0,,5,,,77,127
36160,note_off,0,0,0,,5,,,65,127
36161,note_on,1,0,0,,3,,,75,127
36161,note_on,0,0,0,,3,,,63,127
36431,note_off,270,0,0,,8,,,56,127
36431,note_off,0,0,0,,0,,,60,127
36432,note_on,1,0,0,,11,,,58,127
36432,note_on,0,0,0,,7,,,55,127
36669,note_off,237,0,0,,3,,,63,127
36669,note_off,0,0,0,,3,,,75,127
36701,note_off,32,0,0,,7,,,55,127
36701,note_off,0,0,0,,11,,,58,127
36702,note_on,1,0,0,,8,,,56,127
36702,note_on,0,0,0,,0,,,84,127
36972,note_off,270,0,0,,0,,,84,127
36972,note_off,0,0,0,,8,,,56,127
36973,note_on,1,0,0,,11,,,58,127
36973,note_on,0,0,0,,11,,,82,127
37243,note_off,270,0,0,,11,,,82,127
37244,note_on,1,0,0,,11,,,46,127
37244,note_on,0,0,0,,2,,,74,127
37514,note_off,270,0,0,,2,,,74,127
37514,note_off,0,0,0,,11,,,46,127
37514,note_off,0,0,0,,11,,,58,127
37515,note_on,1,0,0,,3,,,51,127
37515,note_on,0,0,0,,3,,,75,127
37649,note_off,134,0,0,,3,,,75,127
37650,note_on,1,0,0,,7,,,79,127
37784,note_off,134,0,0,,7,,,79,127
37784,note_off,0,0,0,,3,,,51,127
37785,note_on,1,0,0,,5,,,53,127
37785,note_on,0,0,0,,3,,,75,127
37919,note_off,134,0,0,,3,,,75,127
37920,note_on,1,0,0,,11,,,70,127
38054,note_off,134,0,0,,11,,,70,127
38054,note_off,0,0,0,,5,,,53,127
38055,note_on,1,0,0,,7,,,55,127
38055,note_on,0,0,0,,7,,,67,127
38189,note_off,134,0,0,,7,,,67,127
38190,note_on,1,0,0,,11,,,70,127
38324,note_off,134,0,0,,11,,,70,127
38324,note_off,0,0,0,,7,,,55,127
38325,note_on,1,0,0,,8,,,56,127
38325,note_on,0,0,0,,11,,,70,127
38393,note_on,68,0,0,,8,,,68,127
38414,note_off,21,0,0,,11,,,70,127
38461,note_on,47,0,0,,7,,,67,127
38482,note_off,21,0,0,,8,,,68,127
38529,note_on,47,0,0,,5,,,65,127
38550,note_off,21,0,0,,7,,,67,127
38595,note_off,45,0,0,,8,,,56,127
38596,note_on,1,0,0,,11,,,58,127
38596,note_on,0,0,0,,3,,,63,127
38617,note_off,21,0,0,,5,,,65,127
38865,note_off,248,0,0,,3,,,63,127
38866,note_on,1,0,0,,11,,,46,127
38866,note_on,0,0,0,,2,,,62,127
39136,note_off,270,0,0,,2,,,62,127
39136,note_off,0,0,0,,11,,,46,127
39136,note_off,0,0,0,,11,,,58,127
39137,note_on,1,0,0,,3,,,51,127
39137,note_on,0,0,0,,2,,,62,127
39407,note_off,270,0,0,,2,,,62,127
39408,note_on,1,0,0,,3,,,63,127
39815,note_off,407,0,0,,3,,,63,127
39949,note_off,134,0,0,,3,,,51,127
39950,note_on,1,0,0,,5,,,65,127
40001,note_on,51,0,0,,3,,,63,127
40039,note_off,38,0,0,,5,,,65,127
40052,note_on,13,0,0,,5,,,65,127
40086,note_on,34,0,0,,7,,,67,127
40086,note_on,0,0,0,,3,,,75,127
40090,note_off,4,0,0,,3,,,63,127
40103,note_on,13,0,0,,3,,,63,127
40141,note_off,38,0,0,,5,,,65,127
40220,note_off,79,0,0,,3,,,75,127
40220,note_off,0,0,0,,7,,,67,127
40221,note_on,1,0,0,,5,,,77,127
40221,note_on,0,0,0,,8,,,68,127
40484,note_off,263,0,0,,3,,,63,127
40492,note_on,8,0,0,,2,,,62,127
40757,note_off,265,0,0,,8,,,68,127
40757,note_off,0,0,0,,5,,,77,127
40761,note_off,4,0,0,,2,,,62,127
40762,note_on,1,0,0,,5,,,65,127
40813,note_on,51,0,0,,3,,,63,127
40851,note_off,38,0,0,,5,,,65,127
40864,note_on,13,0,0,,5,,,65,127
40898,note_on,34,0,0,,3,,,75,127
40898,note_on,0,0,0,,7,,,67,127
40902,note_off,4,0,0,,3,,,63,127
40915,note_on,13,0,0,,3,,,63,127
40953,note_off,38,0,0,,5,,,65,127
41032,note_off,79,0,0,,7,,,67,127
41032,note_off,0,0,0,,3,,,75,127
41033,note_on,1,0,0,,8,,,68,127
41033,note_on,0,0,0,,5,,,77,127
41296,note_off,263,0,0,,3,,,63,127
41304,note_on,8,0,0,,2,,,62,127
41574,note_off,270,0,0,,2,,,62,127
41575,note_on,1,0,0,,5,,,65,127
41598,note_off,23,0,0,,5,,,77,127
41598,note_off,0,0,0,,8,,,68,127
41626,note_on,28,0,0,,3,,,63,127
41664,note_off,38,0,0,,5,,,65,127
41677,note_on,13,0,0,,5,,,65,127
41711,note_on,34,0,0,,7,,,67,127
41711,note_on,0,0,0,,3,,,75,127
41715,note_off,4,0,0,,3,,,63,127
41728,note_on,13,0,0,,3,,,63,127
41766,note_off,38,0,0,,5,,,65,127
41845,note_off,79,0,0,,3,,,75,127
41845,note_off,0,0,0,,7,,,67,127
41846,note_on,1,0,0,,5,,,77,127
41846,note_on,0,0,0,,8,,,68,127
42109,note_off,263,0,0,,3,,,63,127
42117,note_on,8,0,0,,1,,,61,127
42117,note_on,0,0,0,,11,,,70,127
42354,note_off,237,0,0,,8,,,68,127
42354,note_off,0,0,0,,5,,,77,127
42386,note_off,32,0,0,,1,,,61,127
42387,note_on,1,0,0,,0,,,60,127
42387,note_on,0,0,0,,4,,,76,127
42657,note_off,270,0,0,,11,,,70,127
42658,note_on,1,0,0,,1,,,73,127
42928,note_off,270,0,0,,1,,,73,127
42928,note_off,0,0,0,,4,,,76,127
42929,note_on,1,0,0,,5,,,77,127
42929,note_on,0,0,0,,0,,,72,127
43199,note_off,270,0,0,,0,,,72,127
43199,note_off,0,0,0,,5,,,77,127
43199,note_off,0,0,0,,0,,,60,127
43200,note_on,1,0,0,,5,,,65,127
43200,note_on,0,0,0,,11,,,70,127
43200,note_on,0,0,0,,7,,,79,127
43289,note_off,89,0,0,,5,,,65,127
43290,note_on,1,0,0,,4,,,64,127
43379,note_off,89,0,0,,4,,,64,127
43380,note_on,1,0,0,,5,,,65,127
43469,note_off,89,0,0,,5,,,65,127
43469,note_off,0,0,0,,11,,,70,127
43470,note_on,1,0,0,,4,,,64,127
43470,note_on,0,0,0,,8,,,68,127
43559,note_off,89,0,0,,4,,,64,127
43560,note_on,1,0,0,,5,,,65,127
43649,note_off,89,0,0,,5,,,65,127
43650,note_on,1,0,0,,4,,,64,127
43739,note_off,89,0,0,,4,,,64,127
43739,note_off,0,0,0,,8,,,68,127
43739,note_off,0,0,0,,7,,,79,127
43740,note_on,1,0,0,,5,,,65,127
43740,note_on,0,0,0,,7,,,67,127
43808,note_on,68,0,0,,4,,,64,127
43829,note_off,21,0,0,,5,,,65,127
43876,note_on,47,0,0,,2,,,62,127
43897,note_off,21,0,0,,4,,,64,127
43944,note_on,47,0,0,,4,,,64,127
43965,note_off,21,0,0,,2,,,62,127
44010,note_off,45,0,0,,7,,,67,127
44011,note_on,1,0,0,,5,,,65,127
44011,note_on,0,0,0,,8,,,68,127
44032,note_off,21,0,0,,4,,,64,127
44280,note_off,248,0,0,,5,,,65,127
44281,note_on,1,0,0,,0,,,60,127
44415,note_off,134,0,0,,8,,,68,127
44416,note_on,1,0,0,,7,,,67,127
44550,note_off,134,0,0,,7,,,67,127
44550,note_off,0,0,0,,0,,,60,127
44551,note_on,1,0,0,,5,,,53,127
44551,note_on,0,0,0,,5,,,65,127
44811,note_off,260,0,0,,5,,,65,127
44821,note_off,10,0,0,,5,,,53,127
44822,note_on,1,0,0,,7,,,67,127
44873,note_on,51,0,0,,5,,,65,127
44911,note_off,38,0,0,,7,,,67,127
44924,note_on,13,0,0,,7,,,67,127
44958,note_on,34,0,0,,5,,,77,127
44958,note_on,0,0,0,,8,,,68,127
44962,note_off,4,0,0,,5,,,65,127
44975,note_on,13,0,0,,5,,,65,127
45013,note_off,38,0,0,,7,,,67,127
45092,note_off,79,0,0,,8,,,68,127
45092,note_off,0,0,0,,5,,,77,127
45093,note_on,1,0,0,,11,,,70,127
45093,note_on,0,0,0,,7,,,79,127
45356,note_off,263,0,0,,5,,,65,127
45364,note_on,8,0,0,,4,,,64,127
45629,note_off,265,0,0,,7,,,79,127
45629,note_off,0,0,0,,11,,,70,127
45633,note_off,4,0,0,,4,,,64,127
45634,note_on,1,0,0,,7,,,67,127
45685,note_on,51,0,0,,5,,,65,127
45723,note_off,38,0,0,,7,,,67,127
45736,note_on,13,0,0,,7,,,67,127
45770,note_on,34,0,0,,8,,,68,127
45770,note_on,0,0,0,,5,,,77,127
45774,note_off,4,0,0,,5,,,65,127
45787,note_on,13,0,0,,5,,,65,127
45825,note_off,38,0,0,,7,,,67,127
45904,note_off,79,0,0,,5,,,77,127
45904,note_off,0,0,0,,8,,,68,127
45905,note_on,1,0,0,,7,,,79,127
45905,note_on,0,0,0,,11,,,70,127
46168,note_off,263,0,0,,5,,,65,127
46176,note_on,8,0,0,,4,,,64,127
46446,note_off,270,0,0,,4,,,64,127
46447,note_on,1,0,0,,7,,,67,127
46498,note_off,51,0,0,,11,,,70,127
46498,note_off,0,0,0,,7,,,79,127
46498,note_on,0,0,0,,5,,,65,127
46536,note_off,38,0,0,,7,,,67,127
46549,note_on,13,0,0,,7,,,67,127
46583,note_on,34,0,0,,0,,,72,127
46587,note_off,4,0,0,,5,,,65,127
46600,note_on,13,0,0,,5,,,65,127
46638,note_off,38,0,0,,7,,,67,127
46718,note_on,80,0,0,,8,,,80,127
46981,note_off,263,0,0,,5,,,65,127
46988,note_off,7,0,0,,8,,,80,127
46989,note_on,1,0,0,,3,,,63,127
46989,note_on,0,0,0,,7,,,79,127
47259,note_off,270,0,0,,7,,,79,127
47259,note_off,0,0,0,,3,,,63,127
47260,note_on,1,0,0,,1,,,61,127
47260,note_on,0,0,0,,5,,,77,127
47530,note_off,270,0,0,,5,,,77,127
47530,note_off,0,0,0,,1,,,61,127
47531,note_on,1,0,0,,3,,,75,127
47665,note_off,134,0,0,,0,,,72,127
47801,note_off,136,0,0,,3,,,75,127
47802,note_on,1,0,0,,7,,,67,127
47802,note_on,0,0,0,,2,,,74,127
47802,note_on,0,0,0,,12,,,71,127
48072,note_off,270,0,0,,12,,,71,127
48072,note_off,0,0,0,,2,,,74,127
48072,note_off,0,0,0,,7,,,67,127
48073,note_on,1,0,0,,0,,,60,127
48073,note_on,0,0,0,,7,,,67,127
48073,note_on,0,0,0,,3,,,63,127
48073,note_on,0,0,0,,3,,,75,127
48343,note_off,270,0,0,,3,,,75,127
48344,note_on,1,0,0,,5,,,77,127
48614,note_off,270,0,0,,5,,,77,127
48614,note_off,0,0,0,,3,,,63,127
48614,note_off,0,0,0,,7,,,67,127
48614,note_off,0,0,0,,0,,,60,127
48615,note_on,1,0,0,,11,,,58,127
48615,note_on,0,0,0,,7,,,67,127
48615,note_on,0,0,0,,2,,,62,127
48615,note_on,0,0,0,,7,,,79,127
48885,note_off,270,0,0,,7,,,79,127
48885,note_off,0,0,0,,2,,,62,127
48885,note_off,0,0,0,,7,,,67,127
48885,note_off,0,0,0,,11,,,58,127
48886,note_on,1,0,0,,8,,,56,127
48886,note_on,0,0,0,,0,,,60,127
48886,note_on,0,0,0,,7,,,67,127
48886,note_on,0,0,0,,2,,,74,127
49156,note_off,270,0,0,,2,,,74,127
49157,note_on,1,0,0,,2,,,74,127
49225,note_on,68,0,0,,0,,,72,127
49246,note_off,21,0,0,,2,,,74,127
49293,note_on,47,0,0,,2,,,74,127
49314,note_off,21,0,0,,0,,,72,127
49361,note_on,47,0,0,,0,,,72,127
49382,note_off,21,0,0,,2,,,74,127
49427,note_off,45,0,0,,7,,,67,127
49428,note_on,1,0,0,,5,,,65,127
49428,note_on,0,0,0,,2,,,74,127
49449,note_off,21,0,0,,0,,,72,127
49496,note_on,47,0,0,,0,,,72,127
49517,note_off,21,0,0,,2,,,74,127
49564,note_on,47,0,0,,12,,,71,127
49585,note_off,21,0,0,,0,,,72,127
49632,note_on,47,0,0,,0,,,72,127
49653,note_off,21,0,0,,12,,,71,127
49698,note_off,45,0,0,,0,,,72,127
49698,note_off,0,0,0,,5,,,65,127
49698,note_off,0,0,0,,0,,,60,127
49698,note_off,0,0,0,,8,,,56,127
49699,note_on,1,0,0,,7,,,55,127
49699,note_on,0,0,0,,0,,,72,127
49969,note_off,270,0,0,,0,,,72,127
49970,note_on,1,0,0,,2,,,74,127
50059,note_off,89,0,0,,7,,,55,127
50060,note_on,1,0,0,,10,,,57,127
50149,note_off,89,0,0,,10,,,57,127
50150,note_on,1,0,0,,12,,,59,127
50239,note_off,89,0,0,,12,,,59,127
50239,note_off,0,0,0,,2,,,74,127
50240,note_on,1,0,0,,0,,,60,127
50240,note_on,0,0,0,,3,,,75,127
50240,note_on,0,0,0,,7,,,67,127
50510,note_off,270,0,0,,7,,,67,127
50510,note_off,0,0,0,,3,,,75,127
50511,note_on,1,0,0,,7,,,67,127
50511,note_on,0,0,0,,3,,,75,127
50781,note_off,270,0,0,,3,,,75,127
50781,note_off,0,0,0,,0,,,60,127
50782,note_on,1,0,0,,12,,,59,127
50782,note_on,0,0,0,,2,,,74,127
50871,note_off,89,0,0,,12,,,59,127
50872,note_on,1,0,0,,0,,,60,127
50961,note_off,89,0,0,,0,,,60,127
50962,note_on,1,0,0,,2,,,62,127
51051,note_off,89,0,0,,2,,,62,127
51051,note_off,0,0,0,,2,,,74,127
51052,note_on,1,0,0,,3,,,63,127
51052,note_on,0,0,0,,0,,,72,127
51322,note_off,270,0,0,,0,,,72,127
51322,note_off,0,0,0,,7,,,67,127
51323,note_on,1,0,0,,0,,,72,127
51323,note_on,0,0,0,,7,,,67,127
51593,note_off,270,0,0,,7,,,67,127
51593,note_off,0,0,0,,0,,,72,127
51593,note_off,0,0,0,,3,,,63,127
51594,note_on,1,0,0,,2,,,62,127
51594,note_on,0,0,0,,12,,,71,127
51683,note_off,89,0,0,,2,,,62,127
51684,note_on,1,0,0,,3,,,63,127
51773,note_off,89,0,0,,3,,,63,127
51774,note_on,1,0,0,,5,,,65,127
51863,note_off,89,0,0,,5,,,65,127
51864,note_on,1,0,0,,7,,,67,127
52134,note_off,270,0,0,,7,,,67,127
52134,note_off,0,0,0,,12,,,71,127
52135,note_on,1,0,0,,5,,,65,127
52405,note_off,270,0,0,,5,,,65,127
52406,note_on,1,0,0,,7,,,67,127
52406,note_on,0,0,0,,3,,,63,127
52406,note_on,0,0,0,,0,,,72,127
52676,note_off,270,0,0,,0,,,72,127
52676,note_off,0,0,0,,3,,,63,127
52676,note_off,0,0,0,,7,,,67,127
52677,note_on,1,0,0,,5,,,65,127
52677,note_on,0,0,0,,2,,,62,127
52677,note_on,0,0,0,,2,,,74,127
52947,note_off,270,0,0,,2,,,74,127
52947,note_off,0,0,0,,2,,,62,127
52947,note_off,0,0,0,,5,,,65,127
52948,note_on,1,0,0,,3,,,63,127
52948,note_on,0,0,0,,0,,,60,127
52948,note_on,0,0,0,,7,,,67,127
53218,note_off,270,0,0,,0,,,60,127
53218,note_off,0,0,0,,3,,,63,127
53219,note_on,1,0,0,,2,,,62,127
53219,note_on,0,0,0,,11,,,58,127
53308,note_off,89,0,0,,7,,,67,127
53309,note_on,1,0,0,,10,,,69,127
53398,note_off,89,0,0,,10,,,69,127
53399,note_on,1,0,0,,12,,,71,127
53488,note_off,89,0,0,,12,,,71,127
53488,note_off,0,0,0,,11,,,58,127
53488,note_off,0,0,0,,2,,,62,127
53489,note_on,1,0,0,,8,,,56,127
53489,note_on,0,0,0,,0,,,60,127
53489,note_on,0,0,0,,0,,,72,127
53759,note_off,270,0,0,,0,,,60,127
53759,note_off,0,0,0,,8,,,56,127
53760,note_on,1,0,0,,7,,,55,127
53760,note_on,0,0,0,,2,,,62,127
54030,note_off,270,0,0,,7,,,55,127
54030,note_off,0,0,0,,0,,,72,127
54031,note_on,1,0,0,,5,,,53,127
54031,note_on,0,0,0,,12,,,71,127
54120,note_off,89,0,0,,12,,,71,127
54121,note_on,1,0,0,,0,,,72,127
54210,note_off,89,0,0,,0,,,72,127
54211,note_on,1,0,0,,2,,,74,127
54300,note_off,89,0,0,,2,,,74,127
54300,note_off,0,0,0,,5,,,53,127
54300,note_off,0,0,0,,2,,,62,127
54301,note_on,1,0,0,,3,,,51,127
54301,note_on,0,0,0,,0,,,60,127
54301,note_on,0,0,0,,3,,,75,127
54571,note_off,270,0,0,,0,,,60,127
54571,note_off,0,0,0,,3,,,51,127
54572,note_on,1,0,0,,5,,,53,127
54572,note_on,0,0,0,,0,,,60,127
54572,note_on,0,0,0,,2,,,62,127
54842,note_off,270,0,0,,2,,,62,127
54842,note_off,0,0,0,,0,,,60,127
54842,note_off,0,0,0,,3,,,75,127
54843,note_on,1,0,0,,12,,,59,127
54843,note_on,0,0,0,,2,,,62,127
54843,note_on,0,0,0,,2,,,74,127
54932,note_off,89,0,0,,2,,,74,127
54933,note_on,1,0,0,,3,,,75,127
55022,note_off,89,0,0,,3,,,75,127
55023,note_on,1,0,0,,5,,,77,127
55112,note_off,89,0,0,,5,,,77,127
55112,note_off,0,0,0,,2,,,62,127
55112,note_off,0,0,0,,12,,,59,127
55112,note_off,0,0,0,,5,,,53,127
55113,note_on,1,0,0,,3,,,51,127
55113,note_on,0,0,0,,0,,,60,127
55113,note_on,0,0,0,,7,,,79,127
55383,note_off,270,0,0,,7,,,79,127
55383,note_off,0,0,0,,0,,,60,127
55383,note_off,0,0,0,,3,,,51,127
55384,note_on,1,0,0,,5,,,53,127
55384,note_on,0,0,0,,7,,,55,127
55384,note_on,0,0,0,,12,,,59,127
55384,note_on,0,0,0,,2,,,50,127
55384,note_on,0,0,0,,5,,,77,127
55654,note_off,270,0,0,,2,,,50,127
55654,note_off,0,0,0,,12,,,59,127
55654,note_off,0,0,0,,7,,,55,127
55654,note_off,0,0,0,,5,,,53,127
55655,note_on,1,0,0,,7,,,55,127
55655,note_on,0,0,0,,3,,,51,127
55655,note_on,0,0,0,,0,,,60,127
55723,note_on,68,0,0,,3,,,75,127
55737,note_off,14,0,0,,5,,,77,127
55791,note_on,54,0,0,,5,,,77,127
55812,note_off,21,0,0,,3,,,75,127
55859,note_on,47,0,0,,3,,,75,127
55880,note_off,21,0,0,,5,,,77,127
55925,note_off,45,0,0,,3,,,51,127
55925,note_off,0,0,0,,7,,,55,127
55926,note_on,1,0,0,,0,,,48,127
55926,note_on,0,0,0,,5,,,77,127
55947,note_off,21,0,0,,3,,,75,127
55994,note_on,47,0,0,,3,,,75,127
56015,note_off,21,0,0,,5,,,77,127
56062,note_on,47,0,0,,2,,,74,127
56083,note_off,21,0,0,,3,,,75,127
56130,note_on,47,0,0,,3,,,75,127
56151,note_off,21,0,0,,2,,,74,127
56196,note_off,45,0,0,,3,,,75,127
56196,note_off,0,0,0,,0,,,48,127
56196,note_off,0,0,0,,0,,,60,127
56197,note_on,1,0,0,,7,,,55,127
56197,note_on,0,0,0,,3,,,75,127
56467,note_off,270,0,0,,3,,,75,127
56468,note_on,1,0,0,,7,,,67,127
56468,note_on,0,0,0,,2,,,74,127
56738,note_off,270,0,0,,7,,,67,127
56738,note_off,0,0,0,,7,,,55,127
56739,note_on,1,0,0,,2,,,62,127
56948,note_off,209,0,0,,2,,,74,127
57009,note_off,61,0,0,,2,,,62,127
57010,note_on,1,0,0,,7,,,55,127
57281,note_on,271,0,0,,5,,,65,127
57281,note_on,0,0,0,,12,,,71,127
57349,note_on,68,0,0,,2,,,74,127
57370,note_off,21,0,0,,12,,,71,127
57417,note_on,47,0,0,,0,,,72,127
57438,note_off,21,0,0,,2,,,74,127
57485,note_on,47,0,0,,3,,,75,127
57506,note_off,21,0,0,,0,,,72,127
57551,note_off,45,0,0,,5,,,65,127
57552,note_on,1,0,0,,2,,,62,127
57552,note_on,0,0,0,,2,,,74,127
57573,note_off,21,0,0,,3,,,75,127
57821,note_off,248,0,0,,2,,,62,127
57821,note_off,0,0,0,,7,,,55,127
57822,note_on,1,0,0,,7,,,55,127
58073,note_off,251,0,0,,2,,,74,127
58093,note_on,20,0,0,,3,,,63,127
58093,note_on,0,0,0,,0,,,72,127
58161,note_on,68,0,0,,3,,,75,127
58182,note_off,21,0,0,,0,,,72,127
58229,note_on,47,0,0,,2,,,74,127
58250,note_off,21,0,0,,3,,,75,127
58297,note_on,47,0,0,,5,,,77,127
58318,note_off,21,0,0,,2,,,74,127
58363,note_off,45,0,0,,3,,,63,127
58364,note_on,1,0,0,,0,,,60,127
58364,note_on,0,0,0,,3,,,75,127
58385,note_off,21,0,0,,5,,,77,127
58633,note_off,248,0,0,,0,,,60,127
58633,note_off,0,0,0,,7,,,55,127
58634,note_on,1,0,0,,5,,,53,127
58885,note_off,251,0,0,,3,,,75,127
58905,note_on,20,0,0,,2,,,62,127
58905,note_on,0,0,0,,2,,,74,127
58973,note_on,68,0,0,,5,,,77,127
58994,note_off,21,0,0,,2,,,74,127
59041,note_on,47,0,0,,3,,,75,127
59062,note_off,21,0,0,,5,,,77,127
59109,note_on,47,0,0,,7,,,79,127
59130,note_off,21,0,0,,3,,,75,127
59175,note_off,45,0,0,,2,,,62,127
59176,note_on,1,0,0,,12,,,59,127
59176,note_on,0,0,0,,5,,,77,127
59197,note_off,21,0,0,,7,,,79,127
59445,note_off,248,0,0,,12,,,59,127
59445,note_off,0,0,0,,5,,,53,127
59446,note_on,1,0,0,,3,,,51,127
59697,note_off,251,0,0,,5,,,77,127
59717,note_on,20,0,0,,0,,,60,127
59717,note_on,0,0,0,,3,,,75,127
59785,note_on,68,0,0,,7,,,79,127
59806,note_off,21,0,0,,3,,,75,127
59853,note_on,47,0,0,,5,,,77,127
59874,note_off,21,0,0,,7,,,79,127
59921,note_on,47,0,0,,8,,,80,127
59942,note_off,21,0,0,,5,,,77,127
59987,note_off,45,0,0,,0,,,60,127
59988,note_on,1,0,0,,7,,,55,127
59988,note_on,0,0,0,,7,,,79,127
60009,note_off,21,0,0,,8,,,80,127
60257,note_off,248,0,0,,7,,,79,127
60257,note_off,0,0,0,,7,,,55,127
60257,note_off,0,0,0,,3,,,51,127
60258,note_on,1,0,0,,5,,,53,127
60258,note_on,0,0,0,,0,,,60,127
60258,note_on,0,0,0,,2,,,62,127
60258,note_on,0,0,0,,0,,,84,127
60528,note_off,270,0,0,,0,,,84,127
60528,note_off,0,0,0,,2,,,62,127
60528,note_off,0,0,0,,0,,,60,127
60528,note_off,0,0,0,,5,,,53,127
60529,note_on,1,0,0,,7,,,55,127
60529,note_on,0,0,0,,0,,,60,127
60529,note_on,0,0,0,,3,,,63,127
60529,note_on,0,0,0,,0,,,72,127
60799,note_off,270,0,0,,0,,,72,127
60799,note_off,0,0,0,,3,,,63,127
60799,note_off,0,0,0,,0,,,60,127
60800,note_on,1,0,0,,2,,,62,127
60800,note_on,0,0,0,,12,,,71,127
61070,note_off,270,0,0,,12,,,71,127
61070,note_off,0,0,0,,2,,,62,127
61070,note_off,0,0,0,,7,,,55,127
61071,note_on,1,0,0,,0,,,60,127
61071,note_on,0,0,0,,12,,,71,127
61341,note_off,270,0,0,,12,,,71,127
61341,note_off,0,0,0,,0,,,60,127
61342,note_on,1,0,0,,7,,,67,127
61342,note_on,0,0,0,,0,,,72,127
61612,note_off,270,0,0,,7,,,67,127
61613,note_on,1,0,0,,3,,,63,127
61883,note_off,270,0,0,,3,,,63,127
61883,note_off,0,0,0,,0,,,72,127
61884,note_on,1,0,0,,8,,,56,127
62155,note_on,271,0,0,,5,,,65,127
62155,note_on,0,0,0,,12,,,71,127
62223,note_on,68,0,0,,2,,,74,127
62244,note_off,21,0,0,,12,,,71,127
62291,note_on,47,0,0,,0,,,72,127
62312,note_off,21,0,0,,2,,,74,127
62359,note_on,47,0,0,,3,,,75,127
62380,note_off,21,0,0,,0,,,72,127
62425,note_off,45,0,0,,5,,,65,127
62426,note_on,1,0,0,,2,,,62,127
62426,note_on,0,0,0,,2,,,74,127
62447,note_off,21,0,0,,3,,,75,127
62695,note_off,248,0,0,,2,,,62,127
62695,note_off,0,0,0,,8,,,56,127
62696,note_on,1,0,0,,7,,,55,127
62832,note_off,136,0,0,,2,,,74,127
62968,note_on,136,0,0,,3,,,63,127
62968,note_on,0,0,0,,0,,,72,127
63036,note_on,68,0,0,,3,,,75,127
63057,note_off,21,0,0,,0,,,72,127
63104,note_on,47,0,0,,2,,,74,127
63125,note_off,21,0,0,,3,,,75,127
63172,note_on,47,0,0,,5,,,77,127
63193,note_off,21,0,0,,2,,,74,127
63238,note_off,45,0,0,,3,,,63,127
63239,note_on,1,0,0,,0,,,60,127
63239,note_on,0,0,0,,3,,,75,127
63260,note_off,21,0,0,,5,,,77,127
63508,note_off,248,0,0,,0,,,60,127
63508,note_off,0,0,0,,7,,,55,127
63509,note_on,1,0,0,,5,,,53,127
63645,note_off,136,0,0,,3,,,75,127
63781,note_on,136,0,0,,2,,,62,127
63781,note_on,0,0,0,,2,,,74,127
63849,note_on,68,0,0,,5,,,77,127
63870,note_off,21,0,0,,2,,,74,127
63917,note_on,47,0,0,,3,,,75,127
63938,note_off,21,0,0,,5,,,77,127
63985,note_on,47,0,0,,7,,,79,127
64006,note_off,21,0,0,,3,,,75,127
64051,note_off,45,0,0,,2,,,62,127
64052,note_on,1,0,0,,12,,,59,127
64052,note_on,0,0,0,,5,,,77,127
64073,note_off,21,0,0,,7,,,79,127
64321,note_off,248,0,0,,12,,,59,127
64321,note_off,0,0,0,,5,,,53,127
64322,note_on,1,0,0,,3,,,51,127
64458,note_off,136,0,0,,5,,,77,127
64594,note_on,136,0,0,,0,,,60,127
64594,note_on,0,0,0,,3,,,75,127
64662,note_on,68,0,0,,7,,,79,127
64683,note_off,21,0,0,,3,,,75,127
64730,note_on,47,0,0,,5,,,77,127
64751,note_off,21,0,0,,7,,,79,127
64798,note_on,47,0,0,,8,,,80,127
64819,note_off,21,0,0,,5,,,77,127
64864,note_off,45,0,0,,0,,,60,127
64865,note_on,1,0,0,,7,,,55,127
64865,note_on,0,0,0,,7,,,79,127
64886,note_off,21,0,0,,8,,,80,127
65134,note_off,248,0,0,,7,,,79,127
65134,note_off,0,0,0,,7,,,55,127
65134,note_off,0,0,0,,3,,,51,127
65135,note_on,1,0,0,,5,,,53,127
65135,note_on,0,0,0,,0,,,60,127
65135,note_on,0,0,0,,2,,,62,127
65135,note_on,0,0,0,,0,,,84,127
65405,note_off,270,0,0,,0,,,84,127
65405,note_off,0,0,0,,2,,,62,127
65405,note_off,0,0,0,,0,,,60,127
65405,note_off,0,0,0,,5,,,53,127
65406,note_on,1,0,0,,7,,,55,127
65406,note_on,0,0,0,,0,,,60,127
65406,note_on,0,0,0,,3,,,63,127
65406,note_on,0,0,0,,0,,,72,127
65676,note_off,270,0,0,,0,,,72,127
65676,note_off,0,0,0,,3,,,63,127
65676,note_off,0,0,0,,0,,,60,127
65677,note_on,1,0,0,,2,,,62,127
65677,note_on,0,0,0,,12,,,71,127
65947,note_off,270,0,0,,12,,,71,127
65947,note_off,0,0,0,,2,,,62,127
65947,note_off,0,0,0,,7,,,55,127
65948,note_on,1,0,0,,0,,,60,127
65948,note_on,0,0,0,,12,,,71,127
66218,note_off,270,0,0,,12,,,71,127
66218,note_off,0,0,0,,0,,,60,127
66219,note_on,1,0,0,,2,,,62,127
66219,note_on,0,0,0,,0,,,72,127
66489,note_off,270,0,0,,2,,,62,127
66490,note_on,1,0,0,,3,,,63,127
66626,note_off,136,0,0,,0,,,72,127
66760,note_off,134,0,0,,3,,,63,127
66761,note_on,1,0,0,,5,,,77,127
66761,note_on,0,0,0,,0,,,84,127
66761,note_on,0,0,0,,11,,,82,127
66826,note_on,65,0,0,,8,,,80,127
66850,note_off,24,0,0,,11,,,82,127
66891,note_on,41,0,0,,11,,,82,127
66915,note_off,24,0,0,,8,,,80,127
66956,note_on,41,0,0,,8,,,80,127
66980,note_off,24,0,0,,11,,,82,127
67032,note_on,52,0,0,,7,,,79,127
67045,note_off,13,0,0,,8,,,80,127
67302,note_off,257,0,0,,5,,,77,127
67303,note_on,1,0,0,,3,,,75,127
67573,note_off,270,0,0,,3,,,75,127
67573,note_off,0,0,0,,7,,,79,127
67573,note_off,0,0,0,,0,,,84,127
67574,note_on,1,0,0,,2,,,74,127
67574,note_on,0,0,0,,0,,,84,127
67574,note_on,0,0,0,,7,,,79,127
67639,note_on,65,0,0,,5,,,77,127
67663,note_off,24,0,0,,7,,,79,127
67704,note_on,41,0,0,,7,,,79,127
67728,note_off,24,0,0,,5,,,77,127
67769,note_on,41,0,0,,5,,,77,127
67793,note_off,24,0,0,,7,,,79,127
67845,note_on,52,0,0,,3,,,75,127
67858,note_off,13,0,0,,5,,,77,127
68115,note_off,257,0,0,,2,,,74,127
68116,note_on,1,0,0,,0,,,72,127
68386,note_off,270,0,0,,0,,,72,127
68386,note_off,0,0,0,,3,,,75,127
68386,note_off,0,0,0,,0,,,84,127
68387,note_on,1,0,0,,8,,,68,127
68387,note_on,0,0,0,,5,,,65,127
68387,note_on,0,0,0,,0,,,84,127
68387,note_on,0,0,0,,3,,,75,127
68452,note_on,65,0,0,,2,,,74,127
68476,note_off,24,0,0,,3,,,75,127
68517,note_on,41,0,0,,3,,,75,127
68541,note_off,24,0,0,,2,,,74,127
68582,note_on,41,0,0,,2,,,74,127
68606,note_off,24,0,0,,3,,,75,127
68658,note_on,52,0,0,,0,,,72,127
68671,note_off,13,0,0,,2,,,74,127
68928,note_off,257,0,0,,5,,,65,127
68928,note_off,0,0,0,,8,,,68,127
68929,note_on,1,0,0,,3,,,63,127
68929,note_on,0,0,0,,7,,,67,127
69199,note_off,270,0,0,,7,,,67,127
69199,note_off,0,0,0,,3,,,63,127
69199,note_off,0,0,0,,0,,,72,127
69199,note_off,0,0,0,,0,,,84,127
69200,note_on,1,0,0,,5,,,65,127
69200,note_on,0,0,0,,5,,,77,127
69289,note_off,89,0,0,,5,,,77,127
69290,note_on,1,0,0,,3,,,75,127
69379,note_off,89,0,0,,3,,,75,127
69380,note_on,1,0,0,,2,,,74,127
69469,note_off,89,0,0,,2,,,74,127
69469,note_off,0,0,0,,5,,,65,127
69470,note_on,1,0,0,,7,,,67,127
69470,note_on,0,0,0,,0,,,72,127
69470,note_on,0,0,0,,3,,,75,127
69740,note_off,270,0,0,,3,,,75,127
69740,note_off,0,0,0,,0,,,72,127
69740,note_off,0,0,0,,7,,,67,127
69741,note_on,1,0,0,,7,,,55,127
69741,note_on,0,0,0,,2,,,74,127
69741,note_on,0,0,0,,12,,,71,127
70011,note_off,270,0,0,,12,,,71,127
70011,note_off,0,0,0,,2,,,74,127
70011,note_off,0,0,0,,7,,,55,127
70012,note_on,1,0,0,,0,,,60,127
70012,note_on,0,0,0,,2,,,74,127
70012,note_on,0,0,0,,12,,,71,127
70282,note_off,270,0,0,,12,,,71,127
70282,note_off,0,0,0,,2,,,74,127
70282,note_off,0,0,0,,0,,,60,127
70283,note_on,1,0,0,,2,,,62,127
70283,note_on,0,0,0,,0,,,72,127
70553,note_off,270,0,0,,2,,,62,127
70554,note_on,1,0,0,,3,,,63,127
70690,note_off,136,0,0,,0,,,72,127
70824,note_off,134,0,0,,3,,,63,127
70825,note_on,1,0,0,,5,,,65,127
70825,note_on,0,0,0,,0,,,72,127
70825,note_on,0,0,0,,11,,,70,127
70890,note_on,65,0,0,,8,,,68,127
70914,note_off,24,0,0,,11,,,70,127
70955,note_on,41,0,0,,11,,,70,127
70979,note_off,24,0,0,,8,,,68,127
71020,note_on,41,0,0,,8,,,68,127
71044,note_off,24,0,0,,11,,,70,127
71096,note_on,52,0,0,,7,,,67,127
71109,note_off,13,0,0,,8,,,68,127
71366,note_off,257,0,0,,5,,,65,127
71367,note_on,1,0,0,,3,,,63,127
71637,note_off,270,0,0,,3,,,63,127
71637,note_off,0,0,0,,7,,,67,127
71637,note_off,0,0,0,,0,,,72,127
71638,note_on,1,0,0,,2,,,62,127
71638,note_on,0,0,0,,0,,,72,127
71638,note_on,0,0,0,,7,,,67,127
71703,note_on,65,0,0,,5,,,65,127
71727,note_off,24,0,0,,7,,,67,127
71768,note_on,41,0,0,,7,,,67,127
71792,note_off,24,0,0,,5,,,65,127
71833,note_on,41,0,0,,5,,,65,127
71857,note_off,24,0,0,,7,,,67,127
71909,note_on,52,0,0,,3,,,63,127
71922,note_off,13,0,0,,5,,,65,127
72179,note_off,257,0,0,,2,,,62,127
72180,note_on,1,0,0,,0,,,60,127
72450,note_off,270,0,0,,0,,,60,127
72450,note_off,0,0,0,,3,,,63,127
72450,note_off,0,0,0,,0,,,72,127
72451,note_on,1,0,0,,8,,,56,127
72451,note_on,0,0,0,,5,,,53,127
72451,note_on,0,0,0,,0,,,72,127
72451,note_on,0,0,0,,3,,,63,127
72516,note_on,65,0,0,,2,,,62,127
72540,note_off,24,0,0,,3,,,63,127
72581,note_on,41,0,0,,3,,,63,127
72605,note_off,24,0,0,,2,,,62,127
72646,note_on,41,0,0,,2,,,62,127
72670,note_off,24,0,0,,3,,,63,127
72722,note_on,52,0,0,,0,,,60,127
72735,note_off,13,0,0,,2,,,62,127
72992,note_off,257,0,0,,5,,,53,127
72992,note_off,0,0,0,,8,,,56,127
72993,note_on,1,0,0,,3,,,51,127
72993,note_on,0,0,0,,7,,,55,127
73263,note_off,270,0,0,,7,,,55,127
73263,note_off,0,0,0,,3,,,51,127
73263,note_off,0,0,0,,0,,,60,127
73263,note_off,0,0,0,,0,,,72,127
73264,note_on,1,0,0,,5,,,53,127
73264,note_on,0,0,0,,5,,,65,127
73353,note_off,89,0,0,,5,,,65,127
73354,note_on,1,0,0,,3,,,63,127
73443,note_off,89,0,0,,3,,,63,127
73444,note_on,1,0,0,,2,,,62,127
73533,note_off,89,0,0,,2,,,62,127
73533,note_off,0,0,0,,5,,,53,127
73534,note_on,1,0,0,,7,,,55,127
73534,note_on,0,0,0,,0,,,60,127
73534,note_on,0,0,0,,3,,,63,127
73804,note_off,270,0,0,,3,,,63,127
73804,note_off,0,0,0,,0,,,60,127
73805,note_on,1,0,0,,7,,,43,127
73805,note_on,0,0,0,,12,,,59,127
73805,note_on,0,0,0,,2,,,62,127
74075,note_off,270,0,0,,2,,,62,127
74075,note_off,0,0,0,,12,,,59,127
74075,note_off,0,0,0,,7,,,43,127
74075,note_off,0,0,0,,7,,,55,127
74076,note_on,1,0,0,,0,,,48,127
74076,note_on,0,0,0,,2,,,62,127
74076,note_on,0,0,0,,12,,,59,127
74346,note_off,270,0,0,,12,,,59,127
74346,note_off,0,0,0,,2,,,62,127
74346,note_off,0,0,0,,0,,,48,127
74347,note_on,1,0,0,,2,,,50,127
74347,note_on,0,0,0,,0,,,60,127
74617,note_off,270,0,0,,2,,,50,127
74618,note_on,1,0,0,,3,,,51,127
74754,note_off,136,0,0,,0,,,60,127
74888,note_off,134,0,0,,3,,,51,127
74889,note_on,1,0,0,,5,,,53,127
74889,note_on,0,0,0,,7,,,55,127
74889,note_on,0,0,0,,12,,,71,127
74889,note_on,0,0,0,,12,,,59,127
75159,note_off,270,0,0,,12,,,59,127
75159,note_off,0,0,0,,12,,,71,127
75160,note_on,1,0,0,,0,,,72,127
75160,note_on,0,0,0,,0,,,60,127
75430,note_off,270,0,0,,7,,,55,127
75430,note_off,0,0,0,,5,,,53,127
75431,note_on,1,0,0,,3,,,51,127
75431,note_on,0,0,0,,7,,,55,127
75682,note_off,251,0,0,,0,,,60,127
75682,note_off,0,0,0,,0,,,72,127
75700,note_off,18,0,0,,7,,,55,127
75700,note_off,0,0,0,,3,,,51,127
75701,note_on,1,0,0,,8,,,56,127
75701,note_on,0,0,0,,5,,,53,127
75701,note_on,0,0,0,,2,,,74,127
75701,note_on,0,0,0,,2,,,62,127
75971,note_off,270,0,0,,2,,,62,127
75971,note_off,0,0,0,,2,,,74,127
75972,note_on,1,0,0,,0,,,72,127
75972,note_on,0,0,0,,0,,,60,127
76242,note_off,270,0,0,,5,,,53,127
76242,note_off,0,0,0,,8,,,56,127
76243,note_on,1,0,0,,7,,,55,127
76243,note_on,0,0,0,,3,,,51,127
76494,note_off,251,0,0,,0,,,60,127
76494,note_off,0,0,0,,0,,,72,127
76512,note_off,18,0,0,,3,,,51,127
76512,note_off,0,0,0,,7,,,55,127
76513,note_on,1,0,0,,5,,,53,127
76513,note_on,0,0,0,,8,,,80,127
76783,note_off,270,0,0,,8,,,80,127
76783,note_off,0,0,0,,5,,,53,127
76784,note_on,1,0,0,,7,,,55,127
76784,note_on,0,0,0,,7,,,79,127
77054,note_off,270,0,0,,7,,,79,127
77055,note_on,1,0,0,,7,,,43,127
77055,note_on,0,0,0,,12,,,71,127
77325,note_off,270,0,0,,12,,,71,127
77325,note_off,0,0,0,,7,,,43,127
77325,note_off,0,0,0,,7,,,55,127
77326,note_on,1,0,0,,0,,,60,127
77326,note_on,0,0,0,,2,,,74,127
77394,note_on,68,0,0,,0,,,72,127
77415,note_off,21,0,0,,2,,,74,127
77462,note_on,47,0,0,,2,,,74,127
77483,note_off,21,0,0,,0,,,72,127
77530,note_on,47,0,0,,0,,,72,127
77551,note_off,21,0,0,,2,,,74,127
77596,note_off,45,0,0,,0,,,60,127
77597,note_on,1,0,0,,2,,,62,127
77597,note_on,0,0,0,,2,,,74,127
77618,note_off,21,0,0,,0,,,72,127
77665,note_on,47,0,0,,0,,,72,127
77686,note_off,21,0,0,,2,,,74,127
77733,note_on,47,0,0,,2,,,74,127
77754,note_off,21,0,0,,0,,,72,127
77801,note_on,47,0,0,,0,,,72,127
77822,note_off,21,0,0,,2,,,74,127
77867,note_off,45,0,0,,2,,,62,127
77868,note_on,1,0,0,,3,,,63,127
77868,note_on,0,0,0,,2,,,74,127
77889,note_off,21,0,0,,0,,,72,127
77936,note_on,47,0,0,,0,,,72,127
77957,note_off,21,0,0,,2,,,74,127
78004,note_on,47,0,0,,12,,,71,127
78025,note_off,21,0,0,,0,,,72,127
78072,note_on,47,0,0,,0,,,72,127
78093,note_off,21,0,0,,12,,,71,127
78138,note_off,45,0,0,,3,,,63,127
78161,note_off,23,0,0,,0,,,72,127
78161,note_on,0,0,0,,5,,,65,127
78161,note_on,0,0,0,,7,,,67,127
78161,note_on,0,0,0,,12,,,83,127
78161,note_on,0,0,0,,12,,,71,127
78432,note_off,271,0,0,,12,,,71,127
78432,note_off,0,0,0,,12,,,83,127
78438,note_on,6,0,0,,0,,,84,127
78438,note_on,0,0,0,,0,,,72,127
78706,note_off,268,0,0,,7,,,67,127
78706,note_off,0,0,0,,5,,,65,127
78714,note_on,8,0,0,,7,,,67,127
78714,note_on,0,0,0,,3,,,63,127
78982,note_off,268,0,0,,0,,,72,127
78982,note_off,0,0,0,,0,,,84,127
78985,note_off,3,0,0,,3,,,63,127
78985,note_off,0,0,0,,7,,,67,127
78991,note_on,6,0,0,,8,,,68,127
78991,note_on,0,0,0,,5,,,65,127
78991,note_on,0,0,0,,2,,,86,127
78991,note_on,0,0,0,,2,,,74,127
79262,note_off,271,0,0,,2,,,74,127
79262,note_off,0,0,0,,2,,,86,127
79266,note_on,4,0,0,,0,,,72,127
79266,note_on,0,0,0,,0,,,84,127
79536,note_off,270,0,0,,5,,,65,127
79536,note_off,0,0,0,,8,,,68,127
79543,note_on,7,0,0,,3,,,63,127
79543,note_on,0,0,0,,7,,,67,127
79811,note_off,268,0,0,,0,,,84,127
79811,note_off,0,0,0,,0,,,72,127
79814,note_off,3,0,0,,7,,,67,127
79814,note_off,0,0,0,,3,,,63,127
79820,note_on,6,0,0,,5,,,65,127
79820,note_on,0,0,0,,8,,,80,127
80091,note_off,271,0,0,,8,,,80,127
80091,note_off,0,0,0,,5,,,65,127
80097,note_on,6,0,0,,7,,,67,127
80097,note_on,0,0,0,,7,,,79,127
80368,note_off,271,0,0,,7,,,79,127
80374,note_on,6,0,0,,7,,,55,127
80374,note_on,0,0,0,,12,,,71,127
80642,note_off,268,0,0,,7,,,67,127
80645,note_off,3,0,0,,12,,,71,127
80645,note_off,0,0,0,,7,,,55,127
80651,note_on,6,0,0,,0,,,60,127
80651,note_on,0,0,0,,12,,,71,127
80922,note_off,271,0,0,,12,,,71,127
80922,note_off,0,0,0,,0,,,60,127
80926,note_on,4,0,0,,2,,,62,127
80926,note_on,0,0,0,,0,,,72,127
81197,note_off,271,0,0,,2,,,62,127
81203,note_on,6,0,0,,3,,,63,127
81336,note_off,133,0,0,,0,,,72,127
81474,note_off,138,0,0,,3,,,63,127
81484,note_on,10,0,0,,8,,,68,127
81484,note_on,0,0,0,,5,,,53,127
81759,note_off,275,0,0,,5,,,53,127
81759,note_off,0,0,0,,8,,,68,127
81766,note_on,7,0,0,,7,,,67,127
81766,note_on,0,0,0,,7,,,55,127
82041,note_off,275,0,0,,7,,,67,127
82047,note_on,6,0,0,,12,,,59,127
82047,note_on,0,0,0,,7,,,43,127
82321,note_off,274,0,0,,7,,,55,127
82322,note_off,1,0,0,,7,,,43,127
82322,note_off,0,0,0,,12,,,59,127
82329,note_on,7,0,0,,12,,,59,127
82329,note_on,0,0,0,,0,,,36,127
82329,note_on,0,0,0,,0,,,48,127
83019,note_off,690,0,0,,12,,,59,127
83019,note_on,0,0,0,,0,,,60,127
85187,note_off,2168,0,0,,0,,,60,127
85187,note_off,0,0,0,,0,,,48,127
85187,note_off,0,0,0,,0,,,36,127
86016,end_of_track,829,1,0,,,,,,
