tick,type,time,meta,track,program,channel,pitch,tempo,note,velocity
0,copyright,0,1,0,,,,,,
0,program_change,0,0,0,6,0,,,,
0,pitchwheel,0,0,0,,0,0,,,
0,program_change,0,0,0,6,1,,,,
0,pitchwheel,0,0,0,,1,-590,,,
0,program_change,0,0,0,6,2,,,,
0,pitchwheel,0,0,0,,2,-272,,,
0,program_change,0,0,0,6,3,,,,
0,pitchwheel,0,0,0,,3,-353,,,
0,program_change,0,0,0,6,4,,,,
0,pitchwheel,0,0,0,,4,-560,,,
0,program_change,0,0,0,6,5,,,,
0,pitchwheel,0,0,0,,5,-80,,,
0,program_change,0,0,0,6,6,,,,
0,pitchwheel,0,0,0,,6,-625,,,
0,program_change,0,0,0,6,7,,,,
0,pitchwheel,0,0,0,,7,-130,,,
0,program_change,0,0,0,6,8,,,,
0,pitchwheel,0,0,0,,8,-512,,,
0,program_change,0,0,0,6,10,,,,
0,pitchwheel,0,0,0,,10,-464,,,
0,program_change,0,0,0,6,11,,,,
0,pitchwheel,0,0,0,,11,-208,,,
0,program_change,0,0,0,6,12,,,,
0,pitchwheel,0,0,0,,12,-553,,,
0,set_tempo,0,1,0,,,,500000,,
82,note_on,82,0,0,,7,,,79,127
82,note_on,0,0,0,,4,,,76,127
246,note_off,164,0,0,,4,,,76,127
246,note_off,0,0,0,,7,,,79,127
247,note_on,1,0,0,,5,,,77,127
247,note_on,0,0,0,,2,,,74,127
411,note_off,164,0,0,,2,,,74,127
411,note_off,0,0,0,,5,,,77,127
412,note_on,1,0,0,,4,,,76,127
412,note_on,0,0,0,,0,,,72,127
576,note_off,164,0,0,,0,,,72,127
576,note_off,0,0,0,,4,,,76,127
577,note_on,1,0,0,,4,,,76,127
577,note_on,0,0,0,,0,,,72,127
741,note_off,164,0,0,,0,,,72,127
741,note_off,0,0,0,,4,,,76,127
742,note_on,1,0,0,,2,,,74,127
742,note_on,0,0,0,,7,,,67,127
906,note_off,164,0,0,,7,,,67,127
906,note_off,0,0,0,,2,,,74,127
907,note_on,1,0,0,,0,,,72,127
907,note_on,0,0,0,,4,,,64,127
1071,note_off,164,0,0,,4,,,64,127
1071,note_off,0,0,0,,0,,,72,127
1072,note_on,1,0,0,,0,,,72,127
1072,note_on,0,0,0,,4,,,64,127
1236,note_off,164,0,0,,4,,,64,127
1236,note_off,0,0,0,,0,,,72,127
1237,note_on,1,0,0,,2,,,74,127
1237,note_on,0,0,0,,7,,,67,127
1401,note_off,164,0,0,,7,,,67,127
1401,note_off,0,0,0,,2,,,74,127
1402,note_on,1,0,0,,5,,,77,127
1402,note_on,0,0,0,,0,,,72,127
1443,note_on,41,0,0,,4,,,76,127
1454,note_off,11,0,0,,5,,,77,127
1484,note_on,30,0,0,,5,,,77,127
1495,note_off,11,0,0,,4,,,76,127
1525,note_on,30,0,0,,4,,,76,127
1536,note_off,11,0,0,,5,,,77,127
1566,note_on,30,0,0,,5,,,77,127
1577,note_off,11,0,0,,4,,,76,127
1607,note_on,30,0,0,,4,,,76,127
1618,note_off,11,0,0,,5,,,77,127
1648,note_on,30,0,0,,5,,,77,127
1659,note_off,11,0,0,,4,,,76,127
1689,note_on,30,0,0,,4,,,76,127
1700,note_off,11,0,0,,5,,,77,127
1729,note_off,29,0,0,,0,,,72,127
1730,note_on,1,0,0,,2,,,74,127
1730,note_on,0,0,0,,7,,,67,127
1741,note_off,11,0,0,,4,,,76,127
1893,note_off,152,0,0,,7,,,67,127
1893,note_off,0,0,0,,2,,,74,127
1895,note_on,2,0,0,,2,,,74,127
1895,note_on,0,0,0,,7,,,67,127
2045,note_off,150,0,0,,7,,,67,127
2045,note_off,0,0,0,,2,,,74,127
2060,note_on,15,0,0,,7,,,79,127
2060,note_on,0,0,0,,4,,,76,127
2224,note_off,164,0,0,,4,,,76,127
2224,note_off,0,0,0,,7,,,79,127
2225,note_on,1,0,0,,5,,,77,127
2225,note_on,0,0,0,,2,,,74,127
2389,note_off,164,0,0,,2,,,74,127
2389,note_off,0,0,0,,5,,,77,127
2390,note_on,1,0,0,,4,,,76,127
2390,note_on,0,0,0,,0,,,72,127
2554,note_off,164,0,0,,0,,,72,127
2554,note_off,0,0,0,,4,,,76,127
2555,note_on,1,0,0,,4,,,76,127
2555,note_on,0,0,0,,0,,,72,127
2719,note_off,164,0,0,,0,,,72,127
2719,note_off,0,0,0,,4,,,76,127
2720,note_on,1,0,0,,2,,,74,127
2720,note_on,0,0,0,,7,,,67,127
2884,note_off,164,0,0,,7,,,67,127
2884,note_off,0,0,0,,2,,,74,127
2885,note_on,1,0,0,,0,,,72,127
2885,note_on,0,0,0,,4,,,64,127
3049,note_off,164,0,0,,4,,,64,127
3049,note_off,0,0,0,,0,,,72,127
3050,note_on,1,0,0,,0,,,72,127
3050,note_on,0,0,0,,4,,,64,127
3214,note_off,164,0,0,,4,,,64,127
3214,note_off,0,0,0,,0,,,72,127
3215,note_on,1,0,0,,2,,,74,127
3215,note_on,0,0,0,,7,,,67,127
3379,note_off,164,0,0,,7,,,67,127
3379,note_off,0,0,0,,2,,,74,127
3380,note_on,1,0,0,,5,,,77,127
3380,note_on,0,0,0,,0,,,72,127
3421,note_on,41,0,0,,4,,,76,127
3432,note_off,11,0,0,,5,,,77,127
3462,note_on,30,0,0,,5,,,77,127
3473,note_off,11,0,0,,4,,,76,127
3503,note_on,30,0,0,,4,,,76,127
3514,note_off,11,0,0,,5,,,77,127
3544,note_on,30,0,0,,5,,,77,127
3555,note_off,11,0,0,,4,,,76,127
3585,note_on,30,0,0,,4,,,76,127
3596,note_off,11,0,0,,5,,,77,127
3626,note_on,30,0,0,,5,,,77,127
3637,note_off,11,0,0,,4,,,76,127
3667,note_on,30,0,0,,4,,,76,127
3678,note_off,11,0,0,,5,,,77,127
3707,note_off,29,0,0,,0,,,72,127
3708,note_on,1,0,0,,2,,,74,127
3708,note_on,0,0,0,,7,,,67,127
3719,note_off,11,0,0,,4,,,76,127
3872,note_off,153,0,0,,7,,,67,127
3872,note_off,0,0,0,,2,,,74,127
3873,note_on,1,0,0,,2,,,74,127
3873,note_on,0,0,0,,7,,,67,127
4037,note_off,164,0,0,,2,,,74,127
4043,note_on,6,0,0,,7,,,79,127
4202,note_off,159,0,0,,7,,,67,127
4207,note_off,5,0,0,,7,,,79,127
4208,note_on,1,0,0,,0,,,72,127
4208,note_on,0,0,0,,4,,,76,127
4372,note_off,164,0,0,,4,,,76,127
4372,note_off,0,0,0,,0,,,72,127
4373,note_on,1,0,0,,12,,,71,127
4373,note_on,0,0,0,,6,,,78,127
4414,note_on,41,0,0,,4,,,76,127
4425,note_off,11,0,0,,6,,,78,127
4455,note_on,30,0,0,,6,,,78,127
4466,note_off,11,0,0,,4,,,76,127
4496,note_on,30,0,0,,4,,,76,127
4507,note_off,11,0,0,,6,,,78,127
4537,note_on,30,0,0,,6,,,78,127
4548,note_off,11,0,0,,4,,,76,127
4578,note_on,30,0,0,,4,,,76,127
4589,note_off,11,0,0,,6,,,78,127
4619,note_on,30,0,0,,6,,,78,127
4630,note_off,11,0,0,,4,,,76,127
4660,note_on,30,0,0,,4,,,76,127
4671,note_off,11,0,0,,6,,,78,127
4700,note_off,29,0,0,,12,,,71,127
4701,note_on,1,0,0,,12,,,71,127
4701,note_on,0,0,0,,2,,,74,127
4712,note_off,11,0,0,,4,,,76,127
4865,note_off,153,0,0,,12,,,71,127
4866,note_on,1,0,0,,10,,,69,127
5030,note_off,164,0,0,,2,,,74,127
5031,note_on,1,0,0,,7,,,79,127
5195,note_off,164,0,0,,7,,,79,127
5195,note_off,0,0,0,,10,,,69,127
5196,note_on,1,0,0,,10,,,69,127
5196,note_on,0,0,0,,0,,,72,127
5360,note_off,164,0,0,,0,,,72,127
5360,note_off,0,0,0,,10,,,69,127
5361,note_on,1,0,0,,7,,,67,127
5361,note_on,0,0,0,,2,,,74,127
5402,note_on,41,0,0,,0,,,72,127
5413,note_off,11,0,0,,2,,,74,127
5443,note_on,30,0,0,,2,,,74,127
5454,note_off,11,0,0,,0,,,72,127
5484,note_on,30,0,0,,0,,,72,127
5495,note_off,11,0,0,,2,,,74,127
5525,note_on,30,0,0,,2,,,74,127
5536,note_off,11,0,0,,0,,,72,127
5566,note_on,30,0,0,,0,,,72,127
5577,note_off,11,0,0,,2,,,74,127
5607,note_on,30,0,0,,2,,,74,127
5618,note_off,11,0,0,,0,,,72,127
5648,note_on,30,0,0,,0,,,72,127
5659,note_off,11,0,0,,2,,,74,127
5688,note_off,29,0,0,,7,,,67,127
5689,note_on,1,0,0,,7,,,67,127
5689,note_on,0,0,0,,12,,,71,127
5700,note_off,11,0,0,,0,,,72,127
5853,note_off,153,0,0,,12,,,71,127
5853,note_off,0,0,0,,7,,,67,127
5854,note_on,1,0,0,,0,,,72,127
6019,note_on,165,0,0,,7,,,79,127
6183,note_off,164,0,0,,7,,,79,127
6183,note_off,0,0,0,,0,,,72,127
6184,note_on,1,0,0,,0,,,72,127
6184,note_on,0,0,0,,4,,,76,127
6348,note_off,164,0,0,,4,,,76,127
6348,note_off,0,0,0,,0,,,72,127
6349,note_on,1,0,0,,12,,,71,127
6349,note_on,0,0,0,,6,,,78,127
6349,note_on,0,0,0,,4,,,76,127
6513,note_off,164,0,0,,4,,,76,127
6513,note_off,0,0,0,,6,,,78,127
6514,note_on,1,0,0,,2,,,74,127
6678,note_off,164,0,0,,2,,,74,127
6678,note_off,0,0,0,,12,,,71,127
6679,note_on,1,0,0,,12,,,71,127
6679,note_on,0,0,0,,2,,,74,127
6843,note_off,164,0,0,,2,,,74,127
6843,note_off,0,0,0,,12,,,71,127
6844,note_on,1,0,0,,10,,,69,127
6844,note_on,0,0,0,,4,,,76,127
6844,note_on,0,0,0,,2,,,74,127
7008,note_off,164,0,0,,2,,,74,127
7008,note_off,0,0,0,,4,,,76,127
7009,note_on,1,0,0,,0,,,72,127
7173,note_off,164,0,0,,0,,,72,127
7173,note_off,0,0,0,,10,,,69,127
7174,note_on,1,0,0,,10,,,69,127
7174,note_on,0,0,0,,0,,,72,127
7338,note_off,164,0,0,,0,,,72,127
7338,note_off,0,0,0,,10,,,69,127
7339,note_on,1,0,0,,7,,,67,127
7339,note_on,0,0,0,,2,,,74,127
7339,note_on,0,0,0,,0,,,72,127
7503,note_off,164,0,0,,0,,,72,127
7503,note_off,0,0,0,,2,,,74,127
7504,note_on,1,0,0,,12,,,71,127
7668,note_off,164,0,0,,12,,,71,127
7668,note_off,0,0,0,,7,,,67,127
7669,note_on,1,0,0,,7,,,67,127
7669,note_on,0,0,0,,12,,,71,127
7833,note_off,164,0,0,,12,,,71,127
7833,note_off,0,0,0,,7,,,67,127
7839,note_on,6,0,0,,4,,,64,127
8004,note_on,165,0,0,,2,,,86,127
8168,note_off,164,0,0,,2,,,86,127
8168,note_off,0,0,0,,4,,,64,127
8169,note_on,1,0,0,,7,,,79,127
8169,note_on,0,0,0,,0,,,72,127
8333,note_off,164,0,0,,0,,,72,127
8333,note_off,0,0,0,,7,,,79,127
8334,note_on,1,0,0,,10,,,81,127
8334,note_on,0,0,0,,2,,,62,127
8375,note_on,41,0,0,,7,,,79,127
8386,note_off,11,0,0,,10,,,81,127
8416,note_on,30,0,0,,10,,,81,127
8427,note_off,11,0,0,,7,,,79,127
8457,note_on,30,0,0,,7,,,79,127
8468,note_off,11,0,0,,10,,,81,127
8498,note_on,30,0,0,,10,,,81,127
8509,note_off,11,0,0,,7,,,79,127
8539,note_on,30,0,0,,7,,,79,127
8550,note_off,11,0,0,,10,,,81,127
8580,note_on,30,0,0,,10,,,81,127
8591,note_off,11,0,0,,7,,,79,127
8621,note_on,30,0,0,,7,,,79,127
8632,note_off,11,0,0,,10,,,81,127
8661,note_off,29,0,0,,2,,,62,127
8662,note_on,1,0,0,,6,,,78,127
8662,note_on,0,0,0,,12,,,71,127
8673,note_off,11,0,0,,7,,,79,127
8826,note_off,153,0,0,,12,,,71,127
8827,note_on,1,0,0,,0,,,60,127
8991,note_off,164,0,0,,6,,,78,127
8992,note_on,1,0,0,,7,,,79,127
9156,note_off,164,0,0,,7,,,79,127
9156,note_off,0,0,0,,0,,,60,127
9157,note_on,1,0,0,,4,,,76,127
9157,note_on,0,0,0,,10,,,69,127
9321,note_off,164,0,0,,10,,,69,127
9321,note_off,0,0,0,,4,,,76,127
9322,note_on,1,0,0,,6,,,78,127
9322,note_on,0,0,0,,12,,,59,127
9363,note_on,41,0,0,,4,,,76,127
9374,note_off,11,0,0,,6,,,78,127
9404,note_on,30,0,0,,6,,,78,127
9415,note_off,11,0,0,,4,,,76,127
9445,note_on,30,0,0,,4,,,76,127
9456,note_off,11,0,0,,6,,,78,127
9486,note_on,30,0,0,,6,,,78,127
9497,note_off,11,0,0,,4,,,76,127
9527,note_on,30,0,0,,4,,,76,127
9538,note_off,11,0,0,,6,,,78,127
9568,note_on,30,0,0,,6,,,78,127
9579,note_off,11,0,0,,4,,,76,127
9609,note_on,30,0,0,,4,,,76,127
9620,note_off,11,0,0,,6,,,78,127
9649,note_off,29,0,0,,12,,,59,127
9650,note_on,1,0,0,,2,,,74,127
9650,note_on,0,0,0,,7,,,67,127
9661,note_off,11,0,0,,4,,,76,127
9814,note_off,153,0,0,,7,,,67,127
9814,note_off,0,0,0,,2,,,74,127
9815,note_on,1,0,0,,4,,,64,127
9980,note_on,165,0,0,,2,,,86,127
10144,note_off,164,0,0,,2,,,86,127
10144,note_off,0,0,0,,4,,,64,127
10145,note_on,1,0,0,,7,,,79,127
10145,note_on,0,0,0,,0,,,72,127
10309,note_off,164,0,0,,0,,,72,127
10309,note_off,0,0,0,,7,,,79,127
10310,note_on,1,0,0,,10,,,81,127
10310,note_on,0,0,0,,7,,,79,127
10310,note_on,0,0,0,,2,,,62,127
10474,note_off,164,0,0,,7,,,79,127
10474,note_off,0,0,0,,10,,,81,127
10475,note_on,1,0,0,,6,,,78,127
10639,note_off,164,0,0,,6,,,78,127
10639,note_off,0,0,0,,2,,,62,127
10640,note_on,1,0,0,,6,,,78,127
10640,note_on,0,0,0,,12,,,71,127
10804,note_off,164,0,0,,12,,,71,127
10804,note_off,0,0,0,,6,,,78,127
10805,note_on,1,0,0,,7,,,79,127
10805,note_on,0,0,0,,6,,,78,127
10805,note_on,0,0,0,,0,,,60,127
10969,note_off,164,0,0,,6,,,78,127
10969,note_off,0,0,0,,7,,,79,127
10970,note_on,1,0,0,,4,,,76,127
11134,note_off,164,0,0,,4,,,76,127
11134,note_off,0,0,0,,0,,,60,127
11135,note_on,1,0,0,,4,,,76,127
11135,note_on,0,0,0,,10,,,69,127
11299,note_off,164,0,0,,10,,,69,127
11299,note_off,0,0,0,,4,,,76,127
11300,note_on,1,0,0,,4,,,76,127
11300,note_on,0,0,0,,6,,,78,127
11300,note_on,0,0,0,,12,,,59,127
11464,note_off,164,0,0,,6,,,78,127
11464,note_off,0,0,0,,4,,,76,127
11465,note_on,1,0,0,,2,,,74,127
11629,note_off,164,0,0,,2,,,74,127
11629,note_off,0,0,0,,12,,,59,127
11630,note_on,1,0,0,,2,,,74,127
11630,note_on,0,0,0,,7,,,67,127
11794,note_off,164,0,0,,7,,,67,127
11794,note_off,0,0,0,,2,,,74,127
11795,note_on,1,0,0,,4,,,76,127
11795,note_on,0,0,0,,2,,,74,127
11795,note_on,0,0,0,,10,,,57,127
11959,note_off,164,0,0,,2,,,74,127
11959,note_off,0,0,0,,4,,,76,127
11960,note_on,1,0,0,,0,,,72,127
12124,note_off,164,0,0,,0,,,72,127
12124,note_off,0,0,0,,10,,,57,127
12125,note_on,1,0,0,,0,,,72,127
12125,note_on,0,0,0,,6,,,66,127
12289,note_off,164,0,0,,6,,,66,127
12289,note_off,0,0,0,,0,,,72,127
12290,note_on,1,0,0,,7,,,67,127
12290,note_on,0,0,0,,12,,,71,127
12290,note_on,0,0,0,,7,,,55,127
12454,note_off,164,0,0,,12,,,71,127
12454,note_off,0,0,0,,7,,,67,127
12455,note_on,1,0,0,,0,,,72,127
12455,note_on,0,0,0,,10,,,69,127
12619,note_off,164,0,0,,10,,,69,127
12619,note_off,0,0,0,,0,,,72,127
12619,note_off,0,0,0,,7,,,55,127
12620,note_on,1,0,0,,12,,,71,127
12620,note_on,0,0,0,,2,,,74,127
12620,note_on,0,0,0,,12,,,47,127
12784,note_off,164,0,0,,12,,,47,127
12784,note_off,0,0,0,,2,,,74,127
12784,note_off,0,0,0,,12,,,71,127
12785,note_on,1,0,0,,0,,,72,127
12785,note_on,0,0,0,,10,,,69,127
12785,note_on,0,0,0,,0,,,48,127
12949,note_off,164,0,0,,10,,,69,127
12949,note_off,0,0,0,,0,,,72,127
12950,note_on,1,0,0,,12,,,71,127
12950,note_on,0,0,0,,7,,,67,127
13114,note_off,164,0,0,,7,,,67,127
13114,note_off,0,0,0,,12,,,71,127
13114,note_off,0,0,0,,0,,,48,127
13115,note_on,1,0,0,,6,,,66,127
13115,note_on,0,0,0,,10,,,69,127
13115,note_on,0,0,0,,2,,,50,127
13279,note_off,164,0,0,,2,,,50,127
13279,note_off,0,0,0,,10,,,69,127
13279,note_off,0,0,0,,6,,,66,127
13285,note_on,6,0,0,,7,,,55,127
13285,note_on,0,0,0,,12,,,71,127
13285,note_on,0,0,0,,7,,,67,127
13449,note_off,164,0,0,,7,,,55,127
13450,note_on,1,0,0,,2,,,50,127
13614,note_off,164,0,0,,2,,,50,127
13614,note_off,0,0,0,,12,,,71,127
13615,note_on,1,0,0,,7,,,43,127
13615,note_on,0,0,0,,7,,,79,127
13779,note_off,164,0,0,,7,,,43,127
13780,note_on,1,0,0,,2,,,38,127
13924,note_off,144,0,0,,7,,,79,127
13944,note_off,20,0,0,,7,,,67,127
13945,note_on,1,0,0,,6,,,66,127
13945,note_on,0,0,0,,10,,,69,127
14109,note_off,164,0,0,,10,,,69,127
14110,note_on,1,0,0,,0,,,72,127
14274,note_off,164,0,0,,0,,,72,127
14274,note_off,0,0,0,,6,,,66,127
14274,note_off,0,0,0,,2,,,38,127
14275,note_on,1,0,0,,7,,,55,127
14275,note_on,0,0,0,,7,,,67,127
14275,note_on,0,0,0,,12,,,71,127
14439,note_off,164,0,0,,7,,,55,127
14440,note_on,1,0,0,,2,,,50,127
14604,note_off,164,0,0,,2,,,50,127
14604,note_off,0,0,0,,12,,,71,127
14605,note_on,1,0,0,,7,,,43,127
14605,note_on,0,0,0,,7,,,79,127
14769,note_off,164,0,0,,7,,,43,127
14770,note_on,1,0,0,,2,,,38,127
14914,note_off,144,0,0,,7,,,79,127
14934,note_off,20,0,0,,7,,,67,127
14935,note_on,1,0,0,,6,,,66,127
14935,note_on,0,0,0,,10,,,69,127
15099,note_off,164,0,0,,10,,,69,127
15100,note_on,1,0,0,,0,,,72,127
15264,note_off,164,0,0,,0,,,72,127
15264,note_off,0,0,0,,6,,,66,127
15264,note_off,0,0,0,,2,,,38,127
15265,note_on,1,0,0,,7,,,55,127
15265,note_on,0,0,0,,12,,,71,127
15265,note_on,0,0,0,,7,,,67,127
15429,note_off,164,0,0,,7,,,67,127
15429,note_off,0,0,0,,12,,,71,127
15430,note_on,1,0,0,,10,,,69,127
15430,note_on,0,0,0,,0,,,72,127
15594,note_off,164,0,0,,0,,,72,127
15594,note_off,0,0,0,,10,,,69,127
15594,note_off,0,0,0,,7,,,55,127
15595,note_on,1,0,0,,12,,,47,127
15595,note_on,0,0,0,,12,,,71,127
15595,note_on,0,0,0,,2,,,74,127
15759,note_off,164,0,0,,2,,,74,127
15759,note_off,0,0,0,,12,,,71,127
15759,note_off,0,0,0,,12,,,47,127
15760,note_on,1,0,0,,0,,,48,127
15760,note_on,0,0,0,,10,,,69,127
15760,note_on,0,0,0,,0,,,72,127
15924,note_off,164,0,0,,0,,,72,127
15924,note_off,0,0,0,,10,,,69,127
15925,note_on,1,0,0,,12,,,71,127
15925,note_on,0,0,0,,7,,,67,127
16089,note_off,164,0,0,,7,,,67,127
16089,note_off,0,0,0,,12,,,71,127
16089,note_off,0,0,0,,0,,,48,127
16090,note_on,1,0,0,,2,,,50,127
16090,note_on,0,0,0,,10,,,69,127
16090,note_on,0,0,0,,6,,,66,127
16254,note_off,164,0,0,,6,,,66,127
16254,note_off,0,0,0,,10,,,69,127
16254,note_off,0,0,0,,2,,,50,127
16255,note_on,1,0,0,,7,,,55,127
16255,note_on,0,0,0,,7,,,67,127
16255,note_on,0,0,0,,12,,,71,127
16419,note_off,164,0,0,,7,,,55,127
16420,note_on,1,0,0,,2,,,50,127
16584,note_off,164,0,0,,2,,,50,127
16584,note_off,0,0,0,,12,,,71,127
16585,note_on,1,0,0,,7,,,43,127
16585,note_on,0,0,0,,7,,,79,127
16749,note_off,164,0,0,,7,,,43,127
16749,note_off,0,0,0,,7,,,67,127
16750,note_on,1,0,0,,2,,,38,127
16894,note_off,144,0,0,,7,,,79,127
16915,note_on,21,0,0,,10,,,69,127
16915,note_on,0,0,0,,6,,,66,127
17079,note_off,164,0,0,,10,,,69,127
17080,note_on,1,0,0,,0,,,72,127
17244,note_off,164,0,0,,0,,,72,127
17244,note_off,0,0,0,,6,,,66,127
17244,note_off,0,0,0,,2,,,38,127
17245,note_on,1,0,0,,7,,,55,127
17245,note_on,0,0,0,,7,,,67,127
17245,note_on,0,0,0,,12,,,71,127
17409,note_off,164,0,0,,7,,,55,127
17410,note_on,1,0,0,,2,,,50,127
17574,note_off,164,0,0,,2,,,50,127
17574,note_off,0,0,0,,12,,,71,127
17574,note_off,0,0,0,,7,,,67,127
17575,note_on,1,0,0,,7,,,43,127
17575,note_on,0,0,0,,12,,,83,127
17739,note_off,164,0,0,,7,,,43,127
17740,note_on,1,0,0,,2,,,38,127
17884,note_off,144,0,0,,12,,,83,127
17905,note_on,21,0,0,,6,,,66,127
17905,note_on,0,0,0,,10,,,69,127
18069,note_off,164,0,0,,10,,,69,127
18070,note_on,1,0,0,,0,,,72,127
18234,note_off,164,0,0,,0,,,72,127
18234,note_off,0,0,0,,6,,,66,127
18234,note_off,0,0,0,,2,,,38,127
18235,note_on,1,0,0,,7,,,55,127
18235,note_on,0,0,0,,7,,,67,127
18235,note_on,0,0,0,,12,,,71,127
18399,note_off,164,0,0,,7,,,55,127
18400,note_on,1,0,0,,2,,,50,127
18564,note_off,164,0,0,,2,,,50,127
18564,note_off,0,0,0,,12,,,71,127
18564,note_off,0,0,0,,7,,,67,127
18565,note_on,1,0,0,,7,,,43,127
18565,note_on,0,0,0,,2,,,86,127
18729,note_off,164,0,0,,7,,,43,127
18730,note_on,1,0,0,,2,,,38,127
18874,note_off,144,0,0,,2,,,86,127
18895,note_on,21,0,0,,6,,,66,127
18895,note_on,0,0,0,,10,,,69,127
19059,note_off,164,0,0,,10,,,69,127
19060,note_on,1,0,0,,0,,,72,127
19224,note_off,164,0,0,,0,,,72,127
19224,note_off,0,0,0,,6,,,66,127
19224,note_off,0,0,0,,2,,,38,127
19225,note_on,1,0,0,,7,,,55,127
19225,note_on,0,0,0,,12,,,71,127
19225,note_on,0,0,0,,7,,,67,127
19389,note_off,164,0,0,,7,,,67,127
19389,note_off,0,0,0,,12,,,71,127
19390,note_on,1,0,0,,10,,,69,127
19390,note_on,0,0,0,,0,,,72,127
19554,note_off,164,0,0,,0,,,72,127
19554,note_off,0,0,0,,10,,,69,127
19554,note_off,0,0,0,,7,,,55,127
19555,note_on,1,0,0,,12,,,47,127
19555,note_on,0,0,0,,2,,,74,127
19555,note_on,0,0,0,,12,,,71,127
19719,note_off,164,0,0,,12,,,71,127
19719,note_off,0,0,0,,2,,,74,127
19719,note_off,0,0,0,,12,,,47,127
19720,note_on,1,0,0,,0,,,48,127
19720,note_on,0,0,0,,10,,,69,127
19720,note_on,0,0,0,,0,,,72,127
19884,note_off,164,0,0,,0,,,72,127
19884,note_off,0,0,0,,10,,,69,127
19885,note_on,1,0,0,,12,,,71,127
19885,note_on,0,0,0,,7,,,67,127
20049,note_off,164,0,0,,7,,,67,127
20049,note_off,0,0,0,,12,,,71,127
20049,note_off,0,0,0,,0,,,48,127
20050,note_on,1,0,0,,2,,,50,127
20050,note_on,0,0,0,,10,,,69,127
20050,note_on,0,0,0,,6,,,66,127
20204,note_off,154,0,0,,6,,,66,127
20204,note_off,0,0,0,,10,,,69,127
20213,note_off,9,0,0,,2,,,50,127
20214,note_on,1,0,0,,12,,,47,127
20214,note_on,0,0,0,,12,,,71,127
20214,note_on,0,0,0,,2,,,74,127
20378,note_off,164,0,0,,2,,,74,127
20378,note_off,0,0,0,,12,,,71,127
20379,note_on,1,0,0,,10,,,69,127
20379,note_on,0,0,0,,0,,,72,127
20543,note_off,164,0,0,,0,,,72,127
20543,note_off,0,0,0,,10,,,69,127
20543,note_off,0,0,0,,12,,,47,127
20544,note_on,1,0,0,,4,,,52,127
20544,note_on,0,0,0,,12,,,71,127
20544,note_on,0,0,0,,7,,,67,127
20708,note_off,164,0,0,,7,,,67,127
20708,note_off,0,0,0,,12,,,71,127
20708,note_off,0,0,0,,4,,,52,127
20709,note_on,1,0,0,,0,,,48,127
20709,note_on,0,0,0,,0,,,72,127
20709,note_on,0,0,0,,10,,,69,127
20873,note_off,164,0,0,,10,,,69,127
20873,note_off,0,0,0,,0,,,72,127
20874,note_on,1,0,0,,12,,,71,127
20874,note_on,0,0,0,,7,,,67,127
21038,note_off,164,0,0,,7,,,67,127
21038,note_off,0,0,0,,12,,,71,127
21038,note_off,0,0,0,,0,,,48,127
21039,note_on,1,0,0,,2,,,50,127
21039,note_on,0,0,0,,6,,,66,127
21039,note_on,0,0,0,,10,,,69,127
21185,note_off,146,0,0,,10,,,69,127
21185,note_off,0,0,0,,6,,,66,127
21203,note_off,18,0,0,,2,,,50,127
21204,note_on,1,0,0,,12,,,47,127
21204,note_on,0,0,0,,12,,,71,127
21204,note_on,0,0,0,,2,,,74,127
21368,note_off,164,0,0,,2,,,74,127
21368,note_off,0,0,0,,12,,,71,127
21369,note_on,1,0,0,,10,,,69,127
21369,note_on,0,0,0,,0,,,72,127
21533,note_off,164,0,0,,0,,,72,127
21533,note_off,0,0,0,,10,,,69,127
21533,note_off,0,0,0,,12,,,47,127
21534,note_on,1,0,0,,4,,,52,127
21534,note_on,0,0,0,,7,,,67,127
21534,note_on,0,0,0,,12,,,71,127
21698,note_off,164,0,0,,12,,,71,127
21698,note_off,0,0,0,,7,,,67,127
21698,note_off,0,0,0,,4,,,52,127
21699,note_on,1,0,0,,0,,,48,127
21699,note_on,0,0,0,,0,,,72,127
21699,note_on,0,0,0,,10,,,69,127
21863,note_off,164,0,0,,10,,,69,127
21863,note_off,0,0,0,,0,,,72,127
21864,note_on,1,0,0,,12,,,71,127
21864,note_on,0,0,0,,7,,,67,127
22028,note_off,164,0,0,,7,,,67,127
22028,note_off,0,0,0,,12,,,71,127
22028,note_off,0,0,0,,0,,,48,127
22029,note_on,1,0,0,,2,,,50,127
22029,note_on,0,0,0,,6,,,66,127
22029,note_on,0,0,0,,10,,,69,127
22166,note_off,137,0,0,,10,,,69,127
22166,note_off,0,0,0,,6,,,66,127
22193,note_off,27,0,0,,2,,,50,127
22194,note_on,1,0,0,,12,,,47,127
22194,note_on,0,0,0,,12,,,71,127
22194,note_on,0,0,0,,2,,,74,127
22358,note_off,164,0,0,,2,,,74,127
22358,note_off,0,0,0,,12,,,71,127
22359,note_on,1,0,0,,10,,,69,127
22359,note_on,0,0,0,,0,,,72,127
22523,note_off,164,0,0,,0,,,72,127
22523,note_off,0,0,0,,10,,,69,127
22523,note_off,0,0,0,,12,,,47,127
22524,note_on,1,0,0,,4,,,52,127
22524,note_on,0,0,0,,12,,,71,127
22524,note_on,0,0,0,,7,,,67,127
22688,note_off,164,0,0,,7,,,67,127
22688,note_off,0,0,0,,12,,,71,127
22688,note_off,0,0,0,,4,,,52,127
22689,note_on,1,0,0,,0,,,48,127
22689,note_on,0,0,0,,12,,,71,127
22730,note_on,41,0,0,,10,,,69,127
22741,note_off,11,0,0,,12,,,71,127
22771,note_on,30,0,0,,12,,,71,127
22782,note_off,11,0,0,,10,,,69,127
22812,note_on,30,0,0,,10,,,69,127
22823,note_off,11,0,0,,12,,,71,127
22853,note_on,30,0,0,,7,,,67,127
22864,note_off,11,0,0,,10,,,69,127
23017,note_off,153,0,0,,7,,,67,127
23017,note_off,0,0,0,,0,,,48,127
23018,note_on,1,0,0,,2,,,50,127
23018,note_on,0,0,0,,6,,,66,127
23182,note_off,164,0,0,,6,,,66,127
23182,note_off,0,0,0,,2,,,50,127
23183,note_on,1,0,0,,7,,,43,127
23183,note_on,0,0,0,,7,,,67,127
23347,note_off,164,0,0,,7,,,67,127
23348,note_on,1,0,0,,2,,,62,127
23512,note_off,164,0,0,,2,,,62,127
23513,note_on,1,0,0,,12,,,59,127
23677,note_off,164,0,0,,12,,,59,127
23678,note_on,1,0,0,,7,,,55,127
23843,note_on,165,0,0,,2,,,50,127
24004,note_off,161,0,0,,7,,,55,127
24007,note_off,3,0,0,,2,,,50,127
24008,note_on,1,0,0,,12,,,47,127
24172,note_off,164,0,0,,12,,,47,127
24172,note_off,0,0,0,,7,,,43,127
24173,note_on,1,0,0,,7,,,43,127
24338,note_on,165,0,0,,2,,,38,127
24502,note_off,164,0,0,,2,,,38,127
24503,note_on,1,0,0,,12,,,35,127
24667,note_off,164,0,0,,12,,,35,127
24667,note_off,0,0,0,,7,,,43,127
24668,note_on,1,0,0,,7,,,31,127
24846,note_on,178,0,0,,7,,,79,127
24996,note_off,150,0,0,,7,,,31,127
25010,note_off,14,0,0,,7,,,79,127
25011,note_on,1,0,0,,3,,,75,127
25011,note_on,0,0,0,,0,,,72,127
25011,note_on,0,0,0,,7,,,67,127
25175,note_off,164,0,0,,7,,,67,127
25175,note_off,0,0,0,,0,,,72,127
25175,note_off,0,0,0,,3,,,75,127
25176,note_on,1,0,0,,3,,,75,127
25176,note_on,0,0,0,,5,,,77,127
25176,note_on,0,0,0,,7,,,67,127
25176,note_on,0,0,0,,12,,,71,127
25340,note_off,164,0,0,,5,,,77,127
25340,note_off,0,0,0,,3,,,75,127
25341,note_on,1,0,0,,2,,,74,127
25505,note_off,164,0,0,,2,,,74,127
25505,note_off,0,0,0,,12,,,71,127
25505,note_off,0,0,0,,7,,,67,127
25506,note_on,1,0,0,,2,,,74,127
25506,note_on,0,0,0,,7,,,67,127
25506,note_on,0,0,0,,12,,,71,127
25670,note_off,164,0,0,,12,,,71,127
25670,note_off,0,0,0,,7,,,67,127
25670,note_off,0,0,0,,2,,,74,127
25671,note_on,1,0,0,,2,,,74,127
25671,note_on,0,0,0,,3,,,75,127
25671,note_on,0,0,0,,8,,,68,127
25671,note_on,0,0,0,,7,,,67,127
25835,note_off,164,0,0,,3,,,75,127
25835,note_off,0,0,0,,2,,,74,127
25836,note_on,1,0,0,,0,,,72,127
26000,note_off,164,0,0,,0,,,72,127
26000,note_off,0,0,0,,7,,,67,127
26000,note_off,0,0,0,,8,,,68,127
26001,note_on,1,0,0,,0,,,72,127
26001,note_on,0,0,0,,8,,,68,127
26001,note_on,0,0,0,,5,,,65,127
26165,note_off,164,0,0,,5,,,65,127
26165,note_off,0,0,0,,8,,,68,127
26165,note_off,0,0,0,,0,,,72,127
26166,note_on,1,0,0,,0,,,72,127
26166,note_on,0,0,0,,2,,,74,127
26166,note_on,0,0,0,,7,,,67,127
26330,note_off,164,0,0,,2,,,74,127
26330,note_off,0,0,0,,0,,,72,127
26331,note_on,1,0,0,,12,,,71,127
26495,note_off,164,0,0,,12,,,71,127
26495,note_off,0,0,0,,7,,,67,127
26496,note_on,1,0,0,,12,,,71,127
26496,note_on,0,0,0,,7,,,67,127
26660,note_off,164,0,0,,7,,,67,127
26661,note_on,1,0,0,,0,,,72,127
26661,note_on,0,0,0,,7,,,67,127
26825,note_off,164,0,0,,12,,,71,127
26826,note_on,1,0,0,,7,,,79,127
26990,note_off,164,0,0,,7,,,79,127
26990,note_off,0,0,0,,7,,,67,127
26990,note_off,0,0,0,,0,,,72,127
26991,note_on,1,0,0,,3,,,75,127
26991,note_on,0,0,0,,0,,,72,127
26991,note_on,0,0,0,,7,,,67,127
27155,note_off,164,0,0,,7,,,67,127
27155,note_off,0,0,0,,0,,,72,127
27155,note_off,0,0,0,,3,,,75,127
27156,note_on,1,0,0,,5,,,77,127
27156,note_on,0,0,0,,3,,,75,127
27156,note_on,0,0,0,,7,,,67,127
27156,note_on,0,0,0,,12,,,71,127
27320,note_off,164,0,0,,3,,,75,127
27320,note_off,0,0,0,,5,,,77,127
27321,note_on,1,0,0,,2,,,74,127
27485,note_off,164,0,0,,2,,,74,127
27485,note_off,0,0,0,,12,,,71,127
27485,note_off,0,0,0,,7,,,67,127
27486,note_on,1,0,0,,2,,,74,127
27486,note_on,0,0,0,,7,,,67,127
27486,note_on,0,0,0,,12,,,71,127
27650,note_off,164,0,0,,12,,,71,127
27650,note_off,0,0,0,,7,,,67,127
27650,note_off,0,0,0,,2,,,74,127
27651,note_on,1,0,0,,3,,,75,127
27651,note_on,0,0,0,,2,,,74,127
27651,note_on,0,0,0,,7,,,67,127
27651,note_on,0,0,0,,8,,,68,127
27815,note_off,164,0,0,,2,,,74,127
27815,note_off,0,0,0,,3,,,75,127
27816,note_on,1,0,0,,0,,,72,127
27980,note_off,164,0,0,,0,,,72,127
27980,note_off,0,0,0,,8,,,68,127
27980,note_off,0,0,0,,7,,,67,127
27981,note_on,1,0,0,,0,,,72,127
27981,note_on,0,0,0,,8,,,68,127
27981,note_on,0,0,0,,5,,,65,127
28145,note_off,164,0,0,,5,,,65,127
28145,note_off,0,0,0,,8,,,68,127
28145,note_off,0,0,0,,0,,,72,127
28146,note_on,1,0,0,,2,,,74,127
28146,note_on,0,0,0,,0,,,72,127
28146,note_on,0,0,0,,7,,,67,127
28310,note_off,164,0,0,,0,,,72,127
28310,note_off,0,0,0,,2,,,74,127
28311,note_on,1,0,0,,12,,,71,127
28475,note_off,164,0,0,,12,,,71,127
28475,note_off,0,0,0,,7,,,67,127
28476,note_on,1,0,0,,12,,,71,127
28476,note_on,0,0,0,,7,,,67,127
28651,note_off,175,0,0,,7,,,67,127
28651,note_off,0,0,0,,12,,,71,127
28654,note_on,3,0,0,,5,,,65,127
28654,note_on,0,0,0,,0,,,72,127
28654,note_on,0,0,0,,8,,,68,127
28819,note_on,165,0,0,,0,,,84,127
28983,note_off,164,0,0,,0,,,84,127
28983,note_off,0,0,0,,8,,,68,127
28983,note_off,0,0,0,,0,,,72,127
28983,note_off,0,0,0,,5,,,65,127
28984,note_on,1,0,0,,0,,,72,127
28984,note_on,0,0,0,,5,,,65,127
28984,note_on,0,0,0,,8,,,68,127
28984,note_on,0,0,0,,8,,,80,127
29148,note_off,164,0,0,,8,,,80,127
29148,note_off,0,0,0,,8,,,68,127
29148,note_off,0,0,0,,5,,,65,127
29148,note_off,0,0,0,,0,,,72,127
29149,note_on,1,0,0,,11,,,70,127
29149,note_on,0,0,0,,7,,,67,127
29149,note_on,0,0,0,,4,,,64,127
29149,note_on,0,0,0,,11,,,82,127
29149,note_on,0,0,0,,8,,,80,127
29313,note_off,164,0,0,,8,,,80,127
29313,note_off,0,0,0,,11,,,82,127
29314,note_on,1,0,0,,7,,,79,127
29478,note_off,164,0,0,,7,,,79,127
29478,note_off,0,0,0,,4,,,64,127
29478,note_off,0,0,0,,7,,,67,127
29478,note_off,0,0,0,,11,,,70,127
29479,note_on,1,0,0,,7,,,67,127
29479,note_on,0,0,0,,11,,,70,127
29479,note_on,0,0,0,,0,,,72,127
29479,note_on,0,0,0,,4,,,64,127
29479,note_on,0,0,0,,7,,,79,127
29643,note_off,164,0,0,,7,,,79,127
29643,note_off,0,0,0,,4,,,64,127
29643,note_off,0,0,0,,0,,,72,127
29643,note_off,0,0,0,,11,,,70,127
29643,note_off,0,0,0,,7,,,67,127
29644,note_on,1,0,0,,1,,,73,127
29644,note_on,0,0,0,,11,,,70,127
29644,note_on,0,0,0,,5,,,65,127
29644,note_on,0,0,0,,8,,,80,127
29644,note_on,0,0,0,,7,,,79,127
29808,note_off,164,0,0,,7,,,79,127
29808,note_off,0,0,0,,8,,,80,127
29809,note_on,1,0,0,,5,,,77,127
29973,note_off,164,0,0,,5,,,77,127
29973,note_off,0,0,0,,5,,,65,127
29973,note_off,0,0,0,,11,,,70,127
29973,note_off,0,0,0,,1,,,73,127
29974,note_on,1,0,0,,1,,,73,127
29974,note_on,0,0,0,,11,,,70,127
29974,note_on,0,0,0,,5,,,65,127
29974,note_on,0,0,0,,5,,,77,127
30138,note_off,164,0,0,,5,,,77,127
30138,note_off,0,0,0,,5,,,65,127
30138,note_off,0,0,0,,11,,,70,127
30138,note_off,0,0,0,,1,,,73,127
30139,note_on,1,0,0,,0,,,72,127
30139,note_on,0,0,0,,0,,,60,127
30139,note_on,0,0,0,,7,,,67,127
30139,note_on,0,0,0,,7,,,79,127
30139,note_on,0,0,0,,5,,,77,127
30303,note_off,164,0,0,,5,,,77,127
30303,note_off,0,0,0,,7,,,79,127
30304,note_on,1,0,0,,4,,,76,127
30468,note_off,164,0,0,,4,,,76,127
30468,note_off,0,0,0,,7,,,67,127
30468,note_off,0,0,0,,0,,,60,127
30468,note_off,0,0,0,,0,,,72,127
30469,note_on,1,0,0,,0,,,72,127
30469,note_on,0,0,0,,7,,,67,127
30469,note_on,0,0,0,,0,,,60,127
30469,note_on,0,0,0,,4,,,76,127
30633,note_off,164,0,0,,4,,,76,127
30633,note_off,0,0,0,,0,,,60,127
30633,note_off,0,0,0,,7,,,67,127
30633,note_off,0,0,0,,0,,,72,127
30634,note_on,1,0,0,,0,,,72,127
30634,note_on,0,0,0,,8,,,68,127
30634,note_on,0,0,0,,5,,,65,127
30799,note_on,165,0,0,,0,,,84,127
30963,note_off,164,0,0,,0,,,84,127
30963,note_off,0,0,0,,5,,,65,127
30963,note_off,0,0,0,,8,,,68,127
30963,note_off,0,0,0,,0,,,72,127
30964,note_on,1,0,0,,5,,,65,127
30964,note_on,0,0,0,,0,,,72,127
30964,note_on,0,0,0,,8,,,68,127
30964,note_on,0,0,0,,8,,,80,127
31128,note_off,164,0,0,,8,,,80,127
31128,note_off,0,0,0,,8,,,68,127
31128,note_off,0,0,0,,0,,,72,127
31128,note_off,0,0,0,,5,,,65,127
31129,note_on,1,0,0,,0,,,72,127
31129,note_on,0,0,0,,7,,,67,127
31129,note_on,0,0,0,,11,,,70,127
31129,note_on,0,0,0,,4,,,64,127
31129,note_on,0,0,0,,8,,,80,127
31129,note_on,0,0,0,,11,,,82,127
31293,note_off,164,0,0,,11,,,82,127
31293,note_off,0,0,0,,8,,,80,127
31294,note_on,1,0,0,,7,,,79,127
31458,note_off,164,0,0,,7,,,79,127
31458,note_off,0,0,0,,4,,,64,127
31458,note_off,0,0,0,,11,,,70,127
31458,note_off,0,0,0,,7,,,67,127
31458,note_off,0,0,0,,0,,,72,127
31459,note_on,1,0,0,,7,,,67,127
31459,note_on,0,0,0,,11,,,70,127
31459,note_on,0,0,0,,0,,,72,127
31459,note_on,0,0,0,,4,,,64,127
31459,note_on,0,0,0,,7,,,79,127
31623,note_off,164,0,0,,7,,,79,127
31623,note_off,0,0,0,,4,,,64,127
31623,note_off,0,0,0,,0,,,72,127
31623,note_off,0,0,0,,11,,,70,127
31623,note_off,0,0,0,,7,,,67,127
31624,note_on,1,0,0,,5,,,65,127
31624,note_on,0,0,0,,1,,,73,127
31624,note_on,0,0,0,,11,,,70,127
31624,note_on,0,0,0,,7,,,79,127
31624,note_on,0,0,0,,8,,,80,127
31788,note_off,164,0,0,,8,,,80,127
31788,note_off,0,0,0,,7,,,79,127
31789,note_on,1,0,0,,5,,,77,127
31953,note_off,164,0,0,,5,,,77,127
31953,note_off,0,0,0,,11,,,70,127
31953,note_off,0,0,0,,1,,,73,127
31953,note_off,0,0,0,,5,,,65,127
31954,note_on,1,0,0,,11,,,70,127
31954,note_on,0,0,0,,1,,,73,127
31954,note_on,0,0,0,,5,,,65,127
31954,note_on,0,0,0,,5,,,77,127
32118,note_off,164,0,0,,5,,,77,127
32118,note_off,0,0,0,,5,,,65,127
32118,note_off,0,0,0,,1,,,73,127
32118,note_off,0,0,0,,11,,,70,127
32119,note_on,1,0,0,,0,,,72,127
32119,note_on,0,0,0,,0,,,60,127
32119,note_on,0,0,0,,7,,,67,127
32119,note_on,0,0,0,,7,,,79,127
32119,note_on,0,0,0,,5,,,77,127
32283,note_off,164,0,0,,5,,,77,127
32283,note_off,0,0,0,,7,,,79,127
32284,note_on,1,0,0,,4,,,76,127
32448,note_off,164,0,0,,4,,,76,127
32448,note_off,0,0,0,,7,,,67,127
32448,note_off,0,0,0,,0,,,60,127
32448,note_off,0,0,0,,0,,,72,127
32449,note_on,1,0,0,,7,,,67,127
32449,note_on,0,0,0,,0,,,60,127
32449,note_on,0,0,0,,0,,,72,127
32449,note_on,0,0,0,,4,,,76,127
32613,note_off,164,0,0,,0,,,72,127
32613,note_off,0,0,0,,0,,,60,127
32613,note_off,0,0,0,,7,,,67,127
32614,note_on,1,0,0,,7,,,67,127
32614,note_on,0,0,0,,0,,,72,127
32614,note_on,0,0,0,,4,,,64,127
32778,note_off,164,0,0,,4,,,76,127
32793,note_on,15,0,0,,7,,,79,127
32943,note_off,150,0,0,,4,,,64,127
32943,note_off,0,0,0,,0,,,72,127
32943,note_off,0,0,0,,7,,,67,127
32957,note_off,14,0,0,,7,,,79,127
32958,note_on,1,0,0,,7,,,79,127
32958,note_on,0,0,0,,4,,,64,127
32958,note_on,0,0,0,,7,,,67,127
32958,note_on,0,0,0,,0,,,72,127
33122,note_off,164,0,0,,0,,,72,127
33122,note_off,0,0,0,,7,,,67,127
33122,note_off,0,0,0,,4,,,64,127
33122,note_off,0,0,0,,7,,,79,127
33123,note_on,1,0,0,,7,,,79,127
33123,note_on,0,0,0,,5,,,65,127
33123,note_on,0,0,0,,8,,,68,127
33123,note_on,0,0,0,,0,,,72,127
33287,note_off,164,0,0,,7,,,79,127
33288,note_on,1,0,0,,11,,,82,127
33452,note_off,164,0,0,,11,,,82,127
33452,note_off,0,0,0,,0,,,72,127
33452,note_off,0,0,0,,8,,,68,127
33452,note_off,0,0,0,,5,,,65,127
33453,note_on,1,0,0,,8,,,80,127
33453,note_on,0,0,0,,0,,,72,127
33453,note_on,0,0,0,,8,,,68,127
33453,note_on,0,0,0,,5,,,65,127
33617,note_off,164,0,0,,5,,,65,127
33617,note_off,0,0,0,,8,,,68,127
33617,note_off,0,0,0,,0,,,72,127
33618,note_on,1,0,0,,2,,,62,127
33618,note_on,0,0,0,,5,,,65,127
33782,note_off,164,0,0,,8,,,80,127
33783,note_on,1,0,0,,5,,,77,127
33947,note_off,164,0,0,,5,,,77,127
33947,note_off,0,0,0,,5,,,65,127
33947,note_off,0,0,0,,2,,,62,127
33948,note_on,1,0,0,,5,,,77,127
33948,note_on,0,0,0,,5,,,65,127
33948,note_on,0,0,0,,2,,,62,127
34112,note_off,164,0,0,,2,,,62,127
34112,note_off,0,0,0,,5,,,65,127
34112,note_off,0,0,0,,5,,,77,127
34113,note_on,1,0,0,,6,,,78,127
34113,note_on,0,0,0,,7,,,67,127
34113,note_on,0,0,0,,3,,,63,127
34277,note_off,164,0,0,,6,,,78,127
34278,note_on,1,0,0,,8,,,80,127
34442,note_off,164,0,0,,8,,,80,127
34442,note_off,0,0,0,,3,,,63,127
34442,note_off,0,0,0,,7,,,67,127
34443,note_on,1,0,0,,7,,,79,127
34443,note_on,0,0,0,,7,,,67,127
34443,note_on,0,0,0,,3,,,63,127
34607,note_off,164,0,0,,3,,,63,127
34607,note_off,0,0,0,,7,,,67,127
34608,note_on,1,0,0,,3,,,63,127
34608,note_on,0,0,0,,0,,,60,127
34772,note_off,164,0,0,,7,,,79,127
34773,note_on,1,0,0,,3,,,75,127
34937,note_off,164,0,0,,3,,,75,127
34937,note_off,0,0,0,,0,,,60,127
34937,note_off,0,0,0,,3,,,63,127
34938,note_on,1,0,0,,3,,,75,127
34938,note_on,0,0,0,,3,,,63,127
34938,note_on,0,0,0,,0,,,60,127
35102,note_off,164,0,0,,0,,,60,127
35102,note_off,0,0,0,,3,,,63,127
35102,note_off,0,0,0,,3,,,75,127
35103,note_on,1,0,0,,4,,,76,127
35103,note_on,0,0,0,,2,,,62,127
35103,note_on,0,0,0,,5,,,65,127
35267,note_off,164,0,0,,4,,,76,127
35268,note_on,1,0,0,,7,,,79,127
35432,note_off,164,0,0,,7,,,79,127
35432,note_off,0,0,0,,5,,,65,127
35432,note_off,0,0,0,,2,,,62,127
35433,note_on,1,0,0,,5,,,77,127
35433,note_on,0,0,0,,5,,,65,127
35433,note_on,0,0,0,,2,,,62,127
35597,note_off,164,0,0,,2,,,62,127
35597,note_off,0,0,0,,5,,,65,127
35598,note_on,1,0,0,,2,,,62,127
35598,note_on,0,0,0,,12,,,59,127
35762,note_off,164,0,0,,5,,,77,127
35763,note_on,1,0,0,,2,,,74,127
35927,note_off,164,0,0,,2,,,74,127
35927,note_off,0,0,0,,12,,,59,127
35927,note_off,0,0,0,,2,,,62,127
35928,note_on,1,0,0,,2,,,74,127
35928,note_on,0,0,0,,2,,,62,127
35928,note_on,0,0,0,,12,,,59,127
36092,note_off,164,0,0,,12,,,59,127
36092,note_off,0,0,0,,2,,,62,127
36092,note_off,0,0,0,,2,,,74,127
36093,note_on,1,0,0,,3,,,75,127
36093,note_on,0,0,0,,3,,,63,127
36093,note_on,0,0,0,,0,,,60,127
36093,note_on,0,0,0,,7,,,67,127
36257,note_off,164,0,0,,3,,,75,127
36258,note_on,1,0,0,,7,,,79,127
36422,note_off,164,0,0,,7,,,79,127
36422,note_off,0,0,0,,7,,,67,127
36422,note_off,0,0,0,,0,,,60,127
36422,note_off,0,0,0,,3,,,63,127
36423,note_on,1,0,0,,3,,,75,127
36423,note_on,0,0,0,,3,,,63,127
36423,note_on,0,0,0,,0,,,60,127
36423,note_on,0,0,0,,7,,,67,127
36587,note_off,164,0,0,,7,,,67,127
36587,note_off,0,0,0,,0,,,60,127
36587,note_off,0,0,0,,3,,,63,127
36587,note_off,0,0,0,,3,,,75,127
36588,note_on,1,0,0,,2,,,74,127
36588,note_on,0,0,0,,7,,,67,127
36588,note_on,0,0,0,,2,,,62,127
36588,note_on,0,0,0,,11,,,58,127
36752,note_off,164,0,0,,2,,,74,127
36753,note_on,1,0,0,,7,,,79,127
36917,note_off,164,0,0,,7,,,79,127
36917,note_off,0,0,0,,11,,,58,127
36917,note_off,0,0,0,,2,,,62,127
36917,note_off,0,0,0,,7,,,67,127
36918,note_on,1,0,0,,2,,,74,127
36918,note_on,0,0,0,,7,,,67,127
36918,note_on,0,0,0,,2,,,62,127
36918,note_on,0,0,0,,11,,,58,127
37082,note_off,164,0,0,,11,,,58,127
37082,note_off,0,0,0,,2,,,62,127
37082,note_off,0,0,0,,7,,,67,127
37082,note_off,0,0,0,,2,,,74,127
37083,note_on,1,0,0,,0,,,72,127
37083,note_on,0,0,0,,8,,,56,127
37083,note_on,0,0,0,,7,,,67,127
37083,note_on,0,0,0,,0,,,60,127
37247,note_off,164,0,0,,0,,,72,127
37248,note_on,1,0,0,,12,,,71,127
37412,note_off,164,0,0,,12,,,71,127
37412,note_off,0,0,0,,0,,,60,127
37412,note_off,0,0,0,,7,,,67,127
37412,note_off,0,0,0,,8,,,56,127
37413,note_on,1,0,0,,0,,,72,127
37413,note_on,0,0,0,,7,,,67,127
37413,note_on,0,0,0,,0,,,60,127
37413,note_on,0,0,0,,8,,,56,127
37577,note_off,164,0,0,,8,,,56,127
37577,note_off,0,0,0,,0,,,60,127
37577,note_off,0,0,0,,7,,,67,127
37577,note_off,0,0,0,,0,,,72,127
37578,note_on,1,0,0,,2,,,74,127
37578,note_on,0,0,0,,5,,,77,127
37578,note_on,0,0,0,,0,,,60,127
37578,note_on,0,0,0,,8,,,56,127
37578,note_on,0,0,0,,5,,,65,127
37619,note_on,41,0,0,,0,,,72,127
37630,note_off,11,0,0,,2,,,74,127
37660,note_on,30,0,0,,2,,,74,127
37671,note_off,11,0,0,,0,,,72,127
37701,note_on,30,0,0,,0,,,72,127
37712,note_off,11,0,0,,2,,,74,127
37742,note_on,30,0,0,,12,,,71,127
37753,note_off,11,0,0,,0,,,72,127
37906,note_off,153,0,0,,12,,,71,127
37906,note_off,0,0,0,,5,,,65,127
37906,note_off,0,0,0,,8,,,56,127
37906,note_off,0,0,0,,0,,,60,127
37907,note_on,1,0,0,,0,,,72,127
37907,note_on,0,0,0,,0,,,60,127
37907,note_on,0,0,0,,8,,,56,127
37907,note_on,0,0,0,,5,,,65,127
38071,note_off,164,0,0,,5,,,65,127
38071,note_off,0,0,0,,8,,,56,127
38071,note_off,0,0,0,,0,,,60,127
38071,note_off,0,0,0,,0,,,72,127
38071,note_off,0,0,0,,5,,,77,127
38072,note_on,1,0,0,,7,,,79,127
38072,note_on,0,0,0,,2,,,74,127
38072,note_on,0,0,0,,7,,,55,127
38072,note_on,0,0,0,,0,,,60,127
38072,note_on,0,0,0,,7,,,67,127
38072,note_on,0,0,0,,2,,,62,127
38236,note_off,164,0,0,,2,,,74,127
38237,note_on,1,0,0,,3,,,75,127
38401,note_off,164,0,0,,3,,,75,127
38401,note_off,0,0,0,,2,,,62,127
38401,note_off,0,0,0,,7,,,67,127
38401,note_off,0,0,0,,0,,,60,127
38401,note_off,0,0,0,,7,,,55,127
38402,note_on,1,0,0,,2,,,74,127
38402,note_on,0,0,0,,7,,,55,127
38402,note_on,0,0,0,,2,,,62,127
38402,note_on,0,0,0,,0,,,60,127
38402,note_on,0,0,0,,7,,,67,127
38566,note_off,164,0,0,,7,,,67,127
38566,note_off,0,0,0,,0,,,60,127
38566,note_off,0,0,0,,2,,,62,127
38566,note_off,0,0,0,,7,,,55,127
38566,note_off,0,0,0,,2,,,74,127
38566,note_off,0,0,0,,7,,,79,127
38567,note_on,1,0,0,,5,,,77,127
38567,note_on,0,0,0,,2,,,74,127
38567,note_on,0,0,0,,5,,,65,127
38567,note_on,0,0,0,,0,,,60,127
38567,note_on,0,0,0,,8,,,56,127
38608,note_on,41,0,0,,0,,,72,127
38619,note_off,11,0,0,,2,,,74,127
38649,note_on,30,0,0,,2,,,74,127
38660,note_off,11,0,0,,0,,,72,127
38690,note_on,30,0,0,,0,,,72,127
38701,note_off,11,0,0,,2,,,74,127
38731,note_on,30,0,0,,12,,,71,127
38742,note_off,11,0,0,,0,,,72,127
38895,note_off,153,0,0,,12,,,71,127
38895,note_off,0,0,0,,8,,,56,127
38895,note_off,0,0,0,,0,,,60,127
38895,note_off,0,0,0,,5,,,65,127
38896,note_on,1,0,0,,0,,,72,127
38896,note_on,0,0,0,,8,,,56,127
38896,note_on,0,0,0,,5,,,65,127
38896,note_on,0,0,0,,0,,,60,127
39060,note_off,164,0,0,,0,,,60,127
39060,note_off,0,0,0,,5,,,65,127
39060,note_off,0,0,0,,8,,,56,127
39060,note_off,0,0,0,,0,,,72,127
39060,note_off,0,0,0,,5,,,77,127
39061,note_on,1,0,0,,7,,,79,127
39061,note_on,0,0,0,,2,,,74,127
39061,note_on,0,0,0,,0,,,60,127
39061,note_on,0,0,0,,7,,,55,127
39061,note_on,0,0,0,,2,,,62,127
39061,note_on,0,0,0,,7,,,67,127
39225,note_off,164,0,0,,2,,,74,127
39226,note_on,1,0,0,,3,,,75,127
39390,note_off,164,0,0,,3,,,75,127
39390,note_off,0,0,0,,7,,,67,127
39390,note_off,0,0,0,,2,,,62,127
39390,note_off,0,0,0,,7,,,55,127
39390,note_off,0,0,0,,0,,,60,127
39391,note_on,1,0,0,,2,,,74,127
39391,note_on,0,0,0,,7,,,55,127
39391,note_on,0,0,0,,0,,,60,127
39391,note_on,0,0,0,,7,,,67,127
39391,note_on,0,0,0,,2,,,62,127
39555,note_off,164,0,0,,2,,,62,127
39555,note_off,0,0,0,,7,,,67,127
39555,note_off,0,0,0,,0,,,60,127
39555,note_off,0,0,0,,7,,,55,127
39555,note_off,0,0,0,,2,,,74,127
39555,note_off,0,0,0,,7,,,79,127
39556,note_on,1,0,0,,2,,,74,127
39556,note_on,0,0,0,,5,,,77,127
39556,note_on,0,0,0,,8,,,56,127
39556,note_on,0,0,0,,0,,,60,127
39556,note_on,0,0,0,,5,,,65,127
39597,note_on,41,0,0,,0,,,72,127
39608,note_off,11,0,0,,2,,,74,127
39638,note_on,30,0,0,,2,,,74,127
39649,note_off,11,0,0,,0,,,72,127
39679,note_on,30,0,0,,0,,,72,127
39690,note_off,11,0,0,,2,,,74,127
39720,note_on,30,0,0,,12,,,71,127
39731,note_off,11,0,0,,0,,,72,127
39884,note_off,153,0,0,,12,,,71,127
39884,note_off,0,0,0,,5,,,65,127
39884,note_off,0,0,0,,0,,,60,127
39884,note_off,0,0,0,,8,,,56,127
39885,note_on,1,0,0,,0,,,72,127
39885,note_on,0,0,0,,8,,,56,127
39885,note_on,0,0,0,,5,,,65,127
39885,note_on,0,0,0,,0,,,60,127
40049,note_off,164,0,0,,0,,,60,127
40049,note_off,0,0,0,,5,,,65,127
40049,note_off,0,0,0,,8,,,56,127
40049,note_off,0,0,0,,0,,,72,127
40049,note_off,0,0,0,,5,,,77,127
40050,note_on,1,0,0,,2,,,74,127
40050,note_on,0,0,0,,12,,,59,127
40050,note_on,0,0,0,,7,,,55,127
40050,note_on,0,0,0,,7,,,67,127
40050,note_on,0,0,0,,2,,,62,127
40091,note_on,41,0,0,,7,,,79,127
40103,note_off,12,0,0,,2,,,74,127
40132,note_on,29,0,0,,5,,,77,127
40144,note_off,12,0,0,,7,,,79,127
40177,note_on,33,0,0,,3,,,75,127
40180,note_off,3,0,0,,5,,,77,127
40223,note_on,43,0,0,,2,,,74,127
40225,note_off,2,0,0,,3,,,75,127
40269,note_on,44,0,0,,0,,,72,127
40271,note_off,2,0,0,,2,,,74,127
40315,note_on,44,0,0,,12,,,71,127
40317,note_off,2,0,0,,0,,,72,127
40361,note_on,44,0,0,,10,,,69,127
40363,note_off,2,0,0,,12,,,71,127
40380,note_off,17,0,0,,7,,,67,127
40406,note_on,26,0,0,,7,,,67,127
40409,note_off,3,0,0,,10,,,69,127
40452,note_on,43,0,0,,5,,,65,127
40454,note_off,2,0,0,,7,,,67,127
40498,note_on,44,0,0,,3,,,63,127
40500,note_off,2,0,0,,5,,,65,127
40505,note_off,5,0,0,,2,,,62,127
40544,note_on,39,0,0,,2,,,62,127
40546,note_off,2,0,0,,3,,,63,127
40588,note_off,42,0,0,,12,,,59,127
40590,note_on,2,0,0,,0,,,60,127
40592,note_off,2,0,0,,2,,,62,127
40635,note_on,43,0,0,,12,,,59,127
40638,note_off,3,0,0,,0,,,60,127
40671,note_off,33,0,0,,7,,,55,127
40680,note_on,9,0,0,,10,,,57,127
40682,note_off,2,0,0,,12,,,59,127
40726,note_on,44,0,0,,7,,,55,127
40728,note_off,2,0,0,,10,,,57,127
40772,note_on,44,0,0,,5,,,53,127
40774,note_off,2,0,0,,7,,,55,127
40818,note_on,44,0,0,,3,,,51,127
40820,note_off,2,0,0,,5,,,53,127
40863,note_on,43,0,0,,2,,,50,127
40866,note_off,3,0,0,,3,,,51,127
40909,note_on,43,0,0,,0,,,48,127
40911,note_off,2,0,0,,2,,,50,127
40955,note_on,44,0,0,,12,,,47,127
40957,note_off,2,0,0,,0,,,48,127
41001,note_on,44,0,0,,10,,,45,127
41003,note_off,2,0,0,,12,,,47,127
41047,note_on,44,0,0,,7,,,43,127
41049,note_off,2,0,0,,10,,,45,127
41092,note_on,43,0,0,,6,,,42,127
41095,note_off,3,0,0,,7,,,43,127
41127,note_off,32,0,0,,6,,,42,127
41143,note_on,16,0,0,,7,,,43,127
41145,note_on,2,0,0,,7,,,31,127
41872,note_off,727,0,0,,7,,,43,127
41874,note_off,2,0,0,,7,,,31,127
42050,note_on,176,0,0,,4,,,76,127
42050,note_on,0,0,0,,7,,,79,127
42214,note_off,164,0,0,,7,,,79,127
42214,note_off,0,0,0,,4,,,76,127
42215,note_on,1,0,0,,2,,,74,127
42215,note_on,0,0,0,,5,,,77,127
42379,note_off,164,0,0,,5,,,77,127
42379,note_off,0,0,0,,2,,,74,127
42380,note_on,1,0,0,,0,,,72,127
42380,note_on,0,0,0,,4,,,76,127
42544,note_off,164,0,0,,4,,,76,127
42544,note_off,0,0,0,,0,,,72,127
42545,note_on,1,0,0,,0,,,72,127
42545,note_on,0,0,0,,4,,,76,127
42709,note_off,164,0,0,,4,,,76,127
42709,note_off,0,0,0,,0,,,72,127
42710,note_on,1,0,0,,7,,,67,127
42710,note_on,0,0,0,,2,,,74,127
42874,note_off,164,0,0,,2,,,74,127
42874,note_off,0,0,0,,7,,,67,127
42875,note_on,1,0,0,,4,,,64,127
42875,note_on,0,0,0,,0,,,72,127
43039,note_off,164,0,0,,0,,,72,127
43039,note_off,0,0,0,,4,,,64,127
43040,note_on,1,0,0,,4,,,64,127
43040,note_on,0,0,0,,0,,,72,127
43204,note_off,164,0,0,,0,,,72,127
43204,note_off,0,0,0,,4,,,64,127
43205,note_on,1,0,0,,7,,,67,127
43205,note_on,0,0,0,,2,,,74,127
43369,note_off,164,0,0,,2,,,74,127
43369,note_off,0,0,0,,7,,,67,127
43370,note_on,1,0,0,,0,,,72,127
43370,note_on,0,0,0,,5,,,77,127
43411,note_on,41,0,0,,4,,,76,127
43422,note_off,11,0,0,,5,,,77,127
43452,note_on,30,0,0,,5,,,77,127
43463,note_off,11,0,0,,4,,,76,127
43493,note_on,30,0,0,,4,,,76,127
43504,note_off,11,0,0,,5,,,77,127
43534,note_on,30,0,0,,5,,,77,127
43545,note_off,11,0,0,,4,,,76,127
43575,note_on,30,0,0,,4,,,76,127
43586,note_off,11,0,0,,5,,,77,127
43616,note_on,30,0,0,,5,,,77,127
43627,note_off,11,0,0,,4,,,76,127
43657,note_on,30,0,0,,4,,,76,127
43668,note_off,11,0,0,,5,,,77,127
43697,note_off,29,0,0,,0,,,72,127
43698,note_on,1,0,0,,7,,,67,127
43698,note_on,0,0,0,,2,,,74,127
43709,note_off,11,0,0,,4,,,76,127
43862,note_off,153,0,0,,2,,,74,127
43862,note_off,0,0,0,,7,,,67,127
43863,note_on,1,0,0,,7,,,67,127
43863,note_on,0,0,0,,2,,,74,127
44017,note_off,154,0,0,,2,,,74,127
44017,note_off,0,0,0,,7,,,67,127
44027,note_on,10,0,0,,4,,,76,127
44027,note_on,0,0,0,,7,,,79,127
44191,note_off,164,0,0,,7,,,79,127
44191,note_off,0,0,0,,4,,,76,127
44192,note_on,1,0,0,,2,,,74,127
44192,note_on,0,0,0,,5,,,77,127
44356,note_off,164,0,0,,5,,,77,127
44356,note_off,0,0,0,,2,,,74,127
44357,note_on,1,0,0,,0,,,72,127
44357,note_on,0,0,0,,4,,,76,127
44521,note_off,164,0,0,,4,,,76,127
44521,note_off,0,0,0,,0,,,72,127
44522,note_on,1,0,0,,0,,,72,127
44522,note_on,0,0,0,,4,,,76,127
44686,note_off,164,0,0,,4,,,76,127
44686,note_off,0,0,0,,0,,,72,127
44687,note_on,1,0,0,,7,,,67,127
44687,note_on,0,0,0,,2,,,74,127
44851,note_off,164,0,0,,2,,,74,127
44851,note_off,0,0,0,,7,,,67,127
44852,note_on,1,0,0,,4,,,64,127
44852,note_on,0,0,0,,0,,,72,127
45016,note_off,164,0,0,,0,,,72,127
45016,note_off,0,0,0,,4,,,64,127
45017,note_on,1,0,0,,4,,,64,127
45017,note_on,0,0,0,,0,,,72,127
45181,note_off,164,0,0,,0,,,72,127
45181,note_off,0,0,0,,4,,,64,127
45182,note_on,1,0,0,,7,,,67,127
45182,note_on,0,0,0,,2,,,74,127
45346,note_off,164,0,0,,2,,,74,127
45346,note_off,0,0,0,,7,,,67,127
45347,note_on,1,0,0,,0,,,72,127
45347,note_on,0,0,0,,5,,,77,127
45388,note_on,41,0,0,,4,,,76,127
45399,note_off,11,0,0,,5,,,77,127
45429,note_on,30,0,0,,5,,,77,127
45440,note_off,11,0,0,,4,,,76,127
45470,note_on,30,0,0,,4,,,76,127
45481,note_off,11,0,0,,5,,,77,127
45511,note_on,30,0,0,,5,,,77,127
45522,note_off,11,0,0,,4,,,76,127
45552,note_on,30,0,0,,4,,,76,127
45563,note_off,11,0,0,,5,,,77,127
45593,note_on,30,0,0,,5,,,77,127
45604,note_off,11,0,0,,4,,,76,127
45634,note_on,30,0,0,,4,,,76,127
45645,note_off,11,0,0,,5,,,77,127
45674,note_off,29,0,0,,0,,,72,127
45675,note_on,1,0,0,,7,,,67,127
45675,note_on,0,0,0,,2,,,74,127
45686,note_off,11,0,0,,4,,,76,127
45839,note_off,153,0,0,,2,,,74,127
45839,note_off,0,0,0,,7,,,67,127
45840,note_on,1,0,0,,7,,,67,127
45840,note_on,0,0,0,,2,,,74,127
45994,note_off,154,0,0,,2,,,74,127
45994,note_off,0,0,0,,7,,,67,127
46004,note_on,10,0,0,,0,,,84,127
46168,note_off,164,0,0,,0,,,84,127
46169,note_on,1,0,0,,10,,,69,127
46169,note_on,0,0,0,,0,,,72,127
46169,note_on,0,0,0,,5,,,65,127
46169,note_on,0,0,0,,10,,,81,127
46333,note_off,164,0,0,,10,,,81,127
46333,note_off,0,0,0,,5,,,65,127
46333,note_off,0,0,0,,0,,,72,127
46333,note_off,0,0,0,,10,,,69,127
46334,note_on,1,0,0,,4,,,64,127
46334,note_on,0,0,0,,7,,,67,127
46334,note_on,0,0,0,,0,,,72,127
46334,note_on,0,0,0,,12,,,83,127
46375,note_on,41,0,0,,10,,,81,127
46386,note_off,11,0,0,,12,,,83,127
46416,note_on,30,0,0,,12,,,83,127
46427,note_off,11,0,0,,10,,,81,127
46457,note_on,30,0,0,,10,,,81,127
46468,note_off,11,0,0,,12,,,83,127
46498,note_on,30,0,0,,12,,,83,127
46509,note_off,11,0,0,,10,,,81,127
46539,note_on,30,0,0,,10,,,81,127
46550,note_off,11,0,0,,12,,,83,127
46580,note_on,30,0,0,,12,,,83,127
46591,note_off,11,0,0,,10,,,81,127
46621,note_on,30,0,0,,10,,,81,127
46632,note_off,11,0,0,,12,,,83,127
46661,note_off,29,0,0,,0,,,72,127
46661,note_off,0,0,0,,7,,,67,127
46661,note_off,0,0,0,,4,,,64,127
46662,note_on,1,0,0,,4,,,64,127
46662,note_on,0,0,0,,7,,,67,127
46662,note_on,0,0,0,,0,,,72,127
46662,note_on,0,0,0,,7,,,79,127
46673,note_off,11,0,0,,10,,,81,127
46826,note_off,153,0,0,,7,,,79,127
46826,note_off,0,0,0,,0,,,72,127
46826,note_off,0,0,0,,7,,,67,127
46826,note_off,0,0,0,,4,,,64,127
46827,note_on,1,0,0,,5,,,65,127
46827,note_on,0,0,0,,12,,,71,127
46827,note_on,0,0,0,,2,,,62,127
46992,note_on,165,0,0,,0,,,84,127
47156,note_off,164,0,0,,0,,,84,127
47156,note_off,0,0,0,,2,,,62,127
47156,note_off,0,0,0,,12,,,71,127
47156,note_off,0,0,0,,5,,,65,127
47157,note_on,1,0,0,,12,,,71,127
47157,note_on,0,0,0,,2,,,62,127
47157,note_on,0,0,0,,5,,,65,127
47157,note_on,0,0,0,,5,,,77,127
47321,note_off,164,0,0,,5,,,77,127
47321,note_off,0,0,0,,5,,,65,127
47321,note_off,0,0,0,,2,,,62,127
47321,note_off,0,0,0,,12,,,71,127
47322,note_on,1,0,0,,7,,,67,127
47322,note_on,0,0,0,,0,,,72,127
47322,note_on,0,0,0,,0,,,60,127
47322,note_on,0,0,0,,7,,,79,127
47363,note_on,41,0,0,,5,,,77,127
47374,note_off,11,0,0,,7,,,79,127
47404,note_on,30,0,0,,7,,,79,127
47415,note_off,11,0,0,,5,,,77,127
47445,note_on,30,0,0,,5,,,77,127
47456,note_off,11,0,0,,7,,,79,127
47486,note_on,30,0,0,,7,,,79,127
47497,note_off,11,0,0,,5,,,77,127
47527,note_on,30,0,0,,5,,,77,127
47538,note_off,11,0,0,,7,,,79,127
47568,note_on,30,0,0,,7,,,79,127
47579,note_off,11,0,0,,5,,,77,127
47609,note_on,30,0,0,,5,,,77,127
47620,note_off,11,0,0,,7,,,79,127
47649,note_off,29,0,0,,0,,,60,127
47649,note_off,0,0,0,,0,,,72,127
47649,note_off,0,0,0,,7,,,67,127
47650,note_on,1,0,0,,7,,,67,127
47650,note_on,0,0,0,,0,,,72,127
47650,note_on,0,0,0,,0,,,60,127
47650,note_on,0,0,0,,4,,,76,127
47661,note_off,11,0,0,,5,,,77,127
47814,note_off,153,0,0,,4,,,76,127
47814,note_off,0,0,0,,0,,,60,127
47814,note_off,0,0,0,,0,,,72,127
47814,note_off,0,0,0,,7,,,67,127
47815,note_on,1,0,0,,10,,,69,127
47815,note_on,0,0,0,,0,,,72,127
47815,note_on,0,0,0,,5,,,65,127
47980,note_on,165,0,0,,0,,,84,127
48144,note_off,164,0,0,,0,,,84,127
48144,note_off,0,0,0,,5,,,65,127
48144,note_off,0,0,0,,0,,,72,127
48144,note_off,0,0,0,,10,,,69,127
48145,note_on,1,0,0,,10,,,69,127
48145,note_on,0,0,0,,0,,,72,127
48145,note_on,0,0,0,,5,,,65,127
48145,note_on,0,0,0,,10,,,81,127
48309,note_off,164,0,0,,10,,,81,127
48309,note_off,0,0,0,,5,,,65,127
48309,note_off,0,0,0,,0,,,72,127
48309,note_off,0,0,0,,10,,,69,127
48310,note_on,1,0,0,,4,,,64,127
48310,note_on,0,0,0,,7,,,67,127
48310,note_on,0,0,0,,0,,,72,127
48310,note_on,0,0,0,,10,,,81,127
48310,note_on,0,0,0,,12,,,83,127
48474,note_off,164,0,0,,12,,,83,127
48474,note_off,0,0,0,,10,,,81,127
48475,note_on,1,0,0,,7,,,79,127
48639,note_off,164,0,0,,7,,,79,127
48639,note_off,0,0,0,,0,,,72,127
48639,note_off,0,0,0,,7,,,67,127
48639,note_off,0,0,0,,4,,,64,127
48640,note_on,1,0,0,,0,,,72,127
48640,note_on,0,0,0,,4,,,64,127
48640,note_on,0,0,0,,7,,,67,127
48640,note_on,0,0,0,,7,,,79,127
48804,note_off,164,0,0,,7,,,79,127
48804,note_off,0,0,0,,7,,,67,127
48804,note_off,0,0,0,,4,,,64,127
48804,note_off,0,0,0,,0,,,72,127
48805,note_on,1,0,0,,2,,,62,127
48805,note_on,0,0,0,,5,,,65,127
48805,note_on,0,0,0,,12,,,71,127
48805,note_on,0,0,0,,7,,,79,127
48805,note_on,0,0,0,,10,,,81,127
48969,note_off,164,0,0,,10,,,81,127
48969,note_off,0,0,0,,7,,,79,127
48970,note_on,1,0,0,,5,,,77,127
49134,note_off,164,0,0,,5,,,77,127
49134,note_off,0,0,0,,12,,,71,127
49134,note_off,0,0,0,,5,,,65,127
49134,note_off,0,0,0,,2,,,62,127
49135,note_on,1,0,0,,2,,,62,127
49135,note_on,0,0,0,,5,,,65,127
49135,note_on,0,0,0,,12,,,71,127
49135,note_on,0,0,0,,5,,,77,127
49299,note_off,164,0,0,,5,,,77,127
49299,note_off,0,0,0,,12,,,71,127
49299,note_off,0,0,0,,5,,,65,127
49299,note_off,0,0,0,,2,,,62,127
49300,note_on,1,0,0,,7,,,67,127
49300,note_on,0,0,0,,0,,,60,127
49300,note_on,0,0,0,,0,,,72,127
49300,note_on,0,0,0,,5,,,77,127
49300,note_on,0,0,0,,7,,,79,127
49464,note_off,164,0,0,,7,,,79,127
49464,note_off,0,0,0,,5,,,77,127
49465,note_on,1,0,0,,4,,,76,127
49629,note_off,164,0,0,,4,,,76,127
49629,note_off,0,0,0,,0,,,72,127
49629,note_off,0,0,0,,0,,,60,127
49629,note_off,0,0,0,,7,,,67,127
49630,note_on,1,0,0,,7,,,67,127
49630,note_on,0,0,0,,0,,,72,127
49630,note_on,0,0,0,,0,,,60,127
49630,note_on,0,0,0,,4,,,76,127
49794,note_off,164,0,0,,4,,,76,127
49794,note_off,0,0,0,,0,,,60,127
49794,note_off,0,0,0,,0,,,72,127
49794,note_off,0,0,0,,7,,,67,127
49795,note_on,1,0,0,,7,,,67,127
49795,note_on,0,0,0,,12,,,71,127
49795,note_on,0,0,0,,4,,,76,127
49795,note_on,0,0,0,,5,,,77,127
49959,note_off,164,0,0,,5,,,77,127
49959,note_off,0,0,0,,4,,,76,127
49960,note_on,1,0,0,,2,,,74,127
50124,note_off,164,0,0,,2,,,74,127
50124,note_off,0,0,0,,12,,,71,127
50124,note_off,0,0,0,,7,,,67,127
50125,note_on,1,0,0,,12,,,71,127
50125,note_on,0,0,0,,7,,,67,127
50125,note_on,0,0,0,,2,,,74,127
50289,note_off,164,0,0,,2,,,74,127
50289,note_off,0,0,0,,7,,,67,127
50289,note_off,0,0,0,,12,,,71,127
50290,note_on,1,0,0,,10,,,69,127
50290,note_on,0,0,0,,0,,,72,127
50454,note_off,164,0,0,,10,,,69,127
50455,note_on,1,0,0,,7,,,67,127
50619,note_off,164,0,0,,7,,,67,127
50619,note_off,0,0,0,,0,,,72,127
50620,note_on,1,0,0,,5,,,65,127
50620,note_on,0,0,0,,0,,,84,127
50784,note_off,164,0,0,,0,,,84,127
50784,note_off,0,0,0,,5,,,65,127
50785,note_on,1,0,0,,7,,,67,127
50785,note_on,0,0,0,,0,,,72,127
50785,note_on,0,0,0,,4,,,76,127
50949,note_off,164,0,0,,4,,,76,127
50950,note_on,1,0,0,,5,,,77,127
51114,note_off,164,0,0,,5,,,77,127
51114,note_off,0,0,0,,0,,,72,127
51114,note_off,0,0,0,,7,,,67,127
51115,note_on,1,0,0,,7,,,55,127
51115,note_on,0,0,0,,12,,,71,127
51115,note_on,0,0,0,,2,,,74,127
51279,note_off,164,0,0,,2,,,74,127
51279,note_off,0,0,0,,12,,,71,127
51279,note_off,0,0,0,,7,,,55,127
51287,note_on,8,0,0,,0,,,60,127
51287,note_on,0,0,0,,0,,,72,127
51451,note_off,164,0,0,,0,,,60,127
51459,note_on,8,0,0,,7,,,55,127
51623,note_off,164,0,0,,7,,,55,127
51624,note_on,1,0,0,,0,,,84,127
51624,note_on,0,0,0,,0,,,48,127
51788,note_off,164,0,0,,0,,,48,127
51789,note_on,1,0,0,,7,,,43,127
51933,note_off,144,0,0,,0,,,84,127
51946,note_off,13,0,0,,0,,,72,127
51954,note_on,8,0,0,,2,,,74,127
51954,note_on,0,0,0,,12,,,71,127
52118,note_off,164,0,0,,2,,,74,127
52119,note_on,1,0,0,,5,,,77,127
52283,note_off,164,0,0,,5,,,77,127
52283,note_off,0,0,0,,12,,,71,127
52283,note_off,0,0,0,,7,,,43,127
52284,note_on,1,0,0,,4,,,76,127
52284,note_on,0,0,0,,0,,,72,127
52284,note_on,0,0,0,,0,,,60,127
52448,note_off,164,0,0,,0,,,60,127
52449,note_on,1,0,0,,7,,,55,127
52613,note_off,164,0,0,,7,,,55,127
52613,note_off,0,0,0,,4,,,76,127
52614,note_on,1,0,0,,0,,,84,127
52614,note_on,0,0,0,,0,,,48,127
52778,note_off,164,0,0,,0,,,48,127
52779,note_on,1,0,0,,7,,,43,127
52923,note_off,144,0,0,,0,,,84,127
52943,note_off,20,0,0,,0,,,72,127
52944,note_on,1,0,0,,12,,,71,127
52944,note_on,0,0,0,,2,,,74,127
53108,note_off,164,0,0,,2,,,74,127
53109,note_on,1,0,0,,5,,,77,127
53273,note_off,164,0,0,,5,,,77,127
53273,note_off,0,0,0,,12,,,71,127
53273,note_off,0,0,0,,7,,,43,127
53274,note_on,1,0,0,,0,,,72,127
53274,note_on,0,0,0,,4,,,76,127
53274,note_on,0,0,0,,0,,,60,127
53438,note_off,164,0,0,,0,,,60,127
53439,note_on,1,0,0,,7,,,55,127
53603,note_off,164,0,0,,7,,,55,127
53603,note_off,0,0,0,,4,,,76,127
53604,note_on,1,0,0,,0,,,84,127
53604,note_on,0,0,0,,0,,,48,127
53768,note_off,164,0,0,,0,,,48,127
53769,note_on,1,0,0,,7,,,43,127
53913,note_off,144,0,0,,0,,,84,127
53933,note_off,20,0,0,,0,,,72,127
53934,note_on,1,0,0,,2,,,74,127
53934,note_on,0,0,0,,12,,,71,127
54098,note_off,164,0,0,,2,,,74,127
54099,note_on,1,0,0,,5,,,77,127
54263,note_off,164,0,0,,5,,,77,127
54263,note_off,0,0,0,,12,,,71,127
54263,note_off,0,0,0,,7,,,43,127
54264,note_on,1,0,0,,0,,,72,127
54264,note_on,0,0,0,,4,,,76,127
54264,note_on,0,0,0,,0,,,60,127
54428,note_off,164,0,0,,4,,,76,127
54428,note_off,0,0,0,,0,,,72,127
54429,note_on,1,0,0,,2,,,74,127
54429,note_on,0,0,0,,5,,,77,127
54593,note_off,164,0,0,,5,,,77,127
54593,note_off,0,0,0,,2,,,74,127
54593,note_off,0,0,0,,0,,,60,127
54594,note_on,1,0,0,,7,,,79,127
54594,note_on,0,0,0,,4,,,76,127
54594,note_on,0,0,0,,4,,,52,127
54758,note_off,164,0,0,,4,,,52,127
54758,note_off,0,0,0,,4,,,76,127
54758,note_off,0,0,0,,7,,,79,127
54759,note_on,1,0,0,,2,,,74,127
54759,note_on,0,0,0,,5,,,77,127
54759,note_on,0,0,0,,5,,,53,127
54923,note_off,164,0,0,,5,,,77,127
54923,note_off,0,0,0,,2,,,74,127
54924,note_on,1,0,0,,0,,,72,127
54924,note_on,0,0,0,,4,,,76,127
55088,note_off,164,0,0,,4,,,76,127
55088,note_off,0,0,0,,0,,,72,127
55088,note_off,0,0,0,,5,,,53,127
55089,note_on,1,0,0,,2,,,74,127
55089,note_on,0,0,0,,12,,,71,127
55089,note_on,0,0,0,,7,,,55,127
55253,note_off,164,0,0,,7,,,55,127
55253,note_off,0,0,0,,12,,,71,127
55253,note_off,0,0,0,,2,,,74,127
55254,note_on,1,0,0,,0,,,72,127
55254,note_on,0,0,0,,0,,,60,127
55418,note_off,164,0,0,,0,,,60,127
55419,note_on,1,0,0,,7,,,55,127
55583,note_off,164,0,0,,7,,,55,127
55584,note_on,1,0,0,,0,,,84,127
55584,note_on,0,0,0,,0,,,48,127
55748,note_off,164,0,0,,0,,,48,127
55748,note_off,0,0,0,,0,,,72,127
55749,note_on,1,0,0,,7,,,43,127
55876,note_off,127,0,0,,0,,,84,127
55914,note_on,38,0,0,,2,,,74,127
55914,note_on,0,0,0,,12,,,71,127
56078,note_off,164,0,0,,2,,,74,127
56079,note_on,1,0,0,,5,,,77,127
56243,note_off,164,0,0,,5,,,77,127
56243,note_off,0,0,0,,12,,,71,127
56243,note_off,0,0,0,,7,,,43,127
56244,note_on,1,0,0,,0,,,72,127
56244,note_on,0,0,0,,4,,,76,127
56244,note_on,0,0,0,,0,,,60,127
56408,note_off,164,0,0,,0,,,60,127
56409,note_on,1,0,0,,7,,,55,127
56573,note_off,164,0,0,,7,,,55,127
56573,note_off,0,0,0,,4,,,76,127
56574,note_on,1,0,0,,0,,,84,127
56574,note_on,0,0,0,,0,,,48,127
56738,note_off,164,0,0,,0,,,48,127
56738,note_off,0,0,0,,0,,,72,127
56739,note_on,1,0,0,,7,,,43,127
56866,note_off,127,0,0,,0,,,84,127
56904,note_on,38,0,0,,12,,,71,127
56904,note_on,0,0,0,,2,,,74,127
57068,note_off,164,0,0,,2,,,74,127
57069,note_on,1,0,0,,5,,,77,127
57233,note_off,164,0,0,,5,,,77,127
57233,note_off,0,0,0,,12,,,71,127
57233,note_off,0,0,0,,7,,,43,127
57234,note_on,1,0,0,,4,,,76,127
57234,note_on,0,0,0,,0,,,72,127
57234,note_on,0,0,0,,0,,,60,127
57398,note_off,164,0,0,,0,,,60,127
57399,note_on,1,0,0,,7,,,55,127
57563,note_off,164,0,0,,7,,,55,127
57563,note_off,0,0,0,,4,,,76,127
57564,note_on,1,0,0,,0,,,84,127
57564,note_on,0,0,0,,0,,,48,127
57728,note_off,164,0,0,,0,,,48,127
57728,note_off,0,0,0,,0,,,72,127
57729,note_on,1,0,0,,7,,,43,127
57839,note_off,110,0,0,,0,,,84,127
57908,note_on,69,0,0,,12,,,71,127
57908,note_on,0,0,0,,2,,,74,127
58072,note_off,164,0,0,,2,,,74,127
58073,note_on,1,0,0,,5,,,77,127
58223,note_off,150,0,0,,7,,,43,127
58237,note_off,14,0,0,,5,,,77,127
58237,note_off,0,0,0,,12,,,71,127
58238,note_on,1,0,0,,0,,,60,127
58238,note_on,0,0,0,,0,,,72,127
58238,note_on,0,0,0,,4,,,76,127
58402,note_off,164,0,0,,4,,,76,127
58402,note_off,0,0,0,,0,,,72,127
58403,note_on,1,0,0,,5,,,77,127
58403,note_on,0,0,0,,2,,,74,127
58567,note_off,164,0,0,,2,,,74,127
58567,note_off,0,0,0,,5,,,77,127
58567,note_off,0,0,0,,0,,,60,127
58568,note_on,1,0,0,,4,,,52,127
58568,note_on,0,0,0,,7,,,79,127
58568,note_on,0,0,0,,4,,,76,127
58732,note_off,164,0,0,,4,,,76,127
58732,note_off,0,0,0,,7,,,79,127
58732,note_off,0,0,0,,4,,,52,127
58733,note_on,1,0,0,,5,,,53,127
58733,note_on,0,0,0,,2,,,74,127
58733,note_on,0,0,0,,5,,,77,127
58897,note_off,164,0,0,,5,,,77,127
58897,note_off,0,0,0,,2,,,74,127
58898,note_on,1,0,0,,0,,,72,127
58898,note_on,0,0,0,,4,,,76,127
59062,note_off,164,0,0,,4,,,76,127
59062,note_off,0,0,0,,0,,,72,127
59062,note_off,0,0,0,,5,,,53,127
59063,note_on,1,0,0,,7,,,55,127
59063,note_on,0,0,0,,12,,,71,127
59063,note_on,0,0,0,,2,,,74,127
59217,note_off,154,0,0,,2,,,74,127
59217,note_off,0,0,0,,12,,,71,127
59226,note_off,9,0,0,,7,,,55,127
59234,note_on,8,0,0,,4,,,52,127
59234,note_on,0,0,0,,4,,,76,127
59234,note_on,0,0,0,,7,,,79,127
59398,note_off,164,0,0,,7,,,79,127
59398,note_off,0,0,0,,4,,,76,127
59399,note_on,1,0,0,,5,,,77,127
59399,note_on,0,0,0,,2,,,74,127
59563,note_off,164,0,0,,2,,,74,127
59563,note_off,0,0,0,,5,,,77,127
59563,note_off,0,0,0,,4,,,52,127
59564,note_on,1,0,0,,10,,,57,127
59564,note_on,0,0,0,,0,,,72,127
59564,note_on,0,0,0,,4,,,76,127
59728,note_off,164,0,0,,4,,,76,127
59728,note_off,0,0,0,,0,,,72,127
59728,note_off,0,0,0,,10,,,57,127
59729,note_on,1,0,0,,5,,,53,127
59729,note_on,0,0,0,,2,,,74,127
59729,note_on,0,0,0,,5,,,77,127
59893,note_off,164,0,0,,5,,,77,127
59893,note_off,0,0,0,,2,,,74,127
59894,note_on,1,0,0,,4,,,76,127
59894,note_on,0,0,0,,0,,,72,127
60058,note_off,164,0,0,,0,,,72,127
60058,note_off,0,0,0,,4,,,76,127
60058,note_off,0,0,0,,5,,,53,127
60059,note_on,1,0,0,,7,,,55,127
60059,note_on,0,0,0,,2,,,74,127
60059,note_on,0,0,0,,12,,,71,127
60196,note_off,137,0,0,,12,,,71,127
60196,note_off,0,0,0,,2,,,74,127
60223,note_off,27,0,0,,7,,,55,127
60231,note_on,8,0,0,,4,,,52,127
60231,note_on,0,0,0,,4,,,76,127
60231,note_on,0,0,0,,7,,,79,127
60395,note_off,164,0,0,,7,,,79,127
60395,note_off,0,0,0,,4,,,76,127
60396,note_on,1,0,0,,2,,,74,127
60396,note_on,0,0,0,,5,,,77,127
60560,note_off,164,0,0,,5,,,77,127
60560,note_off,0,0,0,,2,,,74,127
60560,note_off,0,0,0,,4,,,52,127
60561,note_on,1,0,0,,10,,,57,127
60561,note_on,0,0,0,,4,,,76,127
60561,note_on,0,0,0,,0,,,72,127
60725,note_off,164,0,0,,0,,,72,127
60725,note_off,0,0,0,,4,,,76,127
60725,note_off,0,0,0,,10,,,57,127
60726,note_on,1,0,0,,5,,,53,127
60726,note_on,0,0,0,,2,,,74,127
60726,note_on,0,0,0,,5,,,77,127
60890,note_off,164,0,0,,5,,,77,127
60890,note_off,0,0,0,,2,,,74,127
60891,note_on,1,0,0,,0,,,72,127
60891,note_on,0,0,0,,4,,,76,127
61055,note_off,164,0,0,,4,,,76,127
61055,note_off,0,0,0,,0,,,72,127
61055,note_off,0,0,0,,5,,,53,127
61056,note_on,1,0,0,,7,,,55,127
61056,note_on,0,0,0,,12,,,71,127
61056,note_on,0,0,0,,2,,,74,127
61185,note_off,129,0,0,,2,,,74,127
61185,note_off,0,0,0,,12,,,71,127
61220,note_off,35,0,0,,7,,,55,127
61228,note_on,8,0,0,,4,,,76,127
61228,note_on,0,0,0,,7,,,79,127
61228,note_on,0,0,0,,4,,,52,127
61392,note_off,164,0,0,,7,,,79,127
61392,note_off,0,0,0,,4,,,76,127
61393,note_on,1,0,0,,5,,,77,127
61393,note_on,0,0,0,,2,,,74,127
61557,note_off,164,0,0,,2,,,74,127
61557,note_off,0,0,0,,5,,,77,127
61557,note_off,0,0,0,,4,,,52,127
61558,note_on,1,0,0,,4,,,76,127
61558,note_on,0,0,0,,0,,,72,127
61558,note_on,0,0,0,,10,,,57,127
61722,note_off,164,0,0,,10,,,57,127
61722,note_off,0,0,0,,0,,,72,127
61722,note_off,0,0,0,,4,,,76,127
61723,note_on,1,0,0,,4,,,76,127
61723,note_on,0,0,0,,5,,,53,127
61764,note_on,41,0,0,,2,,,74,127
61775,note_off,11,0,0,,4,,,76,127
61805,note_on,30,0,0,,4,,,76,127
61816,note_off,11,0,0,,2,,,74,127
61846,note_on,30,0,0,,2,,,74,127
61857,note_off,11,0,0,,4,,,76,127
61887,note_on,30,0,0,,0,,,72,127
61898,note_off,11,0,0,,2,,,74,127
62051,note_off,153,0,0,,0,,,72,127
62051,note_off,0,0,0,,5,,,53,127
62052,note_on,1,0,0,,12,,,71,127
62052,note_on,0,0,0,,7,,,55,127
62216,note_off,164,0,0,,7,,,55,127
62216,note_off,0,0,0,,12,,,71,127
62217,note_on,1,0,0,,2,,,74,127
62217,note_on,0,0,0,,0,,,48,127
62244,note_on,27,0,0,,0,,,72,127
62258,note_off,14,0,0,,2,,,74,127
62272,note_on,14,0,0,,2,,,74,127
62286,note_off,14,0,0,,0,,,72,127
62300,note_on,14,0,0,,0,,,72,127
62314,note_off,14,0,0,,2,,,74,127
64193,note_off,1879,0,0,,0,,,72,127
64193,note_off,0,0,0,,0,,,48,127
69120,end_of_track,4927,1,0,,,,,,
