tick,type,time,meta,track,program,channel,pitch,tempo,note,velocity
0,copyright,0,1,0,,,,,,
0,program_change,0,0,0,6,0,,,,
0,pitchwheel,0,0,0,,0,0,,,
0,program_change,0,0,0,6,1,,,,
0,pitchwheel,0,0,0,,1,-590,,,
0,program_change,0,0,0,6,2,,,,
0,pitchwheel,0,0,0,,2,-272,,,
0,program_change,0,0,0,6,3,,,,
0,pitchwheel,0,0,0,,3,-353,,,
0,program_change,0,0,0,6,4,,,,
0,pitchwheel,0,0,0,,4,-560,,,
0,program_change,0,0,0,6,5,,,,
0,pitchwheel,0,0,0,,5,-80,,,
0,program_change,0,0,0,6,6,,,,
0,pitchwheel,0,0,0,,6,-625,,,
0,program_change,0,0,0,6,7,,,,
0,pitchwheel,0,0,0,,7,-130,,,
0,program_change,0,0,0,6,8,,,,
0,pitchwheel,0,0,0,,8,-512,,,
0,program_change,0,0,0,6,10,,,,
0,pitchwheel,0,0,0,,10,-464,,,
0,program_change,0,0,0,6,11,,,,
0,pitchwheel,0,0,0,,11,-208,,,
0,program_change,0,0,0,6,12,,,,
0,pitchwheel,0,0,0,,12,-553,,,
0,set_tempo,0,1,0,,,,666660,,
96,note_on,96,0,0,,2,,,74,127
287,note_off,191,0,0,,2,,,74,127
288,note_on,1,0,0,,6,,,78,127
479,note_off,191,0,0,,6,,,78,127
480,note_on,1,0,0,,10,,,81,127
576,note_on,96,0,0,,4,,,76,127
671,note_off,95,0,0,,4,,,76,127
672,note_on,1,0,0,,1,,,73,127
767,note_off,95,0,0,,1,,,73,127
768,note_on,1,0,0,,10,,,69,127
863,note_off,95,0,0,,10,,,69,127
864,note_on,1,0,0,,2,,,74,127
1055,note_off,191,0,0,,10,,,81,127
1056,note_on,1,0,0,,10,,,69,127
1247,note_off,191,0,0,,10,,,69,127
1248,note_on,1,0,0,,6,,,78,127
1343,note_off,95,0,0,,2,,,74,127
1344,note_on,1,0,0,,10,,,69,127
1439,note_off,95,0,0,,10,,,69,127
1440,note_on,1,0,0,,6,,,66,127
1535,note_off,95,0,0,,6,,,66,127
1536,note_on,1,0,0,,2,,,62,127
1631,note_off,95,0,0,,2,,,62,127
1632,note_on,1,0,0,,7,,,67,127
1727,note_off,95,0,0,,6,,,78,127
1728,note_on,1,0,0,,12,,,71,127
1823,note_off,95,0,0,,12,,,71,127
1824,note_on,1,0,0,,7,,,79,127
1919,note_off,95,0,0,,7,,,79,127
1920,note_on,1,0,0,,6,,,78,127
2015,note_off,95,0,0,,6,,,78,127
2015,note_off,0,0,0,,7,,,67,127
2016,note_on,1,0,0,,10,,,69,127
2016,note_on,0,0,0,,6,,,78,127
2111,note_off,95,0,0,,6,,,78,127
2112,note_on,1,0,0,,4,,,76,127
2207,note_off,95,0,0,,4,,,76,127
2208,note_on,1,0,0,,2,,,74,127
2303,note_off,95,0,0,,2,,,74,127
2304,note_on,1,0,0,,1,,,73,127
2399,note_off,95,0,0,,1,,,73,127
2399,note_off,0,0,0,,10,,,69,127
2400,note_on,1,0,0,,2,,,62,127
2400,note_on,0,0,0,,2,,,74,127
2591,note_off,191,0,0,,2,,,74,127
2592,note_on,1,0,0,,6,,,66,127
2783,note_off,191,0,0,,6,,,66,127
2784,note_on,1,0,0,,10,,,69,127
2879,note_off,95,0,0,,2,,,62,127
2880,note_on,1,0,0,,4,,,64,127
2975,note_off,95,0,0,,4,,,64,127
2976,note_on,1,0,0,,1,,,61,127
3071,note_off,95,0,0,,1,,,61,127
3072,note_on,1,0,0,,10,,,57,127
3167,note_off,95,0,0,,10,,,57,127
3168,note_on,1,0,0,,2,,,62,127
3359,note_off,191,0,0,,10,,,69,127
3360,note_on,1,0,0,,10,,,57,127
3551,note_off,191,0,0,,10,,,57,127
3552,note_on,1,0,0,,6,,,66,127
3647,note_off,95,0,0,,2,,,62,127
3648,note_on,1,0,0,,10,,,57,127
3743,note_off,95,0,0,,10,,,57,127
3744,note_on,1,0,0,,6,,,54,127
3839,note_off,95,0,0,,6,,,54,127
3840,note_on,1,0,0,,2,,,50,127
3935,note_off,95,0,0,,2,,,50,127
3936,note_on,1,0,0,,7,,,55,127
4031,note_off,95,0,0,,6,,,66,127
4032,note_on,1,0,0,,12,,,59,127
4127,note_off,95,0,0,,12,,,59,127
4128,note_on,1,0,0,,7,,,67,127
4223,note_off,95,0,0,,7,,,67,127
4224,note_on,1,0,0,,6,,,66,127
4319,note_off,95,0,0,,6,,,66,127
4319,note_off,0,0,0,,7,,,55,127
4320,note_on,1,0,0,,10,,,57,127
4320,note_on,0,0,0,,6,,,66,127
4415,note_off,95,0,0,,6,,,66,127
4416,note_on,1,0,0,,4,,,64,127
4511,note_off,95,0,0,,4,,,64,127
4512,note_on,1,0,0,,2,,,62,127
4607,note_off,95,0,0,,2,,,62,127
4608,note_on,1,0,0,,1,,,61,127
4703,note_off,95,0,0,,1,,,61,127
4703,note_off,0,0,0,,10,,,57,127
4704,note_on,1,0,0,,2,,,50,127
4704,note_on,0,0,0,,2,,,62,127
4799,note_off,95,0,0,,2,,,62,127
4800,note_on,1,0,0,,10,,,57,127
4895,note_off,95,0,0,,10,,,57,127
4896,note_on,1,0,0,,6,,,54,127
4991,note_off,95,0,0,,6,,,54,127
4992,note_on,1,0,0,,10,,,57,127
5087,note_off,95,0,0,,10,,,57,127
5087,note_off,0,0,0,,2,,,50,127
5088,note_on,1,0,0,,2,,,50,127
5184,note_on,96,0,0,,10,,,45,127
5279,note_off,95,0,0,,10,,,45,127
5280,note_on,1,0,0,,6,,,42,127
5375,note_off,95,0,0,,6,,,42,127
5376,note_on,1,0,0,,10,,,45,127
5471,note_off,95,0,0,,10,,,45,127
5471,note_off,0,0,0,,2,,,50,127
5472,note_on,1,0,0,,2,,,38,127
5472,note_on,0,0,0,,10,,,81,127
5663,note_off,191,0,0,,10,,,81,127
5664,note_on,1,0,0,,7,,,79,127
5664,note_on,0,0,0,,6,,,78,127
5759,note_off,95,0,0,,6,,,78,127
5759,note_off,0,0,0,,7,,,79,127
5760,note_on,1,0,0,,4,,,76,127
5855,note_off,95,0,0,,4,,,76,127
5856,note_on,1,0,0,,2,,,74,127
6047,note_off,191,0,0,,2,,,74,127
6047,note_off,0,0,0,,2,,,38,127
6048,note_on,1,0,0,,0,,,72,127
6239,note_off,191,0,0,,0,,,72,127
6240,note_on,1,0,0,,7,,,67,127
6240,note_on,0,0,0,,11,,,70,127
6431,note_off,191,0,0,,11,,,70,127
6431,note_off,0,0,0,,7,,,67,127
6432,note_on,1,0,0,,4,,,64,127
6432,note_on,0,0,0,,12,,,71,127
6527,note_off,95,0,0,,4,,,64,127
6528,note_on,1,0,0,,2,,,62,127
6623,note_off,95,0,0,,2,,,62,127
6624,note_on,1,0,0,,1,,,61,127
6815,note_off,191,0,0,,1,,,61,127
6816,note_on,1,0,0,,12,,,59,127
6972,note_off,156,0,0,,12,,,71,127
7007,note_off,35,0,0,,12,,,59,127
7008,note_on,1,0,0,,10,,,57,127
7008,note_on,0,0,0,,4,,,76,127
7199,note_off,191,0,0,,4,,,76,127
7200,note_on,1,0,0,,1,,,73,127
7295,note_off,95,0,0,,1,,,73,127
7296,note_on,1,0,0,,12,,,71,127
7391,note_off,95,0,0,,12,,,71,127
7392,note_on,1,0,0,,10,,,69,127
7583,note_off,191,0,0,,10,,,69,127
7583,note_off,0,0,0,,10,,,57,127
7584,note_on,1,0,0,,7,,,67,127
7775,note_off,191,0,0,,7,,,67,127
7776,note_on,1,0,0,,2,,,62,127
7776,note_on,0,0,0,,5,,,65,127
7967,note_off,191,0,0,,5,,,65,127
7967,note_off,0,0,0,,2,,,62,127
7968,note_on,1,0,0,,10,,,57,127
7968,note_on,0,0,0,,6,,,66,127
8063,note_off,95,0,0,,10,,,57,127
8064,note_on,1,0,0,,7,,,55,127
8159,note_off,95,0,0,,7,,,55,127
8160,note_on,1,0,0,,6,,,54,127
8351,note_off,191,0,0,,6,,,54,127
8352,note_on,1,0,0,,4,,,52,127
8508,note_off,156,0,0,,6,,,66,127
8543,note_off,35,0,0,,4,,,52,127
8544,note_on,1,0,0,,2,,,50,127
8544,note_on,0,0,0,,10,,,81,127
8735,note_off,191,0,0,,10,,,81,127
8736,note_on,1,0,0,,6,,,78,127
8736,note_on,0,0,0,,7,,,79,127
8831,note_off,95,0,0,,7,,,79,127
8831,note_off,0,0,0,,6,,,78,127
8832,note_on,1,0,0,,4,,,76,127
8927,note_off,95,0,0,,4,,,76,127
8928,note_on,1,0,0,,2,,,74,127
9119,note_off,191,0,0,,2,,,74,127
9119,note_off,0,0,0,,2,,,50,127
9120,note_on,1,0,0,,0,,,72,127
9311,note_off,191,0,0,,0,,,72,127
9312,note_on,1,0,0,,7,,,67,127
9312,note_on,0,0,0,,11,,,70,127
9503,note_off,191,0,0,,11,,,70,127
9503,note_off,0,0,0,,7,,,67,127
9504,note_on,1,0,0,,4,,,64,127
9504,note_on,0,0,0,,12,,,71,127
9599,note_off,95,0,0,,4,,,64,127
9600,note_on,1,0,0,,2,,,62,127
9695,note_off,95,0,0,,2,,,62,127
9696,note_on,1,0,0,,1,,,61,127
9887,note_off,191,0,0,,1,,,61,127
9888,note_on,1,0,0,,12,,,59,127
10044,note_off,156,0,0,,12,,,71,127
10079,note_off,35,0,0,,12,,,59,127
10080,note_on,1,0,0,,10,,,57,127
10080,note_on,0,0,0,,4,,,76,127
10271,note_off,191,0,0,,4,,,76,127
10272,note_on,1,0,0,,1,,,73,127
10367,note_off,95,0,0,,1,,,73,127
10368,note_on,1,0,0,,12,,,71,127
10463,note_off,95,0,0,,12,,,71,127
10464,note_on,1,0,0,,10,,,69,127
10655,note_off,191,0,0,,10,,,69,127
10655,note_off,0,0,0,,10,,,57,127
10656,note_on,1,0,0,,7,,,67,127
10847,note_off,191,0,0,,7,,,67,127
10848,note_on,1,0,0,,2,,,62,127
10848,note_on,0,0,0,,5,,,65,127
11039,note_off,191,0,0,,5,,,65,127
11039,note_off,0,0,0,,2,,,62,127
11040,note_on,1,0,0,,10,,,57,127
11040,note_on,0,0,0,,6,,,66,127
11135,note_off,95,0,0,,10,,,57,127
11136,note_on,1,0,0,,7,,,55,127
11231,note_off,95,0,0,,7,,,55,127
11232,note_on,1,0,0,,6,,,54,127
11423,note_off,191,0,0,,6,,,54,127
11424,note_on,1,0,0,,4,,,52,127
11615,note_off,191,0,0,,4,,,52,127
11615,note_off,0,0,0,,6,,,66,127
11616,note_on,1,0,0,,2,,,50,127
11616,note_on,0,0,0,,6,,,78,127
11711,note_off,95,0,0,,6,,,78,127
11712,note_on,1,0,0,,2,,,74,127
11807,note_off,95,0,0,,2,,,74,127
11808,note_on,1,0,0,,10,,,69,127
11903,note_off,95,0,0,,10,,,69,127
11904,note_on,1,0,0,,6,,,66,127
11999,note_off,95,0,0,,6,,,66,127
11999,note_off,0,0,0,,2,,,50,127
12000,note_on,1,0,0,,2,,,62,127
12096,note_on,96,0,0,,10,,,57,127
12191,note_off,95,0,0,,10,,,57,127
12192,note_on,1,0,0,,12,,,59,127
12192,note_on,0,0,0,,7,,,67,127
12287,note_off,95,0,0,,7,,,67,127
12287,note_off,0,0,0,,12,,,59,127
12288,note_on,1,0,0,,1,,,61,127
12288,note_on,0,0,0,,4,,,64,127
12320,note_off,32,0,0,,2,,,62,127
12383,note_off,63,0,0,,4,,,64,127
12383,note_off,0,0,0,,1,,,61,127
12384,note_on,1,0,0,,2,,,50,127
12384,note_on,0,0,0,,6,,,78,127
12479,note_off,95,0,0,,6,,,78,127
12480,note_on,1,0,0,,2,,,74,127
12575,note_off,95,0,0,,2,,,74,127
12576,note_on,1,0,0,,10,,,69,127
12671,note_off,95,0,0,,10,,,69,127
12672,note_on,1,0,0,,6,,,66,127
12767,note_off,95,0,0,,6,,,66,127
12767,note_off,0,0,0,,2,,,50,127
12768,note_on,1,0,0,,2,,,62,127
12864,note_on,96,0,0,,10,,,57,127
12959,note_off,95,0,0,,10,,,57,127
12960,note_on,1,0,0,,12,,,59,127
12960,note_on,0,0,0,,7,,,67,127
13055,note_off,95,0,0,,7,,,67,127
13055,note_off,0,0,0,,12,,,59,127
13056,note_on,1,0,0,,1,,,61,127
13056,note_on,0,0,0,,4,,,64,127
13088,note_off,32,0,0,,2,,,62,127
13151,note_off,63,0,0,,4,,,64,127
13151,note_off,0,0,0,,1,,,61,127
13152,note_on,1,0,0,,2,,,50,127
13152,note_on,0,0,0,,6,,,78,127
13247,note_off,95,0,0,,6,,,78,127
13248,note_on,1,0,0,,2,,,74,127
13343,note_off,95,0,0,,2,,,74,127
13344,note_on,1,0,0,,10,,,69,127
13439,note_off,95,0,0,,10,,,69,127
13440,note_on,1,0,0,,6,,,66,127
13535,note_off,95,0,0,,6,,,66,127
13535,note_off,0,0,0,,2,,,50,127
13536,note_on,1,0,0,,2,,,62,127
13632,note_on,96,0,0,,10,,,57,127
13727,note_off,95,0,0,,10,,,57,127
13728,note_on,1,0,0,,12,,,59,127
13728,note_on,0,0,0,,7,,,67,127
13823,note_off,95,0,0,,7,,,67,127
13823,note_off,0,0,0,,12,,,59,127
13824,note_on,1,0,0,,1,,,61,127
13824,note_on,0,0,0,,4,,,64,127
13856,note_off,32,0,0,,2,,,62,127
13919,note_off,63,0,0,,4,,,64,127
13919,note_off,0,0,0,,1,,,61,127
13920,note_on,1,0,0,,2,,,38,127
13920,note_on,0,0,0,,6,,,66,127
13920,note_on,0,0,0,,2,,,62,127
14015,note_off,95,0,0,,2,,,38,127
14016,note_on,1,0,0,,6,,,42,127
14111,note_off,95,0,0,,6,,,42,127
14112,note_on,1,0,0,,10,,,45,127
14207,note_off,95,0,0,,10,,,45,127
14208,note_on,1,0,0,,2,,,50,127
14303,note_off,95,0,0,,2,,,50,127
14304,note_on,1,0,0,,6,,,54,127
14399,note_off,95,0,0,,6,,,54,127
14400,note_on,1,0,0,,10,,,57,127
14495,note_off,95,0,0,,10,,,57,127
14495,note_off,0,0,0,,2,,,62,127
14495,note_off,0,0,0,,6,,,66,127
14496,note_on,1,0,0,,2,,,62,127
14496,note_on,0,0,0,,2,,,86,127
14591,note_off,95,0,0,,2,,,62,127
14592,note_on,1,0,0,,10,,,69,127
14687,note_off,95,0,0,,10,,,69,127
14687,note_off,0,0,0,,2,,,86,127
14688,note_on,1,0,0,,10,,,45,127
14688,note_on,0,0,0,,1,,,85,127
14783,note_off,95,0,0,,1,,,85,127
14784,note_on,1,0,0,,10,,,81,127
14879,note_off,95,0,0,,10,,,81,127
14880,note_on,1,0,0,,7,,,79,127
14975,note_off,95,0,0,,7,,,79,127
14976,note_on,1,0,0,,4,,,76,127
15071,note_off,95,0,0,,4,,,76,127
15072,note_on,1,0,0,,1,,,73,127
15167,note_off,95,0,0,,1,,,73,127
15168,note_on,1,0,0,,10,,,69,127
15263,note_off,95,0,0,,10,,,69,127
15264,note_on,1,0,0,,7,,,79,127
15359,note_off,95,0,0,,7,,,79,127
15360,note_on,1,0,0,,4,,,76,127
15455,note_off,95,0,0,,4,,,76,127
15455,note_off,0,0,0,,10,,,45,127
15456,note_on,1,0,0,,2,,,38,127
15456,note_on,0,0,0,,6,,,78,127
15456,note_on,0,0,0,,2,,,74,127
15551,note_off,95,0,0,,2,,,38,127
15552,note_on,1,0,0,,6,,,42,127
15647,note_off,95,0,0,,6,,,42,127
15648,note_on,1,0,0,,10,,,45,127
15743,note_off,95,0,0,,10,,,45,127
15744,note_on,1,0,0,,2,,,50,127
15839,note_off,95,0,0,,2,,,50,127
15840,note_on,1,0,0,,6,,,54,127
15935,note_off,95,0,0,,6,,,54,127
15936,note_on,1,0,0,,10,,,57,127
16031,note_off,95,0,0,,10,,,57,127
16031,note_off,0,0,0,,2,,,74,127
16031,note_off,0,0,0,,6,,,78,127
16032,note_on,1,0,0,,2,,,62,127
16032,note_on,0,0,0,,2,,,86,127
16127,note_off,95,0,0,,2,,,62,127
16128,note_on,1,0,0,,6,,,66,127
16223,note_off,95,0,0,,6,,,66,127
16223,note_off,0,0,0,,2,,,86,127
16224,note_on,1,0,0,,10,,,45,127
16224,note_on,0,0,0,,1,,,85,127
16319,note_off,95,0,0,,1,,,85,127
16320,note_on,1,0,0,,10,,,81,127
16415,note_off,95,0,0,,10,,,81,127
16416,note_on,1,0,0,,7,,,79,127
16511,note_off,95,0,0,,7,,,79,127
16512,note_on,1,0,0,,4,,,76,127
16607,note_off,95,0,0,,4,,,76,127
16608,note_on,1,0,0,,1,,,73,127
16703,note_off,95,0,0,,1,,,73,127
16704,note_on,1,0,0,,10,,,69,127
16799,note_off,95,0,0,,10,,,69,127
16800,note_on,1,0,0,,7,,,79,127
16895,note_off,95,0,0,,7,,,79,127
16896,note_on,1,0,0,,4,,,76,127
16991,note_off,95,0,0,,4,,,76,127
16991,note_off,0,0,0,,10,,,45,127
16992,note_on,1,0,0,,2,,,38,127
16992,note_on,0,0,0,,6,,,78,127
16992,note_on,0,0,0,,2,,,74,127
17087,note_off,95,0,0,,2,,,38,127
17088,note_on,1,0,0,,6,,,42,127
17183,note_off,95,0,0,,6,,,42,127
17184,note_on,1,0,0,,10,,,45,127
17279,note_off,95,0,0,,10,,,45,127
17280,note_on,1,0,0,,2,,,50,127
17375,note_off,95,0,0,,2,,,50,127
17376,note_on,1,0,0,,6,,,54,127
17471,note_off,95,0,0,,6,,,54,127
17472,note_on,1,0,0,,10,,,57,127
17567,note_off,95,0,0,,10,,,57,127
17567,note_off,0,0,0,,2,,,74,127
17567,note_off,0,0,0,,6,,,78,127
17568,note_on,1,0,0,,2,,,62,127
17663,note_off,95,0,0,,2,,,62,127
17664,note_on,1,0,0,,10,,,69,127
17759,note_off,95,0,0,,10,,,69,127
17760,note_on,1,0,0,,4,,,40,127
17760,note_on,0,0,0,,2,,,86,127
17855,note_off,95,0,0,,2,,,86,127
17856,note_on,1,0,0,,12,,,83,127
17951,note_off,95,0,0,,12,,,83,127
17952,note_on,1,0,0,,8,,,80,127
18047,note_off,95,0,0,,8,,,80,127
18048,note_on,1,0,0,,2,,,74,127
18143,note_off,95,0,0,,2,,,74,127
18144,note_on,1,0,0,,12,,,71,127
18239,note_off,95,0,0,,12,,,71,127
18240,note_on,1,0,0,,8,,,68,127
18335,note_off,95,0,0,,8,,,68,127
18336,note_on,1,0,0,,12,,,71,127
18431,note_off,95,0,0,,12,,,71,127
18432,note_on,1,0,0,,8,,,80,127
18527,note_off,95,0,0,,8,,,80,127
18527,note_off,0,0,0,,4,,,40,127
18528,note_on,1,0,0,,10,,,45,127
18528,note_on,0,0,0,,10,,,81,127
18623,note_off,95,0,0,,10,,,45,127
18624,note_on,1,0,0,,1,,,49,127
18719,note_off,95,0,0,,1,,,49,127
18720,note_on,1,0,0,,10,,,57,127
18815,note_off,95,0,0,,10,,,57,127
18816,note_on,1,0,0,,1,,,61,127
18911,note_off,95,0,0,,1,,,61,127
18911,note_off,0,0,0,,10,,,81,127
18912,note_on,1,0,0,,4,,,64,127
19007,note_off,95,0,0,,4,,,64,127
19008,note_on,1,0,0,,10,,,69,127
19103,note_off,95,0,0,,10,,,69,127
19104,note_on,1,0,0,,1,,,73,127
19199,note_off,95,0,0,,1,,,73,127
19200,note_on,1,0,0,,10,,,69,127
19296,note_on,96,0,0,,2,,,50,127
19391,note_off,95,0,0,,10,,,69,127
19392,note_on,1,0,0,,6,,,78,127
19487,note_off,95,0,0,,6,,,78,127
19488,note_on,1,0,0,,2,,,86,127
19583,note_off,95,0,0,,2,,,86,127
19584,note_on,1,0,0,,1,,,85,127
19679,note_off,95,0,0,,1,,,85,127
19680,note_on,1,0,0,,12,,,83,127
19775,note_off,95,0,0,,12,,,83,127
19776,note_on,1,0,0,,10,,,81,127
19871,note_off,95,0,0,,10,,,81,127
19872,note_on,1,0,0,,8,,,80,127
19967,note_off,95,0,0,,8,,,80,127
19968,note_on,1,0,0,,10,,,81,127
20063,note_off,95,0,0,,10,,,81,127
20063,note_off,0,0,0,,2,,,50,127
20064,note_on,1,0,0,,4,,,40,127
20064,note_on,0,0,0,,8,,,80,127
20159,note_off,95,0,0,,8,,,80,127
20160,note_on,1,0,0,,10,,,81,127
20255,note_off,95,0,0,,10,,,81,127
20256,note_on,1,0,0,,12,,,83,127
20352,note_on,96,0,0,,2,,,74,127
20384,note_off,32,0,0,,12,,,83,127
20447,note_off,63,0,0,,2,,,74,127
20448,note_on,1,0,0,,1,,,73,127
20544,note_on,96,0,0,,10,,,81,127
20576,note_off,32,0,0,,1,,,73,127
20639,note_off,63,0,0,,10,,,81,127
20640,note_on,1,0,0,,8,,,80,127
20736,note_on,96,0,0,,12,,,71,127
20768,note_off,32,0,0,,8,,,80,127
20831,note_off,63,0,0,,12,,,71,127
20831,note_off,0,0,0,,4,,,40,127
20832,note_on,1,0,0,,4,,,40,127
20832,note_on,0,0,0,,10,,,69,127
20928,note_on,96,0,0,,6,,,78,127
20960,note_off,32,0,0,,10,,,69,127
21023,note_off,63,0,0,,6,,,78,127
21024,note_on,1,0,0,,4,,,76,127
21120,note_on,96,0,0,,8,,,68,127
21152,note_off,32,0,0,,4,,,76,127
21215,note_off,63,0,0,,8,,,68,127
21216,note_on,1,0,0,,6,,,66,127
21312,note_on,96,0,0,,2,,,74,127
21344,note_off,32,0,0,,6,,,66,127
21407,note_off,63,0,0,,2,,,74,127
21408,note_on,1,0,0,,1,,,73,127
21504,note_on,96,0,0,,4,,,64,127
21536,note_off,32,0,0,,1,,,73,127
21599,note_off,63,0,0,,4,,,64,127
21599,note_off,0,0,0,,4,,,40,127
21600,note_on,1,0,0,,4,,,40,127
21600,note_on,0,0,0,,2,,,62,127
21696,note_on,96,0,0,,12,,,71,127
21728,note_off,32,0,0,,2,,,62,127
21791,note_off,63,0,0,,12,,,71,127
21792,note_on,1,0,0,,10,,,69,127
21888,note_on,96,0,0,,1,,,61,127
21920,note_off,32,0,0,,10,,,69,127
21984,note_on,64,0,0,,8,,,68,127
22016,note_off,32,0,0,,1,,,61,127
22080,note_on,64,0,0,,12,,,59,127
22112,note_off,32,0,0,,8,,,68,127
22176,note_on,64,0,0,,6,,,66,127
22208,note_off,32,0,0,,12,,,59,127
22272,note_on,64,0,0,,10,,,57,127
22304,note_off,32,0,0,,6,,,66,127
22367,note_off,63,0,0,,10,,,57,127
22367,note_off,0,0,0,,4,,,40,127
22368,note_on,1,0,0,,4,,,40,127
22368,note_on,0,0,0,,8,,,56,127
22464,note_on,96,0,0,,4,,,64,127
22496,note_off,32,0,0,,8,,,56,127
22559,note_off,63,0,0,,4,,,64,127
22560,note_on,1,0,0,,3,,,63,127
22656,note_on,96,0,0,,6,,,54,127
22688,note_off,32,0,0,,3,,,63,127
22751,note_off,63,0,0,,6,,,54,127
22751,note_off,0,0,0,,4,,,40,127
22752,note_on,1,0,0,,4,,,40,127
22752,note_on,0,0,0,,4,,,52,127
22944,note_on,192,0,0,,4,,,64,127
23903,note_off,959,0,0,,4,,,52,127
23903,note_off,0,0,0,,4,,,40,127
23904,note_off,1,0,0,,4,,,64,127
24288,note_on,384,0,0,,4,,,76,127
24479,note_off,191,0,0,,4,,,76,127
24480,note_on,1,0,0,,0,,,72,127
24575,note_off,95,0,0,,0,,,72,127
24576,note_on,1,0,0,,12,,,71,127
24671,note_off,95,0,0,,12,,,71,127
24672,note_on,1,0,0,,10,,,69,127
24672,note_on,0,0,0,,4,,,64,127
24863,note_off,191,0,0,,10,,,69,127
24864,note_on,1,0,0,,7,,,67,127
25055,note_off,191,0,0,,7,,,67,127
25056,note_on,1,0,0,,5,,,65,127
25247,note_off,191,0,0,,4,,,64,127
25248,note_on,1,0,0,,5,,,77,127
25248,note_on,0,0,0,,2,,,62,127
25439,note_off,191,0,0,,5,,,65,127
25440,note_on,1,0,0,,8,,,68,127
25631,note_off,191,0,0,,8,,,68,127
25631,note_off,0,0,0,,2,,,62,127
25631,note_off,0,0,0,,5,,,77,127
25632,note_on,1,0,0,,10,,,69,127
25632,note_on,0,0,0,,4,,,76,127
25632,note_on,0,0,0,,0,,,60,127
25823,note_off,191,0,0,,0,,,60,127
25823,note_off,0,0,0,,4,,,76,127
25823,note_off,0,0,0,,10,,,69,127
25824,note_on,1,0,0,,2,,,74,127
25824,note_on,0,0,0,,2,,,62,127
25824,note_on,0,0,0,,12,,,59,127
26015,note_off,191,0,0,,12,,,59,127
26016,note_on,1,0,0,,0,,,84,127
26016,note_on,0,0,0,,10,,,57,127
26207,note_off,191,0,0,,10,,,57,127
26207,note_off,0,0,0,,0,,,84,127
26207,note_off,0,0,0,,2,,,62,127
26208,note_on,1,0,0,,12,,,83,127
26208,note_on,0,0,0,,4,,,64,127
26208,note_on,0,0,0,,8,,,56,127
26399,note_off,191,0,0,,8,,,56,127
26399,note_off,0,0,0,,12,,,83,127
26399,note_off,0,0,0,,2,,,74,127
26400,note_on,1,0,0,,0,,,72,127
26400,note_on,0,0,0,,10,,,81,127
26400,note_on,0,0,0,,10,,,57,127
26591,note_off,191,0,0,,10,,,57,127
26591,note_off,0,0,0,,0,,,72,127
26591,note_off,0,0,0,,4,,,64,127
26592,note_on,1,0,0,,12,,,71,127
26592,note_on,0,0,0,,4,,,52,127
26783,note_off,191,0,0,,12,,,71,127
26784,note_on,1,0,0,,3,,,75,127
26975,note_off,191,0,0,,3,,,75,127
26976,note_on,1,0,0,,4,,,76,127
26976,note_on,0,0,0,,4,,,64,127
27167,note_off,191,0,0,,10,,,81,127
27168,note_on,1,0,0,,8,,,80,127
27552,note_off,384,0,0,,8,,,80,127
27552,note_off,0,0,0,,4,,,64,127
27552,note_off,0,0,0,,4,,,76,127
27552,note_off,0,0,0,,4,,,52,127
28128,note_on,576,0,0,,4,,,76,127
28319,note_off,191,0,0,,4,,,76,127
28320,note_on,1,0,0,,0,,,72,127
28415,note_off,95,0,0,,0,,,72,127
28416,note_on,1,0,0,,12,,,71,127
28511,note_off,95,0,0,,12,,,71,127
28512,note_on,1,0,0,,10,,,69,127
28512,note_on,0,0,0,,4,,,64,127
28703,note_off,191,0,0,,10,,,69,127
28704,note_on,1,0,0,,7,,,67,127
28895,note_off,191,0,0,,7,,,67,127
28896,note_on,1,0,0,,5,,,65,127
29087,note_off,191,0,0,,4,,,64,127
29088,note_on,1,0,0,,5,,,77,127
29088,note_on,0,0,0,,2,,,62,127
29279,note_off,191,0,0,,5,,,65,127
29280,note_on,1,0,0,,8,,,68,127
29471,note_off,191,0,0,,8,,,68,127
29471,note_off,0,0,0,,2,,,62,127
29471,note_off,0,0,0,,5,,,77,127
29472,note_on,1,0,0,,10,,,69,127
29472,note_on,0,0,0,,4,,,76,127
29472,note_on,0,0,0,,0,,,60,127
29663,note_off,191,0,0,,0,,,60,127
29663,note_off,0,0,0,,4,,,76,127
29663,note_off,0,0,0,,10,,,69,127
29664,note_on,1,0,0,,2,,,74,127
29664,note_on,0,0,0,,2,,,62,127
29664,note_on,0,0,0,,12,,,59,127
29855,note_off,191,0,0,,12,,,59,127
29856,note_on,1,0,0,,0,,,84,127
29856,note_on,0,0,0,,10,,,57,127
30047,note_off,191,0,0,,10,,,57,127
30047,note_off,0,0,0,,0,,,84,127
30047,note_off,0,0,0,,2,,,62,127
30048,note_on,1,0,0,,12,,,83,127
30048,note_on,0,0,0,,4,,,64,127
30048,note_on,0,0,0,,8,,,56,127
30239,note_off,191,0,0,,8,,,56,127
30239,note_off,0,0,0,,12,,,83,127
30239,note_off,0,0,0,,2,,,74,127
30240,note_on,1,0,0,,0,,,72,127
30240,note_on,0,0,0,,10,,,81,127
30240,note_on,0,0,0,,10,,,57,127
30431,note_off,191,0,0,,10,,,57,127
30431,note_off,0,0,0,,0,,,72,127
30431,note_off,0,0,0,,4,,,64,127
30432,note_on,1,0,0,,12,,,71,127
30432,note_on,0,0,0,,4,,,52,127
30623,note_off,191,0,0,,12,,,71,127
30624,note_on,1,0,0,,3,,,75,127
30815,note_off,191,0,0,,3,,,75,127
30816,note_on,1,0,0,,4,,,76,127
30816,note_on,0,0,0,,4,,,64,127
31007,note_off,191,0,0,,10,,,81,127
31008,note_on,1,0,0,,8,,,80,127
31199,note_off,191,0,0,,8,,,80,127
31199,note_off,0,0,0,,4,,,64,127
31199,note_off,0,0,0,,4,,,76,127
31199,note_off,0,0,0,,4,,,52,127
31200,note_on,1,0,0,,2,,,86,127
31295,note_off,95,0,0,,2,,,86,127
31296,note_on,1,0,0,,12,,,83,127
31391,note_off,95,0,0,,12,,,83,127
31392,note_on,1,0,0,,8,,,80,127
31487,note_off,95,0,0,,8,,,80,127
31488,note_on,1,0,0,,2,,,74,127
31583,note_off,95,0,0,,2,,,74,127
31584,note_on,1,0,0,,12,,,71,127
31679,note_off,95,0,0,,12,,,71,127
31680,note_on,1,0,0,,8,,,68,127
31775,note_off,95,0,0,,8,,,68,127
31776,note_on,1,0,0,,4,,,64,127
31871,note_off,95,0,0,,4,,,64,127
31872,note_on,1,0,0,,2,,,74,127
31967,note_off,95,0,0,,2,,,74,127
31968,note_on,1,0,0,,1,,,73,127
31968,note_on,0,0,0,,10,,,45,127
32063,note_off,95,0,0,,10,,,45,127
32064,note_on,1,0,0,,1,,,49,127
32159,note_off,95,0,0,,1,,,49,127
32160,note_on,1,0,0,,4,,,52,127
32255,note_off,95,0,0,,4,,,52,127
32256,note_on,1,0,0,,10,,,57,127
32351,note_off,95,0,0,,10,,,57,127
32352,note_on,1,0,0,,1,,,61,127
32447,note_off,95,0,0,,1,,,61,127
32448,note_on,1,0,0,,4,,,64,127
32543,note_off,95,0,0,,4,,,64,127
32544,note_on,1,0,0,,10,,,69,127
32639,note_off,95,0,0,,10,,,69,127
32639,note_off,0,0,0,,1,,,73,127
32640,note_on,1,0,0,,1,,,73,127
32735,note_off,95,0,0,,1,,,73,127
32736,note_on,1,0,0,,2,,,86,127
32736,note_on,0,0,0,,4,,,40,127
32831,note_off,95,0,0,,2,,,86,127
32832,note_on,1,0,0,,12,,,83,127
32927,note_off,95,0,0,,12,,,83,127
32928,note_on,1,0,0,,8,,,80,127
33023,note_off,95,0,0,,8,,,80,127
33024,note_on,1,0,0,,2,,,74,127
33119,note_off,95,0,0,,2,,,74,127
33120,note_on,1,0,0,,12,,,71,127
33215,note_off,95,0,0,,12,,,71,127
33216,note_on,1,0,0,,8,,,68,127
33311,note_off,95,0,0,,8,,,68,127
33312,note_on,1,0,0,,4,,,64,127
33407,note_off,95,0,0,,4,,,64,127
33408,note_on,1,0,0,,2,,,74,127
33503,note_off,95,0,0,,2,,,74,127
33503,note_off,0,0,0,,4,,,40,127
33504,note_on,1,0,0,,1,,,73,127
33504,note_on,0,0,0,,10,,,45,127
33599,note_off,95,0,0,,10,,,45,127
33600,note_on,1,0,0,,1,,,49,127
33695,note_off,95,0,0,,1,,,49,127
33696,note_on,1,0,0,,4,,,52,127
33791,note_off,95,0,0,,4,,,52,127
33792,note_on,1,0,0,,10,,,57,127
33887,note_off,95,0,0,,10,,,57,127
33888,note_on,1,0,0,,1,,,61,127
33983,note_off,95,0,0,,1,,,61,127
33984,note_on,1,0,0,,4,,,64,127
34079,note_off,95,0,0,,4,,,64,127
34080,note_on,1,0,0,,10,,,69,127
34175,note_off,95,0,0,,10,,,69,127
34175,note_off,0,0,0,,1,,,73,127
34176,note_on,1,0,0,,1,,,73,127
34271,note_off,95,0,0,,1,,,73,127
34272,note_on,1,0,0,,1,,,49,127
34368,note_on,96,0,0,,1,,,85,127
34463,note_off,95,0,0,,1,,,85,127
34464,note_on,1,0,0,,10,,,81,127
34559,note_off,95,0,0,,10,,,81,127
34560,note_on,1,0,0,,4,,,76,127
34655,note_off,95,0,0,,4,,,76,127
34656,note_on,1,0,0,,1,,,73,127
34751,note_off,95,0,0,,1,,,73,127
34752,note_on,1,0,0,,10,,,69,127
34847,note_off,95,0,0,,10,,,69,127
34848,note_on,1,0,0,,1,,,73,127
34943,note_off,95,0,0,,1,,,73,127
34944,note_on,1,0,0,,4,,,76,127
35039,note_off,95,0,0,,4,,,76,127
35039,note_off,0,0,0,,1,,,49,127
35040,note_on,1,0,0,,6,,,78,127
35040,note_on,0,0,0,,2,,,50,127
35135,note_off,95,0,0,,6,,,78,127
35136,note_on,1,0,0,,10,,,81,127
35231,note_off,95,0,0,,10,,,81,127
35232,note_on,1,0,0,,6,,,78,127
35327,note_off,95,0,0,,6,,,78,127
35328,note_on,1,0,0,,2,,,74,127
35423,note_off,95,0,0,,2,,,74,127
35424,note_on,1,0,0,,12,,,71,127
35519,note_off,95,0,0,,12,,,71,127
35520,note_on,1,0,0,,8,,,68,127
35615,note_off,95,0,0,,8,,,68,127
35616,note_on,1,0,0,,12,,,71,127
35711,note_off,95,0,0,,12,,,71,127
35712,note_on,1,0,0,,2,,,74,127
35807,note_off,95,0,0,,2,,,74,127
35807,note_off,0,0,0,,2,,,50,127
35808,note_on,1,0,0,,1,,,73,127
35808,note_on,0,0,0,,4,,,52,127
35903,note_off,95,0,0,,1,,,73,127
35904,note_on,1,0,0,,4,,,76,127
35999,note_off,95,0,0,,4,,,76,127
36000,note_on,1,0,0,,10,,,81,127
36096,note_on,96,0,0,,10,,,69,127
36191,note_off,95,0,0,,10,,,69,127
36191,note_off,0,0,0,,4,,,52,127
36192,note_on,1,0,0,,2,,,50,127
36287,note_off,95,0,0,,10,,,81,127
36288,note_on,1,0,0,,12,,,83,127
36383,note_off,95,0,0,,12,,,83,127
36384,note_on,1,0,0,,8,,,80,127
36479,note_off,95,0,0,,8,,,80,127
36480,note_on,1,0,0,,2,,,74,127
36575,note_off,95,0,0,,2,,,74,127
36575,note_off,0,0,0,,2,,,50,127
36576,note_on,1,0,0,,1,,,49,127
36672,note_on,96,0,0,,2,,,86,127
36767,note_off,95,0,0,,2,,,86,127
36768,note_on,1,0,0,,1,,,85,127
36863,note_off,95,0,0,,1,,,85,127
36864,note_on,1,0,0,,12,,,83,127
36959,note_off,95,0,0,,12,,,83,127
36960,note_on,1,0,0,,10,,,81,127
36960,note_on,0,0,0,,10,,,57,127
37055,note_off,95,0,0,,10,,,81,127
37056,note_on,1,0,0,,8,,,80,127
37151,note_off,95,0,0,,8,,,80,127
37152,note_on,1,0,0,,6,,,78,127
37247,note_off,95,0,0,,6,,,78,127
37248,note_on,1,0,0,,4,,,76,127
37343,note_off,95,0,0,,4,,,76,127
37343,note_off,0,0,0,,10,,,57,127
37343,note_off,0,0,0,,1,,,49,127
37344,note_on,1,0,0,,5,,,77,127
37344,note_on,0,0,0,,2,,,50,127
37439,note_off,95,0,0,,5,,,77,127
37440,note_on,1,0,0,,6,,,78,127
37535,note_off,95,0,0,,6,,,78,127
37536,note_on,1,0,0,,1,,,73,127
37631,note_off,95,0,0,,1,,,73,127
37632,note_on,1,0,0,,2,,,74,127
37727,note_off,95,0,0,,2,,,74,127
37728,note_on,1,0,0,,11,,,70,127
37823,note_off,95,0,0,,11,,,70,127
37824,note_on,1,0,0,,12,,,71,127
37919,note_off,95,0,0,,12,,,71,127
37920,note_on,1,0,0,,5,,,65,127
38015,note_off,95,0,0,,5,,,65,127
38016,note_on,1,0,0,,6,,,66,127
38111,note_off,95,0,0,,6,,,66,127
38112,note_on,1,0,0,,1,,,61,127
38207,note_off,95,0,0,,1,,,61,127
38208,note_on,1,0,0,,2,,,62,127
38303,note_off,95,0,0,,2,,,62,127
38304,note_off,1,0,0,,2,,,50,127
38304,note_on,0,0,0,,4,,,64,127
38399,note_off,95,0,0,,4,,,64,127
38400,note_on,1,0,0,,6,,,66,127
38495,note_off,95,0,0,,6,,,66,127
38496,note_on,1,0,0,,8,,,68,127
38496,note_on,0,0,0,,12,,,59,127
38496,note_on,0,0,0,,2,,,50,127
38591,note_off,95,0,0,,8,,,68,127
38592,note_on,1,0,0,,2,,,74,127
38687,note_off,95,0,0,,2,,,74,127
38688,note_on,1,0,0,,1,,,73,127
38783,note_off,95,0,0,,1,,,73,127
38784,note_on,1,0,0,,12,,,71,127
38879,note_off,95,0,0,,12,,,71,127
38879,note_off,0,0,0,,2,,,50,127
38879,note_off,0,0,0,,12,,,59,127
38880,note_on,1,0,0,,10,,,69,127
38880,note_on,0,0,0,,4,,,52,127
38880,note_on,0,0,0,,1,,,61,127
38993,note_off,113,0,0,,10,,,69,127
39024,note_on,31,0,0,,12,,,71,127
39071,note_off,47,0,0,,12,,,71,127
39072,note_on,1,0,0,,10,,,69,127
39119,note_off,47,0,0,,10,,,69,127
39120,note_on,1,0,0,,8,,,68,127
39167,note_off,47,0,0,,8,,,68,127
39168,note_on,1,0,0,,10,,,69,127
39215,note_off,47,0,0,,10,,,69,127
39216,note_on,1,0,0,,12,,,71,127
39263,note_off,47,0,0,,12,,,71,127
39263,note_off,0,0,0,,1,,,61,127
39263,note_off,0,0,0,,4,,,52,127
39264,note_on,1,0,0,,1,,,73,127
39264,note_on,0,0,0,,2,,,50,127
39264,note_on,0,0,0,,12,,,59,127
39311,note_off,47,0,0,,1,,,73,127
39312,note_on,1,0,0,,12,,,71,127
39359,note_off,47,0,0,,12,,,71,127
39360,note_on,1,0,0,,1,,,73,127
39407,note_off,47,0,0,,1,,,73,127
39408,note_on,1,0,0,,12,,,71,127
39455,note_off,47,0,0,,12,,,71,127
39456,note_on,1,0,0,,1,,,73,127
39503,note_off,47,0,0,,1,,,73,127
39504,note_on,1,0,0,,12,,,71,127
39551,note_off,47,0,0,,12,,,71,127
39552,note_on,1,0,0,,10,,,69,127
39647,note_off,95,0,0,,12,,,59,127
39647,note_off,0,0,0,,2,,,50,127
39648,note_on,1,0,0,,1,,,49,127
39648,note_on,0,0,0,,10,,,57,127
39743,note_off,95,0,0,,10,,,69,127
39744,note_on,1,0,0,,2,,,86,127
39839,note_off,95,0,0,,2,,,86,127
39840,note_on,1,0,0,,1,,,85,127
39935,note_off,95,0,0,,1,,,85,127
39936,note_on,1,0,0,,12,,,83,127
40031,note_off,95,0,0,,12,,,83,127
40032,note_on,1,0,0,,10,,,81,127
40127,note_off,95,0,0,,10,,,81,127
40128,note_on,1,0,0,,8,,,80,127
40223,note_off,95,0,0,,8,,,80,127
40224,note_on,1,0,0,,6,,,78,127
40319,note_off,95,0,0,,6,,,78,127
40320,note_on,1,0,0,,4,,,76,127
40415,note_off,95,0,0,,4,,,76,127
40415,note_off,0,0,0,,10,,,57,127
40415,note_off,0,0,0,,1,,,49,127
40416,note_on,1,0,0,,5,,,77,127
40416,note_on,0,0,0,,2,,,50,127
40511,note_off,95,0,0,,5,,,77,127
40512,note_on,1,0,0,,6,,,78,127
40607,note_off,95,0,0,,6,,,78,127
40608,note_on,1,0,0,,1,,,73,127
40703,note_off,95,0,0,,1,,,73,127
40704,note_on,1,0,0,,2,,,74,127
40799,note_off,95,0,0,,2,,,74,127
40800,note_on,1,0,0,,11,,,70,127
40895,note_off,95,0,0,,11,,,70,127
40896,note_on,1,0,0,,12,,,71,127
40991,note_off,95,0,0,,12,,,71,127
40992,note_on,1,0,0,,5,,,65,127
41087,note_off,95,0,0,,5,,,65,127
41088,note_on,1,0,0,,6,,,66,127
41183,note_off,95,0,0,,6,,,66,127
41184,note_on,1,0,0,,1,,,61,127
41279,note_off,95,0,0,,1,,,61,127
41280,note_on,1,0,0,,2,,,62,127
41375,note_off,95,0,0,,2,,,62,127
41376,note_off,1,0,0,,2,,,50,127
41376,note_on,0,0,0,,4,,,64,127
41471,note_off,95,0,0,,4,,,64,127
41472,note_on,1,0,0,,6,,,66,127
41567,note_off,95,0,0,,6,,,66,127
41568,note_on,1,0,0,,8,,,68,127
41568,note_on,0,0,0,,12,,,59,127
41568,note_on,0,0,0,,2,,,50,127
41663,note_off,95,0,0,,8,,,68,127
41664,note_on,1,0,0,,2,,,74,127
41759,note_off,95,0,0,,2,,,74,127
41760,note_on,1,0,0,,1,,,73,127
41855,note_off,95,0,0,,1,,,73,127
41856,note_on,1,0,0,,12,,,71,127
41951,note_off,95,0,0,,12,,,71,127
41951,note_off,0,0,0,,2,,,50,127
41951,note_off,0,0,0,,12,,,59,127
41952,note_on,1,0,0,,10,,,69,127
41952,note_on,0,0,0,,4,,,52,127
42065,note_off,113,0,0,,10,,,69,127
42096,note_on,31,0,0,,12,,,71,127
42143,note_off,47,0,0,,12,,,71,127
42144,note_on,1,0,0,,10,,,69,127
42191,note_off,47,0,0,,10,,,69,127
42192,note_on,1,0,0,,8,,,68,127
42239,note_off,47,0,0,,8,,,68,127
42240,note_on,1,0,0,,10,,,69,127
42287,note_off,47,0,0,,10,,,69,127
42288,note_on,1,0,0,,12,,,71,127
42335,note_off,47,0,0,,12,,,71,127
42336,note_on,1,0,0,,1,,,73,127
42336,note_on,0,0,0,,4,,,40,127
42383,note_off,47,0,0,,1,,,73,127
42384,note_on,1,0,0,,12,,,71,127
42431,note_off,47,0,0,,12,,,71,127
42432,note_on,1,0,0,,1,,,73,127
42479,note_off,47,0,0,,1,,,73,127
42480,note_on,1,0,0,,12,,,71,127
42527,note_off,47,0,0,,12,,,71,127
42528,note_on,1,0,0,,1,,,73,127
42575,note_off,47,0,0,,1,,,73,127
42576,note_on,1,0,0,,12,,,71,127
42623,note_off,47,0,0,,12,,,71,127
42624,note_on,1,0,0,,10,,,69,127
42712,note_off,88,0,0,,10,,,69,127
42719,note_off,7,0,0,,4,,,40,127
42719,note_off,0,0,0,,4,,,52,127
42720,note_on,1,0,0,,10,,,69,127
42720,note_on,0,0,0,,10,,,45,127
42815,note_off,95,0,0,,10,,,69,127
42816,note_on,1,0,0,,4,,,64,127
42911,note_off,95,0,0,,4,,,64,127
42912,note_on,1,0,0,,1,,,61,127
43007,note_off,95,0,0,,1,,,61,127
43008,note_on,1,0,0,,10,,,57,127
43103,note_off,95,0,0,,10,,,57,127
43104,note_on,1,0,0,,1,,,61,127
43200,note_on,96,0,0,,10,,,69,127
43224,note_off,24,0,0,,1,,,61,127
43295,note_off,71,0,0,,10,,,45,127
43296,note_on,1,0,0,,12,,,59,127
43296,note_on,0,0,0,,4,,,40,127
43296,note_on,0,0,0,,4,,,52,127
43320,note_off,24,0,0,,10,,,69,127
43392,note_on,72,0,0,,8,,,68,127
43416,note_off,24,0,0,,12,,,59,127
43487,note_off,71,0,0,,8,,,68,127
43487,note_off,0,0,0,,4,,,52,127
43487,note_off,0,0,0,,4,,,40,127
43488,note_on,1,0,0,,1,,,73,127
43488,note_on,0,0,0,,10,,,45,127
43583,note_off,95,0,0,,1,,,73,127
43584,note_on,1,0,0,,10,,,69,127
43679,note_off,95,0,0,,10,,,69,127
43680,note_on,1,0,0,,4,,,64,127
43775,note_off,95,0,0,,4,,,64,127
43776,note_on,1,0,0,,1,,,61,127
43871,note_off,95,0,0,,1,,,61,127
43872,note_on,1,0,0,,4,,,64,127
43968,note_on,96,0,0,,1,,,73,127
43992,note_off,24,0,0,,4,,,64,127
44063,note_off,71,0,0,,1,,,73,127
44063,note_off,0,0,0,,10,,,45,127
44064,note_on,1,0,0,,12,,,71,127
44064,note_on,0,0,0,,4,,,40,127
44064,note_on,0,0,0,,4,,,52,127
44160,note_on,96,0,0,,2,,,62,127
44184,note_off,24,0,0,,12,,,71,127
44255,note_off,71,0,0,,2,,,62,127
44255,note_off,0,0,0,,4,,,52,127
44255,note_off,0,0,0,,4,,,40,127
44256,note_on,1,0,0,,4,,,76,127
44256,note_on,0,0,0,,10,,,45,127
44351,note_off,95,0,0,,4,,,76,127
44352,note_on,1,0,0,,1,,,73,127
44447,note_off,95,0,0,,1,,,73,127
44448,note_on,1,0,0,,10,,,69,127
44543,note_off,95,0,0,,10,,,69,127
44544,note_on,1,0,0,,4,,,64,127
44639,note_off,95,0,0,,4,,,64,127
44640,note_on,1,0,0,,10,,,69,127
44736,note_on,96,0,0,,4,,,76,127
44760,note_off,24,0,0,,10,,,69,127
44831,note_off,71,0,0,,4,,,76,127
44831,note_off,0,0,0,,10,,,45,127
44832,note_on,1,0,0,,2,,,74,127
44832,note_on,0,0,0,,4,,,52,127
44832,note_on,0,0,0,,4,,,40,127
44928,note_on,96,0,0,,12,,,71,127
44952,note_off,24,0,0,,2,,,74,127
45023,note_off,71,0,0,,12,,,71,127
45023,note_off,0,0,0,,4,,,40,127
45023,note_off,0,0,0,,4,,,52,127
45024,note_on,1,0,0,,10,,,81,127
45024,note_on,0,0,0,,10,,,45,127
45119,note_off,95,0,0,,10,,,81,127
45120,note_on,1,0,0,,4,,,76,127
45215,note_off,95,0,0,,4,,,76,127
45216,note_on,1,0,0,,1,,,73,127
45311,note_off,95,0,0,,1,,,73,127
45312,note_on,1,0,0,,10,,,69,127
45407,note_off,95,0,0,,10,,,69,127
45408,note_on,1,0,0,,1,,,73,127
45504,note_on,96,0,0,,10,,,81,127
45538,note_off,34,0,0,,1,,,73,127
45599,note_off,61,0,0,,10,,,45,127
45600,note_on,1,0,0,,12,,,71,127
45600,note_on,0,0,0,,4,,,40,127
45600,note_on,0,0,0,,4,,,52,127
45634,note_off,34,0,0,,10,,,81,127
45696,note_on,62,0,0,,8,,,80,127
45730,note_off,34,0,0,,12,,,71,127
45791,note_off,61,0,0,,8,,,80,127
45791,note_off,0,0,0,,4,,,52,127
45791,note_off,0,0,0,,4,,,40,127
45792,note_on,1,0,0,,1,,,85,127
45792,note_on,0,0,0,,10,,,45,127
45887,note_off,95,0,0,,1,,,85,127
45888,note_on,1,0,0,,10,,,81,127
45983,note_off,95,0,0,,10,,,81,127
45984,note_on,1,0,0,,4,,,76,127
46079,note_off,95,0,0,,4,,,76,127
46080,note_on,1,0,0,,1,,,73,127
46175,note_off,95,0,0,,1,,,73,127
46176,note_on,1,0,0,,4,,,76,127
46272,note_on,96,0,0,,1,,,85,127
46316,note_off,44,0,0,,4,,,76,127
46367,note_off,51,0,0,,1,,,85,127
46367,note_off,0,0,0,,10,,,45,127
46368,note_on,1,0,0,,12,,,83,127
46368,note_on,0,0,0,,4,,,40,127
46368,note_on,0,0,0,,4,,,52,127
46464,note_on,96,0,0,,2,,,74,127
46508,note_off,44,0,0,,12,,,83,127
46559,note_off,51,0,0,,2,,,74,127
46559,note_off,0,0,0,,4,,,52,127
46559,note_off,0,0,0,,4,,,40,127
46560,note_on,1,0,0,,10,,,81,127
46560,note_on,0,0,0,,10,,,45,127
46655,note_off,95,0,0,,10,,,81,127
46656,note_on,1,0,0,,4,,,76,127
46751,note_off,95,0,0,,4,,,76,127
46752,note_on,1,0,0,,1,,,73,127
46847,note_off,95,0,0,,1,,,73,127
46848,note_on,1,0,0,,10,,,69,127
46943,note_off,95,0,0,,10,,,69,127
46944,note_on,1,0,0,,1,,,73,127
47040,note_on,96,0,0,,10,,,81,127
47094,note_off,54,0,0,,1,,,73,127
47135,note_off,41,0,0,,10,,,45,127
47136,note_on,1,0,0,,12,,,71,127
47136,note_on,0,0,0,,4,,,52,127
47136,note_on,0,0,0,,4,,,40,127
47190,note_off,54,0,0,,10,,,81,127
47232,note_on,42,0,0,,8,,,80,127
47286,note_off,54,0,0,,12,,,71,127
47327,note_off,41,0,0,,4,,,40,127
47327,note_off,0,0,0,,4,,,52,127
47328,note_on,1,0,0,,1,,,73,127
47328,note_on,0,0,0,,10,,,45,127
47328,note_on,0,0,0,,10,,,57,127
47382,note_off,54,0,0,,8,,,80,127
47424,note_on,42,0,0,,10,,,81,127
47488,note_off,64,0,0,,1,,,73,127
47519,note_off,31,0,0,,10,,,57,127
47519,note_off,0,0,0,,10,,,45,127
47520,note_on,1,0,0,,12,,,71,127
47520,note_on,0,0,0,,4,,,52,127
47520,note_on,0,0,0,,4,,,40,127
47584,note_off,64,0,0,,10,,,81,127
47616,note_on,32,0,0,,8,,,80,127
47680,note_off,64,0,0,,12,,,71,127
47711,note_off,31,0,0,,4,,,40,127
47711,note_off,0,0,0,,4,,,52,127
47712,note_on,1,0,0,,1,,,73,127
47712,note_on,0,0,0,,10,,,45,127
47712,note_on,0,0,0,,10,,,57,127
47776,note_off,64,0,0,,8,,,80,127
47808,note_on,32,0,0,,10,,,81,127
47852,note_off,44,0,0,,1,,,73,127
47903,note_off,51,0,0,,10,,,57,127
47903,note_off,0,0,0,,10,,,45,127
47904,note_on,1,0,0,,12,,,71,127
47904,note_on,0,0,0,,4,,,40,127
47904,note_on,0,0,0,,4,,,52,127
47948,note_off,44,0,0,,10,,,81,127
48000,note_on,52,0,0,,8,,,80,127
48024,note_off,24,0,0,,12,,,71,127
48095,note_off,71,0,0,,8,,,80,127
48095,note_off,0,0,0,,4,,,52,127
48095,note_off,0,0,0,,4,,,40,127
48096,note_on,1,0,0,,8,,,80,127
48096,note_on,0,0,0,,10,,,45,127
48096,note_on,0,0,0,,10,,,57,127
48287,note_off,191,0,0,,8,,,80,127
48288,note_on,1,0,0,,10,,,81,127
48776,note_off,488,0,0,,10,,,81,127
48863,note_off,87,0,0,,10,,,57,127
48863,note_off,0,0,0,,10,,,45,127
48864,note_on,1,0,0,,4,,,76,127
49055,note_off,191,0,0,,4,,,76,127
49056,note_on,1,0,0,,2,,,74,127
49056,note_on,0,0,0,,1,,,73,127
49151,note_off,95,0,0,,1,,,73,127
49151,note_off,0,0,0,,2,,,74,127
49152,note_on,1,0,0,,12,,,71,127
49247,note_off,95,0,0,,12,,,71,127
49248,note_on,1,0,0,,10,,,69,127
49439,note_off,191,0,0,,10,,,69,127
49440,note_on,1,0,0,,6,,,66,127
49631,note_off,191,0,0,,6,,,66,127
49632,note_on,1,0,0,,7,,,67,127
49632,note_on,0,0,0,,4,,,64,127
49823,note_off,191,0,0,,4,,,64,127
49824,note_on,1,0,0,,1,,,61,127
49919,note_off,95,0,0,,1,,,61,127
49920,note_on,1,0,0,,12,,,59,127
50015,note_off,95,0,0,,12,,,59,127
50016,note_on,1,0,0,,11,,,58,127
50207,note_off,191,0,0,,11,,,58,127
50207,note_off,0,0,0,,7,,,67,127
50208,note_on,1,0,0,,4,,,64,127
50208,note_on,0,0,0,,7,,,55,127
50399,note_off,191,0,0,,7,,,55,127
50399,note_off,0,0,0,,4,,,64,127
50400,note_on,1,0,0,,4,,,76,127
50400,note_on,0,0,0,,4,,,64,127
50400,note_on,0,0,0,,6,,,54,127
50495,note_off,95,0,0,,4,,,76,127
50496,note_on,1,0,0,,1,,,73,127
50591,note_off,95,0,0,,1,,,73,127
50592,note_on,1,0,0,,11,,,70,127
50687,note_off,95,0,0,,11,,,70,127
50688,note_on,1,0,0,,6,,,66,127
50783,note_off,95,0,0,,6,,,66,127
50784,note_on,1,0,0,,4,,,76,127
50879,note_off,95,0,0,,4,,,76,127
50880,note_on,1,0,0,,2,,,74,127
50975,note_off,95,0,0,,2,,,74,127
50976,note_on,1,0,0,,2,,,74,127
51071,note_off,95,0,0,,2,,,74,127
51072,note_on,1,0,0,,1,,,73,127
51167,note_off,95,0,0,,1,,,73,127
51167,note_off,0,0,0,,6,,,54,127
51167,note_off,0,0,0,,4,,,64,127
51168,note_on,1,0,0,,2,,,74,127
51168,note_on,0,0,0,,12,,,59,127
51168,note_on,0,0,0,,2,,,62,127
51168,note_on,0,0,0,,6,,,54,127
51263,note_off,95,0,0,,2,,,74,127
51264,note_on,1,0,0,,12,,,71,127
51359,note_off,95,0,0,,12,,,71,127
51360,note_on,1,0,0,,6,,,66,127
51455,note_off,95,0,0,,6,,,66,127
51455,note_off,0,0,0,,2,,,62,127
51456,note_on,1,0,0,,2,,,62,127
51551,note_off,95,0,0,,2,,,62,127
51552,note_on,1,0,0,,2,,,74,127
51647,note_off,95,0,0,,2,,,74,127
51648,note_on,1,0,0,,1,,,73,127
51743,note_off,95,0,0,,1,,,73,127
51744,note_on,1,0,0,,1,,,73,127
51839,note_off,95,0,0,,1,,,73,127
51840,note_on,1,0,0,,12,,,71,127
51935,note_off,95,0,0,,12,,,71,127
51935,note_off,0,0,0,,6,,,54,127
51935,note_off,0,0,0,,12,,,59,127
51936,note_on,1,0,0,,1,,,73,127
51936,note_on,0,0,0,,4,,,64,127
51936,note_on,0,0,0,,6,,,54,127
51936,note_on,0,0,0,,1,,,61,127
52031,note_off,95,0,0,,1,,,73,127
52032,note_on,1,0,0,,11,,,70,127
52127,note_off,95,0,0,,11,,,70,127
52128,note_on,1,0,0,,7,,,67,127
52223,note_off,95,0,0,,7,,,67,127
52223,note_off,0,0,0,,4,,,64,127
52224,note_on,1,0,0,,4,,,64,127
52319,note_off,95,0,0,,4,,,64,127
52320,note_on,1,0,0,,1,,,73,127
52415,note_off,95,0,0,,1,,,73,127
52416,note_on,1,0,0,,12,,,71,127
52511,note_off,95,0,0,,12,,,71,127
52512,note_on,1,0,0,,12,,,71,127
52607,note_off,95,0,0,,12,,,71,127
52608,note_on,1,0,0,,11,,,70,127
52703,note_off,95,0,0,,11,,,70,127
52703,note_off,0,0,0,,1,,,61,127
52703,note_off,0,0,0,,6,,,54,127
52704,note_on,1,0,0,,12,,,71,127
52704,note_on,0,0,0,,12,,,59,127
52704,note_on,0,0,0,,2,,,62,127
52704,note_on,0,0,0,,6,,,54,127
52799,note_off,95,0,0,,12,,,71,127
52800,note_on,1,0,0,,6,,,66,127
52895,note_off,95,0,0,,6,,,66,127
52895,note_off,0,0,0,,2,,,62,127
52896,note_on,1,0,0,,2,,,62,127
52991,note_off,95,0,0,,2,,,62,127
52991,note_off,0,0,0,,12,,,59,127
52992,note_on,1,0,0,,12,,,59,127
53087,note_off,95,0,0,,12,,,59,127
53088,note_on,1,0,0,,12,,,71,127
53184,note_on,96,0,0,,5,,,65,127
53279,note_off,95,0,0,,5,,,65,127
53279,note_off,0,0,0,,6,,,54,127
53280,note_on,1,0,0,,6,,,66,127
53280,note_on,0,0,0,,6,,,54,127
53375,note_off,95,0,0,,6,,,66,127
53376,note_on,1,0,0,,5,,,65,127
53471,note_off,95,0,0,,5,,,65,127
53471,note_off,0,0,0,,6,,,54,127
53471,note_off,0,0,0,,12,,,71,127
53472,note_on,1,0,0,,11,,,70,127
53472,note_on,0,0,0,,6,,,66,127
53472,note_on,0,0,0,,6,,,54,127
53472,note_on,0,0,0,,1,,,61,127
53567,note_off,95,0,0,,6,,,66,127
53568,note_on,1,0,0,,5,,,65,127
53663,note_off,95,0,0,,5,,,65,127
53663,note_off,0,0,0,,1,,,61,127
53663,note_off,0,0,0,,6,,,54,127
53663,note_off,0,0,0,,11,,,70,127
53664,note_on,1,0,0,,12,,,71,127
53664,note_on,0,0,0,,6,,,66,127
53664,note_on,0,0,0,,2,,,62,127
53664,note_on,0,0,0,,6,,,54,127
53759,note_off,95,0,0,,6,,,66,127
53760,note_on,1,0,0,,5,,,65,127
53855,note_off,95,0,0,,5,,,65,127
53855,note_off,0,0,0,,6,,,54,127
53855,note_off,0,0,0,,2,,,62,127
53855,note_off,0,0,0,,12,,,71,127
53856,note_on,1,0,0,,11,,,70,127
53856,note_on,0,0,0,,6,,,66,127
53856,note_on,0,0,0,,6,,,54,127
53856,note_on,0,0,0,,1,,,61,127
53951,note_off,95,0,0,,6,,,66,127
53952,note_on,1,0,0,,5,,,65,127
54047,note_off,95,0,0,,5,,,65,127
54047,note_off,0,0,0,,1,,,61,127
54047,note_off,0,0,0,,6,,,54,127
54047,note_off,0,0,0,,11,,,70,127
54048,note_on,1,0,0,,6,,,66,127
54048,note_on,0,0,0,,12,,,71,127
54048,note_on,0,0,0,,6,,,54,127
54048,note_on,0,0,0,,2,,,62,127
54143,note_off,95,0,0,,6,,,66,127
54144,note_on,1,0,0,,5,,,65,127
54239,note_off,95,0,0,,5,,,65,127
54239,note_off,0,0,0,,2,,,62,127
54239,note_off,0,0,0,,6,,,54,127
54239,note_off,0,0,0,,12,,,71,127
54240,note_on,1,0,0,,11,,,70,127
54240,note_on,0,0,0,,6,,,66,127
54240,note_on,0,0,0,,6,,,54,127
54240,note_on,0,0,0,,1,,,61,127
54335,note_off,95,0,0,,6,,,66,127
54336,note_on,1,0,0,,5,,,65,127
54431,note_off,95,0,0,,5,,,65,127
54431,note_off,0,0,0,,1,,,61,127
54431,note_off,0,0,0,,6,,,54,127
54431,note_off,0,0,0,,11,,,70,127
54432,note_on,1,0,0,,12,,,71,127
54432,note_on,0,0,0,,6,,,66,127
54432,note_on,0,0,0,,6,,,54,127
54432,note_on,0,0,0,,2,,,62,127
54527,note_off,95,0,0,,6,,,66,127
54528,note_on,1,0,0,,5,,,65,127
54623,note_off,95,0,0,,5,,,65,127
54623,note_off,0,0,0,,2,,,62,127
54623,note_off,0,0,0,,6,,,54,127
54623,note_off,0,0,0,,12,,,71,127
54624,note_on,1,0,0,,1,,,73,127
54624,note_on,0,0,0,,6,,,66,127
54624,note_on,0,0,0,,6,,,54,127
54624,note_on,0,0,0,,1,,,61,127
54719,note_off,95,0,0,,6,,,66,127
54720,note_on,1,0,0,,5,,,65,127
54815,note_off,95,0,0,,5,,,65,127
54815,note_off,0,0,0,,1,,,61,127
54815,note_off,0,0,0,,6,,,54,127
54815,note_off,0,0,0,,1,,,73,127
54816,note_on,1,0,0,,6,,,66,127
54816,note_on,0,0,0,,2,,,74,127
54816,note_on,0,0,0,,12,,,59,127
54816,note_on,0,0,0,,6,,,54,127
54911,note_off,95,0,0,,6,,,66,127
54912,note_on,1,0,0,,5,,,65,127
54947,note_off,35,0,0,,2,,,74,127
55007,note_off,60,0,0,,5,,,65,127
55007,note_off,0,0,0,,6,,,54,127
55007,note_off,0,0,0,,12,,,59,127
55008,note_on,1,0,0,,2,,,74,127
55008,note_on,0,0,0,,6,,,42,127
55056,note_on,48,0,0,,1,,,73,127
55072,note_off,16,0,0,,2,,,74,127
55104,note_on,32,0,0,,2,,,74,127
55120,note_off,16,0,0,,1,,,73,127
55152,note_on,32,0,0,,1,,,73,127
55168,note_off,16,0,0,,2,,,74,127
55640,note_off,472,0,0,,1,,,73,127
55775,note_off,135,0,0,,6,,,42,127
55776,note_on,1,0,0,,6,,,78,127
55967,note_off,191,0,0,,6,,,78,127
55968,note_on,1,0,0,,2,,,74,127
55968,note_on,0,0,0,,4,,,76,127
56063,note_off,95,0,0,,4,,,76,127
56063,note_off,0,0,0,,2,,,74,127
56064,note_on,1,0,0,,1,,,73,127
56159,note_off,95,0,0,,1,,,73,127
56160,note_on,1,0,0,,12,,,71,127
56160,note_on,0,0,0,,6,,,66,127
56351,note_off,191,0,0,,12,,,71,127
56352,note_on,1,0,0,,10,,,69,127
56543,note_off,191,0,0,,10,,,69,127
56544,note_on,1,0,0,,7,,,67,127
56735,note_off,191,0,0,,6,,,66,127
56736,note_on,1,0,0,,4,,,64,127
56831,note_off,95,0,0,,4,,,64,127
56832,note_on,1,0,0,,2,,,62,127
56927,note_off,95,0,0,,2,,,62,127
56927,note_off,0,0,0,,7,,,67,127
56928,note_on,1,0,0,,11,,,70,127
56928,note_on,0,0,0,,7,,,79,127
56928,note_on,0,0,0,,4,,,64,127
56928,note_on,0,0,0,,1,,,61,127
57119,note_off,191,0,0,,1,,,61,127
57119,note_off,0,0,0,,11,,,70,127
57120,note_on,1,0,0,,12,,,71,127
57120,note_on,0,0,0,,12,,,59,127
57311,note_off,191,0,0,,12,,,59,127
57311,note_off,0,0,0,,12,,,71,127
57311,note_off,0,0,0,,4,,,64,127
57312,note_on,1,0,0,,1,,,73,127
57312,note_on,0,0,0,,11,,,58,127
57312,note_on,0,0,0,,4,,,64,127
57503,note_off,191,0,0,,7,,,79,127
57504,note_on,1,0,0,,6,,,78,127
57599,note_off,95,0,0,,6,,,78,127
57600,note_on,1,0,0,,4,,,76,127
57695,note_off,95,0,0,,4,,,76,127
57695,note_off,0,0,0,,4,,,64,127
57695,note_off,0,0,0,,11,,,58,127
57695,note_off,0,0,0,,1,,,73,127
57696,note_on,1,0,0,,2,,,74,127
57696,note_on,0,0,0,,6,,,54,127
57696,note_on,0,0,0,,4,,,64,127
57887,note_off,191,0,0,,2,,,74,127
57888,note_on,1,0,0,,1,,,73,127
58079,note_off,191,0,0,,1,,,73,127
58079,note_off,0,0,0,,4,,,64,127
58079,note_off,0,0,0,,6,,,54,127
58080,note_on,1,0,0,,2,,,86,127
58080,note_on,0,0,0,,2,,,74,127
58080,note_on,0,0,0,,6,,,66,127
58080,note_on,0,0,0,,12,,,59,127
58271,note_off,191,0,0,,2,,,86,127
58272,note_on,1,0,0,,12,,,83,127
58367,note_off,95,0,0,,12,,,83,127
58368,note_on,1,0,0,,10,,,81,127
58463,note_off,95,0,0,,10,,,81,127
58463,note_off,0,0,0,,6,,,66,127
58463,note_off,0,0,0,,2,,,74,127
58464,note_on,1,0,0,,8,,,80,127
58464,note_on,0,0,0,,12,,,71,127
58655,note_off,191,0,0,,8,,,80,127
58656,note_on,1,0,0,,6,,,78,127
58847,note_off,191,0,0,,6,,,78,127
58847,note_off,0,0,0,,12,,,71,127
58847,note_off,0,0,0,,12,,,59,127
58848,note_on,1,0,0,,12,,,83,127
58848,note_on,0,0,0,,8,,,68,127
58848,note_on,0,0,0,,1,,,61,127
58943,note_off,95,0,0,,12,,,83,127
58944,note_on,1,0,0,,8,,,80,127
59039,note_off,95,0,0,,8,,,80,127
59040,note_on,1,0,0,,5,,,77,127
59135,note_off,95,0,0,,5,,,77,127
59136,note_on,1,0,0,,1,,,73,127
59231,note_off,95,0,0,,1,,,73,127
59232,note_on,1,0,0,,12,,,83,127
59327,note_off,95,0,0,,12,,,83,127
59328,note_on,1,0,0,,10,,,81,127
59423,note_off,95,0,0,,10,,,81,127
59424,note_on,1,0,0,,10,,,81,127
59519,note_off,95,0,0,,10,,,81,127
59520,note_on,1,0,0,,8,,,80,127
59615,note_off,95,0,0,,8,,,80,127
59615,note_off,0,0,0,,1,,,61,127
59615,note_off,0,0,0,,8,,,68,127
59616,note_on,1,0,0,,10,,,81,127
59616,note_on,0,0,0,,10,,,69,127
59616,note_on,0,0,0,,1,,,61,127
59616,note_on,0,0,0,,6,,,66,127
59711,note_off,95,0,0,,10,,,81,127
59712,note_on,1,0,0,,6,,,78,127
59807,note_off,95,0,0,,6,,,78,127
59808,note_on,1,0,0,,1,,,73,127
59903,note_off,95,0,0,,1,,,73,127
59903,note_off,0,0,0,,10,,,69,127
59904,note_on,1,0,0,,10,,,69,127
59999,note_off,95,0,0,,10,,,69,127
60000,note_on,1,0,0,,10,,,81,127
60095,note_off,95,0,0,,10,,,81,127
60096,note_on,1,0,0,,8,,,80,127
60191,note_off,95,0,0,,8,,,80,127
60192,note_on,1,0,0,,8,,,80,127
60287,note_off,95,0,0,,8,,,80,127
60288,note_on,1,0,0,,6,,,78,127
60383,note_off,95,0,0,,6,,,78,127
60383,note_off,0,0,0,,6,,,66,127
60383,note_off,0,0,0,,1,,,61,127
60384,note_on,1,0,0,,8,,,80,127
60384,note_on,0,0,0,,12,,,71,127
60384,note_on,0,0,0,,1,,,61,127
60384,note_on,0,0,0,,8,,,68,127
60479,note_off,95,0,0,,8,,,80,127
60480,note_on,1,0,0,,5,,,77,127
60575,note_off,95,0,0,,5,,,77,127
60576,note_on,1,0,0,,2,,,74,127
60671,note_off,95,0,0,,2,,,74,127
60671,note_off,0,0,0,,12,,,71,127
60672,note_on,1,0,0,,12,,,71,127
60767,note_off,95,0,0,,12,,,71,127
60768,note_on,1,0,0,,8,,,80,127
60863,note_off,95,0,0,,8,,,80,127
60864,note_on,1,0,0,,6,,,78,127
60959,note_off,95,0,0,,6,,,78,127
60960,note_on,1,0,0,,6,,,78,127
61055,note_off,95,0,0,,6,,,78,127
61056,note_on,1,0,0,,5,,,77,127
61151,note_off,95,0,0,,5,,,77,127
61151,note_off,0,0,0,,8,,,68,127
61151,note_off,0,0,0,,1,,,61,127
61152,note_on,1,0,0,,6,,,78,127
61152,note_on,0,0,0,,10,,,69,127
61152,note_on,0,0,0,,6,,,66,127
61152,note_on,0,0,0,,1,,,61,127
61247,note_off,95,0,0,,10,,,69,127
61248,note_on,1,0,0,,0,,,72,127
61343,note_off,95,0,0,,0,,,72,127
61344,note_on,1,0,0,,1,,,73,127
61439,note_off,95,0,0,,1,,,73,127
61440,note_on,1,0,0,,0,,,72,127
61535,note_off,95,0,0,,0,,,72,127
61536,note_on,1,0,0,,1,,,73,127
61631,note_off,95,0,0,,1,,,73,127
61632,note_on,1,0,0,,0,,,72,127
61727,note_off,95,0,0,,0,,,72,127
61727,note_off,0,0,0,,1,,,61,127
61727,note_off,0,0,0,,6,,,66,127
61727,note_off,0,0,0,,6,,,78,127
61728,note_on,1,0,0,,1,,,73,127
61728,note_on,0,0,0,,6,,,78,127
61728,note_on,0,0,0,,1,,,61,127
61728,note_on,0,0,0,,10,,,69,127
61823,note_off,95,0,0,,1,,,73,127
61824,note_on,1,0,0,,0,,,72,127
61919,note_off,95,0,0,,0,,,72,127
61919,note_off,0,0,0,,10,,,69,127
61919,note_off,0,0,0,,1,,,61,127
61919,note_off,0,0,0,,6,,,78,127
61920,note_on,1,0,0,,5,,,77,127
61920,note_on,0,0,0,,1,,,73,127
61920,note_on,0,0,0,,8,,,68,127
61920,note_on,0,0,0,,1,,,61,127
62015,note_off,95,0,0,,1,,,73,127
62016,note_on,1,0,0,,0,,,72,127
62111,note_off,95,0,0,,0,,,72,127
62111,note_off,0,0,0,,1,,,61,127
62111,note_off,0,0,0,,8,,,68,127
62111,note_off,0,0,0,,5,,,77,127
62112,note_on,1,0,0,,1,,,73,127
62112,note_on,0,0,0,,6,,,78,127
62112,note_on,0,0,0,,1,,,61,127
62112,note_on,0,0,0,,10,,,69,127
62207,note_off,95,0,0,,1,,,73,127
62208,note_on,1,0,0,,0,,,72,127
62303,note_off,95,0,0,,0,,,72,127
62303,note_off,0,0,0,,10,,,69,127
62303,note_off,0,0,0,,1,,,61,127
62303,note_off,0,0,0,,6,,,78,127
62304,note_on,1,0,0,,1,,,73,127
62304,note_on,0,0,0,,5,,,77,127
62304,note_on,0,0,0,,1,,,61,127
62304,note_on,0,0,0,,8,,,68,127
62399,note_off,95,0,0,,1,,,73,127
62400,note_on,1,0,0,,0,,,72,127
62495,note_off,95,0,0,,0,,,72,127
62495,note_off,0,0,0,,8,,,68,127
62495,note_off,0,0,0,,1,,,61,127
62495,note_off,0,0,0,,5,,,77,127
62496,note_on,1,0,0,,1,,,73,127
62496,note_on,0,0,0,,6,,,78,127
62496,note_on,0,0,0,,1,,,61,127
62496,note_on,0,0,0,,10,,,69,127
62591,note_off,95,0,0,,1,,,73,127
62592,note_on,1,0,0,,0,,,72,127
62687,note_off,95,0,0,,0,,,72,127
62687,note_off,0,0,0,,10,,,69,127
62687,note_off,0,0,0,,1,,,61,127
62687,note_off,0,0,0,,6,,,78,127
62688,note_on,1,0,0,,5,,,77,127
62688,note_on,0,0,0,,1,,,73,127
62688,note_on,0,0,0,,1,,,61,127
62688,note_on,0,0,0,,8,,,68,127
62783,note_off,95,0,0,,1,,,73,127
62784,note_on,1,0,0,,0,,,72,127
62879,note_off,95,0,0,,0,,,72,127
62879,note_off,0,0,0,,8,,,68,127
62879,note_off,0,0,0,,1,,,61,127
62879,note_off,0,0,0,,5,,,77,127
62880,note_on,1,0,0,,1,,,73,127
62880,note_on,0,0,0,,6,,,78,127
62880,note_on,0,0,0,,1,,,61,127
62880,note_on,0,0,0,,10,,,69,127
62975,note_off,95,0,0,,1,,,73,127
62976,note_on,1,0,0,,0,,,72,127
63071,note_off,95,0,0,,0,,,72,127
63071,note_off,0,0,0,,10,,,69,127
63071,note_off,0,0,0,,1,,,61,127
63071,note_off,0,0,0,,6,,,78,127
63072,note_on,1,0,0,,1,,,73,127
63072,note_on,0,0,0,,8,,,80,127
63072,note_on,0,0,0,,8,,,68,127
63072,note_on,0,0,0,,1,,,61,127
63167,note_off,95,0,0,,1,,,73,127
63168,note_on,1,0,0,,0,,,72,127
63263,note_off,95,0,0,,0,,,72,127
63263,note_off,0,0,0,,1,,,61,127
63263,note_off,0,0,0,,8,,,68,127
63263,note_off,0,0,0,,8,,,80,127
63264,note_on,1,0,0,,1,,,73,127
63264,note_on,0,0,0,,10,,,81,127
63264,note_on,0,0,0,,6,,,66,127
63264,note_on,0,0,0,,1,,,61,127
63359,note_off,95,0,0,,1,,,73,127
63360,note_on,1,0,0,,0,,,72,127
63455,note_off,95,0,0,,0,,,72,127
63455,note_off,0,0,0,,1,,,61,127
63455,note_off,0,0,0,,6,,,66,127
63455,note_off,0,0,0,,10,,,81,127
63456,note_on,1,0,0,,10,,,81,127
63456,note_on,0,0,0,,1,,,49,127
63504,note_on,48,0,0,,8,,,80,127
63520,note_off,16,0,0,,10,,,81,127
63552,note_on,32,0,0,,10,,,81,127
63568,note_off,16,0,0,,8,,,80,127
63600,note_on,32,0,0,,8,,,80,127
63616,note_off,16,0,0,,10,,,81,127
64175,note_off,559,0,0,,8,,,80,127
64223,note_off,48,0,0,,1,,,49,127
64224,note_on,1,0,0,,8,,,80,127
64415,note_off,191,0,0,,8,,,80,127
64416,note_on,1,0,0,,10,,,81,127
64511,note_off,95,0,0,,10,,,81,127
64512,note_on,1,0,0,,12,,,83,127
64607,note_off,95,0,0,,12,,,83,127
64608,note_on,1,0,0,,10,,,81,127
64703,note_off,95,0,0,,10,,,81,127
64704,note_on,1,0,0,,8,,,80,127
64799,note_off,95,0,0,,8,,,80,127
64800,note_on,1,0,0,,6,,,78,127
64895,note_off,95,0,0,,6,,,78,127
64896,note_on,1,0,0,,5,,,77,127
64991,note_off,95,0,0,,5,,,77,127
64992,note_on,1,0,0,,6,,,78,127
64992,note_on,0,0,0,,10,,,69,127
65088,note_on,96,0,0,,1,,,73,127
65105,note_off,17,0,0,,10,,,69,127
65184,note_on,79,0,0,,6,,,66,127
65201,note_off,17,0,0,,1,,,73,127
65280,note_on,79,0,0,,10,,,69,127
65297,note_off,17,0,0,,6,,,66,127
65376,note_on,79,0,0,,2,,,62,127
65393,note_off,17,0,0,,10,,,69,127
65472,note_on,79,0,0,,6,,,66,127
65489,note_off,17,0,0,,2,,,62,127
65567,note_off,78,0,0,,6,,,78,127
65568,note_on,1,0,0,,12,,,59,127
65585,note_off,17,0,0,,6,,,66,127
65664,note_on,79,0,0,,2,,,62,127
65681,note_off,17,0,0,,12,,,59,127
65760,note_on,79,0,0,,8,,,56,127
65777,note_off,17,0,0,,2,,,62,127
65856,note_on,79,0,0,,12,,,59,127
65873,note_off,17,0,0,,8,,,56,127
65952,note_on,79,0,0,,8,,,80,127
65952,note_on,0,0,0,,5,,,53,127
65969,note_off,17,0,0,,12,,,59,127
66048,note_on,79,0,0,,8,,,56,127
66065,note_off,17,0,0,,5,,,53,127
66143,note_off,78,0,0,,8,,,80,127
66144,note_on,1,0,0,,8,,,80,127
66144,note_on,0,0,0,,1,,,49,127
66161,note_off,17,0,0,,8,,,56,127
66239,note_off,78,0,0,,8,,,80,127
66240,note_on,1,0,0,,10,,,81,127
66287,note_off,47,0,0,,10,,,81,127
66288,note_on,1,0,0,,12,,,83,127
66335,note_off,47,0,0,,12,,,83,127
66336,note_on,1,0,0,,10,,,81,127
66431,note_off,95,0,0,,10,,,81,127
66432,note_on,1,0,0,,8,,,80,127
66527,note_off,95,0,0,,8,,,80,127
66527,note_off,0,0,0,,1,,,49,127
66528,note_on,1,0,0,,6,,,78,127
66528,note_on,0,0,0,,10,,,69,127
66624,note_on,96,0,0,,1,,,73,127
66641,note_off,17,0,0,,10,,,69,127
66720,note_on,79,0,0,,6,,,66,127
66737,note_off,17,0,0,,1,,,73,127
66816,note_on,79,0,0,,10,,,69,127
66833,note_off,17,0,0,,6,,,66,127
66912,note_on,79,0,0,,2,,,62,127
66929,note_off,17,0,0,,10,,,69,127
67008,note_on,79,0,0,,6,,,66,127
67025,note_off,17,0,0,,2,,,62,127
67103,note_off,78,0,0,,6,,,78,127
67104,note_on,1,0,0,,12,,,59,127
67121,note_off,17,0,0,,6,,,66,127
67200,note_on,79,0,0,,2,,,62,127
67217,note_off,17,0,0,,12,,,59,127
67296,note_on,79,0,0,,8,,,56,127
67313,note_off,17,0,0,,2,,,62,127
67392,note_on,79,0,0,,12,,,59,127
67409,note_off,17,0,0,,8,,,56,127
67488,note_on,79,0,0,,8,,,80,127
67488,note_on,0,0,0,,5,,,53,127
67505,note_off,17,0,0,,12,,,59,127
67584,note_on,79,0,0,,8,,,56,127
67601,note_off,17,0,0,,5,,,53,127
67679,note_off,78,0,0,,8,,,80,127
67680,note_on,1,0,0,,8,,,80,127
67680,note_on,0,0,0,,1,,,49,127
67697,note_off,17,0,0,,8,,,56,127
67775,note_off,78,0,0,,8,,,80,127
67776,note_on,1,0,0,,10,,,81,127
67823,note_off,47,0,0,,10,,,81,127
67824,note_on,1,0,0,,12,,,83,127
67871,note_off,47,0,0,,12,,,83,127
67872,note_on,1,0,0,,10,,,81,127
67967,note_off,95,0,0,,10,,,81,127
67968,note_on,1,0,0,,8,,,80,127
68063,note_off,95,0,0,,8,,,80,127
68063,note_off,0,0,0,,1,,,49,127
68064,note_on,1,0,0,,6,,,78,127
68064,note_on,0,0,0,,10,,,69,127
68160,note_on,96,0,0,,1,,,73,127
68177,note_off,17,0,0,,10,,,69,127
68256,note_on,79,0,0,,6,,,66,127
68273,note_off,17,0,0,,1,,,73,127
68352,note_on,79,0,0,,10,,,69,127
68369,note_off,17,0,0,,6,,,66,127
68448,note_on,79,0,0,,0,,,60,127
68465,note_off,17,0,0,,10,,,69,127
68544,note_on,79,0,0,,4,,,64,127
68561,note_off,17,0,0,,0,,,60,127
68639,note_off,78,0,0,,6,,,78,127
68640,note_on,1,0,0,,10,,,57,127
68657,note_off,17,0,0,,4,,,64,127
68736,note_on,79,0,0,,0,,,60,127
68753,note_off,17,0,0,,10,,,57,127
68832,note_on,79,0,0,,6,,,54,127
68849,note_off,17,0,0,,0,,,60,127
68928,note_on,79,0,0,,10,,,57,127
68945,note_off,17,0,0,,6,,,54,127
69024,note_on,79,0,0,,6,,,78,127
69024,note_on,0,0,0,,3,,,51,127
69041,note_off,17,0,0,,10,,,57,127
69120,note_on,79,0,0,,6,,,54,127
69137,note_off,17,0,0,,3,,,51,127
69215,note_off,78,0,0,,6,,,78,127
69216,note_on,1,0,0,,6,,,78,127
69216,note_on,0,0,0,,12,,,47,127
69233,note_off,17,0,0,,6,,,54,127
69311,note_off,78,0,0,,6,,,78,127
69312,note_on,1,0,0,,7,,,79,127
69359,note_off,47,0,0,,7,,,79,127
69360,note_on,1,0,0,,10,,,81,127
69407,note_off,47,0,0,,10,,,81,127
69408,note_on,1,0,0,,7,,,79,127
69503,note_off,95,0,0,,7,,,79,127
69504,note_on,1,0,0,,6,,,78,127
69599,note_off,95,0,0,,6,,,78,127
69599,note_off,0,0,0,,12,,,47,127
69600,note_on,1,0,0,,4,,,76,127
69600,note_on,0,0,0,,7,,,67,127
69696,note_on,96,0,0,,12,,,71,127
69713,note_off,17,0,0,,7,,,67,127
69792,note_on,79,0,0,,4,,,64,127
69809,note_off,17,0,0,,12,,,71,127
69888,note_on,79,0,0,,7,,,67,127
69905,note_off,17,0,0,,4,,,64,127
69984,note_on,79,0,0,,0,,,60,127
70001,note_off,17,0,0,,7,,,67,127
70080,note_on,79,0,0,,4,,,64,127
70097,note_off,17,0,0,,0,,,60,127
70175,note_off,78,0,0,,4,,,76,127
70176,note_on,1,0,0,,10,,,57,127
70193,note_off,17,0,0,,4,,,64,127
70272,note_on,79,0,0,,0,,,60,127
70289,note_off,17,0,0,,10,,,57,127
70368,note_on,79,0,0,,6,,,54,127
70385,note_off,17,0,0,,0,,,60,127
70464,note_on,79,0,0,,10,,,57,127
70481,note_off,17,0,0,,6,,,54,127
70560,note_on,79,0,0,,6,,,78,127
70560,note_on,0,0,0,,3,,,51,127
70577,note_off,17,0,0,,10,,,57,127
70656,note_on,79,0,0,,6,,,54,127
70673,note_off,17,0,0,,3,,,51,127
70751,note_off,78,0,0,,6,,,78,127
70752,note_on,1,0,0,,6,,,78,127
70752,note_on,0,0,0,,12,,,47,127
70769,note_off,17,0,0,,6,,,54,127
70847,note_off,78,0,0,,6,,,78,127
70848,note_on,1,0,0,,7,,,79,127
70895,note_off,47,0,0,,7,,,79,127
70896,note_on,1,0,0,,10,,,81,127
70943,note_off,47,0,0,,10,,,81,127
70944,note_on,1,0,0,,7,,,79,127
71039,note_off,95,0,0,,7,,,79,127
71040,note_on,1,0,0,,6,,,78,127
71135,note_off,95,0,0,,6,,,78,127
71135,note_off,0,0,0,,12,,,47,127
71136,note_on,1,0,0,,4,,,76,127
71136,note_on,0,0,0,,7,,,67,127
71232,note_on,96,0,0,,12,,,71,127
71249,note_off,17,0,0,,7,,,67,127
71328,note_on,79,0,0,,4,,,64,127
71345,note_off,17,0,0,,12,,,71,127
71424,note_on,79,0,0,,7,,,67,127
71441,note_off,17,0,0,,4,,,64,127
71520,note_on,79,0,0,,12,,,59,127
71537,note_off,17,0,0,,7,,,67,127
71616,note_on,79,0,0,,4,,,64,127
71633,note_off,17,0,0,,12,,,59,127
71711,note_off,78,0,0,,4,,,76,127
71712,note_on,1,0,0,,7,,,55,127
71729,note_off,17,0,0,,4,,,64,127
71808,note_on,79,0,0,,12,,,59,127
71825,note_off,17,0,0,,7,,,55,127
71904,note_on,79,0,0,,4,,,52,127
71921,note_off,17,0,0,,12,,,59,127
72000,note_on,79,0,0,,7,,,55,127
72017,note_off,17,0,0,,4,,,52,127
72096,note_on,79,0,0,,4,,,76,127
72096,note_on,0,0,0,,1,,,49,127
72113,note_off,17,0,0,,7,,,55,127
72192,note_on,79,0,0,,4,,,52,127
72209,note_off,17,0,0,,1,,,49,127
72287,note_off,78,0,0,,4,,,76,127
72288,note_on,1,0,0,,4,,,76,127
72288,note_on,0,0,0,,10,,,45,127
72305,note_off,17,0,0,,4,,,52,127
72383,note_off,78,0,0,,4,,,76,127
72384,note_on,1,0,0,,6,,,78,127
72431,note_off,47,0,0,,6,,,78,127
72432,note_on,1,0,0,,7,,,79,127
72479,note_off,47,0,0,,7,,,79,127
72480,note_on,1,0,0,,6,,,78,127
72575,note_off,95,0,0,,6,,,78,127
72576,note_on,1,0,0,,4,,,76,127
72671,note_off,95,0,0,,4,,,76,127
72671,note_off,0,0,0,,10,,,45,127
72672,note_on,1,0,0,,2,,,74,127
72672,note_on,0,0,0,,6,,,66,127
72768,note_on,96,0,0,,10,,,69,127
72785,note_off,17,0,0,,6,,,66,127
72864,note_on,79,0,0,,2,,,62,127
72881,note_off,17,0,0,,10,,,69,127
72960,note_on,79,0,0,,6,,,66,127
72977,note_off,17,0,0,,2,,,62,127
73056,note_on,79,0,0,,12,,,59,127
73073,note_off,17,0,0,,6,,,66,127
73152,note_on,79,0,0,,2,,,62,127
73169,note_off,17,0,0,,12,,,59,127
73247,note_off,78,0,0,,2,,,74,127
73248,note_on,1,0,0,,7,,,55,127
73265,note_off,17,0,0,,2,,,62,127
73344,note_on,79,0,0,,12,,,59,127
73361,note_off,17,0,0,,7,,,55,127
73440,note_on,79,0,0,,4,,,52,127
73457,note_off,17,0,0,,12,,,59,127
73536,note_on,79,0,0,,7,,,55,127
73553,note_off,17,0,0,,4,,,52,127
73632,note_on,79,0,0,,4,,,76,127
73632,note_on,0,0,0,,1,,,49,127
73649,note_off,17,0,0,,7,,,55,127
73728,note_on,79,0,0,,4,,,52,127
73745,note_off,17,0,0,,1,,,49,127
73823,note_off,78,0,0,,4,,,76,127
73824,note_on,1,0,0,,4,,,76,127
73824,note_on,0,0,0,,10,,,45,127
73841,note_off,17,0,0,,4,,,52,127
73919,note_off,78,0,0,,4,,,76,127
73920,note_on,1,0,0,,6,,,78,127
73967,note_off,47,0,0,,6,,,78,127
73968,note_on,1,0,0,,7,,,79,127
74015,note_off,47,0,0,,7,,,79,127
74015,note_off,0,0,0,,10,,,45,127
74016,note_on,1,0,0,,6,,,78,127
74016,note_on,0,0,0,,7,,,43,127
74111,note_off,95,0,0,,6,,,78,127
74112,note_on,1,0,0,,4,,,76,127
74207,note_off,95,0,0,,4,,,76,127
74207,note_off,0,0,0,,7,,,43,127
74208,note_on,1,0,0,,2,,,74,127
74208,note_on,0,0,0,,6,,,42,127
74303,note_off,95,0,0,,2,,,74,127
74304,note_on,1,0,0,,10,,,81,127
74399,note_off,95,0,0,,10,,,81,127
74400,note_on,1,0,0,,7,,,79,127
74495,note_off,95,0,0,,7,,,79,127
74496,note_on,1,0,0,,6,,,78,127
74591,note_off,95,0,0,,6,,,78,127
74591,note_off,0,0,0,,6,,,42,127
74592,note_on,1,0,0,,4,,,76,127
74592,note_on,0,0,0,,7,,,43,127
74687,note_off,95,0,0,,4,,,76,127
74688,note_on,1,0,0,,2,,,74,127
74783,note_off,95,0,0,,2,,,74,127
74784,note_on,1,0,0,,1,,,73,127
74879,note_off,95,0,0,,1,,,73,127
74880,note_on,1,0,0,,2,,,74,127
74975,note_off,95,0,0,,2,,,74,127
74975,note_off,0,0,0,,7,,,43,127
74976,note_on,1,0,0,,10,,,69,127
74976,note_on,0,0,0,,10,,,45,127
75071,note_off,95,0,0,,10,,,45,127
75072,note_on,1,0,0,,1,,,49,127
75167,note_off,95,0,0,,1,,,49,127
75168,note_on,1,0,0,,4,,,52,127
75263,note_off,95,0,0,,4,,,52,127
75264,note_on,1,0,0,,10,,,57,127
75359,note_off,95,0,0,,10,,,57,127
75360,note_on,1,0,0,,1,,,61,127
75455,note_off,95,0,0,,1,,,61,127
75456,note_off,1,0,0,,10,,,69,127
75456,note_on,0,0,0,,4,,,64,127
75551,note_off,95,0,0,,4,,,64,127
75552,note_on,1,0,0,,10,,,69,127
75647,note_off,95,0,0,,10,,,69,127
75648,note_on,1,0,0,,1,,,73,127
75743,note_off,95,0,0,,1,,,73,127
75744,note_on,1,0,0,,10,,,45,127
75840,note_on,96,0,0,,1,,,85,127
75935,note_off,95,0,0,,1,,,85,127
75936,note_on,1,0,0,,10,,,81,127
76031,note_off,95,0,0,,10,,,81,127
76032,note_on,1,0,0,,4,,,76,127
76127,note_off,95,0,0,,4,,,76,127
76128,note_on,1,0,0,,1,,,73,127
76223,note_off,95,0,0,,1,,,73,127
76224,note_on,1,0,0,,10,,,69,127
76319,note_off,95,0,0,,10,,,69,127
76320,note_on,1,0,0,,4,,,64,127
76415,note_off,95,0,0,,4,,,64,127
76416,note_on,1,0,0,,1,,,61,127
76511,note_off,95,0,0,,1,,,61,127
76511,note_off,0,0,0,,10,,,45,127
76512,note_on,1,0,0,,10,,,81,127
76512,note_on,0,0,0,,10,,,45,127
76607,note_off,95,0,0,,10,,,45,127
76608,note_on,1,0,0,,1,,,49,127
76703,note_off,95,0,0,,1,,,49,127
76704,note_on,1,0,0,,4,,,52,127
76799,note_off,95,0,0,,4,,,52,127
76800,note_on,1,0,0,,10,,,57,127
76895,note_off,95,0,0,,10,,,57,127
76896,note_on,1,0,0,,1,,,61,127
76991,note_off,95,0,0,,1,,,61,127
76992,note_on,1,0,0,,4,,,64,127
77087,note_off,95,0,0,,4,,,64,127
77088,note_on,1,0,0,,10,,,69,127
77183,note_off,95,0,0,,10,,,69,127
77184,note_on,1,0,0,,1,,,73,127
77279,note_off,95,0,0,,1,,,73,127
77280,note_on,1,0,0,,10,,,45,127
77375,note_off,95,0,0,,10,,,81,127
77376,note_on,1,0,0,,1,,,85,127
77471,note_off,95,0,0,,1,,,85,127
77472,note_on,1,0,0,,10,,,81,127
77567,note_off,95,0,0,,10,,,81,127
77568,note_on,1,0,0,,4,,,76,127
77663,note_off,95,0,0,,4,,,76,127
77664,note_on,1,0,0,,1,,,73,127
77760,note_on,96,0,0,,10,,,81,127
77784,note_off,24,0,0,,1,,,73,127
77855,note_off,71,0,0,,10,,,81,127
77856,note_on,1,0,0,,4,,,76,127
77951,note_off,95,0,0,,4,,,76,127
77952,note_on,1,0,0,,1,,,73,127
78047,note_off,95,0,0,,1,,,73,127
78048,note_on,1,0,0,,10,,,69,127
78144,note_on,96,0,0,,4,,,76,127
78168,note_off,24,0,0,,10,,,69,127
78239,note_off,71,0,0,,4,,,76,127
78240,note_on,1,0,0,,1,,,73,127
78335,note_off,95,0,0,,1,,,73,127
78336,note_on,1,0,0,,10,,,69,127
78431,note_off,95,0,0,,10,,,69,127
78432,note_on,1,0,0,,4,,,64,127
78527,note_off,95,0,0,,4,,,64,127
78528,note_on,1,0,0,,1,,,61,127
78623,note_off,95,0,0,,1,,,61,127
78623,note_off,0,0,0,,10,,,45,127
78624,note_on,1,0,0,,10,,,57,127
78719,note_off,95,0,0,,10,,,57,127
78720,note_on,1,0,0,,4,,,52,127
78815,note_off,95,0,0,,4,,,52,127
78816,note_on,1,0,0,,10,,,45,127
79516,note_off,700,0,0,,10,,,45,127
79584,note_on,68,0,0,,10,,,81,127
79775,note_off,191,0,0,,10,,,81,127
79776,note_on,1,0,0,,7,,,79,127
79776,note_on,0,0,0,,5,,,77,127
79871,note_off,95,0,0,,5,,,77,127
79871,note_off,0,0,0,,7,,,79,127
79872,note_on,1,0,0,,4,,,76,127
79967,note_off,95,0,0,,4,,,76,127
79968,note_on,1,0,0,,2,,,74,127
79968,note_on,0,0,0,,10,,,69,127
80159,note_off,191,0,0,,2,,,74,127
80160,note_on,1,0,0,,0,,,72,127
80351,note_off,191,0,0,,0,,,72,127
80352,note_on,1,0,0,,11,,,70,127
80543,note_off,191,0,0,,10,,,69,127
80544,note_on,1,0,0,,11,,,82,127
80544,note_on,0,0,0,,7,,,67,127
80735,note_off,191,0,0,,11,,,70,127
80736,note_on,1,0,0,,1,,,73,127
80927,note_off,191,0,0,,1,,,73,127
80927,note_off,0,0,0,,7,,,67,127
80927,note_off,0,0,0,,11,,,82,127
80928,note_on,1,0,0,,2,,,74,127
80928,note_on,0,0,0,,10,,,81,127
80928,note_on,0,0,0,,10,,,69,127
80928,note_on,0,0,0,,5,,,65,127
81119,note_off,191,0,0,,5,,,65,127
81119,note_off,0,0,0,,10,,,69,127
81119,note_off,0,0,0,,2,,,74,127
81120,note_on,1,0,0,,11,,,70,127
81120,note_on,0,0,0,,7,,,67,127
81120,note_on,0,0,0,,4,,,64,127
81311,note_off,191,0,0,,4,,,64,127
81311,note_off,0,0,0,,10,,,81,127
81312,note_on,1,0,0,,7,,,79,127
81312,note_on,0,0,0,,2,,,62,127
81503,note_off,191,0,0,,2,,,62,127
81503,note_off,0,0,0,,7,,,67,127
81503,note_off,0,0,0,,11,,,70,127
81504,note_on,1,0,0,,10,,,69,127
81504,note_on,0,0,0,,1,,,61,127
81695,note_off,191,0,0,,1,,,61,127
81695,note_off,0,0,0,,7,,,79,127
81696,note_on,1,0,0,,5,,,77,127
81696,note_on,0,0,0,,2,,,62,127
81887,note_off,191,0,0,,2,,,62,127
81887,note_off,0,0,0,,10,,,69,127
81888,note_on,1,0,0,,8,,,68,127
81888,note_on,0,0,0,,10,,,57,127
82079,note_off,191,0,0,,8,,,68,127
82080,note_on,1,0,0,,10,,,69,127
82271,note_off,191,0,0,,10,,,69,127
82271,note_off,0,0,0,,5,,,77,127
82272,note_on,1,0,0,,3,,,75,127
82463,note_off,191,0,0,,3,,,75,127
82464,note_on,1,0,0,,4,,,76,127
82655,note_off,191,0,0,,4,,,76,127
82655,note_off,0,0,0,,10,,,57,127
82656,note_on,1,0,0,,10,,,81,127
82847,note_off,191,0,0,,10,,,81,127
82848,note_on,1,0,0,,5,,,77,127
82848,note_on,0,0,0,,7,,,79,127
82943,note_off,95,0,0,,7,,,79,127
82943,note_off,0,0,0,,5,,,77,127
82944,note_on,1,0,0,,4,,,76,127
83039,note_off,95,0,0,,4,,,76,127
83040,note_on,1,0,0,,2,,,74,127
83040,note_on,0,0,0,,10,,,69,127
83231,note_off,191,0,0,,2,,,74,127
83232,note_on,1,0,0,,0,,,72,127
83423,note_off,191,0,0,,0,,,72,127
83424,note_on,1,0,0,,11,,,70,127
83615,note_off,191,0,0,,10,,,69,127
83616,note_on,1,0,0,,11,,,82,127
83616,note_on,0,0,0,,7,,,67,127
83807,note_off,191,0,0,,11,,,70,127
83808,note_on,1,0,0,,1,,,73,127
83999,note_off,191,0,0,,1,,,73,127
83999,note_off,0,0,0,,7,,,67,127
83999,note_off,0,0,0,,11,,,82,127
84000,note_on,1,0,0,,2,,,74,127
84000,note_on,0,0,0,,10,,,81,127
84000,note_on,0,0,0,,10,,,69,127
84000,note_on,0,0,0,,5,,,65,127
84191,note_off,191,0,0,,5,,,65,127
84191,note_off,0,0,0,,10,,,69,127
84191,note_off,0,0,0,,2,,,74,127
84192,note_on,1,0,0,,11,,,70,127
84192,note_on,0,0,0,,7,,,67,127
84192,note_on,0,0,0,,4,,,64,127
84383,note_off,191,0,0,,4,,,64,127
84383,note_off,0,0,0,,10,,,81,127
84384,note_on,1,0,0,,7,,,79,127
84384,note_on,0,0,0,,2,,,62,127
84575,note_off,191,0,0,,2,,,62,127
84575,note_off,0,0,0,,7,,,67,127
84575,note_off,0,0,0,,11,,,70,127
84576,note_on,1,0,0,,10,,,69,127
84576,note_on,0,0,0,,1,,,61,127
84767,note_off,191,0,0,,1,,,61,127
84767,note_off,0,0,0,,7,,,79,127
84768,note_on,1,0,0,,5,,,77,127
84768,note_on,0,0,0,,2,,,62,127
84959,note_off,191,0,0,,2,,,62,127
84959,note_off,0,0,0,,10,,,69,127
84960,note_on,1,0,0,,8,,,68,127
84960,note_on,0,0,0,,10,,,57,127
85151,note_off,191,0,0,,8,,,68,127
85152,note_on,1,0,0,,10,,,69,127
85343,note_off,191,0,0,,10,,,69,127
85343,note_off,0,0,0,,5,,,77,127
85344,note_on,1,0,0,,3,,,75,127
85535,note_off,191,0,0,,3,,,75,127
85536,note_on,1,0,0,,4,,,76,127
85728,note_on,192,0,0,,10,,,45,127
85776,note_off,48,0,0,,4,,,76,127
85824,note_on,48,0,0,,1,,,85,127
85919,note_off,95,0,0,,1,,,85,127
85920,note_on,1,0,0,,10,,,81,127
86015,note_off,95,0,0,,10,,,81,127
86016,note_on,1,0,0,,7,,,79,127
86111,note_off,95,0,0,,7,,,79,127
86112,note_on,1,0,0,,4,,,76,127
86207,note_off,95,0,0,,4,,,76,127
86208,note_on,1,0,0,,1,,,73,127
86303,note_off,95,0,0,,1,,,73,127
86304,note_on,1,0,0,,10,,,69,127
86399,note_off,95,0,0,,10,,,69,127
86400,note_on,1,0,0,,7,,,79,127
86490,note_off,90,0,0,,10,,,57,127
86495,note_off,5,0,0,,7,,,79,127
86495,note_off,0,0,0,,10,,,45,127
86496,note_on,1,0,0,,6,,,78,127
86496,note_on,0,0,0,,2,,,38,127
86591,note_off,95,0,0,,2,,,38,127
86592,note_on,1,0,0,,6,,,42,127
86687,note_off,95,0,0,,6,,,42,127
86688,note_on,1,0,0,,10,,,45,127
86783,note_off,95,0,0,,10,,,45,127
86784,note_on,1,0,0,,2,,,50,127
86879,note_off,95,0,0,,2,,,50,127
86880,note_on,1,0,0,,6,,,54,127
86975,note_off,95,0,0,,6,,,54,127
86976,note_on,1,0,0,,10,,,57,127
87071,note_off,95,0,0,,10,,,57,127
87071,note_off,0,0,0,,6,,,78,127
87072,note_on,1,0,0,,2,,,86,127
87072,note_on,0,0,0,,2,,,62,127
87167,note_off,95,0,0,,2,,,62,127
87168,note_on,1,0,0,,6,,,66,127
87263,note_off,95,0,0,,6,,,66,127
87263,note_off,0,0,0,,2,,,86,127
87264,note_on,1,0,0,,1,,,85,127
87264,note_on,0,0,0,,10,,,45,127
87359,note_off,95,0,0,,1,,,85,127
87360,note_on,1,0,0,,10,,,81,127
87455,note_off,95,0,0,,10,,,81,127
87456,note_on,1,0,0,,4,,,76,127
87551,note_off,95,0,0,,4,,,76,127
87552,note_on,1,0,0,,1,,,73,127
87647,note_off,95,0,0,,1,,,73,127
87648,note_on,1,0,0,,10,,,69,127
87743,note_off,95,0,0,,10,,,69,127
87744,note_on,1,0,0,,1,,,73,127
87839,note_off,95,0,0,,1,,,73,127
87840,note_on,1,0,0,,4,,,76,127
87935,note_off,95,0,0,,4,,,76,127
87936,note_on,1,0,0,,7,,,79,127
88031,note_off,95,0,0,,7,,,79,127
88031,note_off,0,0,0,,10,,,45,127
88032,note_on,1,0,0,,6,,,78,127
88032,note_on,0,0,0,,2,,,38,127
88127,note_off,95,0,0,,2,,,38,127
88128,note_on,1,0,0,,6,,,42,127
88223,note_off,95,0,0,,6,,,42,127
88224,note_on,1,0,0,,10,,,45,127
88319,note_off,95,0,0,,10,,,45,127
88320,note_on,1,0,0,,2,,,50,127
88415,note_off,95,0,0,,2,,,50,127
88416,note_on,1,0,0,,6,,,54,127
88511,note_off,95,0,0,,6,,,54,127
88512,note_on,1,0,0,,10,,,57,127
88607,note_off,95,0,0,,10,,,57,127
88607,note_off,0,0,0,,6,,,78,127
88608,note_on,1,0,0,,2,,,86,127
88608,note_on,0,0,0,,2,,,62,127
88703,note_off,95,0,0,,2,,,62,127
88704,note_on,1,0,0,,6,,,66,127
88799,note_off,95,0,0,,6,,,66,127
88799,note_off,0,0,0,,2,,,86,127
88800,note_on,1,0,0,,1,,,85,127
88800,note_on,0,0,0,,10,,,45,127
88895,note_off,95,0,0,,1,,,85,127
88896,note_on,1,0,0,,10,,,81,127
88991,note_off,95,0,0,,10,,,81,127
88992,note_on,1,0,0,,7,,,79,127
89087,note_off,95,0,0,,7,,,79,127
89088,note_on,1,0,0,,4,,,76,127
89183,note_off,95,0,0,,4,,,76,127
89184,note_on,1,0,0,,1,,,73,127
89279,note_off,95,0,0,,1,,,73,127
89280,note_on,1,0,0,,10,,,69,127
89375,note_off,95,0,0,,10,,,69,127
89376,note_on,1,0,0,,7,,,79,127
89471,note_off,95,0,0,,7,,,79,127
89472,note_on,1,0,0,,4,,,76,127
89567,note_off,95,0,0,,4,,,76,127
89567,note_off,0,0,0,,10,,,45,127
89568,note_on,1,0,0,,6,,,78,127
89568,note_on,0,0,0,,2,,,50,127
89663,note_off,95,0,0,,6,,,78,127
89664,note_on,1,0,0,,10,,,81,127
89759,note_off,95,0,0,,10,,,81,127
89760,note_on,1,0,0,,1,,,73,127
89855,note_off,95,0,0,,1,,,73,127
89856,note_on,1,0,0,,4,,,76,127
89951,note_off,95,0,0,,4,,,76,127
89951,note_off,0,0,0,,2,,,50,127
89952,note_on,1,0,0,,2,,,74,127
89952,note_on,0,0,0,,6,,,54,127
90047,note_off,95,0,0,,2,,,74,127
90048,note_on,1,0,0,,6,,,78,127
90143,note_off,95,0,0,,6,,,78,127
90144,note_on,1,0,0,,10,,,69,127
90239,note_off,95,0,0,,10,,,69,127
90240,note_on,1,0,0,,1,,,73,127
90335,note_off,95,0,0,,1,,,73,127
90335,note_off,0,0,0,,6,,,54,127
90336,note_on,1,0,0,,12,,,71,127
90336,note_on,0,0,0,,7,,,55,127
90432,note_on,96,0,0,,12,,,83,127
90526,note_off,94,0,0,,12,,,71,127
90527,note_off,1,0,0,,12,,,83,127
90528,note_on,1,0,0,,10,,,81,127
90623,note_off,95,0,0,,10,,,81,127
90624,note_on,1,0,0,,7,,,79,127
90719,note_off,95,0,0,,7,,,79,127
90720,note_on,1,0,0,,6,,,78,127
90720,note_on,0,0,0,,7,,,43,127
90815,note_off,95,0,0,,6,,,78,127
90816,note_on,1,0,0,,4,,,76,127
90911,note_off,95,0,0,,4,,,76,127
90912,note_on,1,0,0,,2,,,74,127
91007,note_off,95,0,0,,2,,,74,127
91008,note_on,1,0,0,,4,,,76,127
91103,note_off,95,0,0,,4,,,76,127
91103,note_off,0,0,0,,7,,,43,127
91103,note_off,0,0,0,,7,,,55,127
91104,note_on,1,0,0,,6,,,66,127
91104,note_on,0,0,0,,10,,,57,127
91200,note_on,96,0,0,,10,,,69,127
91248,note_off,48,0,0,,6,,,66,127
91295,note_off,47,0,0,,10,,,69,127
91296,note_on,1,0,0,,2,,,74,127
91392,note_on,96,0,0,,2,,,62,127
91440,note_off,48,0,0,,2,,,74,127
91487,note_off,47,0,0,,2,,,62,127
91487,note_off,0,0,0,,10,,,57,127
91488,note_on,1,0,0,,4,,,64,127
91488,note_on,0,0,0,,7,,,55,127
91584,note_on,96,0,0,,4,,,76,127
91632,note_off,48,0,0,,4,,,64,127
91679,note_off,47,0,0,,4,,,76,127
91680,note_on,1,0,0,,1,,,73,127
91776,note_on,96,0,0,,7,,,67,127
91800,note_off,24,0,0,,1,,,73,127
91871,note_off,71,0,0,,7,,,67,127
91871,note_off,0,0,0,,7,,,55,127
91872,note_on,1,0,0,,6,,,54,127
91968,note_on,96,0,0,,7,,,79,127
92063,note_off,95,0,0,,7,,,79,127
92064,note_on,1,0,0,,6,,,78,127
92159,note_off,95,0,0,,6,,,78,127
92160,note_on,1,0,0,,4,,,76,127
92255,note_off,95,0,0,,4,,,76,127
92256,note_on,1,0,0,,2,,,74,127
92351,note_off,95,0,0,,2,,,74,127
92352,note_on,1,0,0,,1,,,73,127
92447,note_off,95,0,0,,1,,,73,127
92448,note_on,1,0,0,,12,,,71,127
92543,note_off,95,0,0,,12,,,71,127
92544,note_on,1,0,0,,10,,,69,127
92639,note_off,95,0,0,,10,,,69,127
92639,note_off,0,0,0,,6,,,54,127
92640,note_on,1,0,0,,11,,,70,127
92640,note_on,0,0,0,,7,,,55,127
92735,note_off,95,0,0,,11,,,70,127
92736,note_on,1,0,0,,12,,,71,127
92831,note_off,95,0,0,,12,,,71,127
92832,note_on,1,0,0,,6,,,66,127
92927,note_off,95,0,0,,6,,,66,127
92928,note_on,1,0,0,,7,,,67,127
93023,note_off,95,0,0,,7,,,67,127
93024,note_on,1,0,0,,3,,,63,127
93119,note_off,95,0,0,,3,,,63,127
93120,note_on,1,0,0,,4,,,64,127
93215,note_off,95,0,0,,4,,,64,127
93216,note_on,1,0,0,,11,,,58,127
93311,note_off,95,0,0,,11,,,58,127
93312,note_on,1,0,0,,12,,,59,127
93407,note_off,95,0,0,,12,,,59,127
93407,note_off,0,0,0,,7,,,55,127
93408,note_on,1,0,0,,7,,,55,127
93503,note_off,95,0,0,,7,,,55,127
93504,note_on,1,0,0,,10,,,57,127
93599,note_off,95,0,0,,10,,,57,127
93600,note_on,1,0,0,,12,,,59,127
93695,note_off,95,0,0,,12,,,59,127
93696,note_on,1,0,0,,1,,,61,127
93791,note_off,95,0,0,,1,,,61,127
93792,note_on,1,0,0,,2,,,62,127
93792,note_on,0,0,0,,7,,,55,127
93887,note_off,95,0,0,,2,,,62,127
93888,note_on,1,0,0,,7,,,67,127
93983,note_off,95,0,0,,7,,,67,127
93984,note_on,1,0,0,,6,,,66,127
94079,note_off,95,0,0,,6,,,66,127
94080,note_on,1,0,0,,4,,,64,127
94175,note_off,95,0,0,,4,,,64,127
94175,note_off,0,0,0,,7,,,55,127
94176,note_on,1,0,0,,2,,,62,127
94176,note_on,0,0,0,,10,,,57,127
94296,note_off,120,0,0,,2,,,62,127
94320,note_on,24,0,0,,4,,,64,127
94367,note_off,47,0,0,,4,,,64,127
94368,note_on,1,0,0,,2,,,62,127
94415,note_off,47,0,0,,2,,,62,127
94416,note_on,1,0,0,,1,,,61,127
94463,note_off,47,0,0,,1,,,61,127
94464,note_on,1,0,0,,2,,,62,127
94511,note_off,47,0,0,,2,,,62,127
94512,note_on,1,0,0,,4,,,64,127
94559,note_off,47,0,0,,4,,,64,127
94559,note_off,0,0,0,,10,,,57,127
94560,note_on,1,0,0,,6,,,66,127
94560,note_on,0,0,0,,7,,,55,127
94607,note_off,47,0,0,,6,,,66,127
94608,note_on,1,0,0,,4,,,64,127
94655,note_off,47,0,0,,4,,,64,127
94656,note_on,1,0,0,,6,,,66,127
94703,note_off,47,0,0,,6,,,66,127
94704,note_on,1,0,0,,4,,,64,127
94751,note_off,47,0,0,,4,,,64,127
94752,note_on,1,0,0,,6,,,66,127
94799,note_off,47,0,0,,6,,,66,127
94800,note_on,1,0,0,,4,,,64,127
94847,note_off,47,0,0,,4,,,64,127
94848,note_on,1,0,0,,2,,,62,127
94943,note_off,95,0,0,,7,,,55,127
94944,note_on,1,0,0,,6,,,54,127
94992,note_off,48,0,0,,2,,,62,127
95040,note_on,48,0,0,,7,,,79,127
95135,note_off,95,0,0,,7,,,79,127
95136,note_on,1,0,0,,6,,,78,127
95231,note_off,95,0,0,,6,,,78,127
95232,note_on,1,0,0,,4,,,76,127
95327,note_off,95,0,0,,4,,,76,127
95328,note_on,1,0,0,,2,,,74,127
95423,note_off,95,0,0,,2,,,74,127
95424,note_on,1,0,0,,1,,,73,127
95519,note_off,95,0,0,,1,,,73,127
95520,note_on,1,0,0,,12,,,71,127
95615,note_off,95,0,0,,12,,,71,127
95616,note_on,1,0,0,,10,,,69,127
95711,note_off,95,0,0,,10,,,69,127
95711,note_off,0,0,0,,6,,,54,127
95712,note_on,1,0,0,,11,,,70,127
95712,note_on,0,0,0,,7,,,55,127
95807,note_off,95,0,0,,11,,,70,127
95808,note_on,1,0,0,,12,,,71,127
95903,note_off,95,0,0,,12,,,71,127
95904,note_on,1,0,0,,6,,,66,127
95999,note_off,95,0,0,,6,,,66,127
96000,note_on,1,0,0,,7,,,67,127
96095,note_off,95,0,0,,7,,,67,127
96096,note_on,1,0,0,,3,,,63,127
96191,note_off,95,0,0,,3,,,63,127
96192,note_on,1,0,0,,4,,,64,127
96287,note_off,95,0,0,,4,,,64,127
96288,note_on,1,0,0,,11,,,58,127
96383,note_off,95,0,0,,11,,,58,127
96384,note_on,1,0,0,,12,,,59,127
96479,note_off,95,0,0,,12,,,59,127
96479,note_off,0,0,0,,7,,,55,127
96480,note_on,1,0,0,,7,,,55,127
96575,note_off,95,0,0,,7,,,55,127
96576,note_on,1,0,0,,10,,,57,127
96671,note_off,95,0,0,,10,,,57,127
96672,note_on,1,0,0,,12,,,59,127
96767,note_off,95,0,0,,12,,,59,127
96768,note_on,1,0,0,,1,,,61,127
96863,note_off,95,0,0,,1,,,61,127
96864,note_on,1,0,0,,2,,,62,127
96864,note_on,0,0,0,,7,,,55,127
96959,note_off,95,0,0,,2,,,62,127
96960,note_on,1,0,0,,7,,,67,127
97055,note_off,95,0,0,,7,,,67,127
97056,note_on,1,0,0,,6,,,66,127
97151,note_off,95,0,0,,6,,,66,127
97152,note_on,1,0,0,,4,,,64,127
97247,note_off,95,0,0,,4,,,64,127
97247,note_off,0,0,0,,7,,,55,127
97248,note_on,1,0,0,,2,,,62,127
97248,note_on,0,0,0,,10,,,57,127
97378,note_off,130,0,0,,2,,,62,127
97392,note_on,14,0,0,,4,,,64,127
97439,note_off,47,0,0,,4,,,64,127
97440,note_on,1,0,0,,2,,,62,127
97487,note_off,47,0,0,,2,,,62,127
97488,note_on,1,0,0,,1,,,61,127
97535,note_off,47,0,0,,1,,,61,127
97536,note_on,1,0,0,,2,,,62,127
97583,note_off,47,0,0,,2,,,62,127
97584,note_on,1,0,0,,4,,,64,127
97631,note_off,47,0,0,,4,,,64,127
97631,note_off,0,0,0,,10,,,57,127
97632,note_on,1,0,0,,6,,,66,127
97632,note_on,0,0,0,,7,,,55,127
97679,note_off,47,0,0,,6,,,66,127
97680,note_on,1,0,0,,4,,,64,127
97727,note_off,47,0,0,,4,,,64,127
97728,note_on,1,0,0,,6,,,66,127
97775,note_off,47,0,0,,6,,,66,127
97776,note_on,1,0,0,,4,,,64,127
97823,note_off,47,0,0,,4,,,64,127
97824,note_on,1,0,0,,6,,,66,127
97871,note_off,47,0,0,,6,,,66,127
97872,note_on,1,0,0,,4,,,64,127
97919,note_off,47,0,0,,4,,,64,127
97920,note_on,1,0,0,,2,,,62,127
97968,note_off,48,0,0,,2,,,62,127
97968,note_on,0,0,0,,4,,,64,127
98015,note_off,47,0,0,,7,,,55,127
98016,note_off,1,0,0,,4,,,64,127
98016,note_on,0,0,0,,6,,,66,127
98016,note_on,0,0,0,,2,,,38,127
98112,note_on,96,0,0,,2,,,62,127
98160,note_off,48,0,0,,6,,,66,127
98207,note_off,47,0,0,,2,,,62,127
98208,note_on,1,0,0,,10,,,57,127
98303,note_off,95,0,0,,10,,,57,127
98304,note_on,1,0,0,,2,,,62,127
98399,note_off,95,0,0,,2,,,62,127
98400,note_on,1,0,0,,6,,,66,127
98496,note_on,96,0,0,,10,,,57,127
98544,note_off,48,0,0,,6,,,66,127
98591,note_off,47,0,0,,10,,,57,127
98591,note_off,0,0,0,,2,,,38,127
98592,note_on,1,0,0,,7,,,55,127
98592,note_on,0,0,0,,10,,,45,127
98687,note_off,95,0,0,,7,,,55,127
98688,note_on,1,0,0,,4,,,64,127
98783,note_off,95,0,0,,4,,,64,127
98783,note_off,0,0,0,,10,,,45,127
98784,note_on,1,0,0,,6,,,66,127
98784,note_on,0,0,0,,2,,,38,127
98784,note_on,0,0,0,,2,,,50,127
98880,note_on,96,0,0,,2,,,62,127
98928,note_off,48,0,0,,6,,,66,127
98975,note_off,47,0,0,,2,,,62,127
98976,note_on,1,0,0,,6,,,66,127
99071,note_off,95,0,0,,6,,,66,127
99072,note_on,1,0,0,,10,,,69,127
99167,note_off,95,0,0,,10,,,69,127
99168,note_on,1,0,0,,2,,,74,127
99264,note_on,96,0,0,,6,,,66,127
99312,note_off,48,0,0,,2,,,74,127
99359,note_off,47,0,0,,6,,,66,127
99359,note_off,0,0,0,,2,,,50,127
99359,note_off,0,0,0,,2,,,38,127
99360,note_on,1,0,0,,4,,,64,127
99360,note_on,0,0,0,,10,,,45,127
99456,note_on,96,0,0,,1,,,73,127
99504,note_off,48,0,0,,4,,,64,127
99551,note_off,47,0,0,,1,,,73,127
99551,note_off,0,0,0,,10,,,45,127
99552,note_on,1,0,0,,6,,,78,127
99552,note_on,0,0,0,,2,,,38,127
99552,note_on,0,0,0,,2,,,50,127
99647,note_off,95,0,0,,6,,,78,127
99648,note_on,1,0,0,,2,,,74,127
99743,note_off,95,0,0,,2,,,74,127
99744,note_on,1,0,0,,10,,,69,127
99839,note_off,95,0,0,,10,,,69,127
99840,note_on,1,0,0,,6,,,66,127
99935,note_off,95,0,0,,6,,,66,127
99936,note_on,1,0,0,,10,,,69,127
100032,note_on,96,0,0,,6,,,78,127
100080,note_off,48,0,0,,10,,,69,127
100127,note_off,47,0,0,,6,,,78,127
100127,note_off,0,0,0,,2,,,50,127
100127,note_off,0,0,0,,2,,,38,127
100128,note_on,1,0,0,,4,,,76,127
100128,note_on,0,0,0,,10,,,45,127
100224,note_on,96,0,0,,7,,,67,127
100272,note_off,48,0,0,,4,,,76,127
100319,note_off,47,0,0,,7,,,67,127
100319,note_off,0,0,0,,10,,,45,127
100320,note_on,1,0,0,,10,,,81,127
100320,note_on,0,0,0,,2,,,50,127
100320,note_on,0,0,0,,2,,,38,127
100415,note_off,95,0,0,,10,,,81,127
100416,note_on,1,0,0,,6,,,78,127
100511,note_off,95,0,0,,6,,,78,127
100512,note_on,1,0,0,,2,,,74,127
100607,note_off,95,0,0,,2,,,74,127
100608,note_on,1,0,0,,10,,,69,127
100703,note_off,95,0,0,,10,,,69,127
100704,note_on,1,0,0,,2,,,74,127
100800,note_on,96,0,0,,10,,,81,127
100848,note_off,48,0,0,,2,,,74,127
100895,note_off,47,0,0,,10,,,81,127
100895,note_off,0,0,0,,2,,,38,127
100895,note_off,0,0,0,,2,,,50,127
100896,note_on,1,0,0,,7,,,79,127
100896,note_on,0,0,0,,10,,,45,127
100992,note_on,96,0,0,,4,,,76,127
101016,note_off,24,0,0,,7,,,79,127
101087,note_off,71,0,0,,4,,,76,127
101087,note_off,0,0,0,,10,,,45,127
101088,note_on,1,0,0,,2,,,86,127
101088,note_on,0,0,0,,2,,,50,127
101088,note_on,0,0,0,,2,,,38,127
101183,note_off,95,0,0,,2,,,86,127
101184,note_on,1,0,0,,10,,,81,127
101279,note_off,95,0,0,,10,,,81,127
101280,note_on,1,0,0,,6,,,78,127
101375,note_off,95,0,0,,6,,,78,127
101376,note_on,1,0,0,,2,,,74,127
101471,note_off,95,0,0,,2,,,74,127
101472,note_on,1,0,0,,6,,,78,127
101568,note_on,96,0,0,,2,,,86,127
101616,note_off,48,0,0,,6,,,78,127
101663,note_off,47,0,0,,2,,,86,127
101663,note_off,0,0,0,,2,,,38,127
101663,note_off,0,0,0,,2,,,50,127
101664,note_on,1,0,0,,4,,,76,127
101664,note_on,0,0,0,,10,,,45,127
101760,note_on,96,0,0,,1,,,85,127
101808,note_off,48,0,0,,4,,,76,127
101855,note_off,47,0,0,,1,,,85,127
101855,note_off,0,0,0,,10,,,45,127
101856,note_on,1,0,0,,6,,,78,127
101856,note_on,0,0,0,,2,,,50,127
101856,note_on,0,0,0,,2,,,38,127
101952,note_on,96,0,0,,2,,,86,127
102016,note_off,64,0,0,,6,,,78,127
102047,note_off,31,0,0,,2,,,38,127
102047,note_off,0,0,0,,2,,,50,127
102048,note_on,1,0,0,,4,,,76,127
102048,note_on,0,0,0,,10,,,45,127
102112,note_off,64,0,0,,2,,,86,127
102144,note_on,32,0,0,,1,,,85,127
102208,note_off,64,0,0,,4,,,76,127
102239,note_off,31,0,0,,10,,,45,127
102240,note_on,1,0,0,,6,,,78,127
102240,note_on,0,0,0,,2,,,50,127
102240,note_on,0,0,0,,2,,,38,127
102304,note_off,64,0,0,,1,,,85,127
102336,note_on,32,0,0,,2,,,86,127
102400,note_off,64,0,0,,6,,,78,127
102431,note_off,31,0,0,,2,,,38,127
102431,note_off,0,0,0,,2,,,50,127
102432,note_on,1,0,0,,4,,,76,127
102432,note_on,0,0,0,,10,,,45,127
102476,note_off,44,0,0,,2,,,86,127
102528,note_on,52,0,0,,1,,,85,127
102552,note_off,24,0,0,,4,,,76,127
102622,note_off,70,0,0,,1,,,85,127
102623,note_off,1,0,0,,10,,,45,127
102629,note_on,6,0,0,,2,,,86,127
102629,note_on,0,0,0,,2,,,38,127
102629,note_on,0,0,0,,2,,,50,127
104163,note_off,1534,0,0,,2,,,50,127
104163,note_off,0,0,0,,2,,,38,127
104163,note_off,0,0,0,,2,,,86,127
104448,end_of_track,285,1,0,,,,,,
