tick,type,time,meta,track,program,channel,pitch,tempo,note,velocity
0,copyright,0,1,0,,,,,,
0,program_change,0,0,0,6,0,,,,
0,pitchwheel,0,0,0,,0,0,,,
0,program_change,0,0,0,6,1,,,,
0,pitchwheel,0,0,0,,1,-590,,,
0,program_change,0,0,0,6,2,,,,
0,pitchwheel,0,0,0,,2,-272,,,
0,program_change,0,0,0,6,3,,,,
0,pitchwheel,0,0,0,,3,-353,,,
0,program_change,0,0,0,6,4,,,,
0,pitchwheel,0,0,0,,4,-560,,,
0,program_change,0,0,0,6,5,,,,
0,pitchwheel,0,0,0,,5,-80,,,
0,program_change,0,0,0,6,6,,,,
0,pitchwheel,0,0,0,,6,-625,,,
0,program_change,0,0,0,6,7,,,,
0,pitchwheel,0,0,0,,7,-130,,,
0,program_change,0,0,0,6,8,,,,
0,pitchwheel,0,0,0,,8,-512,,,
0,program_change,0,0,0,6,10,,,,
0,pitchwheel,0,0,0,,10,-464,,,
0,program_change,0,0,0,6,11,,,,
0,pitchwheel,0,0,0,,11,-208,,,
0,program_change,0,0,0,6,12,,,,
0,pitchwheel,0,0,0,,12,-553,,,
0,set_tempo,0,1,0,,,,500000,,
121,note_on,121,0,0,,2,,,50,127
121,note_on,0,0,0,,12,,,83,127
159,note_off,38,0,0,,12,,,83,127
162,note_on,3,0,0,,10,,,81,127
200,note_off,38,0,0,,10,,,81,127
203,note_on,3,0,0,,12,,,83,127
241,note_off,38,0,0,,12,,,83,127
244,note_on,3,0,0,,10,,,81,127
363,note_off,119,0,0,,2,,,50,127
366,note_on,3,0,0,,6,,,54,127
606,note_off,240,0,0,,6,,,54,127
609,note_on,3,0,0,,10,,,57,127
849,note_off,240,0,0,,10,,,57,127
849,note_off,0,0,0,,10,,,81,127
852,note_on,3,0,0,,2,,,62,127
852,note_on,0,0,0,,12,,,83,127
1092,note_off,240,0,0,,12,,,83,127
1092,note_off,0,0,0,,2,,,62,127
1095,note_on,3,0,0,,6,,,66,127
1095,note_on,0,0,0,,10,,,81,127
1335,note_off,240,0,0,,6,,,66,127
1338,note_on,3,0,0,,10,,,69,127
1578,note_off,240,0,0,,10,,,69,127
1578,note_off,0,0,0,,10,,,81,127
1581,note_on,3,0,0,,7,,,67,127
1581,note_on,0,0,0,,11,,,82,127
1581,note_on,0,0,0,,12,,,83,127
1702,note_off,121,0,0,,12,,,83,127
1821,note_off,119,0,0,,11,,,82,127
1824,note_on,3,0,0,,12,,,83,127
2064,note_off,240,0,0,,12,,,83,127
2067,note_on,3,0,0,,7,,,79,127
2307,note_off,240,0,0,,7,,,79,127
2307,note_off,0,0,0,,7,,,67,127
2310,note_on,3,0,0,,7,,,67,127
2310,note_on,0,0,0,,4,,,76,127
2310,note_on,0,0,0,,3,,,75,127
2431,note_off,121,0,0,,4,,,76,127
2550,note_off,119,0,0,,3,,,75,127
2553,note_on,3,0,0,,4,,,76,127
2793,note_off,240,0,0,,4,,,76,127
2796,note_on,3,0,0,,12,,,71,127
3036,note_off,240,0,0,,12,,,71,127
3036,note_off,0,0,0,,7,,,67,127
3039,note_on,3,0,0,,7,,,67,127
3039,note_on,0,0,0,,2,,,74,127
3097,note_off,58,0,0,,2,,,74,127
3100,note_on,3,0,0,,1,,,73,127
3158,note_off,58,0,0,,1,,,73,127
3161,note_on,3,0,0,,12,,,71,127
3219,note_off,58,0,0,,12,,,71,127
3222,note_on,3,0,0,,1,,,73,127
3280,note_off,58,0,0,,1,,,73,127
3280,note_off,0,0,0,,7,,,67,127
3283,note_on,3,0,0,,6,,,66,127
3283,note_on,0,0,0,,2,,,74,127
3523,note_off,240,0,0,,6,,,66,127
3526,note_on,3,0,0,,2,,,62,127
3766,note_off,240,0,0,,2,,,62,127
3767,note_off,1,0,0,,2,,,74,127
3768,note_on,1,0,0,,4,,,64,127
4008,note_off,240,0,0,,4,,,64,127
4011,note_on,3,0,0,,1,,,61,127
4132,note_on,121,0,0,,4,,,76,127
4190,note_off,58,0,0,,4,,,76,127
4193,note_on,3,0,0,,6,,,78,127
4251,note_off,58,0,0,,6,,,78,127
4251,note_off,0,0,0,,1,,,61,127
4254,note_on,3,0,0,,10,,,57,127
4254,note_on,0,0,0,,10,,,81,127
4312,note_off,58,0,0,,10,,,81,127
4315,note_on,3,0,0,,7,,,79,127
4373,note_off,58,0,0,,7,,,79,127
4376,note_on,3,0,0,,6,,,78,127
4434,note_off,58,0,0,,6,,,78,127
4437,note_on,3,0,0,,7,,,79,127
4495,note_off,58,0,0,,7,,,79,127
4495,note_off,0,0,0,,10,,,57,127
4498,note_on,3,0,0,,2,,,62,127
4498,note_on,0,0,0,,6,,,78,127
4576,note_off,78,0,0,,6,,,78,127
4579,note_on,3,0,0,,2,,,86,127
4657,note_off,78,0,0,,2,,,86,127
4660,note_on,3,0,0,,10,,,81,127
4738,note_off,78,0,0,,10,,,81,127
4741,note_on,3,0,0,,6,,,78,127
4819,note_off,78,0,0,,6,,,78,127
4822,note_on,3,0,0,,2,,,74,127
4900,note_off,78,0,0,,2,,,74,127
4903,note_on,3,0,0,,1,,,73,127
4981,note_off,78,0,0,,1,,,73,127
4981,note_off,0,0,0,,2,,,62,127
4984,note_on,3,0,0,,6,,,66,127
4984,note_on,0,0,0,,2,,,74,127
5224,note_off,240,0,0,,6,,,66,127
5227,note_on,3,0,0,,4,,,64,127
5348,note_off,121,0,0,,2,,,74,127
5467,note_off,119,0,0,,4,,,64,127
5470,note_on,3,0,0,,1,,,61,127
5591,note_on,121,0,0,,4,,,76,127
5649,note_off,58,0,0,,4,,,76,127
5652,note_on,3,0,0,,6,,,78,127
5710,note_off,58,0,0,,6,,,78,127
5710,note_off,0,0,0,,1,,,61,127
5713,note_on,3,0,0,,10,,,57,127
5713,note_on,0,0,0,,10,,,81,127
5771,note_off,58,0,0,,10,,,81,127
5774,note_on,3,0,0,,7,,,79,127
5832,note_off,58,0,0,,7,,,79,127
5835,note_on,3,0,0,,6,,,78,127
5893,note_off,58,0,0,,6,,,78,127
5896,note_on,3,0,0,,7,,,79,127
5954,note_off,58,0,0,,7,,,79,127
5954,note_off,0,0,0,,10,,,57,127
5957,note_on,3,0,0,,2,,,62,127
5957,note_on,0,0,0,,6,,,78,127
6035,note_off,78,0,0,,6,,,78,127
6038,note_on,3,0,0,,2,,,86,127
6116,note_off,78,0,0,,2,,,86,127
6119,note_on,3,0,0,,10,,,81,127
6197,note_off,78,0,0,,10,,,81,127
6200,note_on,3,0,0,,6,,,78,127
6278,note_off,78,0,0,,6,,,78,127
6281,note_on,3,0,0,,2,,,74,127
6359,note_off,78,0,0,,2,,,74,127
6362,note_on,3,0,0,,1,,,73,127
6440,note_off,78,0,0,,1,,,73,127
6440,note_off,0,0,0,,2,,,62,127
6443,note_on,3,0,0,,6,,,66,127
6443,note_on,0,0,0,,2,,,74,127
6683,note_off,240,0,0,,6,,,66,127
6686,note_on,3,0,0,,4,,,64,127
6926,note_off,240,0,0,,4,,,64,127
6929,note_on,3,0,0,,1,,,61,127
6949,note_off,20,0,0,,2,,,74,127
7050,note_on,101,0,0,,4,,,76,127
7108,note_off,58,0,0,,4,,,76,127
7111,note_on,3,0,0,,6,,,78,127
7169,note_off,58,0,0,,6,,,78,127
7169,note_off,0,0,0,,1,,,61,127
7172,note_on,3,0,0,,10,,,57,127
7172,note_on,0,0,0,,10,,,81,127
7230,note_off,58,0,0,,10,,,81,127
7233,note_on,3,0,0,,7,,,79,127
7291,note_off,58,0,0,,7,,,79,127
7294,note_on,3,0,0,,6,,,78,127
7352,note_off,58,0,0,,6,,,78,127
7355,note_on,3,0,0,,7,,,79,127
7413,note_off,58,0,0,,7,,,79,127
7413,note_off,0,0,0,,10,,,57,127
7416,note_on,3,0,0,,2,,,62,127
7416,note_on,0,0,0,,6,,,78,127
7497,note_on,81,0,0,,10,,,81,127
7517,note_off,20,0,0,,6,,,78,127
7575,note_off,58,0,0,,10,,,81,127
7578,note_on,3,0,0,,6,,,78,127
7656,note_off,78,0,0,,6,,,78,127
7659,note_on,3,0,0,,2,,,74,127
7740,note_on,81,0,0,,6,,,78,127
7760,note_off,20,0,0,,2,,,74,127
7818,note_off,58,0,0,,6,,,78,127
7821,note_on,3,0,0,,2,,,74,127
7899,note_off,78,0,0,,2,,,74,127
7902,note_on,3,0,0,,10,,,69,127
7983,note_on,81,0,0,,2,,,74,127
8003,note_off,20,0,0,,10,,,69,127
8061,note_off,58,0,0,,2,,,74,127
8064,note_on,3,0,0,,10,,,69,127
8142,note_off,78,0,0,,10,,,69,127
8142,note_off,0,0,0,,2,,,62,127
8145,note_on,3,0,0,,2,,,50,127
8145,note_on,0,0,0,,6,,,66,127
8226,note_on,81,0,0,,10,,,69,127
8246,note_off,20,0,0,,6,,,66,127
8304,note_off,58,0,0,,10,,,69,127
8307,note_on,3,0,0,,6,,,66,127
8385,note_off,78,0,0,,6,,,66,127
8388,note_on,3,0,0,,2,,,62,127
8469,note_on,81,0,0,,6,,,66,127
8489,note_off,20,0,0,,2,,,62,127
8547,note_off,58,0,0,,6,,,66,127
8550,note_on,3,0,0,,2,,,62,127
8628,note_off,78,0,0,,2,,,62,127
8631,note_on,3,0,0,,10,,,57,127
8712,note_on,81,0,0,,2,,,62,127
8732,note_off,20,0,0,,10,,,57,127
8790,note_off,58,0,0,,2,,,62,127
8793,note_on,3,0,0,,10,,,57,127
8871,note_off,78,0,0,,10,,,57,127
8871,note_off,0,0,0,,2,,,50,127
8874,note_on,3,0,0,,2,,,38,127
8874,note_on,0,0,0,,6,,,54,127
8955,note_on,81,0,0,,10,,,57,127
8975,note_off,20,0,0,,6,,,54,127
9033,note_off,58,0,0,,10,,,57,127
9036,note_on,3,0,0,,6,,,54,127
9114,note_off,78,0,0,,6,,,54,127
9117,note_on,3,0,0,,2,,,50,127
9531,note_off,414,0,0,,2,,,38,127
9599,note_off,68,0,0,,2,,,50,127
9602,note_on,3,0,0,,6,,,66,127
9602,note_on,0,0,0,,2,,,62,127
9602,note_on,0,0,0,,6,,,78,127
9842,note_off,240,0,0,,2,,,62,127
9842,note_off,0,0,0,,6,,,66,127
9845,note_on,3,0,0,,8,,,68,127
9845,note_on,0,0,0,,4,,,64,127
10085,note_off,240,0,0,,4,,,64,127
10085,note_off,0,0,0,,8,,,68,127
10088,note_on,3,0,0,,6,,,66,127
10088,note_on,0,0,0,,11,,,70,127
10328,note_off,240,0,0,,11,,,70,127
10328,note_off,0,0,0,,6,,,66,127
10331,note_on,3,0,0,,7,,,67,127
10331,note_on,0,0,0,,12,,,71,127
10409,note_off,78,0,0,,6,,,78,127
10412,note_on,3,0,0,,4,,,76,127
10490,note_off,78,0,0,,4,,,76,127
10493,note_on,3,0,0,,3,,,75,127
10571,note_off,78,0,0,,3,,,75,127
10574,note_on,3,0,0,,4,,,76,127
10652,note_off,78,0,0,,4,,,76,127
10655,note_on,3,0,0,,6,,,78,127
10733,note_off,78,0,0,,6,,,78,127
10736,note_on,3,0,0,,7,,,79,127
10814,note_off,78,0,0,,7,,,79,127
10814,note_off,0,0,0,,12,,,71,127
10814,note_off,0,0,0,,7,,,67,127
10817,note_on,3,0,0,,6,,,66,127
10817,note_on,0,0,0,,10,,,69,127
10817,note_on,0,0,0,,10,,,81,127
10895,note_off,78,0,0,,10,,,81,127
10898,note_on,3,0,0,,12,,,83,127
10976,note_off,78,0,0,,12,,,83,127
10979,note_on,3,0,0,,0,,,84,127
11057,note_off,78,0,0,,0,,,84,127
11057,note_off,0,0,0,,10,,,69,127
11057,note_off,0,0,0,,6,,,66,127
11060,note_on,3,0,0,,7,,,67,127
11060,note_on,0,0,0,,4,,,64,127
11060,note_on,0,0,0,,12,,,83,127
11138,note_off,78,0,0,,12,,,83,127
11141,note_on,3,0,0,,10,,,81,127
11219,note_off,78,0,0,,10,,,81,127
11222,note_on,3,0,0,,7,,,79,127
11300,note_off,78,0,0,,7,,,79,127
11300,note_off,0,0,0,,4,,,64,127
11300,note_off,0,0,0,,7,,,67,127
11303,note_on,3,0,0,,10,,,69,127
11303,note_on,0,0,0,,6,,,66,127
11303,note_on,0,0,0,,6,,,78,127
11381,note_off,78,0,0,,6,,,78,127
11384,note_on,3,0,0,,4,,,76,127
11462,note_off,78,0,0,,4,,,76,127
11465,note_on,3,0,0,,3,,,75,127
11543,note_off,78,0,0,,3,,,75,127
11543,note_off,0,0,0,,6,,,66,127
11543,note_off,0,0,0,,10,,,69,127
11546,note_on,3,0,0,,12,,,71,127
11546,note_on,0,0,0,,7,,,67,127
11546,note_on,0,0,0,,4,,,76,127
11748,note_off,202,0,0,,4,,,76,127
11786,note_off,38,0,0,,7,,,67,127
11786,note_off,0,0,0,,12,,,71,127
11789,note_on,3,0,0,,4,,,64,127
11789,note_on,0,0,0,,1,,,61,127
11789,note_on,0,0,0,,4,,,76,127
12029,note_off,240,0,0,,1,,,61,127
12029,note_off,0,0,0,,4,,,64,127
12032,note_on,3,0,0,,6,,,66,127
12032,note_on,0,0,0,,2,,,62,127
12272,note_off,240,0,0,,2,,,62,127
12272,note_off,0,0,0,,6,,,66,127
12275,note_on,3,0,0,,7,,,67,127
12275,note_on,0,0,0,,4,,,64,127
12515,note_off,240,0,0,,4,,,64,127
12515,note_off,0,0,0,,7,,,67,127
12518,note_on,3,0,0,,6,,,66,127
12518,note_on,0,0,0,,10,,,69,127
12596,note_off,78,0,0,,4,,,76,127
12599,note_on,3,0,0,,2,,,74,127
12677,note_off,78,0,0,,2,,,74,127
12680,note_on,3,0,0,,1,,,73,127
12758,note_off,78,0,0,,1,,,73,127
12761,note_on,3,0,0,,2,,,74,127
12839,note_off,78,0,0,,2,,,74,127
12842,note_on,3,0,0,,4,,,76,127
12920,note_off,78,0,0,,4,,,76,127
12923,note_on,3,0,0,,6,,,78,127
13001,note_off,78,0,0,,6,,,78,127
13001,note_off,0,0,0,,10,,,69,127
13001,note_off,0,0,0,,6,,,66,127
13004,note_on,3,0,0,,4,,,64,127
13004,note_on,0,0,0,,7,,,67,127
13004,note_on,0,0,0,,7,,,79,127
13082,note_off,78,0,0,,7,,,79,127
13085,note_on,3,0,0,,10,,,81,127
13163,note_off,78,0,0,,10,,,81,127
13166,note_on,3,0,0,,12,,,83,127
13244,note_off,78,0,0,,12,,,83,127
13244,note_off,0,0,0,,7,,,67,127
13244,note_off,0,0,0,,4,,,64,127
13247,note_on,3,0,0,,6,,,66,127
13247,note_on,0,0,0,,2,,,62,127
13247,note_on,0,0,0,,10,,,81,127
13325,note_off,78,0,0,,10,,,81,127
13328,note_on,3,0,0,,7,,,79,127
13406,note_off,78,0,0,,7,,,79,127
13409,note_on,3,0,0,,6,,,78,127
13487,note_off,78,0,0,,6,,,78,127
13487,note_off,0,0,0,,2,,,62,127
13487,note_off,0,0,0,,6,,,66,127
13490,note_on,3,0,0,,7,,,67,127
13490,note_on,0,0,0,,4,,,64,127
13490,note_on,0,0,0,,4,,,76,127
13568,note_off,78,0,0,,4,,,76,127
13571,note_on,3,0,0,,2,,,74,127
13649,note_off,78,0,0,,2,,,74,127
13652,note_on,3,0,0,,1,,,73,127
13730,note_off,78,0,0,,1,,,73,127
13730,note_off,0,0,0,,4,,,64,127
13730,note_off,0,0,0,,7,,,67,127
13733,note_on,3,0,0,,6,,,66,127
13733,note_on,0,0,0,,10,,,69,127
13733,note_on,0,0,0,,2,,,74,127
13960,note_off,227,0,0,,2,,,74,127
13973,note_off,13,0,0,,10,,,69,127
13973,note_off,0,0,0,,6,,,66,127
13976,note_on,3,0,0,,2,,,62,127
13976,note_on,0,0,0,,12,,,59,127
13976,note_on,0,0,0,,2,,,74,127
14216,note_off,240,0,0,,12,,,59,127
14216,note_off,0,0,0,,2,,,62,127
14219,note_on,3,0,0,,1,,,61,127
14219,note_on,0,0,0,,4,,,64,127
14459,note_off,240,0,0,,4,,,64,127
14459,note_off,0,0,0,,1,,,61,127
14462,note_on,3,0,0,,6,,,66,127
14462,note_on,0,0,0,,2,,,62,127
14702,note_off,240,0,0,,2,,,62,127
14702,note_off,0,0,0,,6,,,66,127
14705,note_on,3,0,0,,4,,,64,127
14705,note_on,0,0,0,,7,,,67,127
14783,note_off,78,0,0,,2,,,74,127
14786,note_on,3,0,0,,4,,,76,127
14864,note_off,78,0,0,,4,,,76,127
14867,note_on,3,0,0,,6,,,78,127
14945,note_off,78,0,0,,6,,,78,127
14948,note_on,3,0,0,,7,,,79,127
15026,note_off,78,0,0,,7,,,79,127
15029,note_on,3,0,0,,6,,,78,127
15107,note_off,78,0,0,,6,,,78,127
15110,note_on,3,0,0,,4,,,76,127
15188,note_off,78,0,0,,4,,,76,127
15188,note_off,0,0,0,,7,,,67,127
15188,note_off,0,0,0,,4,,,64,127
15191,note_on,3,0,0,,2,,,62,127
15191,note_on,0,0,0,,7,,,67,127
15191,note_on,0,0,0,,2,,,74,127
15269,note_off,78,0,0,,2,,,74,127
15272,note_on,3,0,0,,1,,,73,127
15350,note_off,78,0,0,,1,,,73,127
15353,note_on,3,0,0,,12,,,71,127
15431,note_off,78,0,0,,12,,,71,127
15431,note_off,0,0,0,,7,,,67,127
15431,note_off,0,0,0,,2,,,62,127
15434,note_on,3,0,0,,1,,,61,127
15434,note_on,0,0,0,,7,,,67,127
15434,note_on,0,0,0,,10,,,69,127
15515,note_on,81,0,0,,7,,,79,127
15593,note_off,78,0,0,,7,,,79,127
15596,note_on,3,0,0,,6,,,78,127
15674,note_off,78,0,0,,6,,,78,127
15674,note_off,0,0,0,,10,,,69,127
15677,note_on,3,0,0,,4,,,76,127
15755,note_off,78,0,0,,4,,,76,127
15758,note_on,3,0,0,,2,,,74,127
15836,note_off,78,0,0,,2,,,74,127
15839,note_on,3,0,0,,1,,,73,127
15917,note_off,78,0,0,,1,,,73,127
15917,note_off,0,0,0,,7,,,67,127
15917,note_off,0,0,0,,1,,,61,127
15920,note_on,3,0,0,,2,,,62,127
15920,note_on,0,0,0,,7,,,67,127
15920,note_on,0,0,0,,12,,,71,127
15998,note_off,78,0,0,,12,,,71,127
16001,note_on,3,0,0,,10,,,69,127
16079,note_off,78,0,0,,10,,,69,127
16082,note_on,3,0,0,,12,,,71,127
16160,note_off,78,0,0,,12,,,71,127
16160,note_off,0,0,0,,7,,,67,127
16160,note_off,0,0,0,,2,,,62,127
16163,note_on,3,0,0,,1,,,61,127
16163,note_on,0,0,0,,7,,,67,127
16163,note_on,0,0,0,,10,,,69,127
16244,note_on,81,0,0,,7,,,79,127
16322,note_off,78,0,0,,7,,,79,127
16325,note_on,3,0,0,,6,,,78,127
16403,note_off,78,0,0,,6,,,78,127
16403,note_off,0,0,0,,10,,,69,127
16406,note_on,3,0,0,,4,,,76,127
16484,note_off,78,0,0,,4,,,76,127
16487,note_on,3,0,0,,2,,,74,127
16565,note_off,78,0,0,,2,,,74,127
16568,note_on,3,0,0,,1,,,73,127
16646,note_off,78,0,0,,1,,,73,127
16646,note_off,0,0,0,,7,,,67,127
16646,note_off,0,0,0,,1,,,61,127
16649,note_on,3,0,0,,7,,,67,127
16649,note_on,0,0,0,,2,,,62,127
16649,note_on,0,0,0,,12,,,71,127
16727,note_off,78,0,0,,12,,,71,127
16730,note_on,3,0,0,,10,,,69,127
16808,note_off,78,0,0,,10,,,69,127
16811,note_on,3,0,0,,12,,,71,127
16889,note_off,78,0,0,,12,,,71,127
16889,note_off,0,0,0,,2,,,62,127
16889,note_off,0,0,0,,7,,,67,127
16892,note_on,3,0,0,,7,,,67,127
16892,note_on,0,0,0,,1,,,61,127
16892,note_on,0,0,0,,10,,,69,127
16973,note_on,81,0,0,,4,,,76,127
17051,note_off,78,0,0,,4,,,76,127
17054,note_off,3,0,0,,10,,,69,127
17054,note_on,0,0,0,,2,,,74,127
17132,note_off,78,0,0,,2,,,74,127
17135,note_on,3,0,0,,1,,,73,127
17213,note_off,78,0,0,,1,,,73,127
17216,note_on,3,0,0,,12,,,71,127
17294,note_off,78,0,0,,12,,,71,127
17297,note_on,3,0,0,,10,,,69,127
17375,note_off,78,0,0,,10,,,69,127
17375,note_off,0,0,0,,1,,,61,127
17375,note_off,0,0,0,,7,,,67,127
17378,note_on,3,0,0,,1,,,61,127
17378,note_on,0,0,0,,4,,,64,127
17378,note_on,0,0,0,,7,,,67,127
17456,note_off,78,0,0,,7,,,67,127
17459,note_on,3,0,0,,6,,,66,127
17537,note_off,78,0,0,,6,,,66,127
17540,note_on,3,0,0,,7,,,67,127
17618,note_off,78,0,0,,7,,,67,127
17618,note_off,0,0,0,,4,,,64,127
17618,note_off,0,0,0,,1,,,61,127
17621,note_on,3,0,0,,2,,,62,127
17621,note_on,0,0,0,,6,,,66,127
17699,note_off,78,0,0,,6,,,66,127
17702,note_on,3,0,0,,4,,,76,127
17780,note_off,78,0,0,,4,,,76,127
17783,note_on,3,0,0,,2,,,74,127
17861,note_off,78,0,0,,2,,,74,127
17864,note_on,3,0,0,,1,,,73,127
17942,note_off,78,0,0,,1,,,73,127
17945,note_on,3,0,0,,12,,,71,127
18023,note_off,78,0,0,,12,,,71,127
18026,note_on,3,0,0,,10,,,69,127
18104,note_off,78,0,0,,10,,,69,127
18104,note_off,0,0,0,,2,,,62,127
18107,note_on,3,0,0,,4,,,64,127
18107,note_on,0,0,0,,1,,,61,127
18107,note_on,0,0,0,,7,,,67,127
18185,note_off,78,0,0,,7,,,67,127
18188,note_on,3,0,0,,6,,,66,127
18266,note_off,78,0,0,,6,,,66,127
18269,note_on,3,0,0,,7,,,67,127
18347,note_off,78,0,0,,7,,,67,127
18347,note_off,0,0,0,,1,,,61,127
18347,note_off,0,0,0,,4,,,64,127
18350,note_on,3,0,0,,2,,,62,127
18350,note_on,0,0,0,,6,,,66,127
18428,note_off,78,0,0,,6,,,66,127
18431,note_on,3,0,0,,1,,,73,127
18509,note_off,78,0,0,,1,,,73,127
18512,note_on,3,0,0,,12,,,71,127
18590,note_off,78,0,0,,12,,,71,127
18593,note_on,3,0,0,,10,,,69,127
18671,note_off,78,0,0,,10,,,69,127
18674,note_on,3,0,0,,7,,,67,127
18752,note_off,78,0,0,,7,,,67,127
18755,note_on,3,0,0,,6,,,66,127
18833,note_off,78,0,0,,6,,,66,127
18833,note_off,0,0,0,,2,,,62,127
18836,note_on,3,0,0,,10,,,57,127
18836,note_on,0,0,0,,1,,,61,127
18836,note_on,0,0,0,,4,,,64,127
18914,note_off,78,0,0,,4,,,64,127
18917,note_on,3,0,0,,2,,,62,127
18995,note_off,78,0,0,,2,,,62,127
18998,note_on,3,0,0,,4,,,64,127
19076,note_off,78,0,0,,4,,,64,127
19076,note_off,0,0,0,,1,,,61,127
19076,note_off,0,0,0,,10,,,57,127
19079,note_on,3,0,0,,12,,,59,127
19079,note_on,0,0,0,,2,,,62,127
19157,note_off,78,0,0,,2,,,62,127
19160,note_on,3,0,0,,1,,,73,127
19238,note_off,78,0,0,,1,,,73,127
19241,note_on,3,0,0,,12,,,71,127
19319,note_off,78,0,0,,12,,,71,127
19322,note_on,3,0,0,,10,,,69,127
19400,note_off,78,0,0,,10,,,69,127
19403,note_on,3,0,0,,7,,,67,127
19481,note_off,78,0,0,,7,,,67,127
19484,note_on,3,0,0,,6,,,66,127
19562,note_off,78,0,0,,6,,,66,127
19562,note_off,0,0,0,,12,,,59,127
19565,note_on,3,0,0,,1,,,61,127
19565,note_on,0,0,0,,10,,,57,127
19565,note_on,0,0,0,,4,,,64,127
19643,note_off,78,0,0,,4,,,64,127
19646,note_on,3,0,0,,2,,,62,127
19724,note_off,78,0,0,,2,,,62,127
19727,note_on,3,0,0,,4,,,64,127
19805,note_off,78,0,0,,4,,,64,127
19805,note_off,0,0,0,,10,,,57,127
19805,note_off,0,0,0,,1,,,61,127
19808,note_on,3,0,0,,12,,,59,127
19808,note_on,0,0,0,,2,,,62,127
19886,note_off,78,0,0,,2,,,62,127
19889,note_on,3,0,0,,1,,,61,127
19967,note_off,78,0,0,,1,,,61,127
19970,note_on,3,0,0,,2,,,62,127
20048,note_off,78,0,0,,2,,,62,127
20048,note_off,0,0,0,,12,,,59,127
20051,note_on,3,0,0,,1,,,61,127
20051,note_on,0,0,0,,4,,,64,127
20129,note_off,78,0,0,,4,,,64,127
20132,note_on,3,0,0,,2,,,62,127
20210,note_off,78,0,0,,2,,,62,127
20213,note_on,3,0,0,,4,,,64,127
20291,note_off,78,0,0,,4,,,64,127
20291,note_off,0,0,0,,1,,,61,127
20294,note_on,3,0,0,,2,,,62,127
20294,note_on,0,0,0,,6,,,66,127
20372,note_off,78,0,0,,6,,,66,127
20375,note_on,3,0,0,,4,,,64,127
20453,note_off,78,0,0,,4,,,64,127
20456,note_on,3,0,0,,6,,,66,127
20534,note_off,78,0,0,,6,,,66,127
20534,note_off,0,0,0,,2,,,62,127
20537,note_on,3,0,0,,12,,,59,127
20537,note_on,0,0,0,,2,,,62,127
20537,note_on,0,0,0,,8,,,68,127
20615,note_off,78,0,0,,8,,,68,127
20618,note_on,3,0,0,,6,,,66,127
20696,note_off,78,0,0,,6,,,66,127
20699,note_on,3,0,0,,8,,,68,127
20777,note_off,78,0,0,,8,,,68,127
20777,note_off,0,0,0,,2,,,62,127
20777,note_off,0,0,0,,12,,,59,127
20780,note_on,3,0,0,,4,,,64,127
20780,note_on,0,0,0,,1,,,61,127
20780,note_on,0,0,0,,10,,,69,127
20858,note_off,78,0,0,,10,,,69,127
20861,note_on,3,0,0,,8,,,68,127
20939,note_off,78,0,0,,8,,,68,127
20942,note_on,3,0,0,,10,,,69,127
21020,note_off,78,0,0,,10,,,69,127
21020,note_off,0,0,0,,1,,,61,127
21020,note_off,0,0,0,,4,,,64,127
21023,note_on,3,0,0,,8,,,56,127
21023,note_on,0,0,0,,12,,,71,127
21101,note_off,78,0,0,,12,,,71,127
21104,note_on,3,0,0,,10,,,69,127
21182,note_off,78,0,0,,10,,,69,127
21185,note_on,3,0,0,,12,,,71,127
21263,note_off,78,0,0,,12,,,71,127
21263,note_off,0,0,0,,8,,,56,127
21266,note_on,3,0,0,,10,,,57,127
21266,note_on,0,0,0,,4,,,64,127
21266,note_on,0,0,0,,1,,,73,127
21344,note_off,78,0,0,,1,,,73,127
21347,note_on,3,0,0,,12,,,71,127
21425,note_off,78,0,0,,12,,,71,127
21428,note_on,3,0,0,,1,,,73,127
21506,note_off,78,0,0,,1,,,73,127
21506,note_off,0,0,0,,4,,,64,127
21506,note_off,0,0,0,,10,,,57,127
21509,note_on,3,0,0,,2,,,62,127
21509,note_on,0,0,0,,6,,,54,127
21509,note_on,0,0,0,,2,,,74,127
21587,note_off,78,0,0,,2,,,74,127
21590,note_on,3,0,0,,1,,,73,127
21668,note_off,78,0,0,,1,,,73,127
21671,note_on,3,0,0,,2,,,74,127
21749,note_off,78,0,0,,2,,,74,127
21749,note_off,0,0,0,,6,,,54,127
21749,note_off,0,0,0,,2,,,62,127
21752,note_on,3,0,0,,1,,,49,127
21752,note_on,0,0,0,,10,,,57,127
21752,note_on,0,0,0,,4,,,76,127
21830,note_off,78,0,0,,4,,,76,127
21833,note_on,3,0,0,,2,,,74,127
21911,note_off,78,0,0,,2,,,74,127
21914,note_on,3,0,0,,4,,,76,127
21992,note_off,78,0,0,,4,,,76,127
21992,note_off,0,0,0,,10,,,57,127
21992,note_off,0,0,0,,1,,,49,127
21995,note_on,3,0,0,,2,,,50,127
21995,note_on,0,0,0,,10,,,57,127
21995,note_on,0,0,0,,6,,,78,127
22073,note_off,78,0,0,,6,,,78,127
22076,note_on,3,0,0,,4,,,76,127
22154,note_off,78,0,0,,4,,,76,127
22157,note_on,3,0,0,,6,,,78,127
22235,note_off,78,0,0,,6,,,78,127
22235,note_off,0,0,0,,10,,,57,127
22235,note_off,0,0,0,,2,,,50,127
22238,note_on,3,0,0,,12,,,59,127
22238,note_on,0,0,0,,12,,,47,127
22238,note_on,0,0,0,,8,,,80,127
22316,note_off,78,0,0,,8,,,80,127
22319,note_on,3,0,0,,6,,,78,127
22397,note_off,78,0,0,,6,,,78,127
22400,note_on,3,0,0,,8,,,80,127
22478,note_off,78,0,0,,8,,,80,127
22478,note_off,0,0,0,,12,,,47,127
22478,note_off,0,0,0,,12,,,59,127
22481,note_on,3,0,0,,10,,,45,127
22481,note_on,0,0,0,,10,,,57,127
22481,note_on,0,0,0,,10,,,81,127
22559,note_off,78,0,0,,10,,,81,127
22562,note_on,3,0,0,,1,,,73,127
22640,note_off,78,0,0,,1,,,73,127
22643,note_on,3,0,0,,10,,,81,127
22721,note_off,78,0,0,,10,,,57,127
22721,note_off,0,0,0,,10,,,45,127
22724,note_on,3,0,0,,4,,,40,127
22724,note_on,0,0,0,,12,,,71,127
23085,note_off,361,0,0,,12,,,71,127
23086,note_off,1,0,0,,10,,,81,127
23087,note_on,1,0,0,,8,,,80,127
23145,note_off,58,0,0,,8,,,80,127
23148,note_on,3,0,0,,6,,,78,127
23206,note_off,58,0,0,,6,,,78,127
23209,note_on,3,0,0,,4,,,76,127
23573,note_off,364,0,0,,4,,,76,127
23693,note_off,120,0,0,,4,,,40,127
24179,note_on,486,0,0,,12,,,83,127
24257,note_off,78,0,0,,12,,,83,127
24260,note_on,3,0,0,,8,,,80,127
24338,note_off,78,0,0,,8,,,80,127
24341,note_on,3,0,0,,4,,,76,127
24419,note_off,78,0,0,,4,,,76,127
24422,note_on,3,0,0,,12,,,71,127
24500,note_off,78,0,0,,12,,,71,127
24503,note_on,3,0,0,,8,,,68,127
24581,note_off,78,0,0,,8,,,68,127
24584,note_on,3,0,0,,12,,,71,127
24662,note_off,78,0,0,,12,,,71,127
24665,note_on,3,0,0,,4,,,52,127
24665,note_on,0,0,0,,4,,,64,127
24665,note_on,0,0,0,,12,,,83,127
24905,note_off,240,0,0,,4,,,52,127
24908,note_on,3,0,0,,5,,,53,127
24908,note_on,0,0,0,,0,,,84,127
25149,note_off,241,0,0,,12,,,83,127
25149,note_off,0,0,0,,4,,,64,127
25150,note_on,1,0,0,,2,,,62,127
25150,note_on,0,0,0,,0,,,72,127
25390,note_off,240,0,0,,0,,,72,127
25393,note_on,3,0,0,,2,,,74,127
25633,note_off,240,0,0,,2,,,74,127
25633,note_off,0,0,0,,2,,,62,127
25634,note_off,1,0,0,,0,,,84,127
25634,note_off,0,0,0,,5,,,53,127
25635,note_on,1,0,0,,4,,,52,127
25635,note_on,0,0,0,,12,,,83,127
25713,note_off,78,0,0,,12,,,83,127
25716,note_on,3,0,0,,8,,,80,127
25794,note_off,78,0,0,,8,,,80,127
25797,note_on,3,0,0,,4,,,76,127
25875,note_off,78,0,0,,4,,,76,127
25878,note_on,3,0,0,,12,,,71,127
25956,note_off,78,0,0,,12,,,71,127
25959,note_on,3,0,0,,8,,,68,127
26037,note_off,78,0,0,,8,,,68,127
26040,note_on,3,0,0,,12,,,71,127
26118,note_off,78,0,0,,12,,,71,127
26118,note_off,0,0,0,,4,,,52,127
26121,note_on,3,0,0,,4,,,64,127
26121,note_on,0,0,0,,12,,,83,127
26364,note_on,243,0,0,,5,,,53,127
26364,note_on,0,0,0,,0,,,84,127
26605,note_off,241,0,0,,12,,,83,127
26605,note_off,0,0,0,,4,,,64,127
26606,note_on,1,0,0,,2,,,62,127
26606,note_on,0,0,0,,0,,,72,127
26846,note_off,240,0,0,,0,,,72,127
26849,note_on,3,0,0,,2,,,74,127
27089,note_off,240,0,0,,2,,,74,127
27089,note_off,0,0,0,,2,,,62,127
27090,note_off,1,0,0,,0,,,84,127
27090,note_off,0,0,0,,5,,,53,127
27091,note_on,1,0,0,,4,,,52,127
27091,note_on,0,0,0,,12,,,83,127
27169,note_off,78,0,0,,12,,,83,127
27172,note_on,3,0,0,,8,,,80,127
27250,note_off,78,0,0,,8,,,80,127
27253,note_on,3,0,0,,4,,,76,127
27331,note_off,78,0,0,,4,,,76,127
27334,note_on,3,0,0,,12,,,71,127
27412,note_off,78,0,0,,12,,,71,127
27415,note_on,3,0,0,,8,,,68,127
27493,note_off,78,0,0,,8,,,68,127
27496,note_on,3,0,0,,12,,,71,127
27574,note_off,78,0,0,,12,,,71,127
27574,note_off,0,0,0,,4,,,52,127
27577,note_on,3,0,0,,4,,,64,127
27577,note_on,0,0,0,,2,,,86,127
27817,note_off,240,0,0,,2,,,86,127
27817,note_off,0,0,0,,4,,,64,127
27820,note_on,3,0,0,,10,,,57,127
27820,note_on,0,0,0,,1,,,85,127
27898,note_off,78,0,0,,1,,,85,127
27901,note_on,3,0,0,,12,,,83,127
27979,note_off,78,0,0,,12,,,83,127
27982,note_on,3,0,0,,10,,,81,127
28060,note_off,78,0,0,,10,,,81,127
28060,note_off,0,0,0,,10,,,57,127
28063,note_on,3,0,0,,2,,,62,127
28063,note_on,0,0,0,,12,,,59,127
28063,note_on,0,0,0,,8,,,80,127
28141,note_off,78,0,0,,8,,,80,127
28144,note_on,3,0,0,,10,,,81,127
28222,note_off,78,0,0,,10,,,81,127
28225,note_on,3,0,0,,12,,,83,127
28303,note_off,78,0,0,,12,,,83,127
28303,note_off,0,0,0,,12,,,59,127
28303,note_off,0,0,0,,2,,,62,127
28306,note_on,3,0,0,,1,,,61,127
28306,note_on,0,0,0,,4,,,64,127
28306,note_on,0,0,0,,4,,,76,127
28384,note_off,78,0,0,,4,,,76,127
28387,note_on,3,0,0,,10,,,81,127
28465,note_off,78,0,0,,10,,,81,127
28468,note_on,3,0,0,,8,,,80,127
28546,note_off,78,0,0,,8,,,80,127
28546,note_off,0,0,0,,4,,,64,127
28546,note_off,0,0,0,,1,,,61,127
28549,note_on,3,0,0,,6,,,66,127
28549,note_on,0,0,0,,2,,,62,127
28549,note_on,0,0,0,,6,,,78,127
28627,note_off,78,0,0,,6,,,78,127
28630,note_on,3,0,0,,4,,,76,127
28708,note_off,78,0,0,,4,,,76,127
28711,note_on,3,0,0,,2,,,74,127
28789,note_off,78,0,0,,2,,,74,127
28789,note_off,0,0,0,,2,,,62,127
28789,note_off,0,0,0,,6,,,66,127
28792,note_on,3,0,0,,4,,,64,127
28792,note_on,0,0,0,,1,,,73,127
28870,note_off,78,0,0,,1,,,73,127
28873,note_on,3,0,0,,12,,,71,127
28951,note_off,78,0,0,,12,,,71,127
28954,note_on,3,0,0,,10,,,69,127
29032,note_off,78,0,0,,10,,,69,127
29035,note_on,3,0,0,,4,,,52,127
29035,note_on,0,0,0,,8,,,68,127
29113,note_off,78,0,0,,8,,,68,127
29116,note_on,3,0,0,,10,,,69,127
29194,note_off,78,0,0,,10,,,69,127
29197,note_on,3,0,0,,12,,,71,127
29273,note_off,76,0,0,,4,,,64,127
29276,note_off,3,0,0,,12,,,71,127
29276,note_off,0,0,0,,4,,,52,127
29279,note_on,3,0,0,,10,,,45,127
29279,note_on,0,0,0,,10,,,57,127
29357,note_off,78,0,0,,10,,,57,127
29360,note_on,3,0,0,,1,,,61,127
29438,note_off,78,0,0,,1,,,61,127
29441,note_on,3,0,0,,4,,,64,127
29519,note_off,78,0,0,,4,,,64,127
29522,note_on,3,0,0,,10,,,69,127
29600,note_off,78,0,0,,10,,,69,127
29603,note_on,3,0,0,,1,,,73,127
29681,note_off,78,0,0,,1,,,73,127
29684,note_on,3,0,0,,4,,,76,127
29762,note_off,78,0,0,,4,,,76,127
29762,note_off,0,0,0,,10,,,45,127
29765,note_on,3,0,0,,1,,,49,127
29765,note_on,0,0,0,,10,,,57,127
29765,note_on,0,0,0,,10,,,81,127
30005,note_off,240,0,0,,10,,,57,127
30005,note_off,0,0,0,,1,,,49,127
30008,note_on,3,0,0,,2,,,62,127
30008,note_on,0,0,0,,2,,,50,127
30086,note_off,78,0,0,,10,,,81,127
30089,note_on,3,0,0,,6,,,78,127
30167,note_off,78,0,0,,6,,,78,127
30170,note_on,3,0,0,,2,,,74,127
30248,note_off,78,0,0,,2,,,74,127
30248,note_off,0,0,0,,2,,,50,127
30248,note_off,0,0,0,,2,,,62,127
30251,note_on,3,0,0,,1,,,61,127
30251,note_on,0,0,0,,4,,,52,127
30251,note_on,0,0,0,,10,,,69,127
30491,note_off,240,0,0,,10,,,69,127
30491,note_off,0,0,0,,1,,,61,127
30494,note_on,3,0,0,,12,,,59,127
30494,note_on,0,0,0,,8,,,68,127
30734,note_off,240,0,0,,8,,,68,127
30734,note_off,0,0,0,,12,,,59,127
30735,note_off,1,0,0,,4,,,52,127
30736,note_on,1,0,0,,10,,,45,127
30736,note_on,0,0,0,,10,,,57,127
30814,note_off,78,0,0,,10,,,57,127
30817,note_on,3,0,0,,1,,,61,127
30895,note_off,78,0,0,,1,,,61,127
30898,note_on,3,0,0,,4,,,64,127
30976,note_off,78,0,0,,4,,,64,127
30979,note_on,3,0,0,,10,,,69,127
31057,note_off,78,0,0,,10,,,69,127
31060,note_on,3,0,0,,1,,,73,127
31138,note_off,78,0,0,,1,,,73,127
31141,note_on,3,0,0,,4,,,76,127
31219,note_off,78,0,0,,4,,,76,127
31219,note_off,0,0,0,,10,,,45,127
31222,note_on,3,0,0,,10,,,57,127
31222,note_on,0,0,0,,1,,,49,127
31222,note_on,0,0,0,,10,,,81,127
31462,note_off,240,0,0,,1,,,49,127
31462,note_off,0,0,0,,10,,,57,127
31465,note_on,3,0,0,,2,,,50,127
31465,note_on,0,0,0,,2,,,62,127
31543,note_off,78,0,0,,10,,,81,127
31546,note_on,3,0,0,,6,,,78,127
31624,note_off,78,0,0,,6,,,78,127
31627,note_on,3,0,0,,2,,,74,127
31705,note_off,78,0,0,,2,,,74,127
31705,note_off,0,0,0,,2,,,62,127
31705,note_off,0,0,0,,2,,,50,127
31708,note_on,3,0,0,,1,,,61,127
31708,note_on,0,0,0,,4,,,52,127
31708,note_on,0,0,0,,10,,,69,127
31948,note_off,240,0,0,,10,,,69,127
31948,note_off,0,0,0,,1,,,61,127
31951,note_on,3,0,0,,12,,,59,127
31951,note_on,0,0,0,,8,,,68,127
32191,note_off,240,0,0,,8,,,68,127
32191,note_off,0,0,0,,12,,,59,127
32192,note_off,1,0,0,,4,,,52,127
32193,note_on,1,0,0,,10,,,57,127
32193,note_on,0,0,0,,6,,,54,127
32193,note_on,0,0,0,,10,,,69,127
32271,note_off,78,0,0,,10,,,69,127
32274,note_on,3,0,0,,2,,,74,127
32352,note_off,78,0,0,,2,,,74,127
32355,note_on,3,0,0,,1,,,73,127
32433,note_off,78,0,0,,1,,,73,127
32433,note_off,0,0,0,,6,,,54,127
32433,note_off,0,0,0,,10,,,57,127
32436,note_on,3,0,0,,12,,,59,127
32436,note_on,0,0,0,,8,,,56,127
32436,note_on,0,0,0,,12,,,71,127
32514,note_off,78,0,0,,12,,,71,127
32517,note_on,3,0,0,,4,,,76,127
32595,note_off,78,0,0,,4,,,76,127
32598,note_on,3,0,0,,2,,,74,127
32676,note_off,78,0,0,,2,,,74,127
32676,note_off,0,0,0,,8,,,56,127
32676,note_off,0,0,0,,12,,,59,127
32679,note_on,3,0,0,,10,,,57,127
32679,note_on,0,0,0,,1,,,61,127
32679,note_on,0,0,0,,1,,,73,127
32757,note_off,78,0,0,,1,,,73,127
32760,note_on,3,0,0,,6,,,78,127
32838,note_off,78,0,0,,6,,,78,127
32841,note_on,3,0,0,,4,,,76,127
32919,note_off,78,0,0,,4,,,76,127
32919,note_off,0,0,0,,1,,,61,127
32919,note_off,0,0,0,,10,,,57,127
32922,note_on,3,0,0,,2,,,50,127
32922,note_on,0,0,0,,2,,,62,127
32922,note_on,0,0,0,,2,,,74,127
33000,note_off,78,0,0,,2,,,74,127
33003,note_on,3,0,0,,1,,,73,127
33081,note_off,78,0,0,,1,,,73,127
33084,note_on,3,0,0,,12,,,71,127
33162,note_off,78,0,0,,12,,,71,127
33162,note_off,0,0,0,,2,,,62,127
33162,note_off,0,0,0,,2,,,50,127
33165,note_on,3,0,0,,1,,,61,127
33165,note_on,0,0,0,,4,,,52,127
33165,note_on,0,0,0,,10,,,69,127
33405,note_off,240,0,0,,10,,,69,127
33405,note_off,0,0,0,,1,,,61,127
33408,note_on,3,0,0,,12,,,59,127
33408,note_on,0,0,0,,8,,,68,127
33623,note_off,215,0,0,,8,,,68,127
33646,note_off,23,0,0,,4,,,52,127
33649,note_off,3,0,0,,12,,,59,127
33652,note_on,3,0,0,,10,,,57,127
33652,note_on,0,0,0,,6,,,54,127
33652,note_on,0,0,0,,10,,,69,127
33730,note_off,78,0,0,,10,,,69,127
33733,note_on,3,0,0,,2,,,74,127
33811,note_off,78,0,0,,2,,,74,127
33814,note_on,3,0,0,,1,,,73,127
33892,note_off,78,0,0,,1,,,73,127
33892,note_off,0,0,0,,6,,,54,127
33892,note_off,0,0,0,,10,,,57,127
33895,note_on,3,0,0,,8,,,56,127
33895,note_on,0,0,0,,12,,,59,127
33895,note_on,0,0,0,,12,,,71,127
33973,note_off,78,0,0,,12,,,71,127
33976,note_on,3,0,0,,4,,,76,127
34054,note_off,78,0,0,,4,,,76,127
34057,note_on,3,0,0,,2,,,74,127
34135,note_off,78,0,0,,2,,,74,127
34135,note_off,0,0,0,,12,,,59,127
34135,note_off,0,0,0,,8,,,56,127
34138,note_on,3,0,0,,1,,,61,127
34138,note_on,0,0,0,,10,,,57,127
34138,note_on,0,0,0,,1,,,73,127
34216,note_off,78,0,0,,1,,,73,127
34219,note_on,3,0,0,,6,,,78,127
34297,note_off,78,0,0,,6,,,78,127
34300,note_on,3,0,0,,4,,,76,127
34378,note_off,78,0,0,,4,,,76,127
34378,note_off,0,0,0,,10,,,57,127
34378,note_off,0,0,0,,1,,,61,127
34381,note_on,3,0,0,,2,,,62,127
34381,note_on,0,0,0,,2,,,50,127
34381,note_on,0,0,0,,2,,,74,127
34459,note_off,78,0,0,,2,,,74,127
34462,note_on,3,0,0,,1,,,73,127
34540,note_off,78,0,0,,1,,,73,127
34543,note_on,3,0,0,,12,,,71,127
34621,note_off,78,0,0,,12,,,71,127
34621,note_off,0,0,0,,2,,,50,127
34621,note_off,0,0,0,,2,,,62,127
34624,note_on,3,0,0,,1,,,61,127
34624,note_on,0,0,0,,4,,,52,127
34624,note_on,0,0,0,,10,,,69,127
34864,note_off,240,0,0,,10,,,69,127
34864,note_off,0,0,0,,1,,,61,127
34867,note_on,3,0,0,,12,,,59,127
34867,note_on,0,0,0,,8,,,68,127
35107,note_off,240,0,0,,8,,,68,127
35107,note_off,0,0,0,,12,,,59,127
35108,note_off,1,0,0,,4,,,52,127
35109,note_on,1,0,0,,10,,,45,127
35109,note_on,0,0,0,,8,,,68,127
35592,note_off,483,0,0,,8,,,68,127
35595,note_on,3,0,0,,10,,,69,127
35777,note_off,182,0,0,,10,,,69,127
35835,note_off,58,0,0,,10,,,45,127
35838,note_on,3,0,0,,10,,,45,127
35838,note_on,0,0,0,,6,,,78,127
35896,note_off,58,0,0,,6,,,78,127
35899,note_on,3,0,0,,4,,,76,127
35957,note_off,58,0,0,,4,,,76,127
35960,note_on,3,0,0,,6,,,78,127
36018,note_off,58,0,0,,6,,,78,127
36021,note_on,3,0,0,,4,,,76,127
36079,note_off,58,0,0,,10,,,45,127
36082,note_on,3,0,0,,1,,,49,127
36322,note_off,240,0,0,,1,,,49,127
36325,note_on,3,0,0,,4,,,52,127
36565,note_off,240,0,0,,4,,,52,127
36565,note_off,0,0,0,,4,,,76,127
36568,note_on,3,0,0,,10,,,57,127
36568,note_on,0,0,0,,6,,,78,127
36808,note_off,240,0,0,,6,,,78,127
36808,note_off,0,0,0,,10,,,57,127
36811,note_on,3,0,0,,1,,,61,127
36811,note_on,0,0,0,,4,,,76,127
37051,note_off,240,0,0,,1,,,61,127
37054,note_on,3,0,0,,4,,,64,127
37294,note_off,240,0,0,,4,,,64,127
37294,note_off,0,0,0,,4,,,76,127
37297,note_on,3,0,0,,2,,,50,127
37297,note_on,0,0,0,,5,,,77,127
37537,note_off,240,0,0,,5,,,77,127
37540,note_on,3,0,0,,6,,,78,127
37780,note_off,240,0,0,,2,,,50,127
37783,note_on,3,0,0,,2,,,62,127
37904,note_off,121,0,0,,6,,,78,127
38023,note_off,119,0,0,,2,,,62,127
38026,note_on,3,0,0,,2,,,50,127
38026,note_on,0,0,0,,7,,,79,127
38084,note_off,58,0,0,,7,,,79,127
38087,note_on,3,0,0,,6,,,78,127
38145,note_off,58,0,0,,6,,,78,127
38148,note_on,3,0,0,,7,,,79,127
38206,note_off,58,0,0,,7,,,79,127
38209,note_on,3,0,0,,6,,,78,127
38267,note_off,58,0,0,,2,,,50,127
38270,note_on,3,0,0,,6,,,54,127
38510,note_off,240,0,0,,6,,,54,127
38513,note_on,3,0,0,,10,,,57,127
38753,note_off,240,0,0,,10,,,57,127
38753,note_off,0,0,0,,6,,,78,127
38756,note_on,3,0,0,,0,,,60,127
38756,note_on,0,0,0,,7,,,79,127
38996,note_off,240,0,0,,7,,,79,127
38996,note_off,0,0,0,,0,,,60,127
38999,note_on,3,0,0,,10,,,69,127
38999,note_on,0,0,0,,6,,,78,127
39239,note_off,240,0,0,,10,,,69,127
39242,note_on,3,0,0,,0,,,60,127
39482,note_off,240,0,0,,0,,,60,127
39482,note_off,0,0,0,,6,,,78,127
39485,note_on,3,0,0,,12,,,59,127
39485,note_on,0,0,0,,6,,,78,127
39725,note_off,240,0,0,,6,,,78,127
39728,note_on,3,0,0,,7,,,79,127
39968,note_off,240,0,0,,12,,,59,127
39971,note_on,3,0,0,,7,,,67,127
40092,note_off,121,0,0,,7,,,79,127
40211,note_off,119,0,0,,7,,,67,127
40214,note_on,3,0,0,,4,,,52,127
40214,note_on,0,0,0,,10,,,81,127
40272,note_off,58,0,0,,10,,,81,127
40275,note_on,3,0,0,,8,,,80,127
40333,note_off,58,0,0,,8,,,80,127
40336,note_on,3,0,0,,10,,,81,127
40394,note_off,58,0,0,,10,,,81,127
40397,note_on,3,0,0,,8,,,80,127
40455,note_off,58,0,0,,4,,,52,127
40458,note_on,3,0,0,,8,,,56,127
40698,note_off,240,0,0,,8,,,56,127
40701,note_on,3,0,0,,12,,,59,127
40941,note_off,240,0,0,,12,,,59,127
40941,note_off,0,0,0,,8,,,80,127
40944,note_on,3,0,0,,2,,,62,127
40944,note_on,0,0,0,,10,,,81,127
41184,note_off,240,0,0,,10,,,81,127
41184,note_off,0,0,0,,2,,,62,127
41187,note_on,3,0,0,,12,,,71,127
41187,note_on,0,0,0,,8,,,80,127
41427,note_off,240,0,0,,12,,,71,127
41430,note_on,3,0,0,,2,,,62,127
41670,note_off,240,0,0,,2,,,62,127
41670,note_off,0,0,0,,8,,,80,127
41673,note_on,3,0,0,,1,,,61,127
41673,note_on,0,0,0,,8,,,80,127
41913,note_off,240,0,0,,8,,,80,127
41916,note_on,3,0,0,,10,,,81,127
42159,note_on,243,0,0,,10,,,69,127
42343,note_off,184,0,0,,1,,,61,127
42399,note_off,56,0,0,,10,,,69,127
42399,note_off,0,0,0,,10,,,81,127
42402,note_on,3,0,0,,1,,,73,127
42402,note_on,0,0,0,,10,,,69,127
42402,note_on,0,0,0,,1,,,85,127
42642,note_off,240,0,0,,10,,,69,127
42642,note_off,0,0,0,,1,,,73,127
42645,note_on,3,0,0,,12,,,71,127
42645,note_on,0,0,0,,2,,,74,127
42885,note_off,240,0,0,,2,,,74,127
42885,note_off,0,0,0,,12,,,71,127
42888,note_on,3,0,0,,1,,,73,127
42888,note_on,0,0,0,,4,,,76,127
43128,note_off,240,0,0,,4,,,76,127
43128,note_off,0,0,0,,1,,,73,127
43131,note_on,3,0,0,,2,,,74,127
43131,note_on,0,0,0,,6,,,78,127
43209,note_off,78,0,0,,1,,,85,127
43212,note_on,3,0,0,,2,,,86,127
43290,note_off,78,0,0,,2,,,86,127
43293,note_on,3,0,0,,1,,,85,127
43371,note_off,78,0,0,,1,,,85,127
43374,note_on,3,0,0,,12,,,83,127
43452,note_off,78,0,0,,12,,,83,127
43455,note_on,3,0,0,,10,,,81,127
43533,note_off,78,0,0,,10,,,81,127
43536,note_on,3,0,0,,8,,,80,127
43614,note_off,78,0,0,,8,,,80,127
43615,note_off,1,0,0,,6,,,78,127
43616,note_on,1,0,0,,6,,,78,127
43694,note_off,78,0,0,,6,,,78,127
43697,note_on,3,0,0,,4,,,76,127
43775,note_off,78,0,0,,4,,,76,127
43776,note_off,1,0,0,,2,,,74,127
43777,note_on,1,0,0,,2,,,74,127
43855,note_off,78,0,0,,2,,,74,127
43858,note_on,3,0,0,,10,,,69,127
43858,note_on,0,0,0,,1,,,73,127
43858,note_on,0,0,0,,1,,,85,127
44098,note_off,240,0,0,,1,,,73,127
44098,note_off,0,0,0,,10,,,69,127
44101,note_on,3,0,0,,12,,,71,127
44101,note_on,0,0,0,,2,,,74,127
44341,note_off,240,0,0,,2,,,74,127
44341,note_off,0,0,0,,12,,,71,127
44344,note_on,3,0,0,,1,,,73,127
44344,note_on,0,0,0,,4,,,76,127
44584,note_off,240,0,0,,4,,,76,127
44584,note_off,0,0,0,,1,,,73,127
44587,note_on,3,0,0,,2,,,74,127
44587,note_on,0,0,0,,6,,,78,127
44665,note_off,78,0,0,,1,,,85,127
44668,note_on,3,0,0,,2,,,86,127
44746,note_off,78,0,0,,2,,,86,127
44749,note_on,3,0,0,,1,,,85,127
44827,note_off,78,0,0,,1,,,85,127
44830,note_on,3,0,0,,12,,,83,127
44908,note_off,78,0,0,,12,,,83,127
44911,note_on,3,0,0,,10,,,81,127
44989,note_off,78,0,0,,10,,,81,127
44992,note_on,3,0,0,,8,,,80,127
45070,note_off,78,0,0,,8,,,80,127
45071,note_off,1,0,0,,6,,,78,127
45072,note_on,1,0,0,,6,,,78,127
45150,note_off,78,0,0,,6,,,78,127
45153,note_on,3,0,0,,4,,,76,127
45231,note_off,78,0,0,,4,,,76,127
45232,note_off,1,0,0,,2,,,74,127
45233,note_on,1,0,0,,2,,,74,127
45311,note_off,78,0,0,,2,,,74,127
45314,note_on,3,0,0,,6,,,66,127
45314,note_on,0,0,0,,10,,,69,127
45314,note_on,0,0,0,,10,,,81,127
45554,note_off,240,0,0,,10,,,69,127
45554,note_off,0,0,0,,6,,,66,127
45557,note_on,3,0,0,,8,,,68,127
45557,note_on,0,0,0,,12,,,71,127
45797,note_off,240,0,0,,12,,,71,127
45797,note_off,0,0,0,,8,,,68,127
45800,note_on,3,0,0,,1,,,73,127
45800,note_on,0,0,0,,10,,,69,127
46040,note_off,240,0,0,,10,,,69,127
46040,note_off,0,0,0,,1,,,73,127
46043,note_on,3,0,0,,12,,,71,127
46043,note_on,0,0,0,,2,,,74,127
46121,note_off,78,0,0,,10,,,81,127
46124,note_on,3,0,0,,12,,,83,127
46202,note_off,78,0,0,,12,,,83,127
46205,note_on,3,0,0,,10,,,81,127
46283,note_off,78,0,0,,10,,,81,127
46286,note_on,3,0,0,,8,,,80,127
46364,note_off,78,0,0,,8,,,80,127
46367,note_on,3,0,0,,6,,,78,127
46445,note_off,78,0,0,,6,,,78,127
46448,note_on,3,0,0,,4,,,76,127
46526,note_off,78,0,0,,4,,,76,127
46527,note_off,1,0,0,,2,,,74,127
46528,note_on,1,0,0,,2,,,74,127
46606,note_off,78,0,0,,2,,,74,127
46609,note_on,3,0,0,,1,,,73,127
46687,note_off,78,0,0,,1,,,73,127
46688,note_off,1,0,0,,12,,,71,127
46689,note_on,1,0,0,,12,,,71,127
46767,note_off,78,0,0,,12,,,71,127
46770,note_on,3,0,0,,10,,,69,127
46770,note_on,0,0,0,,6,,,66,127
46770,note_on,0,0,0,,10,,,81,127
47010,note_off,240,0,0,,6,,,66,127
47010,note_off,0,0,0,,10,,,69,127
47013,note_on,3,0,0,,12,,,71,127
47013,note_on,0,0,0,,8,,,68,127
47253,note_off,240,0,0,,8,,,68,127
47253,note_off,0,0,0,,12,,,71,127
47256,note_on,3,0,0,,10,,,69,127
47256,note_on,0,0,0,,1,,,73,127
47496,note_off,240,0,0,,1,,,73,127
47496,note_off,0,0,0,,10,,,69,127
47499,note_on,3,0,0,,12,,,71,127
47499,note_on,0,0,0,,2,,,74,127
47577,note_off,78,0,0,,10,,,81,127
47580,note_on,3,0,0,,12,,,83,127
47658,note_off,78,0,0,,12,,,83,127
47661,note_on,3,0,0,,10,,,81,127
47739,note_off,78,0,0,,10,,,81,127
47742,note_on,3,0,0,,8,,,80,127
47820,note_off,78,0,0,,8,,,80,127
47823,note_on,3,0,0,,6,,,78,127
47901,note_off,78,0,0,,6,,,78,127
47904,note_on,3,0,0,,4,,,76,127
47982,note_off,78,0,0,,4,,,76,127
47983,note_off,1,0,0,,2,,,74,127
47984,note_on,1,0,0,,2,,,74,127
48062,note_off,78,0,0,,2,,,74,127
48065,note_on,3,0,0,,1,,,73,127
48143,note_off,78,0,0,,1,,,73,127
48144,note_off,1,0,0,,12,,,71,127
48145,note_on,1,0,0,,12,,,71,127
48223,note_off,78,0,0,,12,,,71,127
48226,note_on,3,0,0,,6,,,66,127
48226,note_on,0,0,0,,2,,,62,127
48226,note_on,0,0,0,,6,,,78,127
48466,note_off,240,0,0,,2,,,62,127
48466,note_off,0,0,0,,6,,,66,127
48469,note_on,3,0,0,,4,,,64,127
48469,note_on,0,0,0,,8,,,68,127
48709,note_off,240,0,0,,8,,,68,127
48709,note_off,0,0,0,,4,,,64,127
48712,note_on,3,0,0,,6,,,66,127
48712,note_on,0,0,0,,10,,,69,127
48952,note_off,240,0,0,,10,,,69,127
48952,note_off,0,0,0,,6,,,66,127
48955,note_on,3,0,0,,12,,,71,127
48955,note_on,0,0,0,,8,,,68,127
49033,note_off,78,0,0,,6,,,78,127
49036,note_on,3,0,0,,8,,,80,127
49114,note_off,78,0,0,,8,,,80,127
49117,note_on,3,0,0,,6,,,78,127
49195,note_off,78,0,0,,6,,,78,127
49198,note_on,3,0,0,,4,,,76,127
49276,note_off,78,0,0,,4,,,76,127
49279,note_on,3,0,0,,2,,,74,127
49357,note_off,78,0,0,,2,,,74,127
49360,note_on,3,0,0,,1,,,73,127
49438,note_off,78,0,0,,1,,,73,127
49439,note_off,1,0,0,,12,,,71,127
49440,note_on,1,0,0,,12,,,71,127
49518,note_off,78,0,0,,12,,,71,127
49521,note_on,3,0,0,,10,,,69,127
49599,note_off,78,0,0,,10,,,69,127
49600,note_off,1,0,0,,8,,,68,127
49601,note_on,1,0,0,,8,,,68,127
49679,note_off,78,0,0,,8,,,68,127
49682,note_on,3,0,0,,2,,,62,127
49682,note_on,0,0,0,,6,,,66,127
49682,note_on,0,0,0,,6,,,78,127
49922,note_off,240,0,0,,6,,,66,127
49922,note_off,0,0,0,,2,,,62,127
49925,note_on,3,0,0,,8,,,68,127
49925,note_on,0,0,0,,4,,,64,127
50165,note_off,240,0,0,,4,,,64,127
50165,note_off,0,0,0,,8,,,68,127
50168,note_on,3,0,0,,10,,,69,127
50168,note_on,0,0,0,,6,,,66,127
50408,note_off,240,0,0,,6,,,66,127
50408,note_off,0,0,0,,10,,,69,127
50408,note_off,0,0,0,,6,,,78,127
50411,note_on,3,0,0,,8,,,68,127
50411,note_on,0,0,0,,12,,,71,127
50489,note_off,78,0,0,,12,,,71,127
50492,note_on,3,0,0,,10,,,69,127
50570,note_off,78,0,0,,10,,,69,127
50573,note_on,3,0,0,,12,,,71,127
50651,note_off,78,0,0,,12,,,71,127
50651,note_off,0,0,0,,8,,,68,127
50654,note_on,3,0,0,,4,,,64,127
50654,note_on,0,0,0,,1,,,73,127
50732,note_off,78,0,0,,1,,,73,127
50735,note_on,3,0,0,,12,,,71,127
50813,note_off,78,0,0,,12,,,71,127
50816,note_on,3,0,0,,1,,,73,127
50894,note_off,78,0,0,,1,,,73,127
50894,note_off,0,0,0,,4,,,64,127
50897,note_on,3,0,0,,6,,,66,127
50897,note_on,0,0,0,,2,,,74,127
50975,note_off,78,0,0,,2,,,74,127
50978,note_on,3,0,0,,1,,,73,127
51056,note_off,78,0,0,,1,,,73,127
51059,note_on,3,0,0,,2,,,74,127
51137,note_off,78,0,0,,2,,,74,127
51137,note_off,0,0,0,,6,,,66,127
51140,note_on,3,0,0,,4,,,64,127
51140,note_on,0,0,0,,1,,,61,127
51140,note_on,0,0,0,,4,,,76,127
51218,note_off,78,0,0,,4,,,76,127
51221,note_on,3,0,0,,2,,,74,127
51299,note_off,78,0,0,,2,,,74,127
51302,note_on,3,0,0,,4,,,76,127
51380,note_off,78,0,0,,4,,,76,127
51380,note_off,0,0,0,,1,,,61,127
51380,note_off,0,0,0,,4,,,64,127
51383,note_on,3,0,0,,2,,,62,127
51383,note_on,0,0,0,,6,,,66,127
51383,note_on,0,0,0,,6,,,78,127
51461,note_off,78,0,0,,6,,,78,127
51464,note_on,3,0,0,,4,,,76,127
51542,note_off,78,0,0,,4,,,76,127
51545,note_on,3,0,0,,6,,,78,127
51623,note_off,78,0,0,,6,,,78,127
51623,note_off,0,0,0,,6,,,66,127
51623,note_off,0,0,0,,2,,,62,127
51626,note_on,3,0,0,,2,,,62,127
51626,note_on,0,0,0,,12,,,59,127
51626,note_on,0,0,0,,8,,,80,127
51704,note_off,78,0,0,,8,,,80,127
51707,note_on,3,0,0,,6,,,78,127
51785,note_off,78,0,0,,6,,,78,127
51788,note_on,3,0,0,,8,,,80,127
51866,note_off,78,0,0,,8,,,80,127
51866,note_off,0,0,0,,12,,,59,127
51866,note_off,0,0,0,,2,,,62,127
51869,note_on,3,0,0,,4,,,64,127
51869,note_on,0,0,0,,10,,,57,127
51869,note_on,0,0,0,,10,,,81,127
51950,note_on,81,0,0,,4,,,76,127
51970,note_off,20,0,0,,10,,,81,127
52028,note_off,58,0,0,,4,,,76,127
52031,note_on,3,0,0,,2,,,74,127
52109,note_off,78,0,0,,2,,,74,127
52112,note_on,3,0,0,,4,,,76,127
52193,note_on,81,0,0,,1,,,73,127
52213,note_off,20,0,0,,4,,,76,127
52271,note_off,58,0,0,,1,,,73,127
52274,note_on,3,0,0,,12,,,71,127
52352,note_off,78,0,0,,12,,,71,127
52355,note_on,3,0,0,,1,,,73,127
52436,note_on,81,0,0,,10,,,69,127
52456,note_off,20,0,0,,1,,,73,127
52514,note_off,58,0,0,,10,,,69,127
52517,note_on,3,0,0,,8,,,68,127
52595,note_off,78,0,0,,8,,,68,127
52595,note_off,0,0,0,,10,,,57,127
52595,note_off,0,0,0,,4,,,64,127
52598,note_on,3,0,0,,10,,,45,127
52598,note_on,0,0,0,,10,,,69,127
52679,note_on,81,0,0,,4,,,64,127
52699,note_off,20,0,0,,10,,,69,127
52757,note_off,58,0,0,,4,,,64,127
52760,note_on,3,0,0,,2,,,62,127
52838,note_off,78,0,0,,2,,,62,127
52841,note_on,3,0,0,,4,,,64,127
52922,note_on,81,0,0,,1,,,61,127
52942,note_off,20,0,0,,4,,,64,127
53000,note_off,58,0,0,,1,,,61,127
53003,note_on,3,0,0,,12,,,59,127
53081,note_off,78,0,0,,12,,,59,127
53084,note_on,3,0,0,,1,,,61,127
53165,note_on,81,0,0,,10,,,57,127
53185,note_off,20,0,0,,1,,,61,127
53243,note_off,58,0,0,,10,,,57,127
53246,note_on,3,0,0,,8,,,56,127
53324,note_off,78,0,0,,8,,,56,127
53324,note_off,0,0,0,,10,,,45,127
53327,note_on,3,0,0,,10,,,45,127
53327,note_on,0,0,0,,10,,,57,127
54296,note_off,969,0,0,,10,,,57,127
54296,note_off,0,0,0,,10,,,45,127
54782,note_on,486,0,0,,4,,,76,127
54860,note_off,78,0,0,,4,,,76,127
54863,note_on,3,0,0,,1,,,73,127
54941,note_off,78,0,0,,1,,,73,127
54944,note_on,3,0,0,,10,,,69,127
55022,note_off,78,0,0,,10,,,69,127
55025,note_on,3,0,0,,4,,,64,127
55103,note_off,78,0,0,,4,,,64,127
55106,note_on,3,0,0,,1,,,61,127
55184,note_off,78,0,0,,1,,,61,127
55187,note_on,3,0,0,,4,,,64,127
55265,note_off,78,0,0,,4,,,64,127
55268,note_on,3,0,0,,10,,,57,127
55268,note_on,0,0,0,,10,,,45,127
55268,note_on,0,0,0,,4,,,76,127
55508,note_off,240,0,0,,10,,,45,127
55511,note_on,3,0,0,,11,,,46,127
55511,note_on,0,0,0,,5,,,77,127
55752,note_off,241,0,0,,4,,,76,127
55752,note_off,0,0,0,,10,,,57,127
55753,note_on,1,0,0,,7,,,55,127
55753,note_on,0,0,0,,5,,,65,127
55993,note_off,240,0,0,,5,,,65,127
55996,note_on,3,0,0,,7,,,67,127
56236,note_off,240,0,0,,7,,,67,127
56236,note_off,0,0,0,,7,,,55,127
56237,note_off,1,0,0,,5,,,77,127
56237,note_off,0,0,0,,11,,,46,127
56238,note_on,1,0,0,,10,,,45,127
56238,note_on,0,0,0,,4,,,76,127
56316,note_off,78,0,0,,4,,,76,127
56319,note_on,3,0,0,,1,,,73,127
56397,note_off,78,0,0,,1,,,73,127
56400,note_on,3,0,0,,10,,,69,127
56478,note_off,78,0,0,,10,,,69,127
56481,note_on,3,0,0,,4,,,64,127
56559,note_off,78,0,0,,4,,,64,127
56562,note_on,3,0,0,,1,,,61,127
56640,note_off,78,0,0,,1,,,61,127
56643,note_on,3,0,0,,4,,,64,127
56721,note_off,78,0,0,,4,,,64,127
56721,note_off,0,0,0,,10,,,45,127
56724,note_on,3,0,0,,10,,,57,127
56724,note_on,0,0,0,,4,,,76,127
56967,note_on,243,0,0,,11,,,46,127
56967,note_on,0,0,0,,5,,,77,127
57208,note_off,241,0,0,,4,,,76,127
57208,note_off,0,0,0,,10,,,57,127
57209,note_on,1,0,0,,7,,,55,127
57209,note_on,0,0,0,,5,,,65,127
57449,note_off,240,0,0,,5,,,65,127
57452,note_on,3,0,0,,7,,,67,127
57583,note_off,131,0,0,,5,,,77,127
57692,note_off,109,0,0,,7,,,67,127
57692,note_off,0,0,0,,7,,,55,127
57693,note_off,1,0,0,,11,,,46,127
57694,note_on,1,0,0,,10,,,45,127
57694,note_on,0,0,0,,10,,,81,127
57772,note_off,78,0,0,,10,,,81,127
57775,note_on,3,0,0,,4,,,76,127
57853,note_off,78,0,0,,4,,,76,127
57856,note_on,3,0,0,,1,,,73,127
57934,note_off,78,0,0,,1,,,73,127
57937,note_on,3,0,0,,10,,,69,127
58015,note_off,78,0,0,,10,,,69,127
58018,note_on,3,0,0,,1,,,73,127
58096,note_off,78,0,0,,1,,,73,127
58099,note_on,3,0,0,,4,,,76,127
58177,note_off,78,0,0,,4,,,76,127
58177,note_off,0,0,0,,10,,,45,127
58180,note_on,3,0,0,,10,,,57,127
58180,note_on,0,0,0,,10,,,81,127
58420,note_off,240,0,0,,10,,,81,127
58420,note_off,0,0,0,,10,,,57,127
58423,note_on,3,0,0,,7,,,55,127
58423,note_on,0,0,0,,11,,,82,127
58423,note_on,0,0,0,,10,,,81,127
58663,note_off,240,0,0,,10,,,81,127
58663,note_off,0,0,0,,11,,,82,127
58666,note_on,3,0,0,,7,,,67,127
58666,note_on,0,0,0,,7,,,79,127
58906,note_off,240,0,0,,7,,,67,127
58907,note_off,1,0,0,,7,,,55,127
58908,note_on,1,0,0,,11,,,58,127
58908,note_on,0,0,0,,2,,,86,127
59029,note_off,121,0,0,,7,,,79,127
59148,note_off,119,0,0,,2,,,86,127
59148,note_off,0,0,0,,11,,,58,127
59151,note_on,3,0,0,,7,,,67,127
59151,note_on,0,0,0,,10,,,57,127
59151,note_on,0,0,0,,1,,,85,127
59229,note_off,78,0,0,,1,,,85,127
59232,note_on,3,0,0,,7,,,79,127
59310,note_off,78,0,0,,7,,,79,127
59313,note_on,3,0,0,,4,,,76,127
59391,note_off,78,0,0,,4,,,76,127
59394,note_on,3,0,0,,1,,,73,127
59472,note_off,78,0,0,,1,,,73,127
59475,note_on,3,0,0,,10,,,69,127
59553,note_off,78,0,0,,10,,,69,127
59556,note_on,3,0,0,,1,,,73,127
59634,note_off,78,0,0,,1,,,73,127
59634,note_off,0,0,0,,10,,,57,127
59634,note_off,0,0,0,,7,,,67,127
59637,note_on,3,0,0,,10,,,57,127
59637,note_on,0,0,0,,10,,,81,127
59877,note_off,240,0,0,,10,,,81,127
59877,note_off,0,0,0,,10,,,57,127
59880,note_on,3,0,0,,7,,,55,127
59880,note_on,0,0,0,,10,,,81,127
59880,note_on,0,0,0,,11,,,82,127
60120,note_off,240,0,0,,11,,,82,127
60120,note_off,0,0,0,,10,,,81,127
60123,note_on,3,0,0,,7,,,67,127
60123,note_on,0,0,0,,7,,,79,127
60363,note_off,240,0,0,,7,,,67,127
60364,note_off,1,0,0,,7,,,55,127
60365,note_on,1,0,0,,11,,,58,127
60365,note_on,0,0,0,,2,,,86,127
60486,note_off,121,0,0,,7,,,79,127
60605,note_off,119,0,0,,2,,,86,127
60605,note_off,0,0,0,,11,,,58,127
60608,note_on,3,0,0,,7,,,67,127
60608,note_on,0,0,0,,10,,,57,127
60608,note_on,0,0,0,,1,,,85,127
60686,note_off,78,0,0,,1,,,85,127
60689,note_on,3,0,0,,7,,,79,127
60767,note_off,78,0,0,,7,,,79,127
60770,note_on,3,0,0,,4,,,76,127
60848,note_off,78,0,0,,4,,,76,127
60851,note_on,3,0,0,,1,,,73,127
60929,note_off,78,0,0,,1,,,73,127
60932,note_on,3,0,0,,10,,,69,127
61010,note_off,78,0,0,,10,,,69,127
61013,note_on,3,0,0,,1,,,73,127
61091,note_off,78,0,0,,1,,,73,127
61091,note_off,0,0,0,,10,,,57,127
61091,note_off,0,0,0,,7,,,67,127
61094,note_on,3,0,0,,10,,,57,127
61094,note_on,0,0,0,,4,,,64,127
61094,note_on,0,0,0,,7,,,79,127
61172,note_off,78,0,0,,7,,,79,127
61175,note_on,3,0,0,,6,,,78,127
61253,note_off,78,0,0,,6,,,78,127
61256,note_on,3,0,0,,4,,,76,127
61334,note_off,78,0,0,,4,,,76,127
61334,note_off,0,0,0,,4,,,64,127
61334,note_off,0,0,0,,10,,,57,127
61337,note_on,3,0,0,,2,,,62,127
61337,note_on,0,0,0,,2,,,50,127
61337,note_on,0,0,0,,6,,,78,127
61415,note_off,78,0,0,,6,,,78,127
61418,note_on,3,0,0,,4,,,76,127
61496,note_off,78,0,0,,4,,,76,127
61499,note_on,3,0,0,,6,,,78,127
61577,note_off,78,0,0,,6,,,78,127
61577,note_off,0,0,0,,2,,,50,127
61577,note_off,0,0,0,,2,,,62,127
61580,note_on,3,0,0,,4,,,52,127
61580,note_on,0,0,0,,1,,,61,127
61580,note_on,0,0,0,,7,,,79,127
61658,note_off,78,0,0,,7,,,79,127
61661,note_on,3,0,0,,6,,,78,127
61739,note_off,78,0,0,,6,,,78,127
61742,note_on,3,0,0,,7,,,79,127
61820,note_off,78,0,0,,7,,,79,127
61820,note_off,0,0,0,,1,,,61,127
61820,note_off,0,0,0,,4,,,52,127
61823,note_on,3,0,0,,2,,,62,127
61823,note_on,0,0,0,,6,,,54,127
61823,note_on,0,0,0,,10,,,81,127
61901,note_off,78,0,0,,10,,,81,127
61904,note_on,3,0,0,,7,,,79,127
61982,note_off,78,0,0,,7,,,79,127
61985,note_on,3,0,0,,10,,,81,127
62063,note_off,78,0,0,,10,,,81,127
62063,note_off,0,0,0,,6,,,54,127
62063,note_off,0,0,0,,2,,,62,127
62066,note_on,3,0,0,,7,,,55,127
62066,note_on,0,0,0,,2,,,62,127
62066,note_on,0,0,0,,12,,,83,127
62144,note_off,78,0,0,,12,,,83,127
62147,note_on,3,0,0,,10,,,81,127
62225,note_off,78,0,0,,10,,,81,127
62228,note_on,3,0,0,,7,,,79,127
62306,note_off,78,0,0,,7,,,79,127
62306,note_off,0,0,0,,7,,,55,127
62309,note_on,3,0,0,,10,,,57,127
62309,note_on,0,0,0,,6,,,78,127
62387,note_off,78,0,0,,6,,,78,127
62390,note_on,3,0,0,,4,,,76,127
62468,note_off,78,0,0,,4,,,76,127
62471,note_on,3,0,0,,2,,,74,127
62549,note_off,78,0,0,,2,,,74,127
62550,note_off,1,0,0,,2,,,62,127
62551,note_on,1,0,0,,10,,,45,127
62551,note_on,0,0,0,,1,,,73,127
62629,note_off,78,0,0,,1,,,73,127
62632,note_on,3,0,0,,2,,,74,127
62672,note_off,40,0,0,,10,,,57,127
62710,note_off,38,0,0,,2,,,74,127
62713,note_on,3,0,0,,4,,,76,127
62791,note_off,78,0,0,,4,,,76,127
62791,note_off,0,0,0,,10,,,45,127
62794,note_on,3,0,0,,2,,,38,127
62794,note_on,0,0,0,,2,,,62,127
62872,note_off,78,0,0,,2,,,62,127
62875,note_on,3,0,0,,6,,,66,127
62953,note_off,78,0,0,,6,,,66,127
62956,note_on,3,0,0,,10,,,69,127
63034,note_off,78,0,0,,10,,,69,127
63037,note_on,3,0,0,,2,,,74,127
63115,note_off,78,0,0,,2,,,74,127
63118,note_on,3,0,0,,6,,,78,127
63196,note_off,78,0,0,,6,,,78,127
63199,note_on,3,0,0,,10,,,81,127
63277,note_off,78,0,0,,10,,,81,127
63277,note_off,0,0,0,,2,,,38,127
63280,note_on,3,0,0,,2,,,62,127
63280,note_on,0,0,0,,6,,,54,127
63280,note_on,0,0,0,,2,,,86,127
63520,note_off,240,0,0,,6,,,54,127
63520,note_off,0,0,0,,2,,,62,127
63523,note_on,3,0,0,,7,,,67,127
63523,note_on,0,0,0,,7,,,55,127
63601,note_off,78,0,0,,2,,,86,127
63604,note_on,3,0,0,,12,,,83,127
63682,note_off,78,0,0,,12,,,83,127
63685,note_on,3,0,0,,7,,,79,127
63763,note_off,78,0,0,,7,,,79,127
63763,note_off,0,0,0,,7,,,55,127
63763,note_off,0,0,0,,7,,,67,127
63766,note_on,3,0,0,,6,,,66,127
63766,note_on,0,0,0,,10,,,57,127
63766,note_on,0,0,0,,2,,,74,127
64006,note_off,240,0,0,,2,,,74,127
64006,note_off,0,0,0,,6,,,66,127
64009,note_on,3,0,0,,4,,,64,127
64009,note_on,0,0,0,,1,,,73,127
64211,note_off,202,0,0,,1,,,73,127
64249,note_off,38,0,0,,4,,,64,127
64250,note_off,1,0,0,,10,,,57,127
64251,note_on,1,0,0,,2,,,38,127
64251,note_on,0,0,0,,2,,,62,127
64329,note_off,78,0,0,,2,,,62,127
64332,note_on,3,0,0,,6,,,66,127
64410,note_off,78,0,0,,6,,,66,127
64413,note_on,3,0,0,,10,,,69,127
64491,note_off,78,0,0,,10,,,69,127
64494,note_on,3,0,0,,2,,,74,127
64572,note_off,78,0,0,,2,,,74,127
64575,note_on,3,0,0,,6,,,78,127
64653,note_off,78,0,0,,6,,,78,127
64656,note_on,3,0,0,,10,,,81,127
64734,note_off,78,0,0,,10,,,81,127
64734,note_off,0,0,0,,2,,,38,127
64737,note_on,3,0,0,,2,,,62,127
64737,note_on,0,0,0,,6,,,54,127
64737,note_on,0,0,0,,2,,,86,127
64977,note_off,240,0,0,,6,,,54,127
64977,note_off,0,0,0,,2,,,62,127
64980,note_on,3,0,0,,7,,,55,127
64980,note_on,0,0,0,,7,,,67,127
65058,note_off,78,0,0,,2,,,86,127
65061,note_on,3,0,0,,12,,,83,127
65139,note_off,78,0,0,,12,,,83,127
65142,note_on,3,0,0,,7,,,79,127
65220,note_off,78,0,0,,7,,,79,127
65220,note_off,0,0,0,,7,,,67,127
65220,note_off,0,0,0,,7,,,55,127
65223,note_on,3,0,0,,10,,,57,127
65223,note_on,0,0,0,,6,,,66,127
65223,note_on,0,0,0,,2,,,74,127
65463,note_off,240,0,0,,2,,,74,127
65463,note_off,0,0,0,,6,,,66,127
65466,note_on,3,0,0,,4,,,64,127
65466,note_on,0,0,0,,1,,,73,127
65693,note_off,227,0,0,,1,,,73,127
65706,note_off,13,0,0,,4,,,64,127
65707,note_off,1,0,0,,10,,,57,127
65708,note_on,1,0,0,,12,,,59,127
65708,note_on,0,0,0,,2,,,62,127
65708,note_on,0,0,0,,2,,,74,127
65786,note_off,78,0,0,,2,,,74,127
65789,note_on,3,0,0,,7,,,79,127
65867,note_off,78,0,0,,7,,,79,127
65870,note_on,3,0,0,,6,,,78,127
65948,note_off,78,0,0,,6,,,78,127
65948,note_off,0,0,0,,2,,,62,127
65948,note_off,0,0,0,,12,,,59,127
65951,note_on,3,0,0,,4,,,64,127
65951,note_on,0,0,0,,1,,,61,127
65951,note_on,0,0,0,,4,,,76,127
66029,note_off,78,0,0,,4,,,76,127
66032,note_on,3,0,0,,10,,,81,127
66110,note_off,78,0,0,,10,,,81,127
66113,note_on,3,0,0,,7,,,79,127
66191,note_off,78,0,0,,7,,,79,127
66191,note_off,0,0,0,,1,,,61,127
66191,note_off,0,0,0,,4,,,64,127
66194,note_on,3,0,0,,2,,,62,127
66194,note_on,0,0,0,,6,,,66,127
66194,note_on,0,0,0,,6,,,78,127
66272,note_off,78,0,0,,6,,,78,127
66275,note_on,3,0,0,,12,,,83,127
66353,note_off,78,0,0,,12,,,83,127
66356,note_on,3,0,0,,10,,,81,127
66434,note_off,78,0,0,,10,,,81,127
66434,note_off,0,0,0,,6,,,66,127
66434,note_off,0,0,0,,2,,,62,127
66437,note_on,3,0,0,,7,,,67,127
66437,note_on,0,0,0,,7,,,55,127
66437,note_on,0,0,0,,7,,,79,127
66515,note_off,78,0,0,,7,,,79,127
66518,note_on,3,0,0,,6,,,78,127
66596,note_off,78,0,0,,6,,,78,127
66599,note_on,3,0,0,,4,,,76,127
66677,note_off,78,0,0,,4,,,76,127
66677,note_off,0,0,0,,7,,,55,127
66677,note_off,0,0,0,,7,,,67,127
66680,note_on,3,0,0,,10,,,57,127
66680,note_on,0,0,0,,6,,,66,127
66680,note_on,0,0,0,,2,,,74,127
66920,note_off,240,0,0,,2,,,74,127
66920,note_off,0,0,0,,6,,,66,127
66923,note_on,3,0,0,,4,,,64,127
66923,note_on,0,0,0,,1,,,73,127
67163,note_off,240,0,0,,1,,,73,127
67163,note_off,0,0,0,,4,,,64,127
67164,note_off,1,0,0,,10,,,57,127
67175,note_on,11,0,0,,12,,,59,127
67175,note_on,0,0,0,,2,,,62,127
67255,note_off,80,0,0,,2,,,62,127
67260,note_on,5,0,0,,7,,,67,127
67340,note_off,80,0,0,,7,,,67,127
67344,note_on,4,0,0,,6,,,66,127
67422,note_off,78,0,0,,12,,,59,127
67423,note_off,1,0,0,,6,,,66,127
67428,note_on,5,0,0,,1,,,61,127
67428,note_on,0,0,0,,4,,,64,127
67508,note_off,80,0,0,,4,,,64,127
67513,note_on,5,0,0,,10,,,69,127
67593,note_off,80,0,0,,10,,,69,127
67597,note_on,4,0,0,,7,,,67,127
67675,note_off,78,0,0,,1,,,61,127
67676,note_off,1,0,0,,7,,,67,127
67681,note_on,5,0,0,,2,,,62,127
67681,note_on,0,0,0,,6,,,66,127
67761,note_off,80,0,0,,6,,,66,127
67765,note_on,4,0,0,,12,,,71,127
67845,note_off,80,0,0,,12,,,71,127
67850,note_on,5,0,0,,10,,,69,127
67928,note_off,78,0,0,,2,,,62,127
67929,note_off,1,0,0,,10,,,69,127
67933,note_on,4,0,0,,7,,,55,127
67933,note_on,0,0,0,,7,,,67,127
68013,note_off,80,0,0,,7,,,67,127
68018,note_on,5,0,0,,6,,,66,127
68098,note_off,80,0,0,,6,,,66,127
68103,note_on,5,0,0,,4,,,64,127
68180,note_off,77,0,0,,7,,,55,127
68183,note_off,3,0,0,,4,,,64,127
68187,note_on,4,0,0,,10,,,57,127
68187,note_on,0,0,0,,2,,,62,127
68433,note_off,246,0,0,,2,,,62,127
68439,note_on,6,0,0,,10,,,45,127
68439,note_on,0,0,0,,1,,,61,127
68560,note_off,121,0,0,,10,,,57,127
68685,note_off,125,0,0,,1,,,61,127
68685,note_off,0,0,0,,10,,,45,127
68703,note_on,18,0,0,,1,,,61,127
68703,note_on,0,0,0,,2,,,38,127
69322,note_on,619,0,0,,2,,,62,127
69327,note_off,5,0,0,,1,,,61,127
70805,note_off,1478,0,0,,2,,,62,127
70805,note_off,0,0,0,,2,,,38,127
75264,end_of_track,4459,1,0,,,,,,
