tick,type,time,meta,track,program,channel,pitch,tempo,note,velocity
0,copyright,0,1,0,,,,,,
0,program_change,0,0,0,6,0,,,,
0,pitchwheel,0,0,0,,0,0,,,
0,program_change,0,0,0,6,1,,,,
0,pitchwheel,0,0,0,,1,-590,,,
0,program_change,0,0,0,6,2,,,,
0,pitchwheel,0,0,0,,2,-272,,,
0,program_change,0,0,0,6,3,,,,
0,pitchwheel,0,0,0,,3,-353,,,
0,program_change,0,0,0,6,4,,,,
0,pitchwheel,0,0,0,,4,-560,,,
0,program_change,0,0,0,6,5,,,,
0,pitchwheel,0,0,0,,5,-80,,,
0,program_change,0,0,0,6,6,,,,
0,pitchwheel,0,0,0,,6,-625,,,
0,program_change,0,0,0,6,7,,,,
0,pitchwheel,0,0,0,,7,-130,,,
0,program_change,0,0,0,6,8,,,,
0,pitchwheel,0,0,0,,8,-512,,,
0,program_change,0,0,0,6,10,,,,
0,pitchwheel,0,0,0,,10,-464,,,
0,program_change,0,0,0,6,11,,,,
0,pitchwheel,0,0,0,,11,-208,,,
0,program_change,0,0,0,6,12,,,,
0,pitchwheel,0,0,0,,12,-553,,,
0,set_tempo,0,1,0,,,,500000,,
96,note_on,96,0,0,,4,,,76,127
479,note_off,383,0,0,,4,,,76,127
480,note_on,1,0,0,,12,,,83,127
863,note_off,383,0,0,,12,,,83,127
864,note_on,1,0,0,,10,,,81,127
1240,note_off,376,0,0,,10,,,81,127
1248,note_on,8,0,0,,4,,,64,127
1248,note_on,0,0,0,,8,,,80,127
1375,note_off,127,0,0,,8,,,80,127
1376,note_on,1,0,0,,6,,,78,127
1503,note_off,127,0,0,,6,,,78,127
1504,note_on,1,0,0,,4,,,76,127
1631,note_off,127,0,0,,4,,,76,127
1631,note_off,0,0,0,,4,,,64,127
1632,note_on,1,0,0,,12,,,71,127
1632,note_on,0,0,0,,3,,,75,127
2015,note_off,383,0,0,,3,,,75,127
2015,note_off,0,0,0,,12,,,71,127
2016,note_on,1,0,0,,10,,,69,127
2016,note_on,0,0,0,,1,,,73,127
2388,note_off,372,0,0,,1,,,73,127
2399,note_off,11,0,0,,10,,,69,127
2400,note_on,1,0,0,,8,,,68,127
2400,note_on,0,0,0,,12,,,71,127
2527,note_off,127,0,0,,8,,,68,127
2528,note_on,1,0,0,,6,,,66,127
2655,note_off,127,0,0,,6,,,66,127
2656,note_on,1,0,0,,4,,,64,127
2783,note_off,127,0,0,,4,,,64,127
2783,note_off,0,0,0,,12,,,71,127
2784,note_on,1,0,0,,3,,,63,127
2784,note_on,0,0,0,,12,,,71,127
3167,note_off,383,0,0,,12,,,71,127
3167,note_off,0,0,0,,3,,,63,127
3168,note_on,1,0,0,,1,,,61,127
3168,note_on,0,0,0,,1,,,73,127
3538,note_off,370,0,0,,1,,,73,127
3551,note_off,13,0,0,,1,,,61,127
3552,note_on,1,0,0,,12,,,59,127
3552,note_on,0,0,0,,3,,,75,127
3679,note_off,127,0,0,,3,,,75,127
3680,note_on,1,0,0,,12,,,71,127
3807,note_off,127,0,0,,12,,,71,127
3808,note_on,1,0,0,,3,,,75,127
3935,note_off,127,0,0,,3,,,75,127
3935,note_off,0,0,0,,12,,,59,127
3936,note_on,1,0,0,,10,,,69,127
3936,note_on,0,0,0,,12,,,59,127
3936,note_on,0,0,0,,6,,,78,127
4319,note_off,383,0,0,,6,,,78,127
4319,note_off,0,0,0,,12,,,59,127
4319,note_off,0,0,0,,10,,,69,127
4320,note_on,1,0,0,,12,,,59,127
4320,note_on,0,0,0,,10,,,69,127
4320,note_on,0,0,0,,3,,,75,127
4656,note_off,336,0,0,,12,,,59,127
4703,note_off,47,0,0,,3,,,75,127
4703,note_off,0,0,0,,10,,,69,127
4704,note_on,1,0,0,,8,,,68,127
4704,note_on,0,0,0,,12,,,59,127
4704,note_on,0,0,0,,4,,,76,127
4831,note_off,127,0,0,,4,,,76,127
4832,note_on,1,0,0,,12,,,71,127
4959,note_off,127,0,0,,12,,,71,127
4960,note_on,1,0,0,,4,,,76,127
5087,note_off,127,0,0,,4,,,76,127
5087,note_off,0,0,0,,12,,,59,127
5087,note_off,0,0,0,,8,,,68,127
5088,note_on,1,0,0,,8,,,68,127
5088,note_on,0,0,0,,12,,,59,127
5088,note_on,0,0,0,,8,,,80,127
5471,note_off,383,0,0,,8,,,80,127
5471,note_off,0,0,0,,12,,,59,127
5471,note_off,0,0,0,,8,,,68,127
5472,note_on,1,0,0,,8,,,68,127
5472,note_on,0,0,0,,12,,,59,127
5472,note_on,0,0,0,,4,,,76,127
5808,note_off,336,0,0,,12,,,59,127
5855,note_off,47,0,0,,4,,,76,127
5855,note_off,0,0,0,,8,,,68,127
5856,note_on,1,0,0,,6,,,66,127
5856,note_on,0,0,0,,12,,,59,127
5856,note_on,0,0,0,,6,,,78,127
5983,note_off,127,0,0,,6,,,78,127
5984,note_on,1,0,0,,12,,,71,127
6111,note_off,127,0,0,,12,,,71,127
6112,note_on,1,0,0,,6,,,78,127
6239,note_off,127,0,0,,6,,,78,127
6239,note_off,0,0,0,,12,,,59,127
6239,note_off,0,0,0,,6,,,66,127
6240,note_on,1,0,0,,12,,,59,127
6240,note_on,0,0,0,,6,,,66,127
6240,note_on,0,0,0,,10,,,81,127
6623,note_off,383,0,0,,10,,,81,127
6623,note_off,0,0,0,,6,,,66,127
6623,note_off,0,0,0,,12,,,59,127
6624,note_on,1,0,0,,12,,,59,127
6624,note_on,0,0,0,,6,,,66,127
6624,note_on,0,0,0,,6,,,78,127
6960,note_off,336,0,0,,12,,,59,127
6993,note_off,33,0,0,,6,,,78,127
7007,note_off,14,0,0,,6,,,66,127
7008,note_on,1,0,0,,4,,,64,127
7008,note_on,0,0,0,,8,,,80,127
7135,note_off,127,0,0,,8,,,80,127
7136,note_on,1,0,0,,4,,,76,127
7263,note_off,127,0,0,,4,,,76,127
7264,note_on,1,0,0,,12,,,71,127
7391,note_off,127,0,0,,12,,,71,127
7391,note_off,0,0,0,,4,,,64,127
7392,note_on,1,0,0,,10,,,69,127
7392,note_on,0,0,0,,1,,,73,127
7775,note_off,383,0,0,,1,,,73,127
7775,note_off,0,0,0,,10,,,69,127
7776,note_on,1,0,0,,6,,,66,127
7776,note_on,0,0,0,,4,,,76,127
7839,note_off,63,0,0,,4,,,76,127
7840,note_on,1,0,0,,3,,,75,127
7903,note_off,63,0,0,,3,,,75,127
7904,note_on,1,0,0,,4,,,76,127
7967,note_off,63,0,0,,4,,,76,127
7968,note_on,1,0,0,,3,,,75,127
8031,note_off,63,0,0,,3,,,75,127
8032,note_on,1,0,0,,1,,,73,127
8095,note_off,63,0,0,,1,,,73,127
8096,note_on,1,0,0,,3,,,75,127
8159,note_off,63,0,0,,3,,,75,127
8159,note_off,0,0,0,,6,,,66,127
8160,note_on,1,0,0,,4,,,64,127
8160,note_on,0,0,0,,8,,,80,127
8287,note_off,127,0,0,,8,,,80,127
8288,note_on,1,0,0,,4,,,76,127
8415,note_off,127,0,0,,4,,,76,127
8416,note_on,1,0,0,,12,,,71,127
8543,note_off,127,0,0,,12,,,71,127
8543,note_off,0,0,0,,4,,,64,127
8544,note_on,1,0,0,,10,,,69,127
8544,note_on,0,0,0,,1,,,73,127
8927,note_off,383,0,0,,1,,,73,127
8927,note_off,0,0,0,,10,,,69,127
8928,note_on,1,0,0,,6,,,66,127
8928,note_on,0,0,0,,4,,,76,127
8991,note_off,63,0,0,,4,,,76,127
8992,note_on,1,0,0,,3,,,75,127
9055,note_off,63,0,0,,3,,,75,127
9056,note_on,1,0,0,,4,,,76,127
9119,note_off,63,0,0,,4,,,76,127
9120,note_on,1,0,0,,3,,,75,127
9183,note_off,63,0,0,,3,,,75,127
9184,note_on,1,0,0,,1,,,73,127
9247,note_off,63,0,0,,1,,,73,127
9248,note_on,1,0,0,,3,,,75,127
9311,note_off,63,0,0,,3,,,75,127
9311,note_off,0,0,0,,6,,,66,127
9312,note_on,1,0,0,,8,,,68,127
9312,note_on,0,0,0,,12,,,83,127
9440,note_on,128,0,0,,4,,,76,127
9502,note_off,62,0,0,,12,,,83,127
9567,note_off,65,0,0,,4,,,76,127
9568,note_on,1,0,0,,12,,,71,127
9695,note_off,127,0,0,,12,,,71,127
9695,note_off,0,0,0,,8,,,68,127
9696,note_on,1,0,0,,10,,,69,127
9696,note_on,0,0,0,,10,,,81,127
10079,note_off,383,0,0,,10,,,81,127
10079,note_off,0,0,0,,10,,,69,127
10080,note_on,1,0,0,,3,,,75,127
10080,note_on,0,0,0,,12,,,71,127
10080,note_on,0,0,0,,8,,,80,127
10143,note_off,63,0,0,,8,,,80,127
10144,note_on,1,0,0,,6,,,78,127
10207,note_off,63,0,0,,6,,,78,127
10208,note_on,1,0,0,,8,,,80,127
10271,note_off,63,0,0,,8,,,80,127
10272,note_on,1,0,0,,6,,,78,127
10335,note_off,63,0,0,,6,,,78,127
10336,note_on,1,0,0,,4,,,76,127
10399,note_off,63,0,0,,4,,,76,127
10400,note_on,1,0,0,,6,,,78,127
10416,note_off,16,0,0,,12,,,71,127
10463,note_off,47,0,0,,6,,,78,127
10463,note_off,0,0,0,,3,,,75,127
10464,note_on,1,0,0,,8,,,68,127
10464,note_on,0,0,0,,12,,,83,127
10592,note_on,128,0,0,,4,,,76,127
10654,note_off,62,0,0,,12,,,83,127
10719,note_off,65,0,0,,4,,,76,127
10720,note_on,1,0,0,,12,,,71,127
10847,note_off,127,0,0,,12,,,71,127
10847,note_off,0,0,0,,8,,,68,127
10848,note_on,1,0,0,,10,,,69,127
10848,note_on,0,0,0,,10,,,81,127
11231,note_off,383,0,0,,10,,,81,127
11231,note_off,0,0,0,,10,,,69,127
11232,note_on,1,0,0,,12,,,71,127
11232,note_on,0,0,0,,3,,,75,127
11232,note_on,0,0,0,,8,,,80,127
11295,note_off,63,0,0,,8,,,80,127
11296,note_on,1,0,0,,6,,,78,127
11359,note_off,63,0,0,,6,,,78,127
11360,note_on,1,0,0,,8,,,80,127
11423,note_off,63,0,0,,8,,,80,127
11424,note_on,1,0,0,,6,,,78,127
11487,note_off,63,0,0,,6,,,78,127
11488,note_on,1,0,0,,4,,,76,127
11551,note_off,63,0,0,,4,,,76,127
11552,note_on,1,0,0,,6,,,78,127
11568,note_off,16,0,0,,12,,,71,127
11615,note_off,47,0,0,,6,,,78,127
11615,note_off,0,0,0,,3,,,75,127
11616,note_on,1,0,0,,12,,,71,127
11616,note_on,0,0,0,,4,,,64,127
11616,note_on,0,0,0,,8,,,80,127
11743,note_off,127,0,0,,8,,,80,127
11744,note_on,1,0,0,,12,,,83,127
11871,note_off,127,0,0,,12,,,83,127
11872,note_on,1,0,0,,10,,,81,127
11999,note_off,127,0,0,,10,,,81,127
11999,note_off,0,0,0,,4,,,64,127
11999,note_off,0,0,0,,12,,,71,127
12000,note_on,1,0,0,,4,,,64,127
12000,note_on,0,0,0,,12,,,71,127
12000,note_on,0,0,0,,10,,,81,127
12383,note_off,383,0,0,,10,,,81,127
12383,note_off,0,0,0,,12,,,71,127
12383,note_off,0,0,0,,4,,,64,127
12384,note_on,1,0,0,,12,,,71,127
12384,note_on,0,0,0,,4,,,64,127
12384,note_on,0,0,0,,8,,,80,127
12720,note_off,336,0,0,,4,,,64,127
12767,note_off,47,0,0,,8,,,80,127
12767,note_off,0,0,0,,12,,,71,127
12768,note_on,1,0,0,,12,,,71,127
12768,note_on,0,0,0,,3,,,63,127
12768,note_on,0,0,0,,6,,,78,127
12895,note_off,127,0,0,,6,,,78,127
12896,note_on,1,0,0,,10,,,81,127
13023,note_off,127,0,0,,10,,,81,127
13024,note_on,1,0,0,,8,,,80,127
13151,note_off,127,0,0,,8,,,80,127
13151,note_off,0,0,0,,3,,,63,127
13151,note_off,0,0,0,,12,,,71,127
13152,note_on,1,0,0,,12,,,71,127
13152,note_on,0,0,0,,3,,,63,127
13152,note_on,0,0,0,,8,,,80,127
13535,note_off,383,0,0,,8,,,80,127
13535,note_off,0,0,0,,3,,,63,127
13535,note_off,0,0,0,,12,,,71,127
13536,note_on,1,0,0,,12,,,71,127
13536,note_on,0,0,0,,3,,,63,127
13536,note_on,0,0,0,,6,,,78,127
13872,note_off,336,0,0,,3,,,63,127
13919,note_off,47,0,0,,6,,,78,127
13919,note_off,0,0,0,,12,,,71,127
13920,note_on,1,0,0,,12,,,71,127
13920,note_on,0,0,0,,1,,,61,127
13920,note_on,0,0,0,,4,,,76,127
14047,note_off,127,0,0,,4,,,76,127
14048,note_on,1,0,0,,8,,,80,127
14175,note_off,127,0,0,,8,,,80,127
14176,note_on,1,0,0,,6,,,78,127
14303,note_off,127,0,0,,6,,,78,127
14303,note_off,0,0,0,,1,,,61,127
14303,note_off,0,0,0,,12,,,71,127
14304,note_on,1,0,0,,1,,,61,127
14304,note_on,0,0,0,,12,,,71,127
14304,note_on,0,0,0,,6,,,78,127
14687,note_off,383,0,0,,6,,,78,127
14687,note_off,0,0,0,,12,,,71,127
14687,note_off,0,0,0,,1,,,61,127
14688,note_on,1,0,0,,11,,,70,127
14688,note_on,0,0,0,,1,,,61,127
14688,note_on,0,0,0,,6,,,78,127
14751,note_off,63,0,0,,6,,,78,127
14752,note_on,1,0,0,,4,,,76,127
14815,note_off,63,0,0,,4,,,76,127
14816,note_on,1,0,0,,6,,,78,127
14879,note_off,63,0,0,,6,,,78,127
14880,note_on,1,0,0,,4,,,76,127
14943,note_off,63,0,0,,4,,,76,127
14944,note_on,1,0,0,,3,,,75,127
15007,note_off,63,0,0,,3,,,75,127
15008,note_on,1,0,0,,4,,,76,127
15024,note_off,16,0,0,,1,,,61,127
15071,note_off,47,0,0,,4,,,76,127
15071,note_off,0,0,0,,11,,,70,127
15072,note_on,1,0,0,,12,,,59,127
15072,note_on,0,0,0,,12,,,71,127
15072,note_on,0,0,0,,3,,,75,127
15199,note_off,127,0,0,,3,,,75,127
15199,note_off,0,0,0,,12,,,71,127
15200,note_on,1,0,0,,12,,,71,127
15327,note_off,127,0,0,,12,,,71,127
15328,note_on,1,0,0,,3,,,75,127
15455,note_off,127,0,0,,3,,,75,127
15456,note_on,1,0,0,,12,,,47,127
15456,note_on,0,0,0,,6,,,78,127
15583,note_off,127,0,0,,6,,,78,127
15584,note_on,1,0,0,,3,,,75,127
15647,note_off,63,0,0,,12,,,59,127
15711,note_off,64,0,0,,3,,,75,127
15712,note_on,1,0,0,,6,,,78,127
15839,note_off,127,0,0,,6,,,78,127
15840,note_on,1,0,0,,12,,,35,127
15840,note_on,0,0,0,,12,,,83,127
16223,note_off,383,0,0,,12,,,47,127
16607,note_off,384,0,0,,12,,,83,127
16607,note_off,0,0,0,,12,,,35,127
16896,note_on,289,0,0,,12,,,71,127
16896,note_on,0,0,0,,6,,,66,127
16896,note_on,0,0,0,,3,,,75,127
17023,note_off,127,0,0,,3,,,75,127
17024,note_on,1,0,0,,6,,,78,127
17151,note_off,127,0,0,,6,,,78,127
17152,note_on,1,0,0,,3,,,75,127
17279,note_off,127,0,0,,3,,,75,127
17279,note_off,0,0,0,,6,,,66,127
17279,note_off,0,0,0,,12,,,71,127
17280,note_on,1,0,0,,1,,,73,127
17280,note_on,0,0,0,,6,,,66,127
17280,note_on,0,0,0,,3,,,75,127
17663,note_off,383,0,0,,3,,,75,127
17663,note_off,0,0,0,,6,,,66,127
17663,note_off,0,0,0,,1,,,73,127
17664,note_on,1,0,0,,1,,,73,127
17664,note_on,0,0,0,,6,,,66,127
17664,note_on,0,0,0,,4,,,76,127
17728,note_on,64,0,0,,3,,,75,127
17736,note_off,8,0,0,,4,,,76,127
17792,note_on,56,0,0,,4,,,76,127
17800,note_off,8,0,0,,3,,,75,127
18000,note_off,200,0,0,,6,,,66,127
18047,note_off,47,0,0,,4,,,76,127
18047,note_off,0,0,0,,1,,,73,127
18048,note_on,1,0,0,,12,,,71,127
18048,note_on,0,0,0,,6,,,66,127
18048,note_on,0,0,0,,3,,,75,127
18175,note_off,127,0,0,,3,,,75,127
18176,note_on,1,0,0,,6,,,78,127
18303,note_off,127,0,0,,6,,,78,127
18304,note_on,1,0,0,,3,,,75,127
18431,note_off,127,0,0,,3,,,75,127
18431,note_off,0,0,0,,6,,,66,127
18431,note_off,0,0,0,,12,,,71,127
18432,note_on,1,0,0,,1,,,73,127
18432,note_on,0,0,0,,6,,,66,127
18432,note_on,0,0,0,,3,,,75,127
18815,note_off,383,0,0,,3,,,75,127
18815,note_off,0,0,0,,6,,,66,127
18815,note_off,0,0,0,,1,,,73,127
18816,note_on,1,0,0,,1,,,73,127
18816,note_on,0,0,0,,6,,,66,127
18816,note_on,0,0,0,,4,,,76,127
18880,note_on,64,0,0,,3,,,75,127
18888,note_off,8,0,0,,4,,,76,127
18944,note_on,56,0,0,,4,,,76,127
18952,note_off,8,0,0,,3,,,75,127
19152,note_off,200,0,0,,6,,,66,127
19199,note_off,47,0,0,,4,,,76,127
19199,note_off,0,0,0,,1,,,73,127
19200,note_on,1,0,0,,6,,,66,127
19200,note_on,0,0,0,,12,,,71,127
19200,note_on,0,0,0,,2,,,74,127
19327,note_off,127,0,0,,2,,,74,127
19328,note_on,1,0,0,,6,,,78,127
19455,note_off,127,0,0,,6,,,78,127
19456,note_on,1,0,0,,2,,,74,127
19583,note_off,127,0,0,,2,,,74,127
19583,note_off,0,0,0,,12,,,71,127
19583,note_off,0,0,0,,6,,,66,127
19584,note_on,1,0,0,,1,,,73,127
19584,note_on,0,0,0,,6,,,66,127
19584,note_on,0,0,0,,2,,,74,127
19967,note_off,383,0,0,,2,,,74,127
19967,note_off,0,0,0,,6,,,66,127
19967,note_off,0,0,0,,1,,,73,127
19968,note_on,1,0,0,,1,,,73,127
19968,note_on,0,0,0,,6,,,66,127
19968,note_on,0,0,0,,4,,,76,127
20032,note_on,64,0,0,,2,,,74,127
20040,note_off,8,0,0,,4,,,76,127
20096,note_on,56,0,0,,4,,,76,127
20104,note_off,8,0,0,,2,,,74,127
20304,note_off,200,0,0,,6,,,66,127
20351,note_off,47,0,0,,4,,,76,127
20351,note_off,0,0,0,,1,,,73,127
20352,note_on,1,0,0,,12,,,71,127
20352,note_on,0,0,0,,6,,,66,127
20352,note_on,0,0,0,,2,,,74,127
20479,note_off,127,0,0,,2,,,74,127
20480,note_on,1,0,0,,6,,,78,127
20607,note_off,127,0,0,,6,,,78,127
20608,note_on,1,0,0,,2,,,74,127
20735,note_off,127,0,0,,2,,,74,127
20735,note_off,0,0,0,,6,,,66,127
20735,note_off,0,0,0,,12,,,71,127
20736,note_on,1,0,0,,1,,,73,127
20736,note_on,0,0,0,,6,,,66,127
20736,note_on,0,0,0,,2,,,74,127
21119,note_off,383,0,0,,2,,,74,127
21119,note_off,0,0,0,,6,,,66,127
21119,note_off,0,0,0,,1,,,73,127
21120,note_on,1,0,0,,1,,,73,127
21120,note_on,0,0,0,,6,,,66,127
21120,note_on,0,0,0,,4,,,76,127
21184,note_on,64,0,0,,2,,,74,127
21192,note_off,8,0,0,,4,,,76,127
21248,note_on,56,0,0,,4,,,76,127
21256,note_off,8,0,0,,2,,,74,127
21456,note_off,200,0,0,,6,,,66,127
21503,note_off,47,0,0,,4,,,76,127
21503,note_off,0,0,0,,1,,,73,127
21504,note_on,1,0,0,,7,,,67,127
21504,note_on,0,0,0,,2,,,74,127
21504,note_on,0,0,0,,4,,,76,127
21631,note_off,127,0,0,,4,,,76,127
21631,note_off,0,0,0,,2,,,74,127
21632,note_on,1,0,0,,1,,,73,127
21759,note_off,127,0,0,,1,,,73,127
21760,note_on,1,0,0,,12,,,71,127
21887,note_off,127,0,0,,12,,,71,127
21887,note_off,0,0,0,,7,,,67,127
21888,note_on,1,0,0,,7,,,67,127
21888,note_on,0,0,0,,11,,,82,127
22271,note_off,383,0,0,,11,,,82,127
22271,note_off,0,0,0,,7,,,67,127
22272,note_on,1,0,0,,2,,,62,127
22272,note_on,0,0,0,,12,,,83,127
22655,note_off,383,0,0,,12,,,83,127
22655,note_off,0,0,0,,2,,,62,127
22656,note_on,1,0,0,,12,,,71,127
22656,note_on,0,0,0,,4,,,64,127
22656,note_on,0,0,0,,7,,,79,127
22783,note_off,127,0,0,,7,,,79,127
22784,note_on,1,0,0,,4,,,76,127
22911,note_off,127,0,0,,4,,,76,127
22912,note_on,1,0,0,,1,,,73,127
23039,note_off,127,0,0,,1,,,73,127
23039,note_off,0,0,0,,4,,,64,127
23039,note_off,0,0,0,,12,,,71,127
23040,note_on,1,0,0,,6,,,66,127
23040,note_on,0,0,0,,2,,,74,127
23040,note_on,0,0,0,,12,,,71,127
23423,note_off,383,0,0,,12,,,71,127
23423,note_off,0,0,0,,2,,,74,127
23423,note_off,0,0,0,,6,,,66,127
23424,note_on,1,0,0,,6,,,54,127
23424,note_on,0,0,0,,11,,,70,127
23424,note_on,0,0,0,,1,,,73,127
23754,note_off,330,0,0,,1,,,73,127
23754,note_off,0,0,0,,11,,,70,127
23760,note_off,6,0,0,,6,,,54,127
23808,note_on,48,0,0,,12,,,71,127
23808,note_on,0,0,0,,6,,,66,127
23808,note_on,0,0,0,,3,,,75,127
23935,note_off,127,0,0,,3,,,75,127
23936,note_on,1,0,0,,6,,,78,127
24063,note_off,127,0,0,,6,,,78,127
24064,note_on,1,0,0,,3,,,75,127
24191,note_off,127,0,0,,3,,,75,127
24191,note_off,0,0,0,,6,,,66,127
24191,note_off,0,0,0,,12,,,71,127
24192,note_on,1,0,0,,1,,,73,127
24192,note_on,0,0,0,,6,,,66,127
24192,note_on,0,0,0,,3,,,75,127
24575,note_off,383,0,0,,3,,,75,127
24575,note_off,0,0,0,,6,,,66,127
24575,note_off,0,0,0,,1,,,73,127
24576,note_on,1,0,0,,1,,,73,127
24576,note_on,0,0,0,,6,,,66,127
24576,note_on,0,0,0,,4,,,76,127
24640,note_on,64,0,0,,3,,,75,127
24648,note_off,8,0,0,,4,,,76,127
24704,note_on,56,0,0,,4,,,76,127
24712,note_off,8,0,0,,3,,,75,127
24912,note_off,200,0,0,,6,,,66,127
24959,note_off,47,0,0,,4,,,76,127
24959,note_off,0,0,0,,1,,,73,127
24960,note_on,1,0,0,,6,,,66,127
24960,note_on,0,0,0,,12,,,71,127
24960,note_on,0,0,0,,3,,,75,127
25087,note_off,127,0,0,,3,,,75,127
25088,note_on,1,0,0,,6,,,78,127
25215,note_off,127,0,0,,6,,,78,127
25216,note_on,1,0,0,,3,,,75,127
25343,note_off,127,0,0,,3,,,75,127
25343,note_off,0,0,0,,12,,,71,127
25343,note_off,0,0,0,,6,,,66,127
25344,note_on,1,0,0,,6,,,66,127
25344,note_on,0,0,0,,1,,,73,127
25344,note_on,0,0,0,,3,,,75,127
25727,note_off,383,0,0,,3,,,75,127
25727,note_off,0,0,0,,1,,,73,127
25727,note_off,0,0,0,,6,,,66,127
25728,note_on,1,0,0,,1,,,73,127
25728,note_on,0,0,0,,6,,,66,127
25728,note_on,0,0,0,,4,,,76,127
25792,note_on,64,0,0,,3,,,75,127
25800,note_off,8,0,0,,4,,,76,127
25856,note_on,56,0,0,,4,,,76,127
25864,note_off,8,0,0,,3,,,75,127
26064,note_off,200,0,0,,6,,,66,127
26111,note_off,47,0,0,,4,,,76,127
26111,note_off,0,0,0,,1,,,73,127
26112,note_on,1,0,0,,12,,,71,127
26112,note_on,0,0,0,,6,,,66,127
26112,note_on,0,0,0,,2,,,74,127
26239,note_off,127,0,0,,2,,,74,127
26240,note_on,1,0,0,,6,,,78,127
26367,note_off,127,0,0,,6,,,78,127
26368,note_on,1,0,0,,2,,,74,127
26495,note_off,127,0,0,,2,,,74,127
26495,note_off,0,0,0,,6,,,66,127
26495,note_off,0,0,0,,12,,,71,127
26496,note_on,1,0,0,,6,,,66,127
26496,note_on,0,0,0,,1,,,73,127
26496,note_on,0,0,0,,2,,,74,127
26879,note_off,383,0,0,,2,,,74,127
26879,note_off,0,0,0,,1,,,73,127
26879,note_off,0,0,0,,6,,,66,127
26880,note_on,1,0,0,,1,,,73,127
26880,note_on,0,0,0,,6,,,66,127
26880,note_on,0,0,0,,4,,,76,127
26944,note_on,64,0,0,,2,,,74,127
26952,note_off,8,0,0,,4,,,76,127
27008,note_on,56,0,0,,4,,,76,127
27016,note_off,8,0,0,,2,,,74,127
27216,note_off,200,0,0,,6,,,66,127
27263,note_off,47,0,0,,4,,,76,127
27263,note_off,0,0,0,,1,,,73,127
27264,note_on,1,0,0,,12,,,71,127
27264,note_on,0,0,0,,6,,,66,127
27264,note_on,0,0,0,,2,,,74,127
27391,note_off,127,0,0,,2,,,74,127
27392,note_on,1,0,0,,6,,,78,127
27519,note_off,127,0,0,,6,,,78,127
27520,note_on,1,0,0,,2,,,74,127
27647,note_off,127,0,0,,2,,,74,127
27647,note_off,0,0,0,,6,,,66,127
27647,note_off,0,0,0,,12,,,71,127
27648,note_on,1,0,0,,1,,,73,127
27648,note_on,0,0,0,,6,,,66,127
27648,note_on,0,0,0,,2,,,74,127
28031,note_off,383,0,0,,2,,,74,127
28031,note_off,0,0,0,,6,,,66,127
28031,note_off,0,0,0,,1,,,73,127
28032,note_on,1,0,0,,6,,,66,127
28032,note_on,0,0,0,,1,,,73,127
28032,note_on,0,0,0,,4,,,76,127
28096,note_on,64,0,0,,2,,,74,127
28104,note_off,8,0,0,,4,,,76,127
28160,note_on,56,0,0,,4,,,76,127
28168,note_off,8,0,0,,2,,,74,127
28368,note_off,200,0,0,,6,,,66,127
28415,note_off,47,0,0,,4,,,76,127
28415,note_off,0,0,0,,1,,,73,127
28416,note_on,1,0,0,,7,,,67,127
28416,note_on,0,0,0,,2,,,74,127
28416,note_on,0,0,0,,4,,,76,127
28543,note_off,127,0,0,,4,,,76,127
28543,note_off,0,0,0,,2,,,74,127
28544,note_on,1,0,0,,1,,,73,127
28671,note_off,127,0,0,,1,,,73,127
28672,note_on,1,0,0,,12,,,71,127
28799,note_off,127,0,0,,12,,,71,127
28799,note_off,0,0,0,,7,,,67,127
28800,note_on,1,0,0,,7,,,67,127
28800,note_on,0,0,0,,11,,,82,127
29183,note_off,383,0,0,,11,,,82,127
29183,note_off,0,0,0,,7,,,67,127
29184,note_on,1,0,0,,2,,,62,127
29184,note_on,0,0,0,,12,,,83,127
29567,note_off,383,0,0,,12,,,83,127
29567,note_off,0,0,0,,2,,,62,127
29568,note_on,1,0,0,,12,,,71,127
29568,note_on,0,0,0,,4,,,64,127
29568,note_on,0,0,0,,7,,,79,127
29695,note_off,127,0,0,,7,,,79,127
29696,note_on,1,0,0,,4,,,76,127
29823,note_off,127,0,0,,4,,,76,127
29824,note_on,1,0,0,,1,,,73,127
29951,note_off,127,0,0,,1,,,73,127
29951,note_off,0,0,0,,4,,,64,127
29951,note_off,0,0,0,,12,,,71,127
29952,note_on,1,0,0,,6,,,66,127
29952,note_on,0,0,0,,2,,,74,127
29952,note_on,0,0,0,,12,,,71,127
30335,note_off,383,0,0,,12,,,71,127
30335,note_off,0,0,0,,2,,,74,127
30335,note_off,0,0,0,,6,,,66,127
30336,note_on,1,0,0,,6,,,66,127
30336,note_on,0,0,0,,11,,,70,127
30336,note_on,0,0,0,,1,,,73,127
30672,note_off,336,0,0,,6,,,66,127
30719,note_off,47,0,0,,1,,,73,127
30719,note_off,0,0,0,,11,,,70,127
30720,note_on,1,0,0,,7,,,67,127
30720,note_on,0,0,0,,2,,,74,127
30720,note_on,0,0,0,,4,,,76,127
30847,note_off,127,0,0,,4,,,76,127
30847,note_off,0,0,0,,2,,,74,127
30848,note_on,1,0,0,,1,,,73,127
30975,note_off,127,0,0,,1,,,73,127
30976,note_on,1,0,0,,12,,,71,127
31103,note_off,127,0,0,,12,,,71,127
31103,note_off,0,0,0,,7,,,67,127
31104,note_on,1,0,0,,7,,,67,127
31104,note_on,0,0,0,,11,,,82,127
31487,note_off,383,0,0,,11,,,82,127
31487,note_off,0,0,0,,7,,,67,127
31488,note_on,1,0,0,,2,,,62,127
31488,note_on,0,0,0,,12,,,83,127
31871,note_off,383,0,0,,12,,,83,127
31871,note_off,0,0,0,,2,,,62,127
31872,note_on,1,0,0,,12,,,71,127
31872,note_on,0,0,0,,4,,,64,127
31872,note_on,0,0,0,,7,,,79,127
31999,note_off,127,0,0,,7,,,79,127
32000,note_on,1,0,0,,4,,,76,127
32127,note_off,127,0,0,,4,,,76,127
32128,note_on,1,0,0,,1,,,73,127
32255,note_off,127,0,0,,1,,,73,127
32255,note_off,0,0,0,,4,,,64,127
32255,note_off,0,0,0,,12,,,71,127
32256,note_on,1,0,0,,6,,,66,127
32256,note_on,0,0,0,,2,,,74,127
32256,note_on,0,0,0,,12,,,71,127
32639,note_off,383,0,0,,12,,,71,127
32639,note_off,0,0,0,,2,,,74,127
32639,note_off,0,0,0,,6,,,66,127
32640,note_on,1,0,0,,6,,,66,127
32640,note_on,0,0,0,,11,,,70,127
32640,note_on,0,0,0,,2,,,74,127
32735,note_off,95,0,0,,2,,,74,127
32736,note_on,1,0,0,,1,,,73,127
32831,note_off,95,0,0,,1,,,73,127
32832,note_on,1,0,0,,12,,,71,127
32927,note_off,95,0,0,,12,,,71,127
32928,note_on,1,0,0,,1,,,73,127
32976,note_off,48,0,0,,6,,,66,127
33023,note_off,47,0,0,,1,,,73,127
33023,note_off,0,0,0,,11,,,70,127
33024,note_on,1,0,0,,12,,,71,127
33215,note_off,191,0,0,,12,,,71,127
33216,note_on,1,0,0,,12,,,59,127
33216,note_on,0,0,0,,12,,,83,127
33407,note_off,191,0,0,,12,,,59,127
33408,note_on,1,0,0,,3,,,63,127
33599,note_off,191,0,0,,3,,,63,127
33599,note_off,0,0,0,,12,,,83,127
33600,note_on,1,0,0,,6,,,66,127
33600,note_on,0,0,0,,6,,,78,127
33791,note_off,191,0,0,,6,,,78,127
33791,note_off,0,0,0,,6,,,66,127
33792,note_on,1,0,0,,12,,,71,127
33792,note_on,0,0,0,,6,,,78,127
33983,note_off,191,0,0,,6,,,78,127
33983,note_off,0,0,0,,12,,,71,127
33984,note_on,1,0,0,,4,,,64,127
33984,note_on,0,0,0,,8,,,80,127
34175,note_off,191,0,0,,8,,,80,127
34175,note_off,0,0,0,,4,,,64,127
34176,note_on,1,0,0,,6,,,66,127
34176,note_on,0,0,0,,6,,,78,127
34271,note_off,95,0,0,,6,,,78,127
34272,note_on,1,0,0,,4,,,76,127
34367,note_off,95,0,0,,4,,,76,127
34367,note_off,0,0,0,,6,,,66,127
34368,note_on,1,0,0,,6,,,54,127
34368,note_on,0,0,0,,3,,,75,127
34463,note_off,95,0,0,,3,,,75,127
34464,note_on,1,0,0,,1,,,73,127
34559,note_off,95,0,0,,1,,,73,127
34560,note_on,1,0,0,,12,,,71,127
34656,note_off,96,0,0,,6,,,54,127
34751,note_off,95,0,0,,12,,,71,127
34752,note_on,1,0,0,,12,,,59,127
34752,note_on,0,0,0,,12,,,83,127
34943,note_off,191,0,0,,12,,,59,127
34944,note_on,1,0,0,,3,,,63,127
35135,note_off,191,0,0,,3,,,63,127
35135,note_off,0,0,0,,12,,,83,127
35136,note_on,1,0,0,,6,,,66,127
35136,note_on,0,0,0,,6,,,78,127
35327,note_off,191,0,0,,6,,,78,127
35327,note_off,0,0,0,,6,,,66,127
35328,note_on,1,0,0,,12,,,71,127
35328,note_on,0,0,0,,6,,,78,127
35519,note_off,191,0,0,,6,,,78,127
35519,note_off,0,0,0,,12,,,71,127
35520,note_on,1,0,0,,4,,,64,127
35520,note_on,0,0,0,,8,,,80,127
35711,note_off,191,0,0,,8,,,80,127
35711,note_off,0,0,0,,4,,,64,127
35712,note_on,1,0,0,,6,,,66,127
35712,note_on,0,0,0,,6,,,78,127
35807,note_off,95,0,0,,6,,,78,127
35808,note_on,1,0,0,,4,,,76,127
35903,note_off,95,0,0,,4,,,76,127
35903,note_off,0,0,0,,6,,,66,127
35904,note_on,1,0,0,,6,,,54,127
35904,note_on,0,0,0,,3,,,75,127
35999,note_off,95,0,0,,3,,,75,127
36000,note_on,1,0,0,,1,,,73,127
36095,note_off,95,0,0,,1,,,73,127
36096,note_on,1,0,0,,12,,,71,127
36192,note_off,96,0,0,,6,,,54,127
36287,note_off,95,0,0,,12,,,71,127
36288,note_on,1,0,0,,12,,,71,127
36288,note_on,0,0,0,,6,,,78,127
36479,note_off,191,0,0,,12,,,71,127
36480,note_on,1,0,0,,11,,,70,127
36575,note_off,95,0,0,,6,,,78,127
36576,note_on,1,0,0,,6,,,78,127
36671,note_off,95,0,0,,6,,,78,127
36671,note_off,0,0,0,,11,,,70,127
36672,note_on,1,0,0,,6,,,66,127
36672,note_on,0,0,0,,8,,,80,127
36767,note_off,95,0,0,,8,,,80,127
36768,note_on,1,0,0,,4,,,76,127
36863,note_off,95,0,0,,4,,,76,127
36864,note_on,1,0,0,,3,,,75,127
36960,note_off,96,0,0,,6,,,66,127
37055,note_off,95,0,0,,3,,,75,127
37056,note_on,1,0,0,,12,,,71,127
37056,note_on,0,0,0,,6,,,78,127
37247,note_off,191,0,0,,12,,,71,127
37248,note_on,1,0,0,,11,,,70,127
37343,note_off,95,0,0,,6,,,78,127
37344,note_on,1,0,0,,6,,,78,127
37439,note_off,95,0,0,,6,,,78,127
37439,note_off,0,0,0,,11,,,70,127
37440,note_on,1,0,0,,6,,,66,127
37440,note_on,0,0,0,,8,,,80,127
37535,note_off,95,0,0,,8,,,80,127
37536,note_on,1,0,0,,4,,,76,127
37631,note_off,95,0,0,,4,,,76,127
37631,note_off,0,0,0,,6,,,66,127
37632,note_on,1,0,0,,12,,,59,127
37632,note_on,0,0,0,,3,,,75,127
37823,note_off,191,0,0,,3,,,75,127
37823,note_off,0,0,0,,12,,,59,127
37824,note_on,1,0,0,,12,,,71,127
37824,note_on,0,0,0,,12,,,83,127
38015,note_off,191,0,0,,12,,,71,127
38016,note_on,1,0,0,,12,,,71,127
38016,note_on,0,0,0,,8,,,68,127
38111,note_off,95,0,0,,12,,,83,127
38112,note_on,1,0,0,,5,,,77,127
38207,note_off,95,0,0,,5,,,77,127
38207,note_off,0,0,0,,8,,,68,127
38207,note_off,0,0,0,,12,,,71,127
38208,note_on,1,0,0,,8,,,68,127
38208,note_on,0,0,0,,12,,,71,127
38208,note_on,0,0,0,,6,,,78,127
38303,note_off,95,0,0,,6,,,78,127
38304,note_on,1,0,0,,5,,,77,127
38399,note_off,95,0,0,,5,,,77,127
38399,note_off,0,0,0,,12,,,71,127
38399,note_off,0,0,0,,8,,,68,127
38400,note_on,1,0,0,,1,,,73,127
38400,note_on,0,0,0,,11,,,70,127
38400,note_on,0,0,0,,6,,,78,127
38495,note_off,95,0,0,,6,,,78,127
38496,note_on,1,0,0,,6,,,78,127
38591,note_off,95,0,0,,6,,,78,127
38591,note_off,0,0,0,,11,,,70,127
38591,note_off,0,0,0,,1,,,73,127
38592,note_on,1,0,0,,11,,,70,127
38592,note_on,0,0,0,,1,,,73,127
38592,note_on,0,0,0,,8,,,80,127
38687,note_off,95,0,0,,8,,,80,127
38688,note_on,1,0,0,,6,,,78,127
38783,note_off,95,0,0,,6,,,78,127
38783,note_off,0,0,0,,1,,,73,127
38783,note_off,0,0,0,,11,,,70,127
38784,note_on,1,0,0,,8,,,68,127
38784,note_on,0,0,0,,12,,,71,127
38784,note_on,0,0,0,,12,,,83,127
38879,note_off,95,0,0,,12,,,83,127
38880,note_on,1,0,0,,5,,,77,127
38975,note_off,95,0,0,,5,,,77,127
38975,note_off,0,0,0,,12,,,71,127
38975,note_off,0,0,0,,8,,,68,127
38976,note_on,1,0,0,,8,,,68,127
38976,note_on,0,0,0,,12,,,71,127
38976,note_on,0,0,0,,6,,,78,127
39071,note_off,95,0,0,,6,,,78,127
39072,note_on,1,0,0,,5,,,77,127
39167,note_off,95,0,0,,5,,,77,127
39167,note_off,0,0,0,,12,,,71,127
39167,note_off,0,0,0,,8,,,68,127
39168,note_on,1,0,0,,11,,,70,127
39168,note_on,0,0,0,,1,,,73,127
39168,note_on,0,0,0,,6,,,78,127
39263,note_off,95,0,0,,6,,,78,127
39264,note_on,1,0,0,,6,,,78,127
39359,note_off,95,0,0,,6,,,78,127
39359,note_off,0,0,0,,1,,,73,127
39359,note_off,0,0,0,,11,,,70,127
39360,note_on,1,0,0,,11,,,70,127
39360,note_on,0,0,0,,1,,,73,127
39360,note_on,0,0,0,,8,,,80,127
39455,note_off,95,0,0,,8,,,80,127
39456,note_on,1,0,0,,6,,,78,127
39551,note_off,95,0,0,,6,,,78,127
39551,note_off,0,0,0,,1,,,73,127
39551,note_off,0,0,0,,11,,,70,127
39552,note_on,1,0,0,,8,,,68,127
39552,note_on,0,0,0,,12,,,71,127
39552,note_on,0,0,0,,12,,,83,127
39647,note_off,95,0,0,,12,,,83,127
39648,note_on,1,0,0,,5,,,77,127
39743,note_off,95,0,0,,5,,,77,127
39743,note_off,0,0,0,,12,,,71,127
39743,note_off,0,0,0,,8,,,68,127
39744,note_on,1,0,0,,8,,,68,127
39744,note_on,0,0,0,,12,,,71,127
39744,note_on,0,0,0,,6,,,78,127
39839,note_off,95,0,0,,6,,,78,127
39840,note_on,1,0,0,,5,,,77,127
39935,note_off,95,0,0,,5,,,77,127
39936,note_on,1,0,0,,1,,,85,127
40032,note_off,96,0,0,,12,,,71,127
40032,note_off,0,0,0,,8,,,68,127
40127,note_off,95,0,0,,1,,,85,127
40128,note_on,1,0,0,,6,,,66,127
40128,note_on,0,0,0,,11,,,82,127
40319,note_off,191,0,0,,6,,,66,127
40320,note_on,1,0,0,,11,,,70,127
40511,note_off,191,0,0,,11,,,70,127
40511,note_off,0,0,0,,11,,,82,127
40512,note_on,1,0,0,,1,,,73,127
40512,note_on,0,0,0,,4,,,76,127
40703,note_off,191,0,0,,4,,,76,127
40704,note_on,1,0,0,,1,,,85,127
40800,note_off,96,0,0,,1,,,73,127
40895,note_off,95,0,0,,1,,,85,127
40896,note_on,1,0,0,,6,,,66,127
40896,note_on,0,0,0,,11,,,82,127
41087,note_off,191,0,0,,6,,,66,127
41088,note_on,1,0,0,,11,,,70,127
41279,note_off,191,0,0,,11,,,70,127
41279,note_off,0,0,0,,11,,,82,127
41280,note_on,1,0,0,,1,,,73,127
41280,note_on,0,0,0,,4,,,76,127
41471,note_off,191,0,0,,4,,,76,127
41471,note_off,0,0,0,,1,,,73,127
41472,note_on,1,0,0,,12,,,71,127
41472,note_on,0,0,0,,3,,,75,127
41567,note_off,95,0,0,,3,,,75,127
41568,note_on,1,0,0,,6,,,78,127
41663,note_off,95,0,0,,6,,,78,127
41663,note_off,0,0,0,,12,,,71,127
41664,note_on,1,0,0,,4,,,64,127
41664,note_on,0,0,0,,4,,,76,127
41759,note_off,95,0,0,,4,,,76,127
41760,note_on,1,0,0,,1,,,73,127
41855,note_off,95,0,0,,1,,,73,127
41855,note_off,0,0,0,,4,,,64,127
41856,note_on,1,0,0,,6,,,66,127
41856,note_on,0,0,0,,3,,,75,127
42047,note_off,191,0,0,,3,,,75,127
42047,note_off,0,0,0,,6,,,66,127
42048,note_on,1,0,0,,6,,,54,127
42048,note_on,0,0,0,,3,,,75,127
42095,note_off,47,0,0,,3,,,75,127
42096,note_on,1,0,0,,1,,,73,127
42143,note_off,47,0,0,,1,,,73,127
42144,note_on,1,0,0,,12,,,71,127
42191,note_off,47,0,0,,12,,,71,127
42192,note_on,1,0,0,,1,,,73,127
42239,note_off,47,0,0,,1,,,73,127
42239,note_off,0,0,0,,6,,,54,127
42240,note_on,1,0,0,,12,,,59,127
42240,note_on,0,0,0,,12,,,71,127
42431,note_off,191,0,0,,12,,,71,127
42431,note_off,0,0,0,,12,,,59,127
42432,note_on,1,0,0,,3,,,63,127
42432,note_on,0,0,0,,6,,,78,127
42623,note_off,191,0,0,,6,,,78,127
42623,note_off,0,0,0,,3,,,63,127
42624,note_on,1,0,0,,4,,,64,127
42624,note_on,0,0,0,,8,,,80,127
42719,note_off,95,0,0,,8,,,80,127
42720,note_on,1,0,0,,4,,,76,127
42815,note_off,95,0,0,,4,,,76,127
42815,note_off,0,0,0,,4,,,64,127
42816,note_on,1,0,0,,1,,,61,127
42816,note_on,0,0,0,,11,,,82,127
42911,note_off,95,0,0,,11,,,82,127
42912,note_on,1,0,0,,6,,,78,127
43007,note_off,95,0,0,,6,,,78,127
43007,note_off,0,0,0,,1,,,61,127
43008,note_on,1,0,0,,3,,,63,127
43008,note_on,0,0,0,,6,,,66,127
43008,note_on,0,0,0,,12,,,83,127
43104,note_on,96,0,0,,12,,,71,127
43128,note_off,24,0,0,,12,,,83,127
43199,note_off,71,0,0,,12,,,71,127
43199,note_off,0,0,0,,6,,,66,127
43199,note_off,0,0,0,,3,,,63,127
43200,note_on,1,0,0,,3,,,63,127
43200,note_on,0,0,0,,6,,,66,127
43200,note_on,0,0,0,,1,,,73,127
43295,note_off,95,0,0,,1,,,73,127
43296,note_on,1,0,0,,12,,,71,127
43391,note_off,95,0,0,,12,,,71,127
43391,note_off,0,0,0,,6,,,66,127
43391,note_off,0,0,0,,3,,,63,127
43392,note_on,1,0,0,,4,,,64,127
43392,note_on,0,0,0,,6,,,66,127
43392,note_on,0,0,0,,11,,,82,127
43488,note_on,96,0,0,,12,,,71,127
43512,note_off,24,0,0,,11,,,82,127
43583,note_off,71,0,0,,12,,,71,127
43583,note_off,0,0,0,,6,,,66,127
43583,note_off,0,0,0,,4,,,64,127
43584,note_on,1,0,0,,4,,,64,127
43584,note_on,0,0,0,,6,,,66,127
43584,note_on,0,0,0,,1,,,73,127
43679,note_off,95,0,0,,1,,,73,127
43680,note_on,1,0,0,,12,,,71,127
43775,note_off,95,0,0,,12,,,71,127
43775,note_off,0,0,0,,6,,,66,127
43775,note_off,0,0,0,,4,,,64,127
43776,note_on,1,0,0,,3,,,63,127
43776,note_on,0,0,0,,6,,,66,127
43776,note_on,0,0,0,,12,,,83,127
43872,note_on,96,0,0,,12,,,71,127
43896,note_off,24,0,0,,12,,,83,127
43967,note_off,71,0,0,,12,,,71,127
43967,note_off,0,0,0,,6,,,66,127
43967,note_off,0,0,0,,3,,,63,127
43968,note_on,1,0,0,,3,,,63,127
43968,note_on,0,0,0,,6,,,66,127
43968,note_on,0,0,0,,1,,,73,127
44063,note_off,95,0,0,,1,,,73,127
44064,note_on,1,0,0,,12,,,71,127
44159,note_off,95,0,0,,12,,,71,127
44159,note_off,0,0,0,,6,,,66,127
44159,note_off,0,0,0,,3,,,63,127
44160,note_on,1,0,0,,4,,,64,127
44160,note_on,0,0,0,,6,,,66,127
44160,note_on,0,0,0,,11,,,82,127
44256,note_on,96,0,0,,12,,,71,127
44280,note_off,24,0,0,,11,,,82,127
44351,note_off,71,0,0,,12,,,71,127
44351,note_off,0,0,0,,6,,,66,127
44351,note_off,0,0,0,,4,,,64,127
44352,note_on,1,0,0,,4,,,64,127
44352,note_on,0,0,0,,6,,,66,127
44352,note_on,0,0,0,,1,,,73,127
44447,note_off,95,0,0,,1,,,73,127
44448,note_on,1,0,0,,12,,,71,127
44543,note_off,95,0,0,,12,,,71,127
44543,note_off,0,0,0,,6,,,66,127
44543,note_off,0,0,0,,4,,,64,127
44544,note_on,1,0,0,,3,,,63,127
44544,note_on,0,0,0,,6,,,66,127
44544,note_on,0,0,0,,12,,,83,127
44639,note_off,95,0,0,,12,,,83,127
44640,note_on,1,0,0,,6,,,78,127
44735,note_off,95,0,0,,6,,,78,127
44735,note_off,0,0,0,,6,,,66,127
44735,note_off,0,0,0,,3,,,63,127
44736,note_on,1,0,0,,4,,,64,127
44736,note_on,0,0,0,,8,,,80,127
44831,note_off,95,0,0,,8,,,80,127
44832,note_on,1,0,0,,4,,,76,127
44927,note_off,95,0,0,,4,,,76,127
44927,note_off,0,0,0,,4,,,64,127
44928,note_on,1,0,0,,6,,,66,127
44928,note_on,0,0,0,,3,,,75,127
45119,note_off,191,0,0,,3,,,75,127
45119,note_off,0,0,0,,6,,,66,127
45120,note_on,1,0,0,,6,,,54,127
45120,note_on,0,0,0,,3,,,75,127
45167,note_off,47,0,0,,3,,,75,127
45168,note_on,1,0,0,,1,,,73,127
45215,note_off,47,0,0,,1,,,73,127
45216,note_on,1,0,0,,12,,,71,127
45263,note_off,47,0,0,,12,,,71,127
45264,note_on,1,0,0,,1,,,73,127
45311,note_off,47,0,0,,1,,,73,127
45311,note_off,0,0,0,,6,,,54,127
45312,note_on,1,0,0,,12,,,59,127
45312,note_on,0,0,0,,12,,,71,127
45503,note_off,191,0,0,,12,,,71,127
45503,note_off,0,0,0,,12,,,59,127
45504,note_on,1,0,0,,3,,,63,127
45504,note_on,0,0,0,,6,,,78,127
45695,note_off,191,0,0,,6,,,78,127
45695,note_off,0,0,0,,3,,,63,127
45696,note_on,1,0,0,,4,,,64,127
45696,note_on,0,0,0,,8,,,80,127
45791,note_off,95,0,0,,8,,,80,127
45792,note_on,1,0,0,,4,,,76,127
45887,note_off,95,0,0,,4,,,76,127
45887,note_off,0,0,0,,4,,,64,127
45888,note_on,1,0,0,,1,,,61,127
45888,note_on,0,0,0,,11,,,82,127
45983,note_off,95,0,0,,11,,,82,127
45984,note_on,1,0,0,,6,,,78,127
46079,note_off,95,0,0,,6,,,78,127
46079,note_off,0,0,0,,1,,,61,127
46080,note_on,1,0,0,,6,,,66,127
46080,note_on,0,0,0,,3,,,63,127
46080,note_on,0,0,0,,12,,,83,127
46176,note_on,96,0,0,,12,,,71,127
46230,note_off,54,0,0,,12,,,83,127
46271,note_off,41,0,0,,12,,,71,127
46271,note_off,0,0,0,,3,,,63,127
46271,note_off,0,0,0,,6,,,66,127
46272,note_on,1,0,0,,6,,,66,127
46272,note_on,0,0,0,,3,,,63,127
46272,note_on,0,0,0,,1,,,73,127
46367,note_off,95,0,0,,1,,,73,127
46368,note_on,1,0,0,,12,,,71,127
46463,note_off,95,0,0,,12,,,71,127
46463,note_off,0,0,0,,3,,,63,127
46463,note_off,0,0,0,,6,,,66,127
46464,note_on,1,0,0,,6,,,66,127
46464,note_on,0,0,0,,4,,,64,127
46464,note_on,0,0,0,,11,,,82,127
46560,note_on,96,0,0,,12,,,71,127
46614,note_off,54,0,0,,11,,,82,127
46655,note_off,41,0,0,,12,,,71,127
46655,note_off,0,0,0,,4,,,64,127
46655,note_off,0,0,0,,6,,,66,127
46656,note_on,1,0,0,,4,,,64,127
46656,note_on,0,0,0,,6,,,66,127
46656,note_on,0,0,0,,1,,,73,127
46751,note_off,95,0,0,,1,,,73,127
46752,note_on,1,0,0,,12,,,71,127
46847,note_off,95,0,0,,12,,,71,127
46847,note_off,0,0,0,,6,,,66,127
46847,note_off,0,0,0,,4,,,64,127
46848,note_on,1,0,0,,3,,,63,127
46848,note_on,0,0,0,,6,,,66,127
46848,note_on,0,0,0,,12,,,83,127
46944,note_on,96,0,0,,12,,,71,127
46998,note_off,54,0,0,,12,,,83,127
47039,note_off,41,0,0,,12,,,71,127
47039,note_off,0,0,0,,6,,,66,127
47039,note_off,0,0,0,,3,,,63,127
47040,note_on,1,0,0,,3,,,63,127
47040,note_on,0,0,0,,6,,,66,127
47040,note_on,0,0,0,,1,,,73,127
47135,note_off,95,0,0,,1,,,73,127
47136,note_on,1,0,0,,12,,,71,127
47231,note_off,95,0,0,,12,,,71,127
47231,note_off,0,0,0,,6,,,66,127
47231,note_off,0,0,0,,3,,,63,127
47232,note_on,1,0,0,,4,,,64,127
47232,note_on,0,0,0,,6,,,66,127
47232,note_on,0,0,0,,11,,,82,127
47328,note_on,96,0,0,,12,,,71,127
47382,note_off,54,0,0,,11,,,82,127
47423,note_off,41,0,0,,12,,,71,127
47423,note_off,0,0,0,,6,,,66,127
47423,note_off,0,0,0,,4,,,64,127
47424,note_on,1,0,0,,4,,,64,127
47424,note_on,0,0,0,,6,,,66,127
47424,note_on,0,0,0,,1,,,73,127
47519,note_off,95,0,0,,1,,,73,127
47520,note_on,1,0,0,,12,,,71,127
47615,note_off,95,0,0,,12,,,71,127
47615,note_off,0,0,0,,6,,,66,127
47615,note_off,0,0,0,,4,,,64,127
47616,note_on,1,0,0,,6,,,66,127
47616,note_on,0,0,0,,3,,,63,127
47616,note_on,0,0,0,,12,,,83,127
47712,note_on,96,0,0,,6,,,78,127
47736,note_off,24,0,0,,12,,,83,127
47807,note_off,71,0,0,,6,,,78,127
47807,note_off,0,0,0,,3,,,63,127
47807,note_off,0,0,0,,6,,,66,127
47808,note_on,1,0,0,,4,,,64,127
47808,note_on,0,0,0,,8,,,80,127
47903,note_off,95,0,0,,8,,,80,127
47904,note_on,1,0,0,,4,,,76,127
47999,note_off,95,0,0,,4,,,76,127
47999,note_off,0,0,0,,4,,,64,127
48000,note_on,1,0,0,,6,,,66,127
48000,note_on,0,0,0,,3,,,75,127
48000,note_on,0,0,0,,12,,,71,127
48191,note_off,191,0,0,,12,,,71,127
48191,note_off,0,0,0,,3,,,75,127
48191,note_off,0,0,0,,6,,,66,127
48192,note_on,1,0,0,,4,,,64,127
48192,note_on,0,0,0,,11,,,70,127
48192,note_on,0,0,0,,1,,,73,127
48383,note_off,191,0,0,,1,,,73,127
48383,note_off,0,0,0,,11,,,70,127
48383,note_off,0,0,0,,4,,,64,127
48384,note_on,1,0,0,,3,,,63,127
48384,note_on,0,0,0,,12,,,83,127
48480,note_on,96,0,0,,6,,,78,127
48514,note_off,34,0,0,,12,,,83,127
48575,note_off,61,0,0,,6,,,78,127
48575,note_off,0,0,0,,3,,,63,127
48576,note_on,1,0,0,,4,,,64,127
48576,note_on,0,0,0,,8,,,80,127
48671,note_off,95,0,0,,8,,,80,127
48672,note_on,1,0,0,,4,,,76,127
48767,note_off,95,0,0,,4,,,76,127
48767,note_off,0,0,0,,4,,,64,127
48768,note_on,1,0,0,,6,,,66,127
48768,note_on,0,0,0,,3,,,75,127
48768,note_on,0,0,0,,12,,,71,127
48959,note_off,191,0,0,,12,,,71,127
48959,note_off,0,0,0,,3,,,75,127
48959,note_off,0,0,0,,6,,,66,127
48960,note_on,1,0,0,,4,,,64,127
48960,note_on,0,0,0,,11,,,70,127
48960,note_on,0,0,0,,1,,,73,127
49151,note_off,191,0,0,,1,,,73,127
49151,note_off,0,0,0,,11,,,70,127
49151,note_off,0,0,0,,4,,,64,127
49152,note_on,1,0,0,,3,,,63,127
49152,note_on,0,0,0,,12,,,83,127
49248,note_on,96,0,0,,6,,,78,127
49292,note_off,44,0,0,,12,,,83,127
49343,note_off,51,0,0,,6,,,78,127
49343,note_off,0,0,0,,3,,,63,127
49344,note_on,1,0,0,,4,,,64,127
49344,note_on,0,0,0,,8,,,80,127
49439,note_off,95,0,0,,8,,,80,127
49440,note_on,1,0,0,,4,,,76,127
49535,note_off,95,0,0,,4,,,76,127
49535,note_off,0,0,0,,4,,,64,127
49536,note_on,1,0,0,,6,,,66,127
49536,note_on,0,0,0,,3,,,75,127
49632,note_on,96,0,0,,12,,,83,127
49656,note_off,24,0,0,,3,,,75,127
49727,note_off,71,0,0,,6,,,66,127
49728,note_on,1,0,0,,6,,,54,127
49728,note_on,0,0,0,,1,,,73,127
49772,note_off,44,0,0,,12,,,83,127
49824,note_on,52,0,0,,11,,,82,127
49848,note_off,24,0,0,,1,,,73,127
49919,note_off,71,0,0,,11,,,82,127
49919,note_off,0,0,0,,6,,,54,127
49920,note_on,1,0,0,,12,,,47,127
49920,note_on,0,0,0,,12,,,83,127
50015,note_off,95,0,0,,12,,,83,127
50016,note_on,1,0,0,,6,,,78,127
50111,note_off,95,0,0,,6,,,78,127
50112,note_on,1,0,0,,3,,,75,127
50207,note_off,95,0,0,,3,,,75,127
50208,note_on,1,0,0,,12,,,71,127
50303,note_off,95,0,0,,12,,,71,127
50303,note_off,0,0,0,,12,,,47,127
50304,note_on,1,0,0,,6,,,66,127
50399,note_off,95,0,0,,6,,,66,127
50400,note_on,1,0,0,,3,,,63,127
50495,note_off,95,0,0,,3,,,63,127
50496,note_on,1,0,0,,12,,,59,127
50591,note_off,95,0,0,,12,,,59,127
50592,note_on,1,0,0,,6,,,54,127
50687,note_off,95,0,0,,6,,,54,127
50688,note_on,1,0,0,,3,,,51,127
50783,note_off,95,0,0,,3,,,51,127
50784,note_on,1,0,0,,12,,,47,127
50879,note_off,95,0,0,,12,,,47,127
50880,note_on,1,0,0,,6,,,42,127
50975,note_off,95,0,0,,6,,,42,127
50976,note_on,1,0,0,,3,,,39,127
51071,note_off,95,0,0,,3,,,39,127
51072,note_on,1,0,0,,12,,,35,127
51455,note_off,383,0,0,,12,,,35,127
51456,note_on,1,0,0,,12,,,59,127
51647,note_off,191,0,0,,12,,,59,127
51648,note_on,1,0,0,,12,,,71,127
51648,note_on,0,0,0,,6,,,78,127
51839,note_off,191,0,0,,12,,,71,127
51840,note_on,1,0,0,,11,,,70,127
51935,note_off,95,0,0,,6,,,78,127
51936,note_on,1,0,0,,4,,,76,127
52031,note_off,95,0,0,,4,,,76,127
52031,note_off,0,0,0,,11,,,70,127
52032,note_on,1,0,0,,8,,,68,127
52032,note_on,0,0,0,,3,,,75,127
52127,note_off,95,0,0,,3,,,75,127
52128,note_on,1,0,0,,4,,,76,127
52223,note_off,95,0,0,,4,,,76,127
52223,note_off,0,0,0,,8,,,68,127
52224,note_on,1,0,0,,6,,,66,127
52224,note_on,0,0,0,,6,,,78,127
52319,note_off,95,0,0,,6,,,78,127
52320,note_on,1,0,0,,8,,,80,127
52415,note_off,95,0,0,,8,,,80,127
52415,note_off,0,0,0,,6,,,66,127
52416,note_on,1,0,0,,4,,,64,127
52416,note_on,0,0,0,,10,,,81,127
52511,note_off,95,0,0,,10,,,81,127
52512,note_on,1,0,0,,12,,,83,127
52607,note_off,95,0,0,,12,,,83,127
52607,note_off,0,0,0,,4,,,64,127
52608,note_on,1,0,0,,3,,,63,127
52608,note_on,0,0,0,,10,,,81,127
52703,note_off,95,0,0,,10,,,81,127
52704,note_on,1,0,0,,8,,,80,127
52799,note_off,95,0,0,,8,,,80,127
52799,note_off,0,0,0,,3,,,63,127
52800,note_on,1,0,0,,1,,,61,127
52800,note_on,0,0,0,,6,,,78,127
52895,note_off,95,0,0,,6,,,78,127
52896,note_on,1,0,0,,4,,,76,127
52991,note_off,95,0,0,,4,,,76,127
52991,note_off,0,0,0,,1,,,61,127
52992,note_on,1,0,0,,12,,,59,127
52992,note_on,0,0,0,,3,,,75,127
53172,note_off,180,0,0,,3,,,75,127
53183,note_off,11,0,0,,12,,,59,127
53184,note_on,1,0,0,,12,,,71,127
53184,note_on,0,0,0,,6,,,78,127
53375,note_off,191,0,0,,12,,,71,127
53376,note_on,1,0,0,,11,,,70,127
53471,note_off,95,0,0,,6,,,78,127
53472,note_on,1,0,0,,4,,,76,127
53567,note_off,95,0,0,,4,,,76,127
53567,note_off,0,0,0,,11,,,70,127
53568,note_on,1,0,0,,8,,,68,127
53568,note_on,0,0,0,,3,,,75,127
53663,note_off,95,0,0,,3,,,75,127
53664,note_on,1,0,0,,4,,,76,127
53759,note_off,95,0,0,,4,,,76,127
53759,note_off,0,0,0,,8,,,68,127
53760,note_on,1,0,0,,6,,,66,127
53760,note_on,0,0,0,,6,,,78,127
53855,note_off,95,0,0,,6,,,78,127
53856,note_on,1,0,0,,8,,,80,127
53951,note_off,95,0,0,,8,,,80,127
53951,note_off,0,0,0,,6,,,66,127
53952,note_on,1,0,0,,4,,,64,127
53952,note_on,0,0,0,,10,,,81,127
54047,note_off,95,0,0,,10,,,81,127
54048,note_on,1,0,0,,12,,,83,127
54143,note_off,95,0,0,,12,,,83,127
54143,note_off,0,0,0,,4,,,64,127
54144,note_on,1,0,0,,3,,,63,127
54144,note_on,0,0,0,,10,,,81,127
54239,note_off,95,0,0,,10,,,81,127
54240,note_on,1,0,0,,8,,,80,127
54335,note_off,95,0,0,,8,,,80,127
54335,note_off,0,0,0,,3,,,63,127
54336,note_on,1,0,0,,1,,,61,127
54336,note_on,0,0,0,,6,,,78,127
54431,note_off,95,0,0,,6,,,78,127
54432,note_on,1,0,0,,4,,,76,127
54527,note_off,95,0,0,,4,,,76,127
54527,note_off,0,0,0,,1,,,61,127
54528,note_on,1,0,0,,3,,,75,127
54623,note_off,95,0,0,,3,,,75,127
54624,note_on,1,0,0,,4,,,76,127
54719,note_off,95,0,0,,4,,,76,127
54720,note_on,1,0,0,,12,,,59,127
54720,note_on,0,0,0,,6,,,66,127
54720,note_on,0,0,0,,6,,,78,127
54815,note_off,95,0,0,,6,,,78,127
54816,note_on,1,0,0,,8,,,80,127
54911,note_off,95,0,0,,8,,,80,127
54911,note_off,0,0,0,,6,,,66,127
54911,note_off,0,0,0,,12,,,59,127
54912,note_on,1,0,0,,10,,,57,127
54912,note_on,0,0,0,,6,,,66,127
54912,note_on,0,0,0,,6,,,78,127
55007,note_off,95,0,0,,6,,,78,127
55008,note_on,1,0,0,,4,,,76,127
55103,note_off,95,0,0,,4,,,76,127
55103,note_off,0,0,0,,6,,,66,127
55103,note_off,0,0,0,,10,,,57,127
55104,note_on,1,0,0,,10,,,57,127
55104,note_on,0,0,0,,6,,,66,127
55104,note_on,0,0,0,,3,,,75,127
55199,note_off,95,0,0,,3,,,75,127
55200,note_on,1,0,0,,1,,,73,127
55295,note_off,95,0,0,,1,,,73,127
55295,note_off,0,0,0,,6,,,66,127
55295,note_off,0,0,0,,10,,,57,127
55296,note_on,1,0,0,,6,,,66,127
55296,note_on,0,0,0,,8,,,56,127
55296,note_on,0,0,0,,0,,,72,127
55488,note_on,192,0,0,,10,,,81,127
55584,note_off,96,0,0,,0,,,72,127
55679,note_off,95,0,0,,10,,,81,127
55680,note_on,1,0,0,,6,,,78,127
55871,note_off,191,0,0,,6,,,78,127
55871,note_off,0,0,0,,8,,,56,127
55871,note_off,0,0,0,,6,,,66,127
55872,note_on,1,0,0,,3,,,75,127
56063,note_off,191,0,0,,3,,,75,127
56064,note_on,1,0,0,,0,,,72,127
56255,note_off,191,0,0,,0,,,72,127
56256,note_on,1,0,0,,10,,,69,127
56447,note_off,191,0,0,,10,,,69,127
56448,note_on,1,0,0,,8,,,68,127
56639,note_off,191,0,0,,8,,,68,127
56640,note_on,1,0,0,,8,,,56,127
56640,note_on,0,0,0,,6,,,66,127
56640,note_on,0,0,0,,0,,,72,127
56831,note_off,191,0,0,,0,,,72,127
56831,note_off,0,0,0,,6,,,66,127
56831,note_off,0,0,0,,8,,,56,127
56832,note_on,1,0,0,,8,,,56,127
56832,note_on,0,0,0,,4,,,64,127
56832,note_on,0,0,0,,1,,,73,127
57023,note_off,191,0,0,,4,,,64,127
57023,note_off,0,0,0,,8,,,56,127
57024,note_on,1,0,0,,8,,,56,127
57024,note_on,0,0,0,,4,,,64,127
57215,note_off,191,0,0,,4,,,64,127
57215,note_off,0,0,0,,8,,,56,127
57215,note_off,0,0,0,,1,,,73,127
57216,note_on,1,0,0,,3,,,63,127
57216,note_on,0,0,0,,8,,,56,127
57216,note_on,0,0,0,,4,,,76,127
57279,note_off,63,0,0,,4,,,76,127
57280,note_on,1,0,0,,3,,,75,127
57343,note_off,63,0,0,,3,,,75,127
57344,note_on,1,0,0,,4,,,76,127
57407,note_off,63,0,0,,4,,,76,127
57407,note_off,0,0,0,,8,,,56,127
57407,note_off,0,0,0,,3,,,63,127
57408,note_on,1,0,0,,3,,,63,127
57408,note_on,0,0,0,,8,,,56,127
57408,note_on,0,0,0,,3,,,75,127
57471,note_off,63,0,0,,3,,,75,127
57472,note_on,1,0,0,,1,,,73,127
57535,note_off,63,0,0,,1,,,73,127
57536,note_on,1,0,0,,3,,,75,127
57599,note_off,63,0,0,,3,,,75,127
57599,note_off,0,0,0,,8,,,56,127
57599,note_off,0,0,0,,3,,,63,127
57600,note_on,1,0,0,,1,,,61,127
57600,note_on,0,0,0,,8,,,56,127
57600,note_on,0,0,0,,4,,,64,127
57600,note_on,0,0,0,,4,,,76,127
57663,note_off,63,0,0,,4,,,76,127
57664,note_on,1,0,0,,3,,,75,127
57727,note_off,63,0,0,,3,,,75,127
57728,note_on,1,0,0,,1,,,73,127
57791,note_off,63,0,0,,4,,,64,127
57791,note_off,0,0,0,,8,,,56,127
57791,note_off,0,0,0,,1,,,61,127
57792,note_on,1,0,0,,1,,,61,127
57792,note_on,0,0,0,,4,,,64,127
57792,note_on,0,0,0,,8,,,56,127
57983,note_off,191,0,0,,8,,,56,127
57983,note_off,0,0,0,,4,,,64,127
57983,note_off,0,0,0,,1,,,61,127
57983,note_off,0,0,0,,1,,,73,127
57984,note_on,1,0,0,,3,,,63,127
57984,note_on,0,0,0,,0,,,60,127
57984,note_on,0,0,0,,8,,,56,127
57984,note_on,0,0,0,,3,,,75,127
58047,note_off,63,0,0,,3,,,75,127
58048,note_on,1,0,0,,4,,,76,127
58111,note_off,63,0,0,,4,,,76,127
58112,note_on,1,0,0,,6,,,78,127
58175,note_off,63,0,0,,8,,,56,127
58175,note_off,0,0,0,,0,,,60,127
58175,note_off,0,0,0,,3,,,63,127
58176,note_on,1,0,0,,8,,,56,127
58176,note_on,0,0,0,,3,,,63,127
58176,note_on,0,0,0,,0,,,60,127
58367,note_off,191,0,0,,0,,,60,127
58367,note_off,0,0,0,,3,,,63,127
58367,note_off,0,0,0,,8,,,56,127
58367,note_off,0,0,0,,6,,,78,127
58368,note_on,1,0,0,,4,,,64,127
58368,note_on,0,0,0,,1,,,61,127
58368,note_on,0,0,0,,8,,,56,127
58368,note_on,0,0,0,,4,,,76,127
58431,note_off,63,0,0,,4,,,76,127
58432,note_on,1,0,0,,3,,,75,127
58495,note_off,63,0,0,,3,,,75,127
58496,note_on,1,0,0,,1,,,73,127
58559,note_off,63,0,0,,8,,,56,127
58559,note_off,0,0,0,,1,,,61,127
58559,note_off,0,0,0,,4,,,64,127
58560,note_on,1,0,0,,8,,,56,127
58560,note_on,0,0,0,,4,,,64,127
58560,note_on,0,0,0,,1,,,61,127
58751,note_off,191,0,0,,1,,,61,127
58751,note_off,0,0,0,,4,,,64,127
58751,note_off,0,0,0,,8,,,56,127
58751,note_off,0,0,0,,1,,,73,127
58752,note_on,1,0,0,,0,,,60,127
58752,note_on,0,0,0,,8,,,56,127
58752,note_on,0,0,0,,3,,,63,127
58752,note_on,0,0,0,,3,,,75,127
58815,note_off,63,0,0,,3,,,75,127
58816,note_on,1,0,0,,4,,,76,127
58879,note_off,63,0,0,,4,,,76,127
58880,note_on,1,0,0,,6,,,78,127
58943,note_off,63,0,0,,3,,,63,127
58943,note_off,0,0,0,,8,,,56,127
58943,note_off,0,0,0,,0,,,60,127
58944,note_on,1,0,0,,8,,,56,127
58944,note_on,0,0,0,,3,,,63,127
58944,note_on,0,0,0,,0,,,60,127
59135,note_off,191,0,0,,0,,,60,127
59135,note_off,0,0,0,,3,,,63,127
59135,note_off,0,0,0,,8,,,56,127
59135,note_off,0,0,0,,6,,,78,127
59136,note_on,1,0,0,,1,,,49,127
59136,note_on,0,0,0,,1,,,61,127
59136,note_on,0,0,0,,4,,,76,127
59199,note_off,63,0,0,,4,,,76,127
59200,note_on,1,0,0,,3,,,75,127
59263,note_off,63,0,0,,3,,,75,127
59264,note_on,1,0,0,,1,,,73,127
59327,note_off,63,0,0,,1,,,61,127
59327,note_off,0,0,0,,1,,,49,127
59328,note_on,1,0,0,,4,,,52,127
59328,note_on,0,0,0,,4,,,64,127
59519,note_off,191,0,0,,4,,,64,127
59519,note_off,0,0,0,,4,,,52,127
59520,note_on,1,0,0,,4,,,52,127
59520,note_on,0,0,0,,4,,,64,127
59647,note_off,127,0,0,,1,,,73,127
59711,note_off,64,0,0,,4,,,64,127
59711,note_off,0,0,0,,4,,,52,127
59712,note_on,1,0,0,,2,,,50,127
59712,note_on,0,0,0,,2,,,62,127
59903,note_off,191,0,0,,2,,,62,127
59903,note_off,0,0,0,,2,,,50,127
59904,note_on,1,0,0,,1,,,49,127
59904,note_on,0,0,0,,1,,,61,127
60095,note_off,191,0,0,,1,,,61,127
60095,note_off,0,0,0,,1,,,49,127
60096,note_on,1,0,0,,12,,,59,127
60096,note_on,0,0,0,,12,,,47,127
60287,note_off,191,0,0,,12,,,47,127
60287,note_off,0,0,0,,12,,,59,127
60288,note_on,1,0,0,,11,,,46,127
60288,note_on,0,0,0,,11,,,58,127
60479,note_off,191,0,0,,11,,,58,127
60479,note_off,0,0,0,,11,,,46,127
60480,note_on,1,0,0,,7,,,55,127
60480,note_on,0,0,0,,7,,,43,127
60671,note_off,191,0,0,,7,,,43,127
60671,note_off,0,0,0,,7,,,55,127
60672,note_on,1,0,0,,6,,,54,127
60672,note_on,0,0,0,,6,,,42,127
60864,note_on,192,0,0,,7,,,79,127
61055,note_off,191,0,0,,7,,,79,127
61056,note_on,1,0,0,,4,,,76,127
61247,note_off,191,0,0,,4,,,76,127
61247,note_off,0,0,0,,6,,,42,127
61247,note_off,0,0,0,,6,,,54,127
61248,note_on,1,0,0,,1,,,73,127
61439,note_off,191,0,0,,1,,,73,127
61440,note_on,1,0,0,,11,,,70,127
61631,note_off,191,0,0,,11,,,70,127
61632,note_on,1,0,0,,7,,,67,127
61823,note_off,191,0,0,,7,,,67,127
61824,note_on,1,0,0,,6,,,66,127
62015,note_off,191,0,0,,6,,,66,127
62016,note_on,1,0,0,,6,,,54,127
62016,note_on,0,0,0,,4,,,64,127
62016,note_on,0,0,0,,11,,,70,127
62207,note_off,191,0,0,,11,,,70,127
62207,note_off,0,0,0,,4,,,64,127
62207,note_off,0,0,0,,6,,,54,127
62208,note_on,1,0,0,,6,,,54,127
62208,note_on,0,0,0,,2,,,62,127
62208,note_on,0,0,0,,12,,,71,127
62399,note_off,191,0,0,,2,,,62,127
62399,note_off,0,0,0,,6,,,54,127
62400,note_on,1,0,0,,2,,,62,127
62400,note_on,0,0,0,,6,,,54,127
62591,note_off,191,0,0,,6,,,54,127
62591,note_off,0,0,0,,2,,,62,127
62591,note_off,0,0,0,,12,,,71,127
62592,note_on,1,0,0,,6,,,54,127
62592,note_on,0,0,0,,1,,,61,127
62592,note_on,0,0,0,,2,,,74,127
62655,note_off,63,0,0,,2,,,74,127
62656,note_on,1,0,0,,1,,,73,127
62719,note_off,63,0,0,,1,,,73,127
62720,note_on,1,0,0,,2,,,74,127
62783,note_off,63,0,0,,2,,,74,127
62783,note_off,0,0,0,,1,,,61,127
62783,note_off,0,0,0,,6,,,54,127
62784,note_on,1,0,0,,1,,,61,127
62784,note_on,0,0,0,,6,,,54,127
62784,note_on,0,0,0,,1,,,73,127
62847,note_off,63,0,0,,1,,,73,127
62848,note_on,1,0,0,,12,,,71,127
62911,note_off,63,0,0,,12,,,71,127
62912,note_on,1,0,0,,1,,,73,127
62975,note_off,63,0,0,,1,,,73,127
62975,note_off,0,0,0,,6,,,54,127
62975,note_off,0,0,0,,1,,,61,127
62976,note_on,1,0,0,,12,,,59,127
62976,note_on,0,0,0,,6,,,54,127
62976,note_on,0,0,0,,2,,,62,127
62976,note_on,0,0,0,,2,,,74,127
63039,note_off,63,0,0,,2,,,74,127
63040,note_on,1,0,0,,1,,,73,127
63103,note_off,63,0,0,,1,,,73,127
63104,note_on,1,0,0,,12,,,71,127
63167,note_off,63,0,0,,2,,,62,127
63167,note_off,0,0,0,,6,,,54,127
63167,note_off,0,0,0,,12,,,59,127
63168,note_on,1,0,0,,6,,,54,127
63168,note_on,0,0,0,,12,,,59,127
63168,note_on,0,0,0,,2,,,62,127
63359,note_off,191,0,0,,2,,,62,127
63359,note_off,0,0,0,,12,,,59,127
63359,note_off,0,0,0,,6,,,54,127
63359,note_off,0,0,0,,12,,,71,127
63360,note_on,1,0,0,,11,,,58,127
63360,note_on,0,0,0,,1,,,61,127
63360,note_on,0,0,0,,6,,,54,127
63360,note_on,0,0,0,,1,,,73,127
63423,note_off,63,0,0,,1,,,73,127
63424,note_on,1,0,0,,2,,,74,127
63487,note_off,63,0,0,,2,,,74,127
63488,note_on,1,0,0,,4,,,76,127
63551,note_off,63,0,0,,6,,,54,127
63551,note_off,0,0,0,,1,,,61,127
63551,note_off,0,0,0,,11,,,58,127
63552,note_on,1,0,0,,11,,,58,127
63552,note_on,0,0,0,,6,,,54,127
63552,note_on,0,0,0,,1,,,61,127
63743,note_off,191,0,0,,1,,,61,127
63743,note_off,0,0,0,,6,,,54,127
63743,note_off,0,0,0,,11,,,58,127
63743,note_off,0,0,0,,4,,,76,127
63744,note_on,1,0,0,,6,,,54,127
63744,note_on,0,0,0,,2,,,62,127
63744,note_on,0,0,0,,12,,,59,127
63744,note_on,0,0,0,,2,,,74,127
63807,note_off,63,0,0,,2,,,74,127
63808,note_on,1,0,0,,1,,,73,127
63871,note_off,63,0,0,,1,,,73,127
63872,note_on,1,0,0,,12,,,71,127
63935,note_off,63,0,0,,12,,,59,127
63935,note_off,0,0,0,,2,,,62,127
63935,note_off,0,0,0,,6,,,54,127
63936,note_on,1,0,0,,2,,,62,127
63936,note_on,0,0,0,,12,,,59,127
63936,note_on,0,0,0,,6,,,54,127
64127,note_off,191,0,0,,6,,,54,127
64127,note_off,0,0,0,,12,,,59,127
64127,note_off,0,0,0,,2,,,62,127
64127,note_off,0,0,0,,12,,,71,127
64128,note_on,1,0,0,,11,,,58,127
64128,note_on,0,0,0,,6,,,54,127
64128,note_on,0,0,0,,1,,,61,127
64128,note_on,0,0,0,,1,,,73,127
64191,note_off,63,0,0,,1,,,73,127
64192,note_on,1,0,0,,2,,,74,127
64255,note_off,63,0,0,,2,,,74,127
64256,note_on,1,0,0,,4,,,76,127
64319,note_off,63,0,0,,1,,,61,127
64319,note_off,0,0,0,,6,,,54,127
64319,note_off,0,0,0,,11,,,58,127
64320,note_on,1,0,0,,1,,,61,127
64320,note_on,0,0,0,,11,,,58,127
64320,note_on,0,0,0,,6,,,54,127
64511,note_off,191,0,0,,6,,,54,127
64511,note_off,0,0,0,,11,,,58,127
64511,note_off,0,0,0,,1,,,61,127
64511,note_off,0,0,0,,4,,,76,127
64512,note_on,1,0,0,,2,,,74,127
64575,note_off,63,0,0,,2,,,74,127
64576,note_on,1,0,0,,1,,,73,127
64639,note_off,63,0,0,,1,,,73,127
64640,note_on,1,0,0,,12,,,71,127
64704,note_on,64,0,0,,12,,,59,127
64704,note_on,0,0,0,,6,,,66,127
64895,note_off,191,0,0,,6,,,66,127
64895,note_off,0,0,0,,12,,,59,127
64896,note_on,1,0,0,,6,,,66,127
64896,note_on,0,0,0,,12,,,59,127
65023,note_off,127,0,0,,12,,,71,127
65087,note_off,64,0,0,,12,,,59,127
65087,note_off,0,0,0,,6,,,66,127
65088,note_on,1,0,0,,12,,,59,127
65088,note_on,0,0,0,,6,,,66,127
65088,note_on,0,0,0,,6,,,78,127
65279,note_off,191,0,0,,6,,,78,127
65279,note_off,0,0,0,,6,,,66,127
65279,note_off,0,0,0,,12,,,59,127
65280,note_on,1,0,0,,6,,,66,127
65280,note_on,0,0,0,,12,,,59,127
65280,note_on,0,0,0,,7,,,67,127
65471,note_off,191,0,0,,7,,,67,127
65471,note_off,0,0,0,,12,,,59,127
65471,note_off,0,0,0,,6,,,66,127
65472,note_on,1,0,0,,4,,,64,127
65472,note_on,0,0,0,,12,,,59,127
65472,note_on,0,0,0,,11,,,70,127
65663,note_off,191,0,0,,11,,,70,127
65663,note_off,0,0,0,,12,,,59,127
65663,note_off,0,0,0,,4,,,64,127
65664,note_on,1,0,0,,4,,,64,127
65664,note_on,0,0,0,,12,,,59,127
65664,note_on,0,0,0,,1,,,73,127
65855,note_off,191,0,0,,1,,,73,127
65855,note_off,0,0,0,,12,,,59,127
65855,note_off,0,0,0,,4,,,64,127
65856,note_on,1,0,0,,4,,,64,127
65856,note_on,0,0,0,,12,,,59,127
65856,note_on,0,0,0,,4,,,76,127
66047,note_off,191,0,0,,4,,,76,127
66047,note_off,0,0,0,,12,,,59,127
66047,note_off,0,0,0,,4,,,64,127
66048,note_on,1,0,0,,12,,,59,127
66048,note_on,0,0,0,,6,,,66,127
66048,note_on,0,0,0,,2,,,74,127
66048,note_on,0,0,0,,4,,,76,127
66143,note_off,95,0,0,,4,,,76,127
66143,note_off,0,0,0,,2,,,74,127
66144,note_on,1,0,0,,1,,,73,127
66239,note_off,95,0,0,,1,,,73,127
66239,note_off,0,0,0,,6,,,66,127
66239,note_off,0,0,0,,12,,,59,127
66240,note_on,1,0,0,,12,,,59,127
66240,note_on,0,0,0,,6,,,66,127
66240,note_on,0,0,0,,2,,,74,127
66431,note_off,191,0,0,,6,,,66,127
66431,note_off,0,0,0,,12,,,59,127
66432,note_on,1,0,0,,12,,,59,127
66432,note_on,0,0,0,,6,,,66,127
66528,note_off,96,0,0,,2,,,74,127
66623,note_off,95,0,0,,6,,,66,127
66623,note_off,0,0,0,,12,,,59,127
66624,note_on,1,0,0,,12,,,59,127
66624,note_on,0,0,0,,6,,,66,127
66624,note_on,0,0,0,,6,,,78,127
66815,note_off,191,0,0,,6,,,78,127
66815,note_off,0,0,0,,6,,,66,127
66815,note_off,0,0,0,,12,,,59,127
66816,note_on,1,0,0,,12,,,59,127
66816,note_on,0,0,0,,6,,,66,127
66816,note_on,0,0,0,,7,,,67,127
67007,note_off,191,0,0,,7,,,67,127
67007,note_off,0,0,0,,6,,,66,127
67007,note_off,0,0,0,,12,,,59,127
67008,note_on,1,0,0,,4,,,64,127
67008,note_on,0,0,0,,12,,,59,127
67008,note_on,0,0,0,,11,,,70,127
67199,note_off,191,0,0,,11,,,70,127
67199,note_off,0,0,0,,12,,,59,127
67199,note_off,0,0,0,,4,,,64,127
67200,note_on,1,0,0,,12,,,59,127
67200,note_on,0,0,0,,4,,,64,127
67200,note_on,0,0,0,,1,,,73,127
67391,note_off,191,0,0,,1,,,73,127
67391,note_off,0,0,0,,4,,,64,127
67391,note_off,0,0,0,,12,,,59,127
67392,note_on,1,0,0,,4,,,64,127
67392,note_on,0,0,0,,12,,,59,127
67392,note_on,0,0,0,,4,,,76,127
67583,note_off,191,0,0,,4,,,76,127
67583,note_off,0,0,0,,12,,,59,127
67583,note_off,0,0,0,,4,,,64,127
67584,note_on,1,0,0,,12,,,59,127
67584,note_on,0,0,0,,6,,,66,127
67584,note_on,0,0,0,,2,,,74,127
67584,note_on,0,0,0,,4,,,76,127
67679,note_off,95,0,0,,4,,,76,127
67679,note_off,0,0,0,,2,,,74,127
67680,note_on,1,0,0,,1,,,73,127
67775,note_off,95,0,0,,1,,,73,127
67775,note_off,0,0,0,,6,,,66,127
67775,note_off,0,0,0,,12,,,59,127
67776,note_on,1,0,0,,6,,,66,127
67776,note_on,0,0,0,,12,,,59,127
67776,note_on,0,0,0,,2,,,74,127
67967,note_off,191,0,0,,12,,,59,127
67967,note_off,0,0,0,,6,,,66,127
67968,note_on,1,0,0,,12,,,59,127
67968,note_on,0,0,0,,6,,,66,127
68064,note_off,96,0,0,,2,,,74,127
68159,note_off,95,0,0,,6,,,66,127
68159,note_off,0,0,0,,12,,,59,127
68160,note_on,1,0,0,,12,,,59,127
68160,note_on,0,0,0,,6,,,66,127
68160,note_on,0,0,0,,6,,,78,127
68351,note_off,191,0,0,,6,,,78,127
68351,note_off,0,0,0,,6,,,66,127
68351,note_off,0,0,0,,12,,,59,127
68352,note_on,1,0,0,,8,,,56,127
68352,note_on,0,0,0,,6,,,66,127
68352,note_on,0,0,0,,12,,,71,127
68543,note_off,191,0,0,,6,,,66,127
68543,note_off,0,0,0,,8,,,56,127
68544,note_on,1,0,0,,8,,,56,127
68544,note_on,0,0,0,,6,,,66,127
68544,note_on,0,0,0,,12,,,83,127
68652,note_off,108,0,0,,12,,,71,127
68735,note_off,83,0,0,,6,,,66,127
68735,note_off,0,0,0,,8,,,56,127
68736,note_on,1,0,0,,5,,,65,127
68736,note_on,0,0,0,,8,,,56,127
68736,note_on,0,0,0,,12,,,71,127
68784,note_off,48,0,0,,12,,,83,127
68927,note_off,143,0,0,,8,,,56,127
68927,note_off,0,0,0,,5,,,65,127
68928,note_on,1,0,0,,5,,,65,127
68928,note_on,0,0,0,,8,,,56,127
68928,note_on,0,0,0,,12,,,83,127
69036,note_off,108,0,0,,12,,,71,127
69119,note_off,83,0,0,,12,,,83,127
69119,note_off,0,0,0,,8,,,56,127
69119,note_off,0,0,0,,5,,,65,127
69120,note_on,1,0,0,,6,,,66,127
69120,note_on,0,0,0,,6,,,54,127
69120,note_on,0,0,0,,11,,,82,127
69183,note_off,63,0,0,,11,,,82,127
69184,note_on,1,0,0,,8,,,80,127
69247,note_off,63,0,0,,8,,,80,127
69248,note_on,1,0,0,,6,,,78,127
69311,note_off,63,0,0,,6,,,54,127
69311,note_off,0,0,0,,6,,,66,127
69312,note_on,1,0,0,,6,,,54,127
69312,note_on,0,0,0,,6,,,66,127
69503,note_off,191,0,0,,6,,,66,127
69503,note_off,0,0,0,,6,,,54,127
69504,note_on,1,0,0,,6,,,66,127
69504,note_on,0,0,0,,6,,,54,127
69695,note_off,191,0,0,,6,,,54,127
69695,note_off,0,0,0,,6,,,66,127
69695,note_off,0,0,0,,6,,,78,127
69696,note_on,1,0,0,,6,,,54,127
69696,note_on,0,0,0,,6,,,66,127
69696,note_on,0,0,0,,6,,,78,127
69887,note_off,191,0,0,,6,,,78,127
69887,note_off,0,0,0,,6,,,66,127
69887,note_off,0,0,0,,6,,,54,127
69888,note_on,1,0,0,,8,,,56,127
69888,note_on,0,0,0,,6,,,66,127
69888,note_on,0,0,0,,12,,,71,127
70079,note_off,191,0,0,,6,,,66,127
70079,note_off,0,0,0,,8,,,56,127
70080,note_on,1,0,0,,6,,,66,127
70080,note_on,0,0,0,,8,,,56,127
70080,note_on,0,0,0,,12,,,83,127
70258,note_off,178,0,0,,12,,,71,127
70271,note_off,13,0,0,,8,,,56,127
70271,note_off,0,0,0,,6,,,66,127
70272,note_on,1,0,0,,5,,,65,127
70272,note_on,0,0,0,,8,,,56,127
70272,note_on,0,0,0,,12,,,71,127
70420,note_off,148,0,0,,12,,,83,127
70463,note_off,43,0,0,,8,,,56,127
70463,note_off,0,0,0,,5,,,65,127
70464,note_on,1,0,0,,5,,,65,127
70464,note_on,0,0,0,,8,,,56,127
70464,note_on,0,0,0,,12,,,83,127
70652,note_off,188,0,0,,12,,,71,127
70655,note_off,3,0,0,,12,,,83,127
70655,note_off,0,0,0,,8,,,56,127
70655,note_off,0,0,0,,5,,,65,127
70656,note_on,1,0,0,,6,,,54,127
70656,note_on,0,0,0,,6,,,66,127
70656,note_on,0,0,0,,11,,,82,127
70719,note_off,63,0,0,,11,,,82,127
70720,note_on,1,0,0,,8,,,80,127
70783,note_off,63,0,0,,8,,,80,127
70784,note_on,1,0,0,,6,,,78,127
70847,note_off,63,0,0,,6,,,66,127
70847,note_off,0,0,0,,6,,,54,127
70848,note_on,1,0,0,,6,,,54,127
70848,note_on,0,0,0,,6,,,66,127
71039,note_off,191,0,0,,6,,,66,127
71039,note_off,0,0,0,,6,,,54,127
71039,note_off,0,0,0,,6,,,78,127
71040,note_on,1,0,0,,6,,,54,127
71040,note_on,0,0,0,,4,,,64,127
71040,note_on,0,0,0,,8,,,80,127
71103,note_off,63,0,0,,8,,,80,127
71104,note_on,1,0,0,,6,,,78,127
71167,note_off,63,0,0,,6,,,78,127
71168,note_on,1,0,0,,4,,,76,127
71231,note_off,63,0,0,,4,,,64,127
71231,note_off,0,0,0,,6,,,54,127
71232,note_on,1,0,0,,6,,,54,127
71232,note_on,0,0,0,,4,,,64,127
71423,note_off,191,0,0,,4,,,64,127
71423,note_off,0,0,0,,6,,,54,127
71423,note_off,0,0,0,,4,,,76,127
71424,note_on,1,0,0,,3,,,63,127
71424,note_on,0,0,0,,6,,,54,127
71424,note_on,0,0,0,,6,,,78,127
71487,note_off,63,0,0,,6,,,78,127
71488,note_on,1,0,0,,4,,,76,127
71551,note_off,63,0,0,,4,,,76,127
71552,note_on,1,0,0,,3,,,75,127
71615,note_off,63,0,0,,6,,,54,127
71615,note_off,0,0,0,,3,,,63,127
71616,note_on,1,0,0,,6,,,54,127
71616,note_on,0,0,0,,3,,,63,127
71807,note_off,191,0,0,,3,,,63,127
71807,note_off,0,0,0,,6,,,54,127
71807,note_off,0,0,0,,3,,,75,127
71808,note_on,1,0,0,,1,,,61,127
71808,note_on,0,0,0,,6,,,54,127
71808,note_on,0,0,0,,4,,,76,127
71871,note_off,63,0,0,,4,,,76,127
71872,note_on,1,0,0,,3,,,75,127
71935,note_off,63,0,0,,3,,,75,127
71936,note_on,1,0,0,,1,,,73,127
71999,note_off,63,0,0,,6,,,54,127
71999,note_off,0,0,0,,1,,,61,127
72000,note_on,1,0,0,,6,,,54,127
72000,note_on,0,0,0,,1,,,61,127
72191,note_off,191,0,0,,1,,,61,127
72191,note_off,0,0,0,,6,,,54,127
72191,note_off,0,0,0,,1,,,73,127
72192,note_on,1,0,0,,12,,,59,127
72192,note_on,0,0,0,,3,,,75,127
72255,note_off,63,0,0,,3,,,75,127
72256,note_on,1,0,0,,1,,,73,127
72319,note_off,63,0,0,,1,,,73,127
72320,note_on,1,0,0,,12,,,71,127
72383,note_off,63,0,0,,12,,,59,127
72384,note_on,1,0,0,,12,,,59,127
72575,note_off,191,0,0,,12,,,59,127
72575,note_off,0,0,0,,12,,,71,127
72576,note_on,1,0,0,,6,,,66,127
72576,note_on,0,0,0,,12,,,59,127
72576,note_on,0,0,0,,1,,,73,127
72639,note_off,63,0,0,,1,,,73,127
72640,note_on,1,0,0,,12,,,71,127
72703,note_off,63,0,0,,12,,,71,127
72704,note_on,1,0,0,,10,,,69,127
72767,note_off,63,0,0,,12,,,59,127
72767,note_off,0,0,0,,6,,,66,127
72768,note_on,1,0,0,,6,,,66,127
72768,note_on,0,0,0,,12,,,59,127
72959,note_off,191,0,0,,12,,,59,127
72959,note_off,0,0,0,,6,,,66,127
72959,note_off,0,0,0,,10,,,69,127
72960,note_on,1,0,0,,12,,,59,127
72960,note_on,0,0,0,,4,,,64,127
72960,note_on,0,0,0,,12,,,71,127
73023,note_off,63,0,0,,12,,,71,127
73024,note_on,1,0,0,,10,,,69,127
73087,note_off,63,0,0,,10,,,69,127
73088,note_on,1,0,0,,8,,,68,127
73151,note_off,63,0,0,,4,,,64,127
73151,note_off,0,0,0,,12,,,59,127
73152,note_on,1,0,0,,12,,,59,127
73152,note_on,0,0,0,,4,,,64,127
73343,note_off,191,0,0,,4,,,64,127
73343,note_off,0,0,0,,12,,,59,127
73343,note_off,0,0,0,,8,,,68,127
73344,note_on,1,0,0,,3,,,63,127
73344,note_on,0,0,0,,12,,,59,127
73344,note_on,0,0,0,,10,,,69,127
73407,note_off,63,0,0,,10,,,69,127
73408,note_on,1,0,0,,8,,,68,127
73471,note_off,63,0,0,,8,,,68,127
73472,note_on,1,0,0,,6,,,66,127
73535,note_off,63,0,0,,12,,,59,127
73535,note_off,0,0,0,,3,,,63,127
73536,note_on,1,0,0,,3,,,63,127
73536,note_on,0,0,0,,12,,,59,127
73727,note_off,191,0,0,,12,,,59,127
73727,note_off,0,0,0,,3,,,63,127
73727,note_off,0,0,0,,6,,,66,127
73728,note_on,1,0,0,,4,,,52,127
73728,note_on,0,0,0,,8,,,68,127
73791,note_off,63,0,0,,8,,,68,127
73792,note_on,1,0,0,,6,,,66,127
73855,note_off,63,0,0,,6,,,66,127
73856,note_on,1,0,0,,4,,,64,127
74239,note_off,383,0,0,,4,,,64,127
74303,note_off,64,0,0,,4,,,52,127
74304,note_on,1,0,0,,4,,,76,127
74495,note_off,191,0,0,,4,,,76,127
74496,note_on,1,0,0,,12,,,83,127
74687,note_off,191,0,0,,12,,,83,127
74688,note_on,1,0,0,,4,,,52,127
74688,note_on,0,0,0,,2,,,62,127
74688,note_on,0,0,0,,5,,,77,127
74879,note_off,191,0,0,,5,,,77,127
74879,note_off,0,0,0,,2,,,62,127
74879,note_off,0,0,0,,4,,,52,127
74880,note_on,1,0,0,,4,,,52,127
74880,note_on,0,0,0,,2,,,62,127
74880,note_on,0,0,0,,2,,,74,127
75071,note_off,191,0,0,,2,,,74,127
75071,note_off,0,0,0,,2,,,62,127
75071,note_off,0,0,0,,4,,,52,127
75072,note_on,1,0,0,,2,,,62,127
75072,note_on,0,0,0,,4,,,52,127
75072,note_on,0,0,0,,12,,,71,127
75263,note_off,191,0,0,,12,,,71,127
75264,note_on,1,0,0,,12,,,71,127
75360,note_off,96,0,0,,4,,,52,127
75360,note_off,0,0,0,,2,,,62,127
75455,note_off,95,0,0,,12,,,71,127
75456,note_on,1,0,0,,4,,,52,127
75456,note_on,0,0,0,,0,,,60,127
75456,note_on,0,0,0,,0,,,72,127
75504,note_on,48,0,0,,12,,,71,127
75520,note_off,16,0,0,,0,,,72,127
75552,note_on,32,0,0,,0,,,72,127
75568,note_off,16,0,0,,12,,,71,127
75647,note_off,79,0,0,,0,,,60,127
75647,note_off,0,0,0,,4,,,52,127
75648,note_on,1,0,0,,0,,,60,127
75648,note_on,0,0,0,,4,,,52,127
75818,note_off,170,0,0,,0,,,72,127
75839,note_off,21,0,0,,4,,,52,127
75839,note_off,0,0,0,,0,,,60,127
75840,note_on,1,0,0,,0,,,60,127
75840,note_on,0,0,0,,4,,,52,127
75840,note_on,0,0,0,,10,,,81,127
76031,note_off,191,0,0,,10,,,81,127
76032,note_on,1,0,0,,10,,,81,127
76128,note_off,96,0,0,,4,,,52,127
76128,note_off,0,0,0,,0,,,60,127
76224,note_on,96,0,0,,3,,,51,127
76224,note_on,0,0,0,,12,,,59,127
76224,note_on,0,0,0,,6,,,78,127
76252,note_off,28,0,0,,10,,,81,127
76415,note_off,163,0,0,,6,,,78,127
76415,note_off,0,0,0,,12,,,59,127
76415,note_off,0,0,0,,3,,,51,127
76416,note_on,1,0,0,,3,,,51,127
76416,note_on,0,0,0,,12,,,59,127
76416,note_on,0,0,0,,12,,,71,127
76607,note_off,191,0,0,,12,,,71,127
76607,note_off,0,0,0,,12,,,59,127
76607,note_off,0,0,0,,3,,,51,127
76608,note_on,1,0,0,,12,,,59,127
76608,note_on,0,0,0,,3,,,51,127
76608,note_on,0,0,0,,10,,,81,127
76799,note_off,191,0,0,,10,,,81,127
76800,note_on,1,0,0,,10,,,81,127
76896,note_off,96,0,0,,3,,,51,127
76896,note_off,0,0,0,,12,,,59,127
76992,note_on,96,0,0,,4,,,52,127
76992,note_on,0,0,0,,0,,,60,127
76992,note_on,0,0,0,,4,,,76,127
77040,note_off,48,0,0,,10,,,81,127
77183,note_off,143,0,0,,4,,,76,127
77183,note_off,0,0,0,,0,,,60,127
77183,note_off,0,0,0,,4,,,52,127
77184,note_on,1,0,0,,4,,,52,127
77184,note_on,0,0,0,,0,,,60,127
77184,note_on,0,0,0,,0,,,72,127
77375,note_off,191,0,0,,0,,,72,127
77375,note_off,0,0,0,,0,,,60,127
77375,note_off,0,0,0,,4,,,52,127
77376,note_on,1,0,0,,0,,,60,127
77376,note_on,0,0,0,,4,,,52,127
77376,note_on,0,0,0,,10,,,81,127
77567,note_off,191,0,0,,10,,,81,127
77568,note_on,1,0,0,,10,,,81,127
77664,note_off,96,0,0,,4,,,52,127
77664,note_off,0,0,0,,0,,,60,127
77760,note_on,96,0,0,,12,,,59,127
77760,note_on,0,0,0,,3,,,51,127
77760,note_on,0,0,0,,6,,,78,127
77848,note_off,88,0,0,,10,,,81,127
77951,note_off,103,0,0,,6,,,78,127
77951,note_off,0,0,0,,3,,,51,127
77951,note_off,0,0,0,,12,,,59,127
77952,note_on,1,0,0,,3,,,51,127
77952,note_on,0,0,0,,12,,,59,127
77952,note_on,0,0,0,,12,,,71,127
78143,note_off,191,0,0,,12,,,71,127
78143,note_off,0,0,0,,12,,,59,127
78143,note_off,0,0,0,,3,,,51,127
78144,note_on,1,0,0,,3,,,51,127
78144,note_on,0,0,0,,12,,,59,127
78144,note_on,0,0,0,,10,,,81,127
78335,note_off,191,0,0,,10,,,81,127
78335,note_off,0,0,0,,12,,,59,127
78335,note_off,0,0,0,,3,,,51,127
78336,note_on,1,0,0,,4,,,52,127
78336,note_on,0,0,0,,8,,,80,127
78431,note_off,95,0,0,,8,,,80,127
78432,note_on,1,0,0,,12,,,83,127
78527,note_off,95,0,0,,12,,,83,127
78528,note_on,1,0,0,,10,,,81,127
78623,note_off,95,0,0,,10,,,81,127
78624,note_on,1,0,0,,8,,,80,127
78719,note_off,95,0,0,,8,,,80,127
78719,note_off,0,0,0,,4,,,52,127
78720,note_on,1,0,0,,10,,,45,127
78720,note_on,0,0,0,,10,,,57,127
78720,note_on,0,0,0,,6,,,78,127
78815,note_off,95,0,0,,6,,,78,127
78816,note_on,1,0,0,,4,,,76,127
78911,note_off,95,0,0,,4,,,76,127
78912,note_on,1,0,0,,3,,,75,127
79007,note_off,95,0,0,,3,,,75,127
79008,note_on,1,0,0,,1,,,73,127
79103,note_off,95,0,0,,1,,,73,127
79103,note_off,0,0,0,,10,,,57,127
79103,note_off,0,0,0,,10,,,45,127
79104,note_on,1,0,0,,12,,,71,127
79199,note_off,95,0,0,,12,,,71,127
79200,note_on,1,0,0,,11,,,70,127
79295,note_off,95,0,0,,11,,,70,127
79296,note_on,1,0,0,,12,,,59,127
79296,note_on,0,0,0,,12,,,47,127
79296,note_on,0,0,0,,12,,,71,127
79391,note_off,95,0,0,,12,,,71,127
79392,note_on,1,0,0,,11,,,70,127
79487,note_off,95,0,0,,11,,,70,127
79487,note_off,0,0,0,,12,,,47,127
79487,note_off,0,0,0,,12,,,59,127
79488,note_on,1,0,0,,12,,,47,127
79488,note_on,0,0,0,,12,,,59,127
79488,note_on,0,0,0,,12,,,71,127
79583,note_off,95,0,0,,12,,,71,127
79584,note_on,1,0,0,,11,,,70,127
79679,note_off,95,0,0,,11,,,70,127
79679,note_off,0,0,0,,12,,,59,127
79679,note_off,0,0,0,,12,,,47,127
79680,note_on,1,0,0,,10,,,57,127
79680,note_on,0,0,0,,12,,,47,127
79680,note_on,0,0,0,,12,,,71,127
79775,note_off,95,0,0,,12,,,71,127
79776,note_on,1,0,0,,11,,,70,127
79871,note_off,95,0,0,,11,,,70,127
79871,note_off,0,0,0,,12,,,47,127
79871,note_off,0,0,0,,10,,,57,127
79872,note_on,1,0,0,,12,,,47,127
79872,note_on,0,0,0,,8,,,56,127
79872,note_on,0,0,0,,12,,,71,127
79968,note_on,96,0,0,,12,,,83,127
80062,note_off,94,0,0,,12,,,71,127
80063,note_off,1,0,0,,12,,,83,127
80063,note_off,0,0,0,,8,,,56,127
80063,note_off,0,0,0,,12,,,47,127
80064,note_on,1,0,0,,12,,,47,127
80064,note_on,0,0,0,,8,,,56,127
80064,note_on,0,0,0,,10,,,81,127
80159,note_off,95,0,0,,10,,,81,127
80160,note_on,1,0,0,,8,,,80,127
80255,note_off,95,0,0,,8,,,80,127
80255,note_off,0,0,0,,8,,,56,127
80255,note_off,0,0,0,,12,,,47,127
80256,note_on,1,0,0,,10,,,57,127
80256,note_on,0,0,0,,12,,,47,127
80256,note_on,0,0,0,,6,,,78,127
80351,note_off,95,0,0,,6,,,78,127
80352,note_on,1,0,0,,4,,,76,127
80447,note_off,95,0,0,,4,,,76,127
80447,note_off,0,0,0,,12,,,47,127
80447,note_off,0,0,0,,10,,,57,127
80448,note_on,1,0,0,,10,,,57,127
80448,note_on,0,0,0,,12,,,47,127
80448,note_on,0,0,0,,3,,,75,127
80543,note_off,95,0,0,,3,,,75,127
80544,note_on,1,0,0,,1,,,73,127
80639,note_off,95,0,0,,1,,,73,127
80639,note_off,0,0,0,,12,,,47,127
80639,note_off,0,0,0,,10,,,57,127
80640,note_on,1,0,0,,12,,,59,127
80640,note_on,0,0,0,,12,,,47,127
80640,note_on,0,0,0,,12,,,71,127
80735,note_off,95,0,0,,12,,,71,127
80736,note_on,1,0,0,,11,,,70,127
80831,note_off,95,0,0,,11,,,70,127
80831,note_off,0,0,0,,12,,,47,127
80831,note_off,0,0,0,,12,,,59,127
80832,note_on,1,0,0,,12,,,47,127
80832,note_on,0,0,0,,12,,,59,127
80832,note_on,0,0,0,,12,,,71,127
80927,note_off,95,0,0,,12,,,71,127
80928,note_on,1,0,0,,11,,,70,127
81023,note_off,95,0,0,,11,,,70,127
81023,note_off,0,0,0,,12,,,59,127
81023,note_off,0,0,0,,12,,,47,127
81024,note_on,1,0,0,,12,,,47,127
81024,note_on,0,0,0,,12,,,59,127
81024,note_on,0,0,0,,12,,,71,127
81119,note_off,95,0,0,,12,,,71,127
81120,note_on,1,0,0,,11,,,70,127
81215,note_off,95,0,0,,11,,,70,127
81215,note_off,0,0,0,,12,,,59,127
81215,note_off,0,0,0,,12,,,47,127
81216,note_on,1,0,0,,10,,,57,127
81216,note_on,0,0,0,,12,,,47,127
81216,note_on,0,0,0,,12,,,71,127
81311,note_off,95,0,0,,12,,,71,127
81312,note_on,1,0,0,,11,,,70,127
81407,note_off,95,0,0,,11,,,70,127
81407,note_off,0,0,0,,12,,,47,127
81407,note_off,0,0,0,,10,,,57,127
81408,note_on,1,0,0,,8,,,56,127
81408,note_on,0,0,0,,12,,,47,127
81408,note_on,0,0,0,,12,,,71,127
81504,note_on,96,0,0,,12,,,83,127
81598,note_off,94,0,0,,12,,,71,127
81599,note_off,1,0,0,,12,,,83,127
81599,note_off,0,0,0,,12,,,47,127
81599,note_off,0,0,0,,8,,,56,127
81600,note_on,1,0,0,,8,,,56,127
81600,note_on,0,0,0,,12,,,47,127
81600,note_on,0,0,0,,10,,,81,127
81695,note_off,95,0,0,,10,,,81,127
81696,note_on,1,0,0,,8,,,80,127
81791,note_off,95,0,0,,8,,,80,127
81791,note_off,0,0,0,,12,,,47,127
81791,note_off,0,0,0,,8,,,56,127
81792,note_on,1,0,0,,12,,,47,127
81792,note_on,0,0,0,,10,,,57,127
81792,note_on,0,0,0,,6,,,78,127
81887,note_off,95,0,0,,6,,,78,127
81888,note_on,1,0,0,,4,,,76,127
81983,note_off,95,0,0,,4,,,76,127
81983,note_off,0,0,0,,10,,,57,127
81983,note_off,0,0,0,,12,,,47,127
81984,note_on,1,0,0,,12,,,47,127
81984,note_on,0,0,0,,10,,,57,127
81984,note_on,0,0,0,,3,,,75,127
82079,note_off,95,0,0,,3,,,75,127
82080,note_on,1,0,0,,1,,,73,127
82175,note_off,95,0,0,,1,,,73,127
82175,note_off,0,0,0,,10,,,57,127
82175,note_off,0,0,0,,12,,,47,127
82176,note_on,1,0,0,,12,,,47,127
82176,note_on,0,0,0,,12,,,59,127
82176,note_on,0,0,0,,12,,,71,127
82559,note_off,383,0,0,,12,,,71,127
82559,note_off,0,0,0,,12,,,59,127
82559,note_off,0,0,0,,12,,,47,127
82560,note_on,1,0,0,,12,,,83,127
82943,note_off,383,0,0,,12,,,83,127
82944,note_on,1,0,0,,10,,,81,127
83327,note_off,383,0,0,,10,,,81,127
83328,note_on,1,0,0,,12,,,59,127
83328,note_on,0,0,0,,7,,,79,127
83455,note_off,127,0,0,,7,,,79,127
83456,note_on,1,0,0,,6,,,78,127
83583,note_off,127,0,0,,6,,,78,127
83584,note_on,1,0,0,,4,,,76,127
83711,note_off,127,0,0,,4,,,76,127
83711,note_off,0,0,0,,12,,,59,127
83712,note_on,1,0,0,,12,,,71,127
83712,note_on,0,0,0,,3,,,75,127
84095,note_off,383,0,0,,3,,,75,127
84095,note_off,0,0,0,,12,,,71,127
84096,note_on,1,0,0,,10,,,69,127
84096,note_on,0,0,0,,3,,,75,127
84479,note_off,383,0,0,,3,,,75,127
84479,note_off,0,0,0,,10,,,69,127
84480,note_on,1,0,0,,7,,,67,127
84480,note_on,0,0,0,,4,,,76,127
84607,note_off,127,0,0,,7,,,67,127
84608,note_on,1,0,0,,6,,,66,127
84735,note_off,127,0,0,,6,,,66,127
84736,note_on,1,0,0,,4,,,64,127
84863,note_off,127,0,0,,4,,,64,127
84863,note_off,0,0,0,,4,,,76,127
84864,note_on,1,0,0,,3,,,63,127
84864,note_on,0,0,0,,6,,,78,127
85247,note_off,383,0,0,,6,,,78,127
85247,note_off,0,0,0,,3,,,63,127
85248,note_on,1,0,0,,3,,,63,127
85248,note_on,0,0,0,,6,,,78,127
85631,note_off,383,0,0,,6,,,78,127
85631,note_off,0,0,0,,3,,,63,127
85632,note_on,1,0,0,,4,,,64,127
85632,note_on,0,0,0,,10,,,81,127
85632,note_on,0,0,0,,7,,,79,127
85759,note_off,127,0,0,,7,,,79,127
85759,note_off,0,0,0,,10,,,81,127
85760,note_on,1,0,0,,6,,,78,127
85887,note_off,127,0,0,,6,,,78,127
85888,note_on,1,0,0,,4,,,76,127
86015,note_off,127,0,0,,4,,,76,127
86015,note_off,0,0,0,,4,,,64,127
86016,note_on,1,0,0,,3,,,63,127
86016,note_on,0,0,0,,12,,,71,127
86016,note_on,0,0,0,,6,,,78,127
86399,note_off,383,0,0,,6,,,78,127
86399,note_off,0,0,0,,12,,,71,127
86399,note_off,0,0,0,,3,,,63,127
86400,note_on,1,0,0,,3,,,63,127
86400,note_on,0,0,0,,12,,,71,127
86400,note_on,0,0,0,,6,,,78,127
86736,note_off,336,0,0,,3,,,63,127
86783,note_off,47,0,0,,6,,,78,127
86783,note_off,0,0,0,,12,,,71,127
86784,note_on,1,0,0,,4,,,64,127
86784,note_on,0,0,0,,12,,,71,127
86784,note_on,0,0,0,,10,,,81,127
86784,note_on,0,0,0,,7,,,79,127
86911,note_off,127,0,0,,7,,,79,127
86911,note_off,0,0,0,,10,,,81,127
86912,note_on,1,0,0,,6,,,78,127
87039,note_off,127,0,0,,6,,,78,127
87040,note_on,1,0,0,,4,,,76,127
87167,note_off,127,0,0,,4,,,76,127
87167,note_off,0,0,0,,12,,,71,127
87167,note_off,0,0,0,,4,,,64,127
87168,note_on,1,0,0,,3,,,63,127
87168,note_on,0,0,0,,12,,,71,127
87168,note_on,0,0,0,,6,,,78,127
87551,note_off,383,0,0,,6,,,78,127
87551,note_off,0,0,0,,12,,,71,127
87551,note_off,0,0,0,,3,,,63,127
87552,note_on,1,0,0,,3,,,63,127
87552,note_on,0,0,0,,12,,,71,127
87552,note_on,0,0,0,,6,,,78,127
87888,note_off,336,0,0,,3,,,63,127
87935,note_off,47,0,0,,6,,,78,127
87935,note_off,0,0,0,,12,,,71,127
87936,note_on,1,0,0,,7,,,79,127
88063,note_off,127,0,0,,7,,,79,127
88064,note_on,1,0,0,,6,,,78,127
88191,note_off,127,0,0,,6,,,78,127
88192,note_on,1,0,0,,7,,,79,127
88319,note_off,127,0,0,,7,,,79,127
88320,note_on,1,0,0,,7,,,67,127
88320,note_on,0,0,0,,4,,,64,127
88320,note_on,0,0,0,,7,,,79,127
88703,note_off,383,0,0,,7,,,79,127
88703,note_off,0,0,0,,4,,,64,127
88703,note_off,0,0,0,,7,,,67,127
88704,note_on,1,0,0,,2,,,62,127
88704,note_on,0,0,0,,6,,,66,127
88704,note_on,0,0,0,,7,,,79,127
89087,note_off,383,0,0,,7,,,79,127
89088,note_on,1,0,0,,7,,,79,127
89215,note_off,127,0,0,,7,,,79,127
89216,note_on,1,0,0,,6,,,78,127
89279,note_off,63,0,0,,6,,,66,127
89279,note_off,0,0,0,,2,,,62,127
89343,note_off,64,0,0,,6,,,78,127
89344,note_on,1,0,0,,7,,,79,127
89471,note_off,127,0,0,,7,,,79,127
89472,note_on,1,0,0,,0,,,60,127
89472,note_on,0,0,0,,4,,,64,127
89472,note_on,0,0,0,,7,,,79,127
89855,note_off,383,0,0,,7,,,79,127
89855,note_off,0,0,0,,4,,,64,127
89855,note_off,0,0,0,,0,,,60,127
89856,note_on,1,0,0,,2,,,62,127
89856,note_on,0,0,0,,12,,,59,127
89856,note_on,0,0,0,,8,,,80,127
90239,note_off,383,0,0,,8,,,80,127
90240,note_on,1,0,0,,10,,,81,127
90367,note_off,127,0,0,,10,,,81,127
90368,note_on,1,0,0,,8,,,80,127
90431,note_off,63,0,0,,12,,,59,127
90431,note_off,0,0,0,,2,,,62,127
90495,note_off,64,0,0,,8,,,80,127
90496,note_on,1,0,0,,10,,,81,127
90623,note_off,127,0,0,,10,,,81,127
90624,note_on,1,0,0,,10,,,69,127
90624,note_on,0,0,0,,0,,,72,127
90624,note_on,0,0,0,,10,,,81,127
91007,note_off,383,0,0,,10,,,81,127
91007,note_off,0,0,0,,0,,,72,127
91007,note_off,0,0,0,,10,,,69,127
91008,note_on,1,0,0,,12,,,71,127
91008,note_on,0,0,0,,7,,,67,127
91008,note_on,0,0,0,,10,,,81,127
91391,note_off,383,0,0,,10,,,81,127
91392,note_on,1,0,0,,10,,,81,127
91519,note_off,127,0,0,,10,,,81,127
91520,note_on,1,0,0,,8,,,80,127
91583,note_off,63,0,0,,7,,,67,127
91583,note_off,0,0,0,,12,,,71,127
91647,note_off,64,0,0,,8,,,80,127
91648,note_on,1,0,0,,10,,,81,127
91775,note_off,127,0,0,,10,,,81,127
91776,note_on,1,0,0,,6,,,66,127
91776,note_on,0,0,0,,10,,,69,127
91776,note_on,0,0,0,,10,,,81,127
92159,note_off,383,0,0,,10,,,81,127
92159,note_off,0,0,0,,10,,,69,127
92159,note_off,0,0,0,,6,,,66,127
92160,note_on,1,0,0,,7,,,67,127
92160,note_on,0,0,0,,4,,,64,127
92160,note_on,0,0,0,,11,,,82,127
92543,note_off,383,0,0,,11,,,82,127
92544,note_on,1,0,0,,12,,,83,127
92671,note_off,127,0,0,,12,,,83,127
92672,note_on,1,0,0,,0,,,84,127
92735,note_off,63,0,0,,4,,,64,127
92735,note_off,0,0,0,,7,,,67,127
92799,note_off,64,0,0,,0,,,84,127
92800,note_on,1,0,0,,8,,,80,127
92927,note_off,127,0,0,,8,,,80,127
92928,note_on,1,0,0,,6,,,66,127
92928,note_on,0,0,0,,3,,,63,127
92928,note_on,0,0,0,,10,,,81,127
93311,note_off,383,0,0,,10,,,81,127
93311,note_off,0,0,0,,3,,,63,127
93311,note_off,0,0,0,,6,,,66,127
93312,note_on,1,0,0,,3,,,63,127
93312,note_on,0,0,0,,6,,,66,127
93312,note_on,0,0,0,,10,,,81,127
93695,note_off,383,0,0,,10,,,81,127
93696,note_on,1,0,0,,10,,,81,127
93823,note_off,127,0,0,,10,,,81,127
93824,note_on,1,0,0,,12,,,83,127
93887,note_off,63,0,0,,6,,,66,127
93887,note_off,0,0,0,,3,,,63,127
93951,note_off,64,0,0,,12,,,83,127
93952,note_on,1,0,0,,6,,,78,127
94079,note_off,127,0,0,,6,,,78,127
94080,note_on,1,0,0,,4,,,64,127
94080,note_on,0,0,0,,7,,,67,127
94080,note_on,0,0,0,,7,,,79,127
94463,note_off,383,0,0,,7,,,79,127
94463,note_off,0,0,0,,7,,,67,127
94463,note_off,0,0,0,,4,,,64,127
94464,note_on,1,0,0,,7,,,67,127
94464,note_on,0,0,0,,4,,,64,127
94464,note_on,0,0,0,,7,,,79,127
94847,note_off,383,0,0,,7,,,79,127
94847,note_off,0,0,0,,4,,,64,127
94847,note_off,0,0,0,,7,,,67,127
94848,note_on,1,0,0,,10,,,57,127
94848,note_on,0,0,0,,10,,,69,127
94848,note_on,0,0,0,,12,,,83,127
94848,note_on,0,0,0,,10,,,81,127
94975,note_off,127,0,0,,10,,,81,127
94975,note_off,0,0,0,,12,,,83,127
94976,note_on,1,0,0,,7,,,79,127
95103,note_off,127,0,0,,7,,,79,127
95104,note_on,1,0,0,,6,,,78,127
95231,note_off,127,0,0,,6,,,78,127
95231,note_off,0,0,0,,10,,,69,127
95231,note_off,0,0,0,,10,,,57,127
95232,note_on,1,0,0,,12,,,59,127
95232,note_on,0,0,0,,7,,,67,127
95232,note_on,0,0,0,,4,,,76,127
95615,note_off,383,0,0,,4,,,76,127
95615,note_off,0,0,0,,7,,,67,127
95615,note_off,0,0,0,,12,,,59,127
95616,note_on,1,0,0,,6,,,66,127
95616,note_on,0,0,0,,12,,,59,127
95616,note_on,0,0,0,,4,,,76,127
95679,note_off,63,0,0,,4,,,76,127
95680,note_on,1,0,0,,3,,,75,127
95743,note_off,63,0,0,,3,,,75,127
95744,note_on,1,0,0,,4,,,76,127
95807,note_off,63,0,0,,4,,,76,127
95808,note_on,1,0,0,,3,,,75,127
95871,note_off,63,0,0,,3,,,75,127
95872,note_on,1,0,0,,4,,,76,127
95935,note_off,63,0,0,,4,,,76,127
95936,note_on,1,0,0,,3,,,75,127
95952,note_off,16,0,0,,12,,,59,127
95984,note_off,32,0,0,,3,,,75,127
95986,note_off,2,0,0,,6,,,66,127
96000,note_on,14,0,0,,12,,,83,127
96127,note_off,127,0,0,,12,,,83,127
96128,note_on,1,0,0,,0,,,84,127
96255,note_off,127,0,0,,0,,,84,127
96256,note_on,1,0,0,,8,,,80,127
96383,note_off,127,0,0,,8,,,80,127
96384,note_on,1,0,0,,3,,,63,127
96384,note_on,0,0,0,,6,,,66,127
96384,note_on,0,0,0,,10,,,81,127
96767,note_off,383,0,0,,10,,,81,127
96767,note_off,0,0,0,,6,,,66,127
96767,note_off,0,0,0,,3,,,63,127
96768,note_on,1,0,0,,3,,,63,127
96768,note_on,0,0,0,,6,,,66,127
96768,note_on,0,0,0,,10,,,81,127
97151,note_off,383,0,0,,10,,,81,127
97152,note_on,1,0,0,,10,,,81,127
97279,note_off,127,0,0,,10,,,81,127
97280,note_on,1,0,0,,12,,,83,127
97343,note_off,63,0,0,,6,,,66,127
97343,note_off,0,0,0,,3,,,63,127
97407,note_off,64,0,0,,12,,,83,127
97408,note_on,1,0,0,,6,,,78,127
97535,note_off,127,0,0,,6,,,78,127
97536,note_on,1,0,0,,7,,,67,127
97536,note_on,0,0,0,,4,,,64,127
97536,note_on,0,0,0,,7,,,79,127
97919,note_off,383,0,0,,7,,,79,127
97919,note_off,0,0,0,,4,,,64,127
97919,note_off,0,0,0,,7,,,67,127
97920,note_on,1,0,0,,4,,,64,127
97920,note_on,0,0,0,,7,,,67,127
97920,note_on,0,0,0,,7,,,79,127
98303,note_off,383,0,0,,7,,,79,127
98303,note_off,0,0,0,,7,,,67,127
98303,note_off,0,0,0,,4,,,64,127
98304,note_on,1,0,0,,10,,,69,127
98304,note_on,0,0,0,,10,,,57,127
98304,note_on,0,0,0,,12,,,83,127
98304,note_on,0,0,0,,10,,,81,127
98431,note_off,127,0,0,,10,,,81,127
98431,note_off,0,0,0,,12,,,83,127
98432,note_on,1,0,0,,7,,,79,127
98559,note_off,127,0,0,,7,,,79,127
98560,note_on,1,0,0,,6,,,78,127
98687,note_off,127,0,0,,6,,,78,127
98687,note_off,0,0,0,,10,,,57,127
98687,note_off,0,0,0,,10,,,69,127
98688,note_on,1,0,0,,7,,,67,127
98688,note_on,0,0,0,,12,,,59,127
98688,note_on,0,0,0,,4,,,76,127
99071,note_off,383,0,0,,4,,,76,127
99071,note_off,0,0,0,,12,,,59,127
99071,note_off,0,0,0,,7,,,67,127
99072,note_on,1,0,0,,12,,,59,127
99072,note_on,0,0,0,,6,,,66,127
99072,note_on,0,0,0,,4,,,76,127
99135,note_off,63,0,0,,4,,,76,127
99136,note_on,1,0,0,,3,,,75,127
99199,note_off,63,0,0,,3,,,75,127
99200,note_on,1,0,0,,4,,,76,127
99263,note_off,63,0,0,,4,,,76,127
99264,note_on,1,0,0,,3,,,75,127
99327,note_off,63,0,0,,3,,,75,127
99328,note_on,1,0,0,,4,,,76,127
99391,note_off,63,0,0,,4,,,76,127
99392,note_on,1,0,0,,3,,,75,127
99408,note_off,16,0,0,,12,,,59,127
99455,note_off,47,0,0,,3,,,75,127
99455,note_off,0,0,0,,6,,,66,127
99456,note_on,1,0,0,,10,,,57,127
99456,note_on,0,0,0,,10,,,69,127
99456,note_on,0,0,0,,0,,,84,127
99583,note_off,127,0,0,,0,,,84,127
99584,note_on,1,0,0,,10,,,81,127
99711,note_off,127,0,0,,10,,,81,127
99712,note_on,1,0,0,,6,,,78,127
99839,note_off,127,0,0,,6,,,78,127
99839,note_off,0,0,0,,10,,,69,127
99839,note_off,0,0,0,,10,,,57,127
99840,note_on,1,0,0,,7,,,67,127
99840,note_on,0,0,0,,12,,,59,127
99840,note_on,0,0,0,,4,,,76,127
100223,note_off,383,0,0,,4,,,76,127
100223,note_off,0,0,0,,12,,,59,127
100223,note_off,0,0,0,,7,,,67,127
100224,note_on,1,0,0,,12,,,59,127
100224,note_on,0,0,0,,6,,,66,127
100224,note_on,0,0,0,,4,,,76,127
100287,note_off,63,0,0,,4,,,76,127
100288,note_on,1,0,0,,3,,,75,127
100351,note_off,63,0,0,,3,,,75,127
100352,note_on,1,0,0,,4,,,76,127
100415,note_off,63,0,0,,4,,,76,127
100416,note_on,1,0,0,,3,,,75,127
100479,note_off,63,0,0,,3,,,75,127
100480,note_on,1,0,0,,4,,,76,127
100543,note_off,63,0,0,,4,,,76,127
100544,note_on,1,0,0,,3,,,75,127
100560,note_off,16,0,0,,12,,,59,127
100607,note_off,47,0,0,,3,,,75,127
100607,note_off,0,0,0,,6,,,66,127
100608,note_on,1,0,0,,10,,,57,127
100608,note_on,0,0,0,,10,,,81,127
100735,note_off,127,0,0,,10,,,81,127
100736,note_on,1,0,0,,7,,,79,127
100863,note_off,127,0,0,,7,,,79,127
100864,note_on,1,0,0,,6,,,78,127
100991,note_off,127,0,0,,6,,,78,127
100991,note_off,0,0,0,,10,,,57,127
100992,note_on,1,0,0,,12,,,59,127
100992,note_on,0,0,0,,4,,,76,127
101375,note_off,383,0,0,,4,,,76,127
101375,note_off,0,0,0,,12,,,59,127
101376,note_on,1,0,0,,12,,,47,127
101376,note_on,0,0,0,,4,,,76,127
101439,note_off,63,0,0,,4,,,76,127
101440,note_on,1,0,0,,3,,,75,127
101503,note_off,63,0,0,,3,,,75,127
101504,note_on,1,0,0,,4,,,76,127
101567,note_off,63,0,0,,4,,,76,127
101568,note_on,1,0,0,,3,,,75,127
101631,note_off,63,0,0,,3,,,75,127
101632,note_on,1,0,0,,1,,,73,127
101695,note_off,63,0,0,,1,,,73,127
101696,note_on,1,0,0,,3,,,75,127
101712,note_off,16,0,0,,12,,,47,127
101759,note_off,47,0,0,,3,,,75,127
101760,note_on,1,0,0,,4,,,76,127
101951,note_off,191,0,0,,4,,,76,127
101952,note_on,1,0,0,,4,,,52,127
101952,note_on,0,0,0,,12,,,83,127
102143,note_off,191,0,0,,4,,,52,127
102144,note_on,1,0,0,,8,,,56,127
102335,note_off,191,0,0,,8,,,56,127
102335,note_off,0,0,0,,12,,,83,127
102336,note_on,1,0,0,,12,,,59,127
102336,note_on,0,0,0,,8,,,80,127
102527,note_off,191,0,0,,12,,,59,127
102528,note_on,1,0,0,,4,,,64,127
102719,note_off,191,0,0,,4,,,64,127
102719,note_off,0,0,0,,8,,,80,127
102720,note_on,1,0,0,,10,,,69,127
102720,note_on,0,0,0,,1,,,85,127
102911,note_off,191,0,0,,1,,,85,127
102911,note_off,0,0,0,,10,,,69,127
102912,note_on,1,0,0,,12,,,71,127
102912,note_on,0,0,0,,12,,,83,127
103007,note_off,95,0,0,,12,,,83,127
103008,note_on,1,0,0,,10,,,81,127
103103,note_off,95,0,0,,10,,,81,127
103103,note_off,0,0,0,,12,,,71,127
103104,note_on,1,0,0,,12,,,59,127
103104,note_on,0,0,0,,8,,,80,127
103199,note_off,95,0,0,,8,,,80,127
103200,note_on,1,0,0,,6,,,78,127
103295,note_off,95,0,0,,6,,,78,127
103296,note_on,1,0,0,,4,,,76,127
103487,note_off,191,0,0,,4,,,76,127
103487,note_off,0,0,0,,12,,,59,127
103488,note_on,1,0,0,,4,,,52,127
103488,note_on,0,0,0,,12,,,83,127
103679,note_off,191,0,0,,4,,,52,127
103680,note_on,1,0,0,,8,,,56,127
103871,note_off,191,0,0,,8,,,56,127
103871,note_off,0,0,0,,12,,,83,127
103872,note_on,1,0,0,,12,,,59,127
103872,note_on,0,0,0,,8,,,80,127
104063,note_off,191,0,0,,12,,,59,127
104064,note_on,1,0,0,,4,,,64,127
104255,note_off,191,0,0,,4,,,64,127
104255,note_off,0,0,0,,8,,,80,127
104256,note_on,1,0,0,,10,,,69,127
104256,note_on,0,0,0,,1,,,85,127
104447,note_off,191,0,0,,1,,,85,127
104447,note_off,0,0,0,,10,,,69,127
104448,note_on,1,0,0,,12,,,71,127
104448,note_on,0,0,0,,12,,,83,127
104543,note_off,95,0,0,,12,,,83,127
104544,note_on,1,0,0,,10,,,81,127
104639,note_off,95,0,0,,10,,,81,127
104639,note_off,0,0,0,,12,,,71,127
104640,note_on,1,0,0,,12,,,59,127
104640,note_on,0,0,0,,8,,,80,127
104735,note_off,95,0,0,,8,,,80,127
104736,note_on,1,0,0,,6,,,78,127
104831,note_off,95,0,0,,6,,,78,127
104831,note_off,0,0,0,,12,,,59,127
104832,note_on,1,0,0,,4,,,64,127
104832,note_on,0,0,0,,1,,,61,127
104832,note_on,0,0,0,,4,,,76,127
104927,note_off,95,0,0,,4,,,76,127
104928,note_on,1,0,0,,8,,,80,127
105023,note_off,95,0,0,,8,,,80,127
105023,note_off,0,0,0,,1,,,61,127
105023,note_off,0,0,0,,4,,,64,127
105024,note_on,1,0,0,,1,,,61,127
105024,note_on,0,0,0,,4,,,64,127
105024,note_on,0,0,0,,6,,,78,127
105119,note_off,95,0,0,,6,,,78,127
105120,note_on,1,0,0,,4,,,76,127
105215,note_off,95,0,0,,4,,,76,127
105215,note_off,0,0,0,,4,,,64,127
105215,note_off,0,0,0,,1,,,61,127
105216,note_on,1,0,0,,6,,,66,127
105216,note_on,0,0,0,,3,,,63,127
105216,note_on,0,0,0,,6,,,78,127
105311,note_off,95,0,0,,6,,,78,127
105312,note_on,1,0,0,,10,,,81,127
105407,note_off,95,0,0,,10,,,81,127
105407,note_off,0,0,0,,3,,,63,127
105407,note_off,0,0,0,,6,,,66,127
105408,note_on,1,0,0,,6,,,66,127
105408,note_on,0,0,0,,3,,,63,127
105408,note_on,0,0,0,,8,,,80,127
105503,note_off,95,0,0,,8,,,80,127
105504,note_on,1,0,0,,6,,,78,127
105599,note_off,95,0,0,,6,,,78,127
105599,note_off,0,0,0,,3,,,63,127
105599,note_off,0,0,0,,6,,,66,127
105600,note_on,1,0,0,,4,,,64,127
105600,note_on,0,0,0,,8,,,68,127
105600,note_on,0,0,0,,8,,,80,127
105695,note_off,95,0,0,,8,,,80,127
105696,note_on,1,0,0,,12,,,83,127
105791,note_off,95,0,0,,12,,,83,127
105791,note_off,0,0,0,,8,,,68,127
105791,note_off,0,0,0,,4,,,64,127
105792,note_on,1,0,0,,4,,,64,127
105792,note_on,0,0,0,,8,,,68,127
105792,note_on,0,0,0,,10,,,81,127
105887,note_off,95,0,0,,10,,,81,127
105888,note_on,1,0,0,,8,,,80,127
105983,note_off,95,0,0,,8,,,80,127
105983,note_off,0,0,0,,8,,,68,127
105983,note_off,0,0,0,,4,,,64,127
105984,note_on,1,0,0,,10,,,57,127
105984,note_on,0,0,0,,6,,,78,127
106079,note_off,95,0,0,,6,,,78,127
106080,note_on,1,0,0,,4,,,76,127
106175,note_off,95,0,0,,4,,,76,127
106175,note_off,0,0,0,,10,,,57,127
106176,note_on,1,0,0,,10,,,69,127
106176,note_on,0,0,0,,3,,,75,127
106271,note_off,95,0,0,,3,,,75,127
106272,note_on,1,0,0,,1,,,73,127
106367,note_off,95,0,0,,1,,,73,127
106368,note_on,1,0,0,,12,,,71,127
106559,note_off,191,0,0,,10,,,69,127
106560,note_on,1,0,0,,12,,,59,127
106748,note_off,188,0,0,,12,,,71,127
106751,note_off,3,0,0,,12,,,59,127
106752,note_on,1,0,0,,12,,,71,127
106846,note_off,94,0,0,,12,,,71,127
106848,note_on,2,0,0,,12,,,71,127
106944,note_on,96,0,0,,10,,,69,127
106944,note_on,0,0,0,,1,,,73,127
107038,note_off,94,0,0,,12,,,71,127
107039,note_off,1,0,0,,1,,,73,127
107040,note_on,1,0,0,,12,,,71,127
107135,note_off,95,0,0,,12,,,71,127
107135,note_off,0,0,0,,10,,,69,127
107136,note_on,1,0,0,,8,,,68,127
107136,note_on,0,0,0,,4,,,76,127
107232,note_on,96,0,0,,12,,,71,127
107256,note_off,24,0,0,,4,,,76,127
107327,note_off,71,0,0,,12,,,71,127
107327,note_off,0,0,0,,8,,,68,127
107328,note_on,1,0,0,,4,,,64,127
107328,note_on,0,0,0,,1,,,73,127
107423,note_off,95,0,0,,1,,,73,127
107424,note_on,1,0,0,,12,,,71,127
107519,note_off,95,0,0,,12,,,71,127
107519,note_off,0,0,0,,4,,,64,127
107520,note_on,1,0,0,,3,,,63,127
107520,note_on,0,0,0,,6,,,78,127
107616,note_on,96,0,0,,12,,,71,127
107640,note_off,24,0,0,,6,,,78,127
107711,note_off,71,0,0,,12,,,71,127
107711,note_off,0,0,0,,3,,,63,127
107712,note_on,1,0,0,,12,,,59,127
107712,note_on,0,0,0,,1,,,73,127
107807,note_off,95,0,0,,1,,,73,127
107808,note_on,1,0,0,,12,,,71,127
107903,note_off,95,0,0,,12,,,71,127
107904,note_on,1,0,0,,8,,,80,127
108000,note_on,96,0,0,,12,,,71,127
108024,note_off,24,0,0,,8,,,80,127
108095,note_off,71,0,0,,12,,,71,127
108095,note_off,0,0,0,,12,,,59,127
108096,note_on,1,0,0,,4,,,52,127
108096,note_on,0,0,0,,1,,,73,127
108191,note_off,95,0,0,,1,,,73,127
108192,note_on,1,0,0,,12,,,71,127
108287,note_off,95,0,0,,12,,,71,127
108287,note_off,0,0,0,,4,,,52,127
108288,note_on,1,0,0,,3,,,51,127
108288,note_on,0,0,0,,10,,,81,127
108384,note_on,96,0,0,,12,,,71,127
108408,note_off,24,0,0,,10,,,81,127
108479,note_off,71,0,0,,12,,,71,127
108479,note_off,0,0,0,,3,,,51,127
108480,note_on,1,0,0,,12,,,47,127
108480,note_on,0,0,0,,1,,,73,127
108575,note_off,95,0,0,,1,,,73,127
108576,note_on,1,0,0,,12,,,71,127
108671,note_off,95,0,0,,12,,,71,127
108671,note_off,0,0,0,,12,,,47,127
108672,note_on,1,0,0,,4,,,40,127
108672,note_on,0,0,0,,8,,,80,127
108768,note_on,96,0,0,,12,,,71,127
108792,note_off,24,0,0,,8,,,80,127
108863,note_off,71,0,0,,12,,,71,127
108863,note_off,0,0,0,,4,,,40,127
108864,note_on,1,0,0,,4,,,52,127
108864,note_on,0,0,0,,1,,,73,127
108959,note_off,95,0,0,,1,,,73,127
108960,note_on,1,0,0,,12,,,71,127
109055,note_off,95,0,0,,12,,,71,127
109055,note_off,0,0,0,,4,,,52,127
109056,note_on,1,0,0,,3,,,51,127
109056,note_on,0,0,0,,10,,,81,127
109152,note_on,96,0,0,,12,,,71,127
109176,note_off,24,0,0,,10,,,81,127
109247,note_off,71,0,0,,12,,,71,127
109247,note_off,0,0,0,,3,,,51,127
109248,note_on,1,0,0,,12,,,47,127
109248,note_on,0,0,0,,1,,,73,127
109343,note_off,95,0,0,,1,,,73,127
109344,note_on,1,0,0,,12,,,71,127
109439,note_off,95,0,0,,12,,,71,127
109439,note_off,0,0,0,,12,,,47,127
109440,note_on,1,0,0,,4,,,40,127
109440,note_on,0,0,0,,8,,,80,127
109536,note_on,96,0,0,,4,,,76,127
109560,note_off,24,0,0,,8,,,80,127
109631,note_off,71,0,0,,4,,,76,127
109631,note_off,0,0,0,,4,,,40,127
109632,note_on,1,0,0,,4,,,52,127
109632,note_on,0,0,0,,3,,,75,127
109727,note_off,95,0,0,,3,,,75,127
109728,note_on,1,0,0,,4,,,76,127
109823,note_off,95,0,0,,4,,,76,127
109823,note_off,0,0,0,,4,,,52,127
109824,note_on,1,0,0,,10,,,45,127
109824,note_on,0,0,0,,1,,,85,127
109920,note_on,96,0,0,,4,,,76,127
109944,note_off,24,0,0,,1,,,85,127
110015,note_off,71,0,0,,4,,,76,127
110015,note_off,0,0,0,,10,,,45,127
110016,note_on,1,0,0,,10,,,57,127
110016,note_on,0,0,0,,3,,,75,127
110111,note_off,95,0,0,,3,,,75,127
110112,note_on,1,0,0,,4,,,76,127
110207,note_off,95,0,0,,4,,,76,127
110207,note_off,0,0,0,,10,,,57,127
110208,note_on,1,0,0,,8,,,56,127
110208,note_on,0,0,0,,12,,,83,127
110304,note_on,96,0,0,,4,,,76,127
110328,note_off,24,0,0,,12,,,83,127
110399,note_off,71,0,0,,4,,,76,127
110399,note_off,0,0,0,,8,,,56,127
110400,note_on,1,0,0,,4,,,52,127
110400,note_on,0,0,0,,3,,,75,127
110495,note_off,95,0,0,,3,,,75,127
110496,note_on,1,0,0,,4,,,76,127
110591,note_off,95,0,0,,4,,,76,127
110591,note_off,0,0,0,,4,,,52,127
110592,note_on,1,0,0,,10,,,45,127
110592,note_on,0,0,0,,1,,,85,127
110688,note_on,96,0,0,,4,,,76,127
110712,note_off,24,0,0,,1,,,85,127
110783,note_off,71,0,0,,4,,,76,127
110783,note_off,0,0,0,,10,,,45,127
110784,note_on,1,0,0,,10,,,57,127
110784,note_on,0,0,0,,3,,,75,127
110879,note_off,95,0,0,,3,,,75,127
110880,note_on,1,0,0,,4,,,76,127
110975,note_off,95,0,0,,4,,,76,127
110975,note_off,0,0,0,,10,,,57,127
110976,note_on,1,0,0,,8,,,56,127
110976,note_on,0,0,0,,12,,,83,127
111072,note_on,96,0,0,,4,,,76,127
111096,note_off,24,0,0,,12,,,83,127
111167,note_off,71,0,0,,4,,,76,127
111167,note_off,0,0,0,,8,,,56,127
111168,note_on,1,0,0,,4,,,52,127
111168,note_on,0,0,0,,3,,,75,127
111263,note_off,95,0,0,,3,,,75,127
111264,note_on,1,0,0,,4,,,76,127
111359,note_off,95,0,0,,4,,,76,127
111359,note_off,0,0,0,,4,,,52,127
111360,note_on,1,0,0,,10,,,45,127
111360,note_on,0,0,0,,1,,,85,127
111456,note_on,96,0,0,,4,,,76,127
111480,note_off,24,0,0,,1,,,85,127
111551,note_off,71,0,0,,4,,,76,127
111551,note_off,0,0,0,,10,,,45,127
111552,note_on,1,0,0,,10,,,57,127
111552,note_on,0,0,0,,3,,,75,127
111647,note_off,95,0,0,,3,,,75,127
111648,note_on,1,0,0,,4,,,76,127
111743,note_off,95,0,0,,4,,,76,127
111743,note_off,0,0,0,,10,,,57,127
111744,note_on,1,0,0,,8,,,56,127
111744,note_on,0,0,0,,12,,,83,127
111839,note_off,95,0,0,,12,,,83,127
111840,note_on,1,0,0,,8,,,80,127
111935,note_off,95,0,0,,8,,,80,127
111935,note_off,0,0,0,,8,,,56,127
111936,note_on,1,0,0,,10,,,57,127
111936,note_on,0,0,0,,10,,,81,127
112031,note_off,95,0,0,,10,,,81,127
112032,note_on,1,0,0,,6,,,78,127
112127,note_off,95,0,0,,6,,,78,127
112127,note_off,0,0,0,,10,,,57,127
112128,note_on,1,0,0,,12,,,59,127
112128,note_on,0,0,0,,8,,,80,127
112223,note_off,95,0,0,,8,,,80,127
112224,note_on,1,0,0,,4,,,76,127
112319,note_off,95,0,0,,4,,,76,127
112320,note_on,1,0,0,,12,,,47,127
112320,note_on,0,0,0,,6,,,78,127
112415,note_off,95,0,0,,6,,,78,127
112416,note_on,1,0,0,,3,,,75,127
112511,note_off,95,0,0,,3,,,75,127
112511,note_off,0,0,0,,12,,,59,127
112512,note_on,1,0,0,,4,,,76,127
112607,note_off,95,0,0,,4,,,76,127
112608,note_on,1,0,0,,12,,,71,127
112703,note_off,95,0,0,,12,,,71,127
112703,note_off,0,0,0,,12,,,47,127
112704,note_on,1,0,0,,4,,,52,127
112704,note_on,0,0,0,,1,,,73,127
112799,note_off,95,0,0,,1,,,73,127
112800,note_on,1,0,0,,12,,,71,127
112895,note_off,95,0,0,,4,,,52,127
112896,note_off,1,0,0,,12,,,71,127
112896,note_on,0,0,0,,3,,,51,127
112896,note_on,0,0,0,,10,,,81,127
112992,note_on,96,0,0,,12,,,71,127
113036,note_off,44,0,0,,10,,,81,127
113087,note_off,51,0,0,,12,,,71,127
113087,note_off,0,0,0,,3,,,51,127
113088,note_on,1,0,0,,12,,,47,127
113088,note_on,0,0,0,,1,,,73,127
113183,note_off,95,0,0,,1,,,73,127
113184,note_on,1,0,0,,12,,,71,127
113279,note_off,95,0,0,,12,,,71,127
113279,note_off,0,0,0,,12,,,47,127
113280,note_on,1,0,0,,4,,,40,127
113280,note_on,0,0,0,,8,,,80,127
113376,note_on,96,0,0,,12,,,71,127
113420,note_off,44,0,0,,8,,,80,127
113471,note_off,51,0,0,,12,,,71,127
113471,note_off,0,0,0,,4,,,40,127
113472,note_on,1,0,0,,4,,,52,127
113472,note_on,0,0,0,,1,,,73,127
113567,note_off,95,0,0,,1,,,73,127
113568,note_on,1,0,0,,12,,,71,127
113663,note_off,95,0,0,,12,,,71,127
113663,note_off,0,0,0,,4,,,52,127
113664,note_on,1,0,0,,3,,,51,127
113664,note_on,0,0,0,,10,,,81,127
113760,note_on,96,0,0,,12,,,71,127
113804,note_off,44,0,0,,10,,,81,127
113855,note_off,51,0,0,,12,,,71,127
113855,note_off,0,0,0,,3,,,51,127
113856,note_on,1,0,0,,12,,,47,127
113856,note_on,0,0,0,,1,,,73,127
113951,note_off,95,0,0,,1,,,73,127
113952,note_on,1,0,0,,12,,,71,127
114047,note_off,95,0,0,,12,,,71,127
114047,note_off,0,0,0,,12,,,47,127
114048,note_on,1,0,0,,4,,,40,127
114048,note_on,0,0,0,,8,,,80,127
114144,note_on,96,0,0,,4,,,76,127
114188,note_off,44,0,0,,8,,,80,127
114239,note_off,51,0,0,,4,,,76,127
114239,note_off,0,0,0,,4,,,40,127
114240,note_on,1,0,0,,4,,,52,127
114240,note_on,0,0,0,,3,,,75,127
114335,note_off,95,0,0,,3,,,75,127
114336,note_on,1,0,0,,4,,,76,127
114431,note_off,95,0,0,,4,,,76,127
114431,note_off,0,0,0,,4,,,52,127
114432,note_on,1,0,0,,10,,,45,127
114432,note_on,0,0,0,,1,,,85,127
114528,note_on,96,0,0,,4,,,76,127
114572,note_off,44,0,0,,1,,,85,127
114623,note_off,51,0,0,,4,,,76,127
114623,note_off,0,0,0,,10,,,45,127
114624,note_on,1,0,0,,10,,,57,127
114624,note_on,0,0,0,,3,,,75,127
114719,note_off,95,0,0,,3,,,75,127
114720,note_on,1,0,0,,4,,,76,127
114815,note_off,95,0,0,,4,,,76,127
114815,note_off,0,0,0,,10,,,57,127
114816,note_on,1,0,0,,8,,,56,127
114816,note_on,0,0,0,,12,,,83,127
114912,note_on,96,0,0,,4,,,76,127
114956,note_off,44,0,0,,12,,,83,127
115007,note_off,51,0,0,,4,,,76,127
115007,note_off,0,0,0,,8,,,56,127
115008,note_on,1,0,0,,4,,,52,127
115008,note_on,0,0,0,,3,,,75,127
115103,note_off,95,0,0,,3,,,75,127
115104,note_on,1,0,0,,4,,,76,127
115199,note_off,95,0,0,,4,,,76,127
115199,note_off,0,0,0,,4,,,52,127
115200,note_on,1,0,0,,10,,,45,127
115200,note_on,0,0,0,,1,,,85,127
115296,note_on,96,0,0,,4,,,76,127
115340,note_off,44,0,0,,1,,,85,127
115391,note_off,51,0,0,,4,,,76,127
115391,note_off,0,0,0,,10,,,45,127
115392,note_on,1,0,0,,10,,,57,127
115392,note_on,0,0,0,,3,,,75,127
115487,note_off,95,0,0,,3,,,75,127
115488,note_on,1,0,0,,4,,,76,127
115583,note_off,95,0,0,,4,,,76,127
115583,note_off,0,0,0,,10,,,57,127
115584,note_on,1,0,0,,8,,,56,127
115584,note_on,0,0,0,,12,,,83,127
115680,note_on,96,0,0,,4,,,76,127
115724,note_off,44,0,0,,12,,,83,127
115775,note_off,51,0,0,,4,,,76,127
115775,note_off,0,0,0,,8,,,56,127
115776,note_on,1,0,0,,4,,,52,127
115776,note_on,0,0,0,,3,,,75,127
115871,note_off,95,0,0,,3,,,75,127
115872,note_on,1,0,0,,4,,,76,127
115967,note_off,95,0,0,,4,,,76,127
115967,note_off,0,0,0,,4,,,52,127
115968,note_on,1,0,0,,10,,,45,127
115968,note_on,0,0,0,,1,,,85,127
116064,note_on,96,0,0,,4,,,76,127
116108,note_off,44,0,0,,1,,,85,127
116159,note_off,51,0,0,,4,,,76,127
116159,note_off,0,0,0,,10,,,45,127
116160,note_on,1,0,0,,10,,,57,127
116160,note_on,0,0,0,,3,,,75,127
116255,note_off,95,0,0,,3,,,75,127
116256,note_on,1,0,0,,4,,,76,127
116351,note_off,95,0,0,,4,,,76,127
116351,note_off,0,0,0,,10,,,57,127
116352,note_on,1,0,0,,8,,,56,127
116352,note_on,0,0,0,,12,,,83,127
116447,note_off,95,0,0,,12,,,83,127
116448,note_on,1,0,0,,8,,,80,127
116543,note_off,95,0,0,,8,,,80,127
116543,note_off,0,0,0,,8,,,56,127
116544,note_on,1,0,0,,10,,,57,127
116544,note_on,0,0,0,,10,,,81,127
116639,note_off,95,0,0,,10,,,81,127
116640,note_on,1,0,0,,6,,,78,127
116735,note_off,95,0,0,,6,,,78,127
116735,note_off,0,0,0,,10,,,57,127
116736,note_on,1,0,0,,12,,,59,127
116736,note_on,0,0,0,,8,,,80,127
116831,note_off,95,0,0,,8,,,80,127
116832,note_on,1,0,0,,4,,,76,127
116927,note_off,95,0,0,,4,,,76,127
116927,note_off,0,0,0,,12,,,59,127
116928,note_on,1,0,0,,12,,,47,127
116928,note_on,0,0,0,,6,,,78,127
117023,note_off,95,0,0,,6,,,78,127
117024,note_on,1,0,0,,3,,,75,127
117119,note_off,95,0,0,,3,,,75,127
117119,note_off,0,0,0,,12,,,47,127
117120,note_on,1,0,0,,8,,,56,127
117120,note_on,0,0,0,,12,,,83,127
117215,note_off,95,0,0,,12,,,83,127
117216,note_on,1,0,0,,8,,,80,127
117311,note_off,95,0,0,,8,,,80,127
117311,note_off,0,0,0,,8,,,56,127
117312,note_on,1,0,0,,10,,,57,127
117312,note_on,0,0,0,,10,,,81,127
117407,note_off,95,0,0,,10,,,81,127
117408,note_on,1,0,0,,6,,,78,127
117503,note_off,95,0,0,,6,,,78,127
117503,note_off,0,0,0,,10,,,57,127
117504,note_on,1,0,0,,12,,,59,127
117504,note_on,0,0,0,,8,,,80,127
117599,note_off,95,0,0,,8,,,80,127
117600,note_on,1,0,0,,4,,,76,127
117695,note_off,95,0,0,,4,,,76,127
117695,note_off,0,0,0,,12,,,59,127
117696,note_on,1,0,0,,12,,,47,127
117696,note_on,0,0,0,,6,,,78,127
117791,note_off,95,0,0,,6,,,78,127
117792,note_on,1,0,0,,3,,,75,127
117887,note_off,95,0,0,,3,,,75,127
117887,note_off,0,0,0,,12,,,47,127
117888,note_on,1,0,0,,8,,,56,127
117888,note_on,0,0,0,,12,,,83,127
117983,note_off,95,0,0,,12,,,83,127
117984,note_on,1,0,0,,8,,,80,127
118079,note_off,95,0,0,,8,,,80,127
118079,note_off,0,0,0,,8,,,56,127
118080,note_on,1,0,0,,10,,,57,127
118080,note_on,0,0,0,,10,,,81,127
118175,note_off,95,0,0,,10,,,81,127
118176,note_on,1,0,0,,6,,,78,127
118271,note_off,95,0,0,,6,,,78,127
118271,note_off,0,0,0,,10,,,57,127
118272,note_on,1,0,0,,12,,,59,127
118272,note_on,0,0,0,,8,,,80,127
118367,note_off,95,0,0,,8,,,80,127
118368,note_on,1,0,0,,4,,,76,127
118463,note_off,95,0,0,,4,,,76,127
118464,note_on,1,0,0,,12,,,47,127
118464,note_on,0,0,0,,6,,,78,127
118559,note_off,95,0,0,,6,,,78,127
118560,note_on,1,0,0,,3,,,75,127
118655,note_off,95,0,0,,3,,,75,127
118655,note_off,0,0,0,,12,,,47,127
118655,note_off,0,0,0,,12,,,59,127
118656,note_on,1,0,0,,4,,,52,127
118656,note_on,0,0,0,,4,,,76,127
118751,note_off,95,0,0,,4,,,52,127
118752,note_on,1,0,0,,4,,,64,127
118826,note_off,74,0,0,,4,,,76,127
118847,note_off,21,0,0,,4,,,64,127
118848,note_on,1,0,0,,3,,,63,127
118848,note_on,0,0,0,,12,,,83,127
118943,note_off,95,0,0,,3,,,63,127
118944,note_on,1,0,0,,1,,,61,127
119039,note_off,95,0,0,,1,,,61,127
119040,note_on,1,0,0,,12,,,59,127
119135,note_off,95,0,0,,12,,,59,127
119136,note_on,1,0,0,,10,,,57,127
119231,note_off,95,0,0,,10,,,57,127
119231,note_off,0,0,0,,12,,,83,127
119232,note_on,1,0,0,,8,,,56,127
119232,note_on,0,0,0,,10,,,81,127
119327,note_off,95,0,0,,8,,,56,127
119328,note_on,1,0,0,,6,,,54,127
119423,note_off,95,0,0,,6,,,54,127
119423,note_off,0,0,0,,10,,,81,127
119424,note_on,1,0,0,,4,,,40,127
119424,note_on,0,0,0,,8,,,80,127
119519,note_off,95,0,0,,4,,,40,127
119520,note_on,1,0,0,,4,,,52,127
119615,note_off,95,0,0,,4,,,52,127
119615,note_off,0,0,0,,8,,,80,127
119616,note_on,1,0,0,,3,,,51,127
119616,note_on,0,0,0,,12,,,83,127
119711,note_off,95,0,0,,3,,,51,127
119712,note_on,1,0,0,,1,,,49,127
119807,note_off,95,0,0,,1,,,49,127
119808,note_on,1,0,0,,12,,,47,127
119903,note_off,95,0,0,,12,,,47,127
119904,note_on,1,0,0,,10,,,45,127
119999,note_off,95,0,0,,10,,,45,127
119999,note_off,0,0,0,,12,,,83,127
120000,note_on,1,0,0,,8,,,44,127
120000,note_on,0,0,0,,10,,,81,127
120095,note_off,95,0,0,,8,,,44,127
120096,note_on,1,0,0,,6,,,42,127
120191,note_off,95,0,0,,6,,,42,127
120191,note_off,0,0,0,,10,,,81,127
120192,note_on,1,0,0,,4,,,40,127
120192,note_on,0,0,0,,8,,,80,127
120287,note_off,95,0,0,,8,,,80,127
120288,note_on,1,0,0,,12,,,83,127
120383,note_off,95,0,0,,12,,,83,127
120383,note_off,0,0,0,,4,,,40,127
120384,note_on,1,0,0,,10,,,57,127
120384,note_on,0,0,0,,10,,,81,127
120479,note_off,95,0,0,,10,,,81,127
120480,note_on,1,0,0,,6,,,78,127
120575,note_off,95,0,0,,6,,,78,127
120575,note_off,0,0,0,,10,,,57,127
120576,note_on,1,0,0,,12,,,59,127
120576,note_on,0,0,0,,8,,,80,127
120576,note_on,0,0,0,,4,,,76,127
120767,note_off,191,0,0,,4,,,76,127
120767,note_off,0,0,0,,8,,,80,127
120767,note_off,0,0,0,,12,,,59,127
120768,note_on,1,0,0,,12,,,47,127
120768,note_on,0,0,0,,3,,,75,127
120768,note_on,0,0,0,,6,,,78,127
120959,note_off,191,0,0,,6,,,78,127
120959,note_off,0,0,0,,3,,,75,127
120959,note_off,0,0,0,,12,,,47,127
120960,note_on,1,0,0,,4,,,52,127
120960,note_on,0,0,0,,4,,,76,127
121055,note_off,95,0,0,,4,,,52,127
121056,note_on,1,0,0,,4,,,64,127
121120,note_off,64,0,0,,4,,,76,127
121151,note_off,31,0,0,,4,,,64,127
121152,note_on,1,0,0,,3,,,63,127
121152,note_on,0,0,0,,12,,,83,127
121247,note_off,95,0,0,,3,,,63,127
121248,note_on,1,0,0,,1,,,61,127
121343,note_off,95,0,0,,1,,,61,127
121344,note_on,1,0,0,,12,,,59,127
121439,note_off,95,0,0,,12,,,59,127
121440,note_on,1,0,0,,10,,,57,127
121535,note_off,95,0,0,,10,,,57,127
121535,note_off,0,0,0,,12,,,83,127
121536,note_on,1,0,0,,8,,,56,127
121536,note_on,0,0,0,,10,,,81,127
121631,note_off,95,0,0,,8,,,56,127
121632,note_on,1,0,0,,6,,,54,127
121727,note_off,95,0,0,,6,,,54,127
121727,note_off,0,0,0,,10,,,81,127
121728,note_on,1,0,0,,4,,,40,127
121728,note_on,0,0,0,,8,,,80,127
121823,note_off,95,0,0,,4,,,40,127
121824,note_on,1,0,0,,4,,,52,127
121903,note_off,79,0,0,,8,,,80,127
121919,note_off,16,0,0,,4,,,52,127
121920,note_on,1,0,0,,3,,,51,127
121920,note_on,0,0,0,,12,,,83,127
122015,note_off,95,0,0,,3,,,51,127
122016,note_on,1,0,0,,1,,,49,127
122111,note_off,95,0,0,,1,,,49,127
122112,note_on,1,0,0,,12,,,47,127
122207,note_off,95,0,0,,12,,,47,127
122208,note_on,1,0,0,,10,,,45,127
122303,note_off,95,0,0,,10,,,45,127
122303,note_off,0,0,0,,12,,,83,127
122304,note_on,1,0,0,,8,,,44,127
122304,note_on,0,0,0,,10,,,81,127
122399,note_off,95,0,0,,8,,,44,127
122400,note_on,1,0,0,,6,,,42,127
122495,note_off,95,0,0,,6,,,42,127
122495,note_off,0,0,0,,10,,,81,127
122496,note_on,1,0,0,,4,,,40,127
122496,note_on,0,0,0,,8,,,80,127
122591,note_off,95,0,0,,8,,,80,127
122592,note_on,1,0,0,,12,,,83,127
122687,note_off,95,0,0,,12,,,83,127
122687,note_off,0,0,0,,4,,,40,127
122688,note_on,1,0,0,,10,,,57,127
122688,note_on,0,0,0,,10,,,81,127
122783,note_off,95,0,0,,10,,,81,127
122784,note_on,1,0,0,,6,,,78,127
122879,note_off,95,0,0,,6,,,78,127
122879,note_off,0,0,0,,10,,,57,127
122880,note_on,1,0,0,,12,,,59,127
122880,note_on,0,0,0,,4,,,76,127
122880,note_on,0,0,0,,8,,,80,127
123071,note_off,191,0,0,,8,,,80,127
123071,note_off,0,0,0,,4,,,76,127
123071,note_off,0,0,0,,12,,,59,127
123072,note_on,1,0,0,,8,,,80,127
123072,note_on,0,0,0,,12,,,47,127
123072,note_on,0,0,0,,3,,,75,127
123120,note_on,48,0,0,,6,,,78,127
123136,note_off,16,0,0,,8,,,80,127
123168,note_on,32,0,0,,4,,,76,127
123184,note_off,16,0,0,,6,,,78,127
123216,note_on,32,0,0,,6,,,78,127
123232,note_off,16,0,0,,4,,,76,127
123263,note_off,31,0,0,,6,,,78,127
123263,note_off,0,0,0,,3,,,75,127
123263,note_off,0,0,0,,12,,,47,127
123264,note_on,1,0,0,,4,,,52,127
123264,note_on,0,0,0,,4,,,76,127
123359,note_off,95,0,0,,4,,,76,127
123360,note_on,1,0,0,,12,,,83,127
123455,note_off,95,0,0,,12,,,83,127
123456,note_on,1,0,0,,8,,,80,127
123551,note_off,95,0,0,,8,,,80,127
123552,note_on,1,0,0,,4,,,76,127
123647,note_off,95,0,0,,4,,,76,127
123648,note_on,1,0,0,,12,,,71,127
123743,note_off,95,0,0,,12,,,71,127
123744,note_on,1,0,0,,4,,,76,127
123839,note_off,95,0,0,,4,,,76,127
123839,note_off,0,0,0,,4,,,52,127
123840,note_on,1,0,0,,12,,,71,127
123935,note_off,95,0,0,,12,,,71,127
123936,note_on,1,0,0,,8,,,68,127
124031,note_off,95,0,0,,8,,,68,127
124032,note_on,1,0,0,,4,,,64,127
124127,note_off,95,0,0,,4,,,64,127
124128,note_on,1,0,0,,12,,,71,127
124223,note_off,95,0,0,,12,,,71,127
124224,note_on,1,0,0,,8,,,68,127
124319,note_off,95,0,0,,8,,,68,127
124320,note_on,1,0,0,,4,,,64,127
124415,note_off,95,0,0,,4,,,64,127
124416,note_on,1,0,0,,12,,,59,127
124511,note_off,95,0,0,,12,,,59,127
124512,note_on,1,0,0,,4,,,52,127
124607,note_off,95,0,0,,4,,,52,127
124608,note_on,1,0,0,,12,,,47,127
124703,note_off,95,0,0,,12,,,47,127
124704,note_on,1,0,0,,8,,,44,127
124799,note_off,95,0,0,,8,,,44,127
124800,note_on,1,0,0,,4,,,40,127
126240,note_off,1440,0,0,,4,,,40,127
127488,end_of_track,1248,1,0,,,,,,
