tick,type,time,meta,track,program,channel,pitch,tempo,note,velocity
0,copyright,0,1,0,,,,,,
0,program_change,0,0,0,6,0,,,,
0,pitchwheel,0,0,0,,0,0,,,
0,program_change,0,0,0,6,1,,,,
0,pitchwheel,0,0,0,,1,-590,,,
0,program_change,0,0,0,6,2,,,,
0,pitchwheel,0,0,0,,2,-272,,,
0,program_change,0,0,0,6,3,,,,
0,pitchwheel,0,0,0,,3,-353,,,
0,program_change,0,0,0,6,4,,,,
0,pitchwheel,0,0,0,,4,-560,,,
0,program_change,0,0,0,6,5,,,,
0,pitchwheel,0,0,0,,5,-80,,,
0,program_change,0,0,0,6,6,,,,
0,pitchwheel,0,0,0,,6,-625,,,
0,program_change,0,0,0,6,7,,,,
0,pitchwheel,0,0,0,,7,-130,,,
0,program_change,0,0,0,6,8,,,,
0,pitchwheel,0,0,0,,8,-512,,,
0,program_change,0,0,0,6,10,,,,
0,pitchwheel,0,0,0,,10,-464,,,
0,program_change,0,0,0,6,11,,,,
0,pitchwheel,0,0,0,,11,-208,,,
0,program_change,0,0,0,6,12,,,,
0,pitchwheel,0,0,0,,12,-553,,,
0,set_tempo,0,1,0,,,,500000,,
121,note_on,121,0,0,,10,,,81,127
364,note_off,243,0,0,,10,,,81,127
364,note_on,0,0,0,,10,,,81,127
607,note_off,243,0,0,,10,,,81,127
607,note_on,0,0,0,,10,,,81,127
688,note_on,81,0,0,,7,,,79,127
698,note_off,10,0,0,,10,,,81,127
769,note_on,71,0,0,,6,,,78,127
779,note_off,10,0,0,,7,,,79,127
850,note_on,71,0,0,,4,,,76,127
850,note_on,0,0,0,,10,,,69,127
860,note_off,10,0,0,,6,,,78,127
1092,note_off,232,0,0,,10,,,69,127
1092,note_off,0,0,0,,4,,,76,127
1092,note_on,0,0,0,,7,,,79,127
1092,note_on,0,0,0,,10,,,69,127
1335,note_off,243,0,0,,10,,,69,127
1335,note_off,0,0,0,,7,,,79,127
1335,note_on,0,0,0,,6,,,78,127
1335,note_on,0,0,0,,2,,,62,127
1578,note_off,243,0,0,,2,,,62,127
1578,note_off,0,0,0,,6,,,78,127
1578,note_on,0,0,0,,10,,,81,127
1578,note_on,0,0,0,,6,,,66,127
1821,note_off,243,0,0,,6,,,66,127
1821,note_off,0,0,0,,10,,,81,127
1821,note_on,0,0,0,,2,,,74,127
1821,note_on,0,0,0,,6,,,66,127
2064,note_off,243,0,0,,6,,,66,127
2064,note_off,0,0,0,,2,,,74,127
2064,note_on,0,0,0,,12,,,71,127
2064,note_on,0,0,0,,7,,,67,127
2145,note_on,81,0,0,,1,,,73,127
2155,note_off,10,0,0,,12,,,71,127
2226,note_on,71,0,0,,2,,,74,127
2236,note_off,10,0,0,,1,,,73,127
2307,note_off,71,0,0,,7,,,67,127
2307,note_on,0,0,0,,4,,,76,127
2307,note_on,0,0,0,,7,,,67,127
2317,note_off,10,0,0,,2,,,74,127
2549,note_off,232,0,0,,7,,,67,127
2549,note_off,0,0,0,,4,,,76,127
2549,note_on,0,0,0,,1,,,73,127
2549,note_on,0,0,0,,10,,,69,127
2792,note_off,243,0,0,,10,,,69,127
2792,note_off,0,0,0,,1,,,73,127
2792,note_on,0,0,0,,2,,,74,127
2792,note_on,0,0,0,,2,,,62,127
3035,note_off,243,0,0,,2,,,62,127
3035,note_off,0,0,0,,2,,,74,127
3035,note_on,0,0,0,,6,,,78,127
3035,note_on,0,0,0,,2,,,62,127
3278,note_off,243,0,0,,2,,,62,127
3278,note_off,0,0,0,,6,,,78,127
3278,note_on,0,0,0,,6,,,78,127
3278,note_on,0,0,0,,2,,,62,127
3521,note_off,243,0,0,,2,,,62,127
3521,note_off,0,0,0,,6,,,78,127
3521,note_on,0,0,0,,10,,,81,127
3521,note_on,0,0,0,,7,,,79,127
3521,note_on,0,0,0,,12,,,59,127
3602,note_on,81,0,0,,6,,,78,127
3612,note_off,10,0,0,,7,,,79,127
3612,note_off,0,0,0,,10,,,81,127
3683,note_on,71,0,0,,4,,,76,127
3693,note_off,10,0,0,,6,,,78,127
3759,note_off,66,0,0,,4,,,76,127
3764,note_off,5,0,0,,12,,,59,127
3764,note_on,0,0,0,,4,,,76,127
3764,note_on,0,0,0,,1,,,61,127
4007,note_off,243,0,0,,1,,,61,127
4007,note_off,0,0,0,,4,,,76,127
4007,note_on,0,0,0,,4,,,76,127
4007,note_on,0,0,0,,1,,,61,127
4250,note_off,243,0,0,,1,,,61,127
4250,note_off,0,0,0,,4,,,76,127
4250,note_on,0,0,0,,7,,,79,127
4250,note_on,0,0,0,,6,,,78,127
4250,note_on,0,0,0,,2,,,62,127
4331,note_on,81,0,0,,4,,,76,127
4341,note_off,10,0,0,,6,,,78,127
4341,note_off,0,0,0,,7,,,79,127
4412,note_on,71,0,0,,2,,,74,127
4422,note_off,10,0,0,,4,,,76,127
4488,note_off,66,0,0,,2,,,74,127
4493,note_off,5,0,0,,2,,,62,127
4493,note_on,0,0,0,,2,,,74,127
4493,note_on,0,0,0,,6,,,66,127
4736,note_off,243,0,0,,6,,,66,127
4736,note_off,0,0,0,,2,,,74,127
4736,note_on,0,0,0,,2,,,74,127
4736,note_on,0,0,0,,6,,,66,127
4979,note_off,243,0,0,,6,,,66,127
4979,note_off,0,0,0,,2,,,74,127
4979,note_on,0,0,0,,4,,,76,127
4979,note_on,0,0,0,,2,,,74,127
4979,note_on,0,0,0,,7,,,67,127
5060,note_on,81,0,0,,1,,,73,127
5070,note_off,10,0,0,,2,,,74,127
5070,note_off,0,0,0,,4,,,76,127
5141,note_on,71,0,0,,2,,,74,127
5151,note_off,10,0,0,,1,,,73,127
5222,note_off,71,0,0,,7,,,67,127
5222,note_on,0,0,0,,4,,,76,127
5222,note_on,0,0,0,,7,,,67,127
5232,note_off,10,0,0,,2,,,74,127
5464,note_off,232,0,0,,7,,,67,127
5464,note_off,0,0,0,,4,,,76,127
5464,note_on,0,0,0,,2,,,74,127
5464,note_on,0,0,0,,10,,,69,127
5525,note_on,61,0,0,,1,,,73,127
5545,note_off,20,0,0,,2,,,74,127
5585,note_on,40,0,0,,12,,,71,127
5605,note_off,20,0,0,,1,,,73,127
5645,note_on,40,0,0,,1,,,73,127
5665,note_off,20,0,0,,12,,,71,127
5704,note_off,39,0,0,,1,,,73,127
5705,note_off,1,0,0,,10,,,69,127
5705,note_on,0,0,0,,2,,,74,127
5705,note_on,0,0,0,,2,,,62,127
5932,note_off,227,0,0,,2,,,74,127
5947,note_off,15,0,0,,2,,,62,127
5947,note_on,0,0,0,,10,,,81,127
5947,note_on,0,0,0,,2,,,62,127
6190,note_off,243,0,0,,2,,,62,127
6190,note_off,0,0,0,,10,,,81,127
6190,note_on,0,0,0,,10,,,81,127
6190,note_on,0,0,0,,2,,,62,127
6433,note_off,243,0,0,,2,,,62,127
6433,note_off,0,0,0,,10,,,81,127
6433,note_on,0,0,0,,12,,,83,127
6433,note_on,0,0,0,,10,,,81,127
6433,note_on,0,0,0,,1,,,61,127
6433,note_on,0,0,0,,10,,,69,127
6514,note_on,81,0,0,,7,,,79,127
6524,note_off,10,0,0,,10,,,81,127
6524,note_off,0,0,0,,12,,,83,127
6595,note_on,71,0,0,,6,,,78,127
6605,note_off,10,0,0,,7,,,79,127
6676,note_off,71,0,0,,10,,,69,127
6676,note_off,0,0,0,,1,,,61,127
6676,note_on,0,0,0,,4,,,76,127
6676,note_on,0,0,0,,10,,,69,127
6676,note_on,0,0,0,,1,,,61,127
6686,note_off,10,0,0,,6,,,78,127
6918,note_off,232,0,0,,1,,,61,127
6918,note_off,0,0,0,,10,,,69,127
6918,note_off,0,0,0,,4,,,76,127
6918,note_on,0,0,0,,7,,,79,127
6918,note_on,0,0,0,,1,,,61,127
6918,note_on,0,0,0,,10,,,69,127
7161,note_off,243,0,0,,10,,,69,127
7161,note_off,0,0,0,,1,,,61,127
7161,note_off,0,0,0,,7,,,79,127
7161,note_on,0,0,0,,10,,,81,127
7161,note_on,0,0,0,,7,,,79,127
7161,note_on,0,0,0,,2,,,62,127
7161,note_on,0,0,0,,10,,,69,127
7242,note_on,81,0,0,,6,,,78,127
7252,note_off,10,0,0,,7,,,79,127
7252,note_off,0,0,0,,10,,,81,127
7323,note_on,71,0,0,,4,,,76,127
7333,note_off,10,0,0,,6,,,78,127
7404,note_off,71,0,0,,10,,,69,127
7404,note_off,0,0,0,,2,,,62,127
7404,note_on,0,0,0,,6,,,78,127
7404,note_on,0,0,0,,2,,,62,127
7414,note_off,10,0,0,,4,,,76,127
7646,note_off,232,0,0,,2,,,62,127
7646,note_off,0,0,0,,6,,,78,127
7646,note_on,0,0,0,,6,,,78,127
7646,note_on,0,0,0,,2,,,62,127
7889,note_off,243,0,0,,2,,,62,127
7889,note_off,0,0,0,,6,,,78,127
7889,note_on,0,0,0,,12,,,83,127
7889,note_on,0,0,0,,7,,,67,127
8132,note_off,243,0,0,,7,,,67,127
8132,note_off,0,0,0,,12,,,83,127
8132,note_on,0,0,0,,4,,,76,127
8132,note_on,0,0,0,,7,,,67,127
8375,note_off,243,0,0,,7,,,67,127
8375,note_off,0,0,0,,4,,,76,127
8375,note_on,0,0,0,,2,,,74,127
8375,note_on,0,0,0,,8,,,68,127
8618,note_off,243,0,0,,8,,,68,127
8618,note_off,0,0,0,,2,,,74,127
8618,note_on,0,0,0,,4,,,76,127
8618,note_on,0,0,0,,10,,,69,127
8679,note_on,61,0,0,,2,,,74,127
8699,note_off,20,0,0,,4,,,76,127
8739,note_on,40,0,0,,1,,,73,127
8759,note_off,20,0,0,,2,,,74,127
8799,note_on,40,0,0,,2,,,74,127
8819,note_off,20,0,0,,1,,,73,127
8859,note_off,40,0,0,,2,,,74,127
8859,note_off,0,0,0,,10,,,69,127
8859,note_on,0,0,0,,4,,,76,127
8859,note_on,0,0,0,,10,,,69,127
9102,note_off,243,0,0,,10,,,69,127
9102,note_off,0,0,0,,4,,,76,127
9102,note_on,0,0,0,,4,,,76,127
9102,note_on,0,0,0,,10,,,69,127
9345,note_off,243,0,0,,10,,,69,127
9345,note_off,0,0,0,,4,,,76,127
9345,note_on,0,0,0,,10,,,81,127
9345,note_on,0,0,0,,10,,,69,127
9345,note_on,0,0,0,,6,,,66,127
9426,note_on,81,0,0,,6,,,78,127
9436,note_off,10,0,0,,10,,,81,127
9507,note_on,71,0,0,,4,,,76,127
9517,note_off,10,0,0,,6,,,78,127
9588,note_off,71,0,0,,6,,,66,127
9588,note_off,0,0,0,,10,,,69,127
9588,note_on,0,0,0,,2,,,74,127
9588,note_on,0,0,0,,10,,,69,127
9588,note_on,0,0,0,,6,,,66,127
9598,note_off,10,0,0,,4,,,76,127
9830,note_off,232,0,0,,6,,,66,127
9830,note_off,0,0,0,,10,,,69,127
9830,note_off,0,0,0,,2,,,74,127
9830,note_on,0,0,0,,2,,,74,127
9830,note_on,0,0,0,,6,,,66,127
9830,note_on,0,0,0,,10,,,69,127
10073,note_off,243,0,0,,10,,,69,127
10073,note_off,0,0,0,,6,,,66,127
10073,note_off,0,0,0,,2,,,74,127
10073,note_on,0,0,0,,10,,,81,127
10073,note_on,0,0,0,,10,,,69,127
10073,note_on,0,0,0,,4,,,64,127
10154,note_on,81,0,0,,4,,,76,127
10164,note_off,10,0,0,,10,,,81,127
10235,note_on,71,0,0,,2,,,74,127
10245,note_off,10,0,0,,4,,,76,127
10316,note_off,71,0,0,,4,,,64,127
10316,note_off,0,0,0,,10,,,69,127
10316,note_on,0,0,0,,1,,,73,127
10316,note_on,0,0,0,,10,,,69,127
10316,note_on,0,0,0,,4,,,64,127
10326,note_off,10,0,0,,2,,,74,127
10558,note_off,232,0,0,,4,,,64,127
10558,note_off,0,0,0,,10,,,69,127
10558,note_off,0,0,0,,1,,,73,127
10558,note_on,0,0,0,,1,,,73,127
10558,note_on,0,0,0,,4,,,64,127
10558,note_on,0,0,0,,10,,,69,127
10801,note_off,243,0,0,,10,,,69,127
10801,note_off,0,0,0,,4,,,64,127
10801,note_off,0,0,0,,1,,,73,127
10801,note_on,0,0,0,,10,,,81,127
10801,note_on,0,0,0,,10,,,69,127
10801,note_on,0,0,0,,2,,,62,127
10882,note_on,81,0,0,,2,,,74,127
10892,note_off,10,0,0,,10,,,81,127
10963,note_on,71,0,0,,1,,,73,127
10973,note_off,10,0,0,,2,,,74,127
11044,note_off,71,0,0,,2,,,62,127
11044,note_off,0,0,0,,10,,,69,127
11044,note_on,0,0,0,,12,,,71,127
11044,note_on,0,0,0,,8,,,68,127
11044,note_on,0,0,0,,2,,,62,127
11054,note_off,10,0,0,,1,,,73,127
11286,note_off,232,0,0,,2,,,62,127
11286,note_off,0,0,0,,8,,,68,127
11286,note_off,0,0,0,,12,,,71,127
11286,note_on,0,0,0,,12,,,71,127
11286,note_on,0,0,0,,8,,,68,127
11286,note_on,0,0,0,,2,,,62,127
11529,note_off,243,0,0,,2,,,62,127
11529,note_off,0,0,0,,8,,,68,127
11529,note_off,0,0,0,,12,,,71,127
11529,note_on,0,0,0,,10,,,81,127
11529,note_on,0,0,0,,10,,,69,127
11529,note_on,0,0,0,,1,,,61,127
11610,note_on,81,0,0,,1,,,73,127
11620,note_off,10,0,0,,10,,,81,127
11691,note_on,71,0,0,,12,,,71,127
11701,note_off,10,0,0,,1,,,73,127
11772,note_off,71,0,0,,1,,,61,127
11772,note_off,0,0,0,,10,,,69,127
11772,note_on,0,0,0,,10,,,69,127
11772,note_on,0,0,0,,1,,,61,127
11782,note_off,10,0,0,,12,,,71,127
12014,note_off,232,0,0,,1,,,61,127
12014,note_off,0,0,0,,10,,,69,127
12014,note_on,0,0,0,,10,,,69,127
12014,note_on,0,0,0,,1,,,61,127
12257,note_off,243,0,0,,1,,,61,127
12257,note_off,0,0,0,,10,,,69,127
12257,note_on,0,0,0,,10,,,81,127
12257,note_on,0,0,0,,12,,,59,127
12338,note_on,81,0,0,,6,,,78,127
12348,note_off,10,0,0,,10,,,81,127
12419,note_on,71,0,0,,4,,,76,127
12429,note_off,10,0,0,,6,,,78,127
12500,note_off,71,0,0,,12,,,59,127
12500,note_on,0,0,0,,3,,,75,127
12500,note_on,0,0,0,,12,,,59,127
12510,note_off,10,0,0,,4,,,76,127
12742,note_off,232,0,0,,12,,,59,127
12742,note_off,0,0,0,,3,,,75,127
12742,note_on,0,0,0,,3,,,75,127
12742,note_on,0,0,0,,10,,,69,127
12985,note_off,243,0,0,,10,,,69,127
12985,note_off,0,0,0,,3,,,75,127
12985,note_on,0,0,0,,12,,,83,127
12985,note_on,0,0,0,,8,,,68,127
13228,note_off,243,0,0,,12,,,83,127
13228,note_on,0,0,0,,2,,,74,127
13465,note_off,237,0,0,,8,,,68,127
13470,note_off,5,0,0,,2,,,74,127
13470,note_on,0,0,0,,1,,,73,127
13470,note_on,0,0,0,,10,,,69,127
13713,note_off,243,0,0,,10,,,69,127
13713,note_off,0,0,0,,1,,,73,127
13713,note_on,0,0,0,,6,,,78,127
13713,note_on,0,0,0,,2,,,62,127
13956,note_off,243,0,0,,6,,,78,127
13956,note_on,0,0,0,,12,,,71,127
14193,note_off,237,0,0,,2,,,62,127
14198,note_on,5,0,0,,3,,,63,127
14259,note_on,61,0,0,,10,,,69,127
14272,note_off,13,0,0,,12,,,71,127
14320,note_on,48,0,0,,8,,,68,127
14340,note_off,20,0,0,,10,,,69,127
14380,note_on,40,0,0,,10,,,69,127
14400,note_off,20,0,0,,8,,,68,127
14440,note_off,40,0,0,,10,,,69,127
14440,note_off,0,0,0,,3,,,63,127
14440,note_on,0,0,0,,8,,,68,127
14440,note_on,0,0,0,,4,,,64,127
14640,note_off,200,0,0,,8,,,68,127
14683,note_off,43,0,0,,4,,,64,127
14683,note_on,0,0,0,,4,,,76,127
14683,note_on,0,0,0,,0,,,60,127
14926,note_off,243,0,0,,0,,,60,127
14926,note_off,0,0,0,,4,,,76,127
14926,note_on,0,0,0,,4,,,76,127
14926,note_on,0,0,0,,0,,,60,127
15169,note_off,243,0,0,,0,,,60,127
15169,note_off,0,0,0,,4,,,76,127
15169,note_on,0,0,0,,5,,,77,127
15169,note_on,0,0,0,,7,,,79,127
15169,note_on,0,0,0,,2,,,62,127
15250,note_on,81,0,0,,4,,,76,127
15260,note_off,10,0,0,,7,,,79,127
15260,note_off,0,0,0,,5,,,77,127
15331,note_on,71,0,0,,2,,,74,127
15341,note_off,10,0,0,,4,,,76,127
15407,note_off,66,0,0,,2,,,74,127
15412,note_off,5,0,0,,2,,,62,127
15412,note_on,0,0,0,,2,,,74,127
15412,note_on,0,0,0,,12,,,71,127
15655,note_off,243,0,0,,12,,,71,127
15655,note_off,0,0,0,,2,,,74,127
15655,note_on,0,0,0,,2,,,74,127
15655,note_on,0,0,0,,8,,,68,127
15898,note_off,243,0,0,,8,,,68,127
15898,note_off,0,0,0,,2,,,74,127
15898,note_on,0,0,0,,0,,,72,127
15898,note_on,0,0,0,,2,,,74,127
15898,note_on,0,0,0,,10,,,69,127
15979,note_on,81,0,0,,12,,,71,127
15989,note_off,10,0,0,,2,,,74,127
15989,note_off,0,0,0,,0,,,72,127
16058,note_off,69,0,0,,10,,,69,127
16059,note_on,1,0,0,,10,,,69,127
16069,note_off,10,0,0,,12,,,71,127
16140,note_on,71,0,0,,4,,,76,127
16140,note_on,0,0,0,,0,,,60,127
16150,note_off,10,0,0,,10,,,69,127
16382,note_off,232,0,0,,0,,,60,127
16382,note_off,0,0,0,,4,,,76,127
16382,note_on,0,0,0,,4,,,76,127
16382,note_on,0,0,0,,0,,,60,127
16625,note_off,243,0,0,,0,,,60,127
16625,note_off,0,0,0,,4,,,76,127
16625,note_on,0,0,0,,7,,,79,127
16625,note_on,0,0,0,,5,,,77,127
16625,note_on,0,0,0,,2,,,62,127
16706,note_on,81,0,0,,4,,,76,127
16716,note_off,10,0,0,,5,,,77,127
16716,note_off,0,0,0,,7,,,79,127
16787,note_on,71,0,0,,2,,,74,127
16797,note_off,10,0,0,,4,,,76,127
16863,note_off,66,0,0,,2,,,74,127
16868,note_off,5,0,0,,2,,,62,127
16868,note_on,0,0,0,,2,,,74,127
16868,note_on,0,0,0,,12,,,71,127
17111,note_off,243,0,0,,12,,,71,127
17111,note_off,0,0,0,,2,,,74,127
17111,note_on,0,0,0,,2,,,74,127
17111,note_on,0,0,0,,8,,,68,127
17354,note_off,243,0,0,,8,,,68,127
17354,note_off,0,0,0,,2,,,74,127
17354,note_on,0,0,0,,0,,,72,127
17354,note_on,0,0,0,,2,,,74,127
17354,note_on,0,0,0,,10,,,69,127
17435,note_on,81,0,0,,12,,,71,127
17445,note_off,10,0,0,,2,,,74,127
17445,note_off,0,0,0,,0,,,72,127
17514,note_off,69,0,0,,10,,,69,127
17515,note_on,1,0,0,,10,,,69,127
17525,note_off,10,0,0,,12,,,71,127
17596,note_on,71,0,0,,4,,,76,127
17596,note_on,0,0,0,,0,,,60,127
17606,note_off,10,0,0,,10,,,69,127
17838,note_off,232,0,0,,0,,,60,127
17838,note_off,0,0,0,,4,,,76,127
17838,note_on,0,0,0,,4,,,76,127
17838,note_on,0,0,0,,0,,,60,127
18081,note_off,243,0,0,,0,,,60,127
18081,note_off,0,0,0,,4,,,76,127
18081,note_on,0,0,0,,2,,,74,127
18081,note_on,0,0,0,,4,,,76,127
18081,note_on,0,0,0,,2,,,62,127
18162,note_on,81,0,0,,0,,,72,127
18172,note_off,10,0,0,,4,,,76,127
18172,note_off,0,0,0,,2,,,74,127
18243,note_on,71,0,0,,12,,,71,127
18253,note_off,10,0,0,,0,,,72,127
18319,note_off,66,0,0,,12,,,71,127
18324,note_off,5,0,0,,2,,,62,127
18324,note_on,0,0,0,,12,,,71,127
18324,note_on,0,0,0,,2,,,62,127
18567,note_off,243,0,0,,2,,,62,127
18567,note_off,0,0,0,,12,,,71,127
18567,note_on,0,0,0,,4,,,76,127
18567,note_on,0,0,0,,4,,,64,127
18810,note_off,243,0,0,,4,,,64,127
18810,note_off,0,0,0,,4,,,76,127
18810,note_on,0,0,0,,2,,,74,127
18810,note_on,0,0,0,,4,,,76,127
18810,note_on,0,0,0,,5,,,65,127
18891,note_on,81,0,0,,0,,,72,127
18901,note_off,10,0,0,,4,,,76,127
18901,note_off,0,0,0,,2,,,74,127
18972,note_on,71,0,0,,12,,,71,127
18982,note_off,10,0,0,,0,,,72,127
19048,note_off,66,0,0,,12,,,71,127
19053,note_off,5,0,0,,5,,,65,127
19053,note_on,0,0,0,,12,,,71,127
19053,note_on,0,0,0,,4,,,64,127
19296,note_off,243,0,0,,4,,,64,127
19296,note_off,0,0,0,,12,,,71,127
19296,note_on,0,0,0,,4,,,76,127
19296,note_on,0,0,0,,4,,,64,127
19539,note_off,243,0,0,,4,,,64,127
19539,note_off,0,0,0,,4,,,76,127
19539,note_on,0,0,0,,4,,,76,127
19539,note_on,0,0,0,,2,,,74,127
19539,note_on,0,0,0,,5,,,65,127
19620,note_on,81,0,0,,0,,,72,127
19630,note_off,10,0,0,,2,,,74,127
19630,note_off,0,0,0,,4,,,76,127
19701,note_on,71,0,0,,12,,,71,127
19711,note_off,10,0,0,,0,,,72,127
19777,note_off,66,0,0,,12,,,71,127
19782,note_off,5,0,0,,5,,,65,127
19782,note_on,0,0,0,,12,,,71,127
19782,note_on,0,0,0,,4,,,64,127
20025,note_off,243,0,0,,4,,,64,127
20025,note_off,0,0,0,,12,,,71,127
20025,note_on,0,0,0,,10,,,81,127
20025,note_on,0,0,0,,4,,,64,127
20268,note_off,243,0,0,,4,,,64,127
20268,note_off,0,0,0,,10,,,81,127
20268,note_on,0,0,0,,10,,,81,127
20268,note_on,0,0,0,,8,,,80,127
20268,note_on,0,0,0,,4,,,64,127
20349,note_on,81,0,0,,6,,,78,127
20359,note_off,10,0,0,,8,,,80,127
20359,note_off,0,0,0,,10,,,81,127
20430,note_on,71,0,0,,4,,,76,127
20440,note_off,10,0,0,,6,,,78,127
20506,note_off,66,0,0,,4,,,76,127
20511,note_off,5,0,0,,4,,,64,127
20511,note_on,0,0,0,,4,,,76,127
20511,note_on,0,0,0,,1,,,61,127
20738,note_off,227,0,0,,4,,,76,127
20753,note_off,15,0,0,,1,,,61,127
20753,note_on,0,0,0,,4,,,76,127
20753,note_on,0,0,0,,10,,,57,127
20996,note_off,243,0,0,,10,,,57,127
20996,note_off,0,0,0,,4,,,76,127
20996,note_on,0,0,0,,8,,,80,127
20996,note_on,0,0,0,,6,,,78,127
20996,note_on,0,0,0,,2,,,62,127
21077,note_on,81,0,0,,4,,,76,127
21087,note_off,10,0,0,,6,,,78,127
21087,note_off,0,0,0,,8,,,80,127
21158,note_on,71,0,0,,2,,,74,127
21168,note_off,10,0,0,,4,,,76,127
21234,note_off,66,0,0,,2,,,74,127
21239,note_off,5,0,0,,2,,,62,127
21239,note_on,0,0,0,,2,,,74,127
21239,note_on,0,0,0,,2,,,62,127
21482,note_off,243,0,0,,2,,,62,127
21482,note_off,0,0,0,,2,,,74,127
21482,note_on,0,0,0,,2,,,74,127
21482,note_on,0,0,0,,12,,,59,127
21725,note_off,243,0,0,,12,,,59,127
21725,note_off,0,0,0,,2,,,74,127
21725,note_on,0,0,0,,6,,,78,127
21725,note_on,0,0,0,,4,,,76,127
21725,note_on,0,0,0,,1,,,61,127
21806,note_on,81,0,0,,2,,,74,127
21816,note_off,10,0,0,,4,,,76,127
21816,note_off,0,0,0,,6,,,78,127
21887,note_on,71,0,0,,1,,,73,127
21897,note_off,10,0,0,,2,,,74,127
21963,note_off,66,0,0,,1,,,73,127
21968,note_off,5,0,0,,1,,,61,127
21968,note_on,0,0,0,,1,,,73,127
21968,note_on,0,0,0,,1,,,61,127
22211,note_off,243,0,0,,1,,,61,127
22211,note_off,0,0,0,,1,,,73,127
22211,note_on,0,0,0,,4,,,76,127
22211,note_on,0,0,0,,10,,,57,127
22454,note_off,243,0,0,,10,,,57,127
22454,note_off,0,0,0,,4,,,76,127
22454,note_on,0,0,0,,2,,,74,127
22454,note_on,0,0,0,,4,,,76,127
22454,note_on,0,0,0,,2,,,62,127
22535,note_on,81,0,0,,1,,,73,127
22545,note_off,10,0,0,,4,,,76,127
22545,note_off,0,0,0,,2,,,74,127
22616,note_on,71,0,0,,12,,,71,127
22626,note_off,10,0,0,,1,,,73,127
22697,note_off,71,0,0,,2,,,62,127
22697,note_on,0,0,0,,1,,,73,127
22697,note_on,0,0,0,,4,,,64,127
22707,note_off,10,0,0,,12,,,71,127
22939,note_off,232,0,0,,1,,,73,127
22939,note_on,0,0,0,,12,,,71,127
22939,note_on,0,0,0,,4,,,52,127
23180,note_off,241,0,0,,4,,,64,127
23181,note_off,1,0,0,,4,,,52,127
23181,note_off,0,0,0,,12,,,71,127
23181,note_on,0,0,0,,10,,,69,127
23181,note_on,0,0,0,,10,,,57,127
23424,note_off,243,0,0,,10,,,57,127
23424,note_off,0,0,0,,10,,,69,127
23424,note_on,0,0,0,,4,,,76,127
23424,note_on,0,0,0,,1,,,61,127
23667,note_off,243,0,0,,1,,,61,127
23667,note_off,0,0,0,,4,,,76,127
23667,note_on,0,0,0,,4,,,76,127
23667,note_on,0,0,0,,10,,,57,127
23910,note_off,243,0,0,,10,,,57,127
23910,note_off,0,0,0,,4,,,76,127
23910,note_on,0,0,0,,6,,,78,127
23910,note_on,0,0,0,,8,,,80,127
23910,note_on,0,0,0,,2,,,62,127
23991,note_on,81,0,0,,4,,,76,127
24001,note_off,10,0,0,,8,,,80,127
24001,note_off,0,0,0,,6,,,78,127
24072,note_on,71,0,0,,2,,,74,127
24082,note_off,10,0,0,,4,,,76,127
24148,note_off,66,0,0,,2,,,74,127
24153,note_off,5,0,0,,2,,,62,127
24153,note_on,0,0,0,,2,,,74,127
24153,note_on,0,0,0,,2,,,62,127
24396,note_off,243,0,0,,2,,,62,127
24396,note_off,0,0,0,,2,,,74,127
24396,note_on,0,0,0,,2,,,74,127
24396,note_on,0,0,0,,12,,,59,127
24639,note_off,243,0,0,,12,,,59,127
24639,note_off,0,0,0,,2,,,74,127
24639,note_on,0,0,0,,4,,,76,127
24639,note_on,0,0,0,,6,,,78,127
24639,note_on,0,0,0,,1,,,61,127
24720,note_on,81,0,0,,2,,,74,127
24730,note_off,10,0,0,,6,,,78,127
24730,note_off,0,0,0,,4,,,76,127
24801,note_on,71,0,0,,1,,,73,127
24811,note_off,10,0,0,,2,,,74,127
24877,note_off,66,0,0,,1,,,73,127
24882,note_off,5,0,0,,1,,,61,127
24882,note_on,0,0,0,,1,,,73,127
24882,note_on,0,0,0,,1,,,61,127
25125,note_off,243,0,0,,1,,,61,127
25125,note_off,0,0,0,,1,,,73,127
25125,note_on,0,0,0,,4,,,76,127
25125,note_on,0,0,0,,10,,,57,127
25368,note_off,243,0,0,,10,,,57,127
25368,note_off,0,0,0,,4,,,76,127
25368,note_on,0,0,0,,2,,,74,127
25368,note_on,0,0,0,,4,,,76,127
25368,note_on,0,0,0,,2,,,62,127
25449,note_on,81,0,0,,1,,,73,127
25459,note_off,10,0,0,,4,,,76,127
25459,note_off,0,0,0,,2,,,74,127
25530,note_on,71,0,0,,12,,,71,127
25540,note_off,10,0,0,,1,,,73,127
25611,note_off,71,0,0,,2,,,62,127
25611,note_on,0,0,0,,1,,,73,127
25611,note_on,0,0,0,,4,,,64,127
25621,note_off,10,0,0,,12,,,71,127
25853,note_off,232,0,0,,1,,,73,127
25853,note_on,0,0,0,,12,,,71,127
25853,note_on,0,0,0,,4,,,52,127
26094,note_off,241,0,0,,4,,,64,127
26095,note_off,1,0,0,,4,,,52,127
26095,note_off,0,0,0,,12,,,71,127
26095,note_on,0,0,0,,10,,,69,127
26095,note_on,0,0,0,,10,,,57,127
26338,note_off,243,0,0,,10,,,57,127
26338,note_on,0,0,0,,10,,,81,127
26338,note_on,0,0,0,,10,,,57,127
26338,note_on,0,0,0,,1,,,61,127
26575,note_off,237,0,0,,10,,,69,127
26580,note_off,5,0,0,,1,,,61,127
26580,note_off,0,0,0,,10,,,57,127
26580,note_off,0,0,0,,10,,,81,127
26580,note_on,0,0,0,,10,,,81,127
26580,note_on,0,0,0,,1,,,61,127
26580,note_on,0,0,0,,10,,,57,127
26823,note_off,243,0,0,,10,,,57,127
26823,note_off,0,0,0,,1,,,61,127
26823,note_off,0,0,0,,10,,,81,127
26823,note_on,0,0,0,,12,,,83,127
26823,note_on,0,0,0,,10,,,81,127
26823,note_on,0,0,0,,10,,,57,127
26823,note_on,0,0,0,,6,,,54,127
26904,note_on,81,0,0,,8,,,80,127
26914,note_off,10,0,0,,10,,,81,127
26914,note_off,0,0,0,,12,,,83,127
26985,note_on,71,0,0,,6,,,78,127
26995,note_off,10,0,0,,8,,,80,127
27061,note_off,66,0,0,,6,,,78,127
27066,note_off,5,0,0,,6,,,54,127
27066,note_off,0,0,0,,10,,,57,127
27066,note_on,0,0,0,,6,,,78,127
27066,note_on,0,0,0,,6,,,54,127
27066,note_on,0,0,0,,10,,,57,127
27147,note_on,81,0,0,,4,,,76,127
27157,note_off,10,0,0,,6,,,78,127
27228,note_on,71,0,0,,2,,,74,127
27238,note_off,10,0,0,,4,,,76,127
27304,note_off,66,0,0,,2,,,74,127
27309,note_off,5,0,0,,10,,,57,127
27309,note_off,0,0,0,,6,,,54,127
27309,note_on,0,0,0,,2,,,74,127
27309,note_on,0,0,0,,12,,,59,127
27309,note_on,0,0,0,,8,,,56,127
27390,note_on,81,0,0,,1,,,73,127
27400,note_off,10,0,0,,2,,,74,127
27471,note_on,71,0,0,,12,,,71,127
27481,note_off,10,0,0,,1,,,73,127
27552,note_off,71,0,0,,8,,,56,127
27552,note_off,0,0,0,,12,,,59,127
27552,note_on,0,0,0,,1,,,73,127
27552,note_on,0,0,0,,1,,,61,127
27552,note_on,0,0,0,,10,,,57,127
27562,note_off,10,0,0,,12,,,71,127
27633,note_on,71,0,0,,2,,,74,127
27643,note_off,10,0,0,,1,,,73,127
27714,note_on,71,0,0,,4,,,76,127
27724,note_off,10,0,0,,2,,,74,127
27790,note_off,66,0,0,,4,,,76,127
27795,note_off,5,0,0,,10,,,57,127
27795,note_off,0,0,0,,1,,,61,127
27795,note_on,0,0,0,,4,,,76,127
27795,note_on,0,0,0,,10,,,57,127
27795,note_on,0,0,0,,1,,,61,127
27876,note_on,81,0,0,,6,,,78,127
27886,note_off,10,0,0,,4,,,76,127
27957,note_on,71,0,0,,8,,,80,127
27967,note_off,10,0,0,,6,,,78,127
28038,note_off,71,0,0,,1,,,61,127
28038,note_off,0,0,0,,10,,,57,127
28038,note_on,0,0,0,,10,,,81,127
28038,note_on,0,0,0,,10,,,57,127
28038,note_on,0,0,0,,1,,,61,127
28048,note_off,10,0,0,,8,,,80,127
28280,note_off,232,0,0,,1,,,61,127
28280,note_off,0,0,0,,10,,,57,127
28280,note_off,0,0,0,,10,,,81,127
28280,note_on,0,0,0,,10,,,81,127
28280,note_on,0,0,0,,12,,,83,127
28280,note_on,0,0,0,,10,,,57,127
28280,note_on,0,0,0,,6,,,54,127
28361,note_on,81,0,0,,8,,,80,127
28371,note_off,10,0,0,,12,,,83,127
28371,note_off,0,0,0,,10,,,81,127
28442,note_on,71,0,0,,6,,,78,127
28452,note_off,10,0,0,,8,,,80,127
28518,note_off,66,0,0,,6,,,78,127
28523,note_off,5,0,0,,6,,,54,127
28523,note_off,0,0,0,,10,,,57,127
28523,note_on,0,0,0,,6,,,78,127
28523,note_on,0,0,0,,6,,,54,127
28523,note_on,0,0,0,,10,,,57,127
28604,note_on,81,0,0,,4,,,76,127
28614,note_off,10,0,0,,6,,,78,127
28685,note_on,71,0,0,,2,,,74,127
28695,note_off,10,0,0,,4,,,76,127
28761,note_off,66,0,0,,2,,,74,127
28766,note_off,5,0,0,,10,,,57,127
28766,note_off,0,0,0,,6,,,54,127
28766,note_on,0,0,0,,2,,,74,127
28766,note_on,0,0,0,,12,,,59,127
28766,note_on,0,0,0,,8,,,56,127
28847,note_on,81,0,0,,1,,,73,127
28857,note_off,10,0,0,,2,,,74,127
28928,note_on,71,0,0,,12,,,71,127
28938,note_off,10,0,0,,1,,,73,127
29009,note_off,71,0,0,,8,,,56,127
29009,note_off,0,0,0,,12,,,59,127
29009,note_on,0,0,0,,1,,,73,127
29009,note_on,0,0,0,,1,,,61,127
29009,note_on,0,0,0,,10,,,57,127
29019,note_off,10,0,0,,12,,,71,127
29090,note_on,71,0,0,,10,,,81,127
29100,note_off,10,0,0,,1,,,73,127
29151,note_off,51,0,0,,10,,,81,127
29171,note_on,20,0,0,,10,,,81,127
29232,note_off,61,0,0,,10,,,81,127
29252,note_off,20,0,0,,10,,,57,127
29252,note_off,0,0,0,,1,,,61,127
29252,note_on,0,0,0,,10,,,81,127
29252,note_on,0,0,0,,10,,,57,127
29252,note_on,0,0,0,,1,,,61,127
29333,note_on,81,0,0,,4,,,76,127
29343,note_off,10,0,0,,10,,,81,127
29414,note_on,71,0,0,,10,,,81,127
29424,note_off,10,0,0,,4,,,76,127
29475,note_off,51,0,0,,10,,,81,127
29495,note_off,20,0,0,,1,,,61,127
29495,note_off,0,0,0,,10,,,57,127
29495,note_on,0,0,0,,10,,,81,127
29495,note_on,0,0,0,,1,,,49,127
29495,note_on,0,0,0,,10,,,57,127
29738,note_off,243,0,0,,10,,,57,127
29738,note_off,0,0,0,,1,,,49,127
29738,note_on,0,0,0,,2,,,50,127
29816,note_off,78,0,0,,10,,,81,127
29819,note_on,3,0,0,,6,,,78,127
29900,note_on,81,0,0,,2,,,74,127
29910,note_off,10,0,0,,6,,,78,127
29981,note_off,71,0,0,,2,,,50,127
29981,note_on,0,0,0,,1,,,73,127
29981,note_on,0,0,0,,4,,,52,127
29991,note_off,10,0,0,,2,,,74,127
30223,note_off,232,0,0,,1,,,73,127
30223,note_on,0,0,0,,12,,,71,127
30223,note_on,0,0,0,,4,,,40,127
30464,note_off,241,0,0,,4,,,52,127
30465,note_off,1,0,0,,4,,,40,127
30465,note_off,0,0,0,,12,,,71,127
30465,note_on,0,0,0,,1,,,73,127
30465,note_on,0,0,0,,10,,,45,127
30546,note_on,81,0,0,,10,,,81,127
30556,note_off,10,0,0,,1,,,73,127
30607,note_off,51,0,0,,10,,,81,127
30627,note_on,20,0,0,,10,,,81,127
30688,note_off,61,0,0,,10,,,81,127
30708,note_off,20,0,0,,10,,,45,127
30708,note_on,0,0,0,,10,,,81,127
30708,note_on,0,0,0,,10,,,45,127
30708,note_on,0,0,0,,10,,,57,127
30789,note_on,81,0,0,,4,,,76,127
30799,note_off,10,0,0,,10,,,81,127
30870,note_on,71,0,0,,10,,,81,127
30880,note_off,10,0,0,,4,,,76,127
30931,note_off,51,0,0,,10,,,81,127
30951,note_off,20,0,0,,10,,,57,127
30951,note_off,0,0,0,,10,,,45,127
30951,note_on,0,0,0,,10,,,81,127
30951,note_on,0,0,0,,1,,,49,127
30951,note_on,0,0,0,,10,,,57,127
31194,note_off,243,0,0,,10,,,57,127
31194,note_off,0,0,0,,1,,,49,127
31194,note_on,0,0,0,,2,,,50,127
31272,note_off,78,0,0,,10,,,81,127
31275,note_on,3,0,0,,6,,,78,127
31356,note_on,81,0,0,,2,,,74,127
31366,note_off,10,0,0,,6,,,78,127
31437,note_off,71,0,0,,2,,,50,127
31437,note_on,0,0,0,,1,,,73,127
31437,note_on,0,0,0,,10,,,69,127
31437,note_on,0,0,0,,4,,,52,127
31447,note_off,10,0,0,,2,,,74,127
31679,note_off,232,0,0,,10,,,69,127
31679,note_off,0,0,0,,1,,,73,127
31679,note_on,0,0,0,,12,,,71,127
31679,note_on,0,0,0,,8,,,68,127
31679,note_on,0,0,0,,4,,,40,127
31861,note_off,182,0,0,,8,,,68,127
31861,note_off,0,0,0,,12,,,71,127
31920,note_off,59,0,0,,4,,,52,127
31921,note_off,1,0,0,,4,,,40,127
31921,note_on,0,0,0,,10,,,45,127
32164,note_on,243,0,0,,10,,,81,127
32407,note_off,243,0,0,,10,,,81,127
32407,note_on,0,0,0,,10,,,81,127
32648,note_off,241,0,0,,10,,,45,127
32649,note_off,1,0,0,,10,,,81,127
32649,note_on,0,0,0,,10,,,81,127
32649,note_on,0,0,0,,12,,,83,127
32730,note_on,81,0,0,,7,,,79,127
32740,note_off,10,0,0,,12,,,83,127
32740,note_off,0,0,0,,10,,,81,127
32811,note_on,71,0,0,,6,,,78,127
32821,note_off,10,0,0,,7,,,79,127
32892,note_on,71,0,0,,4,,,76,127
32892,note_on,0,0,0,,10,,,69,127
32902,note_off,10,0,0,,6,,,78,127
33134,note_off,232,0,0,,10,,,69,127
33134,note_off,0,0,0,,4,,,76,127
33134,note_on,0,0,0,,7,,,79,127
33134,note_on,0,0,0,,10,,,69,127
33377,note_off,243,0,0,,10,,,69,127
33377,note_off,0,0,0,,7,,,79,127
33377,note_on,0,0,0,,7,,,79,127
33377,note_on,0,0,0,,6,,,78,127
33377,note_on,0,0,0,,2,,,62,127
33458,note_on,81,0,0,,4,,,76,127
33468,note_off,10,0,0,,6,,,78,127
33468,note_off,0,0,0,,7,,,79,127
33539,note_on,71,0,0,,2,,,74,127
33549,note_off,10,0,0,,4,,,76,127
33615,note_off,66,0,0,,2,,,74,127
33620,note_off,5,0,0,,2,,,62,127
33620,note_on,0,0,0,,2,,,74,127
33620,note_on,0,0,0,,2,,,62,127
33863,note_off,243,0,0,,2,,,62,127
33863,note_off,0,0,0,,2,,,74,127
33863,note_on,0,0,0,,6,,,78,127
33863,note_on,0,0,0,,2,,,62,127
34106,note_off,243,0,0,,2,,,62,127
34106,note_off,0,0,0,,6,,,78,127
34106,note_on,0,0,0,,7,,,79,127
34106,note_on,0,0,0,,6,,,78,127
34106,note_on,0,0,0,,4,,,64,127
34187,note_on,81,0,0,,4,,,76,127
34197,note_off,10,0,0,,6,,,78,127
34197,note_off,0,0,0,,7,,,79,127
34268,note_on,71,0,0,,2,,,74,127
34278,note_off,10,0,0,,4,,,76,127
34349,note_off,71,0,0,,4,,,64,127
34349,note_on,0,0,0,,1,,,73,127
34349,note_on,0,0,0,,4,,,64,127
34359,note_off,10,0,0,,2,,,74,127
34591,note_off,232,0,0,,4,,,64,127
34591,note_off,0,0,0,,1,,,73,127
34591,note_on,0,0,0,,12,,,71,127
34591,note_on,0,0,0,,7,,,67,127
34834,note_off,243,0,0,,7,,,67,127
34834,note_off,0,0,0,,12,,,71,127
34834,note_on,0,0,0,,11,,,70,127
34834,note_on,0,0,0,,6,,,66,127
35049,note_off,215,0,0,,11,,,70,127
35077,note_off,28,0,0,,6,,,66,127
35077,note_on,0,0,0,,6,,,78,127
35077,note_on,0,0,0,,2,,,62,127
35320,note_off,243,0,0,,2,,,62,127
35320,note_off,0,0,0,,6,,,78,127
35320,note_on,0,0,0,,6,,,78,127
35320,note_on,0,0,0,,12,,,59,127
35563,note_off,243,0,0,,12,,,59,127
35563,note_off,0,0,0,,6,,,78,127
35563,note_on,0,0,0,,7,,,79,127
35563,note_on,0,0,0,,10,,,81,127
35563,note_on,0,0,0,,4,,,64,127
35644,note_on,81,0,0,,6,,,78,127
35654,note_off,10,0,0,,10,,,81,127
35654,note_off,0,0,0,,7,,,79,127
35725,note_on,71,0,0,,4,,,76,127
35735,note_off,10,0,0,,6,,,78,127
35801,note_off,66,0,0,,4,,,76,127
35806,note_off,5,0,0,,4,,,64,127
35806,note_on,0,0,0,,4,,,76,127
35806,note_on,0,0,0,,4,,,64,127
35806,note_on,0,0,0,,11,,,70,127
36049,note_off,243,0,0,,11,,,70,127
36049,note_off,0,0,0,,4,,,64,127
36049,note_off,0,0,0,,4,,,76,127
36049,note_on,0,0,0,,7,,,79,127
36049,note_on,0,0,0,,4,,,64,127
36049,note_on,0,0,0,,11,,,70,127
36292,note_off,243,0,0,,11,,,70,127
36292,note_off,0,0,0,,4,,,64,127
36292,note_off,0,0,0,,7,,,79,127
36292,note_on,0,0,0,,6,,,78,127
36292,note_on,0,0,0,,7,,,79,127
36292,note_on,0,0,0,,2,,,62,127
36292,note_on,0,0,0,,12,,,71,127
36373,note_on,81,0,0,,4,,,76,127
36383,note_off,10,0,0,,7,,,79,127
36383,note_off,0,0,0,,6,,,78,127
36454,note_on,71,0,0,,2,,,74,127
36464,note_off,10,0,0,,4,,,76,127
36530,note_off,66,0,0,,2,,,74,127
36535,note_off,5,0,0,,12,,,71,127
36535,note_off,0,0,0,,2,,,62,127
36535,note_on,0,0,0,,2,,,74,127
36535,note_on,0,0,0,,2,,,62,127
36535,note_on,0,0,0,,12,,,71,127
36778,note_off,243,0,0,,12,,,71,127
36778,note_off,0,0,0,,2,,,62,127
36778,note_off,0,0,0,,2,,,74,127
36778,note_on,0,0,0,,6,,,78,127
36778,note_on,0,0,0,,2,,,62,127
36778,note_on,0,0,0,,12,,,71,127
37021,note_off,243,0,0,,12,,,71,127
37021,note_off,0,0,0,,2,,,62,127
37021,note_off,0,0,0,,6,,,78,127
37021,note_on,0,0,0,,7,,,79,127
37021,note_on,0,0,0,,10,,,81,127
37021,note_on,0,0,0,,11,,,70,127
37021,note_on,0,0,0,,4,,,64,127
37102,note_on,81,0,0,,6,,,78,127
37112,note_off,10,0,0,,10,,,81,127
37112,note_off,0,0,0,,7,,,79,127
37183,note_on,71,0,0,,4,,,76,127
37193,note_off,10,0,0,,6,,,78,127
37259,note_off,66,0,0,,4,,,76,127
37264,note_off,5,0,0,,4,,,64,127
37264,note_off,0,0,0,,11,,,70,127
37264,note_on,0,0,0,,4,,,76,127
37264,note_on,0,0,0,,4,,,64,127
37264,note_on,0,0,0,,11,,,70,127
37507,note_off,243,0,0,,11,,,70,127
37507,note_off,0,0,0,,4,,,64,127
37507,note_off,0,0,0,,4,,,76,127
37507,note_on,0,0,0,,7,,,79,127
37507,note_on,0,0,0,,11,,,70,127
37507,note_on,0,0,0,,4,,,64,127
37750,note_off,243,0,0,,4,,,64,127
37750,note_off,0,0,0,,11,,,70,127
37750,note_off,0,0,0,,7,,,79,127
37750,note_on,0,0,0,,6,,,78,127
37750,note_on,0,0,0,,7,,,79,127
37750,note_on,0,0,0,,2,,,62,127
37750,note_on,0,0,0,,12,,,71,127
37831,note_on,81,0,0,,4,,,76,127
37841,note_off,10,0,0,,7,,,79,127
37841,note_off,0,0,0,,6,,,78,127
37912,note_on,71,0,0,,2,,,74,127
37922,note_off,10,0,0,,4,,,76,127
37988,note_off,66,0,0,,2,,,74,127
37993,note_off,5,0,0,,12,,,71,127
37993,note_off,0,0,0,,2,,,62,127
37993,note_on,0,0,0,,2,,,74,127
37993,note_on,0,0,0,,2,,,62,127
37993,note_on,0,0,0,,12,,,71,127
38236,note_off,243,0,0,,12,,,71,127
38236,note_off,0,0,0,,2,,,62,127
38236,note_off,0,0,0,,2,,,74,127
38236,note_on,0,0,0,,6,,,78,127
38236,note_on,0,0,0,,2,,,62,127
38236,note_on,0,0,0,,12,,,71,127
38479,note_off,243,0,0,,12,,,71,127
38479,note_off,0,0,0,,2,,,62,127
38479,note_off,0,0,0,,6,,,78,127
38479,note_on,0,0,0,,10,,,81,127
38479,note_on,0,0,0,,12,,,83,127
38479,note_on,0,0,0,,12,,,59,127
38479,note_on,0,0,0,,12,,,71,127
38560,note_on,81,0,0,,7,,,79,127
38570,note_off,10,0,0,,12,,,83,127
38570,note_off,0,0,0,,10,,,81,127
38641,note_on,71,0,0,,6,,,78,127
38651,note_off,10,0,0,,7,,,79,127
38717,note_off,66,0,0,,6,,,78,127
38722,note_off,5,0,0,,12,,,71,127
38722,note_off,0,0,0,,12,,,59,127
38722,note_on,0,0,0,,6,,,78,127
38722,note_on,0,0,0,,1,,,61,127
38722,note_on,0,0,0,,10,,,69,127
38965,note_off,243,0,0,,10,,,69,127
38965,note_off,0,0,0,,1,,,61,127
38965,note_off,0,0,0,,6,,,78,127
38965,note_on,0,0,0,,4,,,76,127
38965,note_on,0,0,0,,10,,,69,127
38965,note_on,0,0,0,,1,,,61,127
39208,note_off,243,0,0,,1,,,61,127
39208,note_off,0,0,0,,10,,,69,127
39208,note_off,0,0,0,,4,,,76,127
39208,note_on,0,0,0,,3,,,75,127
39208,note_on,0,0,0,,12,,,59,127
39208,note_on,0,0,0,,10,,,69,127
39435,note_off,227,0,0,,3,,,75,127
39450,note_off,15,0,0,,10,,,69,127
39450,note_off,0,0,0,,12,,,59,127
39450,note_on,0,0,0,,12,,,83,127
39450,note_on,0,0,0,,12,,,59,127
39450,note_on,0,0,0,,7,,,67,127
39693,note_off,243,0,0,,7,,,67,127
39693,note_off,0,0,0,,12,,,59,127
39693,note_off,0,0,0,,12,,,83,127
39693,note_on,0,0,0,,12,,,83,127
39693,note_on,0,0,0,,7,,,67,127
39693,note_on,0,0,0,,12,,,59,127
39936,note_off,243,0,0,,12,,,59,127
39936,note_off,0,0,0,,7,,,67,127
39936,note_off,0,0,0,,12,,,83,127
39936,note_on,0,0,0,,0,,,84,127
39936,note_on,0,0,0,,2,,,86,127
39936,note_on,0,0,0,,10,,,57,127
39936,note_on,0,0,0,,7,,,67,127
40017,note_on,81,0,0,,12,,,83,127
40027,note_off,10,0,0,,2,,,86,127
40027,note_off,0,0,0,,0,,,84,127
40098,note_on,71,0,0,,10,,,81,127
40108,note_off,10,0,0,,12,,,83,127
40174,note_off,66,0,0,,10,,,81,127
40179,note_off,5,0,0,,7,,,67,127
40179,note_off,0,0,0,,10,,,57,127
40179,note_on,0,0,0,,10,,,81,127
40179,note_on,0,0,0,,6,,,66,127
40179,note_on,0,0,0,,10,,,57,127
40422,note_off,243,0,0,,10,,,57,127
40422,note_off,0,0,0,,6,,,66,127
40422,note_off,0,0,0,,10,,,81,127
40422,note_on,0,0,0,,10,,,81,127
40422,note_on,0,0,0,,10,,,57,127
40422,note_on,0,0,0,,6,,,66,127
40665,note_off,243,0,0,,6,,,66,127
40665,note_off,0,0,0,,10,,,57,127
40665,note_off,0,0,0,,10,,,81,127
40665,note_on,0,0,0,,0,,,84,127
40665,note_on,0,0,0,,12,,,83,127
40665,note_on,0,0,0,,7,,,55,127
40746,note_on,81,0,0,,10,,,81,127
40756,note_off,10,0,0,,12,,,83,127
40756,note_off,0,0,0,,0,,,84,127
40827,note_on,71,0,0,,7,,,79,127
40837,note_off,10,0,0,,10,,,81,127
40903,note_off,66,0,0,,7,,,79,127
40908,note_off,5,0,0,,7,,,55,127
40908,note_on,0,0,0,,7,,,79,127
40908,note_on,0,0,0,,7,,,55,127
40908,note_on,0,0,0,,4,,,64,127
41151,note_off,243,0,0,,4,,,64,127
41151,note_off,0,0,0,,7,,,55,127
41151,note_off,0,0,0,,7,,,79,127
41151,note_on,0,0,0,,12,,,83,127
41151,note_on,0,0,0,,7,,,55,127
41151,note_on,0,0,0,,4,,,64,127
41394,note_off,243,0,0,,4,,,64,127
41394,note_off,0,0,0,,7,,,55,127
41394,note_off,0,0,0,,12,,,83,127
41394,note_on,0,0,0,,10,,,81,127
41394,note_on,0,0,0,,10,,,57,127
41475,note_on,81,0,0,,7,,,79,127
41485,note_off,10,0,0,,10,,,81,127
41556,note_on,71,0,0,,6,,,78,127
41566,note_off,10,0,0,,7,,,79,127
41637,note_off,71,0,0,,10,,,57,127
41637,note_on,0,0,0,,4,,,76,127
41637,note_on,0,0,0,,7,,,79,127
41637,note_on,0,0,0,,12,,,59,127
41647,note_off,10,0,0,,6,,,78,127
41879,note_off,232,0,0,,12,,,59,127
41879,note_off,0,0,0,,7,,,79,127
41879,note_off,0,0,0,,4,,,76,127
41879,note_on,0,0,0,,2,,,74,127
41879,note_on,0,0,0,,6,,,78,127
41879,note_on,0,0,0,,10,,,57,127
42122,note_off,243,0,0,,10,,,57,127
42122,note_off,0,0,0,,6,,,78,127
42122,note_on,0,0,0,,4,,,76,127
42122,note_on,0,0,0,,8,,,56,127
42195,note_off,73,0,0,,2,,,74,127
42203,note_on,8,0,0,,0,,,72,127
42284,note_on,81,0,0,,12,,,71,127
42294,note_off,10,0,0,,0,,,72,127
42365,note_off,71,0,0,,8,,,56,127
42365,note_off,0,0,0,,4,,,76,127
42365,note_on,0,0,0,,0,,,72,127
42365,note_on,0,0,0,,4,,,76,127
42365,note_on,0,0,0,,10,,,57,127
42375,note_off,10,0,0,,12,,,71,127
42607,note_off,232,0,0,,10,,,57,127
42607,note_off,0,0,0,,4,,,76,127
42607,note_off,0,0,0,,0,,,72,127
42607,note_on,0,0,0,,0,,,72,127
42607,note_on,0,0,0,,4,,,76,127
42607,note_on,0,0,0,,7,,,55,127
42850,note_off,243,0,0,,7,,,55,127
42850,note_off,0,0,0,,4,,,76,127
42850,note_on,0,0,0,,2,,,74,127
42850,note_on,0,0,0,,6,,,54,127
42923,note_off,73,0,0,,0,,,72,127
42931,note_on,8,0,0,,12,,,71,127
43012,note_on,81,0,0,,10,,,69,127
43022,note_off,10,0,0,,12,,,71,127
43093,note_off,71,0,0,,6,,,54,127
43093,note_off,0,0,0,,2,,,74,127
43093,note_on,0,0,0,,12,,,71,127
43093,note_on,0,0,0,,2,,,74,127
43093,note_on,0,0,0,,7,,,55,127
43103,note_off,10,0,0,,10,,,69,127
43335,note_off,232,0,0,,7,,,55,127
43335,note_off,0,0,0,,2,,,74,127
43335,note_off,0,0,0,,12,,,71,127
43335,note_on,0,0,0,,2,,,74,127
43335,note_on,0,0,0,,6,,,54,127
43578,note_off,243,0,0,,6,,,54,127
43578,note_off,0,0,0,,2,,,74,127
43578,note_on,0,0,0,,7,,,79,127
43578,note_on,0,0,0,,4,,,52,127
43821,note_off,243,0,0,,4,,,52,127
43821,note_off,0,0,0,,7,,,79,127
43821,note_on,0,0,0,,0,,,72,127
43821,note_on,0,0,0,,4,,,64,127
44064,note_off,243,0,0,,4,,,64,127
44064,note_off,0,0,0,,0,,,72,127
44064,note_on,0,0,0,,12,,,71,127
44064,note_on,0,0,0,,2,,,62,127
44291,note_off,227,0,0,,12,,,71,127
44306,note_off,15,0,0,,2,,,62,127
44306,note_on,0,0,0,,4,,,76,127
44306,note_on,0,0,0,,0,,,60,127
44549,note_off,243,0,0,,4,,,76,127
44549,note_on,0,0,0,,10,,,69,127
44786,note_off,237,0,0,,0,,,60,127
44791,note_off,5,0,0,,10,,,69,127
44791,note_on,0,0,0,,7,,,67,127
44791,note_on,0,0,0,,1,,,61,127
45006,note_off,215,0,0,,7,,,67,127
45034,note_off,28,0,0,,1,,,61,127
45034,note_on,0,0,0,,10,,,81,127
45034,note_on,0,0,0,,2,,,62,127
45277,note_off,243,0,0,,10,,,81,127
45277,note_on,0,0,0,,2,,,74,127
45514,note_off,237,0,0,,2,,,62,127
45519,note_off,5,0,0,,2,,,74,127
45519,note_on,0,0,0,,0,,,72,127
45519,note_on,0,0,0,,6,,,66,127
45721,note_off,202,0,0,,0,,,72,127
45761,note_off,40,0,0,,6,,,66,127
45761,note_on,0,0,0,,2,,,86,127
45761,note_on,0,0,0,,7,,,67,127
45842,note_on,81,0,0,,12,,,83,127
45852,note_off,10,0,0,,2,,,86,127
45923,note_on,71,0,0,,10,,,81,127
45933,note_off,10,0,0,,12,,,83,127
46004,note_off,71,0,0,,7,,,67,127
46004,note_on,0,0,0,,7,,,79,127
46004,note_on,0,0,0,,7,,,67,127
46004,note_on,0,0,0,,12,,,71,127
46014,note_off,10,0,0,,10,,,81,127
46246,note_off,232,0,0,,12,,,71,127
46246,note_off,0,0,0,,7,,,67,127
46246,note_off,0,0,0,,7,,,79,127
46246,note_on,0,0,0,,7,,,79,127
46246,note_on,0,0,0,,7,,,67,127
46246,note_on,0,0,0,,12,,,71,127
46489,note_off,243,0,0,,12,,,71,127
46489,note_off,0,0,0,,7,,,67,127
46489,note_off,0,0,0,,7,,,79,127
46489,note_on,0,0,0,,2,,,86,127
46489,note_on,0,0,0,,6,,,66,127
46489,note_on,0,0,0,,10,,,69,127
46570,note_on,81,0,0,,10,,,81,127
46580,note_off,10,0,0,,2,,,86,127
46651,note_on,71,0,0,,7,,,79,127
46661,note_off,10,0,0,,10,,,81,127
46732,note_off,71,0,0,,10,,,69,127
46732,note_off,0,0,0,,6,,,66,127
46732,note_on,0,0,0,,6,,,78,127
46732,note_on,0,0,0,,6,,,66,127
46732,note_on,0,0,0,,10,,,69,127
46742,note_off,10,0,0,,7,,,79,127
46974,note_off,232,0,0,,10,,,69,127
46974,note_off,0,0,0,,6,,,66,127
46974,note_off,0,0,0,,6,,,78,127
46974,note_on,0,0,0,,6,,,78,127
46974,note_on,0,0,0,,10,,,69,127
46974,note_on,0,0,0,,6,,,66,127
47217,note_off,243,0,0,,6,,,66,127
47217,note_off,0,0,0,,10,,,69,127
47217,note_off,0,0,0,,6,,,78,127
47217,note_on,0,0,0,,2,,,86,127
47217,note_on,0,0,0,,4,,,64,127
47217,note_on,0,0,0,,7,,,67,127
47298,note_on,81,0,0,,7,,,79,127
47308,note_off,10,0,0,,2,,,86,127
47379,note_on,71,0,0,,6,,,78,127
47389,note_off,10,0,0,,7,,,79,127
47460,note_off,71,0,0,,7,,,67,127
47460,note_off,0,0,0,,4,,,64,127
47460,note_on,0,0,0,,4,,,76,127
47460,note_on,0,0,0,,7,,,67,127
47460,note_on,0,0,0,,4,,,64,127
47470,note_off,10,0,0,,6,,,78,127
47702,note_off,232,0,0,,4,,,64,127
47702,note_off,0,0,0,,7,,,67,127
47702,note_off,0,0,0,,4,,,76,127
47702,note_on,0,0,0,,4,,,76,127
47702,note_on,0,0,0,,4,,,64,127
47702,note_on,0,0,0,,7,,,67,127
47945,note_off,243,0,0,,7,,,67,127
47945,note_off,0,0,0,,4,,,64,127
47945,note_off,0,0,0,,4,,,76,127
47945,note_on,0,0,0,,7,,,79,127
47945,note_on,0,0,0,,6,,,78,127
47945,note_on,0,0,0,,10,,,69,127
47945,note_on,0,0,0,,2,,,62,127
48026,note_on,81,0,0,,4,,,76,127
48036,note_off,10,0,0,,6,,,78,127
48036,note_off,0,0,0,,7,,,79,127
48107,note_on,71,0,0,,2,,,74,127
48117,note_off,10,0,0,,4,,,76,127
48183,note_off,66,0,0,,2,,,74,127
48188,note_off,5,0,0,,2,,,62,127
48188,note_off,0,0,0,,10,,,69,127
48188,note_on,0,0,0,,2,,,74,127
48188,note_on,0,0,0,,2,,,62,127
48188,note_on,0,0,0,,10,,,69,127
48431,note_off,243,0,0,,10,,,69,127
48431,note_off,0,0,0,,2,,,62,127
48431,note_off,0,0,0,,2,,,74,127
48431,note_on,0,0,0,,10,,,81,127
48431,note_on,0,0,0,,2,,,62,127
48431,note_on,0,0,0,,6,,,66,127
48674,note_off,243,0,0,,6,,,66,127
48674,note_off,0,0,0,,2,,,62,127
48674,note_off,0,0,0,,10,,,81,127
48674,note_on,0,0,0,,10,,,81,127
48674,note_on,0,0,0,,12,,,83,127
48674,note_on,0,0,0,,7,,,67,127
48674,note_on,0,0,0,,12,,,71,127
48755,note_on,81,0,0,,7,,,79,127
48765,note_off,10,0,0,,12,,,83,127
48765,note_off,0,0,0,,10,,,81,127
48836,note_on,71,0,0,,6,,,78,127
48846,note_off,10,0,0,,7,,,79,127
48917,note_off,71,0,0,,12,,,71,127
48917,note_off,0,0,0,,7,,,67,127
48917,note_on,0,0,0,,4,,,76,127
48917,note_on,0,0,0,,7,,,67,127
48917,note_on,0,0,0,,12,,,71,127
48927,note_off,10,0,0,,6,,,78,127
49159,note_off,232,0,0,,12,,,71,127
49159,note_off,0,0,0,,7,,,67,127
49159,note_off,0,0,0,,4,,,76,127
49159,note_on,0,0,0,,2,,,74,127
49159,note_on,0,0,0,,8,,,68,127
49402,note_off,243,0,0,,8,,,68,127
49402,note_off,0,0,0,,2,,,74,127
49402,note_on,0,0,0,,1,,,73,127
49402,note_on,0,0,0,,10,,,69,127
49483,note_on,81,0,0,,2,,,74,127
49493,note_off,10,0,0,,1,,,73,127
49564,note_on,71,0,0,,4,,,76,127
49574,note_off,10,0,0,,2,,,74,127
49645,note_off,71,0,0,,10,,,69,127
49645,note_on,0,0,0,,6,,,78,127
49645,note_on,0,0,0,,10,,,69,127
49655,note_off,10,0,0,,4,,,76,127
49726,note_on,71,0,0,,7,,,79,127
49736,note_off,10,0,0,,6,,,78,127
49807,note_on,71,0,0,,10,,,81,127
49817,note_off,10,0,0,,7,,,79,127
49883,note_off,66,0,0,,10,,,81,127
49888,note_off,5,0,0,,10,,,69,127
49888,note_on,0,0,0,,10,,,81,127
49888,note_on,0,0,0,,6,,,66,127
49888,note_on,0,0,0,,10,,,69,127
50131,note_off,243,0,0,,10,,,69,127
50131,note_off,0,0,0,,6,,,66,127
50131,note_on,0,0,0,,12,,,71,127
50131,note_on,0,0,0,,7,,,67,127
50209,note_off,78,0,0,,10,,,81,127
50212,note_on,3,0,0,,7,,,79,127
50293,note_on,81,0,0,,6,,,78,127
50303,note_off,10,0,0,,7,,,79,127
50369,note_off,66,0,0,,6,,,78,127
50374,note_off,5,0,0,,7,,,67,127
50374,note_off,0,0,0,,12,,,71,127
50374,note_on,0,0,0,,6,,,78,127
50374,note_on,0,0,0,,7,,,67,127
50374,note_on,0,0,0,,12,,,71,127
50455,note_on,81,0,0,,4,,,76,127
50465,note_off,10,0,0,,6,,,78,127
50536,note_on,71,0,0,,2,,,74,127
50546,note_off,10,0,0,,4,,,76,127
50612,note_off,66,0,0,,2,,,74,127
50617,note_off,5,0,0,,12,,,71,127
50617,note_off,0,0,0,,7,,,67,127
50617,note_on,0,0,0,,2,,,74,127
50617,note_on,0,0,0,,8,,,68,127
50698,note_on,81,0,0,,1,,,73,127
50708,note_off,10,0,0,,2,,,74,127
50779,note_on,71,0,0,,12,,,71,127
50789,note_off,10,0,0,,1,,,73,127
50860,note_off,71,0,0,,8,,,68,127
50860,note_on,0,0,0,,1,,,73,127
50860,note_on,0,0,0,,10,,,69,127
50870,note_off,10,0,0,,12,,,71,127
50941,note_on,71,0,0,,2,,,74,127
50951,note_off,10,0,0,,1,,,73,127
51022,note_on,71,0,0,,4,,,76,127
51032,note_off,10,0,0,,2,,,74,127
51103,note_off,71,0,0,,10,,,69,127
51103,note_on,0,0,0,,6,,,78,127
51103,note_on,0,0,0,,10,,,69,127
51113,note_off,10,0,0,,4,,,76,127
51184,note_on,71,0,0,,7,,,79,127
51194,note_off,10,0,0,,6,,,78,127
51265,note_on,71,0,0,,10,,,81,127
51275,note_off,10,0,0,,7,,,79,127
51344,note_off,69,0,0,,10,,,81,127
51345,note_off,1,0,0,,10,,,69,127
51345,note_on,0,0,0,,10,,,81,127
51345,note_on,0,0,0,,10,,,69,127
51345,note_on,0,0,0,,6,,,66,127
51588,note_off,243,0,0,,6,,,66,127
51588,note_off,0,0,0,,10,,,69,127
51588,note_on,0,0,0,,12,,,71,127
51588,note_on,0,0,0,,7,,,67,127
51666,note_off,78,0,0,,10,,,81,127
51669,note_on,3,0,0,,7,,,79,127
51750,note_on,81,0,0,,6,,,78,127
51760,note_off,10,0,0,,7,,,79,127
51826,note_off,66,0,0,,6,,,78,127
51831,note_off,5,0,0,,7,,,67,127
51831,note_off,0,0,0,,12,,,71,127
51831,note_on,0,0,0,,6,,,78,127
51831,note_on,0,0,0,,12,,,71,127
51831,note_on,0,0,0,,7,,,67,127
51912,note_on,81,0,0,,4,,,76,127
51922,note_off,10,0,0,,6,,,78,127
51993,note_on,71,0,0,,2,,,74,127
52003,note_off,10,0,0,,4,,,76,127
52069,note_off,66,0,0,,2,,,74,127
52074,note_off,5,0,0,,7,,,67,127
52074,note_off,0,0,0,,12,,,71,127
52074,note_on,0,0,0,,2,,,74,127
52074,note_on,0,0,0,,8,,,68,127
52155,note_on,81,0,0,,1,,,73,127
52165,note_off,10,0,0,,2,,,74,127
52236,note_on,71,0,0,,12,,,71,127
52246,note_off,10,0,0,,1,,,73,127
52317,note_off,71,0,0,,8,,,68,127
52336,note_off,19,0,0,,12,,,71,127
52347,note_on,11,0,0,,10,,,45,127
52347,note_on,0,0,0,,10,,,57,127
53166,note_off,819,0,0,,10,,,57,127
53166,note_off,0,0,0,,10,,,45,127
53287,note_on,121,0,0,,10,,,81,127
53287,note_on,0,0,0,,5,,,65,127
53530,note_off,243,0,0,,5,,,65,127
53530,note_off,0,0,0,,10,,,81,127
53530,note_on,0,0,0,,10,,,81,127
53530,note_on,0,0,0,,2,,,62,127
53773,note_off,243,0,0,,2,,,62,127
53773,note_off,0,0,0,,10,,,81,127
53773,note_on,0,0,0,,11,,,82,127
53773,note_on,0,0,0,,0,,,84,127
53773,note_on,0,0,0,,7,,,67,127
53854,note_on,81,0,0,,10,,,81,127
53864,note_off,10,0,0,,0,,,84,127
53864,note_off,0,0,0,,11,,,82,127
53935,note_on,71,0,0,,7,,,79,127
53945,note_off,10,0,0,,10,,,81,127
54011,note_off,66,0,0,,7,,,79,127
54016,note_off,5,0,0,,7,,,67,127
54016,note_on,0,0,0,,7,,,79,127
54016,note_on,0,0,0,,4,,,64,127
54259,note_off,243,0,0,,4,,,64,127
54259,note_off,0,0,0,,7,,,79,127
54259,note_on,0,0,0,,7,,,79,127
54259,note_on,0,0,0,,1,,,61,127
54502,note_off,243,0,0,,1,,,61,127
54502,note_off,0,0,0,,7,,,79,127
54502,note_on,0,0,0,,5,,,77,127
54502,note_on,0,0,0,,7,,,79,127
54502,note_on,0,0,0,,2,,,62,127
54583,note_on,81,0,0,,4,,,76,127
54593,note_off,10,0,0,,7,,,79,127
54593,note_off,0,0,0,,5,,,77,127
54664,note_on,71,0,0,,2,,,74,127
54674,note_off,10,0,0,,4,,,76,127
54745,note_off,71,0,0,,2,,,62,127
54745,note_on,0,0,0,,10,,,81,127
54745,note_on,0,0,0,,5,,,65,127
54755,note_off,10,0,0,,2,,,74,127
54987,note_off,232,0,0,,5,,,65,127
54987,note_off,0,0,0,,10,,,81,127
54987,note_on,0,0,0,,10,,,81,127
54987,note_on,0,0,0,,2,,,62,127
55230,note_off,243,0,0,,2,,,62,127
55230,note_off,0,0,0,,10,,,81,127
55230,note_on,0,0,0,,11,,,82,127
55230,note_on,0,0,0,,0,,,84,127
55230,note_on,0,0,0,,7,,,67,127
55311,note_on,81,0,0,,10,,,81,127
55321,note_off,10,0,0,,0,,,84,127
55321,note_off,0,0,0,,11,,,82,127
55392,note_on,71,0,0,,7,,,79,127
55402,note_off,10,0,0,,10,,,81,127
55468,note_off,66,0,0,,7,,,79,127
55473,note_off,5,0,0,,7,,,67,127
55473,note_on,0,0,0,,7,,,79,127
55473,note_on,0,0,0,,4,,,64,127
55716,note_off,243,0,0,,4,,,64,127
55716,note_off,0,0,0,,7,,,79,127
55716,note_on,0,0,0,,7,,,79,127
55716,note_on,0,0,0,,1,,,61,127
55959,note_off,243,0,0,,1,,,61,127
55959,note_off,0,0,0,,7,,,79,127
55959,note_on,0,0,0,,7,,,79,127
55959,note_on,0,0,0,,5,,,77,127
55959,note_on,0,0,0,,2,,,62,127
56040,note_on,81,0,0,,4,,,76,127
56050,note_off,10,0,0,,5,,,77,127
56050,note_off,0,0,0,,7,,,79,127
56121,note_on,71,0,0,,2,,,74,127
56131,note_off,10,0,0,,4,,,76,127
56202,note_off,71,0,0,,2,,,62,127
56202,note_on,0,0,0,,10,,,81,127
56202,note_on,0,0,0,,5,,,65,127
56212,note_off,10,0,0,,2,,,74,127
56444,note_off,232,0,0,,5,,,65,127
56444,note_off,0,0,0,,10,,,81,127
56444,note_on,0,0,0,,10,,,81,127
56444,note_on,0,0,0,,2,,,62,127
56687,note_off,243,0,0,,2,,,62,127
56687,note_off,0,0,0,,10,,,81,127
56687,note_on,0,0,0,,7,,,79,127
56687,note_on,0,0,0,,10,,,81,127
56687,note_on,0,0,0,,7,,,67,127
56768,note_on,81,0,0,,5,,,77,127
56778,note_off,10,0,0,,10,,,81,127
56778,note_off,0,0,0,,7,,,79,127
56849,note_on,71,0,0,,4,,,76,127
56859,note_off,10,0,0,,5,,,77,127
56925,note_off,66,0,0,,4,,,76,127
56930,note_off,5,0,0,,7,,,67,127
56930,note_on,0,0,0,,4,,,76,127
56930,note_on,0,0,0,,7,,,67,127
57173,note_off,243,0,0,,7,,,67,127
57173,note_off,0,0,0,,4,,,76,127
57173,note_on,0,0,0,,10,,,81,127
57173,note_on,0,0,0,,10,,,69,127
57416,note_off,243,0,0,,10,,,69,127
57416,note_off,0,0,0,,10,,,81,127
57416,note_on,0,0,0,,10,,,81,127
57416,note_on,0,0,0,,7,,,79,127
57416,note_on,0,0,0,,11,,,70,127
57497,note_on,81,0,0,,5,,,77,127
57507,note_off,10,0,0,,7,,,79,127
57507,note_off,0,0,0,,10,,,81,127
57578,note_on,71,0,0,,4,,,76,127
57588,note_off,10,0,0,,5,,,77,127
57654,note_off,66,0,0,,4,,,76,127
57659,note_off,5,0,0,,11,,,70,127
57659,note_on,0,0,0,,4,,,76,127
57659,note_on,0,0,0,,11,,,70,127
57902,note_off,243,0,0,,11,,,70,127
57902,note_off,0,0,0,,4,,,76,127
57902,note_on,0,0,0,,10,,,81,127
57902,note_on,0,0,0,,10,,,69,127
58145,note_off,243,0,0,,10,,,69,127
58145,note_off,0,0,0,,10,,,81,127
58145,note_on,0,0,0,,10,,,81,127
58145,note_on,0,0,0,,7,,,79,127
58145,note_on,0,0,0,,11,,,70,127
58226,note_on,81,0,0,,5,,,77,127
58236,note_off,10,0,0,,7,,,79,127
58236,note_off,0,0,0,,10,,,81,127
58307,note_on,71,0,0,,4,,,76,127
58317,note_off,10,0,0,,5,,,77,127
58383,note_off,66,0,0,,4,,,76,127
58388,note_off,5,0,0,,11,,,70,127
58388,note_on,0,0,0,,4,,,76,127
58388,note_on,0,0,0,,11,,,70,127
58631,note_off,243,0,0,,11,,,70,127
58631,note_off,0,0,0,,4,,,76,127
58631,note_on,0,0,0,,2,,,86,127
58631,note_on,0,0,0,,7,,,67,127
58874,note_off,243,0,0,,7,,,67,127
58874,note_off,0,0,0,,2,,,86,127
58874,note_on,0,0,0,,1,,,85,127
58874,note_on,0,0,0,,10,,,69,127
58955,note_on,81,0,0,,12,,,83,127
58965,note_off,10,0,0,,1,,,85,127
59036,note_on,71,0,0,,10,,,81,127
59046,note_off,10,0,0,,12,,,83,127
59112,note_off,66,0,0,,10,,,81,127
59117,note_off,5,0,0,,10,,,69,127
59117,note_on,0,0,0,,10,,,81,127
59117,note_on,0,0,0,,6,,,66,127
59332,note_off,215,0,0,,10,,,81,127
59360,note_off,28,0,0,,6,,,66,127
59360,note_on,0,0,0,,10,,,81,127
59360,note_on,0,0,0,,2,,,62,127
59603,note_off,243,0,0,,2,,,62,127
59603,note_off,0,0,0,,10,,,81,127
59603,note_on,0,0,0,,7,,,79,127
59603,note_on,0,0,0,,10,,,81,127
59603,note_on,0,0,0,,4,,,64,127
59684,note_on,81,0,0,,6,,,78,127
59694,note_off,10,0,0,,10,,,81,127
59694,note_off,0,0,0,,7,,,79,127
59765,note_on,71,0,0,,4,,,76,127
59775,note_off,10,0,0,,6,,,78,127
59841,note_off,66,0,0,,4,,,76,127
59846,note_off,5,0,0,,4,,,64,127
59846,note_on,0,0,0,,4,,,76,127
59846,note_on,0,0,0,,1,,,61,127
60089,note_off,243,0,0,,1,,,61,127
60089,note_off,0,0,0,,4,,,76,127
60089,note_on,0,0,0,,7,,,79,127
60089,note_on,0,0,0,,10,,,57,127
60332,note_off,243,0,0,,10,,,57,127
60332,note_off,0,0,0,,7,,,79,127
60332,note_on,0,0,0,,6,,,78,127
60332,note_on,0,0,0,,2,,,62,127
60413,note_on,81,0,0,,4,,,76,127
60423,note_off,10,0,0,,6,,,78,127
60494,note_on,71,0,0,,2,,,74,127
60504,note_off,10,0,0,,4,,,76,127
60570,note_off,66,0,0,,2,,,74,127
60575,note_off,5,0,0,,2,,,62,127
60575,note_on,0,0,0,,2,,,74,127
60575,note_on,0,0,0,,6,,,66,127
60818,note_off,243,0,0,,6,,,66,127
60818,note_off,0,0,0,,2,,,74,127
60818,note_on,0,0,0,,2,,,74,127
60818,note_on,0,0,0,,2,,,62,127
61061,note_off,243,0,0,,2,,,62,127
61061,note_off,0,0,0,,2,,,74,127
61061,note_on,0,0,0,,12,,,71,127
61061,note_on,0,0,0,,7,,,67,127
61142,note_on,81,0,0,,1,,,73,127
61152,note_off,10,0,0,,12,,,71,127
61223,note_on,71,0,0,,2,,,74,127
61233,note_off,10,0,0,,1,,,73,127
61299,note_off,66,0,0,,2,,,74,127
61304,note_off,5,0,0,,7,,,67,127
61304,note_on,0,0,0,,2,,,74,127
61304,note_on,0,0,0,,7,,,67,127
61547,note_off,243,0,0,,7,,,67,127
61547,note_off,0,0,0,,2,,,74,127
61547,note_on,0,0,0,,2,,,74,127
61547,note_on,0,0,0,,7,,,67,127
61790,note_off,243,0,0,,7,,,67,127
61790,note_off,0,0,0,,2,,,74,127
61790,note_on,0,0,0,,10,,,69,127
61790,note_on,0,0,0,,6,,,66,127
61871,note_on,81,0,0,,12,,,71,127
61881,note_off,10,0,0,,10,,,69,127
61952,note_on,71,0,0,,1,,,73,127
61962,note_off,10,0,0,,12,,,71,127
62033,note_off,71,0,0,,6,,,66,127
62033,note_on,0,0,0,,2,,,74,127
62033,note_on,0,0,0,,6,,,66,127
62043,note_off,10,0,0,,1,,,73,127
62275,note_off,232,0,0,,6,,,66,127
62275,note_off,0,0,0,,2,,,74,127
62275,note_on,0,0,0,,10,,,81,127
62275,note_on,0,0,0,,6,,,66,127
62518,note_off,243,0,0,,6,,,66,127
62518,note_off,0,0,0,,10,,,81,127
62518,note_on,0,0,0,,7,,,79,127
62518,note_on,0,0,0,,7,,,67,127
62599,note_on,81,0,0,,6,,,78,127
62609,note_off,10,0,0,,7,,,79,127
62680,note_on,71,0,0,,4,,,76,127
62690,note_off,10,0,0,,6,,,78,127
62761,note_off,71,0,0,,7,,,67,127
62761,note_on,0,0,0,,6,,,78,127
62761,note_on,0,0,0,,2,,,74,127
62761,note_on,0,0,0,,10,,,69,127
62771,note_off,10,0,0,,4,,,76,127
63003,note_off,232,0,0,,10,,,69,127
63003,note_off,0,0,0,,2,,,74,127
63003,note_off,0,0,0,,6,,,78,127
63003,note_on,0,0,0,,1,,,73,127
63003,note_on,0,0,0,,4,,,76,127
63003,note_on,0,0,0,,10,,,57,127
63246,note_off,243,0,0,,10,,,57,127
63246,note_off,0,0,0,,4,,,76,127
63246,note_off,0,0,0,,1,,,73,127
63246,note_on,0,0,0,,2,,,74,127
63246,note_on,0,0,0,,2,,,62,127
63327,note_on,81,0,0,,6,,,78,127
63337,note_off,10,0,0,,2,,,74,127
63408,note_on,71,0,0,,7,,,79,127
63418,note_off,10,0,0,,6,,,78,127
63489,note_off,71,0,0,,2,,,62,127
63489,note_on,0,0,0,,10,,,81,127
63489,note_on,0,0,0,,6,,,66,127
63499,note_off,10,0,0,,7,,,79,127
63570,note_on,71,0,0,,12,,,83,127
63580,note_off,10,0,0,,10,,,81,127
63651,note_on,71,0,0,,1,,,85,127
63661,note_off,10,0,0,,12,,,83,127
63732,note_off,71,0,0,,6,,,66,127
63732,note_on,0,0,0,,2,,,86,127
63732,note_on,0,0,0,,2,,,62,127
63742,note_off,10,0,0,,1,,,85,127
63974,note_off,232,0,0,,2,,,62,127
63974,note_on,0,0,0,,7,,,67,127
63974,note_on,0,0,0,,12,,,59,127
64052,note_off,78,0,0,,2,,,86,127
64055,note_on,3,0,0,,1,,,85,127
64136,note_on,81,0,0,,12,,,83,127
64146,note_off,10,0,0,,1,,,85,127
64212,note_off,66,0,0,,12,,,83,127
64217,note_off,5,0,0,,12,,,59,127
64217,note_off,0,0,0,,7,,,67,127
64217,note_on,0,0,0,,12,,,83,127
64217,note_on,0,0,0,,7,,,67,127
64217,note_on,0,0,0,,12,,,59,127
64298,note_on,81,0,0,,10,,,81,127
64308,note_off,10,0,0,,12,,,83,127
64379,note_on,71,0,0,,7,,,79,127
64389,note_off,10,0,0,,10,,,81,127
64455,note_off,66,0,0,,7,,,79,127
64460,note_off,5,0,0,,12,,,59,127
64460,note_off,0,0,0,,7,,,67,127
64460,note_on,0,0,0,,7,,,79,127
64460,note_on,0,0,0,,10,,,69,127
64460,note_on,0,0,0,,1,,,61,127
64541,note_on,81,0,0,,6,,,78,127
64551,note_off,10,0,0,,7,,,79,127
64622,note_on,71,0,0,,4,,,76,127
64632,note_off,10,0,0,,6,,,78,127
64703,note_off,71,0,0,,1,,,61,127
64703,note_off,0,0,0,,10,,,69,127
64703,note_on,0,0,0,,6,,,78,127
64703,note_on,0,0,0,,10,,,69,127
64703,note_on,0,0,0,,2,,,62,127
64713,note_off,10,0,0,,4,,,76,127
64784,note_on,71,0,0,,7,,,79,127
64794,note_off,10,0,0,,6,,,78,127
64865,note_on,71,0,0,,10,,,81,127
64875,note_off,10,0,0,,7,,,79,127
64946,note_off,71,0,0,,2,,,62,127
64946,note_off,0,0,0,,10,,,69,127
64946,note_on,0,0,0,,12,,,83,127
64946,note_on,0,0,0,,2,,,62,127
64956,note_off,10,0,0,,10,,,81,127
65027,note_on,71,0,0,,1,,,85,127
65037,note_off,10,0,0,,12,,,83,127
65108,note_on,71,0,0,,2,,,86,127
65118,note_off,10,0,0,,1,,,85,127
65184,note_off,66,0,0,,2,,,86,127
65189,note_off,5,0,0,,2,,,62,127
65189,note_on,0,0,0,,2,,,86,127
65189,note_on,0,0,0,,2,,,62,127
65432,note_off,243,0,0,,2,,,62,127
65432,note_on,0,0,0,,12,,,59,127
65432,note_on,0,0,0,,7,,,67,127
65510,note_off,78,0,0,,2,,,86,127
65513,note_on,3,0,0,,1,,,85,127
65594,note_on,81,0,0,,12,,,83,127
65604,note_off,10,0,0,,1,,,85,127
65670,note_off,66,0,0,,12,,,83,127
65675,note_off,5,0,0,,7,,,67,127
65675,note_off,0,0,0,,12,,,59,127
65675,note_on,0,0,0,,12,,,83,127
65675,note_on,0,0,0,,7,,,67,127
65675,note_on,0,0,0,,12,,,59,127
65756,note_on,81,0,0,,10,,,81,127
65766,note_off,10,0,0,,12,,,83,127
65837,note_on,71,0,0,,7,,,79,127
65847,note_off,10,0,0,,10,,,81,127
65913,note_off,66,0,0,,7,,,79,127
65918,note_off,5,0,0,,12,,,59,127
65918,note_off,0,0,0,,7,,,67,127
65918,note_on,0,0,0,,7,,,79,127
65918,note_on,0,0,0,,1,,,61,127
65918,note_on,0,0,0,,10,,,69,127
65999,note_on,81,0,0,,6,,,78,127
66009,note_off,10,0,0,,7,,,79,127
66080,note_on,71,0,0,,4,,,76,127
66090,note_off,10,0,0,,6,,,78,127
66161,note_off,71,0,0,,10,,,69,127
66161,note_off,0,0,0,,1,,,61,127
66161,note_on,0,0,0,,6,,,78,127
66161,note_on,0,0,0,,10,,,69,127
66161,note_on,0,0,0,,2,,,62,127
66171,note_off,10,0,0,,4,,,76,127
66242,note_on,71,0,0,,2,,,86,127
66252,note_off,10,0,0,,6,,,78,127
66303,note_off,51,0,0,,2,,,86,127
66323,note_on,20,0,0,,2,,,86,127
66384,note_off,61,0,0,,2,,,86,127
66404,note_off,20,0,0,,2,,,62,127
66404,note_off,0,0,0,,10,,,69,127
66404,note_on,0,0,0,,2,,,86,127
66404,note_on,0,0,0,,2,,,50,127
66485,note_on,81,0,0,,10,,,81,127
66495,note_off,10,0,0,,2,,,86,127
66566,note_on,71,0,0,,2,,,86,127
66576,note_off,10,0,0,,10,,,81,127
66627,note_off,51,0,0,,2,,,86,127
66647,note_off,20,0,0,,2,,,50,127
66647,note_on,0,0,0,,2,,,86,127
66647,note_on,0,0,0,,6,,,54,127
66890,note_off,243,0,0,,6,,,54,127
66890,note_on,0,0,0,,7,,,55,127
66968,note_off,78,0,0,,2,,,86,127
66971,note_on,3,0,0,,12,,,83,127
67052,note_on,81,0,0,,7,,,79,127
67062,note_off,10,0,0,,12,,,83,127
67133,note_off,71,0,0,,7,,,55,127
67133,note_on,0,0,0,,6,,,78,127
67133,note_on,0,0,0,,2,,,74,127
67133,note_on,0,0,0,,10,,,57,127
67143,note_off,10,0,0,,7,,,79,127
67375,note_off,232,0,0,,10,,,57,127
67375,note_off,0,0,0,,2,,,74,127
67375,note_off,0,0,0,,6,,,78,127
67375,note_on,0,0,0,,4,,,76,127
67375,note_on,0,0,0,,1,,,73,127
67375,note_on,0,0,0,,7,,,55,127
67618,note_off,243,0,0,,7,,,55,127
67618,note_off,0,0,0,,1,,,73,127
67618,note_off,0,0,0,,4,,,76,127
67618,note_on,0,0,0,,6,,,78,127
67618,note_on,0,0,0,,2,,,74,127
67618,note_on,0,0,0,,6,,,54,127
67699,note_on,81,0,0,,2,,,86,127
67709,note_off,10,0,0,,2,,,74,127
67709,note_off,0,0,0,,6,,,78,127
67760,note_off,51,0,0,,2,,,86,127
67780,note_on,20,0,0,,2,,,86,127
67841,note_off,61,0,0,,2,,,86,127
67861,note_off,20,0,0,,6,,,54,127
67861,note_on,0,0,0,,2,,,86,127
67861,note_on,0,0,0,,6,,,54,127
67861,note_on,0,0,0,,2,,,62,127
67942,note_on,81,0,0,,10,,,81,127
67952,note_off,10,0,0,,2,,,86,127
68023,note_on,71,0,0,,2,,,86,127
68033,note_off,10,0,0,,10,,,81,127
68084,note_off,51,0,0,,2,,,86,127
68104,note_off,20,0,0,,2,,,62,127
68104,note_off,0,0,0,,6,,,54,127
68104,note_on,0,0,0,,2,,,86,127
68104,note_on,0,0,0,,6,,,54,127
68104,note_on,0,0,0,,2,,,62,127
68347,note_off,243,0,0,,2,,,62,127
68347,note_off,0,0,0,,6,,,54,127
68347,note_on,0,0,0,,7,,,55,127
68425,note_off,78,0,0,,2,,,86,127
68428,note_on,3,0,0,,12,,,83,127
68509,note_on,81,0,0,,7,,,79,127
68519,note_off,10,0,0,,12,,,83,127
68590,note_off,71,0,0,,7,,,55,127
68590,note_on,0,0,0,,6,,,78,127
68590,note_on,0,0,0,,2,,,74,127
68590,note_on,0,0,0,,10,,,57,127
68600,note_off,10,0,0,,7,,,79,127
68832,note_off,232,0,0,,10,,,57,127
68832,note_off,0,0,0,,2,,,74,127
68832,note_off,0,0,0,,6,,,78,127
68832,note_on,0,0,0,,4,,,76,127
68832,note_on,0,0,0,,1,,,73,127
68832,note_on,0,0,0,,7,,,55,127
69075,note_off,243,0,0,,7,,,55,127
69075,note_off,0,0,0,,1,,,73,127
69075,note_off,0,0,0,,4,,,76,127
69075,note_on,0,0,0,,6,,,78,127
69075,note_on,0,0,0,,2,,,74,127
69075,note_on,0,0,0,,6,,,54,127
69136,note_off,61,0,0,,2,,,74,127
69156,note_on,20,0,0,,2,,,74,127
69166,note_off,10,0,0,,6,,,78,127
69217,note_off,51,0,0,,2,,,74,127
69237,note_on,20,0,0,,2,,,74,127
69298,note_off,61,0,0,,2,,,74,127
69318,note_off,20,0,0,,6,,,54,127
69318,note_on,0,0,0,,2,,,74,127
69318,note_on,0,0,0,,6,,,54,127
69399,note_on,81,0,0,,10,,,69,127
69409,note_off,10,0,0,,2,,,74,127
69480,note_on,71,0,0,,2,,,74,127
69490,note_off,10,0,0,,10,,,69,127
69541,note_off,51,0,0,,2,,,74,127
69561,note_off,20,0,0,,6,,,54,127
69561,note_on,0,0,0,,2,,,74,127
69561,note_on,0,0,0,,6,,,54,127
69804,note_off,243,0,0,,6,,,54,127
69804,note_on,0,0,0,,7,,,55,127
69882,note_off,78,0,0,,2,,,74,127
69885,note_on,3,0,0,,12,,,71,127
69966,note_on,81,0,0,,7,,,67,127
69976,note_off,10,0,0,,12,,,71,127
70047,note_off,71,0,0,,7,,,55,127
70047,note_on,0,0,0,,6,,,66,127
70047,note_on,0,0,0,,10,,,69,127
70047,note_on,0,0,0,,2,,,74,127
70047,note_on,0,0,0,,10,,,57,127
70057,note_off,10,0,0,,7,,,67,127
70289,note_off,232,0,0,,10,,,57,127
70289,note_off,0,0,0,,2,,,74,127
70289,note_off,0,0,0,,10,,,69,127
70289,note_off,0,0,0,,6,,,66,127
70304,note_on,15,0,0,,7,,,67,127
70304,note_on,0,0,0,,4,,,64,127
70304,note_on,0,0,0,,1,,,73,127
70304,note_on,0,0,0,,10,,,45,127
70547,note_off,243,0,0,,10,,,45,127
70547,note_off,0,0,0,,1,,,73,127
70547,note_off,0,0,0,,4,,,64,127
70547,note_off,0,0,0,,7,,,67,127
70562,note_on,15,0,0,,2,,,62,127
70562,note_on,0,0,0,,10,,,69,127
70562,note_on,0,0,0,,6,,,66,127
70562,note_on,0,0,0,,2,,,74,127
70562,note_on,0,0,0,,2,,,38,127
72108,note_off,1546,0,0,,2,,,38,127
72108,note_off,0,0,0,,2,,,74,127
72108,note_off,0,0,0,,6,,,66,127
72108,note_off,0,0,0,,10,,,69,127
72108,note_off,0,0,0,,2,,,62,127
76800,end_of_track,4692,1,0,,,,,,
