tick,type,time,meta,track,program,channel,pitch,tempo,note,velocity
0,copyright,0,1,0,,,,,,
0,program_change,0,0,0,6,0,,,,
0,pitchwheel,0,0,0,,0,0,,,
0,program_change,0,0,0,6,1,,,,
0,pitchwheel,0,0,0,,1,-590,,,
0,program_change,0,0,0,6,2,,,,
0,pitchwheel,0,0,0,,2,-272,,,
0,program_change,0,0,0,6,3,,,,
0,pitchwheel,0,0,0,,3,-353,,,
0,program_change,0,0,0,6,4,,,,
0,pitchwheel,0,0,0,,4,-560,,,
0,program_change,0,0,0,6,5,,,,
0,pitchwheel,0,0,0,,5,-80,,,
0,program_change,0,0,0,6,6,,,,
0,pitchwheel,0,0,0,,6,-625,,,
0,program_change,0,0,0,6,7,,,,
0,pitchwheel,0,0,0,,7,-130,,,
0,program_change,0,0,0,6,8,,,,
0,pitchwheel,0,0,0,,8,-512,,,
0,program_change,0,0,0,6,10,,,,
0,pitchwheel,0,0,0,,10,-464,,,
0,program_change,0,0,0,6,11,,,,
0,pitchwheel,0,0,0,,11,-208,,,
0,program_change,0,0,0,6,12,,,,
0,pitchwheel,0,0,0,,12,-553,,,
0,set_tempo,0,1,0,,,,500000,,
92,note_on,92,0,0,,0,,,72,127
214,note_off,122,0,0,,0,,,72,127
215,note_on,1,0,0,,4,,,76,127
337,note_off,122,0,0,,4,,,76,127
338,note_on,1,0,0,,7,,,79,127
460,note_off,122,0,0,,7,,,79,127
461,note_on,1,0,0,,4,,,64,127
461,note_on,0,0,0,,7,,,79,127
829,note_off,368,0,0,,4,,,64,127
830,note_on,1,0,0,,0,,,60,127
1018,note_off,188,0,0,,7,,,79,127
1198,note_off,180,0,0,,0,,,60,127
1199,note_on,1,0,0,,5,,,65,127
1199,note_on,0,0,0,,7,,,79,127
1199,note_on,0,0,0,,5,,,77,127
1321,note_off,122,0,0,,5,,,77,127
1321,note_off,0,0,0,,7,,,79,127
1322,note_on,1,0,0,,4,,,76,127
1444,note_off,122,0,0,,4,,,76,127
1445,note_on,1,0,0,,2,,,74,127
1567,note_off,122,0,0,,2,,,74,127
1567,note_off,0,0,0,,5,,,65,127
1568,note_on,1,0,0,,7,,,67,127
1568,note_on,0,0,0,,0,,,72,127
1936,note_off,368,0,0,,0,,,72,127
1936,note_off,0,0,0,,7,,,67,127
1937,note_on,1,0,0,,5,,,65,127
1937,note_on,0,0,0,,0,,,72,127
1997,note_off,60,0,0,,0,,,72,127
1998,note_on,1,0,0,,12,,,71,127
2058,note_off,60,0,0,,12,,,71,127
2059,note_on,1,0,0,,0,,,72,127
2119,note_off,60,0,0,,0,,,72,127
2120,note_on,1,0,0,,12,,,71,127
2180,note_off,60,0,0,,12,,,71,127
2181,note_on,1,0,0,,10,,,69,127
2241,note_off,60,0,0,,10,,,69,127
2242,note_on,1,0,0,,12,,,71,127
2302,note_off,60,0,0,,12,,,71,127
2302,note_off,0,0,0,,5,,,65,127
2303,note_on,1,0,0,,4,,,64,127
2303,note_on,0,0,0,,0,,,72,127
2425,note_off,122,0,0,,0,,,72,127
2426,note_on,1,0,0,,4,,,76,127
2548,note_off,122,0,0,,4,,,76,127
2549,note_on,1,0,0,,7,,,79,127
2671,note_off,122,0,0,,7,,,79,127
2671,note_off,0,0,0,,4,,,64,127
2672,note_on,1,0,0,,4,,,64,127
2672,note_on,0,0,0,,7,,,79,127
3040,note_off,368,0,0,,4,,,64,127
3041,note_on,1,0,0,,0,,,60,127
3287,note_off,246,0,0,,7,,,79,127
3409,note_off,122,0,0,,0,,,60,127
3410,note_on,1,0,0,,5,,,65,127
3410,note_on,0,0,0,,10,,,69,127
3532,note_off,122,0,0,,10,,,69,127
3533,note_on,1,0,0,,5,,,77,127
3655,note_off,122,0,0,,5,,,77,127
3656,note_on,1,0,0,,2,,,74,127
3778,note_off,122,0,0,,2,,,74,127
3778,note_off,0,0,0,,5,,,65,127
3779,note_on,1,0,0,,7,,,67,127
3779,note_on,0,0,0,,0,,,72,127
4147,note_off,368,0,0,,7,,,67,127
4148,note_on,1,0,0,,5,,,65,127
4202,note_off,54,0,0,,0,,,72,127
4210,note_on,8,0,0,,12,,,71,127
4270,note_off,60,0,0,,12,,,71,127
4271,note_on,1,0,0,,0,,,72,127
4331,note_on,60,0,0,,12,,,71,127
4332,note_off,1,0,0,,0,,,72,127
4391,note_on,59,0,0,,10,,,69,127
4392,note_off,1,0,0,,12,,,71,127
4451,note_on,59,0,0,,12,,,71,127
4452,note_off,1,0,0,,10,,,69,127
4501,note_off,49,0,0,,12,,,71,127
4511,note_off,10,0,0,,5,,,65,127
4519,note_on,8,0,0,,4,,,64,127
4519,note_on,0,0,0,,0,,,72,127
4641,note_off,122,0,0,,0,,,72,127
4642,note_on,1,0,0,,4,,,76,127
4764,note_off,122,0,0,,4,,,76,127
4765,note_on,1,0,0,,5,,,77,127
4887,note_off,122,0,0,,5,,,77,127
4887,note_off,0,0,0,,4,,,64,127
4888,note_on,1,0,0,,10,,,69,127
4888,note_on,0,0,0,,4,,,76,127
5256,note_off,368,0,0,,4,,,76,127
5256,note_off,0,0,0,,10,,,69,127
5257,note_on,1,0,0,,7,,,67,127
5257,note_on,0,0,0,,4,,,76,127
5625,note_off,368,0,0,,4,,,76,127
5625,note_off,0,0,0,,7,,,67,127
5626,note_on,1,0,0,,5,,,65,127
5626,note_on,0,0,0,,4,,,76,127
5748,note_off,122,0,0,,4,,,76,127
5749,note_on,1,0,0,,2,,,74,127
5871,note_off,122,0,0,,2,,,74,127
5872,note_on,1,0,0,,5,,,77,127
5994,note_off,122,0,0,,5,,,77,127
5994,note_off,0,0,0,,5,,,65,127
5995,note_on,1,0,0,,7,,,67,127
5995,note_on,0,0,0,,4,,,76,127
5995,note_on,0,0,0,,0,,,72,127
6363,note_off,368,0,0,,0,,,72,127
6363,note_off,0,0,0,,4,,,76,127
6364,note_on,1,0,0,,7,,,55,127
6364,note_on,0,0,0,,12,,,71,127
6364,note_on,0,0,0,,4,,,76,127
6424,note_off,60,0,0,,4,,,76,127
6425,note_on,1,0,0,,2,,,74,127
6485,note_off,60,0,0,,2,,,74,127
6486,note_on,1,0,0,,4,,,76,127
6546,note_off,60,0,0,,4,,,76,127
6547,note_on,1,0,0,,2,,,74,127
6607,note_off,60,0,0,,2,,,74,127
6608,note_on,1,0,0,,4,,,76,127
6668,note_off,60,0,0,,4,,,76,127
6669,note_on,1,0,0,,2,,,74,127
6704,note_off,35,0,0,,7,,,67,127
6730,note_off,26,0,0,,2,,,74,127
6730,note_off,0,0,0,,12,,,71,127
6731,note_on,1,0,0,,0,,,72,127
6853,note_off,122,0,0,,0,,,72,127
6854,note_on,1,0,0,,4,,,76,127
6914,note_off,60,0,0,,7,,,55,127
6975,note_off,61,0,0,,4,,,76,127
6976,note_on,1,0,0,,5,,,77,127
7098,note_off,122,0,0,,5,,,77,127
7099,note_on,1,0,0,,10,,,69,127
7099,note_on,0,0,0,,4,,,76,127
7467,note_off,368,0,0,,4,,,76,127
7467,note_off,0,0,0,,10,,,69,127
7468,note_on,1,0,0,,7,,,67,127
7468,note_on,0,0,0,,4,,,76,127
7836,note_off,368,0,0,,4,,,76,127
7836,note_off,0,0,0,,7,,,67,127
7837,note_on,1,0,0,,5,,,65,127
7837,note_on,0,0,0,,4,,,76,127
7959,note_off,122,0,0,,4,,,76,127
7960,note_on,1,0,0,,2,,,74,127
8082,note_off,122,0,0,,2,,,74,127
8083,note_on,1,0,0,,5,,,77,127
8205,note_off,122,0,0,,5,,,77,127
8205,note_off,0,0,0,,5,,,65,127
8206,note_on,1,0,0,,7,,,67,127
8206,note_on,0,0,0,,0,,,72,127
8206,note_on,0,0,0,,4,,,76,127
8574,note_off,368,0,0,,0,,,72,127
8575,note_on,1,0,0,,7,,,55,127
8575,note_on,0,0,0,,12,,,71,127
8629,note_off,54,0,0,,4,,,76,127
8637,note_on,8,0,0,,2,,,74,127
8697,note_off,60,0,0,,2,,,74,127
8698,note_on,1,0,0,,4,,,76,127
8758,note_off,60,0,0,,4,,,76,127
8759,note_on,1,0,0,,2,,,74,127
8819,note_off,60,0,0,,2,,,74,127
8820,note_on,1,0,0,,0,,,72,127
8880,note_off,60,0,0,,0,,,72,127
8881,note_on,1,0,0,,2,,,74,127
8941,note_off,60,0,0,,2,,,74,127
8941,note_off,0,0,0,,12,,,71,127
8941,note_off,0,0,0,,7,,,55,127
8941,note_off,0,0,0,,7,,,67,127
8942,note_on,1,0,0,,0,,,60,127
8942,note_on,0,0,0,,0,,,72,127
9125,note_off,183,0,0,,0,,,60,127
9126,note_on,1,0,0,,7,,,55,127
9309,note_off,183,0,0,,7,,,55,127
9310,note_on,1,0,0,,4,,,52,127
9493,note_off,183,0,0,,4,,,52,127
9494,note_on,1,0,0,,0,,,48,127
9677,note_off,183,0,0,,0,,,48,127
9678,note_on,1,0,0,,7,,,43,127
9861,note_off,183,0,0,,7,,,43,127
9862,note_on,1,0,0,,4,,,40,127
10045,note_off,183,0,0,,4,,,40,127
10045,note_off,0,0,0,,0,,,72,127
10046,note_on,1,0,0,,0,,,36,127
10455,note_on,409,0,0,,4,,,76,127
10683,note_off,228,0,0,,0,,,36,127
10827,note_off,144,0,0,,4,,,76,127
10829,note_on,2,0,0,,4,,,76,127
10829,note_on,0,0,0,,0,,,60,127
11197,note_off,368,0,0,,0,,,60,127
11197,note_off,0,0,0,,4,,,76,127
11198,note_on,1,0,0,,4,,,76,127
11198,note_on,0,0,0,,11,,,58,127
11320,note_off,122,0,0,,4,,,76,127
11321,note_on,1,0,0,,5,,,77,127
11443,note_off,122,0,0,,5,,,77,127
11444,note_on,1,0,0,,1,,,73,127
11566,note_off,122,0,0,,1,,,73,127
11566,note_off,0,0,0,,11,,,58,127
11567,note_on,1,0,0,,2,,,74,127
11567,note_on,0,0,0,,11,,,58,127
11935,note_off,368,0,0,,11,,,58,127
11935,note_off,0,0,0,,2,,,74,127
11936,note_on,1,0,0,,2,,,74,127
11936,note_on,0,0,0,,11,,,58,127
12304,note_off,368,0,0,,11,,,58,127
12304,note_off,0,0,0,,2,,,74,127
12305,note_on,1,0,0,,2,,,74,127
12305,note_on,0,0,0,,10,,,57,127
12427,note_off,122,0,0,,2,,,74,127
12428,note_on,1,0,0,,1,,,73,127
12550,note_off,122,0,0,,1,,,73,127
12551,note_on,1,0,0,,2,,,74,127
12673,note_off,122,0,0,,2,,,74,127
12673,note_off,0,0,0,,10,,,57,127
12674,note_on,1,0,0,,4,,,76,127
12674,note_on,0,0,0,,10,,,57,127
12796,note_off,122,0,0,,4,,,76,127
12797,note_on,1,0,0,,5,,,77,127
12919,note_off,122,0,0,,5,,,77,127
12920,note_on,1,0,0,,7,,,79,127
13042,note_off,122,0,0,,7,,,79,127
13042,note_off,0,0,0,,10,,,57,127
13043,note_on,1,0,0,,7,,,79,127
13043,note_on,0,0,0,,10,,,57,127
13165,note_off,122,0,0,,7,,,79,127
13166,note_on,1,0,0,,5,,,77,127
13288,note_off,122,0,0,,5,,,77,127
13289,note_on,1,0,0,,4,,,76,127
13411,note_off,122,0,0,,4,,,76,127
13411,note_off,0,0,0,,10,,,57,127
13412,note_on,1,0,0,,7,,,79,127
13412,note_on,0,0,0,,5,,,77,127
13412,note_on,0,0,0,,2,,,50,127
13534,note_off,122,0,0,,5,,,77,127
13534,note_off,0,0,0,,7,,,79,127
13535,note_on,1,0,0,,4,,,76,127
13657,note_off,122,0,0,,4,,,76,127
13658,note_on,1,0,0,,2,,,74,127
13780,note_off,122,0,0,,2,,,74,127
13781,note_on,1,0,0,,2,,,74,127
13964,note_off,183,0,0,,2,,,50,127
13965,note_on,1,0,0,,10,,,57,127
14148,note_off,183,0,0,,10,,,57,127
14149,note_on,1,0,0,,5,,,53,127
14332,note_off,183,0,0,,5,,,53,127
14333,note_on,1,0,0,,2,,,50,127
14516,note_off,183,0,0,,2,,,50,127
14516,note_off,0,0,0,,2,,,74,127
14517,note_on,1,0,0,,2,,,38,127
14899,note_on,382,0,0,,2,,,74,127
15154,note_off,255,0,0,,2,,,38,127
15266,note_off,112,0,0,,2,,,74,127
15269,note_on,3,0,0,,2,,,62,127
15269,note_on,0,0,0,,2,,,74,127
15637,note_off,368,0,0,,2,,,74,127
15637,note_off,0,0,0,,2,,,62,127
15638,note_on,1,0,0,,4,,,64,127
15638,note_on,0,0,0,,2,,,74,127
15760,note_off,122,0,0,,2,,,74,127
15761,note_on,1,0,0,,4,,,76,127
15883,note_off,122,0,0,,4,,,76,127
15884,note_on,1,0,0,,12,,,71,127
16006,note_off,122,0,0,,12,,,71,127
16006,note_off,0,0,0,,4,,,64,127
16007,note_on,1,0,0,,4,,,64,127
16007,note_on,0,0,0,,0,,,72,127
16375,note_off,368,0,0,,0,,,72,127
16375,note_off,0,0,0,,4,,,64,127
16376,note_on,1,0,0,,4,,,64,127
16376,note_on,0,0,0,,0,,,72,127
16744,note_off,368,0,0,,0,,,72,127
16744,note_off,0,0,0,,4,,,64,127
16745,note_on,1,0,0,,2,,,62,127
16745,note_on,0,0,0,,0,,,72,127
16867,note_off,122,0,0,,0,,,72,127
16868,note_on,1,0,0,,12,,,71,127
16990,note_off,122,0,0,,12,,,71,127
16991,note_on,1,0,0,,0,,,72,127
17113,note_off,122,0,0,,0,,,72,127
17113,note_off,0,0,0,,2,,,62,127
17114,note_on,1,0,0,,2,,,62,127
17114,note_on,0,0,0,,2,,,74,127
17236,note_off,122,0,0,,2,,,74,127
17237,note_on,1,0,0,,4,,,76,127
17359,note_off,122,0,0,,4,,,76,127
17360,note_on,1,0,0,,5,,,77,127
17482,note_off,122,0,0,,5,,,77,127
17482,note_off,0,0,0,,2,,,62,127
17483,note_on,1,0,0,,7,,,55,127
17483,note_on,0,0,0,,5,,,77,127
17605,note_off,122,0,0,,5,,,77,127
17606,note_on,1,0,0,,4,,,76,127
17728,note_off,122,0,0,,4,,,76,127
17729,note_on,1,0,0,,2,,,74,127
17851,note_off,122,0,0,,2,,,74,127
17851,note_off,0,0,0,,7,,,55,127
17852,note_on,1,0,0,,0,,,48,127
17852,note_on,0,0,0,,4,,,76,127
17852,note_on,0,0,0,,5,,,77,127
17974,note_off,122,0,0,,5,,,77,127
17974,note_off,0,0,0,,4,,,76,127
17975,note_on,1,0,0,,2,,,74,127
18097,note_off,122,0,0,,2,,,74,127
18098,note_on,1,0,0,,0,,,72,127
18220,note_off,122,0,0,,0,,,72,127
18221,note_on,1,0,0,,0,,,72,127
18404,note_off,183,0,0,,0,,,48,127
18405,note_on,1,0,0,,7,,,55,127
18588,note_off,183,0,0,,7,,,55,127
18589,note_on,1,0,0,,4,,,52,127
18772,note_off,183,0,0,,4,,,52,127
18773,note_on,1,0,0,,0,,,48,127
18956,note_off,183,0,0,,0,,,72,127
18957,note_on,1,0,0,,0,,,36,127
19041,note_off,84,0,0,,0,,,48,127
19172,note_on,131,0,0,,7,,,79,127
19355,note_off,183,0,0,,7,,,79,127
19356,note_on,1,0,0,,6,,,78,127
19509,note_off,153,0,0,,0,,,36,127
19540,note_off,31,0,0,,6,,,78,127
19541,note_on,1,0,0,,3,,,75,127
19724,note_off,183,0,0,,3,,,75,127
19725,note_on,1,0,0,,0,,,60,127
19725,note_on,0,0,0,,2,,,74,127
19908,note_off,183,0,0,,2,,,74,127
19909,note_on,1,0,0,,0,,,72,127
20067,note_off,158,0,0,,0,,,72,127
20092,note_off,25,0,0,,0,,,60,127
20093,note_on,1,0,0,,2,,,62,127
20093,note_on,0,0,0,,0,,,84,127
20276,note_off,183,0,0,,0,,,84,127
20277,note_on,1,0,0,,10,,,81,127
20460,note_off,183,0,0,,10,,,81,127
20460,note_off,0,0,0,,2,,,62,127
20461,note_on,1,0,0,,2,,,62,127
20461,note_on,0,0,0,,6,,,78,127
20644,note_off,183,0,0,,6,,,78,127
20645,note_on,1,0,0,,3,,,75,127
20828,note_off,183,0,0,,3,,,75,127
20828,note_off,0,0,0,,2,,,62,127
20829,note_on,1,0,0,,6,,,66,127
20829,note_on,0,0,0,,2,,,74,127
21012,note_off,183,0,0,,2,,,74,127
21013,note_on,1,0,0,,0,,,72,127
21151,note_off,138,0,0,,0,,,72,127
21197,note_on,46,0,0,,2,,,86,127
21289,note_off,92,0,0,,6,,,66,127
21380,note_off,91,0,0,,2,,,86,127
21381,note_on,1,0,0,,11,,,82,127
21564,note_off,183,0,0,,11,,,82,127
21565,note_on,1,0,0,,7,,,67,127
21565,note_on,0,0,0,,7,,,79,127
21748,note_off,183,0,0,,7,,,79,127
21749,note_on,1,0,0,,5,,,77,127
21932,note_off,183,0,0,,5,,,77,127
21932,note_off,0,0,0,,7,,,67,127
21933,note_on,1,0,0,,7,,,67,127
21933,note_on,0,0,0,,4,,,76,127
22116,note_off,183,0,0,,4,,,76,127
22117,note_on,1,0,0,,2,,,74,127
22255,note_off,138,0,0,,2,,,74,127
22301,note_on,46,0,0,,2,,,86,127
22412,note_off,111,0,0,,7,,,67,127
22484,note_off,72,0,0,,2,,,86,127
22485,note_on,1,0,0,,12,,,83,127
22668,note_off,183,0,0,,12,,,83,127
22669,note_on,1,0,0,,8,,,68,127
22669,note_on,0,0,0,,8,,,80,127
22852,note_off,183,0,0,,8,,,80,127
22853,note_on,1,0,0,,5,,,77,127
23036,note_off,183,0,0,,5,,,77,127
23036,note_off,0,0,0,,8,,,68,127
23037,note_on,1,0,0,,8,,,68,127
23037,note_on,0,0,0,,4,,,76,127
23220,note_off,183,0,0,,4,,,76,127
23221,note_on,1,0,0,,2,,,74,127
23384,note_off,163,0,0,,2,,,74,127
23397,note_off,13,0,0,,8,,,68,127
23405,note_on,8,0,0,,10,,,69,127
23405,note_on,0,0,0,,1,,,73,127
23527,note_off,122,0,0,,1,,,73,127
23528,note_on,1,0,0,,2,,,74,127
23650,note_off,122,0,0,,2,,,74,127
23651,note_on,1,0,0,,4,,,76,127
23773,note_off,122,0,0,,4,,,76,127
23774,note_on,1,0,0,,4,,,76,127
23957,note_off,183,0,0,,10,,,69,127
23958,note_on,1,0,0,,7,,,67,127
24141,note_off,183,0,0,,7,,,67,127
24142,note_on,1,0,0,,7,,,67,127
24187,note_off,45,0,0,,7,,,67,127
24188,note_on,1,0,0,,5,,,65,127
24233,note_off,45,0,0,,5,,,65,127
24234,note_on,1,0,0,,7,,,67,127
24279,note_off,45,0,0,,7,,,67,127
24280,note_on,1,0,0,,5,,,65,127
24325,note_off,45,0,0,,5,,,65,127
24326,note_on,1,0,0,,4,,,64,127
24509,note_off,183,0,0,,4,,,64,127
24509,note_off,0,0,0,,4,,,76,127
24510,note_on,1,0,0,,2,,,62,127
24510,note_on,0,0,0,,6,,,78,127
24632,note_off,122,0,0,,6,,,78,127
24633,note_on,1,0,0,,7,,,79,127
24755,note_off,122,0,0,,7,,,79,127
24756,note_on,1,0,0,,10,,,81,127
24878,note_off,122,0,0,,10,,,81,127
24879,note_on,1,0,0,,10,,,81,127
25062,note_off,183,0,0,,2,,,62,127
25063,note_on,1,0,0,,0,,,60,127
25246,note_off,183,0,0,,0,,,60,127
25247,note_on,1,0,0,,0,,,60,127
25292,note_off,45,0,0,,0,,,60,127
25293,note_on,1,0,0,,12,,,59,127
25338,note_off,45,0,0,,12,,,59,127
25339,note_on,1,0,0,,0,,,60,127
25384,note_off,45,0,0,,0,,,60,127
25385,note_on,1,0,0,,12,,,59,127
25430,note_off,45,0,0,,12,,,59,127
25431,note_on,1,0,0,,10,,,57,127
25614,note_off,183,0,0,,10,,,57,127
25614,note_off,0,0,0,,10,,,81,127
25615,note_on,1,0,0,,7,,,55,127
25615,note_on,0,0,0,,12,,,83,127
25737,note_off,122,0,0,,12,,,83,127
25738,note_on,1,0,0,,0,,,84,127
25860,note_off,122,0,0,,0,,,84,127
25861,note_on,1,0,0,,2,,,86,127
25983,note_off,122,0,0,,2,,,86,127
25984,note_on,1,0,0,,2,,,86,127
26167,note_off,183,0,0,,7,,,55,127
26168,note_on,1,0,0,,6,,,54,127
26351,note_off,183,0,0,,6,,,54,127
26352,note_on,1,0,0,,6,,,54,127
26397,note_off,45,0,0,,6,,,54,127
26398,note_on,1,0,0,,4,,,52,127
26443,note_off,45,0,0,,4,,,52,127
26444,note_on,1,0,0,,6,,,54,127
26489,note_off,45,0,0,,6,,,54,127
26490,note_on,1,0,0,,4,,,52,127
26535,note_off,45,0,0,,4,,,52,127
26536,note_on,1,0,0,,2,,,50,127
26719,note_off,183,0,0,,2,,,50,127
26719,note_off,0,0,0,,2,,,86,127
26720,note_on,1,0,0,,0,,,48,127
26904,note_on,184,0,0,,4,,,76,127
26904,note_on,0,0,0,,0,,,72,127
27087,note_off,183,0,0,,0,,,72,127
27087,note_off,0,0,0,,4,,,76,127
27087,note_off,0,0,0,,0,,,48,127
27088,note_on,1,0,0,,2,,,50,127
27088,note_on,0,0,0,,4,,,76,127
27088,note_on,0,0,0,,0,,,72,127
27271,note_off,183,0,0,,0,,,72,127
27271,note_off,0,0,0,,4,,,76,127
27272,note_on,1,0,0,,2,,,74,127
27272,note_on,0,0,0,,12,,,71,127
27455,note_off,183,0,0,,12,,,71,127
27455,note_off,0,0,0,,2,,,74,127
27456,note_on,1,0,0,,2,,,38,127
27456,note_on,0,0,0,,12,,,71,127
27456,note_on,0,0,0,,2,,,74,127
27639,note_off,183,0,0,,2,,,74,127
27639,note_off,0,0,0,,12,,,71,127
27640,note_on,1,0,0,,0,,,72,127
27640,note_on,0,0,0,,10,,,69,127
27823,note_off,183,0,0,,10,,,69,127
27823,note_off,0,0,0,,0,,,72,127
27823,note_off,0,0,0,,2,,,38,127
27823,note_off,0,0,0,,2,,,50,127
27839,note_on,16,0,0,,12,,,71,127
27839,note_on,0,0,0,,7,,,43,127
28007,note_off,168,0,0,,12,,,71,127
28023,note_on,16,0,0,,1,,,73,127
28206,note_off,183,0,0,,7,,,43,127
28207,note_on,1,0,0,,7,,,55,127
28390,note_off,183,0,0,,1,,,73,127
28391,note_on,1,0,0,,2,,,74,127
28574,note_off,183,0,0,,2,,,74,127
28574,note_off,0,0,0,,7,,,55,127
28575,note_on,1,0,0,,4,,,76,127
28575,note_on,0,0,0,,6,,,54,127
28666,note_off,91,0,0,,4,,,76,127
28667,note_on,1,0,0,,0,,,72,127
28758,note_off,91,0,0,,0,,,72,127
28759,note_on,1,0,0,,12,,,71,127
28850,note_off,91,0,0,,12,,,71,127
28851,note_on,1,0,0,,10,,,69,127
28942,note_off,91,0,0,,10,,,69,127
28958,note_on,16,0,0,,12,,,71,127
28996,note_off,38,0,0,,6,,,54,127
29126,note_off,130,0,0,,12,,,71,127
29142,note_on,16,0,0,,1,,,73,127
29326,note_on,184,0,0,,7,,,55,127
29509,note_off,183,0,0,,1,,,73,127
29510,note_on,1,0,0,,2,,,74,127
29693,note_off,183,0,0,,2,,,74,127
29693,note_off,0,0,0,,7,,,55,127
29694,note_on,1,0,0,,6,,,54,127
29694,note_on,0,0,0,,4,,,76,127
29785,note_off,91,0,0,,4,,,76,127
29786,note_on,1,0,0,,0,,,72,127
29877,note_off,91,0,0,,0,,,72,127
29878,note_on,1,0,0,,12,,,71,127
29969,note_off,91,0,0,,12,,,71,127
29970,note_on,1,0,0,,10,,,69,127
30058,note_off,88,0,0,,6,,,54,127
30061,note_off,3,0,0,,10,,,69,127
30077,note_on,16,0,0,,12,,,83,127
30260,note_off,183,0,0,,12,,,83,127
30261,note_on,1,0,0,,7,,,79,127
30444,note_off,183,0,0,,7,,,79,127
30445,note_on,1,0,0,,2,,,74,127
30445,note_on,0,0,0,,7,,,55,127
30628,note_off,183,0,0,,2,,,74,127
30629,note_on,1,0,0,,12,,,71,127
30812,note_off,183,0,0,,12,,,71,127
30812,note_off,0,0,0,,7,,,55,127
30813,note_on,1,0,0,,7,,,67,127
30813,note_on,0,0,0,,12,,,47,127
30996,note_off,183,0,0,,7,,,67,127
30997,note_on,1,0,0,,2,,,74,127
31180,note_off,183,0,0,,2,,,74,127
31180,note_off,0,0,0,,12,,,47,127
31181,note_on,1,0,0,,2,,,74,127
31181,note_on,0,0,0,,0,,,48,127
31272,note_off,91,0,0,,2,,,74,127
31273,note_on,1,0,0,,0,,,72,127
31364,note_off,91,0,0,,0,,,72,127
31365,note_on,1,0,0,,12,,,71,127
31456,note_off,91,0,0,,12,,,71,127
31457,note_on,1,0,0,,10,,,69,127
31548,note_off,91,0,0,,10,,,69,127
31548,note_off,0,0,0,,0,,,48,127
31549,note_on,1,0,0,,7,,,67,127
31549,note_on,0,0,0,,12,,,71,127
31549,note_on,0,0,0,,2,,,50,127
31917,note_off,368,0,0,,12,,,71,127
31917,note_off,0,0,0,,7,,,67,127
31918,note_on,1,0,0,,12,,,71,127
31918,note_on,0,0,0,,6,,,66,127
31918,note_on,0,0,0,,2,,,38,127
31978,note_off,60,0,0,,12,,,71,127
31979,note_on,1,0,0,,10,,,69,127
32039,note_off,60,0,0,,10,,,69,127
32040,note_on,1,0,0,,12,,,71,127
32100,note_off,60,0,0,,12,,,71,127
32101,note_on,1,0,0,,10,,,69,127
32284,note_off,183,0,0,,10,,,69,127
32284,note_off,0,0,0,,2,,,38,127
32284,note_off,0,0,0,,6,,,66,127
32284,note_off,0,0,0,,2,,,50,127
32316,note_on,32,0,0,,12,,,71,127
32316,note_on,0,0,0,,7,,,43,127
32484,note_off,168,0,0,,12,,,71,127
32500,note_on,16,0,0,,1,,,73,127
32683,note_off,183,0,0,,7,,,43,127
32684,note_on,1,0,0,,7,,,55,127
32867,note_off,183,0,0,,1,,,73,127
32868,note_on,1,0,0,,2,,,74,127
33051,note_off,183,0,0,,2,,,74,127
33051,note_off,0,0,0,,7,,,55,127
33052,note_on,1,0,0,,4,,,76,127
33052,note_on,0,0,0,,6,,,54,127
33143,note_off,91,0,0,,4,,,76,127
33144,note_on,1,0,0,,0,,,72,127
33235,note_off,91,0,0,,0,,,72,127
33236,note_on,1,0,0,,12,,,71,127
33327,note_off,91,0,0,,12,,,71,127
33328,note_on,1,0,0,,10,,,69,127
33416,note_off,88,0,0,,6,,,54,127
33419,note_off,3,0,0,,10,,,69,127
33420,note_on,1,0,0,,12,,,71,127
33588,note_off,168,0,0,,12,,,71,127
33604,note_on,16,0,0,,1,,,73,127
33788,note_on,184,0,0,,7,,,55,127
33971,note_off,183,0,0,,1,,,73,127
33972,note_on,1,0,0,,2,,,74,127
34155,note_off,183,0,0,,2,,,74,127
34155,note_off,0,0,0,,7,,,55,127
34156,note_on,1,0,0,,4,,,76,127
34156,note_on,0,0,0,,6,,,54,127
34247,note_off,91,0,0,,4,,,76,127
34248,note_on,1,0,0,,0,,,72,127
34339,note_off,91,0,0,,0,,,72,127
34340,note_on,1,0,0,,12,,,71,127
34431,note_off,91,0,0,,12,,,71,127
34432,note_on,1,0,0,,10,,,69,127
34520,note_off,88,0,0,,6,,,54,127
34523,note_off,3,0,0,,10,,,69,127
34555,note_on,32,0,0,,12,,,83,127
34738,note_off,183,0,0,,12,,,83,127
34739,note_on,1,0,0,,7,,,79,127
34922,note_off,183,0,0,,7,,,79,127
34923,note_on,1,0,0,,2,,,74,127
34923,note_on,0,0,0,,7,,,55,127
35106,note_off,183,0,0,,2,,,74,127
35107,note_on,1,0,0,,12,,,71,127
35290,note_off,183,0,0,,12,,,71,127
35290,note_off,0,0,0,,7,,,55,127
35291,note_on,1,0,0,,7,,,67,127
35291,note_on,0,0,0,,12,,,47,127
35474,note_off,183,0,0,,7,,,67,127
35475,note_on,1,0,0,,2,,,74,127
35658,note_off,183,0,0,,2,,,74,127
35658,note_off,0,0,0,,12,,,47,127
35659,note_on,1,0,0,,2,,,74,127
35659,note_on,0,0,0,,0,,,48,127
35750,note_off,91,0,0,,2,,,74,127
35751,note_on,1,0,0,,0,,,72,127
35842,note_off,91,0,0,,0,,,72,127
35843,note_on,1,0,0,,12,,,71,127
35934,note_off,91,0,0,,12,,,71,127
35935,note_on,1,0,0,,10,,,69,127
36026,note_off,91,0,0,,10,,,69,127
36026,note_off,0,0,0,,0,,,48,127
36027,note_on,1,0,0,,12,,,71,127
36027,note_on,0,0,0,,7,,,67,127
36027,note_on,0,0,0,,2,,,50,127
36395,note_off,368,0,0,,7,,,67,127
36396,note_on,1,0,0,,6,,,66,127
36396,note_on,0,0,0,,2,,,38,127
36450,note_off,54,0,0,,12,,,71,127
36458,note_on,8,0,0,,10,,,69,127
36518,note_off,60,0,0,,10,,,69,127
36519,note_on,1,0,0,,12,,,71,127
36579,note_off,60,0,0,,12,,,71,127
36580,note_on,1,0,0,,10,,,69,127
36640,note_off,60,0,0,,10,,,69,127
36641,note_on,1,0,0,,7,,,67,127
36701,note_off,60,0,0,,7,,,67,127
36702,note_on,1,0,0,,10,,,69,127
36762,note_off,60,0,0,,10,,,69,127
36762,note_off,0,0,0,,2,,,38,127
36762,note_off,0,0,0,,6,,,66,127
36762,note_off,0,0,0,,2,,,50,127
36763,note_on,1,0,0,,12,,,71,127
36763,note_on,0,0,0,,7,,,43,127
36854,note_off,91,0,0,,12,,,71,127
36855,note_on,1,0,0,,7,,,67,127
36946,note_off,91,0,0,,7,,,67,127
36947,note_on,1,0,0,,0,,,72,127
37038,note_off,91,0,0,,0,,,72,127
37039,note_on,1,0,0,,10,,,69,127
37130,note_off,91,0,0,,10,,,69,127
37131,note_on,1,0,0,,2,,,74,127
37222,note_off,91,0,0,,2,,,74,127
37223,note_on,1,0,0,,12,,,71,127
37314,note_off,91,0,0,,12,,,71,127
37315,note_on,1,0,0,,4,,,76,127
37406,note_off,91,0,0,,4,,,76,127
37407,note_on,1,0,0,,0,,,72,127
37463,note_off,56,0,0,,7,,,43,127
37499,note_off,36,0,0,,0,,,72,127
37500,note_on,1,0,0,,2,,,74,127
37500,note_on,0,0,0,,12,,,47,127
37683,note_off,183,0,0,,2,,,74,127
37684,note_on,1,0,0,,7,,,79,127
37867,note_off,183,0,0,,12,,,47,127
37868,note_on,1,0,0,,0,,,48,127
38029,note_off,161,0,0,,7,,,79,127
38052,note_on,23,0,0,,10,,,69,127
38235,note_off,183,0,0,,10,,,69,127
38235,note_off,0,0,0,,0,,,48,127
38236,note_on,1,0,0,,12,,,71,127
38236,note_on,0,0,0,,2,,,50,127
38327,note_off,91,0,0,,12,,,71,127
38328,note_on,1,0,0,,10,,,69,127
38419,note_off,91,0,0,,10,,,69,127
38420,note_on,1,0,0,,12,,,71,127
38511,note_off,91,0,0,,12,,,71,127
38512,note_on,1,0,0,,10,,,69,127
38603,note_off,91,0,0,,10,,,69,127
38604,note_on,1,0,0,,12,,,71,127
38604,note_on,0,0,0,,2,,,38,127
38695,note_off,91,0,0,,12,,,71,127
38696,note_on,1,0,0,,10,,,69,127
38787,note_off,91,0,0,,10,,,69,127
38788,note_on,1,0,0,,7,,,67,127
38879,note_off,91,0,0,,7,,,67,127
38880,note_on,1,0,0,,10,,,69,127
38971,note_off,91,0,0,,10,,,69,127
38971,note_off,0,0,0,,2,,,38,127
38971,note_off,0,0,0,,2,,,50,127
38972,note_on,1,0,0,,12,,,71,127
38972,note_on,0,0,0,,7,,,43,127
39063,note_off,91,0,0,,12,,,71,127
39064,note_on,1,0,0,,7,,,67,127
39155,note_off,91,0,0,,7,,,67,127
39156,note_on,1,0,0,,0,,,72,127
39247,note_off,91,0,0,,0,,,72,127
39248,note_on,1,0,0,,10,,,69,127
39339,note_off,91,0,0,,10,,,69,127
39340,note_on,1,0,0,,2,,,74,127
39431,note_off,91,0,0,,2,,,74,127
39432,note_on,1,0,0,,12,,,71,127
39523,note_off,91,0,0,,12,,,71,127
39524,note_on,1,0,0,,4,,,76,127
39615,note_off,91,0,0,,4,,,76,127
39616,note_on,1,0,0,,0,,,72,127
39672,note_off,56,0,0,,7,,,43,127
39708,note_off,36,0,0,,0,,,72,127
39709,note_on,1,0,0,,2,,,74,127
39709,note_on,0,0,0,,12,,,47,127
39892,note_off,183,0,0,,2,,,74,127
39893,note_on,1,0,0,,7,,,79,127
40076,note_off,183,0,0,,12,,,47,127
40077,note_on,1,0,0,,0,,,48,127
40200,note_off,123,0,0,,7,,,79,127
40261,note_on,61,0,0,,10,,,69,127
40444,note_off,183,0,0,,10,,,69,127
40444,note_off,0,0,0,,0,,,48,127
40445,note_on,1,0,0,,12,,,71,127
40445,note_on,0,0,0,,2,,,50,127
40536,note_off,91,0,0,,12,,,71,127
40537,note_on,1,0,0,,10,,,69,127
40628,note_off,91,0,0,,10,,,69,127
40629,note_on,1,0,0,,12,,,71,127
40720,note_off,91,0,0,,12,,,71,127
40721,note_on,1,0,0,,10,,,69,127
40812,note_off,91,0,0,,10,,,69,127
40813,note_on,1,0,0,,12,,,71,127
40813,note_on,0,0,0,,2,,,38,127
40904,note_off,91,0,0,,12,,,71,127
40905,note_on,1,0,0,,10,,,69,127
40996,note_off,91,0,0,,10,,,69,127
40997,note_on,1,0,0,,7,,,67,127
41088,note_off,91,0,0,,7,,,67,127
41089,note_on,1,0,0,,6,,,66,127
41180,note_off,91,0,0,,6,,,66,127
41180,note_off,0,0,0,,2,,,38,127
41180,note_off,0,0,0,,2,,,50,127
41181,note_on,1,0,0,,7,,,67,127
41181,note_on,0,0,0,,7,,,43,127
42103,note_off,922,0,0,,7,,,67,127
42286,note_off,183,0,0,,7,,,43,127
42348,note_on,62,0,0,,7,,,43,127
42532,note_on,184,0,0,,7,,,67,127
42715,note_off,183,0,0,,7,,,67,127
42716,note_on,1,0,0,,2,,,74,127
42899,note_off,183,0,0,,2,,,74,127
42900,note_on,1,0,0,,11,,,70,127
43000,note_off,100,0,0,,7,,,43,127
43084,note_off,84,0,0,,11,,,70,127
43085,note_on,1,0,0,,11,,,70,127
43085,note_on,0,0,0,,10,,,57,127
43085,note_on,0,0,0,,0,,,60,127
43176,note_off,91,0,0,,11,,,70,127
43177,note_on,1,0,0,,10,,,69,127
43268,note_off,91,0,0,,10,,,69,127
43269,note_on,1,0,0,,7,,,67,127
43360,note_off,91,0,0,,7,,,67,127
43361,note_on,1,0,0,,6,,,66,127
43452,note_off,91,0,0,,0,,,60,127
43452,note_off,0,0,0,,10,,,57,127
43453,note_on,1,0,0,,2,,,62,127
43453,note_on,0,0,0,,11,,,58,127
43514,note_off,61,0,0,,6,,,66,127
43637,note_on,123,0,0,,7,,,67,127
43820,note_off,183,0,0,,7,,,67,127
43820,note_off,0,0,0,,11,,,58,127
43820,note_off,0,0,0,,2,,,62,127
43821,note_on,1,0,0,,2,,,74,127
43821,note_on,0,0,0,,2,,,62,127
43821,note_on,0,0,0,,11,,,58,127
44004,note_off,183,0,0,,2,,,74,127
44005,note_on,1,0,0,,11,,,70,127
44188,note_off,183,0,0,,11,,,70,127
44188,note_off,0,0,0,,11,,,58,127
44188,note_off,0,0,0,,2,,,62,127
44189,note_on,1,0,0,,11,,,70,127
44189,note_on,0,0,0,,3,,,63,127
44189,note_on,0,0,0,,0,,,60,127
44280,note_off,91,0,0,,11,,,70,127
44281,note_on,1,0,0,,10,,,69,127
44372,note_off,91,0,0,,10,,,69,127
44373,note_on,1,0,0,,7,,,67,127
44464,note_off,91,0,0,,7,,,67,127
44465,note_on,1,0,0,,6,,,66,127
44547,note_off,82,0,0,,6,,,66,127
44557,note_off,10,0,0,,0,,,60,127
44557,note_off,0,0,0,,3,,,63,127
44566,note_on,9,0,0,,2,,,62,127
44566,note_on,0,0,0,,11,,,58,127
44750,note_on,184,0,0,,7,,,79,127
44933,note_off,183,0,0,,7,,,79,127
44933,note_off,0,0,0,,11,,,58,127
44933,note_off,0,0,0,,2,,,62,127
44934,note_on,1,0,0,,6,,,78,127
44934,note_on,0,0,0,,2,,,62,127
44934,note_on,0,0,0,,11,,,58,127
45117,note_off,183,0,0,,6,,,78,127
45118,note_on,1,0,0,,7,,,79,127
45301,note_off,183,0,0,,7,,,79,127
45301,note_off,0,0,0,,11,,,58,127
45301,note_off,0,0,0,,2,,,62,127
45302,note_on,1,0,0,,6,,,78,127
45302,note_on,0,0,0,,2,,,62,127
45302,note_on,0,0,0,,11,,,58,127
45485,note_off,183,0,0,,6,,,78,127
45486,note_on,1,0,0,,7,,,79,127
45669,note_off,183,0,0,,11,,,58,127
45669,note_off,0,0,0,,2,,,62,127
45670,note_on,1,0,0,,10,,,45,127
45670,note_on,0,0,0,,10,,,57,127
45853,note_off,183,0,0,,7,,,79,127
45854,note_on,1,0,0,,4,,,76,127
46037,note_off,183,0,0,,4,,,76,127
46037,note_off,0,0,0,,10,,,57,127
46037,note_off,0,0,0,,10,,,45,127
46038,note_on,1,0,0,,1,,,73,127
46038,note_on,0,0,0,,10,,,57,127
46038,note_on,0,0,0,,10,,,45,127
46221,note_off,183,0,0,,1,,,73,127
46222,note_on,1,0,0,,11,,,70,127
46405,note_off,183,0,0,,10,,,45,127
46405,note_off,0,0,0,,10,,,57,127
46406,note_on,1,0,0,,10,,,57,127
46406,note_on,0,0,0,,10,,,45,127
46589,note_off,183,0,0,,11,,,70,127
46590,note_on,1,0,0,,10,,,69,127
46681,note_off,91,0,0,,10,,,69,127
46682,note_on,1,0,0,,7,,,67,127
46773,note_off,91,0,0,,7,,,67,127
46773,note_off,0,0,0,,10,,,45,127
46773,note_off,0,0,0,,10,,,57,127
46774,note_on,1,0,0,,2,,,62,127
46774,note_on,0,0,0,,5,,,65,127
46974,note_on,200,0,0,,10,,,81,127
47142,note_off,168,0,0,,5,,,65,127
47142,note_off,0,0,0,,2,,,62,127
47157,note_off,15,0,0,,10,,,81,127
47158,note_on,1,0,0,,2,,,62,127
47158,note_on,0,0,0,,5,,,65,127
47158,note_on,0,0,0,,8,,,80,127
47341,note_off,183,0,0,,8,,,80,127
47342,note_on,1,0,0,,10,,,81,127
47525,note_off,183,0,0,,10,,,81,127
47525,note_off,0,0,0,,5,,,65,127
47525,note_off,0,0,0,,2,,,62,127
47526,note_on,1,0,0,,4,,,64,127
47526,note_on,0,0,0,,0,,,60,127
47526,note_on,0,0,0,,8,,,80,127
47709,note_off,183,0,0,,8,,,80,127
47710,note_on,1,0,0,,10,,,81,127
47893,note_off,183,0,0,,0,,,60,127
47893,note_off,0,0,0,,4,,,64,127
47894,note_on,1,0,0,,12,,,47,127
47894,note_on,0,0,0,,12,,,59,127
48077,note_off,183,0,0,,10,,,81,127
48078,note_on,1,0,0,,6,,,78,127
48261,note_off,183,0,0,,6,,,78,127
48261,note_off,0,0,0,,12,,,59,127
48261,note_off,0,0,0,,12,,,47,127
48262,note_on,1,0,0,,12,,,47,127
48262,note_on,0,0,0,,12,,,59,127
48262,note_on,0,0,0,,3,,,75,127
48445,note_off,183,0,0,,3,,,75,127
48446,note_on,1,0,0,,0,,,72,127
48629,note_off,183,0,0,,12,,,59,127
48629,note_off,0,0,0,,12,,,47,127
48630,note_on,1,0,0,,12,,,47,127
48630,note_on,0,0,0,,12,,,59,127
48813,note_off,183,0,0,,0,,,72,127
48829,note_on,16,0,0,,12,,,71,127
48920,note_off,91,0,0,,12,,,71,127
48921,note_on,1,0,0,,10,,,69,127
48984,note_off,63,0,0,,12,,,59,127
48984,note_off,0,0,0,,12,,,47,127
49007,note_on,23,0,0,,2,,,62,127
49007,note_on,0,0,0,,4,,,52,127
49007,note_on,0,0,0,,8,,,68,127
49012,note_off,5,0,0,,10,,,69,127
49129,note_off,117,0,0,,8,,,68,127
49130,note_on,1,0,0,,12,,,71,127
49252,note_off,122,0,0,,12,,,71,127
49253,note_on,1,0,0,,2,,,74,127
49375,note_off,122,0,0,,2,,,74,127
49375,note_off,0,0,0,,4,,,52,127
49375,note_off,0,0,0,,2,,,62,127
49376,note_on,1,0,0,,2,,,62,127
49376,note_on,0,0,0,,4,,,52,127
49376,note_on,0,0,0,,2,,,74,127
49498,note_off,122,0,0,,2,,,74,127
49499,note_on,1,0,0,,12,,,71,127
49621,note_off,122,0,0,,12,,,71,127
49622,note_on,1,0,0,,2,,,74,127
49744,note_off,122,0,0,,2,,,74,127
49744,note_off,0,0,0,,4,,,52,127
49744,note_off,0,0,0,,2,,,62,127
49745,note_on,1,0,0,,4,,,52,127
49745,note_on,0,0,0,,2,,,62,127
49745,note_on,0,0,0,,2,,,74,127
49928,note_off,183,0,0,,2,,,74,127
49929,note_on,1,0,0,,2,,,74,127
50112,note_off,183,0,0,,2,,,62,127
50112,note_off,0,0,0,,4,,,52,127
50113,note_on,1,0,0,,2,,,62,127
50113,note_on,0,0,0,,5,,,53,127
50235,note_off,122,0,0,,2,,,74,127
50236,note_on,1,0,0,,12,,,71,127
50358,note_off,122,0,0,,12,,,71,127
50359,note_on,1,0,0,,2,,,74,127
50481,note_off,122,0,0,,2,,,74,127
50481,note_off,0,0,0,,5,,,53,127
50481,note_off,0,0,0,,2,,,62,127
50482,note_on,1,0,0,,2,,,62,127
50482,note_on,0,0,0,,5,,,53,127
50482,note_on,0,0,0,,2,,,74,127
50604,note_off,122,0,0,,2,,,74,127
50605,note_on,1,0,0,,2,,,74,127
50727,note_off,122,0,0,,2,,,74,127
50728,note_on,1,0,0,,5,,,77,127
50850,note_off,122,0,0,,5,,,77,127
50850,note_off,0,0,0,,5,,,53,127
50850,note_off,0,0,0,,2,,,62,127
50851,note_on,1,0,0,,2,,,62,127
50851,note_on,0,0,0,,5,,,53,127
50851,note_on,0,0,0,,2,,,74,127
51034,note_off,183,0,0,,2,,,74,127
51035,note_on,1,0,0,,2,,,74,127
51218,note_off,183,0,0,,5,,,53,127
51218,note_off,0,0,0,,2,,,62,127
51219,note_on,1,0,0,,8,,,56,127
51219,note_on,0,0,0,,2,,,62,127
51390,note_off,171,0,0,,2,,,74,127
51403,note_on,13,0,0,,12,,,83,127
51586,note_off,183,0,0,,12,,,83,127
51586,note_off,0,0,0,,2,,,62,127
51586,note_off,0,0,0,,8,,,56,127
51587,note_on,1,0,0,,2,,,62,127
51587,note_on,0,0,0,,8,,,56,127
51587,note_on,0,0,0,,8,,,80,127
51770,note_off,183,0,0,,8,,,80,127
51771,note_on,1,0,0,,5,,,77,127
51954,note_off,183,0,0,,5,,,77,127
51954,note_off,0,0,0,,8,,,56,127
51954,note_off,0,0,0,,2,,,62,127
51955,note_on,1,0,0,,2,,,62,127
51955,note_on,0,0,0,,8,,,56,127
51955,note_on,0,0,0,,4,,,76,127
52138,note_off,183,0,0,,4,,,76,127
52139,note_on,1,0,0,,2,,,74,127
52322,note_off,183,0,0,,2,,,74,127
52322,note_off,0,0,0,,8,,,56,127
52322,note_off,0,0,0,,2,,,62,127
52338,note_on,16,0,0,,0,,,72,127
52338,note_on,0,0,0,,4,,,64,127
52338,note_on,0,0,0,,10,,,57,127
52460,note_off,122,0,0,,0,,,72,127
52461,note_on,1,0,0,,0,,,72,127
52583,note_off,122,0,0,,0,,,72,127
52584,note_on,1,0,0,,4,,,76,127
52706,note_off,122,0,0,,4,,,76,127
52706,note_off,0,0,0,,10,,,57,127
52706,note_off,0,0,0,,4,,,64,127
52707,note_on,1,0,0,,0,,,72,127
52707,note_on,0,0,0,,4,,,64,127
52707,note_on,0,0,0,,10,,,57,127
52890,note_off,183,0,0,,0,,,72,127
52891,note_on,1,0,0,,0,,,72,127
53074,note_off,183,0,0,,10,,,57,127
53074,note_off,0,0,0,,4,,,64,127
53075,note_on,1,0,0,,4,,,64,127
53075,note_on,0,0,0,,7,,,55,127
53258,note_off,183,0,0,,0,,,72,127
53259,note_on,1,0,0,,0,,,72,127
53442,note_off,183,0,0,,7,,,55,127
53442,note_off,0,0,0,,4,,,64,127
53443,note_on,1,0,0,,2,,,62,127
53443,note_on,0,0,0,,6,,,54,127
53626,note_off,183,0,0,,0,,,72,127
53627,note_on,1,0,0,,10,,,81,127
53810,note_off,183,0,0,,10,,,81,127
53810,note_off,0,0,0,,6,,,54,127
53810,note_off,0,0,0,,2,,,62,127
53811,note_on,1,0,0,,6,,,78,127
53811,note_on,0,0,0,,6,,,54,127
53811,note_on,0,0,0,,2,,,62,127
53994,note_off,183,0,0,,6,,,78,127
53995,note_on,1,0,0,,4,,,76,127
54178,note_off,183,0,0,,4,,,76,127
54178,note_off,0,0,0,,2,,,62,127
54178,note_off,0,0,0,,6,,,54,127
54179,note_on,1,0,0,,2,,,74,127
54179,note_on,0,0,0,,2,,,62,127
54179,note_on,0,0,0,,6,,,54,127
54362,note_off,183,0,0,,2,,,74,127
54363,note_on,1,0,0,,0,,,72,127
54546,note_off,183,0,0,,0,,,72,127
54546,note_off,0,0,0,,6,,,54,127
54546,note_off,0,0,0,,2,,,62,127
54558,note_on,12,0,0,,12,,,71,127
54558,note_on,0,0,0,,2,,,62,127
54558,note_on,0,0,0,,5,,,53,127
54742,note_on,184,0,0,,5,,,77,127
54834,note_off,92,0,0,,12,,,71,127
54925,note_off,91,0,0,,5,,,77,127
54925,note_off,0,0,0,,5,,,53,127
54925,note_off,0,0,0,,2,,,62,127
54926,note_on,1,0,0,,2,,,74,127
54926,note_on,0,0,0,,2,,,62,127
54926,note_on,0,0,0,,5,,,53,127
55109,note_off,183,0,0,,2,,,74,127
55110,note_on,1,0,0,,12,,,71,127
55293,note_off,183,0,0,,12,,,71,127
55293,note_off,0,0,0,,5,,,53,127
55293,note_off,0,0,0,,2,,,62,127
55294,note_on,1,0,0,,7,,,79,127
55294,note_on,0,0,0,,2,,,62,127
55294,note_on,0,0,0,,5,,,53,127
55385,note_off,91,0,0,,7,,,79,127
55386,note_on,1,0,0,,5,,,77,127
55477,note_off,91,0,0,,5,,,77,127
55478,note_on,1,0,0,,4,,,76,127
55569,note_off,91,0,0,,4,,,76,127
55570,note_on,1,0,0,,2,,,74,127
55661,note_off,91,0,0,,2,,,74,127
55662,note_on,1,0,0,,0,,,72,127
55754,note_off,92,0,0,,5,,,53,127
55845,note_off,91,0,0,,2,,,62,127
55846,note_on,1,0,0,,7,,,79,127
55938,note_off,92,0,0,,0,,,72,127
56029,note_off,91,0,0,,7,,,79,127
56030,note_on,1,0,0,,4,,,76,127
56030,note_on,0,0,0,,7,,,55,127
56030,note_on,0,0,0,,4,,,52,127
56213,note_off,183,0,0,,4,,,76,127
56214,note_on,1,0,0,,0,,,72,127
56397,note_off,183,0,0,,0,,,72,127
56397,note_off,0,0,0,,4,,,52,127
56397,note_off,0,0,0,,7,,,55,127
56398,note_on,1,0,0,,10,,,81,127
56398,note_on,0,0,0,,4,,,52,127
56398,note_on,0,0,0,,7,,,55,127
56489,note_off,91,0,0,,10,,,81,127
56490,note_on,1,0,0,,7,,,79,127
56581,note_off,91,0,0,,7,,,79,127
56582,note_on,1,0,0,,5,,,77,127
56673,note_off,91,0,0,,5,,,77,127
56674,note_on,1,0,0,,4,,,76,127
56765,note_off,91,0,0,,4,,,76,127
56766,note_on,1,0,0,,2,,,74,127
56949,note_off,183,0,0,,7,,,55,127
56949,note_off,0,0,0,,4,,,52,127
56950,note_on,1,0,0,,10,,,81,127
57042,note_off,92,0,0,,2,,,74,127
57133,note_off,91,0,0,,10,,,81,127
57134,note_on,1,0,0,,5,,,77,127
57134,note_on,0,0,0,,7,,,55,127
57134,note_on,0,0,0,,12,,,47,127
57317,note_off,183,0,0,,5,,,77,127
57318,note_on,1,0,0,,2,,,74,127
57501,note_off,183,0,0,,2,,,74,127
57501,note_off,0,0,0,,12,,,47,127
57501,note_off,0,0,0,,7,,,55,127
57502,note_on,1,0,0,,12,,,83,127
57502,note_on,0,0,0,,12,,,47,127
57502,note_on,0,0,0,,7,,,55,127
57593,note_off,91,0,0,,12,,,83,127
57594,note_on,1,0,0,,10,,,81,127
57685,note_off,91,0,0,,10,,,81,127
57686,note_on,1,0,0,,7,,,79,127
57777,note_off,91,0,0,,7,,,79,127
57778,note_on,1,0,0,,5,,,77,127
57869,note_off,91,0,0,,5,,,77,127
57869,note_off,0,0,0,,7,,,55,127
57869,note_off,0,0,0,,12,,,47,127
57870,note_on,1,0,0,,5,,,77,127
57870,note_on,0,0,0,,4,,,76,127
57870,note_on,0,0,0,,0,,,48,127
57992,note_off,122,0,0,,4,,,76,127
57992,note_off,0,0,0,,5,,,77,127
57993,note_on,1,0,0,,2,,,74,127
58115,note_off,122,0,0,,2,,,74,127
58116,note_on,1,0,0,,4,,,76,127
58238,note_off,122,0,0,,4,,,76,127
58238,note_off,0,0,0,,0,,,48,127
58239,note_on,1,0,0,,7,,,79,127
58239,note_on,0,0,0,,5,,,77,127
58239,note_on,0,0,0,,2,,,50,127
58361,note_off,122,0,0,,5,,,77,127
58361,note_off,0,0,0,,7,,,79,127
58362,note_on,1,0,0,,4,,,76,127
58484,note_off,122,0,0,,4,,,76,127
58485,note_on,1,0,0,,5,,,77,127
58607,note_off,122,0,0,,5,,,77,127
58607,note_off,0,0,0,,2,,,50,127
58608,note_on,1,0,0,,10,,,81,127
58608,note_on,0,0,0,,7,,,79,127
58608,note_on,0,0,0,,4,,,52,127
58730,note_off,122,0,0,,7,,,79,127
58730,note_off,0,0,0,,10,,,81,127
58731,note_on,1,0,0,,5,,,77,127
58853,note_off,122,0,0,,5,,,77,127
58854,note_on,1,0,0,,7,,,79,127
58975,note_off,121,0,0,,7,,,79,127
58976,note_off,1,0,0,,4,,,52,127
58976,note_on,0,0,0,,12,,,83,127
58976,note_on,0,0,0,,10,,,81,127
58977,note_on,1,0,0,,5,,,53,127
59099,note_off,122,0,0,,10,,,81,127
59099,note_off,0,0,0,,12,,,83,127
59100,note_on,1,0,0,,7,,,79,127
59222,note_off,122,0,0,,7,,,79,127
59223,note_on,1,0,0,,10,,,81,127
59345,note_off,122,0,0,,10,,,81,127
59345,note_off,0,0,0,,5,,,53,127
59346,note_on,1,0,0,,12,,,83,127
59346,note_on,0,0,0,,0,,,84,127
59346,note_on,0,0,0,,7,,,55,127
59468,note_off,122,0,0,,0,,,84,127
59468,note_off,0,0,0,,12,,,83,127
59469,note_on,1,0,0,,10,,,81,127
59591,note_off,122,0,0,,10,,,81,127
59592,note_on,1,0,0,,12,,,83,127
59714,note_off,122,0,0,,12,,,83,127
59714,note_off,0,0,0,,7,,,55,127
59715,note_on,1,0,0,,2,,,86,127
59715,note_on,0,0,0,,0,,,84,127
59715,note_on,0,0,0,,10,,,57,127
59837,note_off,122,0,0,,0,,,84,127
59837,note_off,0,0,0,,2,,,86,127
59838,note_on,1,0,0,,12,,,83,127
59960,note_off,122,0,0,,12,,,83,127
59961,note_on,1,0,0,,0,,,84,127
60082,note_off,121,0,0,,0,,,84,127
60083,note_off,1,0,0,,10,,,57,127
60083,note_on,0,0,0,,2,,,86,127
60084,note_on,1,0,0,,7,,,55,127
60280,note_on,196,0,0,,0,,,84,127
60294,note_off,14,0,0,,2,,,86,127
60451,note_off,157,0,0,,7,,,55,127
60463,note_off,12,0,0,,0,,,84,127
60464,note_on,1,0,0,,12,,,83,127
60464,note_on,0,0,0,,10,,,57,127
60647,note_off,183,0,0,,12,,,83,127
60648,note_on,1,0,0,,10,,,81,127
60831,note_off,183,0,0,,10,,,81,127
60831,note_off,0,0,0,,10,,,57,127
60832,note_on,1,0,0,,7,,,79,127
60832,note_on,0,0,0,,12,,,59,127
61015,note_off,183,0,0,,7,,,79,127
61016,note_on,1,0,0,,5,,,77,127
61199,note_off,183,0,0,,5,,,77,127
61199,note_off,0,0,0,,12,,,59,127
61215,note_on,16,0,0,,0,,,60,127
61215,note_on,0,0,0,,4,,,76,127
61383,note_off,168,0,0,,4,,,76,127
61399,note_on,16,0,0,,6,,,78,127
61582,note_off,183,0,0,,0,,,60,127
61583,note_on,1,0,0,,0,,,60,127
61766,note_off,183,0,0,,6,,,78,127
61767,note_on,1,0,0,,7,,,79,127
61950,note_off,183,0,0,,7,,,79,127
61950,note_off,0,0,0,,0,,,60,127
61951,note_on,1,0,0,,12,,,59,127
61951,note_on,0,0,0,,10,,,81,127
62042,note_off,91,0,0,,10,,,81,127
62043,note_on,1,0,0,,5,,,77,127
62134,note_off,91,0,0,,5,,,77,127
62135,note_on,1,0,0,,4,,,76,127
62226,note_off,91,0,0,,4,,,76,127
62227,note_on,1,0,0,,2,,,74,127
62318,note_off,91,0,0,,2,,,74,127
62318,note_off,0,0,0,,12,,,59,127
62334,note_on,16,0,0,,4,,,76,127
62502,note_off,168,0,0,,4,,,76,127
62518,note_on,16,0,0,,6,,,78,127
62702,note_on,184,0,0,,0,,,60,127
62885,note_off,183,0,0,,6,,,78,127
62886,note_on,1,0,0,,7,,,79,127
63069,note_off,183,0,0,,7,,,79,127
63069,note_off,0,0,0,,0,,,60,127
63070,note_on,1,0,0,,10,,,81,127
63070,note_on,0,0,0,,12,,,59,127
63161,note_off,91,0,0,,10,,,81,127
63162,note_on,1,0,0,,5,,,77,127
63253,note_off,91,0,0,,5,,,77,127
63254,note_on,1,0,0,,4,,,76,127
63345,note_off,91,0,0,,4,,,76,127
63346,note_on,1,0,0,,2,,,74,127
63437,note_off,91,0,0,,2,,,74,127
63437,note_off,0,0,0,,12,,,59,127
63453,note_on,16,0,0,,0,,,60,127
63453,note_on,0,0,0,,4,,,76,127
63636,note_off,183,0,0,,4,,,76,127
63637,note_on,1,0,0,,7,,,79,127
63820,note_off,183,0,0,,7,,,79,127
63821,note_on,1,0,0,,0,,,48,127
63821,note_on,0,0,0,,0,,,84,127
64004,note_off,183,0,0,,0,,,84,127
64005,note_on,1,0,0,,7,,,79,127
64188,note_off,183,0,0,,7,,,79,127
64188,note_off,0,0,0,,0,,,48,127
64188,note_off,0,0,0,,0,,,60,127
64189,note_on,1,0,0,,4,,,52,127
64189,note_on,0,0,0,,4,,,76,127
64372,note_off,183,0,0,,4,,,76,127
64373,note_on,1,0,0,,0,,,72,127
64556,note_off,183,0,0,,0,,,72,127
64556,note_off,0,0,0,,4,,,52,127
64557,note_on,1,0,0,,5,,,53,127
64557,note_on,0,0,0,,2,,,74,127
64679,note_off,122,0,0,,2,,,74,127
64680,note_on,1,0,0,,4,,,76,127
64802,note_off,122,0,0,,4,,,76,127
64803,note_on,1,0,0,,5,,,77,127
64925,note_off,122,0,0,,5,,,77,127
64925,note_off,0,0,0,,5,,,53,127
64926,note_on,1,0,0,,7,,,55,127
64926,note_on,0,0,0,,4,,,76,127
64926,note_on,0,0,0,,0,,,72,127
65294,note_off,368,0,0,,0,,,72,127
65294,note_off,0,0,0,,4,,,76,127
65295,note_on,1,0,0,,7,,,43,127
65295,note_on,0,0,0,,12,,,71,127
65295,note_on,0,0,0,,4,,,76,127
65355,note_off,60,0,0,,4,,,76,127
65356,note_on,1,0,0,,2,,,74,127
65416,note_off,60,0,0,,2,,,74,127
65417,note_on,1,0,0,,4,,,76,127
65477,note_off,60,0,0,,4,,,76,127
65478,note_on,1,0,0,,2,,,74,127
65661,note_off,183,0,0,,2,,,74,127
65661,note_off,0,0,0,,12,,,71,127
65661,note_off,0,0,0,,7,,,43,127
65661,note_off,0,0,0,,7,,,55,127
65693,note_on,32,0,0,,0,,,60,127
65693,note_on,0,0,0,,4,,,76,127
65861,note_off,168,0,0,,4,,,76,127
65877,note_on,16,0,0,,6,,,78,127
66060,note_off,183,0,0,,0,,,60,127
66061,note_on,1,0,0,,0,,,60,127
66244,note_off,183,0,0,,6,,,78,127
66245,note_on,1,0,0,,7,,,79,127
66428,note_off,183,0,0,,7,,,79,127
66428,note_off,0,0,0,,0,,,60,127
66429,note_on,1,0,0,,12,,,59,127
66429,note_on,0,0,0,,10,,,81,127
66520,note_off,91,0,0,,10,,,81,127
66521,note_on,1,0,0,,5,,,77,127
66612,note_off,91,0,0,,5,,,77,127
66613,note_on,1,0,0,,4,,,76,127
66704,note_off,91,0,0,,4,,,76,127
66705,note_on,1,0,0,,2,,,74,127
66796,note_off,91,0,0,,2,,,74,127
66812,note_on,16,0,0,,4,,,76,127
66980,note_off,168,0,0,,4,,,76,127
66980,note_off,0,0,0,,12,,,59,127
66996,note_on,16,0,0,,6,,,78,127
67180,note_on,184,0,0,,0,,,60,127
67363,note_off,183,0,0,,6,,,78,127
67364,note_on,1,0,0,,7,,,79,127
67547,note_off,183,0,0,,7,,,79,127
67547,note_off,0,0,0,,0,,,60,127
67548,note_on,1,0,0,,10,,,81,127
67548,note_on,0,0,0,,12,,,59,127
67639,note_off,91,0,0,,10,,,81,127
67640,note_on,1,0,0,,5,,,77,127
67731,note_off,91,0,0,,5,,,77,127
67732,note_on,1,0,0,,4,,,76,127
67823,note_off,91,0,0,,4,,,76,127
67824,note_on,1,0,0,,2,,,74,127
67915,note_off,91,0,0,,2,,,74,127
67915,note_off,0,0,0,,12,,,59,127
67927,note_on,12,0,0,,4,,,76,127
67927,note_on,0,0,0,,0,,,60,127
68110,note_off,183,0,0,,4,,,76,127
68111,note_on,1,0,0,,7,,,79,127
68294,note_off,183,0,0,,7,,,79,127
68295,note_on,1,0,0,,0,,,84,127
68295,note_on,0,0,0,,0,,,48,127
68478,note_off,183,0,0,,0,,,84,127
68479,note_on,1,0,0,,7,,,79,127
68662,note_off,183,0,0,,7,,,79,127
68662,note_off,0,0,0,,0,,,48,127
68662,note_off,0,0,0,,0,,,60,127
68663,note_on,1,0,0,,4,,,76,127
68663,note_on,0,0,0,,4,,,52,127
68846,note_off,183,0,0,,4,,,76,127
68847,note_on,1,0,0,,0,,,72,127
69030,note_off,183,0,0,,0,,,72,127
69030,note_off,0,0,0,,4,,,52,127
69031,note_on,1,0,0,,2,,,74,127
69031,note_on,0,0,0,,5,,,53,127
69153,note_off,122,0,0,,2,,,74,127
69154,note_on,1,0,0,,4,,,76,127
69276,note_off,122,0,0,,4,,,76,127
69277,note_on,1,0,0,,5,,,77,127
69399,note_off,122,0,0,,5,,,77,127
69399,note_off,0,0,0,,5,,,53,127
69400,note_on,1,0,0,,4,,,76,127
69400,note_on,0,0,0,,0,,,72,127
69400,note_on,0,0,0,,7,,,55,127
69768,note_off,368,0,0,,0,,,72,127
69769,note_on,1,0,0,,12,,,71,127
69769,note_on,0,0,0,,7,,,43,127
69823,note_off,54,0,0,,4,,,76,127
69831,note_on,8,0,0,,2,,,74,127
69891,note_off,60,0,0,,2,,,74,127
69892,note_on,1,0,0,,4,,,76,127
69952,note_off,60,0,0,,4,,,76,127
69953,note_on,1,0,0,,2,,,74,127
70013,note_off,60,0,0,,2,,,74,127
70014,note_on,1,0,0,,0,,,72,127
70074,note_off,60,0,0,,0,,,72,127
70075,note_on,1,0,0,,2,,,74,127
70135,note_off,60,0,0,,2,,,74,127
70135,note_off,0,0,0,,7,,,43,127
70135,note_off,0,0,0,,12,,,71,127
70135,note_off,0,0,0,,7,,,55,127
70136,note_on,1,0,0,,0,,,48,127
70136,note_on,0,0,0,,4,,,76,127
70227,note_off,91,0,0,,4,,,76,127
70229,note_on,2,0,0,,0,,,72,127
70320,note_off,91,0,0,,0,,,72,127
70322,note_on,2,0,0,,5,,,77,127
70413,note_off,91,0,0,,5,,,77,127
70415,note_on,2,0,0,,2,,,74,127
70506,note_off,91,0,0,,2,,,74,127
70508,note_on,2,0,0,,7,,,79,127
70599,note_off,91,0,0,,7,,,79,127
70600,note_on,1,0,0,,4,,,76,127
70691,note_off,91,0,0,,4,,,76,127
70693,note_on,2,0,0,,10,,,81,127
70784,note_off,91,0,0,,10,,,81,127
70786,note_on,2,0,0,,5,,,77,127
70836,note_off,50,0,0,,0,,,48,127
70877,note_off,41,0,0,,5,,,77,127
70879,note_on,2,0,0,,0,,,60,127
70879,note_on,0,0,0,,4,,,52,127
70879,note_on,0,0,0,,7,,,79,127
71062,note_off,183,0,0,,7,,,79,127
71065,note_on,3,0,0,,0,,,84,127
71246,note_off,181,0,0,,4,,,52,127
71246,note_off,0,0,0,,0,,,60,127
71251,note_on,5,0,0,,5,,,53,127
71251,note_on,0,0,0,,0,,,60,127
71432,note_off,181,0,0,,0,,,84,127
71437,note_on,5,0,0,,2,,,74,127
71618,note_off,181,0,0,,0,,,60,127
71618,note_off,0,0,0,,5,,,53,127
71620,note_off,2,0,0,,2,,,74,127
71623,note_on,3,0,0,,7,,,55,127
71623,note_on,0,0,0,,0,,,60,127
71623,note_on,0,0,0,,4,,,76,127
71714,note_off,91,0,0,,4,,,76,127
71716,note_on,2,0,0,,2,,,74,127
71807,note_off,91,0,0,,2,,,74,127
71809,note_on,2,0,0,,4,,,76,127
71900,note_off,91,0,0,,4,,,76,127
71902,note_on,2,0,0,,2,,,74,127
71990,note_off,88,0,0,,0,,,60,127
71990,note_off,0,0,0,,7,,,55,127
71993,note_off,3,0,0,,2,,,74,127
71995,note_on,2,0,0,,7,,,55,127
71995,note_on,0,0,0,,12,,,59,127
71995,note_on,0,0,0,,4,,,76,127
72086,note_off,91,0,0,,4,,,76,127
72088,note_on,2,0,0,,2,,,74,127
72179,note_off,91,0,0,,2,,,74,127
72181,note_on,2,0,0,,0,,,72,127
72272,note_off,91,0,0,,0,,,72,127
72274,note_on,2,0,0,,2,,,74,127
72362,note_off,88,0,0,,12,,,59,127
72362,note_off,0,0,0,,7,,,55,127
72365,note_off,3,0,0,,2,,,74,127
72367,note_on,2,0,0,,4,,,76,127
72367,note_on,0,0,0,,0,,,48,127
72367,note_on,0,0,0,,0,,,60,127
72458,note_off,91,0,0,,4,,,76,127
72464,note_on,6,0,0,,0,,,72,127
72555,note_off,91,0,0,,0,,,72,127
72561,note_on,6,0,0,,5,,,77,127
72652,note_off,91,0,0,,5,,,77,127
72658,note_on,6,0,0,,2,,,74,127
72749,note_off,91,0,0,,2,,,74,127
72754,note_on,5,0,0,,7,,,79,127
72845,note_off,91,0,0,,7,,,79,127
72851,note_on,6,0,0,,4,,,76,127
72942,note_off,91,0,0,,4,,,76,127
72948,note_on,6,0,0,,10,,,81,127
73039,note_off,91,0,0,,10,,,81,127
73045,note_on,6,0,0,,5,,,77,127
73104,note_off,59,0,0,,0,,,60,127
73104,note_off,0,0,0,,0,,,48,127
73137,note_off,33,0,0,,5,,,77,127
73143,note_on,6,0,0,,7,,,79,127
73143,note_on,0,0,0,,4,,,52,127
73326,note_off,183,0,0,,7,,,79,127
73336,note_on,10,0,0,,0,,,84,127
73511,note_off,175,0,0,,4,,,52,127
73530,note_on,19,0,0,,5,,,53,127
73704,note_off,174,0,0,,0,,,84,127
73724,note_on,20,0,0,,2,,,74,127
73898,note_off,174,0,0,,5,,,53,127
73908,note_off,10,0,0,,2,,,74,127
73918,note_on,10,0,0,,4,,,76,127
73918,note_on,0,0,0,,7,,,55,127
74009,note_off,91,0,0,,4,,,76,127
74015,note_on,6,0,0,,2,,,74,127
74106,note_off,91,0,0,,2,,,74,127
74112,note_on,6,0,0,,4,,,76,127
74203,note_off,91,0,0,,4,,,76,127
74209,note_on,6,0,0,,2,,,74,127
74300,note_off,91,0,0,,2,,,74,127
74306,note_on,6,0,0,,4,,,76,127
74306,note_on,0,0,0,,7,,,43,127
74397,note_off,91,0,0,,4,,,76,127
74403,note_on,6,0,0,,2,,,74,127
74494,note_off,91,0,0,,2,,,74,127
74499,note_on,5,0,0,,0,,,72,127
74590,note_off,91,0,0,,0,,,72,127
74596,note_on,6,0,0,,12,,,71,127
74655,note_off,59,0,0,,7,,,55,127
74674,note_off,19,0,0,,7,,,43,127
74687,note_off,13,0,0,,12,,,71,127
74698,note_on,11,0,0,,0,,,48,127
74698,note_on,0,0,0,,0,,,72,127
76234,note_off,1536,0,0,,0,,,72,127
76234,note_off,0,0,0,,0,,,48,127
76800,end_of_track,566,1,0,,,,,,
