tick,type,time,meta,track,program,channel,pitch,tempo,note,velocity
0,copyright,0,1,0,,,,,,
0,program_change,0,0,0,6,0,,,,
0,pitchwheel,0,0,0,,0,0,,,
0,program_change,0,0,0,6,1,,,,
0,pitchwheel,0,0,0,,1,-590,,,
0,program_change,0,0,0,6,2,,,,
0,pitchwheel,0,0,0,,2,-272,,,
0,program_change,0,0,0,6,3,,,,
0,pitchwheel,0,0,0,,3,-353,,,
0,program_change,0,0,0,6,4,,,,
0,pitchwheel,0,0,0,,4,-560,,,
0,program_change,0,0,0,6,5,,,,
0,pitchwheel,0,0,0,,5,-80,,,
0,program_change,0,0,0,6,6,,,,
0,pitchwheel,0,0,0,,6,-625,,,
0,program_change,0,0,0,6,7,,,,
0,pitchwheel,0,0,0,,7,-130,,,
0,program_change,0,0,0,6,8,,,,
0,pitchwheel,0,0,0,,8,-512,,,
0,program_change,0,0,0,6,10,,,,
0,pitchwheel,0,0,0,,10,-464,,,
0,program_change,0,0,0,6,11,,,,
0,pitchwheel,0,0,0,,11,-208,,,
0,program_change,0,0,0,6,12,,,,
0,pitchwheel,0,0,0,,12,-553,,,
0,set_tempo,0,1,0,,,,500000,,
40,note_on,40,0,0,,0,,,36,127
389,note_on,349,0,0,,7,,,79,127
642,note_off,253,0,0,,7,,,79,127
642,note_on,0,0,0,,4,,,76,127
767,note_off,125,0,0,,0,,,36,127
882,note_off,115,0,0,,4,,,76,127
882,note_on,0,0,0,,5,,,77,127
1122,note_off,240,0,0,,5,,,77,127
1122,note_on,0,0,0,,7,,,79,127
1365,note_on,243,0,0,,0,,,60,127
1605,note_off,240,0,0,,0,,,60,127
1608,note_on,3,0,0,,2,,,62,127
1780,note_off,172,0,0,,7,,,79,127
1848,note_off,68,0,0,,2,,,62,127
1851,note_on,3,0,0,,4,,,64,127
1851,note_on,0,0,0,,5,,,77,127
1970,note_off,119,0,0,,5,,,77,127
1973,note_on,3,0,0,,4,,,76,127
2092,note_off,119,0,0,,4,,,76,127
2092,note_off,0,0,0,,4,,,64,127
2095,note_on,3,0,0,,5,,,65,127
2095,note_on,0,0,0,,4,,,76,127
2153,note_off,58,0,0,,4,,,76,127
2156,note_on,3,0,0,,2,,,74,127
2214,note_off,58,0,0,,2,,,74,127
2217,note_on,3,0,0,,4,,,76,127
2275,note_off,58,0,0,,4,,,76,127
2278,note_on,3,0,0,,2,,,74,127
2336,note_off,58,0,0,,5,,,65,127
2339,note_on,3,0,0,,7,,,67,127
2458,note_off,119,0,0,,2,,,74,127
2461,note_on,3,0,0,,0,,,72,127
2519,note_off,58,0,0,,0,,,72,127
2522,note_on,3,0,0,,12,,,71,127
2580,note_off,58,0,0,,12,,,71,127
2580,note_off,0,0,0,,7,,,67,127
2583,note_on,3,0,0,,10,,,69,127
2583,note_on,0,0,0,,2,,,74,127
2641,note_off,58,0,0,,2,,,74,127
2644,note_on,3,0,0,,0,,,72,127
2702,note_off,58,0,0,,0,,,72,127
2705,note_on,3,0,0,,2,,,74,127
2763,note_off,58,0,0,,2,,,74,127
2766,note_on,3,0,0,,0,,,72,127
2824,note_off,58,0,0,,10,,,69,127
2827,note_on,3,0,0,,4,,,64,127
2931,note_off,104,0,0,,0,,,72,127
2949,note_on,18,0,0,,12,,,71,127
3007,note_off,58,0,0,,12,,,71,127
3010,note_on,3,0,0,,0,,,72,127
3068,note_off,58,0,0,,0,,,72,127
3068,note_off,0,0,0,,4,,,64,127
3071,note_on,3,0,0,,5,,,65,127
3071,note_on,0,0,0,,4,,,76,127
3129,note_off,58,0,0,,4,,,76,127
3132,note_on,3,0,0,,2,,,74,127
3190,note_off,58,0,0,,2,,,74,127
3193,note_on,3,0,0,,4,,,76,127
3251,note_off,58,0,0,,4,,,76,127
3254,note_on,3,0,0,,2,,,74,127
3312,note_off,58,0,0,,5,,,65,127
3315,note_on,3,0,0,,7,,,67,127
3434,note_off,119,0,0,,2,,,74,127
3437,note_on,3,0,0,,0,,,72,127
3495,note_off,58,0,0,,0,,,72,127
3498,note_on,3,0,0,,12,,,71,127
3556,note_off,58,0,0,,12,,,71,127
3556,note_off,0,0,0,,7,,,67,127
3559,note_on,3,0,0,,10,,,69,127
3559,note_on,0,0,0,,2,,,74,127
3617,note_off,58,0,0,,2,,,74,127
3620,note_on,3,0,0,,0,,,72,127
3678,note_off,58,0,0,,0,,,72,127
3681,note_on,3,0,0,,2,,,74,127
3739,note_off,58,0,0,,2,,,74,127
3742,note_on,3,0,0,,0,,,72,127
3800,note_off,58,0,0,,10,,,69,127
3803,note_on,3,0,0,,4,,,64,127
3894,note_off,91,0,0,,0,,,72,127
3924,note_on,30,0,0,,2,,,74,127
3982,note_off,58,0,0,,2,,,74,127
3985,note_on,3,0,0,,4,,,76,127
4043,note_off,58,0,0,,4,,,76,127
4043,note_off,0,0,0,,4,,,64,127
4046,note_on,3,0,0,,5,,,65,127
4046,note_on,0,0,0,,4,,,76,127
4104,note_off,58,0,0,,4,,,76,127
4107,note_on,3,0,0,,2,,,74,127
4165,note_off,58,0,0,,2,,,74,127
4168,note_on,3,0,0,,4,,,76,127
4226,note_off,58,0,0,,4,,,76,127
4229,note_on,3,0,0,,2,,,74,127
4287,note_off,58,0,0,,5,,,65,127
4290,note_on,3,0,0,,7,,,67,127
4409,note_off,119,0,0,,2,,,74,127
4412,note_on,3,0,0,,0,,,72,127
4470,note_off,58,0,0,,0,,,72,127
4473,note_on,3,0,0,,2,,,74,127
4531,note_off,58,0,0,,2,,,74,127
4531,note_off,0,0,0,,7,,,67,127
4534,note_on,3,0,0,,0,,,60,127
4534,note_on,0,0,0,,5,,,77,127
4592,note_off,58,0,0,,5,,,77,127
4595,note_on,3,0,0,,4,,,76,127
4653,note_off,58,0,0,,4,,,76,127
4656,note_on,3,0,0,,5,,,77,127
4714,note_off,58,0,0,,5,,,77,127
4717,note_on,3,0,0,,4,,,76,127
4775,note_off,58,0,0,,0,,,60,127
4778,note_on,3,0,0,,0,,,60,127
4882,note_off,104,0,0,,4,,,76,127
4900,note_on,18,0,0,,2,,,74,127
4958,note_off,58,0,0,,2,,,74,127
4961,note_on,3,0,0,,4,,,76,127
5019,note_off,58,0,0,,4,,,76,127
5019,note_off,0,0,0,,0,,,60,127
5022,note_on,3,0,0,,2,,,62,127
5022,note_on,0,0,0,,7,,,79,127
5080,note_off,58,0,0,,7,,,79,127
5083,note_on,3,0,0,,5,,,77,127
5141,note_off,58,0,0,,5,,,77,127
5144,note_on,3,0,0,,7,,,79,127
5202,note_off,58,0,0,,7,,,79,127
5205,note_on,3,0,0,,5,,,77,127
5263,note_off,58,0,0,,2,,,62,127
5266,note_on,3,0,0,,2,,,62,127
5370,note_off,104,0,0,,5,,,77,127
5388,note_on,18,0,0,,4,,,76,127
5446,note_off,58,0,0,,4,,,76,127
5449,note_on,3,0,0,,5,,,77,127
5507,note_off,58,0,0,,5,,,77,127
5507,note_off,0,0,0,,2,,,62,127
5510,note_on,3,0,0,,4,,,64,127
5510,note_on,0,0,0,,10,,,81,127
5568,note_off,58,0,0,,10,,,81,127
5571,note_on,3,0,0,,7,,,79,127
5629,note_off,58,0,0,,7,,,79,127
5632,note_on,3,0,0,,10,,,81,127
5690,note_off,58,0,0,,10,,,81,127
5693,note_on,3,0,0,,7,,,79,127
5751,note_off,58,0,0,,4,,,64,127
5754,note_on,3,0,0,,4,,,64,127
5864,note_off,110,0,0,,7,,,79,127
5875,note_on,11,0,0,,5,,,77,127
5933,note_off,58,0,0,,5,,,77,127
5936,note_on,3,0,0,,7,,,79,127
5994,note_off,58,0,0,,7,,,79,127
5994,note_off,0,0,0,,4,,,64,127
5997,note_on,3,0,0,,5,,,65,127
5997,note_on,0,0,0,,10,,,81,127
6075,note_off,78,0,0,,10,,,81,127
6078,note_on,3,0,0,,7,,,79,127
6156,note_off,78,0,0,,7,,,79,127
6159,note_on,3,0,0,,5,,,77,127
6237,note_off,78,0,0,,5,,,77,127
6237,note_off,0,0,0,,5,,,65,127
6240,note_on,3,0,0,,5,,,65,127
6240,note_on,0,0,0,,4,,,76,127
6318,note_off,78,0,0,,4,,,76,127
6321,note_on,3,0,0,,2,,,74,127
6399,note_off,78,0,0,,2,,,74,127
6402,note_on,3,0,0,,0,,,72,127
6480,note_off,78,0,0,,0,,,72,127
6480,note_off,0,0,0,,5,,,65,127
6483,note_on,3,0,0,,7,,,67,127
6483,note_on,0,0,0,,12,,,71,127
6723,note_off,240,0,0,,12,,,71,127
6723,note_off,0,0,0,,7,,,67,127
6726,note_on,3,0,0,,10,,,69,127
6726,note_on,0,0,0,,2,,,74,127
6784,note_off,58,0,0,,2,,,74,127
6787,note_on,3,0,0,,0,,,72,127
6845,note_off,58,0,0,,0,,,72,127
6848,note_on,3,0,0,,12,,,71,127
6906,note_off,58,0,0,,12,,,71,127
6909,note_on,3,0,0,,0,,,72,127
6967,note_off,58,0,0,,0,,,72,127
6967,note_off,0,0,0,,10,,,69,127
6970,note_on,3,0,0,,7,,,67,127
6970,note_on,0,0,0,,0,,,72,127
7220,note_off,250,0,0,,0,,,72,127
7221,note_on,1,0,0,,2,,,74,127
7222,note_on,1,0,0,,7,,,55,127
7453,note_off,231,0,0,,7,,,67,127
7462,note_off,9,0,0,,7,,,55,127
7475,note_on,13,0,0,,10,,,57,127
7582,note_off,107,0,0,,2,,,74,127
7715,note_off,133,0,0,,10,,,57,127
7718,note_on,3,0,0,,7,,,79,127
7718,note_on,0,0,0,,12,,,59,127
7958,note_off,240,0,0,,7,,,79,127
7961,note_on,3,0,0,,7,,,79,127
8080,note_off,119,0,0,,7,,,79,127
8080,note_off,0,0,0,,12,,,59,127
8083,note_on,3,0,0,,4,,,76,127
8202,note_off,119,0,0,,4,,,76,127
8205,note_on,3,0,0,,4,,,76,127
8205,note_on,0,0,0,,0,,,60,127
8445,note_off,240,0,0,,0,,,60,127
8448,note_on,3,0,0,,0,,,60,127
8688,note_off,240,0,0,,0,,,60,127
8688,note_off,0,0,0,,4,,,76,127
8691,note_on,3,0,0,,7,,,79,127
8691,note_on,0,0,0,,0,,,60,127
8931,note_off,240,0,0,,7,,,79,127
8934,note_on,3,0,0,,7,,,79,127
9012,note_off,78,0,0,,7,,,79,127
9015,note_on,3,0,0,,6,,,78,127
9053,note_off,38,0,0,,0,,,60,127
9093,note_off,40,0,0,,6,,,78,127
9096,note_on,3,0,0,,4,,,76,127
9174,note_off,78,0,0,,4,,,76,127
9177,note_on,3,0,0,,2,,,74,127
9177,note_on,0,0,0,,12,,,59,127
9417,note_off,240,0,0,,12,,,59,127
9420,note_on,3,0,0,,12,,,59,127
9660,note_off,240,0,0,,12,,,59,127
9660,note_off,0,0,0,,2,,,74,127
9663,note_on,3,0,0,,2,,,74,127
9663,note_on,0,0,0,,12,,,59,127
9903,note_off,240,0,0,,2,,,74,127
9906,note_on,3,0,0,,2,,,86,127
10025,note_off,119,0,0,,12,,,59,127
10146,note_off,121,0,0,,2,,,86,127
10149,note_on,3,0,0,,11,,,82,127
10149,note_on,0,0,0,,11,,,58,127
10389,note_off,240,0,0,,11,,,58,127
10389,note_off,0,0,0,,11,,,82,127
10392,note_on,3,0,0,,7,,,79,127
10392,note_on,0,0,0,,11,,,58,127
10632,note_off,240,0,0,,11,,,58,127
10632,note_off,0,0,0,,7,,,79,127
10635,note_on,3,0,0,,4,,,76,127
10635,note_on,0,0,0,,11,,,58,127
10875,note_off,240,0,0,,4,,,76,127
10878,note_on,3,0,0,,1,,,73,127
10998,note_off,120,0,0,,11,,,58,127
11118,note_off,120,0,0,,1,,,73,127
11121,note_on,3,0,0,,11,,,70,127
11121,note_on,0,0,0,,10,,,57,127
11361,note_off,240,0,0,,10,,,57,127
11361,note_off,0,0,0,,11,,,70,127
11364,note_on,3,0,0,,7,,,67,127
11364,note_on,0,0,0,,10,,,57,127
11604,note_off,240,0,0,,10,,,57,127
11617,note_on,13,0,0,,7,,,79,127
11617,note_on,0,0,0,,1,,,61,127
11718,note_off,101,0,0,,7,,,67,127
11857,note_off,139,0,0,,1,,,61,127
11857,note_off,0,0,0,,7,,,79,127
11860,note_on,3,0,0,,5,,,77,127
11860,note_on,0,0,0,,2,,,62,127
11979,note_off,119,0,0,,5,,,77,127
11982,note_on,3,0,0,,4,,,76,127
12101,note_off,119,0,0,,4,,,76,127
12101,note_off,0,0,0,,2,,,62,127
12104,note_on,3,0,0,,2,,,74,127
12104,note_on,0,0,0,,5,,,65,127
12344,note_off,240,0,0,,5,,,65,127
12347,note_on,3,0,0,,7,,,67,127
12458,note_off,111,0,0,,2,,,74,127
12587,note_off,129,0,0,,7,,,67,127
12590,note_on,3,0,0,,7,,,79,127
12590,note_on,0,0,0,,1,,,61,127
12830,note_off,240,0,0,,1,,,61,127
12830,note_off,0,0,0,,7,,,79,127
12833,note_on,3,0,0,,5,,,77,127
12833,note_on,0,0,0,,2,,,62,127
12952,note_off,119,0,0,,5,,,77,127
12955,note_on,3,0,0,,4,,,76,127
13074,note_off,119,0,0,,4,,,76,127
13074,note_off,0,0,0,,2,,,62,127
13077,note_on,3,0,0,,2,,,74,127
13077,note_on,0,0,0,,5,,,65,127
13292,note_off,215,0,0,,2,,,74,127
13317,note_off,25,0,0,,5,,,65,127
13320,note_on,3,0,0,,7,,,67,127
13560,note_off,240,0,0,,7,,,67,127
13563,note_on,3,0,0,,7,,,79,127
13563,note_on,0,0,0,,1,,,61,127
13803,note_off,240,0,0,,1,,,61,127
13803,note_off,0,0,0,,7,,,79,127
13806,note_on,3,0,0,,5,,,77,127
13806,note_on,0,0,0,,2,,,62,127
14008,note_off,202,0,0,,5,,,77,127
14048,note_on,40,0,0,,10,,,81,127
14168,note_off,120,0,0,,2,,,62,127
14288,note_off,120,0,0,,10,,,81,127
14291,note_on,3,0,0,,5,,,77,127
14531,note_off,240,0,0,,5,,,77,127
14534,note_on,3,0,0,,2,,,74,127
14774,note_off,240,0,0,,2,,,74,127
14777,note_on,3,0,0,,11,,,70,127
15017,note_off,240,0,0,,11,,,70,127
15020,note_on,3,0,0,,7,,,67,127
15020,note_on,0,0,0,,7,,,55,127
15260,note_off,240,0,0,,7,,,55,127
15260,note_off,0,0,0,,7,,,67,127
15263,note_on,3,0,0,,5,,,65,127
15263,note_on,0,0,0,,10,,,57,127
15503,note_off,240,0,0,,10,,,57,127
15503,note_off,0,0,0,,5,,,65,127
15506,note_on,3,0,0,,5,,,77,127
15506,note_on,0,0,0,,12,,,59,127
15746,note_off,240,0,0,,12,,,59,127
15746,note_off,0,0,0,,5,,,77,127
15749,note_on,3,0,0,,4,,,76,127
15749,note_on,0,0,0,,0,,,60,127
15868,note_off,119,0,0,,4,,,76,127
15871,note_on,3,0,0,,2,,,74,127
15990,note_off,119,0,0,,2,,,74,127
15990,note_off,0,0,0,,0,,,60,127
15993,note_on,3,0,0,,0,,,72,127
15993,note_on,0,0,0,,4,,,64,127
16233,note_off,240,0,0,,4,,,64,127
16236,note_on,3,0,0,,5,,,65,127
16322,note_off,86,0,0,,0,,,72,127
16476,note_off,154,0,0,,5,,,65,127
16479,note_on,3,0,0,,5,,,77,127
16479,note_on,0,0,0,,12,,,59,127
16719,note_off,240,0,0,,12,,,59,127
16719,note_off,0,0,0,,5,,,77,127
16722,note_on,3,0,0,,4,,,76,127
16722,note_on,0,0,0,,0,,,60,127
16841,note_off,119,0,0,,4,,,76,127
16844,note_on,3,0,0,,2,,,74,127
16963,note_off,119,0,0,,2,,,74,127
16963,note_off,0,0,0,,0,,,60,127
16966,note_on,3,0,0,,0,,,72,127
16966,note_on,0,0,0,,4,,,64,127
17155,note_off,189,0,0,,0,,,72,127
17206,note_off,51,0,0,,4,,,64,127
17209,note_on,3,0,0,,5,,,65,127
17449,note_off,240,0,0,,5,,,65,127
17452,note_on,3,0,0,,5,,,77,127
17452,note_on,0,0,0,,12,,,59,127
17692,note_off,240,0,0,,5,,,77,127
17695,note_on,3,0,0,,4,,,76,127
17746,note_off,51,0,0,,12,,,59,127
17910,note_off,164,0,0,,4,,,76,127
17938,note_on,28,0,0,,7,,,79,127
17938,note_on,0,0,0,,0,,,60,127
18178,note_off,240,0,0,,0,,,60,127
18178,note_off,0,0,0,,7,,,79,127
18181,note_on,3,0,0,,10,,,81,127
18181,note_on,0,0,0,,4,,,64,127
18239,note_off,58,0,0,,10,,,81,127
18242,note_on,3,0,0,,7,,,79,127
18300,note_off,58,0,0,,7,,,79,127
18303,note_on,3,0,0,,10,,,81,127
18361,note_off,58,0,0,,10,,,81,127
18364,note_on,3,0,0,,7,,,79,127
18422,note_off,58,0,0,,7,,,79,127
18422,note_off,0,0,0,,4,,,64,127
18425,note_on,3,0,0,,10,,,81,127
18425,note_on,0,0,0,,0,,,60,127
18483,note_off,58,0,0,,10,,,81,127
18486,note_on,3,0,0,,7,,,79,127
18544,note_off,58,0,0,,7,,,79,127
18547,note_on,3,0,0,,6,,,78,127
18605,note_off,58,0,0,,6,,,78,127
18608,note_on,3,0,0,,4,,,76,127
18666,note_off,58,0,0,,4,,,76,127
18669,note_on,3,0,0,,2,,,74,127
18789,note_off,120,0,0,,0,,,60,127
18909,note_off,120,0,0,,2,,,74,127
18912,note_on,3,0,0,,12,,,83,127
18912,note_on,0,0,0,,12,,,59,127
19152,note_off,240,0,0,,12,,,59,127
19152,note_off,0,0,0,,12,,,83,127
19155,note_on,3,0,0,,10,,,81,127
19155,note_on,0,0,0,,0,,,60,127
19395,note_off,240,0,0,,0,,,60,127
19398,note_on,3,0,0,,0,,,72,127
19398,note_on,0,0,0,,2,,,62,127
19459,note_off,61,0,0,,10,,,81,127
19638,note_off,179,0,0,,0,,,72,127
19641,note_on,3,0,0,,12,,,71,127
19761,note_off,120,0,0,,2,,,62,127
19862,note_off,101,0,0,,12,,,71,127
19883,note_on,21,0,0,,7,,,79,127
19883,note_on,0,0,0,,0,,,60,127
20123,note_off,240,0,0,,0,,,60,127
20123,note_off,0,0,0,,7,,,79,127
20126,note_on,3,0,0,,10,,,81,127
20126,note_on,0,0,0,,4,,,64,127
20184,note_off,58,0,0,,10,,,81,127
20187,note_on,3,0,0,,7,,,79,127
20245,note_off,58,0,0,,7,,,79,127
20248,note_on,3,0,0,,10,,,81,127
20306,note_off,58,0,0,,10,,,81,127
20309,note_on,3,0,0,,7,,,79,127
20367,note_off,58,0,0,,7,,,79,127
20367,note_off,0,0,0,,4,,,64,127
20370,note_on,3,0,0,,10,,,81,127
20370,note_on,0,0,0,,0,,,60,127
20428,note_off,58,0,0,,10,,,81,127
20431,note_on,3,0,0,,7,,,79,127
20489,note_off,58,0,0,,7,,,79,127
20492,note_on,3,0,0,,6,,,78,127
20550,note_off,58,0,0,,6,,,78,127
20553,note_on,3,0,0,,4,,,76,127
20611,note_off,58,0,0,,4,,,76,127
20614,note_on,3,0,0,,2,,,74,127
20734,note_off,120,0,0,,0,,,60,127
20854,note_off,120,0,0,,2,,,74,127
20857,note_on,3,0,0,,12,,,83,127
20857,note_on,0,0,0,,12,,,59,127
21097,note_off,240,0,0,,12,,,59,127
21097,note_off,0,0,0,,12,,,83,127
21100,note_on,3,0,0,,10,,,81,127
21100,note_on,0,0,0,,0,,,60,127
21340,note_off,240,0,0,,0,,,60,127
21343,note_on,3,0,0,,0,,,72,127
21343,note_on,0,0,0,,2,,,62,127
21492,note_off,149,0,0,,10,,,81,127
21570,note_off,78,0,0,,0,,,72,127
21583,note_off,13,0,0,,2,,,62,127
21596,note_on,13,0,0,,12,,,71,127
21596,note_on,0,0,0,,7,,,55,127
21596,note_on,0,0,0,,2,,,62,127
21715,note_off,119,0,0,,12,,,71,127
21718,note_on,3,0,0,,0,,,72,127
21837,note_off,119,0,0,,0,,,72,127
21837,note_off,0,0,0,,2,,,62,127
21837,note_off,0,0,0,,7,,,55,127
21840,note_on,3,0,0,,0,,,72,127
21840,note_on,0,0,0,,7,,,55,127
21840,note_on,0,0,0,,2,,,62,127
21959,note_off,119,0,0,,0,,,72,127
21962,note_on,3,0,0,,2,,,74,127
22081,note_off,119,0,0,,2,,,74,127
22081,note_off,0,0,0,,2,,,62,127
22081,note_off,0,0,0,,7,,,55,127
22084,note_on,3,0,0,,4,,,76,127
22084,note_on,0,0,0,,0,,,60,127
22084,note_on,0,0,0,,7,,,55,127
22203,note_off,119,0,0,,4,,,76,127
22206,note_on,3,0,0,,0,,,72,127
22325,note_off,119,0,0,,0,,,72,127
22325,note_off,0,0,0,,7,,,55,127
22325,note_off,0,0,0,,0,,,60,127
22328,note_on,3,0,0,,10,,,69,127
22328,note_on,0,0,0,,0,,,60,127
22328,note_on,0,0,0,,7,,,55,127
22447,note_off,119,0,0,,10,,,69,127
22450,note_on,3,0,0,,6,,,66,127
22569,note_off,119,0,0,,6,,,66,127
22569,note_off,0,0,0,,7,,,55,127
22569,note_off,0,0,0,,0,,,60,127
22578,note_on,9,0,0,,2,,,62,127
22578,note_on,0,0,0,,7,,,55,127
22578,note_on,0,0,0,,12,,,71,127
22697,note_off,119,0,0,,12,,,71,127
22700,note_on,3,0,0,,0,,,72,127
22819,note_off,119,0,0,,0,,,72,127
22819,note_off,0,0,0,,7,,,55,127
22819,note_off,0,0,0,,2,,,62,127
22822,note_on,3,0,0,,7,,,55,127
22822,note_on,0,0,0,,2,,,62,127
22822,note_on,0,0,0,,0,,,72,127
22941,note_off,119,0,0,,0,,,72,127
22944,note_on,3,0,0,,2,,,74,127
23063,note_off,119,0,0,,2,,,74,127
23063,note_off,0,0,0,,2,,,62,127
23063,note_off,0,0,0,,7,,,55,127
23066,note_on,3,0,0,,0,,,60,127
23066,note_on,0,0,0,,7,,,55,127
23066,note_on,0,0,0,,4,,,76,127
23185,note_off,119,0,0,,4,,,76,127
23188,note_on,3,0,0,,0,,,72,127
23307,note_off,119,0,0,,0,,,72,127
23307,note_off,0,0,0,,7,,,55,127
23307,note_off,0,0,0,,0,,,60,127
23310,note_on,3,0,0,,7,,,55,127
23310,note_on,0,0,0,,0,,,60,127
23310,note_on,0,0,0,,10,,,69,127
23429,note_off,119,0,0,,10,,,69,127
23432,note_on,3,0,0,,6,,,66,127
23551,note_off,119,0,0,,6,,,66,127
23551,note_off,0,0,0,,0,,,60,127
23551,note_off,0,0,0,,7,,,55,127
23554,note_on,3,0,0,,2,,,62,127
23554,note_on,0,0,0,,7,,,55,127
23554,note_on,0,0,0,,12,,,71,127
23673,note_off,119,0,0,,12,,,71,127
23676,note_on,3,0,0,,0,,,72,127
23795,note_off,119,0,0,,0,,,72,127
23795,note_off,0,0,0,,7,,,55,127
23795,note_off,0,0,0,,2,,,62,127
23798,note_on,3,0,0,,7,,,55,127
23798,note_on,0,0,0,,2,,,62,127
23798,note_on,0,0,0,,0,,,72,127
23917,note_off,119,0,0,,0,,,72,127
23920,note_on,3,0,0,,2,,,74,127
24039,note_off,119,0,0,,2,,,74,127
24039,note_off,0,0,0,,2,,,62,127
24039,note_off,0,0,0,,7,,,55,127
24042,note_on,3,0,0,,7,,,55,127
24042,note_on,0,0,0,,0,,,60,127
24042,note_on,0,0,0,,2,,,74,127
24161,note_off,119,0,0,,2,,,74,127
24164,note_on,3,0,0,,4,,,76,127
24283,note_off,119,0,0,,4,,,76,127
24283,note_off,0,0,0,,0,,,60,127
24283,note_off,0,0,0,,7,,,55,127
24286,note_on,3,0,0,,7,,,55,127
24286,note_on,0,0,0,,0,,,60,127
24286,note_on,0,0,0,,4,,,76,127
24405,note_off,119,0,0,,4,,,76,127
24408,note_on,3,0,0,,6,,,78,127
24527,note_off,119,0,0,,6,,,78,127
24527,note_off,0,0,0,,0,,,60,127
24527,note_off,0,0,0,,7,,,55,127
24530,note_on,3,0,0,,7,,,55,127
24530,note_on,0,0,0,,12,,,59,127
24530,note_on,0,0,0,,7,,,79,127
24649,note_off,119,0,0,,7,,,79,127
24652,note_on,3,0,0,,2,,,74,127
24771,note_off,119,0,0,,2,,,74,127
24771,note_off,0,0,0,,12,,,59,127
24771,note_off,0,0,0,,7,,,55,127
24774,note_on,3,0,0,,7,,,55,127
24774,note_on,0,0,0,,12,,,59,127
24774,note_on,0,0,0,,2,,,74,127
24893,note_off,119,0,0,,2,,,74,127
24896,note_on,3,0,0,,12,,,71,127
25015,note_off,119,0,0,,12,,,71,127
25015,note_off,0,0,0,,12,,,59,127
25015,note_off,0,0,0,,7,,,55,127
25018,note_on,3,0,0,,0,,,60,127
25018,note_on,0,0,0,,4,,,76,127
25137,note_off,119,0,0,,4,,,76,127
25140,note_on,3,0,0,,0,,,72,127
25259,note_off,119,0,0,,0,,,72,127
25259,note_off,0,0,0,,0,,,60,127
25262,note_on,3,0,0,,10,,,57,127
25262,note_on,0,0,0,,0,,,72,127
25381,note_off,119,0,0,,0,,,72,127
25384,note_on,3,0,0,,10,,,69,127
25503,note_off,119,0,0,,10,,,69,127
25503,note_off,0,0,0,,10,,,57,127
25506,note_on,3,0,0,,12,,,59,127
25506,note_on,0,0,0,,2,,,74,127
25625,note_off,119,0,0,,2,,,74,127
25628,note_on,3,0,0,,12,,,71,127
25747,note_off,119,0,0,,12,,,71,127
25747,note_off,0,0,0,,12,,,59,127
25750,note_on,3,0,0,,12,,,59,127
25750,note_on,0,0,0,,12,,,71,127
25869,note_off,119,0,0,,12,,,71,127
25872,note_on,3,0,0,,7,,,67,127
25991,note_off,119,0,0,,7,,,67,127
25991,note_off,0,0,0,,12,,,59,127
25994,note_on,3,0,0,,0,,,60,127
25994,note_on,0,0,0,,12,,,71,127
26052,note_off,58,0,0,,12,,,71,127
26055,note_on,3,0,0,,10,,,69,127
26113,note_off,58,0,0,,10,,,69,127
26116,note_on,3,0,0,,12,,,71,127
26174,note_off,58,0,0,,12,,,71,127
26177,note_on,3,0,0,,10,,,69,127
26235,note_off,58,0,0,,10,,,69,127
26235,note_off,0,0,0,,0,,,60,127
26238,note_on,3,0,0,,2,,,62,127
26238,note_on,0,0,0,,12,,,71,127
26296,note_off,58,0,0,,12,,,71,127
26299,note_on,3,0,0,,10,,,69,127
26357,note_off,58,0,0,,10,,,69,127
26360,note_on,3,0,0,,7,,,67,127
26418,note_off,58,0,0,,7,,,67,127
26421,note_on,3,0,0,,10,,,69,127
26455,note_off,34,0,0,,2,,,62,127
26482,note_on,27,0,0,,2,,,62,127
26482,note_on,0,0,0,,7,,,55,127
26482,note_on,0,0,0,,12,,,71,127
26503,note_off,21,0,0,,10,,,69,127
26600,note_off,97,0,0,,12,,,71,127
26603,note_on,3,0,0,,0,,,72,127
26722,note_off,119,0,0,,0,,,72,127
26722,note_off,0,0,0,,7,,,55,127
26722,note_off,0,0,0,,2,,,62,127
26725,note_on,3,0,0,,2,,,62,127
26725,note_on,0,0,0,,7,,,55,127
26725,note_on,0,0,0,,0,,,72,127
26844,note_off,119,0,0,,0,,,72,127
26847,note_on,3,0,0,,2,,,74,127
26966,note_off,119,0,0,,2,,,74,127
26966,note_off,0,0,0,,7,,,55,127
26966,note_off,0,0,0,,2,,,62,127
26969,note_on,3,0,0,,7,,,55,127
26969,note_on,0,0,0,,0,,,60,127
26969,note_on,0,0,0,,4,,,76,127
27088,note_off,119,0,0,,4,,,76,127
27091,note_on,3,0,0,,0,,,72,127
27210,note_off,119,0,0,,0,,,72,127
27210,note_off,0,0,0,,0,,,60,127
27210,note_off,0,0,0,,7,,,55,127
27213,note_on,3,0,0,,0,,,60,127
27213,note_on,0,0,0,,7,,,55,127
27213,note_on,0,0,0,,10,,,69,127
27332,note_off,119,0,0,,10,,,69,127
27335,note_on,3,0,0,,6,,,66,127
27436,note_off,101,0,0,,6,,,66,127
27454,note_off,18,0,0,,7,,,55,127
27454,note_off,0,0,0,,0,,,60,127
27457,note_on,3,0,0,,2,,,62,127
27457,note_on,0,0,0,,7,,,55,127
27457,note_on,0,0,0,,12,,,71,127
27576,note_off,119,0,0,,12,,,71,127
27579,note_on,3,0,0,,0,,,72,127
27698,note_off,119,0,0,,0,,,72,127
27698,note_off,0,0,0,,7,,,55,127
27698,note_off,0,0,0,,2,,,62,127
27701,note_on,3,0,0,,2,,,62,127
27701,note_on,0,0,0,,7,,,55,127
27701,note_on,0,0,0,,0,,,72,127
27820,note_off,119,0,0,,0,,,72,127
27823,note_on,3,0,0,,2,,,74,127
27942,note_off,119,0,0,,2,,,74,127
27942,note_off,0,0,0,,7,,,55,127
27942,note_off,0,0,0,,2,,,62,127
27945,note_on,3,0,0,,0,,,60,127
27945,note_on,0,0,0,,7,,,55,127
27945,note_on,0,0,0,,4,,,76,127
28064,note_off,119,0,0,,4,,,76,127
28067,note_on,3,0,0,,0,,,72,127
28186,note_off,119,0,0,,0,,,72,127
28186,note_off,0,0,0,,7,,,55,127
28186,note_off,0,0,0,,0,,,60,127
28189,note_on,3,0,0,,7,,,55,127
28189,note_on,0,0,0,,0,,,60,127
28189,note_on,0,0,0,,10,,,69,127
28308,note_off,119,0,0,,10,,,69,127
28311,note_on,3,0,0,,6,,,66,127
28430,note_off,119,0,0,,6,,,66,127
28430,note_off,0,0,0,,7,,,55,127
28443,note_on,13,0,0,,2,,,62,127
28443,note_on,0,0,0,,7,,,55,127
28443,note_on,0,0,0,,12,,,71,127
28444,note_off,1,0,0,,0,,,60,127
28561,note_off,117,0,0,,12,,,71,127
28564,note_on,3,0,0,,0,,,72,127
28683,note_off,119,0,0,,0,,,72,127
28683,note_off,0,0,0,,7,,,55,127
28683,note_off,0,0,0,,2,,,62,127
28686,note_on,3,0,0,,2,,,62,127
28686,note_on,0,0,0,,7,,,55,127
28686,note_on,0,0,0,,0,,,72,127
28805,note_off,119,0,0,,0,,,72,127
28808,note_on,3,0,0,,2,,,74,127
28927,note_off,119,0,0,,2,,,74,127
28927,note_off,0,0,0,,7,,,55,127
28927,note_off,0,0,0,,2,,,62,127
28930,note_on,3,0,0,,0,,,60,127
28930,note_on,0,0,0,,7,,,55,127
28930,note_on,0,0,0,,2,,,74,127
29049,note_off,119,0,0,,2,,,74,127
29052,note_on,3,0,0,,4,,,76,127
29171,note_off,119,0,0,,4,,,76,127
29171,note_off,0,0,0,,7,,,55,127
29171,note_off,0,0,0,,0,,,60,127
29174,note_on,3,0,0,,0,,,60,127
29174,note_on,0,0,0,,7,,,55,127
29174,note_on,0,0,0,,4,,,76,127
29293,note_off,119,0,0,,4,,,76,127
29296,note_on,3,0,0,,6,,,78,127
29415,note_off,119,0,0,,6,,,78,127
29415,note_off,0,0,0,,7,,,55,127
29415,note_off,0,0,0,,0,,,60,127
29418,note_on,3,0,0,,12,,,59,127
29418,note_on,0,0,0,,7,,,55,127
29418,note_on,0,0,0,,7,,,79,127
29537,note_off,119,0,0,,7,,,79,127
29540,note_on,3,0,0,,2,,,74,127
29659,note_off,119,0,0,,2,,,74,127
29659,note_off,0,0,0,,7,,,55,127
29659,note_off,0,0,0,,12,,,59,127
29662,note_on,3,0,0,,12,,,59,127
29662,note_on,0,0,0,,7,,,55,127
29662,note_on,0,0,0,,2,,,74,127
29781,note_off,119,0,0,,2,,,74,127
29784,note_on,3,0,0,,12,,,71,127
29903,note_off,119,0,0,,12,,,71,127
29903,note_off,0,0,0,,7,,,55,127
29903,note_off,0,0,0,,12,,,59,127
29906,note_on,3,0,0,,0,,,60,127
29906,note_on,0,0,0,,4,,,76,127
30025,note_off,119,0,0,,4,,,76,127
30028,note_on,3,0,0,,0,,,72,127
30147,note_off,119,0,0,,0,,,72,127
30147,note_off,0,0,0,,0,,,60,127
30150,note_on,3,0,0,,10,,,57,127
30150,note_on,0,0,0,,0,,,72,127
30269,note_off,119,0,0,,0,,,72,127
30272,note_on,3,0,0,,10,,,69,127
30391,note_off,119,0,0,,10,,,69,127
30391,note_off,0,0,0,,10,,,57,127
30394,note_on,3,0,0,,12,,,59,127
30394,note_on,0,0,0,,2,,,74,127
30513,note_off,119,0,0,,2,,,74,127
30516,note_on,3,0,0,,12,,,71,127
30635,note_off,119,0,0,,12,,,71,127
30635,note_off,0,0,0,,12,,,59,127
30638,note_on,3,0,0,,12,,,59,127
30638,note_on,0,0,0,,12,,,71,127
30757,note_off,119,0,0,,12,,,71,127
30760,note_on,3,0,0,,7,,,67,127
30879,note_off,119,0,0,,7,,,67,127
30879,note_off,0,0,0,,12,,,59,127
30882,note_on,3,0,0,,0,,,60,127
30882,note_on,0,0,0,,12,,,71,127
30940,note_off,58,0,0,,12,,,71,127
30943,note_on,3,0,0,,10,,,69,127
31001,note_off,58,0,0,,10,,,69,127
31004,note_on,3,0,0,,12,,,71,127
31062,note_off,58,0,0,,12,,,71,127
31065,note_on,3,0,0,,10,,,69,127
31123,note_off,58,0,0,,10,,,69,127
31123,note_off,0,0,0,,0,,,60,127
31126,note_on,3,0,0,,2,,,62,127
31126,note_on,0,0,0,,12,,,71,127
31184,note_off,58,0,0,,12,,,71,127
31187,note_on,3,0,0,,10,,,69,127
31245,note_off,58,0,0,,10,,,69,127
31248,note_on,3,0,0,,7,,,67,127
31306,note_off,58,0,0,,7,,,67,127
31309,note_on,3,0,0,,10,,,69,127
31367,note_off,58,0,0,,10,,,69,127
31367,note_off,0,0,0,,2,,,62,127
31390,note_on,23,0,0,,2,,,62,127
31390,note_on,0,0,0,,7,,,55,127
31511,note_on,121,0,0,,7,,,79,127
31630,note_off,119,0,0,,7,,,79,127
31630,note_off,0,0,0,,7,,,55,127
31630,note_off,0,0,0,,2,,,62,127
31633,note_on,3,0,0,,4,,,76,127
31633,note_on,0,0,0,,7,,,55,127
31633,note_on,0,0,0,,2,,,62,127
31752,note_off,119,0,0,,4,,,76,127
31755,note_on,3,0,0,,0,,,72,127
31874,note_off,119,0,0,,2,,,62,127
31874,note_off,0,0,0,,7,,,55,127
31877,note_on,3,0,0,,6,,,54,127
31877,note_on,0,0,0,,2,,,62,127
31996,note_off,119,0,0,,0,,,72,127
31999,note_on,3,0,0,,12,,,71,127
32118,note_off,119,0,0,,12,,,71,127
32118,note_off,0,0,0,,2,,,62,127
32118,note_off,0,0,0,,6,,,54,127
32121,note_on,3,0,0,,12,,,71,127
32121,note_on,0,0,0,,6,,,54,127
32121,note_on,0,0,0,,2,,,62,127
32240,note_off,119,0,0,,12,,,71,127
32243,note_on,3,0,0,,10,,,69,127
32362,note_off,119,0,0,,10,,,69,127
32362,note_off,0,0,0,,2,,,62,127
32362,note_off,0,0,0,,6,,,54,127
32365,note_on,3,0,0,,12,,,71,127
32365,note_on,0,0,0,,7,,,55,127
32365,note_on,0,0,0,,2,,,62,127
32486,note_on,121,0,0,,12,,,83,127
32605,note_off,119,0,0,,12,,,83,127
32605,note_off,0,0,0,,2,,,62,127
32605,note_off,0,0,0,,7,,,55,127
32605,note_off,0,0,0,,12,,,71,127
32608,note_on,3,0,0,,7,,,79,127
32608,note_on,0,0,0,,7,,,55,127
32608,note_on,0,0,0,,2,,,62,127
32727,note_off,119,0,0,,7,,,79,127
32730,note_on,3,0,0,,4,,,76,127
32849,note_off,119,0,0,,2,,,62,127
32849,note_off,0,0,0,,7,,,55,127
32852,note_on,3,0,0,,6,,,54,127
32852,note_on,0,0,0,,2,,,62,127
32971,note_off,119,0,0,,4,,,76,127
32974,note_on,3,0,0,,2,,,74,127
33093,note_off,119,0,0,,2,,,74,127
33093,note_off,0,0,0,,2,,,62,127
33093,note_off,0,0,0,,6,,,54,127
33096,note_on,3,0,0,,2,,,74,127
33096,note_on,0,0,0,,6,,,54,127
33096,note_on,0,0,0,,2,,,62,127
33215,note_off,119,0,0,,2,,,74,127
33218,note_on,3,0,0,,0,,,72,127
33337,note_off,119,0,0,,0,,,72,127
33337,note_off,0,0,0,,2,,,62,127
33337,note_off,0,0,0,,6,,,54,127
33340,note_on,3,0,0,,12,,,71,127
33340,note_on,0,0,0,,2,,,62,127
33340,note_on,0,0,0,,7,,,55,127
33459,note_off,119,0,0,,12,,,71,127
33462,note_on,3,0,0,,2,,,86,127
33581,note_off,119,0,0,,2,,,86,127
33581,note_off,0,0,0,,7,,,55,127
33581,note_off,0,0,0,,2,,,62,127
33584,note_on,3,0,0,,12,,,83,127
33584,note_on,0,0,0,,7,,,55,127
33584,note_on,0,0,0,,2,,,62,127
33703,note_off,119,0,0,,12,,,83,127
33706,note_on,3,0,0,,7,,,79,127
33825,note_off,119,0,0,,2,,,62,127
33825,note_off,0,0,0,,7,,,55,127
33828,note_on,3,0,0,,10,,,57,127
33828,note_on,0,0,0,,0,,,60,127
33947,note_off,119,0,0,,7,,,79,127
33950,note_on,3,0,0,,6,,,78,127
34069,note_off,119,0,0,,6,,,78,127
34069,note_off,0,0,0,,0,,,60,127
34069,note_off,0,0,0,,10,,,57,127
34072,note_on,3,0,0,,6,,,78,127
34072,note_on,0,0,0,,10,,,57,127
34072,note_on,0,0,0,,0,,,60,127
34191,note_off,119,0,0,,6,,,78,127
34194,note_on,3,0,0,,4,,,76,127
34313,note_off,119,0,0,,4,,,76,127
34313,note_off,0,0,0,,0,,,60,127
34313,note_off,0,0,0,,10,,,57,127
34316,note_on,3,0,0,,2,,,74,127
34316,note_on,0,0,0,,12,,,59,127
34435,note_off,119,0,0,,2,,,74,127
34438,note_on,3,0,0,,12,,,83,127
34557,note_off,119,0,0,,12,,,83,127
34557,note_off,0,0,0,,12,,,59,127
34560,note_on,3,0,0,,4,,,76,127
34560,note_on,0,0,0,,0,,,60,127
34679,note_off,119,0,0,,4,,,76,127
34682,note_on,3,0,0,,0,,,84,127
34801,note_off,119,0,0,,0,,,84,127
34801,note_off,0,0,0,,0,,,60,127
34804,note_on,3,0,0,,12,,,83,127
34804,note_on,0,0,0,,2,,,62,127
35047,note_on,243,0,0,,2,,,50,127
35108,note_off,61,0,0,,12,,,83,127
35108,note_on,0,0,0,,10,,,81,127
35166,note_off,58,0,0,,10,,,81,127
35169,note_on,3,0,0,,12,,,83,127
35227,note_off,58,0,0,,12,,,83,127
35230,note_on,3,0,0,,10,,,81,127
35288,note_off,58,0,0,,2,,,50,127
35308,note_off,20,0,0,,10,,,81,127
35309,note_off,1,0,0,,2,,,62,127
35315,note_on,6,0,0,,2,,,62,127
35315,note_on,0,0,0,,7,,,55,127
35436,note_on,121,0,0,,7,,,79,127
35555,note_off,119,0,0,,7,,,79,127
35555,note_off,0,0,0,,7,,,55,127
35555,note_off,0,0,0,,2,,,62,127
35558,note_on,3,0,0,,2,,,62,127
35558,note_on,0,0,0,,7,,,55,127
35558,note_on,0,0,0,,4,,,76,127
35677,note_off,119,0,0,,4,,,76,127
35680,note_on,3,0,0,,0,,,72,127
35799,note_off,119,0,0,,7,,,55,127
35799,note_off,0,0,0,,2,,,62,127
35802,note_on,3,0,0,,6,,,54,127
35802,note_on,0,0,0,,2,,,62,127
35921,note_off,119,0,0,,0,,,72,127
35924,note_on,3,0,0,,12,,,71,127
36043,note_off,119,0,0,,12,,,71,127
36043,note_off,0,0,0,,2,,,62,127
36043,note_off,0,0,0,,6,,,54,127
36046,note_on,3,0,0,,2,,,62,127
36046,note_on,0,0,0,,6,,,54,127
36046,note_on,0,0,0,,12,,,71,127
36165,note_off,119,0,0,,12,,,71,127
36168,note_on,3,0,0,,10,,,69,127
36287,note_off,119,0,0,,10,,,69,127
36287,note_off,0,0,0,,6,,,54,127
36287,note_off,0,0,0,,2,,,62,127
36290,note_on,3,0,0,,2,,,62,127
36290,note_on,0,0,0,,7,,,55,127
36290,note_on,0,0,0,,12,,,71,127
36411,note_on,121,0,0,,12,,,83,127
36530,note_off,119,0,0,,12,,,83,127
36530,note_off,0,0,0,,12,,,71,127
36530,note_off,0,0,0,,7,,,55,127
36530,note_off,0,0,0,,2,,,62,127
36533,note_on,3,0,0,,2,,,62,127
36533,note_on,0,0,0,,7,,,55,127
36533,note_on,0,0,0,,7,,,79,127
36652,note_off,119,0,0,,7,,,79,127
36655,note_on,3,0,0,,4,,,76,127
36774,note_off,119,0,0,,7,,,55,127
36774,note_off,0,0,0,,2,,,62,127
36777,note_on,3,0,0,,6,,,54,127
36777,note_on,0,0,0,,2,,,62,127
36896,note_off,119,0,0,,4,,,76,127
36899,note_on,3,0,0,,2,,,74,127
37018,note_off,119,0,0,,2,,,74,127
37018,note_off,0,0,0,,2,,,62,127
37018,note_off,0,0,0,,6,,,54,127
37021,note_on,3,0,0,,2,,,62,127
37021,note_on,0,0,0,,6,,,54,127
37021,note_on,0,0,0,,2,,,74,127
37140,note_off,119,0,0,,2,,,74,127
37143,note_on,3,0,0,,0,,,72,127
37262,note_off,119,0,0,,0,,,72,127
37262,note_off,0,0,0,,6,,,54,127
37262,note_off,0,0,0,,2,,,62,127
37265,note_on,3,0,0,,2,,,62,127
37265,note_on,0,0,0,,7,,,55,127
37265,note_on,0,0,0,,12,,,71,127
37384,note_off,119,0,0,,12,,,71,127
37387,note_on,3,0,0,,2,,,86,127
37506,note_off,119,0,0,,2,,,86,127
37506,note_off,0,0,0,,7,,,55,127
37506,note_off,0,0,0,,2,,,62,127
37509,note_on,3,0,0,,2,,,62,127
37509,note_on,0,0,0,,7,,,55,127
37509,note_on,0,0,0,,12,,,83,127
37628,note_off,119,0,0,,12,,,83,127
37631,note_on,3,0,0,,7,,,79,127
37750,note_off,119,0,0,,7,,,55,127
37750,note_off,0,0,0,,2,,,62,127
37753,note_on,3,0,0,,0,,,60,127
37753,note_on,0,0,0,,10,,,57,127
37872,note_off,119,0,0,,7,,,79,127
37875,note_on,3,0,0,,6,,,78,127
37994,note_off,119,0,0,,6,,,78,127
37994,note_off,0,0,0,,10,,,57,127
37994,note_off,0,0,0,,0,,,60,127
37997,note_on,3,0,0,,0,,,60,127
37997,note_on,0,0,0,,10,,,57,127
37997,note_on,0,0,0,,6,,,78,127
38116,note_off,119,0,0,,6,,,78,127
38119,note_on,3,0,0,,4,,,76,127
38238,note_off,119,0,0,,4,,,76,127
38238,note_off,0,0,0,,10,,,57,127
38238,note_off,0,0,0,,0,,,60,127
38241,note_on,3,0,0,,12,,,59,127
38241,note_on,0,0,0,,2,,,74,127
38360,note_off,119,0,0,,2,,,74,127
38363,note_on,3,0,0,,12,,,83,127
38482,note_off,119,0,0,,12,,,83,127
38482,note_off,0,0,0,,12,,,59,127
38485,note_on,3,0,0,,0,,,60,127
38485,note_on,0,0,0,,4,,,76,127
38604,note_off,119,0,0,,4,,,76,127
38607,note_on,3,0,0,,0,,,84,127
38726,note_off,119,0,0,,0,,,84,127
38726,note_off,0,0,0,,0,,,60,127
38729,note_on,3,0,0,,2,,,62,127
38729,note_on,0,0,0,,12,,,83,127
38972,note_on,243,0,0,,2,,,50,127
39033,note_off,61,0,0,,12,,,83,127
39033,note_on,0,0,0,,10,,,81,127
39091,note_off,58,0,0,,10,,,81,127
39094,note_on,3,0,0,,12,,,83,127
39152,note_off,58,0,0,,12,,,83,127
39155,note_on,3,0,0,,10,,,81,127
39213,note_off,58,0,0,,10,,,81,127
39214,note_off,1,0,0,,2,,,62,127
39225,note_on,11,0,0,,2,,,62,127
39344,note_off,119,0,0,,2,,,62,127
39347,note_on,3,0,0,,2,,,74,127
39456,note_off,109,0,0,,2,,,50,127
39466,note_off,10,0,0,,2,,,74,127
39469,note_on,3,0,0,,0,,,60,127
39469,note_on,0,0,0,,4,,,64,127
39588,note_off,119,0,0,,4,,,64,127
39591,note_on,3,0,0,,0,,,72,127
39710,note_off,119,0,0,,0,,,72,127
39710,note_off,0,0,0,,0,,,60,127
39713,note_on,3,0,0,,2,,,62,127
39713,note_on,0,0,0,,12,,,71,127
39956,note_on,243,0,0,,2,,,50,127
40017,note_off,61,0,0,,12,,,71,127
40017,note_on,0,0,0,,10,,,69,127
40075,note_off,58,0,0,,10,,,69,127
40078,note_on,3,0,0,,12,,,71,127
40136,note_off,58,0,0,,12,,,71,127
40139,note_on,3,0,0,,10,,,69,127
40197,note_off,58,0,0,,10,,,69,127
40197,note_off,0,0,0,,2,,,50,127
40210,note_on,13,0,0,,12,,,47,127
40210,note_on,0,0,0,,2,,,74,127
40213,note_off,3,0,0,,2,,,62,127
40329,note_off,116,0,0,,2,,,74,127
40332,note_on,3,0,0,,7,,,79,127
40451,note_off,119,0,0,,7,,,79,127
40451,note_off,0,0,0,,12,,,47,127
40454,note_on,3,0,0,,0,,,48,127
40454,note_on,0,0,0,,7,,,67,127
40573,note_off,119,0,0,,7,,,67,127
40576,note_on,3,0,0,,4,,,76,127
40695,note_off,119,0,0,,4,,,76,127
40695,note_off,0,0,0,,0,,,48,127
40698,note_on,3,0,0,,2,,,50,127
40698,note_on,0,0,0,,12,,,71,127
40938,note_off,240,0,0,,12,,,71,127
40941,note_on,3,0,0,,2,,,38,127
40941,note_on,0,0,0,,12,,,71,127
40999,note_off,58,0,0,,12,,,71,127
41002,note_on,3,0,0,,10,,,69,127
41060,note_off,58,0,0,,10,,,69,127
41063,note_on,3,0,0,,12,,,71,127
41121,note_off,58,0,0,,12,,,71,127
41124,note_on,3,0,0,,10,,,69,127
41182,note_off,58,0,0,,10,,,69,127
41182,note_off,0,0,0,,2,,,38,127
41183,note_off,1,0,0,,2,,,50,127
41184,note_on,1,0,0,,7,,,43,127
41184,note_on,0,0,0,,7,,,67,127
41386,note_off,202,0,0,,7,,,67,127
41457,note_on,71,0,0,,2,,,74,127
41547,note_off,90,0,0,,7,,,43,127
41697,note_off,150,0,0,,2,,,74,127
41700,note_on,3,0,0,,12,,,71,127
41940,note_off,240,0,0,,12,,,71,127
41943,note_on,3,0,0,,0,,,72,127
42183,note_off,240,0,0,,0,,,72,127
42186,note_on,3,0,0,,2,,,74,127
42429,note_on,243,0,0,,7,,,67,127
42669,note_off,240,0,0,,7,,,67,127
42672,note_on,3,0,0,,5,,,65,127
42819,note_off,147,0,0,,2,,,74,127
42912,note_off,93,0,0,,5,,,65,127
42915,note_on,3,0,0,,4,,,76,127
42915,note_on,0,0,0,,4,,,64,127
43155,note_off,240,0,0,,4,,,64,127
43155,note_off,0,0,0,,4,,,76,127
43158,note_on,3,0,0,,7,,,79,127
43158,note_on,0,0,0,,2,,,62,127
43216,note_off,58,0,0,,7,,,79,127
43219,note_on,3,0,0,,5,,,77,127
43277,note_off,58,0,0,,5,,,77,127
43280,note_on,3,0,0,,7,,,79,127
43338,note_off,58,0,0,,7,,,79,127
43341,note_on,3,0,0,,5,,,77,127
43399,note_off,58,0,0,,2,,,62,127
43402,note_on,3,0,0,,2,,,62,127
43521,note_off,119,0,0,,5,,,77,127
43524,note_on,3,0,0,,4,,,76,127
43582,note_off,58,0,0,,4,,,76,127
43585,note_on,3,0,0,,2,,,74,127
43643,note_off,58,0,0,,2,,,74,127
43643,note_off,0,0,0,,2,,,62,127
43646,note_on,3,0,0,,5,,,77,127
43646,note_on,0,0,0,,0,,,60,127
43704,note_off,58,0,0,,5,,,77,127
43707,note_on,3,0,0,,4,,,76,127
43765,note_off,58,0,0,,4,,,76,127
43768,note_on,3,0,0,,5,,,77,127
43826,note_off,58,0,0,,5,,,77,127
43829,note_on,3,0,0,,4,,,76,127
43887,note_off,58,0,0,,0,,,60,127
43890,note_on,3,0,0,,0,,,60,127
44009,note_off,119,0,0,,4,,,76,127
44012,note_on,3,0,0,,2,,,74,127
44070,note_off,58,0,0,,2,,,74,127
44073,note_on,3,0,0,,0,,,72,127
44131,note_off,58,0,0,,0,,,72,127
44131,note_off,0,0,0,,0,,,60,127
44134,note_on,3,0,0,,4,,,76,127
44134,note_on,0,0,0,,12,,,59,127
44192,note_off,58,0,0,,4,,,76,127
44195,note_on,3,0,0,,2,,,74,127
44253,note_off,58,0,0,,2,,,74,127
44256,note_on,3,0,0,,4,,,76,127
44314,note_off,58,0,0,,4,,,76,127
44317,note_on,3,0,0,,2,,,74,127
44375,note_off,58,0,0,,12,,,59,127
44378,note_on,3,0,0,,12,,,59,127
44497,note_off,119,0,0,,2,,,74,127
44500,note_on,3,0,0,,0,,,72,127
44558,note_off,58,0,0,,0,,,72,127
44561,note_on,3,0,0,,12,,,71,127
44619,note_off,58,0,0,,12,,,71,127
44619,note_off,0,0,0,,12,,,59,127
44622,note_on,3,0,0,,2,,,74,127
44622,note_on,0,0,0,,10,,,57,127
44680,note_off,58,0,0,,2,,,74,127
44683,note_on,3,0,0,,0,,,72,127
44741,note_off,58,0,0,,0,,,72,127
44744,note_on,3,0,0,,2,,,74,127
44802,note_off,58,0,0,,2,,,74,127
44805,note_on,3,0,0,,0,,,72,127
44863,note_off,58,0,0,,10,,,57,127
44866,note_on,3,0,0,,10,,,57,127
44985,note_off,119,0,0,,0,,,72,127
44988,note_on,3,0,0,,2,,,74,127
45046,note_off,58,0,0,,2,,,74,127
45049,note_on,3,0,0,,4,,,76,127
45107,note_off,58,0,0,,4,,,76,127
45107,note_off,0,0,0,,10,,,57,127
45110,note_on,3,0,0,,5,,,77,127
45110,note_on,0,0,0,,2,,,50,127
45188,note_off,78,0,0,,5,,,77,127
45191,note_on,3,0,0,,4,,,76,127
45269,note_off,78,0,0,,4,,,76,127
45272,note_on,3,0,0,,2,,,74,127
45350,note_off,78,0,0,,2,,,74,127
45350,note_off,0,0,0,,2,,,50,127
45353,note_on,3,0,0,,0,,,72,127
45353,note_on,0,0,0,,2,,,50,127
45431,note_off,78,0,0,,0,,,72,127
45434,note_on,3,0,0,,12,,,71,127
45512,note_off,78,0,0,,12,,,71,127
45515,note_on,3,0,0,,10,,,69,127
45593,note_off,78,0,0,,10,,,69,127
45593,note_off,0,0,0,,2,,,50,127
45596,note_on,3,0,0,,8,,,68,127
45596,note_on,0,0,0,,4,,,52,127
45836,note_off,240,0,0,,4,,,52,127
45836,note_off,0,0,0,,8,,,68,127
45839,note_on,3,0,0,,12,,,71,127
45839,note_on,0,0,0,,5,,,53,127
45897,note_off,58,0,0,,12,,,71,127
45900,note_on,3,0,0,,10,,,69,127
45958,note_off,58,0,0,,10,,,69,127
45961,note_on,3,0,0,,8,,,68,127
46019,note_off,58,0,0,,8,,,68,127
46022,note_on,3,0,0,,10,,,69,127
46078,note_off,56,0,0,,10,,,69,127
46083,note_on,5,0,0,,10,,,69,127
46203,note_off,120,0,0,,5,,,53,127
46334,note_off,131,0,0,,10,,,69,127
46335,note_on,1,0,0,,12,,,71,127
46338,note_on,3,0,0,,4,,,52,127
46575,note_off,237,0,0,,12,,,71,127
46578,note_off,3,0,0,,4,,,52,127
46588,note_on,10,0,0,,6,,,54,127
46828,note_off,240,0,0,,6,,,54,127
46831,note_on,3,0,0,,8,,,56,127
46831,note_on,0,0,0,,4,,,76,127
47046,note_off,215,0,0,,8,,,56,127
47071,note_off,25,0,0,,4,,,76,127
47074,note_on,3,0,0,,4,,,76,127
47193,note_off,119,0,0,,4,,,76,127
47196,note_on,3,0,0,,0,,,72,127
47315,note_off,119,0,0,,0,,,72,127
47318,note_on,3,0,0,,0,,,60,127
47318,note_on,0,0,0,,10,,,57,127
47318,note_on,0,0,0,,0,,,72,127
47558,note_off,240,0,0,,10,,,57,127
47558,note_off,0,0,0,,0,,,60,127
47561,note_on,3,0,0,,0,,,60,127
47561,note_on,0,0,0,,10,,,57,127
47801,note_off,240,0,0,,10,,,57,127
47801,note_off,0,0,0,,0,,,60,127
47801,note_off,0,0,0,,0,,,72,127
47804,note_on,3,0,0,,10,,,57,127
47804,note_on,0,0,0,,0,,,60,127
47804,note_on,0,0,0,,4,,,76,127
48044,note_off,240,0,0,,4,,,76,127
48047,note_on,3,0,0,,4,,,76,127
48166,note_off,119,0,0,,4,,,76,127
48167,note_off,1,0,0,,0,,,60,127
48167,note_off,0,0,0,,10,,,57,127
48168,note_on,1,0,0,,12,,,71,127
48287,note_off,119,0,0,,12,,,71,127
48290,note_on,3,0,0,,12,,,59,127
48290,note_on,0,0,0,,8,,,56,127
48290,note_on,0,0,0,,12,,,71,127
48530,note_off,240,0,0,,8,,,56,127
48530,note_off,0,0,0,,12,,,59,127
48533,note_on,3,0,0,,12,,,59,127
48533,note_on,0,0,0,,8,,,56,127
48745,note_off,212,0,0,,12,,,71,127
48773,note_off,28,0,0,,8,,,56,127
48773,note_off,0,0,0,,12,,,59,127
48786,note_on,13,0,0,,8,,,56,127
48786,note_on,0,0,0,,12,,,59,127
48786,note_on,0,0,0,,4,,,76,127
49026,note_off,240,0,0,,4,,,76,127
49029,note_on,3,0,0,,4,,,76,127
49107,note_off,78,0,0,,4,,,76,127
49110,note_on,3,0,0,,2,,,74,127
49149,note_off,39,0,0,,12,,,59,127
49149,note_off,0,0,0,,8,,,56,127
49188,note_off,39,0,0,,2,,,74,127
49191,note_on,3,0,0,,0,,,72,127
49269,note_off,78,0,0,,0,,,72,127
49272,note_on,3,0,0,,10,,,57,127
49272,note_on,0,0,0,,2,,,74,127
49350,note_off,78,0,0,,2,,,74,127
49353,note_on,3,0,0,,0,,,72,127
49431,note_off,78,0,0,,0,,,72,127
49434,note_on,3,0,0,,12,,,71,127
49512,note_off,78,0,0,,12,,,71,127
49512,note_off,0,0,0,,10,,,57,127
49515,note_on,3,0,0,,12,,,59,127
49515,note_on,0,0,0,,0,,,72,127
49593,note_off,78,0,0,,0,,,72,127
49596,note_on,3,0,0,,12,,,71,127
49674,note_off,78,0,0,,12,,,71,127
49677,note_on,3,0,0,,10,,,69,127
49755,note_off,78,0,0,,10,,,69,127
49755,note_off,0,0,0,,12,,,59,127
49758,note_on,3,0,0,,0,,,60,127
49758,note_on,0,0,0,,12,,,71,127
49836,note_off,78,0,0,,12,,,71,127
49839,note_on,3,0,0,,10,,,69,127
49917,note_off,78,0,0,,10,,,69,127
49920,note_on,3,0,0,,7,,,67,127
49998,note_off,78,0,0,,7,,,67,127
49998,note_off,0,0,0,,0,,,60,127
50001,note_on,3,0,0,,2,,,62,127
50001,note_on,0,0,0,,10,,,69,127
50059,note_off,58,0,0,,10,,,69,127
50062,note_on,3,0,0,,7,,,67,127
50120,note_off,58,0,0,,7,,,67,127
50123,note_on,3,0,0,,10,,,69,127
50181,note_off,58,0,0,,10,,,69,127
50184,note_on,3,0,0,,7,,,67,127
50242,note_off,58,0,0,,7,,,67,127
50245,note_on,3,0,0,,2,,,50,127
50245,note_on,0,0,0,,5,,,65,127
50485,note_off,240,0,0,,2,,,50,127
50486,note_off,1,0,0,,2,,,62,127
50487,note_on,1,0,0,,4,,,52,127
50548,note_off,61,0,0,,5,,,65,127
50727,note_off,179,0,0,,4,,,52,127
50730,note_on,3,0,0,,5,,,53,127
50730,note_on,0,0,0,,2,,,74,127
50970,note_off,240,0,0,,2,,,74,127
50973,note_on,3,0,0,,2,,,74,127
51051,note_off,78,0,0,,2,,,74,127
51054,note_on,3,0,0,,0,,,72,127
51093,note_off,39,0,0,,5,,,53,127
51132,note_off,39,0,0,,0,,,72,127
51135,note_on,3,0,0,,12,,,71,127
51213,note_off,78,0,0,,12,,,71,127
51216,note_on,3,0,0,,7,,,55,127
51216,note_on,0,0,0,,0,,,72,127
51294,note_off,78,0,0,,0,,,72,127
51297,note_on,3,0,0,,12,,,71,127
51375,note_off,78,0,0,,12,,,71,127
51378,note_on,3,0,0,,10,,,69,127
51456,note_off,78,0,0,,10,,,69,127
51456,note_off,0,0,0,,7,,,55,127
51459,note_on,3,0,0,,10,,,57,127
51459,note_on,0,0,0,,12,,,71,127
51537,note_off,78,0,0,,12,,,71,127
51540,note_on,3,0,0,,10,,,69,127
51618,note_off,78,0,0,,10,,,69,127
51621,note_on,3,0,0,,7,,,67,127
51699,note_off,78,0,0,,7,,,67,127
51699,note_off,0,0,0,,10,,,57,127
51702,note_on,3,0,0,,12,,,59,127
51702,note_on,0,0,0,,10,,,69,127
51780,note_off,78,0,0,,10,,,69,127
51783,note_on,3,0,0,,7,,,67,127
51861,note_off,78,0,0,,7,,,67,127
51864,note_on,3,0,0,,5,,,65,127
51942,note_off,78,0,0,,5,,,65,127
51942,note_off,0,0,0,,12,,,59,127
51945,note_on,3,0,0,,0,,,60,127
51945,note_on,0,0,0,,7,,,67,127
52003,note_off,58,0,0,,7,,,67,127
52006,note_on,3,0,0,,5,,,65,127
52064,note_off,58,0,0,,5,,,65,127
52067,note_on,3,0,0,,7,,,67,127
52125,note_off,58,0,0,,7,,,67,127
52128,note_on,3,0,0,,5,,,65,127
52186,note_off,58,0,0,,5,,,65,127
52189,note_on,3,0,0,,0,,,48,127
52189,note_on,0,0,0,,4,,,64,127
52429,note_off,240,0,0,,0,,,48,127
52430,note_off,1,0,0,,0,,,60,127
52431,note_on,1,0,0,,0,,,48,127
52551,note_off,120,0,0,,4,,,64,127
52671,note_off,120,0,0,,0,,,48,127
52684,note_on,13,0,0,,0,,,48,127
52684,note_on,0,0,0,,4,,,64,127
52924,note_off,240,0,0,,4,,,64,127
52927,note_on,3,0,0,,7,,,79,127
53047,note_off,120,0,0,,0,,,48,127
53167,note_off,120,0,0,,7,,,79,127
53170,note_on,3,0,0,,0,,,48,127
53170,note_on,0,0,0,,4,,,76,127
53410,note_off,240,0,0,,4,,,76,127
53410,note_off,0,0,0,,0,,,48,127
53413,note_on,3,0,0,,2,,,50,127
53413,note_on,0,0,0,,11,,,70,127
53653,note_off,240,0,0,,11,,,70,127
53653,note_off,0,0,0,,2,,,50,127
53656,note_on,3,0,0,,4,,,52,127
53656,note_on,0,0,0,,7,,,67,127
53896,note_off,240,0,0,,7,,,67,127
53899,note_on,3,0,0,,8,,,68,127
54019,note_off,120,0,0,,4,,,52,127
54139,note_off,120,0,0,,8,,,68,127
54142,note_on,3,0,0,,5,,,53,127
54142,note_on,0,0,0,,10,,,69,127
54382,note_off,240,0,0,,5,,,53,127
54385,note_on,3,0,0,,5,,,53,127
54597,note_off,212,0,0,,10,,,69,127
54625,note_off,28,0,0,,5,,,53,127
54628,note_on,3,0,0,,4,,,52,127
54628,note_on,0,0,0,,10,,,69,127
54868,note_off,240,0,0,,10,,,69,127
54871,note_on,3,0,0,,10,,,81,127
54991,note_off,120,0,0,,4,,,52,127
55111,note_off,120,0,0,,10,,,81,127
55114,note_on,3,0,0,,2,,,50,127
55114,note_on,0,0,0,,6,,,78,127
55354,note_off,240,0,0,,6,,,78,127
55354,note_off,0,0,0,,2,,,50,127
55357,note_on,3,0,0,,4,,,52,127
55357,note_on,0,0,0,,0,,,72,127
55597,note_off,240,0,0,,0,,,72,127
55597,note_off,0,0,0,,4,,,52,127
55600,note_on,3,0,0,,6,,,54,127
55600,note_on,0,0,0,,10,,,69,127
55834,note_off,234,0,0,,10,,,69,127
55843,note_on,9,0,0,,10,,,69,127
55963,note_off,120,0,0,,6,,,54,127
56096,note_off,133,0,0,,10,,,69,127
56097,note_on,1,0,0,,12,,,71,127
56098,note_on,1,0,0,,7,,,55,127
56348,note_on,250,0,0,,10,,,57,127
56364,note_off,16,0,0,,7,,,55,127
56374,note_off,10,0,0,,12,,,71,127
56587,note_off,213,0,0,,10,,,57,127
56590,note_on,3,0,0,,7,,,79,127
56590,note_on,0,0,0,,12,,,59,127
56830,note_off,240,0,0,,12,,,59,127
56830,note_off,0,0,0,,7,,,79,127
56833,note_on,3,0,0,,7,,,79,127
56952,note_off,119,0,0,,7,,,79,127
56955,note_on,3,0,0,,4,,,76,127
57074,note_off,119,0,0,,4,,,76,127
57077,note_on,3,0,0,,4,,,76,127
57077,note_on,0,0,0,,4,,,64,127
57077,note_on,0,0,0,,0,,,60,127
57317,note_off,240,0,0,,0,,,60,127
57317,note_off,0,0,0,,4,,,64,127
57320,note_on,3,0,0,,4,,,64,127
57320,note_on,0,0,0,,0,,,60,127
57560,note_off,240,0,0,,0,,,60,127
57560,note_off,0,0,0,,4,,,64,127
57560,note_off,0,0,0,,4,,,76,127
57563,note_on,3,0,0,,7,,,79,127
57563,note_on,0,0,0,,4,,,64,127
57563,note_on,0,0,0,,0,,,60,127
57803,note_off,240,0,0,,7,,,79,127
57806,note_on,3,0,0,,10,,,81,127
57806,note_on,0,0,0,,7,,,79,127
57884,note_off,78,0,0,,7,,,79,127
57884,note_off,0,0,0,,10,,,81,127
57887,note_on,3,0,0,,5,,,77,127
57926,note_off,39,0,0,,0,,,60,127
57926,note_off,0,0,0,,4,,,64,127
57965,note_off,39,0,0,,5,,,77,127
57968,note_on,3,0,0,,4,,,76,127
58046,note_off,78,0,0,,4,,,76,127
58049,note_on,3,0,0,,2,,,74,127
58049,note_on,0,0,0,,2,,,62,127
58049,note_on,0,0,0,,12,,,59,127
58289,note_off,240,0,0,,12,,,59,127
58289,note_off,0,0,0,,2,,,62,127
58292,note_on,3,0,0,,2,,,62,127
58292,note_on,0,0,0,,12,,,59,127
58532,note_off,240,0,0,,12,,,59,127
58532,note_off,0,0,0,,2,,,62,127
58532,note_off,0,0,0,,2,,,74,127
58545,note_on,13,0,0,,2,,,74,127
58545,note_on,0,0,0,,2,,,62,127
58545,note_on,0,0,0,,12,,,59,127
58785,note_off,240,0,0,,12,,,59,127
58785,note_off,0,0,0,,2,,,62,127
58785,note_off,0,0,0,,2,,,74,127
58798,note_on,13,0,0,,0,,,60,127
58798,note_on,0,0,0,,7,,,67,127
58798,note_on,0,0,0,,4,,,76,127
58917,note_off,119,0,0,,4,,,76,127
58920,note_on,3,0,0,,5,,,77,127
59039,note_off,119,0,0,,5,,,77,127
59039,note_off,0,0,0,,7,,,67,127
59039,note_off,0,0,0,,0,,,60,127
59042,note_on,3,0,0,,7,,,67,127
59042,note_on,0,0,0,,0,,,60,127
59042,note_on,0,0,0,,5,,,77,127
59161,note_off,119,0,0,,5,,,77,127
59164,note_on,3,0,0,,7,,,79,127
59283,note_off,119,0,0,,7,,,79,127
59283,note_off,0,0,0,,0,,,60,127
59283,note_off,0,0,0,,7,,,67,127
59286,note_on,3,0,0,,0,,,60,127
59286,note_on,0,0,0,,5,,,65,127
59286,note_on,0,0,0,,10,,,81,127
59405,note_off,119,0,0,,10,,,81,127
59408,note_on,3,0,0,,5,,,77,127
59527,note_off,119,0,0,,5,,,77,127
59527,note_off,0,0,0,,5,,,65,127
59527,note_off,0,0,0,,0,,,60,127
59530,note_on,3,0,0,,5,,,65,127
59530,note_on,0,0,0,,0,,,60,127
59530,note_on,0,0,0,,2,,,74,127
59649,note_off,119,0,0,,2,,,74,127
59652,note_on,3,0,0,,12,,,71,127
59771,note_off,119,0,0,,12,,,71,127
59771,note_off,0,0,0,,0,,,60,127
59771,note_off,0,0,0,,5,,,65,127
59774,note_on,3,0,0,,7,,,67,127
59774,note_on,0,0,0,,0,,,60,127
59774,note_on,0,0,0,,4,,,76,127
59893,note_off,119,0,0,,4,,,76,127
59896,note_on,3,0,0,,5,,,77,127
60015,note_off,119,0,0,,5,,,77,127
60015,note_off,0,0,0,,0,,,60,127
60015,note_off,0,0,0,,7,,,67,127
60018,note_on,3,0,0,,0,,,60,127
60018,note_on,0,0,0,,7,,,67,127
60018,note_on,0,0,0,,5,,,77,127
60137,note_off,119,0,0,,5,,,77,127
60140,note_on,3,0,0,,7,,,79,127
60259,note_off,119,0,0,,7,,,79,127
60259,note_off,0,0,0,,7,,,67,127
60259,note_off,0,0,0,,0,,,60,127
60262,note_on,3,0,0,,0,,,60,127
60262,note_on,0,0,0,,5,,,65,127
60262,note_on,0,0,0,,10,,,81,127
60381,note_off,119,0,0,,10,,,81,127
60384,note_on,3,0,0,,5,,,77,127
60503,note_off,119,0,0,,5,,,77,127
60503,note_off,0,0,0,,5,,,65,127
60503,note_off,0,0,0,,0,,,60,127
60506,note_on,3,0,0,,0,,,60,127
60506,note_on,0,0,0,,5,,,65,127
60506,note_on,0,0,0,,2,,,74,127
60625,note_off,119,0,0,,2,,,74,127
60628,note_on,3,0,0,,12,,,71,127
60747,note_off,119,0,0,,12,,,71,127
60747,note_off,0,0,0,,5,,,65,127
60747,note_off,0,0,0,,0,,,60,127
60750,note_on,3,0,0,,0,,,60,127
60750,note_on,0,0,0,,7,,,67,127
60750,note_on,0,0,0,,4,,,76,127
60869,note_off,119,0,0,,4,,,76,127
60872,note_on,3,0,0,,5,,,77,127
60991,note_off,119,0,0,,5,,,77,127
60991,note_off,0,0,0,,7,,,67,127
60991,note_off,0,0,0,,0,,,60,127
60994,note_on,3,0,0,,0,,,60,127
60994,note_on,0,0,0,,7,,,67,127
60994,note_on,0,0,0,,5,,,77,127
61113,note_off,119,0,0,,5,,,77,127
61116,note_on,3,0,0,,7,,,79,127
61235,note_off,119,0,0,,7,,,79,127
61235,note_off,0,0,0,,7,,,67,127
61235,note_off,0,0,0,,0,,,60,127
61238,note_on,3,0,0,,5,,,65,127
61238,note_on,0,0,0,,0,,,60,127
61238,note_on,0,0,0,,7,,,79,127
61357,note_off,119,0,0,,7,,,79,127
61360,note_on,3,0,0,,10,,,81,127
61479,note_off,119,0,0,,10,,,81,127
61479,note_off,0,0,0,,0,,,60,127
61479,note_off,0,0,0,,5,,,65,127
61482,note_on,3,0,0,,0,,,60,127
61482,note_on,0,0,0,,5,,,65,127
61482,note_on,0,0,0,,10,,,81,127
61601,note_off,119,0,0,,10,,,81,127
61604,note_on,3,0,0,,12,,,83,127
61723,note_off,119,0,0,,12,,,83,127
61723,note_off,0,0,0,,5,,,65,127
61723,note_off,0,0,0,,0,,,60,127
61726,note_on,3,0,0,,4,,,64,127
61726,note_on,0,0,0,,0,,,60,127
61726,note_on,0,0,0,,0,,,84,127
61845,note_off,119,0,0,,0,,,84,127
61848,note_on,3,0,0,,7,,,79,127
61967,note_off,119,0,0,,7,,,79,127
61967,note_off,0,0,0,,0,,,60,127
61967,note_off,0,0,0,,4,,,64,127
61970,note_on,3,0,0,,4,,,64,127
61970,note_on,0,0,0,,0,,,60,127
61970,note_on,0,0,0,,7,,,79,127
62089,note_off,119,0,0,,7,,,79,127
62092,note_on,3,0,0,,4,,,76,127
62211,note_off,119,0,0,,4,,,76,127
62211,note_off,0,0,0,,0,,,60,127
62211,note_off,0,0,0,,4,,,64,127
62214,note_on,3,0,0,,5,,,53,127
62214,note_on,0,0,0,,10,,,81,127
62333,note_off,119,0,0,,10,,,81,127
62336,note_on,3,0,0,,5,,,77,127
62455,note_off,119,0,0,,5,,,77,127
62455,note_off,0,0,0,,5,,,53,127
62458,note_on,3,0,0,,5,,,53,127
62458,note_on,0,0,0,,5,,,77,127
62577,note_off,119,0,0,,5,,,77,127
62580,note_on,3,0,0,,2,,,74,127
62699,note_off,119,0,0,,2,,,74,127
62699,note_off,0,0,0,,5,,,53,127
62702,note_on,3,0,0,,4,,,52,127
62702,note_on,0,0,0,,7,,,79,127
62821,note_off,119,0,0,,7,,,79,127
62824,note_on,3,0,0,,4,,,76,127
62943,note_off,119,0,0,,4,,,76,127
62943,note_off,0,0,0,,4,,,52,127
62946,note_on,3,0,0,,4,,,52,127
62946,note_on,0,0,0,,4,,,76,127
63065,note_off,119,0,0,,4,,,76,127
63068,note_on,3,0,0,,0,,,72,127
63187,note_off,119,0,0,,0,,,72,127
63187,note_off,0,0,0,,4,,,52,127
63190,note_on,3,0,0,,5,,,53,127
63190,note_on,0,0,0,,4,,,76,127
63248,note_off,58,0,0,,4,,,76,127
63251,note_on,3,0,0,,2,,,74,127
63309,note_off,58,0,0,,2,,,74,127
63312,note_on,3,0,0,,4,,,76,127
63370,note_off,58,0,0,,4,,,76,127
63373,note_on,3,0,0,,2,,,74,127
63431,note_off,58,0,0,,2,,,74,127
63432,note_off,1,0,0,,5,,,53,127
63433,note_on,1,0,0,,7,,,55,127
63433,note_on,0,0,0,,4,,,76,127
63491,note_off,58,0,0,,4,,,76,127
63494,note_on,3,0,0,,2,,,74,127
63552,note_off,58,0,0,,2,,,74,127
63555,note_on,3,0,0,,0,,,72,127
63613,note_off,58,0,0,,0,,,72,127
63623,note_on,10,0,0,,12,,,71,127
63685,note_off,62,0,0,,7,,,55,127
63690,note_off,5,0,0,,12,,,71,127
63696,note_on,6,0,0,,4,,,76,127
63696,note_on,0,0,0,,0,,,48,127
63696,note_on,0,0,0,,7,,,55,127
63815,note_off,119,0,0,,4,,,76,127
63818,note_on,3,0,0,,5,,,77,127
63937,note_off,119,0,0,,5,,,77,127
63937,note_off,0,0,0,,7,,,55,127
63937,note_off,0,0,0,,0,,,48,127
63940,note_on,3,0,0,,5,,,77,127
63940,note_on,0,0,0,,0,,,48,127
63940,note_on,0,0,0,,7,,,55,127
64059,note_off,119,0,0,,5,,,77,127
64062,note_on,3,0,0,,7,,,79,127
64181,note_off,119,0,0,,7,,,79,127
64181,note_off,0,0,0,,7,,,55,127
64181,note_off,0,0,0,,0,,,48,127
64184,note_on,3,0,0,,7,,,79,127
64184,note_on,0,0,0,,0,,,48,127
64184,note_on,0,0,0,,7,,,55,127
64303,note_off,119,0,0,,7,,,79,127
64306,note_on,3,0,0,,4,,,76,127
64425,note_off,119,0,0,,4,,,76,127
64425,note_off,0,0,0,,7,,,55,127
64425,note_off,0,0,0,,0,,,48,127
64428,note_on,3,0,0,,11,,,70,127
64428,note_on,0,0,0,,0,,,48,127
64428,note_on,0,0,0,,7,,,55,127
64547,note_off,119,0,0,,11,,,70,127
64550,note_on,3,0,0,,7,,,67,127
64667,note_off,117,0,0,,7,,,67,127
64668,note_off,1,0,0,,7,,,55,127
64668,note_off,0,0,0,,0,,,48,127
64681,note_on,13,0,0,,4,,,76,127
64681,note_on,0,0,0,,0,,,48,127
64681,note_on,0,0,0,,11,,,58,127
64800,note_off,119,0,0,,4,,,76,127
64803,note_on,3,0,0,,5,,,77,127
64922,note_off,119,0,0,,5,,,77,127
64922,note_off,0,0,0,,11,,,58,127
64922,note_off,0,0,0,,0,,,48,127
64925,note_on,3,0,0,,5,,,77,127
64925,note_on,0,0,0,,11,,,58,127
64925,note_on,0,0,0,,0,,,48,127
65044,note_off,119,0,0,,5,,,77,127
65047,note_on,3,0,0,,7,,,79,127
65166,note_off,119,0,0,,7,,,79,127
65166,note_off,0,0,0,,0,,,48,127
65166,note_off,0,0,0,,11,,,58,127
65169,note_on,3,0,0,,7,,,79,127
65169,note_on,0,0,0,,11,,,58,127
65169,note_on,0,0,0,,0,,,48,127
65288,note_off,119,0,0,,7,,,79,127
65291,note_on,3,0,0,,4,,,76,127
65410,note_off,119,0,0,,4,,,76,127
65410,note_off,0,0,0,,0,,,48,127
65410,note_off,0,0,0,,11,,,58,127
65413,note_on,3,0,0,,11,,,70,127
65413,note_on,0,0,0,,0,,,48,127
65413,note_on,0,0,0,,11,,,58,127
65532,note_off,119,0,0,,11,,,70,127
65535,note_on,3,0,0,,7,,,67,127
65654,note_off,119,0,0,,7,,,67,127
65654,note_off,0,0,0,,11,,,58,127
65654,note_off,0,0,0,,0,,,48,127
65667,note_on,13,0,0,,5,,,77,127
65667,note_on,0,0,0,,0,,,48,127
65667,note_on,0,0,0,,10,,,57,127
65786,note_off,119,0,0,,5,,,77,127
65789,note_on,3,0,0,,7,,,79,127
65908,note_off,119,0,0,,7,,,79,127
65908,note_off,0,0,0,,10,,,57,127
65908,note_off,0,0,0,,0,,,48,127
65911,note_on,3,0,0,,7,,,79,127
65911,note_on,0,0,0,,10,,,57,127
65911,note_on,0,0,0,,0,,,48,127
66030,note_off,119,0,0,,7,,,79,127
66033,note_on,3,0,0,,10,,,81,127
66152,note_off,119,0,0,,10,,,81,127
66152,note_off,0,0,0,,0,,,48,127
66152,note_off,0,0,0,,10,,,57,127
66155,note_on,3,0,0,,10,,,81,127
66155,note_on,0,0,0,,10,,,57,127
66155,note_on,0,0,0,,0,,,48,127
66274,note_off,119,0,0,,10,,,81,127
66277,note_on,3,0,0,,5,,,77,127
66396,note_off,119,0,0,,5,,,77,127
66396,note_off,0,0,0,,0,,,48,127
66396,note_off,0,0,0,,10,,,57,127
66399,note_on,3,0,0,,2,,,74,127
66399,note_on,0,0,0,,10,,,57,127
66399,note_on,0,0,0,,0,,,48,127
66518,note_off,119,0,0,,2,,,74,127
66521,note_on,3,0,0,,12,,,71,127
66636,note_off,115,0,0,,12,,,71,127
66640,note_off,4,0,0,,0,,,48,127
66640,note_off,0,0,0,,10,,,57,127
66653,note_on,13,0,0,,5,,,77,127
66653,note_on,0,0,0,,0,,,48,127
66653,note_on,0,0,0,,12,,,59,127
66772,note_off,119,0,0,,5,,,77,127
66775,note_on,3,0,0,,7,,,79,127
66894,note_off,119,0,0,,7,,,79,127
66894,note_off,0,0,0,,12,,,59,127
66894,note_off,0,0,0,,0,,,48,127
66897,note_on,3,0,0,,7,,,79,127
66897,note_on,0,0,0,,0,,,48,127
66897,note_on,0,0,0,,12,,,59,127
67016,note_off,119,0,0,,7,,,79,127
67019,note_on,3,0,0,,10,,,81,127
67138,note_off,119,0,0,,10,,,81,127
67138,note_off,0,0,0,,12,,,59,127
67138,note_off,0,0,0,,0,,,48,127
67141,note_on,3,0,0,,10,,,81,127
67141,note_on,0,0,0,,0,,,48,127
67141,note_on,0,0,0,,12,,,59,127
67260,note_off,119,0,0,,10,,,81,127
67263,note_on,3,0,0,,5,,,77,127
67382,note_off,119,0,0,,5,,,77,127
67382,note_off,0,0,0,,12,,,59,127
67382,note_off,0,0,0,,0,,,48,127
67385,note_on,3,0,0,,2,,,74,127
67385,note_on,0,0,0,,0,,,48,127
67385,note_on,0,0,0,,12,,,59,127
67504,note_off,119,0,0,,2,,,74,127
67507,note_on,3,0,0,,12,,,71,127
67592,note_off,85,0,0,,12,,,71,127
67626,note_off,34,0,0,,12,,,59,127
67626,note_off,0,0,0,,0,,,48,127
67639,note_on,13,0,0,,0,,,84,127
67639,note_on,0,0,0,,0,,,60,127
67639,note_on,0,0,0,,0,,,48,127
67758,note_off,119,0,0,,0,,,84,127
67761,note_on,3,0,0,,7,,,79,127
67880,note_off,119,0,0,,7,,,79,127
67880,note_off,0,0,0,,0,,,48,127
67883,note_on,3,0,0,,7,,,79,127
67883,note_on,0,0,0,,4,,,52,127
68002,note_off,119,0,0,,7,,,79,127
68005,note_on,3,0,0,,4,,,76,127
68124,note_off,119,0,0,,4,,,76,127
68124,note_off,0,0,0,,4,,,52,127
68125,note_off,1,0,0,,0,,,60,127
68126,note_on,1,0,0,,10,,,81,127
68126,note_on,0,0,0,,5,,,53,127
68245,note_off,119,0,0,,10,,,81,127
68248,note_on,3,0,0,,5,,,77,127
68367,note_off,119,0,0,,5,,,77,127
68367,note_off,0,0,0,,5,,,53,127
68370,note_on,3,0,0,,5,,,77,127
68370,note_on,0,0,0,,2,,,50,127
68489,note_off,119,0,0,,5,,,77,127
68492,note_on,3,0,0,,2,,,74,127
68611,note_off,119,0,0,,2,,,74,127
68611,note_off,0,0,0,,2,,,50,127
68614,note_on,3,0,0,,7,,,79,127
68614,note_on,0,0,0,,4,,,52,127
68733,note_off,119,0,0,,7,,,79,127
68736,note_on,3,0,0,,4,,,76,127
68855,note_off,119,0,0,,4,,,76,127
68855,note_off,0,0,0,,4,,,52,127
68858,note_on,3,0,0,,4,,,76,127
68858,note_on,0,0,0,,10,,,57,127
68977,note_off,119,0,0,,4,,,76,127
68980,note_on,3,0,0,,0,,,72,127
69099,note_off,119,0,0,,0,,,72,127
69099,note_off,0,0,0,,10,,,57,127
69102,note_on,3,0,0,,4,,,76,127
69102,note_on,0,0,0,,5,,,53,127
69160,note_off,58,0,0,,4,,,76,127
69163,note_on,3,0,0,,2,,,74,127
69221,note_off,58,0,0,,2,,,74,127
69224,note_on,3,0,0,,4,,,76,127
69282,note_off,58,0,0,,4,,,76,127
69285,note_on,3,0,0,,2,,,74,127
69343,note_off,58,0,0,,2,,,74,127
69343,note_off,0,0,0,,5,,,53,127
69346,note_on,3,0,0,,4,,,76,127
69346,note_on,0,0,0,,7,,,55,127
69404,note_off,58,0,0,,4,,,76,127
69407,note_on,3,0,0,,2,,,74,127
69465,note_off,58,0,0,,2,,,74,127
69468,note_on,3,0,0,,0,,,72,127
69526,note_off,58,0,0,,0,,,72,127
69536,note_on,10,0,0,,12,,,71,127
69587,note_off,51,0,0,,7,,,55,127
69602,note_off,15,0,0,,12,,,71,127
69610,note_on,8,0,0,,0,,,72,127
69610,note_on,0,0,0,,0,,,48,127
69610,note_on,0,0,0,,0,,,60,127
69731,note_on,121,0,0,,0,,,84,127
69850,note_off,119,0,0,,0,,,84,127
69850,note_off,0,0,0,,0,,,60,127
69850,note_off,0,0,0,,0,,,48,127
69850,note_off,0,0,0,,0,,,72,127
69853,note_on,3,0,0,,10,,,81,127
69853,note_on,0,0,0,,0,,,48,127
69853,note_on,0,0,0,,0,,,60,127
69972,note_off,119,0,0,,10,,,81,127
69975,note_on,3,0,0,,5,,,77,127
70094,note_off,119,0,0,,0,,,60,127
70094,note_off,0,0,0,,0,,,48,127
70097,note_on,3,0,0,,12,,,59,127
70097,note_on,0,0,0,,0,,,48,127
70216,note_off,119,0,0,,5,,,77,127
70219,note_on,3,0,0,,4,,,76,127
70338,note_off,119,0,0,,4,,,76,127
70338,note_off,0,0,0,,0,,,48,127
70338,note_off,0,0,0,,12,,,59,127
70341,note_on,3,0,0,,4,,,76,127
70341,note_on,0,0,0,,12,,,59,127
70341,note_on,0,0,0,,0,,,48,127
70460,note_off,119,0,0,,4,,,76,127
70463,note_on,3,0,0,,2,,,74,127
70582,note_off,119,0,0,,2,,,74,127
70582,note_off,0,0,0,,0,,,48,127
70582,note_off,0,0,0,,12,,,59,127
70585,note_on,3,0,0,,4,,,76,127
70585,note_on,0,0,0,,0,,,60,127
70585,note_on,0,0,0,,0,,,48,127
70704,note_off,119,0,0,,4,,,76,127
70707,note_on,3,0,0,,0,,,84,127
70826,note_off,119,0,0,,0,,,84,127
70826,note_off,0,0,0,,0,,,48,127
70826,note_off,0,0,0,,0,,,60,127
70829,note_on,3,0,0,,5,,,77,127
70829,note_on,0,0,0,,0,,,60,127
70829,note_on,0,0,0,,0,,,48,127
70948,note_off,119,0,0,,5,,,77,127
70951,note_on,3,0,0,,2,,,74,127
71070,note_off,119,0,0,,0,,,48,127
71070,note_off,0,0,0,,0,,,60,127
71073,note_on,3,0,0,,2,,,50,127
71073,note_on,0,0,0,,2,,,62,127
71192,note_off,119,0,0,,2,,,74,127
71195,note_on,3,0,0,,0,,,72,127
71314,note_off,119,0,0,,0,,,72,127
71314,note_off,0,0,0,,2,,,62,127
71314,note_off,0,0,0,,2,,,50,127
71317,note_on,3,0,0,,0,,,72,127
71317,note_on,0,0,0,,2,,,50,127
71317,note_on,0,0,0,,2,,,62,127
71436,note_off,119,0,0,,0,,,72,127
71439,note_on,3,0,0,,12,,,71,127
71558,note_off,119,0,0,,12,,,71,127
71558,note_off,0,0,0,,2,,,62,127
71558,note_off,0,0,0,,2,,,50,127
71561,note_on,3,0,0,,0,,,72,127
71561,note_on,0,0,0,,0,,,60,127
71561,note_on,0,0,0,,4,,,52,127
71680,note_off,119,0,0,,0,,,72,127
71683,note_on,3,0,0,,7,,,79,127
71802,note_off,119,0,0,,7,,,79,127
71802,note_off,0,0,0,,4,,,52,127
71802,note_off,0,0,0,,0,,,60,127
71805,note_on,3,0,0,,0,,,72,127
71805,note_on,0,0,0,,5,,,53,127
71924,note_off,119,0,0,,0,,,72,127
71927,note_on,3,0,0,,10,,,81,127
72046,note_off,119,0,0,,10,,,81,127
72046,note_off,0,0,0,,5,,,53,127
72049,note_on,3,0,0,,4,,,76,127
72049,note_on,0,0,0,,7,,,55,127
72292,note_on,243,0,0,,7,,,43,127
72353,note_off,61,0,0,,4,,,76,127
72353,note_on,0,0,0,,2,,,74,127
72411,note_off,58,0,0,,2,,,74,127
72414,note_on,3,0,0,,4,,,76,127
72472,note_off,58,0,0,,4,,,76,127
72482,note_on,10,0,0,,2,,,74,127
72533,note_off,51,0,0,,7,,,43,127
72534,note_off,1,0,0,,7,,,55,127
72550,note_off,16,0,0,,2,,,74,127
72555,note_on,5,0,0,,0,,,48,127
72555,note_on,0,0,0,,0,,,72,127
72676,note_on,121,0,0,,0,,,84,127
72795,note_off,119,0,0,,0,,,84,127
72795,note_off,0,0,0,,0,,,72,127
72795,note_off,0,0,0,,0,,,48,127
72798,note_on,3,0,0,,0,,,60,127
72798,note_on,0,0,0,,0,,,48,127
72798,note_on,0,0,0,,10,,,81,127
72917,note_off,119,0,0,,10,,,81,127
72920,note_on,3,0,0,,5,,,77,127
73039,note_off,119,0,0,,0,,,48,127
73039,note_off,0,0,0,,0,,,60,127
73042,note_on,3,0,0,,12,,,59,127
73042,note_on,0,0,0,,0,,,48,127
73161,note_off,119,0,0,,5,,,77,127
73164,note_on,3,0,0,,4,,,76,127
73283,note_off,119,0,0,,4,,,76,127
73283,note_off,0,0,0,,0,,,48,127
73283,note_off,0,0,0,,12,,,59,127
73286,note_on,3,0,0,,12,,,59,127
73286,note_on,0,0,0,,0,,,48,127
73286,note_on,0,0,0,,4,,,76,127
73405,note_off,119,0,0,,4,,,76,127
73408,note_on,3,0,0,,2,,,74,127
73527,note_off,119,0,0,,2,,,74,127
73527,note_off,0,0,0,,0,,,48,127
73527,note_off,0,0,0,,12,,,59,127
73530,note_on,3,0,0,,0,,,60,127
73530,note_on,0,0,0,,0,,,48,127
73530,note_on,0,0,0,,4,,,76,127
73649,note_off,119,0,0,,4,,,76,127
73652,note_on,3,0,0,,0,,,84,127
73771,note_off,119,0,0,,0,,,84,127
73771,note_off,0,0,0,,0,,,48,127
73771,note_off,0,0,0,,0,,,60,127
73774,note_on,3,0,0,,0,,,60,127
73774,note_on,0,0,0,,0,,,48,127
73774,note_on,0,0,0,,5,,,77,127
73893,note_off,119,0,0,,5,,,77,127
73896,note_on,3,0,0,,2,,,74,127
74015,note_off,119,0,0,,0,,,48,127
74015,note_off,0,0,0,,0,,,60,127
74018,note_on,3,0,0,,2,,,50,127
74018,note_on,0,0,0,,2,,,62,127
74137,note_off,119,0,0,,2,,,74,127
74140,note_on,3,0,0,,0,,,72,127
74259,note_off,119,0,0,,0,,,72,127
74259,note_off,0,0,0,,2,,,62,127
74259,note_off,0,0,0,,2,,,50,127
74262,note_on,3,0,0,,2,,,62,127
74262,note_on,0,0,0,,2,,,50,127
74262,note_on,0,0,0,,0,,,72,127
74381,note_off,119,0,0,,0,,,72,127
74384,note_on,3,0,0,,12,,,71,127
74503,note_off,119,0,0,,12,,,71,127
74503,note_off,0,0,0,,2,,,50,127
74503,note_off,0,0,0,,2,,,62,127
74506,note_on,3,0,0,,0,,,60,127
74506,note_on,0,0,0,,4,,,52,127
74506,note_on,0,0,0,,0,,,72,127
74625,note_off,119,0,0,,0,,,72,127
74628,note_on,3,0,0,,7,,,79,127
74747,note_off,119,0,0,,7,,,79,127
74747,note_off,0,0,0,,4,,,52,127
74747,note_off,0,0,0,,0,,,60,127
74750,note_on,3,0,0,,5,,,53,127
74750,note_on,0,0,0,,0,,,72,127
74869,note_off,119,0,0,,0,,,72,127
74872,note_on,3,0,0,,10,,,81,127
74991,note_off,119,0,0,,10,,,81,127
74991,note_off,0,0,0,,5,,,53,127
74994,note_on,3,0,0,,7,,,55,127
74994,note_on,0,0,0,,4,,,76,127
75237,note_on,243,0,0,,7,,,43,127
75298,note_off,61,0,0,,4,,,76,127
75298,note_on,0,0,0,,2,,,74,127
75356,note_off,58,0,0,,2,,,74,127
75359,note_on,3,0,0,,4,,,76,127
75417,note_off,58,0,0,,4,,,76,127
75427,note_on,10,0,0,,2,,,74,127
75478,note_off,51,0,0,,7,,,43,127
75479,note_off,1,0,0,,7,,,55,127
75493,note_off,14,0,0,,2,,,74,127
75501,note_on,8,0,0,,0,,,72,127
75501,note_on,0,0,0,,4,,,52,127
75620,note_off,119,0,0,,0,,,72,127
75623,note_on,3,0,0,,7,,,79,127
75742,note_off,119,0,0,,7,,,79,127
75742,note_off,0,0,0,,4,,,52,127
75745,note_on,3,0,0,,0,,,72,127
75745,note_on,0,0,0,,5,,,53,127
75864,note_off,119,0,0,,0,,,72,127
75867,note_on,3,0,0,,10,,,81,127
75986,note_off,119,0,0,,10,,,81,127
75986,note_off,0,0,0,,5,,,53,127
75989,note_on,3,0,0,,4,,,76,127
75989,note_on,0,0,0,,7,,,55,127
76232,note_on,243,0,0,,7,,,43,127
76293,note_off,61,0,0,,4,,,76,127
76293,note_on,0,0,0,,2,,,74,127
76351,note_off,58,0,0,,2,,,74,127
76354,note_on,3,0,0,,4,,,76,127
76412,note_off,58,0,0,,4,,,76,127
76422,note_on,10,0,0,,2,,,74,127
76473,note_off,51,0,0,,7,,,43,127
76474,note_off,1,0,0,,7,,,55,127
76488,note_off,14,0,0,,2,,,74,127
76497,note_on,9,0,0,,0,,,72,127
76497,note_on,0,0,0,,4,,,52,127
76617,note_off,120,0,0,,0,,,72,127
76622,note_on,5,0,0,,7,,,79,127
76741,note_off,119,0,0,,4,,,52,127
76742,note_off,1,0,0,,7,,,79,127
76747,note_on,5,0,0,,0,,,72,127
76747,note_on,0,0,0,,5,,,53,127
76867,note_off,120,0,0,,0,,,72,127
76872,note_on,5,0,0,,0,,,84,127
76991,note_off,119,0,0,,5,,,53,127
76992,note_off,1,0,0,,0,,,84,127
76996,note_on,4,0,0,,0,,,72,127
76996,note_on,0,0,0,,4,,,76,127
76996,note_on,0,0,0,,7,,,55,127
77240,note_off,244,0,0,,4,,,76,127
77240,note_off,0,0,0,,0,,,72,127
77246,note_on,6,0,0,,4,,,76,127
77246,note_on,0,0,0,,12,,,71,127
77246,note_on,0,0,0,,7,,,43,127
77304,note_off,58,0,0,,4,,,76,127
77309,note_on,5,0,0,,2,,,74,127
77367,note_off,58,0,0,,2,,,74,127
77371,note_on,4,0,0,,4,,,76,127
77429,note_off,58,0,0,,4,,,76,127
77434,note_on,5,0,0,,2,,,74,127
77488,note_off,54,0,0,,7,,,55,127
77489,note_off,1,0,0,,7,,,43,127
77490,note_off,1,0,0,,12,,,71,127
77491,note_off,1,0,0,,2,,,74,127
77520,note_on,29,0,0,,0,,,36,127
77520,note_on,0,0,0,,0,,,72,127
79195,note_off,1675,0,0,,0,,,72,127
79195,note_off,0,0,0,,0,,,36,127
82944,end_of_track,3749,1,0,,,,,,
