tick,type,time,meta,track,program,channel,pitch,tempo,note,velocity
0,copyright,0,1,0,,,,,,
0,program_change,0,0,0,6,0,,,,
0,pitchwheel,0,0,0,,0,0,,,
0,program_change,0,0,0,6,1,,,,
0,pitchwheel,0,0,0,,1,-590,,,
0,program_change,0,0,0,6,2,,,,
0,pitchwheel,0,0,0,,2,-272,,,
0,program_change,0,0,0,6,3,,,,
0,pitchwheel,0,0,0,,3,-353,,,
0,program_change,0,0,0,6,4,,,,
0,pitchwheel,0,0,0,,4,-560,,,
0,program_change,0,0,0,6,5,,,,
0,pitchwheel,0,0,0,,5,-80,,,
0,program_change,0,0,0,6,6,,,,
0,pitchwheel,0,0,0,,6,-625,,,
0,program_change,0,0,0,6,7,,,,
0,pitchwheel,0,0,0,,7,-130,,,
0,program_change,0,0,0,6,8,,,,
0,pitchwheel,0,0,0,,8,-512,,,
0,program_change,0,0,0,6,10,,,,
0,pitchwheel,0,0,0,,10,-464,,,
0,program_change,0,0,0,6,11,,,,
0,pitchwheel,0,0,0,,11,-208,,,
0,program_change,0,0,0,6,12,,,,
0,pitchwheel,0,0,0,,12,-553,,,
0,set_tempo,0,1,0,,,,500000,,
92,note_on,92,0,0,,5,,,41,127
461,note_on,369,0,0,,10,,,69,127
584,note_off,123,0,0,,10,,,69,127
584,note_on,0,0,0,,11,,,70,127
707,note_off,123,0,0,,11,,,70,127
707,note_on,0,0,0,,0,,,72,127
830,note_off,123,0,0,,0,,,72,127
830,note_on,0,0,0,,0,,,72,127
953,note_off,123,0,0,,0,,,72,127
953,note_on,0,0,0,,2,,,74,127
1014,note_off,61,0,0,,5,,,41,127
1075,note_off,61,0,0,,2,,,74,127
1075,note_on,0,0,0,,4,,,76,127
1198,note_off,123,0,0,,4,,,76,127
1198,note_on,0,0,0,,5,,,65,127
1198,note_on,0,0,0,,5,,,77,127
1321,note_off,123,0,0,,5,,,77,127
1321,note_on,0,0,0,,7,,,79,127
1444,note_off,123,0,0,,7,,,79,127
1444,note_on,0,0,0,,10,,,81,127
1567,note_off,123,0,0,,10,,,81,127
1567,note_off,0,0,0,,5,,,65,127
1567,note_on,0,0,0,,0,,,60,127
1567,note_on,0,0,0,,7,,,79,127
1690,note_off,123,0,0,,7,,,79,127
1690,note_on,0,0,0,,5,,,77,127
1813,note_off,123,0,0,,5,,,77,127
1813,note_on,0,0,0,,4,,,76,127
1936,note_off,123,0,0,,4,,,76,127
1936,note_off,0,0,0,,0,,,60,127
1936,note_on,0,0,0,,4,,,64,127
1936,note_on,0,0,0,,2,,,74,127
2059,note_off,123,0,0,,2,,,74,127
2059,note_on,0,0,0,,0,,,72,127
2182,note_off,123,0,0,,0,,,72,127
2182,note_on,0,0,0,,11,,,70,127
2305,note_off,123,0,0,,11,,,70,127
2305,note_off,0,0,0,,4,,,64,127
2305,note_on,0,0,0,,5,,,65,127
2305,note_on,0,0,0,,10,,,69,127
2428,note_off,123,0,0,,10,,,69,127
2428,note_on,0,0,0,,0,,,72,127
2551,note_off,123,0,0,,0,,,72,127
2551,note_on,0,0,0,,10,,,81,127
2674,note_off,123,0,0,,10,,,81,127
2674,note_off,0,0,0,,5,,,65,127
2674,note_on,0,0,0,,0,,,60,127
2674,note_on,0,0,0,,7,,,79,127
2797,note_off,123,0,0,,7,,,79,127
2797,note_on,0,0,0,,5,,,77,127
2920,note_off,123,0,0,,5,,,77,127
2920,note_on,0,0,0,,4,,,76,127
3043,note_off,123,0,0,,4,,,76,127
3043,note_off,0,0,0,,0,,,60,127
3043,note_on,0,0,0,,4,,,64,127
3043,note_on,0,0,0,,2,,,74,127
3166,note_off,123,0,0,,2,,,74,127
3166,note_on,0,0,0,,0,,,72,127
3289,note_off,123,0,0,,0,,,72,127
3289,note_on,0,0,0,,11,,,70,127
3412,note_off,123,0,0,,4,,,64,127
3412,note_on,0,0,0,,5,,,65,127
3473,note_on,61,0,0,,10,,,69,127
3481,note_off,8,0,0,,11,,,70,127
3535,note_on,54,0,0,,11,,,70,127
3543,note_off,8,0,0,,10,,,69,127
3597,note_on,54,0,0,,10,,,69,127
3605,note_off,8,0,0,,11,,,70,127
3659,note_on,54,0,0,,11,,,70,127
3667,note_off,8,0,0,,10,,,69,127
3721,note_on,54,0,0,,10,,,69,127
3729,note_off,8,0,0,,11,,,70,127
3783,note_off,54,0,0,,5,,,65,127
3783,note_on,0,0,0,,5,,,53,127
3783,note_on,0,0,0,,11,,,70,127
3791,note_off,8,0,0,,10,,,69,127
3845,note_on,54,0,0,,10,,,69,127
3853,note_off,8,0,0,,11,,,70,127
3907,note_on,54,0,0,,11,,,70,127
3915,note_off,8,0,0,,10,,,69,127
3969,note_on,54,0,0,,10,,,69,127
3977,note_off,8,0,0,,11,,,70,127
4031,note_on,54,0,0,,7,,,67,127
4039,note_off,8,0,0,,10,,,69,127
4154,note_off,115,0,0,,7,,,67,127
4154,note_on,0,0,0,,5,,,65,127
4510,note_off,356,0,0,,5,,,65,127
4522,note_off,12,0,0,,5,,,53,127
4522,note_on,0,0,0,,5,,,65,127
4522,note_on,0,0,0,,10,,,69,127
4522,note_on,0,0,0,,8,,,80,127
4645,note_off,123,0,0,,8,,,80,127
4645,note_on,0,0,0,,10,,,81,127
4768,note_off,123,0,0,,10,,,81,127
4768,note_on,0,0,0,,4,,,76,127
4891,note_off,123,0,0,,4,,,76,127
4891,note_off,0,0,0,,10,,,69,127
4891,note_off,0,0,0,,5,,,65,127
4891,note_on,0,0,0,,5,,,65,127
4891,note_on,0,0,0,,10,,,69,127
4891,note_on,0,0,0,,5,,,77,127
5014,note_off,123,0,0,,5,,,77,127
5014,note_on,0,0,0,,7,,,79,127
5137,note_off,123,0,0,,7,,,79,127
5137,note_on,0,0,0,,1,,,73,127
5260,note_off,123,0,0,,1,,,73,127
5260,note_off,0,0,0,,10,,,69,127
5260,note_off,0,0,0,,5,,,65,127
5260,note_on,0,0,0,,5,,,65,127
5260,note_on,0,0,0,,10,,,69,127
5260,note_on,0,0,0,,2,,,74,127
5383,note_off,123,0,0,,2,,,74,127
5383,note_on,0,0,0,,4,,,76,127
5506,note_off,123,0,0,,4,,,76,127
5506,note_on,0,0,0,,8,,,68,127
5629,note_off,123,0,0,,8,,,68,127
5629,note_off,0,0,0,,10,,,69,127
5629,note_off,0,0,0,,5,,,65,127
5629,note_on,0,0,0,,5,,,65,127
5629,note_on,0,0,0,,10,,,69,127
5752,note_off,123,0,0,,10,,,69,127
5752,note_on,0,0,0,,12,,,71,127
5875,note_off,123,0,0,,12,,,71,127
5875,note_on,0,0,0,,1,,,73,127
5998,note_off,123,0,0,,1,,,73,127
5998,note_off,0,0,0,,5,,,65,127
5998,note_on,0,0,0,,10,,,69,127
5998,note_on,0,0,0,,5,,,65,127
5998,note_on,0,0,0,,2,,,74,127
6059,note_on,61,0,0,,1,,,73,127
6067,note_off,8,0,0,,2,,,74,127
6121,note_on,54,0,0,,2,,,74,127
6129,note_off,8,0,0,,1,,,73,127
6183,note_on,54,0,0,,1,,,73,127
6191,note_off,8,0,0,,2,,,74,127
6245,note_on,54,0,0,,2,,,74,127
6253,note_off,8,0,0,,1,,,73,127
6307,note_on,54,0,0,,1,,,73,127
6315,note_off,8,0,0,,2,,,74,127
6369,note_off,54,0,0,,5,,,65,127
6369,note_off,0,0,0,,10,,,69,127
6369,note_on,0,0,0,,10,,,69,127
6369,note_on,0,0,0,,5,,,65,127
6369,note_on,0,0,0,,4,,,76,127
6377,note_off,8,0,0,,1,,,73,127
6431,note_on,54,0,0,,2,,,74,127
6439,note_off,8,0,0,,4,,,76,127
6493,note_on,54,0,0,,4,,,76,127
6501,note_off,8,0,0,,2,,,74,127
6555,note_on,54,0,0,,2,,,74,127
6563,note_off,8,0,0,,4,,,76,127
6617,note_on,54,0,0,,4,,,76,127
6625,note_off,8,0,0,,2,,,74,127
6679,note_on,54,0,0,,2,,,74,127
6687,note_off,8,0,0,,4,,,76,127
6741,note_off,54,0,0,,5,,,65,127
6741,note_off,0,0,0,,10,,,69,127
6741,note_on,0,0,0,,7,,,67,127
6741,note_on,0,0,0,,4,,,64,127
6741,note_on,0,0,0,,6,,,78,127
6749,note_off,8,0,0,,2,,,74,127
6864,note_off,115,0,0,,6,,,78,127
6864,note_on,0,0,0,,7,,,79,127
6987,note_off,123,0,0,,7,,,79,127
6987,note_on,0,0,0,,2,,,74,127
7110,note_off,123,0,0,,2,,,74,127
7110,note_off,0,0,0,,4,,,64,127
7110,note_off,0,0,0,,7,,,67,127
7110,note_on,0,0,0,,7,,,67,127
7110,note_on,0,0,0,,4,,,64,127
7110,note_on,0,0,0,,4,,,76,127
7233,note_off,123,0,0,,4,,,76,127
7233,note_on,0,0,0,,5,,,77,127
7356,note_off,123,0,0,,5,,,77,127
7356,note_on,0,0,0,,12,,,71,127
7479,note_off,123,0,0,,12,,,71,127
7479,note_off,0,0,0,,4,,,64,127
7479,note_off,0,0,0,,7,,,67,127
7479,note_on,0,0,0,,4,,,64,127
7479,note_on,0,0,0,,7,,,67,127
7479,note_on,0,0,0,,0,,,72,127
7602,note_off,123,0,0,,0,,,72,127
7602,note_on,0,0,0,,2,,,74,127
7725,note_off,123,0,0,,2,,,74,127
7725,note_on,0,0,0,,6,,,66,127
7848,note_off,123,0,0,,6,,,66,127
7848,note_off,0,0,0,,7,,,67,127
7848,note_off,0,0,0,,4,,,64,127
7848,note_on,0,0,0,,4,,,64,127
7848,note_on,0,0,0,,7,,,67,127
7971,note_off,123,0,0,,7,,,67,127
7971,note_on,0,0,0,,10,,,69,127
8094,note_off,123,0,0,,10,,,69,127
8094,note_on,0,0,0,,12,,,71,127
8217,note_off,123,0,0,,12,,,71,127
8217,note_off,0,0,0,,4,,,64,127
8217,note_on,0,0,0,,4,,,64,127
8217,note_on,0,0,0,,7,,,67,127
8217,note_on,0,0,0,,0,,,72,127
8278,note_on,61,0,0,,12,,,71,127
8286,note_off,8,0,0,,0,,,72,127
8340,note_on,54,0,0,,0,,,72,127
8348,note_off,8,0,0,,12,,,71,127
8402,note_on,54,0,0,,12,,,71,127
8410,note_off,8,0,0,,0,,,72,127
8464,note_on,54,0,0,,0,,,72,127
8472,note_off,8,0,0,,12,,,71,127
8526,note_on,54,0,0,,12,,,71,127
8534,note_off,8,0,0,,0,,,72,127
8588,note_off,54,0,0,,7,,,67,127
8588,note_off,0,0,0,,4,,,64,127
8588,note_on,0,0,0,,4,,,64,127
8588,note_on,0,0,0,,7,,,67,127
8588,note_on,0,0,0,,2,,,74,127
8596,note_off,8,0,0,,12,,,71,127
8650,note_on,54,0,0,,0,,,72,127
8658,note_off,8,0,0,,2,,,74,127
8712,note_on,54,0,0,,2,,,74,127
8720,note_off,8,0,0,,0,,,72,127
8774,note_on,54,0,0,,0,,,72,127
8782,note_off,8,0,0,,2,,,74,127
8836,note_on,54,0,0,,2,,,74,127
8844,note_off,8,0,0,,0,,,72,127
8898,note_on,54,0,0,,0,,,72,127
8906,note_off,8,0,0,,2,,,74,127
8960,note_off,54,0,0,,7,,,67,127
8960,note_off,0,0,0,,4,,,64,127
8960,note_on,0,0,0,,5,,,65,127
8960,note_on,0,0,0,,2,,,62,127
8960,note_on,0,0,0,,4,,,76,127
8968,note_off,8,0,0,,0,,,72,127
9083,note_off,115,0,0,,4,,,76,127
9083,note_on,0,0,0,,5,,,77,127
9206,note_off,123,0,0,,5,,,77,127
9206,note_on,0,0,0,,0,,,72,127
9329,note_off,123,0,0,,0,,,72,127
9329,note_off,0,0,0,,2,,,62,127
9329,note_off,0,0,0,,5,,,65,127
9329,note_on,0,0,0,,5,,,65,127
9329,note_on,0,0,0,,2,,,62,127
9329,note_on,0,0,0,,2,,,74,127
9452,note_off,123,0,0,,2,,,74,127
9452,note_on,0,0,0,,4,,,76,127
9575,note_off,123,0,0,,4,,,76,127
9575,note_on,0,0,0,,10,,,69,127
9698,note_off,123,0,0,,10,,,69,127
9698,note_off,0,0,0,,2,,,62,127
9698,note_off,0,0,0,,5,,,65,127
9698,note_on,0,0,0,,0,,,60,127
9698,note_on,0,0,0,,4,,,64,127
9698,note_on,0,0,0,,12,,,71,127
9821,note_off,123,0,0,,12,,,71,127
9821,note_on,0,0,0,,0,,,72,127
9944,note_off,123,0,0,,0,,,72,127
9944,note_on,0,0,0,,5,,,65,127
10067,note_off,123,0,0,,5,,,65,127
10067,note_off,0,0,0,,4,,,64,127
10067,note_off,0,0,0,,0,,,60,127
10067,note_on,0,0,0,,12,,,59,127
10067,note_on,0,0,0,,2,,,62,127
10067,note_on,0,0,0,,7,,,67,127
10190,note_off,123,0,0,,7,,,67,127
10190,note_on,0,0,0,,10,,,69,127
10313,note_off,123,0,0,,10,,,69,127
10313,note_on,0,0,0,,12,,,71,127
10436,note_off,123,0,0,,12,,,71,127
10436,note_off,0,0,0,,12,,,59,127
10436,note_on,0,0,0,,7,,,55,127
10436,note_on,0,0,0,,12,,,71,127
10559,note_off,123,0,0,,12,,,71,127
10559,note_on,0,0,0,,0,,,72,127
10682,note_off,123,0,0,,0,,,72,127
10682,note_on,0,0,0,,2,,,74,127
10805,note_off,123,0,0,,2,,,74,127
10805,note_off,0,0,0,,7,,,55,127
10805,note_on,0,0,0,,12,,,59,127
10805,note_on,0,0,0,,2,,,74,127
10928,note_off,123,0,0,,2,,,74,127
10928,note_on,0,0,0,,4,,,76,127
11051,note_off,123,0,0,,4,,,76,127
11051,note_on,0,0,0,,5,,,77,127
11157,note_off,106,0,0,,5,,,77,127
11165,note_off,8,0,0,,12,,,59,127
11165,note_off,0,0,0,,2,,,62,127
11175,note_on,10,0,0,,4,,,76,127
11298,note_off,123,0,0,,4,,,76,127
11298,note_on,0,0,0,,2,,,74,127
11421,note_off,123,0,0,,2,,,74,127
11421,note_on,0,0,0,,0,,,72,127
11544,note_on,123,0,0,,0,,,60,127
11544,note_on,0,0,0,,7,,,67,127
11605,note_on,61,0,0,,11,,,70,127
11613,note_off,8,0,0,,0,,,72,127
11667,note_on,54,0,0,,0,,,72,127
11675,note_off,8,0,0,,11,,,70,127
11729,note_on,54,0,0,,11,,,70,127
11737,note_off,8,0,0,,0,,,72,127
11791,note_on,54,0,0,,0,,,72,127
11799,note_off,8,0,0,,11,,,70,127
11853,note_on,54,0,0,,11,,,70,127
11861,note_off,8,0,0,,0,,,72,127
11915,note_off,54,0,0,,7,,,67,127
11915,note_off,0,0,0,,0,,,60,127
11915,note_on,0,0,0,,0,,,60,127
11915,note_on,0,0,0,,7,,,67,127
11915,note_on,0,0,0,,0,,,72,127
11923,note_off,8,0,0,,11,,,70,127
11977,note_on,54,0,0,,11,,,70,127
11985,note_off,8,0,0,,0,,,72,127
12039,note_on,54,0,0,,0,,,72,127
12047,note_off,8,0,0,,11,,,70,127
12101,note_on,54,0,0,,11,,,70,127
12109,note_off,8,0,0,,0,,,72,127
12163,note_on,54,0,0,,10,,,69,127
12171,note_off,8,0,0,,11,,,70,127
12225,note_on,54,0,0,,11,,,70,127
12233,note_off,8,0,0,,10,,,69,127
12287,note_on,54,0,0,,2,,,74,127
12295,note_off,8,0,0,,11,,,70,127
12379,note_off,84,0,0,,7,,,67,127
12379,note_off,0,0,0,,0,,,60,127
12410,note_off,31,0,0,,2,,,74,127
12410,note_on,0,0,0,,0,,,72,127
12533,note_off,123,0,0,,0,,,72,127
12533,note_on,0,0,0,,11,,,70,127
12656,note_on,123,0,0,,0,,,60,127
12656,note_on,0,0,0,,5,,,65,127
12717,note_on,61,0,0,,10,,,69,127
12725,note_off,8,0,0,,11,,,70,127
12779,note_on,54,0,0,,11,,,70,127
12787,note_off,8,0,0,,10,,,69,127
12841,note_on,54,0,0,,10,,,69,127
12849,note_off,8,0,0,,11,,,70,127
12903,note_on,54,0,0,,11,,,70,127
12911,note_off,8,0,0,,10,,,69,127
12965,note_on,54,0,0,,10,,,69,127
12973,note_off,8,0,0,,11,,,70,127
13027,note_off,54,0,0,,5,,,65,127
13027,note_off,0,0,0,,0,,,60,127
13027,note_on,0,0,0,,0,,,60,127
13027,note_on,0,0,0,,5,,,65,127
13027,note_on,0,0,0,,11,,,70,127
13035,note_off,8,0,0,,10,,,69,127
13089,note_on,54,0,0,,10,,,69,127
13097,note_off,8,0,0,,11,,,70,127
13151,note_on,54,0,0,,11,,,70,127
13159,note_off,8,0,0,,10,,,69,127
13213,note_on,54,0,0,,10,,,69,127
13221,note_off,8,0,0,,11,,,70,127
13352,note_off,131,0,0,,10,,,69,127
13398,note_on,46,0,0,,4,,,76,127
13490,note_off,92,0,0,,5,,,65,127
13490,note_off,0,0,0,,0,,,60,127
13521,note_off,31,0,0,,4,,,76,127
13521,note_on,0,0,0,,2,,,74,127
13644,note_off,123,0,0,,2,,,74,127
13644,note_on,0,0,0,,0,,,72,127
13767,note_on,123,0,0,,0,,,60,127
13767,note_on,0,0,0,,7,,,67,127
13828,note_on,61,0,0,,11,,,70,127
13836,note_off,8,0,0,,0,,,72,127
13890,note_on,54,0,0,,0,,,72,127
13898,note_off,8,0,0,,11,,,70,127
13952,note_on,54,0,0,,11,,,70,127
13960,note_off,8,0,0,,0,,,72,127
14014,note_on,54,0,0,,0,,,72,127
14022,note_off,8,0,0,,11,,,70,127
14076,note_on,54,0,0,,11,,,70,127
14084,note_off,8,0,0,,0,,,72,127
14138,note_off,54,0,0,,7,,,67,127
14138,note_off,0,0,0,,0,,,60,127
14138,note_on,0,0,0,,0,,,60,127
14138,note_on,0,0,0,,7,,,67,127
14138,note_on,0,0,0,,0,,,72,127
14146,note_off,8,0,0,,11,,,70,127
14200,note_on,54,0,0,,11,,,70,127
14208,note_off,8,0,0,,0,,,72,127
14262,note_on,54,0,0,,0,,,72,127
14270,note_off,8,0,0,,11,,,70,127
14324,note_on,54,0,0,,11,,,70,127
14332,note_off,8,0,0,,0,,,72,127
14386,note_on,54,0,0,,10,,,69,127
14394,note_off,8,0,0,,11,,,70,127
14448,note_on,54,0,0,,11,,,70,127
14456,note_off,8,0,0,,10,,,69,127
14510,note_on,54,0,0,,2,,,74,127
14518,note_off,8,0,0,,11,,,70,127
14602,note_off,84,0,0,,7,,,67,127
14602,note_off,0,0,0,,0,,,60,127
14633,note_off,31,0,0,,2,,,74,127
14633,note_on,0,0,0,,0,,,72,127
14756,note_off,123,0,0,,0,,,72,127
14756,note_on,0,0,0,,11,,,70,127
14879,note_on,123,0,0,,0,,,60,127
14879,note_on,0,0,0,,5,,,65,127
14940,note_on,61,0,0,,10,,,69,127
14948,note_off,8,0,0,,11,,,70,127
15002,note_on,54,0,0,,11,,,70,127
15010,note_off,8,0,0,,10,,,69,127
15064,note_on,54,0,0,,10,,,69,127
15072,note_off,8,0,0,,11,,,70,127
15126,note_on,54,0,0,,11,,,70,127
15134,note_off,8,0,0,,10,,,69,127
15188,note_on,54,0,0,,10,,,69,127
15196,note_off,8,0,0,,11,,,70,127
15250,note_off,54,0,0,,5,,,65,127
15250,note_off,0,0,0,,0,,,60,127
15250,note_on,0,0,0,,5,,,65,127
15250,note_on,0,0,0,,0,,,60,127
15250,note_on,0,0,0,,11,,,70,127
15258,note_off,8,0,0,,10,,,69,127
15312,note_on,54,0,0,,10,,,69,127
15320,note_off,8,0,0,,11,,,70,127
15374,note_on,54,0,0,,11,,,70,127
15382,note_off,8,0,0,,10,,,69,127
15436,note_on,54,0,0,,10,,,69,127
15444,note_off,8,0,0,,11,,,70,127
15575,note_off,131,0,0,,10,,,69,127
15611,note_off,36,0,0,,0,,,60,127
15611,note_off,0,0,0,,5,,,65,127
15621,note_on,10,0,0,,6,,,78,127
15744,note_off,123,0,0,,6,,,78,127
15744,note_on,0,0,0,,4,,,76,127
15867,note_off,123,0,0,,4,,,76,127
15867,note_on,0,0,0,,2,,,74,127
15990,note_on,123,0,0,,2,,,62,127
15990,note_on,0,0,0,,10,,,69,127
16051,note_on,61,0,0,,0,,,72,127
16059,note_off,8,0,0,,2,,,74,127
16113,note_on,54,0,0,,2,,,74,127
16121,note_off,8,0,0,,0,,,72,127
16175,note_on,54,0,0,,0,,,72,127
16183,note_off,8,0,0,,2,,,74,127
16237,note_on,54,0,0,,2,,,74,127
16245,note_off,8,0,0,,0,,,72,127
16299,note_on,54,0,0,,0,,,72,127
16307,note_off,8,0,0,,2,,,74,127
16361,note_off,54,0,0,,10,,,69,127
16361,note_off,0,0,0,,2,,,62,127
16361,note_on,0,0,0,,2,,,62,127
16361,note_on,0,0,0,,10,,,69,127
16361,note_on,0,0,0,,2,,,74,127
16369,note_off,8,0,0,,0,,,72,127
16423,note_on,54,0,0,,0,,,72,127
16431,note_off,8,0,0,,2,,,74,127
16485,note_on,54,0,0,,2,,,74,127
16493,note_off,8,0,0,,0,,,72,127
16547,note_on,54,0,0,,0,,,72,127
16555,note_off,8,0,0,,2,,,74,127
16609,note_on,54,0,0,,12,,,71,127
16617,note_off,8,0,0,,0,,,72,127
16671,note_on,54,0,0,,0,,,72,127
16679,note_off,8,0,0,,12,,,71,127
16733,note_on,54,0,0,,4,,,76,127
16741,note_off,8,0,0,,0,,,72,127
16825,note_off,84,0,0,,10,,,69,127
16825,note_off,0,0,0,,2,,,62,127
16856,note_off,31,0,0,,4,,,76,127
16856,note_on,0,0,0,,2,,,74,127
16979,note_off,123,0,0,,2,,,74,127
16979,note_on,0,0,0,,0,,,72,127
17102,note_on,123,0,0,,2,,,62,127
17102,note_on,0,0,0,,7,,,67,127
17163,note_on,61,0,0,,12,,,71,127
17171,note_off,8,0,0,,0,,,72,127
17225,note_on,54,0,0,,0,,,72,127
17233,note_off,8,0,0,,12,,,71,127
17287,note_on,54,0,0,,12,,,71,127
17295,note_off,8,0,0,,0,,,72,127
17349,note_on,54,0,0,,0,,,72,127
17357,note_off,8,0,0,,12,,,71,127
17411,note_on,54,0,0,,12,,,71,127
17419,note_off,8,0,0,,0,,,72,127
17473,note_off,54,0,0,,7,,,67,127
17473,note_off,0,0,0,,2,,,62,127
17473,note_on,0,0,0,,2,,,62,127
17473,note_on,0,0,0,,7,,,67,127
17473,note_on,0,0,0,,0,,,72,127
17481,note_off,8,0,0,,12,,,71,127
17535,note_on,54,0,0,,12,,,71,127
17543,note_off,8,0,0,,0,,,72,127
17597,note_on,54,0,0,,0,,,72,127
17605,note_off,8,0,0,,12,,,71,127
17659,note_on,54,0,0,,12,,,71,127
17667,note_off,8,0,0,,0,,,72,127
17798,note_off,131,0,0,,12,,,71,127
17844,note_on,46,0,0,,6,,,78,127
17936,note_off,92,0,0,,7,,,67,127
17936,note_off,0,0,0,,2,,,62,127
17967,note_off,31,0,0,,6,,,78,127
17967,note_on,0,0,0,,4,,,76,127
18090,note_off,123,0,0,,4,,,76,127
18090,note_on,0,0,0,,2,,,74,127
18213,note_on,123,0,0,,2,,,62,127
18213,note_on,0,0,0,,10,,,69,127
18274,note_on,61,0,0,,0,,,72,127
18282,note_off,8,0,0,,2,,,74,127
18336,note_on,54,0,0,,2,,,74,127
18344,note_off,8,0,0,,0,,,72,127
18398,note_on,54,0,0,,0,,,72,127
18406,note_off,8,0,0,,2,,,74,127
18460,note_on,54,0,0,,2,,,74,127
18468,note_off,8,0,0,,0,,,72,127
18522,note_on,54,0,0,,0,,,72,127
18530,note_off,8,0,0,,2,,,74,127
18584,note_off,54,0,0,,10,,,69,127
18584,note_off,0,0,0,,2,,,62,127
18584,note_on,0,0,0,,10,,,69,127
18584,note_on,0,0,0,,2,,,62,127
18584,note_on,0,0,0,,2,,,74,127
18592,note_off,8,0,0,,0,,,72,127
18646,note_on,54,0,0,,0,,,72,127
18654,note_off,8,0,0,,2,,,74,127
18708,note_on,54,0,0,,2,,,74,127
18716,note_off,8,0,0,,0,,,72,127
18770,note_on,54,0,0,,0,,,72,127
18778,note_off,8,0,0,,2,,,74,127
18832,note_on,54,0,0,,12,,,71,127
18840,note_off,8,0,0,,0,,,72,127
18894,note_on,54,0,0,,0,,,72,127
18902,note_off,8,0,0,,12,,,71,127
18956,note_on,54,0,0,,4,,,76,127
18964,note_off,8,0,0,,0,,,72,127
19048,note_off,84,0,0,,2,,,62,127
19048,note_off,0,0,0,,10,,,69,127
19079,note_off,31,0,0,,4,,,76,127
19079,note_on,0,0,0,,2,,,74,127
19202,note_off,123,0,0,,2,,,74,127
19202,note_on,0,0,0,,0,,,72,127
19325,note_on,123,0,0,,2,,,62,127
19325,note_on,0,0,0,,7,,,67,127
19386,note_on,61,0,0,,12,,,71,127
19394,note_off,8,0,0,,0,,,72,127
19448,note_on,54,0,0,,0,,,72,127
19456,note_off,8,0,0,,12,,,71,127
19510,note_on,54,0,0,,12,,,71,127
19518,note_off,8,0,0,,0,,,72,127
19572,note_on,54,0,0,,0,,,72,127
19580,note_off,8,0,0,,12,,,71,127
19634,note_on,54,0,0,,12,,,71,127
19642,note_off,8,0,0,,0,,,72,127
19696,note_off,54,0,0,,7,,,67,127
19696,note_off,0,0,0,,2,,,62,127
19696,note_on,0,0,0,,2,,,62,127
19696,note_on,0,0,0,,7,,,67,127
19696,note_on,0,0,0,,0,,,72,127
19704,note_off,8,0,0,,12,,,71,127
19758,note_on,54,0,0,,12,,,71,127
19766,note_off,8,0,0,,0,,,72,127
19897,note_off,131,0,0,,12,,,71,127
20056,note_off,159,0,0,,7,,,67,127
20056,note_off,0,0,0,,2,,,62,127
20066,note_on,10,0,0,,8,,,80,127
20189,note_off,123,0,0,,8,,,80,127
20189,note_on,0,0,0,,6,,,78,127
20312,note_off,123,0,0,,6,,,78,127
20312,note_on,0,0,0,,4,,,76,127
20435,note_on,123,0,0,,4,,,64,127
20435,note_on,0,0,0,,12,,,71,127
20496,note_on,61,0,0,,2,,,74,127
20504,note_off,8,0,0,,4,,,76,127
20558,note_on,54,0,0,,4,,,76,127
20566,note_off,8,0,0,,2,,,74,127
20620,note_on,54,0,0,,2,,,74,127
20628,note_off,8,0,0,,4,,,76,127
20682,note_on,54,0,0,,4,,,76,127
20690,note_off,8,0,0,,2,,,74,127
20744,note_on,54,0,0,,2,,,74,127
20752,note_off,8,0,0,,4,,,76,127
20806,note_off,54,0,0,,12,,,71,127
20806,note_off,0,0,0,,4,,,64,127
20806,note_on,0,0,0,,4,,,64,127
20806,note_on,0,0,0,,12,,,71,127
20806,note_on,0,0,0,,4,,,76,127
20814,note_off,8,0,0,,2,,,74,127
20868,note_on,54,0,0,,2,,,74,127
20876,note_off,8,0,0,,4,,,76,127
20930,note_on,54,0,0,,4,,,76,127
20938,note_off,8,0,0,,2,,,74,127
20992,note_on,54,0,0,,2,,,74,127
21000,note_off,8,0,0,,4,,,76,127
21054,note_on,54,0,0,,0,,,72,127
21062,note_off,8,0,0,,2,,,74,127
21116,note_on,54,0,0,,2,,,74,127
21124,note_off,8,0,0,,0,,,72,127
21178,note_on,54,0,0,,5,,,77,127
21186,note_off,8,0,0,,2,,,74,127
21270,note_off,84,0,0,,12,,,71,127
21270,note_off,0,0,0,,4,,,64,127
21301,note_off,31,0,0,,5,,,77,127
21301,note_on,0,0,0,,4,,,76,127
21424,note_off,123,0,0,,4,,,76,127
21424,note_on,0,0,0,,2,,,74,127
21547,note_on,123,0,0,,4,,,64,127
21547,note_on,0,0,0,,10,,,69,127
21608,note_on,61,0,0,,0,,,72,127
21616,note_off,8,0,0,,2,,,74,127
21670,note_on,54,0,0,,2,,,74,127
21678,note_off,8,0,0,,0,,,72,127
21732,note_on,54,0,0,,0,,,72,127
21740,note_off,8,0,0,,2,,,74,127
21794,note_on,54,0,0,,2,,,74,127
21802,note_off,8,0,0,,0,,,72,127
21856,note_on,54,0,0,,0,,,72,127
21864,note_off,8,0,0,,2,,,74,127
21918,note_off,54,0,0,,10,,,69,127
21918,note_off,0,0,0,,4,,,64,127
21918,note_on,0,0,0,,4,,,64,127
21918,note_on,0,0,0,,10,,,69,127
21918,note_on,0,0,0,,2,,,74,127
21926,note_off,8,0,0,,0,,,72,127
21980,note_on,54,0,0,,0,,,72,127
21988,note_off,8,0,0,,2,,,74,127
22042,note_on,54,0,0,,2,,,74,127
22050,note_off,8,0,0,,0,,,72,127
22104,note_on,54,0,0,,0,,,72,127
22112,note_off,8,0,0,,2,,,74,127
22166,note_on,54,0,0,,2,,,74,127
22174,note_off,8,0,0,,0,,,72,127
22228,note_on,54,0,0,,0,,,72,127
22236,note_off,8,0,0,,2,,,74,127
22290,note_off,54,0,0,,10,,,69,127
22290,note_off,0,0,0,,4,,,64,127
22290,note_on,0,0,0,,4,,,64,127
22290,note_on,0,0,0,,8,,,80,127
22298,note_off,8,0,0,,0,,,72,127
22413,note_off,115,0,0,,8,,,80,127
22413,note_on,0,0,0,,12,,,83,127
22536,note_off,123,0,0,,12,,,83,127
22536,note_on,0,0,0,,10,,,81,127
22659,note_off,123,0,0,,10,,,81,127
22659,note_on,0,0,0,,4,,,52,127
22659,note_on,0,0,0,,8,,,80,127
22782,note_off,123,0,0,,8,,,80,127
22782,note_on,0,0,0,,5,,,77,127
22905,note_off,123,0,0,,5,,,77,127
22905,note_on,0,0,0,,4,,,76,127
23027,note_off,122,0,0,,4,,,64,127
23028,note_off,1,0,0,,4,,,76,127
23028,note_off,0,0,0,,4,,,52,127
23028,note_on,0,0,0,,8,,,68,127
23028,note_on,0,0,0,,2,,,74,127
23151,note_off,123,0,0,,2,,,74,127
23151,note_on,0,0,0,,0,,,72,127
23274,note_off,123,0,0,,0,,,72,127
23274,note_on,0,0,0,,12,,,71,127
23397,note_off,123,0,0,,12,,,71,127
23397,note_off,0,0,0,,8,,,68,127
23397,note_on,0,0,0,,10,,,69,127
23397,note_on,0,0,0,,2,,,74,127
23458,note_on,61,0,0,,0,,,72,127
23466,note_off,8,0,0,,2,,,74,127
23520,note_on,54,0,0,,2,,,74,127
23528,note_off,8,0,0,,0,,,72,127
23582,note_on,54,0,0,,0,,,72,127
23590,note_off,8,0,0,,2,,,74,127
23644,note_on,54,0,0,,2,,,74,127
23652,note_off,8,0,0,,0,,,72,127
23706,note_on,54,0,0,,0,,,72,127
23714,note_off,8,0,0,,2,,,74,127
23768,note_off,54,0,0,,10,,,69,127
23768,note_on,0,0,0,,10,,,57,127
23768,note_on,0,0,0,,2,,,74,127
23776,note_off,8,0,0,,0,,,72,127
23830,note_on,54,0,0,,0,,,72,127
23838,note_off,8,0,0,,2,,,74,127
23892,note_on,54,0,0,,2,,,74,127
23900,note_off,8,0,0,,0,,,72,127
23954,note_on,54,0,0,,0,,,72,127
23962,note_off,8,0,0,,2,,,74,127
24016,note_on,54,0,0,,12,,,71,127
24024,note_off,8,0,0,,0,,,72,127
24139,note_off,115,0,0,,12,,,71,127
24139,note_off,0,0,0,,10,,,57,127
24139,note_on,0,0,0,,10,,,45,127
24139,note_on,0,0,0,,10,,,69,127
24507,note_off,368,0,0,,10,,,69,127
24508,note_off,1,0,0,,10,,,45,127
24508,note_on,0,0,0,,10,,,57,127
24631,note_on,123,0,0,,0,,,84,127
24754,note_off,123,0,0,,0,,,84,127
24754,note_on,0,0,0,,11,,,82,127
24877,note_off,123,0,0,,11,,,82,127
24877,note_on,0,0,0,,11,,,82,127
25000,note_off,123,0,0,,11,,,82,127
25000,note_on,0,0,0,,10,,,81,127
25123,note_off,123,0,0,,10,,,81,127
25123,note_off,0,0,0,,10,,,57,127
25123,note_on,0,0,0,,7,,,79,127
25246,note_off,123,0,0,,7,,,79,127
25246,note_on,0,0,0,,7,,,79,127
25369,note_off,123,0,0,,7,,,79,127
25369,note_on,0,0,0,,6,,,78,127
25492,note_off,123,0,0,,6,,,78,127
25492,note_on,0,0,0,,7,,,79,127
25615,note_off,123,0,0,,7,,,79,127
25615,note_on,0,0,0,,6,,,78,127
25738,note_off,123,0,0,,6,,,78,127
25738,note_on,0,0,0,,7,,,79,127
25861,note_off,123,0,0,,7,,,79,127
25861,note_on,0,0,0,,10,,,81,127
25984,note_off,123,0,0,,10,,,81,127
25984,note_on,0,0,0,,0,,,72,127
25984,note_on,0,0,0,,3,,,75,127
26107,note_on,123,0,0,,2,,,62,127
26167,note_off,60,0,0,,0,,,72,127
26230,note_off,63,0,0,,2,,,62,127
26230,note_on,0,0,0,,0,,,72,127
26353,note_off,123,0,0,,0,,,72,127
26353,note_on,0,0,0,,0,,,72,127
26476,note_on,123,0,0,,2,,,62,127
26536,note_off,60,0,0,,0,,,72,127
26599,note_off,63,0,0,,2,,,62,127
26599,note_on,0,0,0,,0,,,72,127
26722,note_off,123,0,0,,0,,,72,127
26722,note_off,0,0,0,,3,,,75,127
26722,note_on,0,0,0,,11,,,70,127
26722,note_on,0,0,0,,2,,,74,127
26845,note_on,123,0,0,,2,,,62,127
26905,note_off,60,0,0,,11,,,70,127
26968,note_off,63,0,0,,2,,,62,127
26968,note_on,0,0,0,,11,,,70,127
27091,note_off,123,0,0,,11,,,70,127
27091,note_on,0,0,0,,11,,,70,127
27214,note_on,123,0,0,,2,,,62,127
27274,note_off,60,0,0,,11,,,70,127
27337,note_off,63,0,0,,2,,,62,127
27337,note_on,0,0,0,,11,,,70,127
27460,note_off,123,0,0,,11,,,70,127
27460,note_off,0,0,0,,2,,,74,127
27460,note_on,0,0,0,,10,,,69,127
27460,note_on,0,0,0,,0,,,72,127
27583,note_on,123,0,0,,2,,,62,127
27643,note_off,60,0,0,,10,,,69,127
27706,note_off,63,0,0,,2,,,62,127
27706,note_on,0,0,0,,10,,,69,127
27829,note_off,123,0,0,,10,,,69,127
27829,note_off,0,0,0,,0,,,72,127
27829,note_on,0,0,0,,7,,,67,127
27829,note_on,0,0,0,,0,,,72,127
27890,note_on,61,0,0,,11,,,70,127
27898,note_off,8,0,0,,0,,,72,127
27952,note_on,54,0,0,,0,,,72,127
27960,note_off,8,0,0,,11,,,70,127
28014,note_on,54,0,0,,11,,,70,127
28022,note_off,8,0,0,,0,,,72,127
28076,note_on,54,0,0,,0,,,72,127
28084,note_off,8,0,0,,11,,,70,127
28138,note_on,54,0,0,,11,,,70,127
28146,note_off,8,0,0,,0,,,72,127
28200,note_off,54,0,0,,7,,,67,127
28200,note_on,0,0,0,,7,,,55,127
28200,note_on,0,0,0,,0,,,72,127
28208,note_off,8,0,0,,11,,,70,127
28262,note_on,54,0,0,,11,,,70,127
28270,note_off,8,0,0,,0,,,72,127
28324,note_on,54,0,0,,0,,,72,127
28332,note_off,8,0,0,,11,,,70,127
28386,note_on,54,0,0,,11,,,70,127
28394,note_off,8,0,0,,0,,,72,127
28478,note_off,84,0,0,,11,,,70,127
28479,note_on,1,0,0,,10,,,69,127
28570,note_off,91,0,0,,10,,,69,127
28571,note_off,1,0,0,,7,,,55,127
28571,note_on,0,0,0,,7,,,43,127
28571,note_on,0,0,0,,7,,,67,127
28940,note_off,369,0,0,,7,,,43,127
28940,note_on,0,0,0,,7,,,55,127
29032,note_off,92,0,0,,7,,,67,127
29063,note_on,31,0,0,,11,,,82,127
29186,note_off,123,0,0,,11,,,82,127
29186,note_on,0,0,0,,10,,,81,127
29309,note_off,123,0,0,,10,,,81,127
29309,note_on,0,0,0,,10,,,81,127
29432,note_off,123,0,0,,10,,,81,127
29432,note_on,0,0,0,,7,,,79,127
29555,note_off,123,0,0,,7,,,79,127
29555,note_off,0,0,0,,7,,,55,127
29555,note_on,0,0,0,,5,,,77,127
29678,note_off,123,0,0,,5,,,77,127
29678,note_on,0,0,0,,5,,,77,127
29801,note_off,123,0,0,,5,,,77,127
29801,note_on,0,0,0,,4,,,76,127
29924,note_off,123,0,0,,4,,,76,127
29924,note_on,0,0,0,,5,,,77,127
30047,note_off,123,0,0,,5,,,77,127
30047,note_on,0,0,0,,4,,,76,127
30170,note_off,123,0,0,,4,,,76,127
30170,note_on,0,0,0,,5,,,77,127
30293,note_off,123,0,0,,5,,,77,127
30293,note_on,0,0,0,,7,,,79,127
30416,note_off,123,0,0,,7,,,79,127
30416,note_on,0,0,0,,11,,,70,127
30416,note_on,0,0,0,,2,,,74,127
30539,note_on,123,0,0,,0,,,60,127
30599,note_off,60,0,0,,11,,,70,127
30662,note_off,63,0,0,,0,,,60,127
30662,note_on,0,0,0,,11,,,70,127
30785,note_off,123,0,0,,11,,,70,127
30785,note_on,0,0,0,,11,,,70,127
30908,note_on,123,0,0,,0,,,60,127
30968,note_off,60,0,0,,11,,,70,127
31031,note_off,63,0,0,,0,,,60,127
31031,note_on,0,0,0,,11,,,70,127
31154,note_off,123,0,0,,11,,,70,127
31154,note_off,0,0,0,,2,,,74,127
31154,note_on,0,0,0,,10,,,69,127
31154,note_on,0,0,0,,0,,,72,127
31277,note_on,123,0,0,,0,,,60,127
31337,note_off,60,0,0,,10,,,69,127
31400,note_off,63,0,0,,0,,,60,127
31400,note_on,0,0,0,,10,,,69,127
31523,note_off,123,0,0,,10,,,69,127
31523,note_on,0,0,0,,10,,,69,127
31646,note_on,123,0,0,,0,,,60,127
31706,note_off,60,0,0,,10,,,69,127
31769,note_off,63,0,0,,0,,,60,127
31769,note_on,0,0,0,,10,,,69,127
31892,note_off,123,0,0,,10,,,69,127
31892,note_off,0,0,0,,0,,,72,127
31892,note_on,0,0,0,,7,,,67,127
31892,note_on,0,0,0,,11,,,70,127
32015,note_on,123,0,0,,0,,,60,127
32075,note_off,60,0,0,,7,,,67,127
32138,note_off,63,0,0,,0,,,60,127
32138,note_on,0,0,0,,7,,,67,127
32261,note_off,123,0,0,,7,,,67,127
32261,note_off,0,0,0,,11,,,70,127
32261,note_on,0,0,0,,5,,,65,127
32261,note_on,0,0,0,,11,,,70,127
32322,note_on,61,0,0,,10,,,69,127
32330,note_off,8,0,0,,11,,,70,127
32384,note_on,54,0,0,,11,,,70,127
32392,note_off,8,0,0,,10,,,69,127
32446,note_on,54,0,0,,10,,,69,127
32454,note_off,8,0,0,,11,,,70,127
32508,note_on,54,0,0,,11,,,70,127
32516,note_off,8,0,0,,10,,,69,127
32570,note_on,54,0,0,,10,,,69,127
32578,note_off,8,0,0,,11,,,70,127
32632,note_off,54,0,0,,5,,,65,127
32632,note_on,0,0,0,,5,,,53,127
32632,note_on,0,0,0,,11,,,70,127
32640,note_off,8,0,0,,10,,,69,127
32694,note_on,54,0,0,,10,,,69,127
32702,note_off,8,0,0,,11,,,70,127
32756,note_on,54,0,0,,11,,,70,127
32764,note_off,8,0,0,,10,,,69,127
32818,note_on,54,0,0,,10,,,69,127
32826,note_off,8,0,0,,11,,,70,127
32910,note_off,84,0,0,,10,,,69,127
32911,note_on,1,0,0,,7,,,67,127
33002,note_off,91,0,0,,7,,,67,127
33003,note_off,1,0,0,,5,,,53,127
33003,note_on,0,0,0,,5,,,41,127
33003,note_on,0,0,0,,5,,,65,127
33329,note_off,326,0,0,,5,,,65,127
33371,note_off,42,0,0,,5,,,41,127
33371,note_on,0,0,0,,10,,,69,127
33371,note_on,0,0,0,,5,,,65,127
33371,note_on,0,0,0,,8,,,80,127
33494,note_off,123,0,0,,8,,,80,127
33494,note_on,0,0,0,,10,,,81,127
33617,note_off,123,0,0,,10,,,81,127
33617,note_on,0,0,0,,4,,,76,127
33740,note_off,123,0,0,,4,,,76,127
33740,note_off,0,0,0,,5,,,65,127
33740,note_off,0,0,0,,10,,,69,127
33740,note_on,0,0,0,,10,,,69,127
33740,note_on,0,0,0,,5,,,65,127
33740,note_on,0,0,0,,5,,,77,127
33863,note_off,123,0,0,,5,,,77,127
33863,note_on,0,0,0,,7,,,79,127
33986,note_off,123,0,0,,7,,,79,127
33986,note_on,0,0,0,,1,,,73,127
34109,note_off,123,0,0,,1,,,73,127
34109,note_off,0,0,0,,5,,,65,127
34109,note_off,0,0,0,,10,,,69,127
34109,note_on,0,0,0,,5,,,65,127
34109,note_on,0,0,0,,10,,,69,127
34109,note_on,0,0,0,,2,,,74,127
34232,note_off,123,0,0,,2,,,74,127
34232,note_on,0,0,0,,4,,,76,127
34355,note_off,123,0,0,,4,,,76,127
34355,note_on,0,0,0,,5,,,77,127
34478,note_off,123,0,0,,5,,,77,127
34478,note_off,0,0,0,,10,,,69,127
34478,note_off,0,0,0,,5,,,65,127
34478,note_on,0,0,0,,4,,,64,127
34478,note_on,0,0,0,,7,,,67,127
34478,note_on,0,0,0,,6,,,78,127
34601,note_off,123,0,0,,6,,,78,127
34601,note_on,0,0,0,,7,,,79,127
34724,note_off,123,0,0,,7,,,79,127
34724,note_on,0,0,0,,2,,,74,127
34847,note_off,123,0,0,,2,,,74,127
34847,note_off,0,0,0,,7,,,67,127
34847,note_off,0,0,0,,4,,,64,127
34847,note_on,0,0,0,,7,,,67,127
34847,note_on,0,0,0,,4,,,64,127
34847,note_on,0,0,0,,4,,,76,127
34970,note_off,123,0,0,,4,,,76,127
34970,note_on,0,0,0,,5,,,77,127
35093,note_off,123,0,0,,5,,,77,127
35093,note_on,0,0,0,,12,,,71,127
35216,note_off,123,0,0,,12,,,71,127
35216,note_off,0,0,0,,4,,,64,127
35216,note_off,0,0,0,,7,,,67,127
35216,note_on,0,0,0,,4,,,64,127
35216,note_on,0,0,0,,7,,,67,127
35216,note_on,0,0,0,,0,,,72,127
35339,note_off,123,0,0,,0,,,72,127
35339,note_on,0,0,0,,2,,,74,127
35462,note_off,123,0,0,,2,,,74,127
35462,note_on,0,0,0,,4,,,76,127
35585,note_off,123,0,0,,7,,,67,127
35585,note_off,0,0,0,,4,,,64,127
35585,note_on,0,0,0,,5,,,65,127
35585,note_on,0,0,0,,2,,,62,127
35708,note_off,123,0,0,,4,,,76,127
35708,note_on,0,0,0,,2,,,74,127
35831,note_off,123,0,0,,2,,,74,127
35831,note_on,0,0,0,,0,,,72,127
35954,note_off,123,0,0,,0,,,72,127
35954,note_off,0,0,0,,2,,,62,127
35954,note_off,0,0,0,,5,,,65,127
35954,note_on,0,0,0,,7,,,55,127
35954,note_on,0,0,0,,12,,,71,127
36077,note_off,123,0,0,,12,,,71,127
36077,note_on,0,0,0,,10,,,69,127
36200,note_off,123,0,0,,10,,,69,127
36200,note_on,0,0,0,,7,,,67,127
36323,note_off,123,0,0,,7,,,67,127
36323,note_off,0,0,0,,7,,,55,127
36323,note_on,0,0,0,,12,,,59,127
36323,note_on,0,0,0,,5,,,65,127
36446,note_off,123,0,0,,5,,,65,127
36446,note_on,0,0,0,,4,,,64,127
36569,note_off,123,0,0,,4,,,64,127
36569,note_on,0,0,0,,5,,,65,127
36692,note_off,123,0,0,,5,,,65,127
36692,note_off,0,0,0,,12,,,59,127
36692,note_on,0,0,0,,0,,,60,127
36692,note_on,0,0,0,,7,,,67,127
36753,note_on,61,0,0,,5,,,65,127
36761,note_off,8,0,0,,7,,,67,127
36815,note_on,54,0,0,,7,,,67,127
36823,note_off,8,0,0,,5,,,65,127
36877,note_on,54,0,0,,5,,,65,127
36885,note_off,8,0,0,,7,,,67,127
36939,note_on,54,0,0,,7,,,67,127
36947,note_off,8,0,0,,5,,,65,127
37001,note_on,54,0,0,,5,,,65,127
37009,note_off,8,0,0,,7,,,67,127
37063,note_off,54,0,0,,0,,,60,127
37063,note_on,0,0,0,,0,,,48,127
37063,note_on,0,0,0,,7,,,67,127
37071,note_off,8,0,0,,5,,,65,127
37125,note_on,54,0,0,,5,,,65,127
37133,note_off,8,0,0,,7,,,67,127
37187,note_on,54,0,0,,7,,,67,127
37195,note_off,8,0,0,,5,,,65,127
37249,note_on,54,0,0,,5,,,65,127
37257,note_off,8,0,0,,7,,,67,127
37311,note_on,54,0,0,,4,,,64,127
37319,note_off,8,0,0,,5,,,65,127
37373,note_on,54,0,0,,5,,,65,127
37381,note_off,8,0,0,,4,,,64,127
37435,note_off,54,0,0,,0,,,48,127
37435,note_on,0,0,0,,0,,,36,127
37435,note_on,0,0,0,,4,,,64,127
37443,note_off,8,0,0,,5,,,65,127
37803,note_off,360,0,0,,4,,,64,127
37804,note_off,1,0,0,,0,,,36,127
37804,note_on,0,0,0,,0,,,60,127
37927,note_on,123,0,0,,0,,,72,127
38050,note_off,123,0,0,,0,,,72,127
38050,note_on,0,0,0,,2,,,74,127
38173,note_off,123,0,0,,2,,,74,127
38173,note_on,0,0,0,,4,,,76,127
38296,note_off,123,0,0,,4,,,76,127
38296,note_on,0,0,0,,7,,,79,127
38419,note_off,123,0,0,,7,,,79,127
38419,note_on,0,0,0,,2,,,74,127
38542,note_off,123,0,0,,0,,,60,127
38542,note_on,0,0,0,,10,,,69,127
38603,note_on,61,0,0,,0,,,72,127
38611,note_off,8,0,0,,2,,,74,127
38665,note_on,54,0,0,,2,,,74,127
38673,note_off,8,0,0,,0,,,72,127
38727,note_on,54,0,0,,0,,,72,127
38735,note_off,8,0,0,,2,,,74,127
38789,note_on,54,0,0,,2,,,74,127
38797,note_off,8,0,0,,0,,,72,127
38851,note_on,54,0,0,,0,,,72,127
38859,note_off,8,0,0,,2,,,74,127
38913,note_off,54,0,0,,10,,,69,127
38913,note_on,0,0,0,,7,,,67,127
38990,note_off,77,0,0,,0,,,72,127
39036,note_on,46,0,0,,12,,,71,127
39159,note_off,123,0,0,,12,,,71,127
39159,note_on,0,0,0,,0,,,72,127
39282,note_off,123,0,0,,0,,,72,127
39282,note_off,0,0,0,,7,,,67,127
39282,note_on,0,0,0,,7,,,67,127
39282,note_on,0,0,0,,2,,,74,127
39405,note_off,123,0,0,,2,,,74,127
39405,note_on,0,0,0,,5,,,77,127
39528,note_off,123,0,0,,5,,,77,127
39528,note_on,0,0,0,,0,,,72,127
39651,note_off,123,0,0,,7,,,67,127
39651,note_on,0,0,0,,5,,,65,127
39712,note_on,61,0,0,,12,,,71,127
39720,note_off,8,0,0,,0,,,72,127
39774,note_on,54,0,0,,0,,,72,127
39782,note_off,8,0,0,,12,,,71,127
39836,note_on,54,0,0,,12,,,71,127
39844,note_off,8,0,0,,0,,,72,127
39898,note_on,54,0,0,,0,,,72,127
39906,note_off,8,0,0,,12,,,71,127
39960,note_on,54,0,0,,12,,,71,127
39968,note_off,8,0,0,,0,,,72,127
40022,note_off,54,0,0,,5,,,65,127
40022,note_on,0,0,0,,4,,,64,127
40030,note_off,8,0,0,,12,,,71,127
40145,note_on,115,0,0,,0,,,72,127
40268,note_off,123,0,0,,0,,,72,127
40268,note_on,0,0,0,,2,,,74,127
40391,note_off,123,0,0,,2,,,74,127
40391,note_off,0,0,0,,4,,,64,127
40391,note_on,0,0,0,,0,,,60,127
40391,note_on,0,0,0,,4,,,76,127
40514,note_off,123,0,0,,4,,,76,127
40514,note_on,0,0,0,,7,,,79,127
40637,note_off,123,0,0,,7,,,79,127
40637,note_on,0,0,0,,2,,,74,127
40760,note_off,123,0,0,,0,,,60,127
40760,note_on,0,0,0,,10,,,69,127
40821,note_on,61,0,0,,0,,,72,127
40829,note_off,8,0,0,,2,,,74,127
40883,note_on,54,0,0,,2,,,74,127
40891,note_off,8,0,0,,0,,,72,127
40945,note_on,54,0,0,,0,,,72,127
40953,note_off,8,0,0,,2,,,74,127
41007,note_on,54,0,0,,2,,,74,127
41015,note_off,8,0,0,,0,,,72,127
41069,note_on,54,0,0,,0,,,72,127
41077,note_off,8,0,0,,2,,,74,127
41131,note_off,54,0,0,,10,,,69,127
41131,note_on,0,0,0,,7,,,67,127
41185,note_off,54,0,0,,0,,,72,127
41254,note_on,69,0,0,,12,,,71,127
41377,note_off,123,0,0,,12,,,71,127
41377,note_on,0,0,0,,0,,,72,127
41500,note_off,123,0,0,,0,,,72,127
41500,note_on,0,0,0,,2,,,74,127
41623,note_off,123,0,0,,2,,,74,127
41623,note_on,0,0,0,,5,,,77,127
41746,note_off,123,0,0,,5,,,77,127
41746,note_on,0,0,0,,0,,,72,127
41869,note_off,123,0,0,,7,,,67,127
41869,note_on,0,0,0,,5,,,65,127
41930,note_on,61,0,0,,12,,,71,127
41938,note_off,8,0,0,,0,,,72,127
41992,note_on,54,0,0,,0,,,72,127
42000,note_off,8,0,0,,12,,,71,127
42054,note_on,54,0,0,,12,,,71,127
42062,note_off,8,0,0,,0,,,72,127
42116,note_on,54,0,0,,0,,,72,127
42124,note_off,8,0,0,,12,,,71,127
42178,note_on,54,0,0,,12,,,71,127
42186,note_off,8,0,0,,0,,,72,127
42240,note_off,54,0,0,,5,,,65,127
42240,note_on,0,0,0,,4,,,64,127
42294,note_off,54,0,0,,12,,,71,127
42363,note_on,69,0,0,,0,,,72,127
42486,note_off,123,0,0,,0,,,72,127
42486,note_on,0,0,0,,2,,,74,127
42609,note_off,123,0,0,,2,,,74,127
42609,note_off,0,0,0,,4,,,64,127
42609,note_on,0,0,0,,0,,,60,127
42609,note_on,0,0,0,,4,,,76,127
42732,note_off,123,0,0,,4,,,76,127
42732,note_on,0,0,0,,5,,,77,127
42855,note_off,123,0,0,,5,,,77,127
42855,note_on,0,0,0,,7,,,79,127
42978,note_off,123,0,0,,7,,,79,127
42978,note_off,0,0,0,,0,,,60,127
42978,note_on,0,0,0,,4,,,64,127
42978,note_on,0,0,0,,7,,,79,127
43101,note_off,123,0,0,,7,,,79,127
43101,note_on,0,0,0,,10,,,81,127
43224,note_off,123,0,0,,10,,,81,127
43224,note_on,0,0,0,,11,,,82,127
43347,note_off,123,0,0,,11,,,82,127
43347,note_off,0,0,0,,4,,,64,127
43347,note_on,0,0,0,,5,,,65,127
43347,note_on,0,0,0,,10,,,81,127
43470,note_off,123,0,0,,10,,,81,127
43470,note_on,0,0,0,,7,,,79,127
43593,note_off,123,0,0,,7,,,79,127
43593,note_on,0,0,0,,5,,,77,127
43716,note_off,123,0,0,,5,,,77,127
43716,note_off,0,0,0,,5,,,65,127
43716,note_on,0,0,0,,7,,,67,127
43716,note_on,0,0,0,,4,,,76,127
43839,note_off,123,0,0,,4,,,76,127
43839,note_on,0,0,0,,2,,,74,127
43962,note_off,123,0,0,,2,,,74,127
43962,note_on,0,0,0,,0,,,72,127
44085,note_off,123,0,0,,0,,,72,127
44085,note_off,0,0,0,,7,,,67,127
44085,note_on,0,0,0,,7,,,55,127
44085,note_on,0,0,0,,4,,,76,127
44146,note_on,61,0,0,,2,,,74,127
44154,note_off,8,0,0,,4,,,76,127
44208,note_on,54,0,0,,4,,,76,127
44216,note_off,8,0,0,,2,,,74,127
44270,note_on,54,0,0,,2,,,74,127
44278,note_off,8,0,0,,4,,,76,127
44332,note_on,54,0,0,,4,,,76,127
44340,note_off,8,0,0,,2,,,74,127
44394,note_on,54,0,0,,2,,,74,127
44402,note_off,8,0,0,,4,,,76,127
44446,note_off,44,0,0,,7,,,55,127
44463,note_off,17,0,0,,2,,,74,127
45193,note_on,730,0,0,,0,,,60,127
45316,note_on,123,0,0,,0,,,72,127
45439,note_off,123,0,0,,0,,,72,127
45439,note_on,0,0,0,,2,,,74,127
45562,note_off,123,0,0,,2,,,74,127
45562,note_on,0,0,0,,3,,,75,127
45685,note_off,123,0,0,,3,,,75,127
45685,note_on,0,0,0,,7,,,79,127
45808,note_off,123,0,0,,7,,,79,127
45808,note_on,0,0,0,,2,,,74,127
45931,note_off,123,0,0,,0,,,60,127
45931,note_on,0,0,0,,8,,,68,127
45992,note_on,61,0,0,,0,,,72,127
46000,note_off,8,0,0,,2,,,74,127
46054,note_on,54,0,0,,2,,,74,127
46062,note_off,8,0,0,,0,,,72,127
46116,note_on,54,0,0,,0,,,72,127
46124,note_off,8,0,0,,2,,,74,127
46178,note_on,54,0,0,,2,,,74,127
46186,note_off,8,0,0,,0,,,72,127
46240,note_on,54,0,0,,0,,,72,127
46248,note_off,8,0,0,,2,,,74,127
46302,note_off,54,0,0,,8,,,68,127
46302,note_on,0,0,0,,7,,,67,127
46425,note_off,123,0,0,,0,,,72,127
46425,note_on,0,0,0,,12,,,71,127
46548,note_off,123,0,0,,12,,,71,127
46548,note_on,0,0,0,,0,,,72,127
46671,note_off,123,0,0,,0,,,72,127
46671,note_off,0,0,0,,7,,,67,127
46671,note_on,0,0,0,,7,,,67,127
46671,note_on,0,0,0,,2,,,74,127
46794,note_off,123,0,0,,2,,,74,127
46794,note_on,0,0,0,,5,,,77,127
46917,note_off,123,0,0,,5,,,77,127
46917,note_on,0,0,0,,0,,,72,127
47040,note_off,123,0,0,,7,,,67,127
47040,note_on,0,0,0,,5,,,65,127
47101,note_on,61,0,0,,12,,,71,127
47109,note_off,8,0,0,,0,,,72,127
47163,note_on,54,0,0,,0,,,72,127
47171,note_off,8,0,0,,12,,,71,127
47225,note_on,54,0,0,,12,,,71,127
47233,note_off,8,0,0,,0,,,72,127
47287,note_on,54,0,0,,0,,,72,127
47295,note_off,8,0,0,,12,,,71,127
47349,note_on,54,0,0,,12,,,71,127
47357,note_off,8,0,0,,0,,,72,127
47411,note_off,54,0,0,,5,,,65,127
47411,note_on,0,0,0,,3,,,63,127
47488,note_off,77,0,0,,12,,,71,127
47534,note_on,46,0,0,,0,,,72,127
47657,note_off,123,0,0,,0,,,72,127
47657,note_on,0,0,0,,2,,,74,127
47780,note_off,123,0,0,,2,,,74,127
47780,note_off,0,0,0,,3,,,63,127
47780,note_on,0,0,0,,0,,,60,127
47780,note_on,0,0,0,,3,,,75,127
47903,note_off,123,0,0,,3,,,75,127
47903,note_on,0,0,0,,7,,,79,127
48026,note_off,123,0,0,,7,,,79,127
48026,note_on,0,0,0,,2,,,74,127
48149,note_off,123,0,0,,0,,,60,127
48149,note_on,0,0,0,,8,,,68,127
48210,note_on,61,0,0,,0,,,72,127
48218,note_off,8,0,0,,2,,,74,127
48272,note_on,54,0,0,,2,,,74,127
48280,note_off,8,0,0,,0,,,72,127
48334,note_on,54,0,0,,0,,,72,127
48342,note_off,8,0,0,,2,,,74,127
48396,note_on,54,0,0,,2,,,74,127
48404,note_off,8,0,0,,0,,,72,127
48458,note_on,54,0,0,,0,,,72,127
48466,note_off,8,0,0,,2,,,74,127
48520,note_off,54,0,0,,8,,,68,127
48520,note_on,0,0,0,,7,,,67,127
48643,note_off,123,0,0,,0,,,72,127
48643,note_on,0,0,0,,12,,,71,127
48766,note_off,123,0,0,,12,,,71,127
48766,note_on,0,0,0,,0,,,72,127
48889,note_off,123,0,0,,0,,,72,127
48889,note_off,0,0,0,,7,,,67,127
48889,note_on,0,0,0,,7,,,67,127
48889,note_on,0,0,0,,2,,,74,127
49012,note_off,123,0,0,,2,,,74,127
49012,note_on,0,0,0,,5,,,77,127
49135,note_off,123,0,0,,5,,,77,127
49135,note_on,0,0,0,,0,,,72,127
49258,note_off,123,0,0,,7,,,67,127
49258,note_on,0,0,0,,5,,,65,127
49319,note_on,61,0,0,,12,,,71,127
49327,note_off,8,0,0,,0,,,72,127
49381,note_on,54,0,0,,0,,,72,127
49389,note_off,8,0,0,,12,,,71,127
49443,note_on,54,0,0,,12,,,71,127
49451,note_off,8,0,0,,0,,,72,127
49505,note_on,54,0,0,,0,,,72,127
49513,note_off,8,0,0,,12,,,71,127
49567,note_on,54,0,0,,12,,,71,127
49575,note_off,8,0,0,,0,,,72,127
49629,note_off,54,0,0,,5,,,65,127
49629,note_on,0,0,0,,3,,,63,127
49690,note_off,61,0,0,,12,,,71,127
49751,note_on,61,0,0,,0,,,72,127
49874,note_off,123,0,0,,0,,,72,127
49874,note_on,0,0,0,,2,,,74,127
49997,note_off,123,0,0,,2,,,74,127
49997,note_off,0,0,0,,3,,,63,127
49997,note_on,0,0,0,,0,,,60,127
49997,note_on,0,0,0,,3,,,75,127
50120,note_off,123,0,0,,3,,,75,127
50120,note_on,0,0,0,,5,,,77,127
50243,note_off,123,0,0,,5,,,77,127
50243,note_on,0,0,0,,7,,,79,127
50366,note_off,123,0,0,,7,,,79,127
50366,note_off,0,0,0,,0,,,60,127
50366,note_on,0,0,0,,3,,,63,127
50366,note_on,0,0,0,,7,,,79,127
50489,note_off,123,0,0,,7,,,79,127
50489,note_on,0,0,0,,8,,,80,127
50612,note_off,123,0,0,,8,,,80,127
50612,note_on,0,0,0,,11,,,82,127
50735,note_off,123,0,0,,11,,,82,127
50735,note_off,0,0,0,,3,,,63,127
50735,note_on,0,0,0,,5,,,65,127
50735,note_on,0,0,0,,8,,,80,127
50858,note_off,123,0,0,,8,,,80,127
50858,note_on,0,0,0,,7,,,79,127
50981,note_off,123,0,0,,7,,,79,127
50981,note_on,0,0,0,,5,,,77,127
51104,note_off,123,0,0,,5,,,77,127
51104,note_off,0,0,0,,5,,,65,127
51104,note_on,0,0,0,,7,,,67,127
51104,note_on,0,0,0,,3,,,75,127
51227,note_off,123,0,0,,3,,,75,127
51227,note_on,0,0,0,,2,,,74,127
51350,note_off,123,0,0,,2,,,74,127
51350,note_on,0,0,0,,0,,,72,127
51473,note_off,123,0,0,,0,,,72,127
51473,note_off,0,0,0,,7,,,67,127
51473,note_on,0,0,0,,7,,,55,127
51473,note_on,0,0,0,,3,,,75,127
51534,note_on,61,0,0,,2,,,74,127
51542,note_off,8,0,0,,3,,,75,127
51596,note_on,54,0,0,,3,,,75,127
51604,note_off,8,0,0,,2,,,74,127
51658,note_on,54,0,0,,2,,,74,127
51666,note_off,8,0,0,,3,,,75,127
51750,note_off,84,0,0,,2,,,74,127
51842,note_off,92,0,0,,7,,,55,127
52211,note_on,369,0,0,,0,,,48,127
52211,note_on,0,0,0,,0,,,60,127
52334,note_on,123,0,0,,4,,,76,127
52457,note_off,123,0,0,,4,,,76,127
52457,note_on,0,0,0,,5,,,77,127
52579,note_off,122,0,0,,0,,,60,127
52580,note_off,1,0,0,,5,,,77,127
52580,note_on,0,0,0,,7,,,79,127
52703,note_off,123,0,0,,7,,,79,127
52703,note_on,0,0,0,,0,,,84,127
52826,note_off,123,0,0,,0,,,84,127
52826,note_on,0,0,0,,7,,,79,127
52949,note_off,123,0,0,,7,,,79,127
52949,note_off,0,0,0,,0,,,48,127
52949,note_on,0,0,0,,4,,,52,127
52949,note_on,0,0,0,,0,,,60,127
52949,note_on,0,0,0,,10,,,81,127
53010,note_on,61,0,0,,7,,,79,127
53018,note_off,8,0,0,,10,,,81,127
53072,note_on,54,0,0,,10,,,81,127
53080,note_off,8,0,0,,7,,,79,127
53134,note_on,54,0,0,,7,,,79,127
53142,note_off,8,0,0,,10,,,81,127
53196,note_on,54,0,0,,5,,,77,127
53204,note_off,8,0,0,,7,,,79,127
53258,note_on,54,0,0,,7,,,79,127
53266,note_off,8,0,0,,5,,,77,127
53320,note_off,54,0,0,,0,,,60,127
53320,note_off,0,0,0,,4,,,52,127
53320,note_on,0,0,0,,5,,,53,127
53320,note_on,0,0,0,,0,,,60,127
53320,note_on,0,0,0,,10,,,81,127
53328,note_off,8,0,0,,7,,,79,127
53443,note_off,115,0,0,,10,,,81,127
53443,note_on,0,0,0,,5,,,77,127
53566,note_off,123,0,0,,5,,,77,127
53566,note_on,0,0,0,,2,,,74,127
53689,note_off,123,0,0,,2,,,74,127
53689,note_off,0,0,0,,0,,,60,127
53689,note_off,0,0,0,,5,,,53,127
53689,note_on,0,0,0,,7,,,55,127
53689,note_on,0,0,0,,4,,,64,127
53689,note_on,0,0,0,,0,,,72,127
54058,note_off,369,0,0,,0,,,72,127
54058,note_off,0,0,0,,4,,,64,127
54058,note_off,0,0,0,,7,,,55,127
54058,note_on,0,0,0,,2,,,62,127
54058,note_on,0,0,0,,12,,,71,127
54384,note_off,326,0,0,,12,,,71,127
54426,note_off,42,0,0,,2,,,62,127
54426,note_on,0,0,0,,0,,,60,127
54426,note_on,0,0,0,,0,,,48,127
54549,note_on,123,0,0,,3,,,75,127
54672,note_off,123,0,0,,3,,,75,127
54672,note_on,0,0,0,,5,,,77,127
54795,note_off,123,0,0,,5,,,77,127
54795,note_on,0,0,0,,7,,,79,127
54918,note_off,123,0,0,,7,,,79,127
54918,note_on,0,0,0,,0,,,84,127
55041,note_off,123,0,0,,0,,,84,127
55041,note_on,0,0,0,,7,,,79,127
55164,note_off,123,0,0,,7,,,79,127
55164,note_off,0,0,0,,0,,,48,127
55164,note_off,0,0,0,,0,,,60,127
55164,note_on,0,0,0,,3,,,51,127
55164,note_on,0,0,0,,0,,,60,127
55164,note_on,0,0,0,,8,,,80,127
55225,note_on,61,0,0,,7,,,79,127
55233,note_off,8,0,0,,8,,,80,127
55287,note_on,54,0,0,,8,,,80,127
55295,note_off,8,0,0,,7,,,79,127
55349,note_on,54,0,0,,7,,,79,127
55357,note_off,8,0,0,,8,,,80,127
55411,note_on,54,0,0,,5,,,77,127
55419,note_off,8,0,0,,7,,,79,127
55473,note_on,54,0,0,,7,,,79,127
55481,note_off,8,0,0,,5,,,77,127
55535,note_off,54,0,0,,0,,,60,127
55535,note_off,0,0,0,,3,,,51,127
55535,note_on,0,0,0,,5,,,53,127
55535,note_on,0,0,0,,0,,,60,127
55535,note_on,0,0,0,,8,,,80,127
55543,note_off,8,0,0,,7,,,79,127
55658,note_off,115,0,0,,8,,,80,127
55658,note_on,0,0,0,,5,,,77,127
55781,note_off,123,0,0,,5,,,77,127
55781,note_on,0,0,0,,2,,,74,127
55904,note_off,123,0,0,,2,,,74,127
55904,note_off,0,0,0,,0,,,60,127
55904,note_off,0,0,0,,5,,,53,127
55904,note_on,0,0,0,,7,,,55,127
55904,note_on,0,0,0,,3,,,63,127
55904,note_on,0,0,0,,0,,,72,127
56273,note_off,369,0,0,,0,,,72,127
56273,note_off,0,0,0,,3,,,63,127
56273,note_off,0,0,0,,7,,,55,127
56273,note_on,0,0,0,,2,,,62,127
56273,note_on,0,0,0,,12,,,71,127
56599,note_off,326,0,0,,12,,,71,127
56641,note_off,42,0,0,,2,,,62,127
56641,note_on,0,0,0,,0,,,48,127
56641,note_on,0,0,0,,0,,,60,127
56764,note_on,123,0,0,,4,,,76,127
56887,note_off,123,0,0,,4,,,76,127
56887,note_on,0,0,0,,5,,,77,127
57010,note_off,123,0,0,,5,,,77,127
57010,note_on,0,0,0,,7,,,79,127
57133,note_off,123,0,0,,7,,,79,127
57133,note_on,0,0,0,,0,,,84,127
57256,note_off,123,0,0,,0,,,84,127
57256,note_on,0,0,0,,7,,,79,127
57379,note_off,123,0,0,,7,,,79,127
57379,note_off,0,0,0,,0,,,60,127
57379,note_off,0,0,0,,0,,,48,127
57379,note_on,0,0,0,,4,,,52,127
57379,note_on,0,0,0,,0,,,60,127
57379,note_on,0,0,0,,10,,,81,127
57440,note_on,61,0,0,,7,,,79,127
57448,note_off,8,0,0,,10,,,81,127
57502,note_on,54,0,0,,10,,,81,127
57510,note_off,8,0,0,,7,,,79,127
57564,note_on,54,0,0,,7,,,79,127
57572,note_off,8,0,0,,10,,,81,127
57626,note_on,54,0,0,,5,,,77,127
57634,note_off,8,0,0,,7,,,79,127
57688,note_on,54,0,0,,7,,,79,127
57696,note_off,8,0,0,,5,,,77,127
57750,note_off,54,0,0,,0,,,60,127
57750,note_off,0,0,0,,4,,,52,127
57750,note_on,0,0,0,,0,,,60,127
57750,note_on,0,0,0,,5,,,53,127
57750,note_on,0,0,0,,10,,,81,127
57758,note_off,8,0,0,,7,,,79,127
57873,note_off,115,0,0,,10,,,81,127
57873,note_on,0,0,0,,5,,,77,127
57996,note_off,123,0,0,,5,,,77,127
57996,note_on,0,0,0,,2,,,74,127
58119,note_off,123,0,0,,2,,,74,127
58119,note_off,0,0,0,,5,,,53,127
58119,note_off,0,0,0,,0,,,60,127
58119,note_on,0,0,0,,7,,,55,127
58119,note_on,0,0,0,,4,,,64,127
58119,note_on,0,0,0,,0,,,72,127
58488,note_off,369,0,0,,0,,,72,127
58488,note_off,0,0,0,,4,,,64,127
58488,note_on,0,0,0,,2,,,62,127
58488,note_on,0,0,0,,0,,,72,127
58579,note_off,91,0,0,,0,,,72,127
58580,note_on,1,0,0,,12,,,71,127
58671,note_off,91,0,0,,12,,,71,127
58672,note_on,1,0,0,,10,,,69,127
58763,note_off,91,0,0,,10,,,69,127
58764,note_on,1,0,0,,12,,,71,127
58855,note_off,91,0,0,,12,,,71,127
58855,note_off,0,0,0,,7,,,55,127
58856,note_off,1,0,0,,2,,,62,127
58856,note_on,0,0,0,,0,,,48,127
58856,note_on,0,0,0,,0,,,60,127
58979,note_on,123,0,0,,7,,,79,127
59102,note_off,123,0,0,,7,,,79,127
59102,note_on,0,0,0,,2,,,74,127
59225,note_off,123,0,0,,2,,,74,127
59225,note_off,0,0,0,,0,,,60,127
59225,note_off,0,0,0,,0,,,48,127
59225,note_on,0,0,0,,2,,,50,127
59225,note_on,0,0,0,,4,,,76,127
59348,note_off,123,0,0,,4,,,76,127
59348,note_on,0,0,0,,5,,,77,127
59471,note_off,123,0,0,,5,,,77,127
59471,note_on,0,0,0,,12,,,71,127
59594,note_off,123,0,0,,12,,,71,127
59594,note_off,0,0,0,,2,,,50,127
59594,note_on,0,0,0,,4,,,52,127
59594,note_on,0,0,0,,0,,,72,127
59717,note_off,123,0,0,,0,,,72,127
59717,note_on,0,0,0,,2,,,74,127
59840,note_off,123,0,0,,2,,,74,127
59840,note_on,0,0,0,,7,,,67,127
59963,note_off,123,0,0,,7,,,67,127
59963,note_off,0,0,0,,4,,,52,127
59963,note_on,0,0,0,,5,,,53,127
59963,note_on,0,0,0,,10,,,69,127
60086,note_off,123,0,0,,10,,,69,127
60086,note_on,0,0,0,,0,,,72,127
60209,note_off,123,0,0,,0,,,72,127
60209,note_on,0,0,0,,2,,,62,127
60332,note_off,123,0,0,,2,,,62,127
60332,note_off,0,0,0,,5,,,53,127
60332,note_on,0,0,0,,7,,,55,127
60332,note_on,0,0,0,,5,,,65,127
60332,note_on,0,0,0,,4,,,64,127
60455,note_off,123,0,0,,4,,,64,127
60455,note_off,0,0,0,,5,,,65,127
60455,note_on,0,0,0,,2,,,62,127
60578,note_off,123,0,0,,2,,,62,127
60578,note_on,0,0,0,,0,,,60,127
60701,note_off,123,0,0,,0,,,60,127
60701,note_off,0,0,0,,7,,,55,127
60701,note_on,0,0,0,,7,,,43,127
60701,note_on,0,0,0,,4,,,64,127
60762,note_on,61,0,0,,2,,,62,127
60770,note_off,8,0,0,,4,,,64,127
60824,note_on,54,0,0,,4,,,64,127
60832,note_off,8,0,0,,2,,,62,127
60886,note_on,54,0,0,,2,,,62,127
60894,note_off,8,0,0,,4,,,64,127
60948,note_on,54,0,0,,4,,,64,127
60956,note_off,8,0,0,,2,,,62,127
61010,note_on,54,0,0,,2,,,62,127
61018,note_off,8,0,0,,4,,,64,127
61072,note_off,54,0,0,,7,,,43,127
61072,note_on,0,0,0,,0,,,48,127
61072,note_on,0,0,0,,0,,,60,127
61080,note_off,8,0,0,,2,,,62,127
61195,note_on,115,0,0,,7,,,79,127
61318,note_off,123,0,0,,7,,,79,127
61318,note_on,0,0,0,,2,,,74,127
61441,note_off,123,0,0,,2,,,74,127
61441,note_off,0,0,0,,0,,,60,127
61441,note_off,0,0,0,,0,,,48,127
61441,note_on,0,0,0,,2,,,50,127
61441,note_on,0,0,0,,4,,,76,127
61564,note_off,123,0,0,,4,,,76,127
61564,note_on,0,0,0,,5,,,77,127
61687,note_off,123,0,0,,5,,,77,127
61687,note_on,0,0,0,,12,,,71,127
61810,note_off,123,0,0,,12,,,71,127
61810,note_off,0,0,0,,2,,,50,127
61810,note_on,0,0,0,,4,,,52,127
61810,note_on,0,0,0,,0,,,72,127
61933,note_off,123,0,0,,0,,,72,127
61933,note_on,0,0,0,,2,,,74,127
62056,note_off,123,0,0,,2,,,74,127
62056,note_on,0,0,0,,7,,,67,127
62179,note_off,123,0,0,,7,,,67,127
62179,note_off,0,0,0,,4,,,52,127
62179,note_on,0,0,0,,5,,,53,127
62179,note_on,0,0,0,,10,,,69,127
62302,note_off,123,0,0,,10,,,69,127
62302,note_on,0,0,0,,0,,,72,127
62425,note_off,123,0,0,,0,,,72,127
62425,note_on,0,0,0,,2,,,62,127
62548,note_off,123,0,0,,2,,,62,127
62548,note_off,0,0,0,,5,,,53,127
62548,note_on,0,0,0,,7,,,55,127
62548,note_on,0,0,0,,5,,,65,127
62548,note_on,0,0,0,,4,,,64,127
62671,note_off,123,0,0,,4,,,64,127
62671,note_off,0,0,0,,5,,,65,127
62671,note_on,0,0,0,,2,,,62,127
62794,note_off,123,0,0,,2,,,62,127
62794,note_on,0,0,0,,0,,,60,127
62917,note_off,123,0,0,,0,,,60,127
62917,note_off,0,0,0,,7,,,55,127
62917,note_on,0,0,0,,7,,,43,127
62917,note_on,0,0,0,,4,,,64,127
62978,note_on,61,0,0,,2,,,62,127
62986,note_off,8,0,0,,4,,,64,127
63040,note_on,54,0,0,,4,,,64,127
63048,note_off,8,0,0,,2,,,62,127
63102,note_on,54,0,0,,2,,,62,127
63110,note_off,8,0,0,,4,,,64,127
63164,note_on,54,0,0,,0,,,60,127
63172,note_off,8,0,0,,2,,,62,127
63226,note_on,54,0,0,,2,,,62,127
63234,note_off,8,0,0,,0,,,60,127
63288,note_off,54,0,0,,2,,,62,127
63288,note_off,0,0,0,,7,,,43,127
63288,note_on,0,0,0,,0,,,48,127
63288,note_on,0,0,0,,0,,,60,127
63411,note_on,123,0,0,,0,,,72,127
63472,note_off,61,0,0,,0,,,60,127
63533,note_off,61,0,0,,0,,,72,127
63533,note_on,0,0,0,,2,,,74,127
63656,note_off,123,0,0,,2,,,74,127
63656,note_off,0,0,0,,0,,,48,127
63656,note_on,0,0,0,,0,,,60,127
63656,note_on,0,0,0,,7,,,67,127
63656,note_on,0,0,0,,4,,,76,127
63779,note_off,123,0,0,,4,,,76,127
63779,note_on,0,0,0,,5,,,77,127
63902,note_off,123,0,0,,5,,,77,127
63902,note_on,0,0,0,,7,,,79,127
64025,note_off,123,0,0,,7,,,79,127
64025,note_off,0,0,0,,7,,,67,127
64025,note_off,0,0,0,,0,,,60,127
64025,note_on,0,0,0,,7,,,67,127
64025,note_on,0,0,0,,0,,,60,127
64025,note_on,0,0,0,,7,,,79,127
64148,note_off,123,0,0,,7,,,79,127
64148,note_on,0,0,0,,10,,,81,127
64271,note_off,123,0,0,,10,,,81,127
64271,note_on,0,0,0,,11,,,82,127
64394,note_off,123,0,0,,0,,,60,127
64394,note_off,0,0,0,,7,,,67,127
64394,note_on,0,0,0,,11,,,58,127
64394,note_on,0,0,0,,7,,,67,127
64517,note_off,123,0,0,,11,,,82,127
64517,note_on,0,0,0,,10,,,81,127
64640,note_off,123,0,0,,10,,,81,127
64640,note_on,0,0,0,,7,,,79,127
64763,note_off,123,0,0,,7,,,79,127
64763,note_off,0,0,0,,7,,,67,127
64763,note_off,0,0,0,,11,,,58,127
64763,note_on,0,0,0,,11,,,58,127
64763,note_on,0,0,0,,7,,,67,127
64763,note_on,0,0,0,,7,,,79,127
64886,note_off,123,0,0,,7,,,79,127
64886,note_on,0,0,0,,5,,,77,127
65009,note_off,123,0,0,,5,,,77,127
65009,note_on,0,0,0,,4,,,76,127
65132,note_off,123,0,0,,4,,,76,127
65132,note_off,0,0,0,,7,,,67,127
65132,note_off,0,0,0,,11,,,58,127
65132,note_on,0,0,0,,11,,,58,127
65132,note_on,0,0,0,,7,,,67,127
65132,note_on,0,0,0,,2,,,74,127
65255,note_off,123,0,0,,2,,,74,127
65255,note_on,0,0,0,,0,,,72,127
65378,note_off,123,0,0,,0,,,72,127
65378,note_on,0,0,0,,2,,,74,127
65501,note_off,123,0,0,,2,,,74,127
65501,note_off,0,0,0,,7,,,67,127
65501,note_off,0,0,0,,11,,,58,127
65501,note_on,0,0,0,,7,,,67,127
65501,note_on,0,0,0,,10,,,57,127
65501,note_on,0,0,0,,0,,,72,127
65624,note_off,123,0,0,,0,,,72,127
65624,note_on,0,0,0,,2,,,74,127
65747,note_off,123,0,0,,2,,,74,127
65747,note_on,0,0,0,,4,,,76,127
65870,note_off,123,0,0,,4,,,76,127
65870,note_off,0,0,0,,10,,,57,127
65870,note_off,0,0,0,,7,,,67,127
65870,note_on,0,0,0,,5,,,65,127
65870,note_on,0,0,0,,10,,,57,127
65870,note_on,0,0,0,,5,,,77,127
65993,note_off,123,0,0,,5,,,77,127
65993,note_on,0,0,0,,7,,,79,127
66116,note_off,123,0,0,,7,,,79,127
66116,note_on,0,0,0,,10,,,81,127
66239,note_off,123,0,0,,10,,,81,127
66239,note_off,0,0,0,,10,,,57,127
66239,note_off,0,0,0,,5,,,65,127
66239,note_on,0,0,0,,10,,,57,127
66239,note_on,0,0,0,,5,,,65,127
66239,note_on,0,0,0,,10,,,81,127
66608,note_off,369,0,0,,5,,,65,127
66608,note_off,0,0,0,,10,,,57,127
66608,note_on,0,0,0,,7,,,55,127
66608,note_on,0,0,0,,5,,,65,127
66731,note_off,123,0,0,,10,,,81,127
66731,note_on,0,0,0,,7,,,79,127
66854,note_off,123,0,0,,7,,,79,127
66854,note_on,0,0,0,,5,,,77,127
66977,note_off,123,0,0,,5,,,77,127
66977,note_off,0,0,0,,5,,,65,127
66977,note_off,0,0,0,,7,,,55,127
66977,note_on,0,0,0,,4,,,64,127
66977,note_on,0,0,0,,7,,,55,127
66977,note_on,0,0,0,,4,,,76,127
67100,note_off,123,0,0,,4,,,76,127
67100,note_on,0,0,0,,2,,,74,127
67223,note_off,123,0,0,,2,,,74,127
67223,note_on,0,0,0,,0,,,72,127
67346,note_off,123,0,0,,0,,,72,127
67346,note_off,0,0,0,,7,,,55,127
67346,note_off,0,0,0,,4,,,64,127
67346,note_on,0,0,0,,7,,,55,127
67346,note_on,0,0,0,,4,,,64,127
67346,note_on,0,0,0,,11,,,70,127
67346,note_on,0,0,0,,0,,,72,127
67469,note_off,123,0,0,,0,,,72,127
67469,note_off,0,0,0,,11,,,70,127
67469,note_on,0,0,0,,10,,,69,127
67592,note_off,123,0,0,,10,,,69,127
67592,note_on,0,0,0,,11,,,70,127
67715,note_off,123,0,0,,11,,,70,127
67715,note_off,0,0,0,,4,,,64,127
67715,note_off,0,0,0,,7,,,55,127
67715,note_on,0,0,0,,5,,,53,127
67715,note_on,0,0,0,,4,,,64,127
67715,note_on,0,0,0,,10,,,69,127
67838,note_off,123,0,0,,10,,,69,127
67838,note_on,0,0,0,,12,,,71,127
67961,note_off,123,0,0,,12,,,71,127
67961,note_on,0,0,0,,1,,,73,127
68084,note_off,123,0,0,,1,,,73,127
68084,note_off,0,0,0,,4,,,64,127
68084,note_off,0,0,0,,5,,,53,127
68084,note_on,0,0,0,,5,,,53,127
68084,note_on,0,0,0,,4,,,64,127
68084,note_on,0,0,0,,4,,,76,127
68145,note_on,61,0,0,,2,,,74,127
68153,note_off,8,0,0,,4,,,76,127
68207,note_on,54,0,0,,4,,,76,127
68215,note_off,8,0,0,,2,,,74,127
68269,note_on,54,0,0,,2,,,74,127
68277,note_off,8,0,0,,4,,,76,127
68331,note_on,54,0,0,,1,,,73,127
68339,note_off,8,0,0,,2,,,74,127
68393,note_on,54,0,0,,2,,,74,127
68401,note_off,8,0,0,,1,,,73,127
68448,note_off,47,0,0,,2,,,74,127
68455,note_off,7,0,0,,4,,,64,127
68455,note_off,0,0,0,,5,,,53,127
68455,note_on,0,0,0,,5,,,53,127
68455,note_on,0,0,0,,2,,,62,127
68455,note_on,0,0,0,,2,,,74,127
68824,note_off,369,0,0,,2,,,62,127
68824,note_off,0,0,0,,5,,,53,127
68824,note_on,0,0,0,,4,,,52,127
68824,note_on,0,0,0,,2,,,62,127
68947,note_off,123,0,0,,2,,,74,127
68947,note_on,0,0,0,,1,,,73,127
69070,note_off,123,0,0,,1,,,73,127
69070,note_on,0,0,0,,2,,,74,127
69193,note_off,123,0,0,,2,,,74,127
69193,note_off,0,0,0,,2,,,62,127
69193,note_off,0,0,0,,4,,,52,127
69193,note_on,0,0,0,,4,,,52,127
69193,note_on,0,0,0,,1,,,61,127
69193,note_on,0,0,0,,4,,,76,127
69316,note_off,123,0,0,,4,,,76,127
69316,note_on,0,0,0,,11,,,70,127
69439,note_off,123,0,0,,11,,,70,127
69439,note_on,0,0,0,,10,,,69,127
69562,note_off,123,0,0,,10,,,69,127
69562,note_off,0,0,0,,1,,,61,127
69562,note_off,0,0,0,,4,,,52,127
69562,note_on,0,0,0,,4,,,52,127
69562,note_on,0,0,0,,1,,,61,127
69562,note_on,0,0,0,,7,,,67,127
69685,note_off,123,0,0,,7,,,67,127
69685,note_on,0,0,0,,5,,,65,127
69808,note_off,123,0,0,,5,,,65,127
69808,note_on,0,0,0,,4,,,64,127
69931,note_off,123,0,0,,4,,,64,127
69931,note_off,0,0,0,,1,,,61,127
69931,note_off,0,0,0,,4,,,52,127
69931,note_on,0,0,0,,2,,,62,127
69931,note_on,0,0,0,,7,,,67,127
69992,note_on,61,0,0,,5,,,65,127
70000,note_off,8,0,0,,7,,,67,127
70054,note_on,54,0,0,,7,,,67,127
70062,note_off,8,0,0,,5,,,65,127
70116,note_on,54,0,0,,5,,,65,127
70124,note_off,8,0,0,,7,,,67,127
70178,note_on,54,0,0,,7,,,67,127
70186,note_off,8,0,0,,5,,,65,127
70240,note_on,54,0,0,,5,,,65,127
70248,note_off,8,0,0,,7,,,67,127
70302,note_off,54,0,0,,2,,,62,127
70302,note_on,0,0,0,,2,,,50,127
70302,note_on,0,0,0,,7,,,67,127
70310,note_off,8,0,0,,5,,,65,127
70364,note_on,54,0,0,,5,,,65,127
70372,note_off,8,0,0,,7,,,67,127
70426,note_on,54,0,0,,7,,,67,127
70434,note_off,8,0,0,,5,,,65,127
70488,note_on,54,0,0,,5,,,65,127
70496,note_off,8,0,0,,7,,,67,127
70550,note_on,54,0,0,,4,,,64,127
70558,note_off,8,0,0,,5,,,65,127
70673,note_off,115,0,0,,4,,,64,127
70673,note_off,0,0,0,,2,,,50,127
70673,note_on,0,0,0,,2,,,38,127
70673,note_on,0,0,0,,2,,,62,127
70999,note_off,326,0,0,,2,,,62,127
71041,note_off,42,0,0,,2,,,38,127
71041,note_on,0,0,0,,2,,,62,127
71041,note_on,0,0,0,,8,,,80,127
71164,note_off,123,0,0,,8,,,80,127
71164,note_on,0,0,0,,10,,,81,127
71287,note_off,123,0,0,,10,,,81,127
71287,note_on,0,0,0,,4,,,76,127
71410,note_off,123,0,0,,4,,,76,127
71410,note_off,0,0,0,,2,,,62,127
71410,note_on,0,0,0,,4,,,64,127
71410,note_on,0,0,0,,5,,,77,127
71533,note_off,123,0,0,,5,,,77,127
71533,note_on,0,0,0,,7,,,79,127
71656,note_off,123,0,0,,7,,,79,127
71656,note_on,0,0,0,,1,,,73,127
71779,note_off,123,0,0,,1,,,73,127
71779,note_off,0,0,0,,4,,,64,127
71779,note_on,0,0,0,,5,,,65,127
71779,note_on,0,0,0,,2,,,74,127
71902,note_off,123,0,0,,2,,,74,127
71902,note_on,0,0,0,,4,,,76,127
72025,note_off,123,0,0,,4,,,76,127
72025,note_on,0,0,0,,10,,,69,127
72148,note_off,123,0,0,,10,,,69,127
72148,note_off,0,0,0,,5,,,65,127
72148,note_on,0,0,0,,7,,,67,127
72148,note_on,0,0,0,,0,,,72,127
72209,note_on,61,0,0,,11,,,70,127
72217,note_off,8,0,0,,0,,,72,127
72271,note_on,54,0,0,,0,,,72,127
72279,note_off,8,0,0,,11,,,70,127
72333,note_on,54,0,0,,11,,,70,127
72341,note_off,8,0,0,,0,,,72,127
72395,note_on,54,0,0,,0,,,72,127
72403,note_off,8,0,0,,11,,,70,127
72457,note_on,54,0,0,,11,,,70,127
72465,note_off,8,0,0,,0,,,72,127
72519,note_off,54,0,0,,7,,,67,127
72519,note_on,0,0,0,,1,,,61,127
72519,note_on,0,0,0,,0,,,72,127
72527,note_off,8,0,0,,11,,,70,127
72581,note_on,54,0,0,,11,,,70,127
72589,note_off,8,0,0,,0,,,72,127
72643,note_on,54,0,0,,0,,,72,127
72651,note_off,8,0,0,,11,,,70,127
72705,note_on,54,0,0,,11,,,70,127
72713,note_off,8,0,0,,0,,,72,127
72767,note_on,54,0,0,,10,,,69,127
72775,note_off,8,0,0,,11,,,70,127
72829,note_on,54,0,0,,11,,,70,127
72837,note_off,8,0,0,,10,,,69,127
72891,note_off,54,0,0,,1,,,61,127
72891,note_on,0,0,0,,2,,,62,127
72891,note_on,0,0,0,,10,,,69,127
72899,note_off,8,0,0,,11,,,70,127
73237,note_off,338,0,0,,10,,,69,127
73260,note_off,23,0,0,,2,,,62,127
73260,note_on,0,0,0,,4,,,64,127
73260,note_on,0,0,0,,8,,,80,127
73383,note_off,123,0,0,,8,,,80,127
73383,note_on,0,0,0,,10,,,81,127
73506,note_off,123,0,0,,10,,,81,127
73506,note_on,0,0,0,,4,,,76,127
73629,note_off,123,0,0,,4,,,76,127
73629,note_off,0,0,0,,4,,,64,127
73629,note_on,0,0,0,,2,,,62,127
73629,note_on,0,0,0,,5,,,77,127
73752,note_off,123,0,0,,5,,,77,127
73752,note_on,0,0,0,,7,,,79,127
73875,note_off,123,0,0,,7,,,79,127
73875,note_on,0,0,0,,1,,,73,127
73998,note_off,123,0,0,,1,,,73,127
73998,note_off,0,0,0,,2,,,62,127
73998,note_on,0,0,0,,10,,,69,127
73998,note_on,0,0,0,,5,,,65,127
73998,note_on,0,0,0,,2,,,74,127
74121,note_off,123,0,0,,2,,,74,127
74121,note_on,0,0,0,,4,,,76,127
74244,note_off,123,0,0,,4,,,76,127
74244,note_on,0,0,0,,12,,,71,127
74367,note_off,123,0,0,,12,,,71,127
74367,note_off,0,0,0,,5,,,65,127
74367,note_off,0,0,0,,10,,,69,127
74367,note_on,0,0,0,,10,,,69,127
74367,note_on,0,0,0,,4,,,64,127
74367,note_on,0,0,0,,2,,,74,127
74428,note_on,61,0,0,,1,,,73,127
74436,note_off,8,0,0,,2,,,74,127
74490,note_on,54,0,0,,2,,,74,127
74498,note_off,8,0,0,,1,,,73,127
74552,note_on,54,0,0,,1,,,73,127
74560,note_off,8,0,0,,2,,,74,127
74614,note_on,54,0,0,,2,,,74,127
74622,note_off,8,0,0,,1,,,73,127
74676,note_on,54,0,0,,1,,,73,127
74684,note_off,8,0,0,,2,,,74,127
74738,note_off,54,0,0,,4,,,64,127
74738,note_off,0,0,0,,10,,,69,127
74738,note_on,0,0,0,,10,,,69,127
74738,note_on,0,0,0,,2,,,74,127
74746,note_off,8,0,0,,1,,,73,127
74800,note_on,54,0,0,,1,,,73,127
74808,note_off,8,0,0,,2,,,74,127
74862,note_on,54,0,0,,2,,,74,127
74870,note_off,8,0,0,,1,,,73,127
74924,note_on,54,0,0,,1,,,73,127
74932,note_off,8,0,0,,2,,,74,127
74986,note_on,54,0,0,,12,,,71,127
74994,note_off,8,0,0,,1,,,73,127
75048,note_on,54,0,0,,1,,,73,127
75056,note_off,8,0,0,,12,,,71,127
75110,note_off,54,0,0,,10,,,69,127
75110,note_on,0,0,0,,8,,,68,127
75110,note_on,0,0,0,,12,,,71,127
75118,note_off,8,0,0,,1,,,73,127
75456,note_off,338,0,0,,12,,,71,127
75479,note_off,23,0,0,,8,,,68,127
75479,note_on,0,0,0,,2,,,62,127
75479,note_on,0,0,0,,8,,,68,127
75479,note_on,0,0,0,,12,,,83,127
75602,note_off,123,0,0,,12,,,83,127
75602,note_on,0,0,0,,0,,,84,127
75725,note_off,123,0,0,,0,,,84,127
75725,note_on,0,0,0,,10,,,81,127
75848,note_off,123,0,0,,10,,,81,127
75848,note_off,0,0,0,,8,,,68,127
75848,note_off,0,0,0,,2,,,62,127
75848,note_on,0,0,0,,2,,,62,127
75848,note_on,0,0,0,,8,,,68,127
75848,note_on,0,0,0,,8,,,80,127
75971,note_off,123,0,0,,8,,,80,127
75971,note_on,0,0,0,,5,,,77,127
76094,note_off,123,0,0,,5,,,77,127
76094,note_on,0,0,0,,4,,,76,127
76217,note_off,123,0,0,,4,,,76,127
76217,note_off,0,0,0,,8,,,68,127
76217,note_off,0,0,0,,2,,,62,127
76217,note_on,0,0,0,,8,,,68,127
76217,note_on,0,0,0,,2,,,62,127
76217,note_on,0,0,0,,2,,,74,127
76340,note_off,123,0,0,,2,,,74,127
76340,note_on,0,0,0,,0,,,72,127
76463,note_off,123,0,0,,0,,,72,127
76463,note_on,0,0,0,,12,,,71,127
76586,note_off,123,0,0,,2,,,62,127
76586,note_off,0,0,0,,8,,,68,127
76586,note_on,0,0,0,,0,,,60,127
76586,note_on,0,0,0,,4,,,64,127
76647,note_on,61,0,0,,10,,,69,127
76655,note_off,8,0,0,,12,,,71,127
76709,note_on,54,0,0,,12,,,71,127
76717,note_off,8,0,0,,10,,,69,127
76771,note_on,54,0,0,,10,,,69,127
76779,note_off,8,0,0,,12,,,71,127
76833,note_on,54,0,0,,12,,,71,127
76841,note_off,8,0,0,,10,,,69,127
76895,note_on,54,0,0,,10,,,69,127
76903,note_off,8,0,0,,12,,,71,127
76957,note_off,54,0,0,,4,,,64,127
76957,note_off,0,0,0,,0,,,60,127
76957,note_on,0,0,0,,4,,,64,127
76957,note_on,0,0,0,,0,,,60,127
76957,note_on,0,0,0,,12,,,71,127
76965,note_off,8,0,0,,10,,,69,127
77019,note_on,54,0,0,,10,,,69,127
77027,note_off,8,0,0,,12,,,71,127
77081,note_on,54,0,0,,12,,,71,127
77089,note_off,8,0,0,,10,,,69,127
77143,note_on,54,0,0,,10,,,69,127
77151,note_off,8,0,0,,12,,,71,127
77205,note_on,54,0,0,,8,,,68,127
77213,note_off,8,0,0,,10,,,69,127
77328,note_off,115,0,0,,8,,,68,127
77328,note_off,0,0,0,,0,,,60,127
77328,note_off,0,0,0,,4,,,64,127
77328,note_on,0,0,0,,4,,,64,127
77328,note_on,0,0,0,,0,,,60,127
77328,note_on,0,0,0,,10,,,69,127
77697,note_off,369,0,0,,10,,,69,127
77697,note_off,0,0,0,,0,,,60,127
77697,note_off,0,0,0,,4,,,64,127
77697,note_on,0,0,0,,2,,,62,127
77697,note_on,0,0,0,,8,,,68,127
77697,note_on,0,0,0,,12,,,83,127
77820,note_off,123,0,0,,12,,,83,127
77820,note_on,0,0,0,,0,,,84,127
77943,note_off,123,0,0,,0,,,84,127
77943,note_on,0,0,0,,10,,,81,127
78066,note_off,123,0,0,,10,,,81,127
78066,note_off,0,0,0,,8,,,68,127
78066,note_off,0,0,0,,2,,,62,127
78066,note_on,0,0,0,,2,,,62,127
78066,note_on,0,0,0,,8,,,68,127
78066,note_on,0,0,0,,8,,,80,127
78189,note_off,123,0,0,,8,,,80,127
78189,note_on,0,0,0,,5,,,77,127
78312,note_off,123,0,0,,5,,,77,127
78312,note_on,0,0,0,,4,,,76,127
78435,note_off,123,0,0,,4,,,76,127
78435,note_off,0,0,0,,8,,,68,127
78435,note_off,0,0,0,,2,,,62,127
78435,note_on,0,0,0,,2,,,62,127
78435,note_on,0,0,0,,8,,,68,127
78435,note_on,0,0,0,,2,,,74,127
78558,note_off,123,0,0,,2,,,74,127
78558,note_on,0,0,0,,0,,,72,127
78681,note_off,123,0,0,,0,,,72,127
78681,note_on,0,0,0,,12,,,71,127
78804,note_off,123,0,0,,12,,,71,127
78804,note_off,0,0,0,,8,,,68,127
78804,note_off,0,0,0,,2,,,62,127
78804,note_on,0,0,0,,0,,,60,127
78804,note_on,0,0,0,,4,,,64,127
78804,note_on,0,0,0,,0,,,72,127
78927,note_off,123,0,0,,0,,,72,127
78927,note_on,0,0,0,,2,,,74,127
79050,note_off,123,0,0,,2,,,74,127
79050,note_on,0,0,0,,4,,,76,127
79173,note_off,123,0,0,,4,,,76,127
79173,note_off,0,0,0,,4,,,64,127
79173,note_off,0,0,0,,0,,,60,127
79173,note_on,0,0,0,,0,,,60,127
79173,note_on,0,0,0,,4,,,64,127
79173,note_on,0,0,0,,12,,,71,127
79234,note_on,61,0,0,,10,,,69,127
79242,note_off,8,0,0,,12,,,71,127
79296,note_on,54,0,0,,12,,,71,127
79304,note_off,8,0,0,,10,,,69,127
79358,note_on,54,0,0,,10,,,69,127
79366,note_off,8,0,0,,12,,,71,127
79420,note_on,54,0,0,,12,,,71,127
79428,note_off,8,0,0,,10,,,69,127
79482,note_on,54,0,0,,10,,,69,127
79490,note_off,8,0,0,,12,,,71,127
79544,note_off,54,0,0,,4,,,64,127
79544,note_off,0,0,0,,0,,,60,127
79544,note_on,0,0,0,,0,,,60,127
79544,note_on,0,0,0,,4,,,64,127
79544,note_on,0,0,0,,12,,,71,127
79552,note_off,8,0,0,,10,,,69,127
79606,note_on,54,0,0,,10,,,69,127
79614,note_off,8,0,0,,12,,,71,127
79668,note_on,54,0,0,,12,,,71,127
79676,note_off,8,0,0,,10,,,69,127
79730,note_on,54,0,0,,10,,,69,127
79738,note_off,8,0,0,,12,,,71,127
79792,note_on,54,0,0,,12,,,71,127
79800,note_off,8,0,0,,10,,,69,127
79854,note_on,54,0,0,,10,,,69,127
79862,note_off,8,0,0,,12,,,71,127
79916,note_off,54,0,0,,4,,,64,127
79916,note_off,0,0,0,,0,,,60,127
79916,note_on,0,0,0,,0,,,60,127
79916,note_on,0,0,0,,6,,,66,127
79916,note_on,0,0,0,,10,,,81,127
79924,note_off,8,0,0,,10,,,69,127
80039,note_off,115,0,0,,10,,,81,127
80039,note_on,0,0,0,,11,,,82,127
80162,note_off,123,0,0,,11,,,82,127
80162,note_on,0,0,0,,7,,,79,127
80285,note_off,123,0,0,,7,,,79,127
80285,note_off,0,0,0,,6,,,66,127
80285,note_off,0,0,0,,0,,,60,127
80285,note_on,0,0,0,,6,,,66,127
80285,note_on,0,0,0,,0,,,60,127
80285,note_on,0,0,0,,6,,,78,127
80408,note_off,123,0,0,,6,,,78,127
80408,note_on,0,0,0,,3,,,75,127
80531,note_off,123,0,0,,3,,,75,127
80531,note_on,0,0,0,,2,,,74,127
80654,note_off,123,0,0,,2,,,74,127
80654,note_off,0,0,0,,0,,,60,127
80654,note_off,0,0,0,,6,,,66,127
80654,note_on,0,0,0,,0,,,60,127
80654,note_on,0,0,0,,6,,,66,127
80654,note_on,0,0,0,,0,,,72,127
80777,note_off,123,0,0,,0,,,72,127
80777,note_on,0,0,0,,11,,,70,127
80900,note_off,123,0,0,,11,,,70,127
80900,note_on,0,0,0,,10,,,69,127
81023,note_off,123,0,0,,6,,,66,127
81023,note_off,0,0,0,,0,,,60,127
81023,note_on,0,0,0,,11,,,58,127
81023,note_on,0,0,0,,2,,,62,127
81084,note_on,61,0,0,,7,,,67,127
81092,note_off,8,0,0,,10,,,69,127
81146,note_on,54,0,0,,10,,,69,127
81154,note_off,8,0,0,,7,,,67,127
81208,note_on,54,0,0,,7,,,67,127
81216,note_off,8,0,0,,10,,,69,127
81270,note_on,54,0,0,,10,,,69,127
81278,note_off,8,0,0,,7,,,67,127
81332,note_on,54,0,0,,7,,,67,127
81340,note_off,8,0,0,,10,,,69,127
81394,note_off,54,0,0,,2,,,62,127
81394,note_off,0,0,0,,11,,,58,127
81394,note_on,0,0,0,,11,,,58,127
81394,note_on,0,0,0,,2,,,62,127
81394,note_on,0,0,0,,10,,,69,127
81402,note_off,8,0,0,,7,,,67,127
81456,note_on,54,0,0,,7,,,67,127
81464,note_off,8,0,0,,10,,,69,127
81518,note_on,54,0,0,,10,,,69,127
81526,note_off,8,0,0,,7,,,67,127
81580,note_on,54,0,0,,7,,,67,127
81588,note_off,8,0,0,,10,,,69,127
81642,note_on,54,0,0,,6,,,66,127
81650,note_off,8,0,0,,7,,,67,127
81765,note_off,115,0,0,,6,,,66,127
81765,note_off,0,0,0,,2,,,62,127
81765,note_off,0,0,0,,11,,,58,127
81765,note_on,0,0,0,,11,,,58,127
81765,note_on,0,0,0,,2,,,62,127
81765,note_on,0,0,0,,7,,,67,127
82134,note_off,369,0,0,,7,,,67,127
82134,note_off,0,0,0,,2,,,62,127
82134,note_off,0,0,0,,11,,,58,127
82134,note_on,0,0,0,,0,,,60,127
82134,note_on,0,0,0,,6,,,66,127
82134,note_on,0,0,0,,10,,,81,127
82257,note_off,123,0,0,,10,,,81,127
82257,note_on,0,0,0,,11,,,82,127
82380,note_off,123,0,0,,11,,,82,127
82380,note_on,0,0,0,,7,,,79,127
82503,note_off,123,0,0,,7,,,79,127
82503,note_off,0,0,0,,6,,,66,127
82503,note_off,0,0,0,,0,,,60,127
82503,note_on,0,0,0,,6,,,66,127
82503,note_on,0,0,0,,0,,,60,127
82503,note_on,0,0,0,,6,,,78,127
82626,note_off,123,0,0,,6,,,78,127
82626,note_on,0,0,0,,3,,,75,127
82749,note_off,123,0,0,,3,,,75,127
82749,note_on,0,0,0,,2,,,74,127
82872,note_off,123,0,0,,2,,,74,127
82872,note_off,0,0,0,,0,,,60,127
82872,note_off,0,0,0,,6,,,66,127
82872,note_on,0,0,0,,0,,,60,127
82872,note_on,0,0,0,,6,,,66,127
82872,note_on,0,0,0,,0,,,72,127
82995,note_off,123,0,0,,0,,,72,127
82995,note_on,0,0,0,,11,,,70,127
83118,note_off,123,0,0,,11,,,70,127
83118,note_on,0,0,0,,10,,,69,127
83241,note_off,123,0,0,,10,,,69,127
83241,note_off,0,0,0,,6,,,66,127
83241,note_off,0,0,0,,0,,,60,127
83241,note_on,0,0,0,,11,,,58,127
83241,note_on,0,0,0,,7,,,67,127
83241,note_on,0,0,0,,11,,,70,127
83364,note_off,123,0,0,,11,,,70,127
83364,note_on,0,0,0,,0,,,72,127
83487,note_off,123,0,0,,0,,,72,127
83487,note_on,0,0,0,,2,,,74,127
83610,note_off,123,0,0,,2,,,74,127
83610,note_off,0,0,0,,7,,,67,127
83610,note_off,0,0,0,,11,,,58,127
83610,note_on,0,0,0,,11,,,58,127
83610,note_on,0,0,0,,7,,,67,127
83979,note_off,369,0,0,,7,,,67,127
83979,note_off,0,0,0,,11,,,58,127
83979,note_on,0,0,0,,11,,,58,127
83979,note_on,0,0,0,,7,,,67,127
83979,note_on,0,0,0,,7,,,79,127
84348,note_off,369,0,0,,7,,,67,127
84348,note_off,0,0,0,,11,,,58,127
84348,note_on,0,0,0,,7,,,67,127
84348,note_on,0,0,0,,8,,,56,127
84471,note_off,123,0,0,,7,,,79,127
84471,note_on,0,0,0,,8,,,80,127
84594,note_off,123,0,0,,8,,,80,127
84594,note_on,0,0,0,,7,,,79,127
84717,note_off,123,0,0,,7,,,79,127
84717,note_off,0,0,0,,8,,,56,127
84717,note_off,0,0,0,,7,,,67,127
84717,note_on,0,0,0,,7,,,67,127
84717,note_on,0,0,0,,8,,,56,127
84717,note_on,0,0,0,,5,,,77,127
84717,note_on,0,0,0,,7,,,79,127
84840,note_off,123,0,0,,7,,,79,127
84840,note_off,0,0,0,,5,,,77,127
84840,note_on,0,0,0,,3,,,75,127
84963,note_off,123,0,0,,3,,,75,127
84963,note_on,0,0,0,,2,,,74,127
85086,note_off,123,0,0,,2,,,74,127
85086,note_off,0,0,0,,8,,,56,127
85086,note_off,0,0,0,,7,,,67,127
85086,note_on,0,0,0,,5,,,65,127
85086,note_on,0,0,0,,8,,,56,127
85086,note_on,0,0,0,,0,,,72,127
85209,note_off,123,0,0,,0,,,72,127
85209,note_on,0,0,0,,12,,,71,127
85332,note_off,123,0,0,,12,,,71,127
85332,note_on,0,0,0,,0,,,72,127
85455,note_off,123,0,0,,0,,,72,127
85455,note_off,0,0,0,,8,,,56,127
85455,note_off,0,0,0,,5,,,65,127
85455,note_on,0,0,0,,7,,,55,127
85455,note_on,0,0,0,,3,,,63,127
85455,note_on,0,0,0,,2,,,74,127
85516,note_on,61,0,0,,0,,,72,127
85524,note_off,8,0,0,,2,,,74,127
85578,note_on,54,0,0,,2,,,74,127
85586,note_off,8,0,0,,0,,,72,127
85640,note_on,54,0,0,,0,,,72,127
85648,note_off,8,0,0,,2,,,74,127
85702,note_on,54,0,0,,12,,,71,127
85710,note_off,8,0,0,,0,,,72,127
85764,note_on,54,0,0,,0,,,72,127
85772,note_off,8,0,0,,12,,,71,127
85826,note_off,54,0,0,,3,,,63,127
85826,note_off,0,0,0,,7,,,55,127
85826,note_on,0,0,0,,2,,,62,127
85826,note_on,0,0,0,,7,,,55,127
85826,note_on,0,0,0,,12,,,71,127
85834,note_off,8,0,0,,0,,,72,127
86195,note_off,361,0,0,,12,,,71,127
86195,note_off,0,0,0,,7,,,55,127
86195,note_off,0,0,0,,2,,,62,127
86195,note_on,0,0,0,,7,,,55,127
86195,note_on,0,0,0,,5,,,65,127
86195,note_on,0,0,0,,7,,,79,127
86564,note_off,369,0,0,,5,,,65,127
86564,note_off,0,0,0,,7,,,55,127
86564,note_on,0,0,0,,8,,,56,127
86564,note_on,0,0,0,,5,,,65,127
86687,note_off,123,0,0,,7,,,79,127
86687,note_on,0,0,0,,8,,,80,127
86810,note_off,123,0,0,,8,,,80,127
86810,note_on,0,0,0,,7,,,79,127
86933,note_off,123,0,0,,7,,,79,127
86933,note_off,0,0,0,,5,,,65,127
86933,note_off,0,0,0,,8,,,56,127
86933,note_on,0,0,0,,5,,,65,127
86933,note_on,0,0,0,,8,,,56,127
86933,note_on,0,0,0,,5,,,77,127
86933,note_on,0,0,0,,7,,,79,127
87056,note_off,123,0,0,,7,,,79,127
87056,note_off,0,0,0,,5,,,77,127
87056,note_on,0,0,0,,3,,,75,127
87179,note_off,123,0,0,,3,,,75,127
87179,note_on,0,0,0,,2,,,74,127
87302,note_off,123,0,0,,2,,,74,127
87302,note_off,0,0,0,,8,,,56,127
87302,note_off,0,0,0,,5,,,65,127
87302,note_on,0,0,0,,8,,,56,127
87302,note_on,0,0,0,,3,,,63,127
87302,note_on,0,0,0,,0,,,72,127
87425,note_off,123,0,0,,0,,,72,127
87425,note_on,0,0,0,,12,,,71,127
87548,note_off,123,0,0,,12,,,71,127
87548,note_on,0,0,0,,0,,,72,127
87671,note_off,123,0,0,,0,,,72,127
87671,note_off,0,0,0,,3,,,63,127
87671,note_off,0,0,0,,8,,,56,127
87671,note_on,0,0,0,,7,,,55,127
87671,note_on,0,0,0,,3,,,63,127
87671,note_on,0,0,0,,2,,,74,127
87732,note_on,61,0,0,,0,,,72,127
87740,note_off,8,0,0,,2,,,74,127
87794,note_on,54,0,0,,2,,,74,127
87802,note_off,8,0,0,,0,,,72,127
87856,note_on,54,0,0,,0,,,72,127
87864,note_off,8,0,0,,2,,,74,127
87918,note_on,54,0,0,,12,,,71,127
87926,note_off,8,0,0,,0,,,72,127
87980,note_on,54,0,0,,0,,,72,127
87988,note_off,8,0,0,,12,,,71,127
88042,note_off,54,0,0,,3,,,63,127
88042,note_off,0,0,0,,7,,,55,127
88042,note_on,0,0,0,,7,,,55,127
88042,note_on,0,0,0,,2,,,62,127
88042,note_on,0,0,0,,12,,,71,127
88050,note_off,8,0,0,,0,,,72,127
88388,note_off,338,0,0,,12,,,71,127
88411,note_off,23,0,0,,2,,,62,127
88411,note_off,0,0,0,,7,,,55,127
88411,note_on,0,0,0,,7,,,55,127
88411,note_on,0,0,0,,5,,,65,127
88411,note_on,0,0,0,,7,,,79,127
88780,note_off,369,0,0,,5,,,65,127
88780,note_off,0,0,0,,7,,,55,127
88780,note_on,0,0,0,,4,,,64,127
88903,note_off,123,0,0,,7,,,79,127
88903,note_on,0,0,0,,7,,,79,127
89026,note_off,123,0,0,,7,,,79,127
89026,note_on,0,0,0,,5,,,77,127
89149,note_off,123,0,0,,5,,,77,127
89149,note_off,0,0,0,,4,,,64,127
89149,note_on,0,0,0,,0,,,60,127
89149,note_on,0,0,0,,4,,,76,127
89272,note_off,123,0,0,,4,,,76,127
89272,note_on,0,0,0,,2,,,74,127
89395,note_off,123,0,0,,2,,,74,127
89395,note_on,0,0,0,,0,,,72,127
89518,note_off,123,0,0,,0,,,72,127
89518,note_off,0,0,0,,0,,,60,127
89518,note_on,0,0,0,,4,,,64,127
89518,note_on,0,0,0,,11,,,70,127
89641,note_off,123,0,0,,11,,,70,127
89641,note_on,0,0,0,,10,,,69,127
89764,note_off,123,0,0,,10,,,69,127
89764,note_on,0,0,0,,11,,,70,127
89887,note_off,123,0,0,,11,,,70,127
89887,note_off,0,0,0,,4,,,64,127
89887,note_on,0,0,0,,5,,,65,127
89887,note_on,0,0,0,,0,,,72,127
89948,note_on,61,0,0,,11,,,70,127
89956,note_off,8,0,0,,0,,,72,127
90010,note_on,54,0,0,,0,,,72,127
90018,note_off,8,0,0,,11,,,70,127
90072,note_on,54,0,0,,11,,,70,127
90080,note_off,8,0,0,,0,,,72,127
90134,note_on,54,0,0,,0,,,72,127
90142,note_off,8,0,0,,11,,,70,127
90196,note_on,54,0,0,,11,,,70,127
90204,note_off,8,0,0,,0,,,72,127
90258,note_off,54,0,0,,5,,,65,127
90258,note_on,0,0,0,,5,,,53,127
90258,note_on,0,0,0,,10,,,69,127
90266,note_off,8,0,0,,11,,,70,127
90627,note_off,361,0,0,,10,,,69,127
90627,note_off,0,0,0,,5,,,53,127
90627,note_on,0,0,0,,3,,,63,127
90627,note_on,0,0,0,,5,,,77,127
90996,note_off,369,0,0,,3,,,63,127
90996,note_on,0,0,0,,2,,,62,127
91119,note_off,123,0,0,,5,,,77,127
91119,note_on,0,0,0,,5,,,77,127
91242,note_off,123,0,0,,5,,,77,127
91242,note_on,0,0,0,,3,,,75,127
91365,note_off,123,0,0,,3,,,75,127
91365,note_off,0,0,0,,2,,,62,127
91365,note_on,0,0,0,,11,,,58,127
91365,note_on,0,0,0,,2,,,74,127
91488,note_off,123,0,0,,2,,,74,127
91488,note_on,0,0,0,,0,,,72,127
91611,note_off,123,0,0,,0,,,72,127
91611,note_on,0,0,0,,11,,,70,127
91734,note_off,123,0,0,,11,,,70,127
91734,note_off,0,0,0,,11,,,58,127
91734,note_on,0,0,0,,2,,,62,127
91734,note_on,0,0,0,,8,,,68,127
91857,note_off,123,0,0,,8,,,68,127
91857,note_on,0,0,0,,7,,,67,127
91980,note_off,123,0,0,,7,,,67,127
91980,note_on,0,0,0,,8,,,68,127
92103,note_off,123,0,0,,8,,,68,127
92103,note_off,0,0,0,,2,,,62,127
92103,note_on,0,0,0,,3,,,63,127
92103,note_on,0,0,0,,11,,,70,127
92164,note_on,61,0,0,,8,,,68,127
92172,note_off,8,0,0,,11,,,70,127
92226,note_on,54,0,0,,11,,,70,127
92234,note_off,8,0,0,,8,,,68,127
92288,note_on,54,0,0,,8,,,68,127
92296,note_off,8,0,0,,11,,,70,127
92350,note_on,54,0,0,,11,,,70,127
92358,note_off,8,0,0,,8,,,68,127
92412,note_on,54,0,0,,8,,,68,127
92420,note_off,8,0,0,,11,,,70,127
92474,note_off,54,0,0,,3,,,63,127
92474,note_on,0,0,0,,3,,,51,127
92474,note_on,0,0,0,,11,,,70,127
92482,note_off,8,0,0,,8,,,68,127
92536,note_on,54,0,0,,8,,,68,127
92544,note_off,8,0,0,,11,,,70,127
92598,note_on,54,0,0,,11,,,70,127
92606,note_off,8,0,0,,8,,,68,127
92660,note_on,54,0,0,,8,,,68,127
92668,note_off,8,0,0,,11,,,70,127
92722,note_on,54,0,0,,7,,,67,127
92730,note_off,8,0,0,,8,,,68,127
92784,note_on,54,0,0,,8,,,68,127
92792,note_off,8,0,0,,7,,,67,127
92846,note_off,54,0,0,,3,,,51,127
92846,note_on,0,0,0,,3,,,39,127
92846,note_on,0,0,0,,7,,,67,127
92854,note_off,8,0,0,,8,,,68,127
93202,note_off,348,0,0,,7,,,67,127
93215,note_off,13,0,0,,3,,,39,127
93215,note_on,0,0,0,,7,,,67,127
93215,note_on,0,0,0,,3,,,63,127
93215,note_on,0,0,0,,6,,,78,127
93338,note_off,123,0,0,,6,,,78,127
93338,note_on,0,0,0,,7,,,79,127
93461,note_off,123,0,0,,7,,,79,127
93461,note_on,0,0,0,,2,,,74,127
93584,note_off,123,0,0,,2,,,74,127
93584,note_off,0,0,0,,3,,,63,127
93584,note_off,0,0,0,,7,,,67,127
93584,note_on,0,0,0,,7,,,67,127
93584,note_on,0,0,0,,3,,,63,127
93584,note_on,0,0,0,,3,,,75,127
93707,note_off,123,0,0,,3,,,75,127
93707,note_on,0,0,0,,5,,,77,127
93830,note_off,123,0,0,,5,,,77,127
93830,note_on,0,0,0,,12,,,71,127
93953,note_off,123,0,0,,12,,,71,127
93953,note_off,0,0,0,,3,,,63,127
93953,note_off,0,0,0,,7,,,67,127
93953,note_on,0,0,0,,7,,,67,127
93953,note_on,0,0,0,,3,,,63,127
93953,note_on,0,0,0,,0,,,72,127
94076,note_off,123,0,0,,0,,,72,127
94076,note_on,0,0,0,,2,,,74,127
94199,note_off,123,0,0,,2,,,74,127
94199,note_on,0,0,0,,3,,,75,127
94322,note_off,123,0,0,,3,,,75,127
94322,note_off,0,0,0,,3,,,63,127
94322,note_off,0,0,0,,7,,,67,127
94322,note_on,0,0,0,,2,,,62,127
94322,note_on,0,0,0,,5,,,65,127
94322,note_on,0,0,0,,4,,,76,127
94445,note_off,123,0,0,,4,,,76,127
94445,note_on,0,0,0,,5,,,77,127
94568,note_off,123,0,0,,5,,,77,127
94568,note_on,0,0,0,,0,,,72,127
94691,note_off,123,0,0,,0,,,72,127
94691,note_off,0,0,0,,5,,,65,127
94691,note_off,0,0,0,,2,,,62,127
94691,note_on,0,0,0,,5,,,65,127
94691,note_on,0,0,0,,2,,,62,127
94691,note_on,0,0,0,,2,,,74,127
94814,note_off,123,0,0,,2,,,74,127
94814,note_on,0,0,0,,3,,,75,127
94937,note_off,123,0,0,,3,,,75,127
94937,note_on,0,0,0,,10,,,69,127
95060,note_off,123,0,0,,10,,,69,127
95060,note_off,0,0,0,,2,,,62,127
95060,note_off,0,0,0,,5,,,65,127
95060,note_on,0,0,0,,5,,,65,127
95060,note_on,0,0,0,,2,,,62,127
95060,note_on,0,0,0,,11,,,70,127
95183,note_off,123,0,0,,11,,,70,127
95183,note_on,0,0,0,,0,,,72,127
95306,note_off,123,0,0,,0,,,72,127
95306,note_on,0,0,0,,2,,,74,127
95429,note_off,123,0,0,,2,,,74,127
95429,note_off,0,0,0,,2,,,62,127
95429,note_off,0,0,0,,5,,,65,127
95429,note_on,0,0,0,,0,,,60,127
95429,note_on,0,0,0,,7,,,67,127
95429,note_on,0,0,0,,3,,,75,127
95552,note_off,123,0,0,,3,,,75,127
95552,note_on,0,0,0,,5,,,77,127
95675,note_off,123,0,0,,5,,,77,127
95675,note_on,0,0,0,,7,,,79,127
95798,note_off,123,0,0,,7,,,79,127
95798,note_off,0,0,0,,7,,,67,127
95798,note_off,0,0,0,,0,,,60,127
95798,note_on,0,0,0,,2,,,62,127
95798,note_on,0,0,0,,3,,,75,127
95921,note_off,123,0,0,,3,,,75,127
95921,note_on,0,0,0,,2,,,74,127
96044,note_off,123,0,0,,2,,,74,127
96044,note_on,0,0,0,,0,,,72,127
96167,note_off,123,0,0,,0,,,72,127
96167,note_off,0,0,0,,2,,,62,127
96167,note_on,0,0,0,,4,,,64,127
96167,note_on,0,0,0,,11,,,70,127
96290,note_off,123,0,0,,11,,,70,127
96290,note_on,0,0,0,,10,,,69,127
96413,note_off,123,0,0,,10,,,69,127
96413,note_on,0,0,0,,11,,,70,127
96536,note_off,123,0,0,,11,,,70,127
96536,note_off,0,0,0,,4,,,64,127
96536,note_on,0,0,0,,5,,,53,127
96536,note_on,0,0,0,,5,,,65,127
96536,note_on,0,0,0,,10,,,69,127
96659,note_off,123,0,0,,10,,,69,127
96659,note_on,0,0,0,,11,,,70,127
96782,note_off,123,0,0,,11,,,70,127
96782,note_on,0,0,0,,0,,,72,127
96905,note_off,123,0,0,,0,,,72,127
96905,note_off,0,0,0,,5,,,65,127
96905,note_off,0,0,0,,5,,,53,127
96905,note_on,0,0,0,,11,,,58,127
96905,note_on,0,0,0,,1,,,73,127
97028,note_off,123,0,0,,1,,,73,127
97028,note_on,0,0,0,,2,,,74,127
97151,note_off,123,0,0,,2,,,74,127
97151,note_on,0,0,0,,7,,,67,127
97274,note_off,123,0,0,,7,,,67,127
97274,note_off,0,0,0,,11,,,58,127
97274,note_on,0,0,0,,12,,,59,127
97274,note_on,0,0,0,,5,,,65,127
97397,note_off,123,0,0,,5,,,65,127
97397,note_on,0,0,0,,4,,,64,127
97520,note_off,123,0,0,,4,,,64,127
97520,note_on,0,0,0,,5,,,65,127
97643,note_off,123,0,0,,5,,,65,127
97643,note_off,0,0,0,,12,,,59,127
97643,note_on,0,0,0,,0,,,60,127
97643,note_on,0,0,0,,7,,,67,127
97704,note_on,61,0,0,,5,,,65,127
97712,note_off,8,0,0,,7,,,67,127
97766,note_on,54,0,0,,7,,,67,127
97774,note_off,8,0,0,,5,,,65,127
97828,note_on,54,0,0,,5,,,65,127
97836,note_off,8,0,0,,7,,,67,127
97890,note_on,54,0,0,,7,,,67,127
97898,note_off,8,0,0,,5,,,65,127
97952,note_on,54,0,0,,5,,,65,127
97960,note_off,8,0,0,,7,,,67,127
98014,note_off,54,0,0,,0,,,60,127
98014,note_on,0,0,0,,0,,,48,127
98014,note_on,0,0,0,,7,,,67,127
98022,note_off,8,0,0,,5,,,65,127
98076,note_on,54,0,0,,5,,,65,127
98084,note_off,8,0,0,,7,,,67,127
98138,note_on,54,0,0,,7,,,67,127
98146,note_off,8,0,0,,5,,,65,127
98200,note_on,54,0,0,,5,,,65,127
98208,note_off,8,0,0,,7,,,67,127
98262,note_on,54,0,0,,4,,,64,127
98270,note_off,8,0,0,,5,,,65,127
98324,note_on,54,0,0,,5,,,65,127
98332,note_off,8,0,0,,4,,,64,127
98386,note_off,54,0,0,,0,,,48,127
98386,note_on,0,0,0,,0,,,36,127
98386,note_on,0,0,0,,4,,,64,127
98394,note_off,8,0,0,,5,,,65,127
98754,note_off,360,0,0,,4,,,64,127
98755,note_off,1,0,0,,0,,,36,127
98755,note_on,0,0,0,,5,,,65,127
98878,note_on,123,0,0,,5,,,77,127
99001,note_off,123,0,0,,5,,,77,127
99001,note_on,0,0,0,,7,,,79,127
99124,note_off,123,0,0,,7,,,79,127
99124,note_on,0,0,0,,10,,,81,127
99247,note_off,123,0,0,,10,,,81,127
99247,note_on,0,0,0,,0,,,84,127
99370,note_off,123,0,0,,0,,,84,127
99370,note_on,0,0,0,,7,,,79,127
99493,note_off,123,0,0,,5,,,65,127
99493,note_on,0,0,0,,2,,,62,127
99493,note_on,0,0,0,,12,,,71,127
99554,note_on,61,0,0,,5,,,77,127
99562,note_off,8,0,0,,7,,,79,127
99616,note_on,54,0,0,,7,,,79,127
99624,note_off,8,0,0,,5,,,77,127
99678,note_on,54,0,0,,5,,,77,127
99686,note_off,8,0,0,,7,,,79,127
99740,note_on,54,0,0,,7,,,79,127
99748,note_off,8,0,0,,5,,,77,127
99802,note_on,54,0,0,,5,,,77,127
99810,note_off,8,0,0,,7,,,79,127
99864,note_off,54,0,0,,12,,,71,127
99864,note_off,0,0,0,,2,,,62,127
99864,note_on,0,0,0,,0,,,60,127
99925,note_off,61,0,0,,5,,,77,127
99986,note_on,61,0,0,,4,,,76,127
100109,note_off,123,0,0,,4,,,76,127
100109,note_on,0,0,0,,5,,,77,127
100232,note_off,123,0,0,,5,,,77,127
100232,note_off,0,0,0,,0,,,60,127
100232,note_on,0,0,0,,0,,,72,127
100232,note_on,0,0,0,,7,,,79,127
100355,note_off,123,0,0,,7,,,79,127
100355,note_on,0,0,0,,11,,,82,127
100478,note_off,123,0,0,,11,,,82,127
100478,note_on,0,0,0,,5,,,77,127
100601,note_off,123,0,0,,0,,,72,127
100601,note_on,0,0,0,,11,,,70,127
100662,note_on,61,0,0,,4,,,76,127
100670,note_off,8,0,0,,5,,,77,127
100724,note_on,54,0,0,,5,,,77,127
100732,note_off,8,0,0,,4,,,76,127
100786,note_on,54,0,0,,4,,,76,127
100794,note_off,8,0,0,,5,,,77,127
100848,note_on,54,0,0,,5,,,77,127
100856,note_off,8,0,0,,4,,,76,127
100910,note_on,54,0,0,,4,,,76,127
100918,note_off,8,0,0,,5,,,77,127
100972,note_off,54,0,0,,11,,,70,127
100972,note_on,0,0,0,,10,,,69,127
101033,note_off,61,0,0,,4,,,76,127
101094,note_on,61,0,0,,5,,,77,127
101217,note_off,123,0,0,,5,,,77,127
101217,note_on,0,0,0,,7,,,79,127
101340,note_off,123,0,0,,7,,,79,127
101340,note_off,0,0,0,,10,,,69,127
101340,note_on,0,0,0,,5,,,65,127
101340,note_on,0,0,0,,10,,,81,127
101463,note_off,123,0,0,,10,,,81,127
101463,note_on,0,0,0,,0,,,84,127
101586,note_off,123,0,0,,0,,,84,127
101586,note_on,0,0,0,,7,,,79,127
101709,note_off,123,0,0,,5,,,65,127
101709,note_on,0,0,0,,2,,,62,127
101709,note_on,0,0,0,,12,,,71,127
101770,note_on,61,0,0,,5,,,77,127
101778,note_off,8,0,0,,7,,,79,127
101832,note_on,54,0,0,,7,,,79,127
101840,note_off,8,0,0,,5,,,77,127
101894,note_on,54,0,0,,5,,,77,127
101902,note_off,8,0,0,,7,,,79,127
101956,note_on,54,0,0,,7,,,79,127
101964,note_off,8,0,0,,5,,,77,127
102018,note_on,54,0,0,,5,,,77,127
102026,note_off,8,0,0,,7,,,79,127
102080,note_off,54,0,0,,12,,,71,127
102080,note_off,0,0,0,,2,,,62,127
102080,note_on,0,0,0,,0,,,60,127
102172,note_off,92,0,0,,5,,,77,127
102203,note_on,31,0,0,,4,,,76,127
102326,note_off,123,0,0,,4,,,76,127
102326,note_on,0,0,0,,5,,,77,127
102449,note_off,123,0,0,,5,,,77,127
102449,note_off,0,0,0,,0,,,60,127
102449,note_on,0,0,0,,0,,,72,127
102449,note_on,0,0,0,,7,,,79,127
102572,note_off,123,0,0,,7,,,79,127
102572,note_on,0,0,0,,11,,,82,127
102695,note_off,123,0,0,,11,,,82,127
102695,note_on,0,0,0,,5,,,77,127
102818,note_off,123,0,0,,0,,,72,127
102818,note_on,0,0,0,,11,,,70,127
102879,note_on,61,0,0,,4,,,76,127
102887,note_off,8,0,0,,5,,,77,127
102941,note_on,54,0,0,,5,,,77,127
102949,note_off,8,0,0,,4,,,76,127
103003,note_on,54,0,0,,4,,,76,127
103011,note_off,8,0,0,,5,,,77,127
103065,note_on,54,0,0,,5,,,77,127
103073,note_off,8,0,0,,4,,,76,127
103127,note_on,54,0,0,,4,,,76,127
103135,note_off,8,0,0,,5,,,77,127
103189,note_off,54,0,0,,11,,,70,127
103189,note_on,0,0,0,,10,,,69,127
103281,note_off,92,0,0,,4,,,76,127
103312,note_on,31,0,0,,0,,,84,127
103435,note_off,123,0,0,,0,,,84,127
103435,note_on,0,0,0,,11,,,82,127
103558,note_off,123,0,0,,11,,,82,127
103558,note_off,0,0,0,,10,,,69,127
103558,note_on,0,0,0,,5,,,65,127
103558,note_on,0,0,0,,10,,,81,127
103681,note_off,123,0,0,,10,,,81,127
103681,note_on,0,0,0,,7,,,79,127
103804,note_off,123,0,0,,7,,,79,127
103804,note_on,0,0,0,,5,,,77,127
103927,note_off,123,0,0,,5,,,77,127
103927,note_off,0,0,0,,5,,,65,127
103927,note_on,0,0,0,,10,,,69,127
103927,note_on,0,0,0,,3,,,75,127
104050,note_off,123,0,0,,3,,,75,127
104050,note_on,0,0,0,,2,,,74,127
104173,note_off,123,0,0,,2,,,74,127
104173,note_on,0,0,0,,0,,,72,127
104296,note_off,123,0,0,,0,,,72,127
104296,note_off,0,0,0,,10,,,69,127
104296,note_on,0,0,0,,11,,,58,127
104296,note_on,0,0,0,,2,,,74,127
104419,note_off,123,0,0,,2,,,74,127
104419,note_on,0,0,0,,0,,,72,127
104542,note_off,123,0,0,,0,,,72,127
104542,note_on,0,0,0,,11,,,70,127
104665,note_off,123,0,0,,11,,,70,127
104665,note_off,0,0,0,,11,,,58,127
104665,note_on,0,0,0,,0,,,60,127
104665,note_on,0,0,0,,10,,,69,127
104788,note_off,123,0,0,,10,,,69,127
104788,note_on,0,0,0,,7,,,67,127
104911,note_off,123,0,0,,7,,,67,127
104911,note_on,0,0,0,,5,,,65,127
105034,note_off,123,0,0,,5,,,65,127
105034,note_off,0,0,0,,0,,,60,127
105034,note_on,0,0,0,,0,,,48,127
105034,note_on,0,0,0,,10,,,69,127
105095,note_on,61,0,0,,7,,,67,127
105103,note_off,8,0,0,,10,,,69,127
105157,note_on,54,0,0,,10,,,69,127
105165,note_off,8,0,0,,7,,,67,127
105219,note_on,54,0,0,,7,,,67,127
105227,note_off,8,0,0,,10,,,69,127
105281,note_on,54,0,0,,10,,,69,127
105289,note_off,8,0,0,,7,,,67,127
105343,note_on,54,0,0,,7,,,67,127
105351,note_off,8,0,0,,10,,,69,127
105395,note_off,44,0,0,,0,,,48,127
105412,note_off,17,0,0,,7,,,67,127
106203,note_on,791,0,0,,5,,,65,127
106326,note_on,123,0,0,,5,,,77,127
106449,note_off,123,0,0,,5,,,77,127
106449,note_on,0,0,0,,7,,,79,127
106572,note_off,123,0,0,,7,,,79,127
106572,note_on,0,0,0,,8,,,80,127
106695,note_off,123,0,0,,8,,,80,127
106695,note_on,0,0,0,,0,,,84,127
106818,note_off,123,0,0,,0,,,84,127
106818,note_on,0,0,0,,7,,,79,127
106941,note_off,123,0,0,,5,,,65,127
106941,note_on,0,0,0,,1,,,73,127
107002,note_on,61,0,0,,5,,,77,127
107010,note_off,8,0,0,,7,,,79,127
107064,note_on,54,0,0,,7,,,79,127
107072,note_off,8,0,0,,5,,,77,127
107126,note_on,54,0,0,,5,,,77,127
107134,note_off,8,0,0,,7,,,79,127
107188,note_on,54,0,0,,7,,,79,127
107196,note_off,8,0,0,,5,,,77,127
107250,note_on,54,0,0,,5,,,77,127
107258,note_off,8,0,0,,7,,,79,127
107312,note_off,54,0,0,,1,,,73,127
107312,note_on,0,0,0,,0,,,60,127
107404,note_off,92,0,0,,5,,,77,127
107435,note_on,31,0,0,,4,,,76,127
107558,note_off,123,0,0,,4,,,76,127
107558,note_on,0,0,0,,5,,,77,127
107681,note_off,123,0,0,,5,,,77,127
107681,note_off,0,0,0,,0,,,60,127
107681,note_on,0,0,0,,7,,,79,127
107681,note_on,0,0,0,,0,,,72,127
107804,note_off,123,0,0,,7,,,79,127
107804,note_on,0,0,0,,11,,,82,127
107927,note_off,123,0,0,,11,,,82,127
107927,note_on,0,0,0,,5,,,77,127
108050,note_off,123,0,0,,0,,,72,127
108050,note_on,0,0,0,,11,,,70,127
108111,note_on,61,0,0,,4,,,76,127
108119,note_off,8,0,0,,5,,,77,127
108173,note_on,54,0,0,,5,,,77,127
108181,note_off,8,0,0,,4,,,76,127
108235,note_on,54,0,0,,4,,,76,127
108243,note_off,8,0,0,,5,,,77,127
108297,note_on,54,0,0,,5,,,77,127
108305,note_off,8,0,0,,4,,,76,127
108359,note_on,54,0,0,,4,,,76,127
108367,note_off,8,0,0,,5,,,77,127
108421,note_off,54,0,0,,11,,,70,127
108421,note_on,0,0,0,,8,,,68,127
108513,note_off,92,0,0,,4,,,76,127
108544,note_on,31,0,0,,5,,,77,127
108667,note_off,123,0,0,,5,,,77,127
108667,note_on,0,0,0,,7,,,79,127
108790,note_off,123,0,0,,7,,,79,127
108790,note_off,0,0,0,,8,,,68,127
108790,note_on,0,0,0,,8,,,80,127
108790,note_on,0,0,0,,5,,,65,127
108913,note_off,123,0,0,,8,,,80,127
108913,note_on,0,0,0,,0,,,84,127
109036,note_off,123,0,0,,0,,,84,127
109036,note_on,0,0,0,,7,,,79,127
109159,note_off,123,0,0,,5,,,65,127
109159,note_on,0,0,0,,1,,,73,127
109220,note_on,61,0,0,,5,,,77,127
109228,note_off,8,0,0,,7,,,79,127
109282,note_on,54,0,0,,7,,,79,127
109290,note_off,8,0,0,,5,,,77,127
109344,note_on,54,0,0,,5,,,77,127
109352,note_off,8,0,0,,7,,,79,127
109406,note_on,54,0,0,,7,,,79,127
109414,note_off,8,0,0,,5,,,77,127
109468,note_on,54,0,0,,5,,,77,127
109476,note_off,8,0,0,,7,,,79,127
109530,note_off,54,0,0,,1,,,73,127
109530,note_on,0,0,0,,0,,,60,127
109641,note_off,111,0,0,,5,,,77,127
109653,note_on,12,0,0,,4,,,76,127
109776,note_off,123,0,0,,4,,,76,127
109776,note_on,0,0,0,,5,,,77,127
109899,note_off,123,0,0,,5,,,77,127
109899,note_off,0,0,0,,0,,,60,127
109899,note_on,0,0,0,,7,,,79,127
109899,note_on,0,0,0,,0,,,72,127
110022,note_off,123,0,0,,7,,,79,127
110022,note_on,0,0,0,,11,,,82,127
110145,note_off,123,0,0,,11,,,82,127
110145,note_on,0,0,0,,5,,,77,127
110268,note_off,123,0,0,,0,,,72,127
110268,note_on,0,0,0,,11,,,70,127
110329,note_on,61,0,0,,4,,,76,127
110337,note_off,8,0,0,,5,,,77,127
110391,note_on,54,0,0,,5,,,77,127
110399,note_off,8,0,0,,4,,,76,127
110453,note_on,54,0,0,,4,,,76,127
110461,note_off,8,0,0,,5,,,77,127
110515,note_on,54,0,0,,5,,,77,127
110523,note_off,8,0,0,,4,,,76,127
110577,note_on,54,0,0,,4,,,76,127
110585,note_off,8,0,0,,5,,,77,127
110639,note_off,54,0,0,,11,,,70,127
110639,note_on,0,0,0,,8,,,68,127
110750,note_off,111,0,0,,4,,,76,127
110762,note_on,12,0,0,,0,,,84,127
110885,note_off,123,0,0,,0,,,84,127
110885,note_on,0,0,0,,11,,,82,127
111008,note_off,123,0,0,,11,,,82,127
111008,note_off,0,0,0,,8,,,68,127
111008,note_on,0,0,0,,8,,,80,127
111008,note_on,0,0,0,,5,,,65,127
111131,note_off,123,0,0,,8,,,80,127
111131,note_on,0,0,0,,7,,,79,127
111254,note_off,123,0,0,,7,,,79,127
111254,note_on,0,0,0,,5,,,77,127
111377,note_off,123,0,0,,5,,,77,127
111377,note_off,0,0,0,,5,,,65,127
111377,note_on,0,0,0,,3,,,75,127
111377,note_on,0,0,0,,8,,,68,127
111500,note_off,123,0,0,,3,,,75,127
111500,note_on,0,0,0,,1,,,73,127
111623,note_off,123,0,0,,1,,,73,127
111623,note_on,0,0,0,,0,,,72,127
111746,note_off,123,0,0,,0,,,72,127
111746,note_off,0,0,0,,8,,,68,127
111746,note_on,0,0,0,,1,,,73,127
111746,note_on,0,0,0,,11,,,58,127
111869,note_off,123,0,0,,1,,,73,127
111869,note_on,0,0,0,,0,,,72,127
111992,note_off,123,0,0,,0,,,72,127
111992,note_on,0,0,0,,11,,,70,127
112115,note_off,123,0,0,,11,,,70,127
112115,note_off,0,0,0,,11,,,58,127
112115,note_on,0,0,0,,8,,,68,127
112115,note_on,0,0,0,,0,,,60,127
112238,note_off,123,0,0,,8,,,68,127
112238,note_on,0,0,0,,7,,,67,127
112361,note_off,123,0,0,,7,,,67,127
112361,note_on,0,0,0,,5,,,65,127
112484,note_off,123,0,0,,5,,,65,127
112484,note_off,0,0,0,,0,,,60,127
112484,note_on,0,0,0,,8,,,68,127
112484,note_on,0,0,0,,0,,,48,127
112545,note_on,61,0,0,,7,,,67,127
112553,note_off,8,0,0,,8,,,68,127
112607,note_on,54,0,0,,8,,,68,127
112615,note_off,8,0,0,,7,,,67,127
112669,note_on,54,0,0,,7,,,67,127
112677,note_off,8,0,0,,8,,,68,127
112731,note_on,54,0,0,,8,,,68,127
112739,note_off,8,0,0,,7,,,67,127
112793,note_on,54,0,0,,7,,,67,127
112801,note_off,8,0,0,,8,,,68,127
112849,note_off,48,0,0,,7,,,67,127
112855,note_off,6,0,0,,0,,,48,127
112855,note_on,0,0,0,,5,,,53,127
112978,note_on,123,0,0,,10,,,69,127
113101,note_off,123,0,0,,10,,,69,127
113101,note_on,0,0,0,,11,,,70,127
113224,note_off,123,0,0,,11,,,70,127
113224,note_on,0,0,0,,0,,,72,127
113347,note_off,123,0,0,,0,,,72,127
113347,note_on,0,0,0,,2,,,74,127
113470,note_off,123,0,0,,2,,,74,127
113470,note_on,0,0,0,,4,,,76,127
113593,note_off,123,0,0,,4,,,76,127
113593,note_off,0,0,0,,5,,,53,127
113593,note_on,0,0,0,,5,,,77,127
113593,note_on,0,0,0,,5,,,65,127
113593,note_on,0,0,0,,10,,,57,127
113716,note_off,123,0,0,,5,,,77,127
113716,note_on,0,0,0,,7,,,79,127
113839,note_off,123,0,0,,7,,,79,127
113839,note_on,0,0,0,,10,,,81,127
113962,note_off,123,0,0,,10,,,81,127
113962,note_off,0,0,0,,10,,,57,127
113962,note_off,0,0,0,,5,,,65,127
113962,note_on,0,0,0,,2,,,74,127
113962,note_on,0,0,0,,11,,,58,127
113962,note_on,0,0,0,,5,,,65,127
114085,note_off,123,0,0,,2,,,74,127
114085,note_on,0,0,0,,11,,,82,127
114208,note_off,123,0,0,,11,,,82,127
114208,note_on,0,0,0,,7,,,79,127
114331,note_off,123,0,0,,7,,,79,127
114331,note_off,0,0,0,,5,,,65,127
114331,note_off,0,0,0,,11,,,58,127
114331,note_on,0,0,0,,5,,,77,127
114331,note_on,0,0,0,,10,,,69,127
114331,note_on,0,0,0,,0,,,60,127
114700,note_off,369,0,0,,0,,,60,127
114700,note_off,0,0,0,,10,,,69,127
114700,note_off,0,0,0,,5,,,77,127
114700,note_on,0,0,0,,5,,,77,127
114700,note_on,0,0,0,,7,,,67,127
114761,note_on,61,0,0,,4,,,76,127
114769,note_off,8,0,0,,5,,,77,127
114823,note_on,54,0,0,,5,,,77,127
114831,note_off,8,0,0,,4,,,76,127
114885,note_on,54,0,0,,4,,,76,127
114893,note_off,8,0,0,,5,,,77,127
114947,note_on,54,0,0,,5,,,77,127
114955,note_off,8,0,0,,4,,,76,127
115009,note_on,54,0,0,,4,,,76,127
115017,note_off,8,0,0,,5,,,77,127
115067,note_off,50,0,0,,4,,,76,127
115071,note_off,4,0,0,,7,,,67,127
115071,note_on,0,0,0,,5,,,65,127
115071,note_on,0,0,0,,5,,,53,127
115194,note_on,123,0,0,,8,,,68,127
115317,note_off,123,0,0,,8,,,68,127
115317,note_on,0,0,0,,11,,,70,127
115440,note_off,123,0,0,,11,,,70,127
115440,note_on,0,0,0,,0,,,72,127
115563,note_off,123,0,0,,0,,,72,127
115563,note_on,0,0,0,,2,,,74,127
115686,note_off,123,0,0,,2,,,74,127
115686,note_on,0,0,0,,4,,,76,127
115809,note_off,123,0,0,,4,,,76,127
115809,note_off,0,0,0,,5,,,53,127
115809,note_off,0,0,0,,5,,,65,127
115809,note_on,0,0,0,,5,,,77,127
115809,note_on,0,0,0,,5,,,65,127
115809,note_on,0,0,0,,8,,,56,127
115932,note_off,123,0,0,,5,,,77,127
115932,note_on,0,0,0,,7,,,79,127
116055,note_off,123,0,0,,7,,,79,127
116055,note_on,0,0,0,,8,,,80,127
116178,note_off,123,0,0,,8,,,80,127
116178,note_off,0,0,0,,8,,,56,127
116178,note_off,0,0,0,,5,,,65,127
116178,note_on,0,0,0,,1,,,73,127
116178,note_on,0,0,0,,5,,,65,127
116178,note_on,0,0,0,,11,,,58,127
116301,note_off,123,0,0,,1,,,73,127
116301,note_on,0,0,0,,11,,,82,127
116424,note_off,123,0,0,,11,,,82,127
116424,note_on,0,0,0,,7,,,79,127
116547,note_off,123,0,0,,7,,,79,127
116547,note_off,0,0,0,,11,,,58,127
116547,note_off,0,0,0,,5,,,65,127
116547,note_on,0,0,0,,5,,,77,127
116547,note_on,0,0,0,,8,,,68,127
116547,note_on,0,0,0,,0,,,60,127
116916,note_off,369,0,0,,0,,,60,127
116916,note_off,0,0,0,,8,,,68,127
116916,note_off,0,0,0,,5,,,77,127
116916,note_on,0,0,0,,5,,,77,127
116916,note_on,0,0,0,,7,,,67,127
116977,note_on,61,0,0,,4,,,76,127
116985,note_off,8,0,0,,5,,,77,127
117039,note_on,54,0,0,,5,,,77,127
117047,note_off,8,0,0,,4,,,76,127
117101,note_on,54,0,0,,4,,,76,127
117109,note_off,8,0,0,,5,,,77,127
117163,note_on,54,0,0,,5,,,77,127
117171,note_off,8,0,0,,4,,,76,127
117225,note_on,54,0,0,,4,,,76,127
117233,note_off,8,0,0,,5,,,77,127
117283,note_off,50,0,0,,4,,,76,127
117287,note_off,4,0,0,,7,,,67,127
117287,note_on,0,0,0,,5,,,53,127
117287,note_on,0,0,0,,5,,,65,127
117410,note_on,123,0,0,,10,,,69,127
117533,note_off,123,0,0,,10,,,69,127
117533,note_on,0,0,0,,11,,,70,127
117656,note_off,123,0,0,,11,,,70,127
117656,note_on,0,0,0,,0,,,72,127
117779,note_off,123,0,0,,0,,,72,127
117779,note_on,0,0,0,,2,,,74,127
117902,note_off,123,0,0,,2,,,74,127
117902,note_on,0,0,0,,4,,,76,127
118025,note_off,123,0,0,,4,,,76,127
118025,note_off,0,0,0,,5,,,65,127
118025,note_off,0,0,0,,5,,,53,127
118025,note_on,0,0,0,,5,,,77,127
118025,note_on,0,0,0,,10,,,57,127
118025,note_on,0,0,0,,5,,,65,127
118148,note_off,123,0,0,,5,,,77,127
118148,note_on,0,0,0,,7,,,79,127
118271,note_off,123,0,0,,7,,,79,127
118271,note_on,0,0,0,,10,,,81,127
118394,note_off,123,0,0,,10,,,81,127
118394,note_off,0,0,0,,5,,,65,127
118394,note_off,0,0,0,,10,,,57,127
118394,note_on,0,0,0,,2,,,74,127
118394,note_on,0,0,0,,5,,,65,127
118394,note_on,0,0,0,,11,,,58,127
118517,note_off,123,0,0,,2,,,74,127
118517,note_on,0,0,0,,11,,,82,127
118640,note_off,123,0,0,,11,,,82,127
118640,note_on,0,0,0,,7,,,79,127
118763,note_off,123,0,0,,7,,,79,127
118763,note_off,0,0,0,,11,,,58,127
118763,note_off,0,0,0,,5,,,65,127
118763,note_on,0,0,0,,5,,,77,127
118763,note_on,0,0,0,,10,,,69,127
118763,note_on,0,0,0,,0,,,60,127
119132,note_off,369,0,0,,0,,,60,127
119132,note_off,0,0,0,,10,,,69,127
119132,note_on,0,0,0,,7,,,67,127
119193,note_on,61,0,0,,4,,,76,127
119195,note_off,2,0,0,,5,,,77,127
119255,note_on,60,0,0,,5,,,77,127
119263,note_off,8,0,0,,4,,,76,127
119317,note_on,54,0,0,,4,,,76,127
119325,note_off,8,0,0,,5,,,77,127
119379,note_on,54,0,0,,2,,,74,127
119387,note_off,8,0,0,,4,,,76,127
119441,note_on,54,0,0,,4,,,76,127
119449,note_off,8,0,0,,2,,,74,127
119499,note_off,50,0,0,,4,,,76,127
119503,note_off,4,0,0,,7,,,67,127
119503,note_on,0,0,0,,5,,,53,127
119626,note_on,123,0,0,,0,,,84,127
119749,note_off,123,0,0,,0,,,84,127
119749,note_on,0,0,0,,7,,,79,127
119872,note_off,123,0,0,,7,,,79,127
119872,note_off,0,0,0,,5,,,53,127
119872,note_on,0,0,0,,10,,,81,127
119872,note_on,0,0,0,,7,,,55,127
119995,note_off,123,0,0,,10,,,81,127
119995,note_on,0,0,0,,11,,,82,127
120118,note_off,123,0,0,,11,,,82,127
120118,note_on,0,0,0,,4,,,76,127
120241,note_off,123,0,0,,4,,,76,127
120241,note_off,0,0,0,,7,,,55,127
120241,note_on,0,0,0,,5,,,77,127
120241,note_on,0,0,0,,10,,,57,127
120364,note_off,123,0,0,,5,,,77,127
120364,note_on,0,0,0,,7,,,79,127
120487,note_off,123,0,0,,7,,,79,127
120487,note_on,0,0,0,,0,,,72,127
120610,note_off,123,0,0,,0,,,72,127
120610,note_off,0,0,0,,10,,,57,127
120610,note_on,0,0,0,,2,,,74,127
120610,note_on,0,0,0,,4,,,76,127
120610,note_on,0,0,0,,11,,,58,127
120671,note_on,61,0,0,,0,,,72,127
120679,note_off,8,0,0,,4,,,76,127
120679,note_off,0,0,0,,2,,,74,127
120733,note_on,54,0,0,,11,,,70,127
120741,note_off,8,0,0,,0,,,72,127
120979,note_off,238,0,0,,11,,,70,127
120979,note_off,0,0,0,,11,,,58,127
120979,note_on,0,0,0,,10,,,69,127
120979,note_on,0,0,0,,0,,,60,127
121040,note_on,61,0,0,,7,,,67,127
121048,note_off,8,0,0,,10,,,69,127
121102,note_on,54,0,0,,5,,,65,127
121110,note_off,8,0,0,,7,,,67,127
121348,note_off,238,0,0,,5,,,65,127
121348,note_off,0,0,0,,0,,,60,127
121348,note_on,0,0,0,,10,,,69,127
121348,note_on,0,0,0,,0,,,48,127
121409,note_on,61,0,0,,7,,,67,127
121417,note_off,8,0,0,,10,,,69,127
121471,note_on,54,0,0,,10,,,69,127
121479,note_off,8,0,0,,7,,,67,127
121533,note_on,54,0,0,,7,,,67,127
121541,note_off,8,0,0,,10,,,69,127
121595,note_on,54,0,0,,5,,,65,127
121603,note_off,8,0,0,,7,,,67,127
121657,note_on,54,0,0,,7,,,67,127
121665,note_off,8,0,0,,5,,,65,127
121719,note_off,54,0,0,,0,,,48,127
121719,note_on,0,0,0,,5,,,41,127
121727,note_off,8,0,0,,7,,,67,127
121842,note_on,115,0,0,,0,,,72,127
121965,note_off,123,0,0,,0,,,72,127
121965,note_on,0,0,0,,7,,,67,127
122088,note_off,123,0,0,,7,,,67,127
122088,note_off,0,0,0,,5,,,41,127
122088,note_on,0,0,0,,10,,,69,127
122088,note_on,0,0,0,,7,,,43,127
122211,note_off,123,0,0,,10,,,69,127
122211,note_on,0,0,0,,11,,,70,127
122334,note_off,123,0,0,,11,,,70,127
122334,note_on,0,0,0,,4,,,64,127
122457,note_off,123,0,0,,4,,,64,127
122457,note_off,0,0,0,,7,,,43,127
122457,note_on,0,0,0,,5,,,65,127
122457,note_on,0,0,0,,10,,,45,127
122580,note_off,123,0,0,,5,,,65,127
122580,note_on,0,0,0,,7,,,67,127
122703,note_off,123,0,0,,7,,,67,127
122703,note_on,0,0,0,,0,,,60,127
122826,note_off,123,0,0,,0,,,60,127
122826,note_off,0,0,0,,10,,,45,127
122826,note_on,0,0,0,,2,,,62,127
122826,note_on,0,0,0,,4,,,64,127
122826,note_on,0,0,0,,11,,,46,127
122887,note_on,61,0,0,,0,,,60,127
122895,note_off,8,0,0,,4,,,64,127
122895,note_off,0,0,0,,2,,,62,127
122949,note_on,54,0,0,,11,,,58,127
122957,note_off,8,0,0,,0,,,60,127
123195,note_off,238,0,0,,11,,,58,127
123195,note_off,0,0,0,,11,,,46,127
123195,note_on,0,0,0,,10,,,57,127
123195,note_on,0,0,0,,0,,,48,127
123256,note_on,61,0,0,,7,,,55,127
123264,note_off,8,0,0,,10,,,57,127
123318,note_on,54,0,0,,5,,,53,127
123326,note_off,8,0,0,,7,,,55,127
123564,note_off,238,0,0,,5,,,53,127
123564,note_off,0,0,0,,0,,,48,127
123564,note_on,0,0,0,,10,,,57,127
123564,note_on,0,0,0,,0,,,36,127
123625,note_on,61,0,0,,7,,,55,127
123633,note_off,8,0,0,,10,,,57,127
123687,note_on,54,0,0,,10,,,57,127
123695,note_off,8,0,0,,7,,,55,127
123749,note_on,54,0,0,,7,,,55,127
123757,note_off,8,0,0,,10,,,57,127
123811,note_on,54,0,0,,5,,,53,127
123819,note_off,8,0,0,,7,,,55,127
123873,note_on,54,0,0,,7,,,55,127
123881,note_off,8,0,0,,5,,,53,127
123935,note_off,54,0,0,,0,,,36,127
123943,note_off,8,0,0,,7,,,55,127
123945,note_on,2,0,0,,5,,,53,127
123945,note_on,0,0,0,,5,,,41,127
125625,note_off,1680,0,0,,5,,,41,127
125625,note_off,0,0,0,,5,,,53,127
127488,end_of_track,1863,1,0,,,,,,
