tick,type,time,meta,track,program,channel,pitch,tempo,note,velocity
0,copyright,0,1,0,,,,,,
0,program_change,0,0,0,6,0,,,,
0,pitchwheel,0,0,0,,0,0,,,
0,program_change,0,0,0,6,1,,,,
0,pitchwheel,0,0,0,,1,-590,,,
0,program_change,0,0,0,6,2,,,,
0,pitchwheel,0,0,0,,2,-272,,,
0,program_change,0,0,0,6,3,,,,
0,pitchwheel,0,0,0,,3,-353,,,
0,program_change,0,0,0,6,4,,,,
0,pitchwheel,0,0,0,,4,-560,,,
0,program_change,0,0,0,6,5,,,,
0,pitchwheel,0,0,0,,5,-80,,,
0,program_change,0,0,0,6,6,,,,
0,pitchwheel,0,0,0,,6,-625,,,
0,program_change,0,0,0,6,7,,,,
0,pitchwheel,0,0,0,,7,-130,,,
0,program_change,0,0,0,6,8,,,,
0,pitchwheel,0,0,0,,8,-512,,,
0,program_change,0,0,0,6,10,,,,
0,pitchwheel,0,0,0,,10,-464,,,
0,program_change,0,0,0,6,11,,,,
0,pitchwheel,0,0,0,,11,-208,,,
0,program_change,0,0,0,6,12,,,,
0,pitchwheel,0,0,0,,12,-553,,,
0,set_tempo,0,1,0,,,,500000,,
121,note_on,121,0,0,,5,,,77,127
241,note_off,120,0,0,,5,,,77,127
242,note_on,1,0,0,,7,,,79,127
362,note_off,120,0,0,,7,,,79,127
363,note_on,1,0,0,,10,,,81,127
483,note_off,120,0,0,,10,,,81,127
484,note_on,1,0,0,,5,,,77,127
604,note_off,120,0,0,,5,,,77,127
605,note_on,1,0,0,,11,,,82,127
725,note_off,120,0,0,,11,,,82,127
726,note_on,1,0,0,,7,,,79,127
846,note_off,120,0,0,,7,,,79,127
847,note_on,1,0,0,,0,,,84,127
967,note_off,120,0,0,,0,,,84,127
968,note_on,1,0,0,,10,,,81,127
1088,note_off,120,0,0,,10,,,81,127
1089,note_on,1,0,0,,5,,,77,127
1089,note_on,0,0,0,,10,,,69,127
1209,note_off,120,0,0,,5,,,77,127
1210,note_on,1,0,0,,0,,,72,127
1330,note_off,120,0,0,,0,,,72,127
1330,note_off,0,0,0,,10,,,69,127
1331,note_on,1,0,0,,2,,,74,127
1331,note_on,0,0,0,,11,,,70,127
1451,note_off,120,0,0,,2,,,74,127
1452,note_on,1,0,0,,7,,,79,127
1572,note_off,120,0,0,,11,,,70,127
1573,note_on,1,0,0,,7,,,67,127
1673,note_off,100,0,0,,7,,,79,127
1694,note_on,21,0,0,,4,,,76,127
1814,note_off,120,0,0,,4,,,76,127
1814,note_off,0,0,0,,7,,,67,127
1815,note_on,1,0,0,,5,,,77,127
1815,note_on,0,0,0,,10,,,69,127
1815,note_on,0,0,0,,0,,,72,127
1935,note_off,120,0,0,,5,,,77,127
1936,note_on,1,0,0,,7,,,79,127
2056,note_off,120,0,0,,0,,,72,127
2056,note_off,0,0,0,,10,,,69,127
2057,note_on,1,0,0,,11,,,70,127
2057,note_on,0,0,0,,2,,,74,127
2157,note_off,100,0,0,,7,,,79,127
2178,note_on,21,0,0,,4,,,76,127
2298,note_off,120,0,0,,4,,,76,127
2298,note_off,0,0,0,,2,,,74,127
2298,note_off,0,0,0,,11,,,70,127
2299,note_on,1,0,0,,5,,,77,127
2299,note_on,0,0,0,,0,,,72,127
2299,note_on,0,0,0,,10,,,69,127
2419,note_off,120,0,0,,5,,,77,127
2420,note_on,1,0,0,,7,,,79,127
2540,note_off,120,0,0,,10,,,69,127
2540,note_off,0,0,0,,0,,,72,127
2541,note_on,1,0,0,,11,,,70,127
2541,note_on,0,0,0,,2,,,74,127
2641,note_off,100,0,0,,7,,,79,127
2662,note_on,21,0,0,,4,,,76,127
2782,note_off,120,0,0,,4,,,76,127
2782,note_off,0,0,0,,2,,,74,127
2782,note_off,0,0,0,,11,,,70,127
2783,note_on,1,0,0,,5,,,77,127
2783,note_on,0,0,0,,0,,,72,127
2783,note_on,0,0,0,,10,,,69,127
2903,note_off,120,0,0,,5,,,77,127
2904,note_on,1,0,0,,11,,,82,127
3024,note_off,120,0,0,,10,,,69,127
3024,note_off,0,0,0,,0,,,72,127
3025,note_on,1,0,0,,11,,,70,127
3025,note_on,0,0,0,,7,,,67,127
3125,note_off,100,0,0,,11,,,82,127
3146,note_on,21,0,0,,7,,,79,127
3266,note_off,120,0,0,,7,,,79,127
3266,note_off,0,0,0,,7,,,67,127
3266,note_off,0,0,0,,11,,,70,127
3267,note_on,1,0,0,,10,,,81,127
3267,note_on,0,0,0,,5,,,65,127
3267,note_on,0,0,0,,10,,,69,127
3387,note_off,120,0,0,,10,,,81,127
3388,note_on,1,0,0,,11,,,82,127
3508,note_off,120,0,0,,10,,,69,127
3508,note_off,0,0,0,,5,,,65,127
3509,note_on,1,0,0,,7,,,67,127
3509,note_on,0,0,0,,11,,,70,127
3609,note_off,100,0,0,,11,,,82,127
3630,note_on,21,0,0,,7,,,79,127
3750,note_off,120,0,0,,7,,,79,127
3750,note_off,0,0,0,,11,,,70,127
3750,note_off,0,0,0,,7,,,67,127
3751,note_on,1,0,0,,10,,,81,127
3751,note_on,0,0,0,,10,,,69,127
3751,note_on,0,0,0,,5,,,65,127
3871,note_off,120,0,0,,10,,,81,127
3872,note_on,1,0,0,,0,,,84,127
3992,note_off,120,0,0,,5,,,65,127
3992,note_off,0,0,0,,10,,,69,127
3993,note_on,1,0,0,,11,,,70,127
3993,note_on,0,0,0,,7,,,67,127
4093,note_off,100,0,0,,0,,,84,127
4114,note_on,21,0,0,,4,,,76,127
4234,note_off,120,0,0,,4,,,76,127
4234,note_off,0,0,0,,7,,,67,127
4234,note_off,0,0,0,,11,,,70,127
4235,note_on,1,0,0,,5,,,77,127
4235,note_on,0,0,0,,10,,,69,127
4235,note_on,0,0,0,,0,,,72,127
4355,note_off,120,0,0,,5,,,77,127
4356,note_on,1,0,0,,7,,,79,127
4476,note_off,120,0,0,,0,,,72,127
4476,note_off,0,0,0,,10,,,69,127
4477,note_on,1,0,0,,11,,,70,127
4477,note_on,0,0,0,,2,,,74,127
4577,note_off,100,0,0,,7,,,79,127
4596,note_off,19,0,0,,2,,,74,127
4599,note_on,3,0,0,,2,,,74,127
4719,note_off,120,0,0,,2,,,74,127
4719,note_off,0,0,0,,11,,,70,127
4720,note_on,1,0,0,,4,,,76,127
4720,note_on,0,0,0,,0,,,60,127
4720,note_on,0,0,0,,4,,,64,127
4840,note_off,120,0,0,,4,,,76,127
4841,note_on,1,0,0,,5,,,77,127
4961,note_off,120,0,0,,4,,,64,127
4961,note_off,0,0,0,,0,,,60,127
4962,note_on,1,0,0,,5,,,65,127
4962,note_on,0,0,0,,2,,,62,127
5062,note_off,100,0,0,,5,,,77,127
5083,note_on,21,0,0,,12,,,71,127
5203,note_off,120,0,0,,12,,,71,127
5203,note_off,0,0,0,,2,,,62,127
5203,note_off,0,0,0,,5,,,65,127
5204,note_on,1,0,0,,0,,,72,127
5204,note_on,0,0,0,,4,,,64,127
5204,note_on,0,0,0,,7,,,67,127
5324,note_off,120,0,0,,0,,,72,127
5325,note_on,1,0,0,,2,,,74,127
5445,note_off,120,0,0,,7,,,67,127
5445,note_off,0,0,0,,4,,,64,127
5446,note_on,1,0,0,,0,,,60,127
5446,note_on,0,0,0,,4,,,64,127
5546,note_off,100,0,0,,2,,,74,127
5567,note_on,21,0,0,,7,,,67,127
5687,note_off,120,0,0,,7,,,67,127
5687,note_off,0,0,0,,4,,,64,127
5687,note_off,0,0,0,,0,,,60,127
5688,note_on,1,0,0,,10,,,69,127
5688,note_on,0,0,0,,5,,,53,127
5688,note_on,0,0,0,,10,,,57,127
5808,note_off,120,0,0,,10,,,69,127
5809,note_on,1,0,0,,11,,,70,127
5929,note_off,120,0,0,,10,,,57,127
5929,note_off,0,0,0,,5,,,53,127
5930,note_on,1,0,0,,7,,,55,127
5930,note_on,0,0,0,,11,,,58,127
6030,note_off,100,0,0,,11,,,70,127
6051,note_on,21,0,0,,4,,,64,127
6171,note_off,120,0,0,,4,,,64,127
6171,note_off,0,0,0,,11,,,58,127
6171,note_off,0,0,0,,7,,,55,127
6172,note_on,1,0,0,,5,,,65,127
6172,note_on,0,0,0,,10,,,57,127
6172,note_on,0,0,0,,0,,,60,127
6292,note_off,120,0,0,,5,,,65,127
6293,note_on,1,0,0,,7,,,67,127
6413,note_off,120,0,0,,0,,,60,127
6413,note_off,0,0,0,,10,,,57,127
6414,note_on,1,0,0,,11,,,58,127
6534,note_off,120,0,0,,7,,,67,127
6535,note_on,1,0,0,,2,,,62,127
6655,note_off,120,0,0,,2,,,62,127
6655,note_off,0,0,0,,11,,,58,127
6656,note_on,1,0,0,,5,,,65,127
6656,note_on,0,0,0,,0,,,60,127
6715,note_off,59,0,0,,5,,,65,127
6716,note_on,1,0,0,,4,,,64,127
6775,note_off,59,0,0,,4,,,64,127
6776,note_on,1,0,0,,5,,,65,127
6835,note_off,59,0,0,,5,,,65,127
6836,note_on,1,0,0,,4,,,64,127
6895,note_off,59,0,0,,4,,,64,127
6896,note_on,1,0,0,,5,,,65,127
6896,note_on,0,0,0,,0,,,48,127
6955,note_off,59,0,0,,5,,,65,127
6956,note_on,1,0,0,,4,,,64,127
7015,note_off,59,0,0,,4,,,64,127
7016,note_off,1,0,0,,0,,,60,127
7016,note_on,0,0,0,,2,,,62,127
7136,note_off,120,0,0,,2,,,62,127
7137,note_on,1,0,0,,0,,,60,127
7137,note_on,0,0,0,,0,,,36,127
7374,note_off,237,0,0,,0,,,48,127
7379,note_on,5,0,0,,0,,,72,127
7616,note_off,237,0,0,,0,,,60,127
7620,note_off,4,0,0,,0,,,72,127
7621,note_on,1,0,0,,0,,,72,127
7680,note_off,59,0,0,,0,,,72,127
7681,note_on,1,0,0,,12,,,71,127
7740,note_off,59,0,0,,12,,,71,127
7741,note_off,1,0,0,,0,,,36,127
7741,note_on,0,0,0,,10,,,69,127
7800,note_off,59,0,0,,10,,,69,127
7801,note_on,1,0,0,,7,,,67,127
7860,note_off,59,0,0,,7,,,67,127
7861,note_on,1,0,0,,0,,,72,127
7861,note_on,0,0,0,,4,,,64,127
7861,note_on,0,0,0,,0,,,60,127
8102,note_off,241,0,0,,0,,,60,127
8102,note_off,0,0,0,,4,,,64,127
8103,note_on,1,0,0,,2,,,62,127
8103,note_on,0,0,0,,5,,,65,127
8223,note_off,120,0,0,,0,,,72,127
8224,note_on,1,0,0,,2,,,74,127
8344,note_off,120,0,0,,2,,,74,127
8344,note_off,0,0,0,,5,,,65,127
8344,note_off,0,0,0,,2,,,62,127
8345,note_on,1,0,0,,4,,,76,127
8345,note_on,0,0,0,,12,,,59,127
8345,note_on,0,0,0,,2,,,62,127
8465,note_off,120,0,0,,4,,,76,127
8466,note_on,1,0,0,,5,,,77,127
8586,note_off,120,0,0,,5,,,77,127
8586,note_off,0,0,0,,2,,,62,127
8586,note_off,0,0,0,,12,,,59,127
8587,note_on,1,0,0,,4,,,76,127
8587,note_on,0,0,0,,0,,,60,127
8707,note_off,120,0,0,,4,,,76,127
8708,note_on,1,0,0,,2,,,74,127
8828,note_off,120,0,0,,2,,,74,127
8829,note_on,1,0,0,,2,,,74,127
8829,note_on,0,0,0,,0,,,48,127
8888,note_off,59,0,0,,2,,,74,127
8889,note_on,1,0,0,,0,,,72,127
8948,note_off,59,0,0,,0,,,72,127
8949,note_off,1,0,0,,0,,,60,127
8949,note_on,0,0,0,,12,,,71,127
9069,note_off,120,0,0,,12,,,71,127
9070,note_on,1,0,0,,0,,,72,127
9070,note_on,0,0,0,,0,,,36,127
9191,note_off,121,0,0,,0,,,48,127
9311,note_off,120,0,0,,0,,,72,127
9312,note_on,1,0,0,,0,,,72,127
9553,note_off,241,0,0,,0,,,72,127
9554,note_on,1,0,0,,0,,,72,127
9613,note_off,59,0,0,,0,,,72,127
9614,note_on,1,0,0,,12,,,71,127
9673,note_off,59,0,0,,12,,,71,127
9674,note_off,1,0,0,,0,,,36,127
9674,note_on,0,0,0,,10,,,69,127
9733,note_off,59,0,0,,10,,,69,127
9734,note_on,1,0,0,,7,,,67,127
9793,note_off,59,0,0,,7,,,67,127
9794,note_on,1,0,0,,0,,,72,127
9794,note_on,0,0,0,,0,,,60,127
9794,note_on,0,0,0,,4,,,64,127
10035,note_off,241,0,0,,4,,,64,127
10035,note_off,0,0,0,,0,,,60,127
10036,note_on,1,0,0,,2,,,62,127
10036,note_on,0,0,0,,5,,,65,127
10156,note_off,120,0,0,,0,,,72,127
10157,note_on,1,0,0,,2,,,74,127
10277,note_off,120,0,0,,2,,,74,127
10277,note_off,0,0,0,,5,,,65,127
10277,note_off,0,0,0,,2,,,62,127
10278,note_on,1,0,0,,4,,,76,127
10278,note_on,0,0,0,,12,,,59,127
10278,note_on,0,0,0,,2,,,62,127
10398,note_off,120,0,0,,4,,,76,127
10399,note_on,1,0,0,,5,,,77,127
10519,note_off,120,0,0,,5,,,77,127
10519,note_off,0,0,0,,2,,,62,127
10519,note_off,0,0,0,,12,,,59,127
10520,note_on,1,0,0,,4,,,76,127
10520,note_on,0,0,0,,0,,,60,127
10640,note_off,120,0,0,,4,,,76,127
10641,note_on,1,0,0,,2,,,74,127
10761,note_off,120,0,0,,2,,,74,127
10762,note_on,1,0,0,,2,,,74,127
10762,note_on,0,0,0,,0,,,48,127
10821,note_off,59,0,0,,2,,,74,127
10822,note_on,1,0,0,,0,,,72,127
10881,note_off,59,0,0,,0,,,72,127
10882,note_off,1,0,0,,0,,,60,127
10882,note_on,0,0,0,,12,,,71,127
11002,note_off,120,0,0,,12,,,71,127
11003,note_on,1,0,0,,0,,,72,127
11003,note_on,0,0,0,,0,,,36,127
11124,note_off,121,0,0,,0,,,48,127
11245,note_on,121,0,0,,7,,,79,127
11366,note_off,121,0,0,,0,,,72,127
11482,note_off,116,0,0,,0,,,36,127
11486,note_off,4,0,0,,7,,,79,127
11487,note_on,1,0,0,,7,,,79,127
11546,note_off,59,0,0,,7,,,79,127
11547,note_on,1,0,0,,5,,,77,127
11606,note_off,59,0,0,,5,,,77,127
11607,note_on,1,0,0,,3,,,75,127
11666,note_off,59,0,0,,3,,,75,127
11667,note_on,1,0,0,,2,,,74,127
11726,note_off,59,0,0,,2,,,74,127
11727,note_on,1,0,0,,7,,,79,127
11727,note_on,0,0,0,,0,,,60,127
11727,note_on,0,0,0,,3,,,63,127
11968,note_off,241,0,0,,7,,,79,127
11969,note_on,1,0,0,,7,,,79,127
12028,note_off,59,0,0,,7,,,79,127
12029,note_on,1,0,0,,5,,,77,127
12088,note_off,59,0,0,,5,,,77,127
12089,note_off,1,0,0,,3,,,63,127
12089,note_off,0,0,0,,0,,,60,127
12089,note_on,0,0,0,,3,,,75,127
12148,note_off,59,0,0,,3,,,75,127
12149,note_on,1,0,0,,2,,,74,127
12208,note_off,59,0,0,,2,,,74,127
12209,note_on,1,0,0,,7,,,79,127
12209,note_on,0,0,0,,11,,,58,127
12209,note_on,0,0,0,,2,,,62,127
12450,note_off,241,0,0,,7,,,79,127
12451,note_on,1,0,0,,7,,,79,127
12510,note_off,59,0,0,,7,,,79,127
12511,note_on,1,0,0,,5,,,77,127
12570,note_off,59,0,0,,5,,,77,127
12571,note_off,1,0,0,,2,,,62,127
12571,note_off,0,0,0,,11,,,58,127
12571,note_on,0,0,0,,3,,,75,127
12630,note_off,59,0,0,,3,,,75,127
12631,note_on,1,0,0,,2,,,74,127
12690,note_off,59,0,0,,2,,,74,127
12691,note_on,1,0,0,,7,,,79,127
12691,note_on,0,0,0,,0,,,60,127
12691,note_on,0,0,0,,10,,,57,127
12932,note_off,241,0,0,,7,,,79,127
12933,note_on,1,0,0,,7,,,79,127
12992,note_off,59,0,0,,7,,,79,127
12993,note_on,1,0,0,,5,,,77,127
13052,note_off,59,0,0,,5,,,77,127
13053,note_off,1,0,0,,10,,,57,127
13053,note_off,0,0,0,,0,,,60,127
13053,note_on,0,0,0,,3,,,75,127
13112,note_off,59,0,0,,3,,,75,127
13113,note_on,1,0,0,,2,,,74,127
13172,note_off,59,0,0,,2,,,74,127
13173,note_on,1,0,0,,0,,,84,127
13173,note_on,0,0,0,,7,,,55,127
13173,note_on,0,0,0,,11,,,58,127
13414,note_off,241,0,0,,11,,,58,127
13414,note_off,0,0,0,,7,,,55,127
13415,note_on,1,0,0,,6,,,54,127
13415,note_on,0,0,0,,10,,,57,127
13535,note_off,120,0,0,,0,,,84,127
13536,note_on,1,0,0,,11,,,82,127
13656,note_off,120,0,0,,11,,,82,127
13656,note_off,0,0,0,,10,,,57,127
13656,note_off,0,0,0,,6,,,54,127
13657,note_on,1,0,0,,10,,,81,127
13657,note_on,0,0,0,,10,,,57,127
13657,note_on,0,0,0,,6,,,54,127
13777,note_off,120,0,0,,10,,,81,127
13778,note_on,1,0,0,,7,,,79,127
13898,note_off,120,0,0,,7,,,79,127
13898,note_off,0,0,0,,6,,,54,127
13898,note_off,0,0,0,,10,,,57,127
13899,note_on,1,0,0,,6,,,78,127
13899,note_on,0,0,0,,10,,,57,127
13899,note_on,0,0,0,,6,,,54,127
14019,note_off,120,0,0,,6,,,78,127
14020,note_on,1,0,0,,3,,,75,127
14140,note_off,120,0,0,,3,,,75,127
14140,note_off,0,0,0,,6,,,54,127
14140,note_off,0,0,0,,10,,,57,127
14141,note_on,1,0,0,,2,,,74,127
14141,note_on,0,0,0,,10,,,57,127
14141,note_on,0,0,0,,6,,,54,127
14261,note_off,120,0,0,,2,,,74,127
14262,note_on,1,0,0,,0,,,72,127
14382,note_off,120,0,0,,6,,,54,127
14382,note_off,0,0,0,,10,,,57,127
14383,note_on,1,0,0,,7,,,55,127
14439,note_off,56,0,0,,0,,,72,127
14444,note_on,5,0,0,,11,,,70,127
14503,note_off,59,0,0,,11,,,70,127
14504,note_on,1,0,0,,0,,,72,127
14563,note_off,59,0,0,,0,,,72,127
14564,note_on,1,0,0,,11,,,70,127
14623,note_off,59,0,0,,11,,,70,127
14623,note_off,0,0,0,,7,,,55,127
14624,note_on,1,0,0,,0,,,72,127
14624,note_on,0,0,0,,2,,,50,127
14683,note_off,59,0,0,,0,,,72,127
14684,note_on,1,0,0,,11,,,70,127
14743,note_off,59,0,0,,11,,,70,127
14744,note_on,1,0,0,,10,,,69,127
14864,note_off,120,0,0,,10,,,69,127
14864,note_off,0,0,0,,2,,,50,127
14865,note_on,1,0,0,,11,,,70,127
14865,note_on,0,0,0,,7,,,43,127
15108,note_on,243,0,0,,2,,,74,127
15169,note_off,61,0,0,,11,,,70,127
15346,note_off,177,0,0,,7,,,43,127
15350,note_off,4,0,0,,2,,,74,127
15351,note_on,1,0,0,,2,,,74,127
15410,note_off,59,0,0,,2,,,74,127
15411,note_on,1,0,0,,0,,,72,127
15470,note_off,59,0,0,,0,,,72,127
15471,note_on,1,0,0,,11,,,70,127
15530,note_off,59,0,0,,11,,,70,127
15531,note_on,1,0,0,,10,,,69,127
15590,note_off,59,0,0,,10,,,69,127
15591,note_on,1,0,0,,2,,,74,127
15591,note_on,0,0,0,,7,,,67,127
15832,note_off,241,0,0,,2,,,74,127
15833,note_on,1,0,0,,2,,,74,127
15892,note_off,59,0,0,,2,,,74,127
15893,note_on,1,0,0,,0,,,72,127
15952,note_off,59,0,0,,0,,,72,127
15953,note_off,1,0,0,,7,,,67,127
15953,note_on,0,0,0,,11,,,70,127
16012,note_off,59,0,0,,11,,,70,127
16013,note_on,1,0,0,,10,,,69,127
16072,note_off,59,0,0,,10,,,69,127
16073,note_on,1,0,0,,2,,,74,127
16073,note_on,0,0,0,,5,,,65,127
16314,note_off,241,0,0,,2,,,74,127
16315,note_on,1,0,0,,2,,,74,127
16374,note_off,59,0,0,,2,,,74,127
16375,note_on,1,0,0,,0,,,72,127
16434,note_off,59,0,0,,0,,,72,127
16435,note_off,1,0,0,,5,,,65,127
16435,note_on,0,0,0,,11,,,70,127
16494,note_off,59,0,0,,11,,,70,127
16495,note_on,1,0,0,,10,,,69,127
16554,note_off,59,0,0,,10,,,69,127
16555,note_on,1,0,0,,2,,,74,127
16555,note_on,0,0,0,,4,,,64,127
16796,note_off,241,0,0,,2,,,74,127
16797,note_on,1,0,0,,2,,,74,127
16856,note_off,59,0,0,,2,,,74,127
16857,note_on,1,0,0,,0,,,72,127
16916,note_off,59,0,0,,0,,,72,127
16917,note_off,1,0,0,,4,,,64,127
16917,note_on,0,0,0,,11,,,70,127
16976,note_off,59,0,0,,11,,,70,127
16977,note_on,1,0,0,,10,,,69,127
17036,note_off,59,0,0,,10,,,69,127
17037,note_on,1,0,0,,7,,,79,127
17037,note_on,0,0,0,,2,,,62,127
17278,note_off,241,0,0,,2,,,62,127
17279,note_on,1,0,0,,0,,,60,127
17399,note_off,120,0,0,,7,,,79,127
17400,note_on,1,0,0,,5,,,77,127
17520,note_off,120,0,0,,5,,,77,127
17520,note_off,0,0,0,,0,,,60,127
17521,note_on,1,0,0,,4,,,76,127
17521,note_on,0,0,0,,0,,,60,127
17641,note_off,120,0,0,,4,,,76,127
17642,note_on,1,0,0,,2,,,74,127
17762,note_off,120,0,0,,2,,,74,127
17762,note_off,0,0,0,,0,,,60,127
17763,note_on,1,0,0,,0,,,72,127
17763,note_on,0,0,0,,0,,,60,127
17883,note_off,120,0,0,,0,,,72,127
17884,note_on,1,0,0,,11,,,70,127
18004,note_off,120,0,0,,11,,,70,127
18004,note_off,0,0,0,,0,,,60,127
18005,note_on,1,0,0,,10,,,69,127
18005,note_on,0,0,0,,0,,,60,127
18125,note_off,120,0,0,,10,,,69,127
18126,note_on,1,0,0,,7,,,67,127
18246,note_off,120,0,0,,7,,,67,127
18246,note_off,0,0,0,,0,,,60,127
18247,note_on,1,0,0,,11,,,70,127
18247,note_on,0,0,0,,5,,,53,127
18306,note_off,59,0,0,,11,,,70,127
18307,note_on,1,0,0,,10,,,69,127
18366,note_off,59,0,0,,10,,,69,127
18367,note_on,1,0,0,,11,,,70,127
18426,note_off,59,0,0,,11,,,70,127
18427,note_on,1,0,0,,10,,,69,127
18486,note_off,59,0,0,,10,,,69,127
18486,note_off,0,0,0,,5,,,53,127
18487,note_on,1,0,0,,11,,,70,127
18487,note_on,0,0,0,,0,,,48,127
18546,note_off,59,0,0,,11,,,70,127
18547,note_on,1,0,0,,10,,,69,127
18606,note_off,59,0,0,,10,,,69,127
18607,note_on,1,0,0,,7,,,67,127
18727,note_off,120,0,0,,7,,,67,127
18727,note_off,0,0,0,,0,,,48,127
18728,note_on,1,0,0,,10,,,69,127
18728,note_on,0,0,0,,5,,,41,127
18971,note_on,243,0,0,,5,,,77,127
19092,note_off,121,0,0,,10,,,69,127
19212,note_off,120,0,0,,5,,,77,127
19212,note_off,0,0,0,,5,,,41,127
19213,note_on,1,0,0,,5,,,77,127
19272,note_off,59,0,0,,5,,,77,127
19273,note_on,1,0,0,,4,,,76,127
19332,note_off,59,0,0,,4,,,76,127
19333,note_on,1,0,0,,2,,,74,127
19392,note_off,59,0,0,,2,,,74,127
19393,note_on,1,0,0,,0,,,72,127
19452,note_off,59,0,0,,0,,,72,127
19453,note_on,1,0,0,,5,,,77,127
19453,note_on,0,0,0,,10,,,69,127
19453,note_on,0,0,0,,5,,,65,127
19694,note_off,241,0,0,,5,,,77,127
19695,note_on,1,0,0,,5,,,77,127
19754,note_off,59,0,0,,5,,,77,127
19755,note_on,1,0,0,,4,,,76,127
19814,note_off,59,0,0,,4,,,76,127
19815,note_off,1,0,0,,5,,,65,127
19815,note_off,0,0,0,,10,,,69,127
19815,note_on,0,0,0,,2,,,74,127
19874,note_off,59,0,0,,2,,,74,127
19875,note_on,1,0,0,,0,,,72,127
19934,note_off,59,0,0,,0,,,72,127
19935,note_on,1,0,0,,5,,,77,127
19935,note_on,0,0,0,,7,,,67,127
19935,note_on,0,0,0,,4,,,64,127
20176,note_off,241,0,0,,5,,,77,127
20177,note_on,1,0,0,,5,,,77,127
20236,note_off,59,0,0,,5,,,77,127
20237,note_on,1,0,0,,4,,,76,127
20296,note_off,59,0,0,,4,,,76,127
20297,note_off,1,0,0,,4,,,64,127
20297,note_off,0,0,0,,7,,,67,127
20297,note_on,0,0,0,,2,,,74,127
20356,note_off,59,0,0,,2,,,74,127
20357,note_on,1,0,0,,0,,,72,127
20416,note_off,59,0,0,,0,,,72,127
20417,note_on,1,0,0,,5,,,77,127
20417,note_on,0,0,0,,5,,,65,127
20417,note_on,0,0,0,,2,,,62,127
20658,note_off,241,0,0,,5,,,77,127
20659,note_on,1,0,0,,5,,,77,127
20718,note_off,59,0,0,,5,,,77,127
20719,note_on,1,0,0,,4,,,76,127
20778,note_off,59,0,0,,4,,,76,127
20779,note_off,1,0,0,,2,,,62,127
20779,note_off,0,0,0,,5,,,65,127
20779,note_on,0,0,0,,2,,,74,127
20838,note_off,59,0,0,,2,,,74,127
20839,note_on,1,0,0,,0,,,72,127
20898,note_off,59,0,0,,0,,,72,127
20899,note_on,1,0,0,,10,,,81,127
20899,note_on,0,0,0,,4,,,64,127
20899,note_on,0,0,0,,0,,,60,127
21140,note_off,241,0,0,,0,,,60,127
21140,note_off,0,0,0,,4,,,64,127
21141,note_on,1,0,0,,12,,,59,127
21141,note_on,0,0,0,,2,,,62,127
21261,note_off,120,0,0,,10,,,81,127
21262,note_on,1,0,0,,7,,,79,127
21382,note_off,120,0,0,,7,,,79,127
21382,note_off,0,0,0,,12,,,59,127
21383,note_on,1,0,0,,7,,,79,127
21383,note_on,0,0,0,,7,,,55,127
21503,note_off,120,0,0,,7,,,79,127
21504,note_on,1,0,0,,5,,,77,127
21624,note_off,120,0,0,,5,,,77,127
21624,note_off,0,0,0,,7,,,55,127
21625,note_on,1,0,0,,5,,,77,127
21625,note_on,0,0,0,,10,,,57,127
21745,note_off,120,0,0,,5,,,77,127
21746,note_on,1,0,0,,4,,,76,127
21866,note_off,120,0,0,,4,,,76,127
21866,note_off,0,0,0,,10,,,57,127
21867,note_on,1,0,0,,4,,,76,127
21867,note_on,0,0,0,,12,,,59,127
21987,note_off,120,0,0,,4,,,76,127
21988,note_on,1,0,0,,2,,,74,127
22108,note_off,120,0,0,,2,,,74,127
22108,note_off,0,0,0,,12,,,59,127
22108,note_off,0,0,0,,2,,,62,127
22109,note_on,1,0,0,,2,,,74,127
22109,note_on,0,0,0,,0,,,60,127
22229,note_off,120,0,0,,2,,,74,127
22230,note_on,1,0,0,,4,,,76,127
22350,note_off,120,0,0,,4,,,76,127
22350,note_off,0,0,0,,0,,,60,127
22351,note_on,1,0,0,,4,,,76,127
22351,note_on,0,0,0,,2,,,62,127
22471,note_off,120,0,0,,4,,,76,127
22472,note_on,1,0,0,,5,,,77,127
22592,note_off,120,0,0,,5,,,77,127
22592,note_off,0,0,0,,2,,,62,127
22593,note_on,1,0,0,,7,,,79,127
22593,note_on,0,0,0,,4,,,64,127
22713,note_off,120,0,0,,7,,,79,127
22714,note_on,1,0,0,,4,,,76,127
22834,note_off,120,0,0,,4,,,76,127
22834,note_off,0,0,0,,4,,,64,127
22835,note_on,1,0,0,,2,,,74,127
22835,note_on,0,0,0,,5,,,65,127
22955,note_off,120,0,0,,2,,,74,127
22956,note_on,1,0,0,,0,,,72,127
23076,note_off,120,0,0,,5,,,65,127
23077,note_on,1,0,0,,7,,,67,127
23133,note_off,56,0,0,,0,,,72,127
23138,note_on,5,0,0,,12,,,71,127
23197,note_off,59,0,0,,12,,,71,127
23198,note_on,1,0,0,,0,,,72,127
23257,note_off,59,0,0,,0,,,72,127
23258,note_on,1,0,0,,12,,,71,127
23317,note_off,59,0,0,,12,,,71,127
23318,note_on,1,0,0,,0,,,72,127
23318,note_on,0,0,0,,7,,,55,127
23398,note_off,80,0,0,,0,,,72,127
23399,note_on,1,0,0,,12,,,71,127
23439,note_off,40,0,0,,7,,,67,127
23478,note_off,39,0,0,,12,,,71,127
23479,note_on,1,0,0,,10,,,69,127
23559,note_off,80,0,0,,10,,,69,127
23560,note_on,1,0,0,,7,,,43,127
23560,note_on,0,0,0,,12,,,71,127
23681,note_off,121,0,0,,7,,,55,127
23711,note_off,30,0,0,,12,,,71,127
23802,note_on,91,0,0,,10,,,81,127
23922,note_off,120,0,0,,10,,,81,127
23923,note_off,1,0,0,,7,,,43,127
23923,note_on,0,0,0,,7,,,79,127
24043,note_off,120,0,0,,7,,,79,127
24044,note_on,1,0,0,,7,,,79,127
24044,note_on,0,0,0,,4,,,64,127
24044,note_on,0,0,0,,0,,,60,127
24164,note_off,120,0,0,,7,,,79,127
24165,note_on,1,0,0,,4,,,76,127
24285,note_off,120,0,0,,4,,,76,127
24285,note_off,0,0,0,,0,,,60,127
24285,note_off,0,0,0,,4,,,64,127
24286,note_on,1,0,0,,10,,,81,127
24286,note_on,0,0,0,,4,,,64,127
24286,note_on,0,0,0,,0,,,60,127
24406,note_off,120,0,0,,10,,,81,127
24407,note_on,1,0,0,,7,,,79,127
24527,note_off,120,0,0,,7,,,79,127
24527,note_off,0,0,0,,0,,,60,127
24527,note_off,0,0,0,,4,,,64,127
24528,note_on,1,0,0,,7,,,79,127
24528,note_on,0,0,0,,2,,,62,127
24528,note_on,0,0,0,,12,,,59,127
24648,note_off,120,0,0,,7,,,79,127
24649,note_on,1,0,0,,2,,,74,127
24769,note_off,120,0,0,,2,,,74,127
24769,note_off,0,0,0,,12,,,59,127
24769,note_off,0,0,0,,2,,,62,127
24770,note_on,1,0,0,,10,,,81,127
24770,note_on,0,0,0,,2,,,62,127
24770,note_on,0,0,0,,12,,,59,127
24890,note_off,120,0,0,,10,,,81,127
24891,note_on,1,0,0,,7,,,79,127
25011,note_off,120,0,0,,7,,,79,127
25011,note_off,0,0,0,,12,,,59,127
25011,note_off,0,0,0,,2,,,62,127
25012,note_on,1,0,0,,7,,,79,127
25012,note_on,0,0,0,,0,,,60,127
25012,note_on,0,0,0,,10,,,57,127
25132,note_off,120,0,0,,7,,,79,127
25133,note_on,1,0,0,,0,,,72,127
25253,note_off,120,0,0,,0,,,72,127
25253,note_off,0,0,0,,10,,,57,127
25253,note_off,0,0,0,,0,,,60,127
25254,note_on,1,0,0,,10,,,81,127
25254,note_on,0,0,0,,0,,,60,127
25254,note_on,0,0,0,,10,,,57,127
25374,note_off,120,0,0,,10,,,81,127
25375,note_on,1,0,0,,7,,,79,127
25495,note_off,120,0,0,,7,,,79,127
25495,note_off,0,0,0,,10,,,57,127
25495,note_off,0,0,0,,0,,,60,127
25496,note_on,1,0,0,,7,,,79,127
25496,note_on,0,0,0,,12,,,59,127
25496,note_on,0,0,0,,7,,,55,127
25616,note_off,120,0,0,,7,,,79,127
25617,note_on,1,0,0,,12,,,71,127
25737,note_off,120,0,0,,12,,,71,127
25737,note_off,0,0,0,,7,,,55,127
25737,note_off,0,0,0,,12,,,59,127
25738,note_on,1,0,0,,10,,,81,127
25738,note_on,0,0,0,,7,,,55,127
25738,note_on,0,0,0,,12,,,59,127
25858,note_off,120,0,0,,10,,,81,127
25859,note_on,1,0,0,,7,,,79,127
25979,note_off,120,0,0,,7,,,79,127
25979,note_off,0,0,0,,12,,,59,127
25979,note_off,0,0,0,,7,,,55,127
25980,note_on,1,0,0,,7,,,79,127
25980,note_on,0,0,0,,5,,,53,127
25980,note_on,0,0,0,,10,,,57,127
26100,note_off,120,0,0,,7,,,79,127
26101,note_on,1,0,0,,10,,,69,127
26221,note_off,120,0,0,,10,,,69,127
26221,note_off,0,0,0,,10,,,57,127
26221,note_off,0,0,0,,5,,,53,127
26222,note_on,1,0,0,,10,,,81,127
26222,note_on,0,0,0,,5,,,53,127
26222,note_on,0,0,0,,10,,,57,127
26342,note_off,120,0,0,,10,,,81,127
26343,note_on,1,0,0,,7,,,79,127
26463,note_off,120,0,0,,7,,,79,127
26463,note_off,0,0,0,,10,,,57,127
26463,note_off,0,0,0,,5,,,53,127
26464,note_on,1,0,0,,7,,,79,127
26464,note_on,0,0,0,,4,,,52,127
26584,note_off,120,0,0,,7,,,79,127
26585,note_on,1,0,0,,7,,,67,127
26705,note_off,120,0,0,,7,,,67,127
26706,note_on,1,0,0,,4,,,76,127
26706,note_on,0,0,0,,0,,,60,127
26826,note_off,120,0,0,,4,,,76,127
26827,note_on,1,0,0,,0,,,72,127
26943,note_off,116,0,0,,4,,,52,127
26947,note_off,4,0,0,,0,,,72,127
26947,note_off,0,0,0,,0,,,60,127
26948,note_on,1,0,0,,12,,,71,127
26948,note_on,0,0,0,,5,,,53,127
27068,note_off,120,0,0,,12,,,71,127
27069,note_on,1,0,0,,10,,,69,127
27189,note_off,120,0,0,,10,,,69,127
27190,note_on,1,0,0,,5,,,77,127
27190,note_on,0,0,0,,5,,,65,127
27310,note_off,120,0,0,,5,,,77,127
27311,note_on,1,0,0,,2,,,74,127
27431,note_off,120,0,0,,2,,,74,127
27431,note_off,0,0,0,,5,,,65,127
27431,note_off,0,0,0,,5,,,53,127
27432,note_on,1,0,0,,0,,,72,127
27432,note_on,0,0,0,,7,,,55,127
27432,note_on,0,0,0,,4,,,64,127
27673,note_off,241,0,0,,4,,,64,127
27674,note_on,1,0,0,,2,,,62,127
27735,note_off,61,0,0,,0,,,72,127
27735,note_on,0,0,0,,12,,,71,127
27794,note_off,59,0,0,,12,,,71,127
27795,note_on,1,0,0,,10,,,69,127
27854,note_off,59,0,0,,10,,,69,127
27855,note_on,1,0,0,,12,,,71,127
27914,note_off,59,0,0,,12,,,71,127
27914,note_off,0,0,0,,2,,,62,127
27914,note_off,0,0,0,,7,,,55,127
27915,note_on,1,0,0,,0,,,72,127
27915,note_on,0,0,0,,0,,,60,127
28156,note_off,241,0,0,,0,,,72,127
28157,note_on,1,0,0,,2,,,86,127
28277,note_off,120,0,0,,2,,,86,127
28278,note_on,1,0,0,,0,,,84,127
28398,note_off,120,0,0,,0,,,84,127
28398,note_off,0,0,0,,0,,,60,127
28399,note_on,1,0,0,,0,,,84,127
28399,note_on,0,0,0,,5,,,65,127
28399,note_on,0,0,0,,10,,,69,127
28519,note_off,120,0,0,,0,,,84,127
28520,note_on,1,0,0,,10,,,81,127
28640,note_off,120,0,0,,10,,,81,127
28640,note_off,0,0,0,,10,,,69,127
28640,note_off,0,0,0,,5,,,65,127
28641,note_on,1,0,0,,2,,,86,127
28641,note_on,0,0,0,,5,,,65,127
28641,note_on,0,0,0,,10,,,69,127
28761,note_off,120,0,0,,2,,,86,127
28762,note_on,1,0,0,,0,,,84,127
28882,note_off,120,0,0,,0,,,84,127
28882,note_off,0,0,0,,10,,,69,127
28882,note_off,0,0,0,,5,,,65,127
28883,note_on,1,0,0,,0,,,84,127
28883,note_on,0,0,0,,4,,,64,127
28883,note_on,0,0,0,,7,,,67,127
29003,note_off,120,0,0,,0,,,84,127
29004,note_on,1,0,0,,7,,,79,127
29124,note_off,120,0,0,,7,,,79,127
29124,note_off,0,0,0,,7,,,67,127
29124,note_off,0,0,0,,4,,,64,127
29125,note_on,1,0,0,,2,,,86,127
29125,note_on,0,0,0,,4,,,64,127
29125,note_on,0,0,0,,7,,,67,127
29245,note_off,120,0,0,,2,,,86,127
29246,note_on,1,0,0,,0,,,84,127
29366,note_off,120,0,0,,0,,,84,127
29366,note_off,0,0,0,,7,,,67,127
29366,note_off,0,0,0,,4,,,64,127
29367,note_on,1,0,0,,0,,,84,127
29367,note_on,0,0,0,,2,,,62,127
29367,note_on,0,0,0,,5,,,65,127
29487,note_off,120,0,0,,0,,,84,127
29488,note_on,1,0,0,,5,,,77,127
29608,note_off,120,0,0,,5,,,77,127
29608,note_off,0,0,0,,5,,,65,127
29608,note_off,0,0,0,,2,,,62,127
29609,note_on,1,0,0,,2,,,86,127
29609,note_on,0,0,0,,5,,,65,127
29609,note_on,0,0,0,,2,,,62,127
29729,note_off,120,0,0,,2,,,86,127
29730,note_on,1,0,0,,0,,,84,127
29850,note_off,120,0,0,,0,,,84,127
29850,note_off,0,0,0,,2,,,62,127
29850,note_off,0,0,0,,5,,,65,127
29851,note_on,1,0,0,,0,,,84,127
29851,note_on,0,0,0,,0,,,60,127
29851,note_on,0,0,0,,4,,,64,127
29971,note_off,120,0,0,,0,,,84,127
29972,note_on,1,0,0,,4,,,76,127
30092,note_off,120,0,0,,4,,,76,127
30092,note_off,0,0,0,,4,,,64,127
30092,note_off,0,0,0,,0,,,60,127
30093,note_on,1,0,0,,2,,,86,127
30093,note_on,0,0,0,,0,,,60,127
30093,note_on,0,0,0,,4,,,64,127
30213,note_off,120,0,0,,2,,,86,127
30214,note_on,1,0,0,,0,,,84,127
30334,note_off,120,0,0,,0,,,84,127
30334,note_off,0,0,0,,4,,,64,127
30334,note_off,0,0,0,,0,,,60,127
30335,note_on,1,0,0,,0,,,84,127
30335,note_on,0,0,0,,12,,,59,127
30335,note_on,0,0,0,,2,,,62,127
30455,note_off,120,0,0,,0,,,84,127
30456,note_on,1,0,0,,2,,,74,127
30576,note_off,120,0,0,,2,,,74,127
30576,note_off,0,0,0,,2,,,62,127
30576,note_off,0,0,0,,12,,,59,127
30577,note_on,1,0,0,,2,,,86,127
30577,note_on,0,0,0,,2,,,62,127
30577,note_on,0,0,0,,12,,,59,127
30697,note_off,120,0,0,,2,,,86,127
30698,note_on,1,0,0,,0,,,84,127
30818,note_off,120,0,0,,0,,,84,127
30818,note_off,0,0,0,,12,,,59,127
30818,note_off,0,0,0,,2,,,62,127
30819,note_on,1,0,0,,0,,,84,127
30819,note_on,0,0,0,,10,,,57,127
30819,note_on,0,0,0,,0,,,60,127
30939,note_off,120,0,0,,0,,,84,127
30940,note_on,1,0,0,,7,,,79,127
31060,note_off,120,0,0,,7,,,79,127
31060,note_off,0,0,0,,10,,,57,127
31061,note_on,1,0,0,,10,,,81,127
31061,note_on,0,0,0,,5,,,53,127
31181,note_off,120,0,0,,10,,,81,127
31182,note_on,1,0,0,,5,,,77,127
31302,note_off,120,0,0,,5,,,77,127
31302,note_off,0,0,0,,5,,,53,127
31303,note_on,1,0,0,,4,,,76,127
31303,note_on,0,0,0,,7,,,55,127
31544,note_off,241,0,0,,7,,,55,127
31544,note_off,0,0,0,,4,,,76,127
31544,note_off,0,0,0,,0,,,60,127
31545,note_on,1,0,0,,2,,,74,127
31545,note_on,0,0,0,,5,,,53,127
31545,note_on,0,0,0,,12,,,59,127
31786,note_off,241,0,0,,12,,,59,127
31786,note_off,0,0,0,,5,,,53,127
31786,note_off,0,0,0,,2,,,74,127
31787,note_on,1,0,0,,4,,,52,127
31787,note_on,0,0,0,,0,,,60,127
31908,note_on,121,0,0,,4,,,76,127
32028,note_off,120,0,0,,4,,,76,127
32028,note_off,0,0,0,,4,,,52,127
32029,note_on,1,0,0,,5,,,77,127
32029,note_on,0,0,0,,5,,,53,127
32149,note_off,120,0,0,,5,,,77,127
32150,note_on,1,0,0,,2,,,74,127
32270,note_off,120,0,0,,2,,,74,127
32270,note_off,0,0,0,,5,,,53,127
32271,note_on,1,0,0,,0,,,72,127
32271,note_on,0,0,0,,7,,,55,127
32512,note_off,241,0,0,,7,,,55,127
32512,note_off,0,0,0,,0,,,72,127
32512,note_off,0,0,0,,0,,,60,127
32513,note_on,1,0,0,,12,,,71,127
32513,note_on,0,0,0,,5,,,53,127
32513,note_on,0,0,0,,2,,,62,127
32754,note_off,241,0,0,,2,,,62,127
32754,note_off,0,0,0,,5,,,53,127
32754,note_off,0,0,0,,12,,,71,127
32755,note_on,1,0,0,,4,,,52,127
32755,note_on,0,0,0,,0,,,60,127
32876,note_on,121,0,0,,4,,,76,127
32996,note_off,120,0,0,,4,,,76,127
32996,note_off,0,0,0,,4,,,52,127
32997,note_on,1,0,0,,5,,,77,127
32997,note_on,0,0,0,,5,,,53,127
33117,note_off,120,0,0,,5,,,77,127
33118,note_on,1,0,0,,2,,,74,127
33238,note_off,120,0,0,,2,,,74,127
33238,note_off,0,0,0,,5,,,53,127
33239,note_on,1,0,0,,0,,,72,127
33239,note_on,0,0,0,,7,,,55,127
33480,note_off,241,0,0,,7,,,55,127
33480,note_off,0,0,0,,0,,,72,127
33480,note_off,0,0,0,,0,,,60,127
33481,note_on,1,0,0,,5,,,53,127
33481,note_on,0,0,0,,2,,,62,127
33481,note_on,0,0,0,,0,,,72,127
33540,note_off,59,0,0,,0,,,72,127
33541,note_on,1,0,0,,12,,,71,127
33600,note_off,59,0,0,,12,,,71,127
33601,note_on,1,0,0,,0,,,72,127
33660,note_off,59,0,0,,0,,,72,127
33661,note_on,1,0,0,,12,,,71,127
33720,note_off,59,0,0,,12,,,71,127
33720,note_off,0,0,0,,2,,,62,127
33720,note_off,0,0,0,,5,,,53,127
33721,note_on,1,0,0,,0,,,72,127
33721,note_on,0,0,0,,4,,,52,127
33841,note_off,120,0,0,,0,,,72,127
33842,note_on,1,0,0,,7,,,67,127
33962,note_off,120,0,0,,7,,,67,127
33962,note_off,0,0,0,,4,,,52,127
33963,note_on,1,0,0,,10,,,69,127
33963,note_on,0,0,0,,5,,,53,127
34083,note_off,120,0,0,,10,,,69,127
34084,note_on,1,0,0,,5,,,65,127
34204,note_off,120,0,0,,5,,,65,127
34204,note_off,0,0,0,,5,,,53,127
34205,note_on,1,0,0,,4,,,64,127
34205,note_on,0,0,0,,7,,,55,127
34326,note_on,121,0,0,,0,,,72,127
34387,note_off,61,0,0,,4,,,64,127
34448,note_on,61,0,0,,2,,,62,127
34448,note_on,0,0,0,,7,,,43,127
34509,note_off,61,0,0,,0,,,72,127
34570,note_on,61,0,0,,12,,,71,127
34631,note_off,61,0,0,,2,,,62,127
34690,note_off,59,0,0,,12,,,71,127
34690,note_off,0,0,0,,7,,,43,127
34690,note_off,0,0,0,,7,,,55,127
34691,note_on,1,0,0,,0,,,72,127
34691,note_on,0,0,0,,0,,,48,127
34932,note_off,241,0,0,,0,,,72,127
34933,note_on,1,0,0,,0,,,72,127
35053,note_off,120,0,0,,0,,,72,127
35054,note_on,1,0,0,,2,,,74,127
35174,note_off,120,0,0,,2,,,74,127
35175,note_on,1,0,0,,4,,,76,127
35295,note_off,120,0,0,,4,,,76,127
35296,note_on,1,0,0,,0,,,72,127
35416,note_off,120,0,0,,0,,,72,127
35416,note_off,0,0,0,,0,,,48,127
35417,note_on,1,0,0,,5,,,77,127
35537,note_off,120,0,0,,5,,,77,127
35538,note_on,1,0,0,,2,,,74,127
35658,note_off,120,0,0,,2,,,74,127
35659,note_on,1,0,0,,7,,,79,127
35902,note_on,243,0,0,,0,,,60,127
36022,note_off,120,0,0,,0,,,60,127
36023,note_on,1,0,0,,2,,,62,127
36143,note_off,120,0,0,,2,,,62,127
36144,note_on,1,0,0,,4,,,64,127
36264,note_off,120,0,0,,4,,,64,127
36265,note_on,1,0,0,,0,,,60,127
36341,note_off,76,0,0,,7,,,79,127
36385,note_off,44,0,0,,0,,,60,127
36386,note_on,1,0,0,,10,,,81,127
36386,note_on,0,0,0,,5,,,65,127
36506,note_off,120,0,0,,5,,,65,127
36507,note_on,1,0,0,,2,,,62,127
36627,note_off,120,0,0,,2,,,62,127
36627,note_off,0,0,0,,10,,,81,127
36628,note_on,1,0,0,,11,,,82,127
36628,note_on,0,0,0,,7,,,67,127
36869,note_off,241,0,0,,11,,,82,127
36870,note_on,1,0,0,,7,,,79,127
37111,note_off,241,0,0,,7,,,79,127
37112,note_on,1,0,0,,7,,,79,127
37171,note_off,59,0,0,,7,,,79,127
37172,note_on,1,0,0,,5,,,77,127
37231,note_off,59,0,0,,5,,,77,127
37232,note_on,1,0,0,,4,,,76,127
37291,note_off,59,0,0,,4,,,76,127
37292,note_on,1,0,0,,2,,,74,127
37351,note_off,59,0,0,,2,,,74,127
37351,note_off,0,0,0,,7,,,67,127
37352,note_on,1,0,0,,7,,,79,127
37352,note_on,0,0,0,,5,,,65,127
37593,note_off,241,0,0,,7,,,79,127
37594,note_on,1,0,0,,7,,,79,127
37653,note_off,59,0,0,,7,,,79,127
37654,note_on,1,0,0,,5,,,77,127
37713,note_off,59,0,0,,5,,,77,127
37714,note_on,1,0,0,,4,,,76,127
37773,note_off,59,0,0,,4,,,76,127
37774,note_on,1,0,0,,2,,,74,127
37833,note_off,59,0,0,,2,,,74,127
37833,note_off,0,0,0,,5,,,65,127
37834,note_on,1,0,0,,7,,,79,127
37834,note_on,0,0,0,,4,,,64,127
38075,note_off,241,0,0,,7,,,79,127
38076,note_on,1,0,0,,7,,,79,127
38135,note_off,59,0,0,,7,,,79,127
38136,note_on,1,0,0,,5,,,77,127
38195,note_off,59,0,0,,5,,,77,127
38196,note_on,1,0,0,,4,,,76,127
38255,note_off,59,0,0,,4,,,76,127
38256,note_on,1,0,0,,2,,,74,127
38315,note_off,59,0,0,,2,,,74,127
38315,note_off,0,0,0,,4,,,64,127
38316,note_on,1,0,0,,7,,,79,127
38316,note_on,0,0,0,,2,,,62,127
38557,note_off,241,0,0,,2,,,62,127
38558,note_on,1,0,0,,1,,,61,127
38558,note_on,0,0,0,,4,,,64,127
38678,note_off,120,0,0,,7,,,79,127
38679,note_on,1,0,0,,10,,,81,127
38799,note_off,120,0,0,,10,,,81,127
38799,note_off,0,0,0,,4,,,64,127
38799,note_off,0,0,0,,1,,,61,127
38800,note_on,1,0,0,,11,,,82,127
38800,note_on,0,0,0,,4,,,64,127
38800,note_on,0,0,0,,1,,,61,127
38920,note_off,120,0,0,,11,,,82,127
38921,note_on,1,0,0,,10,,,81,127
39041,note_off,120,0,0,,10,,,81,127
39041,note_off,0,0,0,,1,,,61,127
39041,note_off,0,0,0,,4,,,64,127
39042,note_on,1,0,0,,10,,,81,127
39042,note_on,0,0,0,,4,,,64,127
39042,note_on,0,0,0,,1,,,61,127
39162,note_off,120,0,0,,10,,,81,127
39163,note_on,1,0,0,,7,,,79,127
39283,note_off,120,0,0,,7,,,79,127
39283,note_off,0,0,0,,1,,,61,127
39283,note_off,0,0,0,,4,,,64,127
39284,note_on,1,0,0,,5,,,77,127
39284,note_on,0,0,0,,1,,,61,127
39284,note_on,0,0,0,,4,,,64,127
39404,note_off,120,0,0,,5,,,77,127
39405,note_on,1,0,0,,4,,,76,127
39525,note_off,120,0,0,,4,,,76,127
39525,note_off,0,0,0,,4,,,64,127
39525,note_off,0,0,0,,1,,,61,127
39526,note_on,1,0,0,,5,,,77,127
39526,note_on,0,0,0,,2,,,62,127
39646,note_off,120,0,0,,5,,,77,127
39647,note_on,1,0,0,,7,,,79,127
39767,note_off,120,0,0,,7,,,79,127
39767,note_off,0,0,0,,2,,,62,127
39768,note_on,1,0,0,,10,,,81,127
39768,note_on,0,0,0,,2,,,62,127
39888,note_off,120,0,0,,10,,,81,127
39889,note_on,1,0,0,,7,,,79,127
40009,note_off,120,0,0,,7,,,79,127
40009,note_off,0,0,0,,2,,,62,127
40010,note_on,1,0,0,,7,,,79,127
40010,note_on,0,0,0,,5,,,53,127
40010,note_on,0,0,0,,2,,,62,127
40130,note_off,120,0,0,,7,,,79,127
40131,note_on,1,0,0,,5,,,77,127
40251,note_off,120,0,0,,5,,,77,127
40251,note_off,0,0,0,,2,,,62,127
40251,note_off,0,0,0,,5,,,53,127
40252,note_on,1,0,0,,4,,,76,127
40252,note_on,0,0,0,,5,,,53,127
40252,note_on,0,0,0,,2,,,62,127
40372,note_off,120,0,0,,4,,,76,127
40373,note_on,1,0,0,,2,,,74,127
40493,note_off,120,0,0,,2,,,74,127
40493,note_off,0,0,0,,2,,,62,127
40493,note_off,0,0,0,,5,,,53,127
40494,note_on,1,0,0,,5,,,77,127
40494,note_on,0,0,0,,7,,,55,127
40614,note_off,120,0,0,,5,,,77,127
40615,note_on,1,0,0,,4,,,76,127
40735,note_off,120,0,0,,4,,,76,127
40735,note_off,0,0,0,,7,,,55,127
40736,note_on,1,0,0,,10,,,81,127
40736,note_on,0,0,0,,7,,,55,127
40856,note_off,120,0,0,,10,,,81,127
40857,note_on,1,0,0,,7,,,79,127
40977,note_off,120,0,0,,7,,,55,127
40978,note_on,1,0,0,,11,,,58,127
41098,note_off,120,0,0,,7,,,79,127
41099,note_on,1,0,0,,5,,,77,127
41219,note_off,120,0,0,,5,,,77,127
41219,note_off,0,0,0,,11,,,58,127
41220,note_on,1,0,0,,4,,,76,127
41220,note_on,0,0,0,,11,,,58,127
41340,note_off,120,0,0,,4,,,76,127
41341,note_on,1,0,0,,2,,,74,127
41461,note_off,120,0,0,,2,,,74,127
41461,note_off,0,0,0,,11,,,58,127
41462,note_on,1,0,0,,2,,,74,127
41462,note_on,0,0,0,,10,,,57,127
41521,note_off,59,0,0,,2,,,74,127
41522,note_on,1,0,0,,1,,,73,127
41581,note_off,59,0,0,,1,,,73,127
41582,note_on,1,0,0,,2,,,74,127
41641,note_off,59,0,0,,2,,,74,127
41642,note_on,1,0,0,,1,,,73,127
41701,note_off,59,0,0,,1,,,73,127
41702,note_on,1,0,0,,2,,,74,127
41702,note_on,0,0,0,,10,,,45,127
41761,note_off,59,0,0,,2,,,74,127
41762,note_on,1,0,0,,1,,,73,127
41821,note_off,59,0,0,,1,,,73,127
41822,note_on,1,0,0,,12,,,71,127
41942,note_off,120,0,0,,12,,,71,127
41942,note_off,0,0,0,,10,,,57,127
41943,note_on,1,0,0,,1,,,73,127
41943,note_on,0,0,0,,10,,,57,127
42064,note_off,121,0,0,,10,,,45,127
42185,note_on,121,0,0,,10,,,81,127
42306,note_off,121,0,0,,1,,,73,127
42426,note_off,120,0,0,,10,,,81,127
42426,note_off,0,0,0,,10,,,57,127
42427,note_on,1,0,0,,10,,,81,127
42486,note_off,59,0,0,,10,,,81,127
42487,note_on,1,0,0,,7,,,79,127
42546,note_off,59,0,0,,7,,,79,127
42547,note_on,1,0,0,,5,,,77,127
42606,note_off,59,0,0,,5,,,77,127
42607,note_on,1,0,0,,4,,,76,127
42666,note_off,59,0,0,,4,,,76,127
42667,note_on,1,0,0,,10,,,81,127
42667,note_on,0,0,0,,5,,,65,127
42667,note_on,0,0,0,,2,,,62,127
42908,note_off,241,0,0,,10,,,81,127
42909,note_on,1,0,0,,10,,,81,127
42968,note_off,59,0,0,,10,,,81,127
42969,note_on,1,0,0,,7,,,79,127
43028,note_off,59,0,0,,7,,,79,127
43029,note_off,1,0,0,,2,,,62,127
43029,note_off,0,0,0,,5,,,65,127
43029,note_on,0,0,0,,5,,,77,127
43088,note_off,59,0,0,,5,,,77,127
43089,note_on,1,0,0,,4,,,76,127
43148,note_off,59,0,0,,4,,,76,127
43149,note_on,1,0,0,,10,,,81,127
43149,note_on,0,0,0,,4,,,64,127
43149,note_on,0,0,0,,0,,,60,127
43390,note_off,241,0,0,,10,,,81,127
43391,note_on,1,0,0,,1,,,85,127
43512,note_off,121,0,0,,0,,,60,127
43512,note_off,0,0,0,,4,,,64,127
43632,note_off,120,0,0,,1,,,85,127
43633,note_on,1,0,0,,2,,,86,127
43633,note_on,0,0,0,,11,,,58,127
43633,note_on,0,0,0,,2,,,62,127
43874,note_off,241,0,0,,11,,,58,127
43875,note_on,1,0,0,,10,,,57,127
43995,note_off,120,0,0,,2,,,86,127
43996,note_on,1,0,0,,11,,,82,127
44116,note_off,120,0,0,,11,,,82,127
44116,note_off,0,0,0,,10,,,57,127
44117,note_on,1,0,0,,10,,,81,127
44117,note_on,0,0,0,,7,,,55,127
44237,note_off,120,0,0,,10,,,81,127
44238,note_on,1,0,0,,7,,,79,127
44358,note_off,120,0,0,,7,,,79,127
44358,note_off,0,0,0,,7,,,55,127
44359,note_on,1,0,0,,10,,,81,127
44359,note_on,0,0,0,,5,,,53,127
44479,note_off,120,0,0,,10,,,81,127
44480,note_on,1,0,0,,2,,,74,127
44600,note_off,120,0,0,,2,,,74,127
44600,note_off,0,0,0,,5,,,53,127
44601,note_on,1,0,0,,4,,,76,127
44601,note_on,0,0,0,,7,,,55,127
44721,note_off,120,0,0,,4,,,76,127
44722,note_on,1,0,0,,7,,,79,127
44842,note_off,120,0,0,,7,,,79,127
44842,note_off,0,0,0,,7,,,55,127
44843,note_on,1,0,0,,5,,,77,127
44843,note_on,0,0,0,,10,,,57,127
44963,note_off,120,0,0,,5,,,77,127
44964,note_on,1,0,0,,2,,,74,127
45083,note_off,119,0,0,,2,,,62,127
45084,note_off,1,0,0,,2,,,74,127
45085,note_on,1,0,0,,1,,,73,127
45085,note_on,0,0,0,,7,,,67,127
45205,note_off,120,0,0,,1,,,73,127
45206,note_on,1,0,0,,4,,,76,127
45326,note_off,120,0,0,,4,,,76,127
45326,note_off,0,0,0,,7,,,67,127
45326,note_off,0,0,0,,10,,,57,127
45327,note_on,1,0,0,,2,,,74,127
45327,note_on,0,0,0,,2,,,62,127
45327,note_on,0,0,0,,10,,,69,127
45447,note_off,120,0,0,,2,,,74,127
45448,note_on,1,0,0,,10,,,81,127
45568,note_off,120,0,0,,10,,,69,127
45568,note_off,0,0,0,,2,,,62,127
45569,note_on,1,0,0,,4,,,64,127
45569,note_on,0,0,0,,1,,,61,127
45669,note_off,100,0,0,,10,,,81,127
45690,note_on,21,0,0,,4,,,76,127
45810,note_off,120,0,0,,4,,,76,127
45810,note_off,0,0,0,,1,,,61,127
45810,note_off,0,0,0,,4,,,64,127
45811,note_on,1,0,0,,5,,,77,127
45811,note_on,0,0,0,,5,,,65,127
45811,note_on,0,0,0,,2,,,62,127
45931,note_off,120,0,0,,5,,,77,127
45932,note_on,1,0,0,,7,,,79,127
46052,note_off,120,0,0,,2,,,62,127
46052,note_off,0,0,0,,5,,,65,127
46053,note_on,1,0,0,,7,,,67,127
46053,note_on,0,0,0,,4,,,64,127
46153,note_off,100,0,0,,7,,,79,127
46174,note_on,21,0,0,,1,,,73,127
46294,note_off,120,0,0,,1,,,73,127
46294,note_off,0,0,0,,4,,,64,127
46294,note_off,0,0,0,,7,,,67,127
46295,note_on,1,0,0,,2,,,74,127
46295,note_on,0,0,0,,5,,,65,127
46295,note_on,0,0,0,,10,,,69,127
46415,note_off,120,0,0,,2,,,74,127
46416,note_on,1,0,0,,10,,,81,127
46536,note_off,120,0,0,,10,,,69,127
46536,note_off,0,0,0,,5,,,65,127
46537,note_on,1,0,0,,4,,,64,127
46537,note_on,0,0,0,,1,,,61,127
46637,note_off,100,0,0,,10,,,81,127
46658,note_on,21,0,0,,4,,,76,127
46778,note_off,120,0,0,,4,,,76,127
46778,note_off,0,0,0,,1,,,61,127
46778,note_off,0,0,0,,4,,,64,127
46779,note_on,1,0,0,,5,,,77,127
46779,note_on,0,0,0,,5,,,65,127
46779,note_on,0,0,0,,2,,,62,127
46899,note_off,120,0,0,,5,,,77,127
46900,note_on,1,0,0,,7,,,79,127
47020,note_off,120,0,0,,2,,,62,127
47020,note_off,0,0,0,,5,,,65,127
47021,note_on,1,0,0,,4,,,64,127
47021,note_on,0,0,0,,7,,,67,127
47121,note_off,100,0,0,,7,,,79,127
47142,note_on,21,0,0,,1,,,73,127
47262,note_off,120,0,0,,1,,,73,127
47262,note_off,0,0,0,,7,,,67,127
47262,note_off,0,0,0,,4,,,64,127
47263,note_on,1,0,0,,2,,,74,127
47263,note_on,0,0,0,,5,,,65,127
47263,note_on,0,0,0,,10,,,69,127
47383,note_off,120,0,0,,2,,,74,127
47384,note_on,1,0,0,,2,,,86,127
47504,note_off,120,0,0,,10,,,69,127
47504,note_off,0,0,0,,5,,,65,127
47505,note_on,1,0,0,,10,,,69,127
47505,note_on,0,0,0,,6,,,66,127
47605,note_off,100,0,0,,2,,,86,127
47626,note_on,21,0,0,,10,,,81,127
47746,note_off,120,0,0,,10,,,81,127
47746,note_off,0,0,0,,6,,,66,127
47746,note_off,0,0,0,,10,,,69,127
47747,note_on,1,0,0,,11,,,82,127
47747,note_on,0,0,0,,7,,,67,127
47747,note_on,0,0,0,,11,,,70,127
47867,note_off,120,0,0,,11,,,82,127
47868,note_on,1,0,0,,0,,,84,127
47988,note_off,120,0,0,,11,,,70,127
47988,note_off,0,0,0,,7,,,67,127
47989,note_on,1,0,0,,10,,,69,127
47989,note_on,0,0,0,,0,,,72,127
48089,note_off,100,0,0,,0,,,84,127
48110,note_on,21,0,0,,6,,,78,127
48230,note_off,120,0,0,,6,,,78,127
48230,note_off,0,0,0,,0,,,72,127
48230,note_off,0,0,0,,10,,,69,127
48231,note_on,1,0,0,,7,,,79,127
48231,note_on,0,0,0,,2,,,74,127
48231,note_on,0,0,0,,11,,,70,127
48351,note_off,120,0,0,,7,,,79,127
48352,note_on,1,0,0,,2,,,86,127
48472,note_off,120,0,0,,11,,,70,127
48472,note_off,0,0,0,,2,,,74,127
48473,note_on,1,0,0,,10,,,69,127
48473,note_on,0,0,0,,6,,,66,127
48573,note_off,100,0,0,,2,,,86,127
48594,note_on,21,0,0,,10,,,81,127
48714,note_off,120,0,0,,10,,,81,127
48714,note_off,0,0,0,,6,,,66,127
48714,note_off,0,0,0,,10,,,69,127
48715,note_on,1,0,0,,11,,,82,127
48715,note_on,0,0,0,,11,,,70,127
48715,note_on,0,0,0,,7,,,67,127
48835,note_off,120,0,0,,11,,,82,127
48836,note_on,1,0,0,,0,,,84,127
48956,note_off,120,0,0,,7,,,67,127
48956,note_off,0,0,0,,11,,,70,127
48957,note_on,1,0,0,,0,,,72,127
48957,note_on,0,0,0,,10,,,69,127
49057,note_off,100,0,0,,0,,,84,127
49078,note_on,21,0,0,,6,,,78,127
49198,note_off,120,0,0,,6,,,78,127
49198,note_off,0,0,0,,10,,,69,127
49198,note_off,0,0,0,,0,,,72,127
49199,note_on,1,0,0,,7,,,79,127
49199,note_on,0,0,0,,11,,,70,127
49199,note_on,0,0,0,,2,,,74,127
49319,note_off,120,0,0,,7,,,79,127
49320,note_on,1,0,0,,2,,,86,127
49440,note_off,120,0,0,,2,,,74,127
49440,note_off,0,0,0,,11,,,70,127
49441,note_on,1,0,0,,12,,,71,127
49441,note_on,0,0,0,,2,,,74,127
49541,note_off,100,0,0,,2,,,86,127
49562,note_on,21,0,0,,5,,,77,127
49682,note_off,120,0,0,,5,,,77,127
49682,note_off,0,0,0,,2,,,74,127
49682,note_off,0,0,0,,12,,,71,127
49683,note_on,1,0,0,,4,,,76,127
49683,note_on,0,0,0,,0,,,72,127
49683,note_on,0,0,0,,0,,,60,127
49803,note_off,120,0,0,,4,,,76,127
49804,note_on,1,0,0,,7,,,79,127
49924,note_off,120,0,0,,0,,,60,127
49924,note_off,0,0,0,,0,,,72,127
49925,note_on,1,0,0,,2,,,62,127
50025,note_off,100,0,0,,7,,,79,127
50046,note_on,21,0,0,,12,,,71,127
50166,note_off,120,0,0,,12,,,71,127
50166,note_off,0,0,0,,2,,,62,127
50167,note_on,1,0,0,,0,,,72,127
50167,note_on,0,0,0,,4,,,64,127
50287,note_off,120,0,0,,0,,,72,127
50288,note_on,1,0,0,,2,,,74,127
50408,note_off,120,0,0,,4,,,64,127
50409,note_on,1,0,0,,0,,,60,127
50509,note_off,100,0,0,,2,,,74,127
50530,note_on,21,0,0,,7,,,67,127
50650,note_off,120,0,0,,7,,,67,127
50650,note_off,0,0,0,,0,,,60,127
50651,note_on,1,0,0,,10,,,69,127
50651,note_on,0,0,0,,5,,,53,127
50651,note_on,0,0,0,,5,,,65,127
50771,note_off,120,0,0,,10,,,69,127
50772,note_on,1,0,0,,11,,,70,127
50892,note_off,120,0,0,,5,,,65,127
50892,note_off,0,0,0,,5,,,53,127
50893,note_on,1,0,0,,7,,,55,127
50893,note_on,0,0,0,,11,,,58,127
50993,note_off,100,0,0,,11,,,70,127
51014,note_on,21,0,0,,4,,,64,127
51134,note_off,120,0,0,,4,,,64,127
51134,note_off,0,0,0,,11,,,58,127
51134,note_off,0,0,0,,7,,,55,127
51135,note_on,1,0,0,,5,,,65,127
51135,note_on,0,0,0,,0,,,60,127
51135,note_on,0,0,0,,10,,,57,127
51255,note_off,120,0,0,,5,,,65,127
51256,note_on,1,0,0,,7,,,67,127
51376,note_off,120,0,0,,10,,,57,127
51376,note_off,0,0,0,,0,,,60,127
51377,note_on,1,0,0,,11,,,58,127
51377,note_on,0,0,0,,2,,,62,127
51477,note_off,100,0,0,,7,,,67,127
51496,note_off,19,0,0,,2,,,62,127
51499,note_on,3,0,0,,2,,,62,127
51619,note_off,120,0,0,,2,,,62,127
51619,note_off,0,0,0,,11,,,58,127
51620,note_on,1,0,0,,5,,,65,127
51620,note_on,0,0,0,,0,,,60,127
51620,note_on,0,0,0,,10,,,57,127
51740,note_off,120,0,0,,5,,,65,127
51741,note_on,1,0,0,,7,,,67,127
51861,note_off,120,0,0,,10,,,57,127
51861,note_off,0,0,0,,0,,,60,127
51862,note_on,1,0,0,,11,,,58,127
51862,note_on,0,0,0,,2,,,62,127
51981,note_off,119,0,0,,2,,,62,127
51982,note_off,1,0,0,,7,,,67,127
51983,note_on,1,0,0,,2,,,62,127
52103,note_off,120,0,0,,2,,,62,127
52103,note_off,0,0,0,,11,,,58,127
52104,note_on,1,0,0,,5,,,65,127
52104,note_on,0,0,0,,0,,,60,127
52163,note_off,59,0,0,,5,,,65,127
52164,note_on,1,0,0,,4,,,64,127
52223,note_off,59,0,0,,4,,,64,127
52224,note_on,1,0,0,,5,,,65,127
52283,note_off,59,0,0,,5,,,65,127
52284,note_on,1,0,0,,4,,,64,127
52343,note_off,59,0,0,,4,,,64,127
52343,note_off,0,0,0,,0,,,60,127
52344,note_on,1,0,0,,5,,,65,127
52344,note_on,0,0,0,,0,,,48,127
52403,note_off,59,0,0,,5,,,65,127
52404,note_on,1,0,0,,4,,,64,127
52463,note_off,59,0,0,,4,,,64,127
52464,note_on,1,0,0,,2,,,62,127
52584,note_off,120,0,0,,2,,,62,127
52584,note_off,0,0,0,,0,,,48,127
52585,note_on,1,0,0,,0,,,60,127
52585,note_on,0,0,0,,0,,,36,127
52825,note_off,240,0,0,,0,,,60,127
52828,note_on,3,0,0,,10,,,69,127
52948,note_off,120,0,0,,10,,,69,127
52949,note_off,1,0,0,,0,,,36,127
52949,note_on,0,0,0,,7,,,67,127
53069,note_off,120,0,0,,7,,,67,127
53070,note_on,1,0,0,,7,,,67,127
53070,note_on,0,0,0,,0,,,36,127
53190,note_off,120,0,0,,7,,,67,127
53191,note_on,1,0,0,,4,,,64,127
53311,note_off,120,0,0,,4,,,64,127
53312,note_on,1,0,0,,0,,,72,127
53432,note_off,120,0,0,,0,,,72,127
53433,note_on,1,0,0,,11,,,70,127
53553,note_off,120,0,0,,11,,,70,127
53553,note_off,0,0,0,,0,,,36,127
53554,note_on,1,0,0,,11,,,70,127
53554,note_on,0,0,0,,0,,,36,127
53674,note_off,120,0,0,,11,,,70,127
53675,note_on,1,0,0,,7,,,67,127
53795,note_off,120,0,0,,7,,,67,127
53796,note_on,1,0,0,,4,,,76,127
53916,note_off,120,0,0,,4,,,76,127
53917,note_on,1,0,0,,2,,,74,127
54037,note_off,120,0,0,,2,,,74,127
54037,note_off,0,0,0,,0,,,36,127
54038,note_on,1,0,0,,2,,,74,127
54038,note_on,0,0,0,,0,,,36,127
54158,note_off,120,0,0,,2,,,74,127
54159,note_on,1,0,0,,11,,,70,127
54279,note_off,120,0,0,,11,,,70,127
54280,note_on,1,0,0,,10,,,81,127
54400,note_off,120,0,0,,10,,,81,127
54401,note_on,1,0,0,,7,,,79,127
54521,note_off,120,0,0,,7,,,79,127
54521,note_off,0,0,0,,0,,,36,127
54522,note_on,1,0,0,,7,,,79,127
54522,note_on,0,0,0,,0,,,36,127
54642,note_off,120,0,0,,7,,,79,127
54643,note_on,1,0,0,,4,,,76,127
54763,note_off,120,0,0,,4,,,76,127
54764,note_on,1,0,0,,0,,,84,127
54884,note_off,120,0,0,,0,,,84,127
54885,note_on,1,0,0,,11,,,82,127
55005,note_off,120,0,0,,11,,,82,127
55005,note_off,0,0,0,,0,,,36,127
55006,note_on,1,0,0,,11,,,82,127
55006,note_on,0,0,0,,0,,,36,127
55126,note_off,120,0,0,,11,,,82,127
55127,note_on,1,0,0,,7,,,79,127
55247,note_off,120,0,0,,7,,,79,127
55247,note_off,0,0,0,,0,,,36,127
55248,note_on,1,0,0,,7,,,79,127
55248,note_on,0,0,0,,0,,,48,127
55368,note_off,120,0,0,,7,,,79,127
55369,note_on,1,0,0,,4,,,76,127
55489,note_off,120,0,0,,4,,,76,127
55489,note_off,0,0,0,,0,,,48,127
55490,note_on,1,0,0,,4,,,76,127
55490,note_on,0,0,0,,4,,,52,127
55610,note_off,120,0,0,,4,,,76,127
55611,note_on,1,0,0,,0,,,72,127
55731,note_off,120,0,0,,0,,,72,127
55731,note_off,0,0,0,,4,,,52,127
55732,note_on,1,0,0,,0,,,72,127
55732,note_on,0,0,0,,0,,,48,127
55852,note_off,120,0,0,,0,,,72,127
55853,note_on,1,0,0,,11,,,70,127
55973,note_off,120,0,0,,11,,,70,127
55973,note_off,0,0,0,,0,,,48,127
55974,note_on,1,0,0,,0,,,72,127
55974,note_on,0,0,0,,5,,,53,127
56033,note_off,59,0,0,,0,,,72,127
56034,note_on,1,0,0,,11,,,70,127
56093,note_off,59,0,0,,11,,,70,127
56094,note_on,1,0,0,,0,,,72,127
56153,note_off,59,0,0,,0,,,72,127
56154,note_on,1,0,0,,11,,,70,127
56213,note_off,59,0,0,,11,,,70,127
56213,note_off,0,0,0,,5,,,53,127
56214,note_on,1,0,0,,0,,,72,127
56214,note_on,0,0,0,,0,,,48,127
56273,note_off,59,0,0,,0,,,72,127
56274,note_on,1,0,0,,11,,,70,127
56333,note_off,59,0,0,,11,,,70,127
56334,note_on,1,0,0,,10,,,69,127
56393,note_off,59,0,0,,10,,,69,127
56394,note_on,1,0,0,,11,,,70,127
56453,note_off,59,0,0,,11,,,70,127
56453,note_off,0,0,0,,0,,,48,127
56454,note_on,1,0,0,,10,,,69,127
56454,note_on,0,0,0,,5,,,41,127
56697,note_on,243,0,0,,0,,,72,127
56818,note_off,121,0,0,,10,,,69,127
56938,note_off,120,0,0,,0,,,72,127
56938,note_off,0,0,0,,5,,,41,127
56939,note_on,1,0,0,,0,,,72,127
56939,note_on,0,0,0,,10,,,57,127
56939,note_on,0,0,0,,5,,,53,127
56998,note_off,59,0,0,,0,,,72,127
56999,note_on,1,0,0,,11,,,70,127
57058,note_off,59,0,0,,11,,,70,127
57059,note_on,1,0,0,,10,,,69,127
57118,note_off,59,0,0,,10,,,69,127
57119,note_on,1,0,0,,7,,,67,127
57178,note_off,59,0,0,,7,,,67,127
57179,note_on,1,0,0,,0,,,72,127
57420,note_off,241,0,0,,0,,,72,127
57420,note_off,0,0,0,,5,,,53,127
57420,note_off,0,0,0,,10,,,57,127
57421,note_on,1,0,0,,0,,,72,127
57421,note_on,0,0,0,,7,,,55,127
57421,note_on,0,0,0,,4,,,52,127
57480,note_off,59,0,0,,0,,,72,127
57481,note_on,1,0,0,,11,,,70,127
57540,note_off,59,0,0,,11,,,70,127
57541,note_on,1,0,0,,10,,,69,127
57600,note_off,59,0,0,,10,,,69,127
57601,note_on,1,0,0,,7,,,67,127
57660,note_off,59,0,0,,7,,,67,127
57661,note_on,1,0,0,,0,,,72,127
57902,note_off,241,0,0,,0,,,72,127
57902,note_off,0,0,0,,4,,,52,127
57902,note_off,0,0,0,,7,,,55,127
57903,note_on,1,0,0,,0,,,72,127
57903,note_on,0,0,0,,5,,,53,127
57903,note_on,0,0,0,,10,,,57,127
57962,note_off,59,0,0,,0,,,72,127
57963,note_on,1,0,0,,11,,,70,127
58022,note_off,59,0,0,,11,,,70,127
58023,note_on,1,0,0,,10,,,69,127
58082,note_off,59,0,0,,10,,,69,127
58083,note_on,1,0,0,,7,,,67,127
58142,note_off,59,0,0,,7,,,67,127
58143,note_on,1,0,0,,5,,,77,127
58384,note_off,241,0,0,,5,,,77,127
58384,note_off,0,0,0,,10,,,57,127
58384,note_off,0,0,0,,5,,,53,127
58385,note_on,1,0,0,,5,,,77,127
58385,note_on,0,0,0,,0,,,60,127
58385,note_on,0,0,0,,10,,,57,127
58444,note_off,59,0,0,,5,,,77,127
58445,note_on,1,0,0,,4,,,76,127
58504,note_off,59,0,0,,4,,,76,127
58505,note_on,1,0,0,,2,,,74,127
58564,note_off,59,0,0,,2,,,74,127
58565,note_on,1,0,0,,0,,,72,127
58624,note_off,59,0,0,,0,,,72,127
58625,note_on,1,0,0,,5,,,77,127
58866,note_off,241,0,0,,5,,,77,127
58866,note_off,0,0,0,,10,,,57,127
58866,note_off,0,0,0,,0,,,60,127
58867,note_on,1,0,0,,5,,,77,127
58867,note_on,0,0,0,,11,,,58,127
58867,note_on,0,0,0,,2,,,62,127
58926,note_off,59,0,0,,5,,,77,127
58927,note_on,1,0,0,,4,,,76,127
58986,note_off,59,0,0,,4,,,76,127
58987,note_on,1,0,0,,2,,,74,127
59046,note_off,59,0,0,,2,,,74,127
59047,note_on,1,0,0,,0,,,72,127
59106,note_off,59,0,0,,0,,,72,127
59107,note_on,1,0,0,,2,,,86,127
59348,note_off,241,0,0,,2,,,62,127
59348,note_off,0,0,0,,11,,,58,127
59349,note_on,1,0,0,,4,,,52,127
59469,note_off,120,0,0,,2,,,86,127
59470,note_on,1,0,0,,0,,,84,127
59590,note_off,120,0,0,,0,,,84,127
59591,note_on,1,0,0,,0,,,84,127
59711,note_off,120,0,0,,0,,,84,127
59712,note_on,1,0,0,,11,,,82,127
59832,note_off,120,0,0,,11,,,82,127
59832,note_off,0,0,0,,4,,,52,127
59833,note_on,1,0,0,,10,,,81,127
59833,note_on,0,0,0,,5,,,53,127
59953,note_off,120,0,0,,10,,,81,127
59954,note_on,1,0,0,,11,,,82,127
60074,note_off,120,0,0,,11,,,82,127
60074,note_off,0,0,0,,5,,,53,127
60075,note_on,1,0,0,,0,,,84,127
60075,note_on,0,0,0,,10,,,57,127
60195,note_off,120,0,0,,0,,,84,127
60196,note_on,1,0,0,,5,,,77,127
60316,note_off,120,0,0,,5,,,77,127
60316,note_off,0,0,0,,10,,,57,127
60317,note_on,1,0,0,,10,,,81,127
60317,note_on,0,0,0,,11,,,58,127
60437,note_off,120,0,0,,10,,,81,127
60438,note_on,1,0,0,,7,,,79,127
60558,note_off,120,0,0,,7,,,79,127
60558,note_off,0,0,0,,11,,,58,127
60559,note_on,1,0,0,,5,,,77,127
60559,note_on,0,0,0,,0,,,60,127
60679,note_off,120,0,0,,5,,,77,127
60680,note_on,1,0,0,,4,,,76,127
60800,note_off,120,0,0,,4,,,76,127
60800,note_off,0,0,0,,0,,,60,127
60801,note_on,1,0,0,,4,,,76,127
60801,note_on,0,0,0,,5,,,53,127
61042,note_off,241,0,0,,4,,,76,127
61043,note_on,1,0,0,,5,,,77,127
61284,note_off,241,0,0,,5,,,53,127
61285,note_on,1,0,0,,4,,,52,127
61285,note_on,0,0,0,,7,,,55,127
61320,note_off,35,0,0,,5,,,77,127
61527,note_on,207,0,0,,0,,,72,127
61768,note_off,241,0,0,,0,,,72,127
61768,note_off,0,0,0,,7,,,55,127
61768,note_off,0,0,0,,4,,,52,127
61769,note_on,1,0,0,,0,,,72,127
61769,note_on,0,0,0,,5,,,53,127
61769,note_on,0,0,0,,10,,,57,127
61828,note_off,59,0,0,,0,,,72,127
61829,note_on,1,0,0,,11,,,70,127
61888,note_off,59,0,0,,11,,,70,127
61889,note_on,1,0,0,,10,,,69,127
61948,note_off,59,0,0,,10,,,69,127
61949,note_on,1,0,0,,7,,,67,127
62008,note_off,59,0,0,,7,,,67,127
62009,note_on,1,0,0,,0,,,72,127
62250,note_off,241,0,0,,0,,,72,127
62250,note_off,0,0,0,,10,,,57,127
62250,note_off,0,0,0,,5,,,53,127
62251,note_on,1,0,0,,0,,,72,127
62251,note_on,0,0,0,,4,,,52,127
62251,note_on,0,0,0,,7,,,55,127
62310,note_off,59,0,0,,0,,,72,127
62311,note_on,1,0,0,,11,,,70,127
62370,note_off,59,0,0,,11,,,70,127
62371,note_on,1,0,0,,10,,,69,127
62430,note_off,59,0,0,,10,,,69,127
62431,note_on,1,0,0,,7,,,67,127
62490,note_off,59,0,0,,7,,,67,127
62491,note_on,1,0,0,,0,,,72,127
62732,note_off,241,0,0,,0,,,72,127
62732,note_off,0,0,0,,7,,,55,127
62732,note_off,0,0,0,,4,,,52,127
62733,note_on,1,0,0,,0,,,72,127
62733,note_on,0,0,0,,5,,,53,127
62733,note_on,0,0,0,,10,,,57,127
62792,note_off,59,0,0,,0,,,72,127
62793,note_on,1,0,0,,11,,,70,127
62852,note_off,59,0,0,,11,,,70,127
62853,note_on,1,0,0,,10,,,69,127
62912,note_off,59,0,0,,10,,,69,127
62913,note_on,1,0,0,,7,,,67,127
62972,note_off,59,0,0,,7,,,67,127
62973,note_on,1,0,0,,5,,,77,127
63214,note_off,241,0,0,,5,,,77,127
63214,note_off,0,0,0,,10,,,57,127
63214,note_off,0,0,0,,5,,,53,127
63215,note_on,1,0,0,,5,,,77,127
63215,note_on,0,0,0,,10,,,57,127
63215,note_on,0,0,0,,0,,,60,127
63274,note_off,59,0,0,,5,,,77,127
63275,note_on,1,0,0,,4,,,76,127
63334,note_off,59,0,0,,4,,,76,127
63335,note_on,1,0,0,,2,,,74,127
63394,note_off,59,0,0,,2,,,74,127
63395,note_on,1,0,0,,0,,,72,127
63454,note_off,59,0,0,,0,,,72,127
63455,note_on,1,0,0,,5,,,77,127
63696,note_off,241,0,0,,5,,,77,127
63696,note_off,0,0,0,,0,,,60,127
63696,note_off,0,0,0,,10,,,57,127
63697,note_on,1,0,0,,5,,,77,127
63697,note_on,0,0,0,,11,,,58,127
63697,note_on,0,0,0,,2,,,62,127
63756,note_off,59,0,0,,5,,,77,127
63757,note_on,1,0,0,,4,,,76,127
63816,note_off,59,0,0,,4,,,76,127
63817,note_on,1,0,0,,2,,,74,127
63876,note_off,59,0,0,,2,,,74,127
63877,note_on,1,0,0,,0,,,72,127
63936,note_off,59,0,0,,0,,,72,127
63937,note_on,1,0,0,,2,,,86,127
64178,note_off,241,0,0,,2,,,62,127
64178,note_off,0,0,0,,11,,,58,127
64179,note_on,1,0,0,,4,,,52,127
64299,note_off,120,0,0,,2,,,86,127
64300,note_on,1,0,0,,0,,,84,127
64420,note_off,120,0,0,,0,,,84,127
64421,note_on,1,0,0,,0,,,84,127
64541,note_off,120,0,0,,0,,,84,127
64542,note_on,1,0,0,,11,,,82,127
64662,note_off,120,0,0,,11,,,82,127
64662,note_off,0,0,0,,4,,,52,127
64663,note_on,1,0,0,,10,,,81,127
64663,note_on,0,0,0,,5,,,53,127
64783,note_off,120,0,0,,10,,,81,127
64784,note_on,1,0,0,,11,,,82,127
64904,note_off,120,0,0,,11,,,82,127
64904,note_off,0,0,0,,5,,,53,127
64905,note_on,1,0,0,,0,,,84,127
64905,note_on,0,0,0,,10,,,57,127
65025,note_off,120,0,0,,0,,,84,127
65026,note_on,1,0,0,,5,,,77,127
65146,note_off,120,0,0,,5,,,77,127
65146,note_off,0,0,0,,10,,,57,127
65147,note_on,1,0,0,,10,,,81,127
65147,note_on,0,0,0,,11,,,58,127
65267,note_off,120,0,0,,10,,,81,127
65268,note_on,1,0,0,,7,,,79,127
65388,note_off,120,0,0,,7,,,79,127
65388,note_off,0,0,0,,11,,,58,127
65389,note_on,1,0,0,,5,,,77,127
65389,note_on,0,0,0,,0,,,60,127
65509,note_off,120,0,0,,5,,,77,127
65510,note_on,1,0,0,,4,,,76,127
65630,note_off,120,0,0,,4,,,76,127
65630,note_off,0,0,0,,0,,,60,127
65631,note_on,1,0,0,,5,,,77,127
65631,note_on,0,0,0,,5,,,53,127
65861,note_off,230,0,0,,5,,,77,127
65874,note_on,13,0,0,,2,,,86,127
65994,note_off,120,0,0,,2,,,86,127
65995,note_off,1,0,0,,5,,,53,127
65995,note_on,0,0,0,,0,,,84,127
66115,note_off,120,0,0,,0,,,84,127
66116,note_on,1,0,0,,0,,,84,127
66116,note_on,0,0,0,,7,,,67,127
66116,note_on,0,0,0,,4,,,64,127
66236,note_off,120,0,0,,0,,,84,127
66237,note_on,1,0,0,,7,,,79,127
66357,note_off,120,0,0,,7,,,79,127
66357,note_off,0,0,0,,4,,,64,127
66357,note_off,0,0,0,,7,,,67,127
66358,note_on,1,0,0,,2,,,86,127
66358,note_on,0,0,0,,7,,,67,127
66358,note_on,0,0,0,,4,,,64,127
66478,note_off,120,0,0,,2,,,86,127
66479,note_on,1,0,0,,0,,,84,127
66599,note_off,120,0,0,,0,,,84,127
66599,note_off,0,0,0,,4,,,64,127
66599,note_off,0,0,0,,7,,,67,127
66600,note_on,1,0,0,,0,,,84,127
66600,note_on,0,0,0,,2,,,62,127
66600,note_on,0,0,0,,5,,,65,127
66720,note_off,120,0,0,,0,,,84,127
66721,note_on,1,0,0,,5,,,77,127
66841,note_off,120,0,0,,5,,,77,127
66841,note_off,0,0,0,,5,,,65,127
66841,note_off,0,0,0,,2,,,62,127
66842,note_on,1,0,0,,2,,,86,127
66842,note_on,0,0,0,,2,,,62,127
66842,note_on,0,0,0,,5,,,65,127
66962,note_off,120,0,0,,2,,,86,127
66963,note_on,1,0,0,,0,,,84,127
67083,note_off,120,0,0,,0,,,84,127
67083,note_off,0,0,0,,5,,,65,127
67083,note_off,0,0,0,,2,,,62,127
67084,note_on,1,0,0,,0,,,84,127
67084,note_on,0,0,0,,4,,,64,127
67084,note_on,0,0,0,,0,,,60,127
67204,note_off,120,0,0,,0,,,84,127
67205,note_on,1,0,0,,4,,,76,127
67325,note_off,120,0,0,,4,,,76,127
67325,note_off,0,0,0,,0,,,60,127
67325,note_off,0,0,0,,4,,,64,127
67326,note_on,1,0,0,,2,,,86,127
67326,note_on,0,0,0,,4,,,64,127
67326,note_on,0,0,0,,0,,,60,127
67446,note_off,120,0,0,,2,,,86,127
67447,note_on,1,0,0,,0,,,84,127
67567,note_off,120,0,0,,0,,,84,127
67567,note_off,0,0,0,,0,,,60,127
67567,note_off,0,0,0,,4,,,64,127
67568,note_on,1,0,0,,0,,,84,127
67568,note_on,0,0,0,,11,,,58,127
67568,note_on,0,0,0,,2,,,62,127
67688,note_off,120,0,0,,0,,,84,127
67689,note_on,1,0,0,,2,,,74,127
67809,note_off,120,0,0,,2,,,74,127
67809,note_off,0,0,0,,2,,,62,127
67809,note_off,0,0,0,,11,,,58,127
67810,note_on,1,0,0,,2,,,86,127
67810,note_on,0,0,0,,11,,,58,127
67810,note_on,0,0,0,,2,,,62,127
67930,note_off,120,0,0,,2,,,86,127
67931,note_on,1,0,0,,0,,,84,127
68051,note_off,120,0,0,,0,,,84,127
68051,note_off,0,0,0,,2,,,62,127
68051,note_off,0,0,0,,11,,,58,127
68052,note_on,1,0,0,,0,,,84,127
68052,note_on,0,0,0,,0,,,60,127
68052,note_on,0,0,0,,10,,,57,127
68172,note_off,120,0,0,,0,,,84,127
68173,note_on,1,0,0,,0,,,72,127
68293,note_off,120,0,0,,0,,,72,127
68293,note_off,0,0,0,,10,,,57,127
68293,note_off,0,0,0,,0,,,60,127
68294,note_on,1,0,0,,10,,,81,127
68294,note_on,0,0,0,,0,,,60,127
68294,note_on,0,0,0,,10,,,57,127
68414,note_off,120,0,0,,10,,,81,127
68415,note_on,1,0,0,,5,,,77,127
68535,note_off,120,0,0,,5,,,77,127
68535,note_off,0,0,0,,10,,,57,127
68535,note_off,0,0,0,,0,,,60,127
68536,note_on,1,0,0,,4,,,76,127
68536,note_on,0,0,0,,11,,,58,127
68656,note_off,120,0,0,,4,,,76,127
68657,note_on,1,0,0,,2,,,74,127
68777,note_off,120,0,0,,2,,,74,127
68778,note_on,1,0,0,,11,,,82,127
68778,note_on,0,0,0,,11,,,70,127
68898,note_off,120,0,0,,11,,,82,127
68899,note_on,1,0,0,,7,,,79,127
69019,note_off,120,0,0,,7,,,79,127
69019,note_off,0,0,0,,11,,,70,127
69019,note_off,0,0,0,,11,,,58,127
69020,note_on,1,0,0,,5,,,77,127
69020,note_on,0,0,0,,0,,,60,127
69020,note_on,0,0,0,,10,,,69,127
69261,note_off,241,0,0,,10,,,69,127
69261,note_off,0,0,0,,5,,,77,127
69262,note_on,1,0,0,,5,,,77,127
69262,note_on,0,0,0,,7,,,67,127
69321,note_off,59,0,0,,5,,,77,127
69322,note_on,1,0,0,,4,,,76,127
69381,note_off,59,0,0,,4,,,76,127
69382,note_on,1,0,0,,2,,,74,127
69441,note_off,59,0,0,,2,,,74,127
69442,note_on,1,0,0,,4,,,76,127
69501,note_off,59,0,0,,4,,,76,127
69501,note_off,0,0,0,,7,,,67,127
69501,note_off,0,0,0,,0,,,60,127
69502,note_on,1,0,0,,5,,,77,127
69502,note_on,0,0,0,,5,,,53,127
69743,note_off,241,0,0,,5,,,77,127
69744,note_on,1,0,0,,7,,,79,127
69864,note_off,120,0,0,,7,,,79,127
69865,note_on,1,0,0,,5,,,77,127
69985,note_off,120,0,0,,5,,,77,127
69985,note_off,0,0,0,,5,,,53,127
69986,note_on,1,0,0,,5,,,77,127
69986,note_on,0,0,0,,11,,,58,127
69986,note_on,0,0,0,,2,,,62,127
70106,note_off,120,0,0,,5,,,77,127
70107,note_on,1,0,0,,2,,,74,127
70227,note_off,120,0,0,,2,,,74,127
70227,note_off,0,0,0,,2,,,62,127
70227,note_off,0,0,0,,11,,,58,127
70228,note_on,1,0,0,,7,,,79,127
70228,note_on,0,0,0,,11,,,58,127
70228,note_on,0,0,0,,2,,,62,127
70348,note_off,120,0,0,,7,,,79,127
70349,note_on,1,0,0,,5,,,77,127
70469,note_off,120,0,0,,5,,,77,127
70469,note_off,0,0,0,,2,,,62,127
70469,note_off,0,0,0,,11,,,58,127
70470,note_on,1,0,0,,5,,,77,127
70470,note_on,0,0,0,,0,,,60,127
70470,note_on,0,0,0,,10,,,57,127
70590,note_off,120,0,0,,5,,,77,127
70591,note_on,1,0,0,,0,,,72,127
70711,note_off,120,0,0,,0,,,72,127
70711,note_off,0,0,0,,10,,,57,127
70711,note_off,0,0,0,,0,,,60,127
70712,note_on,1,0,0,,7,,,79,127
70712,note_on,0,0,0,,10,,,57,127
70712,note_on,0,0,0,,0,,,60,127
70832,note_off,120,0,0,,7,,,79,127
70833,note_on,1,0,0,,5,,,77,127
70953,note_off,120,0,0,,5,,,77,127
70953,note_off,0,0,0,,0,,,60,127
70953,note_off,0,0,0,,10,,,57,127
70954,note_on,1,0,0,,5,,,77,127
70954,note_on,0,0,0,,11,,,58,127
70954,note_on,0,0,0,,7,,,55,127
71074,note_off,120,0,0,,5,,,77,127
71075,note_on,1,0,0,,11,,,70,127
71195,note_off,120,0,0,,11,,,70,127
71195,note_off,0,0,0,,7,,,55,127
71195,note_off,0,0,0,,11,,,58,127
71196,note_on,1,0,0,,7,,,79,127
71196,note_on,0,0,0,,11,,,58,127
71196,note_on,0,0,0,,7,,,55,127
71316,note_off,120,0,0,,7,,,79,127
71317,note_on,1,0,0,,5,,,77,127
71437,note_off,120,0,0,,5,,,77,127
71437,note_off,0,0,0,,7,,,55,127
71437,note_off,0,0,0,,11,,,58,127
71438,note_on,1,0,0,,5,,,77,127
71438,note_on,0,0,0,,10,,,57,127
71438,note_on,0,0,0,,5,,,53,127
71558,note_off,120,0,0,,5,,,77,127
71559,note_on,1,0,0,,10,,,69,127
71679,note_off,120,0,0,,10,,,69,127
71679,note_off,0,0,0,,5,,,53,127
71679,note_off,0,0,0,,10,,,57,127
71680,note_on,1,0,0,,7,,,79,127
71680,note_on,0,0,0,,10,,,57,127
71680,note_on,0,0,0,,5,,,53,127
71800,note_off,120,0,0,,7,,,79,127
71801,note_on,1,0,0,,5,,,77,127
71921,note_off,120,0,0,,5,,,77,127
71921,note_off,0,0,0,,5,,,53,127
71921,note_off,0,0,0,,10,,,57,127
71922,note_on,1,0,0,,5,,,77,127
71922,note_on,0,0,0,,4,,,52,127
71922,note_on,0,0,0,,7,,,55,127
72042,note_off,120,0,0,,5,,,77,127
72043,note_on,1,0,0,,7,,,67,127
72163,note_off,120,0,0,,7,,,67,127
72163,note_off,0,0,0,,7,,,55,127
72163,note_off,0,0,0,,4,,,52,127
72164,note_on,1,0,0,,5,,,77,127
72164,note_on,0,0,0,,4,,,52,127
72164,note_on,0,0,0,,7,,,55,127
72284,note_off,120,0,0,,5,,,77,127
72285,note_on,1,0,0,,4,,,76,127
72405,note_off,120,0,0,,4,,,76,127
72405,note_off,0,0,0,,7,,,55,127
72405,note_off,0,0,0,,4,,,52,127
72406,note_on,1,0,0,,5,,,77,127
72406,note_on,0,0,0,,2,,,50,127
72406,note_on,0,0,0,,5,,,53,127
72526,note_off,120,0,0,,5,,,77,127
72527,note_on,1,0,0,,5,,,65,127
72647,note_off,120,0,0,,5,,,65,127
72647,note_off,0,0,0,,2,,,50,127
72648,note_on,1,0,0,,11,,,70,127
72648,note_on,0,0,0,,11,,,46,127
72768,note_off,120,0,0,,11,,,70,127
72769,note_on,1,0,0,,2,,,74,127
72889,note_off,120,0,0,,2,,,74,127
72889,note_off,0,0,0,,11,,,46,127
72889,note_off,0,0,0,,5,,,53,127
72890,note_on,1,0,0,,0,,,72,127
72890,note_on,0,0,0,,10,,,57,127
72890,note_on,0,0,0,,0,,,48,127
73131,note_off,241,0,0,,10,,,57,127
73131,note_off,0,0,0,,0,,,72,127
73132,note_on,1,0,0,,0,,,72,127
73132,note_on,0,0,0,,7,,,55,127
73191,note_off,59,0,0,,0,,,72,127
73192,note_on,1,0,0,,11,,,70,127
73251,note_off,59,0,0,,11,,,70,127
73252,note_on,1,0,0,,0,,,72,127
73311,note_off,59,0,0,,0,,,72,127
73312,note_on,1,0,0,,11,,,70,127
73371,note_off,59,0,0,,11,,,70,127
73371,note_off,0,0,0,,7,,,55,127
73371,note_off,0,0,0,,0,,,48,127
73372,note_on,1,0,0,,10,,,69,127
73372,note_on,0,0,0,,2,,,50,127
73372,note_on,0,0,0,,5,,,53,127
73493,note_on,121,0,0,,10,,,81,127
73554,note_off,61,0,0,,10,,,69,127
73613,note_off,59,0,0,,10,,,81,127
73613,note_off,0,0,0,,2,,,50,127
73614,note_on,1,0,0,,0,,,72,127
73614,note_on,0,0,0,,11,,,46,127
73734,note_off,120,0,0,,0,,,72,127
73735,note_on,1,0,0,,10,,,69,127
73855,note_off,120,0,0,,10,,,69,127
73855,note_off,0,0,0,,11,,,46,127
73855,note_off,0,0,0,,5,,,53,127
73856,note_on,1,0,0,,0,,,72,127
73856,note_on,0,0,0,,0,,,48,127
73856,note_on,0,0,0,,10,,,57,127
74097,note_off,241,0,0,,10,,,57,127
74097,note_off,0,0,0,,0,,,72,127
74098,note_on,1,0,0,,0,,,72,127
74098,note_on,0,0,0,,7,,,55,127
74157,note_off,59,0,0,,0,,,72,127
74158,note_on,1,0,0,,11,,,70,127
74217,note_off,59,0,0,,11,,,70,127
74218,note_on,1,0,0,,0,,,72,127
74277,note_off,59,0,0,,0,,,72,127
74278,note_on,1,0,0,,11,,,70,127
74337,note_off,59,0,0,,11,,,70,127
74337,note_off,0,0,0,,7,,,55,127
74337,note_off,0,0,0,,0,,,48,127
74338,note_on,1,0,0,,10,,,69,127
74338,note_on,0,0,0,,5,,,53,127
74338,note_on,0,0,0,,2,,,50,127
74459,note_on,121,0,0,,10,,,81,127
74520,note_off,61,0,0,,10,,,69,127
74579,note_off,59,0,0,,10,,,81,127
74579,note_off,0,0,0,,2,,,50,127
74580,note_on,1,0,0,,0,,,72,127
74580,note_on,0,0,0,,11,,,46,127
74700,note_off,120,0,0,,0,,,72,127
74701,note_on,1,0,0,,10,,,69,127
74821,note_off,120,0,0,,10,,,69,127
74821,note_off,0,0,0,,11,,,46,127
74821,note_off,0,0,0,,5,,,53,127
74822,note_on,1,0,0,,0,,,72,127
74822,note_on,0,0,0,,0,,,48,127
74822,note_on,0,0,0,,10,,,57,127
75063,note_off,241,0,0,,10,,,57,127
75063,note_off,0,0,0,,0,,,72,127
75064,note_on,1,0,0,,0,,,72,127
75064,note_on,0,0,0,,7,,,55,127
75123,note_off,59,0,0,,0,,,72,127
75124,note_on,1,0,0,,11,,,70,127
75183,note_off,59,0,0,,11,,,70,127
75184,note_on,1,0,0,,0,,,72,127
75243,note_off,59,0,0,,0,,,72,127
75244,note_on,1,0,0,,11,,,70,127
75303,note_off,59,0,0,,11,,,70,127
75303,note_off,0,0,0,,7,,,55,127
75303,note_off,0,0,0,,0,,,48,127
75304,note_on,1,0,0,,10,,,69,127
75304,note_on,0,0,0,,5,,,53,127
75304,note_on,0,0,0,,2,,,50,127
75424,note_off,120,0,0,,10,,,69,127
75425,note_on,1,0,0,,5,,,77,127
75545,note_off,120,0,0,,5,,,77,127
75545,note_off,0,0,0,,2,,,50,127
75546,note_on,1,0,0,,10,,,69,127
75546,note_on,0,0,0,,11,,,46,127
75666,note_off,120,0,0,,10,,,69,127
75667,note_on,1,0,0,,5,,,65,127
75787,note_off,120,0,0,,5,,,65,127
75787,note_off,0,0,0,,11,,,46,127
75788,note_on,1,0,0,,10,,,69,127
75788,note_on,0,0,0,,0,,,48,127
75847,note_off,59,0,0,,10,,,69,127
75848,note_on,1,0,0,,7,,,67,127
75907,note_off,59,0,0,,7,,,67,127
75908,note_on,1,0,0,,10,,,69,127
75967,note_off,59,0,0,,10,,,69,127
75968,note_on,1,0,0,,7,,,67,127
76027,note_off,59,0,0,,7,,,67,127
76027,note_off,0,0,0,,0,,,48,127
76028,note_on,1,0,0,,10,,,69,127
76028,note_on,0,0,0,,11,,,46,127
76087,note_off,59,0,0,,10,,,69,127
76088,note_on,1,0,0,,7,,,67,127
76147,note_off,59,0,0,,7,,,67,127
76148,note_on,1,0,0,,5,,,65,127
76207,note_off,59,0,0,,5,,,65,127
76208,note_on,1,0,0,,7,,,67,127
76267,note_off,59,0,0,,7,,,67,127
76267,note_off,0,0,0,,11,,,46,127
76267,note_off,0,0,0,,5,,,53,127
76268,note_on,1,0,0,,10,,,69,127
76268,note_on,0,0,0,,10,,,45,127
76268,note_on,0,0,0,,5,,,53,127
76388,note_off,120,0,0,,10,,,69,127
76389,note_on,1,0,0,,5,,,77,127
76509,note_off,120,0,0,,5,,,77,127
76509,note_off,0,0,0,,10,,,45,127
76510,note_on,1,0,0,,10,,,69,127
76510,note_on,0,0,0,,11,,,46,127
76630,note_off,120,0,0,,10,,,69,127
76631,note_on,1,0,0,,5,,,65,127
76751,note_off,120,0,0,,5,,,65,127
76751,note_off,0,0,0,,11,,,46,127
76752,note_on,1,0,0,,10,,,69,127
76752,note_on,0,0,0,,0,,,48,127
76933,note_off,181,0,0,,10,,,69,127
76934,note_on,1,0,0,,7,,,67,127
76993,note_off,59,0,0,,7,,,67,127
76993,note_off,0,0,0,,0,,,48,127
76994,note_on,1,0,0,,10,,,69,127
76994,note_on,0,0,0,,11,,,46,127
77053,note_off,59,0,0,,10,,,69,127
77054,note_on,1,0,0,,7,,,67,127
77113,note_off,59,0,0,,7,,,67,127
77114,note_on,1,0,0,,5,,,65,127
77173,note_off,59,0,0,,5,,,65,127
77174,note_on,1,0,0,,7,,,67,127
77233,note_off,59,0,0,,7,,,67,127
77233,note_off,0,0,0,,11,,,46,127
77233,note_off,0,0,0,,5,,,53,127
77234,note_on,1,0,0,,10,,,69,127
77234,note_on,0,0,0,,10,,,45,127
77354,note_off,120,0,0,,10,,,69,127
77355,note_on,1,0,0,,5,,,77,127
77475,note_off,120,0,0,,10,,,45,127
77476,note_off,1,0,0,,5,,,77,127
77479,note_on,3,0,0,,11,,,46,127
77479,note_on,0,0,0,,10,,,69,127
77600,note_off,121,0,0,,10,,,69,127
77604,note_on,4,0,0,,5,,,65,127
77724,note_off,120,0,0,,11,,,46,127
77725,note_off,1,0,0,,5,,,65,127
77729,note_on,4,0,0,,0,,,48,127
77729,note_on,0,0,0,,10,,,69,127
77974,note_off,245,0,0,,10,,,69,127
77979,note_on,5,0,0,,0,,,36,127
77979,note_on,0,0,0,,10,,,69,127
78038,note_off,59,0,0,,10,,,69,127
78041,note_on,3,0,0,,7,,,67,127
78100,note_off,59,0,0,,7,,,67,127
78104,note_on,4,0,0,,5,,,65,127
78163,note_off,59,0,0,,5,,,65,127
78168,note_on,5,0,0,,7,,,67,127
78221,note_off,53,0,0,,0,,,48,127
78224,note_off,3,0,0,,0,,,36,127
78237,note_off,13,0,0,,7,,,67,127
78251,note_on,14,0,0,,5,,,41,127
78251,note_on,0,0,0,,5,,,65,127
79735,note_off,1484,0,0,,5,,,65,127
79735,note_off,0,0,0,,5,,,41,127
86016,end_of_track,6281,1,0,,,,,,
