tick,type,time,meta,track,program,channel,pitch,tempo,note,velocity
0,copyright,0,1,0,,,,,,
0,program_change,0,0,0,6,0,,,,
0,pitchwheel,0,0,0,,0,0,,,
0,program_change,0,0,0,6,1,,,,
0,pitchwheel,0,0,0,,1,-590,,,
0,program_change,0,0,0,6,2,,,,
0,pitchwheel,0,0,0,,2,-272,,,
0,program_change,0,0,0,6,3,,,,
0,pitchwheel,0,0,0,,3,-353,,,
0,program_change,0,0,0,6,4,,,,
0,pitchwheel,0,0,0,,4,-560,,,
0,program_change,0,0,0,6,5,,,,
0,pitchwheel,0,0,0,,5,-80,,,
0,program_change,0,0,0,6,6,,,,
0,pitchwheel,0,0,0,,6,-625,,,
0,program_change,0,0,0,6,7,,,,
0,pitchwheel,0,0,0,,7,-130,,,
0,program_change,0,0,0,6,8,,,,
0,pitchwheel,0,0,0,,8,-512,,,
0,program_change,0,0,0,6,10,,,,
0,pitchwheel,0,0,0,,10,-464,,,
0,program_change,0,0,0,6,11,,,,
0,pitchwheel,0,0,0,,11,-208,,,
0,program_change,0,0,0,6,12,,,,
0,pitchwheel,0,0,0,,12,-553,,,
0,set_tempo,0,1,0,,,,500000,,
96,note_on,96,0,0,,7,,,79,127
287,note_off,191,0,0,,7,,,79,127
288,note_on,1,0,0,,2,,,74,127
479,note_off,191,0,0,,2,,,74,127
480,note_on,1,0,0,,2,,,74,127
671,note_off,191,0,0,,2,,,74,127
672,note_on,1,0,0,,2,,,74,127
863,note_off,191,0,0,,2,,,74,127
864,note_on,1,0,0,,0,,,72,127
959,note_off,95,0,0,,0,,,72,127
960,note_on,1,0,0,,12,,,71,127
1055,note_off,95,0,0,,12,,,71,127
1056,note_on,1,0,0,,10,,,69,127
1151,note_off,95,0,0,,10,,,69,127
1152,note_on,1,0,0,,7,,,67,127
1247,note_off,95,0,0,,7,,,67,127
1248,note_on,1,0,0,,12,,,71,127
1439,note_off,191,0,0,,12,,,71,127
1440,note_on,1,0,0,,2,,,74,127
1631,note_off,191,0,0,,2,,,74,127
1632,note_on,1,0,0,,7,,,79,127
1823,note_off,191,0,0,,7,,,79,127
1824,note_on,1,0,0,,2,,,74,127
2015,note_off,191,0,0,,2,,,74,127
2016,note_on,1,0,0,,2,,,74,127
2207,note_off,191,0,0,,2,,,74,127
2208,note_on,1,0,0,,2,,,74,127
2399,note_off,191,0,0,,2,,,74,127
2400,note_on,1,0,0,,0,,,72,127
2495,note_off,95,0,0,,0,,,72,127
2496,note_on,1,0,0,,12,,,71,127
2591,note_off,95,0,0,,12,,,71,127
2592,note_on,1,0,0,,10,,,69,127
2687,note_off,95,0,0,,10,,,69,127
2688,note_on,1,0,0,,7,,,67,127
2783,note_off,95,0,0,,7,,,67,127
2784,note_on,1,0,0,,12,,,71,127
2976,note_on,192,0,0,,2,,,74,127
3072,note_off,96,0,0,,12,,,71,127
3167,note_off,95,0,0,,2,,,74,127
3168,note_on,1,0,0,,7,,,67,127
3168,note_on,0,0,0,,12,,,71,127
3359,note_off,191,0,0,,7,,,67,127
3360,note_on,1,0,0,,2,,,62,127
3551,note_off,191,0,0,,2,,,62,127
3551,note_off,0,0,0,,12,,,71,127
3552,note_on,1,0,0,,2,,,62,127
3552,note_on,0,0,0,,12,,,71,127
3615,note_off,63,0,0,,12,,,71,127
3616,note_on,1,0,0,,10,,,69,127
3679,note_off,63,0,0,,10,,,69,127
3680,note_on,1,0,0,,12,,,71,127
3743,note_off,63,0,0,,12,,,71,127
3743,note_off,0,0,0,,2,,,62,127
3744,note_on,1,0,0,,2,,,62,127
3744,note_on,0,0,0,,10,,,69,127
3807,note_off,63,0,0,,10,,,69,127
3808,note_on,1,0,0,,7,,,67,127
3871,note_off,63,0,0,,7,,,67,127
3872,note_on,1,0,0,,10,,,69,127
3935,note_off,63,0,0,,10,,,69,127
3935,note_off,0,0,0,,2,,,62,127
3936,note_on,1,0,0,,0,,,60,127
3936,note_on,0,0,0,,7,,,67,127
4031,note_off,95,0,0,,0,,,60,127
4032,note_on,1,0,0,,12,,,59,127
4127,note_off,95,0,0,,12,,,59,127
4128,note_on,1,0,0,,10,,,57,127
4223,note_off,95,0,0,,10,,,57,127
4224,note_on,1,0,0,,7,,,55,127
4319,note_off,95,0,0,,7,,,55,127
4320,note_on,1,0,0,,12,,,59,127
4511,note_off,191,0,0,,12,,,59,127
4511,note_off,0,0,0,,7,,,67,127
4512,note_on,1,0,0,,2,,,62,127
4512,note_on,0,0,0,,2,,,74,127
4703,note_off,191,0,0,,2,,,74,127
4703,note_off,0,0,0,,2,,,62,127
4704,note_on,1,0,0,,7,,,67,127
4704,note_on,0,0,0,,12,,,71,127
4895,note_off,191,0,0,,7,,,67,127
4896,note_on,1,0,0,,2,,,62,127
5087,note_off,191,0,0,,2,,,62,127
5087,note_off,0,0,0,,12,,,71,127
5088,note_on,1,0,0,,2,,,62,127
5088,note_on,0,0,0,,12,,,71,127
5151,note_off,63,0,0,,12,,,71,127
5152,note_on,1,0,0,,10,,,69,127
5215,note_off,63,0,0,,10,,,69,127
5216,note_on,1,0,0,,12,,,71,127
5279,note_off,63,0,0,,12,,,71,127
5279,note_off,0,0,0,,2,,,62,127
5280,note_on,1,0,0,,2,,,62,127
5280,note_on,0,0,0,,10,,,69,127
5343,note_off,63,0,0,,10,,,69,127
5344,note_on,1,0,0,,7,,,67,127
5407,note_off,63,0,0,,7,,,67,127
5408,note_on,1,0,0,,10,,,69,127
5471,note_off,63,0,0,,10,,,69,127
5471,note_off,0,0,0,,2,,,62,127
5472,note_on,1,0,0,,0,,,60,127
5472,note_on,0,0,0,,7,,,67,127
5567,note_off,95,0,0,,0,,,60,127
5568,note_on,1,0,0,,12,,,59,127
5663,note_off,95,0,0,,12,,,59,127
5664,note_on,1,0,0,,10,,,57,127
5759,note_off,95,0,0,,10,,,57,127
5760,note_on,1,0,0,,7,,,55,127
5855,note_off,95,0,0,,7,,,55,127
5856,note_on,1,0,0,,12,,,59,127
5952,note_off,96,0,0,,7,,,67,127
6047,note_off,95,0,0,,12,,,59,127
6048,note_on,1,0,0,,2,,,62,127
6048,note_on,0,0,0,,2,,,74,127
6239,note_off,191,0,0,,2,,,74,127
6239,note_off,0,0,0,,2,,,62,127
6240,note_on,1,0,0,,0,,,60,127
6240,note_on,0,0,0,,2,,,74,127
6431,note_off,191,0,0,,2,,,74,127
6432,note_on,1,0,0,,4,,,76,127
6623,note_off,191,0,0,,4,,,76,127
6623,note_off,0,0,0,,0,,,60,127
6624,note_on,1,0,0,,10,,,57,127
6624,note_on,0,0,0,,4,,,76,127
6815,note_off,191,0,0,,4,,,76,127
6816,note_on,1,0,0,,6,,,78,127
7007,note_off,191,0,0,,6,,,78,127
7007,note_off,0,0,0,,10,,,57,127
7008,note_on,1,0,0,,12,,,59,127
7008,note_on,0,0,0,,10,,,81,127
7103,note_off,95,0,0,,10,,,81,127
7104,note_on,1,0,0,,7,,,79,127
7199,note_off,95,0,0,,7,,,79,127
7200,note_on,1,0,0,,6,,,78,127
7295,note_off,95,0,0,,6,,,78,127
7296,note_on,1,0,0,,4,,,76,127
7391,note_off,95,0,0,,4,,,76,127
7392,note_on,1,0,0,,2,,,74,127
7488,note_off,96,0,0,,12,,,59,127
7583,note_off,95,0,0,,2,,,74,127
7584,note_on,1,0,0,,12,,,59,127
7584,note_on,0,0,0,,2,,,74,127
7775,note_off,191,0,0,,2,,,74,127
7775,note_off,0,0,0,,12,,,59,127
7776,note_on,1,0,0,,0,,,60,127
7776,note_on,0,0,0,,2,,,74,127
7967,note_off,191,0,0,,2,,,74,127
7967,note_off,0,0,0,,0,,,60,127
7968,note_on,1,0,0,,2,,,62,127
7968,note_on,0,0,0,,0,,,72,127
8159,note_off,191,0,0,,0,,,72,127
8159,note_off,0,0,0,,2,,,62,127
8160,note_on,1,0,0,,4,,,64,127
8160,note_on,0,0,0,,0,,,72,127
8351,note_off,191,0,0,,0,,,72,127
8351,note_off,0,0,0,,4,,,64,127
8352,note_on,1,0,0,,6,,,66,127
8352,note_on,0,0,0,,0,,,72,127
8543,note_off,191,0,0,,0,,,72,127
8543,note_off,0,0,0,,6,,,66,127
8544,note_on,1,0,0,,7,,,67,127
8544,note_on,0,0,0,,2,,,74,127
8639,note_off,95,0,0,,2,,,74,127
8640,note_on,1,0,0,,0,,,72,127
8735,note_off,95,0,0,,0,,,72,127
8736,note_on,1,0,0,,12,,,71,127
8831,note_off,95,0,0,,12,,,71,127
8832,note_on,1,0,0,,10,,,69,127
8927,note_off,95,0,0,,10,,,69,127
8928,note_on,1,0,0,,12,,,71,127
9024,note_off,96,0,0,,7,,,67,127
9119,note_off,95,0,0,,12,,,71,127
9120,note_on,1,0,0,,12,,,83,127
9311,note_off,191,0,0,,12,,,83,127
9312,note_on,1,0,0,,12,,,83,127
9503,note_off,191,0,0,,12,,,83,127
9504,note_on,1,0,0,,7,,,67,127
9504,note_on,0,0,0,,7,,,79,127
9695,note_off,191,0,0,,7,,,79,127
9695,note_off,0,0,0,,7,,,67,127
9696,note_on,1,0,0,,7,,,67,127
9696,note_on,0,0,0,,7,,,79,127
9887,note_off,191,0,0,,7,,,79,127
9887,note_off,0,0,0,,7,,,67,127
9888,note_on,1,0,0,,7,,,67,127
9888,note_on,0,0,0,,12,,,71,127
10079,note_off,191,0,0,,12,,,71,127
10079,note_off,0,0,0,,7,,,67,127
10080,note_on,1,0,0,,7,,,67,127
10080,note_on,0,0,0,,10,,,69,127
10080,note_on,0,0,0,,1,,,73,127
10175,note_off,95,0,0,,1,,,73,127
10176,note_on,1,0,0,,2,,,74,127
10271,note_off,95,0,0,,2,,,74,127
10271,note_off,0,0,0,,10,,,69,127
10271,note_off,0,0,0,,7,,,67,127
10272,note_on,1,0,0,,7,,,67,127
10272,note_on,0,0,0,,10,,,69,127
10272,note_on,0,0,0,,4,,,76,127
10463,note_off,191,0,0,,10,,,69,127
10463,note_off,0,0,0,,7,,,67,127
10464,note_on,1,0,0,,7,,,67,127
10464,note_on,0,0,0,,10,,,69,127
10552,note_off,88,0,0,,4,,,76,127
10655,note_off,103,0,0,,10,,,69,127
10655,note_off,0,0,0,,7,,,67,127
10656,note_on,1,0,0,,10,,,69,127
10656,note_on,0,0,0,,7,,,67,127
10656,note_on,0,0,0,,10,,,81,127
10847,note_off,191,0,0,,10,,,81,127
10847,note_off,0,0,0,,7,,,67,127
10847,note_off,0,0,0,,10,,,69,127
10848,note_on,1,0,0,,10,,,69,127
10848,note_on,0,0,0,,6,,,66,127
10848,note_on,0,0,0,,10,,,81,127
11039,note_off,191,0,0,,10,,,81,127
11040,note_on,1,0,0,,6,,,78,127
11231,note_off,191,0,0,,6,,,78,127
11232,note_on,1,0,0,,6,,,78,127
11328,note_off,96,0,0,,6,,,66,127
11328,note_off,0,0,0,,10,,,69,127
11423,note_off,95,0,0,,6,,,78,127
11424,note_on,1,0,0,,6,,,66,127
11424,note_on,0,0,0,,10,,,69,127
11615,note_off,191,0,0,,10,,,69,127
11615,note_off,0,0,0,,6,,,66,127
11616,note_on,1,0,0,,6,,,66,127
11616,note_on,0,0,0,,7,,,67,127
11616,note_on,0,0,0,,12,,,71,127
11711,note_off,95,0,0,,12,,,71,127
11712,note_on,1,0,0,,1,,,73,127
11807,note_off,95,0,0,,1,,,73,127
11807,note_off,0,0,0,,7,,,67,127
11807,note_off,0,0,0,,6,,,66,127
11808,note_on,1,0,0,,6,,,66,127
11808,note_on,0,0,0,,7,,,67,127
11808,note_on,0,0,0,,2,,,74,127
11999,note_off,191,0,0,,7,,,67,127
11999,note_off,0,0,0,,6,,,66,127
12000,note_on,1,0,0,,6,,,66,127
12000,note_on,0,0,0,,7,,,67,127
12128,note_off,128,0,0,,2,,,74,127
12191,note_off,63,0,0,,7,,,67,127
12191,note_off,0,0,0,,6,,,66,127
12192,note_on,1,0,0,,6,,,66,127
12192,note_on,0,0,0,,7,,,67,127
12192,note_on,0,0,0,,7,,,79,127
12383,note_off,191,0,0,,7,,,79,127
12383,note_off,0,0,0,,7,,,67,127
12383,note_off,0,0,0,,6,,,66,127
12384,note_on,1,0,0,,4,,,64,127
12384,note_on,0,0,0,,7,,,67,127
12384,note_on,0,0,0,,7,,,79,127
12575,note_off,191,0,0,,7,,,79,127
12576,note_on,1,0,0,,4,,,76,127
12767,note_off,191,0,0,,4,,,76,127
12768,note_on,1,0,0,,4,,,76,127
12959,note_off,191,0,0,,4,,,76,127
12959,note_off,0,0,0,,7,,,67,127
12959,note_off,0,0,0,,4,,,64,127
12960,note_on,1,0,0,,4,,,64,127
12960,note_on,0,0,0,,7,,,67,127
12960,note_on,0,0,0,,12,,,71,127
13151,note_off,191,0,0,,12,,,71,127
13151,note_off,0,0,0,,7,,,67,127
13151,note_off,0,0,0,,4,,,64,127
13152,note_on,1,0,0,,7,,,67,127
13152,note_on,0,0,0,,1,,,61,127
13152,note_on,0,0,0,,10,,,69,127
13343,note_off,191,0,0,,1,,,61,127
13343,note_off,0,0,0,,7,,,67,127
13344,note_on,1,0,0,,1,,,61,127
13344,note_on,0,0,0,,7,,,67,127
13344,note_on,0,0,0,,7,,,79,127
13535,note_off,191,0,0,,7,,,79,127
13535,note_off,0,0,0,,7,,,67,127
13535,note_off,0,0,0,,1,,,61,127
13536,note_on,1,0,0,,1,,,61,127
13536,note_on,0,0,0,,7,,,67,127
13536,note_on,0,0,0,,7,,,79,127
13727,note_off,191,0,0,,7,,,79,127
13727,note_off,0,0,0,,7,,,67,127
13727,note_off,0,0,0,,1,,,61,127
13727,note_off,0,0,0,,10,,,69,127
13728,note_on,1,0,0,,2,,,62,127
13728,note_on,0,0,0,,7,,,67,127
13728,note_on,0,0,0,,12,,,71,127
13919,note_off,191,0,0,,12,,,71,127
13919,note_off,0,0,0,,7,,,67,127
13919,note_off,0,0,0,,2,,,62,127
13920,note_on,1,0,0,,1,,,61,127
13920,note_on,0,0,0,,7,,,67,127
13920,note_on,0,0,0,,10,,,69,127
14111,note_off,191,0,0,,7,,,67,127
14111,note_off,0,0,0,,1,,,61,127
14112,note_on,1,0,0,,1,,,61,127
14112,note_on,0,0,0,,7,,,67,127
14112,note_on,0,0,0,,7,,,79,127
14303,note_off,191,0,0,,7,,,79,127
14303,note_off,0,0,0,,7,,,67,127
14303,note_off,0,0,0,,1,,,61,127
14304,note_on,1,0,0,,1,,,61,127
14304,note_on,0,0,0,,7,,,67,127
14304,note_on,0,0,0,,7,,,79,127
14495,note_off,191,0,0,,7,,,79,127
14495,note_off,0,0,0,,7,,,67,127
14495,note_off,0,0,0,,1,,,61,127
14495,note_off,0,0,0,,10,,,69,127
14496,note_on,1,0,0,,2,,,62,127
14496,note_on,0,0,0,,7,,,67,127
14496,note_on,0,0,0,,12,,,71,127
14687,note_off,191,0,0,,12,,,71,127
14687,note_off,0,0,0,,7,,,67,127
14687,note_off,0,0,0,,2,,,62,127
14688,note_on,1,0,0,,1,,,61,127
14688,note_on,0,0,0,,4,,,64,127
14688,note_on,0,0,0,,10,,,69,127
14880,note_on,192,0,0,,7,,,79,127
15071,note_off,191,0,0,,7,,,79,127
15071,note_off,0,0,0,,10,,,69,127
15071,note_off,0,0,0,,4,,,64,127
15072,note_on,1,0,0,,10,,,57,127
15072,note_on,0,0,0,,7,,,79,127
15263,note_off,191,0,0,,7,,,79,127
15263,note_off,0,0,0,,1,,,61,127
15264,note_on,1,0,0,,6,,,78,127
15359,note_off,95,0,0,,6,,,78,127
15360,note_on,1,0,0,,4,,,76,127
15455,note_off,95,0,0,,4,,,76,127
15455,note_off,0,0,0,,10,,,57,127
15456,note_on,1,0,0,,2,,,62,127
15456,note_on,0,0,0,,7,,,79,127
15551,note_off,95,0,0,,7,,,79,127
15552,note_on,1,0,0,,6,,,78,127
15647,note_off,95,0,0,,6,,,78,127
15648,note_on,1,0,0,,4,,,76,127
15743,note_off,95,0,0,,4,,,76,127
15744,note_on,1,0,0,,6,,,78,127
15839,note_off,95,0,0,,6,,,78,127
15839,note_off,0,0,0,,2,,,62,127
15840,note_on,1,0,0,,7,,,55,127
15840,note_on,0,0,0,,7,,,79,127
15935,note_off,95,0,0,,7,,,79,127
15936,note_on,1,0,0,,6,,,78,127
16031,note_off,95,0,0,,6,,,78,127
16032,note_on,1,0,0,,4,,,76,127
16127,note_off,95,0,0,,4,,,76,127
16128,note_on,1,0,0,,2,,,74,127
16223,note_off,95,0,0,,2,,,74,127
16223,note_off,0,0,0,,7,,,55,127
16224,note_on,1,0,0,,1,,,73,127
16319,note_off,95,0,0,,1,,,73,127
16320,note_on,1,0,0,,12,,,71,127
16415,note_off,95,0,0,,12,,,71,127
16416,note_on,1,0,0,,10,,,57,127
16416,note_on,0,0,0,,10,,,69,127
16607,note_off,191,0,0,,10,,,57,127
16608,note_on,1,0,0,,12,,,59,127
16704,note_off,96,0,0,,10,,,69,127
16799,note_off,95,0,0,,12,,,59,127
16800,note_on,1,0,0,,1,,,61,127
16800,note_on,0,0,0,,10,,,81,127
16991,note_off,191,0,0,,10,,,81,127
16991,note_off,0,0,0,,1,,,61,127
16992,note_on,1,0,0,,2,,,62,127
16992,note_on,0,0,0,,10,,,81,127
17087,note_off,95,0,0,,10,,,81,127
17088,note_on,1,0,0,,6,,,78,127
17183,note_off,95,0,0,,6,,,78,127
17183,note_off,0,0,0,,2,,,62,127
17184,note_on,1,0,0,,4,,,64,127
17184,note_on,0,0,0,,10,,,81,127
17375,note_off,191,0,0,,4,,,64,127
17376,note_on,1,0,0,,6,,,66,127
17567,note_off,191,0,0,,6,,,66,127
17567,note_off,0,0,0,,10,,,81,127
17568,note_on,1,0,0,,7,,,67,127
17568,note_on,0,0,0,,10,,,81,127
17759,note_off,191,0,0,,10,,,81,127
17759,note_off,0,0,0,,7,,,67,127
17760,note_on,1,0,0,,10,,,69,127
17760,note_on,0,0,0,,10,,,81,127
17855,note_off,95,0,0,,10,,,81,127
17856,note_on,1,0,0,,4,,,76,127
17951,note_off,95,0,0,,4,,,76,127
17952,note_on,1,0,0,,10,,,57,127
17952,note_on,0,0,0,,10,,,81,127
18143,note_off,191,0,0,,10,,,57,127
18143,note_off,0,0,0,,10,,,69,127
18144,note_on,1,0,0,,12,,,59,127
18335,note_off,191,0,0,,12,,,59,127
18335,note_off,0,0,0,,10,,,81,127
18336,note_on,1,0,0,,1,,,61,127
18336,note_on,0,0,0,,10,,,81,127
18527,note_off,191,0,0,,10,,,81,127
18527,note_off,0,0,0,,1,,,61,127
18528,note_on,1,0,0,,2,,,62,127
18528,note_on,0,0,0,,10,,,81,127
18623,note_off,95,0,0,,10,,,81,127
18624,note_on,1,0,0,,6,,,78,127
18719,note_off,95,0,0,,6,,,78,127
18719,note_off,0,0,0,,2,,,62,127
18720,note_on,1,0,0,,4,,,64,127
18720,note_on,0,0,0,,10,,,81,127
18911,note_off,191,0,0,,4,,,64,127
18912,note_on,1,0,0,,6,,,66,127
19103,note_off,191,0,0,,6,,,66,127
19103,note_off,0,0,0,,10,,,81,127
19104,note_on,1,0,0,,7,,,67,127
19104,note_on,0,0,0,,10,,,81,127
19295,note_off,191,0,0,,10,,,81,127
19295,note_off,0,0,0,,7,,,67,127
19296,note_on,1,0,0,,10,,,69,127
19296,note_on,0,0,0,,10,,,81,127
19391,note_off,95,0,0,,10,,,81,127
19392,note_on,1,0,0,,4,,,76,127
19487,note_off,95,0,0,,4,,,76,127
19488,note_on,1,0,0,,10,,,57,127
19488,note_on,0,0,0,,10,,,81,127
19679,note_off,191,0,0,,10,,,57,127
19679,note_off,0,0,0,,10,,,69,127
19680,note_on,1,0,0,,12,,,59,127
19871,note_off,191,0,0,,12,,,59,127
19871,note_off,0,0,0,,10,,,81,127
19872,note_on,1,0,0,,1,,,61,127
19872,note_on,0,0,0,,10,,,81,127
20063,note_off,191,0,0,,10,,,81,127
20063,note_off,0,0,0,,1,,,61,127
20064,note_on,1,0,0,,2,,,62,127
20064,note_on,0,0,0,,10,,,81,127
20159,note_off,95,0,0,,10,,,81,127
20160,note_on,1,0,0,,7,,,79,127
20255,note_off,95,0,0,,7,,,79,127
20255,note_off,0,0,0,,2,,,62,127
20256,note_on,1,0,0,,4,,,64,127
20256,note_on,0,0,0,,6,,,78,127
20351,note_off,95,0,0,,6,,,78,127
20352,note_on,1,0,0,,4,,,76,127
20447,note_off,95,0,0,,4,,,76,127
20447,note_off,0,0,0,,4,,,64,127
20448,note_on,1,0,0,,6,,,66,127
20448,note_on,0,0,0,,2,,,74,127
20639,note_off,191,0,0,,2,,,74,127
20639,note_off,0,0,0,,6,,,66,127
20640,note_on,1,0,0,,2,,,62,127
20640,note_on,0,0,0,,2,,,74,127
20831,note_off,191,0,0,,2,,,74,127
20831,note_off,0,0,0,,2,,,62,127
20832,note_on,1,0,0,,7,,,67,127
20832,note_on,0,0,0,,2,,,74,127
20927,note_off,95,0,0,,2,,,74,127
20928,note_on,1,0,0,,12,,,83,127
21023,note_off,95,0,0,,12,,,83,127
21024,note_on,1,0,0,,7,,,55,127
21024,note_on,0,0,0,,10,,,81,127
21119,note_off,95,0,0,,10,,,81,127
21120,note_on,1,0,0,,7,,,79,127
21215,note_off,95,0,0,,7,,,79,127
21215,note_off,0,0,0,,7,,,55,127
21215,note_off,0,0,0,,7,,,67,127
21216,note_on,1,0,0,,10,,,57,127
21216,note_on,0,0,0,,6,,,78,127
21311,note_off,95,0,0,,6,,,78,127
21312,note_on,1,0,0,,4,,,76,127
21407,note_off,95,0,0,,4,,,76,127
21407,note_off,0,0,0,,10,,,57,127
21408,note_on,1,0,0,,10,,,57,127
21408,note_on,0,0,0,,2,,,74,127
21503,note_off,95,0,0,,2,,,74,127
21504,note_on,1,0,0,,1,,,73,127
21599,note_off,95,0,0,,1,,,73,127
21599,note_off,0,0,0,,10,,,57,127
21600,note_on,1,0,0,,2,,,62,127
21600,note_on,0,0,0,,10,,,81,127
21695,note_off,95,0,0,,10,,,81,127
21696,note_on,1,0,0,,7,,,79,127
21791,note_off,95,0,0,,7,,,79,127
21791,note_off,0,0,0,,2,,,62,127
21792,note_on,1,0,0,,4,,,64,127
21792,note_on,0,0,0,,6,,,78,127
21887,note_off,95,0,0,,6,,,78,127
21888,note_on,1,0,0,,4,,,76,127
21983,note_off,95,0,0,,4,,,76,127
21983,note_off,0,0,0,,4,,,64,127
21984,note_on,1,0,0,,6,,,66,127
21984,note_on,0,0,0,,2,,,74,127
22175,note_off,191,0,0,,2,,,74,127
22175,note_off,0,0,0,,6,,,66,127
22176,note_on,1,0,0,,2,,,62,127
22176,note_on,0,0,0,,2,,,74,127
22367,note_off,191,0,0,,2,,,74,127
22367,note_off,0,0,0,,2,,,62,127
22368,note_on,1,0,0,,7,,,67,127
22368,note_on,0,0,0,,2,,,74,127
22463,note_off,95,0,0,,2,,,74,127
22464,note_on,1,0,0,,12,,,83,127
22559,note_off,95,0,0,,12,,,83,127
22560,note_on,1,0,0,,7,,,55,127
22560,note_on,0,0,0,,10,,,81,127
22655,note_off,95,0,0,,10,,,81,127
22656,note_on,1,0,0,,7,,,79,127
22751,note_off,95,0,0,,7,,,79,127
22751,note_off,0,0,0,,7,,,55,127
22751,note_off,0,0,0,,7,,,67,127
22752,note_on,1,0,0,,10,,,57,127
22752,note_on,0,0,0,,6,,,78,127
22847,note_off,95,0,0,,6,,,78,127
22848,note_on,1,0,0,,4,,,76,127
22943,note_off,95,0,0,,4,,,76,127
22944,note_on,1,0,0,,10,,,45,127
22944,note_on,0,0,0,,2,,,74,127
23039,note_off,95,0,0,,2,,,74,127
23040,note_on,1,0,0,,1,,,73,127
23132,note_off,92,0,0,,10,,,57,127
23135,note_off,3,0,0,,1,,,73,127
23135,note_off,0,0,0,,10,,,45,127
23136,note_on,1,0,0,,2,,,74,127
23328,note_on,192,0,0,,2,,,50,127
23328,note_on,0,0,0,,2,,,86,127
23519,note_off,191,0,0,,2,,,86,127
23519,note_off,0,0,0,,2,,,50,127
23519,note_off,0,0,0,,2,,,74,127
23520,note_on,1,0,0,,4,,,52,127
23520,note_on,0,0,0,,2,,,86,127
23711,note_off,191,0,0,,2,,,86,127
23711,note_off,0,0,0,,4,,,52,127
23712,note_on,1,0,0,,6,,,54,127
23712,note_on,0,0,0,,2,,,86,127
23903,note_off,191,0,0,,2,,,86,127
23903,note_off,0,0,0,,6,,,54,127
23904,note_on,1,0,0,,7,,,55,127
23904,note_on,0,0,0,,12,,,83,127
24095,note_off,191,0,0,,12,,,83,127
24095,note_off,0,0,0,,7,,,55,127
24096,note_on,1,0,0,,10,,,57,127
24096,note_on,0,0,0,,7,,,79,127
24287,note_off,191,0,0,,7,,,79,127
24287,note_off,0,0,0,,10,,,57,127
24288,note_on,1,0,0,,12,,,59,127
24288,note_on,0,0,0,,6,,,78,127
24351,note_off,63,0,0,,6,,,78,127
24352,note_on,1,0,0,,4,,,76,127
24415,note_off,63,0,0,,4,,,76,127
24416,note_on,1,0,0,,6,,,78,127
24479,note_off,63,0,0,,6,,,78,127
24479,note_off,0,0,0,,12,,,59,127
24480,note_on,1,0,0,,1,,,61,127
24480,note_on,0,0,0,,4,,,76,127
24543,note_off,63,0,0,,4,,,76,127
24544,note_on,1,0,0,,2,,,74,127
24607,note_off,63,0,0,,2,,,74,127
24608,note_on,1,0,0,,4,,,76,127
24671,note_off,63,0,0,,4,,,76,127
24671,note_off,0,0,0,,1,,,61,127
24672,note_on,1,0,0,,2,,,62,127
24672,note_on,0,0,0,,6,,,78,127
24863,note_off,191,0,0,,6,,,78,127
24864,note_on,1,0,0,,10,,,81,127
25052,note_off,188,0,0,,2,,,62,127
25055,note_off,3,0,0,,10,,,81,127
25056,note_on,1,0,0,,10,,,81,127
25247,note_off,191,0,0,,10,,,81,127
25248,note_on,1,0,0,,6,,,54,127
25248,note_on,0,0,0,,10,,,81,127
25439,note_off,191,0,0,,10,,,81,127
25439,note_off,0,0,0,,6,,,54,127
25440,note_on,1,0,0,,7,,,55,127
25440,note_on,0,0,0,,2,,,74,127
25631,note_off,191,0,0,,2,,,74,127
25631,note_off,0,0,0,,7,,,55,127
25632,note_on,1,0,0,,7,,,55,127
25632,note_on,0,0,0,,12,,,71,127
25823,note_off,191,0,0,,12,,,71,127
25823,note_off,0,0,0,,7,,,55,127
25824,note_on,1,0,0,,10,,,57,127
25824,note_on,0,0,0,,2,,,74,127
25887,note_off,63,0,0,,2,,,74,127
25888,note_on,1,0,0,,1,,,73,127
25951,note_off,63,0,0,,1,,,73,127
25952,note_on,1,0,0,,2,,,74,127
26015,note_off,63,0,0,,2,,,74,127
26015,note_off,0,0,0,,10,,,57,127
26016,note_on,1,0,0,,10,,,57,127
26016,note_on,0,0,0,,1,,,73,127
26079,note_off,63,0,0,,1,,,73,127
26080,note_on,1,0,0,,12,,,71,127
26143,note_off,63,0,0,,12,,,71,127
26144,note_on,1,0,0,,1,,,73,127
26207,note_off,63,0,0,,1,,,73,127
26207,note_off,0,0,0,,10,,,57,127
26208,note_on,1,0,0,,2,,,74,127
26400,note_on,192,0,0,,2,,,50,127
26400,note_on,0,0,0,,2,,,86,127
26591,note_off,191,0,0,,2,,,86,127
26591,note_off,0,0,0,,2,,,50,127
26591,note_off,0,0,0,,2,,,74,127
26592,note_on,1,0,0,,4,,,52,127
26592,note_on,0,0,0,,2,,,86,127
26783,note_off,191,0,0,,2,,,86,127
26783,note_off,0,0,0,,4,,,52,127
26784,note_on,1,0,0,,6,,,54,127
26784,note_on,0,0,0,,2,,,86,127
26975,note_off,191,0,0,,2,,,86,127
26975,note_off,0,0,0,,6,,,54,127
26976,note_on,1,0,0,,7,,,55,127
26976,note_on,0,0,0,,12,,,83,127
27167,note_off,191,0,0,,12,,,83,127
27167,note_off,0,0,0,,7,,,55,127
27168,note_on,1,0,0,,10,,,57,127
27168,note_on,0,0,0,,7,,,79,127
27359,note_off,191,0,0,,7,,,79,127
27359,note_off,0,0,0,,10,,,57,127
27360,note_on,1,0,0,,12,,,59,127
27360,note_on,0,0,0,,6,,,78,127
27423,note_off,63,0,0,,6,,,78,127
27424,note_on,1,0,0,,4,,,76,127
27487,note_off,63,0,0,,4,,,76,127
27488,note_on,1,0,0,,6,,,78,127
27551,note_off,63,0,0,,6,,,78,127
27551,note_off,0,0,0,,12,,,59,127
27552,note_on,1,0,0,,1,,,61,127
27552,note_on,0,0,0,,4,,,76,127
27615,note_off,63,0,0,,4,,,76,127
27616,note_on,1,0,0,,2,,,74,127
27679,note_off,63,0,0,,2,,,74,127
27680,note_on,1,0,0,,4,,,76,127
27743,note_off,63,0,0,,4,,,76,127
27743,note_off,0,0,0,,1,,,61,127
27744,note_on,1,0,0,,2,,,62,127
27744,note_on,0,0,0,,6,,,78,127
27935,note_off,191,0,0,,6,,,78,127
27936,note_on,1,0,0,,10,,,81,127
28127,note_off,191,0,0,,10,,,81,127
28128,note_on,1,0,0,,10,,,81,127
28319,note_off,191,0,0,,10,,,81,127
28319,note_off,0,0,0,,2,,,62,127
28320,note_on,1,0,0,,6,,,54,127
28320,note_on,0,0,0,,10,,,81,127
28511,note_off,191,0,0,,10,,,81,127
28511,note_off,0,0,0,,6,,,54,127
28512,note_on,1,0,0,,7,,,55,127
28512,note_on,0,0,0,,2,,,74,127
28703,note_off,191,0,0,,2,,,74,127
28703,note_off,0,0,0,,7,,,55,127
28704,note_on,1,0,0,,7,,,55,127
28704,note_on,0,0,0,,12,,,71,127
28895,note_off,191,0,0,,12,,,71,127
28895,note_off,0,0,0,,7,,,55,127
28896,note_on,1,0,0,,10,,,57,127
28896,note_on,0,0,0,,2,,,74,127
28959,note_off,63,0,0,,2,,,74,127
28960,note_on,1,0,0,,1,,,73,127
29023,note_off,63,0,0,,1,,,73,127
29024,note_on,1,0,0,,2,,,74,127
29087,note_off,63,0,0,,2,,,74,127
29087,note_off,0,0,0,,10,,,57,127
29088,note_on,1,0,0,,10,,,57,127
29088,note_on,0,0,0,,1,,,73,127
29151,note_off,63,0,0,,1,,,73,127
29152,note_on,1,0,0,,12,,,71,127
29215,note_off,63,0,0,,12,,,71,127
29216,note_on,1,0,0,,1,,,73,127
29279,note_off,63,0,0,,1,,,73,127
29279,note_off,0,0,0,,10,,,57,127
29280,note_on,1,0,0,,2,,,62,127
29280,note_on,0,0,0,,2,,,74,127
29375,note_off,95,0,0,,2,,,62,127
29376,note_on,1,0,0,,4,,,64,127
29471,note_off,95,0,0,,4,,,64,127
29472,note_on,1,0,0,,6,,,66,127
29567,note_off,95,0,0,,6,,,66,127
29568,note_on,1,0,0,,7,,,67,127
29663,note_off,95,0,0,,7,,,67,127
29663,note_off,0,0,0,,2,,,74,127
29664,note_on,1,0,0,,7,,,67,127
29664,note_on,0,0,0,,10,,,81,127
29711,note_off,47,0,0,,7,,,67,127
29712,note_on,1,0,0,,6,,,66,127
29759,note_off,47,0,0,,6,,,66,127
29759,note_off,0,0,0,,10,,,81,127
29760,note_on,1,0,0,,7,,,67,127
29760,note_on,0,0,0,,7,,,79,127
29807,note_off,47,0,0,,7,,,67,127
29808,note_on,1,0,0,,6,,,66,127
29855,note_off,47,0,0,,6,,,66,127
29855,note_off,0,0,0,,7,,,79,127
29856,note_on,1,0,0,,7,,,67,127
29856,note_on,0,0,0,,6,,,78,127
29903,note_off,47,0,0,,7,,,67,127
29904,note_on,1,0,0,,6,,,66,127
29951,note_off,47,0,0,,6,,,66,127
29951,note_off,0,0,0,,6,,,78,127
29952,note_on,1,0,0,,7,,,67,127
29952,note_on,0,0,0,,4,,,76,127
29999,note_off,47,0,0,,7,,,67,127
30000,note_on,1,0,0,,6,,,66,127
30047,note_off,47,0,0,,6,,,66,127
30047,note_off,0,0,0,,4,,,76,127
30048,note_on,1,0,0,,2,,,62,127
30048,note_on,0,0,0,,4,,,76,127
30095,note_off,47,0,0,,4,,,76,127
30096,note_on,1,0,0,,2,,,74,127
30143,note_off,47,0,0,,2,,,74,127
30143,note_off,0,0,0,,2,,,62,127
30144,note_on,1,0,0,,4,,,64,127
30144,note_on,0,0,0,,4,,,76,127
30191,note_off,47,0,0,,4,,,76,127
30192,note_on,1,0,0,,2,,,74,127
30239,note_off,47,0,0,,2,,,74,127
30239,note_off,0,0,0,,4,,,64,127
30240,note_on,1,0,0,,6,,,66,127
30240,note_on,0,0,0,,4,,,76,127
30287,note_off,47,0,0,,4,,,76,127
30288,note_on,1,0,0,,2,,,74,127
30335,note_off,47,0,0,,2,,,74,127
30335,note_off,0,0,0,,6,,,66,127
30336,note_on,1,0,0,,7,,,67,127
30336,note_on,0,0,0,,4,,,76,127
30383,note_off,47,0,0,,4,,,76,127
30384,note_on,1,0,0,,2,,,74,127
30431,note_off,47,0,0,,2,,,74,127
30431,note_off,0,0,0,,7,,,67,127
30432,note_on,1,0,0,,7,,,67,127
30432,note_on,0,0,0,,10,,,81,127
30479,note_off,47,0,0,,7,,,67,127
30480,note_on,1,0,0,,6,,,66,127
30527,note_off,47,0,0,,6,,,66,127
30527,note_off,0,0,0,,10,,,81,127
30528,note_on,1,0,0,,7,,,67,127
30528,note_on,0,0,0,,7,,,79,127
30575,note_off,47,0,0,,7,,,67,127
30576,note_on,1,0,0,,6,,,66,127
30623,note_off,47,0,0,,6,,,66,127
30623,note_off,0,0,0,,7,,,79,127
30624,note_on,1,0,0,,7,,,67,127
30624,note_on,0,0,0,,6,,,78,127
30671,note_off,47,0,0,,7,,,67,127
30672,note_on,1,0,0,,6,,,66,127
30719,note_off,47,0,0,,6,,,66,127
30719,note_off,0,0,0,,6,,,78,127
30720,note_on,1,0,0,,7,,,67,127
30720,note_on,0,0,0,,4,,,76,127
30767,note_off,47,0,0,,7,,,67,127
30768,note_on,1,0,0,,6,,,66,127
30815,note_off,47,0,0,,6,,,66,127
30815,note_off,0,0,0,,4,,,76,127
30816,note_on,1,0,0,,2,,,62,127
30816,note_on,0,0,0,,4,,,76,127
30863,note_off,47,0,0,,4,,,76,127
30864,note_on,1,0,0,,2,,,74,127
30911,note_off,47,0,0,,2,,,74,127
30911,note_off,0,0,0,,2,,,62,127
30912,note_on,1,0,0,,4,,,64,127
30912,note_on,0,0,0,,4,,,76,127
30959,note_off,47,0,0,,4,,,76,127
30960,note_on,1,0,0,,2,,,74,127
31007,note_off,47,0,0,,2,,,74,127
31007,note_off,0,0,0,,4,,,64,127
31008,note_on,1,0,0,,6,,,66,127
31008,note_on,0,0,0,,4,,,76,127
31055,note_off,47,0,0,,4,,,76,127
31056,note_on,1,0,0,,2,,,74,127
31103,note_off,47,0,0,,2,,,74,127
31103,note_off,0,0,0,,6,,,66,127
31104,note_on,1,0,0,,7,,,67,127
31104,note_on,0,0,0,,4,,,76,127
31151,note_off,47,0,0,,4,,,76,127
31152,note_on,1,0,0,,2,,,74,127
31199,note_off,47,0,0,,2,,,74,127
31199,note_off,0,0,0,,7,,,67,127
31200,note_on,1,0,0,,6,,,66,127
31200,note_on,0,0,0,,10,,,81,127
31295,note_off,95,0,0,,10,,,81,127
31295,note_off,0,0,0,,6,,,66,127
31296,note_on,1,0,0,,4,,,64,127
31296,note_on,0,0,0,,7,,,79,127
31391,note_off,95,0,0,,7,,,79,127
31391,note_off,0,0,0,,4,,,64,127
31392,note_on,1,0,0,,2,,,62,127
31392,note_on,0,0,0,,6,,,78,127
31487,note_off,95,0,0,,6,,,78,127
31487,note_off,0,0,0,,2,,,62,127
31488,note_on,1,0,0,,1,,,61,127
31488,note_on,0,0,0,,4,,,76,127
31583,note_off,95,0,0,,4,,,76,127
31583,note_off,0,0,0,,1,,,61,127
31584,note_on,1,0,0,,12,,,59,127
31584,note_on,0,0,0,,2,,,74,127
31679,note_off,95,0,0,,2,,,74,127
31680,note_on,1,0,0,,7,,,79,127
31775,note_off,95,0,0,,7,,,79,127
31775,note_off,0,0,0,,12,,,59,127
31776,note_on,1,0,0,,7,,,55,127
31776,note_on,0,0,0,,6,,,78,127
31871,note_off,95,0,0,,6,,,78,127
31872,note_on,1,0,0,,4,,,76,127
31967,note_off,95,0,0,,4,,,76,127
31967,note_off,0,0,0,,7,,,55,127
31968,note_on,1,0,0,,10,,,57,127
31968,note_on,0,0,0,,2,,,74,127
32159,note_off,191,0,0,,2,,,74,127
32159,note_off,0,0,0,,10,,,57,127
32160,note_on,1,0,0,,10,,,57,127
32160,note_on,0,0,0,,2,,,74,127
32207,note_off,47,0,0,,2,,,74,127
32208,note_on,1,0,0,,1,,,73,127
32255,note_off,47,0,0,,1,,,73,127
32256,note_on,1,0,0,,12,,,71,127
32303,note_off,47,0,0,,12,,,71,127
32304,note_on,1,0,0,,1,,,73,127
32351,note_off,47,0,0,,1,,,73,127
32351,note_off,0,0,0,,10,,,57,127
32352,note_on,1,0,0,,2,,,62,127
32352,note_on,0,0,0,,2,,,74,127
32447,note_off,95,0,0,,2,,,62,127
32448,note_on,1,0,0,,4,,,64,127
32543,note_off,95,0,0,,4,,,64,127
32544,note_on,1,0,0,,6,,,66,127
32639,note_off,95,0,0,,6,,,66,127
32640,note_on,1,0,0,,7,,,67,127
32735,note_off,95,0,0,,7,,,67,127
32735,note_off,0,0,0,,2,,,74,127
32736,note_on,1,0,0,,7,,,67,127
32736,note_on,0,0,0,,10,,,81,127
32783,note_off,47,0,0,,7,,,67,127
32784,note_on,1,0,0,,6,,,66,127
32831,note_off,47,0,0,,6,,,66,127
32831,note_off,0,0,0,,10,,,81,127
32832,note_on,1,0,0,,7,,,67,127
32832,note_on,0,0,0,,7,,,79,127
32879,note_off,47,0,0,,7,,,67,127
32880,note_on,1,0,0,,6,,,66,127
32927,note_off,47,0,0,,6,,,66,127
32927,note_off,0,0,0,,7,,,79,127
32928,note_on,1,0,0,,7,,,67,127
32928,note_on,0,0,0,,6,,,78,127
32975,note_off,47,0,0,,7,,,67,127
32976,note_on,1,0,0,,6,,,66,127
33023,note_off,47,0,0,,6,,,66,127
33023,note_off,0,0,0,,6,,,78,127
33024,note_on,1,0,0,,7,,,67,127
33024,note_on,0,0,0,,4,,,76,127
33071,note_off,47,0,0,,7,,,67,127
33072,note_on,1,0,0,,6,,,66,127
33119,note_off,47,0,0,,6,,,66,127
33119,note_off,0,0,0,,4,,,76,127
33120,note_on,1,0,0,,2,,,62,127
33120,note_on,0,0,0,,4,,,76,127
33167,note_off,47,0,0,,4,,,76,127
33168,note_on,1,0,0,,2,,,74,127
33215,note_off,47,0,0,,2,,,74,127
33215,note_off,0,0,0,,2,,,62,127
33216,note_on,1,0,0,,4,,,64,127
33216,note_on,0,0,0,,4,,,76,127
33263,note_off,47,0,0,,4,,,76,127
33264,note_on,1,0,0,,2,,,74,127
33311,note_off,47,0,0,,2,,,74,127
33311,note_off,0,0,0,,4,,,64,127
33312,note_on,1,0,0,,6,,,66,127
33312,note_on,0,0,0,,4,,,76,127
33359,note_off,47,0,0,,4,,,76,127
33360,note_on,1,0,0,,2,,,74,127
33407,note_off,47,0,0,,2,,,74,127
33407,note_off,0,0,0,,6,,,66,127
33408,note_on,1,0,0,,7,,,67,127
33408,note_on,0,0,0,,4,,,76,127
33455,note_off,47,0,0,,4,,,76,127
33456,note_on,1,0,0,,2,,,74,127
33503,note_off,47,0,0,,2,,,74,127
33503,note_off,0,0,0,,7,,,67,127
33504,note_on,1,0,0,,7,,,67,127
33504,note_on,0,0,0,,10,,,81,127
33551,note_off,47,0,0,,7,,,67,127
33552,note_on,1,0,0,,6,,,66,127
33599,note_off,47,0,0,,6,,,66,127
33599,note_off,0,0,0,,10,,,81,127
33600,note_on,1,0,0,,7,,,67,127
33600,note_on,0,0,0,,7,,,79,127
33647,note_off,47,0,0,,7,,,67,127
33648,note_on,1,0,0,,6,,,66,127
33695,note_off,47,0,0,,6,,,66,127
33695,note_off,0,0,0,,7,,,79,127
33696,note_on,1,0,0,,7,,,67,127
33696,note_on,0,0,0,,6,,,78,127
33743,note_off,47,0,0,,7,,,67,127
33744,note_on,1,0,0,,6,,,66,127
33791,note_off,47,0,0,,6,,,66,127
33791,note_off,0,0,0,,6,,,78,127
33792,note_on,1,0,0,,7,,,67,127
33792,note_on,0,0,0,,4,,,76,127
33839,note_off,47,0,0,,7,,,67,127
33840,note_on,1,0,0,,6,,,66,127
33887,note_off,47,0,0,,6,,,66,127
33887,note_off,0,0,0,,4,,,76,127
33888,note_on,1,0,0,,2,,,62,127
33888,note_on,0,0,0,,4,,,76,127
33935,note_off,47,0,0,,4,,,76,127
33936,note_on,1,0,0,,2,,,74,127
33983,note_off,47,0,0,,2,,,74,127
33983,note_off,0,0,0,,2,,,62,127
33984,note_on,1,0,0,,4,,,64,127
33984,note_on,0,0,0,,4,,,76,127
34031,note_off,47,0,0,,4,,,76,127
34032,note_on,1,0,0,,2,,,74,127
34079,note_off,47,0,0,,2,,,74,127
34079,note_off,0,0,0,,4,,,64,127
34080,note_on,1,0,0,,6,,,66,127
34080,note_on,0,0,0,,4,,,76,127
34127,note_off,47,0,0,,4,,,76,127
34128,note_on,1,0,0,,2,,,74,127
34175,note_off,47,0,0,,2,,,74,127
34175,note_off,0,0,0,,6,,,66,127
34176,note_on,1,0,0,,7,,,67,127
34176,note_on,0,0,0,,4,,,76,127
34223,note_off,47,0,0,,4,,,76,127
34224,note_on,1,0,0,,2,,,74,127
34271,note_off,47,0,0,,2,,,74,127
34271,note_off,0,0,0,,7,,,67,127
34272,note_on,1,0,0,,6,,,66,127
34272,note_on,0,0,0,,10,,,81,127
34367,note_off,95,0,0,,10,,,81,127
34367,note_off,0,0,0,,6,,,66,127
34368,note_on,1,0,0,,4,,,64,127
34368,note_on,0,0,0,,7,,,79,127
34463,note_off,95,0,0,,7,,,79,127
34463,note_off,0,0,0,,4,,,64,127
34464,note_on,1,0,0,,2,,,62,127
34464,note_on,0,0,0,,6,,,78,127
34559,note_off,95,0,0,,6,,,78,127
34559,note_off,0,0,0,,2,,,62,127
34560,note_on,1,0,0,,1,,,61,127
34560,note_on,0,0,0,,4,,,76,127
34655,note_off,95,0,0,,4,,,76,127
34655,note_off,0,0,0,,1,,,61,127
34656,note_on,1,0,0,,12,,,59,127
34656,note_on,0,0,0,,2,,,74,127
34751,note_off,95,0,0,,2,,,74,127
34752,note_on,1,0,0,,7,,,79,127
34847,note_off,95,0,0,,7,,,79,127
34847,note_off,0,0,0,,12,,,59,127
34848,note_on,1,0,0,,7,,,55,127
34848,note_on,0,0,0,,6,,,78,127
34943,note_off,95,0,0,,6,,,78,127
34944,note_on,1,0,0,,4,,,76,127
35039,note_off,95,0,0,,4,,,76,127
35039,note_off,0,0,0,,7,,,55,127
35040,note_on,1,0,0,,10,,,57,127
35040,note_on,0,0,0,,2,,,74,127
35231,note_off,191,0,0,,2,,,74,127
35232,note_on,1,0,0,,10,,,45,127
35232,note_on,0,0,0,,1,,,73,127
35420,note_off,188,0,0,,10,,,57,127
35422,note_off,2,0,0,,10,,,45,127
35423,note_off,1,0,0,,1,,,73,127
35424,note_on,1,0,0,,2,,,74,127
35616,note_on,192,0,0,,2,,,50,127
35616,note_on,0,0,0,,2,,,86,127
35807,note_off,191,0,0,,2,,,86,127
35807,note_off,0,0,0,,2,,,50,127
35807,note_off,0,0,0,,2,,,74,127
35808,note_on,1,0,0,,4,,,52,127
35808,note_on,0,0,0,,2,,,86,127
35999,note_off,191,0,0,,2,,,86,127
35999,note_off,0,0,0,,4,,,52,127
36000,note_on,1,0,0,,6,,,54,127
36000,note_on,0,0,0,,2,,,86,127
36191,note_off,191,0,0,,2,,,86,127
36191,note_off,0,0,0,,6,,,54,127
36192,note_on,1,0,0,,7,,,55,127
36192,note_on,0,0,0,,11,,,82,127
36287,note_off,95,0,0,,11,,,82,127
36288,note_on,1,0,0,,12,,,83,127
36383,note_off,95,0,0,,12,,,83,127
36383,note_off,0,0,0,,7,,,55,127
36384,note_on,1,0,0,,10,,,57,127
36384,note_on,0,0,0,,6,,,78,127
36575,note_off,191,0,0,,6,,,78,127
36575,note_off,0,0,0,,10,,,57,127
36576,note_on,1,0,0,,12,,,59,127
36576,note_on,0,0,0,,7,,,79,127
36671,note_off,95,0,0,,7,,,79,127
36672,note_on,1,0,0,,10,,,81,127
36767,note_off,95,0,0,,10,,,81,127
36767,note_off,0,0,0,,12,,,59,127
36768,note_on,1,0,0,,1,,,61,127
36768,note_on,0,0,0,,4,,,76,127
36959,note_off,191,0,0,,4,,,76,127
36959,note_off,0,0,0,,1,,,61,127
36960,note_on,1,0,0,,2,,,62,127
36960,note_on,0,0,0,,6,,,78,127
37055,note_off,95,0,0,,6,,,78,127
37056,note_on,1,0,0,,7,,,79,127
37151,note_off,95,0,0,,7,,,79,127
37151,note_off,0,0,0,,2,,,62,127
37152,note_on,1,0,0,,4,,,64,127
37152,note_on,0,0,0,,1,,,73,127
37343,note_off,191,0,0,,1,,,73,127
37343,note_off,0,0,0,,4,,,64,127
37344,note_on,1,0,0,,6,,,66,127
37344,note_on,0,0,0,,2,,,74,127
37535,note_off,191,0,0,,2,,,74,127
37535,note_off,0,0,0,,6,,,66,127
37536,note_on,1,0,0,,6,,,66,127
37536,note_on,0,0,0,,10,,,69,127
37727,note_off,191,0,0,,10,,,69,127
37727,note_off,0,0,0,,6,,,66,127
37728,note_on,1,0,0,,7,,,67,127
37728,note_on,0,0,0,,12,,,71,127
37823,note_off,95,0,0,,12,,,71,127
37824,note_on,1,0,0,,7,,,79,127
37919,note_off,95,0,0,,7,,,79,127
37920,note_on,1,0,0,,7,,,55,127
37920,note_on,0,0,0,,6,,,78,127
38015,note_off,95,0,0,,6,,,78,127
38016,note_on,1,0,0,,4,,,76,127
38111,note_off,95,0,0,,4,,,76,127
38111,note_off,0,0,0,,7,,,55,127
38111,note_off,0,0,0,,7,,,67,127
38112,note_on,1,0,0,,10,,,57,127
38112,note_on,0,0,0,,2,,,74,127
38303,note_off,191,0,0,,2,,,74,127
38303,note_off,0,0,0,,10,,,57,127
38304,note_on,1,0,0,,10,,,57,127
38304,note_on,0,0,0,,1,,,73,127
38367,note_off,63,0,0,,1,,,73,127
38368,note_on,1,0,0,,2,,,74,127
38431,note_off,63,0,0,,2,,,74,127
38432,note_on,1,0,0,,1,,,73,127
38495,note_off,63,0,0,,1,,,73,127
38495,note_off,0,0,0,,10,,,57,127
38496,note_on,1,0,0,,2,,,74,127
38688,note_on,192,0,0,,2,,,50,127
38688,note_on,0,0,0,,2,,,86,127
38879,note_off,191,0,0,,2,,,86,127
38879,note_off,0,0,0,,2,,,50,127
38879,note_off,0,0,0,,2,,,74,127
38880,note_on,1,0,0,,4,,,52,127
38880,note_on,0,0,0,,2,,,86,127
39071,note_off,191,0,0,,2,,,86,127
39071,note_off,0,0,0,,4,,,52,127
39072,note_on,1,0,0,,6,,,54,127
39072,note_on,0,0,0,,2,,,86,127
39263,note_off,191,0,0,,2,,,86,127
39263,note_off,0,0,0,,6,,,54,127
39264,note_on,1,0,0,,7,,,55,127
39264,note_on,0,0,0,,11,,,82,127
39359,note_off,95,0,0,,11,,,82,127
39360,note_on,1,0,0,,12,,,83,127
39455,note_off,95,0,0,,12,,,83,127
39455,note_off,0,0,0,,7,,,55,127
39456,note_on,1,0,0,,10,,,57,127
39456,note_on,0,0,0,,6,,,78,127
39647,note_off,191,0,0,,6,,,78,127
39647,note_off,0,0,0,,10,,,57,127
39648,note_on,1,0,0,,12,,,59,127
39648,note_on,0,0,0,,7,,,79,127
39743,note_off,95,0,0,,7,,,79,127
39744,note_on,1,0,0,,10,,,81,127
39839,note_off,95,0,0,,10,,,81,127
39839,note_off,0,0,0,,12,,,59,127
39840,note_on,1,0,0,,1,,,61,127
39840,note_on,0,0,0,,4,,,76,127
40031,note_off,191,0,0,,4,,,76,127
40031,note_off,0,0,0,,1,,,61,127
40032,note_on,1,0,0,,2,,,62,127
40032,note_on,0,0,0,,6,,,78,127
40127,note_off,95,0,0,,6,,,78,127
40128,note_on,1,0,0,,7,,,79,127
40223,note_off,95,0,0,,7,,,79,127
40223,note_off,0,0,0,,2,,,62,127
40224,note_on,1,0,0,,4,,,64,127
40224,note_on,0,0,0,,1,,,73,127
40415,note_off,191,0,0,,1,,,73,127
40415,note_off,0,0,0,,4,,,64,127
40416,note_on,1,0,0,,6,,,66,127
40416,note_on,0,0,0,,2,,,74,127
40607,note_off,191,0,0,,2,,,74,127
40607,note_off,0,0,0,,6,,,66,127
40608,note_on,1,0,0,,6,,,66,127
40608,note_on,0,0,0,,10,,,69,127
40799,note_off,191,0,0,,10,,,69,127
40799,note_off,0,0,0,,6,,,66,127
40800,note_on,1,0,0,,7,,,67,127
40800,note_on,0,0,0,,12,,,71,127
40895,note_off,95,0,0,,12,,,71,127
40896,note_on,1,0,0,,7,,,79,127
40991,note_off,95,0,0,,7,,,79,127
40992,note_on,1,0,0,,7,,,55,127
40992,note_on,0,0,0,,6,,,78,127
41087,note_off,95,0,0,,6,,,78,127
41088,note_on,1,0,0,,4,,,76,127
41183,note_off,95,0,0,,4,,,76,127
41183,note_off,0,0,0,,7,,,55,127
41183,note_off,0,0,0,,7,,,67,127
41184,note_on,1,0,0,,10,,,57,127
41184,note_on,0,0,0,,2,,,74,127
41375,note_off,191,0,0,,2,,,74,127
41376,note_on,1,0,0,,10,,,45,127
41376,note_on,0,0,0,,1,,,73,127
41439,note_off,63,0,0,,1,,,73,127
41440,note_on,1,0,0,,2,,,74,127
41503,note_off,63,0,0,,2,,,74,127
41504,note_on,1,0,0,,1,,,73,127
41564,note_off,60,0,0,,10,,,57,127
41567,note_off,3,0,0,,1,,,73,127
41567,note_off,0,0,0,,10,,,45,127
41568,note_on,1,0,0,,2,,,74,127
41759,note_off,191,0,0,,2,,,74,127
41760,note_on,1,0,0,,2,,,50,127
41760,note_on,0,0,0,,10,,,81,127
41951,note_off,191,0,0,,10,,,81,127
41951,note_off,0,0,0,,2,,,50,127
41952,note_on,1,0,0,,4,,,52,127
41952,note_on,0,0,0,,12,,,83,127
41952,note_on,0,0,0,,10,,,81,127
42047,note_off,95,0,0,,10,,,81,127
42047,note_off,0,0,0,,12,,,83,127
42048,note_on,1,0,0,,7,,,79,127
42143,note_off,95,0,0,,7,,,79,127
42143,note_off,0,0,0,,4,,,52,127
42144,note_on,1,0,0,,6,,,54,127
42144,note_on,0,0,0,,6,,,78,127
42335,note_off,191,0,0,,6,,,54,127
42336,note_on,1,0,0,,7,,,55,127
42494,note_off,158,0,0,,6,,,78,127
42527,note_off,33,0,0,,7,,,55,127
42528,note_on,1,0,0,,10,,,57,127
42528,note_on,0,0,0,,7,,,79,127
42719,note_off,191,0,0,,7,,,79,127
42719,note_off,0,0,0,,10,,,57,127
42720,note_on,1,0,0,,12,,,59,127
42720,note_on,0,0,0,,10,,,81,127
42720,note_on,0,0,0,,7,,,79,127
42815,note_off,95,0,0,,7,,,79,127
42815,note_off,0,0,0,,10,,,81,127
42816,note_on,1,0,0,,6,,,78,127
42911,note_off,95,0,0,,6,,,78,127
42911,note_off,0,0,0,,12,,,59,127
42912,note_on,1,0,0,,1,,,61,127
42912,note_on,0,0,0,,4,,,76,127
43103,note_off,191,0,0,,1,,,61,127
43104,note_on,1,0,0,,2,,,62,127
43262,note_off,158,0,0,,4,,,76,127
43295,note_off,33,0,0,,2,,,62,127
43296,note_on,1,0,0,,4,,,64,127
43296,note_on,0,0,0,,6,,,78,127
43487,note_off,191,0,0,,6,,,78,127
43487,note_off,0,0,0,,4,,,64,127
43488,note_on,1,0,0,,6,,,66,127
43488,note_on,0,0,0,,7,,,79,127
43488,note_on,0,0,0,,6,,,78,127
43583,note_off,95,0,0,,6,,,78,127
43583,note_off,0,0,0,,7,,,79,127
43584,note_on,1,0,0,,4,,,76,127
43679,note_off,95,0,0,,4,,,76,127
43680,note_on,1,0,0,,6,,,54,127
43680,note_on,0,0,0,,2,,,74,127
43868,note_off,188,0,0,,6,,,66,127
43871,note_off,3,0,0,,6,,,54,127
43872,note_on,1,0,0,,7,,,55,127
44063,note_off,191,0,0,,7,,,55,127
44063,note_off,0,0,0,,2,,,74,127
44064,note_on,1,0,0,,7,,,55,127
44064,note_on,0,0,0,,12,,,71,127
44255,note_off,191,0,0,,12,,,71,127
44255,note_off,0,0,0,,7,,,55,127
44256,note_on,1,0,0,,10,,,57,127
44256,note_on,0,0,0,,2,,,74,127
44319,note_off,63,0,0,,2,,,74,127
44320,note_on,1,0,0,,1,,,73,127
44383,note_off,63,0,0,,1,,,73,127
44384,note_on,1,0,0,,2,,,74,127
44447,note_off,63,0,0,,2,,,74,127
44448,note_on,1,0,0,,10,,,45,127
44448,note_on,0,0,0,,1,,,73,127
44511,note_off,63,0,0,,1,,,73,127
44512,note_on,1,0,0,,12,,,71,127
44575,note_off,63,0,0,,12,,,71,127
44576,note_on,1,0,0,,1,,,73,127
44636,note_off,60,0,0,,10,,,57,127
44639,note_off,3,0,0,,1,,,73,127
44639,note_off,0,0,0,,10,,,45,127
44640,note_on,1,0,0,,2,,,74,127
44831,note_off,191,0,0,,2,,,74,127
44832,note_on,1,0,0,,2,,,50,127
44832,note_on,0,0,0,,10,,,81,127
45023,note_off,191,0,0,,10,,,81,127
45023,note_off,0,0,0,,2,,,50,127
45024,note_on,1,0,0,,4,,,52,127
45024,note_on,0,0,0,,12,,,83,127
45024,note_on,0,0,0,,10,,,81,127
45119,note_off,95,0,0,,10,,,81,127
45119,note_off,0,0,0,,12,,,83,127
45120,note_on,1,0,0,,7,,,79,127
45215,note_off,95,0,0,,7,,,79,127
45215,note_off,0,0,0,,4,,,52,127
45216,note_on,1,0,0,,6,,,54,127
45216,note_on,0,0,0,,6,,,78,127
45407,note_off,191,0,0,,6,,,54,127
45408,note_on,1,0,0,,7,,,55,127
45504,note_off,96,0,0,,6,,,78,127
45599,note_off,95,0,0,,7,,,55,127
45600,note_on,1,0,0,,10,,,57,127
45600,note_on,0,0,0,,7,,,79,127
45791,note_off,191,0,0,,7,,,79,127
45791,note_off,0,0,0,,10,,,57,127
45792,note_on,1,0,0,,12,,,59,127
45792,note_on,0,0,0,,10,,,81,127
45792,note_on,0,0,0,,7,,,79,127
45887,note_off,95,0,0,,7,,,79,127
45887,note_off,0,0,0,,10,,,81,127
45888,note_on,1,0,0,,6,,,78,127
45983,note_off,95,0,0,,6,,,78,127
45983,note_off,0,0,0,,12,,,59,127
45984,note_on,1,0,0,,1,,,61,127
45984,note_on,0,0,0,,4,,,76,127
46175,note_off,191,0,0,,1,,,61,127
46176,note_on,1,0,0,,2,,,62,127
46272,note_off,96,0,0,,4,,,76,127
46367,note_off,95,0,0,,2,,,62,127
46368,note_on,1,0,0,,4,,,64,127
46368,note_on,0,0,0,,6,,,78,127
46559,note_off,191,0,0,,6,,,78,127
46559,note_off,0,0,0,,4,,,64,127
46560,note_on,1,0,0,,6,,,66,127
46560,note_on,0,0,0,,7,,,79,127
46560,note_on,0,0,0,,6,,,78,127
46655,note_off,95,0,0,,6,,,78,127
46655,note_off,0,0,0,,7,,,79,127
46656,note_on,1,0,0,,4,,,76,127
46751,note_off,95,0,0,,4,,,76,127
46752,note_on,1,0,0,,6,,,54,127
46752,note_on,0,0,0,,2,,,74,127
46940,note_off,188,0,0,,6,,,66,127
46943,note_off,3,0,0,,6,,,54,127
46944,note_on,1,0,0,,7,,,55,127
47135,note_off,191,0,0,,7,,,55,127
47135,note_off,0,0,0,,2,,,74,127
47136,note_on,1,0,0,,7,,,55,127
47136,note_on,0,0,0,,12,,,71,127
47327,note_off,191,0,0,,12,,,71,127
47327,note_off,0,0,0,,7,,,55,127
47328,note_on,1,0,0,,10,,,57,127
47328,note_on,0,0,0,,6,,,78,127
47391,note_off,63,0,0,,6,,,78,127
47392,note_on,1,0,0,,4,,,76,127
47455,note_off,63,0,0,,4,,,76,127
47456,note_on,1,0,0,,6,,,78,127
47519,note_off,63,0,0,,6,,,78,127
47519,note_off,0,0,0,,10,,,57,127
47520,note_on,1,0,0,,7,,,55,127
47520,note_on,0,0,0,,4,,,76,127
47583,note_off,63,0,0,,4,,,76,127
47584,note_on,1,0,0,,2,,,74,127
47647,note_off,63,0,0,,2,,,74,127
47648,note_on,1,0,0,,4,,,76,127
47711,note_off,63,0,0,,4,,,76,127
47711,note_off,0,0,0,,7,,,55,127
47712,note_on,1,0,0,,6,,,54,127
47712,note_on,0,0,0,,2,,,74,127
47903,note_off,191,0,0,,2,,,74,127
47903,note_off,0,0,0,,6,,,54,127
47904,note_on,1,0,0,,7,,,55,127
47904,note_on,0,0,0,,12,,,71,127
48095,note_off,191,0,0,,12,,,71,127
48095,note_off,0,0,0,,7,,,55,127
48096,note_on,1,0,0,,10,,,57,127
48096,note_on,0,0,0,,6,,,78,127
48159,note_off,63,0,0,,6,,,78,127
48160,note_on,1,0,0,,4,,,76,127
48223,note_off,63,0,0,,4,,,76,127
48224,note_on,1,0,0,,6,,,78,127
48287,note_off,63,0,0,,6,,,78,127
48288,note_on,1,0,0,,10,,,45,127
48288,note_on,0,0,0,,4,,,76,127
48351,note_off,63,0,0,,4,,,76,127
48352,note_on,1,0,0,,2,,,74,127
48415,note_off,63,0,0,,2,,,74,127
48416,note_on,1,0,0,,4,,,76,127
48479,note_off,63,0,0,,4,,,76,127
48479,note_off,0,0,0,,10,,,45,127
48479,note_off,0,0,0,,10,,,57,127
48480,note_on,1,0,0,,2,,,50,127
48480,note_on,0,0,0,,2,,,74,127
49055,note_off,575,0,0,,2,,,74,127
49247,note_off,192,0,0,,2,,,50,127
49248,note_on,1,0,0,,2,,,86,127
49439,note_off,191,0,0,,2,,,86,127
49440,note_on,1,0,0,,10,,,81,127
49631,note_off,191,0,0,,10,,,81,127
49632,note_on,1,0,0,,10,,,81,127
49823,note_off,191,0,0,,10,,,81,127
49824,note_on,1,0,0,,10,,,81,127
50015,note_off,191,0,0,,10,,,81,127
50016,note_on,1,0,0,,7,,,79,127
50111,note_off,95,0,0,,7,,,79,127
50112,note_on,1,0,0,,6,,,78,127
50207,note_off,95,0,0,,6,,,78,127
50208,note_on,1,0,0,,4,,,76,127
50303,note_off,95,0,0,,4,,,76,127
50304,note_on,1,0,0,,2,,,74,127
50399,note_off,95,0,0,,2,,,74,127
50400,note_on,1,0,0,,6,,,78,127
50591,note_off,191,0,0,,6,,,78,127
50592,note_on,1,0,0,,10,,,81,127
50783,note_off,191,0,0,,10,,,81,127
50784,note_on,1,0,0,,2,,,74,127
50784,note_on,0,0,0,,6,,,78,127
50975,note_off,191,0,0,,2,,,74,127
50976,note_on,1,0,0,,10,,,69,127
51167,note_off,191,0,0,,10,,,69,127
51167,note_off,0,0,0,,6,,,78,127
51168,note_on,1,0,0,,10,,,69,127
51168,note_on,0,0,0,,6,,,78,127
51231,note_off,63,0,0,,6,,,78,127
51232,note_on,1,0,0,,4,,,76,127
51295,note_off,63,0,0,,4,,,76,127
51296,note_on,1,0,0,,6,,,78,127
51359,note_off,63,0,0,,6,,,78,127
51359,note_off,0,0,0,,10,,,69,127
51360,note_on,1,0,0,,10,,,69,127
51360,note_on,0,0,0,,4,,,76,127
51423,note_off,63,0,0,,4,,,76,127
51424,note_on,1,0,0,,2,,,74,127
51487,note_off,63,0,0,,2,,,74,127
51488,note_on,1,0,0,,4,,,76,127
51551,note_off,63,0,0,,4,,,76,127
51551,note_off,0,0,0,,10,,,69,127
51552,note_on,1,0,0,,7,,,67,127
51552,note_on,0,0,0,,2,,,74,127
51647,note_off,95,0,0,,7,,,67,127
51648,note_on,1,0,0,,6,,,66,127
51743,note_off,95,0,0,,6,,,66,127
51744,note_on,1,0,0,,4,,,64,127
51839,note_off,95,0,0,,4,,,64,127
51840,note_on,1,0,0,,2,,,62,127
51935,note_off,95,0,0,,2,,,62,127
51936,note_on,1,0,0,,6,,,66,127
52127,note_off,191,0,0,,6,,,66,127
52127,note_off,0,0,0,,2,,,74,127
52128,note_on,1,0,0,,6,,,66,127
52128,note_on,0,0,0,,2,,,74,127
52319,note_off,191,0,0,,2,,,74,127
52319,note_off,0,0,0,,6,,,66,127
52320,note_on,1,0,0,,8,,,68,127
52320,note_on,0,0,0,,2,,,74,127
52383,note_off,63,0,0,,2,,,74,127
52384,note_on,1,0,0,,4,,,76,127
52447,note_off,63,0,0,,4,,,76,127
52448,note_on,1,0,0,,5,,,77,127
52511,note_off,63,0,0,,5,,,77,127
52511,note_off,0,0,0,,8,,,68,127
52512,note_on,1,0,0,,8,,,68,127
52512,note_on,0,0,0,,4,,,76,127
52607,note_off,95,0,0,,4,,,76,127
52608,note_on,1,0,0,,2,,,74,127
52703,note_off,95,0,0,,2,,,74,127
52703,note_off,0,0,0,,8,,,68,127
52704,note_on,1,0,0,,8,,,68,127
52704,note_on,0,0,0,,1,,,73,127
52895,note_off,191,0,0,,1,,,73,127
52895,note_off,0,0,0,,8,,,68,127
52896,note_on,1,0,0,,8,,,68,127
52896,note_on,0,0,0,,12,,,71,127
53087,note_off,191,0,0,,12,,,71,127
53087,note_off,0,0,0,,8,,,68,127
53088,note_on,1,0,0,,10,,,69,127
53088,note_on,0,0,0,,12,,,71,127
53279,note_off,191,0,0,,12,,,71,127
53279,note_off,0,0,0,,10,,,69,127
53280,note_on,1,0,0,,10,,,69,127
53280,note_on,0,0,0,,1,,,73,127
53471,note_off,191,0,0,,10,,,69,127
53472,note_on,1,0,0,,10,,,69,127
53568,note_off,96,0,0,,1,,,73,127
53663,note_off,95,0,0,,10,,,69,127
53664,note_on,1,0,0,,10,,,69,127
53664,note_on,0,0,0,,4,,,76,127
53855,note_off,191,0,0,,4,,,76,127
53855,note_off,0,0,0,,10,,,69,127
53856,note_on,1,0,0,,11,,,70,127
53856,note_on,0,0,0,,4,,,76,127
53919,note_off,63,0,0,,4,,,76,127
53920,note_on,1,0,0,,5,,,77,127
53983,note_off,63,0,0,,5,,,77,127
53984,note_on,1,0,0,,7,,,79,127
54047,note_off,63,0,0,,7,,,79,127
54047,note_off,0,0,0,,11,,,70,127
54048,note_on,1,0,0,,11,,,70,127
54048,note_on,0,0,0,,5,,,77,127
54143,note_off,95,0,0,,5,,,77,127
54144,note_on,1,0,0,,4,,,76,127
54239,note_off,95,0,0,,4,,,76,127
54239,note_off,0,0,0,,11,,,70,127
54240,note_on,1,0,0,,11,,,70,127
54240,note_on,0,0,0,,2,,,74,127
54431,note_off,191,0,0,,2,,,74,127
54431,note_off,0,0,0,,11,,,70,127
54432,note_on,1,0,0,,11,,,70,127
54432,note_on,0,0,0,,1,,,73,127
54623,note_off,191,0,0,,1,,,73,127
54623,note_off,0,0,0,,11,,,70,127
54624,note_on,1,0,0,,12,,,71,127
54624,note_on,0,0,0,,1,,,73,127
54815,note_off,191,0,0,,1,,,73,127
54815,note_off,0,0,0,,12,,,71,127
54816,note_on,1,0,0,,12,,,71,127
54816,note_on,0,0,0,,2,,,74,127
55007,note_off,191,0,0,,12,,,71,127
55008,note_on,1,0,0,,12,,,71,127
55156,note_off,148,0,0,,2,,,74,127
55199,note_off,43,0,0,,12,,,71,127
55200,note_on,1,0,0,,12,,,71,127
55200,note_on,0,0,0,,2,,,74,127
55391,note_off,191,0,0,,2,,,74,127
55391,note_off,0,0,0,,12,,,71,127
55392,note_on,1,0,0,,7,,,67,127
55392,note_on,0,0,0,,4,,,64,127
55392,note_on,0,0,0,,4,,,76,127
55455,note_off,63,0,0,,4,,,76,127
55456,note_on,1,0,0,,2,,,74,127
55519,note_off,63,0,0,,2,,,74,127
55520,note_on,1,0,0,,4,,,76,127
55583,note_off,63,0,0,,4,,,76,127
55583,note_off,0,0,0,,4,,,64,127
55583,note_off,0,0,0,,7,,,67,127
55584,note_on,1,0,0,,4,,,64,127
55584,note_on,0,0,0,,7,,,67,127
55584,note_on,0,0,0,,2,,,74,127
55647,note_off,63,0,0,,2,,,74,127
55648,note_on,1,0,0,,1,,,73,127
55711,note_off,63,0,0,,1,,,73,127
55712,note_on,1,0,0,,2,,,74,127
55775,note_off,63,0,0,,2,,,74,127
55775,note_off,0,0,0,,7,,,67,127
55775,note_off,0,0,0,,4,,,64,127
55776,note_on,1,0,0,,4,,,64,127
55776,note_on,0,0,0,,7,,,67,127
55776,note_on,0,0,0,,4,,,76,127
55967,note_off,191,0,0,,4,,,76,127
55967,note_off,0,0,0,,7,,,67,127
55967,note_off,0,0,0,,4,,,64,127
55968,note_on,1,0,0,,4,,,64,127
55968,note_on,0,0,0,,7,,,67,127
55968,note_on,0,0,0,,11,,,70,127
56159,note_off,191,0,0,,11,,,70,127
56159,note_off,0,0,0,,7,,,67,127
56159,note_off,0,0,0,,4,,,64,127
56160,note_on,1,0,0,,6,,,66,127
56160,note_on,0,0,0,,2,,,62,127
56160,note_on,0,0,0,,11,,,70,127
56351,note_off,191,0,0,,11,,,70,127
56351,note_off,0,0,0,,2,,,62,127
56351,note_off,0,0,0,,6,,,66,127
56352,note_on,1,0,0,,6,,,66,127
56352,note_on,0,0,0,,2,,,62,127
56352,note_on,0,0,0,,12,,,71,127
56543,note_off,191,0,0,,2,,,62,127
56543,note_off,0,0,0,,6,,,66,127
56544,note_on,1,0,0,,6,,,66,127
56544,note_on,0,0,0,,2,,,62,127
56735,note_off,191,0,0,,2,,,62,127
56735,note_off,0,0,0,,6,,,66,127
56735,note_off,0,0,0,,12,,,71,127
56736,note_on,1,0,0,,6,,,66,127
56736,note_on,0,0,0,,2,,,62,127
56736,note_on,0,0,0,,2,,,74,127
56927,note_off,191,0,0,,2,,,74,127
56927,note_off,0,0,0,,2,,,62,127
56927,note_off,0,0,0,,6,,,66,127
56928,note_on,1,0,0,,4,,,64,127
56928,note_on,0,0,0,,7,,,67,127
56928,note_on,0,0,0,,4,,,76,127
56991,note_off,63,0,0,,4,,,76,127
56992,note_on,1,0,0,,2,,,74,127
57055,note_off,63,0,0,,2,,,74,127
57056,note_on,1,0,0,,4,,,76,127
57119,note_off,63,0,0,,4,,,76,127
57119,note_off,0,0,0,,7,,,67,127
57119,note_off,0,0,0,,4,,,64,127
57120,note_on,1,0,0,,4,,,64,127
57120,note_on,0,0,0,,7,,,67,127
57120,note_on,0,0,0,,2,,,74,127
57183,note_off,63,0,0,,2,,,74,127
57184,note_on,1,0,0,,1,,,73,127
57247,note_off,63,0,0,,1,,,73,127
57248,note_on,1,0,0,,2,,,74,127
57311,note_off,63,0,0,,2,,,74,127
57311,note_off,0,0,0,,7,,,67,127
57311,note_off,0,0,0,,4,,,64,127
57312,note_on,1,0,0,,4,,,64,127
57312,note_on,0,0,0,,7,,,67,127
57312,note_on,0,0,0,,4,,,76,127
57503,note_off,191,0,0,,4,,,76,127
57503,note_off,0,0,0,,7,,,67,127
57503,note_off,0,0,0,,4,,,64,127
57504,note_on,1,0,0,,4,,,64,127
57504,note_on,0,0,0,,7,,,67,127
57504,note_on,0,0,0,,11,,,70,127
57695,note_off,191,0,0,,11,,,70,127
57695,note_off,0,0,0,,7,,,67,127
57695,note_off,0,0,0,,4,,,64,127
57696,note_on,1,0,0,,6,,,66,127
57696,note_on,0,0,0,,2,,,62,127
57696,note_on,0,0,0,,11,,,70,127
57887,note_off,191,0,0,,11,,,70,127
57887,note_off,0,0,0,,2,,,62,127
57887,note_off,0,0,0,,6,,,66,127
57888,note_on,1,0,0,,6,,,66,127
57888,note_on,0,0,0,,2,,,62,127
57888,note_on,0,0,0,,12,,,71,127
58079,note_off,191,0,0,,12,,,71,127
58079,note_off,0,0,0,,2,,,62,127
58079,note_off,0,0,0,,6,,,66,127
58080,note_on,1,0,0,,6,,,66,127
58080,note_on,0,0,0,,2,,,62,127
58271,note_off,191,0,0,,2,,,62,127
58271,note_off,0,0,0,,6,,,66,127
58272,note_on,1,0,0,,6,,,66,127
58272,note_on,0,0,0,,2,,,62,127
58272,note_on,0,0,0,,7,,,79,127
58463,note_off,191,0,0,,7,,,79,127
58463,note_off,0,0,0,,2,,,62,127
58463,note_off,0,0,0,,6,,,66,127
58464,note_on,1,0,0,,4,,,64,127
58464,note_on,0,0,0,,0,,,60,127
58464,note_on,0,0,0,,10,,,81,127
58527,note_off,63,0,0,,10,,,81,127
58528,note_on,1,0,0,,7,,,79,127
58591,note_off,63,0,0,,7,,,79,127
58592,note_on,1,0,0,,10,,,81,127
58655,note_off,63,0,0,,10,,,81,127
58655,note_off,0,0,0,,0,,,60,127
58655,note_off,0,0,0,,4,,,64,127
58656,note_on,1,0,0,,4,,,64,127
58656,note_on,0,0,0,,0,,,60,127
58656,note_on,0,0,0,,7,,,79,127
58719,note_off,63,0,0,,7,,,79,127
58720,note_on,1,0,0,,6,,,78,127
58783,note_off,63,0,0,,6,,,78,127
58784,note_on,1,0,0,,7,,,79,127
58847,note_off,63,0,0,,7,,,79,127
58847,note_off,0,0,0,,0,,,60,127
58847,note_off,0,0,0,,4,,,64,127
58848,note_on,1,0,0,,0,,,60,127
58848,note_on,0,0,0,,4,,,64,127
58848,note_on,0,0,0,,10,,,81,127
59039,note_off,191,0,0,,10,,,81,127
59039,note_off,0,0,0,,4,,,64,127
59039,note_off,0,0,0,,0,,,60,127
59040,note_on,1,0,0,,4,,,64,127
59040,note_on,0,0,0,,0,,,60,127
59040,note_on,0,0,0,,4,,,76,127
59231,note_off,191,0,0,,4,,,76,127
59231,note_off,0,0,0,,0,,,60,127
59231,note_off,0,0,0,,4,,,64,127
59232,note_on,1,0,0,,6,,,66,127
59232,note_on,0,0,0,,12,,,59,127
59232,note_on,0,0,0,,4,,,76,127
59423,note_off,191,0,0,,4,,,76,127
59423,note_off,0,0,0,,12,,,59,127
59423,note_off,0,0,0,,6,,,66,127
59424,note_on,1,0,0,,6,,,66,127
59424,note_on,0,0,0,,12,,,59,127
59424,note_on,0,0,0,,3,,,75,127
59615,note_off,191,0,0,,12,,,59,127
59615,note_off,0,0,0,,6,,,66,127
59616,note_on,1,0,0,,12,,,59,127
59616,note_on,0,0,0,,6,,,66,127
59807,note_off,191,0,0,,6,,,66,127
59807,note_off,0,0,0,,12,,,59,127
59807,note_off,0,0,0,,3,,,75,127
59808,note_on,1,0,0,,6,,,66,127
59808,note_on,0,0,0,,12,,,59,127
59808,note_on,0,0,0,,7,,,79,127
59999,note_off,191,0,0,,7,,,79,127
59999,note_off,0,0,0,,12,,,59,127
59999,note_off,0,0,0,,6,,,66,127
60000,note_on,1,0,0,,4,,,64,127
60000,note_on,0,0,0,,0,,,60,127
60000,note_on,0,0,0,,10,,,81,127
60063,note_off,63,0,0,,10,,,81,127
60064,note_on,1,0,0,,7,,,79,127
60127,note_off,63,0,0,,7,,,79,127
60128,note_on,1,0,0,,10,,,81,127
60191,note_off,63,0,0,,10,,,81,127
60191,note_off,0,0,0,,0,,,60,127
60191,note_off,0,0,0,,4,,,64,127
60192,note_on,1,0,0,,4,,,64,127
60192,note_on,0,0,0,,0,,,60,127
60192,note_on,0,0,0,,7,,,79,127
60255,note_off,63,0,0,,7,,,79,127
60256,note_on,1,0,0,,6,,,78,127
60319,note_off,63,0,0,,6,,,78,127
60320,note_on,1,0,0,,7,,,79,127
60383,note_off,63,0,0,,7,,,79,127
60383,note_off,0,0,0,,0,,,60,127
60383,note_off,0,0,0,,4,,,64,127
60384,note_on,1,0,0,,4,,,64,127
60384,note_on,0,0,0,,0,,,60,127
60384,note_on,0,0,0,,10,,,81,127
60575,note_off,191,0,0,,10,,,81,127
60575,note_off,0,0,0,,0,,,60,127
60575,note_off,0,0,0,,4,,,64,127
60576,note_on,1,0,0,,4,,,64,127
60576,note_on,0,0,0,,0,,,60,127
60576,note_on,0,0,0,,4,,,76,127
60767,note_off,191,0,0,,4,,,76,127
60767,note_off,0,0,0,,0,,,60,127
60767,note_off,0,0,0,,4,,,64,127
60768,note_on,1,0,0,,12,,,59,127
60768,note_on,0,0,0,,6,,,66,127
60768,note_on,0,0,0,,4,,,76,127
60959,note_off,191,0,0,,4,,,76,127
60959,note_off,0,0,0,,6,,,66,127
60959,note_off,0,0,0,,12,,,59,127
60960,note_on,1,0,0,,6,,,66,127
60960,note_on,0,0,0,,12,,,59,127
60960,note_on,0,0,0,,3,,,75,127
61150,note_off,190,0,0,,3,,,75,127
61151,note_off,1,0,0,,12,,,59,127
61151,note_off,0,0,0,,6,,,66,127
61152,note_on,1,0,0,,12,,,59,127
61152,note_on,0,0,0,,6,,,66,127
61343,note_off,191,0,0,,6,,,66,127
61343,note_off,0,0,0,,12,,,59,127
61344,note_on,1,0,0,,6,,,66,127
61344,note_on,0,0,0,,12,,,59,127
61344,note_on,0,0,0,,2,,,74,127
61535,note_off,191,0,0,,2,,,74,127
61535,note_off,0,0,0,,12,,,59,127
61535,note_off,0,0,0,,6,,,66,127
61536,note_on,1,0,0,,10,,,57,127
61536,note_on,0,0,0,,4,,,64,127
61536,note_on,0,0,0,,10,,,81,127
61599,note_off,63,0,0,,10,,,81,127
61600,note_on,1,0,0,,12,,,83,127
61663,note_off,63,0,0,,12,,,83,127
61664,note_on,1,0,0,,0,,,84,127
61727,note_off,63,0,0,,0,,,84,127
61728,note_on,1,0,0,,12,,,83,127
61823,note_off,95,0,0,,12,,,83,127
61824,note_on,1,0,0,,10,,,81,127
61916,note_off,92,0,0,,4,,,64,127
61916,note_off,0,0,0,,10,,,57,127
61919,note_off,3,0,0,,10,,,81,127
61920,note_on,1,0,0,,4,,,64,127
61920,note_on,0,0,0,,12,,,59,127
61920,note_on,0,0,0,,7,,,79,127
61983,note_off,63,0,0,,7,,,79,127
61984,note_on,1,0,0,,10,,,81,127
62047,note_off,63,0,0,,10,,,81,127
62048,note_on,1,0,0,,7,,,79,127
62111,note_off,63,0,0,,7,,,79,127
62112,note_on,1,0,0,,6,,,78,127
62303,note_off,191,0,0,,6,,,78,127
62303,note_off,0,0,0,,12,,,59,127
62303,note_off,0,0,0,,4,,,64,127
62304,note_on,1,0,0,,0,,,60,127
62304,note_on,0,0,0,,4,,,64,127
62304,note_on,0,0,0,,4,,,76,127
62495,note_off,191,0,0,,4,,,76,127
62496,note_on,1,0,0,,4,,,76,127
62687,note_off,191,0,0,,4,,,76,127
62687,note_off,0,0,0,,4,,,64,127
62687,note_off,0,0,0,,0,,,60,127
62688,note_on,1,0,0,,4,,,64,127
62688,note_on,0,0,0,,7,,,55,127
62688,note_on,0,0,0,,4,,,76,127
62879,note_off,191,0,0,,4,,,76,127
62880,note_on,1,0,0,,4,,,76,127
63071,note_off,191,0,0,,4,,,76,127
63071,note_off,0,0,0,,7,,,55,127
63071,note_off,0,0,0,,4,,,64,127
63072,note_on,1,0,0,,10,,,57,127
63072,note_on,0,0,0,,4,,,64,127
63072,note_on,0,0,0,,2,,,86,127
63167,note_off,95,0,0,,2,,,86,127
63168,note_on,1,0,0,,0,,,84,127
63263,note_off,95,0,0,,0,,,84,127
63264,note_on,1,0,0,,12,,,83,127
63359,note_off,95,0,0,,12,,,83,127
63360,note_on,1,0,0,,10,,,81,127
63455,note_off,95,0,0,,10,,,81,127
63455,note_off,0,0,0,,4,,,64,127
63455,note_off,0,0,0,,10,,,57,127
63456,note_on,1,0,0,,3,,,63,127
63456,note_on,0,0,0,,12,,,59,127
63456,note_on,0,0,0,,7,,,79,127
63519,note_off,63,0,0,,7,,,79,127
63520,note_on,1,0,0,,10,,,81,127
63583,note_off,63,0,0,,10,,,81,127
63584,note_on,1,0,0,,7,,,79,127
63647,note_off,63,0,0,,7,,,79,127
63648,note_on,1,0,0,,6,,,78,127
63839,note_off,191,0,0,,6,,,78,127
63839,note_off,0,0,0,,12,,,59,127
63839,note_off,0,0,0,,3,,,63,127
63840,note_on,1,0,0,,4,,,52,127
63840,note_on,0,0,0,,4,,,64,127
63840,note_on,0,0,0,,7,,,79,127
64031,note_off,191,0,0,,7,,,79,127
64032,note_on,1,0,0,,4,,,76,127
64223,note_off,191,0,0,,4,,,76,127
64224,note_on,1,0,0,,4,,,76,127
64415,note_off,191,0,0,,4,,,76,127
64415,note_off,0,0,0,,4,,,64,127
64415,note_off,0,0,0,,4,,,52,127
64416,note_on,1,0,0,,7,,,79,127
64607,note_off,191,0,0,,7,,,79,127
64608,note_on,1,0,0,,2,,,62,127
64608,note_on,0,0,0,,7,,,55,127
64608,note_on,0,0,0,,0,,,84,127
64703,note_off,95,0,0,,0,,,84,127
64704,note_on,1,0,0,,11,,,82,127
64799,note_off,95,0,0,,11,,,82,127
64800,note_on,1,0,0,,10,,,81,127
64895,note_off,95,0,0,,10,,,81,127
64896,note_on,1,0,0,,7,,,79,127
64991,note_off,95,0,0,,7,,,79,127
64991,note_off,0,0,0,,7,,,55,127
64991,note_off,0,0,0,,2,,,62,127
64992,note_on,1,0,0,,10,,,57,127
64992,note_on,0,0,0,,2,,,62,127
64992,note_on,0,0,0,,5,,,77,127
65055,note_off,63,0,0,,5,,,77,127
65056,note_on,1,0,0,,7,,,79,127
65119,note_off,63,0,0,,7,,,79,127
65120,note_on,1,0,0,,5,,,77,127
65183,note_off,63,0,0,,5,,,77,127
65184,note_on,1,0,0,,4,,,76,127
65375,note_off,191,0,0,,4,,,76,127
65375,note_off,0,0,0,,2,,,62,127
65375,note_off,0,0,0,,10,,,57,127
65376,note_on,1,0,0,,11,,,58,127
65376,note_on,0,0,0,,2,,,62,127
65376,note_on,0,0,0,,2,,,74,127
65567,note_off,191,0,0,,2,,,74,127
65568,note_on,1,0,0,,2,,,74,127
65759,note_off,191,0,0,,2,,,74,127
65759,note_off,0,0,0,,2,,,62,127
65759,note_off,0,0,0,,11,,,58,127
65760,note_on,1,0,0,,5,,,53,127
65760,note_on,0,0,0,,2,,,62,127
65760,note_on,0,0,0,,2,,,74,127
65951,note_off,191,0,0,,2,,,74,127
65952,note_on,1,0,0,,2,,,74,127
66143,note_off,191,0,0,,2,,,74,127
66143,note_off,0,0,0,,2,,,62,127
66143,note_off,0,0,0,,5,,,53,127
66144,note_on,1,0,0,,7,,,55,127
66144,note_on,0,0,0,,2,,,62,127
66144,note_on,0,0,0,,0,,,84,127
66239,note_off,95,0,0,,0,,,84,127
66240,note_on,1,0,0,,11,,,82,127
66335,note_off,95,0,0,,11,,,82,127
66336,note_on,1,0,0,,10,,,81,127
66431,note_off,95,0,0,,10,,,81,127
66432,note_on,1,0,0,,7,,,79,127
66527,note_off,95,0,0,,7,,,79,127
66527,note_off,0,0,0,,2,,,62,127
66527,note_off,0,0,0,,7,,,55,127
66528,note_on,1,0,0,,1,,,61,127
66528,note_on,0,0,0,,10,,,57,127
66528,note_on,0,0,0,,5,,,77,127
66591,note_off,63,0,0,,5,,,77,127
66592,note_on,1,0,0,,7,,,79,127
66655,note_off,63,0,0,,7,,,79,127
66656,note_on,1,0,0,,5,,,77,127
66719,note_off,63,0,0,,5,,,77,127
66720,note_on,1,0,0,,4,,,76,127
66911,note_off,191,0,0,,4,,,76,127
66911,note_off,0,0,0,,10,,,57,127
66911,note_off,0,0,0,,1,,,61,127
66912,note_on,1,0,0,,2,,,50,127
66912,note_on,0,0,0,,2,,,62,127
66912,note_on,0,0,0,,2,,,74,127
67103,note_off,191,0,0,,2,,,74,127
67104,note_on,1,0,0,,2,,,74,127
67295,note_off,191,0,0,,2,,,74,127
67296,note_on,1,0,0,,2,,,74,127
67487,note_off,191,0,0,,2,,,74,127
67487,note_off,0,0,0,,2,,,62,127
67487,note_off,0,0,0,,2,,,50,127
67488,note_on,1,0,0,,5,,,77,127
67679,note_off,191,0,0,,5,,,77,127
67680,note_on,1,0,0,,5,,,53,127
67680,note_on,0,0,0,,0,,,60,127
67680,note_on,0,0,0,,11,,,82,127
67775,note_off,95,0,0,,11,,,82,127
67776,note_on,1,0,0,,8,,,80,127
67871,note_off,95,0,0,,8,,,80,127
67872,note_on,1,0,0,,7,,,79,127
67967,note_off,95,0,0,,7,,,79,127
67968,note_on,1,0,0,,5,,,77,127
68063,note_off,95,0,0,,5,,,77,127
68063,note_off,0,0,0,,0,,,60,127
68063,note_off,0,0,0,,5,,,53,127
68064,note_on,1,0,0,,7,,,55,127
68064,note_on,0,0,0,,0,,,60,127
68064,note_on,0,0,0,,3,,,75,127
68127,note_off,63,0,0,,3,,,75,127
68128,note_on,1,0,0,,5,,,77,127
68191,note_off,63,0,0,,5,,,77,127
68192,note_on,1,0,0,,3,,,75,127
68255,note_off,63,0,0,,3,,,75,127
68256,note_on,1,0,0,,2,,,74,127
68447,note_off,191,0,0,,2,,,74,127
68447,note_off,0,0,0,,0,,,60,127
68447,note_off,0,0,0,,7,,,55,127
68448,note_on,1,0,0,,8,,,56,127
68448,note_on,0,0,0,,0,,,60,127
68448,note_on,0,0,0,,0,,,72,127
68639,note_off,191,0,0,,0,,,72,127
68640,note_on,1,0,0,,0,,,72,127
68831,note_off,191,0,0,,0,,,72,127
68831,note_off,0,0,0,,0,,,60,127
68831,note_off,0,0,0,,8,,,56,127
68832,note_on,1,0,0,,3,,,51,127
68832,note_on,0,0,0,,0,,,60,127
68832,note_on,0,0,0,,0,,,72,127
69023,note_off,191,0,0,,0,,,72,127
69024,note_on,1,0,0,,0,,,72,127
69215,note_off,191,0,0,,0,,,72,127
69215,note_off,0,0,0,,0,,,60,127
69215,note_off,0,0,0,,3,,,51,127
69216,note_on,1,0,0,,5,,,53,127
69216,note_on,0,0,0,,0,,,60,127
69216,note_on,0,0,0,,11,,,82,127
69311,note_off,95,0,0,,11,,,82,127
69312,note_on,1,0,0,,8,,,80,127
69407,note_off,95,0,0,,8,,,80,127
69408,note_on,1,0,0,,7,,,79,127
69503,note_off,95,0,0,,7,,,79,127
69504,note_on,1,0,0,,5,,,77,127
69599,note_off,95,0,0,,5,,,77,127
69599,note_off,0,0,0,,0,,,60,127
69599,note_off,0,0,0,,5,,,53,127
69600,note_on,1,0,0,,12,,,59,127
69600,note_on,0,0,0,,7,,,55,127
69600,note_on,0,0,0,,5,,,77,127
69695,note_off,95,0,0,,5,,,77,127
69696,note_on,1,0,0,,3,,,75,127
69791,note_off,95,0,0,,3,,,75,127
69792,note_on,1,0,0,,2,,,74,127
69983,note_off,191,0,0,,2,,,74,127
69983,note_off,0,0,0,,7,,,55,127
69983,note_off,0,0,0,,12,,,59,127
69984,note_on,1,0,0,,0,,,48,127
69984,note_on,0,0,0,,0,,,60,127
69984,note_on,0,0,0,,0,,,72,127
70175,note_off,191,0,0,,0,,,72,127
70176,note_on,1,0,0,,0,,,72,127
70367,note_off,191,0,0,,0,,,72,127
70368,note_on,1,0,0,,0,,,72,127
70559,note_off,191,0,0,,0,,,72,127
70559,note_off,0,0,0,,0,,,60,127
70559,note_off,0,0,0,,0,,,48,127
70560,note_on,1,0,0,,3,,,75,127
70751,note_off,191,0,0,,3,,,75,127
70752,note_on,1,0,0,,0,,,84,127
70943,note_off,191,0,0,,0,,,84,127
70944,note_on,1,0,0,,3,,,63,127
70944,note_on,0,0,0,,8,,,56,127
70944,note_on,0,0,0,,3,,,75,127
71135,note_off,191,0,0,,3,,,75,127
71135,note_off,0,0,0,,8,,,56,127
71135,note_off,0,0,0,,3,,,63,127
71136,note_on,1,0,0,,8,,,56,127
71136,note_on,0,0,0,,3,,,63,127
71136,note_on,0,0,0,,0,,,72,127
71327,note_off,191,0,0,,0,,,72,127
71327,note_off,0,0,0,,3,,,63,127
71327,note_off,0,0,0,,8,,,56,127
71328,note_on,1,0,0,,8,,,56,127
71328,note_on,0,0,0,,3,,,63,127
71328,note_on,0,0,0,,2,,,74,127
71519,note_off,191,0,0,,2,,,74,127
71519,note_off,0,0,0,,3,,,63,127
71519,note_off,0,0,0,,8,,,56,127
71520,note_on,1,0,0,,7,,,55,127
71520,note_on,0,0,0,,3,,,63,127
71520,note_on,0,0,0,,3,,,75,127
71615,note_off,95,0,0,,3,,,75,127
71616,note_on,1,0,0,,2,,,74,127
71711,note_off,95,0,0,,2,,,74,127
71711,note_off,0,0,0,,3,,,63,127
71711,note_off,0,0,0,,7,,,55,127
71712,note_on,1,0,0,,7,,,55,127
71712,note_on,0,0,0,,3,,,63,127
71712,note_on,0,0,0,,3,,,75,127
71807,note_off,95,0,0,,3,,,75,127
71808,note_on,1,0,0,,5,,,77,127
71903,note_off,95,0,0,,5,,,77,127
71903,note_off,0,0,0,,3,,,63,127
71903,note_off,0,0,0,,7,,,55,127
71904,note_on,1,0,0,,7,,,55,127
71904,note_on,0,0,0,,3,,,63,127
71904,note_on,0,0,0,,3,,,75,127
72095,note_off,191,0,0,,3,,,75,127
72095,note_off,0,0,0,,3,,,63,127
72095,note_off,0,0,0,,7,,,55,127
72096,note_on,1,0,0,,7,,,55,127
72096,note_on,0,0,0,,3,,,63,127
72096,note_on,0,0,0,,3,,,75,127
72287,note_off,191,0,0,,3,,,75,127
72287,note_off,0,0,0,,3,,,63,127
72287,note_off,0,0,0,,7,,,55,127
72288,note_on,1,0,0,,3,,,63,127
72288,note_on,0,0,0,,8,,,56,127
72288,note_on,0,0,0,,0,,,84,127
72479,note_off,191,0,0,,0,,,84,127
72479,note_off,0,0,0,,8,,,56,127
72479,note_off,0,0,0,,3,,,63,127
72480,note_on,1,0,0,,8,,,56,127
72480,note_on,0,0,0,,3,,,63,127
72480,note_on,0,0,0,,3,,,75,127
72671,note_off,191,0,0,,3,,,75,127
72671,note_off,0,0,0,,3,,,63,127
72671,note_off,0,0,0,,8,,,56,127
72672,note_on,1,0,0,,8,,,56,127
72672,note_on,0,0,0,,3,,,63,127
72672,note_on,0,0,0,,0,,,72,127
72863,note_off,191,0,0,,0,,,72,127
72863,note_off,0,0,0,,3,,,63,127
72863,note_off,0,0,0,,8,,,56,127
72864,note_on,1,0,0,,8,,,56,127
72864,note_on,0,0,0,,3,,,63,127
72864,note_on,0,0,0,,2,,,74,127
73055,note_off,191,0,0,,2,,,74,127
73055,note_off,0,0,0,,3,,,63,127
73055,note_off,0,0,0,,8,,,56,127
73056,note_on,1,0,0,,3,,,63,127
73056,note_on,0,0,0,,7,,,55,127
73056,note_on,0,0,0,,3,,,75,127
73151,note_off,95,0,0,,3,,,75,127
73152,note_on,1,0,0,,2,,,74,127
73247,note_off,95,0,0,,2,,,74,127
73247,note_off,0,0,0,,7,,,55,127
73247,note_off,0,0,0,,3,,,63,127
73248,note_on,1,0,0,,7,,,55,127
73248,note_on,0,0,0,,3,,,63,127
73248,note_on,0,0,0,,3,,,75,127
73343,note_off,95,0,0,,3,,,75,127
73344,note_on,1,0,0,,5,,,77,127
73439,note_off,95,0,0,,5,,,77,127
73439,note_off,0,0,0,,3,,,63,127
73439,note_off,0,0,0,,7,,,55,127
73440,note_on,1,0,0,,7,,,55,127
73440,note_on,0,0,0,,3,,,63,127
73440,note_on,0,0,0,,3,,,75,127
73631,note_off,191,0,0,,3,,,75,127
73631,note_off,0,0,0,,3,,,63,127
73631,note_off,0,0,0,,7,,,55,127
73632,note_on,1,0,0,,3,,,63,127
73632,note_on,0,0,0,,7,,,55,127
73632,note_on,0,0,0,,11,,,82,127
73823,note_off,191,0,0,,11,,,82,127
73823,note_off,0,0,0,,7,,,55,127
73823,note_off,0,0,0,,3,,,63,127
73824,note_on,1,0,0,,6,,,54,127
73824,note_on,0,0,0,,2,,,62,127
73824,note_on,0,0,0,,11,,,82,127
74015,note_off,191,0,0,,11,,,82,127
74015,note_off,0,0,0,,2,,,62,127
74015,note_off,0,0,0,,6,,,54,127
74016,note_on,1,0,0,,6,,,54,127
74016,note_on,0,0,0,,2,,,62,127
74016,note_on,0,0,0,,10,,,81,127
74207,note_off,191,0,0,,2,,,62,127
74207,note_off,0,0,0,,6,,,54,127
74208,note_on,1,0,0,,2,,,62,127
74208,note_on,0,0,0,,6,,,54,127
74208,note_on,0,0,0,,0,,,72,127
74304,note_off,96,0,0,,10,,,81,127
74399,note_off,95,0,0,,0,,,72,127
74399,note_off,0,0,0,,6,,,54,127
74399,note_off,0,0,0,,2,,,62,127
74400,note_on,1,0,0,,6,,,54,127
74400,note_on,0,0,0,,2,,,62,127
74400,note_on,0,0,0,,10,,,81,127
74591,note_off,191,0,0,,10,,,81,127
74591,note_off,0,0,0,,2,,,62,127
74591,note_off,0,0,0,,6,,,54,127
74592,note_on,1,0,0,,2,,,62,127
74592,note_on,0,0,0,,7,,,55,127
74592,note_on,0,0,0,,10,,,81,127
74783,note_off,191,0,0,,10,,,81,127
74783,note_off,0,0,0,,7,,,55,127
74783,note_off,0,0,0,,2,,,62,127
74784,note_on,1,0,0,,2,,,62,127
74784,note_on,0,0,0,,7,,,55,127
74784,note_on,0,0,0,,7,,,79,127
74975,note_off,191,0,0,,7,,,55,127
74975,note_off,0,0,0,,2,,,62,127
74976,note_on,1,0,0,,7,,,55,127
74976,note_on,0,0,0,,2,,,62,127
74976,note_on,0,0,0,,11,,,70,127
75164,note_off,188,0,0,,7,,,79,127
75167,note_off,3,0,0,,11,,,70,127
75167,note_off,0,0,0,,2,,,62,127
75167,note_off,0,0,0,,7,,,55,127
75168,note_on,1,0,0,,7,,,55,127
75168,note_on,0,0,0,,2,,,62,127
75168,note_on,0,0,0,,7,,,79,127
75359,note_off,191,0,0,,7,,,79,127
75359,note_off,0,0,0,,2,,,62,127
75359,note_off,0,0,0,,7,,,55,127
75360,note_on,1,0,0,,0,,,48,127
75360,note_on,0,0,0,,0,,,60,127
75360,note_on,0,0,0,,3,,,75,127
75551,note_off,191,0,0,,3,,,75,127
75552,note_on,1,0,0,,2,,,74,127
75647,note_off,95,0,0,,2,,,74,127
75648,note_on,1,0,0,,0,,,72,127
75743,note_off,95,0,0,,0,,,72,127
75743,note_off,0,0,0,,0,,,60,127
75743,note_off,0,0,0,,0,,,48,127
75744,note_on,1,0,0,,0,,,60,127
75744,note_on,0,0,0,,0,,,48,127
75744,note_on,0,0,0,,11,,,70,127
75935,note_off,191,0,0,,11,,,70,127
75936,note_on,1,0,0,,10,,,69,127
76031,note_off,95,0,0,,10,,,69,127
76032,note_on,1,0,0,,7,,,67,127
76127,note_off,95,0,0,,7,,,67,127
76127,note_off,0,0,0,,0,,,48,127
76127,note_off,0,0,0,,0,,,60,127
76128,note_on,1,0,0,,2,,,50,127
76128,note_on,0,0,0,,2,,,62,127
76128,note_on,0,0,0,,10,,,69,127
76223,note_off,95,0,0,,10,,,69,127
76224,note_on,1,0,0,,7,,,67,127
76319,note_off,95,0,0,,7,,,67,127
76320,note_on,1,0,0,,6,,,66,127
76511,note_off,191,0,0,,2,,,62,127
76511,note_off,0,0,0,,2,,,50,127
76512,note_on,1,0,0,,2,,,62,127
76608,note_off,96,0,0,,6,,,66,127
76704,note_on,96,0,0,,0,,,72,127
76895,note_off,191,0,0,,2,,,62,127
76896,note_on,1,0,0,,3,,,63,127
77087,note_off,191,0,0,,0,,,72,127
77088,note_on,1,0,0,,11,,,70,127
77183,note_off,95,0,0,,11,,,70,127
77184,note_on,1,0,0,,10,,,69,127
77279,note_off,95,0,0,,10,,,69,127
77279,note_off,0,0,0,,3,,,63,127
77280,note_on,1,0,0,,3,,,63,127
77280,note_on,0,0,0,,10,,,69,127
77343,note_off,63,0,0,,10,,,69,127
77344,note_on,1,0,0,,7,,,67,127
77407,note_off,63,0,0,,7,,,67,127
77408,note_on,1,0,0,,10,,,69,127
77471,note_off,63,0,0,,10,,,69,127
77472,note_on,1,0,0,,7,,,67,127
77535,note_off,63,0,0,,7,,,67,127
77536,note_on,1,0,0,,6,,,66,127
77599,note_off,63,0,0,,6,,,66,127
77600,note_on,1,0,0,,7,,,67,127
77663,note_off,63,0,0,,7,,,67,127
77663,note_off,0,0,0,,3,,,63,127
77664,note_on,1,0,0,,2,,,62,127
77664,note_on,0,0,0,,7,,,67,127
77855,note_off,191,0,0,,7,,,67,127
77856,note_on,1,0,0,,10,,,69,127
78047,note_off,191,0,0,,2,,,62,127
78048,note_on,1,0,0,,2,,,62,127
78239,note_off,191,0,0,,10,,,69,127
78240,note_on,1,0,0,,0,,,72,127
78431,note_off,191,0,0,,2,,,62,127
78432,note_on,1,0,0,,3,,,63,127
78623,note_off,191,0,0,,0,,,72,127
78624,note_on,1,0,0,,11,,,70,127
78719,note_off,95,0,0,,11,,,70,127
78720,note_on,1,0,0,,10,,,69,127
78815,note_off,95,0,0,,10,,,69,127
78815,note_off,0,0,0,,3,,,63,127
78816,note_on,1,0,0,,3,,,63,127
78816,note_on,0,0,0,,10,,,69,127
78879,note_off,63,0,0,,10,,,69,127
78880,note_on,1,0,0,,7,,,67,127
78943,note_off,63,0,0,,7,,,67,127
78944,note_on,1,0,0,,10,,,69,127
79007,note_off,63,0,0,,10,,,69,127
79008,note_on,1,0,0,,7,,,67,127
79071,note_off,63,0,0,,7,,,67,127
79072,note_on,1,0,0,,6,,,66,127
79135,note_off,63,0,0,,6,,,66,127
79136,note_on,1,0,0,,7,,,67,127
79199,note_off,63,0,0,,7,,,67,127
79199,note_off,0,0,0,,3,,,63,127
79200,note_on,1,0,0,,2,,,62,127
79200,note_on,0,0,0,,7,,,67,127
79391,note_off,191,0,0,,7,,,67,127
79391,note_off,0,0,0,,2,,,62,127
79392,note_on,1,0,0,,2,,,50,127
79392,note_on,0,0,0,,10,,,69,127
79583,note_off,191,0,0,,10,,,69,127
79583,note_off,0,0,0,,2,,,50,127
79584,note_on,1,0,0,,4,,,52,127
79775,note_off,191,0,0,,4,,,52,127
79776,note_on,1,0,0,,6,,,54,127
79776,note_on,0,0,0,,2,,,74,127
79967,note_off,191,0,0,,2,,,74,127
79967,note_off,0,0,0,,6,,,54,127
79968,note_on,1,0,0,,7,,,55,127
79968,note_on,0,0,0,,2,,,74,127
80063,note_off,95,0,0,,2,,,74,127
80064,note_on,1,0,0,,12,,,71,127
80159,note_off,95,0,0,,12,,,71,127
80159,note_off,0,0,0,,7,,,55,127
80160,note_on,1,0,0,,10,,,57,127
80160,note_on,0,0,0,,2,,,74,127
80351,note_off,191,0,0,,10,,,57,127
80352,note_on,1,0,0,,12,,,59,127
80543,note_off,191,0,0,,12,,,59,127
80543,note_off,0,0,0,,2,,,74,127
80544,note_on,1,0,0,,0,,,60,127
80544,note_on,0,0,0,,2,,,74,127
80735,note_off,191,0,0,,2,,,74,127
80735,note_off,0,0,0,,0,,,60,127
80736,note_on,1,0,0,,2,,,62,127
80736,note_on,0,0,0,,2,,,74,127
80831,note_off,95,0,0,,2,,,74,127
80832,note_on,1,0,0,,10,,,69,127
80927,note_off,95,0,0,,10,,,69,127
80927,note_off,0,0,0,,2,,,62,127
80928,note_on,1,0,0,,4,,,64,127
80928,note_on,0,0,0,,2,,,74,127
81119,note_off,191,0,0,,4,,,64,127
81120,note_on,1,0,0,,6,,,66,127
81311,note_off,191,0,0,,6,,,66,127
81311,note_off,0,0,0,,2,,,74,127
81312,note_on,1,0,0,,2,,,62,127
81312,note_on,0,0,0,,2,,,86,127
81503,note_off,191,0,0,,2,,,86,127
81503,note_off,0,0,0,,2,,,62,127
81504,note_on,1,0,0,,7,,,55,127
81504,note_on,0,0,0,,2,,,86,127
81599,note_off,95,0,0,,2,,,86,127
81600,note_on,1,0,0,,12,,,83,127
81695,note_off,95,0,0,,12,,,83,127
81695,note_off,0,0,0,,7,,,55,127
81696,note_on,1,0,0,,10,,,57,127
81696,note_on,0,0,0,,2,,,86,127
81887,note_off,191,0,0,,10,,,57,127
81888,note_on,1,0,0,,12,,,59,127
82079,note_off,191,0,0,,12,,,59,127
82079,note_off,0,0,0,,2,,,86,127
82080,note_on,1,0,0,,0,,,60,127
82080,note_on,0,0,0,,2,,,86,127
82271,note_off,191,0,0,,2,,,86,127
82271,note_off,0,0,0,,0,,,60,127
82272,note_on,1,0,0,,2,,,62,127
82272,note_on,0,0,0,,2,,,86,127
82367,note_off,95,0,0,,2,,,86,127
82368,note_on,1,0,0,,10,,,81,127
82463,note_off,95,0,0,,10,,,81,127
82463,note_off,0,0,0,,2,,,62,127
82464,note_on,1,0,0,,4,,,64,127
82464,note_on,0,0,0,,2,,,86,127
82655,note_off,191,0,0,,4,,,64,127
82656,note_on,1,0,0,,6,,,66,127
82847,note_off,191,0,0,,6,,,66,127
82847,note_off,0,0,0,,2,,,86,127
82848,note_on,1,0,0,,2,,,62,127
82848,note_on,0,0,0,,2,,,86,127
83039,note_off,191,0,0,,2,,,86,127
83039,note_off,0,0,0,,2,,,62,127
83040,note_on,1,0,0,,7,,,55,127
83040,note_on,0,0,0,,2,,,86,127
83135,note_off,95,0,0,,2,,,86,127
83136,note_on,1,0,0,,0,,,84,127
83231,note_off,95,0,0,,0,,,84,127
83231,note_off,0,0,0,,7,,,55,127
83232,note_on,1,0,0,,10,,,57,127
83232,note_on,0,0,0,,12,,,83,127
83327,note_off,95,0,0,,12,,,83,127
83328,note_on,1,0,0,,10,,,81,127
83423,note_off,95,0,0,,10,,,81,127
83423,note_off,0,0,0,,10,,,57,127
83424,note_on,1,0,0,,12,,,59,127
83424,note_on,0,0,0,,7,,,79,127
83615,note_off,191,0,0,,7,,,79,127
83615,note_off,0,0,0,,12,,,59,127
83616,note_on,1,0,0,,12,,,59,127
83616,note_on,0,0,0,,7,,,79,127
83807,note_off,191,0,0,,7,,,79,127
83807,note_off,0,0,0,,12,,,59,127
83808,note_on,1,0,0,,0,,,60,127
83808,note_on,0,0,0,,7,,,79,127
83999,note_off,191,0,0,,7,,,79,127
83999,note_off,0,0,0,,0,,,60,127
84000,note_on,1,0,0,,0,,,60,127
84000,note_on,0,0,0,,4,,,76,127
84191,note_off,191,0,0,,4,,,76,127
84191,note_off,0,0,0,,0,,,60,127
84192,note_on,1,0,0,,2,,,62,127
84192,note_on,0,0,0,,7,,,79,127
84255,note_off,63,0,0,,7,,,79,127
84256,note_on,1,0,0,,6,,,78,127
84319,note_off,63,0,0,,6,,,78,127
84320,note_on,1,0,0,,7,,,79,127
84383,note_off,63,0,0,,7,,,79,127
84383,note_off,0,0,0,,2,,,62,127
84384,note_on,1,0,0,,0,,,60,127
84384,note_on,0,0,0,,6,,,78,127
84447,note_off,63,0,0,,6,,,78,127
84448,note_on,1,0,0,,4,,,76,127
84511,note_off,63,0,0,,4,,,76,127
84512,note_on,1,0,0,,6,,,78,127
84575,note_off,63,0,0,,6,,,78,127
84575,note_off,0,0,0,,0,,,60,127
84576,note_on,1,0,0,,12,,,59,127
84576,note_on,0,0,0,,2,,,86,127
84671,note_off,95,0,0,,2,,,86,127
84672,note_on,1,0,0,,0,,,84,127
84767,note_off,95,0,0,,0,,,84,127
84767,note_off,0,0,0,,12,,,59,127
84768,note_on,1,0,0,,10,,,57,127
84768,note_on,0,0,0,,12,,,83,127
84863,note_off,95,0,0,,12,,,83,127
84864,note_on,1,0,0,,10,,,81,127
84959,note_off,95,0,0,,10,,,81,127
84959,note_off,0,0,0,,10,,,57,127
84960,note_on,1,0,0,,12,,,59,127
84960,note_on,0,0,0,,7,,,79,127
85151,note_off,191,0,0,,7,,,79,127
85151,note_off,0,0,0,,12,,,59,127
85152,note_on,1,0,0,,7,,,55,127
85152,note_on,0,0,0,,7,,,79,127
85343,note_off,191,0,0,,7,,,79,127
85343,note_off,0,0,0,,7,,,55,127
85344,note_on,1,0,0,,0,,,60,127
85344,note_on,0,0,0,,7,,,79,127
85535,note_off,191,0,0,,7,,,79,127
85535,note_off,0,0,0,,0,,,60,127
85536,note_on,1,0,0,,0,,,60,127
85536,note_on,0,0,0,,4,,,76,127
85727,note_off,191,0,0,,4,,,76,127
85727,note_off,0,0,0,,0,,,60,127
85728,note_on,1,0,0,,2,,,62,127
85728,note_on,0,0,0,,7,,,79,127
85791,note_off,63,0,0,,7,,,79,127
85792,note_on,1,0,0,,6,,,78,127
85855,note_off,63,0,0,,6,,,78,127
85856,note_on,1,0,0,,7,,,79,127
85919,note_off,63,0,0,,7,,,79,127
85919,note_off,0,0,0,,2,,,62,127
85920,note_on,1,0,0,,0,,,60,127
85920,note_on,0,0,0,,6,,,78,127
85983,note_off,63,0,0,,6,,,78,127
85984,note_on,1,0,0,,4,,,76,127
86047,note_off,63,0,0,,4,,,76,127
86048,note_on,1,0,0,,6,,,78,127
86111,note_off,63,0,0,,6,,,78,127
86111,note_off,0,0,0,,0,,,60,127
86112,note_on,1,0,0,,12,,,59,127
86112,note_on,0,0,0,,7,,,79,127
86207,note_off,95,0,0,,7,,,79,127
86208,note_on,1,0,0,,6,,,78,127
86303,note_off,95,0,0,,6,,,78,127
86303,note_off,0,0,0,,12,,,59,127
86304,note_on,1,0,0,,12,,,59,127
86304,note_on,0,0,0,,4,,,76,127
86399,note_off,95,0,0,,4,,,76,127
86400,note_on,1,0,0,,2,,,74,127
86495,note_off,95,0,0,,2,,,74,127
86495,note_off,0,0,0,,12,,,59,127
86496,note_on,1,0,0,,10,,,57,127
86496,note_on,0,0,0,,0,,,72,127
86687,note_off,191,0,0,,0,,,72,127
86687,note_off,0,0,0,,10,,,57,127
86688,note_on,1,0,0,,7,,,55,127
86688,note_on,0,0,0,,0,,,72,127
86879,note_off,191,0,0,,0,,,72,127
86879,note_off,0,0,0,,7,,,55,127
86880,note_on,1,0,0,,6,,,54,127
86880,note_on,0,0,0,,0,,,72,127
87071,note_off,191,0,0,,0,,,72,127
87071,note_off,0,0,0,,6,,,54,127
87072,note_on,1,0,0,,7,,,55,127
87072,note_on,0,0,0,,4,,,76,127
87263,note_off,191,0,0,,4,,,76,127
87263,note_off,0,0,0,,7,,,55,127
87264,note_on,1,0,0,,10,,,57,127
87264,note_on,0,0,0,,2,,,74,127
87264,note_on,0,0,0,,0,,,72,127
87455,note_off,191,0,0,,0,,,72,127
87455,note_off,0,0,0,,2,,,74,127
87455,note_off,0,0,0,,10,,,57,127
87456,note_on,1,0,0,,7,,,55,127
87456,note_on,0,0,0,,4,,,76,127
87647,note_off,191,0,0,,4,,,76,127
87647,note_off,0,0,0,,7,,,55,127
87648,note_on,1,0,0,,6,,,54,127
87648,note_on,0,0,0,,0,,,72,127
87648,note_on,0,0,0,,2,,,74,127
87839,note_off,191,0,0,,2,,,74,127
87839,note_off,0,0,0,,0,,,72,127
87839,note_off,0,0,0,,6,,,54,127
87840,note_on,1,0,0,,7,,,55,127
87840,note_on,0,0,0,,4,,,76,127
88031,note_off,191,0,0,,4,,,76,127
88031,note_off,0,0,0,,7,,,55,127
88032,note_on,1,0,0,,6,,,54,127
88032,note_on,0,0,0,,0,,,72,127
88223,note_off,191,0,0,,0,,,72,127
88223,note_off,0,0,0,,6,,,54,127
88224,note_on,1,0,0,,7,,,55,127
88224,note_on,0,0,0,,4,,,76,127
88415,note_off,191,0,0,,4,,,76,127
88415,note_off,0,0,0,,7,,,55,127
88416,note_on,1,0,0,,6,,,54,127
88416,note_on,0,0,0,,0,,,72,127
88607,note_off,191,0,0,,0,,,72,127
88607,note_off,0,0,0,,6,,,54,127
88608,note_on,1,0,0,,7,,,55,127
88608,note_on,0,0,0,,10,,,81,127
88799,note_off,191,0,0,,10,,,81,127
88799,note_off,0,0,0,,7,,,55,127
88800,note_on,1,0,0,,6,,,54,127
88800,note_on,0,0,0,,0,,,72,127
88800,note_on,0,0,0,,2,,,74,127
88991,note_off,191,0,0,,2,,,74,127
88991,note_off,0,0,0,,0,,,72,127
88991,note_off,0,0,0,,6,,,54,127
88992,note_on,1,0,0,,0,,,60,127
88992,note_on,0,0,0,,4,,,52,127
88992,note_on,0,0,0,,10,,,81,127
89183,note_off,191,0,0,,10,,,81,127
89183,note_off,0,0,0,,4,,,52,127
89183,note_off,0,0,0,,0,,,60,127
89184,note_on,1,0,0,,2,,,50,127
89184,note_on,0,0,0,,2,,,62,127
89184,note_on,0,0,0,,6,,,78,127
89184,note_on,0,0,0,,7,,,79,127
89471,note_off,287,0,0,,7,,,79,127
89471,note_off,0,0,0,,6,,,78,127
89472,note_on,1,0,0,,4,,,76,127
89567,note_off,95,0,0,,4,,,76,127
89568,note_on,1,0,0,,2,,,74,127
89663,note_off,95,0,0,,2,,,74,127
89664,note_off,1,0,0,,2,,,62,127
89664,note_off,0,0,0,,2,,,50,127
89664,note_on,0,0,0,,0,,,72,127
89759,note_off,95,0,0,,0,,,72,127
89760,note_on,1,0,0,,12,,,71,127
89855,note_off,95,0,0,,12,,,71,127
89856,note_on,1,0,0,,10,,,69,127
89951,note_off,95,0,0,,10,,,69,127
89952,note_on,1,0,0,,7,,,67,127
90143,note_off,191,0,0,,7,,,67,127
90144,note_on,1,0,0,,7,,,55,127
90144,note_on,0,0,0,,2,,,74,127
90335,note_off,191,0,0,,2,,,74,127
90335,note_off,0,0,0,,7,,,55,127
90336,note_on,1,0,0,,10,,,57,127
90336,note_on,0,0,0,,2,,,74,127
90336,note_on,0,0,0,,4,,,76,127
90431,note_off,95,0,0,,4,,,76,127
90431,note_off,0,0,0,,2,,,74,127
90432,note_on,1,0,0,,0,,,72,127
90527,note_off,95,0,0,,0,,,72,127
90527,note_off,0,0,0,,10,,,57,127
90528,note_on,1,0,0,,12,,,59,127
90528,note_on,0,0,0,,12,,,71,127
90719,note_off,191,0,0,,12,,,59,127
90720,note_on,1,0,0,,0,,,60,127
90868,note_off,148,0,0,,12,,,71,127
90911,note_off,43,0,0,,0,,,60,127
90912,note_on,1,0,0,,2,,,62,127
90912,note_on,0,0,0,,0,,,72,127
91103,note_off,191,0,0,,0,,,72,127
91103,note_off,0,0,0,,2,,,62,127
91104,note_on,1,0,0,,4,,,64,127
91104,note_on,0,0,0,,0,,,72,127
91104,note_on,0,0,0,,2,,,74,127
91199,note_off,95,0,0,,2,,,74,127
91199,note_off,0,0,0,,0,,,72,127
91200,note_on,1,0,0,,12,,,71,127
91295,note_off,95,0,0,,12,,,71,127
91295,note_off,0,0,0,,4,,,64,127
91296,note_on,1,0,0,,6,,,66,127
91296,note_on,0,0,0,,10,,,69,127
91487,note_off,191,0,0,,10,,,69,127
91487,note_off,0,0,0,,6,,,66,127
91488,note_on,1,0,0,,7,,,67,127
91680,note_on,192,0,0,,7,,,55,127
91680,note_on,0,0,0,,2,,,86,127
91868,note_off,188,0,0,,7,,,67,127
91871,note_off,3,0,0,,2,,,86,127
91871,note_off,0,0,0,,7,,,55,127
91872,note_on,1,0,0,,10,,,57,127
91872,note_on,0,0,0,,4,,,88,127
91872,note_on,0,0,0,,2,,,86,127
91967,note_off,95,0,0,,2,,,86,127
91967,note_off,0,0,0,,4,,,88,127
91968,note_on,1,0,0,,0,,,84,127
92063,note_off,95,0,0,,0,,,84,127
92063,note_off,0,0,0,,10,,,57,127
92064,note_on,1,0,0,,12,,,59,127
92064,note_on,0,0,0,,12,,,83,127
92255,note_off,191,0,0,,12,,,59,127
92256,note_on,1,0,0,,0,,,60,127
92352,note_off,96,0,0,,12,,,83,127
92447,note_off,95,0,0,,0,,,60,127
92448,note_on,1,0,0,,2,,,62,127
92448,note_on,0,0,0,,0,,,84,127
92639,note_off,191,0,0,,0,,,84,127
92639,note_off,0,0,0,,2,,,62,127
92640,note_on,1,0,0,,4,,,64,127
92640,note_on,0,0,0,,2,,,86,127
92640,note_on,0,0,0,,0,,,84,127
92735,note_off,95,0,0,,0,,,84,127
92735,note_off,0,0,0,,2,,,86,127
92736,note_on,1,0,0,,12,,,83,127
92831,note_off,95,0,0,,12,,,83,127
92831,note_off,0,0,0,,4,,,64,127
92832,note_on,1,0,0,,6,,,66,127
92832,note_on,0,0,0,,10,,,81,127
93023,note_off,191,0,0,,6,,,66,127
93024,note_on,1,0,0,,7,,,67,127
93120,note_off,96,0,0,,10,,,81,127
93216,note_on,96,0,0,,7,,,55,127
93216,note_on,0,0,0,,12,,,83,127
93404,note_off,188,0,0,,7,,,67,127
93407,note_off,3,0,0,,12,,,83,127
93407,note_off,0,0,0,,7,,,55,127
93408,note_on,1,0,0,,10,,,57,127
93408,note_on,0,0,0,,0,,,84,127
93408,note_on,0,0,0,,12,,,83,127
93503,note_off,95,0,0,,12,,,83,127
93503,note_off,0,0,0,,0,,,84,127
93504,note_on,1,0,0,,10,,,81,127
93599,note_off,95,0,0,,10,,,81,127
93599,note_off,0,0,0,,10,,,57,127
93600,note_on,1,0,0,,12,,,59,127
93600,note_on,0,0,0,,7,,,79,127
93791,note_off,191,0,0,,12,,,59,127
93792,note_on,1,0,0,,0,,,60,127
93983,note_off,191,0,0,,0,,,60,127
93983,note_off,0,0,0,,7,,,79,127
93984,note_on,1,0,0,,0,,,60,127
93984,note_on,0,0,0,,4,,,76,127
94175,note_off,191,0,0,,4,,,76,127
94175,note_off,0,0,0,,0,,,60,127
94176,note_on,1,0,0,,2,,,62,127
94176,note_on,0,0,0,,7,,,79,127
94239,note_off,63,0,0,,7,,,79,127
94240,note_on,1,0,0,,6,,,78,127
94303,note_off,63,0,0,,6,,,78,127
94304,note_on,1,0,0,,7,,,79,127
94367,note_off,63,0,0,,7,,,79,127
94367,note_off,0,0,0,,2,,,62,127
94368,note_on,1,0,0,,0,,,60,127
94368,note_on,0,0,0,,6,,,78,127
94431,note_off,63,0,0,,6,,,78,127
94432,note_on,1,0,0,,4,,,76,127
94495,note_off,63,0,0,,4,,,76,127
94496,note_on,1,0,0,,6,,,78,127
94559,note_off,63,0,0,,6,,,78,127
94559,note_off,0,0,0,,0,,,60,127
94560,note_on,1,0,0,,12,,,59,127
94560,note_on,0,0,0,,7,,,79,127
94751,note_off,191,0,0,,7,,,79,127
94752,note_on,1,0,0,,12,,,83,127
94940,note_off,188,0,0,,12,,,59,127
94943,note_off,3,0,0,,12,,,83,127
94944,note_on,1,0,0,,12,,,83,127
95135,note_off,191,0,0,,12,,,83,127
95136,note_on,1,0,0,,7,,,55,127
95136,note_on,0,0,0,,12,,,83,127
95327,note_off,191,0,0,,12,,,83,127
95327,note_off,0,0,0,,7,,,55,127
95328,note_on,1,0,0,,0,,,60,127
95328,note_on,0,0,0,,4,,,76,127
95519,note_off,191,0,0,,4,,,76,127
95519,note_off,0,0,0,,0,,,60,127
95520,note_on,1,0,0,,10,,,57,127
95520,note_on,0,0,0,,10,,,81,127
95711,note_off,191,0,0,,10,,,81,127
95711,note_off,0,0,0,,10,,,57,127
95712,note_on,1,0,0,,2,,,62,127
95712,note_on,0,0,0,,7,,,79,127
95775,note_off,63,0,0,,7,,,79,127
95776,note_on,1,0,0,,6,,,78,127
95839,note_off,63,0,0,,6,,,78,127
95840,note_on,1,0,0,,7,,,79,127
95903,note_off,63,0,0,,7,,,79,127
95903,note_off,0,0,0,,2,,,62,127
95904,note_on,1,0,0,,0,,,60,127
95904,note_on,0,0,0,,6,,,78,127
95967,note_off,63,0,0,,6,,,78,127
95968,note_on,1,0,0,,4,,,76,127
96031,note_off,63,0,0,,4,,,76,127
96032,note_on,1,0,0,,6,,,78,127
96095,note_off,63,0,0,,6,,,78,127
96095,note_off,0,0,0,,0,,,60,127
96096,note_on,1,0,0,,12,,,59,127
96096,note_on,0,0,0,,7,,,79,127
96287,note_off,191,0,0,,7,,,79,127
96288,note_on,1,0,0,,2,,,86,127
96479,note_off,191,0,0,,2,,,86,127
96480,note_on,1,0,0,,2,,,86,127
96671,note_off,191,0,0,,2,,,86,127
96671,note_off,0,0,0,,12,,,59,127
96672,note_on,1,0,0,,7,,,55,127
96672,note_on,0,0,0,,2,,,86,127
96863,note_off,191,0,0,,2,,,86,127
96863,note_off,0,0,0,,7,,,55,127
96864,note_on,1,0,0,,0,,,60,127
96864,note_on,0,0,0,,4,,,76,127
97055,note_off,191,0,0,,4,,,76,127
97055,note_off,0,0,0,,0,,,60,127
97056,note_on,1,0,0,,10,,,57,127
97056,note_on,0,0,0,,0,,,84,127
97247,note_off,191,0,0,,0,,,84,127
97247,note_off,0,0,0,,10,,,57,127
97248,note_on,1,0,0,,2,,,62,127
97248,note_on,0,0,0,,12,,,83,127
97311,note_off,63,0,0,,12,,,83,127
97312,note_on,1,0,0,,10,,,81,127
97375,note_off,63,0,0,,10,,,81,127
97376,note_on,1,0,0,,12,,,83,127
97439,note_off,63,0,0,,12,,,83,127
97440,note_on,1,0,0,,2,,,50,127
97440,note_on,0,0,0,,10,,,81,127
97503,note_off,63,0,0,,10,,,81,127
97504,note_on,1,0,0,,12,,,83,127
97567,note_off,63,0,0,,12,,,83,127
97568,note_on,1,0,0,,10,,,81,127
97628,note_off,60,0,0,,2,,,62,127
97631,note_off,3,0,0,,10,,,81,127
97631,note_off,0,0,0,,2,,,50,127
97632,note_on,1,0,0,,7,,,55,127
97632,note_on,0,0,0,,7,,,79,127
97823,note_off,191,0,0,,7,,,79,127
97824,note_on,1,0,0,,12,,,83,127
97824,note_on,0,0,0,,7,,,79,127
98015,note_off,191,0,0,,7,,,79,127
98015,note_off,0,0,0,,12,,,83,127
98015,note_off,0,0,0,,7,,,55,127
98016,note_on,1,0,0,,2,,,50,127
98016,note_on,0,0,0,,2,,,62,127
98016,note_on,0,0,0,,7,,,79,127
98016,note_on,0,0,0,,12,,,83,127
98079,note_off,63,0,0,,12,,,83,127
98079,note_off,0,0,0,,7,,,79,127
98080,note_on,1,0,0,,6,,,78,127
98080,note_on,0,0,0,,10,,,81,127
98143,note_off,63,0,0,,10,,,81,127
98143,note_off,0,0,0,,6,,,78,127
98144,note_on,1,0,0,,7,,,79,127
98144,note_on,0,0,0,,12,,,83,127
98207,note_off,63,0,0,,12,,,83,127
98207,note_off,0,0,0,,7,,,79,127
98207,note_off,0,0,0,,2,,,62,127
98207,note_off,0,0,0,,2,,,50,127
98208,note_on,1,0,0,,0,,,48,127
98208,note_on,0,0,0,,0,,,60,127
98208,note_on,0,0,0,,6,,,78,127
98208,note_on,0,0,0,,10,,,81,127
98271,note_off,63,0,0,,10,,,81,127
98271,note_off,0,0,0,,6,,,78,127
98272,note_on,1,0,0,,7,,,79,127
98272,note_on,0,0,0,,12,,,83,127
98335,note_off,63,0,0,,12,,,83,127
98335,note_off,0,0,0,,7,,,79,127
98336,note_on,1,0,0,,6,,,78,127
98336,note_on,0,0,0,,10,,,81,127
98399,note_off,63,0,0,,0,,,60,127
98399,note_off,0,0,0,,0,,,48,127
98400,note_on,1,0,0,,12,,,47,127
98400,note_on,0,0,0,,12,,,59,127
98432,note_off,32,0,0,,10,,,81,127
98432,note_off,0,0,0,,6,,,78,127
98591,note_off,159,0,0,,12,,,59,127
98591,note_off,0,0,0,,12,,,47,127
98592,note_on,1,0,0,,0,,,60,127
98592,note_on,0,0,0,,0,,,48,127
98592,note_on,0,0,0,,12,,,71,127
98592,note_on,0,0,0,,7,,,67,127
98783,note_off,191,0,0,,7,,,67,127
98783,note_off,0,0,0,,12,,,71,127
98783,note_off,0,0,0,,0,,,48,127
98783,note_off,0,0,0,,0,,,60,127
98784,note_on,1,0,0,,2,,,50,127
98784,note_on,0,0,0,,2,,,62,127
98784,note_on,0,0,0,,7,,,67,127
98784,note_on,0,0,0,,12,,,71,127
98847,note_off,63,0,0,,12,,,71,127
98847,note_off,0,0,0,,7,,,67,127
98848,note_on,1,0,0,,6,,,66,127
98848,note_on,0,0,0,,10,,,69,127
98911,note_off,63,0,0,,10,,,69,127
98911,note_off,0,0,0,,6,,,66,127
98912,note_on,1,0,0,,7,,,67,127
98912,note_on,0,0,0,,12,,,71,127
98975,note_off,63,0,0,,12,,,71,127
98975,note_off,0,0,0,,7,,,67,127
98975,note_off,0,0,0,,2,,,62,127
98975,note_off,0,0,0,,2,,,50,127
98976,note_on,1,0,0,,0,,,48,127
98976,note_on,0,0,0,,0,,,60,127
98976,note_on,0,0,0,,6,,,66,127
98976,note_on,0,0,0,,10,,,69,127
99039,note_off,63,0,0,,10,,,69,127
99039,note_off,0,0,0,,6,,,66,127
99040,note_on,1,0,0,,7,,,67,127
99040,note_on,0,0,0,,12,,,71,127
99103,note_off,63,0,0,,12,,,71,127
99103,note_off,0,0,0,,7,,,67,127
99104,note_on,1,0,0,,6,,,66,127
99104,note_on,0,0,0,,10,,,69,127
99167,note_off,63,0,0,,0,,,60,127
99167,note_off,0,0,0,,0,,,48,127
99168,note_on,1,0,0,,12,,,47,127
99168,note_on,0,0,0,,12,,,59,127
99200,note_off,32,0,0,,10,,,69,127
99200,note_off,0,0,0,,6,,,66,127
99359,note_off,159,0,0,,12,,,59,127
99359,note_off,0,0,0,,12,,,47,127
99360,note_on,1,0,0,,0,,,48,127
99360,note_on,0,0,0,,0,,,60,127
99360,note_on,0,0,0,,7,,,79,127
99360,note_on,0,0,0,,12,,,83,127
99551,note_off,191,0,0,,12,,,83,127
99551,note_off,0,0,0,,7,,,79,127
99551,note_off,0,0,0,,0,,,60,127
99551,note_off,0,0,0,,0,,,48,127
99552,note_on,1,0,0,,2,,,62,127
99552,note_on,0,0,0,,2,,,50,127
99552,note_on,0,0,0,,7,,,79,127
99552,note_on,0,0,0,,12,,,83,127
99615,note_off,63,0,0,,12,,,83,127
99615,note_off,0,0,0,,7,,,79,127
99616,note_on,1,0,0,,6,,,78,127
99616,note_on,0,0,0,,10,,,81,127
99679,note_off,63,0,0,,10,,,81,127
99679,note_off,0,0,0,,6,,,78,127
99680,note_on,1,0,0,,7,,,79,127
99680,note_on,0,0,0,,12,,,83,127
99743,note_off,63,0,0,,12,,,83,127
99743,note_off,0,0,0,,7,,,79,127
99743,note_off,0,0,0,,2,,,50,127
99743,note_off,0,0,0,,2,,,62,127
99744,note_on,1,0,0,,0,,,60,127
99744,note_on,0,0,0,,0,,,48,127
99744,note_on,0,0,0,,6,,,78,127
99744,note_on,0,0,0,,10,,,81,127
99807,note_off,63,0,0,,10,,,81,127
99807,note_off,0,0,0,,6,,,78,127
99808,note_on,1,0,0,,7,,,79,127
99808,note_on,0,0,0,,12,,,83,127
99871,note_off,63,0,0,,12,,,83,127
99871,note_off,0,0,0,,7,,,79,127
99872,note_on,1,0,0,,6,,,78,127
99872,note_on,0,0,0,,10,,,81,127
99935,note_off,63,0,0,,0,,,48,127
99935,note_off,0,0,0,,0,,,60,127
99936,note_on,1,0,0,,12,,,47,127
99936,note_on,0,0,0,,12,,,59,127
99968,note_off,32,0,0,,10,,,81,127
99968,note_off,0,0,0,,6,,,78,127
100127,note_off,159,0,0,,12,,,59,127
100127,note_off,0,0,0,,12,,,47,127
100128,note_on,1,0,0,,0,,,60,127
100128,note_on,0,0,0,,0,,,48,127
100128,note_on,0,0,0,,7,,,67,127
100128,note_on,0,0,0,,12,,,71,127
100319,note_off,191,0,0,,12,,,71,127
100319,note_off,0,0,0,,7,,,67,127
100319,note_off,0,0,0,,0,,,48,127
100319,note_off,0,0,0,,0,,,60,127
100320,note_on,1,0,0,,2,,,62,127
100320,note_on,0,0,0,,2,,,50,127
100320,note_on,0,0,0,,7,,,67,127
100320,note_on,0,0,0,,12,,,71,127
100383,note_off,63,0,0,,12,,,71,127
100383,note_off,0,0,0,,7,,,67,127
100384,note_on,1,0,0,,6,,,66,127
100384,note_on,0,0,0,,10,,,69,127
100447,note_off,63,0,0,,10,,,69,127
100447,note_off,0,0,0,,6,,,66,127
100448,note_on,1,0,0,,7,,,67,127
100448,note_on,0,0,0,,12,,,71,127
100511,note_off,63,0,0,,12,,,71,127
100511,note_off,0,0,0,,7,,,67,127
100511,note_off,0,0,0,,2,,,50,127
100511,note_off,0,0,0,,2,,,62,127
100512,note_on,1,0,0,,0,,,48,127
100512,note_on,0,0,0,,0,,,60,127
100512,note_on,0,0,0,,6,,,66,127
100512,note_on,0,0,0,,10,,,69,127
100575,note_off,63,0,0,,10,,,69,127
100575,note_off,0,0,0,,6,,,66,127
100576,note_on,1,0,0,,7,,,67,127
100576,note_on,0,0,0,,12,,,71,127
100639,note_off,63,0,0,,12,,,71,127
100639,note_off,0,0,0,,7,,,67,127
100640,note_on,1,0,0,,6,,,66,127
100640,note_on,0,0,0,,10,,,69,127
100703,note_off,63,0,0,,0,,,60,127
100703,note_off,0,0,0,,0,,,48,127
100704,note_on,1,0,0,,12,,,47,127
100704,note_on,0,0,0,,12,,,59,127
100736,note_off,32,0,0,,10,,,69,127
100736,note_off,0,0,0,,6,,,66,127
100896,note_on,160,0,0,,7,,,79,127
101084,note_off,188,0,0,,12,,,47,127
101087,note_off,3,0,0,,7,,,79,127
101088,note_on,1,0,0,,7,,,79,127
101279,note_off,191,0,0,,7,,,79,127
101279,note_off,0,0,0,,12,,,59,127
101280,note_on,1,0,0,,12,,,59,127
101280,note_on,0,0,0,,7,,,79,127
101471,note_off,191,0,0,,7,,,79,127
101471,note_off,0,0,0,,12,,,59,127
101472,note_on,1,0,0,,0,,,60,127
101472,note_on,0,0,0,,7,,,79,127
101663,note_off,191,0,0,,7,,,79,127
101663,note_off,0,0,0,,0,,,60,127
101664,note_on,1,0,0,,0,,,60,127
101664,note_on,0,0,0,,4,,,76,127
101855,note_off,191,0,0,,4,,,76,127
101855,note_off,0,0,0,,0,,,60,127
101856,note_on,1,0,0,,2,,,62,127
101856,note_on,0,0,0,,7,,,79,127
101919,note_off,63,0,0,,7,,,79,127
101920,note_on,1,0,0,,6,,,78,127
101983,note_off,63,0,0,,6,,,78,127
101984,note_on,1,0,0,,7,,,79,127
102047,note_off,63,0,0,,7,,,79,127
102047,note_off,0,0,0,,2,,,62,127
102048,note_on,1,0,0,,0,,,60,127
102048,note_on,0,0,0,,6,,,78,127
102111,note_off,63,0,0,,6,,,78,127
102112,note_on,1,0,0,,4,,,76,127
102175,note_off,63,0,0,,4,,,76,127
102176,note_on,1,0,0,,6,,,78,127
102239,note_off,63,0,0,,6,,,78,127
102239,note_off,0,0,0,,0,,,60,127
102240,note_on,1,0,0,,2,,,62,127
102240,note_on,0,0,0,,12,,,59,127
102240,note_on,0,0,0,,2,,,86,127
102335,note_off,95,0,0,,2,,,86,127
102336,note_on,1,0,0,,0,,,84,127
102431,note_off,95,0,0,,0,,,84,127
102432,note_on,1,0,0,,12,,,83,127
102527,note_off,95,0,0,,12,,,83,127
102528,note_on,1,0,0,,10,,,81,127
102623,note_off,95,0,0,,10,,,81,127
102624,note_on,1,0,0,,7,,,79,127
102719,note_off,95,0,0,,7,,,79,127
102720,note_on,1,0,0,,6,,,78,127
102815,note_off,95,0,0,,6,,,78,127
102815,note_off,0,0,0,,12,,,59,127
102815,note_off,0,0,0,,2,,,62,127
102816,note_on,1,0,0,,12,,,59,127
102816,note_on,0,0,0,,4,,,76,127
102911,note_off,95,0,0,,4,,,76,127
102912,note_on,1,0,0,,2,,,74,127
103007,note_off,95,0,0,,2,,,74,127
103007,note_off,0,0,0,,12,,,59,127
103008,note_on,1,0,0,,0,,,60,127
103008,note_on,0,0,0,,0,,,72,127
103103,note_off,95,0,0,,0,,,72,127
103104,note_on,1,0,0,,12,,,71,127
103199,note_off,95,0,0,,12,,,71,127
103200,note_on,1,0,0,,10,,,69,127
103295,note_off,95,0,0,,10,,,69,127
103296,note_on,1,0,0,,7,,,67,127
103391,note_off,95,0,0,,7,,,67,127
103391,note_off,0,0,0,,0,,,60,127
103392,note_on,1,0,0,,2,,,62,127
103392,note_on,0,0,0,,6,,,66,127
103455,note_off,63,0,0,,6,,,66,127
103456,note_on,1,0,0,,7,,,67,127
103487,note_off,31,0,0,,2,,,62,127
103488,note_on,1,0,0,,0,,,60,127
103519,note_off,31,0,0,,7,,,67,127
103520,note_on,1,0,0,,6,,,66,127
103583,note_off,63,0,0,,6,,,66,127
103583,note_off,0,0,0,,0,,,60,127
103584,note_on,1,0,0,,12,,,59,127
103584,note_on,0,0,0,,7,,,67,127
103647,note_off,63,0,0,,7,,,67,127
103648,note_on,1,0,0,,6,,,66,127
103679,note_off,31,0,0,,12,,,59,127
103680,note_on,1,0,0,,10,,,57,127
103775,note_off,95,0,0,,10,,,57,127
103775,note_off,0,0,0,,6,,,66,127
103776,note_on,1,0,0,,7,,,55,127
103776,note_on,0,0,0,,12,,,83,127
103871,note_off,95,0,0,,12,,,83,127
103872,note_on,1,0,0,,10,,,81,127
103967,note_off,95,0,0,,10,,,81,127
103968,note_on,1,0,0,,7,,,79,127
104063,note_off,95,0,0,,7,,,79,127
104064,note_on,1,0,0,,6,,,78,127
104159,note_off,95,0,0,,6,,,78,127
104159,note_off,0,0,0,,7,,,55,127
104160,note_on,1,0,0,,12,,,47,127
104160,note_on,0,0,0,,12,,,59,127
104160,note_on,0,0,0,,4,,,76,127
104255,note_off,95,0,0,,4,,,76,127
104256,note_on,1,0,0,,2,,,74,127
104351,note_off,95,0,0,,2,,,74,127
104352,note_on,1,0,0,,0,,,72,127
104447,note_off,95,0,0,,0,,,72,127
104448,note_on,1,0,0,,12,,,71,127
104543,note_off,95,0,0,,12,,,71,127
104543,note_off,0,0,0,,12,,,59,127
104543,note_off,0,0,0,,12,,,47,127
104544,note_on,1,0,0,,0,,,48,127
104544,note_on,0,0,0,,0,,,60,127
104544,note_on,0,0,0,,10,,,69,127
104639,note_off,95,0,0,,10,,,69,127
104640,note_on,1,0,0,,7,,,67,127
104735,note_off,95,0,0,,7,,,67,127
104736,note_on,1,0,0,,6,,,66,127
104831,note_off,95,0,0,,6,,,66,127
104832,note_on,1,0,0,,4,,,64,127
104927,note_off,95,0,0,,4,,,64,127
104927,note_off,0,0,0,,0,,,60,127
104927,note_off,0,0,0,,0,,,48,127
104928,note_on,1,0,0,,2,,,50,127
104928,note_on,0,0,0,,2,,,38,127
104928,note_on,0,0,0,,2,,,62,127
105023,note_off,95,0,0,,2,,,62,127
105024,note_on,1,0,0,,0,,,60,127
105119,note_off,95,0,0,,0,,,60,127
105120,note_on,1,0,0,,12,,,59,127
105215,note_off,95,0,0,,12,,,59,127
105216,note_on,1,0,0,,10,,,57,127
105311,note_off,95,0,0,,10,,,57,127
105311,note_off,0,0,0,,2,,,38,127
105311,note_off,0,0,0,,2,,,50,127
105312,note_on,1,0,0,,7,,,43,127
105312,note_on,0,0,0,,7,,,55,127
106844,note_off,1532,0,0,,7,,,55,127
106844,note_off,0,0,0,,7,,,43,127
110592,end_of_track,3748,1,0,,,,,,
