tick,type,time,meta,track,program,channel,pitch,tempo,note,velocity
0,copyright,0,1,0,,,,,,
0,program_change,0,0,0,6,0,,,,
0,pitchwheel,0,0,0,,0,0,,,
0,program_change,0,0,0,6,1,,,,
0,pitchwheel,0,0,0,,1,-590,,,
0,program_change,0,0,0,6,2,,,,
0,pitchwheel,0,0,0,,2,-272,,,
0,program_change,0,0,0,6,3,,,,
0,pitchwheel,0,0,0,,3,-353,,,
0,program_change,0,0,0,6,4,,,,
0,pitchwheel,0,0,0,,4,-560,,,
0,program_change,0,0,0,6,5,,,,
0,pitchwheel,0,0,0,,5,-80,,,
0,program_change,0,0,0,6,6,,,,
0,pitchwheel,0,0,0,,6,-625,,,
0,program_change,0,0,0,6,7,,,,
0,pitchwheel,0,0,0,,7,-130,,,
0,program_change,0,0,0,6,8,,,,
0,pitchwheel,0,0,0,,8,-512,,,
0,program_change,0,0,0,6,10,,,,
0,pitchwheel,0,0,0,,10,-464,,,
0,program_change,0,0,0,6,11,,,,
0,pitchwheel,0,0,0,,11,-208,,,
0,program_change,0,0,0,6,12,,,,
0,pitchwheel,0,0,0,,12,-553,,,
0,set_tempo,0,1,0,,,,500000,,
154,note_on,154,0,0,,4,,,76,127
434,note_off,280,0,0,,4,,,76,127
461,note_on,27,0,0,,7,,,79,127
562,note_off,101,0,0,,7,,,79,127
564,note_on,2,0,0,,5,,,77,127
665,note_off,101,0,0,,5,,,77,127
667,note_on,2,0,0,,4,,,76,127
768,note_off,101,0,0,,4,,,76,127
770,note_on,2,0,0,,4,,,76,127
770,note_on,0,0,0,,0,,,60,127
1076,note_off,306,0,0,,0,,,60,127
1078,note_on,2,0,0,,4,,,64,127
1384,note_off,306,0,0,,4,,,64,127
1384,note_off,0,0,0,,4,,,76,127
1386,note_on,2,0,0,,2,,,74,127
1386,note_on,0,0,0,,7,,,67,127
1690,note_off,304,0,0,,7,,,67,127
1692,note_off,2,0,0,,2,,,74,127
1694,note_on,2,0,0,,0,,,72,127
2001,note_on,307,0,0,,10,,,69,127
2270,note_off,269,0,0,,0,,,72,127
2307,note_off,37,0,0,,10,,,69,127
2309,note_on,2,0,0,,0,,,84,127
2309,note_on,0,0,0,,7,,,67,127
2615,note_off,306,0,0,,7,,,67,127
2617,note_on,2,0,0,,5,,,65,127
2718,note_off,101,0,0,,0,,,84,127
2720,note_on,2,0,0,,12,,,83,127
2821,note_off,101,0,0,,12,,,83,127
2823,note_on,2,0,0,,10,,,81,127
2924,note_off,101,0,0,,10,,,81,127
2924,note_off,0,0,0,,5,,,65,127
2926,note_on,2,0,0,,7,,,79,127
2926,note_on,0,0,0,,4,,,64,127
2926,note_on,0,0,0,,7,,,67,127
3232,note_off,306,0,0,,4,,,64,127
3232,note_off,0,0,0,,7,,,79,127
3234,note_on,2,0,0,,4,,,76,127
3234,note_on,0,0,0,,0,,,60,127
3540,note_off,306,0,0,,0,,,60,127
3540,note_off,0,0,0,,4,,,76,127
3540,note_off,0,0,0,,7,,,67,127
3542,note_on,2,0,0,,7,,,79,127
3542,note_on,0,0,0,,5,,,65,127
3542,note_on,0,0,0,,2,,,62,127
3619,note_on,77,0,0,,5,,,77,127
3625,note_off,6,0,0,,7,,,79,127
3695,note_on,70,0,0,,7,,,79,127
3701,note_off,6,0,0,,5,,,77,127
3771,note_on,70,0,0,,5,,,77,127
3777,note_off,6,0,0,,7,,,79,127
3846,note_off,69,0,0,,2,,,62,127
3848,note_on,2,0,0,,7,,,79,127
3848,note_on,0,0,0,,7,,,55,127
3854,note_off,6,0,0,,5,,,77,127
3924,note_on,70,0,0,,5,,,77,127
3930,note_off,6,0,0,,7,,,79,127
4000,note_on,70,0,0,,4,,,76,127
4006,note_off,6,0,0,,5,,,77,127
4076,note_on,70,0,0,,5,,,77,127
4082,note_off,6,0,0,,4,,,76,127
4149,note_off,67,0,0,,7,,,55,127
4151,note_off,2,0,0,,5,,,65,127
4153,note_on,2,0,0,,4,,,76,127
4159,note_off,6,0,0,,5,,,77,127
4460,note_on,301,0,0,,0,,,60,127
4713,note_off,253,0,0,,4,,,76,127
4766,note_off,53,0,0,,0,,,60,127
4768,note_on,2,0,0,,7,,,79,127
4768,note_on,0,0,0,,2,,,62,127
5074,note_off,306,0,0,,2,,,62,127
5076,note_on,2,0,0,,4,,,64,127
5177,note_off,101,0,0,,7,,,79,127
5179,note_on,2,0,0,,5,,,77,127
5280,note_off,101,0,0,,5,,,77,127
5282,note_on,2,0,0,,4,,,76,127
5383,note_off,101,0,0,,4,,,76,127
5383,note_off,0,0,0,,4,,,64,127
5385,note_on,2,0,0,,2,,,74,127
5385,note_on,0,0,0,,5,,,65,127
5691,note_off,306,0,0,,5,,,65,127
5691,note_off,0,0,0,,2,,,74,127
5693,note_on,2,0,0,,10,,,69,127
5693,note_on,0,0,0,,6,,,66,127
5999,note_off,306,0,0,,6,,,66,127
5999,note_off,0,0,0,,10,,,69,127
6001,note_on,2,0,0,,0,,,72,127
6001,note_on,0,0,0,,7,,,67,127
6078,note_on,77,0,0,,12,,,71,127
6084,note_off,6,0,0,,0,,,72,127
6154,note_on,70,0,0,,0,,,72,127
6160,note_off,6,0,0,,12,,,71,127
6230,note_on,70,0,0,,12,,,71,127
6236,note_off,6,0,0,,0,,,72,127
6305,note_off,69,0,0,,7,,,67,127
6307,note_on,2,0,0,,0,,,72,127
6307,note_on,0,0,0,,5,,,65,127
6313,note_off,6,0,0,,12,,,71,127
6383,note_on,70,0,0,,12,,,71,127
6389,note_off,6,0,0,,0,,,72,127
6459,note_on,70,0,0,,10,,,69,127
6465,note_off,6,0,0,,12,,,71,127
6535,note_on,70,0,0,,12,,,71,127
6541,note_off,6,0,0,,10,,,69,127
6608,note_off,67,0,0,,5,,,65,127
6611,note_on,3,0,0,,0,,,72,127
6617,note_off,6,0,0,,12,,,71,127
6918,note_on,301,0,0,,4,,,64,127
7219,note_off,301,0,0,,0,,,72,127
7224,note_off,5,0,0,,4,,,64,127
7226,note_on,2,0,0,,2,,,62,127
7532,note_off,306,0,0,,2,,,62,127
7534,note_on,2,0,0,,0,,,84,127
7534,note_on,0,0,0,,0,,,60,127
7840,note_off,306,0,0,,0,,,84,127
7842,note_on,2,0,0,,4,,,76,127
7996,note_off,154,0,0,,0,,,60,127
8148,note_off,152,0,0,,4,,,76,127
8150,note_on,2,0,0,,5,,,77,127
8150,note_on,0,0,0,,2,,,62,127
8456,note_off,306,0,0,,2,,,62,127
8458,note_on,2,0,0,,12,,,59,127
8599,note_off,141,0,0,,5,,,77,127
8764,note_off,165,0,0,,12,,,59,127
8766,note_on,2,0,0,,2,,,86,127
8766,note_on,0,0,0,,7,,,55,127
9072,note_off,306,0,0,,2,,,86,127
9074,note_on,2,0,0,,2,,,74,127
9228,note_off,154,0,0,,7,,,55,127
9380,note_off,152,0,0,,2,,,74,127
9382,note_on,2,0,0,,4,,,76,127
9382,note_on,0,0,0,,0,,,60,127
9688,note_off,306,0,0,,0,,,60,127
9690,note_on,2,0,0,,4,,,64,127
9831,note_off,141,0,0,,4,,,76,127
9996,note_off,165,0,0,,4,,,64,127
9998,note_on,2,0,0,,0,,,84,127
9998,note_on,0,0,0,,0,,,60,127
10304,note_off,306,0,0,,0,,,84,127
10306,note_on,2,0,0,,0,,,72,127
10460,note_off,154,0,0,,0,,,60,127
10612,note_off,152,0,0,,0,,,72,127
10614,note_on,2,0,0,,10,,,81,127
10614,note_on,0,0,0,,5,,,65,127
10920,note_off,306,0,0,,5,,,65,127
10922,note_on,2,0,0,,10,,,69,127
11223,note_off,301,0,0,,10,,,81,127
11228,note_off,5,0,0,,10,,,69,127
11230,note_on,2,0,0,,0,,,72,127
11230,note_on,0,0,0,,5,,,65,127
11536,note_off,306,0,0,,5,,,65,127
11536,note_off,0,0,0,,0,,,72,127
11538,note_on,2,0,0,,0,,,72,127
11538,note_on,0,0,0,,7,,,67,127
11615,note_on,77,0,0,,12,,,71,127
11621,note_off,6,0,0,,0,,,72,127
11691,note_on,70,0,0,,0,,,72,127
11697,note_off,6,0,0,,12,,,71,127
11767,note_on,70,0,0,,12,,,71,127
11773,note_off,6,0,0,,0,,,72,127
11842,note_off,69,0,0,,7,,,67,127
11844,note_on,2,0,0,,2,,,62,127
11996,note_off,152,0,0,,12,,,71,127
11998,note_on,2,0,0,,10,,,69,127
12150,note_off,152,0,0,,10,,,69,127
12150,note_off,0,0,0,,2,,,62,127
12152,note_on,2,0,0,,7,,,67,127
12152,note_on,0,0,0,,7,,,55,127
12458,note_off,306,0,0,,7,,,67,127
12460,note_on,2,0,0,,2,,,74,127
12766,note_off,306,0,0,,2,,,74,127
12768,note_on,2,0,0,,5,,,65,127
12858,note_off,90,0,0,,7,,,55,127
13074,note_off,216,0,0,,5,,,65,127
13076,note_on,2,0,0,,5,,,77,127
13076,note_on,0,0,0,,2,,,62,127
13382,note_off,306,0,0,,2,,,62,127
13384,note_on,2,0,0,,12,,,59,127
13669,note_off,285,0,0,,5,,,77,127
13690,note_off,21,0,0,,12,,,59,127
13692,note_on,2,0,0,,4,,,76,127
13692,note_on,0,0,0,,0,,,60,127
13998,note_off,306,0,0,,4,,,76,127
14000,note_on,2,0,0,,10,,,69,127
14154,note_off,154,0,0,,0,,,60,127
14306,note_off,152,0,0,,10,,,69,127
14308,note_on,2,0,0,,10,,,81,127
14308,note_on,0,0,0,,5,,,53,127
14615,note_on,307,0,0,,5,,,65,127
14724,note_off,109,0,0,,5,,,53,127
14916,note_off,192,0,0,,10,,,81,127
14921,note_off,5,0,0,,5,,,65,127
14923,note_on,2,0,0,,7,,,79,127
14923,note_on,0,0,0,,4,,,64,127
15229,note_off,306,0,0,,4,,,64,127
15231,note_on,2,0,0,,12,,,71,127
15231,note_on,0,0,0,,2,,,62,127
15468,note_off,237,0,0,,7,,,79,127
15537,note_off,69,0,0,,2,,,62,127
15537,note_off,0,0,0,,12,,,71,127
15539,note_on,2,0,0,,5,,,77,127
15539,note_on,0,0,0,,0,,,60,127
15640,note_off,101,0,0,,5,,,77,127
15642,note_on,2,0,0,,4,,,76,127
15743,note_off,101,0,0,,4,,,76,127
15745,note_on,2,0,0,,2,,,74,127
15846,note_off,101,0,0,,2,,,74,127
15846,note_off,0,0,0,,0,,,60,127
15848,note_on,2,0,0,,0,,,72,127
15848,note_on,0,0,0,,4,,,76,127
15848,note_on,0,0,0,,7,,,67,127
16154,note_off,306,0,0,,4,,,76,127
16154,note_off,0,0,0,,0,,,72,127
16156,note_on,2,0,0,,2,,,74,127
16156,note_on,0,0,0,,12,,,71,127
16156,note_on,0,0,0,,7,,,55,127
16457,note_off,301,0,0,,7,,,67,127
16462,note_off,5,0,0,,7,,,55,127
16462,note_off,0,0,0,,12,,,71,127
16462,note_off,0,0,0,,2,,,74,127
16473,note_on,11,0,0,,0,,,72,127
16473,note_on,0,0,0,,0,,,60,127
16825,note_on,352,0,0,,0,,,48,127
16934,note_off,109,0,0,,0,,,60,127
17251,note_on,317,0,0,,0,,,36,127
17561,note_off,310,0,0,,0,,,72,127
17753,note_off,192,0,0,,0,,,48,127
18275,note_off,522,0,0,,0,,,36,127
18461,note_on,186,0,0,,3,,,75,127
18770,note_on,309,0,0,,7,,,79,127
18772,note_off,2,0,0,,3,,,75,127
18873,note_off,101,0,0,,7,,,79,127
18875,note_on,2,0,0,,5,,,77,127
18977,note_off,102,0,0,,5,,,77,127
18979,note_on,2,0,0,,3,,,75,127
19081,note_off,102,0,0,,3,,,75,127
19081,note_on,0,0,0,,3,,,75,127
19081,note_on,0,0,0,,0,,,60,127
19391,note_off,310,0,0,,0,,,60,127
19391,note_on,0,0,0,,3,,,63,127
19701,note_off,310,0,0,,3,,,63,127
19701,note_on,0,0,0,,2,,,74,127
19701,note_on,0,0,0,,7,,,67,127
19704,note_off,3,0,0,,3,,,75,127
20011,note_off,307,0,0,,2,,,74,127
20011,note_on,0,0,0,,0,,,72,127
20169,note_off,158,0,0,,7,,,67,127
20321,note_on,152,0,0,,8,,,68,127
20631,note_off,310,0,0,,8,,,68,127
20631,note_on,0,0,0,,0,,,84,127
20631,note_on,0,0,0,,7,,,67,127
20634,note_off,3,0,0,,0,,,72,127
20941,note_off,307,0,0,,7,,,67,127
20941,note_on,0,0,0,,5,,,65,127
21045,note_on,104,0,0,,11,,,82,127
21047,note_off,2,0,0,,0,,,84,127
21148,note_off,101,0,0,,11,,,82,127
21148,note_on,0,0,0,,8,,,80,127
21250,note_off,102,0,0,,8,,,80,127
21252,note_off,2,0,0,,5,,,65,127
21252,note_on,0,0,0,,7,,,79,127
21252,note_on,0,0,0,,3,,,63,127
21562,note_off,310,0,0,,3,,,63,127
21562,note_off,0,0,0,,7,,,79,127
21562,note_on,0,0,0,,0,,,84,127
21562,note_on,0,0,0,,0,,,60,127
21872,note_off,310,0,0,,0,,,60,127
21872,note_off,0,0,0,,0,,,84,127
21872,note_on,0,0,0,,7,,,79,127
21872,note_on,0,0,0,,5,,,65,127
21872,note_on,0,0,0,,2,,,62,127
21949,note_on,77,0,0,,5,,,77,127
21957,note_off,8,0,0,,7,,,79,127
22027,note_on,70,0,0,,7,,,79,127
22033,note_off,6,0,0,,5,,,77,127
22103,note_on,70,0,0,,5,,,77,127
22111,note_off,8,0,0,,7,,,79,127
22181,note_off,70,0,0,,2,,,62,127
22181,note_on,0,0,0,,7,,,79,127
22181,note_on,0,0,0,,7,,,55,127
22187,note_off,6,0,0,,5,,,77,127
22257,note_on,70,0,0,,5,,,77,127
22265,note_off,8,0,0,,7,,,79,127
22335,note_on,70,0,0,,3,,,75,127
22341,note_off,6,0,0,,5,,,77,127
22411,note_on,70,0,0,,5,,,77,127
22419,note_off,8,0,0,,3,,,75,127
22488,note_on,69,0,0,,3,,,75,127
22488,note_on,0,0,0,,0,,,60,127
22490,note_off,2,0,0,,7,,,55,127
22493,note_off,3,0,0,,5,,,65,127
22496,note_off,3,0,0,,5,,,77,127
22798,note_on,302,0,0,,0,,,48,127
23096,note_off,298,0,0,,3,,,75,127
23109,note_on,13,0,0,,3,,,75,127
23211,note_off,102,0,0,,3,,,75,127
23213,note_on,2,0,0,,5,,,77,127
23267,note_off,54,0,0,,0,,,48,127
23315,note_off,48,0,0,,5,,,77,127
23317,note_on,2,0,0,,7,,,79,127
23336,note_off,19,0,0,,0,,,60,127
23419,note_on,83,0,0,,3,,,63,127
23523,note_off,104,0,0,,7,,,79,127
23523,note_on,0,0,0,,5,,,77,127
23625,note_off,102,0,0,,5,,,77,127
23627,note_on,2,0,0,,3,,,75,127
23729,note_off,102,0,0,,3,,,75,127
23729,note_off,0,0,0,,3,,,63,127
23729,note_on,0,0,0,,2,,,74,127
23729,note_on,0,0,0,,5,,,65,127
24039,note_off,310,0,0,,5,,,65,127
24039,note_off,0,0,0,,2,,,74,127
24039,note_on,0,0,0,,12,,,71,127
24039,note_on,0,0,0,,7,,,67,127
24349,note_off,310,0,0,,7,,,67,127
24349,note_off,0,0,0,,12,,,71,127
24349,note_on,0,0,0,,2,,,74,127
24349,note_on,0,0,0,,8,,,68,127
24426,note_on,77,0,0,,0,,,72,127
24434,note_off,8,0,0,,2,,,74,127
24504,note_on,70,0,0,,2,,,74,127
24510,note_off,6,0,0,,0,,,72,127
24580,note_on,70,0,0,,0,,,72,127
24588,note_off,8,0,0,,2,,,74,127
24658,note_on,70,0,0,,2,,,74,127
24658,note_on,0,0,0,,8,,,56,127
24664,note_off,6,0,0,,0,,,72,127
24734,note_on,70,0,0,,0,,,72,127
24742,note_off,8,0,0,,2,,,74,127
24803,note_off,61,0,0,,8,,,68,127
24813,note_on,10,0,0,,12,,,71,127
24819,note_off,6,0,0,,0,,,72,127
24889,note_on,70,0,0,,0,,,72,127
24897,note_off,8,0,0,,12,,,71,127
24967,note_off,70,0,0,,8,,,56,127
24967,note_on,0,0,0,,2,,,74,127
24967,note_on,0,0,0,,7,,,55,127
24973,note_off,6,0,0,,0,,,72,127
25290,note_on,317,0,0,,12,,,59,127
25620,note_on,330,0,0,,7,,,67,127
25681,note_off,61,0,0,,12,,,59,127
25750,note_off,69,0,0,,2,,,74,127
25905,note_off,155,0,0,,7,,,55,127
25958,note_on,53,0,0,,2,,,74,127
26248,note_off,290,0,0,,2,,,74,127
26251,note_on,3,0,0,,2,,,74,127
26352,note_off,101,0,0,,2,,,74,127
26354,note_on,2,0,0,,4,,,76,127
26372,note_off,18,0,0,,7,,,67,127
26455,note_off,83,0,0,,4,,,76,127
26457,note_on,2,0,0,,6,,,78,127
26558,note_off,101,0,0,,6,,,78,127
26560,note_on,2,0,0,,7,,,79,127
26560,note_on,0,0,0,,12,,,71,127
26560,note_on,0,0,0,,2,,,62,127
26661,note_off,101,0,0,,7,,,79,127
26663,note_on,2,0,0,,10,,,81,127
26764,note_off,101,0,0,,10,,,81,127
26766,note_on,2,0,0,,12,,,83,127
26867,note_off,101,0,0,,12,,,83,127
26867,note_off,0,0,0,,2,,,62,127
26867,note_off,0,0,0,,12,,,71,127
26869,note_on,2,0,0,,7,,,79,127
26869,note_on,0,0,0,,12,,,71,127
26869,note_on,0,0,0,,2,,,62,127
27175,note_off,306,0,0,,2,,,62,127
27175,note_off,0,0,0,,12,,,71,127
27175,note_off,0,0,0,,7,,,79,127
27177,note_on,2,0,0,,2,,,74,127
27177,note_on,0,0,0,,12,,,71,127
27177,note_on,0,0,0,,2,,,62,127
27483,note_off,306,0,0,,2,,,74,127
27485,note_on,2,0,0,,4,,,76,127
27562,note_on,77,0,0,,2,,,74,127
27568,note_off,6,0,0,,4,,,76,127
27638,note_on,70,0,0,,4,,,76,127
27644,note_off,6,0,0,,2,,,74,127
27689,note_off,45,0,0,,2,,,62,127
27689,note_off,0,0,0,,12,,,71,127
27715,note_on,26,0,0,,2,,,74,127
27721,note_off,6,0,0,,4,,,76,127
27791,note_on,70,0,0,,0,,,72,127
27791,note_on,0,0,0,,10,,,69,127
27791,note_on,0,0,0,,2,,,62,127
27797,note_off,6,0,0,,2,,,74,127
28096,note_off,299,0,0,,2,,,62,127
28096,note_off,0,0,0,,10,,,69,127
28098,note_on,2,0,0,,2,,,62,127
28098,note_on,0,0,0,,10,,,69,127
28239,note_off,141,0,0,,0,,,72,127
28404,note_off,165,0,0,,10,,,69,127
28404,note_off,0,0,0,,2,,,62,127
28406,note_on,2,0,0,,0,,,72,127
28406,note_on,0,0,0,,10,,,69,127
28406,note_on,0,0,0,,2,,,62,127
28712,note_off,306,0,0,,0,,,72,127
28714,note_on,2,0,0,,0,,,72,127
28815,note_off,101,0,0,,0,,,72,127
28817,note_on,2,0,0,,2,,,74,127
28918,note_off,101,0,0,,2,,,74,127
28920,note_on,2,0,0,,4,,,76,127
28952,note_off,32,0,0,,2,,,62,127
28952,note_off,0,0,0,,10,,,69,127
29021,note_off,69,0,0,,4,,,76,127
29023,note_on,2,0,0,,6,,,78,127
29023,note_on,0,0,0,,2,,,62,127
29023,note_on,0,0,0,,10,,,69,127
29124,note_off,101,0,0,,6,,,78,127
29126,note_on,2,0,0,,7,,,79,127
29227,note_off,101,0,0,,7,,,79,127
29229,note_on,2,0,0,,10,,,81,127
29330,note_off,101,0,0,,10,,,81,127
29330,note_off,0,0,0,,10,,,69,127
29330,note_off,0,0,0,,2,,,62,127
29332,note_on,2,0,0,,6,,,78,127
29332,note_on,0,0,0,,10,,,69,127
29332,note_on,0,0,0,,2,,,62,127
29638,note_off,306,0,0,,2,,,62,127
29638,note_off,0,0,0,,10,,,69,127
29638,note_off,0,0,0,,6,,,78,127
29640,note_on,2,0,0,,0,,,72,127
29640,note_on,0,0,0,,10,,,69,127
29640,note_on,0,0,0,,2,,,62,127
29946,note_off,306,0,0,,0,,,72,127
29948,note_on,2,0,0,,2,,,74,127
30025,note_on,77,0,0,,0,,,72,127
30031,note_off,6,0,0,,2,,,74,127
30101,note_on,70,0,0,,2,,,74,127
30107,note_off,6,0,0,,0,,,72,127
30177,note_on,70,0,0,,0,,,72,127
30183,note_off,6,0,0,,2,,,74,127
30199,note_off,16,0,0,,2,,,62,127
30199,note_off,0,0,0,,10,,,69,127
30253,note_on,54,0,0,,12,,,71,127
30253,note_on,0,0,0,,2,,,62,127
30253,note_on,0,0,0,,7,,,67,127
30259,note_off,6,0,0,,0,,,72,127
30558,note_off,299,0,0,,7,,,67,127
30558,note_off,0,0,0,,2,,,62,127
30560,note_on,2,0,0,,2,,,62,127
30560,note_on,0,0,0,,7,,,67,127
30701,note_off,141,0,0,,12,,,71,127
30866,note_off,165,0,0,,7,,,67,127
30866,note_off,0,0,0,,2,,,62,127
30868,note_on,2,0,0,,12,,,71,127
30868,note_on,0,0,0,,2,,,62,127
30868,note_on,0,0,0,,7,,,67,127
31174,note_off,306,0,0,,12,,,71,127
31176,note_on,2,0,0,,12,,,71,127
31277,note_off,101,0,0,,12,,,71,127
31279,note_on,2,0,0,,10,,,69,127
31380,note_off,101,0,0,,10,,,69,127
31382,note_on,2,0,0,,12,,,71,127
31446,note_off,64,0,0,,7,,,67,127
31446,note_off,0,0,0,,2,,,62,127
31483,note_off,37,0,0,,12,,,71,127
31485,note_on,2,0,0,,0,,,72,127
31485,note_on,0,0,0,,4,,,64,127
31485,note_on,0,0,0,,0,,,60,127
31586,note_off,101,0,0,,0,,,72,127
31588,note_on,2,0,0,,2,,,74,127
31689,note_off,101,0,0,,2,,,74,127
31691,note_on,2,0,0,,3,,,75,127
31792,note_off,101,0,0,,3,,,75,127
31792,note_off,0,0,0,,0,,,60,127
31792,note_off,0,0,0,,4,,,64,127
31794,note_on,2,0,0,,4,,,76,127
31794,note_on,0,0,0,,4,,,64,127
31794,note_on,0,0,0,,0,,,60,127
32100,note_off,306,0,0,,0,,,60,127
32100,note_off,0,0,0,,4,,,64,127
32100,note_off,0,0,0,,4,,,76,127
32102,note_on,2,0,0,,12,,,71,127
32102,note_on,0,0,0,,4,,,64,127
32102,note_on,0,0,0,,0,,,60,127
32326,note_off,224,0,0,,12,,,71,127
32409,note_on,83,0,0,,10,,,69,127
32510,note_off,101,0,0,,10,,,69,127
32512,note_on,2,0,0,,7,,,67,127
32613,note_off,101,0,0,,7,,,67,127
32615,note_on,2,0,0,,10,,,69,127
32663,note_off,48,0,0,,0,,,60,127
32663,note_off,0,0,0,,4,,,64,127
32716,note_off,53,0,0,,10,,,69,127
32718,note_on,2,0,0,,12,,,71,127
32718,note_on,0,0,0,,12,,,59,127
32718,note_on,0,0,0,,2,,,62,127
32819,note_off,101,0,0,,12,,,71,127
32821,note_on,2,0,0,,0,,,72,127
32922,note_off,101,0,0,,0,,,72,127
32924,note_on,2,0,0,,1,,,73,127
33025,note_off,101,0,0,,1,,,73,127
33025,note_off,0,0,0,,2,,,62,127
33025,note_off,0,0,0,,12,,,59,127
33027,note_on,2,0,0,,2,,,74,127
33027,note_on,0,0,0,,2,,,62,127
33027,note_on,0,0,0,,12,,,59,127
33333,note_off,306,0,0,,12,,,59,127
33333,note_off,0,0,0,,2,,,62,127
33333,note_off,0,0,0,,2,,,74,127
33335,note_on,2,0,0,,7,,,79,127
33335,note_on,0,0,0,,2,,,62,127
33335,note_on,0,0,0,,12,,,59,127
33607,note_off,272,0,0,,7,,,79,127
33642,note_on,35,0,0,,7,,,79,127
33743,note_off,101,0,0,,7,,,79,127
33745,note_on,2,0,0,,6,,,78,127
33783,note_off,38,0,0,,12,,,59,127
33783,note_off,0,0,0,,2,,,62,127
33845,note_off,62,0,0,,6,,,78,127
33847,note_on,2,0,0,,10,,,81,127
33948,note_off,101,0,0,,10,,,81,127
33950,note_on,2,0,0,,0,,,72,127
33950,note_on,0,0,0,,10,,,57,127
33950,note_on,0,0,0,,0,,,60,127
34256,note_off,306,0,0,,0,,,72,127
34258,note_on,2,0,0,,7,,,79,127
34359,note_off,101,0,0,,7,,,79,127
34361,note_on,2,0,0,,6,,,78,127
34462,note_off,101,0,0,,6,,,78,127
34464,note_on,2,0,0,,10,,,81,127
34565,note_off,101,0,0,,10,,,81,127
34565,note_off,0,0,0,,0,,,60,127
34565,note_off,0,0,0,,10,,,57,127
34567,note_on,2,0,0,,0,,,72,127
34567,note_on,0,0,0,,7,,,55,127
34567,note_on,0,0,0,,0,,,60,127
34873,note_off,306,0,0,,0,,,72,127
34875,note_on,2,0,0,,7,,,79,127
34976,note_off,101,0,0,,7,,,79,127
34978,note_on,2,0,0,,6,,,78,127
35079,note_off,101,0,0,,6,,,78,127
35081,note_on,2,0,0,,10,,,81,127
35182,note_off,101,0,0,,10,,,81,127
35182,note_off,0,0,0,,0,,,60,127
35182,note_off,0,0,0,,7,,,55,127
35184,note_on,2,0,0,,0,,,72,127
35184,note_on,0,0,0,,6,,,54,127
35184,note_on,0,0,0,,0,,,60,127
35490,note_off,306,0,0,,0,,,72,127
35492,note_on,2,0,0,,7,,,79,127
35593,note_off,101,0,0,,7,,,79,127
35595,note_on,2,0,0,,6,,,78,127
35696,note_off,101,0,0,,6,,,78,127
35698,note_on,2,0,0,,10,,,81,127
35799,note_off,101,0,0,,10,,,81,127
35799,note_off,0,0,0,,0,,,60,127
35799,note_off,0,0,0,,6,,,54,127
35801,note_on,2,0,0,,0,,,72,127
35801,note_on,0,0,0,,4,,,52,127
35801,note_on,0,0,0,,0,,,60,127
36107,note_off,306,0,0,,0,,,60,127
36107,note_off,0,0,0,,4,,,52,127
36109,note_on,2,0,0,,0,,,60,127
36109,note_on,0,0,0,,10,,,57,127
36109,note_on,0,0,0,,2,,,50,127
36184,note_off,75,0,0,,0,,,72,127
36186,note_on,2,0,0,,0,,,72,127
36263,note_on,77,0,0,,2,,,74,127
36269,note_off,6,0,0,,0,,,72,127
36339,note_on,70,0,0,,4,,,76,127
36345,note_off,6,0,0,,2,,,74,127
36415,note_on,70,0,0,,6,,,78,127
36421,note_off,6,0,0,,4,,,76,127
36491,note_on,70,0,0,,7,,,79,127
36497,note_off,6,0,0,,6,,,78,127
36567,note_on,70,0,0,,10,,,81,127
36573,note_off,6,0,0,,7,,,79,127
36643,note_on,70,0,0,,12,,,83,127
36649,note_off,6,0,0,,10,,,81,127
36719,note_on,70,0,0,,0,,,84,127
36725,note_off,6,0,0,,12,,,83,127
36871,note_off,146,0,0,,0,,,84,127
36873,note_on,2,0,0,,12,,,83,127
37025,note_off,152,0,0,,12,,,83,127
37027,note_on,2,0,0,,10,,,81,127
37078,note_on,51,0,0,,12,,,83,127
37110,note_off,32,0,0,,10,,,81,127
37129,note_on,19,0,0,,10,,,81,127
37161,note_off,32,0,0,,12,,,83,127
37180,note_on,19,0,0,,7,,,79,127
37212,note_off,32,0,0,,10,,,81,127
37332,note_off,120,0,0,,2,,,50,127
37332,note_off,0,0,0,,10,,,57,127
37332,note_off,0,0,0,,0,,,60,127
37334,note_on,2,0,0,,0,,,60,127
37334,note_on,0,0,0,,10,,,57,127
37334,note_on,0,0,0,,0,,,48,127
37409,note_off,75,0,0,,7,,,79,127
37411,note_on,2,0,0,,0,,,72,127
37488,note_on,77,0,0,,2,,,74,127
37494,note_off,6,0,0,,0,,,72,127
37564,note_on,70,0,0,,4,,,76,127
37570,note_off,6,0,0,,2,,,74,127
37640,note_on,70,0,0,,6,,,78,127
37646,note_off,6,0,0,,4,,,76,127
37716,note_on,70,0,0,,7,,,79,127
37722,note_off,6,0,0,,6,,,78,127
37792,note_on,70,0,0,,10,,,81,127
37798,note_off,6,0,0,,7,,,79,127
37868,note_on,70,0,0,,12,,,83,127
37874,note_off,6,0,0,,10,,,81,127
37944,note_on,70,0,0,,0,,,84,127
37950,note_off,6,0,0,,12,,,83,127
38096,note_off,146,0,0,,0,,,84,127
38098,note_on,2,0,0,,12,,,83,127
38250,note_off,152,0,0,,12,,,83,127
38252,note_on,2,0,0,,10,,,81,127
38303,note_on,51,0,0,,12,,,83,127
38335,note_off,32,0,0,,10,,,81,127
38354,note_on,19,0,0,,10,,,81,127
38386,note_off,32,0,0,,12,,,83,127
38405,note_on,19,0,0,,7,,,79,127
38437,note_off,32,0,0,,10,,,81,127
38557,note_off,120,0,0,,0,,,48,127
38557,note_off,0,0,0,,10,,,57,127
38557,note_off,0,0,0,,0,,,60,127
38559,note_on,2,0,0,,12,,,59,127
38559,note_on,0,0,0,,12,,,47,127
38559,note_on,0,0,0,,7,,,55,127
38634,note_off,75,0,0,,7,,,79,127
38636,note_on,2,0,0,,2,,,74,127
38713,note_on,77,0,0,,4,,,76,127
38719,note_off,6,0,0,,2,,,74,127
38789,note_on,70,0,0,,6,,,78,127
38795,note_off,6,0,0,,4,,,76,127
38865,note_on,70,0,0,,7,,,79,127
38871,note_off,6,0,0,,6,,,78,127
38941,note_on,70,0,0,,10,,,81,127
38947,note_off,6,0,0,,7,,,79,127
39017,note_on,70,0,0,,12,,,83,127
39023,note_off,6,0,0,,10,,,81,127
39093,note_on,70,0,0,,0,,,84,127
39099,note_off,6,0,0,,12,,,83,127
39169,note_on,70,0,0,,2,,,86,127
39175,note_off,6,0,0,,0,,,84,127
39321,note_off,146,0,0,,2,,,86,127
39323,note_on,2,0,0,,12,,,83,127
39475,note_off,152,0,0,,12,,,83,127
39475,note_off,0,0,0,,7,,,55,127
39475,note_off,0,0,0,,12,,,47,127
39475,note_off,0,0,0,,12,,,59,127
39477,note_on,2,0,0,,7,,,79,127
39477,note_on,0,0,0,,12,,,59,127
39629,note_off,152,0,0,,7,,,79,127
39631,note_on,2,0,0,,2,,,74,127
39783,note_off,152,0,0,,2,,,74,127
39783,note_off,0,0,0,,12,,,59,127
39785,note_on,2,0,0,,4,,,76,127
39785,note_on,0,0,0,,0,,,60,127
39937,note_off,152,0,0,,4,,,76,127
39939,note_on,2,0,0,,0,,,72,127
40093,note_on,154,0,0,,0,,,48,127
40194,note_off,101,0,0,,0,,,72,127
40196,note_on,2,0,0,,12,,,71,127
40297,note_off,101,0,0,,12,,,71,127
40299,note_on,2,0,0,,10,,,69,127
40400,note_off,101,0,0,,10,,,69,127
40400,note_off,0,0,0,,0,,,48,127
40400,note_off,0,0,0,,0,,,60,127
40402,note_on,2,0,0,,12,,,71,127
40402,note_on,0,0,0,,7,,,67,127
40402,note_on,0,0,0,,2,,,50,127
40708,note_off,306,0,0,,7,,,67,127
40708,note_off,0,0,0,,12,,,71,127
40710,note_on,2,0,0,,12,,,71,127
40710,note_on,0,0,0,,7,,,67,127
40710,note_on,0,0,0,,2,,,38,127
40787,note_on,77,0,0,,10,,,69,127
40787,note_on,0,0,0,,6,,,66,127
40793,note_off,6,0,0,,7,,,67,127
40793,note_off,0,0,0,,12,,,71,127
40863,note_on,70,0,0,,12,,,71,127
40863,note_on,0,0,0,,7,,,67,127
40869,note_off,6,0,0,,6,,,66,127
40869,note_off,0,0,0,,10,,,69,127
40939,note_on,70,0,0,,10,,,69,127
40939,note_on,0,0,0,,6,,,66,127
40945,note_off,6,0,0,,7,,,67,127
40945,note_off,0,0,0,,12,,,71,127
41014,note_off,69,0,0,,2,,,38,127
41014,note_off,0,0,0,,2,,,50,127
41016,note_on,2,0,0,,7,,,67,127
41016,note_on,0,0,0,,7,,,43,127
41022,note_off,6,0,0,,6,,,66,127
41022,note_off,0,0,0,,10,,,69,127
41190,note_off,168,0,0,,7,,,67,127
41195,note_on,5,0,0,,7,,,79,127
41341,note_on,146,0,0,,5,,,77,127
41347,note_off,6,0,0,,7,,,79,127
41475,note_off,128,0,0,,7,,,43,127
41483,note_off,8,0,0,,5,,,77,127
41488,note_on,5,0,0,,7,,,67,127
41488,note_on,0,0,0,,3,,,75,127
41630,note_off,142,0,0,,3,,,75,127
41630,note_off,0,0,0,,7,,,67,127
41633,note_on,3,0,0,,5,,,65,127
41633,note_on,0,0,0,,2,,,74,127
41775,note_off,142,0,0,,2,,,74,127
41775,note_off,0,0,0,,5,,,65,127
41780,note_on,5,0,0,,3,,,63,127
41780,note_on,0,0,0,,0,,,72,127
41922,note_off,142,0,0,,0,,,72,127
41922,note_off,0,0,0,,3,,,63,127
41925,note_on,3,0,0,,2,,,62,127
41925,note_on,0,0,0,,11,,,70,127
42067,note_off,142,0,0,,11,,,70,127
42067,note_off,0,0,0,,2,,,62,127
42070,note_on,3,0,0,,0,,,60,127
42070,note_on,0,0,0,,0,,,72,127
42120,note_on,50,0,0,,11,,,70,127
42149,note_off,29,0,0,,0,,,72,127
42168,note_on,19,0,0,,0,,,72,127
42198,note_off,30,0,0,,11,,,70,127
42212,note_off,14,0,0,,0,,,60,127
42217,note_on,5,0,0,,11,,,58,127
42217,note_on,0,0,0,,2,,,74,127
42246,note_off,29,0,0,,0,,,72,127
42360,note_off,114,0,0,,2,,,74,127
42376,note_on,16,0,0,,7,,,79,127
42518,note_off,142,0,0,,7,,,79,127
42521,note_on,3,0,0,,5,,,77,127
42649,note_off,128,0,0,,11,,,58,127
42663,note_off,14,0,0,,5,,,77,127
42668,note_on,5,0,0,,7,,,67,127
42668,note_on,0,0,0,,3,,,75,127
42810,note_off,142,0,0,,3,,,75,127
42810,note_off,0,0,0,,7,,,67,127
42813,note_on,3,0,0,,5,,,65,127
42813,note_on,0,0,0,,2,,,74,127
42955,note_off,142,0,0,,2,,,74,127
42955,note_off,0,0,0,,5,,,65,127
42960,note_on,5,0,0,,3,,,63,127
42960,note_on,0,0,0,,0,,,72,127
43102,note_off,142,0,0,,0,,,72,127
43102,note_off,0,0,0,,3,,,63,127
43105,note_on,3,0,0,,2,,,62,127
43105,note_on,0,0,0,,11,,,70,127
43247,note_off,142,0,0,,11,,,70,127
43247,note_off,0,0,0,,2,,,62,127
43250,note_on,3,0,0,,0,,,60,127
43250,note_on,0,0,0,,0,,,72,127
43300,note_on,50,0,0,,11,,,70,127
43329,note_off,29,0,0,,0,,,72,127
43348,note_on,19,0,0,,0,,,72,127
43378,note_off,30,0,0,,11,,,70,127
43392,note_off,14,0,0,,0,,,60,127
43397,note_on,5,0,0,,11,,,58,127
43397,note_on,0,0,0,,2,,,74,127
43426,note_off,29,0,0,,0,,,72,127
43556,note_on,130,0,0,,2,,,86,127
43562,note_off,6,0,0,,2,,,74,127
43698,note_off,136,0,0,,2,,,86,127
43701,note_on,3,0,0,,0,,,84,127
43829,note_off,128,0,0,,11,,,58,127
43843,note_off,14,0,0,,0,,,84,127
43848,note_on,5,0,0,,2,,,62,127
43848,note_on,0,0,0,,11,,,82,127
43990,note_off,142,0,0,,11,,,82,127
43990,note_off,0,0,0,,2,,,62,127
43993,note_on,3,0,0,,0,,,60,127
43993,note_on,0,0,0,,10,,,81,127
44135,note_off,142,0,0,,10,,,81,127
44135,note_off,0,0,0,,0,,,60,127
44140,note_on,5,0,0,,11,,,58,127
44140,note_on,0,0,0,,7,,,79,127
44282,note_off,142,0,0,,7,,,79,127
44282,note_off,0,0,0,,11,,,58,127
44285,note_on,3,0,0,,10,,,57,127
44285,note_on,0,0,0,,6,,,78,127
44427,note_off,142,0,0,,6,,,78,127
44427,note_off,0,0,0,,10,,,57,127
44430,note_on,3,0,0,,7,,,55,127
44430,note_on,0,0,0,,7,,,79,127
44480,note_on,50,0,0,,6,,,78,127
44509,note_off,29,0,0,,7,,,79,127
44528,note_on,19,0,0,,7,,,79,127
44558,note_off,30,0,0,,6,,,78,127
44572,note_off,14,0,0,,7,,,55,127
44577,note_on,5,0,0,,6,,,54,127
44577,note_on,0,0,0,,10,,,81,127
44606,note_off,29,0,0,,7,,,79,127
44720,note_off,114,0,0,,10,,,81,127
44723,note_on,3,0,0,,2,,,86,127
44865,note_off,142,0,0,,2,,,86,127
44870,note_on,5,0,0,,0,,,84,127
45009,note_off,139,0,0,,6,,,54,127
45012,note_off,3,0,0,,0,,,84,127
45015,note_on,3,0,0,,2,,,74,127
45015,note_on,0,0,0,,11,,,82,127
45157,note_off,142,0,0,,11,,,82,127
45157,note_off,0,0,0,,2,,,74,127
45162,note_on,5,0,0,,0,,,72,127
45162,note_on,0,0,0,,10,,,81,127
45304,note_off,142,0,0,,10,,,81,127
45304,note_off,0,0,0,,0,,,72,127
45307,note_on,3,0,0,,11,,,70,127
45307,note_on,0,0,0,,7,,,79,127
45449,note_off,142,0,0,,7,,,79,127
45449,note_off,0,0,0,,11,,,70,127
45452,note_on,3,0,0,,10,,,69,127
45452,note_on,0,0,0,,6,,,78,127
45594,note_off,142,0,0,,6,,,78,127
45594,note_off,0,0,0,,10,,,69,127
45599,note_on,5,0,0,,7,,,67,127
45599,note_on,0,0,0,,7,,,79,127
45647,note_on,48,0,0,,6,,,78,127
45677,note_off,30,0,0,,7,,,79,127
45696,note_on,19,0,0,,7,,,79,127
45725,note_off,29,0,0,,6,,,78,127
45741,note_off,16,0,0,,7,,,67,127
45754,note_off,13,0,0,,7,,,79,127
45757,note_on,3,0,0,,6,,,66,127
45903,note_on,146,0,0,,6,,,78,127
45903,note_on,0,0,0,,10,,,81,127
46045,note_off,142,0,0,,10,,,81,127
46045,note_off,0,0,0,,6,,,78,127
46050,note_on,5,0,0,,6,,,78,127
46050,note_on,0,0,0,,10,,,81,127
46192,note_off,142,0,0,,10,,,81,127
46192,note_off,0,0,0,,6,,,78,127
46195,note_on,3,0,0,,12,,,83,127
46195,note_on,0,0,0,,7,,,79,127
46334,note_off,139,0,0,,6,,,66,127
46342,note_on,8,0,0,,4,,,64,127
46465,note_off,123,0,0,,7,,,79,127
46465,note_off,0,0,0,,12,,,83,127
46487,note_on,22,0,0,,7,,,79,127
46487,note_on,0,0,0,,12,,,83,127
46629,note_off,142,0,0,,12,,,83,127
46629,note_off,0,0,0,,7,,,79,127
46634,note_on,5,0,0,,7,,,79,127
46634,note_on,0,0,0,,12,,,83,127
46776,note_off,142,0,0,,12,,,83,127
46776,note_off,0,0,0,,7,,,79,127
46779,note_on,3,0,0,,0,,,84,127
46779,note_on,0,0,0,,10,,,81,127
46918,note_off,139,0,0,,4,,,64,127
46950,note_on,32,0,0,,2,,,62,127
46950,note_on,0,0,0,,10,,,57,127
46950,note_on,0,0,0,,2,,,50,127
46960,note_off,10,0,0,,10,,,81,127
46960,note_off,0,0,0,,0,,,84,127
47022,note_on,62,0,0,,0,,,72,127
47096,note_on,74,0,0,,2,,,74,127
47101,note_off,5,0,0,,0,,,72,127
47170,note_on,69,0,0,,4,,,76,127
47175,note_off,5,0,0,,2,,,74,127
47242,note_on,67,0,0,,6,,,78,127
47248,note_off,6,0,0,,4,,,76,127
47315,note_on,67,0,0,,7,,,79,127
47320,note_off,5,0,0,,6,,,78,127
47389,note_on,69,0,0,,10,,,81,127
47394,note_off,5,0,0,,7,,,79,127
47463,note_on,69,0,0,,12,,,83,127
47468,note_off,5,0,0,,10,,,81,127
47535,note_on,67,0,0,,0,,,84,127
47541,note_off,6,0,0,,12,,,83,127
47677,note_off,136,0,0,,0,,,84,127
47682,note_on,5,0,0,,12,,,83,127
47824,note_off,142,0,0,,12,,,83,127
47827,note_on,3,0,0,,10,,,81,127
47877,note_on,50,0,0,,12,,,83,127
47906,note_off,29,0,0,,10,,,81,127
47925,note_on,19,0,0,,10,,,81,127
47955,note_off,30,0,0,,12,,,83,127
47974,note_on,19,0,0,,7,,,79,127
48003,note_off,29,0,0,,10,,,81,127
48107,note_off,104,0,0,,2,,,50,127
48107,note_off,0,0,0,,10,,,57,127
48107,note_off,0,0,0,,2,,,62,127
48117,note_off,10,0,0,,7,,,79,127
48133,note_on,16,0,0,,0,,,60,127
48133,note_on,0,0,0,,10,,,57,127
48133,note_on,0,0,0,,0,,,48,127
48205,note_on,72,0,0,,0,,,72,127
48279,note_on,74,0,0,,2,,,74,127
48284,note_off,5,0,0,,0,,,72,127
48353,note_on,69,0,0,,4,,,76,127
48358,note_off,5,0,0,,2,,,74,127
48427,note_on,69,0,0,,6,,,78,127
48432,note_off,5,0,0,,4,,,76,127
48499,note_on,67,0,0,,7,,,79,127
48505,note_off,6,0,0,,6,,,78,127
48572,note_on,67,0,0,,10,,,81,127
48577,note_off,5,0,0,,7,,,79,127
48646,note_on,69,0,0,,12,,,83,127
48651,note_off,5,0,0,,10,,,81,127
48718,note_on,67,0,0,,0,,,84,127
48724,note_off,6,0,0,,12,,,83,127
48860,note_off,136,0,0,,0,,,84,127
48865,note_on,5,0,0,,12,,,83,127
49007,note_off,142,0,0,,12,,,83,127
49010,note_on,3,0,0,,10,,,81,127
49060,note_on,50,0,0,,12,,,83,127
49089,note_off,29,0,0,,10,,,81,127
49108,note_on,19,0,0,,10,,,81,127
49138,note_off,30,0,0,,12,,,83,127
49157,note_on,19,0,0,,7,,,79,127
49186,note_off,29,0,0,,10,,,81,127
49290,note_off,104,0,0,,0,,,48,127
49290,note_off,0,0,0,,10,,,57,127
49290,note_off,0,0,0,,0,,,60,127
49300,note_off,10,0,0,,7,,,79,127
49316,note_on,16,0,0,,12,,,59,127
49316,note_on,0,0,0,,12,,,47,127
49316,note_on,0,0,0,,7,,,55,127
49364,note_on,48,0,0,,2,,,74,127
49438,note_on,74,0,0,,4,,,76,127
49443,note_off,5,0,0,,2,,,74,127
49512,note_on,69,0,0,,6,,,78,127
49517,note_off,5,0,0,,4,,,76,127
49584,note_on,67,0,0,,7,,,79,127
49590,note_off,6,0,0,,6,,,78,127
49657,note_on,67,0,0,,10,,,81,127
49662,note_off,5,0,0,,7,,,79,127
49731,note_on,69,0,0,,12,,,83,127
49736,note_off,5,0,0,,10,,,81,127
49803,note_on,67,0,0,,0,,,84,127
49809,note_off,6,0,0,,12,,,83,127
49876,note_on,67,0,0,,2,,,86,127
49881,note_off,5,0,0,,0,,,84,127
50019,note_off,138,0,0,,2,,,86,127
50024,note_on,5,0,0,,12,,,83,127
50157,note_off,133,0,0,,12,,,59,127
50167,note_off,10,0,0,,12,,,83,127
50170,note_on,3,0,0,,12,,,59,127
50170,note_on,0,0,0,,7,,,79,127
50184,note_off,14,0,0,,7,,,55,127
50184,note_off,0,0,0,,12,,,47,127
50312,note_off,128,0,0,,7,,,79,127
50315,note_on,3,0,0,,2,,,74,127
50457,note_off,142,0,0,,2,,,74,127
50457,note_off,0,0,0,,12,,,59,127
50462,note_on,5,0,0,,0,,,60,127
50462,note_on,0,0,0,,4,,,76,127
50604,note_off,142,0,0,,4,,,76,127
50607,note_on,3,0,0,,0,,,72,127
50749,note_off,142,0,0,,0,,,60,127
50754,note_on,5,0,0,,0,,,60,127
50847,note_off,93,0,0,,0,,,72,127
50852,note_on,5,0,0,,12,,,71,127
50946,note_off,94,0,0,,12,,,71,127
50949,note_on,3,0,0,,10,,,69,127
51042,note_off,93,0,0,,0,,,60,127
51044,note_off,2,0,0,,10,,,69,127
51047,note_on,3,0,0,,2,,,62,127
51047,note_on,0,0,0,,7,,,67,127
51047,note_on,0,0,0,,12,,,71,127
51335,note_off,288,0,0,,12,,,71,127
51335,note_off,0,0,0,,7,,,67,127
51335,note_off,0,0,0,,2,,,62,127
51338,note_on,3,0,0,,2,,,62,127
51338,note_on,0,0,0,,7,,,67,127
51338,note_on,0,0,0,,12,,,71,127
51412,note_on,74,0,0,,6,,,66,127
51412,note_on,0,0,0,,10,,,69,127
51417,note_off,5,0,0,,12,,,71,127
51417,note_off,0,0,0,,7,,,67,127
51486,note_on,69,0,0,,7,,,67,127
51486,note_on,0,0,0,,12,,,71,127
51491,note_off,5,0,0,,10,,,69,127
51491,note_off,0,0,0,,6,,,66,127
51560,note_on,69,0,0,,6,,,66,127
51560,note_on,0,0,0,,10,,,69,127
51565,note_off,5,0,0,,12,,,71,127
51565,note_off,0,0,0,,7,,,67,127
51626,note_off,61,0,0,,2,,,62,127
51639,note_off,13,0,0,,10,,,69,127
51639,note_off,0,0,0,,6,,,66,127
51658,note_on,19,0,0,,4,,,76,127
51800,note_off,142,0,0,,4,,,76,127
51803,note_on,3,0,0,,0,,,72,127
51949,note_on,146,0,0,,0,,,60,127
52043,note_off,94,0,0,,0,,,72,127
52046,note_on,3,0,0,,12,,,71,127
52140,note_off,94,0,0,,12,,,71,127
52143,note_on,3,0,0,,10,,,69,127
52236,note_off,93,0,0,,0,,,60,127
52238,note_off,2,0,0,,10,,,69,127
52241,note_on,3,0,0,,12,,,71,127
52241,note_on,0,0,0,,7,,,67,127
52241,note_on,0,0,0,,2,,,62,127
52529,note_off,288,0,0,,2,,,62,127
52529,note_off,0,0,0,,7,,,67,127
52529,note_off,0,0,0,,12,,,71,127
52534,note_on,5,0,0,,12,,,71,127
52534,note_on,0,0,0,,7,,,67,127
52534,note_on,0,0,0,,2,,,62,127
52608,note_on,74,0,0,,6,,,66,127
52608,note_on,0,0,0,,10,,,69,127
52613,note_off,5,0,0,,7,,,67,127
52613,note_off,0,0,0,,12,,,71,127
52682,note_on,69,0,0,,12,,,71,127
52682,note_on,0,0,0,,7,,,67,127
52687,note_off,5,0,0,,10,,,69,127
52687,note_off,0,0,0,,6,,,66,127
52754,note_on,67,0,0,,10,,,69,127
52754,note_on,0,0,0,,6,,,66,127
52760,note_off,6,0,0,,7,,,67,127
52760,note_off,0,0,0,,12,,,71,127
52813,note_off,53,0,0,,10,,,69,127
52827,note_on,14,0,0,,10,,,69,127
52832,note_off,5,0,0,,6,,,66,127
52896,note_off,64,0,0,,2,,,62,127
52901,note_on,5,0,0,,7,,,67,127
52906,note_off,5,0,0,,10,,,69,127
52973,note_on,67,0,0,,12,,,71,127
52979,note_off,6,0,0,,7,,,67,127
53046,note_on,67,0,0,,10,,,69,127
53051,note_off,5,0,0,,12,,,71,127
53120,note_on,69,0,0,,0,,,72,127
53120,note_on,0,0,0,,0,,,60,127
53125,note_off,5,0,0,,10,,,69,127
53194,note_on,69,0,0,,12,,,71,127
53199,note_off,5,0,0,,0,,,72,127
53266,note_on,67,0,0,,2,,,74,127
53272,note_off,6,0,0,,12,,,71,127
53339,note_on,67,0,0,,0,,,72,127
53344,note_off,5,0,0,,2,,,74,127
53408,note_off,64,0,0,,0,,,60,127
53413,note_on,5,0,0,,12,,,71,127
53413,note_on,0,0,0,,7,,,67,127
53413,note_on,0,0,0,,2,,,62,127
53418,note_off,5,0,0,,0,,,72,127
53701,note_off,283,0,0,,2,,,62,127
53701,note_off,0,0,0,,7,,,67,127
53701,note_off,0,0,0,,12,,,71,127
53706,note_on,5,0,0,,12,,,71,127
53706,note_on,0,0,0,,7,,,67,127
53706,note_on,0,0,0,,2,,,62,127
53778,note_on,72,0,0,,10,,,69,127
53778,note_on,0,0,0,,6,,,66,127
53784,note_off,6,0,0,,7,,,67,127
53784,note_off,0,0,0,,12,,,71,127
53851,note_on,67,0,0,,12,,,71,127
53851,note_on,0,0,0,,7,,,67,127
53856,note_off,5,0,0,,6,,,66,127
53856,note_off,0,0,0,,10,,,69,127
53925,note_on,69,0,0,,10,,,69,127
53925,note_on,0,0,0,,6,,,66,127
53930,note_off,5,0,0,,7,,,67,127
53930,note_off,0,0,0,,12,,,71,127
54004,note_off,74,0,0,,6,,,66,127
54071,note_on,67,0,0,,7,,,67,127
54076,note_off,5,0,0,,10,,,69,127
54145,note_on,69,0,0,,12,,,71,127
54150,note_off,5,0,0,,7,,,67,127
54160,note_off,10,0,0,,2,,,62,127
54219,note_on,59,0,0,,10,,,69,127
54224,note_off,5,0,0,,12,,,71,127
54291,note_on,67,0,0,,0,,,72,127
54291,note_on,0,0,0,,0,,,60,127
54297,note_off,6,0,0,,10,,,69,127
54364,note_on,67,0,0,,12,,,71,127
54369,note_off,5,0,0,,0,,,72,127
54438,note_on,69,0,0,,2,,,74,127
54443,note_off,5,0,0,,12,,,71,127
54510,note_on,67,0,0,,0,,,72,127
54516,note_off,6,0,0,,2,,,74,127
54578,note_off,62,0,0,,0,,,60,127
54583,note_on,5,0,0,,12,,,71,127
54583,note_on,0,0,0,,7,,,67,127
54583,note_on,0,0,0,,2,,,62,127
54588,note_off,5,0,0,,0,,,72,127
54871,note_off,283,0,0,,2,,,62,127
54871,note_off,0,0,0,,7,,,67,127
54871,note_off,0,0,0,,12,,,71,127
54876,note_on,5,0,0,,12,,,71,127
54876,note_on,0,0,0,,7,,,67,127
54876,note_on,0,0,0,,0,,,60,127
54950,note_on,74,0,0,,10,,,69,127
54950,note_on,0,0,0,,6,,,66,127
54955,note_off,5,0,0,,7,,,67,127
54955,note_off,0,0,0,,12,,,71,127
55022,note_on,67,0,0,,7,,,67,127
55022,note_on,0,0,0,,12,,,71,127
55028,note_off,6,0,0,,6,,,66,127
55028,note_off,0,0,0,,10,,,69,127
55095,note_on,67,0,0,,6,,,66,127
55095,note_on,0,0,0,,10,,,69,127
55100,note_off,5,0,0,,12,,,71,127
55100,note_off,0,0,0,,7,,,67,127
55164,note_off,64,0,0,,0,,,60,127
55174,note_off,10,0,0,,10,,,69,127
55174,note_off,0,0,0,,6,,,66,127
55193,note_on,19,0,0,,12,,,59,127
55193,note_on,0,0,0,,7,,,79,127
55335,note_off,142,0,0,,7,,,79,127
55340,note_on,5,0,0,,2,,,74,127
55481,note_off,141,0,0,,12,,,59,127
55483,note_off,2,0,0,,2,,,74,127
55486,note_on,3,0,0,,0,,,60,127
55486,note_on,0,0,0,,0,,,72,127
55580,note_off,94,0,0,,0,,,72,127
55583,note_on,3,0,0,,12,,,71,127
55677,note_off,94,0,0,,12,,,71,127
55680,note_on,3,0,0,,10,,,69,127
55773,note_off,93,0,0,,0,,,60,127
55775,note_off,2,0,0,,10,,,69,127
55778,note_on,3,0,0,,2,,,62,127
55778,note_on,0,0,0,,7,,,67,127
55778,note_on,0,0,0,,12,,,71,127
56066,note_off,288,0,0,,12,,,71,127
56066,note_off,0,0,0,,7,,,67,127
56071,note_on,5,0,0,,2,,,50,127
56071,note_on,0,0,0,,7,,,67,127
56071,note_on,0,0,0,,12,,,71,127
56143,note_on,72,0,0,,6,,,66,127
56143,note_on,0,0,0,,10,,,69,127
56149,note_off,6,0,0,,12,,,71,127
56149,note_off,0,0,0,,7,,,67,127
56211,note_off,62,0,0,,2,,,62,127
56216,note_on,5,0,0,,7,,,67,127
56216,note_on,0,0,0,,12,,,71,127
56221,note_off,5,0,0,,10,,,69,127
56221,note_off,0,0,0,,6,,,66,127
56290,note_on,69,0,0,,6,,,66,127
56290,note_on,0,0,0,,10,,,69,127
56295,note_off,5,0,0,,12,,,71,127
56295,note_off,0,0,0,,7,,,67,127
56359,note_off,64,0,0,,2,,,50,127
56364,note_on,5,0,0,,7,,,43,127
56364,note_on,0,0,0,,7,,,67,127
56369,note_off,5,0,0,,10,,,69,127
56369,note_off,0,0,0,,6,,,66,127
57231,note_off,862,0,0,,7,,,67,127
57231,note_off,0,0,0,,7,,,43,127
57369,note_on,138,0,0,,2,,,74,127
57369,note_on,0,0,0,,7,,,55,127
57603,note_off,234,0,0,,2,,,74,127
57606,note_on,3,0,0,,7,,,67,127
57840,note_off,234,0,0,,7,,,67,127
57840,note_off,0,0,0,,7,,,55,127
57843,note_on,3,0,0,,6,,,66,127
57843,note_on,0,0,0,,10,,,57,127
58077,note_off,234,0,0,,10,,,57,127
58077,note_off,0,0,0,,6,,,66,127
58079,note_on,2,0,0,,7,,,67,127
58079,note_on,0,0,0,,12,,,59,127
58313,note_off,234,0,0,,12,,,59,127
58313,note_off,0,0,0,,7,,,67,127
58316,note_on,3,0,0,,10,,,69,127
58316,note_on,0,0,0,,10,,,57,127
58550,note_off,234,0,0,,10,,,57,127
58550,note_off,0,0,0,,10,,,69,127
58553,note_on,3,0,0,,12,,,71,127
58553,note_on,0,0,0,,7,,,55,127
58787,note_off,234,0,0,,7,,,55,127
58787,note_off,0,0,0,,12,,,71,127
58789,note_on,2,0,0,,12,,,71,127
58789,note_on,0,0,0,,0,,,60,127
58906,note_off,117,0,0,,12,,,71,127
58908,note_on,2,0,0,,10,,,69,127
59023,note_off,115,0,0,,0,,,60,127
59025,note_off,2,0,0,,10,,,69,127
59027,note_on,2,0,0,,10,,,69,127
59027,note_on,0,0,0,,2,,,62,127
59144,note_off,117,0,0,,10,,,69,127
59146,note_on,2,0,0,,7,,,67,127
59261,note_off,115,0,0,,2,,,62,127
59263,note_off,2,0,0,,7,,,67,127
59265,note_on,2,0,0,,7,,,67,127
59265,note_on,0,0,0,,0,,,60,127
59382,note_off,117,0,0,,7,,,67,127
59384,note_on,2,0,0,,6,,,66,127
59499,note_off,115,0,0,,0,,,60,127
59501,note_off,2,0,0,,6,,,66,127
59501,note_on,0,0,0,,7,,,67,127
59501,note_on,0,0,0,,12,,,59,127
59735,note_off,234,0,0,,12,,,59,127
59735,note_off,0,0,0,,7,,,67,127
59738,note_on,3,0,0,,10,,,69,127
59738,note_on,0,0,0,,10,,,57,127
59972,note_off,234,0,0,,10,,,57,127
59972,note_off,0,0,0,,10,,,69,127
59975,note_on,3,0,0,,12,,,71,127
59975,note_on,0,0,0,,7,,,55,127
60209,note_off,234,0,0,,7,,,55,127
60209,note_off,0,0,0,,12,,,71,127
60211,note_on,2,0,0,,12,,,71,127
60211,note_on,0,0,0,,0,,,60,127
60328,note_off,117,0,0,,12,,,71,127
60330,note_on,2,0,0,,10,,,69,127
60445,note_off,115,0,0,,0,,,60,127
60447,note_off,2,0,0,,10,,,69,127
60449,note_on,2,0,0,,10,,,69,127
60449,note_on,0,0,0,,2,,,62,127
60566,note_off,117,0,0,,10,,,69,127
60568,note_on,2,0,0,,7,,,67,127
60683,note_off,115,0,0,,2,,,62,127
60685,note_off,2,0,0,,7,,,67,127
60687,note_on,2,0,0,,7,,,67,127
60687,note_on,0,0,0,,0,,,60,127
60804,note_off,117,0,0,,7,,,67,127
60806,note_on,2,0,0,,6,,,66,127
60921,note_off,115,0,0,,0,,,60,127
60923,note_off,2,0,0,,6,,,66,127
60925,note_on,2,0,0,,7,,,67,127
60925,note_on,0,0,0,,12,,,59,127
61159,note_off,234,0,0,,12,,,59,127
61159,note_off,0,0,0,,7,,,67,127
61161,note_on,2,0,0,,10,,,69,127
61161,note_on,0,0,0,,10,,,57,127
61395,note_off,234,0,0,,10,,,57,127
61395,note_off,0,0,0,,10,,,69,127
61398,note_on,3,0,0,,12,,,71,127
61398,note_on,0,0,0,,7,,,55,127
61632,note_off,234,0,0,,7,,,55,127
61632,note_off,0,0,0,,12,,,71,127
61635,note_on,3,0,0,,0,,,72,127
61635,note_on,0,0,0,,0,,,60,127
61712,note_off,77,0,0,,0,,,72,127
61714,note_on,2,0,0,,2,,,74,127
61791,note_off,77,0,0,,2,,,74,127
61793,note_on,2,0,0,,4,,,76,127
61870,note_off,77,0,0,,4,,,76,127
61870,note_off,0,0,0,,0,,,60,127
61872,note_on,2,0,0,,2,,,74,127
61872,note_on,0,0,0,,2,,,62,127
61989,note_off,117,0,0,,2,,,74,127
61991,note_on,2,0,0,,0,,,72,127
62106,note_off,115,0,0,,2,,,62,127
62108,note_off,2,0,0,,0,,,72,127
62110,note_on,2,0,0,,12,,,71,127
62110,note_on,0,0,0,,0,,,60,127
62227,note_off,117,0,0,,12,,,71,127
62229,note_on,2,0,0,,10,,,69,127
62344,note_off,115,0,0,,0,,,60,127
62346,note_off,2,0,0,,10,,,69,127
62348,note_on,2,0,0,,10,,,69,127
62348,note_on,0,0,0,,12,,,59,127
62407,note_on,59,0,0,,7,,,67,127
62412,note_off,5,0,0,,10,,,69,127
62466,note_on,54,0,0,,10,,,69,127
62471,note_off,5,0,0,,7,,,67,127
62524,note_on,53,0,0,,7,,,67,127
62530,note_off,6,0,0,,10,,,69,127
62581,note_off,51,0,0,,12,,,59,127
62583,note_on,2,0,0,,6,,,66,127
62583,note_on,0,0,0,,10,,,57,127
62588,note_off,5,0,0,,7,,,67,127
62817,note_off,229,0,0,,10,,,57,127
62817,note_off,0,0,0,,6,,,66,127
62820,note_on,3,0,0,,7,,,67,127
62820,note_on,0,0,0,,7,,,55,127
62996,note_off,176,0,0,,7,,,67,127
63054,note_off,58,0,0,,7,,,55,127
63067,note_on,13,0,0,,7,,,79,127
63313,note_on,246,0,0,,0,,,60,127
63313,note_on,0,0,0,,0,,,72,127
63337,note_off,24,0,0,,7,,,79,127
63547,note_off,210,0,0,,0,,,72,127
63547,note_off,0,0,0,,0,,,60,127
63549,note_on,2,0,0,,2,,,62,127
63549,note_on,0,0,0,,12,,,71,127
63783,note_off,234,0,0,,12,,,71,127
63783,note_off,0,0,0,,2,,,62,127
63786,note_on,3,0,0,,4,,,64,127
63786,note_on,0,0,0,,0,,,72,127
64020,note_off,234,0,0,,0,,,72,127
64020,note_off,0,0,0,,4,,,64,127
64023,note_on,3,0,0,,2,,,62,127
64023,note_on,0,0,0,,2,,,74,127
64257,note_off,234,0,0,,2,,,74,127
64257,note_off,0,0,0,,2,,,62,127
64260,note_on,3,0,0,,0,,,60,127
64260,note_on,0,0,0,,4,,,76,127
64494,note_off,234,0,0,,4,,,76,127
64494,note_off,0,0,0,,0,,,60,127
64496,note_on,2,0,0,,5,,,65,127
64496,note_on,0,0,0,,4,,,76,127
64613,note_off,117,0,0,,4,,,76,127
64615,note_on,2,0,0,,2,,,74,127
64730,note_off,115,0,0,,5,,,65,127
64732,note_off,2,0,0,,2,,,74,127
64734,note_on,2,0,0,,7,,,67,127
64734,note_on,0,0,0,,2,,,74,127
64851,note_off,117,0,0,,2,,,74,127
64853,note_on,2,0,0,,0,,,72,127
64968,note_off,115,0,0,,7,,,67,127
64970,note_off,2,0,0,,0,,,72,127
64972,note_on,2,0,0,,5,,,65,127
64972,note_on,0,0,0,,0,,,72,127
65089,note_off,117,0,0,,0,,,72,127
65089,note_on,0,0,0,,12,,,71,127
65206,note_off,117,0,0,,12,,,71,127
65206,note_off,0,0,0,,5,,,65,127
65208,note_on,2,0,0,,4,,,64,127
65208,note_on,0,0,0,,0,,,72,127
65442,note_off,234,0,0,,0,,,72,127
65442,note_off,0,0,0,,4,,,64,127
65445,note_on,3,0,0,,2,,,62,127
65445,note_on,0,0,0,,2,,,74,127
65679,note_off,234,0,0,,2,,,74,127
65679,note_off,0,0,0,,2,,,62,127
65682,note_on,3,0,0,,0,,,60,127
65682,note_on,0,0,0,,4,,,76,127
65916,note_off,234,0,0,,4,,,76,127
65916,note_off,0,0,0,,0,,,60,127
65918,note_on,2,0,0,,5,,,65,127
65918,note_on,0,0,0,,4,,,76,127
66035,note_off,117,0,0,,4,,,76,127
66037,note_on,2,0,0,,2,,,74,127
66152,note_off,115,0,0,,5,,,65,127
66154,note_off,2,0,0,,2,,,74,127
66156,note_on,2,0,0,,7,,,67,127
66156,note_on,0,0,0,,2,,,74,127
66273,note_off,117,0,0,,2,,,74,127
66275,note_on,2,0,0,,0,,,72,127
66390,note_off,115,0,0,,7,,,67,127
66392,note_off,2,0,0,,0,,,72,127
66394,note_on,2,0,0,,5,,,65,127
66394,note_on,0,0,0,,0,,,72,127
66511,note_off,117,0,0,,0,,,72,127
66513,note_on,2,0,0,,12,,,71,127
66628,note_off,115,0,0,,5,,,65,127
66630,note_off,2,0,0,,12,,,71,127
66630,note_on,0,0,0,,4,,,64,127
66630,note_on,0,0,0,,0,,,72,127
66864,note_off,234,0,0,,0,,,72,127
66864,note_off,0,0,0,,4,,,64,127
66867,note_on,3,0,0,,2,,,62,127
66867,note_on,0,0,0,,2,,,74,127
67101,note_off,234,0,0,,2,,,74,127
67101,note_off,0,0,0,,2,,,62,127
67104,note_on,3,0,0,,0,,,60,127
67104,note_on,0,0,0,,4,,,76,127
67338,note_off,234,0,0,,4,,,76,127
67338,note_off,0,0,0,,0,,,60,127
67341,note_on,3,0,0,,5,,,65,127
67341,note_on,0,0,0,,2,,,74,127
67458,note_off,117,0,0,,2,,,74,127
67458,note_on,0,0,0,,10,,,81,127
67575,note_off,117,0,0,,10,,,81,127
67575,note_off,0,0,0,,5,,,65,127
67577,note_on,2,0,0,,7,,,67,127
67577,note_on,0,0,0,,7,,,79,127
67694,note_off,117,0,0,,7,,,79,127
67696,note_on,2,0,0,,5,,,77,127
67811,note_off,115,0,0,,7,,,67,127
67813,note_off,2,0,0,,5,,,77,127
67815,note_on,2,0,0,,7,,,55,127
67815,note_on,0,0,0,,4,,,76,127
67932,note_off,117,0,0,,4,,,76,127
67934,note_on,2,0,0,,2,,,74,127
68049,note_off,115,0,0,,7,,,55,127
68051,note_off,2,0,0,,2,,,74,127
68053,note_on,2,0,0,,0,,,48,127
68053,note_on,0,0,0,,2,,,74,127
68112,note_on,59,0,0,,0,,,72,127
68117,note_off,5,0,0,,2,,,74,127
68170,note_on,53,0,0,,2,,,74,127
68176,note_off,6,0,0,,0,,,72,127
68229,note_on,53,0,0,,0,,,72,127
68234,note_off,5,0,0,,2,,,74,127
68288,note_on,54,0,0,,12,,,71,127
68293,note_off,5,0,0,,0,,,72,127
68522,note_off,229,0,0,,12,,,71,127
68525,note_on,3,0,0,,0,,,72,127
68760,note_off,235,0,0,,0,,,48,127
68781,note_on,21,0,0,,8,,,56,127
68781,note_on,0,0,0,,3,,,63,127
68845,note_off,64,0,0,,0,,,72,127
69018,note_on,173,0,0,,0,,,72,127
69135,note_off,117,0,0,,0,,,72,127
69137,note_on,2,0,0,,2,,,74,127
69252,note_off,115,0,0,,3,,,63,127
69252,note_off,0,0,0,,8,,,56,127
69254,note_off,2,0,0,,2,,,74,127
69254,note_on,0,0,0,,3,,,75,127
69254,note_on,0,0,0,,8,,,56,127
69254,note_on,0,0,0,,3,,,63,127
69371,note_off,117,0,0,,3,,,75,127
69373,note_on,2,0,0,,2,,,74,127
69488,note_off,115,0,0,,3,,,63,127
69488,note_off,0,0,0,,8,,,56,127
69490,note_off,2,0,0,,2,,,74,127
69492,note_on,2,0,0,,3,,,75,127
69492,note_on,0,0,0,,3,,,63,127
69492,note_on,0,0,0,,7,,,55,127
69726,note_off,234,0,0,,7,,,55,127
69726,note_off,0,0,0,,3,,,75,127
69729,note_on,3,0,0,,5,,,77,127
69729,note_on,0,0,0,,5,,,53,127
69959,note_off,230,0,0,,3,,,63,127
69962,note_off,3,0,0,,5,,,53,127
69962,note_off,0,0,0,,5,,,77,127
69964,note_on,2,0,0,,7,,,79,127
69964,note_on,0,0,0,,3,,,51,127
70198,note_off,234,0,0,,3,,,51,127
70198,note_off,0,0,0,,7,,,79,127
70201,note_on,3,0,0,,5,,,77,127
70201,note_on,0,0,0,,8,,,56,127
70435,note_off,234,0,0,,8,,,56,127
70435,note_off,0,0,0,,5,,,77,127
70438,note_on,3,0,0,,3,,,75,127
70438,note_on,0,0,0,,11,,,58,127
70672,note_off,234,0,0,,3,,,75,127
70675,note_on,3,0,0,,2,,,74,127
70675,note_on,0,0,0,,11,,,46,127
70905,note_off,230,0,0,,11,,,58,127
70908,note_off,3,0,0,,11,,,46,127
70908,note_off,0,0,0,,2,,,74,127
70910,note_on,2,0,0,,5,,,77,127
70910,note_on,0,0,0,,3,,,51,127
70969,note_on,59,0,0,,3,,,75,127
70974,note_off,5,0,0,,5,,,77,127
71028,note_on,54,0,0,,5,,,77,127
71033,note_off,5,0,0,,3,,,75,127
71087,note_on,54,0,0,,3,,,75,127
71092,note_off,5,0,0,,5,,,77,127
71146,note_on,54,0,0,,2,,,74,127
71151,note_off,5,0,0,,3,,,75,127
71380,note_off,229,0,0,,2,,,74,127
71383,note_on,3,0,0,,3,,,75,127
71617,note_off,234,0,0,,3,,,51,127
71639,note_on,22,0,0,,5,,,65,127
71639,note_on,0,0,0,,11,,,58,127
71653,note_off,14,0,0,,3,,,75,127
71874,note_on,221,0,0,,2,,,74,127
71991,note_off,117,0,0,,2,,,74,127
71993,note_on,2,0,0,,4,,,76,127
72110,note_off,117,0,0,,4,,,76,127
72110,note_off,0,0,0,,11,,,58,127
72110,note_off,0,0,0,,5,,,65,127
72112,note_on,2,0,0,,5,,,65,127
72112,note_on,0,0,0,,11,,,58,127
72112,note_on,0,0,0,,5,,,77,127
72229,note_off,117,0,0,,5,,,77,127
72231,note_on,2,0,0,,4,,,76,127
72346,note_off,115,0,0,,11,,,58,127
72346,note_off,0,0,0,,5,,,65,127
72348,note_off,2,0,0,,4,,,76,127
72350,note_on,2,0,0,,5,,,65,127
72350,note_on,0,0,0,,8,,,56,127
72350,note_on,0,0,0,,5,,,77,127
72584,note_off,234,0,0,,5,,,77,127
72584,note_off,0,0,0,,8,,,56,127
72586,note_on,2,0,0,,7,,,55,127
72586,note_on,0,0,0,,7,,,79,127
72818,note_off,232,0,0,,5,,,65,127
72820,note_off,2,0,0,,7,,,79,127
72820,note_off,0,0,0,,7,,,55,127
72823,note_on,3,0,0,,5,,,53,127
72823,note_on,0,0,0,,8,,,80,127
73057,note_off,234,0,0,,8,,,80,127
73057,note_off,0,0,0,,5,,,53,127
73060,note_on,3,0,0,,11,,,58,127
73060,note_on,0,0,0,,7,,,79,127
73294,note_off,234,0,0,,7,,,79,127
73294,note_off,0,0,0,,11,,,58,127
73296,note_on,2,0,0,,0,,,60,127
73296,note_on,0,0,0,,5,,,77,127
73530,note_off,234,0,0,,5,,,77,127
73533,note_on,3,0,0,,0,,,48,127
73533,note_on,0,0,0,,4,,,76,127
73763,note_off,230,0,0,,0,,,60,127
73766,note_off,3,0,0,,4,,,76,127
73766,note_off,0,0,0,,0,,,48,127
73769,note_on,3,0,0,,5,,,53,127
73769,note_on,0,0,0,,7,,,79,127
73828,note_on,59,0,0,,5,,,77,127
73833,note_off,5,0,0,,7,,,79,127
73887,note_on,54,0,0,,7,,,79,127
73892,note_off,5,0,0,,5,,,77,127
73946,note_on,54,0,0,,5,,,77,127
73951,note_off,5,0,0,,7,,,79,127
74005,note_on,54,0,0,,4,,,76,127
74010,note_off,5,0,0,,5,,,77,127
74239,note_off,229,0,0,,4,,,76,127
74241,note_on,2,0,0,,5,,,77,127
74476,note_off,235,0,0,,5,,,53,127
74497,note_on,21,0,0,,0,,,60,127
74497,note_on,0,0,0,,7,,,67,127
74511,note_off,14,0,0,,5,,,77,127
74733,note_on,222,0,0,,4,,,76,127
74850,note_off,117,0,0,,4,,,76,127
74852,note_on,2,0,0,,6,,,78,127
74967,note_off,115,0,0,,7,,,67,127
74967,note_off,0,0,0,,0,,,60,127
74969,note_off,2,0,0,,6,,,78,127
74971,note_on,2,0,0,,7,,,79,127
74971,note_on,0,0,0,,0,,,60,127
74971,note_on,0,0,0,,7,,,67,127
75088,note_off,117,0,0,,7,,,79,127
75088,note_on,0,0,0,,6,,,78,127
75205,note_off,117,0,0,,6,,,78,127
75205,note_off,0,0,0,,7,,,67,127
75205,note_off,0,0,0,,0,,,60,127
75207,note_on,2,0,0,,7,,,79,127
75207,note_on,0,0,0,,11,,,58,127
75207,note_on,0,0,0,,7,,,67,127
75441,note_off,234,0,0,,11,,,58,127
75441,note_off,0,0,0,,7,,,79,127
75444,note_on,3,0,0,,10,,,81,127
75444,note_on,0,0,0,,10,,,57,127
75674,note_off,230,0,0,,7,,,67,127
75677,note_off,3,0,0,,10,,,57,127
75677,note_off,0,0,0,,10,,,81,127
75680,note_on,3,0,0,,11,,,82,127
75680,note_on,0,0,0,,7,,,55,127
75914,note_off,234,0,0,,7,,,55,127
75914,note_off,0,0,0,,11,,,82,127
75916,note_on,2,0,0,,10,,,81,127
75916,note_on,0,0,0,,0,,,60,127
76150,note_off,234,0,0,,0,,,60,127
76150,note_off,0,0,0,,10,,,81,127
76153,note_on,3,0,0,,7,,,79,127
76153,note_on,0,0,0,,2,,,62,127
76387,note_off,234,0,0,,7,,,79,127
76390,note_on,3,0,0,,6,,,78,127
76390,note_on,0,0,0,,2,,,50,127
76620,note_off,230,0,0,,2,,,62,127
76623,note_off,3,0,0,,2,,,50,127
76623,note_off,0,0,0,,6,,,78,127
76625,note_on,2,0,0,,7,,,79,127
76625,note_on,0,0,0,,7,,,55,127
76859,note_off,234,0,0,,7,,,79,127
76862,note_on,3,0,0,,11,,,70,127
76979,note_off,117,0,0,,11,,,70,127
76981,note_on,2,0,0,,0,,,72,127
77096,note_off,115,0,0,,7,,,55,127
77098,note_off,2,0,0,,0,,,72,127
77100,note_on,2,0,0,,2,,,74,127
77100,note_on,0,0,0,,11,,,70,127
77100,note_on,0,0,0,,7,,,67,127
77217,note_off,117,0,0,,2,,,74,127
77219,note_on,2,0,0,,3,,,75,127
77334,note_off,115,0,0,,7,,,67,127
77334,note_off,0,0,0,,11,,,70,127
77336,note_off,2,0,0,,3,,,75,127
77338,note_on,2,0,0,,3,,,75,127
77338,note_on,0,0,0,,6,,,66,127
77338,note_on,0,0,0,,10,,,69,127
77572,note_off,234,0,0,,3,,,75,127
77574,note_on,2,0,0,,2,,,74,127
77691,note_off,117,0,0,,2,,,74,127
77693,note_on,2,0,0,,0,,,72,127
77810,note_off,117,0,0,,0,,,72,127
77810,note_off,0,0,0,,10,,,69,127
77810,note_off,0,0,0,,6,,,66,127
77812,note_on,2,0,0,,2,,,74,127
77812,note_on,0,0,0,,11,,,70,127
77812,note_on,0,0,0,,7,,,67,127
77929,note_off,117,0,0,,2,,,74,127
77931,note_on,2,0,0,,3,,,75,127
78046,note_off,115,0,0,,7,,,67,127
78046,note_off,0,0,0,,11,,,70,127
78048,note_off,2,0,0,,3,,,75,127
78050,note_on,2,0,0,,3,,,75,127
78050,note_on,0,0,0,,6,,,66,127
78050,note_on,0,0,0,,10,,,69,127
78284,note_off,234,0,0,,3,,,75,127
78286,note_on,2,0,0,,2,,,74,127
78403,note_off,117,0,0,,2,,,74,127
78405,note_on,2,0,0,,0,,,72,127
78522,note_off,117,0,0,,0,,,72,127
78522,note_off,0,0,0,,10,,,69,127
78522,note_off,0,0,0,,6,,,66,127
78524,note_on,2,0,0,,2,,,74,127
78524,note_on,0,0,0,,7,,,67,127
78524,note_on,0,0,0,,11,,,70,127
78641,note_off,117,0,0,,2,,,74,127
78643,note_on,2,0,0,,3,,,75,127
78758,note_off,115,0,0,,11,,,70,127
78758,note_off,0,0,0,,7,,,67,127
78760,note_off,2,0,0,,3,,,75,127
78762,note_on,2,0,0,,3,,,75,127
78762,note_on,0,0,0,,5,,,65,127
78762,note_on,0,0,0,,10,,,69,127
78996,note_off,234,0,0,,10,,,69,127
78996,note_off,0,0,0,,5,,,65,127
78996,note_off,0,0,0,,3,,,75,127
78998,note_on,2,0,0,,2,,,74,127
78998,note_on,0,0,0,,5,,,65,127
78998,note_on,0,0,0,,10,,,69,127
79232,note_off,234,0,0,,10,,,69,127
79232,note_off,0,0,0,,5,,,65,127
79232,note_off,0,0,0,,2,,,74,127
79235,note_on,3,0,0,,7,,,79,127
79235,note_on,0,0,0,,3,,,63,127
79235,note_on,0,0,0,,7,,,67,127
79469,note_off,234,0,0,,7,,,67,127
79469,note_off,0,0,0,,3,,,63,127
79469,note_off,0,0,0,,7,,,79,127
79472,note_on,3,0,0,,7,,,79,127
79472,note_on,0,0,0,,10,,,69,127
79472,note_on,0,0,0,,2,,,62,127
79531,note_on,59,0,0,,6,,,78,127
79536,note_off,5,0,0,,7,,,79,127
79590,note_on,54,0,0,,7,,,79,127
79595,note_off,5,0,0,,6,,,78,127
79649,note_on,54,0,0,,6,,,78,127
79654,note_off,5,0,0,,7,,,79,127
79707,note_on,53,0,0,,7,,,79,127
79713,note_off,6,0,0,,6,,,78,127
79766,note_on,53,0,0,,6,,,78,127
79771,note_off,5,0,0,,7,,,79,127
79825,note_on,54,0,0,,4,,,76,127
79830,note_off,5,0,0,,6,,,78,127
79942,note_off,112,0,0,,4,,,76,127
79944,note_on,2,0,0,,2,,,74,127
80141,note_off,197,0,0,,2,,,74,127
80179,note_off,38,0,0,,2,,,62,127
80179,note_off,0,0,0,,10,,,69,127
80181,note_on,2,0,0,,7,,,79,127
80181,note_on,0,0,0,,7,,,67,127
80181,note_on,0,0,0,,3,,,63,127
80299,note_on,118,0,0,,0,,,72,127
80328,note_off,29,0,0,,7,,,79,127
80414,note_off,86,0,0,,3,,,63,127
80414,note_off,0,0,0,,7,,,67,127
80416,note_off,2,0,0,,0,,,72,127
80418,note_on,2,0,0,,5,,,77,127
80418,note_on,0,0,0,,2,,,62,127
80418,note_on,0,0,0,,5,,,65,127
80535,note_on,117,0,0,,11,,,70,127
80565,note_off,30,0,0,,5,,,77,127
80651,note_off,86,0,0,,11,,,70,127
80651,note_off,0,0,0,,5,,,65,127
80651,note_off,0,0,0,,2,,,62,127
80653,note_on,2,0,0,,3,,,75,127
80653,note_on,0,0,0,,3,,,63,127
80653,note_on,0,0,0,,0,,,60,127
80771,note_on,118,0,0,,10,,,69,127
80800,note_off,29,0,0,,3,,,75,127
80886,note_off,86,0,0,,0,,,60,127
80886,note_off,0,0,0,,3,,,63,127
80888,note_off,2,0,0,,10,,,69,127
80890,note_on,2,0,0,,2,,,74,127
80890,note_on,0,0,0,,11,,,58,127
80890,note_on,0,0,0,,2,,,62,127
81008,note_on,118,0,0,,7,,,67,127
81037,note_off,29,0,0,,2,,,74,127
81123,note_off,86,0,0,,2,,,62,127
81123,note_off,0,0,0,,11,,,58,127
81125,note_off,2,0,0,,7,,,67,127
81127,note_on,2,0,0,,0,,,72,127
81127,note_on,0,0,0,,0,,,60,127
81127,note_on,0,0,0,,10,,,57,127
81244,note_on,117,0,0,,6,,,66,127
81274,note_off,30,0,0,,0,,,72,127
81360,note_off,86,0,0,,6,,,66,127
81360,note_off,0,0,0,,10,,,57,127
81360,note_off,0,0,0,,0,,,60,127
81362,note_on,2,0,0,,11,,,70,127
81362,note_on,0,0,0,,11,,,58,127
81362,note_on,0,0,0,,7,,,55,127
81583,note_off,221,0,0,,11,,,70,127
81596,note_off,13,0,0,,7,,,55,127
81596,note_off,0,0,0,,11,,,58,127
81599,note_on,3,0,0,,10,,,69,127
81599,note_on,0,0,0,,0,,,60,127
81833,note_off,234,0,0,,0,,,60,127
81833,note_off,0,0,0,,10,,,69,127
81836,note_on,3,0,0,,7,,,67,127
81836,note_on,0,0,0,,2,,,62,127
82070,note_off,234,0,0,,7,,,67,127
82072,note_on,2,0,0,,6,,,66,127
82072,note_on,0,0,0,,2,,,50,127
82149,note_off,77,0,0,,6,,,66,127
82152,note_on,3,0,0,,7,,,67,127
82229,note_off,77,0,0,,7,,,67,127
82231,note_on,2,0,0,,6,,,66,127
82305,note_off,74,0,0,,2,,,62,127
82307,note_off,2,0,0,,2,,,50,127
82309,note_off,2,0,0,,6,,,66,127
82330,note_on,21,0,0,,7,,,67,127
82330,note_on,0,0,0,,3,,,63,127
82330,note_on,0,0,0,,7,,,79,127
82447,note_off,117,0,0,,7,,,79,127
82449,note_on,2,0,0,,0,,,72,127
82564,note_off,115,0,0,,3,,,63,127
82564,note_off,0,0,0,,7,,,67,127
82566,note_off,2,0,0,,0,,,72,127
82568,note_on,2,0,0,,2,,,62,127
82568,note_on,0,0,0,,5,,,65,127
82568,note_on,0,0,0,,5,,,77,127
82685,note_off,117,0,0,,5,,,77,127
82687,note_on,2,0,0,,11,,,70,127
82802,note_off,115,0,0,,5,,,65,127
82802,note_off,0,0,0,,2,,,62,127
82804,note_off,2,0,0,,11,,,70,127
82806,note_on,2,0,0,,3,,,63,127
82806,note_on,0,0,0,,0,,,60,127
82806,note_on,0,0,0,,3,,,75,127
82923,note_off,117,0,0,,3,,,75,127
82925,note_on,2,0,0,,10,,,69,127
83040,note_off,115,0,0,,0,,,60,127
83040,note_off,0,0,0,,3,,,63,127
83042,note_off,2,0,0,,10,,,69,127
83042,note_on,0,0,0,,11,,,58,127
83042,note_on,0,0,0,,2,,,62,127
83042,note_on,0,0,0,,2,,,74,127
83159,note_off,117,0,0,,2,,,74,127
83161,note_on,2,0,0,,7,,,67,127
83276,note_off,115,0,0,,2,,,62,127
83276,note_off,0,0,0,,11,,,58,127
83278,note_off,2,0,0,,7,,,67,127
83280,note_on,2,0,0,,10,,,57,127
83280,note_on,0,0,0,,0,,,60,127
83280,note_on,0,0,0,,0,,,72,127
83397,note_off,117,0,0,,0,,,72,127
83399,note_on,2,0,0,,6,,,66,127
83514,note_off,115,0,0,,0,,,60,127
83514,note_off,0,0,0,,10,,,57,127
83516,note_off,2,0,0,,6,,,66,127
83518,note_on,2,0,0,,7,,,55,127
83518,note_on,0,0,0,,11,,,58,127
83518,note_on,0,0,0,,11,,,70,127
83752,note_off,234,0,0,,11,,,70,127
83752,note_off,0,0,0,,11,,,58,127
83752,note_off,0,0,0,,7,,,55,127
83755,note_on,3,0,0,,0,,,60,127
83755,note_on,0,0,0,,10,,,69,127
83989,note_off,234,0,0,,10,,,69,127
83989,note_off,0,0,0,,0,,,60,127
83991,note_on,2,0,0,,2,,,62,127
83991,note_on,0,0,0,,7,,,67,127
84225,note_off,234,0,0,,7,,,67,127
84228,note_on,3,0,0,,2,,,50,127
84228,note_on,0,0,0,,6,,,66,127
84305,note_off,77,0,0,,6,,,66,127
84307,note_on,2,0,0,,7,,,67,127
84384,note_off,77,0,0,,7,,,67,127
84386,note_on,2,0,0,,6,,,66,127
84460,note_off,74,0,0,,2,,,62,127
84463,note_off,3,0,0,,6,,,66,127
84463,note_off,0,0,0,,2,,,50,127
84466,note_on,3,0,0,,7,,,55,127
84466,note_on,0,0,0,,7,,,67,127
84700,note_off,234,0,0,,7,,,67,127
84722,note_on,22,0,0,,7,,,67,127
84839,note_off,117,0,0,,7,,,67,127
84839,note_on,0,0,0,,10,,,69,127
84956,note_off,117,0,0,,10,,,69,127
84958,note_on,2,0,0,,12,,,71,127
85075,note_off,117,0,0,,12,,,71,127
85077,note_on,2,0,0,,0,,,72,127
85175,note_off,98,0,0,,7,,,55,127
85194,note_off,19,0,0,,0,,,72,127
85196,note_on,2,0,0,,0,,,72,127
85196,note_on,0,0,0,,2,,,50,127
85196,note_on,0,0,0,,5,,,53,127
85196,note_on,0,0,0,,12,,,59,127
85196,note_on,0,0,0,,7,,,55,127
85313,note_off,117,0,0,,0,,,72,127
85315,note_on,2,0,0,,12,,,71,127
85432,note_off,117,0,0,,12,,,71,127
85434,note_on,2,0,0,,0,,,72,127
85551,note_off,117,0,0,,0,,,72,127
85553,note_on,2,0,0,,2,,,74,127
85670,note_off,117,0,0,,2,,,74,127
85670,note_on,0,0,0,,3,,,75,127
85787,note_off,117,0,0,,3,,,75,127
85789,note_on,2,0,0,,5,,,77,127
85906,note_off,117,0,0,,5,,,77,127
85906,note_off,0,0,0,,7,,,55,127
85906,note_off,0,0,0,,12,,,59,127
85906,note_off,0,0,0,,5,,,53,127
85906,note_off,0,0,0,,2,,,50,127
85908,note_on,2,0,0,,5,,,77,127
85908,note_on,0,0,0,,0,,,48,127
85908,note_on,0,0,0,,0,,,60,127
85908,note_on,0,0,0,,7,,,55,127
86025,note_off,117,0,0,,5,,,77,127
86027,note_on,2,0,0,,3,,,75,127
86144,note_off,117,0,0,,3,,,75,127
86146,note_on,2,0,0,,2,,,74,127
86263,note_off,117,0,0,,2,,,74,127
86265,note_on,2,0,0,,0,,,72,127
86382,note_off,117,0,0,,0,,,72,127
86382,note_on,0,0,0,,11,,,70,127
86499,note_off,117,0,0,,11,,,70,127
86501,note_on,2,0,0,,10,,,69,127
86618,note_off,117,0,0,,10,,,69,127
86618,note_off,0,0,0,,7,,,55,127
86618,note_off,0,0,0,,0,,,60,127
86618,note_off,0,0,0,,0,,,48,127
86620,note_on,2,0,0,,7,,,67,127
86620,note_on,0,0,0,,2,,,62,127
86620,note_on,0,0,0,,2,,,50,127
86620,note_on,0,0,0,,11,,,58,127
86620,note_on,0,0,0,,7,,,55,127
86854,note_off,234,0,0,,7,,,55,127
86854,note_off,0,0,0,,11,,,58,127
86854,note_off,0,0,0,,2,,,50,127
86854,note_off,0,0,0,,2,,,62,127
86857,note_on,3,0,0,,0,,,60,127
86857,note_on,0,0,0,,2,,,50,127
86857,note_on,0,0,0,,10,,,57,127
86915,note_off,58,0,0,,7,,,67,127
86917,note_on,2,0,0,,6,,,66,127
86976,note_on,59,0,0,,7,,,67,127
86981,note_off,5,0,0,,6,,,66,127
87035,note_on,54,0,0,,6,,,66,127
87040,note_off,5,0,0,,7,,,67,127
87094,note_on,54,0,0,,7,,,67,127
87099,note_off,5,0,0,,6,,,66,127
87152,note_on,53,0,0,,6,,,66,127
87158,note_off,6,0,0,,7,,,67,127
87211,note_on,53,0,0,,4,,,64,127
87216,note_off,5,0,0,,6,,,66,127
87270,note_on,54,0,0,,6,,,66,127
87275,note_off,5,0,0,,4,,,64,127
87325,note_off,50,0,0,,0,,,60,127
87328,note_off,3,0,0,,10,,,57,127
87328,note_off,0,0,0,,2,,,50,127
87330,note_on,2,0,0,,7,,,67,127
87330,note_on,0,0,0,,7,,,43,127
87335,note_off,5,0,0,,6,,,66,127
87564,note_off,229,0,0,,7,,,67,127
87567,note_on,3,0,0,,7,,,67,127
87684,note_off,117,0,0,,7,,,67,127
87686,note_on,2,0,0,,10,,,69,127
87803,note_off,117,0,0,,10,,,69,127
87805,note_on,2,0,0,,12,,,71,127
87922,note_off,117,0,0,,12,,,71,127
87922,note_on,0,0,0,,0,,,72,127
88039,note_off,117,0,0,,0,,,72,127
88039,note_off,0,0,0,,7,,,43,127
88041,note_on,2,0,0,,0,,,72,127
88041,note_on,0,0,0,,5,,,53,127
88041,note_on,0,0,0,,2,,,50,127
88041,note_on,0,0,0,,12,,,59,127
88041,note_on,0,0,0,,7,,,55,127
88158,note_off,117,0,0,,0,,,72,127
88160,note_on,2,0,0,,12,,,71,127
88277,note_off,117,0,0,,12,,,71,127
88279,note_on,2,0,0,,0,,,72,127
88396,note_off,117,0,0,,0,,,72,127
88398,note_on,2,0,0,,2,,,74,127
88515,note_off,117,0,0,,2,,,74,127
88517,note_on,2,0,0,,3,,,75,127
88634,note_off,117,0,0,,3,,,75,127
88636,note_on,2,0,0,,5,,,77,127
88751,note_off,115,0,0,,7,,,55,127
88751,note_off,0,0,0,,12,,,59,127
88751,note_off,0,0,0,,2,,,50,127
88751,note_off,0,0,0,,5,,,53,127
88753,note_off,2,0,0,,5,,,77,127
88753,note_on,0,0,0,,5,,,77,127
88753,note_on,0,0,0,,0,,,48,127
88753,note_on,0,0,0,,7,,,55,127
88753,note_on,0,0,0,,0,,,60,127
88870,note_off,117,0,0,,5,,,77,127
88872,note_on,2,0,0,,3,,,75,127
88989,note_off,117,0,0,,3,,,75,127
88991,note_on,2,0,0,,2,,,74,127
89108,note_off,117,0,0,,2,,,74,127
89110,note_on,2,0,0,,0,,,72,127
89227,note_off,117,0,0,,0,,,72,127
89229,note_on,2,0,0,,11,,,70,127
89346,note_off,117,0,0,,11,,,70,127
89348,note_on,2,0,0,,10,,,69,127
89463,note_off,115,0,0,,0,,,60,127
89463,note_off,0,0,0,,7,,,55,127
89463,note_off,0,0,0,,0,,,48,127
89465,note_off,2,0,0,,10,,,69,127
89465,note_on,0,0,0,,2,,,62,127
89465,note_on,0,0,0,,7,,,67,127
89465,note_on,0,0,0,,2,,,50,127
89465,note_on,0,0,0,,11,,,58,127
89465,note_on,0,0,0,,7,,,55,127
89699,note_off,234,0,0,,7,,,55,127
89699,note_off,0,0,0,,11,,,58,127
89699,note_off,0,0,0,,2,,,50,127
89699,note_off,0,0,0,,2,,,62,127
89702,note_on,3,0,0,,0,,,60,127
89702,note_on,0,0,0,,10,,,57,127
89702,note_on,0,0,0,,2,,,50,127
89760,note_off,58,0,0,,7,,,67,127
89762,note_on,2,0,0,,6,,,66,127
89821,note_on,59,0,0,,7,,,67,127
89826,note_off,5,0,0,,6,,,66,127
89880,note_on,54,0,0,,6,,,66,127
89885,note_off,5,0,0,,7,,,67,127
89939,note_on,54,0,0,,7,,,67,127
89944,note_off,5,0,0,,6,,,66,127
89998,note_on,54,0,0,,6,,,66,127
90003,note_off,5,0,0,,7,,,67,127
90057,note_on,54,0,0,,4,,,64,127
90062,note_off,5,0,0,,6,,,66,127
90116,note_on,54,0,0,,6,,,66,127
90121,note_off,5,0,0,,4,,,64,127
90169,note_off,48,0,0,,0,,,60,127
90172,note_off,3,0,0,,6,,,66,127
90172,note_off,0,0,0,,2,,,50,127
90172,note_off,0,0,0,,10,,,57,127
90175,note_on,3,0,0,,6,,,66,127
90175,note_on,0,0,0,,7,,,43,127
90409,note_off,234,0,0,,6,,,66,127
90411,note_on,2,0,0,,7,,,67,127
90411,note_on,0,0,0,,7,,,55,127
90520,note_off,109,0,0,,7,,,43,127
90661,note_on,141,0,0,,5,,,53,127
90682,note_off,21,0,0,,7,,,55,127
90895,note_off,213,0,0,,5,,,53,127
90905,note_on,10,0,0,,3,,,51,127
90905,note_on,0,0,0,,11,,,58,127
90977,note_off,72,0,0,,7,,,67,127
91142,note_on,165,0,0,,7,,,67,127
91259,note_off,117,0,0,,7,,,67,127
91259,note_on,0,0,0,,6,,,66,127
91376,note_off,117,0,0,,6,,,66,127
91376,note_off,0,0,0,,11,,,58,127
91376,note_off,0,0,0,,3,,,51,127
91378,note_on,2,0,0,,11,,,58,127
91378,note_on,0,0,0,,3,,,51,127
91378,note_on,0,0,0,,7,,,67,127
91495,note_off,117,0,0,,7,,,67,127
91497,note_on,2,0,0,,10,,,69,127
91612,note_off,115,0,0,,3,,,51,127
91612,note_off,0,0,0,,11,,,58,127
91614,note_off,2,0,0,,10,,,69,127
91616,note_on,2,0,0,,11,,,58,127
91616,note_on,0,0,0,,2,,,50,127
91616,note_on,0,0,0,,11,,,70,127
91850,note_off,234,0,0,,11,,,70,127
91850,note_off,0,0,0,,2,,,50,127
91853,note_on,3,0,0,,0,,,48,127
91853,note_on,0,0,0,,0,,,72,127
92083,note_off,230,0,0,,11,,,58,127
92086,note_off,3,0,0,,0,,,72,127
92086,note_off,0,0,0,,0,,,48,127
92088,note_on,2,0,0,,11,,,46,127
92088,note_on,0,0,0,,2,,,74,127
92322,note_off,234,0,0,,2,,,74,127
92322,note_off,0,0,0,,11,,,46,127
92325,note_on,3,0,0,,3,,,51,127
92325,note_on,0,0,0,,0,,,72,127
92559,note_off,234,0,0,,0,,,72,127
92559,note_off,0,0,0,,3,,,51,127
92562,note_on,3,0,0,,5,,,53,127
92562,note_on,0,0,0,,11,,,70,127
92796,note_off,234,0,0,,11,,,70,127
92798,note_on,2,0,0,,5,,,41,127
92798,note_on,0,0,0,,10,,,69,127
93030,note_off,232,0,0,,5,,,53,127
93032,note_off,2,0,0,,10,,,69,127
93032,note_off,0,0,0,,5,,,41,127
93035,note_on,3,0,0,,11,,,46,127
93035,note_on,0,0,0,,0,,,72,127
93094,note_on,59,0,0,,11,,,70,127
93099,note_off,5,0,0,,0,,,72,127
93153,note_on,54,0,0,,0,,,72,127
93158,note_off,5,0,0,,11,,,70,127
93212,note_on,54,0,0,,11,,,70,127
93217,note_off,5,0,0,,0,,,72,127
93271,note_on,54,0,0,,10,,,69,127
93276,note_off,5,0,0,,11,,,70,127
93505,note_off,229,0,0,,10,,,69,127
93508,note_on,3,0,0,,11,,,70,127
93742,note_off,234,0,0,,11,,,46,127
93764,note_on,22,0,0,,5,,,53,127
93764,note_on,0,0,0,,0,,,60,127
93862,note_off,98,0,0,,11,,,70,127
94000,note_on,138,0,0,,10,,,69,127
94117,note_off,117,0,0,,10,,,69,127
94119,note_on,2,0,0,,12,,,71,127
94236,note_off,117,0,0,,12,,,71,127
94236,note_off,0,0,0,,0,,,60,127
94236,note_off,0,0,0,,5,,,53,127
94238,note_on,2,0,0,,0,,,72,127
94238,note_on,0,0,0,,5,,,53,127
94238,note_on,0,0,0,,0,,,60,127
94355,note_off,117,0,0,,0,,,72,127
94357,note_on,2,0,0,,12,,,71,127
94472,note_off,115,0,0,,0,,,60,127
94472,note_off,0,0,0,,5,,,53,127
94474,note_off,2,0,0,,12,,,71,127
94476,note_on,2,0,0,,0,,,72,127
94476,note_on,0,0,0,,0,,,60,127
94476,note_on,0,0,0,,3,,,51,127
94710,note_off,234,0,0,,3,,,51,127
94710,note_off,0,0,0,,0,,,72,127
94712,note_on,2,0,0,,2,,,74,127
94712,note_on,0,0,0,,2,,,50,127
94944,note_off,232,0,0,,0,,,60,127
94946,note_off,2,0,0,,2,,,50,127
94946,note_off,0,0,0,,2,,,74,127
94949,note_on,3,0,0,,3,,,75,127
94949,note_on,0,0,0,,0,,,48,127
95183,note_off,234,0,0,,0,,,48,127
95183,note_off,0,0,0,,3,,,75,127
95186,note_on,3,0,0,,2,,,74,127
95186,note_on,0,0,0,,5,,,53,127
95420,note_off,234,0,0,,5,,,53,127
95420,note_off,0,0,0,,2,,,74,127
95422,note_on,2,0,0,,0,,,72,127
95422,note_on,0,0,0,,7,,,55,127
95656,note_off,234,0,0,,0,,,72,127
95659,note_on,3,0,0,,12,,,71,127
95659,note_on,0,0,0,,7,,,43,127
95889,note_off,230,0,0,,7,,,55,127
95892,note_off,3,0,0,,7,,,43,127
95892,note_off,0,0,0,,12,,,71,127
95895,note_on,3,0,0,,0,,,72,127
95895,note_on,0,0,0,,0,,,48,127
96129,note_off,234,0,0,,0,,,48,127
96129,note_off,0,0,0,,0,,,72,127
96131,note_on,2,0,0,,3,,,75,127
96131,note_on,0,0,0,,3,,,63,127
96131,note_on,0,0,0,,0,,,60,127
96248,note_off,117,0,0,,3,,,75,127
96250,note_on,2,0,0,,0,,,72,127
96365,note_off,115,0,0,,0,,,60,127
96365,note_off,0,0,0,,3,,,63,127
96367,note_off,2,0,0,,0,,,72,127
96369,note_on,2,0,0,,2,,,74,127
96369,note_on,0,0,0,,2,,,62,127
96369,note_on,0,0,0,,11,,,58,127
96486,note_off,117,0,0,,2,,,74,127
96488,note_on,2,0,0,,11,,,70,127
96603,note_off,115,0,0,,11,,,58,127
96603,note_off,0,0,0,,2,,,62,127
96605,note_off,2,0,0,,11,,,70,127
96607,note_on,2,0,0,,5,,,77,127
96607,note_on,0,0,0,,0,,,60,127
96607,note_on,0,0,0,,8,,,56,127
96841,note_off,234,0,0,,8,,,56,127
96841,note_off,0,0,0,,0,,,60,127
96841,note_off,0,0,0,,5,,,77,127
96844,note_on,3,0,0,,5,,,77,127
96844,note_on,0,0,0,,0,,,60,127
96844,note_on,0,0,0,,8,,,56,127
96961,note_off,117,0,0,,5,,,77,127
96961,note_on,0,0,0,,2,,,74,127
97078,note_off,117,0,0,,2,,,74,127
97078,note_off,0,0,0,,8,,,56,127
97078,note_off,0,0,0,,0,,,60,127
97080,note_on,2,0,0,,3,,,75,127
97080,note_on,0,0,0,,7,,,55,127
97080,note_on,0,0,0,,0,,,60,127
97197,note_off,117,0,0,,3,,,75,127
97199,note_on,2,0,0,,0,,,72,127
97314,note_off,115,0,0,,0,,,60,127
97314,note_off,0,0,0,,7,,,55,127
97316,note_off,2,0,0,,0,,,72,127
97318,note_on,2,0,0,,8,,,80,127
97318,note_on,0,0,0,,5,,,53,127
97318,note_on,0,0,0,,0,,,60,127
97552,note_off,234,0,0,,0,,,60,127
97552,note_off,0,0,0,,5,,,53,127
97552,note_off,0,0,0,,8,,,80,127
97555,note_on,3,0,0,,8,,,80,127
97555,note_on,0,0,0,,0,,,60,127
97555,note_on,0,0,0,,5,,,53,127
97672,note_off,117,0,0,,8,,,80,127
97672,note_on,0,0,0,,5,,,77,127
97789,note_off,117,0,0,,5,,,77,127
97789,note_off,0,0,0,,5,,,53,127
97789,note_off,0,0,0,,0,,,60,127
97791,note_on,2,0,0,,7,,,79,127
97791,note_on,0,0,0,,3,,,51,127
97791,note_on,0,0,0,,0,,,60,127
97908,note_off,117,0,0,,7,,,79,127
97910,note_on,2,0,0,,3,,,75,127
98025,note_off,115,0,0,,0,,,60,127
98025,note_off,0,0,0,,3,,,51,127
98027,note_off,2,0,0,,3,,,75,127
98029,note_on,2,0,0,,5,,,77,127
98029,note_on,0,0,0,,12,,,59,127
98146,note_off,117,0,0,,5,,,77,127
98148,note_on,2,0,0,,2,,,74,127
98263,note_off,115,0,0,,12,,,59,127
98265,note_off,2,0,0,,2,,,74,127
98267,note_on,2,0,0,,3,,,75,127
98267,note_on,0,0,0,,0,,,60,127
98384,note_off,117,0,0,,3,,,75,127
98386,note_on,2,0,0,,0,,,72,127
98501,note_off,115,0,0,,0,,,60,127
98503,note_off,2,0,0,,0,,,72,127
98503,note_on,0,0,0,,8,,,80,127
98503,note_on,0,0,0,,0,,,60,127
98620,note_off,117,0,0,,8,,,80,127
98622,note_on,2,0,0,,0,,,72,127
98737,note_off,115,0,0,,0,,,60,127
98739,note_off,2,0,0,,0,,,72,127
98741,note_on,2,0,0,,0,,,72,127
98741,note_on,0,0,0,,7,,,55,127
98800,note_on,59,0,0,,12,,,71,127
98805,note_off,5,0,0,,0,,,72,127
98859,note_on,54,0,0,,0,,,72,127
98864,note_off,5,0,0,,12,,,71,127
98918,note_on,54,0,0,,12,,,71,127
98923,note_off,5,0,0,,0,,,72,127
98977,note_on,54,0,0,,0,,,72,127
98977,note_on,0,0,0,,7,,,43,127
98982,note_off,5,0,0,,12,,,71,127
99036,note_on,54,0,0,,12,,,71,127
99041,note_off,5,0,0,,0,,,72,127
99095,note_on,54,0,0,,10,,,69,127
99100,note_off,5,0,0,,12,,,71,127
99207,note_off,107,0,0,,7,,,55,127
99212,note_off,5,0,0,,10,,,69,127
99212,note_on,0,0,0,,7,,,67,127
99388,note_off,176,0,0,,7,,,67,127
99447,note_off,59,0,0,,7,,,43,127
99489,note_on,42,0,0,,0,,,72,127
99724,note_on,235,0,0,,3,,,75,127
99841,note_off,117,0,0,,3,,,75,127
99843,note_on,2,0,0,,5,,,77,127
99960,note_off,117,0,0,,5,,,77,127
99960,note_off,0,0,0,,0,,,72,127
99962,note_on,2,0,0,,7,,,79,127
99962,note_on,0,0,0,,0,,,72,127
100079,note_off,117,0,0,,7,,,79,127
100081,note_on,2,0,0,,8,,,80,127
100196,note_off,115,0,0,,0,,,72,127
100198,note_off,2,0,0,,8,,,80,127
100200,note_on,2,0,0,,8,,,80,127
100200,note_on,0,0,0,,12,,,71,127
100434,note_off,234,0,0,,8,,,80,127
100437,note_on,3,0,0,,7,,,79,127
100554,note_off,117,0,0,,7,,,79,127
100554,note_on,0,0,0,,5,,,77,127
100671,note_off,117,0,0,,5,,,77,127
100671,note_off,0,0,0,,12,,,71,127
100673,note_on,2,0,0,,7,,,79,127
100673,note_on,0,0,0,,0,,,72,127
100790,note_off,117,0,0,,7,,,79,127
100792,note_on,2,0,0,,8,,,80,127
100907,note_off,115,0,0,,0,,,72,127
100909,note_off,2,0,0,,8,,,80,127
100911,note_on,2,0,0,,8,,,80,127
100911,note_on,0,0,0,,12,,,71,127
101145,note_off,234,0,0,,8,,,80,127
101148,note_on,3,0,0,,7,,,79,127
101265,note_off,117,0,0,,7,,,79,127
101265,note_on,0,0,0,,5,,,77,127
101382,note_off,117,0,0,,5,,,77,127
101382,note_off,0,0,0,,12,,,71,127
101384,note_on,2,0,0,,7,,,79,127
101384,note_on,0,0,0,,0,,,72,127
101501,note_off,117,0,0,,7,,,79,127
101503,note_on,2,0,0,,8,,,80,127
101618,note_off,115,0,0,,0,,,72,127
101620,note_off,2,0,0,,8,,,80,127
101622,note_on,2,0,0,,8,,,80,127
101622,note_on,0,0,0,,11,,,70,127
101856,note_off,234,0,0,,11,,,70,127
101856,note_off,0,0,0,,8,,,80,127
101859,note_on,3,0,0,,7,,,79,127
101859,note_on,0,0,0,,11,,,70,127
102093,note_off,234,0,0,,11,,,70,127
102093,note_off,0,0,0,,7,,,79,127
102095,note_on,2,0,0,,0,,,84,127
102095,note_on,0,0,0,,8,,,68,127
102095,note_on,0,0,0,,0,,,72,127
102329,note_off,234,0,0,,0,,,72,127
102329,note_off,0,0,0,,8,,,68,127
102329,note_off,0,0,0,,0,,,84,127
102332,note_on,3,0,0,,0,,,84,127
102332,note_on,0,0,0,,2,,,74,127
102332,note_on,0,0,0,,7,,,67,127
102391,note_on,59,0,0,,12,,,83,127
102396,note_off,5,0,0,,0,,,84,127
102450,note_on,54,0,0,,0,,,84,127
102455,note_off,5,0,0,,12,,,83,127
102509,note_on,54,0,0,,12,,,83,127
102514,note_off,5,0,0,,0,,,84,127
102568,note_on,54,0,0,,0,,,84,127
102573,note_off,5,0,0,,12,,,83,127
102627,note_on,54,0,0,,12,,,83,127
102632,note_off,5,0,0,,0,,,84,127
102686,note_on,54,0,0,,10,,,81,127
102691,note_off,5,0,0,,12,,,83,127
102803,note_off,112,0,0,,10,,,81,127
102803,note_on,0,0,0,,7,,,79,127
103037,note_off,234,0,0,,7,,,79,127
103039,note_off,2,0,0,,7,,,67,127
103039,note_off,0,0,0,,2,,,74,127
103060,note_on,21,0,0,,0,,,72,127
103060,note_on,0,0,0,,8,,,68,127
103060,note_on,0,0,0,,0,,,84,127
103178,note_on,118,0,0,,5,,,77,127
103220,note_off,42,0,0,,0,,,84,127
103294,note_off,74,0,0,,8,,,68,127
103294,note_off,0,0,0,,0,,,72,127
103296,note_off,2,0,0,,5,,,77,127
103298,note_on,2,0,0,,7,,,67,127
103298,note_on,0,0,0,,11,,,70,127
103298,note_on,0,0,0,,11,,,82,127
103416,note_on,118,0,0,,3,,,75,127
103458,note_off,42,0,0,,11,,,82,127
103532,note_off,74,0,0,,11,,,70,127
103532,note_off,0,0,0,,7,,,67,127
103534,note_off,2,0,0,,3,,,75,127
103536,note_on,2,0,0,,5,,,65,127
103536,note_on,0,0,0,,8,,,68,127
103536,note_on,0,0,0,,8,,,80,127
103654,note_on,118,0,0,,2,,,74,127
103696,note_off,42,0,0,,8,,,80,127
103770,note_off,74,0,0,,8,,,68,127
103770,note_off,0,0,0,,5,,,65,127
103772,note_off,2,0,0,,2,,,74,127
103774,note_on,2,0,0,,7,,,67,127
103774,note_on,0,0,0,,3,,,63,127
103774,note_on,0,0,0,,7,,,79,127
103891,note_on,117,0,0,,0,,,72,127
103934,note_off,43,0,0,,7,,,79,127
104008,note_off,74,0,0,,0,,,72,127
104008,note_off,0,0,0,,3,,,63,127
104008,note_off,0,0,0,,7,,,67,127
104010,note_on,2,0,0,,2,,,62,127
104010,note_on,0,0,0,,5,,,65,127
104010,note_on,0,0,0,,5,,,77,127
104128,note_on,118,0,0,,12,,,71,127
104170,note_off,42,0,0,,5,,,77,127
104244,note_off,74,0,0,,5,,,65,127
104244,note_off,0,0,0,,2,,,62,127
104246,note_off,2,0,0,,12,,,71,127
104248,note_on,2,0,0,,7,,,67,127
104248,note_on,0,0,0,,0,,,60,127
104248,note_on,0,0,0,,3,,,75,127
104482,note_off,234,0,0,,3,,,75,127
104482,note_off,0,0,0,,0,,,60,127
104482,note_off,0,0,0,,7,,,67,127
104485,note_on,3,0,0,,5,,,65,127
104485,note_on,0,0,0,,2,,,74,127
104719,note_off,234,0,0,,2,,,74,127
104719,note_off,0,0,0,,5,,,65,127
104721,note_on,2,0,0,,7,,,67,127
104721,note_on,0,0,0,,0,,,72,127
104955,note_off,234,0,0,,0,,,72,127
104958,note_on,3,0,0,,7,,,55,127
104958,note_on,0,0,0,,12,,,71,127
105035,note_off,77,0,0,,12,,,71,127
105037,note_on,2,0,0,,0,,,72,127
105114,note_off,77,0,0,,0,,,72,127
105116,note_on,2,0,0,,12,,,71,127
105190,note_off,74,0,0,,7,,,67,127
105193,note_off,3,0,0,,12,,,71,127
105193,note_off,0,0,0,,7,,,55,127
105215,note_on,22,0,0,,0,,,84,127
105215,note_on,0,0,0,,8,,,68,127
105215,note_on,0,0,0,,0,,,72,127
105332,note_off,117,0,0,,0,,,84,127
105334,note_on,2,0,0,,5,,,77,127
105449,note_off,115,0,0,,0,,,72,127
105449,note_off,0,0,0,,8,,,68,127
105451,note_off,2,0,0,,5,,,77,127
105453,note_on,2,0,0,,11,,,82,127
105453,note_on,0,0,0,,11,,,70,127
105453,note_on,0,0,0,,7,,,67,127
105570,note_off,117,0,0,,11,,,82,127
105572,note_on,2,0,0,,3,,,75,127
105687,note_off,115,0,0,,7,,,67,127
105687,note_off,0,0,0,,11,,,70,127
105689,note_off,2,0,0,,3,,,75,127
105689,note_on,0,0,0,,8,,,80,127
105689,note_on,0,0,0,,8,,,68,127
105689,note_on,0,0,0,,5,,,65,127
105806,note_off,117,0,0,,8,,,80,127
105808,note_on,2,0,0,,2,,,74,127
105923,note_off,115,0,0,,5,,,65,127
105923,note_off,0,0,0,,8,,,68,127
105925,note_off,2,0,0,,2,,,74,127
105927,note_on,2,0,0,,7,,,79,127
105927,note_on,0,0,0,,7,,,67,127
105927,note_on,0,0,0,,3,,,63,127
106044,note_off,117,0,0,,7,,,79,127
106046,note_on,2,0,0,,0,,,72,127
106161,note_off,115,0,0,,3,,,63,127
106161,note_off,0,0,0,,7,,,67,127
106163,note_off,2,0,0,,0,,,72,127
106165,note_on,2,0,0,,5,,,77,127
106165,note_on,0,0,0,,2,,,62,127
106165,note_on,0,0,0,,5,,,65,127
106282,note_off,117,0,0,,5,,,77,127
106284,note_on,2,0,0,,12,,,71,127
106399,note_off,115,0,0,,5,,,65,127
106399,note_off,0,0,0,,2,,,62,127
106401,note_off,2,0,0,,12,,,71,127
106401,note_on,0,0,0,,3,,,75,127
106401,note_on,0,0,0,,7,,,67,127
106401,note_on,0,0,0,,0,,,60,127
106635,note_off,234,0,0,,0,,,60,127
106635,note_off,0,0,0,,7,,,67,127
106635,note_off,0,0,0,,3,,,75,127
106638,note_on,3,0,0,,2,,,74,127
106638,note_on,0,0,0,,5,,,65,127
106872,note_off,234,0,0,,5,,,65,127
106872,note_off,0,0,0,,2,,,74,127
106875,note_on,3,0,0,,0,,,72,127
106875,note_on,0,0,0,,7,,,67,127
107109,note_off,234,0,0,,0,,,72,127
107112,note_on,3,0,0,,12,,,71,127
107112,note_on,0,0,0,,7,,,55,127
107189,note_off,77,0,0,,12,,,71,127
107191,note_on,2,0,0,,0,,,72,127
107268,note_off,77,0,0,,0,,,72,127
107270,note_on,2,0,0,,12,,,71,127
107344,note_off,74,0,0,,7,,,67,127
107347,note_off,3,0,0,,12,,,71,127
107347,note_off,0,0,0,,7,,,55,127
107349,note_on,2,0,0,,0,,,72,127
107349,note_on,0,0,0,,0,,,60,127
107583,note_off,234,0,0,,0,,,72,127
107605,note_on,22,0,0,,0,,,72,127
107722,note_off,117,0,0,,0,,,72,127
107724,note_on,2,0,0,,2,,,74,127
107841,note_off,117,0,0,,2,,,74,127
107843,note_on,2,0,0,,4,,,76,127
107960,note_off,117,0,0,,4,,,76,127
107962,note_on,2,0,0,,5,,,77,127
108058,note_off,96,0,0,,0,,,60,127
108079,note_off,21,0,0,,5,,,77,127
108081,note_on,2,0,0,,11,,,58,127
108081,note_on,0,0,0,,0,,,60,127
108081,note_on,0,0,0,,4,,,64,127
108081,note_on,0,0,0,,7,,,55,127
108081,note_on,0,0,0,,5,,,77,127
108198,note_off,117,0,0,,5,,,77,127
108198,note_on,0,0,0,,4,,,76,127
108315,note_off,117,0,0,,4,,,76,127
108317,note_on,2,0,0,,5,,,77,127
108434,note_off,117,0,0,,5,,,77,127
108436,note_on,2,0,0,,7,,,79,127
108553,note_off,117,0,0,,7,,,79,127
108555,note_on,2,0,0,,8,,,80,127
108672,note_off,117,0,0,,8,,,80,127
108674,note_on,2,0,0,,11,,,82,127
108791,note_off,117,0,0,,11,,,82,127
108791,note_off,0,0,0,,7,,,55,127
108791,note_off,0,0,0,,4,,,64,127
108791,note_off,0,0,0,,0,,,60,127
108791,note_off,0,0,0,,11,,,58,127
108793,note_on,2,0,0,,5,,,65,127
108793,note_on,0,0,0,,0,,,60,127
108793,note_on,0,0,0,,5,,,53,127
108793,note_on,0,0,0,,11,,,82,127
108910,note_off,117,0,0,,11,,,82,127
108912,note_on,2,0,0,,8,,,80,127
109029,note_off,117,0,0,,8,,,80,127
109029,note_on,0,0,0,,7,,,79,127
109146,note_off,117,0,0,,7,,,79,127
109148,note_on,2,0,0,,5,,,77,127
109265,note_off,117,0,0,,5,,,77,127
109267,note_on,2,0,0,,3,,,75,127
109384,note_off,117,0,0,,3,,,75,127
109386,note_on,2,0,0,,2,,,74,127
109503,note_off,117,0,0,,2,,,74,127
109503,note_off,0,0,0,,5,,,53,127
109503,note_off,0,0,0,,0,,,60,127
109503,note_off,0,0,0,,5,,,65,127
109505,note_on,2,0,0,,0,,,60,127
109505,note_on,0,0,0,,3,,,63,127
109505,note_on,0,0,0,,7,,,55,127
109505,note_on,0,0,0,,0,,,72,127
109739,note_off,234,0,0,,7,,,55,127
109739,note_off,0,0,0,,3,,,63,127
109739,note_off,0,0,0,,0,,,60,127
109741,note_on,2,0,0,,7,,,55,127
109741,note_on,0,0,0,,2,,,62,127
109741,note_on,0,0,0,,5,,,65,127
109800,note_off,59,0,0,,0,,,72,127
109800,note_on,0,0,0,,12,,,71,127
109859,note_on,59,0,0,,0,,,72,127
109864,note_off,5,0,0,,12,,,71,127
109918,note_on,54,0,0,,12,,,71,127
109923,note_off,5,0,0,,0,,,72,127
109977,note_on,54,0,0,,0,,,72,127
109982,note_off,5,0,0,,12,,,71,127
110036,note_on,54,0,0,,12,,,71,127
110041,note_off,5,0,0,,0,,,72,127
110095,note_on,54,0,0,,10,,,69,127
110100,note_off,5,0,0,,12,,,71,127
110154,note_on,54,0,0,,12,,,71,127
110159,note_off,5,0,0,,10,,,69,127
110210,note_off,51,0,0,,5,,,65,127
110210,note_off,0,0,0,,2,,,62,127
110210,note_off,0,0,0,,7,,,55,127
110213,note_on,3,0,0,,0,,,60,127
110213,note_on,0,0,0,,0,,,48,127
110213,note_on,0,0,0,,0,,,72,127
110218,note_off,5,0,0,,12,,,71,127
110447,note_off,229,0,0,,0,,,72,127
110450,note_on,3,0,0,,0,,,72,127
110567,note_off,117,0,0,,0,,,72,127
110567,note_on,0,0,0,,2,,,74,127
110684,note_off,117,0,0,,2,,,74,127
110686,note_on,2,0,0,,4,,,76,127
110803,note_off,117,0,0,,4,,,76,127
110805,note_on,2,0,0,,5,,,77,127
110922,note_off,117,0,0,,5,,,77,127
110922,note_off,0,0,0,,0,,,48,127
110922,note_off,0,0,0,,0,,,60,127
110924,note_on,2,0,0,,11,,,58,127
110924,note_on,0,0,0,,0,,,60,127
110924,note_on,0,0,0,,4,,,64,127
110924,note_on,0,0,0,,7,,,55,127
110924,note_on,0,0,0,,5,,,77,127
111041,note_off,117,0,0,,5,,,77,127
111043,note_on,2,0,0,,4,,,76,127
111160,note_off,117,0,0,,4,,,76,127
111162,note_on,2,0,0,,5,,,77,127
111279,note_off,117,0,0,,5,,,77,127
111279,note_on,0,0,0,,7,,,79,127
111396,note_off,117,0,0,,7,,,79,127
111398,note_on,2,0,0,,8,,,80,127
111515,note_off,117,0,0,,8,,,80,127
111517,note_on,2,0,0,,11,,,82,127
111634,note_off,117,0,0,,11,,,82,127
111634,note_off,0,0,0,,7,,,55,127
111634,note_off,0,0,0,,4,,,64,127
111634,note_off,0,0,0,,0,,,60,127
111634,note_off,0,0,0,,11,,,58,127
111636,note_on,2,0,0,,5,,,65,127
111636,note_on,0,0,0,,0,,,60,127
111636,note_on,0,0,0,,5,,,53,127
111636,note_on,0,0,0,,11,,,82,127
111753,note_off,117,0,0,,11,,,82,127
111755,note_on,2,0,0,,8,,,80,127
111872,note_off,117,0,0,,8,,,80,127
111874,note_on,2,0,0,,7,,,79,127
111991,note_off,117,0,0,,7,,,79,127
111993,note_on,2,0,0,,5,,,77,127
112110,note_off,117,0,0,,5,,,77,127
112110,note_on,0,0,0,,3,,,75,127
112227,note_off,117,0,0,,3,,,75,127
112229,note_on,2,0,0,,2,,,74,127
112346,note_off,117,0,0,,2,,,74,127
112346,note_off,0,0,0,,5,,,53,127
112346,note_off,0,0,0,,0,,,60,127
112346,note_off,0,0,0,,5,,,65,127
112348,note_on,2,0,0,,3,,,63,127
112348,note_on,0,0,0,,7,,,55,127
112348,note_on,0,0,0,,0,,,60,127
112348,note_on,0,0,0,,0,,,72,127
112582,note_off,234,0,0,,0,,,60,127
112582,note_off,0,0,0,,7,,,55,127
112582,note_off,0,0,0,,3,,,63,127
112585,note_on,3,0,0,,5,,,65,127
112585,note_on,0,0,0,,2,,,62,127
112585,note_on,0,0,0,,7,,,55,127
112643,note_off,58,0,0,,0,,,72,127
112645,note_on,2,0,0,,12,,,71,127
112704,note_on,59,0,0,,0,,,72,127
112709,note_off,5,0,0,,12,,,71,127
112763,note_on,54,0,0,,12,,,71,127
112768,note_off,5,0,0,,0,,,72,127
112821,note_on,53,0,0,,0,,,72,127
112827,note_off,6,0,0,,12,,,71,127
112880,note_on,53,0,0,,12,,,71,127
112885,note_off,5,0,0,,0,,,72,127
112939,note_on,54,0,0,,10,,,69,127
112944,note_off,5,0,0,,12,,,71,127
112998,note_on,54,0,0,,12,,,71,127
113003,note_off,5,0,0,,10,,,69,127
113056,note_off,53,0,0,,7,,,55,127
113056,note_off,0,0,0,,2,,,62,127
113056,note_off,0,0,0,,5,,,65,127
113058,note_on,2,0,0,,0,,,48,127
113058,note_on,0,0,0,,0,,,72,127
113063,note_off,5,0,0,,12,,,71,127
113314,note_on,251,0,0,,4,,,76,127
113402,note_off,88,0,0,,0,,,72,127
113431,note_off,29,0,0,,4,,,76,127
113433,note_on,2,0,0,,5,,,77,127
113529,note_off,96,0,0,,0,,,48,127
113550,note_off,21,0,0,,5,,,77,127
113552,note_on,2,0,0,,7,,,79,127
113552,note_on,0,0,0,,0,,,60,127
113552,note_on,0,0,0,,7,,,67,127
113669,note_off,117,0,0,,7,,,79,127
113671,note_on,2,0,0,,10,,,81,127
113786,note_off,115,0,0,,7,,,67,127
113786,note_off,0,0,0,,0,,,60,127
113788,note_off,2,0,0,,10,,,81,127
113790,note_on,2,0,0,,2,,,74,127
113790,note_on,0,0,0,,12,,,59,127
113790,note_on,0,0,0,,7,,,67,127
114024,note_off,234,0,0,,7,,,67,127
114024,note_off,0,0,0,,12,,,59,127
114024,note_off,0,0,0,,2,,,74,127
114026,note_on,2,0,0,,4,,,76,127
114026,note_on,0,0,0,,12,,,59,127
114026,note_on,0,0,0,,7,,,67,127
114143,note_off,117,0,0,,4,,,76,127
114145,note_on,2,0,0,,5,,,77,127
114260,note_off,115,0,0,,7,,,67,127
114260,note_off,0,0,0,,12,,,59,127
114262,note_off,2,0,0,,5,,,77,127
114264,note_on,2,0,0,,7,,,79,127
114264,note_on,0,0,0,,12,,,59,127
114264,note_on,0,0,0,,7,,,67,127
114381,note_off,117,0,0,,7,,,79,127
114383,note_on,2,0,0,,10,,,81,127
114498,note_off,115,0,0,,7,,,67,127
114498,note_off,0,0,0,,12,,,59,127
114500,note_off,2,0,0,,10,,,81,127
114502,note_on,2,0,0,,0,,,72,127
114502,note_on,0,0,0,,10,,,57,127
114502,note_on,0,0,0,,7,,,67,127
114736,note_off,234,0,0,,7,,,67,127
114736,note_off,0,0,0,,10,,,57,127
114736,note_off,0,0,0,,0,,,72,127
114738,note_on,2,0,0,,4,,,76,127
114738,note_on,0,0,0,,10,,,57,127
114738,note_on,0,0,0,,7,,,67,127
114855,note_off,117,0,0,,4,,,76,127
114857,note_on,2,0,0,,5,,,77,127
114972,note_off,115,0,0,,7,,,67,127
114972,note_off,0,0,0,,10,,,57,127
114974,note_off,2,0,0,,5,,,77,127
114976,note_on,2,0,0,,7,,,79,127
114976,note_on,0,0,0,,10,,,57,127
114976,note_on,0,0,0,,7,,,67,127
115093,note_off,117,0,0,,7,,,79,127
115095,note_on,2,0,0,,10,,,81,127
115210,note_off,115,0,0,,7,,,67,127
115210,note_off,0,0,0,,10,,,57,127
115212,note_off,2,0,0,,10,,,81,127
115214,note_on,2,0,0,,12,,,71,127
115214,note_on,0,0,0,,7,,,55,127
115214,note_on,0,0,0,,7,,,67,127
115448,note_off,234,0,0,,7,,,67,127
115448,note_off,0,0,0,,7,,,55,127
115448,note_off,0,0,0,,12,,,71,127
115450,note_on,2,0,0,,4,,,76,127
115450,note_on,0,0,0,,7,,,67,127
115450,note_on,0,0,0,,7,,,55,127
115567,note_off,117,0,0,,4,,,76,127
115569,note_on,2,0,0,,5,,,77,127
115684,note_off,115,0,0,,7,,,55,127
115684,note_off,0,0,0,,7,,,67,127
115686,note_off,2,0,0,,5,,,77,127
115688,note_on,2,0,0,,7,,,79,127
115688,note_on,0,0,0,,7,,,55,127
115688,note_on,0,0,0,,7,,,67,127
115805,note_off,117,0,0,,7,,,79,127
115807,note_on,2,0,0,,10,,,81,127
115922,note_off,115,0,0,,7,,,67,127
115922,note_off,0,0,0,,7,,,55,127
115924,note_off,2,0,0,,10,,,81,127
115926,note_on,2,0,0,,10,,,69,127
115926,note_on,0,0,0,,5,,,65,127
115926,note_on,0,0,0,,5,,,53,127
116160,note_off,234,0,0,,5,,,53,127
116160,note_off,0,0,0,,5,,,65,127
116160,note_off,0,0,0,,10,,,69,127
116162,note_on,2,0,0,,4,,,76,127
116162,note_on,0,0,0,,5,,,53,127
116162,note_on,0,0,0,,5,,,65,127
116279,note_off,117,0,0,,4,,,76,127
116281,note_on,2,0,0,,5,,,77,127
116396,note_off,115,0,0,,5,,,65,127
116396,note_off,0,0,0,,5,,,53,127
116398,note_off,2,0,0,,5,,,77,127
116400,note_on,2,0,0,,7,,,79,127
116400,note_on,0,0,0,,5,,,65,127
116400,note_on,0,0,0,,5,,,53,127
116517,note_off,117,0,0,,7,,,79,127
116519,note_on,2,0,0,,10,,,81,127
116634,note_off,115,0,0,,5,,,53,127
116634,note_off,0,0,0,,5,,,65,127
116636,note_off,2,0,0,,10,,,81,127
116638,note_on,2,0,0,,7,,,79,127
116638,note_on,0,0,0,,4,,,52,127
116638,note_on,0,0,0,,4,,,64,127
116872,note_off,234,0,0,,4,,,64,127
116872,note_off,0,0,0,,4,,,52,127
116872,note_off,0,0,0,,7,,,79,127
116875,note_on,3,0,0,,5,,,77,127
116875,note_on,0,0,0,,2,,,50,127
116875,note_on,0,0,0,,2,,,62,127
117109,note_off,234,0,0,,2,,,62,127
117109,note_off,0,0,0,,2,,,50,127
117109,note_off,0,0,0,,5,,,77,127
117111,note_on,2,0,0,,4,,,76,127
117111,note_on,0,0,0,,0,,,48,127
117111,note_on,0,0,0,,0,,,60,127
117345,note_off,234,0,0,,0,,,60,127
117345,note_off,0,0,0,,0,,,48,127
117345,note_off,0,0,0,,4,,,76,127
117348,note_on,3,0,0,,2,,,74,127
117348,note_on,0,0,0,,5,,,53,127
117582,note_off,234,0,0,,5,,,53,127
117582,note_off,0,0,0,,2,,,74,127
117585,note_on,3,0,0,,0,,,72,127
117585,note_on,0,0,0,,7,,,55,127
117819,note_off,234,0,0,,0,,,72,127
117821,note_on,2,0,0,,12,,,71,127
117821,note_on,0,0,0,,7,,,43,127
117898,note_off,77,0,0,,12,,,71,127
117901,note_on,3,0,0,,0,,,72,127
117978,note_off,77,0,0,,0,,,72,127
117980,note_on,2,0,0,,12,,,71,127
118054,note_off,74,0,0,,7,,,55,127
118056,note_off,2,0,0,,7,,,43,127
118058,note_off,2,0,0,,12,,,71,127
118060,note_on,2,0,0,,0,,,72,127
118060,note_on,0,0,0,,0,,,48,127
118305,note_off,245,0,0,,0,,,72,127
118307,note_on,2,0,0,,4,,,76,127
118424,note_off,117,0,0,,4,,,76,127
118426,note_on,2,0,0,,5,,,77,127
118532,note_off,106,0,0,,0,,,48,127
118543,note_off,11,0,0,,5,,,77,127
118545,note_on,2,0,0,,7,,,79,127
118545,note_on,0,0,0,,0,,,60,127
118545,note_on,0,0,0,,7,,,67,127
118662,note_off,117,0,0,,7,,,79,127
118662,note_on,0,0,0,,10,,,81,127
118779,note_off,117,0,0,,10,,,81,127
118779,note_off,0,0,0,,7,,,67,127
118779,note_off,0,0,0,,0,,,60,127
118781,note_on,2,0,0,,2,,,74,127
118781,note_on,0,0,0,,12,,,59,127
118781,note_on,0,0,0,,7,,,67,127
119015,note_off,234,0,0,,7,,,67,127
119015,note_off,0,0,0,,12,,,59,127
119015,note_off,0,0,0,,2,,,74,127
119018,note_on,3,0,0,,4,,,76,127
119018,note_on,0,0,0,,12,,,59,127
119018,note_on,0,0,0,,7,,,67,127
119135,note_off,117,0,0,,4,,,76,127
119137,note_on,2,0,0,,5,,,77,127
119252,note_off,115,0,0,,7,,,67,127
119252,note_off,0,0,0,,12,,,59,127
119254,note_off,2,0,0,,5,,,77,127
119256,note_on,2,0,0,,7,,,79,127
119256,note_on,0,0,0,,12,,,59,127
119256,note_on,0,0,0,,7,,,67,127
119373,note_off,117,0,0,,7,,,79,127
119373,note_on,0,0,0,,10,,,81,127
119490,note_off,117,0,0,,10,,,81,127
119490,note_off,0,0,0,,7,,,67,127
119490,note_off,0,0,0,,12,,,59,127
119492,note_on,2,0,0,,0,,,72,127
119492,note_on,0,0,0,,10,,,57,127
119492,note_on,0,0,0,,7,,,67,127
119726,note_off,234,0,0,,7,,,67,127
119726,note_off,0,0,0,,10,,,57,127
119726,note_off,0,0,0,,0,,,72,127
119729,note_on,3,0,0,,4,,,76,127
119729,note_on,0,0,0,,7,,,67,127
119729,note_on,0,0,0,,10,,,57,127
119846,note_off,117,0,0,,4,,,76,127
119848,note_on,2,0,0,,5,,,77,127
119963,note_off,115,0,0,,10,,,57,127
119963,note_off,0,0,0,,7,,,67,127
119965,note_off,2,0,0,,5,,,77,127
119967,note_on,2,0,0,,7,,,79,127
119967,note_on,0,0,0,,7,,,67,127
119967,note_on,0,0,0,,10,,,57,127
120084,note_off,117,0,0,,7,,,79,127
120086,note_on,2,0,0,,10,,,81,127
120201,note_off,115,0,0,,10,,,57,127
120201,note_off,0,0,0,,7,,,67,127
120203,note_off,2,0,0,,10,,,81,127
120203,note_on,0,0,0,,12,,,71,127
120203,note_on,0,0,0,,7,,,67,127
120203,note_on,0,0,0,,7,,,55,127
120437,note_off,234,0,0,,7,,,55,127
120437,note_off,0,0,0,,7,,,67,127
120437,note_off,0,0,0,,12,,,71,127
120440,note_on,3,0,0,,4,,,76,127
120440,note_on,0,0,0,,7,,,67,127
120440,note_on,0,0,0,,7,,,55,127
120557,note_off,117,0,0,,4,,,76,127
120559,note_on,2,0,0,,5,,,77,127
120674,note_off,115,0,0,,7,,,55,127
120674,note_off,0,0,0,,7,,,67,127
120676,note_off,2,0,0,,5,,,77,127
120678,note_on,2,0,0,,7,,,79,127
120678,note_on,0,0,0,,7,,,55,127
120678,note_on,0,0,0,,7,,,67,127
120795,note_off,117,0,0,,7,,,79,127
120797,note_on,2,0,0,,10,,,81,127
120912,note_off,115,0,0,,7,,,67,127
120912,note_off,0,0,0,,7,,,55,127
120914,note_off,2,0,0,,10,,,81,127
120914,note_on,0,0,0,,10,,,69,127
120914,note_on,0,0,0,,5,,,65,127
120914,note_on,0,0,0,,5,,,53,127
121148,note_off,234,0,0,,5,,,53,127
121148,note_off,0,0,0,,5,,,65,127
121148,note_off,0,0,0,,10,,,69,127
121151,note_on,3,0,0,,4,,,76,127
121151,note_on,0,0,0,,5,,,65,127
121151,note_on,0,0,0,,5,,,53,127
121268,note_off,117,0,0,,4,,,76,127
121270,note_on,2,0,0,,5,,,77,127
121385,note_off,115,0,0,,5,,,53,127
121385,note_off,0,0,0,,5,,,65,127
121387,note_off,2,0,0,,5,,,77,127
121389,note_on,2,0,0,,7,,,79,127
121389,note_on,0,0,0,,5,,,65,127
121389,note_on,0,0,0,,5,,,53,127
121506,note_off,117,0,0,,7,,,79,127
121508,note_on,2,0,0,,10,,,81,127
121623,note_off,115,0,0,,5,,,53,127
121623,note_off,0,0,0,,5,,,65,127
121625,note_off,2,0,0,,10,,,81,127
121627,note_on,2,0,0,,7,,,79,127
121627,note_on,0,0,0,,4,,,64,127
121627,note_on,0,0,0,,4,,,52,127
121861,note_off,234,0,0,,4,,,52,127
121861,note_off,0,0,0,,4,,,64,127
121861,note_off,0,0,0,,7,,,79,127
121863,note_on,2,0,0,,5,,,77,127
121863,note_on,0,0,0,,2,,,62,127
121863,note_on,0,0,0,,2,,,50,127
122097,note_off,234,0,0,,2,,,50,127
122097,note_off,0,0,0,,2,,,62,127
122097,note_off,0,0,0,,5,,,77,127
122100,note_on,3,0,0,,4,,,76,127
122100,note_on,0,0,0,,0,,,48,127
122100,note_on,0,0,0,,0,,,60,127
122334,note_off,234,0,0,,0,,,60,127
122334,note_off,0,0,0,,0,,,48,127
122334,note_off,0,0,0,,4,,,76,127
122337,note_on,3,0,0,,2,,,74,127
122337,note_on,0,0,0,,5,,,53,127
122571,note_off,234,0,0,,5,,,53,127
122571,note_off,0,0,0,,2,,,74,127
122573,note_on,2,0,0,,0,,,72,127
122573,note_on,0,0,0,,7,,,55,127
122807,note_off,234,0,0,,0,,,72,127
122810,note_on,3,0,0,,12,,,71,127
122810,note_on,0,0,0,,7,,,43,127
122887,note_off,77,0,0,,12,,,71,127
122889,note_on,2,0,0,,0,,,72,127
122966,note_off,77,0,0,,0,,,72,127
122968,note_on,2,0,0,,12,,,71,127
123042,note_off,74,0,0,,7,,,55,127
123045,note_off,3,0,0,,12,,,71,127
123045,note_off,0,0,0,,7,,,43,127
123067,note_on,22,0,0,,0,,,60,127
123067,note_on,0,0,0,,0,,,72,127
123184,note_off,117,0,0,,0,,,72,127
123186,note_on,2,0,0,,7,,,79,127
123301,note_off,115,0,0,,0,,,60,127
123303,note_off,2,0,0,,7,,,79,127
123305,note_on,2,0,0,,2,,,62,127
123305,note_on,0,0,0,,4,,,76,127
123422,note_off,117,0,0,,4,,,76,127
123424,note_on,2,0,0,,0,,,72,127
123539,note_off,115,0,0,,2,,,62,127
123541,note_off,2,0,0,,0,,,72,127
123541,note_on,0,0,0,,4,,,64,127
123541,note_on,0,0,0,,7,,,79,127
123775,note_off,234,0,0,,7,,,79,127
123775,note_off,0,0,0,,4,,,64,127
123778,note_on,3,0,0,,5,,,65,127
123778,note_on,0,0,0,,2,,,74,127
124012,note_off,234,0,0,,2,,,74,127
124012,note_off,0,0,0,,5,,,65,127
124015,note_on,3,0,0,,7,,,67,127
124015,note_on,0,0,0,,7,,,79,127
124074,note_on,59,0,0,,5,,,77,127
124079,note_off,5,0,0,,7,,,79,127
124133,note_on,54,0,0,,7,,,79,127
124138,note_off,5,0,0,,5,,,77,127
124192,note_on,54,0,0,,5,,,77,127
124197,note_off,5,0,0,,7,,,79,127
124250,note_on,53,0,0,,7,,,55,127
124250,note_on,0,0,0,,7,,,79,127
124256,note_off,6,0,0,,5,,,77,127
124309,note_on,53,0,0,,5,,,77,127
124314,note_off,5,0,0,,7,,,79,127
124368,note_on,54,0,0,,4,,,76,127
124373,note_off,5,0,0,,5,,,77,127
124427,note_on,54,0,0,,5,,,77,127
124432,note_off,5,0,0,,4,,,76,127
124482,note_off,50,0,0,,7,,,67,127
124484,note_off,2,0,0,,7,,,55,127
124492,note_off,8,0,0,,5,,,77,127
124506,note_on,14,0,0,,4,,,76,127
124506,note_on,0,0,0,,0,,,60,127
124623,note_off,117,0,0,,4,,,76,127
124625,note_on,2,0,0,,7,,,79,127
124740,note_off,115,0,0,,0,,,60,127
124742,note_off,2,0,0,,7,,,79,127
124744,note_on,2,0,0,,4,,,76,127
124744,note_on,0,0,0,,2,,,62,127
124861,note_off,117,0,0,,4,,,76,127
124863,note_on,2,0,0,,0,,,72,127
124978,note_off,115,0,0,,2,,,62,127
124980,note_off,2,0,0,,0,,,72,127
124982,note_on,2,0,0,,7,,,79,127
124982,note_on,0,0,0,,4,,,64,127
125216,note_off,234,0,0,,4,,,64,127
125216,note_off,0,0,0,,7,,,79,127
125219,note_on,3,0,0,,2,,,74,127
125219,note_on,0,0,0,,5,,,65,127
125453,note_off,234,0,0,,5,,,65,127
125453,note_off,0,0,0,,2,,,74,127
125455,note_on,2,0,0,,7,,,79,127
125455,note_on,0,0,0,,7,,,67,127
125514,note_on,59,0,0,,5,,,77,127
125519,note_off,5,0,0,,7,,,79,127
125573,note_on,54,0,0,,7,,,79,127
125578,note_off,5,0,0,,5,,,77,127
125632,note_on,54,0,0,,5,,,77,127
125637,note_off,5,0,0,,7,,,79,127
125691,note_on,54,0,0,,7,,,79,127
125691,note_on,0,0,0,,7,,,55,127
125696,note_off,5,0,0,,5,,,77,127
125750,note_on,54,0,0,,5,,,77,127
125755,note_off,5,0,0,,7,,,79,127
125808,note_off,53,0,0,,7,,,67,127
125810,note_on,2,0,0,,4,,,76,127
125815,note_off,5,0,0,,5,,,77,127
125869,note_on,54,0,0,,5,,,77,127
125874,note_off,5,0,0,,4,,,76,127
125925,note_off,51,0,0,,7,,,55,127
125933,note_off,8,0,0,,5,,,77,127
125947,note_on,14,0,0,,0,,,48,127
125947,note_on,0,0,0,,4,,,76,127
126064,note_off,117,0,0,,4,,,76,127
126066,note_on,2,0,0,,7,,,79,127
126181,note_off,115,0,0,,0,,,48,127
126183,note_off,2,0,0,,7,,,79,127
126185,note_on,2,0,0,,2,,,50,127
126185,note_on,0,0,0,,4,,,76,127
126302,note_off,117,0,0,,4,,,76,127
126302,note_on,0,0,0,,0,,,72,127
126419,note_off,117,0,0,,0,,,72,127
126419,note_off,0,0,0,,2,,,50,127
126421,note_on,2,0,0,,4,,,52,127
126421,note_on,0,0,0,,0,,,84,127
126655,note_off,234,0,0,,0,,,84,127
126655,note_off,0,0,0,,4,,,52,127
126684,note_on,29,0,0,,0,,,60,127
126684,note_on,0,0,0,,5,,,53,127
126934,note_off,250,0,0,,5,,,53,127
126934,note_off,0,0,0,,0,,,60,127
126940,note_on,6,0,0,,4,,,64,127
126940,note_on,0,0,0,,7,,,55,127
127004,note_on,64,0,0,,2,,,62,127
127007,note_off,3,0,0,,4,,,64,127
127066,note_on,59,0,0,,4,,,64,127
127071,note_off,5,0,0,,2,,,62,127
127130,note_on,59,0,0,,2,,,62,127
127133,note_off,3,0,0,,4,,,64,127
127194,note_on,61,0,0,,4,,,64,127
127194,note_on,0,0,0,,7,,,43,127
127197,note_off,3,0,0,,2,,,62,127
127258,note_on,61,0,0,,2,,,62,127
127261,note_off,3,0,0,,4,,,64,127
127317,note_off,56,0,0,,7,,,55,127
127322,note_on,5,0,0,,0,,,60,127
127325,note_off,3,0,0,,2,,,62,127
127386,note_on,61,0,0,,2,,,62,127
127389,note_off,3,0,0,,0,,,60,127
127443,note_off,54,0,0,,7,,,43,127
127453,note_off,10,0,0,,2,,,62,127
127469,note_on,16,0,0,,0,,,60,127
127469,note_on,0,0,0,,0,,,36,127
129443,note_off,1974,0,0,,0,,,36,127
129443,note_off,0,0,0,,0,,,60,127
133632,end_of_track,4189,1,0,,,,,,
