tick,type,time,meta,track,program,channel,pitch,tempo,note,velocity
0,copyright,0,1,0,,,,,,
0,program_change,0,0,0,6,0,,,,
0,pitchwheel,0,0,0,,0,0,,,
0,program_change,0,0,0,6,1,,,,
0,pitchwheel,0,0,0,,1,-590,,,
0,program_change,0,0,0,6,2,,,,
0,pitchwheel,0,0,0,,2,-272,,,
0,program_change,0,0,0,6,3,,,,
0,pitchwheel,0,0,0,,3,-353,,,
0,program_change,0,0,0,6,4,,,,
0,pitchwheel,0,0,0,,4,-560,,,
0,program_change,0,0,0,6,5,,,,
0,pitchwheel,0,0,0,,5,-80,,,
0,program_change,0,0,0,6,6,,,,
0,pitchwheel,0,0,0,,6,-625,,,
0,program_change,0,0,0,6,7,,,,
0,pitchwheel,0,0,0,,7,-130,,,
0,program_change,0,0,0,6,8,,,,
0,pitchwheel,0,0,0,,8,-512,,,
0,program_change,0,0,0,6,10,,,,
0,pitchwheel,0,0,0,,10,-464,,,
0,program_change,0,0,0,6,11,,,,
0,pitchwheel,0,0,0,,11,-208,,,
0,program_change,0,0,0,6,12,,,,
0,pitchwheel,0,0,0,,12,-553,,,
0,set_tempo,0,1,0,,,,500000,,
165,note_on,165,0,0,,7,,,79,127
489,note_off,324,0,0,,7,,,79,127
494,note_on,5,0,0,,2,,,74,127
653,note_off,159,0,0,,2,,,74,127
658,note_on,5,0,0,,12,,,71,127
817,note_off,159,0,0,,12,,,71,127
822,note_on,5,0,0,,4,,,76,127
981,note_off,159,0,0,,4,,,76,127
986,note_on,5,0,0,,0,,,72,127
1145,note_off,159,0,0,,0,,,72,127
1150,note_on,5,0,0,,2,,,74,127
1474,note_off,324,0,0,,2,,,74,127
1479,note_on,5,0,0,,12,,,71,127
1638,note_off,159,0,0,,12,,,71,127
1643,note_on,5,0,0,,7,,,67,127
1802,note_off,159,0,0,,7,,,67,127
1807,note_on,5,0,0,,0,,,72,127
1966,note_off,159,0,0,,0,,,72,127
1971,note_on,5,0,0,,10,,,69,127
2130,note_off,159,0,0,,10,,,69,127
2135,note_on,5,0,0,,7,,,67,127
2135,note_on,0,0,0,,12,,,71,127
2294,note_off,159,0,0,,12,,,71,127
2299,note_on,5,0,0,,0,,,72,127
2381,note_on,82,0,0,,2,,,74,127
2407,note_off,26,0,0,,0,,,72,127
2458,note_off,51,0,0,,7,,,67,127
2463,note_on,5,0,0,,10,,,69,127
2545,note_on,82,0,0,,0,,,72,127
2586,note_off,41,0,0,,2,,,74,127
2627,note_on,41,0,0,,2,,,74,127
2653,note_off,26,0,0,,0,,,72,127
2710,note_on,57,0,0,,0,,,72,127
2736,note_off,26,0,0,,2,,,74,127
2787,note_off,51,0,0,,10,,,69,127
2792,note_on,5,0,0,,2,,,62,127
2792,note_on,0,0,0,,2,,,74,127
2818,note_off,26,0,0,,0,,,72,127
2875,note_on,57,0,0,,0,,,72,127
2901,note_off,26,0,0,,2,,,74,127
2958,note_on,57,0,0,,2,,,74,127
2984,note_off,26,0,0,,0,,,72,127
3041,note_on,57,0,0,,0,,,72,127
3067,note_off,26,0,0,,2,,,74,127
3118,note_off,51,0,0,,2,,,62,127
3123,note_on,5,0,0,,7,,,67,127
3123,note_on,0,0,0,,12,,,71,127
3149,note_off,26,0,0,,0,,,72,127
3283,note_off,134,0,0,,12,,,71,127
3288,note_on,5,0,0,,0,,,72,127
3370,note_on,82,0,0,,2,,,74,127
3396,note_off,26,0,0,,0,,,72,127
3447,note_off,51,0,0,,7,,,67,127
3452,note_on,5,0,0,,10,,,69,127
3534,note_on,82,0,0,,0,,,72,127
3575,note_off,41,0,0,,2,,,74,127
3616,note_on,41,0,0,,2,,,74,127
3642,note_off,26,0,0,,0,,,72,127
3699,note_on,57,0,0,,0,,,72,127
3725,note_off,26,0,0,,2,,,74,127
3776,note_off,51,0,0,,10,,,69,127
3781,note_on,5,0,0,,2,,,62,127
3781,note_on,0,0,0,,2,,,74,127
3807,note_off,26,0,0,,0,,,72,127
3864,note_on,57,0,0,,0,,,72,127
3890,note_off,26,0,0,,2,,,74,127
3947,note_on,57,0,0,,2,,,74,127
3973,note_off,26,0,0,,0,,,72,127
4030,note_on,57,0,0,,0,,,72,127
4056,note_off,26,0,0,,2,,,74,127
4107,note_off,51,0,0,,2,,,62,127
4112,note_on,5,0,0,,7,,,67,127
4112,note_on,0,0,0,,12,,,71,127
4138,note_off,26,0,0,,0,,,72,127
4272,note_off,134,0,0,,12,,,71,127
4277,note_on,5,0,0,,0,,,72,127
4359,note_on,82,0,0,,2,,,74,127
4385,note_off,26,0,0,,0,,,72,127
4436,note_off,51,0,0,,7,,,67,127
4441,note_on,5,0,0,,10,,,69,127
4523,note_on,82,0,0,,0,,,72,127
4564,note_off,41,0,0,,2,,,74,127
4605,note_on,41,0,0,,2,,,74,127
4631,note_off,26,0,0,,0,,,72,127
4688,note_on,57,0,0,,0,,,72,127
4714,note_off,26,0,0,,2,,,74,127
4765,note_off,51,0,0,,10,,,69,127
4770,note_on,5,0,0,,2,,,62,127
4770,note_on,0,0,0,,2,,,74,127
4796,note_off,26,0,0,,0,,,72,127
4853,note_on,57,0,0,,0,,,72,127
4879,note_off,26,0,0,,2,,,74,127
4936,note_on,57,0,0,,2,,,74,127
4962,note_off,26,0,0,,0,,,72,127
5019,note_on,57,0,0,,0,,,72,127
5045,note_off,26,0,0,,2,,,74,127
5096,note_off,51,0,0,,2,,,62,127
5101,note_on,5,0,0,,7,,,55,127
5101,note_on,0,0,0,,12,,,71,127
5127,note_off,26,0,0,,0,,,72,127
5261,note_off,134,0,0,,12,,,71,127
5266,note_on,5,0,0,,10,,,69,127
5425,note_off,159,0,0,,10,,,69,127
5430,note_on,5,0,0,,7,,,67,127
5589,note_off,159,0,0,,7,,,67,127
5594,note_on,5,0,0,,6,,,66,127
5753,note_off,159,0,0,,6,,,66,127
5758,note_on,5,0,0,,7,,,67,127
6082,note_off,324,0,0,,7,,,55,127
6087,note_off,5,0,0,,7,,,67,127
6087,note_on,0,0,0,,7,,,55,127
6252,note_on,165,0,0,,12,,,71,127
6334,note_on,82,0,0,,4,,,76,127
6360,note_off,26,0,0,,12,,,71,127
6417,note_on,57,0,0,,2,,,74,127
6443,note_off,26,0,0,,4,,,76,127
6577,note_off,134,0,0,,7,,,55,127
6582,note_on,5,0,0,,7,,,67,127
6741,note_off,159,0,0,,7,,,67,127
6746,note_on,5,0,0,,6,,,66,127
6905,note_off,159,0,0,,6,,,66,127
6910,note_on,5,0,0,,2,,,62,127
7069,note_off,159,0,0,,2,,,62,127
7074,note_on,5,0,0,,7,,,55,127
7233,note_off,159,0,0,,2,,,74,127
7238,note_on,5,0,0,,12,,,71,127
7320,note_on,82,0,0,,4,,,76,127
7346,note_off,26,0,0,,12,,,71,127
7403,note_on,57,0,0,,2,,,74,127
7429,note_off,26,0,0,,4,,,76,127
7563,note_off,134,0,0,,7,,,55,127
7568,note_on,5,0,0,,7,,,67,127
7727,note_off,159,0,0,,7,,,67,127
7732,note_on,5,0,0,,6,,,66,127
7891,note_off,159,0,0,,6,,,66,127
7896,note_on,5,0,0,,2,,,62,127
8055,note_off,159,0,0,,2,,,62,127
8060,note_on,5,0,0,,7,,,55,127
8219,note_off,159,0,0,,2,,,74,127
8224,note_on,5,0,0,,12,,,71,127
8306,note_on,82,0,0,,4,,,76,127
8332,note_off,26,0,0,,12,,,71,127
8389,note_on,57,0,0,,2,,,74,127
8415,note_off,26,0,0,,4,,,76,127
8549,note_off,134,0,0,,7,,,55,127
8554,note_on,5,0,0,,7,,,67,127
8713,note_off,159,0,0,,7,,,67,127
8718,note_on,5,0,0,,6,,,66,127
8877,note_off,159,0,0,,6,,,66,127
8877,note_off,0,0,0,,2,,,74,127
8882,note_on,5,0,0,,2,,,62,127
8882,note_on,0,0,0,,0,,,72,127
9041,note_off,159,0,0,,0,,,72,127
9041,note_off,0,0,0,,2,,,62,127
9046,note_on,5,0,0,,7,,,55,127
9046,note_on,0,0,0,,12,,,71,127
9205,note_off,159,0,0,,12,,,71,127
9210,note_on,5,0,0,,10,,,69,127
9369,note_off,159,0,0,,10,,,69,127
9374,note_on,5,0,0,,7,,,67,127
9533,note_off,159,0,0,,7,,,67,127
9538,note_on,5,0,0,,6,,,66,127
9697,note_off,159,0,0,,6,,,66,127
9702,note_on,5,0,0,,7,,,67,127
10026,note_off,324,0,0,,7,,,55,127
10031,note_off,5,0,0,,7,,,67,127
10031,note_on,0,0,0,,7,,,67,127
10196,note_on,165,0,0,,12,,,71,127
10278,note_on,82,0,0,,10,,,81,127
10304,note_off,26,0,0,,12,,,71,127
10355,note_off,51,0,0,,7,,,67,127
10360,note_on,5,0,0,,7,,,67,127
10360,note_on,0,0,0,,7,,,79,127
10386,note_off,26,0,0,,10,,,81,127
10520,note_off,134,0,0,,7,,,79,127
10525,note_on,5,0,0,,6,,,78,127
10684,note_off,159,0,0,,6,,,78,127
10684,note_off,0,0,0,,7,,,67,127
10689,note_on,5,0,0,,7,,,67,127
10689,note_on,0,0,0,,4,,,76,127
10848,note_off,159,0,0,,4,,,76,127
10853,note_on,5,0,0,,2,,,74,127
11012,note_off,159,0,0,,2,,,74,127
11012,note_off,0,0,0,,7,,,67,127
11017,note_on,5,0,0,,7,,,67,127
11017,note_on,0,0,0,,1,,,73,127
11176,note_off,159,0,0,,1,,,73,127
11181,note_on,5,0,0,,12,,,71,127
11340,note_off,159,0,0,,12,,,71,127
11345,note_on,5,0,0,,10,,,69,127
11504,note_off,159,0,0,,10,,,69,127
11506,note_off,2,0,0,,7,,,67,127
11509,note_on,3,0,0,,7,,,67,127
11668,note_off,159,0,0,,7,,,67,127
11673,note_on,5,0,0,,6,,,66,127
11832,note_off,159,0,0,,6,,,66,127
11837,note_on,5,0,0,,4,,,64,127
12002,note_off,165,0,0,,4,,,64,127
12002,note_on,0,0,0,,6,,,66,127
12167,note_on,165,0,0,,10,,,69,127
12249,note_on,82,0,0,,7,,,79,127
12275,note_off,26,0,0,,10,,,69,127
12326,note_off,51,0,0,,6,,,66,127
12331,note_on,5,0,0,,6,,,66,127
12331,note_on,0,0,0,,6,,,78,127
12357,note_off,26,0,0,,7,,,79,127
12491,note_off,134,0,0,,6,,,78,127
12496,note_on,5,0,0,,4,,,76,127
12655,note_off,159,0,0,,4,,,76,127
12655,note_off,0,0,0,,6,,,66,127
12660,note_on,5,0,0,,6,,,66,127
12660,note_on,0,0,0,,2,,,74,127
12819,note_off,159,0,0,,2,,,74,127
12824,note_on,5,0,0,,1,,,73,127
12983,note_off,159,0,0,,1,,,73,127
12983,note_off,0,0,0,,6,,,66,127
12988,note_on,5,0,0,,6,,,66,127
12988,note_on,0,0,0,,12,,,71,127
13147,note_off,159,0,0,,12,,,71,127
13152,note_on,5,0,0,,10,,,69,127
13311,note_off,159,0,0,,10,,,69,127
13316,note_on,5,0,0,,7,,,67,127
13475,note_off,159,0,0,,7,,,67,127
13477,note_off,2,0,0,,6,,,66,127
13480,note_on,3,0,0,,6,,,66,127
13639,note_off,159,0,0,,6,,,66,127
13644,note_on,5,0,0,,4,,,64,127
13803,note_off,159,0,0,,4,,,64,127
13808,note_on,5,0,0,,2,,,62,127
13973,note_off,165,0,0,,2,,,62,127
13973,note_on,0,0,0,,4,,,64,127
14138,note_on,165,0,0,,1,,,73,127
14220,note_on,82,0,0,,2,,,74,127
14246,note_off,26,0,0,,1,,,73,127
14297,note_off,51,0,0,,4,,,64,127
14302,note_on,5,0,0,,4,,,64,127
14302,note_on,0,0,0,,4,,,76,127
14328,note_off,26,0,0,,2,,,74,127
14462,note_off,134,0,0,,4,,,76,127
14467,note_on,5,0,0,,6,,,78,127
14626,note_off,159,0,0,,6,,,78,127
14626,note_off,0,0,0,,4,,,64,127
14631,note_on,5,0,0,,2,,,62,127
14631,note_on,0,0,0,,6,,,78,127
14790,note_off,159,0,0,,6,,,78,127
14795,note_on,5,0,0,,7,,,79,127
14954,note_off,159,0,0,,2,,,62,127
14959,note_on,5,0,0,,4,,,64,127
14959,note_on,0,0,0,,1,,,61,127
15118,note_off,159,0,0,,7,,,79,127
15123,note_on,5,0,0,,1,,,73,127
15205,note_on,82,0,0,,2,,,74,127
15231,note_off,26,0,0,,1,,,73,127
15282,note_off,51,0,0,,1,,,61,127
15282,note_off,0,0,0,,4,,,64,127
15287,note_on,5,0,0,,1,,,61,127
15287,note_on,0,0,0,,4,,,64,127
15287,note_on,0,0,0,,4,,,76,127
15313,note_off,26,0,0,,2,,,74,127
15447,note_off,134,0,0,,4,,,76,127
15452,note_on,5,0,0,,6,,,78,127
15611,note_off,159,0,0,,6,,,78,127
15611,note_off,0,0,0,,4,,,64,127
15611,note_off,0,0,0,,1,,,61,127
15616,note_on,5,0,0,,2,,,62,127
15616,note_on,0,0,0,,12,,,59,127
15616,note_on,0,0,0,,6,,,78,127
15775,note_off,159,0,0,,6,,,78,127
15780,note_on,5,0,0,,7,,,79,127
15939,note_off,159,0,0,,12,,,59,127
15939,note_off,0,0,0,,2,,,62,127
15944,note_on,5,0,0,,4,,,64,127
15944,note_on,0,0,0,,10,,,57,127
16103,note_off,159,0,0,,7,,,79,127
16108,note_on,5,0,0,,8,,,80,127
16267,note_off,159,0,0,,8,,,80,127
16272,note_on,5,0,0,,10,,,81,127
16431,note_off,159,0,0,,10,,,81,127
16436,note_on,5,0,0,,7,,,79,127
16595,note_off,159,0,0,,7,,,79,127
16598,note_off,3,0,0,,10,,,57,127
16598,note_off,0,0,0,,4,,,64,127
16600,note_on,2,0,0,,6,,,78,127
16759,note_off,159,0,0,,6,,,78,127
16764,note_on,5,0,0,,4,,,76,127
16923,note_off,159,0,0,,4,,,76,127
16928,note_on,5,0,0,,2,,,74,127
17087,note_off,159,0,0,,2,,,74,127
17092,note_on,5,0,0,,1,,,73,127
17251,note_off,159,0,0,,1,,,73,127
17256,note_on,5,0,0,,12,,,71,127
17415,note_off,159,0,0,,12,,,71,127
17420,note_on,5,0,0,,10,,,69,127
17579,note_off,159,0,0,,10,,,69,127
17584,note_on,5,0,0,,10,,,69,127
17743,note_off,159,0,0,,10,,,69,127
17748,note_on,5,0,0,,8,,,68,127
17907,note_off,159,0,0,,8,,,68,127
17912,note_on,5,0,0,,10,,,57,127
17912,note_on,0,0,0,,10,,,81,127
18071,note_off,159,0,0,,10,,,81,127
18076,note_on,5,0,0,,7,,,79,127
18158,note_on,82,0,0,,6,,,78,127
18184,note_off,26,0,0,,7,,,79,127
18241,note_on,57,0,0,,4,,,76,127
18267,note_off,26,0,0,,6,,,78,127
18401,note_off,134,0,0,,10,,,57,127
18406,note_on,5,0,0,,10,,,69,127
18565,note_off,159,0,0,,10,,,69,127
18570,note_on,5,0,0,,7,,,67,127
18729,note_off,159,0,0,,7,,,67,127
18734,note_on,5,0,0,,6,,,66,127
18893,note_off,159,0,0,,6,,,66,127
18898,note_on,5,0,0,,7,,,55,127
19057,note_off,159,0,0,,4,,,76,127
19062,note_on,5,0,0,,6,,,78,127
19144,note_on,82,0,0,,7,,,79,127
19170,note_off,26,0,0,,6,,,78,127
19227,note_on,57,0,0,,6,,,78,127
19253,note_off,26,0,0,,7,,,79,127
19310,note_on,57,0,0,,4,,,76,127
19336,note_off,26,0,0,,6,,,78,127
19387,note_off,51,0,0,,7,,,55,127
19392,note_on,5,0,0,,7,,,67,127
19392,note_on,0,0,0,,6,,,78,127
19418,note_off,26,0,0,,4,,,76,127
19475,note_on,57,0,0,,4,,,76,127
19501,note_off,26,0,0,,6,,,78,127
19552,note_off,51,0,0,,7,,,67,127
19557,note_on,5,0,0,,6,,,66,127
19557,note_on,0,0,0,,6,,,78,127
19583,note_off,26,0,0,,4,,,76,127
19640,note_on,57,0,0,,4,,,76,127
19666,note_off,26,0,0,,6,,,78,127
19717,note_off,51,0,0,,6,,,66,127
19722,note_on,5,0,0,,4,,,64,127
19722,note_on,0,0,0,,6,,,78,127
19748,note_off,26,0,0,,4,,,76,127
19805,note_on,57,0,0,,4,,,76,127
19831,note_off,26,0,0,,6,,,78,127
19882,note_off,51,0,0,,4,,,64,127
19887,note_on,5,0,0,,6,,,54,127
19887,note_on,0,0,0,,2,,,74,127
19913,note_off,26,0,0,,4,,,76,127
20047,note_off,134,0,0,,2,,,74,127
20052,note_on,5,0,0,,4,,,76,127
20134,note_on,82,0,0,,6,,,78,127
20160,note_off,26,0,0,,4,,,76,127
20217,note_on,57,0,0,,4,,,76,127
20243,note_off,26,0,0,,6,,,78,127
20300,note_on,57,0,0,,2,,,74,127
20326,note_off,26,0,0,,4,,,76,127
20377,note_off,51,0,0,,6,,,54,127
20382,note_on,5,0,0,,6,,,66,127
20382,note_on,0,0,0,,4,,,76,127
20408,note_off,26,0,0,,2,,,74,127
20465,note_on,57,0,0,,2,,,74,127
20491,note_off,26,0,0,,4,,,76,127
20542,note_off,51,0,0,,6,,,66,127
20547,note_on,5,0,0,,4,,,64,127
20547,note_on,0,0,0,,4,,,76,127
20573,note_off,26,0,0,,2,,,74,127
20630,note_on,57,0,0,,2,,,74,127
20656,note_off,26,0,0,,4,,,76,127
20707,note_off,51,0,0,,4,,,64,127
20712,note_on,5,0,0,,2,,,62,127
20712,note_on,0,0,0,,4,,,76,127
20738,note_off,26,0,0,,2,,,74,127
20795,note_on,57,0,0,,2,,,74,127
20821,note_off,26,0,0,,4,,,76,127
20872,note_off,51,0,0,,2,,,62,127
20877,note_on,5,0,0,,4,,,52,127
20877,note_on,0,0,0,,1,,,73,127
20903,note_off,26,0,0,,2,,,74,127
21037,note_off,134,0,0,,1,,,73,127
21042,note_on,5,0,0,,2,,,74,127
21124,note_on,82,0,0,,4,,,76,127
21150,note_off,26,0,0,,2,,,74,127
21207,note_on,57,0,0,,10,,,69,127
21233,note_off,26,0,0,,4,,,76,127
21290,note_on,57,0,0,,7,,,67,127
21316,note_off,26,0,0,,10,,,69,127
21367,note_off,51,0,0,,4,,,52,127
21372,note_on,5,0,0,,4,,,64,127
21372,note_on,0,0,0,,10,,,69,127
21398,note_off,26,0,0,,7,,,67,127
21455,note_on,57,0,0,,7,,,67,127
21481,note_off,26,0,0,,10,,,69,127
21532,note_off,51,0,0,,4,,,64,127
21537,note_on,5,0,0,,2,,,62,127
21537,note_on,0,0,0,,10,,,69,127
21563,note_off,26,0,0,,7,,,67,127
21620,note_on,57,0,0,,7,,,67,127
21646,note_off,26,0,0,,10,,,69,127
21697,note_off,51,0,0,,2,,,62,127
21702,note_on,5,0,0,,1,,,61,127
21702,note_on,0,0,0,,10,,,69,127
21728,note_off,26,0,0,,7,,,67,127
21785,note_on,57,0,0,,7,,,67,127
21811,note_off,26,0,0,,10,,,69,127
21862,note_off,51,0,0,,1,,,61,127
21867,note_off,5,0,0,,7,,,67,127
21867,note_on,0,0,0,,2,,,50,127
22032,note_on,165,0,0,,2,,,74,127
22114,note_on,82,0,0,,12,,,71,127
22140,note_off,26,0,0,,2,,,74,127
22197,note_on,57,0,0,,10,,,69,127
22223,note_off,26,0,0,,12,,,71,127
22357,note_off,134,0,0,,2,,,50,127
22362,note_on,5,0,0,,2,,,62,127
22521,note_off,159,0,0,,2,,,62,127
22526,note_on,5,0,0,,1,,,61,127
22685,note_off,159,0,0,,1,,,61,127
22690,note_on,5,0,0,,10,,,57,127
22849,note_off,159,0,0,,10,,,57,127
22854,note_on,5,0,0,,2,,,50,127
23013,note_off,159,0,0,,10,,,69,127
23018,note_on,5,0,0,,6,,,78,127
23100,note_on,82,0,0,,2,,,74,127
23126,note_off,26,0,0,,6,,,78,127
23183,note_on,57,0,0,,10,,,69,127
23209,note_off,26,0,0,,2,,,74,127
23343,note_off,134,0,0,,2,,,50,127
23348,note_on,5,0,0,,2,,,62,127
23507,note_off,159,0,0,,2,,,62,127
23512,note_on,5,0,0,,1,,,61,127
23671,note_off,159,0,0,,1,,,61,127
23676,note_on,5,0,0,,10,,,57,127
23835,note_off,159,0,0,,10,,,57,127
23840,note_on,5,0,0,,2,,,50,127
23999,note_off,159,0,0,,10,,,69,127
24004,note_on,5,0,0,,10,,,81,127
24086,note_on,82,0,0,,6,,,78,127
24112,note_off,26,0,0,,10,,,81,127
24169,note_on,57,0,0,,10,,,69,127
24195,note_off,26,0,0,,6,,,78,127
24329,note_off,134,0,0,,2,,,50,127
24334,note_on,5,0,0,,2,,,62,127
24493,note_off,159,0,0,,2,,,62,127
24498,note_on,5,0,0,,1,,,61,127
24657,note_off,159,0,0,,1,,,61,127
24662,note_on,5,0,0,,10,,,57,127
24821,note_off,159,0,0,,10,,,57,127
24826,note_on,5,0,0,,2,,,50,127
24888,note_off,62,0,0,,10,,,69,127
24991,note_on,103,0,0,,6,,,78,127
25073,note_on,82,0,0,,4,,,76,127
25099,note_off,26,0,0,,6,,,78,127
25150,note_off,51,0,0,,2,,,50,127
25155,note_on,5,0,0,,4,,,52,127
25155,note_on,0,0,0,,2,,,74,127
25181,note_off,26,0,0,,4,,,76,127
25315,note_off,134,0,0,,2,,,74,127
25320,note_on,5,0,0,,1,,,73,127
25479,note_off,159,0,0,,1,,,73,127
25479,note_off,0,0,0,,4,,,52,127
25484,note_on,5,0,0,,6,,,54,127
25484,note_on,0,0,0,,8,,,68,127
25643,note_off,159,0,0,,8,,,68,127
25648,note_on,5,0,0,,10,,,69,127
25807,note_off,159,0,0,,10,,,69,127
25807,note_off,0,0,0,,6,,,54,127
25812,note_on,5,0,0,,7,,,55,127
25812,note_on,0,0,0,,11,,,70,127
25971,note_off,159,0,0,,11,,,70,127
25976,note_on,5,0,0,,12,,,71,127
26135,note_off,159,0,0,,12,,,71,127
26135,note_off,0,0,0,,7,,,55,127
26140,note_on,5,0,0,,10,,,57,127
26140,note_on,0,0,0,,1,,,73,127
26299,note_off,159,0,0,,1,,,73,127
26304,note_on,5,0,0,,2,,,74,127
26463,note_off,159,0,0,,2,,,74,127
26468,note_on,5,0,0,,10,,,45,127
26468,note_on,0,0,0,,6,,,78,127
26550,note_on,82,0,0,,4,,,76,127
26576,note_off,26,0,0,,6,,,78,127
26633,note_off,57,0,0,,10,,,57,127
26633,note_on,0,0,0,,6,,,78,127
26659,note_off,26,0,0,,4,,,76,127
26716,note_on,57,0,0,,4,,,76,127
26742,note_off,26,0,0,,6,,,78,127
26793,note_off,51,0,0,,10,,,45,127
26798,note_off,5,0,0,,4,,,76,127
26798,note_on,0,0,0,,2,,,38,127
26963,note_on,165,0,0,,2,,,74,127
27045,note_on,82,0,0,,12,,,71,127
27071,note_off,26,0,0,,2,,,74,127
27124,note_off,53,0,0,,12,,,71,127
27127,note_on,3,0,0,,12,,,71,127
27209,note_on,82,0,0,,10,,,69,127
27235,note_off,26,0,0,,12,,,71,127
27286,note_off,51,0,0,,2,,,38,127
27291,note_on,5,0,0,,2,,,50,127
27291,note_on,0,0,0,,12,,,71,127
27317,note_off,26,0,0,,10,,,69,127
27374,note_on,57,0,0,,10,,,69,127
27400,note_off,26,0,0,,12,,,71,127
27451,note_off,51,0,0,,2,,,50,127
27456,note_on,5,0,0,,1,,,49,127
27456,note_on,0,0,0,,12,,,71,127
27482,note_off,26,0,0,,10,,,69,127
27539,note_on,57,0,0,,10,,,69,127
27565,note_off,26,0,0,,12,,,71,127
27616,note_off,51,0,0,,1,,,49,127
27621,note_on,5,0,0,,10,,,45,127
27621,note_on,0,0,0,,12,,,71,127
27647,note_off,26,0,0,,10,,,69,127
27704,note_on,57,0,0,,10,,,69,127
27730,note_off,26,0,0,,12,,,71,127
27781,note_off,51,0,0,,10,,,45,127
27786,note_on,5,0,0,,2,,,38,127
27945,note_off,159,0,0,,10,,,69,127
27950,note_on,5,0,0,,6,,,78,127
28032,note_on,82,0,0,,2,,,74,127
28058,note_off,26,0,0,,6,,,78,127
28115,note_on,57,0,0,,12,,,71,127
28141,note_off,26,0,0,,2,,,74,127
28198,note_on,57,0,0,,10,,,69,127
28224,note_off,26,0,0,,12,,,71,127
28275,note_off,51,0,0,,2,,,38,127
28280,note_on,5,0,0,,2,,,50,127
28280,note_on,0,0,0,,12,,,71,127
28306,note_off,26,0,0,,10,,,69,127
28363,note_on,57,0,0,,10,,,69,127
28389,note_off,26,0,0,,12,,,71,127
28440,note_off,51,0,0,,2,,,50,127
28445,note_on,5,0,0,,1,,,49,127
28445,note_on,0,0,0,,12,,,71,127
28471,note_off,26,0,0,,10,,,69,127
28528,note_on,57,0,0,,10,,,69,127
28554,note_off,26,0,0,,12,,,71,127
28605,note_off,51,0,0,,1,,,49,127
28610,note_on,5,0,0,,10,,,45,127
28610,note_on,0,0,0,,12,,,71,127
28636,note_off,26,0,0,,10,,,69,127
28693,note_on,57,0,0,,10,,,69,127
28719,note_off,26,0,0,,12,,,71,127
28770,note_off,51,0,0,,10,,,45,127
28775,note_on,5,0,0,,2,,,38,127
28934,note_off,159,0,0,,10,,,69,127
28939,note_on,5,0,0,,10,,,81,127
29021,note_on,82,0,0,,6,,,78,127
29047,note_off,26,0,0,,10,,,81,127
29104,note_on,57,0,0,,12,,,71,127
29130,note_off,26,0,0,,6,,,78,127
29187,note_on,57,0,0,,10,,,69,127
29213,note_off,26,0,0,,12,,,71,127
29264,note_off,51,0,0,,2,,,38,127
29269,note_on,5,0,0,,2,,,50,127
29269,note_on,0,0,0,,12,,,71,127
29295,note_off,26,0,0,,10,,,69,127
29352,note_on,57,0,0,,10,,,69,127
29378,note_off,26,0,0,,12,,,71,127
29429,note_off,51,0,0,,2,,,50,127
29434,note_on,5,0,0,,1,,,49,127
29434,note_on,0,0,0,,12,,,71,127
29460,note_off,26,0,0,,10,,,69,127
29517,note_on,57,0,0,,10,,,69,127
29543,note_off,26,0,0,,12,,,71,127
29594,note_off,51,0,0,,1,,,49,127
29599,note_on,5,0,0,,10,,,45,127
29599,note_on,0,0,0,,12,,,71,127
29625,note_off,26,0,0,,10,,,69,127
29682,note_on,57,0,0,,10,,,69,127
29708,note_off,26,0,0,,12,,,71,127
29759,note_off,51,0,0,,10,,,45,127
29764,note_on,5,0,0,,2,,,50,127
29846,note_off,82,0,0,,10,,,69,127
29928,note_on,82,0,0,,2,,,86,127
30087,note_off,159,0,0,,2,,,86,127
30087,note_off,0,0,0,,2,,,50,127
30092,note_on,5,0,0,,4,,,52,127
30092,note_on,0,0,0,,2,,,86,127
30251,note_off,159,0,0,,2,,,86,127
30256,note_on,5,0,0,,10,,,81,127
30415,note_off,159,0,0,,10,,,81,127
30415,note_off,0,0,0,,4,,,52,127
30420,note_on,5,0,0,,6,,,54,127
30420,note_on,0,0,0,,10,,,81,127
30579,note_off,159,0,0,,10,,,81,127
30584,note_on,5,0,0,,6,,,78,127
30743,note_off,159,0,0,,6,,,78,127
30743,note_off,0,0,0,,6,,,54,127
30748,note_on,5,0,0,,7,,,55,127
30748,note_on,0,0,0,,6,,,78,127
30907,note_off,159,0,0,,6,,,78,127
30912,note_on,5,0,0,,2,,,74,127
31071,note_off,159,0,0,,7,,,55,127
31074,note_off,3,0,0,,2,,,74,127
31076,note_on,2,0,0,,10,,,57,127
31076,note_on,0,0,0,,10,,,69,127
31184,note_off,108,0,0,,10,,,69,127
31186,note_on,2,0,0,,12,,,71,127
31241,note_on,55,0,0,,1,,,73,127
31267,note_off,26,0,0,,12,,,71,127
31296,note_on,29,0,0,,2,,,74,127
31322,note_off,26,0,0,,1,,,73,127
31351,note_on,29,0,0,,4,,,76,127
31377,note_off,26,0,0,,2,,,74,127
31406,note_on,29,0,0,,10,,,45,127
31406,note_on,0,0,0,,6,,,78,127
31432,note_off,26,0,0,,4,,,76,127
31489,note_on,57,0,0,,4,,,76,127
31515,note_off,26,0,0,,6,,,78,127
31572,note_off,57,0,0,,10,,,57,127
31572,note_on,0,0,0,,2,,,74,127
31598,note_off,26,0,0,,4,,,76,127
31655,note_on,57,0,0,,4,,,76,127
31681,note_off,26,0,0,,2,,,74,127
31732,note_off,51,0,0,,10,,,45,127
31735,note_off,3,0,0,,4,,,76,127
31737,note_on,2,0,0,,2,,,38,127
31737,note_on,0,0,0,,6,,,78,127
31896,note_off,159,0,0,,6,,,78,127
31901,note_on,5,0,0,,2,,,86,127
32060,note_off,159,0,0,,2,,,86,127
32060,note_off,0,0,0,,2,,,38,127
32065,note_on,5,0,0,,4,,,40,127
32065,note_on,0,0,0,,2,,,86,127
32224,note_off,159,0,0,,2,,,86,127
32229,note_on,5,0,0,,10,,,81,127
32388,note_off,159,0,0,,10,,,81,127
32388,note_off,0,0,0,,4,,,40,127
32393,note_on,5,0,0,,6,,,42,127
32393,note_on,0,0,0,,10,,,81,127
32552,note_off,159,0,0,,10,,,81,127
32557,note_on,5,0,0,,6,,,78,127
32716,note_off,159,0,0,,6,,,78,127
32716,note_off,0,0,0,,6,,,42,127
32721,note_on,5,0,0,,7,,,43,127
32721,note_on,0,0,0,,6,,,78,127
32880,note_off,159,0,0,,6,,,78,127
32885,note_on,5,0,0,,2,,,74,127
33044,note_off,159,0,0,,7,,,43,127
33047,note_off,3,0,0,,2,,,74,127
33049,note_on,2,0,0,,10,,,45,127
33049,note_on,0,0,0,,10,,,69,127
33157,note_off,108,0,0,,10,,,69,127
33159,note_on,2,0,0,,12,,,71,127
33214,note_on,55,0,0,,1,,,73,127
33240,note_off,26,0,0,,12,,,71,127
33269,note_on,29,0,0,,2,,,74,127
33295,note_off,26,0,0,,1,,,73,127
33324,note_on,29,0,0,,4,,,76,127
33350,note_off,26,0,0,,2,,,74,127
33374,note_off,24,0,0,,10,,,45,127
33379,note_on,5,0,0,,10,,,45,127
33379,note_on,0,0,0,,6,,,78,127
33405,note_off,26,0,0,,4,,,76,127
33462,note_on,57,0,0,,4,,,76,127
33488,note_off,26,0,0,,6,,,78,127
33545,note_on,57,0,0,,2,,,74,127
33571,note_off,26,0,0,,4,,,76,127
33628,note_on,57,0,0,,4,,,76,127
33654,note_off,26,0,0,,2,,,74,127
33705,note_off,51,0,0,,10,,,45,127
33708,note_off,3,0,0,,4,,,76,127
33710,note_on,2,0,0,,2,,,38,127
33710,note_on,0,0,0,,2,,,74,127
34361,note_off,651,0,0,,2,,,74,127
34692,note_off,331,0,0,,2,,,38,127
34697,note_on,5,0,0,,2,,,50,127
34862,note_on,165,0,0,,12,,,71,127
34944,note_on,82,0,0,,10,,,69,127
34970,note_off,26,0,0,,12,,,71,127
35023,note_off,53,0,0,,10,,,69,127
35026,note_on,3,0,0,,10,,,69,127
35108,note_on,82,0,0,,8,,,68,127
35134,note_off,26,0,0,,10,,,69,127
35185,note_off,51,0,0,,2,,,50,127
35190,note_on,5,0,0,,2,,,62,127
35190,note_on,0,0,0,,10,,,69,127
35216,note_off,26,0,0,,8,,,68,127
35273,note_on,57,0,0,,8,,,68,127
35299,note_off,26,0,0,,10,,,69,127
35350,note_off,51,0,0,,2,,,62,127
35355,note_on,5,0,0,,0,,,60,127
35355,note_on,0,0,0,,10,,,69,127
35381,note_off,26,0,0,,8,,,68,127
35438,note_on,57,0,0,,8,,,68,127
35464,note_off,26,0,0,,10,,,69,127
35515,note_off,51,0,0,,0,,,60,127
35520,note_on,5,0,0,,12,,,59,127
35520,note_on,0,0,0,,10,,,69,127
35546,note_off,26,0,0,,8,,,68,127
35603,note_on,57,0,0,,8,,,68,127
35629,note_off,26,0,0,,10,,,69,127
35680,note_off,51,0,0,,12,,,59,127
35685,note_on,5,0,0,,0,,,48,127
35767,note_off,82,0,0,,8,,,68,127
35849,note_on,82,0,0,,0,,,72,127
35931,note_on,82,0,0,,12,,,71,127
35957,note_off,26,0,0,,0,,,72,127
36010,note_off,53,0,0,,12,,,71,127
36013,note_on,3,0,0,,12,,,71,127
36095,note_on,82,0,0,,10,,,69,127
36121,note_off,26,0,0,,12,,,71,127
36172,note_off,51,0,0,,0,,,48,127
36177,note_on,5,0,0,,0,,,60,127
36177,note_on,0,0,0,,12,,,71,127
36203,note_off,26,0,0,,10,,,69,127
36260,note_on,57,0,0,,10,,,69,127
36286,note_off,26,0,0,,12,,,71,127
36337,note_off,51,0,0,,0,,,60,127
36342,note_on,5,0,0,,12,,,59,127
36342,note_on,0,0,0,,12,,,71,127
36368,note_off,26,0,0,,10,,,69,127
36425,note_on,57,0,0,,10,,,69,127
36451,note_off,26,0,0,,12,,,71,127
36502,note_off,51,0,0,,12,,,59,127
36507,note_on,5,0,0,,10,,,57,127
36507,note_on,0,0,0,,12,,,71,127
36533,note_off,26,0,0,,10,,,69,127
36590,note_on,57,0,0,,10,,,69,127
36616,note_off,26,0,0,,12,,,71,127
36667,note_off,51,0,0,,10,,,57,127
36672,note_on,5,0,0,,12,,,47,127
36754,note_off,82,0,0,,10,,,69,127
36836,note_on,82,0,0,,2,,,74,127
36918,note_on,82,0,0,,0,,,72,127
36944,note_off,26,0,0,,2,,,74,127
36997,note_off,53,0,0,,0,,,72,127
37000,note_on,3,0,0,,0,,,72,127
37082,note_on,82,0,0,,12,,,71,127
37108,note_off,26,0,0,,0,,,72,127
37159,note_off,51,0,0,,12,,,47,127
37164,note_on,5,0,0,,12,,,59,127
37164,note_on,0,0,0,,0,,,72,127
37190,note_off,26,0,0,,12,,,71,127
37247,note_on,57,0,0,,12,,,71,127
37273,note_off,26,0,0,,0,,,72,127
37324,note_off,51,0,0,,12,,,59,127
37329,note_on,5,0,0,,10,,,57,127
37329,note_on,0,0,0,,0,,,72,127
37355,note_off,26,0,0,,12,,,71,127
37412,note_on,57,0,0,,12,,,71,127
37438,note_off,26,0,0,,0,,,72,127
37489,note_off,51,0,0,,10,,,57,127
37494,note_on,5,0,0,,8,,,56,127
37494,note_on,0,0,0,,0,,,72,127
37520,note_off,26,0,0,,12,,,71,127
37577,note_on,57,0,0,,12,,,71,127
37603,note_off,26,0,0,,0,,,72,127
37654,note_off,51,0,0,,8,,,56,127
37659,note_on,5,0,0,,10,,,57,127
37741,note_off,82,0,0,,12,,,71,127
37823,note_on,82,0,0,,0,,,72,127
37905,note_on,82,0,0,,12,,,83,127
37931,note_off,26,0,0,,0,,,72,127
37982,note_off,51,0,0,,10,,,57,127
37987,note_on,5,0,0,,10,,,57,127
37987,note_on,0,0,0,,10,,,81,127
38013,note_off,26,0,0,,12,,,83,127
38147,note_off,134,0,0,,10,,,81,127
38152,note_on,5,0,0,,7,,,79,127
38311,note_off,159,0,0,,7,,,79,127
38311,note_off,0,0,0,,10,,,57,127
38316,note_on,5,0,0,,10,,,57,127
38316,note_on,0,0,0,,6,,,78,127
38475,note_off,159,0,0,,6,,,78,127
38480,note_on,5,0,0,,4,,,76,127
38639,note_off,159,0,0,,4,,,76,127
38639,note_off,0,0,0,,10,,,57,127
38644,note_on,5,0,0,,12,,,59,127
38644,note_on,0,0,0,,3,,,75,127
38803,note_off,159,0,0,,3,,,75,127
38808,note_on,5,0,0,,0,,,72,127
38967,note_off,159,0,0,,0,,,72,127
38972,note_on,5,0,0,,12,,,71,127
39131,note_off,159,0,0,,12,,,71,127
39136,note_on,5,0,0,,10,,,69,127
39295,note_off,159,0,0,,10,,,69,127
39298,note_off,3,0,0,,12,,,59,127
39300,note_on,2,0,0,,7,,,67,127
39459,note_off,159,0,0,,7,,,67,127
39464,note_on,5,0,0,,6,,,66,127
39623,note_off,159,0,0,,6,,,66,127
39628,note_on,5,0,0,,4,,,64,127
39628,note_on,0,0,0,,7,,,67,127
39793,note_on,165,0,0,,12,,,71,127
39875,note_on,82,0,0,,10,,,81,127
39901,note_off,26,0,0,,12,,,71,127
39952,note_off,51,0,0,,7,,,67,127
39952,note_off,0,0,0,,4,,,64,127
39957,note_on,5,0,0,,4,,,64,127
39957,note_on,0,0,0,,7,,,67,127
39957,note_on,0,0,0,,7,,,79,127
39983,note_off,26,0,0,,10,,,81,127
40117,note_off,134,0,0,,7,,,79,127
40122,note_on,5,0,0,,5,,,77,127
40281,note_off,159,0,0,,5,,,77,127
40281,note_off,0,0,0,,7,,,67,127
40281,note_off,0,0,0,,4,,,64,127
40286,note_on,5,0,0,,4,,,64,127
40286,note_on,0,0,0,,7,,,67,127
40286,note_on,0,0,0,,4,,,76,127
40445,note_off,159,0,0,,4,,,76,127
40450,note_on,5,0,0,,2,,,74,127
40609,note_off,159,0,0,,2,,,74,127
40609,note_off,0,0,0,,7,,,67,127
40609,note_off,0,0,0,,4,,,64,127
40614,note_on,5,0,0,,7,,,67,127
40614,note_on,0,0,0,,10,,,57,127
40614,note_on,0,0,0,,1,,,73,127
40773,note_off,159,0,0,,1,,,73,127
40778,note_on,5,0,0,,11,,,70,127
40937,note_off,159,0,0,,11,,,70,127
40942,note_on,5,0,0,,10,,,69,127
41101,note_off,159,0,0,,10,,,69,127
41103,note_off,2,0,0,,7,,,67,127
41106,note_on,3,0,0,,7,,,67,127
41265,note_off,159,0,0,,7,,,67,127
41270,note_on,5,0,0,,5,,,65,127
41429,note_off,159,0,0,,5,,,65,127
41434,note_on,5,0,0,,4,,,64,127
41593,note_off,159,0,0,,4,,,64,127
41593,note_off,0,0,0,,10,,,57,127
41598,note_on,5,0,0,,2,,,62,127
41598,note_on,0,0,0,,5,,,65,127
41763,note_on,165,0,0,,2,,,74,127
41845,note_on,82,0,0,,4,,,76,127
41871,note_off,26,0,0,,2,,,74,127
41922,note_off,51,0,0,,5,,,65,127
41922,note_off,0,0,0,,2,,,62,127
41927,note_on,5,0,0,,5,,,65,127
41927,note_on,0,0,0,,2,,,62,127
41927,note_on,0,0,0,,5,,,77,127
41953,note_off,26,0,0,,4,,,76,127
42087,note_off,134,0,0,,5,,,77,127
42092,note_on,5,0,0,,8,,,80,127
42251,note_off,159,0,0,,8,,,80,127
42251,note_off,0,0,0,,2,,,62,127
42251,note_off,0,0,0,,5,,,65,127
42256,note_on,5,0,0,,2,,,62,127
42256,note_on,0,0,0,,5,,,65,127
42256,note_on,0,0,0,,8,,,80,127
42415,note_off,159,0,0,,8,,,80,127
42420,note_on,5,0,0,,10,,,81,127
42579,note_off,159,0,0,,5,,,65,127
42579,note_off,0,0,0,,2,,,62,127
42584,note_on,5,0,0,,4,,,64,127
42584,note_on,0,0,0,,0,,,60,127
42694,note_off,110,0,0,,10,,,81,127
42749,note_on,55,0,0,,0,,,72,127
42831,note_on,82,0,0,,2,,,74,127
42857,note_off,26,0,0,,0,,,72,127
42908,note_off,51,0,0,,0,,,60,127
42908,note_off,0,0,0,,4,,,64,127
42913,note_on,5,0,0,,4,,,64,127
42913,note_on,0,0,0,,0,,,60,127
42913,note_on,0,0,0,,4,,,76,127
42939,note_off,26,0,0,,2,,,74,127
43073,note_off,134,0,0,,4,,,76,127
43078,note_on,5,0,0,,8,,,80,127
43237,note_off,159,0,0,,8,,,80,127
43237,note_off,0,0,0,,0,,,60,127
43237,note_off,0,0,0,,4,,,64,127
43242,note_on,5,0,0,,0,,,60,127
43242,note_on,0,0,0,,4,,,64,127
43242,note_on,0,0,0,,8,,,80,127
43401,note_off,159,0,0,,8,,,80,127
43406,note_on,5,0,0,,10,,,81,127
43565,note_off,159,0,0,,4,,,64,127
43565,note_off,0,0,0,,0,,,60,127
43570,note_on,5,0,0,,12,,,59,127
43570,note_on,0,0,0,,2,,,62,127
43680,note_off,110,0,0,,10,,,81,127
43735,note_on,55,0,0,,12,,,71,127
43817,note_on,82,0,0,,0,,,72,127
43843,note_off,26,0,0,,12,,,71,127
43894,note_off,51,0,0,,2,,,62,127
43894,note_off,0,0,0,,12,,,59,127
43899,note_on,5,0,0,,12,,,59,127
43899,note_on,0,0,0,,2,,,62,127
43899,note_on,0,0,0,,2,,,74,127
43925,note_off,26,0,0,,0,,,72,127
44059,note_off,134,0,0,,2,,,74,127
44064,note_on,5,0,0,,8,,,80,127
44223,note_off,159,0,0,,8,,,80,127
44223,note_off,0,0,0,,2,,,62,127
44223,note_off,0,0,0,,12,,,59,127
44228,note_on,5,0,0,,2,,,62,127
44228,note_on,0,0,0,,12,,,59,127
44228,note_on,0,0,0,,8,,,80,127
44387,note_off,159,0,0,,8,,,80,127
44392,note_on,5,0,0,,10,,,81,127
44551,note_off,159,0,0,,12,,,59,127
44551,note_off,0,0,0,,2,,,62,127
44556,note_on,5,0,0,,4,,,64,127
44556,note_on,0,0,0,,0,,,60,127
44666,note_off,110,0,0,,10,,,81,127
44721,note_on,55,0,0,,0,,,72,127
44803,note_on,82,0,0,,2,,,74,127
44829,note_off,26,0,0,,0,,,72,127
44880,note_off,51,0,0,,0,,,60,127
44880,note_off,0,0,0,,4,,,64,127
44885,note_on,5,0,0,,0,,,60,127
44885,note_on,0,0,0,,4,,,64,127
44885,note_on,0,0,0,,4,,,76,127
44911,note_off,26,0,0,,2,,,74,127
45045,note_off,134,0,0,,4,,,76,127
45050,note_on,5,0,0,,8,,,80,127
45209,note_off,159,0,0,,8,,,80,127
45209,note_off,0,0,0,,4,,,64,127
45209,note_off,0,0,0,,0,,,60,127
45214,note_on,5,0,0,,0,,,60,127
45214,note_on,0,0,0,,4,,,64,127
45214,note_on,0,0,0,,8,,,80,127
45373,note_off,159,0,0,,8,,,80,127
45378,note_on,5,0,0,,10,,,81,127
45537,note_off,159,0,0,,4,,,64,127
45537,note_off,0,0,0,,0,,,60,127
45542,note_on,5,0,0,,2,,,62,127
45542,note_on,0,0,0,,12,,,59,127
45652,note_off,110,0,0,,10,,,81,127
45707,note_on,55,0,0,,12,,,71,127
45789,note_on,82,0,0,,0,,,72,127
45815,note_off,26,0,0,,12,,,71,127
45866,note_off,51,0,0,,12,,,59,127
45866,note_off,0,0,0,,2,,,62,127
45871,note_on,5,0,0,,2,,,62,127
45871,note_on,0,0,0,,12,,,59,127
45871,note_on,0,0,0,,2,,,74,127
45897,note_off,26,0,0,,0,,,72,127
46031,note_off,134,0,0,,2,,,74,127
46036,note_on,5,0,0,,6,,,78,127
46195,note_off,159,0,0,,6,,,78,127
46195,note_off,0,0,0,,12,,,59,127
46195,note_off,0,0,0,,2,,,62,127
46200,note_on,5,0,0,,12,,,59,127
46200,note_on,0,0,0,,2,,,62,127
46200,note_on,0,0,0,,6,,,78,127
46359,note_off,159,0,0,,6,,,78,127
46364,note_on,5,0,0,,7,,,79,127
46523,note_off,159,0,0,,2,,,62,127
46523,note_off,0,0,0,,12,,,59,127
46528,note_on,5,0,0,,10,,,57,127
46528,note_on,0,0,0,,0,,,60,127
46638,note_off,110,0,0,,7,,,79,127
46693,note_on,55,0,0,,10,,,69,127
46775,note_on,82,0,0,,12,,,71,127
46801,note_off,26,0,0,,10,,,69,127
46852,note_off,51,0,0,,0,,,60,127
46852,note_off,0,0,0,,10,,,57,127
46857,note_on,5,0,0,,0,,,60,127
46857,note_on,0,0,0,,10,,,57,127
46857,note_on,0,0,0,,0,,,72,127
46883,note_off,26,0,0,,12,,,71,127
47017,note_off,134,0,0,,0,,,72,127
47022,note_on,5,0,0,,6,,,78,127
47181,note_off,159,0,0,,6,,,78,127
47181,note_off,0,0,0,,10,,,57,127
47181,note_off,0,0,0,,0,,,60,127
47186,note_on,5,0,0,,0,,,60,127
47186,note_on,0,0,0,,10,,,57,127
47186,note_on,0,0,0,,6,,,78,127
47345,note_off,159,0,0,,6,,,78,127
47350,note_on,5,0,0,,7,,,79,127
47509,note_off,159,0,0,,10,,,57,127
47509,note_off,0,0,0,,0,,,60,127
47514,note_on,5,0,0,,2,,,62,127
47514,note_on,0,0,0,,12,,,59,127
47624,note_off,110,0,0,,7,,,79,127
47679,note_on,55,0,0,,2,,,74,127
47761,note_on,82,0,0,,0,,,84,127
47787,note_off,26,0,0,,2,,,74,127
47838,note_off,51,0,0,,12,,,59,127
47838,note_off,0,0,0,,2,,,62,127
47843,note_on,5,0,0,,2,,,62,127
47843,note_on,0,0,0,,12,,,59,127
47843,note_on,0,0,0,,12,,,83,127
47869,note_off,26,0,0,,0,,,84,127
48003,note_off,134,0,0,,12,,,83,127
48008,note_on,5,0,0,,10,,,81,127
48167,note_off,159,0,0,,10,,,81,127
48167,note_off,0,0,0,,12,,,59,127
48167,note_off,0,0,0,,2,,,62,127
48172,note_on,5,0,0,,12,,,59,127
48172,note_on,0,0,0,,2,,,62,127
48172,note_on,0,0,0,,7,,,79,127
48331,note_off,159,0,0,,7,,,79,127
48336,note_on,5,0,0,,6,,,78,127
48495,note_off,159,0,0,,6,,,78,127
48495,note_off,0,0,0,,2,,,62,127
48495,note_off,0,0,0,,12,,,59,127
48500,note_on,5,0,0,,0,,,60,127
48500,note_on,0,0,0,,4,,,64,127
48500,note_on,0,0,0,,4,,,76,127
48659,note_off,159,0,0,,4,,,76,127
48664,note_on,5,0,0,,2,,,74,127
48823,note_off,159,0,0,,2,,,74,127
48823,note_off,0,0,0,,4,,,64,127
48823,note_off,0,0,0,,0,,,60,127
48828,note_on,5,0,0,,0,,,60,127
48828,note_on,0,0,0,,4,,,64,127
48828,note_on,0,0,0,,0,,,72,127
48987,note_off,159,0,0,,0,,,72,127
48992,note_on,5,0,0,,12,,,71,127
49151,note_off,159,0,0,,12,,,71,127
49151,note_off,0,0,0,,4,,,64,127
49151,note_off,0,0,0,,0,,,60,127
49156,note_on,5,0,0,,4,,,64,127
49156,note_on,0,0,0,,0,,,60,127
49156,note_on,0,0,0,,10,,,69,127
49315,note_off,159,0,0,,10,,,69,127
49320,note_on,5,0,0,,7,,,67,127
49479,note_off,159,0,0,,7,,,67,127
49479,note_off,0,0,0,,0,,,60,127
49479,note_off,0,0,0,,4,,,64,127
49484,note_on,5,0,0,,2,,,50,127
49484,note_on,0,0,0,,2,,,74,127
49643,note_off,159,0,0,,2,,,74,127
49648,note_on,5,0,0,,0,,,72,127
49730,note_on,82,0,0,,12,,,71,127
49756,note_off,26,0,0,,0,,,72,127
49813,note_on,57,0,0,,10,,,69,127
49839,note_off,26,0,0,,12,,,71,127
49973,note_off,134,0,0,,2,,,50,127
49978,note_on,5,0,0,,2,,,62,127
50137,note_off,159,0,0,,2,,,62,127
50142,note_on,5,0,0,,0,,,60,127
50301,note_off,159,0,0,,0,,,60,127
50306,note_on,5,0,0,,12,,,59,127
50465,note_off,159,0,0,,12,,,59,127
50470,note_on,5,0,0,,0,,,48,127
50629,note_off,159,0,0,,10,,,69,127
50634,note_on,5,0,0,,12,,,71,127
50716,note_on,82,0,0,,0,,,72,127
50742,note_off,26,0,0,,12,,,71,127
50799,note_on,57,0,0,,12,,,71,127
50825,note_off,26,0,0,,0,,,72,127
50882,note_on,57,0,0,,10,,,69,127
50908,note_off,26,0,0,,12,,,71,127
50959,note_off,51,0,0,,0,,,48,127
50964,note_on,5,0,0,,0,,,60,127
50964,note_on,0,0,0,,12,,,71,127
50990,note_off,26,0,0,,10,,,69,127
51047,note_on,57,0,0,,10,,,69,127
51073,note_off,26,0,0,,12,,,71,127
51124,note_off,51,0,0,,0,,,60,127
51129,note_on,5,0,0,,12,,,59,127
51129,note_on,0,0,0,,12,,,71,127
51155,note_off,26,0,0,,10,,,69,127
51212,note_on,57,0,0,,10,,,69,127
51238,note_off,26,0,0,,12,,,71,127
51289,note_off,51,0,0,,12,,,59,127
51294,note_on,5,0,0,,10,,,57,127
51294,note_on,0,0,0,,12,,,71,127
51320,note_off,26,0,0,,10,,,69,127
51377,note_on,57,0,0,,10,,,69,127
51403,note_off,26,0,0,,12,,,71,127
51454,note_off,51,0,0,,10,,,57,127
51459,note_on,5,0,0,,12,,,47,127
51459,note_on,0,0,0,,7,,,79,127
51485,note_off,26,0,0,,10,,,69,127
51619,note_off,134,0,0,,7,,,79,127
51624,note_on,5,0,0,,6,,,78,127
51706,note_on,82,0,0,,4,,,76,127
51732,note_off,26,0,0,,6,,,78,127
51789,note_on,57,0,0,,2,,,74,127
51815,note_off,26,0,0,,4,,,76,127
51949,note_off,134,0,0,,12,,,47,127
51954,note_on,5,0,0,,12,,,59,127
52113,note_off,159,0,0,,12,,,59,127
52118,note_on,5,0,0,,10,,,57,127
52277,note_off,159,0,0,,10,,,57,127
52282,note_on,5,0,0,,7,,,55,127
52441,note_off,159,0,0,,7,,,55,127
52441,note_off,0,0,0,,2,,,74,127
52446,note_on,5,0,0,,10,,,45,127
52446,note_on,0,0,0,,2,,,74,127
52446,note_on,0,0,0,,0,,,72,127
52605,note_off,159,0,0,,0,,,72,127
52605,note_off,0,0,0,,2,,,74,127
52610,note_on,5,0,0,,12,,,71,127
52692,note_on,82,0,0,,10,,,69,127
52718,note_off,26,0,0,,12,,,71,127
52771,note_off,53,0,0,,10,,,69,127
52774,note_on,3,0,0,,10,,,69,127
52933,note_off,159,0,0,,10,,,45,127
52938,note_on,5,0,0,,10,,,57,127
53097,note_off,159,0,0,,10,,,57,127
53102,note_on,5,0,0,,7,,,55,127
53261,note_off,159,0,0,,7,,,55,127
53266,note_on,5,0,0,,6,,,54,127
53425,note_off,159,0,0,,6,,,54,127
53425,note_off,0,0,0,,10,,,69,127
53430,note_on,5,0,0,,7,,,55,127
53430,note_on,0,0,0,,7,,,79,127
53430,note_on,0,0,0,,10,,,81,127
53589,note_off,159,0,0,,10,,,81,127
53589,note_off,0,0,0,,7,,,79,127
53594,note_on,5,0,0,,6,,,78,127
53676,note_on,82,0,0,,4,,,76,127
53702,note_off,26,0,0,,6,,,78,127
53759,note_on,57,0,0,,2,,,74,127
53785,note_off,26,0,0,,4,,,76,127
53919,note_off,134,0,0,,7,,,55,127
53924,note_on,5,0,0,,7,,,67,127
54083,note_off,159,0,0,,7,,,67,127
54088,note_on,5,0,0,,6,,,66,127
54247,note_off,159,0,0,,6,,,66,127
54252,note_on,5,0,0,,2,,,62,127
54411,note_off,159,0,0,,2,,,62,127
54416,note_on,5,0,0,,7,,,55,127
54575,note_off,159,0,0,,2,,,74,127
54580,note_on,5,0,0,,12,,,83,127
54662,note_on,82,0,0,,7,,,79,127
54688,note_off,26,0,0,,12,,,83,127
54745,note_on,57,0,0,,2,,,74,127
54771,note_off,26,0,0,,7,,,79,127
54905,note_off,134,0,0,,7,,,55,127
54910,note_on,5,0,0,,7,,,67,127
55069,note_off,159,0,0,,7,,,67,127
55074,note_on,5,0,0,,6,,,66,127
55233,note_off,159,0,0,,6,,,66,127
55238,note_on,5,0,0,,2,,,62,127
55397,note_off,159,0,0,,2,,,62,127
55402,note_on,5,0,0,,7,,,55,127
55561,note_off,159,0,0,,2,,,74,127
55566,note_on,5,0,0,,2,,,86,127
55648,note_on,82,0,0,,12,,,83,127
55674,note_off,26,0,0,,2,,,86,127
55731,note_on,57,0,0,,2,,,74,127
55757,note_off,26,0,0,,12,,,83,127
55891,note_off,134,0,0,,7,,,55,127
55896,note_on,5,0,0,,7,,,67,127
56055,note_off,159,0,0,,7,,,67,127
56060,note_on,5,0,0,,6,,,66,127
56219,note_off,159,0,0,,6,,,66,127
56224,note_on,5,0,0,,2,,,62,127
56383,note_off,159,0,0,,2,,,62,127
56388,note_off,5,0,0,,2,,,74,127
56388,note_on,0,0,0,,7,,,55,127
56553,note_on,165,0,0,,12,,,83,127
56635,note_on,82,0,0,,10,,,81,127
56661,note_off,26,0,0,,12,,,83,127
56712,note_off,51,0,0,,7,,,55,127
56717,note_on,5,0,0,,10,,,57,127
56717,note_on,0,0,0,,7,,,79,127
56743,note_off,26,0,0,,10,,,81,127
56877,note_off,134,0,0,,7,,,79,127
56882,note_on,5,0,0,,6,,,78,127
57041,note_off,159,0,0,,6,,,78,127
57041,note_off,0,0,0,,10,,,57,127
57046,note_on,5,0,0,,12,,,59,127
57046,note_on,0,0,0,,1,,,73,127
57205,note_off,159,0,0,,1,,,73,127
57210,note_on,5,0,0,,2,,,74,127
57369,note_off,159,0,0,,12,,,59,127
57374,note_on,5,0,0,,0,,,60,127
57484,note_off,110,0,0,,2,,,74,127
57539,note_on,55,0,0,,2,,,74,127
57621,note_on,82,0,0,,4,,,76,127
57647,note_off,26,0,0,,2,,,74,127
57698,note_off,51,0,0,,0,,,60,127
57703,note_on,5,0,0,,2,,,62,127
57703,note_on,0,0,0,,6,,,78,127
57729,note_off,26,0,0,,4,,,76,127
57863,note_off,134,0,0,,6,,,78,127
57868,note_on,5,0,0,,7,,,79,127
58027,note_off,159,0,0,,7,,,79,127
58032,note_on,5,0,0,,2,,,50,127
58032,note_on,0,0,0,,12,,,83,127
58114,note_on,82,0,0,,10,,,81,127
58140,note_off,26,0,0,,12,,,83,127
58197,note_off,57,0,0,,2,,,62,127
58197,note_on,0,0,0,,7,,,79,127
58223,note_off,26,0,0,,10,,,81,127
58280,note_on,57,0,0,,10,,,81,127
58306,note_off,26,0,0,,7,,,79,127
58357,note_off,51,0,0,,2,,,50,127
58362,note_on,5,0,0,,7,,,43,127
58444,note_off,82,0,0,,10,,,81,127
58526,note_on,82,0,0,,7,,,79,127
58608,note_on,82,0,0,,4,,,76,127
58634,note_off,26,0,0,,7,,,79,127
58687,note_off,53,0,0,,4,,,76,127
58690,note_on,3,0,0,,4,,,76,127
58772,note_on,82,0,0,,2,,,74,127
58798,note_off,26,0,0,,4,,,76,127
58849,note_off,51,0,0,,7,,,43,127
58854,note_on,5,0,0,,7,,,55,127
58854,note_on,0,0,0,,4,,,76,127
58880,note_off,26,0,0,,2,,,74,127
58937,note_on,57,0,0,,2,,,74,127
58963,note_off,26,0,0,,4,,,76,127
59014,note_off,51,0,0,,7,,,55,127
59019,note_on,5,0,0,,6,,,54,127
59019,note_on,0,0,0,,4,,,76,127
59045,note_off,26,0,0,,2,,,74,127
59102,note_on,57,0,0,,2,,,74,127
59128,note_off,26,0,0,,4,,,76,127
59179,note_off,51,0,0,,6,,,54,127
59184,note_on,5,0,0,,2,,,50,127
59184,note_on,0,0,0,,4,,,76,127
59210,note_off,26,0,0,,2,,,74,127
59267,note_on,57,0,0,,2,,,74,127
59293,note_off,26,0,0,,4,,,76,127
59344,note_off,51,0,0,,2,,,50,127
59349,note_on,5,0,0,,7,,,43,127
59508,note_off,159,0,0,,2,,,74,127
59513,note_on,5,0,0,,12,,,83,127
59595,note_on,82,0,0,,7,,,79,127
59621,note_off,26,0,0,,12,,,83,127
59678,note_on,57,0,0,,4,,,76,127
59704,note_off,26,0,0,,7,,,79,127
59761,note_on,57,0,0,,2,,,74,127
59787,note_off,26,0,0,,4,,,76,127
59838,note_off,51,0,0,,7,,,43,127
59843,note_on,5,0,0,,7,,,55,127
59843,note_on,0,0,0,,4,,,76,127
59869,note_off,26,0,0,,2,,,74,127
59926,note_on,57,0,0,,2,,,74,127
59952,note_off,26,0,0,,4,,,76,127
60003,note_off,51,0,0,,7,,,55,127
60008,note_on,5,0,0,,6,,,54,127
60008,note_on,0,0,0,,4,,,76,127
60034,note_off,26,0,0,,2,,,74,127
60091,note_on,57,0,0,,2,,,74,127
60117,note_off,26,0,0,,4,,,76,127
60168,note_off,51,0,0,,6,,,54,127
60173,note_on,5,0,0,,2,,,50,127
60173,note_on,0,0,0,,4,,,76,127
60199,note_off,26,0,0,,2,,,74,127
60256,note_on,57,0,0,,2,,,74,127
60282,note_off,26,0,0,,4,,,76,127
60333,note_off,51,0,0,,2,,,50,127
60338,note_on,5,0,0,,7,,,43,127
60497,note_off,159,0,0,,2,,,74,127
60502,note_on,5,0,0,,2,,,86,127
60584,note_on,82,0,0,,12,,,83,127
60610,note_off,26,0,0,,2,,,86,127
60667,note_on,57,0,0,,4,,,76,127
60693,note_off,26,0,0,,12,,,83,127
60750,note_on,57,0,0,,2,,,74,127
60776,note_off,26,0,0,,4,,,76,127
60827,note_off,51,0,0,,7,,,43,127
60832,note_on,5,0,0,,7,,,55,127
60832,note_on,0,0,0,,4,,,76,127
60858,note_off,26,0,0,,2,,,74,127
60915,note_on,57,0,0,,2,,,74,127
60941,note_off,26,0,0,,4,,,76,127
60992,note_off,51,0,0,,7,,,55,127
60997,note_on,5,0,0,,6,,,54,127
60997,note_on,0,0,0,,4,,,76,127
61023,note_off,26,0,0,,2,,,74,127
61080,note_on,57,0,0,,2,,,74,127
61106,note_off,26,0,0,,4,,,76,127
61157,note_off,51,0,0,,6,,,54,127
61162,note_on,5,0,0,,2,,,50,127
61162,note_on,0,0,0,,4,,,76,127
61188,note_off,26,0,0,,2,,,74,127
61245,note_on,57,0,0,,2,,,74,127
61271,note_off,26,0,0,,4,,,76,127
61322,note_off,51,0,0,,2,,,50,127
61327,note_on,5,0,0,,7,,,55,127
61409,note_off,82,0,0,,2,,,74,127
61491,note_on,82,0,0,,2,,,86,127
61650,note_off,159,0,0,,2,,,86,127
61650,note_off,0,0,0,,7,,,55,127
61655,note_on,5,0,0,,10,,,57,127
61655,note_on,0,0,0,,2,,,86,127
61814,note_off,159,0,0,,2,,,86,127
61819,note_on,5,0,0,,12,,,83,127
61978,note_off,159,0,0,,12,,,83,127
61978,note_off,0,0,0,,10,,,57,127
61983,note_on,5,0,0,,12,,,59,127
61983,note_on,0,0,0,,12,,,83,127
62142,note_off,159,0,0,,12,,,83,127
62147,note_on,5,0,0,,7,,,79,127
62306,note_off,159,0,0,,7,,,79,127
62306,note_off,0,0,0,,12,,,59,127
62311,note_on,5,0,0,,0,,,60,127
62311,note_on,0,0,0,,7,,,79,127
62470,note_off,159,0,0,,7,,,79,127
62475,note_on,5,0,0,,4,,,76,127
62634,note_off,159,0,0,,0,,,60,127
62637,note_off,3,0,0,,4,,,76,127
62639,note_on,2,0,0,,2,,,62,127
62639,note_on,0,0,0,,2,,,74,127
62747,note_off,108,0,0,,2,,,74,127
62749,note_on,2,0,0,,4,,,76,127
62804,note_on,55,0,0,,6,,,78,127
62830,note_off,26,0,0,,4,,,76,127
62859,note_on,29,0,0,,7,,,79,127
62885,note_off,26,0,0,,6,,,78,127
62914,note_on,29,0,0,,10,,,81,127
62940,note_off,26,0,0,,7,,,79,127
62969,note_on,29,0,0,,2,,,50,127
62969,note_on,0,0,0,,12,,,83,127
62995,note_off,26,0,0,,10,,,81,127
63052,note_on,57,0,0,,10,,,81,127
63078,note_off,26,0,0,,12,,,83,127
63135,note_on,57,0,0,,7,,,79,127
63161,note_off,26,0,0,,10,,,81,127
63218,note_on,57,0,0,,10,,,81,127
63244,note_off,26,0,0,,7,,,79,127
63294,note_off,50,0,0,,2,,,62,127
63296,note_off,2,0,0,,2,,,50,127
63299,note_off,3,0,0,,10,,,81,127
63301,note_on,2,0,0,,7,,,43,127
63301,note_on,0,0,0,,7,,,55,127
63301,note_on,0,0,0,,12,,,83,127
63460,note_off,159,0,0,,12,,,83,127
63465,note_on,5,0,0,,7,,,79,127
63624,note_off,159,0,0,,7,,,79,127
63624,note_off,0,0,0,,7,,,55,127
63624,note_off,0,0,0,,7,,,43,127
63629,note_on,5,0,0,,10,,,45,127
63629,note_on,0,0,0,,10,,,57,127
63629,note_on,0,0,0,,7,,,79,127
63788,note_off,159,0,0,,7,,,79,127
63793,note_on,5,0,0,,2,,,74,127
63952,note_off,159,0,0,,2,,,74,127
63952,note_off,0,0,0,,10,,,57,127
63952,note_off,0,0,0,,10,,,45,127
63957,note_on,5,0,0,,12,,,59,127
63957,note_on,0,0,0,,12,,,47,127
63957,note_on,0,0,0,,2,,,74,127
64116,note_off,159,0,0,,2,,,74,127
64121,note_on,5,0,0,,12,,,71,127
64280,note_off,159,0,0,,12,,,71,127
64280,note_off,0,0,0,,12,,,47,127
64280,note_off,0,0,0,,12,,,59,127
64285,note_on,5,0,0,,0,,,48,127
64285,note_on,0,0,0,,0,,,60,127
64285,note_on,0,0,0,,12,,,71,127
64444,note_off,159,0,0,,12,,,71,127
64449,note_on,5,0,0,,7,,,67,127
64608,note_off,159,0,0,,7,,,67,127
64608,note_off,0,0,0,,0,,,60,127
64608,note_off,0,0,0,,0,,,48,127
64613,note_on,5,0,0,,2,,,62,127
64613,note_on,0,0,0,,2,,,50,127
64613,note_on,0,0,0,,7,,,67,127
64772,note_off,159,0,0,,7,,,67,127
64777,note_on,5,0,0,,10,,,69,127
64936,note_off,159,0,0,,10,,,69,127
64936,note_off,0,0,0,,2,,,50,127
64936,note_off,0,0,0,,2,,,62,127
64941,note_on,5,0,0,,2,,,38,127
64941,note_on,0,0,0,,2,,,50,127
64941,note_on,0,0,0,,12,,,71,127
65023,note_on,82,0,0,,10,,,69,127
65049,note_off,26,0,0,,12,,,71,127
65106,note_on,57,0,0,,7,,,67,127
65132,note_off,26,0,0,,10,,,69,127
65189,note_on,57,0,0,,6,,,66,127
65215,note_off,26,0,0,,7,,,67,127
65266,note_off,51,0,0,,2,,,50,127
65266,note_off,0,0,0,,2,,,38,127
65269,note_off,3,0,0,,6,,,66,127
65271,note_on,2,0,0,,7,,,55,127
65271,note_on,0,0,0,,7,,,43,127
65271,note_on,0,0,0,,7,,,67,127
67246,note_off,1975,0,0,,7,,,67,127
67246,note_off,0,0,0,,7,,,43,127
67246,note_off,0,0,0,,7,,,55,127
72192,end_of_track,4946,1,0,,,,,,
