tick,type,time,meta,track,program,channel,pitch,tempo,note,velocity
0,copyright,0,1,0,,,,,,
0,program_change,0,0,0,6,0,,,,
0,pitchwheel,0,0,0,,0,0,,,
0,program_change,0,0,0,6,1,,,,
0,pitchwheel,0,0,0,,1,-590,,,
0,program_change,0,0,0,6,2,,,,
0,pitchwheel,0,0,0,,2,-272,,,
0,program_change,0,0,0,6,3,,,,
0,pitchwheel,0,0,0,,3,-353,,,
0,program_change,0,0,0,6,4,,,,
0,pitchwheel,0,0,0,,4,-560,,,
0,program_change,0,0,0,6,5,,,,
0,pitchwheel,0,0,0,,5,-80,,,
0,program_change,0,0,0,6,6,,,,
0,pitchwheel,0,0,0,,6,-625,,,
0,program_change,0,0,0,6,7,,,,
0,pitchwheel,0,0,0,,7,-130,,,
0,program_change,0,0,0,6,8,,,,
0,pitchwheel,0,0,0,,8,-512,,,
0,program_change,0,0,0,6,10,,,,
0,pitchwheel,0,0,0,,10,-464,,,
0,program_change,0,0,0,6,11,,,,
0,pitchwheel,0,0,0,,11,-208,,,
0,program_change,0,0,0,6,12,,,,
0,pitchwheel,0,0,0,,12,-553,,,
0,set_tempo,0,1,0,,,,500000,,
72,note_on,72,0,0,,11,,,58,127
72,note_on,0,0,0,,2,,,62,127
216,note_on,144,0,0,,5,,,65,127
359,note_off,143,0,0,,5,,,65,127
360,note_on,1,0,0,,11,,,70,127
503,note_off,143,0,0,,2,,,62,127
503,note_off,0,0,0,,11,,,58,127
504,note_on,1,0,0,,5,,,53,127
504,note_on,0,0,0,,0,,,60,127
647,note_off,143,0,0,,11,,,70,127
648,note_on,1,0,0,,0,,,72,127
791,note_off,143,0,0,,0,,,72,127
792,note_on,1,0,0,,10,,,69,127
935,note_off,143,0,0,,10,,,69,127
935,note_off,0,0,0,,0,,,60,127
935,note_off,0,0,0,,5,,,53,127
936,note_on,1,0,0,,11,,,58,127
936,note_on,0,0,0,,2,,,62,127
936,note_on,0,0,0,,11,,,70,127
1071,note_off,135,0,0,,11,,,70,127
1080,note_on,9,0,0,,5,,,65,127
1223,note_off,143,0,0,,5,,,65,127
1224,note_on,1,0,0,,2,,,74,127
1367,note_off,143,0,0,,2,,,62,127
1367,note_off,0,0,0,,11,,,58,127
1368,note_on,1,0,0,,5,,,53,127
1368,note_on,0,0,0,,0,,,60,127
1511,note_off,143,0,0,,2,,,74,127
1512,note_on,1,0,0,,3,,,75,127
1655,note_off,143,0,0,,3,,,75,127
1656,note_on,1,0,0,,0,,,72,127
1799,note_off,143,0,0,,0,,,72,127
1799,note_off,0,0,0,,0,,,60,127
1799,note_off,0,0,0,,5,,,53,127
1800,note_on,1,0,0,,11,,,58,127
1800,note_on,0,0,0,,2,,,62,127
1800,note_on,0,0,0,,2,,,74,127
1935,note_off,135,0,0,,2,,,74,127
1944,note_on,9,0,0,,11,,,70,127
2087,note_off,143,0,0,,11,,,70,127
2088,note_on,1,0,0,,11,,,82,127
2231,note_off,143,0,0,,2,,,62,127
2231,note_off,0,0,0,,11,,,58,127
2232,note_on,1,0,0,,5,,,53,127
2232,note_on,0,0,0,,0,,,60,127
2375,note_off,143,0,0,,11,,,82,127
2376,note_on,1,0,0,,0,,,84,127
2519,note_off,143,0,0,,0,,,84,127
2520,note_on,1,0,0,,10,,,81,127
2663,note_off,143,0,0,,10,,,81,127
2663,note_off,0,0,0,,0,,,60,127
2663,note_off,0,0,0,,5,,,53,127
2664,note_on,1,0,0,,11,,,58,127
2664,note_on,0,0,0,,2,,,62,127
2664,note_on,0,0,0,,11,,,82,127
2807,note_off,143,0,0,,11,,,82,127
2808,note_on,1,0,0,,5,,,77,127
2951,note_off,143,0,0,,5,,,77,127
2952,note_on,1,0,0,,2,,,74,127
3095,note_off,143,0,0,,2,,,74,127
3095,note_off,0,0,0,,2,,,62,127
3095,note_off,0,0,0,,11,,,58,127
3096,note_on,1,0,0,,2,,,50,127
3096,note_on,0,0,0,,11,,,58,127
3096,note_on,0,0,0,,11,,,70,127
3240,note_on,144,0,0,,5,,,65,127
3261,note_off,21,0,0,,11,,,70,127
3383,note_off,122,0,0,,5,,,65,127
3384,note_on,1,0,0,,6,,,66,127
3527,note_off,143,0,0,,6,,,66,127
3527,note_off,0,0,0,,11,,,58,127
3527,note_off,0,0,0,,2,,,50,127
3528,note_on,1,0,0,,11,,,58,127
3528,note_on,0,0,0,,3,,,51,127
3528,note_on,0,0,0,,7,,,67,127
3672,note_on,144,0,0,,3,,,75,127
3693,note_off,21,0,0,,7,,,67,127
3815,note_off,122,0,0,,3,,,75,127
3816,note_on,1,0,0,,2,,,74,127
3959,note_off,143,0,0,,2,,,74,127
3959,note_off,0,0,0,,3,,,51,127
3959,note_off,0,0,0,,11,,,58,127
3960,note_on,1,0,0,,5,,,53,127
3960,note_on,0,0,0,,0,,,72,127
4103,note_off,143,0,0,,0,,,72,127
4104,note_on,1,0,0,,11,,,70,127
4247,note_off,143,0,0,,11,,,70,127
4248,note_on,1,0,0,,10,,,69,127
4368,note_off,120,0,0,,10,,,69,127
4391,note_off,23,0,0,,5,,,53,127
4392,note_on,1,0,0,,11,,,58,127
4392,note_on,0,0,0,,11,,,82,127
4535,note_off,143,0,0,,11,,,82,127
4536,note_on,1,0,0,,5,,,77,127
4679,note_off,143,0,0,,5,,,77,127
4680,note_on,1,0,0,,2,,,74,127
4823,note_off,143,0,0,,2,,,74,127
4823,note_off,0,0,0,,11,,,58,127
4824,note_on,1,0,0,,11,,,58,127
4824,note_on,0,0,0,,2,,,50,127
4824,note_on,0,0,0,,11,,,70,127
4967,note_off,143,0,0,,11,,,70,127
4968,note_on,1,0,0,,5,,,65,127
5111,note_off,143,0,0,,5,,,65,127
5112,note_on,1,0,0,,6,,,66,127
5255,note_off,143,0,0,,6,,,66,127
5255,note_off,0,0,0,,2,,,50,127
5255,note_off,0,0,0,,11,,,58,127
5256,note_on,1,0,0,,3,,,51,127
5256,note_on,0,0,0,,11,,,58,127
5256,note_on,0,0,0,,7,,,67,127
5399,note_off,143,0,0,,7,,,67,127
5400,note_on,1,0,0,,3,,,75,127
5400,note_on,0,0,0,,7,,,79,127
5543,note_off,143,0,0,,7,,,79,127
5543,note_off,0,0,0,,3,,,75,127
5544,note_on,1,0,0,,5,,,77,127
5544,note_on,0,0,0,,2,,,74,127
5687,note_off,143,0,0,,2,,,74,127
5687,note_off,0,0,0,,5,,,77,127
5687,note_off,0,0,0,,11,,,58,127
5687,note_off,0,0,0,,3,,,51,127
5688,note_on,1,0,0,,5,,,53,127
5688,note_on,0,0,0,,3,,,75,127
5688,note_on,0,0,0,,0,,,72,127
5831,note_off,143,0,0,,0,,,72,127
5831,note_off,0,0,0,,3,,,75,127
5832,note_on,1,0,0,,11,,,70,127
5832,note_on,0,0,0,,2,,,74,127
5975,note_off,143,0,0,,2,,,74,127
5975,note_off,0,0,0,,11,,,70,127
5976,note_on,1,0,0,,10,,,69,127
5976,note_on,0,0,0,,0,,,72,127
6119,note_off,143,0,0,,0,,,72,127
6119,note_off,0,0,0,,10,,,69,127
6119,note_off,0,0,0,,5,,,53,127
6120,note_on,1,0,0,,11,,,46,127
6120,note_on,0,0,0,,11,,,58,127
6120,note_on,0,0,0,,11,,,70,127
6551,note_off,431,0,0,,11,,,70,127
6551,note_off,0,0,0,,11,,,58,127
6551,note_off,0,0,0,,11,,,46,127
6552,note_on,1,0,0,,10,,,69,127
6695,note_off,143,0,0,,10,,,69,127
6696,note_on,1,0,0,,5,,,65,127
6839,note_off,143,0,0,,5,,,65,127
6840,note_on,1,0,0,,10,,,69,127
6840,note_on,0,0,0,,0,,,72,127
6983,note_off,143,0,0,,0,,,72,127
6983,note_off,0,0,0,,10,,,69,127
6984,note_on,1,0,0,,11,,,70,127
6984,note_on,0,0,0,,2,,,74,127
7127,note_off,143,0,0,,11,,,70,127
7128,note_on,1,0,0,,5,,,65,127
7271,note_off,143,0,0,,5,,,65,127
7271,note_off,0,0,0,,2,,,74,127
7272,note_on,1,0,0,,11,,,70,127
7272,note_on,0,0,0,,2,,,74,127
7415,note_off,143,0,0,,2,,,74,127
7415,note_off,0,0,0,,11,,,70,127
7416,note_on,1,0,0,,0,,,72,127
7416,note_on,0,0,0,,5,,,77,127
7487,note_off,71,0,0,,5,,,77,127
7488,note_on,1,0,0,,3,,,75,127
7559,note_off,71,0,0,,3,,,75,127
7559,note_off,0,0,0,,0,,,72,127
7560,note_on,1,0,0,,5,,,65,127
7560,note_on,0,0,0,,2,,,74,127
7703,note_off,143,0,0,,2,,,74,127
7704,note_on,1,0,0,,0,,,72,127
7704,note_on,0,0,0,,3,,,75,127
7845,note_off,141,0,0,,5,,,65,127
7847,note_off,2,0,0,,3,,,75,127
7847,note_off,0,0,0,,0,,,72,127
7848,note_on,1,0,0,,5,,,65,127
7848,note_on,0,0,0,,2,,,74,127
7848,note_on,0,0,0,,4,,,76,127
7991,note_off,143,0,0,,4,,,76,127
7992,note_on,1,0,0,,7,,,79,127
8135,note_off,143,0,0,,7,,,79,127
8136,note_on,1,0,0,,5,,,77,127
8279,note_off,143,0,0,,2,,,74,127
8279,note_off,0,0,0,,5,,,65,127
8280,note_on,1,0,0,,10,,,69,127
8423,note_off,143,0,0,,10,,,69,127
8423,note_off,0,0,0,,5,,,77,127
8424,note_on,1,0,0,,5,,,65,127
8567,note_off,143,0,0,,5,,,65,127
8568,note_on,1,0,0,,10,,,69,127
8568,note_on,0,0,0,,0,,,72,127
8711,note_off,143,0,0,,0,,,72,127
8711,note_off,0,0,0,,10,,,69,127
8712,note_on,1,0,0,,11,,,70,127
8712,note_on,0,0,0,,2,,,74,127
8855,note_off,143,0,0,,11,,,70,127
8856,note_on,1,0,0,,5,,,65,127
8999,note_off,143,0,0,,5,,,65,127
8999,note_off,0,0,0,,2,,,74,127
9000,note_on,1,0,0,,11,,,70,127
9000,note_on,0,0,0,,2,,,74,127
9143,note_off,143,0,0,,2,,,74,127
9143,note_off,0,0,0,,11,,,70,127
9144,note_on,1,0,0,,0,,,72,127
9144,note_on,0,0,0,,5,,,77,127
9215,note_off,71,0,0,,5,,,77,127
9216,note_on,1,0,0,,3,,,75,127
9287,note_off,71,0,0,,3,,,75,127
9287,note_off,0,0,0,,0,,,72,127
9288,note_on,1,0,0,,5,,,65,127
9288,note_on,0,0,0,,2,,,74,127
9431,note_off,143,0,0,,2,,,74,127
9432,note_on,1,0,0,,0,,,72,127
9432,note_on,0,0,0,,3,,,75,127
9573,note_off,141,0,0,,5,,,65,127
9575,note_off,2,0,0,,3,,,75,127
9575,note_off,0,0,0,,0,,,72,127
9576,note_on,1,0,0,,5,,,65,127
9576,note_on,0,0,0,,2,,,74,127
9576,note_on,0,0,0,,4,,,76,127
9719,note_off,143,0,0,,4,,,76,127
9720,note_on,1,0,0,,7,,,79,127
9863,note_off,143,0,0,,7,,,79,127
9864,note_on,1,0,0,,5,,,77,127
10006,note_off,142,0,0,,5,,,77,127
10007,note_off,1,0,0,,2,,,74,127
10007,note_off,0,0,0,,5,,,65,127
10008,note_on,1,0,0,,12,,,71,127
10151,note_off,143,0,0,,12,,,71,127
10152,note_on,1,0,0,,7,,,67,127
10295,note_off,143,0,0,,7,,,67,127
10296,note_on,1,0,0,,12,,,71,127
10296,note_on,0,0,0,,2,,,74,127
10439,note_off,143,0,0,,2,,,74,127
10439,note_off,0,0,0,,12,,,71,127
10440,note_on,1,0,0,,0,,,72,127
10440,note_on,0,0,0,,3,,,75,127
10583,note_off,143,0,0,,0,,,72,127
10584,note_on,1,0,0,,7,,,67,127
10727,note_off,143,0,0,,7,,,67,127
10727,note_off,0,0,0,,3,,,75,127
10728,note_on,1,0,0,,0,,,72,127
10728,note_on,0,0,0,,3,,,75,127
10871,note_off,143,0,0,,3,,,75,127
10871,note_off,0,0,0,,0,,,72,127
10872,note_on,1,0,0,,2,,,74,127
10872,note_on,0,0,0,,7,,,79,127
10943,note_off,71,0,0,,7,,,79,127
10944,note_on,1,0,0,,5,,,77,127
11015,note_off,71,0,0,,5,,,77,127
11015,note_off,0,0,0,,2,,,74,127
11016,note_on,1,0,0,,7,,,67,127
11016,note_on,0,0,0,,3,,,75,127
11159,note_off,143,0,0,,3,,,75,127
11160,note_on,1,0,0,,2,,,74,127
11160,note_on,0,0,0,,5,,,77,127
11301,note_off,141,0,0,,7,,,67,127
11303,note_off,2,0,0,,5,,,77,127
11303,note_off,0,0,0,,2,,,74,127
11304,note_on,1,0,0,,7,,,67,127
11304,note_on,0,0,0,,3,,,75,127
11304,note_on,0,0,0,,6,,,78,127
11447,note_off,143,0,0,,6,,,78,127
11448,note_on,1,0,0,,10,,,81,127
11591,note_off,143,0,0,,10,,,81,127
11592,note_on,1,0,0,,7,,,79,127
11735,note_off,143,0,0,,3,,,75,127
11735,note_off,0,0,0,,7,,,67,127
11736,note_on,1,0,0,,12,,,71,127
11879,note_off,143,0,0,,12,,,71,127
11879,note_off,0,0,0,,7,,,79,127
11880,note_on,1,0,0,,7,,,67,127
12023,note_off,143,0,0,,7,,,67,127
12024,note_on,1,0,0,,12,,,71,127
12024,note_on,0,0,0,,2,,,74,127
12167,note_off,143,0,0,,2,,,74,127
12167,note_off,0,0,0,,12,,,71,127
12168,note_on,1,0,0,,0,,,72,127
12168,note_on,0,0,0,,3,,,75,127
12311,note_off,143,0,0,,0,,,72,127
12312,note_on,1,0,0,,7,,,67,127
12455,note_off,143,0,0,,7,,,67,127
12455,note_off,0,0,0,,3,,,75,127
12456,note_on,1,0,0,,0,,,72,127
12456,note_on,0,0,0,,3,,,75,127
12599,note_off,143,0,0,,3,,,75,127
12599,note_off,0,0,0,,0,,,72,127
12600,note_on,1,0,0,,2,,,74,127
12600,note_on,0,0,0,,7,,,79,127
12671,note_off,71,0,0,,7,,,79,127
12672,note_on,1,0,0,,5,,,77,127
12743,note_off,71,0,0,,5,,,77,127
12743,note_off,0,0,0,,2,,,74,127
12744,note_on,1,0,0,,7,,,67,127
12744,note_on,0,0,0,,3,,,75,127
12887,note_off,143,0,0,,3,,,75,127
12887,note_off,0,0,0,,7,,,67,127
12888,note_on,1,0,0,,2,,,74,127
12888,note_on,0,0,0,,5,,,77,127
13031,note_off,143,0,0,,5,,,77,127
13031,note_off,0,0,0,,2,,,74,127
13032,note_on,1,0,0,,3,,,75,127
13032,note_on,0,0,0,,6,,,78,127
13175,note_off,143,0,0,,6,,,78,127
13176,note_on,1,0,0,,7,,,79,127
13319,note_off,143,0,0,,7,,,79,127
13319,note_off,0,0,0,,3,,,75,127
13320,note_on,1,0,0,,2,,,74,127
13320,note_on,0,0,0,,5,,,77,127
13463,note_off,143,0,0,,5,,,77,127
13463,note_off,0,0,0,,2,,,74,127
13464,note_on,1,0,0,,0,,,72,127
13464,note_on,0,0,0,,5,,,77,127
13607,note_off,143,0,0,,5,,,77,127
13608,note_on,1,0,0,,3,,,75,127
13751,note_off,143,0,0,,3,,,75,127
13751,note_off,0,0,0,,0,,,72,127
13752,note_on,1,0,0,,11,,,70,127
13752,note_on,0,0,0,,2,,,74,127
13895,note_off,143,0,0,,2,,,74,127
13895,note_off,0,0,0,,11,,,70,127
13896,note_on,1,0,0,,10,,,69,127
13896,note_on,0,0,0,,2,,,74,127
14039,note_off,143,0,0,,2,,,74,127
14040,note_on,1,0,0,,0,,,72,127
14183,note_off,143,0,0,,0,,,72,127
14183,note_off,0,0,0,,10,,,69,127
14184,note_on,1,0,0,,7,,,67,127
14184,note_on,0,0,0,,11,,,70,127
14327,note_off,143,0,0,,11,,,70,127
14327,note_off,0,0,0,,7,,,67,127
14328,note_on,1,0,0,,5,,,65,127
14328,note_on,0,0,0,,11,,,70,127
14471,note_off,143,0,0,,11,,,70,127
14472,note_on,1,0,0,,10,,,69,127
14615,note_off,143,0,0,,10,,,69,127
14615,note_off,0,0,0,,5,,,65,127
14616,note_on,1,0,0,,3,,,63,127
14616,note_on,0,0,0,,7,,,67,127
14759,note_off,143,0,0,,7,,,67,127
14759,note_off,0,0,0,,3,,,63,127
14760,note_on,1,0,0,,2,,,62,127
14760,note_on,0,0,0,,7,,,67,127
14903,note_off,143,0,0,,7,,,67,127
14904,note_on,1,0,0,,5,,,65,127
15047,note_off,143,0,0,,5,,,65,127
15047,note_off,0,0,0,,2,,,62,127
15048,note_on,1,0,0,,0,,,60,127
15048,note_on,0,0,0,,3,,,63,127
15191,note_off,143,0,0,,3,,,63,127
15191,note_off,0,0,0,,0,,,60,127
15192,note_on,1,0,0,,11,,,58,127
15192,note_on,0,0,0,,3,,,63,127
15335,note_off,143,0,0,,3,,,63,127
15336,note_on,1,0,0,,2,,,62,127
15479,note_off,143,0,0,,2,,,62,127
15479,note_off,0,0,0,,11,,,58,127
15480,note_on,1,0,0,,10,,,57,127
15480,note_on,0,0,0,,0,,,60,127
15623,note_off,143,0,0,,0,,,60,127
15623,note_off,0,0,0,,10,,,57,127
15624,note_on,1,0,0,,7,,,55,127
15624,note_on,0,0,0,,0,,,60,127
16020,note_on,396,0,0,,10,,,57,127
16055,note_off,35,0,0,,0,,,60,127
16055,note_off,0,0,0,,7,,,55,127
16056,note_on,1,0,0,,7,,,43,127
16128,note_on,72,0,0,,11,,,58,127
16135,note_off,7,0,0,,10,,,57,127
16200,note_on,65,0,0,,0,,,60,127
16308,note_on,108,0,0,,4,,,64,127
16425,note_off,117,0,0,,0,,,60,127
16487,note_off,62,0,0,,11,,,58,127
16487,note_off,0,0,0,,7,,,43,127
16488,note_on,1,0,0,,5,,,41,127
16488,note_on,0,0,0,,5,,,53,127
16488,note_on,0,0,0,,11,,,58,127
16704,note_off,216,0,0,,11,,,58,127
16704,note_on,0,0,0,,10,,,57,127
16704,note_on,0,0,0,,5,,,65,127
16739,note_off,35,0,0,,4,,,64,127
17206,note_off,467,0,0,,5,,,65,127
17206,note_off,0,0,0,,10,,,57,127
17208,note_off,2,0,0,,5,,,53,127
17208,note_off,0,0,0,,5,,,41,127
17640,note_on,432,0,0,,3,,,63,127
17640,note_on,0,0,0,,5,,,65,127
17711,note_off,71,0,0,,5,,,65,127
17711,note_off,0,0,0,,3,,,63,127
17712,note_on,1,0,0,,2,,,62,127
17783,note_off,71,0,0,,2,,,62,127
17784,note_on,1,0,0,,3,,,63,127
17855,note_off,71,0,0,,3,,,63,127
17856,note_on,1,0,0,,5,,,65,127
17927,note_off,71,0,0,,5,,,65,127
17928,note_on,1,0,0,,7,,,67,127
17928,note_on,0,0,0,,3,,,51,127
18071,note_off,143,0,0,,7,,,67,127
18072,note_on,1,0,0,,3,,,63,127
18215,note_off,143,0,0,,3,,,63,127
18216,note_on,1,0,0,,11,,,58,127
18359,note_off,143,0,0,,11,,,58,127
18359,note_off,0,0,0,,3,,,51,127
18360,note_on,1,0,0,,8,,,56,127
18360,note_on,0,0,0,,11,,,46,127
18503,note_off,143,0,0,,8,,,56,127
18504,note_on,1,0,0,,5,,,65,127
18647,note_off,143,0,0,,5,,,65,127
18648,note_on,1,0,0,,2,,,62,127
18791,note_off,143,0,0,,2,,,62,127
18791,note_off,0,0,0,,11,,,46,127
18792,note_on,1,0,0,,3,,,63,127
18792,note_on,0,0,0,,3,,,51,127
18792,note_on,0,0,0,,3,,,39,127
18935,note_off,143,0,0,,3,,,63,127
18936,note_on,1,0,0,,11,,,58,127
19079,note_off,143,0,0,,11,,,58,127
19080,note_on,1,0,0,,7,,,55,127
19223,note_off,143,0,0,,7,,,55,127
19223,note_off,0,0,0,,3,,,51,127
19224,note_on,1,0,0,,3,,,51,127
19367,note_off,143,0,0,,3,,,51,127
19368,note_on,1,0,0,,11,,,70,127
19511,note_off,143,0,0,,11,,,70,127
19512,note_on,1,0,0,,1,,,61,127
19655,note_off,143,0,0,,1,,,61,127
19655,note_off,0,0,0,,3,,,39,127
19656,note_on,1,0,0,,0,,,60,127
19656,note_on,0,0,0,,8,,,56,127
19799,note_off,143,0,0,,0,,,60,127
19800,note_on,1,0,0,,8,,,68,127
19943,note_off,143,0,0,,8,,,68,127
19944,note_on,1,0,0,,0,,,60,127
20087,note_off,143,0,0,,0,,,60,127
20087,note_off,0,0,0,,8,,,56,127
20088,note_on,1,0,0,,11,,,58,127
20088,note_on,0,0,0,,3,,,51,127
20231,note_off,143,0,0,,11,,,58,127
20232,note_on,1,0,0,,11,,,70,127
20375,note_off,143,0,0,,11,,,70,127
20376,note_on,1,0,0,,7,,,67,127
20519,note_off,143,0,0,,7,,,67,127
20519,note_off,0,0,0,,3,,,51,127
20520,note_on,1,0,0,,8,,,68,127
20520,note_on,0,0,0,,8,,,56,127
20520,note_on,0,0,0,,8,,,44,127
20664,note_on,144,0,0,,3,,,63,127
20805,note_off,141,0,0,,8,,,68,127
20807,note_off,2,0,0,,3,,,63,127
20808,note_on,1,0,0,,0,,,60,127
20951,note_off,143,0,0,,0,,,60,127
20951,note_off,0,0,0,,8,,,56,127
20952,note_on,1,0,0,,8,,,56,127
21060,note_off,108,0,0,,8,,,56,127
21095,note_off,35,0,0,,8,,,44,127
21096,note_on,1,0,0,,7,,,67,127
21096,note_on,0,0,0,,5,,,65,127
21167,note_off,71,0,0,,5,,,65,127
21167,note_off,0,0,0,,7,,,67,127
21168,note_on,1,0,0,,4,,,64,127
21239,note_off,71,0,0,,4,,,64,127
21240,note_on,1,0,0,,5,,,65,127
21311,note_off,71,0,0,,5,,,65,127
21312,note_on,1,0,0,,7,,,67,127
21383,note_off,71,0,0,,7,,,67,127
21384,note_on,1,0,0,,10,,,69,127
21384,note_on,0,0,0,,5,,,53,127
21384,note_on,0,0,0,,5,,,41,127
21527,note_off,143,0,0,,10,,,69,127
21528,note_on,1,0,0,,5,,,65,127
21671,note_off,143,0,0,,5,,,65,127
21672,note_on,1,0,0,,0,,,60,127
21815,note_off,143,0,0,,0,,,60,127
21815,note_off,0,0,0,,5,,,41,127
21815,note_off,0,0,0,,5,,,53,127
21816,note_on,1,0,0,,11,,,58,127
21816,note_on,0,0,0,,0,,,48,127
21959,note_off,143,0,0,,11,,,58,127
21960,note_on,1,0,0,,7,,,67,127
22103,note_off,143,0,0,,7,,,67,127
22104,note_on,1,0,0,,4,,,64,127
22247,note_off,143,0,0,,4,,,64,127
22247,note_off,0,0,0,,0,,,48,127
22248,note_on,1,0,0,,5,,,65,127
22248,note_on,0,0,0,,5,,,53,127
22248,note_on,0,0,0,,5,,,41,127
22391,note_off,143,0,0,,5,,,65,127
22392,note_on,1,0,0,,0,,,60,127
22535,note_off,143,0,0,,0,,,60,127
22536,note_on,1,0,0,,10,,,57,127
22679,note_off,143,0,0,,10,,,57,127
22679,note_off,0,0,0,,5,,,53,127
22680,note_on,1,0,0,,5,,,53,127
22823,note_off,143,0,0,,5,,,53,127
22824,note_on,1,0,0,,0,,,72,127
22967,note_off,143,0,0,,0,,,72,127
22968,note_on,1,0,0,,3,,,63,127
23111,note_off,143,0,0,,3,,,63,127
23111,note_off,0,0,0,,5,,,41,127
23112,note_on,1,0,0,,2,,,62,127
23112,note_on,0,0,0,,11,,,58,127
23112,note_on,0,0,0,,11,,,46,127
23255,note_off,143,0,0,,2,,,62,127
23256,note_on,1,0,0,,11,,,70,127
23399,note_off,143,0,0,,11,,,70,127
23400,note_on,1,0,0,,2,,,62,127
23543,note_off,143,0,0,,2,,,62,127
23543,note_off,0,0,0,,11,,,46,127
23543,note_off,0,0,0,,11,,,58,127
23544,note_on,1,0,0,,0,,,60,127
23544,note_on,0,0,0,,5,,,53,127
23687,note_off,143,0,0,,0,,,60,127
23688,note_on,1,0,0,,0,,,72,127
23831,note_off,143,0,0,,0,,,72,127
23832,note_on,1,0,0,,10,,,69,127
23975,note_off,143,0,0,,10,,,69,127
23975,note_off,0,0,0,,5,,,53,127
23976,note_on,1,0,0,,11,,,70,127
23976,note_on,0,0,0,,11,,,58,127
23976,note_on,0,0,0,,11,,,46,127
24120,note_on,144,0,0,,5,,,65,127
24261,note_off,141,0,0,,11,,,70,127
24263,note_off,2,0,0,,5,,,65,127
24264,note_on,1,0,0,,2,,,62,127
24407,note_off,143,0,0,,2,,,62,127
24407,note_off,0,0,0,,11,,,58,127
24408,note_on,1,0,0,,11,,,58,127
24516,note_off,108,0,0,,11,,,58,127
24551,note_off,35,0,0,,11,,,46,127
24552,note_on,1,0,0,,10,,,69,127
24552,note_on,0,0,0,,7,,,67,127
24623,note_off,71,0,0,,7,,,67,127
24623,note_off,0,0,0,,10,,,69,127
24624,note_on,1,0,0,,6,,,66,127
24695,note_off,71,0,0,,6,,,66,127
24696,note_on,1,0,0,,7,,,67,127
24767,note_off,71,0,0,,7,,,67,127
24768,note_on,1,0,0,,10,,,69,127
24839,note_off,71,0,0,,10,,,69,127
24840,note_on,1,0,0,,11,,,70,127
24840,note_on,0,0,0,,7,,,55,127
24840,note_on,0,0,0,,7,,,43,127
24983,note_off,143,0,0,,11,,,70,127
24984,note_on,1,0,0,,7,,,67,127
25127,note_off,143,0,0,,7,,,67,127
25128,note_on,1,0,0,,2,,,62,127
25271,note_off,143,0,0,,2,,,62,127
25271,note_off,0,0,0,,7,,,43,127
25271,note_off,0,0,0,,7,,,55,127
25272,note_on,1,0,0,,0,,,60,127
25272,note_on,0,0,0,,2,,,50,127
25415,note_off,143,0,0,,0,,,60,127
25416,note_on,1,0,0,,10,,,69,127
25559,note_off,143,0,0,,10,,,69,127
25560,note_on,1,0,0,,6,,,66,127
25703,note_off,143,0,0,,6,,,66,127
25703,note_off,0,0,0,,2,,,50,127
25704,note_on,1,0,0,,7,,,67,127
25704,note_on,0,0,0,,7,,,55,127
25704,note_on,0,0,0,,7,,,43,127
25848,note_on,144,0,0,,2,,,62,127
25989,note_off,141,0,0,,7,,,67,127
25991,note_off,2,0,0,,2,,,62,127
25992,note_on,1,0,0,,12,,,59,127
26135,note_off,143,0,0,,12,,,59,127
26135,note_off,0,0,0,,7,,,55,127
26136,note_on,1,0,0,,7,,,55,127
26279,note_off,143,0,0,,7,,,55,127
26280,note_on,1,0,0,,2,,,74,127
26423,note_off,143,0,0,,2,,,74,127
26424,note_on,1,0,0,,5,,,65,127
26567,note_off,143,0,0,,5,,,65,127
26567,note_off,0,0,0,,7,,,43,127
26568,note_on,1,0,0,,3,,,63,127
26568,note_on,0,0,0,,0,,,48,127
26568,note_on,0,0,0,,0,,,60,127
26711,note_off,143,0,0,,3,,,63,127
26712,note_on,1,0,0,,0,,,72,127
26855,note_off,143,0,0,,0,,,72,127
26856,note_on,1,0,0,,3,,,63,127
26999,note_off,143,0,0,,3,,,63,127
26999,note_off,0,0,0,,0,,,60,127
26999,note_off,0,0,0,,0,,,48,127
27000,note_on,1,0,0,,2,,,62,127
27000,note_on,0,0,0,,7,,,55,127
27143,note_off,143,0,0,,2,,,62,127
27144,note_on,1,0,0,,2,,,74,127
27287,note_off,143,0,0,,2,,,74,127
27288,note_on,1,0,0,,12,,,71,127
27431,note_off,143,0,0,,12,,,71,127
27431,note_off,0,0,0,,7,,,55,127
27432,note_on,1,0,0,,12,,,71,127
27432,note_on,0,0,0,,0,,,60,127
27432,note_on,0,0,0,,0,,,48,127
27719,note_off,287,0,0,,12,,,71,127
27720,note_on,1,0,0,,0,,,72,127
27863,note_off,143,0,0,,0,,,48,127
27863,note_off,0,0,0,,0,,,60,127
27864,note_on,1,0,0,,4,,,64,127
28007,note_off,143,0,0,,4,,,64,127
28007,note_off,0,0,0,,0,,,72,127
28008,note_on,1,0,0,,0,,,60,127
28151,note_off,143,0,0,,0,,,60,127
28152,note_on,1,0,0,,7,,,67,127
28152,note_on,0,0,0,,4,,,64,127
28295,note_off,143,0,0,,4,,,64,127
28295,note_off,0,0,0,,7,,,67,127
28296,note_on,1,0,0,,10,,,69,127
28296,note_on,0,0,0,,5,,,65,127
28439,note_off,143,0,0,,5,,,65,127
28440,note_on,1,0,0,,0,,,60,127
28583,note_off,143,0,0,,0,,,60,127
28583,note_off,0,0,0,,10,,,69,127
28584,note_on,1,0,0,,10,,,69,127
28584,note_on,0,0,0,,5,,,65,127
28727,note_off,143,0,0,,5,,,65,127
28727,note_off,0,0,0,,10,,,69,127
28728,note_on,1,0,0,,0,,,72,127
28728,note_on,0,0,0,,7,,,67,127
28799,note_off,71,0,0,,0,,,72,127
28800,note_on,1,0,0,,11,,,70,127
28871,note_off,71,0,0,,11,,,70,127
28871,note_off,0,0,0,,7,,,67,127
28872,note_on,1,0,0,,10,,,69,127
28872,note_on,0,0,0,,0,,,60,127
29015,note_off,143,0,0,,10,,,69,127
29016,note_on,1,0,0,,11,,,70,127
29016,note_on,0,0,0,,7,,,67,127
29157,note_off,141,0,0,,0,,,60,127
29159,note_off,2,0,0,,7,,,67,127
29159,note_off,0,0,0,,11,,,70,127
29160,note_on,1,0,0,,12,,,71,127
29160,note_on,0,0,0,,10,,,69,127
29160,note_on,0,0,0,,0,,,60,127
29303,note_off,143,0,0,,12,,,71,127
29304,note_on,1,0,0,,2,,,74,127
29447,note_off,143,0,0,,2,,,74,127
29448,note_on,1,0,0,,0,,,72,127
29590,note_off,142,0,0,,0,,,72,127
29591,note_off,1,0,0,,0,,,60,127
29591,note_off,0,0,0,,10,,,69,127
29592,note_on,1,0,0,,4,,,64,127
29735,note_off,143,0,0,,4,,,64,127
29736,note_on,1,0,0,,0,,,60,127
29879,note_off,143,0,0,,0,,,60,127
29880,note_on,1,0,0,,7,,,67,127
29880,note_on,0,0,0,,4,,,64,127
30023,note_off,143,0,0,,4,,,64,127
30023,note_off,0,0,0,,7,,,67,127
30024,note_on,1,0,0,,10,,,69,127
30024,note_on,0,0,0,,5,,,65,127
30167,note_off,143,0,0,,5,,,65,127
30168,note_on,1,0,0,,0,,,60,127
30311,note_off,143,0,0,,0,,,60,127
30311,note_off,0,0,0,,10,,,69,127
30312,note_on,1,0,0,,10,,,69,127
30312,note_on,0,0,0,,5,,,65,127
30455,note_off,143,0,0,,5,,,65,127
30455,note_off,0,0,0,,10,,,69,127
30456,note_on,1,0,0,,0,,,72,127
30456,note_on,0,0,0,,7,,,67,127
30527,note_off,71,0,0,,0,,,72,127
30528,note_on,1,0,0,,11,,,70,127
30599,note_off,71,0,0,,11,,,70,127
30599,note_off,0,0,0,,7,,,67,127
30600,note_on,1,0,0,,10,,,69,127
30600,note_on,0,0,0,,0,,,60,127
30743,note_off,143,0,0,,10,,,69,127
30744,note_on,1,0,0,,11,,,70,127
30744,note_on,0,0,0,,7,,,67,127
30885,note_off,141,0,0,,0,,,60,127
30887,note_off,2,0,0,,7,,,67,127
30887,note_off,0,0,0,,11,,,70,127
30888,note_on,1,0,0,,12,,,71,127
30888,note_on,0,0,0,,0,,,60,127
30888,note_on,0,0,0,,10,,,69,127
31031,note_off,143,0,0,,12,,,71,127
31032,note_on,1,0,0,,2,,,74,127
31175,note_off,143,0,0,,2,,,74,127
31176,note_on,1,0,0,,0,,,72,127
31319,note_off,143,0,0,,10,,,69,127
31319,note_off,0,0,0,,0,,,60,127
31320,note_on,1,0,0,,6,,,66,127
31463,note_off,143,0,0,,6,,,66,127
31463,note_off,0,0,0,,0,,,72,127
31464,note_on,1,0,0,,2,,,62,127
31607,note_off,143,0,0,,2,,,62,127
31608,note_on,1,0,0,,10,,,69,127
31608,note_on,0,0,0,,6,,,66,127
31751,note_off,143,0,0,,6,,,66,127
31751,note_off,0,0,0,,10,,,69,127
31752,note_on,1,0,0,,11,,,70,127
31752,note_on,0,0,0,,7,,,67,127
31895,note_off,143,0,0,,7,,,67,127
31896,note_on,1,0,0,,2,,,62,127
32039,note_off,143,0,0,,2,,,62,127
32039,note_off,0,0,0,,11,,,70,127
32040,note_on,1,0,0,,11,,,70,127
32040,note_on,0,0,0,,7,,,67,127
32183,note_off,143,0,0,,7,,,67,127
32183,note_off,0,0,0,,11,,,70,127
32184,note_on,1,0,0,,2,,,74,127
32184,note_on,0,0,0,,10,,,69,127
32255,note_off,71,0,0,,2,,,74,127
32256,note_on,1,0,0,,0,,,72,127
32327,note_off,71,0,0,,0,,,72,127
32327,note_off,0,0,0,,10,,,69,127
32328,note_on,1,0,0,,11,,,70,127
32328,note_on,0,0,0,,2,,,62,127
32471,note_off,143,0,0,,11,,,70,127
32472,note_on,1,0,0,,0,,,72,127
32472,note_on,0,0,0,,10,,,69,127
32613,note_off,141,0,0,,2,,,62,127
32615,note_off,2,0,0,,10,,,69,127
32615,note_off,0,0,0,,0,,,72,127
32616,note_on,1,0,0,,1,,,73,127
32616,note_on,0,0,0,,11,,,70,127
32616,note_on,0,0,0,,2,,,62,127
32759,note_off,143,0,0,,1,,,73,127
32760,note_on,1,0,0,,4,,,76,127
32903,note_off,143,0,0,,4,,,76,127
32904,note_on,1,0,0,,2,,,74,127
33047,note_off,143,0,0,,2,,,62,127
33047,note_off,0,0,0,,11,,,70,127
33048,note_on,1,0,0,,6,,,66,127
33191,note_off,143,0,0,,6,,,66,127
33191,note_off,0,0,0,,2,,,74,127
33192,note_on,1,0,0,,2,,,62,127
33335,note_off,143,0,0,,2,,,62,127
33336,note_on,1,0,0,,10,,,69,127
33336,note_on,0,0,0,,6,,,66,127
33479,note_off,143,0,0,,6,,,66,127
33479,note_off,0,0,0,,10,,,69,127
33480,note_on,1,0,0,,11,,,70,127
33480,note_on,0,0,0,,7,,,67,127
33623,note_off,143,0,0,,7,,,67,127
33624,note_on,1,0,0,,2,,,62,127
33767,note_off,143,0,0,,2,,,62,127
33767,note_off,0,0,0,,11,,,70,127
33768,note_on,1,0,0,,11,,,70,127
33768,note_on,0,0,0,,7,,,67,127
33911,note_off,143,0,0,,7,,,67,127
33911,note_off,0,0,0,,11,,,70,127
33912,note_on,1,0,0,,2,,,74,127
33912,note_on,0,0,0,,10,,,69,127
33983,note_off,71,0,0,,2,,,74,127
33984,note_on,1,0,0,,0,,,72,127
34055,note_off,71,0,0,,0,,,72,127
34055,note_off,0,0,0,,10,,,69,127
34056,note_on,1,0,0,,11,,,70,127
34056,note_on,0,0,0,,2,,,62,127
34199,note_off,143,0,0,,2,,,62,127
34199,note_off,0,0,0,,11,,,70,127
34200,note_on,1,0,0,,0,,,72,127
34200,note_on,0,0,0,,10,,,69,127
34343,note_off,143,0,0,,10,,,69,127
34343,note_off,0,0,0,,0,,,72,127
34344,note_on,1,0,0,,1,,,73,127
34344,note_on,0,0,0,,11,,,70,127
34487,note_off,143,0,0,,1,,,73,127
34488,note_on,1,0,0,,2,,,74,127
34631,note_off,143,0,0,,2,,,74,127
34631,note_off,0,0,0,,11,,,70,127
34632,note_on,1,0,0,,0,,,72,127
34632,note_on,0,0,0,,10,,,69,127
34775,note_off,143,0,0,,10,,,69,127
34775,note_off,0,0,0,,0,,,72,127
34776,note_on,1,0,0,,0,,,72,127
34776,note_on,0,0,0,,7,,,67,127
34919,note_off,143,0,0,,0,,,72,127
34920,note_on,1,0,0,,11,,,70,127
35063,note_off,143,0,0,,11,,,70,127
35063,note_off,0,0,0,,7,,,67,127
35064,note_on,1,0,0,,10,,,69,127
35064,note_on,0,0,0,,5,,,65,127
35207,note_off,143,0,0,,5,,,65,127
35207,note_off,0,0,0,,10,,,69,127
35208,note_on,1,0,0,,7,,,67,127
35208,note_on,0,0,0,,4,,,64,127
35351,note_off,143,0,0,,7,,,67,127
35352,note_on,1,0,0,,7,,,79,127
35495,note_off,143,0,0,,7,,,79,127
35495,note_off,0,0,0,,4,,,64,127
35496,note_on,1,0,0,,5,,,77,127
35496,note_on,0,0,0,,2,,,62,127
35639,note_off,143,0,0,,2,,,62,127
35639,note_off,0,0,0,,5,,,77,127
35640,note_on,1,0,0,,5,,,77,127
35640,note_on,0,0,0,,0,,,60,127
35783,note_off,143,0,0,,5,,,77,127
35784,note_on,1,0,0,,4,,,76,127
35927,note_off,143,0,0,,4,,,76,127
35927,note_off,0,0,0,,0,,,60,127
35928,note_on,1,0,0,,2,,,74,127
35928,note_on,0,0,0,,11,,,70,127
36071,note_off,143,0,0,,11,,,70,127
36071,note_off,0,0,0,,2,,,74,127
36072,note_on,1,0,0,,2,,,74,127
36072,note_on,0,0,0,,10,,,69,127
36215,note_off,143,0,0,,2,,,74,127
36216,note_on,1,0,0,,0,,,72,127
36359,note_off,143,0,0,,0,,,72,127
36359,note_off,0,0,0,,10,,,69,127
36360,note_on,1,0,0,,11,,,70,127
36360,note_on,0,0,0,,7,,,67,127
36503,note_off,143,0,0,,7,,,67,127
36503,note_off,0,0,0,,11,,,70,127
36504,note_on,1,0,0,,11,,,70,127
36504,note_on,0,0,0,,5,,,65,127
36647,note_off,143,0,0,,11,,,70,127
36648,note_on,1,0,0,,10,,,69,127
36791,note_off,143,0,0,,10,,,69,127
36791,note_off,0,0,0,,5,,,65,127
36792,note_on,1,0,0,,7,,,67,127
36792,note_on,0,0,0,,4,,,64,127
36935,note_off,143,0,0,,4,,,64,127
36935,note_off,0,0,0,,7,,,67,127
36936,note_on,1,0,0,,7,,,67,127
36936,note_on,0,0,0,,2,,,62,127
37079,note_off,143,0,0,,7,,,67,127
37080,note_on,1,0,0,,5,,,65,127
37223,note_off,143,0,0,,5,,,65,127
37224,note_on,1,0,0,,4,,,64,127
37367,note_off,143,0,0,,4,,,64,127
37367,note_off,0,0,0,,2,,,62,127
37368,note_on,1,0,0,,7,,,67,127
37368,note_on,0,0,0,,2,,,62,127
37439,note_off,71,0,0,,7,,,67,127
37440,note_on,1,0,0,,5,,,65,127
37511,note_off,71,0,0,,5,,,65,127
37512,note_on,1,0,0,,7,,,67,127
37583,note_off,71,0,0,,7,,,67,127
37584,note_on,1,0,0,,5,,,65,127
37655,note_off,71,0,0,,5,,,65,127
37656,note_on,1,0,0,,4,,,64,127
37727,note_off,71,0,0,,4,,,64,127
37728,note_on,1,0,0,,5,,,65,127
37799,note_off,71,0,0,,5,,,65,127
37799,note_off,0,0,0,,2,,,62,127
37800,note_on,1,0,0,,7,,,67,127
37800,note_on,0,0,0,,0,,,60,127
38231,note_off,431,0,0,,0,,,60,127
38231,note_off,0,0,0,,7,,,67,127
38232,note_on,1,0,0,,2,,,74,127
38232,note_on,0,0,0,,11,,,70,127
38232,note_on,0,0,0,,5,,,65,127
38293,note_off,61,0,0,,11,,,70,127
38293,note_off,0,0,0,,2,,,74,127
38294,note_on,1,0,0,,0,,,72,127
38294,note_on,0,0,0,,10,,,69,127
38356,note_off,62,0,0,,10,,,69,127
38356,note_off,0,0,0,,0,,,72,127
38357,note_on,1,0,0,,2,,,74,127
38357,note_on,0,0,0,,11,,,70,127
38377,note_off,20,0,0,,5,,,65,127
38378,note_on,1,0,0,,0,,,60,127
38419,note_off,41,0,0,,11,,,70,127
38419,note_off,0,0,0,,2,,,74,127
38420,note_on,1,0,0,,0,,,72,127
38420,note_on,0,0,0,,10,,,69,127
38482,note_off,62,0,0,,10,,,69,127
38482,note_off,0,0,0,,0,,,72,127
38483,note_on,1,0,0,,2,,,74,127
38483,note_on,0,0,0,,11,,,70,127
38522,note_off,39,0,0,,0,,,60,127
38523,note_on,1,0,0,,10,,,57,127
38544,note_off,21,0,0,,11,,,70,127
38544,note_off,0,0,0,,2,,,74,127
38545,note_on,1,0,0,,0,,,72,127
38545,note_on,0,0,0,,10,,,69,127
38607,note_off,62,0,0,,10,,,69,127
38607,note_off,0,0,0,,0,,,72,127
38608,note_on,1,0,0,,11,,,70,127
38608,note_on,0,0,0,,2,,,74,127
38667,note_off,59,0,0,,10,,,57,127
38668,note_on,1,0,0,,5,,,53,127
38670,note_off,2,0,0,,2,,,74,127
38670,note_off,0,0,0,,11,,,70,127
38671,note_on,1,0,0,,10,,,69,127
38671,note_on,0,0,0,,0,,,72,127
38733,note_off,62,0,0,,0,,,72,127
38733,note_off,0,0,0,,10,,,69,127
38734,note_on,1,0,0,,11,,,70,127
38734,note_on,0,0,0,,2,,,74,127
38795,note_off,61,0,0,,2,,,74,127
38795,note_off,0,0,0,,11,,,70,127
38796,note_on,1,0,0,,10,,,69,127
38796,note_on,0,0,0,,0,,,72,127
38813,note_off,17,0,0,,5,,,53,127
38814,note_on,1,0,0,,10,,,57,127
38858,note_off,44,0,0,,0,,,72,127
38858,note_off,0,0,0,,10,,,69,127
38859,note_on,1,0,0,,11,,,70,127
38859,note_on,0,0,0,,2,,,74,127
38921,note_off,62,0,0,,2,,,74,127
38921,note_off,0,0,0,,11,,,70,127
38922,note_on,1,0,0,,10,,,69,127
38922,note_on,0,0,0,,0,,,72,127
38959,note_off,37,0,0,,10,,,57,127
38960,note_on,1,0,0,,5,,,53,127
38984,note_off,24,0,0,,0,,,72,127
38984,note_off,0,0,0,,10,,,69,127
38985,note_on,1,0,0,,11,,,70,127
38985,note_on,0,0,0,,2,,,74,127
39046,note_off,61,0,0,,2,,,74,127
39046,note_off,0,0,0,,11,,,70,127
39047,note_on,1,0,0,,10,,,69,127
39047,note_on,0,0,0,,0,,,72,127
39104,note_off,57,0,0,,5,,,53,127
39105,note_on,1,0,0,,0,,,48,127
39109,note_off,4,0,0,,0,,,72,127
39109,note_off,0,0,0,,10,,,69,127
39110,note_on,1,0,0,,11,,,70,127
39110,note_on,0,0,0,,2,,,74,127
39172,note_off,62,0,0,,2,,,74,127
39172,note_off,0,0,0,,11,,,70,127
39173,note_on,1,0,0,,10,,,69,127
39173,note_on,0,0,0,,0,,,72,127
39235,note_off,62,0,0,,0,,,72,127
39235,note_off,0,0,0,,10,,,69,127
39236,note_on,1,0,0,,11,,,70,127
39236,note_on,0,0,0,,2,,,74,127
39250,note_off,14,0,0,,0,,,48,127
39251,note_on,1,0,0,,5,,,53,127
39297,note_off,46,0,0,,2,,,74,127
39297,note_off,0,0,0,,11,,,70,127
39298,note_on,1,0,0,,10,,,69,127
39298,note_on,0,0,0,,0,,,72,127
39360,note_off,62,0,0,,0,,,72,127
39360,note_off,0,0,0,,10,,,69,127
39361,note_on,1,0,0,,11,,,70,127
39361,note_on,0,0,0,,2,,,74,127
39395,note_off,34,0,0,,5,,,53,127
39396,note_on,1,0,0,,0,,,48,127
39422,note_off,26,0,0,,2,,,74,127
39422,note_off,0,0,0,,11,,,70,127
39423,note_on,1,0,0,,10,,,69,127
39423,note_on,0,0,0,,0,,,72,127
39485,note_off,62,0,0,,0,,,72,127
39485,note_off,0,0,0,,10,,,69,127
39486,note_on,1,0,0,,11,,,70,127
39486,note_on,0,0,0,,2,,,74,127
39540,note_off,54,0,0,,0,,,48,127
39541,note_on,1,0,0,,10,,,45,127
39547,note_off,6,0,0,,2,,,74,127
39547,note_off,0,0,0,,11,,,70,127
39548,note_on,1,0,0,,10,,,69,127
39548,note_on,0,0,0,,0,,,72,127
39610,note_off,62,0,0,,0,,,72,127
39610,note_off,0,0,0,,10,,,69,127
39611,note_on,1,0,0,,11,,,70,127
39611,note_on,0,0,0,,2,,,74,127
39673,note_off,62,0,0,,2,,,74,127
39673,note_off,0,0,0,,11,,,70,127
39674,note_on,1,0,0,,10,,,69,127
39674,note_on,0,0,0,,0,,,72,127
39686,note_off,12,0,0,,10,,,45,127
39687,note_on,1,0,0,,0,,,48,127
39736,note_off,49,0,0,,0,,,72,127
39736,note_off,0,0,0,,10,,,69,127
39737,note_on,1,0,0,,11,,,70,127
39737,note_on,0,0,0,,2,,,74,127
39799,note_off,62,0,0,,2,,,74,127
39799,note_off,0,0,0,,11,,,70,127
39800,note_on,1,0,0,,0,,,72,127
39800,note_on,0,0,0,,10,,,69,127
39832,note_off,32,0,0,,0,,,48,127
39833,note_on,1,0,0,,10,,,45,127
39976,note_off,143,0,0,,10,,,45,127
39977,note_on,1,0,0,,5,,,41,127
40116,note_off,139,0,0,,10,,,69,127
40116,note_off,0,0,0,,0,,,72,127
40121,note_on,5,0,0,,10,,,69,127
40121,note_on,0,0,0,,5,,,77,127
40264,note_off,143,0,0,,5,,,77,127
40264,note_off,0,0,0,,10,,,69,127
40265,note_on,1,0,0,,4,,,76,127
40265,note_on,0,0,0,,7,,,67,127
40408,note_off,143,0,0,,7,,,67,127
40408,note_off,0,0,0,,4,,,76,127
40408,note_off,0,0,0,,5,,,41,127
40409,note_on,1,0,0,,5,,,65,127
40409,note_on,0,0,0,,2,,,74,127
40409,note_on,0,0,0,,11,,,46,127
40552,note_off,143,0,0,,2,,,74,127
40552,note_off,0,0,0,,5,,,65,127
40553,note_on,1,0,0,,4,,,64,127
40553,note_on,0,0,0,,0,,,72,127
40696,note_off,143,0,0,,0,,,72,127
40696,note_off,0,0,0,,4,,,64,127
40697,note_on,1,0,0,,2,,,62,127
40697,note_on,0,0,0,,11,,,70,127
40840,note_off,143,0,0,,11,,,70,127
40840,note_off,0,0,0,,2,,,62,127
40840,note_off,0,0,0,,11,,,46,127
40841,note_on,1,0,0,,11,,,70,127
40841,note_on,0,0,0,,2,,,62,127
40841,note_on,0,0,0,,0,,,48,127
40984,note_off,143,0,0,,2,,,62,127
40984,note_off,0,0,0,,11,,,70,127
40985,note_on,1,0,0,,0,,,60,127
40985,note_on,0,0,0,,10,,,69,127
41128,note_off,143,0,0,,10,,,69,127
41128,note_off,0,0,0,,0,,,60,127
41129,note_on,1,0,0,,11,,,58,127
41129,note_on,0,0,0,,7,,,67,127
41272,note_off,143,0,0,,7,,,67,127
41272,note_off,0,0,0,,11,,,58,127
41272,note_off,0,0,0,,0,,,48,127
41273,note_on,1,0,0,,5,,,65,127
41273,note_on,0,0,0,,10,,,57,127
41273,note_on,0,0,0,,5,,,41,127
41704,note_off,431,0,0,,5,,,41,127
41704,note_off,0,0,0,,10,,,57,127
41704,note_off,0,0,0,,5,,,65,127
41705,note_on,1,0,0,,11,,,70,127
41705,note_on,0,0,0,,2,,,74,127
41705,note_on,0,0,0,,5,,,65,127
41766,note_off,61,0,0,,2,,,74,127
41766,note_off,0,0,0,,11,,,70,127
41767,note_on,1,0,0,,10,,,69,127
41767,note_on,0,0,0,,0,,,72,127
41829,note_off,62,0,0,,0,,,72,127
41829,note_off,0,0,0,,10,,,69,127
41830,note_on,1,0,0,,11,,,70,127
41830,note_on,0,0,0,,2,,,74,127
41850,note_off,20,0,0,,5,,,65,127
41851,note_on,1,0,0,,0,,,60,127
41892,note_off,41,0,0,,2,,,74,127
41892,note_off,0,0,0,,11,,,70,127
41893,note_on,1,0,0,,10,,,69,127
41893,note_on,0,0,0,,0,,,72,127
41955,note_off,62,0,0,,0,,,72,127
41955,note_off,0,0,0,,10,,,69,127
41956,note_on,1,0,0,,11,,,70,127
41956,note_on,0,0,0,,2,,,74,127
41995,note_off,39,0,0,,0,,,60,127
41996,note_on,1,0,0,,10,,,57,127
42017,note_off,21,0,0,,2,,,74,127
42017,note_off,0,0,0,,11,,,70,127
42018,note_on,1,0,0,,10,,,69,127
42018,note_on,0,0,0,,0,,,72,127
42080,note_off,62,0,0,,0,,,72,127
42080,note_off,0,0,0,,10,,,69,127
42081,note_on,1,0,0,,11,,,70,127
42081,note_on,0,0,0,,2,,,74,127
42140,note_off,59,0,0,,10,,,57,127
42141,note_on,1,0,0,,5,,,53,127
42143,note_off,2,0,0,,2,,,74,127
42143,note_off,0,0,0,,11,,,70,127
42144,note_on,1,0,0,,10,,,69,127
42144,note_on,0,0,0,,0,,,72,127
42206,note_off,62,0,0,,0,,,72,127
42206,note_off,0,0,0,,10,,,69,127
42207,note_on,1,0,0,,11,,,70,127
42207,note_on,0,0,0,,2,,,74,127
42268,note_off,61,0,0,,2,,,74,127
42268,note_off,0,0,0,,11,,,70,127
42269,note_on,1,0,0,,10,,,69,127
42269,note_on,0,0,0,,0,,,72,127
42286,note_off,17,0,0,,5,,,53,127
42287,note_on,1,0,0,,10,,,57,127
42331,note_off,44,0,0,,0,,,72,127
42331,note_off,0,0,0,,10,,,69,127
42332,note_on,1,0,0,,11,,,70,127
42332,note_on,0,0,0,,2,,,74,127
42394,note_off,62,0,0,,2,,,74,127
42394,note_off,0,0,0,,11,,,70,127
42395,note_on,1,0,0,,10,,,69,127
42395,note_on,0,0,0,,0,,,72,127
42432,note_off,37,0,0,,10,,,57,127
42433,note_on,1,0,0,,5,,,53,127
42457,note_off,24,0,0,,0,,,72,127
42457,note_off,0,0,0,,10,,,69,127
42458,note_on,1,0,0,,11,,,70,127
42458,note_on,0,0,0,,2,,,74,127
42519,note_off,61,0,0,,2,,,74,127
42519,note_off,0,0,0,,11,,,70,127
42520,note_on,1,0,0,,10,,,69,127
42520,note_on,0,0,0,,0,,,72,127
42577,note_off,57,0,0,,5,,,53,127
42578,note_on,1,0,0,,0,,,48,127
42582,note_off,4,0,0,,0,,,72,127
42582,note_off,0,0,0,,10,,,69,127
42583,note_on,1,0,0,,11,,,70,127
42583,note_on,0,0,0,,2,,,74,127
42645,note_off,62,0,0,,2,,,74,127
42645,note_off,0,0,0,,11,,,70,127
42646,note_on,1,0,0,,10,,,69,127
42646,note_on,0,0,0,,0,,,72,127
42708,note_off,62,0,0,,0,,,72,127
42708,note_off,0,0,0,,10,,,69,127
42709,note_on,1,0,0,,11,,,70,127
42709,note_on,0,0,0,,2,,,74,127
42723,note_off,14,0,0,,0,,,48,127
42724,note_on,1,0,0,,5,,,53,127
42770,note_off,46,0,0,,2,,,74,127
42770,note_off,0,0,0,,11,,,70,127
42771,note_on,1,0,0,,10,,,69,127
42771,note_on,0,0,0,,0,,,72,127
42833,note_off,62,0,0,,0,,,72,127
42833,note_off,0,0,0,,10,,,69,127
42834,note_on,1,0,0,,11,,,70,127
42834,note_on,0,0,0,,2,,,74,127
42868,note_off,34,0,0,,5,,,53,127
42869,note_on,1,0,0,,0,,,48,127
42895,note_off,26,0,0,,2,,,74,127
42895,note_off,0,0,0,,11,,,70,127
42896,note_on,1,0,0,,10,,,69,127
42896,note_on,0,0,0,,0,,,72,127
42958,note_off,62,0,0,,0,,,72,127
42958,note_off,0,0,0,,10,,,69,127
42959,note_on,1,0,0,,11,,,70,127
42959,note_on,0,0,0,,2,,,74,127
43013,note_off,54,0,0,,0,,,48,127
43014,note_on,1,0,0,,0,,,72,127
43014,note_on,0,0,0,,10,,,69,127
43014,note_on,0,0,0,,10,,,45,127
43020,note_off,6,0,0,,2,,,74,127
43020,note_off,0,0,0,,11,,,70,127
43076,note_off,56,0,0,,10,,,69,127
43076,note_off,0,0,0,,0,,,72,127
43077,note_on,1,0,0,,2,,,74,127
43077,note_on,0,0,0,,11,,,70,127
43139,note_off,62,0,0,,11,,,70,127
43139,note_off,0,0,0,,2,,,74,127
43140,note_on,1,0,0,,0,,,72,127
43140,note_on,0,0,0,,10,,,69,127
43159,note_off,19,0,0,,10,,,45,127
43160,note_on,1,0,0,,0,,,48,127
43202,note_off,42,0,0,,10,,,69,127
43202,note_off,0,0,0,,0,,,72,127
43203,note_on,1,0,0,,2,,,74,127
43203,note_on,0,0,0,,11,,,70,127
43265,note_off,62,0,0,,11,,,70,127
43265,note_off,0,0,0,,2,,,74,127
43266,note_on,1,0,0,,10,,,69,127
43266,note_on,0,0,0,,0,,,72,127
43304,note_off,38,0,0,,0,,,48,127
43305,note_on,1,0,0,,10,,,45,127
43448,note_off,143,0,0,,10,,,45,127
43449,note_on,1,0,0,,5,,,41,127
43581,note_off,132,0,0,,0,,,72,127
43581,note_off,0,0,0,,10,,,69,127
43593,note_on,12,0,0,,10,,,69,127
43593,note_on,0,0,0,,5,,,77,127
43736,note_off,143,0,0,,5,,,77,127
43736,note_off,0,0,0,,10,,,69,127
43737,note_on,1,0,0,,4,,,76,127
43737,note_on,0,0,0,,7,,,67,127
43880,note_off,143,0,0,,7,,,67,127
43880,note_off,0,0,0,,4,,,76,127
43880,note_off,0,0,0,,5,,,41,127
43881,note_on,1,0,0,,5,,,65,127
43881,note_on,0,0,0,,2,,,74,127
43881,note_on,0,0,0,,11,,,46,127
44024,note_off,143,0,0,,2,,,74,127
44024,note_off,0,0,0,,5,,,65,127
44025,note_on,1,0,0,,4,,,64,127
44025,note_on,0,0,0,,0,,,72,127
44168,note_off,143,0,0,,0,,,72,127
44168,note_off,0,0,0,,4,,,64,127
44169,note_on,1,0,0,,11,,,70,127
44169,note_on,0,0,0,,2,,,62,127
44312,note_off,143,0,0,,2,,,62,127
44312,note_off,0,0,0,,11,,,70,127
44312,note_off,0,0,0,,11,,,46,127
44313,note_on,1,0,0,,2,,,62,127
44313,note_on,0,0,0,,11,,,70,127
44313,note_on,0,0,0,,0,,,48,127
44456,note_off,143,0,0,,11,,,70,127
44456,note_off,0,0,0,,2,,,62,127
44457,note_on,1,0,0,,10,,,69,127
44457,note_on,0,0,0,,0,,,60,127
44600,note_off,143,0,0,,0,,,60,127
44600,note_off,0,0,0,,10,,,69,127
44601,note_on,1,0,0,,7,,,67,127
44601,note_on,0,0,0,,11,,,58,127
44744,note_off,143,0,0,,11,,,58,127
44744,note_off,0,0,0,,7,,,67,127
44744,note_off,0,0,0,,0,,,48,127
44745,note_on,1,0,0,,5,,,65,127
44745,note_on,0,0,0,,10,,,57,127
44745,note_on,0,0,0,,5,,,41,127
45030,note_off,285,0,0,,5,,,65,127
45150,note_off,120,0,0,,10,,,57,127
45176,note_off,26,0,0,,5,,,41,127
45177,note_on,1,0,0,,11,,,82,127
45177,note_on,0,0,0,,0,,,72,127
45177,note_on,0,0,0,,5,,,65,127
45248,note_off,71,0,0,,11,,,82,127
45249,note_on,1,0,0,,8,,,80,127
45320,note_off,71,0,0,,8,,,80,127
45321,note_on,1,0,0,,7,,,79,127
45464,note_off,143,0,0,,7,,,79,127
45465,note_on,1,0,0,,8,,,80,127
45608,note_off,143,0,0,,8,,,80,127
45608,note_off,0,0,0,,5,,,65,127
45608,note_off,0,0,0,,0,,,72,127
45609,note_on,1,0,0,,11,,,82,127
45609,note_on,0,0,0,,5,,,65,127
45609,note_on,0,0,0,,1,,,73,127
45752,note_off,143,0,0,,11,,,82,127
45753,note_on,1,0,0,,0,,,84,127
45896,note_off,143,0,0,,0,,,84,127
45897,note_on,1,0,0,,1,,,85,127
46040,note_off,143,0,0,,1,,,85,127
46040,note_off,0,0,0,,1,,,73,127
46040,note_off,0,0,0,,5,,,65,127
46041,note_on,1,0,0,,1,,,85,127
46041,note_on,0,0,0,,4,,,76,127
46041,note_on,0,0,0,,5,,,65,127
46184,note_off,143,0,0,,1,,,85,127
46185,note_on,1,0,0,,0,,,84,127
46328,note_off,143,0,0,,0,,,84,127
46329,note_on,1,0,0,,7,,,79,127
46472,note_off,143,0,0,,7,,,79,127
46472,note_off,0,0,0,,5,,,65,127
46472,note_off,0,0,0,,4,,,76,127
46473,note_on,1,0,0,,11,,,82,127
46473,note_on,0,0,0,,5,,,65,127
46473,note_on,0,0,0,,5,,,77,127
46544,note_off,71,0,0,,11,,,82,127
46545,note_on,1,0,0,,8,,,80,127
46616,note_off,71,0,0,,8,,,80,127
46617,note_on,1,0,0,,7,,,79,127
46758,note_off,141,0,0,,5,,,77,127
46760,note_off,2,0,0,,7,,,79,127
46761,note_on,1,0,0,,5,,,77,127
46904,note_off,143,0,0,,5,,,77,127
46904,note_off,0,0,0,,5,,,65,127
46905,note_on,1,0,0,,11,,,82,127
46905,note_on,0,0,0,,0,,,72,127
46905,note_on,0,0,0,,5,,,65,127
46976,note_off,71,0,0,,11,,,82,127
46977,note_on,1,0,0,,8,,,80,127
47048,note_off,71,0,0,,8,,,80,127
47049,note_on,1,0,0,,7,,,79,127
47192,note_off,143,0,0,,7,,,79,127
47193,note_on,1,0,0,,8,,,80,127
47336,note_off,143,0,0,,8,,,80,127
47336,note_off,0,0,0,,5,,,65,127
47336,note_off,0,0,0,,0,,,72,127
47337,note_on,1,0,0,,11,,,82,127
47337,note_on,0,0,0,,5,,,65,127
47337,note_on,0,0,0,,1,,,73,127
47480,note_off,143,0,0,,11,,,82,127
47481,note_on,1,0,0,,0,,,84,127
47624,note_off,143,0,0,,0,,,84,127
47625,note_on,1,0,0,,1,,,85,127
47768,note_off,143,0,0,,1,,,85,127
47768,note_off,0,0,0,,1,,,73,127
47768,note_off,0,0,0,,5,,,65,127
47769,note_on,1,0,0,,1,,,85,127
47769,note_on,0,0,0,,4,,,76,127
47769,note_on,0,0,0,,5,,,65,127
47912,note_off,143,0,0,,1,,,85,127
47913,note_on,1,0,0,,0,,,84,127
48056,note_off,143,0,0,,0,,,84,127
48057,note_on,1,0,0,,7,,,79,127
48200,note_off,143,0,0,,7,,,79,127
48200,note_off,0,0,0,,5,,,65,127
48200,note_off,0,0,0,,4,,,76,127
48201,note_on,1,0,0,,8,,,80,127
48201,note_on,0,0,0,,5,,,77,127
48201,note_on,0,0,0,,5,,,65,127
48344,note_off,143,0,0,,8,,,80,127
48345,note_on,1,0,0,,0,,,84,127
48488,note_off,143,0,0,,0,,,84,127
48488,note_off,0,0,0,,5,,,65,127
48488,note_off,0,0,0,,5,,,77,127
48489,note_on,1,0,0,,4,,,76,127
48489,note_on,0,0,0,,7,,,67,127
48632,note_off,143,0,0,,7,,,67,127
48632,note_off,0,0,0,,4,,,76,127
48633,note_on,1,0,0,,5,,,77,127
48633,note_on,0,0,0,,8,,,68,127
48776,note_off,143,0,0,,5,,,77,127
48777,note_on,1,0,0,,8,,,80,127
48920,note_off,143,0,0,,8,,,68,127
48921,note_on,1,0,0,,0,,,72,127
48921,note_on,0,0,0,,5,,,65,127
48957,note_off,36,0,0,,8,,,80,127
49064,note_off,107,0,0,,5,,,65,127
49064,note_off,0,0,0,,0,,,72,127
49065,note_on,1,0,0,,1,,,73,127
49065,note_on,0,0,0,,11,,,70,127
49208,note_off,143,0,0,,1,,,73,127
49209,note_on,1,0,0,,7,,,79,127
49352,note_off,143,0,0,,7,,,79,127
49352,note_off,0,0,0,,11,,,70,127
49353,note_on,1,0,0,,5,,,77,127
49353,note_on,0,0,0,,8,,,68,127
49496,note_off,143,0,0,,8,,,68,127
49496,note_off,0,0,0,,5,,,77,127
49497,note_on,1,0,0,,4,,,76,127
49497,note_on,0,0,0,,7,,,67,127
49640,note_off,143,0,0,,4,,,76,127
49641,note_on,1,0,0,,7,,,79,127
49712,note_off,71,0,0,,7,,,79,127
49713,note_on,1,0,0,,5,,,77,127
49784,note_off,71,0,0,,5,,,77,127
49784,note_off,0,0,0,,7,,,67,127
49785,note_on,1,0,0,,4,,,76,127
49785,note_on,0,0,0,,5,,,65,127
49856,note_off,71,0,0,,4,,,76,127
49857,note_on,1,0,0,,5,,,77,127
49928,note_off,71,0,0,,5,,,77,127
49928,note_off,0,0,0,,5,,,65,127
49929,note_on,1,0,0,,7,,,79,127
49929,note_on,0,0,0,,0,,,60,127
50072,note_off,143,0,0,,7,,,79,127
50073,note_on,1,0,0,,0,,,84,127
50216,note_off,143,0,0,,0,,,84,127
50217,note_on,1,0,0,,4,,,76,127
50360,note_off,143,0,0,,4,,,76,127
50360,note_off,0,0,0,,0,,,60,127
50361,note_on,1,0,0,,5,,,77,127
50361,note_on,0,0,0,,8,,,68,127
50504,note_off,143,0,0,,5,,,77,127
50505,note_on,1,0,0,,8,,,80,127
50648,note_off,143,0,0,,8,,,68,127
50649,note_on,1,0,0,,0,,,72,127
50649,note_on,0,0,0,,5,,,65,127
50685,note_off,36,0,0,,8,,,80,127
50792,note_off,107,0,0,,5,,,65,127
50792,note_off,0,0,0,,0,,,72,127
50793,note_on,1,0,0,,1,,,73,127
50793,note_on,0,0,0,,11,,,70,127
50936,note_off,143,0,0,,1,,,73,127
50937,note_on,1,0,0,,7,,,79,127
51080,note_off,143,0,0,,7,,,79,127
51080,note_off,0,0,0,,11,,,70,127
51081,note_on,1,0,0,,5,,,77,127
51081,note_on,0,0,0,,8,,,68,127
51224,note_off,143,0,0,,8,,,68,127
51224,note_off,0,0,0,,5,,,77,127
51225,note_on,1,0,0,,4,,,76,127
51225,note_on,0,0,0,,7,,,67,127
51368,note_off,143,0,0,,4,,,76,127
51369,note_on,1,0,0,,7,,,79,127
51440,note_off,71,0,0,,7,,,79,127
51441,note_on,1,0,0,,5,,,77,127
51512,note_off,71,0,0,,5,,,77,127
51512,note_off,0,0,0,,7,,,67,127
51513,note_on,1,0,0,,4,,,76,127
51513,note_on,0,0,0,,5,,,65,127
51584,note_off,71,0,0,,4,,,76,127
51585,note_on,1,0,0,,5,,,77,127
51656,note_off,71,0,0,,5,,,77,127
51656,note_off,0,0,0,,5,,,65,127
51657,note_on,1,0,0,,7,,,79,127
51657,note_on,0,0,0,,0,,,60,127
52088,note_off,431,0,0,,0,,,60,127
52088,note_off,0,0,0,,7,,,79,127
52089,note_on,1,0,0,,2,,,74,127
52089,note_on,0,0,0,,11,,,70,127
52089,note_on,0,0,0,,5,,,65,127
52150,note_off,61,0,0,,11,,,70,127
52150,note_off,0,0,0,,2,,,74,127
52151,note_on,1,0,0,,0,,,72,127
52151,note_on,0,0,0,,10,,,69,127
52213,note_off,62,0,0,,10,,,69,127
52213,note_off,0,0,0,,0,,,72,127
52214,note_on,1,0,0,,2,,,74,127
52214,note_on,0,0,0,,11,,,70,127
52234,note_off,20,0,0,,5,,,65,127
52235,note_on,1,0,0,,0,,,60,127
52276,note_off,41,0,0,,11,,,70,127
52276,note_off,0,0,0,,2,,,74,127
52277,note_on,1,0,0,,0,,,72,127
52277,note_on,0,0,0,,10,,,69,127
52339,note_off,62,0,0,,10,,,69,127
52339,note_off,0,0,0,,0,,,72,127
52340,note_on,1,0,0,,2,,,74,127
52340,note_on,0,0,0,,11,,,70,127
52379,note_off,39,0,0,,0,,,60,127
52380,note_on,1,0,0,,10,,,57,127
52401,note_off,21,0,0,,11,,,70,127
52401,note_off,0,0,0,,2,,,74,127
52402,note_on,1,0,0,,0,,,72,127
52402,note_on,0,0,0,,10,,,69,127
52464,note_off,62,0,0,,10,,,69,127
52464,note_off,0,0,0,,0,,,72,127
52465,note_on,1,0,0,,11,,,70,127
52465,note_on,0,0,0,,2,,,74,127
52524,note_off,59,0,0,,10,,,57,127
52525,note_on,1,0,0,,5,,,53,127
52527,note_off,2,0,0,,2,,,74,127
52527,note_off,0,0,0,,11,,,70,127
52528,note_on,1,0,0,,10,,,69,127
52528,note_on,0,0,0,,0,,,72,127
52590,note_off,62,0,0,,0,,,72,127
52590,note_off,0,0,0,,10,,,69,127
52591,note_on,1,0,0,,11,,,70,127
52591,note_on,0,0,0,,2,,,74,127
52652,note_off,61,0,0,,2,,,74,127
52652,note_off,0,0,0,,11,,,70,127
52653,note_on,1,0,0,,10,,,69,127
52653,note_on,0,0,0,,0,,,72,127
52670,note_off,17,0,0,,5,,,53,127
52671,note_on,1,0,0,,10,,,57,127
52715,note_off,44,0,0,,0,,,72,127
52715,note_off,0,0,0,,10,,,69,127
52716,note_on,1,0,0,,11,,,70,127
52716,note_on,0,0,0,,2,,,74,127
52778,note_off,62,0,0,,2,,,74,127
52778,note_off,0,0,0,,11,,,70,127
52779,note_on,1,0,0,,10,,,69,127
52779,note_on,0,0,0,,0,,,72,127
52816,note_off,37,0,0,,10,,,57,127
52817,note_on,1,0,0,,5,,,53,127
52841,note_off,24,0,0,,0,,,72,127
52841,note_off,0,0,0,,10,,,69,127
52842,note_on,1,0,0,,11,,,70,127
52842,note_on,0,0,0,,2,,,74,127
52903,note_off,61,0,0,,2,,,74,127
52903,note_off,0,0,0,,11,,,70,127
52904,note_on,1,0,0,,10,,,69,127
52904,note_on,0,0,0,,0,,,72,127
52961,note_off,57,0,0,,5,,,53,127
52962,note_on,1,0,0,,0,,,48,127
52966,note_off,4,0,0,,0,,,72,127
52966,note_off,0,0,0,,10,,,69,127
52967,note_on,1,0,0,,11,,,70,127
52967,note_on,0,0,0,,2,,,74,127
53029,note_off,62,0,0,,2,,,74,127
53029,note_off,0,0,0,,11,,,70,127
53030,note_on,1,0,0,,10,,,69,127
53030,note_on,0,0,0,,0,,,72,127
53092,note_off,62,0,0,,0,,,72,127
53092,note_off,0,0,0,,10,,,69,127
53093,note_on,1,0,0,,11,,,70,127
53093,note_on,0,0,0,,2,,,74,127
53107,note_off,14,0,0,,0,,,48,127
53108,note_on,1,0,0,,5,,,53,127
53154,note_off,46,0,0,,2,,,74,127
53154,note_off,0,0,0,,11,,,70,127
53155,note_on,1,0,0,,10,,,69,127
53155,note_on,0,0,0,,0,,,72,127
53217,note_off,62,0,0,,0,,,72,127
53217,note_off,0,0,0,,10,,,69,127
53218,note_on,1,0,0,,11,,,70,127
53218,note_on,0,0,0,,2,,,74,127
53252,note_off,34,0,0,,5,,,53,127
53253,note_on,1,0,0,,0,,,48,127
53279,note_off,26,0,0,,2,,,74,127
53279,note_off,0,0,0,,11,,,70,127
53280,note_on,1,0,0,,10,,,69,127
53280,note_on,0,0,0,,0,,,72,127
53342,note_off,62,0,0,,0,,,72,127
53342,note_off,0,0,0,,10,,,69,127
53343,note_on,1,0,0,,11,,,70,127
53343,note_on,0,0,0,,2,,,74,127
53397,note_off,54,0,0,,0,,,48,127
53398,note_on,1,0,0,,10,,,69,127
53398,note_on,0,0,0,,0,,,72,127
53398,note_on,0,0,0,,10,,,45,127
53404,note_off,6,0,0,,2,,,74,127
53404,note_off,0,0,0,,11,,,70,127
53460,note_off,56,0,0,,0,,,72,127
53460,note_off,0,0,0,,10,,,69,127
53461,note_on,1,0,0,,11,,,70,127
53461,note_on,0,0,0,,2,,,74,127
53523,note_off,62,0,0,,2,,,74,127
53523,note_off,0,0,0,,11,,,70,127
53524,note_on,1,0,0,,10,,,69,127
53524,note_on,0,0,0,,0,,,72,127
53543,note_off,19,0,0,,10,,,45,127
53544,note_on,1,0,0,,0,,,48,127
53586,note_off,42,0,0,,0,,,72,127
53586,note_off,0,0,0,,10,,,69,127
53587,note_on,1,0,0,,11,,,70,127
53587,note_on,0,0,0,,2,,,74,127
53649,note_off,62,0,0,,2,,,74,127
53649,note_off,0,0,0,,11,,,70,127
53650,note_on,1,0,0,,0,,,72,127
53650,note_on,0,0,0,,10,,,69,127
53688,note_off,38,0,0,,0,,,48,127
53689,note_on,1,0,0,,10,,,45,127
53832,note_off,143,0,0,,10,,,45,127
53833,note_on,1,0,0,,5,,,41,127
53965,note_off,132,0,0,,10,,,69,127
53965,note_off,0,0,0,,0,,,72,127
53977,note_on,12,0,0,,10,,,69,127
53977,note_on,0,0,0,,5,,,77,127
54120,note_off,143,0,0,,5,,,77,127
54120,note_off,0,0,0,,10,,,69,127
54121,note_on,1,0,0,,7,,,67,127
54121,note_on,0,0,0,,4,,,76,127
54264,note_off,143,0,0,,4,,,76,127
54264,note_off,0,0,0,,7,,,67,127
54264,note_off,0,0,0,,5,,,41,127
54265,note_on,1,0,0,,2,,,74,127
54265,note_on,0,0,0,,5,,,65,127
54265,note_on,0,0,0,,11,,,46,127
54408,note_off,143,0,0,,5,,,65,127
54408,note_off,0,0,0,,2,,,74,127
54409,note_on,1,0,0,,4,,,64,127
54409,note_on,0,0,0,,0,,,72,127
54552,note_off,143,0,0,,0,,,72,127
54552,note_off,0,0,0,,4,,,64,127
54553,note_on,1,0,0,,11,,,70,127
54553,note_on,0,0,0,,2,,,62,127
54696,note_off,143,0,0,,2,,,62,127
54696,note_off,0,0,0,,11,,,70,127
54696,note_off,0,0,0,,11,,,46,127
54697,note_on,1,0,0,,2,,,62,127
54697,note_on,0,0,0,,11,,,70,127
54697,note_on,0,0,0,,0,,,48,127
54840,note_off,143,0,0,,11,,,70,127
54840,note_off,0,0,0,,2,,,62,127
54841,note_on,1,0,0,,0,,,60,127
54841,note_on,0,0,0,,10,,,69,127
54984,note_off,143,0,0,,10,,,69,127
54984,note_off,0,0,0,,0,,,60,127
54985,note_on,1,0,0,,11,,,58,127
54985,note_on,0,0,0,,7,,,67,127
55128,note_off,143,0,0,,7,,,67,127
55128,note_off,0,0,0,,11,,,58,127
55128,note_off,0,0,0,,0,,,48,127
55129,note_on,1,0,0,,5,,,65,127
55129,note_on,0,0,0,,10,,,57,127
55129,note_on,0,0,0,,5,,,41,127
55560,note_off,431,0,0,,5,,,41,127
55560,note_off,0,0,0,,10,,,57,127
55560,note_off,0,0,0,,5,,,65,127
55561,note_on,1,0,0,,11,,,70,127
55561,note_on,0,0,0,,2,,,74,127
55561,note_on,0,0,0,,5,,,65,127
55622,note_off,61,0,0,,2,,,74,127
55622,note_off,0,0,0,,11,,,70,127
55623,note_on,1,0,0,,10,,,69,127
55623,note_on,0,0,0,,0,,,72,127
55685,note_off,62,0,0,,0,,,72,127
55685,note_off,0,0,0,,10,,,69,127
55686,note_on,1,0,0,,11,,,70,127
55686,note_on,0,0,0,,2,,,74,127
55706,note_off,20,0,0,,5,,,65,127
55707,note_on,1,0,0,,0,,,60,127
55748,note_off,41,0,0,,2,,,74,127
55748,note_off,0,0,0,,11,,,70,127
55749,note_on,1,0,0,,10,,,69,127
55749,note_on,0,0,0,,0,,,72,127
55811,note_off,62,0,0,,0,,,72,127
55811,note_off,0,0,0,,10,,,69,127
55812,note_on,1,0,0,,11,,,70,127
55812,note_on,0,0,0,,2,,,74,127
55851,note_off,39,0,0,,0,,,60,127
55852,note_on,1,0,0,,10,,,57,127
55873,note_off,21,0,0,,2,,,74,127
55873,note_off,0,0,0,,11,,,70,127
55874,note_on,1,0,0,,10,,,69,127
55874,note_on,0,0,0,,0,,,72,127
55936,note_off,62,0,0,,0,,,72,127
55936,note_off,0,0,0,,10,,,69,127
55937,note_on,1,0,0,,11,,,70,127
55937,note_on,0,0,0,,2,,,74,127
55996,note_off,59,0,0,,10,,,57,127
55997,note_on,1,0,0,,5,,,53,127
55999,note_off,2,0,0,,2,,,74,127
55999,note_off,0,0,0,,11,,,70,127
56000,note_on,1,0,0,,10,,,69,127
56000,note_on,0,0,0,,0,,,72,127
56062,note_off,62,0,0,,0,,,72,127
56062,note_off,0,0,0,,10,,,69,127
56063,note_on,1,0,0,,11,,,70,127
56063,note_on,0,0,0,,2,,,74,127
56124,note_off,61,0,0,,2,,,74,127
56124,note_off,0,0,0,,11,,,70,127
56125,note_on,1,0,0,,10,,,69,127
56125,note_on,0,0,0,,0,,,72,127
56142,note_off,17,0,0,,5,,,53,127
56143,note_on,1,0,0,,10,,,57,127
56187,note_off,44,0,0,,0,,,72,127
56187,note_off,0,0,0,,10,,,69,127
56188,note_on,1,0,0,,11,,,70,127
56188,note_on,0,0,0,,2,,,74,127
56250,note_off,62,0,0,,2,,,74,127
56250,note_off,0,0,0,,11,,,70,127
56251,note_on,1,0,0,,10,,,69,127
56251,note_on,0,0,0,,0,,,72,127
56288,note_off,37,0,0,,10,,,57,127
56289,note_on,1,0,0,,5,,,53,127
56313,note_off,24,0,0,,0,,,72,127
56313,note_off,0,0,0,,10,,,69,127
56314,note_on,1,0,0,,11,,,70,127
56314,note_on,0,0,0,,2,,,74,127
56375,note_off,61,0,0,,2,,,74,127
56375,note_off,0,0,0,,11,,,70,127
56376,note_on,1,0,0,,10,,,69,127
56376,note_on,0,0,0,,0,,,72,127
56433,note_off,57,0,0,,5,,,53,127
56434,note_on,1,0,0,,0,,,48,127
56438,note_off,4,0,0,,0,,,72,127
56438,note_off,0,0,0,,10,,,69,127
56439,note_on,1,0,0,,11,,,70,127
56439,note_on,0,0,0,,2,,,74,127
56501,note_off,62,0,0,,2,,,74,127
56501,note_off,0,0,0,,11,,,70,127
56502,note_on,1,0,0,,10,,,69,127
56502,note_on,0,0,0,,0,,,72,127
56564,note_off,62,0,0,,0,,,72,127
56564,note_off,0,0,0,,10,,,69,127
56565,note_on,1,0,0,,11,,,70,127
56565,note_on,0,0,0,,2,,,74,127
56579,note_off,14,0,0,,0,,,48,127
56580,note_on,1,0,0,,5,,,53,127
56626,note_off,46,0,0,,2,,,74,127
56626,note_off,0,0,0,,11,,,70,127
56627,note_on,1,0,0,,10,,,69,127
56627,note_on,0,0,0,,0,,,72,127
56689,note_off,62,0,0,,0,,,72,127
56689,note_off,0,0,0,,10,,,69,127
56690,note_on,1,0,0,,11,,,70,127
56690,note_on,0,0,0,,2,,,74,127
56724,note_off,34,0,0,,5,,,53,127
56725,note_on,1,0,0,,0,,,48,127
56751,note_off,26,0,0,,2,,,74,127
56751,note_off,0,0,0,,11,,,70,127
56752,note_on,1,0,0,,10,,,69,127
56752,note_on,0,0,0,,0,,,72,127
56814,note_off,62,0,0,,0,,,72,127
56814,note_off,0,0,0,,10,,,69,127
56815,note_on,1,0,0,,11,,,70,127
56815,note_on,0,0,0,,2,,,74,127
56869,note_off,54,0,0,,0,,,48,127
56870,note_on,1,0,0,,0,,,72,127
56870,note_on,0,0,0,,10,,,69,127
56870,note_on,0,0,0,,10,,,45,127
56876,note_off,6,0,0,,2,,,74,127
56876,note_off,0,0,0,,11,,,70,127
56932,note_off,56,0,0,,10,,,69,127
56932,note_off,0,0,0,,0,,,72,127
56933,note_on,1,0,0,,2,,,74,127
56933,note_on,0,0,0,,11,,,70,127
56995,note_off,62,0,0,,11,,,70,127
56995,note_off,0,0,0,,2,,,74,127
56996,note_on,1,0,0,,0,,,72,127
56996,note_on,0,0,0,,10,,,69,127
57015,note_off,19,0,0,,10,,,45,127
57016,note_on,1,0,0,,0,,,48,127
57058,note_off,42,0,0,,10,,,69,127
57058,note_off,0,0,0,,0,,,72,127
57059,note_on,1,0,0,,2,,,74,127
57059,note_on,0,0,0,,11,,,70,127
57121,note_off,62,0,0,,11,,,70,127
57121,note_off,0,0,0,,2,,,74,127
57122,note_on,1,0,0,,10,,,69,127
57122,note_on,0,0,0,,0,,,72,127
57160,note_off,38,0,0,,0,,,48,127
57161,note_on,1,0,0,,10,,,45,127
57304,note_off,143,0,0,,10,,,45,127
57305,note_on,1,0,0,,5,,,41,127
57437,note_off,132,0,0,,0,,,72,127
57437,note_off,0,0,0,,10,,,69,127
57449,note_on,12,0,0,,5,,,77,127
57449,note_on,0,0,0,,10,,,69,127
57592,note_off,143,0,0,,10,,,69,127
57592,note_off,0,0,0,,5,,,77,127
57593,note_on,1,0,0,,4,,,76,127
57593,note_on,0,0,0,,7,,,67,127
57736,note_off,143,0,0,,7,,,67,127
57736,note_off,0,0,0,,4,,,76,127
57736,note_off,0,0,0,,5,,,41,127
57737,note_on,1,0,0,,5,,,65,127
57737,note_on,0,0,0,,2,,,74,127
57737,note_on,0,0,0,,11,,,46,127
57880,note_off,143,0,0,,2,,,74,127
57880,note_off,0,0,0,,5,,,65,127
57881,note_on,1,0,0,,0,,,72,127
57881,note_on,0,0,0,,4,,,64,127
58024,note_off,143,0,0,,4,,,64,127
58024,note_off,0,0,0,,0,,,72,127
58025,note_on,1,0,0,,2,,,62,127
58025,note_on,0,0,0,,11,,,70,127
58168,note_off,143,0,0,,11,,,70,127
58168,note_off,0,0,0,,2,,,62,127
58168,note_off,0,0,0,,11,,,46,127
58169,note_on,1,0,0,,2,,,62,127
58169,note_on,0,0,0,,11,,,70,127
58169,note_on,0,0,0,,0,,,48,127
58312,note_off,143,0,0,,11,,,70,127
58312,note_off,0,0,0,,2,,,62,127
58313,note_on,1,0,0,,0,,,60,127
58313,note_on,0,0,0,,10,,,69,127
58456,note_off,143,0,0,,10,,,69,127
58456,note_off,0,0,0,,0,,,60,127
58457,note_on,1,0,0,,7,,,67,127
58457,note_on,0,0,0,,11,,,58,127
58600,note_off,143,0,0,,11,,,58,127
58600,note_off,0,0,0,,7,,,67,127
58600,note_off,0,0,0,,0,,,48,127
58601,note_on,1,0,0,,10,,,57,127
58601,note_on,0,0,0,,5,,,65,127
58601,note_on,0,0,0,,5,,,41,127
59032,note_off,431,0,0,,5,,,41,127
59032,note_off,0,0,0,,5,,,65,127
59032,note_off,0,0,0,,10,,,57,127
59033,note_on,1,0,0,,5,,,77,127
59033,note_on,0,0,0,,2,,,74,127
59176,note_off,143,0,0,,5,,,77,127
59177,note_on,1,0,0,,7,,,79,127
59318,note_off,141,0,0,,2,,,74,127
59320,note_off,2,0,0,,7,,,79,127
59321,note_on,1,0,0,,2,,,74,127
59464,note_off,143,0,0,,2,,,74,127
59465,note_on,1,0,0,,4,,,76,127
59465,note_on,0,0,0,,0,,,72,127
59608,note_off,143,0,0,,4,,,76,127
59609,note_on,1,0,0,,5,,,77,127
59750,note_off,141,0,0,,0,,,72,127
59752,note_off,2,0,0,,5,,,77,127
59753,note_on,1,0,0,,0,,,72,127
59896,note_off,143,0,0,,0,,,72,127
59897,note_on,1,0,0,,2,,,74,127
59897,note_on,0,0,0,,11,,,70,127
60040,note_off,143,0,0,,2,,,74,127
60041,note_on,1,0,0,,4,,,76,127
60182,note_off,141,0,0,,11,,,70,127
60184,note_off,2,0,0,,4,,,76,127
60185,note_on,1,0,0,,11,,,70,127
60328,note_off,143,0,0,,11,,,70,127
60329,note_on,1,0,0,,0,,,72,127
60329,note_on,0,0,0,,10,,,69,127
60472,note_off,143,0,0,,0,,,72,127
60473,note_on,1,0,0,,2,,,74,127
60614,note_off,141,0,0,,10,,,69,127
60616,note_off,2,0,0,,2,,,74,127
60617,note_on,1,0,0,,10,,,69,127
60760,note_off,143,0,0,,10,,,69,127
60761,note_on,1,0,0,,11,,,70,127
60761,note_on,0,0,0,,7,,,67,127
60904,note_off,143,0,0,,11,,,70,127
60905,note_on,1,0,0,,0,,,72,127
61046,note_off,141,0,0,,7,,,67,127
61048,note_off,2,0,0,,0,,,72,127
61049,note_on,1,0,0,,7,,,67,127
61192,note_off,143,0,0,,7,,,67,127
61193,note_on,1,0,0,,11,,,70,127
61193,note_on,0,0,0,,5,,,65,127
61264,note_off,71,0,0,,11,,,70,127
61265,note_on,1,0,0,,10,,,69,127
61336,note_off,71,0,0,,10,,,69,127
61337,note_on,1,0,0,,7,,,67,127
61478,note_off,141,0,0,,5,,,65,127
61480,note_off,2,0,0,,7,,,67,127
61481,note_on,1,0,0,,5,,,65,127
61624,note_off,143,0,0,,5,,,65,127
61625,note_on,1,0,0,,5,,,77,127
61625,note_on,0,0,0,,2,,,74,127
61768,note_off,143,0,0,,5,,,77,127
61769,note_on,1,0,0,,7,,,79,127
61910,note_off,141,0,0,,2,,,74,127
61912,note_off,2,0,0,,7,,,79,127
61913,note_on,1,0,0,,2,,,74,127
62056,note_off,143,0,0,,2,,,74,127
62057,note_on,1,0,0,,4,,,76,127
62057,note_on,0,0,0,,0,,,72,127
62200,note_off,143,0,0,,4,,,76,127
62201,note_on,1,0,0,,5,,,77,127
62342,note_off,141,0,0,,0,,,72,127
62344,note_off,2,0,0,,5,,,77,127
62345,note_on,1,0,0,,0,,,72,127
62488,note_off,143,0,0,,0,,,72,127
62489,note_on,1,0,0,,2,,,74,127
62489,note_on,0,0,0,,11,,,70,127
62632,note_off,143,0,0,,2,,,74,127
62633,note_on,1,0,0,,4,,,76,127
62774,note_off,141,0,0,,11,,,70,127
62776,note_off,2,0,0,,4,,,76,127
62777,note_on,1,0,0,,11,,,70,127
62920,note_off,143,0,0,,11,,,70,127
62921,note_on,1,0,0,,0,,,72,127
62921,note_on,0,0,0,,10,,,69,127
63064,note_off,143,0,0,,0,,,72,127
63065,note_on,1,0,0,,2,,,74,127
63206,note_off,141,0,0,,10,,,69,127
63208,note_off,2,0,0,,2,,,74,127
63209,note_on,1,0,0,,10,,,69,127
63352,note_off,143,0,0,,10,,,69,127
63353,note_on,1,0,0,,11,,,70,127
63353,note_on,0,0,0,,7,,,67,127
63496,note_off,143,0,0,,11,,,70,127
63497,note_on,1,0,0,,0,,,72,127
63638,note_off,141,0,0,,7,,,67,127
63640,note_off,2,0,0,,0,,,72,127
63641,note_on,1,0,0,,7,,,67,127
63784,note_off,143,0,0,,7,,,67,127
63785,note_on,1,0,0,,11,,,70,127
63785,note_on,0,0,0,,5,,,65,127
63856,note_off,71,0,0,,11,,,70,127
63857,note_on,1,0,0,,10,,,69,127
63928,note_off,71,0,0,,10,,,69,127
63929,note_on,1,0,0,,7,,,67,127
64070,note_off,141,0,0,,5,,,65,127
64072,note_off,2,0,0,,7,,,67,127
64073,note_on,1,0,0,,5,,,65,127
64193,note_off,120,0,0,,5,,,65,127
64217,note_on,24,0,0,,0,,,84,127
64361,note_on,144,0,0,,10,,,69,127
64504,note_off,143,0,0,,10,,,69,127
64505,note_on,1,0,0,,11,,,70,127
64648,note_off,143,0,0,,11,,,70,127
64649,note_on,1,0,0,,0,,,72,127
64792,note_off,143,0,0,,0,,,84,127
64793,note_on,1,0,0,,1,,,85,127
64936,note_off,143,0,0,,1,,,85,127
64937,note_on,1,0,0,,2,,,86,127
65080,note_off,143,0,0,,2,,,86,127
65081,note_on,1,0,0,,5,,,77,127
65224,note_off,143,0,0,,5,,,77,127
65225,note_on,1,0,0,,7,,,79,127
65368,note_off,143,0,0,,7,,,79,127
65369,note_off,1,0,0,,0,,,72,127
65369,note_on,0,0,0,,4,,,76,127
65512,note_off,143,0,0,,4,,,76,127
65513,note_on,1,0,0,,5,,,77,127
65513,note_on,0,0,0,,5,,,65,127
65584,note_off,71,0,0,,5,,,77,127
65585,note_on,1,0,0,,10,,,81,127
65656,note_off,71,0,0,,10,,,81,127
65657,note_on,1,0,0,,7,,,79,127
65728,note_off,71,0,0,,7,,,79,127
65729,note_on,1,0,0,,5,,,77,127
65800,note_off,71,0,0,,5,,,77,127
65801,note_on,1,0,0,,4,,,76,127
65872,note_off,71,0,0,,4,,,76,127
65873,note_on,1,0,0,,2,,,74,127
65944,note_off,71,0,0,,2,,,74,127
65945,note_on,1,0,0,,0,,,72,127
66088,note_off,143,0,0,,5,,,65,127
66089,note_on,1,0,0,,10,,,57,127
66232,note_off,143,0,0,,10,,,57,127
66233,note_on,1,0,0,,11,,,58,127
66376,note_off,143,0,0,,11,,,58,127
66377,note_on,1,0,0,,0,,,60,127
66520,note_off,143,0,0,,0,,,72,127
66521,note_on,1,0,0,,1,,,73,127
66664,note_off,143,0,0,,1,,,73,127
66665,note_on,1,0,0,,2,,,74,127
66808,note_off,143,0,0,,2,,,74,127
66809,note_on,1,0,0,,5,,,65,127
66952,note_off,143,0,0,,5,,,65,127
66953,note_on,1,0,0,,7,,,67,127
67096,note_off,143,0,0,,7,,,67,127
67097,note_off,1,0,0,,0,,,60,127
67097,note_on,0,0,0,,4,,,64,127
67240,note_off,143,0,0,,4,,,64,127
67241,note_on,1,0,0,,5,,,65,127
67241,note_on,0,0,0,,5,,,53,127
67312,note_off,71,0,0,,5,,,65,127
67313,note_on,1,0,0,,10,,,69,127
67384,note_off,71,0,0,,10,,,69,127
67385,note_on,1,0,0,,7,,,67,127
67456,note_off,71,0,0,,7,,,67,127
67457,note_on,1,0,0,,5,,,65,127
67528,note_off,71,0,0,,5,,,65,127
67529,note_on,1,0,0,,4,,,64,127
67600,note_off,71,0,0,,4,,,64,127
67601,note_on,1,0,0,,2,,,62,127
67672,note_off,71,0,0,,2,,,62,127
67673,note_on,1,0,0,,0,,,60,127
67816,note_off,143,0,0,,5,,,53,127
67817,note_on,1,0,0,,10,,,45,127
67960,note_off,143,0,0,,10,,,45,127
67961,note_on,1,0,0,,11,,,46,127
68104,note_off,143,0,0,,11,,,46,127
68105,note_on,1,0,0,,0,,,48,127
68248,note_off,143,0,0,,0,,,60,127
68249,note_on,1,0,0,,1,,,61,127
68392,note_off,143,0,0,,1,,,61,127
68393,note_on,1,0,0,,2,,,62,127
68536,note_off,143,0,0,,2,,,62,127
68537,note_on,1,0,0,,10,,,57,127
68680,note_off,143,0,0,,10,,,57,127
68681,note_on,1,0,0,,11,,,58,127
68824,note_off,143,0,0,,11,,,58,127
68825,note_on,1,0,0,,4,,,52,127
68968,note_off,143,0,0,,4,,,52,127
68968,note_off,0,0,0,,0,,,48,127
68969,note_on,1,0,0,,5,,,53,127
68969,note_on,0,0,0,,5,,,41,127
69544,note_off,575,0,0,,5,,,53,127
69832,note_off,288,0,0,,5,,,41,127
69833,note_on,1,0,0,,10,,,69,127
69833,note_on,0,0,0,,5,,,65,127
69977,note_on,144,0,0,,0,,,72,127
70120,note_off,143,0,0,,0,,,72,127
70121,note_on,1,0,0,,5,,,77,127
70264,note_off,143,0,0,,5,,,65,127
70264,note_off,0,0,0,,10,,,69,127
70265,note_on,1,0,0,,7,,,67,127
70265,note_on,0,0,0,,0,,,60,127
70408,note_off,143,0,0,,5,,,77,127
70409,note_on,1,0,0,,7,,,79,127
70552,note_off,143,0,0,,7,,,79,127
70553,note_on,1,0,0,,4,,,76,127
70696,note_off,143,0,0,,4,,,76,127
70696,note_off,0,0,0,,0,,,60,127
70696,note_off,0,0,0,,7,,,67,127
70697,note_on,1,0,0,,5,,,77,127
70697,note_on,0,0,0,,5,,,65,127
70697,note_on,0,0,0,,10,,,69,127
70840,note_off,143,0,0,,5,,,77,127
70841,note_on,1,0,0,,0,,,72,127
70984,note_off,143,0,0,,0,,,72,127
70985,note_on,1,0,0,,10,,,81,127
71128,note_off,143,0,0,,10,,,69,127
71128,note_off,0,0,0,,5,,,65,127
71129,note_on,1,0,0,,7,,,67,127
71129,note_on,0,0,0,,0,,,60,127
71272,note_off,143,0,0,,10,,,81,127
71273,note_on,1,0,0,,11,,,82,127
71416,note_off,143,0,0,,11,,,82,127
71417,note_on,1,0,0,,7,,,79,127
71560,note_off,143,0,0,,7,,,79,127
71560,note_off,0,0,0,,0,,,60,127
71560,note_off,0,0,0,,7,,,67,127
71561,note_on,1,0,0,,10,,,81,127
71561,note_on,0,0,0,,5,,,65,127
71561,note_on,0,0,0,,10,,,69,127
71704,note_off,143,0,0,,10,,,81,127
71705,note_on,1,0,0,,0,,,72,127
71848,note_off,143,0,0,,0,,,72,127
71849,note_on,1,0,0,,5,,,77,127
71992,note_off,143,0,0,,10,,,69,127
71992,note_off,0,0,0,,5,,,65,127
71993,note_on,1,0,0,,7,,,67,127
71993,note_on,0,0,0,,0,,,60,127
72136,note_off,143,0,0,,5,,,77,127
72137,note_on,1,0,0,,7,,,79,127
72280,note_off,143,0,0,,7,,,79,127
72281,note_on,1,0,0,,4,,,76,127
72424,note_off,143,0,0,,4,,,76,127
72424,note_off,0,0,0,,0,,,60,127
72424,note_off,0,0,0,,7,,,67,127
72425,note_on,1,0,0,,5,,,77,127
72425,note_on,0,0,0,,5,,,65,127
72425,note_on,0,0,0,,10,,,69,127
72568,note_off,143,0,0,,5,,,77,127
72569,note_on,1,0,0,,0,,,72,127
72712,note_off,143,0,0,,0,,,72,127
72713,note_on,1,0,0,,10,,,81,127
72856,note_off,143,0,0,,5,,,65,127
72857,note_on,1,0,0,,3,,,63,127
73000,note_off,143,0,0,,10,,,69,127
73001,note_on,1,0,0,,11,,,70,127
73144,note_off,143,0,0,,11,,,70,127
73144,note_off,0,0,0,,10,,,81,127
73145,note_on,1,0,0,,7,,,79,127
73145,note_on,0,0,0,,0,,,72,127
73288,note_off,143,0,0,,7,,,79,127
73288,note_off,0,0,0,,3,,,63,127
73289,note_on,1,0,0,,6,,,78,127
73289,note_on,0,0,0,,2,,,62,127
73432,note_off,143,0,0,,6,,,78,127
73433,note_on,1,0,0,,2,,,74,127
73576,note_off,143,0,0,,2,,,74,127
73576,note_off,0,0,0,,0,,,72,127
73577,note_on,1,0,0,,7,,,79,127
73577,note_on,0,0,0,,11,,,70,127
73720,note_off,143,0,0,,11,,,70,127
73720,note_off,0,0,0,,2,,,62,127
73721,note_on,1,0,0,,10,,,69,127
73721,note_on,0,0,0,,2,,,62,127
73864,note_off,143,0,0,,7,,,79,127
73865,note_on,1,0,0,,10,,,81,127
74008,note_off,143,0,0,,10,,,81,127
74009,note_on,1,0,0,,6,,,78,127
74152,note_off,143,0,0,,6,,,78,127
74152,note_off,0,0,0,,2,,,62,127
74152,note_off,0,0,0,,10,,,69,127
74153,note_on,1,0,0,,7,,,79,127
74153,note_on,0,0,0,,7,,,67,127
74153,note_on,0,0,0,,7,,,55,127
74296,note_off,143,0,0,,7,,,79,127
74297,note_on,1,0,0,,2,,,74,127
74440,note_off,143,0,0,,2,,,74,127
74441,note_on,1,0,0,,7,,,79,127
74584,note_off,143,0,0,,7,,,55,127
74584,note_off,0,0,0,,7,,,67,127
74585,note_on,1,0,0,,2,,,62,127
74585,note_on,0,0,0,,10,,,69,127
74728,note_off,143,0,0,,7,,,79,127
74729,note_on,1,0,0,,10,,,81,127
74872,note_off,143,0,0,,10,,,81,127
74873,note_on,1,0,0,,6,,,78,127
75016,note_off,143,0,0,,6,,,78,127
75016,note_off,0,0,0,,10,,,69,127
75016,note_off,0,0,0,,2,,,62,127
75017,note_on,1,0,0,,7,,,79,127
75017,note_on,0,0,0,,11,,,70,127
75017,note_on,0,0,0,,7,,,67,127
75160,note_off,143,0,0,,7,,,79,127
75161,note_on,1,0,0,,2,,,74,127
75304,note_off,143,0,0,,2,,,74,127
75305,note_on,1,0,0,,11,,,82,127
75448,note_off,143,0,0,,7,,,67,127
75448,note_off,0,0,0,,11,,,70,127
75449,note_on,1,0,0,,10,,,69,127
75449,note_on,0,0,0,,2,,,62,127
75592,note_off,143,0,0,,11,,,82,127
75593,note_on,1,0,0,,0,,,84,127
75736,note_off,143,0,0,,0,,,84,127
75737,note_on,1,0,0,,10,,,81,127
75880,note_off,143,0,0,,10,,,81,127
75880,note_off,0,0,0,,2,,,62,127
75880,note_off,0,0,0,,10,,,69,127
75881,note_on,1,0,0,,11,,,82,127
75881,note_on,0,0,0,,11,,,70,127
75881,note_on,0,0,0,,7,,,67,127
76024,note_off,143,0,0,,11,,,82,127
76025,note_on,1,0,0,,2,,,74,127
76168,note_off,143,0,0,,2,,,74,127
76169,note_on,1,0,0,,7,,,79,127
76312,note_off,143,0,0,,7,,,67,127
76312,note_off,0,0,0,,11,,,70,127
76313,note_on,1,0,0,,2,,,62,127
76313,note_on,0,0,0,,10,,,69,127
76456,note_off,143,0,0,,7,,,79,127
76457,note_on,1,0,0,,10,,,81,127
76600,note_off,143,0,0,,10,,,81,127
76601,note_on,1,0,0,,6,,,78,127
76744,note_off,143,0,0,,6,,,78,127
76744,note_off,0,0,0,,10,,,69,127
76744,note_off,0,0,0,,2,,,62,127
76745,note_on,1,0,0,,7,,,79,127
76745,note_on,0,0,0,,7,,,67,127
76745,note_on,0,0,0,,11,,,70,127
76888,note_off,143,0,0,,7,,,79,127
76889,note_on,1,0,0,,2,,,74,127
77032,note_off,143,0,0,,2,,,74,127
77033,note_on,1,0,0,,11,,,82,127
77176,note_off,143,0,0,,7,,,67,127
77177,note_on,1,0,0,,5,,,65,127
77320,note_off,143,0,0,,11,,,70,127
77321,note_on,1,0,0,,0,,,72,127
77464,note_off,143,0,0,,0,,,72,127
77464,note_off,0,0,0,,11,,,82,127
77465,note_on,1,0,0,,10,,,81,127
77465,note_on,0,0,0,,2,,,74,127
77608,note_off,143,0,0,,10,,,81,127
77608,note_off,0,0,0,,5,,,65,127
77609,note_on,1,0,0,,8,,,80,127
77609,note_on,0,0,0,,4,,,64,127
77752,note_off,143,0,0,,8,,,80,127
77753,note_on,1,0,0,,4,,,76,127
77896,note_off,143,0,0,,4,,,76,127
77896,note_off,0,0,0,,2,,,74,127
77897,note_on,1,0,0,,10,,,81,127
77897,note_on,0,0,0,,0,,,72,127
78040,note_off,143,0,0,,0,,,72,127
78040,note_off,0,0,0,,4,,,64,127
78041,note_on,1,0,0,,12,,,71,127
78041,note_on,0,0,0,,4,,,64,127
78184,note_off,143,0,0,,10,,,81,127
78185,note_on,1,0,0,,12,,,83,127
78328,note_off,143,0,0,,12,,,83,127
78329,note_on,1,0,0,,8,,,80,127
78472,note_off,143,0,0,,8,,,80,127
78472,note_off,0,0,0,,4,,,64,127
78472,note_off,0,0,0,,12,,,71,127
78473,note_on,1,0,0,,10,,,81,127
78473,note_on,0,0,0,,10,,,57,127
78473,note_on,0,0,0,,10,,,69,127
78617,note_on,144,0,0,,4,,,76,127
78689,note_off,72,0,0,,10,,,81,127
78760,note_off,71,0,0,,4,,,76,127
78761,note_on,1,0,0,,5,,,77,127
78904,note_off,143,0,0,,5,,,77,127
78904,note_off,0,0,0,,10,,,69,127
78904,note_off,0,0,0,,10,,,57,127
78905,note_on,1,0,0,,7,,,79,127
78905,note_on,0,0,0,,11,,,70,127
79048,note_off,143,0,0,,11,,,70,127
79049,note_on,1,0,0,,7,,,67,127
79192,note_off,143,0,0,,7,,,67,127
79193,note_on,1,0,0,,4,,,64,127
79336,note_off,143,0,0,,4,,,64,127
79337,note_on,1,0,0,,1,,,61,127
79480,note_off,143,0,0,,7,,,79,127
79481,note_on,1,0,0,,4,,,76,127
79624,note_off,143,0,0,,4,,,76,127
79625,note_on,1,0,0,,5,,,77,127
79768,note_off,143,0,0,,5,,,77,127
79768,note_off,0,0,0,,1,,,61,127
79769,note_on,1,0,0,,7,,,79,127
79769,note_on,0,0,0,,7,,,67,127
79912,note_off,143,0,0,,7,,,67,127
79913,note_on,1,0,0,,4,,,64,127
80056,note_off,143,0,0,,4,,,64,127
80057,note_on,1,0,0,,1,,,61,127
80200,note_off,143,0,0,,1,,,61,127
80201,note_on,1,0,0,,11,,,58,127
80344,note_off,143,0,0,,7,,,79,127
80345,note_on,1,0,0,,4,,,76,127
80488,note_off,143,0,0,,4,,,76,127
80489,note_on,1,0,0,,5,,,77,127
80632,note_off,143,0,0,,5,,,77,127
80632,note_off,0,0,0,,11,,,58,127
80633,note_on,1,0,0,,7,,,79,127
80633,note_on,0,0,0,,7,,,67,127
80776,note_off,143,0,0,,7,,,67,127
80777,note_on,1,0,0,,4,,,64,127
80920,note_off,143,0,0,,4,,,64,127
80921,note_on,1,0,0,,1,,,61,127
81064,note_off,143,0,0,,1,,,61,127
81065,note_on,1,0,0,,10,,,57,127
81208,note_off,143,0,0,,10,,,57,127
81208,note_off,0,0,0,,7,,,79,127
81209,note_on,1,0,0,,4,,,76,127
81209,note_on,0,0,0,,7,,,67,127
81352,note_off,143,0,0,,7,,,67,127
81352,note_off,0,0,0,,4,,,76,127
81353,note_on,1,0,0,,5,,,77,127
81353,note_on,0,0,0,,4,,,64,127
81496,note_off,143,0,0,,4,,,64,127
81496,note_off,0,0,0,,5,,,77,127
81497,note_on,1,0,0,,7,,,79,127
81497,note_on,0,0,0,,11,,,58,127
81640,note_off,143,0,0,,11,,,58,127
81640,note_off,0,0,0,,7,,,79,127
81641,note_on,1,0,0,,4,,,76,127
81641,note_on,0,0,0,,7,,,67,127
81784,note_off,143,0,0,,7,,,67,127
81784,note_off,0,0,0,,4,,,76,127
81785,note_on,1,0,0,,5,,,77,127
81785,note_on,0,0,0,,4,,,64,127
81928,note_off,143,0,0,,4,,,64,127
81928,note_off,0,0,0,,5,,,77,127
81929,note_on,1,0,0,,7,,,79,127
81929,note_on,0,0,0,,10,,,57,127
82072,note_off,143,0,0,,10,,,57,127
82073,note_on,1,0,0,,10,,,69,127
82216,note_off,143,0,0,,10,,,69,127
82216,note_off,0,0,0,,7,,,79,127
82217,note_on,1,0,0,,10,,,81,127
82217,note_on,0,0,0,,5,,,65,127
82360,note_off,143,0,0,,5,,,65,127
82360,note_off,0,0,0,,10,,,81,127
82361,note_on,1,0,0,,11,,,82,127
82361,note_on,0,0,0,,11,,,58,127
82504,note_off,143,0,0,,11,,,58,127
82505,note_on,1,0,0,,7,,,67,127
82648,note_off,143,0,0,,7,,,67,127
82648,note_off,0,0,0,,11,,,82,127
82649,note_on,1,0,0,,1,,,73,127
82649,note_on,0,0,0,,4,,,64,127
82792,note_off,143,0,0,,4,,,64,127
82792,note_off,0,0,0,,1,,,73,127
82793,note_on,1,0,0,,2,,,74,127
82793,note_on,0,0,0,,5,,,53,127
82936,note_off,143,0,0,,5,,,53,127
82937,note_on,1,0,0,,10,,,69,127
83080,note_off,143,0,0,,10,,,69,127
83080,note_off,0,0,0,,2,,,74,127
83081,note_on,1,0,0,,10,,,81,127
83081,note_on,0,0,0,,5,,,65,127
83224,note_off,143,0,0,,5,,,65,127
83224,note_off,0,0,0,,10,,,81,127
83225,note_on,1,0,0,,7,,,79,127
83225,note_on,0,0,0,,4,,,52,127
83368,note_off,143,0,0,,4,,,52,127
83368,note_off,0,0,0,,7,,,79,127
83369,note_on,1,0,0,,5,,,77,127
83369,note_on,0,0,0,,4,,,64,127
83512,note_off,143,0,0,,4,,,64,127
83512,note_off,0,0,0,,5,,,77,127
83513,note_on,1,0,0,,4,,,76,127
83513,note_on,0,0,0,,1,,,61,127
83656,note_off,143,0,0,,1,,,61,127
83656,note_off,0,0,0,,4,,,76,127
83657,note_on,1,0,0,,7,,,79,127
83657,note_on,0,0,0,,2,,,62,127
83657,note_on,0,0,0,,2,,,50,127
83728,note_off,71,0,0,,7,,,79,127
83729,note_on,1,0,0,,5,,,77,127
83800,note_off,71,0,0,,5,,,77,127
83801,note_on,1,0,0,,4,,,76,127
83944,note_off,143,0,0,,4,,,76,127
83945,note_on,1,0,0,,2,,,74,127
84065,note_off,120,0,0,,2,,,74,127
84088,note_off,23,0,0,,2,,,50,127
84088,note_off,0,0,0,,2,,,62,127
84089,note_on,1,0,0,,5,,,77,127
84089,note_on,0,0,0,,8,,,68,127
84232,note_off,143,0,0,,8,,,68,127
84233,note_on,1,0,0,,5,,,65,127
84376,note_off,143,0,0,,5,,,65,127
84377,note_on,1,0,0,,2,,,62,127
84520,note_off,143,0,0,,2,,,62,127
84521,note_on,1,0,0,,12,,,59,127
84664,note_off,143,0,0,,5,,,77,127
84665,note_on,1,0,0,,2,,,74,127
84808,note_off,143,0,0,,2,,,74,127
84809,note_on,1,0,0,,3,,,75,127
84952,note_off,143,0,0,,3,,,75,127
84952,note_off,0,0,0,,12,,,59,127
84953,note_on,1,0,0,,5,,,77,127
84953,note_on,0,0,0,,5,,,65,127
85096,note_off,143,0,0,,5,,,65,127
85097,note_on,1,0,0,,2,,,62,127
85240,note_off,143,0,0,,2,,,62,127
85241,note_on,1,0,0,,12,,,59,127
85384,note_off,143,0,0,,12,,,59,127
85385,note_on,1,0,0,,8,,,56,127
85528,note_off,143,0,0,,5,,,77,127
85529,note_on,1,0,0,,2,,,74,127
85672,note_off,143,0,0,,2,,,74,127
85673,note_on,1,0,0,,3,,,75,127
85816,note_off,143,0,0,,3,,,75,127
85816,note_off,0,0,0,,8,,,56,127
85817,note_on,1,0,0,,5,,,77,127
85817,note_on,0,0,0,,5,,,65,127
85960,note_off,143,0,0,,5,,,65,127
85961,note_on,1,0,0,,2,,,62,127
86104,note_off,143,0,0,,2,,,62,127
86105,note_on,1,0,0,,12,,,59,127
86248,note_off,143,0,0,,12,,,59,127
86249,note_on,1,0,0,,7,,,55,127
86392,note_off,143,0,0,,7,,,55,127
86392,note_off,0,0,0,,5,,,77,127
86393,note_on,1,0,0,,2,,,74,127
86393,note_on,0,0,0,,5,,,65,127
86536,note_off,143,0,0,,5,,,65,127
86536,note_off,0,0,0,,2,,,74,127
86537,note_on,1,0,0,,3,,,75,127
86537,note_on,0,0,0,,2,,,62,127
86680,note_off,143,0,0,,2,,,62,127
86680,note_off,0,0,0,,3,,,75,127
86681,note_on,1,0,0,,5,,,77,127
86681,note_on,0,0,0,,8,,,56,127
86824,note_off,143,0,0,,8,,,56,127
86824,note_off,0,0,0,,5,,,77,127
86825,note_on,1,0,0,,2,,,74,127
86825,note_on,0,0,0,,5,,,65,127
86968,note_off,143,0,0,,5,,,65,127
86968,note_off,0,0,0,,2,,,74,127
86969,note_on,1,0,0,,3,,,75,127
86969,note_on,0,0,0,,2,,,62,127
87112,note_off,143,0,0,,2,,,62,127
87112,note_off,0,0,0,,3,,,75,127
87113,note_on,1,0,0,,5,,,77,127
87113,note_on,0,0,0,,7,,,55,127
87256,note_off,143,0,0,,7,,,55,127
87257,note_on,1,0,0,,7,,,67,127
87400,note_off,143,0,0,,7,,,67,127
87400,note_off,0,0,0,,5,,,77,127
87401,note_on,1,0,0,,7,,,79,127
87401,note_on,0,0,0,,3,,,63,127
87544,note_off,143,0,0,,3,,,63,127
87544,note_off,0,0,0,,7,,,79,127
87545,note_on,1,0,0,,8,,,80,127
87545,note_on,0,0,0,,5,,,53,127
87688,note_off,143,0,0,,5,,,53,127
87689,note_on,1,0,0,,5,,,65,127
87832,note_off,143,0,0,,5,,,65,127
87832,note_off,0,0,0,,8,,,80,127
87833,note_on,1,0,0,,12,,,71,127
87833,note_on,0,0,0,,2,,,62,127
87976,note_off,143,0,0,,2,,,62,127
87976,note_off,0,0,0,,12,,,71,127
87977,note_on,1,0,0,,0,,,72,127
87977,note_on,0,0,0,,3,,,51,127
88120,note_off,143,0,0,,3,,,51,127
88121,note_on,1,0,0,,3,,,63,127
88264,note_off,143,0,0,,3,,,63,127
88264,note_off,0,0,0,,0,,,72,127
88265,note_on,1,0,0,,7,,,79,127
88265,note_on,0,0,0,,0,,,60,127
88408,note_off,143,0,0,,0,,,60,127
88408,note_off,0,0,0,,7,,,79,127
88409,note_on,1,0,0,,5,,,77,127
88409,note_on,0,0,0,,2,,,50,127
88552,note_off,143,0,0,,2,,,50,127
88552,note_off,0,0,0,,5,,,77,127
88553,note_on,1,0,0,,3,,,75,127
88553,note_on,0,0,0,,2,,,62,127
88696,note_off,143,0,0,,2,,,62,127
88696,note_off,0,0,0,,3,,,75,127
88697,note_on,1,0,0,,2,,,74,127
88697,note_on,0,0,0,,12,,,59,127
88840,note_off,143,0,0,,12,,,59,127
88840,note_off,0,0,0,,2,,,74,127
88841,note_on,1,0,0,,5,,,77,127
88841,note_on,0,0,0,,0,,,48,127
88841,note_on,0,0,0,,0,,,60,127
88912,note_off,71,0,0,,5,,,77,127
88913,note_on,1,0,0,,3,,,75,127
88984,note_off,71,0,0,,3,,,75,127
88985,note_on,1,0,0,,2,,,74,127
89128,note_off,143,0,0,,2,,,74,127
89129,note_on,1,0,0,,0,,,72,127
89249,note_off,120,0,0,,0,,,72,127
89272,note_off,23,0,0,,0,,,60,127
89272,note_off,0,0,0,,0,,,48,127
89273,note_on,1,0,0,,5,,,77,127
89273,note_on,0,0,0,,7,,,67,127
89273,note_on,0,0,0,,0,,,60,127
89344,note_off,71,0,0,,5,,,77,127
89345,note_on,1,0,0,,3,,,75,127
89416,note_off,71,0,0,,3,,,75,127
89417,note_on,1,0,0,,2,,,74,127
89560,note_off,143,0,0,,2,,,74,127
89561,note_on,1,0,0,,3,,,75,127
89704,note_off,143,0,0,,3,,,75,127
89704,note_off,0,0,0,,0,,,60,127
89704,note_off,0,0,0,,7,,,67,127
89705,note_on,1,0,0,,5,,,77,127
89705,note_on,0,0,0,,8,,,68,127
89705,note_on,0,0,0,,0,,,60,127
89848,note_off,143,0,0,,5,,,77,127
89849,note_on,1,0,0,,7,,,79,127
89992,note_off,143,0,0,,7,,,79,127
89993,note_on,1,0,0,,8,,,80,127
90136,note_off,143,0,0,,8,,,80,127
90136,note_off,0,0,0,,0,,,60,127
90136,note_off,0,0,0,,8,,,68,127
90137,note_on,1,0,0,,8,,,80,127
90137,note_on,0,0,0,,12,,,71,127
90137,note_on,0,0,0,,0,,,60,127
90280,note_off,143,0,0,,8,,,80,127
90281,note_on,1,0,0,,7,,,79,127
90424,note_off,143,0,0,,7,,,79,127
90425,note_on,1,0,0,,5,,,77,127
90568,note_off,143,0,0,,5,,,77,127
90568,note_off,0,0,0,,0,,,60,127
90568,note_off,0,0,0,,12,,,71,127
90569,note_on,1,0,0,,3,,,75,127
90569,note_on,0,0,0,,0,,,60,127
90569,note_on,0,0,0,,0,,,72,127
90712,note_off,143,0,0,,3,,,75,127
90713,note_on,1,0,0,,2,,,74,127
90854,note_off,141,0,0,,0,,,72,127
90856,note_off,2,0,0,,2,,,74,127
90857,note_on,1,0,0,,0,,,72,127
91000,note_off,143,0,0,,0,,,72,127
91000,note_off,0,0,0,,0,,,60,127
91001,note_on,1,0,0,,5,,,77,127
91001,note_on,0,0,0,,7,,,67,127
91001,note_on,0,0,0,,0,,,60,127
91072,note_off,71,0,0,,5,,,77,127
91073,note_on,1,0,0,,3,,,75,127
91144,note_off,71,0,0,,3,,,75,127
91145,note_on,1,0,0,,2,,,74,127
91288,note_off,143,0,0,,2,,,74,127
91289,note_on,1,0,0,,3,,,75,127
91432,note_off,143,0,0,,3,,,75,127
91432,note_off,0,0,0,,0,,,60,127
91432,note_off,0,0,0,,7,,,67,127
91433,note_on,1,0,0,,5,,,77,127
91433,note_on,0,0,0,,0,,,60,127
91433,note_on,0,0,0,,8,,,68,127
91576,note_off,143,0,0,,5,,,77,127
91577,note_on,1,0,0,,7,,,79,127
91720,note_off,143,0,0,,7,,,79,127
91721,note_on,1,0,0,,8,,,80,127
91864,note_off,143,0,0,,8,,,80,127
91864,note_off,0,0,0,,8,,,68,127
91864,note_off,0,0,0,,0,,,60,127
91865,note_on,1,0,0,,8,,,80,127
91865,note_on,0,0,0,,12,,,71,127
91865,note_on,0,0,0,,0,,,60,127
92008,note_off,143,0,0,,8,,,80,127
92009,note_on,1,0,0,,7,,,79,127
92152,note_off,143,0,0,,7,,,79,127
92153,note_on,1,0,0,,5,,,77,127
92296,note_off,143,0,0,,5,,,77,127
92296,note_off,0,0,0,,0,,,60,127
92296,note_off,0,0,0,,12,,,71,127
92297,note_on,1,0,0,,5,,,77,127
92297,note_on,0,0,0,,0,,,72,127
92297,note_on,0,0,0,,0,,,60,127
92440,note_off,143,0,0,,5,,,77,127
92441,note_on,1,0,0,,3,,,75,127
92584,note_off,143,0,0,,3,,,75,127
92584,note_off,0,0,0,,0,,,60,127
92584,note_off,0,0,0,,0,,,72,127
92585,note_on,1,0,0,,2,,,74,127
92585,note_on,0,0,0,,2,,,62,127
92728,note_off,143,0,0,,2,,,62,127
92728,note_off,0,0,0,,2,,,74,127
92729,note_on,1,0,0,,2,,,74,127
92729,note_on,0,0,0,,3,,,63,127
92872,note_off,143,0,0,,2,,,74,127
92873,note_on,1,0,0,,0,,,72,127
93016,note_off,143,0,0,,0,,,72,127
93016,note_off,0,0,0,,3,,,63,127
93017,note_on,1,0,0,,11,,,70,127
93017,note_on,0,0,0,,0,,,60,127
93160,note_off,143,0,0,,0,,,60,127
93160,note_off,0,0,0,,11,,,70,127
93161,note_on,1,0,0,,11,,,70,127
93161,note_on,0,0,0,,5,,,65,127
93304,note_off,143,0,0,,11,,,70,127
93305,note_on,1,0,0,,10,,,69,127
93448,note_off,143,0,0,,10,,,69,127
93448,note_off,0,0,0,,5,,,65,127
93449,note_on,1,0,0,,11,,,70,127
93449,note_on,0,0,0,,7,,,67,127
93592,note_off,143,0,0,,7,,,67,127
93592,note_off,0,0,0,,11,,,70,127
93593,note_on,1,0,0,,0,,,72,127
93593,note_on,0,0,0,,10,,,69,127
93736,note_off,143,0,0,,0,,,72,127
93737,note_on,1,0,0,,2,,,74,127
93880,note_off,143,0,0,,2,,,74,127
93880,note_off,0,0,0,,10,,,69,127
93881,note_on,1,0,0,,3,,,75,127
93881,note_on,0,0,0,,5,,,65,127
94024,note_off,143,0,0,,5,,,65,127
94024,note_off,0,0,0,,3,,,75,127
94025,note_on,1,0,0,,3,,,75,127
94025,note_on,0,0,0,,11,,,70,127
94168,note_off,143,0,0,,3,,,75,127
94169,note_on,1,0,0,,2,,,74,127
94312,note_off,143,0,0,,2,,,74,127
94312,note_off,0,0,0,,11,,,70,127
94313,note_on,1,0,0,,0,,,72,127
94313,note_on,0,0,0,,10,,,69,127
94456,note_off,143,0,0,,10,,,69,127
94456,note_off,0,0,0,,0,,,72,127
94457,note_on,1,0,0,,2,,,74,127
94457,note_on,0,0,0,,7,,,67,127
94600,note_off,143,0,0,,2,,,74,127
94601,note_on,1,0,0,,5,,,77,127
94672,note_off,71,0,0,,5,,,77,127
94673,note_on,1,0,0,,4,,,76,127
94744,note_off,71,0,0,,4,,,76,127
94745,note_on,1,0,0,,2,,,74,127
94816,note_off,71,0,0,,2,,,74,127
94817,note_on,1,0,0,,4,,,76,127
94888,note_off,71,0,0,,4,,,76,127
94888,note_off,0,0,0,,7,,,67,127
94889,note_on,1,0,0,,5,,,77,127
94889,note_on,0,0,0,,5,,,65,127
95174,note_off,285,0,0,,5,,,77,127
95320,note_off,146,0,0,,5,,,65,127
95321,note_on,1,0,0,,2,,,74,127
95321,note_on,0,0,0,,11,,,70,127
95464,note_off,143,0,0,,11,,,70,127
95464,note_off,0,0,0,,2,,,74,127
95465,note_on,1,0,0,,11,,,82,127
95465,note_on,0,0,0,,5,,,65,127
95608,note_off,143,0,0,,5,,,65,127
95608,note_off,0,0,0,,11,,,82,127
95609,note_on,1,0,0,,2,,,86,127
95609,note_on,0,0,0,,2,,,62,127
95752,note_off,143,0,0,,2,,,62,127
95752,note_off,0,0,0,,2,,,86,127
95753,note_on,1,0,0,,2,,,74,127
95753,note_on,0,0,0,,11,,,58,127
95896,note_off,143,0,0,,11,,,58,127
95896,note_off,0,0,0,,2,,,74,127
95897,note_on,1,0,0,,11,,,82,127
95897,note_on,0,0,0,,2,,,62,127
96040,note_off,143,0,0,,2,,,62,127
96040,note_off,0,0,0,,11,,,82,127
96041,note_on,1,0,0,,2,,,86,127
96041,note_on,0,0,0,,11,,,58,127
96184,note_off,143,0,0,,11,,,58,127
96184,note_off,0,0,0,,2,,,86,127
96185,note_on,1,0,0,,2,,,74,127
96185,note_on,0,0,0,,5,,,53,127
96328,note_off,143,0,0,,5,,,53,127
96328,note_off,0,0,0,,2,,,74,127
96329,note_on,1,0,0,,11,,,82,127
96329,note_on,0,0,0,,11,,,58,127
96472,note_off,143,0,0,,11,,,58,127
96472,note_off,0,0,0,,11,,,82,127
96473,note_on,1,0,0,,2,,,86,127
96473,note_on,0,0,0,,5,,,53,127
96616,note_off,143,0,0,,5,,,53,127
96616,note_off,0,0,0,,2,,,86,127
96617,note_on,1,0,0,,2,,,74,127
96617,note_on,0,0,0,,2,,,50,127
96760,note_off,143,0,0,,2,,,50,127
96760,note_off,0,0,0,,2,,,74,127
96761,note_on,1,0,0,,11,,,82,127
96761,note_on,0,0,0,,5,,,53,127
96904,note_off,143,0,0,,5,,,53,127
96904,note_off,0,0,0,,11,,,82,127
96905,note_on,1,0,0,,2,,,86,127
96905,note_on,0,0,0,,2,,,50,127
97048,note_off,143,0,0,,2,,,50,127
97048,note_off,0,0,0,,2,,,86,127
97049,note_on,1,0,0,,2,,,74,127
97049,note_on,0,0,0,,11,,,46,127
97192,note_off,143,0,0,,2,,,74,127
97193,note_on,1,0,0,,11,,,82,127
97193,note_on,0,0,0,,2,,,86,127
97336,note_off,143,0,0,,2,,,86,127
97336,note_off,0,0,0,,11,,,82,127
97337,note_on,1,0,0,,10,,,81,127
97337,note_on,0,0,0,,0,,,84,127
97480,note_off,143,0,0,,0,,,84,127
97480,note_off,0,0,0,,10,,,81,127
97480,note_off,0,0,0,,11,,,46,127
97481,note_on,1,0,0,,7,,,79,127
97481,note_on,0,0,0,,11,,,82,127
97481,note_on,0,0,0,,3,,,51,127
97624,note_off,143,0,0,,11,,,82,127
97624,note_off,0,0,0,,7,,,79,127
97625,note_on,1,0,0,,10,,,81,127
97625,note_on,0,0,0,,5,,,77,127
97768,note_off,143,0,0,,5,,,77,127
97768,note_off,0,0,0,,10,,,81,127
97769,note_on,1,0,0,,7,,,79,127
97769,note_on,0,0,0,,3,,,75,127
97912,note_off,143,0,0,,3,,,75,127
97912,note_off,0,0,0,,7,,,79,127
97912,note_off,0,0,0,,3,,,51,127
97913,note_on,1,0,0,,7,,,79,127
97913,note_on,0,0,0,,3,,,75,127
97913,note_on,0,0,0,,5,,,53,127
98056,note_off,143,0,0,,3,,,75,127
98056,note_off,0,0,0,,7,,,79,127
98057,note_on,1,0,0,,5,,,77,127
98057,note_on,0,0,0,,2,,,74,127
98200,note_off,143,0,0,,2,,,74,127
98200,note_off,0,0,0,,5,,,77,127
98201,note_on,1,0,0,,0,,,72,127
98201,note_on,0,0,0,,3,,,75,127
98344,note_off,143,0,0,,3,,,75,127
98344,note_off,0,0,0,,0,,,72,127
98344,note_off,0,0,0,,5,,,53,127
98345,note_on,1,0,0,,3,,,75,127
98345,note_on,0,0,0,,11,,,46,127
98416,note_off,71,0,0,,3,,,75,127
98417,note_on,1,0,0,,2,,,74,127
98488,note_off,71,0,0,,2,,,74,127
98489,note_on,1,0,0,,3,,,75,127
98560,note_off,71,0,0,,3,,,75,127
98561,note_on,1,0,0,,2,,,74,127
98632,note_off,71,0,0,,2,,,74,127
98633,note_on,1,0,0,,3,,,75,127
98704,note_off,71,0,0,,3,,,75,127
98705,note_on,1,0,0,,2,,,74,127
98776,note_off,71,0,0,,2,,,74,127
98776,note_off,0,0,0,,11,,,46,127
98777,note_on,1,0,0,,2,,,74,127
98777,note_on,0,0,0,,11,,,70,127
98920,note_off,143,0,0,,11,,,70,127
98920,note_off,0,0,0,,2,,,74,127
98921,note_on,1,0,0,,11,,,82,127
98921,note_on,0,0,0,,5,,,65,127
99064,note_off,143,0,0,,5,,,65,127
99064,note_off,0,0,0,,11,,,82,127
99065,note_on,1,0,0,,2,,,86,127
99065,note_on,0,0,0,,2,,,62,127
99208,note_off,143,0,0,,2,,,62,127
99208,note_off,0,0,0,,2,,,86,127
99209,note_on,1,0,0,,2,,,74,127
99209,note_on,0,0,0,,11,,,58,127
99352,note_off,143,0,0,,11,,,58,127
99352,note_off,0,0,0,,2,,,74,127
99353,note_on,1,0,0,,11,,,82,127
99353,note_on,0,0,0,,2,,,62,127
99496,note_off,143,0,0,,2,,,62,127
99496,note_off,0,0,0,,11,,,82,127
99497,note_on,1,0,0,,2,,,86,127
99497,note_on,0,0,0,,11,,,58,127
99640,note_off,143,0,0,,11,,,58,127
99640,note_off,0,0,0,,2,,,86,127
99641,note_on,1,0,0,,2,,,74,127
99641,note_on,0,0,0,,5,,,53,127
99784,note_off,143,0,0,,5,,,53,127
99784,note_off,0,0,0,,2,,,74,127
99785,note_on,1,0,0,,11,,,82,127
99785,note_on,0,0,0,,11,,,58,127
99928,note_off,143,0,0,,11,,,58,127
99928,note_off,0,0,0,,11,,,82,127
99929,note_on,1,0,0,,2,,,86,127
99929,note_on,0,0,0,,5,,,53,127
100072,note_off,143,0,0,,5,,,53,127
100072,note_off,0,0,0,,2,,,86,127
100073,note_on,1,0,0,,2,,,74,127
100073,note_on,0,0,0,,2,,,50,127
100216,note_off,143,0,0,,2,,,50,127
100216,note_off,0,0,0,,2,,,74,127
100217,note_on,1,0,0,,11,,,82,127
100217,note_on,0,0,0,,5,,,53,127
100360,note_off,143,0,0,,5,,,53,127
100360,note_off,0,0,0,,11,,,82,127
100361,note_on,1,0,0,,2,,,86,127
100361,note_on,0,0,0,,2,,,50,127
100504,note_off,143,0,0,,2,,,50,127
100505,note_on,1,0,0,,2,,,74,127
100505,note_on,0,0,0,,11,,,46,127
100571,note_off,66,0,0,,2,,,86,127
100648,note_off,77,0,0,,2,,,74,127
100649,note_on,1,0,0,,11,,,82,127
100649,note_on,0,0,0,,2,,,74,127
100792,note_off,143,0,0,,2,,,74,127
100792,note_off,0,0,0,,11,,,82,127
100793,note_on,1,0,0,,0,,,72,127
100793,note_on,0,0,0,,10,,,81,127
100936,note_off,143,0,0,,10,,,81,127
100936,note_off,0,0,0,,0,,,72,127
100936,note_off,0,0,0,,11,,,46,127
100937,note_on,1,0,0,,7,,,79,127
100937,note_on,0,0,0,,11,,,70,127
100937,note_on,0,0,0,,3,,,51,127
101080,note_off,143,0,0,,11,,,70,127
101080,note_off,0,0,0,,7,,,79,127
101081,note_on,1,0,0,,10,,,69,127
101081,note_on,0,0,0,,5,,,77,127
101224,note_off,143,0,0,,5,,,77,127
101224,note_off,0,0,0,,10,,,69,127
101225,note_on,1,0,0,,7,,,67,127
101225,note_on,0,0,0,,3,,,75,127
101368,note_off,143,0,0,,3,,,75,127
101368,note_off,0,0,0,,7,,,67,127
101368,note_off,0,0,0,,3,,,51,127
101369,note_on,1,0,0,,7,,,67,127
101369,note_on,0,0,0,,3,,,75,127
101369,note_on,0,0,0,,5,,,53,127
101512,note_off,143,0,0,,3,,,75,127
101512,note_off,0,0,0,,7,,,67,127
101513,note_on,1,0,0,,5,,,65,127
101513,note_on,0,0,0,,2,,,74,127
101656,note_off,143,0,0,,2,,,74,127
101656,note_off,0,0,0,,5,,,65,127
101657,note_on,1,0,0,,0,,,72,127
101657,note_on,0,0,0,,3,,,63,127
101800,note_off,143,0,0,,3,,,63,127
101800,note_off,0,0,0,,0,,,72,127
101800,note_off,0,0,0,,5,,,53,127
101801,note_on,1,0,0,,11,,,70,127
101801,note_on,0,0,0,,2,,,62,127
101801,note_on,0,0,0,,11,,,46,127
101801,note_on,0,0,0,,11,,,58,127
102086,note_off,285,0,0,,2,,,62,127
102116,note_off,30,0,0,,11,,,70,127
102232,note_off,116,0,0,,11,,,58,127
102232,note_off,0,0,0,,11,,,46,127
102233,note_on,1,0,0,,3,,,75,127
102233,note_on,0,0,0,,5,,,65,127
102233,note_on,0,0,0,,11,,,58,127
102304,note_off,71,0,0,,3,,,75,127
102305,note_on,1,0,0,,1,,,73,127
102376,note_off,71,0,0,,1,,,73,127
102377,note_on,1,0,0,,0,,,72,127
102520,note_off,143,0,0,,0,,,72,127
102521,note_on,1,0,0,,1,,,73,127
102664,note_off,143,0,0,,1,,,73,127
102664,note_off,0,0,0,,11,,,58,127
102664,note_off,0,0,0,,5,,,65,127
102665,note_on,1,0,0,,3,,,75,127
102665,note_on,0,0,0,,11,,,58,127
102665,note_on,0,0,0,,6,,,66,127
102808,note_off,143,0,0,,3,,,75,127
102809,note_on,1,0,0,,5,,,77,127
102952,note_off,143,0,0,,5,,,77,127
102953,note_on,1,0,0,,6,,,78,127
103096,note_off,143,0,0,,6,,,78,127
103096,note_off,0,0,0,,6,,,66,127
103096,note_off,0,0,0,,11,,,58,127
103097,note_on,1,0,0,,6,,,78,127
103097,note_on,0,0,0,,10,,,69,127
103097,note_on,0,0,0,,11,,,58,127
103240,note_off,143,0,0,,6,,,78,127
103241,note_on,1,0,0,,5,,,77,127
103384,note_off,143,0,0,,5,,,77,127
103385,note_on,1,0,0,,0,,,72,127
103528,note_off,143,0,0,,0,,,72,127
103528,note_off,0,0,0,,11,,,58,127
103528,note_off,0,0,0,,10,,,69,127
103529,note_on,1,0,0,,3,,,75,127
103529,note_on,0,0,0,,11,,,70,127
103529,note_on,0,0,0,,11,,,58,127
103600,note_off,71,0,0,,3,,,75,127
103601,note_on,1,0,0,,1,,,73,127
103672,note_off,71,0,0,,1,,,73,127
103673,note_on,1,0,0,,0,,,72,127
103814,note_off,141,0,0,,11,,,70,127
103816,note_off,2,0,0,,0,,,72,127
103817,note_on,1,0,0,,11,,,70,127
103960,note_off,143,0,0,,11,,,70,127
103960,note_off,0,0,0,,11,,,58,127
103961,note_on,1,0,0,,3,,,75,127
103961,note_on,0,0,0,,11,,,58,127
103961,note_on,0,0,0,,5,,,65,127
104032,note_off,71,0,0,,3,,,75,127
104033,note_on,1,0,0,,1,,,73,127
104104,note_off,71,0,0,,1,,,73,127
104105,note_on,1,0,0,,0,,,72,127
104248,note_off,143,0,0,,0,,,72,127
104249,note_on,1,0,0,,1,,,73,127
104392,note_off,143,0,0,,1,,,73,127
104392,note_off,0,0,0,,5,,,65,127
104392,note_off,0,0,0,,11,,,58,127
104393,note_on,1,0,0,,3,,,75,127
104393,note_on,0,0,0,,6,,,66,127
104393,note_on,0,0,0,,11,,,58,127
104536,note_off,143,0,0,,3,,,75,127
104537,note_on,1,0,0,,5,,,77,127
104680,note_off,143,0,0,,5,,,77,127
104681,note_on,1,0,0,,6,,,78,127
104824,note_off,143,0,0,,6,,,78,127
104824,note_off,0,0,0,,11,,,58,127
104824,note_off,0,0,0,,6,,,66,127
104825,note_on,1,0,0,,6,,,78,127
104825,note_on,0,0,0,,10,,,69,127
104825,note_on,0,0,0,,11,,,58,127
104968,note_off,143,0,0,,6,,,78,127
104969,note_on,1,0,0,,5,,,77,127
105112,note_off,143,0,0,,5,,,77,127
105113,note_on,1,0,0,,0,,,72,127
105256,note_off,143,0,0,,0,,,72,127
105256,note_off,0,0,0,,11,,,58,127
105256,note_off,0,0,0,,10,,,69,127
105257,note_on,1,0,0,,1,,,73,127
105257,note_on,0,0,0,,11,,,70,127
105257,note_on,0,0,0,,11,,,58,127
105400,note_off,143,0,0,,1,,,73,127
105401,note_on,1,0,0,,5,,,77,127
105544,note_off,143,0,0,,11,,,58,127
105544,note_off,0,0,0,,11,,,70,127
105545,note_on,1,0,0,,10,,,69,127
105545,note_on,0,0,0,,0,,,60,127
105611,note_off,66,0,0,,5,,,77,127
105688,note_off,77,0,0,,0,,,60,127
105688,note_off,0,0,0,,10,,,69,127
105689,note_on,1,0,0,,11,,,70,127
105689,note_on,0,0,0,,1,,,61,127
105832,note_off,143,0,0,,11,,,70,127
105833,note_on,1,0,0,,1,,,73,127
105976,note_off,143,0,0,,1,,,61,127
105977,note_on,1,0,0,,5,,,65,127
105977,note_on,0,0,0,,11,,,58,127
106043,note_off,66,0,0,,1,,,73,127
106120,note_off,77,0,0,,11,,,58,127
106120,note_off,0,0,0,,5,,,65,127
106121,note_on,1,0,0,,6,,,66,127
106121,note_on,0,0,0,,3,,,63,127
106264,note_off,143,0,0,,6,,,66,127
106265,note_on,1,0,0,,0,,,72,127
106408,note_off,143,0,0,,0,,,72,127
106408,note_off,0,0,0,,3,,,63,127
106409,note_on,1,0,0,,11,,,70,127
106409,note_on,0,0,0,,1,,,61,127
106552,note_off,143,0,0,,1,,,61,127
106552,note_off,0,0,0,,11,,,70,127
106553,note_on,1,0,0,,10,,,69,127
106553,note_on,0,0,0,,0,,,60,127
106696,note_off,143,0,0,,10,,,69,127
106697,note_on,1,0,0,,0,,,72,127
106768,note_off,71,0,0,,0,,,72,127
106769,note_on,1,0,0,,11,,,70,127
106840,note_off,71,0,0,,11,,,70,127
106840,note_off,0,0,0,,0,,,60,127
106841,note_on,1,0,0,,10,,,69,127
106841,note_on,0,0,0,,11,,,58,127
106912,note_off,71,0,0,,10,,,69,127
106913,note_on,1,0,0,,11,,,70,127
106984,note_off,71,0,0,,11,,,70,127
106984,note_off,0,0,0,,11,,,58,127
106985,note_on,1,0,0,,0,,,72,127
106985,note_on,0,0,0,,5,,,53,127
107128,note_off,143,0,0,,0,,,72,127
107129,note_on,1,0,0,,5,,,77,127
107273,note_on,144,0,0,,10,,,69,127
107339,note_off,66,0,0,,5,,,77,127
107416,note_off,77,0,0,,10,,,69,127
107416,note_off,0,0,0,,5,,,53,127
107417,note_on,1,0,0,,11,,,70,127
107417,note_on,0,0,0,,1,,,61,127
107560,note_off,143,0,0,,11,,,70,127
107561,note_on,1,0,0,,1,,,73,127
107704,note_off,143,0,0,,1,,,61,127
107705,note_on,1,0,0,,5,,,65,127
107705,note_on,0,0,0,,11,,,58,127
107771,note_off,66,0,0,,1,,,73,127
107848,note_off,77,0,0,,11,,,58,127
107848,note_off,0,0,0,,5,,,65,127
107849,note_on,1,0,0,,6,,,66,127
107849,note_on,0,0,0,,3,,,63,127
107992,note_off,143,0,0,,6,,,66,127
107993,note_on,1,0,0,,0,,,72,127
108136,note_off,143,0,0,,0,,,72,127
108136,note_off,0,0,0,,3,,,63,127
108137,note_on,1,0,0,,11,,,70,127
108137,note_on,0,0,0,,1,,,61,127
108280,note_off,143,0,0,,1,,,61,127
108280,note_off,0,0,0,,11,,,70,127
108281,note_on,1,0,0,,10,,,69,127
108281,note_on,0,0,0,,0,,,60,127
108424,note_off,143,0,0,,10,,,69,127
108425,note_on,1,0,0,,0,,,72,127
108496,note_off,71,0,0,,0,,,72,127
108497,note_on,1,0,0,,11,,,70,127
108568,note_off,71,0,0,,11,,,70,127
108568,note_off,0,0,0,,0,,,60,127
108569,note_on,1,0,0,,10,,,69,127
108569,note_on,0,0,0,,11,,,58,127
108640,note_off,71,0,0,,10,,,69,127
108641,note_on,1,0,0,,11,,,70,127
108712,note_off,71,0,0,,11,,,70,127
108712,note_off,0,0,0,,11,,,58,127
108713,note_on,1,0,0,,11,,,70,127
108713,note_on,0,0,0,,5,,,53,127
108856,note_off,143,0,0,,11,,,70,127
108857,note_on,1,0,0,,0,,,72,127
109144,note_off,287,0,0,,0,,,72,127
109144,note_off,0,0,0,,5,,,53,127
109145,note_on,1,0,0,,2,,,74,127
109145,note_on,0,0,0,,11,,,70,127
109288,note_off,143,0,0,,11,,,70,127
109288,note_off,0,0,0,,2,,,74,127
109289,note_on,1,0,0,,11,,,82,127
109289,note_on,0,0,0,,5,,,65,127
109432,note_off,143,0,0,,5,,,65,127
109432,note_off,0,0,0,,11,,,82,127
109433,note_on,1,0,0,,2,,,86,127
109433,note_on,0,0,0,,2,,,62,127
109576,note_off,143,0,0,,2,,,62,127
109576,note_off,0,0,0,,2,,,86,127
109577,note_on,1,0,0,,2,,,74,127
109577,note_on,0,0,0,,11,,,58,127
109720,note_off,143,0,0,,11,,,58,127
109720,note_off,0,0,0,,2,,,74,127
109721,note_on,1,0,0,,11,,,82,127
109721,note_on,0,0,0,,2,,,62,127
109864,note_off,143,0,0,,2,,,62,127
109864,note_off,0,0,0,,11,,,82,127
109865,note_on,1,0,0,,2,,,86,127
109865,note_on,0,0,0,,11,,,58,127
110008,note_off,143,0,0,,11,,,58,127
110008,note_off,0,0,0,,2,,,86,127
110009,note_on,1,0,0,,2,,,74,127
110009,note_on,0,0,0,,5,,,53,127
110152,note_off,143,0,0,,5,,,53,127
110152,note_off,0,0,0,,2,,,74,127
110153,note_on,1,0,0,,11,,,82,127
110153,note_on,0,0,0,,11,,,58,127
110296,note_off,143,0,0,,11,,,58,127
110296,note_off,0,0,0,,11,,,82,127
110297,note_on,1,0,0,,2,,,86,127
110297,note_on,0,0,0,,5,,,53,127
110440,note_off,143,0,0,,5,,,53,127
110440,note_off,0,0,0,,2,,,86,127
110441,note_on,1,0,0,,2,,,74,127
110441,note_on,0,0,0,,2,,,50,127
110584,note_off,143,0,0,,2,,,50,127
110584,note_off,0,0,0,,2,,,74,127
110585,note_on,1,0,0,,11,,,82,127
110585,note_on,0,0,0,,5,,,53,127
110728,note_off,143,0,0,,5,,,53,127
110728,note_off,0,0,0,,11,,,82,127
110729,note_on,1,0,0,,2,,,86,127
110729,note_on,0,0,0,,2,,,50,127
110872,note_off,143,0,0,,2,,,50,127
110872,note_off,0,0,0,,2,,,86,127
110873,note_on,1,0,0,,2,,,74,127
110873,note_on,0,0,0,,11,,,46,127
111016,note_off,143,0,0,,2,,,74,127
111017,note_on,1,0,0,,11,,,82,127
111017,note_on,0,0,0,,2,,,86,127
111160,note_off,143,0,0,,2,,,86,127
111160,note_off,0,0,0,,11,,,82,127
111161,note_on,1,0,0,,0,,,84,127
111161,note_on,0,0,0,,10,,,81,127
111304,note_off,143,0,0,,10,,,81,127
111304,note_off,0,0,0,,0,,,84,127
111304,note_off,0,0,0,,11,,,46,127
111305,note_on,1,0,0,,11,,,82,127
111305,note_on,0,0,0,,7,,,79,127
111305,note_on,0,0,0,,3,,,51,127
111448,note_off,143,0,0,,7,,,79,127
111448,note_off,0,0,0,,11,,,82,127
111449,note_on,1,0,0,,5,,,77,127
111449,note_on,0,0,0,,10,,,81,127
111592,note_off,143,0,0,,10,,,81,127
111592,note_off,0,0,0,,5,,,77,127
111593,note_on,1,0,0,,3,,,75,127
111593,note_on,0,0,0,,7,,,79,127
111736,note_off,143,0,0,,7,,,79,127
111736,note_off,0,0,0,,3,,,75,127
111736,note_off,0,0,0,,3,,,51,127
111737,note_on,1,0,0,,7,,,79,127
111737,note_on,0,0,0,,3,,,75,127
111737,note_on,0,0,0,,5,,,53,127
111880,note_off,143,0,0,,3,,,75,127
111880,note_off,0,0,0,,7,,,79,127
111881,note_on,1,0,0,,2,,,74,127
111881,note_on,0,0,0,,5,,,77,127
112024,note_off,143,0,0,,5,,,77,127
112024,note_off,0,0,0,,2,,,74,127
112025,note_on,1,0,0,,3,,,75,127
112025,note_on,0,0,0,,0,,,72,127
112168,note_off,143,0,0,,0,,,72,127
112168,note_off,0,0,0,,3,,,75,127
112168,note_off,0,0,0,,5,,,53,127
112169,note_on,1,0,0,,3,,,75,127
112169,note_on,0,0,0,,11,,,46,127
112240,note_off,71,0,0,,3,,,75,127
112241,note_on,1,0,0,,2,,,74,127
112312,note_off,71,0,0,,2,,,74,127
112313,note_on,1,0,0,,3,,,75,127
112384,note_off,71,0,0,,3,,,75,127
112385,note_on,1,0,0,,2,,,74,127
112456,note_off,71,0,0,,2,,,74,127
112457,note_on,1,0,0,,3,,,75,127
112528,note_off,71,0,0,,3,,,75,127
112529,note_on,1,0,0,,2,,,74,127
112600,note_off,71,0,0,,2,,,74,127
112600,note_off,0,0,0,,11,,,46,127
112601,note_on,1,0,0,,2,,,74,127
112601,note_on,0,0,0,,11,,,70,127
112744,note_off,143,0,0,,11,,,70,127
112744,note_off,0,0,0,,2,,,74,127
112745,note_on,1,0,0,,11,,,82,127
112745,note_on,0,0,0,,5,,,65,127
112888,note_off,143,0,0,,5,,,65,127
112888,note_off,0,0,0,,11,,,82,127
112889,note_on,1,0,0,,2,,,86,127
112889,note_on,0,0,0,,2,,,62,127
113032,note_off,143,0,0,,2,,,62,127
113032,note_off,0,0,0,,2,,,86,127
113033,note_on,1,0,0,,2,,,74,127
113033,note_on,0,0,0,,11,,,58,127
113176,note_off,143,0,0,,11,,,58,127
113176,note_off,0,0,0,,2,,,74,127
113177,note_on,1,0,0,,11,,,82,127
113177,note_on,0,0,0,,2,,,62,127
113320,note_off,143,0,0,,2,,,62,127
113320,note_off,0,0,0,,11,,,82,127
113321,note_on,1,0,0,,2,,,86,127
113321,note_on,0,0,0,,11,,,58,127
113464,note_off,143,0,0,,11,,,58,127
113464,note_off,0,0,0,,2,,,86,127
113465,note_on,1,0,0,,2,,,74,127
113465,note_on,0,0,0,,5,,,53,127
113608,note_off,143,0,0,,5,,,53,127
113608,note_off,0,0,0,,2,,,74,127
113609,note_on,1,0,0,,11,,,82,127
113609,note_on,0,0,0,,11,,,58,127
113752,note_off,143,0,0,,11,,,58,127
113752,note_off,0,0,0,,11,,,82,127
113753,note_on,1,0,0,,2,,,86,127
113753,note_on,0,0,0,,5,,,53,127
113896,note_off,143,0,0,,5,,,53,127
113896,note_off,0,0,0,,2,,,86,127
113897,note_on,1,0,0,,2,,,74,127
113897,note_on,0,0,0,,2,,,50,127
114040,note_off,143,0,0,,2,,,50,127
114040,note_off,0,0,0,,2,,,74,127
114041,note_on,1,0,0,,11,,,82,127
114041,note_on,0,0,0,,5,,,53,127
114184,note_off,143,0,0,,5,,,53,127
114184,note_off,0,0,0,,11,,,82,127
114185,note_on,1,0,0,,2,,,86,127
114185,note_on,0,0,0,,2,,,50,127
114328,note_off,143,0,0,,2,,,50,127
114329,note_on,1,0,0,,2,,,74,127
114329,note_on,0,0,0,,11,,,46,127
114395,note_off,66,0,0,,2,,,86,127
114472,note_off,77,0,0,,2,,,74,127
114473,note_on,1,0,0,,11,,,82,127
114473,note_on,0,0,0,,2,,,74,127
114616,note_off,143,0,0,,2,,,74,127
114616,note_off,0,0,0,,11,,,82,127
114617,note_on,1,0,0,,10,,,81,127
114617,note_on,0,0,0,,0,,,72,127
114760,note_off,143,0,0,,0,,,72,127
114760,note_off,0,0,0,,10,,,81,127
114760,note_off,0,0,0,,11,,,46,127
114761,note_on,1,0,0,,7,,,79,127
114761,note_on,0,0,0,,11,,,70,127
114761,note_on,0,0,0,,3,,,51,127
114904,note_off,143,0,0,,11,,,70,127
114904,note_off,0,0,0,,7,,,79,127
114905,note_on,1,0,0,,10,,,69,127
114905,note_on,0,0,0,,5,,,77,127
115048,note_off,143,0,0,,5,,,77,127
115048,note_off,0,0,0,,10,,,69,127
115049,note_on,1,0,0,,7,,,67,127
115049,note_on,0,0,0,,3,,,75,127
115192,note_off,143,0,0,,3,,,75,127
115192,note_off,0,0,0,,7,,,67,127
115192,note_off,0,0,0,,3,,,51,127
115193,note_on,1,0,0,,7,,,67,127
115193,note_on,0,0,0,,3,,,75,127
115193,note_on,0,0,0,,5,,,53,127
115336,note_off,143,0,0,,3,,,75,127
115336,note_off,0,0,0,,7,,,67,127
115337,note_on,1,0,0,,2,,,74,127
115337,note_on,0,0,0,,5,,,65,127
115480,note_off,143,0,0,,5,,,65,127
115480,note_off,0,0,0,,2,,,74,127
115481,note_on,1,0,0,,3,,,63,127
115481,note_on,0,0,0,,0,,,72,127
115624,note_off,143,0,0,,0,,,72,127
115624,note_off,0,0,0,,3,,,63,127
115624,note_off,0,0,0,,5,,,53,127
115625,note_on,1,0,0,,11,,,70,127
115625,note_on,0,0,0,,2,,,62,127
115625,note_on,0,0,0,,11,,,46,127
116056,note_off,431,0,0,,11,,,46,127
116056,note_off,0,0,0,,2,,,62,127
116056,note_off,0,0,0,,11,,,70,127
116057,note_on,1,0,0,,11,,,82,127
116057,note_on,0,0,0,,7,,,79,127
116200,note_off,143,0,0,,11,,,82,127
116201,note_on,1,0,0,,0,,,84,127
116342,note_off,141,0,0,,7,,,79,127
116344,note_off,2,0,0,,0,,,84,127
116345,note_on,1,0,0,,7,,,79,127
116488,note_off,143,0,0,,7,,,79,127
116489,note_on,1,0,0,,10,,,81,127
116489,note_on,0,0,0,,5,,,77,127
116632,note_off,143,0,0,,10,,,81,127
116633,note_on,1,0,0,,11,,,82,127
116774,note_off,141,0,0,,5,,,77,127
116776,note_off,2,0,0,,11,,,82,127
116777,note_on,1,0,0,,5,,,77,127
116920,note_off,143,0,0,,5,,,77,127
116921,note_on,1,0,0,,7,,,79,127
116921,note_on,0,0,0,,3,,,75,127
117064,note_off,143,0,0,,7,,,79,127
117065,note_on,1,0,0,,10,,,81,127
117206,note_off,141,0,0,,3,,,75,127
117208,note_off,2,0,0,,10,,,81,127
117209,note_on,1,0,0,,3,,,75,127
117352,note_off,143,0,0,,3,,,75,127
117353,note_on,1,0,0,,5,,,77,127
117353,note_on,0,0,0,,2,,,74,127
117496,note_off,143,0,0,,5,,,77,127
117497,note_on,1,0,0,,7,,,79,127
117638,note_off,141,0,0,,2,,,74,127
117640,note_off,2,0,0,,7,,,79,127
117641,note_on,1,0,0,,2,,,74,127
117784,note_off,143,0,0,,2,,,74,127
117785,note_on,1,0,0,,3,,,75,127
117785,note_on,0,0,0,,0,,,72,127
117928,note_off,143,0,0,,3,,,75,127
117929,note_on,1,0,0,,5,,,77,127
118070,note_off,141,0,0,,0,,,72,127
118072,note_off,2,0,0,,5,,,77,127
118073,note_on,1,0,0,,0,,,72,127
118216,note_off,143,0,0,,0,,,72,127
118217,note_on,1,0,0,,3,,,75,127
118217,note_on,0,0,0,,11,,,70,127
118288,note_off,71,0,0,,3,,,75,127
118289,note_on,1,0,0,,2,,,74,127
118360,note_off,71,0,0,,2,,,74,127
118361,note_on,1,0,0,,0,,,72,127
118502,note_off,141,0,0,,11,,,70,127
118504,note_off,2,0,0,,0,,,72,127
118505,note_on,1,0,0,,11,,,70,127
118625,note_off,120,0,0,,11,,,70,127
118649,note_on,24,0,0,,11,,,82,127
118649,note_on,0,0,0,,7,,,79,127
118792,note_off,143,0,0,,11,,,82,127
118793,note_on,1,0,0,,0,,,84,127
118934,note_off,141,0,0,,7,,,79,127
118936,note_off,2,0,0,,0,,,84,127
118937,note_on,1,0,0,,7,,,79,127
119080,note_off,143,0,0,,7,,,79,127
119081,note_on,1,0,0,,10,,,81,127
119081,note_on,0,0,0,,5,,,77,127
119224,note_off,143,0,0,,10,,,81,127
119225,note_on,1,0,0,,11,,,82,127
119366,note_off,141,0,0,,5,,,77,127
119368,note_off,2,0,0,,11,,,82,127
119369,note_on,1,0,0,,5,,,77,127
119512,note_off,143,0,0,,5,,,77,127
119513,note_on,1,0,0,,7,,,79,127
119513,note_on,0,0,0,,3,,,75,127
119656,note_off,143,0,0,,7,,,79,127
119657,note_on,1,0,0,,10,,,81,127
119798,note_off,141,0,0,,3,,,75,127
119800,note_off,2,0,0,,10,,,81,127
119801,note_on,1,0,0,,3,,,75,127
119944,note_off,143,0,0,,3,,,75,127
119945,note_on,1,0,0,,5,,,77,127
119945,note_on,0,0,0,,2,,,74,127
120088,note_off,143,0,0,,5,,,77,127
120089,note_on,1,0,0,,7,,,79,127
120230,note_off,141,0,0,,2,,,74,127
120232,note_off,2,0,0,,7,,,79,127
120233,note_on,1,0,0,,2,,,74,127
120376,note_off,143,0,0,,2,,,74,127
120377,note_on,1,0,0,,3,,,75,127
120377,note_on,0,0,0,,0,,,72,127
120520,note_off,143,0,0,,3,,,75,127
120521,note_on,1,0,0,,5,,,77,127
120662,note_off,141,0,0,,0,,,72,127
120664,note_off,2,0,0,,5,,,77,127
120665,note_on,1,0,0,,0,,,72,127
120808,note_off,143,0,0,,0,,,72,127
120809,note_on,1,0,0,,3,,,75,127
120809,note_on,0,0,0,,11,,,70,127
120880,note_off,71,0,0,,3,,,75,127
120881,note_on,1,0,0,,2,,,74,127
120952,note_off,71,0,0,,2,,,74,127
120953,note_on,1,0,0,,0,,,72,127
121094,note_off,141,0,0,,11,,,70,127
121096,note_off,2,0,0,,0,,,72,127
121097,note_on,1,0,0,,11,,,70,127
121240,note_off,143,0,0,,11,,,70,127
121241,note_on,1,0,0,,5,,,77,127
121385,note_on,144,0,0,,2,,,62,127
121528,note_off,143,0,0,,2,,,62,127
121529,note_on,1,0,0,,3,,,63,127
121672,note_off,143,0,0,,3,,,63,127
121673,note_on,1,0,0,,5,,,65,127
121816,note_off,143,0,0,,5,,,77,127
121817,note_on,1,0,0,,6,,,78,127
121960,note_off,143,0,0,,6,,,78,127
121961,note_on,1,0,0,,7,,,79,127
122104,note_off,143,0,0,,7,,,79,127
122105,note_on,1,0,0,,11,,,70,127
122248,note_off,143,0,0,,11,,,70,127
122249,note_on,1,0,0,,0,,,72,127
122392,note_off,143,0,0,,0,,,72,127
122393,note_off,1,0,0,,5,,,65,127
122393,note_on,0,0,0,,10,,,69,127
122536,note_off,143,0,0,,10,,,69,127
122537,note_on,1,0,0,,11,,,70,127
122537,note_on,0,0,0,,11,,,58,127
122608,note_off,71,0,0,,11,,,70,127
122609,note_on,1,0,0,,2,,,74,127
122680,note_off,71,0,0,,2,,,74,127
122681,note_on,1,0,0,,0,,,72,127
122752,note_off,71,0,0,,0,,,72,127
122753,note_on,1,0,0,,11,,,70,127
122824,note_off,71,0,0,,11,,,70,127
122825,note_on,1,0,0,,10,,,69,127
122896,note_off,71,0,0,,10,,,69,127
122897,note_on,1,0,0,,7,,,67,127
122968,note_off,71,0,0,,7,,,67,127
122969,note_on,1,0,0,,5,,,65,127
123112,note_off,143,0,0,,11,,,58,127
123113,note_on,1,0,0,,2,,,50,127
123256,note_off,143,0,0,,2,,,50,127
123257,note_on,1,0,0,,3,,,51,127
123400,note_off,143,0,0,,3,,,51,127
123401,note_on,1,0,0,,5,,,53,127
123544,note_off,143,0,0,,5,,,65,127
123545,note_on,1,0,0,,6,,,66,127
123688,note_off,143,0,0,,6,,,66,127
123689,note_on,1,0,0,,7,,,67,127
123832,note_off,143,0,0,,7,,,67,127
123833,note_on,1,0,0,,11,,,58,127
123976,note_off,143,0,0,,11,,,58,127
123977,note_on,1,0,0,,0,,,60,127
124120,note_off,143,0,0,,0,,,60,127
124121,note_off,1,0,0,,5,,,53,127
124121,note_on,0,0,0,,10,,,57,127
124264,note_off,143,0,0,,10,,,57,127
124265,note_on,1,0,0,,11,,,58,127
124265,note_on,0,0,0,,11,,,46,127
124336,note_off,71,0,0,,11,,,58,127
124337,note_on,1,0,0,,2,,,62,127
124408,note_off,71,0,0,,2,,,62,127
124409,note_on,1,0,0,,0,,,60,127
124480,note_off,71,0,0,,0,,,60,127
124481,note_on,1,0,0,,11,,,58,127
124552,note_off,71,0,0,,11,,,58,127
124553,note_on,1,0,0,,10,,,57,127
124624,note_off,71,0,0,,10,,,57,127
124625,note_on,1,0,0,,7,,,55,127
124696,note_off,71,0,0,,7,,,55,127
124697,note_on,1,0,0,,5,,,53,127
124840,note_off,143,0,0,,11,,,46,127
124841,note_on,1,0,0,,2,,,38,127
124984,note_off,143,0,0,,2,,,38,127
124985,note_on,1,0,0,,3,,,39,127
125128,note_off,143,0,0,,3,,,39,127
125129,note_on,1,0,0,,5,,,41,127
125272,note_off,143,0,0,,5,,,53,127
125273,note_on,1,0,0,,6,,,54,127
125416,note_off,143,0,0,,6,,,54,127
125417,note_on,1,0,0,,7,,,55,127
125560,note_off,143,0,0,,7,,,55,127
125561,note_on,1,0,0,,11,,,46,127
125704,note_off,143,0,0,,11,,,46,127
125705,note_on,1,0,0,,0,,,48,127
125848,note_off,143,0,0,,0,,,48,127
125849,note_off,1,0,0,,5,,,41,127
125859,note_on,10,0,0,,10,,,45,127
125859,note_on,0,0,0,,5,,,41,127
126001,note_off,142,0,0,,5,,,41,127
126002,note_off,1,0,0,,10,,,45,127
126031,note_on,29,0,0,,11,,,34,127
126031,note_on,0,0,0,,11,,,46,127
127726,note_off,1695,0,0,,11,,,46,127
127726,note_off,0,0,0,,11,,,34,127
133632,end_of_track,5906,1,0,,,,,,
