tick,type,time,meta,track,program,channel,pitch,tempo,note,velocity
0,copyright,0,1,0,,,,,,
0,program_change,0,0,0,6,0,,,,
0,pitchwheel,0,0,0,,0,0,,,
0,program_change,0,0,0,6,1,,,,
0,pitchwheel,0,0,0,,1,-590,,,
0,program_change,0,0,0,6,2,,,,
0,pitchwheel,0,0,0,,2,-272,,,
0,program_change,0,0,0,6,3,,,,
0,pitchwheel,0,0,0,,3,-353,,,
0,program_change,0,0,0,6,4,,,,
0,pitchwheel,0,0,0,,4,-560,,,
0,program_change,0,0,0,6,5,,,,
0,pitchwheel,0,0,0,,5,-80,,,
0,program_change,0,0,0,6,6,,,,
0,pitchwheel,0,0,0,,6,-625,,,
0,program_change,0,0,0,6,7,,,,
0,pitchwheel,0,0,0,,7,-130,,,
0,program_change,0,0,0,6,8,,,,
0,pitchwheel,0,0,0,,8,-512,,,
0,program_change,0,0,0,6,10,,,,
0,pitchwheel,0,0,0,,10,-464,,,
0,program_change,0,0,0,6,11,,,,
0,pitchwheel,0,0,0,,11,-208,,,
0,program_change,0,0,0,6,12,,,,
0,pitchwheel,0,0,0,,12,-553,,,
0,set_tempo,0,1,0,,,,500000,,
136,note_on,136,0,0,,12,,,71,127
678,note_on,542,0,0,,7,,,55,127
812,note_off,134,0,0,,12,,,71,127
813,note_on,1,0,0,,1,,,73,127
947,note_off,134,0,0,,1,,,73,127
948,note_on,1,0,0,,2,,,74,127
1082,note_off,134,0,0,,2,,,74,127
1083,note_on,1,0,0,,4,,,76,127
1217,note_off,134,0,0,,4,,,76,127
1217,note_off,0,0,0,,7,,,55,127
1218,note_on,1,0,0,,6,,,54,127
1218,note_on,0,0,0,,4,,,76,127
1488,note_off,270,0,0,,4,,,76,127
1489,note_on,1,0,0,,6,,,66,127
1489,note_on,0,0,0,,6,,,78,127
1759,note_off,270,0,0,,6,,,78,127
1760,note_on,1,0,0,,10,,,69,127
1826,note_off,66,0,0,,10,,,69,127
1827,note_on,1,0,0,,7,,,67,127
1893,note_off,66,0,0,,7,,,67,127
1894,note_on,1,0,0,,10,,,69,127
1960,note_off,66,0,0,,10,,,69,127
1961,note_on,1,0,0,,7,,,67,127
2027,note_off,66,0,0,,6,,,66,127
2028,note_on,1,0,0,,4,,,64,127
2228,note_off,200,0,0,,7,,,67,127
2297,note_off,69,0,0,,6,,,54,127
2298,note_on,1,0,0,,12,,,71,127
2366,note_off,68,0,0,,4,,,64,127
2432,note_off,66,0,0,,12,,,71,127
2433,note_on,1,0,0,,11,,,70,127
2567,note_off,134,0,0,,11,,,70,127
2568,note_on,1,0,0,,2,,,62,127
2568,note_on,0,0,0,,12,,,71,127
2702,note_off,134,0,0,,12,,,71,127
2702,note_off,0,0,0,,2,,,62,127
2703,note_on,1,0,0,,1,,,61,127
2703,note_on,0,0,0,,1,,,73,127
2837,note_off,134,0,0,,1,,,73,127
2837,note_off,0,0,0,,1,,,61,127
2838,note_on,1,0,0,,12,,,59,127
2838,note_on,0,0,0,,1,,,73,127
2972,note_off,134,0,0,,1,,,73,127
2972,note_off,0,0,0,,12,,,59,127
2973,note_on,1,0,0,,10,,,57,127
2973,note_on,0,0,0,,2,,,74,127
3107,note_off,134,0,0,,2,,,74,127
3107,note_off,0,0,0,,10,,,57,127
3108,note_on,1,0,0,,7,,,55,127
3108,note_on,0,0,0,,2,,,74,127
3242,note_off,134,0,0,,2,,,74,127
3243,note_on,1,0,0,,4,,,76,127
3377,note_off,134,0,0,,4,,,76,127
3377,note_off,0,0,0,,7,,,55,127
3378,note_on,1,0,0,,6,,,54,127
3378,note_on,0,0,0,,4,,,76,127
3648,note_off,270,0,0,,4,,,76,127
3649,note_on,1,0,0,,6,,,66,127
3649,note_on,0,0,0,,6,,,78,127
3919,note_off,270,0,0,,6,,,78,127
3920,note_on,1,0,0,,10,,,69,127
3986,note_off,66,0,0,,10,,,69,127
3987,note_on,1,0,0,,7,,,67,127
4053,note_off,66,0,0,,7,,,67,127
4054,note_on,1,0,0,,10,,,69,127
4120,note_off,66,0,0,,10,,,69,127
4121,note_on,1,0,0,,7,,,67,127
4187,note_off,66,0,0,,6,,,66,127
4188,note_on,1,0,0,,4,,,64,127
4431,note_off,243,0,0,,7,,,67,127
4458,note_off,27,0,0,,6,,,54,127
4459,note_on,1,0,0,,12,,,71,127
4527,note_off,68,0,0,,4,,,64,127
4593,note_off,66,0,0,,12,,,71,127
4594,note_on,1,0,0,,11,,,70,127
4728,note_off,134,0,0,,11,,,70,127
4729,note_on,1,0,0,,2,,,62,127
4729,note_on,0,0,0,,12,,,71,127
4863,note_off,134,0,0,,12,,,71,127
4863,note_off,0,0,0,,2,,,62,127
4864,note_on,1,0,0,,1,,,61,127
4864,note_on,0,0,0,,1,,,73,127
4998,note_off,134,0,0,,1,,,73,127
4998,note_off,0,0,0,,1,,,61,127
4999,note_on,1,0,0,,12,,,59,127
4999,note_on,0,0,0,,1,,,73,127
5133,note_off,134,0,0,,1,,,73,127
5133,note_off,0,0,0,,12,,,59,127
5134,note_on,1,0,0,,10,,,57,127
5134,note_on,0,0,0,,2,,,74,127
5268,note_off,134,0,0,,2,,,74,127
5268,note_off,0,0,0,,10,,,57,127
5269,note_on,1,0,0,,7,,,55,127
5269,note_on,0,0,0,,2,,,74,127
5403,note_off,134,0,0,,2,,,74,127
5404,note_on,1,0,0,,4,,,76,127
5538,note_off,134,0,0,,4,,,76,127
5538,note_off,0,0,0,,7,,,55,127
5539,note_on,1,0,0,,6,,,54,127
5539,note_on,0,0,0,,4,,,76,127
5809,note_off,270,0,0,,4,,,76,127
5810,note_on,1,0,0,,6,,,66,127
5810,note_on,0,0,0,,6,,,78,127
6080,note_off,270,0,0,,6,,,78,127
6081,note_on,1,0,0,,10,,,81,127
6215,note_off,134,0,0,,10,,,81,127
6216,note_on,1,0,0,,7,,,79,127
6350,note_off,134,0,0,,6,,,66,127
6351,note_on,1,0,0,,4,,,64,127
6351,note_on,0,0,0,,11,,,70,127
6621,note_off,270,0,0,,11,,,70,127
6621,note_off,0,0,0,,4,,,64,127
6621,note_off,0,0,0,,6,,,54,127
6622,note_on,1,0,0,,2,,,62,127
6622,note_on,0,0,0,,12,,,71,127
6756,note_off,134,0,0,,7,,,79,127
6757,note_on,1,0,0,,6,,,78,127
6891,note_off,134,0,0,,6,,,78,127
6891,note_off,0,0,0,,2,,,62,127
6892,note_on,1,0,0,,7,,,67,127
6892,note_on,0,0,0,,4,,,76,127
7026,note_off,134,0,0,,4,,,76,127
7027,note_on,1,0,0,,2,,,74,127
7161,note_off,134,0,0,,2,,,74,127
7161,note_off,0,0,0,,7,,,67,127
7161,note_off,0,0,0,,12,,,71,127
7162,note_on,1,0,0,,4,,,64,127
7162,note_on,0,0,0,,1,,,73,127
7162,note_on,0,0,0,,6,,,78,127
7296,note_off,134,0,0,,6,,,78,127
7297,note_on,1,0,0,,4,,,76,127
7430,note_off,133,0,0,,1,,,73,127
7431,note_off,1,0,0,,4,,,76,127
7431,note_off,0,0,0,,4,,,64,127
7432,note_on,1,0,0,,6,,,66,127
7432,note_on,0,0,0,,12,,,71,127
7432,note_on,0,0,0,,2,,,74,127
7566,note_off,134,0,0,,2,,,74,127
7566,note_off,0,0,0,,12,,,71,127
7567,note_on,1,0,0,,1,,,73,127
7567,note_on,0,0,0,,11,,,70,127
7701,note_off,134,0,0,,11,,,70,127
7701,note_off,0,0,0,,1,,,73,127
7701,note_off,0,0,0,,6,,,66,127
7702,note_on,1,0,0,,2,,,62,127
7702,note_on,0,0,0,,4,,,76,127
7702,note_on,0,0,0,,12,,,71,127
7836,note_off,134,0,0,,4,,,76,127
7837,note_on,1,0,0,,2,,,74,127
7970,note_off,133,0,0,,12,,,71,127
7971,note_off,1,0,0,,2,,,74,127
7971,note_off,0,0,0,,2,,,62,127
7972,note_on,1,0,0,,7,,,67,127
7972,note_on,0,0,0,,11,,,70,127
7972,note_on,0,0,0,,1,,,73,127
8106,note_off,134,0,0,,1,,,73,127
8106,note_off,0,0,0,,11,,,70,127
8107,note_on,1,0,0,,2,,,74,127
8107,note_on,0,0,0,,12,,,71,127
8241,note_off,134,0,0,,12,,,71,127
8241,note_off,0,0,0,,2,,,74,127
8241,note_off,0,0,0,,7,,,67,127
8242,note_on,1,0,0,,4,,,64,127
8242,note_on,0,0,0,,6,,,78,127
8242,note_on,0,0,0,,1,,,73,127
8376,note_off,134,0,0,,6,,,78,127
8377,note_on,1,0,0,,4,,,76,127
8510,note_off,133,0,0,,1,,,73,127
8511,note_off,1,0,0,,4,,,76,127
8511,note_off,0,0,0,,4,,,64,127
8512,note_on,1,0,0,,6,,,66,127
8512,note_on,0,0,0,,12,,,71,127
8512,note_on,0,0,0,,2,,,74,127
8646,note_off,134,0,0,,2,,,74,127
8646,note_off,0,0,0,,12,,,71,127
8647,note_on,1,0,0,,1,,,73,127
8647,note_on,0,0,0,,11,,,70,127
8781,note_off,134,0,0,,11,,,70,127
8781,note_off,0,0,0,,1,,,73,127
8781,note_off,0,0,0,,6,,,66,127
8782,note_on,1,0,0,,2,,,62,127
8782,note_on,0,0,0,,4,,,76,127
8782,note_on,0,0,0,,12,,,71,127
8916,note_off,134,0,0,,4,,,76,127
8917,note_on,1,0,0,,2,,,74,127
9050,note_off,133,0,0,,12,,,71,127
9051,note_off,1,0,0,,2,,,74,127
9051,note_off,0,0,0,,2,,,62,127
9052,note_on,1,0,0,,7,,,67,127
9052,note_on,0,0,0,,11,,,70,127
9052,note_on,0,0,0,,1,,,73,127
9186,note_off,134,0,0,,1,,,73,127
9186,note_off,0,0,0,,11,,,70,127
9187,note_on,1,0,0,,12,,,71,127
9187,note_on,0,0,0,,2,,,74,127
9321,note_off,134,0,0,,2,,,74,127
9321,note_off,0,0,0,,12,,,71,127
9321,note_off,0,0,0,,7,,,67,127
9322,note_on,1,0,0,,4,,,64,127
9322,note_on,0,0,0,,6,,,78,127
9322,note_on,0,0,0,,2,,,74,127
9456,note_off,134,0,0,,2,,,74,127
9456,note_off,0,0,0,,6,,,78,127
9457,note_on,1,0,0,,1,,,73,127
9457,note_on,0,0,0,,4,,,76,127
9591,note_off,134,0,0,,4,,,76,127
9591,note_off,0,0,0,,1,,,73,127
9591,note_off,0,0,0,,4,,,64,127
9592,note_on,1,0,0,,6,,,66,127
9592,note_on,0,0,0,,2,,,74,127
9592,note_on,0,0,0,,12,,,71,127
9726,note_off,134,0,0,,12,,,71,127
9726,note_off,0,0,0,,2,,,74,127
9727,note_on,1,0,0,,1,,,73,127
9727,note_on,0,0,0,,11,,,70,127
9861,note_off,134,0,0,,11,,,70,127
9861,note_off,0,0,0,,1,,,73,127
9861,note_off,0,0,0,,6,,,66,127
9862,note_on,1,0,0,,12,,,59,127
9862,note_on,0,0,0,,1,,,73,127
9928,note_off,66,0,0,,1,,,73,127
9929,note_on,1,0,0,,12,,,71,127
9995,note_off,66,0,0,,12,,,71,127
9995,note_off,0,0,0,,12,,,59,127
9996,note_on,1,0,0,,6,,,54,127
9996,note_on,0,0,0,,1,,,73,127
10062,note_off,66,0,0,,1,,,73,127
10063,note_on,1,0,0,,12,,,71,127
10129,note_off,66,0,0,,12,,,71,127
10129,note_off,0,0,0,,6,,,54,127
10130,note_on,1,0,0,,2,,,50,127
10130,note_on,0,0,0,,1,,,73,127
10196,note_off,66,0,0,,1,,,73,127
10197,note_on,1,0,0,,12,,,71,127
10263,note_off,66,0,0,,12,,,71,127
10263,note_off,0,0,0,,2,,,50,127
10264,note_on,1,0,0,,12,,,47,127
10264,note_on,0,0,0,,1,,,73,127
10330,note_off,66,0,0,,1,,,73,127
10331,note_on,1,0,0,,12,,,71,127
10399,note_on,68,0,0,,12,,,35,127
10796,note_off,397,0,0,,12,,,71,127
10800,note_off,4,0,0,,12,,,47,127
10940,note_off,140,0,0,,12,,,35,127
10941,note_on,1,0,0,,12,,,71,127
10941,note_on,0,0,0,,7,,,79,127
11007,note_off,66,0,0,,7,,,79,127
11008,note_on,1,0,0,,6,,,78,127
11074,note_off,66,0,0,,6,,,78,127
11075,note_on,1,0,0,,7,,,79,127
11141,note_off,66,0,0,,7,,,79,127
11142,note_on,1,0,0,,6,,,78,127
11208,note_off,66,0,0,,6,,,78,127
11209,note_on,1,0,0,,12,,,59,127
11209,note_on,0,0,0,,7,,,79,127
11275,note_off,66,0,0,,7,,,79,127
11276,note_on,1,0,0,,6,,,78,127
11342,note_off,66,0,0,,6,,,78,127
11343,note_on,1,0,0,,7,,,79,127
11409,note_off,66,0,0,,7,,,79,127
11410,note_on,1,0,0,,6,,,78,127
11476,note_off,66,0,0,,6,,,78,127
11476,note_off,0,0,0,,12,,,59,127
11477,note_on,1,0,0,,2,,,62,127
11477,note_on,0,0,0,,7,,,79,127
11543,note_off,66,0,0,,7,,,79,127
11544,note_on,1,0,0,,6,,,78,127
11610,note_off,66,0,0,,6,,,78,127
11611,note_on,1,0,0,,7,,,79,127
11677,note_off,66,0,0,,7,,,79,127
11678,note_on,1,0,0,,6,,,78,127
11744,note_off,66,0,0,,6,,,78,127
11744,note_off,0,0,0,,2,,,62,127
11745,note_on,1,0,0,,12,,,59,127
11745,note_on,0,0,0,,7,,,79,127
11811,note_off,66,0,0,,7,,,79,127
11812,note_on,1,0,0,,6,,,78,127
11878,note_off,66,0,0,,6,,,78,127
11879,note_on,1,0,0,,4,,,76,127
11945,note_off,66,0,0,,4,,,76,127
11946,note_on,1,0,0,,6,,,78,127
12012,note_off,66,0,0,,6,,,78,127
12012,note_off,0,0,0,,12,,,59,127
12013,note_on,1,0,0,,4,,,64,127
12013,note_on,0,0,0,,7,,,79,127
12147,note_off,134,0,0,,4,,,64,127
12148,note_on,1,0,0,,12,,,59,127
12282,note_off,134,0,0,,12,,,59,127
12283,note_on,1,0,0,,7,,,55,127
12417,note_off,134,0,0,,7,,,55,127
12418,note_on,1,0,0,,4,,,52,127
12554,note_off,136,0,0,,12,,,71,127
12554,note_on,0,0,0,,4,,,40,127
12688,note_off,134,0,0,,7,,,79,127
12689,note_on,1,0,0,,6,,,78,127
12823,note_off,134,0,0,,6,,,78,127
12824,note_on,1,0,0,,4,,,76,127
12954,note_off,130,0,0,,4,,,52,127
12958,note_off,4,0,0,,4,,,76,127
12959,note_on,1,0,0,,2,,,74,127
13093,note_off,134,0,0,,2,,,74,127
13093,note_off,0,0,0,,4,,,40,127
13094,note_on,1,0,0,,10,,,69,127
13094,note_on,0,0,0,,6,,,78,127
13160,note_off,66,0,0,,6,,,78,127
13161,note_on,1,0,0,,4,,,76,127
13227,note_off,66,0,0,,4,,,76,127
13228,note_on,1,0,0,,6,,,78,127
13294,note_off,66,0,0,,6,,,78,127
13295,note_on,1,0,0,,4,,,76,127
13361,note_off,66,0,0,,4,,,76,127
13362,note_on,1,0,0,,10,,,57,127
13362,note_on,0,0,0,,6,,,78,127
13428,note_off,66,0,0,,6,,,78,127
13429,note_on,1,0,0,,4,,,76,127
13495,note_off,66,0,0,,4,,,76,127
13496,note_on,1,0,0,,6,,,78,127
13562,note_off,66,0,0,,6,,,78,127
13563,note_on,1,0,0,,4,,,76,127
13629,note_off,66,0,0,,4,,,76,127
13629,note_off,0,0,0,,10,,,57,127
13630,note_on,1,0,0,,1,,,61,127
13630,note_on,0,0,0,,6,,,78,127
13696,note_off,66,0,0,,6,,,78,127
13697,note_on,1,0,0,,4,,,76,127
13763,note_off,66,0,0,,4,,,76,127
13764,note_on,1,0,0,,6,,,78,127
13830,note_off,66,0,0,,6,,,78,127
13831,note_on,1,0,0,,4,,,76,127
13897,note_off,66,0,0,,4,,,76,127
13897,note_off,0,0,0,,1,,,61,127
13898,note_on,1,0,0,,10,,,57,127
13898,note_on,0,0,0,,6,,,78,127
13964,note_off,66,0,0,,6,,,78,127
13965,note_on,1,0,0,,4,,,76,127
14031,note_off,66,0,0,,4,,,76,127
14032,note_on,1,0,0,,2,,,74,127
14098,note_off,66,0,0,,2,,,74,127
14099,note_on,1,0,0,,4,,,76,127
14165,note_off,66,0,0,,4,,,76,127
14165,note_off,0,0,0,,10,,,57,127
14166,note_on,1,0,0,,2,,,62,127
14166,note_on,0,0,0,,6,,,78,127
14300,note_off,134,0,0,,2,,,62,127
14301,note_on,1,0,0,,10,,,57,127
14435,note_off,134,0,0,,10,,,57,127
14436,note_on,1,0,0,,6,,,54,127
14570,note_off,134,0,0,,6,,,54,127
14571,note_on,1,0,0,,2,,,50,127
14707,note_off,136,0,0,,10,,,69,127
14707,note_on,0,0,0,,2,,,38,127
14841,note_off,134,0,0,,6,,,78,127
14842,note_on,1,0,0,,4,,,76,127
14976,note_off,134,0,0,,4,,,76,127
14977,note_on,1,0,0,,2,,,74,127
15107,note_off,130,0,0,,2,,,50,127
15111,note_off,4,0,0,,2,,,74,127
15112,note_on,1,0,0,,1,,,73,127
15246,note_off,134,0,0,,1,,,73,127
15246,note_off,0,0,0,,2,,,38,127
15247,note_on,1,0,0,,4,,,76,127
15247,note_on,0,0,0,,7,,,67,127
15313,note_off,66,0,0,,4,,,76,127
15314,note_on,1,0,0,,2,,,74,127
15380,note_off,66,0,0,,2,,,74,127
15381,note_on,1,0,0,,4,,,76,127
15447,note_off,66,0,0,,4,,,76,127
15448,note_on,1,0,0,,2,,,74,127
15514,note_off,66,0,0,,2,,,74,127
15515,note_on,1,0,0,,7,,,55,127
15515,note_on,0,0,0,,4,,,76,127
15581,note_off,66,0,0,,4,,,76,127
15582,note_on,1,0,0,,2,,,74,127
15648,note_off,66,0,0,,2,,,74,127
15649,note_on,1,0,0,,4,,,76,127
15715,note_off,66,0,0,,4,,,76,127
15716,note_on,1,0,0,,2,,,74,127
15782,note_off,66,0,0,,2,,,74,127
15782,note_off,0,0,0,,7,,,55,127
15783,note_on,1,0,0,,12,,,59,127
15783,note_on,0,0,0,,4,,,76,127
15849,note_off,66,0,0,,4,,,76,127
15850,note_on,1,0,0,,2,,,74,127
15916,note_off,66,0,0,,2,,,74,127
15917,note_on,1,0,0,,4,,,76,127
15983,note_off,66,0,0,,4,,,76,127
15984,note_on,1,0,0,,2,,,74,127
16050,note_off,66,0,0,,2,,,74,127
16050,note_off,0,0,0,,12,,,59,127
16051,note_on,1,0,0,,7,,,55,127
16051,note_on,0,0,0,,4,,,76,127
16117,note_off,66,0,0,,4,,,76,127
16118,note_on,1,0,0,,2,,,74,127
16184,note_off,66,0,0,,2,,,74,127
16185,note_on,1,0,0,,1,,,73,127
16251,note_off,66,0,0,,1,,,73,127
16252,note_on,1,0,0,,2,,,74,127
16318,note_off,66,0,0,,2,,,74,127
16318,note_off,0,0,0,,7,,,55,127
16319,note_on,1,0,0,,1,,,61,127
16319,note_on,0,0,0,,4,,,76,127
16453,note_off,134,0,0,,1,,,61,127
16454,note_on,1,0,0,,7,,,55,127
16588,note_off,134,0,0,,7,,,55,127
16589,note_on,1,0,0,,4,,,52,127
16723,note_off,134,0,0,,4,,,52,127
16724,note_on,1,0,0,,1,,,49,127
16860,note_off,136,0,0,,7,,,67,127
16860,note_on,0,0,0,,1,,,37,127
16994,note_off,134,0,0,,4,,,76,127
16995,note_on,1,0,0,,2,,,74,127
17129,note_off,134,0,0,,2,,,74,127
17130,note_on,1,0,0,,1,,,73,127
17260,note_off,130,0,0,,1,,,49,127
17264,note_off,4,0,0,,1,,,73,127
17265,note_on,1,0,0,,12,,,71,127
17399,note_off,134,0,0,,12,,,71,127
17399,note_off,0,0,0,,1,,,37,127
17400,note_on,1,0,0,,2,,,74,127
17400,note_on,0,0,0,,6,,,66,127
17466,note_off,66,0,0,,2,,,74,127
17467,note_on,1,0,0,,1,,,73,127
17533,note_off,66,0,0,,1,,,73,127
17534,note_on,1,0,0,,2,,,74,127
17600,note_off,66,0,0,,2,,,74,127
17601,note_on,1,0,0,,1,,,73,127
17667,note_off,66,0,0,,1,,,73,127
17668,note_on,1,0,0,,6,,,54,127
17668,note_on,0,0,0,,2,,,74,127
17734,note_off,66,0,0,,2,,,74,127
17735,note_on,1,0,0,,1,,,73,127
17801,note_off,66,0,0,,1,,,73,127
17802,note_on,1,0,0,,2,,,74,127
17868,note_off,66,0,0,,2,,,74,127
17869,note_on,1,0,0,,1,,,73,127
17935,note_off,66,0,0,,1,,,73,127
17935,note_off,0,0,0,,6,,,54,127
17936,note_on,1,0,0,,11,,,58,127
17936,note_on,0,0,0,,2,,,74,127
18002,note_off,66,0,0,,2,,,74,127
18003,note_on,1,0,0,,1,,,73,127
18069,note_off,66,0,0,,1,,,73,127
18070,note_on,1,0,0,,2,,,74,127
18136,note_off,66,0,0,,2,,,74,127
18137,note_on,1,0,0,,1,,,73,127
18203,note_off,66,0,0,,1,,,73,127
18203,note_off,0,0,0,,11,,,58,127
18204,note_on,1,0,0,,6,,,54,127
18204,note_on,0,0,0,,2,,,74,127
18270,note_off,66,0,0,,2,,,74,127
18271,note_on,1,0,0,,1,,,73,127
18337,note_off,66,0,0,,1,,,73,127
18338,note_on,1,0,0,,12,,,71,127
18404,note_off,66,0,0,,12,,,71,127
18405,note_on,1,0,0,,1,,,73,127
18471,note_off,66,0,0,,1,,,73,127
18471,note_off,0,0,0,,6,,,54,127
18472,note_on,1,0,0,,12,,,59,127
18472,note_on,0,0,0,,2,,,74,127
18606,note_off,134,0,0,,12,,,59,127
18607,note_on,1,0,0,,6,,,54,127
18741,note_off,134,0,0,,6,,,54,127
18742,note_on,1,0,0,,2,,,50,127
18876,note_off,134,0,0,,2,,,50,127
18877,note_on,1,0,0,,12,,,47,127
19013,note_off,136,0,0,,6,,,66,127
19013,note_on,0,0,0,,12,,,35,127
19149,note_off,136,0,0,,2,,,74,127
19285,note_on,136,0,0,,6,,,66,127
19415,note_off,130,0,0,,12,,,47,127
19419,note_off,4,0,0,,6,,,66,127
19420,note_on,1,0,0,,4,,,64,127
19554,note_off,134,0,0,,4,,,64,127
19555,note_on,1,0,0,,2,,,62,127
19689,note_off,134,0,0,,2,,,62,127
19690,note_off,1,0,0,,12,,,35,127
19690,note_on,0,0,0,,4,,,64,127
19824,note_off,134,0,0,,4,,,64,127
19825,note_on,1,0,0,,10,,,57,127
19825,note_on,0,0,0,,6,,,66,127
19959,note_off,134,0,0,,6,,,66,127
19959,note_off,0,0,0,,10,,,57,127
19960,note_on,1,0,0,,7,,,55,127
19960,note_on,0,0,0,,7,,,67,127
20094,note_off,134,0,0,,7,,,67,127
20094,note_off,0,0,0,,7,,,55,127
20095,note_on,1,0,0,,6,,,54,127
20095,note_on,0,0,0,,10,,,69,127
20229,note_off,134,0,0,,10,,,69,127
20230,note_on,1,0,0,,7,,,55,127
20230,note_on,0,0,0,,12,,,71,127
20364,note_off,134,0,0,,12,,,71,127
20364,note_off,0,0,0,,7,,,55,127
20365,note_on,1,0,0,,10,,,57,127
20365,note_on,0,0,0,,1,,,73,127
20499,note_off,134,0,0,,1,,,73,127
20499,note_off,0,0,0,,10,,,57,127
20500,note_on,1,0,0,,12,,,59,127
20500,note_on,0,0,0,,2,,,74,127
20634,note_off,134,0,0,,2,,,74,127
20634,note_off,0,0,0,,12,,,59,127
20634,note_off,0,0,0,,6,,,54,127
20635,note_on,1,0,0,,1,,,61,127
20635,note_on,0,0,0,,4,,,52,127
20635,note_on,0,0,0,,4,,,76,127
20769,note_off,134,0,0,,4,,,76,127
20769,note_off,0,0,0,,1,,,61,127
20770,note_on,1,0,0,,2,,,62,127
20770,note_on,0,0,0,,6,,,78,127
20904,note_off,134,0,0,,6,,,78,127
20904,note_off,0,0,0,,2,,,62,127
20905,note_on,1,0,0,,4,,,64,127
20905,note_on,0,0,0,,7,,,79,127
21039,note_off,134,0,0,,7,,,79,127
21039,note_off,0,0,0,,4,,,64,127
21040,note_on,1,0,0,,1,,,61,127
21040,note_on,0,0,0,,4,,,76,127
21174,note_off,134,0,0,,4,,,76,127
21174,note_off,0,0,0,,1,,,61,127
21174,note_off,0,0,0,,4,,,52,127
21175,note_on,1,0,0,,2,,,50,127
21175,note_on,0,0,0,,2,,,62,127
21175,note_on,0,0,0,,6,,,78,127
21309,note_off,134,0,0,,6,,,78,127
21309,note_off,0,0,0,,2,,,50,127
21310,note_on,1,0,0,,4,,,52,127
21310,note_on,0,0,0,,7,,,79,127
21444,note_off,134,0,0,,7,,,79,127
21444,note_off,0,0,0,,4,,,52,127
21445,note_on,1,0,0,,6,,,54,127
21445,note_on,0,0,0,,10,,,81,127
21579,note_off,134,0,0,,10,,,81,127
21579,note_off,0,0,0,,6,,,54,127
21580,note_on,1,0,0,,7,,,55,127
21580,note_on,0,0,0,,2,,,74,127
21714,note_off,134,0,0,,2,,,74,127
21714,note_off,0,0,0,,7,,,55,127
21714,note_off,0,0,0,,2,,,62,127
21715,note_on,1,0,0,,10,,,57,127
21715,note_on,0,0,0,,10,,,45,127
21715,note_on,0,0,0,,1,,,73,127
21849,note_off,134,0,0,,1,,,73,127
21849,note_off,0,0,0,,10,,,45,127
21850,note_on,1,0,0,,12,,,47,127
21850,note_on,0,0,0,,2,,,74,127
21984,note_off,134,0,0,,2,,,74,127
21984,note_off,0,0,0,,12,,,47,127
21985,note_on,1,0,0,,1,,,49,127
21985,note_on,0,0,0,,4,,,76,127
22119,note_off,134,0,0,,4,,,76,127
22119,note_off,0,0,0,,1,,,49,127
22120,note_on,1,0,0,,10,,,45,127
22120,note_on,0,0,0,,7,,,67,127
22254,note_off,134,0,0,,7,,,67,127
22254,note_off,0,0,0,,10,,,45,127
22254,note_off,0,0,0,,10,,,57,127
22255,note_on,1,0,0,,2,,,50,127
22255,note_on,0,0,0,,6,,,66,127
22389,note_off,134,0,0,,6,,,66,127
22389,note_off,0,0,0,,2,,,50,127
22390,note_on,1,0,0,,4,,,52,127
22390,note_on,0,0,0,,7,,,67,127
22524,note_off,134,0,0,,7,,,67,127
22524,note_off,0,0,0,,4,,,52,127
22525,note_on,1,0,0,,6,,,54,127
22525,note_on,0,0,0,,10,,,69,127
22659,note_off,134,0,0,,10,,,69,127
22659,note_off,0,0,0,,6,,,54,127
22660,note_on,1,0,0,,7,,,55,127
22660,note_on,0,0,0,,2,,,62,127
22794,note_off,134,0,0,,2,,,62,127
22794,note_off,0,0,0,,7,,,55,127
22795,note_on,1,0,0,,10,,,57,127
22795,note_on,0,0,0,,2,,,62,127
22861,note_off,66,0,0,,2,,,62,127
22862,note_on,1,0,0,,1,,,61,127
22928,note_off,66,0,0,,1,,,61,127
22929,note_on,1,0,0,,2,,,62,127
22995,note_off,66,0,0,,2,,,62,127
22996,note_on,1,0,0,,1,,,61,127
23062,note_off,66,0,0,,1,,,61,127
23063,note_on,1,0,0,,2,,,62,127
23063,note_on,0,0,0,,10,,,45,127
23129,note_off,66,0,0,,2,,,62,127
23130,note_on,1,0,0,,1,,,61,127
23196,note_off,66,0,0,,1,,,61,127
23196,note_off,0,0,0,,10,,,57,127
23197,note_on,1,0,0,,12,,,59,127
23331,note_off,134,0,0,,12,,,59,127
23332,note_on,1,0,0,,10,,,57,127
23332,note_on,0,0,0,,10,,,33,127
23468,note_off,136,0,0,,10,,,45,127
23739,note_off,271,0,0,,10,,,57,127
23873,note_off,134,0,0,,10,,,33,127
24145,note_on,272,0,0,,10,,,69,127
24415,note_off,270,0,0,,10,,,69,127
24416,note_on,1,0,0,,5,,,77,127
24687,note_on,271,0,0,,10,,,57,127
24958,note_on,271,0,0,,5,,,65,127
25092,note_off,134,0,0,,5,,,77,127
25093,note_on,1,0,0,,2,,,74,127
25227,note_off,134,0,0,,2,,,74,127
25228,note_on,1,0,0,,2,,,74,127
25362,note_off,134,0,0,,2,,,74,127
25363,note_on,1,0,0,,11,,,70,127
25497,note_off,134,0,0,,11,,,70,127
25497,note_off,0,0,0,,10,,,57,127
25498,note_on,1,0,0,,7,,,55,127
25498,note_on,0,0,0,,11,,,70,127
25631,note_off,133,0,0,,5,,,65,127
25634,note_on,3,0,0,,2,,,62,127
25768,note_off,134,0,0,,2,,,62,127
25769,note_on,1,0,0,,2,,,62,127
25903,note_off,134,0,0,,2,,,62,127
25904,note_on,1,0,0,,11,,,58,127
26038,note_off,134,0,0,,11,,,58,127
26039,note_on,1,0,0,,11,,,58,127
26175,note_off,136,0,0,,11,,,70,127
26311,note_on,136,0,0,,7,,,67,127
26581,note_off,270,0,0,,7,,,67,127
26581,note_off,0,0,0,,11,,,58,127
26581,note_off,0,0,0,,7,,,55,127
26582,note_on,1,0,0,,7,,,79,127
26853,note_on,271,0,0,,7,,,55,127
27124,note_on,271,0,0,,7,,,67,127
27258,note_off,134,0,0,,7,,,79,127
27259,note_on,1,0,0,,4,,,76,127
27393,note_off,134,0,0,,4,,,76,127
27394,note_on,1,0,0,,4,,,76,127
27528,note_off,134,0,0,,4,,,76,127
27529,note_on,1,0,0,,1,,,73,127
27663,note_off,134,0,0,,1,,,73,127
27663,note_off,0,0,0,,7,,,55,127
27664,note_on,1,0,0,,10,,,57,127
27664,note_on,0,0,0,,1,,,73,127
27797,note_off,133,0,0,,7,,,67,127
27800,note_on,3,0,0,,4,,,64,127
27934,note_off,134,0,0,,4,,,64,127
27935,note_on,1,0,0,,4,,,64,127
28069,note_off,134,0,0,,4,,,64,127
28070,note_on,1,0,0,,1,,,61,127
28204,note_off,134,0,0,,1,,,61,127
28205,note_on,1,0,0,,1,,,61,127
28475,note_off,270,0,0,,1,,,73,127
28476,note_on,1,0,0,,10,,,69,127
28746,note_off,270,0,0,,10,,,69,127
28746,note_off,0,0,0,,1,,,61,127
28746,note_off,0,0,0,,10,,,57,127
28747,note_on,1,0,0,,10,,,81,127
29018,note_on,271,0,0,,10,,,57,127
29289,note_on,271,0,0,,10,,,69,127
29423,note_off,134,0,0,,10,,,81,127
29424,note_on,1,0,0,,7,,,79,127
29558,note_off,134,0,0,,7,,,79,127
29559,note_on,1,0,0,,5,,,77,127
29693,note_off,134,0,0,,5,,,77,127
29694,note_on,1,0,0,,4,,,76,127
29828,note_off,134,0,0,,4,,,76,127
29828,note_off,0,0,0,,10,,,57,127
29829,note_on,1,0,0,,11,,,58,127
29829,note_on,0,0,0,,2,,,74,127
29962,note_off,133,0,0,,10,,,69,127
29965,note_on,3,0,0,,7,,,67,127
30099,note_off,134,0,0,,7,,,67,127
30100,note_on,1,0,0,,5,,,65,127
30234,note_off,134,0,0,,5,,,65,127
30235,note_on,1,0,0,,4,,,64,127
30369,note_off,134,0,0,,4,,,64,127
30370,note_on,1,0,0,,2,,,62,127
30504,note_off,134,0,0,,2,,,62,127
30505,note_on,1,0,0,,5,,,65,127
30639,note_off,134,0,0,,5,,,65,127
30639,note_off,0,0,0,,2,,,74,127
30640,note_on,1,0,0,,4,,,64,127
30640,note_on,0,0,0,,7,,,79,127
30774,note_off,134,0,0,,4,,,64,127
30775,note_on,1,0,0,,2,,,62,127
30909,note_off,134,0,0,,2,,,62,127
30909,note_off,0,0,0,,11,,,58,127
30910,note_on,1,0,0,,1,,,61,127
31044,note_off,134,0,0,,1,,,61,127
31045,note_on,1,0,0,,10,,,57,127
31179,note_off,134,0,0,,10,,,57,127
31179,note_off,0,0,0,,7,,,79,127
31180,note_on,1,0,0,,12,,,59,127
31180,note_on,0,0,0,,5,,,77,127
31314,note_off,134,0,0,,5,,,77,127
31314,note_off,0,0,0,,12,,,59,127
31315,note_on,1,0,0,,1,,,61,127
31315,note_on,0,0,0,,4,,,76,127
31449,note_off,134,0,0,,4,,,76,127
31449,note_off,0,0,0,,1,,,61,127
31450,note_on,1,0,0,,2,,,62,127
31450,note_on,0,0,0,,5,,,77,127
31584,note_off,134,0,0,,5,,,77,127
31584,note_off,0,0,0,,2,,,62,127
31585,note_on,1,0,0,,4,,,64,127
31585,note_on,0,0,0,,7,,,79,127
31719,note_off,134,0,0,,7,,,79,127
31719,note_off,0,0,0,,4,,,64,127
31720,note_on,1,0,0,,5,,,65,127
31720,note_on,0,0,0,,10,,,81,127
31854,note_off,134,0,0,,10,,,81,127
31854,note_off,0,0,0,,5,,,65,127
31855,note_on,1,0,0,,7,,,67,127
31855,note_on,0,0,0,,2,,,74,127
31989,note_off,134,0,0,,2,,,74,127
31989,note_off,0,0,0,,7,,,67,127
31990,note_on,1,0,0,,10,,,69,127
31990,note_on,0,0,0,,2,,,74,127
32124,note_off,134,0,0,,2,,,74,127
32125,note_on,1,0,0,,10,,,57,127
32125,note_on,0,0,0,,1,,,73,127
32258,note_off,133,0,0,,10,,,69,127
32259,note_off,1,0,0,,1,,,73,127
32259,note_off,0,0,0,,10,,,57,127
32260,note_on,1,0,0,,12,,,59,127
32260,note_on,0,0,0,,2,,,74,127
32394,note_off,134,0,0,,2,,,74,127
32394,note_off,0,0,0,,12,,,59,127
32395,note_on,1,0,0,,1,,,61,127
32395,note_on,0,0,0,,4,,,76,127
32529,note_off,134,0,0,,4,,,76,127
32529,note_off,0,0,0,,1,,,61,127
32530,note_on,1,0,0,,2,,,62,127
32530,note_on,0,0,0,,5,,,77,127
32664,note_off,134,0,0,,5,,,77,127
32664,note_off,0,0,0,,2,,,62,127
32665,note_on,1,0,0,,4,,,64,127
32665,note_on,0,0,0,,7,,,79,127
32799,note_off,134,0,0,,7,,,79,127
32799,note_off,0,0,0,,4,,,64,127
32800,note_on,1,0,0,,5,,,65,127
32800,note_on,0,0,0,,10,,,81,127
32934,note_off,134,0,0,,10,,,81,127
32934,note_off,0,0,0,,5,,,65,127
32935,note_on,1,0,0,,7,,,67,127
32935,note_on,0,0,0,,2,,,74,127
33069,note_off,134,0,0,,2,,,74,127
33069,note_off,0,0,0,,7,,,67,127
33070,note_on,1,0,0,,10,,,69,127
33070,note_on,0,0,0,,2,,,74,127
33136,note_off,66,0,0,,2,,,74,127
33137,note_on,1,0,0,,1,,,73,127
33203,note_off,66,0,0,,1,,,73,127
33204,note_on,1,0,0,,2,,,74,127
33270,note_off,66,0,0,,2,,,74,127
33271,note_on,1,0,0,,1,,,73,127
33337,note_off,66,0,0,,1,,,73,127
33337,note_off,0,0,0,,10,,,69,127
33338,note_on,1,0,0,,12,,,71,127
33338,note_on,0,0,0,,10,,,57,127
33472,note_off,134,0,0,,12,,,71,127
33473,note_on,1,0,0,,10,,,69,127
33607,note_off,134,0,0,,10,,,57,127
33608,note_on,1,0,0,,10,,,45,127
33676,note_off,68,0,0,,10,,,69,127
33744,note_on,68,0,0,,6,,,78,127
33877,note_off,133,0,0,,10,,,45,127
33878,note_off,1,0,0,,6,,,78,127
33879,note_on,1,0,0,,4,,,76,127
34013,note_off,134,0,0,,4,,,76,127
34014,note_on,1,0,0,,2,,,74,127
34148,note_off,134,0,0,,2,,,74,127
34149,note_on,1,0,0,,1,,,73,127
34283,note_off,134,0,0,,1,,,73,127
34284,note_on,1,0,0,,4,,,76,127
34418,note_off,134,0,0,,4,,,76,127
34419,note_on,1,0,0,,10,,,69,127
34553,note_off,134,0,0,,10,,,69,127
34554,note_on,1,0,0,,7,,,67,127
34688,note_off,134,0,0,,7,,,67,127
34689,note_on,1,0,0,,6,,,66,127
34823,note_off,134,0,0,,6,,,66,127
34824,note_on,1,0,0,,6,,,66,127
34958,note_off,134,0,0,,6,,,66,127
34959,note_on,1,0,0,,4,,,64,127
34959,note_on,0,0,0,,2,,,74,127
35093,note_off,134,0,0,,4,,,64,127
35094,note_on,1,0,0,,2,,,62,127
35228,note_off,134,0,0,,2,,,62,127
35228,note_off,0,0,0,,2,,,74,127
35229,note_on,1,0,0,,4,,,64,127
35229,note_on,0,0,0,,4,,,76,127
35363,note_off,134,0,0,,4,,,64,127
35364,note_on,1,0,0,,7,,,67,127
35498,note_off,134,0,0,,7,,,67,127
35498,note_off,0,0,0,,4,,,76,127
35499,note_on,1,0,0,,10,,,57,127
35499,note_on,0,0,0,,10,,,81,127
35633,note_off,134,0,0,,10,,,57,127
35634,note_on,1,0,0,,7,,,55,127
35767,note_off,133,0,0,,10,,,81,127
35768,note_off,1,0,0,,7,,,55,127
35769,note_on,1,0,0,,6,,,54,127
35905,note_on,136,0,0,,6,,,78,127
36039,note_off,134,0,0,,6,,,78,127
36039,note_off,0,0,0,,6,,,54,127
36040,note_on,1,0,0,,7,,,55,127
36040,note_on,0,0,0,,4,,,76,127
36174,note_off,134,0,0,,4,,,76,127
36175,note_on,1,0,0,,2,,,74,127
36309,note_off,134,0,0,,2,,,74,127
36309,note_off,0,0,0,,7,,,55,127
36310,note_on,1,0,0,,10,,,57,127
36310,note_on,0,0,0,,1,,,73,127
36444,note_off,134,0,0,,1,,,73,127
36445,note_on,1,0,0,,4,,,76,127
36579,note_off,134,0,0,,4,,,76,127
36580,note_on,1,0,0,,10,,,45,127
36580,note_on,0,0,0,,10,,,69,127
36714,note_off,134,0,0,,10,,,69,127
36715,note_on,1,0,0,,7,,,67,127
36845,note_off,130,0,0,,10,,,57,127
36849,note_off,4,0,0,,7,,,67,127
36850,note_on,1,0,0,,6,,,66,127
36984,note_off,134,0,0,,6,,,66,127
36984,note_off,0,0,0,,10,,,45,127
36985,note_on,1,0,0,,6,,,66,127
37119,note_off,134,0,0,,6,,,66,127
37120,note_on,1,0,0,,4,,,64,127
37120,note_on,0,0,0,,2,,,74,127
37254,note_off,134,0,0,,4,,,64,127
37255,note_on,1,0,0,,2,,,62,127
37389,note_off,134,0,0,,2,,,62,127
37389,note_off,0,0,0,,2,,,74,127
37390,note_on,1,0,0,,1,,,61,127
37390,note_on,0,0,0,,4,,,76,127
37524,note_off,134,0,0,,1,,,61,127
37525,note_on,1,0,0,,4,,,64,127
37659,note_off,134,0,0,,4,,,64,127
37659,note_off,0,0,0,,4,,,76,127
37660,note_on,1,0,0,,10,,,57,127
37660,note_on,0,0,0,,10,,,81,127
37794,note_off,134,0,0,,10,,,57,127
37795,note_on,1,0,0,,7,,,55,127
37928,note_off,133,0,0,,10,,,81,127
37929,note_off,1,0,0,,7,,,55,127
37930,note_on,1,0,0,,6,,,54,127
38066,note_on,136,0,0,,6,,,78,127
38200,note_off,134,0,0,,6,,,78,127
38200,note_off,0,0,0,,6,,,54,127
38201,note_on,1,0,0,,7,,,55,127
38201,note_on,0,0,0,,4,,,76,127
38335,note_off,134,0,0,,4,,,76,127
38336,note_on,1,0,0,,2,,,74,127
38470,note_off,134,0,0,,2,,,74,127
38470,note_off,0,0,0,,7,,,55,127
38471,note_on,1,0,0,,10,,,57,127
38471,note_on,0,0,0,,1,,,73,127
38605,note_off,134,0,0,,1,,,73,127
38606,note_on,1,0,0,,4,,,76,127
38740,note_off,134,0,0,,4,,,76,127
38740,note_off,0,0,0,,10,,,57,127
38741,note_on,1,0,0,,1,,,61,127
38741,note_on,0,0,0,,10,,,69,127
38875,note_off,134,0,0,,10,,,69,127
38876,note_on,1,0,0,,7,,,67,127
39010,note_off,134,0,0,,7,,,67,127
39010,note_off,0,0,0,,1,,,61,127
39011,note_on,1,0,0,,2,,,62,127
39011,note_on,0,0,0,,6,,,66,127
39145,note_off,134,0,0,,6,,,66,127
39146,note_on,1,0,0,,10,,,69,127
39280,note_off,134,0,0,,10,,,69,127
39280,note_off,0,0,0,,2,,,62,127
39281,note_on,1,0,0,,6,,,54,127
39281,note_on,0,0,0,,2,,,74,127
39415,note_off,134,0,0,,2,,,74,127
39416,note_on,1,0,0,,6,,,78,127
39550,note_off,134,0,0,,6,,,78,127
39550,note_off,0,0,0,,6,,,54,127
39551,note_on,1,0,0,,7,,,55,127
39551,note_on,0,0,0,,12,,,71,127
39685,note_off,134,0,0,,12,,,71,127
39686,note_on,1,0,0,,7,,,79,127
39820,note_off,134,0,0,,7,,,79,127
39821,note_on,1,0,0,,7,,,43,127
39821,note_on,0,0,0,,6,,,78,127
39955,note_off,134,0,0,,6,,,78,127
39956,note_on,1,0,0,,4,,,76,127
40086,note_off,130,0,0,,7,,,55,127
40090,note_off,4,0,0,,4,,,76,127
40090,note_off,0,0,0,,7,,,43,127
40091,note_on,1,0,0,,10,,,57,127
40091,note_on,0,0,0,,6,,,78,127
40225,note_off,134,0,0,,6,,,78,127
40226,note_on,1,0,0,,2,,,74,127
40360,note_off,134,0,0,,2,,,74,127
40361,note_on,1,0,0,,10,,,45,127
40361,note_on,0,0,0,,4,,,76,127
40495,note_off,134,0,0,,4,,,76,127
40496,note_on,1,0,0,,1,,,73,127
40626,note_off,130,0,0,,10,,,57,127
40630,note_off,4,0,0,,1,,,73,127
40630,note_off,0,0,0,,10,,,45,127
40631,note_on,1,0,0,,2,,,50,127
40631,note_on,0,0,0,,2,,,74,127
40765,note_off,134,0,0,,2,,,74,127
40766,note_on,1,0,0,,10,,,69,127
40900,note_off,134,0,0,,10,,,69,127
40901,note_on,1,0,0,,2,,,74,127
41035,note_off,134,0,0,,2,,,74,127
41036,note_off,1,0,0,,2,,,50,127
41036,note_on,0,0,0,,6,,,78,127
41170,note_off,134,0,0,,6,,,78,127
41171,note_on,1,0,0,,6,,,78,127
41171,note_on,0,0,0,,7,,,67,127
41307,note_on,136,0,0,,10,,,57,127
41441,note_off,134,0,0,,10,,,57,127
41441,note_off,0,0,0,,6,,,78,127
41442,note_on,1,0,0,,1,,,61,127
41442,note_on,0,0,0,,4,,,76,127
41576,note_off,134,0,0,,1,,,61,127
41577,note_on,1,0,0,,4,,,64,127
41710,note_off,133,0,0,,4,,,76,127
41711,note_off,1,0,0,,4,,,64,127
41711,note_off,0,0,0,,7,,,67,127
41712,note_on,1,0,0,,2,,,38,127
41848,note_on,136,0,0,,10,,,69,127
41982,note_off,134,0,0,,10,,,69,127
41983,note_on,1,0,0,,2,,,74,127
42117,note_off,134,0,0,,2,,,74,127
42118,note_on,1,0,0,,6,,,78,127
42252,note_off,134,0,0,,6,,,78,127
42253,note_on,1,0,0,,6,,,78,127
42253,note_on,0,0,0,,7,,,67,127
42387,note_off,134,0,0,,2,,,38,127
42388,note_on,1,0,0,,10,,,57,127
42522,note_off,134,0,0,,10,,,57,127
42522,note_off,0,0,0,,6,,,78,127
42523,note_on,1,0,0,,1,,,61,127
42523,note_on,0,0,0,,4,,,76,127
42657,note_off,134,0,0,,1,,,61,127
42658,note_on,1,0,0,,4,,,64,127
42791,note_off,133,0,0,,4,,,76,127
42792,note_off,1,0,0,,4,,,64,127
42792,note_off,0,0,0,,7,,,67,127
42793,note_on,1,0,0,,2,,,38,127
42929,note_on,136,0,0,,10,,,69,127
43063,note_off,134,0,0,,10,,,69,127
43064,note_on,1,0,0,,2,,,74,127
43198,note_off,134,0,0,,2,,,74,127
43199,note_on,1,0,0,,6,,,78,127
43333,note_off,134,0,0,,6,,,78,127
43334,note_on,1,0,0,,10,,,81,127
43468,note_off,134,0,0,,10,,,81,127
43469,note_on,1,0,0,,1,,,73,127
43603,note_off,134,0,0,,1,,,73,127
43603,note_off,0,0,0,,2,,,38,127
43604,note_on,1,0,0,,6,,,54,127
43604,note_on,0,0,0,,2,,,62,127
43604,note_on,0,0,0,,2,,,74,127
43738,note_off,134,0,0,,2,,,74,127
43739,note_on,1,0,0,,10,,,69,127
43873,note_off,134,0,0,,10,,,69,127
43873,note_off,0,0,0,,6,,,54,127
43874,note_on,1,0,0,,7,,,55,127
43874,note_on,0,0,0,,12,,,71,127
44008,note_off,134,0,0,,12,,,71,127
44009,note_on,1,0,0,,7,,,79,127
44139,note_off,130,0,0,,2,,,62,127
44143,note_off,4,0,0,,7,,,79,127
44144,note_on,1,0,0,,4,,,64,127
44144,note_on,0,0,0,,6,,,78,127
44278,note_off,134,0,0,,6,,,78,127
44279,note_on,1,0,0,,4,,,76,127
44413,note_off,134,0,0,,4,,,76,127
44413,note_off,0,0,0,,4,,,64,127
44413,note_off,0,0,0,,7,,,55,127
44414,note_on,1,0,0,,2,,,62,127
44414,note_on,0,0,0,,10,,,57,127
44414,note_on,0,0,0,,6,,,66,127
44414,note_on,0,0,0,,6,,,78,127
44414,note_on,0,0,0,,10,,,81,127
44548,note_off,134,0,0,,6,,,78,127
44549,note_on,1,0,0,,2,,,74,127
44668,note_off,119,0,0,,10,,,81,127
44684,note_off,16,0,0,,2,,,74,127
44684,note_off,0,0,0,,6,,,66,127
44684,note_off,0,0,0,,2,,,62,127
44685,note_on,1,0,0,,4,,,64,127
44685,note_on,0,0,0,,7,,,67,127
44685,note_on,0,0,0,,7,,,79,127
44685,note_on,0,0,0,,4,,,76,127
44819,note_off,134,0,0,,4,,,76,127
44820,note_on,1,0,0,,1,,,73,127
44939,note_off,119,0,0,,7,,,79,127
44955,note_off,16,0,0,,1,,,73,127
44955,note_off,0,0,0,,7,,,67,127
44955,note_off,0,0,0,,4,,,64,127
44955,note_off,0,0,0,,10,,,57,127
44956,note_on,1,0,0,,2,,,50,127
44956,note_on,0,0,0,,2,,,74,127
45090,note_off,134,0,0,,2,,,74,127
45091,note_on,1,0,0,,10,,,69,127
45225,note_off,134,0,0,,10,,,69,127
45226,note_on,1,0,0,,2,,,74,127
45226,note_on,0,0,0,,6,,,78,127
45360,note_off,134,0,0,,6,,,78,127
45360,note_off,0,0,0,,2,,,74,127
45361,note_on,1,0,0,,10,,,81,127
45361,note_on,0,0,0,,6,,,78,127
45495,note_off,134,0,0,,6,,,78,127
45495,note_off,0,0,0,,10,,,81,127
45496,note_on,1,0,0,,10,,,81,127
45496,note_on,0,0,0,,6,,,78,127
45630,note_off,134,0,0,,2,,,50,127
45631,note_on,1,0,0,,10,,,57,127
45765,note_off,134,0,0,,10,,,57,127
45765,note_off,0,0,0,,6,,,78,127
45765,note_off,0,0,0,,10,,,81,127
45766,note_on,1,0,0,,1,,,61,127
45766,note_on,0,0,0,,4,,,76,127
45766,note_on,0,0,0,,7,,,79,127
45900,note_off,134,0,0,,1,,,61,127
45901,note_on,1,0,0,,4,,,64,127
46034,note_off,133,0,0,,7,,,79,127
46034,note_off,0,0,0,,4,,,76,127
46035,note_off,1,0,0,,4,,,64,127
46036,note_on,1,0,0,,2,,,38,127
46172,note_on,136,0,0,,10,,,69,127
46306,note_off,134,0,0,,10,,,69,127
46307,note_on,1,0,0,,6,,,78,127
46307,note_on,0,0,0,,2,,,74,127
46441,note_off,134,0,0,,2,,,74,127
46441,note_off,0,0,0,,6,,,78,127
46442,note_on,1,0,0,,6,,,78,127
46442,note_on,0,0,0,,10,,,81,127
46576,note_off,134,0,0,,10,,,81,127
46576,note_off,0,0,0,,6,,,78,127
46577,note_on,1,0,0,,10,,,81,127
46577,note_on,0,0,0,,6,,,78,127
46711,note_off,134,0,0,,2,,,38,127
46712,note_on,1,0,0,,10,,,57,127
46846,note_off,134,0,0,,10,,,57,127
46846,note_off,0,0,0,,6,,,78,127
46846,note_off,0,0,0,,10,,,81,127
46847,note_on,1,0,0,,1,,,61,127
46847,note_on,0,0,0,,4,,,76,127
46847,note_on,0,0,0,,7,,,79,127
46981,note_off,134,0,0,,1,,,61,127
46982,note_on,1,0,0,,4,,,64,127
47115,note_off,133,0,0,,7,,,79,127
47115,note_off,0,0,0,,4,,,76,127
47116,note_off,1,0,0,,4,,,64,127
47117,note_on,1,0,0,,2,,,38,127
47253,note_on,136,0,0,,10,,,69,127
47387,note_off,134,0,0,,10,,,69,127
47388,note_on,1,0,0,,10,,,81,127
47522,note_off,134,0,0,,10,,,81,127
47523,note_on,1,0,0,,7,,,79,127
47657,note_off,134,0,0,,7,,,79,127
47658,note_on,1,0,0,,6,,,78,127
47792,note_off,134,0,0,,6,,,78,127
47793,note_on,1,0,0,,4,,,76,127
47927,note_off,134,0,0,,4,,,76,127
47927,note_off,0,0,0,,2,,,38,127
47928,note_on,1,0,0,,6,,,54,127
47928,note_on,0,0,0,,2,,,62,127
47928,note_on,0,0,0,,2,,,74,127
48062,note_off,134,0,0,,2,,,74,127
48063,note_on,1,0,0,,1,,,73,127
48197,note_off,134,0,0,,1,,,73,127
48197,note_off,0,0,0,,6,,,54,127
48198,note_on,1,0,0,,7,,,55,127
48198,note_on,0,0,0,,12,,,71,127
48332,note_off,134,0,0,,12,,,71,127
48333,note_on,1,0,0,,1,,,85,127
48467,note_off,134,0,0,,1,,,85,127
48467,note_off,0,0,0,,2,,,62,127
48468,note_on,1,0,0,,4,,,64,127
48468,note_on,0,0,0,,2,,,86,127
48602,note_off,134,0,0,,2,,,86,127
48603,note_on,1,0,0,,7,,,79,127
48737,note_off,134,0,0,,7,,,79,127
48737,note_off,0,0,0,,4,,,64,127
48737,note_off,0,0,0,,7,,,55,127
48738,note_on,1,0,0,,10,,,57,127
48738,note_on,0,0,0,,6,,,66,127
48738,note_on,0,0,0,,2,,,62,127
48738,note_on,0,0,0,,6,,,78,127
48872,note_off,134,0,0,,6,,,78,127
48873,note_on,1,0,0,,2,,,86,127
49007,note_off,134,0,0,,2,,,86,127
49007,note_off,0,0,0,,2,,,62,127
49007,note_off,0,0,0,,6,,,66,127
49008,note_on,1,0,0,,4,,,64,127
49008,note_on,0,0,0,,7,,,67,127
49008,note_on,0,0,0,,4,,,76,127
49142,note_off,134,0,0,,4,,,76,127
49143,note_on,1,0,0,,1,,,85,127
49277,note_off,134,0,0,,1,,,85,127
49277,note_off,0,0,0,,7,,,67,127
49277,note_off,0,0,0,,4,,,64,127
49277,note_off,0,0,0,,10,,,57,127
49278,note_on,1,0,0,,12,,,59,127
49278,note_on,0,0,0,,2,,,62,127
49278,note_on,0,0,0,,2,,,86,127
49412,note_off,134,0,0,,2,,,86,127
49413,note_on,1,0,0,,1,,,73,127
49547,note_off,134,0,0,,1,,,73,127
49547,note_off,0,0,0,,12,,,59,127
49548,note_on,1,0,0,,7,,,55,127
49548,note_on,0,0,0,,2,,,74,127
49682,note_off,134,0,0,,2,,,74,127
49683,note_on,1,0,0,,4,,,76,127
49813,note_off,130,0,0,,2,,,62,127
49817,note_off,4,0,0,,4,,,76,127
49817,note_off,0,0,0,,7,,,55,127
49818,note_on,1,0,0,,6,,,66,127
49818,note_on,0,0,0,,10,,,57,127
49818,note_on,0,0,0,,10,,,69,127
49952,note_off,134,0,0,,10,,,69,127
49953,note_on,1,0,0,,2,,,74,127
50087,note_off,134,0,0,,2,,,74,127
50087,note_off,0,0,0,,6,,,66,127
50088,note_on,1,0,0,,4,,,64,127
50088,note_on,0,0,0,,7,,,67,127
50222,note_off,134,0,0,,7,,,67,127
50223,note_on,1,0,0,,1,,,73,127
50353,note_off,130,0,0,,10,,,57,127
50357,note_off,4,0,0,,1,,,73,127
50357,note_off,0,0,0,,4,,,64,127
50358,note_on,1,0,0,,2,,,62,127
50358,note_on,0,0,0,,12,,,59,127
50358,note_on,0,0,0,,2,,,74,127
50492,note_off,134,0,0,,2,,,74,127
50493,note_on,1,0,0,,6,,,66,127
50627,note_off,134,0,0,,6,,,66,127
50627,note_off,0,0,0,,12,,,59,127
50628,note_on,1,0,0,,7,,,55,127
50628,note_on,0,0,0,,7,,,67,127
50762,note_off,134,0,0,,7,,,67,127
50763,note_on,1,0,0,,10,,,69,127
50893,note_off,130,0,0,,2,,,62,127
50897,note_off,4,0,0,,10,,,69,127
50897,note_off,0,0,0,,7,,,55,127
50898,note_on,1,0,0,,10,,,45,127
50898,note_on,0,0,0,,6,,,54,127
50898,note_on,0,0,0,,2,,,62,127
51032,note_off,134,0,0,,2,,,62,127
51033,note_on,1,0,0,,6,,,66,127
51167,note_off,134,0,0,,6,,,66,127
51167,note_off,0,0,0,,6,,,54,127
51168,note_on,1,0,0,,4,,,52,127
51168,note_on,0,0,0,,7,,,55,127
51302,note_off,134,0,0,,7,,,55,127
51303,note_on,1,0,0,,1,,,61,127
51433,note_off,130,0,0,,10,,,45,127
51437,note_off,4,0,0,,1,,,61,127
51437,note_off,0,0,0,,4,,,52,127
51438,note_on,1,0,0,,2,,,38,127
51438,note_on,0,0,0,,1,,,61,127
51708,note_off,270,0,0,,1,,,61,127
51709,note_on,1,0,0,,2,,,62,127
52398,note_off,689,0,0,,2,,,62,127
52521,note_off,123,0,0,,2,,,38,127
52793,note_on,272,0,0,,12,,,71,127
53335,note_on,542,0,0,,12,,,59,127
53469,note_off,134,0,0,,12,,,71,127
53470,note_on,1,0,0,,1,,,73,127
53604,note_off,134,0,0,,1,,,73,127
53605,note_on,1,0,0,,3,,,75,127
53739,note_off,134,0,0,,3,,,75,127
53740,note_on,1,0,0,,4,,,76,127
53874,note_off,134,0,0,,4,,,76,127
53875,note_on,1,0,0,,4,,,76,127
54009,note_off,134,0,0,,12,,,59,127
54010,note_on,1,0,0,,1,,,61,127
54144,note_off,134,0,0,,1,,,61,127
54144,note_off,0,0,0,,4,,,76,127
54145,note_on,1,0,0,,6,,,78,127
54145,note_on,0,0,0,,3,,,63,127
54279,note_off,134,0,0,,3,,,63,127
54280,note_on,1,0,0,,4,,,64,127
54414,note_off,134,0,0,,4,,,64,127
54415,note_on,1,0,0,,6,,,66,127
54549,note_off,134,0,0,,6,,,66,127
54550,note_on,1,0,0,,7,,,67,127
54684,note_off,134,0,0,,7,,,67,127
54685,note_on,1,0,0,,10,,,69,127
54819,note_off,134,0,0,,10,,,69,127
54820,note_on,1,0,0,,12,,,71,127
54954,note_off,134,0,0,,12,,,71,127
54955,note_on,1,0,0,,0,,,72,127
55089,note_off,134,0,0,,6,,,78,127
55090,note_on,1,0,0,,7,,,79,127
55224,note_off,134,0,0,,7,,,79,127
55225,note_on,1,0,0,,10,,,81,127
55359,note_off,134,0,0,,10,,,81,127
55360,note_on,1,0,0,,12,,,83,127
55494,note_off,134,0,0,,12,,,83,127
55495,note_on,1,0,0,,12,,,83,127
55629,note_off,134,0,0,,0,,,72,127
55630,note_on,1,0,0,,12,,,71,127
55764,note_off,134,0,0,,12,,,71,127
55764,note_off,0,0,0,,12,,,83,127
55765,note_on,1,0,0,,0,,,84,127
55765,note_on,0,0,0,,10,,,69,127
55899,note_off,134,0,0,,10,,,69,127
55900,note_on,1,0,0,,8,,,68,127
56034,note_off,134,0,0,,8,,,68,127
56035,note_on,1,0,0,,10,,,69,127
56169,note_off,134,0,0,,0,,,84,127
56170,note_on,1,0,0,,12,,,83,127
56304,note_off,134,0,0,,12,,,83,127
56304,note_off,0,0,0,,10,,,69,127
56305,note_on,1,0,0,,10,,,81,127
56305,note_on,0,0,0,,12,,,71,127
56439,note_off,134,0,0,,10,,,81,127
56440,note_on,1,0,0,,7,,,79,127
56574,note_off,134,0,0,,7,,,79,127
56574,note_off,0,0,0,,12,,,71,127
56575,note_on,1,0,0,,10,,,81,127
56575,note_on,0,0,0,,0,,,72,127
56709,note_off,134,0,0,,10,,,81,127
56710,note_on,1,0,0,,7,,,79,127
56844,note_off,134,0,0,,7,,,79,127
56844,note_off,0,0,0,,0,,,72,127
56845,note_on,1,0,0,,6,,,78,127
56845,note_on,0,0,0,,10,,,69,127
56979,note_off,134,0,0,,6,,,78,127
56980,note_on,1,0,0,,4,,,76,127
57114,note_off,134,0,0,,4,,,76,127
57114,note_off,0,0,0,,10,,,69,127
57115,note_on,1,0,0,,3,,,75,127
57115,note_on,0,0,0,,12,,,71,127
57249,note_off,134,0,0,,12,,,71,127
57250,note_on,1,0,0,,10,,,69,127
57318,note_off,68,0,0,,3,,,75,127
57384,note_off,66,0,0,,10,,,69,127
57385,note_on,1,0,0,,12,,,83,127
57385,note_on,0,0,0,,7,,,67,127
57519,note_off,134,0,0,,7,,,67,127
57520,note_on,1,0,0,,6,,,66,127
57654,note_off,134,0,0,,6,,,66,127
57655,note_on,1,0,0,,12,,,71,127
57655,note_on,0,0,0,,7,,,67,127
57789,note_off,134,0,0,,7,,,67,127
57789,note_off,0,0,0,,12,,,83,127
57790,note_on,1,0,0,,10,,,81,127
57790,note_on,0,0,0,,6,,,66,127
57924,note_off,134,0,0,,6,,,66,127
57924,note_off,0,0,0,,10,,,81,127
57925,note_on,1,0,0,,7,,,79,127
57925,note_on,0,0,0,,4,,,64,127
58059,note_off,134,0,0,,4,,,64,127
58059,note_off,0,0,0,,7,,,79,127
58060,note_off,1,0,0,,12,,,71,127
58060,note_on,0,0,0,,6,,,78,127
58060,note_on,0,0,0,,3,,,63,127
58194,note_off,134,0,0,,3,,,63,127
58194,note_off,0,0,0,,6,,,78,127
58195,note_on,1,0,0,,7,,,79,127
58195,note_on,0,0,0,,4,,,64,127
58329,note_off,134,0,0,,4,,,64,127
58329,note_off,0,0,0,,7,,,79,127
58330,note_on,1,0,0,,6,,,78,127
58330,note_on,0,0,0,,2,,,62,127
58464,note_off,134,0,0,,2,,,62,127
58464,note_off,0,0,0,,6,,,78,127
58465,note_on,1,0,0,,4,,,76,127
58465,note_on,0,0,0,,0,,,60,127
58599,note_off,134,0,0,,0,,,60,127
58599,note_off,0,0,0,,4,,,76,127
58600,note_on,1,0,0,,3,,,75,127
58600,note_on,0,0,0,,12,,,59,127
58734,note_off,134,0,0,,12,,,59,127
58734,note_off,0,0,0,,3,,,75,127
58735,note_on,1,0,0,,4,,,76,127
58735,note_on,0,0,0,,0,,,60,127
58869,note_off,134,0,0,,0,,,60,127
58869,note_off,0,0,0,,4,,,76,127
58870,note_on,1,0,0,,2,,,74,127
58870,note_on,0,0,0,,12,,,59,127
59004,note_off,134,0,0,,12,,,59,127
59004,note_off,0,0,0,,2,,,74,127
59005,note_on,1,0,0,,0,,,72,127
59005,note_on,0,0,0,,10,,,57,127
59139,note_off,134,0,0,,10,,,57,127
59139,note_off,0,0,0,,0,,,72,127
59140,note_on,1,0,0,,12,,,71,127
59140,note_on,0,0,0,,7,,,55,127
59274,note_off,134,0,0,,7,,,55,127
59274,note_off,0,0,0,,12,,,71,127
59275,note_on,1,0,0,,0,,,72,127
59275,note_on,0,0,0,,10,,,57,127
59409,note_off,134,0,0,,0,,,72,127
59410,note_on,1,0,0,,12,,,71,127
59544,note_off,134,0,0,,12,,,71,127
59544,note_off,0,0,0,,10,,,57,127
59545,note_on,1,0,0,,10,,,69,127
59545,note_on,0,0,0,,12,,,59,127
59679,note_off,134,0,0,,10,,,69,127
59680,note_on,1,0,0,,7,,,67,127
59814,note_off,134,0,0,,7,,,67,127
59814,note_off,0,0,0,,12,,,59,127
59815,note_on,1,0,0,,10,,,69,127
59815,note_on,0,0,0,,0,,,60,127
59951,note_on,136,0,0,,7,,,67,127
60085,note_off,134,0,0,,7,,,67,127
60085,note_off,0,0,0,,0,,,60,127
60086,note_on,1,0,0,,6,,,66,127
60086,note_on,0,0,0,,0,,,48,127
60220,note_off,134,0,0,,6,,,66,127
60221,note_on,1,0,0,,4,,,64,127
60355,note_off,134,0,0,,4,,,64,127
60355,note_off,0,0,0,,0,,,48,127
60355,note_off,0,0,0,,10,,,69,127
60356,note_on,1,0,0,,10,,,69,127
60356,note_on,0,0,0,,12,,,47,127
60626,note_off,270,0,0,,10,,,69,127
60627,note_on,1,0,0,,12,,,71,127
60627,note_on,0,0,0,,12,,,59,127
60892,note_off,265,0,0,,12,,,47,127
60895,note_off,3,0,0,,12,,,71,127
60898,note_on,3,0,0,,12,,,71,127
61034,note_on,136,0,0,,2,,,74,127
61168,note_off,134,0,0,,2,,,74,127
61169,note_on,1,0,0,,0,,,72,127
61290,note_off,121,0,0,,12,,,71,127
61303,note_off,13,0,0,,0,,,72,127
61304,note_on,1,0,0,,12,,,71,127
61438,note_off,134,0,0,,12,,,71,127
61438,note_off,0,0,0,,12,,,59,127
61439,note_on,1,0,0,,0,,,72,127
61439,note_on,0,0,0,,12,,,59,127
61575,note_on,136,0,0,,12,,,71,127
61709,note_off,134,0,0,,12,,,71,127
61710,note_on,1,0,0,,12,,,71,127
61776,note_off,66,0,0,,12,,,71,127
61777,note_on,1,0,0,,10,,,69,127
61843,note_off,66,0,0,,10,,,69,127
61844,note_on,1,0,0,,8,,,68,127
61978,note_off,134,0,0,,8,,,68,127
61979,note_on,1,0,0,,10,,,69,127
62113,note_off,134,0,0,,0,,,72,127
62114,note_on,1,0,0,,0,,,72,127
62248,note_off,134,0,0,,0,,,72,127
62249,note_on,1,0,0,,6,,,78,127
62383,note_off,134,0,0,,6,,,78,127
62384,note_on,1,0,0,,10,,,81,127
62518,note_off,134,0,0,,10,,,81,127
62518,note_off,0,0,0,,10,,,69,127
62518,note_off,0,0,0,,12,,,59,127
62519,note_on,1,0,0,,12,,,71,127
62519,note_on,0,0,0,,12,,,59,127
62655,note_on,136,0,0,,10,,,69,127
62789,note_off,134,0,0,,10,,,69,127
62790,note_on,1,0,0,,10,,,69,127
62856,note_off,66,0,0,,10,,,69,127
62857,note_on,1,0,0,,7,,,67,127
62923,note_off,66,0,0,,7,,,67,127
62924,note_on,1,0,0,,6,,,66,127
63058,note_off,134,0,0,,6,,,66,127
63059,note_on,1,0,0,,7,,,67,127
63193,note_off,134,0,0,,12,,,71,127
63194,note_on,1,0,0,,12,,,71,127
63328,note_off,134,0,0,,12,,,71,127
63329,note_on,1,0,0,,4,,,76,127
63463,note_off,134,0,0,,4,,,76,127
63464,note_on,1,0,0,,7,,,79,127
63598,note_off,134,0,0,,7,,,79,127
63598,note_off,0,0,0,,7,,,67,127
63598,note_off,0,0,0,,12,,,59,127
63599,note_on,1,0,0,,10,,,69,127
63599,note_on,0,0,0,,12,,,59,127
63735,note_on,136,0,0,,7,,,67,127
63869,note_off,134,0,0,,7,,,67,127
63870,note_on,1,0,0,,7,,,67,127
63936,note_off,66,0,0,,7,,,67,127
63937,note_on,1,0,0,,6,,,66,127
64003,note_off,66,0,0,,6,,,66,127
64004,note_on,1,0,0,,4,,,64,127
64138,note_off,134,0,0,,4,,,64,127
64139,note_on,1,0,0,,6,,,66,127
64273,note_off,134,0,0,,10,,,69,127
64274,note_on,1,0,0,,10,,,69,127
64408,note_off,134,0,0,,10,,,69,127
64409,note_on,1,0,0,,3,,,75,127
64543,note_off,134,0,0,,3,,,75,127
64544,note_on,1,0,0,,6,,,78,127
64678,note_off,134,0,0,,6,,,78,127
64678,note_off,0,0,0,,6,,,66,127
64678,note_off,0,0,0,,12,,,59,127
64679,note_on,1,0,0,,10,,,69,127
64679,note_on,0,0,0,,4,,,64,127
64745,note_off,66,0,0,,10,,,69,127
64746,note_on,1,0,0,,7,,,67,127
64812,note_off,66,0,0,,7,,,67,127
64812,note_off,0,0,0,,4,,,64,127
64813,note_on,1,0,0,,10,,,69,127
64813,note_on,0,0,0,,2,,,62,127
64879,note_off,66,0,0,,10,,,69,127
64880,note_on,1,0,0,,7,,,67,127
64946,note_off,66,0,0,,7,,,67,127
64946,note_off,0,0,0,,2,,,62,127
64947,note_on,1,0,0,,10,,,69,127
64947,note_on,0,0,0,,0,,,60,127
65081,note_off,134,0,0,,0,,,60,127
65081,note_off,0,0,0,,10,,,69,127
65082,note_on,1,0,0,,12,,,71,127
65082,note_on,0,0,0,,12,,,59,127
65216,note_off,134,0,0,,12,,,59,127
65216,note_off,0,0,0,,12,,,71,127
65217,note_on,1,0,0,,0,,,72,127
65217,note_on,0,0,0,,10,,,57,127
65353,note_on,136,0,0,,7,,,67,127
65487,note_off,134,0,0,,7,,,67,127
65487,note_off,0,0,0,,0,,,72,127
65488,note_on,1,0,0,,2,,,74,127
65488,note_on,0,0,0,,6,,,66,127
65622,note_off,134,0,0,,6,,,66,127
65622,note_off,0,0,0,,2,,,74,127
65623,note_off,1,0,0,,10,,,57,127
65623,note_on,0,0,0,,4,,,76,127
65623,note_on,0,0,0,,4,,,64,127
65757,note_off,134,0,0,,4,,,64,127
65757,note_off,0,0,0,,4,,,76,127
65758,note_on,1,0,0,,4,,,76,127
65758,note_on,0,0,0,,2,,,62,127
65892,note_off,134,0,0,,4,,,76,127
65893,note_on,1,0,0,,6,,,78,127
65893,note_on,0,0,0,,0,,,72,127
66027,note_off,134,0,0,,0,,,72,127
66027,note_off,0,0,0,,6,,,78,127
66028,note_on,1,0,0,,7,,,79,127
66028,note_on,0,0,0,,12,,,71,127
66162,note_off,134,0,0,,12,,,71,127
66162,note_off,0,0,0,,7,,,79,127
66163,note_on,1,0,0,,10,,,81,127
66163,note_on,0,0,0,,10,,,69,127
66297,note_off,134,0,0,,10,,,69,127
66297,note_off,0,0,0,,10,,,81,127
66297,note_off,0,0,0,,2,,,62,127
66298,note_on,1,0,0,,10,,,81,127
66298,note_on,0,0,0,,7,,,67,127
66432,note_off,134,0,0,,7,,,67,127
66432,note_off,0,0,0,,10,,,81,127
66433,note_on,1,0,0,,12,,,83,127
66433,note_on,0,0,0,,7,,,67,127
66567,note_off,134,0,0,,7,,,67,127
66568,note_on,1,0,0,,6,,,66,127
66702,note_off,134,0,0,,6,,,66,127
66702,note_off,0,0,0,,12,,,83,127
66703,note_on,1,0,0,,1,,,85,127
66703,note_on,0,0,0,,4,,,64,127
66837,note_off,134,0,0,,4,,,64,127
66837,note_off,0,0,0,,1,,,85,127
66838,note_on,1,0,0,,2,,,86,127
66838,note_on,0,0,0,,2,,,62,127
66974,note_on,136,0,0,,10,,,81,127
67108,note_off,134,0,0,,10,,,81,127
67109,note_on,1,0,0,,6,,,78,127
67109,note_on,0,0,0,,2,,,50,127
67243,note_off,134,0,0,,6,,,78,127
67244,note_on,1,0,0,,2,,,74,127
67374,note_off,130,0,0,,2,,,86,127
67447,note_off,73,0,0,,2,,,74,127
67515,note_off,68,0,0,,2,,,62,127
67786,note_off,271,0,0,,2,,,50,127
67786,note_on,0,0,0,,12,,,83,127
67920,note_off,134,0,0,,12,,,83,127
67921,note_on,1,0,0,,10,,,81,127
68055,note_off,134,0,0,,10,,,81,127
68056,note_on,1,0,0,,7,,,79,127
68190,note_off,134,0,0,,7,,,79,127
68191,note_on,1,0,0,,6,,,78,127
68325,note_off,134,0,0,,6,,,78,127
68326,note_on,1,0,0,,10,,,81,127
68460,note_off,134,0,0,,10,,,81,127
68461,note_on,1,0,0,,2,,,74,127
68595,note_off,134,0,0,,2,,,74,127
68596,note_on,1,0,0,,0,,,72,127
68730,note_off,134,0,0,,0,,,72,127
68731,note_on,1,0,0,,12,,,71,127
68865,note_off,134,0,0,,12,,,71,127
68866,note_on,1,0,0,,12,,,71,127
69000,note_off,134,0,0,,12,,,71,127
69001,note_on,1,0,0,,10,,,69,127
69001,note_on,0,0,0,,7,,,79,127
69135,note_off,134,0,0,,10,,,69,127
69136,note_on,1,0,0,,7,,,67,127
69270,note_off,134,0,0,,7,,,67,127
69270,note_off,0,0,0,,7,,,79,127
69271,note_on,1,0,0,,6,,,66,127
69271,note_on,0,0,0,,10,,,81,127
69405,note_off,134,0,0,,6,,,66,127
69406,note_on,1,0,0,,10,,,69,127
69540,note_off,134,0,0,,10,,,69,127
69540,note_off,0,0,0,,10,,,81,127
69541,note_on,1,0,0,,2,,,62,127
69541,note_on,0,0,0,,2,,,86,127
69675,note_off,134,0,0,,2,,,62,127
69676,note_on,1,0,0,,0,,,60,127
69810,note_off,134,0,0,,0,,,60,127
69810,note_off,0,0,0,,2,,,86,127
69811,note_on,1,0,0,,12,,,59,127
69947,note_on,136,0,0,,12,,,83,127
70081,note_off,134,0,0,,12,,,83,127
70081,note_off,0,0,0,,12,,,59,127
70082,note_on,1,0,0,,0,,,60,127
70082,note_on,0,0,0,,10,,,81,127
70216,note_off,134,0,0,,10,,,81,127
70217,note_on,1,0,0,,7,,,79,127
70351,note_off,134,0,0,,7,,,79,127
70351,note_off,0,0,0,,0,,,60,127
70352,note_on,1,0,0,,2,,,62,127
70352,note_on,0,0,0,,6,,,78,127
70486,note_off,134,0,0,,6,,,78,127
70487,note_on,1,0,0,,10,,,81,127
70621,note_off,134,0,0,,10,,,81,127
70622,note_on,1,0,0,,2,,,50,127
70622,note_on,0,0,0,,2,,,74,127
70756,note_off,134,0,0,,2,,,74,127
70757,note_on,1,0,0,,0,,,72,127
70887,note_off,130,0,0,,2,,,62,127
70891,note_off,4,0,0,,0,,,72,127
70892,note_on,1,0,0,,12,,,71,127
71026,note_off,134,0,0,,12,,,71,127
71026,note_off,0,0,0,,2,,,50,127
71027,note_on,1,0,0,,12,,,71,127
71161,note_off,134,0,0,,12,,,71,127
71162,note_on,1,0,0,,10,,,69,127
71162,note_on,0,0,0,,7,,,79,127
71296,note_off,134,0,0,,10,,,69,127
71297,note_on,1,0,0,,7,,,67,127
71431,note_off,134,0,0,,7,,,67,127
71431,note_off,0,0,0,,7,,,79,127
71432,note_on,1,0,0,,6,,,66,127
71432,note_on,0,0,0,,10,,,81,127
71566,note_off,134,0,0,,6,,,66,127
71567,note_on,1,0,0,,10,,,69,127
71701,note_off,134,0,0,,10,,,69,127
71701,note_off,0,0,0,,10,,,81,127
71702,note_on,1,0,0,,2,,,62,127
71702,note_on,0,0,0,,2,,,86,127
71836,note_off,134,0,0,,2,,,62,127
71837,note_on,1,0,0,,0,,,60,127
71971,note_off,134,0,0,,0,,,60,127
71972,note_on,1,0,0,,12,,,59,127
72040,note_off,68,0,0,,2,,,86,127
72108,note_on,68,0,0,,12,,,83,127
72242,note_off,134,0,0,,12,,,83,127
72242,note_off,0,0,0,,12,,,59,127
72243,note_on,1,0,0,,1,,,61,127
72243,note_on,0,0,0,,10,,,81,127
72377,note_off,134,0,0,,10,,,81,127
72378,note_on,1,0,0,,7,,,79,127
72512,note_off,134,0,0,,7,,,79,127
72512,note_off,0,0,0,,1,,,61,127
72513,note_on,1,0,0,,2,,,62,127
72513,note_on,0,0,0,,6,,,78,127
72649,note_on,136,0,0,,2,,,86,127
72683,note_off,34,0,0,,6,,,78,127
72783,note_off,100,0,0,,2,,,86,127
72783,note_off,0,0,0,,2,,,62,127
72784,note_on,1,0,0,,12,,,59,127
72784,note_on,0,0,0,,7,,,79,127
72918,note_off,134,0,0,,7,,,79,127
72919,note_on,1,0,0,,6,,,78,127
73053,note_off,134,0,0,,6,,,78,127
73053,note_off,0,0,0,,12,,,59,127
73054,note_on,1,0,0,,1,,,61,127
73054,note_on,0,0,0,,4,,,76,127
73190,note_on,136,0,0,,1,,,85,127
73224,note_off,34,0,0,,4,,,76,127
73324,note_off,100,0,0,,1,,,61,127
73325,note_on,1,0,0,,6,,,54,127
73325,note_on,0,0,0,,6,,,78,127
73459,note_off,134,0,0,,6,,,78,127
73460,note_on,1,0,0,,4,,,76,127
73581,note_off,121,0,0,,1,,,85,127
73594,note_off,13,0,0,,4,,,76,127
73594,note_off,0,0,0,,6,,,54,127
73595,note_on,1,0,0,,12,,,59,127
73595,note_on,0,0,0,,12,,,83,127
73595,note_on,0,0,0,,2,,,74,127
73729,note_off,134,0,0,,2,,,74,127
73730,note_on,1,0,0,,1,,,73,127
73863,note_off,133,0,0,,12,,,83,127
73864,note_off,1,0,0,,1,,,73,127
73864,note_off,0,0,0,,12,,,59,127
73865,note_on,1,0,0,,6,,,54,127
73865,note_on,0,0,0,,12,,,71,127
73999,note_off,134,0,0,,12,,,71,127
74000,note_on,1,0,0,,11,,,70,127
74134,note_off,134,0,0,,11,,,70,127
74134,note_off,0,0,0,,6,,,54,127
74135,note_on,1,0,0,,7,,,55,127
74135,note_on,0,0,0,,12,,,71,127
74269,note_off,134,0,0,,12,,,71,127
74270,note_on,1,0,0,,1,,,73,127
74404,note_off,134,0,0,,1,,,73,127
74405,note_on,1,0,0,,4,,,64,127
74405,note_on,0,0,0,,2,,,74,127
74539,note_off,134,0,0,,2,,,74,127
74540,note_on,1,0,0,,4,,,76,127
74674,note_off,134,0,0,,4,,,76,127
74674,note_off,0,0,0,,4,,,64,127
74674,note_off,0,0,0,,7,,,55,127
74675,note_on,1,0,0,,6,,,54,127
74675,note_on,0,0,0,,4,,,76,127
74946,note_on,271,0,0,,6,,,42,127
75211,note_off,265,0,0,,4,,,76,127
75211,note_off,0,0,0,,6,,,54,127
75217,note_on,6,0,0,,6,,,78,127
75624,note_off,407,0,0,,6,,,78,127
75758,note_off,134,0,0,,6,,,42,127
76030,note_on,272,0,0,,6,,,66,127
76300,note_off,270,0,0,,6,,,66,127
76301,note_on,1,0,0,,2,,,74,127
76572,note_on,271,0,0,,2,,,50,127
76843,note_on,271,0,0,,2,,,62,127
76977,note_off,134,0,0,,2,,,74,127
76978,note_on,1,0,0,,12,,,71,127
77112,note_off,134,0,0,,12,,,71,127
77113,note_on,1,0,0,,12,,,71,127
77247,note_off,134,0,0,,12,,,71,127
77248,note_on,1,0,0,,7,,,67,127
77382,note_off,134,0,0,,7,,,67,127
77382,note_off,0,0,0,,2,,,50,127
77383,note_on,1,0,0,,4,,,52,127
77383,note_on,0,0,0,,7,,,67,127
77516,note_off,133,0,0,,2,,,62,127
77519,note_on,3,0,0,,12,,,59,127
77653,note_off,134,0,0,,12,,,59,127
77654,note_on,1,0,0,,12,,,59,127
77788,note_off,134,0,0,,12,,,59,127
77789,note_on,1,0,0,,7,,,55,127
77923,note_off,134,0,0,,7,,,55,127
77924,note_on,1,0,0,,7,,,55,127
78194,note_off,270,0,0,,7,,,67,127
78195,note_on,1,0,0,,4,,,64,127
78460,note_off,265,0,0,,7,,,55,127
78464,note_off,4,0,0,,4,,,64,127
78464,note_off,0,0,0,,4,,,52,127
78465,note_on,1,0,0,,4,,,76,127
78736,note_on,271,0,0,,4,,,52,127
79007,note_on,271,0,0,,4,,,64,127
79141,note_off,134,0,0,,4,,,76,127
79142,note_on,1,0,0,,1,,,73,127
79276,note_off,134,0,0,,1,,,73,127
79277,note_on,1,0,0,,1,,,73,127
79411,note_off,134,0,0,,1,,,73,127
79412,note_on,1,0,0,,11,,,70,127
79546,note_off,134,0,0,,11,,,70,127
79546,note_off,0,0,0,,4,,,52,127
79547,note_on,1,0,0,,6,,,54,127
79547,note_on,0,0,0,,11,,,70,127
79680,note_off,133,0,0,,4,,,64,127
79683,note_on,3,0,0,,1,,,61,127
79817,note_off,134,0,0,,1,,,61,127
79818,note_on,1,0,0,,1,,,61,127
79952,note_off,134,0,0,,1,,,61,127
79953,note_on,1,0,0,,11,,,58,127
80087,note_off,134,0,0,,11,,,58,127
80088,note_on,1,0,0,,11,,,58,127
80358,note_off,270,0,0,,11,,,70,127
80359,note_on,1,0,0,,6,,,66,127
80624,note_off,265,0,0,,11,,,58,127
80628,note_off,4,0,0,,6,,,66,127
80628,note_off,0,0,0,,6,,,54,127
80629,note_on,1,0,0,,6,,,78,127
80900,note_on,271,0,0,,6,,,54,127
81171,note_on,271,0,0,,6,,,66,127
81305,note_off,134,0,0,,6,,,78,127
81306,note_on,1,0,0,,4,,,76,127
81440,note_off,134,0,0,,4,,,76,127
81441,note_on,1,0,0,,2,,,74,127
81575,note_off,134,0,0,,2,,,74,127
81576,note_on,1,0,0,,1,,,73,127
81710,note_off,134,0,0,,1,,,73,127
81710,note_off,0,0,0,,6,,,54,127
81711,note_on,1,0,0,,7,,,55,127
81711,note_on,0,0,0,,12,,,71,127
81844,note_off,133,0,0,,6,,,66,127
81847,note_on,3,0,0,,4,,,64,127
81981,note_off,134,0,0,,4,,,64,127
81982,note_on,1,0,0,,2,,,62,127
82116,note_off,134,0,0,,2,,,62,127
82117,note_on,1,0,0,,1,,,61,127
82251,note_off,134,0,0,,1,,,61,127
82251,note_off,0,0,0,,7,,,55,127
82252,note_on,1,0,0,,12,,,59,127
82386,note_off,134,0,0,,12,,,59,127
82387,note_on,1,0,0,,2,,,62,127
82521,note_off,134,0,0,,2,,,62,127
82521,note_off,0,0,0,,12,,,71,127
82522,note_on,1,0,0,,1,,,61,127
82522,note_on,0,0,0,,4,,,76,127
82656,note_off,134,0,0,,1,,,61,127
82657,note_on,1,0,0,,12,,,59,127
82791,note_off,134,0,0,,12,,,59,127
82792,note_on,1,0,0,,11,,,58,127
82926,note_off,134,0,0,,11,,,58,127
82927,note_on,1,0,0,,6,,,54,127
83061,note_off,134,0,0,,6,,,54,127
83061,note_off,0,0,0,,4,,,76,127
83062,note_on,1,0,0,,8,,,56,127
83062,note_on,0,0,0,,2,,,74,127
83196,note_off,134,0,0,,2,,,74,127
83196,note_off,0,0,0,,8,,,56,127
83197,note_on,1,0,0,,11,,,58,127
83197,note_on,0,0,0,,1,,,73,127
83331,note_off,134,0,0,,1,,,73,127
83331,note_off,0,0,0,,11,,,58,127
83332,note_on,1,0,0,,12,,,59,127
83332,note_on,0,0,0,,2,,,74,127
83466,note_off,134,0,0,,2,,,74,127
83466,note_off,0,0,0,,12,,,59,127
83467,note_on,1,0,0,,1,,,61,127
83467,note_on,0,0,0,,4,,,76,127
83601,note_off,134,0,0,,4,,,76,127
83601,note_off,0,0,0,,1,,,61,127
83602,note_on,1,0,0,,2,,,62,127
83602,note_on,0,0,0,,6,,,78,127
83736,note_off,134,0,0,,6,,,78,127
83736,note_off,0,0,0,,2,,,62,127
83737,note_on,1,0,0,,4,,,64,127
83737,note_on,0,0,0,,12,,,71,127
83871,note_off,134,0,0,,12,,,71,127
83871,note_off,0,0,0,,4,,,64,127
83872,note_on,1,0,0,,6,,,66,127
83872,note_on,0,0,0,,12,,,71,127
84006,note_off,134,0,0,,12,,,71,127
84007,note_on,1,0,0,,6,,,54,127
84007,note_on,0,0,0,,11,,,70,127
84140,note_off,133,0,0,,6,,,66,127
84141,note_off,1,0,0,,11,,,70,127
84141,note_off,0,0,0,,6,,,54,127
84142,note_on,1,0,0,,8,,,56,127
84142,note_on,0,0,0,,12,,,71,127
84276,note_off,134,0,0,,12,,,71,127
84276,note_off,0,0,0,,8,,,56,127
84277,note_on,1,0,0,,11,,,58,127
84277,note_on,0,0,0,,1,,,73,127
84411,note_off,134,0,0,,1,,,73,127
84411,note_off,0,0,0,,11,,,58,127
84412,note_on,1,0,0,,12,,,59,127
84412,note_on,0,0,0,,2,,,74,127
84546,note_off,134,0,0,,2,,,74,127
84546,note_off,0,0,0,,12,,,59,127
84547,note_on,1,0,0,,1,,,61,127
84547,note_on,0,0,0,,4,,,76,127
84681,note_off,134,0,0,,4,,,76,127
84681,note_off,0,0,0,,1,,,61,127
84682,note_on,1,0,0,,2,,,62,127
84682,note_on,0,0,0,,6,,,78,127
84816,note_off,134,0,0,,6,,,78,127
84816,note_off,0,0,0,,2,,,62,127
84817,note_on,1,0,0,,4,,,64,127
84817,note_on,0,0,0,,12,,,71,127
84951,note_off,134,0,0,,12,,,71,127
84951,note_off,0,0,0,,4,,,64,127
84952,note_on,1,0,0,,6,,,66,127
84952,note_on,0,0,0,,12,,,71,127
85086,note_off,134,0,0,,12,,,71,127
85087,note_on,1,0,0,,6,,,54,127
85087,note_on,0,0,0,,11,,,70,127
85220,note_off,133,0,0,,6,,,66,127
85221,note_off,1,0,0,,11,,,70,127
85221,note_off,0,0,0,,6,,,54,127
85222,note_on,1,0,0,,8,,,56,127
85222,note_on,0,0,0,,12,,,71,127
85356,note_off,134,0,0,,12,,,71,127
85356,note_off,0,0,0,,8,,,56,127
85357,note_on,1,0,0,,11,,,58,127
85357,note_on,0,0,0,,1,,,73,127
85491,note_off,134,0,0,,1,,,73,127
85491,note_off,0,0,0,,11,,,58,127
85492,note_on,1,0,0,,12,,,59,127
85492,note_on,0,0,0,,2,,,74,127
85626,note_off,134,0,0,,2,,,74,127
85626,note_off,0,0,0,,12,,,59,127
85627,note_on,1,0,0,,1,,,61,127
85627,note_on,0,0,0,,4,,,76,127
85761,note_off,134,0,0,,4,,,76,127
85761,note_off,0,0,0,,1,,,61,127
85762,note_on,1,0,0,,2,,,62,127
85762,note_on,0,0,0,,6,,,78,127
85896,note_off,134,0,0,,6,,,78,127
85896,note_off,0,0,0,,2,,,62,127
85897,note_on,1,0,0,,4,,,64,127
85897,note_on,0,0,0,,12,,,71,127
86031,note_off,134,0,0,,12,,,71,127
86031,note_off,0,0,0,,4,,,64,127
86032,note_on,1,0,0,,6,,,66,127
86032,note_on,0,0,0,,11,,,70,127
86300,note_off,268,0,0,,6,,,66,127
86301,note_off,1,0,0,,11,,,70,127
86302,note_on,1,0,0,,6,,,66,127
86573,note_on,271,0,0,,6,,,54,127
86838,note_off,265,0,0,,6,,,66,127
86844,note_on,6,0,0,,6,,,78,127
86844,note_on,0,0,0,,6,,,66,127
87114,note_off,270,0,0,,6,,,66,127
87114,note_off,0,0,0,,6,,,78,127
87115,note_on,1,0,0,,7,,,79,127
87115,note_on,0,0,0,,7,,,67,127
87251,note_off,136,0,0,,6,,,54,127
87387,note_on,136,0,0,,4,,,64,127
87387,note_on,0,0,0,,4,,,52,127
87657,note_off,270,0,0,,7,,,67,127
87657,note_off,0,0,0,,7,,,79,127
87658,note_on,1,0,0,,11,,,82,127
87658,note_on,0,0,0,,11,,,70,127
87928,note_off,270,0,0,,4,,,52,127
87928,note_off,0,0,0,,4,,,64,127
87929,note_on,1,0,0,,1,,,49,127
87929,note_on,0,0,0,,1,,,61,127
88199,note_off,270,0,0,,11,,,70,127
88199,note_off,0,0,0,,11,,,82,127
88200,note_on,1,0,0,,1,,,85,127
88200,note_on,0,0,0,,1,,,73,127
88470,note_off,270,0,0,,1,,,61,127
88470,note_off,0,0,0,,1,,,49,127
88471,note_on,1,0,0,,11,,,46,127
88471,note_on,0,0,0,,11,,,58,127
88741,note_off,270,0,0,,11,,,58,127
88741,note_off,0,0,0,,11,,,46,127
88741,note_off,0,0,0,,1,,,73,127
88741,note_off,0,0,0,,1,,,85,127
88742,note_on,1,0,0,,12,,,47,127
88742,note_on,0,0,0,,12,,,59,127
88742,note_on,0,0,0,,2,,,86,127
88876,note_off,134,0,0,,2,,,86,127
88877,note_on,1,0,0,,11,,,82,127
89011,note_off,134,0,0,,11,,,82,127
89011,note_off,0,0,0,,12,,,59,127
89011,note_off,0,0,0,,12,,,47,127
89012,note_on,1,0,0,,2,,,50,127
89012,note_on,0,0,0,,2,,,62,127
89012,note_on,0,0,0,,12,,,83,127
89146,note_off,134,0,0,,12,,,83,127
89147,note_on,1,0,0,,6,,,78,127
89281,note_off,134,0,0,,6,,,78,127
89282,note_on,1,0,0,,7,,,79,127
89282,note_on,0,0,0,,7,,,67,127
89418,note_off,136,0,0,,2,,,62,127
89418,note_off,0,0,0,,2,,,50,127
89554,note_on,136,0,0,,4,,,52,127
89554,note_on,0,0,0,,4,,,64,127
89824,note_off,270,0,0,,7,,,67,127
89824,note_off,0,0,0,,7,,,79,127
89825,note_on,1,0,0,,11,,,82,127
89825,note_on,0,0,0,,11,,,70,127
90095,note_off,270,0,0,,4,,,64,127
90095,note_off,0,0,0,,4,,,52,127
90096,note_on,1,0,0,,1,,,49,127
90096,note_on,0,0,0,,1,,,61,127
90366,note_off,270,0,0,,11,,,70,127
90366,note_off,0,0,0,,11,,,82,127
90367,note_on,1,0,0,,1,,,85,127
90367,note_on,0,0,0,,1,,,73,127
90637,note_off,270,0,0,,1,,,61,127
90637,note_off,0,0,0,,1,,,49,127
90638,note_on,1,0,0,,11,,,46,127
90638,note_on,0,0,0,,11,,,58,127
90908,note_off,270,0,0,,11,,,58,127
90908,note_off,0,0,0,,11,,,46,127
90908,note_off,0,0,0,,1,,,73,127
90908,note_off,0,0,0,,1,,,85,127
90909,note_on,1,0,0,,12,,,47,127
90909,note_on,0,0,0,,12,,,59,127
90909,note_on,0,0,0,,2,,,86,127
91043,note_off,134,0,0,,2,,,86,127
91044,note_on,1,0,0,,11,,,82,127
91178,note_off,134,0,0,,11,,,82,127
91178,note_off,0,0,0,,12,,,59,127
91178,note_off,0,0,0,,12,,,47,127
91179,note_on,1,0,0,,2,,,62,127
91179,note_on,0,0,0,,2,,,50,127
91179,note_on,0,0,0,,12,,,83,127
91313,note_off,134,0,0,,12,,,83,127
91314,note_on,1,0,0,,6,,,78,127
91448,note_off,134,0,0,,6,,,78,127
91448,note_off,0,0,0,,2,,,50,127
91448,note_off,0,0,0,,2,,,62,127
91449,note_on,1,0,0,,4,,,52,127
91449,note_on,0,0,0,,7,,,79,127
91583,note_off,134,0,0,,7,,,79,127
91584,note_on,1,0,0,,2,,,74,127
91718,note_off,134,0,0,,2,,,74,127
91718,note_off,0,0,0,,4,,,52,127
91719,note_on,1,0,0,,4,,,64,127
91719,note_on,0,0,0,,4,,,76,127
91853,note_off,134,0,0,,4,,,76,127
91854,note_on,1,0,0,,1,,,73,127
91988,note_off,134,0,0,,1,,,73,127
91988,note_off,0,0,0,,4,,,64,127
91989,note_on,1,0,0,,6,,,66,127
91989,note_on,0,0,0,,2,,,74,127
92123,note_off,134,0,0,,2,,,74,127
92124,note_on,1,0,0,,12,,,71,127
92258,note_off,134,0,0,,12,,,71,127
92258,note_off,0,0,0,,6,,,66,127
92259,note_on,1,0,0,,6,,,54,127
92259,note_on,0,0,0,,1,,,73,127
92393,note_off,134,0,0,,1,,,73,127
92394,note_on,1,0,0,,11,,,70,127
92528,note_off,134,0,0,,11,,,70,127
92528,note_off,0,0,0,,6,,,54,127
92529,note_on,1,0,0,,12,,,47,127
92529,note_on,0,0,0,,12,,,71,127
92663,note_off,134,0,0,,12,,,71,127
92664,note_on,1,0,0,,2,,,74,127
92798,note_off,134,0,0,,2,,,74,127
92799,note_on,1,0,0,,12,,,71,127
92933,note_off,134,0,0,,12,,,71,127
92934,note_off,1,0,0,,12,,,47,127
92934,note_on,0,0,0,,6,,,66,127
93068,note_off,134,0,0,,6,,,66,127
93069,note_on,1,0,0,,6,,,66,127
93203,note_off,134,0,0,,6,,,66,127
93204,note_on,1,0,0,,11,,,58,127
93204,note_on,0,0,0,,7,,,67,127
93338,note_off,134,0,0,,7,,,67,127
93338,note_off,0,0,0,,11,,,58,127
93339,note_on,1,0,0,,1,,,61,127
93339,note_on,0,0,0,,4,,,76,127
93339,note_on,0,0,0,,1,,,73,127
93339,note_on,0,0,0,,11,,,70,127
93473,note_off,134,0,0,,1,,,61,127
93474,note_on,1,0,0,,4,,,64,127
93608,note_off,134,0,0,,4,,,64,127
93609,note_on,1,0,0,,12,,,35,127
93743,note_off,134,0,0,,11,,,70,127
93743,note_off,0,0,0,,1,,,73,127
93743,note_off,0,0,0,,4,,,76,127
93744,note_on,1,0,0,,2,,,74,127
93878,note_off,134,0,0,,2,,,74,127
93879,note_on,1,0,0,,12,,,71,127
94013,note_off,134,0,0,,12,,,71,127
94014,note_on,1,0,0,,6,,,66,127
94148,note_off,134,0,0,,6,,,66,127
94149,note_on,1,0,0,,6,,,66,127
94283,note_off,134,0,0,,6,,,66,127
94283,note_off,0,0,0,,12,,,35,127
94284,note_on,1,0,0,,11,,,58,127
94284,note_on,0,0,0,,7,,,67,127
94418,note_off,134,0,0,,7,,,67,127
94418,note_off,0,0,0,,11,,,58,127
94419,note_on,1,0,0,,1,,,61,127
94419,note_on,0,0,0,,4,,,76,127
94419,note_on,0,0,0,,1,,,73,127
94419,note_on,0,0,0,,11,,,70,127
94553,note_off,134,0,0,,1,,,61,127
94554,note_on,1,0,0,,4,,,64,127
94688,note_off,134,0,0,,4,,,64,127
94689,note_on,1,0,0,,12,,,35,127
94823,note_off,134,0,0,,11,,,70,127
94823,note_off,0,0,0,,1,,,73,127
94823,note_off,0,0,0,,4,,,76,127
94824,note_on,1,0,0,,4,,,76,127
94958,note_off,134,0,0,,4,,,76,127
94959,note_on,1,0,0,,2,,,74,127
95093,note_off,134,0,0,,2,,,74,127
95094,note_on,1,0,0,,1,,,73,127
95228,note_off,134,0,0,,1,,,73,127
95229,note_on,1,0,0,,12,,,71,127
95363,note_off,134,0,0,,12,,,71,127
95364,note_on,1,0,0,,10,,,69,127
95498,note_off,134,0,0,,10,,,69,127
95498,note_off,0,0,0,,12,,,35,127
95499,note_on,1,0,0,,12,,,59,127
95499,note_on,0,0,0,,2,,,50,127
95499,note_on,0,0,0,,2,,,74,127
95499,note_on,0,0,0,,7,,,67,127
95633,note_off,134,0,0,,7,,,67,127
95634,note_on,1,0,0,,6,,,66,127
95768,note_off,134,0,0,,6,,,66,127
95768,note_off,0,0,0,,2,,,50,127
95769,note_on,1,0,0,,4,,,52,127
95769,note_on,0,0,0,,7,,,67,127
95905,note_off,136,0,0,,2,,,74,127
95905,note_on,0,0,0,,1,,,73,127
96038,note_off,133,0,0,,7,,,67,127
96039,note_off,1,0,0,,1,,,73,127
96039,note_off,0,0,0,,12,,,59,127
96040,note_on,1,0,0,,4,,,64,127
96040,note_on,0,0,0,,11,,,70,127
96174,note_off,134,0,0,,11,,,70,127
96175,note_on,1,0,0,,12,,,71,127
96309,note_off,134,0,0,,4,,,64,127
96309,note_off,0,0,0,,4,,,52,127
96310,note_on,1,0,0,,6,,,54,127
96310,note_on,0,0,0,,2,,,62,127
96310,note_on,0,0,0,,6,,,66,127
96444,note_off,134,0,0,,12,,,71,127
96445,note_on,1,0,0,,1,,,73,127
96579,note_off,134,0,0,,1,,,73,127
96579,note_off,0,0,0,,6,,,66,127
96579,note_off,0,0,0,,2,,,62,127
96580,note_on,1,0,0,,1,,,61,127
96580,note_on,0,0,0,,4,,,64,127
96580,note_on,0,0,0,,11,,,70,127
96850,note_off,270,0,0,,11,,,70,127
96850,note_off,0,0,0,,4,,,64,127
96850,note_off,0,0,0,,1,,,61,127
96850,note_off,0,0,0,,6,,,54,127
96851,note_on,1,0,0,,12,,,47,127
96851,note_on,0,0,0,,12,,,59,127
96851,note_on,0,0,0,,12,,,71,127
96985,note_off,134,0,0,,12,,,71,127
96986,note_on,1,0,0,,6,,,78,127
97120,note_off,134,0,0,,6,,,78,127
97121,note_on,1,0,0,,2,,,74,127
97255,note_off,134,0,0,,2,,,74,127
97256,note_on,1,0,0,,12,,,71,127
97390,note_off,134,0,0,,12,,,71,127
97391,note_on,1,0,0,,7,,,79,127
97391,note_on,0,0,0,,11,,,70,127
97391,note_on,0,0,0,,1,,,73,127
97391,note_on,0,0,0,,4,,,76,127
97525,note_off,134,0,0,,12,,,59,127
97525,note_off,0,0,0,,12,,,47,127
97526,note_on,1,0,0,,11,,,58,127
97660,note_off,134,0,0,,11,,,58,127
97661,note_on,1,0,0,,1,,,61,127
97795,note_off,134,0,0,,1,,,61,127
97796,note_on,1,0,0,,4,,,64,127
97930,note_off,134,0,0,,4,,,64,127
97931,note_on,1,0,0,,12,,,35,127
98065,note_off,134,0,0,,4,,,76,127
98065,note_off,0,0,0,,1,,,73,127
98065,note_off,0,0,0,,11,,,70,127
98065,note_off,0,0,0,,7,,,79,127
98066,note_on,1,0,0,,6,,,78,127
98200,note_off,134,0,0,,6,,,78,127
98201,note_on,1,0,0,,2,,,74,127
98335,note_off,134,0,0,,2,,,74,127
98336,note_on,1,0,0,,12,,,71,127
98470,note_off,134,0,0,,12,,,71,127
98471,note_on,1,0,0,,1,,,73,127
98471,note_on,0,0,0,,11,,,70,127
98471,note_on,0,0,0,,7,,,79,127
98471,note_on,0,0,0,,4,,,76,127
98605,note_off,134,0,0,,12,,,35,127
98606,note_on,1,0,0,,11,,,58,127
98740,note_off,134,0,0,,11,,,58,127
98741,note_on,1,0,0,,1,,,61,127
98875,note_off,134,0,0,,1,,,61,127
98876,note_on,1,0,0,,4,,,64,127
99010,note_off,134,0,0,,4,,,64,127
99011,note_on,1,0,0,,12,,,35,127
99145,note_off,134,0,0,,4,,,76,127
99145,note_off,0,0,0,,7,,,79,127
99145,note_off,0,0,0,,11,,,70,127
99145,note_off,0,0,0,,1,,,73,127
99146,note_on,1,0,0,,7,,,79,127
99280,note_off,134,0,0,,7,,,79,127
99281,note_on,1,0,0,,6,,,78,127
99415,note_off,134,0,0,,6,,,78,127
99416,note_on,1,0,0,,4,,,76,127
99550,note_off,134,0,0,,4,,,76,127
99551,note_on,1,0,0,,2,,,74,127
99685,note_off,134,0,0,,2,,,74,127
99686,note_off,1,0,0,,12,,,35,127
99686,note_on,0,0,0,,1,,,73,127
99820,note_off,134,0,0,,1,,,73,127
99821,note_on,1,0,0,,2,,,50,127
99821,note_on,0,0,0,,12,,,59,127
99821,note_on,0,0,0,,6,,,78,127
99821,note_on,0,0,0,,12,,,71,127
99955,note_off,134,0,0,,12,,,71,127
99956,note_on,1,0,0,,10,,,69,127
100090,note_off,134,0,0,,10,,,69,127
100090,note_off,0,0,0,,2,,,50,127
100091,note_on,1,0,0,,4,,,52,127
100091,note_on,0,0,0,,7,,,67,127
100227,note_off,136,0,0,,6,,,78,127
100227,note_on,0,0,0,,4,,,76,127
100361,note_off,134,0,0,,4,,,76,127
100361,note_off,0,0,0,,12,,,59,127
100362,note_on,1,0,0,,4,,,64,127
100362,note_on,0,0,0,,2,,,74,127
100496,note_off,134,0,0,,2,,,74,127
100497,note_on,1,0,0,,1,,,73,127
100627,note_off,130,0,0,,4,,,52,127
100631,note_off,4,0,0,,1,,,73,127
100631,note_off,0,0,0,,4,,,64,127
100631,note_off,0,0,0,,7,,,67,127
100632,note_on,1,0,0,,6,,,54,127
100632,note_on,0,0,0,,2,,,62,127
100632,note_on,0,0,0,,12,,,59,127
100632,note_on,0,0,0,,2,,,74,127
100768,note_on,136,0,0,,12,,,83,127
100901,note_off,133,0,0,,2,,,74,127
100902,note_off,1,0,0,,12,,,83,127
100902,note_off,0,0,0,,12,,,59,127
100902,note_off,0,0,0,,2,,,62,127
100903,note_on,1,0,0,,4,,,64,127
100903,note_on,0,0,0,,1,,,61,127
100903,note_on,0,0,0,,1,,,73,127
101039,note_on,136,0,0,,11,,,82,127
101172,note_off,133,0,0,,1,,,73,127
101173,note_off,1,0,0,,11,,,82,127
101173,note_off,0,0,0,,1,,,61,127
101173,note_off,0,0,0,,4,,,64,127
101173,note_off,0,0,0,,6,,,54,127
101174,note_on,1,0,0,,12,,,59,127
101174,note_on,0,0,0,,7,,,55,127
101174,note_on,0,0,0,,4,,,64,127
101174,note_on,0,0,0,,12,,,83,127
101308,note_off,134,0,0,,12,,,83,127
101309,note_on,1,0,0,,1,,,73,127
101443,note_off,134,0,0,,1,,,73,127
101443,note_off,0,0,0,,7,,,55,127
101444,note_on,1,0,0,,4,,,52,127
101444,note_on,0,0,0,,2,,,74,127
101578,note_off,134,0,0,,2,,,74,127
101579,note_on,1,0,0,,4,,,76,127
101709,note_off,130,0,0,,4,,,64,127
101709,note_off,0,0,0,,12,,,59,127
101713,note_off,4,0,0,,4,,,76,127
101713,note_off,0,0,0,,4,,,52,127
101714,note_on,1,0,0,,6,,,54,127
101714,note_on,0,0,0,,12,,,59,127
101714,note_on,0,0,0,,2,,,62,127
101714,note_on,0,0,0,,2,,,74,127
101848,note_off,134,0,0,,2,,,74,127
101849,note_on,1,0,0,,12,,,71,127
101983,note_off,134,0,0,,12,,,71,127
101983,note_off,0,0,0,,2,,,62,127
101983,note_off,0,0,0,,12,,,59,127
101984,note_on,1,0,0,,1,,,61,127
101984,note_on,0,0,0,,4,,,64,127
101984,note_on,0,0,0,,1,,,73,127
102118,note_off,134,0,0,,1,,,73,127
102119,note_on,1,0,0,,11,,,70,127
102253,note_off,134,0,0,,11,,,70,127
102253,note_off,0,0,0,,1,,,61,127
102253,note_off,0,0,0,,6,,,54,127
102254,note_on,1,0,0,,7,,,55,127
102254,note_on,0,0,0,,12,,,59,127
102254,note_on,0,0,0,,12,,,71,127
102388,note_off,134,0,0,,12,,,71,127
102389,note_off,1,0,0,,4,,,64,127
102389,note_on,0,0,0,,4,,,64,127
102523,note_off,134,0,0,,4,,,64,127
102523,note_off,0,0,0,,7,,,55,127
102524,note_on,1,0,0,,4,,,52,127
102524,note_on,0,0,0,,6,,,66,127
102658,note_off,134,0,0,,6,,,66,127
102659,note_on,1,0,0,,7,,,67,127
102793,note_off,134,0,0,,7,,,67,127
102793,note_off,0,0,0,,4,,,52,127
102793,note_off,0,0,0,,12,,,59,127
102794,note_on,1,0,0,,6,,,54,127
102794,note_on,0,0,0,,2,,,62,127
102928,note_off,134,0,0,,2,,,62,127
102929,note_on,1,0,0,,12,,,71,127
103063,note_off,134,0,0,,12,,,71,127
103064,note_on,1,0,0,,6,,,42,127
103064,note_on,0,0,0,,1,,,61,127
103198,note_off,134,0,0,,1,,,61,127
103199,note_on,1,0,0,,11,,,70,127
103333,note_off,134,0,0,,11,,,70,127
103333,note_off,0,0,0,,6,,,42,127
103333,note_off,0,0,0,,6,,,54,127
103334,note_on,1,0,0,,12,,,47,127
103334,note_on,0,0,0,,11,,,70,127
103621,note_off,287,0,0,,11,,,70,127
103622,note_on,1,0,0,,12,,,71,127
104960,note_off,1338,0,0,,12,,,71,127
104960,note_off,0,0,0,,12,,,47,127
109056,end_of_track,4096,1,0,,,,,,
