tick,type,time,meta,track,program,channel,pitch,tempo,note,velocity
0,copyright,0,1,0,,,,,,
0,program_change,0,0,0,6,0,,,,
0,pitchwheel,0,0,0,,0,0,,,
0,program_change,0,0,0,6,1,,,,
0,pitchwheel,0,0,0,,1,-590,,,
0,program_change,0,0,0,6,2,,,,
0,pitchwheel,0,0,0,,2,-272,,,
0,program_change,0,0,0,6,3,,,,
0,pitchwheel,0,0,0,,3,-353,,,
0,program_change,0,0,0,6,4,,,,
0,pitchwheel,0,0,0,,4,-560,,,
0,program_change,0,0,0,6,5,,,,
0,pitchwheel,0,0,0,,5,-80,,,
0,program_change,0,0,0,6,6,,,,
0,pitchwheel,0,0,0,,6,-625,,,
0,program_change,0,0,0,6,7,,,,
0,pitchwheel,0,0,0,,7,-130,,,
0,program_change,0,0,0,6,8,,,,
0,pitchwheel,0,0,0,,8,-512,,,
0,program_change,0,0,0,6,10,,,,
0,pitchwheel,0,0,0,,10,-464,,,
0,program_change,0,0,0,6,11,,,,
0,pitchwheel,0,0,0,,11,-208,,,
0,program_change,0,0,0,6,12,,,,
0,pitchwheel,0,0,0,,12,-553,,,
0,set_tempo,0,1,0,,,,500000,,
68,note_on,68,0,0,,3,,,75,127
203,note_off,135,0,0,,3,,,75,127
204,note_on,1,0,0,,5,,,77,127
339,note_off,135,0,0,,5,,,77,127
340,note_on,1,0,0,,7,,,79,127
475,note_off,135,0,0,,7,,,79,127
476,note_on,1,0,0,,7,,,79,127
543,note_off,67,0,0,,7,,,79,127
544,note_on,1,0,0,,5,,,77,127
611,note_off,67,0,0,,5,,,77,127
612,note_on,1,0,0,,3,,,75,127
747,note_off,135,0,0,,3,,,75,127
748,note_on,1,0,0,,2,,,74,127
883,note_off,135,0,0,,2,,,74,127
884,note_on,1,0,0,,3,,,63,127
884,note_on,0,0,0,,0,,,72,127
1019,note_off,135,0,0,,3,,,63,127
1020,note_on,1,0,0,,5,,,65,127
1155,note_off,135,0,0,,5,,,65,127
1156,note_on,1,0,0,,7,,,67,127
1291,note_off,135,0,0,,7,,,67,127
1292,note_on,1,0,0,,7,,,67,127
1359,note_off,67,0,0,,7,,,67,127
1360,note_on,1,0,0,,5,,,65,127
1427,note_off,67,0,0,,5,,,65,127
1428,note_on,1,0,0,,3,,,63,127
1563,note_off,135,0,0,,3,,,63,127
1563,note_off,0,0,0,,0,,,72,127
1564,note_on,1,0,0,,2,,,62,127
1564,note_on,0,0,0,,12,,,71,127
1699,note_off,135,0,0,,12,,,71,127
1699,note_off,0,0,0,,2,,,62,127
1700,note_on,1,0,0,,3,,,63,127
1700,note_on,0,0,0,,0,,,72,127
1835,note_off,135,0,0,,0,,,72,127
1836,note_on,1,0,0,,12,,,71,127
1971,note_off,135,0,0,,12,,,71,127
1972,note_on,1,0,0,,0,,,72,127
2107,note_off,135,0,0,,0,,,72,127
2107,note_off,0,0,0,,3,,,63,127
2108,note_on,1,0,0,,12,,,59,127
2108,note_on,0,0,0,,3,,,75,127
2175,note_off,67,0,0,,3,,,75,127
2176,note_on,1,0,0,,2,,,74,127
2243,note_off,67,0,0,,2,,,74,127
2244,note_on,1,0,0,,0,,,72,127
2379,note_off,135,0,0,,0,,,72,127
2380,note_on,1,0,0,,2,,,74,127
2515,note_off,135,0,0,,2,,,74,127
2515,note_off,0,0,0,,12,,,59,127
2516,note_on,1,0,0,,0,,,60,127
2516,note_on,0,0,0,,3,,,75,127
2651,note_off,135,0,0,,3,,,75,127
2652,note_on,1,0,0,,2,,,74,127
2787,note_off,135,0,0,,2,,,74,127
2788,note_on,1,0,0,,3,,,75,127
2923,note_off,135,0,0,,3,,,75,127
2923,note_off,0,0,0,,0,,,60,127
2924,note_on,1,0,0,,8,,,56,127
2924,note_on,0,0,0,,7,,,79,127
2991,note_off,67,0,0,,7,,,79,127
2992,note_on,1,0,0,,5,,,77,127
3059,note_off,67,0,0,,5,,,77,127
3060,note_on,1,0,0,,3,,,75,127
3195,note_off,135,0,0,,3,,,75,127
3196,note_on,1,0,0,,5,,,77,127
3331,note_off,135,0,0,,5,,,77,127
3331,note_off,0,0,0,,8,,,56,127
3332,note_on,1,0,0,,3,,,51,127
3332,note_on,0,0,0,,7,,,79,127
3467,note_off,135,0,0,,7,,,79,127
3468,note_on,1,0,0,,5,,,77,127
3603,note_off,135,0,0,,5,,,77,127
3604,note_on,1,0,0,,7,,,79,127
3739,note_off,135,0,0,,7,,,79,127
3739,note_off,0,0,0,,3,,,51,127
3740,note_on,1,0,0,,5,,,53,127
3740,note_on,0,0,0,,8,,,80,127
3875,note_off,135,0,0,,8,,,80,127
3876,note_on,1,0,0,,5,,,77,127
4011,note_off,135,0,0,,5,,,77,127
4012,note_on,1,0,0,,2,,,74,127
4147,note_off,135,0,0,,2,,,74,127
4147,note_off,0,0,0,,5,,,53,127
4148,note_on,1,0,0,,7,,,55,127
4148,note_on,0,0,0,,0,,,72,127
4418,note_off,270,0,0,,0,,,72,127
4419,note_on,1,0,0,,12,,,71,127
4554,note_off,135,0,0,,12,,,71,127
4554,note_off,0,0,0,,7,,,55,127
4555,note_on,1,0,0,,8,,,56,127
4555,note_on,0,0,0,,2,,,74,127
4622,note_off,67,0,0,,2,,,74,127
4623,note_on,1,0,0,,0,,,72,127
4690,note_off,67,0,0,,0,,,72,127
4691,note_on,1,0,0,,12,,,71,127
4826,note_off,135,0,0,,12,,,71,127
4827,note_on,1,0,0,,0,,,72,127
4962,note_off,135,0,0,,0,,,72,127
4962,note_off,0,0,0,,8,,,56,127
4963,note_on,1,0,0,,7,,,55,127
4963,note_on,0,0,0,,2,,,74,127
5099,note_on,136,0,0,,7,,,79,127
5133,note_off,34,0,0,,2,,,74,127
5234,note_off,101,0,0,,7,,,79,127
5235,note_on,1,0,0,,7,,,67,127
5370,note_off,135,0,0,,7,,,67,127
5370,note_off,0,0,0,,7,,,55,127
5371,note_on,1,0,0,,5,,,53,127
5371,note_on,0,0,0,,11,,,70,127
5438,note_off,67,0,0,,11,,,70,127
5439,note_on,1,0,0,,8,,,68,127
5506,note_off,67,0,0,,8,,,68,127
5507,note_on,1,0,0,,7,,,67,127
5642,note_off,135,0,0,,7,,,67,127
5643,note_on,1,0,0,,8,,,68,127
5778,note_off,135,0,0,,8,,,68,127
5778,note_off,0,0,0,,5,,,53,127
5779,note_on,1,0,0,,3,,,51,127
5779,note_on,0,0,0,,7,,,67,127
5915,note_on,136,0,0,,7,,,79,127
5949,note_off,34,0,0,,7,,,67,127
6050,note_off,101,0,0,,7,,,79,127
6051,note_on,1,0,0,,12,,,71,127
6186,note_off,135,0,0,,12,,,71,127
6186,note_off,0,0,0,,3,,,51,127
6187,note_on,1,0,0,,5,,,53,127
6187,note_on,0,0,0,,2,,,74,127
6254,note_off,67,0,0,,2,,,74,127
6255,note_on,1,0,0,,0,,,72,127
6322,note_off,67,0,0,,0,,,72,127
6323,note_on,1,0,0,,12,,,71,127
6458,note_off,135,0,0,,12,,,71,127
6459,note_on,1,0,0,,0,,,72,127
6594,note_off,135,0,0,,0,,,72,127
6594,note_off,0,0,0,,5,,,53,127
6595,note_on,1,0,0,,7,,,55,127
6595,note_on,0,0,0,,12,,,71,127
6731,note_on,136,0,0,,7,,,79,127
6765,note_off,34,0,0,,12,,,71,127
6866,note_off,101,0,0,,7,,,79,127
6867,note_on,1,0,0,,7,,,67,127
7002,note_off,135,0,0,,7,,,67,127
7002,note_off,0,0,0,,7,,,55,127
7003,note_on,1,0,0,,5,,,53,127
7003,note_on,0,0,0,,11,,,70,127
7070,note_off,67,0,0,,11,,,70,127
7071,note_on,1,0,0,,8,,,68,127
7138,note_off,67,0,0,,8,,,68,127
7139,note_on,1,0,0,,7,,,67,127
7274,note_off,135,0,0,,7,,,67,127
7275,note_on,1,0,0,,8,,,68,127
7410,note_off,135,0,0,,8,,,68,127
7410,note_off,0,0,0,,5,,,53,127
7411,note_on,1,0,0,,7,,,55,127
7411,note_on,0,0,0,,7,,,67,127
7817,note_off,406,0,0,,7,,,67,127
7817,note_off,0,0,0,,7,,,55,127
7818,note_on,1,0,0,,7,,,79,127
7818,note_on,0,0,0,,11,,,82,127
7818,note_on,0,0,0,,7,,,67,127
7954,note_on,136,0,0,,4,,,64,127
8039,note_off,85,0,0,,7,,,67,127
8089,note_on,50,0,0,,0,,,60,127
8174,note_off,85,0,0,,4,,,64,127
8223,note_off,49,0,0,,11,,,82,127
8223,note_off,0,0,0,,7,,,79,127
8224,note_on,1,0,0,,5,,,77,127
8224,note_on,0,0,0,,8,,,80,127
8224,note_on,0,0,0,,8,,,68,127
8309,note_off,85,0,0,,0,,,60,127
8359,note_on,50,0,0,,5,,,65,127
8444,note_off,85,0,0,,8,,,68,127
8494,note_on,50,0,0,,0,,,60,127
8579,note_off,85,0,0,,5,,,65,127
8628,note_off,49,0,0,,8,,,80,127
8628,note_off,0,0,0,,5,,,77,127
8629,note_on,1,0,0,,0,,,48,127
8629,note_on,0,0,0,,0,,,36,127
8629,note_on,0,0,0,,11,,,70,127
8714,note_off,85,0,0,,0,,,60,127
8764,note_on,50,0,0,,7,,,67,127
8849,note_off,85,0,0,,11,,,70,127
8899,note_on,50,0,0,,0,,,60,127
8984,note_off,85,0,0,,7,,,67,127
9033,note_off,49,0,0,,0,,,36,127
9033,note_off,0,0,0,,0,,,48,127
9034,note_on,1,0,0,,5,,,41,127
9034,note_on,0,0,0,,5,,,53,127
9034,note_on,0,0,0,,8,,,68,127
9119,note_off,85,0,0,,0,,,60,127
9169,note_on,50,0,0,,5,,,65,127
9254,note_off,85,0,0,,8,,,68,127
9304,note_on,50,0,0,,0,,,60,127
9389,note_off,85,0,0,,5,,,65,127
9438,note_off,49,0,0,,5,,,53,127
9438,note_off,0,0,0,,5,,,41,127
9439,note_on,1,0,0,,7,,,79,127
9439,note_on,0,0,0,,11,,,82,127
9439,note_on,0,0,0,,7,,,67,127
9524,note_off,85,0,0,,0,,,60,127
9574,note_on,50,0,0,,4,,,64,127
9659,note_off,85,0,0,,7,,,67,127
9709,note_on,50,0,0,,0,,,60,127
9794,note_off,85,0,0,,4,,,64,127
9843,note_off,49,0,0,,11,,,82,127
9843,note_off,0,0,0,,7,,,79,127
9844,note_on,1,0,0,,5,,,77,127
9844,note_on,0,0,0,,8,,,80,127
9844,note_on,0,0,0,,8,,,68,127
9929,note_off,85,0,0,,0,,,60,127
9979,note_on,50,0,0,,5,,,65,127
10064,note_off,85,0,0,,8,,,68,127
10114,note_on,50,0,0,,0,,,60,127
10199,note_off,85,0,0,,5,,,65,127
10248,note_off,49,0,0,,8,,,80,127
10248,note_off,0,0,0,,5,,,77,127
10249,note_on,1,0,0,,0,,,36,127
10249,note_on,0,0,0,,0,,,48,127
10249,note_on,0,0,0,,11,,,70,127
10334,note_off,85,0,0,,0,,,60,127
10384,note_on,50,0,0,,7,,,67,127
10469,note_off,85,0,0,,11,,,70,127
10519,note_on,50,0,0,,0,,,60,127
10604,note_off,85,0,0,,7,,,67,127
10653,note_off,49,0,0,,0,,,48,127
10653,note_off,0,0,0,,0,,,36,127
10654,note_on,1,0,0,,5,,,41,127
10654,note_on,0,0,0,,5,,,53,127
10654,note_on,0,0,0,,8,,,68,127
10739,note_off,85,0,0,,0,,,60,127
10789,note_on,50,0,0,,5,,,65,127
10874,note_off,85,0,0,,8,,,68,127
10924,note_on,50,0,0,,0,,,60,127
11009,note_off,85,0,0,,5,,,65,127
11058,note_off,49,0,0,,0,,,60,127
11059,note_off,1,0,0,,5,,,53,127
11059,note_off,0,0,0,,5,,,41,127
11060,note_on,1,0,0,,8,,,80,127
11060,note_on,0,0,0,,5,,,77,127
11060,note_on,0,0,0,,5,,,65,127
11196,note_on,136,0,0,,2,,,62,127
11281,note_off,85,0,0,,5,,,65,127
11331,note_on,50,0,0,,11,,,58,127
11416,note_off,85,0,0,,2,,,62,127
11465,note_off,49,0,0,,5,,,77,127
11465,note_off,0,0,0,,8,,,80,127
11466,note_on,1,0,0,,3,,,75,127
11466,note_on,0,0,0,,7,,,79,127
11466,note_on,0,0,0,,7,,,67,127
11551,note_off,85,0,0,,11,,,58,127
11601,note_on,50,0,0,,3,,,63,127
11686,note_off,85,0,0,,7,,,67,127
11736,note_on,50,0,0,,11,,,58,127
11821,note_off,85,0,0,,3,,,63,127
11870,note_off,49,0,0,,7,,,79,127
11870,note_off,0,0,0,,3,,,75,127
11871,note_on,1,0,0,,11,,,46,127
11871,note_on,0,0,0,,11,,,34,127
11871,note_on,0,0,0,,8,,,68,127
11956,note_off,85,0,0,,11,,,58,127
12006,note_on,50,0,0,,5,,,65,127
12091,note_off,85,0,0,,8,,,68,127
12141,note_on,50,0,0,,11,,,58,127
12226,note_off,85,0,0,,5,,,65,127
12275,note_off,49,0,0,,11,,,34,127
12275,note_off,0,0,0,,11,,,46,127
12276,note_on,1,0,0,,3,,,39,127
12276,note_on,0,0,0,,3,,,51,127
12276,note_on,0,0,0,,7,,,67,127
12361,note_off,85,0,0,,11,,,58,127
12411,note_on,50,0,0,,3,,,63,127
12496,note_off,85,0,0,,7,,,67,127
12546,note_on,50,0,0,,11,,,58,127
12631,note_off,85,0,0,,3,,,63,127
12680,note_off,49,0,0,,3,,,51,127
12680,note_off,0,0,0,,3,,,39,127
12681,note_on,1,0,0,,5,,,77,127
12681,note_on,0,0,0,,8,,,80,127
12681,note_on,0,0,0,,5,,,65,127
12766,note_off,85,0,0,,11,,,58,127
12816,note_on,50,0,0,,2,,,62,127
12901,note_off,85,0,0,,5,,,65,127
12951,note_on,50,0,0,,11,,,58,127
13036,note_off,85,0,0,,2,,,62,127
13085,note_off,49,0,0,,8,,,80,127
13085,note_off,0,0,0,,5,,,77,127
13086,note_on,1,0,0,,3,,,75,127
13086,note_on,0,0,0,,7,,,79,127
13086,note_on,0,0,0,,7,,,67,127
13171,note_off,85,0,0,,11,,,58,127
13221,note_on,50,0,0,,3,,,63,127
13306,note_off,85,0,0,,7,,,67,127
13356,note_on,50,0,0,,11,,,58,127
13441,note_off,85,0,0,,3,,,63,127
13490,note_off,49,0,0,,7,,,79,127
13490,note_off,0,0,0,,3,,,75,127
13491,note_on,1,0,0,,11,,,46,127
13491,note_on,0,0,0,,11,,,34,127
13491,note_on,0,0,0,,8,,,68,127
13576,note_off,85,0,0,,11,,,58,127
13626,note_on,50,0,0,,5,,,65,127
13711,note_off,85,0,0,,8,,,68,127
13761,note_on,50,0,0,,11,,,58,127
13846,note_off,85,0,0,,5,,,65,127
13895,note_off,49,0,0,,11,,,34,127
13895,note_off,0,0,0,,11,,,46,127
13896,note_on,1,0,0,,3,,,39,127
13896,note_on,0,0,0,,3,,,51,127
13896,note_on,0,0,0,,7,,,67,127
13981,note_off,85,0,0,,11,,,58,127
14031,note_on,50,0,0,,3,,,63,127
14116,note_off,85,0,0,,7,,,67,127
14166,note_on,50,0,0,,0,,,72,127
14251,note_off,85,0,0,,3,,,63,127
14300,note_off,49,0,0,,0,,,72,127
14301,note_off,1,0,0,,3,,,51,127
14301,note_off,0,0,0,,3,,,39,127
14302,note_on,1,0,0,,0,,,84,127
14302,note_on,0,0,0,,10,,,81,127
14302,note_on,0,0,0,,6,,,66,127
14438,note_on,136,0,0,,2,,,62,127
14523,note_off,85,0,0,,6,,,66,127
14573,note_on,50,0,0,,10,,,69,127
14658,note_off,85,0,0,,2,,,62,127
14707,note_off,49,0,0,,10,,,69,127
14708,note_off,1,0,0,,10,,,81,127
14708,note_off,0,0,0,,0,,,84,127
14709,note_on,1,0,0,,7,,,79,127
14709,note_on,0,0,0,,11,,,82,127
14709,note_on,0,0,0,,7,,,67,127
14845,note_on,136,0,0,,2,,,62,127
14930,note_off,85,0,0,,7,,,67,127
14980,note_on,50,0,0,,11,,,70,127
15065,note_off,85,0,0,,2,,,62,127
15114,note_off,49,0,0,,11,,,70,127
15115,note_off,1,0,0,,11,,,82,127
15115,note_off,0,0,0,,7,,,79,127
15116,note_on,1,0,0,,2,,,38,127
15116,note_on,0,0,0,,2,,,50,127
15116,note_on,0,0,0,,10,,,69,127
15252,note_on,136,0,0,,2,,,62,127
15337,note_off,85,0,0,,10,,,69,127
15387,note_on,50,0,0,,0,,,72,127
15472,note_off,85,0,0,,2,,,62,127
15521,note_off,49,0,0,,0,,,72,127
15522,note_off,1,0,0,,2,,,50,127
15522,note_off,0,0,0,,2,,,38,127
15523,note_on,1,0,0,,7,,,43,127
15523,note_on,0,0,0,,7,,,55,127
15523,note_on,0,0,0,,11,,,70,127
15659,note_on,136,0,0,,2,,,62,127
15744,note_off,85,0,0,,11,,,70,127
15794,note_on,50,0,0,,2,,,74,127
15879,note_off,85,0,0,,2,,,62,127
15928,note_off,49,0,0,,7,,,55,127
15928,note_off,0,0,0,,7,,,43,127
15929,note_on,1,0,0,,0,,,84,127
15929,note_on,0,0,0,,10,,,81,127
15929,note_on,0,0,0,,6,,,66,127
16014,note_off,85,0,0,,2,,,74,127
16064,note_on,50,0,0,,2,,,62,127
16149,note_off,85,0,0,,6,,,66,127
16199,note_on,50,0,0,,10,,,69,127
16284,note_off,85,0,0,,2,,,62,127
16333,note_off,49,0,0,,10,,,69,127
16334,note_off,1,0,0,,10,,,81,127
16334,note_off,0,0,0,,0,,,84,127
16335,note_on,1,0,0,,7,,,79,127
16335,note_on,0,0,0,,11,,,82,127
16335,note_on,0,0,0,,7,,,67,127
16471,note_on,136,0,0,,2,,,62,127
16556,note_off,85,0,0,,7,,,67,127
16606,note_on,50,0,0,,11,,,70,127
16691,note_off,85,0,0,,2,,,62,127
16740,note_off,49,0,0,,11,,,70,127
16741,note_off,1,0,0,,11,,,82,127
16741,note_off,0,0,0,,7,,,79,127
16742,note_on,1,0,0,,2,,,38,127
16742,note_on,0,0,0,,2,,,50,127
16742,note_on,0,0,0,,10,,,69,127
16878,note_on,136,0,0,,2,,,62,127
16963,note_off,85,0,0,,10,,,69,127
17013,note_on,50,0,0,,0,,,72,127
17098,note_off,85,0,0,,2,,,62,127
17147,note_off,49,0,0,,0,,,72,127
17148,note_off,1,0,0,,2,,,50,127
17148,note_off,0,0,0,,2,,,38,127
17149,note_on,1,0,0,,7,,,43,127
17149,note_on,0,0,0,,7,,,55,127
17149,note_on,0,0,0,,11,,,70,127
17284,note_off,135,0,0,,11,,,70,127
17285,note_on,1,0,0,,10,,,69,127
17420,note_off,135,0,0,,10,,,69,127
17421,note_on,1,0,0,,7,,,67,127
17556,note_off,135,0,0,,7,,,67,127
17556,note_off,0,0,0,,7,,,55,127
17556,note_off,0,0,0,,7,,,43,127
17557,note_on,1,0,0,,11,,,46,127
17557,note_on,0,0,0,,7,,,55,127
17557,note_on,0,0,0,,2,,,74,127
17692,note_off,135,0,0,,2,,,74,127
17693,note_on,1,0,0,,7,,,79,127
17828,note_off,135,0,0,,7,,,79,127
17829,note_on,1,0,0,,5,,,77,127
17964,note_off,135,0,0,,5,,,77,127
17964,note_off,0,0,0,,7,,,55,127
17964,note_off,0,0,0,,11,,,46,127
17965,note_on,1,0,0,,7,,,55,127
17965,note_on,0,0,0,,0,,,48,127
17965,note_on,0,0,0,,10,,,57,127
17965,note_on,0,0,0,,3,,,75,127
18100,note_off,135,0,0,,3,,,75,127
18101,note_on,1,0,0,,2,,,74,127
18236,note_off,135,0,0,,2,,,74,127
18237,note_on,1,0,0,,0,,,72,127
18372,note_off,135,0,0,,0,,,72,127
18372,note_off,0,0,0,,10,,,57,127
18372,note_off,0,0,0,,0,,,48,127
18372,note_off,0,0,0,,7,,,55,127
18373,note_on,1,0,0,,7,,,55,127
18373,note_on,0,0,0,,3,,,51,127
18373,note_on,0,0,0,,0,,,60,127
18373,note_on,0,0,0,,11,,,70,127
18508,note_off,135,0,0,,11,,,70,127
18509,note_on,1,0,0,,10,,,69,127
18644,note_off,135,0,0,,10,,,69,127
18645,note_on,1,0,0,,7,,,67,127
18780,note_off,135,0,0,,7,,,67,127
18780,note_off,0,0,0,,0,,,60,127
18780,note_off,0,0,0,,3,,,51,127
18780,note_off,0,0,0,,7,,,55,127
18781,note_on,1,0,0,,2,,,50,127
18781,note_on,0,0,0,,10,,,57,127
18781,note_on,0,0,0,,6,,,66,127
18916,note_off,135,0,0,,6,,,66,127
18917,note_on,1,0,0,,7,,,67,127
19052,note_off,135,0,0,,7,,,67,127
19053,note_on,1,0,0,,10,,,69,127
19188,note_off,135,0,0,,10,,,57,127
19188,note_off,0,0,0,,2,,,50,127
19189,note_on,1,0,0,,11,,,46,127
19189,note_on,0,0,0,,7,,,55,127
19189,note_on,0,0,0,,2,,,62,127
19251,note_off,62,0,0,,10,,,69,127
19324,note_off,73,0,0,,2,,,62,127
19325,note_on,1,0,0,,7,,,79,127
19460,note_off,135,0,0,,7,,,79,127
19461,note_on,1,0,0,,5,,,77,127
19596,note_off,135,0,0,,5,,,77,127
19596,note_off,0,0,0,,7,,,55,127
19596,note_off,0,0,0,,11,,,46,127
19597,note_on,1,0,0,,0,,,48,127
19597,note_on,0,0,0,,10,,,57,127
19597,note_on,0,0,0,,7,,,55,127
19597,note_on,0,0,0,,3,,,75,127
19732,note_off,135,0,0,,3,,,75,127
19733,note_on,1,0,0,,2,,,74,127
19868,note_off,135,0,0,,2,,,74,127
19869,note_on,1,0,0,,0,,,72,127
20004,note_off,135,0,0,,0,,,72,127
20004,note_off,0,0,0,,7,,,55,127
20004,note_off,0,0,0,,10,,,57,127
20004,note_off,0,0,0,,0,,,48,127
20005,note_on,1,0,0,,7,,,55,127
20005,note_on,0,0,0,,3,,,51,127
20005,note_on,0,0,0,,0,,,60,127
20005,note_on,0,0,0,,11,,,70,127
20140,note_off,135,0,0,,11,,,70,127
20141,note_on,1,0,0,,10,,,69,127
20276,note_off,135,0,0,,10,,,69,127
20277,note_on,1,0,0,,7,,,67,127
20412,note_off,135,0,0,,7,,,67,127
20412,note_off,0,0,0,,0,,,60,127
20412,note_off,0,0,0,,3,,,51,127
20412,note_off,0,0,0,,7,,,55,127
20413,note_on,1,0,0,,2,,,50,127
20413,note_on,0,0,0,,10,,,57,127
20413,note_on,0,0,0,,2,,,62,127
20413,note_on,0,0,0,,6,,,66,127
20547,note_off,134,0,0,,2,,,62,127
20548,note_on,1,0,0,,2,,,62,127
20568,note_off,20,0,0,,6,,,66,127
20684,note_on,116,0,0,,6,,,66,127
20817,note_off,133,0,0,,2,,,62,127
20819,note_off,2,0,0,,10,,,57,127
20819,note_off,0,0,0,,2,,,50,127
20820,note_on,1,0,0,,6,,,78,127
20820,note_on,0,0,0,,10,,,81,127
20820,note_on,0,0,0,,10,,,69,127
20905,note_off,85,0,0,,6,,,66,127
20955,note_on,50,0,0,,6,,,66,127
21040,note_off,85,0,0,,10,,,69,127
21090,note_on,50,0,0,,2,,,62,127
21175,note_off,85,0,0,,6,,,66,127
21224,note_off,49,0,0,,10,,,81,127
21224,note_off,0,0,0,,6,,,78,127
21225,note_on,1,0,0,,11,,,82,127
21225,note_on,0,0,0,,7,,,79,127
21225,note_on,0,0,0,,11,,,70,127
21310,note_off,85,0,0,,2,,,62,127
21360,note_on,50,0,0,,7,,,67,127
21445,note_off,85,0,0,,11,,,70,127
21495,note_on,50,0,0,,2,,,62,127
21580,note_off,85,0,0,,7,,,67,127
21629,note_off,49,0,0,,7,,,79,127
21629,note_off,0,0,0,,11,,,82,127
21630,note_on,1,0,0,,3,,,39,127
21630,note_on,0,0,0,,3,,,51,127
21630,note_on,0,0,0,,0,,,72,127
21715,note_off,85,0,0,,2,,,62,127
21765,note_on,50,0,0,,7,,,67,127
21850,note_off,85,0,0,,0,,,72,127
21900,note_on,50,0,0,,3,,,63,127
21985,note_off,85,0,0,,7,,,67,127
22034,note_off,49,0,0,,3,,,51,127
22034,note_off,0,0,0,,3,,,39,127
22035,note_on,1,0,0,,2,,,38,127
22035,note_on,0,0,0,,2,,,50,127
22035,note_on,0,0,0,,2,,,74,127
22120,note_off,85,0,0,,3,,,63,127
22170,note_on,50,0,0,,10,,,69,127
22255,note_off,85,0,0,,2,,,74,127
22305,note_on,50,0,0,,6,,,66,127
22390,note_off,85,0,0,,10,,,69,127
22439,note_off,49,0,0,,2,,,50,127
22439,note_off,0,0,0,,2,,,38,127
22440,note_on,1,0,0,,6,,,78,127
22440,note_on,0,0,0,,10,,,81,127
22440,note_on,0,0,0,,10,,,69,127
22525,note_off,85,0,0,,6,,,66,127
22575,note_on,50,0,0,,6,,,66,127
22660,note_off,85,0,0,,10,,,69,127
22710,note_on,50,0,0,,2,,,62,127
22795,note_off,85,0,0,,6,,,66,127
22844,note_off,49,0,0,,10,,,81,127
22844,note_off,0,0,0,,6,,,78,127
22845,note_on,1,0,0,,7,,,79,127
22845,note_on,0,0,0,,11,,,82,127
22845,note_on,0,0,0,,11,,,70,127
22930,note_off,85,0,0,,2,,,62,127
22980,note_on,50,0,0,,7,,,67,127
23065,note_off,85,0,0,,11,,,70,127
23115,note_on,50,0,0,,2,,,62,127
23200,note_off,85,0,0,,7,,,67,127
23249,note_off,49,0,0,,11,,,82,127
23249,note_off,0,0,0,,7,,,79,127
23250,note_on,1,0,0,,3,,,39,127
23250,note_on,0,0,0,,3,,,51,127
23250,note_on,0,0,0,,0,,,72,127
23335,note_off,85,0,0,,2,,,62,127
23385,note_on,50,0,0,,7,,,67,127
23470,note_off,85,0,0,,0,,,72,127
23520,note_on,50,0,0,,3,,,63,127
23605,note_off,85,0,0,,7,,,67,127
23654,note_off,49,0,0,,3,,,51,127
23654,note_off,0,0,0,,3,,,39,127
23655,note_on,1,0,0,,2,,,50,127
23655,note_on,0,0,0,,2,,,38,127
23655,note_on,0,0,0,,2,,,74,127
23740,note_off,85,0,0,,3,,,63,127
23790,note_on,50,0,0,,10,,,69,127
23875,note_off,85,0,0,,2,,,74,127
23925,note_on,50,0,0,,6,,,66,127
24010,note_off,85,0,0,,10,,,69,127
24059,note_off,49,0,0,,6,,,66,127
24060,note_off,1,0,0,,2,,,38,127
24060,note_off,0,0,0,,2,,,50,127
24061,note_on,1,0,0,,10,,,81,127
24061,note_on,0,0,0,,6,,,78,127
24061,note_on,0,0,0,,6,,,66,127
24197,note_on,136,0,0,,10,,,69,127
24282,note_off,85,0,0,,6,,,66,127
24332,note_on,50,0,0,,2,,,74,127
24417,note_off,85,0,0,,10,,,69,127
24466,note_off,49,0,0,,6,,,78,127
24466,note_off,0,0,0,,10,,,81,127
24467,note_on,1,0,0,,7,,,79,127
24467,note_on,0,0,0,,11,,,82,127
24467,note_on,0,0,0,,7,,,67,127
24552,note_off,85,0,0,,2,,,74,127
24602,note_on,50,0,0,,11,,,70,127
24687,note_off,85,0,0,,7,,,67,127
24737,note_on,50,0,0,,2,,,74,127
24822,note_off,85,0,0,,11,,,70,127
24871,note_off,49,0,0,,2,,,74,127
24872,note_off,1,0,0,,11,,,82,127
24872,note_off,0,0,0,,7,,,79,127
24873,note_on,1,0,0,,3,,,51,127
24873,note_on,0,0,0,,0,,,48,127
24873,note_on,0,0,0,,0,,,60,127
25009,note_on,136,0,0,,7,,,67,127
25094,note_off,85,0,0,,0,,,60,127
25144,note_on,50,0,0,,0,,,72,127
25229,note_off,85,0,0,,7,,,67,127
25278,note_off,49,0,0,,0,,,48,127
25278,note_off,0,0,0,,3,,,51,127
25279,note_on,1,0,0,,2,,,50,127
25279,note_on,0,0,0,,2,,,62,127
25364,note_off,85,0,0,,0,,,72,127
25414,note_on,50,0,0,,6,,,66,127
25499,note_off,85,0,0,,2,,,62,127
25549,note_on,50,0,0,,10,,,69,127
25634,note_off,85,0,0,,6,,,66,127
25683,note_off,49,0,0,,2,,,50,127
25684,note_on,1,0,0,,6,,,78,127
25684,note_on,0,0,0,,10,,,81,127
25684,note_on,0,0,0,,6,,,66,127
25769,note_off,85,0,0,,10,,,69,127
25819,note_on,50,0,0,,10,,,69,127
25904,note_off,85,0,0,,6,,,66,127
25954,note_on,50,0,0,,2,,,74,127
26039,note_off,85,0,0,,10,,,69,127
26088,note_off,49,0,0,,10,,,81,127
26088,note_off,0,0,0,,6,,,78,127
26089,note_on,1,0,0,,7,,,79,127
26089,note_on,0,0,0,,11,,,82,127
26089,note_on,0,0,0,,7,,,67,127
26174,note_off,85,0,0,,2,,,74,127
26224,note_on,50,0,0,,11,,,70,127
26309,note_off,85,0,0,,7,,,67,127
26359,note_on,50,0,0,,2,,,74,127
26444,note_off,85,0,0,,11,,,70,127
26493,note_off,49,0,0,,2,,,74,127
26494,note_off,1,0,0,,11,,,82,127
26494,note_off,0,0,0,,7,,,79,127
26495,note_on,1,0,0,,3,,,51,127
26495,note_on,0,0,0,,0,,,48,127
26495,note_on,0,0,0,,0,,,60,127
26631,note_on,136,0,0,,7,,,67,127
26716,note_off,85,0,0,,0,,,60,127
26766,note_on,50,0,0,,0,,,72,127
26851,note_off,85,0,0,,7,,,67,127
26900,note_off,49,0,0,,0,,,48,127
26900,note_off,0,0,0,,3,,,51,127
26901,note_on,1,0,0,,2,,,50,127
26901,note_on,0,0,0,,2,,,62,127
26986,note_off,85,0,0,,0,,,72,127
27035,note_off,49,0,0,,2,,,62,127
27036,note_on,1,0,0,,6,,,66,127
27171,note_off,135,0,0,,6,,,66,127
27172,note_on,1,0,0,,10,,,69,127
27307,note_off,135,0,0,,10,,,69,127
27307,note_off,0,0,0,,2,,,50,127
27308,note_on,1,0,0,,6,,,66,127
27308,note_on,0,0,0,,2,,,74,127
27308,note_on,0,0,0,,10,,,69,127
27308,note_on,0,0,0,,10,,,81,127
27443,note_off,135,0,0,,10,,,81,127
27444,note_on,1,0,0,,2,,,86,127
27579,note_off,135,0,0,,2,,,86,127
27580,note_on,1,0,0,,0,,,84,127
27715,note_off,135,0,0,,0,,,84,127
27715,note_off,0,0,0,,10,,,69,127
27715,note_off,0,0,0,,2,,,74,127
27715,note_off,0,0,0,,6,,,66,127
27716,note_on,1,0,0,,7,,,67,127
27716,note_on,0,0,0,,11,,,70,127
27716,note_on,0,0,0,,2,,,74,127
27716,note_on,0,0,0,,11,,,82,127
27851,note_off,135,0,0,,11,,,82,127
27852,note_on,1,0,0,,10,,,81,127
27987,note_off,135,0,0,,10,,,81,127
27988,note_on,1,0,0,,7,,,79,127
28123,note_off,135,0,0,,7,,,79,127
28123,note_off,0,0,0,,2,,,74,127
28123,note_off,0,0,0,,11,,,70,127
28123,note_off,0,0,0,,7,,,67,127
28124,note_on,1,0,0,,0,,,72,127
28124,note_on,0,0,0,,10,,,69,127
28124,note_on,0,0,0,,6,,,78,127
28259,note_off,135,0,0,,6,,,78,127
28260,note_on,1,0,0,,7,,,79,127
28395,note_off,135,0,0,,7,,,79,127
28396,note_on,1,0,0,,10,,,81,127
28531,note_off,135,0,0,,10,,,81,127
28531,note_off,0,0,0,,10,,,69,127
28531,note_off,0,0,0,,0,,,72,127
28532,note_on,1,0,0,,2,,,62,127
28532,note_on,0,0,0,,11,,,58,127
28532,note_on,0,0,0,,7,,,67,127
28532,note_on,0,0,0,,2,,,74,127
28667,note_off,135,0,0,,2,,,74,127
28668,note_on,1,0,0,,7,,,79,127
28803,note_off,135,0,0,,7,,,79,127
28804,note_on,1,0,0,,5,,,77,127
28939,note_off,135,0,0,,5,,,77,127
28939,note_off,0,0,0,,7,,,67,127
28939,note_off,0,0,0,,11,,,58,127
28939,note_off,0,0,0,,2,,,62,127
28940,note_on,1,0,0,,0,,,60,127
28940,note_on,0,0,0,,7,,,67,127
28940,note_on,0,0,0,,10,,,69,127
28940,note_on,0,0,0,,3,,,75,127
29075,note_off,135,0,0,,3,,,75,127
29076,note_on,1,0,0,,2,,,74,127
29211,note_off,135,0,0,,2,,,74,127
29212,note_on,1,0,0,,0,,,72,127
29347,note_off,135,0,0,,0,,,72,127
29347,note_off,0,0,0,,10,,,69,127
29347,note_off,0,0,0,,7,,,67,127
29347,note_off,0,0,0,,0,,,60,127
29348,note_on,1,0,0,,2,,,62,127
29348,note_on,0,0,0,,11,,,70,127
29483,note_off,135,0,0,,11,,,70,127
29484,note_on,1,0,0,,10,,,69,127
29619,note_off,135,0,0,,10,,,69,127
29620,note_on,1,0,0,,11,,,70,127
29755,note_off,135,0,0,,11,,,70,127
29755,note_off,0,0,0,,2,,,62,127
29756,note_on,1,0,0,,2,,,50,127
29756,note_on,0,0,0,,2,,,74,127
29823,note_off,67,0,0,,2,,,74,127
29824,note_on,1,0,0,,0,,,72,127
29891,note_off,67,0,0,,0,,,72,127
29892,note_on,1,0,0,,11,,,70,127
30027,note_off,135,0,0,,11,,,70,127
30028,note_on,1,0,0,,10,,,69,127
30163,note_off,135,0,0,,10,,,69,127
30163,note_off,0,0,0,,2,,,50,127
30164,note_on,1,0,0,,7,,,43,127
30164,note_on,0,0,0,,7,,,67,127
30266,note_off,102,0,0,,7,,,67,127
30300,note_on,34,0,0,,2,,,74,127
30435,note_off,135,0,0,,2,,,74,127
30436,note_on,1,0,0,,12,,,71,127
30571,note_off,135,0,0,,12,,,71,127
30572,note_on,1,0,0,,7,,,67,127
30572,note_on,0,0,0,,12,,,71,127
30707,note_off,135,0,0,,7,,,43,127
30708,note_on,1,0,0,,2,,,62,127
30843,note_off,135,0,0,,2,,,62,127
30844,note_on,1,0,0,,7,,,55,127
30979,note_off,135,0,0,,7,,,55,127
30980,note_on,1,0,0,,2,,,38,127
31115,note_off,135,0,0,,12,,,71,127
31115,note_off,0,0,0,,7,,,67,127
31116,note_on,1,0,0,,4,,,76,127
31251,note_off,135,0,0,,4,,,76,127
31252,note_on,1,0,0,,0,,,72,127
31387,note_off,135,0,0,,0,,,72,127
31388,note_on,1,0,0,,0,,,72,127
31388,note_on,0,0,0,,10,,,69,127
31523,note_off,135,0,0,,2,,,38,127
31524,note_on,1,0,0,,2,,,62,127
31659,note_off,135,0,0,,2,,,62,127
31660,note_on,1,0,0,,10,,,57,127
31795,note_off,135,0,0,,10,,,57,127
31796,note_on,1,0,0,,7,,,43,127
31931,note_off,135,0,0,,10,,,69,127
31931,note_off,0,0,0,,0,,,72,127
31932,note_on,1,0,0,,2,,,74,127
32067,note_off,135,0,0,,2,,,74,127
32068,note_on,1,0,0,,12,,,71,127
32203,note_off,135,0,0,,12,,,71,127
32204,note_on,1,0,0,,7,,,67,127
32204,note_on,0,0,0,,12,,,71,127
32339,note_off,135,0,0,,7,,,43,127
32340,note_on,1,0,0,,2,,,62,127
32475,note_off,135,0,0,,2,,,62,127
32476,note_on,1,0,0,,7,,,55,127
32611,note_off,135,0,0,,7,,,55,127
32612,note_on,1,0,0,,2,,,38,127
32747,note_off,135,0,0,,12,,,71,127
32747,note_off,0,0,0,,7,,,67,127
32748,note_on,1,0,0,,4,,,76,127
32883,note_off,135,0,0,,4,,,76,127
32884,note_on,1,0,0,,0,,,72,127
33019,note_off,135,0,0,,0,,,72,127
33020,note_on,1,0,0,,0,,,72,127
33020,note_on,0,0,0,,10,,,69,127
33155,note_off,135,0,0,,2,,,38,127
33156,note_on,1,0,0,,2,,,62,127
33291,note_off,135,0,0,,2,,,62,127
33292,note_on,1,0,0,,10,,,57,127
33427,note_off,135,0,0,,10,,,57,127
33428,note_on,1,0,0,,7,,,43,127
33563,note_off,135,0,0,,10,,,69,127
33563,note_off,0,0,0,,0,,,72,127
33564,note_on,1,0,0,,2,,,74,127
33699,note_off,135,0,0,,2,,,74,127
33700,note_on,1,0,0,,0,,,72,127
33835,note_off,135,0,0,,0,,,72,127
33835,note_off,0,0,0,,7,,,43,127
33836,note_on,1,0,0,,12,,,47,127
33836,note_on,0,0,0,,2,,,50,127
33836,note_on,0,0,0,,7,,,55,127
33836,note_on,0,0,0,,12,,,71,127
33971,note_off,135,0,0,,12,,,71,127
33972,note_on,1,0,0,,0,,,72,127
34107,note_off,135,0,0,,0,,,72,127
34108,note_on,1,0,0,,2,,,74,127
34243,note_off,135,0,0,,2,,,74,127
34243,note_off,0,0,0,,7,,,55,127
34243,note_off,0,0,0,,2,,,50,127
34243,note_off,0,0,0,,12,,,47,127
34244,note_on,1,0,0,,0,,,48,127
34244,note_on,0,0,0,,7,,,55,127
34244,note_on,0,0,0,,10,,,57,127
34244,note_on,0,0,0,,4,,,76,127
34379,note_off,135,0,0,,4,,,76,127
34380,note_on,1,0,0,,6,,,78,127
34515,note_off,135,0,0,,6,,,78,127
34516,note_on,1,0,0,,7,,,79,127
34651,note_off,135,0,0,,7,,,79,127
34651,note_off,0,0,0,,10,,,57,127
34651,note_off,0,0,0,,7,,,55,127
34651,note_off,0,0,0,,0,,,48,127
34652,note_on,1,0,0,,2,,,50,127
34652,note_on,0,0,0,,10,,,57,127
34652,note_on,0,0,0,,7,,,55,127
34652,note_on,0,0,0,,0,,,60,127
34652,note_on,0,0,0,,10,,,81,127
34787,note_off,135,0,0,,10,,,81,127
34788,note_on,1,0,0,,7,,,79,127
34923,note_off,135,0,0,,7,,,79,127
34924,note_on,1,0,0,,6,,,78,127
35059,note_off,135,0,0,,6,,,78,127
35059,note_off,0,0,0,,0,,,60,127
35059,note_off,0,0,0,,7,,,55,127
35059,note_off,0,0,0,,10,,,57,127
35059,note_off,0,0,0,,2,,,50,127
35060,note_on,1,0,0,,7,,,43,127
35060,note_on,0,0,0,,7,,,79,127
35195,note_off,135,0,0,,7,,,79,127
35196,note_on,1,0,0,,2,,,74,127
35331,note_off,135,0,0,,2,,,74,127
35332,note_on,1,0,0,,12,,,71,127
35467,note_off,135,0,0,,12,,,71,127
35468,note_on,1,0,0,,12,,,71,127
35468,note_on,0,0,0,,7,,,67,127
35603,note_off,135,0,0,,7,,,43,127
35604,note_on,1,0,0,,2,,,62,127
35739,note_off,135,0,0,,2,,,62,127
35740,note_on,1,0,0,,7,,,55,127
35875,note_off,135,0,0,,7,,,55,127
35876,note_on,1,0,0,,2,,,38,127
36011,note_off,135,0,0,,7,,,67,127
36011,note_off,0,0,0,,12,,,71,127
36012,note_on,1,0,0,,4,,,76,127
36147,note_off,135,0,0,,4,,,76,127
36148,note_on,1,0,0,,0,,,72,127
36283,note_off,135,0,0,,0,,,72,127
36284,note_on,1,0,0,,10,,,69,127
36284,note_on,0,0,0,,0,,,72,127
36419,note_off,135,0,0,,2,,,38,127
36420,note_on,1,0,0,,2,,,62,127
36555,note_off,135,0,0,,2,,,62,127
36556,note_on,1,0,0,,10,,,57,127
36691,note_off,135,0,0,,10,,,57,127
36692,note_on,1,0,0,,7,,,43,127
36827,note_off,135,0,0,,0,,,72,127
36827,note_off,0,0,0,,10,,,69,127
36828,note_on,1,0,0,,2,,,74,127
36963,note_off,135,0,0,,2,,,74,127
36964,note_on,1,0,0,,12,,,71,127
37099,note_off,135,0,0,,12,,,71,127
37100,note_on,1,0,0,,12,,,71,127
37100,note_on,0,0,0,,7,,,67,127
37235,note_off,135,0,0,,7,,,43,127
37236,note_on,1,0,0,,2,,,62,127
37371,note_off,135,0,0,,2,,,62,127
37372,note_on,1,0,0,,7,,,55,127
37507,note_off,135,0,0,,7,,,55,127
37508,note_on,1,0,0,,2,,,38,127
37643,note_off,135,0,0,,7,,,67,127
37643,note_off,0,0,0,,12,,,71,127
37644,note_on,1,0,0,,4,,,76,127
37779,note_off,135,0,0,,4,,,76,127
37780,note_on,1,0,0,,0,,,72,127
37915,note_off,135,0,0,,0,,,72,127
37916,note_on,1,0,0,,0,,,72,127
37916,note_on,0,0,0,,10,,,69,127
38051,note_off,135,0,0,,2,,,38,127
38052,note_on,1,0,0,,2,,,62,127
38187,note_off,135,0,0,,2,,,62,127
38188,note_on,1,0,0,,10,,,57,127
38323,note_off,135,0,0,,10,,,57,127
38324,note_on,1,0,0,,7,,,43,127
38459,note_off,135,0,0,,10,,,69,127
38459,note_off,0,0,0,,0,,,72,127
38460,note_on,1,0,0,,2,,,74,127
38595,note_off,135,0,0,,2,,,74,127
38596,note_on,1,0,0,,0,,,72,127
38731,note_off,135,0,0,,0,,,72,127
38731,note_off,0,0,0,,7,,,43,127
38732,note_on,1,0,0,,2,,,50,127
38732,note_on,0,0,0,,12,,,47,127
38732,note_on,0,0,0,,7,,,55,127
38732,note_on,0,0,0,,12,,,71,127
38867,note_off,135,0,0,,12,,,71,127
38868,note_on,1,0,0,,0,,,72,127
39003,note_off,135,0,0,,0,,,72,127
39004,note_on,1,0,0,,2,,,74,127
39139,note_off,135,0,0,,2,,,74,127
39139,note_off,0,0,0,,7,,,55,127
39139,note_off,0,0,0,,12,,,47,127
39139,note_off,0,0,0,,2,,,50,127
39140,note_on,1,0,0,,0,,,48,127
39140,note_on,0,0,0,,10,,,57,127
39140,note_on,0,0,0,,7,,,55,127
39140,note_on,0,0,0,,4,,,76,127
39275,note_off,135,0,0,,4,,,76,127
39276,note_on,1,0,0,,6,,,78,127
39411,note_off,135,0,0,,6,,,78,127
39412,note_on,1,0,0,,7,,,79,127
39547,note_off,135,0,0,,7,,,79,127
39547,note_off,0,0,0,,7,,,55,127
39547,note_off,0,0,0,,10,,,57,127
39547,note_off,0,0,0,,0,,,48,127
39548,note_on,1,0,0,,2,,,50,127
39548,note_on,0,0,0,,7,,,55,127
39548,note_on,0,0,0,,10,,,57,127
39548,note_on,0,0,0,,10,,,81,127
39683,note_off,135,0,0,,10,,,81,127
39684,note_on,1,0,0,,7,,,79,127
39819,note_off,135,0,0,,7,,,79,127
39820,note_on,1,0,0,,6,,,78,127
39955,note_off,135,0,0,,6,,,78,127
39955,note_off,0,0,0,,10,,,57,127
39955,note_off,0,0,0,,7,,,55,127
39955,note_off,0,0,0,,2,,,50,127
39956,note_on,1,0,0,,7,,,43,127
39956,note_on,0,0,0,,7,,,55,127
39956,note_on,0,0,0,,7,,,79,127
40091,note_off,135,0,0,,7,,,79,127
40092,note_on,1,0,0,,2,,,74,127
40227,note_off,135,0,0,,2,,,74,127
40228,note_on,1,0,0,,1,,,73,127
40363,note_off,135,0,0,,1,,,73,127
40363,note_off,0,0,0,,7,,,55,127
40363,note_off,0,0,0,,7,,,43,127
40364,note_on,1,0,0,,12,,,47,127
40364,note_on,0,0,0,,2,,,50,127
40364,note_on,0,0,0,,7,,,55,127
40364,note_on,0,0,0,,2,,,74,127
40499,note_off,135,0,0,,2,,,74,127
40500,note_on,1,0,0,,4,,,76,127
40635,note_off,135,0,0,,4,,,76,127
40636,note_on,1,0,0,,3,,,75,127
40771,note_off,135,0,0,,3,,,75,127
40771,note_off,0,0,0,,7,,,55,127
40771,note_off,0,0,0,,2,,,50,127
40771,note_off,0,0,0,,12,,,47,127
40772,note_on,1,0,0,,0,,,48,127
40772,note_on,0,0,0,,7,,,55,127
40772,note_on,0,0,0,,10,,,57,127
40772,note_on,0,0,0,,4,,,76,127
40907,note_off,135,0,0,,4,,,76,127
40908,note_on,1,0,0,,0,,,72,127
41043,note_off,135,0,0,,0,,,72,127
41044,note_on,1,0,0,,10,,,69,127
41179,note_off,135,0,0,,10,,,69,127
41179,note_off,0,0,0,,10,,,57,127
41179,note_off,0,0,0,,7,,,55,127
41179,note_off,0,0,0,,0,,,48,127
41180,note_on,1,0,0,,2,,,50,127
41180,note_on,0,0,0,,10,,,57,127
41180,note_on,0,0,0,,0,,,60,127
41180,note_on,0,0,0,,7,,,67,127
41315,note_off,135,0,0,,7,,,67,127
41316,note_on,1,0,0,,10,,,69,127
41451,note_off,135,0,0,,10,,,69,127
41452,note_on,1,0,0,,6,,,66,127
41587,note_off,135,0,0,,6,,,66,127
41587,note_off,0,0,0,,0,,,60,127
41587,note_off,0,0,0,,10,,,57,127
41587,note_off,0,0,0,,2,,,50,127
41588,note_on,1,0,0,,7,,,43,127
41588,note_on,0,0,0,,7,,,55,127
41588,note_on,0,0,0,,7,,,67,127
41723,note_off,135,0,0,,7,,,67,127
41724,note_on,1,0,0,,2,,,62,127
41859,note_off,135,0,0,,2,,,62,127
41860,note_on,1,0,0,,1,,,61,127
41995,note_off,135,0,0,,1,,,61,127
41995,note_off,0,0,0,,7,,,55,127
41995,note_off,0,0,0,,7,,,43,127
41996,note_on,1,0,0,,12,,,47,127
41996,note_on,0,0,0,,2,,,62,127
42131,note_off,135,0,0,,2,,,62,127
42132,note_on,1,0,0,,4,,,64,127
42267,note_off,135,0,0,,4,,,64,127
42268,note_on,1,0,0,,3,,,63,127
42403,note_off,135,0,0,,3,,,63,127
42403,note_off,0,0,0,,12,,,47,127
42404,note_on,1,0,0,,0,,,48,127
42404,note_on,0,0,0,,4,,,64,127
42539,note_off,135,0,0,,4,,,64,127
42540,note_on,1,0,0,,0,,,60,127
42675,note_off,135,0,0,,0,,,60,127
42676,note_on,1,0,0,,10,,,57,127
42811,note_off,135,0,0,,10,,,57,127
42811,note_off,0,0,0,,0,,,48,127
42812,note_on,1,0,0,,2,,,50,127
42812,note_on,0,0,0,,7,,,55,127
42947,note_off,135,0,0,,7,,,55,127
42948,note_on,1,0,0,,10,,,57,127
43083,note_off,135,0,0,,10,,,57,127
43084,note_on,1,0,0,,6,,,54,127
43219,note_off,135,0,0,,6,,,54,127
43219,note_off,0,0,0,,2,,,50,127
43220,note_on,1,0,0,,7,,,43,127
43220,note_on,0,0,0,,6,,,54,127
43626,note_off,406,0,0,,6,,,54,127
43627,note_on,1,0,0,,7,,,55,127
44033,note_off,406,0,0,,7,,,55,127
44034,note_off,1,0,0,,7,,,43,127
44034,note_on,0,0,0,,7,,,79,127
44169,note_off,135,0,0,,7,,,79,127
44170,note_on,1,0,0,,8,,,80,127
44305,note_off,135,0,0,,8,,,80,127
44306,note_on,1,0,0,,11,,,82,127
44441,note_off,135,0,0,,11,,,82,127
44442,note_on,1,0,0,,11,,,82,127
44509,note_off,67,0,0,,11,,,82,127
44510,note_on,1,0,0,,8,,,80,127
44577,note_off,67,0,0,,8,,,80,127
44578,note_on,1,0,0,,7,,,79,127
44713,note_off,135,0,0,,7,,,79,127
44714,note_on,1,0,0,,5,,,77,127
44849,note_off,135,0,0,,5,,,77,127
44850,note_on,1,0,0,,7,,,67,127
44850,note_on,0,0,0,,3,,,75,127
44985,note_off,135,0,0,,7,,,67,127
44986,note_on,1,0,0,,8,,,68,127
45121,note_off,135,0,0,,8,,,68,127
45122,note_on,1,0,0,,11,,,70,127
45257,note_off,135,0,0,,11,,,70,127
45258,note_on,1,0,0,,11,,,70,127
45325,note_off,67,0,0,,11,,,70,127
45326,note_on,1,0,0,,8,,,68,127
45393,note_off,67,0,0,,8,,,68,127
45394,note_on,1,0,0,,7,,,67,127
45529,note_off,135,0,0,,7,,,67,127
45529,note_off,0,0,0,,3,,,75,127
45530,note_on,1,0,0,,5,,,65,127
45530,note_on,0,0,0,,2,,,74,127
45665,note_off,135,0,0,,2,,,74,127
45665,note_off,0,0,0,,5,,,65,127
45666,note_on,1,0,0,,7,,,67,127
45666,note_on,0,0,0,,3,,,75,127
45801,note_off,135,0,0,,3,,,75,127
45802,note_on,1,0,0,,5,,,77,127
45937,note_off,135,0,0,,5,,,77,127
45938,note_on,1,0,0,,7,,,79,127
46073,note_off,135,0,0,,7,,,79,127
46073,note_off,0,0,0,,7,,,67,127
46074,note_on,1,0,0,,2,,,62,127
46074,note_on,0,0,0,,5,,,77,127
46209,note_off,135,0,0,,5,,,77,127
46210,note_on,1,0,0,,7,,,79,127
46345,note_off,135,0,0,,7,,,79,127
46346,note_on,1,0,0,,8,,,80,127
46481,note_off,135,0,0,,8,,,80,127
46481,note_off,0,0,0,,2,,,62,127
46482,note_on,1,0,0,,3,,,63,127
46482,note_on,0,0,0,,7,,,79,127
46617,note_off,135,0,0,,7,,,79,127
46618,note_on,1,0,0,,8,,,80,127
46753,note_off,135,0,0,,8,,,80,127
46754,note_on,1,0,0,,11,,,82,127
46889,note_off,135,0,0,,11,,,82,127
46890,note_on,1,0,0,,11,,,82,127
47025,note_off,135,0,0,,11,,,82,127
47026,note_on,1,0,0,,8,,,80,127
47161,note_off,135,0,0,,8,,,80,127
47162,note_on,1,0,0,,7,,,79,127
47297,note_off,135,0,0,,7,,,79,127
47298,note_off,1,0,0,,3,,,63,127
47298,note_on,0,0,0,,7,,,79,127
47433,note_off,135,0,0,,7,,,79,127
47434,note_on,1,0,0,,5,,,77,127
47569,note_off,135,0,0,,5,,,77,127
47570,note_on,1,0,0,,3,,,75,127
47705,note_off,135,0,0,,3,,,75,127
47706,note_on,1,0,0,,4,,,64,127
47706,note_on,0,0,0,,11,,,82,127
47706,note_on,0,0,0,,3,,,75,127
47773,note_off,67,0,0,,3,,,75,127
47774,note_on,1,0,0,,1,,,73,127
47841,note_off,67,0,0,,1,,,73,127
47842,note_on,1,0,0,,0,,,72,127
47977,note_off,135,0,0,,0,,,72,127
47978,note_on,1,0,0,,1,,,73,127
48113,note_off,135,0,0,,1,,,73,127
48113,note_off,0,0,0,,11,,,82,127
48113,note_off,0,0,0,,4,,,64,127
48114,note_on,1,0,0,,5,,,65,127
48114,note_on,0,0,0,,0,,,72,127
48114,note_on,0,0,0,,8,,,80,127
48249,note_off,135,0,0,,8,,,80,127
48250,note_on,1,0,0,,11,,,82,127
48385,note_off,135,0,0,,11,,,82,127
48386,note_on,1,0,0,,0,,,84,127
48521,note_off,135,0,0,,0,,,84,127
48521,note_off,0,0,0,,5,,,65,127
48522,note_on,1,0,0,,7,,,67,127
48522,note_on,0,0,0,,0,,,84,127
48589,note_off,67,0,0,,0,,,84,127
48590,note_on,1,0,0,,11,,,82,127
48657,note_off,67,0,0,,11,,,82,127
48658,note_on,1,0,0,,8,,,80,127
48793,note_off,135,0,0,,8,,,80,127
48794,note_on,1,0,0,,7,,,79,127
48928,note_off,134,0,0,,0,,,72,127
48929,note_off,1,0,0,,7,,,79,127
48929,note_off,0,0,0,,7,,,67,127
48930,note_on,1,0,0,,8,,,68,127
48930,note_on,0,0,0,,5,,,77,127
49065,note_off,135,0,0,,8,,,68,127
49066,note_on,1,0,0,,11,,,70,127
49201,note_off,135,0,0,,11,,,70,127
49202,note_on,1,0,0,,0,,,72,127
49337,note_off,135,0,0,,0,,,72,127
49338,note_on,1,0,0,,0,,,72,127
49405,note_off,67,0,0,,0,,,72,127
49406,note_on,1,0,0,,11,,,70,127
49473,note_off,67,0,0,,11,,,70,127
49474,note_on,1,0,0,,8,,,68,127
49609,note_off,135,0,0,,8,,,68,127
49609,note_off,0,0,0,,5,,,77,127
49610,note_on,1,0,0,,7,,,67,127
49610,note_on,0,0,0,,4,,,76,127
49745,note_off,135,0,0,,4,,,76,127
49745,note_off,0,0,0,,7,,,67,127
49746,note_on,1,0,0,,8,,,68,127
49746,note_on,0,0,0,,5,,,77,127
49881,note_off,135,0,0,,5,,,77,127
49882,note_on,1,0,0,,7,,,79,127
50017,note_off,135,0,0,,7,,,79,127
50018,note_on,1,0,0,,8,,,80,127
50153,note_off,135,0,0,,8,,,80,127
50153,note_off,0,0,0,,8,,,68,127
50154,note_on,1,0,0,,4,,,64,127
50154,note_on,0,0,0,,7,,,79,127
50289,note_off,135,0,0,,7,,,79,127
50290,note_on,1,0,0,,8,,,80,127
50425,note_off,135,0,0,,8,,,80,127
50426,note_on,1,0,0,,11,,,82,127
50561,note_off,135,0,0,,11,,,82,127
50561,note_off,0,0,0,,4,,,64,127
50562,note_on,1,0,0,,5,,,65,127
50562,note_on,0,0,0,,11,,,82,127
50629,note_off,67,0,0,,11,,,82,127
50630,note_on,1,0,0,,8,,,80,127
50697,note_off,67,0,0,,8,,,80,127
50698,note_on,1,0,0,,7,,,79,127
50833,note_off,135,0,0,,7,,,79,127
50834,note_on,1,0,0,,8,,,80,127
50969,note_off,135,0,0,,8,,,80,127
50969,note_off,0,0,0,,5,,,65,127
50970,note_on,1,0,0,,1,,,61,127
50970,note_on,0,0,0,,8,,,80,127
50970,note_on,0,0,0,,7,,,79,127
51037,note_off,67,0,0,,7,,,79,127
51037,note_off,0,0,0,,8,,,80,127
51038,note_on,1,0,0,,5,,,77,127
51105,note_off,67,0,0,,5,,,77,127
51106,note_on,1,0,0,,3,,,75,127
51241,note_off,135,0,0,,3,,,75,127
51242,note_on,1,0,0,,5,,,77,127
51377,note_off,135,0,0,,5,,,77,127
51377,note_off,0,0,0,,1,,,61,127
51378,note_on,1,0,0,,11,,,58,127
51378,note_on,0,0,0,,3,,,75,127
51445,note_off,67,0,0,,3,,,75,127
51446,note_on,1,0,0,,1,,,73,127
51513,note_off,67,0,0,,1,,,73,127
51514,note_on,1,0,0,,0,,,72,127
51649,note_off,135,0,0,,0,,,72,127
51650,note_on,1,0,0,,1,,,73,127
51785,note_off,135,0,0,,1,,,73,127
51785,note_off,0,0,0,,11,,,58,127
51786,note_on,1,0,0,,7,,,55,127
51786,note_on,0,0,0,,0,,,72,127
51853,note_off,67,0,0,,0,,,72,127
51854,note_on,1,0,0,,11,,,70,127
51921,note_off,67,0,0,,11,,,70,127
51922,note_on,1,0,0,,8,,,68,127
52057,note_off,135,0,0,,8,,,68,127
52058,note_on,1,0,0,,11,,,70,127
52193,note_off,135,0,0,,11,,,70,127
52193,note_off,0,0,0,,7,,,55,127
52194,note_on,1,0,0,,3,,,51,127
52194,note_on,0,0,0,,7,,,67,127
52329,note_off,135,0,0,,7,,,67,127
52330,note_on,1,0,0,,8,,,68,127
52465,note_off,135,0,0,,8,,,68,127
52466,note_on,1,0,0,,11,,,70,127
52601,note_off,135,0,0,,11,,,70,127
52602,note_on,1,0,0,,3,,,39,127
52602,note_on,0,0,0,,11,,,70,127
52737,note_off,135,0,0,,11,,,70,127
52738,note_on,1,0,0,,0,,,72,127
52873,note_off,135,0,0,,0,,,72,127
52874,note_on,1,0,0,,1,,,73,127
53008,note_off,134,0,0,,3,,,51,127
53009,note_off,1,0,0,,1,,,73,127
53009,note_off,0,0,0,,3,,,39,127
53010,note_on,1,0,0,,3,,,51,127
53010,note_on,0,0,0,,1,,,73,127
53145,note_off,135,0,0,,1,,,73,127
53146,note_on,1,0,0,,3,,,75,127
53281,note_off,135,0,0,,3,,,75,127
53282,note_on,1,0,0,,5,,,77,127
53417,note_off,135,0,0,,5,,,77,127
53417,note_off,0,0,0,,3,,,51,127
53418,note_on,1,0,0,,7,,,55,127
53418,note_on,0,0,0,,3,,,75,127
53485,note_off,67,0,0,,3,,,75,127
53486,note_on,1,0,0,,1,,,73,127
53553,note_off,67,0,0,,1,,,73,127
53554,note_on,1,0,0,,0,,,72,127
53689,note_off,135,0,0,,0,,,72,127
53690,note_on,1,0,0,,11,,,70,127
53825,note_off,135,0,0,,11,,,70,127
53825,note_off,0,0,0,,7,,,55,127
53826,note_on,1,0,0,,8,,,56,127
53826,note_on,0,0,0,,0,,,72,127
53962,note_on,136,0,0,,8,,,68,127
54095,note_off,133,0,0,,0,,,72,127
54098,note_on,3,0,0,,3,,,63,127
54183,note_off,85,0,0,,8,,,68,127
54232,note_off,49,0,0,,8,,,56,127
54233,note_on,1,0,0,,7,,,79,127
54233,note_on,0,0,0,,11,,,70,127
54318,note_off,85,0,0,,3,,,63,127
54368,note_on,50,0,0,,7,,,67,127
54453,note_off,85,0,0,,11,,,70,127
54503,note_on,50,0,0,,3,,,63,127
54588,note_off,85,0,0,,7,,,67,127
54637,note_off,49,0,0,,7,,,79,127
54638,note_on,1,0,0,,8,,,80,127
54638,note_on,0,0,0,,0,,,72,127
54723,note_off,85,0,0,,3,,,63,127
54773,note_on,50,0,0,,8,,,68,127
54858,note_off,85,0,0,,0,,,72,127
54908,note_on,50,0,0,,3,,,63,127
54993,note_off,85,0,0,,8,,,68,127
55042,note_off,49,0,0,,8,,,80,127
55043,note_on,1,0,0,,3,,,39,127
55043,note_on,0,0,0,,3,,,51,127
55043,note_on,0,0,0,,1,,,73,127
55128,note_off,85,0,0,,3,,,63,127
55178,note_on,50,0,0,,11,,,70,127
55263,note_off,85,0,0,,1,,,73,127
55313,note_on,50,0,0,,3,,,63,127
55398,note_off,85,0,0,,11,,,70,127
55447,note_off,49,0,0,,3,,,51,127
55447,note_off,0,0,0,,3,,,39,127
55448,note_on,1,0,0,,8,,,44,127
55448,note_on,0,0,0,,8,,,56,127
55448,note_on,0,0,0,,0,,,72,127
55533,note_off,85,0,0,,3,,,63,127
55583,note_on,50,0,0,,8,,,68,127
55668,note_off,85,0,0,,0,,,72,127
55718,note_on,50,0,0,,3,,,63,127
55803,note_off,85,0,0,,8,,,68,127
55852,note_off,49,0,0,,8,,,56,127
55852,note_off,0,0,0,,8,,,44,127
55853,note_on,1,0,0,,7,,,79,127
55853,note_on,0,0,0,,11,,,70,127
55938,note_off,85,0,0,,3,,,63,127
55988,note_on,50,0,0,,7,,,67,127
56073,note_off,85,0,0,,11,,,70,127
56123,note_on,50,0,0,,3,,,63,127
56208,note_off,85,0,0,,7,,,67,127
56257,note_off,49,0,0,,7,,,79,127
56258,note_on,1,0,0,,8,,,80,127
56258,note_on,0,0,0,,0,,,72,127
56343,note_off,85,0,0,,3,,,63,127
56393,note_on,50,0,0,,8,,,68,127
56478,note_off,85,0,0,,0,,,72,127
56528,note_on,50,0,0,,3,,,63,127
56613,note_off,85,0,0,,8,,,68,127
56662,note_off,49,0,0,,8,,,80,127
56663,note_on,1,0,0,,3,,,39,127
56663,note_on,0,0,0,,3,,,51,127
56663,note_on,0,0,0,,1,,,73,127
56748,note_off,85,0,0,,3,,,63,127
56798,note_on,50,0,0,,11,,,70,127
56883,note_off,85,0,0,,1,,,73,127
56933,note_on,50,0,0,,3,,,63,127
57018,note_off,85,0,0,,11,,,70,127
57067,note_off,49,0,0,,3,,,51,127
57067,note_off,0,0,0,,3,,,39,127
57068,note_on,1,0,0,,8,,,44,127
57068,note_on,0,0,0,,8,,,56,127
57068,note_on,0,0,0,,0,,,72,127
57153,note_off,85,0,0,,3,,,63,127
57203,note_on,50,0,0,,8,,,68,127
57288,note_off,85,0,0,,0,,,72,127
57338,note_on,50,0,0,,3,,,63,127
57423,note_off,85,0,0,,8,,,68,127
57472,note_off,49,0,0,,3,,,63,127
57473,note_off,1,0,0,,8,,,56,127
57473,note_off,0,0,0,,8,,,44,127
57474,note_on,1,0,0,,0,,,84,127
57474,note_on,0,0,0,,3,,,75,127
57610,note_on,136,0,0,,11,,,70,127
57695,note_off,85,0,0,,3,,,75,127
57745,note_on,50,0,0,,6,,,66,127
57830,note_off,85,0,0,,11,,,70,127
57879,note_off,49,0,0,,0,,,84,127
57880,note_on,1,0,0,,11,,,82,127
57880,note_on,0,0,0,,1,,,73,127
57965,note_off,85,0,0,,6,,,66,127
58015,note_on,50,0,0,,11,,,70,127
58100,note_off,85,0,0,,1,,,73,127
58150,note_on,50,0,0,,5,,,65,127
58235,note_off,85,0,0,,11,,,70,127
58284,note_off,49,0,0,,11,,,82,127
58285,note_on,1,0,0,,5,,,41,127
58285,note_on,0,0,0,,5,,,53,127
58285,note_on,0,0,0,,0,,,72,127
58370,note_off,85,0,0,,5,,,65,127
58420,note_on,50,0,0,,10,,,69,127
58505,note_off,85,0,0,,0,,,72,127
58555,note_on,50,0,0,,5,,,65,127
58640,note_off,85,0,0,,10,,,69,127
58689,note_off,49,0,0,,5,,,53,127
58689,note_off,0,0,0,,5,,,41,127
58690,note_on,1,0,0,,11,,,46,127
58690,note_on,0,0,0,,11,,,58,127
58690,note_on,0,0,0,,1,,,73,127
58775,note_off,85,0,0,,5,,,65,127
58825,note_on,50,0,0,,11,,,70,127
58910,note_off,85,0,0,,1,,,73,127
58960,note_on,50,0,0,,5,,,65,127
59045,note_off,85,0,0,,11,,,70,127
59094,note_off,49,0,0,,11,,,58,127
59094,note_off,0,0,0,,11,,,46,127
59095,note_on,1,0,0,,0,,,84,127
59095,note_on,0,0,0,,3,,,75,127
59180,note_off,85,0,0,,5,,,65,127
59230,note_on,50,0,0,,11,,,70,127
59315,note_off,85,0,0,,3,,,75,127
59365,note_on,50,0,0,,6,,,66,127
59450,note_off,85,0,0,,11,,,70,127
59499,note_off,49,0,0,,0,,,84,127
59500,note_on,1,0,0,,11,,,82,127
59500,note_on,0,0,0,,1,,,73,127
59585,note_off,85,0,0,,6,,,66,127
59635,note_on,50,0,0,,11,,,70,127
59720,note_off,85,0,0,,1,,,73,127
59770,note_on,50,0,0,,5,,,65,127
59855,note_off,85,0,0,,11,,,70,127
59904,note_off,49,0,0,,11,,,82,127
59905,note_on,1,0,0,,5,,,41,127
59905,note_on,0,0,0,,5,,,53,127
59905,note_on,0,0,0,,0,,,72,127
59990,note_off,85,0,0,,5,,,65,127
60040,note_on,50,0,0,,10,,,69,127
60125,note_off,85,0,0,,0,,,72,127
60175,note_on,50,0,0,,5,,,65,127
60260,note_off,85,0,0,,10,,,69,127
60309,note_off,49,0,0,,5,,,53,127
60309,note_off,0,0,0,,5,,,41,127
60310,note_on,1,0,0,,11,,,46,127
60310,note_on,0,0,0,,11,,,58,127
60310,note_on,0,0,0,,1,,,73,127
60395,note_off,85,0,0,,5,,,65,127
60445,note_on,50,0,0,,11,,,70,127
60530,note_off,85,0,0,,1,,,73,127
60580,note_on,50,0,0,,5,,,65,127
60665,note_off,85,0,0,,11,,,70,127
60714,note_off,49,0,0,,5,,,65,127
60715,note_off,1,0,0,,11,,,58,127
60715,note_off,0,0,0,,11,,,46,127
60716,note_on,1,0,0,,2,,,86,127
60716,note_on,0,0,0,,5,,,77,127
60852,note_on,136,0,0,,12,,,71,127
60937,note_off,85,0,0,,5,,,77,127
60987,note_on,50,0,0,,7,,,67,127
61072,note_off,85,0,0,,12,,,71,127
61121,note_off,49,0,0,,2,,,86,127
61122,note_on,1,0,0,,0,,,84,127
61122,note_on,0,0,0,,3,,,75,127
61207,note_off,85,0,0,,7,,,67,127
61257,note_on,50,0,0,,0,,,72,127
61342,note_off,85,0,0,,3,,,75,127
61392,note_on,50,0,0,,7,,,67,127
61477,note_off,85,0,0,,0,,,72,127
61526,note_off,49,0,0,,0,,,84,127
61527,note_on,1,0,0,,7,,,43,127
61527,note_on,0,0,0,,7,,,55,127
61527,note_on,0,0,0,,2,,,74,127
61612,note_off,85,0,0,,7,,,67,127
61662,note_on,50,0,0,,12,,,71,127
61747,note_off,85,0,0,,2,,,74,127
61797,note_on,50,0,0,,7,,,67,127
61882,note_off,85,0,0,,12,,,71,127
61931,note_off,49,0,0,,7,,,55,127
61931,note_off,0,0,0,,7,,,43,127
61932,note_on,1,0,0,,0,,,48,127
61932,note_on,0,0,0,,0,,,60,127
61932,note_on,0,0,0,,3,,,75,127
62017,note_off,85,0,0,,7,,,67,127
62067,note_on,50,0,0,,0,,,72,127
62152,note_off,85,0,0,,3,,,75,127
62202,note_on,50,0,0,,7,,,67,127
62287,note_off,85,0,0,,0,,,72,127
62336,note_off,49,0,0,,0,,,60,127
62336,note_off,0,0,0,,0,,,48,127
62337,note_on,1,0,0,,2,,,86,127
62337,note_on,0,0,0,,5,,,77,127
62422,note_off,85,0,0,,7,,,67,127
62472,note_on,50,0,0,,12,,,71,127
62557,note_off,85,0,0,,5,,,77,127
62607,note_on,50,0,0,,7,,,67,127
62692,note_off,85,0,0,,12,,,71,127
62741,note_off,49,0,0,,2,,,86,127
62742,note_on,1,0,0,,0,,,84,127
62742,note_on,0,0,0,,3,,,75,127
62827,note_off,85,0,0,,7,,,67,127
62877,note_on,50,0,0,,0,,,72,127
62962,note_off,85,0,0,,3,,,75,127
63012,note_on,50,0,0,,7,,,67,127
63097,note_off,85,0,0,,0,,,72,127
63146,note_off,49,0,0,,0,,,84,127
63147,note_on,1,0,0,,7,,,43,127
63147,note_on,0,0,0,,7,,,55,127
63147,note_on,0,0,0,,2,,,74,127
63232,note_off,85,0,0,,7,,,67,127
63282,note_on,50,0,0,,12,,,71,127
63367,note_off,85,0,0,,2,,,74,127
63417,note_on,50,0,0,,7,,,67,127
63502,note_off,85,0,0,,12,,,71,127
63551,note_off,49,0,0,,7,,,67,127
63552,note_off,1,0,0,,7,,,55,127
63552,note_off,0,0,0,,7,,,43,127
63553,note_on,1,0,0,,0,,,36,127
63553,note_on,0,0,0,,0,,,48,127
63553,note_on,0,0,0,,4,,,76,127
63688,note_off,135,0,0,,4,,,76,127
63689,note_on,1,0,0,,7,,,79,127
63824,note_off,135,0,0,,7,,,79,127
63825,note_on,1,0,0,,5,,,77,127
63960,note_off,135,0,0,,5,,,77,127
63961,note_on,1,0,0,,4,,,76,127
64096,note_off,135,0,0,,4,,,76,127
64097,note_on,1,0,0,,2,,,74,127
64232,note_off,135,0,0,,2,,,74,127
64233,note_on,1,0,0,,0,,,72,127
64368,note_off,135,0,0,,0,,,72,127
64369,note_off,1,0,0,,0,,,48,127
64369,note_off,0,0,0,,0,,,36,127
64369,note_on,0,0,0,,3,,,75,127
64436,note_off,67,0,0,,3,,,75,127
64437,note_on,1,0,0,,1,,,73,127
64504,note_off,67,0,0,,1,,,73,127
64505,note_on,1,0,0,,0,,,72,127
64640,note_off,135,0,0,,0,,,72,127
64641,note_on,1,0,0,,1,,,73,127
64776,note_off,135,0,0,,1,,,73,127
64777,note_on,1,0,0,,7,,,67,127
64777,note_on,0,0,0,,11,,,82,127
64777,note_on,0,0,0,,1,,,73,127
64844,note_off,67,0,0,,7,,,67,127
64845,note_on,1,0,0,,5,,,65,127
64912,note_off,67,0,0,,5,,,65,127
64912,note_off,0,0,0,,1,,,73,127
64913,note_on,1,0,0,,7,,,67,127
64913,note_on,0,0,0,,0,,,72,127
64980,note_off,67,0,0,,7,,,67,127
64981,note_on,1,0,0,,5,,,65,127
65048,note_off,67,0,0,,5,,,65,127
65048,note_off,0,0,0,,0,,,72,127
65049,note_on,1,0,0,,7,,,67,127
65049,note_on,0,0,0,,1,,,73,127
65116,note_off,67,0,0,,7,,,67,127
65117,note_on,1,0,0,,5,,,65,127
65184,note_off,67,0,0,,5,,,65,127
65184,note_off,0,0,0,,1,,,73,127
65185,note_on,1,0,0,,4,,,64,127
65185,note_on,0,0,0,,0,,,72,127
65320,note_off,135,0,0,,11,,,82,127
65321,note_on,1,0,0,,8,,,80,127
65456,note_off,135,0,0,,8,,,80,127
65457,note_on,1,0,0,,7,,,79,127
65592,note_off,135,0,0,,7,,,79,127
65592,note_off,0,0,0,,0,,,72,127
65592,note_off,0,0,0,,4,,,64,127
65593,note_on,1,0,0,,5,,,65,127
65593,note_on,0,0,0,,7,,,79,127
65660,note_off,67,0,0,,7,,,79,127
65661,note_on,1,0,0,,5,,,77,127
65728,note_off,67,0,0,,5,,,77,127
65729,note_on,1,0,0,,4,,,76,127
65864,note_off,135,0,0,,4,,,76,127
65865,note_on,1,0,0,,5,,,77,127
66000,note_off,135,0,0,,5,,,77,127
66001,note_on,1,0,0,,1,,,73,127
66136,note_off,135,0,0,,1,,,73,127
66137,note_on,1,0,0,,0,,,72,127
66272,note_off,135,0,0,,0,,,72,127
66273,note_on,1,0,0,,1,,,73,127
66408,note_off,135,0,0,,1,,,73,127
66408,note_off,0,0,0,,5,,,65,127
66409,note_on,1,0,0,,7,,,67,127
66409,note_on,0,0,0,,1,,,73,127
66409,note_on,0,0,0,,11,,,82,127
66476,note_off,67,0,0,,7,,,67,127
66477,note_on,1,0,0,,5,,,65,127
66544,note_off,67,0,0,,5,,,65,127
66544,note_off,0,0,0,,1,,,73,127
66545,note_on,1,0,0,,7,,,67,127
66545,note_on,0,0,0,,0,,,72,127
66612,note_off,67,0,0,,7,,,67,127
66613,note_on,1,0,0,,5,,,65,127
66680,note_off,67,0,0,,5,,,65,127
66680,note_off,0,0,0,,0,,,72,127
66681,note_on,1,0,0,,7,,,67,127
66681,note_on,0,0,0,,1,,,73,127
66748,note_off,67,0,0,,7,,,67,127
66749,note_on,1,0,0,,5,,,65,127
66816,note_off,67,0,0,,5,,,65,127
66816,note_off,0,0,0,,1,,,73,127
66817,note_on,1,0,0,,4,,,64,127
66817,note_on,0,0,0,,0,,,72,127
66952,note_off,135,0,0,,11,,,82,127
66953,note_on,1,0,0,,0,,,84,127
67088,note_off,135,0,0,,0,,,84,127
67089,note_on,1,0,0,,11,,,82,127
67224,note_off,135,0,0,,11,,,82,127
67224,note_off,0,0,0,,0,,,72,127
67224,note_off,0,0,0,,4,,,64,127
67225,note_on,1,0,0,,5,,,65,127
67225,note_on,0,0,0,,10,,,81,127
67360,note_off,135,0,0,,10,,,81,127
67361,note_on,1,0,0,,6,,,78,127
67496,note_off,135,0,0,,6,,,78,127
67497,note_on,1,0,0,,5,,,77,127
67632,note_off,135,0,0,,5,,,77,127
67633,note_on,1,0,0,,3,,,75,127
67768,note_off,135,0,0,,3,,,75,127
67768,note_off,0,0,0,,5,,,65,127
67769,note_on,1,0,0,,2,,,74,127
67904,note_off,135,0,0,,2,,,74,127
67905,note_on,1,0,0,,3,,,75,127
68040,note_off,135,0,0,,3,,,75,127
68041,note_on,1,0,0,,8,,,68,127
68041,note_on,0,0,0,,0,,,84,127
68041,note_on,0,0,0,,3,,,75,127
68108,note_off,67,0,0,,8,,,68,127
68109,note_on,1,0,0,,6,,,66,127
68176,note_off,67,0,0,,6,,,66,127
68176,note_off,0,0,0,,3,,,75,127
68177,note_on,1,0,0,,8,,,68,127
68177,note_on,0,0,0,,1,,,73,127
68244,note_off,67,0,0,,8,,,68,127
68245,note_on,1,0,0,,6,,,66,127
68312,note_off,67,0,0,,6,,,66,127
68312,note_off,0,0,0,,1,,,73,127
68313,note_on,1,0,0,,8,,,68,127
68313,note_on,0,0,0,,3,,,75,127
68380,note_off,67,0,0,,8,,,68,127
68381,note_on,1,0,0,,6,,,66,127
68448,note_off,67,0,0,,6,,,66,127
68448,note_off,0,0,0,,3,,,75,127
68449,note_on,1,0,0,,5,,,65,127
68449,note_on,0,0,0,,3,,,75,127
68584,note_off,135,0,0,,0,,,84,127
68585,note_on,1,0,0,,0,,,84,127
68720,note_off,135,0,0,,0,,,84,127
68721,note_on,1,0,0,,11,,,82,127
68856,note_off,135,0,0,,11,,,82,127
68856,note_off,0,0,0,,3,,,75,127
68856,note_off,0,0,0,,5,,,65,127
68857,note_on,1,0,0,,5,,,65,127
68857,note_on,0,0,0,,10,,,81,127
68992,note_off,135,0,0,,10,,,81,127
68993,note_on,1,0,0,,6,,,78,127
69128,note_off,135,0,0,,6,,,78,127
69129,note_on,1,0,0,,5,,,77,127
69264,note_off,135,0,0,,5,,,77,127
69265,note_on,1,0,0,,5,,,77,127
69332,note_off,67,0,0,,5,,,77,127
69333,note_on,1,0,0,,3,,,75,127
69400,note_off,67,0,0,,3,,,75,127
69401,note_on,1,0,0,,2,,,74,127
69536,note_off,135,0,0,,2,,,74,127
69537,note_on,1,0,0,,3,,,75,127
69672,note_off,135,0,0,,3,,,75,127
69672,note_off,0,0,0,,5,,,65,127
69673,note_on,1,0,0,,8,,,68,127
69673,note_on,0,0,0,,0,,,84,127
69673,note_on,0,0,0,,3,,,75,127
69740,note_off,67,0,0,,8,,,68,127
69741,note_on,1,0,0,,6,,,66,127
69808,note_off,67,0,0,,6,,,66,127
69808,note_off,0,0,0,,3,,,75,127
69809,note_on,1,0,0,,8,,,68,127
69809,note_on,0,0,0,,2,,,74,127
69876,note_off,67,0,0,,8,,,68,127
69877,note_on,1,0,0,,6,,,66,127
69944,note_off,67,0,0,,6,,,66,127
69944,note_off,0,0,0,,2,,,74,127
69945,note_on,1,0,0,,8,,,68,127
69945,note_on,0,0,0,,3,,,75,127
70012,note_off,67,0,0,,8,,,68,127
70013,note_on,1,0,0,,6,,,66,127
70080,note_off,67,0,0,,6,,,66,127
70080,note_off,0,0,0,,3,,,75,127
70081,note_on,1,0,0,,5,,,65,127
70081,note_on,0,0,0,,3,,,75,127
70216,note_off,135,0,0,,0,,,84,127
70217,note_on,1,0,0,,0,,,84,127
70352,note_off,135,0,0,,0,,,84,127
70353,note_on,1,0,0,,11,,,82,127
70488,note_off,135,0,0,,11,,,82,127
70488,note_off,0,0,0,,3,,,75,127
70488,note_off,0,0,0,,5,,,65,127
70489,note_on,1,0,0,,5,,,65,127
70489,note_on,0,0,0,,8,,,80,127
70624,note_off,135,0,0,,8,,,80,127
70625,note_on,1,0,0,,7,,,79,127
70760,note_off,135,0,0,,7,,,79,127
70761,note_on,1,0,0,,4,,,76,127
70896,note_off,135,0,0,,4,,,76,127
70897,note_on,1,0,0,,5,,,77,127
71032,note_off,135,0,0,,5,,,77,127
71032,note_off,0,0,0,,5,,,65,127
71033,note_on,1,0,0,,4,,,76,127
71168,note_off,135,0,0,,4,,,76,127
71169,note_on,1,0,0,,5,,,77,127
71304,note_off,135,0,0,,5,,,77,127
71305,note_on,1,0,0,,11,,,70,127
71305,note_on,0,0,0,,2,,,86,127
71305,note_on,0,0,0,,5,,,77,127
71372,note_off,67,0,0,,11,,,70,127
71373,note_on,1,0,0,,8,,,68,127
71440,note_off,67,0,0,,8,,,68,127
71440,note_off,0,0,0,,5,,,77,127
71441,note_on,1,0,0,,11,,,70,127
71441,note_on,0,0,0,,4,,,76,127
71508,note_off,67,0,0,,11,,,70,127
71509,note_on,1,0,0,,8,,,68,127
71576,note_off,67,0,0,,8,,,68,127
71576,note_off,0,0,0,,4,,,76,127
71577,note_on,1,0,0,,11,,,70,127
71577,note_on,0,0,0,,5,,,77,127
71644,note_off,67,0,0,,11,,,70,127
71645,note_on,1,0,0,,8,,,68,127
71712,note_off,67,0,0,,8,,,68,127
71712,note_off,0,0,0,,5,,,77,127
71713,note_on,1,0,0,,7,,,67,127
71713,note_on,0,0,0,,5,,,77,127
71848,note_off,135,0,0,,2,,,86,127
71849,note_on,1,0,0,,2,,,86,127
71984,note_off,135,0,0,,2,,,86,127
71985,note_on,1,0,0,,0,,,84,127
72120,note_off,135,0,0,,0,,,84,127
72120,note_off,0,0,0,,5,,,77,127
72120,note_off,0,0,0,,7,,,67,127
72121,note_on,1,0,0,,7,,,67,127
72121,note_on,0,0,0,,12,,,83,127
72256,note_off,135,0,0,,12,,,83,127
72257,note_on,1,0,0,,8,,,80,127
72392,note_off,135,0,0,,8,,,80,127
72393,note_on,1,0,0,,7,,,79,127
72528,note_off,135,0,0,,7,,,79,127
72529,note_on,1,0,0,,5,,,77,127
72664,note_off,135,0,0,,5,,,77,127
72665,note_on,1,0,0,,4,,,76,127
72800,note_off,135,0,0,,4,,,76,127
72801,note_on,1,0,0,,5,,,77,127
72936,note_off,135,0,0,,5,,,77,127
72936,note_off,0,0,0,,7,,,67,127
72937,note_on,1,0,0,,11,,,70,127
72937,note_on,0,0,0,,2,,,86,127
72937,note_on,0,0,0,,5,,,77,127
73004,note_off,67,0,0,,11,,,70,127
73005,note_on,1,0,0,,8,,,68,127
73072,note_off,67,0,0,,8,,,68,127
73072,note_off,0,0,0,,5,,,77,127
73073,note_on,1,0,0,,11,,,70,127
73073,note_on,0,0,0,,4,,,76,127
73140,note_off,67,0,0,,11,,,70,127
73141,note_on,1,0,0,,8,,,68,127
73208,note_off,67,0,0,,8,,,68,127
73208,note_off,0,0,0,,4,,,76,127
73209,note_on,1,0,0,,11,,,70,127
73209,note_on,0,0,0,,5,,,77,127
73276,note_off,67,0,0,,11,,,70,127
73277,note_on,1,0,0,,8,,,68,127
73344,note_off,67,0,0,,8,,,68,127
73344,note_off,0,0,0,,5,,,77,127
73345,note_on,1,0,0,,7,,,67,127
73345,note_on,0,0,0,,5,,,77,127
73480,note_off,135,0,0,,2,,,86,127
73481,note_on,1,0,0,,8,,,80,127
73616,note_off,135,0,0,,8,,,80,127
73616,note_off,0,0,0,,5,,,77,127
73617,note_on,1,0,0,,7,,,79,127
73752,note_off,135,0,0,,7,,,79,127
73752,note_off,0,0,0,,7,,,67,127
73753,note_on,1,0,0,,12,,,71,127
73753,note_on,0,0,0,,5,,,77,127
73888,note_off,135,0,0,,5,,,77,127
73889,note_on,1,0,0,,3,,,75,127
74024,note_off,135,0,0,,3,,,75,127
74025,note_on,1,0,0,,2,,,74,127
74160,note_off,135,0,0,,2,,,74,127
74160,note_off,0,0,0,,12,,,71,127
74161,note_on,1,0,0,,0,,,72,127
74161,note_on,0,0,0,,3,,,75,127
74296,note_off,135,0,0,,3,,,75,127
74297,note_on,1,0,0,,7,,,79,127
74432,note_off,135,0,0,,7,,,79,127
74433,note_on,1,0,0,,5,,,77,127
74568,note_off,135,0,0,,5,,,77,127
74568,note_off,0,0,0,,0,,,72,127
74569,note_on,1,0,0,,3,,,63,127
74569,note_on,0,0,0,,3,,,75,127
74704,note_off,135,0,0,,3,,,75,127
74705,note_on,1,0,0,,5,,,77,127
74840,note_off,135,0,0,,5,,,77,127
74841,note_on,1,0,0,,7,,,79,127
74976,note_off,135,0,0,,7,,,79,127
74976,note_off,0,0,0,,3,,,63,127
74977,note_on,1,0,0,,5,,,65,127
74977,note_on,0,0,0,,8,,,80,127
75112,note_off,135,0,0,,8,,,80,127
75113,note_on,1,0,0,,7,,,79,127
75248,note_off,135,0,0,,7,,,79,127
75249,note_on,1,0,0,,5,,,77,127
75384,note_off,135,0,0,,5,,,77,127
75384,note_off,0,0,0,,5,,,65,127
75385,note_on,1,0,0,,8,,,68,127
75385,note_on,0,0,0,,3,,,75,127
75520,note_off,135,0,0,,3,,,75,127
75521,note_on,1,0,0,,2,,,74,127
75656,note_off,135,0,0,,2,,,74,127
75657,note_on,1,0,0,,0,,,72,127
75792,note_off,135,0,0,,0,,,72,127
75792,note_off,0,0,0,,8,,,68,127
75793,note_on,1,0,0,,7,,,67,127
75793,note_on,0,0,0,,12,,,71,127
75928,note_off,135,0,0,,12,,,71,127
75929,note_on,1,0,0,,0,,,72,127
76064,note_off,135,0,0,,0,,,72,127
76065,note_on,1,0,0,,2,,,74,127
76200,note_off,135,0,0,,7,,,67,127
76201,note_on,1,0,0,,3,,,63,127
76201,note_on,0,0,0,,7,,,67,127
76263,note_off,62,0,0,,2,,,74,127
76336,note_off,73,0,0,,7,,,67,127
76337,note_on,1,0,0,,0,,,72,127
76472,note_off,135,0,0,,0,,,72,127
76473,note_on,1,0,0,,11,,,70,127
76608,note_off,135,0,0,,11,,,70,127
76608,note_off,0,0,0,,3,,,63,127
76609,note_on,1,0,0,,5,,,53,127
76609,note_on,0,0,0,,11,,,70,127
76676,note_off,67,0,0,,11,,,70,127
76677,note_on,1,0,0,,8,,,68,127
76744,note_off,67,0,0,,8,,,68,127
76745,note_on,1,0,0,,7,,,67,127
76880,note_off,135,0,0,,7,,,67,127
76881,note_on,1,0,0,,5,,,65,127
77016,note_off,135,0,0,,5,,,65,127
77016,note_off,0,0,0,,5,,,53,127
77017,note_on,1,0,0,,8,,,56,127
77017,note_on,0,0,0,,5,,,65,127
77084,note_off,67,0,0,,5,,,65,127
77085,note_on,1,0,0,,3,,,63,127
77152,note_off,67,0,0,,3,,,63,127
77153,note_on,1,0,0,,2,,,62,127
77288,note_off,135,0,0,,2,,,62,127
77289,note_on,1,0,0,,0,,,60,127
77423,note_off,134,0,0,,0,,,60,127
77424,note_off,1,0,0,,8,,,56,127
77425,note_on,1,0,0,,7,,,55,127
77561,note_on,136,0,0,,12,,,59,127
77646,note_off,85,0,0,,7,,,55,127
77696,note_on,50,0,0,,2,,,62,127
77781,note_off,85,0,0,,12,,,59,127
77831,note_on,50,0,0,,12,,,59,127
77831,note_on,0,0,0,,7,,,79,127
77831,note_on,0,0,0,,12,,,83,127
77916,note_off,85,0,0,,2,,,62,127
77966,note_on,50,0,0,,2,,,62,127
78051,note_off,85,0,0,,12,,,59,127
78101,note_on,50,0,0,,7,,,67,127
78186,note_off,85,0,0,,2,,,62,127
78235,note_off,49,0,0,,12,,,83,127
78235,note_off,0,0,0,,7,,,79,127
78236,note_on,1,0,0,,5,,,53,127
78236,note_on,0,0,0,,8,,,80,127
78236,note_on,0,0,0,,0,,,84,127
78321,note_off,85,0,0,,7,,,67,127
78371,note_on,50,0,0,,8,,,56,127
78456,note_off,85,0,0,,5,,,53,127
78506,note_on,50,0,0,,0,,,60,127
78591,note_off,85,0,0,,8,,,56,127
78640,note_off,49,0,0,,0,,,84,127
78640,note_off,0,0,0,,8,,,80,127
78641,note_on,1,0,0,,8,,,56,127
78641,note_on,0,0,0,,5,,,41,127
78641,note_on,0,0,0,,8,,,44,127
78726,note_off,85,0,0,,0,,,60,127
78776,note_on,50,0,0,,0,,,60,127
78861,note_off,85,0,0,,8,,,56,127
78911,note_on,50,0,0,,5,,,65,127
78996,note_off,85,0,0,,0,,,60,127
79045,note_off,49,0,0,,8,,,44,127
79045,note_off,0,0,0,,5,,,41,127
79046,note_on,1,0,0,,7,,,55,127
79046,note_on,0,0,0,,7,,,43,127
79131,note_off,85,0,0,,5,,,65,127
79181,note_on,50,0,0,,12,,,59,127
79266,note_off,85,0,0,,7,,,55,127
79316,note_on,50,0,0,,2,,,62,127
79401,note_off,85,0,0,,12,,,59,127
79450,note_off,49,0,0,,7,,,43,127
79451,note_on,1,0,0,,12,,,59,127
79451,note_on,0,0,0,,12,,,83,127
79451,note_on,0,0,0,,7,,,79,127
79536,note_off,85,0,0,,2,,,62,127
79586,note_on,50,0,0,,2,,,62,127
79671,note_off,85,0,0,,12,,,59,127
79721,note_on,50,0,0,,7,,,67,127
79806,note_off,85,0,0,,2,,,62,127
79855,note_off,49,0,0,,7,,,79,127
79855,note_off,0,0,0,,12,,,83,127
79856,note_on,1,0,0,,5,,,53,127
79856,note_on,0,0,0,,0,,,84,127
79856,note_on,0,0,0,,8,,,80,127
79941,note_off,85,0,0,,7,,,67,127
79991,note_on,50,0,0,,8,,,56,127
80076,note_off,85,0,0,,5,,,53,127
80126,note_on,50,0,0,,0,,,60,127
80211,note_off,85,0,0,,8,,,56,127
80260,note_off,49,0,0,,8,,,80,127
80260,note_off,0,0,0,,0,,,84,127
80261,note_on,1,0,0,,8,,,56,127
80261,note_on,0,0,0,,8,,,44,127
80261,note_on,0,0,0,,5,,,41,127
80346,note_off,85,0,0,,0,,,60,127
80396,note_on,50,0,0,,0,,,60,127
80481,note_off,85,0,0,,8,,,56,127
80531,note_on,50,0,0,,5,,,65,127
80616,note_off,85,0,0,,0,,,60,127
80665,note_off,49,0,0,,5,,,41,127
80665,note_off,0,0,0,,8,,,44,127
80666,note_on,1,0,0,,7,,,55,127
80666,note_on,0,0,0,,7,,,43,127
80751,note_off,85,0,0,,5,,,65,127
80800,note_off,49,0,0,,7,,,55,127
80801,note_on,1,0,0,,12,,,59,127
80936,note_off,135,0,0,,12,,,59,127
80937,note_on,1,0,0,,2,,,62,127
81072,note_off,135,0,0,,2,,,62,127
81072,note_off,0,0,0,,7,,,43,127
81073,note_on,1,0,0,,12,,,59,127
81073,note_on,0,0,0,,7,,,67,127
81073,note_on,0,0,0,,2,,,62,127
81073,note_on,0,0,0,,2,,,74,127
81208,note_off,135,0,0,,2,,,74,127
81209,note_on,1,0,0,,7,,,79,127
81344,note_off,135,0,0,,7,,,79,127
81345,note_on,1,0,0,,5,,,77,127
81480,note_off,135,0,0,,5,,,77,127
81480,note_off,0,0,0,,2,,,62,127
81480,note_off,0,0,0,,7,,,67,127
81480,note_off,0,0,0,,12,,,59,127
81481,note_on,1,0,0,,3,,,63,127
81481,note_on,0,0,0,,7,,,67,127
81481,note_on,0,0,0,,0,,,60,127
81481,note_on,0,0,0,,3,,,75,127
81616,note_off,135,0,0,,3,,,75,127
81617,note_on,1,0,0,,2,,,74,127
81752,note_off,135,0,0,,2,,,74,127
81753,note_on,1,0,0,,0,,,72,127
81888,note_off,135,0,0,,0,,,72,127
81888,note_off,0,0,0,,0,,,60,127
81888,note_off,0,0,0,,7,,,67,127
81888,note_off,0,0,0,,3,,,63,127
81889,note_on,1,0,0,,2,,,62,127
81889,note_on,0,0,0,,5,,,65,127
81889,note_on,0,0,0,,12,,,71,127
82024,note_off,135,0,0,,12,,,71,127
82025,note_on,1,0,0,,0,,,72,127
82160,note_off,135,0,0,,0,,,72,127
82161,note_on,1,0,0,,2,,,74,127
82296,note_off,135,0,0,,2,,,74,127
82296,note_off,0,0,0,,5,,,65,127
82296,note_off,0,0,0,,2,,,62,127
82297,note_on,1,0,0,,3,,,63,127
82297,note_on,0,0,0,,7,,,67,127
82432,note_off,135,0,0,,7,,,67,127
82433,note_on,1,0,0,,0,,,84,127
82568,note_off,135,0,0,,0,,,84,127
82569,note_on,1,0,0,,11,,,82,127
82704,note_off,135,0,0,,11,,,82,127
82704,note_off,0,0,0,,3,,,63,127
82705,note_on,1,0,0,,5,,,53,127
82705,note_on,0,0,0,,5,,,65,127
82705,note_on,0,0,0,,11,,,82,127
82772,note_off,67,0,0,,11,,,82,127
82773,note_on,1,0,0,,8,,,80,127
82840,note_off,67,0,0,,8,,,80,127
82841,note_on,1,0,0,,7,,,79,127
82976,note_off,135,0,0,,7,,,79,127
82977,note_on,1,0,0,,5,,,77,127
83112,note_off,135,0,0,,5,,,77,127
83112,note_off,0,0,0,,5,,,65,127
83112,note_off,0,0,0,,5,,,53,127
83113,note_on,1,0,0,,7,,,55,127
83113,note_on,0,0,0,,0,,,60,127
83113,note_on,0,0,0,,3,,,63,127
83113,note_on,0,0,0,,5,,,77,127
83180,note_off,67,0,0,,5,,,77,127
83181,note_on,1,0,0,,3,,,75,127
83248,note_off,67,0,0,,3,,,75,127
83249,note_on,1,0,0,,2,,,74,127
83384,note_off,135,0,0,,2,,,74,127
83385,note_on,1,0,0,,3,,,75,127
83520,note_off,135,0,0,,3,,,75,127
83520,note_off,0,0,0,,3,,,63,127
83520,note_off,0,0,0,,0,,,60,127
83520,note_off,0,0,0,,7,,,55,127
83521,note_on,1,0,0,,7,,,55,127
83521,note_on,0,0,0,,2,,,62,127
83521,note_on,0,0,0,,0,,,60,127
83521,note_on,0,0,0,,5,,,65,127
83521,note_on,0,0,0,,7,,,79,127
83588,note_off,67,0,0,,7,,,79,127
83589,note_on,1,0,0,,5,,,77,127
83656,note_off,67,0,0,,5,,,77,127
83657,note_on,1,0,0,,3,,,75,127
83792,note_off,135,0,0,,3,,,75,127
83793,note_on,1,0,0,,2,,,74,127
83928,note_off,135,0,0,,2,,,74,127
83928,note_off,0,0,0,,5,,,65,127
83928,note_off,0,0,0,,0,,,60,127
83928,note_off,0,0,0,,2,,,62,127
83928,note_off,0,0,0,,7,,,55,127
83929,note_on,1,0,0,,0,,,60,127
83929,note_on,0,0,0,,0,,,72,127
84065,note_on,136,0,0,,3,,,63,127
84150,note_off,85,0,0,,0,,,60,127
84200,note_on,50,0,0,,7,,,67,127
84285,note_off,85,0,0,,3,,,63,127
84334,note_off,49,0,0,,0,,,72,127
84335,note_on,1,0,0,,3,,,63,127
84335,note_on,0,0,0,,0,,,84,127
84420,note_off,85,0,0,,7,,,67,127
84470,note_on,50,0,0,,7,,,67,127
84555,note_off,85,0,0,,3,,,63,127
84605,note_on,50,0,0,,0,,,72,127
84690,note_off,85,0,0,,7,,,67,127
84739,note_off,49,0,0,,0,,,84,127
84740,note_on,1,0,0,,2,,,62,127
84740,note_on,0,0,0,,5,,,53,127
84740,note_on,0,0,0,,2,,,50,127
84825,note_off,85,0,0,,0,,,72,127
84875,note_on,50,0,0,,5,,,65,127
84960,note_off,85,0,0,,2,,,62,127
85010,note_on,50,0,0,,12,,,71,127
85095,note_off,85,0,0,,5,,,65,127
85144,note_off,49,0,0,,2,,,50,127
85144,note_off,0,0,0,,5,,,53,127
85145,note_on,1,0,0,,2,,,62,127
85145,note_on,0,0,0,,0,,,84,127
85230,note_off,85,0,0,,12,,,71,127
85280,note_on,50,0,0,,5,,,65,127
85365,note_off,85,0,0,,2,,,62,127
85415,note_on,50,0,0,,12,,,71,127
85500,note_off,85,0,0,,5,,,65,127
85549,note_off,49,0,0,,0,,,84,127
85550,note_on,1,0,0,,3,,,63,127
85550,note_on,0,0,0,,3,,,51,127
85550,note_on,0,0,0,,7,,,55,127
85635,note_off,85,0,0,,12,,,71,127
85685,note_on,50,0,0,,7,,,67,127
85770,note_off,85,0,0,,3,,,63,127
85820,note_on,50,0,0,,0,,,72,127
85905,note_off,85,0,0,,7,,,67,127
85954,note_off,49,0,0,,7,,,55,127
85954,note_off,0,0,0,,3,,,51,127
85955,note_on,1,0,0,,3,,,63,127
85955,note_on,0,0,0,,0,,,84,127
86040,note_off,85,0,0,,0,,,72,127
86090,note_on,50,0,0,,7,,,67,127
86175,note_off,85,0,0,,3,,,63,127
86225,note_on,50,0,0,,0,,,72,127
86310,note_off,85,0,0,,7,,,67,127
86359,note_off,49,0,0,,0,,,84,127
86360,note_on,1,0,0,,5,,,65,127
86360,note_on,0,0,0,,5,,,53,127
86360,note_on,0,0,0,,8,,,56,127
86445,note_off,85,0,0,,0,,,72,127
86495,note_on,50,0,0,,8,,,68,127
86580,note_off,85,0,0,,5,,,65,127
86630,note_on,50,0,0,,0,,,72,127
86715,note_off,85,0,0,,8,,,68,127
86764,note_off,49,0,0,,8,,,56,127
86764,note_off,0,0,0,,5,,,53,127
86765,note_on,1,0,0,,5,,,65,127
86765,note_on,0,0,0,,0,,,84,127
86850,note_off,85,0,0,,0,,,72,127
86900,note_on,50,0,0,,8,,,68,127
86985,note_off,85,0,0,,5,,,65,127
87035,note_on,50,0,0,,0,,,72,127
87120,note_off,85,0,0,,8,,,68,127
87169,note_off,49,0,0,,0,,,72,127
87170,note_off,1,0,0,,0,,,84,127
87171,note_on,1,0,0,,7,,,67,127
87171,note_on,0,0,0,,12,,,71,127
87171,note_on,0,0,0,,2,,,74,127
87171,note_on,0,0,0,,12,,,83,127
87306,note_off,135,0,0,,12,,,83,127
87307,note_on,1,0,0,,7,,,79,127
87442,note_off,135,0,0,,7,,,79,127
87443,note_on,1,0,0,,5,,,77,127
87578,note_off,135,0,0,,5,,,77,127
87578,note_off,0,0,0,,2,,,74,127
87578,note_off,0,0,0,,12,,,71,127
87578,note_off,0,0,0,,7,,,67,127
87579,note_on,1,0,0,,0,,,60,127
87579,note_on,0,0,0,,0,,,72,127
87579,note_on,0,0,0,,5,,,77,127
87646,note_off,67,0,0,,5,,,77,127
87647,note_on,1,0,0,,3,,,75,127
87714,note_off,67,0,0,,3,,,75,127
87715,note_on,1,0,0,,2,,,74,127
87850,note_off,135,0,0,,2,,,74,127
87851,note_on,1,0,0,,3,,,75,127
87986,note_off,135,0,0,,3,,,75,127
87986,note_off,0,0,0,,0,,,72,127
87986,note_off,0,0,0,,0,,,60,127
87987,note_on,1,0,0,,5,,,53,127
87987,note_on,0,0,0,,5,,,65,127
87987,note_on,0,0,0,,8,,,80,127
88122,note_off,135,0,0,,8,,,80,127
88123,note_on,1,0,0,,7,,,79,127
88258,note_off,135,0,0,,7,,,79,127
88259,note_on,1,0,0,,5,,,77,127
88394,note_off,135,0,0,,5,,,77,127
88394,note_off,0,0,0,,5,,,65,127
88394,note_off,0,0,0,,5,,,53,127
88395,note_on,1,0,0,,7,,,55,127
88395,note_on,0,0,0,,2,,,62,127
88395,note_on,0,0,0,,0,,,60,127
88395,note_on,0,0,0,,5,,,65,127
88395,note_on,0,0,0,,7,,,67,127
88395,note_on,0,0,0,,3,,,75,127
88530,note_off,135,0,0,,3,,,75,127
88531,note_on,1,0,0,,5,,,77,127
88666,note_off,135,0,0,,5,,,77,127
88667,note_on,1,0,0,,2,,,74,127
88802,note_off,135,0,0,,2,,,74,127
88802,note_off,0,0,0,,7,,,67,127
88802,note_off,0,0,0,,5,,,65,127
88802,note_off,0,0,0,,0,,,60,127
88802,note_off,0,0,0,,2,,,62,127
88802,note_off,0,0,0,,7,,,55,127
88803,note_on,1,0,0,,0,,,60,127
88803,note_on,0,0,0,,0,,,72,127
88939,note_on,136,0,0,,3,,,63,127
89024,note_off,85,0,0,,0,,,60,127
89074,note_on,50,0,0,,7,,,67,127
89159,note_off,85,0,0,,3,,,63,127
89208,note_off,49,0,0,,0,,,72,127
89209,note_on,1,0,0,,3,,,63,127
89209,note_on,0,0,0,,0,,,84,127
89294,note_off,85,0,0,,7,,,67,127
89344,note_on,50,0,0,,7,,,67,127
89429,note_off,85,0,0,,3,,,63,127
89479,note_on,50,0,0,,0,,,72,127
89564,note_off,85,0,0,,7,,,67,127
89613,note_off,49,0,0,,0,,,84,127
89614,note_on,1,0,0,,2,,,62,127
89614,note_on,0,0,0,,5,,,53,127
89614,note_on,0,0,0,,2,,,50,127
89699,note_off,85,0,0,,0,,,72,127
89749,note_on,50,0,0,,5,,,65,127
89834,note_off,85,0,0,,2,,,62,127
89884,note_on,50,0,0,,12,,,71,127
89969,note_off,85,0,0,,5,,,65,127
90018,note_off,49,0,0,,2,,,50,127
90018,note_off,0,0,0,,5,,,53,127
90019,note_on,1,0,0,,2,,,62,127
90019,note_on,0,0,0,,0,,,84,127
90104,note_off,85,0,0,,12,,,71,127
90154,note_on,50,0,0,,5,,,65,127
90239,note_off,85,0,0,,2,,,62,127
90289,note_on,50,0,0,,12,,,71,127
90374,note_off,85,0,0,,5,,,65,127
90423,note_off,49,0,0,,0,,,84,127
90424,note_on,1,0,0,,3,,,63,127
90424,note_on,0,0,0,,3,,,51,127
90424,note_on,0,0,0,,7,,,55,127
90509,note_off,85,0,0,,12,,,71,127
90559,note_on,50,0,0,,7,,,67,127
90644,note_off,85,0,0,,3,,,63,127
90694,note_on,50,0,0,,0,,,72,127
90779,note_off,85,0,0,,7,,,67,127
90828,note_off,49,0,0,,7,,,55,127
90828,note_off,0,0,0,,3,,,51,127
90829,note_on,1,0,0,,3,,,63,127
90829,note_on,0,0,0,,0,,,84,127
90914,note_off,85,0,0,,0,,,72,127
90964,note_on,50,0,0,,7,,,67,127
91049,note_off,85,0,0,,3,,,63,127
91099,note_on,50,0,0,,0,,,72,127
91184,note_off,85,0,0,,7,,,67,127
91233,note_off,49,0,0,,0,,,84,127
91234,note_on,1,0,0,,5,,,65,127
91234,note_on,0,0,0,,5,,,53,127
91234,note_on,0,0,0,,8,,,56,127
91319,note_off,85,0,0,,0,,,72,127
91369,note_on,50,0,0,,8,,,68,127
91454,note_off,85,0,0,,5,,,65,127
91504,note_on,50,0,0,,0,,,72,127
91589,note_off,85,0,0,,8,,,68,127
91638,note_off,49,0,0,,8,,,56,127
91638,note_off,0,0,0,,5,,,53,127
91639,note_on,1,0,0,,5,,,65,127
91639,note_on,0,0,0,,0,,,84,127
91724,note_off,85,0,0,,0,,,72,127
91774,note_on,50,0,0,,8,,,68,127
91859,note_off,85,0,0,,5,,,65,127
91909,note_on,50,0,0,,0,,,72,127
91994,note_off,85,0,0,,8,,,68,127
92043,note_off,49,0,0,,0,,,72,127
92044,note_off,1,0,0,,0,,,84,127
92045,note_on,1,0,0,,7,,,67,127
92045,note_on,0,0,0,,12,,,71,127
92045,note_on,0,0,0,,2,,,74,127
92045,note_on,0,0,0,,12,,,83,127
92180,note_off,135,0,0,,12,,,83,127
92181,note_on,1,0,0,,7,,,79,127
92316,note_off,135,0,0,,7,,,79,127
92317,note_on,1,0,0,,5,,,77,127
92452,note_off,135,0,0,,5,,,77,127
92452,note_off,0,0,0,,2,,,74,127
92452,note_off,0,0,0,,12,,,71,127
92452,note_off,0,0,0,,7,,,67,127
92453,note_on,1,0,0,,0,,,60,127
92453,note_on,0,0,0,,0,,,72,127
92453,note_on,0,0,0,,5,,,77,127
92520,note_off,67,0,0,,5,,,77,127
92521,note_on,1,0,0,,3,,,75,127
92588,note_off,67,0,0,,3,,,75,127
92589,note_on,1,0,0,,2,,,74,127
92724,note_off,135,0,0,,2,,,74,127
92725,note_on,1,0,0,,3,,,75,127
92860,note_off,135,0,0,,3,,,75,127
92860,note_off,0,0,0,,0,,,72,127
92860,note_off,0,0,0,,0,,,60,127
92861,note_on,1,0,0,,5,,,53,127
92861,note_on,0,0,0,,5,,,65,127
92861,note_on,0,0,0,,8,,,80,127
92996,note_off,135,0,0,,8,,,80,127
92997,note_on,1,0,0,,7,,,79,127
93132,note_off,135,0,0,,7,,,79,127
93133,note_on,1,0,0,,5,,,77,127
93268,note_off,135,0,0,,5,,,77,127
93268,note_off,0,0,0,,5,,,65,127
93268,note_off,0,0,0,,5,,,53,127
93269,note_on,1,0,0,,7,,,55,127
93269,note_on,0,0,0,,0,,,60,127
93269,note_on,0,0,0,,5,,,65,127
93269,note_on,0,0,0,,2,,,62,127
93269,note_on,0,0,0,,7,,,67,127
93269,note_on,0,0,0,,3,,,75,127
93404,note_off,135,0,0,,3,,,75,127
93405,note_on,1,0,0,,5,,,77,127
93540,note_off,135,0,0,,5,,,77,127
93541,note_on,1,0,0,,2,,,74,127
93676,note_off,135,0,0,,2,,,74,127
93676,note_off,0,0,0,,7,,,67,127
93676,note_off,0,0,0,,2,,,62,127
93676,note_off,0,0,0,,5,,,65,127
93676,note_off,0,0,0,,0,,,60,127
93676,note_off,0,0,0,,7,,,55,127
93677,note_on,1,0,0,,0,,,48,127
93677,note_on,0,0,0,,0,,,60,127
93677,note_on,0,0,0,,0,,,72,127
93776,note_off,99,0,0,,0,,,72,127
93813,note_on,37,0,0,,7,,,79,127
93948,note_off,135,0,0,,7,,,79,127
93949,note_on,1,0,0,,0,,,72,127
93949,note_on,0,0,0,,4,,,76,127
94084,note_off,135,0,0,,4,,,76,127
94084,note_off,0,0,0,,0,,,72,127
94085,note_on,1,0,0,,0,,,72,127
94085,note_on,0,0,0,,4,,,76,127
94220,note_off,135,0,0,,0,,,60,127
94220,note_off,0,0,0,,0,,,48,127
94221,note_on,1,0,0,,4,,,64,127
94356,note_off,135,0,0,,4,,,64,127
94357,note_on,1,0,0,,0,,,60,127
94492,note_off,135,0,0,,0,,,60,127
94493,note_on,1,0,0,,7,,,43,127
94628,note_off,135,0,0,,4,,,76,127
94628,note_off,0,0,0,,0,,,72,127
94629,note_on,1,0,0,,7,,,67,127
94629,note_on,0,0,0,,5,,,77,127
94629,note_on,0,0,0,,2,,,74,127
94764,note_off,135,0,0,,2,,,74,127
94764,note_off,0,0,0,,5,,,77,127
94765,note_on,1,0,0,,12,,,71,127
94765,note_on,0,0,0,,2,,,74,127
94898,note_off,133,0,0,,7,,,67,127
94900,note_off,2,0,0,,2,,,74,127
94900,note_off,0,0,0,,12,,,71,127
94901,note_on,1,0,0,,2,,,74,127
94901,note_on,0,0,0,,12,,,71,127
94901,note_on,0,0,0,,7,,,67,127
95036,note_off,135,0,0,,7,,,43,127
95037,note_on,1,0,0,,2,,,62,127
95172,note_off,135,0,0,,2,,,62,127
95173,note_on,1,0,0,,7,,,55,127
95308,note_off,135,0,0,,7,,,55,127
95309,note_on,1,0,0,,0,,,36,127
95444,note_off,135,0,0,,7,,,67,127
95444,note_off,0,0,0,,12,,,71,127
95444,note_off,0,0,0,,2,,,74,127
95445,note_on,1,0,0,,7,,,67,127
95445,note_on,0,0,0,,7,,,79,127
95445,note_on,0,0,0,,4,,,76,127
95580,note_off,135,0,0,,4,,,76,127
95580,note_off,0,0,0,,7,,,79,127
95581,note_on,1,0,0,,0,,,72,127
95581,note_on,0,0,0,,4,,,76,127
95714,note_off,133,0,0,,7,,,67,127
95716,note_off,2,0,0,,4,,,76,127
95716,note_off,0,0,0,,0,,,72,127
95717,note_on,1,0,0,,7,,,67,127
95717,note_on,0,0,0,,0,,,72,127
95717,note_on,0,0,0,,4,,,76,127
95852,note_off,135,0,0,,0,,,36,127
95853,note_on,1,0,0,,4,,,64,127
95988,note_off,135,0,0,,4,,,64,127
95989,note_on,1,0,0,,7,,,55,127
96124,note_off,135,0,0,,7,,,55,127
96125,note_on,1,0,0,,7,,,43,127
96260,note_off,135,0,0,,4,,,76,127
96260,note_off,0,0,0,,0,,,72,127
96260,note_off,0,0,0,,7,,,67,127
96261,note_on,1,0,0,,5,,,77,127
96261,note_on,0,0,0,,2,,,74,127
96261,note_on,0,0,0,,7,,,67,127
96395,note_off,134,0,0,,2,,,74,127
96396,note_on,1,0,0,,12,,,71,127
96529,note_off,133,0,0,,7,,,67,127
96529,note_off,0,0,0,,5,,,77,127
96531,note_off,2,0,0,,12,,,71,127
96532,note_on,1,0,0,,12,,,71,127
96532,note_on,0,0,0,,7,,,67,127
96532,note_on,0,0,0,,5,,,77,127
96667,note_off,135,0,0,,7,,,43,127
96668,note_on,1,0,0,,2,,,62,127
96803,note_off,135,0,0,,2,,,62,127
96804,note_on,1,0,0,,7,,,55,127
96939,note_off,135,0,0,,7,,,55,127
96940,note_on,1,0,0,,0,,,36,127
97075,note_off,135,0,0,,5,,,77,127
97075,note_off,0,0,0,,7,,,67,127
97075,note_off,0,0,0,,12,,,71,127
97076,note_on,1,0,0,,7,,,79,127
97211,note_off,135,0,0,,7,,,79,127
97212,note_on,1,0,0,,5,,,77,127
97347,note_off,135,0,0,,5,,,77,127
97347,note_off,0,0,0,,0,,,36,127
97348,note_on,1,0,0,,4,,,52,127
97348,note_on,0,0,0,,0,,,60,127
97348,note_on,0,0,0,,4,,,76,127
97483,note_off,135,0,0,,4,,,76,127
97484,note_on,1,0,0,,5,,,77,127
97619,note_off,135,0,0,,5,,,77,127
97620,note_on,1,0,0,,7,,,79,127
97755,note_off,135,0,0,,7,,,79,127
97755,note_off,0,0,0,,0,,,60,127
97755,note_off,0,0,0,,4,,,52,127
97756,note_on,1,0,0,,5,,,53,127
97756,note_on,0,0,0,,0,,,60,127
97756,note_on,0,0,0,,10,,,81,127
97891,note_off,135,0,0,,10,,,81,127
97892,note_on,1,0,0,,12,,,83,127
98027,note_off,135,0,0,,12,,,83,127
98028,note_on,1,0,0,,0,,,84,127
98163,note_off,135,0,0,,0,,,84,127
98163,note_off,0,0,0,,0,,,60,127
98163,note_off,0,0,0,,5,,,53,127
98164,note_on,1,0,0,,0,,,60,127
98164,note_on,0,0,0,,7,,,55,127
98164,note_on,0,0,0,,2,,,62,127
98164,note_on,0,0,0,,0,,,84,127
98299,note_off,135,0,0,,0,,,84,127
98300,note_on,1,0,0,,2,,,86,127
98435,note_off,135,0,0,,2,,,86,127
98436,note_on,1,0,0,,12,,,83,127
98571,note_off,135,0,0,,12,,,83,127
98571,note_off,0,0,0,,2,,,62,127
98571,note_off,0,0,0,,7,,,55,127
98571,note_off,0,0,0,,0,,,60,127
98572,note_on,1,0,0,,0,,,60,127
98572,note_on,0,0,0,,0,,,48,127
98572,note_on,0,0,0,,0,,,84,127
98707,note_off,135,0,0,,0,,,84,127
98708,note_on,1,0,0,,7,,,79,127
98843,note_off,135,0,0,,7,,,79,127
98844,note_on,1,0,0,,4,,,76,127
98979,note_off,135,0,0,,4,,,76,127
98980,note_on,1,0,0,,4,,,76,127
99115,note_off,135,0,0,,0,,,48,127
99115,note_off,0,0,0,,0,,,60,127
99116,note_on,1,0,0,,4,,,64,127
99251,note_off,135,0,0,,4,,,64,127
99252,note_on,1,0,0,,0,,,60,127
99387,note_off,135,0,0,,0,,,60,127
99388,note_on,1,0,0,,7,,,43,127
99523,note_off,135,0,0,,4,,,76,127
99524,note_on,1,0,0,,5,,,77,127
99524,note_on,0,0,0,,2,,,74,127
99524,note_on,0,0,0,,7,,,67,127
99659,note_off,135,0,0,,2,,,74,127
99659,note_off,0,0,0,,5,,,77,127
99660,note_on,1,0,0,,12,,,71,127
99660,note_on,0,0,0,,2,,,74,127
99793,note_off,133,0,0,,7,,,67,127
99795,note_off,2,0,0,,2,,,74,127
99795,note_off,0,0,0,,12,,,71,127
99796,note_on,1,0,0,,12,,,71,127
99796,note_on,0,0,0,,7,,,67,127
99796,note_on,0,0,0,,2,,,74,127
99931,note_off,135,0,0,,7,,,43,127
99932,note_on,1,0,0,,2,,,62,127
100067,note_off,135,0,0,,2,,,62,127
100068,note_on,1,0,0,,7,,,55,127
100203,note_off,135,0,0,,7,,,55,127
100204,note_on,1,0,0,,0,,,36,127
100339,note_off,135,0,0,,2,,,74,127
100339,note_off,0,0,0,,7,,,67,127
100339,note_off,0,0,0,,12,,,71,127
100340,note_on,1,0,0,,7,,,67,127
100340,note_on,0,0,0,,7,,,79,127
100340,note_on,0,0,0,,4,,,76,127
100475,note_off,135,0,0,,4,,,76,127
100475,note_off,0,0,0,,7,,,79,127
100476,note_on,1,0,0,,4,,,76,127
100476,note_on,0,0,0,,0,,,72,127
100609,note_off,133,0,0,,7,,,67,127
100611,note_off,2,0,0,,0,,,72,127
100611,note_off,0,0,0,,4,,,76,127
100612,note_on,1,0,0,,0,,,72,127
100612,note_on,0,0,0,,7,,,67,127
100612,note_on,0,0,0,,4,,,76,127
100747,note_off,135,0,0,,0,,,36,127
100748,note_on,1,0,0,,4,,,64,127
100883,note_off,135,0,0,,4,,,64,127
100884,note_on,1,0,0,,7,,,55,127
101019,note_off,135,0,0,,7,,,55,127
101020,note_on,1,0,0,,7,,,43,127
101155,note_off,135,0,0,,4,,,76,127
101155,note_off,0,0,0,,7,,,67,127
101155,note_off,0,0,0,,0,,,72,127
101156,note_on,1,0,0,,2,,,74,127
101156,note_on,0,0,0,,7,,,67,127
101156,note_on,0,0,0,,5,,,77,127
101291,note_off,135,0,0,,2,,,74,127
101292,note_on,1,0,0,,12,,,71,127
101425,note_off,133,0,0,,5,,,77,127
101425,note_off,0,0,0,,7,,,67,127
101427,note_off,2,0,0,,12,,,71,127
101428,note_on,1,0,0,,7,,,67,127
101428,note_on,0,0,0,,5,,,77,127
101428,note_on,0,0,0,,12,,,71,127
101563,note_off,135,0,0,,7,,,43,127
101564,note_on,1,0,0,,2,,,62,127
101699,note_off,135,0,0,,2,,,62,127
101700,note_on,1,0,0,,7,,,55,127
101835,note_off,135,0,0,,7,,,55,127
101836,note_on,1,0,0,,0,,,36,127
101971,note_off,135,0,0,,12,,,71,127
101971,note_off,0,0,0,,5,,,77,127
101971,note_off,0,0,0,,7,,,67,127
101972,note_on,1,0,0,,7,,,79,127
102107,note_off,135,0,0,,7,,,79,127
102108,note_on,1,0,0,,5,,,77,127
102243,note_off,135,0,0,,5,,,77,127
102243,note_off,0,0,0,,0,,,36,127
102244,note_on,1,0,0,,4,,,52,127
102244,note_on,0,0,0,,0,,,60,127
102244,note_on,0,0,0,,4,,,76,127
102379,note_off,135,0,0,,4,,,76,127
102380,note_on,1,0,0,,5,,,77,127
102515,note_off,135,0,0,,5,,,77,127
102516,note_on,1,0,0,,7,,,79,127
102651,note_off,135,0,0,,7,,,79,127
102651,note_off,0,0,0,,0,,,60,127
102651,note_off,0,0,0,,4,,,52,127
102652,note_on,1,0,0,,5,,,53,127
102652,note_on,0,0,0,,0,,,60,127
102652,note_on,0,0,0,,10,,,81,127
102787,note_off,135,0,0,,10,,,81,127
102788,note_on,1,0,0,,12,,,83,127
102923,note_off,135,0,0,,12,,,83,127
102924,note_on,1,0,0,,0,,,84,127
103059,note_off,135,0,0,,0,,,84,127
103059,note_off,0,0,0,,0,,,60,127
103059,note_off,0,0,0,,5,,,53,127
103060,note_on,1,0,0,,7,,,55,127
103060,note_on,0,0,0,,0,,,60,127
103060,note_on,0,0,0,,2,,,62,127
103060,note_on,0,0,0,,0,,,84,127
103195,note_off,135,0,0,,0,,,84,127
103196,note_on,1,0,0,,2,,,86,127
103331,note_off,135,0,0,,2,,,86,127
103332,note_on,1,0,0,,12,,,83,127
103467,note_off,135,0,0,,12,,,83,127
103467,note_off,0,0,0,,2,,,62,127
103467,note_off,0,0,0,,0,,,60,127
103467,note_off,0,0,0,,7,,,55,127
103468,note_on,1,0,0,,0,,,60,127
103468,note_on,0,0,0,,0,,,84,127
103603,note_off,135,0,0,,0,,,84,127
103604,note_on,1,0,0,,7,,,79,127
103739,note_off,135,0,0,,7,,,79,127
103740,note_on,1,0,0,,6,,,78,127
103875,note_off,135,0,0,,6,,,78,127
103875,note_off,0,0,0,,0,,,60,127
103876,note_on,1,0,0,,4,,,64,127
103876,note_on,0,0,0,,7,,,79,127
104011,note_off,135,0,0,,7,,,79,127
104012,note_on,1,0,0,,10,,,81,127
104147,note_off,135,0,0,,10,,,81,127
104148,note_on,1,0,0,,8,,,80,127
104283,note_off,135,0,0,,8,,,80,127
104283,note_off,0,0,0,,4,,,64,127
104284,note_on,1,0,0,,5,,,65,127
104284,note_on,0,0,0,,10,,,81,127
104419,note_off,135,0,0,,10,,,81,127
104420,note_on,1,0,0,,5,,,77,127
104555,note_off,135,0,0,,5,,,77,127
104556,note_on,1,0,0,,2,,,74,127
104691,note_off,135,0,0,,2,,,74,127
104691,note_off,0,0,0,,5,,,65,127
104692,note_on,1,0,0,,7,,,67,127
104692,note_on,0,0,0,,0,,,72,127
104827,note_off,135,0,0,,0,,,72,127
104828,note_on,1,0,0,,2,,,74,127
104963,note_off,135,0,0,,2,,,74,127
104964,note_on,1,0,0,,12,,,71,127
105099,note_off,135,0,0,,12,,,71,127
105099,note_off,0,0,0,,7,,,67,127
105100,note_on,1,0,0,,0,,,60,127
105100,note_on,0,0,0,,0,,,72,127
105235,note_off,135,0,0,,0,,,72,127
105236,note_on,1,0,0,,7,,,67,127
105371,note_off,135,0,0,,7,,,67,127
105372,note_on,1,0,0,,6,,,66,127
105507,note_off,135,0,0,,6,,,66,127
105507,note_off,0,0,0,,0,,,60,127
105508,note_on,1,0,0,,4,,,52,127
105508,note_on,0,0,0,,7,,,67,127
105643,note_off,135,0,0,,7,,,67,127
105644,note_on,1,0,0,,10,,,69,127
105779,note_off,135,0,0,,10,,,69,127
105780,note_on,1,0,0,,8,,,68,127
105915,note_off,135,0,0,,8,,,68,127
105915,note_off,0,0,0,,4,,,52,127
105916,note_on,1,0,0,,5,,,53,127
105916,note_on,0,0,0,,10,,,69,127
106051,note_off,135,0,0,,10,,,69,127
106052,note_on,1,0,0,,5,,,65,127
106187,note_off,135,0,0,,5,,,65,127
106188,note_on,1,0,0,,2,,,62,127
106323,note_off,135,0,0,,2,,,62,127
106323,note_off,0,0,0,,5,,,53,127
106324,note_on,1,0,0,,7,,,55,127
106324,note_on,0,0,0,,0,,,60,127
106459,note_off,135,0,0,,0,,,60,127
106460,note_on,1,0,0,,2,,,62,127
106595,note_off,135,0,0,,2,,,62,127
106596,note_on,1,0,0,,12,,,59,127
106731,note_off,135,0,0,,12,,,59,127
106731,note_off,0,0,0,,7,,,55,127
106732,note_on,1,0,0,,0,,,48,127
106732,note_on,0,0,0,,12,,,59,127
107274,note_off,542,0,0,,12,,,59,127
107274,note_on,0,0,0,,0,,,60,127
108561,note_off,1287,0,0,,0,,,60,127
108561,note_off,0,0,0,,0,,,48,127
113664,end_of_track,5103,1,0,,,,,,
