tick,type,time,meta,track,program,channel,pitch,tempo,note,velocity
0,copyright,0,1,0,,,,,,
0,program_change,0,0,0,6,0,,,,
0,pitchwheel,0,0,0,,0,0,,,
0,program_change,0,0,0,6,1,,,,
0,pitchwheel,0,0,0,,1,-590,,,
0,program_change,0,0,0,6,2,,,,
0,pitchwheel,0,0,0,,2,-272,,,
0,program_change,0,0,0,6,3,,,,
0,pitchwheel,0,0,0,,3,-353,,,
0,program_change,0,0,0,6,4,,,,
0,pitchwheel,0,0,0,,4,-560,,,
0,program_change,0,0,0,6,5,,,,
0,pitchwheel,0,0,0,,5,-80,,,
0,program_change,0,0,0,6,6,,,,
0,pitchwheel,0,0,0,,6,-625,,,
0,program_change,0,0,0,6,7,,,,
0,pitchwheel,0,0,0,,7,-130,,,
0,program_change,0,0,0,6,8,,,,
0,pitchwheel,0,0,0,,8,-512,,,
0,program_change,0,0,0,6,10,,,,
0,pitchwheel,0,0,0,,10,-464,,,
0,program_change,0,0,0,6,11,,,,
0,pitchwheel,0,0,0,,11,-208,,,
0,program_change,0,0,0,6,12,,,,
0,pitchwheel,0,0,0,,12,-553,,,
0,set_tempo,0,1,0,,,,500000,,
80,note_on,80,0,0,,10,,,69,127
80,note_on,0,0,0,,10,,,57,127
80,note_on,0,0,0,,4,,,52,127
80,note_on,0,0,0,,2,,,50,127
80,note_on,0,0,0,,10,,,45,127
190,note_off,110,0,0,,10,,,69,127
194,note_on,4,0,0,,4,,,64,127
304,note_off,110,0,0,,4,,,64,127
308,note_on,4,0,0,,0,,,72,127
418,note_off,110,0,0,,0,,,72,127
422,note_on,4,0,0,,10,,,69,127
532,note_off,110,0,0,,10,,,69,127
536,note_on,4,0,0,,4,,,76,127
646,note_off,110,0,0,,4,,,76,127
651,note_on,5,0,0,,0,,,72,127
761,note_off,110,0,0,,0,,,72,127
765,note_on,4,0,0,,10,,,81,127
849,note_off,84,0,0,,10,,,45,127
849,note_off,0,0,0,,2,,,50,127
849,note_off,0,0,0,,4,,,52,127
849,note_off,0,0,0,,10,,,57,127
875,note_off,26,0,0,,10,,,81,127
879,note_on,4,0,0,,5,,,77,127
989,note_off,110,0,0,,5,,,77,127
993,note_on,4,0,0,,4,,,76,127
993,note_on,0,0,0,,4,,,64,127
993,note_on,0,0,0,,0,,,60,127
993,note_on,0,0,0,,12,,,59,127
993,note_on,0,0,0,,10,,,57,127
1217,note_off,224,0,0,,4,,,76,127
1222,note_on,5,0,0,,4,,,76,127
1429,note_off,207,0,0,,10,,,57,127
1429,note_off,0,0,0,,12,,,59,127
1429,note_off,0,0,0,,0,,,60,127
1429,note_off,0,0,0,,4,,,64,127
1450,note_on,21,0,0,,4,,,64,127
1450,note_on,0,0,0,,2,,,62,127
1450,note_on,0,0,0,,12,,,59,127
1450,note_on,0,0,0,,10,,,57,127
1450,note_on,0,0,0,,8,,,56,127
1675,note_off,225,0,0,,4,,,76,127
1696,note_on,21,0,0,,2,,,74,127
1768,note_off,72,0,0,,2,,,74,127
1772,note_on,4,0,0,,0,,,72,127
1838,note_on,66,0,0,,12,,,71,127
1844,note_off,6,0,0,,0,,,72,127
1886,note_off,42,0,0,,8,,,56,127
1886,note_off,0,0,0,,10,,,57,127
1886,note_off,0,0,0,,12,,,59,127
1886,note_off,0,0,0,,2,,,62,127
1886,note_off,0,0,0,,4,,,64,127
1907,note_on,21,0,0,,10,,,69,127
1907,note_on,0,0,0,,4,,,64,127
1907,note_on,0,0,0,,0,,,60,127
1907,note_on,0,0,0,,12,,,59,127
1907,note_on,0,0,0,,10,,,57,127
1910,note_off,3,0,0,,12,,,71,127
2017,note_off,107,0,0,,10,,,69,127
2022,note_on,5,0,0,,4,,,64,127
2132,note_off,110,0,0,,4,,,64,127
2136,note_on,4,0,0,,0,,,72,127
2246,note_off,110,0,0,,0,,,72,127
2250,note_on,4,0,0,,10,,,69,127
2360,note_off,110,0,0,,10,,,69,127
2364,note_on,4,0,0,,4,,,76,127
2474,note_off,110,0,0,,4,,,76,127
2479,note_on,5,0,0,,0,,,72,127
2498,note_off,19,0,0,,10,,,57,127
2498,note_off,0,0,0,,12,,,59,127
2498,note_off,0,0,0,,0,,,60,127
2498,note_off,0,0,0,,4,,,64,127
2589,note_off,91,0,0,,0,,,72,127
2593,note_on,4,0,0,,10,,,81,127
2703,note_off,110,0,0,,10,,,81,127
2707,note_on,4,0,0,,5,,,77,127
2817,note_off,110,0,0,,5,,,77,127
2821,note_on,4,0,0,,4,,,76,127
2821,note_on,0,0,0,,4,,,64,127
2821,note_on,0,0,0,,0,,,60,127
2821,note_on,0,0,0,,12,,,59,127
2821,note_on,0,0,0,,10,,,57,127
3045,note_off,224,0,0,,4,,,76,127
3050,note_on,5,0,0,,4,,,76,127
3257,note_off,207,0,0,,10,,,57,127
3257,note_off,0,0,0,,12,,,59,127
3257,note_off,0,0,0,,0,,,60,127
3257,note_off,0,0,0,,4,,,64,127
3278,note_on,21,0,0,,4,,,64,127
3278,note_on,0,0,0,,2,,,62,127
3278,note_on,0,0,0,,12,,,59,127
3278,note_on,0,0,0,,10,,,57,127
3278,note_on,0,0,0,,8,,,56,127
3517,note_off,239,0,0,,4,,,76,127
3535,note_on,18,0,0,,2,,,74,127
3602,note_on,67,0,0,,0,,,72,127
3607,note_off,5,0,0,,2,,,74,127
3669,note_on,62,0,0,,12,,,71,127
3674,note_off,5,0,0,,0,,,72,127
3714,note_off,40,0,0,,8,,,56,127
3714,note_off,0,0,0,,10,,,57,127
3714,note_off,0,0,0,,12,,,59,127
3714,note_off,0,0,0,,2,,,62,127
3714,note_off,0,0,0,,4,,,64,127
3735,note_on,21,0,0,,0,,,72,127
3735,note_on,0,0,0,,4,,,64,127
3735,note_on,0,0,0,,0,,,60,127
3735,note_on,0,0,0,,12,,,59,127
3735,note_on,0,0,0,,10,,,57,127
3741,note_off,6,0,0,,12,,,71,127
3845,note_off,104,0,0,,0,,,72,127
3849,note_on,4,0,0,,10,,,69,127
3959,note_off,110,0,0,,10,,,69,127
3964,note_on,5,0,0,,0,,,72,127
4074,note_off,110,0,0,,0,,,72,127
4078,note_on,4,0,0,,4,,,76,127
4188,note_off,110,0,0,,4,,,76,127
4192,note_on,4,0,0,,10,,,81,127
4302,note_off,110,0,0,,10,,,81,127
4306,note_on,4,0,0,,12,,,83,127
4416,note_off,110,0,0,,12,,,83,127
4421,note_on,5,0,0,,0,,,84,127
4449,note_off,28,0,0,,10,,,57,127
4449,note_off,0,0,0,,12,,,59,127
4449,note_off,0,0,0,,0,,,60,127
4449,note_off,0,0,0,,4,,,64,127
4531,note_off,82,0,0,,0,,,84,127
4535,note_on,4,0,0,,12,,,83,127
4645,note_off,110,0,0,,12,,,83,127
4649,note_on,4,0,0,,10,,,81,127
4649,note_on,0,0,0,,4,,,64,127
4649,note_on,0,0,0,,0,,,60,127
4649,note_on,0,0,0,,12,,,59,127
4649,note_on,0,0,0,,10,,,57,127
4759,note_off,110,0,0,,10,,,81,127
4763,note_on,4,0,0,,7,,,79,127
4873,note_off,110,0,0,,7,,,79,127
4878,note_on,5,0,0,,5,,,77,127
4988,note_off,110,0,0,,5,,,77,127
4992,note_on,4,0,0,,4,,,76,127
5073,note_off,81,0,0,,10,,,57,127
5073,note_off,0,0,0,,12,,,59,127
5073,note_off,0,0,0,,0,,,60,127
5073,note_off,0,0,0,,4,,,64,127
5102,note_off,29,0,0,,4,,,76,127
5106,note_on,4,0,0,,2,,,74,127
5106,note_on,0,0,0,,2,,,62,127
5106,note_on,0,0,0,,2,,,50,127
5216,note_off,110,0,0,,2,,,74,127
5220,note_on,4,0,0,,0,,,72,127
5330,note_off,110,0,0,,0,,,72,127
5335,note_on,5,0,0,,12,,,71,127
5445,note_off,110,0,0,,12,,,71,127
5449,note_on,4,0,0,,10,,,69,127
5530,note_off,81,0,0,,2,,,50,127
5530,note_off,0,0,0,,2,,,62,127
5559,note_off,29,0,0,,10,,,69,127
5563,note_on,4,0,0,,8,,,68,127
5563,note_on,0,0,0,,4,,,52,127
5673,note_off,110,0,0,,8,,,68,127
5677,note_on,4,0,0,,5,,,65,127
5787,note_off,110,0,0,,5,,,65,127
5792,note_on,5,0,0,,4,,,64,127
5902,note_off,110,0,0,,4,,,64,127
5906,note_on,4,0,0,,2,,,62,127
5987,note_off,81,0,0,,4,,,52,127
6016,note_off,29,0,0,,2,,,62,127
6020,note_on,4,0,0,,0,,,60,127
6020,note_on,0,0,0,,10,,,45,127
6130,note_off,110,0,0,,0,,,60,127
6134,note_on,4,0,0,,12,,,59,127
6244,note_off,110,0,0,,12,,,59,127
6248,note_on,4,0,0,,10,,,57,127
6358,note_off,110,0,0,,10,,,57,127
6363,note_on,5,0,0,,7,,,55,127
6434,note_off,71,0,0,,10,,,45,127
6473,note_off,39,0,0,,7,,,55,127
6477,note_on,4,0,0,,5,,,53,127
6477,note_on,0,0,0,,2,,,38,127
6587,note_off,110,0,0,,5,,,53,127
6591,note_on,4,0,0,,4,,,52,127
6701,note_off,110,0,0,,4,,,52,127
6705,note_on,4,0,0,,2,,,50,127
6815,note_off,110,0,0,,2,,,50,127
6820,note_on,5,0,0,,0,,,48,127
6930,note_off,110,0,0,,0,,,48,127
6934,note_on,4,0,0,,12,,,47,127
7044,note_off,110,0,0,,12,,,47,127
7048,note_on,4,0,0,,10,,,45,127
7158,note_off,110,0,0,,10,,,45,127
7162,note_on,4,0,0,,7,,,43,127
7272,note_off,110,0,0,,7,,,43,127
7277,note_on,5,0,0,,5,,,41,127
7387,note_off,110,0,0,,5,,,41,127
7391,note_on,4,0,0,,5,,,41,127
7562,note_on,171,0,0,,4,,,40,127
7592,note_off,30,0,0,,5,,,41,127
7619,note_on,27,0,0,,5,,,41,127
7635,note_off,16,0,0,,4,,,40,127
7676,note_on,41,0,0,,4,,,40,127
7686,note_off,10,0,0,,5,,,41,127
7734,note_on,48,0,0,,5,,,41,127
7748,note_off,14,0,0,,4,,,40,127
7791,note_on,43,0,0,,4,,,40,127
7806,note_off,15,0,0,,5,,,41,127
7848,note_on,42,0,0,,5,,,41,127
7870,note_off,22,0,0,,4,,,40,127
7904,note_on,34,0,0,,4,,,40,127
7927,note_off,23,0,0,,5,,,41,127
7958,note_on,31,0,0,,5,,,41,127
7976,note_off,18,0,0,,4,,,40,127
8012,note_on,36,0,0,,4,,,40,127
8025,note_off,13,0,0,,5,,,41,127
8064,note_on,39,0,0,,5,,,41,127
8073,note_off,9,0,0,,4,,,40,127
8116,note_on,43,0,0,,4,,,40,127
8119,note_off,3,0,0,,5,,,41,127
8165,note_off,46,0,0,,4,,,40,127
8166,note_on,1,0,0,,5,,,41,127
8214,note_on,48,0,0,,4,,,40,127
8215,note_off,1,0,0,,5,,,41,127
8262,note_off,47,0,0,,2,,,38,127
8262,note_on,0,0,0,,5,,,41,127
8267,note_off,5,0,0,,4,,,40,127
8305,note_on,38,0,0,,4,,,64,127
8305,note_on,0,0,0,,4,,,52,127
8305,note_on,0,0,0,,12,,,47,127
8305,note_on,0,0,0,,4,,,40,127
8315,note_off,10,0,0,,5,,,41,127
8415,note_off,100,0,0,,4,,,64,127
8419,note_on,4,0,0,,12,,,59,127
8529,note_off,110,0,0,,12,,,59,127
8533,note_on,4,0,0,,8,,,68,127
8643,note_off,110,0,0,,8,,,68,127
8648,note_on,5,0,0,,4,,,64,127
8758,note_off,110,0,0,,4,,,64,127
8762,note_on,4,0,0,,12,,,71,127
8872,note_off,110,0,0,,12,,,71,127
8876,note_on,4,0,0,,8,,,68,127
8986,note_off,110,0,0,,8,,,68,127
8990,note_on,4,0,0,,4,,,76,127
8995,note_off,5,0,0,,4,,,40,127
8995,note_off,0,0,0,,12,,,47,127
8995,note_off,0,0,0,,4,,,52,127
9100,note_off,105,0,0,,4,,,76,127
9104,note_on,4,0,0,,1,,,73,127
9214,note_off,110,0,0,,1,,,73,127
9219,note_on,5,0,0,,12,,,71,127
9219,note_on,0,0,0,,4,,,52,127
9219,note_on,0,0,0,,12,,,47,127
9219,note_on,0,0,0,,4,,,40,127
9443,note_off,224,0,0,,12,,,71,127
9447,note_on,4,0,0,,12,,,71,127
9655,note_off,208,0,0,,4,,,40,127
9655,note_off,0,0,0,,12,,,47,127
9655,note_off,0,0,0,,4,,,52,127
9676,note_on,21,0,0,,6,,,54,127
9676,note_on,0,0,0,,4,,,52,127
9676,note_on,0,0,0,,12,,,47,127
9900,note_off,224,0,0,,12,,,71,127
9904,note_on,4,0,0,,10,,,69,127
9976,note_off,72,0,0,,10,,,69,127
9980,note_on,4,0,0,,8,,,68,127
10052,note_off,72,0,0,,8,,,68,127
10056,note_on,4,0,0,,6,,,66,127
10100,note_off,44,0,0,,12,,,47,127
10100,note_off,0,0,0,,4,,,52,127
10100,note_off,0,0,0,,6,,,54,127
10128,note_off,28,0,0,,6,,,66,127
10133,note_on,5,0,0,,8,,,68,127
10133,note_on,0,0,0,,4,,,52,127
10133,note_on,0,0,0,,12,,,47,127
10133,note_on,0,0,0,,4,,,40,127
10243,note_off,110,0,0,,8,,,68,127
10247,note_on,4,0,0,,4,,,64,127
10357,note_off,110,0,0,,4,,,64,127
10361,note_on,4,0,0,,8,,,68,127
10471,note_off,110,0,0,,8,,,68,127
10475,note_on,4,0,0,,12,,,71,127
10585,note_off,110,0,0,,12,,,71,127
10590,note_on,5,0,0,,4,,,76,127
10700,note_off,110,0,0,,4,,,76,127
10704,note_on,4,0,0,,12,,,71,127
10710,note_off,6,0,0,,4,,,40,127
10710,note_off,0,0,0,,12,,,47,127
10710,note_off,0,0,0,,4,,,52,127
10814,note_off,104,0,0,,12,,,71,127
10818,note_on,4,0,0,,4,,,76,127
10928,note_off,110,0,0,,4,,,76,127
10932,note_on,4,0,0,,8,,,80,127
11042,note_off,110,0,0,,8,,,80,127
11047,note_on,5,0,0,,12,,,71,127
11047,note_on,0,0,0,,4,,,52,127
11047,note_on,0,0,0,,12,,,47,127
11047,note_on,0,0,0,,4,,,40,127
11271,note_off,224,0,0,,12,,,71,127
11276,note_on,5,0,0,,1,,,73,127
11317,note_on,41,0,0,,12,,,71,127
11333,note_off,16,0,0,,1,,,73,127
11357,note_on,24,0,0,,1,,,73,127
11374,note_off,17,0,0,,12,,,71,127
11398,note_on,24,0,0,,12,,,71,127
11414,note_off,16,0,0,,1,,,73,127
11483,note_off,69,0,0,,4,,,40,127
11483,note_off,0,0,0,,12,,,47,127
11483,note_off,0,0,0,,4,,,52,127
11504,note_on,21,0,0,,6,,,54,127
11504,note_on,0,0,0,,4,,,52,127
11504,note_on,0,0,0,,12,,,47,127
11732,note_on,228,0,0,,10,,,69,127
11737,note_off,5,0,0,,12,,,71,127
11804,note_off,67,0,0,,10,,,69,127
11808,note_on,4,0,0,,8,,,68,127
11880,note_off,72,0,0,,8,,,68,127
11884,note_on,4,0,0,,6,,,66,127
11928,note_off,44,0,0,,12,,,47,127
11928,note_off,0,0,0,,4,,,52,127
11928,note_off,0,0,0,,6,,,54,127
11956,note_off,28,0,0,,6,,,66,127
11960,note_on,4,0,0,,4,,,64,127
11960,note_on,0,0,0,,4,,,52,127
11960,note_on,0,0,0,,12,,,47,127
11960,note_on,0,0,0,,4,,,40,127
12070,note_off,110,0,0,,4,,,64,127
12075,note_on,5,0,0,,12,,,59,127
12185,note_off,110,0,0,,12,,,59,127
12189,note_on,4,0,0,,8,,,68,127
12299,note_off,110,0,0,,8,,,68,127
12303,note_on,4,0,0,,4,,,64,127
12413,note_off,110,0,0,,4,,,64,127
12417,note_on,4,0,0,,12,,,71,127
12527,note_off,110,0,0,,12,,,71,127
12532,note_on,5,0,0,,8,,,68,127
12599,note_off,67,0,0,,4,,,40,127
12599,note_off,0,0,0,,12,,,47,127
12599,note_off,0,0,0,,4,,,52,127
12642,note_off,43,0,0,,8,,,68,127
12646,note_on,4,0,0,,4,,,76,127
12756,note_off,110,0,0,,4,,,76,127
12760,note_on,4,0,0,,1,,,73,127
12870,note_off,110,0,0,,1,,,73,127
12874,note_on,4,0,0,,12,,,71,127
12874,note_on,0,0,0,,4,,,52,127
12874,note_on,0,0,0,,12,,,47,127
12874,note_on,0,0,0,,4,,,40,127
13098,note_off,224,0,0,,12,,,71,127
13103,note_on,5,0,0,,1,,,73,127
13143,note_on,40,0,0,,12,,,71,127
13160,note_off,17,0,0,,1,,,73,127
13184,note_on,24,0,0,,1,,,73,127
13200,note_off,16,0,0,,12,,,71,127
13224,note_on,24,0,0,,12,,,71,127
13241,note_off,17,0,0,,1,,,73,127
13265,note_on,24,0,0,,1,,,73,127
13281,note_off,16,0,0,,12,,,71,127
13305,note_on,24,0,0,,12,,,71,127
13316,note_off,11,0,0,,4,,,40,127
13316,note_off,0,0,0,,12,,,47,127
13316,note_off,0,0,0,,4,,,52,127
13322,note_off,6,0,0,,1,,,73,127
13331,note_on,9,0,0,,6,,,54,127
13331,note_on,0,0,0,,4,,,52,127
13331,note_on,0,0,0,,12,,,47,127
13576,note_on,245,0,0,,10,,,69,127
13578,note_off,2,0,0,,12,,,71,127
13643,note_off,65,0,0,,10,,,69,127
13646,note_on,3,0,0,,8,,,68,127
13713,note_off,67,0,0,,8,,,68,127
13717,note_on,4,0,0,,6,,,66,127
13779,note_off,62,0,0,,12,,,47,127
13779,note_off,0,0,0,,4,,,52,127
13779,note_off,0,0,0,,6,,,54,127
13784,note_off,5,0,0,,6,,,66,127
13788,note_on,4,0,0,,6,,,66,127
13788,note_on,0,0,0,,4,,,52,127
13788,note_on,0,0,0,,12,,,47,127
13788,note_on,0,0,0,,4,,,40,127
14012,note_off,224,0,0,,6,,,66,127
14017,note_on,5,0,0,,8,,,68,127
14245,note_off,228,0,0,,8,,,68,127
14450,note_off,205,0,0,,4,,,40,127
14450,note_off,0,0,0,,12,,,47,127
14450,note_off,0,0,0,,4,,,52,127
14490,note_on,40,0,0,,4,,,76,127
14714,note_off,224,0,0,,4,,,76,127
14718,note_on,4,0,0,,4,,,76,127
14771,note_off,53,0,0,,4,,,76,127
14777,note_on,6,0,0,,5,,,77,127
14830,note_off,53,0,0,,5,,,77,127
14835,note_on,5,0,0,,7,,,79,127
14888,note_off,53,0,0,,7,,,79,127
14893,note_on,5,0,0,,5,,,77,127
14947,note_on,54,0,0,,2,,,50,127
14947,note_on,0,0,0,,10,,,57,127
14947,note_on,0,0,0,,12,,,59,127
15171,note_off,224,0,0,,12,,,59,127
15171,note_off,0,0,0,,10,,,57,127
15171,note_off,0,0,0,,2,,,50,127
15175,note_on,4,0,0,,2,,,50,127
15175,note_on,0,0,0,,10,,,57,127
15175,note_on,0,0,0,,12,,,59,127
15399,note_off,224,0,0,,12,,,59,127
15399,note_off,0,0,0,,10,,,57,127
15399,note_off,0,0,0,,2,,,50,127
15403,note_off,4,0,0,,5,,,77,127
15404,note_on,1,0,0,,2,,,50,127
15404,note_on,0,0,0,,10,,,57,127
15404,note_on,0,0,0,,12,,,59,127
15404,note_on,0,0,0,,2,,,74,127
15620,note_off,216,0,0,,12,,,59,127
15620,note_off,0,0,0,,10,,,57,127
15620,note_off,0,0,0,,2,,,50,127
15628,note_off,8,0,0,,2,,,74,127
15632,note_on,4,0,0,,0,,,48,127
15632,note_on,0,0,0,,4,,,52,127
15632,note_on,0,0,0,,10,,,57,127
15632,note_on,0,0,0,,8,,,68,127
15856,note_off,224,0,0,,8,,,68,127
15856,note_off,0,0,0,,10,,,57,127
15856,note_off,0,0,0,,4,,,52,127
15856,note_off,0,0,0,,0,,,48,127
15861,note_on,5,0,0,,0,,,48,127
15861,note_on,0,0,0,,4,,,52,127
15861,note_on,0,0,0,,10,,,57,127
15861,note_on,0,0,0,,10,,,69,127
16085,note_off,224,0,0,,10,,,69,127
16085,note_off,0,0,0,,10,,,57,127
16085,note_off,0,0,0,,4,,,52,127
16085,note_off,0,0,0,,0,,,48,127
16089,note_on,4,0,0,,0,,,48,127
16089,note_on,0,0,0,,4,,,52,127
16089,note_on,0,0,0,,10,,,57,127
16313,note_off,224,0,0,,10,,,57,127
16313,note_off,0,0,0,,4,,,52,127
16313,note_off,0,0,0,,0,,,48,127
16318,note_on,5,0,0,,0,,,48,127
16318,note_on,0,0,0,,4,,,52,127
16318,note_on,0,0,0,,10,,,57,127
16318,note_on,0,0,0,,4,,,76,127
16528,note_off,210,0,0,,10,,,57,127
16528,note_off,0,0,0,,4,,,52,127
16528,note_off,0,0,0,,0,,,48,127
16542,note_off,14,0,0,,4,,,76,127
16546,note_on,4,0,0,,2,,,50,127
16546,note_on,0,0,0,,10,,,57,127
16546,note_on,0,0,0,,12,,,59,127
16546,note_on,0,0,0,,4,,,76,127
16611,note_off,65,0,0,,4,,,76,127
16615,note_on,4,0,0,,5,,,77,127
16680,note_off,65,0,0,,5,,,77,127
16684,note_on,4,0,0,,7,,,79,127
16749,note_off,65,0,0,,7,,,79,127
16753,note_on,4,0,0,,5,,,77,127
16770,note_off,17,0,0,,12,,,59,127
16770,note_off,0,0,0,,10,,,57,127
16770,note_off,0,0,0,,2,,,50,127
16775,note_on,5,0,0,,2,,,50,127
16775,note_on,0,0,0,,10,,,57,127
16775,note_on,0,0,0,,12,,,59,127
16999,note_off,224,0,0,,12,,,59,127
16999,note_off,0,0,0,,10,,,57,127
16999,note_off,0,0,0,,2,,,50,127
17003,note_on,4,0,0,,2,,,50,127
17003,note_on,0,0,0,,10,,,57,127
17003,note_on,0,0,0,,12,,,59,127
17206,note_off,203,0,0,,5,,,77,127
17227,note_off,21,0,0,,12,,,59,127
17227,note_off,0,0,0,,10,,,57,127
17227,note_off,0,0,0,,2,,,50,127
17232,note_on,5,0,0,,2,,,50,127
17232,note_on,0,0,0,,10,,,57,127
17232,note_on,0,0,0,,12,,,59,127
17232,note_on,0,0,0,,2,,,74,127
17448,note_off,216,0,0,,12,,,59,127
17448,note_off,0,0,0,,10,,,57,127
17448,note_off,0,0,0,,2,,,50,127
17456,note_off,8,0,0,,2,,,74,127
17460,note_on,4,0,0,,0,,,48,127
17460,note_on,0,0,0,,4,,,52,127
17460,note_on,0,0,0,,10,,,57,127
17460,note_on,0,0,0,,8,,,68,127
17684,note_off,224,0,0,,8,,,68,127
17684,note_off,0,0,0,,10,,,57,127
17684,note_off,0,0,0,,4,,,52,127
17684,note_off,0,0,0,,0,,,48,127
17688,note_on,4,0,0,,0,,,48,127
17688,note_on,0,0,0,,4,,,52,127
17688,note_on,0,0,0,,10,,,57,127
17688,note_on,0,0,0,,10,,,69,127
17912,note_off,224,0,0,,10,,,69,127
17912,note_off,0,0,0,,10,,,57,127
17912,note_off,0,0,0,,4,,,52,127
17912,note_off,0,0,0,,0,,,48,127
17917,note_on,5,0,0,,0,,,48,127
17917,note_on,0,0,0,,4,,,52,127
17917,note_on,0,0,0,,10,,,57,127
18141,note_off,224,0,0,,10,,,57,127
18141,note_off,0,0,0,,4,,,52,127
18141,note_off,0,0,0,,0,,,48,127
18145,note_on,4,0,0,,0,,,48,127
18145,note_on,0,0,0,,4,,,52,127
18145,note_on,0,0,0,,10,,,57,127
18145,note_on,0,0,0,,4,,,76,127
18369,note_off,224,0,0,,4,,,76,127
18369,note_off,0,0,0,,10,,,57,127
18369,note_off,0,0,0,,4,,,52,127
18369,note_off,0,0,0,,0,,,48,127
18390,note_on,21,0,0,,5,,,77,127
18448,note_off,58,0,0,,5,,,77,127
18449,note_on,1,0,0,,7,,,79,127
18507,note_off,58,0,0,,7,,,79,127
18509,note_on,2,0,0,,10,,,81,127
18567,note_off,58,0,0,,10,,,81,127
18568,note_on,1,0,0,,7,,,79,127
18618,note_on,50,0,0,,2,,,62,127
18618,note_on,0,0,0,,11,,,58,127
18618,note_on,0,0,0,,7,,,55,127
18618,note_on,0,0,0,,2,,,50,127
18828,note_off,210,0,0,,2,,,62,127
18842,note_off,14,0,0,,2,,,50,127
18842,note_off,0,0,0,,7,,,55,127
18842,note_off,0,0,0,,11,,,58,127
18847,note_on,5,0,0,,2,,,62,127
18847,note_on,0,0,0,,11,,,58,127
18847,note_on,0,0,0,,7,,,55,127
18847,note_on,0,0,0,,2,,,50,127
19071,note_off,224,0,0,,2,,,50,127
19071,note_off,0,0,0,,7,,,55,127
19071,note_off,0,0,0,,11,,,58,127
19071,note_off,0,0,0,,2,,,62,127
19075,note_on,4,0,0,,4,,,76,127
19075,note_on,0,0,0,,2,,,62,127
19075,note_on,0,0,0,,11,,,58,127
19075,note_on,0,0,0,,7,,,55,127
19075,note_on,0,0,0,,2,,,50,127
19291,note_off,216,0,0,,2,,,50,127
19291,note_off,0,0,0,,7,,,55,127
19291,note_off,0,0,0,,11,,,58,127
19291,note_off,0,0,0,,2,,,62,127
19299,note_off,8,0,0,,4,,,76,127
19304,note_on,5,0,0,,7,,,67,127
19304,note_on,0,0,0,,2,,,62,127
19304,note_on,0,0,0,,4,,,64,127
19304,note_on,0,0,0,,1,,,61,127
19304,note_on,0,0,0,,10,,,57,127
19304,note_on,0,0,0,,7,,,55,127
19304,note_on,0,0,0,,4,,,52,127
19528,note_off,224,0,0,,4,,,52,127
19528,note_off,0,0,0,,7,,,55,127
19528,note_off,0,0,0,,10,,,57,127
19528,note_off,0,0,0,,1,,,61,127
19528,note_off,0,0,0,,4,,,64,127
19528,note_off,0,0,0,,2,,,62,127
19528,note_off,0,0,0,,7,,,67,127
19532,note_on,4,0,0,,11,,,70,127
19532,note_on,0,0,0,,2,,,62,127
19532,note_on,0,0,0,,4,,,64,127
19532,note_on,0,0,0,,1,,,61,127
19532,note_on,0,0,0,,10,,,57,127
19532,note_on,0,0,0,,7,,,55,127
19532,note_on,0,0,0,,4,,,52,127
19756,note_off,224,0,0,,4,,,52,127
19756,note_off,0,0,0,,7,,,55,127
19756,note_off,0,0,0,,10,,,57,127
19756,note_off,0,0,0,,1,,,61,127
19756,note_off,0,0,0,,4,,,64,127
19756,note_off,0,0,0,,2,,,62,127
19756,note_off,0,0,0,,11,,,70,127
19761,note_on,5,0,0,,1,,,73,127
19761,note_on,0,0,0,,2,,,62,127
19761,note_on,0,0,0,,4,,,64,127
19761,note_on,0,0,0,,1,,,61,127
19761,note_on,0,0,0,,10,,,57,127
19761,note_on,0,0,0,,7,,,55,127
19761,note_on,0,0,0,,4,,,52,127
19985,note_off,224,0,0,,4,,,52,127
19985,note_off,0,0,0,,7,,,55,127
19985,note_off,0,0,0,,10,,,57,127
19985,note_off,0,0,0,,1,,,61,127
19985,note_off,0,0,0,,4,,,64,127
19985,note_off,0,0,0,,2,,,62,127
19985,note_off,0,0,0,,1,,,73,127
19989,note_on,4,0,0,,4,,,76,127
19989,note_on,0,0,0,,2,,,62,127
19989,note_on,0,0,0,,4,,,64,127
19989,note_on,0,0,0,,1,,,61,127
19989,note_on,0,0,0,,10,,,57,127
19989,note_on,0,0,0,,7,,,55,127
19989,note_on,0,0,0,,4,,,52,127
19992,note_off,3,0,0,,7,,,79,127
20199,note_off,207,0,0,,4,,,52,127
20199,note_off,0,0,0,,7,,,55,127
20199,note_off,0,0,0,,10,,,57,127
20199,note_off,0,0,0,,1,,,61,127
20199,note_off,0,0,0,,4,,,64,127
20199,note_off,0,0,0,,2,,,62,127
20213,note_off,14,0,0,,4,,,76,127
20218,note_on,5,0,0,,5,,,77,127
20218,note_on,0,0,0,,2,,,62,127
20218,note_on,0,0,0,,11,,,58,127
20218,note_on,0,0,0,,7,,,55,127
20218,note_on,0,0,0,,2,,,50,127
20285,note_off,67,0,0,,5,,,77,127
20287,note_on,2,0,0,,7,,,79,127
20354,note_off,67,0,0,,7,,,79,127
20356,note_on,2,0,0,,10,,,81,127
20423,note_off,67,0,0,,10,,,81,127
20425,note_on,2,0,0,,7,,,79,127
20442,note_off,17,0,0,,2,,,50,127
20442,note_off,0,0,0,,7,,,55,127
20442,note_off,0,0,0,,11,,,58,127
20442,note_off,0,0,0,,2,,,62,127
20446,note_on,4,0,0,,2,,,62,127
20446,note_on,0,0,0,,11,,,58,127
20446,note_on,0,0,0,,7,,,55,127
20446,note_on,0,0,0,,2,,,50,127
20670,note_off,224,0,0,,2,,,50,127
20670,note_off,0,0,0,,7,,,55,127
20670,note_off,0,0,0,,11,,,58,127
20670,note_off,0,0,0,,2,,,62,127
20675,note_on,5,0,0,,2,,,62,127
20675,note_on,0,0,0,,11,,,58,127
20675,note_on,0,0,0,,7,,,55,127
20675,note_on,0,0,0,,2,,,50,127
20899,note_off,224,0,0,,2,,,50,127
20899,note_off,0,0,0,,7,,,55,127
20899,note_off,0,0,0,,11,,,58,127
20899,note_off,0,0,0,,2,,,62,127
20903,note_on,4,0,0,,4,,,76,127
20903,note_on,0,0,0,,2,,,62,127
20903,note_on,0,0,0,,11,,,58,127
20903,note_on,0,0,0,,7,,,55,127
20903,note_on,0,0,0,,2,,,50,127
21115,note_off,212,0,0,,7,,,79,127
21119,note_off,4,0,0,,2,,,50,127
21119,note_off,0,0,0,,7,,,55,127
21119,note_off,0,0,0,,11,,,58,127
21119,note_off,0,0,0,,2,,,62,127
21127,note_off,8,0,0,,4,,,76,127
21132,note_on,5,0,0,,7,,,79,127
21132,note_on,0,0,0,,7,,,67,127
21132,note_on,0,0,0,,2,,,62,127
21132,note_on,0,0,0,,4,,,64,127
21132,note_on,0,0,0,,1,,,61,127
21132,note_on,0,0,0,,10,,,57,127
21132,note_on,0,0,0,,7,,,55,127
21132,note_on,0,0,0,,4,,,52,127
21356,note_off,224,0,0,,4,,,52,127
21356,note_off,0,0,0,,7,,,55,127
21356,note_off,0,0,0,,10,,,57,127
21356,note_off,0,0,0,,1,,,61,127
21356,note_off,0,0,0,,4,,,64,127
21356,note_off,0,0,0,,2,,,62,127
21356,note_off,0,0,0,,7,,,67,127
21360,note_on,4,0,0,,11,,,70,127
21360,note_on,0,0,0,,2,,,62,127
21360,note_on,0,0,0,,4,,,64,127
21360,note_on,0,0,0,,1,,,61,127
21360,note_on,0,0,0,,10,,,57,127
21360,note_on,0,0,0,,7,,,55,127
21360,note_on,0,0,0,,4,,,52,127
21584,note_off,224,0,0,,4,,,52,127
21584,note_off,0,0,0,,7,,,55,127
21584,note_off,0,0,0,,10,,,57,127
21584,note_off,0,0,0,,1,,,61,127
21584,note_off,0,0,0,,4,,,64,127
21584,note_off,0,0,0,,2,,,62,127
21584,note_off,0,0,0,,11,,,70,127
21589,note_on,5,0,0,,1,,,73,127
21589,note_on,0,0,0,,2,,,62,127
21589,note_on,0,0,0,,4,,,64,127
21589,note_on,0,0,0,,1,,,61,127
21589,note_on,0,0,0,,10,,,57,127
21589,note_on,0,0,0,,7,,,55,127
21589,note_on,0,0,0,,4,,,52,127
21799,note_off,210,0,0,,1,,,61,127
21799,note_off,0,0,0,,4,,,64,127
21799,note_off,0,0,0,,2,,,62,127
21813,note_off,14,0,0,,4,,,52,127
21813,note_off,0,0,0,,7,,,55,127
21813,note_off,0,0,0,,10,,,57,127
21813,note_off,0,0,0,,1,,,73,127
21813,note_off,0,0,0,,7,,,79,127
21817,note_on,4,0,0,,4,,,76,127
21817,note_on,0,0,0,,2,,,62,127
21817,note_on,0,0,0,,4,,,64,127
21817,note_on,0,0,0,,1,,,61,127
21817,note_on,0,0,0,,10,,,57,127
21817,note_on,0,0,0,,7,,,55,127
21817,note_on,0,0,0,,4,,,52,127
22027,note_off,210,0,0,,4,,,52,127
22027,note_off,0,0,0,,7,,,55,127
22027,note_off,0,0,0,,10,,,57,127
22041,note_off,14,0,0,,1,,,61,127
22041,note_off,0,0,0,,4,,,64,127
22041,note_off,0,0,0,,2,,,62,127
22041,note_off,0,0,0,,4,,,76,127
22046,note_on,5,0,0,,5,,,77,127
22046,note_on,0,0,0,,10,,,69,127
22046,note_on,0,0,0,,1,,,73,127
22046,note_on,0,0,0,,7,,,67,127
22084,note_on,38,0,0,,4,,,76,127
22107,note_off,23,0,0,,5,,,77,127
22122,note_on,15,0,0,,5,,,77,127
22145,note_off,23,0,0,,4,,,76,127
22160,note_on,15,0,0,,4,,,76,127
22183,note_off,23,0,0,,5,,,77,127
22270,note_off,87,0,0,,1,,,73,127
22270,note_off,0,0,0,,10,,,69,127
22274,note_on,4,0,0,,5,,,77,127
22274,note_on,0,0,0,,2,,,50,127
22299,note_off,25,0,0,,4,,,76,127
22498,note_off,199,0,0,,5,,,77,127
22499,note_off,1,0,0,,7,,,67,127
22503,note_on,4,0,0,,7,,,55,127
22727,note_off,224,0,0,,7,,,55,127
22731,note_on,4,0,0,,1,,,73,127
22731,note_on,0,0,0,,10,,,69,127
22731,note_on,0,0,0,,4,,,64,127
22731,note_on,0,0,0,,2,,,62,127
22731,note_on,0,0,0,,7,,,67,127
22731,note_on,0,0,0,,2,,,74,127
22731,note_on,0,0,0,,11,,,70,127
22731,note_on,0,0,0,,11,,,58,127
22955,note_off,224,0,0,,11,,,58,127
22955,note_off,0,0,0,,11,,,70,127
22955,note_off,0,0,0,,2,,,74,127
22955,note_off,0,0,0,,7,,,67,127
22955,note_off,0,0,0,,2,,,62,127
22955,note_off,0,0,0,,4,,,64,127
22955,note_off,0,0,0,,10,,,69,127
22955,note_off,0,0,0,,1,,,73,127
22955,note_off,0,0,0,,2,,,50,127
22960,note_on,5,0,0,,4,,,76,127
22960,note_on,0,0,0,,10,,,69,127
22960,note_on,0,0,0,,7,,,67,127
23012,note_on,52,0,0,,2,,,74,127
23027,note_off,15,0,0,,4,,,76,127
23064,note_on,37,0,0,,4,,,76,127
23079,note_off,15,0,0,,2,,,74,127
23117,note_on,38,0,0,,2,,,74,127
23131,note_off,14,0,0,,4,,,76,127
23184,note_off,53,0,0,,2,,,74,127
23184,note_off,0,0,0,,7,,,67,127
23184,note_off,0,0,0,,10,,,69,127
23188,note_on,4,0,0,,4,,,76,127
23188,note_on,0,0,0,,10,,,69,127
23188,note_on,0,0,0,,1,,,49,127
23412,note_off,224,0,0,,10,,,69,127
23412,note_off,0,0,0,,4,,,76,127
23416,note_on,4,0,0,,7,,,55,127
23416,note_on,0,0,0,,10,,,57,127
23640,note_off,224,0,0,,10,,,57,127
23640,note_off,0,0,0,,7,,,55,127
23645,note_on,5,0,0,,3,,,75,127
23645,note_on,0,0,0,,7,,,67,127
23645,note_on,0,0,0,,4,,,76,127
23645,note_on,0,0,0,,10,,,69,127
23645,note_on,0,0,0,,0,,,72,127
23645,note_on,0,0,0,,4,,,64,127
23645,note_on,0,0,0,,2,,,62,127
23869,note_off,224,0,0,,2,,,62,127
23869,note_off,0,0,0,,4,,,64,127
23869,note_off,0,0,0,,0,,,72,127
23869,note_off,0,0,0,,10,,,69,127
23869,note_off,0,0,0,,4,,,76,127
23869,note_off,0,0,0,,7,,,67,127
23869,note_off,0,0,0,,3,,,75,127
23869,note_off,0,0,0,,1,,,49,127
23873,note_on,4,0,0,,5,,,77,127
23873,note_on,0,0,0,,3,,,75,127
23873,note_on,0,0,0,,7,,,67,127
23873,note_on,0,0,0,,0,,,72,127
23873,note_on,0,0,0,,10,,,69,127
23912,note_on,39,0,0,,4,,,76,127
23926,note_off,14,0,0,,5,,,77,127
23950,note_on,24,0,0,,5,,,77,127
23965,note_off,15,0,0,,4,,,76,127
23988,note_on,23,0,0,,4,,,76,127
24003,note_off,15,0,0,,5,,,77,127
24041,note_off,38,0,0,,4,,,76,127
24097,note_off,56,0,0,,10,,,69,127
24097,note_off,0,0,0,,0,,,72,127
24097,note_off,0,0,0,,7,,,67,127
24097,note_off,0,0,0,,3,,,75,127
24102,note_on,5,0,0,,5,,,77,127
24102,note_on,0,0,0,,2,,,50,127
24326,note_off,224,0,0,,5,,,77,127
24330,note_on,4,0,0,,7,,,55,127
24554,note_off,224,0,0,,7,,,55,127
24559,note_on,5,0,0,,1,,,73,127
24559,note_on,0,0,0,,10,,,69,127
24559,note_on,0,0,0,,2,,,62,127
24559,note_on,0,0,0,,4,,,64,127
24559,note_on,0,0,0,,7,,,67,127
24559,note_on,0,0,0,,11,,,70,127
24559,note_on,0,0,0,,2,,,74,127
24559,note_on,0,0,0,,11,,,58,127
24783,note_off,224,0,0,,11,,,58,127
24783,note_off,0,0,0,,2,,,74,127
24783,note_off,0,0,0,,11,,,70,127
24783,note_off,0,0,0,,7,,,67,127
24783,note_off,0,0,0,,4,,,64,127
24783,note_off,0,0,0,,2,,,62,127
24783,note_off,0,0,0,,10,,,69,127
24783,note_off,0,0,0,,1,,,73,127
24783,note_off,0,0,0,,2,,,50,127
24787,note_on,4,0,0,,4,,,76,127
24787,note_on,0,0,0,,7,,,67,127
24787,note_on,0,0,0,,10,,,69,127
24828,note_on,41,0,0,,2,,,74,127
24840,note_off,12,0,0,,4,,,76,127
24868,note_on,28,0,0,,4,,,76,127
24881,note_off,13,0,0,,2,,,74,127
24909,note_on,28,0,0,,2,,,74,127
24921,note_off,12,0,0,,4,,,76,127
25011,note_off,90,0,0,,10,,,69,127
25011,note_off,0,0,0,,7,,,67,127
25012,note_off,1,0,0,,2,,,74,127
25016,note_on,4,0,0,,4,,,76,127
25016,note_on,0,0,0,,10,,,69,127
25016,note_on,0,0,0,,1,,,49,127
25240,note_off,224,0,0,,1,,,49,127
25240,note_off,0,0,0,,10,,,69,127
25240,note_off,0,0,0,,4,,,76,127
25256,note_on,16,0,0,,12,,,59,127
25256,note_on,0,0,0,,10,,,57,127
25256,note_on,0,0,0,,3,,,51,127
25256,note_on,0,0,0,,6,,,54,127
25489,note_on,233,0,0,,6,,,78,127
25489,note_on,0,0,0,,12,,,71,127
25489,note_on,0,0,0,,3,,,75,127
25489,note_on,0,0,0,,10,,,69,127
25489,note_on,0,0,0,,4,,,76,127
25709,note_off,220,0,0,,6,,,54,127
25709,note_off,0,0,0,,3,,,51,127
25709,note_off,0,0,0,,10,,,57,127
25709,note_off,0,0,0,,12,,,59,127
25713,note_off,4,0,0,,4,,,76,127
25713,note_off,0,0,0,,10,,,69,127
25713,note_off,0,0,0,,3,,,75,127
25713,note_off,0,0,0,,12,,,71,127
25713,note_off,0,0,0,,6,,,78,127
25717,note_on,4,0,0,,4,,,52,127
25717,note_on,0,0,0,,7,,,55,127
25717,note_on,0,0,0,,12,,,59,127
25717,note_on,0,0,0,,3,,,75,127
25717,note_on,0,0,0,,12,,,71,127
25717,note_on,0,0,0,,10,,,69,127
25717,note_on,0,0,0,,4,,,76,127
25717,note_on,0,0,0,,7,,,79,127
25751,note_on,34,0,0,,6,,,78,127
25770,note_off,19,0,0,,7,,,79,127
25784,note_on,14,0,0,,7,,,79,127
25804,note_off,20,0,0,,6,,,78,127
25815,note_on,11,0,0,,6,,,78,127
25837,note_off,22,0,0,,7,,,79,127
25941,note_off,104,0,0,,4,,,76,127
25941,note_off,0,0,0,,10,,,69,127
25941,note_off,0,0,0,,12,,,71,127
25941,note_off,0,0,0,,3,,,75,127
25946,note_on,5,0,0,,7,,,79,127
25951,note_off,5,0,0,,6,,,78,127
26170,note_off,219,0,0,,7,,,79,127
26170,note_off,0,0,0,,12,,,59,127
26170,note_off,0,0,0,,7,,,55,127
26170,note_off,0,0,0,,4,,,52,127
26174,note_on,4,0,0,,0,,,48,127
26174,note_on,0,0,0,,4,,,52,127
26174,note_on,0,0,0,,10,,,57,127
26174,note_on,0,0,0,,12,,,59,127
26174,note_on,0,0,0,,6,,,54,127
26403,note_on,229,0,0,,4,,,76,127
26403,note_on,0,0,0,,0,,,72,127
26403,note_on,0,0,0,,3,,,75,127
26627,note_off,224,0,0,,3,,,75,127
26627,note_off,0,0,0,,0,,,72,127
26627,note_off,0,0,0,,4,,,76,127
26627,note_off,0,0,0,,6,,,54,127
26627,note_off,0,0,0,,12,,,59,127
26627,note_off,0,0,0,,10,,,57,127
26627,note_off,0,0,0,,4,,,52,127
26627,note_off,0,0,0,,0,,,48,127
26631,note_on,4,0,0,,10,,,69,127
26631,note_on,0,0,0,,12,,,71,127
26631,note_on,0,0,0,,12,,,47,127
26631,note_on,0,0,0,,4,,,52,127
26631,note_on,0,0,0,,10,,,57,127
26631,note_on,0,0,0,,12,,,59,127
26631,note_on,0,0,0,,6,,,54,127
26631,note_on,0,0,0,,6,,,78,127
26668,note_on,37,0,0,,4,,,76,127
26684,note_off,16,0,0,,6,,,78,127
26705,note_on,21,0,0,,6,,,78,127
26721,note_off,16,0,0,,4,,,76,127
26742,note_on,21,0,0,,4,,,76,127
26758,note_off,16,0,0,,6,,,78,127
26852,note_off,94,0,0,,4,,,76,127
26860,note_on,8,0,0,,6,,,78,127
27084,note_off,224,0,0,,6,,,78,127
27084,note_off,0,0,0,,6,,,54,127
27084,note_off,0,0,0,,12,,,59,127
27084,note_off,0,0,0,,10,,,57,127
27084,note_off,0,0,0,,4,,,52,127
27084,note_off,0,0,0,,12,,,47,127
27084,note_off,0,0,0,,12,,,71,127
27084,note_off,0,0,0,,10,,,69,127
27088,note_on,4,0,0,,12,,,47,127
27088,note_on,0,0,0,,6,,,54,127
27088,note_on,0,0,0,,10,,,57,127
27088,note_on,0,0,0,,12,,,59,127
27088,note_on,0,0,0,,4,,,52,127
27317,note_on,229,0,0,,12,,,71,127
27317,note_on,0,0,0,,3,,,75,127
27317,note_on,0,0,0,,6,,,78,127
27317,note_on,0,0,0,,10,,,69,127
27317,note_on,0,0,0,,4,,,76,127
27541,note_off,224,0,0,,4,,,76,127
27541,note_off,0,0,0,,10,,,69,127
27541,note_off,0,0,0,,6,,,78,127
27541,note_off,0,0,0,,3,,,75,127
27541,note_off,0,0,0,,12,,,71,127
27541,note_off,0,0,0,,4,,,52,127
27541,note_off,0,0,0,,12,,,59,127
27541,note_off,0,0,0,,10,,,57,127
27541,note_off,0,0,0,,6,,,54,127
27541,note_off,0,0,0,,12,,,47,127
27545,note_on,4,0,0,,0,,,48,127
27545,note_on,0,0,0,,4,,,52,127
27545,note_on,0,0,0,,6,,,54,127
27545,note_on,0,0,0,,12,,,59,127
27545,note_on,0,0,0,,10,,,57,127
27545,note_on,0,0,0,,10,,,69,127
27545,note_on,0,0,0,,12,,,71,127
27545,note_on,0,0,0,,3,,,75,127
27545,note_on,0,0,0,,4,,,76,127
27545,note_on,0,0,0,,7,,,79,127
27584,note_on,39,0,0,,6,,,78,127
27598,note_off,14,0,0,,7,,,79,127
27624,note_on,26,0,0,,7,,,79,127
27637,note_off,13,0,0,,6,,,78,127
27663,note_on,26,0,0,,6,,,78,127
27677,note_off,14,0,0,,7,,,79,127
27769,note_off,92,0,0,,4,,,76,127
27769,note_off,0,0,0,,3,,,75,127
27769,note_off,0,0,0,,12,,,71,127
27769,note_off,0,0,0,,10,,,69,127
27773,note_off,4,0,0,,6,,,78,127
27774,note_on,1,0,0,,7,,,79,127
27998,note_off,224,0,0,,7,,,79,127
27998,note_off,0,0,0,,10,,,57,127
27998,note_off,0,0,0,,12,,,59,127
27998,note_off,0,0,0,,6,,,54,127
27998,note_off,0,0,0,,4,,,52,127
27998,note_off,0,0,0,,0,,,48,127
28002,note_on,4,0,0,,0,,,48,127
28002,note_on,0,0,0,,4,,,52,127
28002,note_on,0,0,0,,10,,,57,127
28002,note_on,0,0,0,,12,,,59,127
28002,note_on,0,0,0,,6,,,54,127
28231,note_on,229,0,0,,4,,,76,127
28231,note_on,0,0,0,,0,,,72,127
28231,note_on,0,0,0,,3,,,75,127
28455,note_off,224,0,0,,3,,,75,127
28455,note_off,0,0,0,,0,,,72,127
28455,note_off,0,0,0,,4,,,76,127
28455,note_off,0,0,0,,6,,,54,127
28455,note_off,0,0,0,,12,,,59,127
28455,note_off,0,0,0,,10,,,57,127
28455,note_off,0,0,0,,4,,,52,127
28455,note_off,0,0,0,,0,,,48,127
28459,note_on,4,0,0,,10,,,69,127
28459,note_on,0,0,0,,12,,,71,127
28459,note_on,0,0,0,,12,,,47,127
28459,note_on,0,0,0,,6,,,54,127
28459,note_on,0,0,0,,12,,,59,127
28459,note_on,0,0,0,,4,,,52,127
28459,note_on,0,0,0,,10,,,57,127
28459,note_on,0,0,0,,6,,,78,127
28560,note_on,101,0,0,,4,,,76,127
28569,note_off,9,0,0,,6,,,78,127
28611,note_on,42,0,0,,6,,,78,127
28632,note_off,21,0,0,,4,,,76,127
28649,note_on,17,0,0,,4,,,76,127
28664,note_off,15,0,0,,6,,,78,127
28688,note_on,24,0,0,,6,,,78,127
28759,note_off,71,0,0,,4,,,76,127
29026,note_off,267,0,0,,10,,,57,127
29026,note_off,0,0,0,,4,,,52,127
29026,note_off,0,0,0,,12,,,59,127
29026,note_off,0,0,0,,6,,,54,127
29026,note_off,0,0,0,,12,,,47,127
29026,note_off,0,0,0,,12,,,71,127
29026,note_off,0,0,0,,10,,,69,127
29189,note_off,163,0,0,,6,,,78,127
29192,note_on,3,0,0,,6,,,78,127
29192,note_on,0,0,0,,3,,,75,127
29192,note_on,0,0,0,,3,,,63,127
29302,note_off,110,0,0,,3,,,75,127
29307,note_on,5,0,0,,12,,,71,127
29416,note_off,109,0,0,,3,,,63,127
29416,note_off,0,0,0,,6,,,78,127
29417,note_off,1,0,0,,12,,,71,127
29421,note_on,4,0,0,,8,,,80,127
29421,note_on,0,0,0,,4,,,76,127
29421,note_on,0,0,0,,4,,,64,127
29524,note_off,103,0,0,,4,,,76,127
29535,note_on,11,0,0,,12,,,71,127
29638,note_off,103,0,0,,12,,,71,127
29638,note_off,0,0,0,,8,,,80,127
29649,note_on,11,0,0,,12,,,83,127
29649,note_on,0,0,0,,8,,,80,127
29649,note_on,0,0,0,,8,,,68,127
29672,note_off,23,0,0,,4,,,64,127
29752,note_off,80,0,0,,8,,,80,127
29764,note_on,12,0,0,,12,,,71,127
29840,note_off,76,0,0,,8,,,68,127
29866,note_off,26,0,0,,12,,,83,127
29867,note_off,1,0,0,,12,,,71,127
29878,note_on,11,0,0,,12,,,83,127
29878,note_on,0,0,0,,8,,,80,127
29878,note_on,0,0,0,,4,,,40,127
29981,note_off,103,0,0,,8,,,80,127
29992,note_on,11,0,0,,12,,,71,127
30069,note_off,77,0,0,,4,,,40,127
30095,note_off,26,0,0,,12,,,71,127
30095,note_off,0,0,0,,12,,,83,127
30106,note_on,11,0,0,,10,,,81,127
30106,note_on,0,0,0,,6,,,78,127
30106,note_on,0,0,0,,3,,,63,127
30209,note_off,103,0,0,,6,,,78,127
30221,note_on,12,0,0,,12,,,71,127
30323,note_off,102,0,0,,3,,,63,127
30323,note_off,0,0,0,,10,,,81,127
30324,note_off,1,0,0,,12,,,71,127
30335,note_on,11,0,0,,8,,,80,127
30335,note_on,0,0,0,,4,,,76,127
30335,note_on,0,0,0,,4,,,64,127
30438,note_off,103,0,0,,4,,,76,127
30449,note_on,11,0,0,,12,,,71,127
30552,note_off,103,0,0,,12,,,71,127
30552,note_off,0,0,0,,8,,,80,127
30563,note_on,11,0,0,,12,,,83,127
30563,note_on,0,0,0,,8,,,80,127
30563,note_on,0,0,0,,8,,,68,127
30586,note_off,23,0,0,,4,,,64,127
30666,note_off,80,0,0,,8,,,80,127
30678,note_on,12,0,0,,12,,,71,127
30754,note_off,76,0,0,,8,,,68,127
30780,note_off,26,0,0,,12,,,83,127
30781,note_off,1,0,0,,12,,,71,127
30792,note_on,11,0,0,,12,,,83,127
30792,note_on,0,0,0,,8,,,80,127
30792,note_on,0,0,0,,4,,,40,127
30895,note_off,103,0,0,,8,,,80,127
30906,note_on,11,0,0,,12,,,71,127
30983,note_off,77,0,0,,4,,,40,127
31009,note_off,26,0,0,,12,,,71,127
31009,note_off,0,0,0,,12,,,83,127
31020,note_on,11,0,0,,10,,,81,127
31020,note_on,0,0,0,,6,,,78,127
31020,note_on,0,0,0,,3,,,63,127
31123,note_off,103,0,0,,6,,,78,127
31135,note_on,12,0,0,,12,,,71,127
31237,note_off,102,0,0,,3,,,63,127
31237,note_off,0,0,0,,10,,,81,127
31238,note_off,1,0,0,,12,,,71,127
31249,note_on,11,0,0,,8,,,80,127
31249,note_on,0,0,0,,12,,,71,127
31249,note_on,0,0,0,,4,,,64,127
31352,note_off,103,0,0,,8,,,80,127
31363,note_on,11,0,0,,6,,,78,127
31466,note_off,103,0,0,,6,,,78,127
31477,note_on,11,0,0,,4,,,76,127
31477,note_on,0,0,0,,4,,,52,127
31580,note_off,103,0,0,,4,,,76,127
31581,note_off,1,0,0,,4,,,64,127
31592,note_on,11,0,0,,3,,,75,127
31694,note_off,102,0,0,,4,,,52,127
31695,note_off,1,0,0,,3,,,75,127
31695,note_off,0,0,0,,12,,,71,127
31706,note_on,11,0,0,,4,,,76,127
31809,note_off,103,0,0,,4,,,76,127
31820,note_on,11,0,0,,12,,,71,127
31923,note_off,103,0,0,,12,,,71,127
31934,note_on,11,0,0,,6,,,78,127
31934,note_on,0,0,0,,3,,,75,127
31934,note_on,0,0,0,,3,,,63,127
32037,note_off,103,0,0,,3,,,75,127
32048,note_on,11,0,0,,12,,,71,127
32151,note_off,103,0,0,,12,,,71,127
32151,note_off,0,0,0,,3,,,63,127
32151,note_off,0,0,0,,6,,,78,127
32163,note_on,12,0,0,,8,,,80,127
32163,note_on,0,0,0,,4,,,76,127
32163,note_on,0,0,0,,4,,,64,127
32266,note_off,103,0,0,,4,,,76,127
32277,note_on,11,0,0,,12,,,71,127
32380,note_off,103,0,0,,12,,,71,127
32380,note_off,0,0,0,,8,,,80,127
32391,note_on,11,0,0,,12,,,83,127
32391,note_on,0,0,0,,8,,,80,127
32391,note_on,0,0,0,,8,,,68,127
32461,note_off,70,0,0,,4,,,64,127
32494,note_off,33,0,0,,8,,,80,127
32505,note_on,11,0,0,,12,,,71,127
32582,note_off,77,0,0,,8,,,68,127
32608,note_off,26,0,0,,12,,,71,127
32608,note_off,0,0,0,,12,,,83,127
32620,note_on,12,0,0,,12,,,83,127
32620,note_on,0,0,0,,8,,,80,127
32620,note_on,0,0,0,,4,,,40,127
32723,note_off,103,0,0,,8,,,80,127
32734,note_on,11,0,0,,12,,,71,127
32811,note_off,77,0,0,,4,,,40,127
32837,note_off,26,0,0,,12,,,71,127
32837,note_off,0,0,0,,12,,,83,127
32848,note_on,11,0,0,,10,,,81,127
32848,note_on,0,0,0,,6,,,78,127
32848,note_on,0,0,0,,3,,,63,127
32951,note_off,103,0,0,,6,,,78,127
32962,note_on,11,0,0,,12,,,71,127
33065,note_off,103,0,0,,12,,,71,127
33065,note_off,0,0,0,,3,,,63,127
33065,note_off,0,0,0,,10,,,81,127
33077,note_on,12,0,0,,8,,,80,127
33077,note_on,0,0,0,,4,,,76,127
33077,note_on,0,0,0,,4,,,64,127
33180,note_off,103,0,0,,4,,,76,127
33191,note_on,11,0,0,,12,,,71,127
33294,note_off,103,0,0,,12,,,71,127
33294,note_off,0,0,0,,8,,,80,127
33305,note_on,11,0,0,,12,,,83,127
33305,note_on,0,0,0,,8,,,80,127
33305,note_on,0,0,0,,8,,,68,127
33399,note_off,94,0,0,,4,,,64,127
33408,note_off,9,0,0,,8,,,80,127
33419,note_on,11,0,0,,12,,,71,127
33496,note_off,77,0,0,,8,,,68,127
33522,note_off,26,0,0,,12,,,71,127
33522,note_off,0,0,0,,12,,,83,127
33534,note_on,12,0,0,,12,,,83,127
33534,note_on,0,0,0,,8,,,80,127
33534,note_on,0,0,0,,4,,,40,127
33637,note_off,103,0,0,,8,,,80,127
33648,note_on,11,0,0,,12,,,71,127
33725,note_off,77,0,0,,4,,,40,127
33751,note_off,26,0,0,,12,,,71,127
33751,note_off,0,0,0,,12,,,83,127
33762,note_on,11,0,0,,10,,,81,127
33762,note_on,0,0,0,,6,,,78,127
33762,note_on,0,0,0,,3,,,63,127
33865,note_off,103,0,0,,6,,,78,127
33876,note_on,11,0,0,,12,,,71,127
33979,note_off,103,0,0,,12,,,71,127
33979,note_off,0,0,0,,3,,,63,127
33979,note_off,0,0,0,,10,,,81,127
33991,note_on,12,0,0,,8,,,80,127
33991,note_on,0,0,0,,4,,,64,127
34094,note_off,103,0,0,,8,,,80,127
34105,note_on,11,0,0,,10,,,81,127
34208,note_off,103,0,0,,10,,,81,127
34208,note_off,0,0,0,,4,,,64,127
34219,note_on,11,0,0,,12,,,83,127
34219,note_on,0,0,0,,10,,,57,127
34322,note_off,103,0,0,,12,,,83,127
34333,note_on,11,0,0,,10,,,81,127
34424,note_off,91,0,0,,10,,,57,127
34436,note_off,12,0,0,,10,,,81,127
34448,note_on,12,0,0,,8,,,80,127
34448,note_on,0,0,0,,12,,,59,127
34551,note_off,103,0,0,,8,,,80,127
34562,note_on,11,0,0,,6,,,78,127
34665,note_off,103,0,0,,6,,,78,127
34665,note_off,0,0,0,,12,,,59,127
34676,note_on,11,0,0,,4,,,76,127
34676,note_on,0,0,0,,12,,,47,127
34779,note_off,103,0,0,,4,,,76,127
34790,note_on,11,0,0,,3,,,75,127
34881,note_off,91,0,0,,12,,,47,127
34893,note_off,12,0,0,,3,,,75,127
34904,note_on,11,0,0,,4,,,76,127
34904,note_on,0,0,0,,4,,,52,127
35007,note_off,103,0,0,,4,,,76,127
35019,note_on,12,0,0,,6,,,78,127
35122,note_off,103,0,0,,6,,,78,127
35133,note_on,11,0,0,,8,,,80,127
35236,note_off,103,0,0,,8,,,80,127
35247,note_on,11,0,0,,6,,,78,127
35350,note_off,103,0,0,,6,,,78,127
35350,note_off,0,0,0,,4,,,52,127
35361,note_on,11,0,0,,4,,,76,127
35464,note_off,103,0,0,,4,,,76,127
35476,note_on,12,0,0,,3,,,75,127
35579,note_off,103,0,0,,3,,,75,127
35590,note_on,11,0,0,,1,,,73,127
35590,note_on,0,0,0,,8,,,56,127
35693,note_off,103,0,0,,1,,,73,127
35704,note_on,11,0,0,,12,,,71,127
35807,note_off,103,0,0,,12,,,71,127
35807,note_off,0,0,0,,8,,,56,127
35818,note_on,11,0,0,,1,,,73,127
35818,note_on,0,0,0,,10,,,57,127
35921,note_off,103,0,0,,1,,,73,127
35933,note_on,12,0,0,,4,,,76,127
36036,note_off,103,0,0,,4,,,76,127
36047,note_on,11,0,0,,3,,,75,127
36047,note_on,0,0,0,,10,,,45,127
36069,note_off,22,0,0,,10,,,57,127
36150,note_off,81,0,0,,3,,,75,127
36161,note_on,11,0,0,,1,,,73,127
36252,note_off,91,0,0,,10,,,45,127
36264,note_off,12,0,0,,1,,,73,127
36275,note_on,11,0,0,,12,,,71,127
36275,note_on,0,0,0,,12,,,59,127
36378,note_off,103,0,0,,12,,,71,127
36390,note_on,12,0,0,,10,,,69,127
36493,note_off,103,0,0,,10,,,69,127
36504,note_on,11,0,0,,8,,,68,127
36504,note_on,0,0,0,,12,,,47,127
36526,note_off,22,0,0,,12,,,59,127
36607,note_off,81,0,0,,8,,,68,127
36618,note_on,11,0,0,,6,,,66,127
36709,note_off,91,0,0,,12,,,47,127
36721,note_off,12,0,0,,6,,,66,127
36732,note_on,11,0,0,,4,,,64,127
36732,note_on,0,0,0,,4,,,52,127
36834,note_off,102,0,0,,4,,,52,127
36847,note_on,13,0,0,,12,,,47,127
36949,note_off,102,0,0,,12,,,47,127
36961,note_on,12,0,0,,8,,,56,127
37063,note_off,102,0,0,,8,,,56,127
37075,note_on,12,0,0,,4,,,52,127
37177,note_off,102,0,0,,4,,,52,127
37189,note_on,12,0,0,,12,,,59,127
37291,note_off,102,0,0,,12,,,59,127
37304,note_on,13,0,0,,8,,,56,127
37406,note_off,102,0,0,,8,,,56,127
37413,note_off,7,0,0,,4,,,64,127
37418,note_on,5,0,0,,4,,,64,127
37520,note_off,102,0,0,,4,,,64,127
37532,note_on,12,0,0,,12,,,59,127
37634,note_off,102,0,0,,12,,,59,127
37646,note_on,12,0,0,,8,,,68,127
37875,note_on,229,0,0,,4,,,76,127
38099,note_off,224,0,0,,4,,,76,127
38103,note_on,4,0,0,,12,,,71,127
38213,note_off,110,0,0,,12,,,71,127
38213,note_off,0,0,0,,8,,,68,127
38217,note_on,4,0,0,,6,,,66,127
38217,note_on,0,0,0,,10,,,69,127
38327,note_off,110,0,0,,10,,,69,127
38327,note_off,0,0,0,,6,,,66,127
38332,note_on,5,0,0,,4,,,64,127
38332,note_on,0,0,0,,8,,,68,127
38442,note_off,110,0,0,,8,,,68,127
38442,note_off,0,0,0,,4,,,64,127
38446,note_on,4,0,0,,3,,,63,127
38446,note_on,0,0,0,,6,,,66,127
38556,note_off,110,0,0,,6,,,66,127
38556,note_off,0,0,0,,3,,,63,127
38560,note_on,4,0,0,,4,,,64,127
38560,note_on,0,0,0,,4,,,52,127
38674,note_on,114,0,0,,12,,,47,127
38679,note_off,5,0,0,,4,,,52,127
38769,note_off,90,0,0,,12,,,47,127
38789,note_on,20,0,0,,8,,,56,127
38903,note_on,114,0,0,,4,,,52,127
38908,note_off,5,0,0,,8,,,56,127
38998,note_off,90,0,0,,4,,,52,127
39017,note_on,19,0,0,,12,,,59,127
39131,note_on,114,0,0,,8,,,56,127
39136,note_off,5,0,0,,12,,,59,127
39226,note_off,90,0,0,,8,,,56,127
39241,note_off,15,0,0,,4,,,64,127
39246,note_on,5,0,0,,4,,,64,127
39360,note_on,114,0,0,,12,,,59,127
39455,note_off,95,0,0,,12,,,59,127
39470,note_off,15,0,0,,4,,,64,127
39474,note_on,4,0,0,,8,,,68,127
39703,note_on,229,0,0,,4,,,76,127
39927,note_off,224,0,0,,4,,,76,127
39931,note_on,4,0,0,,12,,,71,127
40041,note_off,110,0,0,,12,,,71,127
40041,note_off,0,0,0,,8,,,68,127
40045,note_on,4,0,0,,6,,,66,127
40045,note_on,0,0,0,,10,,,69,127
40155,note_off,110,0,0,,10,,,69,127
40155,note_off,0,0,0,,6,,,66,127
40160,note_on,5,0,0,,4,,,64,127
40160,note_on,0,0,0,,8,,,68,127
40270,note_off,110,0,0,,8,,,68,127
40270,note_off,0,0,0,,4,,,64,127
40274,note_on,4,0,0,,3,,,63,127
40274,note_on,0,0,0,,6,,,66,127
40384,note_off,110,0,0,,6,,,66,127
40384,note_off,0,0,0,,3,,,63,127
40388,note_on,4,0,0,,4,,,64,127
40388,note_on,0,0,0,,4,,,52,127
40498,note_off,110,0,0,,4,,,52,127
40502,note_on,4,0,0,,12,,,47,127
40612,note_off,110,0,0,,12,,,47,127
40616,note_on,4,0,0,,8,,,56,127
40726,note_off,110,0,0,,8,,,56,127
40731,note_on,5,0,0,,4,,,52,127
40841,note_off,110,0,0,,4,,,52,127
40845,note_on,4,0,0,,12,,,59,127
40955,note_off,110,0,0,,12,,,59,127
40959,note_on,4,0,0,,8,,,56,127
41069,note_off,110,0,0,,8,,,56,127
41069,note_off,0,0,0,,4,,,64,127
41073,note_on,4,0,0,,4,,,64,127
41188,note_on,115,0,0,,12,,,59,127
41298,note_off,110,0,0,,12,,,59,127
41302,note_on,4,0,0,,8,,,68,127
41334,note_off,32,0,0,,4,,,64,127
41530,note_on,196,0,0,,12,,,83,127
41754,note_off,224,0,0,,12,,,83,127
41759,note_on,5,0,0,,12,,,71,127
41869,note_off,110,0,0,,12,,,71,127
41869,note_off,0,0,0,,8,,,68,127
41873,note_on,4,0,0,,6,,,66,127
41873,note_on,0,0,0,,10,,,69,127
41983,note_off,110,0,0,,10,,,69,127
41983,note_off,0,0,0,,6,,,66,127
41987,note_on,4,0,0,,4,,,64,127
41987,note_on,0,0,0,,8,,,68,127
42097,note_off,110,0,0,,8,,,68,127
42097,note_off,0,0,0,,4,,,64,127
42102,note_on,5,0,0,,3,,,63,127
42102,note_on,0,0,0,,6,,,66,127
42212,note_off,110,0,0,,6,,,66,127
42212,note_off,0,0,0,,3,,,63,127
42216,note_on,4,0,0,,8,,,68,127
42216,note_on,0,0,0,,4,,,64,127
42326,note_off,110,0,0,,8,,,68,127
42330,note_on,4,0,0,,12,,,71,127
42440,note_off,110,0,0,,12,,,71,127
42440,note_off,0,0,0,,4,,,64,127
42444,note_on,4,0,0,,1,,,73,127
42444,note_on,0,0,0,,10,,,57,127
42554,note_off,110,0,0,,1,,,73,127
42559,note_on,5,0,0,,10,,,69,127
42660,note_off,101,0,0,,10,,,57,127
42669,note_off,9,0,0,,10,,,69,127
42673,note_on,4,0,0,,8,,,68,127
42673,note_on,0,0,0,,12,,,59,127
42783,note_off,110,0,0,,8,,,68,127
42787,note_on,4,0,0,,6,,,66,127
42897,note_off,110,0,0,,6,,,66,127
42897,note_off,0,0,0,,12,,,59,127
42901,note_on,4,0,0,,4,,,64,127
42901,note_on,0,0,0,,12,,,47,127
43011,note_off,110,0,0,,4,,,64,127
43016,note_on,5,0,0,,3,,,63,127
43117,note_off,101,0,0,,12,,,47,127
43126,note_off,9,0,0,,3,,,63,127
43130,note_on,4,0,0,,4,,,64,127
43130,note_on,0,0,0,,4,,,52,127
43227,note_off,97,0,0,,4,,,64,127
43244,note_on,17,0,0,,12,,,83,127
43354,note_off,110,0,0,,12,,,83,127
43354,note_off,0,0,0,,4,,,52,127
43358,note_on,4,0,0,,1,,,85,127
43358,note_on,0,0,0,,10,,,57,127
43468,note_off,110,0,0,,1,,,85,127
43472,note_on,4,0,0,,10,,,81,127
43574,note_off,102,0,0,,10,,,57,127
43582,note_off,8,0,0,,10,,,81,127
43587,note_on,5,0,0,,8,,,80,127
43587,note_on,0,0,0,,12,,,59,127
43697,note_off,110,0,0,,8,,,80,127
43701,note_on,4,0,0,,6,,,78,127
43811,note_off,110,0,0,,6,,,78,127
43811,note_off,0,0,0,,12,,,59,127
43815,note_on,4,0,0,,4,,,76,127
43815,note_on,0,0,0,,12,,,47,127
43925,note_off,110,0,0,,4,,,76,127
43929,note_on,4,0,0,,3,,,75,127
44031,note_off,102,0,0,,12,,,47,127
44039,note_off,8,0,0,,3,,,75,127
44044,note_on,5,0,0,,4,,,76,127
44044,note_on,0,0,0,,4,,,52,127
44154,note_off,110,0,0,,4,,,76,127
44158,note_on,4,0,0,,12,,,71,127
44268,note_off,110,0,0,,12,,,71,127
44268,note_off,0,0,0,,4,,,52,127
44272,note_on,4,0,0,,1,,,73,127
44272,note_on,0,0,0,,10,,,57,127
44382,note_off,110,0,0,,1,,,73,127
44386,note_on,4,0,0,,10,,,69,127
44488,note_off,102,0,0,,10,,,57,127
44496,note_off,8,0,0,,10,,,69,127
44501,note_on,5,0,0,,8,,,68,127
44501,note_on,0,0,0,,12,,,59,127
44611,note_off,110,0,0,,8,,,68,127
44615,note_on,4,0,0,,6,,,66,127
44725,note_off,110,0,0,,6,,,66,127
44725,note_off,0,0,0,,12,,,59,127
44729,note_on,4,0,0,,4,,,64,127
44729,note_on,0,0,0,,12,,,47,127
44839,note_off,110,0,0,,4,,,64,127
44843,note_on,4,0,0,,3,,,63,127
44945,note_off,102,0,0,,12,,,47,127
44953,note_off,8,0,0,,3,,,63,127
44958,note_on,5,0,0,,4,,,64,127
44958,note_on,0,0,0,,4,,,52,127
45068,note_off,110,0,0,,4,,,64,127
45072,note_on,4,0,0,,12,,,59,127
45172,note_off,100,0,0,,4,,,52,127
45182,note_off,10,0,0,,12,,,59,127
45186,note_on,4,0,0,,1,,,61,127
45186,note_on,0,0,0,,10,,,45,127
45296,note_off,110,0,0,,1,,,61,127
45300,note_on,4,0,0,,10,,,57,127
45400,note_off,100,0,0,,10,,,45,127
45410,note_off,10,0,0,,10,,,57,127
45415,note_on,5,0,0,,8,,,56,127
45415,note_on,0,0,0,,12,,,47,127
45525,note_off,110,0,0,,8,,,56,127
45529,note_on,4,0,0,,6,,,54,127
45629,note_off,100,0,0,,12,,,47,127
45639,note_off,10,0,0,,6,,,54,127
45643,note_on,4,0,0,,4,,,52,127
45643,note_on,0,0,0,,12,,,47,127
45753,note_off,110,0,0,,4,,,52,127
45757,note_on,4,0,0,,3,,,51,127
45857,note_off,100,0,0,,12,,,47,127
45867,note_off,10,0,0,,3,,,51,127
45872,note_on,5,0,0,,3,,,51,127
45872,note_on,0,0,0,,4,,,40,127
46096,note_off,224,0,0,,3,,,51,127
46116,note_on,20,0,0,,4,,,52,127
46325,note_off,209,0,0,,4,,,40,127
46451,note_off,126,0,0,,4,,,52,127
46653,note_on,202,0,0,,12,,,83,127
46849,note_off,196,0,0,,12,,,83,127
46881,note_on,32,0,0,,7,,,79,127
47110,note_on,229,0,0,,4,,,76,127
47127,note_off,17,0,0,,7,,,79,127
47312,note_off,185,0,0,,4,,,76,127
47338,note_on,26,0,0,,1,,,73,127
47338,note_on,0,0,0,,2,,,74,127
47566,note_off,228,0,0,,2,,,74,127
47566,note_off,0,0,0,,1,,,73,127
47567,note_on,1,0,0,,7,,,79,127
47567,note_on,0,0,0,,12,,,71,127
47791,note_off,224,0,0,,7,,,79,127
47795,note_off,4,0,0,,12,,,71,127
47795,note_on,0,0,0,,6,,,78,127
47795,note_on,0,0,0,,4,,,76,127
47795,note_on,0,0,0,,11,,,70,127
48024,note_on,229,0,0,,1,,,61,127
48024,note_on,0,0,0,,4,,,64,127
48024,note_on,0,0,0,,12,,,71,127
48024,note_on,0,0,0,,12,,,59,127
48024,note_on,0,0,0,,7,,,55,127
48041,note_off,17,0,0,,11,,,70,127
48248,note_off,207,0,0,,7,,,55,127
48248,note_off,0,0,0,,12,,,59,127
48248,note_off,0,0,0,,12,,,71,127
48248,note_off,0,0,0,,4,,,64,127
48248,note_off,0,0,0,,1,,,61,127
48248,note_off,0,0,0,,4,,,76,127
48248,note_off,0,0,0,,6,,,78,127
48252,note_on,4,0,0,,6,,,78,127
48252,note_on,0,0,0,,1,,,61,127
48252,note_on,0,0,0,,4,,,64,127
48252,note_on,0,0,0,,1,,,73,127
48252,note_on,0,0,0,,12,,,59,127
48252,note_on,0,0,0,,6,,,54,127
48309,note_on,57,0,0,,4,,,76,127
48328,note_off,19,0,0,,6,,,78,127
48367,note_on,39,0,0,,6,,,78,127
48385,note_off,18,0,0,,4,,,76,127
48424,note_on,39,0,0,,4,,,76,127
48443,note_off,19,0,0,,6,,,78,127
48476,note_off,33,0,0,,6,,,54,127
48476,note_off,0,0,0,,12,,,59,127
48476,note_off,0,0,0,,1,,,73,127
48476,note_off,0,0,0,,4,,,64,127
48476,note_off,0,0,0,,1,,,61,127
48481,note_on,5,0,0,,6,,,78,127
48481,note_on,0,0,0,,1,,,61,127
48481,note_on,0,0,0,,4,,,64,127
48481,note_on,0,0,0,,12,,,71,127
48481,note_on,0,0,0,,12,,,59,127
48481,note_on,0,0,0,,7,,,55,127
48500,note_off,19,0,0,,4,,,76,127
48538,note_on,38,0,0,,4,,,76,127
48557,note_off,19,0,0,,6,,,78,127
48595,note_on,38,0,0,,6,,,78,127
48614,note_off,19,0,0,,4,,,76,127
48652,note_on,38,0,0,,4,,,76,127
48671,note_off,19,0,0,,6,,,78,127
48705,note_off,34,0,0,,7,,,55,127
48705,note_off,0,0,0,,12,,,59,127
48705,note_off,0,0,0,,12,,,71,127
48705,note_off,0,0,0,,4,,,64,127
48705,note_off,0,0,0,,1,,,61,127
48709,note_on,4,0,0,,6,,,78,127
48709,note_on,0,0,0,,1,,,73,127
48709,note_on,0,0,0,,1,,,61,127
48709,note_on,0,0,0,,4,,,64,127
48709,note_on,0,0,0,,11,,,70,127
48709,note_on,0,0,0,,12,,,59,127
48709,note_on,0,0,0,,6,,,54,127
48728,note_off,19,0,0,,4,,,76,127
48754,note_off,26,0,0,,1,,,73,127
48766,note_on,12,0,0,,4,,,76,127
48766,note_on,0,0,0,,2,,,74,127
48785,note_off,19,0,0,,6,,,78,127
48811,note_off,26,0,0,,2,,,74,127
48824,note_on,13,0,0,,6,,,78,127
48824,note_on,0,0,0,,1,,,73,127
48842,note_off,18,0,0,,4,,,76,127
48869,note_off,27,0,0,,1,,,73,127
48881,note_on,12,0,0,,4,,,76,127
48881,note_on,0,0,0,,2,,,74,127
48900,note_off,19,0,0,,6,,,78,127
48926,note_off,26,0,0,,2,,,74,127
48933,note_off,7,0,0,,6,,,54,127
48933,note_off,0,0,0,,12,,,59,127
48933,note_off,0,0,0,,11,,,70,127
48933,note_off,0,0,0,,4,,,64,127
48933,note_off,0,0,0,,1,,,61,127
48938,note_on,5,0,0,,6,,,78,127
48938,note_on,0,0,0,,1,,,73,127
48938,note_on,0,0,0,,1,,,61,127
48938,note_on,0,0,0,,4,,,64,127
48938,note_on,0,0,0,,12,,,71,127
48938,note_on,0,0,0,,12,,,59,127
48938,note_on,0,0,0,,7,,,55,127
48957,note_off,19,0,0,,4,,,76,127
48983,note_off,26,0,0,,1,,,73,127
48995,note_on,12,0,0,,4,,,76,127
48995,note_on,0,0,0,,2,,,74,127
49014,note_off,19,0,0,,6,,,78,127
49040,note_off,26,0,0,,2,,,74,127
49052,note_on,12,0,0,,6,,,78,127
49052,note_on,0,0,0,,1,,,73,127
49071,note_off,19,0,0,,4,,,76,127
49097,note_off,26,0,0,,1,,,73,127
49109,note_on,12,0,0,,4,,,76,127
49128,note_off,19,0,0,,6,,,78,127
49162,note_off,34,0,0,,7,,,55,127
49162,note_off,0,0,0,,12,,,59,127
49162,note_off,0,0,0,,12,,,71,127
49162,note_off,0,0,0,,4,,,64,127
49162,note_off,0,0,0,,1,,,61,127
49166,note_on,4,0,0,,6,,,78,127
49166,note_on,0,0,0,,1,,,61,127
49166,note_on,0,0,0,,4,,,64,127
49166,note_on,0,0,0,,12,,,59,127
49166,note_on,0,0,0,,6,,,54,127
49185,note_off,19,0,0,,4,,,76,127
49223,note_on,38,0,0,,4,,,76,127
49242,note_off,19,0,0,,6,,,78,127
49280,note_on,38,0,0,,6,,,78,127
49299,note_off,19,0,0,,4,,,76,127
49338,note_on,39,0,0,,4,,,76,127
49356,note_off,18,0,0,,6,,,78,127
49390,note_off,34,0,0,,6,,,54,127
49390,note_off,0,0,0,,12,,,59,127
49390,note_off,0,0,0,,4,,,64,127
49390,note_off,0,0,0,,1,,,61,127
49395,note_on,5,0,0,,6,,,78,127
49395,note_on,0,0,0,,1,,,61,127
49395,note_on,0,0,0,,4,,,64,127
49395,note_on,0,0,0,,12,,,71,127
49395,note_on,0,0,0,,12,,,59,127
49395,note_on,0,0,0,,7,,,55,127
49414,note_off,19,0,0,,4,,,76,127
49452,note_on,38,0,0,,4,,,76,127
49471,note_off,19,0,0,,6,,,78,127
49509,note_on,38,0,0,,6,,,78,127
49528,note_off,19,0,0,,4,,,76,127
49566,note_on,38,0,0,,4,,,76,127
49585,note_off,19,0,0,,6,,,78,127
49619,note_off,34,0,0,,7,,,55,127
49619,note_off,0,0,0,,12,,,59,127
49619,note_off,0,0,0,,12,,,71,127
49619,note_off,0,0,0,,4,,,64,127
49619,note_off,0,0,0,,1,,,61,127
49623,note_on,4,0,0,,6,,,78,127
49623,note_on,0,0,0,,1,,,73,127
49623,note_on,0,0,0,,11,,,70,127
49623,note_on,0,0,0,,4,,,64,127
49623,note_on,0,0,0,,1,,,61,127
49623,note_on,0,0,0,,12,,,59,127
49623,note_on,0,0,0,,6,,,54,127
49642,note_off,19,0,0,,4,,,76,127
49668,note_off,26,0,0,,1,,,73,127
49680,note_on,12,0,0,,4,,,76,127
49680,note_on,0,0,0,,2,,,74,127
49699,note_off,19,0,0,,6,,,78,127
49725,note_off,26,0,0,,2,,,74,127
49737,note_on,12,0,0,,6,,,78,127
49737,note_on,0,0,0,,1,,,73,127
49756,note_off,19,0,0,,4,,,76,127
49782,note_off,26,0,0,,1,,,73,127
49795,note_on,13,0,0,,4,,,76,127
49795,note_on,0,0,0,,2,,,74,127
49813,note_off,18,0,0,,6,,,78,127
49840,note_off,27,0,0,,2,,,74,127
49847,note_off,7,0,0,,6,,,54,127
49847,note_off,0,0,0,,12,,,59,127
49847,note_off,0,0,0,,1,,,61,127
49847,note_off,0,0,0,,4,,,64,127
49847,note_off,0,0,0,,11,,,70,127
49852,note_on,5,0,0,,6,,,78,127
49852,note_on,0,0,0,,1,,,73,127
49852,note_on,0,0,0,,12,,,71,127
49852,note_on,0,0,0,,4,,,64,127
49852,note_on,0,0,0,,1,,,61,127
49852,note_on,0,0,0,,12,,,59,127
49852,note_on,0,0,0,,7,,,55,127
49871,note_off,19,0,0,,4,,,76,127
49897,note_off,26,0,0,,1,,,73,127
49909,note_on,12,0,0,,4,,,76,127
49909,note_on,0,0,0,,2,,,74,127
49928,note_off,19,0,0,,6,,,78,127
49954,note_off,26,0,0,,2,,,74,127
49966,note_on,12,0,0,,6,,,78,127
49966,note_on,0,0,0,,1,,,73,127
49985,note_off,19,0,0,,4,,,76,127
50011,note_off,26,0,0,,1,,,73,127
50023,note_on,12,0,0,,4,,,76,127
50042,note_off,19,0,0,,6,,,78,127
50076,note_off,34,0,0,,7,,,55,127
50076,note_off,0,0,0,,12,,,59,127
50076,note_off,0,0,0,,1,,,61,127
50076,note_off,0,0,0,,4,,,64,127
50076,note_off,0,0,0,,12,,,71,127
50080,note_on,4,0,0,,6,,,78,127
50080,note_on,0,0,0,,11,,,70,127
50080,note_on,0,0,0,,4,,,64,127
50080,note_on,0,0,0,,1,,,61,127
50080,note_on,0,0,0,,12,,,59,127
50080,note_on,0,0,0,,6,,,54,127
50099,note_off,19,0,0,,4,,,76,127
50137,note_on,38,0,0,,4,,,76,127
50156,note_off,19,0,0,,6,,,78,127
50194,note_on,38,0,0,,6,,,78,127
50213,note_off,19,0,0,,4,,,76,127
50252,note_on,39,0,0,,4,,,76,127
50270,note_off,18,0,0,,6,,,78,127
50304,note_off,34,0,0,,6,,,54,127
50304,note_off,0,0,0,,12,,,59,127
50304,note_off,0,0,0,,1,,,61,127
50304,note_off,0,0,0,,4,,,64,127
50304,note_off,0,0,0,,11,,,70,127
50309,note_on,5,0,0,,6,,,78,127
50309,note_on,0,0,0,,12,,,71,127
50309,note_on,0,0,0,,4,,,64,127
50309,note_on,0,0,0,,1,,,61,127
50309,note_on,0,0,0,,12,,,59,127
50309,note_on,0,0,0,,7,,,55,127
50328,note_off,19,0,0,,4,,,76,127
50366,note_on,38,0,0,,4,,,76,127
50385,note_off,19,0,0,,6,,,78,127
50423,note_on,38,0,0,,6,,,78,127
50442,note_off,19,0,0,,4,,,76,127
50514,note_off,72,0,0,,6,,,78,127
50533,note_off,19,0,0,,7,,,55,127
50533,note_off,0,0,0,,12,,,59,127
50533,note_off,0,0,0,,1,,,61,127
50533,note_off,0,0,0,,4,,,64,127
50533,note_off,0,0,0,,12,,,71,127
50537,note_on,4,0,0,,4,,,76,127
50537,note_on,0,0,0,,12,,,71,127
50537,note_on,0,0,0,,4,,,64,127
50537,note_on,0,0,0,,1,,,61,127
50537,note_on,0,0,0,,12,,,59,127
50537,note_on,0,0,0,,6,,,54,127
50647,note_off,110,0,0,,12,,,71,127
50651,note_on,4,0,0,,1,,,73,127
50761,note_off,110,0,0,,1,,,73,127
50766,note_on,5,0,0,,1,,,73,127
50766,note_on,0,0,0,,11,,,70,127
50990,note_off,224,0,0,,4,,,76,127
51095,note_off,105,0,0,,11,,,70,127
51095,note_off,0,0,0,,1,,,73,127
51104,note_off,9,0,0,,6,,,54,127
51104,note_off,0,0,0,,12,,,59,127
51104,note_off,0,0,0,,1,,,61,127
51104,note_off,0,0,0,,4,,,64,127
51218,note_on,114,0,0,,7,,,79,127
51365,note_off,147,0,0,,7,,,79,127
51467,note_on,102,0,0,,5,,,77,127
51696,note_on,229,0,0,,6,,,78,127
51705,note_off,9,0,0,,5,,,77,127
51886,note_off,181,0,0,,6,,,78,127
51924,note_on,38,0,0,,4,,,76,127
52152,note_on,228,0,0,,2,,,74,127
52162,note_off,10,0,0,,4,,,76,127
52342,note_off,180,0,0,,2,,,74,127
52381,note_on,39,0,0,,0,,,72,127
52381,note_on,0,0,0,,4,,,76,127
52605,note_off,224,0,0,,0,,,72,127
52609,note_on,4,0,0,,12,,,71,127
52833,note_off,224,0,0,,12,,,71,127
52838,note_on,5,0,0,,11,,,70,127
53042,note_off,204,0,0,,4,,,76,127
53062,note_off,20,0,0,,11,,,70,127
53066,note_on,4,0,0,,7,,,67,127
53066,note_on,0,0,0,,4,,,76,127
53290,note_off,224,0,0,,4,,,76,127
53290,note_off,0,0,0,,7,,,67,127
53295,note_on,5,0,0,,6,,,54,127
53295,note_on,0,0,0,,2,,,74,127
53295,note_on,0,0,0,,6,,,66,127
53519,note_off,224,0,0,,6,,,66,127
53519,note_off,0,0,0,,2,,,74,127
53523,note_on,4,0,0,,1,,,73,127
53523,note_on,0,0,0,,4,,,64,127
53739,note_off,216,0,0,,4,,,64,127
53739,note_off,0,0,0,,1,,,73,127
53752,note_on,13,0,0,,6,,,42,127
53752,note_on,0,0,0,,12,,,71,127
53752,note_on,0,0,0,,2,,,62,127
53976,note_off,224,0,0,,2,,,62,127
53976,note_off,0,0,0,,12,,,71,127
53980,note_on,4,0,0,,11,,,70,127
53980,note_on,0,0,0,,1,,,61,127
54196,note_off,216,0,0,,1,,,61,127
54196,note_off,0,0,0,,11,,,70,127
54205,note_off,9,0,0,,6,,,42,127
54205,note_off,0,0,0,,6,,,54,127
54209,note_on,4,0,0,,12,,,47,127
54209,note_on,0,0,0,,12,,,71,127
54209,note_on,0,0,0,,2,,,62,127
54513,note_on,304,0,0,,2,,,50,127
54590,note_on,77,0,0,,6,,,54,127
54608,note_off,18,0,0,,2,,,50,127
54662,note_off,54,0,0,,2,,,62,127
54662,note_off,0,0,0,,12,,,71,127
54666,note_on,4,0,0,,12,,,59,127
54685,note_off,19,0,0,,6,,,54,127
54742,note_on,57,0,0,,2,,,62,127
54818,note_on,76,0,0,,6,,,66,127
54837,note_off,19,0,0,,2,,,62,127
54894,note_on,57,0,0,,12,,,71,127
54913,note_off,19,0,0,,6,,,66,127
54970,note_on,57,0,0,,2,,,74,127
54989,note_off,19,0,0,,12,,,71,127
55033,note_off,44,0,0,,12,,,59,127
55047,note_on,14,0,0,,6,,,78,127
55065,note_off,18,0,0,,2,,,74,127
55119,note_off,54,0,0,,12,,,47,127
55123,note_on,4,0,0,,12,,,59,127
55123,note_on,0,0,0,,12,,,83,127
55123,note_on,0,0,0,,2,,,74,127
55142,note_off,19,0,0,,6,,,78,127
55347,note_off,205,0,0,,2,,,74,127
55347,note_off,0,0,0,,12,,,83,127
55347,note_off,0,0,0,,12,,,59,127
55351,note_on,4,0,0,,0,,,60,127
55351,note_on,0,0,0,,0,,,72,127
55351,note_on,0,0,0,,10,,,81,127
55567,note_off,216,0,0,,10,,,81,127
55567,note_off,0,0,0,,0,,,72,127
55575,note_off,8,0,0,,0,,,60,127
55580,note_on,5,0,0,,2,,,62,127
55580,note_on,0,0,0,,7,,,79,127
55580,note_on,0,0,0,,12,,,71,127
55580,note_on,0,0,0,,10,,,81,127
55804,note_off,224,0,0,,10,,,81,127
55804,note_off,0,0,0,,12,,,71,127
55804,note_off,0,0,0,,7,,,79,127
55804,note_off,0,0,0,,2,,,62,127
55808,note_on,4,0,0,,2,,,50,127
55808,note_on,0,0,0,,6,,,78,127
55808,note_on,0,0,0,,10,,,69,127
56018,note_off,210,0,0,,10,,,69,127
56018,note_off,0,0,0,,6,,,78,127
56032,note_off,14,0,0,,2,,,50,127
56037,note_on,5,0,0,,7,,,55,127
56037,note_on,0,0,0,,7,,,79,127
56037,note_on,0,0,0,,12,,,71,127
56261,note_off,224,0,0,,12,,,71,127
56261,note_off,0,0,0,,7,,,79,127
56261,note_off,0,0,0,,7,,,55,127
56265,note_on,4,0,0,,10,,,57,127
56265,note_on,0,0,0,,6,,,78,127
56265,note_on,0,0,0,,10,,,69,127
56481,note_off,216,0,0,,10,,,69,127
56481,note_off,0,0,0,,6,,,78,127
56489,note_off,8,0,0,,10,,,57,127
56494,note_on,5,0,0,,12,,,59,127
56494,note_on,0,0,0,,7,,,67,127
56494,note_on,0,0,0,,6,,,78,127
56494,note_on,0,0,0,,4,,,76,127
56718,note_off,224,0,0,,4,,,76,127
56718,note_off,0,0,0,,6,,,78,127
56718,note_off,0,0,0,,7,,,67,127
56722,note_on,4,0,0,,12,,,47,127
56722,note_on,0,0,0,,3,,,75,127
56722,note_on,0,0,0,,6,,,66,127
56780,note_off,58,0,0,,12,,,59,127
56932,note_off,152,0,0,,6,,,66,127
56932,note_off,0,0,0,,3,,,75,127
56946,note_off,14,0,0,,12,,,47,127
56951,note_on,5,0,0,,0,,,48,127
56951,note_on,0,0,0,,4,,,76,127
56951,note_on,0,0,0,,0,,,72,127
57175,note_off,224,0,0,,0,,,72,127
57175,note_off,0,0,0,,4,,,76,127
57175,note_off,0,0,0,,0,,,48,127
57179,note_on,4,0,0,,2,,,50,127
57179,note_on,0,0,0,,12,,,71,127
57179,note_on,0,0,0,,2,,,74,127
57403,note_off,224,0,0,,2,,,74,127
57403,note_off,0,0,0,,12,,,71,127
57403,note_off,0,0,0,,2,,,50,127
57408,note_on,5,0,0,,4,,,52,127
57408,note_on,0,0,0,,10,,,69,127
57408,note_on,0,0,0,,0,,,72,127
57632,note_off,224,0,0,,0,,,72,127
57632,note_off,0,0,0,,10,,,69,127
57636,note_on,4,0,0,,4,,,40,127
57636,note_on,0,0,0,,12,,,71,127
57636,note_on,0,0,0,,8,,,68,127
57693,note_off,57,0,0,,4,,,52,127
57852,note_off,159,0,0,,8,,,68,127
57852,note_off,0,0,0,,12,,,71,127
57860,note_off,8,0,0,,4,,,40,127
57864,note_on,4,0,0,,10,,,45,127
57864,note_on,0,0,0,,10,,,57,127
57864,note_on,0,0,0,,10,,,69,127
57864,note_on,0,0,0,,0,,,72,127
58088,note_off,224,0,0,,0,,,72,127
58088,note_off,0,0,0,,10,,,69,127
58088,note_off,0,0,0,,10,,,45,127
58093,note_on,5,0,0,,12,,,47,127
58093,note_on,0,0,0,,7,,,67,127
58093,note_on,0,0,0,,12,,,71,127
58317,note_off,224,0,0,,12,,,71,127
58317,note_off,0,0,0,,7,,,67,127
58317,note_off,0,0,0,,12,,,47,127
58321,note_on,4,0,0,,0,,,48,127
58321,note_on,0,0,0,,10,,,69,127
58321,note_on,0,0,0,,6,,,66,127
58321,note_on,0,0,0,,12,,,71,127
58545,note_off,224,0,0,,12,,,71,127
58545,note_off,0,0,0,,6,,,66,127
58545,note_off,0,0,0,,10,,,69,127
58550,note_on,5,0,0,,7,,,67,127
58550,note_on,0,0,0,,4,,,64,127
58774,note_off,224,0,0,,4,,,64,127
58774,note_off,0,0,0,,7,,,67,127
58774,note_off,0,0,0,,0,,,48,127
58774,note_off,0,0,0,,10,,,57,127
58778,note_on,4,0,0,,12,,,47,127
58778,note_on,0,0,0,,4,,,52,127
58778,note_on,0,0,0,,6,,,54,127
58778,note_on,0,0,0,,10,,,57,127
58778,note_on,0,0,0,,7,,,67,127
58778,note_on,0,0,0,,4,,,64,127
59002,note_off,224,0,0,,4,,,64,127
59002,note_off,0,0,0,,7,,,67,127
59002,note_off,0,0,0,,10,,,57,127
59002,note_off,0,0,0,,6,,,54,127
59002,note_off,0,0,0,,4,,,52,127
59002,note_off,0,0,0,,12,,,47,127
59007,note_on,5,0,0,,12,,,47,127
59007,note_on,0,0,0,,4,,,52,127
59007,note_on,0,0,0,,6,,,54,127
59007,note_on,0,0,0,,10,,,57,127
59007,note_on,0,0,0,,6,,,66,127
59007,note_on,0,0,0,,3,,,63,127
59231,note_off,224,0,0,,3,,,63,127
59231,note_off,0,0,0,,6,,,66,127
59231,note_off,0,0,0,,10,,,57,127
59231,note_off,0,0,0,,6,,,54,127
59231,note_off,0,0,0,,4,,,52,127
59231,note_off,0,0,0,,12,,,47,127
59235,note_on,4,0,0,,12,,,47,127
59235,note_on,0,0,0,,4,,,52,127
59235,note_on,0,0,0,,6,,,54,127
59235,note_on,0,0,0,,10,,,57,127
59459,note_off,224,0,0,,10,,,57,127
59459,note_off,0,0,0,,6,,,54,127
59459,note_off,0,0,0,,4,,,52,127
59459,note_off,0,0,0,,12,,,47,127
59464,note_on,5,0,0,,4,,,64,127
59464,note_on,0,0,0,,6,,,66,127
59464,note_on,0,0,0,,3,,,63,127
59464,note_on,0,0,0,,12,,,59,127
59464,note_on,0,0,0,,10,,,57,127
59464,note_on,0,0,0,,6,,,54,127
59464,note_on,0,0,0,,4,,,52,127
59464,note_on,0,0,0,,12,,,47,127
59688,note_off,224,0,0,,12,,,47,127
59688,note_off,0,0,0,,4,,,52,127
59688,note_off,0,0,0,,6,,,54,127
59688,note_off,0,0,0,,10,,,57,127
59688,note_off,0,0,0,,12,,,59,127
59688,note_off,0,0,0,,3,,,63,127
59688,note_off,0,0,0,,6,,,66,127
59688,note_off,0,0,0,,4,,,64,127
59692,note_on,4,0,0,,6,,,66,127
59692,note_on,0,0,0,,3,,,63,127
59692,note_on,0,0,0,,4,,,64,127
59692,note_on,0,0,0,,12,,,59,127
59692,note_on,0,0,0,,10,,,57,127
59692,note_on,0,0,0,,6,,,54,127
59692,note_on,0,0,0,,4,,,52,127
59692,note_on,0,0,0,,0,,,48,127
59802,note_off,110,0,0,,6,,,66,127
59807,note_on,5,0,0,,7,,,67,127
59916,note_off,109,0,0,,0,,,48,127
59916,note_off,0,0,0,,4,,,52,127
59916,note_off,0,0,0,,6,,,54,127
59916,note_off,0,0,0,,10,,,57,127
59916,note_off,0,0,0,,12,,,59,127
59916,note_off,0,0,0,,4,,,64,127
59916,note_off,0,0,0,,3,,,63,127
59917,note_off,1,0,0,,7,,,67,127
59921,note_on,4,0,0,,10,,,69,127
59921,note_on,0,0,0,,4,,,64,127
59921,note_on,0,0,0,,0,,,60,127
59921,note_on,0,0,0,,10,,,57,127
59921,note_on,0,0,0,,6,,,54,127
59921,note_on,0,0,0,,4,,,52,127
59921,note_on,0,0,0,,0,,,48,127
60145,note_off,224,0,0,,0,,,48,127
60145,note_off,0,0,0,,4,,,52,127
60145,note_off,0,0,0,,6,,,54,127
60145,note_off,0,0,0,,10,,,57,127
60149,note_on,4,0,0,,10,,,57,127
60149,note_on,0,0,0,,6,,,54,127
60149,note_on,0,0,0,,4,,,52,127
60149,note_on,0,0,0,,0,,,48,127
60260,note_off,111,0,0,,10,,,69,127
60264,note_on,4,0,0,,7,,,67,127
60373,note_off,109,0,0,,0,,,48,127
60373,note_off,0,0,0,,4,,,52,127
60373,note_off,0,0,0,,6,,,54,127
60373,note_off,0,0,0,,10,,,57,127
60374,note_off,1,0,0,,7,,,67,127
60378,note_on,4,0,0,,6,,,66,127
60378,note_on,0,0,0,,10,,,57,127
60378,note_on,0,0,0,,6,,,54,127
60378,note_on,0,0,0,,4,,,52,127
60378,note_on,0,0,0,,0,,,48,127
60488,note_off,110,0,0,,6,,,66,127
60492,note_on,4,0,0,,4,,,64,127
60602,note_off,110,0,0,,4,,,64,127
60602,note_off,0,0,0,,0,,,48,127
60602,note_off,0,0,0,,4,,,52,127
60602,note_off,0,0,0,,6,,,54,127
60602,note_off,0,0,0,,10,,,57,127
60602,note_off,0,0,0,,0,,,60,127
60602,note_off,0,0,0,,4,,,64,127
60606,note_on,4,0,0,,6,,,66,127
60606,note_on,0,0,0,,12,,,59,127
60606,note_on,0,0,0,,10,,,57,127
60606,note_on,0,0,0,,6,,,54,127
60606,note_on,0,0,0,,4,,,52,127
60606,note_on,0,0,0,,12,,,47,127
60654,note_on,48,0,0,,4,,,64,127
60682,note_off,28,0,0,,6,,,66,127
60701,note_on,19,0,0,,6,,,66,127
60730,note_off,29,0,0,,4,,,64,127
60749,note_on,19,0,0,,4,,,64,127
60777,note_off,28,0,0,,6,,,66,127
60830,note_off,53,0,0,,12,,,47,127
60830,note_off,0,0,0,,4,,,52,127
60830,note_off,0,0,0,,6,,,54,127
60830,note_off,0,0,0,,10,,,57,127
60835,note_on,5,0,0,,6,,,66,127
60835,note_on,0,0,0,,10,,,57,127
60835,note_on,0,0,0,,6,,,54,127
60835,note_on,0,0,0,,4,,,52,127
60835,note_on,0,0,0,,12,,,47,127
60846,note_off,11,0,0,,4,,,64,127
61059,note_off,213,0,0,,12,,,47,127
61059,note_off,0,0,0,,4,,,52,127
61059,note_off,0,0,0,,6,,,54,127
61059,note_off,0,0,0,,10,,,57,127
61059,note_off,0,0,0,,12,,,59,127
61063,note_on,4,0,0,,10,,,57,127
61063,note_on,0,0,0,,6,,,54,127
61063,note_on,0,0,0,,4,,,52,127
61063,note_on,0,0,0,,12,,,47,127
61287,note_off,224,0,0,,12,,,47,127
61287,note_off,0,0,0,,4,,,52,127
61287,note_off,0,0,0,,6,,,54,127
61287,note_off,0,0,0,,10,,,57,127
61288,note_off,1,0,0,,6,,,66,127
61292,note_on,4,0,0,,4,,,64,127
61292,note_on,0,0,0,,6,,,66,127
61292,note_on,0,0,0,,3,,,63,127
61292,note_on,0,0,0,,12,,,59,127
61292,note_on,0,0,0,,10,,,57,127
61292,note_on,0,0,0,,6,,,54,127
61292,note_on,0,0,0,,4,,,52,127
61292,note_on,0,0,0,,12,,,47,127
61516,note_off,224,0,0,,12,,,47,127
61516,note_off,0,0,0,,4,,,52,127
61516,note_off,0,0,0,,6,,,54,127
61516,note_off,0,0,0,,10,,,57,127
61516,note_off,0,0,0,,12,,,59,127
61516,note_off,0,0,0,,3,,,63,127
61516,note_off,0,0,0,,6,,,66,127
61516,note_off,0,0,0,,4,,,64,127
61520,note_on,4,0,0,,6,,,66,127
61520,note_on,0,0,0,,3,,,63,127
61520,note_on,0,0,0,,4,,,64,127
61520,note_on,0,0,0,,12,,,59,127
61520,note_on,0,0,0,,10,,,57,127
61520,note_on,0,0,0,,6,,,54,127
61520,note_on,0,0,0,,4,,,52,127
61520,note_on,0,0,0,,0,,,48,127
61630,note_off,110,0,0,,6,,,66,127
61634,note_on,4,0,0,,7,,,67,127
61744,note_off,110,0,0,,7,,,67,127
61744,note_off,0,0,0,,0,,,48,127
61744,note_off,0,0,0,,4,,,52,127
61744,note_off,0,0,0,,6,,,54,127
61744,note_off,0,0,0,,10,,,57,127
61744,note_off,0,0,0,,12,,,59,127
61744,note_off,0,0,0,,4,,,64,127
61744,note_off,0,0,0,,3,,,63,127
61749,note_on,5,0,0,,10,,,69,127
61749,note_on,0,0,0,,4,,,64,127
61749,note_on,0,0,0,,0,,,60,127
61749,note_on,0,0,0,,10,,,57,127
61749,note_on,0,0,0,,6,,,54,127
61749,note_on,0,0,0,,4,,,52,127
61749,note_on,0,0,0,,0,,,48,127
61973,note_off,224,0,0,,0,,,48,127
61973,note_off,0,0,0,,4,,,52,127
61973,note_off,0,0,0,,6,,,54,127
61973,note_off,0,0,0,,10,,,57,127
61977,note_on,4,0,0,,10,,,57,127
61977,note_on,0,0,0,,6,,,54,127
61977,note_on,0,0,0,,4,,,52,127
61977,note_on,0,0,0,,0,,,48,127
62088,note_off,111,0,0,,10,,,69,127
62091,note_on,3,0,0,,7,,,67,127
62201,note_off,110,0,0,,7,,,67,127
62201,note_off,0,0,0,,0,,,48,127
62201,note_off,0,0,0,,4,,,52,127
62201,note_off,0,0,0,,6,,,54,127
62201,note_off,0,0,0,,10,,,57,127
62206,note_on,5,0,0,,6,,,66,127
62206,note_on,0,0,0,,10,,,57,127
62206,note_on,0,0,0,,6,,,54,127
62206,note_on,0,0,0,,4,,,52,127
62206,note_on,0,0,0,,0,,,48,127
62316,note_off,110,0,0,,6,,,66,127
62320,note_on,4,0,0,,4,,,64,127
62430,note_off,110,0,0,,4,,,64,127
62430,note_off,0,0,0,,0,,,48,127
62430,note_off,0,0,0,,4,,,52,127
62430,note_off,0,0,0,,6,,,54,127
62430,note_off,0,0,0,,10,,,57,127
62430,note_off,0,0,0,,0,,,60,127
62430,note_off,0,0,0,,4,,,64,127
62434,note_on,4,0,0,,6,,,66,127
62434,note_on,0,0,0,,12,,,59,127
62434,note_on,0,0,0,,10,,,57,127
62434,note_on,0,0,0,,6,,,54,127
62434,note_on,0,0,0,,4,,,52,127
62434,note_on,0,0,0,,12,,,47,127
62658,note_off,224,0,0,,10,,,57,127
62658,note_off,0,0,0,,12,,,59,127
62658,note_off,0,0,0,,6,,,66,127
62663,note_on,5,0,0,,8,,,68,127
62663,note_on,0,0,0,,5,,,65,127
62663,note_on,0,0,0,,2,,,62,127
62663,note_on,0,0,0,,12,,,59,127
62887,note_off,224,0,0,,12,,,59,127
62887,note_off,0,0,0,,8,,,68,127
62891,note_on,4,0,0,,10,,,69,127
62891,note_on,0,0,0,,10,,,57,127
63005,note_off,114,0,0,,4,,,52,127
63005,note_off,0,0,0,,6,,,54,127
63115,note_off,110,0,0,,10,,,57,127
63115,note_off,0,0,0,,10,,,69,127
63120,note_on,5,0,0,,12,,,71,127
63120,note_on,0,0,0,,8,,,56,127
63207,note_off,87,0,0,,12,,,47,127
63258,note_off,51,0,0,,2,,,62,127
63258,note_off,0,0,0,,5,,,65,127
63344,note_off,86,0,0,,8,,,56,127
63344,note_off,0,0,0,,12,,,71,127
63348,note_on,4,0,0,,12,,,71,127
63348,note_on,0,0,0,,2,,,62,127
63348,note_on,0,0,0,,8,,,68,127
63348,note_on,0,0,0,,10,,,69,127
63348,note_on,0,0,0,,4,,,64,127
63348,note_on,0,0,0,,10,,,57,127
63458,note_off,110,0,0,,12,,,71,127
63462,note_on,4,0,0,,0,,,72,127
63572,note_off,110,0,0,,0,,,72,127
63572,note_off,0,0,0,,10,,,57,127
63572,note_off,0,0,0,,4,,,64,127
63572,note_off,0,0,0,,10,,,69,127
63572,note_off,0,0,0,,8,,,68,127
63572,note_off,0,0,0,,2,,,62,127
63576,note_on,4,0,0,,2,,,74,127
63576,note_on,0,0,0,,10,,,69,127
63576,note_on,0,0,0,,5,,,65,127
63576,note_on,0,0,0,,2,,,62,127
63576,note_on,0,0,0,,12,,,59,127
63576,note_on,0,0,0,,10,,,57,127
63576,note_on,0,0,0,,5,,,53,127
63800,note_off,224,0,0,,5,,,53,127
63800,note_off,0,0,0,,10,,,57,127
63800,note_off,0,0,0,,12,,,59,127
63800,note_off,0,0,0,,2,,,62,127
63805,note_on,5,0,0,,2,,,62,127
63805,note_on,0,0,0,,12,,,59,127
63805,note_on,0,0,0,,10,,,57,127
63805,note_on,0,0,0,,5,,,53,127
63915,note_off,110,0,0,,2,,,74,127
63919,note_on,4,0,0,,0,,,72,127
64029,note_off,110,0,0,,0,,,72,127
64029,note_off,0,0,0,,5,,,53,127
64029,note_off,0,0,0,,10,,,57,127
64029,note_off,0,0,0,,12,,,59,127
64029,note_off,0,0,0,,2,,,62,127
64033,note_on,4,0,0,,12,,,71,127
64033,note_on,0,0,0,,2,,,62,127
64033,note_on,0,0,0,,12,,,59,127
64033,note_on,0,0,0,,10,,,57,127
64033,note_on,0,0,0,,5,,,53,127
64143,note_off,110,0,0,,12,,,71,127
64148,note_on,5,0,0,,10,,,69,127
64257,note_off,109,0,0,,5,,,53,127
64257,note_off,0,0,0,,10,,,57,127
64257,note_off,0,0,0,,12,,,59,127
64257,note_off,0,0,0,,2,,,62,127
64257,note_off,0,0,0,,5,,,65,127
64257,note_off,0,0,0,,10,,,69,127
64258,note_off,1,0,0,,10,,,69,127
64262,note_on,4,0,0,,12,,,71,127
64262,note_on,0,0,0,,4,,,64,127
64262,note_on,0,0,0,,2,,,62,127
64262,note_on,0,0,0,,12,,,59,127
64262,note_on,0,0,0,,10,,,57,127
64262,note_on,0,0,0,,4,,,52,127
64305,note_on,43,0,0,,10,,,69,127
64333,note_off,28,0,0,,12,,,71,127
64348,note_on,15,0,0,,12,,,71,127
64376,note_off,28,0,0,,10,,,69,127
64390,note_on,14,0,0,,10,,,69,127
64419,note_off,29,0,0,,12,,,71,127
64486,note_off,67,0,0,,4,,,52,127
64486,note_off,0,0,0,,10,,,57,127
64486,note_off,0,0,0,,12,,,59,127
64486,note_off,0,0,0,,2,,,62,127
64489,note_off,3,0,0,,10,,,69,127
64490,note_on,1,0,0,,12,,,71,127
64490,note_on,0,0,0,,2,,,62,127
64490,note_on,0,0,0,,12,,,59,127
64490,note_on,0,0,0,,10,,,57,127
64490,note_on,0,0,0,,4,,,52,127
64714,note_off,224,0,0,,4,,,52,127
64714,note_off,0,0,0,,10,,,57,127
64714,note_off,0,0,0,,12,,,59,127
64714,note_off,0,0,0,,2,,,62,127
64719,note_on,5,0,0,,2,,,62,127
64719,note_on,0,0,0,,12,,,59,127
64719,note_on,0,0,0,,10,,,57,127
64719,note_on,0,0,0,,4,,,52,127
64943,note_off,224,0,0,,4,,,52,127
64943,note_off,0,0,0,,10,,,57,127
64943,note_off,0,0,0,,12,,,59,127
64943,note_off,0,0,0,,2,,,62,127
64943,note_off,0,0,0,,12,,,71,127
64943,note_off,0,0,0,,4,,,64,127
64947,note_on,4,0,0,,10,,,69,127
64947,note_on,0,0,0,,8,,,68,127
64947,note_on,0,0,0,,4,,,64,127
64947,note_on,0,0,0,,2,,,62,127
64947,note_on,0,0,0,,12,,,71,127
64947,note_on,0,0,0,,12,,,59,127
64947,note_on,0,0,0,,10,,,57,127
64947,note_on,0,0,0,,4,,,52,127
65171,note_off,224,0,0,,4,,,52,127
65171,note_off,0,0,0,,10,,,57,127
65171,note_off,0,0,0,,12,,,59,127
65171,note_off,0,0,0,,12,,,71,127
65171,note_off,0,0,0,,2,,,62,127
65171,note_off,0,0,0,,4,,,64,127
65171,note_off,0,0,0,,8,,,68,127
65171,note_off,0,0,0,,10,,,69,127
65176,note_on,5,0,0,,12,,,71,127
65176,note_on,0,0,0,,8,,,68,127
65176,note_on,0,0,0,,10,,,69,127
65176,note_on,0,0,0,,4,,,64,127
65176,note_on,0,0,0,,2,,,62,127
65176,note_on,0,0,0,,12,,,59,127
65176,note_on,0,0,0,,10,,,57,127
65176,note_on,0,0,0,,5,,,53,127
65286,note_off,110,0,0,,12,,,71,127
65290,note_on,4,0,0,,0,,,72,127
65400,note_off,110,0,0,,0,,,72,127
65400,note_off,0,0,0,,5,,,53,127
65400,note_off,0,0,0,,10,,,57,127
65400,note_off,0,0,0,,12,,,59,127
65400,note_off,0,0,0,,2,,,62,127
65400,note_off,0,0,0,,4,,,64,127
65400,note_off,0,0,0,,10,,,69,127
65400,note_off,0,0,0,,8,,,68,127
65404,note_on,4,0,0,,2,,,74,127
65404,note_on,0,0,0,,10,,,69,127
65404,note_on,0,0,0,,5,,,65,127
65404,note_on,0,0,0,,2,,,62,127
65404,note_on,0,0,0,,12,,,59,127
65404,note_on,0,0,0,,10,,,57,127
65404,note_on,0,0,0,,5,,,53,127
65628,note_off,224,0,0,,5,,,53,127
65628,note_off,0,0,0,,10,,,57,127
65628,note_off,0,0,0,,12,,,59,127
65628,note_off,0,0,0,,2,,,62,127
65633,note_on,5,0,0,,2,,,62,127
65633,note_on,0,0,0,,12,,,59,127
65633,note_on,0,0,0,,10,,,57,127
65633,note_on,0,0,0,,5,,,53,127
65743,note_off,110,0,0,,2,,,74,127
65747,note_on,4,0,0,,0,,,72,127
65857,note_off,110,0,0,,0,,,72,127
65857,note_off,0,0,0,,5,,,53,127
65857,note_off,0,0,0,,10,,,57,127
65857,note_off,0,0,0,,12,,,59,127
65857,note_off,0,0,0,,2,,,62,127
65861,note_on,4,0,0,,12,,,71,127
65861,note_on,0,0,0,,2,,,62,127
65861,note_on,0,0,0,,12,,,59,127
65861,note_on,0,0,0,,10,,,57,127
65861,note_on,0,0,0,,5,,,53,127
65971,note_off,110,0,0,,12,,,71,127
65976,note_on,5,0,0,,10,,,69,127
66085,note_off,109,0,0,,5,,,53,127
66085,note_off,0,0,0,,10,,,57,127
66085,note_off,0,0,0,,12,,,59,127
66085,note_off,0,0,0,,2,,,62,127
66085,note_off,0,0,0,,5,,,65,127
66085,note_off,0,0,0,,10,,,69,127
66086,note_off,1,0,0,,10,,,69,127
66090,note_on,4,0,0,,4,,,64,127
66090,note_on,0,0,0,,12,,,71,127
66090,note_on,0,0,0,,2,,,62,127
66090,note_on,0,0,0,,4,,,52,127
66314,note_off,224,0,0,,12,,,71,127
66318,note_on,4,0,0,,1,,,73,127
66318,note_on,0,0,0,,12,,,71,127
66318,note_on,0,0,0,,7,,,67,127
66318,note_on,0,0,0,,4,,,64,127
66542,note_off,224,0,0,,4,,,64,127
66542,note_off,0,0,0,,1,,,73,127
66542,note_off,0,0,0,,2,,,62,127
66542,note_off,0,0,0,,4,,,64,127
66547,note_on,5,0,0,,2,,,74,127
66547,note_on,0,0,0,,2,,,62,127
66548,note_off,1,0,0,,4,,,52,127
66771,note_off,223,0,0,,2,,,62,127
66771,note_off,0,0,0,,2,,,74,127
66775,note_on,4,0,0,,4,,,76,127
66775,note_on,0,0,0,,1,,,61,127
66885,note_off,110,0,0,,7,,,67,127
66885,note_off,0,0,0,,12,,,71,127
66999,note_off,114,0,0,,1,,,61,127
66999,note_off,0,0,0,,4,,,76,127
67004,note_on,5,0,0,,4,,,76,127
67004,note_on,0,0,0,,1,,,73,127
67004,note_on,0,0,0,,2,,,74,127
67004,note_on,0,0,0,,10,,,69,127
67004,note_on,0,0,0,,7,,,67,127
67004,note_on,0,0,0,,2,,,62,127
67114,note_off,110,0,0,,4,,,76,127
67118,note_on,4,0,0,,5,,,77,127
67228,note_off,110,0,0,,5,,,77,127
67228,note_off,0,0,0,,2,,,62,127
67228,note_off,0,0,0,,2,,,74,127
67228,note_off,0,0,0,,1,,,73,127
67232,note_on,4,0,0,,7,,,79,127
67232,note_on,0,0,0,,2,,,74,127
67232,note_on,0,0,0,,11,,,70,127
67232,note_on,0,0,0,,4,,,64,127
67232,note_on,0,0,0,,2,,,62,127
67232,note_on,0,0,0,,11,,,58,127
67456,note_off,224,0,0,,11,,,58,127
67456,note_off,0,0,0,,2,,,62,127
67456,note_off,0,0,0,,4,,,64,127
67461,note_on,5,0,0,,4,,,64,127
67461,note_on,0,0,0,,2,,,62,127
67461,note_on,0,0,0,,11,,,58,127
67571,note_off,110,0,0,,7,,,79,127
67575,note_on,4,0,0,,5,,,77,127
67685,note_off,110,0,0,,5,,,77,127
67685,note_off,0,0,0,,11,,,58,127
67685,note_off,0,0,0,,2,,,62,127
67685,note_off,0,0,0,,4,,,64,127
67689,note_on,4,0,0,,4,,,76,127
67689,note_on,0,0,0,,4,,,64,127
67689,note_on,0,0,0,,2,,,62,127
67689,note_on,0,0,0,,11,,,58,127
67799,note_off,110,0,0,,4,,,76,127
67803,note_on,4,0,0,,2,,,74,127
67913,note_off,110,0,0,,2,,,74,127
67913,note_off,0,0,0,,11,,,58,127
67913,note_off,0,0,0,,2,,,62,127
67913,note_off,0,0,0,,4,,,64,127
67913,note_off,0,0,0,,11,,,70,127
67913,note_off,0,0,0,,2,,,74,127
67914,note_off,1,0,0,,7,,,67,127
67914,note_off,0,0,0,,10,,,69,127
67918,note_on,4,0,0,,4,,,76,127
67918,note_on,0,0,0,,10,,,69,127
67918,note_on,0,0,0,,7,,,67,127
67918,note_on,0,0,0,,4,,,64,127
67918,note_on,0,0,0,,2,,,62,127
67918,note_on,0,0,0,,10,,,57,127
67957,note_on,39,0,0,,2,,,74,127
67983,note_off,26,0,0,,4,,,76,127
67996,note_on,13,0,0,,4,,,76,127
68022,note_off,26,0,0,,2,,,74,127
68035,note_on,13,0,0,,2,,,74,127
68061,note_off,26,0,0,,4,,,76,127
68142,note_off,81,0,0,,10,,,57,127
68142,note_off,0,0,0,,2,,,62,127
68142,note_off,0,0,0,,4,,,64,127
68142,note_off,0,0,0,,7,,,67,127
68146,note_on,4,0,0,,4,,,76,127
68146,note_on,0,0,0,,4,,,64,127
68146,note_on,0,0,0,,2,,,62,127
68146,note_on,0,0,0,,10,,,57,127
68161,note_off,15,0,0,,2,,,74,127
68370,note_off,209,0,0,,10,,,57,127
68370,note_off,0,0,0,,2,,,62,127
68370,note_off,0,0,0,,4,,,64,127
68370,note_off,0,0,0,,4,,,76,127
68371,note_off,1,0,0,,10,,,69,127
68375,note_on,4,0,0,,4,,,64,127
68375,note_on,0,0,0,,2,,,62,127
68375,note_on,0,0,0,,10,,,57,127
68599,note_off,224,0,0,,10,,,57,127
68599,note_off,0,0,0,,2,,,62,127
68599,note_off,0,0,0,,4,,,64,127
68603,note_on,4,0,0,,2,,,74,127
68603,note_on,0,0,0,,4,,,76,127
68603,note_on,0,0,0,,1,,,73,127
68603,note_on,0,0,0,,10,,,69,127
68603,note_on,0,0,0,,7,,,67,127
68603,note_on,0,0,0,,4,,,64,127
68603,note_on,0,0,0,,2,,,62,127
68603,note_on,0,0,0,,10,,,57,127
68827,note_off,224,0,0,,10,,,57,127
68827,note_off,0,0,0,,2,,,62,127
68827,note_off,0,0,0,,4,,,64,127
68827,note_off,0,0,0,,7,,,67,127
68827,note_off,0,0,0,,10,,,69,127
68827,note_off,0,0,0,,1,,,73,127
68827,note_off,0,0,0,,4,,,76,127
68827,note_off,0,0,0,,2,,,74,127
68832,note_on,5,0,0,,4,,,76,127
68832,note_on,0,0,0,,2,,,74,127
68832,note_on,0,0,0,,1,,,73,127
68832,note_on,0,0,0,,10,,,69,127
68832,note_on,0,0,0,,7,,,67,127
68832,note_on,0,0,0,,4,,,64,127
68832,note_on,0,0,0,,2,,,62,127
68832,note_on,0,0,0,,11,,,58,127
68942,note_off,110,0,0,,4,,,76,127
68946,note_on,4,0,0,,5,,,77,127
69056,note_off,110,0,0,,5,,,77,127
69056,note_off,0,0,0,,11,,,58,127
69056,note_off,0,0,0,,2,,,62,127
69056,note_off,0,0,0,,4,,,64,127
69056,note_off,0,0,0,,1,,,73,127
69056,note_off,0,0,0,,2,,,74,127
69060,note_on,4,0,0,,7,,,79,127
69060,note_on,0,0,0,,2,,,74,127
69060,note_on,0,0,0,,11,,,70,127
69060,note_on,0,0,0,,4,,,64,127
69060,note_on,0,0,0,,2,,,62,127
69060,note_on,0,0,0,,11,,,58,127
69284,note_off,224,0,0,,11,,,58,127
69284,note_off,0,0,0,,2,,,62,127
69284,note_off,0,0,0,,4,,,64,127
69288,note_on,4,0,0,,4,,,64,127
69288,note_on,0,0,0,,2,,,62,127
69288,note_on,0,0,0,,11,,,58,127
69399,note_off,111,0,0,,7,,,79,127
69403,note_on,4,0,0,,5,,,77,127
69512,note_off,109,0,0,,11,,,58,127
69512,note_off,0,0,0,,2,,,62,127
69512,note_off,0,0,0,,4,,,64,127
69513,note_off,1,0,0,,5,,,77,127
69517,note_on,4,0,0,,4,,,76,127
69517,note_on,0,0,0,,4,,,64,127
69517,note_on,0,0,0,,2,,,62,127
69517,note_on,0,0,0,,11,,,58,127
69627,note_off,110,0,0,,4,,,76,127
69631,note_on,4,0,0,,2,,,74,127
69741,note_off,110,0,0,,2,,,74,127
69741,note_off,0,0,0,,11,,,58,127
69741,note_off,0,0,0,,2,,,62,127
69741,note_off,0,0,0,,4,,,64,127
69741,note_off,0,0,0,,11,,,70,127
69741,note_off,0,0,0,,2,,,74,127
69742,note_off,1,0,0,,7,,,67,127
69742,note_off,0,0,0,,10,,,69,127
69745,note_on,3,0,0,,10,,,57,127
69745,note_on,0,0,0,,10,,,45,127
69753,note_on,8,0,0,,1,,,73,127
69876,note_on,123,0,0,,10,,,69,127
69881,note_off,5,0,0,,1,,,73,127
69981,note_off,100,0,0,,10,,,69,127
69990,note_on,9,0,0,,1,,,73,127
70095,note_off,105,0,0,,1,,,73,127
70104,note_on,9,0,0,,4,,,76,127
70209,note_off,105,0,0,,4,,,76,127
70216,note_off,7,0,0,,10,,,45,127
70218,note_on,2,0,0,,10,,,81,127
70323,note_off,105,0,0,,10,,,81,127
70333,note_on,10,0,0,,8,,,80,127
70335,note_off,2,0,0,,10,,,57,127
70438,note_off,103,0,0,,8,,,80,127
70447,note_on,9,0,0,,1,,,61,127
70447,note_on,0,0,0,,8,,,80,127
70552,note_off,105,0,0,,8,,,80,127
70561,note_on,9,0,0,,6,,,78,127
70645,note_off,84,0,0,,1,,,61,127
70666,note_off,21,0,0,,6,,,78,127
70675,note_on,9,0,0,,2,,,62,127
70675,note_on,0,0,0,,6,,,78,127
70780,note_off,105,0,0,,6,,,78,127
70790,note_on,10,0,0,,4,,,76,127
70895,note_off,105,0,0,,4,,,76,127
70895,note_off,0,0,0,,2,,,62,127
70904,note_on,9,0,0,,1,,,61,127
70904,note_on,0,0,0,,4,,,76,127
71009,note_off,105,0,0,,4,,,76,127
71018,note_on,9,0,0,,2,,,74,127
71109,note_off,91,0,0,,1,,,61,127
71123,note_off,14,0,0,,2,,,74,127
71132,note_on,9,0,0,,12,,,59,127
71132,note_on,0,0,0,,2,,,74,127
71237,note_off,105,0,0,,2,,,74,127
71247,note_on,10,0,0,,1,,,73,127
71352,note_off,105,0,0,,1,,,73,127
71361,note_on,9,0,0,,10,,,57,127
71361,note_on,0,0,0,,1,,,73,127
71466,note_off,105,0,0,,1,,,73,127
71475,note_on,9,0,0,,12,,,71,127
71580,note_off,105,0,0,,12,,,71,127
71581,note_off,1,0,0,,10,,,57,127
71589,note_on,8,0,0,,8,,,56,127
71589,note_on,0,0,0,,12,,,71,127
71694,note_off,105,0,0,,12,,,71,127
71704,note_on,10,0,0,,10,,,69,127
71809,note_off,105,0,0,,10,,,69,127
71809,note_off,0,0,0,,8,,,56,127
71818,note_on,9,0,0,,6,,,54,127
71818,note_on,0,0,0,,10,,,69,127
71923,note_off,105,0,0,,10,,,69,127
71932,note_on,9,0,0,,8,,,68,127
72026,note_off,94,0,0,,6,,,54,127
72037,note_off,11,0,0,,8,,,68,127
72046,note_on,9,0,0,,4,,,52,127
72046,note_on,0,0,0,,8,,,68,127
72151,note_off,105,0,0,,8,,,68,127
72160,note_on,9,0,0,,6,,,66,127
72265,note_off,105,0,0,,6,,,66,127
72266,note_off,1,0,0,,12,,,59,127
72275,note_on,9,0,0,,2,,,62,127
72275,note_on,0,0,0,,6,,,66,127
72380,note_off,105,0,0,,6,,,66,127
72389,note_on,9,0,0,,4,,,64,127
72494,note_off,105,0,0,,4,,,64,127
72494,note_off,0,0,0,,4,,,52,127
72495,note_off,1,0,0,,2,,,62,127
72503,note_on,8,0,0,,4,,,52,127
72503,note_on,0,0,0,,1,,,61,127
72503,note_on,0,0,0,,4,,,64,127
72503,note_on,0,0,0,,4,,,76,127
72608,note_off,105,0,0,,4,,,76,127
72617,note_on,9,0,0,,2,,,74,127
72722,note_off,105,0,0,,2,,,74,127
72723,note_off,1,0,0,,1,,,61,127
72732,note_on,9,0,0,,12,,,59,127
72732,note_on,0,0,0,,2,,,74,127
72837,note_off,105,0,0,,2,,,74,127
72846,note_on,9,0,0,,1,,,73,127
72940,note_off,94,0,0,,12,,,59,127
72951,note_off,11,0,0,,1,,,73,127
72951,note_off,0,0,0,,4,,,64,127
72960,note_on,9,0,0,,10,,,57,127
72960,note_on,0,0,0,,1,,,73,127
73065,note_off,105,0,0,,1,,,73,127
73074,note_on,9,0,0,,12,,,71,127
73179,note_off,105,0,0,,12,,,71,127
73180,note_off,1,0,0,,10,,,57,127
73189,note_on,9,0,0,,8,,,56,127
73189,note_on,0,0,0,,12,,,71,127
73294,note_off,105,0,0,,12,,,71,127
73303,note_on,9,0,0,,10,,,69,127
73397,note_off,94,0,0,,8,,,56,127
73408,note_off,11,0,0,,10,,,69,127
73408,note_off,0,0,0,,4,,,52,127
73417,note_on,9,0,0,,6,,,54,127
73417,note_on,0,0,0,,10,,,69,127
73522,note_off,105,0,0,,10,,,69,127
73531,note_on,9,0,0,,8,,,68,127
73636,note_off,105,0,0,,8,,,68,127
73637,note_off,1,0,0,,6,,,54,127
73646,note_on,9,0,0,,4,,,52,127
73646,note_on,0,0,0,,8,,,68,127
73751,note_off,105,0,0,,8,,,68,127
73760,note_on,9,0,0,,6,,,66,127
73865,note_off,105,0,0,,6,,,66,127
73866,note_off,1,0,0,,4,,,52,127
73874,note_on,8,0,0,,2,,,50,127
73874,note_on,0,0,0,,6,,,66,127
73979,note_off,105,0,0,,6,,,66,127
73988,note_on,9,0,0,,4,,,64,127
74093,note_off,105,0,0,,4,,,64,127
74094,note_off,1,0,0,,2,,,50,127
74103,note_on,9,0,0,,1,,,49,127
74103,note_on,0,0,0,,4,,,64,127
74208,note_off,105,0,0,,4,,,64,127
74217,note_on,9,0,0,,2,,,62,127
74322,note_off,105,0,0,,2,,,62,127
74323,note_off,1,0,0,,1,,,49,127
74331,note_on,8,0,0,,12,,,47,127
74331,note_on,0,0,0,,2,,,62,127
74436,note_off,105,0,0,,2,,,62,127
74445,note_on,9,0,0,,1,,,61,127
74550,note_off,105,0,0,,1,,,61,127
74551,note_off,1,0,0,,12,,,47,127
74560,note_on,9,0,0,,10,,,45,127
74560,note_on,0,0,0,,1,,,61,127
74665,note_off,105,0,0,,1,,,61,127
74674,note_on,9,0,0,,12,,,59,127
74779,note_off,105,0,0,,12,,,59,127
74780,note_off,1,0,0,,10,,,45,127
74788,note_on,8,0,0,,8,,,44,127
74788,note_on,0,0,0,,12,,,59,127
74893,note_off,105,0,0,,12,,,59,127
74902,note_on,9,0,0,,10,,,57,127
75007,note_off,105,0,0,,10,,,57,127
75008,note_off,1,0,0,,8,,,44,127
75016,note_on,8,0,0,,6,,,42,127
75016,note_on,0,0,0,,10,,,57,127
75131,note_on,115,0,0,,3,,,63,127
75236,note_off,105,0,0,,3,,,63,127
75236,note_off,0,0,0,,10,,,57,127
75236,note_off,0,0,0,,6,,,42,127
75245,note_on,9,0,0,,4,,,40,127
75245,note_on,0,0,0,,10,,,57,127
75245,note_on,0,0,0,,3,,,63,127
75469,note_off,224,0,0,,3,,,63,127
75469,note_off,0,0,0,,10,,,57,127
75473,note_on,4,0,0,,4,,,64,127
75473,note_on,0,0,0,,8,,,56,127
75698,note_off,225,0,0,,4,,,40,127
75802,note_off,104,0,0,,8,,,56,127
75887,note_off,85,0,0,,4,,,64,127
75962,note_on,75,0,0,,8,,,68,127
75962,note_on,0,0,0,,12,,,71,127
75962,note_on,0,0,0,,8,,,80,127
76072,note_off,110,0,0,,8,,,68,127
76077,note_on,5,0,0,,4,,,64,127
76186,note_off,109,0,0,,8,,,80,127
76186,note_off,0,0,0,,12,,,71,127
76187,note_off,1,0,0,,4,,,64,127
76191,note_on,4,0,0,,10,,,69,127
76191,note_on,0,0,0,,1,,,73,127
76191,note_on,0,0,0,,10,,,81,127
76301,note_off,110,0,0,,10,,,69,127
76305,note_on,4,0,0,,4,,,64,127
76415,note_off,110,0,0,,4,,,64,127
76415,note_off,0,0,0,,10,,,81,127
76415,note_off,0,0,0,,1,,,73,127
76419,note_on,4,0,0,,1,,,73,127
76419,note_on,0,0,0,,4,,,76,127
76419,note_on,0,0,0,,1,,,85,127
76529,note_off,110,0,0,,1,,,73,127
76534,note_on,5,0,0,,4,,,64,127
76643,note_off,109,0,0,,1,,,85,127
76643,note_off,0,0,0,,4,,,76,127
76644,note_off,1,0,0,,4,,,64,127
76648,note_on,4,0,0,,12,,,71,127
76648,note_on,0,0,0,,2,,,74,127
76648,note_on,0,0,0,,12,,,83,127
76758,note_off,110,0,0,,12,,,71,127
76762,note_on,4,0,0,,4,,,64,127
76872,note_off,110,0,0,,4,,,64,127
76872,note_off,0,0,0,,12,,,83,127
76872,note_off,0,0,0,,2,,,74,127
76876,note_on,4,0,0,,4,,,40,127
76876,note_on,0,0,0,,8,,,68,127
76876,note_on,0,0,0,,12,,,71,127
76986,note_off,110,0,0,,8,,,68,127
76991,note_on,5,0,0,,4,,,64,127
77100,note_off,109,0,0,,12,,,71,127
77100,note_off,0,0,0,,4,,,40,127
77101,note_off,1,0,0,,4,,,64,127
77105,note_on,4,0,0,,10,,,45,127
77105,note_on,0,0,0,,10,,,33,127
77105,note_on,0,0,0,,1,,,73,127
77215,note_off,110,0,0,,1,,,73,127
77219,note_on,4,0,0,,12,,,71,127
77329,note_off,110,0,0,,12,,,71,127
77333,note_on,4,0,0,,10,,,69,127
77443,note_off,110,0,0,,10,,,69,127
77448,note_on,5,0,0,,8,,,68,127
77558,note_off,110,0,0,,8,,,68,127
77558,note_off,0,0,0,,10,,,33,127
77558,note_off,0,0,0,,10,,,45,127
77562,note_on,4,0,0,,10,,,69,127
77672,note_off,110,0,0,,10,,,69,127
77676,note_on,4,0,0,,4,,,64,127
77786,note_off,110,0,0,,4,,,64,127
77790,note_on,4,0,0,,8,,,68,127
77790,note_on,0,0,0,,12,,,71,127
77790,note_on,0,0,0,,8,,,80,127
77900,note_off,110,0,0,,8,,,68,127
77904,note_on,4,0,0,,4,,,64,127
78014,note_off,110,0,0,,4,,,64,127
78014,note_off,0,0,0,,8,,,80,127
78014,note_off,0,0,0,,12,,,71,127
78019,note_on,5,0,0,,10,,,69,127
78019,note_on,0,0,0,,1,,,73,127
78019,note_on,0,0,0,,10,,,81,127
78129,note_off,110,0,0,,10,,,69,127
78133,note_on,4,0,0,,4,,,64,127
78243,note_off,110,0,0,,4,,,64,127
78243,note_off,0,0,0,,10,,,81,127
78243,note_off,0,0,0,,1,,,73,127
78247,note_on,4,0,0,,1,,,73,127
78247,note_on,0,0,0,,4,,,76,127
78247,note_on,0,0,0,,1,,,85,127
78357,note_off,110,0,0,,1,,,73,127
78361,note_on,4,0,0,,4,,,64,127
78471,note_off,110,0,0,,4,,,64,127
78471,note_off,0,0,0,,1,,,85,127
78471,note_off,0,0,0,,4,,,76,127
78476,note_on,5,0,0,,12,,,71,127
78476,note_on,0,0,0,,2,,,74,127
78476,note_on,0,0,0,,12,,,83,127
78586,note_off,110,0,0,,12,,,71,127
78590,note_on,4,0,0,,4,,,64,127
78700,note_off,110,0,0,,4,,,64,127
78700,note_off,0,0,0,,12,,,83,127
78700,note_off,0,0,0,,2,,,74,127
78704,note_on,4,0,0,,4,,,40,127
78704,note_on,0,0,0,,8,,,68,127
78704,note_on,0,0,0,,12,,,71,127
78814,note_off,110,0,0,,8,,,68,127
78818,note_on,4,0,0,,4,,,64,127
78928,note_off,110,0,0,,4,,,64,127
78928,note_off,0,0,0,,12,,,71,127
78928,note_off,0,0,0,,4,,,40,127
78933,note_on,5,0,0,,10,,,45,127
78933,note_on,0,0,0,,1,,,73,127
79043,note_off,110,0,0,,1,,,73,127
79047,note_on,4,0,0,,2,,,74,127
79157,note_off,110,0,0,,2,,,74,127
79161,note_on,4,0,0,,4,,,76,127
79271,note_off,110,0,0,,4,,,76,127
79275,note_on,4,0,0,,8,,,68,127
79385,note_off,110,0,0,,8,,,68,127
79390,note_on,5,0,0,,10,,,69,127
79500,note_off,110,0,0,,10,,,69,127
79504,note_on,4,0,0,,12,,,71,127
79572,note_off,68,0,0,,10,,,45,127
79614,note_off,42,0,0,,12,,,71,127
79618,note_on,4,0,0,,1,,,49,127
79618,note_on,0,0,0,,1,,,73,127
79728,note_off,110,0,0,,1,,,73,127
79732,note_on,4,0,0,,4,,,64,127
79842,note_off,110,0,0,,4,,,64,127
79842,note_off,0,0,0,,1,,,49,127
79847,note_on,5,0,0,,2,,,50,127
79847,note_on,0,0,0,,6,,,66,127
79957,note_off,110,0,0,,6,,,66,127
79961,note_on,4,0,0,,2,,,74,127
80071,note_off,110,0,0,,2,,,74,127
80075,note_on,4,0,0,,2,,,38,127
80075,note_on,0,0,0,,1,,,73,127
80105,note_off,30,0,0,,2,,,50,127
80185,note_off,80,0,0,,1,,,73,127
80189,note_on,4,0,0,,12,,,71,127
80285,note_off,96,0,0,,2,,,38,127
80299,note_off,14,0,0,,12,,,71,127
80304,note_on,5,0,0,,4,,,52,127
80304,note_on,0,0,0,,1,,,73,127
80304,note_on,0,0,0,,4,,,76,127
80414,note_off,110,0,0,,1,,,73,127
80418,note_on,4,0,0,,10,,,69,127
80528,note_off,110,0,0,,10,,,69,127
80528,note_off,0,0,0,,4,,,76,127
80532,note_on,4,0,0,,4,,,40,127
80532,note_on,0,0,0,,12,,,71,127
80532,note_on,0,0,0,,2,,,74,127
80562,note_off,30,0,0,,4,,,52,127
80642,note_off,80,0,0,,12,,,71,127
80646,note_on,4,0,0,,8,,,68,127
80742,note_off,96,0,0,,4,,,40,127
80756,note_off,14,0,0,,8,,,68,127
80756,note_off,0,0,0,,2,,,74,127
80760,note_on,4,0,0,,10,,,45,127
80760,note_on,0,0,0,,10,,,69,127
80760,note_on,0,0,0,,1,,,73,127
80870,note_off,110,0,0,,10,,,69,127
80875,note_on,5,0,0,,4,,,64,127
80984,note_off,109,0,0,,1,,,73,127
80985,note_off,1,0,0,,4,,,64,127
80989,note_on,4,0,0,,8,,,68,127
80989,note_on,0,0,0,,12,,,71,127
81099,note_off,110,0,0,,8,,,68,127
81103,note_on,4,0,0,,4,,,64,127
81213,note_off,110,0,0,,4,,,64,127
81213,note_off,0,0,0,,12,,,71,127
81217,note_on,4,0,0,,10,,,69,127
81217,note_on,0,0,0,,1,,,73,127
81327,note_off,110,0,0,,10,,,69,127
81332,note_on,5,0,0,,4,,,64,127
81402,note_off,70,0,0,,10,,,45,127
81441,note_off,39,0,0,,1,,,73,127
81442,note_off,1,0,0,,4,,,64,127
81446,note_on,4,0,0,,8,,,68,127
81446,note_on,0,0,0,,12,,,71,127
81446,note_on,0,0,0,,8,,,80,127
81556,note_off,110,0,0,,8,,,68,127
81560,note_on,4,0,0,,4,,,64,127
81670,note_off,110,0,0,,4,,,64,127
81670,note_off,0,0,0,,8,,,80,127
81670,note_off,0,0,0,,12,,,71,127
81674,note_on,4,0,0,,10,,,69,127
81674,note_on,0,0,0,,1,,,73,127
81674,note_on,0,0,0,,10,,,81,127
81784,note_off,110,0,0,,10,,,69,127
81789,note_on,5,0,0,,4,,,64,127
81898,note_off,109,0,0,,10,,,81,127
81898,note_off,0,0,0,,1,,,73,127
81899,note_off,1,0,0,,4,,,64,127
81903,note_on,4,0,0,,1,,,73,127
81903,note_on,0,0,0,,4,,,76,127
81903,note_on,0,0,0,,1,,,85,127
82013,note_off,110,0,0,,1,,,73,127
82017,note_on,4,0,0,,4,,,64,127
82127,note_off,110,0,0,,4,,,64,127
82127,note_off,0,0,0,,1,,,85,127
82127,note_off,0,0,0,,4,,,76,127
82131,note_on,4,0,0,,12,,,71,127
82131,note_on,0,0,0,,2,,,74,127
82131,note_on,0,0,0,,12,,,83,127
82241,note_off,110,0,0,,12,,,71,127
82246,note_on,5,0,0,,4,,,64,127
82355,note_off,109,0,0,,12,,,83,127
82355,note_off,0,0,0,,2,,,74,127
82356,note_off,1,0,0,,4,,,64,127
82360,note_on,4,0,0,,4,,,40,127
82360,note_on,0,0,0,,8,,,68,127
82360,note_on,0,0,0,,12,,,71,127
82470,note_off,110,0,0,,8,,,68,127
82474,note_on,4,0,0,,4,,,64,127
82584,note_off,110,0,0,,4,,,64,127
82584,note_off,0,0,0,,12,,,71,127
82584,note_off,0,0,0,,4,,,40,127
82588,note_on,4,0,0,,10,,,45,127
82588,note_on,0,0,0,,10,,,33,127
82588,note_on,0,0,0,,1,,,73,127
82698,note_off,110,0,0,,1,,,73,127
82703,note_on,5,0,0,,12,,,71,127
82813,note_off,110,0,0,,12,,,71,127
82817,note_on,4,0,0,,10,,,69,127
82927,note_off,110,0,0,,10,,,69,127
82931,note_on,4,0,0,,8,,,68,127
83041,note_off,110,0,0,,8,,,68,127
83045,note_on,4,0,0,,10,,,69,127
83155,note_off,110,0,0,,10,,,69,127
83155,note_off,0,0,0,,10,,,33,127
83155,note_off,0,0,0,,10,,,45,127
83160,note_on,5,0,0,,4,,,64,127
83270,note_off,110,0,0,,4,,,64,127
83274,note_on,4,0,0,,8,,,68,127
83274,note_on,0,0,0,,12,,,71,127
83274,note_on,0,0,0,,8,,,80,127
83384,note_off,110,0,0,,8,,,68,127
83388,note_on,4,0,0,,4,,,64,127
83498,note_off,110,0,0,,4,,,64,127
83498,note_off,0,0,0,,8,,,80,127
83498,note_off,0,0,0,,12,,,71,127
83502,note_on,4,0,0,,10,,,69,127
83502,note_on,0,0,0,,1,,,73,127
83502,note_on,0,0,0,,10,,,81,127
83612,note_off,110,0,0,,10,,,69,127
83616,note_on,4,0,0,,4,,,64,127
83726,note_off,110,0,0,,4,,,64,127
83726,note_off,0,0,0,,10,,,81,127
83726,note_off,0,0,0,,1,,,73,127
83731,note_on,5,0,0,,1,,,73,127
83731,note_on,0,0,0,,4,,,76,127
83731,note_on,0,0,0,,1,,,85,127
83841,note_off,110,0,0,,1,,,73,127
83845,note_on,4,0,0,,4,,,64,127
83955,note_off,110,0,0,,4,,,64,127
83955,note_off,0,0,0,,1,,,85,127
83955,note_off,0,0,0,,4,,,76,127
83959,note_on,4,0,0,,12,,,71,127
83959,note_on,0,0,0,,2,,,74,127
83959,note_on,0,0,0,,12,,,83,127
84069,note_off,110,0,0,,12,,,71,127
84073,note_on,4,0,0,,4,,,64,127
84183,note_off,110,0,0,,4,,,64,127
84183,note_off,0,0,0,,12,,,83,127
84183,note_off,0,0,0,,2,,,74,127
84188,note_on,5,0,0,,4,,,40,127
84188,note_on,0,0,0,,8,,,68,127
84188,note_on,0,0,0,,12,,,71,127
84298,note_off,110,0,0,,8,,,68,127
84302,note_on,4,0,0,,4,,,64,127
84410,note_off,108,0,0,,4,,,40,127
84412,note_off,2,0,0,,4,,,64,127
84412,note_off,0,0,0,,12,,,71,127
84416,note_on,4,0,0,,10,,,45,127
84416,note_on,0,0,0,,10,,,33,127
84416,note_on,0,0,0,,1,,,73,127
84526,note_off,110,0,0,,1,,,73,127
84530,note_on,4,0,0,,2,,,74,127
84640,note_off,110,0,0,,2,,,74,127
84645,note_on,5,0,0,,4,,,76,127
84755,note_off,110,0,0,,4,,,76,127
84759,note_on,4,0,0,,8,,,68,127
84869,note_off,110,0,0,,8,,,68,127
84873,note_on,4,0,0,,10,,,69,127
84983,note_off,110,0,0,,10,,,69,127
84983,note_off,0,0,0,,10,,,33,127
84983,note_off,0,0,0,,10,,,45,127
84987,note_on,4,0,0,,12,,,71,127
85097,note_off,110,0,0,,12,,,71,127
85102,note_on,5,0,0,,1,,,49,127
85102,note_on,0,0,0,,1,,,73,127
85212,note_off,110,0,0,,1,,,73,127
85216,note_on,4,0,0,,4,,,64,127
85326,note_off,110,0,0,,4,,,64,127
85326,note_off,0,0,0,,1,,,49,127
85330,note_on,4,0,0,,2,,,50,127
85330,note_on,0,0,0,,6,,,66,127
85440,note_off,110,0,0,,6,,,66,127
85444,note_on,4,0,0,,8,,,68,127
85554,note_off,110,0,0,,8,,,68,127
85559,note_on,5,0,0,,2,,,38,127
85559,note_on,0,0,0,,10,,,69,127
85588,note_off,29,0,0,,2,,,50,127
85669,note_off,81,0,0,,10,,,69,127
85673,note_on,4,0,0,,12,,,59,127
85769,note_off,96,0,0,,2,,,38,127
85783,note_off,14,0,0,,12,,,59,127
85787,note_on,4,0,0,,4,,,52,127
85787,note_on,0,0,0,,1,,,61,127
85897,note_off,110,0,0,,1,,,61,127
85901,note_on,4,0,0,,2,,,62,127
86011,note_off,110,0,0,,2,,,62,127
86016,note_on,5,0,0,,4,,,40,127
86016,note_on,0,0,0,,4,,,64,127
86045,note_off,29,0,0,,4,,,52,127
86126,note_off,81,0,0,,4,,,64,127
86130,note_on,4,0,0,,8,,,56,127
86232,note_off,102,0,0,,4,,,40,127
86240,note_off,8,0,0,,8,,,56,127
86249,note_on,9,0,0,,10,,,57,127
86249,note_on,0,0,0,,10,,,45,127
86359,note_off,110,0,0,,10,,,45,127
86374,note_on,15,0,0,,4,,,40,127
86484,note_off,110,0,0,,4,,,40,127
86488,note_on,4,0,0,,1,,,49,127
86598,note_off,110,0,0,,1,,,49,127
86603,note_on,5,0,0,,10,,,45,127
86702,note_off,99,0,0,,10,,,57,127
86713,note_off,11,0,0,,10,,,45,127
86717,note_on,4,0,0,,4,,,52,127
86827,note_off,110,0,0,,4,,,52,127
86831,note_on,4,0,0,,1,,,49,127
86941,note_off,110,0,0,,1,,,49,127
86945,note_on,4,0,0,,10,,,57,127
87055,note_off,110,0,0,,10,,,57,127
87060,note_on,5,0,0,,4,,,52,127
87170,note_off,110,0,0,,4,,,52,127
87174,note_on,4,0,0,,1,,,61,127
87402,note_on,228,0,0,,10,,,69,127
87626,note_off,224,0,0,,10,,,69,127
87631,note_on,5,0,0,,4,,,64,127
87741,note_off,110,0,0,,4,,,64,127
87741,note_off,0,0,0,,1,,,61,127
87745,note_on,4,0,0,,2,,,62,127
87745,note_on,0,0,0,,12,,,59,127
87855,note_off,110,0,0,,12,,,59,127
87855,note_off,0,0,0,,2,,,62,127
87859,note_on,4,0,0,,1,,,61,127
87859,note_on,0,0,0,,10,,,57,127
87969,note_off,110,0,0,,10,,,57,127
87969,note_off,0,0,0,,1,,,61,127
87974,note_on,5,0,0,,12,,,59,127
87974,note_on,0,0,0,,8,,,56,127
88084,note_off,110,0,0,,8,,,56,127
88084,note_off,0,0,0,,12,,,59,127
88099,note_on,15,0,0,,10,,,57,127
88099,note_on,0,0,0,,1,,,61,127
88218,note_on,119,0,0,,4,,,52,127
88241,note_off,23,0,0,,10,,,57,127
88323,note_off,82,0,0,,1,,,61,127
88328,note_off,5,0,0,,4,,,52,127
88332,note_on,4,0,0,,1,,,61,127
88447,note_on,115,0,0,,10,,,57,127
88474,note_off,27,0,0,,1,,,61,127
88557,note_off,83,0,0,,10,,,57,127
88561,note_on,4,0,0,,4,,,64,127
88675,note_on,114,0,0,,1,,,61,127
88703,note_off,28,0,0,,4,,,64,127
88785,note_off,82,0,0,,1,,,61,127
88789,note_on,4,0,0,,10,,,69,127
88904,note_on,115,0,0,,4,,,64,127
88931,note_off,27,0,0,,10,,,69,127
89014,note_off,83,0,0,,4,,,64,127
89018,note_on,4,0,0,,1,,,73,127
89246,note_on,228,0,0,,10,,,81,127
89470,note_off,224,0,0,,10,,,81,127
89475,note_on,5,0,0,,4,,,76,127
89585,note_off,110,0,0,,4,,,76,127
89585,note_off,0,0,0,,1,,,73,127
89589,note_on,4,0,0,,12,,,71,127
89589,note_on,0,0,0,,2,,,74,127
89699,note_off,110,0,0,,2,,,74,127
89699,note_off,0,0,0,,12,,,71,127
89703,note_on,4,0,0,,10,,,69,127
89703,note_on,0,0,0,,1,,,73,127
89813,note_off,110,0,0,,1,,,73,127
89813,note_off,0,0,0,,10,,,69,127
89817,note_on,4,0,0,,8,,,68,127
89817,note_on,0,0,0,,12,,,71,127
89927,note_off,110,0,0,,12,,,71,127
89927,note_off,0,0,0,,8,,,68,127
89932,note_on,5,0,0,,10,,,69,127
89932,note_on,0,0,0,,1,,,73,127
90042,note_off,110,0,0,,1,,,73,127
90046,note_on,4,0,0,,4,,,76,127
90156,note_off,110,0,0,,4,,,76,127
90156,note_off,0,0,0,,10,,,69,127
90160,note_on,4,0,0,,2,,,62,127
90160,note_on,0,0,0,,6,,,78,127
90270,note_off,110,0,0,,6,,,78,127
90274,note_on,4,0,0,,2,,,74,127
90376,note_off,102,0,0,,2,,,62,127
90384,note_off,8,0,0,,2,,,74,127
90389,note_on,5,0,0,,4,,,64,127
90389,note_on,0,0,0,,1,,,73,127
90499,note_off,110,0,0,,1,,,73,127
90503,note_on,4,0,0,,12,,,71,127
90613,note_off,110,0,0,,12,,,71,127
90613,note_off,0,0,0,,4,,,64,127
90617,note_on,4,0,0,,4,,,52,127
90617,note_on,0,0,0,,10,,,69,127
90727,note_off,110,0,0,,10,,,69,127
90731,note_on,4,0,0,,8,,,68,127
90841,note_off,110,0,0,,8,,,68,127
90841,note_off,0,0,0,,4,,,52,127
90846,note_on,5,0,0,,10,,,57,127
90846,note_on,0,0,0,,10,,,69,127
90956,note_off,110,0,0,,10,,,69,127
90960,note_on,4,0,0,,4,,,64,127
91070,note_off,110,0,0,,4,,,64,127
91070,note_off,0,0,0,,10,,,57,127
91074,note_on,4,0,0,,2,,,50,127
91074,note_on,0,0,0,,6,,,66,127
91184,note_off,110,0,0,,6,,,66,127
91188,note_on,4,0,0,,2,,,62,127
91290,note_off,102,0,0,,2,,,50,127
91298,note_off,8,0,0,,2,,,62,127
91303,note_on,5,0,0,,4,,,52,127
91303,note_on,0,0,0,,1,,,61,127
91413,note_off,110,0,0,,1,,,61,127
91417,note_on,4,0,0,,12,,,59,127
91527,note_off,110,0,0,,12,,,59,127
91527,note_off,0,0,0,,4,,,52,127
91531,note_on,4,0,0,,4,,,40,127
91531,note_on,0,0,0,,10,,,57,127
91641,note_off,110,0,0,,10,,,57,127
91645,note_on,4,0,0,,8,,,56,127
91755,note_off,110,0,0,,8,,,56,127
91755,note_off,0,0,0,,4,,,40,127
91761,note_on,6,0,0,,10,,,57,127
91761,note_on,0,0,0,,10,,,45,127
91872,note_off,111,0,0,,10,,,57,127
91877,note_on,5,0,0,,4,,,52,127
91979,note_off,102,0,0,,10,,,45,127
91988,note_off,9,0,0,,4,,,52,127
91993,note_on,5,0,0,,6,,,54,127
91993,note_on,0,0,0,,2,,,38,127
92104,note_off,111,0,0,,6,,,54,127
92109,note_on,5,0,0,,2,,,50,127
92211,note_off,102,0,0,,2,,,38,127
92220,note_off,9,0,0,,2,,,50,127
92226,note_on,6,0,0,,4,,,40,127
92226,note_on,0,0,0,,1,,,49,127
92344,note_on,118,0,0,,10,,,57,127
92452,note_off,108,0,0,,1,,,49,127
92455,note_off,3,0,0,,10,,,57,127
92461,note_on,6,0,0,,12,,,47,127
92579,note_on,118,0,0,,8,,,56,127
92665,note_off,86,0,0,,4,,,40,127
92687,note_off,22,0,0,,8,,,56,127
92687,note_off,0,0,0,,12,,,47,127
92696,note_on,9,0,0,,10,,,33,127
92696,note_on,0,0,0,,10,,,45,127
92696,note_on,0,0,0,,8,,,56,127
93120,note_on,424,0,0,,10,,,57,127
93220,note_off,100,0,0,,8,,,56,127
93888,note_off,668,0,0,,10,,,57,127
93888,note_off,0,0,0,,10,,,45,127
93888,note_off,0,0,0,,10,,,33,127
96768,end_of_track,2880,1,0,,,,,,
