tick,type,time,meta,track,program,channel,pitch,tempo,note,velocity
0,copyright,0,1,0,,,,,,
0,program_change,0,0,0,6,0,,,,
0,pitchwheel,0,0,0,,0,0,,,
0,program_change,0,0,0,6,1,,,,
0,pitchwheel,0,0,0,,1,-590,,,
0,program_change,0,0,0,6,2,,,,
0,pitchwheel,0,0,0,,2,-272,,,
0,program_change,0,0,0,6,3,,,,
0,pitchwheel,0,0,0,,3,-353,,,
0,program_change,0,0,0,6,4,,,,
0,pitchwheel,0,0,0,,4,-560,,,
0,program_change,0,0,0,6,5,,,,
0,pitchwheel,0,0,0,,5,-80,,,
0,program_change,0,0,0,6,6,,,,
0,pitchwheel,0,0,0,,6,-625,,,
0,program_change,0,0,0,6,7,,,,
0,pitchwheel,0,0,0,,7,-130,,,
0,program_change,0,0,0,6,8,,,,
0,pitchwheel,0,0,0,,8,-512,,,
0,program_change,0,0,0,6,10,,,,
0,pitchwheel,0,0,0,,10,-464,,,
0,program_change,0,0,0,6,11,,,,
0,pitchwheel,0,0,0,,11,-208,,,
0,program_change,0,0,0,6,12,,,,
0,pitchwheel,0,0,0,,12,-553,,,
0,set_tempo,0,1,0,,,,500000,,
318,note_on,318,0,0,,10,,,81,127
635,note_off,317,0,0,,10,,,81,127
636,note_on,1,0,0,,2,,,74,127
953,note_off,317,0,0,,2,,,74,127
954,note_on,1,0,0,,10,,,69,127
1271,note_off,317,0,0,,10,,,69,127
1272,note_on,1,0,0,,2,,,74,127
1590,note_on,318,0,0,,5,,,65,127
1885,note_off,295,0,0,,2,,,74,127
1907,note_off,22,0,0,,5,,,65,127
1908,note_on,1,0,0,,4,,,76,127
1908,note_on,0,0,0,,7,,,67,127
1987,note_off,79,0,0,,4,,,76,127
1988,note_on,1,0,0,,5,,,77,127
2067,note_off,79,0,0,,5,,,77,127
2068,note_on,1,0,0,,7,,,79,127
2226,note_off,158,0,0,,7,,,67,127
2227,note_on,1,0,0,,10,,,69,127
2544,note_off,317,0,0,,10,,,69,127
2544,note_off,0,0,0,,7,,,79,127
2545,note_on,1,0,0,,5,,,77,127
2545,note_on,0,0,0,,2,,,62,127
2624,note_off,79,0,0,,5,,,77,127
2625,note_on,1,0,0,,4,,,76,127
2704,note_off,79,0,0,,4,,,76,127
2705,note_on,1,0,0,,2,,,74,127
2863,note_off,158,0,0,,2,,,62,127
2864,note_on,1,0,0,,11,,,58,127
3181,note_off,317,0,0,,11,,,58,127
3181,note_off,0,0,0,,2,,,74,127
3182,note_on,1,0,0,,4,,,76,127
3182,note_on,0,0,0,,7,,,55,127
3261,note_off,79,0,0,,4,,,76,127
3262,note_on,1,0,0,,2,,,74,127
3341,note_off,79,0,0,,2,,,74,127
3342,note_on,1,0,0,,1,,,73,127
3500,note_off,158,0,0,,7,,,55,127
3501,note_on,1,0,0,,10,,,57,127
3818,note_off,317,0,0,,10,,,57,127
3818,note_off,0,0,0,,1,,,73,127
3819,note_on,1,0,0,,2,,,74,127
3819,note_on,0,0,0,,2,,,50,127
4136,note_off,317,0,0,,2,,,74,127
4137,note_on,1,0,0,,10,,,69,127
4454,note_off,317,0,0,,10,,,69,127
4455,note_on,1,0,0,,7,,,67,127
4534,note_off,79,0,0,,7,,,67,127
4535,note_on,1,0,0,,10,,,69,127
4614,note_off,79,0,0,,10,,,69,127
4615,note_off,1,0,0,,2,,,50,127
4615,note_on,0,0,0,,11,,,70,127
4774,note_on,159,0,0,,7,,,55,127
5091,note_off,317,0,0,,7,,,55,127
5091,note_off,0,0,0,,11,,,70,127
5092,note_on,1,0,0,,10,,,69,127
5092,note_on,0,0,0,,5,,,53,127
5171,note_off,79,0,0,,10,,,69,127
5172,note_on,1,0,0,,7,,,67,127
5251,note_off,79,0,0,,7,,,67,127
5252,note_on,1,0,0,,5,,,65,127
5410,note_off,158,0,0,,5,,,53,127
5411,note_on,1,0,0,,11,,,58,127
5728,note_off,317,0,0,,11,,,58,127
5728,note_off,0,0,0,,5,,,65,127
5729,note_on,1,0,0,,4,,,64,127
5729,note_on,0,0,0,,7,,,55,127
5808,note_off,79,0,0,,4,,,64,127
5809,note_on,1,0,0,,2,,,62,127
5888,note_off,79,0,0,,2,,,62,127
5889,note_on,1,0,0,,1,,,61,127
6047,note_off,158,0,0,,7,,,55,127
6048,note_on,1,0,0,,10,,,57,127
6365,note_off,317,0,0,,10,,,57,127
6365,note_off,0,0,0,,1,,,61,127
6366,note_on,1,0,0,,2,,,62,127
6366,note_on,0,0,0,,2,,,50,127
6623,note_off,257,0,0,,2,,,62,127
6683,note_off,60,0,0,,2,,,50,127
6684,note_on,1,0,0,,5,,,65,127
6684,note_on,0,0,0,,2,,,62,127
7001,note_off,317,0,0,,2,,,62,127
7001,note_off,0,0,0,,5,,,65,127
7002,note_on,1,0,0,,4,,,64,127
7002,note_on,0,0,0,,1,,,61,127
7081,note_off,79,0,0,,4,,,64,127
7082,note_on,1,0,0,,5,,,65,127
7161,note_off,79,0,0,,5,,,65,127
7162,note_on,1,0,0,,7,,,67,127
7320,note_off,158,0,0,,7,,,67,127
7320,note_off,0,0,0,,1,,,61,127
7321,note_on,1,0,0,,5,,,65,127
7321,note_on,0,0,0,,2,,,62,127
7627,note_off,306,0,0,,5,,,65,127
7638,note_off,11,0,0,,2,,,62,127
7639,note_on,1,0,0,,5,,,65,127
7957,note_on,318,0,0,,10,,,69,127
8274,note_off,317,0,0,,10,,,69,127
8274,note_off,0,0,0,,5,,,65,127
8275,note_on,1,0,0,,7,,,67,127
8275,note_on,0,0,0,,4,,,64,127
8354,note_off,79,0,0,,7,,,67,127
8355,note_on,1,0,0,,10,,,69,127
8434,note_off,79,0,0,,10,,,69,127
8435,note_on,1,0,0,,11,,,70,127
8593,note_off,158,0,0,,11,,,70,127
8593,note_off,0,0,0,,4,,,64,127
8594,note_on,1,0,0,,10,,,69,127
8594,note_on,0,0,0,,5,,,65,127
8900,note_off,306,0,0,,10,,,69,127
8911,note_off,11,0,0,,5,,,65,127
8912,note_on,1,0,0,,10,,,69,127
9230,note_on,318,0,0,,0,,,72,127
9547,note_off,317,0,0,,0,,,72,127
9547,note_off,0,0,0,,10,,,69,127
9548,note_on,1,0,0,,12,,,71,127
9548,note_on,0,0,0,,8,,,68,127
9627,note_off,79,0,0,,12,,,71,127
9628,note_on,1,0,0,,0,,,72,127
9707,note_off,79,0,0,,0,,,72,127
9708,note_on,1,0,0,,2,,,74,127
9866,note_off,158,0,0,,2,,,74,127
9866,note_off,0,0,0,,8,,,68,127
9867,note_on,1,0,0,,0,,,72,127
9867,note_on,0,0,0,,10,,,69,127
10181,note_off,314,0,0,,0,,,72,127
10183,note_off,2,0,0,,10,,,69,127
10184,note_on,1,0,0,,0,,,72,127
10502,note_on,318,0,0,,4,,,76,127
10819,note_off,317,0,0,,4,,,76,127
10819,note_off,0,0,0,,0,,,72,127
10820,note_on,1,0,0,,2,,,74,127
10820,note_on,0,0,0,,12,,,71,127
10899,note_off,79,0,0,,2,,,74,127
10900,note_on,1,0,0,,4,,,76,127
10979,note_off,79,0,0,,4,,,76,127
10980,note_on,1,0,0,,5,,,77,127
11138,note_off,158,0,0,,5,,,77,127
11138,note_off,0,0,0,,12,,,71,127
11139,note_on,1,0,0,,4,,,76,127
11139,note_on,0,0,0,,0,,,72,127
11456,note_off,317,0,0,,0,,,72,127
11457,note_on,1,0,0,,5,,,65,127
11774,note_off,317,0,0,,4,,,76,127
11775,note_on,1,0,0,,2,,,74,127
11775,note_on,0,0,0,,10,,,69,127
12092,note_off,317,0,0,,2,,,74,127
12092,note_off,0,0,0,,5,,,65,127
12093,note_on,1,0,0,,0,,,72,127
12093,note_on,0,0,0,,4,,,64,127
12410,note_off,317,0,0,,0,,,72,127
12410,note_off,0,0,0,,10,,,69,127
12411,note_on,1,0,0,,12,,,71,127
12411,note_on,0,0,0,,8,,,68,127
12728,note_off,317,0,0,,8,,,68,127
12728,note_off,0,0,0,,12,,,71,127
12728,note_off,0,0,0,,4,,,64,127
12729,note_on,1,0,0,,0,,,72,127
12729,note_on,0,0,0,,10,,,57,127
13046,note_off,317,0,0,,10,,,57,127
13046,note_off,0,0,0,,0,,,72,127
13047,note_on,1,0,0,,10,,,81,127
13047,note_on,0,0,0,,10,,,57,127
13364,note_off,317,0,0,,10,,,81,127
13365,note_on,1,0,0,,12,,,71,127
13682,note_off,317,0,0,,10,,,57,127
13683,note_on,1,0,0,,8,,,56,127
13841,note_off,158,0,0,,12,,,71,127
13842,note_on,1,0,0,,0,,,72,127
13921,note_off,79,0,0,,0,,,72,127
13922,note_on,1,0,0,,2,,,74,127
14001,note_off,79,0,0,,2,,,74,127
14001,note_off,0,0,0,,8,,,56,127
14002,note_on,1,0,0,,0,,,72,127
14002,note_on,0,0,0,,10,,,57,127
14319,note_off,317,0,0,,10,,,57,127
14319,note_off,0,0,0,,0,,,72,127
14320,note_on,1,0,0,,10,,,81,127
14320,note_on,0,0,0,,10,,,69,127
14637,note_off,317,0,0,,10,,,81,127
14638,note_on,1,0,0,,12,,,71,127
14955,note_off,317,0,0,,10,,,69,127
14956,note_on,1,0,0,,8,,,68,127
15114,note_off,158,0,0,,12,,,71,127
15115,note_on,1,0,0,,0,,,72,127
15194,note_off,79,0,0,,0,,,72,127
15195,note_on,1,0,0,,2,,,74,127
15274,note_off,79,0,0,,2,,,74,127
15274,note_off,0,0,0,,8,,,68,127
15275,note_on,1,0,0,,0,,,72,127
15275,note_on,0,0,0,,10,,,69,127
15592,note_off,317,0,0,,0,,,72,127
15593,note_on,1,0,0,,10,,,81,127
15910,note_off,317,0,0,,10,,,81,127
15911,note_on,1,0,0,,0,,,84,127
15990,note_off,79,0,0,,0,,,84,127
15991,note_on,1,0,0,,12,,,83,127
16070,note_off,79,0,0,,12,,,83,127
16071,note_on,1,0,0,,10,,,81,127
16088,note_off,17,0,0,,10,,,69,127
16230,note_on,142,0,0,,0,,,60,127
16547,note_off,317,0,0,,0,,,60,127
16547,note_off,0,0,0,,10,,,81,127
16548,note_on,1,0,0,,7,,,79,127
16548,note_on,0,0,0,,5,,,77,127
16548,note_on,0,0,0,,2,,,62,127
16627,note_off,79,0,0,,5,,,77,127
16627,note_off,0,0,0,,7,,,79,127
16628,note_on,1,0,0,,4,,,76,127
16707,note_off,79,0,0,,4,,,76,127
16708,note_on,1,0,0,,2,,,74,127
17184,note_off,476,0,0,,2,,,74,127
17185,note_on,1,0,0,,2,,,74,127
17185,note_on,0,0,0,,0,,,72,127
17264,note_off,79,0,0,,0,,,72,127
17264,note_off,0,0,0,,2,,,74,127
17265,note_on,1,0,0,,12,,,71,127
17344,note_off,79,0,0,,12,,,71,127
17345,note_on,1,0,0,,10,,,69,127
17503,note_off,158,0,0,,2,,,62,127
17504,note_on,1,0,0,,5,,,53,127
17821,note_off,317,0,0,,5,,,53,127
17821,note_off,0,0,0,,10,,,69,127
17822,note_on,1,0,0,,8,,,68,127
17822,note_on,0,0,0,,4,,,52,127
17901,note_off,79,0,0,,8,,,68,127
17902,note_on,1,0,0,,6,,,66,127
17981,note_off,79,0,0,,6,,,66,127
17982,note_on,1,0,0,,4,,,64,127
18118,note_off,136,0,0,,4,,,64,127
18141,note_on,23,0,0,,4,,,76,127
18458,note_off,317,0,0,,4,,,76,127
18459,note_on,1,0,0,,12,,,71,127
18776,note_off,317,0,0,,4,,,52,127
18777,note_on,1,0,0,,3,,,63,127
19094,note_off,317,0,0,,3,,,63,127
19095,note_on,1,0,0,,4,,,64,127
19412,note_off,317,0,0,,12,,,71,127
19413,note_on,1,0,0,,2,,,74,127
19492,note_off,79,0,0,,2,,,74,127
19493,note_on,1,0,0,,0,,,72,127
19572,note_off,79,0,0,,0,,,72,127
19573,note_on,1,0,0,,12,,,71,127
19652,note_off,79,0,0,,12,,,71,127
19653,note_on,1,0,0,,10,,,69,127
19732,note_off,79,0,0,,10,,,69,127
19733,note_on,1,0,0,,8,,,68,127
20050,note_off,317,0,0,,8,,,68,127
20050,note_off,0,0,0,,4,,,64,127
20051,note_on,1,0,0,,10,,,69,127
20051,note_on,0,0,0,,5,,,65,127
20368,note_off,317,0,0,,5,,,65,127
20368,note_off,0,0,0,,10,,,69,127
20369,note_on,1,0,0,,12,,,71,127
20369,note_on,0,0,0,,4,,,64,127
20675,note_off,306,0,0,,12,,,71,127
20687,note_on,12,0,0,,4,,,76,127
21004,note_off,317,0,0,,4,,,76,127
21005,note_on,1,0,0,,12,,,71,127
21322,note_off,317,0,0,,4,,,64,127
21323,note_on,1,0,0,,3,,,63,127
21640,note_off,317,0,0,,3,,,63,127
21641,note_on,1,0,0,,4,,,64,127
21958,note_off,317,0,0,,12,,,71,127
21959,note_on,1,0,0,,2,,,74,127
22038,note_off,79,0,0,,2,,,74,127
22039,note_on,1,0,0,,0,,,72,127
22118,note_off,79,0,0,,0,,,72,127
22119,note_on,1,0,0,,12,,,71,127
22198,note_off,79,0,0,,12,,,71,127
22199,note_on,1,0,0,,10,,,69,127
22278,note_off,79,0,0,,10,,,69,127
22279,note_on,1,0,0,,8,,,68,127
22596,note_off,317,0,0,,8,,,68,127
22596,note_off,0,0,0,,4,,,64,127
22597,note_on,1,0,0,,10,,,69,127
22597,note_on,0,0,0,,5,,,65,127
22914,note_off,317,0,0,,5,,,65,127
22914,note_off,0,0,0,,10,,,69,127
22915,note_on,1,0,0,,12,,,71,127
22915,note_on,0,0,0,,4,,,64,127
23232,note_off,317,0,0,,4,,,64,127
23232,note_off,0,0,0,,12,,,71,127
23233,note_on,1,0,0,,0,,,72,127
23233,note_on,0,0,0,,0,,,60,127
23312,note_off,79,0,0,,0,,,72,127
23313,note_on,1,0,0,,2,,,74,127
23392,note_off,79,0,0,,2,,,74,127
23393,note_on,1,0,0,,4,,,76,127
23551,note_off,158,0,0,,4,,,76,127
23551,note_off,0,0,0,,0,,,60,127
23552,note_on,1,0,0,,2,,,74,127
23552,note_on,0,0,0,,12,,,59,127
23869,note_off,317,0,0,,12,,,59,127
23869,note_off,0,0,0,,2,,,74,127
23870,note_on,1,0,0,,0,,,72,127
23870,note_on,0,0,0,,10,,,57,127
24187,note_off,317,0,0,,10,,,57,127
24187,note_off,0,0,0,,0,,,72,127
24188,note_on,1,0,0,,12,,,71,127
24188,note_on,0,0,0,,4,,,52,127
24489,note_off,301,0,0,,12,,,71,127
24505,note_off,16,0,0,,4,,,52,127
24506,note_on,1,0,0,,0,,,72,127
24506,note_on,0,0,0,,0,,,48,127
24612,note_off,106,0,0,,0,,,72,127
24612,note_on,0,0,0,,2,,,74,127
24718,note_off,106,0,0,,2,,,74,127
24718,note_on,0,0,0,,4,,,76,127
24823,note_off,105,0,0,,0,,,48,127
24824,note_off,1,0,0,,4,,,76,127
24824,note_on,0,0,0,,2,,,74,127
24824,note_on,0,0,0,,12,,,47,127
25141,note_off,317,0,0,,12,,,47,127
25141,note_off,0,0,0,,2,,,74,127
25142,note_on,1,0,0,,0,,,72,127
25142,note_on,0,0,0,,10,,,45,127
25459,note_off,317,0,0,,10,,,45,127
25459,note_off,0,0,0,,0,,,72,127
25460,note_on,1,0,0,,12,,,71,127
25460,note_on,0,0,0,,4,,,40,127
25618,note_off,158,0,0,,12,,,71,127
25619,note_on,1,0,0,,4,,,76,127
25777,note_off,158,0,0,,4,,,76,127
25778,note_on,1,0,0,,4,,,76,127
25936,note_off,158,0,0,,4,,,76,127
25936,note_off,0,0,0,,4,,,40,127
25937,note_on,1,0,0,,4,,,76,127
25937,note_on,0,0,0,,8,,,56,127
26095,note_off,158,0,0,,4,,,76,127
26096,note_on,1,0,0,,6,,,78,127
26254,note_off,158,0,0,,6,,,78,127
26255,note_on,1,0,0,,2,,,74,127
26413,note_off,158,0,0,,2,,,74,127
26413,note_off,0,0,0,,8,,,56,127
26414,note_on,1,0,0,,1,,,73,127
26414,note_on,0,0,0,,10,,,57,127
26572,note_off,158,0,0,,1,,,73,127
26573,note_on,1,0,0,,4,,,76,127
26731,note_off,158,0,0,,4,,,76,127
26732,note_on,1,0,0,,4,,,76,127
26890,note_off,158,0,0,,4,,,76,127
26890,note_off,0,0,0,,10,,,57,127
26891,note_on,1,0,0,,4,,,76,127
26891,note_on,0,0,0,,8,,,56,127
27049,note_off,158,0,0,,4,,,76,127
27050,note_on,1,0,0,,6,,,78,127
27208,note_off,158,0,0,,6,,,78,127
27209,note_on,1,0,0,,2,,,74,127
27367,note_off,158,0,0,,2,,,74,127
27367,note_off,0,0,0,,8,,,56,127
27368,note_on,1,0,0,,1,,,73,127
27368,note_on,0,0,0,,10,,,57,127
27526,note_off,158,0,0,,1,,,73,127
27527,note_on,1,0,0,,1,,,73,127
27685,note_off,158,0,0,,1,,,73,127
27686,note_on,1,0,0,,1,,,73,127
27844,note_off,158,0,0,,1,,,73,127
27844,note_off,0,0,0,,10,,,57,127
27845,note_on,1,0,0,,1,,,73,127
27845,note_on,0,0,0,,1,,,49,127
28003,note_off,158,0,0,,1,,,73,127
28004,note_on,1,0,0,,4,,,76,127
28162,note_off,158,0,0,,4,,,76,127
28163,note_on,1,0,0,,1,,,73,127
28321,note_off,158,0,0,,1,,,73,127
28321,note_off,0,0,0,,1,,,49,127
28322,note_on,1,0,0,,12,,,71,127
28322,note_on,0,0,0,,2,,,50,127
28480,note_off,158,0,0,,12,,,71,127
28481,note_on,1,0,0,,12,,,71,127
28639,note_off,158,0,0,,12,,,71,127
28640,note_on,1,0,0,,12,,,71,127
28798,note_off,158,0,0,,12,,,71,127
28798,note_off,0,0,0,,2,,,50,127
28799,note_on,1,0,0,,12,,,71,127
28799,note_on,0,0,0,,4,,,52,127
28957,note_off,158,0,0,,12,,,71,127
28958,note_on,1,0,0,,2,,,74,127
29116,note_off,158,0,0,,2,,,74,127
29117,note_on,1,0,0,,12,,,71,127
29275,note_off,158,0,0,,12,,,71,127
29275,note_off,0,0,0,,4,,,52,127
29276,note_on,1,0,0,,10,,,69,127
29276,note_on,0,0,0,,6,,,54,127
29435,note_on,159,0,0,,1,,,73,127
29514,note_off,79,0,0,,10,,,69,127
29593,note_off,79,0,0,,1,,,73,127
29594,note_on,1,0,0,,1,,,73,127
29752,note_off,158,0,0,,1,,,73,127
29752,note_off,0,0,0,,6,,,54,127
29753,note_on,1,0,0,,1,,,73,127
29753,note_on,0,0,0,,1,,,49,127
29911,note_off,158,0,0,,1,,,73,127
29912,note_on,1,0,0,,4,,,76,127
30070,note_off,158,0,0,,4,,,76,127
30071,note_on,1,0,0,,1,,,73,127
30229,note_off,158,0,0,,1,,,73,127
30229,note_off,0,0,0,,1,,,49,127
30230,note_on,1,0,0,,12,,,71,127
30230,note_on,0,0,0,,2,,,50,127
30388,note_off,158,0,0,,12,,,71,127
30389,note_on,1,0,0,,12,,,71,127
30547,note_off,158,0,0,,12,,,71,127
30548,note_on,1,0,0,,12,,,71,127
30706,note_off,158,0,0,,12,,,71,127
30706,note_off,0,0,0,,2,,,50,127
30707,note_on,1,0,0,,12,,,71,127
30707,note_on,0,0,0,,4,,,52,127
30865,note_off,158,0,0,,12,,,71,127
30866,note_on,1,0,0,,2,,,74,127
31024,note_off,158,0,0,,2,,,74,127
31025,note_on,1,0,0,,12,,,71,127
31183,note_off,158,0,0,,12,,,71,127
31183,note_off,0,0,0,,4,,,52,127
31184,note_on,1,0,0,,10,,,69,127
31184,note_on,0,0,0,,10,,,45,127
31342,note_off,158,0,0,,10,,,69,127
31343,note_on,1,0,0,,10,,,81,127
31501,note_off,158,0,0,,10,,,81,127
31502,note_on,1,0,0,,8,,,80,127
31660,note_off,158,0,0,,8,,,80,127
31660,note_off,0,0,0,,10,,,45,127
31661,note_on,1,0,0,,6,,,78,127
31661,note_on,0,0,0,,2,,,62,127
31819,note_off,158,0,0,,2,,,62,127
31819,note_off,0,0,0,,6,,,78,127
31820,note_on,1,0,0,,4,,,76,127
31820,note_on,0,0,0,,1,,,61,127
31978,note_off,158,0,0,,1,,,61,127
31978,note_off,0,0,0,,4,,,76,127
31979,note_on,1,0,0,,2,,,74,127
31979,note_on,0,0,0,,12,,,59,127
32137,note_off,158,0,0,,12,,,59,127
32137,note_off,0,0,0,,2,,,74,127
32138,note_on,1,0,0,,1,,,73,127
32138,note_on,0,0,0,,10,,,57,127
32296,note_off,158,0,0,,1,,,73,127
32297,note_on,1,0,0,,4,,,76,127
32455,note_off,158,0,0,,4,,,76,127
32456,note_on,1,0,0,,2,,,74,127
32614,note_off,158,0,0,,2,,,74,127
32614,note_off,0,0,0,,10,,,57,127
32615,note_on,1,0,0,,1,,,73,127
32615,note_on,0,0,0,,10,,,69,127
32773,note_off,158,0,0,,10,,,69,127
32773,note_off,0,0,0,,1,,,73,127
32774,note_on,1,0,0,,12,,,71,127
32774,note_on,0,0,0,,8,,,68,127
32932,note_off,158,0,0,,8,,,68,127
32932,note_off,0,0,0,,12,,,71,127
32933,note_on,1,0,0,,10,,,69,127
32933,note_on,0,0,0,,6,,,66,127
33091,note_off,158,0,0,,6,,,66,127
33091,note_off,0,0,0,,10,,,69,127
33092,note_on,1,0,0,,3,,,75,127
33092,note_on,0,0,0,,4,,,52,127
33250,note_off,158,0,0,,4,,,52,127
33250,note_off,0,0,0,,3,,,75,127
33251,note_on,1,0,0,,4,,,76,127
33251,note_on,0,0,0,,4,,,64,127
33409,note_off,158,0,0,,4,,,64,127
33410,note_on,1,0,0,,2,,,62,127
33568,note_off,158,0,0,,2,,,62,127
33568,note_off,0,0,0,,4,,,76,127
33569,note_on,1,0,0,,1,,,61,127
33621,note_off,52,0,0,,1,,,61,127
33622,note_on,1,0,0,,2,,,62,127
33674,note_off,52,0,0,,2,,,62,127
33675,note_on,1,0,0,,1,,,61,127
33727,note_off,52,0,0,,1,,,61,127
33728,note_on,1,0,0,,12,,,59,127
33886,note_off,158,0,0,,12,,,59,127
33887,note_on,1,0,0,,10,,,57,127
34045,note_off,158,0,0,,10,,,57,127
34046,note_on,1,0,0,,3,,,75,127
34046,note_on,0,0,0,,4,,,52,127
34204,note_off,158,0,0,,4,,,52,127
34204,note_off,0,0,0,,3,,,75,127
34205,note_on,1,0,0,,4,,,76,127
34205,note_on,0,0,0,,4,,,64,127
34363,note_off,158,0,0,,4,,,64,127
34364,note_on,1,0,0,,2,,,62,127
34522,note_off,158,0,0,,2,,,62,127
34522,note_off,0,0,0,,4,,,76,127
34523,note_on,1,0,0,,1,,,61,127
34575,note_off,52,0,0,,1,,,61,127
34576,note_on,1,0,0,,2,,,62,127
34628,note_off,52,0,0,,2,,,62,127
34629,note_on,1,0,0,,1,,,61,127
34681,note_off,52,0,0,,1,,,61,127
34682,note_on,1,0,0,,12,,,59,127
34840,note_off,158,0,0,,12,,,59,127
34841,note_on,1,0,0,,10,,,57,127
34999,note_off,158,0,0,,10,,,57,127
35000,note_on,1,0,0,,3,,,75,127
35000,note_on,0,0,0,,4,,,52,127
35158,note_off,158,0,0,,4,,,52,127
35158,note_off,0,0,0,,3,,,75,127
35159,note_on,1,0,0,,4,,,76,127
35159,note_on,0,0,0,,6,,,54,127
35317,note_off,158,0,0,,6,,,54,127
35318,note_on,1,0,0,,8,,,56,127
35424,note_off,106,0,0,,4,,,76,127
35476,note_off,52,0,0,,8,,,56,127
35477,note_on,1,0,0,,1,,,73,127
35477,note_on,0,0,0,,10,,,57,127
35635,note_off,158,0,0,,10,,,57,127
35635,note_off,0,0,0,,1,,,73,127
35636,note_on,1,0,0,,2,,,74,127
35636,note_on,0,0,0,,12,,,59,127
35794,note_off,158,0,0,,12,,,59,127
35794,note_off,0,0,0,,2,,,74,127
35795,note_on,1,0,0,,4,,,76,127
35795,note_on,0,0,0,,1,,,61,127
35953,note_off,158,0,0,,1,,,61,127
35953,note_off,0,0,0,,4,,,76,127
35954,note_on,1,0,0,,6,,,78,127
35954,note_on,0,0,0,,2,,,62,127
36112,note_off,158,0,0,,6,,,78,127
36113,note_on,1,0,0,,8,,,80,127
36271,note_off,158,0,0,,8,,,80,127
36272,note_on,1,0,0,,10,,,81,127
36430,note_off,158,0,0,,10,,,81,127
36430,note_off,0,0,0,,2,,,62,127
36431,note_on,1,0,0,,12,,,71,127
36431,note_on,0,0,0,,4,,,64,127
36589,note_off,158,0,0,,12,,,71,127
36590,note_on,1,0,0,,1,,,73,127
36748,note_off,158,0,0,,1,,,73,127
36749,note_on,1,0,0,,2,,,74,127
36907,note_off,158,0,0,,2,,,74,127
36907,note_off,0,0,0,,4,,,64,127
36908,note_on,1,0,0,,1,,,73,127
36908,note_on,0,0,0,,10,,,57,127
37066,note_off,158,0,0,,1,,,73,127
37067,note_on,1,0,0,,4,,,76,127
37225,note_off,158,0,0,,4,,,76,127
37226,note_on,1,0,0,,2,,,74,127
37384,note_off,158,0,0,,2,,,74,127
37384,note_off,0,0,0,,10,,,57,127
37385,note_on,1,0,0,,1,,,73,127
37385,note_on,0,0,0,,10,,,69,127
37543,note_off,158,0,0,,10,,,69,127
37543,note_off,0,0,0,,1,,,73,127
37544,note_on,1,0,0,,12,,,71,127
37544,note_on,0,0,0,,8,,,68,127
37702,note_off,158,0,0,,8,,,68,127
37702,note_off,0,0,0,,12,,,71,127
37703,note_on,1,0,0,,10,,,69,127
37703,note_on,0,0,0,,6,,,66,127
37861,note_off,158,0,0,,6,,,66,127
37861,note_off,0,0,0,,10,,,69,127
37862,note_on,1,0,0,,3,,,75,127
37862,note_on,0,0,0,,4,,,52,127
38020,note_off,158,0,0,,4,,,52,127
38020,note_off,0,0,0,,3,,,75,127
38021,note_on,1,0,0,,4,,,76,127
38021,note_on,0,0,0,,4,,,64,127
38179,note_off,158,0,0,,4,,,64,127
38180,note_on,1,0,0,,2,,,62,127
38338,note_off,158,0,0,,2,,,62,127
38339,note_on,1,0,0,,1,,,61,127
38391,note_off,52,0,0,,1,,,61,127
38392,note_on,1,0,0,,2,,,62,127
38444,note_off,52,0,0,,2,,,62,127
38445,note_on,1,0,0,,1,,,61,127
38497,note_off,52,0,0,,1,,,61,127
38497,note_off,0,0,0,,4,,,76,127
38498,note_on,1,0,0,,12,,,59,127
38656,note_off,158,0,0,,12,,,59,127
38657,note_on,1,0,0,,10,,,57,127
38815,note_off,158,0,0,,10,,,57,127
38816,note_on,1,0,0,,3,,,75,127
38816,note_on,0,0,0,,4,,,52,127
38974,note_off,158,0,0,,4,,,52,127
38974,note_off,0,0,0,,3,,,75,127
38975,note_on,1,0,0,,4,,,76,127
38975,note_on,0,0,0,,4,,,64,127
39133,note_off,158,0,0,,4,,,64,127
39134,note_on,1,0,0,,2,,,62,127
39292,note_off,158,0,0,,2,,,62,127
39293,note_on,1,0,0,,1,,,61,127
39345,note_off,52,0,0,,1,,,61,127
39346,note_on,1,0,0,,2,,,62,127
39398,note_off,52,0,0,,2,,,62,127
39399,note_on,1,0,0,,1,,,61,127
39451,note_off,52,0,0,,1,,,61,127
39451,note_off,0,0,0,,4,,,76,127
39452,note_on,1,0,0,,12,,,59,127
39610,note_off,158,0,0,,12,,,59,127
39611,note_on,1,0,0,,10,,,57,127
39769,note_off,158,0,0,,10,,,57,127
39770,note_on,1,0,0,,3,,,75,127
39770,note_on,0,0,0,,4,,,52,127
39928,note_off,158,0,0,,4,,,52,127
39928,note_off,0,0,0,,3,,,75,127
39929,note_on,1,0,0,,4,,,76,127
39929,note_on,0,0,0,,6,,,54,127
40087,note_off,158,0,0,,6,,,54,127
40088,note_on,1,0,0,,8,,,56,127
40167,note_off,79,0,0,,4,,,76,127
40246,note_off,79,0,0,,8,,,56,127
40247,note_on,1,0,0,,1,,,73,127
40247,note_on,0,0,0,,10,,,57,127
40405,note_off,158,0,0,,10,,,57,127
40405,note_off,0,0,0,,1,,,73,127
40406,note_on,1,0,0,,2,,,74,127
40406,note_on,0,0,0,,12,,,59,127
40564,note_off,158,0,0,,12,,,59,127
40564,note_off,0,0,0,,2,,,74,127
40565,note_on,1,0,0,,4,,,76,127
40565,note_on,0,0,0,,1,,,61,127
40723,note_off,158,0,0,,1,,,61,127
40723,note_off,0,0,0,,4,,,76,127
40724,note_on,1,0,0,,6,,,78,127
40724,note_on,0,0,0,,2,,,62,127
40882,note_off,158,0,0,,6,,,78,127
40883,note_on,1,0,0,,8,,,80,127
41041,note_off,158,0,0,,8,,,80,127
41042,note_on,1,0,0,,10,,,81,127
41200,note_off,158,0,0,,10,,,81,127
41200,note_off,0,0,0,,2,,,62,127
41201,note_on,1,0,0,,12,,,71,127
41201,note_on,0,0,0,,4,,,64,127
41359,note_off,158,0,0,,12,,,71,127
41360,note_on,1,0,0,,1,,,73,127
41518,note_off,158,0,0,,1,,,73,127
41519,note_on,1,0,0,,2,,,74,127
41677,note_off,158,0,0,,2,,,74,127
41677,note_off,0,0,0,,4,,,64,127
41678,note_on,1,0,0,,1,,,73,127
41678,note_on,0,0,0,,10,,,57,127
41837,note_on,159,0,0,,6,,,78,127
41860,note_off,23,0,0,,1,,,73,127
41995,note_off,135,0,0,,6,,,78,127
41996,note_on,1,0,0,,4,,,76,127
42154,note_off,158,0,0,,10,,,57,127
42155,note_on,1,0,0,,1,,,61,127
42313,note_off,158,0,0,,4,,,76,127
42314,note_on,1,0,0,,1,,,73,127
42472,note_off,158,0,0,,1,,,73,127
42473,note_on,1,0,0,,10,,,69,127
42631,note_off,158,0,0,,10,,,69,127
42631,note_off,0,0,0,,1,,,61,127
42632,note_on,1,0,0,,12,,,71,127
42632,note_on,0,0,0,,2,,,62,127
42791,note_on,159,0,0,,4,,,76,127
42814,note_off,23,0,0,,12,,,71,127
42949,note_off,135,0,0,,4,,,76,127
42950,note_on,1,0,0,,2,,,74,127
43108,note_off,158,0,0,,2,,,62,127
43109,note_on,1,0,0,,4,,,64,127
43267,note_off,158,0,0,,2,,,74,127
43268,note_on,1,0,0,,12,,,71,127
43426,note_off,158,0,0,,12,,,71,127
43427,note_on,1,0,0,,8,,,68,127
43585,note_off,158,0,0,,8,,,68,127
43585,note_off,0,0,0,,4,,,64,127
43586,note_on,1,0,0,,10,,,69,127
43586,note_on,0,0,0,,10,,,57,127
43745,note_on,159,0,0,,6,,,78,127
43768,note_off,23,0,0,,10,,,69,127
43903,note_off,135,0,0,,6,,,78,127
43904,note_on,1,0,0,,4,,,76,127
44062,note_off,158,0,0,,10,,,57,127
44063,note_on,1,0,0,,1,,,61,127
44221,note_off,158,0,0,,4,,,76,127
44222,note_on,1,0,0,,1,,,73,127
44380,note_off,158,0,0,,1,,,73,127
44381,note_on,1,0,0,,10,,,69,127
44539,note_off,158,0,0,,10,,,69,127
44539,note_off,0,0,0,,1,,,61,127
44540,note_on,1,0,0,,12,,,71,127
44540,note_on,0,0,0,,2,,,62,127
44699,note_on,159,0,0,,4,,,76,127
44722,note_off,23,0,0,,12,,,71,127
44857,note_off,135,0,0,,4,,,76,127
44858,note_on,1,0,0,,2,,,74,127
45016,note_off,158,0,0,,2,,,62,127
45017,note_on,1,0,0,,4,,,64,127
45175,note_off,158,0,0,,2,,,74,127
45176,note_on,1,0,0,,12,,,71,127
45334,note_off,158,0,0,,12,,,71,127
45335,note_on,1,0,0,,8,,,68,127
45493,note_off,158,0,0,,8,,,68,127
45493,note_off,0,0,0,,4,,,64,127
45494,note_on,1,0,0,,10,,,69,127
45494,note_on,0,0,0,,10,,,57,127
45652,note_off,158,0,0,,10,,,69,127
45653,note_on,1,0,0,,4,,,76,127
45811,note_off,158,0,0,,4,,,76,127
45812,note_on,1,0,0,,4,,,76,127
45970,note_off,158,0,0,,4,,,76,127
45970,note_off,0,0,0,,10,,,57,127
45971,note_on,1,0,0,,1,,,73,127
45971,note_on,0,0,0,,10,,,57,127
46129,note_off,158,0,0,,1,,,73,127
46130,note_on,1,0,0,,10,,,81,127
46288,note_off,158,0,0,,10,,,81,127
46289,note_on,1,0,0,,10,,,81,127
46447,note_off,158,0,0,,10,,,81,127
46447,note_off,0,0,0,,10,,,57,127
46448,note_on,1,0,0,,6,,,78,127
46448,note_on,0,0,0,,2,,,50,127
46606,note_off,158,0,0,,6,,,78,127
46607,note_on,1,0,0,,2,,,74,127
46765,note_off,158,0,0,,2,,,74,127
46766,note_on,1,0,0,,12,,,71,127
46924,note_off,158,0,0,,12,,,71,127
46924,note_off,0,0,0,,2,,,50,127
46925,note_on,1,0,0,,10,,,69,127
46925,note_on,0,0,0,,4,,,52,127
47083,note_off,158,0,0,,10,,,69,127
47084,note_on,1,0,0,,10,,,69,127
47136,note_off,52,0,0,,10,,,69,127
47137,note_on,1,0,0,,8,,,68,127
47189,note_off,52,0,0,,8,,,68,127
47190,note_on,1,0,0,,10,,,69,127
47242,note_off,52,0,0,,10,,,69,127
47243,note_on,1,0,0,,8,,,68,127
47295,note_off,52,0,0,,8,,,68,127
47296,note_on,1,0,0,,6,,,66,127
47348,note_off,52,0,0,,6,,,66,127
47349,note_on,1,0,0,,8,,,68,127
47401,note_off,52,0,0,,8,,,68,127
47401,note_off,0,0,0,,4,,,52,127
47402,note_on,1,0,0,,10,,,69,127
47402,note_on,0,0,0,,10,,,45,127
47560,note_off,158,0,0,,10,,,69,127
47561,note_on,1,0,0,,4,,,76,127
47719,note_off,158,0,0,,4,,,76,127
47720,note_on,1,0,0,,4,,,76,127
47878,note_off,158,0,0,,4,,,76,127
47878,note_off,0,0,0,,10,,,45,127
47879,note_on,1,0,0,,1,,,73,127
47879,note_on,0,0,0,,10,,,57,127
48037,note_off,158,0,0,,1,,,73,127
48038,note_on,1,0,0,,10,,,81,127
48196,note_off,158,0,0,,10,,,81,127
48197,note_on,1,0,0,,10,,,81,127
48355,note_off,158,0,0,,10,,,81,127
48355,note_off,0,0,0,,10,,,57,127
48356,note_on,1,0,0,,6,,,78,127
48356,note_on,0,0,0,,2,,,50,127
48514,note_off,158,0,0,,6,,,78,127
48515,note_on,1,0,0,,2,,,74,127
48673,note_off,158,0,0,,2,,,74,127
48674,note_on,1,0,0,,12,,,71,127
48832,note_off,158,0,0,,12,,,71,127
48832,note_off,0,0,0,,2,,,50,127
48833,note_on,1,0,0,,10,,,69,127
48833,note_on,0,0,0,,4,,,52,127
48991,note_off,158,0,0,,10,,,69,127
48992,note_on,1,0,0,,10,,,69,127
49044,note_off,52,0,0,,10,,,69,127
49045,note_on,1,0,0,,8,,,68,127
49097,note_off,52,0,0,,8,,,68,127
49098,note_on,1,0,0,,10,,,69,127
49150,note_off,52,0,0,,10,,,69,127
49151,note_on,1,0,0,,8,,,68,127
49203,note_off,52,0,0,,8,,,68,127
49204,note_on,1,0,0,,6,,,66,127
49256,note_off,52,0,0,,6,,,66,127
49257,note_on,1,0,0,,8,,,68,127
49309,note_off,52,0,0,,8,,,68,127
49309,note_off,0,0,0,,4,,,52,127
49310,note_on,1,0,0,,10,,,69,127
49310,note_on,0,0,0,,10,,,45,127
49627,note_off,317,0,0,,10,,,45,127
49627,note_off,0,0,0,,10,,,69,127
49628,note_on,1,0,0,,10,,,81,127
49628,note_on,0,0,0,,10,,,57,127
49945,note_off,317,0,0,,10,,,81,127
49946,note_on,1,0,0,,12,,,71,127
50263,note_off,317,0,0,,10,,,57,127
50264,note_on,1,0,0,,8,,,56,127
50422,note_off,158,0,0,,12,,,71,127
50423,note_on,1,0,0,,1,,,73,127
50502,note_off,79,0,0,,1,,,73,127
50503,note_on,1,0,0,,2,,,74,127
50582,note_off,79,0,0,,2,,,74,127
50582,note_off,0,0,0,,8,,,56,127
50583,note_on,1,0,0,,1,,,73,127
50583,note_on,0,0,0,,10,,,57,127
50900,note_off,317,0,0,,10,,,57,127
50900,note_off,0,0,0,,1,,,73,127
50901,note_on,1,0,0,,10,,,81,127
50901,note_on,0,0,0,,10,,,69,127
51218,note_off,317,0,0,,10,,,81,127
51219,note_on,1,0,0,,12,,,71,127
51536,note_off,317,0,0,,10,,,69,127
51537,note_on,1,0,0,,8,,,68,127
51695,note_off,158,0,0,,12,,,71,127
51696,note_on,1,0,0,,1,,,73,127
51775,note_off,79,0,0,,1,,,73,127
51776,note_on,1,0,0,,2,,,74,127
51855,note_off,79,0,0,,2,,,74,127
51855,note_off,0,0,0,,8,,,68,127
51856,note_on,1,0,0,,1,,,73,127
51856,note_on,0,0,0,,10,,,69,127
52173,note_off,317,0,0,,1,,,73,127
52174,note_on,1,0,0,,10,,,81,127
52332,note_off,158,0,0,,10,,,69,127
52491,note_off,159,0,0,,10,,,81,127
52492,note_on,1,0,0,,0,,,84,127
52571,note_off,79,0,0,,0,,,84,127
52572,note_on,1,0,0,,12,,,83,127
52651,note_off,79,0,0,,12,,,83,127
52652,note_on,1,0,0,,10,,,81,127
52811,note_on,159,0,0,,0,,,60,127
53128,note_off,317,0,0,,0,,,60,127
53128,note_off,0,0,0,,10,,,81,127
53129,note_on,1,0,0,,5,,,77,127
53129,note_on,0,0,0,,7,,,79,127
53129,note_on,0,0,0,,2,,,62,127
53208,note_off,79,0,0,,7,,,79,127
53208,note_off,0,0,0,,5,,,77,127
53209,note_on,1,0,0,,4,,,76,127
53288,note_off,79,0,0,,4,,,76,127
53289,note_on,1,0,0,,2,,,74,127
53447,note_off,158,0,0,,2,,,62,127
53448,note_on,1,0,0,,5,,,65,127
53765,note_off,317,0,0,,5,,,65,127
53765,note_off,0,0,0,,2,,,74,127
53766,note_on,1,0,0,,2,,,74,127
53766,note_on,0,0,0,,0,,,72,127
53766,note_on,0,0,0,,4,,,64,127
53845,note_off,79,0,0,,0,,,72,127
53845,note_off,0,0,0,,2,,,74,127
53846,note_on,1,0,0,,12,,,71,127
53925,note_off,79,0,0,,12,,,71,127
53926,note_on,1,0,0,,10,,,69,127
54084,note_off,158,0,0,,10,,,69,127
54084,note_off,0,0,0,,4,,,64,127
54085,note_on,1,0,0,,8,,,68,127
54085,note_on,0,0,0,,2,,,62,127
54402,note_off,317,0,0,,2,,,62,127
54402,note_off,0,0,0,,8,,,68,127
54403,note_on,1,0,0,,10,,,69,127
54403,note_on,0,0,0,,0,,,60,127
54709,note_off,306,0,0,,10,,,69,127
54720,note_off,11,0,0,,0,,,60,127
54721,note_on,1,0,0,,5,,,77,127
54721,note_on,0,0,0,,2,,,62,127
55038,note_off,317,0,0,,2,,,62,127
55039,note_on,1,0,0,,0,,,60,127
55356,note_off,317,0,0,,0,,,60,127
55357,note_on,1,0,0,,12,,,59,127
55515,note_off,158,0,0,,5,,,77,127
55516,note_on,1,0,0,,4,,,76,127
55595,note_off,79,0,0,,4,,,76,127
55596,note_on,1,0,0,,2,,,74,127
55675,note_off,79,0,0,,2,,,74,127
55675,note_off,0,0,0,,12,,,59,127
55676,note_on,1,0,0,,0,,,72,127
55676,note_on,0,0,0,,10,,,57,127
55974,note_off,298,0,0,,0,,,72,127
55993,note_off,19,0,0,,10,,,57,127
55994,note_on,1,0,0,,2,,,74,127
55994,note_on,0,0,0,,2,,,50,127
56311,note_off,317,0,0,,2,,,50,127
56312,note_on,1,0,0,,4,,,52,127
56630,note_on,318,0,0,,4,,,40,127
56788,note_off,158,0,0,,2,,,74,127
56789,note_on,1,0,0,,0,,,72,127
56868,note_off,79,0,0,,0,,,72,127
56869,note_on,1,0,0,,12,,,71,127
56945,note_off,76,0,0,,4,,,40,127
56947,note_off,2,0,0,,12,,,71,127
56947,note_off,0,0,0,,4,,,52,127
56948,note_on,1,0,0,,10,,,69,127
57246,note_off,298,0,0,,10,,,69,127
57266,note_on,20,0,0,,5,,,77,127
57266,note_on,0,0,0,,2,,,62,127
57583,note_off,317,0,0,,2,,,62,127
57584,note_on,1,0,0,,0,,,60,127
57901,note_off,317,0,0,,0,,,60,127
57902,note_on,1,0,0,,12,,,59,127
58060,note_off,158,0,0,,5,,,77,127
58061,note_on,1,0,0,,4,,,76,127
58140,note_off,79,0,0,,4,,,76,127
58141,note_on,1,0,0,,2,,,74,127
58220,note_off,79,0,0,,2,,,74,127
58220,note_off,0,0,0,,12,,,59,127
58221,note_on,1,0,0,,0,,,72,127
58221,note_on,0,0,0,,10,,,57,127
58519,note_off,298,0,0,,0,,,72,127
58538,note_off,19,0,0,,10,,,57,127
58539,note_on,1,0,0,,2,,,74,127
58539,note_on,0,0,0,,2,,,50,127
58856,note_off,317,0,0,,2,,,50,127
58857,note_on,1,0,0,,4,,,52,127
59175,note_on,318,0,0,,4,,,40,127
59333,note_off,158,0,0,,2,,,74,127
59334,note_on,1,0,0,,0,,,72,127
59413,note_off,79,0,0,,0,,,72,127
59414,note_on,1,0,0,,12,,,71,127
59490,note_off,76,0,0,,4,,,40,127
59492,note_off,2,0,0,,12,,,71,127
59492,note_off,0,0,0,,4,,,52,127
59493,note_on,1,0,0,,10,,,69,127
59810,note_off,317,0,0,,10,,,69,127
59811,note_on,1,0,0,,12,,,71,127
59811,note_on,0,0,0,,5,,,53,127
59890,note_off,79,0,0,,12,,,71,127
59891,note_on,1,0,0,,0,,,72,127
59970,note_off,79,0,0,,0,,,72,127
59971,note_on,1,0,0,,2,,,74,127
60129,note_off,158,0,0,,2,,,74,127
60129,note_off,0,0,0,,5,,,53,127
60130,note_on,1,0,0,,0,,,72,127
60130,note_on,0,0,0,,4,,,52,127
60288,note_off,158,0,0,,0,,,72,127
60289,note_on,1,0,0,,10,,,69,127
60447,note_off,158,0,0,,10,,,69,127
60447,note_off,0,0,0,,4,,,52,127
60448,note_on,1,0,0,,12,,,71,127
60448,note_on,0,0,0,,2,,,50,127
60606,note_off,158,0,0,,12,,,71,127
60607,note_on,1,0,0,,8,,,68,127
60765,note_off,158,0,0,,8,,,68,127
60765,note_off,0,0,0,,2,,,50,127
60766,note_on,1,0,0,,10,,,81,127
60766,note_on,0,0,0,,0,,,48,127
60924,note_off,158,0,0,,10,,,81,127
60925,note_on,1,0,0,,4,,,76,127
61083,note_off,158,0,0,,4,,,76,127
61083,note_off,0,0,0,,0,,,48,127
61084,note_on,1,0,0,,5,,,77,127
61084,note_on,0,0,0,,2,,,50,127
61242,note_off,158,0,0,,5,,,77,127
61243,note_on,1,0,0,,2,,,74,127
61401,note_off,158,0,0,,2,,,74,127
61401,note_off,0,0,0,,2,,,50,127
61402,note_on,1,0,0,,4,,,76,127
61402,note_on,0,0,0,,0,,,72,127
61402,note_on,0,0,0,,10,,,81,127
61402,note_on,0,0,0,,4,,,52,127
61719,note_off,317,0,0,,10,,,81,127
61719,note_off,0,0,0,,0,,,72,127
61719,note_off,0,0,0,,4,,,76,127
61720,note_on,1,0,0,,8,,,80,127
61720,note_on,0,0,0,,2,,,74,127
61720,note_on,0,0,0,,12,,,71,127
61720,note_on,0,0,0,,4,,,76,127
61720,note_on,0,0,0,,4,,,40,127
62037,note_off,317,0,0,,4,,,40,127
62037,note_off,0,0,0,,4,,,76,127
62037,note_off,0,0,0,,12,,,71,127
62037,note_off,0,0,0,,2,,,74,127
62037,note_off,0,0,0,,8,,,80,127
62037,note_off,0,0,0,,4,,,52,127
62038,note_on,1,0,0,,10,,,57,127
62356,note_on,318,0,0,,10,,,69,127
62356,note_on,0,0,0,,10,,,81,127
62673,note_off,317,0,0,,10,,,81,127
62674,note_on,1,0,0,,4,,,76,127
62985,note_off,311,0,0,,10,,,69,127
62992,note_on,7,0,0,,10,,,69,127
63309,note_off,317,0,0,,4,,,76,127
63310,note_on,1,0,0,,4,,,76,127
63621,note_off,311,0,0,,10,,,69,127
63627,note_off,6,0,0,,10,,,57,127
63628,note_on,1,0,0,,10,,,69,127
63945,note_off,317,0,0,,10,,,69,127
63945,note_off,0,0,0,,4,,,76,127
63946,note_on,1,0,0,,1,,,73,127
63946,note_on,0,0,0,,7,,,67,127
64025,note_off,79,0,0,,1,,,73,127
64026,note_on,1,0,0,,2,,,74,127
64105,note_off,79,0,0,,2,,,74,127
64106,note_on,1,0,0,,4,,,76,127
64264,note_off,158,0,0,,7,,,67,127
64265,note_on,1,0,0,,4,,,64,127
64582,note_off,317,0,0,,4,,,64,127
64582,note_off,0,0,0,,4,,,76,127
64583,note_on,1,0,0,,2,,,74,127
64583,note_on,0,0,0,,5,,,65,127
64662,note_off,79,0,0,,2,,,74,127
64663,note_on,1,0,0,,4,,,76,127
64742,note_off,79,0,0,,4,,,76,127
64743,note_on,1,0,0,,5,,,77,127
64901,note_off,158,0,0,,5,,,65,127
64902,note_on,1,0,0,,2,,,62,127
65219,note_off,317,0,0,,2,,,62,127
65219,note_off,0,0,0,,5,,,77,127
65220,note_on,1,0,0,,4,,,76,127
65220,note_on,0,0,0,,1,,,61,127
65299,note_off,79,0,0,,4,,,76,127
65300,note_on,1,0,0,,5,,,77,127
65379,note_off,79,0,0,,5,,,77,127
65380,note_on,1,0,0,,7,,,79,127
65538,note_off,158,0,0,,1,,,61,127
65539,note_on,1,0,0,,10,,,57,127
65856,note_off,317,0,0,,10,,,57,127
65856,note_off,0,0,0,,7,,,79,127
65857,note_on,1,0,0,,5,,,77,127
65857,note_on,0,0,0,,2,,,62,127
65936,note_off,79,0,0,,5,,,77,127
65937,note_on,1,0,0,,4,,,76,127
66016,note_off,79,0,0,,4,,,76,127
66017,note_on,1,0,0,,2,,,74,127
66175,note_off,158,0,0,,2,,,74,127
66175,note_off,0,0,0,,2,,,62,127
66176,note_on,1,0,0,,10,,,81,127
66176,note_on,0,0,0,,2,,,62,127
66493,note_off,317,0,0,,10,,,81,127
66494,note_on,1,0,0,,7,,,79,127
66652,note_off,158,0,0,,7,,,79,127
66653,note_on,1,0,0,,5,,,77,127
66811,note_off,158,0,0,,5,,,77,127
66811,note_off,0,0,0,,2,,,62,127
66812,note_on,1,0,0,,4,,,76,127
66812,note_on,0,0,0,,4,,,64,127
67129,note_off,317,0,0,,4,,,64,127
67129,note_off,0,0,0,,4,,,76,127
67130,note_on,1,0,0,,2,,,74,127
67130,note_on,0,0,0,,5,,,65,127
67447,note_off,317,0,0,,5,,,65,127
67447,note_off,0,0,0,,2,,,74,127
67448,note_on,1,0,0,,0,,,72,127
67448,note_on,0,0,0,,10,,,69,127
67765,note_off,317,0,0,,10,,,69,127
67765,note_off,0,0,0,,0,,,72,127
67766,note_on,1,0,0,,0,,,72,127
67766,note_on,0,0,0,,7,,,67,127
67845,note_off,79,0,0,,0,,,72,127
67846,note_on,1,0,0,,12,,,71,127
67925,note_off,79,0,0,,12,,,71,127
67926,note_on,1,0,0,,0,,,72,127
68005,note_off,79,0,0,,0,,,72,127
68006,note_on,1,0,0,,12,,,71,127
68085,note_off,79,0,0,,12,,,71,127
68085,note_off,0,0,0,,7,,,67,127
68086,note_on,1,0,0,,0,,,72,127
68086,note_on,0,0,0,,5,,,65,127
68165,note_off,79,0,0,,0,,,72,127
68166,note_on,1,0,0,,12,,,71,127
68245,note_off,79,0,0,,12,,,71,127
68246,note_on,1,0,0,,10,,,69,127
68325,note_off,79,0,0,,10,,,69,127
68326,note_on,1,0,0,,12,,,71,127
68405,note_off,79,0,0,,12,,,71,127
68405,note_off,0,0,0,,5,,,65,127
68406,note_on,1,0,0,,0,,,72,127
68406,note_on,0,0,0,,4,,,64,127
68485,note_off,79,0,0,,0,,,72,127
68486,note_on,1,0,0,,2,,,74,127
68565,note_off,79,0,0,,2,,,74,127
68566,note_on,1,0,0,,4,,,76,127
68724,note_off,158,0,0,,4,,,64,127
68725,note_on,1,0,0,,0,,,60,127
69042,note_off,317,0,0,,0,,,60,127
69042,note_off,0,0,0,,4,,,76,127
69043,note_on,1,0,0,,2,,,74,127
69043,note_on,0,0,0,,12,,,59,127
69122,note_off,79,0,0,,2,,,74,127
69123,note_on,1,0,0,,4,,,76,127
69202,note_off,79,0,0,,4,,,76,127
69203,note_on,1,0,0,,5,,,77,127
69361,note_off,158,0,0,,12,,,59,127
69362,note_on,1,0,0,,7,,,55,127
69679,note_off,317,0,0,,7,,,55,127
69679,note_off,0,0,0,,5,,,77,127
69680,note_on,1,0,0,,4,,,76,127
69680,note_on,0,0,0,,0,,,60,127
69759,note_off,79,0,0,,4,,,76,127
69760,note_on,1,0,0,,2,,,74,127
69839,note_off,79,0,0,,2,,,74,127
69840,note_on,1,0,0,,0,,,72,127
69998,note_off,158,0,0,,0,,,72,127
69998,note_off,0,0,0,,0,,,60,127
69999,note_on,1,0,0,,7,,,79,127
69999,note_on,0,0,0,,0,,,60,127
70316,note_off,317,0,0,,7,,,79,127
70317,note_on,1,0,0,,5,,,77,127
70475,note_off,158,0,0,,5,,,77,127
70476,note_on,1,0,0,,4,,,76,127
70634,note_off,158,0,0,,4,,,76,127
70634,note_off,0,0,0,,0,,,60,127
70635,note_on,1,0,0,,2,,,74,127
70635,note_on,0,0,0,,2,,,62,127
70952,note_off,317,0,0,,2,,,62,127
70952,note_off,0,0,0,,2,,,74,127
70953,note_on,1,0,0,,0,,,72,127
70953,note_on,0,0,0,,4,,,64,127
71270,note_off,317,0,0,,4,,,64,127
71271,note_on,1,0,0,,5,,,65,127
71588,note_off,317,0,0,,5,,,65,127
71588,note_off,0,0,0,,0,,,72,127
71589,note_on,1,0,0,,0,,,72,127
71589,note_on,0,0,0,,7,,,67,127
71668,note_off,79,0,0,,0,,,72,127
71669,note_on,1,0,0,,11,,,70,127
71748,note_off,79,0,0,,11,,,70,127
71749,note_on,1,0,0,,0,,,72,127
71828,note_off,79,0,0,,0,,,72,127
71829,note_on,1,0,0,,11,,,70,127
71908,note_off,79,0,0,,11,,,70,127
71908,note_off,0,0,0,,7,,,67,127
71909,note_on,1,0,0,,0,,,72,127
71909,note_on,0,0,0,,4,,,64,127
71988,note_off,79,0,0,,0,,,72,127
71989,note_on,1,0,0,,11,,,70,127
72068,note_off,79,0,0,,11,,,70,127
72069,note_on,1,0,0,,10,,,69,127
72148,note_off,79,0,0,,10,,,69,127
72149,note_on,1,0,0,,11,,,70,127
72228,note_off,79,0,0,,11,,,70,127
72228,note_off,0,0,0,,4,,,64,127
72229,note_on,1,0,0,,10,,,69,127
72229,note_on,0,0,0,,5,,,65,127
72494,note_off,265,0,0,,10,,,69,127
72546,note_off,52,0,0,,5,,,65,127
72547,note_on,1,0,0,,5,,,77,127
72547,note_on,0,0,0,,5,,,53,127
72864,note_off,317,0,0,,5,,,77,127
72865,note_on,1,0,0,,7,,,67,127
73182,note_off,317,0,0,,5,,,53,127
73183,note_on,1,0,0,,4,,,52,127
73341,note_off,158,0,0,,7,,,67,127
73342,note_on,1,0,0,,10,,,69,127
73421,note_off,79,0,0,,10,,,69,127
73422,note_on,1,0,0,,11,,,70,127
73501,note_off,79,0,0,,11,,,70,127
73501,note_off,0,0,0,,4,,,52,127
73502,note_on,1,0,0,,10,,,69,127
73502,note_on,0,0,0,,5,,,53,127
73792,note_off,290,0,0,,10,,,69,127
73819,note_off,27,0,0,,5,,,53,127
73820,note_on,1,0,0,,5,,,77,127
73820,note_on,0,0,0,,5,,,65,127
74137,note_off,317,0,0,,5,,,77,127
74138,note_on,1,0,0,,7,,,67,127
74455,note_off,317,0,0,,5,,,65,127
74456,note_on,1,0,0,,4,,,64,127
74614,note_off,158,0,0,,7,,,67,127
74615,note_on,1,0,0,,10,,,69,127
74694,note_off,79,0,0,,10,,,69,127
74695,note_on,1,0,0,,11,,,70,127
74774,note_off,79,0,0,,11,,,70,127
74774,note_off,0,0,0,,4,,,64,127
74775,note_on,1,0,0,,10,,,69,127
74775,note_on,0,0,0,,5,,,65,127
75092,note_off,317,0,0,,10,,,69,127
75093,note_on,1,0,0,,5,,,77,127
75410,note_off,317,0,0,,5,,,77,127
75411,note_on,1,0,0,,5,,,77,127
75411,note_on,0,0,0,,3,,,75,127
75490,note_off,79,0,0,,3,,,75,127
75490,note_off,0,0,0,,5,,,77,127
75491,note_on,1,0,0,,2,,,74,127
75570,note_off,79,0,0,,2,,,74,127
75571,note_on,1,0,0,,1,,,73,127
75729,note_off,158,0,0,,5,,,65,127
75730,note_on,1,0,0,,10,,,57,127
76047,note_off,317,0,0,,10,,,57,127
76047,note_off,0,0,0,,1,,,73,127
76048,note_on,1,0,0,,2,,,74,127
76048,note_on,0,0,0,,11,,,58,127
76127,note_off,79,0,0,,2,,,74,127
76128,note_on,1,0,0,,0,,,72,127
76207,note_off,79,0,0,,0,,,72,127
76208,note_on,1,0,0,,11,,,70,127
76366,note_off,158,0,0,,11,,,58,127
76367,note_on,1,0,0,,2,,,62,127
76684,note_off,317,0,0,,2,,,62,127
76684,note_off,0,0,0,,11,,,70,127
76685,note_on,1,0,0,,10,,,69,127
76685,note_on,0,0,0,,0,,,60,127
76764,note_off,79,0,0,,10,,,69,127
76765,note_on,1,0,0,,7,,,67,127
76844,note_off,79,0,0,,7,,,67,127
76845,note_on,1,0,0,,5,,,65,127
77003,note_off,158,0,0,,5,,,65,127
77003,note_off,0,0,0,,0,,,60,127
77004,note_on,1,0,0,,7,,,67,127
77004,note_on,0,0,0,,11,,,58,127
77083,note_off,79,0,0,,7,,,67,127
77084,note_on,1,0,0,,5,,,65,127
77163,note_off,79,0,0,,5,,,65,127
77164,note_on,1,0,0,,4,,,64,127
77322,note_off,158,0,0,,4,,,64,127
77322,note_off,0,0,0,,11,,,58,127
77323,note_on,1,0,0,,5,,,65,127
77323,note_on,0,0,0,,10,,,57,127
77640,note_off,317,0,0,,5,,,65,127
77641,note_on,1,0,0,,5,,,77,127
77958,note_off,317,0,0,,5,,,77,127
77959,note_on,1,0,0,,3,,,75,127
77959,note_on,0,0,0,,5,,,77,127
78038,note_off,79,0,0,,5,,,77,127
78038,note_off,0,0,0,,3,,,75,127
78039,note_on,1,0,0,,2,,,74,127
78118,note_off,79,0,0,,2,,,74,127
78119,note_off,1,0,0,,10,,,57,127
78119,note_on,0,0,0,,1,,,73,127
78278,note_on,159,0,0,,10,,,57,127
78595,note_off,317,0,0,,10,,,57,127
78595,note_off,0,0,0,,1,,,73,127
78596,note_on,1,0,0,,2,,,74,127
78596,note_on,0,0,0,,11,,,58,127
78913,note_off,317,0,0,,11,,,58,127
78913,note_off,0,0,0,,2,,,74,127
78914,note_on,1,0,0,,11,,,82,127
78914,note_on,0,0,0,,2,,,62,127
79231,note_off,317,0,0,,2,,,62,127
79231,note_off,0,0,0,,11,,,82,127
79232,note_on,1,0,0,,10,,,81,127
79232,note_on,0,0,0,,0,,,60,127
79311,note_off,79,0,0,,10,,,81,127
79312,note_on,1,0,0,,7,,,79,127
79391,note_off,79,0,0,,7,,,79,127
79392,note_on,1,0,0,,5,,,77,127
79550,note_off,158,0,0,,5,,,77,127
79551,note_on,1,0,0,,7,,,79,127
79551,note_on,0,0,0,,0,,,48,127
79630,note_off,79,0,0,,7,,,79,127
79631,note_on,1,0,0,,5,,,77,127
79710,note_off,79,0,0,,5,,,77,127
79711,note_on,1,0,0,,4,,,76,127
79869,note_off,158,0,0,,4,,,76,127
79869,note_off,0,0,0,,0,,,48,127
79869,note_off,0,0,0,,0,,,60,127
79870,note_on,1,0,0,,5,,,77,127
79870,note_on,0,0,0,,5,,,53,127
80187,note_off,317,0,0,,5,,,77,127
80188,note_on,1,0,0,,4,,,76,127
80505,note_off,317,0,0,,4,,,76,127
80505,note_off,0,0,0,,5,,,53,127
80506,note_on,1,0,0,,2,,,74,127
80506,note_on,0,0,0,,5,,,65,127
80823,note_off,317,0,0,,2,,,74,127
80824,note_on,1,0,0,,0,,,72,127
81141,note_off,317,0,0,,0,,,72,127
81142,note_on,1,0,0,,2,,,74,127
81221,note_off,79,0,0,,2,,,74,127
81222,note_on,1,0,0,,0,,,72,127
81301,note_off,79,0,0,,0,,,72,127
81302,note_on,1,0,0,,12,,,71,127
81460,note_off,158,0,0,,12,,,71,127
81460,note_off,0,0,0,,5,,,65,127
81461,note_on,1,0,0,,10,,,69,127
81461,note_on,0,0,0,,5,,,65,127
81778,note_off,317,0,0,,5,,,65,127
81778,note_off,0,0,0,,10,,,69,127
81779,note_on,1,0,0,,8,,,68,127
81779,note_on,0,0,0,,4,,,64,127
82096,note_off,317,0,0,,4,,,64,127
82097,note_on,1,0,0,,2,,,62,127
82414,note_off,317,0,0,,2,,,62,127
82414,note_off,0,0,0,,8,,,68,127
82415,note_on,1,0,0,,10,,,69,127
82415,note_on,0,0,0,,1,,,61,127
82732,note_off,317,0,0,,10,,,69,127
82733,note_on,1,0,0,,7,,,79,127
83050,note_off,317,0,0,,7,,,79,127
83050,note_off,0,0,0,,1,,,61,127
83051,note_on,1,0,0,,5,,,77,127
83051,note_on,0,0,0,,2,,,62,127
83130,note_off,79,0,0,,5,,,77,127
83131,note_on,1,0,0,,4,,,76,127
83210,note_off,79,0,0,,4,,,76,127
83211,note_on,1,0,0,,2,,,74,127
83369,note_off,158,0,0,,2,,,74,127
83370,note_on,1,0,0,,10,,,69,127
83687,note_off,317,0,0,,2,,,62,127
83688,note_on,1,0,0,,1,,,61,127
84005,note_off,317,0,0,,10,,,69,127
84006,note_on,1,0,0,,7,,,79,127
84323,note_off,317,0,0,,7,,,79,127
84323,note_off,0,0,0,,1,,,61,127
84324,note_on,1,0,0,,5,,,77,127
84324,note_on,0,0,0,,2,,,62,127
84403,note_off,79,0,0,,5,,,77,127
84404,note_on,1,0,0,,4,,,76,127
84483,note_off,79,0,0,,4,,,76,127
84484,note_on,1,0,0,,2,,,74,127
84642,note_off,158,0,0,,2,,,74,127
84643,note_on,1,0,0,,10,,,81,127
84960,note_off,317,0,0,,2,,,62,127
84961,note_on,1,0,0,,11,,,58,127
85119,note_off,158,0,0,,10,,,81,127
85120,note_on,1,0,0,,7,,,79,127
85278,note_off,158,0,0,,7,,,79,127
85279,note_on,1,0,0,,7,,,79,127
85437,note_off,158,0,0,,7,,,79,127
85438,note_on,1,0,0,,5,,,77,127
85596,note_off,158,0,0,,5,,,77,127
85596,note_off,0,0,0,,11,,,58,127
85597,note_on,1,0,0,,5,,,77,127
85597,note_on,0,0,0,,7,,,55,127
85755,note_off,158,0,0,,5,,,77,127
85756,note_on,1,0,0,,4,,,76,127
85914,note_off,158,0,0,,4,,,76,127
85915,note_on,1,0,0,,4,,,76,127
86073,note_off,158,0,0,,4,,,76,127
86074,note_on,1,0,0,,2,,,74,127
86232,note_off,158,0,0,,2,,,74,127
86232,note_off,0,0,0,,7,,,55,127
86233,note_on,1,0,0,,1,,,73,127
86233,note_on,0,0,0,,10,,,57,127
86233,note_on,0,0,0,,4,,,64,127
86312,note_off,79,0,0,,1,,,73,127
86313,note_on,1,0,0,,2,,,74,127
86392,note_off,79,0,0,,2,,,74,127
86393,note_on,1,0,0,,4,,,76,127
86551,note_off,158,0,0,,4,,,76,127
86552,note_on,1,0,0,,4,,,76,127
86869,note_off,317,0,0,,4,,,64,127
86869,note_off,0,0,0,,10,,,57,127
86870,note_on,1,0,0,,8,,,56,127
86870,note_on,0,0,0,,2,,,62,127
86870,note_on,0,0,0,,4,,,64,127
87028,note_off,158,0,0,,4,,,76,127
87029,note_on,1,0,0,,12,,,83,127
87187,note_off,158,0,0,,12,,,83,127
87188,note_on,1,0,0,,5,,,77,127
87346,note_off,158,0,0,,5,,,77,127
87347,note_on,1,0,0,,2,,,74,127
87505,note_off,158,0,0,,2,,,74,127
87505,note_off,0,0,0,,4,,,64,127
87505,note_off,0,0,0,,2,,,62,127
87505,note_off,0,0,0,,8,,,56,127
87506,note_on,1,0,0,,1,,,73,127
87506,note_on,0,0,0,,10,,,57,127
87506,note_on,0,0,0,,4,,,64,127
87585,note_off,79,0,0,,1,,,73,127
87586,note_on,1,0,0,,2,,,74,127
87665,note_off,79,0,0,,2,,,74,127
87666,note_on,1,0,0,,4,,,76,127
87824,note_off,158,0,0,,4,,,76,127
87825,note_on,1,0,0,,4,,,76,127
88142,note_off,317,0,0,,4,,,64,127
88142,note_off,0,0,0,,10,,,57,127
88143,note_on,1,0,0,,8,,,56,127
88143,note_on,0,0,0,,2,,,62,127
88143,note_on,0,0,0,,4,,,64,127
88301,note_off,158,0,0,,4,,,76,127
88302,note_on,1,0,0,,12,,,83,127
88460,note_off,158,0,0,,12,,,83,127
88461,note_on,1,0,0,,5,,,77,127
88619,note_off,158,0,0,,5,,,77,127
88620,note_on,1,0,0,,2,,,74,127
88778,note_off,158,0,0,,2,,,74,127
88778,note_off,0,0,0,,4,,,64,127
88778,note_off,0,0,0,,2,,,62,127
88778,note_off,0,0,0,,8,,,56,127
88779,note_on,1,0,0,,4,,,76,127
88779,note_on,0,0,0,,7,,,55,127
88779,note_on,0,0,0,,4,,,64,127
88858,note_off,79,0,0,,4,,,76,127
88859,note_on,1,0,0,,5,,,77,127
88938,note_off,79,0,0,,5,,,77,127
88939,note_on,1,0,0,,7,,,79,127
89097,note_off,158,0,0,,7,,,79,127
89098,note_on,1,0,0,,5,,,77,127
89256,note_off,158,0,0,,5,,,77,127
89257,note_on,1,0,0,,4,,,76,127
89415,note_off,158,0,0,,4,,,64,127
89415,note_off,0,0,0,,7,,,55,127
89416,note_on,1,0,0,,5,,,53,127
89416,note_on,0,0,0,,2,,,62,127
89416,note_on,0,0,0,,10,,,57,127
89495,note_off,79,0,0,,4,,,76,127
89574,note_on,79,0,0,,2,,,74,127
89732,note_off,158,0,0,,2,,,74,127
89733,note_on,1,0,0,,1,,,73,127
89891,note_off,158,0,0,,1,,,73,127
89892,note_on,1,0,0,,2,,,74,127
90050,note_off,158,0,0,,2,,,74,127
90050,note_off,0,0,0,,10,,,57,127
90050,note_off,0,0,0,,2,,,62,127
90050,note_off,0,0,0,,5,,,53,127
90051,note_on,1,0,0,,4,,,76,127
90051,note_on,0,0,0,,7,,,55,127
90051,note_on,0,0,0,,4,,,64,127
90130,note_off,79,0,0,,4,,,76,127
90131,note_on,1,0,0,,5,,,77,127
90210,note_off,79,0,0,,5,,,77,127
90211,note_on,1,0,0,,7,,,79,127
90369,note_off,158,0,0,,7,,,79,127
90370,note_on,1,0,0,,5,,,77,127
90528,note_off,158,0,0,,5,,,77,127
90529,note_on,1,0,0,,4,,,76,127
90687,note_off,158,0,0,,4,,,64,127
90687,note_off,0,0,0,,7,,,55,127
90688,note_on,1,0,0,,10,,,57,127
90688,note_on,0,0,0,,5,,,53,127
90688,note_on,0,0,0,,2,,,62,127
90767,note_off,79,0,0,,4,,,76,127
90846,note_on,79,0,0,,2,,,74,127
91004,note_off,158,0,0,,2,,,74,127
91005,note_on,1,0,0,,1,,,73,127
91163,note_off,158,0,0,,1,,,73,127
91164,note_on,1,0,0,,2,,,74,127
91322,note_off,158,0,0,,2,,,62,127
91322,note_off,0,0,0,,5,,,53,127
91322,note_off,0,0,0,,10,,,57,127
91323,note_on,1,0,0,,4,,,52,127
91323,note_on,0,0,0,,2,,,62,127
91481,note_off,158,0,0,,2,,,74,127
91482,note_on,1,0,0,,2,,,86,127
91640,note_off,158,0,0,,2,,,86,127
91641,note_on,1,0,0,,2,,,86,127
91799,note_off,158,0,0,,2,,,86,127
91800,note_on,1,0,0,,0,,,84,127
91958,note_off,158,0,0,,0,,,84,127
91958,note_off,0,0,0,,2,,,62,127
91958,note_off,0,0,0,,4,,,52,127
91959,note_on,1,0,0,,0,,,84,127
91959,note_on,0,0,0,,4,,,52,127
91959,note_on,0,0,0,,2,,,62,127
92117,note_off,158,0,0,,0,,,84,127
92118,note_on,1,0,0,,12,,,83,127
92276,note_off,158,0,0,,12,,,83,127
92277,note_on,1,0,0,,12,,,83,127
92435,note_off,158,0,0,,12,,,83,127
92436,note_on,1,0,0,,10,,,81,127
92594,note_off,158,0,0,,10,,,81,127
92594,note_off,0,0,0,,2,,,62,127
92594,note_off,0,0,0,,4,,,52,127
92595,note_on,1,0,0,,10,,,81,127
92595,note_on,0,0,0,,4,,,52,127
92595,note_on,0,0,0,,2,,,62,127
92753,note_off,158,0,0,,10,,,81,127
92754,note_on,1,0,0,,8,,,80,127
92912,note_off,158,0,0,,8,,,80,127
92913,note_on,1,0,0,,8,,,80,127
93071,note_off,158,0,0,,8,,,80,127
93072,note_on,1,0,0,,5,,,77,127
93230,note_off,158,0,0,,5,,,77,127
93230,note_off,0,0,0,,2,,,62,127
93230,note_off,0,0,0,,4,,,52,127
93231,note_on,1,0,0,,5,,,77,127
93231,note_on,0,0,0,,4,,,52,127
93231,note_on,0,0,0,,2,,,62,127
93389,note_off,158,0,0,,5,,,77,127
93390,note_on,1,0,0,,4,,,76,127
93548,note_off,158,0,0,,4,,,76,127
93549,note_on,1,0,0,,4,,,76,127
93707,note_off,158,0,0,,4,,,76,127
93708,note_on,1,0,0,,2,,,74,127
93866,note_off,158,0,0,,2,,,74,127
93866,note_off,0,0,0,,2,,,62,127
93866,note_off,0,0,0,,4,,,52,127
93867,note_on,1,0,0,,1,,,73,127
93867,note_on,0,0,0,,10,,,57,127
93867,note_on,0,0,0,,4,,,64,127
93946,note_off,79,0,0,,1,,,73,127
93947,note_on,1,0,0,,2,,,74,127
94026,note_off,79,0,0,,2,,,74,127
94027,note_on,1,0,0,,4,,,76,127
94185,note_off,158,0,0,,4,,,76,127
94186,note_on,1,0,0,,4,,,76,127
94503,note_off,317,0,0,,4,,,64,127
94503,note_off,0,0,0,,10,,,57,127
94504,note_on,1,0,0,,8,,,56,127
94504,note_on,0,0,0,,2,,,62,127
94504,note_on,0,0,0,,4,,,64,127
94590,note_off,86,0,0,,4,,,76,127
94663,note_on,73,0,0,,12,,,83,127
94821,note_off,158,0,0,,12,,,83,127
94822,note_on,1,0,0,,5,,,77,127
94980,note_off,158,0,0,,5,,,77,127
94981,note_on,1,0,0,,2,,,74,127
95139,note_off,158,0,0,,2,,,74,127
95139,note_off,0,0,0,,4,,,64,127
95139,note_off,0,0,0,,2,,,62,127
95139,note_off,0,0,0,,8,,,56,127
95140,note_on,1,0,0,,1,,,73,127
95140,note_on,0,0,0,,10,,,57,127
95140,note_on,0,0,0,,4,,,64,127
95219,note_off,79,0,0,,1,,,73,127
95220,note_on,1,0,0,,2,,,74,127
95299,note_off,79,0,0,,2,,,74,127
95300,note_on,1,0,0,,4,,,76,127
95458,note_off,158,0,0,,4,,,76,127
95459,note_on,1,0,0,,4,,,76,127
95776,note_off,317,0,0,,4,,,64,127
95776,note_off,0,0,0,,10,,,57,127
95777,note_on,1,0,0,,8,,,56,127
95777,note_on,0,0,0,,4,,,64,127
95777,note_on,0,0,0,,2,,,62,127
95863,note_off,86,0,0,,4,,,76,127
95936,note_on,73,0,0,,12,,,83,127
96094,note_off,158,0,0,,12,,,83,127
96095,note_on,1,0,0,,5,,,77,127
96253,note_off,158,0,0,,5,,,77,127
96254,note_on,1,0,0,,2,,,74,127
96412,note_off,158,0,0,,2,,,74,127
96412,note_off,0,0,0,,2,,,62,127
96412,note_off,0,0,0,,4,,,64,127
96412,note_off,0,0,0,,8,,,56,127
96413,note_on,1,0,0,,1,,,73,127
96413,note_on,0,0,0,,10,,,57,127
96413,note_on,0,0,0,,4,,,64,127
96571,note_off,158,0,0,,1,,,73,127
96572,note_on,1,0,0,,10,,,81,127
96730,note_off,158,0,0,,10,,,81,127
96731,note_on,1,0,0,,10,,,81,127
96889,note_off,158,0,0,,10,,,81,127
96889,note_off,0,0,0,,4,,,64,127
96889,note_off,0,0,0,,10,,,57,127
96890,note_on,1,0,0,,10,,,81,127
96890,note_on,0,0,0,,1,,,61,127
96890,note_on,0,0,0,,4,,,64,127
97048,note_off,158,0,0,,10,,,81,127
97049,note_on,1,0,0,,12,,,83,127
97207,note_off,158,0,0,,12,,,83,127
97208,note_on,1,0,0,,7,,,79,127
97366,note_off,158,0,0,,7,,,79,127
97366,note_off,0,0,0,,4,,,64,127
97366,note_off,0,0,0,,1,,,61,127
97367,note_on,1,0,0,,6,,,78,127
97367,note_on,0,0,0,,6,,,66,127
97367,note_on,0,0,0,,2,,,62,127
97525,note_off,158,0,0,,6,,,78,127
97526,note_on,1,0,0,,10,,,81,127
97684,note_off,158,0,0,,10,,,81,127
97685,note_on,1,0,0,,10,,,81,127
97843,note_off,158,0,0,,10,,,81,127
97843,note_off,0,0,0,,2,,,62,127
97843,note_off,0,0,0,,6,,,66,127
97844,note_on,1,0,0,,10,,,81,127
97844,note_on,0,0,0,,1,,,61,127
97844,note_on,0,0,0,,4,,,64,127
98002,note_off,158,0,0,,10,,,81,127
98003,note_on,1,0,0,,12,,,83,127
98161,note_off,158,0,0,,12,,,83,127
98162,note_on,1,0,0,,7,,,79,127
98320,note_off,158,0,0,,7,,,79,127
98320,note_off,0,0,0,,4,,,64,127
98320,note_off,0,0,0,,1,,,61,127
98321,note_on,1,0,0,,6,,,78,127
98321,note_on,0,0,0,,2,,,62,127
98479,note_off,158,0,0,,6,,,78,127
98480,note_on,1,0,0,,6,,,78,127
98638,note_off,158,0,0,,6,,,78,127
98639,note_on,1,0,0,,6,,,78,127
98797,note_off,158,0,0,,6,,,78,127
98797,note_off,0,0,0,,2,,,62,127
98798,note_on,1,0,0,,6,,,78,127
98798,note_on,0,0,0,,6,,,54,127
98956,note_off,158,0,0,,6,,,78,127
98957,note_on,1,0,0,,10,,,81,127
99115,note_off,158,0,0,,10,,,81,127
99116,note_on,1,0,0,,6,,,78,127
99274,note_off,158,0,0,,6,,,78,127
99274,note_off,0,0,0,,6,,,54,127
99275,note_on,1,0,0,,4,,,76,127
99275,note_on,0,0,0,,7,,,55,127
99433,note_off,158,0,0,,4,,,76,127
99434,note_on,1,0,0,,4,,,76,127
99592,note_off,158,0,0,,4,,,76,127
99593,note_on,1,0,0,,4,,,76,127
99751,note_off,158,0,0,,4,,,76,127
99751,note_off,0,0,0,,7,,,55,127
99752,note_on,1,0,0,,4,,,76,127
99752,note_on,0,0,0,,10,,,57,127
99910,note_off,158,0,0,,4,,,76,127
99911,note_on,1,0,0,,7,,,79,127
100069,note_off,158,0,0,,7,,,79,127
100070,note_on,1,0,0,,4,,,76,127
100228,note_off,158,0,0,,4,,,76,127
100228,note_off,0,0,0,,10,,,57,127
100229,note_on,1,0,0,,2,,,74,127
100229,note_on,0,0,0,,12,,,59,127
100387,note_off,158,0,0,,2,,,74,127
100388,note_on,1,0,0,,6,,,78,127
100546,note_off,158,0,0,,6,,,78,127
100547,note_on,1,0,0,,6,,,78,127
100705,note_off,158,0,0,,6,,,78,127
100705,note_off,0,0,0,,12,,,59,127
100706,note_on,1,0,0,,6,,,78,127
100706,note_on,0,0,0,,6,,,54,127
100864,note_off,158,0,0,,6,,,78,127
100865,note_on,1,0,0,,10,,,81,127
101023,note_off,158,0,0,,10,,,81,127
101024,note_on,1,0,0,,6,,,78,127
101182,note_off,158,0,0,,6,,,78,127
101182,note_off,0,0,0,,6,,,54,127
101183,note_on,1,0,0,,4,,,76,127
101183,note_on,0,0,0,,7,,,55,127
101341,note_off,158,0,0,,4,,,76,127
101342,note_on,1,0,0,,4,,,76,127
101500,note_off,158,0,0,,4,,,76,127
101501,note_on,1,0,0,,4,,,76,127
101659,note_off,158,0,0,,4,,,76,127
101659,note_off,0,0,0,,7,,,55,127
101660,note_on,1,0,0,,4,,,76,127
101660,note_on,0,0,0,,10,,,57,127
101818,note_off,158,0,0,,4,,,76,127
101819,note_on,1,0,0,,7,,,79,127
101977,note_off,158,0,0,,7,,,79,127
101978,note_on,1,0,0,,4,,,76,127
102136,note_off,158,0,0,,4,,,76,127
102136,note_off,0,0,0,,10,,,57,127
102137,note_on,1,0,0,,2,,,74,127
102137,note_on,0,0,0,,6,,,54,127
102296,note_on,159,0,0,,2,,,86,127
102454,note_off,158,0,0,,2,,,86,127
102455,note_on,1,0,0,,1,,,85,127
102613,note_off,158,0,0,,1,,,85,127
102613,note_off,0,0,0,,6,,,54,127
102613,note_off,0,0,0,,2,,,74,127
102614,note_on,1,0,0,,12,,,83,127
102614,note_on,0,0,0,,7,,,55,127
102772,note_off,158,0,0,,7,,,55,127
102772,note_off,0,0,0,,12,,,83,127
102773,note_on,1,0,0,,10,,,81,127
102773,note_on,0,0,0,,6,,,54,127
102931,note_off,158,0,0,,6,,,54,127
102931,note_off,0,0,0,,10,,,81,127
102932,note_on,1,0,0,,7,,,79,127
102932,note_on,0,0,0,,4,,,52,127
103090,note_off,158,0,0,,4,,,52,127
103090,note_off,0,0,0,,7,,,79,127
103091,note_on,1,0,0,,6,,,78,127
103091,note_on,0,0,0,,2,,,50,127
103249,note_off,158,0,0,,6,,,78,127
103250,note_on,1,0,0,,10,,,81,127
103408,note_off,158,0,0,,10,,,81,127
103409,note_on,1,0,0,,7,,,79,127
103567,note_off,158,0,0,,7,,,79,127
103567,note_off,0,0,0,,2,,,50,127
103568,note_on,1,0,0,,6,,,78,127
103568,note_on,0,0,0,,2,,,62,127
103726,note_off,158,0,0,,2,,,62,127
103726,note_off,0,0,0,,6,,,78,127
103727,note_on,1,0,0,,4,,,76,127
103727,note_on,0,0,0,,1,,,61,127
103885,note_off,158,0,0,,1,,,61,127
103885,note_off,0,0,0,,4,,,76,127
103886,note_on,1,0,0,,2,,,74,127
103886,note_on,0,0,0,,12,,,59,127
104044,note_off,158,0,0,,12,,,59,127
104044,note_off,0,0,0,,2,,,74,127
104045,note_on,1,0,0,,8,,,80,127
104045,note_on,0,0,0,,10,,,57,127
104203,note_off,158,0,0,,10,,,57,127
104203,note_off,0,0,0,,8,,,80,127
104204,note_on,1,0,0,,10,,,81,127
104204,note_on,0,0,0,,10,,,69,127
104362,note_off,158,0,0,,10,,,69,127
104363,note_on,1,0,0,,7,,,67,127
104519,note_off,156,0,0,,10,,,81,127
104521,note_off,2,0,0,,7,,,67,127
104522,note_on,1,0,0,,6,,,66,127
104574,note_off,52,0,0,,6,,,66,127
104575,note_on,1,0,0,,7,,,67,127
104627,note_off,52,0,0,,7,,,67,127
104628,note_on,1,0,0,,6,,,66,127
104680,note_off,52,0,0,,6,,,66,127
104681,note_on,1,0,0,,4,,,64,127
104839,note_off,158,0,0,,4,,,64,127
104840,note_on,1,0,0,,2,,,62,127
104998,note_off,158,0,0,,2,,,62,127
104999,note_on,1,0,0,,8,,,80,127
104999,note_on,0,0,0,,10,,,57,127
105157,note_off,158,0,0,,10,,,57,127
105157,note_off,0,0,0,,8,,,80,127
105158,note_on,1,0,0,,10,,,81,127
105158,note_on,0,0,0,,10,,,69,127
105316,note_off,158,0,0,,10,,,69,127
105317,note_on,1,0,0,,7,,,67,127
105473,note_off,156,0,0,,10,,,81,127
105475,note_off,2,0,0,,7,,,67,127
105476,note_on,1,0,0,,6,,,66,127
105528,note_off,52,0,0,,6,,,66,127
105529,note_on,1,0,0,,7,,,67,127
105581,note_off,52,0,0,,7,,,67,127
105582,note_on,1,0,0,,6,,,66,127
105634,note_off,52,0,0,,6,,,66,127
105635,note_on,1,0,0,,4,,,64,127
105793,note_off,158,0,0,,4,,,64,127
105794,note_on,1,0,0,,2,,,62,127
105952,note_off,158,0,0,,2,,,62,127
105953,note_on,1,0,0,,8,,,80,127
105953,note_on,0,0,0,,10,,,57,127
106111,note_off,158,0,0,,10,,,57,127
106111,note_off,0,0,0,,8,,,80,127
106112,note_on,1,0,0,,10,,,81,127
106112,note_on,0,0,0,,12,,,59,127
106270,note_off,158,0,0,,12,,,59,127
106271,note_on,1,0,0,,1,,,61,127
106377,note_off,106,0,0,,10,,,81,127
106429,note_off,52,0,0,,1,,,61,127
106430,note_on,1,0,0,,6,,,78,127
106430,note_on,0,0,0,,2,,,62,127
106588,note_off,158,0,0,,2,,,62,127
106588,note_off,0,0,0,,6,,,78,127
106589,note_on,1,0,0,,7,,,79,127
106589,note_on,0,0,0,,4,,,64,127
106747,note_off,158,0,0,,4,,,64,127
106747,note_off,0,0,0,,7,,,79,127
106748,note_on,1,0,0,,10,,,81,127
106748,note_on,0,0,0,,6,,,66,127
106906,note_off,158,0,0,,6,,,66,127
106906,note_off,0,0,0,,10,,,81,127
106907,note_on,1,0,0,,12,,,83,127
106907,note_on,0,0,0,,7,,,55,127
107065,note_off,158,0,0,,12,,,83,127
107066,note_on,1,0,0,,1,,,85,127
107224,note_off,158,0,0,,1,,,85,127
107225,note_on,1,0,0,,2,,,86,127
107383,note_off,158,0,0,,2,,,86,127
107383,note_off,0,0,0,,7,,,55,127
107384,note_on,1,0,0,,4,,,76,127
107384,note_on,0,0,0,,10,,,57,127
107542,note_off,158,0,0,,4,,,76,127
107543,note_on,1,0,0,,6,,,78,127
107701,note_off,158,0,0,,6,,,78,127
107702,note_on,1,0,0,,7,,,79,127
107860,note_off,158,0,0,,7,,,79,127
107860,note_off,0,0,0,,10,,,57,127
107861,note_on,1,0,0,,6,,,78,127
107861,note_on,0,0,0,,2,,,50,127
107861,note_on,0,0,0,,0,,,60,127
108019,note_off,158,0,0,,6,,,78,127
108020,note_on,1,0,0,,4,,,76,127
108178,note_off,158,0,0,,4,,,76,127
108179,note_on,1,0,0,,2,,,74,127
108337,note_off,158,0,0,,2,,,74,127
108337,note_off,0,0,0,,0,,,60,127
108337,note_off,0,0,0,,2,,,50,127
108338,note_on,1,0,0,,0,,,72,127
108338,note_on,0,0,0,,2,,,50,127
108338,note_on,0,0,0,,0,,,60,127
108496,note_off,158,0,0,,0,,,72,127
108497,note_on,1,0,0,,12,,,71,127
108655,note_off,158,0,0,,12,,,71,127
108656,note_on,1,0,0,,10,,,69,127
108814,note_off,158,0,0,,10,,,69,127
108814,note_off,0,0,0,,0,,,60,127
108814,note_off,0,0,0,,2,,,50,127
108815,note_on,1,0,0,,6,,,78,127
108815,note_on,0,0,0,,2,,,50,127
108815,note_on,0,0,0,,0,,,60,127
108973,note_off,158,0,0,,6,,,78,127
108974,note_on,1,0,0,,4,,,76,127
109132,note_off,158,0,0,,4,,,76,127
109133,note_on,1,0,0,,2,,,74,127
109291,note_off,158,0,0,,2,,,74,127
109291,note_off,0,0,0,,0,,,60,127
109291,note_off,0,0,0,,2,,,50,127
109292,note_on,1,0,0,,0,,,72,127
109292,note_on,0,0,0,,0,,,60,127
109292,note_on,0,0,0,,2,,,50,127
109450,note_off,158,0,0,,0,,,72,127
109451,note_on,1,0,0,,12,,,71,127
109609,note_off,158,0,0,,12,,,71,127
109610,note_on,1,0,0,,10,,,69,127
109739,note_off,129,0,0,,2,,,50,127
109739,note_off,0,0,0,,0,,,60,127
109768,note_off,29,0,0,,10,,,69,127
109769,note_on,1,0,0,,8,,,80,127
109769,note_on,0,0,0,,4,,,52,127
109769,note_on,0,0,0,,2,,,62,127
109927,note_off,158,0,0,,8,,,80,127
109928,note_on,1,0,0,,6,,,78,127
110086,note_off,158,0,0,,6,,,78,127
110087,note_on,1,0,0,,4,,,76,127
110245,note_off,158,0,0,,4,,,76,127
110245,note_off,0,0,0,,2,,,62,127
110245,note_off,0,0,0,,4,,,52,127
110246,note_on,1,0,0,,2,,,74,127
110246,note_on,0,0,0,,2,,,62,127
110246,note_on,0,0,0,,4,,,52,127
110404,note_off,158,0,0,,2,,,74,127
110405,note_on,1,0,0,,1,,,73,127
110563,note_off,158,0,0,,1,,,73,127
110564,note_on,1,0,0,,12,,,71,127
110722,note_off,158,0,0,,12,,,71,127
110722,note_off,0,0,0,,4,,,52,127
110722,note_off,0,0,0,,2,,,62,127
110723,note_on,1,0,0,,8,,,80,127
110723,note_on,0,0,0,,4,,,52,127
110723,note_on,0,0,0,,2,,,62,127
110881,note_off,158,0,0,,8,,,80,127
110882,note_on,1,0,0,,6,,,78,127
111040,note_off,158,0,0,,6,,,78,127
111041,note_on,1,0,0,,4,,,76,127
111199,note_off,158,0,0,,4,,,76,127
111199,note_off,0,0,0,,2,,,62,127
111199,note_off,0,0,0,,4,,,52,127
111200,note_on,1,0,0,,2,,,74,127
111200,note_on,0,0,0,,4,,,52,127
111200,note_on,0,0,0,,2,,,62,127
111358,note_off,158,0,0,,2,,,74,127
111359,note_on,1,0,0,,1,,,73,127
111517,note_off,158,0,0,,1,,,73,127
111518,note_on,1,0,0,,12,,,71,127
111647,note_off,129,0,0,,2,,,62,127
111647,note_off,0,0,0,,4,,,52,127
111676,note_off,29,0,0,,12,,,71,127
111677,note_on,1,0,0,,1,,,85,127
111677,note_on,0,0,0,,10,,,57,127
111677,note_on,0,0,0,,7,,,67,127
111835,note_off,158,0,0,,1,,,85,127
111836,note_on,1,0,0,,12,,,83,127
111994,note_off,158,0,0,,12,,,83,127
111995,note_on,1,0,0,,10,,,81,127
112153,note_off,158,0,0,,10,,,81,127
112153,note_off,0,0,0,,7,,,67,127
112153,note_off,0,0,0,,10,,,57,127
112154,note_on,1,0,0,,7,,,79,127
112154,note_on,0,0,0,,10,,,57,127
112154,note_on,0,0,0,,7,,,67,127
112312,note_off,158,0,0,,7,,,79,127
112313,note_on,1,0,0,,6,,,78,127
112471,note_off,158,0,0,,6,,,78,127
112472,note_on,1,0,0,,4,,,76,127
112630,note_off,158,0,0,,4,,,76,127
112630,note_off,0,0,0,,7,,,67,127
112630,note_off,0,0,0,,10,,,57,127
112631,note_on,1,0,0,,1,,,85,127
112631,note_on,0,0,0,,7,,,67,127
112631,note_on,0,0,0,,10,,,57,127
112789,note_off,158,0,0,,1,,,85,127
112790,note_on,1,0,0,,12,,,83,127
112948,note_off,158,0,0,,12,,,83,127
112949,note_on,1,0,0,,10,,,81,127
113107,note_off,158,0,0,,10,,,81,127
113107,note_off,0,0,0,,10,,,57,127
113107,note_off,0,0,0,,7,,,67,127
113108,note_on,1,0,0,,7,,,79,127
113108,note_on,0,0,0,,10,,,57,127
113108,note_on,0,0,0,,7,,,67,127
113266,note_off,158,0,0,,7,,,79,127
113267,note_on,1,0,0,,6,,,78,127
113425,note_off,158,0,0,,6,,,78,127
113426,note_on,1,0,0,,4,,,76,127
113584,note_off,158,0,0,,4,,,76,127
113584,note_off,0,0,0,,7,,,67,127
113584,note_off,0,0,0,,10,,,57,127
113585,note_on,1,0,0,,6,,,78,127
113585,note_on,0,0,0,,2,,,74,127
113743,note_off,158,0,0,,2,,,74,127
113743,note_off,0,0,0,,6,,,78,127
113744,note_on,1,0,0,,4,,,76,127
113744,note_on,0,0,0,,1,,,73,127
113902,note_off,158,0,0,,1,,,73,127
113902,note_off,0,0,0,,4,,,76,127
113903,note_on,1,0,0,,2,,,74,127
113903,note_on,0,0,0,,12,,,71,127
114061,note_off,158,0,0,,2,,,74,127
114062,note_on,1,0,0,,1,,,73,127
114062,note_on,0,0,0,,10,,,69,127
114068,note_off,6,0,0,,12,,,71,127
114220,note_off,152,0,0,,10,,,69,127
114220,note_off,0,0,0,,1,,,73,127
114221,note_on,1,0,0,,12,,,71,127
114221,note_on,0,0,0,,7,,,67,127
114379,note_off,158,0,0,,7,,,67,127
114379,note_off,0,0,0,,12,,,71,127
114380,note_on,1,0,0,,10,,,69,127
114380,note_on,0,0,0,,6,,,66,127
114538,note_off,158,0,0,,6,,,66,127
114538,note_off,0,0,0,,10,,,69,127
114539,note_on,1,0,0,,12,,,71,127
114539,note_on,0,0,0,,7,,,67,127
114697,note_off,158,0,0,,7,,,67,127
114697,note_off,0,0,0,,12,,,71,127
114698,note_on,1,0,0,,10,,,69,127
114698,note_on,0,0,0,,6,,,66,127
114856,note_off,158,0,0,,6,,,66,127
114856,note_off,0,0,0,,10,,,69,127
114857,note_on,1,0,0,,7,,,67,127
114857,note_on,0,0,0,,4,,,64,127
115015,note_off,158,0,0,,4,,,64,127
115015,note_off,0,0,0,,7,,,67,127
115016,note_on,1,0,0,,6,,,66,127
115016,note_on,0,0,0,,2,,,62,127
115174,note_off,158,0,0,,2,,,62,127
115174,note_off,0,0,0,,6,,,66,127
115175,note_on,1,0,0,,4,,,64,127
115175,note_on,0,0,0,,1,,,61,127
115333,note_off,158,0,0,,1,,,61,127
115333,note_off,0,0,0,,4,,,64,127
115334,note_on,1,0,0,,2,,,62,127
115334,note_on,0,0,0,,12,,,59,127
115492,note_off,158,0,0,,12,,,59,127
115492,note_off,0,0,0,,2,,,62,127
115493,note_on,1,0,0,,8,,,68,127
115493,note_on,0,0,0,,10,,,45,127
115651,note_off,158,0,0,,10,,,45,127
115651,note_off,0,0,0,,8,,,68,127
115652,note_on,1,0,0,,10,,,69,127
115652,note_on,0,0,0,,10,,,57,127
115810,note_off,158,0,0,,10,,,57,127
115811,note_on,1,0,0,,7,,,55,127
115969,note_off,158,0,0,,7,,,55,127
115970,note_on,1,0,0,,6,,,54,127
116022,note_off,52,0,0,,6,,,54,127
116023,note_on,1,0,0,,7,,,55,127
116075,note_off,52,0,0,,7,,,55,127
116076,note_on,1,0,0,,6,,,54,127
116128,note_off,52,0,0,,6,,,54,127
116128,note_off,0,0,0,,10,,,69,127
116129,note_on,1,0,0,,4,,,52,127
116287,note_off,158,0,0,,4,,,52,127
116288,note_on,1,0,0,,2,,,50,127
116446,note_off,158,0,0,,2,,,50,127
116447,note_on,1,0,0,,8,,,68,127
116447,note_on,0,0,0,,10,,,45,127
116605,note_off,158,0,0,,10,,,45,127
116605,note_off,0,0,0,,8,,,68,127
116606,note_on,1,0,0,,10,,,69,127
116606,note_on,0,0,0,,10,,,57,127
116764,note_off,158,0,0,,10,,,57,127
116765,note_on,1,0,0,,7,,,55,127
116923,note_off,158,0,0,,7,,,55,127
116924,note_on,1,0,0,,6,,,54,127
116976,note_off,52,0,0,,6,,,54,127
116977,note_on,1,0,0,,7,,,55,127
117029,note_off,52,0,0,,7,,,55,127
117030,note_on,1,0,0,,6,,,54,127
117082,note_off,52,0,0,,6,,,54,127
117082,note_off,0,0,0,,10,,,69,127
117083,note_on,1,0,0,,4,,,52,127
117241,note_off,158,0,0,,4,,,52,127
117242,note_on,1,0,0,,2,,,50,127
117400,note_off,158,0,0,,2,,,50,127
117401,note_on,1,0,0,,8,,,68,127
117401,note_on,0,0,0,,10,,,45,127
117559,note_off,158,0,0,,10,,,45,127
117559,note_off,0,0,0,,8,,,68,127
117560,note_on,1,0,0,,10,,,69,127
117560,note_on,0,0,0,,12,,,47,127
117718,note_off,158,0,0,,12,,,47,127
117719,note_on,1,0,0,,1,,,49,127
117841,note_off,122,0,0,,10,,,69,127
117877,note_off,36,0,0,,1,,,49,127
117878,note_on,1,0,0,,6,,,66,127
117878,note_on,0,0,0,,2,,,50,127
118036,note_off,158,0,0,,2,,,50,127
118036,note_off,0,0,0,,6,,,66,127
118037,note_on,1,0,0,,7,,,67,127
118037,note_on,0,0,0,,4,,,52,127
118195,note_off,158,0,0,,4,,,52,127
118195,note_off,0,0,0,,7,,,67,127
118196,note_on,1,0,0,,10,,,69,127
118196,note_on,0,0,0,,6,,,54,127
118354,note_off,158,0,0,,6,,,54,127
118354,note_off,0,0,0,,10,,,69,127
118355,note_on,1,0,0,,12,,,71,127
118355,note_on,0,0,0,,7,,,55,127
118513,note_off,158,0,0,,12,,,71,127
118514,note_on,1,0,0,,1,,,73,127
118672,note_off,158,0,0,,1,,,73,127
118673,note_on,1,0,0,,2,,,74,127
118831,note_off,158,0,0,,2,,,74,127
118831,note_off,0,0,0,,7,,,55,127
118832,note_on,1,0,0,,4,,,64,127
118832,note_on,0,0,0,,10,,,57,127
118990,note_off,158,0,0,,4,,,64,127
118991,note_on,1,0,0,,6,,,66,127
119149,note_off,158,0,0,,6,,,66,127
119150,note_on,1,0,0,,7,,,67,127
119308,note_off,158,0,0,,7,,,67,127
119308,note_off,0,0,0,,10,,,57,127
119309,note_on,1,0,0,,6,,,66,127
119309,note_on,0,0,0,,2,,,50,127
119467,note_off,158,0,0,,6,,,66,127
119468,note_on,1,0,0,,12,,,71,127
119626,note_off,158,0,0,,12,,,71,127
119627,note_on,1,0,0,,10,,,69,127
119785,note_off,158,0,0,,2,,,50,127
119786,note_on,1,0,0,,2,,,62,127
119786,note_on,0,0,0,,6,,,54,127
119925,note_off,139,0,0,,10,,,69,127
119945,note_on,20,0,0,,4,,,76,127
120103,note_off,158,0,0,,4,,,76,127
120104,note_on,1,0,0,,2,,,74,127
120262,note_off,158,0,0,,6,,,54,127
120262,note_off,0,0,0,,2,,,62,127
120263,note_on,1,0,0,,2,,,62,127
120263,note_on,0,0,0,,7,,,55,127
120402,note_off,139,0,0,,2,,,74,127
120422,note_on,20,0,0,,7,,,79,127
120580,note_off,158,0,0,,7,,,79,127
120581,note_on,1,0,0,,6,,,78,127
120739,note_off,158,0,0,,6,,,78,127
120739,note_off,0,0,0,,7,,,55,127
120739,note_off,0,0,0,,2,,,62,127
120740,note_on,1,0,0,,4,,,76,127
120740,note_on,0,0,0,,1,,,61,127
120740,note_on,0,0,0,,10,,,57,127
120898,note_off,158,0,0,,4,,,76,127
120899,note_on,1,0,0,,2,,,74,127
121057,note_off,158,0,0,,2,,,74,127
121058,note_on,1,0,0,,1,,,73,127
121216,note_off,158,0,0,,1,,,73,127
121216,note_off,0,0,0,,10,,,57,127
121216,note_off,0,0,0,,1,,,61,127
121217,note_on,1,0,0,,6,,,66,127
121217,note_on,0,0,0,,2,,,50,127
121217,note_on,0,0,0,,2,,,62,127
121375,note_off,158,0,0,,6,,,66,127
121376,note_on,1,0,0,,12,,,71,127
121534,note_off,158,0,0,,12,,,71,127
121535,note_on,1,0,0,,10,,,69,127
121693,note_off,158,0,0,,2,,,62,127
121693,note_off,0,0,0,,2,,,50,127
121694,note_on,1,0,0,,6,,,54,127
121694,note_on,0,0,0,,2,,,62,127
121833,note_off,139,0,0,,10,,,69,127
121853,note_on,20,0,0,,4,,,76,127
122011,note_off,158,0,0,,4,,,76,127
122012,note_on,1,0,0,,2,,,74,127
122170,note_off,158,0,0,,2,,,62,127
122170,note_off,0,0,0,,6,,,54,127
122171,note_on,1,0,0,,7,,,55,127
122171,note_on,0,0,0,,2,,,62,127
122310,note_off,139,0,0,,2,,,74,127
122330,note_on,20,0,0,,7,,,79,127
122488,note_off,158,0,0,,7,,,79,127
122489,note_on,1,0,0,,6,,,78,127
122647,note_off,158,0,0,,6,,,78,127
122647,note_off,0,0,0,,2,,,62,127
122647,note_off,0,0,0,,7,,,55,127
122648,note_on,1,0,0,,4,,,76,127
122648,note_on,0,0,0,,10,,,57,127
122648,note_on,0,0,0,,1,,,61,127
122806,note_off,158,0,0,,4,,,76,127
122807,note_on,1,0,0,,2,,,74,127
122965,note_off,158,0,0,,2,,,74,127
122966,note_on,1,0,0,,1,,,73,127
123124,note_off,158,0,0,,1,,,73,127
123124,note_off,0,0,0,,1,,,61,127
123124,note_off,0,0,0,,10,,,57,127
123125,note_on,1,0,0,,2,,,74,127
123125,note_on,0,0,0,,2,,,50,127
123283,note_off,158,0,0,,2,,,50,127
123283,note_off,0,0,0,,2,,,74,127
123284,note_on,1,0,0,,2,,,86,127
123284,note_on,0,0,0,,2,,,62,127
123442,note_off,158,0,0,,2,,,62,127
123442,note_off,0,0,0,,2,,,86,127
123443,note_on,1,0,0,,1,,,85,127
123443,note_on,0,0,0,,1,,,61,127
123601,note_off,158,0,0,,1,,,61,127
123601,note_off,0,0,0,,1,,,85,127
123602,note_on,1,0,0,,12,,,83,127
123602,note_on,0,0,0,,12,,,59,127
123760,note_off,158,0,0,,12,,,59,127
123760,note_off,0,0,0,,12,,,83,127
123761,note_on,1,0,0,,10,,,81,127
123761,note_on,0,0,0,,10,,,57,127
123919,note_off,158,0,0,,10,,,57,127
123919,note_off,0,0,0,,10,,,81,127
123920,note_on,1,0,0,,7,,,79,127
123920,note_on,0,0,0,,7,,,55,127
124078,note_off,158,0,0,,7,,,55,127
124078,note_off,0,0,0,,7,,,79,127
124079,note_on,1,0,0,,6,,,78,127
124079,note_on,0,0,0,,6,,,54,127
124237,note_off,158,0,0,,6,,,54,127
124237,note_off,0,0,0,,6,,,78,127
124238,note_on,1,0,0,,4,,,76,127
124238,note_on,0,0,0,,4,,,52,127
124396,note_off,158,0,0,,4,,,52,127
124396,note_off,0,0,0,,4,,,76,127
124397,note_on,1,0,0,,2,,,74,127
124397,note_on,0,0,0,,2,,,50,127
124555,note_off,158,0,0,,2,,,50,127
124555,note_off,0,0,0,,2,,,74,127
124556,note_on,1,0,0,,1,,,73,127
124556,note_on,0,0,0,,1,,,49,127
124714,note_off,158,0,0,,1,,,49,127
124714,note_off,0,0,0,,1,,,73,127
124715,note_on,1,0,0,,12,,,71,127
124715,note_on,0,0,0,,12,,,47,127
124873,note_off,158,0,0,,12,,,47,127
124873,note_off,0,0,0,,12,,,71,127
124874,note_on,1,0,0,,10,,,69,127
124874,note_on,0,0,0,,10,,,45,127
125032,note_off,158,0,0,,10,,,45,127
125032,note_off,0,0,0,,10,,,69,127
125033,note_on,1,0,0,,7,,,67,127
125033,note_on,0,0,0,,10,,,45,127
125033,note_on,0,0,0,,7,,,55,127
125191,note_off,158,0,0,,7,,,67,127
125192,note_on,1,0,0,,2,,,74,127
125350,note_off,158,0,0,,2,,,74,127
125351,note_on,1,0,0,,1,,,73,127
125509,note_off,158,0,0,,7,,,55,127
125509,note_off,0,0,0,,10,,,45,127
125510,note_on,1,0,0,,10,,,45,127
125510,note_on,0,0,0,,7,,,55,127
125668,note_off,158,0,0,,1,,,73,127
125669,note_on,1,0,0,,6,,,78,127
125827,note_off,158,0,0,,6,,,78,127
125828,note_on,1,0,0,,4,,,76,127
125986,note_off,158,0,0,,7,,,55,127
125986,note_off,0,0,0,,10,,,45,127
125987,note_on,1,0,0,,10,,,45,127
125987,note_on,0,0,0,,7,,,55,127
126145,note_off,158,0,0,,4,,,76,127
126146,note_on,1,0,0,,10,,,81,127
126304,note_off,158,0,0,,10,,,81,127
126305,note_on,1,0,0,,7,,,79,127
126463,note_off,158,0,0,,7,,,55,127
126463,note_off,0,0,0,,10,,,45,127
126464,note_on,1,0,0,,10,,,45,127
126464,note_on,0,0,0,,7,,,55,127
126622,note_off,158,0,0,,7,,,79,127
126623,note_on,1,0,0,,6,,,78,127
126781,note_off,158,0,0,,6,,,78,127
126782,note_on,1,0,0,,4,,,76,127
126940,note_off,158,0,0,,4,,,76,127
126940,note_off,0,0,0,,7,,,55,127
126940,note_off,0,0,0,,10,,,45,127
126941,note_on,1,0,0,,7,,,67,127
126941,note_on,0,0,0,,7,,,55,127
126941,note_on,0,0,0,,10,,,45,127
127099,note_off,158,0,0,,7,,,67,127
127100,note_on,1,0,0,,2,,,74,127
127258,note_off,158,0,0,,2,,,74,127
127259,note_on,1,0,0,,1,,,73,127
127417,note_off,158,0,0,,10,,,45,127
127417,note_off,0,0,0,,7,,,55,127
127418,note_on,1,0,0,,7,,,55,127
127418,note_on,0,0,0,,10,,,45,127
127576,note_off,158,0,0,,1,,,73,127
127577,note_on,1,0,0,,6,,,78,127
127735,note_off,158,0,0,,6,,,78,127
127736,note_on,1,0,0,,4,,,76,127
127894,note_off,158,0,0,,10,,,45,127
127894,note_off,0,0,0,,7,,,55,127
127895,note_on,1,0,0,,7,,,55,127
127895,note_on,0,0,0,,10,,,45,127
128053,note_off,158,0,0,,4,,,76,127
128054,note_on,1,0,0,,10,,,81,127
128212,note_off,158,0,0,,10,,,81,127
128213,note_on,1,0,0,,7,,,79,127
128371,note_off,158,0,0,,10,,,45,127
128371,note_off,0,0,0,,7,,,55,127
128372,note_on,1,0,0,,7,,,55,127
128372,note_on,0,0,0,,10,,,45,127
128530,note_off,158,0,0,,7,,,79,127
128531,note_on,1,0,0,,6,,,78,127
128689,note_off,158,0,0,,6,,,78,127
128690,note_on,1,0,0,,4,,,76,127
128848,note_off,158,0,0,,4,,,76,127
128848,note_off,0,0,0,,10,,,45,127
128848,note_off,0,0,0,,7,,,55,127
128849,note_on,1,0,0,,6,,,78,127
128849,note_on,0,0,0,,10,,,57,127
128849,note_on,0,0,0,,2,,,50,127
129007,note_off,158,0,0,,6,,,78,127
129008,note_on,1,0,0,,10,,,81,127
129166,note_off,158,0,0,,10,,,81,127
129167,note_on,1,0,0,,2,,,86,127
129325,note_off,158,0,0,,2,,,86,127
129325,note_off,0,0,0,,2,,,50,127
129325,note_off,0,0,0,,10,,,57,127
129326,note_on,1,0,0,,10,,,81,127
129326,note_on,0,0,0,,2,,,62,127
129326,note_on,0,0,0,,6,,,54,127
129484,note_off,158,0,0,,10,,,81,127
129485,note_on,1,0,0,,6,,,78,127
129643,note_off,158,0,0,,6,,,78,127
129644,note_on,1,0,0,,2,,,74,127
129802,note_off,158,0,0,,2,,,74,127
129802,note_off,0,0,0,,6,,,54,127
129802,note_off,0,0,0,,2,,,62,127
129803,note_on,1,0,0,,4,,,76,127
129803,note_on,0,0,0,,7,,,55,127
129803,note_on,0,0,0,,2,,,62,127
129803,note_on,0,0,0,,4,,,64,127
129961,note_off,158,0,0,,4,,,76,127
129962,note_on,1,0,0,,6,,,78,127
130120,note_off,158,0,0,,6,,,78,127
130121,note_on,1,0,0,,7,,,79,127
130279,note_off,158,0,0,,7,,,79,127
130279,note_off,0,0,0,,4,,,64,127
130279,note_off,0,0,0,,2,,,62,127
130279,note_off,0,0,0,,7,,,55,127
130280,note_on,1,0,0,,4,,,76,127
130280,note_on,0,0,0,,6,,,78,127
130280,note_on,0,0,0,,10,,,57,127
130280,note_on,0,0,0,,1,,,61,127
130438,note_off,158,0,0,,6,,,78,127
130438,note_off,0,0,0,,4,,,76,127
130439,note_on,1,0,0,,2,,,74,127
130597,note_off,158,0,0,,2,,,74,127
130598,note_on,1,0,0,,4,,,76,127
130756,note_off,158,0,0,,4,,,76,127
130756,note_off,0,0,0,,1,,,61,127
130756,note_off,0,0,0,,10,,,57,127
130757,note_on,1,0,0,,6,,,78,127
130757,note_on,0,0,0,,2,,,50,127
130757,note_on,0,0,0,,10,,,57,127
130915,note_off,158,0,0,,6,,,78,127
130916,note_on,1,0,0,,10,,,81,127
131074,note_off,158,0,0,,10,,,81,127
131075,note_on,1,0,0,,2,,,86,127
131233,note_off,158,0,0,,2,,,86,127
131233,note_off,0,0,0,,10,,,57,127
131233,note_off,0,0,0,,2,,,50,127
131234,note_on,1,0,0,,10,,,81,127
131234,note_on,0,0,0,,6,,,54,127
131234,note_on,0,0,0,,2,,,62,127
131392,note_off,158,0,0,,10,,,81,127
131393,note_on,1,0,0,,6,,,78,127
131551,note_off,158,0,0,,6,,,78,127
131552,note_on,1,0,0,,2,,,74,127
131710,note_off,158,0,0,,2,,,74,127
131710,note_off,0,0,0,,2,,,62,127
131710,note_off,0,0,0,,6,,,54,127
131711,note_on,1,0,0,,4,,,76,127
131711,note_on,0,0,0,,7,,,55,127
131711,note_on,0,0,0,,2,,,62,127
131711,note_on,0,0,0,,4,,,64,127
131869,note_off,158,0,0,,4,,,76,127
131870,note_on,1,0,0,,6,,,78,127
132028,note_off,158,0,0,,6,,,78,127
132029,note_on,1,0,0,,7,,,79,127
132187,note_off,158,0,0,,7,,,79,127
132187,note_off,0,0,0,,4,,,64,127
132187,note_off,0,0,0,,2,,,62,127
132187,note_off,0,0,0,,7,,,55,127
132188,note_on,1,0,0,,6,,,78,127
132188,note_on,0,0,0,,4,,,76,127
132188,note_on,0,0,0,,10,,,57,127
132188,note_on,0,0,0,,1,,,61,127
132346,note_off,158,0,0,,4,,,76,127
132346,note_off,0,0,0,,6,,,78,127
132347,note_on,1,0,0,,2,,,74,127
132505,note_off,158,0,0,,2,,,74,127
132506,note_on,1,0,0,,1,,,73,127
132664,note_off,158,0,0,,1,,,73,127
132664,note_off,0,0,0,,1,,,61,127
132664,note_off,0,0,0,,10,,,57,127
132665,note_on,1,0,0,,2,,,74,127
132665,note_on,0,0,0,,2,,,62,127
132665,note_on,0,0,0,,2,,,50,127
132824,note_on,159,0,0,,10,,,81,127
132982,note_off,158,0,0,,10,,,81,127
132983,note_on,1,0,0,,10,,,81,127
133141,note_off,158,0,0,,10,,,81,127
133141,note_off,0,0,0,,2,,,50,127
133141,note_off,0,0,0,,2,,,62,127
133141,note_off,0,0,0,,2,,,74,127
133142,note_on,1,0,0,,6,,,78,127
133142,note_on,0,0,0,,2,,,62,127
133142,note_on,0,0,0,,2,,,50,127
133300,note_off,158,0,0,,6,,,78,127
133301,note_on,1,0,0,,2,,,86,127
133459,note_off,158,0,0,,2,,,86,127
133460,note_on,1,0,0,,2,,,86,127
133618,note_off,158,0,0,,2,,,86,127
133618,note_off,0,0,0,,2,,,50,127
133618,note_off,0,0,0,,2,,,62,127
133619,note_on,1,0,0,,12,,,83,127
133619,note_on,0,0,0,,7,,,55,127
133619,note_on,0,0,0,,2,,,62,127
133777,note_off,158,0,0,,12,,,83,127
133778,note_on,1,0,0,,7,,,79,127
133936,note_off,158,0,0,,7,,,79,127
133937,note_on,1,0,0,,4,,,76,127
134095,note_off,158,0,0,,4,,,76,127
134095,note_off,0,0,0,,2,,,62,127
134095,note_off,0,0,0,,7,,,55,127
134096,note_on,1,0,0,,2,,,74,127
134096,note_on,0,0,0,,10,,,57,127
134096,note_on,0,0,0,,4,,,64,127
134254,note_off,158,0,0,,2,,,74,127
134255,note_on,1,0,0,,2,,,74,127
134307,note_off,52,0,0,,2,,,74,127
134308,note_on,1,0,0,,1,,,73,127
134360,note_off,52,0,0,,1,,,73,127
134361,note_on,1,0,0,,2,,,74,127
134413,note_off,52,0,0,,2,,,74,127
134414,note_on,1,0,0,,1,,,73,127
134466,note_off,52,0,0,,1,,,73,127
134467,note_on,1,0,0,,12,,,71,127
134519,note_off,52,0,0,,12,,,71,127
134520,note_on,1,0,0,,1,,,73,127
134572,note_off,52,0,0,,1,,,73,127
134572,note_off,0,0,0,,4,,,64,127
134572,note_off,0,0,0,,10,,,57,127
134573,note_on,1,0,0,,2,,,62,127
134573,note_on,0,0,0,,2,,,50,127
134573,note_on,0,0,0,,2,,,74,127
134735,note_off,162,0,0,,2,,,74,127
134737,note_on,2,0,0,,10,,,69,127
134899,note_off,162,0,0,,10,,,69,127
134902,note_on,3,0,0,,10,,,69,127
135062,note_off,160,0,0,,2,,,50,127
135062,note_off,0,0,0,,2,,,62,127
135064,note_off,2,0,0,,10,,,69,127
135067,note_on,3,0,0,,2,,,62,127
135067,note_on,0,0,0,,2,,,50,127
135067,note_on,0,0,0,,6,,,66,127
135229,note_off,162,0,0,,6,,,66,127
135231,note_on,2,0,0,,2,,,74,127
135393,note_off,162,0,0,,2,,,74,127
135396,note_on,3,0,0,,2,,,74,127
135556,note_off,160,0,0,,2,,,50,127
135556,note_off,0,0,0,,2,,,62,127
135558,note_off,2,0,0,,2,,,74,127
135561,note_on,3,0,0,,7,,,43,127
135561,note_on,0,0,0,,7,,,55,127
135561,note_on,0,0,0,,12,,,71,127
135723,note_off,162,0,0,,12,,,71,127
135725,note_on,2,0,0,,7,,,67,127
135887,note_off,162,0,0,,7,,,67,127
135890,note_on,3,0,0,,4,,,64,127
136050,note_off,160,0,0,,7,,,55,127
136050,note_off,0,0,0,,7,,,43,127
136052,note_off,2,0,0,,4,,,64,127
136055,note_on,3,0,0,,10,,,57,127
136055,note_on,0,0,0,,10,,,45,127
136055,note_on,0,0,0,,2,,,62,127
136217,note_off,162,0,0,,2,,,62,127
136219,note_on,2,0,0,,2,,,62,127
136272,note_off,53,0,0,,2,,,62,127
136274,note_on,2,0,0,,1,,,61,127
136327,note_off,53,0,0,,1,,,61,127
136329,note_on,2,0,0,,2,,,62,127
136382,note_off,53,0,0,,2,,,62,127
136384,note_on,2,0,0,,1,,,61,127
136437,note_off,53,0,0,,1,,,61,127
136439,note_on,2,0,0,,12,,,59,127
136492,note_off,53,0,0,,12,,,59,127
136494,note_on,2,0,0,,1,,,61,127
136544,note_off,50,0,0,,10,,,45,127
136544,note_off,0,0,0,,10,,,57,127
136554,note_off,10,0,0,,1,,,61,127
136568,note_on,14,0,0,,2,,,50,127
136568,note_on,0,0,0,,2,,,38,127
136568,note_on,0,0,0,,2,,,62,127
138301,note_off,1733,0,0,,2,,,62,127
138301,note_off,0,0,0,,2,,,38,127
138301,note_off,0,0,0,,2,,,50,127
142848,end_of_track,4547,1,0,,,,,,
