tick,type,time,meta,track,program,channel,pitch,tempo,note,velocity
0,copyright,0,1,0,,,,,,
0,program_change,0,0,0,6,0,,,,
0,pitchwheel,0,0,0,,0,0,,,
0,program_change,0,0,0,6,1,,,,
0,pitchwheel,0,0,0,,1,-590,,,
0,program_change,0,0,0,6,2,,,,
0,pitchwheel,0,0,0,,2,-272,,,
0,program_change,0,0,0,6,3,,,,
0,pitchwheel,0,0,0,,3,-353,,,
0,program_change,0,0,0,6,4,,,,
0,pitchwheel,0,0,0,,4,-560,,,
0,program_change,0,0,0,6,5,,,,
0,pitchwheel,0,0,0,,5,-80,,,
0,program_change,0,0,0,6,6,,,,
0,pitchwheel,0,0,0,,6,-625,,,
0,program_change,0,0,0,6,7,,,,
0,pitchwheel,0,0,0,,7,-130,,,
0,program_change,0,0,0,6,8,,,,
0,pitchwheel,0,0,0,,8,-512,,,
0,program_change,0,0,0,6,10,,,,
0,pitchwheel,0,0,0,,10,-464,,,
0,program_change,0,0,0,6,11,,,,
0,pitchwheel,0,0,0,,11,-208,,,
0,program_change,0,0,0,6,12,,,,
0,pitchwheel,0,0,0,,12,-553,,,
0,set_tempo,0,1,0,,,,500000,,
128,note_on,128,0,0,,2,,,38,127
128,note_on,0,0,0,,2,,,50,127
384,note_on,256,0,0,,6,,,78,127
384,note_on,0,0,0,,2,,,74,127
492,note_off,108,0,0,,2,,,74,127
492,note_off,0,0,0,,6,,,78,127
512,note_on,20,0,0,,7,,,79,127
512,note_on,0,0,0,,4,,,76,127
620,note_off,108,0,0,,4,,,76,127
620,note_off,0,0,0,,7,,,79,127
640,note_on,20,0,0,,10,,,81,127
640,note_on,0,0,0,,6,,,78,127
876,note_off,236,0,0,,6,,,78,127
876,note_off,0,0,0,,10,,,81,127
896,note_on,20,0,0,,4,,,76,127
896,note_on,0,0,0,,7,,,79,127
1132,note_off,236,0,0,,7,,,79,127
1132,note_off,0,0,0,,4,,,76,127
1133,note_off,1,0,0,,2,,,50,127
1133,note_off,0,0,0,,2,,,38,127
1152,note_on,19,0,0,,6,,,78,127
1152,note_on,0,0,0,,2,,,74,127
1388,note_off,236,0,0,,2,,,74,127
1388,note_off,0,0,0,,6,,,78,127
1408,note_on,20,0,0,,10,,,69,127
1408,note_on,0,0,0,,6,,,78,127
1473,note_off,65,0,0,,6,,,78,127
1493,note_on,20,0,0,,4,,,76,127
1558,note_off,65,0,0,,4,,,76,127
1578,note_on,20,0,0,,2,,,74,127
1643,note_off,65,0,0,,2,,,74,127
1643,note_off,0,0,0,,10,,,69,127
1663,note_on,20,0,0,,10,,,69,127
1663,note_on,0,0,0,,4,,,76,127
1899,note_off,236,0,0,,4,,,76,127
1899,note_off,0,0,0,,10,,,69,127
1919,note_on,20,0,0,,10,,,69,127
1919,note_on,0,0,0,,4,,,76,127
2155,note_off,236,0,0,,4,,,76,127
2155,note_off,0,0,0,,10,,,69,127
2175,note_on,20,0,0,,10,,,69,127
2175,note_on,0,0,0,,4,,,76,127
2411,note_off,236,0,0,,4,,,76,127
2431,note_on,20,0,0,,6,,,78,127
2431,note_on,0,0,0,,2,,,74,127
2539,note_off,108,0,0,,2,,,74,127
2539,note_off,0,0,0,,6,,,78,127
2559,note_on,20,0,0,,4,,,76,127
2559,note_on,0,0,0,,7,,,79,127
2667,note_off,108,0,0,,7,,,79,127
2667,note_off,0,0,0,,4,,,76,127
2687,note_on,20,0,0,,10,,,81,127
2687,note_on,0,0,0,,6,,,78,127
2923,note_off,236,0,0,,6,,,78,127
2923,note_off,0,0,0,,10,,,81,127
2943,note_on,20,0,0,,4,,,76,127
2943,note_on,0,0,0,,7,,,79,127
3179,note_off,236,0,0,,7,,,79,127
3179,note_off,0,0,0,,4,,,76,127
3199,note_on,20,0,0,,2,,,74,127
3199,note_on,0,0,0,,6,,,78,127
3424,note_off,225,0,0,,10,,,69,127
3435,note_off,11,0,0,,6,,,78,127
3435,note_off,0,0,0,,2,,,74,127
3455,note_on,20,0,0,,10,,,69,127
3455,note_on,0,0,0,,6,,,78,127
3520,note_off,65,0,0,,6,,,78,127
3540,note_on,20,0,0,,4,,,76,127
3605,note_off,65,0,0,,4,,,76,127
3625,note_on,20,0,0,,2,,,74,127
3690,note_off,65,0,0,,2,,,74,127
3690,note_off,0,0,0,,10,,,69,127
3710,note_on,20,0,0,,10,,,69,127
3710,note_on,0,0,0,,4,,,76,127
3946,note_off,236,0,0,,4,,,76,127
3946,note_off,0,0,0,,10,,,69,127
3966,note_on,20,0,0,,10,,,69,127
3966,note_on,0,0,0,,4,,,76,127
4202,note_off,236,0,0,,4,,,76,127
4202,note_off,0,0,0,,10,,,69,127
4222,note_on,20,0,0,,10,,,69,127
4222,note_on,0,0,0,,4,,,76,127
4469,note_off,247,0,0,,4,,,76,127
4478,note_on,9,0,0,,6,,,66,127
4478,note_on,0,0,0,,2,,,74,127
4597,note_off,119,0,0,,2,,,74,127
4597,note_off,0,0,0,,6,,,66,127
4606,note_on,9,0,0,,4,,,64,127
4606,note_on,0,0,0,,4,,,76,127
4725,note_off,119,0,0,,4,,,76,127
4725,note_off,0,0,0,,4,,,64,127
4734,note_on,9,0,0,,2,,,62,127
4734,note_on,0,0,0,,6,,,78,127
4981,note_off,247,0,0,,6,,,78,127
4981,note_off,0,0,0,,2,,,62,127
4990,note_on,9,0,0,,1,,,61,127
4990,note_on,0,0,0,,7,,,79,127
5237,note_off,247,0,0,,7,,,79,127
5237,note_off,0,0,0,,1,,,61,127
5246,note_on,9,0,0,,2,,,62,127
5246,note_on,0,0,0,,6,,,78,127
5471,note_off,225,0,0,,10,,,69,127
5492,note_off,21,0,0,,6,,,78,127
5492,note_off,0,0,0,,2,,,62,127
5501,note_on,9,0,0,,10,,,57,127
5501,note_on,0,0,0,,4,,,76,127
5620,note_off,119,0,0,,4,,,76,127
5629,note_on,9,0,0,,2,,,74,127
5748,note_off,119,0,0,,2,,,74,127
5748,note_off,0,0,0,,10,,,57,127
5757,note_on,9,0,0,,10,,,57,127
5757,note_on,0,0,0,,1,,,73,127
6004,note_off,247,0,0,,1,,,73,127
6004,note_off,0,0,0,,10,,,57,127
6013,note_on,9,0,0,,10,,,57,127
6013,note_on,0,0,0,,2,,,74,127
6260,note_off,247,0,0,,2,,,74,127
6260,note_off,0,0,0,,10,,,57,127
6269,note_on,9,0,0,,10,,,57,127
6269,note_on,0,0,0,,4,,,76,127
6516,note_off,247,0,0,,4,,,76,127
6525,note_on,9,0,0,,6,,,66,127
6525,note_on,0,0,0,,2,,,74,127
6644,note_off,119,0,0,,2,,,74,127
6644,note_off,0,0,0,,6,,,66,127
6653,note_on,9,0,0,,4,,,64,127
6653,note_on,0,0,0,,4,,,76,127
6772,note_off,119,0,0,,4,,,76,127
6772,note_off,0,0,0,,4,,,64,127
6781,note_on,9,0,0,,2,,,62,127
6781,note_on,0,0,0,,6,,,78,127
7028,note_off,247,0,0,,6,,,78,127
7028,note_off,0,0,0,,2,,,62,127
7037,note_on,9,0,0,,1,,,61,127
7037,note_on,0,0,0,,7,,,79,127
7284,note_off,247,0,0,,7,,,79,127
7284,note_off,0,0,0,,1,,,61,127
7293,note_on,9,0,0,,2,,,62,127
7293,note_on,0,0,0,,6,,,78,127
7518,note_off,225,0,0,,10,,,57,127
7539,note_off,21,0,0,,6,,,78,127
7539,note_off,0,0,0,,2,,,62,127
7548,note_on,9,0,0,,10,,,57,127
7548,note_on,0,0,0,,4,,,76,127
7667,note_off,119,0,0,,4,,,76,127
7676,note_on,9,0,0,,2,,,74,127
7795,note_off,119,0,0,,2,,,74,127
7795,note_off,0,0,0,,10,,,57,127
7804,note_on,9,0,0,,10,,,57,127
7804,note_on,0,0,0,,1,,,73,127
8051,note_off,247,0,0,,1,,,73,127
8051,note_off,0,0,0,,10,,,57,127
8060,note_on,9,0,0,,10,,,57,127
8060,note_on,0,0,0,,2,,,74,127
8307,note_off,247,0,0,,2,,,74,127
8307,note_off,0,0,0,,10,,,57,127
8316,note_on,9,0,0,,10,,,57,127
8316,note_on,0,0,0,,4,,,76,127
8569,note_off,253,0,0,,4,,,76,127
8569,note_off,0,0,0,,10,,,57,127
8572,note_on,3,0,0,,6,,,54,127
8572,note_on,0,0,0,,10,,,81,127
8572,note_on,0,0,0,,10,,,69,127
8825,note_off,253,0,0,,10,,,69,127
8825,note_off,0,0,0,,10,,,81,127
8825,note_off,0,0,0,,6,,,54,127
8828,note_on,3,0,0,,7,,,55,127
8828,note_on,0,0,0,,10,,,81,127
8828,note_on,0,0,0,,12,,,71,127
9081,note_off,253,0,0,,12,,,71,127
9081,note_off,0,0,0,,10,,,81,127
9081,note_off,0,0,0,,7,,,55,127
9084,note_on,3,0,0,,10,,,57,127
9084,note_on,0,0,0,,1,,,73,127
9084,note_on,0,0,0,,10,,,81,127
9337,note_off,253,0,0,,10,,,81,127
9337,note_off,0,0,0,,1,,,73,127
9337,note_off,0,0,0,,10,,,57,127
9340,note_on,3,0,0,,12,,,59,127
9340,note_on,0,0,0,,2,,,74,127
9340,note_on,0,0,0,,10,,,81,127
9593,note_off,253,0,0,,10,,,81,127
9593,note_off,0,0,0,,2,,,74,127
9593,note_off,0,0,0,,12,,,59,127
9596,note_on,3,0,0,,1,,,61,127
9596,note_on,0,0,0,,4,,,76,127
9596,note_on,0,0,0,,7,,,79,127
9849,note_off,253,0,0,,7,,,79,127
9849,note_off,0,0,0,,4,,,76,127
9849,note_off,0,0,0,,1,,,61,127
9852,note_on,3,0,0,,2,,,62,127
9852,note_on,0,0,0,,6,,,78,127
10105,note_off,253,0,0,,6,,,78,127
10105,note_off,0,0,0,,2,,,62,127
10108,note_on,3,0,0,,4,,,64,127
10108,note_on,0,0,0,,7,,,79,127
10233,note_off,125,0,0,,7,,,79,127
10236,note_on,3,0,0,,4,,,76,127
10361,note_off,125,0,0,,4,,,76,127
10361,note_off,0,0,0,,4,,,64,127
10364,note_on,3,0,0,,6,,,66,127
10364,note_on,0,0,0,,2,,,74,127
10617,note_off,253,0,0,,2,,,74,127
10617,note_off,0,0,0,,6,,,66,127
10620,note_on,3,0,0,,6,,,66,127
10620,note_on,0,0,0,,10,,,81,127
10873,note_off,253,0,0,,10,,,81,127
10873,note_off,0,0,0,,6,,,66,127
10876,note_on,3,0,0,,6,,,66,127
10876,note_on,0,0,0,,12,,,83,127
10959,note_off,83,0,0,,12,,,83,127
10962,note_on,3,0,0,,10,,,81,127
11045,note_off,83,0,0,,10,,,81,127
11048,note_on,3,0,0,,12,,,83,127
11131,note_off,83,0,0,,12,,,83,127
11131,note_off,0,0,0,,6,,,66,127
11134,note_on,3,0,0,,6,,,66,127
11134,note_on,0,0,0,,10,,,81,127
11217,note_off,83,0,0,,10,,,81,127
11220,note_on,3,0,0,,7,,,79,127
11303,note_off,83,0,0,,7,,,79,127
11306,note_on,3,0,0,,10,,,81,127
11389,note_off,83,0,0,,10,,,81,127
11389,note_off,0,0,0,,6,,,66,127
11392,note_on,3,0,0,,7,,,67,127
11392,note_on,0,0,0,,12,,,83,127
11517,note_off,125,0,0,,12,,,83,127
11520,note_on,3,0,0,,2,,,74,127
11645,note_off,125,0,0,,2,,,74,127
11648,note_on,3,0,0,,7,,,55,127
11648,note_on,0,0,0,,7,,,79,127
11773,note_off,125,0,0,,7,,,79,127
11776,note_on,3,0,0,,12,,,71,127
11899,note_off,123,0,0,,7,,,67,127
11902,note_off,3,0,0,,12,,,71,127
11902,note_off,0,0,0,,7,,,55,127
11905,note_on,3,0,0,,10,,,57,127
11905,note_on,0,0,0,,6,,,78,127
11988,note_off,83,0,0,,6,,,78,127
11991,note_on,3,0,0,,4,,,76,127
12074,note_off,83,0,0,,4,,,76,127
12077,note_on,3,0,0,,6,,,78,127
12160,note_off,83,0,0,,6,,,78,127
12163,note_on,3,0,0,,10,,,45,127
12163,note_on,0,0,0,,4,,,76,127
12246,note_off,83,0,0,,4,,,76,127
12249,note_on,3,0,0,,2,,,74,127
12332,note_off,83,0,0,,2,,,74,127
12335,note_on,3,0,0,,4,,,76,127
12415,note_off,80,0,0,,10,,,57,127
12418,note_off,3,0,0,,4,,,76,127
12418,note_off,0,0,0,,10,,,45,127
12421,note_on,3,0,0,,2,,,50,127
12421,note_on,0,0,0,,2,,,74,127
12666,note_off,245,0,0,,2,,,74,127
12677,note_on,11,0,0,,10,,,81,127
12920,note_off,243,0,0,,2,,,50,127
12923,note_off,3,0,0,,10,,,81,127
12934,note_on,11,0,0,,10,,,81,127
12934,note_on,0,0,0,,8,,,80,127
13179,note_off,245,0,0,,8,,,80,127
13179,note_off,0,0,0,,10,,,81,127
13190,note_on,11,0,0,,2,,,74,127
13190,note_on,0,0,0,,6,,,78,127
13190,note_on,0,0,0,,10,,,81,127
13435,note_off,245,0,0,,10,,,81,127
13435,note_off,0,0,0,,6,,,78,127
13435,note_off,0,0,0,,2,,,74,127
13446,note_on,11,0,0,,1,,,73,127
13446,note_on,0,0,0,,4,,,76,127
13446,note_on,0,0,0,,10,,,81,127
13691,note_off,245,0,0,,10,,,81,127
13691,note_off,0,0,0,,4,,,76,127
13691,note_off,0,0,0,,1,,,73,127
13702,note_on,11,0,0,,12,,,71,127
13702,note_on,0,0,0,,12,,,83,127
13702,note_on,0,0,0,,2,,,74,127
13947,note_off,245,0,0,,2,,,74,127
13947,note_off,0,0,0,,12,,,83,127
13947,note_off,0,0,0,,12,,,71,127
13958,note_on,11,0,0,,10,,,69,127
13958,note_on,0,0,0,,4,,,76,127
13958,note_on,0,0,0,,1,,,85,127
14203,note_off,245,0,0,,1,,,85,127
14203,note_off,0,0,0,,10,,,69,127
14214,note_on,11,0,0,,8,,,68,127
14214,note_on,0,0,0,,2,,,86,127
14459,note_off,245,0,0,,2,,,86,127
14459,note_off,0,0,0,,8,,,68,127
14470,note_on,11,0,0,,10,,,69,127
14470,note_on,0,0,0,,2,,,86,127
14470,note_on,0,0,0,,1,,,85,127
14545,note_off,75,0,0,,1,,,85,127
14545,note_off,0,0,0,,2,,,86,127
14556,note_on,11,0,0,,12,,,83,127
14631,note_off,75,0,0,,12,,,83,127
14642,note_on,11,0,0,,10,,,81,127
14717,note_off,75,0,0,,10,,,81,127
14728,note_on,11,0,0,,10,,,81,127
14973,note_off,245,0,0,,10,,,81,127
14974,note_off,1,0,0,,4,,,76,127
14983,note_on,9,0,0,,10,,,81,127
14983,note_on,0,0,0,,8,,,80,127
15103,note_off,120,0,0,,10,,,69,127
15228,note_off,125,0,0,,8,,,80,127
15228,note_off,0,0,0,,10,,,81,127
15239,note_on,11,0,0,,2,,,74,127
15239,note_on,0,0,0,,6,,,78,127
15239,note_on,0,0,0,,10,,,81,127
15484,note_off,245,0,0,,10,,,81,127
15484,note_off,0,0,0,,6,,,78,127
15484,note_off,0,0,0,,2,,,74,127
15495,note_on,11,0,0,,1,,,73,127
15495,note_on,0,0,0,,4,,,76,127
15495,note_on,0,0,0,,10,,,81,127
15740,note_off,245,0,0,,10,,,81,127
15740,note_off,0,0,0,,4,,,76,127
15740,note_off,0,0,0,,1,,,73,127
15751,note_on,11,0,0,,12,,,71,127
15751,note_on,0,0,0,,2,,,74,127
15751,note_on,0,0,0,,12,,,83,127
15996,note_off,245,0,0,,12,,,83,127
15996,note_off,0,0,0,,2,,,74,127
15996,note_off,0,0,0,,12,,,71,127
16007,note_on,11,0,0,,10,,,69,127
16007,note_on,0,0,0,,4,,,76,127
16007,note_on,0,0,0,,1,,,85,127
16252,note_off,245,0,0,,1,,,85,127
16252,note_off,0,0,0,,10,,,69,127
16263,note_on,11,0,0,,8,,,68,127
16263,note_on,0,0,0,,2,,,86,127
16508,note_off,245,0,0,,2,,,86,127
16508,note_off,0,0,0,,8,,,68,127
16519,note_on,11,0,0,,10,,,69,127
16519,note_on,0,0,0,,1,,,85,127
16519,note_on,0,0,0,,2,,,86,127
16602,note_off,83,0,0,,2,,,86,127
16602,note_off,0,0,0,,1,,,85,127
16605,note_on,3,0,0,,12,,,83,127
16688,note_off,83,0,0,,12,,,83,127
16691,note_on,3,0,0,,10,,,81,127
16774,note_off,83,0,0,,10,,,81,127
16777,note_on,3,0,0,,1,,,85,127
17024,note_off,247,0,0,,4,,,76,127
17031,note_off,7,0,0,,1,,,85,127
17034,note_on,3,0,0,,10,,,81,127
17287,note_off,253,0,0,,10,,,81,127
17290,note_on,3,0,0,,6,,,78,127
17543,note_off,253,0,0,,6,,,78,127
17544,note_off,1,0,0,,10,,,69,127
17545,note_on,1,0,0,,3,,,75,127
17798,note_off,253,0,0,,3,,,75,127
17801,note_on,3,0,0,,3,,,63,127
17801,note_on,0,0,0,,10,,,57,127
17801,note_on,0,0,0,,12,,,59,127
17801,note_on,0,0,0,,12,,,71,127
18054,note_off,253,0,0,,12,,,71,127
18054,note_off,0,0,0,,12,,,59,127
18054,note_off,0,0,0,,10,,,57,127
18054,note_off,0,0,0,,3,,,63,127
18057,note_on,3,0,0,,3,,,63,127
18057,note_on,0,0,0,,12,,,59,127
18057,note_on,0,0,0,,10,,,57,127
18057,note_on,0,0,0,,12,,,71,127
18140,note_off,83,0,0,,12,,,71,127
18143,note_on,3,0,0,,10,,,69,127
18226,note_off,83,0,0,,10,,,69,127
18229,note_on,3,0,0,,12,,,71,127
18312,note_off,83,0,0,,12,,,71,127
18312,note_off,0,0,0,,10,,,57,127
18312,note_off,0,0,0,,12,,,59,127
18312,note_off,0,0,0,,3,,,63,127
18315,note_on,3,0,0,,3,,,63,127
18315,note_on,0,0,0,,12,,,59,127
18315,note_on,0,0,0,,10,,,57,127
18315,note_on,0,0,0,,10,,,69,127
18398,note_off,83,0,0,,10,,,69,127
18401,note_on,3,0,0,,8,,,68,127
18484,note_off,83,0,0,,8,,,68,127
18487,note_on,3,0,0,,10,,,69,127
18570,note_off,83,0,0,,10,,,69,127
18570,note_off,0,0,0,,10,,,57,127
18570,note_off,0,0,0,,12,,,59,127
18570,note_off,0,0,0,,3,,,63,127
18573,note_on,3,0,0,,4,,,52,127
18573,note_on,0,0,0,,4,,,64,127
18573,note_on,0,0,0,,8,,,68,127
18826,note_off,253,0,0,,8,,,68,127
18829,note_on,3,0,0,,4,,,76,127
18912,note_off,83,0,0,,4,,,76,127
18915,note_on,3,0,0,,2,,,74,127
18998,note_off,83,0,0,,2,,,74,127
19001,note_on,3,0,0,,12,,,71,127
19084,note_off,83,0,0,,12,,,71,127
19087,note_on,3,0,0,,1,,,73,127
19215,note_off,128,0,0,,4,,,64,127
19215,note_off,0,0,0,,4,,,52,127
19340,note_off,125,0,0,,1,,,73,127
19343,note_on,3,0,0,,8,,,68,127
19343,note_on,0,0,0,,4,,,64,127
19343,note_on,0,0,0,,4,,,76,127
19343,note_on,0,0,0,,2,,,74,127
19596,note_off,253,0,0,,2,,,74,127
19596,note_off,0,0,0,,4,,,76,127
19596,note_off,0,0,0,,4,,,64,127
19596,note_off,0,0,0,,8,,,68,127
19599,note_on,3,0,0,,10,,,69,127
19599,note_on,0,0,0,,4,,,64,127
19599,note_on,0,0,0,,1,,,73,127
19852,note_off,253,0,0,,1,,,73,127
19852,note_off,0,0,0,,10,,,69,127
19855,note_on,3,0,0,,8,,,68,127
19855,note_on,0,0,0,,4,,,76,127
19938,note_off,83,0,0,,4,,,76,127
19941,note_on,3,0,0,,2,,,74,127
20024,note_off,83,0,0,,2,,,74,127
20027,note_on,3,0,0,,12,,,71,127
20107,note_off,80,0,0,,4,,,64,127
20110,note_off,3,0,0,,12,,,71,127
20113,note_on,3,0,0,,1,,,73,127
20230,note_off,117,0,0,,8,,,68,127
20366,note_off,136,0,0,,1,,,73,127
20369,note_on,3,0,0,,8,,,68,127
20369,note_on,0,0,0,,4,,,64,127
20369,note_on,0,0,0,,4,,,76,127
20369,note_on,0,0,0,,2,,,74,127
20622,note_off,253,0,0,,2,,,74,127
20622,note_off,0,0,0,,4,,,76,127
20622,note_off,0,0,0,,4,,,64,127
20622,note_off,0,0,0,,8,,,68,127
20625,note_on,3,0,0,,10,,,69,127
20625,note_on,0,0,0,,4,,,64,127
20625,note_on,0,0,0,,1,,,73,127
20878,note_off,253,0,0,,1,,,73,127
20878,note_off,0,0,0,,10,,,69,127
20881,note_on,3,0,0,,8,,,68,127
20881,note_on,0,0,0,,4,,,76,127
20964,note_off,83,0,0,,4,,,76,127
20967,note_on,3,0,0,,2,,,74,127
21050,note_off,83,0,0,,2,,,74,127
21053,note_on,3,0,0,,12,,,71,127
21133,note_off,80,0,0,,4,,,64,127
21136,note_off,3,0,0,,12,,,71,127
21139,note_on,3,0,0,,1,,,73,127
21256,note_off,117,0,0,,8,,,68,127
21392,note_off,136,0,0,,1,,,73,127
21395,note_on,3,0,0,,8,,,68,127
21395,note_on,0,0,0,,4,,,64,127
21395,note_on,0,0,0,,4,,,76,127
21395,note_on,0,0,0,,2,,,74,127
21648,note_off,253,0,0,,2,,,74,127
21648,note_off,0,0,0,,4,,,76,127
21648,note_off,0,0,0,,4,,,64,127
21648,note_off,0,0,0,,8,,,68,127
21651,note_on,3,0,0,,10,,,69,127
21651,note_on,0,0,0,,1,,,73,127
21904,note_off,253,0,0,,1,,,73,127
21904,note_off,0,0,0,,10,,,69,127
21907,note_on,3,0,0,,1,,,61,127
21907,note_on,0,0,0,,10,,,81,127
22160,note_off,253,0,0,,10,,,81,127
22160,note_off,0,0,0,,1,,,61,127
22163,note_on,3,0,0,,2,,,62,127
22163,note_on,0,0,0,,8,,,80,127
22288,note_off,125,0,0,,8,,,80,127
22291,note_on,3,0,0,,6,,,78,127
22416,note_off,125,0,0,,6,,,78,127
22416,note_off,0,0,0,,2,,,62,127
22419,note_on,3,0,0,,6,,,66,127
22419,note_on,0,0,0,,4,,,76,127
22544,note_off,125,0,0,,4,,,76,127
22547,note_on,3,0,0,,2,,,74,127
22672,note_off,125,0,0,,2,,,74,127
22672,note_off,0,0,0,,6,,,66,127
22675,note_on,3,0,0,,4,,,64,127
22675,note_on,0,0,0,,1,,,73,127
22758,note_off,83,0,0,,1,,,73,127
22761,note_on,3,0,0,,12,,,71,127
22844,note_off,83,0,0,,12,,,71,127
22847,note_on,3,0,0,,10,,,69,127
22930,note_off,83,0,0,,4,,,64,127
22933,note_on,3,0,0,,4,,,64,127
23101,note_off,168,0,0,,10,,,69,127
23104,note_on,3,0,0,,12,,,71,127
23187,note_off,83,0,0,,12,,,71,127
23187,note_off,0,0,0,,4,,,64,127
23190,note_on,3,0,0,,4,,,52,127
23190,note_on,0,0,0,,1,,,73,127
23273,note_off,83,0,0,,1,,,73,127
23276,note_on,3,0,0,,12,,,71,127
23359,note_off,83,0,0,,12,,,71,127
23362,note_on,3,0,0,,1,,,73,127
23445,note_off,83,0,0,,1,,,73,127
23445,note_off,0,0,0,,4,,,52,127
23448,note_on,3,0,0,,4,,,52,127
23448,note_on,0,0,0,,12,,,71,127
23531,note_off,83,0,0,,12,,,71,127
23534,note_on,3,0,0,,10,,,69,127
23617,note_off,83,0,0,,10,,,69,127
23620,note_on,3,0,0,,12,,,71,127
23703,note_off,83,0,0,,12,,,71,127
23703,note_off,0,0,0,,4,,,52,127
23706,note_on,3,0,0,,10,,,57,127
23706,note_on,0,0,0,,1,,,61,127
23706,note_on,0,0,0,,10,,,69,127
23789,note_off,83,0,0,,10,,,69,127
23792,note_on,3,0,0,,8,,,80,127
23875,note_off,83,0,0,,8,,,80,127
23878,note_on,3,0,0,,12,,,83,127
23961,note_off,83,0,0,,12,,,83,127
23961,note_off,0,0,0,,1,,,61,127
23961,note_off,0,0,0,,10,,,57,127
23964,note_on,3,0,0,,10,,,57,127
23964,note_on,0,0,0,,1,,,61,127
23964,note_on,0,0,0,,10,,,81,127
24217,note_off,253,0,0,,1,,,61,127
24217,note_off,0,0,0,,10,,,57,127
24220,note_on,3,0,0,,1,,,61,127
24220,note_on,0,0,0,,10,,,57,127
24473,note_off,253,0,0,,10,,,57,127
24473,note_off,0,0,0,,1,,,61,127
24473,note_off,0,0,0,,10,,,81,127
24476,note_on,3,0,0,,10,,,57,127
24476,note_on,0,0,0,,1,,,61,127
24476,note_on,0,0,0,,1,,,73,127
24729,note_off,253,0,0,,1,,,73,127
24729,note_off,0,0,0,,1,,,61,127
24729,note_off,0,0,0,,10,,,57,127
24732,note_on,3,0,0,,2,,,62,127
24732,note_on,0,0,0,,12,,,59,127
24732,note_on,0,0,0,,2,,,74,127
24815,note_off,83,0,0,,2,,,74,127
24818,note_on,3,0,0,,8,,,80,127
24901,note_off,83,0,0,,8,,,80,127
24904,note_on,3,0,0,,12,,,83,127
24987,note_off,83,0,0,,12,,,83,127
24987,note_off,0,0,0,,12,,,59,127
24987,note_off,0,0,0,,2,,,62,127
24990,note_on,3,0,0,,2,,,62,127
24990,note_on,0,0,0,,12,,,59,127
24990,note_on,0,0,0,,10,,,81,127
25243,note_off,253,0,0,,12,,,59,127
25243,note_off,0,0,0,,2,,,62,127
25246,note_on,3,0,0,,2,,,62,127
25246,note_on,0,0,0,,12,,,59,127
25499,note_off,253,0,0,,12,,,59,127
25499,note_off,0,0,0,,2,,,62,127
25499,note_off,0,0,0,,10,,,81,127
25502,note_on,3,0,0,,2,,,62,127
25502,note_on,0,0,0,,12,,,59,127
25502,note_on,0,0,0,,2,,,74,127
25755,note_off,253,0,0,,2,,,74,127
25755,note_off,0,0,0,,12,,,59,127
25755,note_off,0,0,0,,2,,,62,127
25758,note_on,3,0,0,,4,,,64,127
25758,note_on,0,0,0,,1,,,61,127
25758,note_on,0,0,0,,4,,,76,127
25841,note_off,83,0,0,,4,,,76,127
25844,note_on,3,0,0,,8,,,80,127
25927,note_off,83,0,0,,8,,,80,127
25930,note_on,3,0,0,,12,,,83,127
26013,note_off,83,0,0,,12,,,83,127
26013,note_off,0,0,0,,1,,,61,127
26013,note_off,0,0,0,,4,,,64,127
26016,note_on,3,0,0,,1,,,61,127
26016,note_on,0,0,0,,4,,,64,127
26016,note_on,0,0,0,,10,,,81,127
26269,note_off,253,0,0,,4,,,64,127
26269,note_off,0,0,0,,1,,,61,127
26272,note_on,3,0,0,,4,,,64,127
26272,note_on,0,0,0,,1,,,61,127
26525,note_off,253,0,0,,1,,,61,127
26525,note_off,0,0,0,,4,,,64,127
26525,note_off,0,0,0,,10,,,81,127
26528,note_on,3,0,0,,1,,,61,127
26528,note_on,0,0,0,,4,,,64,127
26528,note_on,0,0,0,,4,,,76,127
26781,note_off,253,0,0,,4,,,76,127
26781,note_off,0,0,0,,4,,,64,127
26781,note_off,0,0,0,,1,,,61,127
26784,note_on,3,0,0,,6,,,66,127
26784,note_on,0,0,0,,2,,,62,127
26784,note_on,0,0,0,,6,,,78,127
27037,note_off,253,0,0,,2,,,62,127
27037,note_off,0,0,0,,6,,,66,127
27040,note_on,3,0,0,,6,,,66,127
27040,note_on,0,0,0,,2,,,62,127
27123,note_off,83,0,0,,6,,,78,127
27126,note_on,3,0,0,,8,,,80,127
27209,note_off,83,0,0,,8,,,80,127
27212,note_on,3,0,0,,10,,,81,127
27295,note_off,83,0,0,,10,,,81,127
27295,note_off,0,0,0,,2,,,62,127
27295,note_off,0,0,0,,6,,,66,127
27298,note_on,3,0,0,,6,,,66,127
27298,note_on,0,0,0,,2,,,62,127
27298,note_on,0,0,0,,12,,,71,127
27551,note_off,253,0,0,,2,,,62,127
27551,note_off,0,0,0,,6,,,66,127
27554,note_on,3,0,0,,6,,,66,127
27554,note_on,0,0,0,,2,,,62,127
27637,note_off,83,0,0,,12,,,71,127
27640,note_on,3,0,0,,1,,,73,127
27723,note_off,83,0,0,,1,,,73,127
27726,note_on,3,0,0,,2,,,74,127
27809,note_off,83,0,0,,2,,,74,127
27809,note_off,0,0,0,,2,,,62,127
27809,note_off,0,0,0,,6,,,66,127
27812,note_on,3,0,0,,4,,,64,127
27812,note_on,0,0,0,,10,,,69,127
28065,note_off,253,0,0,,4,,,64,127
28068,note_on,3,0,0,,4,,,64,127
28236,note_off,168,0,0,,10,,,69,127
28239,note_on,3,0,0,,12,,,71,127
28322,note_off,83,0,0,,12,,,71,127
28322,note_off,0,0,0,,4,,,64,127
28325,note_on,3,0,0,,4,,,52,127
28325,note_on,0,0,0,,1,,,73,127
28408,note_off,83,0,0,,1,,,73,127
28411,note_on,3,0,0,,12,,,71,127
28494,note_off,83,0,0,,12,,,71,127
28497,note_on,3,0,0,,1,,,73,127
28580,note_off,83,0,0,,1,,,73,127
28580,note_off,0,0,0,,4,,,52,127
28583,note_on,3,0,0,,4,,,52,127
28583,note_on,0,0,0,,12,,,71,127
28666,note_off,83,0,0,,12,,,71,127
28669,note_on,3,0,0,,10,,,69,127
28752,note_off,83,0,0,,10,,,69,127
28755,note_on,3,0,0,,12,,,71,127
28838,note_off,83,0,0,,12,,,71,127
28838,note_off,0,0,0,,4,,,52,127
28841,note_on,3,0,0,,10,,,57,127
28841,note_on,0,0,0,,1,,,73,127
29094,note_off,253,0,0,,1,,,73,127
29094,note_off,0,0,0,,10,,,57,127
29097,note_on,3,0,0,,1,,,61,127
29097,note_on,0,0,0,,10,,,81,127
29350,note_off,253,0,0,,10,,,81,127
29350,note_off,0,0,0,,1,,,61,127
29353,note_on,3,0,0,,2,,,62,127
29353,note_on,0,0,0,,8,,,80,127
29478,note_off,125,0,0,,8,,,80,127
29481,note_on,3,0,0,,6,,,78,127
29606,note_off,125,0,0,,6,,,78,127
29606,note_off,0,0,0,,2,,,62,127
29609,note_on,3,0,0,,6,,,66,127
29609,note_on,0,0,0,,4,,,76,127
29734,note_off,125,0,0,,4,,,76,127
29737,note_on,3,0,0,,2,,,74,127
29862,note_off,125,0,0,,2,,,74,127
29862,note_off,0,0,0,,6,,,66,127
29865,note_on,3,0,0,,4,,,64,127
29865,note_on,0,0,0,,1,,,73,127
29948,note_off,83,0,0,,1,,,73,127
29951,note_on,3,0,0,,12,,,71,127
30034,note_off,83,0,0,,12,,,71,127
30037,note_on,3,0,0,,10,,,69,127
30120,note_off,83,0,0,,4,,,64,127
30123,note_on,3,0,0,,4,,,64,127
30291,note_off,168,0,0,,10,,,69,127
30294,note_on,3,0,0,,12,,,71,127
30377,note_off,83,0,0,,12,,,71,127
30377,note_off,0,0,0,,4,,,64,127
30380,note_on,3,0,0,,4,,,52,127
30380,note_on,0,0,0,,1,,,73,127
30463,note_off,83,0,0,,1,,,73,127
30466,note_on,3,0,0,,12,,,71,127
30549,note_off,83,0,0,,12,,,71,127
30552,note_on,3,0,0,,1,,,73,127
30635,note_off,83,0,0,,1,,,73,127
30635,note_off,0,0,0,,4,,,52,127
30638,note_on,3,0,0,,4,,,52,127
30638,note_on,0,0,0,,12,,,71,127
30721,note_off,83,0,0,,12,,,71,127
30724,note_on,3,0,0,,10,,,69,127
30807,note_off,83,0,0,,10,,,69,127
30810,note_on,3,0,0,,12,,,71,127
30893,note_off,83,0,0,,12,,,71,127
30893,note_off,0,0,0,,4,,,52,127
30896,note_on,3,0,0,,10,,,57,127
30896,note_on,0,0,0,,1,,,73,127
31149,note_off,253,0,0,,1,,,73,127
31149,note_off,0,0,0,,10,,,57,127
31152,note_on,3,0,0,,1,,,49,127
31152,note_on,0,0,0,,10,,,81,127
31405,note_off,253,0,0,,10,,,81,127
31405,note_off,0,0,0,,1,,,49,127
31408,note_on,3,0,0,,2,,,50,127
31408,note_on,0,0,0,,8,,,80,127
31533,note_off,125,0,0,,8,,,80,127
31536,note_on,3,0,0,,6,,,78,127
31661,note_off,125,0,0,,6,,,78,127
31661,note_off,0,0,0,,2,,,50,127
31664,note_on,3,0,0,,6,,,54,127
31664,note_on,0,0,0,,4,,,76,127
31789,note_off,125,0,0,,4,,,76,127
31792,note_on,3,0,0,,2,,,74,127
31917,note_off,125,0,0,,2,,,74,127
31917,note_off,0,0,0,,6,,,54,127
31920,note_on,3,0,0,,4,,,52,127
31920,note_on,0,0,0,,1,,,73,127
32003,note_off,83,0,0,,1,,,73,127
32006,note_on,3,0,0,,12,,,71,127
32089,note_off,83,0,0,,12,,,71,127
32092,note_on,3,0,0,,10,,,69,127
32175,note_off,83,0,0,,10,,,69,127
32175,note_off,0,0,0,,4,,,52,127
32178,note_on,3,0,0,,4,,,52,127
32178,note_on,0,0,0,,8,,,68,127
32261,note_off,83,0,0,,8,,,68,127
32264,note_on,3,0,0,,6,,,66,127
32347,note_off,83,0,0,,6,,,66,127
32350,note_on,3,0,0,,4,,,64,127
32433,note_off,83,0,0,,4,,,64,127
32433,note_off,0,0,0,,4,,,52,127
32436,note_on,3,0,0,,4,,,40,127
32436,note_on,0,0,0,,1,,,73,127
32519,note_off,83,0,0,,1,,,73,127
32522,note_on,3,0,0,,12,,,71,127
32605,note_off,83,0,0,,12,,,71,127
32608,note_on,3,0,0,,1,,,73,127
32691,note_off,83,0,0,,1,,,73,127
32691,note_off,0,0,0,,4,,,40,127
32694,note_on,3,0,0,,4,,,40,127
32694,note_on,0,0,0,,12,,,71,127
32777,note_off,83,0,0,,12,,,71,127
32780,note_on,3,0,0,,10,,,69,127
32863,note_off,83,0,0,,10,,,69,127
32866,note_on,3,0,0,,12,,,71,127
32949,note_off,83,0,0,,12,,,71,127
32949,note_off,0,0,0,,4,,,40,127
32952,note_on,3,0,0,,10,,,45,127
32952,note_on,0,0,0,,10,,,69,127
33719,note_off,767,0,0,,10,,,69,127
33974,note_off,255,0,0,,10,,,45,127
33977,note_on,3,0,0,,10,,,57,127
33977,note_on,0,0,0,,10,,,69,127
34230,note_off,253,0,0,,10,,,69,127
34233,note_on,3,0,0,,1,,,73,127
34358,note_off,125,0,0,,1,,,73,127
34361,note_on,3,0,0,,2,,,74,127
34486,note_off,125,0,0,,2,,,74,127
34489,note_on,3,0,0,,4,,,76,127
34742,note_off,253,0,0,,4,,,76,127
34742,note_off,0,0,0,,10,,,57,127
34745,note_on,3,0,0,,12,,,71,127
34745,note_on,0,0,0,,7,,,67,127
34745,note_on,0,0,0,,4,,,76,127
34998,note_off,253,0,0,,4,,,76,127
34998,note_off,0,0,0,,7,,,67,127
34998,note_off,0,0,0,,12,,,71,127
35001,note_on,3,0,0,,6,,,66,127
35001,note_on,0,0,0,,11,,,70,127
35001,note_on,0,0,0,,4,,,76,127
35254,note_off,253,0,0,,4,,,76,127
35254,note_off,0,0,0,,11,,,70,127
35254,note_off,0,0,0,,6,,,66,127
35257,note_on,3,0,0,,12,,,71,127
35257,note_on,0,0,0,,7,,,67,127
35257,note_on,0,0,0,,4,,,76,127
35510,note_off,253,0,0,,4,,,76,127
35510,note_off,0,0,0,,7,,,67,127
35510,note_off,0,0,0,,12,,,71,127
35513,note_on,3,0,0,,6,,,66,127
35513,note_on,0,0,0,,11,,,70,127
35513,note_on,0,0,0,,4,,,76,127
35766,note_off,253,0,0,,4,,,76,127
35766,note_off,0,0,0,,11,,,70,127
35766,note_off,0,0,0,,6,,,66,127
35769,note_on,3,0,0,,12,,,71,127
35769,note_on,0,0,0,,7,,,67,127
35769,note_on,0,0,0,,4,,,76,127
36022,note_off,253,0,0,,4,,,76,127
36022,note_off,0,0,0,,7,,,67,127
36022,note_off,0,0,0,,12,,,71,127
36025,note_on,3,0,0,,11,,,70,127
36025,note_on,0,0,0,,6,,,66,127
36025,note_on,0,0,0,,4,,,76,127
36278,note_off,253,0,0,,4,,,76,127
36281,note_on,3,0,0,,4,,,76,127
36398,note_off,117,0,0,,6,,,66,127
36398,note_off,0,0,0,,11,,,70,127
36406,note_off,8,0,0,,4,,,76,127
36409,note_on,3,0,0,,6,,,78,127
36534,note_off,125,0,0,,6,,,78,127
36537,note_on,3,0,0,,7,,,79,127
36790,note_off,253,0,0,,7,,,79,127
36793,note_on,3,0,0,,2,,,74,127
36793,note_on,0,0,0,,12,,,71,127
36793,note_on,0,0,0,,7,,,79,127
37046,note_off,253,0,0,,7,,,79,127
37046,note_off,0,0,0,,12,,,71,127
37046,note_off,0,0,0,,2,,,74,127
37049,note_on,3,0,0,,11,,,70,127
37049,note_on,0,0,0,,1,,,73,127
37049,note_on,0,0,0,,7,,,79,127
37302,note_off,253,0,0,,7,,,79,127
37302,note_off,0,0,0,,1,,,73,127
37302,note_off,0,0,0,,11,,,70,127
37305,note_on,3,0,0,,12,,,71,127
37305,note_on,0,0,0,,2,,,74,127
37305,note_on,0,0,0,,7,,,79,127
37558,note_off,253,0,0,,7,,,79,127
37558,note_off,0,0,0,,2,,,74,127
37558,note_off,0,0,0,,12,,,71,127
37561,note_on,3,0,0,,11,,,70,127
37561,note_on,0,0,0,,1,,,73,127
37561,note_on,0,0,0,,7,,,79,127
37814,note_off,253,0,0,,7,,,79,127
37814,note_off,0,0,0,,1,,,73,127
37814,note_off,0,0,0,,11,,,70,127
37817,note_on,3,0,0,,12,,,71,127
37817,note_on,0,0,0,,2,,,74,127
37817,note_on,0,0,0,,7,,,79,127
38070,note_off,253,0,0,,7,,,79,127
38070,note_off,0,0,0,,2,,,74,127
38070,note_off,0,0,0,,12,,,71,127
38073,note_on,3,0,0,,11,,,70,127
38073,note_on,0,0,0,,1,,,73,127
38073,note_on,0,0,0,,7,,,79,127
38156,note_off,83,0,0,,7,,,79,127
38159,note_on,3,0,0,,6,,,78,127
38242,note_off,83,0,0,,6,,,78,127
38245,note_on,3,0,0,,4,,,76,127
38328,note_off,83,0,0,,11,,,70,127
38331,note_on,3,0,0,,11,,,70,127
38582,note_off,251,0,0,,1,,,73,127
38585,note_off,3,0,0,,11,,,70,127
38585,note_off,0,0,0,,4,,,76,127
38588,note_on,3,0,0,,11,,,70,127
38588,note_on,0,0,0,,6,,,78,127
38588,note_on,0,0,0,,4,,,76,127
38671,note_off,83,0,0,,4,,,76,127
38671,note_off,0,0,0,,6,,,78,127
38674,note_on,3,0,0,,2,,,74,127
38757,note_off,83,0,0,,2,,,74,127
38760,note_on,3,0,0,,1,,,73,127
38843,note_off,83,0,0,,11,,,70,127
38846,note_on,3,0,0,,11,,,70,127
39099,note_off,253,0,0,,11,,,70,127
39099,note_off,0,0,0,,1,,,73,127
39102,note_on,3,0,0,,12,,,71,127
39102,note_on,0,0,0,,2,,,74,127
39355,note_off,253,0,0,,2,,,74,127
39358,note_on,3,0,0,,12,,,83,127
39609,note_off,251,0,0,,12,,,71,127
39612,note_off,3,0,0,,12,,,83,127
39615,note_on,3,0,0,,12,,,83,127
39615,note_on,0,0,0,,10,,,81,127
39868,note_off,253,0,0,,10,,,81,127
39868,note_off,0,0,0,,12,,,83,127
39871,note_on,3,0,0,,4,,,76,127
39871,note_on,0,0,0,,12,,,83,127
39871,note_on,0,0,0,,7,,,79,127
40124,note_off,253,0,0,,7,,,79,127
40124,note_off,0,0,0,,12,,,83,127
40124,note_off,0,0,0,,4,,,76,127
40127,note_on,3,0,0,,3,,,75,127
40127,note_on,0,0,0,,12,,,83,127
40127,note_on,0,0,0,,6,,,78,127
40380,note_off,253,0,0,,6,,,78,127
40380,note_off,0,0,0,,12,,,83,127
40380,note_off,0,0,0,,3,,,75,127
40383,note_on,3,0,0,,0,,,72,127
40383,note_on,0,0,0,,12,,,83,127
40383,note_on,0,0,0,,4,,,76,127
40636,note_off,253,0,0,,4,,,76,127
40636,note_off,0,0,0,,12,,,83,127
40636,note_off,0,0,0,,0,,,72,127
40639,note_on,3,0,0,,12,,,71,127
40639,note_on,0,0,0,,3,,,75,127
40639,note_on,0,0,0,,12,,,83,127
40892,note_off,253,0,0,,12,,,83,127
40892,note_off,0,0,0,,3,,,75,127
40892,note_off,0,0,0,,12,,,71,127
40895,note_on,3,0,0,,10,,,69,127
40895,note_on,0,0,0,,12,,,83,127
40895,note_on,0,0,0,,0,,,72,127
41148,note_off,253,0,0,,0,,,72,127
41148,note_off,0,0,0,,12,,,83,127
41148,note_off,0,0,0,,10,,,69,127
41151,note_on,3,0,0,,7,,,67,127
41151,note_on,0,0,0,,12,,,83,127
41151,note_on,0,0,0,,12,,,71,127
41404,note_off,253,0,0,,12,,,71,127
41404,note_off,0,0,0,,12,,,83,127
41404,note_off,0,0,0,,7,,,67,127
41407,note_on,3,0,0,,10,,,81,127
41660,note_off,253,0,0,,10,,,81,127
41663,note_on,3,0,0,,10,,,81,127
41663,note_on,0,0,0,,7,,,79,127
41916,note_off,253,0,0,,7,,,79,127
41916,note_off,0,0,0,,10,,,81,127
41919,note_on,3,0,0,,2,,,74,127
41919,note_on,0,0,0,,10,,,81,127
41919,note_on,0,0,0,,6,,,78,127
42172,note_off,253,0,0,,6,,,78,127
42172,note_off,0,0,0,,10,,,81,127
42172,note_off,0,0,0,,2,,,74,127
42175,note_on,3,0,0,,1,,,73,127
42175,note_on,0,0,0,,10,,,81,127
42175,note_on,0,0,0,,4,,,76,127
42428,note_off,253,0,0,,4,,,76,127
42428,note_off,0,0,0,,10,,,81,127
42428,note_off,0,0,0,,1,,,73,127
42431,note_on,3,0,0,,12,,,71,127
42431,note_on,0,0,0,,10,,,81,127
42431,note_on,0,0,0,,2,,,74,127
42684,note_off,253,0,0,,2,,,74,127
42684,note_off,0,0,0,,10,,,81,127
42684,note_off,0,0,0,,12,,,71,127
42687,note_on,3,0,0,,10,,,69,127
42687,note_on,0,0,0,,10,,,81,127
42687,note_on,0,0,0,,1,,,73,127
42940,note_off,253,0,0,,1,,,73,127
42940,note_off,0,0,0,,10,,,81,127
42940,note_off,0,0,0,,10,,,69,127
42943,note_on,3,0,0,,7,,,67,127
42943,note_on,0,0,0,,12,,,71,127
42943,note_on,0,0,0,,10,,,81,127
43196,note_off,253,0,0,,10,,,81,127
43196,note_off,0,0,0,,12,,,71,127
43196,note_off,0,0,0,,7,,,67,127
43199,note_on,3,0,0,,6,,,66,127
43199,note_on,0,0,0,,10,,,81,127
43199,note_on,0,0,0,,10,,,69,127
43452,note_off,253,0,0,,10,,,69,127
43452,note_off,0,0,0,,10,,,81,127
43452,note_off,0,0,0,,6,,,66,127
43455,note_on,3,0,0,,7,,,79,127
43708,note_off,253,0,0,,7,,,79,127
43711,note_on,3,0,0,,7,,,79,127
43711,note_on,0,0,0,,6,,,78,127
43964,note_off,253,0,0,,6,,,78,127
43964,note_off,0,0,0,,7,,,79,127
43967,note_on,3,0,0,,1,,,73,127
43967,note_on,0,0,0,,7,,,79,127
43967,note_on,0,0,0,,4,,,76,127
44220,note_off,253,0,0,,4,,,76,127
44220,note_off,0,0,0,,7,,,79,127
44220,note_off,0,0,0,,1,,,73,127
44223,note_on,3,0,0,,12,,,71,127
44223,note_on,0,0,0,,7,,,79,127
44223,note_on,0,0,0,,2,,,74,127
44476,note_off,253,0,0,,2,,,74,127
44476,note_off,0,0,0,,7,,,79,127
44476,note_off,0,0,0,,12,,,71,127
44479,note_on,3,0,0,,10,,,69,127
44479,note_on,0,0,0,,1,,,73,127
44479,note_on,0,0,0,,7,,,79,127
44732,note_off,253,0,0,,7,,,79,127
44732,note_off,0,0,0,,1,,,73,127
44732,note_off,0,0,0,,10,,,69,127
44735,note_on,3,0,0,,7,,,67,127
44735,note_on,0,0,0,,7,,,79,127
44735,note_on,0,0,0,,12,,,71,127
44988,note_off,253,0,0,,12,,,71,127
44988,note_off,0,0,0,,7,,,79,127
44988,note_off,0,0,0,,7,,,67,127
44991,note_on,3,0,0,,6,,,66,127
44991,note_on,0,0,0,,7,,,79,127
44991,note_on,0,0,0,,10,,,69,127
45244,note_off,253,0,0,,10,,,69,127
45244,note_off,0,0,0,,7,,,79,127
45244,note_off,0,0,0,,6,,,66,127
45247,note_on,3,0,0,,4,,,64,127
45247,note_on,0,0,0,,7,,,67,127
45247,note_on,0,0,0,,7,,,79,127
45330,note_off,83,0,0,,7,,,79,127
45333,note_on,3,0,0,,6,,,78,127
45416,note_off,83,0,0,,6,,,78,127
45419,note_on,3,0,0,,4,,,76,127
45502,note_off,83,0,0,,7,,,67,127
45502,note_off,0,0,0,,4,,,64,127
45505,note_on,3,0,0,,7,,,67,127
45505,note_on,0,0,0,,4,,,64,127
45758,note_off,253,0,0,,4,,,64,127
45758,note_off,0,0,0,,7,,,67,127
45758,note_off,0,0,0,,4,,,76,127
45761,note_on,3,0,0,,7,,,67,127
45761,note_on,0,0,0,,4,,,64,127
45761,note_on,0,0,0,,4,,,76,127
45844,note_off,83,0,0,,4,,,76,127
45847,note_on,3,0,0,,2,,,74,127
45930,note_off,83,0,0,,2,,,74,127
45933,note_on,3,0,0,,1,,,73,127
46016,note_off,83,0,0,,4,,,64,127
46016,note_off,0,0,0,,7,,,67,127
46019,note_on,3,0,0,,4,,,64,127
46019,note_on,0,0,0,,7,,,67,127
46272,note_off,253,0,0,,7,,,67,127
46272,note_off,0,0,0,,4,,,64,127
46272,note_off,0,0,0,,1,,,73,127
46275,note_on,3,0,0,,4,,,64,127
46275,note_on,0,0,0,,10,,,57,127
46275,note_on,0,0,0,,7,,,67,127
46275,note_on,0,0,0,,1,,,73,127
46358,note_off,83,0,0,,1,,,73,127
46361,note_on,3,0,0,,12,,,71,127
46444,note_off,83,0,0,,12,,,71,127
46447,note_on,3,0,0,,10,,,69,127
46530,note_off,83,0,0,,7,,,67,127
46530,note_off,0,0,0,,10,,,57,127
46530,note_off,0,0,0,,4,,,64,127
46533,note_on,3,0,0,,10,,,57,127
46533,note_on,0,0,0,,7,,,67,127
46533,note_on,0,0,0,,4,,,64,127
46786,note_off,253,0,0,,4,,,64,127
46786,note_off,0,0,0,,7,,,67,127
46786,note_off,0,0,0,,10,,,57,127
46786,note_off,0,0,0,,10,,,69,127
46789,note_on,3,0,0,,4,,,64,127
46789,note_on,0,0,0,,10,,,57,127
46789,note_on,0,0,0,,10,,,69,127
46789,note_on,0,0,0,,7,,,67,127
46872,note_off,83,0,0,,7,,,67,127
46875,note_on,3,0,0,,6,,,66,127
46950,note_off,75,0,0,,4,,,64,127
46958,note_off,8,0,0,,6,,,66,127
46961,note_on,3,0,0,,4,,,64,127
47044,note_off,83,0,0,,10,,,57,127
47047,note_on,3,0,0,,10,,,57,127
47298,note_off,251,0,0,,10,,,69,127
47301,note_off,3,0,0,,10,,,57,127
47301,note_off,0,0,0,,4,,,64,127
47304,note_on,3,0,0,,10,,,57,127
47304,note_on,0,0,0,,2,,,62,127
47304,note_on,0,0,0,,6,,,66,127
47304,note_on,0,0,0,,10,,,69,127
47557,note_off,253,0,0,,6,,,66,127
47557,note_off,0,0,0,,2,,,62,127
47560,note_on,3,0,0,,4,,,64,127
47560,note_on,0,0,0,,7,,,67,127
47811,note_off,251,0,0,,10,,,57,127
47814,note_off,3,0,0,,7,,,67,127
47814,note_off,0,0,0,,4,,,64,127
47817,note_on,3,0,0,,10,,,57,127
47817,note_on,0,0,0,,2,,,62,127
47817,note_on,0,0,0,,6,,,66,127
47900,note_off,83,0,0,,6,,,66,127
47900,note_off,0,0,0,,2,,,62,127
47903,note_on,3,0,0,,4,,,64,127
47903,note_on,0,0,0,,7,,,67,127
47986,note_off,83,0,0,,7,,,67,127
47986,note_off,0,0,0,,4,,,64,127
47989,note_on,3,0,0,,2,,,62,127
47989,note_on,0,0,0,,6,,,66,127
48072,note_off,83,0,0,,6,,,66,127
48072,note_off,0,0,0,,2,,,62,127
48075,note_on,3,0,0,,1,,,61,127
48075,note_on,0,0,0,,4,,,64,127
48326,note_off,251,0,0,,10,,,57,127
48329,note_off,3,0,0,,4,,,64,127
48329,note_off,0,0,0,,1,,,61,127
48330,note_off,1,0,0,,10,,,69,127
48331,note_on,1,0,0,,2,,,62,127
48331,note_on,0,0,0,,10,,,57,127
48331,note_on,0,0,0,,6,,,66,127
48584,note_off,253,0,0,,6,,,66,127
48584,note_off,0,0,0,,10,,,57,127
48587,note_on,3,0,0,,8,,,56,127
48587,note_on,0,0,0,,2,,,74,127
48838,note_off,251,0,0,,2,,,62,127
48841,note_off,3,0,0,,2,,,74,127
48841,note_off,0,0,0,,8,,,56,127
48844,note_on,3,0,0,,2,,,62,127
48844,note_on,0,0,0,,10,,,57,127
48844,note_on,0,0,0,,4,,,64,127
49097,note_off,253,0,0,,4,,,64,127
49097,note_off,0,0,0,,10,,,57,127
49100,note_on,3,0,0,,8,,,56,127
49100,note_on,0,0,0,,2,,,74,127
49351,note_off,251,0,0,,2,,,62,127
49354,note_off,3,0,0,,2,,,74,127
49354,note_off,0,0,0,,8,,,56,127
49357,note_on,3,0,0,,4,,,64,127
49357,note_on,0,0,0,,10,,,57,127
49357,note_on,0,0,0,,1,,,73,127
49357,note_on,0,0,0,,2,,,74,127
49440,note_off,83,0,0,,2,,,74,127
49440,note_off,0,0,0,,1,,,73,127
49443,note_on,3,0,0,,12,,,71,127
49526,note_off,83,0,0,,12,,,71,127
49529,note_on,3,0,0,,10,,,69,127
49612,note_off,83,0,0,,10,,,69,127
49612,note_off,0,0,0,,4,,,64,127
49615,note_on,3,0,0,,4,,,64,127
49615,note_on,0,0,0,,7,,,67,127
49866,note_off,251,0,0,,10,,,57,127
49869,note_off,3,0,0,,7,,,67,127
49869,note_off,0,0,0,,4,,,64,127
49872,note_on,3,0,0,,10,,,57,127
49872,note_on,0,0,0,,2,,,62,127
49872,note_on,0,0,0,,10,,,69,127
49872,note_on,0,0,0,,6,,,66,127
49955,note_off,83,0,0,,6,,,66,127
49955,note_off,0,0,0,,2,,,62,127
49958,note_on,3,0,0,,4,,,64,127
49958,note_on,0,0,0,,7,,,67,127
50041,note_off,83,0,0,,7,,,67,127
50041,note_off,0,0,0,,4,,,64,127
50044,note_on,3,0,0,,2,,,62,127
50044,note_on,0,0,0,,6,,,66,127
50127,note_off,83,0,0,,6,,,66,127
50127,note_off,0,0,0,,2,,,62,127
50130,note_on,3,0,0,,1,,,61,127
50130,note_on,0,0,0,,4,,,64,127
50381,note_off,251,0,0,,10,,,69,127
50381,note_off,0,0,0,,10,,,57,127
50384,note_off,3,0,0,,4,,,64,127
50384,note_off,0,0,0,,1,,,61,127
50387,note_on,3,0,0,,2,,,62,127
50387,note_on,0,0,0,,10,,,57,127
50387,note_on,0,0,0,,6,,,66,127
50640,note_off,253,0,0,,6,,,66,127
50640,note_off,0,0,0,,10,,,57,127
50643,note_on,3,0,0,,8,,,56,127
50643,note_on,0,0,0,,2,,,74,127
50894,note_off,251,0,0,,2,,,62,127
50897,note_off,3,0,0,,2,,,74,127
50897,note_off,0,0,0,,8,,,56,127
50900,note_on,3,0,0,,2,,,62,127
50900,note_on,0,0,0,,10,,,57,127
50900,note_on,0,0,0,,4,,,64,127
51153,note_off,253,0,0,,4,,,64,127
51153,note_off,0,0,0,,10,,,57,127
51156,note_on,3,0,0,,8,,,56,127
51156,note_on,0,0,0,,2,,,74,127
51407,note_off,251,0,0,,2,,,62,127
51410,note_off,3,0,0,,2,,,74,127
51410,note_off,0,0,0,,8,,,56,127
51413,note_on,3,0,0,,10,,,57,127
51413,note_on,0,0,0,,2,,,74,127
51413,note_on,0,0,0,,1,,,73,127
51496,note_off,83,0,0,,1,,,73,127
51496,note_off,0,0,0,,2,,,74,127
51499,note_on,3,0,0,,12,,,71,127
51582,note_off,83,0,0,,12,,,71,127
51585,note_on,3,0,0,,10,,,69,127
51668,note_off,83,0,0,,10,,,69,127
51668,note_off,0,0,0,,10,,,57,127
51671,note_on,3,0,0,,7,,,55,127
51671,note_on,0,0,0,,1,,,73,127
51671,note_on,0,0,0,,4,,,76,127
51924,note_off,253,0,0,,4,,,76,127
51924,note_off,0,0,0,,1,,,73,127
51924,note_off,0,0,0,,7,,,55,127
51927,note_on,3,0,0,,6,,,54,127
51927,note_on,0,0,0,,6,,,78,127
51927,note_on,0,0,0,,2,,,74,127
52180,note_off,253,0,0,,2,,,74,127
52180,note_off,0,0,0,,6,,,78,127
52180,note_off,0,0,0,,6,,,54,127
52183,note_on,3,0,0,,4,,,52,127
52183,note_on,0,0,0,,7,,,79,127
52183,note_on,0,0,0,,4,,,76,127
52436,note_off,253,0,0,,4,,,76,127
52436,note_off,0,0,0,,7,,,79,127
52436,note_off,0,0,0,,4,,,52,127
52439,note_on,3,0,0,,2,,,50,127
52439,note_on,0,0,0,,10,,,81,127
52439,note_on,0,0,0,,6,,,78,127
52692,note_off,253,0,0,,6,,,78,127
52692,note_off,0,0,0,,10,,,81,127
52692,note_off,0,0,0,,2,,,50,127
52695,note_on,3,0,0,,2,,,62,127
52695,note_on,0,0,0,,10,,,69,127
52695,note_on,0,0,0,,0,,,72,127
52948,note_off,253,0,0,,0,,,72,127
52948,note_off,0,0,0,,10,,,69,127
52948,note_off,0,0,0,,2,,,62,127
52951,note_on,3,0,0,,2,,,62,127
52951,note_on,0,0,0,,7,,,67,127
52951,note_on,0,0,0,,12,,,71,127
53034,note_off,83,0,0,,12,,,71,127
53034,note_off,0,0,0,,7,,,67,127
53037,note_on,3,0,0,,10,,,69,127
53037,note_on,0,0,0,,0,,,72,127
53120,note_off,83,0,0,,0,,,72,127
53120,note_off,0,0,0,,10,,,69,127
53123,note_on,3,0,0,,7,,,67,127
53123,note_on,0,0,0,,12,,,71,127
53206,note_off,83,0,0,,12,,,71,127
53206,note_off,0,0,0,,7,,,67,127
53209,note_on,3,0,0,,6,,,66,127
53209,note_on,0,0,0,,10,,,69,127
53460,note_off,251,0,0,,2,,,62,127
53463,note_off,3,0,0,,10,,,69,127
53463,note_off,0,0,0,,6,,,66,127
53466,note_on,3,0,0,,7,,,67,127
53466,note_on,0,0,0,,2,,,62,127
53466,note_on,0,0,0,,12,,,71,127
53719,note_off,253,0,0,,12,,,71,127
53719,note_off,0,0,0,,2,,,62,127
53722,note_on,3,0,0,,1,,,61,127
53722,note_on,0,0,0,,7,,,79,127
53973,note_off,251,0,0,,7,,,67,127
53976,note_off,3,0,0,,7,,,79,127
53976,note_off,0,0,0,,1,,,61,127
53979,note_on,3,0,0,,2,,,62,127
53979,note_on,0,0,0,,7,,,67,127
53979,note_on,0,0,0,,10,,,69,127
54232,note_off,253,0,0,,10,,,69,127
54232,note_off,0,0,0,,2,,,62,127
54235,note_on,3,0,0,,1,,,61,127
54235,note_on,0,0,0,,7,,,79,127
54486,note_off,251,0,0,,7,,,67,127
54489,note_off,3,0,0,,7,,,79,127
54489,note_off,0,0,0,,1,,,61,127
54492,note_on,3,0,0,,2,,,62,127
54492,note_on,0,0,0,,6,,,78,127
54492,note_on,0,0,0,,7,,,79,127
54575,note_off,83,0,0,,7,,,79,127
54575,note_off,0,0,0,,6,,,78,127
54578,note_on,3,0,0,,4,,,76,127
54661,note_off,83,0,0,,4,,,76,127
54664,note_on,3,0,0,,2,,,74,127
54747,note_off,83,0,0,,2,,,74,127
54750,note_on,3,0,0,,10,,,69,127
54750,note_on,0,0,0,,0,,,72,127
55003,note_off,253,0,0,,0,,,72,127
55003,note_off,0,0,0,,10,,,69,127
55006,note_on,3,0,0,,7,,,67,127
55006,note_on,0,0,0,,2,,,74,127
55006,note_on,0,0,0,,12,,,71,127
55089,note_off,83,0,0,,12,,,71,127
55089,note_off,0,0,0,,7,,,67,127
55092,note_on,3,0,0,,10,,,69,127
55092,note_on,0,0,0,,0,,,72,127
55175,note_off,83,0,0,,0,,,72,127
55175,note_off,0,0,0,,10,,,69,127
55178,note_on,3,0,0,,7,,,67,127
55178,note_on,0,0,0,,12,,,71,127
55261,note_off,83,0,0,,12,,,71,127
55261,note_off,0,0,0,,7,,,67,127
55264,note_on,3,0,0,,6,,,66,127
55264,note_on,0,0,0,,10,,,69,127
55515,note_off,251,0,0,,2,,,74,127
55518,note_off,3,0,0,,10,,,69,127
55518,note_off,0,0,0,,6,,,66,127
55519,note_off,1,0,0,,2,,,62,127
55520,note_on,1,0,0,,2,,,62,127
55520,note_on,0,0,0,,7,,,67,127
55520,note_on,0,0,0,,12,,,71,127
55773,note_off,253,0,0,,12,,,71,127
55773,note_off,0,0,0,,2,,,62,127
55776,note_on,3,0,0,,1,,,61,127
55776,note_on,0,0,0,,7,,,79,127
56027,note_off,251,0,0,,7,,,67,127
56030,note_off,3,0,0,,7,,,79,127
56030,note_off,0,0,0,,1,,,61,127
56033,note_on,3,0,0,,7,,,67,127
56033,note_on,0,0,0,,2,,,62,127
56033,note_on,0,0,0,,10,,,69,127
56286,note_off,253,0,0,,10,,,69,127
56286,note_off,0,0,0,,2,,,62,127
56289,note_on,3,0,0,,1,,,61,127
56289,note_on,0,0,0,,7,,,79,127
56540,note_off,251,0,0,,7,,,67,127
56543,note_off,3,0,0,,7,,,79,127
56543,note_off,0,0,0,,1,,,61,127
56546,note_on,3,0,0,,2,,,62,127
56546,note_on,0,0,0,,7,,,79,127
56546,note_on,0,0,0,,6,,,78,127
56629,note_off,83,0,0,,6,,,78,127
56629,note_off,0,0,0,,7,,,79,127
56632,note_on,3,0,0,,4,,,76,127
56715,note_off,83,0,0,,4,,,76,127
56718,note_on,3,0,0,,2,,,74,127
56801,note_off,83,0,0,,2,,,74,127
56801,note_off,0,0,0,,2,,,62,127
56804,note_on,3,0,0,,0,,,60,127
56804,note_on,0,0,0,,10,,,81,127
56804,note_on,0,0,0,,6,,,78,127
57057,note_off,253,0,0,,6,,,78,127
57057,note_off,0,0,0,,10,,,81,127
57057,note_off,0,0,0,,0,,,60,127
57060,note_on,3,0,0,,12,,,59,127
57060,note_on,0,0,0,,12,,,83,127
57060,note_on,0,0,0,,7,,,79,127
57313,note_off,253,0,0,,7,,,79,127
57313,note_off,0,0,0,,12,,,83,127
57313,note_off,0,0,0,,12,,,59,127
57316,note_on,3,0,0,,7,,,55,127
57316,note_on,0,0,0,,4,,,76,127
57316,note_on,0,0,0,,1,,,85,127
57569,note_off,253,0,0,,1,,,85,127
57569,note_off,0,0,0,,4,,,76,127
57569,note_off,0,0,0,,7,,,55,127
57572,note_on,3,0,0,,6,,,54,127
57572,note_on,0,0,0,,2,,,86,127
57655,note_off,83,0,0,,2,,,86,127
57658,note_on,3,0,0,,10,,,81,127
57741,note_off,83,0,0,,10,,,81,127
57744,note_on,3,0,0,,6,,,78,127
57827,note_off,83,0,0,,6,,,78,127
57827,note_off,0,0,0,,6,,,54,127
57830,note_on,3,0,0,,7,,,55,127
57830,note_on,0,0,0,,2,,,74,127
58083,note_off,253,0,0,,7,,,55,127
58086,note_on,3,0,0,,10,,,57,127
58339,note_off,253,0,0,,2,,,74,127
58342,note_on,3,0,0,,10,,,45,127
58342,note_on,0,0,0,,1,,,73,127
58593,note_off,251,0,0,,10,,,57,127
58596,note_off,3,0,0,,1,,,73,127
58596,note_off,0,0,0,,10,,,45,127
58599,note_on,3,0,0,,2,,,50,127
58599,note_on,0,0,0,,2,,,74,127
58852,note_off,253,0,0,,2,,,74,127
58852,note_off,0,0,0,,2,,,50,127
58855,note_on,3,0,0,,1,,,61,127
58855,note_on,0,0,0,,4,,,64,127
58855,note_on,0,0,0,,10,,,81,127
58938,note_off,83,0,0,,10,,,81,127
58941,note_on,3,0,0,,7,,,79,127
59024,note_off,83,0,0,,7,,,79,127
59027,note_on,3,0,0,,4,,,76,127
59110,note_off,83,0,0,,4,,,76,127
59110,note_off,0,0,0,,4,,,64,127
59110,note_off,0,0,0,,1,,,61,127
59113,note_on,3,0,0,,2,,,62,127
59113,note_on,0,0,0,,6,,,78,127
59366,note_off,253,0,0,,6,,,78,127
59366,note_off,0,0,0,,2,,,62,127
59369,note_on,3,0,0,,1,,,61,127
59369,note_on,0,0,0,,4,,,64,127
59369,note_on,0,0,0,,10,,,81,127
59369,note_on,0,0,0,,7,,,79,127
59622,note_off,253,0,0,,7,,,79,127
59622,note_off,0,0,0,,10,,,81,127
59622,note_off,0,0,0,,4,,,64,127
59622,note_off,0,0,0,,1,,,61,127
59625,note_on,3,0,0,,2,,,62,127
59625,note_on,0,0,0,,6,,,78,127
59878,note_off,253,0,0,,6,,,78,127
59878,note_off,0,0,0,,2,,,62,127
59881,note_on,3,0,0,,1,,,61,127
59881,note_on,0,0,0,,4,,,64,127
59881,note_on,0,0,0,,10,,,69,127
59964,note_off,83,0,0,,10,,,69,127
59967,note_on,3,0,0,,7,,,67,127
60042,note_off,75,0,0,,4,,,64,127
60050,note_off,8,0,0,,7,,,67,127
60053,note_on,3,0,0,,4,,,64,127
60136,note_off,83,0,0,,4,,,64,127
60136,note_off,0,0,0,,1,,,61,127
60139,note_on,3,0,0,,2,,,62,127
60139,note_on,0,0,0,,6,,,66,127
60392,note_off,253,0,0,,6,,,66,127
60392,note_off,0,0,0,,2,,,62,127
60395,note_on,3,0,0,,1,,,61,127
60395,note_on,0,0,0,,4,,,64,127
60395,note_on,0,0,0,,10,,,69,127
60395,note_on,0,0,0,,7,,,67,127
60648,note_off,253,0,0,,7,,,67,127
60648,note_off,0,0,0,,10,,,69,127
60648,note_off,0,0,0,,4,,,64,127
60648,note_off,0,0,0,,1,,,61,127
60651,note_on,3,0,0,,2,,,62,127
60651,note_on,0,0,0,,6,,,66,127
60904,note_off,253,0,0,,6,,,66,127
60904,note_off,0,0,0,,2,,,62,127
60907,note_on,3,0,0,,4,,,64,127
60907,note_on,0,0,0,,1,,,61,127
60907,note_on,0,0,0,,10,,,81,127
60990,note_off,83,0,0,,10,,,81,127
60993,note_on,3,0,0,,7,,,79,127
61076,note_off,83,0,0,,7,,,79,127
61079,note_on,3,0,0,,4,,,76,127
61162,note_off,83,0,0,,4,,,76,127
61162,note_off,0,0,0,,1,,,61,127
61162,note_off,0,0,0,,4,,,64,127
61165,note_on,3,0,0,,2,,,62,127
61165,note_on,0,0,0,,6,,,78,127
61418,note_off,253,0,0,,6,,,78,127
61418,note_off,0,0,0,,2,,,62,127
61421,note_on,3,0,0,,4,,,64,127
61421,note_on,0,0,0,,1,,,61,127
61421,note_on,0,0,0,,10,,,81,127
61421,note_on,0,0,0,,7,,,79,127
61674,note_off,253,0,0,,7,,,79,127
61674,note_off,0,0,0,,10,,,81,127
61674,note_off,0,0,0,,1,,,61,127
61674,note_off,0,0,0,,4,,,64,127
61677,note_on,3,0,0,,2,,,62,127
61677,note_on,0,0,0,,6,,,78,127
61930,note_off,253,0,0,,6,,,78,127
61930,note_off,0,0,0,,2,,,62,127
61933,note_on,3,0,0,,4,,,64,127
61933,note_on,0,0,0,,1,,,61,127
61933,note_on,0,0,0,,10,,,69,127
62016,note_off,83,0,0,,10,,,69,127
62019,note_on,3,0,0,,7,,,67,127
62094,note_off,75,0,0,,4,,,64,127
62102,note_off,8,0,0,,7,,,67,127
62105,note_on,3,0,0,,4,,,64,127
62188,note_off,83,0,0,,4,,,64,127
62188,note_off,0,0,0,,1,,,61,127
62191,note_on,3,0,0,,2,,,62,127
62191,note_on,0,0,0,,6,,,66,127
62444,note_off,253,0,0,,6,,,66,127
62444,note_off,0,0,0,,2,,,62,127
62447,note_on,3,0,0,,1,,,61,127
62447,note_on,0,0,0,,4,,,64,127
62447,note_on,0,0,0,,10,,,69,127
62447,note_on,0,0,0,,7,,,67,127
62700,note_off,253,0,0,,7,,,67,127
62700,note_off,0,0,0,,10,,,69,127
62700,note_off,0,0,0,,4,,,64,127
62700,note_off,0,0,0,,1,,,61,127
62703,note_on,3,0,0,,2,,,62,127
62703,note_on,0,0,0,,6,,,66,127
62956,note_off,253,0,0,,6,,,66,127
62956,note_off,0,0,0,,2,,,62,127
62959,note_on,3,0,0,,2,,,62,127
62959,note_on,0,0,0,,6,,,54,127
62959,note_on,0,0,0,,2,,,74,127
63042,note_off,83,0,0,,2,,,74,127
63045,note_on,3,0,0,,0,,,72,127
63128,note_off,83,0,0,,0,,,72,127
63131,note_on,3,0,0,,10,,,69,127
63214,note_off,83,0,0,,10,,,69,127
63214,note_off,0,0,0,,6,,,54,127
63214,note_off,0,0,0,,2,,,62,127
63217,note_on,3,0,0,,7,,,55,127
63217,note_on,0,0,0,,2,,,62,127
63217,note_on,0,0,0,,12,,,71,127
63470,note_off,253,0,0,,12,,,71,127
63470,note_off,0,0,0,,2,,,62,127
63470,note_off,0,0,0,,7,,,55,127
63473,note_on,3,0,0,,6,,,54,127
63473,note_on,0,0,0,,2,,,62,127
63473,note_on,0,0,0,,0,,,72,127
63473,note_on,0,0,0,,2,,,74,127
63726,note_off,253,0,0,,2,,,74,127
63726,note_off,0,0,0,,0,,,72,127
63726,note_off,0,0,0,,2,,,62,127
63726,note_off,0,0,0,,6,,,54,127
63729,note_on,3,0,0,,2,,,62,127
63729,note_on,0,0,0,,7,,,55,127
63729,note_on,0,0,0,,12,,,71,127
63982,note_off,253,0,0,,12,,,71,127
63985,note_on,3,0,0,,12,,,83,127
64238,note_off,253,0,0,,12,,,83,127
64241,note_on,3,0,0,,10,,,81,127
64366,note_off,125,0,0,,10,,,81,127
64369,note_on,3,0,0,,7,,,79,127
64494,note_off,125,0,0,,7,,,79,127
64494,note_off,0,0,0,,7,,,55,127
64494,note_off,0,0,0,,2,,,62,127
64497,note_on,3,0,0,,7,,,55,127
64497,note_on,0,0,0,,6,,,78,127
64622,note_off,125,0,0,,6,,,78,127
64625,note_on,3,0,0,,4,,,76,127
64750,note_off,125,0,0,,4,,,76,127
64750,note_off,0,0,0,,7,,,55,127
64753,note_on,3,0,0,,10,,,57,127
64753,note_on,0,0,0,,2,,,74,127
65006,note_off,253,0,0,,10,,,57,127
65009,note_on,3,0,0,,10,,,57,127
65177,note_off,168,0,0,,2,,,74,127
65180,note_on,3,0,0,,4,,,76,127
65263,note_off,83,0,0,,4,,,76,127
65263,note_off,0,0,0,,10,,,57,127
65266,note_on,3,0,0,,10,,,45,127
65266,note_on,0,0,0,,6,,,78,127
65349,note_off,83,0,0,,6,,,78,127
65352,note_on,3,0,0,,4,,,76,127
65435,note_off,83,0,0,,4,,,76,127
65438,note_on,3,0,0,,6,,,78,127
65521,note_off,83,0,0,,6,,,78,127
65521,note_off,0,0,0,,10,,,45,127
65524,note_on,3,0,0,,10,,,45,127
65524,note_on,0,0,0,,4,,,76,127
65607,note_off,83,0,0,,4,,,76,127
65610,note_on,3,0,0,,2,,,74,127
65693,note_off,83,0,0,,2,,,74,127
65696,note_on,3,0,0,,4,,,76,127
65779,note_off,83,0,0,,4,,,76,127
65779,note_off,0,0,0,,10,,,45,127
65782,note_on,3,0,0,,2,,,50,127
65782,note_on,0,0,0,,2,,,74,127
66035,note_off,253,0,0,,2,,,74,127
66035,note_off,0,0,0,,2,,,50,127
66038,note_on,3,0,0,,6,,,66,127
66038,note_on,0,0,0,,2,,,86,127
66291,note_off,253,0,0,,2,,,86,127
66291,note_off,0,0,0,,6,,,66,127
66294,note_on,3,0,0,,7,,,67,127
66294,note_on,0,0,0,,1,,,85,127
66419,note_off,125,0,0,,1,,,85,127
66422,note_on,3,0,0,,12,,,83,127
66547,note_off,125,0,0,,12,,,83,127
66547,note_off,0,0,0,,7,,,67,127
66550,note_on,3,0,0,,12,,,71,127
66550,note_on,0,0,0,,10,,,81,127
66675,note_off,125,0,0,,10,,,81,127
66678,note_on,3,0,0,,7,,,79,127
66803,note_off,125,0,0,,7,,,79,127
66803,note_off,0,0,0,,12,,,71,127
66806,note_on,3,0,0,,10,,,69,127
66806,note_on,0,0,0,,6,,,78,127
66889,note_off,83,0,0,,6,,,78,127
66892,note_on,3,0,0,,4,,,76,127
66975,note_off,83,0,0,,4,,,76,127
66978,note_on,3,0,0,,2,,,74,127
67061,note_off,83,0,0,,10,,,69,127
67064,note_on,3,0,0,,10,,,69,127
67232,note_off,168,0,0,,2,,,74,127
67235,note_on,3,0,0,,4,,,76,127
67318,note_off,83,0,0,,4,,,76,127
67318,note_off,0,0,0,,10,,,69,127
67321,note_on,3,0,0,,10,,,57,127
67321,note_on,0,0,0,,6,,,78,127
67404,note_off,83,0,0,,6,,,78,127
67407,note_on,3,0,0,,4,,,76,127
67490,note_off,83,0,0,,4,,,76,127
67493,note_on,3,0,0,,6,,,78,127
67576,note_off,83,0,0,,6,,,78,127
67576,note_off,0,0,0,,10,,,57,127
67579,note_on,3,0,0,,10,,,57,127
67579,note_on,0,0,0,,4,,,76,127
67662,note_off,83,0,0,,4,,,76,127
67665,note_on,3,0,0,,2,,,74,127
67748,note_off,83,0,0,,2,,,74,127
67751,note_on,3,0,0,,4,,,76,127
67834,note_off,83,0,0,,4,,,76,127
67834,note_off,0,0,0,,10,,,57,127
67837,note_on,3,0,0,,2,,,62,127
67837,note_on,0,0,0,,6,,,78,127
68090,note_off,253,0,0,,6,,,78,127
68090,note_off,0,0,0,,2,,,62,127
68093,note_on,3,0,0,,6,,,54,127
68093,note_on,0,0,0,,2,,,86,127
68346,note_off,253,0,0,,2,,,86,127
68346,note_off,0,0,0,,6,,,54,127
68349,note_on,3,0,0,,7,,,55,127
68349,note_on,0,0,0,,1,,,85,127
68474,note_off,125,0,0,,1,,,85,127
68477,note_on,3,0,0,,12,,,83,127
68602,note_off,125,0,0,,12,,,83,127
68602,note_off,0,0,0,,7,,,55,127
68605,note_on,3,0,0,,12,,,59,127
68605,note_on,0,0,0,,10,,,81,127
68730,note_off,125,0,0,,10,,,81,127
68733,note_on,3,0,0,,7,,,79,127
68858,note_off,125,0,0,,7,,,79,127
68858,note_off,0,0,0,,12,,,59,127
68861,note_on,3,0,0,,10,,,57,127
68861,note_on,0,0,0,,6,,,78,127
68944,note_off,83,0,0,,6,,,78,127
68947,note_on,3,0,0,,4,,,76,127
69030,note_off,83,0,0,,4,,,76,127
69033,note_on,3,0,0,,2,,,74,127
69116,note_off,83,0,0,,2,,,74,127
69116,note_off,0,0,0,,10,,,57,127
69119,note_on,3,0,0,,10,,,57,127
69119,note_on,0,0,0,,1,,,73,127
69202,note_off,83,0,0,,1,,,73,127
69205,note_on,3,0,0,,12,,,71,127
69288,note_off,83,0,0,,12,,,71,127
69291,note_on,3,0,0,,10,,,69,127
69374,note_off,83,0,0,,10,,,69,127
69377,note_on,3,0,0,,10,,,45,127
69377,note_on,0,0,0,,6,,,78,127
69441,note_on,64,0,0,,4,,,76,127
69460,note_off,19,0,0,,6,,,78,127
69505,note_on,45,0,0,,6,,,78,127
69524,note_off,19,0,0,,4,,,76,127
69569,note_on,45,0,0,,4,,,76,127
69588,note_off,19,0,0,,6,,,78,127
69631,note_off,43,0,0,,10,,,45,127
69634,note_on,3,0,0,,6,,,78,127
69634,note_on,0,0,0,,10,,,45,127
69653,note_off,19,0,0,,4,,,76,127
69698,note_on,45,0,0,,4,,,76,127
69717,note_off,19,0,0,,6,,,78,127
69762,note_on,45,0,0,,2,,,74,127
69781,note_off,19,0,0,,4,,,76,127
69826,note_on,45,0,0,,4,,,76,127
69845,note_off,19,0,0,,2,,,74,127
69888,note_off,43,0,0,,10,,,45,127
69889,note_off,1,0,0,,10,,,57,127
69898,note_off,9,0,0,,4,,,76,127
69903,note_on,5,0,0,,2,,,50,127
69903,note_on,0,0,0,,2,,,38,127
69903,note_on,0,0,0,,2,,,74,127
71770,note_off,1867,0,0,,2,,,74,127
71770,note_off,0,0,0,,2,,,38,127
71770,note_off,0,0,0,,2,,,50,127
73728,end_of_track,1958,1,0,,,,,,
