tick,type,time,meta,track,program,channel,pitch,tempo,note,velocity
0,copyright,0,1,0,,,,,,
0,program_change,0,0,0,6,0,,,,
0,pitchwheel,0,0,0,,0,0,,,
0,program_change,0,0,0,6,1,,,,
0,pitchwheel,0,0,0,,1,-590,,,
0,program_change,0,0,0,6,2,,,,
0,pitchwheel,0,0,0,,2,-272,,,
0,program_change,0,0,0,6,3,,,,
0,pitchwheel,0,0,0,,3,-353,,,
0,program_change,0,0,0,6,4,,,,
0,pitchwheel,0,0,0,,4,-560,,,
0,program_change,0,0,0,6,5,,,,
0,pitchwheel,0,0,0,,5,-80,,,
0,program_change,0,0,0,6,6,,,,
0,pitchwheel,0,0,0,,6,-625,,,
0,program_change,0,0,0,6,7,,,,
0,pitchwheel,0,0,0,,7,-130,,,
0,program_change,0,0,0,6,8,,,,
0,pitchwheel,0,0,0,,8,-512,,,
0,program_change,0,0,0,6,10,,,,
0,pitchwheel,0,0,0,,10,-464,,,
0,program_change,0,0,0,6,11,,,,
0,pitchwheel,0,0,0,,11,-208,,,
0,program_change,0,0,0,6,12,,,,
0,pitchwheel,0,0,0,,12,-553,,,
0,set_tempo,0,1,0,,,,500000,,
96,note_on,96,0,0,,2,,,74,127
288,note_on,192,0,0,,2,,,62,127
476,note_off,188,0,0,,2,,,74,127
479,note_off,3,0,0,,2,,,62,127
480,note_on,1,0,0,,1,,,73,127
671,note_off,191,0,0,,1,,,73,127
672,note_on,1,0,0,,12,,,71,127
735,note_off,63,0,0,,12,,,71,127
736,note_on,1,0,0,,1,,,73,127
799,note_off,63,0,0,,1,,,73,127
800,note_on,1,0,0,,12,,,71,127
863,note_off,63,0,0,,12,,,71,127
864,note_on,1,0,0,,10,,,69,127
1055,note_off,191,0,0,,10,,,69,127
1056,note_on,1,0,0,,7,,,67,127
1211,note_off,155,0,0,,7,,,67,127
1248,note_on,37,0,0,,10,,,81,127
1440,note_on,192,0,0,,10,,,69,127
1628,note_off,188,0,0,,10,,,81,127
1631,note_off,3,0,0,,10,,,69,127
1632,note_on,1,0,0,,7,,,79,127
1823,note_off,191,0,0,,7,,,79,127
1824,note_on,1,0,0,,6,,,78,127
1887,note_off,63,0,0,,6,,,78,127
1888,note_on,1,0,0,,7,,,79,127
1951,note_off,63,0,0,,7,,,79,127
1952,note_on,1,0,0,,6,,,78,127
2015,note_off,63,0,0,,6,,,78,127
2016,note_on,1,0,0,,4,,,76,127
2207,note_off,191,0,0,,4,,,76,127
2208,note_on,1,0,0,,2,,,74,127
2388,note_off,180,0,0,,2,,,74,127
2400,note_on,12,0,0,,10,,,69,127
2400,note_on,0,0,0,,1,,,73,127
2591,note_off,191,0,0,,10,,,69,127
2592,note_on,1,0,0,,10,,,57,127
2783,note_off,191,0,0,,10,,,57,127
2784,note_on,1,0,0,,7,,,67,127
2975,note_off,191,0,0,,7,,,67,127
2975,note_off,0,0,0,,1,,,73,127
2976,note_on,1,0,0,,6,,,66,127
2976,note_on,0,0,0,,2,,,74,127
3039,note_off,63,0,0,,6,,,66,127
3040,note_on,1,0,0,,7,,,67,127
3103,note_off,63,0,0,,7,,,67,127
3104,note_on,1,0,0,,6,,,66,127
3167,note_off,63,0,0,,6,,,66,127
3168,note_on,1,0,0,,4,,,64,127
3316,note_off,148,0,0,,2,,,74,127
3359,note_off,43,0,0,,4,,,64,127
3360,note_on,1,0,0,,2,,,62,127
3360,note_on,0,0,0,,10,,,81,127
3551,note_off,191,0,0,,10,,,81,127
3551,note_off,0,0,0,,2,,,62,127
3552,note_on,1,0,0,,7,,,55,127
3552,note_on,0,0,0,,12,,,83,127
3647,note_off,95,0,0,,12,,,83,127
3648,note_on,1,0,0,,10,,,81,127
3743,note_off,95,0,0,,10,,,81,127
3744,note_on,1,0,0,,7,,,79,127
3839,note_off,95,0,0,,7,,,79,127
3840,note_on,1,0,0,,6,,,78,127
3935,note_off,95,0,0,,6,,,78,127
3936,note_on,1,0,0,,4,,,76,127
4031,note_off,95,0,0,,4,,,76,127
4032,note_on,1,0,0,,2,,,74,127
4127,note_off,95,0,0,,2,,,74,127
4127,note_off,0,0,0,,7,,,55,127
4128,note_on,1,0,0,,10,,,57,127
4128,note_on,0,0,0,,1,,,73,127
4223,note_off,95,0,0,,1,,,73,127
4224,note_on,1,0,0,,12,,,71,127
4319,note_off,95,0,0,,12,,,71,127
4320,note_on,1,0,0,,10,,,69,127
4415,note_off,95,0,0,,10,,,69,127
4416,note_on,1,0,0,,7,,,67,127
4511,note_off,95,0,0,,7,,,67,127
4512,note_on,1,0,0,,6,,,66,127
4607,note_off,95,0,0,,6,,,66,127
4608,note_on,1,0,0,,4,,,64,127
4703,note_off,95,0,0,,4,,,64,127
4703,note_off,0,0,0,,10,,,57,127
4704,note_on,1,0,0,,2,,,62,127
4896,note_on,192,0,0,,2,,,50,127
5084,note_off,188,0,0,,2,,,62,127
5087,note_off,3,0,0,,2,,,50,127
5088,note_on,1,0,0,,2,,,62,127
5279,note_off,191,0,0,,2,,,62,127
5280,note_on,1,0,0,,1,,,61,127
5280,note_on,0,0,0,,10,,,69,127
5343,note_off,63,0,0,,1,,,61,127
5344,note_on,1,0,0,,2,,,62,127
5375,note_off,31,0,0,,10,,,69,127
5376,note_on,1,0,0,,12,,,71,127
5407,note_off,31,0,0,,2,,,62,127
5408,note_on,1,0,0,,1,,,61,127
5471,note_off,63,0,0,,1,,,61,127
5471,note_off,0,0,0,,12,,,71,127
5472,note_on,1,0,0,,12,,,59,127
5472,note_on,0,0,0,,1,,,73,127
5567,note_off,95,0,0,,1,,,73,127
5568,note_on,1,0,0,,2,,,74,127
5663,note_off,95,0,0,,2,,,74,127
5663,note_off,0,0,0,,12,,,59,127
5664,note_on,1,0,0,,10,,,57,127
5664,note_on,0,0,0,,4,,,76,127
5759,note_off,95,0,0,,4,,,76,127
5760,note_on,1,0,0,,6,,,78,127
5855,note_off,95,0,0,,6,,,78,127
5855,note_off,0,0,0,,10,,,57,127
5856,note_on,1,0,0,,6,,,66,127
5856,note_on,0,0,0,,10,,,69,127
6048,note_on,192,0,0,,6,,,54,127
6236,note_off,188,0,0,,10,,,69,127
6236,note_off,0,0,0,,6,,,66,127
6239,note_off,3,0,0,,6,,,54,127
6240,note_on,1,0,0,,6,,,66,127
6431,note_off,191,0,0,,6,,,66,127
6432,note_on,1,0,0,,4,,,64,127
6432,note_on,0,0,0,,1,,,73,127
6495,note_off,63,0,0,,4,,,64,127
6496,note_on,1,0,0,,6,,,66,127
6527,note_off,31,0,0,,1,,,73,127
6528,note_on,1,0,0,,2,,,74,127
6559,note_off,31,0,0,,6,,,66,127
6560,note_on,1,0,0,,4,,,64,127
6623,note_off,63,0,0,,4,,,64,127
6623,note_off,0,0,0,,2,,,74,127
6624,note_on,1,0,0,,2,,,62,127
6624,note_on,0,0,0,,4,,,76,127
6719,note_off,95,0,0,,4,,,76,127
6720,note_on,1,0,0,,6,,,78,127
6815,note_off,95,0,0,,6,,,78,127
6815,note_off,0,0,0,,2,,,62,127
6816,note_on,1,0,0,,1,,,61,127
6816,note_on,0,0,0,,7,,,79,127
6911,note_off,95,0,0,,7,,,79,127
6912,note_on,1,0,0,,10,,,81,127
7007,note_off,95,0,0,,10,,,81,127
7007,note_off,0,0,0,,1,,,61,127
7008,note_on,1,0,0,,10,,,69,127
7008,note_on,0,0,0,,1,,,73,127
7200,note_on,192,0,0,,10,,,57,127
7388,note_off,188,0,0,,1,,,73,127
7388,note_off,0,0,0,,10,,,69,127
7391,note_off,3,0,0,,10,,,57,127
7392,note_on,1,0,0,,10,,,69,127
7583,note_off,191,0,0,,10,,,69,127
7584,note_on,1,0,0,,7,,,67,127
7584,note_on,0,0,0,,4,,,76,127
7647,note_off,63,0,0,,7,,,67,127
7648,note_on,1,0,0,,10,,,69,127
7679,note_off,31,0,0,,4,,,76,127
7680,note_on,1,0,0,,6,,,78,127
7711,note_off,31,0,0,,10,,,69,127
7712,note_on,1,0,0,,7,,,67,127
7775,note_off,63,0,0,,7,,,67,127
7775,note_off,0,0,0,,6,,,78,127
7776,note_on,1,0,0,,6,,,66,127
7776,note_on,0,0,0,,7,,,79,127
7871,note_off,95,0,0,,7,,,79,127
7872,note_on,1,0,0,,10,,,81,127
7967,note_off,95,0,0,,10,,,81,127
7967,note_off,0,0,0,,6,,,66,127
7968,note_on,1,0,0,,4,,,64,127
7968,note_on,0,0,0,,12,,,83,127
8063,note_off,95,0,0,,12,,,83,127
8064,note_on,1,0,0,,1,,,85,127
8159,note_off,95,0,0,,1,,,85,127
8159,note_off,0,0,0,,4,,,64,127
8160,note_on,1,0,0,,2,,,62,127
8160,note_on,0,0,0,,2,,,86,127
8255,note_off,95,0,0,,2,,,86,127
8256,note_on,1,0,0,,10,,,81,127
8351,note_off,95,0,0,,10,,,81,127
8352,note_on,1,0,0,,6,,,78,127
8447,note_off,95,0,0,,6,,,78,127
8448,note_on,1,0,0,,2,,,74,127
8543,note_off,95,0,0,,2,,,74,127
8544,note_on,1,0,0,,6,,,78,127
8639,note_off,95,0,0,,6,,,78,127
8640,note_on,1,0,0,,10,,,81,127
8735,note_off,95,0,0,,10,,,81,127
8735,note_off,0,0,0,,2,,,62,127
8736,note_on,1,0,0,,2,,,50,127
8736,note_on,0,0,0,,2,,,86,127
8831,note_off,95,0,0,,2,,,86,127
8832,note_on,1,0,0,,10,,,81,127
8927,note_off,95,0,0,,10,,,81,127
8928,note_on,1,0,0,,6,,,78,127
9023,note_off,95,0,0,,6,,,78,127
9024,note_on,1,0,0,,2,,,74,127
9119,note_off,95,0,0,,2,,,74,127
9120,note_on,1,0,0,,6,,,78,127
9215,note_off,95,0,0,,6,,,78,127
9216,note_on,1,0,0,,10,,,81,127
9311,note_off,95,0,0,,10,,,81,127
9311,note_off,0,0,0,,2,,,50,127
9312,note_on,1,0,0,,2,,,38,127
9312,note_on,0,0,0,,2,,,86,127
9407,note_off,95,0,0,,2,,,86,127
9408,note_on,1,0,0,,10,,,81,127
9503,note_off,95,0,0,,10,,,81,127
9504,note_on,1,0,0,,6,,,78,127
9599,note_off,95,0,0,,6,,,78,127
9600,note_on,1,0,0,,2,,,74,127
9695,note_off,95,0,0,,2,,,74,127
9696,note_on,1,0,0,,6,,,78,127
9786,note_off,90,0,0,,6,,,78,127
9792,note_on,6,0,0,,10,,,81,127
9872,note_off,80,0,0,,10,,,81,127
9887,note_off,15,0,0,,2,,,38,127
9888,note_on,1,0,0,,2,,,38,127
9888,note_on,0,0,0,,2,,,86,127
10080,note_on,192,0,0,,10,,,81,127
10271,note_off,191,0,0,,10,,,81,127
10272,note_on,1,0,0,,5,,,77,127
10463,note_off,191,0,0,,5,,,77,127
10463,note_off,0,0,0,,2,,,86,127
10463,note_off,0,0,0,,2,,,38,127
10464,note_on,1,0,0,,2,,,74,127
10656,note_on,192,0,0,,12,,,71,127
10844,note_off,188,0,0,,2,,,74,127
10847,note_off,3,0,0,,12,,,71,127
10848,note_on,1,0,0,,8,,,68,127
11039,note_off,191,0,0,,8,,,68,127
11040,note_on,1,0,0,,4,,,52,127
11040,note_on,0,0,0,,2,,,62,127
11040,note_on,0,0,0,,4,,,64,127
11231,note_off,191,0,0,,2,,,62,127
11231,note_off,0,0,0,,4,,,52,127
11232,note_on,1,0,0,,4,,,52,127
11232,note_on,0,0,0,,2,,,62,127
11423,note_off,191,0,0,,2,,,62,127
11423,note_off,0,0,0,,4,,,52,127
11424,note_on,1,0,0,,4,,,52,127
11424,note_on,0,0,0,,2,,,62,127
11615,note_off,191,0,0,,2,,,62,127
11615,note_off,0,0,0,,4,,,52,127
11615,note_off,0,0,0,,4,,,64,127
11616,note_on,1,0,0,,4,,,52,127
11616,note_on,0,0,0,,2,,,62,127
11616,note_on,0,0,0,,5,,,77,127
11616,note_on,0,0,0,,8,,,68,127
11807,note_off,191,0,0,,2,,,62,127
11807,note_off,0,0,0,,4,,,52,127
11808,note_on,1,0,0,,4,,,52,127
11808,note_on,0,0,0,,2,,,62,127
11999,note_off,191,0,0,,2,,,62,127
11999,note_off,0,0,0,,4,,,52,127
12000,note_on,1,0,0,,4,,,52,127
12000,note_on,0,0,0,,2,,,62,127
12191,note_off,191,0,0,,2,,,62,127
12191,note_off,0,0,0,,4,,,52,127
12191,note_off,0,0,0,,8,,,68,127
12191,note_off,0,0,0,,5,,,77,127
12192,note_on,1,0,0,,4,,,52,127
12192,note_on,0,0,0,,0,,,60,127
12192,note_on,0,0,0,,4,,,76,127
12192,note_on,0,0,0,,10,,,69,127
12383,note_off,191,0,0,,0,,,60,127
12383,note_off,0,0,0,,4,,,52,127
12384,note_on,1,0,0,,0,,,60,127
12384,note_on,0,0,0,,4,,,52,127
12575,note_off,191,0,0,,4,,,52,127
12575,note_off,0,0,0,,0,,,60,127
12576,note_on,1,0,0,,4,,,52,127
12576,note_on,0,0,0,,0,,,60,127
12767,note_off,191,0,0,,0,,,60,127
12767,note_off,0,0,0,,4,,,52,127
12767,note_off,0,0,0,,10,,,69,127
12767,note_off,0,0,0,,4,,,76,127
12768,note_on,1,0,0,,0,,,60,127
12768,note_on,0,0,0,,4,,,52,127
12768,note_on,0,0,0,,10,,,69,127
12768,note_on,0,0,0,,3,,,75,127
12959,note_off,191,0,0,,4,,,52,127
12959,note_off,0,0,0,,0,,,60,127
12960,note_on,1,0,0,,4,,,52,127
12960,note_on,0,0,0,,0,,,60,127
13151,note_off,191,0,0,,0,,,60,127
13151,note_off,0,0,0,,4,,,52,127
13152,note_on,1,0,0,,4,,,52,127
13152,note_on,0,0,0,,0,,,60,127
13343,note_off,191,0,0,,0,,,60,127
13343,note_off,0,0,0,,4,,,52,127
13343,note_off,0,0,0,,3,,,75,127
13343,note_off,0,0,0,,10,,,69,127
13344,note_on,1,0,0,,2,,,62,127
13344,note_on,0,0,0,,8,,,56,127
13344,note_on,0,0,0,,4,,,64,127
13344,note_on,0,0,0,,4,,,76,127
13535,note_off,191,0,0,,4,,,64,127
13535,note_off,0,0,0,,8,,,56,127
13535,note_off,0,0,0,,2,,,62,127
13536,note_on,1,0,0,,2,,,62,127
13536,note_on,0,0,0,,8,,,56,127
13536,note_on,0,0,0,,4,,,64,127
13536,note_on,0,0,0,,12,,,83,127
13624,note_off,88,0,0,,4,,,76,127
13727,note_off,103,0,0,,12,,,83,127
13727,note_off,0,0,0,,4,,,64,127
13727,note_off,0,0,0,,8,,,56,127
13727,note_off,0,0,0,,2,,,62,127
13728,note_on,1,0,0,,8,,,56,127
13728,note_on,0,0,0,,2,,,62,127
13728,note_on,0,0,0,,4,,,64,127
13728,note_on,0,0,0,,4,,,76,127
13919,note_off,191,0,0,,4,,,76,127
13919,note_off,0,0,0,,4,,,64,127
13919,note_off,0,0,0,,2,,,62,127
13919,note_off,0,0,0,,8,,,56,127
13920,note_on,1,0,0,,8,,,56,127
13920,note_on,0,0,0,,2,,,62,127
13920,note_on,0,0,0,,4,,,64,127
13920,note_on,0,0,0,,2,,,74,127
14111,note_off,191,0,0,,4,,,64,127
14111,note_off,0,0,0,,2,,,62,127
14111,note_off,0,0,0,,8,,,56,127
14112,note_on,1,0,0,,8,,,56,127
14112,note_on,0,0,0,,4,,,64,127
14112,note_on,0,0,0,,2,,,62,127
14112,note_on,0,0,0,,12,,,83,127
14200,note_off,88,0,0,,2,,,74,127
14303,note_off,103,0,0,,12,,,83,127
14303,note_off,0,0,0,,2,,,62,127
14303,note_off,0,0,0,,4,,,64,127
14303,note_off,0,0,0,,8,,,56,127
14304,note_on,1,0,0,,8,,,56,127
14304,note_on,0,0,0,,4,,,64,127
14304,note_on,0,0,0,,2,,,62,127
14304,note_on,0,0,0,,2,,,74,127
14495,note_off,191,0,0,,2,,,74,127
14495,note_off,0,0,0,,2,,,62,127
14495,note_off,0,0,0,,4,,,64,127
14495,note_off,0,0,0,,8,,,56,127
14496,note_on,1,0,0,,10,,,57,127
14496,note_on,0,0,0,,10,,,45,127
14496,note_on,0,0,0,,1,,,73,127
14591,note_off,95,0,0,,1,,,73,127
14592,note_on,1,0,0,,10,,,81,127
14687,note_off,95,0,0,,10,,,81,127
14688,note_on,1,0,0,,4,,,76,127
14783,note_off,95,0,0,,4,,,76,127
14784,note_on,1,0,0,,1,,,73,127
14879,note_off,95,0,0,,1,,,73,127
14880,note_on,1,0,0,,10,,,69,127
14975,note_off,95,0,0,,10,,,69,127
14976,note_on,1,0,0,,4,,,76,127
15071,note_off,95,0,0,,10,,,45,127
15071,note_off,0,0,0,,10,,,57,127
15072,note_on,1,0,0,,4,,,52,127
15072,note_on,0,0,0,,4,,,40,127
15096,note_off,24,0,0,,4,,,76,127
15168,note_on,72,0,0,,12,,,83,127
15263,note_off,95,0,0,,12,,,83,127
15264,note_on,1,0,0,,8,,,80,127
15359,note_off,95,0,0,,8,,,80,127
15360,note_on,1,0,0,,4,,,76,127
15455,note_off,95,0,0,,4,,,76,127
15456,note_on,1,0,0,,12,,,71,127
15551,note_off,95,0,0,,12,,,71,127
15552,note_on,1,0,0,,2,,,74,127
15647,note_off,95,0,0,,2,,,74,127
15647,note_off,0,0,0,,4,,,40,127
15647,note_off,0,0,0,,4,,,52,127
15648,note_on,1,0,0,,10,,,57,127
15648,note_on,0,0,0,,10,,,45,127
15744,note_on,96,0,0,,10,,,81,127
15839,note_off,95,0,0,,10,,,81,127
15840,note_on,1,0,0,,4,,,76,127
15935,note_off,95,0,0,,4,,,76,127
15936,note_on,1,0,0,,1,,,73,127
16031,note_off,95,0,0,,1,,,73,127
16032,note_on,1,0,0,,10,,,69,127
16127,note_off,95,0,0,,10,,,69,127
16128,note_on,1,0,0,,4,,,76,127
16223,note_off,95,0,0,,10,,,45,127
16223,note_off,0,0,0,,10,,,57,127
16224,note_on,1,0,0,,4,,,40,127
16224,note_on,0,0,0,,4,,,52,127
16248,note_off,24,0,0,,4,,,76,127
16320,note_on,72,0,0,,12,,,83,127
16415,note_off,95,0,0,,12,,,83,127
16416,note_on,1,0,0,,8,,,80,127
16511,note_off,95,0,0,,8,,,80,127
16512,note_on,1,0,0,,4,,,76,127
16607,note_off,95,0,0,,4,,,76,127
16608,note_on,1,0,0,,12,,,71,127
16703,note_off,95,0,0,,12,,,71,127
16704,note_on,1,0,0,,2,,,74,127
16799,note_off,95,0,0,,2,,,74,127
16799,note_off,0,0,0,,4,,,52,127
16799,note_off,0,0,0,,4,,,40,127
16800,note_on,1,0,0,,10,,,45,127
16800,note_on,0,0,0,,1,,,73,127
16992,note_on,192,0,0,,1,,,85,127
17088,note_off,96,0,0,,1,,,73,127
17183,note_off,95,0,0,,1,,,85,127
17183,note_off,0,0,0,,10,,,45,127
17184,note_on,1,0,0,,1,,,49,127
17184,note_on,0,0,0,,10,,,81,127
17375,note_off,191,0,0,,10,,,81,127
17375,note_off,0,0,0,,1,,,49,127
17376,note_on,1,0,0,,2,,,50,127
17376,note_on,0,0,0,,10,,,69,127
17567,note_off,191,0,0,,10,,,69,127
17567,note_off,0,0,0,,2,,,50,127
17568,note_on,1,0,0,,4,,,52,127
17568,note_on,0,0,0,,1,,,73,127
17631,note_off,63,0,0,,1,,,73,127
17632,note_on,1,0,0,,12,,,71,127
17695,note_off,63,0,0,,12,,,71,127
17696,note_on,1,0,0,,1,,,73,127
17759,note_off,63,0,0,,1,,,73,127
17760,note_on,1,0,0,,4,,,40,127
17760,note_on,0,0,0,,12,,,71,127
17823,note_off,63,0,0,,12,,,71,127
17824,note_on,1,0,0,,10,,,69,127
17887,note_off,63,0,0,,10,,,69,127
17888,note_on,1,0,0,,12,,,71,127
17948,note_off,60,0,0,,4,,,52,127
17951,note_off,3,0,0,,12,,,71,127
17951,note_off,0,0,0,,4,,,40,127
17952,note_on,1,0,0,,10,,,57,127
17952,note_on,0,0,0,,10,,,45,127
17952,note_on,0,0,0,,10,,,69,127
18047,note_off,95,0,0,,10,,,69,127
18048,note_on,1,0,0,,10,,,81,127
18143,note_off,95,0,0,,10,,,81,127
18144,note_on,1,0,0,,4,,,76,127
18239,note_off,95,0,0,,4,,,76,127
18240,note_on,1,0,0,,1,,,73,127
18335,note_off,95,0,0,,1,,,73,127
18336,note_on,1,0,0,,10,,,69,127
18431,note_off,95,0,0,,10,,,69,127
18432,note_on,1,0,0,,4,,,76,127
18527,note_off,95,0,0,,10,,,45,127
18527,note_off,0,0,0,,10,,,57,127
18528,note_on,1,0,0,,4,,,40,127
18528,note_on,0,0,0,,4,,,52,127
18552,note_off,24,0,0,,4,,,76,127
18624,note_on,72,0,0,,12,,,83,127
18719,note_off,95,0,0,,12,,,83,127
18720,note_on,1,0,0,,8,,,80,127
18815,note_off,95,0,0,,8,,,80,127
18816,note_on,1,0,0,,4,,,76,127
18911,note_off,95,0,0,,4,,,76,127
18912,note_on,1,0,0,,12,,,71,127
19007,note_off,95,0,0,,12,,,71,127
19008,note_on,1,0,0,,2,,,74,127
19103,note_off,95,0,0,,2,,,74,127
19103,note_off,0,0,0,,4,,,52,127
19103,note_off,0,0,0,,4,,,40,127
19104,note_on,1,0,0,,10,,,57,127
19104,note_on,0,0,0,,10,,,45,127
19200,note_on,96,0,0,,10,,,81,127
19295,note_off,95,0,0,,10,,,81,127
19296,note_on,1,0,0,,4,,,76,127
19391,note_off,95,0,0,,4,,,76,127
19392,note_on,1,0,0,,1,,,73,127
19487,note_off,95,0,0,,1,,,73,127
19488,note_on,1,0,0,,10,,,69,127
19583,note_off,95,0,0,,10,,,69,127
19584,note_on,1,0,0,,4,,,76,127
19679,note_off,95,0,0,,10,,,45,127
19679,note_off,0,0,0,,10,,,57,127
19680,note_on,1,0,0,,4,,,40,127
19680,note_on,0,0,0,,4,,,52,127
19704,note_off,24,0,0,,4,,,76,127
19776,note_on,72,0,0,,12,,,83,127
19871,note_off,95,0,0,,12,,,83,127
19872,note_on,1,0,0,,8,,,80,127
19967,note_off,95,0,0,,8,,,80,127
19968,note_on,1,0,0,,4,,,76,127
20063,note_off,95,0,0,,4,,,76,127
20064,note_on,1,0,0,,12,,,71,127
20159,note_off,95,0,0,,12,,,71,127
20160,note_on,1,0,0,,2,,,74,127
20255,note_off,95,0,0,,2,,,74,127
20255,note_off,0,0,0,,4,,,52,127
20255,note_off,0,0,0,,4,,,40,127
20256,note_on,1,0,0,,10,,,45,127
20256,note_on,0,0,0,,1,,,73,127
20448,note_on,192,0,0,,1,,,85,127
20544,note_off,96,0,0,,1,,,73,127
20639,note_off,95,0,0,,1,,,85,127
20639,note_off,0,0,0,,10,,,45,127
20640,note_on,1,0,0,,1,,,49,127
20640,note_on,0,0,0,,10,,,81,127
20831,note_off,191,0,0,,10,,,81,127
20831,note_off,0,0,0,,1,,,49,127
20832,note_on,1,0,0,,2,,,50,127
20832,note_on,0,0,0,,10,,,69,127
21023,note_off,191,0,0,,10,,,69,127
21023,note_off,0,0,0,,2,,,50,127
21024,note_on,1,0,0,,4,,,52,127
21024,note_on,0,0,0,,1,,,73,127
21087,note_off,63,0,0,,1,,,73,127
21088,note_on,1,0,0,,12,,,71,127
21151,note_off,63,0,0,,12,,,71,127
21152,note_on,1,0,0,,1,,,73,127
21215,note_off,63,0,0,,1,,,73,127
21216,note_on,1,0,0,,4,,,40,127
21216,note_on,0,0,0,,12,,,71,127
21279,note_off,63,0,0,,12,,,71,127
21280,note_on,1,0,0,,10,,,69,127
21343,note_off,63,0,0,,10,,,69,127
21344,note_on,1,0,0,,12,,,71,127
21404,note_off,60,0,0,,4,,,52,127
21407,note_off,3,0,0,,12,,,71,127
21407,note_off,0,0,0,,4,,,40,127
21408,note_on,1,0,0,,10,,,45,127
21408,note_on,0,0,0,,1,,,73,127
21600,note_on,192,0,0,,1,,,85,127
21696,note_off,96,0,0,,1,,,73,127
21791,note_off,95,0,0,,1,,,85,127
21791,note_off,0,0,0,,10,,,45,127
21792,note_on,1,0,0,,1,,,49,127
21792,note_on,0,0,0,,10,,,81,127
21983,note_off,191,0,0,,10,,,81,127
21983,note_off,0,0,0,,1,,,49,127
21984,note_on,1,0,0,,2,,,50,127
21984,note_on,0,0,0,,10,,,69,127
22175,note_off,191,0,0,,10,,,69,127
22175,note_off,0,0,0,,2,,,50,127
22176,note_on,1,0,0,,4,,,52,127
22176,note_on,0,0,0,,1,,,73,127
22239,note_off,63,0,0,,1,,,73,127
22240,note_on,1,0,0,,12,,,71,127
22303,note_off,63,0,0,,12,,,71,127
22304,note_on,1,0,0,,1,,,73,127
22367,note_off,63,0,0,,1,,,73,127
22368,note_on,1,0,0,,4,,,40,127
22368,note_on,0,0,0,,12,,,71,127
22431,note_off,63,0,0,,12,,,71,127
22432,note_on,1,0,0,,10,,,69,127
22495,note_off,63,0,0,,10,,,69,127
22496,note_on,1,0,0,,12,,,71,127
22556,note_off,60,0,0,,4,,,52,127
22559,note_off,3,0,0,,12,,,71,127
22559,note_off,0,0,0,,4,,,40,127
22560,note_on,1,0,0,,10,,,45,127
22560,note_on,0,0,0,,10,,,69,127
23060,note_off,500,0,0,,10,,,69,127
23135,note_off,75,0,0,,10,,,45,127
23136,note_on,1,0,0,,10,,,57,127
23136,note_on,0,0,0,,10,,,69,127
23328,note_on,192,0,0,,10,,,45,127
23516,note_off,188,0,0,,10,,,69,127
23516,note_off,0,0,0,,10,,,57,127
23519,note_off,3,0,0,,10,,,45,127
23520,note_on,1,0,0,,7,,,55,127
23711,note_off,191,0,0,,7,,,55,127
23712,note_on,1,0,0,,6,,,54,127
23712,note_on,0,0,0,,0,,,72,127
23712,note_on,0,0,0,,10,,,81,127
23775,note_off,63,0,0,,6,,,54,127
23776,note_on,1,0,0,,7,,,55,127
23839,note_off,63,0,0,,7,,,55,127
23840,note_on,1,0,0,,6,,,54,127
23903,note_off,63,0,0,,6,,,54,127
23904,note_on,1,0,0,,4,,,52,127
24095,note_off,191,0,0,,4,,,52,127
24096,note_on,1,0,0,,2,,,50,127
24287,note_off,191,0,0,,2,,,50,127
24287,note_off,0,0,0,,10,,,81,127
24287,note_off,0,0,0,,0,,,72,127
24288,note_on,1,0,0,,7,,,55,127
24288,note_on,0,0,0,,12,,,71,127
24288,note_on,0,0,0,,7,,,79,127
24480,note_on,192,0,0,,7,,,43,127
24576,note_off,96,0,0,,7,,,79,127
24576,note_off,0,0,0,,12,,,71,127
24668,note_off,92,0,0,,7,,,55,127
24671,note_off,3,0,0,,7,,,43,127
24672,note_on,1,0,0,,10,,,57,127
24863,note_off,191,0,0,,10,,,57,127
24864,note_on,1,0,0,,8,,,56,127
24864,note_on,0,0,0,,12,,,83,127
24864,note_on,0,0,0,,2,,,74,127
24927,note_off,63,0,0,,8,,,56,127
24928,note_on,1,0,0,,10,,,57,127
24991,note_off,63,0,0,,10,,,57,127
24992,note_on,1,0,0,,8,,,56,127
25055,note_off,63,0,0,,8,,,56,127
25056,note_on,1,0,0,,6,,,54,127
25247,note_off,191,0,0,,6,,,54,127
25248,note_on,1,0,0,,4,,,52,127
25439,note_off,191,0,0,,4,,,52,127
25439,note_off,0,0,0,,2,,,74,127
25439,note_off,0,0,0,,12,,,83,127
25440,note_on,1,0,0,,10,,,57,127
25440,note_on,0,0,0,,1,,,73,127
25440,note_on,0,0,0,,10,,,81,127
25632,note_on,192,0,0,,10,,,45,127
25728,note_off,96,0,0,,10,,,81,127
25728,note_off,0,0,0,,1,,,73,127
25820,note_off,92,0,0,,10,,,57,127
25823,note_off,3,0,0,,10,,,45,127
25824,note_on,1,0,0,,12,,,59,127
26015,note_off,191,0,0,,12,,,59,127
26016,note_on,1,0,0,,11,,,58,127
26016,note_on,0,0,0,,1,,,85,127
26016,note_on,0,0,0,,4,,,76,127
26079,note_off,63,0,0,,11,,,58,127
26080,note_on,1,0,0,,12,,,59,127
26143,note_off,63,0,0,,12,,,59,127
26144,note_on,1,0,0,,11,,,58,127
26207,note_off,63,0,0,,11,,,58,127
26208,note_on,1,0,0,,8,,,56,127
26399,note_off,191,0,0,,8,,,56,127
26400,note_on,1,0,0,,6,,,54,127
26591,note_off,191,0,0,,6,,,54,127
26591,note_off,0,0,0,,4,,,76,127
26591,note_off,0,0,0,,1,,,85,127
26592,note_on,1,0,0,,12,,,59,127
26592,note_on,0,0,0,,12,,,83,127
26687,note_off,95,0,0,,12,,,83,127
26688,note_on,1,0,0,,12,,,71,127
26783,note_off,95,0,0,,12,,,71,127
26783,note_off,0,0,0,,12,,,59,127
26784,note_on,1,0,0,,1,,,61,127
26784,note_on,0,0,0,,12,,,83,127
26879,note_off,95,0,0,,12,,,83,127
26880,note_on,1,0,0,,10,,,81,127
26975,note_off,95,0,0,,10,,,81,127
26975,note_off,0,0,0,,1,,,61,127
26976,note_on,1,0,0,,2,,,62,127
26976,note_on,0,0,0,,7,,,79,127
27071,note_off,95,0,0,,7,,,79,127
27072,note_on,1,0,0,,6,,,78,127
27167,note_off,95,0,0,,6,,,78,127
27167,note_off,0,0,0,,2,,,62,127
27168,note_on,1,0,0,,4,,,52,127
27168,note_on,0,0,0,,7,,,79,127
27263,note_off,95,0,0,,7,,,79,127
27264,note_on,1,0,0,,6,,,78,127
27359,note_off,95,0,0,,6,,,78,127
27359,note_off,0,0,0,,4,,,52,127
27360,note_on,1,0,0,,6,,,54,127
27360,note_on,0,0,0,,4,,,76,127
27455,note_off,95,0,0,,4,,,76,127
27456,note_on,1,0,0,,2,,,74,127
27551,note_off,95,0,0,,2,,,74,127
27551,note_off,0,0,0,,6,,,54,127
27552,note_on,1,0,0,,7,,,55,127
27552,note_on,0,0,0,,1,,,73,127
27647,note_off,95,0,0,,1,,,73,127
27648,note_on,1,0,0,,12,,,71,127
27743,note_off,95,0,0,,12,,,71,127
27743,note_off,0,0,0,,7,,,55,127
27744,note_on,1,0,0,,6,,,54,127
27744,note_on,0,0,0,,11,,,70,127
27936,note_on,192,0,0,,6,,,78,127
28032,note_off,96,0,0,,11,,,70,127
28128,note_on,96,0,0,,6,,,66,127
28319,note_off,191,0,0,,6,,,66,127
28319,note_off,0,0,0,,6,,,54,127
28320,note_on,1,0,0,,7,,,67,127
28511,note_off,191,0,0,,6,,,78,127
28512,note_on,1,0,0,,7,,,55,127
28512,note_on,0,0,0,,4,,,76,127
28704,note_on,192,0,0,,4,,,64,127
28892,note_off,188,0,0,,7,,,55,127
28895,note_off,3,0,0,,4,,,76,127
28895,note_off,0,0,0,,7,,,67,127
28896,note_on,1,0,0,,6,,,54,127
28896,note_on,0,0,0,,11,,,70,127
29087,note_off,191,0,0,,11,,,70,127
29088,note_on,1,0,0,,6,,,78,127
29280,note_on,192,0,0,,6,,,66,127
29471,note_off,191,0,0,,6,,,66,127
29471,note_off,0,0,0,,6,,,54,127
29471,note_off,0,0,0,,4,,,64,127
29472,note_on,1,0,0,,7,,,67,127
29663,note_off,191,0,0,,6,,,78,127
29664,note_on,1,0,0,,7,,,55,127
29664,note_on,0,0,0,,4,,,76,127
29856,note_on,192,0,0,,4,,,64,127
30044,note_off,188,0,0,,7,,,55,127
30047,note_off,3,0,0,,4,,,76,127
30047,note_off,0,0,0,,7,,,67,127
30048,note_on,1,0,0,,6,,,54,127
30048,note_on,0,0,0,,11,,,70,127
30239,note_off,191,0,0,,11,,,70,127
30240,note_on,1,0,0,,6,,,78,127
30432,note_on,192,0,0,,6,,,66,127
30623,note_off,191,0,0,,6,,,66,127
30623,note_off,0,0,0,,6,,,54,127
30623,note_off,0,0,0,,4,,,64,127
30624,note_on,1,0,0,,7,,,67,127
30815,note_off,191,0,0,,6,,,78,127
30816,note_on,1,0,0,,7,,,55,127
30816,note_on,0,0,0,,4,,,76,127
31008,note_on,192,0,0,,4,,,64,127
31196,note_off,188,0,0,,7,,,55,127
31199,note_off,3,0,0,,4,,,64,127
31199,note_off,0,0,0,,4,,,76,127
31199,note_off,0,0,0,,7,,,67,127
31200,note_on,1,0,0,,10,,,57,127
31200,note_on,0,0,0,,6,,,66,127
31200,note_on,0,0,0,,3,,,75,127
31391,note_off,191,0,0,,3,,,75,127
31392,note_on,1,0,0,,6,,,78,127
31583,note_off,191,0,0,,6,,,78,127
31584,note_on,1,0,0,,0,,,72,127
31775,note_off,191,0,0,,0,,,72,127
31775,note_off,0,0,0,,6,,,66,127
31775,note_off,0,0,0,,10,,,57,127
31776,note_on,1,0,0,,12,,,71,127
31968,note_on,192,0,0,,7,,,55,127
31968,note_on,0,0,0,,4,,,76,127
32064,note_off,96,0,0,,12,,,71,127
32160,note_on,96,0,0,,4,,,64,127
32348,note_off,188,0,0,,7,,,55,127
32351,note_off,3,0,0,,4,,,64,127
32351,note_off,0,0,0,,4,,,76,127
32352,note_on,1,0,0,,10,,,57,127
32352,note_on,0,0,0,,6,,,66,127
32352,note_on,0,0,0,,3,,,75,127
32543,note_off,191,0,0,,3,,,75,127
32544,note_on,1,0,0,,6,,,78,127
32735,note_off,191,0,0,,6,,,78,127
32736,note_on,1,0,0,,0,,,72,127
32927,note_off,191,0,0,,0,,,72,127
32927,note_off,0,0,0,,6,,,66,127
32927,note_off,0,0,0,,10,,,57,127
32928,note_on,1,0,0,,12,,,71,127
33120,note_on,192,0,0,,7,,,55,127
33120,note_on,0,0,0,,4,,,76,127
33216,note_off,96,0,0,,12,,,71,127
33312,note_on,96,0,0,,4,,,64,127
33440,note_off,128,0,0,,4,,,76,127
33492,note_off,52,0,0,,4,,,64,127
33500,note_off,8,0,0,,7,,,55,127
33504,note_on,4,0,0,,6,,,54,127
33504,note_on,0,0,0,,2,,,62,127
33504,note_on,0,0,0,,10,,,81,127
33695,note_off,191,0,0,,10,,,81,127
33696,note_on,1,0,0,,1,,,73,127
33887,note_off,191,0,0,,1,,,73,127
33888,note_on,1,0,0,,2,,,74,127
34079,note_off,191,0,0,,2,,,74,127
34079,note_off,0,0,0,,2,,,62,127
34079,note_off,0,0,0,,6,,,54,127
34080,note_on,1,0,0,,4,,,52,127
34080,note_on,0,0,0,,2,,,62,127
34080,note_on,0,0,0,,10,,,81,127
34175,note_off,95,0,0,,10,,,81,127
34176,note_on,1,0,0,,7,,,79,127
34271,note_off,95,0,0,,7,,,79,127
34272,note_on,1,0,0,,6,,,78,127
34463,note_off,191,0,0,,6,,,78,127
34463,note_off,0,0,0,,2,,,62,127
34464,note_on,1,0,0,,1,,,61,127
34464,note_on,0,0,0,,4,,,76,127
34655,note_off,191,0,0,,4,,,76,127
34655,note_off,0,0,0,,1,,,61,127
34655,note_off,0,0,0,,4,,,52,127
34656,note_on,1,0,0,,2,,,50,127
34656,note_on,0,0,0,,2,,,62,127
34656,note_on,0,0,0,,6,,,78,127
34847,note_off,191,0,0,,6,,,78,127
34847,note_off,0,0,0,,2,,,50,127
34848,note_on,1,0,0,,4,,,52,127
34848,note_on,0,0,0,,7,,,79,127
34944,note_off,96,0,0,,2,,,62,127
35039,note_off,95,0,0,,7,,,79,127
35039,note_off,0,0,0,,4,,,52,127
35040,note_on,1,0,0,,6,,,54,127
35040,note_on,0,0,0,,10,,,81,127
35231,note_off,191,0,0,,10,,,81,127
35231,note_off,0,0,0,,6,,,54,127
35232,note_on,1,0,0,,7,,,55,127
35232,note_on,0,0,0,,12,,,83,127
35327,note_off,95,0,0,,12,,,83,127
35328,note_on,1,0,0,,10,,,81,127
35423,note_off,95,0,0,,10,,,81,127
35423,note_off,0,0,0,,7,,,55,127
35424,note_on,1,0,0,,10,,,57,127
35424,note_on,0,0,0,,7,,,79,127
35519,note_off,95,0,0,,7,,,79,127
35520,note_on,1,0,0,,6,,,78,127
35615,note_off,95,0,0,,6,,,78,127
35615,note_off,0,0,0,,10,,,57,127
35616,note_on,1,0,0,,12,,,59,127
35616,note_on,0,0,0,,4,,,76,127
35711,note_off,95,0,0,,4,,,76,127
35712,note_on,1,0,0,,2,,,74,127
35807,note_off,95,0,0,,2,,,74,127
35807,note_off,0,0,0,,12,,,59,127
35808,note_on,1,0,0,,10,,,57,127
35808,note_on,0,0,0,,10,,,45,127
35808,note_on,0,0,0,,1,,,73,127
35903,note_off,95,0,0,,1,,,73,127
35904,note_on,1,0,0,,10,,,81,127
35999,note_off,95,0,0,,10,,,81,127
36000,note_on,1,0,0,,4,,,76,127
36095,note_off,95,0,0,,4,,,76,127
36096,note_on,1,0,0,,1,,,73,127
36191,note_off,95,0,0,,1,,,73,127
36192,note_on,1,0,0,,10,,,69,127
36287,note_off,95,0,0,,10,,,69,127
36288,note_on,1,0,0,,7,,,79,127
36383,note_off,95,0,0,,7,,,79,127
36383,note_off,0,0,0,,10,,,45,127
36383,note_off,0,0,0,,10,,,57,127
36384,note_on,1,0,0,,2,,,38,127
36384,note_on,0,0,0,,2,,,50,127
36480,note_on,96,0,0,,10,,,81,127
36575,note_off,95,0,0,,10,,,81,127
36576,note_on,1,0,0,,6,,,78,127
36671,note_off,95,0,0,,6,,,78,127
36672,note_on,1,0,0,,2,,,74,127
36767,note_off,95,0,0,,2,,,74,127
36768,note_on,1,0,0,,10,,,69,127
36863,note_off,95,0,0,,10,,,69,127
36864,note_on,1,0,0,,6,,,78,127
36959,note_off,95,0,0,,2,,,50,127
36959,note_off,0,0,0,,2,,,38,127
36960,note_on,1,0,0,,10,,,45,127
36960,note_on,0,0,0,,10,,,57,127
36984,note_off,24,0,0,,6,,,78,127
37056,note_on,72,0,0,,10,,,81,127
37151,note_off,95,0,0,,10,,,81,127
37152,note_on,1,0,0,,4,,,76,127
37247,note_off,95,0,0,,4,,,76,127
37248,note_on,1,0,0,,1,,,73,127
37343,note_off,95,0,0,,1,,,73,127
37344,note_on,1,0,0,,10,,,69,127
37439,note_off,95,0,0,,10,,,69,127
37440,note_on,1,0,0,,7,,,79,127
37535,note_off,95,0,0,,7,,,79,127
37535,note_off,0,0,0,,10,,,57,127
37535,note_off,0,0,0,,10,,,45,127
37536,note_on,1,0,0,,2,,,38,127
37536,note_on,0,0,0,,2,,,50,127
37632,note_on,96,0,0,,10,,,81,127
37727,note_off,95,0,0,,10,,,81,127
37728,note_on,1,0,0,,6,,,78,127
37823,note_off,95,0,0,,6,,,78,127
37824,note_on,1,0,0,,2,,,74,127
37919,note_off,95,0,0,,2,,,74,127
37920,note_on,1,0,0,,10,,,69,127
38015,note_off,95,0,0,,10,,,69,127
38016,note_on,1,0,0,,6,,,78,127
38111,note_off,95,0,0,,2,,,50,127
38111,note_off,0,0,0,,2,,,38,127
38112,note_on,1,0,0,,10,,,45,127
38112,note_on,0,0,0,,10,,,57,127
38136,note_off,24,0,0,,6,,,78,127
38208,note_on,72,0,0,,10,,,81,127
38303,note_off,95,0,0,,10,,,81,127
38304,note_on,1,0,0,,4,,,76,127
38399,note_off,95,0,0,,4,,,76,127
38400,note_on,1,0,0,,1,,,73,127
38495,note_off,95,0,0,,1,,,73,127
38496,note_on,1,0,0,,10,,,69,127
38591,note_off,95,0,0,,10,,,69,127
38592,note_on,1,0,0,,7,,,79,127
38687,note_off,95,0,0,,7,,,79,127
38687,note_off,0,0,0,,10,,,57,127
38687,note_off,0,0,0,,10,,,45,127
38688,note_on,1,0,0,,2,,,38,127
38688,note_on,0,0,0,,2,,,50,127
38688,note_on,0,0,0,,6,,,78,127
38880,note_on,192,0,0,,2,,,86,127
38976,note_off,96,0,0,,6,,,78,127
39071,note_off,95,0,0,,2,,,86,127
39071,note_off,0,0,0,,2,,,50,127
39071,note_off,0,0,0,,2,,,38,127
39072,note_on,1,0,0,,6,,,54,127
39072,note_on,0,0,0,,2,,,74,127
39263,note_off,191,0,0,,2,,,74,127
39263,note_off,0,0,0,,6,,,54,127
39264,note_on,1,0,0,,7,,,55,127
39264,note_on,0,0,0,,2,,,74,127
39455,note_off,191,0,0,,2,,,74,127
39455,note_off,0,0,0,,7,,,55,127
39456,note_on,1,0,0,,10,,,57,127
39456,note_on,0,0,0,,6,,,78,127
39519,note_off,63,0,0,,6,,,78,127
39520,note_on,1,0,0,,4,,,76,127
39583,note_off,63,0,0,,4,,,76,127
39584,note_on,1,0,0,,6,,,78,127
39647,note_off,63,0,0,,6,,,78,127
39648,note_on,1,0,0,,10,,,45,127
39648,note_on,0,0,0,,4,,,76,127
39711,note_off,63,0,0,,4,,,76,127
39712,note_on,1,0,0,,2,,,74,127
39775,note_off,63,0,0,,2,,,74,127
39776,note_on,1,0,0,,4,,,76,127
39836,note_off,60,0,0,,10,,,57,127
39839,note_off,3,0,0,,4,,,76,127
39839,note_off,0,0,0,,10,,,45,127
39840,note_on,1,0,0,,2,,,38,127
39840,note_on,0,0,0,,2,,,50,127
39840,note_on,0,0,0,,2,,,74,127
39935,note_off,95,0,0,,2,,,74,127
39936,note_on,1,0,0,,10,,,81,127
40031,note_off,95,0,0,,10,,,81,127
40032,note_on,1,0,0,,6,,,78,127
40127,note_off,95,0,0,,6,,,78,127
40128,note_on,1,0,0,,2,,,74,127
40223,note_off,95,0,0,,2,,,74,127
40224,note_on,1,0,0,,10,,,69,127
40319,note_off,95,0,0,,10,,,69,127
40320,note_on,1,0,0,,6,,,78,127
40415,note_off,95,0,0,,6,,,78,127
40415,note_off,0,0,0,,2,,,50,127
40415,note_off,0,0,0,,2,,,38,127
40416,note_on,1,0,0,,10,,,45,127
40512,note_on,96,0,0,,10,,,81,127
40607,note_off,95,0,0,,10,,,81,127
40608,note_on,1,0,0,,4,,,76,127
40703,note_off,95,0,0,,4,,,76,127
40704,note_on,1,0,0,,1,,,73,127
40799,note_off,95,0,0,,1,,,73,127
40800,note_on,1,0,0,,10,,,69,127
40895,note_off,95,0,0,,10,,,69,127
40896,note_on,1,0,0,,7,,,79,127
40991,note_off,95,0,0,,10,,,45,127
40992,note_on,1,0,0,,2,,,38,127
40992,note_on,0,0,0,,2,,,50,127
41016,note_off,24,0,0,,7,,,79,127
41088,note_on,72,0,0,,10,,,81,127
41183,note_off,95,0,0,,10,,,81,127
41184,note_on,1,0,0,,6,,,78,127
41279,note_off,95,0,0,,6,,,78,127
41280,note_on,1,0,0,,2,,,74,127
41375,note_off,95,0,0,,2,,,74,127
41376,note_on,1,0,0,,10,,,69,127
41471,note_off,95,0,0,,10,,,69,127
41472,note_on,1,0,0,,6,,,78,127
41567,note_off,95,0,0,,6,,,78,127
41567,note_off,0,0,0,,2,,,50,127
41567,note_off,0,0,0,,2,,,38,127
41568,note_on,1,0,0,,10,,,45,127
41664,note_on,96,0,0,,10,,,81,127
41759,note_off,95,0,0,,10,,,81,127
41760,note_on,1,0,0,,4,,,76,127
41855,note_off,95,0,0,,4,,,76,127
41856,note_on,1,0,0,,1,,,73,127
41951,note_off,95,0,0,,1,,,73,127
41952,note_on,1,0,0,,10,,,69,127
42047,note_off,95,0,0,,10,,,69,127
42048,note_on,1,0,0,,7,,,79,127
42143,note_off,95,0,0,,7,,,79,127
42143,note_off,0,0,0,,10,,,45,127
42144,note_on,1,0,0,,2,,,38,127
42144,note_on,0,0,0,,2,,,50,127
42144,note_on,0,0,0,,6,,,78,127
42336,note_on,192,0,0,,2,,,86,127
42432,note_off,96,0,0,,6,,,78,127
42527,note_off,95,0,0,,2,,,86,127
42527,note_off,0,0,0,,2,,,50,127
42527,note_off,0,0,0,,2,,,38,127
42528,note_on,1,0,0,,6,,,54,127
42528,note_on,0,0,0,,2,,,74,127
42719,note_off,191,0,0,,2,,,74,127
42719,note_off,0,0,0,,6,,,54,127
42720,note_on,1,0,0,,7,,,55,127
42720,note_on,0,0,0,,2,,,74,127
42911,note_off,191,0,0,,2,,,74,127
42911,note_off,0,0,0,,7,,,55,127
42912,note_on,1,0,0,,10,,,57,127
42912,note_on,0,0,0,,6,,,78,127
42975,note_off,63,0,0,,6,,,78,127
42976,note_on,1,0,0,,4,,,76,127
43039,note_off,63,0,0,,4,,,76,127
43040,note_on,1,0,0,,6,,,78,127
43103,note_off,63,0,0,,6,,,78,127
43104,note_on,1,0,0,,10,,,45,127
43104,note_on,0,0,0,,4,,,76,127
43167,note_off,63,0,0,,4,,,76,127
43168,note_on,1,0,0,,2,,,74,127
43231,note_off,63,0,0,,2,,,74,127
43232,note_on,1,0,0,,4,,,76,127
43292,note_off,60,0,0,,10,,,57,127
43295,note_off,3,0,0,,10,,,45,127
43296,note_off,1,0,0,,4,,,76,127
43298,note_on,2,0,0,,6,,,78,127
43298,note_on,0,0,0,,2,,,50,127
43496,note_on,198,0,0,,2,,,86,127
43591,note_off,95,0,0,,6,,,78,127
43688,note_off,97,0,0,,2,,,50,127
43690,note_off,2,0,0,,2,,,86,127
43694,note_on,4,0,0,,2,,,74,127
43694,note_on,0,0,0,,6,,,54,127
43888,note_off,194,0,0,,6,,,54,127
43888,note_off,0,0,0,,2,,,74,127
43892,note_on,4,0,0,,2,,,62,127
43892,note_on,0,0,0,,7,,,55,127
44086,note_off,194,0,0,,7,,,55,127
44086,note_off,0,0,0,,2,,,62,127
44089,note_on,3,0,0,,6,,,66,127
44089,note_on,0,0,0,,10,,,57,127
44153,note_off,64,0,0,,6,,,66,127
44155,note_on,2,0,0,,4,,,64,127
44219,note_off,64,0,0,,4,,,64,127
44221,note_on,2,0,0,,6,,,66,127
44285,note_off,64,0,0,,6,,,66,127
44287,note_on,2,0,0,,4,,,64,127
44287,note_on,0,0,0,,10,,,45,127
44351,note_off,64,0,0,,4,,,64,127
44353,note_on,2,0,0,,2,,,62,127
44417,note_off,64,0,0,,2,,,62,127
44419,note_on,2,0,0,,4,,,64,127
44476,note_off,57,0,0,,10,,,57,127
44481,note_off,5,0,0,,10,,,45,127
44483,note_off,2,0,0,,4,,,64,127
44500,note_on,17,0,0,,2,,,62,127
44500,note_on,0,0,0,,2,,,38,127
46080,note_off,1580,0,0,,2,,,38,127
46080,note_off,0,0,0,,2,,,62,127
50688,end_of_track,4608,1,0,,,,,,
