tick,type,time,meta,track,program,channel,pitch,tempo,note,velocity
0,copyright,0,1,0,,,,,,
0,program_change,0,0,0,6,0,,,,
0,pitchwheel,0,0,0,,0,0,,,
0,program_change,0,0,0,6,1,,,,
0,pitchwheel,0,0,0,,1,-590,,,
0,program_change,0,0,0,6,2,,,,
0,pitchwheel,0,0,0,,2,-272,,,
0,program_change,0,0,0,6,3,,,,
0,pitchwheel,0,0,0,,3,-353,,,
0,program_change,0,0,0,6,4,,,,
0,pitchwheel,0,0,0,,4,-560,,,
0,program_change,0,0,0,6,5,,,,
0,pitchwheel,0,0,0,,5,-80,,,
0,program_change,0,0,0,6,6,,,,
0,pitchwheel,0,0,0,,6,-625,,,
0,program_change,0,0,0,6,7,,,,
0,pitchwheel,0,0,0,,7,-130,,,
0,program_change,0,0,0,6,8,,,,
0,pitchwheel,0,0,0,,8,-512,,,
0,program_change,0,0,0,6,10,,,,
0,pitchwheel,0,0,0,,10,-464,,,
0,program_change,0,0,0,6,11,,,,
0,pitchwheel,0,0,0,,11,-208,,,
0,program_change,0,0,0,6,12,,,,
0,pitchwheel,0,0,0,,12,-553,,,
0,set_tempo,0,1,0,,,,500000,,
137,note_on,137,0,0,,7,,,79,127
206,note_on,69,0,0,,11,,,82,127
265,note_off,59,0,0,,7,,,79,127
275,note_on,10,0,0,,7,,,79,127
334,note_off,59,0,0,,11,,,82,127
344,note_on,10,0,0,,2,,,74,127
413,note_on,69,0,0,,11,,,70,127
462,note_off,49,0,0,,7,,,79,127
481,note_off,19,0,0,,2,,,74,127
482,note_on,1,0,0,,7,,,67,127
549,note_off,67,0,0,,11,,,70,127
550,note_on,1,0,0,,2,,,62,127
619,note_on,69,0,0,,11,,,58,127
668,note_off,49,0,0,,7,,,67,127
687,note_off,19,0,0,,2,,,62,127
688,note_on,1,0,0,,7,,,55,127
755,note_off,67,0,0,,11,,,58,127
756,note_on,1,0,0,,2,,,50,127
825,note_on,69,0,0,,7,,,43,127
874,note_off,49,0,0,,7,,,55,127
893,note_off,19,0,0,,2,,,50,127
1647,note_off,754,0,0,,7,,,43,127
1923,note_on,276,0,0,,7,,,67,127
1923,note_on,0,0,0,,11,,,70,127
1923,note_on,0,0,0,,11,,,82,127
2094,note_on,171,0,0,,0,,,84,127
2104,note_off,10,0,0,,11,,,82,127
2195,note_off,91,0,0,,0,,,84,127
2195,note_off,0,0,0,,11,,,70,127
2195,note_off,0,0,0,,7,,,67,127
2196,note_on,1,0,0,,0,,,72,127
2196,note_on,0,0,0,,10,,,69,127
2196,note_on,0,0,0,,7,,,79,127
2469,note_off,273,0,0,,7,,,79,127
2469,note_off,0,0,0,,10,,,69,127
2469,note_off,0,0,0,,0,,,72,127
2470,note_on,1,0,0,,0,,,72,127
2470,note_on,0,0,0,,10,,,69,127
2470,note_on,0,0,0,,7,,,79,127
2537,note_off,67,0,0,,7,,,79,127
2538,note_on,1,0,0,,6,,,78,127
2605,note_off,67,0,0,,6,,,78,127
2606,note_on,1,0,0,,7,,,79,127
2673,note_off,67,0,0,,7,,,79,127
2674,note_on,1,0,0,,6,,,78,127
2741,note_off,67,0,0,,6,,,78,127
2741,note_off,0,0,0,,10,,,69,127
2741,note_off,0,0,0,,0,,,72,127
2742,note_on,1,0,0,,0,,,72,127
2742,note_on,0,0,0,,10,,,69,127
2742,note_on,0,0,0,,10,,,81,127
2913,note_on,171,0,0,,11,,,82,127
2923,note_off,10,0,0,,10,,,81,127
3014,note_off,91,0,0,,11,,,82,127
3014,note_off,0,0,0,,10,,,69,127
3014,note_off,0,0,0,,0,,,72,127
3015,note_on,1,0,0,,11,,,70,127
3015,note_on,0,0,0,,2,,,74,127
3015,note_on,0,0,0,,10,,,81,127
3288,note_off,273,0,0,,10,,,81,127
3288,note_off,0,0,0,,2,,,74,127
3288,note_off,0,0,0,,11,,,70,127
3289,note_on,1,0,0,,11,,,70,127
3289,note_on,0,0,0,,2,,,74,127
3289,note_on,0,0,0,,10,,,81,127
3356,note_off,67,0,0,,10,,,81,127
3357,note_on,1,0,0,,7,,,79,127
3424,note_off,67,0,0,,7,,,79,127
3425,note_on,1,0,0,,10,,,81,127
3492,note_off,67,0,0,,10,,,81,127
3493,note_on,1,0,0,,7,,,79,127
3560,note_off,67,0,0,,7,,,79,127
3560,note_off,0,0,0,,2,,,74,127
3560,note_off,0,0,0,,11,,,70,127
3561,note_on,1,0,0,,7,,,67,127
3561,note_on,0,0,0,,7,,,79,127
3651,note_off,90,0,0,,7,,,79,127
3652,note_on,1,0,0,,3,,,75,127
3742,note_off,90,0,0,,3,,,75,127
3743,note_on,1,0,0,,0,,,72,127
3833,note_off,90,0,0,,0,,,72,127
3833,note_off,0,0,0,,7,,,67,127
3834,note_on,1,0,0,,6,,,66,127
3834,note_on,0,0,0,,10,,,69,127
3834,note_on,0,0,0,,0,,,72,127
4107,note_off,273,0,0,,0,,,72,127
4107,note_off,0,0,0,,10,,,69,127
4107,note_off,0,0,0,,6,,,66,127
4108,note_on,1,0,0,,6,,,66,127
4108,note_on,0,0,0,,10,,,69,127
4108,note_on,0,0,0,,2,,,74,127
4381,note_off,273,0,0,,2,,,74,127
4381,note_off,0,0,0,,10,,,69,127
4381,note_off,0,0,0,,6,,,66,127
4382,note_on,1,0,0,,3,,,63,127
4382,note_on,0,0,0,,7,,,67,127
4382,note_on,0,0,0,,7,,,79,127
4472,note_off,90,0,0,,7,,,79,127
4473,note_on,1,0,0,,0,,,72,127
4563,note_off,90,0,0,,0,,,72,127
4564,note_on,1,0,0,,10,,,69,127
4654,note_off,90,0,0,,10,,,69,127
4654,note_off,0,0,0,,7,,,67,127
4654,note_off,0,0,0,,3,,,63,127
4655,note_on,1,0,0,,7,,,67,127
4655,note_on,0,0,0,,2,,,62,127
4655,note_on,0,0,0,,10,,,69,127
4928,note_off,273,0,0,,10,,,69,127
4928,note_off,0,0,0,,2,,,62,127
4928,note_off,0,0,0,,7,,,67,127
4929,note_on,1,0,0,,2,,,62,127
4929,note_on,0,0,0,,7,,,67,127
4929,note_on,0,0,0,,11,,,70,127
5202,note_off,273,0,0,,11,,,70,127
5202,note_off,0,0,0,,7,,,67,127
5202,note_off,0,0,0,,2,,,62,127
5203,note_on,1,0,0,,2,,,62,127
5203,note_on,0,0,0,,0,,,60,127
5203,note_on,0,0,0,,3,,,75,127
5293,note_off,90,0,0,,3,,,75,127
5294,note_on,1,0,0,,0,,,72,127
5384,note_off,90,0,0,,0,,,72,127
5385,note_on,1,0,0,,6,,,66,127
5475,note_off,90,0,0,,6,,,66,127
5475,note_off,0,0,0,,0,,,60,127
5475,note_off,0,0,0,,2,,,62,127
5476,note_on,1,0,0,,2,,,62,127
5476,note_on,0,0,0,,11,,,58,127
5476,note_on,0,0,0,,6,,,66,127
5749,note_off,273,0,0,,6,,,66,127
5749,note_off,0,0,0,,11,,,58,127
5749,note_off,0,0,0,,2,,,62,127
5750,note_on,1,0,0,,11,,,58,127
5750,note_on,0,0,0,,2,,,62,127
5750,note_on,0,0,0,,7,,,67,127
5993,note_off,243,0,0,,7,,,67,127
6023,note_off,30,0,0,,2,,,62,127
6023,note_off,0,0,0,,11,,,58,127
6024,note_on,1,0,0,,6,,,54,127
6024,note_on,0,0,0,,2,,,62,127
6024,note_on,0,0,0,,10,,,57,127
6161,note_on,137,0,0,,3,,,63,127
6297,note_off,136,0,0,,3,,,63,127
6297,note_off,0,0,0,,10,,,57,127
6297,note_off,0,0,0,,2,,,62,127
6297,note_off,0,0,0,,6,,,54,127
6298,note_on,1,0,0,,6,,,54,127
6298,note_on,0,0,0,,0,,,60,127
6298,note_on,0,0,0,,10,,,57,127
6298,note_on,0,0,0,,2,,,62,127
6434,note_off,136,0,0,,2,,,62,127
6435,note_on,1,0,0,,6,,,66,127
6571,note_off,136,0,0,,6,,,66,127
6571,note_off,0,0,0,,10,,,57,127
6571,note_off,0,0,0,,0,,,60,127
6571,note_off,0,0,0,,6,,,54,127
6572,note_on,1,0,0,,10,,,57,127
6572,note_on,0,0,0,,6,,,54,127
6572,note_on,0,0,0,,0,,,60,127
6572,note_on,0,0,0,,10,,,69,127
6708,note_off,136,0,0,,10,,,69,127
6709,note_on,1,0,0,,0,,,72,127
6845,note_off,136,0,0,,0,,,72,127
6845,note_off,0,0,0,,0,,,60,127
6845,note_off,0,0,0,,6,,,54,127
6845,note_off,0,0,0,,10,,,57,127
6846,note_on,1,0,0,,3,,,63,127
6846,note_on,0,0,0,,7,,,55,127
6846,note_on,0,0,0,,0,,,60,127
6846,note_on,0,0,0,,0,,,72,127
7119,note_off,273,0,0,,0,,,72,127
7119,note_off,0,0,0,,0,,,60,127
7119,note_off,0,0,0,,7,,,55,127
7119,note_off,0,0,0,,3,,,63,127
7120,note_on,1,0,0,,2,,,62,127
7120,note_on,0,0,0,,7,,,55,127
7120,note_on,0,0,0,,0,,,72,127
7187,note_off,67,0,0,,0,,,72,127
7188,note_on,1,0,0,,11,,,70,127
7255,note_off,67,0,0,,11,,,70,127
7256,note_on,1,0,0,,10,,,69,127
7392,note_off,136,0,0,,10,,,69,127
7392,note_off,0,0,0,,7,,,55,127
7392,note_off,0,0,0,,2,,,62,127
7393,note_on,1,0,0,,2,,,62,127
7393,note_on,0,0,0,,7,,,55,127
7393,note_on,0,0,0,,11,,,70,127
7666,note_off,273,0,0,,7,,,55,127
7666,note_off,0,0,0,,2,,,62,127
7667,note_on,1,0,0,,0,,,60,127
7667,note_on,0,0,0,,10,,,57,127
7667,note_on,0,0,0,,3,,,63,127
7707,note_off,40,0,0,,11,,,70,127
7804,note_on,97,0,0,,7,,,67,127
7940,note_off,136,0,0,,7,,,67,127
7940,note_off,0,0,0,,3,,,63,127
7940,note_off,0,0,0,,10,,,57,127
7940,note_off,0,0,0,,0,,,60,127
7941,note_on,1,0,0,,3,,,63,127
7941,note_on,0,0,0,,0,,,60,127
7941,note_on,0,0,0,,10,,,57,127
7941,note_on,0,0,0,,6,,,66,127
8077,note_off,136,0,0,,6,,,66,127
8078,note_on,1,0,0,,10,,,69,127
8214,note_off,136,0,0,,10,,,69,127
8214,note_off,0,0,0,,10,,,57,127
8214,note_off,0,0,0,,0,,,60,127
8214,note_off,0,0,0,,3,,,63,127
8215,note_on,1,0,0,,10,,,57,127
8215,note_on,0,0,0,,3,,,63,127
8215,note_on,0,0,0,,0,,,60,127
8215,note_on,0,0,0,,0,,,72,127
8351,note_off,136,0,0,,0,,,72,127
8352,note_on,1,0,0,,3,,,75,127
8488,note_off,136,0,0,,3,,,75,127
8488,note_off,0,0,0,,0,,,60,127
8488,note_off,0,0,0,,3,,,63,127
8488,note_off,0,0,0,,10,,,57,127
8489,note_on,1,0,0,,11,,,58,127
8489,note_on,0,0,0,,7,,,67,127
8489,note_on,0,0,0,,2,,,62,127
8489,note_on,0,0,0,,3,,,75,127
8762,note_off,273,0,0,,3,,,75,127
8762,note_off,0,0,0,,2,,,62,127
8762,note_off,0,0,0,,7,,,67,127
8762,note_off,0,0,0,,11,,,58,127
8763,note_on,1,0,0,,7,,,67,127
8763,note_on,0,0,0,,2,,,62,127
8763,note_on,0,0,0,,11,,,58,127
8763,note_on,0,0,0,,3,,,75,127
8830,note_off,67,0,0,,3,,,75,127
8831,note_on,1,0,0,,2,,,74,127
8898,note_off,67,0,0,,2,,,74,127
8899,note_on,1,0,0,,0,,,72,127
9035,note_off,136,0,0,,0,,,72,127
9035,note_off,0,0,0,,11,,,58,127
9035,note_off,0,0,0,,2,,,62,127
9035,note_off,0,0,0,,7,,,67,127
9036,note_on,1,0,0,,11,,,58,127
9036,note_on,0,0,0,,7,,,67,127
9036,note_on,0,0,0,,2,,,62,127
9036,note_on,0,0,0,,2,,,74,127
9309,note_off,273,0,0,,2,,,62,127
9309,note_off,0,0,0,,7,,,67,127
9309,note_off,0,0,0,,11,,,58,127
9310,note_on,1,0,0,,0,,,60,127
9310,note_on,0,0,0,,3,,,63,127
9310,note_on,0,0,0,,7,,,67,127
9379,note_off,69,0,0,,2,,,74,127
9448,note_on,69,0,0,,11,,,70,127
9584,note_off,136,0,0,,11,,,70,127
9584,note_off,0,0,0,,7,,,67,127
9584,note_off,0,0,0,,3,,,63,127
9584,note_off,0,0,0,,0,,,60,127
9585,note_on,1,0,0,,0,,,60,127
9585,note_on,0,0,0,,7,,,67,127
9585,note_on,0,0,0,,3,,,63,127
9585,note_on,0,0,0,,10,,,69,127
9721,note_off,136,0,0,,10,,,69,127
9722,note_on,1,0,0,,0,,,72,127
9858,note_off,136,0,0,,0,,,72,127
9858,note_off,0,0,0,,3,,,63,127
9858,note_off,0,0,0,,7,,,67,127
9858,note_off,0,0,0,,0,,,60,127
9859,note_on,1,0,0,,3,,,63,127
9859,note_on,0,0,0,,7,,,67,127
9859,note_on,0,0,0,,0,,,60,127
9859,note_on,0,0,0,,3,,,75,127
9995,note_off,136,0,0,,3,,,75,127
9996,note_on,1,0,0,,7,,,79,127
10132,note_off,136,0,0,,7,,,79,127
10132,note_off,0,0,0,,0,,,60,127
10132,note_off,0,0,0,,7,,,67,127
10132,note_off,0,0,0,,3,,,63,127
10133,note_on,1,0,0,,2,,,62,127
10133,note_on,0,0,0,,7,,,79,127
10406,note_off,273,0,0,,7,,,79,127
10407,note_on,1,0,0,,2,,,50,127
10407,note_on,0,0,0,,7,,,79,127
10474,note_off,67,0,0,,7,,,79,127
10475,note_on,1,0,0,,6,,,78,127
10542,note_off,67,0,0,,6,,,78,127
10543,note_on,1,0,0,,4,,,76,127
10679,note_off,136,0,0,,4,,,76,127
10680,note_on,1,0,0,,2,,,74,127
10953,note_off,273,0,0,,2,,,74,127
10953,note_off,0,0,0,,2,,,50,127
10953,note_off,0,0,0,,2,,,62,127
10954,note_on,1,0,0,,2,,,62,127
10954,note_on,0,0,0,,0,,,72,127
10954,note_on,0,0,0,,3,,,75,127
11090,note_off,136,0,0,,3,,,75,127
11091,note_on,1,0,0,,10,,,81,127
11227,note_off,136,0,0,,10,,,81,127
11227,note_off,0,0,0,,0,,,72,127
11227,note_off,0,0,0,,2,,,62,127
11228,note_on,1,0,0,,2,,,62,127
11228,note_on,0,0,0,,11,,,70,127
11228,note_on,0,0,0,,2,,,74,127
11364,note_off,136,0,0,,2,,,74,127
11365,note_on,1,0,0,,7,,,79,127
11501,note_off,136,0,0,,7,,,79,127
11501,note_off,0,0,0,,11,,,70,127
11501,note_off,0,0,0,,2,,,62,127
11502,note_on,1,0,0,,2,,,62,127
11502,note_on,0,0,0,,10,,,69,127
11502,note_on,0,0,0,,0,,,72,127
11638,note_off,136,0,0,,0,,,72,127
11639,note_on,1,0,0,,6,,,78,127
11775,note_off,136,0,0,,6,,,78,127
11775,note_off,0,0,0,,10,,,69,127
11775,note_off,0,0,0,,2,,,62,127
11776,note_on,1,0,0,,11,,,70,127
11776,note_on,0,0,0,,2,,,62,127
11776,note_on,0,0,0,,7,,,79,127
11912,note_off,136,0,0,,7,,,79,127
11913,note_on,1,0,0,,2,,,74,127
12049,note_off,136,0,0,,2,,,74,127
12050,note_on,1,0,0,,7,,,79,127
12186,note_off,136,0,0,,7,,,79,127
12187,note_on,1,0,0,,11,,,82,127
12323,note_off,136,0,0,,11,,,82,127
12324,note_on,1,0,0,,2,,,86,127
12461,note_on,137,0,0,,2,,,74,127
12595,note_off,134,0,0,,2,,,86,127
12596,note_off,1,0,0,,2,,,74,127
12596,note_off,0,0,0,,2,,,62,127
12596,note_off,0,0,0,,11,,,70,127
12597,note_on,1,0,0,,2,,,62,127
12597,note_on,0,0,0,,0,,,72,127
12597,note_on,0,0,0,,3,,,75,127
12733,note_off,136,0,0,,3,,,75,127
12734,note_on,1,0,0,,10,,,81,127
12870,note_off,136,0,0,,10,,,81,127
12870,note_off,0,0,0,,0,,,72,127
12870,note_off,0,0,0,,2,,,62,127
12871,note_on,1,0,0,,11,,,70,127
12871,note_on,0,0,0,,2,,,62,127
12871,note_on,0,0,0,,2,,,74,127
13007,note_off,136,0,0,,2,,,74,127
13008,note_on,1,0,0,,7,,,79,127
13144,note_off,136,0,0,,7,,,79,127
13144,note_off,0,0,0,,2,,,62,127
13144,note_off,0,0,0,,11,,,70,127
13145,note_on,1,0,0,,2,,,62,127
13145,note_on,0,0,0,,10,,,69,127
13145,note_on,0,0,0,,0,,,72,127
13281,note_off,136,0,0,,0,,,72,127
13282,note_on,1,0,0,,6,,,78,127
13418,note_off,136,0,0,,6,,,78,127
13418,note_off,0,0,0,,10,,,69,127
13418,note_off,0,0,0,,2,,,62,127
13419,note_on,1,0,0,,2,,,62,127
13419,note_on,0,0,0,,11,,,70,127
13419,note_on,0,0,0,,7,,,79,127
13555,note_off,136,0,0,,7,,,79,127
13556,note_on,1,0,0,,2,,,74,127
13692,note_off,136,0,0,,2,,,74,127
13693,note_on,1,0,0,,7,,,79,127
13829,note_off,136,0,0,,7,,,79,127
13830,note_on,1,0,0,,11,,,82,127
13966,note_off,136,0,0,,11,,,82,127
13967,note_on,1,0,0,,2,,,86,127
14104,note_on,137,0,0,,2,,,74,127
14238,note_off,134,0,0,,2,,,86,127
14239,note_off,1,0,0,,2,,,74,127
14239,note_off,0,0,0,,11,,,70,127
14239,note_off,0,0,0,,2,,,62,127
14240,note_on,1,0,0,,2,,,62,127
14240,note_on,0,0,0,,0,,,72,127
14240,note_on,0,0,0,,3,,,75,127
14376,note_off,136,0,0,,3,,,75,127
14377,note_on,1,0,0,,10,,,81,127
14513,note_off,136,0,0,,10,,,81,127
14513,note_off,0,0,0,,0,,,72,127
14513,note_off,0,0,0,,2,,,62,127
14514,note_on,1,0,0,,11,,,70,127
14514,note_on,0,0,0,,2,,,62,127
14514,note_on,0,0,0,,2,,,74,127
14650,note_off,136,0,0,,2,,,74,127
14651,note_on,1,0,0,,7,,,79,127
14787,note_off,136,0,0,,7,,,79,127
14787,note_off,0,0,0,,2,,,62,127
14787,note_off,0,0,0,,11,,,70,127
14788,note_on,1,0,0,,2,,,62,127
14788,note_on,0,0,0,,10,,,69,127
14788,note_on,0,0,0,,0,,,72,127
14924,note_off,136,0,0,,0,,,72,127
14925,note_on,1,0,0,,6,,,78,127
15061,note_off,136,0,0,,6,,,78,127
15061,note_off,0,0,0,,10,,,69,127
15061,note_off,0,0,0,,2,,,62,127
15062,note_on,1,0,0,,11,,,70,127
15062,note_on,0,0,0,,2,,,62,127
15062,note_on,0,0,0,,7,,,79,127
15198,note_off,136,0,0,,7,,,79,127
15199,note_on,1,0,0,,2,,,74,127
15335,note_off,136,0,0,,2,,,74,127
15336,note_on,1,0,0,,7,,,79,127
15472,note_off,136,0,0,,7,,,79,127
15473,note_on,1,0,0,,11,,,82,127
15609,note_off,136,0,0,,11,,,82,127
15610,note_on,1,0,0,,2,,,86,127
15747,note_on,137,0,0,,2,,,74,127
15881,note_off,134,0,0,,2,,,86,127
15882,note_off,1,0,0,,2,,,74,127
15882,note_off,0,0,0,,2,,,62,127
15882,note_off,0,0,0,,11,,,70,127
15883,note_on,1,0,0,,4,,,64,127
15883,note_on,0,0,0,,1,,,61,127
15883,note_on,0,0,0,,4,,,76,127
16019,note_off,136,0,0,,4,,,76,127
16020,note_on,1,0,0,,7,,,79,127
16156,note_off,136,0,0,,7,,,79,127
16156,note_off,0,0,0,,1,,,61,127
16156,note_off,0,0,0,,4,,,64,127
16157,note_on,1,0,0,,5,,,65,127
16157,note_on,0,0,0,,2,,,62,127
16157,note_on,0,0,0,,10,,,69,127
16293,note_off,136,0,0,,10,,,69,127
16294,note_on,1,0,0,,5,,,77,127
16430,note_off,136,0,0,,5,,,77,127
16430,note_off,0,0,0,,2,,,62,127
16430,note_off,0,0,0,,5,,,65,127
16431,note_on,1,0,0,,4,,,64,127
16431,note_on,0,0,0,,7,,,67,127
16568,note_on,137,0,0,,4,,,76,127
16702,note_off,134,0,0,,7,,,67,127
16703,note_off,1,0,0,,4,,,76,127
16703,note_off,0,0,0,,4,,,64,127
16704,note_on,1,0,0,,10,,,57,127
16704,note_on,0,0,0,,5,,,65,127
16704,note_on,0,0,0,,2,,,62,127
16704,note_on,0,0,0,,2,,,74,127
16840,note_off,136,0,0,,2,,,74,127
16841,note_on,1,0,0,,10,,,69,127
16977,note_off,136,0,0,,10,,,69,127
16978,note_on,1,0,0,,2,,,74,127
17114,note_off,136,0,0,,2,,,74,127
17115,note_on,1,0,0,,5,,,77,127
17251,note_off,136,0,0,,5,,,77,127
17252,note_on,1,0,0,,10,,,81,127
17389,note_on,137,0,0,,10,,,69,127
17523,note_off,134,0,0,,10,,,81,127
17524,note_off,1,0,0,,10,,,69,127
17524,note_off,0,0,0,,2,,,62,127
17524,note_off,0,0,0,,5,,,65,127
17524,note_off,0,0,0,,10,,,57,127
17525,note_on,1,0,0,,1,,,61,127
17525,note_on,0,0,0,,4,,,64,127
17525,note_on,0,0,0,,4,,,76,127
17661,note_off,136,0,0,,4,,,76,127
17662,note_on,1,0,0,,7,,,79,127
17798,note_off,136,0,0,,7,,,79,127
17798,note_off,0,0,0,,4,,,64,127
17798,note_off,0,0,0,,1,,,61,127
17799,note_on,1,0,0,,2,,,62,127
17799,note_on,0,0,0,,5,,,65,127
17799,note_on,0,0,0,,10,,,69,127
17935,note_off,136,0,0,,10,,,69,127
17936,note_on,1,0,0,,5,,,77,127
18072,note_off,136,0,0,,5,,,77,127
18072,note_off,0,0,0,,5,,,65,127
18072,note_off,0,0,0,,2,,,62,127
18073,note_on,1,0,0,,4,,,64,127
18073,note_on,0,0,0,,7,,,67,127
18210,note_on,137,0,0,,4,,,76,127
18344,note_off,134,0,0,,7,,,67,127
18345,note_off,1,0,0,,4,,,76,127
18345,note_off,0,0,0,,4,,,64,127
18346,note_on,1,0,0,,10,,,57,127
18346,note_on,0,0,0,,5,,,65,127
18346,note_on,0,0,0,,2,,,62,127
18346,note_on,0,0,0,,2,,,74,127
18482,note_off,136,0,0,,2,,,74,127
18483,note_on,1,0,0,,10,,,69,127
18619,note_off,136,0,0,,10,,,69,127
18620,note_on,1,0,0,,2,,,74,127
18756,note_off,136,0,0,,2,,,74,127
18757,note_on,1,0,0,,5,,,77,127
18893,note_off,136,0,0,,5,,,77,127
18894,note_on,1,0,0,,10,,,81,127
19031,note_on,137,0,0,,10,,,69,127
19165,note_off,134,0,0,,10,,,81,127
19166,note_off,1,0,0,,10,,,69,127
19166,note_off,0,0,0,,2,,,62,127
19166,note_off,0,0,0,,5,,,65,127
19166,note_off,0,0,0,,10,,,57,127
19167,note_on,1,0,0,,4,,,64,127
19167,note_on,0,0,0,,1,,,61,127
19167,note_on,0,0,0,,4,,,76,127
19303,note_off,136,0,0,,4,,,76,127
19304,note_on,1,0,0,,7,,,79,127
19440,note_off,136,0,0,,7,,,79,127
19440,note_off,0,0,0,,1,,,61,127
19440,note_off,0,0,0,,4,,,64,127
19441,note_on,1,0,0,,2,,,62,127
19441,note_on,0,0,0,,5,,,65,127
19441,note_on,0,0,0,,10,,,69,127
19577,note_off,136,0,0,,10,,,69,127
19578,note_on,1,0,0,,5,,,77,127
19714,note_off,136,0,0,,5,,,77,127
19714,note_off,0,0,0,,5,,,65,127
19714,note_off,0,0,0,,2,,,62,127
19715,note_on,1,0,0,,4,,,64,127
19715,note_on,0,0,0,,7,,,67,127
19852,note_on,137,0,0,,4,,,76,127
19986,note_off,134,0,0,,7,,,67,127
19987,note_off,1,0,0,,4,,,76,127
19987,note_off,0,0,0,,4,,,64,127
19988,note_on,1,0,0,,10,,,57,127
19988,note_on,0,0,0,,5,,,65,127
19988,note_on,0,0,0,,10,,,69,127
19988,note_on,0,0,0,,2,,,74,127
20124,note_off,136,0,0,,2,,,74,127
20125,note_on,1,0,0,,5,,,77,127
20261,note_off,136,0,0,,10,,,57,127
20262,note_on,1,0,0,,11,,,58,127
20398,note_off,136,0,0,,5,,,77,127
20399,note_on,1,0,0,,4,,,76,127
20530,note_off,131,0,0,,10,,,69,127
20530,note_off,0,0,0,,5,,,65,127
20534,note_off,4,0,0,,11,,,58,127
20535,note_on,1,0,0,,7,,,55,127
20535,note_on,0,0,0,,7,,,67,127
20671,note_off,136,0,0,,4,,,76,127
20672,note_on,1,0,0,,2,,,74,127
20808,note_off,136,0,0,,2,,,74,127
20808,note_off,0,0,0,,7,,,67,127
20808,note_off,0,0,0,,7,,,55,127
20809,note_on,1,0,0,,10,,,57,127
20809,note_on,0,0,0,,2,,,74,127
20876,note_off,67,0,0,,2,,,74,127
20877,note_on,1,0,0,,1,,,73,127
20944,note_off,67,0,0,,1,,,73,127
20944,note_off,0,0,0,,10,,,57,127
20945,note_on,1,0,0,,1,,,61,127
20945,note_on,0,0,0,,2,,,74,127
21012,note_off,67,0,0,,2,,,74,127
21013,note_on,1,0,0,,1,,,73,127
21080,note_off,67,0,0,,1,,,61,127
21081,note_on,1,0,0,,4,,,64,127
21217,note_off,136,0,0,,4,,,64,127
21218,note_on,1,0,0,,10,,,69,127
21354,note_off,136,0,0,,10,,,69,127
21355,note_on,1,0,0,,7,,,67,127
21412,note_off,57,0,0,,1,,,73,127
21491,note_off,79,0,0,,7,,,67,127
21492,note_on,1,0,0,,10,,,57,127
21628,note_off,136,0,0,,10,,,57,127
21629,note_on,1,0,0,,5,,,65,127
21629,note_on,0,0,0,,10,,,81,127
21765,note_off,136,0,0,,5,,,65,127
21766,note_on,1,0,0,,10,,,57,127
21829,note_off,63,0,0,,10,,,81,127
21902,note_off,73,0,0,,10,,,57,127
21903,note_on,1,0,0,,4,,,64,127
21903,note_on,0,0,0,,7,,,79,127
22039,note_off,136,0,0,,4,,,64,127
22040,note_on,1,0,0,,10,,,57,127
22103,note_off,63,0,0,,7,,,79,127
22176,note_off,73,0,0,,10,,,57,127
22177,note_on,1,0,0,,2,,,62,127
22177,note_on,0,0,0,,7,,,79,127
22244,note_off,67,0,0,,7,,,79,127
22245,note_on,1,0,0,,5,,,77,127
22312,note_off,67,0,0,,5,,,77,127
22312,note_off,0,0,0,,2,,,62,127
22313,note_on,1,0,0,,10,,,57,127
22313,note_on,0,0,0,,4,,,76,127
22380,note_off,67,0,0,,4,,,76,127
22381,note_on,1,0,0,,5,,,77,127
22448,note_off,67,0,0,,5,,,77,127
22448,note_off,0,0,0,,10,,,57,127
22449,note_on,1,0,0,,10,,,45,127
22449,note_on,0,0,0,,5,,,77,127
22585,note_off,136,0,0,,10,,,45,127
22586,note_on,1,0,0,,1,,,49,127
22722,note_off,136,0,0,,1,,,49,127
22723,note_on,1,0,0,,4,,,52,127
22859,note_off,136,0,0,,4,,,52,127
22860,note_on,1,0,0,,10,,,57,127
22996,note_off,136,0,0,,10,,,57,127
22996,note_off,0,0,0,,5,,,77,127
22997,note_on,1,0,0,,7,,,55,127
22997,note_on,0,0,0,,4,,,76,127
23133,note_off,136,0,0,,7,,,55,127
23134,note_on,1,0,0,,10,,,45,127
23270,note_off,136,0,0,,10,,,45,127
23270,note_off,0,0,0,,4,,,76,127
23271,note_on,1,0,0,,5,,,53,127
23271,note_on,0,0,0,,10,,,69,127
23407,note_off,136,0,0,,5,,,53,127
23408,note_on,1,0,0,,10,,,45,127
23471,note_off,63,0,0,,10,,,69,127
23544,note_off,73,0,0,,10,,,45,127
23545,note_on,1,0,0,,4,,,52,127
23545,note_on,0,0,0,,7,,,67,127
23681,note_off,136,0,0,,4,,,52,127
23682,note_on,1,0,0,,10,,,45,127
23745,note_off,63,0,0,,7,,,67,127
23818,note_off,73,0,0,,10,,,45,127
23819,note_on,1,0,0,,2,,,50,127
23819,note_on,0,0,0,,7,,,67,127
23886,note_off,67,0,0,,7,,,67,127
23887,note_on,1,0,0,,5,,,65,127
23954,note_off,67,0,0,,5,,,65,127
23954,note_off,0,0,0,,2,,,50,127
23955,note_on,1,0,0,,10,,,45,127
23955,note_on,0,0,0,,4,,,64,127
24022,note_off,67,0,0,,4,,,64,127
24023,note_on,1,0,0,,5,,,65,127
24090,note_off,67,0,0,,5,,,65,127
24090,note_off,0,0,0,,10,,,45,127
24091,note_on,1,0,0,,10,,,57,127
24091,note_on,0,0,0,,4,,,64,127
24227,note_off,136,0,0,,10,,,57,127
24228,note_on,1,0,0,,1,,,61,127
24362,note_off,134,0,0,,4,,,64,127
24363,note_off,1,0,0,,1,,,61,127
24364,note_on,1,0,0,,4,,,64,127
24501,note_on,137,0,0,,10,,,69,127
24635,note_off,134,0,0,,4,,,64,127
24636,note_off,1,0,0,,10,,,69,127
24637,note_on,1,0,0,,7,,,67,127
24774,note_on,137,0,0,,10,,,57,127
24808,note_off,34,0,0,,7,,,67,127
24909,note_off,101,0,0,,10,,,57,127
24910,note_on,1,0,0,,5,,,65,127
24910,note_on,0,0,0,,10,,,81,127
25046,note_off,136,0,0,,5,,,65,127
25047,note_on,1,0,0,,10,,,57,127
25138,note_off,91,0,0,,10,,,81,127
25182,note_off,44,0,0,,10,,,57,127
25183,note_on,1,0,0,,4,,,64,127
25183,note_on,0,0,0,,7,,,79,127
25319,note_off,136,0,0,,4,,,64,127
25320,note_on,1,0,0,,10,,,57,127
25411,note_off,91,0,0,,7,,,79,127
25455,note_off,44,0,0,,10,,,57,127
25456,note_on,1,0,0,,2,,,62,127
25456,note_on,0,0,0,,7,,,79,127
25523,note_off,67,0,0,,7,,,79,127
25524,note_on,1,0,0,,5,,,77,127
25591,note_off,67,0,0,,5,,,77,127
25591,note_off,0,0,0,,2,,,62,127
25592,note_on,1,0,0,,10,,,57,127
25592,note_on,0,0,0,,4,,,76,127
25659,note_off,67,0,0,,4,,,76,127
25660,note_on,1,0,0,,5,,,77,127
25727,note_off,67,0,0,,5,,,77,127
25727,note_off,0,0,0,,10,,,57,127
25728,note_on,1,0,0,,4,,,64,127
25728,note_on,0,0,0,,1,,,61,127
25728,note_on,0,0,0,,4,,,76,127
25864,note_off,136,0,0,,4,,,76,127
25865,note_on,1,0,0,,7,,,79,127
26001,note_off,136,0,0,,7,,,79,127
26001,note_off,0,0,0,,1,,,61,127
26001,note_off,0,0,0,,4,,,64,127
26002,note_on,1,0,0,,1,,,61,127
26002,note_on,0,0,0,,4,,,64,127
26002,note_on,0,0,0,,5,,,77,127
26138,note_off,136,0,0,,5,,,77,127
26139,note_on,1,0,0,,4,,,76,127
26275,note_off,136,0,0,,4,,,76,127
26275,note_off,0,0,0,,4,,,64,127
26275,note_off,0,0,0,,1,,,61,127
26276,note_on,1,0,0,,5,,,65,127
26276,note_on,0,0,0,,2,,,62,127
26276,note_on,0,0,0,,2,,,74,127
26412,note_off,136,0,0,,2,,,74,127
26413,note_on,1,0,0,,11,,,82,127
26549,note_off,136,0,0,,11,,,82,127
26549,note_off,0,0,0,,2,,,62,127
26549,note_off,0,0,0,,5,,,65,127
26550,note_on,1,0,0,,7,,,55,127
26550,note_on,0,0,0,,7,,,67,127
26550,note_on,0,0,0,,10,,,81,127
26686,note_off,136,0,0,,10,,,81,127
26687,note_on,1,0,0,,7,,,79,127
26823,note_off,136,0,0,,7,,,79,127
26823,note_off,0,0,0,,7,,,67,127
26823,note_off,0,0,0,,7,,,55,127
26824,note_on,1,0,0,,5,,,65,127
26824,note_on,0,0,0,,10,,,57,127
26824,note_on,0,0,0,,5,,,77,127
26960,note_off,136,0,0,,5,,,77,127
26961,note_on,1,0,0,,4,,,76,127
27097,note_off,136,0,0,,4,,,76,127
27097,note_off,0,0,0,,10,,,57,127
27097,note_off,0,0,0,,5,,,65,127
27098,note_on,1,0,0,,10,,,57,127
27098,note_on,0,0,0,,4,,,64,127
27098,note_on,0,0,0,,2,,,74,127
27234,note_off,136,0,0,,2,,,74,127
27235,note_on,1,0,0,,1,,,73,127
27371,note_off,136,0,0,,1,,,73,127
27371,note_off,0,0,0,,4,,,64,127
27371,note_off,0,0,0,,10,,,57,127
27372,note_on,1,0,0,,2,,,62,127
27372,note_on,0,0,0,,2,,,74,127
27493,note_off,121,0,0,,2,,,74,127
27493,note_off,0,0,0,,2,,,62,127
27509,note_on,16,0,0,,4,,,64,127
27509,note_on,0,0,0,,4,,,76,127
27630,note_off,121,0,0,,4,,,76,127
27630,note_off,0,0,0,,4,,,64,127
27646,note_on,16,0,0,,5,,,65,127
27646,note_on,0,0,0,,5,,,77,127
27767,note_off,121,0,0,,5,,,77,127
27767,note_off,0,0,0,,5,,,65,127
27783,note_on,16,0,0,,6,,,66,127
27783,note_on,0,0,0,,6,,,78,127
27904,note_off,121,0,0,,6,,,78,127
27904,note_off,0,0,0,,6,,,66,127
27920,note_on,16,0,0,,7,,,67,127
27920,note_on,0,0,0,,7,,,79,127
28041,note_off,121,0,0,,7,,,79,127
28041,note_off,0,0,0,,7,,,67,127
28057,note_on,16,0,0,,8,,,68,127
28057,note_on,0,0,0,,8,,,80,127
28178,note_off,121,0,0,,8,,,80,127
28178,note_off,0,0,0,,8,,,68,127
28194,note_on,16,0,0,,10,,,57,127
28194,note_on,0,0,0,,8,,,80,127
28331,note_on,137,0,0,,1,,,61,127
28340,note_off,9,0,0,,10,,,57,127
28469,note_on,129,0,0,,4,,,64,127
28478,note_off,9,0,0,,1,,,61,127
28607,note_on,129,0,0,,10,,,69,127
28616,note_off,9,0,0,,4,,,64,127
28743,note_off,127,0,0,,8,,,80,127
28744,note_on,1,0,0,,7,,,67,127
28744,note_on,0,0,0,,10,,,81,127
28753,note_off,9,0,0,,10,,,69,127
28882,note_on,129,0,0,,10,,,57,127
28891,note_off,9,0,0,,7,,,67,127
29018,note_off,127,0,0,,10,,,57,127
29018,note_off,0,0,0,,10,,,81,127
29019,note_on,1,0,0,,5,,,65,127
29019,note_on,0,0,0,,10,,,81,127
29155,note_off,136,0,0,,5,,,65,127
29156,note_on,1,0,0,,10,,,57,127
29219,note_off,63,0,0,,10,,,81,127
29292,note_off,73,0,0,,10,,,57,127
29293,note_on,1,0,0,,4,,,64,127
29293,note_on,0,0,0,,7,,,79,127
29429,note_off,136,0,0,,4,,,64,127
29430,note_on,1,0,0,,10,,,57,127
29493,note_off,63,0,0,,7,,,79,127
29566,note_off,73,0,0,,10,,,57,127
29567,note_on,1,0,0,,2,,,62,127
29567,note_on,0,0,0,,7,,,79,127
29634,note_off,67,0,0,,7,,,79,127
29635,note_on,1,0,0,,5,,,77,127
29702,note_off,67,0,0,,5,,,77,127
29702,note_off,0,0,0,,2,,,62,127
29703,note_on,1,0,0,,10,,,57,127
29703,note_on,0,0,0,,4,,,76,127
29770,note_off,67,0,0,,4,,,76,127
29771,note_on,1,0,0,,5,,,77,127
29838,note_off,67,0,0,,5,,,77,127
29838,note_off,0,0,0,,10,,,57,127
29839,note_on,1,0,0,,10,,,45,127
29839,note_on,0,0,0,,5,,,77,127
29975,note_off,136,0,0,,10,,,45,127
29976,note_on,1,0,0,,1,,,49,127
30112,note_off,136,0,0,,1,,,49,127
30112,note_off,0,0,0,,5,,,77,127
30113,note_on,1,0,0,,4,,,52,127
30113,note_on,0,0,0,,4,,,76,127
30249,note_off,136,0,0,,4,,,52,127
30250,note_on,1,0,0,,10,,,57,127
30386,note_off,136,0,0,,10,,,57,127
30387,note_on,1,0,0,,7,,,55,127
30523,note_off,136,0,0,,7,,,55,127
30524,note_on,1,0,0,,10,,,45,127
30660,note_off,136,0,0,,10,,,45,127
30660,note_off,0,0,0,,4,,,76,127
30661,note_on,1,0,0,,5,,,53,127
30661,note_on,0,0,0,,10,,,69,127
30797,note_off,136,0,0,,5,,,53,127
30798,note_on,1,0,0,,10,,,45,127
30861,note_off,63,0,0,,10,,,69,127
30934,note_off,73,0,0,,10,,,45,127
30935,note_on,1,0,0,,4,,,52,127
30935,note_on,0,0,0,,7,,,67,127
31071,note_off,136,0,0,,4,,,52,127
31072,note_on,1,0,0,,10,,,45,127
31135,note_off,63,0,0,,7,,,67,127
31208,note_off,73,0,0,,10,,,45,127
31209,note_on,1,0,0,,2,,,50,127
31209,note_on,0,0,0,,7,,,67,127
31276,note_off,67,0,0,,7,,,67,127
31277,note_on,1,0,0,,5,,,65,127
31344,note_off,67,0,0,,5,,,65,127
31344,note_off,0,0,0,,2,,,50,127
31345,note_on,1,0,0,,10,,,45,127
31345,note_on,0,0,0,,4,,,64,127
31412,note_off,67,0,0,,4,,,64,127
31413,note_on,1,0,0,,5,,,65,127
31480,note_off,67,0,0,,5,,,65,127
31480,note_off,0,0,0,,10,,,45,127
31481,note_on,1,0,0,,10,,,57,127
31481,note_on,0,0,0,,4,,,64,127
31617,note_off,136,0,0,,10,,,57,127
31618,note_on,1,0,0,,1,,,61,127
31752,note_off,134,0,0,,4,,,64,127
31753,note_off,1,0,0,,1,,,61,127
31754,note_on,1,0,0,,4,,,64,127
31891,note_on,137,0,0,,10,,,69,127
32025,note_off,134,0,0,,4,,,64,127
32026,note_off,1,0,0,,10,,,69,127
32027,note_on,1,0,0,,7,,,67,127
32164,note_on,137,0,0,,10,,,57,127
32198,note_off,34,0,0,,7,,,67,127
32299,note_off,101,0,0,,10,,,57,127
32300,note_on,1,0,0,,5,,,65,127
32300,note_on,0,0,0,,10,,,81,127
32436,note_off,136,0,0,,5,,,65,127
32437,note_on,1,0,0,,10,,,57,127
32528,note_off,91,0,0,,10,,,81,127
32572,note_off,44,0,0,,10,,,57,127
32573,note_on,1,0,0,,4,,,64,127
32573,note_on,0,0,0,,7,,,79,127
32709,note_off,136,0,0,,4,,,64,127
32710,note_on,1,0,0,,10,,,57,127
32801,note_off,91,0,0,,7,,,79,127
32845,note_off,44,0,0,,10,,,57,127
32846,note_on,1,0,0,,2,,,62,127
32846,note_on,0,0,0,,7,,,79,127
32913,note_off,67,0,0,,7,,,79,127
32914,note_on,1,0,0,,5,,,77,127
32981,note_off,67,0,0,,5,,,77,127
32981,note_off,0,0,0,,2,,,62,127
32982,note_on,1,0,0,,10,,,57,127
32982,note_on,0,0,0,,4,,,76,127
33049,note_off,67,0,0,,4,,,76,127
33050,note_on,1,0,0,,5,,,77,127
33117,note_off,67,0,0,,5,,,77,127
33117,note_off,0,0,0,,10,,,57,127
33118,note_on,1,0,0,,1,,,61,127
33118,note_on,0,0,0,,10,,,57,127
33118,note_on,0,0,0,,4,,,76,127
33254,note_off,136,0,0,,4,,,76,127
33255,note_on,1,0,0,,7,,,79,127
33391,note_off,136,0,0,,7,,,79,127
33392,note_on,1,0,0,,5,,,77,127
33528,note_off,136,0,0,,5,,,77,127
33529,note_on,1,0,0,,4,,,76,127
33665,note_off,136,0,0,,4,,,76,127
33665,note_off,0,0,0,,10,,,57,127
33665,note_off,0,0,0,,1,,,61,127
33666,note_on,1,0,0,,2,,,62,127
33666,note_on,0,0,0,,11,,,58,127
33666,note_on,0,0,0,,2,,,74,127
33802,note_off,136,0,0,,2,,,74,127
33803,note_on,1,0,0,,11,,,82,127
33939,note_off,136,0,0,,11,,,82,127
33939,note_off,0,0,0,,11,,,58,127
33939,note_off,0,0,0,,2,,,62,127
33940,note_on,1,0,0,,7,,,55,127
33940,note_on,0,0,0,,7,,,67,127
33940,note_on,0,0,0,,10,,,81,127
34076,note_off,136,0,0,,10,,,81,127
34077,note_on,1,0,0,,7,,,79,127
34213,note_off,136,0,0,,7,,,79,127
34213,note_off,0,0,0,,7,,,67,127
34213,note_off,0,0,0,,7,,,55,127
34214,note_on,1,0,0,,5,,,65,127
34214,note_on,0,0,0,,10,,,57,127
34214,note_on,0,0,0,,5,,,77,127
34350,note_off,136,0,0,,5,,,77,127
34351,note_on,1,0,0,,4,,,76,127
34487,note_off,136,0,0,,4,,,76,127
34487,note_off,0,0,0,,10,,,57,127
34487,note_off,0,0,0,,5,,,65,127
34488,note_on,1,0,0,,10,,,57,127
34488,note_on,0,0,0,,4,,,64,127
34488,note_on,0,0,0,,2,,,74,127
34624,note_off,136,0,0,,2,,,74,127
34625,note_on,1,0,0,,1,,,73,127
34761,note_off,136,0,0,,1,,,73,127
34761,note_off,0,0,0,,4,,,64,127
34761,note_off,0,0,0,,10,,,57,127
34762,note_on,1,0,0,,2,,,50,127
34762,note_on,0,0,0,,2,,,74,127
34898,note_off,136,0,0,,2,,,74,127
34899,note_on,1,0,0,,7,,,67,127
35035,note_off,136,0,0,,7,,,67,127
35035,note_off,0,0,0,,2,,,50,127
35036,note_on,1,0,0,,4,,,52,127
35036,note_on,0,0,0,,5,,,65,127
35172,note_off,136,0,0,,5,,,65,127
35173,note_on,1,0,0,,4,,,64,127
35309,note_off,136,0,0,,4,,,64,127
35309,note_off,0,0,0,,4,,,52,127
35310,note_on,1,0,0,,5,,,53,127
35310,note_on,0,0,0,,2,,,62,127
35446,note_off,136,0,0,,2,,,62,127
35447,note_on,1,0,0,,11,,,70,127
35583,note_off,136,0,0,,11,,,70,127
35583,note_off,0,0,0,,5,,,53,127
35584,note_on,1,0,0,,7,,,55,127
35584,note_on,0,0,0,,10,,,69,127
35720,note_off,136,0,0,,10,,,69,127
35721,note_on,1,0,0,,7,,,67,127
35857,note_off,136,0,0,,7,,,67,127
35857,note_off,0,0,0,,7,,,55,127
35858,note_on,1,0,0,,10,,,57,127
35858,note_on,0,0,0,,5,,,65,127
35994,note_off,136,0,0,,5,,,65,127
35995,note_on,1,0,0,,4,,,64,127
36131,note_off,136,0,0,,4,,,64,127
36132,note_on,1,0,0,,10,,,45,127
36132,note_on,0,0,0,,2,,,62,127
36268,note_off,136,0,0,,2,,,62,127
36269,note_on,1,0,0,,1,,,61,127
36400,note_off,131,0,0,,10,,,57,127
36404,note_off,4,0,0,,1,,,61,127
36404,note_off,0,0,0,,10,,,45,127
36405,note_on,1,0,0,,2,,,38,127
36405,note_on,0,0,0,,2,,,50,127
36405,note_on,0,0,0,,1,,,61,127
36678,note_off,273,0,0,,1,,,61,127
36679,note_on,1,0,0,,2,,,62,127
37090,note_off,411,0,0,,2,,,62,127
37226,note_off,136,0,0,,2,,,50,127
37226,note_off,0,0,0,,2,,,38,127
37227,note_on,1,0,0,,2,,,50,127
37227,note_on,0,0,0,,2,,,62,127
37363,note_off,136,0,0,,2,,,62,127
37364,note_on,1,0,0,,5,,,65,127
37500,note_off,136,0,0,,5,,,65,127
37501,note_on,1,0,0,,10,,,69,127
37637,note_off,136,0,0,,10,,,69,127
37638,note_on,1,0,0,,2,,,74,127
37774,note_off,136,0,0,,2,,,74,127
37775,note_on,1,0,0,,5,,,77,127
37911,note_off,136,0,0,,5,,,77,127
37912,note_on,1,0,0,,2,,,74,127
38048,note_off,136,0,0,,2,,,74,127
38048,note_off,0,0,0,,2,,,50,127
38049,note_on,1,0,0,,7,,,55,127
38049,note_on,0,0,0,,0,,,72,127
38185,note_off,136,0,0,,7,,,55,127
38186,note_on,1,0,0,,12,,,59,127
38322,note_off,136,0,0,,12,,,59,127
38322,note_off,0,0,0,,0,,,72,127
38323,note_on,1,0,0,,2,,,62,127
38323,note_on,0,0,0,,12,,,71,127
38459,note_off,136,0,0,,2,,,62,127
38460,note_on,1,0,0,,7,,,67,127
38596,note_off,136,0,0,,7,,,67,127
38597,note_on,1,0,0,,8,,,68,127
38733,note_off,136,0,0,,8,,,68,127
38734,note_on,1,0,0,,7,,,67,127
38865,note_off,131,0,0,,12,,,71,127
38869,note_off,4,0,0,,7,,,67,127
38870,note_on,1,0,0,,5,,,65,127
39007,note_on,137,0,0,,2,,,74,127
39143,note_off,136,0,0,,2,,,74,127
39143,note_off,0,0,0,,5,,,65,127
39144,note_on,1,0,0,,7,,,67,127
39144,note_on,0,0,0,,3,,,63,127
39144,note_on,0,0,0,,0,,,72,127
39280,note_off,136,0,0,,0,,,72,127
39281,note_on,1,0,0,,12,,,71,127
39417,note_off,136,0,0,,12,,,71,127
39417,note_off,0,0,0,,3,,,63,127
39417,note_off,0,0,0,,7,,,67,127
39418,note_on,1,0,0,,5,,,65,127
39418,note_on,0,0,0,,2,,,62,127
39418,note_on,0,0,0,,0,,,72,127
39554,note_off,136,0,0,,0,,,72,127
39555,note_on,1,0,0,,2,,,74,127
39691,note_off,136,0,0,,2,,,74,127
39691,note_off,0,0,0,,2,,,62,127
39691,note_off,0,0,0,,5,,,65,127
39692,note_on,1,0,0,,0,,,60,127
39692,note_on,0,0,0,,7,,,67,127
39692,note_on,0,0,0,,3,,,75,127
39828,note_off,136,0,0,,3,,,75,127
39829,note_on,1,0,0,,2,,,74,127
39965,note_off,136,0,0,,2,,,74,127
39965,note_off,0,0,0,,7,,,67,127
39965,note_off,0,0,0,,0,,,60,127
39966,note_on,1,0,0,,7,,,55,127
39966,note_on,0,0,0,,7,,,67,127
39966,note_on,0,0,0,,7,,,79,127
40102,note_off,136,0,0,,7,,,79,127
40103,note_on,1,0,0,,5,,,77,127
40239,note_off,136,0,0,,5,,,77,127
40239,note_off,0,0,0,,7,,,67,127
40239,note_off,0,0,0,,7,,,55,127
40240,note_on,1,0,0,,7,,,55,127
40240,note_on,0,0,0,,7,,,67,127
40240,note_on,0,0,0,,3,,,75,127
40376,note_off,136,0,0,,3,,,75,127
40377,note_on,1,0,0,,2,,,74,127
40513,note_off,136,0,0,,2,,,74,127
40513,note_off,0,0,0,,7,,,67,127
40513,note_off,0,0,0,,7,,,55,127
40514,note_on,1,0,0,,8,,,56,127
40514,note_on,0,0,0,,5,,,65,127
40514,note_on,0,0,0,,0,,,72,127
40650,note_off,136,0,0,,0,,,72,127
40651,note_on,1,0,0,,12,,,71,127
40787,note_off,136,0,0,,12,,,71,127
40787,note_off,0,0,0,,5,,,65,127
40787,note_off,0,0,0,,8,,,56,127
40788,note_on,1,0,0,,7,,,55,127
40788,note_on,0,0,0,,7,,,67,127
40788,note_on,0,0,0,,7,,,79,127
40924,note_off,136,0,0,,7,,,79,127
40925,note_on,1,0,0,,5,,,77,127
41061,note_off,136,0,0,,5,,,77,127
41061,note_off,0,0,0,,7,,,67,127
41061,note_off,0,0,0,,7,,,55,127
41062,note_on,1,0,0,,7,,,55,127
41062,note_on,0,0,0,,7,,,67,127
41062,note_on,0,0,0,,3,,,75,127
41198,note_off,136,0,0,,3,,,75,127
41199,note_on,1,0,0,,2,,,74,127
41335,note_off,136,0,0,,2,,,74,127
41335,note_off,0,0,0,,7,,,67,127
41335,note_off,0,0,0,,7,,,55,127
41336,note_on,1,0,0,,8,,,56,127
41336,note_on,0,0,0,,5,,,65,127
41336,note_on,0,0,0,,0,,,72,127
41472,note_off,136,0,0,,0,,,72,127
41473,note_on,1,0,0,,12,,,71,127
41609,note_off,136,0,0,,12,,,71,127
41609,note_off,0,0,0,,5,,,65,127
41609,note_off,0,0,0,,8,,,56,127
41610,note_on,1,0,0,,7,,,55,127
41610,note_on,0,0,0,,7,,,67,127
41610,note_on,0,0,0,,7,,,79,127
41746,note_off,136,0,0,,7,,,79,127
41747,note_on,1,0,0,,5,,,77,127
41883,note_off,136,0,0,,5,,,77,127
41883,note_off,0,0,0,,7,,,67,127
41883,note_off,0,0,0,,7,,,55,127
41884,note_on,1,0,0,,7,,,55,127
41884,note_on,0,0,0,,7,,,67,127
41884,note_on,0,0,0,,3,,,75,127
42020,note_off,136,0,0,,3,,,75,127
42021,note_on,1,0,0,,2,,,74,127
42157,note_off,136,0,0,,2,,,74,127
42157,note_off,0,0,0,,7,,,67,127
42157,note_off,0,0,0,,7,,,55,127
42158,note_on,1,0,0,,0,,,60,127
42158,note_on,0,0,0,,7,,,67,127
42158,note_on,0,0,0,,3,,,63,127
42158,note_on,0,0,0,,3,,,75,127
42249,note_on,91,0,0,,7,,,79,127
42339,note_off,90,0,0,,7,,,79,127
42340,note_on,1,0,0,,6,,,78,127
42430,note_off,90,0,0,,6,,,78,127
42430,note_off,0,0,0,,3,,,63,127
42430,note_off,0,0,0,,7,,,67,127
42430,note_off,0,0,0,,0,,,60,127
42431,note_on,1,0,0,,7,,,67,127
42431,note_on,0,0,0,,3,,,63,127
42431,note_on,0,0,0,,0,,,60,127
42431,note_on,0,0,0,,6,,,78,127
42704,note_off,273,0,0,,0,,,60,127
42704,note_off,0,0,0,,3,,,63,127
42704,note_off,0,0,0,,7,,,67,127
42705,note_on,1,0,0,,3,,,63,127
42705,note_on,0,0,0,,0,,,60,127
42705,note_on,0,0,0,,7,,,67,127
42971,note_off,266,0,0,,3,,,75,127
42978,note_off,7,0,0,,7,,,67,127
42978,note_off,0,0,0,,0,,,60,127
42978,note_off,0,0,0,,3,,,63,127
42978,note_off,0,0,0,,6,,,78,127
42979,note_on,1,0,0,,2,,,62,127
42979,note_on,0,0,0,,11,,,58,127
42979,note_on,0,0,0,,7,,,67,127
42979,note_on,0,0,0,,2,,,74,127
43070,note_on,91,0,0,,7,,,79,127
43160,note_off,90,0,0,,7,,,79,127
43161,note_on,1,0,0,,6,,,78,127
43251,note_off,90,0,0,,6,,,78,127
43251,note_off,0,0,0,,7,,,67,127
43251,note_off,0,0,0,,11,,,58,127
43251,note_off,0,0,0,,2,,,62,127
43252,note_on,1,0,0,,11,,,58,127
43252,note_on,0,0,0,,7,,,67,127
43252,note_on,0,0,0,,2,,,62,127
43252,note_on,0,0,0,,6,,,78,127
43525,note_off,273,0,0,,2,,,62,127
43525,note_off,0,0,0,,7,,,67,127
43525,note_off,0,0,0,,11,,,58,127
43526,note_on,1,0,0,,11,,,58,127
43526,note_on,0,0,0,,7,,,67,127
43526,note_on,0,0,0,,2,,,62,127
43792,note_off,266,0,0,,2,,,74,127
43799,note_off,7,0,0,,2,,,62,127
43799,note_off,0,0,0,,7,,,67,127
43799,note_off,0,0,0,,11,,,58,127
43799,note_off,0,0,0,,6,,,78,127
43800,note_on,1,0,0,,10,,,57,127
43800,note_on,0,0,0,,0,,,60,127
43800,note_on,0,0,0,,6,,,66,127
43800,note_on,0,0,0,,2,,,62,127
43800,note_on,0,0,0,,0,,,72,127
43891,note_on,91,0,0,,7,,,79,127
43981,note_off,90,0,0,,7,,,79,127
43982,note_on,1,0,0,,6,,,78,127
44072,note_off,90,0,0,,6,,,78,127
44072,note_off,0,0,0,,2,,,62,127
44072,note_off,0,0,0,,6,,,66,127
44072,note_off,0,0,0,,0,,,60,127
44072,note_off,0,0,0,,10,,,57,127
44073,note_on,1,0,0,,2,,,62,127
44073,note_on,0,0,0,,6,,,66,127
44073,note_on,0,0,0,,0,,,60,127
44073,note_on,0,0,0,,10,,,57,127
44073,note_on,0,0,0,,6,,,78,127
44346,note_off,273,0,0,,10,,,57,127
44346,note_off,0,0,0,,0,,,60,127
44346,note_off,0,0,0,,6,,,66,127
44346,note_off,0,0,0,,2,,,62,127
44347,note_on,1,0,0,,10,,,57,127
44347,note_on,0,0,0,,6,,,66,127
44347,note_on,0,0,0,,2,,,62,127
44347,note_on,0,0,0,,0,,,60,127
44613,note_off,266,0,0,,0,,,72,127
44620,note_off,7,0,0,,0,,,60,127
44620,note_off,0,0,0,,2,,,62,127
44620,note_off,0,0,0,,6,,,66,127
44620,note_off,0,0,0,,10,,,57,127
44620,note_off,0,0,0,,6,,,78,127
44621,note_on,1,0,0,,7,,,55,127
44621,note_on,0,0,0,,7,,,67,127
44621,note_on,0,0,0,,11,,,70,127
44711,note_off,90,0,0,,11,,,70,127
44712,note_on,1,0,0,,7,,,79,127
44802,note_off,90,0,0,,7,,,79,127
44803,note_on,1,0,0,,6,,,78,127
44893,note_off,90,0,0,,6,,,78,127
44893,note_off,0,0,0,,7,,,67,127
44893,note_off,0,0,0,,7,,,55,127
44894,note_on,1,0,0,,7,,,55,127
44894,note_on,0,0,0,,7,,,67,127
44894,note_on,0,0,0,,6,,,78,127
45167,note_off,273,0,0,,6,,,78,127
45167,note_off,0,0,0,,7,,,67,127
45167,note_off,0,0,0,,7,,,55,127
45168,note_on,1,0,0,,7,,,67,127
45168,note_on,0,0,0,,7,,,55,127
45168,note_on,0,0,0,,7,,,79,127
45441,note_off,273,0,0,,7,,,55,127
45441,note_off,0,0,0,,7,,,67,127
45442,note_on,1,0,0,,0,,,48,127
45578,note_off,136,0,0,,7,,,79,127
45579,note_on,1,0,0,,3,,,75,127
45715,note_off,136,0,0,,3,,,75,127
45716,note_on,1,0,0,,0,,,72,127
45852,note_off,136,0,0,,0,,,72,127
45853,note_on,1,0,0,,10,,,69,127
45989,note_off,136,0,0,,10,,,69,127
45990,note_on,1,0,0,,6,,,66,127
46126,note_off,136,0,0,,6,,,66,127
46127,note_on,1,0,0,,3,,,63,127
46263,note_off,136,0,0,,3,,,63,127
46263,note_off,0,0,0,,0,,,48,127
46264,note_on,1,0,0,,2,,,50,127
46264,note_on,0,0,0,,3,,,63,127
46331,note_off,67,0,0,,3,,,63,127
46332,note_on,1,0,0,,2,,,62,127
46399,note_off,67,0,0,,2,,,62,127
46399,note_off,0,0,0,,2,,,50,127
46400,note_on,1,0,0,,6,,,54,127
46400,note_on,0,0,0,,3,,,63,127
46467,note_off,67,0,0,,3,,,63,127
46468,note_on,1,0,0,,2,,,62,127
46535,note_off,67,0,0,,6,,,54,127
46536,note_on,1,0,0,,10,,,57,127
46667,note_off,131,0,0,,2,,,62,127
46671,note_off,4,0,0,,10,,,57,127
46672,note_on,1,0,0,,2,,,62,127
46808,note_off,136,0,0,,2,,,62,127
46809,note_on,1,0,0,,0,,,60,127
46945,note_off,136,0,0,,0,,,60,127
46946,note_on,1,0,0,,2,,,50,127
47082,note_off,136,0,0,,2,,,50,127
47083,note_on,1,0,0,,11,,,58,127
47083,note_on,0,0,0,,2,,,74,127
47219,note_off,136,0,0,,11,,,58,127
47220,note_on,1,0,0,,2,,,50,127
47283,note_off,63,0,0,,2,,,74,127
47356,note_off,73,0,0,,2,,,50,127
47357,note_on,1,0,0,,10,,,57,127
47357,note_on,0,0,0,,0,,,72,127
47493,note_off,136,0,0,,10,,,57,127
47494,note_on,1,0,0,,2,,,50,127
47557,note_off,63,0,0,,0,,,72,127
47630,note_off,73,0,0,,2,,,50,127
47631,note_on,1,0,0,,7,,,55,127
47631,note_on,0,0,0,,0,,,72,127
47698,note_off,67,0,0,,0,,,72,127
47699,note_on,1,0,0,,11,,,70,127
47766,note_off,67,0,0,,11,,,70,127
47766,note_off,0,0,0,,7,,,55,127
47767,note_on,1,0,0,,2,,,50,127
47767,note_on,0,0,0,,10,,,69,127
47834,note_off,67,0,0,,10,,,69,127
47835,note_on,1,0,0,,11,,,70,127
47902,note_off,67,0,0,,11,,,70,127
47902,note_off,0,0,0,,2,,,50,127
47903,note_on,1,0,0,,2,,,38,127
47903,note_on,0,0,0,,11,,,70,127
48039,note_off,136,0,0,,2,,,38,127
48040,note_on,1,0,0,,6,,,42,127
48176,note_off,136,0,0,,6,,,42,127
48177,note_on,1,0,0,,10,,,45,127
48313,note_off,136,0,0,,10,,,45,127
48314,note_on,1,0,0,,2,,,50,127
48450,note_off,136,0,0,,2,,,50,127
48450,note_off,0,0,0,,11,,,70,127
48451,note_on,1,0,0,,0,,,48,127
48451,note_on,0,0,0,,10,,,69,127
48587,note_off,136,0,0,,0,,,48,127
48588,note_on,1,0,0,,2,,,38,127
48724,note_off,136,0,0,,2,,,38,127
48724,note_off,0,0,0,,10,,,69,127
48725,note_on,1,0,0,,11,,,46,127
48725,note_on,0,0,0,,7,,,67,127
48861,note_off,136,0,0,,11,,,46,127
48862,note_on,1,0,0,,2,,,38,127
48925,note_off,63,0,0,,7,,,67,127
48998,note_off,73,0,0,,2,,,38,127
48999,note_on,1,0,0,,10,,,45,127
48999,note_on,0,0,0,,6,,,66,127
49135,note_off,136,0,0,,10,,,45,127
49136,note_on,1,0,0,,2,,,38,127
49199,note_off,63,0,0,,6,,,66,127
49272,note_off,73,0,0,,2,,,38,127
49273,note_on,1,0,0,,7,,,43,127
49273,note_on,0,0,0,,10,,,69,127
49340,note_off,67,0,0,,10,,,69,127
49341,note_on,1,0,0,,7,,,67,127
49408,note_off,67,0,0,,7,,,67,127
49408,note_off,0,0,0,,7,,,43,127
49409,note_on,1,0,0,,2,,,38,127
49409,note_on,0,0,0,,6,,,66,127
49476,note_off,67,0,0,,6,,,66,127
49477,note_on,1,0,0,,7,,,67,127
49544,note_off,67,0,0,,7,,,67,127
49544,note_off,0,0,0,,2,,,38,127
49545,note_on,1,0,0,,2,,,50,127
49545,note_on,0,0,0,,7,,,67,127
49681,note_off,136,0,0,,2,,,50,127
49682,note_on,1,0,0,,6,,,54,127
49818,note_off,136,0,0,,6,,,54,127
49819,note_on,1,0,0,,10,,,57,127
49955,note_off,136,0,0,,10,,,57,127
49956,note_on,1,0,0,,2,,,62,127
50092,note_off,136,0,0,,2,,,62,127
50092,note_off,0,0,0,,7,,,67,127
50093,note_on,1,0,0,,0,,,60,127
50093,note_on,0,0,0,,10,,,69,127
50229,note_off,136,0,0,,0,,,60,127
50230,note_on,1,0,0,,2,,,50,127
50366,note_off,136,0,0,,2,,,50,127
50366,note_off,0,0,0,,10,,,69,127
50367,note_on,1,0,0,,11,,,58,127
50367,note_on,0,0,0,,2,,,74,127
50503,note_off,136,0,0,,11,,,58,127
50504,note_on,1,0,0,,2,,,50,127
50595,note_off,91,0,0,,2,,,74,127
50639,note_off,44,0,0,,2,,,50,127
50640,note_on,1,0,0,,10,,,57,127
50640,note_on,0,0,0,,0,,,72,127
50776,note_off,136,0,0,,10,,,57,127
50777,note_on,1,0,0,,2,,,50,127
50868,note_off,91,0,0,,0,,,72,127
50912,note_off,44,0,0,,2,,,50,127
50913,note_on,1,0,0,,7,,,55,127
50913,note_on,0,0,0,,0,,,72,127
50980,note_off,67,0,0,,0,,,72,127
50981,note_on,1,0,0,,11,,,70,127
51048,note_off,67,0,0,,11,,,70,127
51048,note_off,0,0,0,,7,,,55,127
51049,note_on,1,0,0,,2,,,50,127
51049,note_on,0,0,0,,10,,,69,127
51116,note_off,67,0,0,,10,,,69,127
51117,note_on,1,0,0,,11,,,70,127
51184,note_off,67,0,0,,11,,,70,127
51184,note_off,0,0,0,,2,,,50,127
51185,note_on,1,0,0,,2,,,50,127
51185,note_on,0,0,0,,6,,,54,127
51185,note_on,0,0,0,,10,,,69,127
51321,note_off,136,0,0,,10,,,69,127
51322,note_on,1,0,0,,0,,,72,127
51458,note_off,136,0,0,,0,,,72,127
51459,note_on,1,0,0,,11,,,70,127
51595,note_off,136,0,0,,11,,,70,127
51596,note_on,1,0,0,,10,,,69,127
51732,note_off,136,0,0,,10,,,69,127
51732,note_off,0,0,0,,6,,,54,127
51732,note_off,0,0,0,,2,,,50,127
51733,note_on,1,0,0,,3,,,51,127
51733,note_on,0,0,0,,7,,,55,127
51733,note_on,0,0,0,,7,,,67,127
51869,note_off,136,0,0,,7,,,67,127
51870,note_on,1,0,0,,3,,,75,127
52006,note_off,136,0,0,,3,,,75,127
52006,note_off,0,0,0,,7,,,55,127
52006,note_off,0,0,0,,3,,,51,127
52007,note_on,1,0,0,,0,,,60,127
52007,note_on,0,0,0,,0,,,48,127
52007,note_on,0,0,0,,2,,,74,127
52143,note_off,136,0,0,,2,,,74,127
52144,note_on,1,0,0,,0,,,72,127
52280,note_off,136,0,0,,0,,,72,127
52280,note_off,0,0,0,,0,,,48,127
52280,note_off,0,0,0,,0,,,60,127
52281,note_on,1,0,0,,2,,,50,127
52281,note_on,0,0,0,,11,,,58,127
52281,note_on,0,0,0,,7,,,55,127
52281,note_on,0,0,0,,11,,,70,127
52417,note_off,136,0,0,,11,,,70,127
52418,note_on,1,0,0,,10,,,69,127
52554,note_off,136,0,0,,10,,,69,127
52554,note_off,0,0,0,,7,,,55,127
52554,note_off,0,0,0,,11,,,58,127
52554,note_off,0,0,0,,2,,,50,127
52555,note_on,1,0,0,,7,,,55,127
52555,note_on,0,0,0,,2,,,50,127
52555,note_on,0,0,0,,0,,,60,127
52555,note_on,0,0,0,,10,,,57,127
52555,note_on,0,0,0,,7,,,67,127
52691,note_off,136,0,0,,7,,,67,127
52692,note_on,1,0,0,,6,,,66,127
52828,note_off,136,0,0,,6,,,66,127
52828,note_off,0,0,0,,10,,,57,127
52828,note_off,0,0,0,,0,,,60,127
52828,note_off,0,0,0,,2,,,50,127
52828,note_off,0,0,0,,7,,,55,127
52829,note_on,1,0,0,,7,,,55,127
52829,note_on,0,0,0,,7,,,67,127
52950,note_off,121,0,0,,7,,,67,127
52950,note_off,0,0,0,,7,,,55,127
52966,note_on,16,0,0,,10,,,57,127
52966,note_on,0,0,0,,10,,,69,127
53087,note_off,121,0,0,,10,,,69,127
53087,note_off,0,0,0,,10,,,57,127
53103,note_on,16,0,0,,11,,,58,127
53103,note_on,0,0,0,,11,,,70,127
53224,note_off,121,0,0,,11,,,70,127
53224,note_off,0,0,0,,11,,,58,127
53240,note_on,16,0,0,,12,,,59,127
53240,note_on,0,0,0,,12,,,71,127
53361,note_off,121,0,0,,12,,,71,127
53361,note_off,0,0,0,,12,,,59,127
53377,note_on,16,0,0,,0,,,60,127
53377,note_on,0,0,0,,0,,,72,127
53498,note_off,121,0,0,,0,,,72,127
53498,note_off,0,0,0,,0,,,60,127
53514,note_on,16,0,0,,1,,,61,127
53514,note_on,0,0,0,,1,,,73,127
53635,note_off,121,0,0,,1,,,73,127
53635,note_off,0,0,0,,1,,,61,127
53651,note_on,16,0,0,,2,,,50,127
53651,note_on,0,0,0,,1,,,73,127
53788,note_on,137,0,0,,6,,,54,127
53797,note_off,9,0,0,,2,,,50,127
53926,note_on,129,0,0,,10,,,57,127
53935,note_off,9,0,0,,6,,,54,127
54064,note_on,129,0,0,,2,,,62,127
54073,note_off,9,0,0,,10,,,57,127
54200,note_off,127,0,0,,1,,,73,127
54201,note_on,1,0,0,,0,,,60,127
54201,note_on,0,0,0,,2,,,74,127
54210,note_off,9,0,0,,2,,,62,127
54339,note_on,129,0,0,,2,,,50,127
54348,note_off,9,0,0,,0,,,60,127
54475,note_off,127,0,0,,2,,,50,127
54475,note_off,0,0,0,,2,,,74,127
54476,note_on,1,0,0,,11,,,58,127
54476,note_on,0,0,0,,2,,,74,127
54612,note_off,136,0,0,,11,,,58,127
54613,note_on,1,0,0,,2,,,50,127
54676,note_off,63,0,0,,2,,,74,127
54749,note_off,73,0,0,,2,,,50,127
54750,note_on,1,0,0,,10,,,57,127
54750,note_on,0,0,0,,0,,,72,127
54886,note_off,136,0,0,,10,,,57,127
54887,note_on,1,0,0,,2,,,50,127
54950,note_off,63,0,0,,0,,,72,127
55023,note_off,73,0,0,,2,,,50,127
55024,note_on,1,0,0,,7,,,55,127
55024,note_on,0,0,0,,0,,,72,127
55091,note_off,67,0,0,,0,,,72,127
55092,note_on,1,0,0,,11,,,70,127
55159,note_off,67,0,0,,11,,,70,127
55159,note_off,0,0,0,,7,,,55,127
55160,note_on,1,0,0,,2,,,50,127
55160,note_on,0,0,0,,10,,,69,127
55227,note_off,67,0,0,,10,,,69,127
55228,note_on,1,0,0,,11,,,70,127
55295,note_off,67,0,0,,11,,,70,127
55295,note_off,0,0,0,,2,,,50,127
55296,note_on,1,0,0,,2,,,38,127
55296,note_on,0,0,0,,11,,,70,127
55432,note_off,136,0,0,,2,,,38,127
55433,note_on,1,0,0,,6,,,42,127
55569,note_off,136,0,0,,6,,,42,127
55569,note_off,0,0,0,,11,,,70,127
55570,note_on,1,0,0,,10,,,45,127
55570,note_on,0,0,0,,10,,,69,127
55706,note_off,136,0,0,,10,,,45,127
55707,note_on,1,0,0,,2,,,50,127
55843,note_off,136,0,0,,2,,,50,127
55844,note_on,1,0,0,,0,,,48,127
55980,note_off,136,0,0,,0,,,48,127
55981,note_on,1,0,0,,2,,,38,127
56117,note_off,136,0,0,,2,,,38,127
56117,note_off,0,0,0,,10,,,69,127
56118,note_on,1,0,0,,11,,,46,127
56118,note_on,0,0,0,,7,,,67,127
56254,note_off,136,0,0,,11,,,46,127
56255,note_on,1,0,0,,2,,,38,127
56318,note_off,63,0,0,,7,,,67,127
56391,note_off,73,0,0,,2,,,38,127
56392,note_on,1,0,0,,10,,,45,127
56392,note_on,0,0,0,,6,,,66,127
56528,note_off,136,0,0,,10,,,45,127
56529,note_on,1,0,0,,2,,,38,127
56592,note_off,63,0,0,,6,,,66,127
56665,note_off,73,0,0,,2,,,38,127
56666,note_on,1,0,0,,7,,,43,127
56666,note_on,0,0,0,,10,,,69,127
56733,note_off,67,0,0,,10,,,69,127
56734,note_on,1,0,0,,7,,,67,127
56801,note_off,67,0,0,,7,,,67,127
56801,note_off,0,0,0,,7,,,43,127
56802,note_on,1,0,0,,2,,,38,127
56802,note_on,0,0,0,,6,,,66,127
56869,note_off,67,0,0,,6,,,66,127
56870,note_on,1,0,0,,7,,,67,127
56937,note_off,67,0,0,,7,,,67,127
56937,note_off,0,0,0,,2,,,38,127
56938,note_on,1,0,0,,2,,,50,127
56938,note_on,0,0,0,,7,,,67,127
57074,note_off,136,0,0,,2,,,50,127
57075,note_on,1,0,0,,6,,,54,127
57211,note_off,136,0,0,,6,,,54,127
57211,note_off,0,0,0,,7,,,67,127
57212,note_on,1,0,0,,10,,,57,127
57212,note_on,0,0,0,,10,,,69,127
57348,note_off,136,0,0,,10,,,57,127
57349,note_on,1,0,0,,2,,,62,127
57485,note_off,136,0,0,,2,,,62,127
57486,note_on,1,0,0,,0,,,60,127
57622,note_off,136,0,0,,0,,,60,127
57623,note_on,1,0,0,,2,,,50,127
57759,note_off,136,0,0,,2,,,50,127
57759,note_off,0,0,0,,10,,,69,127
57760,note_on,1,0,0,,11,,,58,127
57760,note_on,0,0,0,,2,,,74,127
57896,note_off,136,0,0,,11,,,58,127
57897,note_on,1,0,0,,2,,,50,127
57988,note_off,91,0,0,,2,,,74,127
58032,note_off,44,0,0,,2,,,50,127
58033,note_on,1,0,0,,10,,,57,127
58033,note_on,0,0,0,,0,,,72,127
58169,note_off,136,0,0,,10,,,57,127
58170,note_on,1,0,0,,2,,,50,127
58261,note_off,91,0,0,,0,,,72,127
58305,note_off,44,0,0,,2,,,50,127
58306,note_on,1,0,0,,7,,,55,127
58306,note_on,0,0,0,,0,,,72,127
58373,note_off,67,0,0,,0,,,72,127
58374,note_on,1,0,0,,11,,,70,127
58441,note_off,67,0,0,,11,,,70,127
58441,note_off,0,0,0,,7,,,55,127
58442,note_on,1,0,0,,2,,,50,127
58442,note_on,0,0,0,,10,,,69,127
58509,note_off,67,0,0,,10,,,69,127
58510,note_on,1,0,0,,11,,,70,127
58577,note_off,67,0,0,,11,,,70,127
58577,note_off,0,0,0,,2,,,50,127
58578,note_on,1,0,0,,6,,,54,127
58578,note_on,0,0,0,,2,,,50,127
58578,note_on,0,0,0,,10,,,69,127
58714,note_off,136,0,0,,10,,,69,127
58715,note_on,1,0,0,,0,,,72,127
58851,note_off,136,0,0,,0,,,72,127
58852,note_on,1,0,0,,11,,,70,127
58988,note_off,136,0,0,,11,,,70,127
58989,note_on,1,0,0,,10,,,69,127
59125,note_off,136,0,0,,10,,,69,127
59125,note_off,0,0,0,,2,,,50,127
59125,note_off,0,0,0,,6,,,54,127
59126,note_on,1,0,0,,7,,,55,127
59126,note_on,0,0,0,,3,,,51,127
59126,note_on,0,0,0,,7,,,67,127
59262,note_off,136,0,0,,7,,,67,127
59263,note_on,1,0,0,,3,,,75,127
59399,note_off,136,0,0,,3,,,75,127
59399,note_off,0,0,0,,3,,,51,127
59399,note_off,0,0,0,,7,,,55,127
59400,note_on,1,0,0,,0,,,48,127
59400,note_on,0,0,0,,0,,,60,127
59400,note_on,0,0,0,,2,,,74,127
59536,note_off,136,0,0,,2,,,74,127
59537,note_on,1,0,0,,0,,,72,127
59673,note_off,136,0,0,,0,,,72,127
59673,note_off,0,0,0,,0,,,60,127
59673,note_off,0,0,0,,0,,,48,127
59674,note_on,1,0,0,,2,,,50,127
59674,note_on,0,0,0,,11,,,58,127
59674,note_on,0,0,0,,7,,,55,127
59674,note_on,0,0,0,,11,,,70,127
59810,note_off,136,0,0,,11,,,70,127
59811,note_on,1,0,0,,10,,,69,127
59947,note_off,136,0,0,,10,,,69,127
59947,note_off,0,0,0,,7,,,55,127
59947,note_off,0,0,0,,11,,,58,127
59947,note_off,0,0,0,,2,,,50,127
59948,note_on,1,0,0,,2,,,50,127
59948,note_on,0,0,0,,7,,,55,127
59948,note_on,0,0,0,,0,,,60,127
59948,note_on,0,0,0,,10,,,57,127
59948,note_on,0,0,0,,7,,,67,127
60084,note_off,136,0,0,,7,,,67,127
60085,note_on,1,0,0,,6,,,66,127
60221,note_off,136,0,0,,6,,,66,127
60221,note_off,0,0,0,,10,,,57,127
60221,note_off,0,0,0,,0,,,60,127
60221,note_off,0,0,0,,7,,,55,127
60221,note_off,0,0,0,,2,,,50,127
60222,note_on,1,0,0,,7,,,43,127
60222,note_on,0,0,0,,7,,,55,127
60222,note_on,0,0,0,,7,,,67,127
60359,note_on,137,0,0,,7,,,79,127
60493,note_off,134,0,0,,7,,,67,127
60494,note_off,1,0,0,,7,,,79,127
60495,note_on,1,0,0,,6,,,78,127
60631,note_off,136,0,0,,6,,,78,127
60632,note_on,1,0,0,,3,,,75,127
60768,note_off,136,0,0,,3,,,75,127
60768,note_off,0,0,0,,7,,,55,127
60768,note_off,0,0,0,,7,,,43,127
60769,note_on,1,0,0,,10,,,57,127
60769,note_on,0,0,0,,2,,,74,127
60905,note_off,136,0,0,,2,,,74,127
60906,note_on,1,0,0,,0,,,72,127
61042,note_off,136,0,0,,0,,,72,127
61042,note_off,0,0,0,,10,,,57,127
61043,note_on,1,0,0,,11,,,58,127
61043,note_on,0,0,0,,11,,,70,127
61179,note_off,136,0,0,,11,,,70,127
61180,note_on,1,0,0,,10,,,69,127
61316,note_off,136,0,0,,10,,,69,127
61316,note_off,0,0,0,,11,,,58,127
61317,note_on,1,0,0,,0,,,60,127
61317,note_on,0,0,0,,2,,,74,127
61453,note_off,136,0,0,,2,,,74,127
61454,note_on,1,0,0,,0,,,72,127
61590,note_off,136,0,0,,0,,,72,127
61590,note_off,0,0,0,,0,,,60,127
61591,note_on,1,0,0,,2,,,62,127
61591,note_on,0,0,0,,11,,,70,127
61727,note_off,136,0,0,,11,,,70,127
61728,note_on,1,0,0,,10,,,69,127
61864,note_off,136,0,0,,10,,,69,127
61864,note_off,0,0,0,,2,,,62,127
61865,note_on,1,0,0,,7,,,55,127
61865,note_on,0,0,0,,7,,,67,127
62002,note_on,137,0,0,,7,,,79,127
62136,note_off,134,0,0,,7,,,67,127
62137,note_off,1,0,0,,7,,,79,127
62138,note_on,1,0,0,,6,,,78,127
62274,note_off,136,0,0,,6,,,78,127
62275,note_on,1,0,0,,3,,,75,127
62411,note_off,136,0,0,,3,,,75,127
62411,note_off,0,0,0,,7,,,55,127
62412,note_on,1,0,0,,10,,,57,127
62412,note_on,0,0,0,,2,,,74,127
62548,note_off,136,0,0,,2,,,74,127
62549,note_on,1,0,0,,0,,,72,127
62685,note_off,136,0,0,,0,,,72,127
62685,note_off,0,0,0,,10,,,57,127
62686,note_on,1,0,0,,11,,,58,127
62686,note_on,0,0,0,,11,,,70,127
62822,note_off,136,0,0,,11,,,70,127
62823,note_on,1,0,0,,10,,,69,127
62959,note_off,136,0,0,,10,,,69,127
62959,note_off,0,0,0,,11,,,58,127
62960,note_on,1,0,0,,0,,,60,127
62960,note_on,0,0,0,,2,,,74,127
63096,note_off,136,0,0,,2,,,74,127
63097,note_on,1,0,0,,0,,,72,127
63233,note_off,136,0,0,,0,,,72,127
63233,note_off,0,0,0,,0,,,60,127
63234,note_on,1,0,0,,2,,,62,127
63234,note_on,0,0,0,,11,,,70,127
63370,note_off,136,0,0,,11,,,70,127
63371,note_on,1,0,0,,10,,,69,127
63507,note_off,136,0,0,,10,,,69,127
63507,note_off,0,0,0,,2,,,62,127
63508,note_on,1,0,0,,7,,,55,127
63508,note_on,0,0,0,,7,,,43,127
63508,note_on,0,0,0,,7,,,67,127
63644,note_off,136,0,0,,7,,,67,127
63645,note_on,1,0,0,,7,,,67,127
63781,note_off,136,0,0,,7,,,67,127
63782,note_on,1,0,0,,6,,,66,127
63918,note_off,136,0,0,,6,,,66,127
63919,note_on,1,0,0,,3,,,63,127
64055,note_off,136,0,0,,3,,,63,127
64055,note_off,0,0,0,,7,,,43,127
64055,note_off,0,0,0,,7,,,55,127
64056,note_on,1,0,0,,10,,,45,127
64056,note_on,0,0,0,,2,,,62,127
64192,note_off,136,0,0,,2,,,62,127
64193,note_on,1,0,0,,0,,,60,127
64329,note_off,136,0,0,,0,,,60,127
64329,note_off,0,0,0,,10,,,45,127
64330,note_on,1,0,0,,11,,,46,127
64330,note_on,0,0,0,,11,,,58,127
64466,note_off,136,0,0,,11,,,58,127
64467,note_on,1,0,0,,10,,,57,127
64603,note_off,136,0,0,,10,,,57,127
64603,note_off,0,0,0,,11,,,46,127
64604,note_on,1,0,0,,0,,,48,127
64604,note_on,0,0,0,,2,,,62,127
64740,note_off,136,0,0,,2,,,62,127
64741,note_on,1,0,0,,0,,,60,127
64877,note_off,136,0,0,,0,,,60,127
64877,note_off,0,0,0,,0,,,48,127
64878,note_on,1,0,0,,2,,,50,127
64878,note_on,0,0,0,,11,,,58,127
65014,note_off,136,0,0,,11,,,58,127
65015,note_on,1,0,0,,10,,,57,127
65151,note_off,136,0,0,,10,,,57,127
65151,note_off,0,0,0,,2,,,50,127
65152,note_on,1,0,0,,7,,,43,127
65152,note_on,0,0,0,,10,,,57,127
65838,note_off,686,0,0,,10,,,57,127
65838,note_on,0,0,0,,7,,,55,127
67347,note_off,1509,0,0,,7,,,55,127
67347,note_off,0,0,0,,7,,,43,127
70656,end_of_track,3309,1,0,,,,,,
