tick,type,time,meta,track,program,channel,pitch,tempo,note,velocity
0,copyright,0,1,0,,,,,,
0,program_change,0,0,0,6,0,,,,
0,pitchwheel,0,0,0,,0,0,,,
0,program_change,0,0,0,6,1,,,,
0,pitchwheel,0,0,0,,1,-590,,,
0,program_change,0,0,0,6,2,,,,
0,pitchwheel,0,0,0,,2,-272,,,
0,program_change,0,0,0,6,3,,,,
0,pitchwheel,0,0,0,,3,-353,,,
0,program_change,0,0,0,6,4,,,,
0,pitchwheel,0,0,0,,4,-560,,,
0,program_change,0,0,0,6,5,,,,
0,pitchwheel,0,0,0,,5,-80,,,
0,program_change,0,0,0,6,6,,,,
0,pitchwheel,0,0,0,,6,-625,,,
0,program_change,0,0,0,6,7,,,,
0,pitchwheel,0,0,0,,7,-130,,,
0,program_change,0,0,0,6,8,,,,
0,pitchwheel,0,0,0,,8,-512,,,
0,program_change,0,0,0,6,10,,,,
0,pitchwheel,0,0,0,,10,-464,,,
0,program_change,0,0,0,6,11,,,,
0,pitchwheel,0,0,0,,11,-208,,,
0,program_change,0,0,0,6,12,,,,
0,pitchwheel,0,0,0,,12,-553,,,
0,set_tempo,0,1,0,,,,500000,,
105,note_on,105,0,0,,7,,,67,127
313,note_off,208,0,0,,7,,,67,127
314,note_on,1,0,0,,7,,,79,127
522,note_off,208,0,0,,7,,,79,127
523,note_on,1,0,0,,7,,,79,127
627,note_off,104,0,0,,7,,,79,127
628,note_on,1,0,0,,6,,,78,127
732,note_off,104,0,0,,6,,,78,127
733,note_on,1,0,0,,4,,,76,127
837,note_off,104,0,0,,4,,,76,127
838,note_on,1,0,0,,2,,,74,127
942,note_off,104,0,0,,2,,,74,127
943,note_on,1,0,0,,7,,,55,127
943,note_on,0,0,0,,7,,,79,127
1151,note_off,208,0,0,,7,,,55,127
1152,note_on,1,0,0,,7,,,67,127
1360,note_off,208,0,0,,7,,,67,127
1360,note_off,0,0,0,,7,,,79,127
1361,note_on,1,0,0,,7,,,67,127
1361,note_on,0,0,0,,2,,,74,127
1465,note_off,104,0,0,,7,,,67,127
1466,note_on,1,0,0,,6,,,66,127
1570,note_off,104,0,0,,6,,,66,127
1571,note_on,1,0,0,,4,,,64,127
1675,note_off,104,0,0,,4,,,64,127
1676,note_on,1,0,0,,2,,,62,127
1780,note_off,104,0,0,,2,,,62,127
1781,note_on,1,0,0,,7,,,67,127
1864,note_off,83,0,0,,2,,,74,127
1886,note_on,22,0,0,,0,,,84,127
1990,note_off,104,0,0,,0,,,84,127
1991,note_on,1,0,0,,12,,,83,127
2095,note_off,104,0,0,,12,,,83,127
2096,note_on,1,0,0,,4,,,76,127
2200,note_off,104,0,0,,4,,,76,127
2200,note_off,0,0,0,,7,,,67,127
2201,note_on,1,0,0,,12,,,59,127
2201,note_on,0,0,0,,2,,,74,127
2305,note_off,104,0,0,,2,,,74,127
2306,note_on,1,0,0,,10,,,81,127
2410,note_off,104,0,0,,10,,,81,127
2411,note_on,1,0,0,,7,,,79,127
2515,note_off,104,0,0,,7,,,79,127
2516,note_on,1,0,0,,12,,,71,127
2620,note_off,104,0,0,,12,,,71,127
2620,note_off,0,0,0,,12,,,59,127
2621,note_on,1,0,0,,0,,,60,127
2621,note_on,0,0,0,,10,,,69,127
2725,note_off,104,0,0,,10,,,69,127
2726,note_on,1,0,0,,7,,,79,127
2830,note_off,104,0,0,,7,,,79,127
2831,note_on,1,0,0,,6,,,78,127
2935,note_off,104,0,0,,6,,,78,127
2936,note_on,1,0,0,,4,,,76,127
3040,note_off,104,0,0,,4,,,76,127
3040,note_off,0,0,0,,0,,,60,127
3041,note_on,1,0,0,,2,,,62,127
3041,note_on,0,0,0,,2,,,74,127
3145,note_off,104,0,0,,2,,,74,127
3146,note_on,1,0,0,,0,,,72,127
3250,note_off,104,0,0,,0,,,72,127
3251,note_on,1,0,0,,12,,,71,127
3355,note_off,104,0,0,,12,,,71,127
3356,note_on,1,0,0,,10,,,69,127
3460,note_off,104,0,0,,10,,,69,127
3460,note_off,0,0,0,,2,,,62,127
3461,note_on,1,0,0,,7,,,67,127
3461,note_on,0,0,0,,7,,,55,127
3461,note_on,0,0,0,,12,,,71,127
3566,note_on,105,0,0,,0,,,84,127
3669,note_off,103,0,0,,12,,,71,127
3670,note_off,1,0,0,,0,,,84,127
3671,note_on,1,0,0,,12,,,83,127
3775,note_off,104,0,0,,12,,,83,127
3776,note_on,1,0,0,,4,,,76,127
3880,note_off,104,0,0,,4,,,76,127
3880,note_off,0,0,0,,7,,,55,127
3880,note_off,0,0,0,,7,,,67,127
3881,note_on,1,0,0,,12,,,59,127
3881,note_on,0,0,0,,2,,,74,127
3985,note_off,104,0,0,,2,,,74,127
3986,note_on,1,0,0,,12,,,83,127
4090,note_off,104,0,0,,12,,,83,127
4091,note_on,1,0,0,,7,,,79,127
4195,note_off,104,0,0,,7,,,79,127
4196,note_on,1,0,0,,12,,,71,127
4300,note_off,104,0,0,,12,,,71,127
4300,note_off,0,0,0,,12,,,59,127
4301,note_on,1,0,0,,0,,,60,127
4301,note_on,0,0,0,,0,,,72,127
4405,note_off,104,0,0,,0,,,72,127
4406,note_on,1,0,0,,7,,,79,127
4510,note_off,104,0,0,,7,,,79,127
4511,note_on,1,0,0,,6,,,78,127
4615,note_off,104,0,0,,6,,,78,127
4616,note_on,1,0,0,,4,,,76,127
4720,note_off,104,0,0,,4,,,76,127
4720,note_off,0,0,0,,0,,,60,127
4721,note_on,1,0,0,,2,,,62,127
4721,note_on,0,0,0,,2,,,74,127
4825,note_off,104,0,0,,2,,,74,127
4826,note_on,1,0,0,,0,,,72,127
4930,note_off,104,0,0,,0,,,72,127
4931,note_on,1,0,0,,12,,,71,127
5035,note_off,104,0,0,,12,,,71,127
5036,note_on,1,0,0,,10,,,69,127
5133,note_off,97,0,0,,10,,,69,127
5140,note_off,7,0,0,,2,,,62,127
5141,note_on,1,0,0,,7,,,55,127
5141,note_on,0,0,0,,12,,,71,127
5246,note_on,105,0,0,,0,,,72,127
5249,note_off,3,0,0,,12,,,71,127
5350,note_on,101,0,0,,7,,,67,127
5350,note_on,0,0,0,,1,,,73,127
5353,note_off,3,0,0,,0,,,72,127
5454,note_on,101,0,0,,2,,,74,127
5457,note_off,3,0,0,,1,,,73,127
5554,note_off,97,0,0,,7,,,55,127
5557,note_off,3,0,0,,7,,,67,127
5558,note_on,1,0,0,,6,,,66,127
5558,note_on,0,0,0,,3,,,75,127
5561,note_off,3,0,0,,2,,,74,127
5662,note_on,101,0,0,,4,,,76,127
5665,note_off,3,0,0,,3,,,75,127
5765,note_off,100,0,0,,6,,,66,127
5766,note_on,1,0,0,,4,,,64,127
5766,note_on,0,0,0,,6,,,78,127
5769,note_off,3,0,0,,4,,,76,127
5870,note_on,101,0,0,,7,,,79,127
5873,note_off,3,0,0,,6,,,78,127
5973,note_off,100,0,0,,4,,,64,127
5974,note_on,1,0,0,,2,,,62,127
5974,note_on,0,0,0,,10,,,81,127
5977,note_off,3,0,0,,7,,,79,127
6078,note_on,101,0,0,,7,,,79,127
6081,note_off,3,0,0,,10,,,81,127
6181,note_off,100,0,0,,2,,,62,127
6182,note_on,1,0,0,,4,,,64,127
6182,note_on,0,0,0,,6,,,78,127
6185,note_off,3,0,0,,7,,,79,127
6286,note_on,101,0,0,,4,,,76,127
6289,note_off,3,0,0,,6,,,78,127
6389,note_off,100,0,0,,4,,,64,127
6390,note_on,1,0,0,,6,,,66,127
6390,note_on,0,0,0,,2,,,74,127
6393,note_off,3,0,0,,4,,,76,127
6494,note_on,101,0,0,,0,,,72,127
6497,note_off,3,0,0,,2,,,74,127
6597,note_off,100,0,0,,6,,,66,127
6598,note_on,1,0,0,,2,,,62,127
6598,note_on,0,0,0,,12,,,71,127
6601,note_off,3,0,0,,0,,,72,127
6702,note_on,101,0,0,,10,,,69,127
6705,note_off,3,0,0,,12,,,71,127
6805,note_off,100,0,0,,2,,,62,127
6806,note_on,1,0,0,,7,,,55,127
6806,note_on,0,0,0,,12,,,71,127
6809,note_off,3,0,0,,10,,,69,127
6898,note_off,89,0,0,,12,,,71,127
6910,note_on,12,0,0,,0,,,72,127
7003,note_off,93,0,0,,0,,,72,127
7014,note_off,11,0,0,,7,,,55,127
7015,note_on,1,0,0,,7,,,67,127
7015,note_on,0,0,0,,1,,,73,127
7108,note_off,93,0,0,,1,,,73,127
7120,note_on,12,0,0,,2,,,74,127
7213,note_off,93,0,0,,2,,,74,127
7224,note_off,11,0,0,,7,,,67,127
7225,note_on,1,0,0,,6,,,66,127
7225,note_on,0,0,0,,3,,,75,127
7318,note_off,93,0,0,,3,,,75,127
7330,note_on,12,0,0,,4,,,76,127
7423,note_off,93,0,0,,4,,,76,127
7434,note_off,11,0,0,,6,,,66,127
7435,note_on,1,0,0,,4,,,64,127
7435,note_on,0,0,0,,6,,,78,127
7528,note_off,93,0,0,,6,,,78,127
7540,note_on,12,0,0,,7,,,79,127
7633,note_off,93,0,0,,7,,,79,127
7644,note_off,11,0,0,,4,,,64,127
7645,note_on,1,0,0,,2,,,62,127
7645,note_on,0,0,0,,10,,,81,127
7738,note_off,93,0,0,,10,,,81,127
7750,note_on,12,0,0,,7,,,79,127
7843,note_off,93,0,0,,7,,,79,127
7854,note_off,11,0,0,,2,,,62,127
7855,note_on,1,0,0,,4,,,64,127
7855,note_on,0,0,0,,6,,,78,127
7948,note_off,93,0,0,,6,,,78,127
7960,note_on,12,0,0,,4,,,76,127
8053,note_off,93,0,0,,4,,,76,127
8064,note_off,11,0,0,,4,,,64,127
8065,note_on,1,0,0,,6,,,66,127
8065,note_on,0,0,0,,2,,,74,127
8158,note_off,93,0,0,,2,,,74,127
8170,note_on,12,0,0,,0,,,72,127
8263,note_off,93,0,0,,0,,,72,127
8274,note_off,11,0,0,,6,,,66,127
8275,note_on,1,0,0,,2,,,62,127
8275,note_on,0,0,0,,12,,,71,127
8368,note_off,93,0,0,,12,,,71,127
8380,note_on,12,0,0,,10,,,69,127
8473,note_off,93,0,0,,10,,,69,127
8484,note_off,11,0,0,,2,,,62,127
8485,note_on,1,0,0,,7,,,67,127
8485,note_on,0,0,0,,12,,,71,127
8589,note_off,104,0,0,,7,,,67,127
8590,note_on,1,0,0,,2,,,62,127
8694,note_off,104,0,0,,2,,,62,127
8695,note_on,1,0,0,,12,,,59,127
8695,note_on,0,0,0,,12,,,83,127
8799,note_off,104,0,0,,12,,,59,127
8800,note_on,1,0,0,,7,,,55,127
8900,note_off,100,0,0,,12,,,71,127
8903,note_off,3,0,0,,7,,,55,127
8904,note_on,1,0,0,,7,,,43,127
9008,note_off,104,0,0,,12,,,83,127
9009,note_on,1,0,0,,7,,,79,127
9113,note_off,104,0,0,,7,,,79,127
9114,note_on,1,0,0,,6,,,78,127
9218,note_off,104,0,0,,6,,,78,127
9219,note_on,1,0,0,,7,,,79,127
9323,note_off,104,0,0,,7,,,79,127
9323,note_off,0,0,0,,7,,,43,127
9324,note_on,1,0,0,,6,,,66,127
9324,note_on,0,0,0,,8,,,80,127
9428,note_off,104,0,0,,6,,,66,127
9429,note_on,1,0,0,,2,,,62,127
9533,note_off,104,0,0,,2,,,62,127
9533,note_off,0,0,0,,8,,,80,127
9534,note_on,1,0,0,,10,,,57,127
9534,note_on,0,0,0,,10,,,81,127
9638,note_off,104,0,0,,10,,,57,127
9639,note_on,1,0,0,,6,,,54,127
9743,note_off,104,0,0,,6,,,54,127
9744,note_on,1,0,0,,6,,,42,127
9848,note_off,104,0,0,,10,,,81,127
9849,note_on,1,0,0,,6,,,78,127
9953,note_off,104,0,0,,6,,,78,127
9954,note_on,1,0,0,,4,,,76,127
10058,note_off,104,0,0,,4,,,76,127
10059,note_on,1,0,0,,6,,,78,127
10163,note_off,104,0,0,,6,,,78,127
10163,note_off,0,0,0,,6,,,42,127
10164,note_on,1,0,0,,4,,,64,127
10164,note_on,0,0,0,,6,,,78,127
10268,note_off,104,0,0,,4,,,64,127
10269,note_on,1,0,0,,1,,,61,127
10373,note_off,104,0,0,,1,,,61,127
10373,note_off,0,0,0,,6,,,78,127
10374,note_on,1,0,0,,7,,,55,127
10374,note_on,0,0,0,,7,,,79,127
10478,note_off,104,0,0,,7,,,55,127
10479,note_on,1,0,0,,4,,,52,127
10583,note_off,104,0,0,,4,,,52,127
10584,note_on,1,0,0,,4,,,40,127
10688,note_off,104,0,0,,7,,,79,127
10689,note_on,1,0,0,,4,,,76,127
10793,note_off,104,0,0,,4,,,76,127
10794,note_on,1,0,0,,2,,,74,127
10898,note_off,104,0,0,,2,,,74,127
10899,note_on,1,0,0,,4,,,76,127
11003,note_off,104,0,0,,4,,,76,127
11003,note_off,0,0,0,,4,,,40,127
11004,note_on,1,0,0,,2,,,62,127
11004,note_on,0,0,0,,4,,,76,127
11108,note_off,104,0,0,,2,,,62,127
11109,note_on,1,0,0,,10,,,57,127
11213,note_off,104,0,0,,10,,,57,127
11213,note_off,0,0,0,,4,,,76,127
11214,note_on,1,0,0,,6,,,54,127
11214,note_on,0,0,0,,6,,,78,127
11318,note_off,104,0,0,,6,,,54,127
11319,note_on,1,0,0,,2,,,50,127
11423,note_off,104,0,0,,2,,,50,127
11424,note_on,1,0,0,,2,,,38,127
11498,note_off,74,0,0,,6,,,78,127
11633,note_on,135,0,0,,10,,,81,127
11737,note_off,104,0,0,,10,,,81,127
11738,note_on,1,0,0,,7,,,79,127
11838,note_off,100,0,0,,2,,,38,127
11841,note_off,3,0,0,,7,,,79,127
11842,note_on,1,0,0,,6,,,78,127
11946,note_off,104,0,0,,6,,,78,127
11947,note_on,1,0,0,,4,,,76,127
12051,note_off,104,0,0,,4,,,76,127
12052,note_on,1,0,0,,10,,,69,127
12052,note_on,0,0,0,,2,,,74,127
12156,note_off,104,0,0,,2,,,74,127
12156,note_off,0,0,0,,10,,,69,127
12157,note_on,1,0,0,,7,,,67,127
12157,note_on,0,0,0,,1,,,73,127
12261,note_off,104,0,0,,1,,,73,127
12261,note_off,0,0,0,,7,,,67,127
12262,note_on,1,0,0,,6,,,66,127
12262,note_on,0,0,0,,2,,,74,127
12366,note_off,104,0,0,,6,,,66,127
12367,note_on,1,0,0,,4,,,64,127
12471,note_off,104,0,0,,4,,,64,127
12471,note_off,0,0,0,,2,,,74,127
12472,note_on,1,0,0,,2,,,62,127
12472,note_on,0,0,0,,4,,,76,127
12576,note_off,104,0,0,,2,,,62,127
12577,note_on,1,0,0,,1,,,61,127
12681,note_off,104,0,0,,1,,,61,127
12681,note_off,0,0,0,,4,,,76,127
12682,note_on,1,0,0,,2,,,38,127
12682,note_on,0,0,0,,6,,,78,127
12786,note_off,104,0,0,,6,,,78,127
12787,note_on,1,0,0,,4,,,76,127
12891,note_off,104,0,0,,4,,,76,127
12892,note_on,1,0,0,,2,,,74,127
12996,note_off,104,0,0,,2,,,74,127
12997,note_on,1,0,0,,1,,,73,127
13101,note_off,104,0,0,,1,,,73,127
13102,note_on,1,0,0,,2,,,74,127
13207,note_off,105,0,0,,2,,,38,127
13207,note_on,0,0,0,,10,,,69,127
13233,note_off,26,0,0,,2,,,74,127
13310,note_off,77,0,0,,10,,,69,127
13311,note_on,1,0,0,,10,,,81,127
13415,note_off,104,0,0,,10,,,81,127
13416,note_on,1,0,0,,7,,,79,127
13520,note_off,104,0,0,,7,,,79,127
13521,note_on,1,0,0,,6,,,78,127
13625,note_off,104,0,0,,6,,,78,127
13626,note_on,1,0,0,,4,,,76,127
13730,note_off,104,0,0,,4,,,76,127
13731,note_on,1,0,0,,10,,,69,127
13731,note_on,0,0,0,,2,,,74,127
13835,note_off,104,0,0,,2,,,74,127
13835,note_off,0,0,0,,10,,,69,127
13836,note_on,1,0,0,,7,,,67,127
13836,note_on,0,0,0,,1,,,73,127
13940,note_off,104,0,0,,1,,,73,127
13940,note_off,0,0,0,,7,,,67,127
13941,note_on,1,0,0,,6,,,66,127
13941,note_on,0,0,0,,2,,,74,127
14045,note_off,104,0,0,,6,,,66,127
14046,note_on,1,0,0,,4,,,64,127
14150,note_off,104,0,0,,4,,,64,127
14150,note_off,0,0,0,,2,,,74,127
14151,note_on,1,0,0,,2,,,62,127
14151,note_on,0,0,0,,4,,,76,127
14255,note_off,104,0,0,,2,,,62,127
14256,note_on,1,0,0,,1,,,61,127
14360,note_off,104,0,0,,1,,,61,127
14360,note_off,0,0,0,,4,,,76,127
14361,note_on,1,0,0,,2,,,38,127
14361,note_on,0,0,0,,6,,,78,127
14466,note_on,105,0,0,,2,,,74,127
14492,note_off,26,0,0,,6,,,78,127
14569,note_off,77,0,0,,2,,,74,127
14569,note_off,0,0,0,,2,,,38,127
14570,note_on,1,0,0,,2,,,62,127
14570,note_on,0,0,0,,10,,,69,127
14674,note_off,104,0,0,,10,,,69,127
14675,note_on,1,0,0,,2,,,74,127
14779,note_off,104,0,0,,2,,,74,127
14779,note_off,0,0,0,,2,,,62,127
14780,note_on,1,0,0,,2,,,38,127
14780,note_on,0,0,0,,7,,,79,127
14885,note_on,105,0,0,,12,,,71,127
14911,note_off,26,0,0,,7,,,79,127
14988,note_off,77,0,0,,12,,,71,127
14988,note_off,0,0,0,,2,,,38,127
14989,note_on,1,0,0,,2,,,62,127
14989,note_on,0,0,0,,1,,,73,127
15093,note_off,104,0,0,,1,,,73,127
15094,note_on,1,0,0,,4,,,76,127
15198,note_off,104,0,0,,4,,,76,127
15198,note_off,0,0,0,,2,,,62,127
15199,note_on,1,0,0,,2,,,38,127
15199,note_on,0,0,0,,6,,,78,127
15304,note_on,105,0,0,,2,,,74,127
15330,note_off,26,0,0,,6,,,78,127
15407,note_off,77,0,0,,2,,,74,127
15407,note_off,0,0,0,,2,,,38,127
15408,note_on,1,0,0,,2,,,62,127
15408,note_on,0,0,0,,10,,,69,127
15512,note_off,104,0,0,,10,,,69,127
15513,note_on,1,0,0,,6,,,78,127
15617,note_off,104,0,0,,6,,,78,127
15617,note_off,0,0,0,,2,,,62,127
15618,note_on,1,0,0,,2,,,38,127
15618,note_on,0,0,0,,7,,,79,127
15723,note_on,105,0,0,,12,,,71,127
15749,note_off,26,0,0,,7,,,79,127
15826,note_off,77,0,0,,12,,,71,127
15826,note_off,0,0,0,,2,,,38,127
15827,note_on,1,0,0,,2,,,62,127
15827,note_on,0,0,0,,1,,,73,127
15931,note_off,104,0,0,,1,,,73,127
15932,note_on,1,0,0,,4,,,76,127
16036,note_off,104,0,0,,4,,,76,127
16036,note_off,0,0,0,,2,,,62,127
16037,note_on,1,0,0,,2,,,38,127
16037,note_on,0,0,0,,6,,,78,127
16142,note_on,105,0,0,,2,,,74,127
16168,note_off,26,0,0,,6,,,78,127
16245,note_off,77,0,0,,2,,,74,127
16245,note_off,0,0,0,,2,,,38,127
16246,note_on,1,0,0,,2,,,62,127
16246,note_on,0,0,0,,10,,,69,127
16350,note_off,104,0,0,,10,,,69,127
16351,note_on,1,0,0,,6,,,78,127
16455,note_off,104,0,0,,6,,,78,127
16455,note_off,0,0,0,,2,,,62,127
16456,note_on,1,0,0,,4,,,40,127
16456,note_on,0,0,0,,7,,,79,127
16561,note_on,105,0,0,,4,,,76,127
16587,note_off,26,0,0,,7,,,79,127
16664,note_off,77,0,0,,4,,,76,127
16664,note_off,0,0,0,,4,,,40,127
16665,note_on,1,0,0,,4,,,64,127
16665,note_on,0,0,0,,1,,,73,127
16769,note_off,104,0,0,,1,,,73,127
16770,note_on,1,0,0,,7,,,67,127
16874,note_off,104,0,0,,7,,,67,127
16874,note_off,0,0,0,,4,,,64,127
16875,note_on,1,0,0,,6,,,42,127
16875,note_on,0,0,0,,10,,,69,127
16980,note_on,105,0,0,,10,,,81,127
17028,note_off,48,0,0,,10,,,69,127
17084,note_off,56,0,0,,10,,,81,127
17084,note_off,0,0,0,,6,,,42,127
17085,note_on,1,0,0,,6,,,66,127
17085,note_on,0,0,0,,6,,,78,127
17189,note_off,104,0,0,,6,,,78,127
17190,note_on,1,0,0,,2,,,74,127
17294,note_off,104,0,0,,2,,,74,127
17294,note_off,0,0,0,,6,,,66,127
17295,note_on,1,0,0,,7,,,43,127
17295,note_on,0,0,0,,12,,,71,127
17400,note_on,105,0,0,,2,,,74,127
17448,note_off,48,0,0,,12,,,71,127
17504,note_off,56,0,0,,2,,,74,127
17504,note_off,0,0,0,,7,,,43,127
17505,note_on,1,0,0,,7,,,67,127
17505,note_on,0,0,0,,7,,,79,127
17609,note_off,104,0,0,,7,,,79,127
17610,note_on,1,0,0,,12,,,83,127
17714,note_off,104,0,0,,12,,,83,127
17714,note_off,0,0,0,,7,,,67,127
17715,note_on,1,0,0,,10,,,45,127
17715,note_on,0,0,0,,4,,,76,127
17819,note_off,104,0,0,,4,,,76,127
17820,note_on,1,0,0,,2,,,74,127
17924,note_off,104,0,0,,2,,,74,127
17924,note_off,0,0,0,,10,,,45,127
17925,note_on,1,0,0,,10,,,57,127
17925,note_on,0,0,0,,1,,,73,127
18029,note_off,104,0,0,,1,,,73,127
18030,note_on,1,0,0,,12,,,71,127
18134,note_off,104,0,0,,12,,,71,127
18135,note_on,1,0,0,,10,,,69,127
18239,note_off,104,0,0,,10,,,57,127
18240,note_on,1,0,0,,7,,,55,127
18332,note_off,92,0,0,,10,,,69,127
18344,note_off,12,0,0,,7,,,55,127
18345,note_on,1,0,0,,6,,,54,127
18345,note_on,0,0,0,,4,,,76,127
18449,note_off,104,0,0,,6,,,54,127
18450,note_on,1,0,0,,4,,,52,127
18542,note_off,92,0,0,,4,,,76,127
18554,note_off,12,0,0,,4,,,52,127
18555,note_on,1,0,0,,6,,,54,127
18555,note_on,0,0,0,,10,,,81,127
18659,note_off,104,0,0,,10,,,81,127
18660,note_on,1,0,0,,7,,,79,127
18764,note_off,104,0,0,,7,,,79,127
18764,note_off,0,0,0,,6,,,54,127
18765,note_on,1,0,0,,7,,,55,127
18765,note_on,0,0,0,,6,,,78,127
18869,note_off,104,0,0,,6,,,78,127
18870,note_on,1,0,0,,4,,,76,127
18974,note_off,104,0,0,,4,,,76,127
18974,note_off,0,0,0,,7,,,55,127
18975,note_on,1,0,0,,10,,,57,127
18975,note_on,0,0,0,,6,,,78,127
19079,note_off,104,0,0,,6,,,78,127
19080,note_on,1,0,0,,2,,,74,127
19184,note_off,104,0,0,,2,,,74,127
19184,note_off,0,0,0,,10,,,57,127
19185,note_on,1,0,0,,10,,,45,127
19185,note_on,0,0,0,,4,,,76,127
19289,note_off,104,0,0,,4,,,76,127
19290,note_on,1,0,0,,1,,,73,127
19394,note_off,104,0,0,,1,,,73,127
19394,note_off,0,0,0,,10,,,45,127
19395,note_on,1,0,0,,2,,,38,127
19395,note_on,0,0,0,,10,,,81,127
19499,note_off,104,0,0,,10,,,81,127
19500,note_on,1,0,0,,6,,,78,127
19604,note_off,104,0,0,,6,,,78,127
19605,note_on,1,0,0,,2,,,74,127
19709,note_off,104,0,0,,2,,,74,127
19710,note_on,1,0,0,,10,,,69,127
19814,note_off,104,0,0,,10,,,69,127
19815,note_on,1,0,0,,6,,,66,127
19919,note_off,104,0,0,,6,,,66,127
19920,note_on,1,0,0,,2,,,62,127
20024,note_off,104,0,0,,2,,,62,127
20024,note_off,0,0,0,,2,,,38,127
20025,note_on,1,0,0,,10,,,57,127
20129,note_off,104,0,0,,10,,,57,127
20130,note_on,1,0,0,,10,,,45,127
20234,note_off,104,0,0,,10,,,45,127
20235,note_on,1,0,0,,2,,,38,127
20443,note_off,208,0,0,,2,,,38,127
20444,note_on,1,0,0,,7,,,43,127
20444,note_on,0,0,0,,10,,,81,127
20444,note_on,0,0,0,,6,,,78,127
20548,note_off,104,0,0,,6,,,78,127
20548,note_off,0,0,0,,10,,,81,127
20549,note_on,1,0,0,,7,,,79,127
20549,note_on,0,0,0,,4,,,76,127
20653,note_off,104,0,0,,4,,,76,127
20653,note_off,0,0,0,,7,,,79,127
20653,note_off,0,0,0,,7,,,43,127
20654,note_on,1,0,0,,10,,,45,127
20654,note_on,0,0,0,,2,,,74,127
20654,note_on,0,0,0,,6,,,78,127
20862,note_off,208,0,0,,6,,,78,127
20862,note_off,0,0,0,,2,,,74,127
20863,note_on,1,0,0,,1,,,73,127
20863,note_on,0,0,0,,4,,,76,127
20968,note_off,105,0,0,,10,,,45,127
21065,note_off,97,0,0,,4,,,76,127
21065,note_off,0,0,0,,1,,,73,127
21073,note_on,8,0,0,,2,,,38,127
21073,note_on,0,0,0,,10,,,81,127
21177,note_off,104,0,0,,10,,,81,127
21178,note_on,1,0,0,,6,,,78,127
21282,note_off,104,0,0,,6,,,78,127
21283,note_on,1,0,0,,2,,,74,127
21387,note_off,104,0,0,,2,,,74,127
21388,note_on,1,0,0,,10,,,69,127
21492,note_off,104,0,0,,10,,,69,127
21493,note_on,1,0,0,,6,,,66,127
21597,note_off,104,0,0,,6,,,66,127
21598,note_on,1,0,0,,2,,,62,127
21702,note_off,104,0,0,,2,,,62,127
21702,note_off,0,0,0,,2,,,38,127
21703,note_on,1,0,0,,10,,,57,127
21807,note_off,104,0,0,,10,,,57,127
21808,note_on,1,0,0,,10,,,45,127
21912,note_off,104,0,0,,10,,,45,127
21913,note_on,1,0,0,,2,,,38,127
22121,note_off,208,0,0,,2,,,38,127
22122,note_on,1,0,0,,7,,,43,127
22122,note_on,0,0,0,,10,,,81,127
22122,note_on,0,0,0,,6,,,78,127
22226,note_off,104,0,0,,6,,,78,127
22226,note_off,0,0,0,,10,,,81,127
22227,note_on,1,0,0,,4,,,76,127
22227,note_on,0,0,0,,7,,,79,127
22331,note_off,104,0,0,,7,,,79,127
22331,note_off,0,0,0,,4,,,76,127
22331,note_off,0,0,0,,7,,,43,127
22332,note_on,1,0,0,,10,,,45,127
22332,note_on,0,0,0,,2,,,74,127
22332,note_on,0,0,0,,6,,,78,127
22540,note_off,208,0,0,,6,,,78,127
22540,note_off,0,0,0,,2,,,74,127
22541,note_on,1,0,0,,1,,,73,127
22541,note_on,0,0,0,,4,,,76,127
22646,note_off,105,0,0,,10,,,45,127
22750,note_off,104,0,0,,4,,,76,127
22750,note_off,0,0,0,,1,,,73,127
22751,note_on,1,0,0,,2,,,50,127
22751,note_on,0,0,0,,6,,,78,127
22855,note_off,104,0,0,,6,,,78,127
22856,note_on,1,0,0,,2,,,74,127
22960,note_off,104,0,0,,2,,,74,127
22961,note_on,1,0,0,,4,,,76,127
23065,note_off,104,0,0,,4,,,76,127
23066,note_on,1,0,0,,6,,,78,127
23170,note_off,104,0,0,,6,,,78,127
23170,note_off,0,0,0,,2,,,50,127
23171,note_on,1,0,0,,4,,,52,127
23171,note_on,0,0,0,,7,,,79,127
23275,note_off,104,0,0,,7,,,79,127
23276,note_on,1,0,0,,10,,,81,127
23380,note_off,104,0,0,,10,,,81,127
23381,note_on,1,0,0,,12,,,83,127
23485,note_off,104,0,0,,12,,,83,127
23486,note_on,1,0,0,,1,,,85,127
23590,note_off,104,0,0,,1,,,85,127
23590,note_off,0,0,0,,4,,,52,127
23591,note_on,1,0,0,,6,,,54,127
23591,note_on,0,0,0,,2,,,86,127
23695,note_off,104,0,0,,2,,,86,127
23696,note_on,1,0,0,,10,,,81,127
23800,note_off,104,0,0,,10,,,81,127
23800,note_off,0,0,0,,6,,,54,127
23801,note_on,1,0,0,,7,,,55,127
23801,note_on,0,0,0,,12,,,83,127
23905,note_off,104,0,0,,12,,,83,127
23906,note_on,1,0,0,,7,,,79,127
24010,note_off,104,0,0,,7,,,79,127
24010,note_off,0,0,0,,7,,,55,127
24011,note_on,1,0,0,,10,,,57,127
24011,note_on,0,0,0,,6,,,78,127
24115,note_off,104,0,0,,6,,,78,127
24116,note_on,1,0,0,,4,,,76,127
24220,note_off,104,0,0,,4,,,76,127
24221,note_on,1,0,0,,10,,,45,127
24221,note_on,0,0,0,,2,,,74,127
24325,note_off,104,0,0,,2,,,74,127
24326,note_on,1,0,0,,1,,,73,127
24426,note_off,100,0,0,,10,,,57,127
24429,note_off,3,0,0,,1,,,73,127
24429,note_off,0,0,0,,10,,,45,127
24430,note_on,1,0,0,,2,,,50,127
24430,note_on,0,0,0,,2,,,74,127
24535,note_on,105,0,0,,6,,,78,127
24538,note_off,3,0,0,,2,,,74,127
24638,note_off,100,0,0,,2,,,50,127
24639,note_on,1,0,0,,6,,,54,127
24639,note_on,0,0,0,,3,,,75,127
24642,note_off,3,0,0,,6,,,78,127
24743,note_on,101,0,0,,4,,,76,127
24746,note_off,3,0,0,,3,,,75,127
24846,note_off,100,0,0,,6,,,54,127
24847,note_on,1,0,0,,7,,,55,127
24847,note_on,0,0,0,,12,,,71,127
24850,note_off,3,0,0,,4,,,76,127
24951,note_on,101,0,0,,2,,,74,127
24954,note_off,3,0,0,,12,,,71,127
25054,note_off,100,0,0,,7,,,55,127
25055,note_on,1,0,0,,4,,,52,127
25055,note_on,0,0,0,,1,,,73,127
25058,note_off,3,0,0,,2,,,74,127
25159,note_on,101,0,0,,4,,,76,127
25162,note_off,3,0,0,,1,,,73,127
25262,note_off,100,0,0,,4,,,52,127
25263,note_on,1,0,0,,6,,,54,127
25263,note_on,0,0,0,,2,,,74,127
25266,note_off,3,0,0,,4,,,76,127
25367,note_on,101,0,0,,10,,,81,127
25370,note_off,3,0,0,,2,,,74,127
25470,note_off,100,0,0,,6,,,54,127
25471,note_on,1,0,0,,7,,,55,127
25471,note_on,0,0,0,,7,,,79,127
25474,note_off,3,0,0,,10,,,81,127
25575,note_on,101,0,0,,12,,,83,127
25578,note_off,3,0,0,,7,,,79,127
25678,note_off,100,0,0,,7,,,55,127
25679,note_on,1,0,0,,10,,,57,127
25679,note_on,0,0,0,,10,,,81,127
25682,note_off,3,0,0,,12,,,83,127
25783,note_on,101,0,0,,7,,,79,127
25786,note_off,3,0,0,,10,,,81,127
25887,note_on,101,0,0,,10,,,45,127
25887,note_on,0,0,0,,6,,,78,127
25890,note_off,3,0,0,,7,,,79,127
25991,note_on,101,0,0,,4,,,76,127
25994,note_off,3,0,0,,6,,,78,127
26091,note_off,97,0,0,,10,,,57,127
26094,note_off,3,0,0,,10,,,45,127
26095,note_on,1,0,0,,2,,,50,127
26095,note_on,0,0,0,,2,,,74,127
26098,note_off,3,0,0,,4,,,76,127
26187,note_off,89,0,0,,2,,,74,127
26199,note_on,12,0,0,,6,,,78,127
26292,note_off,93,0,0,,6,,,78,127
26303,note_off,11,0,0,,2,,,50,127
26304,note_on,1,0,0,,6,,,54,127
26304,note_on,0,0,0,,3,,,75,127
26397,note_off,93,0,0,,3,,,75,127
26409,note_on,12,0,0,,4,,,76,127
26502,note_off,93,0,0,,4,,,76,127
26513,note_off,11,0,0,,6,,,54,127
26514,note_on,1,0,0,,7,,,55,127
26514,note_on,0,0,0,,12,,,71,127
26607,note_off,93,0,0,,12,,,71,127
26619,note_on,12,0,0,,2,,,74,127
26712,note_off,93,0,0,,2,,,74,127
26723,note_off,11,0,0,,7,,,55,127
26724,note_on,1,0,0,,4,,,52,127
26724,note_on,0,0,0,,1,,,73,127
26817,note_off,93,0,0,,1,,,73,127
26829,note_on,12,0,0,,4,,,76,127
26922,note_off,93,0,0,,4,,,76,127
26933,note_off,11,0,0,,4,,,52,127
26934,note_on,1,0,0,,6,,,54,127
26934,note_on,0,0,0,,2,,,74,127
27027,note_off,93,0,0,,2,,,74,127
27039,note_on,12,0,0,,10,,,81,127
27132,note_off,93,0,0,,10,,,81,127
27143,note_off,11,0,0,,6,,,54,127
27144,note_on,1,0,0,,7,,,55,127
27144,note_on,0,0,0,,7,,,79,127
27237,note_off,93,0,0,,7,,,79,127
27249,note_on,12,0,0,,12,,,83,127
27342,note_off,93,0,0,,12,,,83,127
27353,note_off,11,0,0,,7,,,55,127
27354,note_on,1,0,0,,10,,,57,127
27354,note_on,0,0,0,,10,,,81,127
27447,note_off,93,0,0,,10,,,81,127
27459,note_on,12,0,0,,7,,,79,127
27552,note_off,93,0,0,,7,,,79,127
27564,note_on,12,0,0,,10,,,45,127
27564,note_on,0,0,0,,6,,,78,127
27657,note_off,93,0,0,,6,,,78,127
27669,note_on,12,0,0,,4,,,76,127
27762,note_off,93,0,0,,4,,,76,127
27770,note_off,8,0,0,,10,,,57,127
27773,note_off,3,0,0,,10,,,45,127
27774,note_on,1,0,0,,2,,,50,127
27774,note_on,0,0,0,,2,,,74,127
27878,note_off,104,0,0,,2,,,74,127
27879,note_on,1,0,0,,10,,,69,127
27983,note_off,104,0,0,,10,,,69,127
27983,note_off,0,0,0,,2,,,50,127
27984,note_on,1,0,0,,7,,,55,127
27984,note_on,0,0,0,,7,,,67,127
28088,note_off,104,0,0,,7,,,67,127
28089,note_on,1,0,0,,12,,,71,127
28193,note_off,104,0,0,,12,,,71,127
28193,note_off,0,0,0,,7,,,55,127
28194,note_on,1,0,0,,10,,,57,127
28194,note_on,0,0,0,,10,,,69,127
28298,note_off,104,0,0,,10,,,69,127
28299,note_on,1,0,0,,7,,,67,127
28403,note_off,104,0,0,,7,,,67,127
28404,note_on,1,0,0,,10,,,45,127
28404,note_on,0,0,0,,6,,,66,127
28508,note_off,104,0,0,,6,,,66,127
28509,note_on,1,0,0,,4,,,64,127
28609,note_off,100,0,0,,10,,,57,127
28612,note_off,3,0,0,,4,,,64,127
28612,note_off,0,0,0,,10,,,45,127
28613,note_on,1,0,0,,2,,,50,127
28613,note_on,0,0,0,,2,,,62,127
28717,note_off,104,0,0,,2,,,62,127
28718,note_on,1,0,0,,10,,,57,127
28822,note_off,104,0,0,,10,,,57,127
28822,note_off,0,0,0,,2,,,50,127
28823,note_on,1,0,0,,7,,,43,127
28823,note_on,0,0,0,,7,,,55,127
28927,note_off,104,0,0,,7,,,55,127
28928,note_on,1,0,0,,12,,,59,127
29032,note_off,104,0,0,,12,,,59,127
29032,note_off,0,0,0,,7,,,43,127
29033,note_on,1,0,0,,10,,,45,127
29033,note_on,0,0,0,,10,,,57,127
29137,note_off,104,0,0,,10,,,57,127
29138,note_on,1,0,0,,7,,,55,127
29242,note_off,104,0,0,,7,,,55,127
29242,note_off,0,0,0,,10,,,45,127
29243,note_on,1,0,0,,10,,,33,127
29243,note_on,0,0,0,,6,,,54,127
29347,note_off,104,0,0,,6,,,54,127
29348,note_on,1,0,0,,4,,,52,127
29452,note_off,104,0,0,,4,,,52,127
29452,note_off,0,0,0,,10,,,33,127
29453,note_on,1,0,0,,2,,,38,127
29453,note_on,0,0,0,,2,,,50,127
30290,note_off,837,0,0,,2,,,50,127
30290,note_off,0,0,0,,2,,,38,127
30291,note_on,1,0,0,,2,,,62,127
30499,note_off,208,0,0,,2,,,62,127
30500,note_on,1,0,0,,2,,,74,127
30708,note_off,208,0,0,,2,,,74,127
30709,note_on,1,0,0,,2,,,74,127
30813,note_off,104,0,0,,2,,,74,127
30814,note_on,1,0,0,,1,,,73,127
30918,note_off,104,0,0,,1,,,73,127
30919,note_on,1,0,0,,12,,,71,127
31023,note_off,104,0,0,,12,,,71,127
31024,note_on,1,0,0,,10,,,69,127
31128,note_off,104,0,0,,10,,,69,127
31129,note_on,1,0,0,,2,,,50,127
31129,note_on,0,0,0,,2,,,74,127
31337,note_off,208,0,0,,2,,,50,127
31338,note_on,1,0,0,,2,,,62,127
31546,note_off,208,0,0,,2,,,62,127
31546,note_off,0,0,0,,2,,,74,127
31547,note_on,1,0,0,,2,,,62,127
31547,note_on,0,0,0,,10,,,81,127
31651,note_off,104,0,0,,2,,,62,127
31652,note_on,1,0,0,,1,,,61,127
31756,note_off,104,0,0,,1,,,61,127
31757,note_on,1,0,0,,12,,,59,127
31861,note_off,104,0,0,,12,,,59,127
31862,note_on,1,0,0,,10,,,57,127
31966,note_off,104,0,0,,10,,,57,127
31967,note_on,1,0,0,,2,,,62,127
32071,note_off,104,0,0,,10,,,81,127
32072,note_on,1,0,0,,6,,,78,127
32176,note_off,104,0,0,,6,,,78,127
32177,note_on,1,0,0,,2,,,74,127
32281,note_off,104,0,0,,2,,,74,127
32282,note_on,1,0,0,,10,,,69,127
32386,note_off,104,0,0,,10,,,69,127
32387,note_on,1,0,0,,6,,,66,127
32490,note_off,103,0,0,,2,,,62,127
32491,note_off,1,0,0,,6,,,66,127
32492,note_on,1,0,0,,2,,,62,127
32596,note_off,104,0,0,,2,,,62,127
32597,note_on,1,0,0,,10,,,57,127
32701,note_off,104,0,0,,10,,,57,127
32702,note_on,1,0,0,,10,,,45,127
32806,note_off,104,0,0,,10,,,45,127
32807,note_on,1,0,0,,2,,,38,127
32807,note_on,0,0,0,,10,,,81,127
32911,note_off,104,0,0,,10,,,81,127
32912,note_on,1,0,0,,6,,,78,127
33016,note_off,104,0,0,,6,,,78,127
33017,note_on,1,0,0,,2,,,74,127
33121,note_off,104,0,0,,2,,,74,127
33122,note_on,1,0,0,,10,,,69,127
33226,note_off,104,0,0,,10,,,69,127
33227,note_on,1,0,0,,6,,,66,127
33331,note_off,104,0,0,,6,,,66,127
33332,note_on,1,0,0,,2,,,62,127
33436,note_off,104,0,0,,2,,,62,127
33436,note_off,0,0,0,,2,,,38,127
33437,note_on,1,0,0,,10,,,57,127
33541,note_off,104,0,0,,10,,,57,127
33542,note_on,1,0,0,,10,,,45,127
33646,note_off,104,0,0,,10,,,45,127
33647,note_on,1,0,0,,2,,,38,127
33647,note_on,0,0,0,,10,,,81,127
33751,note_off,104,0,0,,10,,,81,127
33752,note_on,1,0,0,,6,,,78,127
33856,note_off,104,0,0,,6,,,78,127
33857,note_on,1,0,0,,2,,,74,127
33961,note_off,104,0,0,,2,,,74,127
33962,note_on,1,0,0,,10,,,69,127
34066,note_off,104,0,0,,10,,,69,127
34067,note_on,1,0,0,,6,,,66,127
34171,note_off,104,0,0,,6,,,66,127
34172,note_on,1,0,0,,2,,,62,127
34276,note_off,104,0,0,,2,,,62,127
34276,note_off,0,0,0,,2,,,38,127
34277,note_on,1,0,0,,10,,,57,127
34381,note_off,104,0,0,,10,,,57,127
34382,note_on,1,0,0,,10,,,45,127
34486,note_off,104,0,0,,10,,,45,127
34487,note_on,1,0,0,,2,,,38,127
34695,note_off,208,0,0,,2,,,38,127
34696,note_on,1,0,0,,2,,,74,127
34696,note_on,0,0,0,,6,,,78,127
34800,note_off,104,0,0,,6,,,78,127
34801,note_on,1,0,0,,7,,,79,127
34905,note_off,104,0,0,,7,,,79,127
34905,note_off,0,0,0,,2,,,74,127
34906,note_on,1,0,0,,2,,,74,127
34906,note_on,0,0,0,,6,,,78,127
35114,note_off,208,0,0,,2,,,74,127
35115,note_on,1,0,0,,2,,,74,127
35323,note_off,208,0,0,,2,,,74,127
35324,note_on,1,0,0,,0,,,72,127
35429,note_off,105,0,0,,6,,,78,127
35533,note_off,104,0,0,,0,,,72,127
35534,note_on,1,0,0,,0,,,72,127
35534,note_on,0,0,0,,6,,,78,127
35534,note_on,0,0,0,,4,,,76,127
35638,note_off,104,0,0,,6,,,78,127
35639,note_on,1,0,0,,7,,,79,127
35743,note_off,104,0,0,,7,,,79,127
35743,note_off,0,0,0,,0,,,72,127
35744,note_on,1,0,0,,0,,,72,127
35744,note_on,0,0,0,,6,,,78,127
35952,note_off,208,0,0,,0,,,72,127
35953,note_on,1,0,0,,0,,,72,127
36161,note_off,208,0,0,,0,,,72,127
36161,note_off,0,0,0,,4,,,76,127
36162,note_on,1,0,0,,12,,,71,127
36267,note_off,105,0,0,,6,,,78,127
36371,note_off,104,0,0,,12,,,71,127
36372,note_on,1,0,0,,12,,,71,127
36372,note_on,0,0,0,,6,,,78,127
36372,note_on,0,0,0,,3,,,75,127
36476,note_off,104,0,0,,6,,,78,127
36477,note_on,1,0,0,,7,,,79,127
36581,note_off,104,0,0,,7,,,79,127
36581,note_off,0,0,0,,12,,,71,127
36582,note_on,1,0,0,,12,,,71,127
36582,note_on,0,0,0,,6,,,78,127
36790,note_off,208,0,0,,12,,,71,127
36791,note_on,1,0,0,,12,,,71,127
36999,note_off,208,0,0,,12,,,71,127
36999,note_off,0,0,0,,3,,,75,127
37000,note_on,1,0,0,,0,,,72,127
37000,note_on,0,0,0,,10,,,69,127
37105,note_off,105,0,0,,6,,,78,127
37209,note_off,104,0,0,,10,,,69,127
37209,note_off,0,0,0,,0,,,72,127
37210,note_on,1,0,0,,0,,,72,127
37210,note_on,0,0,0,,10,,,69,127
37210,note_on,0,0,0,,4,,,76,127
37210,note_on,0,0,0,,6,,,78,127
37314,note_off,104,0,0,,6,,,78,127
37315,note_on,1,0,0,,7,,,79,127
37419,note_off,104,0,0,,7,,,79,127
37419,note_off,0,0,0,,10,,,69,127
37419,note_off,0,0,0,,0,,,72,127
37420,note_on,1,0,0,,10,,,69,127
37420,note_on,0,0,0,,0,,,72,127
37420,note_on,0,0,0,,6,,,78,127
37628,note_off,208,0,0,,0,,,72,127
37628,note_off,0,0,0,,10,,,69,127
37629,note_on,1,0,0,,0,,,72,127
37629,note_on,0,0,0,,10,,,69,127
37837,note_off,208,0,0,,10,,,69,127
37837,note_off,0,0,0,,0,,,72,127
37837,note_off,0,0,0,,4,,,76,127
37838,note_on,1,0,0,,12,,,71,127
37943,note_off,105,0,0,,6,,,78,127
38047,note_off,104,0,0,,12,,,71,127
38048,note_on,1,0,0,,12,,,71,127
38048,note_on,0,0,0,,3,,,75,127
38048,note_on,0,0,0,,6,,,78,127
38152,note_off,104,0,0,,6,,,78,127
38153,note_on,1,0,0,,8,,,80,127
38257,note_off,104,0,0,,8,,,80,127
38257,note_off,0,0,0,,12,,,71,127
38258,note_on,1,0,0,,12,,,71,127
38258,note_on,0,0,0,,6,,,78,127
38466,note_off,208,0,0,,12,,,71,127
38467,note_on,1,0,0,,12,,,71,127
38675,note_off,208,0,0,,12,,,71,127
38675,note_off,0,0,0,,3,,,75,127
38676,note_on,1,0,0,,1,,,73,127
38676,note_on,0,0,0,,11,,,70,127
38781,note_off,105,0,0,,6,,,78,127
38885,note_off,104,0,0,,11,,,70,127
38885,note_off,0,0,0,,1,,,73,127
38886,note_on,1,0,0,,1,,,73,127
38886,note_on,0,0,0,,11,,,70,127
38886,note_on,0,0,0,,4,,,76,127
38886,note_on,0,0,0,,6,,,78,127
38990,note_off,104,0,0,,6,,,78,127
38991,note_on,1,0,0,,8,,,80,127
39095,note_off,104,0,0,,8,,,80,127
39095,note_off,0,0,0,,11,,,70,127
39095,note_off,0,0,0,,1,,,73,127
39096,note_on,1,0,0,,11,,,70,127
39096,note_on,0,0,0,,1,,,73,127
39096,note_on,0,0,0,,6,,,78,127
39304,note_off,208,0,0,,1,,,73,127
39304,note_off,0,0,0,,11,,,70,127
39305,note_on,1,0,0,,1,,,73,127
39305,note_on,0,0,0,,11,,,70,127
39513,note_off,208,0,0,,11,,,70,127
39513,note_off,0,0,0,,1,,,73,127
39513,note_off,0,0,0,,4,,,76,127
39514,note_on,1,0,0,,12,,,71,127
39619,note_off,105,0,0,,6,,,78,127
39723,note_off,104,0,0,,12,,,71,127
39724,note_on,1,0,0,,12,,,71,127
39724,note_on,0,0,0,,3,,,75,127
39724,note_on,0,0,0,,6,,,78,127
39828,note_off,104,0,0,,6,,,78,127
39829,note_on,1,0,0,,8,,,80,127
39933,note_off,104,0,0,,8,,,80,127
39933,note_off,0,0,0,,12,,,71,127
39934,note_on,1,0,0,,12,,,71,127
39934,note_on,0,0,0,,6,,,78,127
40142,note_off,208,0,0,,12,,,71,127
40143,note_on,1,0,0,,12,,,71,127
40351,note_off,208,0,0,,12,,,71,127
40351,note_off,0,0,0,,3,,,75,127
40352,note_on,1,0,0,,1,,,73,127
40352,note_on,0,0,0,,10,,,69,127
40457,note_off,105,0,0,,6,,,78,127
40561,note_off,104,0,0,,10,,,69,127
40561,note_off,0,0,0,,1,,,73,127
40562,note_on,1,0,0,,10,,,69,127
40562,note_on,0,0,0,,1,,,73,127
40562,note_on,0,0,0,,3,,,75,127
40562,note_on,0,0,0,,6,,,78,127
40666,note_off,104,0,0,,6,,,78,127
40667,note_on,1,0,0,,8,,,80,127
40771,note_off,104,0,0,,8,,,80,127
40771,note_off,0,0,0,,1,,,73,127
40771,note_off,0,0,0,,10,,,69,127
40772,note_on,1,0,0,,10,,,69,127
40772,note_on,0,0,0,,1,,,73,127
40772,note_on,0,0,0,,6,,,78,127
40980,note_off,208,0,0,,1,,,73,127
40980,note_off,0,0,0,,10,,,69,127
40981,note_on,1,0,0,,10,,,69,127
40981,note_on,0,0,0,,1,,,73,127
41189,note_off,208,0,0,,1,,,73,127
41189,note_off,0,0,0,,10,,,69,127
41189,note_off,0,0,0,,3,,,75,127
41190,note_on,1,0,0,,8,,,68,127
41190,note_on,0,0,0,,0,,,72,127
41295,note_off,105,0,0,,6,,,78,127
41399,note_off,104,0,0,,0,,,72,127
41399,note_off,0,0,0,,8,,,68,127
41400,note_on,1,0,0,,0,,,72,127
41400,note_on,0,0,0,,8,,,68,127
41400,note_on,0,0,0,,3,,,75,127
41400,note_on,0,0,0,,6,,,78,127
41504,note_off,104,0,0,,6,,,78,127
41505,note_on,1,0,0,,8,,,80,127
41609,note_off,104,0,0,,8,,,80,127
41609,note_off,0,0,0,,8,,,68,127
41609,note_off,0,0,0,,0,,,72,127
41610,note_on,1,0,0,,8,,,68,127
41610,note_on,0,0,0,,0,,,72,127
41610,note_on,0,0,0,,6,,,78,127
41818,note_off,208,0,0,,0,,,72,127
41818,note_off,0,0,0,,8,,,68,127
41819,note_on,1,0,0,,8,,,68,127
41819,note_on,0,0,0,,0,,,72,127
42027,note_off,208,0,0,,0,,,72,127
42027,note_off,0,0,0,,8,,,68,127
42027,note_off,0,0,0,,3,,,75,127
42028,note_on,1,0,0,,8,,,68,127
42028,note_on,0,0,0,,1,,,73,127
42133,note_off,105,0,0,,6,,,78,127
42237,note_off,104,0,0,,1,,,73,127
42237,note_off,0,0,0,,8,,,68,127
42238,note_on,1,0,0,,8,,,68,127
42238,note_on,0,0,0,,1,,,73,127
42238,note_on,0,0,0,,4,,,76,127
42238,note_on,0,0,0,,8,,,80,127
42342,note_off,104,0,0,,8,,,80,127
42343,note_on,1,0,0,,10,,,81,127
42447,note_off,104,0,0,,10,,,81,127
42447,note_off,0,0,0,,1,,,73,127
42447,note_off,0,0,0,,8,,,68,127
42448,note_on,1,0,0,,1,,,73,127
42448,note_on,0,0,0,,8,,,68,127
42448,note_on,0,0,0,,8,,,80,127
42656,note_off,208,0,0,,8,,,68,127
42656,note_off,0,0,0,,1,,,73,127
42657,note_on,1,0,0,,1,,,73,127
42657,note_on,0,0,0,,8,,,68,127
42865,note_off,208,0,0,,8,,,68,127
42865,note_off,0,0,0,,1,,,73,127
42865,note_off,0,0,0,,4,,,76,127
42866,note_on,1,0,0,,12,,,71,127
42866,note_on,0,0,0,,10,,,69,127
42866,note_on,0,0,0,,6,,,66,127
42971,note_off,105,0,0,,8,,,80,127
43075,note_off,104,0,0,,6,,,66,127
43075,note_off,0,0,0,,10,,,69,127
43075,note_off,0,0,0,,12,,,71,127
43076,note_on,1,0,0,,10,,,69,127
43076,note_on,0,0,0,,12,,,71,127
43076,note_on,0,0,0,,6,,,66,127
43076,note_on,0,0,0,,3,,,75,127
43076,note_on,0,0,0,,10,,,81,127
43076,note_on,0,0,0,,6,,,78,127
43180,note_off,104,0,0,,10,,,81,127
43181,note_on,1,0,0,,12,,,83,127
43285,note_off,104,0,0,,12,,,83,127
43285,note_off,0,0,0,,6,,,66,127
43285,note_off,0,0,0,,12,,,71,127
43285,note_off,0,0,0,,10,,,69,127
43286,note_on,1,0,0,,10,,,69,127
43286,note_on,0,0,0,,12,,,71,127
43286,note_on,0,0,0,,6,,,66,127
43286,note_on,0,0,0,,10,,,81,127
43494,note_off,208,0,0,,6,,,66,127
43494,note_off,0,0,0,,12,,,71,127
43494,note_off,0,0,0,,10,,,69,127
43495,note_on,1,0,0,,12,,,71,127
43495,note_on,0,0,0,,6,,,66,127
43495,note_on,0,0,0,,10,,,69,127
43703,note_off,208,0,0,,10,,,69,127
43703,note_off,0,0,0,,6,,,66,127
43703,note_off,0,0,0,,12,,,71,127
43703,note_off,0,0,0,,6,,,78,127
43703,note_off,0,0,0,,3,,,75,127
43704,note_on,1,0,0,,10,,,69,127
43704,note_on,0,0,0,,12,,,71,127
43704,note_on,0,0,0,,6,,,66,127
43809,note_off,105,0,0,,10,,,81,127
43913,note_off,104,0,0,,6,,,66,127
43913,note_off,0,0,0,,12,,,71,127
43913,note_off,0,0,0,,10,,,69,127
43914,note_on,1,0,0,,6,,,66,127
43914,note_on,0,0,0,,10,,,69,127
43914,note_on,0,0,0,,12,,,71,127
43914,note_on,0,0,0,,10,,,81,127
43914,note_on,0,0,0,,3,,,75,127
43914,note_on,0,0,0,,6,,,78,127
44018,note_off,104,0,0,,10,,,81,127
44019,note_on,1,0,0,,12,,,83,127
44123,note_off,104,0,0,,12,,,83,127
44123,note_off,0,0,0,,12,,,71,127
44123,note_off,0,0,0,,10,,,69,127
44123,note_off,0,0,0,,6,,,66,127
44124,note_on,1,0,0,,12,,,71,127
44124,note_on,0,0,0,,10,,,69,127
44124,note_on,0,0,0,,6,,,66,127
44124,note_on,0,0,0,,10,,,81,127
44332,note_off,208,0,0,,6,,,66,127
44332,note_off,0,0,0,,10,,,69,127
44332,note_off,0,0,0,,12,,,71,127
44333,note_on,1,0,0,,12,,,71,127
44333,note_on,0,0,0,,10,,,69,127
44333,note_on,0,0,0,,6,,,66,127
44541,note_off,208,0,0,,6,,,66,127
44541,note_off,0,0,0,,10,,,69,127
44541,note_off,0,0,0,,12,,,71,127
44541,note_off,0,0,0,,6,,,78,127
44541,note_off,0,0,0,,3,,,75,127
44542,note_on,1,0,0,,0,,,72,127
44542,note_on,0,0,0,,4,,,64,127
44542,note_on,0,0,0,,10,,,69,127
44647,note_off,105,0,0,,10,,,81,127
44751,note_off,104,0,0,,10,,,69,127
44751,note_off,0,0,0,,4,,,64,127
44751,note_off,0,0,0,,0,,,72,127
44752,note_on,1,0,0,,0,,,72,127
44752,note_on,0,0,0,,10,,,69,127
44752,note_on,0,0,0,,4,,,64,127
44752,note_on,0,0,0,,10,,,81,127
44752,note_on,0,0,0,,4,,,76,127
44856,note_off,104,0,0,,10,,,81,127
44857,note_on,1,0,0,,12,,,83,127
44961,note_off,104,0,0,,12,,,83,127
44961,note_off,0,0,0,,4,,,64,127
44961,note_off,0,0,0,,10,,,69,127
44961,note_off,0,0,0,,0,,,72,127
44962,note_on,1,0,0,,0,,,72,127
44962,note_on,0,0,0,,10,,,69,127
44962,note_on,0,0,0,,4,,,64,127
44962,note_on,0,0,0,,10,,,81,127
45170,note_off,208,0,0,,4,,,64,127
45170,note_off,0,0,0,,10,,,69,127
45170,note_off,0,0,0,,0,,,72,127
45171,note_on,1,0,0,,10,,,69,127
45171,note_on,0,0,0,,0,,,72,127
45171,note_on,0,0,0,,4,,,64,127
45379,note_off,208,0,0,,4,,,64,127
45379,note_off,0,0,0,,0,,,72,127
45379,note_off,0,0,0,,10,,,69,127
45379,note_off,0,0,0,,4,,,76,127
45380,note_on,1,0,0,,2,,,74,127
45380,note_on,0,0,0,,12,,,71,127
45380,note_on,0,0,0,,5,,,65,127
45380,note_on,0,0,0,,10,,,69,127
45485,note_off,105,0,0,,10,,,81,127
45589,note_off,104,0,0,,10,,,69,127
45589,note_off,0,0,0,,5,,,65,127
45589,note_off,0,0,0,,12,,,71,127
45589,note_off,0,0,0,,2,,,74,127
45590,note_on,1,0,0,,12,,,71,127
45590,note_on,0,0,0,,2,,,74,127
45590,note_on,0,0,0,,5,,,65,127
45590,note_on,0,0,0,,10,,,69,127
45590,note_on,0,0,0,,10,,,81,127
45590,note_on,0,0,0,,5,,,77,127
45694,note_off,104,0,0,,10,,,81,127
45695,note_on,1,0,0,,12,,,83,127
45799,note_off,104,0,0,,12,,,83,127
45799,note_off,0,0,0,,10,,,69,127
45799,note_off,0,0,0,,5,,,65,127
45799,note_off,0,0,0,,2,,,74,127
45799,note_off,0,0,0,,12,,,71,127
45800,note_on,1,0,0,,2,,,74,127
45800,note_on,0,0,0,,12,,,71,127
45800,note_on,0,0,0,,10,,,69,127
45800,note_on,0,0,0,,5,,,65,127
45800,note_on,0,0,0,,10,,,81,127
46008,note_off,208,0,0,,5,,,65,127
46008,note_off,0,0,0,,10,,,69,127
46008,note_off,0,0,0,,12,,,71,127
46008,note_off,0,0,0,,2,,,74,127
46009,note_on,1,0,0,,2,,,74,127
46009,note_on,0,0,0,,12,,,71,127
46009,note_on,0,0,0,,5,,,65,127
46009,note_on,0,0,0,,10,,,69,127
46217,note_off,208,0,0,,10,,,69,127
46217,note_off,0,0,0,,5,,,65,127
46217,note_off,0,0,0,,12,,,71,127
46217,note_off,0,0,0,,2,,,74,127
46217,note_off,0,0,0,,5,,,77,127
46218,note_on,1,0,0,,4,,,64,127
46218,note_on,0,0,0,,10,,,69,127
46218,note_on,0,0,0,,0,,,72,127
46323,note_off,105,0,0,,10,,,81,127
46427,note_off,104,0,0,,0,,,72,127
46427,note_off,0,0,0,,10,,,69,127
46427,note_off,0,0,0,,4,,,64,127
46428,note_on,1,0,0,,0,,,72,127
46428,note_on,0,0,0,,4,,,64,127
46428,note_on,0,0,0,,10,,,69,127
46428,note_on,0,0,0,,4,,,76,127
46428,note_on,0,0,0,,10,,,81,127
46532,note_off,104,0,0,,10,,,81,127
46533,note_on,1,0,0,,12,,,83,127
46637,note_off,104,0,0,,12,,,83,127
46637,note_off,0,0,0,,10,,,69,127
46637,note_off,0,0,0,,4,,,64,127
46637,note_off,0,0,0,,0,,,72,127
46638,note_on,1,0,0,,0,,,72,127
46638,note_on,0,0,0,,10,,,69,127
46638,note_on,0,0,0,,4,,,64,127
46638,note_on,0,0,0,,10,,,81,127
46846,note_off,208,0,0,,4,,,64,127
46846,note_off,0,0,0,,10,,,69,127
46846,note_off,0,0,0,,0,,,72,127
46847,note_on,1,0,0,,0,,,72,127
46847,note_on,0,0,0,,10,,,69,127
46847,note_on,0,0,0,,4,,,64,127
47055,note_off,208,0,0,,4,,,64,127
47055,note_off,0,0,0,,10,,,69,127
47055,note_off,0,0,0,,0,,,72,127
47055,note_off,0,0,0,,4,,,76,127
47056,note_on,1,0,0,,0,,,72,127
47056,note_on,0,0,0,,6,,,66,127
47056,note_on,0,0,0,,10,,,69,127
47056,note_on,0,0,0,,2,,,62,127
47161,note_off,105,0,0,,10,,,81,127
47265,note_off,104,0,0,,2,,,62,127
47265,note_off,0,0,0,,10,,,69,127
47265,note_off,0,0,0,,6,,,66,127
47265,note_off,0,0,0,,0,,,72,127
47266,note_on,1,0,0,,0,,,72,127
47266,note_on,0,0,0,,10,,,69,127
47266,note_on,0,0,0,,2,,,62,127
47266,note_on,0,0,0,,6,,,66,127
47266,note_on,0,0,0,,10,,,81,127
47266,note_on,0,0,0,,2,,,74,127
47266,note_on,0,0,0,,6,,,78,127
47370,note_off,104,0,0,,10,,,81,127
47371,note_on,1,0,0,,12,,,83,127
47475,note_off,104,0,0,,12,,,83,127
47475,note_off,0,0,0,,6,,,66,127
47475,note_off,0,0,0,,2,,,62,127
47475,note_off,0,0,0,,10,,,69,127
47475,note_off,0,0,0,,0,,,72,127
47476,note_on,1,0,0,,0,,,72,127
47476,note_on,0,0,0,,10,,,69,127
47476,note_on,0,0,0,,6,,,66,127
47476,note_on,0,0,0,,2,,,62,127
47476,note_on,0,0,0,,10,,,81,127
47684,note_off,208,0,0,,2,,,62,127
47684,note_off,0,0,0,,6,,,66,127
47684,note_off,0,0,0,,10,,,69,127
47684,note_off,0,0,0,,0,,,72,127
47685,note_on,1,0,0,,0,,,72,127
47685,note_on,0,0,0,,10,,,69,127
47685,note_on,0,0,0,,2,,,62,127
47685,note_on,0,0,0,,6,,,66,127
47893,note_off,208,0,0,,6,,,66,127
47893,note_off,0,0,0,,2,,,62,127
47893,note_off,0,0,0,,10,,,69,127
47893,note_off,0,0,0,,0,,,72,127
47893,note_off,0,0,0,,6,,,78,127
47893,note_off,0,0,0,,2,,,74,127
47894,note_on,1,0,0,,7,,,67,127
47894,note_on,0,0,0,,0,,,72,127
47894,note_on,0,0,0,,10,,,69,127
47894,note_on,0,0,0,,6,,,66,127
47894,note_on,0,0,0,,2,,,62,127
47999,note_off,105,0,0,,10,,,81,127
48103,note_off,104,0,0,,2,,,62,127
48103,note_off,0,0,0,,6,,,66,127
48103,note_off,0,0,0,,10,,,69,127
48103,note_off,0,0,0,,0,,,72,127
48103,note_off,0,0,0,,7,,,67,127
48104,note_on,1,0,0,,7,,,67,127
48104,note_on,0,0,0,,2,,,62,127
48104,note_on,0,0,0,,0,,,72,127
48104,note_on,0,0,0,,10,,,69,127
48104,note_on,0,0,0,,6,,,66,127
48104,note_on,0,0,0,,10,,,81,127
48104,note_on,0,0,0,,2,,,74,127
48104,note_on,0,0,0,,6,,,78,127
48208,note_off,104,0,0,,10,,,81,127
48209,note_on,1,0,0,,12,,,83,127
48313,note_off,104,0,0,,12,,,83,127
48313,note_off,0,0,0,,6,,,66,127
48313,note_off,0,0,0,,10,,,69,127
48313,note_off,0,0,0,,0,,,72,127
48313,note_off,0,0,0,,2,,,62,127
48313,note_off,0,0,0,,7,,,67,127
48314,note_on,1,0,0,,7,,,67,127
48314,note_on,0,0,0,,0,,,72,127
48314,note_on,0,0,0,,10,,,69,127
48314,note_on,0,0,0,,2,,,62,127
48314,note_on,0,0,0,,6,,,66,127
48314,note_on,0,0,0,,10,,,81,127
48519,note_off,205,0,0,,6,,,78,127
48519,note_off,0,0,0,,2,,,74,127
48522,note_off,3,0,0,,6,,,66,127
48522,note_off,0,0,0,,2,,,62,127
48522,note_off,0,0,0,,10,,,69,127
48522,note_off,0,0,0,,0,,,72,127
48522,note_off,0,0,0,,7,,,67,127
48523,note_on,1,0,0,,7,,,67,127
48523,note_on,0,0,0,,0,,,72,127
48523,note_on,0,0,0,,10,,,69,127
48523,note_on,0,0,0,,6,,,66,127
48523,note_on,0,0,0,,2,,,62,127
48731,note_off,208,0,0,,2,,,62,127
48731,note_off,0,0,0,,6,,,66,127
48731,note_off,0,0,0,,10,,,69,127
48731,note_off,0,0,0,,0,,,72,127
48731,note_off,0,0,0,,7,,,67,127
48731,note_off,0,0,0,,10,,,81,127
48732,note_on,1,0,0,,12,,,71,127
48732,note_on,0,0,0,,7,,,67,127
48732,note_on,0,0,0,,2,,,62,127
48732,note_on,0,0,0,,7,,,79,127
48836,note_off,104,0,0,,7,,,79,127
48837,note_on,1,0,0,,0,,,84,127
48941,note_off,104,0,0,,0,,,84,127
48941,note_off,0,0,0,,2,,,62,127
48941,note_off,0,0,0,,7,,,67,127
48941,note_off,0,0,0,,12,,,71,127
48942,note_on,1,0,0,,0,,,72,127
48942,note_on,0,0,0,,10,,,69,127
48942,note_on,0,0,0,,6,,,66,127
48942,note_on,0,0,0,,2,,,62,127
48942,note_on,0,0,0,,12,,,83,127
49046,note_off,104,0,0,,12,,,83,127
49047,note_on,1,0,0,,10,,,81,127
49151,note_off,104,0,0,,10,,,81,127
49151,note_off,0,0,0,,2,,,62,127
49151,note_off,0,0,0,,6,,,66,127
49151,note_off,0,0,0,,10,,,69,127
49151,note_off,0,0,0,,0,,,72,127
49152,note_on,1,0,0,,12,,,71,127
49152,note_on,0,0,0,,7,,,67,127
49152,note_on,0,0,0,,2,,,62,127
49152,note_on,0,0,0,,7,,,79,127
49256,note_off,104,0,0,,7,,,79,127
49257,note_on,1,0,0,,0,,,84,127
49361,note_off,104,0,0,,0,,,84,127
49361,note_off,0,0,0,,2,,,62,127
49361,note_off,0,0,0,,7,,,67,127
49361,note_off,0,0,0,,12,,,71,127
49362,note_on,1,0,0,,0,,,72,127
49362,note_on,0,0,0,,10,,,69,127
49362,note_on,0,0,0,,6,,,66,127
49362,note_on,0,0,0,,2,,,62,127
49362,note_on,0,0,0,,12,,,83,127
49466,note_off,104,0,0,,12,,,83,127
49467,note_on,1,0,0,,10,,,81,127
49571,note_off,104,0,0,,10,,,81,127
49571,note_off,0,0,0,,2,,,62,127
49571,note_off,0,0,0,,6,,,66,127
49571,note_off,0,0,0,,10,,,69,127
49571,note_off,0,0,0,,0,,,72,127
49572,note_on,1,0,0,,12,,,71,127
49572,note_on,0,0,0,,7,,,67,127
49572,note_on,0,0,0,,2,,,62,127
49572,note_on,0,0,0,,7,,,79,127
49676,note_off,104,0,0,,7,,,79,127
49677,note_on,1,0,0,,0,,,84,127
49781,note_off,104,0,0,,0,,,84,127
49781,note_off,0,0,0,,2,,,62,127
49781,note_off,0,0,0,,7,,,67,127
49781,note_off,0,0,0,,12,,,71,127
49782,note_on,1,0,0,,0,,,72,127
49782,note_on,0,0,0,,10,,,69,127
49782,note_on,0,0,0,,6,,,66,127
49782,note_on,0,0,0,,2,,,62,127
49782,note_on,0,0,0,,12,,,83,127
49782,note_on,0,0,0,,0,,,84,127
49886,note_off,104,0,0,,0,,,84,127
49886,note_off,0,0,0,,12,,,83,127
49887,note_on,1,0,0,,10,,,81,127
49991,note_off,104,0,0,,10,,,81,127
49991,note_off,0,0,0,,2,,,62,127
49991,note_off,0,0,0,,6,,,66,127
49991,note_off,0,0,0,,10,,,69,127
49991,note_off,0,0,0,,0,,,72,127
49992,note_on,1,0,0,,12,,,71,127
49992,note_on,0,0,0,,7,,,67,127
49992,note_on,0,0,0,,2,,,62,127
49992,note_on,0,0,0,,7,,,79,127
50096,note_off,104,0,0,,7,,,79,127
50097,note_on,1,0,0,,0,,,84,127
50201,note_off,104,0,0,,0,,,84,127
50201,note_off,0,0,0,,2,,,62,127
50201,note_off,0,0,0,,7,,,67,127
50201,note_off,0,0,0,,12,,,71,127
50202,note_on,1,0,0,,0,,,72,127
50202,note_on,0,0,0,,10,,,69,127
50202,note_on,0,0,0,,6,,,66,127
50202,note_on,0,0,0,,2,,,62,127
50202,note_on,0,0,0,,12,,,83,127
50202,note_on,0,0,0,,0,,,84,127
50306,note_off,104,0,0,,0,,,84,127
50306,note_off,0,0,0,,12,,,83,127
50307,note_on,1,0,0,,10,,,81,127
50411,note_off,104,0,0,,10,,,81,127
50411,note_off,0,0,0,,2,,,62,127
50411,note_off,0,0,0,,6,,,66,127
50411,note_off,0,0,0,,10,,,69,127
50411,note_off,0,0,0,,0,,,72,127
50412,note_on,1,0,0,,7,,,43,127
50412,note_on,0,0,0,,12,,,83,127
50517,note_on,105,0,0,,7,,,79,127
50543,note_off,26,0,0,,12,,,83,127
50620,note_off,77,0,0,,7,,,79,127
50620,note_off,0,0,0,,7,,,43,127
50621,note_on,1,0,0,,7,,,67,127
50621,note_on,0,0,0,,2,,,74,127
50725,note_off,104,0,0,,2,,,74,127
50726,note_on,1,0,0,,12,,,83,127
50830,note_off,104,0,0,,12,,,83,127
50830,note_off,0,0,0,,7,,,67,127
50831,note_on,1,0,0,,7,,,43,127
50831,note_on,0,0,0,,0,,,84,127
50936,note_on,105,0,0,,4,,,76,127
50962,note_off,26,0,0,,0,,,84,127
51039,note_off,77,0,0,,4,,,76,127
51039,note_off,0,0,0,,7,,,43,127
51040,note_on,1,0,0,,7,,,67,127
51040,note_on,0,0,0,,6,,,78,127
51144,note_off,104,0,0,,6,,,78,127
51145,note_on,1,0,0,,10,,,81,127
51249,note_off,104,0,0,,10,,,81,127
51249,note_off,0,0,0,,7,,,67,127
51250,note_on,1,0,0,,7,,,43,127
51250,note_on,0,0,0,,12,,,83,127
51355,note_on,105,0,0,,7,,,79,127
51381,note_off,26,0,0,,12,,,83,127
51458,note_off,77,0,0,,7,,,79,127
51458,note_off,0,0,0,,7,,,43,127
51459,note_on,1,0,0,,7,,,67,127
51459,note_on,0,0,0,,2,,,74,127
51563,note_off,104,0,0,,2,,,74,127
51564,note_on,1,0,0,,12,,,83,127
51668,note_off,104,0,0,,12,,,83,127
51668,note_off,0,0,0,,7,,,67,127
51669,note_on,1,0,0,,7,,,43,127
51669,note_on,0,0,0,,0,,,84,127
51774,note_on,105,0,0,,4,,,76,127
51800,note_off,26,0,0,,0,,,84,127
51877,note_off,77,0,0,,4,,,76,127
51877,note_off,0,0,0,,7,,,43,127
51878,note_on,1,0,0,,7,,,67,127
51878,note_on,0,0,0,,6,,,78,127
51982,note_off,104,0,0,,6,,,78,127
51983,note_on,1,0,0,,10,,,81,127
52087,note_off,104,0,0,,10,,,81,127
52087,note_off,0,0,0,,7,,,67,127
52088,note_on,1,0,0,,7,,,43,127
52088,note_on,0,0,0,,12,,,83,127
52193,note_on,105,0,0,,7,,,79,127
52219,note_off,26,0,0,,12,,,83,127
52296,note_off,77,0,0,,7,,,79,127
52296,note_off,0,0,0,,7,,,43,127
52297,note_on,1,0,0,,7,,,67,127
52297,note_on,0,0,0,,2,,,74,127
52401,note_off,104,0,0,,2,,,74,127
52402,note_on,1,0,0,,12,,,83,127
52506,note_off,104,0,0,,12,,,83,127
52506,note_off,0,0,0,,7,,,67,127
52507,note_on,1,0,0,,10,,,45,127
52507,note_on,0,0,0,,0,,,84,127
52612,note_on,105,0,0,,10,,,81,127
52638,note_off,26,0,0,,0,,,84,127
52715,note_off,77,0,0,,10,,,81,127
52715,note_off,0,0,0,,10,,,45,127
52716,note_on,1,0,0,,10,,,69,127
52716,note_on,0,0,0,,6,,,78,127
52820,note_off,104,0,0,,6,,,78,127
52821,note_on,1,0,0,,0,,,72,127
52925,note_off,104,0,0,,0,,,72,127
52925,note_off,0,0,0,,10,,,69,127
52926,note_on,1,0,0,,12,,,47,127
52926,note_on,0,0,0,,2,,,74,127
53031,note_on,105,0,0,,2,,,86,127
53057,note_off,26,0,0,,2,,,74,127
53134,note_off,77,0,0,,2,,,86,127
53134,note_off,0,0,0,,12,,,47,127
53135,note_on,1,0,0,,12,,,71,127
53135,note_on,0,0,0,,0,,,84,127
53239,note_off,104,0,0,,0,,,84,127
53240,note_on,1,0,0,,12,,,83,127
53344,note_off,104,0,0,,12,,,83,127
53344,note_off,0,0,0,,12,,,71,127
53345,note_on,1,0,0,,0,,,48,127
53345,note_on,0,0,0,,10,,,81,127
53449,note_off,104,0,0,,10,,,81,127
53450,note_on,1,0,0,,7,,,79,127
53554,note_off,104,0,0,,7,,,79,127
53554,note_off,0,0,0,,0,,,48,127
53555,note_on,1,0,0,,0,,,72,127
53555,note_on,0,0,0,,6,,,78,127
53659,note_off,104,0,0,,6,,,78,127
53660,note_on,1,0,0,,4,,,76,127
53764,note_off,104,0,0,,4,,,76,127
53764,note_off,0,0,0,,0,,,72,127
53765,note_on,1,0,0,,2,,,50,127
53765,note_on,0,0,0,,6,,,78,127
53869,note_off,104,0,0,,6,,,78,127
53870,note_on,1,0,0,,7,,,79,127
53974,note_off,104,0,0,,7,,,79,127
53974,note_off,0,0,0,,2,,,50,127
53975,note_on,1,0,0,,2,,,62,127
53975,note_on,0,0,0,,10,,,81,127
54079,note_off,104,0,0,,10,,,81,127
54080,note_on,1,0,0,,7,,,79,127
54184,note_off,104,0,0,,7,,,79,127
54185,note_on,1,0,0,,6,,,78,127
54289,note_off,104,0,0,,6,,,78,127
54290,note_on,1,0,0,,4,,,76,127
54394,note_off,104,0,0,,4,,,76,127
54394,note_off,0,0,0,,2,,,62,127
54395,note_on,1,0,0,,6,,,54,127
54395,note_on,0,0,0,,2,,,74,127
54499,note_off,104,0,0,,2,,,74,127
54500,note_on,1,0,0,,0,,,72,127
54604,note_off,104,0,0,,0,,,72,127
54604,note_off,0,0,0,,6,,,54,127
54605,note_on,1,0,0,,7,,,55,127
54605,note_on,0,0,0,,12,,,71,127
54709,note_off,104,0,0,,12,,,71,127
54710,note_on,1,0,0,,4,,,76,127
54814,note_off,104,0,0,,4,,,76,127
54814,note_off,0,0,0,,7,,,55,127
54815,note_on,1,0,0,,0,,,48,127
54815,note_on,0,0,0,,2,,,74,127
54919,note_off,104,0,0,,2,,,74,127
54920,note_on,1,0,0,,0,,,72,127
55024,note_off,104,0,0,,0,,,72,127
55024,note_off,0,0,0,,0,,,48,127
55025,note_on,1,0,0,,2,,,50,127
55025,note_on,0,0,0,,12,,,71,127
55129,note_off,104,0,0,,12,,,71,127
55130,note_on,1,0,0,,10,,,69,127
55234,note_off,104,0,0,,10,,,69,127
55235,note_on,1,0,0,,2,,,38,127
55235,note_on,0,0,0,,7,,,67,127
55339,note_off,104,0,0,,7,,,67,127
55340,note_on,1,0,0,,6,,,66,127
55440,note_off,100,0,0,,2,,,50,127
55443,note_off,3,0,0,,6,,,66,127
55443,note_off,0,0,0,,2,,,38,127
55444,note_on,1,0,0,,7,,,43,127
55444,note_on,0,0,0,,12,,,83,127
55548,note_off,104,0,0,,12,,,83,127
55549,note_on,1,0,0,,7,,,79,127
55653,note_off,104,0,0,,7,,,79,127
55654,note_on,1,0,0,,2,,,74,127
55758,note_off,104,0,0,,2,,,74,127
55759,note_on,1,0,0,,12,,,71,127
55863,note_off,104,0,0,,12,,,71,127
55864,note_on,1,0,0,,7,,,67,127
55968,note_off,104,0,0,,7,,,67,127
55969,note_on,1,0,0,,2,,,62,127
56073,note_off,104,0,0,,2,,,62,127
56073,note_off,0,0,0,,7,,,43,127
56074,note_on,1,0,0,,7,,,55,127
56178,note_off,104,0,0,,7,,,55,127
56179,note_on,1,0,0,,2,,,50,127
56283,note_off,104,0,0,,2,,,50,127
56284,note_on,1,0,0,,7,,,43,127
56492,note_off,208,0,0,,7,,,43,127
56493,note_on,1,0,0,,0,,,48,127
56493,note_on,0,0,0,,2,,,74,127
56493,note_on,0,0,0,,7,,,79,127
56493,note_on,0,0,0,,12,,,83,127
56597,note_off,104,0,0,,12,,,83,127
56597,note_off,0,0,0,,2,,,74,127
56598,note_on,1,0,0,,0,,,84,127
56598,note_on,0,0,0,,4,,,76,127
56702,note_off,104,0,0,,4,,,76,127
56702,note_off,0,0,0,,0,,,84,127
56702,note_off,0,0,0,,0,,,48,127
56703,note_on,1,0,0,,2,,,50,127
56703,note_on,0,0,0,,12,,,83,127
56703,note_on,0,0,0,,2,,,74,127
56908,note_off,205,0,0,,7,,,79,127
56911,note_off,3,0,0,,12,,,83,127
56912,note_on,1,0,0,,2,,,38,127
56912,note_on,0,0,0,,10,,,81,127
57117,note_off,205,0,0,,2,,,74,127
57117,note_off,0,0,0,,2,,,50,127
57120,note_off,3,0,0,,10,,,81,127
57120,note_off,0,0,0,,2,,,38,127
57121,note_on,1,0,0,,7,,,43,127
57121,note_on,0,0,0,,12,,,83,127
57225,note_off,104,0,0,,12,,,83,127
57226,note_on,1,0,0,,7,,,79,127
57330,note_off,104,0,0,,7,,,79,127
57331,note_on,1,0,0,,2,,,74,127
57435,note_off,104,0,0,,2,,,74,127
57436,note_on,1,0,0,,12,,,71,127
57540,note_off,104,0,0,,12,,,71,127
57541,note_on,1,0,0,,7,,,67,127
57645,note_off,104,0,0,,7,,,67,127
57646,note_on,1,0,0,,2,,,62,127
57750,note_off,104,0,0,,2,,,62,127
57750,note_off,0,0,0,,7,,,43,127
57751,note_on,1,0,0,,7,,,55,127
57855,note_off,104,0,0,,7,,,55,127
57856,note_on,1,0,0,,2,,,50,127
57960,note_off,104,0,0,,2,,,50,127
57961,note_on,1,0,0,,7,,,43,127
58169,note_off,208,0,0,,7,,,43,127
58170,note_on,1,0,0,,0,,,48,127
58170,note_on,0,0,0,,12,,,83,127
58170,note_on,0,0,0,,2,,,74,127
58170,note_on,0,0,0,,7,,,79,127
58274,note_off,104,0,0,,2,,,74,127
58274,note_off,0,0,0,,12,,,83,127
58275,note_on,1,0,0,,0,,,84,127
58275,note_on,0,0,0,,4,,,76,127
58379,note_off,104,0,0,,4,,,76,127
58379,note_off,0,0,0,,0,,,84,127
58379,note_off,0,0,0,,0,,,48,127
58380,note_on,1,0,0,,2,,,50,127
58380,note_on,0,0,0,,12,,,83,127
58380,note_on,0,0,0,,2,,,74,127
58585,note_off,205,0,0,,7,,,79,127
58588,note_off,3,0,0,,12,,,83,127
58589,note_on,1,0,0,,2,,,38,127
58589,note_on,0,0,0,,10,,,81,127
58794,note_off,205,0,0,,2,,,74,127
58794,note_off,0,0,0,,2,,,50,127
58797,note_off,3,0,0,,10,,,81,127
58797,note_off,0,0,0,,2,,,38,127
58798,note_on,1,0,0,,7,,,55,127
58798,note_on,0,0,0,,7,,,79,127
58902,note_off,104,0,0,,7,,,79,127
58903,note_on,1,0,0,,6,,,78,127
59007,note_off,104,0,0,,6,,,78,127
59007,note_off,0,0,0,,7,,,55,127
59008,note_on,1,0,0,,12,,,59,127
59008,note_on,0,0,0,,4,,,76,127
59112,note_off,104,0,0,,4,,,76,127
59113,note_on,1,0,0,,2,,,74,127
59217,note_off,104,0,0,,2,,,74,127
59217,note_off,0,0,0,,12,,,59,127
59218,note_on,1,0,0,,0,,,60,127
59218,note_on,0,0,0,,4,,,76,127
59322,note_off,104,0,0,,4,,,76,127
59323,note_on,1,0,0,,6,,,78,127
59427,note_off,104,0,0,,6,,,78,127
59427,note_off,0,0,0,,0,,,60,127
59428,note_on,1,0,0,,10,,,57,127
59428,note_on,0,0,0,,7,,,79,127
59532,note_off,104,0,0,,7,,,79,127
59533,note_on,1,0,0,,10,,,81,127
59637,note_off,104,0,0,,10,,,81,127
59637,note_off,0,0,0,,10,,,57,127
59638,note_on,1,0,0,,12,,,59,127
59638,note_on,0,0,0,,12,,,83,127
59742,note_off,104,0,0,,12,,,83,127
59743,note_on,1,0,0,,0,,,84,127
59847,note_off,104,0,0,,0,,,84,127
59847,note_off,0,0,0,,12,,,59,127
59848,note_on,1,0,0,,0,,,60,127
59848,note_on,0,0,0,,2,,,86,127
59952,note_off,104,0,0,,2,,,86,127
59953,note_on,1,0,0,,0,,,84,127
60057,note_off,104,0,0,,0,,,84,127
60057,note_off,0,0,0,,0,,,60,127
60058,note_on,1,0,0,,2,,,62,127
60058,note_on,0,0,0,,12,,,83,127
60162,note_off,104,0,0,,12,,,83,127
60163,note_on,1,0,0,,10,,,81,127
60267,note_off,104,0,0,,10,,,81,127
60268,note_on,1,0,0,,2,,,50,127
60268,note_on,0,0,0,,7,,,79,127
60372,note_off,104,0,0,,7,,,79,127
60373,note_on,1,0,0,,6,,,78,127
60473,note_off,100,0,0,,2,,,62,127
60476,note_off,3,0,0,,6,,,78,127
60476,note_off,0,0,0,,2,,,50,127
60477,note_on,1,0,0,,7,,,55,127
60477,note_on,0,0,0,,7,,,79,127
60581,note_off,104,0,0,,7,,,79,127
60582,note_on,1,0,0,,12,,,83,127
60686,note_off,104,0,0,,12,,,83,127
60686,note_off,0,0,0,,7,,,55,127
60687,note_on,1,0,0,,12,,,59,127
60687,note_on,0,0,0,,8,,,80,127
60791,note_off,104,0,0,,8,,,80,127
60792,note_on,1,0,0,,10,,,81,127
60896,note_off,104,0,0,,10,,,81,127
60896,note_off,0,0,0,,12,,,59,127
60897,note_on,1,0,0,,0,,,60,127
60897,note_on,0,0,0,,4,,,76,127
61001,note_off,104,0,0,,4,,,76,127
61002,note_on,1,0,0,,7,,,79,127
61106,note_off,104,0,0,,7,,,79,127
61106,note_off,0,0,0,,0,,,60,127
61107,note_on,1,0,0,,10,,,57,127
61107,note_on,0,0,0,,6,,,78,127
61211,note_off,104,0,0,,6,,,78,127
61212,note_on,1,0,0,,10,,,81,127
61316,note_off,104,0,0,,10,,,81,127
61316,note_off,0,0,0,,10,,,57,127
61317,note_on,1,0,0,,12,,,59,127
61317,note_on,0,0,0,,7,,,79,127
61421,note_off,104,0,0,,7,,,79,127
61422,note_on,1,0,0,,12,,,71,127
61526,note_off,104,0,0,,12,,,71,127
61526,note_off,0,0,0,,12,,,59,127
61527,note_on,1,0,0,,0,,,60,127
61527,note_on,0,0,0,,10,,,69,127
61631,note_off,104,0,0,,10,,,69,127
61632,note_on,1,0,0,,0,,,72,127
61736,note_off,104,0,0,,0,,,72,127
61736,note_off,0,0,0,,0,,,60,127
61737,note_on,1,0,0,,2,,,62,127
61737,note_on,0,0,0,,12,,,71,127
61841,note_off,104,0,0,,12,,,71,127
61842,note_on,1,0,0,,10,,,69,127
61946,note_off,104,0,0,,10,,,69,127
61947,note_on,1,0,0,,2,,,50,127
61947,note_on,0,0,0,,7,,,67,127
62051,note_off,104,0,0,,7,,,67,127
62052,note_on,1,0,0,,6,,,66,127
62152,note_off,100,0,0,,2,,,62,127
62155,note_off,3,0,0,,6,,,66,127
62155,note_off,0,0,0,,2,,,50,127
62156,note_on,1,0,0,,7,,,55,127
62156,note_on,0,0,0,,7,,,67,127
62260,note_off,104,0,0,,7,,,67,127
62261,note_on,1,0,0,,12,,,83,127
62365,note_off,104,0,0,,12,,,83,127
62365,note_off,0,0,0,,7,,,55,127
62366,note_on,1,0,0,,12,,,59,127
62366,note_on,0,0,0,,8,,,80,127
62470,note_off,104,0,0,,8,,,80,127
62471,note_on,1,0,0,,10,,,81,127
62575,note_off,104,0,0,,10,,,81,127
62575,note_off,0,0,0,,12,,,59,127
62576,note_on,1,0,0,,0,,,60,127
62576,note_on,0,0,0,,4,,,76,127
62680,note_off,104,0,0,,4,,,76,127
62681,note_on,1,0,0,,7,,,79,127
62785,note_off,104,0,0,,7,,,79,127
62785,note_off,0,0,0,,0,,,60,127
62786,note_on,1,0,0,,10,,,57,127
62786,note_on,0,0,0,,6,,,78,127
62890,note_off,104,0,0,,6,,,78,127
62891,note_on,1,0,0,,10,,,81,127
62995,note_off,104,0,0,,10,,,81,127
62995,note_off,0,0,0,,10,,,57,127
62996,note_on,1,0,0,,12,,,59,127
62996,note_on,0,0,0,,7,,,79,127
63100,note_off,104,0,0,,7,,,79,127
63101,note_on,1,0,0,,12,,,71,127
63205,note_off,104,0,0,,12,,,71,127
63205,note_off,0,0,0,,12,,,59,127
63206,note_on,1,0,0,,0,,,60,127
63206,note_on,0,0,0,,10,,,69,127
63310,note_off,104,0,0,,10,,,69,127
63311,note_on,1,0,0,,0,,,72,127
63415,note_off,104,0,0,,0,,,72,127
63415,note_off,0,0,0,,0,,,60,127
63416,note_on,1,0,0,,2,,,62,127
63416,note_on,0,0,0,,12,,,71,127
63520,note_off,104,0,0,,12,,,71,127
63521,note_on,1,0,0,,10,,,69,127
63625,note_off,104,0,0,,10,,,69,127
63626,note_on,1,0,0,,2,,,50,127
63626,note_on,0,0,0,,7,,,67,127
63730,note_off,104,0,0,,7,,,67,127
63731,note_on,1,0,0,,6,,,66,127
63831,note_off,100,0,0,,2,,,62,127
63834,note_off,3,0,0,,6,,,66,127
63834,note_off,0,0,0,,2,,,50,127
63835,note_on,1,0,0,,7,,,55,127
63835,note_on,0,0,0,,7,,,67,127
63939,note_off,104,0,0,,7,,,67,127
63940,note_on,1,0,0,,12,,,59,127
64044,note_off,104,0,0,,12,,,59,127
64044,note_off,0,0,0,,7,,,55,127
64045,note_on,1,0,0,,0,,,48,127
64045,note_on,0,0,0,,10,,,57,127
64149,note_off,104,0,0,,10,,,57,127
64150,note_on,1,0,0,,0,,,60,127
64254,note_off,104,0,0,,0,,,60,127
64254,note_off,0,0,0,,0,,,48,127
64255,note_on,1,0,0,,2,,,50,127
64255,note_on,0,0,0,,12,,,59,127
64359,note_off,104,0,0,,12,,,59,127
64360,note_on,1,0,0,,10,,,57,127
64464,note_off,104,0,0,,10,,,57,127
64464,note_off,0,0,0,,2,,,50,127
64465,note_on,1,0,0,,2,,,38,127
64465,note_on,0,0,0,,7,,,55,127
64569,note_off,104,0,0,,7,,,55,127
64570,note_on,1,0,0,,6,,,54,127
64674,note_off,104,0,0,,6,,,54,127
64674,note_off,0,0,0,,2,,,38,127
64675,note_on,1,0,0,,7,,,55,127
64675,note_on,0,0,0,,7,,,67,127
64779,note_off,104,0,0,,7,,,67,127
64780,note_on,1,0,0,,12,,,59,127
64884,note_off,104,0,0,,12,,,59,127
64884,note_off,0,0,0,,7,,,55,127
64885,note_on,1,0,0,,0,,,48,127
64885,note_on,0,0,0,,10,,,57,127
64989,note_off,104,0,0,,10,,,57,127
64990,note_on,1,0,0,,0,,,60,127
65094,note_off,104,0,0,,0,,,60,127
65094,note_off,0,0,0,,0,,,48,127
65095,note_on,1,0,0,,2,,,50,127
65095,note_on,0,0,0,,12,,,59,127
65199,note_off,104,0,0,,12,,,59,127
65200,note_on,1,0,0,,10,,,57,127
65304,note_off,104,0,0,,10,,,57,127
65304,note_off,0,0,0,,2,,,50,127
65305,note_on,1,0,0,,2,,,38,127
65305,note_on,0,0,0,,7,,,55,127
65409,note_off,104,0,0,,7,,,55,127
65410,note_on,1,0,0,,6,,,54,127
65514,note_off,104,0,0,,6,,,54,127
65514,note_off,0,0,0,,2,,,38,127
65515,note_on,1,0,0,,7,,,43,127
65515,note_on,0,0,0,,7,,,67,127
65619,note_off,104,0,0,,7,,,67,127
65620,note_on,1,0,0,,12,,,59,127
65724,note_off,104,0,0,,12,,,59,127
65724,note_off,0,0,0,,7,,,43,127
65725,note_on,1,0,0,,0,,,48,127
65725,note_on,0,0,0,,10,,,57,127
65829,note_off,104,0,0,,10,,,57,127
65830,note_on,1,0,0,,0,,,60,127
65934,note_off,104,0,0,,0,,,60,127
65934,note_off,0,0,0,,0,,,48,127
65935,note_on,1,0,0,,2,,,50,127
65935,note_on,0,0,0,,12,,,59,127
66039,note_off,104,0,0,,12,,,59,127
66040,note_on,1,0,0,,10,,,57,127
66144,note_off,104,0,0,,10,,,57,127
66144,note_off,0,0,0,,2,,,50,127
66145,note_on,1,0,0,,2,,,38,127
66145,note_on,0,0,0,,7,,,55,127
66249,note_off,104,0,0,,7,,,55,127
66250,note_on,1,0,0,,6,,,54,127
66354,note_off,104,0,0,,6,,,54,127
66354,note_off,0,0,0,,2,,,38,127
66355,note_on,1,0,0,,7,,,43,127
66355,note_on,0,0,0,,7,,,55,127
66459,note_off,104,0,0,,7,,,55,127
66460,note_on,1,0,0,,12,,,59,127
66564,note_off,104,0,0,,12,,,59,127
66565,note_on,1,0,0,,2,,,62,127
66669,note_off,104,0,0,,2,,,62,127
66670,note_on,1,0,0,,7,,,67,127
66774,note_off,104,0,0,,7,,,67,127
66774,note_off,0,0,0,,7,,,43,127
66775,note_on,1,0,0,,7,,,43,127
66775,note_on,0,0,0,,12,,,59,127
66879,note_off,104,0,0,,12,,,59,127
66880,note_on,1,0,0,,2,,,62,127
66984,note_off,104,0,0,,2,,,62,127
66985,note_on,1,0,0,,7,,,67,127
67089,note_off,104,0,0,,7,,,67,127
67090,note_on,1,0,0,,12,,,71,127
67194,note_off,104,0,0,,12,,,71,127
67194,note_off,0,0,0,,7,,,43,127
67195,note_on,1,0,0,,7,,,43,127
67195,note_on,0,0,0,,2,,,62,127
67299,note_off,104,0,0,,2,,,62,127
67300,note_on,1,0,0,,7,,,67,127
67404,note_off,104,0,0,,7,,,67,127
67405,note_on,1,0,0,,12,,,71,127
67509,note_off,104,0,0,,12,,,71,127
67510,note_on,1,0,0,,2,,,74,127
67614,note_off,104,0,0,,2,,,74,127
67614,note_off,0,0,0,,7,,,43,127
67615,note_on,1,0,0,,7,,,43,127
67615,note_on,0,0,0,,7,,,67,127
67719,note_off,104,0,0,,7,,,67,127
67720,note_on,1,0,0,,12,,,71,127
67824,note_off,104,0,0,,12,,,71,127
67825,note_on,1,0,0,,2,,,74,127
67929,note_off,104,0,0,,2,,,74,127
67930,note_on,1,0,0,,7,,,79,127
68034,note_off,104,0,0,,7,,,79,127
68034,note_off,0,0,0,,7,,,43,127
68035,note_on,1,0,0,,7,,,43,127
68035,note_on,0,0,0,,7,,,67,127
69292,note_off,1257,0,0,,7,,,67,127
69292,note_off,0,0,0,,7,,,43,127
75264,end_of_track,5972,1,0,,,,,,
