tick,type,time,meta,track,program,channel,pitch,tempo,note,velocity
0,copyright,0,1,0,,,,,,
0,program_change,0,0,0,6,0,,,,
0,pitchwheel,0,0,0,,0,0,,,
0,program_change,0,0,0,6,1,,,,
0,pitchwheel,0,0,0,,1,-590,,,
0,program_change,0,0,0,6,2,,,,
0,pitchwheel,0,0,0,,2,-272,,,
0,program_change,0,0,0,6,3,,,,
0,pitchwheel,0,0,0,,3,-353,,,
0,program_change,0,0,0,6,4,,,,
0,pitchwheel,0,0,0,,4,-560,,,
0,program_change,0,0,0,6,5,,,,
0,pitchwheel,0,0,0,,5,-80,,,
0,program_change,0,0,0,6,6,,,,
0,pitchwheel,0,0,0,,6,-625,,,
0,program_change,0,0,0,6,7,,,,
0,pitchwheel,0,0,0,,7,-130,,,
0,program_change,0,0,0,6,8,,,,
0,pitchwheel,0,0,0,,8,-512,,,
0,program_change,0,0,0,6,10,,,,
0,pitchwheel,0,0,0,,10,-464,,,
0,program_change,0,0,0,6,11,,,,
0,pitchwheel,0,0,0,,11,-208,,,
0,program_change,0,0,0,6,12,,,,
0,pitchwheel,0,0,0,,12,-553,,,
0,set_tempo,0,1,0,,,,500000,,
115,note_on,115,0,0,,10,,,57,127
115,note_on,0,0,0,,4,,,76,127
344,note_off,229,0,0,,4,,,76,127
345,note_on,1,0,0,,4,,,64,127
345,note_on,0,0,0,,4,,,76,127
574,note_off,229,0,0,,4,,,76,127
574,note_off,0,0,0,,4,,,64,127
575,note_on,1,0,0,,1,,,61,127
575,note_on,0,0,0,,6,,,78,127
631,note_off,56,0,0,,6,,,78,127
632,note_on,1,0,0,,4,,,76,127
688,note_off,56,0,0,,4,,,76,127
689,note_on,1,0,0,,6,,,78,127
745,note_off,56,0,0,,6,,,78,127
746,note_on,1,0,0,,4,,,76,127
802,note_off,56,0,0,,4,,,76,127
802,note_off,0,0,0,,1,,,61,127
802,note_off,0,0,0,,10,,,57,127
803,note_on,1,0,0,,10,,,57,127
803,note_on,0,0,0,,6,,,78,127
859,note_off,56,0,0,,6,,,78,127
860,note_on,1,0,0,,4,,,76,127
916,note_off,56,0,0,,4,,,76,127
917,note_on,1,0,0,,2,,,74,127
973,note_off,56,0,0,,2,,,74,127
974,note_on,1,0,0,,4,,,76,127
1030,note_off,56,0,0,,4,,,76,127
1030,note_off,0,0,0,,10,,,57,127
1031,note_on,1,0,0,,2,,,62,127
1031,note_on,0,0,0,,4,,,76,127
1260,note_off,229,0,0,,4,,,76,127
1261,note_on,1,0,0,,10,,,57,127
1261,note_on,0,0,0,,6,,,78,127
1490,note_off,229,0,0,,10,,,57,127
1491,note_on,1,0,0,,6,,,54,127
1720,note_off,229,0,0,,6,,,54,127
1720,note_off,0,0,0,,2,,,62,127
1721,note_on,1,0,0,,2,,,50,127
1721,note_on,0,0,0,,6,,,66,127
1950,note_off,229,0,0,,6,,,66,127
1950,note_off,0,0,0,,2,,,50,127
1950,note_off,0,0,0,,6,,,78,127
1951,note_on,1,0,0,,4,,,52,127
1951,note_on,0,0,0,,10,,,57,127
1951,note_on,0,0,0,,1,,,61,127
1951,note_on,0,0,0,,4,,,76,127
2065,note_off,114,0,0,,4,,,76,127
2066,note_on,1,0,0,,2,,,74,127
2180,note_off,114,0,0,,2,,,74,127
2181,note_on,1,0,0,,1,,,73,127
2295,note_off,114,0,0,,1,,,73,127
2296,note_on,1,0,0,,12,,,71,127
2410,note_off,114,0,0,,12,,,71,127
2410,note_off,0,0,0,,1,,,61,127
2410,note_off,0,0,0,,10,,,57,127
2410,note_off,0,0,0,,4,,,52,127
2411,note_on,1,0,0,,4,,,52,127
2411,note_on,0,0,0,,12,,,59,127
2411,note_on,0,0,0,,10,,,57,127
2411,note_on,0,0,0,,10,,,69,127
2525,note_off,114,0,0,,10,,,69,127
2526,note_on,1,0,0,,12,,,71,127
2640,note_off,114,0,0,,12,,,71,127
2641,note_on,1,0,0,,10,,,69,127
2755,note_off,114,0,0,,10,,,69,127
2756,note_on,1,0,0,,8,,,68,127
2870,note_off,114,0,0,,8,,,68,127
2870,note_off,0,0,0,,10,,,57,127
2870,note_off,0,0,0,,12,,,59,127
2870,note_off,0,0,0,,4,,,52,127
2871,note_on,1,0,0,,10,,,57,127
2871,note_on,0,0,0,,8,,,68,127
3100,note_off,229,0,0,,8,,,68,127
3100,note_off,0,0,0,,10,,,57,127
3101,note_on,1,0,0,,4,,,52,127
3101,note_on,0,0,0,,10,,,69,127
3330,note_off,229,0,0,,4,,,52,127
3331,note_on,1,0,0,,1,,,49,127
3533,note_off,202,0,0,,10,,,69,127
3561,note_off,28,0,0,,1,,,49,127
3562,note_on,1,0,0,,10,,,45,127
3562,note_on,0,0,0,,4,,,64,127
3791,note_off,229,0,0,,4,,,64,127
3791,note_off,0,0,0,,10,,,45,127
3792,note_on,1,0,0,,10,,,45,127
3792,note_on,0,0,0,,1,,,49,127
3792,note_on,0,0,0,,10,,,57,127
3792,note_on,0,0,0,,4,,,52,127
3792,note_on,0,0,0,,4,,,76,127
4021,note_off,229,0,0,,4,,,76,127
4022,note_on,1,0,0,,4,,,76,127
4251,note_off,229,0,0,,4,,,76,127
4252,note_on,1,0,0,,6,,,78,127
4308,note_off,56,0,0,,6,,,78,127
4309,note_on,1,0,0,,4,,,76,127
4365,note_off,56,0,0,,4,,,76,127
4366,note_on,1,0,0,,6,,,78,127
4422,note_off,56,0,0,,6,,,78,127
4423,note_on,1,0,0,,4,,,76,127
4479,note_off,56,0,0,,4,,,76,127
4480,note_on,1,0,0,,6,,,78,127
4536,note_off,56,0,0,,6,,,78,127
4537,note_on,1,0,0,,4,,,76,127
4593,note_off,56,0,0,,4,,,76,127
4594,note_on,1,0,0,,2,,,74,127
4650,note_off,56,0,0,,2,,,74,127
4651,note_on,1,0,0,,4,,,76,127
4707,note_off,56,0,0,,4,,,76,127
4707,note_off,0,0,0,,4,,,52,127
4707,note_off,0,0,0,,10,,,57,127
4707,note_off,0,0,0,,1,,,49,127
4707,note_off,0,0,0,,10,,,45,127
4708,note_on,1,0,0,,2,,,62,127
4708,note_on,0,0,0,,6,,,78,127
4937,note_off,229,0,0,,6,,,78,127
4938,note_on,1,0,0,,10,,,57,127
4938,note_on,0,0,0,,8,,,80,127
5167,note_off,229,0,0,,10,,,57,127
5168,note_on,1,0,0,,6,,,54,127
5397,note_off,229,0,0,,6,,,54,127
5397,note_off,0,0,0,,8,,,80,127
5398,note_on,1,0,0,,2,,,50,127
5398,note_on,0,0,0,,10,,,81,127
5627,note_off,229,0,0,,10,,,81,127
5627,note_off,0,0,0,,2,,,50,127
5627,note_off,0,0,0,,2,,,62,127
5628,note_on,1,0,0,,10,,,57,127
5628,note_on,0,0,0,,4,,,52,127
5628,note_on,0,0,0,,1,,,61,127
5628,note_on,0,0,0,,10,,,81,127
5742,note_off,114,0,0,,10,,,81,127
5743,note_on,1,0,0,,8,,,80,127
5857,note_off,114,0,0,,8,,,80,127
5858,note_on,1,0,0,,8,,,80,127
5972,note_off,114,0,0,,8,,,80,127
5973,note_on,1,0,0,,6,,,78,127
6087,note_off,114,0,0,,6,,,78,127
6087,note_off,0,0,0,,1,,,61,127
6087,note_off,0,0,0,,4,,,52,127
6087,note_off,0,0,0,,10,,,57,127
6088,note_on,1,0,0,,4,,,52,127
6088,note_on,0,0,0,,12,,,59,127
6088,note_on,0,0,0,,10,,,57,127
6088,note_on,0,0,0,,6,,,78,127
6202,note_off,114,0,0,,6,,,78,127
6203,note_on,1,0,0,,4,,,76,127
6317,note_off,114,0,0,,4,,,76,127
6318,note_on,1,0,0,,4,,,76,127
6432,note_off,114,0,0,,4,,,76,127
6433,note_on,1,0,0,,2,,,74,127
6547,note_off,114,0,0,,2,,,74,127
6547,note_off,0,0,0,,10,,,57,127
6547,note_off,0,0,0,,12,,,59,127
6547,note_off,0,0,0,,4,,,52,127
6548,note_on,1,0,0,,10,,,57,127
6548,note_on,0,0,0,,2,,,74,127
6777,note_off,229,0,0,,2,,,74,127
6777,note_off,0,0,0,,10,,,57,127
6778,note_on,1,0,0,,4,,,52,127
6778,note_on,0,0,0,,1,,,73,127
7007,note_off,229,0,0,,4,,,52,127
7008,note_on,1,0,0,,1,,,49,127
7123,note_off,115,0,0,,1,,,73,127
7237,note_off,114,0,0,,1,,,49,127
7238,note_on,1,0,0,,10,,,45,127
7238,note_on,0,0,0,,10,,,69,127
7467,note_off,229,0,0,,10,,,69,127
7467,note_off,0,0,0,,10,,,45,127
7468,note_on,1,0,0,,4,,,64,127
7468,note_on,0,0,0,,8,,,68,127
7582,note_off,114,0,0,,4,,,64,127
7583,note_on,1,0,0,,12,,,59,127
7697,note_off,114,0,0,,12,,,59,127
7697,note_off,0,0,0,,8,,,68,127
7698,note_on,1,0,0,,8,,,56,127
7698,note_on,0,0,0,,12,,,71,127
7698,note_on,0,0,0,,2,,,62,127
7812,note_off,114,0,0,,8,,,56,127
7813,note_on,1,0,0,,4,,,52,127
7927,note_off,114,0,0,,4,,,52,127
7927,note_off,0,0,0,,2,,,62,127
7928,note_on,1,0,0,,10,,,57,127
7928,note_on,0,0,0,,1,,,61,127
8042,note_off,114,0,0,,10,,,57,127
8043,note_on,1,0,0,,4,,,52,127
8153,note_off,110,0,0,,12,,,71,127
8157,note_off,4,0,0,,4,,,52,127
8158,note_on,1,0,0,,1,,,49,127
8158,note_on,0,0,0,,10,,,69,127
8272,note_off,114,0,0,,1,,,49,127
8273,note_on,1,0,0,,10,,,45,127
8383,note_off,110,0,0,,1,,,61,127
8387,note_off,4,0,0,,10,,,45,127
8387,note_off,0,0,0,,10,,,69,127
8388,note_on,1,0,0,,4,,,64,127
8388,note_on,0,0,0,,8,,,68,127
8502,note_off,114,0,0,,4,,,64,127
8503,note_on,1,0,0,,12,,,59,127
8592,note_off,89,0,0,,8,,,68,127
8617,note_off,25,0,0,,12,,,59,127
8618,note_on,1,0,0,,8,,,56,127
8618,note_on,0,0,0,,2,,,74,127
8618,note_on,0,0,0,,8,,,68,127
8732,note_off,114,0,0,,8,,,56,127
8733,note_on,1,0,0,,4,,,52,127
8847,note_off,114,0,0,,4,,,52,127
8847,note_off,0,0,0,,8,,,68,127
8848,note_on,1,0,0,,10,,,57,127
8848,note_on,0,0,0,,10,,,69,127
8962,note_off,114,0,0,,10,,,57,127
8963,note_on,1,0,0,,4,,,52,127
9073,note_off,110,0,0,,2,,,74,127
9077,note_off,4,0,0,,4,,,52,127
9078,note_on,1,0,0,,1,,,49,127
9078,note_on,0,0,0,,1,,,73,127
9192,note_off,114,0,0,,1,,,49,127
9193,note_on,1,0,0,,10,,,45,127
9303,note_off,110,0,0,,10,,,69,127
9307,note_off,4,0,0,,10,,,45,127
9307,note_off,0,0,0,,1,,,73,127
9308,note_on,1,0,0,,4,,,64,127
9308,note_on,0,0,0,,12,,,71,127
9422,note_off,114,0,0,,4,,,64,127
9423,note_on,1,0,0,,12,,,59,127
9512,note_off,89,0,0,,12,,,71,127
9537,note_off,25,0,0,,12,,,59,127
9538,note_on,1,0,0,,8,,,56,127
9538,note_on,0,0,0,,2,,,74,127
9538,note_on,0,0,0,,12,,,83,127
9652,note_off,114,0,0,,8,,,56,127
9653,note_on,1,0,0,,4,,,52,127
9767,note_off,114,0,0,,4,,,52,127
9767,note_off,0,0,0,,2,,,74,127
9768,note_on,1,0,0,,10,,,57,127
9768,note_on,0,0,0,,1,,,73,127
9882,note_off,114,0,0,,10,,,57,127
9883,note_on,1,0,0,,4,,,52,127
9993,note_off,110,0,0,,12,,,83,127
9997,note_off,4,0,0,,4,,,52,127
9998,note_on,1,0,0,,1,,,49,127
9998,note_on,0,0,0,,10,,,81,127
10112,note_off,114,0,0,,1,,,49,127
10113,note_on,1,0,0,,10,,,45,127
10223,note_off,110,0,0,,1,,,73,127
10227,note_off,4,0,0,,10,,,45,127
10227,note_off,0,0,0,,10,,,81,127
10228,note_on,1,0,0,,4,,,64,127
10228,note_on,0,0,0,,8,,,80,127
10228,note_on,0,0,0,,12,,,71,127
10342,note_off,114,0,0,,4,,,64,127
10343,note_on,1,0,0,,12,,,59,127
10432,note_off,89,0,0,,8,,,80,127
10457,note_off,25,0,0,,12,,,59,127
10457,note_off,0,0,0,,12,,,71,127
10458,note_on,1,0,0,,8,,,56,127
10458,note_on,0,0,0,,2,,,74,127
10458,note_on,0,0,0,,8,,,68,127
10572,note_off,114,0,0,,8,,,56,127
10573,note_on,1,0,0,,4,,,52,127
10687,note_off,114,0,0,,4,,,52,127
10687,note_off,0,0,0,,8,,,68,127
10688,note_on,1,0,0,,10,,,57,127
10688,note_on,0,0,0,,10,,,69,127
10802,note_off,114,0,0,,10,,,57,127
10803,note_on,1,0,0,,4,,,52,127
10913,note_off,110,0,0,,2,,,74,127
10917,note_off,4,0,0,,4,,,52,127
10918,note_on,1,0,0,,1,,,49,127
10918,note_on,0,0,0,,1,,,73,127
11032,note_off,114,0,0,,1,,,49,127
11033,note_on,1,0,0,,10,,,45,127
11143,note_off,110,0,0,,10,,,69,127
11147,note_off,4,0,0,,10,,,45,127
11147,note_off,0,0,0,,1,,,73,127
11148,note_on,1,0,0,,4,,,64,127
11148,note_on,0,0,0,,12,,,71,127
11262,note_off,114,0,0,,4,,,64,127
11263,note_on,1,0,0,,12,,,59,127
11377,note_off,114,0,0,,12,,,59,127
11377,note_off,0,0,0,,12,,,71,127
11378,note_on,1,0,0,,8,,,56,127
11378,note_on,0,0,0,,12,,,71,127
11378,note_on,0,0,0,,2,,,62,127
11492,note_off,114,0,0,,8,,,56,127
11493,note_on,1,0,0,,4,,,52,127
11607,note_off,114,0,0,,4,,,52,127
11607,note_off,0,0,0,,2,,,62,127
11608,note_on,1,0,0,,10,,,57,127
11608,note_on,0,0,0,,1,,,61,127
11722,note_off,114,0,0,,10,,,57,127
11723,note_on,1,0,0,,4,,,52,127
11833,note_off,110,0,0,,12,,,71,127
11837,note_off,4,0,0,,4,,,52,127
11838,note_on,1,0,0,,1,,,49,127
11838,note_on,0,0,0,,10,,,69,127
11952,note_off,114,0,0,,1,,,49,127
11953,note_on,1,0,0,,10,,,45,127
12063,note_off,110,0,0,,1,,,61,127
12067,note_off,4,0,0,,10,,,45,127
12067,note_off,0,0,0,,10,,,69,127
12068,note_on,1,0,0,,4,,,40,127
12068,note_on,0,0,0,,8,,,68,127
12182,note_off,114,0,0,,8,,,68,127
12183,note_on,1,0,0,,12,,,71,127
12297,note_off,114,0,0,,12,,,71,127
12298,note_on,1,0,0,,4,,,64,127
12412,note_off,114,0,0,,4,,,64,127
12413,note_on,1,0,0,,8,,,68,127
12527,note_off,114,0,0,,8,,,68,127
12528,note_on,1,0,0,,12,,,59,127
12642,note_off,114,0,0,,12,,,59,127
12643,note_on,1,0,0,,4,,,64,127
12757,note_off,114,0,0,,4,,,64,127
12758,note_on,1,0,0,,8,,,56,127
12872,note_off,114,0,0,,8,,,56,127
12873,note_on,1,0,0,,12,,,59,127
12987,note_off,114,0,0,,12,,,59,127
12987,note_off,0,0,0,,4,,,40,127
12988,note_on,1,0,0,,4,,,40,127
12988,note_on,0,0,0,,6,,,54,127
13044,note_off,56,0,0,,6,,,54,127
13051,note_on,7,0,0,,4,,,52,127
13107,note_off,56,0,0,,4,,,52,127
13114,note_on,7,0,0,,6,,,54,127
13170,note_off,56,0,0,,6,,,54,127
13177,note_on,7,0,0,,4,,,52,127
13657,note_off,480,0,0,,4,,,52,127
13706,note_off,49,0,0,,4,,,40,127
13754,note_on,48,0,0,,12,,,71,127
14004,note_on,250,0,0,,0,,,72,127
14005,note_off,1,0,0,,12,,,71,127
14228,note_off,223,0,0,,0,,,72,127
14234,note_on,6,0,0,,3,,,75,127
14234,note_on,0,0,0,,0,,,72,127
14234,note_on,0,0,0,,10,,,69,127
14234,note_on,0,0,0,,4,,,64,127
14463,note_off,229,0,0,,4,,,64,127
14463,note_off,0,0,0,,10,,,69,127
14463,note_off,0,0,0,,0,,,72,127
14464,note_on,1,0,0,,10,,,69,127
14464,note_on,0,0,0,,0,,,72,127
14464,note_on,0,0,0,,4,,,64,127
14693,note_off,229,0,0,,4,,,64,127
14693,note_off,0,0,0,,0,,,72,127
14693,note_off,0,0,0,,10,,,69,127
14693,note_off,0,0,0,,3,,,75,127
14694,note_on,1,0,0,,4,,,76,127
14694,note_on,0,0,0,,10,,,69,127
14694,note_on,0,0,0,,0,,,72,127
14694,note_on,0,0,0,,4,,,64,127
14923,note_off,229,0,0,,4,,,64,127
14923,note_off,0,0,0,,0,,,72,127
14923,note_off,0,0,0,,10,,,69,127
14923,note_off,0,0,0,,4,,,76,127
14924,note_on,1,0,0,,6,,,78,127
14924,note_on,0,0,0,,12,,,71,127
14924,note_on,0,0,0,,10,,,69,127
14924,note_on,0,0,0,,3,,,63,127
15038,note_off,114,0,0,,6,,,78,127
15039,note_on,1,0,0,,8,,,80,127
15153,note_off,114,0,0,,8,,,80,127
15153,note_off,0,0,0,,3,,,63,127
15153,note_off,0,0,0,,10,,,69,127
15153,note_off,0,0,0,,12,,,71,127
15154,note_on,1,0,0,,10,,,81,127
15154,note_on,0,0,0,,3,,,63,127
15154,note_on,0,0,0,,10,,,69,127
15154,note_on,0,0,0,,12,,,71,127
15383,note_off,229,0,0,,12,,,71,127
15383,note_off,0,0,0,,10,,,69,127
15383,note_off,0,0,0,,3,,,63,127
15384,note_on,1,0,0,,12,,,71,127
15384,note_on,0,0,0,,3,,,63,127
15384,note_on,0,0,0,,10,,,69,127
15613,note_off,229,0,0,,10,,,69,127
15613,note_off,0,0,0,,3,,,63,127
15613,note_off,0,0,0,,12,,,71,127
15613,note_off,0,0,0,,10,,,81,127
15614,note_on,1,0,0,,12,,,71,127
15614,note_on,0,0,0,,10,,,69,127
15614,note_on,0,0,0,,3,,,63,127
15842,note_off,228,0,0,,3,,,63,127
15842,note_off,0,0,0,,10,,,69,127
15843,note_off,1,0,0,,12,,,71,127
15844,note_on,1,0,0,,0,,,72,127
16073,note_off,229,0,0,,0,,,72,127
16074,note_on,1,0,0,,3,,,75,127
16074,note_on,0,0,0,,0,,,72,127
16074,note_on,0,0,0,,10,,,69,127
16074,note_on,0,0,0,,4,,,64,127
16303,note_off,229,0,0,,4,,,64,127
16303,note_off,0,0,0,,10,,,69,127
16303,note_off,0,0,0,,0,,,72,127
16304,note_on,1,0,0,,0,,,72,127
16304,note_on,0,0,0,,4,,,64,127
16304,note_on,0,0,0,,10,,,69,127
16533,note_off,229,0,0,,10,,,69,127
16533,note_off,0,0,0,,4,,,64,127
16533,note_off,0,0,0,,0,,,72,127
16533,note_off,0,0,0,,3,,,75,127
16534,note_on,1,0,0,,4,,,76,127
16534,note_on,0,0,0,,0,,,72,127
16534,note_on,0,0,0,,4,,,64,127
16534,note_on,0,0,0,,10,,,69,127
16763,note_off,229,0,0,,10,,,69,127
16763,note_off,0,0,0,,4,,,64,127
16763,note_off,0,0,0,,0,,,72,127
16763,note_off,0,0,0,,4,,,76,127
16764,note_on,1,0,0,,6,,,78,127
16764,note_on,0,0,0,,12,,,71,127
16764,note_on,0,0,0,,10,,,69,127
16764,note_on,0,0,0,,3,,,63,127
16878,note_off,114,0,0,,6,,,78,127
16879,note_on,1,0,0,,8,,,80,127
16993,note_off,114,0,0,,8,,,80,127
16993,note_off,0,0,0,,3,,,63,127
16993,note_off,0,0,0,,10,,,69,127
16993,note_off,0,0,0,,12,,,71,127
16994,note_on,1,0,0,,10,,,81,127
16994,note_on,0,0,0,,10,,,69,127
16994,note_on,0,0,0,,12,,,71,127
16994,note_on,0,0,0,,3,,,63,127
17223,note_off,229,0,0,,3,,,63,127
17223,note_off,0,0,0,,12,,,71,127
17223,note_off,0,0,0,,10,,,69,127
17224,note_on,1,0,0,,12,,,71,127
17224,note_on,0,0,0,,3,,,63,127
17224,note_on,0,0,0,,10,,,69,127
17453,note_off,229,0,0,,10,,,69,127
17453,note_off,0,0,0,,3,,,63,127
17453,note_off,0,0,0,,12,,,71,127
17454,note_on,1,0,0,,1,,,73,127
17454,note_on,0,0,0,,3,,,63,127
17454,note_on,0,0,0,,10,,,69,127
17683,note_off,229,0,0,,10,,,69,127
17683,note_off,0,0,0,,3,,,63,127
17683,note_off,0,0,0,,1,,,73,127
17683,note_off,0,0,0,,10,,,81,127
17684,note_on,1,0,0,,10,,,81,127
17684,note_on,0,0,0,,6,,,66,127
17684,note_on,0,0,0,,3,,,63,127
17684,note_on,0,0,0,,8,,,68,127
17684,note_on,0,0,0,,0,,,72,127
17913,note_off,229,0,0,,10,,,81,127
17914,note_on,1,0,0,,8,,,80,127
18143,note_off,229,0,0,,8,,,80,127
18143,note_off,0,0,0,,0,,,72,127
18143,note_off,0,0,0,,8,,,68,127
18143,note_off,0,0,0,,3,,,63,127
18143,note_off,0,0,0,,6,,,66,127
18144,note_on,1,0,0,,10,,,81,127
18144,note_on,0,0,0,,0,,,72,127
18144,note_on,0,0,0,,8,,,68,127
18144,note_on,0,0,0,,6,,,66,127
18144,note_on,0,0,0,,3,,,63,127
18258,note_off,114,0,0,,10,,,81,127
18259,note_on,1,0,0,,8,,,80,127
18373,note_off,114,0,0,,8,,,80,127
18374,note_on,1,0,0,,6,,,78,127
18603,note_off,229,0,0,,6,,,78,127
18603,note_off,0,0,0,,3,,,63,127
18603,note_off,0,0,0,,6,,,66,127
18603,note_off,0,0,0,,8,,,68,127
18603,note_off,0,0,0,,0,,,72,127
18604,note_on,1,0,0,,6,,,78,127
18604,note_on,0,0,0,,1,,,61,127
18718,note_off,114,0,0,,6,,,78,127
18719,note_on,1,0,0,,5,,,77,127
18833,note_off,114,0,0,,5,,,77,127
18834,note_on,1,0,0,,3,,,75,127
18834,note_on,0,0,0,,1,,,49,127
18948,note_off,114,0,0,,3,,,75,127
18949,note_on,1,0,0,,1,,,73,127
19059,note_off,110,0,0,,1,,,61,127
19063,note_off,4,0,0,,1,,,49,127
19064,note_on,1,0,0,,1,,,61,127
19293,note_off,229,0,0,,1,,,73,127
19313,note_on,20,0,0,,8,,,68,127
19519,note_off,206,0,0,,1,,,61,127
19542,note_off,23,0,0,,8,,,68,127
19543,note_on,1,0,0,,10,,,69,127
19772,note_off,229,0,0,,10,,,69,127
19773,note_on,1,0,0,,10,,,69,127
19773,note_on,0,0,0,,6,,,66,127
19773,note_on,0,0,0,,1,,,61,127
19773,note_on,0,0,0,,0,,,72,127
20002,note_off,229,0,0,,1,,,61,127
20002,note_off,0,0,0,,6,,,66,127
20002,note_off,0,0,0,,10,,,69,127
20003,note_on,1,0,0,,6,,,66,127
20003,note_on,0,0,0,,1,,,61,127
20003,note_on,0,0,0,,10,,,69,127
20232,note_off,229,0,0,,10,,,69,127
20232,note_off,0,0,0,,1,,,61,127
20232,note_off,0,0,0,,6,,,66,127
20232,note_off,0,0,0,,0,,,72,127
20233,note_on,1,0,0,,6,,,66,127
20233,note_on,0,0,0,,10,,,69,127
20233,note_on,0,0,0,,1,,,61,127
20233,note_on,0,0,0,,1,,,73,127
20462,note_off,229,0,0,,1,,,73,127
20462,note_off,0,0,0,,1,,,61,127
20462,note_off,0,0,0,,10,,,69,127
20462,note_off,0,0,0,,6,,,66,127
20463,note_on,1,0,0,,6,,,66,127
20463,note_on,0,0,0,,0,,,60,127
20463,note_on,0,0,0,,8,,,68,127
20463,note_on,0,0,0,,3,,,75,127
20577,note_off,114,0,0,,3,,,75,127
20578,note_on,1,0,0,,5,,,77,127
20692,note_off,114,0,0,,5,,,77,127
20692,note_off,0,0,0,,8,,,68,127
20692,note_off,0,0,0,,0,,,60,127
20692,note_off,0,0,0,,6,,,66,127
20693,note_on,1,0,0,,6,,,66,127
20693,note_on,0,0,0,,8,,,68,127
20693,note_on,0,0,0,,0,,,60,127
20693,note_on,0,0,0,,6,,,78,127
20922,note_off,229,0,0,,0,,,60,127
20922,note_off,0,0,0,,8,,,68,127
20922,note_off,0,0,0,,6,,,66,127
20923,note_on,1,0,0,,0,,,60,127
20923,note_on,0,0,0,,6,,,66,127
20923,note_on,0,0,0,,8,,,68,127
21152,note_off,229,0,0,,8,,,68,127
21152,note_off,0,0,0,,6,,,66,127
21152,note_off,0,0,0,,0,,,60,127
21152,note_off,0,0,0,,6,,,78,127
21153,note_on,1,0,0,,6,,,66,127
21153,note_on,0,0,0,,0,,,60,127
21153,note_on,0,0,0,,8,,,68,127
21381,note_off,228,0,0,,0,,,60,127
21381,note_off,0,0,0,,6,,,66,127
21382,note_off,1,0,0,,8,,,68,127
21383,note_on,1,0,0,,10,,,69,127
21612,note_off,229,0,0,,10,,,69,127
21613,note_on,1,0,0,,1,,,61,127
21613,note_on,0,0,0,,10,,,69,127
21613,note_on,0,0,0,,6,,,66,127
21613,note_on,0,0,0,,0,,,72,127
21842,note_off,229,0,0,,6,,,66,127
21842,note_off,0,0,0,,10,,,69,127
21842,note_off,0,0,0,,1,,,61,127
21843,note_on,1,0,0,,6,,,66,127
21843,note_on,0,0,0,,1,,,61,127
21843,note_on,0,0,0,,10,,,69,127
22072,note_off,229,0,0,,10,,,69,127
22072,note_off,0,0,0,,1,,,61,127
22072,note_off,0,0,0,,6,,,66,127
22072,note_off,0,0,0,,0,,,72,127
22073,note_on,1,0,0,,6,,,66,127
22073,note_on,0,0,0,,1,,,61,127
22073,note_on,0,0,0,,10,,,69,127
22073,note_on,0,0,0,,1,,,73,127
22302,note_off,229,0,0,,1,,,73,127
22302,note_off,0,0,0,,10,,,69,127
22302,note_off,0,0,0,,1,,,61,127
22302,note_off,0,0,0,,6,,,66,127
22303,note_on,1,0,0,,0,,,60,127
22303,note_on,0,0,0,,8,,,68,127
22303,note_on,0,0,0,,6,,,66,127
22303,note_on,0,0,0,,3,,,75,127
22417,note_off,114,0,0,,3,,,75,127
22418,note_on,1,0,0,,5,,,77,127
22532,note_off,114,0,0,,5,,,77,127
22532,note_off,0,0,0,,6,,,66,127
22532,note_off,0,0,0,,8,,,68,127
22532,note_off,0,0,0,,0,,,60,127
22533,note_on,1,0,0,,0,,,60,127
22533,note_on,0,0,0,,8,,,68,127
22533,note_on,0,0,0,,6,,,66,127
22533,note_on,0,0,0,,6,,,78,127
22762,note_off,229,0,0,,6,,,66,127
22762,note_off,0,0,0,,8,,,68,127
22762,note_off,0,0,0,,0,,,60,127
22763,note_on,1,0,0,,4,,,64,127
22763,note_on,0,0,0,,10,,,69,127
22763,note_on,0,0,0,,0,,,60,127
22763,note_on,0,0,0,,6,,,66,127
22763,note_on,0,0,0,,0,,,72,127
22989,note_off,226,0,0,,6,,,78,127
22993,note_off,4,0,0,,6,,,66,127
22993,note_off,0,0,0,,0,,,60,127
22993,note_off,0,0,0,,10,,,69,127
22993,note_off,0,0,0,,4,,,64,127
22994,note_on,1,0,0,,0,,,60,127
22994,note_on,0,0,0,,4,,,64,127
22994,note_on,0,0,0,,6,,,66,127
22994,note_on,0,0,0,,10,,,69,127
22994,note_on,0,0,0,,7,,,79,127
23223,note_off,229,0,0,,7,,,79,127
23223,note_off,0,0,0,,10,,,69,127
23223,note_off,0,0,0,,6,,,66,127
23223,note_off,0,0,0,,4,,,64,127
23223,note_off,0,0,0,,0,,,60,127
23224,note_on,1,0,0,,0,,,60,127
23224,note_on,0,0,0,,4,,,64,127
23224,note_on,0,0,0,,6,,,66,127
23224,note_on,0,0,0,,10,,,69,127
23224,note_on,0,0,0,,10,,,81,127
23453,note_off,229,0,0,,10,,,81,127
23453,note_off,0,0,0,,10,,,69,127
23453,note_off,0,0,0,,6,,,66,127
23453,note_off,0,0,0,,4,,,64,127
23453,note_off,0,0,0,,0,,,60,127
23454,note_on,1,0,0,,0,,,60,127
23454,note_on,0,0,0,,4,,,64,127
23454,note_on,0,0,0,,6,,,66,127
23454,note_on,0,0,0,,10,,,69,127
23454,note_on,0,0,0,,7,,,79,127
23683,note_off,229,0,0,,7,,,79,127
23683,note_off,0,0,0,,10,,,69,127
23683,note_off,0,0,0,,6,,,66,127
23683,note_off,0,0,0,,4,,,64,127
23683,note_off,0,0,0,,0,,,60,127
23684,note_on,1,0,0,,0,,,60,127
23684,note_on,0,0,0,,4,,,64,127
23684,note_on,0,0,0,,6,,,66,127
23684,note_on,0,0,0,,10,,,69,127
23684,note_on,0,0,0,,6,,,78,127
23913,note_off,229,0,0,,6,,,78,127
23913,note_off,0,0,0,,10,,,69,127
23913,note_off,0,0,0,,6,,,66,127
23913,note_off,0,0,0,,4,,,64,127
23913,note_off,0,0,0,,0,,,60,127
23914,note_on,1,0,0,,0,,,60,127
23914,note_on,0,0,0,,4,,,64,127
23914,note_on,0,0,0,,6,,,66,127
23914,note_on,0,0,0,,10,,,69,127
23914,note_on,0,0,0,,4,,,76,127
24142,note_off,228,0,0,,0,,,72,127
24143,note_off,1,0,0,,4,,,76,127
24143,note_off,0,0,0,,10,,,69,127
24143,note_off,0,0,0,,6,,,66,127
24143,note_off,0,0,0,,4,,,64,127
24143,note_off,0,0,0,,0,,,60,127
24144,note_on,1,0,0,,12,,,59,127
24144,note_on,0,0,0,,6,,,66,127
24144,note_on,0,0,0,,4,,,64,127
24144,note_on,0,0,0,,10,,,69,127
24144,note_on,0,0,0,,6,,,78,127
24144,note_on,0,0,0,,12,,,71,127
24258,note_off,114,0,0,,6,,,78,127
24259,note_on,1,0,0,,4,,,76,127
24373,note_off,114,0,0,,4,,,76,127
24373,note_off,0,0,0,,10,,,69,127
24373,note_off,0,0,0,,4,,,64,127
24373,note_off,0,0,0,,6,,,66,127
24373,note_off,0,0,0,,12,,,59,127
24374,note_on,1,0,0,,12,,,59,127
24374,note_on,0,0,0,,4,,,64,127
24374,note_on,0,0,0,,6,,,66,127
24374,note_on,0,0,0,,10,,,69,127
24374,note_on,0,0,0,,3,,,75,127
24603,note_off,229,0,0,,10,,,69,127
24603,note_off,0,0,0,,6,,,66,127
24603,note_off,0,0,0,,4,,,64,127
24603,note_off,0,0,0,,12,,,59,127
24604,note_on,1,0,0,,0,,,60,127
24604,note_on,0,0,0,,4,,,64,127
24604,note_on,0,0,0,,6,,,66,127
24604,note_on,0,0,0,,10,,,69,127
24782,note_off,178,0,0,,3,,,75,127
24834,note_off,52,0,0,,10,,,69,127
24834,note_off,0,0,0,,6,,,66,127
24834,note_off,0,0,0,,4,,,64,127
24834,note_off,0,0,0,,0,,,60,127
24835,note_on,1,0,0,,0,,,60,127
24835,note_on,0,0,0,,4,,,64,127
24835,note_on,0,0,0,,6,,,66,127
24835,note_on,0,0,0,,10,,,69,127
24835,note_on,0,0,0,,4,,,76,127
25064,note_off,229,0,0,,4,,,76,127
25064,note_off,0,0,0,,10,,,69,127
25064,note_off,0,0,0,,6,,,66,127
25064,note_off,0,0,0,,4,,,64,127
25064,note_off,0,0,0,,0,,,60,127
25064,note_off,0,0,0,,12,,,71,127
25065,note_on,1,0,0,,0,,,60,127
25065,note_on,0,0,0,,4,,,64,127
25065,note_on,0,0,0,,6,,,66,127
25065,note_on,0,0,0,,10,,,69,127
25065,note_on,0,0,0,,10,,,81,127
25065,note_on,0,0,0,,0,,,72,127
25294,note_off,229,0,0,,10,,,81,127
25294,note_off,0,0,0,,10,,,69,127
25294,note_off,0,0,0,,6,,,66,127
25294,note_off,0,0,0,,4,,,64,127
25294,note_off,0,0,0,,0,,,60,127
25295,note_on,1,0,0,,0,,,60,127
25295,note_on,0,0,0,,4,,,64,127
25295,note_on,0,0,0,,6,,,66,127
25295,note_on,0,0,0,,10,,,69,127
25295,note_on,0,0,0,,7,,,79,127
25524,note_off,229,0,0,,7,,,79,127
25524,note_off,0,0,0,,10,,,69,127
25524,note_off,0,0,0,,6,,,66,127
25524,note_off,0,0,0,,4,,,64,127
25524,note_off,0,0,0,,0,,,60,127
25525,note_on,1,0,0,,0,,,60,127
25525,note_on,0,0,0,,4,,,64,127
25525,note_on,0,0,0,,6,,,66,127
25525,note_on,0,0,0,,10,,,69,127
25525,note_on,0,0,0,,6,,,78,127
25754,note_off,229,0,0,,6,,,78,127
25754,note_off,0,0,0,,10,,,69,127
25754,note_off,0,0,0,,6,,,66,127
25754,note_off,0,0,0,,4,,,64,127
25754,note_off,0,0,0,,0,,,60,127
25755,note_on,1,0,0,,0,,,60,127
25755,note_on,0,0,0,,4,,,64,127
25755,note_on,0,0,0,,6,,,66,127
25755,note_on,0,0,0,,10,,,69,127
25755,note_on,0,0,0,,4,,,76,127
25984,note_off,229,0,0,,4,,,76,127
25984,note_off,0,0,0,,10,,,69,127
25984,note_off,0,0,0,,6,,,66,127
25984,note_off,0,0,0,,4,,,64,127
25984,note_off,0,0,0,,0,,,60,127
25984,note_off,0,0,0,,0,,,72,127
25985,note_on,1,0,0,,12,,,59,127
25985,note_on,0,0,0,,12,,,71,127
25985,note_on,0,0,0,,4,,,76,127
26214,note_off,229,0,0,,4,,,76,127
26215,note_on,1,0,0,,12,,,47,127
26215,note_on,0,0,0,,6,,,78,127
26441,note_off,226,0,0,,12,,,59,127
26445,note_off,4,0,0,,12,,,47,127
26446,note_on,1,0,0,,12,,,59,127
26576,note_off,130,0,0,,6,,,78,127
26634,note_off,58,0,0,,12,,,71,127
26676,note_off,42,0,0,,12,,,59,127
26696,note_on,20,0,0,,6,,,78,127
26696,note_on,0,0,0,,3,,,63,127
26810,note_off,114,0,0,,3,,,63,127
26811,note_on,1,0,0,,6,,,66,127
26925,note_off,114,0,0,,6,,,66,127
26925,note_off,0,0,0,,6,,,78,127
26926,note_on,1,0,0,,8,,,80,127
26926,note_on,0,0,0,,4,,,64,127
27040,note_off,114,0,0,,4,,,64,127
27041,note_on,1,0,0,,8,,,68,127
27155,note_off,114,0,0,,8,,,68,127
27155,note_off,0,0,0,,8,,,80,127
27156,note_on,1,0,0,,10,,,81,127
27156,note_on,0,0,0,,1,,,61,127
27270,note_off,114,0,0,,1,,,61,127
27271,note_on,1,0,0,,4,,,64,127
27385,note_off,114,0,0,,4,,,64,127
27386,note_on,1,0,0,,3,,,63,127
27492,note_off,106,0,0,,10,,,81,127
27500,note_off,8,0,0,,3,,,63,127
27501,note_on,1,0,0,,6,,,66,127
27615,note_off,114,0,0,,6,,,66,127
27616,note_on,1,0,0,,12,,,83,127
27616,note_on,0,0,0,,12,,,59,127
27730,note_off,114,0,0,,12,,,59,127
27731,note_on,1,0,0,,3,,,63,127
27845,note_off,114,0,0,,3,,,63,127
27845,note_off,0,0,0,,12,,,83,127
27846,note_on,1,0,0,,8,,,80,127
27846,note_on,0,0,0,,4,,,64,127
27960,note_off,114,0,0,,4,,,64,127
27961,note_on,1,0,0,,8,,,68,127
28075,note_off,114,0,0,,8,,,68,127
28075,note_off,0,0,0,,8,,,80,127
28076,note_on,1,0,0,,10,,,81,127
28076,note_on,0,0,0,,1,,,61,127
28190,note_off,114,0,0,,1,,,61,127
28191,note_on,1,0,0,,4,,,64,127
28305,note_off,114,0,0,,4,,,64,127
28306,note_on,1,0,0,,3,,,63,127
28412,note_off,106,0,0,,10,,,81,127
28420,note_off,8,0,0,,3,,,63,127
28421,note_on,1,0,0,,6,,,66,127
28535,note_off,114,0,0,,6,,,66,127
28536,note_on,1,0,0,,12,,,83,127
28536,note_on,0,0,0,,12,,,59,127
28650,note_off,114,0,0,,12,,,59,127
28651,note_on,1,0,0,,3,,,63,127
28765,note_off,114,0,0,,3,,,63,127
28765,note_off,0,0,0,,12,,,83,127
28766,note_on,1,0,0,,8,,,80,127
28766,note_on,0,0,0,,4,,,64,127
28880,note_off,114,0,0,,4,,,64,127
28881,note_on,1,0,0,,12,,,71,127
28995,note_off,114,0,0,,12,,,71,127
28995,note_off,0,0,0,,8,,,80,127
28996,note_on,1,0,0,,12,,,83,127
28996,note_on,0,0,0,,3,,,63,127
29110,note_off,114,0,0,,3,,,63,127
29111,note_on,1,0,0,,12,,,71,127
29225,note_off,114,0,0,,12,,,71,127
29225,note_off,0,0,0,,12,,,83,127
29226,note_on,1,0,0,,10,,,81,127
29226,note_on,0,0,0,,1,,,61,127
29340,note_off,114,0,0,,1,,,61,127
29341,note_on,1,0,0,,10,,,69,127
29455,note_off,114,0,0,,10,,,69,127
29455,note_off,0,0,0,,10,,,81,127
29456,note_on,1,0,0,,8,,,80,127
29456,note_on,0,0,0,,12,,,59,127
29570,note_off,114,0,0,,12,,,59,127
29571,note_on,1,0,0,,8,,,68,127
29685,note_off,114,0,0,,8,,,68,127
29685,note_off,0,0,0,,8,,,80,127
29686,note_on,1,0,0,,6,,,78,127
29686,note_on,0,0,0,,10,,,57,127
29800,note_off,114,0,0,,10,,,57,127
29801,note_on,1,0,0,,6,,,66,127
29915,note_off,114,0,0,,6,,,66,127
29915,note_off,0,0,0,,6,,,78,127
29916,note_on,1,0,0,,4,,,76,127
29916,note_on,0,0,0,,8,,,56,127
30030,note_off,114,0,0,,8,,,56,127
30031,note_on,1,0,0,,4,,,64,127
30145,note_off,114,0,0,,4,,,64,127
30145,note_off,0,0,0,,4,,,76,127
30146,note_on,1,0,0,,3,,,75,127
30146,note_on,0,0,0,,6,,,54,127
30260,note_off,114,0,0,,6,,,54,127
30261,note_on,1,0,0,,3,,,63,127
30375,note_off,114,0,0,,3,,,63,127
30375,note_off,0,0,0,,3,,,75,127
30376,note_on,1,0,0,,4,,,76,127
30376,note_on,0,0,0,,4,,,52,127
30490,note_off,114,0,0,,4,,,52,127
30491,note_on,1,0,0,,4,,,64,127
30605,note_off,114,0,0,,4,,,64,127
30605,note_off,0,0,0,,4,,,76,127
30606,note_on,1,0,0,,6,,,78,127
30606,note_on,0,0,0,,12,,,47,127
30720,note_off,114,0,0,,6,,,78,127
30721,note_on,1,0,0,,4,,,76,127
30835,note_off,114,0,0,,4,,,76,127
30836,note_on,1,0,0,,3,,,75,127
30950,note_off,114,0,0,,3,,,75,127
30951,note_on,1,0,0,,1,,,73,127
31065,note_off,114,0,0,,1,,,73,127
31065,note_off,0,0,0,,12,,,47,127
31066,note_on,1,0,0,,12,,,71,127
31066,note_on,0,0,0,,12,,,47,127
31180,note_off,114,0,0,,12,,,71,127
31181,note_on,1,0,0,,10,,,69,127
31295,note_off,114,0,0,,10,,,69,127
31296,note_on,1,0,0,,8,,,68,127
31410,note_off,114,0,0,,8,,,68,127
31411,note_on,1,0,0,,6,,,66,127
31525,note_off,114,0,0,,6,,,66,127
31526,note_on,1,0,0,,8,,,68,127
31526,note_on,0,0,0,,12,,,35,127
31640,note_off,114,0,0,,8,,,68,127
31641,note_on,1,0,0,,12,,,71,127
31755,note_off,114,0,0,,12,,,71,127
31756,note_on,1,0,0,,10,,,69,127
31870,note_off,114,0,0,,10,,,69,127
31871,note_on,1,0,0,,8,,,68,127
31985,note_off,114,0,0,,8,,,68,127
31985,note_off,0,0,0,,12,,,35,127
31986,note_on,1,0,0,,6,,,66,127
31986,note_on,0,0,0,,12,,,35,127
32100,note_off,114,0,0,,6,,,66,127
32101,note_on,1,0,0,,4,,,64,127
32215,note_off,114,0,0,,4,,,64,127
32216,note_on,1,0,0,,3,,,63,127
32330,note_off,114,0,0,,3,,,63,127
32331,note_on,1,0,0,,1,,,61,127
32445,note_off,114,0,0,,1,,,61,127
32445,note_off,0,0,0,,12,,,35,127
32446,note_on,1,0,0,,1,,,61,127
32446,note_on,0,0,0,,12,,,35,127
32502,note_off,56,0,0,,1,,,61,127
32509,note_on,7,0,0,,12,,,59,127
32565,note_off,56,0,0,,12,,,59,127
32572,note_on,7,0,0,,1,,,61,127
32628,note_off,56,0,0,,1,,,61,127
32635,note_on,7,0,0,,12,,,59,127
33074,note_off,439,0,0,,12,,,47,127
33175,note_off,101,0,0,,12,,,59,127
33265,note_on,90,0,0,,6,,,66,127
33284,note_off,19,0,0,,12,,,35,127
33519,note_on,235,0,0,,7,,,67,127
33529,note_off,10,0,0,,6,,,66,127
33749,note_off,220,0,0,,7,,,67,127
33750,note_on,1,0,0,,11,,,70,127
33750,note_on,0,0,0,,12,,,59,127
33750,note_on,0,0,0,,4,,,64,127
33750,note_on,0,0,0,,7,,,67,127
33979,note_off,229,0,0,,7,,,67,127
33979,note_off,0,0,0,,4,,,64,127
33979,note_off,0,0,0,,12,,,59,127
33980,note_on,1,0,0,,7,,,67,127
33980,note_on,0,0,0,,4,,,64,127
33980,note_on,0,0,0,,12,,,59,127
34209,note_off,229,0,0,,12,,,59,127
34209,note_off,0,0,0,,4,,,64,127
34209,note_off,0,0,0,,7,,,67,127
34209,note_off,0,0,0,,11,,,70,127
34210,note_on,1,0,0,,12,,,71,127
34210,note_on,0,0,0,,4,,,64,127
34210,note_on,0,0,0,,12,,,59,127
34210,note_on,0,0,0,,7,,,67,127
34439,note_off,229,0,0,,7,,,67,127
34439,note_off,0,0,0,,12,,,59,127
34439,note_off,0,0,0,,4,,,64,127
34439,note_off,0,0,0,,12,,,71,127
34440,note_on,1,0,0,,1,,,73,127
34440,note_on,0,0,0,,11,,,58,127
34440,note_on,0,0,0,,4,,,64,127
34440,note_on,0,0,0,,6,,,66,127
34554,note_off,114,0,0,,1,,,73,127
34555,note_on,1,0,0,,3,,,75,127
34669,note_off,114,0,0,,3,,,75,127
34669,note_off,0,0,0,,6,,,66,127
34669,note_off,0,0,0,,4,,,64,127
34669,note_off,0,0,0,,11,,,58,127
34670,note_on,1,0,0,,4,,,76,127
34670,note_on,0,0,0,,6,,,66,127
34670,note_on,0,0,0,,4,,,64,127
34670,note_on,0,0,0,,11,,,58,127
34899,note_off,229,0,0,,11,,,58,127
34899,note_off,0,0,0,,4,,,64,127
34899,note_off,0,0,0,,6,,,66,127
34900,note_on,1,0,0,,4,,,64,127
34900,note_on,0,0,0,,6,,,66,127
34900,note_on,0,0,0,,11,,,58,127
35129,note_off,229,0,0,,11,,,58,127
35129,note_off,0,0,0,,6,,,66,127
35129,note_off,0,0,0,,4,,,64,127
35129,note_off,0,0,0,,4,,,76,127
35130,note_on,1,0,0,,6,,,66,127
35130,note_on,0,0,0,,4,,,64,127
35130,note_on,0,0,0,,11,,,58,127
35358,note_off,228,0,0,,11,,,58,127
35358,note_off,0,0,0,,4,,,64,127
35359,note_off,1,0,0,,6,,,66,127
35360,note_on,1,0,0,,7,,,67,127
35589,note_off,229,0,0,,7,,,67,127
35590,note_on,1,0,0,,11,,,70,127
35590,note_on,0,0,0,,4,,,64,127
35590,note_on,0,0,0,,7,,,67,127
35590,note_on,0,0,0,,12,,,59,127
35819,note_off,229,0,0,,12,,,59,127
35819,note_off,0,0,0,,7,,,67,127
35819,note_off,0,0,0,,4,,,64,127
35820,note_on,1,0,0,,4,,,64,127
35820,note_on,0,0,0,,7,,,67,127
35820,note_on,0,0,0,,12,,,59,127
36049,note_off,229,0,0,,12,,,59,127
36049,note_off,0,0,0,,7,,,67,127
36049,note_off,0,0,0,,4,,,64,127
36049,note_off,0,0,0,,11,,,70,127
36050,note_on,1,0,0,,12,,,71,127
36050,note_on,0,0,0,,4,,,64,127
36050,note_on,0,0,0,,7,,,67,127
36050,note_on,0,0,0,,12,,,59,127
36279,note_off,229,0,0,,12,,,59,127
36279,note_off,0,0,0,,7,,,67,127
36279,note_off,0,0,0,,4,,,64,127
36279,note_off,0,0,0,,12,,,71,127
36280,note_on,1,0,0,,1,,,73,127
36280,note_on,0,0,0,,4,,,64,127
36280,note_on,0,0,0,,6,,,66,127
36280,note_on,0,0,0,,11,,,58,127
36394,note_off,114,0,0,,1,,,73,127
36395,note_on,1,0,0,,3,,,75,127
36509,note_off,114,0,0,,3,,,75,127
36509,note_off,0,0,0,,11,,,58,127
36509,note_off,0,0,0,,6,,,66,127
36509,note_off,0,0,0,,4,,,64,127
36510,note_on,1,0,0,,4,,,76,127
36510,note_on,0,0,0,,4,,,64,127
36510,note_on,0,0,0,,6,,,66,127
36510,note_on,0,0,0,,11,,,58,127
36739,note_off,229,0,0,,11,,,58,127
36739,note_off,0,0,0,,6,,,66,127
36739,note_off,0,0,0,,4,,,64,127
36740,note_on,1,0,0,,6,,,66,127
36740,note_on,0,0,0,,11,,,58,127
36740,note_on,0,0,0,,4,,,64,127
36969,note_off,229,0,0,,4,,,64,127
36969,note_off,0,0,0,,11,,,58,127
36969,note_off,0,0,0,,6,,,66,127
36969,note_off,0,0,0,,4,,,76,127
36970,note_on,1,0,0,,4,,,76,127
36970,note_on,0,0,0,,6,,,66,127
36970,note_on,0,0,0,,11,,,58,127
36970,note_on,0,0,0,,4,,,64,127
37199,note_off,229,0,0,,4,,,64,127
37199,note_off,0,0,0,,11,,,58,127
37199,note_off,0,0,0,,6,,,66,127
37199,note_off,0,0,0,,4,,,76,127
37200,note_on,1,0,0,,12,,,71,127
37200,note_on,0,0,0,,3,,,75,127
37200,note_on,0,0,0,,4,,,64,127
37200,note_on,0,0,0,,10,,,57,127
37200,note_on,0,0,0,,3,,,63,127
37200,note_on,0,0,0,,6,,,66,127
37256,note_off,56,0,0,,3,,,75,127
37257,note_on,1,0,0,,4,,,76,127
37313,note_off,56,0,0,,4,,,76,127
37314,note_on,1,0,0,,6,,,78,127
37428,note_off,114,0,0,,6,,,66,127
37428,note_off,0,0,0,,3,,,63,127
37428,note_off,0,0,0,,10,,,57,127
37428,note_off,0,0,0,,4,,,64,127
37429,note_on,1,0,0,,3,,,63,127
37429,note_on,0,0,0,,4,,,64,127
37429,note_on,0,0,0,,6,,,66,127
37429,note_on,0,0,0,,10,,,57,127
37658,note_off,229,0,0,,10,,,57,127
37658,note_off,0,0,0,,6,,,66,127
37658,note_off,0,0,0,,4,,,64,127
37658,note_off,0,0,0,,3,,,63,127
37658,note_off,0,0,0,,6,,,78,127
37659,note_on,1,0,0,,4,,,76,127
37659,note_on,0,0,0,,12,,,59,127
37659,note_on,0,0,0,,4,,,64,127
37659,note_on,0,0,0,,8,,,56,127
37715,note_off,56,0,0,,4,,,76,127
37716,note_on,1,0,0,,6,,,78,127
37772,note_off,56,0,0,,6,,,78,127
37773,note_on,1,0,0,,8,,,80,127
37887,note_off,114,0,0,,8,,,56,127
37887,note_off,0,0,0,,4,,,64,127
37887,note_off,0,0,0,,12,,,59,127
37888,note_on,1,0,0,,12,,,59,127
37888,note_on,0,0,0,,4,,,64,127
37888,note_on,0,0,0,,8,,,56,127
38117,note_off,229,0,0,,8,,,56,127
38117,note_off,0,0,0,,4,,,64,127
38117,note_off,0,0,0,,12,,,59,127
38117,note_off,0,0,0,,8,,,80,127
38117,note_off,0,0,0,,12,,,71,127
38118,note_on,1,0,0,,12,,,71,127
38118,note_on,0,0,0,,6,,,78,127
38118,note_on,0,0,0,,3,,,51,127
38118,note_on,0,0,0,,6,,,54,127
38118,note_on,0,0,0,,12,,,59,127
38174,note_off,56,0,0,,6,,,78,127
38175,note_on,1,0,0,,8,,,80,127
38231,note_off,56,0,0,,8,,,80,127
38232,note_on,1,0,0,,10,,,81,127
38346,note_off,114,0,0,,12,,,59,127
38346,note_off,0,0,0,,6,,,54,127
38346,note_off,0,0,0,,3,,,51,127
38347,note_on,1,0,0,,6,,,54,127
38347,note_on,0,0,0,,12,,,59,127
38347,note_on,0,0,0,,3,,,51,127
38576,note_off,229,0,0,,3,,,51,127
38576,note_off,0,0,0,,12,,,59,127
38576,note_off,0,0,0,,6,,,54,127
38576,note_off,0,0,0,,10,,,81,127
38577,note_on,1,0,0,,8,,,80,127
38577,note_on,0,0,0,,12,,,59,127
38577,note_on,0,0,0,,8,,,56,127
38577,note_on,0,0,0,,4,,,52,127
38633,note_off,56,0,0,,8,,,80,127
38634,note_on,1,0,0,,10,,,81,127
38690,note_off,56,0,0,,10,,,81,127
38691,note_on,1,0,0,,12,,,83,127
38805,note_off,114,0,0,,4,,,52,127
38805,note_off,0,0,0,,8,,,56,127
38805,note_off,0,0,0,,12,,,59,127
38806,note_on,1,0,0,,12,,,59,127
38806,note_on,0,0,0,,4,,,52,127
38806,note_on,0,0,0,,8,,,56,127
39035,note_off,229,0,0,,8,,,56,127
39035,note_off,0,0,0,,4,,,52,127
39035,note_off,0,0,0,,12,,,59,127
39035,note_off,0,0,0,,12,,,83,127
39035,note_off,0,0,0,,12,,,71,127
39036,note_on,1,0,0,,1,,,73,127
39036,note_on,0,0,0,,10,,,45,127
39150,note_off,114,0,0,,1,,,73,127
39151,note_on,1,0,0,,10,,,81,127
39265,note_off,114,0,0,,10,,,81,127
39266,note_on,1,0,0,,8,,,80,127
39266,note_on,0,0,0,,10,,,57,127
39300,note_off,34,0,0,,10,,,45,127
39380,note_off,80,0,0,,8,,,80,127
39381,note_on,1,0,0,,6,,,78,127
39495,note_off,114,0,0,,6,,,78,127
39495,note_off,0,0,0,,10,,,57,127
39496,note_on,1,0,0,,8,,,80,127
39496,note_on,0,0,0,,12,,,59,127
39610,note_off,114,0,0,,8,,,80,127
39611,note_on,1,0,0,,4,,,76,127
39725,note_off,114,0,0,,4,,,76,127
39726,note_on,1,0,0,,6,,,78,127
39726,note_on,0,0,0,,12,,,47,127
39840,note_off,114,0,0,,6,,,78,127
39841,note_off,1,0,0,,12,,,59,127
39841,note_on,0,0,0,,3,,,75,127
39955,note_off,114,0,0,,3,,,75,127
39955,note_off,0,0,0,,12,,,47,127
39956,note_on,1,0,0,,3,,,75,127
39956,note_on,0,0,0,,4,,,52,127
40185,note_off,229,0,0,,3,,,75,127
40186,note_on,1,0,0,,4,,,76,127
40186,note_on,0,0,0,,12,,,47,127
40415,note_off,229,0,0,,12,,,47,127
40416,note_on,1,0,0,,4,,,40,127
40522,note_off,106,0,0,,4,,,76,127
40646,note_off,124,0,0,,4,,,52,127
40647,note_on,1,0,0,,6,,,66,127
40873,note_off,226,0,0,,4,,,40,127
40877,note_off,4,0,0,,6,,,66,127
40878,note_on,1,0,0,,7,,,67,127
41107,note_off,229,0,0,,7,,,67,127
41108,note_on,1,0,0,,11,,,70,127
41108,note_on,0,0,0,,4,,,64,127
41108,note_on,0,0,0,,7,,,67,127
41108,note_on,0,0,0,,12,,,59,127
41337,note_off,229,0,0,,12,,,59,127
41337,note_off,0,0,0,,7,,,67,127
41337,note_off,0,0,0,,4,,,64,127
41338,note_on,1,0,0,,12,,,59,127
41338,note_on,0,0,0,,4,,,64,127
41338,note_on,0,0,0,,7,,,67,127
41567,note_off,229,0,0,,7,,,67,127
41567,note_off,0,0,0,,4,,,64,127
41567,note_off,0,0,0,,12,,,59,127
41567,note_off,0,0,0,,11,,,70,127
41568,note_on,1,0,0,,12,,,71,127
41568,note_on,0,0,0,,7,,,67,127
41568,note_on,0,0,0,,4,,,64,127
41568,note_on,0,0,0,,12,,,59,127
41797,note_off,229,0,0,,12,,,59,127
41797,note_off,0,0,0,,4,,,64,127
41797,note_off,0,0,0,,7,,,67,127
41797,note_off,0,0,0,,12,,,71,127
41798,note_on,1,0,0,,1,,,73,127
41798,note_on,0,0,0,,6,,,66,127
41798,note_on,0,0,0,,11,,,58,127
41798,note_on,0,0,0,,4,,,64,127
41912,note_off,114,0,0,,1,,,73,127
41913,note_on,1,0,0,,3,,,75,127
42027,note_off,114,0,0,,3,,,75,127
42027,note_off,0,0,0,,4,,,64,127
42027,note_off,0,0,0,,11,,,58,127
42027,note_off,0,0,0,,6,,,66,127
42028,note_on,1,0,0,,4,,,76,127
42028,note_on,0,0,0,,4,,,64,127
42028,note_on,0,0,0,,6,,,66,127
42028,note_on,0,0,0,,11,,,58,127
42257,note_off,229,0,0,,11,,,58,127
42257,note_off,0,0,0,,6,,,66,127
42257,note_off,0,0,0,,4,,,64,127
42258,note_on,1,0,0,,4,,,64,127
42258,note_on,0,0,0,,6,,,66,127
42258,note_on,0,0,0,,11,,,58,127
42487,note_off,229,0,0,,11,,,58,127
42487,note_off,0,0,0,,6,,,66,127
42487,note_off,0,0,0,,4,,,64,127
42487,note_off,0,0,0,,4,,,76,127
42488,note_on,1,0,0,,6,,,66,127
42488,note_on,0,0,0,,4,,,64,127
42488,note_on,0,0,0,,11,,,58,127
42716,note_off,228,0,0,,11,,,58,127
42716,note_off,0,0,0,,4,,,64,127
42717,note_off,1,0,0,,6,,,66,127
42718,note_on,1,0,0,,7,,,67,127
42947,note_off,229,0,0,,7,,,67,127
42948,note_on,1,0,0,,11,,,70,127
42948,note_on,0,0,0,,7,,,67,127
42948,note_on,0,0,0,,12,,,59,127
42948,note_on,0,0,0,,4,,,64,127
43177,note_off,229,0,0,,4,,,64,127
43177,note_off,0,0,0,,12,,,59,127
43177,note_off,0,0,0,,7,,,67,127
43178,note_on,1,0,0,,7,,,67,127
43178,note_on,0,0,0,,12,,,59,127
43178,note_on,0,0,0,,4,,,64,127
43407,note_off,229,0,0,,4,,,64,127
43407,note_off,0,0,0,,12,,,59,127
43407,note_off,0,0,0,,7,,,67,127
43407,note_off,0,0,0,,11,,,70,127
43408,note_on,1,0,0,,12,,,71,127
43408,note_on,0,0,0,,4,,,64,127
43408,note_on,0,0,0,,7,,,67,127
43408,note_on,0,0,0,,12,,,59,127
43637,note_off,229,0,0,,12,,,59,127
43637,note_off,0,0,0,,7,,,67,127
43637,note_off,0,0,0,,4,,,64,127
43637,note_off,0,0,0,,12,,,71,127
43638,note_on,1,0,0,,1,,,73,127
43638,note_on,0,0,0,,6,,,66,127
43638,note_on,0,0,0,,11,,,58,127
43638,note_on,0,0,0,,4,,,64,127
43752,note_off,114,0,0,,1,,,73,127
43753,note_on,1,0,0,,3,,,75,127
43867,note_off,114,0,0,,3,,,75,127
43867,note_off,0,0,0,,4,,,64,127
43867,note_off,0,0,0,,11,,,58,127
43867,note_off,0,0,0,,6,,,66,127
43868,note_on,1,0,0,,4,,,76,127
43868,note_on,0,0,0,,6,,,66,127
43868,note_on,0,0,0,,4,,,64,127
43868,note_on,0,0,0,,11,,,58,127
44097,note_off,229,0,0,,11,,,58,127
44097,note_off,0,0,0,,4,,,64,127
44097,note_off,0,0,0,,6,,,66,127
44098,note_on,1,0,0,,4,,,64,127
44098,note_on,0,0,0,,6,,,66,127
44098,note_on,0,0,0,,11,,,58,127
44312,note_off,214,0,0,,4,,,76,127
44328,note_off,16,0,0,,11,,,58,127
44328,note_off,0,0,0,,6,,,66,127
44328,note_off,0,0,0,,4,,,64,127
44329,note_on,1,0,0,,4,,,76,127
44329,note_on,0,0,0,,6,,,66,127
44329,note_on,0,0,0,,4,,,64,127
44329,note_on,0,0,0,,11,,,58,127
44558,note_off,229,0,0,,11,,,58,127
44558,note_off,0,0,0,,4,,,64,127
44558,note_off,0,0,0,,6,,,66,127
44558,note_off,0,0,0,,4,,,76,127
44559,note_on,1,0,0,,12,,,71,127
44559,note_on,0,0,0,,3,,,75,127
44559,note_on,0,0,0,,4,,,64,127
44559,note_on,0,0,0,,3,,,63,127
44559,note_on,0,0,0,,6,,,66,127
44559,note_on,0,0,0,,10,,,57,127
44615,note_off,56,0,0,,3,,,75,127
44616,note_on,1,0,0,,4,,,76,127
44672,note_off,56,0,0,,4,,,76,127
44673,note_on,1,0,0,,6,,,78,127
44787,note_off,114,0,0,,10,,,57,127
44787,note_off,0,0,0,,6,,,66,127
44787,note_off,0,0,0,,3,,,63,127
44787,note_off,0,0,0,,4,,,64,127
44788,note_on,1,0,0,,4,,,64,127
44788,note_on,0,0,0,,6,,,66,127
44788,note_on,0,0,0,,10,,,57,127
44788,note_on,0,0,0,,3,,,63,127
45017,note_off,229,0,0,,3,,,63,127
45017,note_off,0,0,0,,10,,,57,127
45017,note_off,0,0,0,,6,,,66,127
45017,note_off,0,0,0,,4,,,64,127
45017,note_off,0,0,0,,6,,,78,127
45018,note_on,1,0,0,,4,,,76,127
45018,note_on,0,0,0,,4,,,64,127
45018,note_on,0,0,0,,12,,,59,127
45018,note_on,0,0,0,,8,,,56,127
45074,note_off,56,0,0,,4,,,76,127
45075,note_on,1,0,0,,6,,,78,127
45131,note_off,56,0,0,,6,,,78,127
45132,note_on,1,0,0,,8,,,80,127
45246,note_off,114,0,0,,8,,,56,127
45246,note_off,0,0,0,,12,,,59,127
45246,note_off,0,0,0,,4,,,64,127
45247,note_on,1,0,0,,12,,,59,127
45247,note_on,0,0,0,,4,,,64,127
45247,note_on,0,0,0,,8,,,56,127
45476,note_off,229,0,0,,8,,,56,127
45476,note_off,0,0,0,,4,,,64,127
45476,note_off,0,0,0,,12,,,59,127
45476,note_off,0,0,0,,8,,,80,127
45476,note_off,0,0,0,,12,,,71,127
45477,note_on,1,0,0,,12,,,71,127
45477,note_on,0,0,0,,6,,,78,127
45477,note_on,0,0,0,,12,,,59,127
45477,note_on,0,0,0,,6,,,54,127
45477,note_on,0,0,0,,3,,,51,127
45533,note_off,56,0,0,,6,,,78,127
45534,note_on,1,0,0,,8,,,80,127
45590,note_off,56,0,0,,8,,,80,127
45591,note_on,1,0,0,,10,,,81,127
45705,note_off,114,0,0,,3,,,51,127
45705,note_off,0,0,0,,6,,,54,127
45705,note_off,0,0,0,,12,,,59,127
45706,note_on,1,0,0,,12,,,59,127
45706,note_on,0,0,0,,3,,,51,127
45706,note_on,0,0,0,,6,,,54,127
45935,note_off,229,0,0,,6,,,54,127
45935,note_off,0,0,0,,3,,,51,127
45935,note_off,0,0,0,,12,,,59,127
45935,note_off,0,0,0,,10,,,81,127
45936,note_on,1,0,0,,8,,,80,127
45936,note_on,0,0,0,,12,,,59,127
45936,note_on,0,0,0,,4,,,52,127
45936,note_on,0,0,0,,8,,,56,127
45992,note_off,56,0,0,,8,,,80,127
45993,note_on,1,0,0,,10,,,81,127
46049,note_off,56,0,0,,10,,,81,127
46050,note_on,1,0,0,,12,,,83,127
46164,note_off,114,0,0,,8,,,56,127
46164,note_off,0,0,0,,4,,,52,127
46164,note_off,0,0,0,,12,,,59,127
46165,note_on,1,0,0,,4,,,52,127
46165,note_on,0,0,0,,12,,,59,127
46165,note_on,0,0,0,,8,,,56,127
46394,note_off,229,0,0,,8,,,56,127
46394,note_off,0,0,0,,12,,,59,127
46394,note_off,0,0,0,,4,,,52,127
46394,note_off,0,0,0,,12,,,83,127
46394,note_off,0,0,0,,12,,,71,127
46395,note_on,1,0,0,,1,,,73,127
46395,note_on,0,0,0,,10,,,45,127
46509,note_off,114,0,0,,1,,,73,127
46510,note_on,1,0,0,,10,,,81,127
46624,note_off,114,0,0,,10,,,81,127
46624,note_off,0,0,0,,10,,,45,127
46625,note_on,1,0,0,,8,,,80,127
46625,note_on,0,0,0,,10,,,57,127
46739,note_off,114,0,0,,8,,,80,127
46740,note_on,1,0,0,,6,,,78,127
46854,note_off,114,0,0,,6,,,78,127
46854,note_off,0,0,0,,10,,,57,127
46855,note_on,1,0,0,,8,,,80,127
46855,note_on,0,0,0,,12,,,59,127
46969,note_off,114,0,0,,8,,,80,127
46970,note_on,1,0,0,,4,,,76,127
47084,note_off,114,0,0,,4,,,76,127
47085,note_on,1,0,0,,6,,,78,127
47085,note_on,0,0,0,,12,,,47,127
47199,note_off,114,0,0,,6,,,78,127
47200,note_on,1,0,0,,3,,,75,127
47310,note_off,110,0,0,,12,,,59,127
47314,note_off,4,0,0,,3,,,75,127
47314,note_off,0,0,0,,12,,,47,127
47315,note_on,1,0,0,,4,,,76,127
47315,note_on,0,0,0,,1,,,61,127
47429,note_off,114,0,0,,4,,,76,127
47430,note_on,1,0,0,,4,,,76,127
47544,note_off,114,0,0,,4,,,76,127
47544,note_off,0,0,0,,1,,,61,127
47545,note_on,1,0,0,,3,,,75,127
47545,note_on,0,0,0,,10,,,57,127
47659,note_off,114,0,0,,3,,,75,127
47660,note_on,1,0,0,,1,,,73,127
47774,note_off,114,0,0,,1,,,73,127
47774,note_off,0,0,0,,10,,,57,127
47775,note_on,1,0,0,,12,,,71,127
47775,note_on,0,0,0,,3,,,63,127
47889,note_off,114,0,0,,12,,,71,127
47890,note_on,1,0,0,,10,,,69,127
48004,note_off,114,0,0,,10,,,69,127
48004,note_off,0,0,0,,3,,,63,127
48005,note_on,1,0,0,,8,,,68,127
48005,note_on,0,0,0,,12,,,59,127
48119,note_off,114,0,0,,8,,,68,127
48120,note_on,1,0,0,,6,,,66,127
48234,note_off,114,0,0,,6,,,66,127
48234,note_off,0,0,0,,12,,,59,127
48235,note_on,1,0,0,,8,,,68,127
48235,note_on,0,0,0,,4,,,64,127
48348,note_off,113,0,0,,4,,,64,127
48349,note_off,1,0,0,,8,,,68,127
48350,note_on,1,0,0,,4,,,64,127
48464,note_off,114,0,0,,4,,,64,127
48465,note_on,1,0,0,,10,,,69,127
48465,note_on,0,0,0,,10,,,57,127
48579,note_off,114,0,0,,10,,,69,127
48580,note_on,1,0,0,,6,,,66,127
48694,note_off,114,0,0,,6,,,66,127
48694,note_off,0,0,0,,10,,,57,127
48695,note_on,1,0,0,,8,,,68,127
48695,note_on,0,0,0,,12,,,59,127
48809,note_off,114,0,0,,8,,,68,127
48810,note_on,1,0,0,,4,,,64,127
48924,note_off,114,0,0,,4,,,64,127
48925,note_on,1,0,0,,6,,,66,127
48925,note_on,0,0,0,,12,,,47,127
49039,note_off,114,0,0,,6,,,66,127
49040,note_on,1,0,0,,3,,,63,127
49150,note_off,110,0,0,,12,,,59,127
49154,note_off,4,0,0,,3,,,63,127
49154,note_off,0,0,0,,12,,,47,127
49155,note_on,1,0,0,,4,,,64,127
49155,note_on,0,0,0,,1,,,49,127
49269,note_off,114,0,0,,4,,,64,127
49270,note_on,1,0,0,,4,,,64,127
49384,note_off,114,0,0,,4,,,64,127
49384,note_off,0,0,0,,1,,,49,127
49385,note_on,1,0,0,,3,,,63,127
49385,note_on,0,0,0,,10,,,45,127
49499,note_off,114,0,0,,3,,,63,127
49500,note_on,1,0,0,,1,,,61,127
49614,note_off,114,0,0,,1,,,61,127
49614,note_off,0,0,0,,10,,,45,127
49615,note_on,1,0,0,,12,,,59,127
49615,note_on,0,0,0,,3,,,51,127
49729,note_off,114,0,0,,12,,,59,127
49730,note_on,1,0,0,,10,,,57,127
49844,note_off,114,0,0,,10,,,57,127
49844,note_off,0,0,0,,3,,,51,127
49845,note_on,1,0,0,,8,,,56,127
49845,note_on,0,0,0,,12,,,47,127
49959,note_off,114,0,0,,8,,,56,127
49960,note_on,1,0,0,,6,,,54,127
50074,note_off,114,0,0,,6,,,54,127
50074,note_off,0,0,0,,12,,,47,127
50075,note_on,1,0,0,,8,,,56,127
50075,note_on,0,0,0,,4,,,52,127
50188,note_off,113,0,0,,4,,,52,127
50189,note_off,1,0,0,,8,,,56,127
50190,note_on,1,0,0,,4,,,52,127
50304,note_off,114,0,0,,4,,,52,127
50305,note_on,1,0,0,,10,,,57,127
50305,note_on,0,0,0,,10,,,45,127
50419,note_off,114,0,0,,10,,,57,127
50420,note_on,1,0,0,,6,,,54,127
50534,note_off,114,0,0,,6,,,54,127
50534,note_off,0,0,0,,10,,,45,127
50535,note_on,1,0,0,,8,,,56,127
50535,note_on,0,0,0,,12,,,47,127
50649,note_off,114,0,0,,8,,,56,127
50650,note_on,1,0,0,,4,,,52,127
50764,note_off,114,0,0,,4,,,52,127
50765,note_on,1,0,0,,6,,,54,127
50765,note_on,0,0,0,,12,,,35,127
50879,note_off,114,0,0,,6,,,54,127
50880,note_on,1,0,0,,3,,,51,127
50990,note_off,110,0,0,,12,,,47,127
50994,note_off,4,0,0,,3,,,51,127
50994,note_off,0,0,0,,12,,,35,127
50995,note_on,1,0,0,,3,,,51,127
50995,note_on,0,0,0,,4,,,40,127
51245,note_on,250,0,0,,4,,,52,127
51247,note_off,2,0,0,,3,,,51,127
51653,note_off,406,0,0,,4,,,52,127
51706,note_on,53,0,0,,4,,,64,127
51916,note_off,210,0,0,,4,,,40,127
51935,note_off,19,0,0,,4,,,64,127
51936,note_on,1,0,0,,12,,,71,127
52165,note_off,229,0,0,,12,,,71,127
52166,note_on,1,0,0,,12,,,71,127
52395,note_off,229,0,0,,12,,,71,127
52396,note_on,1,0,0,,12,,,71,127
52625,note_off,229,0,0,,12,,,71,127
52626,note_on,1,0,0,,12,,,71,127
52855,note_off,229,0,0,,12,,,71,127
52856,note_on,1,0,0,,12,,,71,127
52970,note_off,114,0,0,,12,,,71,127
52971,note_on,1,0,0,,0,,,72,127
53085,note_off,114,0,0,,0,,,72,127
53086,note_on,1,0,0,,5,,,65,127
53086,note_on,0,0,0,,2,,,62,127
53086,note_on,0,0,0,,4,,,64,127
53086,note_on,0,0,0,,2,,,74,127
53315,note_off,229,0,0,,4,,,64,127
53315,note_off,0,0,0,,2,,,62,127
53315,note_off,0,0,0,,5,,,65,127
53316,note_on,1,0,0,,5,,,65,127
53316,note_on,0,0,0,,4,,,64,127
53316,note_on,0,0,0,,2,,,62,127
53545,note_off,229,0,0,,2,,,62,127
53545,note_off,0,0,0,,4,,,64,127
53545,note_off,0,0,0,,5,,,65,127
53545,note_off,0,0,0,,2,,,74,127
53546,note_on,1,0,0,,2,,,62,127
53546,note_on,0,0,0,,4,,,64,127
53546,note_on,0,0,0,,5,,,65,127
53546,note_on,0,0,0,,0,,,72,127
53775,note_off,229,0,0,,0,,,72,127
53775,note_off,0,0,0,,5,,,65,127
53775,note_off,0,0,0,,4,,,64,127
53775,note_off,0,0,0,,2,,,62,127
53776,note_on,1,0,0,,5,,,65,127
53776,note_on,0,0,0,,4,,,64,127
53776,note_on,0,0,0,,2,,,62,127
53776,note_on,0,0,0,,12,,,71,127
54005,note_off,229,0,0,,12,,,71,127
54005,note_off,0,0,0,,2,,,62,127
54005,note_off,0,0,0,,4,,,64,127
54005,note_off,0,0,0,,5,,,65,127
54006,note_on,1,0,0,,2,,,62,127
54006,note_on,0,0,0,,5,,,65,127
54006,note_on,0,0,0,,4,,,64,127
54006,note_on,0,0,0,,10,,,69,127
54235,note_off,229,0,0,,10,,,69,127
54235,note_off,0,0,0,,4,,,64,127
54235,note_off,0,0,0,,5,,,65,127
54235,note_off,0,0,0,,2,,,62,127
54236,note_on,1,0,0,,4,,,64,127
54236,note_on,0,0,0,,2,,,62,127
54236,note_on,0,0,0,,5,,,65,127
54236,note_on,0,0,0,,5,,,77,127
54236,note_on,0,0,0,,8,,,68,127
54465,note_off,229,0,0,,8,,,68,127
54465,note_off,0,0,0,,5,,,65,127
54465,note_off,0,0,0,,2,,,62,127
54465,note_off,0,0,0,,4,,,64,127
54466,note_on,1,0,0,,2,,,62,127
54466,note_on,0,0,0,,5,,,65,127
54466,note_on,0,0,0,,4,,,64,127
54466,note_on,0,0,0,,10,,,69,127
54695,note_off,229,0,0,,10,,,69,127
54695,note_off,0,0,0,,4,,,64,127
54695,note_off,0,0,0,,5,,,65,127
54695,note_off,0,0,0,,2,,,62,127
54696,note_on,1,0,0,,4,,,52,127
54696,note_on,0,0,0,,4,,,64,127
54696,note_on,0,0,0,,8,,,68,127
54925,note_off,229,0,0,,5,,,77,127
54926,note_on,1,0,0,,3,,,75,127
55155,note_off,229,0,0,,3,,,75,127
55156,note_on,1,0,0,,4,,,76,127
55385,note_off,229,0,0,,4,,,76,127
55385,note_off,0,0,0,,8,,,68,127
55385,note_off,0,0,0,,4,,,64,127
55385,note_off,0,0,0,,4,,,52,127
55386,note_on,1,0,0,,4,,,64,127
55615,note_off,229,0,0,,4,,,64,127
55616,note_on,1,0,0,,12,,,71,127
55845,note_off,229,0,0,,12,,,71,127
55846,note_on,1,0,0,,12,,,71,127
56075,note_off,229,0,0,,12,,,71,127
56076,note_on,1,0,0,,12,,,71,127
56305,note_off,229,0,0,,12,,,71,127
56306,note_on,1,0,0,,12,,,71,127
56535,note_off,229,0,0,,12,,,71,127
56536,note_on,1,0,0,,12,,,71,127
56650,note_off,114,0,0,,12,,,71,127
56651,note_on,1,0,0,,0,,,72,127
56765,note_off,114,0,0,,0,,,72,127
56766,note_on,1,0,0,,2,,,62,127
56766,note_on,0,0,0,,5,,,65,127
56766,note_on,0,0,0,,4,,,64,127
56766,note_on,0,0,0,,2,,,74,127
56995,note_off,229,0,0,,4,,,64,127
56995,note_off,0,0,0,,5,,,65,127
56995,note_off,0,0,0,,2,,,62,127
56996,note_on,1,0,0,,2,,,62,127
56996,note_on,0,0,0,,5,,,65,127
56996,note_on,0,0,0,,4,,,64,127
57225,note_off,229,0,0,,4,,,64,127
57225,note_off,0,0,0,,5,,,65,127
57225,note_off,0,0,0,,2,,,62,127
57225,note_off,0,0,0,,2,,,74,127
57226,note_on,1,0,0,,4,,,64,127
57226,note_on,0,0,0,,2,,,62,127
57226,note_on,0,0,0,,5,,,65,127
57226,note_on,0,0,0,,0,,,72,127
57455,note_off,229,0,0,,0,,,72,127
57455,note_off,0,0,0,,5,,,65,127
57455,note_off,0,0,0,,2,,,62,127
57455,note_off,0,0,0,,4,,,64,127
57456,note_on,1,0,0,,2,,,62,127
57456,note_on,0,0,0,,5,,,65,127
57456,note_on,0,0,0,,4,,,64,127
57456,note_on,0,0,0,,12,,,71,127
57685,note_off,229,0,0,,12,,,71,127
57685,note_off,0,0,0,,4,,,64,127
57685,note_off,0,0,0,,5,,,65,127
57685,note_off,0,0,0,,2,,,62,127
57686,note_on,1,0,0,,2,,,62,127
57686,note_on,0,0,0,,5,,,65,127
57686,note_on,0,0,0,,4,,,64,127
57686,note_on,0,0,0,,10,,,69,127
57915,note_off,229,0,0,,10,,,69,127
57915,note_off,0,0,0,,4,,,64,127
57915,note_off,0,0,0,,5,,,65,127
57915,note_off,0,0,0,,2,,,62,127
57916,note_on,1,0,0,,4,,,64,127
57916,note_on,0,0,0,,2,,,62,127
57916,note_on,0,0,0,,5,,,65,127
57916,note_on,0,0,0,,5,,,77,127
57916,note_on,0,0,0,,8,,,68,127
58145,note_off,229,0,0,,8,,,68,127
58145,note_off,0,0,0,,5,,,65,127
58145,note_off,0,0,0,,2,,,62,127
58145,note_off,0,0,0,,4,,,64,127
58146,note_on,1,0,0,,2,,,62,127
58146,note_on,0,0,0,,5,,,65,127
58146,note_on,0,0,0,,4,,,64,127
58146,note_on,0,0,0,,10,,,69,127
58375,note_off,229,0,0,,10,,,69,127
58375,note_off,0,0,0,,4,,,64,127
58375,note_off,0,0,0,,5,,,65,127
58375,note_off,0,0,0,,2,,,62,127
58376,note_on,1,0,0,,4,,,64,127
58376,note_on,0,0,0,,8,,,68,127
58605,note_off,229,0,0,,5,,,77,127
58606,note_on,1,0,0,,12,,,59,127
58606,note_on,0,0,0,,3,,,75,127
58835,note_off,229,0,0,,3,,,75,127
58835,note_off,0,0,0,,12,,,59,127
58836,note_on,1,0,0,,4,,,52,127
58836,note_on,0,0,0,,4,,,76,127
59065,note_off,229,0,0,,8,,,68,127
59065,note_off,0,0,0,,4,,,64,127
59244,note_off,179,0,0,,4,,,76,127
59296,note_off,52,0,0,,4,,,52,127
59336,note_on,40,0,0,,0,,,72,127
59336,note_on,0,0,0,,4,,,76,127
59565,note_off,229,0,0,,0,,,72,127
59566,note_on,1,0,0,,0,,,72,127
59795,note_off,229,0,0,,0,,,72,127
59796,note_on,1,0,0,,0,,,72,127
60025,note_off,229,0,0,,0,,,72,127
60025,note_off,0,0,0,,4,,,76,127
60026,note_on,1,0,0,,0,,,72,127
60026,note_on,0,0,0,,2,,,74,127
60082,note_off,56,0,0,,2,,,74,127
60083,note_on,1,0,0,,4,,,76,127
60139,note_off,56,0,0,,4,,,76,127
60140,note_on,1,0,0,,5,,,77,127
60196,note_off,56,0,0,,5,,,77,127
60197,note_on,1,0,0,,7,,,79,127
60253,note_off,56,0,0,,7,,,79,127
60253,note_off,0,0,0,,0,,,72,127
60254,note_on,1,0,0,,5,,,65,127
60254,note_on,0,0,0,,10,,,81,127
60483,note_off,229,0,0,,10,,,81,127
60483,note_off,0,0,0,,5,,,65,127
60484,note_on,1,0,0,,5,,,65,127
60484,note_on,0,0,0,,10,,,81,127
60713,note_off,229,0,0,,10,,,81,127
60713,note_off,0,0,0,,5,,,65,127
60714,note_on,1,0,0,,12,,,71,127
60714,note_on,0,0,0,,2,,,74,127
60943,note_off,229,0,0,,2,,,74,127
60943,note_off,0,0,0,,12,,,71,127
60944,note_on,1,0,0,,12,,,71,127
60944,note_on,0,0,0,,1,,,73,127
61000,note_off,56,0,0,,1,,,73,127
61001,note_on,1,0,0,,2,,,74,127
61057,note_off,56,0,0,,2,,,74,127
61058,note_on,1,0,0,,4,,,76,127
61114,note_off,56,0,0,,4,,,76,127
61115,note_on,1,0,0,,6,,,78,127
61171,note_off,56,0,0,,6,,,78,127
61171,note_off,0,0,0,,12,,,71,127
61172,note_on,1,0,0,,4,,,64,127
61172,note_on,0,0,0,,7,,,79,127
61401,note_off,229,0,0,,7,,,79,127
61401,note_off,0,0,0,,4,,,64,127
61402,note_on,1,0,0,,4,,,64,127
61402,note_on,0,0,0,,7,,,79,127
61631,note_off,229,0,0,,7,,,79,127
61631,note_off,0,0,0,,4,,,64,127
61632,note_on,1,0,0,,10,,,69,127
61632,note_on,0,0,0,,0,,,72,127
61861,note_off,229,0,0,,0,,,72,127
61861,note_off,0,0,0,,10,,,69,127
61862,note_on,1,0,0,,10,,,69,127
61862,note_on,0,0,0,,12,,,71,127
61918,note_off,56,0,0,,12,,,71,127
61919,note_on,1,0,0,,0,,,72,127
61975,note_off,56,0,0,,0,,,72,127
61976,note_on,1,0,0,,2,,,74,127
62032,note_off,56,0,0,,2,,,74,127
62033,note_on,1,0,0,,4,,,76,127
62089,note_off,56,0,0,,4,,,76,127
62089,note_off,0,0,0,,10,,,69,127
62090,note_on,1,0,0,,2,,,62,127
62090,note_on,0,0,0,,5,,,77,127
62319,note_off,229,0,0,,5,,,77,127
62319,note_off,0,0,0,,2,,,62,127
62320,note_on,1,0,0,,2,,,62,127
62320,note_on,0,0,0,,5,,,77,127
62549,note_off,229,0,0,,5,,,77,127
62549,note_off,0,0,0,,2,,,62,127
62550,note_on,1,0,0,,7,,,67,127
62550,note_on,0,0,0,,12,,,71,127
62779,note_off,229,0,0,,12,,,71,127
62779,note_off,0,0,0,,7,,,67,127
62780,note_on,1,0,0,,7,,,67,127
62780,note_on,0,0,0,,10,,,69,127
62836,note_off,56,0,0,,10,,,69,127
62837,note_on,1,0,0,,12,,,71,127
62893,note_off,56,0,0,,12,,,71,127
62894,note_on,1,0,0,,0,,,72,127
62950,note_off,56,0,0,,0,,,72,127
62951,note_on,1,0,0,,2,,,74,127
63007,note_off,56,0,0,,2,,,74,127
63007,note_off,0,0,0,,7,,,67,127
63008,note_on,1,0,0,,0,,,60,127
63008,note_on,0,0,0,,4,,,64,127
63008,note_on,0,0,0,,4,,,76,127
63122,note_off,114,0,0,,4,,,76,127
63123,note_on,1,0,0,,0,,,72,127
63237,note_off,114,0,0,,0,,,72,127
63237,note_off,0,0,0,,4,,,64,127
63237,note_off,0,0,0,,0,,,60,127
63238,note_on,1,0,0,,5,,,65,127
63238,note_on,0,0,0,,2,,,62,127
63238,note_on,0,0,0,,12,,,71,127
63352,note_off,114,0,0,,12,,,71,127
63353,note_on,1,0,0,,2,,,74,127
63467,note_off,114,0,0,,2,,,74,127
63467,note_off,0,0,0,,2,,,62,127
63467,note_off,0,0,0,,5,,,65,127
63468,note_on,1,0,0,,7,,,67,127
63468,note_on,0,0,0,,4,,,64,127
63468,note_on,0,0,0,,0,,,72,127
63582,note_off,114,0,0,,0,,,72,127
63583,note_on,1,0,0,,4,,,76,127
63697,note_off,114,0,0,,4,,,76,127
63697,note_off,0,0,0,,4,,,64,127
63698,note_on,1,0,0,,12,,,59,127
63698,note_on,0,0,0,,2,,,74,127
63812,note_off,114,0,0,,2,,,74,127
63813,note_on,1,0,0,,5,,,77,127
63927,note_off,114,0,0,,5,,,77,127
63927,note_off,0,0,0,,12,,,59,127
63928,note_on,1,0,0,,0,,,60,127
63928,note_on,0,0,0,,4,,,76,127
64042,note_off,114,0,0,,4,,,76,127
64043,note_on,1,0,0,,0,,,72,127
64157,note_off,114,0,0,,0,,,72,127
64157,note_off,0,0,0,,0,,,60,127
64157,note_off,0,0,0,,7,,,67,127
64158,note_on,1,0,0,,5,,,65,127
64158,note_on,0,0,0,,2,,,62,127
64158,note_on,0,0,0,,12,,,71,127
64272,note_off,114,0,0,,12,,,71,127
64273,note_on,1,0,0,,2,,,74,127
64387,note_off,114,0,0,,2,,,74,127
64387,note_off,0,0,0,,2,,,62,127
64387,note_off,0,0,0,,5,,,65,127
64388,note_on,1,0,0,,4,,,64,127
64388,note_on,0,0,0,,7,,,67,127
64388,note_on,0,0,0,,0,,,72,127
64502,note_off,114,0,0,,0,,,72,127
64503,note_on,1,0,0,,4,,,76,127
64617,note_off,114,0,0,,4,,,76,127
64617,note_off,0,0,0,,4,,,64,127
64618,note_on,1,0,0,,12,,,59,127
64618,note_on,0,0,0,,2,,,74,127
64732,note_off,114,0,0,,2,,,74,127
64733,note_on,1,0,0,,5,,,77,127
64847,note_off,114,0,0,,5,,,77,127
64847,note_off,0,0,0,,12,,,59,127
64848,note_on,1,0,0,,0,,,60,127
64848,note_on,0,0,0,,4,,,76,127
64962,note_off,114,0,0,,4,,,76,127
64963,note_on,1,0,0,,2,,,74,127
65077,note_off,114,0,0,,2,,,74,127
65077,note_off,0,0,0,,0,,,60,127
65078,note_on,1,0,0,,12,,,59,127
65078,note_on,0,0,0,,0,,,72,127
65192,note_off,114,0,0,,0,,,72,127
65193,note_on,1,0,0,,12,,,71,127
65307,note_off,114,0,0,,12,,,71,127
65307,note_off,0,0,0,,12,,,59,127
65308,note_on,1,0,0,,10,,,57,127
65308,note_on,0,0,0,,0,,,72,127
65422,note_off,114,0,0,,0,,,72,127
65423,note_on,1,0,0,,2,,,74,127
65533,note_off,110,0,0,,7,,,67,127
65537,note_off,4,0,0,,2,,,74,127
65538,note_on,1,0,0,,6,,,66,127
65538,note_on,0,0,0,,4,,,76,127
65652,note_off,114,0,0,,4,,,76,127
65653,note_on,1,0,0,,6,,,78,127
65763,note_off,110,0,0,,10,,,57,127
65767,note_off,4,0,0,,6,,,78,127
65767,note_off,0,0,0,,6,,,66,127
65768,note_on,1,0,0,,7,,,55,127
65768,note_on,0,0,0,,7,,,67,127
65768,note_on,0,0,0,,7,,,79,127
65882,note_off,114,0,0,,7,,,79,127
65883,note_on,1,0,0,,2,,,74,127
65997,note_off,114,0,0,,2,,,74,127
65998,note_on,1,0,0,,0,,,72,127
66112,note_off,114,0,0,,0,,,72,127
66113,note_on,1,0,0,,12,,,71,127
66227,note_off,114,0,0,,12,,,71,127
66227,note_off,0,0,0,,7,,,67,127
66227,note_off,0,0,0,,7,,,55,127
66228,note_on,1,0,0,,10,,,57,127
66228,note_on,0,0,0,,2,,,62,127
66228,note_on,0,0,0,,0,,,60,127
66228,note_on,0,0,0,,6,,,66,127
66228,note_on,0,0,0,,0,,,72,127
66342,note_off,114,0,0,,0,,,72,127
66343,note_on,1,0,0,,2,,,74,127
66457,note_off,114,0,0,,2,,,74,127
66458,note_on,1,0,0,,4,,,76,127
66572,note_off,114,0,0,,4,,,76,127
66573,note_on,1,0,0,,6,,,78,127
66687,note_off,114,0,0,,6,,,78,127
66687,note_off,0,0,0,,6,,,66,127
66687,note_off,0,0,0,,0,,,60,127
66687,note_off,0,0,0,,2,,,62,127
66687,note_off,0,0,0,,10,,,57,127
66688,note_on,1,0,0,,2,,,62,127
66688,note_on,0,0,0,,7,,,55,127
66688,note_on,0,0,0,,7,,,67,127
66688,note_on,0,0,0,,7,,,79,127
66802,note_off,114,0,0,,7,,,79,127
66803,note_on,1,0,0,,2,,,74,127
66917,note_off,114,0,0,,2,,,74,127
66918,note_on,1,0,0,,0,,,72,127
67032,note_off,114,0,0,,0,,,72,127
67033,note_on,1,0,0,,12,,,71,127
67147,note_off,114,0,0,,12,,,71,127
67147,note_off,0,0,0,,7,,,67,127
67147,note_off,0,0,0,,7,,,55,127
67147,note_off,0,0,0,,2,,,62,127
67148,note_on,1,0,0,,0,,,60,127
67148,note_on,0,0,0,,10,,,57,127
67148,note_on,0,0,0,,6,,,66,127
67148,note_on,0,0,0,,2,,,62,127
67148,note_on,0,0,0,,0,,,72,127
67262,note_off,114,0,0,,0,,,72,127
67263,note_on,1,0,0,,2,,,74,127
67377,note_off,114,0,0,,2,,,74,127
67378,note_on,1,0,0,,4,,,76,127
67492,note_off,114,0,0,,4,,,76,127
67493,note_on,1,0,0,,6,,,78,127
67607,note_off,114,0,0,,6,,,78,127
67607,note_off,0,0,0,,2,,,62,127
67607,note_off,0,0,0,,6,,,66,127
67607,note_off,0,0,0,,10,,,57,127
67607,note_off,0,0,0,,0,,,60,127
67608,note_on,1,0,0,,7,,,55,127
67608,note_on,0,0,0,,7,,,67,127
67608,note_on,0,0,0,,7,,,79,127
67722,note_off,114,0,0,,7,,,79,127
67723,note_on,1,0,0,,2,,,74,127
67837,note_off,114,0,0,,2,,,74,127
67838,note_on,1,0,0,,12,,,71,127
67944,note_off,106,0,0,,7,,,67,127
67952,note_off,8,0,0,,12,,,71,127
67953,note_on,1,0,0,,7,,,67,127
68067,note_off,114,0,0,,7,,,67,127
68068,note_on,1,0,0,,7,,,67,127
68183,note_on,115,0,0,,2,,,62,127
68297,note_off,114,0,0,,2,,,62,127
68297,note_off,0,0,0,,7,,,55,127
68298,note_on,1,0,0,,12,,,59,127
68412,note_off,114,0,0,,12,,,59,127
68413,note_on,1,0,0,,7,,,55,127
68523,note_off,110,0,0,,7,,,67,127
68527,note_off,4,0,0,,7,,,55,127
68528,note_on,1,0,0,,7,,,55,127
68643,note_on,115,0,0,,2,,,50,127
68757,note_off,114,0,0,,2,,,50,127
68758,note_on,1,0,0,,12,,,47,127
68872,note_off,114,0,0,,12,,,47,127
68873,note_on,1,0,0,,7,,,43,127
68983,note_off,110,0,0,,7,,,55,127
68987,note_off,4,0,0,,7,,,43,127
68988,note_on,1,0,0,,7,,,43,127
69103,note_on,115,0,0,,2,,,38,127
69217,note_off,114,0,0,,2,,,38,127
69218,note_on,1,0,0,,12,,,35,127
69332,note_off,114,0,0,,12,,,35,127
69333,note_on,1,0,0,,7,,,31,127
69443,note_off,110,0,0,,7,,,43,127
69447,note_off,4,0,0,,7,,,31,127
69459,note_on,12,0,0,,7,,,31,127
70240,note_off,781,0,0,,7,,,31,127
70264,note_on,24,0,0,,2,,,74,127
70514,note_on,250,0,0,,3,,,75,127
70516,note_off,2,0,0,,2,,,74,127
70743,note_off,227,0,0,,3,,,75,127
70744,note_on,1,0,0,,6,,,78,127
70744,note_on,0,0,0,,0,,,72,127
70744,note_on,0,0,0,,3,,,75,127
70744,note_on,0,0,0,,7,,,67,127
70973,note_off,229,0,0,,7,,,67,127
70973,note_off,0,0,0,,3,,,75,127
70973,note_off,0,0,0,,0,,,72,127
70974,note_on,1,0,0,,3,,,75,127
70974,note_on,0,0,0,,7,,,67,127
70974,note_on,0,0,0,,0,,,72,127
71203,note_off,229,0,0,,0,,,72,127
71203,note_off,0,0,0,,7,,,67,127
71203,note_off,0,0,0,,3,,,75,127
71203,note_off,0,0,0,,6,,,78,127
71204,note_on,1,0,0,,7,,,79,127
71204,note_on,0,0,0,,3,,,75,127
71204,note_on,0,0,0,,0,,,72,127
71204,note_on,0,0,0,,7,,,67,127
71433,note_off,229,0,0,,7,,,67,127
71433,note_off,0,0,0,,0,,,72,127
71433,note_off,0,0,0,,3,,,75,127
71433,note_off,0,0,0,,7,,,79,127
71434,note_on,1,0,0,,10,,,81,127
71434,note_on,0,0,0,,2,,,74,127
71434,note_on,0,0,0,,0,,,72,127
71434,note_on,0,0,0,,6,,,66,127
71548,note_off,114,0,0,,10,,,81,127
71549,note_on,1,0,0,,12,,,83,127
71663,note_off,114,0,0,,12,,,83,127
71663,note_off,0,0,0,,6,,,66,127
71663,note_off,0,0,0,,0,,,72,127
71663,note_off,0,0,0,,2,,,74,127
71664,note_on,1,0,0,,0,,,84,127
71664,note_on,0,0,0,,2,,,74,127
71664,note_on,0,0,0,,0,,,72,127
71664,note_on,0,0,0,,6,,,66,127
71893,note_off,229,0,0,,6,,,66,127
71893,note_off,0,0,0,,0,,,72,127
71893,note_off,0,0,0,,2,,,74,127
71894,note_on,1,0,0,,2,,,74,127
71894,note_on,0,0,0,,6,,,66,127
71894,note_on,0,0,0,,0,,,72,127
72123,note_off,229,0,0,,0,,,72,127
72123,note_off,0,0,0,,6,,,66,127
72123,note_off,0,0,0,,2,,,74,127
72123,note_off,0,0,0,,0,,,84,127
72124,note_on,1,0,0,,2,,,74,127
72124,note_on,0,0,0,,0,,,72,127
72124,note_on,0,0,0,,6,,,66,127
72352,note_off,228,0,0,,6,,,66,127
72352,note_off,0,0,0,,0,,,72,127
72353,note_off,1,0,0,,2,,,74,127
72354,note_on,1,0,0,,3,,,75,127
72583,note_off,229,0,0,,3,,,75,127
72584,note_on,1,0,0,,6,,,78,127
72584,note_on,0,0,0,,0,,,72,127
72584,note_on,0,0,0,,3,,,75,127
72584,note_on,0,0,0,,7,,,67,127
72813,note_off,229,0,0,,7,,,67,127
72813,note_off,0,0,0,,3,,,75,127
72813,note_off,0,0,0,,0,,,72,127
72814,note_on,1,0,0,,0,,,72,127
72814,note_on,0,0,0,,3,,,75,127
72814,note_on,0,0,0,,7,,,67,127
73043,note_off,229,0,0,,7,,,67,127
73043,note_off,0,0,0,,3,,,75,127
73043,note_off,0,0,0,,0,,,72,127
73043,note_off,0,0,0,,6,,,78,127
73044,note_on,1,0,0,,7,,,79,127
73044,note_on,0,0,0,,3,,,75,127
73044,note_on,0,0,0,,0,,,72,127
73044,note_on,0,0,0,,7,,,67,127
73273,note_off,229,0,0,,7,,,67,127
73273,note_off,0,0,0,,0,,,72,127
73273,note_off,0,0,0,,3,,,75,127
73273,note_off,0,0,0,,7,,,79,127
73274,note_on,1,0,0,,10,,,81,127
73274,note_on,0,0,0,,0,,,72,127
73274,note_on,0,0,0,,2,,,74,127
73274,note_on,0,0,0,,6,,,66,127
73388,note_off,114,0,0,,10,,,81,127
73389,note_on,1,0,0,,12,,,83,127
73503,note_off,114,0,0,,12,,,83,127
73503,note_off,0,0,0,,6,,,66,127
73503,note_off,0,0,0,,2,,,74,127
73503,note_off,0,0,0,,0,,,72,127
73504,note_on,1,0,0,,0,,,84,127
73504,note_on,0,0,0,,0,,,72,127
73504,note_on,0,0,0,,2,,,74,127
73504,note_on,0,0,0,,6,,,66,127
73733,note_off,229,0,0,,6,,,66,127
73733,note_off,0,0,0,,2,,,74,127
73733,note_off,0,0,0,,0,,,72,127
73734,note_on,1,0,0,,0,,,72,127
73734,note_on,0,0,0,,2,,,74,127
73734,note_on,0,0,0,,6,,,66,127
73963,note_off,229,0,0,,6,,,66,127
73963,note_off,0,0,0,,2,,,74,127
73963,note_off,0,0,0,,0,,,72,127
73964,note_on,1,0,0,,4,,,76,127
73964,note_on,0,0,0,,0,,,72,127
73964,note_on,0,0,0,,6,,,66,127
74193,note_off,229,0,0,,6,,,66,127
74193,note_off,0,0,0,,0,,,72,127
74193,note_off,0,0,0,,4,,,76,127
74193,note_off,0,0,0,,0,,,84,127
74194,note_on,1,0,0,,0,,,84,127
74194,note_on,0,0,0,,10,,,69,127
74194,note_on,0,0,0,,6,,,66,127
74194,note_on,0,0,0,,12,,,71,127
74194,note_on,0,0,0,,3,,,75,127
74423,note_off,229,0,0,,0,,,84,127
74424,note_on,1,0,0,,12,,,83,127
74653,note_off,229,0,0,,12,,,83,127
74653,note_off,0,0,0,,3,,,75,127
74653,note_off,0,0,0,,12,,,71,127
74653,note_off,0,0,0,,6,,,66,127
74653,note_off,0,0,0,,10,,,69,127
74654,note_on,1,0,0,,0,,,84,127
74654,note_on,0,0,0,,12,,,71,127
74654,note_on,0,0,0,,3,,,75,127
74654,note_on,0,0,0,,6,,,66,127
74654,note_on,0,0,0,,10,,,69,127
74768,note_off,114,0,0,,0,,,84,127
74769,note_on,1,0,0,,12,,,83,127
74883,note_off,114,0,0,,12,,,83,127
74884,note_on,1,0,0,,10,,,81,127
75113,note_off,229,0,0,,10,,,81,127
75113,note_off,0,0,0,,10,,,69,127
75113,note_off,0,0,0,,6,,,66,127
75113,note_off,0,0,0,,3,,,75,127
75113,note_off,0,0,0,,12,,,71,127
75114,note_on,1,0,0,,10,,,81,127
75114,note_on,0,0,0,,4,,,76,127
75114,note_on,0,0,0,,4,,,64,127
75170,note_off,56,0,0,,10,,,81,127
75171,note_on,1,0,0,,8,,,80,127
75227,note_off,56,0,0,,8,,,80,127
75228,note_on,1,0,0,,6,,,78,127
75281,note_off,53,0,0,,4,,,76,127
75285,note_off,4,0,0,,6,,,78,127
75286,note_on,1,0,0,,4,,,76,127
75573,note_off,287,0,0,,4,,,76,127
75573,note_off,0,0,0,,4,,,64,127
75574,note_on,1,0,0,,7,,,79,127
75574,note_on,0,0,0,,4,,,64,127
75574,note_on,0,0,0,,4,,,52,127
75630,note_off,56,0,0,,7,,,79,127
75631,note_on,1,0,0,,5,,,77,127
75687,note_off,56,0,0,,5,,,77,127
75688,note_on,1,0,0,,4,,,76,127
75744,note_off,56,0,0,,4,,,76,127
75745,note_on,1,0,0,,2,,,74,127
76032,note_off,287,0,0,,2,,,74,127
76032,note_off,0,0,0,,4,,,52,127
76032,note_off,0,0,0,,4,,,64,127
76033,note_on,1,0,0,,5,,,77,127
76033,note_on,0,0,0,,4,,,52,127
76033,note_on,0,0,0,,4,,,40,127
76089,note_off,56,0,0,,5,,,77,127
76090,note_on,1,0,0,,4,,,76,127
76146,note_off,56,0,0,,4,,,76,127
76147,note_on,1,0,0,,2,,,74,127
76203,note_off,56,0,0,,2,,,74,127
76204,note_on,1,0,0,,0,,,72,127
76491,note_off,287,0,0,,0,,,72,127
76491,note_off,0,0,0,,4,,,40,127
76492,note_on,1,0,0,,2,,,74,127
76492,note_on,0,0,0,,4,,,76,127
76492,note_on,0,0,0,,4,,,40,127
76548,note_off,56,0,0,,4,,,76,127
76548,note_off,0,0,0,,2,,,74,127
76549,note_on,1,0,0,,0,,,72,127
76605,note_off,56,0,0,,0,,,72,127
76606,note_on,1,0,0,,12,,,71,127
76662,note_off,56,0,0,,12,,,71,127
76663,note_on,1,0,0,,10,,,69,127
76950,note_off,287,0,0,,10,,,69,127
76950,note_off,0,0,0,,4,,,40,127
76951,note_on,1,0,0,,10,,,69,127
76951,note_on,0,0,0,,4,,,40,127
77007,note_off,56,0,0,,10,,,69,127
77008,note_on,1,0,0,,8,,,68,127
77064,note_off,56,0,0,,8,,,68,127
77065,note_on,1,0,0,,6,,,66,127
77121,note_off,56,0,0,,6,,,66,127
77122,note_on,1,0,0,,4,,,64,127
77408,note_off,286,0,0,,4,,,52,127
77602,note_off,194,0,0,,4,,,64,127
77669,note_off,67,0,0,,4,,,40,127
77698,note_on,29,0,0,,8,,,56,127
77698,note_on,0,0,0,,12,,,71,127
77812,note_off,114,0,0,,8,,,56,127
77813,note_on,1,0,0,,12,,,59,127
77927,note_off,114,0,0,,12,,,59,127
77927,note_off,0,0,0,,12,,,71,127
77928,note_on,1,0,0,,10,,,57,127
77928,note_on,0,0,0,,1,,,73,127
78042,note_off,114,0,0,,10,,,57,127
78043,note_on,1,0,0,,1,,,61,127
78157,note_off,114,0,0,,1,,,61,127
78157,note_off,0,0,0,,1,,,73,127
78158,note_on,1,0,0,,6,,,54,127
78158,note_on,0,0,0,,2,,,74,127
78272,note_off,114,0,0,,6,,,54,127
78273,note_on,1,0,0,,10,,,57,127
78387,note_off,114,0,0,,10,,,57,127
78388,note_on,1,0,0,,8,,,56,127
78494,note_off,106,0,0,,2,,,74,127
78502,note_off,8,0,0,,8,,,56,127
78503,note_on,1,0,0,,12,,,59,127
78617,note_off,114,0,0,,12,,,59,127
78618,note_on,1,0,0,,4,,,52,127
78618,note_on,0,0,0,,4,,,76,127
78732,note_off,114,0,0,,4,,,52,127
78733,note_on,1,0,0,,8,,,56,127
78847,note_off,114,0,0,,8,,,56,127
78847,note_off,0,0,0,,4,,,76,127
78848,note_on,1,0,0,,10,,,57,127
78848,note_on,0,0,0,,1,,,73,127
78962,note_off,114,0,0,,10,,,57,127
78963,note_on,1,0,0,,1,,,61,127
79077,note_off,114,0,0,,1,,,61,127
79077,note_off,0,0,0,,1,,,73,127
79078,note_on,1,0,0,,6,,,54,127
79078,note_on,0,0,0,,2,,,74,127
79192,note_off,114,0,0,,6,,,54,127
79193,note_on,1,0,0,,10,,,57,127
79307,note_off,114,0,0,,10,,,57,127
79308,note_on,1,0,0,,8,,,56,127
79414,note_off,106,0,0,,2,,,74,127
79422,note_off,8,0,0,,8,,,56,127
79423,note_on,1,0,0,,12,,,59,127
79537,note_off,114,0,0,,12,,,59,127
79538,note_on,1,0,0,,4,,,52,127
79538,note_on,0,0,0,,4,,,76,127
79652,note_off,114,0,0,,4,,,52,127
79653,note_on,1,0,0,,8,,,56,127
79767,note_off,114,0,0,,8,,,56,127
79767,note_off,0,0,0,,4,,,76,127
79768,note_on,1,0,0,,10,,,57,127
79768,note_on,0,0,0,,1,,,73,127
79882,note_off,114,0,0,,10,,,57,127
79883,note_on,1,0,0,,4,,,64,127
79997,note_off,114,0,0,,4,,,64,127
79997,note_off,0,0,0,,1,,,73,127
79998,note_on,1,0,0,,8,,,56,127
79998,note_on,0,0,0,,4,,,76,127
80112,note_off,114,0,0,,8,,,56,127
80113,note_on,1,0,0,,4,,,64,127
80227,note_off,114,0,0,,4,,,64,127
80227,note_off,0,0,0,,4,,,76,127
80228,note_on,1,0,0,,6,,,54,127
80228,note_on,0,0,0,,2,,,74,127
80342,note_off,114,0,0,,6,,,54,127
80343,note_on,1,0,0,,2,,,62,127
80457,note_off,114,0,0,,2,,,62,127
80457,note_off,0,0,0,,2,,,74,127
80458,note_on,1,0,0,,4,,,52,127
80458,note_on,0,0,0,,1,,,73,127
80572,note_off,114,0,0,,4,,,52,127
80573,note_on,1,0,0,,1,,,61,127
80687,note_off,114,0,0,,1,,,61,127
80687,note_off,0,0,0,,1,,,73,127
80688,note_on,1,0,0,,2,,,50,127
80688,note_on,0,0,0,,12,,,71,127
80802,note_off,114,0,0,,2,,,50,127
80803,note_on,1,0,0,,12,,,59,127
80917,note_off,114,0,0,,12,,,59,127
80917,note_off,0,0,0,,12,,,71,127
80918,note_on,1,0,0,,1,,,49,127
80918,note_on,0,0,0,,10,,,69,127
81032,note_off,114,0,0,,1,,,49,127
81033,note_on,1,0,0,,10,,,57,127
81147,note_off,114,0,0,,10,,,57,127
81147,note_off,0,0,0,,10,,,69,127
81148,note_on,1,0,0,,12,,,47,127
81148,note_on,0,0,0,,8,,,68,127
81262,note_off,114,0,0,,12,,,47,127
81263,note_on,1,0,0,,8,,,56,127
81377,note_off,114,0,0,,8,,,56,127
81377,note_off,0,0,0,,8,,,68,127
81378,note_on,1,0,0,,10,,,45,127
81378,note_on,0,0,0,,10,,,69,127
81492,note_off,114,0,0,,10,,,45,127
81493,note_on,1,0,0,,10,,,57,127
81607,note_off,114,0,0,,10,,,57,127
81607,note_off,0,0,0,,10,,,69,127
81608,note_on,1,0,0,,4,,,40,127
81608,note_on,0,0,0,,12,,,71,127
81722,note_off,114,0,0,,12,,,71,127
81723,note_on,1,0,0,,10,,,69,127
81837,note_off,114,0,0,,10,,,69,127
81838,note_on,1,0,0,,8,,,68,127
81952,note_off,114,0,0,,8,,,68,127
81953,note_on,1,0,0,,6,,,66,127
82067,note_off,114,0,0,,6,,,66,127
82067,note_off,0,0,0,,4,,,40,127
82068,note_on,1,0,0,,4,,,40,127
82068,note_on,0,0,0,,4,,,64,127
82182,note_off,114,0,0,,4,,,64,127
82183,note_on,1,0,0,,2,,,62,127
82297,note_off,114,0,0,,2,,,62,127
82298,note_on,1,0,0,,1,,,61,127
82412,note_off,114,0,0,,1,,,61,127
82413,note_on,1,0,0,,12,,,59,127
82527,note_off,114,0,0,,12,,,59,127
82527,note_off,0,0,0,,4,,,40,127
82528,note_on,1,0,0,,4,,,40,127
82528,note_on,0,0,0,,1,,,61,127
82642,note_off,114,0,0,,1,,,61,127
82643,note_on,1,0,0,,4,,,64,127
82757,note_off,114,0,0,,4,,,64,127
82758,note_on,1,0,0,,2,,,62,127
82872,note_off,114,0,0,,2,,,62,127
82873,note_on,1,0,0,,1,,,61,127
82987,note_off,114,0,0,,1,,,61,127
82987,note_off,0,0,0,,4,,,40,127
82988,note_on,1,0,0,,4,,,40,127
82988,note_on,0,0,0,,12,,,59,127
83102,note_off,114,0,0,,12,,,59,127
83103,note_on,1,0,0,,10,,,57,127
83217,note_off,114,0,0,,10,,,57,127
83218,note_on,1,0,0,,8,,,56,127
83332,note_off,114,0,0,,8,,,56,127
83333,note_on,1,0,0,,6,,,54,127
83447,note_off,114,0,0,,6,,,54,127
83447,note_off,0,0,0,,4,,,40,127
83448,note_on,1,0,0,,4,,,40,127
83448,note_on,0,0,0,,6,,,54,127
83504,note_off,56,0,0,,6,,,54,127
83505,note_on,1,0,0,,4,,,52,127
83561,note_off,56,0,0,,4,,,52,127
83562,note_on,1,0,0,,6,,,54,127
83618,note_off,56,0,0,,6,,,54,127
83619,note_on,1,0,0,,4,,,52,127
84075,note_off,456,0,0,,4,,,52,127
84202,note_off,127,0,0,,4,,,40,127
84208,note_on,6,0,0,,4,,,64,127
84454,note_on,246,0,0,,5,,,65,127
84466,note_off,12,0,0,,4,,,64,127
84683,note_off,217,0,0,,5,,,65,127
84684,note_on,1,0,0,,10,,,57,127
84684,note_on,0,0,0,,5,,,65,127
84684,note_on,0,0,0,,2,,,62,127
84684,note_on,0,0,0,,8,,,68,127
84913,note_off,229,0,0,,2,,,62,127
84913,note_off,0,0,0,,5,,,65,127
84913,note_off,0,0,0,,10,,,57,127
84914,note_on,1,0,0,,10,,,57,127
84914,note_on,0,0,0,,5,,,65,127
84914,note_on,0,0,0,,2,,,62,127
85143,note_off,229,0,0,,2,,,62,127
85143,note_off,0,0,0,,5,,,65,127
85143,note_off,0,0,0,,10,,,57,127
85143,note_off,0,0,0,,8,,,68,127
85144,note_on,1,0,0,,10,,,57,127
85144,note_on,0,0,0,,2,,,62,127
85144,note_on,0,0,0,,5,,,65,127
85144,note_on,0,0,0,,10,,,69,127
85373,note_off,229,0,0,,10,,,69,127
85373,note_off,0,0,0,,5,,,65,127
85373,note_off,0,0,0,,2,,,62,127
85373,note_off,0,0,0,,10,,,57,127
85374,note_on,1,0,0,,8,,,56,127
85374,note_on,0,0,0,,2,,,62,127
85374,note_on,0,0,0,,4,,,64,127
85374,note_on,0,0,0,,12,,,71,127
85488,note_off,114,0,0,,12,,,71,127
85489,note_on,1,0,0,,1,,,73,127
85603,note_off,114,0,0,,1,,,73,127
85603,note_off,0,0,0,,4,,,64,127
85603,note_off,0,0,0,,2,,,62,127
85603,note_off,0,0,0,,8,,,56,127
85604,note_on,1,0,0,,8,,,56,127
85604,note_on,0,0,0,,2,,,62,127
85604,note_on,0,0,0,,4,,,64,127
85604,note_on,0,0,0,,2,,,74,127
85833,note_off,229,0,0,,4,,,64,127
85833,note_off,0,0,0,,2,,,62,127
85833,note_off,0,0,0,,8,,,56,127
85834,note_on,1,0,0,,2,,,62,127
85834,note_on,0,0,0,,8,,,56,127
85834,note_on,0,0,0,,4,,,64,127
86063,note_off,229,0,0,,4,,,64,127
86063,note_off,0,0,0,,8,,,56,127
86063,note_off,0,0,0,,2,,,62,127
86063,note_off,0,0,0,,2,,,74,127
86064,note_on,1,0,0,,8,,,56,127
86064,note_on,0,0,0,,2,,,62,127
86064,note_on,0,0,0,,4,,,64,127
86292,note_off,228,0,0,,2,,,62,127
86292,note_off,0,0,0,,8,,,56,127
86293,note_off,1,0,0,,4,,,64,127
86294,note_on,1,0,0,,5,,,65,127
86523,note_off,229,0,0,,5,,,65,127
86524,note_on,1,0,0,,10,,,57,127
86524,note_on,0,0,0,,5,,,65,127
86524,note_on,0,0,0,,2,,,62,127
86524,note_on,0,0,0,,8,,,68,127
86753,note_off,229,0,0,,2,,,62,127
86753,note_off,0,0,0,,5,,,65,127
86753,note_off,0,0,0,,10,,,57,127
86754,note_on,1,0,0,,10,,,57,127
86754,note_on,0,0,0,,2,,,62,127
86754,note_on,0,0,0,,5,,,65,127
86983,note_off,229,0,0,,5,,,65,127
86983,note_off,0,0,0,,2,,,62,127
86983,note_off,0,0,0,,10,,,57,127
86983,note_off,0,0,0,,8,,,68,127
86984,note_on,1,0,0,,10,,,57,127
86984,note_on,0,0,0,,2,,,62,127
86984,note_on,0,0,0,,5,,,65,127
86984,note_on,0,0,0,,10,,,69,127
87213,note_off,229,0,0,,10,,,69,127
87213,note_off,0,0,0,,5,,,65,127
87213,note_off,0,0,0,,2,,,62,127
87213,note_off,0,0,0,,10,,,57,127
87214,note_on,1,0,0,,4,,,64,127
87214,note_on,0,0,0,,2,,,62,127
87214,note_on,0,0,0,,8,,,56,127
87214,note_on,0,0,0,,12,,,71,127
87328,note_off,114,0,0,,12,,,71,127
87329,note_on,1,0,0,,1,,,73,127
87443,note_off,114,0,0,,1,,,73,127
87443,note_off,0,0,0,,8,,,56,127
87443,note_off,0,0,0,,2,,,62,127
87443,note_off,0,0,0,,4,,,64,127
87444,note_on,1,0,0,,8,,,56,127
87444,note_on,0,0,0,,2,,,62,127
87444,note_on,0,0,0,,4,,,64,127
87444,note_on,0,0,0,,2,,,74,127
87673,note_off,229,0,0,,4,,,64,127
87673,note_off,0,0,0,,2,,,62,127
87673,note_off,0,0,0,,8,,,56,127
87674,note_on,1,0,0,,2,,,62,127
87674,note_on,0,0,0,,8,,,56,127
87674,note_on,0,0,0,,4,,,64,127
87903,note_off,229,0,0,,4,,,64,127
87903,note_off,0,0,0,,8,,,56,127
87903,note_off,0,0,0,,2,,,62,127
87903,note_off,0,0,0,,2,,,74,127
87904,note_on,1,0,0,,8,,,56,127
87904,note_on,0,0,0,,2,,,62,127
87904,note_on,0,0,0,,4,,,64,127
87904,note_on,0,0,0,,2,,,74,127
88133,note_off,229,0,0,,2,,,74,127
88133,note_off,0,0,0,,4,,,64,127
88133,note_off,0,0,0,,2,,,62,127
88133,note_off,0,0,0,,8,,,56,127
88134,note_on,1,0,0,,7,,,55,127
88134,note_on,0,0,0,,4,,,64,127
88134,note_on,0,0,0,,1,,,61,127
88134,note_on,0,0,0,,2,,,62,127
88134,note_on,0,0,0,,1,,,73,127
88190,note_off,56,0,0,,1,,,73,127
88191,note_on,1,0,0,,2,,,74,127
88247,note_off,56,0,0,,2,,,74,127
88248,note_on,1,0,0,,4,,,76,127
88362,note_off,114,0,0,,2,,,62,127
88362,note_off,0,0,0,,1,,,61,127
88362,note_off,0,0,0,,4,,,64,127
88362,note_off,0,0,0,,7,,,55,127
88363,note_on,1,0,0,,1,,,61,127
88363,note_on,0,0,0,,7,,,55,127
88363,note_on,0,0,0,,4,,,64,127
88363,note_on,0,0,0,,2,,,62,127
88592,note_off,229,0,0,,2,,,62,127
88592,note_off,0,0,0,,4,,,64,127
88592,note_off,0,0,0,,7,,,55,127
88592,note_off,0,0,0,,1,,,61,127
88592,note_off,0,0,0,,4,,,76,127
88593,note_on,1,0,0,,6,,,54,127
88593,note_on,0,0,0,,2,,,62,127
88593,note_on,0,0,0,,10,,,57,127
88593,note_on,0,0,0,,2,,,74,127
88649,note_off,56,0,0,,2,,,74,127
88650,note_on,1,0,0,,4,,,76,127
88706,note_off,56,0,0,,4,,,76,127
88707,note_on,1,0,0,,6,,,78,127
88821,note_off,114,0,0,,10,,,57,127
88821,note_off,0,0,0,,2,,,62,127
88821,note_off,0,0,0,,6,,,54,127
88822,note_on,1,0,0,,6,,,54,127
88822,note_on,0,0,0,,10,,,57,127
88822,note_on,0,0,0,,2,,,62,127
89051,note_off,229,0,0,,2,,,62,127
89051,note_off,0,0,0,,10,,,57,127
89051,note_off,0,0,0,,6,,,54,127
89051,note_off,0,0,0,,6,,,78,127
89052,note_on,1,0,0,,4,,,52,127
89052,note_on,0,0,0,,1,,,49,127
89052,note_on,0,0,0,,10,,,57,127
89052,note_on,0,0,0,,4,,,76,127
89108,note_off,56,0,0,,4,,,76,127
89109,note_on,1,0,0,,6,,,78,127
89165,note_off,56,0,0,,6,,,78,127
89166,note_on,1,0,0,,7,,,79,127
89280,note_off,114,0,0,,10,,,57,127
89280,note_off,0,0,0,,1,,,49,127
89280,note_off,0,0,0,,4,,,52,127
89281,note_on,1,0,0,,1,,,49,127
89281,note_on,0,0,0,,4,,,52,127
89281,note_on,0,0,0,,10,,,57,127
89510,note_off,229,0,0,,10,,,57,127
89510,note_off,0,0,0,,4,,,52,127
89510,note_off,0,0,0,,1,,,49,127
89510,note_off,0,0,0,,7,,,79,127
89511,note_on,1,0,0,,6,,,54,127
89511,note_on,0,0,0,,10,,,57,127
89511,note_on,0,0,0,,2,,,50,127
89511,note_on,0,0,0,,6,,,78,127
89567,note_off,56,0,0,,6,,,78,127
89568,note_on,1,0,0,,8,,,80,127
89624,note_off,56,0,0,,8,,,80,127
89625,note_on,1,0,0,,10,,,81,127
89739,note_off,114,0,0,,2,,,50,127
89739,note_off,0,0,0,,10,,,57,127
89739,note_off,0,0,0,,6,,,54,127
89740,note_on,1,0,0,,6,,,54,127
89740,note_on,0,0,0,,2,,,50,127
89740,note_on,0,0,0,,10,,,57,127
89969,note_off,229,0,0,,10,,,57,127
89969,note_off,0,0,0,,2,,,50,127
89969,note_off,0,0,0,,6,,,54,127
89969,note_off,0,0,0,,10,,,81,127
89970,note_on,1,0,0,,4,,,52,127
89970,note_on,0,0,0,,12,,,59,127
89970,note_on,0,0,0,,10,,,57,127
89970,note_on,0,0,0,,4,,,64,127
89970,note_on,0,0,0,,10,,,81,127
90199,note_off,229,0,0,,10,,,81,127
90200,note_on,1,0,0,,8,,,80,127
90314,note_off,114,0,0,,8,,,80,127
90315,note_on,1,0,0,,6,,,78,127
90429,note_off,114,0,0,,6,,,78,127
90430,note_on,1,0,0,,4,,,76,127
90544,note_off,114,0,0,,4,,,76,127
90545,note_on,1,0,0,,2,,,74,127
90659,note_off,114,0,0,,2,,,74,127
90659,note_off,0,0,0,,4,,,64,127
90659,note_off,0,0,0,,10,,,57,127
90659,note_off,0,0,0,,12,,,59,127
90659,note_off,0,0,0,,4,,,52,127
90660,note_on,1,0,0,,8,,,56,127
90660,note_on,0,0,0,,1,,,73,127
90774,note_off,114,0,0,,1,,,73,127
90775,note_on,1,0,0,,12,,,71,127
90889,note_off,114,0,0,,12,,,71,127
90889,note_off,0,0,0,,8,,,56,127
90890,note_on,1,0,0,,10,,,57,127
90890,note_on,0,0,0,,1,,,73,127
91004,note_off,114,0,0,,1,,,73,127
91005,note_on,1,0,0,,4,,,76,127
91119,note_off,114,0,0,,4,,,76,127
91119,note_off,0,0,0,,10,,,57,127
91120,note_on,1,0,0,,2,,,62,127
91120,note_on,0,0,0,,2,,,74,127
91234,note_off,114,0,0,,2,,,74,127
91235,note_on,1,0,0,,12,,,71,127
91349,note_off,114,0,0,,12,,,71,127
91349,note_off,0,0,0,,2,,,62,127
91350,note_on,1,0,0,,4,,,64,127
91350,note_on,0,0,0,,1,,,73,127
91464,note_off,114,0,0,,1,,,73,127
91465,note_on,1,0,0,,10,,,69,127
91579,note_off,114,0,0,,10,,,69,127
91580,note_on,1,0,0,,4,,,52,127
91580,note_on,0,0,0,,12,,,71,127
91694,note_off,114,0,0,,12,,,71,127
91695,note_on,1,0,0,,8,,,68,127
91805,note_off,110,0,0,,4,,,64,127
91809,note_off,4,0,0,,8,,,68,127
91809,note_off,0,0,0,,4,,,52,127
91810,note_on,1,0,0,,10,,,57,127
91810,note_on,0,0,0,,8,,,68,127
92039,note_off,229,0,0,,8,,,68,127
92040,note_on,1,0,0,,4,,,52,127
92040,note_on,0,0,0,,10,,,69,127
92269,note_off,229,0,0,,4,,,52,127
92270,note_on,1,0,0,,1,,,49,127
92499,note_off,229,0,0,,1,,,49,127
92499,note_off,0,0,0,,10,,,69,127
92499,note_off,0,0,0,,10,,,57,127
92500,note_on,1,0,0,,10,,,45,127
92500,note_on,0,0,0,,4,,,64,127
92729,note_off,229,0,0,,4,,,64,127
92730,note_on,1,0,0,,5,,,65,127
92908,note_off,178,0,0,,10,,,45,127
92960,note_off,52,0,0,,5,,,65,127
92961,note_on,1,0,0,,10,,,57,127
92961,note_on,0,0,0,,2,,,62,127
92961,note_on,0,0,0,,5,,,65,127
92961,note_on,0,0,0,,8,,,68,127
93190,note_off,229,0,0,,5,,,65,127
93190,note_off,0,0,0,,2,,,62,127
93190,note_off,0,0,0,,10,,,57,127
93191,note_on,1,0,0,,10,,,57,127
93191,note_on,0,0,0,,2,,,62,127
93191,note_on,0,0,0,,5,,,65,127
93420,note_off,229,0,0,,5,,,65,127
93420,note_off,0,0,0,,2,,,62,127
93420,note_off,0,0,0,,10,,,57,127
93420,note_off,0,0,0,,8,,,68,127
93421,note_on,1,0,0,,5,,,65,127
93421,note_on,0,0,0,,10,,,57,127
93421,note_on,0,0,0,,2,,,62,127
93421,note_on,0,0,0,,10,,,69,127
93650,note_off,229,0,0,,10,,,69,127
93650,note_off,0,0,0,,2,,,62,127
93650,note_off,0,0,0,,10,,,57,127
93650,note_off,0,0,0,,5,,,65,127
93651,note_on,1,0,0,,2,,,62,127
93651,note_on,0,0,0,,8,,,56,127
93651,note_on,0,0,0,,4,,,64,127
93651,note_on,0,0,0,,12,,,71,127
93765,note_off,114,0,0,,12,,,71,127
93766,note_on,1,0,0,,1,,,73,127
93880,note_off,114,0,0,,1,,,73,127
93880,note_off,0,0,0,,4,,,64,127
93880,note_off,0,0,0,,8,,,56,127
93880,note_off,0,0,0,,2,,,62,127
93881,note_on,1,0,0,,8,,,56,127
93881,note_on,0,0,0,,4,,,64,127
93881,note_on,0,0,0,,2,,,62,127
93881,note_on,0,0,0,,2,,,74,127
94110,note_off,229,0,0,,2,,,62,127
94110,note_off,0,0,0,,4,,,64,127
94110,note_off,0,0,0,,8,,,56,127
94111,note_on,1,0,0,,2,,,62,127
94111,note_on,0,0,0,,8,,,56,127
94111,note_on,0,0,0,,4,,,64,127
94340,note_off,229,0,0,,4,,,64,127
94340,note_off,0,0,0,,8,,,56,127
94340,note_off,0,0,0,,2,,,62,127
94340,note_off,0,0,0,,2,,,74,127
94341,note_on,1,0,0,,8,,,56,127
94341,note_on,0,0,0,,2,,,62,127
94341,note_on,0,0,0,,4,,,64,127
94569,note_off,228,0,0,,2,,,62,127
94569,note_off,0,0,0,,8,,,56,127
94570,note_off,1,0,0,,4,,,64,127
94571,note_on,1,0,0,,5,,,65,127
94800,note_off,229,0,0,,5,,,65,127
94801,note_on,1,0,0,,10,,,57,127
94801,note_on,0,0,0,,5,,,65,127
94801,note_on,0,0,0,,2,,,62,127
94801,note_on,0,0,0,,8,,,68,127
95030,note_off,229,0,0,,2,,,62,127
95030,note_off,0,0,0,,5,,,65,127
95030,note_off,0,0,0,,10,,,57,127
95031,note_on,1,0,0,,10,,,57,127
95031,note_on,0,0,0,,5,,,65,127
95031,note_on,0,0,0,,2,,,62,127
95260,note_off,229,0,0,,2,,,62,127
95260,note_off,0,0,0,,5,,,65,127
95260,note_off,0,0,0,,10,,,57,127
95260,note_off,0,0,0,,8,,,68,127
95261,note_on,1,0,0,,2,,,62,127
95261,note_on,0,0,0,,10,,,57,127
95261,note_on,0,0,0,,5,,,65,127
95261,note_on,0,0,0,,10,,,69,127
95490,note_off,229,0,0,,10,,,69,127
95490,note_off,0,0,0,,5,,,65,127
95490,note_off,0,0,0,,10,,,57,127
95490,note_off,0,0,0,,2,,,62,127
95491,note_on,1,0,0,,4,,,64,127
95491,note_on,0,0,0,,2,,,62,127
95491,note_on,0,0,0,,8,,,56,127
95491,note_on,0,0,0,,12,,,71,127
95605,note_off,114,0,0,,12,,,71,127
95606,note_on,1,0,0,,1,,,73,127
95720,note_off,114,0,0,,1,,,73,127
95720,note_off,0,0,0,,8,,,56,127
95720,note_off,0,0,0,,2,,,62,127
95720,note_off,0,0,0,,4,,,64,127
95721,note_on,1,0,0,,8,,,56,127
95721,note_on,0,0,0,,2,,,62,127
95721,note_on,0,0,0,,4,,,64,127
95721,note_on,0,0,0,,2,,,74,127
95950,note_off,229,0,0,,4,,,64,127
95950,note_off,0,0,0,,2,,,62,127
95950,note_off,0,0,0,,8,,,56,127
95951,note_on,1,0,0,,8,,,56,127
95951,note_on,0,0,0,,2,,,62,127
95951,note_on,0,0,0,,4,,,64,127
96180,note_off,229,0,0,,4,,,64,127
96180,note_off,0,0,0,,2,,,62,127
96180,note_off,0,0,0,,8,,,56,127
96180,note_off,0,0,0,,2,,,74,127
96181,note_on,1,0,0,,8,,,56,127
96181,note_on,0,0,0,,2,,,62,127
96181,note_on,0,0,0,,4,,,64,127
96181,note_on,0,0,0,,2,,,74,127
96410,note_off,229,0,0,,2,,,74,127
96410,note_off,0,0,0,,4,,,64,127
96410,note_off,0,0,0,,2,,,62,127
96410,note_off,0,0,0,,8,,,56,127
96411,note_on,1,0,0,,1,,,61,127
96411,note_on,0,0,0,,7,,,55,127
96411,note_on,0,0,0,,4,,,64,127
96411,note_on,0,0,0,,2,,,62,127
96411,note_on,0,0,0,,1,,,73,127
96467,note_off,56,0,0,,1,,,73,127
96468,note_on,1,0,0,,2,,,74,127
96524,note_off,56,0,0,,2,,,74,127
96525,note_on,1,0,0,,4,,,76,127
96639,note_off,114,0,0,,2,,,62,127
96639,note_off,0,0,0,,4,,,64,127
96639,note_off,0,0,0,,7,,,55,127
96639,note_off,0,0,0,,1,,,61,127
96640,note_on,1,0,0,,1,,,61,127
96640,note_on,0,0,0,,7,,,55,127
96640,note_on,0,0,0,,4,,,64,127
96640,note_on,0,0,0,,2,,,62,127
96869,note_off,229,0,0,,2,,,62,127
96869,note_off,0,0,0,,4,,,64,127
96869,note_off,0,0,0,,7,,,55,127
96869,note_off,0,0,0,,1,,,61,127
96869,note_off,0,0,0,,4,,,76,127
96870,note_on,1,0,0,,2,,,62,127
96870,note_on,0,0,0,,10,,,57,127
96870,note_on,0,0,0,,6,,,54,127
96870,note_on,0,0,0,,2,,,74,127
96926,note_off,56,0,0,,2,,,74,127
96927,note_on,1,0,0,,4,,,76,127
96983,note_off,56,0,0,,4,,,76,127
96984,note_on,1,0,0,,6,,,78,127
97098,note_off,114,0,0,,6,,,54,127
97098,note_off,0,0,0,,10,,,57,127
97098,note_off,0,0,0,,2,,,62,127
97099,note_on,1,0,0,,6,,,54,127
97099,note_on,0,0,0,,10,,,57,127
97099,note_on,0,0,0,,2,,,62,127
97328,note_off,229,0,0,,2,,,62,127
97328,note_off,0,0,0,,10,,,57,127
97328,note_off,0,0,0,,6,,,54,127
97328,note_off,0,0,0,,6,,,78,127
97329,note_on,1,0,0,,1,,,49,127
97329,note_on,0,0,0,,10,,,57,127
97329,note_on,0,0,0,,4,,,52,127
97329,note_on,0,0,0,,4,,,76,127
97385,note_off,56,0,0,,4,,,76,127
97386,note_on,1,0,0,,6,,,78,127
97442,note_off,56,0,0,,6,,,78,127
97443,note_on,1,0,0,,7,,,79,127
97557,note_off,114,0,0,,4,,,52,127
97557,note_off,0,0,0,,10,,,57,127
97557,note_off,0,0,0,,1,,,49,127
97558,note_on,1,0,0,,4,,,52,127
97558,note_on,0,0,0,,1,,,49,127
97558,note_on,0,0,0,,10,,,57,127
97787,note_off,229,0,0,,10,,,57,127
97787,note_off,0,0,0,,1,,,49,127
97787,note_off,0,0,0,,4,,,52,127
97787,note_off,0,0,0,,7,,,79,127
97788,note_on,1,0,0,,6,,,54,127
97788,note_on,0,0,0,,10,,,57,127
97788,note_on,0,0,0,,2,,,50,127
97788,note_on,0,0,0,,6,,,78,127
97844,note_off,56,0,0,,6,,,78,127
97845,note_on,1,0,0,,8,,,80,127
97901,note_off,56,0,0,,8,,,80,127
97902,note_on,1,0,0,,10,,,81,127
98016,note_off,114,0,0,,2,,,50,127
98016,note_off,0,0,0,,10,,,57,127
98016,note_off,0,0,0,,6,,,54,127
98017,note_on,1,0,0,,6,,,54,127
98017,note_on,0,0,0,,2,,,50,127
98017,note_on,0,0,0,,10,,,57,127
98246,note_off,229,0,0,,10,,,57,127
98246,note_off,0,0,0,,2,,,50,127
98246,note_off,0,0,0,,6,,,54,127
98246,note_off,0,0,0,,10,,,81,127
98247,note_on,1,0,0,,4,,,52,127
98247,note_on,0,0,0,,10,,,57,127
98247,note_on,0,0,0,,4,,,64,127
98247,note_on,0,0,0,,12,,,59,127
98247,note_on,0,0,0,,10,,,81,127
98476,note_off,229,0,0,,10,,,81,127
98477,note_on,1,0,0,,8,,,80,127
98591,note_off,114,0,0,,8,,,80,127
98592,note_on,1,0,0,,6,,,78,127
98706,note_off,114,0,0,,6,,,78,127
98707,note_on,1,0,0,,4,,,76,127
98821,note_off,114,0,0,,4,,,76,127
98822,note_on,1,0,0,,2,,,74,127
98936,note_off,114,0,0,,2,,,74,127
98936,note_off,0,0,0,,12,,,59,127
98936,note_off,0,0,0,,4,,,64,127
98936,note_off,0,0,0,,10,,,57,127
98936,note_off,0,0,0,,4,,,52,127
98937,note_on,1,0,0,,8,,,56,127
98937,note_on,0,0,0,,1,,,73,127
99051,note_off,114,0,0,,1,,,73,127
99052,note_on,1,0,0,,12,,,71,127
99166,note_off,114,0,0,,12,,,71,127
99166,note_off,0,0,0,,8,,,56,127
99167,note_on,1,0,0,,10,,,57,127
99167,note_on,0,0,0,,1,,,73,127
99281,note_off,114,0,0,,1,,,73,127
99282,note_on,1,0,0,,4,,,76,127
99396,note_off,114,0,0,,4,,,76,127
99396,note_off,0,0,0,,10,,,57,127
99397,note_on,1,0,0,,2,,,62,127
99397,note_on,0,0,0,,2,,,74,127
99511,note_off,114,0,0,,2,,,74,127
99512,note_on,1,0,0,,12,,,71,127
99626,note_off,114,0,0,,12,,,71,127
99626,note_off,0,0,0,,2,,,62,127
99627,note_on,1,0,0,,4,,,64,127
99627,note_on,0,0,0,,1,,,73,127
99741,note_off,114,0,0,,1,,,73,127
99742,note_on,1,0,0,,10,,,69,127
99856,note_off,114,0,0,,10,,,69,127
99857,note_on,1,0,0,,4,,,52,127
99857,note_on,0,0,0,,12,,,71,127
99971,note_off,114,0,0,,12,,,71,127
99972,note_on,1,0,0,,8,,,68,127
100082,note_off,110,0,0,,4,,,64,127
100086,note_off,4,0,0,,8,,,68,127
100086,note_off,0,0,0,,4,,,52,127
100087,note_on,1,0,0,,6,,,54,127
100087,note_on,0,0,0,,10,,,69,127
100202,note_on,115,0,0,,10,,,81,127
100315,note_off,113,0,0,,10,,,69,127
100316,note_off,1,0,0,,10,,,81,127
100316,note_off,0,0,0,,6,,,54,127
100317,note_on,1,0,0,,2,,,50,127
100317,note_on,0,0,0,,8,,,80,127
100431,note_off,114,0,0,,8,,,80,127
100432,note_on,1,0,0,,10,,,81,127
100546,note_off,114,0,0,,10,,,81,127
100546,note_off,0,0,0,,2,,,50,127
100547,note_on,1,0,0,,8,,,56,127
100547,note_on,0,0,0,,12,,,83,127
100661,note_off,114,0,0,,12,,,83,127
100662,note_on,1,0,0,,2,,,74,127
100776,note_off,114,0,0,,2,,,74,127
100776,note_off,0,0,0,,8,,,56,127
100777,note_on,1,0,0,,4,,,52,127
100777,note_on,0,0,0,,1,,,73,127
100891,note_off,114,0,0,,1,,,73,127
100892,note_on,1,0,0,,12,,,71,127
101006,note_off,114,0,0,,12,,,71,127
101006,note_off,0,0,0,,4,,,52,127
101007,note_on,1,0,0,,10,,,57,127
101007,note_on,0,0,0,,1,,,73,127
101121,note_off,114,0,0,,1,,,73,127
101122,note_on,1,0,0,,10,,,81,127
101236,note_off,114,0,0,,10,,,81,127
101236,note_off,0,0,0,,10,,,57,127
101237,note_on,1,0,0,,6,,,54,127
101237,note_on,0,0,0,,8,,,80,127
101351,note_off,114,0,0,,8,,,80,127
101352,note_on,1,0,0,,10,,,81,127
101466,note_off,114,0,0,,10,,,81,127
101466,note_off,0,0,0,,6,,,54,127
101467,note_on,1,0,0,,8,,,56,127
101467,note_on,0,0,0,,12,,,83,127
101582,note_on,115,0,0,,2,,,74,127
101695,note_off,113,0,0,,12,,,83,127
101696,note_off,1,0,0,,2,,,74,127
101696,note_off,0,0,0,,8,,,56,127
101697,note_on,1,0,0,,4,,,52,127
101697,note_on,0,0,0,,1,,,73,127
101811,note_off,114,0,0,,1,,,73,127
101812,note_on,1,0,0,,12,,,71,127
101926,note_off,114,0,0,,12,,,71,127
101926,note_off,0,0,0,,4,,,52,127
101927,note_on,1,0,0,,10,,,57,127
101927,note_on,0,0,0,,1,,,73,127
102041,note_off,114,0,0,,1,,,73,127
102042,note_on,1,0,0,,4,,,76,127
102156,note_off,114,0,0,,4,,,76,127
102156,note_off,0,0,0,,10,,,57,127
102157,note_on,1,0,0,,2,,,50,127
102157,note_on,0,0,0,,2,,,74,127
102271,note_off,114,0,0,,2,,,74,127
102272,note_on,1,0,0,,12,,,71,127
102386,note_off,114,0,0,,12,,,71,127
102386,note_off,0,0,0,,2,,,50,127
102387,note_on,1,0,0,,4,,,52,127
102387,note_on,0,0,0,,1,,,73,127
102501,note_off,114,0,0,,1,,,73,127
102502,note_on,1,0,0,,10,,,69,127
102616,note_off,114,0,0,,10,,,69,127
102617,note_on,1,0,0,,4,,,40,127
102617,note_on,0,0,0,,12,,,71,127
102731,note_off,114,0,0,,12,,,71,127
102732,note_on,1,0,0,,8,,,68,127
102842,note_off,110,0,0,,4,,,52,127
102846,note_off,4,0,0,,8,,,68,127
102846,note_off,0,0,0,,4,,,40,127
102847,note_on,1,0,0,,6,,,54,127
102847,note_on,0,0,0,,10,,,69,127
102961,note_off,114,0,0,,10,,,69,127
102962,note_on,1,0,0,,10,,,69,127
103076,note_off,114,0,0,,10,,,69,127
103076,note_off,0,0,0,,6,,,54,127
103077,note_on,1,0,0,,2,,,50,127
103077,note_on,0,0,0,,8,,,68,127
103191,note_off,114,0,0,,8,,,68,127
103192,note_on,1,0,0,,10,,,69,127
103306,note_off,114,0,0,,10,,,69,127
103306,note_off,0,0,0,,2,,,50,127
103307,note_on,1,0,0,,8,,,56,127
103307,note_on,0,0,0,,12,,,71,127
103421,note_off,114,0,0,,12,,,71,127
103422,note_on,1,0,0,,2,,,62,127
103536,note_off,114,0,0,,2,,,62,127
103536,note_off,0,0,0,,8,,,56,127
103537,note_on,1,0,0,,4,,,52,127
103537,note_on,0,0,0,,1,,,61,127
103651,note_off,114,0,0,,1,,,61,127
103652,note_on,1,0,0,,12,,,59,127
103766,note_off,114,0,0,,12,,,59,127
103766,note_off,0,0,0,,4,,,52,127
103767,note_on,1,0,0,,10,,,57,127
103767,note_on,0,0,0,,1,,,61,127
103881,note_off,114,0,0,,1,,,61,127
103882,note_on,1,0,0,,10,,,69,127
103996,note_off,114,0,0,,10,,,69,127
103996,note_off,0,0,0,,10,,,57,127
103997,note_on,1,0,0,,6,,,54,127
103997,note_on,0,0,0,,8,,,68,127
104111,note_off,114,0,0,,8,,,68,127
104112,note_on,1,0,0,,10,,,69,127
104226,note_off,114,0,0,,10,,,69,127
104226,note_off,0,0,0,,6,,,54,127
104227,note_on,1,0,0,,8,,,56,127
104227,note_on,0,0,0,,12,,,71,127
104342,note_on,115,0,0,,2,,,62,127
104455,note_off,113,0,0,,12,,,71,127
104456,note_off,1,0,0,,2,,,62,127
104456,note_off,0,0,0,,8,,,56,127
104457,note_on,1,0,0,,4,,,52,127
104457,note_on,0,0,0,,1,,,61,127
104571,note_off,114,0,0,,1,,,61,127
104572,note_on,1,0,0,,12,,,59,127
104686,note_off,114,0,0,,12,,,59,127
104686,note_off,0,0,0,,4,,,52,127
104687,note_on,1,0,0,,10,,,57,127
104687,note_on,0,0,0,,1,,,61,127
104801,note_off,114,0,0,,1,,,61,127
104802,note_on,1,0,0,,4,,,64,127
104916,note_off,114,0,0,,4,,,64,127
104916,note_off,0,0,0,,10,,,57,127
104917,note_on,1,0,0,,2,,,50,127
104917,note_on,0,0,0,,2,,,62,127
105031,note_off,114,0,0,,2,,,62,127
105032,note_on,1,0,0,,12,,,59,127
105146,note_off,114,0,0,,12,,,59,127
105146,note_off,0,0,0,,2,,,50,127
105147,note_on,1,0,0,,4,,,52,127
105147,note_on,0,0,0,,1,,,61,127
105261,note_off,114,0,0,,1,,,61,127
105262,note_on,1,0,0,,10,,,57,127
105376,note_off,114,0,0,,10,,,57,127
105377,note_on,1,0,0,,4,,,40,127
105377,note_on,0,0,0,,12,,,59,127
105491,note_off,114,0,0,,12,,,59,127
105492,note_on,1,0,0,,8,,,56,127
105602,note_off,110,0,0,,4,,,52,127
105606,note_off,4,0,0,,8,,,56,127
105606,note_off,0,0,0,,4,,,40,127
105617,note_on,11,0,0,,10,,,45,127
105617,note_on,0,0,0,,8,,,56,127
106073,note_off,456,0,0,,8,,,56,127
106085,note_on,12,0,0,,10,,,57,127
107455,note_off,1370,0,0,,10,,,45,127
107511,note_off,56,0,0,,10,,,57,127
109056,end_of_track,1545,1,0,,,,,,
