tick,type,time,meta,track,program,channel,pitch,tempo,note,velocity
0,copyright,0,1,0,,,,,,
0,program_change,0,0,0,6,0,,,,
0,pitchwheel,0,0,0,,0,0,,,
0,program_change,0,0,0,6,1,,,,
0,pitchwheel,0,0,0,,1,-590,,,
0,program_change,0,0,0,6,2,,,,
0,pitchwheel,0,0,0,,2,-272,,,
0,program_change,0,0,0,6,3,,,,
0,pitchwheel,0,0,0,,3,-353,,,
0,program_change,0,0,0,6,4,,,,
0,pitchwheel,0,0,0,,4,-560,,,
0,program_change,0,0,0,6,5,,,,
0,pitchwheel,0,0,0,,5,-80,,,
0,program_change,0,0,0,6,6,,,,
0,pitchwheel,0,0,0,,6,-625,,,
0,program_change,0,0,0,6,7,,,,
0,pitchwheel,0,0,0,,7,-130,,,
0,program_change,0,0,0,6,8,,,,
0,pitchwheel,0,0,0,,8,-512,,,
0,program_change,0,0,0,6,10,,,,
0,pitchwheel,0,0,0,,10,-464,,,
0,program_change,0,0,0,6,11,,,,
0,pitchwheel,0,0,0,,11,-208,,,
0,program_change,0,0,0,6,12,,,,
0,pitchwheel,0,0,0,,12,-553,,,
0,set_tempo,0,1,0,,,,500000,,
100,note_on,100,0,0,,10,,,81,127
300,note_on,200,0,0,,1,,,73,127
300,note_on,0,0,0,,4,,,76,127
499,note_off,199,0,0,,4,,,76,127
499,note_off,0,0,0,,1,,,73,127
500,note_on,1,0,0,,10,,,69,127
500,note_on,0,0,0,,1,,,73,127
699,note_off,199,0,0,,1,,,73,127
699,note_off,0,0,0,,10,,,81,127
700,note_on,1,0,0,,10,,,81,127
800,note_off,100,0,0,,10,,,69,127
900,note_on,100,0,0,,2,,,74,127
900,note_on,0,0,0,,6,,,78,127
1099,note_off,199,0,0,,6,,,78,127
1099,note_off,0,0,0,,2,,,74,127
1100,note_on,1,0,0,,12,,,71,127
1100,note_on,0,0,0,,2,,,74,127
1299,note_off,199,0,0,,2,,,74,127
1299,note_off,0,0,0,,10,,,81,127
1300,note_on,1,0,0,,10,,,81,127
1400,note_off,100,0,0,,12,,,71,127
1500,note_on,100,0,0,,1,,,73,127
1500,note_on,0,0,0,,4,,,76,127
1696,note_off,196,0,0,,10,,,81,127
1699,note_off,3,0,0,,4,,,76,127
1699,note_off,0,0,0,,1,,,73,127
1700,note_on,1,0,0,,10,,,69,127
1700,note_on,0,0,0,,1,,,73,127
1899,note_off,199,0,0,,1,,,73,127
1900,note_on,1,0,0,,4,,,64,127
2096,note_off,196,0,0,,10,,,69,127
2099,note_off,3,0,0,,4,,,64,127
2100,note_on,1,0,0,,4,,,52,127
2100,note_on,0,0,0,,12,,,71,127
2299,note_off,199,0,0,,12,,,71,127
2300,note_on,1,0,0,,4,,,40,127
2300,note_on,0,0,0,,2,,,74,127
2496,note_off,196,0,0,,4,,,52,127
2499,note_off,3,0,0,,2,,,74,127
2499,note_off,0,0,0,,4,,,40,127
2500,note_on,1,0,0,,10,,,45,127
2500,note_on,0,0,0,,1,,,73,127
2599,note_off,99,0,0,,1,,,73,127
2600,note_on,1,0,0,,10,,,69,127
2699,note_off,99,0,0,,10,,,69,127
2699,note_off,0,0,0,,10,,,45,127
2700,note_on,1,0,0,,4,,,40,127
2700,note_on,0,0,0,,8,,,68,127
2799,note_off,99,0,0,,8,,,68,127
2800,note_on,1,0,0,,12,,,71,127
2899,note_off,99,0,0,,12,,,71,127
2899,note_off,0,0,0,,4,,,40,127
2900,note_on,1,0,0,,10,,,33,127
2900,note_on,0,0,0,,10,,,69,127
3099,note_off,199,0,0,,10,,,33,127
3108,note_on,9,0,0,,10,,,81,127
3139,note_off,31,0,0,,10,,,69,127
3308,note_on,169,0,0,,1,,,73,127
3308,note_on,0,0,0,,4,,,76,127
3507,note_off,199,0,0,,4,,,76,127
3507,note_off,0,0,0,,1,,,73,127
3508,note_on,1,0,0,,10,,,69,127
3508,note_on,0,0,0,,1,,,73,127
3707,note_off,199,0,0,,1,,,73,127
3707,note_off,0,0,0,,10,,,81,127
3708,note_on,1,0,0,,10,,,81,127
3808,note_off,100,0,0,,10,,,69,127
3908,note_on,100,0,0,,2,,,74,127
3908,note_on,0,0,0,,6,,,78,127
4107,note_off,199,0,0,,6,,,78,127
4107,note_off,0,0,0,,2,,,74,127
4108,note_on,1,0,0,,12,,,71,127
4108,note_on,0,0,0,,2,,,74,127
4307,note_off,199,0,0,,2,,,74,127
4307,note_off,0,0,0,,10,,,81,127
4308,note_on,1,0,0,,10,,,81,127
4408,note_off,100,0,0,,12,,,71,127
4508,note_on,100,0,0,,1,,,73,127
4508,note_on,0,0,0,,4,,,76,127
4704,note_off,196,0,0,,10,,,81,127
4707,note_off,3,0,0,,4,,,76,127
4707,note_off,0,0,0,,1,,,73,127
4708,note_on,1,0,0,,10,,,69,127
4708,note_on,0,0,0,,1,,,73,127
4907,note_off,199,0,0,,1,,,73,127
4908,note_on,1,0,0,,4,,,64,127
5107,note_off,199,0,0,,4,,,64,127
5107,note_off,0,0,0,,10,,,69,127
5108,note_on,1,0,0,,4,,,52,127
5108,note_on,0,0,0,,12,,,71,127
5307,note_off,199,0,0,,12,,,71,127
5308,note_on,1,0,0,,4,,,40,127
5308,note_on,0,0,0,,2,,,74,127
5504,note_off,196,0,0,,4,,,52,127
5507,note_off,3,0,0,,2,,,74,127
5507,note_off,0,0,0,,4,,,40,127
5508,note_on,1,0,0,,10,,,45,127
5508,note_on,0,0,0,,1,,,73,127
5607,note_off,99,0,0,,1,,,73,127
5608,note_on,1,0,0,,10,,,69,127
5707,note_off,99,0,0,,10,,,69,127
5707,note_off,0,0,0,,10,,,45,127
5708,note_on,1,0,0,,4,,,40,127
5708,note_on,0,0,0,,8,,,68,127
5807,note_off,99,0,0,,8,,,68,127
5808,note_on,1,0,0,,12,,,71,127
5907,note_off,99,0,0,,12,,,71,127
5907,note_off,0,0,0,,4,,,40,127
5908,note_on,1,0,0,,10,,,33,127
5908,note_on,0,0,0,,10,,,69,127
6107,note_off,199,0,0,,10,,,69,127
6107,note_off,0,0,0,,10,,,33,127
6125,note_on,18,0,0,,10,,,69,127
6225,note_on,100,0,0,,6,,,78,127
6324,note_off,99,0,0,,6,,,78,127
6325,note_on,1,0,0,,4,,,76,127
6424,note_off,99,0,0,,10,,,69,127
6425,note_on,1,0,0,,10,,,69,127
6524,note_off,99,0,0,,10,,,69,127
6525,note_on,1,0,0,,1,,,73,127
6624,note_off,99,0,0,,1,,,73,127
6624,note_off,0,0,0,,4,,,76,127
6625,note_on,1,0,0,,4,,,76,127
6724,note_off,99,0,0,,4,,,76,127
6725,note_on,1,0,0,,4,,,64,127
6824,note_off,99,0,0,,4,,,64,127
6825,note_on,1,0,0,,4,,,64,127
6925,note_on,100,0,0,,8,,,68,127
7024,note_off,99,0,0,,8,,,68,127
7025,note_on,1,0,0,,12,,,71,127
7124,note_off,99,0,0,,12,,,71,127
7125,note_off,1,0,0,,4,,,64,127
7125,note_on,0,0,0,,2,,,74,127
7125,note_on,0,0,0,,8,,,68,127
7224,note_off,99,0,0,,2,,,74,127
7225,note_on,1,0,0,,12,,,71,127
7324,note_off,99,0,0,,12,,,71,127
7324,note_off,0,0,0,,8,,,68,127
7325,note_on,1,0,0,,1,,,73,127
7325,note_on,0,0,0,,10,,,69,127
7424,note_off,99,0,0,,1,,,73,127
7425,note_on,1,0,0,,6,,,78,127
7524,note_off,99,0,0,,6,,,78,127
7525,note_on,1,0,0,,4,,,76,127
7624,note_off,99,0,0,,10,,,69,127
7625,note_on,1,0,0,,10,,,69,127
7724,note_off,99,0,0,,10,,,69,127
7725,note_on,1,0,0,,1,,,73,127
7824,note_off,99,0,0,,1,,,73,127
7824,note_off,0,0,0,,4,,,76,127
7825,note_on,1,0,0,,4,,,76,127
7924,note_off,99,0,0,,4,,,76,127
7925,note_on,1,0,0,,4,,,64,127
8024,note_off,99,0,0,,4,,,64,127
8025,note_on,1,0,0,,4,,,64,127
8125,note_on,100,0,0,,8,,,68,127
8224,note_off,99,0,0,,8,,,68,127
8225,note_on,1,0,0,,12,,,71,127
8324,note_off,99,0,0,,12,,,71,127
8324,note_off,0,0,0,,4,,,64,127
8325,note_on,1,0,0,,2,,,74,127
8325,note_on,0,0,0,,8,,,68,127
8424,note_off,99,0,0,,2,,,74,127
8425,note_on,1,0,0,,12,,,71,127
8524,note_off,99,0,0,,12,,,71,127
8524,note_off,0,0,0,,8,,,68,127
8525,note_on,1,0,0,,1,,,73,127
8525,note_on,0,0,0,,10,,,69,127
8624,note_off,99,0,0,,1,,,73,127
8625,note_on,1,0,0,,8,,,80,127
8724,note_off,99,0,0,,8,,,80,127
8725,note_on,1,0,0,,10,,,81,127
8824,note_off,99,0,0,,10,,,69,127
8825,note_on,1,0,0,,8,,,68,127
8924,note_off,99,0,0,,8,,,68,127
8925,note_on,1,0,0,,10,,,69,127
9024,note_off,99,0,0,,10,,,81,127
9025,note_on,1,0,0,,8,,,56,127
9124,note_off,99,0,0,,8,,,56,127
9125,note_on,1,0,0,,10,,,57,127
9224,note_off,99,0,0,,10,,,69,127
9225,note_on,1,0,0,,8,,,80,127
9324,note_off,99,0,0,,8,,,80,127
9325,note_on,1,0,0,,10,,,81,127
9424,note_off,99,0,0,,10,,,57,127
9425,note_on,1,0,0,,8,,,68,127
9524,note_off,99,0,0,,8,,,68,127
9525,note_on,1,0,0,,10,,,69,127
9624,note_off,99,0,0,,10,,,81,127
9625,note_on,1,0,0,,8,,,56,127
9724,note_off,99,0,0,,8,,,56,127
9725,note_on,1,0,0,,10,,,57,127
9924,note_off,199,0,0,,10,,,69,127
9935,note_on,11,0,0,,7,,,79,127
9935,note_on,0,0,0,,11,,,82,127
10121,note_off,186,0,0,,10,,,57,127
10135,note_off,14,0,0,,11,,,82,127
10135,note_off,0,0,0,,7,,,79,127
10144,note_on,9,0,0,,5,,,77,127
10144,note_on,0,0,0,,10,,,81,127
10343,note_off,199,0,0,,10,,,81,127
10343,note_off,0,0,0,,5,,,77,127
10344,note_on,1,0,0,,10,,,69,127
10344,note_on,0,0,0,,7,,,79,127
10344,note_on,0,0,0,,4,,,76,127
10543,note_off,199,0,0,,4,,,76,127
10543,note_off,0,0,0,,7,,,79,127
10543,note_off,0,0,0,,10,,,69,127
10544,note_on,1,0,0,,10,,,69,127
10544,note_on,0,0,0,,2,,,74,127
10544,note_on,0,0,0,,5,,,77,127
10743,note_off,199,0,0,,5,,,77,127
10743,note_off,0,0,0,,2,,,74,127
10743,note_off,0,0,0,,10,,,69,127
10744,note_on,1,0,0,,10,,,69,127
10744,note_on,0,0,0,,4,,,76,127
10744,note_on,0,0,0,,1,,,73,127
10943,note_off,199,0,0,,1,,,73,127
10943,note_off,0,0,0,,4,,,76,127
10943,note_off,0,0,0,,10,,,69,127
10944,note_on,1,0,0,,11,,,70,127
10944,note_on,0,0,0,,2,,,74,127
11143,note_off,199,0,0,,2,,,74,127
11144,note_on,1,0,0,,11,,,82,127
11144,note_on,0,0,0,,7,,,79,127
11343,note_off,199,0,0,,7,,,79,127
11343,note_off,0,0,0,,11,,,82,127
11344,note_on,1,0,0,,10,,,81,127
11344,note_on,0,0,0,,5,,,77,127
11543,note_off,199,0,0,,5,,,77,127
11543,note_off,0,0,0,,10,,,81,127
11543,note_off,0,0,0,,11,,,70,127
11544,note_on,1,0,0,,7,,,67,127
11544,note_on,0,0,0,,4,,,76,127
11544,note_on,0,0,0,,7,,,79,127
11743,note_off,199,0,0,,7,,,79,127
11743,note_off,0,0,0,,4,,,76,127
11743,note_off,0,0,0,,7,,,67,127
11744,note_on,1,0,0,,10,,,69,127
11744,note_on,0,0,0,,5,,,77,127
11744,note_on,0,0,0,,2,,,74,127
11943,note_off,199,0,0,,2,,,74,127
11943,note_off,0,0,0,,5,,,77,127
11943,note_off,0,0,0,,10,,,69,127
11944,note_on,1,0,0,,10,,,69,127
11944,note_on,0,0,0,,1,,,73,127
11944,note_on,0,0,0,,4,,,76,127
12143,note_off,199,0,0,,4,,,76,127
12143,note_off,0,0,0,,1,,,73,127
12143,note_off,0,0,0,,10,,,69,127
12144,note_on,1,0,0,,2,,,74,127
12243,note_off,99,0,0,,2,,,74,127
12244,note_on,1,0,0,,1,,,85,127
12343,note_off,99,0,0,,1,,,85,127
12344,note_on,1,0,0,,2,,,86,127
12444,note_on,100,0,0,,1,,,73,127
12543,note_off,99,0,0,,1,,,73,127
12544,note_on,1,0,0,,2,,,74,127
12643,note_off,99,0,0,,2,,,86,127
12644,note_on,1,0,0,,1,,,61,127
12743,note_off,99,0,0,,1,,,61,127
12744,note_on,1,0,0,,2,,,62,127
12843,note_off,99,0,0,,2,,,74,127
12844,note_on,1,0,0,,1,,,85,127
12943,note_off,99,0,0,,1,,,85,127
12944,note_on,1,0,0,,2,,,86,127
13043,note_off,99,0,0,,2,,,62,127
13044,note_on,1,0,0,,1,,,73,127
13143,note_off,99,0,0,,1,,,73,127
13144,note_on,1,0,0,,2,,,74,127
13243,note_off,99,0,0,,2,,,86,127
13244,note_on,1,0,0,,1,,,61,127
13343,note_off,99,0,0,,1,,,61,127
13344,note_on,1,0,0,,2,,,62,127
13543,note_off,199,0,0,,2,,,74,127
13561,note_on,18,0,0,,5,,,77,127
13561,note_on,0,0,0,,2,,,86,127
13760,note_off,199,0,0,,2,,,86,127
13760,note_off,0,0,0,,5,,,77,127
13761,note_on,1,0,0,,4,,,76,127
13761,note_on,0,0,0,,0,,,84,127
13944,note_off,183,0,0,,2,,,62,127
13961,note_off,17,0,0,,0,,,84,127
13961,note_off,0,0,0,,4,,,76,127
13962,note_on,1,0,0,,2,,,74,127
13962,note_on,0,0,0,,12,,,83,127
13962,note_on,0,0,0,,2,,,62,127
14161,note_off,199,0,0,,12,,,83,127
14161,note_off,0,0,0,,2,,,74,127
14162,note_on,1,0,0,,10,,,81,127
14162,note_on,0,0,0,,0,,,72,127
14361,note_off,199,0,0,,0,,,72,127
14361,note_off,0,0,0,,10,,,81,127
14361,note_off,0,0,0,,2,,,62,127
14362,note_on,1,0,0,,8,,,80,127
14362,note_on,0,0,0,,12,,,71,127
14362,note_on,0,0,0,,4,,,64,127
14561,note_off,199,0,0,,4,,,64,127
14561,note_off,0,0,0,,12,,,71,127
14561,note_off,0,0,0,,8,,,80,127
14562,note_on,1,0,0,,0,,,72,127
14562,note_on,0,0,0,,10,,,81,127
14562,note_on,0,0,0,,5,,,65,127
14761,note_off,199,0,0,,10,,,81,127
14761,note_off,0,0,0,,0,,,72,127
14762,note_on,1,0,0,,2,,,86,127
14762,note_on,0,0,0,,5,,,77,127
14958,note_off,196,0,0,,5,,,65,127
14961,note_off,3,0,0,,5,,,77,127
14961,note_off,0,0,0,,2,,,86,127
14962,note_on,1,0,0,,4,,,76,127
14962,note_on,0,0,0,,0,,,84,127
15161,note_off,199,0,0,,0,,,84,127
15161,note_off,0,0,0,,4,,,76,127
15162,note_on,1,0,0,,2,,,74,127
15162,note_on,0,0,0,,12,,,83,127
15162,note_on,0,0,0,,2,,,62,127
15361,note_off,199,0,0,,12,,,83,127
15361,note_off,0,0,0,,2,,,74,127
15362,note_on,1,0,0,,10,,,81,127
15362,note_on,0,0,0,,0,,,72,127
15561,note_off,199,0,0,,0,,,72,127
15561,note_off,0,0,0,,10,,,81,127
15561,note_off,0,0,0,,2,,,62,127
15562,note_on,1,0,0,,8,,,80,127
15562,note_on,0,0,0,,12,,,71,127
15562,note_on,0,0,0,,4,,,64,127
15761,note_off,199,0,0,,4,,,64,127
15761,note_off,0,0,0,,12,,,71,127
15761,note_off,0,0,0,,8,,,80,127
15762,note_on,1,0,0,,10,,,81,127
15762,note_on,0,0,0,,0,,,72,127
15762,note_on,0,0,0,,5,,,65,127
15762,note_on,0,0,0,,10,,,69,127
15961,note_off,199,0,0,,10,,,69,127
15961,note_off,0,0,0,,5,,,65,127
15961,note_off,0,0,0,,0,,,72,127
15961,note_off,0,0,0,,10,,,81,127
15962,note_on,1,0,0,,10,,,81,127
15962,note_on,0,0,0,,0,,,72,127
15962,note_on,0,0,0,,4,,,64,127
16161,note_off,199,0,0,,4,,,64,127
16161,note_off,0,0,0,,0,,,72,127
16161,note_off,0,0,0,,10,,,81,127
16162,note_on,1,0,0,,4,,,76,127
16162,note_on,0,0,0,,0,,,84,127
16162,note_on,0,0,0,,10,,,69,127
16162,note_on,0,0,0,,2,,,62,127
16361,note_off,199,0,0,,2,,,62,127
16361,note_off,0,0,0,,10,,,69,127
16361,note_off,0,0,0,,0,,,84,127
16361,note_off,0,0,0,,4,,,76,127
16362,note_on,1,0,0,,10,,,81,127
16362,note_on,0,0,0,,0,,,72,127
16362,note_on,0,0,0,,0,,,60,127
16362,note_on,0,0,0,,10,,,69,127
16561,note_off,199,0,0,,10,,,69,127
16561,note_off,0,0,0,,0,,,60,127
16561,note_off,0,0,0,,0,,,72,127
16561,note_off,0,0,0,,10,,,81,127
16562,note_on,1,0,0,,10,,,81,127
16562,note_on,0,0,0,,0,,,72,127
16562,note_on,0,0,0,,4,,,64,127
16761,note_off,199,0,0,,4,,,64,127
16761,note_off,0,0,0,,0,,,72,127
16761,note_off,0,0,0,,10,,,81,127
16762,note_on,1,0,0,,4,,,76,127
16762,note_on,0,0,0,,0,,,84,127
16762,note_on,0,0,0,,2,,,62,127
16961,note_off,199,0,0,,2,,,62,127
16961,note_off,0,0,0,,0,,,84,127
16961,note_off,0,0,0,,4,,,76,127
16962,note_on,1,0,0,,10,,,81,127
16962,note_on,0,0,0,,0,,,72,127
16962,note_on,0,0,0,,10,,,69,127
16962,note_on,0,0,0,,0,,,60,127
17161,note_off,199,0,0,,0,,,60,127
17161,note_off,0,0,0,,10,,,69,127
17161,note_off,0,0,0,,0,,,72,127
17161,note_off,0,0,0,,10,,,81,127
17162,note_on,1,0,0,,6,,,78,127
17162,note_on,0,0,0,,7,,,79,127
17162,note_on,0,0,0,,0,,,72,127
17162,note_on,0,0,0,,10,,,69,127
17162,note_on,0,0,0,,0,,,60,127
17361,note_off,199,0,0,,0,,,60,127
17361,note_off,0,0,0,,10,,,69,127
17361,note_off,0,0,0,,0,,,72,127
17361,note_off,0,0,0,,7,,,79,127
17361,note_off,0,0,0,,6,,,78,127
17362,note_on,1,0,0,,0,,,72,127
17362,note_on,0,0,0,,4,,,76,127
17362,note_on,0,0,0,,10,,,81,127
17362,note_on,0,0,0,,4,,,64,127
17362,note_on,0,0,0,,10,,,69,127
17362,note_on,0,0,0,,0,,,60,127
17561,note_off,199,0,0,,0,,,60,127
17561,note_off,0,0,0,,10,,,69,127
17561,note_off,0,0,0,,4,,,64,127
17561,note_off,0,0,0,,10,,,81,127
17561,note_off,0,0,0,,4,,,76,127
17561,note_off,0,0,0,,0,,,72,127
17562,note_on,1,0,0,,12,,,71,127
17562,note_on,0,0,0,,10,,,81,127
17562,note_on,0,0,0,,3,,,75,127
17562,note_on,0,0,0,,4,,,64,127
17562,note_on,0,0,0,,10,,,69,127
17562,note_on,0,0,0,,12,,,59,127
17562,note_on,0,0,0,,6,,,66,127
17761,note_off,199,0,0,,6,,,66,127
17761,note_off,0,0,0,,12,,,59,127
17761,note_off,0,0,0,,10,,,69,127
17761,note_off,0,0,0,,4,,,64,127
17761,note_off,0,0,0,,3,,,75,127
17761,note_off,0,0,0,,10,,,81,127
17761,note_off,0,0,0,,12,,,71,127
17762,note_on,1,0,0,,10,,,81,127
17762,note_on,0,0,0,,6,,,78,127
17762,note_on,0,0,0,,4,,,64,127
17762,note_on,0,0,0,,6,,,66,127
17762,note_on,0,0,0,,10,,,69,127
17762,note_on,0,0,0,,12,,,59,127
17961,note_off,199,0,0,,12,,,59,127
17961,note_off,0,0,0,,10,,,69,127
17961,note_off,0,0,0,,6,,,66,127
17961,note_off,0,0,0,,4,,,64,127
17961,note_off,0,0,0,,6,,,78,127
17961,note_off,0,0,0,,10,,,81,127
17962,note_on,1,0,0,,4,,,76,127
17962,note_on,0,0,0,,10,,,81,127
17962,note_on,0,0,0,,0,,,72,127
17962,note_on,0,0,0,,10,,,69,127
17962,note_on,0,0,0,,4,,,64,127
17962,note_on,0,0,0,,6,,,66,127
17962,note_on,0,0,0,,0,,,60,127
18161,note_off,199,0,0,,0,,,60,127
18161,note_off,0,0,0,,6,,,66,127
18161,note_off,0,0,0,,4,,,64,127
18161,note_off,0,0,0,,10,,,69,127
18161,note_off,0,0,0,,0,,,72,127
18161,note_off,0,0,0,,10,,,81,127
18161,note_off,0,0,0,,4,,,76,127
18162,note_on,1,0,0,,10,,,81,127
18162,note_on,0,0,0,,12,,,71,127
18162,note_on,0,0,0,,3,,,75,127
18162,note_on,0,0,0,,4,,,64,127
18162,note_on,0,0,0,,12,,,59,127
18162,note_on,0,0,0,,6,,,66,127
18162,note_on,0,0,0,,10,,,69,127
18361,note_off,199,0,0,,10,,,69,127
18361,note_off,0,0,0,,6,,,66,127
18361,note_off,0,0,0,,12,,,59,127
18361,note_off,0,0,0,,4,,,64,127
18361,note_off,0,0,0,,3,,,75,127
18361,note_off,0,0,0,,12,,,71,127
18361,note_off,0,0,0,,10,,,81,127
18362,note_on,1,0,0,,10,,,81,127
18362,note_on,0,0,0,,6,,,78,127
18362,note_on,0,0,0,,4,,,64,127
18362,note_on,0,0,0,,10,,,69,127
18362,note_on,0,0,0,,12,,,59,127
18362,note_on,0,0,0,,6,,,66,127
18561,note_off,199,0,0,,6,,,66,127
18561,note_off,0,0,0,,12,,,59,127
18561,note_off,0,0,0,,10,,,69,127
18561,note_off,0,0,0,,4,,,64,127
18561,note_off,0,0,0,,6,,,78,127
18561,note_off,0,0,0,,10,,,81,127
18562,note_on,1,0,0,,10,,,81,127
18562,note_on,0,0,0,,0,,,72,127
18562,note_on,0,0,0,,4,,,76,127
18562,note_on,0,0,0,,10,,,69,127
18562,note_on,0,0,0,,0,,,60,127
18562,note_on,0,0,0,,4,,,64,127
18562,note_on,0,0,0,,6,,,66,127
18761,note_off,199,0,0,,6,,,66,127
18761,note_off,0,0,0,,4,,,64,127
18761,note_off,0,0,0,,0,,,60,127
18761,note_off,0,0,0,,10,,,69,127
18761,note_off,0,0,0,,4,,,76,127
18761,note_off,0,0,0,,0,,,72,127
18761,note_off,0,0,0,,10,,,81,127
18762,note_on,1,0,0,,12,,,71,127
18762,note_on,0,0,0,,3,,,75,127
18762,note_on,0,0,0,,12,,,59,127
18861,note_off,99,0,0,,3,,,75,127
18861,note_off,0,0,0,,12,,,71,127
18862,note_on,1,0,0,,10,,,81,127
18961,note_off,99,0,0,,10,,,81,127
18962,note_on,1,0,0,,6,,,78,127
19061,note_off,99,0,0,,6,,,78,127
19062,note_on,1,0,0,,3,,,75,127
19161,note_off,99,0,0,,3,,,75,127
19162,note_on,1,0,0,,7,,,79,127
19261,note_off,99,0,0,,7,,,79,127
19262,note_on,1,0,0,,4,,,76,127
19361,note_off,99,0,0,,4,,,76,127
19362,note_on,1,0,0,,6,,,78,127
19362,note_on,0,0,0,,12,,,47,127
19387,note_off,25,0,0,,12,,,59,127
19461,note_off,74,0,0,,6,,,78,127
19462,note_on,1,0,0,,10,,,69,127
19561,note_off,99,0,0,,10,,,69,127
19562,note_on,1,0,0,,6,,,66,127
19661,note_off,99,0,0,,6,,,66,127
19662,note_on,1,0,0,,3,,,63,127
19761,note_off,99,0,0,,3,,,63,127
19762,note_on,1,0,0,,7,,,67,127
19861,note_off,99,0,0,,7,,,67,127
19862,note_on,1,0,0,,4,,,64,127
19961,note_off,99,0,0,,4,,,64,127
19962,note_on,1,0,0,,6,,,66,127
19962,note_on,0,0,0,,12,,,35,127
19987,note_off,25,0,0,,12,,,47,127
20182,note_off,195,0,0,,6,,,66,127
20196,note_on,14,0,0,,12,,,59,127
20562,note_off,366,0,0,,12,,,35,127
20738,note_off,176,0,0,,12,,,59,127
20988,note_on,250,0,0,,11,,,82,127
21087,note_off,99,0,0,,11,,,82,127
21088,note_on,1,0,0,,12,,,83,127
21188,note_on,100,0,0,,11,,,70,127
21287,note_off,99,0,0,,11,,,70,127
21288,note_on,1,0,0,,12,,,71,127
21387,note_off,99,0,0,,12,,,83,127
21388,note_on,1,0,0,,11,,,58,127
21487,note_off,99,0,0,,11,,,58,127
21488,note_on,1,0,0,,12,,,59,127
21587,note_off,99,0,0,,12,,,59,127
21587,note_off,0,0,0,,12,,,71,127
21588,note_on,1,0,0,,10,,,81,127
21588,note_on,0,0,0,,6,,,78,127
21588,note_on,0,0,0,,12,,,59,127
21787,note_off,199,0,0,,6,,,78,127
21787,note_off,0,0,0,,10,,,81,127
21788,note_on,1,0,0,,7,,,79,127
21788,note_on,0,0,0,,4,,,76,127
21788,note_on,0,0,0,,12,,,47,127
21984,note_off,196,0,0,,12,,,59,127
21987,note_off,3,0,0,,12,,,47,127
21987,note_off,0,0,0,,4,,,76,127
21987,note_off,0,0,0,,7,,,79,127
21988,note_on,1,0,0,,6,,,78,127
21988,note_on,0,0,0,,3,,,75,127
21988,note_on,0,0,0,,12,,,47,127
22187,note_off,199,0,0,,12,,,47,127
22187,note_off,0,0,0,,3,,,75,127
22187,note_off,0,0,0,,6,,,78,127
22188,note_on,1,0,0,,11,,,82,127
22287,note_off,99,0,0,,11,,,82,127
22288,note_on,1,0,0,,12,,,83,127
22388,note_on,100,0,0,,11,,,70,127
22487,note_off,99,0,0,,11,,,70,127
22488,note_on,1,0,0,,12,,,71,127
22587,note_off,99,0,0,,12,,,83,127
22588,note_on,1,0,0,,11,,,58,127
22687,note_off,99,0,0,,11,,,58,127
22688,note_on,1,0,0,,12,,,59,127
22787,note_off,99,0,0,,12,,,59,127
22787,note_off,0,0,0,,12,,,71,127
22788,note_on,1,0,0,,10,,,81,127
22788,note_on,0,0,0,,6,,,78,127
22788,note_on,0,0,0,,12,,,59,127
22987,note_off,199,0,0,,6,,,78,127
22987,note_off,0,0,0,,10,,,81,127
22988,note_on,1,0,0,,4,,,76,127
22988,note_on,0,0,0,,7,,,79,127
22988,note_on,0,0,0,,12,,,47,127
23184,note_off,196,0,0,,12,,,59,127
23187,note_off,3,0,0,,12,,,47,127
23187,note_off,0,0,0,,7,,,79,127
23187,note_off,0,0,0,,4,,,76,127
23188,note_on,1,0,0,,3,,,75,127
23188,note_on,0,0,0,,6,,,78,127
23188,note_on,0,0,0,,12,,,47,127
23387,note_off,199,0,0,,12,,,47,127
23387,note_off,0,0,0,,6,,,78,127
23387,note_off,0,0,0,,3,,,75,127
23388,note_on,1,0,0,,0,,,72,127
23388,note_on,0,0,0,,0,,,84,127
23488,note_on,100,0,0,,10,,,69,127
23587,note_off,99,0,0,,10,,,69,127
23588,note_on,1,0,0,,6,,,66,127
23687,note_off,99,0,0,,6,,,66,127
23688,note_on,1,0,0,,3,,,63,127
23787,note_off,99,0,0,,3,,,63,127
23788,note_on,1,0,0,,0,,,60,127
23887,note_off,99,0,0,,0,,,60,127
23888,note_on,1,0,0,,10,,,57,127
23987,note_off,99,0,0,,10,,,57,127
23988,note_on,1,0,0,,12,,,35,127
24187,note_off,199,0,0,,0,,,84,127
24187,note_off,0,0,0,,0,,,72,127
24188,note_on,1,0,0,,12,,,83,127
24287,note_off,99,0,0,,12,,,83,127
24288,note_on,1,0,0,,10,,,81,127
24384,note_off,96,0,0,,12,,,35,127
24387,note_off,3,0,0,,10,,,81,127
24388,note_on,1,0,0,,7,,,79,127
24487,note_off,99,0,0,,7,,,79,127
24488,note_on,1,0,0,,6,,,78,127
24587,note_off,99,0,0,,6,,,78,127
24588,note_on,1,0,0,,7,,,79,127
24588,note_on,0,0,0,,4,,,52,127
24687,note_off,99,0,0,,7,,,79,127
24688,note_on,1,0,0,,12,,,83,127
24787,note_off,99,0,0,,12,,,83,127
24787,note_off,0,0,0,,4,,,52,127
24788,note_on,1,0,0,,4,,,76,127
24788,note_on,0,0,0,,6,,,54,127
24887,note_off,99,0,0,,4,,,76,127
24888,note_on,1,0,0,,3,,,75,127
24987,note_off,99,0,0,,3,,,75,127
24987,note_off,0,0,0,,6,,,54,127
24988,note_on,1,0,0,,4,,,76,127
24988,note_on,0,0,0,,7,,,55,127
25087,note_off,99,0,0,,4,,,76,127
25088,note_on,1,0,0,,7,,,79,127
25187,note_off,99,0,0,,7,,,79,127
25187,note_off,0,0,0,,7,,,55,127
25188,note_on,1,0,0,,6,,,78,127
25188,note_on,0,0,0,,10,,,57,127
25287,note_off,99,0,0,,6,,,78,127
25288,note_on,1,0,0,,10,,,81,127
25387,note_off,99,0,0,,10,,,81,127
25387,note_off,0,0,0,,10,,,57,127
25388,note_on,1,0,0,,7,,,79,127
25388,note_on,0,0,0,,12,,,59,127
25487,note_off,99,0,0,,7,,,79,127
25488,note_on,1,0,0,,6,,,78,127
25587,note_off,99,0,0,,6,,,78,127
25588,note_on,1,0,0,,4,,,76,127
25588,note_on,0,0,0,,12,,,47,127
25687,note_off,99,0,0,,4,,,76,127
25688,note_on,1,0,0,,3,,,75,127
25784,note_off,96,0,0,,12,,,59,127
25787,note_off,3,0,0,,3,,,75,127
25787,note_off,0,0,0,,12,,,47,127
25788,note_on,1,0,0,,3,,,75,127
25788,note_on,0,0,0,,4,,,52,127
25988,note_on,200,0,0,,4,,,40,127
26187,note_off,199,0,0,,3,,,75,127
26188,note_on,1,0,0,,4,,,76,127
26387,note_off,199,0,0,,4,,,76,127
26387,note_off,0,0,0,,4,,,40,127
26387,note_off,0,0,0,,4,,,52,127
26411,note_on,24,0,0,,11,,,82,127
26510,note_off,99,0,0,,11,,,82,127
26511,note_on,1,0,0,,12,,,83,127
26611,note_on,100,0,0,,11,,,70,127
26710,note_off,99,0,0,,11,,,70,127
26711,note_on,1,0,0,,12,,,71,127
26810,note_off,99,0,0,,12,,,83,127
26811,note_on,1,0,0,,11,,,58,127
26910,note_off,99,0,0,,11,,,58,127
26911,note_on,1,0,0,,12,,,59,127
27010,note_off,99,0,0,,12,,,59,127
27010,note_off,0,0,0,,12,,,71,127
27011,note_on,1,0,0,,12,,,59,127
27011,note_on,0,0,0,,6,,,78,127
27011,note_on,0,0,0,,10,,,81,127
27210,note_off,199,0,0,,10,,,81,127
27210,note_off,0,0,0,,6,,,78,127
27211,note_on,1,0,0,,12,,,47,127
27211,note_on,0,0,0,,7,,,79,127
27211,note_on,0,0,0,,4,,,76,127
27407,note_off,196,0,0,,12,,,59,127
27410,note_off,3,0,0,,4,,,76,127
27410,note_off,0,0,0,,7,,,79,127
27410,note_off,0,0,0,,12,,,47,127
27411,note_on,1,0,0,,12,,,47,127
27411,note_on,0,0,0,,6,,,78,127
27411,note_on,0,0,0,,3,,,75,127
27610,note_off,199,0,0,,3,,,75,127
27610,note_off,0,0,0,,6,,,78,127
27610,note_off,0,0,0,,12,,,47,127
27611,note_on,1,0,0,,11,,,82,127
27710,note_off,99,0,0,,11,,,82,127
27711,note_on,1,0,0,,12,,,83,127
27811,note_on,100,0,0,,11,,,70,127
27910,note_off,99,0,0,,11,,,70,127
27911,note_on,1,0,0,,12,,,71,127
28010,note_off,99,0,0,,12,,,83,127
28011,note_on,1,0,0,,11,,,58,127
28110,note_off,99,0,0,,11,,,58,127
28111,note_on,1,0,0,,12,,,59,127
28210,note_off,99,0,0,,12,,,59,127
28210,note_off,0,0,0,,12,,,71,127
28211,note_on,1,0,0,,12,,,59,127
28211,note_on,0,0,0,,6,,,78,127
28211,note_on,0,0,0,,10,,,81,127
28410,note_off,199,0,0,,10,,,81,127
28410,note_off,0,0,0,,6,,,78,127
28411,note_on,1,0,0,,12,,,47,127
28411,note_on,0,0,0,,7,,,79,127
28411,note_on,0,0,0,,4,,,76,127
28607,note_off,196,0,0,,12,,,59,127
28610,note_off,3,0,0,,4,,,76,127
28610,note_off,0,0,0,,7,,,79,127
28610,note_off,0,0,0,,12,,,47,127
28611,note_on,1,0,0,,12,,,47,127
28611,note_on,0,0,0,,6,,,78,127
28611,note_on,0,0,0,,3,,,75,127
28810,note_off,199,0,0,,3,,,75,127
28810,note_off,0,0,0,,6,,,78,127
28810,note_off,0,0,0,,12,,,47,127
28817,note_on,7,0,0,,0,,,72,127
28817,note_on,0,0,0,,0,,,84,127
28917,note_on,100,0,0,,10,,,69,127
29016,note_off,99,0,0,,10,,,69,127
29017,note_on,1,0,0,,6,,,66,127
29116,note_off,99,0,0,,6,,,66,127
29117,note_on,1,0,0,,3,,,63,127
29216,note_off,99,0,0,,3,,,63,127
29217,note_on,1,0,0,,0,,,60,127
29316,note_off,99,0,0,,0,,,60,127
29317,note_on,1,0,0,,10,,,57,127
29416,note_off,99,0,0,,10,,,57,127
29417,note_on,1,0,0,,12,,,35,127
29616,note_off,199,0,0,,0,,,84,127
29616,note_off,0,0,0,,0,,,72,127
29617,note_on,1,0,0,,12,,,83,127
29716,note_off,99,0,0,,12,,,83,127
29717,note_on,1,0,0,,10,,,81,127
29816,note_off,99,0,0,,10,,,81,127
29817,note_on,1,0,0,,7,,,79,127
29916,note_off,99,0,0,,7,,,79,127
29917,note_on,1,0,0,,6,,,78,127
30016,note_off,99,0,0,,6,,,78,127
30016,note_off,0,0,0,,12,,,35,127
30017,note_on,1,0,0,,7,,,79,127
30017,note_on,0,0,0,,4,,,52,127
30116,note_off,99,0,0,,7,,,79,127
30117,note_on,1,0,0,,12,,,83,127
30216,note_off,99,0,0,,12,,,83,127
30216,note_off,0,0,0,,4,,,52,127
30217,note_on,1,0,0,,4,,,76,127
30217,note_on,0,0,0,,6,,,54,127
30316,note_off,99,0,0,,4,,,76,127
30317,note_on,1,0,0,,3,,,75,127
30416,note_off,99,0,0,,3,,,75,127
30416,note_off,0,0,0,,6,,,54,127
30417,note_on,1,0,0,,4,,,76,127
30417,note_on,0,0,0,,7,,,55,127
30516,note_off,99,0,0,,4,,,76,127
30517,note_on,1,0,0,,7,,,79,127
30616,note_off,99,0,0,,7,,,79,127
30616,note_off,0,0,0,,7,,,55,127
30617,note_on,1,0,0,,6,,,78,127
30617,note_on,0,0,0,,10,,,57,127
30716,note_off,99,0,0,,6,,,78,127
30717,note_on,1,0,0,,10,,,81,127
30816,note_off,99,0,0,,10,,,81,127
30816,note_off,0,0,0,,10,,,57,127
30817,note_on,1,0,0,,7,,,79,127
30817,note_on,0,0,0,,12,,,59,127
30916,note_off,99,0,0,,7,,,79,127
30917,note_on,1,0,0,,6,,,78,127
31016,note_off,99,0,0,,6,,,78,127
31017,note_on,1,0,0,,4,,,76,127
31017,note_on,0,0,0,,12,,,47,127
31116,note_off,99,0,0,,4,,,76,127
31117,note_on,1,0,0,,3,,,75,127
31216,note_off,99,0,0,,3,,,75,127
31216,note_off,0,0,0,,12,,,47,127
31216,note_off,0,0,0,,12,,,59,127
31217,note_on,1,0,0,,4,,,76,127
31217,note_on,0,0,0,,4,,,52,127
31316,note_off,99,0,0,,4,,,76,127
31317,note_on,1,0,0,,0,,,72,127
31416,note_off,99,0,0,,0,,,72,127
31416,note_off,0,0,0,,4,,,52,127
31417,note_on,1,0,0,,12,,,71,127
31417,note_on,0,0,0,,6,,,54,127
31516,note_off,99,0,0,,12,,,71,127
31517,note_on,1,0,0,,11,,,70,127
31616,note_off,99,0,0,,11,,,70,127
31616,note_off,0,0,0,,6,,,54,127
31617,note_on,1,0,0,,12,,,71,127
31617,note_on,0,0,0,,7,,,55,127
31716,note_off,99,0,0,,12,,,71,127
31717,note_on,1,0,0,,4,,,64,127
31816,note_off,99,0,0,,4,,,64,127
31816,note_off,0,0,0,,7,,,55,127
31817,note_on,1,0,0,,6,,,66,127
31817,note_on,0,0,0,,10,,,57,127
31916,note_off,99,0,0,,6,,,66,127
31917,note_on,1,0,0,,10,,,69,127
32016,note_off,99,0,0,,10,,,69,127
32016,note_off,0,0,0,,10,,,57,127
32017,note_on,1,0,0,,7,,,67,127
32017,note_on,0,0,0,,12,,,59,127
32116,note_off,99,0,0,,7,,,67,127
32117,note_on,1,0,0,,6,,,66,127
32216,note_off,99,0,0,,6,,,66,127
32217,note_on,1,0,0,,4,,,64,127
32217,note_on,0,0,0,,12,,,47,127
32316,note_off,99,0,0,,4,,,64,127
32317,note_on,1,0,0,,3,,,63,127
32416,note_off,99,0,0,,3,,,63,127
32416,note_off,0,0,0,,12,,,47,127
32416,note_off,0,0,0,,12,,,59,127
32417,note_on,1,0,0,,4,,,64,127
32417,note_on,0,0,0,,4,,,40,127
32516,note_off,99,0,0,,4,,,64,127
32517,note_on,1,0,0,,0,,,60,127
32616,note_off,99,0,0,,0,,,60,127
32616,note_off,0,0,0,,4,,,40,127
32617,note_on,1,0,0,,12,,,59,127
32617,note_on,0,0,0,,6,,,42,127
32716,note_off,99,0,0,,12,,,59,127
32717,note_on,1,0,0,,11,,,58,127
32816,note_off,99,0,0,,11,,,58,127
32816,note_off,0,0,0,,6,,,42,127
32817,note_on,1,0,0,,12,,,59,127
32817,note_on,0,0,0,,7,,,43,127
32916,note_off,99,0,0,,12,,,59,127
32917,note_on,1,0,0,,4,,,52,127
33016,note_off,99,0,0,,4,,,52,127
33016,note_off,0,0,0,,7,,,43,127
33017,note_on,1,0,0,,6,,,54,127
33017,note_on,0,0,0,,10,,,45,127
33116,note_off,99,0,0,,6,,,54,127
33117,note_on,1,0,0,,10,,,57,127
33216,note_off,99,0,0,,10,,,57,127
33216,note_off,0,0,0,,10,,,45,127
33217,note_on,1,0,0,,7,,,55,127
33217,note_on,0,0,0,,12,,,47,127
33316,note_off,99,0,0,,7,,,55,127
33317,note_on,1,0,0,,6,,,54,127
33416,note_off,99,0,0,,6,,,54,127
33417,note_on,1,0,0,,4,,,52,127
33417,note_on,0,0,0,,12,,,35,127
33516,note_off,99,0,0,,4,,,52,127
33517,note_on,1,0,0,,3,,,51,127
33616,note_off,99,0,0,,3,,,51,127
33616,note_off,0,0,0,,12,,,35,127
33616,note_off,0,0,0,,12,,,47,127
33617,note_on,1,0,0,,3,,,51,127
33617,note_on,0,0,0,,4,,,40,127
34017,note_off,400,0,0,,3,,,51,127
34025,note_on,8,0,0,,4,,,52,127
34217,note_off,192,0,0,,4,,,40,127
34268,note_on,51,0,0,,4,,,76,127
34297,note_off,29,0,0,,4,,,52,127
34468,note_on,171,0,0,,8,,,68,127
34468,note_on,0,0,0,,12,,,71,127
34667,note_off,199,0,0,,12,,,71,127
34667,note_off,0,0,0,,8,,,68,127
34668,note_on,1,0,0,,4,,,64,127
34668,note_on,0,0,0,,8,,,68,127
34867,note_off,199,0,0,,8,,,68,127
34867,note_off,0,0,0,,4,,,76,127
34868,note_on,1,0,0,,4,,,76,127
34968,note_off,100,0,0,,4,,,64,127
35068,note_on,100,0,0,,10,,,69,127
35068,note_on,0,0,0,,1,,,73,127
35267,note_off,199,0,0,,1,,,73,127
35267,note_off,0,0,0,,10,,,69,127
35268,note_on,1,0,0,,4,,,64,127
35268,note_on,0,0,0,,10,,,69,127
35467,note_off,199,0,0,,10,,,69,127
35467,note_off,0,0,0,,4,,,76,127
35468,note_on,1,0,0,,8,,,80,127
35568,note_off,100,0,0,,4,,,64,127
35668,note_on,100,0,0,,12,,,71,127
35668,note_on,0,0,0,,2,,,74,127
35867,note_off,199,0,0,,2,,,74,127
35867,note_off,0,0,0,,12,,,71,127
35868,note_on,1,0,0,,4,,,64,127
35868,note_on,0,0,0,,12,,,71,127
36067,note_off,199,0,0,,12,,,71,127
36067,note_off,0,0,0,,8,,,80,127
36068,note_on,1,0,0,,10,,,81,127
36168,note_off,100,0,0,,4,,,64,127
36268,note_on,100,0,0,,1,,,73,127
36268,note_on,0,0,0,,4,,,76,127
36467,note_off,199,0,0,,4,,,76,127
36467,note_off,0,0,0,,1,,,73,127
36468,note_on,1,0,0,,4,,,64,127
36468,note_on,0,0,0,,1,,,73,127
36667,note_off,199,0,0,,1,,,73,127
36667,note_off,0,0,0,,10,,,81,127
36668,note_on,1,0,0,,12,,,83,127
36867,note_off,199,0,0,,4,,,64,127
36868,note_on,1,0,0,,12,,,71,127
36868,note_on,0,0,0,,8,,,80,127
37067,note_off,199,0,0,,8,,,80,127
37067,note_off,0,0,0,,12,,,71,127
37068,note_on,1,0,0,,4,,,64,127
37068,note_on,0,0,0,,2,,,74,127
37267,note_off,199,0,0,,2,,,74,127
37267,note_off,0,0,0,,4,,,64,127
37267,note_off,0,0,0,,12,,,83,127
37268,note_on,1,0,0,,10,,,69,127
37268,note_on,0,0,0,,1,,,85,127
37367,note_off,99,0,0,,1,,,85,127
37368,note_on,1,0,0,,10,,,81,127
37467,note_off,99,0,0,,10,,,81,127
37468,note_on,1,0,0,,4,,,64,127
37468,note_on,0,0,0,,8,,,80,127
37567,note_off,99,0,0,,8,,,80,127
37568,note_on,1,0,0,,12,,,83,127
37667,note_off,99,0,0,,12,,,83,127
37667,note_off,0,0,0,,4,,,64,127
37668,note_on,1,0,0,,10,,,57,127
37668,note_on,0,0,0,,10,,,81,127
37867,note_off,199,0,0,,10,,,81,127
37867,note_off,0,0,0,,10,,,57,127
37867,note_off,0,0,0,,10,,,69,127
37885,note_on,18,0,0,,4,,,76,127
37885,note_on,0,0,0,,1,,,73,127
37985,note_on,100,0,0,,10,,,69,127
38084,note_off,99,0,0,,10,,,69,127
38084,note_off,0,0,0,,1,,,73,127
38084,note_off,0,0,0,,4,,,76,127
38085,note_on,1,0,0,,1,,,73,127
38085,note_on,0,0,0,,4,,,76,127
38085,note_on,0,0,0,,4,,,64,127
38184,note_off,99,0,0,,4,,,64,127
38185,note_on,1,0,0,,1,,,61,127
38284,note_off,99,0,0,,1,,,61,127
38284,note_off,0,0,0,,4,,,76,127
38284,note_off,0,0,0,,1,,,73,127
38285,note_on,1,0,0,,7,,,79,127
38285,note_on,0,0,0,,4,,,76,127
38285,note_on,0,0,0,,10,,,45,127
38484,note_off,199,0,0,,10,,,45,127
38484,note_off,0,0,0,,4,,,76,127
38484,note_off,0,0,0,,7,,,79,127
38485,note_on,1,0,0,,2,,,74,127
38485,note_on,0,0,0,,6,,,78,127
38585,note_on,100,0,0,,10,,,69,127
38684,note_off,99,0,0,,10,,,69,127
38684,note_off,0,0,0,,6,,,78,127
38684,note_off,0,0,0,,2,,,74,127
38685,note_on,1,0,0,,2,,,74,127
38685,note_on,0,0,0,,6,,,78,127
38685,note_on,0,0,0,,6,,,66,127
38784,note_off,99,0,0,,6,,,66,127
38785,note_on,1,0,0,,2,,,62,127
38884,note_off,99,0,0,,2,,,62,127
38884,note_off,0,0,0,,6,,,78,127
38884,note_off,0,0,0,,2,,,74,127
38885,note_on,1,0,0,,6,,,78,127
38885,note_on,0,0,0,,10,,,81,127
38885,note_on,0,0,0,,10,,,45,127
39084,note_off,199,0,0,,10,,,45,127
39084,note_off,0,0,0,,10,,,81,127
39084,note_off,0,0,0,,6,,,78,127
39085,note_on,1,0,0,,1,,,73,127
39085,note_on,0,0,0,,4,,,76,127
39185,note_on,100,0,0,,10,,,69,127
39284,note_off,99,0,0,,10,,,69,127
39284,note_off,0,0,0,,4,,,76,127
39284,note_off,0,0,0,,1,,,73,127
39285,note_on,1,0,0,,1,,,73,127
39285,note_on,0,0,0,,4,,,76,127
39285,note_on,0,0,0,,4,,,64,127
39384,note_off,99,0,0,,4,,,64,127
39385,note_on,1,0,0,,1,,,61,127
39484,note_off,99,0,0,,1,,,61,127
39484,note_off,0,0,0,,4,,,76,127
39484,note_off,0,0,0,,1,,,73,127
39485,note_on,1,0,0,,4,,,76,127
39485,note_on,0,0,0,,7,,,79,127
39485,note_on,0,0,0,,10,,,45,127
39684,note_off,199,0,0,,10,,,45,127
39684,note_off,0,0,0,,7,,,79,127
39684,note_off,0,0,0,,4,,,76,127
39685,note_on,1,0,0,,6,,,78,127
39685,note_on,0,0,0,,2,,,50,127
39784,note_off,99,0,0,,6,,,78,127
39785,note_on,1,0,0,,2,,,74,127
39884,note_off,99,0,0,,2,,,74,127
39884,note_off,0,0,0,,2,,,50,127
39885,note_on,1,0,0,,1,,,73,127
39885,note_on,0,0,0,,10,,,45,127
39984,note_off,99,0,0,,1,,,73,127
39985,note_on,1,0,0,,4,,,76,127
40084,note_off,99,0,0,,4,,,76,127
40084,note_off,0,0,0,,10,,,45,127
40085,note_on,1,0,0,,2,,,74,127
40085,note_on,0,0,0,,2,,,38,127
40284,note_off,199,0,0,,2,,,38,127
40293,note_off,9,0,0,,2,,,74,127
40312,note_on,19,0,0,,2,,,74,127
40412,note_on,100,0,0,,12,,,83,127
40511,note_off,99,0,0,,12,,,83,127
40512,note_on,1,0,0,,12,,,83,127
40561,note_off,49,0,0,,12,,,83,127
40562,note_on,1,0,0,,10,,,81,127
40611,note_off,49,0,0,,10,,,81,127
40611,note_off,0,0,0,,2,,,74,127
40612,note_on,1,0,0,,2,,,74,127
40612,note_on,0,0,0,,12,,,83,127
40661,note_off,49,0,0,,12,,,83,127
40662,note_on,1,0,0,,10,,,81,127
40711,note_off,49,0,0,,2,,,74,127
40712,note_on,1,0,0,,6,,,78,127
40811,note_off,99,0,0,,6,,,78,127
40811,note_off,0,0,0,,10,,,81,127
40812,note_on,1,0,0,,10,,,81,127
40911,note_off,99,0,0,,10,,,81,127
40912,note_on,1,0,0,,1,,,73,127
41012,note_on,100,0,0,,12,,,83,127
41111,note_off,99,0,0,,12,,,83,127
41112,note_on,1,0,0,,12,,,83,127
41161,note_off,49,0,0,,12,,,83,127
41162,note_on,1,0,0,,10,,,81,127
41211,note_off,49,0,0,,10,,,81,127
41211,note_off,0,0,0,,1,,,73,127
41212,note_on,1,0,0,,1,,,73,127
41212,note_on,0,0,0,,12,,,83,127
41261,note_off,49,0,0,,12,,,83,127
41262,note_on,1,0,0,,10,,,81,127
41311,note_off,49,0,0,,1,,,73,127
41312,note_on,1,0,0,,4,,,76,127
41411,note_off,99,0,0,,4,,,76,127
41411,note_off,0,0,0,,10,,,81,127
41412,note_on,1,0,0,,10,,,81,127
41511,note_off,99,0,0,,10,,,81,127
41512,note_on,1,0,0,,12,,,71,127
41612,note_on,100,0,0,,12,,,83,127
41711,note_off,99,0,0,,12,,,83,127
41712,note_on,1,0,0,,12,,,83,127
41761,note_off,49,0,0,,12,,,83,127
41762,note_on,1,0,0,,10,,,81,127
41811,note_off,49,0,0,,10,,,81,127
41811,note_off,0,0,0,,12,,,71,127
41812,note_on,1,0,0,,12,,,71,127
41812,note_on,0,0,0,,12,,,83,127
41861,note_off,49,0,0,,12,,,83,127
41862,note_on,1,0,0,,10,,,81,127
41911,note_off,49,0,0,,12,,,71,127
41912,note_on,1,0,0,,2,,,74,127
42011,note_off,99,0,0,,2,,,74,127
42011,note_off,0,0,0,,10,,,81,127
42012,note_on,1,0,0,,10,,,81,127
42111,note_off,99,0,0,,10,,,81,127
42112,note_on,1,0,0,,10,,,69,127
42212,note_on,100,0,0,,12,,,83,127
42311,note_off,99,0,0,,12,,,83,127
42312,note_on,1,0,0,,12,,,83,127
42361,note_off,49,0,0,,12,,,83,127
42362,note_on,1,0,0,,10,,,81,127
42411,note_off,49,0,0,,10,,,81,127
42411,note_off,0,0,0,,10,,,69,127
42412,note_on,1,0,0,,10,,,69,127
42412,note_on,0,0,0,,12,,,83,127
42461,note_off,49,0,0,,12,,,83,127
42462,note_on,1,0,0,,10,,,81,127
42511,note_off,49,0,0,,10,,,69,127
42512,note_on,1,0,0,,1,,,73,127
42611,note_off,99,0,0,,1,,,73,127
42612,note_on,1,0,0,,4,,,76,127
42660,note_off,48,0,0,,10,,,81,127
42711,note_off,51,0,0,,4,,,76,127
42716,note_on,5,0,0,,8,,,68,127
42816,note_on,100,0,0,,6,,,78,127
42915,note_off,99,0,0,,6,,,78,127
42916,note_on,1,0,0,,6,,,78,127
42965,note_off,49,0,0,,6,,,78,127
42966,note_on,1,0,0,,4,,,76,127
43015,note_off,49,0,0,,4,,,76,127
43015,note_off,0,0,0,,8,,,68,127
43016,note_on,1,0,0,,6,,,78,127
43016,note_on,0,0,0,,8,,,68,127
43065,note_off,49,0,0,,6,,,78,127
43066,note_on,1,0,0,,4,,,76,127
43115,note_off,49,0,0,,8,,,68,127
43116,note_on,1,0,0,,12,,,71,127
43215,note_off,99,0,0,,12,,,71,127
43215,note_off,0,0,0,,4,,,76,127
43216,note_on,1,0,0,,4,,,76,127
43315,note_off,99,0,0,,4,,,76,127
43316,note_on,1,0,0,,6,,,66,127
43416,note_on,100,0,0,,6,,,78,127
43515,note_off,99,0,0,,6,,,78,127
43516,note_on,1,0,0,,6,,,78,127
43565,note_off,49,0,0,,6,,,78,127
43566,note_on,1,0,0,,4,,,76,127
43615,note_off,49,0,0,,4,,,76,127
43615,note_off,0,0,0,,6,,,66,127
43616,note_on,1,0,0,,6,,,78,127
43616,note_on,0,0,0,,6,,,66,127
43665,note_off,49,0,0,,6,,,78,127
43666,note_on,1,0,0,,4,,,76,127
43715,note_off,49,0,0,,6,,,66,127
43716,note_on,1,0,0,,10,,,69,127
43815,note_off,99,0,0,,10,,,69,127
43815,note_off,0,0,0,,4,,,76,127
43816,note_on,1,0,0,,4,,,76,127
43915,note_off,99,0,0,,4,,,76,127
43916,note_on,1,0,0,,4,,,64,127
44016,note_on,100,0,0,,6,,,78,127
44115,note_off,99,0,0,,6,,,78,127
44116,note_on,1,0,0,,6,,,78,127
44165,note_off,49,0,0,,6,,,78,127
44166,note_on,1,0,0,,4,,,76,127
44215,note_off,49,0,0,,4,,,76,127
44215,note_off,0,0,0,,4,,,64,127
44216,note_on,1,0,0,,6,,,78,127
44216,note_on,0,0,0,,4,,,64,127
44265,note_off,49,0,0,,6,,,78,127
44266,note_on,1,0,0,,4,,,76,127
44315,note_off,49,0,0,,4,,,64,127
44316,note_on,1,0,0,,8,,,68,127
44415,note_off,99,0,0,,8,,,68,127
44416,note_on,1,0,0,,12,,,71,127
44515,note_off,99,0,0,,12,,,71,127
44516,note_on,1,0,0,,2,,,62,127
44615,note_off,99,0,0,,4,,,76,127
44616,note_on,1,0,0,,6,,,78,127
44715,note_off,99,0,0,,6,,,78,127
44716,note_on,1,0,0,,6,,,78,127
44765,note_off,49,0,0,,6,,,78,127
44766,note_on,1,0,0,,4,,,76,127
44815,note_off,49,0,0,,4,,,76,127
44815,note_off,0,0,0,,2,,,62,127
44816,note_on,1,0,0,,6,,,78,127
44816,note_on,0,0,0,,2,,,62,127
44865,note_off,49,0,0,,6,,,78,127
44866,note_on,1,0,0,,4,,,76,127
44915,note_off,49,0,0,,2,,,62,127
44916,note_on,1,0,0,,8,,,68,127
45015,note_off,99,0,0,,8,,,68,127
45016,note_on,1,0,0,,12,,,71,127
45115,note_off,99,0,0,,12,,,71,127
45115,note_off,0,0,0,,4,,,76,127
45133,note_on,18,0,0,,1,,,61,127
45133,note_on,0,0,0,,4,,,76,127
45233,note_on,100,0,0,,10,,,69,127
45283,note_off,50,0,0,,1,,,61,127
45332,note_off,49,0,0,,4,,,76,127
45333,note_on,1,0,0,,12,,,59,127
45333,note_on,0,0,0,,2,,,74,127
45383,note_off,50,0,0,,10,,,69,127
45433,note_on,50,0,0,,8,,,68,127
45483,note_off,50,0,0,,12,,,59,127
45532,note_off,49,0,0,,2,,,74,127
45533,note_on,1,0,0,,10,,,57,127
45533,note_on,0,0,0,,1,,,73,127
45583,note_off,50,0,0,,8,,,68,127
45633,note_on,50,0,0,,6,,,66,127
45683,note_off,50,0,0,,10,,,57,127
45732,note_off,49,0,0,,1,,,73,127
45733,note_on,1,0,0,,8,,,56,127
45733,note_on,0,0,0,,12,,,71,127
45783,note_off,50,0,0,,6,,,66,127
45833,note_on,50,0,0,,4,,,64,127
45883,note_off,50,0,0,,8,,,56,127
45932,note_off,49,0,0,,12,,,71,127
45933,note_on,1,0,0,,6,,,54,127
45933,note_on,0,0,0,,10,,,69,127
45983,note_off,50,0,0,,4,,,64,127
46033,note_on,50,0,0,,2,,,62,127
46083,note_off,50,0,0,,6,,,54,127
46132,note_off,49,0,0,,10,,,69,127
46133,note_on,1,0,0,,4,,,52,127
46133,note_on,0,0,0,,8,,,68,127
46183,note_off,50,0,0,,2,,,62,127
46233,note_on,50,0,0,,1,,,61,127
46283,note_off,50,0,0,,4,,,52,127
46332,note_off,49,0,0,,8,,,68,127
46333,note_on,1,0,0,,2,,,50,127
46333,note_on,0,0,0,,6,,,66,127
46383,note_off,50,0,0,,1,,,61,127
46433,note_on,50,0,0,,12,,,59,127
46483,note_off,50,0,0,,2,,,50,127
46532,note_off,49,0,0,,6,,,66,127
46533,note_on,1,0,0,,1,,,49,127
46533,note_on,0,0,0,,4,,,64,127
46583,note_off,50,0,0,,12,,,59,127
46633,note_on,50,0,0,,10,,,57,127
46683,note_off,50,0,0,,1,,,49,127
46732,note_off,49,0,0,,4,,,64,127
46733,note_on,1,0,0,,12,,,47,127
46733,note_on,0,0,0,,2,,,62,127
46783,note_off,50,0,0,,10,,,57,127
46833,note_on,50,0,0,,8,,,56,127
46883,note_off,50,0,0,,12,,,47,127
46932,note_off,49,0,0,,2,,,62,127
46933,note_on,1,0,0,,10,,,45,127
46933,note_on,0,0,0,,1,,,61,127
46983,note_off,50,0,0,,8,,,56,127
47033,note_on,50,0,0,,10,,,57,127
47083,note_off,50,0,0,,10,,,45,127
47132,note_off,49,0,0,,1,,,61,127
47133,note_on,1,0,0,,8,,,44,127
47133,note_on,0,0,0,,12,,,59,127
47183,note_off,50,0,0,,10,,,57,127
47233,note_on,50,0,0,,8,,,56,127
47283,note_off,50,0,0,,8,,,44,127
47332,note_off,49,0,0,,12,,,59,127
47333,note_on,1,0,0,,6,,,42,127
47333,note_on,0,0,0,,10,,,57,127
47383,note_off,50,0,0,,8,,,56,127
47433,note_on,50,0,0,,6,,,54,127
47483,note_off,50,0,0,,6,,,42,127
47532,note_off,49,0,0,,10,,,57,127
47533,note_on,1,0,0,,4,,,40,127
47533,note_on,0,0,0,,6,,,66,127
47582,note_off,49,0,0,,6,,,66,127
47583,note_off,1,0,0,,6,,,54,127
47583,note_on,0,0,0,,4,,,64,127
47632,note_off,49,0,0,,4,,,64,127
47633,note_on,1,0,0,,6,,,66,127
47682,note_off,49,0,0,,6,,,66,127
47683,note_on,1,0,0,,4,,,64,127
47732,note_off,49,0,0,,4,,,64,127
47733,note_on,1,0,0,,6,,,66,127
47782,note_off,49,0,0,,6,,,66,127
47783,note_on,1,0,0,,4,,,64,127
47932,note_off,149,0,0,,4,,,40,127
47953,note_on,21,0,0,,4,,,52,127
48179,note_off,226,0,0,,4,,,64,127
48576,note_off,397,0,0,,4,,,52,127
48801,note_on,225,0,0,,5,,,65,127
49001,note_on,200,0,0,,5,,,77,127
49101,note_off,100,0,0,,5,,,65,127
49201,note_on,100,0,0,,2,,,62,127
49400,note_off,199,0,0,,2,,,62,127
49400,note_off,0,0,0,,5,,,77,127
49401,note_on,1,0,0,,3,,,75,127
49401,note_on,0,0,0,,4,,,52,127
49600,note_off,199,0,0,,4,,,52,127
49600,note_off,0,0,0,,3,,,75,127
49601,note_on,1,0,0,,4,,,76,127
49601,note_on,0,0,0,,0,,,60,127
49800,note_off,199,0,0,,0,,,60,127
49801,note_on,1,0,0,,12,,,59,127
50000,note_off,199,0,0,,12,,,59,127
50000,note_off,0,0,0,,4,,,76,127
50001,note_on,1,0,0,,1,,,73,127
50001,note_on,0,0,0,,4,,,52,127
50200,note_off,199,0,0,,1,,,73,127
50201,note_on,1,0,0,,2,,,74,127
50400,note_off,199,0,0,,2,,,74,127
50400,note_off,0,0,0,,4,,,52,127
50401,note_on,1,0,0,,4,,,76,127
50401,note_on,0,0,0,,8,,,56,127
50600,note_off,199,0,0,,8,,,56,127
50600,note_off,0,0,0,,4,,,76,127
50601,note_on,1,0,0,,2,,,74,127
50601,note_on,0,0,0,,10,,,57,127
50650,note_off,49,0,0,,2,,,74,127
50651,note_on,1,0,0,,0,,,72,127
50700,note_off,49,0,0,,0,,,72,127
50701,note_on,1,0,0,,2,,,74,127
50750,note_off,49,0,0,,2,,,74,127
50751,note_on,1,0,0,,0,,,72,127
50800,note_off,49,0,0,,0,,,72,127
50800,note_off,0,0,0,,10,,,57,127
50801,note_on,1,0,0,,2,,,74,127
50801,note_on,0,0,0,,4,,,52,127
50801,note_on,0,0,0,,4,,,40,127
50850,note_off,49,0,0,,2,,,74,127
50851,note_on,1,0,0,,0,,,72,127
50900,note_off,49,0,0,,0,,,72,127
50901,note_on,1,0,0,,2,,,74,127
50950,note_off,49,0,0,,2,,,74,127
50951,note_on,1,0,0,,0,,,72,127
51000,note_off,49,0,0,,0,,,72,127
51001,note_on,1,0,0,,12,,,71,127
51200,note_off,199,0,0,,12,,,71,127
51200,note_off,0,0,0,,4,,,40,127
51200,note_off,0,0,0,,4,,,52,127
51201,note_on,1,0,0,,5,,,65,127
51201,note_on,0,0,0,,4,,,52,127
51401,note_on,200,0,0,,5,,,77,127
51501,note_off,100,0,0,,5,,,65,127
51600,note_off,99,0,0,,4,,,52,127
51601,note_on,1,0,0,,2,,,62,127
51800,note_off,199,0,0,,2,,,62,127
51800,note_off,0,0,0,,5,,,77,127
51801,note_on,1,0,0,,3,,,75,127
51801,note_on,0,0,0,,4,,,52,127
52000,note_off,199,0,0,,4,,,52,127
52000,note_off,0,0,0,,3,,,75,127
52001,note_on,1,0,0,,4,,,76,127
52001,note_on,0,0,0,,0,,,60,127
52200,note_off,199,0,0,,0,,,60,127
52201,note_on,1,0,0,,12,,,59,127
52400,note_off,199,0,0,,12,,,59,127
52400,note_off,0,0,0,,4,,,76,127
52401,note_on,1,0,0,,1,,,73,127
52401,note_on,0,0,0,,4,,,52,127
52600,note_off,199,0,0,,1,,,73,127
52601,note_on,1,0,0,,2,,,74,127
52800,note_off,199,0,0,,2,,,74,127
52800,note_off,0,0,0,,4,,,52,127
52801,note_on,1,0,0,,4,,,76,127
52801,note_on,0,0,0,,8,,,56,127
53000,note_off,199,0,0,,8,,,56,127
53000,note_off,0,0,0,,4,,,76,127
53001,note_on,1,0,0,,2,,,74,127
53001,note_on,0,0,0,,10,,,57,127
53050,note_off,49,0,0,,2,,,74,127
53051,note_on,1,0,0,,0,,,72,127
53100,note_off,49,0,0,,0,,,72,127
53101,note_on,1,0,0,,2,,,74,127
53150,note_off,49,0,0,,2,,,74,127
53151,note_on,1,0,0,,0,,,72,127
53200,note_off,49,0,0,,0,,,72,127
53200,note_off,0,0,0,,10,,,57,127
53201,note_on,1,0,0,,2,,,74,127
53201,note_on,0,0,0,,4,,,52,127
53201,note_on,0,0,0,,4,,,40,127
53250,note_off,49,0,0,,2,,,74,127
53251,note_on,1,0,0,,0,,,72,127
53300,note_off,49,0,0,,0,,,72,127
53301,note_on,1,0,0,,2,,,74,127
53350,note_off,49,0,0,,2,,,74,127
53351,note_on,1,0,0,,0,,,72,127
53400,note_off,49,0,0,,0,,,72,127
53403,note_on,3,0,0,,12,,,71,127
53600,note_off,197,0,0,,4,,,40,127
53600,note_off,0,0,0,,4,,,52,127
53602,note_off,2,0,0,,12,,,71,127
53634,note_on,32,0,0,,3,,,75,127
53733,note_off,99,0,0,,3,,,75,127
53734,note_on,1,0,0,,4,,,76,127
53834,note_on,100,0,0,,3,,,63,127
53933,note_off,99,0,0,,3,,,63,127
53934,note_on,1,0,0,,4,,,64,127
54033,note_off,99,0,0,,4,,,76,127
54034,note_on,1,0,0,,3,,,51,127
54133,note_off,99,0,0,,3,,,51,127
54134,note_on,1,0,0,,4,,,52,127
54233,note_off,99,0,0,,4,,,52,127
54233,note_off,0,0,0,,4,,,64,127
54234,note_on,1,0,0,,12,,,71,127
54234,note_on,0,0,0,,2,,,74,127
54234,note_on,0,0,0,,4,,,52,127
54433,note_off,199,0,0,,4,,,52,127
54433,note_off,0,0,0,,2,,,74,127
54433,note_off,0,0,0,,12,,,71,127
54434,note_on,1,0,0,,10,,,69,127
54434,note_on,0,0,0,,0,,,72,127
54434,note_on,0,0,0,,4,,,40,127
54633,note_off,199,0,0,,4,,,40,127
54633,note_off,0,0,0,,0,,,72,127
54633,note_off,0,0,0,,10,,,69,127
54634,note_on,1,0,0,,8,,,68,127
54634,note_on,0,0,0,,12,,,71,127
54634,note_on,0,0,0,,4,,,40,127
54833,note_off,199,0,0,,4,,,40,127
54833,note_off,0,0,0,,12,,,71,127
54833,note_off,0,0,0,,8,,,68,127
54834,note_on,1,0,0,,3,,,75,127
54933,note_off,99,0,0,,3,,,75,127
54934,note_on,1,0,0,,4,,,76,127
55034,note_on,100,0,0,,3,,,63,127
55133,note_off,99,0,0,,3,,,63,127
55134,note_on,1,0,0,,4,,,64,127
55233,note_off,99,0,0,,4,,,76,127
55234,note_on,1,0,0,,3,,,51,127
55333,note_off,99,0,0,,3,,,51,127
55334,note_on,1,0,0,,4,,,52,127
55433,note_off,99,0,0,,4,,,52,127
55433,note_off,0,0,0,,4,,,64,127
55434,note_on,1,0,0,,12,,,71,127
55434,note_on,0,0,0,,2,,,74,127
55434,note_on,0,0,0,,4,,,52,127
55633,note_off,199,0,0,,4,,,52,127
55633,note_off,0,0,0,,2,,,74,127
55633,note_off,0,0,0,,12,,,71,127
55634,note_on,1,0,0,,10,,,69,127
55634,note_on,0,0,0,,0,,,72,127
55634,note_on,0,0,0,,4,,,40,127
55833,note_off,199,0,0,,4,,,40,127
55833,note_off,0,0,0,,0,,,72,127
55833,note_off,0,0,0,,10,,,69,127
55834,note_on,1,0,0,,8,,,68,127
55834,note_on,0,0,0,,12,,,71,127
55834,note_on,0,0,0,,4,,,40,127
56033,note_off,199,0,0,,4,,,40,127
56042,note_off,9,0,0,,8,,,68,127
56063,note_off,21,0,0,,12,,,71,127
56067,note_on,4,0,0,,10,,,81,127
56067,note_on,0,0,0,,2,,,74,127
56167,note_on,100,0,0,,12,,,71,127
56266,note_off,99,0,0,,12,,,71,127
56267,note_on,1,0,0,,8,,,68,127
56366,note_off,99,0,0,,8,,,68,127
56367,note_on,1,0,0,,2,,,62,127
56466,note_off,99,0,0,,2,,,62,127
56466,note_off,0,0,0,,2,,,74,127
56466,note_off,0,0,0,,10,,,81,127
56467,note_on,1,0,0,,8,,,80,127
56467,note_on,0,0,0,,2,,,50,127
56666,note_off,199,0,0,,8,,,80,127
56667,note_on,1,0,0,,8,,,80,127
56667,note_on,0,0,0,,2,,,74,127
56766,note_off,99,0,0,,2,,,50,127
56767,note_on,1,0,0,,10,,,69,127
56866,note_off,99,0,0,,10,,,69,127
56867,note_on,1,0,0,,4,,,64,127
56966,note_off,99,0,0,,4,,,64,127
56967,note_on,1,0,0,,0,,,60,127
57066,note_off,99,0,0,,0,,,60,127
57066,note_off,0,0,0,,2,,,74,127
57066,note_off,0,0,0,,8,,,80,127
57067,note_on,1,0,0,,10,,,81,127
57067,note_on,0,0,0,,0,,,48,127
57266,note_off,199,0,0,,10,,,81,127
57267,note_on,1,0,0,,10,,,81,127
57267,note_on,0,0,0,,2,,,74,127
57366,note_off,99,0,0,,0,,,48,127
57367,note_on,1,0,0,,12,,,71,127
57466,note_off,99,0,0,,12,,,71,127
57467,note_on,1,0,0,,8,,,68,127
57566,note_off,99,0,0,,8,,,68,127
57567,note_on,1,0,0,,2,,,62,127
57666,note_off,99,0,0,,2,,,62,127
57666,note_off,0,0,0,,2,,,74,127
57666,note_off,0,0,0,,10,,,81,127
57667,note_on,1,0,0,,12,,,83,127
57667,note_on,0,0,0,,12,,,47,127
57866,note_off,199,0,0,,12,,,83,127
57867,note_on,1,0,0,,4,,,76,127
57867,note_on,0,0,0,,0,,,84,127
57966,note_off,99,0,0,,12,,,47,127
57967,note_on,1,0,0,,10,,,69,127
58066,note_off,99,0,0,,10,,,69,127
58067,note_on,1,0,0,,4,,,64,127
58166,note_off,99,0,0,,4,,,64,127
58167,note_on,1,0,0,,0,,,60,127
58266,note_off,99,0,0,,0,,,60,127
58267,note_on,1,0,0,,10,,,45,127
58466,note_off,199,0,0,,10,,,45,127
58466,note_off,0,0,0,,0,,,84,127
58466,note_off,0,0,0,,4,,,76,127
58467,note_on,1,0,0,,5,,,77,127
58467,note_on,0,0,0,,2,,,50,127
58567,note_on,100,0,0,,2,,,86,127
58665,note_off,98,0,0,,5,,,77,127
58666,note_off,1,0,0,,2,,,86,127
58667,note_on,1,0,0,,0,,,84,127
58766,note_off,99,0,0,,0,,,84,127
58767,note_on,1,0,0,,12,,,83,127
58866,note_off,99,0,0,,12,,,83,127
58866,note_off,0,0,0,,2,,,50,127
58867,note_on,1,0,0,,10,,,81,127
58867,note_on,0,0,0,,2,,,62,127
58966,note_off,99,0,0,,10,,,81,127
58967,note_on,1,0,0,,8,,,80,127
59066,note_off,99,0,0,,8,,,80,127
59066,note_off,0,0,0,,2,,,62,127
59067,note_on,1,0,0,,10,,,81,127
59067,note_on,0,0,0,,0,,,60,127
59166,note_off,99,0,0,,10,,,81,127
59167,note_on,1,0,0,,5,,,77,127
59266,note_off,99,0,0,,5,,,77,127
59267,note_on,1,0,0,,4,,,76,127
59366,note_off,99,0,0,,4,,,76,127
59367,note_on,1,0,0,,2,,,74,127
59466,note_off,99,0,0,,2,,,74,127
59466,note_off,0,0,0,,0,,,60,127
59467,note_on,1,0,0,,0,,,72,127
59467,note_on,0,0,0,,5,,,65,127
59566,note_off,99,0,0,,0,,,72,127
59567,note_on,1,0,0,,12,,,71,127
59666,note_off,99,0,0,,12,,,71,127
59666,note_off,0,0,0,,5,,,65,127
59667,note_on,1,0,0,,10,,,69,127
59667,note_on,0,0,0,,2,,,62,127
59766,note_off,99,0,0,,10,,,69,127
59767,note_on,1,0,0,,2,,,74,127
59866,note_off,99,0,0,,2,,,74,127
59867,note_on,1,0,0,,0,,,72,127
59966,note_off,99,0,0,,0,,,72,127
59967,note_on,1,0,0,,12,,,71,127
60066,note_off,99,0,0,,12,,,71,127
60066,note_off,0,0,0,,2,,,62,127
60067,note_on,1,0,0,,10,,,69,127
60067,note_on,0,0,0,,4,,,64,127
60166,note_off,99,0,0,,10,,,69,127
60167,note_on,1,0,0,,8,,,68,127
60266,note_off,99,0,0,,8,,,68,127
60266,note_off,0,0,0,,4,,,64,127
60267,note_on,1,0,0,,8,,,68,127
60267,note_on,0,0,0,,10,,,57,127
60467,note_on,200,0,0,,10,,,45,127
60666,note_off,199,0,0,,8,,,68,127
60673,note_on,7,0,0,,10,,,69,127
60866,note_off,193,0,0,,10,,,45,127
60866,note_off,0,0,0,,10,,,57,127
60923,note_on,57,0,0,,3,,,75,127
60928,note_off,5,0,0,,10,,,69,127
61022,note_off,94,0,0,,3,,,75,127
61023,note_on,1,0,0,,4,,,76,127
61123,note_on,100,0,0,,3,,,63,127
61222,note_off,99,0,0,,3,,,63,127
61223,note_on,1,0,0,,4,,,64,127
61322,note_off,99,0,0,,4,,,76,127
61323,note_on,1,0,0,,3,,,51,127
61422,note_off,99,0,0,,3,,,51,127
61423,note_on,1,0,0,,4,,,52,127
61522,note_off,99,0,0,,4,,,52,127
61522,note_off,0,0,0,,4,,,64,127
61523,note_on,1,0,0,,4,,,52,127
61523,note_on,0,0,0,,12,,,71,127
61523,note_on,0,0,0,,2,,,74,127
61722,note_off,199,0,0,,2,,,74,127
61722,note_off,0,0,0,,12,,,71,127
61722,note_off,0,0,0,,4,,,52,127
61723,note_on,1,0,0,,4,,,40,127
61723,note_on,0,0,0,,0,,,72,127
61723,note_on,0,0,0,,10,,,69,127
61922,note_off,199,0,0,,10,,,69,127
61922,note_off,0,0,0,,0,,,72,127
61922,note_off,0,0,0,,4,,,40,127
61923,note_on,1,0,0,,4,,,40,127
61923,note_on,0,0,0,,8,,,68,127
61923,note_on,0,0,0,,12,,,71,127
62122,note_off,199,0,0,,12,,,71,127
62122,note_off,0,0,0,,8,,,68,127
62122,note_off,0,0,0,,4,,,40,127
62123,note_on,1,0,0,,3,,,75,127
62222,note_off,99,0,0,,3,,,75,127
62223,note_on,1,0,0,,4,,,76,127
62323,note_on,100,0,0,,3,,,63,127
62422,note_off,99,0,0,,3,,,63,127
62423,note_on,1,0,0,,4,,,64,127
62522,note_off,99,0,0,,4,,,76,127
62523,note_on,1,0,0,,3,,,51,127
62622,note_off,99,0,0,,3,,,51,127
62623,note_on,1,0,0,,4,,,52,127
62722,note_off,99,0,0,,4,,,52,127
62722,note_off,0,0,0,,4,,,64,127
62723,note_on,1,0,0,,4,,,52,127
62723,note_on,0,0,0,,2,,,74,127
62723,note_on,0,0,0,,12,,,71,127
62922,note_off,199,0,0,,12,,,71,127
62922,note_off,0,0,0,,2,,,74,127
62922,note_off,0,0,0,,4,,,52,127
62923,note_on,1,0,0,,4,,,40,127
62923,note_on,0,0,0,,10,,,69,127
62923,note_on,0,0,0,,0,,,72,127
63122,note_off,199,0,0,,0,,,72,127
63122,note_off,0,0,0,,10,,,69,127
63122,note_off,0,0,0,,4,,,40,127
63123,note_on,1,0,0,,4,,,40,127
63123,note_on,0,0,0,,12,,,71,127
63123,note_on,0,0,0,,8,,,68,127
63322,note_off,199,0,0,,8,,,68,127
63322,note_off,0,0,0,,12,,,71,127
63322,note_off,0,0,0,,4,,,40,127
63340,note_on,18,0,0,,10,,,81,127
63340,note_on,0,0,0,,2,,,74,127
63440,note_on,100,0,0,,12,,,71,127
63539,note_off,99,0,0,,12,,,71,127
63540,note_on,1,0,0,,8,,,68,127
63639,note_off,99,0,0,,8,,,68,127
63640,note_on,1,0,0,,2,,,62,127
63739,note_off,99,0,0,,2,,,62,127
63739,note_off,0,0,0,,2,,,74,127
63739,note_off,0,0,0,,10,,,81,127
63740,note_on,1,0,0,,8,,,80,127
63740,note_on,0,0,0,,2,,,50,127
63939,note_off,199,0,0,,8,,,80,127
63940,note_on,1,0,0,,8,,,80,127
63940,note_on,0,0,0,,2,,,74,127
64039,note_off,99,0,0,,2,,,50,127
64040,note_on,1,0,0,,10,,,69,127
64139,note_off,99,0,0,,10,,,69,127
64140,note_on,1,0,0,,4,,,64,127
64239,note_off,99,0,0,,4,,,64,127
64240,note_on,1,0,0,,0,,,60,127
64339,note_off,99,0,0,,0,,,60,127
64339,note_off,0,0,0,,2,,,74,127
64339,note_off,0,0,0,,8,,,80,127
64340,note_on,1,0,0,,10,,,81,127
64340,note_on,0,0,0,,0,,,48,127
64539,note_off,199,0,0,,10,,,81,127
64540,note_on,1,0,0,,10,,,81,127
64540,note_on,0,0,0,,2,,,74,127
64639,note_off,99,0,0,,0,,,48,127
64640,note_on,1,0,0,,12,,,71,127
64739,note_off,99,0,0,,12,,,71,127
64740,note_on,1,0,0,,8,,,68,127
64839,note_off,99,0,0,,8,,,68,127
64840,note_on,1,0,0,,2,,,62,127
64939,note_off,99,0,0,,2,,,62,127
64939,note_off,0,0,0,,2,,,74,127
64939,note_off,0,0,0,,10,,,81,127
64940,note_on,1,0,0,,12,,,83,127
64940,note_on,0,0,0,,12,,,47,127
65139,note_off,199,0,0,,12,,,83,127
65140,note_on,1,0,0,,4,,,76,127
65140,note_on,0,0,0,,0,,,84,127
65239,note_off,99,0,0,,12,,,47,127
65240,note_on,1,0,0,,10,,,69,127
65339,note_off,99,0,0,,10,,,69,127
65340,note_on,1,0,0,,4,,,64,127
65439,note_off,99,0,0,,4,,,64,127
65440,note_on,1,0,0,,0,,,60,127
65539,note_off,99,0,0,,0,,,60,127
65540,note_on,1,0,0,,10,,,45,127
65739,note_off,199,0,0,,10,,,45,127
65739,note_off,0,0,0,,0,,,84,127
65739,note_off,0,0,0,,4,,,76,127
65740,note_on,1,0,0,,5,,,77,127
65740,note_on,0,0,0,,2,,,50,127
65840,note_on,100,0,0,,2,,,86,127
65938,note_off,98,0,0,,5,,,77,127
65939,note_off,1,0,0,,2,,,86,127
65940,note_on,1,0,0,,0,,,84,127
66039,note_off,99,0,0,,0,,,84,127
66040,note_on,1,0,0,,12,,,83,127
66139,note_off,99,0,0,,12,,,83,127
66139,note_off,0,0,0,,2,,,50,127
66140,note_on,1,0,0,,10,,,81,127
66140,note_on,0,0,0,,2,,,62,127
66239,note_off,99,0,0,,10,,,81,127
66240,note_on,1,0,0,,8,,,80,127
66339,note_off,99,0,0,,8,,,80,127
66339,note_off,0,0,0,,2,,,62,127
66340,note_on,1,0,0,,10,,,81,127
66340,note_on,0,0,0,,0,,,60,127
66440,note_on,100,0,0,,5,,,77,127
66465,note_off,25,0,0,,10,,,81,127
66539,note_off,74,0,0,,5,,,77,127
66540,note_on,1,0,0,,4,,,76,127
66639,note_off,99,0,0,,4,,,76,127
66640,note_on,1,0,0,,2,,,74,127
66739,note_off,99,0,0,,2,,,74,127
66739,note_off,0,0,0,,0,,,60,127
66740,note_on,1,0,0,,0,,,72,127
66740,note_on,0,0,0,,5,,,65,127
66839,note_off,99,0,0,,0,,,72,127
66840,note_on,1,0,0,,12,,,71,127
66939,note_off,99,0,0,,12,,,71,127
66939,note_off,0,0,0,,5,,,65,127
66940,note_on,1,0,0,,10,,,69,127
66940,note_on,0,0,0,,2,,,62,127
67039,note_off,99,0,0,,10,,,69,127
67040,note_on,1,0,0,,2,,,74,127
67139,note_off,99,0,0,,2,,,74,127
67140,note_on,1,0,0,,0,,,72,127
67239,note_off,99,0,0,,0,,,72,127
67240,note_on,1,0,0,,12,,,71,127
67339,note_off,99,0,0,,12,,,71,127
67339,note_off,0,0,0,,2,,,62,127
67340,note_on,1,0,0,,10,,,69,127
67340,note_on,0,0,0,,4,,,64,127
67439,note_off,99,0,0,,10,,,69,127
67440,note_on,1,0,0,,8,,,68,127
67539,note_off,99,0,0,,8,,,68,127
67539,note_off,0,0,0,,4,,,64,127
67540,note_on,1,0,0,,10,,,69,127
67540,note_on,0,0,0,,10,,,45,127
67639,note_off,99,0,0,,10,,,69,127
67640,note_on,1,0,0,,5,,,65,127
67739,note_off,99,0,0,,5,,,65,127
67739,note_off,0,0,0,,10,,,45,127
67740,note_on,1,0,0,,4,,,64,127
67740,note_on,0,0,0,,12,,,47,127
67839,note_off,99,0,0,,4,,,64,127
67840,note_on,1,0,0,,2,,,62,127
67939,note_off,99,0,0,,2,,,62,127
67939,note_off,0,0,0,,12,,,47,127
67940,note_on,1,0,0,,0,,,60,127
67940,note_on,0,0,0,,0,,,48,127
68039,note_off,99,0,0,,0,,,60,127
68040,note_on,1,0,0,,12,,,59,127
68139,note_off,99,0,0,,12,,,59,127
68139,note_off,0,0,0,,0,,,48,127
68140,note_on,1,0,0,,10,,,57,127
68140,note_on,0,0,0,,2,,,50,127
68239,note_off,99,0,0,,10,,,57,127
68240,note_on,1,0,0,,2,,,62,127
68339,note_off,99,0,0,,2,,,62,127
68339,note_off,0,0,0,,2,,,50,127
68340,note_on,1,0,0,,0,,,60,127
68340,note_on,0,0,0,,4,,,52,127
68439,note_off,99,0,0,,0,,,60,127
68440,note_on,1,0,0,,12,,,59,127
68539,note_off,99,0,0,,12,,,59,127
68540,note_on,1,0,0,,10,,,57,127
68540,note_on,0,0,0,,4,,,40,127
68639,note_off,99,0,0,,10,,,57,127
68640,note_on,1,0,0,,8,,,56,127
68739,note_off,99,0,0,,4,,,40,127
68739,note_off,0,0,0,,4,,,52,127
68746,note_off,7,0,0,,8,,,56,127
68748,note_on,2,0,0,,8,,,56,127
68748,note_on,0,0,0,,10,,,45,127
69305,note_off,557,0,0,,8,,,56,127
69305,note_on,0,0,0,,10,,,57,127
70808,note_off,1503,0,0,,10,,,57,127
70808,note_off,0,0,0,,10,,,45,127
75264,end_of_track,4456,1,0,,,,,,
