tick,type,time,meta,track,program,channel,pitch,tempo,note,velocity
0,copyright,0,1,0,,,,,,
0,program_change,0,0,0,6,0,,,,
0,pitchwheel,0,0,0,,0,0,,,
0,program_change,0,0,0,6,1,,,,
0,pitchwheel,0,0,0,,1,-590,,,
0,program_change,0,0,0,6,2,,,,
0,pitchwheel,0,0,0,,2,-272,,,
0,program_change,0,0,0,6,3,,,,
0,pitchwheel,0,0,0,,3,-353,,,
0,program_change,0,0,0,6,4,,,,
0,pitchwheel,0,0,0,,4,-560,,,
0,program_change,0,0,0,6,5,,,,
0,pitchwheel,0,0,0,,5,-80,,,
0,program_change,0,0,0,6,6,,,,
0,pitchwheel,0,0,0,,6,-625,,,
0,program_change,0,0,0,6,7,,,,
0,pitchwheel,0,0,0,,7,-130,,,
0,program_change,0,0,0,6,8,,,,
0,pitchwheel,0,0,0,,8,-512,,,
0,program_change,0,0,0,6,10,,,,
0,pitchwheel,0,0,0,,10,-464,,,
0,program_change,0,0,0,6,11,,,,
0,pitchwheel,0,0,0,,11,-208,,,
0,program_change,0,0,0,6,12,,,,
0,pitchwheel,0,0,0,,12,-553,,,
0,set_tempo,0,1,0,,,,500000,,
128,note_on,128,0,0,,5,,,77,127
235,note_off,107,0,0,,5,,,77,127
256,note_on,21,0,0,,5,,,77,127
640,note_on,384,0,0,,5,,,65,127
767,note_off,127,0,0,,5,,,65,127
768,note_on,1,0,0,,5,,,65,127
895,note_off,127,0,0,,5,,,77,127
896,note_on,1,0,0,,7,,,79,127
1023,note_off,127,0,0,,7,,,79,127
1024,note_on,1,0,0,,8,,,80,127
1151,note_off,127,0,0,,8,,,80,127
1152,note_on,1,0,0,,0,,,72,127
1279,note_off,127,0,0,,0,,,72,127
1280,note_on,1,0,0,,1,,,73,127
1407,note_off,127,0,0,,1,,,73,127
1408,note_on,1,0,0,,5,,,77,127
1535,note_off,127,0,0,,5,,,77,127
1535,note_off,0,0,0,,5,,,65,127
1536,note_on,1,0,0,,4,,,76,127
1536,note_on,0,0,0,,7,,,67,127
1663,note_off,127,0,0,,4,,,76,127
1664,note_on,1,0,0,,11,,,70,127
1791,note_off,127,0,0,,11,,,70,127
1791,note_off,0,0,0,,7,,,67,127
1792,note_on,1,0,0,,0,,,72,127
1792,note_on,0,0,0,,8,,,68,127
1919,note_off,127,0,0,,8,,,68,127
1919,note_off,0,0,0,,0,,,72,127
1920,note_on,1,0,0,,5,,,77,127
1920,note_on,0,0,0,,5,,,65,127
2047,note_off,127,0,0,,5,,,65,127
2047,note_off,0,0,0,,5,,,77,127
2048,note_on,1,0,0,,11,,,70,127
2048,note_on,0,0,0,,7,,,67,127
2175,note_off,127,0,0,,7,,,67,127
2176,note_on,1,0,0,,0,,,60,127
2303,note_off,127,0,0,,0,,,60,127
2304,note_on,1,0,0,,5,,,65,127
2368,note_off,64,0,0,,11,,,70,127
2432,note_on,64,0,0,,8,,,68,127
2559,note_off,127,0,0,,8,,,68,127
2559,note_off,0,0,0,,5,,,65,127
2560,note_on,1,0,0,,5,,,77,127
2560,note_on,0,0,0,,1,,,61,127
2687,note_off,127,0,0,,5,,,77,127
2688,note_on,1,0,0,,11,,,70,127
2815,note_off,127,0,0,,11,,,70,127
2815,note_off,0,0,0,,1,,,61,127
2816,note_on,1,0,0,,0,,,72,127
2816,note_on,0,0,0,,0,,,60,127
2943,note_off,127,0,0,,0,,,72,127
2944,note_on,1,0,0,,4,,,76,127
2944,note_on,0,0,0,,7,,,67,127
3071,note_off,127,0,0,,7,,,67,127
3071,note_off,0,0,0,,4,,,76,127
3072,note_on,1,0,0,,7,,,79,127
3072,note_on,0,0,0,,4,,,64,127
3197,note_off,125,0,0,,0,,,60,127
3198,note_off,1,0,0,,4,,,64,127
3198,note_off,0,0,0,,7,,,79,127
3199,note_on,1,0,0,,11,,,70,127
3199,note_on,0,0,0,,0,,,60,127
3326,note_off,127,0,0,,0,,,60,127
3327,note_on,1,0,0,,5,,,65,127
3454,note_off,127,0,0,,11,,,70,127
3455,note_on,1,0,0,,8,,,68,127
3582,note_off,127,0,0,,8,,,68,127
3582,note_off,0,0,0,,5,,,65,127
3583,note_on,1,0,0,,5,,,77,127
3583,note_on,0,0,0,,1,,,61,127
3710,note_off,127,0,0,,5,,,77,127
3711,note_on,1,0,0,,11,,,70,127
3838,note_off,127,0,0,,11,,,70,127
3838,note_off,0,0,0,,1,,,61,127
3839,note_on,1,0,0,,0,,,72,127
3839,note_on,0,0,0,,0,,,60,127
3966,note_off,127,0,0,,0,,,72,127
3967,note_on,1,0,0,,4,,,76,127
3967,note_on,0,0,0,,7,,,67,127
4094,note_off,127,0,0,,7,,,67,127
4094,note_off,0,0,0,,4,,,76,127
4095,note_on,1,0,0,,7,,,79,127
4095,note_on,0,0,0,,4,,,64,127
4220,note_off,125,0,0,,0,,,60,127
4221,note_off,1,0,0,,4,,,64,127
4221,note_off,0,0,0,,7,,,79,127
4222,note_on,1,0,0,,11,,,70,127
4222,note_on,0,0,0,,0,,,60,127
4349,note_off,127,0,0,,0,,,60,127
4350,note_on,1,0,0,,5,,,65,127
4477,note_off,127,0,0,,11,,,70,127
4478,note_on,1,0,0,,8,,,68,127
4605,note_off,127,0,0,,8,,,68,127
4605,note_off,0,0,0,,5,,,65,127
4606,note_on,1,0,0,,5,,,77,127
4606,note_on,0,0,0,,1,,,61,127
4733,note_off,127,0,0,,5,,,77,127
4734,note_on,1,0,0,,11,,,70,127
4861,note_off,127,0,0,,11,,,70,127
4861,note_off,0,0,0,,1,,,61,127
4862,note_on,1,0,0,,0,,,72,127
4862,note_on,0,0,0,,0,,,60,127
4989,note_off,127,0,0,,0,,,60,127
4989,note_off,0,0,0,,0,,,72,127
4990,note_on,1,0,0,,4,,,76,127
4990,note_on,0,0,0,,7,,,67,127
5117,note_off,127,0,0,,7,,,67,127
5117,note_off,0,0,0,,4,,,76,127
5118,note_on,1,0,0,,7,,,79,127
5118,note_on,0,0,0,,4,,,64,127
5245,note_off,127,0,0,,4,,,64,127
5246,note_on,1,0,0,,11,,,70,127
5246,note_on,0,0,0,,0,,,60,127
5278,note_off,32,0,0,,7,,,79,127
5373,note_off,95,0,0,,0,,,60,127
5373,note_off,0,0,0,,11,,,70,127
5374,note_on,1,0,0,,8,,,68,127
5374,note_on,0,0,0,,5,,,65,127
5501,note_off,127,0,0,,8,,,68,127
5502,note_on,1,0,0,,5,,,77,127
5629,note_off,127,0,0,,5,,,77,127
5629,note_off,0,0,0,,5,,,65,127
5630,note_on,1,0,0,,11,,,70,127
5630,note_on,0,0,0,,4,,,64,127
5757,note_off,127,0,0,,11,,,70,127
5758,note_on,1,0,0,,7,,,79,127
5885,note_off,127,0,0,,7,,,79,127
5885,note_off,0,0,0,,4,,,64,127
5886,note_on,1,0,0,,0,,,72,127
5886,note_on,0,0,0,,5,,,65,127
6013,note_off,127,0,0,,0,,,72,127
6014,note_on,1,0,0,,8,,,80,127
6141,note_off,127,0,0,,8,,,80,127
6141,note_off,0,0,0,,5,,,65,127
6142,note_on,1,0,0,,1,,,73,127
6142,note_on,0,0,0,,1,,,61,127
6269,note_off,127,0,0,,1,,,73,127
6270,note_on,1,0,0,,11,,,82,127
6397,note_off,127,0,0,,1,,,61,127
6398,note_on,1,0,0,,0,,,72,127
6398,note_on,0,0,0,,0,,,60,127
6523,note_off,125,0,0,,11,,,82,127
6524,note_off,1,0,0,,0,,,72,127
6525,note_on,1,0,0,,8,,,80,127
6652,note_off,127,0,0,,8,,,80,127
6652,note_off,0,0,0,,0,,,60,127
6653,note_on,1,0,0,,7,,,79,127
6653,note_on,0,0,0,,11,,,58,127
6780,note_off,127,0,0,,7,,,79,127
6781,note_on,1,0,0,,4,,,76,127
6908,note_off,127,0,0,,4,,,76,127
6908,note_off,0,0,0,,11,,,58,127
6909,note_on,1,0,0,,8,,,68,127
6909,note_on,0,0,0,,8,,,56,127
6909,note_on,0,0,0,,0,,,60,127
7036,note_off,127,0,0,,8,,,68,127
7037,note_on,1,0,0,,5,,,77,127
7164,note_off,127,0,0,,5,,,77,127
7164,note_off,0,0,0,,0,,,60,127
7164,note_off,0,0,0,,8,,,56,127
7165,note_on,1,0,0,,11,,,70,127
7165,note_on,0,0,0,,11,,,58,127
7165,note_on,0,0,0,,7,,,55,127
7292,note_off,127,0,0,,11,,,70,127
7293,note_on,1,0,0,,7,,,79,127
7420,note_off,127,0,0,,7,,,79,127
7420,note_off,0,0,0,,7,,,55,127
7420,note_off,0,0,0,,11,,,58,127
7421,note_on,1,0,0,,0,,,72,127
7421,note_on,0,0,0,,5,,,53,127
7421,note_on,0,0,0,,8,,,56,127
7548,note_off,127,0,0,,0,,,72,127
7549,note_on,1,0,0,,8,,,80,127
7676,note_off,127,0,0,,8,,,80,127
7676,note_off,0,0,0,,8,,,56,127
7676,note_off,0,0,0,,5,,,53,127
7677,note_on,1,0,0,,1,,,73,127
7677,note_on,0,0,0,,11,,,58,127
7804,note_off,127,0,0,,1,,,73,127
7805,note_on,1,0,0,,11,,,82,127
7932,note_off,127,0,0,,11,,,58,127
7933,note_on,1,0,0,,0,,,72,127
7933,note_on,0,0,0,,0,,,60,127
8058,note_off,125,0,0,,11,,,82,127
8059,note_off,1,0,0,,0,,,72,127
8060,note_on,1,0,0,,8,,,80,127
8187,note_off,127,0,0,,8,,,80,127
8187,note_off,0,0,0,,0,,,60,127
8188,note_on,1,0,0,,7,,,79,127
8188,note_on,0,0,0,,0,,,48,127
8315,note_off,127,0,0,,7,,,79,127
8316,note_on,1,0,0,,4,,,76,127
8443,note_off,127,0,0,,4,,,76,127
8443,note_off,0,0,0,,0,,,48,127
8444,note_on,1,0,0,,5,,,77,127
8444,note_on,0,0,0,,5,,,53,127
8444,note_on,0,0,0,,5,,,41,127
8572,note_on,128,0,0,,0,,,84,127
8697,note_off,125,0,0,,5,,,77,127
8698,note_off,1,0,0,,0,,,84,127
8699,note_on,1,0,0,,1,,,85,127
8826,note_off,127,0,0,,1,,,85,127
8827,note_on,1,0,0,,11,,,82,127
8954,note_off,127,0,0,,11,,,82,127
8955,note_on,1,0,0,,0,,,84,127
9082,note_off,127,0,0,,5,,,41,127
9082,note_off,0,0,0,,5,,,53,127
9083,note_on,1,0,0,,0,,,72,127
9210,note_off,127,0,0,,0,,,72,127
9211,note_on,1,0,0,,1,,,73,127
9338,note_off,127,0,0,,1,,,73,127
9339,note_on,1,0,0,,11,,,70,127
9466,note_off,127,0,0,,11,,,70,127
9467,note_on,1,0,0,,0,,,72,127
9594,note_off,127,0,0,,0,,,72,127
9594,note_off,0,0,0,,0,,,84,127
9595,note_on,1,0,0,,4,,,76,127
9595,note_on,0,0,0,,7,,,67,127
9722,note_off,127,0,0,,7,,,67,127
9722,note_off,0,0,0,,4,,,76,127
9723,note_on,1,0,0,,5,,,77,127
9723,note_on,0,0,0,,8,,,68,127
9850,note_off,127,0,0,,8,,,68,127
9850,note_off,0,0,0,,5,,,77,127
9851,note_on,1,0,0,,7,,,79,127
9851,note_on,0,0,0,,4,,,64,127
9978,note_off,127,0,0,,4,,,64,127
9978,note_off,0,0,0,,7,,,79,127
9979,note_on,1,0,0,,0,,,72,127
9979,note_on,0,0,0,,5,,,65,127
10106,note_off,127,0,0,,5,,,65,127
10107,note_on,1,0,0,,0,,,60,127
10234,note_off,127,0,0,,0,,,60,127
10235,note_on,1,0,0,,1,,,61,127
10362,note_off,127,0,0,,1,,,61,127
10363,note_on,1,0,0,,11,,,58,127
10486,note_off,123,0,0,,0,,,72,127
10490,note_off,4,0,0,,11,,,58,127
10491,note_on,1,0,0,,0,,,60,127
10618,note_off,127,0,0,,0,,,60,127
10619,note_on,1,0,0,,1,,,73,127
10619,note_on,0,0,0,,7,,,55,127
10660,note_off,41,0,0,,1,,,73,127
10661,note_on,1,0,0,,0,,,72,127
10702,note_off,41,0,0,,0,,,72,127
10703,note_on,1,0,0,,1,,,73,127
10744,note_off,41,0,0,,1,,,73,127
10744,note_off,0,0,0,,7,,,55,127
10745,note_on,1,0,0,,0,,,72,127
10745,note_on,0,0,0,,8,,,56,127
10872,note_off,127,0,0,,8,,,56,127
10873,note_off,1,0,0,,0,,,72,127
10873,note_on,0,0,0,,4,,,52,127
11000,note_off,127,0,0,,4,,,52,127
11001,note_on,1,0,0,,5,,,53,127
11128,note_off,127,0,0,,5,,,53,127
11129,note_on,1,0,0,,1,,,73,127
11129,note_on,0,0,0,,0,,,48,127
11170,note_off,41,0,0,,1,,,73,127
11171,note_on,1,0,0,,0,,,72,127
11212,note_off,41,0,0,,0,,,72,127
11213,note_on,1,0,0,,1,,,73,127
11254,note_off,41,0,0,,1,,,73,127
11254,note_off,0,0,0,,0,,,48,127
11255,note_on,1,0,0,,0,,,72,127
11255,note_on,0,0,0,,1,,,49,127
11382,note_off,127,0,0,,1,,,49,127
11383,note_off,1,0,0,,0,,,72,127
11383,note_on,0,0,0,,11,,,46,127
11510,note_off,127,0,0,,11,,,46,127
11511,note_on,1,0,0,,0,,,48,127
11638,note_off,127,0,0,,0,,,48,127
11639,note_on,1,0,0,,1,,,73,127
11639,note_on,0,0,0,,7,,,43,127
11680,note_off,41,0,0,,1,,,73,127
11681,note_on,1,0,0,,0,,,72,127
11722,note_off,41,0,0,,0,,,72,127
11723,note_on,1,0,0,,1,,,73,127
11764,note_off,41,0,0,,1,,,73,127
11764,note_off,0,0,0,,7,,,43,127
11765,note_on,1,0,0,,0,,,72,127
11765,note_on,0,0,0,,8,,,44,127
11892,note_off,127,0,0,,8,,,44,127
11893,note_off,1,0,0,,0,,,72,127
11893,note_on,0,0,0,,4,,,40,127
12020,note_off,127,0,0,,4,,,40,127
12021,note_on,1,0,0,,5,,,41,127
12149,note_on,128,0,0,,1,,,73,127
12190,note_off,41,0,0,,1,,,73,127
12191,note_on,1,0,0,,0,,,72,127
12275,note_off,84,0,0,,5,,,41,127
12276,note_on,1,0,0,,3,,,39,127
12319,note_off,43,0,0,,0,,,72,127
12404,note_on,85,0,0,,1,,,73,127
12445,note_off,41,0,0,,1,,,73,127
12446,note_on,1,0,0,,0,,,72,127
12530,note_off,84,0,0,,0,,,72,127
12530,note_off,0,0,0,,3,,,39,127
12531,note_on,1,0,0,,11,,,70,127
12531,note_on,0,0,0,,1,,,37,127
12658,note_off,127,0,0,,11,,,70,127
12659,note_on,1,0,0,,8,,,68,127
12786,note_off,127,0,0,,8,,,68,127
12787,note_on,1,0,0,,7,,,67,127
12914,note_off,127,0,0,,7,,,67,127
12915,note_on,1,0,0,,5,,,65,127
13042,note_off,127,0,0,,5,,,65,127
13042,note_off,0,0,0,,1,,,37,127
13043,note_on,1,0,0,,0,,,72,127
13043,note_on,0,0,0,,0,,,36,127
13170,note_off,127,0,0,,0,,,72,127
13171,note_on,1,0,0,,7,,,67,127
13298,note_off,127,0,0,,7,,,67,127
13299,note_on,1,0,0,,4,,,64,127
13426,note_off,127,0,0,,4,,,64,127
13427,note_on,1,0,0,,0,,,60,127
13554,note_off,127,0,0,,0,,,60,127
13555,note_on,1,0,0,,7,,,55,127
13682,note_off,127,0,0,,7,,,55,127
13683,note_on,1,0,0,,4,,,52,127
13810,note_off,127,0,0,,4,,,52,127
13810,note_off,0,0,0,,0,,,36,127
13811,note_on,1,0,0,,0,,,48,127
13938,note_off,127,0,0,,0,,,48,127
13939,note_on,1,0,0,,7,,,43,127
14066,note_off,127,0,0,,7,,,43,127
14067,note_on,1,0,0,,0,,,36,127
14578,note_off,511,0,0,,0,,,36,127
14579,note_on,1,0,0,,0,,,36,127
14963,note_on,384,0,0,,7,,,79,127
14963,note_on,0,0,0,,4,,,76,127
15090,note_off,127,0,0,,4,,,76,127
15090,note_off,0,0,0,,7,,,79,127
15091,note_on,1,0,0,,7,,,79,127
15091,note_on,0,0,0,,4,,,76,127
15474,note_off,383,0,0,,0,,,36,127
15475,note_on,1,0,0,,0,,,72,127
15602,note_off,127,0,0,,0,,,72,127
15603,note_on,1,0,0,,0,,,72,127
15730,note_off,127,0,0,,4,,,76,127
15730,note_off,0,0,0,,7,,,79,127
15731,note_on,1,0,0,,5,,,77,127
15858,note_off,127,0,0,,5,,,77,127
15859,note_on,1,0,0,,7,,,79,127
15986,note_off,127,0,0,,7,,,79,127
15987,note_on,1,0,0,,5,,,77,127
15987,note_on,0,0,0,,8,,,80,127
16114,note_off,127,0,0,,8,,,80,127
16114,note_off,0,0,0,,5,,,77,127
16115,note_on,1,0,0,,5,,,77,127
16115,note_on,0,0,0,,8,,,80,127
16242,note_off,127,0,0,,0,,,72,127
16243,note_on,1,0,0,,11,,,70,127
16370,note_off,127,0,0,,11,,,70,127
16370,note_off,0,0,0,,8,,,80,127
16370,note_off,0,0,0,,5,,,77,127
16371,note_on,1,0,0,,7,,,79,127
16371,note_on,0,0,0,,4,,,76,127
16371,note_on,0,0,0,,0,,,72,127
16498,note_off,127,0,0,,0,,,72,127
16499,note_on,1,0,0,,1,,,73,127
16626,note_off,127,0,0,,1,,,73,127
16627,note_on,1,0,0,,0,,,72,127
16754,note_off,127,0,0,,4,,,76,127
16754,note_off,0,0,0,,7,,,79,127
16755,note_on,1,0,0,,7,,,79,127
16882,note_off,127,0,0,,7,,,79,127
16882,note_off,0,0,0,,0,,,72,127
16883,note_on,1,0,0,,5,,,77,127
16883,note_on,0,0,0,,11,,,70,127
17010,note_off,127,0,0,,5,,,77,127
17011,note_on,1,0,0,,4,,,76,127
17138,note_off,127,0,0,,4,,,76,127
17138,note_off,0,0,0,,11,,,70,127
17139,note_on,1,0,0,,7,,,79,127
17139,note_on,0,0,0,,8,,,68,127
17195,note_off,56,0,0,,7,,,79,127
17196,note_on,1,0,0,,5,,,77,127
17251,note_off,55,0,0,,5,,,77,127
17252,note_on,1,0,0,,7,,,79,127
17308,note_off,56,0,0,,7,,,79,127
17309,note_on,1,0,0,,5,,,77,127
17365,note_off,56,0,0,,5,,,77,127
17366,note_on,1,0,0,,7,,,79,127
17393,note_off,27,0,0,,8,,,68,127
17394,note_on,1,0,0,,7,,,67,127
17421,note_off,27,0,0,,7,,,79,127
17422,note_on,1,0,0,,5,,,77,127
17478,note_off,56,0,0,,5,,,77,127
17479,note_on,1,0,0,,4,,,76,127
17535,note_off,56,0,0,,4,,,76,127
17536,note_on,1,0,0,,5,,,77,127
17591,note_off,55,0,0,,5,,,77,127
17592,note_on,1,0,0,,7,,,79,127
17648,note_off,56,0,0,,7,,,79,127
17648,note_off,0,0,0,,7,,,67,127
17649,note_on,1,0,0,,8,,,80,127
17649,note_on,0,0,0,,5,,,65,127
17902,note_off,253,0,0,,8,,,80,127
18033,note_on,131,0,0,,5,,,77,127
18033,note_on,0,0,0,,2,,,74,127
18156,note_off,123,0,0,,5,,,65,127
18160,note_off,4,0,0,,2,,,74,127
18160,note_off,0,0,0,,5,,,77,127
18161,note_on,1,0,0,,2,,,74,127
18161,note_on,0,0,0,,5,,,77,127
18545,note_on,384,0,0,,11,,,70,127
18672,note_off,127,0,0,,11,,,70,127
18673,note_on,1,0,0,,11,,,70,127
18800,note_off,127,0,0,,5,,,77,127
18800,note_off,0,0,0,,2,,,74,127
18801,note_on,1,0,0,,3,,,75,127
18928,note_off,127,0,0,,3,,,75,127
18929,note_on,1,0,0,,5,,,77,127
19056,note_off,127,0,0,,5,,,77,127
19057,note_on,1,0,0,,3,,,75,127
19057,note_on,0,0,0,,7,,,79,127
19184,note_off,127,0,0,,7,,,79,127
19184,note_off,0,0,0,,3,,,75,127
19185,note_on,1,0,0,,3,,,75,127
19185,note_on,0,0,0,,7,,,79,127
19312,note_off,127,0,0,,11,,,70,127
19313,note_on,1,0,0,,8,,,68,127
19440,note_off,127,0,0,,8,,,68,127
19440,note_off,0,0,0,,7,,,79,127
19440,note_off,0,0,0,,3,,,75,127
19441,note_on,1,0,0,,2,,,74,127
19441,note_on,0,0,0,,5,,,77,127
19441,note_on,0,0,0,,11,,,70,127
19568,note_off,127,0,0,,11,,,70,127
19569,note_on,1,0,0,,0,,,72,127
19696,note_off,127,0,0,,0,,,72,127
19697,note_on,1,0,0,,11,,,70,127
19824,note_off,127,0,0,,5,,,77,127
19824,note_off,0,0,0,,2,,,74,127
19825,note_on,1,0,0,,5,,,77,127
19952,note_off,127,0,0,,5,,,77,127
19952,note_off,0,0,0,,11,,,70,127
19953,note_on,1,0,0,,3,,,75,127
19953,note_on,0,0,0,,8,,,68,127
20080,note_off,127,0,0,,3,,,75,127
20081,note_on,1,0,0,,2,,,74,127
20208,note_off,127,0,0,,2,,,74,127
20208,note_off,0,0,0,,8,,,68,127
20209,note_on,1,0,0,,5,,,77,127
20209,note_on,0,0,0,,7,,,67,127
20265,note_off,56,0,0,,5,,,77,127
20266,note_on,1,0,0,,3,,,75,127
20321,note_off,55,0,0,,3,,,75,127
20322,note_on,1,0,0,,5,,,77,127
20378,note_off,56,0,0,,5,,,77,127
20379,note_on,1,0,0,,3,,,75,127
20435,note_off,56,0,0,,3,,,75,127
20436,note_on,1,0,0,,5,,,77,127
20463,note_off,27,0,0,,7,,,67,127
20464,note_on,1,0,0,,5,,,65,127
20491,note_off,27,0,0,,5,,,77,127
20492,note_on,1,0,0,,3,,,75,127
20548,note_off,56,0,0,,3,,,75,127
20549,note_on,1,0,0,,2,,,74,127
20605,note_off,56,0,0,,2,,,74,127
20606,note_on,1,0,0,,3,,,75,127
20661,note_off,55,0,0,,3,,,75,127
20662,note_on,1,0,0,,5,,,77,127
20718,note_off,56,0,0,,5,,,77,127
20718,note_off,0,0,0,,5,,,65,127
20719,note_on,1,0,0,,7,,,79,127
20719,note_on,0,0,0,,3,,,63,127
20972,note_off,253,0,0,,7,,,79,127
21103,note_on,131,0,0,,0,,,72,127
21103,note_on,0,0,0,,3,,,75,127
21226,note_off,123,0,0,,3,,,63,127
21230,note_off,4,0,0,,3,,,75,127
21230,note_off,0,0,0,,0,,,72,127
21231,note_on,1,0,0,,3,,,75,127
21231,note_on,0,0,0,,0,,,72,127
21615,note_on,384,0,0,,8,,,68,127
21742,note_off,127,0,0,,8,,,68,127
21743,note_on,1,0,0,,8,,,68,127
21870,note_off,127,0,0,,0,,,72,127
21870,note_off,0,0,0,,3,,,75,127
21871,note_on,1,0,0,,2,,,74,127
21998,note_off,127,0,0,,2,,,74,127
21999,note_on,1,0,0,,3,,,75,127
22126,note_off,127,0,0,,3,,,75,127
22127,note_on,1,0,0,,2,,,74,127
22127,note_on,0,0,0,,5,,,77,127
22254,note_off,127,0,0,,5,,,77,127
22254,note_off,0,0,0,,2,,,74,127
22255,note_on,1,0,0,,5,,,77,127
22255,note_on,0,0,0,,2,,,74,127
22382,note_off,127,0,0,,8,,,68,127
22383,note_on,1,0,0,,7,,,67,127
22510,note_off,127,0,0,,7,,,67,127
22510,note_off,0,0,0,,2,,,74,127
22510,note_off,0,0,0,,5,,,77,127
22511,note_on,1,0,0,,0,,,72,127
22511,note_on,0,0,0,,3,,,75,127
22511,note_on,0,0,0,,8,,,68,127
22638,note_off,127,0,0,,8,,,68,127
22639,note_on,1,0,0,,11,,,70,127
22766,note_off,127,0,0,,11,,,70,127
22767,note_on,1,0,0,,8,,,68,127
22894,note_off,127,0,0,,3,,,75,127
22894,note_off,0,0,0,,0,,,72,127
22895,note_on,1,0,0,,3,,,75,127
23022,note_off,127,0,0,,3,,,75,127
23022,note_off,0,0,0,,8,,,68,127
23023,note_on,1,0,0,,2,,,74,127
23023,note_on,0,0,0,,7,,,67,127
23150,note_off,127,0,0,,2,,,74,127
23151,note_on,1,0,0,,0,,,72,127
23278,note_off,127,0,0,,0,,,72,127
23278,note_off,0,0,0,,7,,,67,127
23279,note_on,1,0,0,,3,,,75,127
23279,note_on,0,0,0,,5,,,65,127
23335,note_off,56,0,0,,3,,,75,127
23336,note_on,1,0,0,,2,,,74,127
23391,note_off,55,0,0,,2,,,74,127
23392,note_on,1,0,0,,3,,,75,127
23448,note_off,56,0,0,,3,,,75,127
23449,note_on,1,0,0,,2,,,74,127
23505,note_off,56,0,0,,2,,,74,127
23506,note_on,1,0,0,,3,,,75,127
23533,note_off,27,0,0,,5,,,65,127
23534,note_on,1,0,0,,3,,,63,127
23561,note_off,27,0,0,,3,,,75,127
23562,note_on,1,0,0,,2,,,74,127
23618,note_off,56,0,0,,2,,,74,127
23619,note_on,1,0,0,,0,,,72,127
23675,note_off,56,0,0,,0,,,72,127
23676,note_on,1,0,0,,2,,,74,127
23731,note_off,55,0,0,,2,,,74,127
23732,note_on,1,0,0,,3,,,75,127
23788,note_off,56,0,0,,3,,,75,127
23788,note_off,0,0,0,,3,,,63,127
23789,note_on,1,0,0,,5,,,77,127
23789,note_on,0,0,0,,2,,,74,127
23789,note_on,0,0,0,,2,,,62,127
23916,note_off,127,0,0,,2,,,74,127
23916,note_off,0,0,0,,5,,,77,127
23917,note_on,1,0,0,,7,,,79,127
23917,note_on,0,0,0,,3,,,75,127
24044,note_off,127,0,0,,3,,,75,127
24044,note_off,0,0,0,,7,,,79,127
24044,note_off,0,0,0,,2,,,62,127
24045,note_on,1,0,0,,8,,,80,127
24045,note_on,0,0,0,,5,,,77,127
24045,note_on,0,0,0,,0,,,60,127
24172,note_off,127,0,0,,5,,,77,127
24172,note_off,0,0,0,,8,,,80,127
24173,note_on,1,0,0,,7,,,79,127
24173,note_on,0,0,0,,3,,,75,127
24300,note_off,127,0,0,,3,,,75,127
24300,note_off,0,0,0,,7,,,79,127
24300,note_off,0,0,0,,0,,,60,127
24301,note_on,1,0,0,,5,,,77,127
24301,note_on,0,0,0,,8,,,80,127
24301,note_on,0,0,0,,12,,,59,127
24428,note_off,127,0,0,,5,,,77,127
24429,note_on,1,0,0,,3,,,75,127
24556,note_off,127,0,0,,3,,,75,127
24556,note_off,0,0,0,,12,,,59,127
24557,note_on,1,0,0,,2,,,74,127
24557,note_on,0,0,0,,8,,,56,127
24684,note_off,127,0,0,,2,,,74,127
24685,note_on,1,0,0,,0,,,72,127
24812,note_off,127,0,0,,0,,,72,127
24812,note_off,0,0,0,,8,,,56,127
24813,note_on,1,0,0,,12,,,71,127
24813,note_on,0,0,0,,7,,,55,127
24940,note_off,127,0,0,,12,,,71,127
24941,note_off,1,0,0,,8,,,80,127
24941,note_on,0,0,0,,3,,,75,127
24941,note_on,0,0,0,,7,,,79,127
25068,note_off,127,0,0,,7,,,79,127
25068,note_off,0,0,0,,3,,,75,127
25068,note_off,0,0,0,,7,,,55,127
25069,note_on,1,0,0,,5,,,77,127
25069,note_on,0,0,0,,8,,,80,127
25069,note_on,0,0,0,,7,,,67,127
25196,note_off,127,0,0,,8,,,80,127
25196,note_off,0,0,0,,5,,,77,127
25197,note_on,1,0,0,,7,,,79,127
25197,note_on,0,0,0,,3,,,75,127
25324,note_off,127,0,0,,3,,,75,127
25324,note_off,0,0,0,,7,,,79,127
25324,note_off,0,0,0,,7,,,67,127
25325,note_on,1,0,0,,5,,,77,127
25325,note_on,0,0,0,,8,,,80,127
25325,note_on,0,0,0,,5,,,53,127
25452,note_off,127,0,0,,5,,,77,127
25453,note_on,1,0,0,,3,,,75,127
25580,note_off,127,0,0,,3,,,75,127
25580,note_off,0,0,0,,5,,,53,127
25581,note_on,1,0,0,,2,,,74,127
25581,note_on,0,0,0,,5,,,65,127
25708,note_off,127,0,0,,2,,,74,127
25709,note_on,1,0,0,,0,,,72,127
25836,note_off,127,0,0,,0,,,72,127
25836,note_off,0,0,0,,5,,,65,127
25837,note_on,1,0,0,,12,,,71,127
25837,note_on,0,0,0,,7,,,55,127
25964,note_off,127,0,0,,12,,,71,127
25965,note_off,1,0,0,,8,,,80,127
25965,note_on,0,0,0,,7,,,79,127
25965,note_on,0,0,0,,3,,,75,127
26092,note_off,127,0,0,,3,,,75,127
26092,note_off,0,0,0,,7,,,79,127
26092,note_off,0,0,0,,7,,,55,127
26093,note_on,1,0,0,,5,,,77,127
26093,note_on,0,0,0,,8,,,80,127
26093,note_on,0,0,0,,7,,,67,127
26220,note_off,127,0,0,,8,,,80,127
26220,note_off,0,0,0,,5,,,77,127
26221,note_on,1,0,0,,7,,,79,127
26221,note_on,0,0,0,,3,,,75,127
26348,note_off,127,0,0,,3,,,75,127
26348,note_off,0,0,0,,7,,,79,127
26348,note_off,0,0,0,,7,,,67,127
26349,note_on,1,0,0,,8,,,80,127
26349,note_on,0,0,0,,5,,,77,127
26349,note_on,0,0,0,,5,,,53,127
26476,note_off,127,0,0,,5,,,77,127
26477,note_on,1,0,0,,3,,,75,127
26604,note_off,127,0,0,,3,,,75,127
26604,note_off,0,0,0,,5,,,53,127
26605,note_on,1,0,0,,2,,,74,127
26605,note_on,0,0,0,,5,,,65,127
26732,note_off,127,0,0,,2,,,74,127
26733,note_on,1,0,0,,0,,,72,127
26856,note_off,123,0,0,,8,,,80,127
26860,note_off,4,0,0,,0,,,72,127
26860,note_off,0,0,0,,5,,,65,127
26861,note_on,1,0,0,,12,,,71,127
26861,note_on,0,0,0,,7,,,55,127
26988,note_off,127,0,0,,12,,,71,127
26989,note_on,1,0,0,,8,,,80,127
26989,note_on,0,0,0,,0,,,84,127
27116,note_off,127,0,0,,0,,,84,127
27116,note_off,0,0,0,,8,,,80,127
27116,note_off,0,0,0,,7,,,55,127
27117,note_on,1,0,0,,7,,,79,127
27117,note_on,0,0,0,,12,,,83,127
27117,note_on,0,0,0,,7,,,67,127
27244,note_off,127,0,0,,12,,,83,127
27244,note_off,0,0,0,,7,,,79,127
27245,note_on,1,0,0,,0,,,84,127
27245,note_on,0,0,0,,8,,,80,127
27372,note_off,127,0,0,,8,,,80,127
27372,note_off,0,0,0,,0,,,84,127
27372,note_off,0,0,0,,7,,,67,127
27373,note_on,1,0,0,,7,,,79,127
27373,note_on,0,0,0,,2,,,86,127
27373,note_on,0,0,0,,12,,,59,127
27500,note_off,127,0,0,,7,,,79,127
27501,note_on,1,0,0,,5,,,77,127
27628,note_off,127,0,0,,5,,,77,127
27628,note_off,0,0,0,,12,,,59,127
27629,note_on,1,0,0,,3,,,75,127
27629,note_on,0,0,0,,7,,,67,127
27756,note_off,127,0,0,,3,,,75,127
27757,note_on,1,0,0,,2,,,74,127
27884,note_off,127,0,0,,2,,,74,127
27884,note_off,0,0,0,,7,,,67,127
27885,note_on,1,0,0,,3,,,75,127
27885,note_on,0,0,0,,0,,,60,127
28012,note_off,127,0,0,,3,,,75,127
28013,note_off,1,0,0,,2,,,86,127
28013,note_on,0,0,0,,0,,,84,127
28013,note_on,0,0,0,,8,,,80,127
28140,note_off,127,0,0,,8,,,80,127
28140,note_off,0,0,0,,0,,,84,127
28140,note_off,0,0,0,,0,,,60,127
28141,note_on,1,0,0,,12,,,83,127
28141,note_on,0,0,0,,7,,,79,127
28141,note_on,0,0,0,,8,,,68,127
28268,note_off,127,0,0,,7,,,79,127
28268,note_off,0,0,0,,12,,,83,127
28269,note_on,1,0,0,,8,,,80,127
28269,note_on,0,0,0,,0,,,84,127
28396,note_off,127,0,0,,0,,,84,127
28396,note_off,0,0,0,,8,,,80,127
28396,note_off,0,0,0,,8,,,68,127
28397,note_on,1,0,0,,7,,,79,127
28397,note_on,0,0,0,,2,,,86,127
28397,note_on,0,0,0,,12,,,59,127
28524,note_off,127,0,0,,7,,,79,127
28525,note_on,1,0,0,,5,,,77,127
28652,note_off,127,0,0,,5,,,77,127
28652,note_off,0,0,0,,12,,,59,127
28653,note_on,1,0,0,,3,,,75,127
28653,note_on,0,0,0,,7,,,67,127
28780,note_off,127,0,0,,3,,,75,127
28781,note_on,1,0,0,,2,,,74,127
28908,note_off,127,0,0,,2,,,74,127
28908,note_off,0,0,0,,7,,,67,127
28909,note_on,1,0,0,,3,,,75,127
28909,note_on,0,0,0,,0,,,60,127
29036,note_off,127,0,0,,3,,,75,127
29037,note_off,1,0,0,,2,,,86,127
29037,note_on,0,0,0,,8,,,80,127
29037,note_on,0,0,0,,0,,,84,127
29164,note_off,127,0,0,,0,,,84,127
29164,note_off,0,0,0,,8,,,80,127
29164,note_off,0,0,0,,0,,,60,127
29165,note_on,1,0,0,,12,,,83,127
29165,note_on,0,0,0,,7,,,79,127
29165,note_on,0,0,0,,8,,,68,127
29292,note_off,127,0,0,,7,,,79,127
29292,note_off,0,0,0,,12,,,83,127
29293,note_on,1,0,0,,0,,,84,127
29293,note_on,0,0,0,,8,,,80,127
29420,note_off,127,0,0,,8,,,80,127
29420,note_off,0,0,0,,0,,,84,127
29420,note_off,0,0,0,,8,,,68,127
29421,note_on,1,0,0,,2,,,86,127
29421,note_on,0,0,0,,7,,,79,127
29421,note_on,0,0,0,,12,,,59,127
29548,note_off,127,0,0,,7,,,79,127
29549,note_on,1,0,0,,5,,,77,127
29676,note_off,127,0,0,,5,,,77,127
29676,note_off,0,0,0,,12,,,59,127
29677,note_on,1,0,0,,3,,,75,127
29677,note_on,0,0,0,,7,,,67,127
29794,note_off,117,0,0,,2,,,86,127
29803,note_off,9,0,0,,3,,,75,127
29804,note_on,1,0,0,,2,,,74,127
29931,note_off,127,0,0,,2,,,74,127
29931,note_off,0,0,0,,7,,,67,127
29932,note_on,1,0,0,,3,,,75,127
29932,note_on,0,0,0,,0,,,60,127
30059,note_off,127,0,0,,3,,,75,127
30060,note_on,1,0,0,,7,,,79,127
30187,note_off,127,0,0,,7,,,79,127
30187,note_off,0,0,0,,0,,,60,127
30188,note_on,1,0,0,,8,,,80,127
30188,note_on,0,0,0,,5,,,53,127
30315,note_off,127,0,0,,8,,,80,127
30316,note_on,1,0,0,,5,,,77,127
30443,note_off,127,0,0,,5,,,77,127
30443,note_off,0,0,0,,5,,,53,127
30444,note_on,1,0,0,,3,,,75,127
30444,note_on,0,0,0,,7,,,55,127
30571,note_off,127,0,0,,3,,,75,127
30572,note_on,1,0,0,,2,,,74,127
30699,note_off,127,0,0,,2,,,74,127
30700,note_on,1,0,0,,0,,,72,127
30700,note_on,0,0,0,,7,,,43,127
30827,note_off,127,0,0,,0,,,72,127
30828,note_on,1,0,0,,12,,,71,127
30951,note_off,123,0,0,,7,,,55,127
30955,note_off,4,0,0,,12,,,71,127
30955,note_off,0,0,0,,7,,,43,127
30956,note_on,1,0,0,,0,,,84,127
30956,note_on,0,0,0,,0,,,60,127
31083,note_off,127,0,0,,0,,,84,127
31084,note_on,1,0,0,,0,,,72,127
31084,note_on,0,0,0,,3,,,63,127
31211,note_off,127,0,0,,3,,,63,127
31211,note_off,0,0,0,,0,,,72,127
31212,note_on,1,0,0,,2,,,74,127
31212,note_on,0,0,0,,5,,,65,127
31339,note_off,127,0,0,,5,,,65,127
31339,note_off,0,0,0,,2,,,74,127
31340,note_on,1,0,0,,3,,,75,127
31340,note_on,0,0,0,,7,,,67,127
31467,note_off,127,0,0,,7,,,67,127
31467,note_off,0,0,0,,3,,,75,127
31468,note_on,1,0,0,,5,,,77,127
31468,note_on,0,0,0,,8,,,68,127
31595,note_off,127,0,0,,8,,,68,127
31595,note_off,0,0,0,,5,,,77,127
31596,note_on,1,0,0,,3,,,75,127
31596,note_on,0,0,0,,7,,,67,127
31723,note_off,127,0,0,,7,,,67,127
31723,note_off,0,0,0,,3,,,75,127
31724,note_on,1,0,0,,2,,,74,127
31724,note_on,0,0,0,,5,,,65,127
31851,note_off,127,0,0,,5,,,65,127
31851,note_off,0,0,0,,2,,,74,127
31852,note_on,1,0,0,,0,,,72,127
31852,note_on,0,0,0,,3,,,63,127
31969,note_off,117,0,0,,0,,,60,127
31978,note_off,9,0,0,,3,,,63,127
31978,note_off,0,0,0,,0,,,72,127
31979,note_on,1,0,0,,12,,,83,127
31979,note_on,0,0,0,,7,,,55,127
32106,note_off,127,0,0,,12,,,83,127
32107,note_on,1,0,0,,12,,,71,127
32107,note_on,0,0,0,,2,,,62,127
32234,note_off,127,0,0,,2,,,62,127
32234,note_off,0,0,0,,12,,,71,127
32235,note_on,1,0,0,,0,,,72,127
32235,note_on,0,0,0,,3,,,63,127
32362,note_off,127,0,0,,3,,,63,127
32362,note_off,0,0,0,,0,,,72,127
32363,note_on,1,0,0,,2,,,74,127
32363,note_on,0,0,0,,5,,,65,127
32490,note_off,127,0,0,,5,,,65,127
32490,note_off,0,0,0,,2,,,74,127
32491,note_on,1,0,0,,3,,,75,127
32491,note_on,0,0,0,,7,,,67,127
32618,note_off,127,0,0,,7,,,67,127
32618,note_off,0,0,0,,3,,,75,127
32619,note_on,1,0,0,,2,,,74,127
32619,note_on,0,0,0,,5,,,65,127
32746,note_off,127,0,0,,5,,,65,127
32746,note_off,0,0,0,,2,,,74,127
32747,note_on,1,0,0,,0,,,72,127
32747,note_on,0,0,0,,3,,,63,127
32874,note_off,127,0,0,,3,,,63,127
32874,note_off,0,0,0,,0,,,72,127
32875,note_on,1,0,0,,12,,,71,127
32875,note_on,0,0,0,,2,,,62,127
32992,note_off,117,0,0,,7,,,55,127
33001,note_off,9,0,0,,2,,,62,127
33001,note_off,0,0,0,,12,,,71,127
33002,note_on,1,0,0,,0,,,84,127
33002,note_on,0,0,0,,0,,,60,127
33129,note_off,127,0,0,,0,,,84,127
33130,note_on,1,0,0,,0,,,72,127
33130,note_on,0,0,0,,3,,,63,127
33257,note_off,127,0,0,,3,,,63,127
33257,note_off,0,0,0,,0,,,72,127
33258,note_on,1,0,0,,2,,,74,127
33258,note_on,0,0,0,,5,,,65,127
33385,note_off,127,0,0,,5,,,65,127
33385,note_off,0,0,0,,2,,,74,127
33386,note_on,1,0,0,,3,,,75,127
33386,note_on,0,0,0,,7,,,67,127
33513,note_off,127,0,0,,7,,,67,127
33513,note_off,0,0,0,,3,,,75,127
33514,note_on,1,0,0,,5,,,77,127
33514,note_on,0,0,0,,8,,,68,127
33641,note_off,127,0,0,,8,,,68,127
33641,note_off,0,0,0,,5,,,77,127
33642,note_on,1,0,0,,3,,,75,127
33642,note_on,0,0,0,,7,,,67,127
33769,note_off,127,0,0,,7,,,67,127
33769,note_off,0,0,0,,3,,,75,127
33770,note_on,1,0,0,,2,,,74,127
33770,note_on,0,0,0,,5,,,65,127
33897,note_off,127,0,0,,5,,,65,127
33897,note_off,0,0,0,,2,,,74,127
33898,note_on,1,0,0,,0,,,72,127
33898,note_on,0,0,0,,3,,,63,127
34015,note_off,117,0,0,,0,,,60,127
34024,note_off,9,0,0,,3,,,63,127
34024,note_off,0,0,0,,0,,,72,127
34025,note_on,1,0,0,,2,,,86,127
34025,note_on,0,0,0,,7,,,55,127
34152,note_off,127,0,0,,2,,,86,127
34153,note_on,1,0,0,,12,,,71,127
34153,note_on,0,0,0,,2,,,62,127
34280,note_off,127,0,0,,2,,,62,127
34280,note_off,0,0,0,,12,,,71,127
34281,note_on,1,0,0,,0,,,72,127
34281,note_on,0,0,0,,3,,,63,127
34408,note_off,127,0,0,,3,,,63,127
34408,note_off,0,0,0,,0,,,72,127
34409,note_on,1,0,0,,2,,,74,127
34409,note_on,0,0,0,,5,,,65,127
34536,note_off,127,0,0,,5,,,65,127
34536,note_off,0,0,0,,2,,,74,127
34537,note_on,1,0,0,,3,,,75,127
34537,note_on,0,0,0,,7,,,67,127
34664,note_off,127,0,0,,7,,,67,127
34664,note_off,0,0,0,,3,,,75,127
34665,note_on,1,0,0,,2,,,74,127
34665,note_on,0,0,0,,5,,,65,127
34792,note_off,127,0,0,,5,,,65,127
34792,note_off,0,0,0,,2,,,74,127
34792,note_off,0,0,0,,7,,,55,127
34793,note_on,1,0,0,,0,,,72,127
34793,note_on,0,0,0,,3,,,63,127
34920,note_off,127,0,0,,3,,,63,127
34920,note_off,0,0,0,,0,,,72,127
34921,note_on,1,0,0,,12,,,71,127
34921,note_on,0,0,0,,2,,,62,127
35048,note_off,127,0,0,,2,,,62,127
35048,note_off,0,0,0,,12,,,71,127
35049,note_on,1,0,0,,0,,,84,127
35049,note_on,0,0,0,,0,,,60,127
35176,note_off,127,0,0,,0,,,84,127
35177,note_on,1,0,0,,7,,,79,127
35304,note_off,127,0,0,,7,,,79,127
35304,note_off,0,0,0,,0,,,60,127
35305,note_on,1,0,0,,8,,,80,127
35305,note_on,0,0,0,,5,,,65,127
35432,note_off,127,0,0,,8,,,80,127
35433,note_on,1,0,0,,5,,,77,127
35560,note_off,127,0,0,,5,,,77,127
35560,note_off,0,0,0,,5,,,65,127
35561,note_on,1,0,0,,3,,,75,127
35561,note_on,0,0,0,,7,,,67,127
35688,note_off,127,0,0,,3,,,75,127
35689,note_on,1,0,0,,2,,,74,127
35816,note_off,127,0,0,,2,,,74,127
35817,note_on,1,0,0,,0,,,72,127
35817,note_on,0,0,0,,7,,,55,127
35944,note_off,127,0,0,,0,,,72,127
35945,note_off,1,0,0,,7,,,67,127
35945,note_on,0,0,0,,12,,,71,127
36072,note_off,127,0,0,,12,,,71,127
36072,note_off,0,0,0,,7,,,55,127
36073,note_on,1,0,0,,0,,,72,127
36073,note_on,0,0,0,,0,,,48,127
36200,note_off,127,0,0,,0,,,72,127
36201,note_on,1,0,0,,0,,,60,127
36201,note_on,0,0,0,,3,,,51,127
36328,note_off,127,0,0,,3,,,51,127
36328,note_off,0,0,0,,0,,,60,127
36329,note_on,1,0,0,,2,,,62,127
36329,note_on,0,0,0,,5,,,53,127
36456,note_off,127,0,0,,5,,,53,127
36456,note_off,0,0,0,,2,,,62,127
36457,note_on,1,0,0,,3,,,63,127
36457,note_on,0,0,0,,7,,,55,127
36584,note_off,127,0,0,,7,,,55,127
36584,note_off,0,0,0,,3,,,63,127
36585,note_on,1,0,0,,5,,,65,127
36585,note_on,0,0,0,,8,,,56,127
36712,note_off,127,0,0,,8,,,56,127
36712,note_off,0,0,0,,5,,,65,127
36713,note_on,1,0,0,,3,,,63,127
36713,note_on,0,0,0,,7,,,55,127
36840,note_off,127,0,0,,7,,,55,127
36840,note_off,0,0,0,,3,,,63,127
36841,note_on,1,0,0,,2,,,62,127
36841,note_on,0,0,0,,5,,,53,127
36968,note_off,127,0,0,,5,,,53,127
36968,note_off,0,0,0,,2,,,62,127
36969,note_on,1,0,0,,0,,,60,127
36969,note_on,0,0,0,,3,,,51,127
37086,note_off,117,0,0,,0,,,48,127
37095,note_off,9,0,0,,3,,,51,127
37095,note_off,0,0,0,,0,,,60,127
37096,note_on,1,0,0,,12,,,71,127
37096,note_on,0,0,0,,7,,,43,127
37223,note_off,127,0,0,,12,,,71,127
37224,note_on,1,0,0,,12,,,59,127
37224,note_on,0,0,0,,2,,,50,127
37351,note_off,127,0,0,,2,,,50,127
37351,note_off,0,0,0,,12,,,59,127
37352,note_on,1,0,0,,0,,,60,127
37352,note_on,0,0,0,,3,,,51,127
37479,note_off,127,0,0,,3,,,51,127
37479,note_off,0,0,0,,0,,,60,127
37480,note_on,1,0,0,,2,,,62,127
37480,note_on,0,0,0,,5,,,53,127
37607,note_off,127,0,0,,5,,,53,127
37607,note_off,0,0,0,,2,,,62,127
37608,note_on,1,0,0,,3,,,63,127
37608,note_on,0,0,0,,7,,,55,127
37735,note_off,127,0,0,,7,,,55,127
37735,note_off,0,0,0,,3,,,63,127
37736,note_on,1,0,0,,2,,,62,127
37736,note_on,0,0,0,,5,,,53,127
37863,note_off,127,0,0,,5,,,53,127
37863,note_off,0,0,0,,2,,,62,127
37864,note_on,1,0,0,,0,,,60,127
37864,note_on,0,0,0,,3,,,51,127
37991,note_off,127,0,0,,3,,,51,127
37991,note_off,0,0,0,,0,,,60,127
37992,note_on,1,0,0,,12,,,59,127
37992,note_on,0,0,0,,2,,,50,127
38109,note_off,117,0,0,,7,,,43,127
38118,note_off,9,0,0,,2,,,50,127
38118,note_off,0,0,0,,12,,,59,127
38119,note_on,1,0,0,,0,,,72,127
38119,note_on,0,0,0,,0,,,48,127
38246,note_off,127,0,0,,0,,,72,127
38247,note_on,1,0,0,,0,,,60,127
38247,note_on,0,0,0,,3,,,51,127
38374,note_off,127,0,0,,3,,,51,127
38374,note_off,0,0,0,,0,,,60,127
38375,note_on,1,0,0,,2,,,62,127
38375,note_on,0,0,0,,5,,,53,127
38502,note_off,127,0,0,,5,,,53,127
38502,note_off,0,0,0,,2,,,62,127
38503,note_on,1,0,0,,3,,,63,127
38503,note_on,0,0,0,,7,,,55,127
38630,note_off,127,0,0,,7,,,55,127
38630,note_off,0,0,0,,3,,,63,127
38631,note_on,1,0,0,,5,,,65,127
38631,note_on,0,0,0,,8,,,56,127
38758,note_off,127,0,0,,8,,,56,127
38758,note_off,0,0,0,,5,,,65,127
38759,note_on,1,0,0,,3,,,63,127
38759,note_on,0,0,0,,7,,,55,127
38886,note_off,127,0,0,,7,,,55,127
38886,note_off,0,0,0,,3,,,63,127
38887,note_on,1,0,0,,2,,,62,127
38887,note_on,0,0,0,,5,,,53,127
39014,note_off,127,0,0,,5,,,53,127
39014,note_off,0,0,0,,2,,,62,127
39015,note_on,1,0,0,,0,,,60,127
39015,note_on,0,0,0,,3,,,51,127
39132,note_off,117,0,0,,0,,,48,127
39141,note_off,9,0,0,,3,,,51,127
39141,note_off,0,0,0,,0,,,60,127
39142,note_on,1,0,0,,2,,,74,127
39142,note_on,0,0,0,,7,,,43,127
39269,note_off,127,0,0,,2,,,74,127
39270,note_on,1,0,0,,12,,,59,127
39270,note_on,0,0,0,,2,,,50,127
39397,note_off,127,0,0,,2,,,50,127
39397,note_off,0,0,0,,12,,,59,127
39398,note_on,1,0,0,,0,,,60,127
39398,note_on,0,0,0,,3,,,51,127
39525,note_off,127,0,0,,3,,,51,127
39525,note_off,0,0,0,,0,,,60,127
39526,note_on,1,0,0,,2,,,62,127
39526,note_on,0,0,0,,5,,,53,127
39653,note_off,127,0,0,,5,,,53,127
39653,note_off,0,0,0,,2,,,62,127
39654,note_on,1,0,0,,3,,,63,127
39654,note_on,0,0,0,,7,,,55,127
39781,note_off,127,0,0,,7,,,55,127
39781,note_off,0,0,0,,3,,,63,127
39782,note_on,1,0,0,,2,,,62,127
39782,note_on,0,0,0,,5,,,53,127
39909,note_off,127,0,0,,5,,,53,127
39909,note_off,0,0,0,,2,,,62,127
39909,note_off,0,0,0,,7,,,43,127
39910,note_on,1,0,0,,0,,,60,127
39910,note_on,0,0,0,,3,,,51,127
40037,note_off,127,0,0,,3,,,51,127
40037,note_off,0,0,0,,0,,,60,127
40038,note_on,1,0,0,,12,,,59,127
40038,note_on,0,0,0,,2,,,50,127
40165,note_off,127,0,0,,2,,,50,127
40165,note_off,0,0,0,,12,,,59,127
40166,note_on,1,0,0,,0,,,72,127
40166,note_on,0,0,0,,3,,,51,127
40293,note_off,127,0,0,,0,,,72,127
40294,note_on,1,0,0,,7,,,67,127
40421,note_off,127,0,0,,7,,,67,127
40421,note_off,0,0,0,,3,,,51,127
40422,note_on,1,0,0,,8,,,68,127
40422,note_on,0,0,0,,5,,,53,127
40549,note_off,127,0,0,,8,,,68,127
40550,note_on,1,0,0,,5,,,65,127
40677,note_off,127,0,0,,5,,,65,127
40677,note_off,0,0,0,,5,,,53,127
40678,note_on,1,0,0,,3,,,63,127
40678,note_on,0,0,0,,7,,,55,127
40805,note_off,127,0,0,,3,,,63,127
40806,note_on,1,0,0,,2,,,62,127
40933,note_off,127,0,0,,2,,,62,127
40934,note_on,1,0,0,,0,,,60,127
40934,note_on,0,0,0,,7,,,43,127
41061,note_off,127,0,0,,0,,,60,127
41062,note_on,1,0,0,,12,,,59,127
41185,note_off,123,0,0,,7,,,55,127
41189,note_off,4,0,0,,12,,,59,127
41189,note_off,0,0,0,,7,,,43,127
41190,note_on,1,0,0,,0,,,84,127
41190,note_on,0,0,0,,0,,,60,127
41317,note_off,127,0,0,,0,,,84,127
41318,note_on,1,0,0,,0,,,84,127
41445,note_off,127,0,0,,0,,,60,127
41446,note_on,1,0,0,,3,,,63,127
41509,note_off,63,0,0,,0,,,84,127
41510,note_on,1,0,0,,7,,,79,127
41573,note_off,63,0,0,,7,,,79,127
41574,note_on,1,0,0,,8,,,80,127
41637,note_off,63,0,0,,8,,,80,127
41638,note_on,1,0,0,,11,,,82,127
41701,note_off,63,0,0,,11,,,82,127
41701,note_off,0,0,0,,3,,,63,127
41702,note_on,1,0,0,,8,,,80,127
41702,note_on,0,0,0,,5,,,65,127
41829,note_off,127,0,0,,8,,,80,127
41830,note_on,1,0,0,,5,,,77,127
41957,note_off,127,0,0,,5,,,65,127
41958,note_on,1,0,0,,12,,,59,127
42021,note_off,63,0,0,,5,,,77,127
42022,note_on,1,0,0,,2,,,74,127
42085,note_off,63,0,0,,2,,,74,127
42086,note_on,1,0,0,,3,,,75,127
42149,note_off,63,0,0,,3,,,75,127
42150,note_on,1,0,0,,5,,,77,127
42213,note_off,63,0,0,,5,,,77,127
42213,note_off,0,0,0,,12,,,59,127
42214,note_on,1,0,0,,3,,,75,127
42214,note_on,0,0,0,,0,,,60,127
42341,note_off,127,0,0,,3,,,75,127
42342,note_on,1,0,0,,7,,,79,127
42469,note_off,127,0,0,,7,,,79,127
42469,note_off,0,0,0,,0,,,60,127
42470,note_on,1,0,0,,5,,,77,127
42470,note_on,0,0,0,,3,,,51,127
42533,note_off,63,0,0,,5,,,77,127
42534,note_on,1,0,0,,3,,,75,127
42597,note_off,63,0,0,,3,,,75,127
42598,note_on,1,0,0,,2,,,74,127
42661,note_off,63,0,0,,2,,,74,127
42662,note_on,1,0,0,,0,,,72,127
42725,note_off,63,0,0,,0,,,72,127
42725,note_off,0,0,0,,3,,,51,127
42726,note_on,1,0,0,,2,,,74,127
42726,note_on,0,0,0,,5,,,53,127
42853,note_off,127,0,0,,2,,,74,127
42854,note_on,1,0,0,,5,,,77,127
42981,note_off,127,0,0,,5,,,77,127
42981,note_off,0,0,0,,5,,,53,127
42982,note_on,1,0,0,,3,,,75,127
42982,note_on,0,0,0,,7,,,55,127
43045,note_off,63,0,0,,3,,,75,127
43046,note_on,1,0,0,,2,,,74,127
43109,note_off,63,0,0,,2,,,74,127
43110,note_on,1,0,0,,0,,,72,127
43173,note_off,63,0,0,,0,,,72,127
43174,note_on,1,0,0,,12,,,71,127
43237,note_off,63,0,0,,12,,,71,127
43237,note_off,0,0,0,,7,,,55,127
43238,note_on,1,0,0,,0,,,72,127
43238,note_on,0,0,0,,0,,,48,127
43365,note_off,127,0,0,,0,,,72,127
43366,note_on,1,0,0,,0,,,72,127
43493,note_off,127,0,0,,0,,,48,127
43494,note_on,1,0,0,,3,,,51,127
43557,note_off,63,0,0,,0,,,72,127
43558,note_on,1,0,0,,7,,,67,127
43621,note_off,63,0,0,,7,,,67,127
43622,note_on,1,0,0,,8,,,68,127
43685,note_off,63,0,0,,8,,,68,127
43686,note_on,1,0,0,,11,,,70,127
43749,note_off,63,0,0,,11,,,70,127
43749,note_off,0,0,0,,3,,,51,127
43750,note_on,1,0,0,,8,,,68,127
43750,note_on,0,0,0,,5,,,53,127
43877,note_off,127,0,0,,8,,,68,127
43878,note_on,1,0,0,,5,,,65,127
44005,note_off,127,0,0,,5,,,53,127
44006,note_on,1,0,0,,12,,,47,127
44069,note_off,63,0,0,,5,,,65,127
44070,note_on,1,0,0,,2,,,62,127
44133,note_off,63,0,0,,2,,,62,127
44134,note_on,1,0,0,,3,,,63,127
44197,note_off,63,0,0,,3,,,63,127
44198,note_on,1,0,0,,5,,,65,127
44261,note_off,63,0,0,,5,,,65,127
44261,note_off,0,0,0,,12,,,47,127
44262,note_on,1,0,0,,3,,,63,127
44262,note_on,0,0,0,,0,,,48,127
44389,note_off,127,0,0,,3,,,63,127
44390,note_on,1,0,0,,7,,,67,127
44517,note_off,127,0,0,,7,,,67,127
44517,note_off,0,0,0,,0,,,48,127
44518,note_on,1,0,0,,5,,,65,127
44518,note_on,0,0,0,,3,,,39,127
44581,note_off,63,0,0,,5,,,65,127
44582,note_on,1,0,0,,3,,,63,127
44645,note_off,63,0,0,,3,,,63,127
44646,note_on,1,0,0,,2,,,62,127
44709,note_off,63,0,0,,2,,,62,127
44710,note_on,1,0,0,,0,,,60,127
44773,note_off,63,0,0,,0,,,60,127
44773,note_off,0,0,0,,3,,,39,127
44774,note_on,1,0,0,,2,,,62,127
44774,note_on,0,0,0,,5,,,41,127
44901,note_off,127,0,0,,2,,,62,127
44902,note_on,1,0,0,,5,,,65,127
45029,note_off,127,0,0,,5,,,65,127
45029,note_off,0,0,0,,5,,,41,127
45030,note_on,1,0,0,,3,,,63,127
45030,note_on,0,0,0,,7,,,43,127
45093,note_off,63,0,0,,3,,,63,127
45094,note_on,1,0,0,,2,,,62,127
45157,note_off,63,0,0,,2,,,62,127
45158,note_on,1,0,0,,0,,,60,127
45221,note_off,63,0,0,,0,,,60,127
45222,note_on,1,0,0,,12,,,59,127
45285,note_off,63,0,0,,12,,,59,127
45285,note_off,0,0,0,,7,,,43,127
45286,note_on,1,0,0,,12,,,59,127
45286,note_on,0,0,0,,0,,,36,127
45541,note_off,255,0,0,,12,,,59,127
45542,note_on,1,0,0,,0,,,60,127
46309,note_off,767,0,0,,0,,,60,127
46309,note_off,0,0,0,,0,,,36,127
46310,note_on,1,0,0,,0,,,48,127
46694,note_on,384,0,0,,4,,,76,127
46694,note_on,0,0,0,,7,,,79,127
46821,note_off,127,0,0,,7,,,79,127
46821,note_off,0,0,0,,4,,,76,127
46822,note_on,1,0,0,,4,,,76,127
46822,note_on,0,0,0,,7,,,79,127
47205,note_off,383,0,0,,0,,,48,127
47206,note_on,1,0,0,,0,,,72,127
47333,note_off,127,0,0,,0,,,72,127
47334,note_on,1,0,0,,0,,,72,127
47461,note_off,127,0,0,,7,,,79,127
47461,note_off,0,0,0,,4,,,76,127
47462,note_on,1,0,0,,5,,,77,127
47589,note_off,127,0,0,,5,,,77,127
47590,note_on,1,0,0,,7,,,79,127
47717,note_off,127,0,0,,7,,,79,127
47718,note_on,1,0,0,,8,,,80,127
47718,note_on,0,0,0,,5,,,77,127
47845,note_off,127,0,0,,5,,,77,127
47845,note_off,0,0,0,,8,,,80,127
47846,note_on,1,0,0,,8,,,80,127
47846,note_on,0,0,0,,5,,,77,127
47973,note_off,127,0,0,,0,,,72,127
47974,note_on,1,0,0,,11,,,70,127
48101,note_off,127,0,0,,11,,,70,127
48101,note_off,0,0,0,,5,,,77,127
48101,note_off,0,0,0,,8,,,80,127
48102,note_on,1,0,0,,4,,,76,127
48102,note_on,0,0,0,,7,,,79,127
48102,note_on,0,0,0,,0,,,72,127
48229,note_off,127,0,0,,0,,,72,127
48230,note_on,1,0,0,,1,,,73,127
48357,note_off,127,0,0,,1,,,73,127
48358,note_on,1,0,0,,0,,,72,127
48485,note_off,127,0,0,,7,,,79,127
48485,note_off,0,0,0,,4,,,76,127
48486,note_on,1,0,0,,7,,,79,127
48613,note_off,127,0,0,,7,,,79,127
48613,note_off,0,0,0,,0,,,72,127
48614,note_on,1,0,0,,5,,,77,127
48614,note_on,0,0,0,,11,,,70,127
48741,note_off,127,0,0,,5,,,77,127
48742,note_on,1,0,0,,4,,,76,127
48869,note_off,127,0,0,,4,,,76,127
48869,note_off,0,0,0,,11,,,70,127
48870,note_on,1,0,0,,7,,,79,127
48870,note_on,0,0,0,,8,,,68,127
48926,note_off,56,0,0,,7,,,79,127
48927,note_on,1,0,0,,5,,,77,127
48982,note_off,55,0,0,,5,,,77,127
48983,note_on,1,0,0,,7,,,79,127
49039,note_off,56,0,0,,7,,,79,127
49040,note_on,1,0,0,,5,,,77,127
49096,note_off,56,0,0,,5,,,77,127
49097,note_on,1,0,0,,7,,,79,127
49124,note_off,27,0,0,,8,,,68,127
49125,note_on,1,0,0,,7,,,67,127
49152,note_off,27,0,0,,7,,,79,127
49153,note_on,1,0,0,,5,,,77,127
49209,note_off,56,0,0,,5,,,77,127
49210,note_on,1,0,0,,4,,,76,127
49266,note_off,56,0,0,,4,,,76,127
49267,note_on,1,0,0,,5,,,77,127
49322,note_off,55,0,0,,5,,,77,127
49323,note_on,1,0,0,,7,,,79,127
49379,note_off,56,0,0,,7,,,79,127
49379,note_off,0,0,0,,7,,,67,127
49380,note_on,1,0,0,,8,,,80,127
49380,note_on,0,0,0,,5,,,65,127
49633,note_off,253,0,0,,8,,,80,127
49764,note_on,131,0,0,,2,,,74,127
49764,note_on,0,0,0,,5,,,77,127
49887,note_off,123,0,0,,5,,,65,127
49891,note_off,4,0,0,,5,,,77,127
49891,note_off,0,0,0,,2,,,74,127
49892,note_on,1,0,0,,5,,,77,127
49892,note_on,0,0,0,,2,,,74,127
50276,note_on,384,0,0,,11,,,70,127
50403,note_off,127,0,0,,11,,,70,127
50404,note_on,1,0,0,,11,,,70,127
50531,note_off,127,0,0,,2,,,74,127
50531,note_off,0,0,0,,5,,,77,127
50532,note_on,1,0,0,,3,,,75,127
50659,note_off,127,0,0,,3,,,75,127
50660,note_on,1,0,0,,5,,,77,127
50787,note_off,127,0,0,,5,,,77,127
50788,note_on,1,0,0,,6,,,78,127
50788,note_on,0,0,0,,3,,,75,127
50915,note_off,127,0,0,,3,,,75,127
50915,note_off,0,0,0,,6,,,78,127
50916,note_on,1,0,0,,3,,,75,127
50916,note_on,0,0,0,,6,,,78,127
51043,note_off,127,0,0,,11,,,70,127
51044,note_on,1,0,0,,8,,,68,127
51171,note_off,127,0,0,,8,,,68,127
51171,note_off,0,0,0,,6,,,78,127
51171,note_off,0,0,0,,3,,,75,127
51172,note_on,1,0,0,,5,,,77,127
51172,note_on,0,0,0,,2,,,74,127
51172,note_on,0,0,0,,11,,,70,127
51299,note_off,127,0,0,,11,,,70,127
51300,note_on,1,0,0,,12,,,71,127
51427,note_off,127,0,0,,12,,,71,127
51428,note_on,1,0,0,,11,,,70,127
51555,note_off,127,0,0,,2,,,74,127
51555,note_off,0,0,0,,5,,,77,127
51556,note_on,1,0,0,,5,,,77,127
51683,note_off,127,0,0,,5,,,77,127
51683,note_off,0,0,0,,11,,,70,127
51684,note_on,1,0,0,,3,,,75,127
51684,note_on,0,0,0,,8,,,68,127
51811,note_off,127,0,0,,3,,,75,127
51812,note_on,1,0,0,,2,,,74,127
51939,note_off,127,0,0,,2,,,74,127
51939,note_off,0,0,0,,8,,,68,127
51940,note_on,1,0,0,,5,,,77,127
51940,note_on,0,0,0,,6,,,66,127
51996,note_off,56,0,0,,5,,,77,127
51997,note_on,1,0,0,,3,,,75,127
52052,note_off,55,0,0,,3,,,75,127
52053,note_on,1,0,0,,5,,,77,127
52109,note_off,56,0,0,,5,,,77,127
52110,note_on,1,0,0,,3,,,75,127
52166,note_off,56,0,0,,3,,,75,127
52167,note_on,1,0,0,,5,,,77,127
52194,note_off,27,0,0,,6,,,66,127
52195,note_on,1,0,0,,5,,,65,127
52222,note_off,27,0,0,,5,,,77,127
52223,note_on,1,0,0,,3,,,75,127
52279,note_off,56,0,0,,3,,,75,127
52280,note_on,1,0,0,,2,,,74,127
52336,note_off,56,0,0,,2,,,74,127
52337,note_on,1,0,0,,3,,,75,127
52392,note_off,55,0,0,,3,,,75,127
52393,note_on,1,0,0,,5,,,77,127
52449,note_off,56,0,0,,5,,,77,127
52449,note_off,0,0,0,,5,,,65,127
52450,note_on,1,0,0,,6,,,78,127
52450,note_on,0,0,0,,3,,,63,127
52578,note_on,128,0,0,,10,,,69,127
52705,note_off,127,0,0,,10,,,69,127
52705,note_off,0,0,0,,3,,,63,127
52706,note_on,1,0,0,,11,,,70,127
52706,note_on,0,0,0,,1,,,61,127
52823,note_off,117,0,0,,6,,,78,127
52834,note_on,11,0,0,,5,,,77,127
52961,note_off,127,0,0,,5,,,77,127
52961,note_off,0,0,0,,1,,,61,127
52962,note_on,1,0,0,,5,,,77,127
52962,note_on,0,0,0,,0,,,60,127
53089,note_off,127,0,0,,5,,,77,127
53090,note_on,1,0,0,,3,,,75,127
53213,note_off,123,0,0,,11,,,70,127
53217,note_off,4,0,0,,3,,,75,127
53217,note_off,0,0,0,,0,,,60,127
53218,note_on,1,0,0,,10,,,69,127
53218,note_on,0,0,0,,1,,,73,127
53218,note_on,0,0,0,,5,,,65,127
53345,note_off,127,0,0,,1,,,73,127
53346,note_on,1,0,0,,0,,,72,127
53471,note_off,125,0,0,,10,,,69,127
53472,note_off,1,0,0,,0,,,72,127
53472,note_off,0,0,0,,5,,,65,127
53473,note_on,1,0,0,,1,,,73,127
53473,note_on,0,0,0,,11,,,70,127
53473,note_on,0,0,0,,11,,,58,127
53600,note_off,127,0,0,,11,,,70,127
53600,note_off,0,0,0,,1,,,73,127
53601,note_on,1,0,0,,11,,,70,127
53601,note_on,0,0,0,,1,,,73,127
53728,note_off,127,0,0,,1,,,73,127
53728,note_off,0,0,0,,11,,,70,127
53728,note_off,0,0,0,,11,,,58,127
53729,note_on,1,0,0,,10,,,69,127
53729,note_on,0,0,0,,0,,,72,127
53729,note_on,0,0,0,,11,,,58,127
53856,note_off,127,0,0,,0,,,72,127
53856,note_off,0,0,0,,10,,,69,127
53857,note_on,1,0,0,,11,,,70,127
53857,note_on,0,0,0,,1,,,73,127
53984,note_off,127,0,0,,1,,,73,127
53984,note_off,0,0,0,,11,,,70,127
53984,note_off,0,0,0,,11,,,58,127
53985,note_on,1,0,0,,0,,,72,127
53985,note_on,0,0,0,,3,,,75,127
53985,note_on,0,0,0,,6,,,66,127
54112,note_off,127,0,0,,0,,,72,127
54113,note_on,1,0,0,,11,,,70,127
54240,note_off,127,0,0,,11,,,70,127
54240,note_off,0,0,0,,6,,,66,127
54241,note_on,1,0,0,,10,,,69,127
54241,note_on,0,0,0,,3,,,63,127
54368,note_off,127,0,0,,10,,,69,127
54369,note_on,1,0,0,,11,,,70,127
54496,note_off,127,0,0,,11,,,70,127
54496,note_off,0,0,0,,3,,,63,127
54497,note_on,1,0,0,,10,,,69,127
54497,note_on,0,0,0,,5,,,65,127
54624,note_off,127,0,0,,10,,,69,127
54625,note_off,1,0,0,,3,,,75,127
54625,note_on,0,0,0,,11,,,70,127
54625,note_on,0,0,0,,1,,,73,127
54752,note_off,127,0,0,,1,,,73,127
54752,note_off,0,0,0,,11,,,70,127
54752,note_off,0,0,0,,5,,,65,127
54753,note_on,1,0,0,,0,,,72,127
54753,note_on,0,0,0,,10,,,69,127
54753,note_on,0,0,0,,11,,,58,127
54880,note_off,127,0,0,,10,,,69,127
54880,note_off,0,0,0,,0,,,72,127
54881,note_on,1,0,0,,1,,,73,127
54881,note_on,0,0,0,,11,,,70,127
55008,note_off,127,0,0,,11,,,70,127
55008,note_off,0,0,0,,1,,,73,127
55008,note_off,0,0,0,,11,,,58,127
55009,note_on,1,0,0,,3,,,75,127
55009,note_on,0,0,0,,0,,,72,127
55009,note_on,0,0,0,,6,,,66,127
55136,note_off,127,0,0,,0,,,72,127
55137,note_on,1,0,0,,11,,,70,127
55264,note_off,127,0,0,,11,,,70,127
55264,note_off,0,0,0,,6,,,66,127
55265,note_on,1,0,0,,10,,,69,127
55265,note_on,0,0,0,,3,,,63,127
55392,note_off,127,0,0,,10,,,69,127
55393,note_on,1,0,0,,11,,,70,127
55520,note_off,127,0,0,,11,,,70,127
55520,note_off,0,0,0,,3,,,63,127
55521,note_on,1,0,0,,10,,,69,127
55521,note_on,0,0,0,,5,,,65,127
55648,note_off,127,0,0,,10,,,69,127
55649,note_off,1,0,0,,3,,,75,127
55649,note_on,0,0,0,,1,,,73,127
55649,note_on,0,0,0,,11,,,70,127
55776,note_off,127,0,0,,11,,,70,127
55776,note_off,0,0,0,,1,,,73,127
55776,note_off,0,0,0,,5,,,65,127
55777,note_on,1,0,0,,10,,,69,127
55777,note_on,0,0,0,,0,,,72,127
55777,note_on,0,0,0,,11,,,58,127
55904,note_off,127,0,0,,0,,,72,127
55904,note_off,0,0,0,,10,,,69,127
55905,note_on,1,0,0,,11,,,70,127
55905,note_on,0,0,0,,1,,,73,127
56032,note_off,127,0,0,,1,,,73,127
56032,note_off,0,0,0,,11,,,70,127
56032,note_off,0,0,0,,11,,,58,127
56033,note_on,1,0,0,,3,,,75,127
56033,note_on,0,0,0,,0,,,72,127
56033,note_on,0,0,0,,6,,,66,127
56160,note_off,127,0,0,,0,,,72,127
56161,note_on,1,0,0,,11,,,70,127
56288,note_off,127,0,0,,11,,,70,127
56288,note_off,0,0,0,,6,,,66,127
56289,note_on,1,0,0,,10,,,69,127
56289,note_on,0,0,0,,3,,,63,127
56406,note_off,117,0,0,,3,,,75,127
56415,note_off,9,0,0,,10,,,69,127
56416,note_on,1,0,0,,11,,,70,127
56543,note_off,127,0,0,,11,,,70,127
56543,note_off,0,0,0,,3,,,63,127
56544,note_on,1,0,0,,10,,,69,127
56544,note_on,0,0,0,,5,,,53,127
56672,note_on,128,0,0,,5,,,65,127
56797,note_off,125,0,0,,5,,,53,127
56798,note_off,1,0,0,,5,,,65,127
56799,note_on,1,0,0,,0,,,60,127
56926,note_off,127,0,0,,0,,,60,127
56927,note_on,1,0,0,,5,,,65,127
57050,note_off,123,0,0,,10,,,69,127
57054,note_off,4,0,0,,5,,,65,127
57055,note_on,1,0,0,,1,,,61,127
57182,note_off,127,0,0,,1,,,61,127
57183,note_on,1,0,0,,5,,,77,127
57183,note_on,0,0,0,,5,,,65,127
57310,note_off,127,0,0,,5,,,65,127
57310,note_off,0,0,0,,5,,,77,127
57311,note_on,1,0,0,,0,,,72,127
57311,note_on,0,0,0,,10,,,57,127
57438,note_off,127,0,0,,10,,,57,127
57438,note_off,0,0,0,,0,,,72,127
57439,note_on,1,0,0,,3,,,75,127
57439,note_on,0,0,0,,0,,,60,127
57566,note_off,127,0,0,,0,,,60,127
57566,note_off,0,0,0,,3,,,75,127
57567,note_on,1,0,0,,1,,,73,127
57567,note_on,0,0,0,,11,,,58,127
57694,note_off,127,0,0,,11,,,58,127
57695,note_on,1,0,0,,1,,,61,127
57822,note_off,127,0,0,,1,,,61,127
57822,note_off,0,0,0,,1,,,73,127
57823,note_on,1,0,0,,11,,,70,127
57823,note_on,0,0,0,,6,,,54,127
57950,note_off,127,0,0,,6,,,54,127
57951,note_on,1,0,0,,11,,,58,127
58078,note_off,127,0,0,,11,,,58,127
58079,note_on,1,0,0,,3,,,51,127
58206,note_off,127,0,0,,3,,,51,127
58207,note_on,1,0,0,,6,,,54,127
58334,note_off,127,0,0,,6,,,54,127
58334,note_off,0,0,0,,11,,,70,127
58335,note_on,1,0,0,,6,,,78,127
58335,note_on,0,0,0,,0,,,48,127
58462,note_off,127,0,0,,0,,,48,127
58463,note_on,1,0,0,,3,,,51,127
58590,note_off,127,0,0,,3,,,51,127
58591,note_on,1,0,0,,10,,,45,127
58718,note_off,127,0,0,,10,,,45,127
58719,note_on,1,0,0,,0,,,48,127
58846,note_off,127,0,0,,0,,,48,127
58846,note_off,0,0,0,,6,,,78,127
58847,note_on,1,0,0,,5,,,77,127
58847,note_on,0,0,0,,5,,,41,127
59102,note_off,255,0,0,,5,,,41,127
59103,note_on,1,0,0,,5,,,53,127
59230,note_off,127,0,0,,5,,,77,127
59231,note_on,1,0,0,,3,,,75,127
59358,note_off,127,0,0,,3,,,75,127
59358,note_off,0,0,0,,5,,,53,127
59359,note_on,1,0,0,,1,,,73,127
59359,note_on,0,0,0,,10,,,45,127
59486,note_off,127,0,0,,1,,,73,127
59487,note_on,1,0,0,,0,,,72,127
59614,note_off,127,0,0,,0,,,72,127
59614,note_off,0,0,0,,10,,,45,127
59615,note_on,1,0,0,,1,,,73,127
59615,note_on,0,0,0,,11,,,46,127
59742,note_off,127,0,0,,1,,,73,127
59743,note_on,1,0,0,,1,,,73,127
59870,note_off,127,0,0,,1,,,73,127
59870,note_off,0,0,0,,11,,,46,127
59871,note_on,1,0,0,,3,,,75,127
59871,note_on,0,0,0,,8,,,44,127
59998,note_off,127,0,0,,3,,,75,127
59999,note_on,1,0,0,,5,,,77,127
60126,note_off,127,0,0,,5,,,77,127
60126,note_off,0,0,0,,8,,,44,127
60127,note_on,1,0,0,,3,,,75,127
60127,note_on,0,0,0,,6,,,42,127
60254,note_off,127,0,0,,3,,,75,127
60255,note_on,1,0,0,,1,,,73,127
60382,note_off,127,0,0,,1,,,73,127
60383,note_on,1,0,0,,0,,,72,127
60510,note_off,127,0,0,,0,,,72,127
60511,note_on,1,0,0,,11,,,70,127
60638,note_off,127,0,0,,11,,,70,127
60638,note_off,0,0,0,,6,,,42,127
60639,note_on,1,0,0,,5,,,77,127
60639,note_on,0,0,0,,5,,,41,127
60766,note_off,127,0,0,,5,,,77,127
60767,note_on,1,0,0,,0,,,72,127
60894,note_off,127,0,0,,0,,,72,127
60895,note_on,1,0,0,,10,,,69,127
61022,note_off,127,0,0,,10,,,69,127
61023,note_on,1,0,0,,5,,,65,127
61150,note_off,127,0,0,,5,,,65,127
61151,note_on,1,0,0,,0,,,60,127
61278,note_off,127,0,0,,0,,,60,127
61279,note_on,1,0,0,,10,,,57,127
61406,note_off,127,0,0,,10,,,57,127
61406,note_off,0,0,0,,5,,,41,127
61407,note_on,1,0,0,,5,,,53,127
61534,note_off,127,0,0,,5,,,53,127
61535,note_on,1,0,0,,0,,,48,127
61662,note_off,127,0,0,,0,,,48,127
61663,note_on,1,0,0,,5,,,41,127
62558,note_off,895,0,0,,5,,,41,127
62559,note_on,1,0,0,,0,,,72,127
62559,note_on,0,0,0,,10,,,69,127
62686,note_off,127,0,0,,10,,,69,127
62686,note_off,0,0,0,,0,,,72,127
62687,note_on,1,0,0,,0,,,72,127
62687,note_on,0,0,0,,10,,,69,127
63071,note_on,384,0,0,,5,,,65,127
63198,note_off,127,0,0,,5,,,65,127
63199,note_on,1,0,0,,5,,,65,127
63326,note_off,127,0,0,,10,,,69,127
63326,note_off,0,0,0,,0,,,72,127
63327,note_on,1,0,0,,11,,,70,127
63454,note_off,127,0,0,,11,,,70,127
63455,note_on,1,0,0,,0,,,72,127
63582,note_off,127,0,0,,0,,,72,127
63583,note_on,1,0,0,,11,,,70,127
63583,note_on,0,0,0,,1,,,73,127
63710,note_off,127,0,0,,1,,,73,127
63710,note_off,0,0,0,,11,,,70,127
63711,note_on,1,0,0,,1,,,73,127
63711,note_on,0,0,0,,11,,,70,127
63838,note_off,127,0,0,,5,,,65,127
63839,note_on,1,0,0,,3,,,63,127
63966,note_off,127,0,0,,3,,,63,127
63966,note_off,0,0,0,,11,,,70,127
63966,note_off,0,0,0,,1,,,73,127
63967,note_on,1,0,0,,5,,,65,127
63967,note_on,0,0,0,,10,,,69,127
63967,note_on,0,0,0,,0,,,72,127
64094,note_off,127,0,0,,5,,,65,127
64095,note_on,1,0,0,,6,,,66,127
64222,note_off,127,0,0,,6,,,66,127
64223,note_on,1,0,0,,5,,,65,127
64350,note_off,127,0,0,,0,,,72,127
64350,note_off,0,0,0,,10,,,69,127
64351,note_on,1,0,0,,0,,,72,127
64478,note_off,127,0,0,,0,,,72,127
64478,note_off,0,0,0,,5,,,65,127
64479,note_on,1,0,0,,3,,,63,127
64479,note_on,0,0,0,,11,,,70,127
64606,note_off,127,0,0,,11,,,70,127
64607,note_on,1,0,0,,10,,,69,127
64734,note_off,127,0,0,,10,,,69,127
64734,note_off,0,0,0,,3,,,63,127
64735,note_on,1,0,0,,1,,,61,127
64735,note_on,0,0,0,,0,,,72,127
64791,note_off,56,0,0,,0,,,72,127
64792,note_on,1,0,0,,11,,,70,127
64847,note_off,55,0,0,,11,,,70,127
64848,note_on,1,0,0,,0,,,72,127
64904,note_off,56,0,0,,0,,,72,127
64905,note_on,1,0,0,,11,,,70,127
64961,note_off,56,0,0,,11,,,70,127
64962,note_on,1,0,0,,0,,,72,127
64989,note_off,27,0,0,,1,,,61,127
64990,note_on,1,0,0,,0,,,60,127
65017,note_off,27,0,0,,0,,,72,127
65018,note_on,1,0,0,,11,,,70,127
65074,note_off,56,0,0,,11,,,70,127
65075,note_on,1,0,0,,10,,,69,127
65131,note_off,56,0,0,,10,,,69,127
65132,note_on,1,0,0,,11,,,70,127
65187,note_off,55,0,0,,11,,,70,127
65188,note_on,1,0,0,,0,,,72,127
65244,note_off,56,0,0,,0,,,72,127
65244,note_off,0,0,0,,0,,,60,127
65245,note_on,1,0,0,,11,,,58,127
65245,note_on,0,0,0,,11,,,70,127
65245,note_on,0,0,0,,1,,,73,127
65372,note_off,127,0,0,,1,,,73,127
65372,note_off,0,0,0,,11,,,70,127
65373,note_on,1,0,0,,1,,,73,127
65373,note_on,0,0,0,,11,,,70,127
65500,note_off,127,0,0,,11,,,70,127
65500,note_off,0,0,0,,1,,,73,127
65501,note_on,1,0,0,,0,,,72,127
65501,note_on,0,0,0,,10,,,69,127
65628,note_off,127,0,0,,10,,,69,127
65628,note_off,0,0,0,,0,,,72,127
65629,note_on,1,0,0,,11,,,70,127
65629,note_on,0,0,0,,1,,,73,127
65756,note_off,127,0,0,,1,,,73,127
65756,note_off,0,0,0,,11,,,70,127
65756,note_off,0,0,0,,11,,,58,127
65757,note_on,1,0,0,,8,,,56,127
65757,note_on,0,0,0,,3,,,75,127
65757,note_on,0,0,0,,8,,,68,127
65884,note_off,127,0,0,,8,,,68,127
65885,note_on,1,0,0,,6,,,66,127
66012,note_off,127,0,0,,6,,,66,127
66012,note_off,0,0,0,,8,,,56,127
66013,note_on,1,0,0,,0,,,60,127
66013,note_on,0,0,0,,5,,,65,127
66140,note_off,127,0,0,,5,,,65,127
66141,note_on,1,0,0,,3,,,63,127
66264,note_off,123,0,0,,3,,,75,127
66268,note_off,4,0,0,,3,,,63,127
66268,note_off,0,0,0,,0,,,60,127
66269,note_on,1,0,0,,1,,,61,127
66269,note_on,0,0,0,,5,,,65,127
66396,note_off,127,0,0,,5,,,65,127
66397,note_on,1,0,0,,1,,,73,127
66397,note_on,0,0,0,,11,,,70,127
66524,note_off,127,0,0,,11,,,70,127
66524,note_off,0,0,0,,1,,,73,127
66524,note_off,0,0,0,,1,,,61,127
66525,note_on,1,0,0,,11,,,58,127
66525,note_on,0,0,0,,0,,,72,127
66525,note_on,0,0,0,,10,,,69,127
66652,note_off,127,0,0,,10,,,69,127
66652,note_off,0,0,0,,0,,,72,127
66653,note_on,1,0,0,,11,,,70,127
66653,note_on,0,0,0,,1,,,73,127
66780,note_off,127,0,0,,1,,,73,127
66780,note_off,0,0,0,,11,,,70,127
66780,note_off,0,0,0,,11,,,58,127
66781,note_on,1,0,0,,8,,,56,127
66781,note_on,0,0,0,,3,,,75,127
66781,note_on,0,0,0,,8,,,68,127
66908,note_off,127,0,0,,8,,,68,127
66909,note_on,1,0,0,,6,,,66,127
67036,note_off,127,0,0,,6,,,66,127
67036,note_off,0,0,0,,8,,,56,127
67037,note_on,1,0,0,,0,,,60,127
67037,note_on,0,0,0,,5,,,65,127
67164,note_off,127,0,0,,5,,,65,127
67165,note_on,1,0,0,,3,,,63,127
67288,note_off,123,0,0,,3,,,75,127
67292,note_off,4,0,0,,3,,,63,127
67292,note_off,0,0,0,,0,,,60,127
67293,note_on,1,0,0,,1,,,61,127
67293,note_on,0,0,0,,5,,,65,127
67420,note_off,127,0,0,,5,,,65,127
67421,note_on,1,0,0,,1,,,73,127
67421,note_on,0,0,0,,5,,,77,127
67548,note_off,127,0,0,,5,,,77,127
67548,note_off,0,0,0,,1,,,73,127
67549,note_on,1,0,0,,0,,,72,127
67549,note_on,0,0,0,,4,,,76,127
67676,note_off,127,0,0,,4,,,76,127
67676,note_off,0,0,0,,0,,,72,127
67677,note_on,1,0,0,,1,,,73,127
67677,note_on,0,0,0,,5,,,77,127
67804,note_off,127,0,0,,5,,,77,127
67804,note_off,0,0,0,,1,,,73,127
67804,note_off,0,0,0,,1,,,61,127
67805,note_on,1,0,0,,0,,,60,127
67805,note_on,0,0,0,,7,,,79,127
67805,note_on,0,0,0,,0,,,72,127
67932,note_off,127,0,0,,0,,,72,127
67933,note_on,1,0,0,,11,,,70,127
68060,note_off,127,0,0,,11,,,70,127
68060,note_off,0,0,0,,0,,,60,127
68061,note_on,1,0,0,,4,,,64,127
68061,note_on,0,0,0,,8,,,68,127
68188,note_off,127,0,0,,8,,,68,127
68189,note_on,1,0,0,,7,,,67,127
68312,note_off,123,0,0,,7,,,79,127
68316,note_off,4,0,0,,7,,,67,127
68316,note_off,0,0,0,,4,,,64,127
68317,note_on,1,0,0,,5,,,65,127
68317,note_on,0,0,0,,8,,,68,127
68444,note_off,127,0,0,,8,,,68,127
68445,note_on,1,0,0,,1,,,73,127
68445,note_on,0,0,0,,5,,,77,127
68572,note_off,127,0,0,,5,,,77,127
68572,note_off,0,0,0,,1,,,73,127
68572,note_off,0,0,0,,5,,,65,127
68573,note_on,1,0,0,,1,,,61,127
68573,note_on,0,0,0,,0,,,72,127
68573,note_on,0,0,0,,4,,,76,127
68700,note_off,127,0,0,,4,,,76,127
68700,note_off,0,0,0,,0,,,72,127
68701,note_on,1,0,0,,1,,,73,127
68701,note_on,0,0,0,,5,,,77,127
68828,note_off,127,0,0,,5,,,77,127
68828,note_off,0,0,0,,1,,,73,127
68828,note_off,0,0,0,,1,,,61,127
68829,note_on,1,0,0,,0,,,60,127
68829,note_on,0,0,0,,7,,,79,127
68829,note_on,0,0,0,,0,,,72,127
68956,note_off,127,0,0,,0,,,72,127
68957,note_on,1,0,0,,11,,,70,127
69084,note_off,127,0,0,,11,,,70,127
69084,note_off,0,0,0,,0,,,60,127
69085,note_on,1,0,0,,4,,,64,127
69085,note_on,0,0,0,,8,,,68,127
69212,note_off,127,0,0,,8,,,68,127
69213,note_on,1,0,0,,7,,,67,127
69336,note_off,123,0,0,,7,,,79,127
69340,note_off,4,0,0,,7,,,67,127
69340,note_off,0,0,0,,4,,,64,127
69341,note_on,1,0,0,,5,,,65,127
69341,note_on,0,0,0,,8,,,68,127
69468,note_off,127,0,0,,8,,,68,127
69469,note_on,1,0,0,,5,,,77,127
69469,note_on,0,0,0,,8,,,80,127
69596,note_off,127,0,0,,8,,,80,127
69596,note_off,0,0,0,,5,,,77,127
69597,note_on,1,0,0,,7,,,79,127
69597,note_on,0,0,0,,4,,,76,127
69724,note_off,127,0,0,,4,,,76,127
69724,note_off,0,0,0,,7,,,79,127
69725,note_on,1,0,0,,5,,,77,127
69725,note_on,0,0,0,,8,,,80,127
69852,note_off,127,0,0,,8,,,80,127
69852,note_off,0,0,0,,5,,,77,127
69852,note_off,0,0,0,,5,,,65,127
69853,note_on,1,0,0,,3,,,63,127
69853,note_on,0,0,0,,11,,,82,127
69853,note_on,0,0,0,,3,,,75,127
69980,note_off,127,0,0,,3,,,75,127
69981,note_on,1,0,0,,1,,,73,127
70108,note_off,127,0,0,,1,,,73,127
70108,note_off,0,0,0,,3,,,63,127
70109,note_on,1,0,0,,7,,,67,127
70109,note_on,0,0,0,,0,,,72,127
70236,note_off,127,0,0,,0,,,72,127
70237,note_on,1,0,0,,11,,,70,127
70360,note_off,123,0,0,,11,,,82,127
70364,note_off,4,0,0,,11,,,70,127
70364,note_off,0,0,0,,7,,,67,127
70365,note_on,1,0,0,,8,,,68,127
70365,note_on,0,0,0,,0,,,72,127
70492,note_off,127,0,0,,0,,,72,127
70493,note_on,1,0,0,,8,,,80,127
70493,note_on,0,0,0,,5,,,77,127
70620,note_off,127,0,0,,5,,,77,127
70620,note_off,0,0,0,,8,,,80,127
70620,note_off,0,0,0,,8,,,68,127
70621,note_on,1,0,0,,5,,,65,127
70621,note_on,0,0,0,,3,,,75,127
70621,note_on,0,0,0,,7,,,79,127
70748,note_off,127,0,0,,7,,,79,127
70748,note_off,0,0,0,,3,,,75,127
70749,note_on,1,0,0,,5,,,77,127
70749,note_on,0,0,0,,8,,,80,127
70876,note_off,127,0,0,,8,,,80,127
70876,note_off,0,0,0,,5,,,77,127
70876,note_off,0,0,0,,5,,,65,127
70877,note_on,1,0,0,,3,,,63,127
70877,note_on,0,0,0,,11,,,82,127
70877,note_on,0,0,0,,3,,,75,127
71004,note_off,127,0,0,,3,,,75,127
71005,note_on,1,0,0,,1,,,73,127
71132,note_off,127,0,0,,1,,,73,127
71132,note_off,0,0,0,,3,,,63,127
71133,note_on,1,0,0,,7,,,67,127
71133,note_on,0,0,0,,0,,,72,127
71260,note_off,127,0,0,,0,,,72,127
71261,note_on,1,0,0,,11,,,70,127
71384,note_off,123,0,0,,11,,,82,127
71388,note_off,4,0,0,,11,,,70,127
71388,note_off,0,0,0,,7,,,67,127
71389,note_on,1,0,0,,8,,,68,127
71389,note_on,0,0,0,,0,,,72,127
71516,note_off,127,0,0,,0,,,72,127
71517,note_on,1,0,0,,0,,,84,127
71517,note_on,0,0,0,,8,,,80,127
71644,note_off,127,0,0,,8,,,80,127
71644,note_off,0,0,0,,0,,,84,127
71645,note_on,1,0,0,,1,,,85,127
71645,note_on,0,0,0,,11,,,82,127
71772,note_off,127,0,0,,11,,,82,127
71772,note_off,0,0,0,,1,,,85,127
71773,note_on,1,0,0,,8,,,80,127
71773,note_on,0,0,0,,0,,,84,127
71900,note_off,127,0,0,,0,,,84,127
71900,note_off,0,0,0,,8,,,80,127
71900,note_off,0,0,0,,8,,,68,127
71901,note_on,1,0,0,,11,,,70,127
71901,note_on,0,0,0,,1,,,85,127
71901,note_on,0,0,0,,11,,,82,127
72028,note_off,127,0,0,,11,,,82,127
72029,note_on,1,0,0,,8,,,80,127
72156,note_off,127,0,0,,8,,,80,127
72156,note_off,0,0,0,,11,,,70,127
72157,note_on,1,0,0,,1,,,73,127
72157,note_on,0,0,0,,7,,,79,127
72284,note_off,127,0,0,,7,,,79,127
72285,note_on,1,0,0,,5,,,77,127
72412,note_off,127,0,0,,5,,,77,127
72412,note_off,0,0,0,,1,,,73,127
72413,note_on,1,0,0,,0,,,72,127
72413,note_on,0,0,0,,4,,,76,127
72540,note_off,127,0,0,,4,,,76,127
72541,note_off,1,0,0,,1,,,85,127
72541,note_on,0,0,0,,0,,,84,127
72541,note_on,0,0,0,,8,,,80,127
72668,note_off,127,0,0,,8,,,80,127
72668,note_off,0,0,0,,0,,,84,127
72668,note_off,0,0,0,,0,,,72,127
72669,note_on,1,0,0,,8,,,68,127
72669,note_on,0,0,0,,1,,,85,127
72669,note_on,0,0,0,,11,,,82,127
72796,note_off,127,0,0,,11,,,82,127
72796,note_off,0,0,0,,1,,,85,127
72797,note_on,1,0,0,,0,,,84,127
72797,note_on,0,0,0,,8,,,80,127
72924,note_off,127,0,0,,8,,,80,127
72924,note_off,0,0,0,,0,,,84,127
72924,note_off,0,0,0,,8,,,68,127
72925,note_on,1,0,0,,11,,,70,127
72925,note_on,0,0,0,,11,,,82,127
72925,note_on,0,0,0,,1,,,85,127
73052,note_off,127,0,0,,11,,,82,127
73053,note_on,1,0,0,,8,,,80,127
73180,note_off,127,0,0,,8,,,80,127
73180,note_off,0,0,0,,11,,,70,127
73181,note_on,1,0,0,,1,,,73,127
73181,note_on,0,0,0,,7,,,79,127
73298,note_off,117,0,0,,1,,,85,127
73307,note_off,9,0,0,,7,,,79,127
73308,note_on,1,0,0,,5,,,77,127
73435,note_off,127,0,0,,5,,,77,127
73436,note_on,1,0,0,,4,,,76,127
73563,note_off,127,0,0,,1,,,73,127
73564,note_on,1,0,0,,0,,,72,127
73691,note_off,127,0,0,,0,,,72,127
73692,note_on,1,0,0,,1,,,73,127
73819,note_off,127,0,0,,1,,,73,127
73820,note_on,1,0,0,,0,,,72,127
73943,note_off,123,0,0,,4,,,76,127
73947,note_off,4,0,0,,0,,,72,127
73948,note_on,1,0,0,,11,,,70,127
74075,note_off,127,0,0,,11,,,70,127
74076,note_on,1,0,0,,8,,,68,127
74203,note_off,127,0,0,,8,,,68,127
74204,note_on,1,0,0,,7,,,67,127
74331,note_off,127,0,0,,7,,,67,127
74332,note_on,1,0,0,,5,,,65,127
74459,note_off,127,0,0,,5,,,65,127
74460,note_on,1,0,0,,4,,,64,127
74587,note_off,127,0,0,,4,,,64,127
74588,note_on,1,0,0,,1,,,61,127
74715,note_off,127,0,0,,1,,,61,127
74716,note_on,1,0,0,,0,,,60,127
74716,note_on,0,0,0,,7,,,79,127
74843,note_off,127,0,0,,0,,,60,127
74844,note_on,1,0,0,,11,,,58,127
74971,note_off,127,0,0,,11,,,58,127
74972,note_on,1,0,0,,8,,,56,127
75099,note_off,127,0,0,,8,,,56,127
75100,note_on,1,0,0,,7,,,55,127
75227,note_off,127,0,0,,7,,,55,127
75227,note_off,0,0,0,,7,,,79,127
75228,note_on,1,0,0,,5,,,53,127
75228,note_on,0,0,0,,0,,,84,127
75355,note_off,127,0,0,,5,,,53,127
75356,note_on,1,0,0,,4,,,52,127
75483,note_off,127,0,0,,4,,,52,127
75484,note_on,1,0,0,,1,,,49,127
75611,note_off,127,0,0,,0,,,84,127
75612,note_on,1,0,0,,11,,,82,127
75739,note_off,127,0,0,,11,,,82,127
75740,note_on,1,0,0,,11,,,58,127
75740,note_on,0,0,0,,8,,,80,127
75867,note_off,127,0,0,,8,,,80,127
75868,note_on,1,0,0,,7,,,79,127
75991,note_off,123,0,0,,1,,,49,127
75995,note_off,4,0,0,,7,,,79,127
75995,note_off,0,0,0,,11,,,58,127
75996,note_on,1,0,0,,0,,,48,127
75996,note_on,0,0,0,,8,,,80,127
76123,note_off,127,0,0,,8,,,80,127
76124,note_on,1,0,0,,5,,,77,127
76251,note_off,127,0,0,,5,,,77,127
76252,note_on,1,0,0,,0,,,60,127
76252,note_on,0,0,0,,7,,,79,127
76379,note_off,127,0,0,,7,,,79,127
76380,note_on,1,0,0,,4,,,76,127
76503,note_off,123,0,0,,0,,,48,127
76507,note_off,4,0,0,,4,,,76,127
76507,note_off,0,0,0,,0,,,60,127
76508,note_on,1,0,0,,5,,,65,127
76508,note_on,0,0,0,,5,,,77,127
76635,note_off,127,0,0,,5,,,77,127
76636,note_on,1,0,0,,8,,,68,127
76636,note_on,0,0,0,,5,,,77,127
76763,note_off,127,0,0,,5,,,77,127
76763,note_off,0,0,0,,8,,,68,127
76764,note_on,1,0,0,,11,,,70,127
76764,note_on,0,0,0,,7,,,79,127
76891,note_off,127,0,0,,7,,,79,127
76891,note_off,0,0,0,,11,,,70,127
76892,note_on,1,0,0,,0,,,72,127
76892,note_on,0,0,0,,8,,,80,127
77019,note_off,127,0,0,,8,,,80,127
77019,note_off,0,0,0,,0,,,72,127
77020,note_on,1,0,0,,1,,,73,127
77020,note_on,0,0,0,,11,,,82,127
77147,note_off,127,0,0,,11,,,82,127
77147,note_off,0,0,0,,1,,,73,127
77148,note_on,1,0,0,,0,,,72,127
77148,note_on,0,0,0,,8,,,80,127
77275,note_off,127,0,0,,8,,,80,127
77275,note_off,0,0,0,,0,,,72,127
77276,note_on,1,0,0,,11,,,70,127
77276,note_on,0,0,0,,7,,,79,127
77403,note_off,127,0,0,,7,,,79,127
77403,note_off,0,0,0,,11,,,70,127
77404,note_on,1,0,0,,8,,,68,127
77404,note_on,0,0,0,,5,,,77,127
77521,note_off,117,0,0,,5,,,65,127
77530,note_off,9,0,0,,5,,,77,127
77530,note_off,0,0,0,,8,,,68,127
77531,note_on,1,0,0,,0,,,60,127
77531,note_on,0,0,0,,0,,,84,127
77658,note_off,127,0,0,,0,,,84,127
77659,note_on,1,0,0,,7,,,67,127
77659,note_on,0,0,0,,4,,,76,127
77786,note_off,127,0,0,,4,,,76,127
77786,note_off,0,0,0,,7,,,67,127
77787,note_on,1,0,0,,8,,,68,127
77787,note_on,0,0,0,,5,,,77,127
77914,note_off,127,0,0,,5,,,77,127
77914,note_off,0,0,0,,8,,,68,127
77915,note_on,1,0,0,,11,,,70,127
77915,note_on,0,0,0,,7,,,79,127
78042,note_off,127,0,0,,7,,,79,127
78042,note_off,0,0,0,,11,,,70,127
78043,note_on,1,0,0,,0,,,72,127
78043,note_on,0,0,0,,8,,,80,127
78170,note_off,127,0,0,,8,,,80,127
78170,note_off,0,0,0,,0,,,72,127
78171,note_on,1,0,0,,11,,,70,127
78171,note_on,0,0,0,,7,,,79,127
78298,note_off,127,0,0,,7,,,79,127
78298,note_off,0,0,0,,11,,,70,127
78299,note_on,1,0,0,,8,,,68,127
78299,note_on,0,0,0,,5,,,77,127
78426,note_off,127,0,0,,5,,,77,127
78426,note_off,0,0,0,,8,,,68,127
78427,note_on,1,0,0,,7,,,67,127
78427,note_on,0,0,0,,4,,,76,127
78544,note_off,117,0,0,,0,,,60,127
78553,note_off,9,0,0,,4,,,76,127
78553,note_off,0,0,0,,7,,,67,127
78554,note_on,1,0,0,,5,,,65,127
78554,note_on,0,0,0,,5,,,77,127
78681,note_off,127,0,0,,5,,,77,127
78682,note_on,1,0,0,,8,,,68,127
78682,note_on,0,0,0,,5,,,77,127
78809,note_off,127,0,0,,5,,,77,127
78809,note_off,0,0,0,,8,,,68,127
78810,note_on,1,0,0,,11,,,70,127
78810,note_on,0,0,0,,7,,,79,127
78937,note_off,127,0,0,,7,,,79,127
78937,note_off,0,0,0,,11,,,70,127
78938,note_on,1,0,0,,0,,,72,127
78938,note_on,0,0,0,,8,,,80,127
79065,note_off,127,0,0,,8,,,80,127
79065,note_off,0,0,0,,0,,,72,127
79066,note_on,1,0,0,,1,,,73,127
79066,note_on,0,0,0,,11,,,82,127
79193,note_off,127,0,0,,11,,,82,127
79193,note_off,0,0,0,,1,,,73,127
79194,note_on,1,0,0,,0,,,72,127
79194,note_on,0,0,0,,8,,,80,127
79321,note_off,127,0,0,,8,,,80,127
79321,note_off,0,0,0,,0,,,72,127
79322,note_on,1,0,0,,11,,,70,127
79322,note_on,0,0,0,,7,,,79,127
79449,note_off,127,0,0,,7,,,79,127
79449,note_off,0,0,0,,11,,,70,127
79450,note_on,1,0,0,,8,,,68,127
79450,note_on,0,0,0,,5,,,77,127
79567,note_off,117,0,0,,5,,,65,127
79576,note_off,9,0,0,,5,,,77,127
79576,note_off,0,0,0,,8,,,68,127
79577,note_on,1,0,0,,0,,,60,127
79577,note_on,0,0,0,,0,,,84,127
79704,note_off,127,0,0,,0,,,84,127
79705,note_on,1,0,0,,7,,,67,127
79705,note_on,0,0,0,,4,,,76,127
79832,note_off,127,0,0,,4,,,76,127
79832,note_off,0,0,0,,7,,,67,127
79833,note_on,1,0,0,,8,,,68,127
79833,note_on,0,0,0,,5,,,77,127
79960,note_off,127,0,0,,5,,,77,127
79960,note_off,0,0,0,,8,,,68,127
79961,note_on,1,0,0,,11,,,70,127
79961,note_on,0,0,0,,7,,,79,127
80088,note_off,127,0,0,,7,,,79,127
80088,note_off,0,0,0,,11,,,70,127
80089,note_on,1,0,0,,0,,,72,127
80089,note_on,0,0,0,,8,,,80,127
80216,note_off,127,0,0,,8,,,80,127
80216,note_off,0,0,0,,0,,,72,127
80217,note_on,1,0,0,,11,,,70,127
80217,note_on,0,0,0,,7,,,79,127
80344,note_off,127,0,0,,7,,,79,127
80344,note_off,0,0,0,,11,,,70,127
80344,note_off,0,0,0,,0,,,60,127
80345,note_on,1,0,0,,8,,,68,127
80345,note_on,0,0,0,,5,,,77,127
80472,note_off,127,0,0,,5,,,77,127
80472,note_off,0,0,0,,8,,,68,127
80473,note_on,1,0,0,,7,,,67,127
80473,note_on,0,0,0,,4,,,76,127
80600,note_off,127,0,0,,4,,,76,127
80600,note_off,0,0,0,,7,,,67,127
80601,note_on,1,0,0,,5,,,65,127
80601,note_on,0,0,0,,5,,,77,127
80728,note_off,127,0,0,,5,,,77,127
80729,note_on,1,0,0,,0,,,72,127
80856,note_off,127,0,0,,0,,,72,127
80856,note_off,0,0,0,,5,,,65,127
80857,note_on,1,0,0,,11,,,58,127
80857,note_on,0,0,0,,1,,,73,127
80984,note_off,127,0,0,,1,,,73,127
80985,note_on,1,0,0,,11,,,70,127
81112,note_off,127,0,0,,11,,,70,127
81112,note_off,0,0,0,,11,,,58,127
81113,note_on,1,0,0,,0,,,60,127
81113,note_on,0,0,0,,8,,,68,127
81240,note_off,127,0,0,,8,,,68,127
81241,note_on,1,0,0,,5,,,77,127
81368,note_off,127,0,0,,5,,,77,127
81369,note_on,1,0,0,,0,,,48,127
81369,note_on,0,0,0,,7,,,67,127
81496,note_off,127,0,0,,7,,,67,127
81497,note_on,1,0,0,,4,,,76,127
81620,note_off,123,0,0,,0,,,60,127
81624,note_off,4,0,0,,4,,,76,127
81624,note_off,0,0,0,,0,,,48,127
81625,note_on,1,0,0,,5,,,53,127
81625,note_on,0,0,0,,5,,,77,127
81752,note_off,127,0,0,,5,,,77,127
81753,note_on,1,0,0,,8,,,56,127
81753,note_on,0,0,0,,5,,,65,127
81880,note_off,127,0,0,,5,,,65,127
81880,note_off,0,0,0,,8,,,56,127
81881,note_on,1,0,0,,11,,,58,127
81881,note_on,0,0,0,,7,,,67,127
82008,note_off,127,0,0,,7,,,67,127
82008,note_off,0,0,0,,11,,,58,127
82009,note_on,1,0,0,,0,,,60,127
82009,note_on,0,0,0,,8,,,68,127
82136,note_off,127,0,0,,8,,,68,127
82136,note_off,0,0,0,,0,,,60,127
82137,note_on,1,0,0,,1,,,61,127
82137,note_on,0,0,0,,11,,,70,127
82264,note_off,127,0,0,,11,,,70,127
82264,note_off,0,0,0,,1,,,61,127
82265,note_on,1,0,0,,0,,,60,127
82265,note_on,0,0,0,,8,,,68,127
82392,note_off,127,0,0,,8,,,68,127
82392,note_off,0,0,0,,0,,,60,127
82393,note_on,1,0,0,,11,,,58,127
82393,note_on,0,0,0,,7,,,67,127
82520,note_off,127,0,0,,7,,,67,127
82520,note_off,0,0,0,,11,,,58,127
82521,note_on,1,0,0,,8,,,56,127
82521,note_on,0,0,0,,5,,,65,127
82638,note_off,117,0,0,,5,,,53,127
82647,note_off,9,0,0,,5,,,65,127
82647,note_off,0,0,0,,8,,,56,127
82648,note_on,1,0,0,,0,,,48,127
82648,note_on,0,0,0,,4,,,76,127
82775,note_off,127,0,0,,4,,,76,127
82776,note_on,1,0,0,,7,,,55,127
82776,note_on,0,0,0,,4,,,64,127
82903,note_off,127,0,0,,4,,,64,127
82903,note_off,0,0,0,,7,,,55,127
82904,note_on,1,0,0,,8,,,56,127
82904,note_on,0,0,0,,5,,,65,127
83031,note_off,127,0,0,,5,,,65,127
83031,note_off,0,0,0,,8,,,56,127
83032,note_on,1,0,0,,11,,,58,127
83032,note_on,0,0,0,,7,,,67,127
83159,note_off,127,0,0,,7,,,67,127
83159,note_off,0,0,0,,11,,,58,127
83160,note_on,1,0,0,,0,,,60,127
83160,note_on,0,0,0,,8,,,68,127
83287,note_off,127,0,0,,8,,,68,127
83287,note_off,0,0,0,,0,,,60,127
83288,note_on,1,0,0,,11,,,58,127
83288,note_on,0,0,0,,7,,,67,127
83415,note_off,127,0,0,,7,,,67,127
83415,note_off,0,0,0,,11,,,58,127
83416,note_on,1,0,0,,8,,,56,127
83416,note_on,0,0,0,,5,,,65,127
83543,note_off,127,0,0,,5,,,65,127
83543,note_off,0,0,0,,8,,,56,127
83544,note_on,1,0,0,,7,,,55,127
83544,note_on,0,0,0,,4,,,64,127
83661,note_off,117,0,0,,0,,,48,127
83670,note_off,9,0,0,,4,,,64,127
83670,note_off,0,0,0,,7,,,55,127
83671,note_on,1,0,0,,5,,,53,127
83671,note_on,0,0,0,,5,,,77,127
83798,note_off,127,0,0,,5,,,77,127
83799,note_on,1,0,0,,8,,,56,127
83799,note_on,0,0,0,,5,,,65,127
83926,note_off,127,0,0,,5,,,65,127
83926,note_off,0,0,0,,8,,,56,127
83927,note_on,1,0,0,,11,,,58,127
83927,note_on,0,0,0,,7,,,67,127
84054,note_off,127,0,0,,7,,,67,127
84054,note_off,0,0,0,,11,,,58,127
84055,note_on,1,0,0,,0,,,60,127
84055,note_on,0,0,0,,8,,,68,127
84182,note_off,127,0,0,,8,,,68,127
84182,note_off,0,0,0,,0,,,60,127
84183,note_on,1,0,0,,1,,,61,127
84183,note_on,0,0,0,,11,,,70,127
84310,note_off,127,0,0,,11,,,70,127
84310,note_off,0,0,0,,1,,,61,127
84311,note_on,1,0,0,,0,,,60,127
84311,note_on,0,0,0,,8,,,68,127
84438,note_off,127,0,0,,8,,,68,127
84438,note_off,0,0,0,,0,,,60,127
84439,note_on,1,0,0,,11,,,58,127
84439,note_on,0,0,0,,7,,,67,127
84566,note_off,127,0,0,,7,,,67,127
84566,note_off,0,0,0,,11,,,58,127
84567,note_on,1,0,0,,8,,,56,127
84567,note_on,0,0,0,,5,,,65,127
84684,note_off,117,0,0,,5,,,53,127
84693,note_off,9,0,0,,5,,,65,127
84693,note_off,0,0,0,,8,,,56,127
84694,note_on,1,0,0,,0,,,48,127
84694,note_on,0,0,0,,7,,,79,127
84821,note_off,127,0,0,,7,,,79,127
84822,note_on,1,0,0,,7,,,55,127
84822,note_on,0,0,0,,4,,,64,127
84949,note_off,127,0,0,,4,,,64,127
84949,note_off,0,0,0,,7,,,55,127
84950,note_on,1,0,0,,8,,,56,127
84950,note_on,0,0,0,,5,,,65,127
85077,note_off,127,0,0,,5,,,65,127
85077,note_off,0,0,0,,8,,,56,127
85078,note_on,1,0,0,,11,,,58,127
85078,note_on,0,0,0,,7,,,67,127
85205,note_off,127,0,0,,7,,,67,127
85205,note_off,0,0,0,,11,,,58,127
85206,note_on,1,0,0,,0,,,60,127
85206,note_on,0,0,0,,8,,,68,127
85333,note_off,127,0,0,,8,,,68,127
85333,note_off,0,0,0,,0,,,60,127
85334,note_on,1,0,0,,11,,,58,127
85334,note_on,0,0,0,,7,,,67,127
85461,note_off,127,0,0,,7,,,67,127
85461,note_off,0,0,0,,11,,,58,127
85461,note_off,0,0,0,,0,,,48,127
85462,note_on,1,0,0,,8,,,56,127
85462,note_on,0,0,0,,5,,,65,127
85589,note_off,127,0,0,,5,,,65,127
85589,note_off,0,0,0,,8,,,56,127
85590,note_on,1,0,0,,7,,,55,127
85590,note_on,0,0,0,,4,,,64,127
85717,note_off,127,0,0,,4,,,64,127
85717,note_off,0,0,0,,7,,,55,127
85718,note_on,1,0,0,,5,,,53,127
85718,note_on,0,0,0,,5,,,65,127
85845,note_off,127,0,0,,5,,,65,127
85846,note_on,1,0,0,,0,,,60,127
85973,note_off,127,0,0,,0,,,60,127
85973,note_off,0,0,0,,5,,,53,127
85974,note_on,1,0,0,,11,,,46,127
85974,note_on,0,0,0,,1,,,61,127
86101,note_off,127,0,0,,1,,,61,127
86102,note_on,1,0,0,,11,,,58,127
86229,note_off,127,0,0,,11,,,58,127
86229,note_off,0,0,0,,11,,,46,127
86230,note_on,1,0,0,,0,,,48,127
86230,note_on,0,0,0,,8,,,56,127
86357,note_off,127,0,0,,8,,,56,127
86358,note_on,1,0,0,,5,,,65,127
86485,note_off,127,0,0,,5,,,65,127
86486,note_on,1,0,0,,0,,,36,127
86486,note_on,0,0,0,,7,,,55,127
86613,note_off,127,0,0,,7,,,55,127
86614,note_on,1,0,0,,4,,,64,127
86737,note_off,123,0,0,,0,,,48,127
86741,note_off,4,0,0,,4,,,64,127
86741,note_off,0,0,0,,0,,,36,127
86782,note_on,41,0,0,,5,,,77,127
86782,note_on,0,0,0,,5,,,53,127
86909,note_off,127,0,0,,5,,,77,127
86910,note_on,1,0,0,,5,,,77,127
87037,note_off,127,0,0,,5,,,53,127
87038,note_on,1,0,0,,8,,,56,127
87101,note_off,63,0,0,,5,,,77,127
87102,note_on,1,0,0,,0,,,72,127
87165,note_off,63,0,0,,0,,,72,127
87166,note_on,1,0,0,,1,,,73,127
87229,note_off,63,0,0,,1,,,73,127
87230,note_on,1,0,0,,3,,,75,127
87293,note_off,63,0,0,,3,,,75,127
87293,note_off,0,0,0,,8,,,56,127
87294,note_on,1,0,0,,1,,,73,127
87294,note_on,0,0,0,,11,,,58,127
87421,note_off,127,0,0,,1,,,73,127
87422,note_on,1,0,0,,11,,,70,127
87549,note_off,127,0,0,,11,,,58,127
87550,note_on,1,0,0,,4,,,52,127
87613,note_off,63,0,0,,11,,,70,127
87614,note_on,1,0,0,,7,,,67,127
87677,note_off,63,0,0,,7,,,67,127
87678,note_on,1,0,0,,8,,,68,127
87741,note_off,63,0,0,,8,,,68,127
87742,note_on,1,0,0,,11,,,70,127
87805,note_off,63,0,0,,11,,,70,127
87805,note_off,0,0,0,,4,,,52,127
87806,note_on,1,0,0,,8,,,68,127
87806,note_on,0,0,0,,5,,,53,127
87933,note_off,127,0,0,,8,,,68,127
87934,note_on,1,0,0,,0,,,72,127
88061,note_off,127,0,0,,0,,,72,127
88061,note_off,0,0,0,,5,,,53,127
88062,note_on,1,0,0,,11,,,70,127
88062,note_on,0,0,0,,8,,,56,127
88125,note_off,63,0,0,,11,,,70,127
88126,note_on,1,0,0,,8,,,68,127
88189,note_off,63,0,0,,8,,,68,127
88190,note_on,1,0,0,,7,,,67,127
88253,note_off,63,0,0,,7,,,67,127
88254,note_on,1,0,0,,5,,,65,127
88317,note_off,63,0,0,,5,,,65,127
88317,note_off,0,0,0,,8,,,56,127
88318,note_on,1,0,0,,7,,,67,127
88318,note_on,0,0,0,,11,,,58,127
88445,note_off,127,0,0,,7,,,67,127
88446,note_on,1,0,0,,11,,,70,127
88573,note_off,127,0,0,,11,,,70,127
88573,note_off,0,0,0,,11,,,58,127
88574,note_on,1,0,0,,8,,,68,127
88574,note_on,0,0,0,,0,,,60,127
88637,note_off,63,0,0,,8,,,68,127
88638,note_on,1,0,0,,7,,,67,127
88701,note_off,63,0,0,,7,,,67,127
88702,note_on,1,0,0,,5,,,65,127
88765,note_off,63,0,0,,5,,,65,127
88766,note_on,1,0,0,,4,,,64,127
88829,note_off,63,0,0,,4,,,64,127
88829,note_off,0,0,0,,0,,,60,127
88838,note_on,9,0,0,,5,,,65,127
88838,note_on,0,0,0,,5,,,53,127
88967,note_off,129,0,0,,5,,,65,127
88970,note_on,3,0,0,,5,,,65,127
89099,note_off,129,0,0,,5,,,53,127
89100,note_on,1,0,0,,8,,,44,127
89165,note_off,65,0,0,,5,,,65,127
89166,note_on,1,0,0,,0,,,60,127
89230,note_off,64,0,0,,0,,,60,127
89231,note_on,1,0,0,,1,,,61,127
89295,note_off,64,0,0,,1,,,61,127
89298,note_on,3,0,0,,3,,,63,127
89361,note_off,63,0,0,,8,,,44,127
89362,note_off,1,0,0,,3,,,63,127
89363,note_on,1,0,0,,1,,,61,127
89363,note_on,0,0,0,,11,,,46,127
89492,note_off,129,0,0,,1,,,61,127
89495,note_on,3,0,0,,11,,,58,127
89624,note_off,129,0,0,,11,,,46,127
89627,note_on,3,0,0,,4,,,40,127
89691,note_off,64,0,0,,11,,,58,127
89692,note_on,1,0,0,,7,,,55,127
89756,note_off,64,0,0,,7,,,55,127
89759,note_on,3,0,0,,8,,,56,127
89823,note_off,64,0,0,,8,,,56,127
89824,note_on,1,0,0,,11,,,58,127
89888,note_off,64,0,0,,11,,,58,127
89888,note_off,0,0,0,,4,,,40,127
89891,note_on,3,0,0,,8,,,56,127
89891,note_on,0,0,0,,5,,,41,127
90020,note_off,129,0,0,,8,,,56,127
90023,note_on,3,0,0,,0,,,60,127
90152,note_off,129,0,0,,0,,,60,127
90152,note_off,0,0,0,,5,,,41,127
90153,note_on,1,0,0,,11,,,58,127
90153,note_on,0,0,0,,8,,,44,127
90217,note_off,64,0,0,,11,,,58,127
90220,note_on,3,0,0,,8,,,56,127
90284,note_off,64,0,0,,8,,,56,127
90285,note_on,1,0,0,,7,,,55,127
90349,note_off,64,0,0,,7,,,55,127
90352,note_on,3,0,0,,5,,,53,127
90415,note_off,63,0,0,,8,,,44,127
90416,note_off,1,0,0,,5,,,53,127
90417,note_on,1,0,0,,7,,,55,127
90417,note_on,0,0,0,,11,,,46,127
90546,note_off,129,0,0,,7,,,55,127
90549,note_on,3,0,0,,11,,,58,127
90678,note_off,129,0,0,,11,,,58,127
90678,note_off,0,0,0,,11,,,46,127
90681,note_on,3,0,0,,8,,,56,127
90681,note_on,0,0,0,,0,,,48,127
90745,note_off,64,0,0,,8,,,56,127
90746,note_on,1,0,0,,7,,,55,127
90810,note_off,64,0,0,,7,,,55,127
90813,note_on,3,0,0,,5,,,53,127
90877,note_off,64,0,0,,5,,,53,127
90878,note_on,1,0,0,,4,,,52,127
90942,note_off,64,0,0,,4,,,52,127
90942,note_off,0,0,0,,0,,,48,127
90945,note_on,3,0,0,,4,,,52,127
90945,note_on,0,0,0,,5,,,41,127
91406,note_off,461,0,0,,4,,,52,127
91406,note_on,0,0,0,,5,,,53,127
93139,note_off,1733,0,0,,5,,,53,127
93139,note_off,0,0,0,,5,,,41,127
95232,end_of_track,2093,1,0,,,,,,
