tick,type,time,meta,track,program,channel,pitch,tempo,note,velocity
0,copyright,0,1,0,,,,,,
0,program_change,0,0,0,6,0,,,,
0,pitchwheel,0,0,0,,0,0,,,
0,program_change,0,0,0,6,1,,,,
0,pitchwheel,0,0,0,,1,-590,,,
0,program_change,0,0,0,6,2,,,,
0,pitchwheel,0,0,0,,2,-272,,,
0,program_change,0,0,0,6,3,,,,
0,pitchwheel,0,0,0,,3,-353,,,
0,program_change,0,0,0,6,4,,,,
0,pitchwheel,0,0,0,,4,-560,,,
0,program_change,0,0,0,6,5,,,,
0,pitchwheel,0,0,0,,5,-80,,,
0,program_change,0,0,0,6,6,,,,
0,pitchwheel,0,0,0,,6,-625,,,
0,program_change,0,0,0,6,7,,,,
0,pitchwheel,0,0,0,,7,-130,,,
0,program_change,0,0,0,6,8,,,,
0,pitchwheel,0,0,0,,8,-512,,,
0,program_change,0,0,0,6,10,,,,
0,pitchwheel,0,0,0,,10,-464,,,
0,program_change,0,0,0,6,11,,,,
0,pitchwheel,0,0,0,,11,-208,,,
0,program_change,0,0,0,6,12,,,,
0,pitchwheel,0,0,0,,12,-553,,,
0,set_tempo,0,1,0,,,,500000,,
0,note_on,0,0,0,,0,,,84,127
219,note_on,219,0,0,,0,,,72,127
437,note_off,218,0,0,,0,,,72,127
438,note_on,1,0,0,,8,,,80,127
656,note_off,218,0,0,,8,,,80,127
656,note_off,0,0,0,,0,,,84,127
657,note_on,1,0,0,,11,,,82,127
657,note_on,0,0,0,,7,,,79,127
766,note_off,109,0,0,,7,,,79,127
767,note_on,1,0,0,,5,,,77,127
876,note_off,109,0,0,,5,,,77,127
877,note_on,1,0,0,,4,,,76,127
986,note_off,109,0,0,,4,,,76,127
987,note_on,1,0,0,,2,,,74,127
1096,note_off,109,0,0,,2,,,74,127
1097,note_on,1,0,0,,0,,,72,127
1315,note_off,218,0,0,,0,,,72,127
1315,note_off,0,0,0,,11,,,82,127
1316,note_on,1,0,0,,11,,,82,127
1316,note_on,0,0,0,,5,,,77,127
1370,note_off,54,0,0,,11,,,82,127
1371,note_on,1,0,0,,8,,,80,127
1425,note_off,54,0,0,,8,,,80,127
1426,note_on,1,0,0,,11,,,82,127
1480,note_off,54,0,0,,11,,,82,127
1481,note_on,1,0,0,,8,,,80,127
1535,note_off,54,0,0,,8,,,80,127
1535,note_off,0,0,0,,5,,,77,127
1536,note_on,1,0,0,,7,,,79,127
1536,note_on,0,0,0,,3,,,75,127
1754,note_off,218,0,0,,3,,,75,127
1754,note_off,0,0,0,,7,,,79,127
1755,note_on,1,0,0,,5,,,77,127
1755,note_on,0,0,0,,1,,,73,127
1973,note_off,218,0,0,,1,,,73,127
1973,note_off,0,0,0,,5,,,77,127
1974,note_on,1,0,0,,4,,,76,127
1974,note_on,0,0,0,,0,,,72,127
2192,note_off,218,0,0,,4,,,76,127
2193,note_on,1,0,0,,0,,,84,127
2408,note_off,215,0,0,,0,,,72,127
2411,note_off,3,0,0,,0,,,84,127
2412,note_on,1,0,0,,0,,,72,127
2630,note_off,218,0,0,,0,,,72,127
2631,note_on,1,0,0,,1,,,73,127
2631,note_on,0,0,0,,5,,,65,127
2849,note_off,218,0,0,,5,,,65,127
2850,note_on,1,0,0,,11,,,70,127
2959,note_off,109,0,0,,11,,,70,127
2960,note_on,1,0,0,,8,,,68,127
3069,note_off,109,0,0,,8,,,68,127
3070,note_on,1,0,0,,7,,,67,127
3179,note_off,109,0,0,,7,,,67,127
3180,note_on,1,0,0,,5,,,65,127
3289,note_off,109,0,0,,5,,,65,127
3289,note_off,0,0,0,,1,,,73,127
3290,note_on,1,0,0,,0,,,72,127
3290,note_on,0,0,0,,4,,,64,127
3290,note_on,0,0,0,,7,,,67,127
3508,note_off,218,0,0,,7,,,67,127
3508,note_off,0,0,0,,4,,,64,127
3509,note_on,1,0,0,,5,,,65,127
3509,note_on,0,0,0,,2,,,62,127
3727,note_off,218,0,0,,2,,,62,127
3727,note_off,0,0,0,,5,,,65,127
3728,note_on,1,0,0,,4,,,64,127
3728,note_on,0,0,0,,0,,,60,127
3946,note_off,218,0,0,,0,,,60,127
3946,note_off,0,0,0,,4,,,64,127
3946,note_off,0,0,0,,0,,,72,127
3947,note_on,1,0,0,,11,,,70,127
3947,note_on,0,0,0,,5,,,65,127
3947,note_on,0,0,0,,2,,,62,127
4165,note_off,218,0,0,,2,,,62,127
4165,note_off,0,0,0,,5,,,65,127
4165,note_off,0,0,0,,11,,,70,127
4166,note_on,1,0,0,,8,,,68,127
4166,note_on,0,0,0,,4,,,64,127
4384,note_off,218,0,0,,4,,,64,127
4384,note_off,0,0,0,,8,,,68,127
4385,note_on,1,0,0,,7,,,67,127
4385,note_on,0,0,0,,0,,,60,127
4603,note_off,218,0,0,,0,,,60,127
4603,note_off,0,0,0,,7,,,67,127
4604,note_on,1,0,0,,11,,,70,127
4604,note_on,0,0,0,,5,,,65,127
4658,note_off,54,0,0,,11,,,70,127
4659,note_on,1,0,0,,8,,,68,127
4713,note_off,54,0,0,,8,,,68,127
4714,note_on,1,0,0,,11,,,70,127
4768,note_off,54,0,0,,11,,,70,127
4769,note_on,1,0,0,,8,,,68,127
4823,note_off,54,0,0,,8,,,68,127
4823,note_off,0,0,0,,5,,,65,127
4824,note_on,1,0,0,,11,,,70,127
4824,note_on,0,0,0,,5,,,53,127
4878,note_off,54,0,0,,11,,,70,127
4879,note_on,1,0,0,,8,,,68,127
4933,note_off,54,0,0,,8,,,68,127
4934,note_on,1,0,0,,7,,,67,127
5043,note_off,109,0,0,,7,,,67,127
5044,note_on,1,0,0,,5,,,65,127
5261,note_off,217,0,0,,5,,,65,127
5262,note_off,1,0,0,,5,,,53,127
5263,note_on,1,0,0,,5,,,65,127
5263,note_on,0,0,0,,8,,,68,127
5373,note_on,110,0,0,,0,,,72,127
5482,note_off,109,0,0,,0,,,72,127
5482,note_off,0,0,0,,8,,,68,127
5482,note_off,0,0,0,,5,,,65,127
5483,note_on,1,0,0,,5,,,77,127
5483,note_on,0,0,0,,5,,,65,127
5483,note_on,0,0,0,,8,,,68,127
5592,note_off,109,0,0,,5,,,77,127
5593,note_on,1,0,0,,7,,,79,127
5702,note_off,109,0,0,,7,,,79,127
5702,note_off,0,0,0,,8,,,68,127
5702,note_off,0,0,0,,5,,,65,127
5703,note_on,1,0,0,,8,,,80,127
5703,note_on,0,0,0,,5,,,65,127
5703,note_on,0,0,0,,8,,,68,127
5812,note_off,109,0,0,,8,,,80,127
5813,note_on,1,0,0,,5,,,77,127
5922,note_off,109,0,0,,5,,,77,127
5922,note_off,0,0,0,,8,,,68,127
5922,note_off,0,0,0,,5,,,65,127
5923,note_on,1,0,0,,7,,,79,127
5923,note_on,0,0,0,,7,,,67,127
5923,note_on,0,0,0,,4,,,64,127
6141,note_off,218,0,0,,4,,,64,127
6141,note_off,0,0,0,,7,,,67,127
6141,note_off,0,0,0,,7,,,79,127
6142,note_on,1,0,0,,3,,,75,127
6142,note_on,0,0,0,,4,,,64,127
6142,note_on,0,0,0,,7,,,67,127
6196,note_off,54,0,0,,3,,,75,127
6197,note_on,1,0,0,,1,,,73,127
6251,note_off,54,0,0,,1,,,73,127
6252,note_on,1,0,0,,3,,,75,127
6306,note_off,54,0,0,,3,,,75,127
6307,note_on,1,0,0,,1,,,73,127
6361,note_off,54,0,0,,1,,,73,127
6361,note_off,0,0,0,,7,,,67,127
6361,note_off,0,0,0,,4,,,64,127
6362,note_on,1,0,0,,0,,,72,127
6362,note_on,0,0,0,,4,,,64,127
6362,note_on,0,0,0,,7,,,67,127
6580,note_off,218,0,0,,7,,,67,127
6580,note_off,0,0,0,,4,,,64,127
6581,note_on,1,0,0,,5,,,65,127
6581,note_on,0,0,0,,8,,,68,127
6690,note_off,109,0,0,,0,,,72,127
6691,note_on,1,0,0,,0,,,72,127
6800,note_off,109,0,0,,0,,,72,127
6800,note_off,0,0,0,,8,,,68,127
6800,note_off,0,0,0,,5,,,65,127
6801,note_on,1,0,0,,5,,,77,127
6801,note_on,0,0,0,,5,,,65,127
6801,note_on,0,0,0,,8,,,68,127
6910,note_off,109,0,0,,5,,,77,127
6911,note_on,1,0,0,,7,,,79,127
7020,note_off,109,0,0,,7,,,79,127
7020,note_off,0,0,0,,8,,,68,127
7020,note_off,0,0,0,,5,,,65,127
7021,note_on,1,0,0,,8,,,80,127
7021,note_on,0,0,0,,5,,,65,127
7021,note_on,0,0,0,,8,,,68,127
7130,note_off,109,0,0,,8,,,80,127
7131,note_on,1,0,0,,5,,,77,127
7240,note_off,109,0,0,,5,,,77,127
7240,note_off,0,0,0,,8,,,68,127
7240,note_off,0,0,0,,5,,,65,127
7241,note_on,1,0,0,,7,,,79,127
7241,note_on,0,0,0,,7,,,67,127
7241,note_on,0,0,0,,4,,,64,127
7459,note_off,218,0,0,,4,,,64,127
7459,note_off,0,0,0,,7,,,67,127
7459,note_off,0,0,0,,7,,,79,127
7460,note_on,1,0,0,,3,,,75,127
7460,note_on,0,0,0,,4,,,64,127
7460,note_on,0,0,0,,7,,,67,127
7514,note_off,54,0,0,,3,,,75,127
7515,note_on,1,0,0,,1,,,73,127
7569,note_off,54,0,0,,1,,,73,127
7570,note_on,1,0,0,,3,,,75,127
7624,note_off,54,0,0,,3,,,75,127
7625,note_on,1,0,0,,1,,,73,127
7679,note_off,54,0,0,,1,,,73,127
7679,note_off,0,0,0,,7,,,67,127
7679,note_off,0,0,0,,4,,,64,127
7680,note_on,1,0,0,,0,,,72,127
7680,note_on,0,0,0,,4,,,64,127
7680,note_on,0,0,0,,7,,,67,127
7898,note_off,218,0,0,,7,,,67,127
7898,note_off,0,0,0,,4,,,64,127
7899,note_on,1,0,0,,10,,,69,127
7899,note_on,0,0,0,,3,,,63,127
7899,note_on,0,0,0,,5,,,65,127
8008,note_off,109,0,0,,0,,,72,127
8009,note_on,1,0,0,,0,,,72,127
8118,note_off,109,0,0,,0,,,72,127
8118,note_off,0,0,0,,5,,,65,127
8118,note_off,0,0,0,,3,,,63,127
8118,note_off,0,0,0,,10,,,69,127
8119,note_on,1,0,0,,10,,,81,127
8119,note_on,0,0,0,,10,,,69,127
8119,note_on,0,0,0,,3,,,63,127
8119,note_on,0,0,0,,5,,,65,127
8228,note_off,109,0,0,,10,,,81,127
8229,note_on,1,0,0,,11,,,82,127
8338,note_off,109,0,0,,11,,,82,127
8338,note_off,0,0,0,,5,,,65,127
8338,note_off,0,0,0,,3,,,63,127
8338,note_off,0,0,0,,10,,,69,127
8339,note_on,1,0,0,,0,,,84,127
8339,note_on,0,0,0,,10,,,69,127
8339,note_on,0,0,0,,3,,,63,127
8339,note_on,0,0,0,,5,,,65,127
8448,note_off,109,0,0,,0,,,84,127
8449,note_on,1,0,0,,10,,,81,127
8558,note_off,109,0,0,,10,,,81,127
8558,note_off,0,0,0,,5,,,65,127
8558,note_off,0,0,0,,3,,,63,127
8558,note_off,0,0,0,,10,,,69,127
8559,note_on,1,0,0,,11,,,82,127
8559,note_on,0,0,0,,5,,,65,127
8559,note_on,0,0,0,,1,,,61,127
8559,note_on,0,0,0,,11,,,70,127
8777,note_off,218,0,0,,11,,,70,127
8777,note_off,0,0,0,,1,,,61,127
8777,note_off,0,0,0,,5,,,65,127
8777,note_off,0,0,0,,11,,,82,127
8778,note_on,1,0,0,,8,,,80,127
8778,note_on,0,0,0,,5,,,65,127
8778,note_on,0,0,0,,1,,,61,127
8778,note_on,0,0,0,,11,,,70,127
8832,note_off,54,0,0,,8,,,80,127
8833,note_on,1,0,0,,6,,,78,127
8887,note_off,54,0,0,,6,,,78,127
8888,note_on,1,0,0,,8,,,80,127
8942,note_off,54,0,0,,8,,,80,127
8943,note_on,1,0,0,,6,,,78,127
8997,note_off,54,0,0,,6,,,78,127
8997,note_off,0,0,0,,11,,,70,127
8997,note_off,0,0,0,,1,,,61,127
8997,note_off,0,0,0,,5,,,65,127
8998,note_on,1,0,0,,5,,,77,127
8998,note_on,0,0,0,,11,,,70,127
8998,note_on,0,0,0,,1,,,61,127
8998,note_on,0,0,0,,5,,,65,127
9216,note_off,218,0,0,,5,,,65,127
9216,note_off,0,0,0,,1,,,61,127
9216,note_off,0,0,0,,11,,,70,127
9217,note_on,1,0,0,,5,,,65,127
9217,note_on,0,0,0,,10,,,69,127
9217,note_on,0,0,0,,3,,,63,127
9326,note_off,109,0,0,,5,,,77,127
9327,note_on,1,0,0,,0,,,72,127
9436,note_off,109,0,0,,0,,,72,127
9436,note_off,0,0,0,,3,,,63,127
9436,note_off,0,0,0,,10,,,69,127
9436,note_off,0,0,0,,5,,,65,127
9437,note_on,1,0,0,,10,,,81,127
9437,note_on,0,0,0,,10,,,69,127
9437,note_on,0,0,0,,3,,,63,127
9437,note_on,0,0,0,,5,,,65,127
9546,note_off,109,0,0,,10,,,81,127
9547,note_on,1,0,0,,11,,,82,127
9656,note_off,109,0,0,,11,,,82,127
9656,note_off,0,0,0,,5,,,65,127
9656,note_off,0,0,0,,3,,,63,127
9656,note_off,0,0,0,,10,,,69,127
9657,note_on,1,0,0,,0,,,84,127
9657,note_on,0,0,0,,10,,,69,127
9657,note_on,0,0,0,,3,,,63,127
9657,note_on,0,0,0,,5,,,65,127
9766,note_off,109,0,0,,0,,,84,127
9767,note_on,1,0,0,,10,,,81,127
9876,note_off,109,0,0,,10,,,81,127
9876,note_off,0,0,0,,5,,,65,127
9876,note_off,0,0,0,,3,,,63,127
9876,note_off,0,0,0,,10,,,69,127
9877,note_on,1,0,0,,11,,,82,127
9877,note_on,0,0,0,,1,,,61,127
9877,note_on,0,0,0,,11,,,70,127
9877,note_on,0,0,0,,5,,,65,127
10095,note_off,218,0,0,,5,,,65,127
10095,note_off,0,0,0,,11,,,70,127
10095,note_off,0,0,0,,1,,,61,127
10095,note_off,0,0,0,,11,,,82,127
10096,note_on,1,0,0,,8,,,80,127
10096,note_on,0,0,0,,1,,,61,127
10096,note_on,0,0,0,,5,,,65,127
10096,note_on,0,0,0,,11,,,70,127
10150,note_off,54,0,0,,8,,,80,127
10151,note_on,1,0,0,,6,,,78,127
10205,note_off,54,0,0,,6,,,78,127
10206,note_on,1,0,0,,8,,,80,127
10260,note_off,54,0,0,,8,,,80,127
10261,note_on,1,0,0,,6,,,78,127
10315,note_off,54,0,0,,6,,,78,127
10315,note_off,0,0,0,,11,,,70,127
10315,note_off,0,0,0,,5,,,65,127
10315,note_off,0,0,0,,1,,,61,127
10316,note_on,1,0,0,,5,,,77,127
10316,note_on,0,0,0,,5,,,65,127
10316,note_on,0,0,0,,1,,,61,127
10316,note_on,0,0,0,,11,,,70,127
10533,note_off,217,0,0,,5,,,77,127
10534,note_off,1,0,0,,11,,,70,127
10534,note_off,0,0,0,,1,,,61,127
10534,note_off,0,0,0,,5,,,65,127
10535,note_on,1,0,0,,7,,,67,127
10535,note_on,0,0,0,,1,,,61,127
10535,note_on,0,0,0,,3,,,63,127
10645,note_on,110,0,0,,11,,,70,127
10754,note_off,109,0,0,,11,,,70,127
10754,note_off,0,0,0,,3,,,63,127
10754,note_off,0,0,0,,1,,,61,127
10754,note_off,0,0,0,,7,,,67,127
10755,note_on,1,0,0,,7,,,79,127
10755,note_on,0,0,0,,3,,,63,127
10755,note_on,0,0,0,,7,,,67,127
10755,note_on,0,0,0,,1,,,61,127
10864,note_off,109,0,0,,7,,,79,127
10865,note_on,1,0,0,,8,,,80,127
10974,note_off,109,0,0,,8,,,80,127
10974,note_off,0,0,0,,1,,,61,127
10974,note_off,0,0,0,,7,,,67,127
10974,note_off,0,0,0,,3,,,63,127
10975,note_on,1,0,0,,11,,,82,127
10975,note_on,0,0,0,,7,,,67,127
10975,note_on,0,0,0,,1,,,61,127
10975,note_on,0,0,0,,3,,,63,127
11084,note_off,109,0,0,,11,,,82,127
11085,note_on,1,0,0,,7,,,79,127
11194,note_off,109,0,0,,7,,,79,127
11194,note_off,0,0,0,,3,,,63,127
11194,note_off,0,0,0,,1,,,61,127
11194,note_off,0,0,0,,7,,,67,127
11195,note_on,1,0,0,,8,,,80,127
11195,note_on,0,0,0,,3,,,63,127
11195,note_on,0,0,0,,8,,,68,127
11195,note_on,0,0,0,,0,,,60,127
11413,note_off,218,0,0,,0,,,60,127
11413,note_off,0,0,0,,8,,,68,127
11413,note_off,0,0,0,,3,,,63,127
11413,note_off,0,0,0,,8,,,80,127
11414,note_on,1,0,0,,7,,,79,127
11414,note_on,0,0,0,,0,,,60,127
11414,note_on,0,0,0,,3,,,63,127
11414,note_on,0,0,0,,8,,,68,127
11468,note_off,54,0,0,,7,,,79,127
11469,note_on,1,0,0,,5,,,77,127
11523,note_off,54,0,0,,5,,,77,127
11524,note_on,1,0,0,,7,,,79,127
11578,note_off,54,0,0,,7,,,79,127
11579,note_on,1,0,0,,5,,,77,127
11633,note_off,54,0,0,,5,,,77,127
11633,note_off,0,0,0,,8,,,68,127
11633,note_off,0,0,0,,3,,,63,127
11633,note_off,0,0,0,,0,,,60,127
11634,note_on,1,0,0,,3,,,75,127
11634,note_on,0,0,0,,3,,,63,127
11634,note_on,0,0,0,,0,,,60,127
11634,note_on,0,0,0,,8,,,68,127
11852,note_off,218,0,0,,8,,,68,127
11852,note_off,0,0,0,,0,,,60,127
11852,note_off,0,0,0,,3,,,63,127
11853,note_on,1,0,0,,7,,,67,127
11853,note_on,0,0,0,,1,,,61,127
11853,note_on,0,0,0,,3,,,63,127
11962,note_off,109,0,0,,3,,,75,127
11963,note_on,1,0,0,,11,,,70,127
12072,note_off,109,0,0,,11,,,70,127
12072,note_off,0,0,0,,3,,,63,127
12072,note_off,0,0,0,,1,,,61,127
12072,note_off,0,0,0,,7,,,67,127
12073,note_on,1,0,0,,7,,,79,127
12073,note_on,0,0,0,,7,,,67,127
12073,note_on,0,0,0,,1,,,61,127
12073,note_on,0,0,0,,3,,,63,127
12182,note_off,109,0,0,,7,,,79,127
12183,note_on,1,0,0,,8,,,80,127
12292,note_off,109,0,0,,8,,,80,127
12292,note_off,0,0,0,,3,,,63,127
12292,note_off,0,0,0,,1,,,61,127
12292,note_off,0,0,0,,7,,,67,127
12293,note_on,1,0,0,,11,,,82,127
12293,note_on,0,0,0,,7,,,67,127
12293,note_on,0,0,0,,1,,,61,127
12293,note_on,0,0,0,,3,,,63,127
12402,note_off,109,0,0,,11,,,82,127
12403,note_on,1,0,0,,7,,,79,127
12512,note_off,109,0,0,,7,,,79,127
12512,note_off,0,0,0,,3,,,63,127
12512,note_off,0,0,0,,1,,,61,127
12512,note_off,0,0,0,,7,,,67,127
12513,note_on,1,0,0,,8,,,80,127
12513,note_on,0,0,0,,0,,,60,127
12622,note_off,109,0,0,,8,,,80,127
12623,note_on,1,0,0,,7,,,79,127
12732,note_off,109,0,0,,7,,,79,127
12732,note_off,0,0,0,,0,,,60,127
12733,note_on,1,0,0,,5,,,77,127
12733,note_on,0,0,0,,11,,,58,127
12842,note_off,109,0,0,,5,,,77,127
12843,note_on,1,0,0,,3,,,75,127
12952,note_off,109,0,0,,3,,,75,127
12952,note_off,0,0,0,,11,,,58,127
12953,note_on,1,0,0,,1,,,73,127
12953,note_on,0,0,0,,8,,,56,127
13062,note_off,109,0,0,,1,,,73,127
13063,note_on,1,0,0,,0,,,72,127
13172,note_off,109,0,0,,0,,,72,127
13172,note_off,0,0,0,,8,,,56,127
13173,note_on,1,0,0,,1,,,73,127
13173,note_on,0,0,0,,11,,,58,127
13282,note_off,109,0,0,,1,,,73,127
13283,note_on,1,0,0,,3,,,75,127
13337,note_off,54,0,0,,3,,,75,127
13338,note_on,1,0,0,,5,,,77,127
13392,note_off,54,0,0,,5,,,77,127
13392,note_off,0,0,0,,11,,,58,127
13393,note_on,1,0,0,,3,,,75,127
13393,note_on,0,0,0,,7,,,55,127
13502,note_off,109,0,0,,3,,,75,127
13503,note_on,1,0,0,,1,,,73,127
13612,note_off,109,0,0,,1,,,73,127
13612,note_off,0,0,0,,7,,,55,127
13613,note_on,1,0,0,,0,,,72,127
13613,note_on,0,0,0,,3,,,51,127
13722,note_off,109,0,0,,0,,,72,127
13723,note_on,1,0,0,,11,,,70,127
13832,note_off,109,0,0,,11,,,70,127
13832,note_off,0,0,0,,3,,,51,127
13833,note_on,1,0,0,,0,,,72,127
13833,note_on,0,0,0,,8,,,56,127
13942,note_off,109,0,0,,8,,,56,127
13943,note_on,1,0,0,,11,,,58,127
14016,note_off,73,0,0,,0,,,72,127
14051,note_off,35,0,0,,11,,,58,127
14052,note_on,1,0,0,,3,,,75,127
14052,note_on,0,0,0,,0,,,60,127
14161,note_off,109,0,0,,0,,,60,127
14162,note_on,1,0,0,,1,,,61,127
14271,note_off,109,0,0,,1,,,61,127
14272,note_on,1,0,0,,3,,,63,127
14381,note_off,109,0,0,,3,,,63,127
14382,note_on,1,0,0,,5,,,65,127
14491,note_off,109,0,0,,5,,,65,127
14492,note_on,1,0,0,,3,,,51,127
14601,note_off,109,0,0,,3,,,75,127
14602,note_on,1,0,0,,1,,,73,127
14711,note_off,109,0,0,,1,,,73,127
14712,note_on,1,0,0,,0,,,72,127
14821,note_off,109,0,0,,0,,,72,127
14822,note_on,1,0,0,,11,,,70,127
14931,note_off,109,0,0,,11,,,70,127
14932,note_on,1,0,0,,8,,,68,127
15041,note_off,109,0,0,,8,,,68,127
15042,note_on,1,0,0,,7,,,67,127
15151,note_off,109,0,0,,7,,,67,127
15151,note_off,0,0,0,,3,,,51,127
15152,note_on,1,0,0,,8,,,68,127
15152,note_on,0,0,0,,5,,,53,127
15261,note_off,109,0,0,,5,,,53,127
15262,note_on,1,0,0,,7,,,55,127
15335,note_off,73,0,0,,8,,,68,127
15370,note_off,35,0,0,,7,,,55,127
15371,note_on,1,0,0,,0,,,72,127
15371,note_on,0,0,0,,8,,,56,127
15480,note_off,109,0,0,,8,,,56,127
15481,note_on,1,0,0,,11,,,58,127
15590,note_off,109,0,0,,11,,,58,127
15591,note_on,1,0,0,,0,,,60,127
15700,note_off,109,0,0,,0,,,60,127
15701,note_on,1,0,0,,1,,,61,127
15810,note_off,109,0,0,,1,,,61,127
15811,note_on,1,0,0,,0,,,48,127
15920,note_off,109,0,0,,0,,,72,127
15921,note_on,1,0,0,,11,,,70,127
16030,note_off,109,0,0,,11,,,70,127
16031,note_on,1,0,0,,8,,,68,127
16140,note_off,109,0,0,,8,,,68,127
16141,note_on,1,0,0,,7,,,67,127
16250,note_off,109,0,0,,7,,,67,127
16251,note_on,1,0,0,,5,,,65,127
16360,note_off,109,0,0,,5,,,65,127
16361,note_on,1,0,0,,3,,,63,127
16470,note_off,109,0,0,,3,,,63,127
16470,note_off,0,0,0,,0,,,48,127
16471,note_on,1,0,0,,5,,,65,127
16471,note_on,0,0,0,,1,,,49,127
16580,note_off,109,0,0,,1,,,49,127
16581,note_on,1,0,0,,3,,,51,127
16654,note_off,73,0,0,,5,,,65,127
16689,note_off,35,0,0,,3,,,51,127
16690,note_on,1,0,0,,8,,,68,127
16690,note_on,0,0,0,,5,,,53,127
16799,note_off,109,0,0,,5,,,53,127
16800,note_on,1,0,0,,7,,,55,127
16909,note_off,109,0,0,,7,,,55,127
16910,note_on,1,0,0,,8,,,56,127
17019,note_off,109,0,0,,8,,,56,127
17020,note_on,1,0,0,,11,,,58,127
17129,note_off,109,0,0,,11,,,58,127
17130,note_on,1,0,0,,11,,,46,127
17239,note_off,109,0,0,,8,,,68,127
17240,note_on,1,0,0,,11,,,70,127
17349,note_off,109,0,0,,11,,,70,127
17350,note_on,1,0,0,,0,,,72,127
17459,note_off,109,0,0,,0,,,72,127
17460,note_on,1,0,0,,1,,,73,127
17569,note_off,109,0,0,,1,,,73,127
17570,note_on,1,0,0,,3,,,75,127
17679,note_off,109,0,0,,3,,,75,127
17680,note_on,1,0,0,,5,,,77,127
17789,note_off,109,0,0,,5,,,77,127
17789,note_off,0,0,0,,11,,,46,127
17790,note_on,1,0,0,,0,,,72,127
17790,note_on,0,0,0,,3,,,51,127
18008,note_off,218,0,0,,0,,,72,127
18009,note_on,1,0,0,,3,,,39,127
18064,note_on,55,0,0,,0,,,72,127
18118,note_off,54,0,0,,0,,,72,127
18119,note_on,1,0,0,,11,,,70,127
18173,note_off,54,0,0,,11,,,70,127
18174,note_on,1,0,0,,8,,,68,127
18229,note_off,55,0,0,,8,,,68,127
18229,note_on,0,0,0,,11,,,70,127
18446,note_off,217,0,0,,11,,,70,127
18447,note_off,1,0,0,,3,,,39,127
18447,note_off,0,0,0,,3,,,51,127
18448,note_on,1,0,0,,3,,,63,127
18558,note_on,110,0,0,,7,,,67,127
18667,note_off,109,0,0,,7,,,67,127
18668,note_on,1,0,0,,11,,,70,127
18777,note_off,109,0,0,,11,,,70,127
18778,note_on,1,0,0,,3,,,75,127
18887,note_off,109,0,0,,3,,,75,127
18887,note_off,0,0,0,,3,,,63,127
18888,note_on,1,0,0,,7,,,79,127
18888,note_on,0,0,0,,1,,,61,127
18997,note_off,109,0,0,,7,,,79,127
18998,note_on,1,0,0,,3,,,75,127
19107,note_off,109,0,0,,1,,,61,127
19108,note_on,1,0,0,,8,,,80,127
19108,note_on,0,0,0,,0,,,60,127
19215,note_off,107,0,0,,3,,,75,127
19217,note_on,2,0,0,,0,,,72,127
19326,note_off,109,0,0,,0,,,72,127
19326,note_off,0,0,0,,0,,,60,127
19327,note_on,1,0,0,,1,,,73,127
19327,note_on,0,0,0,,11,,,58,127
19428,note_off,101,0,0,,8,,,80,127
19437,note_on,9,0,0,,11,,,82,127
19544,note_off,107,0,0,,1,,,73,127
19545,note_off,1,0,0,,11,,,82,127
19545,note_off,0,0,0,,11,,,58,127
19546,note_on,1,0,0,,3,,,75,127
19546,note_on,0,0,0,,0,,,84,127
19546,note_on,0,0,0,,8,,,56,127
19763,note_off,217,0,0,,0,,,84,127
19764,note_off,1,0,0,,8,,,56,127
19765,note_on,1,0,0,,3,,,63,127
19874,note_off,109,0,0,,3,,,75,127
19875,note_on,1,0,0,,7,,,67,127
19984,note_off,109,0,0,,7,,,67,127
19985,note_on,1,0,0,,11,,,70,127
20094,note_off,109,0,0,,11,,,70,127
20095,note_on,1,0,0,,3,,,75,127
20204,note_off,109,0,0,,3,,,75,127
20204,note_off,0,0,0,,3,,,63,127
20205,note_on,1,0,0,,7,,,79,127
20205,note_on,0,0,0,,1,,,61,127
20315,note_on,110,0,0,,11,,,70,127
20422,note_off,107,0,0,,7,,,79,127
20423,note_off,1,0,0,,11,,,70,127
20423,note_off,0,0,0,,1,,,61,127
20424,note_on,1,0,0,,8,,,80,127
20424,note_on,0,0,0,,0,,,60,127
20534,note_on,110,0,0,,0,,,72,127
20643,note_off,109,0,0,,0,,,72,127
20643,note_off,0,0,0,,0,,,60,127
20644,note_on,1,0,0,,1,,,73,127
20644,note_on,0,0,0,,11,,,58,127
20745,note_off,101,0,0,,8,,,80,127
20754,note_on,9,0,0,,11,,,82,127
20861,note_off,107,0,0,,1,,,73,127
20862,note_off,1,0,0,,11,,,82,127
20862,note_off,0,0,0,,11,,,58,127
20863,note_on,1,0,0,,3,,,75,127
20863,note_on,0,0,0,,0,,,84,127
20863,note_on,0,0,0,,8,,,56,127
21080,note_off,217,0,0,,3,,,75,127
21081,note_off,1,0,0,,8,,,56,127
21082,note_on,1,0,0,,3,,,63,127
21191,note_off,109,0,0,,0,,,84,127
21192,note_on,1,0,0,,7,,,67,127
21301,note_off,109,0,0,,7,,,67,127
21302,note_on,1,0,0,,11,,,70,127
21411,note_off,109,0,0,,11,,,70,127
21412,note_on,1,0,0,,3,,,75,127
21521,note_off,109,0,0,,3,,,75,127
21521,note_off,0,0,0,,3,,,63,127
21522,note_on,1,0,0,,7,,,79,127
21522,note_on,0,0,0,,1,,,61,127
21632,note_on,110,0,0,,11,,,70,127
21739,note_off,107,0,0,,7,,,79,127
21740,note_off,1,0,0,,11,,,70,127
21740,note_off,0,0,0,,1,,,61,127
21741,note_on,1,0,0,,8,,,80,127
21741,note_on,0,0,0,,0,,,60,127
21851,note_on,110,0,0,,0,,,72,127
21960,note_off,109,0,0,,0,,,72,127
21960,note_off,0,0,0,,0,,,60,127
21961,note_on,1,0,0,,1,,,73,127
21961,note_on,0,0,0,,11,,,58,127
22062,note_off,101,0,0,,8,,,80,127
22071,note_on,9,0,0,,11,,,82,127
22178,note_off,107,0,0,,1,,,73,127
22179,note_off,1,0,0,,11,,,82,127
22179,note_off,0,0,0,,11,,,58,127
22180,note_on,1,0,0,,3,,,75,127
22180,note_on,0,0,0,,0,,,84,127
22180,note_on,0,0,0,,8,,,56,127
22363,note_off,183,0,0,,8,,,56,127
22363,note_off,0,0,0,,0,,,84,127
22363,note_off,0,0,0,,3,,,75,127
22400,note_on,37,0,0,,8,,,80,127
22400,note_on,0,0,0,,4,,,76,127
22400,note_on,0,0,0,,7,,,79,127
22619,note_on,219,0,0,,11,,,70,127
22619,note_on,0,0,0,,1,,,73,127
22837,note_off,218,0,0,,7,,,79,127
22837,note_off,0,0,0,,4,,,76,127
22837,note_off,0,0,0,,8,,,80,127
22838,note_on,1,0,0,,11,,,82,127
23056,note_off,218,0,0,,11,,,82,127
23057,note_on,1,0,0,,8,,,80,127
23057,note_on,0,0,0,,4,,,76,127
23057,note_on,0,0,0,,7,,,79,127
23275,note_off,218,0,0,,1,,,73,127
23275,note_off,0,0,0,,11,,,70,127
23276,note_on,1,0,0,,1,,,73,127
23276,note_on,0,0,0,,11,,,70,127
23494,note_off,218,0,0,,7,,,79,127
23494,note_off,0,0,0,,4,,,76,127
23494,note_off,0,0,0,,8,,,80,127
23495,note_on,1,0,0,,11,,,82,127
23713,note_off,218,0,0,,11,,,82,127
23714,note_on,1,0,0,,7,,,79,127
23714,note_on,0,0,0,,4,,,76,127
23714,note_on,0,0,0,,10,,,81,127
23932,note_off,218,0,0,,11,,,70,127
23932,note_off,0,0,0,,1,,,73,127
23933,note_on,1,0,0,,10,,,69,127
23933,note_on,0,0,0,,1,,,73,127
24151,note_off,218,0,0,,10,,,81,127
24151,note_off,0,0,0,,4,,,76,127
24151,note_off,0,0,0,,7,,,79,127
24152,note_on,1,0,0,,11,,,82,127
24370,note_off,218,0,0,,11,,,82,127
24371,note_on,1,0,0,,4,,,76,127
24371,note_on,0,0,0,,7,,,79,127
24371,note_on,0,0,0,,10,,,81,127
24589,note_off,218,0,0,,1,,,73,127
24589,note_off,0,0,0,,10,,,69,127
24590,note_on,1,0,0,,10,,,69,127
24590,note_on,0,0,0,,1,,,73,127
24808,note_off,218,0,0,,10,,,81,127
24808,note_off,0,0,0,,7,,,79,127
24808,note_off,0,0,0,,4,,,76,127
24809,note_on,1,0,0,,11,,,82,127
25027,note_off,218,0,0,,11,,,82,127
25028,note_on,1,0,0,,4,,,76,127
25028,note_on,0,0,0,,10,,,81,127
25028,note_on,0,0,0,,7,,,79,127
25246,note_off,218,0,0,,1,,,73,127
25246,note_off,0,0,0,,10,,,69,127
25247,note_on,1,0,0,,1,,,73,127
25247,note_on,0,0,0,,10,,,69,127
25465,note_off,218,0,0,,7,,,79,127
25465,note_off,0,0,0,,10,,,81,127
25465,note_off,0,0,0,,4,,,76,127
25466,note_on,1,0,0,,10,,,81,127
25681,note_off,215,0,0,,1,,,73,127
25684,note_off,3,0,0,,10,,,81,127
25685,note_on,1,0,0,,6,,,78,127
25685,note_on,0,0,0,,3,,,75,127
25685,note_on,0,0,0,,7,,,79,127
25903,note_off,218,0,0,,10,,,69,127
25904,note_on,1,0,0,,10,,,69,127
25904,note_on,0,0,0,,0,,,72,127
26122,note_off,218,0,0,,7,,,79,127
26122,note_off,0,0,0,,3,,,75,127
26122,note_off,0,0,0,,6,,,78,127
26123,note_on,1,0,0,,10,,,81,127
26341,note_off,218,0,0,,10,,,81,127
26342,note_on,1,0,0,,6,,,78,127
26342,note_on,0,0,0,,3,,,75,127
26342,note_on,0,0,0,,7,,,79,127
26560,note_off,218,0,0,,0,,,72,127
26560,note_off,0,0,0,,10,,,69,127
26561,note_on,1,0,0,,10,,,69,127
26561,note_on,0,0,0,,0,,,72,127
26779,note_off,218,0,0,,7,,,79,127
26779,note_off,0,0,0,,3,,,75,127
26779,note_off,0,0,0,,6,,,78,127
26780,note_on,1,0,0,,10,,,81,127
26998,note_off,218,0,0,,10,,,81,127
26999,note_on,1,0,0,,7,,,79,127
26999,note_on,0,0,0,,6,,,78,127
26999,note_on,0,0,0,,3,,,75,127
27217,note_off,218,0,0,,0,,,72,127
27217,note_off,0,0,0,,10,,,69,127
27218,note_on,1,0,0,,0,,,72,127
27218,note_on,0,0,0,,10,,,69,127
27436,note_off,218,0,0,,3,,,75,127
27436,note_off,0,0,0,,6,,,78,127
27436,note_off,0,0,0,,7,,,79,127
27437,note_on,1,0,0,,7,,,79,127
27652,note_off,215,0,0,,10,,,69,127
27652,note_off,0,0,0,,0,,,72,127
27655,note_off,3,0,0,,7,,,79,127
27656,note_on,1,0,0,,7,,,79,127
27656,note_on,0,0,0,,5,,,77,127
27656,note_on,0,0,0,,2,,,74,127
27875,note_on,219,0,0,,12,,,71,127
27875,note_on,0,0,0,,8,,,68,127
28093,note_off,218,0,0,,2,,,74,127
28093,note_off,0,0,0,,5,,,77,127
28093,note_off,0,0,0,,7,,,79,127
28094,note_on,1,0,0,,8,,,80,127
28312,note_off,218,0,0,,8,,,80,127
28313,note_on,1,0,0,,7,,,79,127
28313,note_on,0,0,0,,5,,,77,127
28313,note_on,0,0,0,,2,,,74,127
28531,note_off,218,0,0,,8,,,68,127
28531,note_off,0,0,0,,12,,,71,127
28532,note_on,1,0,0,,8,,,68,127
28532,note_on,0,0,0,,12,,,71,127
28750,note_off,218,0,0,,2,,,74,127
28750,note_off,0,0,0,,5,,,77,127
28750,note_off,0,0,0,,7,,,79,127
28751,note_on,1,0,0,,8,,,80,127
28969,note_off,218,0,0,,8,,,80,127
28970,note_on,1,0,0,,7,,,79,127
28970,note_on,0,0,0,,5,,,77,127
28970,note_on,0,0,0,,2,,,74,127
29188,note_off,218,0,0,,12,,,71,127
29188,note_off,0,0,0,,8,,,68,127
29189,note_on,1,0,0,,12,,,71,127
29189,note_on,0,0,0,,8,,,68,127
29407,note_off,218,0,0,,2,,,74,127
29407,note_off,0,0,0,,5,,,77,127
29407,note_off,0,0,0,,7,,,79,127
29408,note_on,1,0,0,,2,,,86,127
29626,note_off,218,0,0,,8,,,68,127
29626,note_off,0,0,0,,12,,,71,127
29627,note_on,1,0,0,,12,,,71,127
29627,note_on,0,0,0,,7,,,67,127
29736,note_off,109,0,0,,2,,,86,127
29737,note_on,1,0,0,,0,,,84,127
29846,note_off,109,0,0,,0,,,84,127
29846,note_off,0,0,0,,7,,,67,127
29846,note_off,0,0,0,,12,,,71,127
29847,note_on,1,0,0,,12,,,83,127
29847,note_on,0,0,0,,10,,,69,127
29956,note_off,109,0,0,,12,,,83,127
29957,note_on,1,0,0,,8,,,80,127
30066,note_off,109,0,0,,8,,,80,127
30066,note_off,0,0,0,,10,,,69,127
30067,note_on,1,0,0,,7,,,79,127
30067,note_on,0,0,0,,12,,,71,127
30176,note_off,109,0,0,,7,,,79,127
30177,note_on,1,0,0,,5,,,77,127
30286,note_off,109,0,0,,5,,,77,127
30286,note_off,0,0,0,,12,,,71,127
30287,note_on,1,0,0,,5,,,77,127
30287,note_on,0,0,0,,0,,,72,127
30341,note_off,54,0,0,,5,,,77,127
30342,note_on,1,0,0,,3,,,75,127
30396,note_off,54,0,0,,3,,,75,127
30397,note_on,1,0,0,,5,,,77,127
30451,note_off,54,0,0,,5,,,77,127
30452,note_on,1,0,0,,3,,,75,127
30506,note_off,54,0,0,,3,,,75,127
30507,note_on,1,0,0,,5,,,77,127
30561,note_off,54,0,0,,5,,,77,127
30562,note_on,1,0,0,,3,,,75,127
30616,note_off,54,0,0,,3,,,75,127
30617,note_on,1,0,0,,2,,,74,127
30722,note_off,105,0,0,,0,,,72,127
30725,note_off,3,0,0,,2,,,74,127
30726,note_on,1,0,0,,0,,,72,127
30943,note_off,217,0,0,,0,,,72,127
30945,note_on,2,0,0,,0,,,72,127
30945,note_on,0,0,0,,3,,,75,127
31055,note_on,110,0,0,,0,,,84,127
31164,note_off,109,0,0,,0,,,84,127
31164,note_off,0,0,0,,3,,,75,127
31164,note_off,0,0,0,,0,,,72,127
31165,note_on,1,0,0,,11,,,82,127
31165,note_on,0,0,0,,3,,,75,127
31165,note_on,0,0,0,,0,,,72,127
31274,note_off,109,0,0,,11,,,82,127
31275,note_on,1,0,0,,8,,,80,127
31384,note_off,109,0,0,,8,,,80,127
31384,note_off,0,0,0,,0,,,72,127
31384,note_off,0,0,0,,3,,,75,127
31385,note_on,1,0,0,,7,,,79,127
31385,note_on,0,0,0,,0,,,72,127
31385,note_on,0,0,0,,3,,,75,127
31494,note_off,109,0,0,,7,,,79,127
31495,note_on,1,0,0,,6,,,78,127
31604,note_off,109,0,0,,6,,,78,127
31604,note_off,0,0,0,,3,,,75,127
31604,note_off,0,0,0,,0,,,72,127
31605,note_on,1,0,0,,7,,,79,127
31605,note_on,0,0,0,,2,,,74,127
31605,note_on,0,0,0,,12,,,71,127
31714,note_off,109,0,0,,7,,,79,127
31715,note_on,1,0,0,,8,,,80,127
31824,note_off,109,0,0,,8,,,80,127
31825,note_on,1,0,0,,7,,,79,127
31825,note_on,0,0,0,,7,,,67,127
31934,note_off,109,0,0,,7,,,79,127
31935,note_on,1,0,0,,5,,,77,127
32040,note_off,105,0,0,,12,,,71,127
32043,note_off,3,0,0,,5,,,77,127
32043,note_off,0,0,0,,7,,,67,127
32044,note_on,1,0,0,,3,,,75,127
32044,note_on,0,0,0,,12,,,71,127
32151,note_off,107,0,0,,2,,,74,127
32152,note_off,1,0,0,,3,,,75,127
32153,note_on,1,0,0,,2,,,74,127
32262,note_off,109,0,0,,2,,,74,127
32262,note_off,0,0,0,,12,,,71,127
32263,note_on,1,0,0,,3,,,75,127
32263,note_on,0,0,0,,0,,,72,127
32373,note_on,110,0,0,,0,,,84,127
32482,note_off,109,0,0,,0,,,84,127
32482,note_off,0,0,0,,0,,,72,127
32482,note_off,0,0,0,,3,,,75,127
32483,note_on,1,0,0,,11,,,82,127
32483,note_on,0,0,0,,3,,,75,127
32483,note_on,0,0,0,,0,,,72,127
32592,note_off,109,0,0,,11,,,82,127
32593,note_on,1,0,0,,8,,,80,127
32702,note_off,109,0,0,,8,,,80,127
32702,note_off,0,0,0,,0,,,72,127
32702,note_off,0,0,0,,3,,,75,127
32703,note_on,1,0,0,,7,,,79,127
32703,note_on,0,0,0,,3,,,75,127
32703,note_on,0,0,0,,0,,,72,127
32812,note_off,109,0,0,,7,,,79,127
32813,note_on,1,0,0,,6,,,78,127
32922,note_off,109,0,0,,6,,,78,127
32922,note_off,0,0,0,,0,,,72,127
32922,note_off,0,0,0,,3,,,75,127
32923,note_on,1,0,0,,7,,,79,127
32923,note_on,0,0,0,,2,,,74,127
32923,note_on,0,0,0,,12,,,71,127
33032,note_off,109,0,0,,7,,,79,127
33033,note_on,1,0,0,,8,,,80,127
33142,note_off,109,0,0,,8,,,80,127
33142,note_off,0,0,0,,12,,,71,127
33143,note_on,1,0,0,,7,,,79,127
33143,note_on,0,0,0,,7,,,67,127
33252,note_off,109,0,0,,7,,,79,127
33253,note_on,1,0,0,,5,,,77,127
33358,note_off,105,0,0,,2,,,74,127
33361,note_off,3,0,0,,5,,,77,127
33361,note_off,0,0,0,,7,,,67,127
33362,note_on,1,0,0,,3,,,75,127
33362,note_on,0,0,0,,12,,,71,127
33471,note_off,109,0,0,,3,,,75,127
33472,note_on,1,0,0,,2,,,74,127
33581,note_off,109,0,0,,2,,,74,127
33581,note_off,0,0,0,,12,,,71,127
33582,note_on,1,0,0,,3,,,75,127
33582,note_on,0,0,0,,0,,,60,127
33691,note_off,109,0,0,,3,,,75,127
33692,note_on,1,0,0,,2,,,74,127
33801,note_off,109,0,0,,2,,,74,127
33801,note_off,0,0,0,,0,,,60,127
33802,note_on,1,0,0,,3,,,75,127
33802,note_on,0,0,0,,2,,,62,127
33911,note_off,109,0,0,,3,,,75,127
33912,note_on,1,0,0,,5,,,77,127
34021,note_off,109,0,0,,5,,,77,127
34021,note_off,0,0,0,,2,,,62,127
34022,note_on,1,0,0,,7,,,79,127
34022,note_on,0,0,0,,3,,,63,127
34132,note_on,110,0,0,,0,,,72,127
34159,note_off,27,0,0,,7,,,79,127
34240,note_off,81,0,0,,0,,,72,127
34240,note_off,0,0,0,,3,,,63,127
34241,note_on,1,0,0,,2,,,74,127
34241,note_on,0,0,0,,5,,,65,127
34350,note_off,109,0,0,,2,,,74,127
34351,note_on,1,0,0,,5,,,77,127
34460,note_off,109,0,0,,5,,,77,127
34460,note_off,0,0,0,,5,,,65,127
34461,note_on,1,0,0,,3,,,75,127
34461,note_on,0,0,0,,7,,,67,127
34570,note_off,109,0,0,,3,,,75,127
34571,note_on,1,0,0,,2,,,74,127
34680,note_off,109,0,0,,2,,,74,127
34680,note_off,0,0,0,,7,,,67,127
34681,note_on,1,0,0,,0,,,72,127
34681,note_on,0,0,0,,7,,,55,127
34790,note_off,109,0,0,,0,,,72,127
34791,note_on,1,0,0,,12,,,71,127
34860,note_off,69,0,0,,12,,,71,127
34900,note_off,40,0,0,,7,,,55,127
34901,note_on,1,0,0,,3,,,63,127
34901,note_on,0,0,0,,0,,,60,127
35011,note_on,110,0,0,,0,,,72,127
35120,note_off,109,0,0,,0,,,72,127
35120,note_off,0,0,0,,0,,,60,127
35120,note_off,0,0,0,,3,,,63,127
35121,note_on,1,0,0,,11,,,70,127
35121,note_on,0,0,0,,3,,,63,127
35121,note_on,0,0,0,,0,,,60,127
35230,note_off,109,0,0,,11,,,70,127
35231,note_on,1,0,0,,8,,,68,127
35340,note_off,109,0,0,,8,,,68,127
35340,note_off,0,0,0,,0,,,60,127
35340,note_off,0,0,0,,3,,,63,127
35341,note_on,1,0,0,,7,,,67,127
35341,note_on,0,0,0,,3,,,63,127
35341,note_on,0,0,0,,0,,,60,127
35450,note_off,109,0,0,,7,,,67,127
35451,note_on,1,0,0,,6,,,66,127
35560,note_off,109,0,0,,6,,,66,127
35560,note_off,0,0,0,,0,,,60,127
35560,note_off,0,0,0,,3,,,63,127
35561,note_on,1,0,0,,7,,,67,127
35561,note_on,0,0,0,,12,,,59,127
35561,note_on,0,0,0,,2,,,62,127
35670,note_off,109,0,0,,7,,,67,127
35671,note_on,1,0,0,,8,,,68,127
35780,note_off,109,0,0,,8,,,68,127
35781,note_on,1,0,0,,7,,,67,127
35781,note_on,0,0,0,,7,,,55,127
35890,note_off,109,0,0,,7,,,67,127
35891,note_on,1,0,0,,5,,,65,127
35996,note_off,105,0,0,,2,,,62,127
35996,note_off,0,0,0,,12,,,59,127
35999,note_off,3,0,0,,5,,,65,127
35999,note_off,0,0,0,,7,,,55,127
36000,note_on,1,0,0,,3,,,63,127
36000,note_on,0,0,0,,12,,,59,127
36109,note_off,109,0,0,,3,,,63,127
36110,note_on,1,0,0,,2,,,62,127
36219,note_off,109,0,0,,2,,,62,127
36219,note_off,0,0,0,,12,,,59,127
36220,note_on,1,0,0,,0,,,60,127
36220,note_on,0,0,0,,3,,,63,127
36330,note_on,110,0,0,,0,,,72,127
36439,note_off,109,0,0,,0,,,72,127
36439,note_off,0,0,0,,3,,,63,127
36439,note_off,0,0,0,,0,,,60,127
36440,note_on,1,0,0,,11,,,70,127
36440,note_on,0,0,0,,3,,,63,127
36440,note_on,0,0,0,,0,,,60,127
36549,note_off,109,0,0,,11,,,70,127
36550,note_on,1,0,0,,8,,,68,127
36659,note_off,109,0,0,,8,,,68,127
36659,note_off,0,0,0,,0,,,60,127
36659,note_off,0,0,0,,3,,,63,127
36660,note_on,1,0,0,,7,,,67,127
36660,note_on,0,0,0,,3,,,63,127
36660,note_on,0,0,0,,0,,,60,127
36769,note_off,109,0,0,,7,,,67,127
36770,note_on,1,0,0,,6,,,66,127
36879,note_off,109,0,0,,6,,,66,127
36879,note_off,0,0,0,,0,,,60,127
36879,note_off,0,0,0,,3,,,63,127
36880,note_on,1,0,0,,7,,,67,127
36880,note_on,0,0,0,,12,,,59,127
36880,note_on,0,0,0,,2,,,62,127
36989,note_off,109,0,0,,7,,,67,127
36990,note_on,1,0,0,,8,,,68,127
37099,note_off,109,0,0,,8,,,68,127
37099,note_off,0,0,0,,12,,,59,127
37100,note_on,1,0,0,,7,,,67,127
37100,note_on,0,0,0,,7,,,55,127
37209,note_off,109,0,0,,7,,,67,127
37210,note_on,1,0,0,,5,,,65,127
37315,note_off,105,0,0,,2,,,62,127
37318,note_off,3,0,0,,5,,,65,127
37318,note_off,0,0,0,,7,,,55,127
37319,note_on,1,0,0,,3,,,63,127
37319,note_on,0,0,0,,12,,,59,127
37428,note_off,109,0,0,,3,,,63,127
37429,note_on,1,0,0,,2,,,62,127
37538,note_off,109,0,0,,2,,,62,127
37538,note_off,0,0,0,,12,,,59,127
37539,note_on,1,0,0,,3,,,63,127
37539,note_on,0,0,0,,0,,,48,127
37648,note_off,109,0,0,,3,,,63,127
37649,note_on,1,0,0,,2,,,62,127
37758,note_off,109,0,0,,2,,,62,127
37758,note_off,0,0,0,,0,,,48,127
37759,note_on,1,0,0,,3,,,63,127
37759,note_on,0,0,0,,2,,,50,127
37868,note_off,109,0,0,,3,,,63,127
37869,note_on,1,0,0,,5,,,65,127
37978,note_off,109,0,0,,5,,,65,127
37978,note_off,0,0,0,,2,,,50,127
37979,note_on,1,0,0,,7,,,67,127
37979,note_on,0,0,0,,3,,,51,127
38089,note_on,110,0,0,,0,,,60,127
38116,note_off,27,0,0,,7,,,67,127
38197,note_off,81,0,0,,0,,,60,127
38197,note_off,0,0,0,,3,,,51,127
38198,note_on,1,0,0,,2,,,62,127
38198,note_on,0,0,0,,5,,,53,127
38307,note_off,109,0,0,,2,,,62,127
38308,note_on,1,0,0,,5,,,65,127
38417,note_off,109,0,0,,5,,,65,127
38417,note_off,0,0,0,,5,,,53,127
38418,note_on,1,0,0,,3,,,63,127
38418,note_on,0,0,0,,7,,,55,127
38527,note_off,109,0,0,,3,,,63,127
38528,note_on,1,0,0,,2,,,62,127
38637,note_off,109,0,0,,2,,,62,127
38638,note_on,1,0,0,,0,,,60,127
38638,note_on,0,0,0,,7,,,43,127
38747,note_off,109,0,0,,0,,,60,127
38748,note_on,1,0,0,,12,,,59,127
38828,note_off,80,0,0,,12,,,59,127
38853,note_off,25,0,0,,7,,,55,127
38855,note_off,2,0,0,,7,,,43,127
38857,note_on,2,0,0,,2,,,62,127
38857,note_on,0,0,0,,12,,,59,127
39076,note_on,219,0,0,,8,,,44,127
39076,note_on,0,0,0,,8,,,56,127
39294,note_off,218,0,0,,12,,,59,127
39294,note_off,0,0,0,,2,,,62,127
39295,note_on,1,0,0,,5,,,65,127
39513,note_off,218,0,0,,5,,,65,127
39514,note_on,1,0,0,,3,,,63,127
39514,note_on,0,0,0,,12,,,59,127
39514,note_on,0,0,0,,2,,,62,127
39732,note_off,218,0,0,,8,,,56,127
39732,note_off,0,0,0,,8,,,44,127
39733,note_on,1,0,0,,8,,,44,127
39733,note_on,0,0,0,,8,,,56,127
39951,note_off,218,0,0,,2,,,62,127
39951,note_off,0,0,0,,12,,,59,127
39951,note_off,0,0,0,,3,,,63,127
39952,note_on,1,0,0,,5,,,65,127
40170,note_off,218,0,0,,5,,,65,127
40171,note_on,1,0,0,,3,,,63,127
40171,note_on,0,0,0,,12,,,59,127
40171,note_on,0,0,0,,2,,,62,127
40389,note_off,218,0,0,,8,,,56,127
40389,note_off,0,0,0,,8,,,44,127
40390,note_on,1,0,0,,5,,,41,127
40390,note_on,0,0,0,,5,,,53,127
40608,note_off,218,0,0,,2,,,62,127
40608,note_off,0,0,0,,12,,,59,127
40608,note_off,0,0,0,,3,,,63,127
40609,note_on,1,0,0,,8,,,68,127
40609,note_on,0,0,0,,12,,,59,127
40827,note_off,218,0,0,,12,,,59,127
40827,note_off,0,0,0,,8,,,68,127
40827,note_off,0,0,0,,5,,,53,127
40827,note_off,0,0,0,,5,,,41,127
40828,note_on,1,0,0,,0,,,60,127
40828,note_on,0,0,0,,7,,,67,127
40828,note_on,0,0,0,,3,,,39,127
40828,note_on,0,0,0,,3,,,51,127
40937,note_off,109,0,0,,7,,,67,127
40938,note_on,1,0,0,,5,,,65,127
41047,note_off,109,0,0,,5,,,65,127
41048,note_on,1,0,0,,3,,,63,127
41157,note_off,109,0,0,,3,,,63,127
41158,note_off,1,0,0,,0,,,60,127
41158,note_on,0,0,0,,2,,,62,127
41267,note_off,109,0,0,,2,,,62,127
41267,note_off,0,0,0,,3,,,51,127
41267,note_off,0,0,0,,3,,,39,127
41268,note_on,1,0,0,,0,,,60,127
41268,note_on,0,0,0,,8,,,56,127
41377,note_off,109,0,0,,0,,,60,127
41378,note_on,1,0,0,,3,,,63,127
41487,note_off,109,0,0,,3,,,63,127
41487,note_off,0,0,0,,8,,,56,127
41488,note_on,1,0,0,,2,,,62,127
41488,note_on,0,0,0,,5,,,53,127
41597,note_off,109,0,0,,2,,,62,127
41598,note_on,1,0,0,,5,,,65,127
41707,note_off,109,0,0,,5,,,65,127
41707,note_off,0,0,0,,5,,,53,127
41708,note_on,1,0,0,,3,,,63,127
41708,note_on,0,0,0,,7,,,55,127
41817,note_off,109,0,0,,3,,,63,127
41818,note_on,1,0,0,,2,,,62,127
41927,note_off,109,0,0,,2,,,62,127
41928,note_on,1,0,0,,0,,,60,127
41928,note_on,0,0,0,,7,,,43,127
42037,note_off,109,0,0,,0,,,60,127
42038,note_on,1,0,0,,12,,,59,127
42129,note_off,91,0,0,,12,,,59,127
42143,note_off,14,0,0,,7,,,55,127
42145,note_off,2,0,0,,7,,,43,127
42147,note_on,2,0,0,,2,,,74,127
42147,note_on,0,0,0,,12,,,71,127
42366,note_on,219,0,0,,8,,,56,127
42366,note_on,0,0,0,,8,,,68,127
42584,note_off,218,0,0,,12,,,71,127
42584,note_off,0,0,0,,2,,,74,127
42585,note_on,1,0,0,,5,,,77,127
42803,note_off,218,0,0,,5,,,77,127
42804,note_on,1,0,0,,12,,,71,127
42804,note_on,0,0,0,,2,,,74,127
42804,note_on,0,0,0,,3,,,75,127
43022,note_off,218,0,0,,8,,,68,127
43022,note_off,0,0,0,,8,,,56,127
43023,note_on,1,0,0,,8,,,56,127
43023,note_on,0,0,0,,8,,,68,127
43241,note_off,218,0,0,,3,,,75,127
43241,note_off,0,0,0,,2,,,74,127
43241,note_off,0,0,0,,12,,,71,127
43242,note_on,1,0,0,,5,,,77,127
43460,note_off,218,0,0,,5,,,77,127
43461,note_on,1,0,0,,2,,,74,127
43461,note_on,0,0,0,,12,,,71,127
43461,note_on,0,0,0,,3,,,75,127
43679,note_off,218,0,0,,8,,,68,127
43679,note_off,0,0,0,,8,,,56,127
43680,note_on,1,0,0,,5,,,65,127
43680,note_on,0,0,0,,5,,,53,127
43898,note_off,218,0,0,,3,,,75,127
43898,note_off,0,0,0,,12,,,71,127
43898,note_off,0,0,0,,2,,,74,127
43899,note_on,1,0,0,,8,,,80,127
43899,note_on,0,0,0,,12,,,71,127
44117,note_off,218,0,0,,12,,,71,127
44117,note_off,0,0,0,,8,,,80,127
44117,note_off,0,0,0,,5,,,53,127
44117,note_off,0,0,0,,5,,,65,127
44118,note_on,1,0,0,,7,,,79,127
44118,note_on,0,0,0,,0,,,72,127
44118,note_on,0,0,0,,3,,,51,127
44118,note_on,0,0,0,,3,,,63,127
44227,note_off,109,0,0,,7,,,79,127
44228,note_on,1,0,0,,5,,,77,127
44337,note_off,109,0,0,,5,,,77,127
44338,note_on,1,0,0,,3,,,75,127
44447,note_off,109,0,0,,3,,,75,127
44448,note_off,1,0,0,,0,,,72,127
44448,note_on,0,0,0,,2,,,74,127
44557,note_off,109,0,0,,2,,,74,127
44557,note_off,0,0,0,,3,,,63,127
44557,note_off,0,0,0,,3,,,51,127
44558,note_on,1,0,0,,0,,,72,127
44558,note_on,0,0,0,,8,,,68,127
44667,note_off,109,0,0,,0,,,72,127
44668,note_on,1,0,0,,3,,,75,127
44777,note_off,109,0,0,,3,,,75,127
44777,note_off,0,0,0,,8,,,68,127
44778,note_on,1,0,0,,2,,,74,127
44778,note_on,0,0,0,,5,,,65,127
44887,note_off,109,0,0,,2,,,74,127
44888,note_on,1,0,0,,5,,,77,127
44997,note_off,109,0,0,,5,,,77,127
44997,note_off,0,0,0,,5,,,65,127
44998,note_on,1,0,0,,3,,,75,127
44998,note_on,0,0,0,,7,,,67,127
45107,note_off,109,0,0,,3,,,75,127
45108,note_on,1,0,0,,2,,,74,127
45217,note_off,109,0,0,,2,,,74,127
45218,note_on,1,0,0,,0,,,72,127
45218,note_on,0,0,0,,7,,,55,127
45327,note_off,109,0,0,,0,,,72,127
45328,note_on,1,0,0,,12,,,71,127
45433,note_off,105,0,0,,7,,,67,127
45436,note_off,3,0,0,,12,,,71,127
45436,note_off,0,0,0,,7,,,55,127
45437,note_on,1,0,0,,0,,,84,127
45437,note_on,0,0,0,,0,,,60,127
45546,note_off,109,0,0,,0,,,84,127
45547,note_on,1,0,0,,11,,,82,127
45656,note_off,109,0,0,,11,,,82,127
45656,note_off,0,0,0,,0,,,60,127
45657,note_on,1,0,0,,8,,,80,127
45657,note_on,0,0,0,,2,,,62,127
45766,note_off,109,0,0,,8,,,80,127
45767,note_on,1,0,0,,6,,,78,127
45876,note_off,109,0,0,,6,,,78,127
45876,note_off,0,0,0,,2,,,62,127
45877,note_on,1,0,0,,7,,,79,127
45877,note_on,0,0,0,,3,,,63,127
45986,note_off,109,0,0,,7,,,79,127
45987,note_on,1,0,0,,3,,,75,127
46096,note_off,109,0,0,,3,,,75,127
46096,note_off,0,0,0,,3,,,63,127
46097,note_on,1,0,0,,5,,,77,127
46097,note_on,0,0,0,,5,,,65,127
46206,note_off,109,0,0,,5,,,77,127
46207,note_on,1,0,0,,2,,,74,127
46316,note_off,109,0,0,,2,,,74,127
46316,note_off,0,0,0,,5,,,65,127
46317,note_on,1,0,0,,3,,,75,127
46317,note_on,0,0,0,,7,,,67,127
46426,note_off,109,0,0,,3,,,75,127
46427,note_on,1,0,0,,0,,,72,127
46536,note_off,109,0,0,,0,,,72,127
46537,note_on,1,0,0,,2,,,74,127
46537,note_on,0,0,0,,7,,,55,127
46646,note_off,109,0,0,,2,,,74,127
46647,note_off,1,0,0,,7,,,67,127
46647,note_on,0,0,0,,12,,,71,127
46756,note_off,109,0,0,,12,,,71,127
46756,note_off,0,0,0,,7,,,55,127
46757,note_on,1,0,0,,0,,,72,127
46757,note_on,0,0,0,,0,,,48,127
46866,note_off,109,0,0,,0,,,72,127
46867,note_on,1,0,0,,11,,,70,127
46976,note_off,109,0,0,,11,,,70,127
46976,note_off,0,0,0,,0,,,48,127
46977,note_on,1,0,0,,8,,,68,127
46977,note_on,0,0,0,,2,,,50,127
47086,note_off,109,0,0,,8,,,68,127
47087,note_on,1,0,0,,6,,,66,127
47196,note_off,109,0,0,,6,,,66,127
47196,note_off,0,0,0,,2,,,50,127
47197,note_on,1,0,0,,7,,,67,127
47197,note_on,0,0,0,,3,,,51,127
47306,note_off,109,0,0,,7,,,67,127
47307,note_on,1,0,0,,3,,,63,127
47416,note_off,109,0,0,,3,,,63,127
47416,note_off,0,0,0,,3,,,51,127
47417,note_on,1,0,0,,5,,,65,127
47417,note_on,0,0,0,,5,,,53,127
47526,note_off,109,0,0,,5,,,65,127
47527,note_on,1,0,0,,2,,,62,127
47636,note_off,109,0,0,,2,,,62,127
47636,note_off,0,0,0,,5,,,53,127
47637,note_on,1,0,0,,3,,,63,127
47637,note_on,0,0,0,,7,,,55,127
47746,note_off,109,0,0,,3,,,63,127
47747,note_on,1,0,0,,0,,,60,127
47856,note_off,109,0,0,,0,,,60,127
47857,note_on,1,0,0,,2,,,62,127
47857,note_on,0,0,0,,7,,,43,127
47966,note_off,109,0,0,,2,,,62,127
47967,note_off,1,0,0,,7,,,55,127
47967,note_on,0,0,0,,12,,,59,127
48076,note_off,109,0,0,,12,,,59,127
48076,note_off,0,0,0,,7,,,43,127
48077,note_on,1,0,0,,0,,,60,127
48077,note_on,0,0,0,,0,,,36,127
48186,note_off,109,0,0,,0,,,60,127
48187,note_on,1,0,0,,11,,,58,127
48296,note_off,109,0,0,,11,,,58,127
48296,note_off,0,0,0,,0,,,36,127
48297,note_on,1,0,0,,8,,,56,127
48297,note_on,0,0,0,,2,,,38,127
48406,note_off,109,0,0,,8,,,56,127
48407,note_on,1,0,0,,6,,,54,127
48516,note_off,109,0,0,,6,,,54,127
48516,note_off,0,0,0,,2,,,38,127
48517,note_on,1,0,0,,7,,,55,127
48517,note_on,0,0,0,,3,,,39,127
48626,note_off,109,0,0,,7,,,55,127
48627,note_on,1,0,0,,3,,,51,127
48736,note_off,109,0,0,,3,,,51,127
48736,note_off,0,0,0,,3,,,39,127
48737,note_on,1,0,0,,5,,,53,127
48737,note_on,0,0,0,,5,,,41,127
48846,note_off,109,0,0,,5,,,53,127
48847,note_on,1,0,0,,2,,,50,127
48956,note_off,109,0,0,,2,,,50,127
48956,note_off,0,0,0,,5,,,41,127
48957,note_on,1,0,0,,3,,,51,127
48957,note_on,0,0,0,,7,,,43,127
49066,note_off,109,0,0,,3,,,51,127
49067,note_on,1,0,0,,0,,,48,127
49176,note_off,109,0,0,,0,,,48,127
49176,note_off,0,0,0,,7,,,43,127
49177,note_on,1,0,0,,2,,,50,127
49177,note_on,0,0,0,,7,,,31,127
49286,note_off,109,0,0,,2,,,50,127
49287,note_on,1,0,0,,12,,,47,127
49396,note_off,109,0,0,,12,,,47,127
49396,note_off,0,0,0,,7,,,31,127
49397,note_on,1,0,0,,12,,,47,127
49397,note_on,0,0,0,,0,,,36,127
49835,note_off,438,0,0,,12,,,47,127
49836,note_on,1,0,0,,0,,,48,127
50053,note_off,217,0,0,,0,,,48,127
50054,note_off,1,0,0,,0,,,36,127
50055,note_on,1,0,0,,4,,,64,127
50055,note_on,0,0,0,,0,,,60,127
50165,note_on,110,0,0,,7,,,67,127
50274,note_off,109,0,0,,7,,,67,127
50274,note_off,0,0,0,,0,,,60,127
50274,note_off,0,0,0,,4,,,64,127
50275,note_on,1,0,0,,0,,,72,127
50275,note_on,0,0,0,,4,,,64,127
50275,note_on,0,0,0,,0,,,60,127
50275,note_on,0,0,0,,7,,,67,127
50384,note_off,109,0,0,,0,,,72,127
50385,note_on,1,0,0,,4,,,76,127
50494,note_off,109,0,0,,4,,,76,127
50494,note_off,0,0,0,,7,,,67,127
50494,note_off,0,0,0,,0,,,60,127
50494,note_off,0,0,0,,4,,,64,127
50495,note_on,1,0,0,,7,,,79,127
50495,note_on,0,0,0,,7,,,67,127
50495,note_on,0,0,0,,4,,,64,127
50495,note_on,0,0,0,,0,,,60,127
50604,note_off,109,0,0,,7,,,79,127
50605,note_on,1,0,0,,0,,,72,127
50714,note_off,109,0,0,,0,,,72,127
50714,note_off,0,0,0,,0,,,60,127
50714,note_off,0,0,0,,4,,,64,127
50714,note_off,0,0,0,,7,,,67,127
50715,note_on,1,0,0,,0,,,84,127
50715,note_on,0,0,0,,0,,,72,127
50715,note_on,0,0,0,,0,,,60,127
50715,note_on,0,0,0,,8,,,68,127
50715,note_on,0,0,0,,5,,,65,127
50933,note_off,218,0,0,,5,,,65,127
50933,note_off,0,0,0,,8,,,68,127
50933,note_off,0,0,0,,0,,,60,127
50934,note_on,1,0,0,,0,,,60,127
50934,note_on,0,0,0,,8,,,68,127
50934,note_on,0,0,0,,5,,,65,127
51152,note_off,218,0,0,,5,,,65,127
51152,note_off,0,0,0,,8,,,68,127
51152,note_off,0,0,0,,0,,,60,127
51153,note_on,1,0,0,,8,,,68,127
51153,note_on,0,0,0,,5,,,65,127
51153,note_on,0,0,0,,0,,,60,127
51371,note_off,218,0,0,,0,,,60,127
51371,note_off,0,0,0,,5,,,65,127
51371,note_off,0,0,0,,8,,,68,127
51372,note_on,1,0,0,,0,,,60,127
51372,note_on,0,0,0,,4,,,64,127
51481,note_off,109,0,0,,0,,,72,127
51481,note_off,0,0,0,,0,,,84,127
51482,note_on,1,0,0,,7,,,67,127
51591,note_off,109,0,0,,7,,,67,127
51591,note_off,0,0,0,,4,,,64,127
51591,note_off,0,0,0,,0,,,60,127
51592,note_on,1,0,0,,0,,,72,127
51592,note_on,0,0,0,,7,,,67,127
51592,note_on,0,0,0,,4,,,64,127
51592,note_on,0,0,0,,0,,,60,127
51701,note_off,109,0,0,,0,,,72,127
51702,note_on,1,0,0,,4,,,76,127
51811,note_off,109,0,0,,4,,,76,127
51811,note_off,0,0,0,,0,,,60,127
51811,note_off,0,0,0,,4,,,64,127
51811,note_off,0,0,0,,7,,,67,127
51812,note_on,1,0,0,,7,,,79,127
51812,note_on,0,0,0,,4,,,64,127
51812,note_on,0,0,0,,0,,,60,127
51812,note_on,0,0,0,,7,,,67,127
51921,note_off,109,0,0,,7,,,79,127
51922,note_on,1,0,0,,0,,,72,127
52031,note_off,109,0,0,,0,,,72,127
52031,note_off,0,0,0,,7,,,67,127
52031,note_off,0,0,0,,0,,,60,127
52031,note_off,0,0,0,,4,,,64,127
52032,note_on,1,0,0,,0,,,84,127
52032,note_on,0,0,0,,0,,,72,127
52032,note_on,0,0,0,,5,,,65,127
52032,note_on,0,0,0,,0,,,60,127
52032,note_on,0,0,0,,8,,,68,127
52250,note_off,218,0,0,,8,,,68,127
52250,note_off,0,0,0,,0,,,60,127
52250,note_off,0,0,0,,5,,,65,127
52251,note_on,1,0,0,,0,,,60,127
52251,note_on,0,0,0,,8,,,68,127
52251,note_on,0,0,0,,5,,,65,127
52469,note_off,218,0,0,,5,,,65,127
52469,note_off,0,0,0,,8,,,68,127
52469,note_off,0,0,0,,0,,,60,127
52470,note_on,1,0,0,,8,,,68,127
52470,note_on,0,0,0,,0,,,60,127
52470,note_on,0,0,0,,5,,,65,127
52688,note_off,218,0,0,,5,,,65,127
52688,note_off,0,0,0,,0,,,60,127
52688,note_off,0,0,0,,8,,,68,127
52688,note_off,0,0,0,,0,,,72,127
52688,note_off,0,0,0,,0,,,84,127
52689,note_on,1,0,0,,0,,,84,127
52689,note_on,0,0,0,,7,,,67,127
52689,note_on,0,0,0,,0,,,60,127
52743,note_off,54,0,0,,0,,,84,127
52744,note_on,1,0,0,,11,,,82,127
52798,note_off,54,0,0,,11,,,82,127
52799,note_on,1,0,0,,0,,,84,127
52853,note_off,54,0,0,,0,,,84,127
52854,note_on,1,0,0,,11,,,82,127
52908,note_off,54,0,0,,11,,,82,127
52908,note_off,0,0,0,,0,,,60,127
52908,note_off,0,0,0,,7,,,67,127
52909,note_on,1,0,0,,8,,,80,127
52909,note_on,0,0,0,,5,,,65,127
52909,note_on,0,0,0,,0,,,60,127
53127,note_off,218,0,0,,0,,,60,127
53127,note_off,0,0,0,,5,,,65,127
53127,note_off,0,0,0,,8,,,80,127
53128,note_on,1,0,0,,7,,,79,127
53128,note_on,0,0,0,,0,,,60,127
53128,note_on,0,0,0,,4,,,64,127
53346,note_off,218,0,0,,4,,,64,127
53346,note_off,0,0,0,,0,,,60,127
53346,note_off,0,0,0,,7,,,79,127
53347,note_on,1,0,0,,8,,,80,127
53347,note_on,0,0,0,,5,,,53,127
53347,note_on,0,0,0,,5,,,65,127
53456,note_off,109,0,0,,8,,,80,127
53457,note_on,1,0,0,,5,,,77,127
53566,note_off,109,0,0,,5,,,77,127
53567,note_on,1,0,0,,0,,,72,127
53676,note_off,109,0,0,,0,,,72,127
53677,note_on,1,0,0,,8,,,68,127
53782,note_off,105,0,0,,5,,,65,127
53785,note_off,3,0,0,,8,,,68,127
53786,note_on,1,0,0,,5,,,65,127
53896,note_off,110,0,0,,5,,,53,127
54003,note_off,107,0,0,,5,,,65,127
54005,note_on,2,0,0,,2,,,62,127
54005,note_on,0,0,0,,11,,,58,127
54115,note_on,110,0,0,,5,,,65,127
54224,note_off,109,0,0,,5,,,65,127
54224,note_off,0,0,0,,11,,,58,127
54224,note_off,0,0,0,,2,,,62,127
54225,note_on,1,0,0,,11,,,70,127
54225,note_on,0,0,0,,2,,,62,127
54225,note_on,0,0,0,,5,,,65,127
54225,note_on,0,0,0,,11,,,58,127
54334,note_off,109,0,0,,11,,,70,127
54335,note_on,1,0,0,,2,,,74,127
54444,note_off,109,0,0,,2,,,74,127
54444,note_off,0,0,0,,11,,,58,127
54444,note_off,0,0,0,,5,,,65,127
54444,note_off,0,0,0,,2,,,62,127
54445,note_on,1,0,0,,5,,,77,127
54445,note_on,0,0,0,,5,,,65,127
54445,note_on,0,0,0,,2,,,62,127
54445,note_on,0,0,0,,11,,,58,127
54554,note_off,109,0,0,,5,,,77,127
54555,note_on,1,0,0,,11,,,70,127
54664,note_off,109,0,0,,11,,,70,127
54664,note_off,0,0,0,,11,,,58,127
54664,note_off,0,0,0,,2,,,62,127
54664,note_off,0,0,0,,5,,,65,127
54665,note_on,1,0,0,,11,,,70,127
54665,note_on,0,0,0,,11,,,82,127
54665,note_on,0,0,0,,3,,,63,127
54665,note_on,0,0,0,,7,,,67,127
54665,note_on,0,0,0,,11,,,58,127
54883,note_off,218,0,0,,11,,,58,127
54883,note_off,0,0,0,,7,,,67,127
54883,note_off,0,0,0,,3,,,63,127
54884,note_on,1,0,0,,11,,,58,127
54884,note_on,0,0,0,,3,,,63,127
54884,note_on,0,0,0,,7,,,67,127
55102,note_off,218,0,0,,7,,,67,127
55102,note_off,0,0,0,,3,,,63,127
55102,note_off,0,0,0,,11,,,58,127
55103,note_on,1,0,0,,3,,,63,127
55103,note_on,0,0,0,,11,,,58,127
55103,note_on,0,0,0,,7,,,67,127
55321,note_off,218,0,0,,7,,,67,127
55321,note_off,0,0,0,,11,,,58,127
55321,note_off,0,0,0,,3,,,63,127
55322,note_on,1,0,0,,2,,,62,127
55322,note_on,0,0,0,,11,,,58,127
55431,note_off,109,0,0,,11,,,82,127
55431,note_off,0,0,0,,11,,,70,127
55432,note_on,1,0,0,,5,,,65,127
55541,note_off,109,0,0,,5,,,65,127
55541,note_off,0,0,0,,11,,,58,127
55541,note_off,0,0,0,,2,,,62,127
55542,note_on,1,0,0,,11,,,70,127
55542,note_on,0,0,0,,11,,,58,127
55542,note_on,0,0,0,,5,,,65,127
55542,note_on,0,0,0,,2,,,62,127
55651,note_off,109,0,0,,11,,,70,127
55652,note_on,1,0,0,,2,,,74,127
55761,note_off,109,0,0,,2,,,74,127
55761,note_off,0,0,0,,2,,,62,127
55761,note_off,0,0,0,,5,,,65,127
55761,note_off,0,0,0,,11,,,58,127
55762,note_on,1,0,0,,5,,,77,127
55762,note_on,0,0,0,,5,,,65,127
55762,note_on,0,0,0,,2,,,62,127
55762,note_on,0,0,0,,11,,,58,127
55871,note_off,109,0,0,,5,,,77,127
55872,note_on,1,0,0,,11,,,70,127
55981,note_off,109,0,0,,11,,,70,127
55981,note_off,0,0,0,,11,,,58,127
55981,note_off,0,0,0,,2,,,62,127
55981,note_off,0,0,0,,5,,,65,127
55982,note_on,1,0,0,,11,,,82,127
55982,note_on,0,0,0,,11,,,70,127
55982,note_on,0,0,0,,3,,,63,127
55982,note_on,0,0,0,,11,,,58,127
55982,note_on,0,0,0,,7,,,67,127
56200,note_off,218,0,0,,7,,,67,127
56200,note_off,0,0,0,,11,,,58,127
56200,note_off,0,0,0,,3,,,63,127
56201,note_on,1,0,0,,3,,,63,127
56201,note_on,0,0,0,,11,,,58,127
56201,note_on,0,0,0,,7,,,67,127
56419,note_off,218,0,0,,7,,,67,127
56419,note_off,0,0,0,,11,,,58,127
56419,note_off,0,0,0,,3,,,63,127
56420,note_on,1,0,0,,7,,,67,127
56420,note_on,0,0,0,,3,,,63,127
56420,note_on,0,0,0,,11,,,58,127
56638,note_off,218,0,0,,11,,,58,127
56638,note_off,0,0,0,,3,,,63,127
56638,note_off,0,0,0,,7,,,67,127
56638,note_off,0,0,0,,11,,,70,127
56638,note_off,0,0,0,,11,,,82,127
56639,note_on,1,0,0,,11,,,82,127
56639,note_on,0,0,0,,5,,,65,127
56639,note_on,0,0,0,,11,,,58,127
56693,note_off,54,0,0,,11,,,82,127
56694,note_on,1,0,0,,8,,,80,127
56748,note_off,54,0,0,,8,,,80,127
56749,note_on,1,0,0,,11,,,82,127
56803,note_off,54,0,0,,11,,,82,127
56804,note_on,1,0,0,,8,,,80,127
56858,note_off,54,0,0,,8,,,80,127
56858,note_off,0,0,0,,11,,,58,127
56858,note_off,0,0,0,,5,,,65,127
56859,note_on,1,0,0,,7,,,79,127
56859,note_on,0,0,0,,11,,,58,127
56859,note_on,0,0,0,,3,,,63,127
57077,note_off,218,0,0,,3,,,63,127
57077,note_off,0,0,0,,11,,,58,127
57077,note_off,0,0,0,,7,,,79,127
57078,note_on,1,0,0,,5,,,77,127
57078,note_on,0,0,0,,11,,,58,127
57078,note_on,0,0,0,,2,,,62,127
57296,note_off,218,0,0,,2,,,62,127
57296,note_off,0,0,0,,11,,,58,127
57296,note_off,0,0,0,,5,,,77,127
57297,note_on,1,0,0,,7,,,79,127
57297,note_on,0,0,0,,3,,,51,127
57297,note_on,0,0,0,,3,,,63,127
57406,note_off,109,0,0,,7,,,79,127
57407,note_on,1,0,0,,3,,,75,127
57516,note_off,109,0,0,,3,,,75,127
57517,note_on,1,0,0,,11,,,70,127
57626,note_off,109,0,0,,11,,,70,127
57627,note_on,1,0,0,,7,,,67,127
57732,note_off,105,0,0,,3,,,63,127
57735,note_off,3,0,0,,7,,,67,127
57736,note_on,1,0,0,,3,,,63,127
57953,note_off,217,0,0,,3,,,63,127
57954,note_off,1,0,0,,3,,,51,127
57955,note_on,1,0,0,,3,,,63,127
58065,note_on,110,0,0,,7,,,67,127
58174,note_off,109,0,0,,7,,,67,127
58174,note_off,0,0,0,,3,,,63,127
58175,note_on,1,0,0,,0,,,72,127
58175,note_on,0,0,0,,7,,,67,127
58175,note_on,0,0,0,,3,,,63,127
58284,note_off,109,0,0,,0,,,72,127
58285,note_on,1,0,0,,3,,,75,127
58394,note_off,109,0,0,,3,,,75,127
58394,note_off,0,0,0,,3,,,63,127
58394,note_off,0,0,0,,7,,,67,127
58395,note_on,1,0,0,,7,,,79,127
58395,note_on,0,0,0,,3,,,63,127
58395,note_on,0,0,0,,7,,,67,127
58504,note_off,109,0,0,,7,,,79,127
58505,note_on,1,0,0,,0,,,72,127
58614,note_off,109,0,0,,0,,,72,127
58614,note_off,0,0,0,,7,,,67,127
58614,note_off,0,0,0,,3,,,63,127
58615,note_on,1,0,0,,8,,,80,127
58615,note_on,0,0,0,,12,,,71,127
58615,note_on,0,0,0,,2,,,62,127
58615,note_on,0,0,0,,8,,,68,127
58615,note_on,0,0,0,,5,,,65,127
58833,note_off,218,0,0,,5,,,65,127
58833,note_off,0,0,0,,8,,,68,127
58833,note_off,0,0,0,,2,,,62,127
58834,note_on,1,0,0,,8,,,68,127
58834,note_on,0,0,0,,5,,,65,127
58834,note_on,0,0,0,,2,,,62,127
59052,note_off,218,0,0,,2,,,62,127
59052,note_off,0,0,0,,5,,,65,127
59052,note_off,0,0,0,,8,,,68,127
59053,note_on,1,0,0,,8,,,68,127
59053,note_on,0,0,0,,5,,,65,127
59053,note_on,0,0,0,,2,,,62,127
59266,note_off,213,0,0,,12,,,71,127
59266,note_off,0,0,0,,8,,,80,127
59272,note_off,6,0,0,,2,,,62,127
59272,note_off,0,0,0,,5,,,65,127
59272,note_off,0,0,0,,8,,,68,127
59273,note_on,1,0,0,,3,,,63,127
59383,note_on,110,0,0,,7,,,67,127
59492,note_off,109,0,0,,7,,,67,127
59492,note_off,0,0,0,,3,,,63,127
59493,note_on,1,0,0,,0,,,72,127
59493,note_on,0,0,0,,3,,,63,127
59493,note_on,0,0,0,,7,,,67,127
59602,note_off,109,0,0,,0,,,72,127
59603,note_on,1,0,0,,3,,,75,127
59712,note_off,109,0,0,,3,,,75,127
59712,note_off,0,0,0,,7,,,67,127
59712,note_off,0,0,0,,3,,,63,127
59713,note_on,1,0,0,,7,,,79,127
59713,note_on,0,0,0,,7,,,67,127
59713,note_on,0,0,0,,3,,,63,127
59822,note_off,109,0,0,,7,,,79,127
59823,note_on,1,0,0,,0,,,72,127
59932,note_off,109,0,0,,0,,,72,127
59932,note_off,0,0,0,,3,,,63,127
59932,note_off,0,0,0,,7,,,67,127
59933,note_on,1,0,0,,2,,,74,127
59933,note_on,0,0,0,,2,,,86,127
59933,note_on,0,0,0,,5,,,65,127
59933,note_on,0,0,0,,2,,,62,127
59933,note_on,0,0,0,,8,,,68,127
60151,note_off,218,0,0,,8,,,68,127
60151,note_off,0,0,0,,2,,,62,127
60151,note_off,0,0,0,,5,,,65,127
60152,note_on,1,0,0,,8,,,68,127
60152,note_on,0,0,0,,2,,,62,127
60152,note_on,0,0,0,,5,,,65,127
60370,note_off,218,0,0,,5,,,65,127
60370,note_off,0,0,0,,2,,,62,127
60370,note_off,0,0,0,,8,,,68,127
60371,note_on,1,0,0,,5,,,65,127
60371,note_on,0,0,0,,2,,,62,127
60371,note_on,0,0,0,,8,,,68,127
60584,note_off,213,0,0,,2,,,86,127
60584,note_off,0,0,0,,2,,,74,127
60590,note_off,6,0,0,,8,,,68,127
60590,note_off,0,0,0,,2,,,62,127
60590,note_off,0,0,0,,5,,,65,127
60591,note_on,1,0,0,,3,,,63,127
60701,note_on,110,0,0,,7,,,67,127
60810,note_off,109,0,0,,7,,,67,127
60810,note_off,0,0,0,,3,,,63,127
60811,note_on,1,0,0,,0,,,72,127
60811,note_on,0,0,0,,3,,,63,127
60811,note_on,0,0,0,,7,,,67,127
60920,note_off,109,0,0,,0,,,72,127
60921,note_on,1,0,0,,3,,,75,127
61030,note_off,109,0,0,,3,,,75,127
61030,note_off,0,0,0,,7,,,67,127
61030,note_off,0,0,0,,3,,,63,127
61031,note_on,1,0,0,,7,,,79,127
61031,note_on,0,0,0,,7,,,67,127
61031,note_on,0,0,0,,3,,,63,127
61140,note_off,109,0,0,,7,,,79,127
61141,note_on,1,0,0,,0,,,72,127
61250,note_off,109,0,0,,0,,,72,127
61250,note_off,0,0,0,,3,,,63,127
61250,note_off,0,0,0,,7,,,67,127
61251,note_on,1,0,0,,12,,,71,127
61251,note_on,0,0,0,,8,,,80,127
61251,note_on,0,0,0,,8,,,68,127
61251,note_on,0,0,0,,2,,,62,127
61251,note_on,0,0,0,,5,,,65,127
61469,note_off,218,0,0,,5,,,65,127
61469,note_off,0,0,0,,2,,,62,127
61469,note_off,0,0,0,,8,,,68,127
61470,note_on,1,0,0,,8,,,68,127
61470,note_on,0,0,0,,5,,,65,127
61470,note_on,0,0,0,,2,,,62,127
61688,note_off,218,0,0,,2,,,62,127
61688,note_off,0,0,0,,5,,,65,127
61688,note_off,0,0,0,,8,,,68,127
61689,note_on,1,0,0,,8,,,68,127
61689,note_on,0,0,0,,2,,,62,127
61689,note_on,0,0,0,,5,,,65,127
61902,note_off,213,0,0,,8,,,80,127
61902,note_off,0,0,0,,12,,,71,127
61908,note_off,6,0,0,,5,,,65,127
61908,note_off,0,0,0,,2,,,62,127
61908,note_off,0,0,0,,8,,,68,127
61909,note_on,1,0,0,,3,,,63,127
62019,note_on,110,0,0,,7,,,67,127
62128,note_off,109,0,0,,7,,,67,127
62128,note_off,0,0,0,,3,,,63,127
62129,note_on,1,0,0,,0,,,72,127
62129,note_on,0,0,0,,3,,,63,127
62129,note_on,0,0,0,,7,,,67,127
62238,note_off,109,0,0,,0,,,72,127
62239,note_on,1,0,0,,3,,,75,127
62348,note_off,109,0,0,,3,,,75,127
62348,note_off,0,0,0,,7,,,67,127
62348,note_off,0,0,0,,3,,,63,127
62349,note_on,1,0,0,,7,,,79,127
62349,note_on,0,0,0,,7,,,67,127
62349,note_on,0,0,0,,3,,,63,127
62458,note_off,109,0,0,,7,,,79,127
62459,note_on,1,0,0,,0,,,72,127
62568,note_off,109,0,0,,0,,,72,127
62568,note_off,0,0,0,,3,,,63,127
62568,note_off,0,0,0,,7,,,67,127
62569,note_on,1,0,0,,2,,,74,127
62569,note_on,0,0,0,,2,,,86,127
62569,note_on,0,0,0,,8,,,68,127
62569,note_on,0,0,0,,2,,,62,127
62569,note_on,0,0,0,,5,,,65,127
62787,note_off,218,0,0,,5,,,65,127
62787,note_off,0,0,0,,2,,,62,127
62787,note_off,0,0,0,,8,,,68,127
62788,note_on,1,0,0,,8,,,68,127
62788,note_on,0,0,0,,5,,,65,127
62788,note_on,0,0,0,,2,,,62,127
63006,note_off,218,0,0,,2,,,62,127
63006,note_off,0,0,0,,5,,,65,127
63006,note_off,0,0,0,,8,,,68,127
63007,note_on,1,0,0,,2,,,62,127
63007,note_on,0,0,0,,8,,,68,127
63007,note_on,0,0,0,,5,,,65,127
63225,note_off,218,0,0,,5,,,65,127
63225,note_off,0,0,0,,8,,,68,127
63225,note_off,0,0,0,,2,,,62,127
63225,note_off,0,0,0,,2,,,86,127
63225,note_off,0,0,0,,2,,,74,127
63226,note_on,1,0,0,,12,,,83,127
63226,note_on,0,0,0,,7,,,55,127
63226,note_on,0,0,0,,5,,,65,127
63226,note_on,0,0,0,,2,,,62,127
63444,note_off,218,0,0,,2,,,62,127
63444,note_off,0,0,0,,5,,,65,127
63444,note_off,0,0,0,,7,,,55,127
63444,note_off,0,0,0,,12,,,83,127
63445,note_on,1,0,0,,8,,,80,127
63445,note_on,0,0,0,,7,,,55,127
63445,note_on,0,0,0,,5,,,65,127
63445,note_on,0,0,0,,2,,,62,127
63663,note_off,218,0,0,,2,,,62,127
63663,note_off,0,0,0,,5,,,65,127
63663,note_off,0,0,0,,7,,,55,127
63663,note_off,0,0,0,,8,,,80,127
63664,note_on,1,0,0,,5,,,77,127
63664,note_on,0,0,0,,7,,,55,127
63664,note_on,0,0,0,,5,,,65,127
63664,note_on,0,0,0,,2,,,62,127
63882,note_off,218,0,0,,2,,,62,127
63882,note_off,0,0,0,,5,,,65,127
63882,note_off,0,0,0,,7,,,55,127
63882,note_off,0,0,0,,5,,,77,127
63883,note_on,1,0,0,,4,,,76,127
63883,note_on,0,0,0,,0,,,60,127
64101,note_off,218,0,0,,0,,,60,127
64101,note_off,0,0,0,,4,,,76,127
64102,note_on,1,0,0,,1,,,73,127
64102,note_on,0,0,0,,0,,,60,127
64320,note_off,218,0,0,,0,,,60,127
64320,note_off,0,0,0,,1,,,73,127
64321,note_on,1,0,0,,11,,,70,127
64321,note_on,0,0,0,,0,,,60,127
64539,note_off,218,0,0,,0,,,60,127
64539,note_off,0,0,0,,11,,,70,127
64540,note_on,1,0,0,,10,,,69,127
64540,note_on,0,0,0,,0,,,60,127
64540,note_on,0,0,0,,5,,,53,127
64758,note_off,218,0,0,,5,,,53,127
64758,note_off,0,0,0,,0,,,60,127
64758,note_off,0,0,0,,10,,,69,127
64759,note_on,1,0,0,,6,,,66,127
64759,note_on,0,0,0,,5,,,53,127
64759,note_on,0,0,0,,0,,,60,127
64977,note_off,218,0,0,,0,,,60,127
64977,note_off,0,0,0,,5,,,53,127
64977,note_off,0,0,0,,6,,,66,127
64978,note_on,1,0,0,,3,,,63,127
64978,note_on,0,0,0,,5,,,53,127
64978,note_on,0,0,0,,0,,,60,127
65196,note_off,218,0,0,,0,,,60,127
65196,note_off,0,0,0,,5,,,53,127
65196,note_off,0,0,0,,3,,,63,127
65197,note_on,1,0,0,,3,,,63,127
65197,note_on,0,0,0,,11,,,58,127
65251,note_off,54,0,0,,3,,,63,127
65252,note_on,1,0,0,,1,,,61,127
65306,note_off,54,0,0,,1,,,61,127
65307,note_on,1,0,0,,3,,,63,127
65361,note_off,54,0,0,,3,,,63,127
65362,note_on,1,0,0,,1,,,61,127
65416,note_off,54,0,0,,1,,,61,127
65416,note_off,0,0,0,,11,,,58,127
65417,note_on,1,0,0,,3,,,63,127
65417,note_on,0,0,0,,11,,,46,127
65471,note_off,54,0,0,,3,,,63,127
65472,note_on,1,0,0,,1,,,61,127
65526,note_off,54,0,0,,1,,,61,127
65527,note_on,1,0,0,,0,,,60,127
65636,note_off,109,0,0,,0,,,60,127
65637,note_on,1,0,0,,11,,,58,127
65795,note_off,158,0,0,,11,,,46,127
65854,note_off,59,0,0,,11,,,58,127
65856,note_on,2,0,0,,1,,,61,127
65856,note_on,0,0,0,,11,,,58,127
65966,note_on,110,0,0,,5,,,65,127
66075,note_off,109,0,0,,5,,,65,127
66075,note_off,0,0,0,,11,,,58,127
66075,note_off,0,0,0,,1,,,61,127
66076,note_on,1,0,0,,11,,,70,127
66076,note_on,0,0,0,,11,,,58,127
66076,note_on,0,0,0,,1,,,61,127
66185,note_off,109,0,0,,11,,,70,127
66186,note_on,1,0,0,,0,,,72,127
66295,note_off,109,0,0,,0,,,72,127
66295,note_off,0,0,0,,1,,,61,127
66295,note_off,0,0,0,,11,,,58,127
66296,note_on,1,0,0,,1,,,73,127
66296,note_on,0,0,0,,1,,,61,127
66296,note_on,0,0,0,,11,,,58,127
66405,note_off,109,0,0,,1,,,73,127
66406,note_on,1,0,0,,11,,,70,127
66515,note_off,109,0,0,,11,,,70,127
66515,note_off,0,0,0,,11,,,58,127
66515,note_off,0,0,0,,1,,,61,127
66516,note_on,1,0,0,,0,,,72,127
66516,note_on,0,0,0,,0,,,60,127
66516,note_on,0,0,0,,10,,,57,127
66734,note_off,218,0,0,,10,,,57,127
66734,note_off,0,0,0,,0,,,60,127
66734,note_off,0,0,0,,0,,,72,127
66735,note_on,1,0,0,,8,,,80,127
66735,note_on,0,0,0,,10,,,57,127
66735,note_on,0,0,0,,0,,,60,127
66789,note_off,54,0,0,,8,,,80,127
66790,note_on,1,0,0,,6,,,78,127
66844,note_off,54,0,0,,6,,,78,127
66845,note_on,1,0,0,,8,,,80,127
66899,note_off,54,0,0,,8,,,80,127
66900,note_on,1,0,0,,6,,,78,127
66954,note_off,54,0,0,,6,,,78,127
66954,note_off,0,0,0,,0,,,60,127
66954,note_off,0,0,0,,10,,,57,127
66955,note_on,1,0,0,,5,,,77,127
66955,note_on,0,0,0,,0,,,60,127
66955,note_on,0,0,0,,10,,,57,127
67173,note_off,218,0,0,,10,,,57,127
67173,note_off,0,0,0,,0,,,60,127
67174,note_on,1,0,0,,1,,,61,127
67174,note_on,0,0,0,,11,,,58,127
67283,note_off,109,0,0,,5,,,77,127
67284,note_on,1,0,0,,5,,,65,127
67393,note_off,109,0,0,,5,,,65,127
67393,note_off,0,0,0,,11,,,58,127
67393,note_off,0,0,0,,1,,,61,127
67394,note_on,1,0,0,,11,,,70,127
67394,note_on,0,0,0,,1,,,61,127
67394,note_on,0,0,0,,11,,,58,127
67503,note_off,109,0,0,,11,,,70,127
67504,note_on,1,0,0,,0,,,72,127
67613,note_off,109,0,0,,0,,,72,127
67613,note_off,0,0,0,,11,,,58,127
67613,note_off,0,0,0,,1,,,61,127
67614,note_on,1,0,0,,1,,,73,127
67614,note_on,0,0,0,,1,,,61,127
67614,note_on,0,0,0,,11,,,58,127
67723,note_off,109,0,0,,1,,,73,127
67724,note_on,1,0,0,,11,,,70,127
67833,note_off,109,0,0,,11,,,70,127
67833,note_off,0,0,0,,11,,,58,127
67833,note_off,0,0,0,,1,,,61,127
67834,note_on,1,0,0,,0,,,72,127
67834,note_on,0,0,0,,0,,,60,127
67834,note_on,0,0,0,,10,,,57,127
68052,note_off,218,0,0,,10,,,57,127
68052,note_off,0,0,0,,0,,,60,127
68052,note_off,0,0,0,,0,,,72,127
68053,note_on,1,0,0,,8,,,80,127
68053,note_on,0,0,0,,0,,,60,127
68053,note_on,0,0,0,,10,,,57,127
68107,note_off,54,0,0,,8,,,80,127
68108,note_on,1,0,0,,6,,,78,127
68162,note_off,54,0,0,,6,,,78,127
68163,note_on,1,0,0,,8,,,80,127
68217,note_off,54,0,0,,8,,,80,127
68218,note_on,1,0,0,,6,,,78,127
68272,note_off,54,0,0,,6,,,78,127
68272,note_off,0,0,0,,10,,,57,127
68272,note_off,0,0,0,,0,,,60,127
68273,note_on,1,0,0,,5,,,77,127
68273,note_on,0,0,0,,0,,,60,127
68273,note_on,0,0,0,,10,,,57,127
68490,note_off,217,0,0,,5,,,77,127
68491,note_off,1,0,0,,10,,,57,127
68491,note_off,0,0,0,,0,,,60,127
68492,note_on,1,0,0,,4,,,64,127
68492,note_on,0,0,0,,7,,,67,127
68602,note_on,110,0,0,,0,,,72,127
68711,note_off,109,0,0,,0,,,72,127
68711,note_off,0,0,0,,7,,,67,127
68711,note_off,0,0,0,,4,,,64,127
68712,note_on,1,0,0,,7,,,79,127
68712,note_on,0,0,0,,7,,,67,127
68712,note_on,0,0,0,,4,,,64,127
68821,note_off,109,0,0,,7,,,79,127
68822,note_on,1,0,0,,8,,,80,127
68931,note_off,109,0,0,,8,,,80,127
68931,note_off,0,0,0,,4,,,64,127
68931,note_off,0,0,0,,7,,,67,127
68932,note_on,1,0,0,,11,,,82,127
68932,note_on,0,0,0,,7,,,67,127
68932,note_on,0,0,0,,4,,,64,127
69041,note_off,109,0,0,,11,,,82,127
69042,note_on,1,0,0,,7,,,79,127
69151,note_off,109,0,0,,7,,,79,127
69151,note_off,0,0,0,,4,,,64,127
69151,note_off,0,0,0,,7,,,67,127
69152,note_on,1,0,0,,8,,,80,127
69152,note_on,0,0,0,,5,,,65,127
69152,note_on,0,0,0,,8,,,68,127
69370,note_off,218,0,0,,8,,,68,127
69370,note_off,0,0,0,,5,,,65,127
69370,note_off,0,0,0,,8,,,80,127
69371,note_on,1,0,0,,3,,,75,127
69371,note_on,0,0,0,,8,,,68,127
69371,note_on,0,0,0,,5,,,65,127
69425,note_off,54,0,0,,3,,,75,127
69426,note_on,1,0,0,,1,,,73,127
69480,note_off,54,0,0,,1,,,73,127
69481,note_on,1,0,0,,3,,,75,127
69535,note_off,54,0,0,,3,,,75,127
69536,note_on,1,0,0,,1,,,73,127
69590,note_off,54,0,0,,1,,,73,127
69590,note_off,0,0,0,,5,,,65,127
69590,note_off,0,0,0,,8,,,68,127
69591,note_on,1,0,0,,0,,,72,127
69591,note_on,0,0,0,,8,,,68,127
69591,note_on,0,0,0,,5,,,65,127
69809,note_off,218,0,0,,5,,,65,127
69809,note_off,0,0,0,,8,,,68,127
69810,note_on,1,0,0,,7,,,67,127
69810,note_on,0,0,0,,4,,,64,127
69919,note_off,109,0,0,,0,,,72,127
69920,note_on,1,0,0,,0,,,72,127
70029,note_off,109,0,0,,0,,,72,127
70029,note_off,0,0,0,,4,,,64,127
70029,note_off,0,0,0,,7,,,67,127
70030,note_on,1,0,0,,7,,,79,127
70030,note_on,0,0,0,,7,,,67,127
70030,note_on,0,0,0,,4,,,64,127
70139,note_off,109,0,0,,7,,,79,127
70140,note_on,1,0,0,,8,,,80,127
70249,note_off,109,0,0,,8,,,80,127
70249,note_off,0,0,0,,4,,,64,127
70249,note_off,0,0,0,,7,,,67,127
70250,note_on,1,0,0,,11,,,82,127
70250,note_on,0,0,0,,4,,,64,127
70250,note_on,0,0,0,,7,,,67,127
70359,note_off,109,0,0,,11,,,82,127
70360,note_on,1,0,0,,7,,,79,127
70469,note_off,109,0,0,,7,,,79,127
70469,note_off,0,0,0,,7,,,67,127
70469,note_off,0,0,0,,4,,,64,127
70470,note_on,1,0,0,,8,,,80,127
70470,note_on,0,0,0,,5,,,65,127
70470,note_on,0,0,0,,8,,,68,127
70688,note_off,218,0,0,,8,,,68,127
70688,note_off,0,0,0,,5,,,65,127
70688,note_off,0,0,0,,8,,,80,127
70689,note_on,1,0,0,,3,,,75,127
70689,note_on,0,0,0,,5,,,65,127
70689,note_on,0,0,0,,8,,,68,127
70743,note_off,54,0,0,,3,,,75,127
70744,note_on,1,0,0,,1,,,73,127
70798,note_off,54,0,0,,1,,,73,127
70799,note_on,1,0,0,,3,,,75,127
70853,note_off,54,0,0,,3,,,75,127
70854,note_on,1,0,0,,1,,,73,127
70908,note_off,54,0,0,,1,,,73,127
70908,note_off,0,0,0,,8,,,68,127
70908,note_off,0,0,0,,5,,,65,127
70909,note_on,1,0,0,,0,,,72,127
70909,note_on,0,0,0,,8,,,68,127
70909,note_on,0,0,0,,5,,,65,127
71127,note_off,218,0,0,,5,,,65,127
71127,note_off,0,0,0,,8,,,68,127
71128,note_on,1,0,0,,7,,,67,127
71128,note_on,0,0,0,,4,,,64,127
71237,note_off,109,0,0,,0,,,72,127
71238,note_on,1,0,0,,0,,,72,127
71347,note_off,109,0,0,,0,,,72,127
71347,note_off,0,0,0,,4,,,64,127
71347,note_off,0,0,0,,7,,,67,127
71348,note_on,1,0,0,,7,,,79,127
71348,note_on,0,0,0,,7,,,67,127
71348,note_on,0,0,0,,4,,,64,127
71457,note_off,109,0,0,,7,,,79,127
71458,note_on,1,0,0,,8,,,80,127
71567,note_off,109,0,0,,8,,,80,127
71567,note_off,0,0,0,,4,,,64,127
71567,note_off,0,0,0,,7,,,67,127
71568,note_on,1,0,0,,11,,,82,127
71568,note_on,0,0,0,,4,,,64,127
71568,note_on,0,0,0,,7,,,67,127
71677,note_off,109,0,0,,11,,,82,127
71678,note_on,1,0,0,,7,,,79,127
71787,note_off,109,0,0,,7,,,79,127
71787,note_off,0,0,0,,7,,,67,127
71787,note_off,0,0,0,,4,,,64,127
71788,note_on,1,0,0,,11,,,82,127
71788,note_on,0,0,0,,5,,,65,127
71842,note_off,54,0,0,,11,,,82,127
71843,note_on,1,0,0,,8,,,80,127
71897,note_off,54,0,0,,8,,,80,127
71898,note_on,1,0,0,,11,,,82,127
71952,note_off,54,0,0,,11,,,82,127
71953,note_on,1,0,0,,8,,,80,127
72007,note_off,54,0,0,,8,,,80,127
72007,note_off,0,0,0,,5,,,65,127
72008,note_on,1,0,0,,11,,,82,127
72008,note_on,0,0,0,,5,,,53,127
72062,note_off,54,0,0,,11,,,82,127
72063,note_on,1,0,0,,8,,,80,127
72117,note_off,54,0,0,,8,,,80,127
72118,note_on,1,0,0,,7,,,79,127
72227,note_off,109,0,0,,7,,,79,127
72228,note_on,1,0,0,,5,,,77,127
72446,note_off,218,0,0,,5,,,53,127
72447,note_on,1,0,0,,5,,,53,127
72447,note_on,0,0,0,,0,,,60,127
72556,note_off,109,0,0,,5,,,77,127
72557,note_on,1,0,0,,5,,,65,127
72666,note_off,109,0,0,,5,,,65,127
72667,note_on,1,0,0,,8,,,68,127
72776,note_off,109,0,0,,8,,,68,127
72777,note_on,1,0,0,,5,,,77,127
72886,note_off,109,0,0,,5,,,77,127
72886,note_off,0,0,0,,5,,,53,127
72887,note_on,1,0,0,,11,,,70,127
72887,note_on,0,0,0,,0,,,48,127
72996,note_off,109,0,0,,11,,,70,127
72997,note_on,1,0,0,,7,,,79,127
73100,note_off,103,0,0,,0,,,60,127
73106,note_off,6,0,0,,7,,,79,127
73106,note_off,0,0,0,,0,,,48,127
73107,note_on,1,0,0,,0,,,72,127
73107,note_on,0,0,0,,0,,,60,127
73107,note_on,0,0,0,,5,,,53,127
73216,note_off,109,0,0,,0,,,72,127
73217,note_on,1,0,0,,8,,,80,127
73326,note_off,109,0,0,,8,,,80,127
73327,note_on,1,0,0,,1,,,73,127
73436,note_off,109,0,0,,1,,,73,127
73437,note_on,1,0,0,,11,,,82,127
73546,note_off,109,0,0,,11,,,82,127
73547,note_on,1,0,0,,0,,,84,127
73765,note_off,218,0,0,,5,,,53,127
73765,note_off,0,0,0,,0,,,60,127
73766,note_on,1,0,0,,5,,,53,127
73766,note_on,0,0,0,,0,,,60,127
73875,note_off,109,0,0,,0,,,84,127
73876,note_on,1,0,0,,5,,,65,127
73985,note_off,109,0,0,,5,,,65,127
73986,note_on,1,0,0,,8,,,68,127
74095,note_off,109,0,0,,8,,,68,127
74096,note_on,1,0,0,,5,,,77,127
74205,note_off,109,0,0,,5,,,77,127
74205,note_off,0,0,0,,5,,,53,127
74206,note_on,1,0,0,,11,,,70,127
74206,note_on,0,0,0,,0,,,48,127
74315,note_off,109,0,0,,11,,,70,127
74316,note_on,1,0,0,,7,,,79,127
74419,note_off,103,0,0,,0,,,60,127
74425,note_off,6,0,0,,7,,,79,127
74425,note_off,0,0,0,,0,,,48,127
74426,note_on,1,0,0,,0,,,72,127
74426,note_on,0,0,0,,0,,,60,127
74426,note_on,0,0,0,,5,,,53,127
74535,note_off,109,0,0,,0,,,72,127
74536,note_on,1,0,0,,8,,,80,127
74645,note_off,109,0,0,,8,,,80,127
74646,note_on,1,0,0,,1,,,73,127
74755,note_off,109,0,0,,1,,,73,127
74756,note_on,1,0,0,,11,,,82,127
74865,note_off,109,0,0,,11,,,82,127
74866,note_on,1,0,0,,0,,,84,127
75084,note_off,218,0,0,,5,,,53,127
75084,note_off,0,0,0,,0,,,60,127
75085,note_on,1,0,0,,5,,,53,127
75085,note_on,0,0,0,,0,,,60,127
75194,note_off,109,0,0,,0,,,84,127
75195,note_on,1,0,0,,5,,,65,127
75304,note_off,109,0,0,,5,,,65,127
75305,note_on,1,0,0,,8,,,68,127
75414,note_off,109,0,0,,8,,,68,127
75415,note_on,1,0,0,,5,,,77,127
75524,note_off,109,0,0,,5,,,77,127
75524,note_off,0,0,0,,5,,,53,127
75525,note_on,1,0,0,,11,,,70,127
75525,note_on,0,0,0,,0,,,48,127
75634,note_off,109,0,0,,11,,,70,127
75635,note_on,1,0,0,,7,,,79,127
75738,note_off,103,0,0,,0,,,60,127
75744,note_off,6,0,0,,7,,,79,127
75744,note_off,0,0,0,,0,,,48,127
75745,note_on,1,0,0,,0,,,72,127
75745,note_on,0,0,0,,5,,,53,127
75745,note_on,0,0,0,,0,,,60,127
75854,note_off,109,0,0,,0,,,72,127
75855,note_on,1,0,0,,8,,,80,127
75964,note_off,109,0,0,,8,,,80,127
75965,note_on,1,0,0,,1,,,73,127
76074,note_off,109,0,0,,1,,,73,127
76075,note_on,1,0,0,,11,,,82,127
76184,note_off,109,0,0,,11,,,82,127
76185,note_on,1,0,0,,0,,,84,127
76363,note_off,178,0,0,,0,,,60,127
76363,note_off,0,0,0,,5,,,53,127
76368,note_off,5,0,0,,0,,,84,127
76405,note_on,37,0,0,,1,,,73,127
76405,note_on,0,0,0,,0,,,72,127
76405,note_on,0,0,0,,10,,,69,127
76624,note_on,219,0,0,,6,,,66,127
76624,note_on,0,0,0,,3,,,63,127
76842,note_off,218,0,0,,10,,,69,127
76842,note_off,0,0,0,,0,,,72,127
76842,note_off,0,0,0,,1,,,73,127
76843,note_on,1,0,0,,3,,,75,127
77061,note_off,218,0,0,,3,,,75,127
77062,note_on,1,0,0,,1,,,73,127
77062,note_on,0,0,0,,0,,,72,127
77062,note_on,0,0,0,,10,,,69,127
77280,note_off,218,0,0,,3,,,63,127
77280,note_off,0,0,0,,6,,,66,127
77281,note_on,1,0,0,,6,,,66,127
77281,note_on,0,0,0,,3,,,63,127
77499,note_off,218,0,0,,10,,,69,127
77499,note_off,0,0,0,,0,,,72,127
77499,note_off,0,0,0,,1,,,73,127
77500,note_on,1,0,0,,3,,,75,127
77715,note_off,215,0,0,,3,,,63,127
77718,note_off,3,0,0,,3,,,75,127
77719,note_on,1,0,0,,10,,,69,127
77719,note_on,0,0,0,,2,,,74,127
77719,note_on,0,0,0,,0,,,72,127
77937,note_off,218,0,0,,6,,,66,127
77938,note_on,1,0,0,,6,,,66,127
77938,note_on,0,0,0,,2,,,62,127
78156,note_off,218,0,0,,0,,,72,127
78156,note_off,0,0,0,,2,,,74,127
78156,note_off,0,0,0,,10,,,69,127
78157,note_on,1,0,0,,3,,,75,127
78375,note_off,218,0,0,,3,,,75,127
78376,note_on,1,0,0,,0,,,72,127
78376,note_on,0,0,0,,10,,,69,127
78376,note_on,0,0,0,,2,,,74,127
78594,note_off,218,0,0,,2,,,62,127
78594,note_off,0,0,0,,6,,,66,127
78595,note_on,1,0,0,,2,,,62,127
78595,note_on,0,0,0,,6,,,66,127
78813,note_off,218,0,0,,2,,,74,127
78813,note_off,0,0,0,,10,,,69,127
78813,note_off,0,0,0,,0,,,72,127
78814,note_on,1,0,0,,3,,,75,127
79032,note_off,218,0,0,,3,,,75,127
79033,note_on,1,0,0,,0,,,72,127
79033,note_on,0,0,0,,10,,,69,127
79033,note_on,0,0,0,,2,,,74,127
79251,note_off,218,0,0,,6,,,66,127
79251,note_off,0,0,0,,2,,,62,127
79252,note_on,1,0,0,,2,,,62,127
79252,note_on,0,0,0,,6,,,66,127
79470,note_off,218,0,0,,2,,,74,127
79470,note_off,0,0,0,,10,,,69,127
79470,note_off,0,0,0,,0,,,72,127
79471,note_on,1,0,0,,2,,,74,127
79686,note_off,215,0,0,,6,,,66,127
79689,note_off,3,0,0,,2,,,74,127
79690,note_on,1,0,0,,8,,,68,127
79690,note_on,0,0,0,,12,,,71,127
79690,note_on,0,0,0,,0,,,72,127
79908,note_off,218,0,0,,2,,,62,127
79909,note_on,1,0,0,,5,,,65,127
79909,note_on,0,0,0,,2,,,62,127
80127,note_off,218,0,0,,0,,,72,127
80127,note_off,0,0,0,,12,,,71,127
80127,note_off,0,0,0,,8,,,68,127
80128,note_on,1,0,0,,2,,,74,127
80346,note_off,218,0,0,,2,,,74,127
80347,note_on,1,0,0,,0,,,72,127
80347,note_on,0,0,0,,8,,,68,127
80347,note_on,0,0,0,,12,,,71,127
80565,note_off,218,0,0,,2,,,62,127
80565,note_off,0,0,0,,5,,,65,127
80566,note_on,1,0,0,,5,,,65,127
80566,note_on,0,0,0,,2,,,62,127
80784,note_off,218,0,0,,12,,,71,127
80784,note_off,0,0,0,,8,,,68,127
80784,note_off,0,0,0,,0,,,72,127
80785,note_on,1,0,0,,2,,,74,127
81003,note_off,218,0,0,,2,,,74,127
81004,note_on,1,0,0,,8,,,68,127
81004,note_on,0,0,0,,0,,,72,127
81004,note_on,0,0,0,,12,,,71,127
81222,note_off,218,0,0,,2,,,62,127
81222,note_off,0,0,0,,5,,,65,127
81223,note_on,1,0,0,,2,,,62,127
81223,note_on,0,0,0,,5,,,65,127
81441,note_off,218,0,0,,12,,,71,127
81441,note_off,0,0,0,,0,,,72,127
81441,note_off,0,0,0,,8,,,68,127
81442,note_on,1,0,0,,0,,,72,127
81657,note_off,215,0,0,,5,,,65,127
81657,note_off,0,0,0,,2,,,62,127
81660,note_off,3,0,0,,0,,,72,127
81661,note_on,1,0,0,,11,,,70,127
81661,note_on,0,0,0,,7,,,67,127
81661,note_on,0,0,0,,0,,,72,127
81880,note_on,219,0,0,,4,,,64,127
81880,note_on,0,0,0,,1,,,61,127
82098,note_off,218,0,0,,0,,,72,127
82098,note_off,0,0,0,,7,,,67,127
82098,note_off,0,0,0,,11,,,70,127
82099,note_on,1,0,0,,1,,,73,127
82317,note_off,218,0,0,,1,,,73,127
82318,note_on,1,0,0,,0,,,72,127
82318,note_on,0,0,0,,11,,,70,127
82318,note_on,0,0,0,,7,,,67,127
82536,note_off,218,0,0,,1,,,61,127
82536,note_off,0,0,0,,4,,,64,127
82537,note_on,1,0,0,,4,,,64,127
82537,note_on,0,0,0,,1,,,61,127
82755,note_off,218,0,0,,7,,,67,127
82755,note_off,0,0,0,,11,,,70,127
82755,note_off,0,0,0,,0,,,72,127
82756,note_on,1,0,0,,1,,,73,127
82974,note_off,218,0,0,,1,,,73,127
82975,note_on,1,0,0,,11,,,70,127
82975,note_on,0,0,0,,7,,,67,127
82975,note_on,0,0,0,,0,,,72,127
83193,note_off,218,0,0,,1,,,61,127
83193,note_off,0,0,0,,4,,,64,127
83194,note_on,1,0,0,,1,,,61,127
83194,note_on,0,0,0,,4,,,64,127
83412,note_off,218,0,0,,0,,,72,127
83412,note_off,0,0,0,,7,,,67,127
83412,note_off,0,0,0,,11,,,70,127
83413,note_on,1,0,0,,7,,,79,127
83631,note_off,218,0,0,,4,,,64,127
83631,note_off,0,0,0,,1,,,61,127
83632,note_on,1,0,0,,0,,,60,127
83741,note_off,109,0,0,,7,,,79,127
83742,note_on,1,0,0,,5,,,77,127
83851,note_off,109,0,0,,5,,,77,127
83851,note_off,0,0,0,,0,,,60,127
83852,note_on,1,0,0,,4,,,76,127
83852,note_on,0,0,0,,2,,,62,127
83961,note_off,109,0,0,,4,,,76,127
83962,note_on,1,0,0,,1,,,73,127
84071,note_off,109,0,0,,1,,,73,127
84071,note_off,0,0,0,,2,,,62,127
84072,note_on,1,0,0,,0,,,72,127
84072,note_on,0,0,0,,4,,,64,127
84181,note_off,109,0,0,,0,,,72,127
84182,note_on,1,0,0,,11,,,70,127
84291,note_off,109,0,0,,11,,,70,127
84291,note_off,0,0,0,,4,,,64,127
84292,note_on,1,0,0,,11,,,70,127
84292,note_on,0,0,0,,5,,,65,127
84346,note_off,54,0,0,,11,,,70,127
84347,note_on,1,0,0,,8,,,68,127
84401,note_off,54,0,0,,8,,,68,127
84402,note_on,1,0,0,,11,,,70,127
84456,note_off,54,0,0,,11,,,70,127
84457,note_on,1,0,0,,8,,,68,127
84511,note_off,54,0,0,,8,,,68,127
84512,note_on,1,0,0,,11,,,70,127
84512,note_on,0,0,0,,5,,,53,127
84566,note_off,54,0,0,,11,,,70,127
84567,note_on,1,0,0,,8,,,68,127
84613,note_off,46,0,0,,5,,,65,127
84621,note_off,8,0,0,,8,,,68,127
84622,note_on,1,0,0,,7,,,67,127
84731,note_off,109,0,0,,7,,,67,127
84732,note_on,1,0,0,,5,,,65,127
84949,note_off,217,0,0,,5,,,65,127
84950,note_off,1,0,0,,5,,,53,127
84951,note_on,1,0,0,,5,,,65,127
84951,note_on,0,0,0,,8,,,68,127
85061,note_on,110,0,0,,5,,,77,127
85170,note_off,109,0,0,,5,,,77,127
85170,note_off,0,0,0,,8,,,68,127
85170,note_off,0,0,0,,5,,,65,127
85171,note_on,1,0,0,,3,,,75,127
85171,note_on,0,0,0,,5,,,65,127
85171,note_on,0,0,0,,8,,,68,127
85280,note_off,109,0,0,,3,,,75,127
85281,note_on,1,0,0,,1,,,73,127
85390,note_off,109,0,0,,1,,,73,127
85390,note_off,0,0,0,,8,,,68,127
85390,note_off,0,0,0,,5,,,65,127
85391,note_on,1,0,0,,0,,,72,127
85391,note_on,0,0,0,,5,,,65,127
85391,note_on,0,0,0,,8,,,68,127
85500,note_off,109,0,0,,0,,,72,127
85501,note_on,1,0,0,,12,,,71,127
85610,note_off,109,0,0,,12,,,71,127
85610,note_off,0,0,0,,8,,,68,127
85610,note_off,0,0,0,,5,,,65,127
85611,note_on,1,0,0,,0,,,72,127
85611,note_on,0,0,0,,4,,,64,127
85611,note_on,0,0,0,,7,,,67,127
85720,note_off,109,0,0,,0,,,72,127
85721,note_on,1,0,0,,1,,,73,127
85830,note_off,109,0,0,,1,,,73,127
85831,note_on,1,0,0,,0,,,72,127
85831,note_on,0,0,0,,0,,,60,127
85940,note_off,109,0,0,,0,,,72,127
85941,note_on,1,0,0,,11,,,70,127
86046,note_off,105,0,0,,4,,,64,127
86049,note_off,3,0,0,,11,,,70,127
86049,note_off,0,0,0,,0,,,60,127
86050,note_on,1,0,0,,8,,,68,127
86050,note_on,0,0,0,,4,,,64,127
86159,note_off,109,0,0,,8,,,68,127
86160,note_off,1,0,0,,7,,,67,127
86160,note_on,0,0,0,,7,,,67,127
86269,note_off,109,0,0,,7,,,67,127
86269,note_off,0,0,0,,4,,,64,127
86270,note_on,1,0,0,,5,,,65,127
86270,note_on,0,0,0,,8,,,68,127
86380,note_on,110,0,0,,5,,,77,127
86489,note_off,109,0,0,,5,,,77,127
86489,note_off,0,0,0,,8,,,68,127
86489,note_off,0,0,0,,5,,,65,127
86490,note_on,1,0,0,,3,,,75,127
86490,note_on,0,0,0,,8,,,68,127
86490,note_on,0,0,0,,5,,,65,127
86599,note_off,109,0,0,,3,,,75,127
86600,note_on,1,0,0,,1,,,73,127
86709,note_off,109,0,0,,1,,,73,127
86709,note_off,0,0,0,,5,,,65,127
86709,note_off,0,0,0,,8,,,68,127
86710,note_on,1,0,0,,0,,,72,127
86710,note_on,0,0,0,,5,,,65,127
86710,note_on,0,0,0,,8,,,68,127
86819,note_off,109,0,0,,0,,,72,127
86820,note_on,1,0,0,,12,,,71,127
86929,note_off,109,0,0,,12,,,71,127
86929,note_off,0,0,0,,8,,,68,127
86929,note_off,0,0,0,,5,,,65,127
86930,note_on,1,0,0,,0,,,72,127
86930,note_on,0,0,0,,4,,,64,127
86930,note_on,0,0,0,,7,,,67,127
87039,note_off,109,0,0,,0,,,72,127
87040,note_on,1,0,0,,1,,,73,127
87149,note_off,109,0,0,,1,,,73,127
87149,note_off,0,0,0,,4,,,64,127
87150,note_on,1,0,0,,0,,,72,127
87150,note_on,0,0,0,,0,,,60,127
87259,note_off,109,0,0,,0,,,72,127
87260,note_on,1,0,0,,11,,,70,127
87365,note_off,105,0,0,,7,,,67,127
87368,note_off,3,0,0,,11,,,70,127
87368,note_off,0,0,0,,0,,,60,127
87369,note_on,1,0,0,,8,,,68,127
87369,note_on,0,0,0,,4,,,64,127
87478,note_off,109,0,0,,8,,,68,127
87479,note_on,1,0,0,,7,,,67,127
87588,note_off,109,0,0,,7,,,67,127
87588,note_off,0,0,0,,4,,,64,127
87589,note_on,1,0,0,,8,,,68,127
87589,note_on,0,0,0,,5,,,53,127
87698,note_off,109,0,0,,8,,,68,127
87699,note_on,1,0,0,,7,,,67,127
87808,note_off,109,0,0,,7,,,67,127
87808,note_off,0,0,0,,5,,,53,127
87809,note_on,1,0,0,,8,,,68,127
87809,note_on,0,0,0,,7,,,55,127
87918,note_off,109,0,0,,8,,,68,127
87919,note_on,1,0,0,,11,,,70,127
88028,note_off,109,0,0,,11,,,70,127
88028,note_off,0,0,0,,7,,,55,127
88029,note_on,1,0,0,,0,,,72,127
88029,note_on,0,0,0,,8,,,56,127
88139,note_on,110,0,0,,5,,,65,127
88166,note_off,27,0,0,,0,,,72,127
88247,note_off,81,0,0,,5,,,65,127
88247,note_off,0,0,0,,8,,,56,127
88248,note_on,1,0,0,,7,,,67,127
88248,note_on,0,0,0,,11,,,58,127
88358,note_on,110,0,0,,11,,,70,127
88385,note_off,27,0,0,,7,,,67,127
88466,note_off,81,0,0,,11,,,70,127
88466,note_off,0,0,0,,11,,,58,127
88467,note_on,1,0,0,,8,,,68,127
88467,note_on,0,0,0,,0,,,60,127
88576,note_off,109,0,0,,8,,,68,127
88577,note_on,1,0,0,,7,,,67,127
88686,note_off,109,0,0,,7,,,67,127
88687,note_on,1,0,0,,5,,,65,127
88687,note_on,0,0,0,,0,,,48,127
88796,note_off,109,0,0,,5,,,65,127
88797,note_on,1,0,0,,4,,,64,127
88902,note_off,105,0,0,,0,,,60,127
88905,note_off,3,0,0,,4,,,64,127
88905,note_off,0,0,0,,0,,,48,127
88906,note_on,1,0,0,,5,,,53,127
88906,note_on,0,0,0,,8,,,56,127
89016,note_on,110,0,0,,5,,,65,127
89125,note_off,109,0,0,,5,,,65,127
89125,note_off,0,0,0,,8,,,56,127
89125,note_off,0,0,0,,5,,,53,127
89126,note_on,1,0,0,,3,,,63,127
89126,note_on,0,0,0,,5,,,53,127
89126,note_on,0,0,0,,8,,,56,127
89235,note_off,109,0,0,,3,,,63,127
89236,note_on,1,0,0,,1,,,61,127
89345,note_off,109,0,0,,1,,,61,127
89345,note_off,0,0,0,,8,,,56,127
89345,note_off,0,0,0,,5,,,53,127
89346,note_on,1,0,0,,0,,,60,127
89346,note_on,0,0,0,,5,,,53,127
89346,note_on,0,0,0,,8,,,56,127
89455,note_off,109,0,0,,0,,,60,127
89456,note_on,1,0,0,,12,,,59,127
89565,note_off,109,0,0,,12,,,59,127
89565,note_off,0,0,0,,8,,,56,127
89565,note_off,0,0,0,,5,,,53,127
89566,note_on,1,0,0,,0,,,60,127
89566,note_on,0,0,0,,7,,,55,127
89566,note_on,0,0,0,,4,,,52,127
89675,note_off,109,0,0,,0,,,60,127
89676,note_on,1,0,0,,1,,,61,127
89785,note_off,109,0,0,,1,,,61,127
89785,note_off,0,0,0,,4,,,52,127
89786,note_on,1,0,0,,0,,,60,127
89786,note_on,0,0,0,,0,,,48,127
89895,note_off,109,0,0,,0,,,60,127
89896,note_on,1,0,0,,11,,,58,127
90005,note_off,109,0,0,,11,,,58,127
90005,note_off,0,0,0,,0,,,48,127
90006,note_on,1,0,0,,8,,,56,127
90006,note_on,0,0,0,,4,,,52,127
90115,note_off,109,0,0,,8,,,56,127
90116,note_off,1,0,0,,7,,,55,127
90116,note_on,0,0,0,,7,,,55,127
90225,note_off,109,0,0,,7,,,55,127
90225,note_off,0,0,0,,4,,,52,127
90226,note_on,1,0,0,,8,,,56,127
90226,note_on,0,0,0,,5,,,53,127
90336,note_on,110,0,0,,5,,,65,127
90445,note_off,109,0,0,,5,,,65,127
90445,note_off,0,0,0,,5,,,53,127
90445,note_off,0,0,0,,8,,,56,127
90446,note_on,1,0,0,,3,,,63,127
90446,note_on,0,0,0,,8,,,56,127
90446,note_on,0,0,0,,5,,,53,127
90555,note_off,109,0,0,,3,,,63,127
90556,note_on,1,0,0,,1,,,61,127
90665,note_off,109,0,0,,1,,,61,127
90665,note_off,0,0,0,,5,,,53,127
90665,note_off,0,0,0,,8,,,56,127
90666,note_on,1,0,0,,0,,,60,127
90666,note_on,0,0,0,,8,,,56,127
90666,note_on,0,0,0,,5,,,53,127
90775,note_off,109,0,0,,0,,,60,127
90776,note_on,1,0,0,,12,,,59,127
90885,note_off,109,0,0,,12,,,59,127
90885,note_off,0,0,0,,5,,,53,127
90885,note_off,0,0,0,,8,,,56,127
90886,note_on,1,0,0,,0,,,60,127
90886,note_on,0,0,0,,4,,,52,127
90886,note_on,0,0,0,,7,,,55,127
90995,note_off,109,0,0,,0,,,60,127
90996,note_on,1,0,0,,1,,,61,127
91105,note_off,109,0,0,,1,,,61,127
91105,note_off,0,0,0,,4,,,52,127
91106,note_on,1,0,0,,0,,,60,127
91106,note_on,0,0,0,,0,,,48,127
91215,note_off,109,0,0,,0,,,60,127
91216,note_on,1,0,0,,11,,,58,127
91321,note_off,105,0,0,,7,,,55,127
91324,note_off,3,0,0,,11,,,58,127
91324,note_off,0,0,0,,0,,,48,127
91325,note_on,1,0,0,,8,,,56,127
91325,note_on,0,0,0,,4,,,52,127
91434,note_off,109,0,0,,8,,,56,127
91435,note_on,1,0,0,,7,,,55,127
91544,note_off,109,0,0,,7,,,55,127
91544,note_off,0,0,0,,4,,,52,127
91545,note_on,1,0,0,,8,,,56,127
91545,note_on,0,0,0,,5,,,41,127
91654,note_off,109,0,0,,8,,,56,127
91655,note_on,1,0,0,,7,,,55,127
91764,note_off,109,0,0,,7,,,55,127
91764,note_off,0,0,0,,5,,,41,127
91765,note_on,1,0,0,,8,,,56,127
91765,note_on,0,0,0,,7,,,43,127
91874,note_off,109,0,0,,8,,,56,127
91875,note_on,1,0,0,,11,,,58,127
91984,note_off,109,0,0,,11,,,58,127
91984,note_off,0,0,0,,7,,,43,127
91985,note_on,1,0,0,,0,,,60,127
91985,note_on,0,0,0,,8,,,44,127
92095,note_on,110,0,0,,5,,,53,127
92122,note_off,27,0,0,,0,,,60,127
92203,note_off,81,0,0,,5,,,53,127
92203,note_off,0,0,0,,8,,,44,127
92204,note_on,1,0,0,,7,,,55,127
92204,note_on,0,0,0,,11,,,46,127
92314,note_on,110,0,0,,11,,,58,127
92341,note_off,27,0,0,,7,,,55,127
92422,note_off,81,0,0,,11,,,58,127
92422,note_off,0,0,0,,11,,,46,127
92423,note_on,1,0,0,,8,,,56,127
92423,note_on,0,0,0,,0,,,48,127
92532,note_off,109,0,0,,8,,,56,127
92533,note_on,1,0,0,,7,,,55,127
92642,note_off,109,0,0,,7,,,55,127
92642,note_off,0,0,0,,0,,,48,127
92643,note_on,1,0,0,,5,,,53,127
92643,note_on,0,0,0,,0,,,36,127
92752,note_off,109,0,0,,5,,,53,127
92753,note_on,1,0,0,,4,,,52,127
92860,note_off,107,0,0,,0,,,36,127
92861,note_off,1,0,0,,4,,,52,127
92862,note_on,1,0,0,,7,,,67,127
92862,note_on,0,0,0,,4,,,64,127
93081,note_on,219,0,0,,1,,,49,127
93081,note_on,0,0,0,,1,,,61,127
93299,note_off,218,0,0,,4,,,64,127
93299,note_off,0,0,0,,7,,,67,127
93300,note_on,1,0,0,,11,,,70,127
93518,note_off,218,0,0,,11,,,70,127
93519,note_on,1,0,0,,7,,,67,127
93519,note_on,0,0,0,,4,,,64,127
93519,note_on,0,0,0,,8,,,68,127
93737,note_off,218,0,0,,1,,,61,127
93737,note_off,0,0,0,,1,,,49,127
93738,note_on,1,0,0,,1,,,49,127
93738,note_on,0,0,0,,1,,,61,127
93956,note_off,218,0,0,,8,,,68,127
93956,note_off,0,0,0,,4,,,64,127
93956,note_off,0,0,0,,7,,,67,127
93957,note_on,1,0,0,,11,,,70,127
94175,note_off,218,0,0,,11,,,70,127
94176,note_on,1,0,0,,8,,,68,127
94176,note_on,0,0,0,,4,,,64,127
94176,note_on,0,0,0,,7,,,67,127
94394,note_off,218,0,0,,1,,,61,127
94394,note_off,0,0,0,,1,,,49,127
94395,note_on,1,0,0,,11,,,46,127
94395,note_on,0,0,0,,11,,,58,127
94613,note_off,218,0,0,,7,,,67,127
94613,note_off,0,0,0,,4,,,64,127
94613,note_off,0,0,0,,8,,,68,127
94614,note_on,1,0,0,,1,,,73,127
94614,note_on,0,0,0,,4,,,64,127
94832,note_off,218,0,0,,4,,,64,127
94832,note_off,0,0,0,,1,,,73,127
94832,note_off,0,0,0,,11,,,58,127
94832,note_off,0,0,0,,11,,,46,127
94833,note_on,1,0,0,,0,,,72,127
94833,note_on,0,0,0,,5,,,65,127
94833,note_on,0,0,0,,8,,,44,127
94833,note_on,0,0,0,,8,,,56,127
94942,note_off,109,0,0,,0,,,72,127
94943,note_on,1,0,0,,11,,,70,127
95052,note_off,109,0,0,,11,,,70,127
95053,note_on,1,0,0,,8,,,68,127
95162,note_off,109,0,0,,8,,,68,127
95163,note_off,1,0,0,,5,,,65,127
95163,note_on,0,0,0,,7,,,67,127
95272,note_off,109,0,0,,7,,,67,127
95272,note_off,0,0,0,,8,,,56,127
95272,note_off,0,0,0,,8,,,44,127
95273,note_on,1,0,0,,5,,,65,127
95273,note_on,0,0,0,,1,,,61,127
95382,note_off,109,0,0,,5,,,65,127
95383,note_on,1,0,0,,8,,,68,127
95492,note_off,109,0,0,,8,,,68,127
95492,note_off,0,0,0,,1,,,61,127
95493,note_on,1,0,0,,7,,,67,127
95493,note_on,0,0,0,,11,,,58,127
95603,note_on,110,0,0,,11,,,70,127
95630,note_off,27,0,0,,7,,,67,127
95711,note_off,81,0,0,,11,,,70,127
95711,note_off,0,0,0,,11,,,58,127
95712,note_on,1,0,0,,8,,,68,127
95712,note_on,0,0,0,,0,,,60,127
95821,note_off,109,0,0,,8,,,68,127
95822,note_on,1,0,0,,7,,,67,127
95931,note_off,109,0,0,,7,,,67,127
95931,note_off,0,0,0,,0,,,60,127
95932,note_on,1,0,0,,5,,,65,127
95932,note_on,0,0,0,,0,,,48,127
96041,note_off,109,0,0,,5,,,65,127
96042,note_on,1,0,0,,4,,,64,127
96149,note_off,107,0,0,,0,,,48,127
96150,note_off,1,0,0,,4,,,64,127
96151,note_on,1,0,0,,4,,,76,127
96151,note_on,0,0,0,,7,,,79,127
96370,note_on,219,0,0,,1,,,61,127
96370,note_on,0,0,0,,1,,,73,127
96588,note_off,218,0,0,,7,,,79,127
96588,note_off,0,0,0,,4,,,76,127
96589,note_on,1,0,0,,11,,,82,127
96807,note_off,218,0,0,,11,,,82,127
96808,note_on,1,0,0,,7,,,79,127
96808,note_on,0,0,0,,4,,,76,127
96808,note_on,0,0,0,,8,,,80,127
97026,note_off,218,0,0,,1,,,73,127
97026,note_off,0,0,0,,1,,,61,127
97027,note_on,1,0,0,,1,,,61,127
97027,note_on,0,0,0,,1,,,73,127
97245,note_off,218,0,0,,8,,,80,127
97245,note_off,0,0,0,,4,,,76,127
97245,note_off,0,0,0,,7,,,79,127
97246,note_on,1,0,0,,11,,,82,127
97464,note_off,218,0,0,,11,,,82,127
97465,note_on,1,0,0,,7,,,79,127
97465,note_on,0,0,0,,4,,,76,127
97465,note_on,0,0,0,,8,,,80,127
97683,note_off,218,0,0,,1,,,73,127
97683,note_off,0,0,0,,1,,,61,127
97684,note_on,1,0,0,,11,,,58,127
97684,note_on,0,0,0,,11,,,70,127
97902,note_off,218,0,0,,8,,,80,127
97902,note_off,0,0,0,,4,,,76,127
97902,note_off,0,0,0,,7,,,79,127
97903,note_on,1,0,0,,1,,,85,127
97903,note_on,0,0,0,,4,,,76,127
98121,note_off,218,0,0,,4,,,76,127
98121,note_off,0,0,0,,1,,,85,127
98121,note_off,0,0,0,,11,,,70,127
98121,note_off,0,0,0,,11,,,58,127
98122,note_on,1,0,0,,0,,,84,127
98122,note_on,0,0,0,,5,,,77,127
98122,note_on,0,0,0,,8,,,56,127
98122,note_on,0,0,0,,8,,,68,127
98231,note_off,109,0,0,,0,,,84,127
98232,note_on,1,0,0,,11,,,82,127
98341,note_off,109,0,0,,11,,,82,127
98342,note_on,1,0,0,,8,,,80,127
98451,note_off,109,0,0,,8,,,80,127
98452,note_off,1,0,0,,5,,,77,127
98452,note_on,0,0,0,,7,,,79,127
98561,note_off,109,0,0,,7,,,79,127
98561,note_off,0,0,0,,8,,,68,127
98561,note_off,0,0,0,,8,,,56,127
98562,note_on,1,0,0,,5,,,77,127
98562,note_on,0,0,0,,1,,,73,127
98671,note_off,109,0,0,,5,,,77,127
98672,note_on,1,0,0,,8,,,80,127
98781,note_off,109,0,0,,8,,,80,127
98781,note_off,0,0,0,,1,,,73,127
98782,note_on,1,0,0,,7,,,79,127
98782,note_on,0,0,0,,11,,,70,127
98892,note_on,110,0,0,,11,,,82,127
98919,note_off,27,0,0,,7,,,79,127
99000,note_off,81,0,0,,11,,,82,127
99000,note_off,0,0,0,,11,,,70,127
99001,note_on,1,0,0,,8,,,80,127
99001,note_on,0,0,0,,0,,,72,127
99110,note_off,109,0,0,,8,,,80,127
99111,note_on,1,0,0,,7,,,79,127
99220,note_off,109,0,0,,7,,,79,127
99220,note_off,0,0,0,,0,,,72,127
99221,note_on,1,0,0,,5,,,77,127
99221,note_on,0,0,0,,0,,,60,127
99330,note_off,109,0,0,,5,,,77,127
99331,note_on,1,0,0,,4,,,76,127
99440,note_off,109,0,0,,4,,,76,127
99440,note_off,0,0,0,,0,,,60,127
99441,note_on,1,0,0,,5,,,77,127
99441,note_on,0,0,0,,5,,,53,127
99550,note_off,109,0,0,,5,,,77,127
99551,note_on,1,0,0,,3,,,75,127
99660,note_off,109,0,0,,3,,,75,127
99660,note_off,0,0,0,,5,,,53,127
99661,note_on,1,0,0,,1,,,73,127
99661,note_on,0,0,0,,7,,,55,127
99770,note_off,109,0,0,,1,,,73,127
99771,note_on,1,0,0,,12,,,71,127
99880,note_off,109,0,0,,12,,,71,127
99880,note_off,0,0,0,,7,,,55,127
99881,note_on,1,0,0,,0,,,72,127
99881,note_on,0,0,0,,8,,,56,127
99990,note_off,109,0,0,,0,,,72,127
99991,note_on,1,0,0,,8,,,68,127
100100,note_off,109,0,0,,8,,,68,127
100100,note_off,0,0,0,,8,,,56,127
100101,note_on,1,0,0,,11,,,70,127
100101,note_on,0,0,0,,11,,,58,127
100210,note_off,109,0,0,,11,,,70,127
100211,note_on,1,0,0,,7,,,67,127
100320,note_off,109,0,0,,7,,,67,127
100320,note_off,0,0,0,,11,,,58,127
100321,note_on,1,0,0,,8,,,68,127
100321,note_on,0,0,0,,0,,,60,127
100430,note_off,109,0,0,,8,,,68,127
100431,note_on,1,0,0,,5,,,65,127
100540,note_off,109,0,0,,5,,,65,127
100541,note_on,1,0,0,,7,,,67,127
100541,note_on,0,0,0,,0,,,48,127
100650,note_off,109,0,0,,7,,,67,127
100651,note_off,1,0,0,,0,,,60,127
100651,note_on,0,0,0,,4,,,64,127
100760,note_off,109,0,0,,4,,,64,127
100760,note_off,0,0,0,,0,,,48,127
100761,note_on,1,0,0,,5,,,65,127
100761,note_on,0,0,0,,5,,,41,127
100870,note_off,109,0,0,,5,,,65,127
100871,note_on,1,0,0,,3,,,63,127
100980,note_off,109,0,0,,3,,,63,127
100980,note_off,0,0,0,,5,,,41,127
100981,note_on,1,0,0,,1,,,61,127
100981,note_on,0,0,0,,7,,,43,127
101090,note_off,109,0,0,,1,,,61,127
101091,note_on,1,0,0,,12,,,59,127
101200,note_off,109,0,0,,12,,,59,127
101200,note_off,0,0,0,,7,,,43,127
101201,note_on,1,0,0,,0,,,60,127
101201,note_on,0,0,0,,8,,,44,127
101310,note_off,109,0,0,,0,,,60,127
101311,note_on,1,0,0,,8,,,56,127
101420,note_off,109,0,0,,8,,,56,127
101420,note_off,0,0,0,,8,,,44,127
101421,note_on,1,0,0,,11,,,58,127
101421,note_on,0,0,0,,11,,,46,127
101530,note_off,109,0,0,,11,,,58,127
101531,note_on,1,0,0,,7,,,55,127
101640,note_off,109,0,0,,7,,,55,127
101640,note_off,0,0,0,,11,,,46,127
101641,note_on,1,0,0,,8,,,56,127
101641,note_on,0,0,0,,0,,,48,127
101750,note_off,109,0,0,,8,,,56,127
101751,note_on,1,0,0,,5,,,53,127
101860,note_off,109,0,0,,5,,,53,127
101861,note_on,1,0,0,,7,,,55,127
101861,note_on,0,0,0,,0,,,36,127
101970,note_off,109,0,0,,7,,,55,127
101971,note_on,1,0,0,,4,,,52,127
102076,note_off,105,0,0,,0,,,48,127
102079,note_off,3,0,0,,4,,,52,127
102079,note_off,0,0,0,,0,,,36,127
102080,note_on,1,0,0,,4,,,52,127
102080,note_on,0,0,0,,5,,,41,127
102409,note_off,329,0,0,,4,,,52,127
102409,note_on,0,0,0,,5,,,53,127
103835,note_off,1426,0,0,,5,,,53,127
103835,note_off,0,0,0,,5,,,41,127
104448,end_of_track,613,1,0,,,,,,
