tick,type,time,meta,track,program,channel,pitch,tempo,note,velocity
0,copyright,0,1,0,,,,,,
0,program_change,0,0,0,6,0,,,,
0,pitchwheel,0,0,0,,0,0,,,
0,program_change,0,0,0,6,1,,,,
0,pitchwheel,0,0,0,,1,-590,,,
0,program_change,0,0,0,6,2,,,,
0,pitchwheel,0,0,0,,2,-272,,,
0,program_change,0,0,0,6,3,,,,
0,pitchwheel,0,0,0,,3,-353,,,
0,program_change,0,0,0,6,4,,,,
0,pitchwheel,0,0,0,,4,-560,,,
0,program_change,0,0,0,6,5,,,,
0,pitchwheel,0,0,0,,5,-80,,,
0,program_change,0,0,0,6,6,,,,
0,pitchwheel,0,0,0,,6,-625,,,
0,program_change,0,0,0,6,7,,,,
0,pitchwheel,0,0,0,,7,-130,,,
0,program_change,0,0,0,6,8,,,,
0,pitchwheel,0,0,0,,8,-512,,,
0,program_change,0,0,0,6,10,,,,
0,pitchwheel,0,0,0,,10,-464,,,
0,program_change,0,0,0,6,11,,,,
0,pitchwheel,0,0,0,,11,-208,,,
0,program_change,0,0,0,6,12,,,,
0,pitchwheel,0,0,0,,12,-553,,,
0,set_tempo,0,1,0,,,,500000,,
115,note_on,115,0,0,,5,,,41,127
344,note_off,229,0,0,,5,,,41,127
345,note_on,1,0,0,,5,,,53,127
575,note_on,230,0,0,,0,,,72,127
575,note_on,0,0,0,,8,,,68,127
689,note_off,114,0,0,,5,,,53,127
690,note_on,1,0,0,,3,,,51,127
804,note_off,114,0,0,,3,,,51,127
805,note_on,1,0,0,,1,,,49,127
919,note_off,114,0,0,,1,,,49,127
920,note_on,1,0,0,,0,,,48,127
1030,note_off,110,0,0,,8,,,68,127
1030,note_off,0,0,0,,0,,,72,127
1034,note_off,4,0,0,,0,,,48,127
1035,note_on,1,0,0,,11,,,46,127
1264,note_off,229,0,0,,11,,,46,127
1265,note_on,1,0,0,,11,,,58,127
1495,note_on,230,0,0,,5,,,65,127
1495,note_on,0,0,0,,1,,,73,127
1609,note_off,114,0,0,,11,,,58,127
1610,note_on,1,0,0,,8,,,56,127
1724,note_off,114,0,0,,8,,,56,127
1725,note_on,1,0,0,,7,,,55,127
1839,note_off,114,0,0,,7,,,55,127
1840,note_on,1,0,0,,5,,,53,127
1950,note_off,110,0,0,,1,,,73,127
1950,note_off,0,0,0,,5,,,65,127
1954,note_off,4,0,0,,5,,,53,127
1955,note_on,1,0,0,,0,,,48,127
2184,note_off,229,0,0,,0,,,48,127
2185,note_on,1,0,0,,0,,,60,127
2415,note_on,230,0,0,,7,,,67,127
2415,note_on,0,0,0,,4,,,76,127
2529,note_off,114,0,0,,0,,,60,127
2530,note_on,1,0,0,,11,,,58,127
2644,note_off,114,0,0,,11,,,58,127
2645,note_on,1,0,0,,8,,,56,127
2759,note_off,114,0,0,,8,,,56,127
2760,note_on,1,0,0,,7,,,55,127
2870,note_off,110,0,0,,4,,,76,127
2870,note_off,0,0,0,,7,,,67,127
2874,note_off,4,0,0,,7,,,55,127
2875,note_on,1,0,0,,5,,,53,127
3104,note_off,229,0,0,,5,,,53,127
3105,note_on,1,0,0,,5,,,65,127
3335,note_on,230,0,0,,8,,,80,127
3335,note_on,0,0,0,,0,,,72,127
3449,note_off,114,0,0,,5,,,65,127
3450,note_on,1,0,0,,3,,,63,127
3564,note_off,114,0,0,,3,,,63,127
3565,note_on,1,0,0,,1,,,61,127
3679,note_off,114,0,0,,1,,,61,127
3680,note_on,1,0,0,,0,,,60,127
3790,note_off,110,0,0,,0,,,72,127
3790,note_off,0,0,0,,8,,,80,127
3794,note_off,4,0,0,,0,,,60,127
3795,note_on,1,0,0,,11,,,58,127
4024,note_off,229,0,0,,11,,,58,127
4025,note_on,1,0,0,,11,,,70,127
4255,note_on,230,0,0,,11,,,82,127
4255,note_on,0,0,0,,1,,,73,127
4369,note_off,114,0,0,,11,,,70,127
4370,note_on,1,0,0,,8,,,68,127
4484,note_off,114,0,0,,8,,,68,127
4485,note_on,1,0,0,,7,,,67,127
4599,note_off,114,0,0,,7,,,67,127
4600,note_on,1,0,0,,5,,,65,127
4710,note_off,110,0,0,,1,,,73,127
4710,note_off,0,0,0,,11,,,82,127
4714,note_off,4,0,0,,5,,,65,127
4715,note_on,1,0,0,,0,,,60,127
4944,note_off,229,0,0,,0,,,60,127
4945,note_on,1,0,0,,0,,,72,127
5175,note_on,230,0,0,,4,,,76,127
5175,note_on,0,0,0,,0,,,84,127
5289,note_off,114,0,0,,0,,,72,127
5290,note_on,1,0,0,,11,,,70,127
5404,note_off,114,0,0,,11,,,70,127
5405,note_on,1,0,0,,8,,,68,127
5519,note_off,114,0,0,,8,,,68,127
5520,note_on,1,0,0,,7,,,67,127
5630,note_off,110,0,0,,4,,,76,127
5634,note_off,4,0,0,,7,,,67,127
5635,note_on,1,0,0,,5,,,65,127
5749,note_off,114,0,0,,0,,,84,127
5750,note_on,1,0,0,,11,,,82,127
5864,note_off,114,0,0,,11,,,82,127
5865,note_on,1,0,0,,8,,,80,127
5979,note_off,114,0,0,,8,,,80,127
5980,note_on,1,0,0,,7,,,79,127
6094,note_off,114,0,0,,7,,,79,127
6095,note_on,1,0,0,,5,,,77,127
6209,note_off,114,0,0,,5,,,77,127
6210,note_on,1,0,0,,3,,,75,127
6324,note_off,114,0,0,,3,,,75,127
6324,note_off,0,0,0,,5,,,65,127
6325,note_on,1,0,0,,8,,,56,127
6325,note_on,0,0,0,,1,,,73,127
6439,note_off,114,0,0,,1,,,73,127
6440,note_on,1,0,0,,0,,,72,127
6554,note_off,114,0,0,,0,,,72,127
6554,note_off,0,0,0,,8,,,56,127
6555,note_on,1,0,0,,11,,,58,127
6555,note_on,0,0,0,,1,,,73,127
6670,note_on,115,0,0,,11,,,82,127
6723,note_off,53,0,0,,1,,,73,127
6784,note_off,61,0,0,,11,,,82,127
6784,note_off,0,0,0,,11,,,58,127
6785,note_on,1,0,0,,1,,,61,127
6785,note_on,0,0,0,,8,,,80,127
6899,note_off,114,0,0,,8,,,80,127
6900,note_on,1,0,0,,7,,,79,127
7014,note_off,114,0,0,,7,,,79,127
7014,note_off,0,0,0,,1,,,61,127
7015,note_on,1,0,0,,0,,,60,127
7015,note_on,0,0,0,,5,,,77,127
7244,note_off,229,0,0,,5,,,77,127
7245,note_on,1,0,0,,0,,,48,127
7245,note_on,0,0,0,,5,,,77,127
7301,note_off,56,0,0,,5,,,77,127
7302,note_on,1,0,0,,4,,,76,127
7358,note_off,56,0,0,,4,,,76,127
7359,note_on,1,0,0,,5,,,77,127
7415,note_off,56,0,0,,5,,,77,127
7416,note_on,1,0,0,,4,,,76,127
7469,note_off,53,0,0,,0,,,60,127
7473,note_off,4,0,0,,0,,,48,127
7474,note_on,1,0,0,,5,,,53,127
7530,note_off,56,0,0,,4,,,76,127
7703,note_off,173,0,0,,5,,,53,127
7704,note_on,1,0,0,,5,,,65,127
7934,note_on,230,0,0,,8,,,68,127
7934,note_on,0,0,0,,0,,,72,127
8048,note_off,114,0,0,,5,,,65,127
8049,note_on,1,0,0,,3,,,63,127
8163,note_off,114,0,0,,3,,,63,127
8164,note_on,1,0,0,,1,,,61,127
8278,note_off,114,0,0,,1,,,61,127
8279,note_on,1,0,0,,0,,,60,127
8389,note_off,110,0,0,,0,,,72,127
8389,note_off,0,0,0,,8,,,68,127
8393,note_off,4,0,0,,0,,,60,127
8394,note_on,1,0,0,,11,,,46,127
8623,note_off,229,0,0,,11,,,46,127
8624,note_on,1,0,0,,11,,,58,127
8854,note_on,230,0,0,,5,,,65,127
8854,note_on,0,0,0,,1,,,73,127
8968,note_off,114,0,0,,11,,,58,127
8969,note_on,1,0,0,,8,,,56,127
9083,note_off,114,0,0,,8,,,56,127
9084,note_on,1,0,0,,7,,,55,127
9198,note_off,114,0,0,,7,,,55,127
9199,note_on,1,0,0,,5,,,53,127
9309,note_off,110,0,0,,1,,,73,127
9309,note_off,0,0,0,,5,,,65,127
9313,note_off,4,0,0,,5,,,53,127
9314,note_on,1,0,0,,3,,,51,127
9543,note_off,229,0,0,,3,,,51,127
9544,note_on,1,0,0,,3,,,63,127
9774,note_on,230,0,0,,7,,,67,127
9774,note_on,0,0,0,,3,,,75,127
9888,note_off,114,0,0,,3,,,63,127
9889,note_on,1,0,0,,1,,,61,127
10003,note_off,114,0,0,,1,,,61,127
10004,note_on,1,0,0,,0,,,60,127
10118,note_off,114,0,0,,0,,,60,127
10119,note_on,1,0,0,,11,,,58,127
10229,note_off,110,0,0,,3,,,75,127
10229,note_off,0,0,0,,7,,,67,127
10233,note_off,4,0,0,,11,,,58,127
10234,note_on,1,0,0,,8,,,56,127
10463,note_off,229,0,0,,8,,,56,127
10464,note_on,1,0,0,,8,,,68,127
10694,note_on,230,0,0,,0,,,72,127
10694,note_on,0,0,0,,8,,,80,127
10808,note_off,114,0,0,,8,,,68,127
10809,note_on,1,0,0,,7,,,67,127
10923,note_off,114,0,0,,7,,,67,127
10924,note_on,1,0,0,,5,,,65,127
11038,note_off,114,0,0,,5,,,65,127
11039,note_on,1,0,0,,3,,,63,127
11149,note_off,110,0,0,,0,,,72,127
11153,note_off,4,0,0,,3,,,63,127
11154,note_on,1,0,0,,1,,,61,127
11268,note_off,114,0,0,,8,,,80,127
11269,note_on,1,0,0,,7,,,79,127
11383,note_off,114,0,0,,7,,,79,127
11384,note_on,1,0,0,,5,,,77,127
11498,note_off,114,0,0,,5,,,77,127
11499,note_on,1,0,0,,3,,,75,127
11613,note_off,114,0,0,,3,,,75,127
11614,note_on,1,0,0,,1,,,49,127
11614,note_on,0,0,0,,1,,,73,127
11728,note_off,114,0,0,,1,,,73,127
11729,note_on,1,0,0,,0,,,72,127
11843,note_off,114,0,0,,0,,,72,127
11844,note_on,1,0,0,,11,,,70,127
11958,note_off,114,0,0,,11,,,70,127
11959,note_on,1,0,0,,8,,,68,127
12073,note_off,114,0,0,,8,,,68,127
12073,note_off,0,0,0,,1,,,49,127
12073,note_off,0,0,0,,1,,,61,127
12074,note_on,1,0,0,,3,,,51,127
12074,note_on,0,0,0,,7,,,67,127
12303,note_off,229,0,0,,3,,,51,127
12304,note_on,1,0,0,,3,,,63,127
12533,note_off,229,0,0,,7,,,67,127
12534,note_on,1,0,0,,3,,,75,127
12534,note_on,0,0,0,,7,,,67,127
12648,note_off,114,0,0,,3,,,63,127
12649,note_on,1,0,0,,1,,,61,127
12763,note_off,114,0,0,,1,,,61,127
12764,note_on,1,0,0,,0,,,60,127
12878,note_off,114,0,0,,0,,,60,127
12879,note_on,1,0,0,,11,,,58,127
12989,note_off,110,0,0,,7,,,67,127
12989,note_off,0,0,0,,3,,,75,127
12993,note_off,4,0,0,,11,,,58,127
12994,note_on,1,0,0,,8,,,56,127
13223,note_off,229,0,0,,8,,,56,127
13224,note_on,1,0,0,,8,,,68,127
13454,note_on,230,0,0,,0,,,72,127
13454,note_on,0,0,0,,3,,,75,127
13568,note_off,114,0,0,,8,,,68,127
13569,note_on,1,0,0,,7,,,67,127
13683,note_off,114,0,0,,7,,,67,127
13684,note_on,1,0,0,,5,,,65,127
13798,note_off,114,0,0,,5,,,65,127
13799,note_on,1,0,0,,3,,,63,127
13909,note_off,110,0,0,,3,,,75,127
13909,note_off,0,0,0,,0,,,72,127
13913,note_off,4,0,0,,3,,,63,127
13914,note_on,1,0,0,,2,,,62,127
14143,note_off,229,0,0,,2,,,62,127
14144,note_on,1,0,0,,2,,,74,127
14372,note_off,228,0,0,,2,,,74,127
14374,note_on,2,0,0,,2,,,74,127
14374,note_on,0,0,0,,5,,,77,127
14489,note_on,115,0,0,,0,,,72,127
14603,note_off,114,0,0,,0,,,72,127
14604,note_on,1,0,0,,12,,,71,127
14718,note_off,114,0,0,,12,,,71,127
14719,note_on,1,0,0,,10,,,69,127
14829,note_off,110,0,0,,5,,,77,127
14829,note_off,0,0,0,,2,,,74,127
14833,note_off,4,0,0,,10,,,69,127
14834,note_on,1,0,0,,7,,,55,127
15063,note_off,229,0,0,,7,,,55,127
15064,note_on,1,0,0,,7,,,67,127
15294,note_on,230,0,0,,2,,,74,127
15294,note_on,0,0,0,,12,,,83,127
15408,note_off,114,0,0,,7,,,67,127
15409,note_on,1,0,0,,5,,,65,127
15523,note_off,114,0,0,,5,,,65,127
15524,note_on,1,0,0,,3,,,63,127
15638,note_off,114,0,0,,3,,,63,127
15639,note_on,1,0,0,,2,,,62,127
15749,note_off,110,0,0,,12,,,83,127
15749,note_off,0,0,0,,2,,,74,127
15753,note_off,4,0,0,,2,,,62,127
15754,note_on,1,0,0,,0,,,60,127
15983,note_off,229,0,0,,0,,,60,127
15984,note_on,1,0,0,,0,,,72,127
16214,note_on,230,0,0,,0,,,84,127
16214,note_on,0,0,0,,3,,,75,127
16328,note_off,114,0,0,,0,,,72,127
16329,note_on,1,0,0,,11,,,70,127
16443,note_off,114,0,0,,11,,,70,127
16444,note_on,1,0,0,,8,,,68,127
16558,note_off,114,0,0,,8,,,68,127
16559,note_on,1,0,0,,7,,,67,127
16669,note_off,110,0,0,,3,,,75,127
16673,note_off,4,0,0,,7,,,67,127
16674,note_on,1,0,0,,5,,,65,127
16788,note_off,114,0,0,,0,,,84,127
16789,note_on,1,0,0,,11,,,82,127
16903,note_off,114,0,0,,11,,,82,127
16904,note_on,1,0,0,,8,,,80,127
17018,note_off,114,0,0,,8,,,80,127
17019,note_on,1,0,0,,7,,,79,127
17133,note_off,114,0,0,,7,,,79,127
17134,note_on,1,0,0,,5,,,53,127
17134,note_on,0,0,0,,5,,,77,127
17248,note_off,114,0,0,,5,,,77,127
17249,note_on,1,0,0,,3,,,75,127
17363,note_off,114,0,0,,3,,,75,127
17364,note_on,1,0,0,,2,,,74,127
17478,note_off,114,0,0,,2,,,74,127
17479,note_on,1,0,0,,0,,,72,127
17593,note_off,114,0,0,,0,,,72,127
17593,note_off,0,0,0,,5,,,53,127
17593,note_off,0,0,0,,5,,,65,127
17594,note_on,1,0,0,,7,,,55,127
17594,note_on,0,0,0,,12,,,71,127
17823,note_off,229,0,0,,7,,,55,127
17824,note_on,1,0,0,,5,,,65,127
18053,note_off,229,0,0,,12,,,71,127
18054,note_on,1,0,0,,5,,,77,127
18054,note_on,0,0,0,,8,,,80,127
18168,note_off,114,0,0,,5,,,65,127
18169,note_on,1,0,0,,3,,,63,127
18283,note_off,114,0,0,,3,,,63,127
18284,note_on,1,0,0,,2,,,62,127
18398,note_off,114,0,0,,2,,,62,127
18399,note_on,1,0,0,,0,,,60,127
18513,note_off,114,0,0,,0,,,60,127
18513,note_off,0,0,0,,8,,,80,127
18513,note_off,0,0,0,,5,,,77,127
18514,note_on,1,0,0,,7,,,55,127
18514,note_on,0,0,0,,2,,,74,127
18514,note_on,0,0,0,,12,,,83,127
18743,note_off,229,0,0,,7,,,55,127
18744,note_on,1,0,0,,5,,,65,127
18973,note_off,229,0,0,,12,,,83,127
18973,note_off,0,0,0,,2,,,74,127
18974,note_on,1,0,0,,8,,,80,127
18974,note_on,0,0,0,,5,,,77,127
19088,note_off,114,0,0,,5,,,65,127
19089,note_on,1,0,0,,3,,,63,127
19203,note_off,114,0,0,,3,,,63,127
19204,note_on,1,0,0,,2,,,62,127
19318,note_off,114,0,0,,2,,,62,127
19319,note_on,1,0,0,,0,,,60,127
19433,note_off,114,0,0,,0,,,60,127
19433,note_off,0,0,0,,5,,,77,127
19433,note_off,0,0,0,,8,,,80,127
19434,note_on,1,0,0,,7,,,55,127
19434,note_on,0,0,0,,2,,,74,127
19434,note_on,0,0,0,,12,,,83,127
19663,note_off,229,0,0,,7,,,55,127
19664,note_on,1,0,0,,5,,,65,127
19893,note_off,229,0,0,,12,,,83,127
19893,note_off,0,0,0,,2,,,74,127
19894,note_on,1,0,0,,8,,,80,127
19894,note_on,0,0,0,,5,,,77,127
20008,note_off,114,0,0,,5,,,65,127
20009,note_on,1,0,0,,3,,,63,127
20123,note_off,114,0,0,,3,,,63,127
20124,note_on,1,0,0,,2,,,62,127
20238,note_off,114,0,0,,2,,,62,127
20239,note_on,1,0,0,,0,,,60,127
20353,note_off,114,0,0,,0,,,60,127
20353,note_off,0,0,0,,5,,,77,127
20353,note_off,0,0,0,,8,,,80,127
20354,note_on,1,0,0,,7,,,55,127
20354,note_on,0,0,0,,2,,,74,127
20354,note_on,0,0,0,,12,,,83,127
20583,note_off,229,0,0,,7,,,55,127
20584,note_on,1,0,0,,7,,,67,127
20813,note_off,229,0,0,,12,,,83,127
20813,note_off,0,0,0,,2,,,74,127
20814,note_on,1,0,0,,2,,,86,127
20814,note_on,0,0,0,,2,,,74,127
20928,note_off,114,0,0,,7,,,67,127
20929,note_on,1,0,0,,5,,,65,127
21043,note_off,114,0,0,,5,,,65,127
21044,note_on,1,0,0,,3,,,63,127
21158,note_off,114,0,0,,3,,,63,127
21159,note_on,1,0,0,,2,,,62,127
21273,note_off,114,0,0,,2,,,62,127
21273,note_off,0,0,0,,2,,,74,127
21273,note_off,0,0,0,,2,,,86,127
21274,note_on,1,0,0,,0,,,60,127
21274,note_on,0,0,0,,3,,,75,127
21274,note_on,0,0,0,,7,,,79,127
21503,note_off,229,0,0,,0,,,60,127
21504,note_on,1,0,0,,0,,,72,127
21733,note_off,229,0,0,,7,,,79,127
21733,note_off,0,0,0,,3,,,75,127
21734,note_on,1,0,0,,3,,,75,127
21734,note_on,0,0,0,,0,,,84,127
21848,note_off,114,0,0,,0,,,72,127
21849,note_on,1,0,0,,11,,,70,127
21963,note_off,114,0,0,,11,,,70,127
21964,note_on,1,0,0,,8,,,68,127
22078,note_off,114,0,0,,8,,,68,127
22079,note_on,1,0,0,,7,,,67,127
22193,note_off,114,0,0,,7,,,67,127
22194,note_on,1,0,0,,5,,,65,127
22308,note_off,114,0,0,,0,,,84,127
22308,note_off,0,0,0,,3,,,75,127
22309,note_on,1,0,0,,8,,,80,127
22423,note_off,114,0,0,,8,,,80,127
22423,note_off,0,0,0,,5,,,65,127
22424,note_on,1,0,0,,5,,,65,127
22424,note_on,0,0,0,,7,,,79,127
22538,note_off,114,0,0,,7,,,79,127
22539,note_on,1,0,0,,5,,,77,127
22653,note_off,114,0,0,,5,,,77,127
22653,note_off,0,0,0,,5,,,65,127
22654,note_on,1,0,0,,7,,,67,127
22654,note_on,0,0,0,,3,,,75,127
22768,note_off,114,0,0,,3,,,75,127
22769,note_on,1,0,0,,2,,,74,127
22883,note_off,114,0,0,,2,,,74,127
22884,note_on,1,0,0,,7,,,55,127
22884,note_on,0,0,0,,0,,,72,127
22998,note_off,114,0,0,,0,,,72,127
22999,note_on,1,0,0,,12,,,71,127
23109,note_off,110,0,0,,7,,,67,127
23113,note_off,4,0,0,,12,,,71,127
23113,note_off,0,0,0,,7,,,55,127
23114,note_on,1,0,0,,8,,,56,127
23114,note_on,0,0,0,,0,,,60,127
23114,note_on,0,0,0,,0,,,72,127
23229,note_on,115,0,0,,0,,,84,127
23342,note_off,113,0,0,,0,,,72,127
23343,note_off,1,0,0,,0,,,84,127
23343,note_off,0,0,0,,8,,,56,127
23344,note_on,1,0,0,,5,,,53,127
23344,note_on,0,0,0,,8,,,80,127
23458,note_off,114,0,0,,8,,,80,127
23459,note_on,1,0,0,,5,,,77,127
23573,note_off,114,0,0,,5,,,53,127
23574,note_on,1,0,0,,7,,,55,127
23803,note_off,229,0,0,,0,,,60,127
23804,note_on,1,0,0,,12,,,59,127
23804,note_on,0,0,0,,2,,,62,127
24030,note_off,226,0,0,,7,,,55,127
24034,note_off,4,0,0,,2,,,62,127
24034,note_off,0,0,0,,12,,,59,127
24035,note_on,1,0,0,,0,,,60,127
24035,note_on,0,0,0,,8,,,56,127
24045,note_off,10,0,0,,5,,,77,127
24151,note_on,106,0,0,,0,,,84,127
24265,note_off,114,0,0,,0,,,84,127
24265,note_off,0,0,0,,8,,,56,127
24266,note_on,1,0,0,,5,,,53,127
24266,note_on,0,0,0,,8,,,80,127
24380,note_off,114,0,0,,8,,,80,127
24381,note_on,1,0,0,,5,,,77,127
24495,note_off,114,0,0,,5,,,53,127
24496,note_on,1,0,0,,7,,,55,127
24725,note_off,229,0,0,,0,,,60,127
24726,note_on,1,0,0,,12,,,59,127
24726,note_on,0,0,0,,2,,,62,127
24952,note_off,226,0,0,,7,,,55,127
24956,note_off,4,0,0,,2,,,62,127
24956,note_off,0,0,0,,12,,,59,127
24957,note_on,1,0,0,,0,,,60,127
24957,note_on,0,0,0,,8,,,56,127
24967,note_off,10,0,0,,5,,,77,127
25073,note_on,106,0,0,,0,,,84,127
25187,note_off,114,0,0,,0,,,84,127
25187,note_off,0,0,0,,8,,,56,127
25188,note_on,1,0,0,,5,,,53,127
25188,note_on,0,0,0,,8,,,80,127
25302,note_off,114,0,0,,8,,,80,127
25303,note_on,1,0,0,,5,,,77,127
25413,note_off,110,0,0,,0,,,60,127
25417,note_off,4,0,0,,5,,,53,127
25418,note_on,1,0,0,,2,,,62,127
25418,note_on,0,0,0,,12,,,59,127
25532,note_off,114,0,0,,5,,,77,127
25533,note_on,1,0,0,,8,,,80,127
25647,note_off,114,0,0,,8,,,80,127
25647,note_off,0,0,0,,12,,,59,127
25648,note_on,1,0,0,,7,,,55,127
25648,note_on,0,0,0,,7,,,79,127
25762,note_off,114,0,0,,7,,,79,127
25763,note_on,1,0,0,,2,,,74,127
25873,note_off,110,0,0,,2,,,62,127
25877,note_off,4,0,0,,7,,,55,127
25878,note_on,1,0,0,,0,,,60,127
25992,note_off,114,0,0,,2,,,74,127
25993,note_on,1,0,0,,5,,,77,127
26106,note_off,113,0,0,,0,,,60,127
26107,note_off,1,0,0,,5,,,77,127
26108,note_on,1,0,0,,3,,,51,127
26108,note_on,0,0,0,,3,,,75,127
26222,note_off,114,0,0,,3,,,75,127
26223,note_on,1,0,0,,0,,,72,127
26337,note_off,114,0,0,,3,,,51,127
26338,note_on,1,0,0,,5,,,53,127
26452,note_off,114,0,0,,0,,,72,127
26453,note_on,1,0,0,,3,,,75,127
26567,note_off,114,0,0,,3,,,75,127
26567,note_off,0,0,0,,5,,,53,127
26568,note_on,1,0,0,,7,,,55,127
26568,note_on,0,0,0,,2,,,74,127
26682,note_off,114,0,0,,2,,,74,127
26683,note_on,1,0,0,,12,,,71,127
26797,note_off,114,0,0,,12,,,71,127
26797,note_off,0,0,0,,7,,,55,127
26798,note_on,1,0,0,,8,,,56,127
26798,note_on,0,0,0,,0,,,60,127
26798,note_on,0,0,0,,0,,,72,127
26912,note_off,114,0,0,,0,,,72,127
26913,note_on,1,0,0,,0,,,84,127
27027,note_off,114,0,0,,0,,,84,127
27027,note_off,0,0,0,,8,,,56,127
27028,note_on,1,0,0,,5,,,53,127
27028,note_on,0,0,0,,8,,,80,127
27142,note_off,114,0,0,,8,,,80,127
27143,note_on,1,0,0,,5,,,77,127
27257,note_off,114,0,0,,5,,,53,127
27258,note_on,1,0,0,,7,,,55,127
27487,note_off,229,0,0,,0,,,60,127
27488,note_on,1,0,0,,2,,,62,127
27488,note_on,0,0,0,,12,,,59,127
27714,note_off,226,0,0,,7,,,55,127
27718,note_off,4,0,0,,12,,,59,127
27718,note_off,0,0,0,,2,,,62,127
27719,note_on,1,0,0,,0,,,60,127
27719,note_on,0,0,0,,8,,,56,127
27729,note_off,10,0,0,,5,,,77,127
27835,note_on,106,0,0,,0,,,84,127
27949,note_off,114,0,0,,0,,,84,127
27949,note_off,0,0,0,,8,,,56,127
27950,note_on,1,0,0,,5,,,53,127
27950,note_on,0,0,0,,8,,,80,127
28064,note_off,114,0,0,,8,,,80,127
28065,note_on,1,0,0,,5,,,77,127
28179,note_off,114,0,0,,5,,,53,127
28180,note_on,1,0,0,,7,,,55,127
28409,note_off,229,0,0,,0,,,60,127
28410,note_on,1,0,0,,2,,,62,127
28410,note_on,0,0,0,,12,,,59,127
28636,note_off,226,0,0,,7,,,55,127
28640,note_off,4,0,0,,12,,,59,127
28640,note_off,0,0,0,,2,,,62,127
28641,note_on,1,0,0,,8,,,56,127
28641,note_on,0,0,0,,0,,,60,127
28651,note_off,10,0,0,,5,,,77,127
28757,note_on,106,0,0,,0,,,84,127
28871,note_off,114,0,0,,0,,,84,127
28871,note_off,0,0,0,,8,,,56,127
28872,note_on,1,0,0,,5,,,53,127
28872,note_on,0,0,0,,8,,,80,127
28986,note_off,114,0,0,,8,,,80,127
28987,note_on,1,0,0,,5,,,77,127
29097,note_off,110,0,0,,0,,,60,127
29101,note_off,4,0,0,,5,,,53,127
29102,note_on,1,0,0,,12,,,59,127
29102,note_on,0,0,0,,2,,,62,127
29216,note_off,114,0,0,,5,,,77,127
29217,note_on,1,0,0,,8,,,80,127
29331,note_off,114,0,0,,8,,,80,127
29331,note_off,0,0,0,,12,,,59,127
29332,note_on,1,0,0,,7,,,55,127
29332,note_on,0,0,0,,7,,,79,127
29446,note_off,114,0,0,,7,,,79,127
29447,note_on,1,0,0,,2,,,74,127
29557,note_off,110,0,0,,2,,,62,127
29561,note_off,4,0,0,,7,,,55,127
29562,note_on,1,0,0,,0,,,60,127
29676,note_off,114,0,0,,2,,,74,127
29677,note_on,1,0,0,,5,,,77,127
29791,note_off,114,0,0,,5,,,77,127
29791,note_off,0,0,0,,0,,,60,127
29792,note_on,1,0,0,,3,,,51,127
29792,note_on,0,0,0,,3,,,75,127
29906,note_off,114,0,0,,3,,,75,127
29907,note_on,1,0,0,,0,,,72,127
30021,note_off,114,0,0,,3,,,51,127
30022,note_on,1,0,0,,5,,,53,127
30136,note_off,114,0,0,,0,,,72,127
30137,note_on,1,0,0,,3,,,75,127
30251,note_off,114,0,0,,3,,,75,127
30251,note_off,0,0,0,,5,,,53,127
30252,note_on,1,0,0,,7,,,55,127
30252,note_on,0,0,0,,2,,,74,127
30366,note_off,114,0,0,,2,,,74,127
30367,note_on,1,0,0,,12,,,71,127
30481,note_off,114,0,0,,12,,,71,127
30481,note_off,0,0,0,,7,,,55,127
30482,note_on,1,0,0,,3,,,51,127
30482,note_on,0,0,0,,0,,,72,127
30596,note_off,114,0,0,,0,,,72,127
30597,note_on,1,0,0,,7,,,67,127
30711,note_off,114,0,0,,7,,,67,127
30711,note_off,0,0,0,,3,,,51,127
30712,note_on,1,0,0,,5,,,53,127
30712,note_on,0,0,0,,5,,,65,127
30827,note_on,115,0,0,,8,,,68,127
30940,note_off,113,0,0,,5,,,65,127
30941,note_off,1,0,0,,8,,,68,127
30941,note_off,0,0,0,,5,,,53,127
30942,note_on,1,0,0,,7,,,55,127
30942,note_on,0,0,0,,3,,,63,127
31057,note_on,115,0,0,,7,,,67,127
31165,note_off,108,0,0,,7,,,67,127
31171,note_off,6,0,0,,3,,,63,127
31172,note_on,1,0,0,,7,,,43,127
31172,note_on,0,0,0,,2,,,62,127
31287,note_on,115,0,0,,12,,,71,127
31395,note_off,108,0,0,,12,,,71,127
31397,note_off,2,0,0,,7,,,55,127
31401,note_off,4,0,0,,2,,,62,127
31401,note_off,0,0,0,,7,,,43,127
31402,note_on,1,0,0,,0,,,48,127
31402,note_on,0,0,0,,0,,,72,127
31402,note_on,0,0,0,,3,,,63,127
32092,note_off,690,0,0,,0,,,72,127
32322,note_off,230,0,0,,3,,,63,127
32322,note_off,0,0,0,,0,,,48,127
32323,note_on,1,0,0,,0,,,48,127
32552,note_off,229,0,0,,0,,,48,127
32553,note_on,1,0,0,,0,,,60,127
32783,note_on,230,0,0,,4,,,76,127
32783,note_on,0,0,0,,7,,,67,127
32897,note_off,114,0,0,,0,,,60,127
32898,note_on,1,0,0,,11,,,58,127
33012,note_off,114,0,0,,11,,,58,127
33013,note_on,1,0,0,,8,,,56,127
33127,note_off,114,0,0,,8,,,56,127
33128,note_on,1,0,0,,7,,,55,127
33238,note_off,110,0,0,,7,,,67,127
33238,note_off,0,0,0,,4,,,76,127
33242,note_off,4,0,0,,7,,,55,127
33243,note_on,1,0,0,,5,,,53,127
33472,note_off,229,0,0,,5,,,53,127
33473,note_on,1,0,0,,5,,,65,127
33703,note_on,230,0,0,,10,,,69,127
33703,note_on,0,0,0,,5,,,77,127
33817,note_off,114,0,0,,5,,,65,127
33818,note_on,1,0,0,,3,,,63,127
33932,note_off,114,0,0,,3,,,63,127
33933,note_on,1,0,0,,1,,,61,127
34047,note_off,114,0,0,,1,,,61,127
34048,note_on,1,0,0,,0,,,60,127
34158,note_off,110,0,0,,5,,,77,127
34158,note_off,0,0,0,,10,,,69,127
34162,note_off,4,0,0,,0,,,60,127
34163,note_on,1,0,0,,11,,,46,127
34392,note_off,229,0,0,,11,,,46,127
34393,note_on,1,0,0,,11,,,58,127
34623,note_on,230,0,0,,11,,,82,127
34623,note_on,0,0,0,,1,,,73,127
34737,note_off,114,0,0,,11,,,58,127
34738,note_on,1,0,0,,8,,,56,127
34852,note_off,114,0,0,,8,,,56,127
34853,note_on,1,0,0,,7,,,55,127
34967,note_off,114,0,0,,7,,,55,127
34968,note_on,1,0,0,,5,,,53,127
35078,note_off,110,0,0,,1,,,73,127
35082,note_off,4,0,0,,5,,,53,127
35083,note_on,1,0,0,,3,,,51,127
35197,note_off,114,0,0,,11,,,82,127
35198,note_on,1,0,0,,8,,,80,127
35312,note_off,114,0,0,,8,,,80,127
35313,note_on,1,0,0,,6,,,78,127
35427,note_off,114,0,0,,6,,,78,127
35428,note_on,1,0,0,,5,,,77,127
35542,note_off,114,0,0,,5,,,77,127
35542,note_off,0,0,0,,3,,,51,127
35543,note_on,1,0,0,,3,,,63,127
35543,note_on,0,0,0,,3,,,75,127
35657,note_off,114,0,0,,3,,,75,127
35658,note_on,1,0,0,,1,,,73,127
35772,note_off,114,0,0,,1,,,73,127
35773,note_on,1,0,0,,0,,,72,127
35887,note_off,114,0,0,,0,,,72,127
35888,note_on,1,0,0,,11,,,70,127
36002,note_off,114,0,0,,11,,,70,127
36002,note_off,0,0,0,,3,,,63,127
36003,note_on,1,0,0,,5,,,53,127
36003,note_on,0,0,0,,10,,,69,127
36232,note_off,229,0,0,,5,,,53,127
36233,note_on,1,0,0,,3,,,63,127
36462,note_off,229,0,0,,10,,,69,127
36463,note_on,1,0,0,,0,,,72,127
36463,note_on,0,0,0,,3,,,75,127
36577,note_off,114,0,0,,3,,,63,127
36578,note_on,1,0,0,,1,,,61,127
36692,note_off,114,0,0,,1,,,61,127
36693,note_on,1,0,0,,0,,,60,127
36807,note_off,114,0,0,,0,,,60,127
36808,note_on,1,0,0,,11,,,58,127
36922,note_off,114,0,0,,11,,,58,127
36922,note_off,0,0,0,,3,,,75,127
36922,note_off,0,0,0,,0,,,72,127
36923,note_on,1,0,0,,5,,,53,127
36923,note_on,0,0,0,,0,,,72,127
36923,note_on,0,0,0,,10,,,81,127
37152,note_off,229,0,0,,5,,,53,127
37153,note_on,1,0,0,,3,,,63,127
37382,note_off,229,0,0,,10,,,81,127
37382,note_off,0,0,0,,0,,,72,127
37383,note_on,1,0,0,,3,,,75,127
37383,note_on,0,0,0,,0,,,72,127
37497,note_off,114,0,0,,3,,,63,127
37498,note_on,1,0,0,,1,,,61,127
37612,note_off,114,0,0,,1,,,61,127
37613,note_on,1,0,0,,0,,,60,127
37727,note_off,114,0,0,,0,,,60,127
37728,note_on,1,0,0,,11,,,58,127
37842,note_off,114,0,0,,11,,,58,127
37842,note_off,0,0,0,,0,,,72,127
37842,note_off,0,0,0,,3,,,75,127
37843,note_on,1,0,0,,5,,,53,127
37843,note_on,0,0,0,,10,,,81,127
37843,note_on,0,0,0,,0,,,72,127
38072,note_off,229,0,0,,5,,,53,127
38073,note_on,1,0,0,,3,,,63,127
38302,note_off,229,0,0,,0,,,72,127
38302,note_off,0,0,0,,10,,,81,127
38303,note_on,1,0,0,,3,,,75,127
38303,note_on,0,0,0,,0,,,72,127
38417,note_off,114,0,0,,3,,,63,127
38418,note_on,1,0,0,,1,,,61,127
38532,note_off,114,0,0,,1,,,61,127
38533,note_on,1,0,0,,0,,,60,127
38647,note_off,114,0,0,,0,,,60,127
38648,note_on,1,0,0,,11,,,58,127
38762,note_off,114,0,0,,11,,,58,127
38762,note_off,0,0,0,,0,,,72,127
38762,note_off,0,0,0,,3,,,75,127
38763,note_on,1,0,0,,5,,,53,127
38763,note_on,0,0,0,,10,,,81,127
38763,note_on,0,0,0,,0,,,72,127
38992,note_off,229,0,0,,5,,,53,127
38993,note_on,1,0,0,,5,,,65,127
39222,note_off,229,0,0,,0,,,72,127
39222,note_off,0,0,0,,10,,,81,127
39223,note_on,1,0,0,,0,,,72,127
39223,note_on,0,0,0,,0,,,84,127
39337,note_off,114,0,0,,5,,,65,127
39338,note_on,1,0,0,,3,,,63,127
39452,note_off,114,0,0,,3,,,63,127
39453,note_on,1,0,0,,1,,,61,127
39567,note_off,114,0,0,,1,,,61,127
39568,note_on,1,0,0,,0,,,60,127
39682,note_off,114,0,0,,0,,,60,127
39682,note_off,0,0,0,,0,,,84,127
39682,note_off,0,0,0,,0,,,72,127
39683,note_on,1,0,0,,11,,,58,127
39683,note_on,0,0,0,,1,,,85,127
39797,note_off,114,0,0,,1,,,85,127
39798,note_on,1,0,0,,0,,,84,127
39912,note_off,114,0,0,,0,,,84,127
39913,note_on,1,0,0,,11,,,82,127
40027,note_off,114,0,0,,11,,,82,127
40028,note_on,1,0,0,,8,,,80,127
40142,note_off,114,0,0,,8,,,80,127
40142,note_off,0,0,0,,11,,,58,127
40143,note_on,1,0,0,,11,,,58,127
40143,note_on,0,0,0,,7,,,67,127
40143,note_on,0,0,0,,7,,,79,127
40257,note_off,114,0,0,,7,,,79,127
40258,note_on,1,0,0,,5,,,77,127
40372,note_off,114,0,0,,5,,,77,127
40373,note_on,1,0,0,,3,,,75,127
40487,note_off,114,0,0,,3,,,75,127
40488,note_on,1,0,0,,1,,,73,127
40602,note_off,114,0,0,,1,,,73,127
40602,note_off,0,0,0,,7,,,67,127
40602,note_off,0,0,0,,11,,,58,127
40603,note_on,1,0,0,,8,,,68,127
40603,note_on,0,0,0,,8,,,56,127
40603,note_on,0,0,0,,0,,,72,127
40717,note_off,114,0,0,,0,,,72,127
40718,note_on,1,0,0,,8,,,80,127
40832,note_off,114,0,0,,8,,,80,127
40833,note_on,1,0,0,,5,,,77,127
40947,note_off,114,0,0,,5,,,77,127
40948,note_on,1,0,0,,1,,,73,127
41062,note_off,114,0,0,,8,,,56,127
41062,note_off,0,0,0,,8,,,68,127
41063,note_on,1,0,0,,1,,,61,127
41063,note_on,0,0,0,,11,,,58,127
41292,note_off,229,0,0,,11,,,58,127
41292,note_off,0,0,0,,1,,,61,127
41293,note_on,1,0,0,,7,,,55,127
41293,note_on,0,0,0,,3,,,63,127
41403,note_off,110,0,0,,1,,,73,127
41522,note_off,119,0,0,,3,,,63,127
41522,note_off,0,0,0,,7,,,55,127
41523,note_on,1,0,0,,0,,,60,127
41523,note_on,0,0,0,,8,,,56,127
41638,note_on,115,0,0,,8,,,80,127
41752,note_off,114,0,0,,8,,,80,127
41753,note_on,1,0,0,,5,,,77,127
41867,note_off,114,0,0,,5,,,77,127
41868,note_on,1,0,0,,1,,,73,127
41982,note_off,114,0,0,,8,,,56,127
41982,note_off,0,0,0,,0,,,60,127
41983,note_on,1,0,0,,1,,,61,127
41983,note_on,0,0,0,,11,,,58,127
42212,note_off,229,0,0,,11,,,58,127
42212,note_off,0,0,0,,1,,,61,127
42213,note_on,1,0,0,,7,,,55,127
42213,note_on,0,0,0,,3,,,63,127
42323,note_off,110,0,0,,1,,,73,127
42442,note_off,119,0,0,,3,,,63,127
42442,note_off,0,0,0,,7,,,55,127
42443,note_on,1,0,0,,8,,,56,127
42443,note_on,0,0,0,,0,,,60,127
42558,note_on,115,0,0,,8,,,80,127
42672,note_off,114,0,0,,8,,,80,127
42673,note_on,1,0,0,,5,,,77,127
42787,note_off,114,0,0,,5,,,77,127
42788,note_on,1,0,0,,1,,,73,127
42902,note_off,114,0,0,,0,,,60,127
42902,note_off,0,0,0,,8,,,56,127
42903,note_on,1,0,0,,1,,,61,127
42903,note_on,0,0,0,,11,,,58,127
43132,note_off,229,0,0,,11,,,58,127
43132,note_off,0,0,0,,1,,,61,127
43133,note_on,1,0,0,,11,,,58,127
43133,note_on,0,0,0,,0,,,60,127
43133,note_on,0,0,0,,4,,,64,127
43133,note_on,0,0,0,,7,,,55,127
43362,note_off,229,0,0,,7,,,55,127
43362,note_off,0,0,0,,4,,,64,127
43362,note_off,0,0,0,,0,,,60,127
43362,note_off,0,0,0,,11,,,58,127
43363,note_on,1,0,0,,5,,,65,127
43363,note_on,0,0,0,,0,,,60,127
43363,note_on,0,0,0,,8,,,56,127
43369,note_off,6,0,0,,1,,,73,127
43478,note_on,109,0,0,,0,,,72,127
43592,note_off,114,0,0,,0,,,72,127
43593,note_on,1,0,0,,4,,,76,127
43707,note_off,114,0,0,,4,,,76,127
43708,note_on,1,0,0,,5,,,77,127
43822,note_off,114,0,0,,8,,,56,127
43822,note_off,0,0,0,,0,,,60,127
43822,note_off,0,0,0,,5,,,65,127
43823,note_on,1,0,0,,4,,,52,127
43823,note_on,0,0,0,,0,,,60,127
43823,note_on,0,0,0,,11,,,58,127
43937,note_off,114,0,0,,5,,,77,127
43938,note_on,1,0,0,,1,,,73,127
44052,note_off,114,0,0,,1,,,73,127
44053,note_on,1,0,0,,5,,,77,127
44167,note_off,114,0,0,,5,,,77,127
44168,note_on,1,0,0,,7,,,79,127
44282,note_off,114,0,0,,11,,,58,127
44282,note_off,0,0,0,,0,,,60,127
44282,note_off,0,0,0,,4,,,52,127
44283,note_on,1,0,0,,5,,,53,127
44283,note_on,0,0,0,,11,,,58,127
44283,note_on,0,0,0,,1,,,61,127
44397,note_off,114,0,0,,7,,,79,127
44398,note_on,1,0,0,,1,,,73,127
44512,note_off,114,0,0,,1,,,73,127
44513,note_on,1,0,0,,7,,,79,127
44627,note_off,114,0,0,,7,,,79,127
44628,note_on,1,0,0,,8,,,80,127
44742,note_off,114,0,0,,1,,,61,127
44742,note_off,0,0,0,,11,,,58,127
44742,note_off,0,0,0,,5,,,53,127
44743,note_on,1,0,0,,7,,,55,127
44743,note_on,0,0,0,,11,,,58,127
44743,note_on,0,0,0,,4,,,64,127
44743,note_on,0,0,0,,0,,,60,127
44857,note_off,114,0,0,,8,,,80,127
44858,note_on,1,0,0,,11,,,82,127
44972,note_off,114,0,0,,11,,,82,127
44973,note_on,1,0,0,,5,,,77,127
45087,note_off,114,0,0,,5,,,77,127
45088,note_on,1,0,0,,4,,,76,127
45202,note_off,114,0,0,,4,,,76,127
45202,note_off,0,0,0,,0,,,60,127
45202,note_off,0,0,0,,4,,,64,127
45202,note_off,0,0,0,,11,,,58,127
45202,note_off,0,0,0,,7,,,55,127
45203,note_on,1,0,0,,0,,,60,127
45203,note_on,0,0,0,,8,,,56,127
45203,note_on,0,0,0,,5,,,65,127
45203,note_on,0,0,0,,5,,,77,127
45311,note_off,108,0,0,,5,,,65,127
45317,note_off,6,0,0,,5,,,77,127
45318,note_on,1,0,0,,5,,,65,127
45432,note_off,114,0,0,,5,,,65,127
45433,note_on,1,0,0,,8,,,68,127
45547,note_off,114,0,0,,8,,,68,127
45548,note_on,1,0,0,,0,,,72,127
45662,note_off,114,0,0,,0,,,72,127
45663,note_on,1,0,0,,5,,,77,127
45777,note_off,114,0,0,,5,,,77,127
45778,note_on,1,0,0,,0,,,72,127
45892,note_off,114,0,0,,0,,,72,127
45893,note_on,1,0,0,,8,,,80,127
46007,note_off,114,0,0,,8,,,80,127
46008,note_on,1,0,0,,5,,,77,127
46122,note_off,114,0,0,,5,,,77,127
46122,note_off,0,0,0,,8,,,56,127
46122,note_off,0,0,0,,0,,,60,127
46123,note_on,1,0,0,,0,,,84,127
46237,note_off,114,0,0,,0,,,84,127
46238,note_on,1,0,0,,11,,,82,127
46352,note_off,114,0,0,,11,,,82,127
46353,note_on,1,0,0,,8,,,80,127
46467,note_off,114,0,0,,8,,,80,127
46468,note_on,1,0,0,,7,,,79,127
46582,note_off,114,0,0,,7,,,79,127
46583,note_on,1,0,0,,3,,,63,127
46583,note_on,0,0,0,,10,,,57,127
46583,note_on,0,0,0,,5,,,65,127
46583,note_on,0,0,0,,5,,,77,127
46697,note_off,114,0,0,,5,,,77,127
46698,note_on,1,0,0,,3,,,75,127
46812,note_off,114,0,0,,3,,,75,127
46813,note_on,1,0,0,,1,,,73,127
46927,note_off,114,0,0,,1,,,73,127
46928,note_on,1,0,0,,0,,,72,127
47042,note_off,114,0,0,,0,,,72,127
47042,note_off,0,0,0,,5,,,65,127
47042,note_off,0,0,0,,10,,,57,127
47042,note_off,0,0,0,,3,,,63,127
47043,note_on,1,0,0,,11,,,58,127
47043,note_on,0,0,0,,1,,,73,127
47157,note_off,114,0,0,,1,,,73,127
47158,note_on,1,0,0,,11,,,82,127
47272,note_off,114,0,0,,11,,,82,127
47273,note_on,1,0,0,,1,,,61,127
47273,note_on,0,0,0,,5,,,65,127
47273,note_on,0,0,0,,8,,,80,127
47387,note_off,114,0,0,,8,,,80,127
47388,note_on,1,0,0,,7,,,79,127
47498,note_off,110,0,0,,11,,,58,127
47502,note_off,4,0,0,,7,,,79,127
47502,note_off,0,0,0,,1,,,61,127
47503,note_on,1,0,0,,0,,,60,127
47503,note_on,0,0,0,,5,,,77,127
47729,note_off,226,0,0,,5,,,65,127
47733,note_off,4,0,0,,5,,,77,127
47734,note_on,1,0,0,,7,,,67,127
47734,note_on,0,0,0,,4,,,76,127
47960,note_off,226,0,0,,0,,,60,127
47962,note_off,2,0,0,,4,,,76,127
47963,note_off,1,0,0,,7,,,67,127
47964,note_on,1,0,0,,1,,,61,127
47964,note_on,0,0,0,,5,,,65,127
48079,note_on,115,0,0,,5,,,77,127
48193,note_off,114,0,0,,5,,,77,127
48193,note_off,0,0,0,,1,,,61,127
48194,note_on,1,0,0,,11,,,58,127
48194,note_on,0,0,0,,1,,,73,127
48308,note_off,114,0,0,,1,,,73,127
48309,note_on,1,0,0,,11,,,70,127
48423,note_off,114,0,0,,11,,,58,127
48424,note_on,1,0,0,,0,,,60,127
48653,note_off,229,0,0,,5,,,65,127
48654,note_on,1,0,0,,4,,,64,127
48654,note_on,0,0,0,,7,,,67,127
48880,note_off,226,0,0,,0,,,60,127
48884,note_off,4,0,0,,7,,,67,127
48884,note_off,0,0,0,,4,,,64,127
48885,note_on,1,0,0,,1,,,61,127
48885,note_on,0,0,0,,5,,,65,127
48895,note_off,10,0,0,,11,,,70,127
49001,note_on,106,0,0,,5,,,77,127
49115,note_off,114,0,0,,5,,,77,127
49115,note_off,0,0,0,,1,,,61,127
49116,note_on,1,0,0,,11,,,58,127
49116,note_on,0,0,0,,1,,,73,127
49230,note_off,114,0,0,,1,,,73,127
49231,note_on,1,0,0,,11,,,70,127
49345,note_off,114,0,0,,11,,,58,127
49346,note_on,1,0,0,,0,,,60,127
49575,note_off,229,0,0,,5,,,65,127
49576,note_on,1,0,0,,4,,,64,127
49576,note_on,0,0,0,,7,,,67,127
49802,note_off,226,0,0,,0,,,60,127
49806,note_off,4,0,0,,7,,,67,127
49806,note_off,0,0,0,,4,,,64,127
49807,note_on,1,0,0,,1,,,61,127
49807,note_on,0,0,0,,5,,,65,127
49817,note_off,10,0,0,,11,,,70,127
49923,note_on,106,0,0,,5,,,77,127
50037,note_off,114,0,0,,5,,,77,127
50037,note_off,0,0,0,,5,,,65,127
50037,note_off,0,0,0,,1,,,61,127
50038,note_on,1,0,0,,11,,,58,127
50038,note_on,0,0,0,,1,,,73,127
50152,note_off,114,0,0,,1,,,73,127
50153,note_on,1,0,0,,11,,,70,127
50267,note_off,114,0,0,,11,,,58,127
50268,note_on,1,0,0,,0,,,60,127
50382,note_off,114,0,0,,11,,,70,127
50383,note_on,1,0,0,,1,,,85,127
50497,note_off,114,0,0,,1,,,85,127
50497,note_off,0,0,0,,0,,,60,127
50498,note_on,1,0,0,,4,,,64,127
50498,note_on,0,0,0,,7,,,67,127
50498,note_on,0,0,0,,11,,,82,127
50612,note_off,114,0,0,,11,,,82,127
50613,note_on,1,0,0,,7,,,79,127
50727,note_off,114,0,0,,7,,,67,127
50727,note_off,0,0,0,,4,,,64,127
50728,note_on,1,0,0,,5,,,65,127
50842,note_off,114,0,0,,7,,,79,127
50843,note_on,1,0,0,,0,,,84,127
50957,note_off,114,0,0,,0,,,84,127
50957,note_off,0,0,0,,5,,,65,127
50958,note_on,1,0,0,,8,,,56,127
50958,note_on,0,0,0,,8,,,80,127
51072,note_off,114,0,0,,8,,,80,127
51073,note_on,1,0,0,,5,,,77,127
51187,note_off,114,0,0,,8,,,56,127
51188,note_on,1,0,0,,11,,,58,127
51302,note_off,114,0,0,,5,,,77,127
51303,note_on,1,0,0,,11,,,82,127
51417,note_off,114,0,0,,11,,,82,127
51417,note_off,0,0,0,,11,,,58,127
51418,note_on,1,0,0,,0,,,60,127
51418,note_on,0,0,0,,7,,,79,127
51532,note_off,114,0,0,,7,,,79,127
51533,note_on,1,0,0,,4,,,76,127
51647,note_off,114,0,0,,0,,,60,127
51648,note_on,1,0,0,,1,,,61,127
51648,note_on,0,0,0,,5,,,65,127
51762,note_off,114,0,0,,4,,,76,127
51763,note_on,1,0,0,,5,,,77,127
51877,note_off,114,0,0,,5,,,77,127
51877,note_off,0,0,0,,1,,,61,127
51878,note_on,1,0,0,,11,,,58,127
51878,note_on,0,0,0,,1,,,73,127
51992,note_off,114,0,0,,1,,,73,127
51993,note_on,1,0,0,,11,,,70,127
52107,note_off,114,0,0,,11,,,58,127
52108,note_on,1,0,0,,0,,,60,127
52337,note_off,229,0,0,,5,,,65,127
52338,note_on,1,0,0,,4,,,64,127
52338,note_on,0,0,0,,7,,,67,127
52564,note_off,226,0,0,,0,,,60,127
52568,note_off,4,0,0,,7,,,67,127
52568,note_off,0,0,0,,4,,,64,127
52569,note_on,1,0,0,,5,,,65,127
52569,note_on,0,0,0,,1,,,61,127
52579,note_off,10,0,0,,11,,,70,127
52685,note_on,106,0,0,,5,,,77,127
52799,note_off,114,0,0,,5,,,77,127
52799,note_off,0,0,0,,1,,,61,127
52800,note_on,1,0,0,,11,,,58,127
52800,note_on,0,0,0,,1,,,73,127
52914,note_off,114,0,0,,1,,,73,127
52915,note_on,1,0,0,,11,,,70,127
53029,note_off,114,0,0,,11,,,58,127
53030,note_on,1,0,0,,0,,,60,127
53259,note_off,229,0,0,,5,,,65,127
53260,note_on,1,0,0,,4,,,64,127
53260,note_on,0,0,0,,7,,,67,127
53486,note_off,226,0,0,,0,,,60,127
53490,note_off,4,0,0,,7,,,67,127
53490,note_off,0,0,0,,4,,,64,127
53491,note_on,1,0,0,,1,,,61,127
53491,note_on,0,0,0,,5,,,65,127
53501,note_off,10,0,0,,11,,,70,127
53607,note_on,106,0,0,,5,,,77,127
53721,note_off,114,0,0,,5,,,77,127
53721,note_off,0,0,0,,1,,,61,127
53722,note_on,1,0,0,,11,,,58,127
53722,note_on,0,0,0,,1,,,73,127
53836,note_off,114,0,0,,1,,,73,127
53837,note_on,1,0,0,,11,,,70,127
53951,note_off,114,0,0,,11,,,58,127
53952,note_on,1,0,0,,0,,,60,127
54066,note_off,114,0,0,,11,,,70,127
54067,note_on,1,0,0,,1,,,85,127
54181,note_off,114,0,0,,1,,,85,127
54181,note_off,0,0,0,,5,,,65,127
54182,note_on,1,0,0,,4,,,64,127
54182,note_on,0,0,0,,7,,,67,127
54182,note_on,0,0,0,,11,,,82,127
54296,note_off,114,0,0,,11,,,82,127
54297,note_on,1,0,0,,7,,,79,127
54407,note_off,110,0,0,,0,,,60,127
54411,note_off,4,0,0,,7,,,67,127
54411,note_off,0,0,0,,4,,,64,127
54412,note_on,1,0,0,,5,,,65,127
54526,note_off,114,0,0,,7,,,79,127
54527,note_on,1,0,0,,0,,,84,127
54641,note_off,114,0,0,,0,,,84,127
54641,note_off,0,0,0,,5,,,65,127
54642,note_on,1,0,0,,8,,,56,127
54642,note_on,0,0,0,,8,,,80,127
54756,note_off,114,0,0,,8,,,80,127
54757,note_on,1,0,0,,5,,,77,127
54871,note_off,114,0,0,,8,,,56,127
54872,note_on,1,0,0,,11,,,58,127
54986,note_off,114,0,0,,5,,,77,127
54987,note_on,1,0,0,,11,,,82,127
55101,note_off,114,0,0,,11,,,82,127
55101,note_off,0,0,0,,11,,,58,127
55102,note_on,1,0,0,,0,,,60,127
55102,note_on,0,0,0,,7,,,79,127
55216,note_off,114,0,0,,7,,,79,127
55217,note_on,1,0,0,,4,,,76,127
55331,note_off,114,0,0,,0,,,60,127
55332,note_on,1,0,0,,1,,,61,127
55332,note_on,0,0,0,,5,,,65,127
55446,note_off,114,0,0,,4,,,76,127
55447,note_on,1,0,0,,5,,,77,127
55561,note_off,114,0,0,,5,,,77,127
55561,note_off,0,0,0,,1,,,61,127
55562,note_on,1,0,0,,11,,,58,127
55562,note_on,0,0,0,,1,,,73,127
55676,note_off,114,0,0,,1,,,73,127
55677,note_on,1,0,0,,11,,,70,127
55787,note_off,110,0,0,,5,,,65,127
55791,note_off,4,0,0,,11,,,58,127
55792,note_on,1,0,0,,7,,,67,127
55792,note_on,0,0,0,,4,,,64,127
55906,note_off,114,0,0,,11,,,70,127
55907,note_on,1,0,0,,1,,,73,127
56021,note_off,114,0,0,,1,,,73,127
56021,note_off,0,0,0,,4,,,64,127
56022,note_on,1,0,0,,0,,,60,127
56022,note_on,0,0,0,,11,,,70,127
56128,note_off,106,0,0,,7,,,67,127
56136,note_off,8,0,0,,11,,,70,127
56137,note_on,1,0,0,,7,,,67,127
56251,note_off,114,0,0,,0,,,60,127
56252,note_on,1,0,0,,5,,,53,127
56366,note_off,114,0,0,,7,,,67,127
56367,note_on,1,0,0,,0,,,72,127
56481,note_off,114,0,0,,0,,,72,127
56481,note_off,0,0,0,,5,,,53,127
56482,note_on,1,0,0,,8,,,44,127
56482,note_on,0,0,0,,8,,,68,127
56596,note_off,114,0,0,,8,,,68,127
56597,note_on,1,0,0,,5,,,65,127
56711,note_off,114,0,0,,5,,,65,127
56711,note_off,0,0,0,,8,,,44,127
56712,note_on,1,0,0,,11,,,46,127
56712,note_on,0,0,0,,7,,,67,127
56826,note_off,114,0,0,,7,,,67,127
56827,note_on,1,0,0,,11,,,70,127
56941,note_off,114,0,0,,11,,,70,127
56941,note_off,0,0,0,,11,,,46,127
56942,note_on,1,0,0,,0,,,48,127
56942,note_on,0,0,0,,7,,,67,127
57056,note_off,114,0,0,,7,,,67,127
57057,note_on,1,0,0,,4,,,64,127
57171,note_off,114,0,0,,4,,,64,127
57171,note_off,0,0,0,,0,,,48,127
57184,note_on,13,0,0,,5,,,41,127
57184,note_on,0,0,0,,5,,,65,127
59130,note_off,1946,0,0,,5,,,65,127
59130,note_off,0,0,0,,5,,,41,127
59904,end_of_track,774,1,0,,,,,,
