tick,type,time,meta,track,program,channel,pitch,tempo,note,velocity
0,copyright,0,1,0,,,,,,
0,program_change,0,0,0,6,0,,,,
0,pitchwheel,0,0,0,,0,0,,,
0,program_change,0,0,0,6,1,,,,
0,pitchwheel,0,0,0,,1,-590,,,
0,program_change,0,0,0,6,2,,,,
0,pitchwheel,0,0,0,,2,-272,,,
0,program_change,0,0,0,6,3,,,,
0,pitchwheel,0,0,0,,3,-353,,,
0,program_change,0,0,0,6,4,,,,
0,pitchwheel,0,0,0,,4,-560,,,
0,program_change,0,0,0,6,5,,,,
0,pitchwheel,0,0,0,,5,-80,,,
0,program_change,0,0,0,6,6,,,,
0,pitchwheel,0,0,0,,6,-625,,,
0,program_change,0,0,0,6,7,,,,
0,pitchwheel,0,0,0,,7,-130,,,
0,program_change,0,0,0,6,8,,,,
0,pitchwheel,0,0,0,,8,-512,,,
0,program_change,0,0,0,6,10,,,,
0,pitchwheel,0,0,0,,10,-464,,,
0,program_change,0,0,0,6,11,,,,
0,pitchwheel,0,0,0,,11,-208,,,
0,program_change,0,0,0,6,12,,,,
0,pitchwheel,0,0,0,,12,-553,,,
0,set_tempo,0,1,0,,,,500000,,
128,note_on,128,0,0,,5,,,53,127
128,note_on,0,0,0,,5,,,77,127
383,note_off,255,0,0,,5,,,53,127
384,note_on,1,0,0,,0,,,60,127
384,note_on,0,0,0,,0,,,72,127
421,note_off,37,0,0,,5,,,77,127
510,note_off,89,0,0,,0,,,60,127
511,note_on,1,0,0,,11,,,58,127
638,note_off,127,0,0,,11,,,58,127
638,note_off,0,0,0,,0,,,72,127
639,note_on,1,0,0,,8,,,56,127
639,note_on,0,0,0,,0,,,72,127
766,note_off,127,0,0,,8,,,56,127
767,note_on,1,0,0,,7,,,55,127
894,note_off,127,0,0,,7,,,55,127
894,note_off,0,0,0,,0,,,72,127
895,note_on,1,0,0,,5,,,53,127
895,note_on,0,0,0,,5,,,77,127
1150,note_off,255,0,0,,5,,,53,127
1151,note_on,1,0,0,,0,,,60,127
1151,note_on,0,0,0,,0,,,72,127
1215,note_off,64,0,0,,5,,,77,127
1278,note_off,63,0,0,,0,,,60,127
1279,note_on,1,0,0,,11,,,58,127
1406,note_off,127,0,0,,11,,,58,127
1406,note_off,0,0,0,,0,,,72,127
1407,note_on,1,0,0,,8,,,56,127
1407,note_on,0,0,0,,0,,,72,127
1534,note_off,127,0,0,,8,,,56,127
1535,note_on,1,0,0,,7,,,55,127
1662,note_off,127,0,0,,7,,,55,127
1662,note_off,0,0,0,,0,,,72,127
1663,note_on,1,0,0,,8,,,56,127
1663,note_on,0,0,0,,5,,,77,127
1918,note_off,255,0,0,,5,,,77,127
1918,note_off,0,0,0,,8,,,56,127
1919,note_on,1,0,0,,7,,,55,127
1919,note_on,0,0,0,,7,,,79,127
2174,note_off,255,0,0,,7,,,79,127
2174,note_off,0,0,0,,7,,,55,127
2175,note_on,1,0,0,,5,,,53,127
2175,note_on,0,0,0,,8,,,80,127
2430,note_off,255,0,0,,8,,,80,127
2430,note_off,0,0,0,,5,,,53,127
2431,note_on,1,0,0,,0,,,48,127
2431,note_on,0,0,0,,7,,,79,127
2686,note_off,255,0,0,,7,,,79,127
2687,note_on,1,0,0,,11,,,82,127
2814,note_off,127,0,0,,11,,,82,127
2815,note_on,1,0,0,,8,,,80,127
2942,note_off,127,0,0,,8,,,80,127
2943,note_on,1,0,0,,7,,,79,127
3070,note_off,127,0,0,,7,,,79,127
3071,note_on,1,0,0,,5,,,77,127
3198,note_off,127,0,0,,5,,,77,127
3198,note_off,0,0,0,,0,,,48,127
3199,note_on,1,0,0,,3,,,75,127
3439,note_off,240,0,0,,3,,,75,127
3455,note_on,16,0,0,,11,,,58,127
3455,note_on,0,0,0,,1,,,73,127
3582,note_off,127,0,0,,11,,,58,127
3583,note_on,1,0,0,,8,,,56,127
3710,note_off,127,0,0,,8,,,56,127
3711,note_on,1,0,0,,7,,,55,127
3838,note_off,127,0,0,,7,,,55,127
3839,note_on,1,0,0,,5,,,53,127
3966,note_off,127,0,0,,5,,,53,127
3966,note_off,0,0,0,,1,,,73,127
3967,note_on,1,0,0,,4,,,52,127
3967,note_on,0,0,0,,0,,,72,127
4222,note_off,255,0,0,,0,,,72,127
4223,note_on,1,0,0,,11,,,82,127
4350,note_off,127,0,0,,11,,,82,127
4351,note_on,1,0,0,,7,,,79,127
4478,note_off,127,0,0,,7,,,79,127
4478,note_off,0,0,0,,4,,,52,127
4479,note_on,1,0,0,,5,,,53,127
4479,note_on,0,0,0,,8,,,80,127
4734,note_off,255,0,0,,8,,,80,127
4734,note_off,0,0,0,,5,,,53,127
4735,note_on,1,0,0,,11,,,58,127
4735,note_on,0,0,0,,7,,,79,127
4990,note_off,255,0,0,,7,,,79,127
4990,note_off,0,0,0,,11,,,58,127
4991,note_on,1,0,0,,0,,,60,127
4991,note_on,0,0,0,,5,,,77,127
5247,note_on,256,0,0,,0,,,48,127
5311,note_on,64,0,0,,4,,,76,127
5324,note_off,13,0,0,,5,,,77,127
5375,note_on,51,0,0,,5,,,77,127
5395,note_off,20,0,0,,4,,,76,127
5439,note_on,44,0,0,,4,,,76,127
5459,note_off,20,0,0,,5,,,77,127
5498,note_off,39,0,0,,0,,,60,127
5502,note_off,4,0,0,,4,,,76,127
5502,note_off,0,0,0,,0,,,48,127
5503,note_on,1,0,0,,5,,,53,127
5503,note_on,0,0,0,,5,,,77,127
5758,note_off,255,0,0,,5,,,77,127
5758,note_off,0,0,0,,5,,,53,127
5759,note_on,1,0,0,,0,,,60,127
5759,note_on,0,0,0,,0,,,72,127
5886,note_off,127,0,0,,0,,,60,127
5887,note_on,1,0,0,,11,,,58,127
6014,note_off,127,0,0,,11,,,58,127
6014,note_off,0,0,0,,0,,,72,127
6015,note_on,1,0,0,,8,,,56,127
6015,note_on,0,0,0,,0,,,72,127
6142,note_off,127,0,0,,8,,,56,127
6143,note_on,1,0,0,,7,,,55,127
6270,note_off,127,0,0,,7,,,55,127
6270,note_off,0,0,0,,0,,,72,127
6271,note_on,1,0,0,,5,,,53,127
6271,note_on,0,0,0,,0,,,72,127
6526,note_off,255,0,0,,5,,,53,127
6527,note_on,1,0,0,,0,,,60,127
6527,note_on,0,0,0,,8,,,68,127
6654,note_off,127,0,0,,0,,,60,127
6655,note_off,1,0,0,,0,,,72,127
6655,note_on,0,0,0,,11,,,58,127
6782,note_off,127,0,0,,11,,,58,127
6782,note_off,0,0,0,,8,,,68,127
6783,note_on,1,0,0,,8,,,56,127
6783,note_on,0,0,0,,8,,,68,127
6910,note_off,127,0,0,,8,,,56,127
6911,note_on,1,0,0,,7,,,55,127
7038,note_off,127,0,0,,7,,,55,127
7038,note_off,0,0,0,,8,,,68,127
7039,note_on,1,0,0,,5,,,53,127
7039,note_on,0,0,0,,0,,,72,127
7294,note_off,255,0,0,,5,,,53,127
7295,note_on,1,0,0,,0,,,60,127
7295,note_on,0,0,0,,8,,,68,127
7422,note_off,127,0,0,,0,,,60,127
7423,note_off,1,0,0,,0,,,72,127
7423,note_on,0,0,0,,11,,,58,127
7550,note_off,127,0,0,,11,,,58,127
7550,note_off,0,0,0,,8,,,68,127
7551,note_on,1,0,0,,8,,,56,127
7551,note_on,0,0,0,,8,,,68,127
7678,note_off,127,0,0,,8,,,56,127
7679,note_on,1,0,0,,7,,,55,127
7806,note_off,127,0,0,,7,,,55,127
7806,note_off,0,0,0,,8,,,68,127
7807,note_on,1,0,0,,5,,,53,127
7807,note_on,0,0,0,,0,,,72,127
8062,note_off,255,0,0,,5,,,53,127
8063,note_on,1,0,0,,5,,,65,127
8063,note_on,0,0,0,,8,,,68,127
8190,note_off,127,0,0,,5,,,65,127
8191,note_off,1,0,0,,0,,,72,127
8191,note_on,0,0,0,,3,,,63,127
8318,note_off,127,0,0,,3,,,63,127
8318,note_off,0,0,0,,8,,,68,127
8319,note_on,1,0,0,,2,,,62,127
8319,note_on,0,0,0,,8,,,68,127
8446,note_off,127,0,0,,2,,,62,127
8447,note_on,1,0,0,,0,,,60,127
8574,note_off,127,0,0,,0,,,60,127
8574,note_off,0,0,0,,8,,,68,127
8575,note_on,1,0,0,,12,,,59,127
8575,note_on,0,0,0,,5,,,77,127
8830,note_off,255,0,0,,5,,,77,127
8830,note_off,0,0,0,,12,,,59,127
8831,note_on,1,0,0,,7,,,55,127
8831,note_on,0,0,0,,7,,,79,127
8958,note_off,127,0,0,,7,,,79,127
8959,note_on,1,0,0,,5,,,77,127
9086,note_off,127,0,0,,5,,,77,127
9086,note_off,0,0,0,,7,,,55,127
9087,note_on,1,0,0,,12,,,59,127
9087,note_on,0,0,0,,3,,,75,127
9214,note_off,127,0,0,,3,,,75,127
9215,note_on,1,0,0,,2,,,74,127
9342,note_off,127,0,0,,2,,,74,127
9342,note_off,0,0,0,,12,,,59,127
9343,note_on,1,0,0,,0,,,60,127
9343,note_on,0,0,0,,3,,,75,127
9598,note_off,255,0,0,,0,,,60,127
9599,note_on,1,0,0,,2,,,62,127
9599,note_on,0,0,0,,7,,,79,127
9636,note_off,37,0,0,,3,,,75,127
9725,note_off,89,0,0,,7,,,79,127
9726,note_on,1,0,0,,12,,,71,127
9853,note_off,127,0,0,,12,,,71,127
9853,note_off,0,0,0,,2,,,62,127
9854,note_on,1,0,0,,3,,,63,127
9854,note_on,0,0,0,,0,,,72,127
10109,note_off,255,0,0,,0,,,72,127
10109,note_off,0,0,0,,3,,,63,127
10110,note_on,1,0,0,,2,,,62,127
10110,note_on,0,0,0,,5,,,77,127
10365,note_off,255,0,0,,2,,,62,127
10366,note_on,1,0,0,,0,,,60,127
10366,note_on,0,0,0,,8,,,80,127
10403,note_off,37,0,0,,5,,,77,127
10492,note_off,89,0,0,,8,,,80,127
10493,note_on,1,0,0,,0,,,72,127
10620,note_off,127,0,0,,0,,,72,127
10620,note_off,0,0,0,,0,,,60,127
10621,note_on,1,0,0,,12,,,59,127
10621,note_on,0,0,0,,2,,,74,127
10876,note_off,255,0,0,,2,,,74,127
10876,note_off,0,0,0,,12,,,59,127
10877,note_on,1,0,0,,0,,,60,127
10877,note_on,0,0,0,,3,,,75,127
11132,note_off,255,0,0,,0,,,60,127
11133,note_on,1,0,0,,2,,,62,127
11133,note_on,0,0,0,,7,,,79,127
11170,note_off,37,0,0,,3,,,75,127
11259,note_off,89,0,0,,7,,,79,127
11260,note_on,1,0,0,,12,,,71,127
11387,note_off,127,0,0,,12,,,71,127
11387,note_off,0,0,0,,2,,,62,127
11388,note_on,1,0,0,,3,,,63,127
11388,note_on,0,0,0,,0,,,72,127
11643,note_off,255,0,0,,0,,,72,127
11643,note_off,0,0,0,,3,,,63,127
11644,note_on,1,0,0,,2,,,62,127
11644,note_on,0,0,0,,5,,,77,127
11899,note_off,255,0,0,,2,,,62,127
11900,note_on,1,0,0,,0,,,60,127
11900,note_on,0,0,0,,8,,,80,127
11937,note_off,37,0,0,,5,,,77,127
12026,note_off,89,0,0,,8,,,80,127
12027,note_on,1,0,0,,0,,,72,127
12154,note_off,127,0,0,,0,,,72,127
12154,note_off,0,0,0,,0,,,60,127
12155,note_on,1,0,0,,12,,,59,127
12155,note_on,0,0,0,,2,,,74,127
12410,note_off,255,0,0,,2,,,74,127
12410,note_off,0,0,0,,12,,,59,127
12411,note_on,1,0,0,,0,,,60,127
12411,note_on,0,0,0,,3,,,75,127
12666,note_off,255,0,0,,3,,,75,127
12666,note_off,0,0,0,,0,,,60,127
12667,note_on,1,0,0,,2,,,62,127
12667,note_on,0,0,0,,5,,,77,127
12922,note_off,255,0,0,,5,,,77,127
12922,note_off,0,0,0,,2,,,62,127
12923,note_on,1,0,0,,3,,,63,127
12923,note_on,0,0,0,,7,,,79,127
13178,note_off,255,0,0,,7,,,79,127
13178,note_off,0,0,0,,3,,,63,127
13179,note_on,1,0,0,,8,,,44,127
13179,note_on,0,0,0,,8,,,56,127
13179,note_on,0,0,0,,5,,,77,127
13306,note_off,127,0,0,,5,,,77,127
13307,note_on,1,0,0,,2,,,74,127
13434,note_off,127,0,0,,2,,,74,127
13435,note_on,1,0,0,,3,,,75,127
13562,note_off,127,0,0,,3,,,75,127
13563,note_on,1,0,0,,0,,,72,127
13690,note_off,127,0,0,,0,,,72,127
13691,note_on,1,0,0,,12,,,71,127
13818,note_off,127,0,0,,12,,,71,127
13819,note_on,1,0,0,,0,,,72,127
13946,note_off,127,0,0,,0,,,72,127
13946,note_off,0,0,0,,8,,,56,127
13946,note_off,0,0,0,,8,,,44,127
13947,note_on,1,0,0,,7,,,55,127
13947,note_on,0,0,0,,7,,,43,127
13947,note_on,0,0,0,,0,,,72,127
14074,note_off,127,0,0,,0,,,72,127
14075,note_on,1,0,0,,2,,,74,127
14139,note_on,64,0,0,,0,,,72,127
14159,note_off,20,0,0,,2,,,74,127
14203,note_on,44,0,0,,2,,,74,127
14223,note_off,20,0,0,,0,,,72,127
14267,note_on,44,0,0,,0,,,72,127
14287,note_off,20,0,0,,2,,,74,127
14331,note_on,44,0,0,,2,,,74,127
14351,note_off,20,0,0,,0,,,72,127
14395,note_on,44,0,0,,0,,,72,127
14415,note_off,20,0,0,,2,,,74,127
14458,note_off,43,0,0,,0,,,72,127
14459,note_on,1,0,0,,2,,,74,127
14714,note_off,255,0,0,,2,,,74,127
14714,note_off,0,0,0,,7,,,43,127
14714,note_off,0,0,0,,7,,,55,127
14715,note_on,1,0,0,,7,,,55,127
14715,note_on,0,0,0,,2,,,74,127
14970,note_off,255,0,0,,7,,,55,127
14971,note_on,1,0,0,,5,,,65,127
14971,note_on,0,0,0,,12,,,71,127
15088,note_off,117,0,0,,2,,,74,127
15097,note_off,9,0,0,,5,,,65,127
15098,note_on,1,0,0,,3,,,63,127
15225,note_off,127,0,0,,3,,,63,127
15225,note_off,0,0,0,,12,,,71,127
15226,note_on,1,0,0,,2,,,62,127
15226,note_on,0,0,0,,12,,,71,127
15353,note_off,127,0,0,,2,,,62,127
15354,note_on,1,0,0,,0,,,60,127
15481,note_off,127,0,0,,0,,,60,127
15481,note_off,0,0,0,,12,,,71,127
15482,note_on,1,0,0,,12,,,59,127
15482,note_on,0,0,0,,2,,,74,127
15737,note_off,255,0,0,,12,,,59,127
15738,note_on,1,0,0,,5,,,65,127
15738,note_on,0,0,0,,12,,,71,127
15855,note_off,117,0,0,,2,,,74,127
15864,note_off,9,0,0,,5,,,65,127
15865,note_on,1,0,0,,3,,,63,127
15992,note_off,127,0,0,,3,,,63,127
15992,note_off,0,0,0,,12,,,71,127
15993,note_on,1,0,0,,2,,,62,127
15993,note_on,0,0,0,,12,,,71,127
16120,note_off,127,0,0,,2,,,62,127
16121,note_on,1,0,0,,0,,,60,127
16248,note_off,127,0,0,,0,,,60,127
16248,note_off,0,0,0,,12,,,71,127
16249,note_on,1,0,0,,12,,,59,127
16249,note_on,0,0,0,,5,,,77,127
16504,note_off,255,0,0,,12,,,59,127
16505,note_on,1,0,0,,8,,,68,127
16505,note_on,0,0,0,,2,,,74,127
16622,note_off,117,0,0,,5,,,77,127
16631,note_off,9,0,0,,8,,,68,127
16632,note_on,1,0,0,,7,,,67,127
16759,note_off,127,0,0,,7,,,67,127
16759,note_off,0,0,0,,2,,,74,127
16760,note_on,1,0,0,,5,,,65,127
16760,note_on,0,0,0,,2,,,74,127
16887,note_off,127,0,0,,5,,,65,127
16888,note_on,1,0,0,,3,,,63,127
17015,note_off,127,0,0,,3,,,63,127
17015,note_off,0,0,0,,2,,,74,127
17016,note_on,1,0,0,,2,,,62,127
17016,note_on,0,0,0,,5,,,77,127
17271,note_off,255,0,0,,2,,,62,127
17272,note_on,1,0,0,,8,,,68,127
17272,note_on,0,0,0,,2,,,74,127
17389,note_off,117,0,0,,5,,,77,127
17398,note_off,9,0,0,,8,,,68,127
17399,note_on,1,0,0,,7,,,67,127
17526,note_off,127,0,0,,7,,,67,127
17526,note_off,0,0,0,,2,,,74,127
17527,note_on,1,0,0,,5,,,65,127
17527,note_on,0,0,0,,2,,,74,127
17654,note_off,127,0,0,,5,,,65,127
17655,note_on,1,0,0,,3,,,63,127
17782,note_off,127,0,0,,3,,,63,127
17782,note_off,0,0,0,,2,,,74,127
17783,note_on,1,0,0,,2,,,62,127
17783,note_on,0,0,0,,5,,,77,127
18038,note_off,255,0,0,,2,,,62,127
18039,note_on,1,0,0,,5,,,65,127
18039,note_on,0,0,0,,2,,,74,127
18156,note_off,117,0,0,,5,,,77,127
18165,note_off,9,0,0,,5,,,65,127
18166,note_on,1,0,0,,3,,,63,127
18293,note_off,127,0,0,,3,,,63,127
18293,note_off,0,0,0,,2,,,74,127
18294,note_on,1,0,0,,2,,,62,127
18294,note_on,0,0,0,,2,,,74,127
18421,note_off,127,0,0,,2,,,62,127
18422,note_on,1,0,0,,0,,,60,127
18549,note_off,127,0,0,,0,,,60,127
18549,note_off,0,0,0,,2,,,74,127
18550,note_on,1,0,0,,12,,,59,127
18550,note_on,0,0,0,,2,,,86,127
18805,note_off,255,0,0,,12,,,59,127
18806,note_on,1,0,0,,2,,,62,127
18806,note_on,0,0,0,,2,,,74,127
18843,note_off,37,0,0,,2,,,86,127
18932,note_off,89,0,0,,2,,,62,127
18933,note_on,1,0,0,,0,,,60,127
19060,note_off,127,0,0,,0,,,60,127
19060,note_off,0,0,0,,2,,,74,127
19061,note_on,1,0,0,,12,,,59,127
19061,note_on,0,0,0,,2,,,74,127
19188,note_off,127,0,0,,12,,,59,127
19189,note_on,1,0,0,,10,,,57,127
19316,note_off,127,0,0,,10,,,57,127
19316,note_off,0,0,0,,2,,,74,127
19317,note_on,1,0,0,,7,,,55,127
19317,note_on,0,0,0,,2,,,86,127
19572,note_off,255,0,0,,2,,,86,127
19572,note_off,0,0,0,,7,,,55,127
19573,note_on,1,0,0,,10,,,57,127
19573,note_on,0,0,0,,2,,,74,127
19828,note_off,255,0,0,,2,,,74,127
19828,note_off,0,0,0,,10,,,57,127
19829,note_on,1,0,0,,12,,,59,127
19829,note_on,0,0,0,,2,,,74,127
20084,note_off,255,0,0,,2,,,74,127
20084,note_off,0,0,0,,12,,,59,127
20085,note_on,1,0,0,,0,,,60,127
20085,note_on,0,0,0,,3,,,75,127
20340,note_off,255,0,0,,3,,,75,127
20340,note_off,0,0,0,,0,,,60,127
20341,note_on,1,0,0,,2,,,62,127
20341,note_on,0,0,0,,5,,,77,127
20468,note_off,127,0,0,,5,,,77,127
20469,note_on,1,0,0,,7,,,79,127
20596,note_off,127,0,0,,7,,,79,127
20596,note_off,0,0,0,,2,,,62,127
20597,note_on,1,0,0,,3,,,63,127
20597,note_on,0,0,0,,5,,,77,127
20724,note_off,127,0,0,,5,,,77,127
20725,note_on,1,0,0,,3,,,75,127
20852,note_off,127,0,0,,3,,,75,127
20852,note_off,0,0,0,,3,,,63,127
20853,note_on,1,0,0,,5,,,53,127
20853,note_on,0,0,0,,2,,,74,127
21108,note_off,255,0,0,,2,,,74,127
21108,note_off,0,0,0,,5,,,53,127
21109,note_on,1,0,0,,7,,,55,127
21109,note_on,0,0,0,,0,,,72,127
21365,note_on,256,0,0,,7,,,43,127
21429,note_on,64,0,0,,12,,,71,127
21442,note_off,13,0,0,,0,,,72,127
21493,note_on,51,0,0,,0,,,72,127
21513,note_off,20,0,0,,12,,,71,127
21557,note_on,44,0,0,,12,,,71,127
21577,note_off,20,0,0,,0,,,72,127
21620,note_off,43,0,0,,7,,,43,127
21620,note_off,0,0,0,,7,,,55,127
21621,note_on,1,0,0,,0,,,48,127
21621,note_on,0,0,0,,2,,,74,127
21641,note_off,20,0,0,,12,,,71,127
21685,note_on,44,0,0,,0,,,72,127
21705,note_off,20,0,0,,2,,,74,127
21749,note_on,44,0,0,,2,,,74,127
21769,note_off,20,0,0,,0,,,72,127
21813,note_on,44,0,0,,0,,,72,127
21833,note_off,20,0,0,,2,,,74,127
21877,note_on,44,0,0,,2,,,74,127
21897,note_off,20,0,0,,0,,,72,127
21941,note_on,44,0,0,,0,,,72,127
21961,note_off,20,0,0,,2,,,74,127
22005,note_on,44,0,0,,2,,,74,127
22025,note_off,20,0,0,,0,,,72,127
22069,note_on,44,0,0,,0,,,72,127
22089,note_off,20,0,0,,2,,,74,127
22133,note_on,44,0,0,,2,,,74,127
22153,note_off,20,0,0,,0,,,72,127
22197,note_on,44,0,0,,0,,,72,127
22217,note_off,20,0,0,,2,,,74,127
22261,note_on,44,0,0,,12,,,71,127
22281,note_off,20,0,0,,0,,,72,127
22325,note_on,44,0,0,,0,,,72,127
22345,note_off,20,0,0,,12,,,71,127
22388,note_off,43,0,0,,0,,,72,127
22388,note_off,0,0,0,,0,,,48,127
22389,note_on,1,0,0,,7,,,55,127
22389,note_on,0,0,0,,2,,,74,127
22644,note_off,255,0,0,,7,,,55,127
22645,note_on,1,0,0,,5,,,65,127
22645,note_on,0,0,0,,12,,,71,127
22709,note_off,64,0,0,,2,,,74,127
22772,note_off,63,0,0,,5,,,65,127
22773,note_on,1,0,0,,3,,,63,127
22900,note_off,127,0,0,,3,,,63,127
22900,note_off,0,0,0,,12,,,71,127
22901,note_on,1,0,0,,2,,,62,127
22901,note_on,0,0,0,,12,,,71,127
23028,note_off,127,0,0,,2,,,62,127
23029,note_on,1,0,0,,0,,,60,127
23156,note_off,127,0,0,,0,,,60,127
23156,note_off,0,0,0,,12,,,71,127
23157,note_on,1,0,0,,12,,,59,127
23157,note_on,0,0,0,,2,,,74,127
23412,note_off,255,0,0,,12,,,59,127
23413,note_on,1,0,0,,5,,,65,127
23413,note_on,0,0,0,,12,,,71,127
23477,note_off,64,0,0,,2,,,74,127
23540,note_off,63,0,0,,5,,,65,127
23541,note_on,1,0,0,,3,,,63,127
23668,note_off,127,0,0,,3,,,63,127
23668,note_off,0,0,0,,12,,,71,127
23669,note_on,1,0,0,,2,,,62,127
23669,note_on,0,0,0,,12,,,71,127
23796,note_off,127,0,0,,2,,,62,127
23797,note_on,1,0,0,,0,,,60,127
23924,note_off,127,0,0,,0,,,60,127
23924,note_off,0,0,0,,12,,,71,127
23925,note_on,1,0,0,,12,,,59,127
23925,note_on,0,0,0,,5,,,77,127
24180,note_off,255,0,0,,12,,,59,127
24181,note_on,1,0,0,,8,,,68,127
24181,note_on,0,0,0,,2,,,74,127
24245,note_off,64,0,0,,5,,,77,127
24308,note_off,63,0,0,,8,,,68,127
24309,note_on,1,0,0,,7,,,67,127
24436,note_off,127,0,0,,7,,,67,127
24436,note_off,0,0,0,,2,,,74,127
24437,note_on,1,0,0,,5,,,65,127
24437,note_on,0,0,0,,2,,,74,127
24564,note_off,127,0,0,,5,,,65,127
24565,note_on,1,0,0,,3,,,63,127
24692,note_off,127,0,0,,3,,,63,127
24692,note_off,0,0,0,,2,,,74,127
24693,note_on,1,0,0,,2,,,62,127
24693,note_on,0,0,0,,5,,,77,127
24948,note_off,255,0,0,,2,,,62,127
24949,note_on,1,0,0,,8,,,68,127
24949,note_on,0,0,0,,2,,,74,127
25013,note_off,64,0,0,,5,,,77,127
25076,note_off,63,0,0,,8,,,68,127
25077,note_on,1,0,0,,7,,,67,127
25204,note_off,127,0,0,,7,,,67,127
25204,note_off,0,0,0,,2,,,74,127
25205,note_on,1,0,0,,5,,,65,127
25205,note_on,0,0,0,,2,,,74,127
25332,note_off,127,0,0,,5,,,65,127
25333,note_on,1,0,0,,3,,,63,127
25460,note_off,127,0,0,,3,,,63,127
25460,note_off,0,0,0,,2,,,74,127
25461,note_on,1,0,0,,2,,,62,127
25461,note_on,0,0,0,,5,,,77,127
25716,note_off,255,0,0,,2,,,62,127
25717,note_on,1,0,0,,5,,,65,127
25717,note_on,0,0,0,,2,,,74,127
25781,note_off,64,0,0,,5,,,77,127
25844,note_off,63,0,0,,5,,,65,127
25845,note_on,1,0,0,,3,,,63,127
25972,note_off,127,0,0,,3,,,63,127
25972,note_off,0,0,0,,2,,,74,127
25973,note_on,1,0,0,,2,,,62,127
25973,note_on,0,0,0,,2,,,74,127
26100,note_off,127,0,0,,2,,,62,127
26101,note_on,1,0,0,,0,,,60,127
26228,note_off,127,0,0,,0,,,60,127
26228,note_off,0,0,0,,2,,,74,127
26229,note_on,1,0,0,,12,,,59,127
26229,note_on,0,0,0,,2,,,86,127
26484,note_off,255,0,0,,12,,,59,127
26485,note_on,1,0,0,,2,,,62,127
26485,note_on,0,0,0,,2,,,74,127
26486,note_off,1,0,0,,2,,,86,127
26611,note_off,125,0,0,,2,,,62,127
26612,note_on,1,0,0,,0,,,60,127
26739,note_off,127,0,0,,0,,,60,127
26739,note_off,0,0,0,,2,,,74,127
26740,note_on,1,0,0,,12,,,59,127
26740,note_on,0,0,0,,2,,,74,127
26867,note_off,127,0,0,,12,,,59,127
26868,note_on,1,0,0,,10,,,57,127
26995,note_off,127,0,0,,10,,,57,127
26995,note_off,0,0,0,,2,,,74,127
26996,note_on,1,0,0,,7,,,55,127
26996,note_on,0,0,0,,2,,,86,127
27251,note_off,255,0,0,,2,,,86,127
27251,note_off,0,0,0,,7,,,55,127
27252,note_on,1,0,0,,10,,,57,127
27252,note_on,0,0,0,,2,,,74,127
27507,note_off,255,0,0,,2,,,74,127
27507,note_off,0,0,0,,10,,,57,127
27508,note_on,1,0,0,,12,,,59,127
27508,note_on,0,0,0,,2,,,74,127
27763,note_off,255,0,0,,2,,,74,127
27763,note_off,0,0,0,,12,,,59,127
27764,note_on,1,0,0,,0,,,60,127
27764,note_on,0,0,0,,3,,,75,127
28019,note_off,255,0,0,,3,,,75,127
28019,note_off,0,0,0,,0,,,60,127
28020,note_on,1,0,0,,2,,,62,127
28020,note_on,0,0,0,,5,,,77,127
28147,note_off,127,0,0,,5,,,77,127
28148,note_on,1,0,0,,7,,,79,127
28275,note_off,127,0,0,,7,,,79,127
28275,note_off,0,0,0,,2,,,62,127
28276,note_on,1,0,0,,3,,,63,127
28276,note_on,0,0,0,,5,,,77,127
28403,note_off,127,0,0,,5,,,77,127
28404,note_on,1,0,0,,3,,,75,127
28531,note_off,127,0,0,,3,,,75,127
28531,note_off,0,0,0,,3,,,63,127
28532,note_on,1,0,0,,5,,,65,127
28532,note_on,0,0,0,,2,,,74,127
28787,note_off,255,0,0,,2,,,74,127
28787,note_off,0,0,0,,5,,,65,127
28788,note_on,1,0,0,,7,,,67,127
28788,note_on,0,0,0,,0,,,72,127
29043,note_off,255,0,0,,7,,,67,127
29044,note_on,1,0,0,,5,,,65,127
29108,note_on,64,0,0,,12,,,71,127
29121,note_off,13,0,0,,0,,,72,127
29172,note_on,51,0,0,,0,,,72,127
29192,note_off,20,0,0,,12,,,71,127
29236,note_on,44,0,0,,12,,,71,127
29256,note_off,20,0,0,,0,,,72,127
29299,note_off,43,0,0,,12,,,71,127
29299,note_off,0,0,0,,5,,,65,127
29300,note_on,1,0,0,,3,,,63,127
29300,note_on,0,0,0,,3,,,75,127
29555,note_off,255,0,0,,3,,,75,127
29555,note_off,0,0,0,,3,,,63,127
29556,note_on,1,0,0,,2,,,62,127
29556,note_on,0,0,0,,5,,,77,127
29683,note_off,127,0,0,,5,,,77,127
29684,note_on,1,0,0,,7,,,79,127
29811,note_off,127,0,0,,7,,,79,127
29811,note_off,0,0,0,,2,,,62,127
29812,note_on,1,0,0,,0,,,60,127
29812,note_on,0,0,0,,5,,,77,127
29939,note_off,127,0,0,,5,,,77,127
29940,note_on,1,0,0,,3,,,75,127
30067,note_off,127,0,0,,3,,,75,127
30067,note_off,0,0,0,,0,,,60,127
30068,note_on,1,0,0,,5,,,65,127
30068,note_on,0,0,0,,2,,,74,127
30323,note_off,255,0,0,,2,,,74,127
30323,note_off,0,0,0,,5,,,65,127
30324,note_on,1,0,0,,7,,,67,127
30324,note_on,0,0,0,,0,,,72,127
30579,note_off,255,0,0,,7,,,67,127
30580,note_on,1,0,0,,5,,,65,127
30644,note_on,64,0,0,,12,,,71,127
30657,note_off,13,0,0,,0,,,72,127
30708,note_on,51,0,0,,0,,,72,127
30728,note_off,20,0,0,,12,,,71,127
30772,note_on,44,0,0,,12,,,71,127
30792,note_off,20,0,0,,0,,,72,127
30835,note_off,43,0,0,,12,,,71,127
30835,note_off,0,0,0,,5,,,65,127
30836,note_on,1,0,0,,3,,,63,127
30836,note_on,0,0,0,,0,,,84,127
30963,note_off,127,0,0,,0,,,84,127
30964,note_on,1,0,0,,7,,,79,127
31091,note_off,127,0,0,,7,,,79,127
31092,note_on,1,0,0,,3,,,75,127
31219,note_off,127,0,0,,3,,,75,127
31220,note_on,1,0,0,,0,,,72,127
31347,note_off,127,0,0,,0,,,72,127
31347,note_off,0,0,0,,3,,,63,127
31348,note_on,1,0,0,,5,,,65,127
31348,note_on,0,0,0,,8,,,80,127
31475,note_off,127,0,0,,8,,,80,127
31476,note_on,1,0,0,,0,,,72,127
31603,note_off,127,0,0,,5,,,65,127
31604,note_on,1,0,0,,7,,,55,127
31857,note_off,253,0,0,,0,,,72,127
31858,note_off,1,0,0,,7,,,55,127
31859,note_on,1,0,0,,7,,,67,127
31859,note_on,0,0,0,,0,,,72,127
31923,note_on,64,0,0,,12,,,71,127
31943,note_off,20,0,0,,0,,,72,127
31987,note_on,44,0,0,,0,,,72,127
32007,note_off,20,0,0,,12,,,71,127
32051,note_on,44,0,0,,12,,,71,127
32071,note_off,20,0,0,,0,,,72,127
32114,note_off,43,0,0,,7,,,67,127
32115,note_on,1,0,0,,5,,,65,127
32115,note_on,0,0,0,,0,,,72,127
32135,note_off,20,0,0,,12,,,71,127
32179,note_on,44,0,0,,12,,,71,127
32199,note_off,20,0,0,,0,,,72,127
32243,note_on,44,0,0,,0,,,72,127
32263,note_off,20,0,0,,12,,,71,127
32307,note_on,44,0,0,,12,,,71,127
32327,note_off,20,0,0,,0,,,72,127
32370,note_off,43,0,0,,12,,,71,127
32370,note_off,0,0,0,,5,,,65,127
32371,note_on,1,0,0,,3,,,63,127
32371,note_on,0,0,0,,0,,,84,127
32498,note_off,127,0,0,,0,,,84,127
32499,note_on,1,0,0,,7,,,79,127
32626,note_off,127,0,0,,7,,,79,127
32627,note_on,1,0,0,,3,,,75,127
32754,note_off,127,0,0,,3,,,75,127
32755,note_on,1,0,0,,0,,,72,127
32882,note_off,127,0,0,,0,,,72,127
32882,note_off,0,0,0,,3,,,63,127
32883,note_on,1,0,0,,5,,,65,127
32883,note_on,0,0,0,,8,,,80,127
33010,note_off,127,0,0,,8,,,80,127
33011,note_on,1,0,0,,0,,,72,127
33138,note_off,127,0,0,,5,,,65,127
33139,note_on,1,0,0,,7,,,55,127
33392,note_off,253,0,0,,0,,,72,127
33393,note_off,1,0,0,,7,,,55,127
33394,note_on,1,0,0,,7,,,67,127
33394,note_on,0,0,0,,0,,,72,127
33458,note_on,64,0,0,,12,,,71,127
33478,note_off,20,0,0,,0,,,72,127
33522,note_on,44,0,0,,0,,,72,127
33542,note_off,20,0,0,,12,,,71,127
33586,note_on,44,0,0,,12,,,71,127
33606,note_off,20,0,0,,0,,,72,127
33649,note_off,43,0,0,,7,,,67,127
33650,note_on,1,0,0,,5,,,65,127
33650,note_on,0,0,0,,0,,,72,127
33670,note_off,20,0,0,,12,,,71,127
33714,note_on,44,0,0,,12,,,71,127
33734,note_off,20,0,0,,0,,,72,127
33778,note_on,44,0,0,,0,,,72,127
33798,note_off,20,0,0,,12,,,71,127
33842,note_on,44,0,0,,12,,,71,127
33862,note_off,20,0,0,,0,,,72,127
33905,note_off,43,0,0,,12,,,71,127
33905,note_off,0,0,0,,5,,,65,127
33906,note_on,1,0,0,,3,,,63,127
33906,note_on,0,0,0,,0,,,84,127
34033,note_off,127,0,0,,0,,,84,127
34034,note_on,1,0,0,,7,,,79,127
34161,note_off,127,0,0,,7,,,79,127
34161,note_off,0,0,0,,3,,,63,127
34162,note_on,1,0,0,,3,,,51,127
34162,note_on,0,0,0,,3,,,75,127
34289,note_off,127,0,0,,3,,,75,127
34290,note_on,1,0,0,,0,,,72,127
34417,note_off,127,0,0,,0,,,72,127
34417,note_off,0,0,0,,3,,,51,127
34418,note_on,1,0,0,,5,,,53,127
34418,note_on,0,0,0,,8,,,80,127
34545,note_off,127,0,0,,8,,,80,127
34546,note_on,1,0,0,,0,,,72,127
34673,note_off,127,0,0,,0,,,72,127
34673,note_off,0,0,0,,5,,,53,127
34674,note_on,1,0,0,,7,,,55,127
34674,note_on,0,0,0,,7,,,67,127
34929,note_off,255,0,0,,7,,,67,127
34930,note_on,1,0,0,,0,,,72,127
34994,note_on,64,0,0,,12,,,71,127
35014,note_off,20,0,0,,0,,,72,127
35058,note_on,44,0,0,,0,,,72,127
35078,note_off,20,0,0,,12,,,71,127
35122,note_on,44,0,0,,12,,,71,127
35142,note_off,20,0,0,,0,,,72,127
35186,note_on,44,0,0,,7,,,43,127
35186,note_on,0,0,0,,0,,,72,127
35206,note_off,20,0,0,,12,,,71,127
35250,note_on,44,0,0,,12,,,71,127
35270,note_off,20,0,0,,0,,,72,127
35314,note_on,44,0,0,,10,,,69,127
35334,note_off,20,0,0,,12,,,71,127
35378,note_on,44,0,0,,12,,,71,127
35398,note_off,20,0,0,,10,,,69,127
35441,note_off,43,0,0,,12,,,71,127
35441,note_off,0,0,0,,7,,,43,127
35441,note_off,0,0,0,,7,,,55,127
35442,note_on,1,0,0,,0,,,48,127
35442,note_on,0,0,0,,0,,,72,127
36093,note_off,651,0,0,,0,,,72,127
36209,note_off,116,0,0,,0,,,48,127
36210,note_on,1,0,0,,0,,,48,127
36210,note_on,0,0,0,,7,,,79,127
36465,note_off,255,0,0,,0,,,48,127
36466,note_on,1,0,0,,7,,,55,127
36466,note_on,0,0,0,,4,,,76,127
36530,note_off,64,0,0,,7,,,79,127
36593,note_off,63,0,0,,7,,,55,127
36594,note_on,1,0,0,,5,,,53,127
36721,note_off,127,0,0,,5,,,53,127
36721,note_off,0,0,0,,4,,,76,127
36722,note_on,1,0,0,,4,,,52,127
36722,note_on,0,0,0,,4,,,76,127
36849,note_off,127,0,0,,4,,,52,127
36850,note_on,1,0,0,,2,,,50,127
36977,note_off,127,0,0,,2,,,50,127
36977,note_off,0,0,0,,4,,,76,127
36978,note_on,1,0,0,,0,,,48,127
36978,note_on,0,0,0,,7,,,79,127
37233,note_off,255,0,0,,0,,,48,127
37234,note_on,1,0,0,,7,,,55,127
37234,note_on,0,0,0,,4,,,76,127
37298,note_off,64,0,0,,7,,,79,127
37361,note_off,63,0,0,,7,,,55,127
37362,note_on,1,0,0,,5,,,53,127
37489,note_off,127,0,0,,5,,,53,127
37489,note_off,0,0,0,,4,,,76,127
37490,note_on,1,0,0,,4,,,52,127
37490,note_on,0,0,0,,4,,,76,127
37617,note_off,127,0,0,,4,,,52,127
37618,note_on,1,0,0,,2,,,50,127
37745,note_off,127,0,0,,2,,,50,127
37745,note_off,0,0,0,,4,,,76,127
37746,note_on,1,0,0,,0,,,48,127
37746,note_on,0,0,0,,7,,,79,127
38001,note_off,255,0,0,,7,,,79,127
38001,note_off,0,0,0,,0,,,48,127
38002,note_on,1,0,0,,0,,,60,127
38002,note_on,0,0,0,,8,,,80,127
38129,note_off,127,0,0,,0,,,60,127
38130,note_on,1,0,0,,11,,,58,127
38257,note_off,127,0,0,,11,,,58,127
38257,note_off,0,0,0,,8,,,80,127
38258,note_on,1,0,0,,8,,,56,127
38258,note_on,0,0,0,,11,,,82,127
38385,note_off,127,0,0,,8,,,56,127
38386,note_on,1,0,0,,7,,,55,127
38513,note_off,127,0,0,,7,,,55,127
38513,note_off,0,0,0,,11,,,82,127
38514,note_on,1,0,0,,5,,,53,127
38514,note_on,0,0,0,,8,,,80,127
38769,note_off,255,0,0,,8,,,80,127
38770,note_on,1,0,0,,7,,,79,127
39025,note_off,255,0,0,,7,,,79,127
39026,note_on,1,0,0,,5,,,77,127
39221,note_off,195,0,0,,5,,,53,127
39281,note_off,60,0,0,,5,,,77,127
39282,note_on,1,0,0,,5,,,53,127
39282,note_on,0,0,0,,0,,,84,127
39537,note_off,255,0,0,,5,,,53,127
39538,note_on,1,0,0,,0,,,60,127
39538,note_on,0,0,0,,0,,,72,127
39665,note_off,127,0,0,,0,,,60,127
39666,note_on,1,0,0,,11,,,58,127
39789,note_off,123,0,0,,0,,,84,127
39793,note_off,4,0,0,,11,,,58,127
39793,note_off,0,0,0,,0,,,72,127
39794,note_on,1,0,0,,8,,,56,127
39794,note_on,0,0,0,,0,,,72,127
39921,note_off,127,0,0,,8,,,56,127
39922,note_on,1,0,0,,7,,,55,127
40049,note_off,127,0,0,,7,,,55,127
40049,note_off,0,0,0,,0,,,72,127
40050,note_on,1,0,0,,5,,,53,127
40050,note_on,0,0,0,,0,,,84,127
40305,note_off,255,0,0,,5,,,53,127
40306,note_on,1,0,0,,0,,,60,127
40306,note_on,0,0,0,,0,,,72,127
40433,note_off,127,0,0,,0,,,60,127
40434,note_on,1,0,0,,11,,,58,127
40557,note_off,123,0,0,,0,,,84,127
40561,note_off,4,0,0,,11,,,58,127
40561,note_off,0,0,0,,0,,,72,127
40562,note_on,1,0,0,,8,,,56,127
40562,note_on,0,0,0,,0,,,72,127
40689,note_off,127,0,0,,8,,,56,127
40690,note_on,1,0,0,,7,,,55,127
40817,note_off,127,0,0,,7,,,55,127
40817,note_off,0,0,0,,0,,,72,127
40818,note_on,1,0,0,,5,,,53,127
40818,note_on,0,0,0,,0,,,72,127
41073,note_off,255,0,0,,0,,,72,127
41073,note_off,0,0,0,,5,,,53,127
41074,note_on,1,0,0,,5,,,65,127
41074,note_on,0,0,0,,1,,,73,127
41201,note_off,127,0,0,,5,,,65,127
41202,note_on,1,0,0,,3,,,63,127
41329,note_off,127,0,0,,3,,,63,127
41329,note_off,0,0,0,,1,,,73,127
41330,note_on,1,0,0,,1,,,61,127
41330,note_on,0,0,0,,3,,,75,127
41457,note_off,127,0,0,,1,,,61,127
41458,note_on,1,0,0,,0,,,60,127
41585,note_off,127,0,0,,0,,,60,127
41585,note_off,0,0,0,,3,,,75,127
41586,note_on,1,0,0,,11,,,58,127
41586,note_on,0,0,0,,1,,,73,127
41841,note_off,255,0,0,,11,,,58,127
41842,note_on,1,0,0,,0,,,60,127
41842,note_on,0,0,0,,5,,,77,127
41879,note_off,37,0,0,,1,,,73,127
41968,note_off,89,0,0,,5,,,77,127
41969,note_on,1,0,0,,10,,,69,127
42096,note_off,127,0,0,,10,,,69,127
42096,note_off,0,0,0,,0,,,60,127
42097,note_on,1,0,0,,1,,,61,127
42097,note_on,0,0,0,,11,,,70,127
42352,note_off,255,0,0,,11,,,70,127
42352,note_off,0,0,0,,1,,,61,127
42353,note_on,1,0,0,,0,,,60,127
42353,note_on,0,0,0,,3,,,75,127
42608,note_off,255,0,0,,0,,,60,127
42609,note_on,1,0,0,,11,,,58,127
42609,note_on,0,0,0,,6,,,78,127
42646,note_off,37,0,0,,3,,,75,127
42735,note_off,89,0,0,,6,,,78,127
42736,note_on,1,0,0,,11,,,70,127
42863,note_off,127,0,0,,11,,,70,127
42863,note_off,0,0,0,,11,,,58,127
42864,note_on,1,0,0,,10,,,57,127
42864,note_on,0,0,0,,0,,,72,127
43119,note_off,255,0,0,,0,,,72,127
43119,note_off,0,0,0,,10,,,57,127
43120,note_on,1,0,0,,11,,,58,127
43120,note_on,0,0,0,,1,,,73,127
43375,note_off,255,0,0,,11,,,58,127
43376,note_on,1,0,0,,0,,,60,127
43376,note_on,0,0,0,,5,,,77,127
43413,note_off,37,0,0,,1,,,73,127
43502,note_off,89,0,0,,5,,,77,127
43503,note_on,1,0,0,,10,,,69,127
43630,note_off,127,0,0,,10,,,69,127
43630,note_off,0,0,0,,0,,,60,127
43631,note_on,1,0,0,,1,,,61,127
43631,note_on,0,0,0,,11,,,70,127
43886,note_off,255,0,0,,11,,,70,127
43886,note_off,0,0,0,,1,,,61,127
43887,note_on,1,0,0,,0,,,60,127
43887,note_on,0,0,0,,3,,,75,127
44142,note_off,255,0,0,,0,,,60,127
44143,note_on,1,0,0,,11,,,58,127
44143,note_on,0,0,0,,6,,,78,127
44180,note_off,37,0,0,,3,,,75,127
44269,note_off,89,0,0,,6,,,78,127
44270,note_on,1,0,0,,11,,,70,127
44397,note_off,127,0,0,,11,,,70,127
44397,note_off,0,0,0,,11,,,58,127
44398,note_on,1,0,0,,10,,,57,127
44398,note_on,0,0,0,,0,,,72,127
44653,note_off,255,0,0,,0,,,72,127
44653,note_off,0,0,0,,10,,,57,127
44654,note_on,1,0,0,,11,,,58,127
44654,note_on,0,0,0,,1,,,73,127
44909,note_off,255,0,0,,11,,,58,127
44910,note_on,1,0,0,,0,,,60,127
44910,note_on,0,0,0,,11,,,82,127
45037,note_off,127,0,0,,11,,,82,127
45038,note_on,1,0,0,,8,,,80,127
45161,note_off,123,0,0,,1,,,73,127
45165,note_off,4,0,0,,8,,,80,127
45165,note_off,0,0,0,,0,,,60,127
45166,note_on,1,0,0,,1,,,61,127
45166,note_on,0,0,0,,7,,,79,127
45293,note_off,127,0,0,,7,,,79,127
45294,note_on,1,0,0,,5,,,77,127
45421,note_off,127,0,0,,5,,,77,127
45421,note_off,0,0,0,,1,,,61,127
45422,note_on,1,0,0,,0,,,60,127
45422,note_on,0,0,0,,4,,,76,127
45677,note_off,255,0,0,,0,,,60,127
45678,note_on,1,0,0,,2,,,62,127
45678,note_on,0,0,0,,0,,,84,127
45805,note_off,127,0,0,,0,,,84,127
45806,note_off,1,0,0,,4,,,76,127
45806,note_on,0,0,0,,11,,,82,127
45933,note_off,127,0,0,,11,,,82,127
45933,note_off,0,0,0,,2,,,62,127
45934,note_on,1,0,0,,4,,,64,127
45934,note_on,0,0,0,,8,,,80,127
46061,note_off,127,0,0,,8,,,80,127
46062,note_on,1,0,0,,7,,,79,127
46189,note_off,127,0,0,,7,,,79,127
46189,note_off,0,0,0,,4,,,64,127
46190,note_on,1,0,0,,5,,,53,127
46190,note_on,0,0,0,,8,,,80,127
46317,note_off,127,0,0,,8,,,80,127
46318,note_on,1,0,0,,5,,,77,127
46445,note_off,127,0,0,,5,,,77,127
46445,note_off,0,0,0,,5,,,53,127
46446,note_on,1,0,0,,7,,,55,127
46446,note_on,0,0,0,,7,,,79,127
46573,note_off,127,0,0,,7,,,79,127
46574,note_on,1,0,0,,4,,,76,127
46701,note_off,127,0,0,,4,,,76,127
46701,note_off,0,0,0,,7,,,55,127
46702,note_on,1,0,0,,8,,,56,127
46702,note_on,0,0,0,,5,,,77,127
46829,note_off,127,0,0,,5,,,77,127
46830,note_on,1,0,0,,0,,,72,127
46957,note_off,127,0,0,,0,,,72,127
46957,note_off,0,0,0,,8,,,56,127
46958,note_on,1,0,0,,11,,,58,127
46958,note_on,0,0,0,,1,,,73,127
47085,note_off,127,0,0,,1,,,73,127
47086,note_on,1,0,0,,0,,,72,127
47213,note_off,127,0,0,,0,,,72,127
47213,note_off,0,0,0,,11,,,58,127
47214,note_on,1,0,0,,0,,,60,127
47214,note_on,0,0,0,,11,,,70,127
47341,note_off,127,0,0,,11,,,70,127
47342,note_on,1,0,0,,8,,,68,127
47469,note_off,127,0,0,,8,,,68,127
47469,note_off,0,0,0,,0,,,60,127
47470,note_on,1,0,0,,1,,,61,127
47470,note_on,0,0,0,,7,,,67,127
47597,note_off,127,0,0,,7,,,67,127
47598,note_on,1,0,0,,5,,,65,127
47725,note_off,127,0,0,,5,,,65,127
47725,note_off,0,0,0,,1,,,61,127
47726,note_on,1,0,0,,0,,,48,127
47726,note_on,0,0,0,,5,,,65,127
47853,note_off,127,0,0,,5,,,65,127
47854,note_on,1,0,0,,4,,,64,127
47918,note_on,64,0,0,,5,,,65,127
47938,note_off,20,0,0,,4,,,64,127
47982,note_on,44,0,0,,4,,,64,127
48002,note_off,20,0,0,,5,,,65,127
48046,note_on,44,0,0,,5,,,65,127
48066,note_off,20,0,0,,4,,,64,127
48110,note_on,44,0,0,,4,,,64,127
48130,note_off,20,0,0,,5,,,65,127
48174,note_on,44,0,0,,5,,,65,127
48194,note_off,20,0,0,,4,,,64,127
48237,note_off,43,0,0,,5,,,65,127
48238,note_on,1,0,0,,4,,,64,127
48433,note_off,195,0,0,,0,,,48,127
48493,note_off,60,0,0,,4,,,64,127
48494,note_on,1,0,0,,0,,,60,127
48494,note_on,0,0,0,,4,,,76,127
48749,note_off,255,0,0,,0,,,60,127
48750,note_on,1,0,0,,7,,,67,127
48750,note_on,0,0,0,,11,,,70,127
48787,note_off,37,0,0,,4,,,76,127
48876,note_off,89,0,0,,7,,,67,127
48877,note_on,1,0,0,,5,,,65,127
49004,note_off,127,0,0,,5,,,65,127
49004,note_off,0,0,0,,11,,,70,127
49005,note_on,1,0,0,,4,,,64,127
49005,note_on,0,0,0,,11,,,70,127
49132,note_off,127,0,0,,4,,,64,127
49133,note_on,1,0,0,,2,,,62,127
49260,note_off,127,0,0,,2,,,62,127
49260,note_off,0,0,0,,11,,,70,127
49261,note_on,1,0,0,,0,,,60,127
49261,note_on,0,0,0,,4,,,76,127
49516,note_off,255,0,0,,0,,,60,127
49517,note_on,1,0,0,,7,,,67,127
49517,note_on,0,0,0,,11,,,70,127
49554,note_off,37,0,0,,4,,,76,127
49643,note_off,89,0,0,,7,,,67,127
49644,note_on,1,0,0,,5,,,65,127
49771,note_off,127,0,0,,5,,,65,127
49771,note_off,0,0,0,,11,,,70,127
49772,note_on,1,0,0,,4,,,64,127
49772,note_on,0,0,0,,11,,,70,127
49899,note_off,127,0,0,,4,,,64,127
49900,note_on,1,0,0,,2,,,62,127
50027,note_off,127,0,0,,2,,,62,127
50027,note_off,0,0,0,,11,,,70,127
50028,note_on,1,0,0,,0,,,60,127
50028,note_on,0,0,0,,7,,,79,127
50283,note_off,255,0,0,,0,,,60,127
50284,note_on,1,0,0,,11,,,70,127
50284,note_on,0,0,0,,4,,,76,127
50321,note_off,37,0,0,,7,,,79,127
50410,note_off,89,0,0,,11,,,70,127
50411,note_on,1,0,0,,8,,,68,127
50538,note_off,127,0,0,,8,,,68,127
50538,note_off,0,0,0,,4,,,76,127
50539,note_on,1,0,0,,7,,,67,127
50539,note_on,0,0,0,,4,,,76,127
50666,note_off,127,0,0,,7,,,67,127
50667,note_on,1,0,0,,5,,,65,127
50794,note_off,127,0,0,,5,,,65,127
50794,note_off,0,0,0,,4,,,76,127
50795,note_on,1,0,0,,4,,,64,127
50795,note_on,0,0,0,,7,,,79,127
51050,note_off,255,0,0,,4,,,64,127
51051,note_on,1,0,0,,11,,,70,127
51051,note_on,0,0,0,,4,,,76,127
51088,note_off,37,0,0,,7,,,79,127
51177,note_off,89,0,0,,11,,,70,127
51178,note_on,1,0,0,,8,,,68,127
51305,note_off,127,0,0,,8,,,68,127
51305,note_off,0,0,0,,4,,,76,127
51306,note_on,1,0,0,,7,,,67,127
51306,note_on,0,0,0,,4,,,76,127
51433,note_off,127,0,0,,7,,,67,127
51434,note_on,1,0,0,,5,,,65,127
51561,note_off,127,0,0,,5,,,65,127
51561,note_off,0,0,0,,4,,,76,127
51562,note_on,1,0,0,,4,,,64,127
51562,note_on,0,0,0,,7,,,79,127
51817,note_off,255,0,0,,4,,,64,127
51818,note_on,1,0,0,,7,,,67,127
51818,note_on,0,0,0,,4,,,76,127
51855,note_off,37,0,0,,7,,,79,127
51944,note_off,89,0,0,,7,,,67,127
51945,note_on,1,0,0,,5,,,65,127
52072,note_off,127,0,0,,5,,,65,127
52072,note_off,0,0,0,,4,,,76,127
52073,note_on,1,0,0,,4,,,64,127
52073,note_on,0,0,0,,4,,,76,127
52200,note_off,127,0,0,,4,,,64,127
52201,note_on,1,0,0,,2,,,62,127
52328,note_off,127,0,0,,2,,,62,127
52328,note_off,0,0,0,,4,,,76,127
52329,note_on,1,0,0,,0,,,60,127
52329,note_on,0,0,0,,7,,,79,127
52584,note_off,255,0,0,,7,,,79,127
52584,note_off,0,0,0,,0,,,60,127
52585,note_on,1,0,0,,0,,,72,127
52585,note_on,0,0,0,,8,,,80,127
52712,note_off,127,0,0,,0,,,72,127
52713,note_on,1,0,0,,11,,,70,127
52840,note_off,127,0,0,,11,,,70,127
52840,note_off,0,0,0,,8,,,80,127
52841,note_on,1,0,0,,8,,,68,127
52841,note_on,0,0,0,,11,,,82,127
52968,note_off,127,0,0,,8,,,68,127
52969,note_on,1,0,0,,7,,,67,127
53096,note_off,127,0,0,,7,,,67,127
53096,note_off,0,0,0,,11,,,82,127
53097,note_on,1,0,0,,5,,,65,127
53097,note_on,0,0,0,,8,,,80,127
53352,note_off,255,0,0,,8,,,80,127
53352,note_off,0,0,0,,5,,,65,127
53353,note_on,1,0,0,,7,,,67,127
53353,note_on,0,0,0,,11,,,82,127
53480,note_off,127,0,0,,11,,,82,127
53481,note_on,1,0,0,,0,,,84,127
53608,note_off,127,0,0,,0,,,84,127
53608,note_off,0,0,0,,7,,,67,127
53609,note_on,1,0,0,,8,,,68,127
53609,note_on,0,0,0,,11,,,82,127
53736,note_off,127,0,0,,11,,,82,127
53737,note_on,1,0,0,,8,,,80,127
53864,note_off,127,0,0,,8,,,80,127
53864,note_off,0,0,0,,8,,,68,127
53865,note_on,1,0,0,,11,,,58,127
53865,note_on,0,0,0,,7,,,79,127
54120,note_off,255,0,0,,7,,,79,127
54120,note_off,0,0,0,,11,,,58,127
54121,note_on,1,0,0,,0,,,60,127
54121,note_on,0,0,0,,5,,,77,127
54377,note_on,256,0,0,,0,,,48,127
54441,note_on,64,0,0,,4,,,76,127
54454,note_off,13,0,0,,5,,,77,127
54505,note_on,51,0,0,,5,,,77,127
54525,note_off,20,0,0,,4,,,76,127
54569,note_on,44,0,0,,4,,,76,127
54589,note_off,20,0,0,,5,,,77,127
54632,note_off,43,0,0,,0,,,48,127
54632,note_off,0,0,0,,0,,,60,127
54633,note_on,1,0,0,,5,,,53,127
54633,note_on,0,0,0,,7,,,79,127
54653,note_off,20,0,0,,4,,,76,127
54697,note_on,44,0,0,,5,,,77,127
54717,note_off,20,0,0,,7,,,79,127
54761,note_on,44,0,0,,7,,,79,127
54781,note_off,20,0,0,,5,,,77,127
54825,note_on,44,0,0,,5,,,77,127
54845,note_off,20,0,0,,7,,,79,127
54889,note_on,44,0,0,,7,,,79,127
54909,note_off,20,0,0,,5,,,77,127
54953,note_on,44,0,0,,5,,,77,127
54973,note_off,20,0,0,,7,,,79,127
55017,note_on,44,0,0,,7,,,79,127
55037,note_off,20,0,0,,5,,,77,127
55081,note_on,44,0,0,,5,,,77,127
55101,note_off,20,0,0,,7,,,79,127
55145,note_on,44,0,0,,7,,,79,127
55165,note_off,20,0,0,,5,,,77,127
55209,note_on,44,0,0,,5,,,77,127
55229,note_off,20,0,0,,7,,,79,127
55273,note_on,44,0,0,,4,,,76,127
55293,note_off,20,0,0,,5,,,77,127
55337,note_on,44,0,0,,5,,,77,127
55357,note_off,20,0,0,,4,,,76,127
55400,note_off,43,0,0,,5,,,77,127
55400,note_off,0,0,0,,5,,,53,127
55401,note_on,1,0,0,,0,,,60,127
55401,note_on,0,0,0,,4,,,76,127
55656,note_off,255,0,0,,0,,,60,127
55657,note_on,1,0,0,,7,,,67,127
55657,note_on,0,0,0,,11,,,70,127
55694,note_off,37,0,0,,4,,,76,127
55783,note_off,89,0,0,,7,,,67,127
55784,note_on,1,0,0,,5,,,65,127
55911,note_off,127,0,0,,5,,,65,127
55911,note_off,0,0,0,,11,,,70,127
55912,note_on,1,0,0,,4,,,64,127
55912,note_on,0,0,0,,11,,,70,127
56039,note_off,127,0,0,,4,,,64,127
56040,note_on,1,0,0,,2,,,62,127
56167,note_off,127,0,0,,2,,,62,127
56167,note_off,0,0,0,,11,,,70,127
56168,note_on,1,0,0,,0,,,60,127
56168,note_on,0,0,0,,4,,,76,127
56423,note_off,255,0,0,,0,,,60,127
56424,note_on,1,0,0,,7,,,67,127
56424,note_on,0,0,0,,11,,,70,127
56461,note_off,37,0,0,,4,,,76,127
56550,note_off,89,0,0,,7,,,67,127
56551,note_on,1,0,0,,5,,,65,127
56678,note_off,127,0,0,,5,,,65,127
56678,note_off,0,0,0,,11,,,70,127
56679,note_on,1,0,0,,4,,,64,127
56679,note_on,0,0,0,,11,,,70,127
56806,note_off,127,0,0,,4,,,64,127
56807,note_on,1,0,0,,2,,,62,127
56934,note_off,127,0,0,,2,,,62,127
56934,note_off,0,0,0,,11,,,70,127
56935,note_on,1,0,0,,0,,,60,127
56935,note_on,0,0,0,,7,,,79,127
57190,note_off,255,0,0,,0,,,60,127
57191,note_on,1,0,0,,7,,,67,127
57191,note_on,0,0,0,,4,,,76,127
57228,note_off,37,0,0,,7,,,79,127
57317,note_off,89,0,0,,7,,,67,127
57318,note_on,1,0,0,,5,,,65,127
57445,note_off,127,0,0,,5,,,65,127
57445,note_off,0,0,0,,4,,,76,127
57446,note_on,1,0,0,,4,,,64,127
57446,note_on,0,0,0,,4,,,76,127
57573,note_off,127,0,0,,4,,,64,127
57574,note_on,1,0,0,,2,,,62,127
57701,note_off,127,0,0,,2,,,62,127
57701,note_off,0,0,0,,4,,,76,127
57702,note_on,1,0,0,,4,,,64,127
57702,note_on,0,0,0,,7,,,79,127
57957,note_off,255,0,0,,4,,,64,127
57958,note_on,1,0,0,,11,,,70,127
57958,note_on,0,0,0,,4,,,76,127
57995,note_off,37,0,0,,7,,,79,127
58084,note_off,89,0,0,,11,,,70,127
58085,note_on,1,0,0,,8,,,68,127
58212,note_off,127,0,0,,8,,,68,127
58212,note_off,0,0,0,,4,,,76,127
58213,note_on,1,0,0,,7,,,67,127
58213,note_on,0,0,0,,4,,,76,127
58340,note_off,127,0,0,,7,,,67,127
58341,note_on,1,0,0,,5,,,65,127
58468,note_off,127,0,0,,5,,,65,127
58468,note_off,0,0,0,,4,,,76,127
58469,note_on,1,0,0,,4,,,64,127
58469,note_on,0,0,0,,7,,,79,127
58724,note_off,255,0,0,,4,,,64,127
58725,note_on,1,0,0,,7,,,67,127
58725,note_on,0,0,0,,4,,,76,127
58762,note_off,37,0,0,,7,,,79,127
58851,note_off,89,0,0,,7,,,67,127
58852,note_on,1,0,0,,5,,,65,127
58979,note_off,127,0,0,,5,,,65,127
58979,note_off,0,0,0,,4,,,76,127
58980,note_on,1,0,0,,4,,,64,127
58980,note_on,0,0,0,,4,,,76,127
59107,note_off,127,0,0,,4,,,64,127
59108,note_on,1,0,0,,2,,,62,127
59235,note_off,127,0,0,,2,,,62,127
59235,note_off,0,0,0,,4,,,76,127
59236,note_on,1,0,0,,0,,,60,127
59236,note_on,0,0,0,,7,,,79,127
59491,note_off,255,0,0,,7,,,79,127
59491,note_off,0,0,0,,0,,,60,127
59492,note_on,1,0,0,,0,,,72,127
59492,note_on,0,0,0,,8,,,80,127
59619,note_off,127,0,0,,0,,,72,127
59620,note_on,1,0,0,,11,,,70,127
59747,note_off,127,0,0,,11,,,70,127
59747,note_off,0,0,0,,8,,,80,127
59748,note_on,1,0,0,,8,,,68,127
59748,note_on,0,0,0,,11,,,82,127
59875,note_off,127,0,0,,8,,,68,127
59876,note_on,1,0,0,,7,,,67,127
60003,note_off,127,0,0,,7,,,67,127
60003,note_off,0,0,0,,11,,,82,127
60004,note_on,1,0,0,,5,,,65,127
60004,note_on,0,0,0,,8,,,80,127
60259,note_off,255,0,0,,8,,,80,127
60259,note_off,0,0,0,,5,,,65,127
60260,note_on,1,0,0,,7,,,67,127
60260,note_on,0,0,0,,11,,,82,127
60387,note_off,127,0,0,,11,,,82,127
60388,note_on,1,0,0,,0,,,84,127
60515,note_off,127,0,0,,0,,,84,127
60515,note_off,0,0,0,,7,,,67,127
60516,note_on,1,0,0,,8,,,68,127
60516,note_on,0,0,0,,11,,,82,127
60643,note_off,127,0,0,,11,,,82,127
60644,note_on,1,0,0,,8,,,80,127
60771,note_off,127,0,0,,8,,,80,127
60771,note_off,0,0,0,,8,,,68,127
60772,note_on,1,0,0,,11,,,70,127
60772,note_on,0,0,0,,7,,,79,127
61027,note_off,255,0,0,,7,,,79,127
61027,note_off,0,0,0,,11,,,70,127
61028,note_on,1,0,0,,0,,,72,127
61028,note_on,0,0,0,,5,,,77,127
61283,note_off,255,0,0,,0,,,72,127
61284,note_on,1,0,0,,11,,,70,127
61348,note_on,64,0,0,,4,,,76,127
61361,note_off,13,0,0,,5,,,77,127
61412,note_on,51,0,0,,5,,,77,127
61432,note_off,20,0,0,,4,,,76,127
61476,note_on,44,0,0,,4,,,76,127
61496,note_off,20,0,0,,5,,,77,127
61539,note_off,43,0,0,,4,,,76,127
61539,note_off,0,0,0,,11,,,70,127
61540,note_on,1,0,0,,8,,,68,127
61540,note_on,0,0,0,,8,,,80,127
61795,note_off,255,0,0,,8,,,80,127
61795,note_off,0,0,0,,8,,,68,127
61796,note_on,1,0,0,,7,,,67,127
61796,note_on,0,0,0,,11,,,82,127
61923,note_off,127,0,0,,11,,,82,127
61924,note_on,1,0,0,,0,,,84,127
62051,note_off,127,0,0,,0,,,84,127
62051,note_off,0,0,0,,7,,,67,127
62052,note_on,1,0,0,,5,,,65,127
62052,note_on,0,0,0,,11,,,82,127
62179,note_off,127,0,0,,11,,,82,127
62180,note_on,1,0,0,,8,,,80,127
62307,note_off,127,0,0,,8,,,80,127
62307,note_off,0,0,0,,5,,,65,127
62308,note_on,1,0,0,,11,,,70,127
62308,note_on,0,0,0,,7,,,79,127
62563,note_off,255,0,0,,7,,,79,127
62563,note_off,0,0,0,,11,,,70,127
62564,note_on,1,0,0,,0,,,72,127
62564,note_on,0,0,0,,5,,,77,127
62819,note_off,255,0,0,,5,,,77,127
62819,note_off,0,0,0,,0,,,72,127
62820,note_on,1,0,0,,11,,,70,127
62820,note_on,0,0,0,,5,,,77,127
62884,note_on,64,0,0,,4,,,76,127
62904,note_off,20,0,0,,5,,,77,127
62948,note_on,44,0,0,,5,,,77,127
62968,note_off,20,0,0,,4,,,76,127
63012,note_on,44,0,0,,4,,,76,127
63032,note_off,20,0,0,,5,,,77,127
63075,note_off,43,0,0,,4,,,76,127
63075,note_off,0,0,0,,11,,,70,127
63076,note_on,1,0,0,,8,,,56,127
63076,note_on,0,0,0,,5,,,77,127
63203,note_off,127,0,0,,5,,,77,127
63204,note_on,1,0,0,,0,,,72,127
63331,note_off,127,0,0,,0,,,72,127
63332,note_on,1,0,0,,8,,,68,127
63459,note_off,127,0,0,,8,,,68,127
63460,note_on,1,0,0,,5,,,65,127
63587,note_off,127,0,0,,5,,,65,127
63587,note_off,0,0,0,,8,,,56,127
63588,note_on,1,0,0,,11,,,58,127
63588,note_on,0,0,0,,1,,,73,127
63715,note_off,127,0,0,,1,,,73,127
63716,note_on,1,0,0,,5,,,65,127
63843,note_off,127,0,0,,5,,,65,127
63843,note_off,0,0,0,,11,,,58,127
63844,note_on,1,0,0,,0,,,48,127
63844,note_on,0,0,0,,0,,,60,127
64097,note_off,253,0,0,,0,,,60,127
64098,note_off,1,0,0,,0,,,48,127
64099,note_on,1,0,0,,0,,,60,127
64099,note_on,0,0,0,,5,,,65,127
64163,note_on,64,0,0,,4,,,64,127
64183,note_off,20,0,0,,5,,,65,127
64227,note_on,44,0,0,,5,,,65,127
64247,note_off,20,0,0,,4,,,64,127
64291,note_on,44,0,0,,4,,,64,127
64311,note_off,20,0,0,,5,,,65,127
64354,note_off,43,0,0,,0,,,60,127
64355,note_on,1,0,0,,11,,,58,127
64355,note_on,0,0,0,,5,,,65,127
64375,note_off,20,0,0,,4,,,64,127
64419,note_on,44,0,0,,4,,,64,127
64439,note_off,20,0,0,,5,,,65,127
64483,note_on,44,0,0,,5,,,65,127
64503,note_off,20,0,0,,4,,,64,127
64547,note_on,44,0,0,,4,,,64,127
64567,note_off,20,0,0,,5,,,65,127
64610,note_off,43,0,0,,4,,,64,127
64610,note_off,0,0,0,,11,,,58,127
64611,note_on,1,0,0,,8,,,56,127
64611,note_on,0,0,0,,5,,,77,127
64738,note_off,127,0,0,,5,,,77,127
64739,note_on,1,0,0,,0,,,72,127
64866,note_off,127,0,0,,0,,,72,127
64867,note_on,1,0,0,,8,,,68,127
64994,note_off,127,0,0,,8,,,68,127
64995,note_on,1,0,0,,5,,,65,127
65122,note_off,127,0,0,,5,,,65,127
65122,note_off,0,0,0,,8,,,56,127
65123,note_on,1,0,0,,11,,,58,127
65123,note_on,0,0,0,,1,,,73,127
65250,note_off,127,0,0,,1,,,73,127
65251,note_on,1,0,0,,5,,,65,127
65378,note_off,127,0,0,,11,,,58,127
65379,note_on,1,0,0,,0,,,48,127
65632,note_off,253,0,0,,5,,,65,127
65633,note_off,1,0,0,,0,,,48,127
65634,note_on,1,0,0,,0,,,60,127
65634,note_on,0,0,0,,5,,,65,127
65698,note_on,64,0,0,,4,,,64,127
65718,note_off,20,0,0,,5,,,65,127
65762,note_on,44,0,0,,5,,,65,127
65782,note_off,20,0,0,,4,,,64,127
65826,note_on,44,0,0,,4,,,64,127
65846,note_off,20,0,0,,5,,,65,127
65889,note_off,43,0,0,,0,,,60,127
65890,note_on,1,0,0,,11,,,58,127
65890,note_on,0,0,0,,5,,,65,127
65910,note_off,20,0,0,,4,,,64,127
65954,note_on,44,0,0,,4,,,64,127
65974,note_off,20,0,0,,5,,,65,127
66018,note_on,44,0,0,,5,,,65,127
66038,note_off,20,0,0,,4,,,64,127
66082,note_on,44,0,0,,4,,,64,127
66102,note_off,20,0,0,,5,,,65,127
66145,note_off,43,0,0,,4,,,64,127
66145,note_off,0,0,0,,11,,,58,127
66146,note_on,1,0,0,,8,,,56,127
66146,note_on,0,0,0,,0,,,84,127
66273,note_off,127,0,0,,0,,,84,127
66274,note_on,1,0,0,,4,,,76,127
66401,note_off,127,0,0,,4,,,76,127
66401,note_off,0,0,0,,8,,,56,127
66402,note_on,1,0,0,,8,,,44,127
66402,note_on,0,0,0,,5,,,77,127
66529,note_off,127,0,0,,5,,,77,127
66530,note_on,1,0,0,,0,,,72,127
66657,note_off,127,0,0,,0,,,72,127
66657,note_off,0,0,0,,8,,,44,127
66658,note_on,1,0,0,,11,,,46,127
66658,note_on,0,0,0,,1,,,73,127
66785,note_off,127,0,0,,1,,,73,127
66786,note_on,1,0,0,,11,,,70,127
66913,note_off,127,0,0,,11,,,70,127
66913,note_off,0,0,0,,11,,,46,127
66914,note_on,1,0,0,,0,,,48,127
66914,note_on,0,0,0,,8,,,68,127
66998,note_off,84,0,0,,8,,,68,127
66999,note_on,1,0,0,,7,,,67,127
67083,note_off,84,0,0,,7,,,67,127
67084,note_on,1,0,0,,5,,,65,127
67168,note_off,84,0,0,,5,,,65,127
67169,note_on,1,0,0,,5,,,65,127
67425,note_on,256,0,0,,0,,,36,127
67489,note_on,64,0,0,,4,,,64,127
67502,note_off,13,0,0,,5,,,65,127
67553,note_on,51,0,0,,2,,,62,127
67573,note_off,20,0,0,,4,,,64,127
67617,note_on,44,0,0,,4,,,64,127
67637,note_off,20,0,0,,2,,,62,127
67680,note_off,43,0,0,,4,,,64,127
67680,note_off,0,0,0,,0,,,36,127
67680,note_off,0,0,0,,0,,,48,127
67695,note_on,15,0,0,,5,,,41,127
67695,note_on,0,0,0,,5,,,65,127
69730,note_off,2035,0,0,,5,,,65,127
69730,note_off,0,0,0,,5,,,41,127
70656,end_of_track,926,1,0,,,,,,
