tick,type,time,meta,track,program,channel,pitch,tempo,note,velocity
0,copyright,0,1,0,,,,,,
0,program_change,0,0,0,6,0,,,,
0,pitchwheel,0,0,0,,0,0,,,
0,program_change,0,0,0,6,1,,,,
0,pitchwheel,0,0,0,,1,-590,,,
0,program_change,0,0,0,6,2,,,,
0,pitchwheel,0,0,0,,2,-272,,,
0,program_change,0,0,0,6,3,,,,
0,pitchwheel,0,0,0,,3,-353,,,
0,program_change,0,0,0,6,4,,,,
0,pitchwheel,0,0,0,,4,-560,,,
0,program_change,0,0,0,6,5,,,,
0,pitchwheel,0,0,0,,5,-80,,,
0,program_change,0,0,0,6,6,,,,
0,pitchwheel,0,0,0,,6,-625,,,
0,program_change,0,0,0,6,7,,,,
0,pitchwheel,0,0,0,,7,-130,,,
0,program_change,0,0,0,6,8,,,,
0,pitchwheel,0,0,0,,8,-512,,,
0,program_change,0,0,0,6,10,,,,
0,pitchwheel,0,0,0,,10,-464,,,
0,program_change,0,0,0,6,11,,,,
0,pitchwheel,0,0,0,,11,-208,,,
0,program_change,0,0,0,6,12,,,,
0,pitchwheel,0,0,0,,12,-553,,,
0,set_tempo,0,1,0,,,,500000,,
121,note_on,121,0,0,,5,,,53,127
121,note_on,0,0,0,,7,,,79,127
180,note_off,59,0,0,,7,,,79,127
181,note_on,1,0,0,,5,,,77,127
240,note_off,59,0,0,,5,,,77,127
240,note_off,0,0,0,,5,,,53,127
241,note_on,1,0,0,,4,,,52,127
241,note_on,0,0,0,,7,,,79,127
300,note_off,59,0,0,,7,,,79,127
301,note_on,1,0,0,,5,,,77,127
360,note_off,59,0,0,,5,,,77,127
360,note_off,0,0,0,,4,,,52,127
361,note_on,1,0,0,,5,,,53,127
361,note_on,0,0,0,,7,,,79,127
420,note_off,59,0,0,,7,,,79,127
421,note_on,1,0,0,,5,,,77,127
480,note_off,59,0,0,,5,,,77,127
480,note_off,0,0,0,,5,,,53,127
481,note_on,1,0,0,,7,,,55,127
481,note_on,0,0,0,,7,,,79,127
540,note_off,59,0,0,,7,,,79,127
541,note_on,1,0,0,,5,,,77,127
600,note_off,59,0,0,,5,,,77,127
600,note_off,0,0,0,,7,,,55,127
601,note_on,1,0,0,,8,,,56,127
601,note_on,0,0,0,,7,,,79,127
660,note_off,59,0,0,,7,,,79,127
661,note_on,1,0,0,,5,,,77,127
720,note_off,59,0,0,,5,,,77,127
720,note_off,0,0,0,,8,,,56,127
721,note_on,1,0,0,,11,,,58,127
721,note_on,0,0,0,,7,,,79,127
780,note_off,59,0,0,,7,,,79,127
781,note_on,1,0,0,,5,,,77,127
840,note_off,59,0,0,,5,,,77,127
840,note_off,0,0,0,,11,,,58,127
841,note_on,1,0,0,,0,,,60,127
841,note_on,0,0,0,,5,,,77,127
900,note_off,59,0,0,,5,,,77,127
901,note_on,1,0,0,,3,,,75,127
960,note_off,59,0,0,,3,,,75,127
960,note_off,0,0,0,,0,,,60,127
961,note_on,1,0,0,,3,,,63,127
961,note_on,0,0,0,,5,,,77,127
1020,note_off,59,0,0,,5,,,77,127
1021,note_on,1,0,0,,3,,,75,127
1080,note_off,59,0,0,,3,,,75,127
1080,note_off,0,0,0,,3,,,63,127
1081,note_on,1,0,0,,8,,,56,127
1081,note_on,0,0,0,,5,,,77,127
1140,note_off,59,0,0,,5,,,77,127
1141,note_on,1,0,0,,3,,,75,127
1200,note_off,59,0,0,,3,,,75,127
1200,note_off,0,0,0,,8,,,56,127
1201,note_on,1,0,0,,0,,,60,127
1201,note_on,0,0,0,,5,,,77,127
1260,note_off,59,0,0,,5,,,77,127
1261,note_on,1,0,0,,3,,,75,127
1320,note_off,59,0,0,,3,,,75,127
1320,note_off,0,0,0,,0,,,60,127
1321,note_on,1,0,0,,5,,,53,127
1321,note_on,0,0,0,,5,,,77,127
1380,note_off,59,0,0,,5,,,77,127
1381,note_on,1,0,0,,3,,,75,127
1440,note_off,59,0,0,,3,,,75,127
1440,note_off,0,0,0,,5,,,53,127
1441,note_on,1,0,0,,8,,,56,127
1441,note_on,0,0,0,,5,,,77,127
1500,note_off,59,0,0,,5,,,77,127
1501,note_on,1,0,0,,3,,,75,127
1560,note_off,59,0,0,,3,,,75,127
1560,note_off,0,0,0,,8,,,56,127
1561,note_on,1,0,0,,11,,,58,127
1561,note_on,0,0,0,,3,,,75,127
1620,note_off,59,0,0,,3,,,75,127
1621,note_on,1,0,0,,1,,,73,127
1680,note_off,59,0,0,,1,,,73,127
1680,note_off,0,0,0,,11,,,58,127
1681,note_on,1,0,0,,1,,,61,127
1681,note_on,0,0,0,,3,,,75,127
1740,note_off,59,0,0,,3,,,75,127
1741,note_on,1,0,0,,1,,,73,127
1800,note_off,59,0,0,,1,,,73,127
1800,note_off,0,0,0,,1,,,61,127
1801,note_on,1,0,0,,7,,,55,127
1801,note_on,0,0,0,,3,,,75,127
1860,note_off,59,0,0,,3,,,75,127
1861,note_on,1,0,0,,1,,,73,127
1920,note_off,59,0,0,,1,,,73,127
1920,note_off,0,0,0,,7,,,55,127
1921,note_on,1,0,0,,11,,,58,127
1921,note_on,0,0,0,,3,,,75,127
1980,note_off,59,0,0,,3,,,75,127
1981,note_on,1,0,0,,1,,,73,127
2040,note_off,59,0,0,,1,,,73,127
2040,note_off,0,0,0,,11,,,58,127
2041,note_on,1,0,0,,3,,,51,127
2041,note_on,0,0,0,,3,,,75,127
2100,note_off,59,0,0,,3,,,75,127
2101,note_on,1,0,0,,1,,,73,127
2160,note_off,59,0,0,,1,,,73,127
2160,note_off,0,0,0,,3,,,51,127
2161,note_on,1,0,0,,7,,,55,127
2161,note_on,0,0,0,,3,,,75,127
2220,note_off,59,0,0,,3,,,75,127
2221,note_on,1,0,0,,1,,,73,127
2280,note_off,59,0,0,,1,,,73,127
2280,note_off,0,0,0,,7,,,55,127
2281,note_on,1,0,0,,8,,,56,127
2281,note_on,0,0,0,,1,,,73,127
2340,note_off,59,0,0,,1,,,73,127
2341,note_on,1,0,0,,0,,,72,127
2400,note_off,59,0,0,,0,,,72,127
2400,note_off,0,0,0,,8,,,56,127
2401,note_on,1,0,0,,0,,,60,127
2401,note_on,0,0,0,,1,,,73,127
2460,note_off,59,0,0,,1,,,73,127
2461,note_on,1,0,0,,0,,,72,127
2520,note_off,59,0,0,,0,,,72,127
2520,note_off,0,0,0,,0,,,60,127
2521,note_on,1,0,0,,5,,,53,127
2521,note_on,0,0,0,,1,,,73,127
2580,note_off,59,0,0,,1,,,73,127
2581,note_on,1,0,0,,0,,,72,127
2640,note_off,59,0,0,,0,,,72,127
2640,note_off,0,0,0,,5,,,53,127
2641,note_on,1,0,0,,8,,,56,127
2641,note_on,0,0,0,,1,,,73,127
2700,note_off,59,0,0,,1,,,73,127
2701,note_on,1,0,0,,0,,,72,127
2760,note_off,59,0,0,,0,,,72,127
2760,note_off,0,0,0,,8,,,56,127
2761,note_on,1,0,0,,1,,,49,127
2761,note_on,0,0,0,,1,,,73,127
2820,note_off,59,0,0,,1,,,73,127
2821,note_on,1,0,0,,0,,,72,127
2880,note_off,59,0,0,,0,,,72,127
2880,note_off,0,0,0,,1,,,49,127
2881,note_on,1,0,0,,5,,,53,127
2881,note_on,0,0,0,,1,,,73,127
2940,note_off,59,0,0,,1,,,73,127
2941,note_on,1,0,0,,0,,,72,127
3000,note_off,59,0,0,,0,,,72,127
3000,note_off,0,0,0,,5,,,53,127
3001,note_on,1,0,0,,7,,,55,127
3001,note_on,0,0,0,,0,,,72,127
3060,note_off,59,0,0,,0,,,72,127
3061,note_on,1,0,0,,11,,,70,127
3120,note_off,59,0,0,,11,,,70,127
3120,note_off,0,0,0,,7,,,55,127
3121,note_on,1,0,0,,11,,,58,127
3121,note_on,0,0,0,,0,,,72,127
3180,note_off,59,0,0,,0,,,72,127
3181,note_on,1,0,0,,11,,,70,127
3240,note_off,59,0,0,,11,,,70,127
3240,note_off,0,0,0,,11,,,58,127
3241,note_on,1,0,0,,4,,,52,127
3241,note_on,0,0,0,,0,,,72,127
3300,note_off,59,0,0,,0,,,72,127
3301,note_on,1,0,0,,11,,,70,127
3360,note_off,59,0,0,,11,,,70,127
3360,note_off,0,0,0,,4,,,52,127
3361,note_on,1,0,0,,7,,,55,127
3361,note_on,0,0,0,,0,,,72,127
3420,note_off,59,0,0,,0,,,72,127
3421,note_on,1,0,0,,11,,,70,127
3480,note_off,59,0,0,,11,,,70,127
3480,note_off,0,0,0,,7,,,55,127
3481,note_on,1,0,0,,0,,,48,127
3481,note_on,0,0,0,,0,,,72,127
3540,note_off,59,0,0,,0,,,72,127
3541,note_on,1,0,0,,11,,,70,127
3600,note_off,59,0,0,,11,,,70,127
3600,note_off,0,0,0,,0,,,48,127
3601,note_on,1,0,0,,4,,,52,127
3601,note_on,0,0,0,,0,,,72,127
3660,note_off,59,0,0,,0,,,72,127
3661,note_on,1,0,0,,11,,,70,127
3720,note_off,59,0,0,,11,,,70,127
3720,note_off,0,0,0,,4,,,52,127
3721,note_on,1,0,0,,5,,,53,127
3721,note_on,0,0,0,,11,,,70,127
3780,note_off,59,0,0,,11,,,70,127
3781,note_on,1,0,0,,8,,,68,127
3840,note_off,59,0,0,,8,,,68,127
3841,note_on,1,0,0,,7,,,67,127
3961,note_off,120,0,0,,7,,,67,127
3961,note_off,0,0,0,,5,,,53,127
3962,note_on,1,0,0,,7,,,55,127
3962,note_on,0,0,0,,8,,,68,127
4082,note_off,120,0,0,,8,,,68,127
4083,note_on,1,0,0,,11,,,70,127
4203,note_off,120,0,0,,11,,,70,127
4203,note_off,0,0,0,,7,,,55,127
4204,note_on,1,0,0,,8,,,56,127
4204,note_on,0,0,0,,0,,,72,127
4324,note_off,120,0,0,,0,,,72,127
4325,note_on,1,0,0,,5,,,65,127
4445,note_off,120,0,0,,5,,,65,127
4445,note_off,0,0,0,,8,,,56,127
4446,note_on,1,0,0,,11,,,58,127
4446,note_on,0,0,0,,7,,,67,127
4566,note_off,120,0,0,,7,,,67,127
4567,note_on,1,0,0,,11,,,70,127
4687,note_off,120,0,0,,11,,,70,127
4687,note_off,0,0,0,,11,,,58,127
4688,note_on,1,0,0,,0,,,60,127
4688,note_on,0,0,0,,8,,,68,127
4808,note_off,120,0,0,,8,,,68,127
4809,note_on,1,0,0,,7,,,67,127
4929,note_off,120,0,0,,7,,,67,127
4930,note_on,1,0,0,,0,,,48,127
4930,note_on,0,0,0,,5,,,65,127
5050,note_off,120,0,0,,5,,,65,127
5051,note_off,1,0,0,,0,,,60,127
5051,note_on,0,0,0,,4,,,64,127
5171,note_off,120,0,0,,4,,,64,127
5171,note_off,0,0,0,,0,,,48,127
5172,note_on,1,0,0,,5,,,41,127
5172,note_on,0,0,0,,4,,,64,127
5656,note_off,484,0,0,,4,,,64,127
5657,note_on,1,0,0,,5,,,65,127
5778,note_off,121,0,0,,5,,,41,127
5898,note_off,120,0,0,,5,,,65,127
5899,note_on,1,0,0,,5,,,53,127
5899,note_on,0,0,0,,7,,,79,127
5958,note_off,59,0,0,,7,,,79,127
5959,note_on,1,0,0,,5,,,77,127
6018,note_off,59,0,0,,5,,,77,127
6018,note_off,0,0,0,,5,,,53,127
6019,note_on,1,0,0,,4,,,52,127
6019,note_on,0,0,0,,7,,,79,127
6078,note_off,59,0,0,,7,,,79,127
6079,note_on,1,0,0,,5,,,77,127
6138,note_off,59,0,0,,5,,,77,127
6138,note_off,0,0,0,,4,,,52,127
6139,note_on,1,0,0,,5,,,53,127
6139,note_on,0,0,0,,7,,,79,127
6198,note_off,59,0,0,,7,,,79,127
6199,note_on,1,0,0,,5,,,77,127
6258,note_off,59,0,0,,5,,,77,127
6258,note_off,0,0,0,,5,,,53,127
6259,note_on,1,0,0,,7,,,55,127
6259,note_on,0,0,0,,7,,,79,127
6318,note_off,59,0,0,,7,,,79,127
6319,note_on,1,0,0,,5,,,77,127
6378,note_off,59,0,0,,5,,,77,127
6378,note_off,0,0,0,,7,,,55,127
6379,note_on,1,0,0,,8,,,56,127
6379,note_on,0,0,0,,7,,,79,127
6438,note_off,59,0,0,,7,,,79,127
6439,note_on,1,0,0,,5,,,77,127
6498,note_off,59,0,0,,5,,,77,127
6498,note_off,0,0,0,,8,,,56,127
6499,note_on,1,0,0,,11,,,58,127
6499,note_on,0,0,0,,7,,,79,127
6558,note_off,59,0,0,,7,,,79,127
6559,note_on,1,0,0,,5,,,77,127
6618,note_off,59,0,0,,5,,,77,127
6618,note_off,0,0,0,,11,,,58,127
6619,note_on,1,0,0,,0,,,60,127
6619,note_on,0,0,0,,5,,,77,127
6678,note_off,59,0,0,,5,,,77,127
6679,note_on,1,0,0,,3,,,75,127
6738,note_off,59,0,0,,3,,,75,127
6738,note_off,0,0,0,,0,,,60,127
6739,note_on,1,0,0,,3,,,63,127
6739,note_on,0,0,0,,5,,,77,127
6798,note_off,59,0,0,,5,,,77,127
6799,note_on,1,0,0,,3,,,75,127
6858,note_off,59,0,0,,3,,,75,127
6858,note_off,0,0,0,,3,,,63,127
6859,note_on,1,0,0,,8,,,56,127
6859,note_on,0,0,0,,5,,,77,127
6918,note_off,59,0,0,,5,,,77,127
6919,note_on,1,0,0,,3,,,75,127
6978,note_off,59,0,0,,3,,,75,127
6978,note_off,0,0,0,,8,,,56,127
6979,note_on,1,0,0,,0,,,60,127
6979,note_on,0,0,0,,5,,,77,127
7038,note_off,59,0,0,,5,,,77,127
7039,note_on,1,0,0,,3,,,75,127
7098,note_off,59,0,0,,3,,,75,127
7098,note_off,0,0,0,,0,,,60,127
7099,note_on,1,0,0,,5,,,53,127
7099,note_on,0,0,0,,0,,,84,127
7219,note_off,120,0,0,,5,,,53,127
7220,note_on,1,0,0,,8,,,56,127
7340,note_off,120,0,0,,8,,,56,127
7340,note_off,0,0,0,,0,,,84,127
7341,note_on,1,0,0,,11,,,58,127
7341,note_on,0,0,0,,3,,,75,127
7400,note_off,59,0,0,,3,,,75,127
7401,note_on,1,0,0,,1,,,73,127
7460,note_off,59,0,0,,1,,,73,127
7460,note_off,0,0,0,,11,,,58,127
7461,note_on,1,0,0,,1,,,61,127
7461,note_on,0,0,0,,3,,,75,127
7520,note_off,59,0,0,,3,,,75,127
7521,note_on,1,0,0,,1,,,73,127
7580,note_off,59,0,0,,1,,,73,127
7580,note_off,0,0,0,,1,,,61,127
7581,note_on,1,0,0,,7,,,55,127
7581,note_on,0,0,0,,3,,,75,127
7640,note_off,59,0,0,,3,,,75,127
7641,note_on,1,0,0,,1,,,73,127
7700,note_off,59,0,0,,1,,,73,127
7700,note_off,0,0,0,,7,,,55,127
7701,note_on,1,0,0,,11,,,58,127
7701,note_on,0,0,0,,3,,,75,127
7760,note_off,59,0,0,,3,,,75,127
7761,note_on,1,0,0,,1,,,73,127
7820,note_off,59,0,0,,1,,,73,127
7820,note_off,0,0,0,,11,,,58,127
7821,note_on,1,0,0,,3,,,51,127
7821,note_on,0,0,0,,11,,,82,127
7941,note_off,120,0,0,,3,,,51,127
7942,note_on,1,0,0,,7,,,55,127
8062,note_off,120,0,0,,7,,,55,127
8062,note_off,0,0,0,,11,,,82,127
8063,note_on,1,0,0,,8,,,56,127
8063,note_on,0,0,0,,1,,,73,127
8122,note_off,59,0,0,,1,,,73,127
8123,note_on,1,0,0,,0,,,72,127
8182,note_off,59,0,0,,0,,,72,127
8182,note_off,0,0,0,,8,,,56,127
8183,note_on,1,0,0,,0,,,60,127
8183,note_on,0,0,0,,1,,,73,127
8242,note_off,59,0,0,,1,,,73,127
8243,note_on,1,0,0,,0,,,72,127
8302,note_off,59,0,0,,0,,,72,127
8302,note_off,0,0,0,,0,,,60,127
8303,note_on,1,0,0,,5,,,53,127
8303,note_on,0,0,0,,1,,,73,127
8362,note_off,59,0,0,,1,,,73,127
8363,note_on,1,0,0,,0,,,72,127
8422,note_off,59,0,0,,0,,,72,127
8422,note_off,0,0,0,,5,,,53,127
8423,note_on,1,0,0,,8,,,56,127
8423,note_on,0,0,0,,1,,,73,127
8482,note_off,59,0,0,,1,,,73,127
8483,note_on,1,0,0,,0,,,72,127
8542,note_off,59,0,0,,0,,,72,127
8542,note_off,0,0,0,,8,,,56,127
8543,note_on,1,0,0,,1,,,49,127
8543,note_on,0,0,0,,8,,,80,127
8663,note_off,120,0,0,,1,,,49,127
8664,note_on,1,0,0,,5,,,53,127
8784,note_off,120,0,0,,5,,,53,127
8784,note_off,0,0,0,,8,,,80,127
8785,note_on,1,0,0,,7,,,55,127
8785,note_on,0,0,0,,0,,,72,127
8844,note_off,59,0,0,,0,,,72,127
8845,note_on,1,0,0,,11,,,70,127
8904,note_off,59,0,0,,11,,,70,127
8904,note_off,0,0,0,,7,,,55,127
8905,note_on,1,0,0,,11,,,58,127
8905,note_on,0,0,0,,0,,,72,127
8964,note_off,59,0,0,,0,,,72,127
8965,note_on,1,0,0,,11,,,70,127
9024,note_off,59,0,0,,11,,,70,127
9024,note_off,0,0,0,,11,,,58,127
9025,note_on,1,0,0,,4,,,52,127
9025,note_on,0,0,0,,0,,,72,127
9084,note_off,59,0,0,,0,,,72,127
9085,note_on,1,0,0,,11,,,70,127
9144,note_off,59,0,0,,11,,,70,127
9144,note_off,0,0,0,,4,,,52,127
9145,note_on,1,0,0,,7,,,55,127
9145,note_on,0,0,0,,0,,,72,127
9204,note_off,59,0,0,,0,,,72,127
9205,note_on,1,0,0,,11,,,70,127
9264,note_off,59,0,0,,11,,,70,127
9264,note_off,0,0,0,,7,,,55,127
9265,note_on,1,0,0,,0,,,48,127
9265,note_on,0,0,0,,7,,,79,127
9385,note_off,120,0,0,,0,,,48,127
9386,note_on,1,0,0,,4,,,52,127
9506,note_off,120,0,0,,4,,,52,127
9506,note_off,0,0,0,,7,,,79,127
9507,note_on,1,0,0,,5,,,53,127
9507,note_on,0,0,0,,11,,,70,127
9566,note_off,59,0,0,,11,,,70,127
9567,note_on,1,0,0,,8,,,68,127
9626,note_off,59,0,0,,8,,,68,127
9627,note_on,1,0,0,,7,,,67,127
9747,note_off,120,0,0,,7,,,67,127
9747,note_off,0,0,0,,5,,,53,127
9748,note_on,1,0,0,,7,,,55,127
9748,note_on,0,0,0,,8,,,68,127
9868,note_off,120,0,0,,8,,,68,127
9869,note_on,1,0,0,,11,,,70,127
9989,note_off,120,0,0,,11,,,70,127
9989,note_off,0,0,0,,7,,,55,127
9990,note_on,1,0,0,,8,,,56,127
9990,note_on,0,0,0,,0,,,72,127
10110,note_off,120,0,0,,0,,,72,127
10111,note_on,1,0,0,,5,,,65,127
10231,note_off,120,0,0,,5,,,65,127
10231,note_off,0,0,0,,8,,,56,127
10232,note_on,1,0,0,,11,,,58,127
10232,note_on,0,0,0,,7,,,67,127
10352,note_off,120,0,0,,7,,,67,127
10353,note_on,1,0,0,,11,,,70,127
10473,note_off,120,0,0,,11,,,70,127
10473,note_off,0,0,0,,11,,,58,127
10474,note_on,1,0,0,,0,,,60,127
10474,note_on,0,0,0,,8,,,68,127
10594,note_off,120,0,0,,8,,,68,127
10595,note_on,1,0,0,,7,,,67,127
10715,note_off,120,0,0,,7,,,67,127
10716,note_on,1,0,0,,0,,,48,127
10716,note_on,0,0,0,,5,,,65,127
10836,note_off,120,0,0,,5,,,65,127
10837,note_on,1,0,0,,4,,,64,127
10953,note_off,116,0,0,,0,,,60,127
10957,note_off,4,0,0,,4,,,64,127
10957,note_off,0,0,0,,0,,,48,127
10958,note_on,1,0,0,,5,,,53,127
10958,note_on,0,0,0,,4,,,64,127
11201,note_on,243,0,0,,5,,,41,127
11442,note_off,241,0,0,,4,,,64,127
11443,note_on,1,0,0,,5,,,65,127
11617,note_off,174,0,0,,5,,,41,127
11684,note_off,67,0,0,,5,,,65,127
11684,note_off,0,0,0,,5,,,53,127
11685,note_on,1,0,0,,8,,,56,127
11685,note_on,0,0,0,,11,,,82,127
11744,note_off,59,0,0,,11,,,82,127
11745,note_on,1,0,0,,8,,,80,127
11804,note_off,59,0,0,,8,,,80,127
11804,note_off,0,0,0,,8,,,56,127
11805,note_on,1,0,0,,7,,,55,127
11805,note_on,0,0,0,,11,,,82,127
11864,note_off,59,0,0,,11,,,82,127
11865,note_on,1,0,0,,8,,,80,127
11924,note_off,59,0,0,,8,,,80,127
11924,note_off,0,0,0,,7,,,55,127
11925,note_on,1,0,0,,8,,,56,127
11925,note_on,0,0,0,,11,,,82,127
11984,note_off,59,0,0,,11,,,82,127
11985,note_on,1,0,0,,8,,,80,127
12044,note_off,59,0,0,,8,,,80,127
12044,note_off,0,0,0,,8,,,56,127
12045,note_on,1,0,0,,11,,,58,127
12045,note_on,0,0,0,,11,,,82,127
12104,note_off,59,0,0,,11,,,82,127
12105,note_on,1,0,0,,8,,,80,127
12164,note_off,59,0,0,,8,,,80,127
12164,note_off,0,0,0,,11,,,58,127
12165,note_on,1,0,0,,0,,,60,127
12165,note_on,0,0,0,,11,,,82,127
12224,note_off,59,0,0,,11,,,82,127
12225,note_on,1,0,0,,8,,,80,127
12284,note_off,59,0,0,,8,,,80,127
12284,note_off,0,0,0,,0,,,60,127
12285,note_on,1,0,0,,1,,,61,127
12285,note_on,0,0,0,,11,,,82,127
12344,note_off,59,0,0,,11,,,82,127
12345,note_on,1,0,0,,8,,,80,127
12404,note_off,59,0,0,,8,,,80,127
12404,note_off,0,0,0,,1,,,61,127
12405,note_on,1,0,0,,3,,,63,127
12405,note_on,0,0,0,,8,,,80,127
12464,note_off,59,0,0,,8,,,80,127
12465,note_on,1,0,0,,7,,,79,127
12524,note_off,59,0,0,,7,,,79,127
12524,note_off,0,0,0,,3,,,63,127
12525,note_on,1,0,0,,7,,,67,127
12525,note_on,0,0,0,,8,,,80,127
12584,note_off,59,0,0,,8,,,80,127
12585,note_on,1,0,0,,7,,,79,127
12644,note_off,59,0,0,,7,,,79,127
12644,note_off,0,0,0,,7,,,67,127
12645,note_on,1,0,0,,0,,,60,127
12645,note_on,0,0,0,,8,,,80,127
12704,note_off,59,0,0,,8,,,80,127
12705,note_on,1,0,0,,7,,,79,127
12764,note_off,59,0,0,,7,,,79,127
12764,note_off,0,0,0,,0,,,60,127
12765,note_on,1,0,0,,3,,,63,127
12765,note_on,0,0,0,,8,,,80,127
12824,note_off,59,0,0,,8,,,80,127
12825,note_on,1,0,0,,7,,,79,127
12884,note_off,59,0,0,,7,,,79,127
12884,note_off,0,0,0,,3,,,63,127
12885,note_on,1,0,0,,8,,,56,127
12885,note_on,0,0,0,,8,,,80,127
12944,note_off,59,0,0,,8,,,80,127
12945,note_on,1,0,0,,7,,,79,127
13004,note_off,59,0,0,,7,,,79,127
13004,note_off,0,0,0,,8,,,56,127
13005,note_on,1,0,0,,0,,,60,127
13005,note_on,0,0,0,,8,,,80,127
13064,note_off,59,0,0,,8,,,80,127
13065,note_on,1,0,0,,7,,,79,127
13124,note_off,59,0,0,,7,,,79,127
13124,note_off,0,0,0,,0,,,60,127
13125,note_on,1,0,0,,1,,,61,127
13125,note_on,0,0,0,,7,,,79,127
13184,note_off,59,0,0,,7,,,79,127
13185,note_on,1,0,0,,5,,,77,127
13244,note_off,59,0,0,,5,,,77,127
13244,note_off,0,0,0,,1,,,61,127
13245,note_on,1,0,0,,5,,,65,127
13245,note_on,0,0,0,,7,,,79,127
13304,note_off,59,0,0,,7,,,79,127
13305,note_on,1,0,0,,5,,,77,127
13364,note_off,59,0,0,,5,,,77,127
13364,note_off,0,0,0,,5,,,65,127
13365,note_on,1,0,0,,11,,,58,127
13365,note_on,0,0,0,,7,,,79,127
13424,note_off,59,0,0,,7,,,79,127
13425,note_on,1,0,0,,5,,,77,127
13484,note_off,59,0,0,,5,,,77,127
13484,note_off,0,0,0,,11,,,58,127
13485,note_on,1,0,0,,1,,,61,127
13485,note_on,0,0,0,,7,,,79,127
13544,note_off,59,0,0,,7,,,79,127
13545,note_on,1,0,0,,5,,,77,127
13604,note_off,59,0,0,,5,,,77,127
13604,note_off,0,0,0,,1,,,61,127
13605,note_on,1,0,0,,7,,,55,127
13605,note_on,0,0,0,,7,,,79,127
13664,note_off,59,0,0,,7,,,79,127
13665,note_on,1,0,0,,5,,,77,127
13724,note_off,59,0,0,,5,,,77,127
13724,note_off,0,0,0,,7,,,55,127
13725,note_on,1,0,0,,11,,,58,127
13725,note_on,0,0,0,,7,,,79,127
13784,note_off,59,0,0,,7,,,79,127
13785,note_on,1,0,0,,5,,,77,127
13844,note_off,59,0,0,,5,,,77,127
13844,note_off,0,0,0,,11,,,58,127
13845,note_on,1,0,0,,0,,,60,127
13845,note_on,0,0,0,,5,,,77,127
13904,note_off,59,0,0,,5,,,77,127
13905,note_on,1,0,0,,3,,,75,127
13964,note_off,59,0,0,,3,,,75,127
13964,note_off,0,0,0,,0,,,60,127
13965,note_on,1,0,0,,3,,,63,127
13965,note_on,0,0,0,,5,,,77,127
14024,note_off,59,0,0,,5,,,77,127
14025,note_on,1,0,0,,3,,,75,127
14084,note_off,59,0,0,,3,,,75,127
14084,note_off,0,0,0,,3,,,63,127
14085,note_on,1,0,0,,8,,,56,127
14085,note_on,0,0,0,,5,,,77,127
14144,note_off,59,0,0,,5,,,77,127
14145,note_on,1,0,0,,3,,,75,127
14204,note_off,59,0,0,,3,,,75,127
14204,note_off,0,0,0,,8,,,56,127
14205,note_on,1,0,0,,0,,,60,127
14205,note_on,0,0,0,,5,,,77,127
14264,note_off,59,0,0,,5,,,77,127
14265,note_on,1,0,0,,3,,,75,127
14324,note_off,59,0,0,,3,,,75,127
14324,note_off,0,0,0,,0,,,60,127
14325,note_on,1,0,0,,5,,,53,127
14325,note_on,0,0,0,,5,,,77,127
14384,note_off,59,0,0,,5,,,77,127
14385,note_on,1,0,0,,3,,,75,127
14444,note_off,59,0,0,,3,,,75,127
14444,note_off,0,0,0,,5,,,53,127
14445,note_on,1,0,0,,8,,,56,127
14445,note_on,0,0,0,,5,,,77,127
14504,note_off,59,0,0,,5,,,77,127
14505,note_on,1,0,0,,3,,,75,127
14564,note_off,59,0,0,,3,,,75,127
14564,note_off,0,0,0,,8,,,56,127
14565,note_on,1,0,0,,11,,,58,127
14565,note_on,0,0,0,,3,,,75,127
14624,note_off,59,0,0,,3,,,75,127
14625,note_on,1,0,0,,1,,,73,127
14684,note_off,59,0,0,,1,,,73,127
14684,note_off,0,0,0,,11,,,58,127
14685,note_on,1,0,0,,1,,,61,127
14685,note_on,0,0,0,,3,,,75,127
14744,note_off,59,0,0,,3,,,75,127
14745,note_on,1,0,0,,1,,,73,127
14804,note_off,59,0,0,,1,,,73,127
14804,note_off,0,0,0,,1,,,61,127
14805,note_on,1,0,0,,7,,,55,127
14805,note_on,0,0,0,,3,,,75,127
14864,note_off,59,0,0,,3,,,75,127
14865,note_on,1,0,0,,1,,,73,127
14924,note_off,59,0,0,,1,,,73,127
14924,note_off,0,0,0,,7,,,55,127
14925,note_on,1,0,0,,11,,,58,127
14925,note_on,0,0,0,,3,,,75,127
14984,note_off,59,0,0,,3,,,75,127
14985,note_on,1,0,0,,1,,,73,127
15044,note_off,59,0,0,,1,,,73,127
15044,note_off,0,0,0,,11,,,58,127
15045,note_on,1,0,0,,3,,,51,127
15045,note_on,0,0,0,,3,,,75,127
15104,note_off,59,0,0,,3,,,75,127
15105,note_on,1,0,0,,1,,,73,127
15164,note_off,59,0,0,,1,,,73,127
15164,note_off,0,0,0,,3,,,51,127
15165,note_on,1,0,0,,7,,,55,127
15165,note_on,0,0,0,,3,,,75,127
15224,note_off,59,0,0,,3,,,75,127
15225,note_on,1,0,0,,1,,,73,127
15284,note_off,59,0,0,,1,,,73,127
15284,note_off,0,0,0,,7,,,55,127
15285,note_on,1,0,0,,8,,,56,127
15285,note_on,0,0,0,,1,,,73,127
15344,note_off,59,0,0,,1,,,73,127
15345,note_on,1,0,0,,0,,,72,127
15404,note_off,59,0,0,,0,,,72,127
15405,note_on,1,0,0,,11,,,70,127
15525,note_off,120,0,0,,11,,,70,127
15525,note_off,0,0,0,,8,,,56,127
15526,note_on,1,0,0,,11,,,58,127
15526,note_on,0,0,0,,0,,,72,127
15646,note_off,120,0,0,,0,,,72,127
15647,note_on,1,0,0,,1,,,73,127
15767,note_off,120,0,0,,1,,,73,127
15767,note_off,0,0,0,,11,,,58,127
15768,note_on,1,0,0,,0,,,60,127
15768,note_on,0,0,0,,3,,,75,127
15888,note_off,120,0,0,,3,,,75,127
15889,note_on,1,0,0,,0,,,72,127
16009,note_off,120,0,0,,0,,,72,127
16009,note_off,0,0,0,,0,,,60,127
16010,note_on,1,0,0,,1,,,61,127
16010,note_on,0,0,0,,5,,,77,127
16130,note_off,120,0,0,,5,,,77,127
16131,note_on,1,0,0,,1,,,73,127
16251,note_off,120,0,0,,1,,,73,127
16251,note_off,0,0,0,,1,,,61,127
16252,note_on,1,0,0,,3,,,63,127
16252,note_on,0,0,0,,0,,,72,127
16372,note_off,120,0,0,,0,,,72,127
16373,note_on,1,0,0,,11,,,70,127
16493,note_off,120,0,0,,11,,,70,127
16494,note_on,1,0,0,,3,,,51,127
16494,note_on,0,0,0,,8,,,68,127
16614,note_off,120,0,0,,8,,,68,127
16615,note_off,1,0,0,,3,,,63,127
16615,note_on,0,0,0,,7,,,67,127
16735,note_off,120,0,0,,7,,,67,127
16735,note_off,0,0,0,,3,,,51,127
16736,note_on,1,0,0,,8,,,44,127
16736,note_on,0,0,0,,7,,,67,127
17216,note_off,480,0,0,,8,,,44,127
17220,note_off,4,0,0,,7,,,67,127
17221,note_on,1,0,0,,8,,,68,127
17462,note_off,241,0,0,,8,,,68,127
17463,note_on,1,0,0,,8,,,56,127
17463,note_on,0,0,0,,11,,,82,127
17522,note_off,59,0,0,,11,,,82,127
17523,note_on,1,0,0,,8,,,80,127
17582,note_off,59,0,0,,8,,,80,127
17582,note_off,0,0,0,,8,,,56,127
17583,note_on,1,0,0,,7,,,55,127
17583,note_on,0,0,0,,11,,,82,127
17642,note_off,59,0,0,,11,,,82,127
17643,note_on,1,0,0,,8,,,80,127
17702,note_off,59,0,0,,8,,,80,127
17702,note_off,0,0,0,,7,,,55,127
17703,note_on,1,0,0,,8,,,56,127
17703,note_on,0,0,0,,11,,,82,127
17762,note_off,59,0,0,,11,,,82,127
17763,note_on,1,0,0,,8,,,80,127
17822,note_off,59,0,0,,8,,,80,127
17822,note_off,0,0,0,,8,,,56,127
17823,note_on,1,0,0,,11,,,58,127
17823,note_on,0,0,0,,11,,,82,127
17882,note_off,59,0,0,,11,,,82,127
17883,note_on,1,0,0,,8,,,80,127
17942,note_off,59,0,0,,8,,,80,127
17942,note_off,0,0,0,,11,,,58,127
17943,note_on,1,0,0,,0,,,60,127
17943,note_on,0,0,0,,11,,,82,127
18002,note_off,59,0,0,,11,,,82,127
18003,note_on,1,0,0,,8,,,80,127
18062,note_off,59,0,0,,8,,,80,127
18062,note_off,0,0,0,,0,,,60,127
18063,note_on,1,0,0,,1,,,61,127
18063,note_on,0,0,0,,11,,,82,127
18122,note_off,59,0,0,,11,,,82,127
18123,note_on,1,0,0,,8,,,80,127
18182,note_off,59,0,0,,8,,,80,127
18182,note_off,0,0,0,,1,,,61,127
18183,note_on,1,0,0,,3,,,63,127
18183,note_on,0,0,0,,8,,,80,127
18242,note_off,59,0,0,,8,,,80,127
18243,note_on,1,0,0,,7,,,79,127
18302,note_off,59,0,0,,7,,,79,127
18302,note_off,0,0,0,,3,,,63,127
18303,note_on,1,0,0,,7,,,67,127
18303,note_on,0,0,0,,8,,,80,127
18362,note_off,59,0,0,,8,,,80,127
18363,note_on,1,0,0,,7,,,79,127
18422,note_off,59,0,0,,7,,,79,127
18422,note_off,0,0,0,,7,,,67,127
18423,note_on,1,0,0,,0,,,60,127
18423,note_on,0,0,0,,8,,,80,127
18482,note_off,59,0,0,,8,,,80,127
18483,note_on,1,0,0,,7,,,79,127
18542,note_off,59,0,0,,7,,,79,127
18542,note_off,0,0,0,,0,,,60,127
18543,note_on,1,0,0,,3,,,63,127
18543,note_on,0,0,0,,8,,,80,127
18602,note_off,59,0,0,,8,,,80,127
18603,note_on,1,0,0,,7,,,79,127
18662,note_off,59,0,0,,7,,,79,127
18662,note_off,0,0,0,,3,,,63,127
18663,note_on,1,0,0,,8,,,56,127
18663,note_on,0,0,0,,0,,,84,127
18783,note_off,120,0,0,,8,,,56,127
18784,note_on,1,0,0,,0,,,60,127
18904,note_off,120,0,0,,0,,,60,127
18904,note_off,0,0,0,,0,,,84,127
18905,note_on,1,0,0,,1,,,61,127
18905,note_on,0,0,0,,7,,,79,127
18964,note_off,59,0,0,,7,,,79,127
18965,note_on,1,0,0,,5,,,77,127
19024,note_off,59,0,0,,5,,,77,127
19024,note_off,0,0,0,,1,,,61,127
19025,note_on,1,0,0,,5,,,65,127
19025,note_on,0,0,0,,7,,,79,127
19084,note_off,59,0,0,,7,,,79,127
19085,note_on,1,0,0,,5,,,77,127
19144,note_off,59,0,0,,5,,,77,127
19144,note_off,0,0,0,,5,,,65,127
19145,note_on,1,0,0,,11,,,58,127
19145,note_on,0,0,0,,7,,,79,127
19204,note_off,59,0,0,,7,,,79,127
19205,note_on,1,0,0,,5,,,77,127
19264,note_off,59,0,0,,5,,,77,127
19264,note_off,0,0,0,,11,,,58,127
19265,note_on,1,0,0,,1,,,61,127
19265,note_on,0,0,0,,7,,,79,127
19324,note_off,59,0,0,,7,,,79,127
19325,note_on,1,0,0,,5,,,77,127
19384,note_off,59,0,0,,5,,,77,127
19384,note_off,0,0,0,,1,,,61,127
19385,note_on,1,0,0,,7,,,55,127
19385,note_on,0,0,0,,11,,,82,127
19505,note_off,120,0,0,,7,,,55,127
19506,note_on,1,0,0,,11,,,58,127
19626,note_off,120,0,0,,11,,,58,127
19626,note_off,0,0,0,,11,,,82,127
19627,note_on,1,0,0,,0,,,60,127
19627,note_on,0,0,0,,5,,,77,127
19686,note_off,59,0,0,,5,,,77,127
19687,note_on,1,0,0,,3,,,75,127
19746,note_off,59,0,0,,3,,,75,127
19746,note_off,0,0,0,,0,,,60,127
19747,note_on,1,0,0,,3,,,63,127
19747,note_on,0,0,0,,5,,,77,127
19806,note_off,59,0,0,,5,,,77,127
19807,note_on,1,0,0,,3,,,75,127
19866,note_off,59,0,0,,3,,,75,127
19866,note_off,0,0,0,,3,,,63,127
19867,note_on,1,0,0,,8,,,56,127
19867,note_on,0,0,0,,5,,,77,127
19926,note_off,59,0,0,,5,,,77,127
19927,note_on,1,0,0,,3,,,75,127
19986,note_off,59,0,0,,3,,,75,127
19986,note_off,0,0,0,,8,,,56,127
19987,note_on,1,0,0,,0,,,60,127
19987,note_on,0,0,0,,5,,,77,127
20046,note_off,59,0,0,,5,,,77,127
20047,note_on,1,0,0,,3,,,75,127
20106,note_off,59,0,0,,3,,,75,127
20106,note_off,0,0,0,,0,,,60,127
20107,note_on,1,0,0,,5,,,53,127
20107,note_on,0,0,0,,8,,,80,127
20227,note_off,120,0,0,,5,,,53,127
20228,note_on,1,0,0,,8,,,56,127
20348,note_off,120,0,0,,8,,,56,127
20348,note_off,0,0,0,,8,,,80,127
20349,note_on,1,0,0,,11,,,58,127
20349,note_on,0,0,0,,3,,,75,127
20408,note_off,59,0,0,,3,,,75,127
20409,note_on,1,0,0,,1,,,73,127
20468,note_off,59,0,0,,1,,,73,127
20468,note_off,0,0,0,,11,,,58,127
20469,note_on,1,0,0,,1,,,61,127
20469,note_on,0,0,0,,3,,,75,127
20528,note_off,59,0,0,,3,,,75,127
20529,note_on,1,0,0,,1,,,73,127
20588,note_off,59,0,0,,1,,,73,127
20588,note_off,0,0,0,,1,,,61,127
20589,note_on,1,0,0,,7,,,55,127
20589,note_on,0,0,0,,3,,,75,127
20648,note_off,59,0,0,,3,,,75,127
20649,note_on,1,0,0,,1,,,73,127
20708,note_off,59,0,0,,1,,,73,127
20708,note_off,0,0,0,,7,,,55,127
20709,note_on,1,0,0,,11,,,58,127
20709,note_on,0,0,0,,3,,,75,127
20768,note_off,59,0,0,,3,,,75,127
20769,note_on,1,0,0,,1,,,73,127
20828,note_off,59,0,0,,1,,,73,127
20828,note_off,0,0,0,,11,,,58,127
20829,note_on,1,0,0,,3,,,51,127
20829,note_on,0,0,0,,11,,,82,127
20949,note_off,120,0,0,,3,,,51,127
20950,note_on,1,0,0,,7,,,55,127
21070,note_off,120,0,0,,7,,,55,127
21070,note_off,0,0,0,,11,,,82,127
21071,note_on,1,0,0,,8,,,56,127
21071,note_on,0,0,0,,1,,,73,127
21130,note_off,59,0,0,,1,,,73,127
21131,note_on,1,0,0,,0,,,72,127
21190,note_off,59,0,0,,0,,,72,127
21191,note_on,1,0,0,,11,,,70,127
21311,note_off,120,0,0,,11,,,70,127
21311,note_off,0,0,0,,8,,,56,127
21312,note_on,1,0,0,,11,,,58,127
21312,note_on,0,0,0,,0,,,72,127
21432,note_off,120,0,0,,0,,,72,127
21433,note_on,1,0,0,,1,,,73,127
21553,note_off,120,0,0,,1,,,73,127
21553,note_off,0,0,0,,11,,,58,127
21554,note_on,1,0,0,,0,,,60,127
21554,note_on,0,0,0,,3,,,75,127
21674,note_off,120,0,0,,3,,,75,127
21675,note_on,1,0,0,,0,,,72,127
21795,note_off,120,0,0,,0,,,72,127
21795,note_off,0,0,0,,0,,,60,127
21796,note_on,1,0,0,,1,,,61,127
21796,note_on,0,0,0,,5,,,77,127
21916,note_off,120,0,0,,5,,,77,127
21917,note_on,1,0,0,,1,,,73,127
22037,note_off,120,0,0,,1,,,73,127
22037,note_off,0,0,0,,1,,,61,127
22038,note_on,1,0,0,,3,,,63,127
22038,note_on,0,0,0,,0,,,72,127
22158,note_off,120,0,0,,0,,,72,127
22159,note_on,1,0,0,,11,,,70,127
22279,note_off,120,0,0,,11,,,70,127
22280,note_on,1,0,0,,3,,,51,127
22280,note_on,0,0,0,,8,,,68,127
22400,note_off,120,0,0,,8,,,68,127
22401,note_off,1,0,0,,3,,,63,127
22401,note_on,0,0,0,,7,,,67,127
22521,note_off,120,0,0,,7,,,67,127
22521,note_off,0,0,0,,3,,,51,127
22522,note_on,1,0,0,,8,,,44,127
22522,note_on,0,0,0,,7,,,67,127
23006,note_off,484,0,0,,7,,,67,127
23007,note_on,1,0,0,,8,,,68,127
23128,note_off,121,0,0,,8,,,44,127
23249,note_on,121,0,0,,8,,,56,127
23284,note_off,35,0,0,,8,,,68,127
23370,note_on,86,0,0,,8,,,68,127
23490,note_off,120,0,0,,8,,,68,127
23490,note_off,0,0,0,,8,,,56,127
23491,note_on,1,0,0,,8,,,56,127
23491,note_on,0,0,0,,8,,,80,127
23611,note_off,120,0,0,,8,,,80,127
23612,note_on,1,0,0,,7,,,79,127
23732,note_off,120,0,0,,7,,,79,127
23732,note_off,0,0,0,,8,,,56,127
23733,note_on,1,0,0,,8,,,56,127
23733,note_on,0,0,0,,5,,,77,127
23853,note_off,120,0,0,,5,,,77,127
23854,note_on,1,0,0,,3,,,75,127
23974,note_off,120,0,0,,3,,,75,127
23974,note_off,0,0,0,,8,,,56,127
23975,note_on,1,0,0,,5,,,65,127
23975,note_on,0,0,0,,8,,,68,127
23975,note_on,0,0,0,,11,,,58,127
23975,note_on,0,0,0,,5,,,77,127
24034,note_off,59,0,0,,5,,,77,127
24035,note_on,1,0,0,,3,,,75,127
24094,note_off,59,0,0,,3,,,75,127
24095,note_on,1,0,0,,5,,,77,127
24154,note_off,59,0,0,,5,,,77,127
24155,note_on,1,0,0,,3,,,75,127
24214,note_off,59,0,0,,3,,,75,127
24214,note_off,0,0,0,,11,,,58,127
24214,note_off,0,0,0,,8,,,68,127
24214,note_off,0,0,0,,5,,,65,127
24215,note_on,1,0,0,,8,,,68,127
24215,note_on,0,0,0,,5,,,65,127
24215,note_on,0,0,0,,11,,,58,127
24215,note_on,0,0,0,,2,,,74,127
24456,note_off,241,0,0,,11,,,58,127
24456,note_off,0,0,0,,5,,,65,127
24456,note_off,0,0,0,,8,,,68,127
24457,note_on,1,0,0,,11,,,58,127
24457,note_on,0,0,0,,3,,,63,127
24457,note_on,0,0,0,,7,,,67,127
24577,note_off,120,0,0,,2,,,74,127
24578,note_on,1,0,0,,3,,,75,127
24698,note_off,120,0,0,,3,,,75,127
24698,note_off,0,0,0,,7,,,67,127
24698,note_off,0,0,0,,3,,,63,127
24698,note_off,0,0,0,,11,,,58,127
24699,note_on,1,0,0,,2,,,62,127
24699,note_on,0,0,0,,11,,,58,127
24699,note_on,0,0,0,,5,,,65,127
24699,note_on,0,0,0,,5,,,77,127
24819,note_off,120,0,0,,5,,,77,127
24820,note_on,1,0,0,,7,,,79,127
24940,note_off,120,0,0,,7,,,79,127
24940,note_off,0,0,0,,5,,,65,127
24940,note_off,0,0,0,,11,,,58,127
24940,note_off,0,0,0,,2,,,62,127
24941,note_on,1,0,0,,11,,,58,127
24941,note_on,0,0,0,,5,,,65,127
24941,note_on,0,0,0,,2,,,62,127
24941,note_on,0,0,0,,8,,,80,127
25061,note_off,120,0,0,,8,,,80,127
25062,note_on,1,0,0,,11,,,82,127
25182,note_off,120,0,0,,11,,,82,127
25182,note_off,0,0,0,,2,,,62,127
25182,note_off,0,0,0,,5,,,65,127
25182,note_off,0,0,0,,11,,,58,127
25183,note_on,1,0,0,,11,,,58,127
25183,note_on,0,0,0,,3,,,63,127
25183,note_on,0,0,0,,7,,,67,127
25183,note_on,0,0,0,,0,,,84,127
25303,note_off,120,0,0,,0,,,84,127
25304,note_on,1,0,0,,3,,,75,127
25424,note_off,120,0,0,,3,,,75,127
25424,note_off,0,0,0,,7,,,67,127
25424,note_off,0,0,0,,3,,,63,127
25424,note_off,0,0,0,,11,,,58,127
25425,note_on,1,0,0,,11,,,58,127
25425,note_on,0,0,0,,5,,,65,127
25425,note_on,0,0,0,,8,,,68,127
25425,note_on,0,0,0,,5,,,77,127
25484,note_off,59,0,0,,5,,,77,127
25485,note_on,1,0,0,,3,,,75,127
25544,note_off,59,0,0,,3,,,75,127
25545,note_on,1,0,0,,5,,,77,127
25604,note_off,59,0,0,,5,,,77,127
25605,note_on,1,0,0,,3,,,75,127
25664,note_off,59,0,0,,3,,,75,127
25664,note_off,0,0,0,,8,,,68,127
25664,note_off,0,0,0,,5,,,65,127
25664,note_off,0,0,0,,11,,,58,127
25665,note_on,1,0,0,,11,,,58,127
25665,note_on,0,0,0,,8,,,68,127
25665,note_on,0,0,0,,5,,,65,127
25665,note_on,0,0,0,,2,,,74,127
25906,note_off,241,0,0,,5,,,65,127
25906,note_off,0,0,0,,8,,,68,127
25906,note_off,0,0,0,,11,,,58,127
25907,note_on,1,0,0,,11,,,58,127
25907,note_on,0,0,0,,3,,,63,127
25907,note_on,0,0,0,,7,,,67,127
26027,note_off,120,0,0,,2,,,74,127
26028,note_on,1,0,0,,3,,,75,127
26148,note_off,120,0,0,,3,,,75,127
26148,note_off,0,0,0,,7,,,67,127
26148,note_off,0,0,0,,3,,,63,127
26148,note_off,0,0,0,,11,,,58,127
26149,note_on,1,0,0,,2,,,62,127
26149,note_on,0,0,0,,11,,,58,127
26149,note_on,0,0,0,,5,,,65,127
26149,note_on,0,0,0,,5,,,77,127
26269,note_off,120,0,0,,5,,,77,127
26270,note_on,1,0,0,,7,,,79,127
26390,note_off,120,0,0,,7,,,79,127
26390,note_off,0,0,0,,5,,,65,127
26390,note_off,0,0,0,,11,,,58,127
26390,note_off,0,0,0,,2,,,62,127
26391,note_on,1,0,0,,2,,,62,127
26391,note_on,0,0,0,,11,,,58,127
26391,note_on,0,0,0,,5,,,65,127
26391,note_on,0,0,0,,8,,,80,127
26511,note_off,120,0,0,,8,,,80,127
26512,note_on,1,0,0,,11,,,82,127
26632,note_off,120,0,0,,11,,,82,127
26632,note_off,0,0,0,,5,,,65,127
26632,note_off,0,0,0,,11,,,58,127
26632,note_off,0,0,0,,2,,,62,127
26633,note_on,1,0,0,,11,,,58,127
26633,note_on,0,0,0,,3,,,63,127
26633,note_on,0,0,0,,7,,,67,127
26633,note_on,0,0,0,,0,,,84,127
26753,note_off,120,0,0,,0,,,84,127
26754,note_on,1,0,0,,3,,,75,127
26874,note_off,120,0,0,,3,,,75,127
26874,note_off,0,0,0,,7,,,67,127
26874,note_off,0,0,0,,3,,,63,127
26874,note_off,0,0,0,,11,,,58,127
26875,note_on,1,0,0,,11,,,58,127
26875,note_on,0,0,0,,5,,,65,127
26875,note_on,0,0,0,,8,,,68,127
26875,note_on,0,0,0,,5,,,77,127
26934,note_off,59,0,0,,5,,,77,127
26935,note_on,1,0,0,,3,,,75,127
26994,note_off,59,0,0,,3,,,75,127
26995,note_on,1,0,0,,5,,,77,127
27054,note_off,59,0,0,,5,,,77,127
27055,note_on,1,0,0,,3,,,75,127
27114,note_off,59,0,0,,3,,,75,127
27114,note_off,0,0,0,,8,,,68,127
27114,note_off,0,0,0,,5,,,65,127
27114,note_off,0,0,0,,11,,,58,127
27115,note_on,1,0,0,,11,,,58,127
27115,note_on,0,0,0,,8,,,68,127
27115,note_on,0,0,0,,5,,,65,127
27115,note_on,0,0,0,,2,,,74,127
27356,note_off,241,0,0,,5,,,65,127
27356,note_off,0,0,0,,8,,,68,127
27356,note_off,0,0,0,,11,,,58,127
27357,note_on,1,0,0,,7,,,67,127
27357,note_on,0,0,0,,3,,,63,127
27357,note_on,0,0,0,,11,,,58,127
27477,note_off,120,0,0,,2,,,74,127
27478,note_on,1,0,0,,3,,,75,127
27598,note_off,120,0,0,,3,,,75,127
27598,note_off,0,0,0,,11,,,58,127
27598,note_off,0,0,0,,3,,,63,127
27598,note_off,0,0,0,,7,,,67,127
27599,note_on,1,0,0,,11,,,58,127
27599,note_on,0,0,0,,2,,,62,127
27599,note_on,0,0,0,,5,,,65,127
27599,note_on,0,0,0,,5,,,77,127
27719,note_off,120,0,0,,5,,,77,127
27720,note_on,1,0,0,,7,,,79,127
27840,note_off,120,0,0,,7,,,79,127
27840,note_off,0,0,0,,5,,,65,127
27840,note_off,0,0,0,,2,,,62,127
27840,note_off,0,0,0,,11,,,58,127
27841,note_on,1,0,0,,5,,,65,127
27841,note_on,0,0,0,,11,,,58,127
27841,note_on,0,0,0,,2,,,62,127
27841,note_on,0,0,0,,8,,,80,127
27961,note_off,120,0,0,,8,,,80,127
27962,note_on,1,0,0,,12,,,83,127
28082,note_off,120,0,0,,12,,,83,127
28082,note_off,0,0,0,,2,,,62,127
28082,note_off,0,0,0,,11,,,58,127
28082,note_off,0,0,0,,5,,,65,127
28083,note_on,1,0,0,,5,,,65,127
28083,note_on,0,0,0,,2,,,62,127
28083,note_on,0,0,0,,8,,,56,127
28083,note_on,0,0,0,,0,,,84,127
28203,note_off,120,0,0,,0,,,84,127
28204,note_on,1,0,0,,0,,,72,127
28324,note_off,120,0,0,,0,,,72,127
28324,note_off,0,0,0,,8,,,56,127
28324,note_off,0,0,0,,2,,,62,127
28324,note_off,0,0,0,,5,,,65,127
28325,note_on,1,0,0,,7,,,55,127
28325,note_on,0,0,0,,2,,,62,127
28325,note_on,0,0,0,,5,,,65,127
28325,note_on,0,0,0,,0,,,60,127
28325,note_on,0,0,0,,2,,,74,127
28384,note_off,59,0,0,,2,,,74,127
28385,note_on,1,0,0,,0,,,72,127
28444,note_off,59,0,0,,0,,,72,127
28445,note_on,1,0,0,,2,,,74,127
28504,note_off,59,0,0,,2,,,74,127
28505,note_on,1,0,0,,0,,,72,127
28564,note_off,59,0,0,,0,,,72,127
28564,note_off,0,0,0,,0,,,60,127
28564,note_off,0,0,0,,5,,,65,127
28564,note_off,0,0,0,,2,,,62,127
28564,note_off,0,0,0,,7,,,55,127
28565,note_on,1,0,0,,5,,,65,127
28565,note_on,0,0,0,,2,,,62,127
28565,note_on,0,0,0,,7,,,55,127
28565,note_on,0,0,0,,0,,,60,127
28565,note_on,0,0,0,,12,,,71,127
28806,note_off,241,0,0,,0,,,60,127
28806,note_off,0,0,0,,7,,,55,127
28806,note_off,0,0,0,,2,,,62,127
28806,note_off,0,0,0,,5,,,65,127
28807,note_on,1,0,0,,7,,,55,127
28807,note_on,0,0,0,,2,,,62,127
28807,note_on,0,0,0,,5,,,65,127
28807,note_on,0,0,0,,0,,,60,127
28927,note_off,120,0,0,,12,,,71,127
28928,note_on,1,0,0,,0,,,72,127
29048,note_off,120,0,0,,0,,,72,127
29048,note_off,0,0,0,,0,,,60,127
29048,note_off,0,0,0,,5,,,65,127
29048,note_off,0,0,0,,2,,,62,127
29048,note_off,0,0,0,,7,,,55,127
29049,note_on,1,0,0,,8,,,56,127
29049,note_on,0,0,0,,2,,,62,127
29049,note_on,0,0,0,,0,,,60,127
29049,note_on,0,0,0,,5,,,65,127
29049,note_on,0,0,0,,2,,,74,127
29169,note_off,120,0,0,,2,,,74,127
29170,note_on,1,0,0,,3,,,75,127
29290,note_off,120,0,0,,3,,,75,127
29290,note_off,0,0,0,,5,,,65,127
29290,note_off,0,0,0,,0,,,60,127
29290,note_off,0,0,0,,2,,,62,127
29290,note_off,0,0,0,,8,,,56,127
29291,note_on,1,0,0,,8,,,56,127
29291,note_on,0,0,0,,5,,,65,127
29291,note_on,0,0,0,,2,,,62,127
29291,note_on,0,0,0,,0,,,60,127
29291,note_on,0,0,0,,5,,,77,127
29411,note_off,120,0,0,,5,,,77,127
29412,note_on,1,0,0,,7,,,79,127
29532,note_off,120,0,0,,7,,,79,127
29532,note_off,0,0,0,,0,,,60,127
29532,note_off,0,0,0,,2,,,62,127
29532,note_off,0,0,0,,5,,,65,127
29532,note_off,0,0,0,,8,,,56,127
29533,note_on,1,0,0,,8,,,56,127
29533,note_on,0,0,0,,5,,,65,127
29533,note_on,0,0,0,,2,,,62,127
29533,note_on,0,0,0,,0,,,60,127
29533,note_on,0,0,0,,8,,,80,127
29653,note_off,120,0,0,,8,,,80,127
29654,note_on,1,0,0,,0,,,72,127
29774,note_off,120,0,0,,0,,,72,127
29774,note_off,0,0,0,,0,,,60,127
29774,note_off,0,0,0,,2,,,62,127
29774,note_off,0,0,0,,5,,,65,127
29774,note_off,0,0,0,,8,,,56,127
29775,note_on,1,0,0,,2,,,62,127
29775,note_on,0,0,0,,7,,,55,127
29775,note_on,0,0,0,,5,,,65,127
29775,note_on,0,0,0,,0,,,60,127
29775,note_on,0,0,0,,2,,,74,127
29834,note_off,59,0,0,,2,,,74,127
29835,note_on,1,0,0,,0,,,72,127
29894,note_off,59,0,0,,0,,,72,127
29895,note_on,1,0,0,,2,,,74,127
29954,note_off,59,0,0,,2,,,74,127
29955,note_on,1,0,0,,0,,,72,127
30014,note_off,59,0,0,,0,,,72,127
30014,note_off,0,0,0,,0,,,60,127
30014,note_off,0,0,0,,5,,,65,127
30014,note_off,0,0,0,,7,,,55,127
30014,note_off,0,0,0,,2,,,62,127
30015,note_on,1,0,0,,2,,,62,127
30015,note_on,0,0,0,,7,,,55,127
30015,note_on,0,0,0,,5,,,65,127
30015,note_on,0,0,0,,0,,,60,127
30015,note_on,0,0,0,,12,,,71,127
30256,note_off,241,0,0,,0,,,60,127
30256,note_off,0,0,0,,5,,,65,127
30256,note_off,0,0,0,,7,,,55,127
30256,note_off,0,0,0,,2,,,62,127
30257,note_on,1,0,0,,7,,,55,127
30257,note_on,0,0,0,,5,,,65,127
30257,note_on,0,0,0,,2,,,62,127
30257,note_on,0,0,0,,0,,,60,127
30377,note_off,120,0,0,,12,,,71,127
30378,note_on,1,0,0,,0,,,72,127
30498,note_off,120,0,0,,0,,,72,127
30498,note_off,0,0,0,,0,,,60,127
30498,note_off,0,0,0,,2,,,62,127
30498,note_off,0,0,0,,5,,,65,127
30498,note_off,0,0,0,,7,,,55,127
30499,note_on,1,0,0,,8,,,56,127
30499,note_on,0,0,0,,2,,,62,127
30499,note_on,0,0,0,,0,,,60,127
30499,note_on,0,0,0,,5,,,65,127
30499,note_on,0,0,0,,2,,,74,127
30619,note_off,120,0,0,,2,,,74,127
30620,note_on,1,0,0,,3,,,75,127
30740,note_off,120,0,0,,3,,,75,127
30740,note_off,0,0,0,,5,,,65,127
30740,note_off,0,0,0,,0,,,60,127
30740,note_off,0,0,0,,2,,,62,127
30740,note_off,0,0,0,,8,,,56,127
30741,note_on,1,0,0,,8,,,56,127
30741,note_on,0,0,0,,2,,,62,127
30741,note_on,0,0,0,,0,,,60,127
30741,note_on,0,0,0,,5,,,65,127
30741,note_on,0,0,0,,5,,,77,127
30861,note_off,120,0,0,,5,,,77,127
30862,note_on,1,0,0,,7,,,79,127
30982,note_off,120,0,0,,7,,,79,127
30982,note_off,0,0,0,,5,,,65,127
30982,note_off,0,0,0,,0,,,60,127
30982,note_off,0,0,0,,2,,,62,127
30982,note_off,0,0,0,,8,,,56,127
30983,note_on,1,0,0,,8,,,56,127
30983,note_on,0,0,0,,5,,,65,127
30983,note_on,0,0,0,,2,,,62,127
30983,note_on,0,0,0,,0,,,60,127
30983,note_on,0,0,0,,8,,,80,127
31103,note_off,120,0,0,,8,,,80,127
31104,note_on,1,0,0,,0,,,72,127
31224,note_off,120,0,0,,0,,,72,127
31224,note_off,0,0,0,,0,,,60,127
31224,note_off,0,0,0,,2,,,62,127
31224,note_off,0,0,0,,5,,,65,127
31224,note_off,0,0,0,,8,,,56,127
31225,note_on,1,0,0,,7,,,55,127
31225,note_on,0,0,0,,0,,,72,127
31284,note_off,59,0,0,,0,,,72,127
31285,note_on,1,0,0,,12,,,71,127
31344,note_off,59,0,0,,12,,,71,127
31345,note_on,1,0,0,,0,,,72,127
31404,note_off,59,0,0,,0,,,72,127
31405,note_on,1,0,0,,12,,,71,127
31464,note_off,59,0,0,,12,,,71,127
31465,note_on,1,0,0,,0,,,72,127
31524,note_off,59,0,0,,0,,,72,127
31525,note_on,1,0,0,,12,,,71,127
31584,note_off,59,0,0,,12,,,71,127
31585,note_on,1,0,0,,10,,,69,127
31705,note_off,120,0,0,,10,,,69,127
31706,note_on,1,0,0,,7,,,43,127
31706,note_on,0,0,0,,7,,,67,127
31947,note_off,241,0,0,,7,,,67,127
31947,note_off,0,0,0,,7,,,43,127
31947,note_off,0,0,0,,7,,,55,127
31948,note_on,1,0,0,,0,,,60,127
31948,note_on,0,0,0,,2,,,86,127
32007,note_off,59,0,0,,2,,,86,127
32008,note_on,1,0,0,,0,,,84,127
32067,note_off,59,0,0,,0,,,84,127
32067,note_off,0,0,0,,0,,,60,127
32068,note_on,1,0,0,,12,,,59,127
32068,note_on,0,0,0,,2,,,86,127
32127,note_off,59,0,0,,2,,,86,127
32128,note_on,1,0,0,,0,,,84,127
32187,note_off,59,0,0,,0,,,84,127
32187,note_off,0,0,0,,12,,,59,127
32188,note_on,1,0,0,,0,,,60,127
32188,note_on,0,0,0,,2,,,86,127
32247,note_off,59,0,0,,2,,,86,127
32248,note_on,1,0,0,,0,,,84,127
32307,note_off,59,0,0,,0,,,84,127
32307,note_off,0,0,0,,0,,,60,127
32308,note_on,1,0,0,,2,,,62,127
32308,note_on,0,0,0,,2,,,86,127
32367,note_off,59,0,0,,2,,,86,127
32368,note_on,1,0,0,,0,,,84,127
32427,note_off,59,0,0,,0,,,84,127
32427,note_off,0,0,0,,2,,,62,127
32428,note_on,1,0,0,,3,,,63,127
32428,note_on,0,0,0,,2,,,86,127
32487,note_off,59,0,0,,2,,,86,127
32488,note_on,1,0,0,,0,,,84,127
32547,note_off,59,0,0,,0,,,84,127
32547,note_off,0,0,0,,3,,,63,127
32548,note_on,1,0,0,,5,,,65,127
32548,note_on,0,0,0,,2,,,86,127
32607,note_off,59,0,0,,2,,,86,127
32608,note_on,1,0,0,,0,,,84,127
32667,note_off,59,0,0,,0,,,84,127
32667,note_off,0,0,0,,5,,,65,127
32668,note_on,1,0,0,,7,,,67,127
32668,note_on,0,0,0,,0,,,84,127
32727,note_off,59,0,0,,0,,,84,127
32728,note_on,1,0,0,,11,,,82,127
32787,note_off,59,0,0,,11,,,82,127
32787,note_off,0,0,0,,7,,,67,127
32788,note_on,1,0,0,,11,,,70,127
32788,note_on,0,0,0,,0,,,84,127
32847,note_off,59,0,0,,0,,,84,127
32848,note_on,1,0,0,,11,,,82,127
32907,note_off,59,0,0,,11,,,82,127
32907,note_off,0,0,0,,11,,,70,127
32908,note_on,1,0,0,,3,,,63,127
32908,note_on,0,0,0,,0,,,84,127
32967,note_off,59,0,0,,0,,,84,127
32968,note_on,1,0,0,,11,,,82,127
33027,note_off,59,0,0,,11,,,82,127
33027,note_off,0,0,0,,3,,,63,127
33028,note_on,1,0,0,,7,,,67,127
33028,note_on,0,0,0,,0,,,84,127
33087,note_off,59,0,0,,0,,,84,127
33088,note_on,1,0,0,,11,,,82,127
33147,note_off,59,0,0,,11,,,82,127
33147,note_off,0,0,0,,7,,,67,127
33148,note_on,1,0,0,,0,,,60,127
33148,note_on,0,0,0,,0,,,84,127
33207,note_off,59,0,0,,0,,,84,127
33208,note_on,1,0,0,,11,,,82,127
33267,note_off,59,0,0,,11,,,82,127
33267,note_off,0,0,0,,0,,,60,127
33268,note_on,1,0,0,,3,,,63,127
33268,note_on,0,0,0,,0,,,84,127
33327,note_off,59,0,0,,0,,,84,127
33328,note_on,1,0,0,,11,,,82,127
33387,note_off,59,0,0,,11,,,82,127
33387,note_off,0,0,0,,3,,,63,127
33388,note_on,1,0,0,,5,,,65,127
33388,note_on,0,0,0,,11,,,82,127
33447,note_off,59,0,0,,11,,,82,127
33448,note_on,1,0,0,,8,,,80,127
33507,note_off,59,0,0,,8,,,80,127
33507,note_off,0,0,0,,5,,,65,127
33508,note_on,1,0,0,,8,,,68,127
33508,note_on,0,0,0,,11,,,82,127
33567,note_off,59,0,0,,11,,,82,127
33568,note_on,1,0,0,,8,,,80,127
33627,note_off,59,0,0,,8,,,80,127
33627,note_off,0,0,0,,8,,,68,127
33628,note_on,1,0,0,,2,,,62,127
33628,note_on,0,0,0,,11,,,82,127
33687,note_off,59,0,0,,11,,,82,127
33688,note_on,1,0,0,,8,,,80,127
33747,note_off,59,0,0,,8,,,80,127
33747,note_off,0,0,0,,2,,,62,127
33748,note_on,1,0,0,,5,,,65,127
33748,note_on,0,0,0,,11,,,82,127
33807,note_off,59,0,0,,11,,,82,127
33808,note_on,1,0,0,,8,,,80,127
33867,note_off,59,0,0,,8,,,80,127
33867,note_off,0,0,0,,5,,,65,127
33868,note_on,1,0,0,,11,,,58,127
33868,note_on,0,0,0,,11,,,82,127
33927,note_off,59,0,0,,11,,,82,127
33928,note_on,1,0,0,,8,,,80,127
33987,note_off,59,0,0,,8,,,80,127
33987,note_off,0,0,0,,11,,,58,127
33988,note_on,1,0,0,,2,,,62,127
33988,note_on,0,0,0,,11,,,82,127
34047,note_off,59,0,0,,11,,,82,127
34048,note_on,1,0,0,,8,,,80,127
34107,note_off,59,0,0,,8,,,80,127
34107,note_off,0,0,0,,2,,,62,127
34108,note_on,1,0,0,,3,,,63,127
34108,note_on,0,0,0,,8,,,80,127
34167,note_off,59,0,0,,8,,,80,127
34168,note_on,1,0,0,,7,,,79,127
34227,note_off,59,0,0,,7,,,79,127
34227,note_off,0,0,0,,3,,,63,127
34228,note_on,1,0,0,,7,,,67,127
34228,note_on,0,0,0,,8,,,80,127
34287,note_off,59,0,0,,8,,,80,127
34288,note_on,1,0,0,,7,,,79,127
34347,note_off,59,0,0,,7,,,79,127
34347,note_off,0,0,0,,7,,,67,127
34348,note_on,1,0,0,,0,,,60,127
34348,note_on,0,0,0,,8,,,80,127
34407,note_off,59,0,0,,8,,,80,127
34408,note_on,1,0,0,,7,,,79,127
34467,note_off,59,0,0,,7,,,79,127
34467,note_off,0,0,0,,0,,,60,127
34468,note_on,1,0,0,,3,,,63,127
34468,note_on,0,0,0,,8,,,80,127
34527,note_off,59,0,0,,8,,,80,127
34528,note_on,1,0,0,,7,,,79,127
34587,note_off,59,0,0,,7,,,79,127
34587,note_off,0,0,0,,3,,,63,127
34588,note_on,1,0,0,,8,,,56,127
34588,note_on,0,0,0,,8,,,80,127
34647,note_off,59,0,0,,8,,,80,127
34648,note_on,1,0,0,,7,,,79,127
34707,note_off,59,0,0,,7,,,79,127
34707,note_off,0,0,0,,8,,,56,127
34708,note_on,1,0,0,,0,,,60,127
34708,note_on,0,0,0,,8,,,80,127
34767,note_off,59,0,0,,8,,,80,127
34768,note_on,1,0,0,,7,,,79,127
34827,note_off,59,0,0,,7,,,79,127
34827,note_off,0,0,0,,0,,,60,127
34828,note_on,1,0,0,,2,,,62,127
34828,note_on,0,0,0,,7,,,79,127
34887,note_off,59,0,0,,7,,,79,127
34888,note_on,1,0,0,,5,,,77,127
34947,note_off,59,0,0,,5,,,77,127
34947,note_off,0,0,0,,2,,,62,127
34948,note_on,1,0,0,,5,,,65,127
34948,note_on,0,0,0,,7,,,79,127
35007,note_off,59,0,0,,7,,,79,127
35008,note_on,1,0,0,,5,,,77,127
35067,note_off,59,0,0,,5,,,77,127
35067,note_off,0,0,0,,5,,,65,127
35068,note_on,1,0,0,,12,,,59,127
35068,note_on,0,0,0,,7,,,79,127
35127,note_off,59,0,0,,7,,,79,127
35128,note_on,1,0,0,,5,,,77,127
35187,note_off,59,0,0,,5,,,77,127
35187,note_off,0,0,0,,12,,,59,127
35188,note_on,1,0,0,,2,,,62,127
35188,note_on,0,0,0,,7,,,79,127
35247,note_off,59,0,0,,7,,,79,127
35248,note_on,1,0,0,,5,,,77,127
35307,note_off,59,0,0,,5,,,77,127
35307,note_off,0,0,0,,2,,,62,127
35308,note_on,1,0,0,,7,,,55,127
35308,note_on,0,0,0,,7,,,79,127
35367,note_off,59,0,0,,7,,,79,127
35368,note_on,1,0,0,,5,,,77,127
35427,note_off,59,0,0,,5,,,77,127
35427,note_off,0,0,0,,7,,,55,127
35428,note_on,1,0,0,,12,,,59,127
35428,note_on,0,0,0,,7,,,79,127
35487,note_off,59,0,0,,7,,,79,127
35488,note_on,1,0,0,,5,,,77,127
35547,note_off,59,0,0,,5,,,77,127
35547,note_off,0,0,0,,12,,,59,127
35548,note_on,1,0,0,,0,,,60,127
35548,note_on,0,0,0,,5,,,77,127
35607,note_off,59,0,0,,5,,,77,127
35608,note_on,1,0,0,,3,,,75,127
35667,note_off,59,0,0,,3,,,75,127
35668,note_on,1,0,0,,2,,,74,127
35788,note_off,120,0,0,,2,,,74,127
35788,note_off,0,0,0,,0,,,60,127
35789,note_on,1,0,0,,2,,,62,127
35789,note_on,0,0,0,,3,,,75,127
35909,note_off,120,0,0,,3,,,75,127
35910,note_on,1,0,0,,5,,,77,127
36030,note_off,120,0,0,,5,,,77,127
36030,note_off,0,0,0,,2,,,62,127
36031,note_on,1,0,0,,3,,,63,127
36031,note_on,0,0,0,,7,,,79,127
36151,note_off,120,0,0,,7,,,79,127
36152,note_on,1,0,0,,0,,,72,127
36272,note_off,120,0,0,,0,,,72,127
36272,note_off,0,0,0,,3,,,63,127
36273,note_on,1,0,0,,5,,,65,127
36273,note_on,0,0,0,,2,,,74,127
36393,note_off,120,0,0,,2,,,74,127
36394,note_on,1,0,0,,5,,,77,127
36514,note_off,120,0,0,,5,,,77,127
36514,note_off,0,0,0,,5,,,65,127
36515,note_on,1,0,0,,7,,,67,127
36515,note_on,0,0,0,,3,,,75,127
36635,note_off,120,0,0,,3,,,75,127
36636,note_on,1,0,0,,2,,,74,127
36756,note_off,120,0,0,,2,,,74,127
36757,note_on,1,0,0,,7,,,55,127
36757,note_on,0,0,0,,0,,,72,127
36877,note_off,120,0,0,,0,,,72,127
36878,note_on,1,0,0,,12,,,71,127
36994,note_off,116,0,0,,7,,,67,127
36998,note_off,4,0,0,,12,,,71,127
36998,note_off,0,0,0,,7,,,55,127
36999,note_on,1,0,0,,0,,,60,127
36999,note_on,0,0,0,,8,,,68,127
36999,note_on,0,0,0,,5,,,65,127
36999,note_on,0,0,0,,0,,,72,127
36999,note_on,0,0,0,,3,,,75,127
37119,note_off,120,0,0,,0,,,72,127
37120,note_on,1,0,0,,12,,,71,127
37240,note_off,120,0,0,,12,,,71,127
37240,note_off,0,0,0,,5,,,65,127
37240,note_off,0,0,0,,8,,,68,127
37240,note_off,0,0,0,,0,,,60,127
37241,note_on,1,0,0,,0,,,60,127
37241,note_on,0,0,0,,8,,,68,127
37241,note_on,0,0,0,,5,,,65,127
37241,note_on,0,0,0,,0,,,72,127
37361,note_off,120,0,0,,0,,,72,127
37362,note_on,1,0,0,,12,,,71,127
37482,note_off,120,0,0,,12,,,71,127
37482,note_off,0,0,0,,5,,,65,127
37482,note_off,0,0,0,,8,,,68,127
37482,note_off,0,0,0,,0,,,60,127
37483,note_on,1,0,0,,0,,,60,127
37483,note_on,0,0,0,,8,,,68,127
37483,note_on,0,0,0,,5,,,65,127
37483,note_on,0,0,0,,0,,,72,127
37603,note_off,120,0,0,,0,,,72,127
37604,note_on,1,0,0,,12,,,71,127
37724,note_off,120,0,0,,12,,,71,127
37724,note_off,0,0,0,,5,,,65,127
37724,note_off,0,0,0,,8,,,68,127
37724,note_off,0,0,0,,0,,,60,127
37724,note_off,0,0,0,,3,,,75,127
37725,note_on,1,0,0,,12,,,59,127
37725,note_on,0,0,0,,7,,,67,127
37725,note_on,0,0,0,,5,,,65,127
37725,note_on,0,0,0,,5,,,77,127
37725,note_on,0,0,0,,2,,,74,127
37845,note_off,120,0,0,,2,,,74,127
37846,note_on,1,0,0,,0,,,72,127
37966,note_off,120,0,0,,0,,,72,127
37966,note_off,0,0,0,,5,,,65,127
37966,note_off,0,0,0,,7,,,67,127
37966,note_off,0,0,0,,12,,,59,127
37967,note_on,1,0,0,,5,,,65,127
37967,note_on,0,0,0,,12,,,59,127
37967,note_on,0,0,0,,7,,,67,127
37967,note_on,0,0,0,,2,,,74,127
38087,note_off,120,0,0,,2,,,74,127
38088,note_on,1,0,0,,0,,,72,127
38208,note_off,120,0,0,,0,,,72,127
38208,note_off,0,0,0,,7,,,67,127
38208,note_off,0,0,0,,12,,,59,127
38208,note_off,0,0,0,,5,,,65,127
38209,note_on,1,0,0,,5,,,65,127
38209,note_on,0,0,0,,12,,,59,127
38209,note_on,0,0,0,,7,,,67,127
38209,note_on,0,0,0,,2,,,74,127
38329,note_off,120,0,0,,2,,,74,127
38330,note_on,1,0,0,,0,,,72,127
38450,note_off,120,0,0,,0,,,72,127
38450,note_off,0,0,0,,7,,,67,127
38450,note_off,0,0,0,,12,,,59,127
38450,note_off,0,0,0,,5,,,65,127
38450,note_off,0,0,0,,5,,,77,127
38451,note_on,1,0,0,,0,,,60,127
38451,note_on,0,0,0,,8,,,68,127
38451,note_on,0,0,0,,5,,,65,127
38451,note_on,0,0,0,,3,,,75,127
38451,note_on,0,0,0,,0,,,72,127
38571,note_off,120,0,0,,0,,,72,127
38572,note_on,1,0,0,,12,,,71,127
38692,note_off,120,0,0,,12,,,71,127
38692,note_off,0,0,0,,5,,,65,127
38692,note_off,0,0,0,,8,,,68,127
38692,note_off,0,0,0,,0,,,60,127
38693,note_on,1,0,0,,0,,,60,127
38693,note_on,0,0,0,,8,,,68,127
38693,note_on,0,0,0,,5,,,65,127
38693,note_on,0,0,0,,0,,,72,127
38813,note_off,120,0,0,,0,,,72,127
38814,note_on,1,0,0,,12,,,71,127
38934,note_off,120,0,0,,12,,,71,127
38934,note_off,0,0,0,,5,,,65,127
38934,note_off,0,0,0,,8,,,68,127
38934,note_off,0,0,0,,0,,,60,127
38935,note_on,1,0,0,,0,,,60,127
38935,note_on,0,0,0,,8,,,68,127
38935,note_on,0,0,0,,5,,,65,127
38935,note_on,0,0,0,,0,,,72,127
39055,note_off,120,0,0,,0,,,72,127
39056,note_on,1,0,0,,12,,,71,127
39176,note_off,120,0,0,,12,,,71,127
39176,note_off,0,0,0,,5,,,65,127
39176,note_off,0,0,0,,8,,,68,127
39176,note_off,0,0,0,,0,,,60,127
39176,note_off,0,0,0,,3,,,75,127
39177,note_on,1,0,0,,5,,,65,127
39177,note_on,0,0,0,,12,,,59,127
39177,note_on,0,0,0,,7,,,67,127
39177,note_on,0,0,0,,5,,,77,127
39177,note_on,0,0,0,,2,,,74,127
39297,note_off,120,0,0,,2,,,74,127
39298,note_on,1,0,0,,0,,,72,127
39418,note_off,120,0,0,,0,,,72,127
39418,note_off,0,0,0,,7,,,67,127
39418,note_off,0,0,0,,12,,,59,127
39418,note_off,0,0,0,,5,,,65,127
39419,note_on,1,0,0,,5,,,65,127
39419,note_on,0,0,0,,12,,,59,127
39419,note_on,0,0,0,,7,,,67,127
39419,note_on,0,0,0,,2,,,74,127
39539,note_off,120,0,0,,2,,,74,127
39540,note_on,1,0,0,,0,,,72,127
39660,note_off,120,0,0,,0,,,72,127
39660,note_off,0,0,0,,7,,,67,127
39660,note_off,0,0,0,,12,,,59,127
39660,note_off,0,0,0,,5,,,65,127
39661,note_on,1,0,0,,12,,,59,127
39661,note_on,0,0,0,,7,,,67,127
39661,note_on,0,0,0,,5,,,65,127
39661,note_on,0,0,0,,2,,,74,127
39781,note_off,120,0,0,,2,,,74,127
39782,note_on,1,0,0,,0,,,72,127
39902,note_off,120,0,0,,0,,,72,127
39902,note_off,0,0,0,,5,,,65,127
39902,note_off,0,0,0,,7,,,67,127
39902,note_off,0,0,0,,12,,,59,127
39902,note_off,0,0,0,,5,,,77,127
39903,note_on,1,0,0,,7,,,55,127
39903,note_on,0,0,0,,0,,,48,127
39903,note_on,0,0,0,,11,,,58,127
39903,note_on,0,0,0,,4,,,76,127
39903,note_on,0,0,0,,7,,,79,127
39903,note_on,0,0,0,,1,,,73,127
40023,note_off,120,0,0,,1,,,73,127
40024,note_on,1,0,0,,0,,,72,127
40144,note_off,120,0,0,,0,,,72,127
40144,note_off,0,0,0,,11,,,58,127
40144,note_off,0,0,0,,0,,,48,127
40144,note_off,0,0,0,,7,,,55,127
40145,note_on,1,0,0,,0,,,48,127
40145,note_on,0,0,0,,7,,,55,127
40145,note_on,0,0,0,,11,,,58,127
40145,note_on,0,0,0,,1,,,73,127
40265,note_off,120,0,0,,1,,,73,127
40266,note_on,1,0,0,,0,,,72,127
40386,note_off,120,0,0,,0,,,72,127
40386,note_off,0,0,0,,11,,,58,127
40386,note_off,0,0,0,,7,,,55,127
40386,note_off,0,0,0,,0,,,48,127
40387,note_on,1,0,0,,7,,,55,127
40387,note_on,0,0,0,,0,,,48,127
40387,note_on,0,0,0,,11,,,58,127
40387,note_on,0,0,0,,1,,,73,127
40507,note_off,120,0,0,,1,,,73,127
40508,note_on,1,0,0,,0,,,72,127
40628,note_off,120,0,0,,0,,,72,127
40628,note_off,0,0,0,,11,,,58,127
40628,note_off,0,0,0,,0,,,48,127
40628,note_off,0,0,0,,7,,,55,127
40628,note_off,0,0,0,,7,,,79,127
40628,note_off,0,0,0,,4,,,76,127
40629,note_on,1,0,0,,5,,,53,127
40629,note_on,0,0,0,,0,,,48,127
40629,note_on,0,0,0,,8,,,56,127
40629,note_on,0,0,0,,0,,,72,127
40629,note_on,0,0,0,,5,,,77,127
40749,note_off,120,0,0,,0,,,72,127
40750,note_on,1,0,0,,12,,,71,127
40870,note_off,120,0,0,,12,,,71,127
40870,note_off,0,0,0,,8,,,56,127
40870,note_off,0,0,0,,0,,,48,127
40870,note_off,0,0,0,,5,,,53,127
40871,note_on,1,0,0,,5,,,53,127
40871,note_on,0,0,0,,0,,,48,127
40871,note_on,0,0,0,,8,,,56,127
40871,note_on,0,0,0,,0,,,72,127
40991,note_off,120,0,0,,0,,,72,127
40992,note_on,1,0,0,,12,,,71,127
41112,note_off,120,0,0,,12,,,71,127
41112,note_off,0,0,0,,8,,,56,127
41112,note_off,0,0,0,,0,,,48,127
41112,note_off,0,0,0,,5,,,53,127
41113,note_on,1,0,0,,8,,,56,127
41113,note_on,0,0,0,,5,,,53,127
41113,note_on,0,0,0,,0,,,48,127
41113,note_on,0,0,0,,0,,,72,127
41233,note_off,120,0,0,,0,,,72,127
41234,note_on,1,0,0,,12,,,71,127
41354,note_off,120,0,0,,12,,,71,127
41354,note_off,0,0,0,,0,,,48,127
41354,note_off,0,0,0,,5,,,53,127
41354,note_off,0,0,0,,8,,,56,127
41354,note_off,0,0,0,,5,,,77,127
41355,note_on,1,0,0,,7,,,55,127
41355,note_on,0,0,0,,11,,,58,127
41355,note_on,0,0,0,,0,,,48,127
41355,note_on,0,0,0,,1,,,73,127
41355,note_on,0,0,0,,4,,,76,127
41355,note_on,0,0,0,,7,,,79,127
41475,note_off,120,0,0,,1,,,73,127
41476,note_on,1,0,0,,0,,,72,127
41596,note_off,120,0,0,,0,,,72,127
41596,note_off,0,0,0,,0,,,48,127
41596,note_off,0,0,0,,11,,,58,127
41596,note_off,0,0,0,,7,,,55,127
41597,note_on,1,0,0,,11,,,58,127
41597,note_on,0,0,0,,7,,,55,127
41597,note_on,0,0,0,,0,,,48,127
41597,note_on,0,0,0,,1,,,73,127
41717,note_off,120,0,0,,1,,,73,127
41718,note_on,1,0,0,,0,,,72,127
41838,note_off,120,0,0,,0,,,72,127
41838,note_off,0,0,0,,0,,,48,127
41838,note_off,0,0,0,,7,,,55,127
41838,note_off,0,0,0,,11,,,58,127
41839,note_on,1,0,0,,7,,,55,127
41839,note_on,0,0,0,,0,,,48,127
41839,note_on,0,0,0,,11,,,58,127
41839,note_on,0,0,0,,1,,,73,127
41959,note_off,120,0,0,,1,,,73,127
41960,note_on,1,0,0,,0,,,72,127
42080,note_off,120,0,0,,0,,,72,127
42080,note_off,0,0,0,,11,,,58,127
42080,note_off,0,0,0,,0,,,48,127
42080,note_off,0,0,0,,7,,,55,127
42080,note_off,0,0,0,,7,,,79,127
42080,note_off,0,0,0,,4,,,76,127
42081,note_on,1,0,0,,0,,,48,127
42081,note_on,0,0,0,,5,,,53,127
42081,note_on,0,0,0,,8,,,56,127
42081,note_on,0,0,0,,5,,,77,127
42081,note_on,0,0,0,,0,,,72,127
42201,note_off,120,0,0,,0,,,72,127
42202,note_on,1,0,0,,12,,,71,127
42322,note_off,120,0,0,,12,,,71,127
42322,note_off,0,0,0,,8,,,56,127
42322,note_off,0,0,0,,5,,,53,127
42322,note_off,0,0,0,,0,,,48,127
42323,note_on,1,0,0,,0,,,48,127
42323,note_on,0,0,0,,5,,,53,127
42323,note_on,0,0,0,,8,,,56,127
42323,note_on,0,0,0,,0,,,72,127
42443,note_off,120,0,0,,0,,,72,127
42444,note_on,1,0,0,,12,,,71,127
42564,note_off,120,0,0,,12,,,71,127
42564,note_off,0,0,0,,8,,,56,127
42564,note_off,0,0,0,,5,,,53,127
42564,note_off,0,0,0,,0,,,48,127
42565,note_on,1,0,0,,5,,,53,127
42565,note_on,0,0,0,,0,,,48,127
42565,note_on,0,0,0,,8,,,56,127
42565,note_on,0,0,0,,0,,,72,127
42685,note_off,120,0,0,,0,,,72,127
42686,note_on,1,0,0,,12,,,71,127
42806,note_off,120,0,0,,12,,,71,127
42806,note_off,0,0,0,,8,,,56,127
42806,note_off,0,0,0,,0,,,48,127
42806,note_off,0,0,0,,5,,,53,127
42806,note_off,0,0,0,,5,,,77,127
42807,note_on,1,0,0,,7,,,55,127
42807,note_on,0,0,0,,5,,,53,127
42807,note_on,0,0,0,,12,,,47,127
42807,note_on,0,0,0,,2,,,86,127
42807,note_on,0,0,0,,5,,,77,127
42927,note_off,120,0,0,,5,,,77,127
42928,note_on,1,0,0,,2,,,74,127
43048,note_off,120,0,0,,2,,,74,127
43048,note_off,0,0,0,,12,,,47,127
43048,note_off,0,0,0,,5,,,53,127
43048,note_off,0,0,0,,7,,,55,127
43049,note_on,1,0,0,,7,,,55,127
43049,note_on,0,0,0,,5,,,53,127
43049,note_on,0,0,0,,12,,,47,127
43049,note_on,0,0,0,,5,,,77,127
43169,note_off,120,0,0,,5,,,77,127
43170,note_on,1,0,0,,2,,,74,127
43290,note_off,120,0,0,,2,,,74,127
43290,note_off,0,0,0,,12,,,47,127
43290,note_off,0,0,0,,5,,,53,127
43290,note_off,0,0,0,,7,,,55,127
43291,note_on,1,0,0,,5,,,53,127
43291,note_on,0,0,0,,12,,,47,127
43291,note_on,0,0,0,,7,,,55,127
43291,note_on,0,0,0,,5,,,77,127
43411,note_off,120,0,0,,5,,,77,127
43412,note_on,1,0,0,,2,,,74,127
43532,note_off,120,0,0,,2,,,74,127
43532,note_off,0,0,0,,7,,,55,127
43532,note_off,0,0,0,,12,,,47,127
43532,note_off,0,0,0,,5,,,53,127
43532,note_off,0,0,0,,2,,,86,127
43533,note_on,1,0,0,,5,,,53,127
43533,note_on,0,0,0,,0,,,48,127
43533,note_on,0,0,0,,8,,,56,127
43533,note_on,0,0,0,,0,,,84,127
43533,note_on,0,0,0,,5,,,77,127
43653,note_off,120,0,0,,5,,,77,127
43654,note_on,1,0,0,,0,,,72,127
43774,note_off,120,0,0,,0,,,72,127
43774,note_off,0,0,0,,8,,,56,127
43774,note_off,0,0,0,,0,,,48,127
43774,note_off,0,0,0,,5,,,53,127
43775,note_on,1,0,0,,8,,,56,127
43775,note_on,0,0,0,,5,,,53,127
43775,note_on,0,0,0,,0,,,48,127
43775,note_on,0,0,0,,8,,,80,127
43895,note_off,120,0,0,,8,,,80,127
43896,note_on,1,0,0,,0,,,72,127
44016,note_off,120,0,0,,0,,,72,127
44016,note_off,0,0,0,,0,,,48,127
44016,note_off,0,0,0,,5,,,53,127
44016,note_off,0,0,0,,8,,,56,127
44017,note_on,1,0,0,,0,,,48,127
44017,note_on,0,0,0,,5,,,53,127
44017,note_on,0,0,0,,8,,,56,127
44017,note_on,0,0,0,,5,,,77,127
44137,note_off,120,0,0,,5,,,77,127
44138,note_on,1,0,0,,0,,,72,127
44258,note_off,120,0,0,,0,,,72,127
44258,note_off,0,0,0,,8,,,56,127
44258,note_off,0,0,0,,5,,,53,127
44258,note_off,0,0,0,,0,,,48,127
44258,note_off,0,0,0,,0,,,84,127
44259,note_on,1,0,0,,7,,,55,127
44259,note_on,0,0,0,,5,,,53,127
44259,note_on,0,0,0,,12,,,47,127
44259,note_on,0,0,0,,5,,,77,127
44259,note_on,0,0,0,,2,,,86,127
44379,note_off,120,0,0,,5,,,77,127
44380,note_on,1,0,0,,2,,,74,127
44500,note_off,120,0,0,,2,,,74,127
44500,note_off,0,0,0,,12,,,47,127
44500,note_off,0,0,0,,5,,,53,127
44500,note_off,0,0,0,,7,,,55,127
44501,note_on,1,0,0,,12,,,47,127
44501,note_on,0,0,0,,5,,,53,127
44501,note_on,0,0,0,,7,,,55,127
44501,note_on,0,0,0,,5,,,77,127
44621,note_off,120,0,0,,5,,,77,127
44622,note_on,1,0,0,,2,,,74,127
44742,note_off,120,0,0,,2,,,74,127
44742,note_off,0,0,0,,7,,,55,127
44742,note_off,0,0,0,,5,,,53,127
44742,note_off,0,0,0,,12,,,47,127
44743,note_on,1,0,0,,5,,,53,127
44743,note_on,0,0,0,,12,,,47,127
44743,note_on,0,0,0,,7,,,55,127
44743,note_on,0,0,0,,5,,,77,127
44863,note_off,120,0,0,,5,,,77,127
44864,note_on,1,0,0,,2,,,74,127
44984,note_off,120,0,0,,2,,,74,127
44984,note_off,0,0,0,,7,,,55,127
44984,note_off,0,0,0,,12,,,47,127
44984,note_off,0,0,0,,5,,,53,127
44984,note_off,0,0,0,,2,,,86,127
44985,note_on,1,0,0,,0,,,48,127
44985,note_on,0,0,0,,8,,,56,127
44985,note_on,0,0,0,,5,,,53,127
44985,note_on,0,0,0,,5,,,77,127
44985,note_on,0,0,0,,0,,,84,127
45105,note_off,120,0,0,,5,,,77,127
45106,note_on,1,0,0,,0,,,72,127
45226,note_off,120,0,0,,0,,,72,127
45226,note_off,0,0,0,,5,,,53,127
45226,note_off,0,0,0,,8,,,56,127
45226,note_off,0,0,0,,0,,,48,127
45227,note_on,1,0,0,,0,,,48,127
45227,note_on,0,0,0,,8,,,56,127
45227,note_on,0,0,0,,5,,,53,127
45227,note_on,0,0,0,,8,,,80,127
45347,note_off,120,0,0,,8,,,80,127
45348,note_on,1,0,0,,0,,,72,127
45468,note_off,120,0,0,,0,,,72,127
45468,note_off,0,0,0,,5,,,53,127
45468,note_off,0,0,0,,8,,,56,127
45468,note_off,0,0,0,,0,,,48,127
45469,note_on,1,0,0,,0,,,48,127
45469,note_on,0,0,0,,5,,,53,127
45469,note_on,0,0,0,,8,,,56,127
45469,note_on,0,0,0,,5,,,77,127
45589,note_off,120,0,0,,5,,,77,127
45590,note_on,1,0,0,,0,,,72,127
45710,note_off,120,0,0,,0,,,72,127
45710,note_off,0,0,0,,8,,,56,127
45710,note_off,0,0,0,,5,,,53,127
45710,note_off,0,0,0,,0,,,48,127
45710,note_off,0,0,0,,0,,,84,127
45711,note_on,1,0,0,,7,,,55,127
45711,note_on,0,0,0,,5,,,53,127
45711,note_on,0,0,0,,12,,,47,127
45711,note_on,0,0,0,,5,,,77,127
45711,note_on,0,0,0,,2,,,86,127
45831,note_off,120,0,0,,5,,,77,127
45832,note_on,1,0,0,,2,,,74,127
45952,note_off,120,0,0,,2,,,74,127
45952,note_off,0,0,0,,12,,,47,127
45952,note_off,0,0,0,,5,,,53,127
45952,note_off,0,0,0,,7,,,55,127
45953,note_on,1,0,0,,5,,,53,127
45953,note_on,0,0,0,,7,,,55,127
45953,note_on,0,0,0,,12,,,47,127
45953,note_on,0,0,0,,5,,,77,127
46073,note_off,120,0,0,,5,,,77,127
46074,note_on,1,0,0,,2,,,74,127
46194,note_off,120,0,0,,2,,,74,127
46194,note_off,0,0,0,,12,,,47,127
46194,note_off,0,0,0,,7,,,55,127
46194,note_off,0,0,0,,5,,,53,127
46195,note_on,1,0,0,,5,,,53,127
46195,note_on,0,0,0,,12,,,47,127
46195,note_on,0,0,0,,7,,,55,127
46195,note_on,0,0,0,,5,,,77,127
46315,note_off,120,0,0,,5,,,77,127
46316,note_on,1,0,0,,2,,,74,127
46326,note_off,10,0,0,,2,,,86,127
46436,note_off,110,0,0,,2,,,74,127
46436,note_off,0,0,0,,7,,,55,127
46436,note_off,0,0,0,,12,,,47,127
46436,note_off,0,0,0,,5,,,53,127
46437,note_on,1,0,0,,0,,,48,127
46437,note_on,0,0,0,,5,,,77,127
46496,note_off,59,0,0,,5,,,77,127
46497,note_on,1,0,0,,3,,,75,127
46556,note_off,59,0,0,,3,,,75,127
46557,note_on,1,0,0,,2,,,74,127
46677,note_off,120,0,0,,2,,,74,127
46677,note_off,0,0,0,,0,,,48,127
46678,note_on,1,0,0,,2,,,50,127
46678,note_on,0,0,0,,3,,,75,127
46798,note_off,120,0,0,,3,,,75,127
46799,note_on,1,0,0,,5,,,77,127
46919,note_off,120,0,0,,5,,,77,127
46919,note_off,0,0,0,,2,,,50,127
46920,note_on,1,0,0,,3,,,51,127
46920,note_on,0,0,0,,7,,,79,127
47040,note_off,120,0,0,,7,,,79,127
47041,note_on,1,0,0,,0,,,72,127
47161,note_off,120,0,0,,0,,,72,127
47161,note_off,0,0,0,,3,,,51,127
47162,note_on,1,0,0,,5,,,53,127
47162,note_on,0,0,0,,2,,,74,127
47282,note_off,120,0,0,,2,,,74,127
47283,note_on,1,0,0,,5,,,77,127
47403,note_off,120,0,0,,5,,,77,127
47403,note_off,0,0,0,,5,,,53,127
47404,note_on,1,0,0,,7,,,55,127
47404,note_on,0,0,0,,3,,,75,127
47524,note_off,120,0,0,,3,,,75,127
47525,note_on,1,0,0,,2,,,74,127
47645,note_off,120,0,0,,2,,,74,127
47646,note_on,1,0,0,,7,,,43,127
47646,note_on,0,0,0,,0,,,72,127
47766,note_off,120,0,0,,0,,,72,127
47767,note_on,1,0,0,,12,,,71,127
47883,note_off,116,0,0,,7,,,55,127
47887,note_off,4,0,0,,12,,,71,127
47887,note_off,0,0,0,,7,,,43,127
47888,note_on,1,0,0,,0,,,48,127
47888,note_on,0,0,0,,0,,,84,127
47888,note_on,0,0,0,,0,,,72,127
48008,note_off,120,0,0,,0,,,48,127
48009,note_on,1,0,0,,12,,,47,127
48129,note_off,120,0,0,,12,,,47,127
48130,note_on,1,0,0,,0,,,48,127
48250,note_off,120,0,0,,0,,,48,127
48251,note_on,1,0,0,,2,,,50,127
48371,note_off,120,0,0,,2,,,50,127
48372,note_on,1,0,0,,3,,,51,127
48492,note_off,120,0,0,,3,,,51,127
48493,note_on,1,0,0,,5,,,53,127
48613,note_off,120,0,0,,5,,,53,127
48613,note_off,0,0,0,,0,,,72,127
48613,note_off,0,0,0,,0,,,84,127
48614,note_on,1,0,0,,7,,,43,127
48614,note_on,0,0,0,,11,,,70,127
48614,note_on,0,0,0,,11,,,82,127
48734,note_off,120,0,0,,7,,,43,127
48735,note_on,1,0,0,,7,,,55,127
48855,note_off,120,0,0,,7,,,55,127
48856,note_on,1,0,0,,11,,,58,127
48976,note_off,120,0,0,,11,,,58,127
48977,note_on,1,0,0,,7,,,55,127
49097,note_off,120,0,0,,7,,,55,127
49098,note_on,1,0,0,,3,,,51,127
49218,note_off,120,0,0,,3,,,51,127
49219,note_on,1,0,0,,0,,,48,127
49339,note_off,120,0,0,,0,,,48,127
49339,note_off,0,0,0,,11,,,82,127
49339,note_off,0,0,0,,11,,,70,127
49340,note_on,1,0,0,,5,,,41,127
49340,note_on,0,0,0,,8,,,80,127
49340,note_on,0,0,0,,8,,,68,127
49460,note_off,120,0,0,,5,,,41,127
49461,note_on,1,0,0,,5,,,53,127
49581,note_off,120,0,0,,5,,,53,127
49582,note_on,1,0,0,,8,,,56,127
49702,note_off,120,0,0,,8,,,56,127
49703,note_on,1,0,0,,5,,,53,127
49823,note_off,120,0,0,,5,,,53,127
49824,note_on,1,0,0,,2,,,50,127
49944,note_off,120,0,0,,2,,,50,127
49945,note_on,1,0,0,,11,,,46,127
50065,note_off,120,0,0,,11,,,46,127
50065,note_off,0,0,0,,8,,,68,127
50065,note_off,0,0,0,,8,,,80,127
50066,note_on,1,0,0,,3,,,39,127
50066,note_on,0,0,0,,7,,,67,127
50066,note_on,0,0,0,,7,,,79,127
50186,note_off,120,0,0,,3,,,39,127
50187,note_on,1,0,0,,3,,,51,127
50307,note_off,120,0,0,,3,,,51,127
50308,note_on,1,0,0,,7,,,55,127
50428,note_off,120,0,0,,7,,,55,127
50429,note_on,1,0,0,,3,,,51,127
50549,note_off,120,0,0,,3,,,51,127
50550,note_on,1,0,0,,0,,,48,127
50670,note_off,120,0,0,,0,,,48,127
50671,note_on,1,0,0,,8,,,44,127
50791,note_off,120,0,0,,8,,,44,127
50791,note_off,0,0,0,,7,,,79,127
50791,note_off,0,0,0,,7,,,67,127
50792,note_on,1,0,0,,2,,,38,127
50792,note_on,0,0,0,,5,,,65,127
50792,note_on,0,0,0,,5,,,77,127
50912,note_off,120,0,0,,2,,,38,127
50913,note_on,1,0,0,,2,,,50,127
51033,note_off,120,0,0,,2,,,50,127
51034,note_on,1,0,0,,5,,,53,127
51154,note_off,120,0,0,,5,,,53,127
51155,note_on,1,0,0,,2,,,50,127
51275,note_off,120,0,0,,2,,,50,127
51276,note_on,1,0,0,,12,,,47,127
51396,note_off,120,0,0,,12,,,47,127
51397,note_on,1,0,0,,7,,,43,127
51517,note_off,120,0,0,,7,,,43,127
51517,note_off,0,0,0,,5,,,77,127
51517,note_off,0,0,0,,5,,,65,127
51518,note_on,1,0,0,,0,,,36,127
51518,note_on,0,0,0,,0,,,48,127
51518,note_on,0,0,0,,5,,,77,127
51577,note_off,59,0,0,,5,,,77,127
51578,note_on,1,0,0,,3,,,75,127
51637,note_off,59,0,0,,3,,,75,127
51638,note_on,1,0,0,,2,,,74,127
51758,note_off,120,0,0,,2,,,74,127
51758,note_off,0,0,0,,0,,,48,127
51758,note_off,0,0,0,,0,,,36,127
51759,note_on,1,0,0,,2,,,38,127
51759,note_on,0,0,0,,2,,,50,127
51759,note_on,0,0,0,,3,,,75,127
51879,note_off,120,0,0,,3,,,75,127
51880,note_on,1,0,0,,5,,,77,127
52000,note_off,120,0,0,,5,,,77,127
52000,note_off,0,0,0,,2,,,50,127
52000,note_off,0,0,0,,2,,,38,127
52001,note_on,1,0,0,,3,,,39,127
52001,note_on,0,0,0,,3,,,51,127
52001,note_on,0,0,0,,7,,,79,127
52121,note_off,120,0,0,,7,,,79,127
52122,note_on,1,0,0,,0,,,72,127
52242,note_off,120,0,0,,0,,,72,127
52242,note_off,0,0,0,,3,,,51,127
52242,note_off,0,0,0,,3,,,39,127
52243,note_on,1,0,0,,5,,,53,127
52243,note_on,0,0,0,,2,,,74,127
52363,note_off,120,0,0,,2,,,74,127
52364,note_on,1,0,0,,5,,,77,127
52484,note_off,120,0,0,,5,,,77,127
52484,note_off,0,0,0,,5,,,53,127
52485,note_on,1,0,0,,7,,,55,127
52485,note_on,0,0,0,,3,,,75,127
52605,note_off,120,0,0,,3,,,75,127
52606,note_on,1,0,0,,2,,,74,127
52726,note_off,120,0,0,,2,,,74,127
52727,note_on,1,0,0,,7,,,43,127
52727,note_on,0,0,0,,0,,,72,127
52847,note_off,120,0,0,,0,,,72,127
52848,note_on,1,0,0,,12,,,71,127
52964,note_off,116,0,0,,7,,,55,127
52968,note_off,4,0,0,,12,,,71,127
52968,note_off,0,0,0,,7,,,43,127
52969,note_on,1,0,0,,0,,,48,127
52969,note_on,0,0,0,,0,,,84,127
52969,note_on,0,0,0,,0,,,72,127
53089,note_off,120,0,0,,0,,,48,127
53090,note_on,1,0,0,,12,,,47,127
53210,note_off,120,0,0,,12,,,47,127
53211,note_on,1,0,0,,0,,,48,127
53331,note_off,120,0,0,,0,,,48,127
53332,note_on,1,0,0,,2,,,50,127
53452,note_off,120,0,0,,2,,,50,127
53453,note_on,1,0,0,,3,,,51,127
53573,note_off,120,0,0,,3,,,51,127
53574,note_on,1,0,0,,5,,,53,127
53694,note_off,120,0,0,,5,,,53,127
53694,note_off,0,0,0,,0,,,72,127
53694,note_off,0,0,0,,0,,,84,127
53695,note_on,1,0,0,,7,,,43,127
53695,note_on,0,0,0,,11,,,70,127
53695,note_on,0,0,0,,11,,,82,127
53815,note_off,120,0,0,,7,,,43,127
53816,note_on,1,0,0,,7,,,55,127
53936,note_off,120,0,0,,7,,,55,127
53937,note_on,1,0,0,,11,,,58,127
54057,note_off,120,0,0,,11,,,58,127
54058,note_on,1,0,0,,7,,,55,127
54178,note_off,120,0,0,,7,,,55,127
54179,note_on,1,0,0,,3,,,51,127
54299,note_off,120,0,0,,3,,,51,127
54300,note_on,1,0,0,,0,,,48,127
54420,note_off,120,0,0,,0,,,48,127
54420,note_off,0,0,0,,11,,,82,127
54420,note_off,0,0,0,,11,,,70,127
54421,note_on,1,0,0,,5,,,41,127
54421,note_on,0,0,0,,8,,,80,127
54421,note_on,0,0,0,,8,,,68,127
54541,note_off,120,0,0,,5,,,41,127
54542,note_on,1,0,0,,5,,,53,127
54662,note_off,120,0,0,,5,,,53,127
54663,note_on,1,0,0,,8,,,56,127
54783,note_off,120,0,0,,8,,,56,127
54784,note_on,1,0,0,,5,,,53,127
54904,note_off,120,0,0,,5,,,53,127
54905,note_on,1,0,0,,2,,,50,127
55025,note_off,120,0,0,,2,,,50,127
55026,note_on,1,0,0,,11,,,46,127
55146,note_off,120,0,0,,11,,,46,127
55146,note_off,0,0,0,,8,,,68,127
55146,note_off,0,0,0,,8,,,80,127
55147,note_on,1,0,0,,3,,,39,127
55147,note_on,0,0,0,,7,,,79,127
55147,note_on,0,0,0,,7,,,67,127
55267,note_off,120,0,0,,3,,,39,127
55268,note_on,1,0,0,,3,,,51,127
55388,note_off,120,0,0,,3,,,51,127
55389,note_on,1,0,0,,7,,,55,127
55509,note_off,120,0,0,,7,,,55,127
55510,note_on,1,0,0,,3,,,51,127
55630,note_off,120,0,0,,3,,,51,127
55631,note_on,1,0,0,,0,,,48,127
55751,note_off,120,0,0,,0,,,48,127
55752,note_on,1,0,0,,8,,,44,127
55872,note_off,120,0,0,,8,,,44,127
55872,note_off,0,0,0,,7,,,67,127
55872,note_off,0,0,0,,7,,,79,127
55873,note_on,1,0,0,,2,,,38,127
55873,note_on,0,0,0,,5,,,65,127
55873,note_on,0,0,0,,5,,,77,127
55993,note_off,120,0,0,,2,,,38,127
55994,note_on,1,0,0,,2,,,50,127
56114,note_off,120,0,0,,2,,,50,127
56115,note_on,1,0,0,,5,,,53,127
56235,note_off,120,0,0,,5,,,53,127
56236,note_on,1,0,0,,2,,,50,127
56356,note_off,120,0,0,,2,,,50,127
56357,note_on,1,0,0,,12,,,47,127
56477,note_off,120,0,0,,12,,,47,127
56478,note_on,1,0,0,,7,,,43,127
56598,note_off,120,0,0,,7,,,43,127
56598,note_off,0,0,0,,5,,,77,127
56598,note_off,0,0,0,,5,,,65,127
56599,note_on,1,0,0,,0,,,36,127
56599,note_on,0,0,0,,0,,,48,127
56599,note_on,0,0,0,,5,,,77,127
56658,note_off,59,0,0,,5,,,77,127
56659,note_on,1,0,0,,3,,,75,127
56718,note_off,59,0,0,,3,,,75,127
56719,note_on,1,0,0,,2,,,74,127
56839,note_off,120,0,0,,2,,,74,127
56839,note_off,0,0,0,,0,,,48,127
56839,note_off,0,0,0,,0,,,36,127
56840,note_on,1,0,0,,2,,,38,127
56840,note_on,0,0,0,,2,,,50,127
56840,note_on,0,0,0,,3,,,75,127
56960,note_off,120,0,0,,3,,,75,127
56961,note_on,1,0,0,,5,,,77,127
57081,note_off,120,0,0,,5,,,77,127
57081,note_off,0,0,0,,2,,,50,127
57081,note_off,0,0,0,,2,,,38,127
57082,note_on,1,0,0,,3,,,39,127
57082,note_on,0,0,0,,3,,,51,127
57082,note_on,0,0,0,,7,,,79,127
57202,note_off,120,0,0,,7,,,79,127
57203,note_on,1,0,0,,0,,,72,127
57323,note_off,120,0,0,,0,,,72,127
57323,note_off,0,0,0,,3,,,51,127
57323,note_off,0,0,0,,3,,,39,127
57324,note_on,1,0,0,,5,,,53,127
57324,note_on,0,0,0,,2,,,74,127
57444,note_off,120,0,0,,2,,,74,127
57445,note_on,1,0,0,,5,,,77,127
57565,note_off,120,0,0,,5,,,77,127
57565,note_off,0,0,0,,5,,,53,127
57566,note_on,1,0,0,,7,,,55,127
57566,note_on,0,0,0,,3,,,75,127
57686,note_off,120,0,0,,3,,,75,127
57687,note_on,1,0,0,,2,,,74,127
57807,note_off,120,0,0,,2,,,74,127
57808,note_on,1,0,0,,7,,,43,127
57808,note_on,0,0,0,,0,,,72,127
57928,note_off,120,0,0,,0,,,72,127
57929,note_on,1,0,0,,12,,,71,127
58045,note_off,116,0,0,,7,,,55,127
58049,note_off,4,0,0,,12,,,71,127
58049,note_off,0,0,0,,7,,,43,127
58050,note_on,1,0,0,,0,,,48,127
58050,note_on,0,0,0,,0,,,72,127
58170,note_off,120,0,0,,0,,,72,127
58171,note_on,1,0,0,,7,,,79,127
58291,note_off,120,0,0,,7,,,79,127
58291,note_off,0,0,0,,0,,,48,127
58292,note_on,1,0,0,,5,,,53,127
58292,note_on,0,0,0,,8,,,80,127
58412,note_off,120,0,0,,8,,,80,127
58413,note_on,1,0,0,,5,,,77,127
58533,note_off,120,0,0,,5,,,77,127
58533,note_off,0,0,0,,5,,,53,127
58534,note_on,1,0,0,,7,,,55,127
58534,note_on,0,0,0,,3,,,75,127
58654,note_off,120,0,0,,3,,,75,127
58655,note_on,1,0,0,,2,,,74,127
58775,note_off,120,0,0,,2,,,74,127
58775,note_off,0,0,0,,7,,,55,127
58776,note_on,1,0,0,,0,,,60,127
58776,note_on,0,0,0,,3,,,75,127
58896,note_off,120,0,0,,3,,,75,127
58897,note_on,1,0,0,,7,,,79,127
59017,note_off,120,0,0,,7,,,79,127
59017,note_off,0,0,0,,0,,,60,127
59018,note_on,1,0,0,,5,,,53,127
59018,note_on,0,0,0,,5,,,77,127
59138,note_off,120,0,0,,5,,,77,127
59139,note_on,1,0,0,,2,,,74,127
59259,note_off,120,0,0,,2,,,74,127
59259,note_off,0,0,0,,5,,,53,127
59260,note_on,1,0,0,,7,,,55,127
59260,note_on,0,0,0,,0,,,72,127
59380,note_off,120,0,0,,0,,,72,127
59381,note_on,1,0,0,,12,,,71,127
59501,note_off,120,0,0,,12,,,71,127
59501,note_off,0,0,0,,7,,,55,127
59502,note_on,1,0,0,,0,,,48,127
59502,note_on,0,0,0,,0,,,72,127
59622,note_off,120,0,0,,0,,,72,127
59623,note_on,1,0,0,,7,,,67,127
59743,note_off,120,0,0,,7,,,67,127
59743,note_off,0,0,0,,0,,,48,127
59744,note_on,1,0,0,,5,,,41,127
59744,note_on,0,0,0,,8,,,68,127
59864,note_off,120,0,0,,8,,,68,127
59865,note_on,1,0,0,,5,,,65,127
59985,note_off,120,0,0,,5,,,65,127
59985,note_off,0,0,0,,5,,,41,127
59986,note_on,1,0,0,,7,,,43,127
59986,note_on,0,0,0,,3,,,63,127
60106,note_off,120,0,0,,3,,,63,127
60107,note_on,1,0,0,,2,,,62,127
60227,note_off,120,0,0,,2,,,62,127
60227,note_off,0,0,0,,7,,,43,127
60228,note_on,1,0,0,,0,,,48,127
60228,note_on,0,0,0,,3,,,63,127
60348,note_off,120,0,0,,3,,,63,127
60349,note_on,1,0,0,,7,,,67,127
60469,note_off,120,0,0,,7,,,67,127
60469,note_off,0,0,0,,0,,,48,127
60470,note_on,1,0,0,,5,,,41,127
60470,note_on,0,0,0,,5,,,65,127
60590,note_off,120,0,0,,5,,,65,127
60591,note_on,1,0,0,,2,,,62,127
60711,note_off,120,0,0,,2,,,62,127
60711,note_off,0,0,0,,5,,,41,127
60712,note_on,1,0,0,,7,,,43,127
60712,note_on,0,0,0,,0,,,60,127
60832,note_off,120,0,0,,0,,,60,127
60833,note_on,1,0,0,,12,,,59,127
60953,note_off,120,0,0,,12,,,59,127
60953,note_off,0,0,0,,7,,,43,127
60954,note_on,1,0,0,,0,,,36,127
60954,note_on,0,0,0,,12,,,59,127
61438,note_off,484,0,0,,12,,,59,127
61439,note_on,1,0,0,,0,,,60,127
61680,note_off,241,0,0,,0,,,60,127
61680,note_off,0,0,0,,0,,,36,127
61681,note_on,1,0,0,,0,,,60,127
61681,note_on,0,0,0,,5,,,77,127
61740,note_off,59,0,0,,5,,,77,127
61741,note_on,1,0,0,,3,,,75,127
61800,note_off,59,0,0,,3,,,75,127
61800,note_off,0,0,0,,0,,,60,127
61801,note_on,1,0,0,,3,,,63,127
61801,note_on,0,0,0,,5,,,77,127
61860,note_off,59,0,0,,5,,,77,127
61861,note_on,1,0,0,,3,,,75,127
61920,note_off,59,0,0,,3,,,75,127
61920,note_off,0,0,0,,3,,,63,127
61921,note_on,1,0,0,,10,,,57,127
61921,note_on,0,0,0,,5,,,77,127
61980,note_off,59,0,0,,5,,,77,127
61981,note_on,1,0,0,,3,,,75,127
62040,note_off,59,0,0,,3,,,75,127
62040,note_off,0,0,0,,10,,,57,127
62041,note_on,1,0,0,,0,,,60,127
62041,note_on,0,0,0,,5,,,77,127
62100,note_off,59,0,0,,5,,,77,127
62101,note_on,1,0,0,,3,,,75,127
62160,note_off,59,0,0,,3,,,75,127
62160,note_off,0,0,0,,0,,,60,127
62161,note_on,1,0,0,,6,,,54,127
62161,note_on,0,0,0,,5,,,77,127
62220,note_off,59,0,0,,5,,,77,127
62221,note_on,1,0,0,,3,,,75,127
62280,note_off,59,0,0,,3,,,75,127
62280,note_off,0,0,0,,6,,,54,127
62281,note_on,1,0,0,,10,,,57,127
62281,note_on,0,0,0,,5,,,77,127
62340,note_off,59,0,0,,5,,,77,127
62341,note_on,1,0,0,,3,,,75,127
62400,note_off,59,0,0,,3,,,75,127
62400,note_off,0,0,0,,10,,,57,127
62401,note_on,1,0,0,,0,,,48,127
62401,note_on,0,0,0,,5,,,77,127
62460,note_off,59,0,0,,5,,,77,127
62461,note_on,1,0,0,,3,,,75,127
62520,note_off,59,0,0,,3,,,75,127
62520,note_off,0,0,0,,0,,,48,127
62521,note_on,1,0,0,,3,,,51,127
62521,note_on,0,0,0,,5,,,77,127
62580,note_off,59,0,0,,5,,,77,127
62581,note_on,1,0,0,,3,,,75,127
62640,note_off,59,0,0,,3,,,75,127
62640,note_off,0,0,0,,3,,,51,127
62641,note_on,1,0,0,,10,,,45,127
62641,note_on,0,0,0,,5,,,77,127
62700,note_off,59,0,0,,5,,,77,127
62701,note_on,1,0,0,,3,,,75,127
62760,note_off,59,0,0,,3,,,75,127
62760,note_off,0,0,0,,10,,,45,127
62761,note_on,1,0,0,,0,,,48,127
62761,note_on,0,0,0,,5,,,77,127
62820,note_off,59,0,0,,5,,,77,127
62821,note_on,1,0,0,,3,,,75,127
62880,note_off,59,0,0,,3,,,75,127
62880,note_off,0,0,0,,0,,,48,127
62881,note_on,1,0,0,,6,,,42,127
62881,note_on,0,0,0,,5,,,77,127
62940,note_off,59,0,0,,5,,,77,127
62941,note_on,1,0,0,,3,,,75,127
63000,note_off,59,0,0,,3,,,75,127
63000,note_off,0,0,0,,6,,,42,127
63001,note_on,1,0,0,,10,,,45,127
63001,note_on,0,0,0,,5,,,77,127
63060,note_off,59,0,0,,5,,,77,127
63061,note_on,1,0,0,,3,,,75,127
63120,note_off,59,0,0,,10,,,45,127
63121,note_on,1,0,0,,2,,,38,127
63241,note_off,120,0,0,,3,,,75,127
63242,note_on,1,0,0,,2,,,74,127
63362,note_off,120,0,0,,2,,,74,127
63363,note_on,1,0,0,,0,,,72,127
63483,note_off,120,0,0,,0,,,72,127
63484,note_on,1,0,0,,11,,,70,127
63604,note_off,120,0,0,,11,,,70,127
63605,note_on,1,0,0,,10,,,69,127
63725,note_off,120,0,0,,10,,,69,127
63726,note_on,1,0,0,,7,,,67,127
63846,note_off,120,0,0,,7,,,67,127
63846,note_off,0,0,0,,2,,,38,127
63847,note_on,1,0,0,,2,,,38,127
63847,note_on,0,0,0,,6,,,66,127
63967,note_off,120,0,0,,6,,,66,127
63968,note_on,1,0,0,,7,,,67,127
64088,note_off,120,0,0,,7,,,67,127
64089,note_on,1,0,0,,10,,,69,127
64209,note_off,120,0,0,,10,,,69,127
64210,note_on,1,0,0,,11,,,70,127
64330,note_off,120,0,0,,11,,,70,127
64331,note_on,1,0,0,,0,,,72,127
64451,note_off,120,0,0,,0,,,72,127
64452,note_on,1,0,0,,2,,,74,127
64572,note_off,120,0,0,,2,,,74,127
64572,note_off,0,0,0,,2,,,38,127
64573,note_on,1,0,0,,2,,,38,127
64573,note_on,0,0,0,,0,,,72,127
64694,note_on,121,0,0,,10,,,81,127
64724,note_off,30,0,0,,0,,,72,127
64814,note_off,90,0,0,,10,,,81,127
64815,note_on,1,0,0,,11,,,70,127
64936,note_on,121,0,0,,7,,,79,127
64966,note_off,30,0,0,,11,,,70,127
65056,note_off,90,0,0,,7,,,79,127
65057,note_on,1,0,0,,10,,,69,127
65178,note_on,121,0,0,,6,,,78,127
65208,note_off,30,0,0,,10,,,69,127
65298,note_off,90,0,0,,6,,,78,127
65298,note_off,0,0,0,,2,,,38,127
65299,note_on,1,0,0,,7,,,43,127
65299,note_on,0,0,0,,7,,,79,127
65540,note_off,241,0,0,,7,,,79,127
65540,note_off,0,0,0,,7,,,43,127
65541,note_on,1,0,0,,11,,,58,127
65541,note_on,0,0,0,,11,,,70,127
65541,note_on,0,0,0,,2,,,74,127
65600,note_off,59,0,0,,11,,,70,127
65601,note_on,1,0,0,,10,,,69,127
65660,note_off,59,0,0,,10,,,69,127
65660,note_off,0,0,0,,11,,,58,127
65661,note_on,1,0,0,,2,,,62,127
65661,note_on,0,0,0,,11,,,70,127
65781,note_off,120,0,0,,2,,,62,127
65782,note_on,1,0,0,,11,,,58,127
65902,note_off,120,0,0,,11,,,58,127
65903,note_on,1,0,0,,7,,,55,127
66023,note_off,120,0,0,,7,,,55,127
66024,note_off,1,0,0,,11,,,70,127
66024,note_on,0,0,0,,5,,,41,127
66265,note_off,241,0,0,,5,,,41,127
66265,note_off,0,0,0,,2,,,74,127
66266,note_on,1,0,0,,11,,,58,127
66266,note_on,0,0,0,,2,,,74,127
66266,note_on,0,0,0,,11,,,70,127
66325,note_off,59,0,0,,11,,,70,127
66326,note_on,1,0,0,,10,,,69,127
66385,note_off,59,0,0,,10,,,69,127
66385,note_off,0,0,0,,11,,,58,127
66386,note_on,1,0,0,,2,,,62,127
66386,note_on,0,0,0,,11,,,70,127
66505,note_off,119,0,0,,2,,,74,127
66506,note_off,1,0,0,,2,,,62,127
66507,note_on,1,0,0,,11,,,58,127
66507,note_on,0,0,0,,7,,,79,127
66627,note_off,120,0,0,,11,,,58,127
66628,note_on,1,0,0,,7,,,55,127
66748,note_off,120,0,0,,7,,,55,127
66749,note_off,1,0,0,,11,,,70,127
66749,note_on,0,0,0,,4,,,40,127
66990,note_off,241,0,0,,4,,,40,127
66990,note_off,0,0,0,,7,,,79,127
66991,note_on,1,0,0,,11,,,58,127
66991,note_on,0,0,0,,2,,,74,127
66991,note_on,0,0,0,,11,,,70,127
67050,note_off,59,0,0,,11,,,70,127
67051,note_on,1,0,0,,10,,,69,127
67110,note_off,59,0,0,,10,,,69,127
67110,note_off,0,0,0,,11,,,58,127
67111,note_on,1,0,0,,2,,,62,127
67111,note_on,0,0,0,,11,,,70,127
67230,note_off,119,0,0,,2,,,74,127
67231,note_off,1,0,0,,2,,,62,127
67232,note_on,1,0,0,,11,,,58,127
67232,note_on,0,0,0,,7,,,79,127
67352,note_off,120,0,0,,11,,,58,127
67353,note_on,1,0,0,,7,,,55,127
67473,note_off,120,0,0,,7,,,55,127
67474,note_off,1,0,0,,11,,,70,127
67474,note_on,0,0,0,,2,,,38,127
67715,note_off,241,0,0,,2,,,38,127
67715,note_off,0,0,0,,7,,,79,127
67716,note_on,1,0,0,,11,,,58,127
67716,note_on,0,0,0,,2,,,74,127
67716,note_on,0,0,0,,11,,,70,127
67775,note_off,59,0,0,,11,,,70,127
67776,note_on,1,0,0,,10,,,69,127
67835,note_off,59,0,0,,10,,,69,127
67835,note_off,0,0,0,,11,,,58,127
67836,note_on,1,0,0,,2,,,62,127
67836,note_on,0,0,0,,11,,,70,127
67955,note_off,119,0,0,,2,,,74,127
67956,note_off,1,0,0,,2,,,62,127
67957,note_on,1,0,0,,11,,,58,127
67957,note_on,0,0,0,,7,,,79,127
68077,note_off,120,0,0,,11,,,58,127
68078,note_on,1,0,0,,7,,,55,127
68198,note_off,120,0,0,,7,,,55,127
68199,note_off,1,0,0,,11,,,70,127
68199,note_on,0,0,0,,0,,,36,127
68440,note_off,241,0,0,,7,,,79,127
68441,note_on,1,0,0,,11,,,82,127
68562,note_on,121,0,0,,1,,,73,127
68592,note_off,30,0,0,,11,,,82,127
68682,note_off,90,0,0,,1,,,73,127
68683,note_on,1,0,0,,0,,,72,127
68804,note_on,121,0,0,,8,,,80,127
68834,note_off,30,0,0,,0,,,72,127
68924,note_off,90,0,0,,8,,,80,127
68924,note_off,0,0,0,,0,,,36,127
68925,note_on,1,0,0,,0,,,36,127
68925,note_on,0,0,0,,7,,,79,127
69046,note_on,121,0,0,,11,,,70,127
69076,note_off,30,0,0,,7,,,79,127
69166,note_off,90,0,0,,11,,,70,127
69167,note_on,1,0,0,,8,,,68,127
69288,note_on,121,0,0,,5,,,77,127
69318,note_off,30,0,0,,8,,,68,127
69409,note_on,91,0,0,,7,,,67,127
69439,note_off,30,0,0,,5,,,77,127
69530,note_on,91,0,0,,4,,,76,127
69560,note_off,30,0,0,,7,,,67,127
69650,note_off,90,0,0,,4,,,76,127
69650,note_off,0,0,0,,0,,,36,127
69651,note_on,1,0,0,,5,,,41,127
69651,note_on,0,0,0,,5,,,77,127
69892,note_off,241,0,0,,5,,,77,127
69892,note_off,0,0,0,,5,,,41,127
69893,note_on,1,0,0,,8,,,56,127
69893,note_on,0,0,0,,8,,,68,127
69893,note_on,0,0,0,,0,,,72,127
69952,note_off,59,0,0,,8,,,68,127
69953,note_on,1,0,0,,7,,,67,127
70012,note_off,59,0,0,,7,,,67,127
70012,note_off,0,0,0,,8,,,56,127
70013,note_on,1,0,0,,0,,,60,127
70013,note_on,0,0,0,,8,,,68,127
70133,note_off,120,0,0,,0,,,60,127
70134,note_on,1,0,0,,8,,,56,127
70254,note_off,120,0,0,,8,,,56,127
70255,note_on,1,0,0,,5,,,53,127
70375,note_off,120,0,0,,5,,,53,127
70376,note_off,1,0,0,,8,,,68,127
70376,note_on,0,0,0,,3,,,39,127
70617,note_off,241,0,0,,3,,,39,127
70617,note_off,0,0,0,,0,,,72,127
70618,note_on,1,0,0,,8,,,56,127
70618,note_on,0,0,0,,8,,,68,127
70618,note_on,0,0,0,,0,,,72,127
70677,note_off,59,0,0,,8,,,68,127
70678,note_on,1,0,0,,7,,,67,127
70737,note_off,59,0,0,,7,,,67,127
70737,note_off,0,0,0,,8,,,56,127
70738,note_on,1,0,0,,0,,,60,127
70738,note_on,0,0,0,,8,,,68,127
70857,note_off,119,0,0,,0,,,72,127
70858,note_off,1,0,0,,0,,,60,127
70859,note_on,1,0,0,,8,,,56,127
70859,note_on,0,0,0,,5,,,77,127
70979,note_off,120,0,0,,8,,,56,127
70980,note_on,1,0,0,,5,,,53,127
71100,note_off,120,0,0,,5,,,53,127
71101,note_off,1,0,0,,8,,,68,127
71101,note_on,0,0,0,,2,,,38,127
71342,note_off,241,0,0,,2,,,38,127
71342,note_off,0,0,0,,5,,,77,127
71343,note_on,1,0,0,,8,,,56,127
71343,note_on,0,0,0,,8,,,68,127
71343,note_on,0,0,0,,0,,,72,127
71402,note_off,59,0,0,,8,,,68,127
71403,note_on,1,0,0,,7,,,67,127
71462,note_off,59,0,0,,7,,,67,127
71462,note_off,0,0,0,,8,,,56,127
71463,note_on,1,0,0,,0,,,60,127
71463,note_on,0,0,0,,8,,,68,127
71582,note_off,119,0,0,,0,,,72,127
71583,note_off,1,0,0,,0,,,60,127
71584,note_on,1,0,0,,8,,,56,127
71584,note_on,0,0,0,,5,,,77,127
71704,note_off,120,0,0,,8,,,56,127
71705,note_on,1,0,0,,5,,,53,127
71825,note_off,120,0,0,,5,,,53,127
71826,note_off,1,0,0,,8,,,68,127
71826,note_on,0,0,0,,0,,,36,127
72067,note_off,241,0,0,,0,,,36,127
72067,note_off,0,0,0,,5,,,77,127
72068,note_on,1,0,0,,8,,,56,127
72068,note_on,0,0,0,,8,,,68,127
72068,note_on,0,0,0,,0,,,72,127
72127,note_off,59,0,0,,8,,,68,127
72128,note_on,1,0,0,,7,,,67,127
72187,note_off,59,0,0,,7,,,67,127
72187,note_off,0,0,0,,8,,,56,127
72188,note_on,1,0,0,,0,,,60,127
72188,note_on,0,0,0,,8,,,68,127
72307,note_off,119,0,0,,0,,,72,127
72308,note_off,1,0,0,,0,,,60,127
72309,note_on,1,0,0,,8,,,56,127
72309,note_on,0,0,0,,5,,,77,127
72429,note_off,120,0,0,,8,,,56,127
72430,note_on,1,0,0,,5,,,53,127
72550,note_off,120,0,0,,5,,,53,127
72551,note_off,1,0,0,,8,,,68,127
72551,note_on,0,0,0,,11,,,34,127
72792,note_off,241,0,0,,5,,,77,127
72793,note_on,1,0,0,,8,,,80,127
72914,note_on,121,0,0,,0,,,72,127
72944,note_off,30,0,0,,8,,,80,127
73034,note_off,90,0,0,,0,,,72,127
73035,note_on,1,0,0,,11,,,70,127
73156,note_on,121,0,0,,7,,,79,127
73186,note_off,30,0,0,,11,,,70,127
73276,note_off,90,0,0,,7,,,79,127
73277,note_on,1,0,0,,5,,,77,127
73398,note_on,121,0,0,,8,,,68,127
73428,note_off,30,0,0,,5,,,77,127
73518,note_off,90,0,0,,8,,,68,127
73519,note_on,1,0,0,,7,,,67,127
73640,note_on,121,0,0,,3,,,75,127
73670,note_off,30,0,0,,7,,,67,127
73761,note_on,91,0,0,,5,,,65,127
73791,note_off,30,0,0,,3,,,75,127
73882,note_on,91,0,0,,2,,,74,127
73912,note_off,30,0,0,,5,,,65,127
74002,note_off,90,0,0,,2,,,74,127
74002,note_off,0,0,0,,11,,,34,127
74003,note_on,1,0,0,,3,,,51,127
74003,note_on,0,0,0,,11,,,58,127
74003,note_on,0,0,0,,1,,,61,127
74003,note_on,0,0,0,,7,,,67,127
74123,note_off,120,0,0,,7,,,67,127
74124,note_on,1,0,0,,8,,,68,127
74244,note_off,120,0,0,,8,,,68,127
74244,note_off,0,0,0,,1,,,61,127
74244,note_off,0,0,0,,11,,,58,127
74244,note_off,0,0,0,,3,,,51,127
74245,note_on,1,0,0,,3,,,51,127
74245,note_on,0,0,0,,11,,,58,127
74245,note_on,0,0,0,,1,,,61,127
74245,note_on,0,0,0,,11,,,70,127
74365,note_off,120,0,0,,11,,,70,127
74366,note_on,1,0,0,,0,,,72,127
74486,note_off,120,0,0,,0,,,72,127
74486,note_off,0,0,0,,1,,,61,127
74486,note_off,0,0,0,,11,,,58,127
74486,note_off,0,0,0,,3,,,51,127
74487,note_on,1,0,0,,3,,,51,127
74487,note_on,0,0,0,,1,,,61,127
74487,note_on,0,0,0,,11,,,58,127
74487,note_on,0,0,0,,1,,,73,127
74567,note_off,80,0,0,,1,,,73,127
74568,note_on,1,0,0,,0,,,72,127
74648,note_off,80,0,0,,0,,,72,127
74649,note_on,1,0,0,,11,,,70,127
74729,note_off,80,0,0,,11,,,70,127
74729,note_off,0,0,0,,11,,,58,127
74729,note_off,0,0,0,,1,,,61,127
74729,note_off,0,0,0,,3,,,51,127
74730,note_on,1,0,0,,11,,,58,127
74730,note_on,0,0,0,,3,,,51,127
74730,note_on,0,0,0,,1,,,61,127
74730,note_on,0,0,0,,7,,,67,127
74730,note_on,0,0,0,,11,,,70,127
74730,note_on,0,0,0,,1,,,73,127
74730,note_on,0,0,0,,7,,,79,127
74971,note_off,241,0,0,,1,,,61,127
74971,note_off,0,0,0,,3,,,51,127
74971,note_off,0,0,0,,11,,,58,127
74972,note_on,1,0,0,,11,,,58,127
74972,note_on,0,0,0,,3,,,51,127
74972,note_on,0,0,0,,1,,,61,127
75213,note_off,241,0,0,,1,,,61,127
75213,note_off,0,0,0,,3,,,51,127
75213,note_off,0,0,0,,11,,,58,127
75214,note_on,1,0,0,,11,,,58,127
75214,note_on,0,0,0,,3,,,51,127
75214,note_on,0,0,0,,1,,,61,127
75455,note_off,241,0,0,,1,,,61,127
75455,note_off,0,0,0,,3,,,51,127
75455,note_off,0,0,0,,11,,,58,127
75455,note_off,0,0,0,,7,,,79,127
75455,note_off,0,0,0,,1,,,73,127
75455,note_off,0,0,0,,11,,,70,127
75455,note_off,0,0,0,,7,,,67,127
75456,note_on,1,0,0,,0,,,60,127
75456,note_on,0,0,0,,8,,,56,127
75456,note_on,0,0,0,,3,,,51,127
75456,note_on,0,0,0,,8,,,68,127
75576,note_off,120,0,0,,8,,,68,127
75577,note_on,1,0,0,,11,,,70,127
75697,note_off,120,0,0,,11,,,70,127
75697,note_off,0,0,0,,3,,,51,127
75697,note_off,0,0,0,,8,,,56,127
75697,note_off,0,0,0,,0,,,60,127
75698,note_on,1,0,0,,3,,,51,127
75698,note_on,0,0,0,,0,,,60,127
75698,note_on,0,0,0,,8,,,56,127
75698,note_on,0,0,0,,0,,,72,127
75818,note_off,120,0,0,,0,,,72,127
75819,note_on,1,0,0,,1,,,73,127
75939,note_off,120,0,0,,1,,,73,127
75939,note_off,0,0,0,,8,,,56,127
75939,note_off,0,0,0,,0,,,60,127
75939,note_off,0,0,0,,3,,,51,127
75940,note_on,1,0,0,,3,,,51,127
75940,note_on,0,0,0,,0,,,60,127
75940,note_on,0,0,0,,8,,,56,127
75940,note_on,0,0,0,,3,,,75,127
76020,note_off,80,0,0,,3,,,75,127
76021,note_on,1,0,0,,1,,,73,127
76101,note_off,80,0,0,,1,,,73,127
76102,note_on,1,0,0,,0,,,72,127
76182,note_off,80,0,0,,0,,,72,127
76182,note_off,0,0,0,,8,,,56,127
76182,note_off,0,0,0,,0,,,60,127
76182,note_off,0,0,0,,3,,,51,127
76183,note_on,1,0,0,,3,,,51,127
76183,note_on,0,0,0,,0,,,60,127
76183,note_on,0,0,0,,8,,,56,127
76183,note_on,0,0,0,,8,,,68,127
76183,note_on,0,0,0,,0,,,72,127
76183,note_on,0,0,0,,3,,,75,127
76183,note_on,0,0,0,,8,,,80,127
76424,note_off,241,0,0,,8,,,56,127
76424,note_off,0,0,0,,0,,,60,127
76424,note_off,0,0,0,,3,,,51,127
76425,note_on,1,0,0,,3,,,51,127
76425,note_on,0,0,0,,8,,,56,127
76425,note_on,0,0,0,,0,,,60,127
76666,note_off,241,0,0,,0,,,60,127
76666,note_off,0,0,0,,8,,,56,127
76666,note_off,0,0,0,,3,,,51,127
76667,note_on,1,0,0,,0,,,60,127
76667,note_on,0,0,0,,8,,,56,127
76667,note_on,0,0,0,,3,,,51,127
76908,note_off,241,0,0,,3,,,51,127
76908,note_off,0,0,0,,8,,,56,127
76908,note_off,0,0,0,,0,,,60,127
76908,note_off,0,0,0,,8,,,80,127
76908,note_off,0,0,0,,3,,,75,127
76908,note_off,0,0,0,,0,,,72,127
76908,note_off,0,0,0,,8,,,68,127
76909,note_on,1,0,0,,3,,,51,127
76909,note_on,0,0,0,,11,,,58,127
76909,note_on,0,0,0,,1,,,61,127
76909,note_on,0,0,0,,7,,,67,127
77029,note_off,120,0,0,,7,,,67,127
77030,note_on,1,0,0,,8,,,68,127
77150,note_off,120,0,0,,8,,,68,127
77150,note_off,0,0,0,,1,,,61,127
77150,note_off,0,0,0,,11,,,58,127
77150,note_off,0,0,0,,3,,,51,127
77151,note_on,1,0,0,,11,,,58,127
77151,note_on,0,0,0,,3,,,51,127
77151,note_on,0,0,0,,1,,,61,127
77151,note_on,0,0,0,,11,,,70,127
77271,note_off,120,0,0,,11,,,70,127
77272,note_on,1,0,0,,0,,,72,127
77392,note_off,120,0,0,,0,,,72,127
77392,note_off,0,0,0,,1,,,61,127
77392,note_off,0,0,0,,3,,,51,127
77392,note_off,0,0,0,,11,,,58,127
77393,note_on,1,0,0,,3,,,51,127
77393,note_on,0,0,0,,1,,,61,127
77393,note_on,0,0,0,,11,,,58,127
77393,note_on,0,0,0,,1,,,73,127
77473,note_off,80,0,0,,1,,,73,127
77474,note_on,1,0,0,,0,,,72,127
77554,note_off,80,0,0,,0,,,72,127
77555,note_on,1,0,0,,11,,,70,127
77635,note_off,80,0,0,,11,,,70,127
77635,note_off,0,0,0,,11,,,58,127
77635,note_off,0,0,0,,1,,,61,127
77635,note_off,0,0,0,,3,,,51,127
77636,note_on,1,0,0,,3,,,51,127
77636,note_on,0,0,0,,1,,,61,127
77636,note_on,0,0,0,,11,,,58,127
77636,note_on,0,0,0,,11,,,70,127
77636,note_on,0,0,0,,1,,,73,127
77636,note_on,0,0,0,,11,,,82,127
77877,note_off,241,0,0,,11,,,58,127
77877,note_off,0,0,0,,1,,,61,127
77877,note_off,0,0,0,,3,,,51,127
77878,note_on,1,0,0,,11,,,58,127
77878,note_on,0,0,0,,3,,,51,127
77878,note_on,0,0,0,,1,,,61,127
78119,note_off,241,0,0,,1,,,61,127
78119,note_off,0,0,0,,3,,,51,127
78119,note_off,0,0,0,,11,,,58,127
78120,note_on,1,0,0,,11,,,58,127
78120,note_on,0,0,0,,3,,,51,127
78120,note_on,0,0,0,,1,,,61,127
78361,note_off,241,0,0,,1,,,61,127
78361,note_off,0,0,0,,3,,,51,127
78361,note_off,0,0,0,,11,,,58,127
78361,note_off,0,0,0,,11,,,82,127
78361,note_off,0,0,0,,1,,,73,127
78361,note_off,0,0,0,,11,,,70,127
78362,note_on,1,0,0,,3,,,51,127
78362,note_on,0,0,0,,8,,,56,127
78362,note_on,0,0,0,,0,,,60,127
78362,note_on,0,0,0,,8,,,68,127
78482,note_off,120,0,0,,8,,,68,127
78483,note_on,1,0,0,,11,,,70,127
78603,note_off,120,0,0,,11,,,70,127
78603,note_off,0,0,0,,0,,,60,127
78603,note_off,0,0,0,,8,,,56,127
78603,note_off,0,0,0,,3,,,51,127
78604,note_on,1,0,0,,3,,,51,127
78604,note_on,0,0,0,,0,,,60,127
78604,note_on,0,0,0,,8,,,56,127
78604,note_on,0,0,0,,0,,,72,127
78724,note_off,120,0,0,,0,,,72,127
78725,note_on,1,0,0,,1,,,73,127
78845,note_off,120,0,0,,1,,,73,127
78845,note_off,0,0,0,,8,,,56,127
78845,note_off,0,0,0,,0,,,60,127
78845,note_off,0,0,0,,3,,,51,127
78846,note_on,1,0,0,,0,,,60,127
78846,note_on,0,0,0,,8,,,56,127
78846,note_on,0,0,0,,3,,,51,127
78846,note_on,0,0,0,,3,,,75,127
78926,note_off,80,0,0,,3,,,75,127
78927,note_on,1,0,0,,1,,,73,127
79007,note_off,80,0,0,,1,,,73,127
79008,note_on,1,0,0,,0,,,72,127
79088,note_off,80,0,0,,0,,,72,127
79088,note_off,0,0,0,,3,,,51,127
79088,note_off,0,0,0,,8,,,56,127
79088,note_off,0,0,0,,0,,,60,127
79089,note_on,1,0,0,,3,,,51,127
79089,note_on,0,0,0,,8,,,56,127
79089,note_on,0,0,0,,0,,,60,127
79089,note_on,0,0,0,,3,,,75,127
79089,note_on,0,0,0,,0,,,84,127
79089,note_on,0,0,0,,0,,,72,127
79330,note_off,241,0,0,,0,,,60,127
79330,note_off,0,0,0,,8,,,56,127
79330,note_off,0,0,0,,3,,,51,127
79331,note_on,1,0,0,,8,,,56,127
79331,note_on,0,0,0,,3,,,51,127
79331,note_on,0,0,0,,0,,,60,127
79572,note_off,241,0,0,,0,,,60,127
79572,note_off,0,0,0,,3,,,51,127
79572,note_off,0,0,0,,8,,,56,127
79573,note_on,1,0,0,,3,,,51,127
79573,note_on,0,0,0,,8,,,56,127
79573,note_on,0,0,0,,0,,,60,127
79814,note_off,241,0,0,,0,,,60,127
79814,note_off,0,0,0,,8,,,56,127
79814,note_off,0,0,0,,3,,,51,127
79814,note_off,0,0,0,,3,,,75,127
79815,note_on,1,0,0,,0,,,60,127
79815,note_on,0,0,0,,5,,,53,127
79815,note_on,0,0,0,,1,,,49,127
79815,note_on,0,0,0,,8,,,56,127
80056,note_off,241,0,0,,8,,,56,127
80056,note_off,0,0,0,,1,,,49,127
80056,note_off,0,0,0,,5,,,53,127
80056,note_off,0,0,0,,0,,,60,127
80056,note_off,0,0,0,,0,,,72,127
80056,note_off,0,0,0,,0,,,84,127
80057,note_on,1,0,0,,5,,,53,127
80057,note_on,0,0,0,,1,,,49,127
80057,note_on,0,0,0,,0,,,60,127
80057,note_on,0,0,0,,11,,,70,127
80057,note_on,0,0,0,,11,,,82,127
80298,note_off,241,0,0,,11,,,82,127
80298,note_off,0,0,0,,11,,,70,127
80298,note_off,0,0,0,,0,,,60,127
80298,note_off,0,0,0,,1,,,49,127
80298,note_off,0,0,0,,5,,,53,127
80299,note_on,1,0,0,,0,,,60,127
80299,note_on,0,0,0,,5,,,53,127
80299,note_on,0,0,0,,1,,,49,127
80299,note_on,0,0,0,,8,,,68,127
80299,note_on,0,0,0,,8,,,80,127
80540,note_off,241,0,0,,1,,,49,127
80540,note_off,0,0,0,,5,,,53,127
80540,note_off,0,0,0,,0,,,60,127
80541,note_on,1,0,0,,11,,,46,127
80541,note_on,0,0,0,,11,,,58,127
80541,note_on,0,0,0,,5,,,53,127
80782,note_off,241,0,0,,5,,,53,127
80782,note_off,0,0,0,,11,,,58,127
80782,note_off,0,0,0,,11,,,46,127
80782,note_off,0,0,0,,8,,,80,127
80782,note_off,0,0,0,,8,,,68,127
80783,note_on,1,0,0,,11,,,46,127
80783,note_on,0,0,0,,11,,,58,127
80783,note_on,0,0,0,,5,,,53,127
80783,note_on,0,0,0,,7,,,79,127
80783,note_on,0,0,0,,7,,,67,127
81024,note_off,241,0,0,,7,,,67,127
81024,note_off,0,0,0,,7,,,79,127
81024,note_off,0,0,0,,5,,,53,127
81024,note_off,0,0,0,,11,,,58,127
81024,note_off,0,0,0,,11,,,46,127
81025,note_on,1,0,0,,11,,,46,127
81025,note_on,0,0,0,,11,,,58,127
81025,note_on,0,0,0,,5,,,53,127
81025,note_on,0,0,0,,5,,,65,127
81025,note_on,0,0,0,,5,,,77,127
81266,note_off,241,0,0,,5,,,77,127
81266,note_off,0,0,0,,5,,,65,127
81266,note_off,0,0,0,,5,,,53,127
81266,note_off,0,0,0,,11,,,58,127
81266,note_off,0,0,0,,11,,,46,127
81267,note_on,1,0,0,,0,,,48,127
81267,note_on,0,0,0,,11,,,58,127
81267,note_on,0,0,0,,7,,,55,127
81267,note_on,0,0,0,,4,,,76,127
81267,note_on,0,0,0,,4,,,64,127
81508,note_off,241,0,0,,4,,,64,127
81508,note_off,0,0,0,,4,,,76,127
81508,note_off,0,0,0,,7,,,55,127
81508,note_off,0,0,0,,11,,,58,127
81508,note_off,0,0,0,,0,,,48,127
81509,note_on,1,0,0,,11,,,58,127
81509,note_on,0,0,0,,7,,,55,127
81509,note_on,0,0,0,,0,,,48,127
81509,note_on,0,0,0,,1,,,85,127
81509,note_on,0,0,0,,1,,,73,127
81750,note_off,241,0,0,,1,,,73,127
81750,note_off,0,0,0,,1,,,85,127
81750,note_off,0,0,0,,0,,,48,127
81750,note_off,0,0,0,,7,,,55,127
81750,note_off,0,0,0,,11,,,58,127
81751,note_on,1,0,0,,7,,,55,127
81751,note_on,0,0,0,,0,,,48,127
81751,note_on,0,0,0,,11,,,58,127
81751,note_on,0,0,0,,0,,,84,127
81751,note_on,0,0,0,,0,,,72,127
81992,note_off,241,0,0,,11,,,58,127
81992,note_off,0,0,0,,0,,,48,127
81992,note_off,0,0,0,,7,,,55,127
81993,note_on,1,0,0,,0,,,48,127
81993,note_on,0,0,0,,11,,,58,127
81993,note_on,0,0,0,,7,,,55,127
82234,note_off,241,0,0,,7,,,55,127
82234,note_off,0,0,0,,11,,,58,127
82234,note_off,0,0,0,,0,,,48,127
82234,note_off,0,0,0,,0,,,72,127
82234,note_off,0,0,0,,0,,,84,127
82235,note_on,1,0,0,,11,,,58,127
82235,note_on,0,0,0,,7,,,55,127
82235,note_on,0,0,0,,0,,,48,127
82235,note_on,0,0,0,,11,,,70,127
82235,note_on,0,0,0,,11,,,82,127
82476,note_off,241,0,0,,11,,,82,127
82476,note_off,0,0,0,,11,,,70,127
82476,note_off,0,0,0,,0,,,48,127
82476,note_off,0,0,0,,7,,,55,127
82476,note_off,0,0,0,,11,,,58,127
82477,note_on,1,0,0,,11,,,58,127
82477,note_on,0,0,0,,7,,,55,127
82477,note_on,0,0,0,,0,,,48,127
82477,note_on,0,0,0,,7,,,67,127
82477,note_on,0,0,0,,7,,,79,127
82718,note_off,241,0,0,,7,,,79,127
82718,note_off,0,0,0,,7,,,67,127
82718,note_off,0,0,0,,0,,,48,127
82718,note_off,0,0,0,,7,,,55,127
82718,note_off,0,0,0,,11,,,58,127
82719,note_on,1,0,0,,5,,,41,127
82719,note_on,0,0,0,,5,,,53,127
82719,note_on,0,0,0,,0,,,48,127
82719,note_on,0,0,0,,10,,,81,127
82719,note_on,0,0,0,,10,,,69,127
82960,note_off,241,0,0,,10,,,69,127
82960,note_off,0,0,0,,10,,,81,127
82960,note_off,0,0,0,,0,,,48,127
82960,note_off,0,0,0,,5,,,53,127
82960,note_off,0,0,0,,5,,,41,127
82961,note_on,1,0,0,,0,,,48,127
82961,note_on,0,0,0,,5,,,41,127
82961,note_on,0,0,0,,5,,,53,127
82961,note_on,0,0,0,,6,,,78,127
82961,note_on,0,0,0,,6,,,66,127
83202,note_off,241,0,0,,6,,,66,127
83202,note_off,0,0,0,,6,,,78,127
83202,note_off,0,0,0,,5,,,53,127
83202,note_off,0,0,0,,5,,,41,127
83202,note_off,0,0,0,,0,,,48,127
83203,note_on,1,0,0,,5,,,41,127
83203,note_on,0,0,0,,0,,,48,127
83203,note_on,0,0,0,,5,,,53,127
83203,note_on,0,0,0,,5,,,77,127
83203,note_on,0,0,0,,5,,,65,127
83444,note_off,241,0,0,,5,,,53,127
83444,note_off,0,0,0,,0,,,48,127
83444,note_off,0,0,0,,5,,,41,127
83445,note_on,1,0,0,,10,,,45,127
83445,note_on,0,0,0,,5,,,53,127
83445,note_on,0,0,0,,3,,,51,127
83445,note_on,0,0,0,,0,,,48,127
83686,note_off,241,0,0,,0,,,48,127
83686,note_off,0,0,0,,3,,,51,127
83686,note_off,0,0,0,,5,,,53,127
83686,note_off,0,0,0,,10,,,45,127
83686,note_off,0,0,0,,5,,,65,127
83686,note_off,0,0,0,,5,,,77,127
83687,note_on,1,0,0,,0,,,48,127
83687,note_on,0,0,0,,10,,,45,127
83687,note_on,0,0,0,,5,,,53,127
83687,note_on,0,0,0,,3,,,51,127
83687,note_on,0,0,0,,3,,,63,127
83687,note_on,0,0,0,,3,,,75,127
83928,note_off,241,0,0,,3,,,75,127
83928,note_off,0,0,0,,3,,,63,127
83928,note_off,0,0,0,,3,,,51,127
83928,note_off,0,0,0,,5,,,53,127
83928,note_off,0,0,0,,10,,,45,127
83928,note_off,0,0,0,,0,,,48,127
83929,note_on,1,0,0,,10,,,45,127
83929,note_on,0,0,0,,3,,,51,127
83929,note_on,0,0,0,,0,,,48,127
83929,note_on,0,0,0,,5,,,53,127
83929,note_on,0,0,0,,0,,,72,127
83929,note_on,0,0,0,,0,,,60,127
84170,note_off,241,0,0,,0,,,60,127
84170,note_off,0,0,0,,0,,,72,127
84170,note_off,0,0,0,,5,,,53,127
84170,note_off,0,0,0,,0,,,48,127
84170,note_off,0,0,0,,3,,,51,127
84170,note_off,0,0,0,,10,,,45,127
84171,note_on,1,0,0,,11,,,58,127
84171,note_on,0,0,0,,0,,,60,127
84171,note_on,0,0,0,,1,,,73,127
84292,note_on,121,0,0,,4,,,64,127
84412,note_off,120,0,0,,4,,,64,127
84412,note_off,0,0,0,,0,,,60,127
84412,note_off,0,0,0,,11,,,58,127
84413,note_on,1,0,0,,11,,,58,127
84413,note_on,0,0,0,,0,,,60,127
84413,note_on,0,0,0,,5,,,65,127
84533,note_off,120,0,0,,5,,,65,127
84534,note_on,1,0,0,,4,,,64,127
84654,note_off,120,0,0,,4,,,64,127
84654,note_off,0,0,0,,0,,,60,127
84654,note_off,0,0,0,,11,,,58,127
84655,note_on,1,0,0,,0,,,60,127
84655,note_on,0,0,0,,11,,,58,127
84655,note_on,0,0,0,,5,,,65,127
84775,note_off,120,0,0,,5,,,65,127
84776,note_on,1,0,0,,4,,,64,127
84896,note_off,120,0,0,,4,,,64,127
84896,note_off,0,0,0,,11,,,58,127
84896,note_off,0,0,0,,0,,,60,127
84896,note_off,0,0,0,,1,,,73,127
84897,note_on,1,0,0,,0,,,60,127
84897,note_on,0,0,0,,8,,,56,127
84897,note_on,0,0,0,,0,,,72,127
85018,note_on,121,0,0,,5,,,65,127
85138,note_off,120,0,0,,5,,,65,127
85138,note_off,0,0,0,,8,,,56,127
85138,note_off,0,0,0,,0,,,60,127
85139,note_on,1,0,0,,0,,,60,127
85139,note_on,0,0,0,,8,,,56,127
85139,note_on,0,0,0,,7,,,67,127
85259,note_off,120,0,0,,7,,,67,127
85260,note_on,1,0,0,,5,,,65,127
85380,note_off,120,0,0,,5,,,65,127
85380,note_off,0,0,0,,8,,,56,127
85380,note_off,0,0,0,,0,,,60,127
85381,note_on,1,0,0,,0,,,60,127
85381,note_on,0,0,0,,8,,,56,127
85381,note_on,0,0,0,,7,,,67,127
85501,note_off,120,0,0,,7,,,67,127
85502,note_on,1,0,0,,5,,,65,127
85622,note_off,120,0,0,,5,,,65,127
85622,note_off,0,0,0,,8,,,56,127
85622,note_off,0,0,0,,0,,,60,127
85622,note_off,0,0,0,,0,,,72,127
85623,note_on,1,0,0,,0,,,60,127
85623,note_on,0,0,0,,11,,,58,127
85623,note_on,0,0,0,,1,,,73,127
85744,note_on,121,0,0,,4,,,64,127
85864,note_off,120,0,0,,4,,,64,127
85864,note_off,0,0,0,,11,,,58,127
85864,note_off,0,0,0,,0,,,60,127
85865,note_on,1,0,0,,11,,,58,127
85865,note_on,0,0,0,,0,,,60,127
85865,note_on,0,0,0,,5,,,65,127
85985,note_off,120,0,0,,5,,,65,127
85986,note_on,1,0,0,,4,,,64,127
86106,note_off,120,0,0,,4,,,64,127
86106,note_off,0,0,0,,0,,,60,127
86106,note_off,0,0,0,,11,,,58,127
86107,note_on,1,0,0,,11,,,58,127
86107,note_on,0,0,0,,0,,,60,127
86107,note_on,0,0,0,,5,,,65,127
86227,note_off,120,0,0,,5,,,65,127
86228,note_on,1,0,0,,4,,,64,127
86348,note_off,120,0,0,,4,,,64,127
86348,note_off,0,0,0,,0,,,60,127
86348,note_off,0,0,0,,11,,,58,127
86348,note_off,0,0,0,,1,,,73,127
86349,note_on,1,0,0,,8,,,56,127
86349,note_on,0,0,0,,0,,,60,127
86349,note_on,0,0,0,,0,,,72,127
86470,note_on,121,0,0,,5,,,65,127
86590,note_off,120,0,0,,5,,,65,127
86590,note_off,0,0,0,,0,,,60,127
86590,note_off,0,0,0,,8,,,56,127
86591,note_on,1,0,0,,8,,,56,127
86591,note_on,0,0,0,,0,,,60,127
86591,note_on,0,0,0,,7,,,67,127
86711,note_off,120,0,0,,7,,,67,127
86712,note_on,1,0,0,,5,,,65,127
86832,note_off,120,0,0,,5,,,65,127
86832,note_off,0,0,0,,0,,,60,127
86832,note_off,0,0,0,,8,,,56,127
86833,note_on,1,0,0,,8,,,56,127
86833,note_on,0,0,0,,0,,,60,127
86833,note_on,0,0,0,,7,,,67,127
86953,note_off,120,0,0,,7,,,67,127
86954,note_on,1,0,0,,5,,,65,127
87074,note_off,120,0,0,,5,,,65,127
87074,note_off,0,0,0,,0,,,60,127
87074,note_off,0,0,0,,8,,,56,127
87074,note_off,0,0,0,,0,,,72,127
87075,note_on,1,0,0,,7,,,55,127
87075,note_on,0,0,0,,11,,,58,127
87075,note_on,0,0,0,,0,,,60,127
87075,note_on,0,0,0,,4,,,64,127
87075,note_on,0,0,0,,4,,,76,127
87196,note_on,121,0,0,,7,,,67,127
87316,note_off,120,0,0,,7,,,67,127
87316,note_off,0,0,0,,4,,,64,127
87316,note_off,0,0,0,,0,,,60,127
87316,note_off,0,0,0,,11,,,58,127
87316,note_off,0,0,0,,7,,,55,127
87317,note_on,1,0,0,,7,,,55,127
87317,note_on,0,0,0,,0,,,60,127
87317,note_on,0,0,0,,11,,,58,127
87317,note_on,0,0,0,,4,,,64,127
87317,note_on,0,0,0,,8,,,68,127
87437,note_off,120,0,0,,8,,,68,127
87438,note_on,1,0,0,,7,,,67,127
87558,note_off,120,0,0,,7,,,67,127
87558,note_off,0,0,0,,4,,,64,127
87558,note_off,0,0,0,,11,,,58,127
87558,note_off,0,0,0,,0,,,60,127
87558,note_off,0,0,0,,7,,,55,127
87559,note_on,1,0,0,,7,,,55,127
87559,note_on,0,0,0,,4,,,64,127
87559,note_on,0,0,0,,0,,,60,127
87559,note_on,0,0,0,,11,,,58,127
87559,note_on,0,0,0,,8,,,68,127
87679,note_off,120,0,0,,8,,,68,127
87680,note_on,1,0,0,,7,,,67,127
87800,note_off,120,0,0,,7,,,67,127
87800,note_off,0,0,0,,11,,,58,127
87800,note_off,0,0,0,,0,,,60,127
87800,note_off,0,0,0,,4,,,64,127
87800,note_off,0,0,0,,7,,,55,127
87800,note_off,0,0,0,,4,,,76,127
87801,note_on,1,0,0,,8,,,56,127
87801,note_on,0,0,0,,5,,,53,127
87801,note_on,0,0,0,,0,,,60,127
87801,note_on,0,0,0,,5,,,77,127
87922,note_on,121,0,0,,8,,,68,127
88042,note_off,120,0,0,,8,,,68,127
88042,note_off,0,0,0,,0,,,60,127
88042,note_off,0,0,0,,5,,,53,127
88042,note_off,0,0,0,,8,,,56,127
88043,note_on,1,0,0,,8,,,56,127
88043,note_on,0,0,0,,5,,,53,127
88043,note_on,0,0,0,,0,,,60,127
88043,note_on,0,0,0,,11,,,70,127
88163,note_off,120,0,0,,11,,,70,127
88164,note_on,1,0,0,,8,,,68,127
88284,note_off,120,0,0,,8,,,68,127
88284,note_off,0,0,0,,0,,,60,127
88284,note_off,0,0,0,,5,,,53,127
88284,note_off,0,0,0,,8,,,56,127
88285,note_on,1,0,0,,8,,,56,127
88285,note_on,0,0,0,,0,,,60,127
88285,note_on,0,0,0,,5,,,53,127
88285,note_on,0,0,0,,11,,,70,127
88405,note_off,120,0,0,,11,,,70,127
88406,note_on,1,0,0,,8,,,68,127
88526,note_off,120,0,0,,8,,,68,127
88526,note_off,0,0,0,,5,,,53,127
88526,note_off,0,0,0,,0,,,60,127
88526,note_off,0,0,0,,8,,,56,127
88526,note_off,0,0,0,,5,,,77,127
88527,note_on,1,0,0,,11,,,46,127
88527,note_on,0,0,0,,5,,,53,127
88527,note_on,0,0,0,,7,,,55,127
88527,note_on,0,0,0,,7,,,79,127
88648,note_on,121,0,0,,11,,,70,127
88768,note_off,120,0,0,,11,,,70,127
88768,note_off,0,0,0,,7,,,55,127
88768,note_off,0,0,0,,5,,,53,127
88768,note_off,0,0,0,,11,,,46,127
88769,note_on,1,0,0,,11,,,46,127
88769,note_on,0,0,0,,5,,,53,127
88769,note_on,0,0,0,,7,,,55,127
88769,note_on,0,0,0,,0,,,72,127
88889,note_off,120,0,0,,0,,,72,127
88890,note_on,1,0,0,,11,,,70,127
89010,note_off,120,0,0,,11,,,70,127
89010,note_off,0,0,0,,7,,,55,127
89010,note_off,0,0,0,,5,,,53,127
89010,note_off,0,0,0,,11,,,46,127
89011,note_on,1,0,0,,5,,,53,127
89011,note_on,0,0,0,,11,,,46,127
89011,note_on,0,0,0,,7,,,55,127
89011,note_on,0,0,0,,0,,,72,127
89131,note_off,120,0,0,,0,,,72,127
89132,note_on,1,0,0,,11,,,70,127
89252,note_off,120,0,0,,11,,,70,127
89252,note_off,0,0,0,,7,,,55,127
89252,note_off,0,0,0,,11,,,46,127
89252,note_off,0,0,0,,5,,,53,127
89252,note_off,0,0,0,,7,,,79,127
89253,note_on,1,0,0,,5,,,53,127
89253,note_on,0,0,0,,8,,,44,127
89253,note_on,0,0,0,,0,,,48,127
89253,note_on,0,0,0,,8,,,80,127
89374,note_on,121,0,0,,0,,,72,127
89494,note_off,120,0,0,,0,,,72,127
89494,note_off,0,0,0,,0,,,48,127
89494,note_off,0,0,0,,8,,,44,127
89494,note_off,0,0,0,,5,,,53,127
89495,note_on,1,0,0,,0,,,48,127
89495,note_on,0,0,0,,8,,,44,127
89495,note_on,0,0,0,,5,,,53,127
89495,note_on,0,0,0,,1,,,73,127
89615,note_off,120,0,0,,1,,,73,127
89616,note_on,1,0,0,,0,,,72,127
89736,note_off,120,0,0,,0,,,72,127
89736,note_off,0,0,0,,5,,,53,127
89736,note_off,0,0,0,,8,,,44,127
89736,note_off,0,0,0,,0,,,48,127
89737,note_on,1,0,0,,0,,,48,127
89737,note_on,0,0,0,,8,,,44,127
89737,note_on,0,0,0,,5,,,53,127
89737,note_on,0,0,0,,1,,,73,127
89857,note_off,120,0,0,,1,,,73,127
89858,note_on,1,0,0,,0,,,72,127
89978,note_off,120,0,0,,0,,,72,127
89978,note_off,0,0,0,,5,,,53,127
89978,note_off,0,0,0,,8,,,44,127
89978,note_off,0,0,0,,0,,,48,127
89978,note_off,0,0,0,,8,,,80,127
89979,note_on,1,0,0,,11,,,46,127
89979,note_on,0,0,0,,7,,,43,127
89979,note_on,0,0,0,,4,,,52,127
89979,note_on,0,0,0,,0,,,48,127
89979,note_on,0,0,0,,11,,,82,127
90100,note_on,121,0,0,,4,,,76,127
90220,note_off,120,0,0,,4,,,76,127
90220,note_off,0,0,0,,0,,,48,127
90220,note_off,0,0,0,,4,,,52,127
90220,note_off,0,0,0,,7,,,43,127
90220,note_off,0,0,0,,11,,,46,127
90221,note_on,1,0,0,,11,,,46,127
90221,note_on,0,0,0,,7,,,43,127
90221,note_on,0,0,0,,4,,,52,127
90221,note_on,0,0,0,,0,,,48,127
90221,note_on,0,0,0,,5,,,77,127
90341,note_off,120,0,0,,5,,,77,127
90342,note_on,1,0,0,,4,,,76,127
90462,note_off,120,0,0,,4,,,76,127
90462,note_off,0,0,0,,0,,,48,127
90462,note_off,0,0,0,,4,,,52,127
90462,note_off,0,0,0,,7,,,43,127
90462,note_off,0,0,0,,11,,,46,127
90463,note_on,1,0,0,,0,,,48,127
90463,note_on,0,0,0,,11,,,46,127
90463,note_on,0,0,0,,7,,,43,127
90463,note_on,0,0,0,,4,,,52,127
90463,note_on,0,0,0,,5,,,77,127
90583,note_off,120,0,0,,5,,,77,127
90584,note_on,1,0,0,,4,,,76,127
90704,note_off,120,0,0,,4,,,76,127
90704,note_off,0,0,0,,4,,,52,127
90704,note_off,0,0,0,,7,,,43,127
90704,note_off,0,0,0,,11,,,46,127
90704,note_off,0,0,0,,0,,,48,127
90704,note_off,0,0,0,,11,,,82,127
90705,note_on,1,0,0,,5,,,53,127
90705,note_on,0,0,0,,5,,,41,127
90705,note_on,0,0,0,,0,,,84,127
90825,note_off,120,0,0,,0,,,84,127
90826,note_on,1,0,0,,8,,,80,127
90946,note_off,120,0,0,,8,,,80,127
90946,note_off,0,0,0,,5,,,41,127
90946,note_off,0,0,0,,5,,,53,127
90947,note_on,1,0,0,,7,,,43,127
90947,note_on,0,0,0,,7,,,55,127
90947,note_on,0,0,0,,11,,,82,127
91067,note_off,120,0,0,,11,,,82,127
91068,note_on,1,0,0,,7,,,79,127
91188,note_off,120,0,0,,7,,,79,127
91188,note_off,0,0,0,,7,,,55,127
91188,note_off,0,0,0,,7,,,43,127
91189,note_on,1,0,0,,8,,,44,127
91189,note_on,0,0,0,,8,,,56,127
91189,note_on,0,0,0,,5,,,77,127
91430,note_off,241,0,0,,5,,,77,127
91430,note_off,0,0,0,,8,,,56,127
91430,note_off,0,0,0,,8,,,44,127
91431,note_on,1,0,0,,11,,,58,127
91431,note_on,0,0,0,,7,,,79,127
91551,note_off,120,0,0,,7,,,79,127
91552,note_on,1,0,0,,8,,,80,127
91611,note_off,59,0,0,,8,,,80,127
91612,note_on,1,0,0,,11,,,82,127
91671,note_off,59,0,0,,11,,,82,127
91671,note_off,0,0,0,,11,,,58,127
91672,note_on,1,0,0,,0,,,60,127
91672,note_on,0,0,0,,8,,,80,127
91792,note_off,120,0,0,,8,,,80,127
91793,note_on,1,0,0,,7,,,79,127
91913,note_off,120,0,0,,7,,,79,127
91914,note_on,1,0,0,,0,,,48,127
91914,note_on,0,0,0,,5,,,77,127
92034,note_off,120,0,0,,5,,,77,127
92035,note_on,1,0,0,,4,,,76,127
92151,note_off,116,0,0,,0,,,60,127
92155,note_off,4,0,0,,4,,,76,127
92155,note_off,0,0,0,,0,,,48,127
92156,note_on,1,0,0,,5,,,53,127
92156,note_on,0,0,0,,7,,,79,127
92215,note_off,59,0,0,,7,,,79,127
92216,note_on,1,0,0,,5,,,77,127
92275,note_off,59,0,0,,5,,,77,127
92275,note_off,0,0,0,,5,,,53,127
92276,note_on,1,0,0,,4,,,52,127
92276,note_on,0,0,0,,7,,,79,127
92335,note_off,59,0,0,,7,,,79,127
92336,note_on,1,0,0,,5,,,77,127
92395,note_off,59,0,0,,5,,,77,127
92395,note_off,0,0,0,,4,,,52,127
92396,note_on,1,0,0,,5,,,53,127
92396,note_on,0,0,0,,7,,,79,127
92455,note_off,59,0,0,,7,,,79,127
92456,note_on,1,0,0,,5,,,77,127
92515,note_off,59,0,0,,5,,,77,127
92515,note_off,0,0,0,,5,,,53,127
92516,note_on,1,0,0,,7,,,55,127
92516,note_on,0,0,0,,7,,,79,127
92575,note_off,59,0,0,,7,,,79,127
92576,note_on,1,0,0,,5,,,77,127
92635,note_off,59,0,0,,5,,,77,127
92635,note_off,0,0,0,,7,,,55,127
92636,note_on,1,0,0,,8,,,56,127
92636,note_on,0,0,0,,7,,,79,127
92695,note_off,59,0,0,,7,,,79,127
92696,note_on,1,0,0,,5,,,77,127
92755,note_off,59,0,0,,5,,,77,127
92755,note_off,0,0,0,,8,,,56,127
92756,note_on,1,0,0,,11,,,58,127
92756,note_on,0,0,0,,7,,,79,127
92815,note_off,59,0,0,,7,,,79,127
92816,note_on,1,0,0,,5,,,77,127
92875,note_off,59,0,0,,5,,,77,127
92875,note_off,0,0,0,,11,,,58,127
92876,note_on,1,0,0,,0,,,60,127
92876,note_on,0,0,0,,5,,,77,127
92935,note_off,59,0,0,,5,,,77,127
92936,note_on,1,0,0,,3,,,75,127
92995,note_off,59,0,0,,3,,,75,127
92995,note_off,0,0,0,,0,,,60,127
92996,note_on,1,0,0,,3,,,63,127
92996,note_on,0,0,0,,5,,,77,127
93055,note_off,59,0,0,,5,,,77,127
93056,note_on,1,0,0,,3,,,75,127
93115,note_off,59,0,0,,3,,,75,127
93115,note_off,0,0,0,,3,,,63,127
93116,note_on,1,0,0,,8,,,56,127
93116,note_on,0,0,0,,5,,,77,127
93175,note_off,59,0,0,,5,,,77,127
93176,note_on,1,0,0,,3,,,75,127
93235,note_off,59,0,0,,3,,,75,127
93235,note_off,0,0,0,,8,,,56,127
93236,note_on,1,0,0,,0,,,60,127
93236,note_on,0,0,0,,5,,,77,127
93295,note_off,59,0,0,,5,,,77,127
93296,note_on,1,0,0,,3,,,75,127
93355,note_off,59,0,0,,3,,,75,127
93355,note_off,0,0,0,,0,,,60,127
93356,note_on,1,0,0,,5,,,53,127
93356,note_on,0,0,0,,5,,,77,127
93415,note_off,59,0,0,,5,,,77,127
93416,note_on,1,0,0,,3,,,75,127
93475,note_off,59,0,0,,3,,,75,127
93475,note_off,0,0,0,,5,,,53,127
93476,note_on,1,0,0,,8,,,56,127
93476,note_on,0,0,0,,5,,,77,127
93535,note_off,59,0,0,,5,,,77,127
93536,note_on,1,0,0,,3,,,75,127
93595,note_off,59,0,0,,3,,,75,127
93595,note_off,0,0,0,,8,,,56,127
93596,note_on,1,0,0,,11,,,58,127
93596,note_on,0,0,0,,1,,,85,127
93596,note_on,0,0,0,,1,,,73,127
93716,note_off,120,0,0,,11,,,58,127
93717,note_on,1,0,0,,1,,,61,127
93837,note_off,120,0,0,,1,,,61,127
93838,note_on,1,0,0,,7,,,55,127
93958,note_off,120,0,0,,7,,,55,127
93959,note_on,1,0,0,,11,,,58,127
94079,note_off,120,0,0,,11,,,58,127
94080,note_on,1,0,0,,3,,,51,127
94200,note_off,120,0,0,,3,,,51,127
94201,note_on,1,0,0,,7,,,55,127
94321,note_off,120,0,0,,7,,,55,127
94321,note_off,0,0,0,,1,,,73,127
94321,note_off,0,0,0,,1,,,85,127
94322,note_on,1,0,0,,8,,,56,127
94322,note_on,0,0,0,,0,,,72,127
94322,note_on,0,0,0,,0,,,84,127
94442,note_off,120,0,0,,8,,,56,127
94443,note_on,1,0,0,,0,,,60,127
94563,note_off,120,0,0,,0,,,60,127
94564,note_on,1,0,0,,5,,,53,127
94684,note_off,120,0,0,,5,,,53,127
94685,note_on,1,0,0,,8,,,56,127
94805,note_off,120,0,0,,8,,,56,127
94806,note_on,1,0,0,,1,,,49,127
94926,note_off,120,0,0,,1,,,49,127
94927,note_on,1,0,0,,5,,,53,127
95047,note_off,120,0,0,,5,,,53,127
95047,note_off,0,0,0,,0,,,84,127
95047,note_off,0,0,0,,0,,,72,127
95048,note_on,1,0,0,,7,,,55,127
95048,note_on,0,0,0,,11,,,70,127
95048,note_on,0,0,0,,11,,,82,127
95168,note_off,120,0,0,,7,,,55,127
95169,note_on,1,0,0,,11,,,58,127
95289,note_off,120,0,0,,11,,,58,127
95290,note_on,1,0,0,,4,,,52,127
95410,note_off,120,0,0,,4,,,52,127
95411,note_on,1,0,0,,7,,,55,127
95531,note_off,120,0,0,,7,,,55,127
95532,note_on,1,0,0,,0,,,48,127
95652,note_off,120,0,0,,0,,,48,127
95653,note_on,1,0,0,,4,,,52,127
95773,note_off,120,0,0,,4,,,52,127
95773,note_off,0,0,0,,11,,,82,127
95773,note_off,0,0,0,,11,,,70,127
95774,note_on,1,0,0,,5,,,41,127
95774,note_on,0,0,0,,5,,,53,127
95774,note_on,0,0,0,,11,,,70,127
95833,note_off,59,0,0,,11,,,70,127
95834,note_on,1,0,0,,8,,,68,127
95893,note_off,59,0,0,,8,,,68,127
95894,note_on,1,0,0,,7,,,67,127
96014,note_off,120,0,0,,7,,,67,127
96014,note_off,0,0,0,,5,,,53,127
96014,note_off,0,0,0,,5,,,41,127
96015,note_on,1,0,0,,7,,,55,127
96015,note_on,0,0,0,,7,,,43,127
96015,note_on,0,0,0,,8,,,68,127
96135,note_off,120,0,0,,8,,,68,127
96136,note_on,1,0,0,,11,,,70,127
96256,note_off,120,0,0,,11,,,70,127
96256,note_off,0,0,0,,7,,,43,127
96256,note_off,0,0,0,,7,,,55,127
96257,note_on,1,0,0,,8,,,44,127
96257,note_on,0,0,0,,8,,,56,127
96257,note_on,0,0,0,,0,,,72,127
96377,note_off,120,0,0,,0,,,72,127
96378,note_on,1,0,0,,5,,,65,127
96498,note_off,120,0,0,,5,,,65,127
96498,note_off,0,0,0,,8,,,56,127
96498,note_off,0,0,0,,8,,,44,127
96499,note_on,1,0,0,,11,,,58,127
96499,note_on,0,0,0,,7,,,67,127
96619,note_off,120,0,0,,7,,,67,127
96620,note_on,1,0,0,,11,,,70,127
96740,note_off,120,0,0,,11,,,70,127
96740,note_off,0,0,0,,11,,,58,127
96741,note_on,1,0,0,,0,,,60,127
96741,note_on,0,0,0,,8,,,68,127
96861,note_off,120,0,0,,8,,,68,127
96862,note_on,1,0,0,,7,,,67,127
96982,note_off,120,0,0,,7,,,67,127
96983,note_on,1,0,0,,0,,,48,127
96983,note_on,0,0,0,,5,,,65,127
97103,note_off,120,0,0,,5,,,65,127
97104,note_on,1,0,0,,4,,,64,127
97220,note_off,116,0,0,,0,,,60,127
97224,note_off,4,0,0,,4,,,64,127
97224,note_off,0,0,0,,0,,,48,127
97225,note_on,1,0,0,,5,,,53,127
97225,note_on,0,0,0,,7,,,79,127
97284,note_off,59,0,0,,7,,,79,127
97285,note_on,1,0,0,,5,,,77,127
97344,note_off,59,0,0,,5,,,77,127
97344,note_off,0,0,0,,5,,,53,127
97345,note_on,1,0,0,,4,,,52,127
97345,note_on,0,0,0,,7,,,79,127
97404,note_off,59,0,0,,7,,,79,127
97405,note_on,1,0,0,,5,,,77,127
97464,note_off,59,0,0,,5,,,77,127
97464,note_off,0,0,0,,4,,,52,127
97465,note_on,1,0,0,,5,,,53,127
97465,note_on,0,0,0,,7,,,79,127
97524,note_off,59,0,0,,7,,,79,127
97525,note_on,1,0,0,,5,,,77,127
97584,note_off,59,0,0,,5,,,77,127
97584,note_off,0,0,0,,5,,,53,127
97585,note_on,1,0,0,,7,,,55,127
97585,note_on,0,0,0,,7,,,79,127
97644,note_off,59,0,0,,7,,,79,127
97645,note_on,1,0,0,,5,,,77,127
97704,note_off,59,0,0,,5,,,77,127
97704,note_off,0,0,0,,7,,,55,127
97705,note_on,1,0,0,,8,,,56,127
97705,note_on,0,0,0,,7,,,79,127
97764,note_off,59,0,0,,7,,,79,127
97765,note_on,1,0,0,,5,,,77,127
97824,note_off,59,0,0,,5,,,77,127
97824,note_off,0,0,0,,8,,,56,127
97825,note_on,1,0,0,,11,,,58,127
97825,note_on,0,0,0,,7,,,79,127
97884,note_off,59,0,0,,7,,,79,127
97885,note_on,1,0,0,,5,,,77,127
97944,note_off,59,0,0,,5,,,77,127
97944,note_off,0,0,0,,11,,,58,127
97945,note_on,1,0,0,,0,,,60,127
97945,note_on,0,0,0,,5,,,77,127
98004,note_off,59,0,0,,5,,,77,127
98005,note_on,1,0,0,,3,,,75,127
98064,note_off,59,0,0,,3,,,75,127
98064,note_off,0,0,0,,0,,,60,127
98065,note_on,1,0,0,,3,,,63,127
98065,note_on,0,0,0,,5,,,77,127
98124,note_off,59,0,0,,5,,,77,127
98125,note_on,1,0,0,,3,,,75,127
98184,note_off,59,0,0,,3,,,75,127
98184,note_off,0,0,0,,3,,,63,127
98185,note_on,1,0,0,,8,,,56,127
98185,note_on,0,0,0,,5,,,77,127
98244,note_off,59,0,0,,5,,,77,127
98245,note_on,1,0,0,,3,,,75,127
98304,note_off,59,0,0,,3,,,75,127
98304,note_off,0,0,0,,8,,,56,127
98305,note_on,1,0,0,,0,,,60,127
98305,note_on,0,0,0,,5,,,77,127
98364,note_off,59,0,0,,5,,,77,127
98365,note_on,1,0,0,,3,,,75,127
98424,note_off,59,0,0,,3,,,75,127
98424,note_off,0,0,0,,0,,,60,127
98425,note_on,1,0,0,,5,,,53,127
98425,note_on,0,0,0,,5,,,77,127
98484,note_off,59,0,0,,5,,,77,127
98485,note_on,1,0,0,,3,,,75,127
98544,note_off,59,0,0,,3,,,75,127
98544,note_off,0,0,0,,5,,,53,127
98545,note_on,1,0,0,,8,,,56,127
98545,note_on,0,0,0,,5,,,77,127
98604,note_off,59,0,0,,5,,,77,127
98605,note_on,1,0,0,,3,,,75,127
98664,note_off,59,0,0,,3,,,75,127
98664,note_off,0,0,0,,8,,,56,127
98665,note_on,1,0,0,,11,,,58,127
98665,note_on,0,0,0,,1,,,73,127
98665,note_on,0,0,0,,1,,,85,127
98785,note_off,120,0,0,,11,,,58,127
98786,note_on,1,0,0,,1,,,61,127
98906,note_off,120,0,0,,1,,,61,127
98907,note_on,1,0,0,,7,,,55,127
99027,note_off,120,0,0,,7,,,55,127
99028,note_on,1,0,0,,11,,,58,127
99148,note_off,120,0,0,,11,,,58,127
99149,note_on,1,0,0,,3,,,51,127
99269,note_off,120,0,0,,3,,,51,127
99270,note_on,1,0,0,,7,,,55,127
99390,note_off,120,0,0,,7,,,55,127
99390,note_off,0,0,0,,1,,,85,127
99390,note_off,0,0,0,,1,,,73,127
99391,note_on,1,0,0,,8,,,56,127
99391,note_on,0,0,0,,0,,,84,127
99391,note_on,0,0,0,,0,,,72,127
99511,note_off,120,0,0,,8,,,56,127
99512,note_on,1,0,0,,0,,,60,127
99632,note_off,120,0,0,,0,,,60,127
99633,note_on,1,0,0,,5,,,53,127
99753,note_off,120,0,0,,5,,,53,127
99754,note_on,1,0,0,,8,,,56,127
99874,note_off,120,0,0,,8,,,56,127
99875,note_on,1,0,0,,1,,,49,127
99995,note_off,120,0,0,,1,,,49,127
99996,note_on,1,0,0,,5,,,53,127
100116,note_off,120,0,0,,5,,,53,127
100116,note_off,0,0,0,,0,,,72,127
100116,note_off,0,0,0,,0,,,84,127
100117,note_on,1,0,0,,7,,,55,127
100117,note_on,0,0,0,,11,,,82,127
100117,note_on,0,0,0,,11,,,70,127
100237,note_off,120,0,0,,7,,,55,127
100238,note_on,1,0,0,,11,,,58,127
100358,note_off,120,0,0,,11,,,58,127
100359,note_on,1,0,0,,4,,,52,127
100479,note_off,120,0,0,,4,,,52,127
100480,note_on,1,0,0,,7,,,55,127
100600,note_off,120,0,0,,7,,,55,127
100601,note_on,1,0,0,,0,,,48,127
100721,note_off,120,0,0,,0,,,48,127
100722,note_on,1,0,0,,4,,,52,127
100842,note_off,120,0,0,,4,,,52,127
100842,note_off,0,0,0,,11,,,70,127
100842,note_off,0,0,0,,11,,,82,127
100843,note_on,1,0,0,,5,,,53,127
100843,note_on,0,0,0,,5,,,41,127
100843,note_on,0,0,0,,11,,,70,127
100902,note_off,59,0,0,,11,,,70,127
100903,note_on,1,0,0,,8,,,68,127
100962,note_off,59,0,0,,8,,,68,127
100963,note_on,1,0,0,,7,,,67,127
101083,note_off,120,0,0,,7,,,67,127
101083,note_off,0,0,0,,5,,,41,127
101083,note_off,0,0,0,,5,,,53,127
101084,note_on,1,0,0,,7,,,43,127
101084,note_on,0,0,0,,7,,,55,127
101084,note_on,0,0,0,,8,,,68,127
101204,note_off,120,0,0,,8,,,68,127
101205,note_on,1,0,0,,11,,,70,127
101325,note_off,120,0,0,,11,,,70,127
101325,note_off,0,0,0,,7,,,55,127
101325,note_off,0,0,0,,7,,,43,127
101326,note_on,1,0,0,,8,,,44,127
101326,note_on,0,0,0,,8,,,56,127
101326,note_on,0,0,0,,0,,,72,127
101446,note_off,120,0,0,,0,,,72,127
101447,note_on,1,0,0,,5,,,65,127
101567,note_off,120,0,0,,5,,,65,127
101567,note_off,0,0,0,,8,,,56,127
101567,note_off,0,0,0,,8,,,44,127
101568,note_on,1,0,0,,11,,,58,127
101568,note_on,0,0,0,,7,,,67,127
101688,note_off,120,0,0,,7,,,67,127
101689,note_on,1,0,0,,11,,,70,127
101809,note_off,120,0,0,,11,,,70,127
101809,note_off,0,0,0,,11,,,58,127
101810,note_on,1,0,0,,0,,,60,127
101810,note_on,0,0,0,,8,,,68,127
101930,note_off,120,0,0,,8,,,68,127
101931,note_on,1,0,0,,7,,,67,127
102051,note_off,120,0,0,,7,,,67,127
102052,note_on,1,0,0,,0,,,48,127
102052,note_on,0,0,0,,5,,,65,127
102172,note_off,120,0,0,,5,,,65,127
102173,note_on,1,0,0,,4,,,64,127
102289,note_off,116,0,0,,0,,,60,127
102293,note_off,4,0,0,,4,,,64,127
102293,note_off,0,0,0,,0,,,48,127
102294,note_on,1,0,0,,5,,,65,127
102294,note_on,0,0,0,,5,,,53,127
102414,note_off,120,0,0,,5,,,65,127
102417,note_on,3,0,0,,0,,,84,127
102536,note_off,119,0,0,,5,,,53,127
102537,note_off,1,0,0,,0,,,84,127
102540,note_on,3,0,0,,1,,,85,127
102540,note_on,0,0,0,,11,,,58,127
102660,note_off,120,0,0,,1,,,85,127
102663,note_on,3,0,0,,11,,,82,127
102782,note_off,119,0,0,,11,,,58,127
102783,note_off,1,0,0,,11,,,82,127
102786,note_on,3,0,0,,8,,,80,127
102786,note_on,0,0,0,,0,,,60,127
102906,note_off,120,0,0,,8,,,80,127
102909,note_on,3,0,0,,7,,,79,127
103028,note_off,119,0,0,,0,,,60,127
103029,note_off,1,0,0,,7,,,79,127
103032,note_on,3,0,0,,8,,,80,127
103032,note_on,0,0,0,,5,,,65,127
103152,note_off,120,0,0,,8,,,80,127
103155,note_on,3,0,0,,0,,,84,127
103274,note_off,119,0,0,,5,,,65,127
103275,note_off,1,0,0,,0,,,84,127
103278,note_on,3,0,0,,11,,,82,127
103278,note_on,0,0,0,,11,,,58,127
103398,note_off,120,0,0,,11,,,82,127
103401,note_on,3,0,0,,7,,,79,127
103520,note_off,119,0,0,,11,,,58,127
103521,note_off,1,0,0,,7,,,79,127
103524,note_on,3,0,0,,5,,,77,127
103524,note_on,0,0,0,,0,,,60,127
103644,note_off,120,0,0,,5,,,77,127
103647,note_on,3,0,0,,4,,,76,127
103766,note_off,119,0,0,,0,,,60,127
103769,note_off,3,0,0,,4,,,76,127
103772,note_on,3,0,0,,5,,,53,127
103772,note_on,0,0,0,,5,,,77,127
103893,note_off,121,0,0,,5,,,77,127
103897,note_on,4,0,0,,0,,,72,127
104017,note_off,120,0,0,,5,,,53,127
104018,note_off,1,0,0,,0,,,72,127
104022,note_on,4,0,0,,11,,,46,127
104022,note_on,0,0,0,,1,,,73,127
104143,note_off,121,0,0,,1,,,73,127
104147,note_on,4,0,0,,11,,,70,127
104267,note_off,120,0,0,,11,,,46,127
104268,note_off,1,0,0,,11,,,70,127
104272,note_on,4,0,0,,0,,,48,127
104272,note_on,0,0,0,,8,,,68,127
104393,note_off,121,0,0,,8,,,68,127
104397,note_on,4,0,0,,7,,,67,127
104517,note_off,120,0,0,,0,,,48,127
104518,note_off,1,0,0,,7,,,67,127
104522,note_on,4,0,0,,5,,,53,127
104522,note_on,0,0,0,,8,,,68,127
104643,note_off,121,0,0,,8,,,68,127
104647,note_on,4,0,0,,0,,,72,127
104767,note_off,120,0,0,,5,,,53,127
104768,note_off,1,0,0,,0,,,72,127
104772,note_on,4,0,0,,11,,,46,127
104772,note_on,0,0,0,,11,,,70,127
104893,note_off,121,0,0,,11,,,70,127
104897,note_on,4,0,0,,7,,,67,127
105017,note_off,120,0,0,,11,,,46,127
105018,note_off,1,0,0,,7,,,67,127
105022,note_on,4,0,0,,0,,,48,127
105022,note_on,0,0,0,,5,,,65,127
105143,note_off,121,0,0,,5,,,65,127
105147,note_on,4,0,0,,4,,,64,127
105267,note_off,120,0,0,,0,,,48,127
105271,note_off,4,0,0,,4,,,64,127
105275,note_on,4,0,0,,5,,,65,127
105275,note_on,0,0,0,,5,,,41,127
105403,note_on,128,0,0,,0,,,60,127
105526,note_off,123,0,0,,5,,,65,127
105527,note_off,1,0,0,,0,,,60,127
105527,note_off,0,0,0,,5,,,41,127
105532,note_on,5,0,0,,1,,,61,127
105532,note_on,0,0,0,,5,,,65,127
105532,note_on,0,0,0,,11,,,46,127
105656,note_off,124,0,0,,1,,,61,127
105661,note_on,5,0,0,,11,,,58,127
105784,note_off,123,0,0,,11,,,46,127
105785,note_off,1,0,0,,11,,,58,127
105790,note_on,5,0,0,,7,,,55,127
105790,note_on,0,0,0,,0,,,48,127
105902,note_off,112,0,0,,5,,,65,127
105918,note_on,16,0,0,,4,,,64,127
106039,note_off,121,0,0,,7,,,55,127
106040,note_off,1,0,0,,0,,,48,127
106041,note_off,1,0,0,,4,,,64,127
106046,note_on,5,0,0,,7,,,55,127
106046,note_on,0,0,0,,4,,,64,127
106046,note_on,0,0,0,,5,,,41,127
106544,note_off,498,0,0,,4,,,64,127
106544,note_off,0,0,0,,7,,,55,127
106544,note_on,0,0,0,,5,,,65,127
106544,note_on,0,0,0,,5,,,53,127
107999,note_off,1455,0,0,,5,,,53,127
107999,note_off,0,0,0,,5,,,65,127
107999,note_off,0,0,0,,5,,,41,127
113664,end_of_track,5665,1,0,,,,,,
