tick,type,time,meta,track,program,channel,pitch,tempo,note,velocity
0,copyright,0,1,0,,,,,,
0,program_change,0,0,0,6,0,,,,
0,pitchwheel,0,0,0,,0,0,,,
0,program_change,0,0,0,6,1,,,,
0,pitchwheel,0,0,0,,1,-590,,,
0,program_change,0,0,0,6,2,,,,
0,pitchwheel,0,0,0,,2,-272,,,
0,program_change,0,0,0,6,3,,,,
0,pitchwheel,0,0,0,,3,-353,,,
0,program_change,0,0,0,6,4,,,,
0,pitchwheel,0,0,0,,4,-560,,,
0,program_change,0,0,0,6,5,,,,
0,pitchwheel,0,0,0,,5,-80,,,
0,program_change,0,0,0,6,6,,,,
0,pitchwheel,0,0,0,,6,-625,,,
0,program_change,0,0,0,6,7,,,,
0,pitchwheel,0,0,0,,7,-130,,,
0,program_change,0,0,0,6,8,,,,
0,pitchwheel,0,0,0,,8,-512,,,
0,program_change,0,0,0,6,10,,,,
0,pitchwheel,0,0,0,,10,-464,,,
0,program_change,0,0,0,6,11,,,,
0,pitchwheel,0,0,0,,11,-208,,,
0,program_change,0,0,0,6,12,,,,
0,pitchwheel,0,0,0,,12,-553,,,
0,set_tempo,0,1,0,,,,500000,,
121,note_on,121,0,0,,10,,,45,127
362,note_off,241,0,0,,10,,,45,127
363,note_on,1,0,0,,0,,,48,127
604,note_off,241,0,0,,0,,,48,127
605,note_on,1,0,0,,4,,,52,127
846,note_off,241,0,0,,4,,,52,127
847,note_on,1,0,0,,10,,,57,127
1088,note_off,241,0,0,,10,,,57,127
1089,note_on,1,0,0,,0,,,60,127
1330,note_off,241,0,0,,0,,,60,127
1331,note_on,1,0,0,,4,,,64,127
1572,note_off,241,0,0,,4,,,64,127
1573,note_on,1,0,0,,10,,,69,127
1814,note_off,241,0,0,,10,,,69,127
1815,note_on,1,0,0,,12,,,71,127
2056,note_off,241,0,0,,12,,,71,127
2057,note_on,1,0,0,,0,,,72,127
2057,note_on,0,0,0,,10,,,81,127
2298,note_off,241,0,0,,10,,,81,127
2298,note_off,0,0,0,,0,,,72,127
2299,note_on,1,0,0,,2,,,74,127
2299,note_on,0,0,0,,8,,,80,127
2379,note_off,80,0,0,,8,,,80,127
2380,note_on,1,0,0,,10,,,81,127
2460,note_off,80,0,0,,10,,,81,127
2461,note_on,1,0,0,,12,,,83,127
2541,note_off,80,0,0,,12,,,83,127
2542,note_on,1,0,0,,5,,,77,127
2783,note_off,241,0,0,,2,,,74,127
2784,note_on,1,0,0,,2,,,74,127
3025,note_off,241,0,0,,2,,,74,127
3025,note_off,0,0,0,,5,,,77,127
3026,note_on,1,0,0,,0,,,72,127
3026,note_on,0,0,0,,4,,,76,127
3267,note_off,241,0,0,,4,,,76,127
3268,note_on,1,0,0,,10,,,81,127
3509,note_off,241,0,0,,0,,,72,127
3510,note_on,1,0,0,,10,,,69,127
3751,note_off,241,0,0,,10,,,69,127
3751,note_off,0,0,0,,10,,,81,127
3752,note_on,1,0,0,,12,,,71,127
3752,note_on,0,0,0,,8,,,80,127
3832,note_off,80,0,0,,8,,,80,127
3833,note_on,1,0,0,,10,,,81,127
3913,note_off,80,0,0,,10,,,81,127
3914,note_on,1,0,0,,12,,,83,127
3994,note_off,80,0,0,,12,,,83,127
3995,note_on,1,0,0,,2,,,74,127
4236,note_off,241,0,0,,12,,,71,127
4237,note_on,1,0,0,,4,,,64,127
4478,note_off,241,0,0,,4,,,64,127
4478,note_off,0,0,0,,2,,,74,127
4479,note_on,1,0,0,,10,,,69,127
4479,note_on,0,0,0,,2,,,74,127
4599,note_off,120,0,0,,2,,,74,127
4600,note_on,1,0,0,,0,,,72,127
4720,note_off,120,0,0,,0,,,72,127
4721,note_on,1,0,0,,12,,,71,127
4962,note_off,241,0,0,,12,,,71,127
4962,note_off,0,0,0,,10,,,69,127
4963,note_on,1,0,0,,10,,,69,127
4963,note_on,0,0,0,,10,,,81,127
5204,note_off,241,0,0,,10,,,81,127
5204,note_off,0,0,0,,10,,,69,127
5205,note_on,1,0,0,,2,,,74,127
5205,note_on,0,0,0,,8,,,80,127
5285,note_off,80,0,0,,8,,,80,127
5286,note_on,1,0,0,,10,,,81,127
5366,note_off,80,0,0,,10,,,81,127
5367,note_on,1,0,0,,12,,,83,127
5447,note_off,80,0,0,,12,,,83,127
5448,note_on,1,0,0,,5,,,77,127
5689,note_off,241,0,0,,2,,,74,127
5690,note_on,1,0,0,,2,,,74,127
5931,note_off,241,0,0,,2,,,74,127
5931,note_off,0,0,0,,5,,,77,127
5932,note_on,1,0,0,,0,,,72,127
5932,note_on,0,0,0,,4,,,76,127
6173,note_off,241,0,0,,4,,,76,127
6174,note_on,1,0,0,,10,,,81,127
6415,note_off,241,0,0,,0,,,72,127
6416,note_on,1,0,0,,10,,,69,127
6657,note_off,241,0,0,,10,,,69,127
6657,note_off,0,0,0,,10,,,81,127
6658,note_on,1,0,0,,12,,,71,127
6658,note_on,0,0,0,,8,,,80,127
6738,note_off,80,0,0,,8,,,80,127
6739,note_on,1,0,0,,10,,,81,127
6819,note_off,80,0,0,,10,,,81,127
6820,note_on,1,0,0,,12,,,83,127
6900,note_off,80,0,0,,12,,,83,127
6901,note_on,1,0,0,,2,,,74,127
7142,note_off,241,0,0,,12,,,71,127
7143,note_on,1,0,0,,4,,,64,127
7384,note_off,241,0,0,,4,,,64,127
7384,note_off,0,0,0,,2,,,74,127
7385,note_on,1,0,0,,10,,,69,127
7385,note_on,0,0,0,,2,,,74,127
7505,note_off,120,0,0,,2,,,74,127
7506,note_on,1,0,0,,0,,,72,127
7626,note_off,120,0,0,,0,,,72,127
7626,note_off,0,0,0,,10,,,69,127
7627,note_on,1,0,0,,4,,,64,127
7627,note_on,0,0,0,,12,,,71,127
7868,note_off,241,0,0,,12,,,71,127
7868,note_off,0,0,0,,4,,,64,127
7869,note_on,1,0,0,,10,,,57,127
7869,note_on,0,0,0,,10,,,69,127
8110,note_off,241,0,0,,10,,,69,127
8110,note_off,0,0,0,,10,,,57,127
8111,note_on,1,0,0,,5,,,77,127
8111,note_on,0,0,0,,10,,,81,127
8191,note_off,80,0,0,,10,,,81,127
8192,note_on,1,0,0,,12,,,83,127
8272,note_off,80,0,0,,12,,,83,127
8273,note_on,1,0,0,,7,,,79,127
8353,note_off,80,0,0,,7,,,79,127
8353,note_off,0,0,0,,5,,,77,127
8354,note_on,1,0,0,,2,,,74,127
8354,note_on,0,0,0,,5,,,77,127
8595,note_off,241,0,0,,5,,,77,127
8595,note_off,0,0,0,,2,,,74,127
8596,note_on,1,0,0,,0,,,72,127
8596,note_on,0,0,0,,4,,,76,127
8837,note_off,241,0,0,,4,,,76,127
8837,note_off,0,0,0,,0,,,72,127
8838,note_on,1,0,0,,12,,,71,127
8838,note_on,0,0,0,,4,,,76,127
8958,note_off,120,0,0,,4,,,76,127
8959,note_on,1,0,0,,2,,,74,127
9079,note_off,120,0,0,,2,,,74,127
9080,note_on,1,0,0,,1,,,73,127
9321,note_off,241,0,0,,1,,,73,127
9321,note_off,0,0,0,,12,,,71,127
9322,note_on,1,0,0,,12,,,71,127
9322,note_on,0,0,0,,2,,,74,127
9563,note_off,241,0,0,,2,,,74,127
9563,note_off,0,0,0,,12,,,71,127
9564,note_on,1,0,0,,0,,,72,127
9564,note_on,0,0,0,,4,,,76,127
9644,note_off,80,0,0,,4,,,76,127
9645,note_on,1,0,0,,5,,,77,127
9725,note_off,80,0,0,,5,,,77,127
9726,note_on,1,0,0,,2,,,74,127
9806,note_off,80,0,0,,2,,,74,127
9806,note_off,0,0,0,,0,,,72,127
9807,note_on,1,0,0,,10,,,69,127
9807,note_on,0,0,0,,0,,,72,127
10048,note_off,241,0,0,,0,,,72,127
10048,note_off,0,0,0,,10,,,69,127
10049,note_on,1,0,0,,4,,,64,127
10049,note_on,0,0,0,,12,,,71,127
10290,note_off,241,0,0,,12,,,71,127
10290,note_off,0,0,0,,4,,,64,127
10291,note_on,1,0,0,,10,,,69,127
10291,note_on,0,0,0,,0,,,72,127
10371,note_off,80,0,0,,0,,,72,127
10372,note_on,1,0,0,,2,,,74,127
10452,note_off,80,0,0,,2,,,74,127
10453,note_on,1,0,0,,0,,,72,127
10533,note_off,80,0,0,,0,,,72,127
10533,note_off,0,0,0,,10,,,69,127
10534,note_on,1,0,0,,4,,,64,127
10534,note_on,0,0,0,,12,,,71,127
10775,note_off,241,0,0,,12,,,71,127
10775,note_off,0,0,0,,4,,,64,127
10776,note_on,1,0,0,,10,,,57,127
10776,note_on,0,0,0,,10,,,69,127
10991,note_off,215,0,0,,10,,,69,127
11018,note_off,27,0,0,,10,,,57,127
11019,note_on,1,0,0,,10,,,69,127
11019,note_on,0,0,0,,0,,,72,127
11099,note_off,80,0,0,,10,,,69,127
11100,note_on,1,0,0,,12,,,71,127
11180,note_off,80,0,0,,12,,,71,127
11181,note_on,1,0,0,,7,,,67,127
11261,note_off,80,0,0,,7,,,67,127
11261,note_off,0,0,0,,0,,,72,127
11262,note_on,1,0,0,,5,,,65,127
11262,note_on,0,0,0,,2,,,74,127
11503,note_off,241,0,0,,2,,,74,127
11503,note_off,0,0,0,,5,,,65,127
11504,note_on,1,0,0,,4,,,64,127
11504,note_on,0,0,0,,4,,,76,127
11745,note_off,241,0,0,,4,,,76,127
11745,note_off,0,0,0,,4,,,64,127
11746,note_on,1,0,0,,2,,,62,127
11746,note_on,0,0,0,,7,,,79,127
11866,note_off,120,0,0,,7,,,79,127
11867,note_on,1,0,0,,5,,,77,127
11987,note_off,120,0,0,,5,,,77,127
11988,note_on,1,0,0,,4,,,76,127
12229,note_off,241,0,0,,4,,,76,127
12229,note_off,0,0,0,,2,,,62,127
12230,note_on,1,0,0,,2,,,62,127
12230,note_on,0,0,0,,5,,,77,127
12471,note_off,241,0,0,,5,,,77,127
12471,note_off,0,0,0,,2,,,62,127
12472,note_on,1,0,0,,4,,,64,127
12472,note_on,0,0,0,,8,,,68,127
12552,note_off,80,0,0,,4,,,64,127
12553,note_on,1,0,0,,5,,,65,127
12633,note_off,80,0,0,,5,,,65,127
12634,note_on,1,0,0,,2,,,62,127
12714,note_off,80,0,0,,2,,,62,127
12714,note_off,0,0,0,,8,,,68,127
12715,note_on,1,0,0,,0,,,60,127
12715,note_on,0,0,0,,10,,,69,127
12956,note_off,241,0,0,,10,,,69,127
12956,note_off,0,0,0,,0,,,60,127
12957,note_on,1,0,0,,12,,,59,127
12957,note_on,0,0,0,,12,,,71,127
13198,note_off,241,0,0,,12,,,71,127
13198,note_off,0,0,0,,12,,,59,127
13199,note_on,1,0,0,,10,,,57,127
13199,note_on,0,0,0,,2,,,74,127
13319,note_off,120,0,0,,2,,,74,127
13320,note_on,1,0,0,,0,,,72,127
13440,note_off,120,0,0,,0,,,72,127
13441,note_on,1,0,0,,12,,,71,127
13682,note_off,241,0,0,,12,,,71,127
13683,note_on,1,0,0,,10,,,69,127
13923,note_off,240,0,0,,10,,,69,127
13924,note_off,1,0,0,,10,,,57,127
13925,note_on,1,0,0,,10,,,69,127
14006,note_on,81,0,0,,0,,,72,127
14086,note_off,80,0,0,,0,,,72,127
14087,note_on,1,0,0,,2,,,74,127
14167,note_off,80,0,0,,2,,,74,127
14168,note_on,1,0,0,,4,,,76,127
14248,note_off,80,0,0,,4,,,76,127
14249,note_on,1,0,0,,5,,,77,127
14329,note_off,80,0,0,,5,,,77,127
14330,note_on,1,0,0,,7,,,79,127
14410,note_off,80,0,0,,7,,,79,127
14411,note_on,1,0,0,,10,,,81,127
14652,note_off,241,0,0,,10,,,69,127
14653,note_on,1,0,0,,5,,,65,127
14733,note_off,80,0,0,,10,,,81,127
14734,note_on,1,0,0,,10,,,69,127
14814,note_off,80,0,0,,10,,,69,127
14815,note_on,1,0,0,,12,,,71,127
14895,note_off,80,0,0,,12,,,71,127
14896,note_on,1,0,0,,0,,,72,127
14976,note_off,80,0,0,,0,,,72,127
14977,note_on,1,0,0,,2,,,74,127
15057,note_off,80,0,0,,2,,,74,127
15058,note_on,1,0,0,,4,,,76,127
15138,note_off,80,0,0,,4,,,76,127
15139,note_on,1,0,0,,5,,,77,127
15380,note_off,241,0,0,,5,,,65,127
15381,note_on,1,0,0,,2,,,62,127
15461,note_off,80,0,0,,5,,,77,127
15462,note_on,1,0,0,,5,,,65,127
15542,note_off,80,0,0,,5,,,65,127
15543,note_on,1,0,0,,7,,,67,127
15623,note_off,80,0,0,,7,,,67,127
15624,note_on,1,0,0,,10,,,69,127
15704,note_off,80,0,0,,10,,,69,127
15705,note_on,1,0,0,,12,,,71,127
15785,note_off,80,0,0,,12,,,71,127
15786,note_on,1,0,0,,0,,,72,127
15866,note_off,80,0,0,,0,,,72,127
15867,note_on,1,0,0,,2,,,74,127
16108,note_off,241,0,0,,2,,,74,127
16109,note_on,1,0,0,,7,,,79,127
16109,note_on,0,0,0,,10,,,81,127
16189,note_off,80,0,0,,2,,,62,127
16190,note_on,1,0,0,,12,,,59,127
16270,note_off,80,0,0,,12,,,59,127
16271,note_on,1,0,0,,0,,,60,127
16349,note_off,78,0,0,,10,,,81,127
16350,note_off,1,0,0,,0,,,60,127
16351,note_on,1,0,0,,2,,,62,127
16431,note_off,80,0,0,,2,,,62,127
16432,note_on,1,0,0,,4,,,64,127
16512,note_off,80,0,0,,4,,,64,127
16513,note_on,1,0,0,,5,,,65,127
16593,note_off,80,0,0,,5,,,65,127
16594,note_on,1,0,0,,7,,,67,127
16835,note_off,241,0,0,,7,,,79,127
16836,note_on,1,0,0,,5,,,77,127
16836,note_on,0,0,0,,4,,,76,127
16916,note_off,80,0,0,,7,,,67,127
16917,note_on,1,0,0,,7,,,55,127
16997,note_off,80,0,0,,7,,,55,127
16998,note_on,1,0,0,,10,,,57,127
17076,note_off,78,0,0,,5,,,77,127
17077,note_off,1,0,0,,10,,,57,127
17078,note_on,1,0,0,,12,,,59,127
17158,note_off,80,0,0,,12,,,59,127
17159,note_on,1,0,0,,0,,,60,127
17239,note_off,80,0,0,,0,,,60,127
17240,note_on,1,0,0,,2,,,62,127
17320,note_off,80,0,0,,2,,,62,127
17321,note_on,1,0,0,,4,,,64,127
17562,note_off,241,0,0,,4,,,76,127
17563,note_on,1,0,0,,0,,,72,127
17563,note_on,0,0,0,,2,,,74,127
17643,note_off,80,0,0,,4,,,64,127
17644,note_on,1,0,0,,4,,,52,127
17724,note_off,80,0,0,,4,,,52,127
17725,note_on,1,0,0,,5,,,53,127
17803,note_off,78,0,0,,2,,,74,127
17804,note_off,1,0,0,,5,,,53,127
17805,note_on,1,0,0,,7,,,55,127
17885,note_off,80,0,0,,7,,,55,127
17886,note_on,1,0,0,,10,,,57,127
17966,note_off,80,0,0,,10,,,57,127
17967,note_on,1,0,0,,12,,,59,127
18047,note_off,80,0,0,,12,,,59,127
18048,note_on,1,0,0,,0,,,60,127
18289,note_off,241,0,0,,0,,,60,127
18290,note_on,1,0,0,,0,,,36,127
18531,note_off,241,0,0,,0,,,72,127
18532,note_on,1,0,0,,7,,,79,127
18653,note_on,121,0,0,,11,,,70,127
18709,note_off,56,0,0,,7,,,79,127
18773,note_off,64,0,0,,11,,,70,127
18774,note_on,1,0,0,,10,,,69,127
18895,note_on,121,0,0,,5,,,77,127
18951,note_off,56,0,0,,10,,,69,127
19015,note_off,64,0,0,,5,,,77,127
19015,note_off,0,0,0,,0,,,36,127
19016,note_on,1,0,0,,0,,,36,127
19016,note_on,0,0,0,,4,,,76,127
19137,note_on,121,0,0,,7,,,67,127
19193,note_off,56,0,0,,4,,,76,127
19259,note_on,66,0,0,,11,,,70,127
19315,note_off,56,0,0,,7,,,67,127
19381,note_on,66,0,0,,4,,,64,127
19437,note_off,56,0,0,,11,,,70,127
19501,note_off,64,0,0,,4,,,64,127
19502,note_on,1,0,0,,5,,,65,127
19623,note_on,121,0,0,,10,,,69,127
19679,note_off,56,0,0,,5,,,65,127
19743,note_off,64,0,0,,10,,,69,127
19743,note_off,0,0,0,,0,,,36,127
19744,note_on,1,0,0,,0,,,36,127
19744,note_on,0,0,0,,7,,,67,127
19744,note_on,0,0,0,,0,,,60,127
19985,note_off,241,0,0,,0,,,60,127
19985,note_off,0,0,0,,7,,,67,127
19986,note_on,1,0,0,,7,,,79,127
20107,note_on,121,0,0,,11,,,70,127
20163,note_off,56,0,0,,7,,,79,127
20227,note_off,64,0,0,,11,,,70,127
20228,note_on,1,0,0,,10,,,69,127
20349,note_on,121,0,0,,5,,,77,127
20405,note_off,56,0,0,,10,,,69,127
20469,note_off,64,0,0,,5,,,77,127
20469,note_off,0,0,0,,0,,,36,127
20470,note_on,1,0,0,,0,,,36,127
20470,note_on,0,0,0,,4,,,76,127
20591,note_on,121,0,0,,7,,,67,127
20647,note_off,56,0,0,,4,,,76,127
20713,note_on,66,0,0,,11,,,70,127
20769,note_off,56,0,0,,7,,,67,127
20835,note_on,66,0,0,,4,,,64,127
20891,note_off,56,0,0,,11,,,70,127
20955,note_off,64,0,0,,4,,,64,127
20956,note_on,1,0,0,,5,,,65,127
21077,note_on,121,0,0,,10,,,69,127
21133,note_off,56,0,0,,5,,,65,127
21197,note_off,64,0,0,,10,,,69,127
21197,note_off,0,0,0,,0,,,36,127
21198,note_on,1,0,0,,0,,,36,127
21198,note_on,0,0,0,,0,,,60,127
21198,note_on,0,0,0,,7,,,67,127
21439,note_off,241,0,0,,7,,,67,127
21439,note_off,0,0,0,,0,,,60,127
21440,note_on,1,0,0,,7,,,79,127
21520,note_off,80,0,0,,7,,,79,127
21521,note_on,1,0,0,,10,,,81,127
21601,note_off,80,0,0,,10,,,81,127
21602,note_on,1,0,0,,5,,,77,127
21682,note_off,80,0,0,,5,,,77,127
21683,note_on,1,0,0,,4,,,76,127
21763,note_off,80,0,0,,4,,,76,127
21764,note_on,1,0,0,,5,,,77,127
21844,note_off,80,0,0,,5,,,77,127
21845,note_on,1,0,0,,2,,,74,127
21925,note_off,80,0,0,,2,,,74,127
21925,note_off,0,0,0,,0,,,36,127
21926,note_on,1,0,0,,0,,,36,127
21926,note_on,0,0,0,,0,,,72,127
22006,note_off,80,0,0,,0,,,72,127
22007,note_on,1,0,0,,2,,,74,127
22087,note_off,80,0,0,,2,,,74,127
22088,note_on,1,0,0,,11,,,70,127
22168,note_off,80,0,0,,11,,,70,127
22169,note_on,1,0,0,,10,,,69,127
22249,note_off,80,0,0,,10,,,69,127
22250,note_on,1,0,0,,11,,,70,127
22330,note_off,80,0,0,,11,,,70,127
22331,note_on,1,0,0,,7,,,67,127
22411,note_off,80,0,0,,7,,,67,127
22412,note_on,1,0,0,,6,,,66,127
22492,note_off,80,0,0,,6,,,66,127
22493,note_on,1,0,0,,7,,,67,127
22573,note_off,80,0,0,,7,,,67,127
22574,note_on,1,0,0,,4,,,64,127
22654,note_off,80,0,0,,4,,,64,127
22654,note_off,0,0,0,,0,,,36,127
22655,note_on,1,0,0,,2,,,38,127
22655,note_on,0,0,0,,2,,,62,127
22896,note_off,241,0,0,,2,,,62,127
22897,note_on,1,0,0,,10,,,81,127
23018,note_on,121,0,0,,0,,,72,127
23074,note_off,56,0,0,,10,,,81,127
23138,note_off,64,0,0,,0,,,72,127
23139,note_on,1,0,0,,12,,,71,127
23260,note_on,121,0,0,,7,,,79,127
23316,note_off,56,0,0,,12,,,71,127
23380,note_off,64,0,0,,7,,,79,127
23380,note_off,0,0,0,,2,,,38,127
23381,note_on,1,0,0,,2,,,38,127
23381,note_on,0,0,0,,6,,,78,127
23502,note_on,121,0,0,,10,,,69,127
23558,note_off,56,0,0,,6,,,78,127
23624,note_on,66,0,0,,0,,,72,127
23680,note_off,56,0,0,,10,,,69,127
23746,note_on,66,0,0,,6,,,66,127
23802,note_off,56,0,0,,0,,,72,127
23866,note_off,64,0,0,,6,,,66,127
23867,note_on,1,0,0,,7,,,67,127
23988,note_on,121,0,0,,12,,,71,127
24044,note_off,56,0,0,,7,,,67,127
24108,note_off,64,0,0,,12,,,71,127
24108,note_off,0,0,0,,2,,,38,127
24109,note_on,1,0,0,,2,,,38,127
24109,note_on,0,0,0,,2,,,62,127
24109,note_on,0,0,0,,10,,,69,127
24350,note_off,241,0,0,,10,,,69,127
24350,note_off,0,0,0,,2,,,62,127
24351,note_on,1,0,0,,10,,,81,127
24472,note_on,121,0,0,,0,,,72,127
24528,note_off,56,0,0,,10,,,81,127
24592,note_off,64,0,0,,0,,,72,127
24593,note_on,1,0,0,,12,,,71,127
24714,note_on,121,0,0,,7,,,79,127
24770,note_off,56,0,0,,12,,,71,127
24834,note_off,64,0,0,,7,,,79,127
24834,note_off,0,0,0,,2,,,38,127
24835,note_on,1,0,0,,2,,,38,127
24835,note_on,0,0,0,,6,,,78,127
24956,note_on,121,0,0,,10,,,69,127
25012,note_off,56,0,0,,6,,,78,127
25078,note_on,66,0,0,,0,,,72,127
25134,note_off,56,0,0,,10,,,69,127
25200,note_on,66,0,0,,6,,,66,127
25256,note_off,56,0,0,,0,,,72,127
25320,note_off,64,0,0,,6,,,66,127
25321,note_on,1,0,0,,7,,,67,127
25442,note_on,121,0,0,,12,,,71,127
25498,note_off,56,0,0,,7,,,67,127
25562,note_off,64,0,0,,12,,,71,127
25562,note_off,0,0,0,,2,,,38,127
25563,note_on,1,0,0,,2,,,38,127
25563,note_on,0,0,0,,2,,,62,127
25563,note_on,0,0,0,,10,,,69,127
25804,note_off,241,0,0,,10,,,69,127
25804,note_off,0,0,0,,2,,,62,127
25805,note_on,1,0,0,,10,,,81,127
25885,note_off,80,0,0,,10,,,81,127
25886,note_on,1,0,0,,12,,,83,127
25966,note_off,80,0,0,,12,,,83,127
25967,note_on,1,0,0,,7,,,79,127
26047,note_off,80,0,0,,7,,,79,127
26048,note_on,1,0,0,,6,,,78,127
26128,note_off,80,0,0,,6,,,78,127
26129,note_on,1,0,0,,7,,,79,127
26209,note_off,80,0,0,,7,,,79,127
26210,note_on,1,0,0,,4,,,76,127
26290,note_off,80,0,0,,4,,,76,127
26290,note_off,0,0,0,,2,,,38,127
26291,note_on,1,0,0,,2,,,38,127
26291,note_on,0,0,0,,2,,,74,127
26371,note_off,80,0,0,,2,,,74,127
26372,note_on,1,0,0,,4,,,76,127
26452,note_off,80,0,0,,4,,,76,127
26453,note_on,1,0,0,,0,,,72,127
26533,note_off,80,0,0,,0,,,72,127
26534,note_on,1,0,0,,12,,,71,127
26614,note_off,80,0,0,,12,,,71,127
26615,note_on,1,0,0,,0,,,72,127
26695,note_off,80,0,0,,0,,,72,127
26696,note_on,1,0,0,,10,,,69,127
26776,note_off,80,0,0,,10,,,69,127
26777,note_on,1,0,0,,8,,,68,127
26857,note_off,80,0,0,,8,,,68,127
26858,note_on,1,0,0,,10,,,69,127
26938,note_off,80,0,0,,10,,,69,127
26939,note_on,1,0,0,,5,,,65,127
27019,note_off,80,0,0,,5,,,65,127
27019,note_off,0,0,0,,2,,,38,127
27020,note_on,1,0,0,,4,,,40,127
27020,note_on,0,0,0,,4,,,64,127
27261,note_off,241,0,0,,4,,,64,127
27262,note_on,1,0,0,,12,,,83,127
27383,note_on,121,0,0,,2,,,74,127
27426,note_off,43,0,0,,12,,,83,127
27503,note_off,77,0,0,,2,,,74,127
27504,note_on,1,0,0,,0,,,72,127
27625,note_on,121,0,0,,10,,,81,127
27668,note_off,43,0,0,,0,,,72,127
27745,note_off,77,0,0,,10,,,81,127
27745,note_off,0,0,0,,4,,,40,127
27746,note_on,1,0,0,,4,,,40,127
27746,note_on,0,0,0,,8,,,80,127
27867,note_on,121,0,0,,12,,,71,127
27910,note_off,43,0,0,,8,,,80,127
27988,note_on,78,0,0,,2,,,74,127
28031,note_off,43,0,0,,12,,,71,127
28109,note_on,78,0,0,,8,,,68,127
28152,note_off,43,0,0,,2,,,74,127
28229,note_off,77,0,0,,8,,,68,127
28230,note_on,1,0,0,,10,,,69,127
28351,note_on,121,0,0,,0,,,72,127
28394,note_off,43,0,0,,10,,,69,127
28471,note_off,77,0,0,,0,,,72,127
28471,note_off,0,0,0,,4,,,40,127
28472,note_on,1,0,0,,4,,,40,127
28472,note_on,0,0,0,,4,,,64,127
28472,note_on,0,0,0,,12,,,71,127
28713,note_off,241,0,0,,12,,,71,127
28713,note_off,0,0,0,,4,,,64,127
28714,note_on,1,0,0,,12,,,83,127
28835,note_on,121,0,0,,2,,,74,127
28878,note_off,43,0,0,,12,,,83,127
28955,note_off,77,0,0,,2,,,74,127
28956,note_on,1,0,0,,0,,,72,127
29077,note_on,121,0,0,,10,,,81,127
29120,note_off,43,0,0,,0,,,72,127
29197,note_off,77,0,0,,10,,,81,127
29197,note_off,0,0,0,,4,,,40,127
29198,note_on,1,0,0,,4,,,40,127
29198,note_on,0,0,0,,8,,,80,127
29319,note_on,121,0,0,,12,,,71,127
29362,note_off,43,0,0,,8,,,80,127
29440,note_on,78,0,0,,2,,,74,127
29483,note_off,43,0,0,,12,,,71,127
29561,note_on,78,0,0,,8,,,68,127
29604,note_off,43,0,0,,2,,,74,127
29681,note_off,77,0,0,,8,,,68,127
29682,note_on,1,0,0,,10,,,69,127
29803,note_on,121,0,0,,0,,,72,127
29846,note_off,43,0,0,,10,,,69,127
29923,note_off,77,0,0,,0,,,72,127
29923,note_off,0,0,0,,4,,,40,127
29924,note_on,1,0,0,,4,,,40,127
29924,note_on,0,0,0,,12,,,71,127
29924,note_on,0,0,0,,4,,,64,127
30165,note_off,241,0,0,,4,,,64,127
30165,note_off,0,0,0,,12,,,71,127
30166,note_on,1,0,0,,12,,,83,127
30246,note_off,80,0,0,,12,,,83,127
30247,note_on,1,0,0,,0,,,84,127
30327,note_off,80,0,0,,0,,,84,127
30328,note_on,1,0,0,,10,,,81,127
30408,note_off,80,0,0,,10,,,81,127
30409,note_on,1,0,0,,8,,,80,127
30489,note_off,80,0,0,,8,,,80,127
30490,note_on,1,0,0,,10,,,81,127
30570,note_off,80,0,0,,10,,,81,127
30571,note_on,1,0,0,,5,,,77,127
30651,note_off,80,0,0,,5,,,77,127
30651,note_off,0,0,0,,4,,,40,127
30652,note_on,1,0,0,,4,,,40,127
30652,note_on,0,0,0,,4,,,76,127
30732,note_off,80,0,0,,4,,,76,127
30733,note_on,1,0,0,,5,,,77,127
30813,note_off,80,0,0,,5,,,77,127
30814,note_on,1,0,0,,2,,,74,127
30894,note_off,80,0,0,,2,,,74,127
30895,note_on,1,0,0,,0,,,72,127
30975,note_off,80,0,0,,0,,,72,127
30976,note_on,1,0,0,,2,,,74,127
31056,note_off,80,0,0,,2,,,74,127
31057,note_on,1,0,0,,12,,,71,127
31137,note_off,80,0,0,,12,,,71,127
31138,note_on,1,0,0,,10,,,69,127
31218,note_off,80,0,0,,10,,,69,127
31219,note_on,1,0,0,,12,,,71,127
31299,note_off,80,0,0,,12,,,71,127
31300,note_on,1,0,0,,8,,,68,127
31380,note_off,80,0,0,,8,,,68,127
31380,note_off,0,0,0,,4,,,40,127
31381,note_on,1,0,0,,10,,,45,127
31381,note_on,0,0,0,,10,,,69,127
31622,note_off,241,0,0,,10,,,69,127
31623,note_on,1,0,0,,0,,,72,127
31864,note_off,241,0,0,,0,,,72,127
31864,note_off,0,0,0,,10,,,45,127
31865,note_on,1,0,0,,10,,,57,127
31865,note_on,0,0,0,,4,,,76,127
32106,note_off,241,0,0,,4,,,76,127
32106,note_off,0,0,0,,10,,,57,127
32107,note_on,1,0,0,,10,,,69,127
32107,note_on,0,0,0,,0,,,72,127
32107,note_on,0,0,0,,10,,,81,127
32187,note_off,80,0,0,,10,,,81,127
32188,note_on,1,0,0,,12,,,83,127
32268,note_off,80,0,0,,12,,,83,127
32269,note_on,1,0,0,,7,,,79,127
32349,note_off,80,0,0,,7,,,79,127
32350,note_on,1,0,0,,6,,,78,127
32591,note_off,241,0,0,,6,,,78,127
32591,note_off,0,0,0,,0,,,72,127
32591,note_off,0,0,0,,10,,,69,127
32592,note_on,1,0,0,,12,,,71,127
32592,note_on,0,0,0,,7,,,67,127
32592,note_on,0,0,0,,4,,,76,127
32833,note_off,241,0,0,,4,,,76,127
32833,note_off,0,0,0,,7,,,67,127
32833,note_off,0,0,0,,12,,,71,127
32834,note_on,1,0,0,,10,,,69,127
32834,note_on,0,0,0,,0,,,72,127
32834,note_on,0,0,0,,6,,,78,127
32914,note_off,80,0,0,,6,,,78,127
32915,note_on,1,0,0,,7,,,79,127
32995,note_off,80,0,0,,7,,,79,127
32996,note_on,1,0,0,,4,,,76,127
33076,note_off,80,0,0,,4,,,76,127
33077,note_on,1,0,0,,3,,,75,127
33318,note_off,241,0,0,,3,,,75,127
33318,note_off,0,0,0,,0,,,72,127
33318,note_off,0,0,0,,10,,,69,127
33319,note_on,1,0,0,,12,,,71,127
33319,note_on,0,0,0,,7,,,67,127
33319,note_on,0,0,0,,4,,,76,127
33560,note_off,241,0,0,,4,,,76,127
33560,note_off,0,0,0,,7,,,67,127
33560,note_off,0,0,0,,12,,,71,127
33561,note_on,1,0,0,,0,,,72,127
33561,note_on,0,0,0,,10,,,69,127
33561,note_on,0,0,0,,10,,,81,127
33641,note_off,80,0,0,,10,,,81,127
33642,note_on,1,0,0,,12,,,83,127
33722,note_off,80,0,0,,12,,,83,127
33723,note_on,1,0,0,,7,,,79,127
33803,note_off,80,0,0,,7,,,79,127
33804,note_on,1,0,0,,6,,,78,127
34045,note_off,241,0,0,,6,,,78,127
34045,note_off,0,0,0,,10,,,69,127
34045,note_off,0,0,0,,0,,,72,127
34046,note_on,1,0,0,,7,,,67,127
34046,note_on,0,0,0,,12,,,71,127
34046,note_on,0,0,0,,4,,,76,127
34287,note_off,241,0,0,,4,,,76,127
34287,note_off,0,0,0,,12,,,71,127
34287,note_off,0,0,0,,7,,,67,127
34288,note_on,1,0,0,,10,,,69,127
34288,note_on,0,0,0,,0,,,72,127
34288,note_on,0,0,0,,6,,,78,127
34368,note_off,80,0,0,,6,,,78,127
34369,note_on,1,0,0,,7,,,79,127
34449,note_off,80,0,0,,7,,,79,127
34450,note_on,1,0,0,,4,,,76,127
34530,note_off,80,0,0,,4,,,76,127
34531,note_on,1,0,0,,3,,,75,127
34772,note_off,241,0,0,,3,,,75,127
34772,note_off,0,0,0,,0,,,72,127
34772,note_off,0,0,0,,10,,,69,127
34773,note_on,1,0,0,,12,,,71,127
34773,note_on,0,0,0,,7,,,67,127
34773,note_on,0,0,0,,4,,,76,127
35014,note_off,241,0,0,,4,,,76,127
35014,note_off,0,0,0,,7,,,67,127
35014,note_off,0,0,0,,12,,,71,127
35015,note_on,1,0,0,,7,,,55,127
35015,note_on,0,0,0,,4,,,64,127
35015,note_on,0,0,0,,12,,,83,127
35095,note_off,80,0,0,,12,,,83,127
35096,note_on,1,0,0,,0,,,84,127
35176,note_off,80,0,0,,0,,,84,127
35177,note_on,1,0,0,,10,,,81,127
35257,note_off,80,0,0,,10,,,81,127
35258,note_on,1,0,0,,7,,,79,127
35499,note_off,241,0,0,,7,,,79,127
35500,note_on,1,0,0,,6,,,78,127
35500,note_on,0,0,0,,12,,,83,127
35741,note_off,241,0,0,,6,,,78,127
35741,note_off,0,0,0,,4,,,64,127
35741,note_off,0,0,0,,7,,,55,127
35742,note_on,1,0,0,,0,,,60,127
35742,note_on,0,0,0,,4,,,64,127
35742,note_on,0,0,0,,4,,,76,127
35822,note_off,80,0,0,,4,,,76,127
35823,note_on,1,0,0,,6,,,78,127
35863,note_off,40,0,0,,12,,,83,127
35902,note_off,39,0,0,,6,,,78,127
35903,note_on,1,0,0,,2,,,74,127
35983,note_off,80,0,0,,2,,,74,127
35984,note_on,1,0,0,,0,,,72,127
36225,note_off,241,0,0,,0,,,72,127
36226,note_on,1,0,0,,12,,,71,127
36226,note_on,0,0,0,,4,,,76,127
36467,note_off,241,0,0,,12,,,71,127
36467,note_off,0,0,0,,4,,,64,127
36467,note_off,0,0,0,,0,,,60,127
36468,note_on,1,0,0,,10,,,57,127
36468,note_on,0,0,0,,0,,,48,127
36468,note_on,0,0,0,,10,,,69,127
36548,note_off,80,0,0,,10,,,69,127
36549,note_on,1,0,0,,12,,,71,127
36589,note_off,40,0,0,,4,,,76,127
36628,note_off,39,0,0,,12,,,71,127
36629,note_on,1,0,0,,7,,,67,127
36709,note_off,80,0,0,,7,,,67,127
36710,note_on,1,0,0,,6,,,66,127
36951,note_off,241,0,0,,6,,,66,127
36952,note_on,1,0,0,,4,,,64,127
36952,note_on,0,0,0,,4,,,76,127
36952,note_on,0,0,0,,11,,,70,127
37193,note_off,241,0,0,,11,,,70,127
37193,note_off,0,0,0,,0,,,48,127
37193,note_off,0,0,0,,10,,,57,127
37194,note_on,1,0,0,,12,,,47,127
37194,note_on,0,0,0,,12,,,71,127
37431,note_off,237,0,0,,4,,,64,127
37435,note_off,4,0,0,,12,,,47,127
37436,note_on,1,0,0,,6,,,54,127
37436,note_on,0,0,0,,6,,,66,127
37673,note_off,237,0,0,,12,,,71,127
37677,note_off,4,0,0,,6,,,66,127
37677,note_off,0,0,0,,6,,,54,127
37677,note_off,0,0,0,,4,,,76,127
37678,note_on,1,0,0,,12,,,59,127
37678,note_on,0,0,0,,3,,,75,127
37919,note_off,241,0,0,,3,,,75,127
37919,note_off,0,0,0,,12,,,59,127
37920,note_on,1,0,0,,12,,,59,127
37920,note_on,0,0,0,,12,,,71,127
37920,note_on,0,0,0,,3,,,63,127
38000,note_off,80,0,0,,12,,,59,127
38001,note_on,1,0,0,,0,,,60,127
38081,note_off,80,0,0,,0,,,60,127
38082,note_on,1,0,0,,10,,,57,127
38162,note_off,80,0,0,,10,,,57,127
38162,note_off,0,0,0,,3,,,63,127
38163,note_on,1,0,0,,7,,,55,127
38163,note_on,0,0,0,,4,,,64,127
38284,note_off,121,0,0,,12,,,71,127
38404,note_off,120,0,0,,4,,,64,127
38404,note_off,0,0,0,,7,,,55,127
38405,note_on,1,0,0,,6,,,54,127
38405,note_on,0,0,0,,6,,,66,127
38646,note_off,241,0,0,,6,,,66,127
38646,note_off,0,0,0,,6,,,54,127
38647,note_on,1,0,0,,4,,,52,127
38647,note_on,0,0,0,,7,,,67,127
38727,note_off,80,0,0,,4,,,52,127
38728,note_on,1,0,0,,6,,,54,127
38808,note_off,80,0,0,,6,,,54,127
38809,note_on,1,0,0,,2,,,50,127
38889,note_off,80,0,0,,2,,,50,127
38889,note_off,0,0,0,,7,,,67,127
38890,note_on,1,0,0,,0,,,48,127
38890,note_on,0,0,0,,10,,,69,127
39131,note_off,241,0,0,,10,,,69,127
39131,note_off,0,0,0,,0,,,48,127
39132,note_on,1,0,0,,12,,,47,127
39132,note_on,0,0,0,,12,,,71,127
39373,note_off,241,0,0,,12,,,71,127
39373,note_off,0,0,0,,12,,,47,127
39374,note_on,1,0,0,,10,,,45,127
39374,note_on,0,0,0,,0,,,72,127
39454,note_off,80,0,0,,10,,,45,127
39455,note_on,1,0,0,,12,,,47,127
39535,note_off,80,0,0,,12,,,47,127
39536,note_on,1,0,0,,7,,,43,127
39616,note_off,80,0,0,,7,,,43,127
39616,note_off,0,0,0,,0,,,72,127
39617,note_on,1,0,0,,6,,,42,127
39617,note_on,0,0,0,,12,,,71,127
39737,note_off,120,0,0,,12,,,71,127
39738,note_on,1,0,0,,10,,,69,127
39858,note_off,120,0,0,,10,,,69,127
39858,note_off,0,0,0,,6,,,42,127
39859,note_on,1,0,0,,4,,,40,127
39859,note_on,0,0,0,,7,,,67,127
40100,note_off,241,0,0,,7,,,67,127
40100,note_off,0,0,0,,4,,,40,127
40101,note_on,1,0,0,,12,,,47,127
40101,note_on,0,0,0,,10,,,69,127
40160,note_off,59,0,0,,10,,,69,127
40161,note_on,1,0,0,,7,,,67,127
40220,note_off,59,0,0,,7,,,67,127
40221,note_on,1,0,0,,10,,,69,127
40280,note_off,59,0,0,,10,,,69,127
40281,note_on,1,0,0,,7,,,67,127
40340,note_off,59,0,0,,7,,,67,127
40341,note_on,1,0,0,,6,,,66,127
40582,note_off,241,0,0,,12,,,47,127
40583,note_on,1,0,0,,12,,,35,127
40824,note_off,241,0,0,,12,,,35,127
40824,note_off,0,0,0,,6,,,66,127
40825,note_on,1,0,0,,12,,,59,127
40825,note_on,0,0,0,,3,,,75,127
40905,note_off,80,0,0,,3,,,75,127
40906,note_on,1,0,0,,4,,,76,127
40986,note_off,80,0,0,,4,,,76,127
40987,note_on,1,0,0,,6,,,78,127
41067,note_off,80,0,0,,6,,,78,127
41067,note_off,0,0,0,,12,,,59,127
41068,note_on,1,0,0,,6,,,66,127
41068,note_on,0,0,0,,3,,,75,127
41309,note_off,241,0,0,,6,,,66,127
41310,note_on,1,0,0,,12,,,71,127
41551,note_off,241,0,0,,3,,,75,127
41552,note_on,1,0,0,,12,,,59,127
41552,note_on,0,0,0,,2,,,74,127
41552,note_on,0,0,0,,0,,,72,127
41789,note_off,237,0,0,,12,,,71,127
41794,note_on,5,0,0,,10,,,69,127
42035,note_off,241,0,0,,10,,,69,127
42035,note_off,0,0,0,,0,,,72,127
42035,note_off,0,0,0,,2,,,74,127
42036,note_on,1,0,0,,7,,,67,127
42036,note_on,0,0,0,,4,,,76,127
42277,note_off,241,0,0,,4,,,76,127
42277,note_off,0,0,0,,7,,,67,127
42277,note_off,0,0,0,,12,,,59,127
42278,note_on,1,0,0,,6,,,66,127
42278,note_on,0,0,0,,12,,,59,127
42278,note_on,0,0,0,,3,,,75,127
42358,note_off,80,0,0,,3,,,75,127
42359,note_on,1,0,0,,4,,,76,127
42439,note_off,80,0,0,,4,,,76,127
42440,note_on,1,0,0,,6,,,78,127
42520,note_off,80,0,0,,6,,,78,127
42520,note_off,0,0,0,,6,,,66,127
42521,note_on,1,0,0,,6,,,66,127
42521,note_on,0,0,0,,0,,,72,127
42762,note_off,241,0,0,,0,,,72,127
42762,note_off,0,0,0,,6,,,66,127
42763,note_on,1,0,0,,4,,,64,127
42763,note_on,0,0,0,,10,,,69,127
43004,note_off,241,0,0,,10,,,69,127
43004,note_off,0,0,0,,4,,,64,127
43004,note_off,0,0,0,,12,,,59,127
43005,note_on,1,0,0,,12,,,59,127
43005,note_on,0,0,0,,4,,,64,127
43005,note_on,0,0,0,,11,,,70,127
43246,note_off,241,0,0,,11,,,70,127
43246,note_off,0,0,0,,4,,,64,127
43247,note_on,1,0,0,,3,,,63,127
43247,note_on,0,0,0,,12,,,71,127
43488,note_off,241,0,0,,3,,,63,127
43489,note_on,1,0,0,,0,,,60,127
43730,note_off,241,0,0,,0,,,60,127
43730,note_off,0,0,0,,12,,,71,127
43730,note_off,0,0,0,,12,,,59,127
43731,note_on,1,0,0,,12,,,59,127
43731,note_on,0,0,0,,6,,,78,127
43811,note_off,80,0,0,,6,,,78,127
43812,note_on,1,0,0,,7,,,79,127
43892,note_off,80,0,0,,7,,,79,127
43893,note_on,1,0,0,,10,,,81,127
43973,note_off,80,0,0,,10,,,81,127
43974,note_on,1,0,0,,6,,,66,127
43974,note_on,0,0,0,,4,,,76,127
44211,note_off,237,0,0,,12,,,59,127
44215,note_off,4,0,0,,4,,,76,127
44215,note_off,0,0,0,,6,,,66,127
44216,note_on,1,0,0,,10,,,57,127
44216,note_on,0,0,0,,3,,,75,127
44457,note_off,241,0,0,,3,,,75,127
44457,note_off,0,0,0,,10,,,57,127
44458,note_on,1,0,0,,7,,,55,127
44458,note_on,0,0,0,,4,,,76,127
44699,note_off,241,0,0,,4,,,76,127
44700,note_on,1,0,0,,4,,,64,127
44700,note_on,0,0,0,,12,,,83,127
44937,note_off,237,0,0,,7,,,55,127
44941,note_off,4,0,0,,12,,,83,127
44941,note_off,0,0,0,,4,,,64,127
44942,note_on,1,0,0,,10,,,57,127
44942,note_on,0,0,0,,6,,,66,127
44942,note_on,0,0,0,,10,,,81,127
45183,note_off,241,0,0,,10,,,81,127
45183,note_off,0,0,0,,6,,,66,127
45183,note_off,0,0,0,,10,,,57,127
45184,note_on,1,0,0,,12,,,59,127
45184,note_on,0,0,0,,7,,,67,127
45184,note_on,0,0,0,,7,,,79,127
45184,note_on,0,0,0,,10,,,81,127
45264,note_off,80,0,0,,10,,,81,127
45264,note_off,0,0,0,,7,,,79,127
45265,note_on,1,0,0,,6,,,78,127
45345,note_off,80,0,0,,6,,,78,127
45346,note_on,1,0,0,,4,,,76,127
45426,note_off,80,0,0,,4,,,76,127
45427,note_on,1,0,0,,4,,,76,127
45668,note_off,241,0,0,,4,,,76,127
45668,note_off,0,0,0,,7,,,67,127
45669,note_on,1,0,0,,6,,,66,127
45669,note_on,0,0,0,,3,,,75,127
45910,note_off,241,0,0,,3,,,75,127
45910,note_off,0,0,0,,6,,,66,127
45910,note_off,0,0,0,,12,,,59,127
45911,note_on,1,0,0,,4,,,52,127
45911,note_on,0,0,0,,3,,,75,127
46154,note_on,243,0,0,,12,,,59,127
46391,note_off,237,0,0,,4,,,52,127
46395,note_off,4,0,0,,12,,,59,127
46395,note_off,0,0,0,,3,,,75,127
46396,note_on,1,0,0,,4,,,64,127
46396,note_on,0,0,0,,4,,,76,127
46637,note_off,241,0,0,,4,,,76,127
46637,note_off,0,0,0,,4,,,64,127
46638,note_on,1,0,0,,12,,,59,127
46638,note_on,0,0,0,,3,,,75,127
46718,note_off,80,0,0,,3,,,75,127
46719,note_on,1,0,0,,4,,,76,127
46799,note_off,80,0,0,,4,,,76,127
46800,note_on,1,0,0,,6,,,78,127
46880,note_off,80,0,0,,6,,,78,127
46881,note_on,1,0,0,,6,,,66,127
46881,note_on,0,0,0,,3,,,75,127
47122,note_off,241,0,0,,6,,,66,127
47123,note_on,1,0,0,,12,,,71,127
47364,note_off,241,0,0,,3,,,75,127
47364,note_off,0,0,0,,12,,,59,127
47365,note_on,1,0,0,,12,,,59,127
47365,note_on,0,0,0,,2,,,74,127
47365,note_on,0,0,0,,0,,,72,127
47602,note_off,237,0,0,,12,,,71,127
47607,note_on,5,0,0,,10,,,69,127
47848,note_off,241,0,0,,10,,,69,127
47848,note_off,0,0,0,,0,,,72,127
47848,note_off,0,0,0,,2,,,74,127
47849,note_on,1,0,0,,7,,,67,127
47849,note_on,0,0,0,,4,,,76,127
48090,note_off,241,0,0,,4,,,76,127
48090,note_off,0,0,0,,7,,,67,127
48090,note_off,0,0,0,,12,,,59,127
48091,note_on,1,0,0,,6,,,66,127
48091,note_on,0,0,0,,12,,,59,127
48091,note_on,0,0,0,,3,,,75,127
48171,note_off,80,0,0,,3,,,75,127
48172,note_on,1,0,0,,4,,,76,127
48252,note_off,80,0,0,,4,,,76,127
48253,note_on,1,0,0,,6,,,78,127
48333,note_off,80,0,0,,6,,,78,127
48333,note_off,0,0,0,,6,,,66,127
48334,note_on,1,0,0,,6,,,66,127
48334,note_on,0,0,0,,0,,,72,127
48575,note_off,241,0,0,,0,,,72,127
48575,note_off,0,0,0,,6,,,66,127
48576,note_on,1,0,0,,4,,,64,127
48576,note_on,0,0,0,,12,,,71,127
48817,note_off,241,0,0,,12,,,71,127
48817,note_off,0,0,0,,4,,,64,127
48817,note_off,0,0,0,,12,,,59,127
48818,note_on,1,0,0,,12,,,59,127
48818,note_on,0,0,0,,4,,,64,127
48818,note_on,0,0,0,,11,,,70,127
49059,note_off,241,0,0,,11,,,70,127
49059,note_off,0,0,0,,4,,,64,127
49060,note_on,1,0,0,,3,,,63,127
49060,note_on,0,0,0,,12,,,71,127
49301,note_off,241,0,0,,3,,,63,127
49302,note_on,1,0,0,,0,,,60,127
49543,note_off,241,0,0,,0,,,60,127
49543,note_off,0,0,0,,12,,,71,127
49543,note_off,0,0,0,,12,,,59,127
49544,note_on,1,0,0,,12,,,59,127
49544,note_on,0,0,0,,6,,,78,127
49624,note_off,80,0,0,,6,,,78,127
49625,note_on,1,0,0,,7,,,79,127
49705,note_off,80,0,0,,7,,,79,127
49706,note_on,1,0,0,,10,,,81,127
49786,note_off,80,0,0,,10,,,81,127
49787,note_on,1,0,0,,6,,,66,127
49787,note_on,0,0,0,,4,,,76,127
50024,note_off,237,0,0,,12,,,59,127
50028,note_off,4,0,0,,4,,,76,127
50029,note_on,1,0,0,,10,,,57,127
50029,note_on,0,0,0,,3,,,75,127
50270,note_off,241,0,0,,3,,,75,127
50270,note_off,0,0,0,,10,,,57,127
50271,note_on,1,0,0,,7,,,55,127
50271,note_on,0,0,0,,4,,,76,127
50512,note_off,241,0,0,,4,,,76,127
50512,note_off,0,0,0,,6,,,66,127
50513,note_on,1,0,0,,4,,,64,127
50513,note_on,0,0,0,,12,,,83,127
50750,note_off,237,0,0,,7,,,55,127
50754,note_off,4,0,0,,12,,,83,127
50754,note_off,0,0,0,,4,,,64,127
50755,note_on,1,0,0,,10,,,57,127
50755,note_on,0,0,0,,6,,,66,127
50755,note_on,0,0,0,,10,,,81,127
50996,note_off,241,0,0,,10,,,81,127
50996,note_off,0,0,0,,6,,,66,127
50996,note_off,0,0,0,,10,,,57,127
50997,note_on,1,0,0,,12,,,59,127
50997,note_on,0,0,0,,7,,,67,127
50997,note_on,0,0,0,,7,,,79,127
50997,note_on,0,0,0,,10,,,81,127
51077,note_off,80,0,0,,10,,,81,127
51077,note_off,0,0,0,,7,,,79,127
51078,note_on,1,0,0,,6,,,78,127
51158,note_off,80,0,0,,6,,,78,127
51159,note_on,1,0,0,,4,,,76,127
51239,note_off,80,0,0,,4,,,76,127
51240,note_on,1,0,0,,4,,,76,127
51481,note_off,241,0,0,,4,,,76,127
51481,note_off,0,0,0,,7,,,67,127
51481,note_off,0,0,0,,12,,,59,127
51482,note_on,1,0,0,,12,,,59,127
51482,note_on,0,0,0,,3,,,75,127
51482,note_on,0,0,0,,6,,,66,127
51723,note_off,241,0,0,,6,,,66,127
51723,note_off,0,0,0,,3,,,75,127
51724,note_on,1,0,0,,12,,,71,127
51804,note_off,80,0,0,,12,,,71,127
51805,note_on,1,0,0,,0,,,72,127
51885,note_off,80,0,0,,0,,,72,127
51886,note_on,1,0,0,,2,,,74,127
51966,note_off,80,0,0,,2,,,74,127
51966,note_off,0,0,0,,12,,,59,127
51967,note_on,1,0,0,,10,,,57,127
51967,note_on,0,0,0,,0,,,72,127
52210,note_on,243,0,0,,10,,,45,127
52447,note_off,237,0,0,,10,,,57,127
52451,note_off,4,0,0,,10,,,45,127
52451,note_off,0,0,0,,0,,,72,127
52452,note_on,1,0,0,,12,,,47,127
52452,note_on,0,0,0,,12,,,71,127
52532,note_off,80,0,0,,12,,,71,127
52533,note_on,1,0,0,,4,,,76,127
52614,note_on,81,0,0,,10,,,69,127
52694,note_off,80,0,0,,10,,,69,127
52695,note_on,1,0,0,,7,,,67,127
52897,note_off,202,0,0,,4,,,76,127
52936,note_off,39,0,0,,7,,,67,127
52936,note_off,0,0,0,,12,,,47,127
52937,note_on,1,0,0,,12,,,59,127
52937,note_on,0,0,0,,3,,,75,127
52937,note_on,0,0,0,,6,,,66,127
53177,note_off,240,0,0,,12,,,59,127
53178,note_off,1,0,0,,6,,,66,127
53178,note_off,0,0,0,,3,,,75,127
53179,note_on,1,0,0,,12,,,59,127
53259,note_off,80,0,0,,12,,,59,127
53260,note_on,1,0,0,,0,,,60,127
53340,note_off,80,0,0,,0,,,60,127
53341,note_on,1,0,0,,2,,,62,127
53421,note_off,80,0,0,,2,,,62,127
53422,note_on,1,0,0,,10,,,57,127
53422,note_on,0,0,0,,0,,,60,127
53665,note_on,243,0,0,,10,,,45,127
53902,note_off,237,0,0,,10,,,57,127
53906,note_off,4,0,0,,10,,,45,127
53906,note_off,0,0,0,,0,,,60,127
53907,note_on,1,0,0,,12,,,47,127
53907,note_on,0,0,0,,12,,,59,127
53987,note_off,80,0,0,,12,,,59,127
53988,note_on,1,0,0,,4,,,64,127
54069,note_on,81,0,0,,10,,,57,127
54149,note_off,80,0,0,,10,,,57,127
54150,note_on,1,0,0,,7,,,55,127
54352,note_off,202,0,0,,4,,,64,127
54391,note_off,39,0,0,,7,,,55,127
54391,note_off,0,0,0,,12,,,47,127
54392,note_on,1,0,0,,12,,,47,127
54392,note_on,0,0,0,,3,,,63,127
54392,note_on,0,0,0,,6,,,54,127
54633,note_off,241,0,0,,6,,,54,127
54633,note_off,0,0,0,,3,,,63,127
54633,note_off,0,0,0,,12,,,47,127
54634,note_on,1,0,0,,4,,,40,127
54634,note_on,0,0,0,,4,,,52,127
54634,note_on,0,0,0,,3,,,63,127
55118,note_off,484,0,0,,3,,,63,127
55119,note_on,1,0,0,,4,,,64,127
55360,note_off,241,0,0,,4,,,64,127
55360,note_off,0,0,0,,4,,,52,127
55360,note_off,0,0,0,,4,,,40,127
55361,note_on,1,0,0,,4,,,40,127
55361,note_on,0,0,0,,12,,,83,127
55441,note_off,80,0,0,,12,,,83,127
55442,note_on,1,0,0,,0,,,84,127
55522,note_off,80,0,0,,0,,,84,127
55523,note_on,1,0,0,,10,,,81,127
55603,note_off,80,0,0,,10,,,81,127
55604,note_on,1,0,0,,8,,,80,127
55684,note_off,80,0,0,,8,,,80,127
55685,note_on,1,0,0,,10,,,81,127
55765,note_off,80,0,0,,10,,,81,127
55766,note_on,1,0,0,,5,,,77,127
55846,note_off,80,0,0,,5,,,77,127
55847,note_on,1,0,0,,4,,,76,127
55927,note_off,80,0,0,,4,,,76,127
55928,note_on,1,0,0,,5,,,77,127
56008,note_off,80,0,0,,5,,,77,127
56009,note_on,1,0,0,,2,,,74,127
56089,note_off,80,0,0,,2,,,74,127
56089,note_off,0,0,0,,4,,,40,127
56090,note_on,1,0,0,,4,,,40,127
56090,note_on,0,0,0,,0,,,72,127
56170,note_off,80,0,0,,0,,,72,127
56171,note_on,1,0,0,,2,,,74,127
56251,note_off,80,0,0,,2,,,74,127
56252,note_on,1,0,0,,12,,,71,127
56332,note_off,80,0,0,,12,,,71,127
56333,note_on,1,0,0,,10,,,69,127
56413,note_off,80,0,0,,10,,,69,127
56414,note_on,1,0,0,,12,,,71,127
56494,note_off,80,0,0,,12,,,71,127
56495,note_on,1,0,0,,7,,,67,127
56575,note_off,80,0,0,,7,,,67,127
56576,note_on,1,0,0,,5,,,65,127
56656,note_off,80,0,0,,5,,,65,127
56657,note_on,1,0,0,,7,,,67,127
56737,note_off,80,0,0,,7,,,67,127
56738,note_on,1,0,0,,4,,,64,127
56818,note_off,80,0,0,,4,,,64,127
56818,note_off,0,0,0,,4,,,40,127
56819,note_on,1,0,0,,4,,,40,127
56819,note_on,0,0,0,,2,,,62,127
56899,note_off,80,0,0,,2,,,62,127
56900,note_on,1,0,0,,4,,,64,127
56980,note_off,80,0,0,,4,,,64,127
56981,note_on,1,0,0,,0,,,60,127
57061,note_off,80,0,0,,0,,,60,127
57062,note_on,1,0,0,,12,,,59,127
57142,note_off,80,0,0,,12,,,59,127
57143,note_on,1,0,0,,0,,,60,127
57223,note_off,80,0,0,,0,,,60,127
57224,note_on,1,0,0,,10,,,57,127
57304,note_off,80,0,0,,10,,,57,127
57305,note_on,1,0,0,,8,,,56,127
57385,note_off,80,0,0,,8,,,56,127
57386,note_on,1,0,0,,10,,,57,127
57466,note_off,80,0,0,,10,,,57,127
57467,note_on,1,0,0,,5,,,53,127
57547,note_off,80,0,0,,5,,,53,127
57547,note_off,0,0,0,,4,,,40,127
57548,note_on,1,0,0,,4,,,40,127
57548,note_on,0,0,0,,5,,,53,127
57789,note_off,241,0,0,,5,,,53,127
57790,note_on,1,0,0,,4,,,52,127
58274,note_off,484,0,0,,4,,,52,127
58274,note_off,0,0,0,,4,,,40,127
58275,note_on,1,0,0,,12,,,59,127
58275,note_on,0,0,0,,2,,,62,127
58355,note_off,80,0,0,,2,,,62,127
58356,note_on,1,0,0,,4,,,64,127
58436,note_off,80,0,0,,4,,,64,127
58437,note_on,1,0,0,,0,,,60,127
58517,note_off,80,0,0,,0,,,60,127
58517,note_off,0,0,0,,12,,,59,127
58518,note_on,1,0,0,,8,,,56,127
58518,note_on,0,0,0,,12,,,59,127
58759,note_off,241,0,0,,12,,,59,127
58759,note_off,0,0,0,,8,,,56,127
58760,note_on,1,0,0,,4,,,52,127
58760,note_on,0,0,0,,4,,,64,127
59001,note_off,241,0,0,,4,,,64,127
59001,note_off,0,0,0,,4,,,52,127
59002,note_on,1,0,0,,10,,,57,127
59002,note_on,0,0,0,,2,,,62,127
59122,note_off,120,0,0,,2,,,62,127
59123,note_on,1,0,0,,0,,,60,127
59243,note_off,120,0,0,,0,,,60,127
59243,note_off,0,0,0,,10,,,57,127
59244,note_on,1,0,0,,10,,,45,127
59244,note_on,0,0,0,,12,,,59,127
59485,note_off,241,0,0,,12,,,59,127
59486,note_on,1,0,0,,10,,,57,127
59727,note_off,241,0,0,,10,,,57,127
59727,note_off,0,0,0,,10,,,45,127
59728,note_on,1,0,0,,12,,,59,127
59728,note_on,0,0,0,,2,,,62,127
59808,note_off,80,0,0,,2,,,62,127
59809,note_on,1,0,0,,4,,,64,127
59889,note_off,80,0,0,,4,,,64,127
59890,note_on,1,0,0,,0,,,60,127
59970,note_off,80,0,0,,0,,,60,127
59970,note_off,0,0,0,,12,,,59,127
59971,note_on,1,0,0,,8,,,56,127
59971,note_on,0,0,0,,12,,,59,127
60212,note_off,241,0,0,,12,,,59,127
60212,note_off,0,0,0,,8,,,56,127
60213,note_on,1,0,0,,4,,,52,127
60213,note_on,0,0,0,,4,,,64,127
60454,note_off,241,0,0,,4,,,64,127
60454,note_off,0,0,0,,4,,,52,127
60455,note_on,1,0,0,,10,,,57,127
60455,note_on,0,0,0,,2,,,62,127
60575,note_off,120,0,0,,2,,,62,127
60576,note_on,1,0,0,,0,,,60,127
60696,note_off,120,0,0,,0,,,60,127
60696,note_off,0,0,0,,10,,,57,127
60697,note_on,1,0,0,,10,,,45,127
60697,note_on,0,0,0,,12,,,59,127
60938,note_off,241,0,0,,12,,,59,127
60939,note_on,1,0,0,,10,,,57,127
61180,note_off,241,0,0,,10,,,57,127
61180,note_off,0,0,0,,10,,,45,127
61181,note_on,1,0,0,,0,,,60,127
61181,note_on,0,0,0,,4,,,64,127
61261,note_off,80,0,0,,4,,,64,127
61262,note_on,1,0,0,,5,,,65,127
61342,note_off,80,0,0,,5,,,65,127
61343,note_on,1,0,0,,2,,,62,127
61423,note_off,80,0,0,,2,,,62,127
61423,note_off,0,0,0,,0,,,60,127
61424,note_on,1,0,0,,10,,,57,127
61424,note_on,0,0,0,,0,,,60,127
61665,note_off,241,0,0,,0,,,60,127
61665,note_off,0,0,0,,10,,,57,127
61666,note_on,1,0,0,,7,,,55,127
61666,note_on,0,0,0,,12,,,59,127
61907,note_off,241,0,0,,12,,,59,127
61907,note_off,0,0,0,,7,,,55,127
61908,note_on,1,0,0,,5,,,53,127
61908,note_on,0,0,0,,12,,,59,127
61967,note_off,59,0,0,,12,,,59,127
61968,note_on,1,0,0,,10,,,57,127
62027,note_off,59,0,0,,10,,,57,127
62028,note_on,1,0,0,,12,,,59,127
62087,note_off,59,0,0,,12,,,59,127
62088,note_on,1,0,0,,10,,,57,127
62147,note_off,59,0,0,,10,,,57,127
62148,note_on,1,0,0,,8,,,56,127
62389,note_off,241,0,0,,8,,,56,127
62389,note_off,0,0,0,,5,,,53,127
62390,note_on,1,0,0,,5,,,53,127
62390,note_on,0,0,0,,10,,,57,127
62631,note_off,241,0,0,,10,,,57,127
62631,note_off,0,0,0,,5,,,53,127
62632,note_on,1,0,0,,2,,,62,127
62632,note_on,0,0,0,,5,,,65,127
62712,note_off,80,0,0,,5,,,65,127
62713,note_on,1,0,0,,7,,,67,127
62793,note_off,80,0,0,,7,,,67,127
62794,note_on,1,0,0,,4,,,64,127
62874,note_off,80,0,0,,4,,,64,127
62874,note_off,0,0,0,,2,,,62,127
62875,note_on,1,0,0,,12,,,59,127
62875,note_on,0,0,0,,2,,,62,127
63116,note_off,241,0,0,,2,,,62,127
63116,note_off,0,0,0,,12,,,59,127
63117,note_on,1,0,0,,10,,,57,127
63117,note_on,0,0,0,,0,,,60,127
63358,note_off,241,0,0,,0,,,60,127
63358,note_off,0,0,0,,10,,,57,127
63359,note_on,1,0,0,,7,,,55,127
63359,note_on,0,0,0,,0,,,60,127
63479,note_off,120,0,0,,0,,,60,127
63480,note_on,1,0,0,,12,,,59,127
63600,note_off,120,0,0,,12,,,59,127
63601,note_on,1,0,0,,10,,,57,127
63842,note_off,241,0,0,,10,,,57,127
63842,note_off,0,0,0,,7,,,55,127
63843,note_on,1,0,0,,7,,,55,127
63843,note_on,0,0,0,,12,,,59,127
64084,note_off,241,0,0,,12,,,59,127
64084,note_off,0,0,0,,7,,,55,127
64085,note_on,1,0,0,,12,,,59,127
64085,note_on,0,0,0,,2,,,62,127
64085,note_on,0,0,0,,6,,,66,127
64165,note_off,80,0,0,,6,,,66,127
64166,note_on,1,0,0,,7,,,67,127
64246,note_off,80,0,0,,7,,,67,127
64247,note_on,1,0,0,,10,,,69,127
64327,note_off,80,0,0,,10,,,69,127
64327,note_off,0,0,0,,2,,,62,127
64327,note_off,0,0,0,,12,,,59,127
64328,note_on,1,0,0,,12,,,59,127
64328,note_on,0,0,0,,2,,,62,127
64328,note_on,0,0,0,,7,,,67,127
64569,note_off,241,0,0,,2,,,62,127
64569,note_off,0,0,0,,12,,,59,127
64570,note_on,1,0,0,,2,,,62,127
64570,note_on,0,0,0,,12,,,59,127
64811,note_off,241,0,0,,12,,,59,127
64811,note_off,0,0,0,,2,,,62,127
64811,note_off,0,0,0,,7,,,67,127
64812,note_on,1,0,0,,0,,,60,127
64812,note_on,0,0,0,,4,,,64,127
64812,note_on,0,0,0,,6,,,66,127
64892,note_off,80,0,0,,6,,,66,127
64893,note_on,1,0,0,,7,,,67,127
64973,note_off,80,0,0,,7,,,67,127
64974,note_on,1,0,0,,10,,,69,127
65054,note_off,80,0,0,,10,,,69,127
65054,note_off,0,0,0,,4,,,64,127
65054,note_off,0,0,0,,0,,,60,127
65055,note_on,1,0,0,,4,,,64,127
65055,note_on,0,0,0,,0,,,60,127
65055,note_on,0,0,0,,7,,,67,127
65296,note_off,241,0,0,,0,,,60,127
65296,note_off,0,0,0,,4,,,64,127
65297,note_on,1,0,0,,4,,,64,127
65297,note_on,0,0,0,,0,,,60,127
65538,note_off,241,0,0,,0,,,60,127
65538,note_off,0,0,0,,4,,,64,127
65538,note_off,0,0,0,,7,,,67,127
65539,note_on,1,0,0,,12,,,59,127
65539,note_on,0,0,0,,2,,,62,127
65539,note_on,0,0,0,,6,,,66,127
65619,note_off,80,0,0,,6,,,66,127
65620,note_on,1,0,0,,7,,,67,127
65700,note_off,80,0,0,,7,,,67,127
65701,note_on,1,0,0,,10,,,69,127
65781,note_off,80,0,0,,10,,,69,127
65781,note_off,0,0,0,,2,,,62,127
65781,note_off,0,0,0,,12,,,59,127
65782,note_on,1,0,0,,2,,,62,127
65782,note_on,0,0,0,,12,,,59,127
65782,note_on,0,0,0,,7,,,67,127
66023,note_off,241,0,0,,12,,,59,127
66023,note_off,0,0,0,,2,,,62,127
66024,note_on,1,0,0,,2,,,62,127
66024,note_on,0,0,0,,12,,,59,127
66265,note_off,241,0,0,,12,,,59,127
66265,note_off,0,0,0,,2,,,62,127
66265,note_off,0,0,0,,7,,,67,127
66266,note_on,1,0,0,,4,,,64,127
66266,note_on,0,0,0,,0,,,60,127
66266,note_on,0,0,0,,6,,,66,127
66346,note_off,80,0,0,,6,,,66,127
66347,note_on,1,0,0,,7,,,67,127
66427,note_off,80,0,0,,7,,,67,127
66428,note_on,1,0,0,,10,,,69,127
66508,note_off,80,0,0,,10,,,69,127
66508,note_off,0,0,0,,0,,,60,127
66508,note_off,0,0,0,,4,,,64,127
66509,note_on,1,0,0,,4,,,64,127
66509,note_on,0,0,0,,0,,,60,127
66509,note_on,0,0,0,,7,,,67,127
66750,note_off,241,0,0,,0,,,60,127
66750,note_off,0,0,0,,4,,,64,127
66751,note_on,1,0,0,,0,,,60,127
66751,note_on,0,0,0,,4,,,64,127
66992,note_off,241,0,0,,4,,,64,127
66992,note_off,0,0,0,,0,,,60,127
66992,note_off,0,0,0,,7,,,67,127
66993,note_on,1,0,0,,5,,,65,127
66993,note_on,0,0,0,,2,,,62,127
66993,note_on,0,0,0,,12,,,59,127
66993,note_on,0,0,0,,10,,,69,127
67234,note_off,241,0,0,,10,,,69,127
67234,note_off,0,0,0,,12,,,59,127
67234,note_off,0,0,0,,2,,,62,127
67234,note_off,0,0,0,,5,,,65,127
67235,note_on,1,0,0,,2,,,62,127
67235,note_on,0,0,0,,12,,,59,127
67235,note_on,0,0,0,,5,,,65,127
67235,note_on,0,0,0,,8,,,68,127
67476,note_off,241,0,0,,8,,,68,127
67476,note_off,0,0,0,,5,,,65,127
67476,note_off,0,0,0,,12,,,59,127
67476,note_off,0,0,0,,2,,,62,127
67477,note_on,1,0,0,,2,,,62,127
67477,note_on,0,0,0,,12,,,59,127
67477,note_on,0,0,0,,5,,,65,127
67477,note_on,0,0,0,,12,,,71,127
67718,note_off,241,0,0,,12,,,71,127
67718,note_off,0,0,0,,5,,,65,127
67718,note_off,0,0,0,,12,,,59,127
67718,note_off,0,0,0,,2,,,62,127
67719,note_on,1,0,0,,4,,,64,127
67719,note_on,0,0,0,,0,,,60,127
67719,note_on,0,0,0,,12,,,71,127
67960,note_off,241,0,0,,12,,,71,127
67960,note_off,0,0,0,,0,,,60,127
67960,note_off,0,0,0,,4,,,64,127
67961,note_on,1,0,0,,4,,,64,127
67961,note_on,0,0,0,,0,,,60,127
67961,note_on,0,0,0,,10,,,69,127
68202,note_off,241,0,0,,10,,,69,127
68202,note_off,0,0,0,,0,,,60,127
68202,note_off,0,0,0,,4,,,64,127
68203,note_on,1,0,0,,4,,,64,127
68203,note_on,0,0,0,,0,,,60,127
68203,note_on,0,0,0,,0,,,72,127
68444,note_off,241,0,0,,0,,,72,127
68444,note_off,0,0,0,,0,,,60,127
68444,note_off,0,0,0,,4,,,64,127
68445,note_on,1,0,0,,12,,,59,127
68445,note_on,0,0,0,,8,,,56,127
68445,note_on,0,0,0,,4,,,64,127
68445,note_on,0,0,0,,0,,,72,127
68686,note_off,241,0,0,,0,,,72,127
68686,note_off,0,0,0,,4,,,64,127
68686,note_off,0,0,0,,8,,,56,127
68686,note_off,0,0,0,,12,,,59,127
68687,note_on,1,0,0,,8,,,56,127
68687,note_on,0,0,0,,4,,,64,127
68687,note_on,0,0,0,,12,,,59,127
68687,note_on,0,0,0,,12,,,71,127
68928,note_off,241,0,0,,12,,,71,127
68928,note_off,0,0,0,,12,,,59,127
68928,note_off,0,0,0,,4,,,64,127
68928,note_off,0,0,0,,8,,,56,127
68929,note_on,1,0,0,,12,,,59,127
68929,note_on,0,0,0,,8,,,56,127
68929,note_on,0,0,0,,4,,,64,127
68929,note_on,0,0,0,,2,,,74,127
69170,note_off,241,0,0,,2,,,74,127
69170,note_off,0,0,0,,4,,,64,127
69170,note_off,0,0,0,,8,,,56,127
69170,note_off,0,0,0,,12,,,59,127
69171,note_on,1,0,0,,10,,,57,127
69171,note_on,0,0,0,,2,,,74,127
69291,note_off,120,0,0,,2,,,74,127
69292,note_on,1,0,0,,0,,,72,127
69412,note_off,120,0,0,,0,,,72,127
69412,note_off,0,0,0,,10,,,57,127
69413,note_on,1,0,0,,4,,,52,127
69413,note_on,0,0,0,,12,,,71,127
69654,note_off,241,0,0,,12,,,71,127
69654,note_off,0,0,0,,4,,,52,127
69655,note_on,1,0,0,,10,,,45,127
69655,note_on,0,0,0,,10,,,69,127
69896,note_off,241,0,0,,10,,,69,127
69896,note_off,0,0,0,,10,,,45,127
69897,note_on,1,0,0,,10,,,69,127
69897,note_on,0,0,0,,0,,,72,127
69977,note_off,80,0,0,,0,,,72,127
69978,note_on,1,0,0,,2,,,74,127
70058,note_off,80,0,0,,2,,,74,127
70059,note_on,1,0,0,,12,,,71,127
70139,note_off,80,0,0,,12,,,71,127
70139,note_off,0,0,0,,10,,,69,127
70140,note_on,1,0,0,,5,,,65,127
70140,note_on,0,0,0,,10,,,69,127
70381,note_off,241,0,0,,10,,,69,127
70381,note_off,0,0,0,,5,,,65,127
70382,note_on,1,0,0,,4,,,64,127
70382,note_on,0,0,0,,7,,,67,127
70623,note_off,241,0,0,,7,,,67,127
70623,note_off,0,0,0,,4,,,64,127
70624,note_on,1,0,0,,2,,,62,127
70624,note_on,0,0,0,,7,,,67,127
70744,note_off,120,0,0,,7,,,67,127
70745,note_on,1,0,0,,5,,,65,127
70865,note_off,120,0,0,,5,,,65,127
70866,note_on,1,0,0,,4,,,64,127
71107,note_off,241,0,0,,4,,,64,127
71107,note_off,0,0,0,,2,,,62,127
71108,note_on,1,0,0,,2,,,62,127
71108,note_on,0,0,0,,5,,,65,127
71349,note_off,241,0,0,,5,,,65,127
71349,note_off,0,0,0,,2,,,62,127
71350,note_on,1,0,0,,12,,,71,127
71350,note_on,0,0,0,,2,,,74,127
71430,note_off,80,0,0,,2,,,74,127
71431,note_on,1,0,0,,4,,,76,127
71511,note_off,80,0,0,,4,,,76,127
71512,note_on,1,0,0,,0,,,72,127
71592,note_off,80,0,0,,0,,,72,127
71592,note_off,0,0,0,,12,,,71,127
71593,note_on,1,0,0,,7,,,67,127
71593,note_on,0,0,0,,12,,,71,127
71834,note_off,241,0,0,,12,,,71,127
71834,note_off,0,0,0,,7,,,67,127
71835,note_on,1,0,0,,5,,,65,127
71835,note_on,0,0,0,,10,,,69,127
72076,note_off,241,0,0,,10,,,69,127
72076,note_off,0,0,0,,5,,,65,127
72077,note_on,1,0,0,,4,,,64,127
72077,note_on,0,0,0,,10,,,69,127
72197,note_off,120,0,0,,10,,,69,127
72198,note_on,1,0,0,,7,,,67,127
72318,note_off,120,0,0,,7,,,67,127
72319,note_on,1,0,0,,6,,,66,127
72560,note_off,241,0,0,,6,,,66,127
72560,note_off,0,0,0,,4,,,64,127
72561,note_on,1,0,0,,4,,,64,127
72561,note_on,0,0,0,,7,,,67,127
72802,note_off,241,0,0,,7,,,67,127
72802,note_off,0,0,0,,4,,,64,127
72803,note_on,1,0,0,,4,,,64,127
72803,note_on,0,0,0,,7,,,67,127
72803,note_on,0,0,0,,12,,,71,127
72883,note_off,80,0,0,,12,,,71,127
72884,note_on,1,0,0,,0,,,72,127
72964,note_off,80,0,0,,0,,,72,127
72965,note_on,1,0,0,,2,,,74,127
73045,note_off,80,0,0,,2,,,74,127
73045,note_off,0,0,0,,7,,,67,127
73045,note_off,0,0,0,,4,,,64,127
73046,note_on,1,0,0,,7,,,67,127
73046,note_on,0,0,0,,4,,,64,127
73046,note_on,0,0,0,,0,,,72,127
73287,note_off,241,0,0,,4,,,64,127
73287,note_off,0,0,0,,7,,,67,127
73288,note_on,1,0,0,,7,,,67,127
73288,note_on,0,0,0,,4,,,64,127
73529,note_off,241,0,0,,4,,,64,127
73529,note_off,0,0,0,,7,,,67,127
73529,note_off,0,0,0,,0,,,72,127
73530,note_on,1,0,0,,5,,,65,127
73530,note_on,0,0,0,,10,,,69,127
73530,note_on,0,0,0,,12,,,71,127
73610,note_off,80,0,0,,12,,,71,127
73611,note_on,1,0,0,,0,,,72,127
73691,note_off,80,0,0,,0,,,72,127
73692,note_on,1,0,0,,2,,,74,127
73772,note_off,80,0,0,,2,,,74,127
73772,note_off,0,0,0,,10,,,69,127
73772,note_off,0,0,0,,5,,,65,127
73773,note_on,1,0,0,,10,,,69,127
73773,note_on,0,0,0,,5,,,65,127
73773,note_on,0,0,0,,0,,,72,127
74014,note_off,241,0,0,,5,,,65,127
74014,note_off,0,0,0,,10,,,69,127
74015,note_on,1,0,0,,5,,,65,127
74015,note_on,0,0,0,,10,,,69,127
74256,note_off,241,0,0,,10,,,69,127
74256,note_off,0,0,0,,5,,,65,127
74256,note_off,0,0,0,,0,,,72,127
74257,note_on,1,0,0,,7,,,67,127
74257,note_on,0,0,0,,4,,,64,127
74257,note_on,0,0,0,,12,,,71,127
74337,note_off,80,0,0,,12,,,71,127
74338,note_on,1,0,0,,0,,,72,127
74418,note_off,80,0,0,,0,,,72,127
74419,note_on,1,0,0,,2,,,74,127
74499,note_off,80,0,0,,2,,,74,127
74499,note_off,0,0,0,,4,,,64,127
74499,note_off,0,0,0,,7,,,67,127
74500,note_on,1,0,0,,4,,,64,127
74500,note_on,0,0,0,,7,,,67,127
74500,note_on,0,0,0,,0,,,72,127
74741,note_off,241,0,0,,7,,,67,127
74741,note_off,0,0,0,,4,,,64,127
74742,note_on,1,0,0,,7,,,67,127
74742,note_on,0,0,0,,4,,,64,127
74983,note_off,241,0,0,,4,,,64,127
74983,note_off,0,0,0,,7,,,67,127
74983,note_off,0,0,0,,0,,,72,127
74984,note_on,1,0,0,,5,,,65,127
74984,note_on,0,0,0,,10,,,69,127
74984,note_on,0,0,0,,12,,,71,127
75064,note_off,80,0,0,,12,,,71,127
75065,note_on,1,0,0,,0,,,72,127
75145,note_off,80,0,0,,0,,,72,127
75146,note_on,1,0,0,,2,,,74,127
75226,note_off,80,0,0,,2,,,74,127
75226,note_off,0,0,0,,10,,,69,127
75226,note_off,0,0,0,,5,,,65,127
75227,note_on,1,0,0,,5,,,65,127
75227,note_on,0,0,0,,10,,,69,127
75227,note_on,0,0,0,,0,,,72,127
75468,note_off,241,0,0,,10,,,69,127
75468,note_off,0,0,0,,5,,,65,127
75469,note_on,1,0,0,,5,,,65,127
75469,note_on,0,0,0,,10,,,69,127
75710,note_off,241,0,0,,10,,,69,127
75710,note_off,0,0,0,,5,,,65,127
75710,note_off,0,0,0,,0,,,72,127
75711,note_on,1,0,0,,11,,,70,127
75711,note_on,0,0,0,,4,,,64,127
75711,note_on,0,0,0,,7,,,67,127
75711,note_on,0,0,0,,2,,,74,127
75952,note_off,241,0,0,,2,,,74,127
75952,note_off,0,0,0,,7,,,67,127
75952,note_off,0,0,0,,4,,,64,127
75952,note_off,0,0,0,,11,,,70,127
75953,note_on,1,0,0,,7,,,67,127
75953,note_on,0,0,0,,4,,,64,127
75953,note_on,0,0,0,,11,,,70,127
75953,note_on,0,0,0,,1,,,73,127
76194,note_off,241,0,0,,1,,,73,127
76194,note_off,0,0,0,,11,,,70,127
76194,note_off,0,0,0,,4,,,64,127
76194,note_off,0,0,0,,7,,,67,127
76195,note_on,1,0,0,,11,,,70,127
76195,note_on,0,0,0,,7,,,67,127
76195,note_on,0,0,0,,4,,,64,127
76195,note_on,0,0,0,,4,,,76,127
76436,note_off,241,0,0,,4,,,76,127
76436,note_off,0,0,0,,4,,,64,127
76436,note_off,0,0,0,,7,,,67,127
76436,note_off,0,0,0,,11,,,70,127
76437,note_on,1,0,0,,5,,,65,127
76437,note_on,0,0,0,,10,,,69,127
76437,note_on,0,0,0,,4,,,76,127
76678,note_off,241,0,0,,4,,,76,127
76678,note_off,0,0,0,,10,,,69,127
76678,note_off,0,0,0,,5,,,65,127
76679,note_on,1,0,0,,5,,,65,127
76679,note_on,0,0,0,,10,,,69,127
76679,note_on,0,0,0,,2,,,74,127
76920,note_off,241,0,0,,2,,,74,127
76920,note_off,0,0,0,,10,,,69,127
76920,note_off,0,0,0,,5,,,65,127
76921,note_on,1,0,0,,5,,,65,127
76921,note_on,0,0,0,,10,,,69,127
76921,note_on,0,0,0,,5,,,77,127
77162,note_off,241,0,0,,5,,,77,127
77162,note_off,0,0,0,,10,,,69,127
77162,note_off,0,0,0,,5,,,65,127
77163,note_on,1,0,0,,10,,,69,127
77163,note_on,0,0,0,,4,,,64,127
77163,note_on,0,0,0,,1,,,61,127
77163,note_on,0,0,0,,5,,,77,127
77404,note_off,241,0,0,,5,,,77,127
77404,note_off,0,0,0,,1,,,61,127
77404,note_off,0,0,0,,4,,,64,127
77404,note_off,0,0,0,,10,,,69,127
77405,note_on,1,0,0,,1,,,61,127
77405,note_on,0,0,0,,10,,,69,127
77405,note_on,0,0,0,,4,,,64,127
77405,note_on,0,0,0,,4,,,76,127
77646,note_off,241,0,0,,4,,,76,127
77646,note_off,0,0,0,,4,,,64,127
77646,note_off,0,0,0,,10,,,69,127
77646,note_off,0,0,0,,1,,,61,127
77647,note_on,1,0,0,,4,,,64,127
77647,note_on,0,0,0,,1,,,61,127
77647,note_on,0,0,0,,10,,,69,127
77647,note_on,0,0,0,,7,,,79,127
77888,note_off,241,0,0,,7,,,79,127
77888,note_off,0,0,0,,10,,,69,127
77888,note_off,0,0,0,,1,,,61,127
77888,note_off,0,0,0,,4,,,64,127
77889,note_on,1,0,0,,2,,,62,127
77889,note_on,0,0,0,,7,,,79,127
78009,note_off,120,0,0,,7,,,79,127
78010,note_on,1,0,0,,5,,,77,127
78130,note_off,120,0,0,,5,,,77,127
78131,note_on,1,0,0,,4,,,76,127
78372,note_off,241,0,0,,4,,,76,127
78372,note_off,0,0,0,,2,,,62,127
78373,note_on,1,0,0,,2,,,50,127
78373,note_on,0,0,0,,2,,,74,127
78614,note_off,241,0,0,,2,,,74,127
78614,note_off,0,0,0,,2,,,50,127
78615,note_on,1,0,0,,5,,,53,127
78615,note_on,0,0,0,,10,,,81,127
78695,note_off,80,0,0,,10,,,81,127
78696,note_on,1,0,0,,11,,,82,127
78776,note_off,80,0,0,,11,,,82,127
78777,note_on,1,0,0,,7,,,79,127
78857,note_off,80,0,0,,7,,,79,127
78858,note_on,1,0,0,,5,,,77,127
78938,note_off,80,0,0,,5,,,77,127
78939,note_on,1,0,0,,7,,,79,127
79019,note_off,80,0,0,,7,,,79,127
79020,note_on,1,0,0,,4,,,76,127
79100,note_off,80,0,0,,4,,,76,127
79101,note_on,1,0,0,,2,,,74,127
79181,note_off,80,0,0,,2,,,74,127
79182,note_on,1,0,0,,4,,,76,127
79262,note_off,80,0,0,,4,,,76,127
79263,note_on,1,0,0,,0,,,72,127
79343,note_off,80,0,0,,0,,,72,127
79343,note_off,0,0,0,,5,,,53,127
79344,note_on,1,0,0,,7,,,55,127
79344,note_on,0,0,0,,12,,,71,127
79424,note_off,80,0,0,,12,,,71,127
79425,note_on,1,0,0,,0,,,72,127
79505,note_off,80,0,0,,0,,,72,127
79506,note_on,1,0,0,,10,,,69,127
79586,note_off,80,0,0,,10,,,69,127
79587,note_on,1,0,0,,7,,,67,127
79667,note_off,80,0,0,,7,,,67,127
79668,note_on,1,0,0,,10,,,69,127
79748,note_off,80,0,0,,10,,,69,127
79749,note_on,1,0,0,,5,,,65,127
79829,note_off,80,0,0,,5,,,65,127
79830,note_on,1,0,0,,4,,,64,127
79910,note_off,80,0,0,,4,,,64,127
79911,note_on,1,0,0,,5,,,65,127
79991,note_off,80,0,0,,5,,,65,127
79992,note_on,1,0,0,,2,,,62,127
80072,note_off,80,0,0,,2,,,62,127
80072,note_off,0,0,0,,7,,,55,127
80073,note_on,1,0,0,,0,,,48,127
80073,note_on,0,0,0,,0,,,60,127
80316,note_on,243,0,0,,10,,,57,127
80557,note_off,241,0,0,,10,,,57,127
80557,note_off,0,0,0,,0,,,60,127
80558,note_on,1,0,0,,0,,,60,127
80558,note_on,0,0,0,,4,,,76,127
80799,note_off,241,0,0,,4,,,76,127
80799,note_off,0,0,0,,0,,,60,127
80799,note_off,0,0,0,,0,,,48,127
80800,note_on,1,0,0,,2,,,50,127
80800,note_on,0,0,0,,7,,,79,127
80920,note_off,120,0,0,,7,,,79,127
80921,note_on,1,0,0,,5,,,77,127
81041,note_off,120,0,0,,5,,,77,127
81042,note_on,1,0,0,,11,,,58,127
81042,note_on,0,0,0,,4,,,76,127
81283,note_off,241,0,0,,4,,,76,127
81283,note_off,0,0,0,,11,,,58,127
81284,note_on,1,0,0,,2,,,62,127
81284,note_on,0,0,0,,2,,,74,127
81525,note_off,241,0,0,,2,,,62,127
81525,note_off,0,0,0,,2,,,50,127
81526,note_on,1,0,0,,4,,,52,127
81767,note_off,241,0,0,,2,,,74,127
81768,note_on,1,0,0,,0,,,60,127
81768,note_on,0,0,0,,0,,,72,127
82009,note_off,241,0,0,,0,,,72,127
82009,note_off,0,0,0,,0,,,60,127
82010,note_on,1,0,0,,4,,,64,127
82010,note_on,0,0,0,,11,,,70,127
82251,note_off,241,0,0,,11,,,70,127
82251,note_off,0,0,0,,4,,,64,127
82251,note_off,0,0,0,,4,,,52,127
82252,note_on,1,0,0,,5,,,53,127
82252,note_on,0,0,0,,8,,,68,127
82493,note_off,241,0,0,,8,,,68,127
82494,note_on,1,0,0,,2,,,62,127
82494,note_on,0,0,0,,10,,,69,127
82735,note_off,241,0,0,,2,,,62,127
82736,note_on,1,0,0,,5,,,65,127
82883,note_off,147,0,0,,5,,,53,127
82978,note_off,95,0,0,,5,,,65,127
82979,note_on,1,0,0,,0,,,48,127
83100,note_off,121,0,0,,10,,,69,127
83221,note_on,121,0,0,,10,,,57,127
83221,note_on,0,0,0,,4,,,76,127
83462,note_off,241,0,0,,4,,,76,127
83462,note_off,0,0,0,,10,,,57,127
83463,note_on,1,0,0,,0,,,60,127
83463,note_on,0,0,0,,10,,,81,127
83610,note_off,147,0,0,,0,,,48,127
83705,note_off,95,0,0,,10,,,81,127
83705,note_off,0,0,0,,0,,,60,127
83706,note_on,1,0,0,,2,,,50,127
83706,note_on,0,0,0,,7,,,79,127
83826,note_off,120,0,0,,7,,,79,127
83827,note_on,1,0,0,,5,,,77,127
83947,note_off,120,0,0,,5,,,77,127
83948,note_on,1,0,0,,11,,,58,127
83948,note_on,0,0,0,,4,,,76,127
84163,note_off,215,0,0,,4,,,76,127
84190,note_off,27,0,0,,11,,,58,127
84191,note_on,1,0,0,,2,,,62,127
84191,note_on,0,0,0,,2,,,74,127
84338,note_off,147,0,0,,2,,,50,127
84433,note_off,95,0,0,,2,,,62,127
84434,note_on,1,0,0,,4,,,52,127
84677,note_on,243,0,0,,0,,,60,127
84677,note_on,0,0,0,,0,,,72,127
84912,note_off,235,0,0,,2,,,74,127
84918,note_off,6,0,0,,0,,,72,127
84918,note_off,0,0,0,,0,,,60,127
84919,note_on,1,0,0,,4,,,64,127
84919,note_on,0,0,0,,11,,,70,127
85066,note_off,147,0,0,,4,,,52,127
85161,note_off,95,0,0,,11,,,70,127
85161,note_off,0,0,0,,4,,,64,127
85162,note_on,1,0,0,,5,,,53,127
85162,note_on,0,0,0,,8,,,68,127
85403,note_off,241,0,0,,8,,,68,127
85404,note_on,1,0,0,,2,,,62,127
85404,note_on,0,0,0,,10,,,69,127
85645,note_off,241,0,0,,2,,,62,127
85646,note_on,1,0,0,,5,,,65,127
85793,note_off,147,0,0,,5,,,53,127
85888,note_off,95,0,0,,5,,,65,127
85888,note_off,0,0,0,,10,,,69,127
85889,note_on,1,0,0,,2,,,50,127
85889,note_on,0,0,0,,5,,,77,127
85969,note_off,80,0,0,,5,,,77,127
85970,note_on,1,0,0,,7,,,79,127
86050,note_off,80,0,0,,7,,,79,127
86051,note_on,1,0,0,,4,,,76,127
86131,note_off,80,0,0,,4,,,76,127
86132,note_on,1,0,0,,2,,,74,127
86212,note_off,80,0,0,,2,,,74,127
86213,note_on,1,0,0,,4,,,76,127
86293,note_off,80,0,0,,4,,,76,127
86294,note_on,1,0,0,,0,,,72,127
86374,note_off,80,0,0,,0,,,72,127
86374,note_off,0,0,0,,2,,,50,127
86375,note_on,1,0,0,,5,,,53,127
86375,note_on,0,0,0,,12,,,71,127
86455,note_off,80,0,0,,12,,,71,127
86456,note_on,1,0,0,,0,,,72,127
86536,note_off,80,0,0,,0,,,72,127
86537,note_on,1,0,0,,10,,,69,127
86617,note_off,80,0,0,,10,,,69,127
86617,note_off,0,0,0,,5,,,53,127
86618,note_on,1,0,0,,4,,,52,127
86618,note_on,0,0,0,,10,,,69,127
86698,note_off,80,0,0,,10,,,69,127
86699,note_on,1,0,0,,8,,,68,127
86779,note_off,80,0,0,,8,,,68,127
86780,note_on,1,0,0,,10,,,69,127
86860,note_off,80,0,0,,10,,,69,127
86861,note_on,1,0,0,,8,,,68,127
86981,note_off,120,0,0,,8,,,68,127
86982,note_on,1,0,0,,6,,,66,127
87102,note_off,120,0,0,,6,,,66,127
87102,note_off,0,0,0,,4,,,52,127
87103,note_on,1,0,0,,4,,,40,127
87103,note_on,0,0,0,,4,,,64,127
87344,note_off,241,0,0,,4,,,64,127
87344,note_off,0,0,0,,4,,,40,127
87345,note_on,1,0,0,,4,,,64,127
87345,note_on,0,0,0,,8,,,80,127
87425,note_off,80,0,0,,8,,,80,127
87426,note_on,1,0,0,,10,,,81,127
87506,note_off,80,0,0,,10,,,81,127
87507,note_on,1,0,0,,12,,,83,127
87587,note_off,80,0,0,,12,,,83,127
87588,note_on,1,0,0,,12,,,71,127
87588,note_on,0,0,0,,8,,,80,127
87829,note_off,241,0,0,,12,,,71,127
87830,note_on,1,0,0,,4,,,76,127
88071,note_off,241,0,0,,8,,,80,127
88071,note_off,0,0,0,,4,,,64,127
88072,note_on,1,0,0,,4,,,64,127
88072,note_on,0,0,0,,7,,,79,127
88309,note_off,237,0,0,,4,,,76,127
88313,note_off,4,0,0,,7,,,79,127
88314,note_on,1,0,0,,2,,,74,127
88314,note_on,0,0,0,,5,,,77,127
88555,note_off,241,0,0,,5,,,77,127
88555,note_off,0,0,0,,2,,,74,127
88556,note_on,1,0,0,,0,,,72,127
88556,note_on,0,0,0,,10,,,81,127
88797,note_off,241,0,0,,10,,,81,127
88797,note_off,0,0,0,,0,,,72,127
88797,note_off,0,0,0,,4,,,64,127
88798,note_on,1,0,0,,4,,,64,127
88798,note_on,0,0,0,,12,,,71,127
88798,note_on,0,0,0,,8,,,80,127
88878,note_off,80,0,0,,8,,,80,127
88879,note_on,1,0,0,,10,,,81,127
88959,note_off,80,0,0,,10,,,81,127
88960,note_on,1,0,0,,12,,,83,127
89040,note_off,80,0,0,,12,,,83,127
89040,note_off,0,0,0,,12,,,71,127
89041,note_on,1,0,0,,12,,,71,127
89041,note_on,0,0,0,,5,,,77,127
89282,note_off,241,0,0,,5,,,77,127
89282,note_off,0,0,0,,12,,,71,127
89283,note_on,1,0,0,,10,,,69,127
89283,note_on,0,0,0,,2,,,74,127
89524,note_off,241,0,0,,2,,,74,127
89524,note_off,0,0,0,,4,,,64,127
89525,note_on,1,0,0,,4,,,64,127
89525,note_on,0,0,0,,3,,,75,127
89762,note_off,237,0,0,,10,,,69,127
89766,note_off,4,0,0,,3,,,75,127
89767,note_on,1,0,0,,8,,,68,127
89767,note_on,0,0,0,,4,,,76,127
90004,note_off,237,0,0,,4,,,64,127
90008,note_off,4,0,0,,8,,,68,127
90009,note_on,1,0,0,,5,,,65,127
90250,note_off,241,0,0,,5,,,65,127
90250,note_off,0,0,0,,4,,,76,127
90251,note_on,1,0,0,,4,,,64,127
90251,note_on,0,0,0,,12,,,83,127
90331,note_off,80,0,0,,12,,,83,127
90332,note_on,1,0,0,,0,,,84,127
90412,note_off,80,0,0,,0,,,84,127
90413,note_on,1,0,0,,2,,,86,127
90493,note_off,80,0,0,,2,,,86,127
90494,note_on,1,0,0,,12,,,71,127
90494,note_on,0,0,0,,10,,,81,127
90731,note_off,237,0,0,,4,,,64,127
90735,note_off,4,0,0,,10,,,81,127
90736,note_on,1,0,0,,2,,,62,127
90736,note_on,0,0,0,,8,,,80,127
90973,note_off,237,0,0,,12,,,71,127
90977,note_off,4,0,0,,8,,,80,127
90977,note_off,0,0,0,,2,,,62,127
90978,note_on,1,0,0,,0,,,60,127
90978,note_on,0,0,0,,10,,,81,127
91219,note_off,241,0,0,,10,,,81,127
91220,note_on,1,0,0,,10,,,69,127
91220,note_on,0,0,0,,4,,,76,127
91457,note_off,237,0,0,,0,,,60,127
91461,note_off,4,0,0,,4,,,76,127
91461,note_off,0,0,0,,10,,,69,127
91462,note_on,1,0,0,,12,,,71,127
91462,note_on,0,0,0,,2,,,62,127
91462,note_on,0,0,0,,2,,,74,127
91703,note_off,241,0,0,,2,,,74,127
91703,note_off,0,0,0,,2,,,62,127
91703,note_off,0,0,0,,12,,,71,127
91704,note_on,1,0,0,,4,,,64,127
91704,note_on,0,0,0,,0,,,72,127
91704,note_on,0,0,0,,2,,,74,127
91784,note_off,80,0,0,,2,,,74,127
91784,note_off,0,0,0,,0,,,72,127
91785,note_on,1,0,0,,12,,,71,127
91865,note_off,80,0,0,,12,,,71,127
91866,note_on,1,0,0,,10,,,69,127
91946,note_off,80,0,0,,10,,,69,127
91947,note_on,1,0,0,,10,,,69,127
92188,note_off,241,0,0,,10,,,69,127
92188,note_off,0,0,0,,4,,,64,127
92189,note_on,1,0,0,,4,,,52,127
92189,note_on,0,0,0,,8,,,68,127
92430,note_off,241,0,0,,8,,,68,127
92430,note_off,0,0,0,,4,,,52,127
92431,note_on,1,0,0,,10,,,45,127
92431,note_on,0,0,0,,8,,,68,127
92672,note_off,241,0,0,,10,,,45,127
92673,note_on,1,0,0,,4,,,52,127
92914,note_off,241,0,0,,4,,,52,127
92914,note_off,0,0,0,,8,,,68,127
92915,note_on,1,0,0,,10,,,57,127
92915,note_on,0,0,0,,10,,,69,127
93156,note_off,241,0,0,,10,,,69,127
93156,note_off,0,0,0,,10,,,57,127
93157,note_on,1,0,0,,4,,,52,127
93157,note_on,0,0,0,,8,,,68,127
93237,note_off,80,0,0,,8,,,68,127
93238,note_on,1,0,0,,10,,,69,127
93318,note_off,80,0,0,,10,,,69,127
93319,note_on,1,0,0,,12,,,71,127
93399,note_off,80,0,0,,12,,,71,127
93400,note_on,1,0,0,,12,,,59,127
93400,note_on,0,0,0,,8,,,68,127
93641,note_off,241,0,0,,8,,,68,127
93641,note_off,0,0,0,,12,,,59,127
93642,note_on,1,0,0,,4,,,64,127
93642,note_on,0,0,0,,4,,,76,127
93883,note_off,241,0,0,,4,,,76,127
93883,note_off,0,0,0,,4,,,52,127
93884,note_on,1,0,0,,4,,,52,127
93884,note_on,0,0,0,,5,,,65,127
93884,note_on,0,0,0,,5,,,77,127
94121,note_off,237,0,0,,4,,,64,127
94125,note_off,4,0,0,,4,,,52,127
94126,note_on,1,0,0,,2,,,62,127
94367,note_off,241,0,0,,2,,,62,127
94368,note_on,1,0,0,,0,,,60,127
94609,note_off,241,0,0,,0,,,60,127
94609,note_off,0,0,0,,5,,,77,127
94609,note_off,0,0,0,,5,,,65,127
94610,note_on,1,0,0,,2,,,62,127
94610,note_on,0,0,0,,12,,,59,127
94610,note_on,0,0,0,,8,,,68,127
94690,note_off,80,0,0,,8,,,68,127
94691,note_on,1,0,0,,10,,,69,127
94771,note_off,80,0,0,,10,,,69,127
94772,note_on,1,0,0,,12,,,71,127
94852,note_off,80,0,0,,12,,,71,127
94853,note_on,1,0,0,,5,,,65,127
95094,note_off,241,0,0,,5,,,65,127
95094,note_off,0,0,0,,12,,,59,127
95094,note_off,0,0,0,,2,,,62,127
95095,note_on,1,0,0,,10,,,57,127
95095,note_on,0,0,0,,2,,,62,127
95095,note_on,0,0,0,,2,,,74,127
95336,note_off,241,0,0,,2,,,74,127
95337,note_on,1,0,0,,4,,,76,127
95337,note_on,0,0,0,,4,,,64,127
95578,note_off,241,0,0,,2,,,62,127
95578,note_off,0,0,0,,10,,,57,127
95579,note_on,1,0,0,,12,,,59,127
95579,note_on,0,0,0,,8,,,56,127
95820,note_off,241,0,0,,8,,,56,127
95820,note_off,0,0,0,,12,,,59,127
95821,note_on,1,0,0,,10,,,57,127
95821,note_on,0,0,0,,6,,,54,127
96062,note_off,241,0,0,,6,,,54,127
96062,note_off,0,0,0,,10,,,57,127
96062,note_off,0,0,0,,4,,,64,127
96062,note_off,0,0,0,,4,,,76,127
96063,note_on,1,0,0,,4,,,52,127
96063,note_on,0,0,0,,12,,,71,127
96143,note_off,80,0,0,,12,,,71,127
96144,note_on,1,0,0,,0,,,72,127
96224,note_off,80,0,0,,0,,,72,127
96225,note_on,1,0,0,,2,,,74,127
96305,note_off,80,0,0,,2,,,74,127
96306,note_on,1,0,0,,12,,,59,127
96306,note_on,0,0,0,,10,,,69,127
96543,note_off,237,0,0,,4,,,52,127
96547,note_off,4,0,0,,10,,,69,127
96547,note_off,0,0,0,,12,,,59,127
96548,note_on,1,0,0,,2,,,50,127
96548,note_on,0,0,0,,8,,,68,127
96789,note_off,241,0,0,,8,,,68,127
96789,note_off,0,0,0,,2,,,50,127
96790,note_on,1,0,0,,0,,,48,127
96790,note_on,0,0,0,,10,,,69,127
97031,note_off,241,0,0,,10,,,69,127
97032,note_on,1,0,0,,10,,,57,127
97032,note_on,0,0,0,,4,,,64,127
97269,note_off,237,0,0,,0,,,48,127
97273,note_off,4,0,0,,4,,,64,127
97273,note_off,0,0,0,,10,,,57,127
97274,note_on,1,0,0,,12,,,59,127
97274,note_on,0,0,0,,2,,,62,127
97515,note_off,241,0,0,,2,,,62,127
97515,note_off,0,0,0,,12,,,59,127
97516,note_on,1,0,0,,4,,,52,127
97516,note_on,0,0,0,,0,,,60,127
97596,note_off,80,0,0,,0,,,60,127
97597,note_on,1,0,0,,12,,,59,127
97677,note_off,80,0,0,,12,,,59,127
97678,note_on,1,0,0,,10,,,57,127
97758,note_off,80,0,0,,10,,,57,127
97759,note_on,1,0,0,,10,,,57,127
98000,note_off,241,0,0,,10,,,57,127
98000,note_off,0,0,0,,4,,,52,127
98001,note_on,1,0,0,,4,,,40,127
98001,note_on,0,0,0,,8,,,56,127
98242,note_off,241,0,0,,8,,,56,127
98242,note_off,0,0,0,,4,,,40,127
98243,note_on,1,0,0,,10,,,57,127
98486,note_on,243,0,0,,12,,,59,127
98727,note_off,241,0,0,,12,,,59,127
98727,note_off,0,0,0,,10,,,57,127
98728,note_on,1,0,0,,0,,,60,127
98728,note_on,0,0,0,,4,,,76,127
98969,note_off,241,0,0,,4,,,76,127
98969,note_off,0,0,0,,0,,,60,127
98970,note_on,1,0,0,,2,,,62,127
98970,note_on,0,0,0,,5,,,77,127
99050,note_off,80,0,0,,5,,,77,127
99051,note_on,1,0,0,,7,,,79,127
99131,note_off,80,0,0,,7,,,79,127
99132,note_on,1,0,0,,10,,,81,127
99212,note_off,80,0,0,,10,,,81,127
99212,note_off,0,0,0,,2,,,62,127
99213,note_on,1,0,0,,12,,,71,127
99213,note_on,0,0,0,,2,,,74,127
99293,note_off,80,0,0,,2,,,74,127
99294,note_on,1,0,0,,4,,,76,127
99374,note_off,80,0,0,,4,,,76,127
99375,note_on,1,0,0,,5,,,77,127
99455,note_off,80,0,0,,5,,,77,127
99455,note_off,0,0,0,,12,,,71,127
99456,note_on,1,0,0,,8,,,68,127
99456,note_on,0,0,0,,12,,,71,127
99536,note_off,80,0,0,,12,,,71,127
99537,note_on,1,0,0,,0,,,72,127
99617,note_off,80,0,0,,0,,,72,127
99618,note_on,1,0,0,,2,,,74,127
99698,note_off,80,0,0,,2,,,74,127
99698,note_off,0,0,0,,8,,,68,127
99699,note_on,1,0,0,,10,,,69,127
99699,note_on,0,0,0,,2,,,74,127
99819,note_off,120,0,0,,2,,,74,127
99820,note_on,1,0,0,,0,,,72,127
99940,note_off,120,0,0,,0,,,72,127
99941,note_on,1,0,0,,12,,,71,127
100182,note_off,241,0,0,,12,,,71,127
100182,note_off,0,0,0,,10,,,69,127
100183,note_on,1,0,0,,4,,,64,127
100183,note_on,0,0,0,,0,,,72,127
100424,note_off,241,0,0,,0,,,72,127
100424,note_off,0,0,0,,4,,,64,127
100425,note_on,1,0,0,,5,,,65,127
100425,note_on,0,0,0,,2,,,74,127
100505,note_off,80,0,0,,5,,,65,127
100506,note_on,1,0,0,,7,,,67,127
100586,note_off,80,0,0,,7,,,67,127
100587,note_on,1,0,0,,10,,,69,127
100667,note_off,80,0,0,,10,,,69,127
100668,note_on,1,0,0,,2,,,62,127
100748,note_off,80,0,0,,2,,,62,127
100749,note_on,1,0,0,,4,,,64,127
100829,note_off,80,0,0,,4,,,64,127
100830,note_on,1,0,0,,5,,,65,127
100910,note_off,80,0,0,,5,,,65,127
100910,note_off,0,0,0,,2,,,74,127
100911,note_on,1,0,0,,12,,,59,127
100911,note_on,0,0,0,,8,,,68,127
100991,note_off,80,0,0,,12,,,59,127
100992,note_on,1,0,0,,0,,,60,127
101072,note_off,80,0,0,,0,,,60,127
101073,note_on,1,0,0,,2,,,62,127
101153,note_off,80,0,0,,2,,,62,127
101153,note_off,0,0,0,,8,,,68,127
101154,note_on,1,0,0,,0,,,60,127
101154,note_on,0,0,0,,12,,,71,127
101274,note_off,120,0,0,,12,,,71,127
101275,note_on,1,0,0,,10,,,69,127
101395,note_off,120,0,0,,10,,,69,127
101395,note_off,0,0,0,,0,,,60,127
101396,note_on,1,0,0,,12,,,59,127
101396,note_on,0,0,0,,8,,,68,127
101637,note_off,241,0,0,,8,,,68,127
101637,note_off,0,0,0,,12,,,59,127
101638,note_on,1,0,0,,0,,,60,127
101638,note_on,0,0,0,,4,,,76,127
101638,note_on,0,0,0,,10,,,69,127
101879,note_off,241,0,0,,10,,,69,127
101879,note_off,0,0,0,,4,,,76,127
101879,note_off,0,0,0,,0,,,60,127
101880,note_on,1,0,0,,2,,,62,127
101880,note_on,0,0,0,,5,,,77,127
101960,note_off,80,0,0,,5,,,77,127
101961,note_on,1,0,0,,7,,,79,127
102041,note_off,80,0,0,,7,,,79,127
102042,note_on,1,0,0,,10,,,81,127
102122,note_off,80,0,0,,10,,,81,127
102122,note_off,0,0,0,,2,,,62,127
102123,note_on,1,0,0,,12,,,71,127
102123,note_on,0,0,0,,2,,,74,127
102203,note_off,80,0,0,,2,,,74,127
102204,note_on,1,0,0,,4,,,76,127
102284,note_off,80,0,0,,4,,,76,127
102285,note_on,1,0,0,,5,,,77,127
102365,note_off,80,0,0,,5,,,77,127
102365,note_off,0,0,0,,12,,,71,127
102366,note_on,1,0,0,,8,,,68,127
102366,note_on,0,0,0,,12,,,71,127
102446,note_off,80,0,0,,12,,,71,127
102447,note_on,1,0,0,,0,,,72,127
102527,note_off,80,0,0,,0,,,72,127
102528,note_on,1,0,0,,2,,,74,127
102608,note_off,80,0,0,,2,,,74,127
102608,note_off,0,0,0,,8,,,68,127
102609,note_on,1,0,0,,10,,,69,127
102609,note_on,0,0,0,,2,,,74,127
102729,note_off,120,0,0,,2,,,74,127
102730,note_on,1,0,0,,0,,,72,127
102850,note_off,120,0,0,,0,,,72,127
102851,note_on,1,0,0,,12,,,71,127
103092,note_off,241,0,0,,12,,,71,127
103092,note_off,0,0,0,,10,,,69,127
103093,note_on,1,0,0,,4,,,64,127
103093,note_on,0,0,0,,0,,,72,127
103334,note_off,241,0,0,,0,,,72,127
103334,note_off,0,0,0,,4,,,64,127
103335,note_on,1,0,0,,5,,,65,127
103335,note_on,0,0,0,,2,,,74,127
103415,note_off,80,0,0,,5,,,65,127
103416,note_on,1,0,0,,7,,,67,127
103496,note_off,80,0,0,,7,,,67,127
103497,note_on,1,0,0,,10,,,69,127
103577,note_off,80,0,0,,10,,,69,127
103578,note_on,1,0,0,,2,,,62,127
103658,note_off,80,0,0,,2,,,62,127
103659,note_on,1,0,0,,4,,,64,127
103739,note_off,80,0,0,,4,,,64,127
103740,note_on,1,0,0,,5,,,65,127
103820,note_off,80,0,0,,5,,,65,127
103820,note_off,0,0,0,,2,,,74,127
103821,note_on,1,0,0,,12,,,59,127
103821,note_on,0,0,0,,8,,,68,127
103901,note_off,80,0,0,,12,,,59,127
103902,note_on,1,0,0,,0,,,60,127
103982,note_off,80,0,0,,0,,,60,127
103983,note_on,1,0,0,,2,,,62,127
104063,note_off,80,0,0,,2,,,62,127
104063,note_off,0,0,0,,8,,,68,127
104064,note_on,1,0,0,,0,,,60,127
104064,note_on,0,0,0,,10,,,69,127
104144,note_off,80,0,0,,0,,,60,127
104145,note_on,1,0,0,,2,,,62,127
104225,note_off,80,0,0,,2,,,62,127
104226,note_on,1,0,0,,4,,,64,127
104306,note_off,80,0,0,,4,,,64,127
104307,note_on,1,0,0,,10,,,57,127
104387,note_off,80,0,0,,10,,,57,127
104388,note_on,1,0,0,,12,,,59,127
104468,note_off,80,0,0,,12,,,59,127
104469,note_on,1,0,0,,0,,,60,127
104549,note_off,80,0,0,,0,,,60,127
104549,note_off,0,0,0,,10,,,69,127
104550,note_on,1,0,0,,5,,,53,127
104550,note_on,0,0,0,,10,,,81,127
104630,note_off,80,0,0,,5,,,53,127
104631,note_on,1,0,0,,7,,,55,127
104711,note_off,80,0,0,,7,,,55,127
104712,note_on,1,0,0,,10,,,57,127
104792,note_off,80,0,0,,10,,,57,127
104793,note_on,1,0,0,,2,,,50,127
104873,note_off,80,0,0,,2,,,50,127
104874,note_on,1,0,0,,4,,,52,127
104954,note_off,80,0,0,,4,,,52,127
104955,note_on,1,0,0,,5,,,53,127
105035,note_off,80,0,0,,5,,,53,127
105035,note_off,0,0,0,,10,,,81,127
105036,note_on,1,0,0,,12,,,47,127
105036,note_on,0,0,0,,5,,,77,127
105116,note_off,80,0,0,,12,,,47,127
105117,note_on,1,0,0,,0,,,48,127
105197,note_off,80,0,0,,0,,,48,127
105198,note_on,1,0,0,,2,,,50,127
105278,note_off,80,0,0,,2,,,50,127
105278,note_off,0,0,0,,5,,,77,127
105279,note_on,1,0,0,,8,,,44,127
105279,note_on,0,0,0,,2,,,74,127
105359,note_off,80,0,0,,8,,,44,127
105360,note_on,1,0,0,,10,,,45,127
105440,note_off,80,0,0,,10,,,45,127
105441,note_on,1,0,0,,12,,,47,127
105521,note_off,80,0,0,,12,,,47,127
105522,note_on,1,0,0,,4,,,40,127
105763,note_off,241,0,0,,4,,,40,127
105763,note_off,0,0,0,,2,,,74,127
105764,note_on,1,0,0,,4,,,52,127
105764,note_on,0,0,0,,8,,,68,127
106005,note_off,241,0,0,,8,,,68,127
106005,note_off,0,0,0,,4,,,52,127
106006,note_on,1,0,0,,6,,,54,127
106006,note_on,0,0,0,,10,,,69,127
106247,note_off,241,0,0,,10,,,69,127
106247,note_off,0,0,0,,6,,,54,127
106248,note_on,1,0,0,,8,,,56,127
106248,note_on,0,0,0,,2,,,74,127
106248,note_on,0,0,0,,4,,,76,127
106328,note_off,80,0,0,,4,,,76,127
106328,note_off,0,0,0,,2,,,74,127
106329,note_on,1,0,0,,0,,,72,127
106409,note_off,80,0,0,,0,,,72,127
106410,note_on,1,0,0,,12,,,71,127
106490,note_off,80,0,0,,12,,,71,127
106490,note_off,0,0,0,,8,,,56,127
106491,note_on,1,0,0,,4,,,52,127
106491,note_on,0,0,0,,10,,,69,127
106732,note_off,241,0,0,,10,,,69,127
106733,note_on,1,0,0,,4,,,40,127
106733,note_on,0,0,0,,8,,,68,127
106970,note_off,237,0,0,,4,,,52,127
106974,note_off,4,0,0,,8,,,68,127
106974,note_off,0,0,0,,4,,,40,127
106975,note_on,1,0,0,,10,,,57,127
106975,note_on,0,0,0,,10,,,69,127
107216,note_off,241,0,0,,10,,,57,127
107217,note_on,1,0,0,,12,,,59,127
107458,note_off,241,0,0,,12,,,59,127
107458,note_off,0,0,0,,10,,,69,127
107459,note_on,1,0,0,,0,,,60,127
107459,note_on,0,0,0,,4,,,76,127
107700,note_off,241,0,0,,4,,,76,127
107700,note_off,0,0,0,,0,,,60,127
107701,note_on,1,0,0,,2,,,62,127
107701,note_on,0,0,0,,5,,,77,127
107781,note_off,80,0,0,,5,,,77,127
107782,note_on,1,0,0,,7,,,79,127
107862,note_off,80,0,0,,7,,,79,127
107863,note_on,1,0,0,,10,,,81,127
107943,note_off,80,0,0,,10,,,81,127
107943,note_off,0,0,0,,2,,,62,127
107944,note_on,1,0,0,,12,,,71,127
107944,note_on,0,0,0,,2,,,74,127
108024,note_off,80,0,0,,2,,,74,127
108025,note_on,1,0,0,,4,,,76,127
108105,note_off,80,0,0,,4,,,76,127
108106,note_on,1,0,0,,5,,,77,127
108186,note_off,80,0,0,,5,,,77,127
108186,note_off,0,0,0,,12,,,71,127
108187,note_on,1,0,0,,8,,,68,127
108187,note_on,0,0,0,,12,,,71,127
108267,note_off,80,0,0,,12,,,71,127
108268,note_on,1,0,0,,0,,,72,127
108348,note_off,80,0,0,,0,,,72,127
108349,note_on,1,0,0,,2,,,74,127
108429,note_off,80,0,0,,2,,,74,127
108429,note_off,0,0,0,,8,,,68,127
108430,note_on,1,0,0,,10,,,69,127
108430,note_on,0,0,0,,2,,,74,127
108550,note_off,120,0,0,,2,,,74,127
108551,note_on,1,0,0,,0,,,72,127
108671,note_off,120,0,0,,0,,,72,127
108672,note_on,1,0,0,,12,,,71,127
108913,note_off,241,0,0,,12,,,71,127
108913,note_off,0,0,0,,10,,,69,127
108914,note_on,1,0,0,,4,,,64,127
108914,note_on,0,0,0,,0,,,72,127
109155,note_off,241,0,0,,0,,,72,127
109155,note_off,0,0,0,,4,,,64,127
109156,note_on,1,0,0,,5,,,65,127
109156,note_on,0,0,0,,2,,,74,127
109236,note_off,80,0,0,,5,,,65,127
109237,note_on,1,0,0,,7,,,67,127
109317,note_off,80,0,0,,7,,,67,127
109318,note_on,1,0,0,,10,,,69,127
109398,note_off,80,0,0,,10,,,69,127
109399,note_on,1,0,0,,2,,,62,127
109479,note_off,80,0,0,,2,,,62,127
109480,note_on,1,0,0,,4,,,64,127
109560,note_off,80,0,0,,4,,,64,127
109561,note_on,1,0,0,,5,,,65,127
109641,note_off,80,0,0,,5,,,65,127
109641,note_off,0,0,0,,2,,,74,127
109642,note_on,1,0,0,,12,,,59,127
109642,note_on,0,0,0,,8,,,68,127
109722,note_off,80,0,0,,12,,,59,127
109723,note_on,1,0,0,,0,,,60,127
109803,note_off,80,0,0,,0,,,60,127
109804,note_on,1,0,0,,2,,,62,127
109884,note_off,80,0,0,,2,,,62,127
109884,note_off,0,0,0,,8,,,68,127
109885,note_on,1,0,0,,0,,,60,127
109885,note_on,0,0,0,,10,,,69,127
109965,note_off,80,0,0,,0,,,60,127
109966,note_on,1,0,0,,2,,,62,127
110046,note_off,80,0,0,,2,,,62,127
110047,note_on,1,0,0,,4,,,64,127
110127,note_off,80,0,0,,4,,,64,127
110128,note_on,1,0,0,,10,,,57,127
110208,note_off,80,0,0,,10,,,57,127
110209,note_on,1,0,0,,12,,,59,127
110289,note_off,80,0,0,,12,,,59,127
110290,note_on,1,0,0,,0,,,60,127
110370,note_off,80,0,0,,0,,,60,127
110370,note_off,0,0,0,,10,,,69,127
110371,note_on,1,0,0,,5,,,53,127
110371,note_on,0,0,0,,10,,,81,127
110451,note_off,80,0,0,,5,,,53,127
110452,note_on,1,0,0,,7,,,55,127
110532,note_off,80,0,0,,7,,,55,127
110533,note_on,1,0,0,,10,,,57,127
110613,note_off,80,0,0,,10,,,57,127
110614,note_on,1,0,0,,2,,,50,127
110694,note_off,80,0,0,,2,,,50,127
110695,note_on,1,0,0,,4,,,52,127
110775,note_off,80,0,0,,4,,,52,127
110776,note_on,1,0,0,,5,,,53,127
110856,note_off,80,0,0,,5,,,53,127
110856,note_off,0,0,0,,10,,,81,127
110857,note_on,1,0,0,,12,,,47,127
110857,note_on,0,0,0,,5,,,77,127
110937,note_off,80,0,0,,12,,,47,127
110938,note_on,1,0,0,,0,,,48,127
111018,note_off,80,0,0,,0,,,48,127
111019,note_on,1,0,0,,2,,,50,127
111099,note_off,80,0,0,,2,,,50,127
111099,note_off,0,0,0,,5,,,77,127
111100,note_on,1,0,0,,8,,,44,127
111100,note_on,0,0,0,,2,,,74,127
111180,note_off,80,0,0,,8,,,44,127
111181,note_on,1,0,0,,10,,,45,127
111261,note_off,80,0,0,,10,,,45,127
111262,note_on,1,0,0,,12,,,47,127
111342,note_off,80,0,0,,12,,,47,127
111343,note_on,1,0,0,,4,,,40,127
111584,note_off,241,0,0,,4,,,40,127
111584,note_off,0,0,0,,2,,,74,127
111585,note_on,1,0,0,,4,,,52,127
111585,note_on,0,0,0,,8,,,68,127
111826,note_off,241,0,0,,8,,,68,127
111826,note_off,0,0,0,,4,,,52,127
111827,note_on,1,0,0,,5,,,53,127
111827,note_on,0,0,0,,10,,,69,127
112068,note_off,241,0,0,,10,,,69,127
112068,note_off,0,0,0,,5,,,53,127
112069,note_on,1,0,0,,2,,,50,127
112069,note_on,0,0,0,,4,,,76,127
112069,note_on,0,0,0,,2,,,74,127
112149,note_off,80,0,0,,2,,,74,127
112149,note_off,0,0,0,,4,,,76,127
112150,note_on,1,0,0,,0,,,72,127
112230,note_off,80,0,0,,0,,,72,127
112231,note_on,1,0,0,,12,,,71,127
112311,note_off,80,0,0,,12,,,71,127
112311,note_off,0,0,0,,2,,,50,127
112312,note_on,1,0,0,,4,,,52,127
112312,note_on,0,0,0,,10,,,69,127
112553,note_off,241,0,0,,10,,,69,127
112554,note_on,1,0,0,,4,,,40,127
112554,note_on,0,0,0,,8,,,68,127
112791,note_off,237,0,0,,4,,,52,127
112795,note_off,4,0,0,,8,,,68,127
112795,note_off,0,0,0,,4,,,40,127
112796,note_on,1,0,0,,10,,,57,127
112796,note_on,0,0,0,,10,,,69,127
113037,note_off,241,0,0,,10,,,57,127
113038,note_on,1,0,0,,12,,,59,127
113279,note_off,241,0,0,,12,,,59,127
113279,note_off,0,0,0,,10,,,69,127
113280,note_on,1,0,0,,0,,,60,127
113280,note_on,0,0,0,,10,,,81,127
113521,note_off,241,0,0,,10,,,81,127
113521,note_off,0,0,0,,0,,,60,127
113522,note_on,1,0,0,,2,,,62,127
113522,note_on,0,0,0,,8,,,80,127
113602,note_off,80,0,0,,8,,,80,127
113603,note_on,1,0,0,,10,,,81,127
113683,note_off,80,0,0,,10,,,81,127
113684,note_on,1,0,0,,12,,,83,127
113764,note_off,80,0,0,,12,,,83,127
113765,note_on,1,0,0,,5,,,77,127
114006,note_off,241,0,0,,2,,,62,127
114007,note_on,1,0,0,,2,,,74,127
114248,note_off,241,0,0,,2,,,74,127
114248,note_off,0,0,0,,5,,,77,127
114249,note_on,1,0,0,,0,,,72,127
114249,note_on,0,0,0,,4,,,76,127
114490,note_off,241,0,0,,4,,,76,127
114491,note_on,1,0,0,,10,,,81,127
114732,note_off,241,0,0,,0,,,72,127
114733,note_on,1,0,0,,10,,,69,127
114974,note_off,241,0,0,,10,,,69,127
114974,note_off,0,0,0,,10,,,81,127
114975,note_on,1,0,0,,12,,,71,127
114975,note_on,0,0,0,,8,,,80,127
115055,note_off,80,0,0,,8,,,80,127
115056,note_on,1,0,0,,10,,,81,127
115136,note_off,80,0,0,,10,,,81,127
115137,note_on,1,0,0,,12,,,83,127
115217,note_off,80,0,0,,12,,,83,127
115218,note_on,1,0,0,,2,,,74,127
115459,note_off,241,0,0,,12,,,71,127
115460,note_on,1,0,0,,4,,,64,127
115701,note_off,241,0,0,,4,,,64,127
115701,note_off,0,0,0,,2,,,74,127
115702,note_on,1,0,0,,10,,,57,127
115702,note_on,0,0,0,,0,,,72,127
115943,note_off,241,0,0,,0,,,72,127
115943,note_off,0,0,0,,10,,,57,127
115944,note_on,1,0,0,,12,,,59,127
115944,note_on,0,0,0,,2,,,74,127
116185,note_off,241,0,0,,2,,,74,127
116185,note_off,0,0,0,,12,,,59,127
116186,note_on,1,0,0,,0,,,60,127
116186,note_on,0,0,0,,4,,,76,127
116427,note_off,241,0,0,,4,,,76,127
116427,note_off,0,0,0,,0,,,60,127
116428,note_on,1,0,0,,2,,,62,127
116428,note_on,0,0,0,,5,,,77,127
116508,note_off,80,0,0,,5,,,77,127
116509,note_on,1,0,0,,2,,,74,127
116589,note_off,80,0,0,,2,,,74,127
116590,note_on,1,0,0,,12,,,71,127
116670,note_off,80,0,0,,12,,,71,127
116670,note_off,0,0,0,,2,,,62,127
116671,note_on,1,0,0,,4,,,64,127
116671,note_on,0,0,0,,10,,,69,127
116912,note_off,241,0,0,,10,,,69,127
116913,note_on,1,0,0,,4,,,52,127
116913,note_on,0,0,0,,8,,,68,127
117034,note_off,121,0,0,,4,,,64,127
117154,note_off,120,0,0,,8,,,68,127
117154,note_off,0,0,0,,4,,,52,127
117155,note_on,1,0,0,,10,,,45,127
117155,note_on,0,0,0,,8,,,68,127
117396,note_off,241,0,0,,8,,,68,127
117396,note_off,0,0,0,,10,,,45,127
117397,note_on,1,0,0,,12,,,47,127
117397,note_on,0,0,0,,10,,,69,127
117638,note_off,241,0,0,,10,,,69,127
117638,note_off,0,0,0,,12,,,47,127
117639,note_on,1,0,0,,0,,,48,127
117639,note_on,0,0,0,,10,,,69,127
117880,note_off,241,0,0,,10,,,69,127
117880,note_off,0,0,0,,0,,,48,127
117881,note_on,1,0,0,,2,,,50,127
117881,note_on,0,0,0,,8,,,68,127
117961,note_off,80,0,0,,8,,,68,127
117962,note_on,1,0,0,,10,,,69,127
118042,note_off,80,0,0,,10,,,69,127
118043,note_on,1,0,0,,12,,,71,127
118123,note_off,80,0,0,,12,,,71,127
118124,note_on,1,0,0,,5,,,65,127
118365,note_off,241,0,0,,2,,,50,127
118366,note_on,1,0,0,,2,,,62,127
118607,note_off,241,0,0,,2,,,62,127
118607,note_off,0,0,0,,5,,,65,127
118608,note_on,1,0,0,,0,,,60,127
118608,note_on,0,0,0,,4,,,64,127
118849,note_off,241,0,0,,4,,,64,127
118850,note_on,1,0,0,,10,,,69,127
119091,note_off,241,0,0,,0,,,60,127
119092,note_on,1,0,0,,10,,,57,127
119333,note_off,241,0,0,,10,,,57,127
119333,note_off,0,0,0,,10,,,69,127
119334,note_on,1,0,0,,12,,,59,127
119334,note_on,0,0,0,,8,,,68,127
119414,note_off,80,0,0,,8,,,68,127
119415,note_on,1,0,0,,10,,,69,127
119495,note_off,80,0,0,,10,,,69,127
119496,note_on,1,0,0,,12,,,71,127
119576,note_off,80,0,0,,12,,,71,127
119577,note_on,1,0,0,,2,,,62,127
119818,note_off,241,0,0,,12,,,59,127
119819,note_on,1,0,0,,4,,,52,127
120060,note_off,241,0,0,,4,,,52,127
120060,note_off,0,0,0,,2,,,62,127
120061,note_on,1,0,0,,10,,,45,127
120061,note_on,0,0,0,,0,,,60,127
120302,note_off,241,0,0,,0,,,60,127
120302,note_off,0,0,0,,10,,,45,127
120303,note_on,1,0,0,,12,,,47,127
120303,note_on,0,0,0,,2,,,62,127
120544,note_off,241,0,0,,2,,,62,127
120544,note_off,0,0,0,,12,,,47,127
120545,note_on,1,0,0,,0,,,48,127
120545,note_on,0,0,0,,4,,,64,127
120786,note_off,241,0,0,,4,,,64,127
120786,note_off,0,0,0,,0,,,48,127
120787,note_on,1,0,0,,2,,,50,127
120787,note_on,0,0,0,,5,,,65,127
120867,note_off,80,0,0,,5,,,65,127
120868,note_on,1,0,0,,2,,,62,127
120948,note_off,80,0,0,,2,,,62,127
120949,note_on,1,0,0,,12,,,59,127
121029,note_off,80,0,0,,12,,,59,127
121029,note_off,0,0,0,,2,,,50,127
121030,note_on,1,0,0,,4,,,52,127
121030,note_on,0,0,0,,10,,,57,127
121271,note_off,241,0,0,,10,,,57,127
121272,note_on,1,0,0,,4,,,40,127
121272,note_on,0,0,0,,8,,,56,127
121509,note_off,237,0,0,,4,,,52,127
121513,note_off,4,0,0,,8,,,56,127
121513,note_off,0,0,0,,4,,,40,127
121514,note_on,1,0,0,,10,,,57,127
121757,note_on,243,0,0,,12,,,59,127
121998,note_off,241,0,0,,12,,,59,127
121998,note_off,0,0,0,,10,,,57,127
121999,note_on,1,0,0,,0,,,60,127
121999,note_on,0,0,0,,4,,,76,127
122240,note_off,241,0,0,,4,,,76,127
122240,note_off,0,0,0,,0,,,60,127
122241,note_on,1,0,0,,2,,,62,127
122241,note_on,0,0,0,,5,,,77,127
122321,note_off,80,0,0,,5,,,77,127
122322,note_on,1,0,0,,10,,,81,127
122403,note_on,81,0,0,,2,,,74,127
122483,note_off,80,0,0,,2,,,74,127
122483,note_off,0,0,0,,2,,,62,127
122484,note_on,1,0,0,,4,,,64,127
122484,note_on,0,0,0,,0,,,72,127
122686,note_off,202,0,0,,10,,,81,127
122725,note_off,39,0,0,,0,,,72,127
122725,note_off,0,0,0,,4,,,64,127
122726,note_on,1,0,0,,4,,,52,127
122726,note_on,0,0,0,,12,,,71,127
122726,note_on,0,0,0,,8,,,80,127
122967,note_off,241,0,0,,8,,,80,127
122967,note_off,0,0,0,,12,,,71,127
122967,note_off,0,0,0,,4,,,52,127
122968,note_on,1,0,0,,10,,,57,127
122968,note_on,0,0,0,,0,,,72,127
122968,note_on,0,0,0,,10,,,81,127
123209,note_off,241,0,0,,0,,,72,127
123209,note_off,0,0,0,,10,,,57,127
123210,note_on,1,0,0,,12,,,59,127
123210,note_on,0,0,0,,2,,,74,127
123451,note_off,241,0,0,,2,,,74,127
123451,note_off,0,0,0,,12,,,59,127
123452,note_on,1,0,0,,0,,,60,127
123452,note_on,0,0,0,,4,,,76,127
123693,note_off,241,0,0,,4,,,76,127
123693,note_off,0,0,0,,0,,,60,127
123693,note_off,0,0,0,,10,,,81,127
123694,note_on,1,0,0,,2,,,62,127
123694,note_on,0,0,0,,5,,,77,127
123774,note_off,80,0,0,,5,,,77,127
123775,note_on,1,0,0,,2,,,74,127
123855,note_off,80,0,0,,2,,,74,127
123856,note_on,1,0,0,,12,,,71,127
123936,note_off,80,0,0,,12,,,71,127
123936,note_off,0,0,0,,2,,,62,127
123937,note_on,1,0,0,,4,,,64,127
123937,note_on,0,0,0,,10,,,69,127
124178,note_off,241,0,0,,10,,,69,127
124179,note_on,1,0,0,,4,,,52,127
124179,note_on,0,0,0,,8,,,68,127
124300,note_off,121,0,0,,4,,,64,127
124406,note_off,106,0,0,,8,,,68,127
124420,note_off,14,0,0,,4,,,52,127
124421,note_on,1,0,0,,10,,,45,127
124421,note_on,0,0,0,,10,,,69,127
124421,note_on,0,0,0,,0,,,60,127
124662,note_off,241,0,0,,0,,,60,127
124662,note_off,0,0,0,,10,,,45,127
124663,note_on,1,0,0,,12,,,47,127
124663,note_on,0,0,0,,2,,,62,127
124904,note_off,241,0,0,,2,,,62,127
124904,note_off,0,0,0,,12,,,47,127
124905,note_on,1,0,0,,0,,,48,127
124905,note_on,0,0,0,,4,,,64,127
125146,note_off,241,0,0,,4,,,64,127
125146,note_off,0,0,0,,0,,,48,127
125146,note_off,0,0,0,,10,,,69,127
125147,note_on,1,0,0,,2,,,50,127
125147,note_on,0,0,0,,5,,,65,127
125227,note_off,80,0,0,,5,,,65,127
125228,note_on,1,0,0,,2,,,62,127
125308,note_off,80,0,0,,2,,,62,127
125309,note_on,1,0,0,,12,,,59,127
125389,note_off,80,0,0,,12,,,59,127
125389,note_off,0,0,0,,2,,,50,127
125390,note_on,1,0,0,,4,,,52,127
125390,note_on,0,0,0,,10,,,57,127
125631,note_off,241,0,0,,10,,,57,127
125632,note_on,1,0,0,,4,,,40,127
125632,note_on,0,0,0,,8,,,56,127
125869,note_off,237,0,0,,4,,,52,127
125873,note_off,4,0,0,,8,,,56,127
125873,note_off,0,0,0,,4,,,40,127
125874,note_on,1,0,0,,10,,,45,127
125874,note_on,0,0,0,,8,,,56,127
126278,note_on,404,0,0,,10,,,57,127
126286,note_off,8,0,0,,8,,,56,127
127819,note_off,1533,0,0,,10,,,57,127
127832,note_off,13,0,0,,10,,,45,127
132096,end_of_track,4264,1,0,,,,,,
