tick,type,time,meta,track,program,channel,pitch,tempo,note,velocity
0,copyright,0,1,0,,,,,,
0,program_change,0,0,0,6,0,,,,
0,pitchwheel,0,0,0,,0,0,,,
0,program_change,0,0,0,6,1,,,,
0,pitchwheel,0,0,0,,1,-590,,,
0,program_change,0,0,0,6,2,,,,
0,pitchwheel,0,0,0,,2,-272,,,
0,program_change,0,0,0,6,3,,,,
0,pitchwheel,0,0,0,,3,-353,,,
0,program_change,0,0,0,6,4,,,,
0,pitchwheel,0,0,0,,4,-560,,,
0,program_change,0,0,0,6,5,,,,
0,pitchwheel,0,0,0,,5,-80,,,
0,program_change,0,0,0,6,6,,,,
0,pitchwheel,0,0,0,,6,-625,,,
0,program_change,0,0,0,6,7,,,,
0,pitchwheel,0,0,0,,7,-130,,,
0,program_change,0,0,0,6,8,,,,
0,pitchwheel,0,0,0,,8,-512,,,
0,program_change,0,0,0,6,10,,,,
0,pitchwheel,0,0,0,,10,-464,,,
0,program_change,0,0,0,6,11,,,,
0,pitchwheel,0,0,0,,11,-208,,,
0,program_change,0,0,0,6,12,,,,
0,pitchwheel,0,0,0,,12,-553,,,
0,set_tempo,0,1,0,,,,500000,,
100,note_on,100,0,0,,5,,,77,127
500,note_off,400,0,0,,5,,,77,127
501,note_on,1,0,0,,5,,,77,127
901,note_off,400,0,0,,5,,,77,127
902,note_on,1,0,0,,5,,,77,127
1302,note_off,400,0,0,,5,,,77,127
1303,note_on,1,0,0,,5,,,77,127
1502,note_off,199,0,0,,5,,,77,127
1503,note_on,1,0,0,,7,,,79,127
1602,note_off,99,0,0,,7,,,79,127
1603,note_on,1,0,0,,10,,,81,127
1702,note_off,99,0,0,,10,,,81,127
1703,note_on,1,0,0,,10,,,81,127
2103,note_off,400,0,0,,10,,,81,127
2104,note_on,1,0,0,,11,,,82,127
2504,note_off,400,0,0,,11,,,82,127
2505,note_on,1,0,0,,2,,,74,127
2704,note_off,199,0,0,,2,,,74,127
2705,note_on,1,0,0,,3,,,75,127
2804,note_off,99,0,0,,3,,,75,127
2805,note_on,1,0,0,,5,,,77,127
2904,note_off,99,0,0,,5,,,77,127
2905,note_on,1,0,0,,5,,,77,127
3305,note_off,400,0,0,,5,,,77,127
3306,note_on,1,0,0,,7,,,79,127
3706,note_off,400,0,0,,7,,,79,127
3707,note_on,1,0,0,,11,,,70,127
3906,note_off,199,0,0,,11,,,70,127
3907,note_on,1,0,0,,0,,,72,127
4006,note_off,99,0,0,,0,,,72,127
4007,note_on,1,0,0,,2,,,74,127
4106,note_off,99,0,0,,2,,,74,127
4107,note_on,1,0,0,,3,,,75,127
4306,note_off,199,0,0,,3,,,75,127
4307,note_on,1,0,0,,2,,,74,127
4506,note_off,199,0,0,,2,,,74,127
4507,note_on,1,0,0,,0,,,72,127
4706,note_off,199,0,0,,0,,,72,127
4707,note_on,1,0,0,,11,,,70,127
4906,note_off,199,0,0,,11,,,70,127
4907,note_on,1,0,0,,10,,,69,127
5106,note_off,199,0,0,,10,,,69,127
5107,note_on,1,0,0,,7,,,67,127
5306,note_off,199,0,0,,7,,,67,127
5307,note_on,1,0,0,,5,,,65,127
5506,note_off,199,0,0,,5,,,65,127
5507,note_on,1,0,0,,3,,,63,127
5706,note_off,199,0,0,,3,,,63,127
5707,note_on,1,0,0,,2,,,62,127
5906,note_off,199,0,0,,2,,,62,127
5907,note_on,1,0,0,,0,,,60,127
6106,note_off,199,0,0,,0,,,60,127
6107,note_on,1,0,0,,5,,,65,127
6107,note_on,0,0,0,,11,,,58,127
6507,note_off,400,0,0,,11,,,58,127
6507,note_off,0,0,0,,5,,,65,127
6508,note_on,1,0,0,,5,,,65,127
6508,note_on,0,0,0,,2,,,62,127
6908,note_off,400,0,0,,2,,,62,127
6908,note_off,0,0,0,,5,,,65,127
6909,note_on,1,0,0,,5,,,65,127
6909,note_on,0,0,0,,11,,,58,127
7309,note_off,400,0,0,,11,,,58,127
7309,note_off,0,0,0,,5,,,65,127
7310,note_on,1,0,0,,5,,,65,127
7310,note_on,0,0,0,,5,,,77,127
7509,note_off,199,0,0,,5,,,65,127
7510,note_on,1,0,0,,7,,,67,127
7609,note_off,99,0,0,,7,,,67,127
7610,note_on,1,0,0,,10,,,69,127
7709,note_off,99,0,0,,10,,,69,127
7710,note_on,1,0,0,,10,,,69,127
7909,note_off,199,0,0,,5,,,77,127
7910,note_on,1,0,0,,3,,,75,127
8109,note_off,199,0,0,,3,,,75,127
8109,note_off,0,0,0,,10,,,69,127
8110,note_on,1,0,0,,11,,,70,127
8110,note_on,0,0,0,,2,,,74,127
8510,note_off,400,0,0,,2,,,74,127
8510,note_off,0,0,0,,11,,,70,127
8511,note_on,1,0,0,,2,,,62,127
8511,note_on,0,0,0,,2,,,74,127
8710,note_off,199,0,0,,2,,,62,127
8711,note_on,1,0,0,,3,,,63,127
8810,note_off,99,0,0,,3,,,63,127
8811,note_on,1,0,0,,5,,,65,127
8910,note_off,99,0,0,,5,,,65,127
8911,note_on,1,0,0,,5,,,65,127
9110,note_off,199,0,0,,2,,,74,127
9111,note_on,1,0,0,,0,,,72,127
9310,note_off,199,0,0,,0,,,72,127
9310,note_off,0,0,0,,5,,,65,127
9311,note_on,1,0,0,,7,,,67,127
9311,note_on,0,0,0,,11,,,70,127
9711,note_off,400,0,0,,11,,,70,127
9711,note_off,0,0,0,,7,,,67,127
9712,note_on,1,0,0,,11,,,58,127
9712,note_on,0,0,0,,5,,,77,127
9911,note_off,199,0,0,,5,,,77,127
9911,note_off,0,0,0,,11,,,58,127
9912,note_on,1,0,0,,0,,,60,127
9912,note_on,0,0,0,,3,,,75,127
10011,note_off,99,0,0,,3,,,75,127
10011,note_off,0,0,0,,0,,,60,127
10012,note_on,1,0,0,,2,,,62,127
10012,note_on,0,0,0,,2,,,74,127
10111,note_off,99,0,0,,2,,,74,127
10111,note_off,0,0,0,,2,,,62,127
10112,note_on,1,0,0,,3,,,63,127
10112,note_on,0,0,0,,7,,,79,127
10311,note_off,199,0,0,,7,,,79,127
10311,note_off,0,0,0,,3,,,63,127
10312,note_on,1,0,0,,2,,,62,127
10312,note_on,0,0,0,,5,,,77,127
10511,note_off,199,0,0,,5,,,77,127
10511,note_off,0,0,0,,2,,,62,127
10512,note_on,1,0,0,,0,,,60,127
10512,note_on,0,0,0,,3,,,75,127
10711,note_off,199,0,0,,3,,,75,127
10711,note_off,0,0,0,,0,,,60,127
10712,note_on,1,0,0,,11,,,58,127
10712,note_on,0,0,0,,2,,,74,127
10911,note_off,199,0,0,,2,,,74,127
10911,note_off,0,0,0,,11,,,58,127
10912,note_on,1,0,0,,10,,,57,127
10912,note_on,0,0,0,,0,,,72,127
11111,note_off,199,0,0,,0,,,72,127
11111,note_off,0,0,0,,10,,,57,127
11112,note_on,1,0,0,,7,,,55,127
11112,note_on,0,0,0,,11,,,70,127
11311,note_off,199,0,0,,11,,,70,127
11311,note_off,0,0,0,,7,,,55,127
11312,note_on,1,0,0,,5,,,53,127
11312,note_on,0,0,0,,10,,,69,127
11511,note_off,199,0,0,,10,,,69,127
11511,note_off,0,0,0,,5,,,53,127
11512,note_on,1,0,0,,3,,,51,127
11512,note_on,0,0,0,,7,,,67,127
11711,note_off,199,0,0,,7,,,67,127
11711,note_off,0,0,0,,3,,,51,127
11712,note_on,1,0,0,,2,,,50,127
11712,note_on,0,0,0,,5,,,65,127
11911,note_off,199,0,0,,5,,,65,127
11911,note_off,0,0,0,,2,,,50,127
11912,note_on,1,0,0,,0,,,48,127
11912,note_on,0,0,0,,3,,,63,127
12111,note_off,199,0,0,,3,,,63,127
12111,note_off,0,0,0,,0,,,48,127
12112,note_on,1,0,0,,11,,,46,127
12112,note_on,0,0,0,,5,,,65,127
12161,note_off,49,0,0,,5,,,65,127
12162,note_on,1,0,0,,3,,,63,127
12211,note_off,49,0,0,,3,,,63,127
12212,note_on,1,0,0,,5,,,65,127
12261,note_off,49,0,0,,5,,,65,127
12262,note_on,1,0,0,,3,,,63,127
12311,note_off,49,0,0,,3,,,63,127
12312,note_on,1,0,0,,2,,,62,127
12511,note_off,199,0,0,,2,,,62,127
12511,note_off,0,0,0,,11,,,46,127
12512,note_on,1,0,0,,5,,,41,127
12512,note_on,0,0,0,,11,,,82,127
12512,note_on,0,0,0,,2,,,74,127
12711,note_off,199,0,0,,2,,,74,127
12711,note_off,0,0,0,,11,,,82,127
12712,note_on,1,0,0,,0,,,84,127
12712,note_on,0,0,0,,3,,,75,127
12911,note_off,199,0,0,,3,,,75,127
12911,note_off,0,0,0,,0,,,84,127
12911,note_off,0,0,0,,5,,,41,127
12912,note_on,1,0,0,,5,,,41,127
12912,note_on,0,0,0,,11,,,82,127
12912,note_on,0,0,0,,2,,,74,127
13111,note_off,199,0,0,,2,,,74,127
13111,note_off,0,0,0,,11,,,82,127
13112,note_on,1,0,0,,10,,,81,127
13112,note_on,0,0,0,,0,,,72,127
13311,note_off,199,0,0,,0,,,72,127
13311,note_off,0,0,0,,10,,,81,127
13311,note_off,0,0,0,,5,,,41,127
13312,note_on,1,0,0,,11,,,46,127
13312,note_on,0,0,0,,2,,,74,127
13312,note_on,0,0,0,,11,,,82,127
13511,note_off,199,0,0,,11,,,82,127
13511,note_off,0,0,0,,2,,,74,127
13512,note_on,1,0,0,,7,,,79,127
13512,note_on,0,0,0,,3,,,75,127
13711,note_off,199,0,0,,3,,,75,127
13711,note_off,0,0,0,,7,,,79,127
13711,note_off,0,0,0,,11,,,46,127
13712,note_on,1,0,0,,5,,,41,127
13712,note_on,0,0,0,,2,,,74,127
13712,note_on,0,0,0,,5,,,77,127
13911,note_off,199,0,0,,5,,,77,127
13911,note_off,0,0,0,,2,,,74,127
13912,note_on,1,0,0,,3,,,75,127
13912,note_on,0,0,0,,7,,,79,127
14111,note_off,199,0,0,,7,,,79,127
14111,note_off,0,0,0,,3,,,75,127
14111,note_off,0,0,0,,5,,,41,127
14112,note_on,1,0,0,,5,,,41,127
14112,note_on,0,0,0,,5,,,77,127
14112,note_on,0,0,0,,2,,,74,127
14311,note_off,199,0,0,,2,,,74,127
14311,note_off,0,0,0,,5,,,77,127
14312,note_on,1,0,0,,0,,,72,127
14312,note_on,0,0,0,,3,,,75,127
14511,note_off,199,0,0,,3,,,75,127
14511,note_off,0,0,0,,0,,,72,127
14511,note_off,0,0,0,,5,,,41,127
14512,note_on,1,0,0,,11,,,46,127
14512,note_on,0,0,0,,5,,,77,127
14561,note_off,49,0,0,,5,,,77,127
14562,note_on,1,0,0,,3,,,75,127
14611,note_off,49,0,0,,3,,,75,127
14612,note_on,1,0,0,,5,,,77,127
14661,note_off,49,0,0,,5,,,77,127
14662,note_on,1,0,0,,3,,,75,127
14711,note_off,49,0,0,,3,,,75,127
14712,note_on,1,0,0,,2,,,74,127
14911,note_off,199,0,0,,2,,,74,127
14911,note_off,0,0,0,,11,,,46,127
14912,note_on,1,0,0,,2,,,62,127
14912,note_on,0,0,0,,5,,,77,127
14912,note_on,0,0,0,,11,,,70,127
15111,note_off,199,0,0,,11,,,70,127
15111,note_off,0,0,0,,2,,,62,127
15112,note_on,1,0,0,,3,,,63,127
15112,note_on,0,0,0,,0,,,72,127
15311,note_off,199,0,0,,0,,,72,127
15311,note_off,0,0,0,,3,,,63,127
15311,note_off,0,0,0,,5,,,77,127
15312,note_on,1,0,0,,2,,,62,127
15312,note_on,0,0,0,,11,,,70,127
15312,note_on,0,0,0,,5,,,77,127
15511,note_off,199,0,0,,11,,,70,127
15511,note_off,0,0,0,,2,,,62,127
15512,note_on,1,0,0,,0,,,60,127
15512,note_on,0,0,0,,10,,,69,127
15711,note_off,199,0,0,,10,,,69,127
15711,note_off,0,0,0,,0,,,60,127
15711,note_off,0,0,0,,5,,,77,127
15712,note_on,1,0,0,,2,,,62,127
15712,note_on,0,0,0,,11,,,70,127
15712,note_on,0,0,0,,5,,,77,127
15911,note_off,199,0,0,,11,,,70,127
15911,note_off,0,0,0,,2,,,62,127
15912,note_on,1,0,0,,3,,,63,127
15912,note_on,0,0,0,,7,,,67,127
16111,note_off,199,0,0,,7,,,67,127
16111,note_off,0,0,0,,3,,,63,127
16112,note_on,1,0,0,,2,,,62,127
16112,note_on,0,0,0,,5,,,65,127
16311,note_off,199,0,0,,5,,,65,127
16311,note_off,0,0,0,,2,,,62,127
16311,note_off,0,0,0,,5,,,77,127
16312,note_on,1,0,0,,3,,,63,127
16312,note_on,0,0,0,,7,,,67,127
16511,note_off,199,0,0,,7,,,67,127
16511,note_off,0,0,0,,3,,,63,127
16512,note_on,1,0,0,,2,,,62,127
16512,note_on,0,0,0,,5,,,65,127
16711,note_off,199,0,0,,5,,,65,127
16711,note_off,0,0,0,,2,,,62,127
16712,note_on,1,0,0,,0,,,60,127
16712,note_on,0,0,0,,3,,,63,127
16911,note_off,199,0,0,,3,,,63,127
16911,note_off,0,0,0,,0,,,60,127
16912,note_on,1,0,0,,11,,,58,127
16912,note_on,0,0,0,,2,,,62,127
17111,note_off,199,0,0,,2,,,62,127
17112,note_on,1,0,0,,5,,,77,127
17311,note_off,199,0,0,,5,,,77,127
17311,note_off,0,0,0,,11,,,58,127
17312,note_on,1,0,0,,11,,,58,127
17312,note_on,0,0,0,,2,,,62,127
17312,note_on,0,0,0,,11,,,70,127
17511,note_off,199,0,0,,11,,,70,127
17512,note_on,1,0,0,,0,,,72,127
17711,note_off,199,0,0,,0,,,72,127
17711,note_off,0,0,0,,2,,,62,127
17711,note_off,0,0,0,,11,,,58,127
17712,note_on,1,0,0,,11,,,58,127
17712,note_on,0,0,0,,7,,,55,127
17712,note_on,0,0,0,,2,,,74,127
17911,note_off,199,0,0,,2,,,74,127
17912,note_on,1,0,0,,7,,,67,127
17912,note_on,0,0,0,,4,,,76,127
18111,note_off,199,0,0,,4,,,76,127
18111,note_off,0,0,0,,7,,,67,127
18111,note_off,0,0,0,,7,,,55,127
18111,note_off,0,0,0,,11,,,58,127
18112,note_on,1,0,0,,5,,,53,127
18112,note_on,0,0,0,,0,,,60,127
18112,note_on,0,0,0,,5,,,77,127
18112,note_on,0,0,0,,10,,,69,127
18311,note_off,199,0,0,,10,,,69,127
18311,note_off,0,0,0,,5,,,77,127
18312,note_on,1,0,0,,11,,,70,127
18312,note_on,0,0,0,,7,,,79,127
18511,note_off,199,0,0,,7,,,79,127
18511,note_off,0,0,0,,11,,,70,127
18511,note_off,0,0,0,,0,,,60,127
18511,note_off,0,0,0,,5,,,53,127
18512,note_on,1,0,0,,0,,,60,127
18512,note_on,0,0,0,,10,,,81,127
18512,note_on,0,0,0,,0,,,72,127
18711,note_off,199,0,0,,0,,,72,127
18711,note_off,0,0,0,,10,,,81,127
18712,note_on,1,0,0,,5,,,77,127
18911,note_off,199,0,0,,5,,,77,127
18912,note_on,1,0,0,,0,,,48,127
18912,note_on,0,0,0,,7,,,79,127
19111,note_off,199,0,0,,7,,,79,127
19112,note_on,1,0,0,,5,,,77,127
19211,note_off,99,0,0,,5,,,77,127
19212,note_on,1,0,0,,4,,,76,127
19311,note_off,99,0,0,,4,,,76,127
19311,note_off,0,0,0,,0,,,48,127
19311,note_off,0,0,0,,0,,,60,127
19312,note_on,1,0,0,,5,,,53,127
19312,note_on,0,0,0,,5,,,77,127
19511,note_off,199,0,0,,5,,,53,127
19512,note_on,1,0,0,,5,,,65,127
19711,note_off,199,0,0,,5,,,65,127
19711,note_off,0,0,0,,5,,,77,127
19712,note_on,1,0,0,,11,,,58,127
19712,note_on,0,0,0,,5,,,77,127
19911,note_off,199,0,0,,11,,,58,127
19912,note_on,1,0,0,,0,,,60,127
20111,note_off,199,0,0,,0,,,60,127
20111,note_off,0,0,0,,5,,,77,127
20112,note_on,1,0,0,,2,,,62,127
20112,note_on,0,0,0,,5,,,77,127
20311,note_off,199,0,0,,5,,,77,127
20311,note_off,0,0,0,,2,,,62,127
20312,note_on,1,0,0,,4,,,64,127
20312,note_on,0,0,0,,7,,,55,127
20312,note_on,0,0,0,,7,,,79,127
20511,note_off,199,0,0,,7,,,79,127
20511,note_off,0,0,0,,7,,,55,127
20511,note_off,0,0,0,,4,,,64,127
20512,note_on,1,0,0,,5,,,65,127
20512,note_on,0,0,0,,10,,,57,127
20512,note_on,0,0,0,,10,,,81,127
20711,note_off,199,0,0,,10,,,81,127
20711,note_off,0,0,0,,10,,,57,127
20711,note_off,0,0,0,,5,,,65,127
20712,note_on,1,0,0,,7,,,67,127
20712,note_on,0,0,0,,11,,,58,127
20712,note_on,0,0,0,,11,,,82,127
20911,note_off,199,0,0,,11,,,82,127
20911,note_off,0,0,0,,11,,,58,127
20911,note_off,0,0,0,,7,,,67,127
20912,note_on,1,0,0,,0,,,60,127
20912,note_on,0,0,0,,10,,,69,127
20912,note_on,0,0,0,,0,,,84,127
21111,note_off,199,0,0,,0,,,84,127
21111,note_off,0,0,0,,10,,,69,127
21112,note_on,1,0,0,,5,,,65,127
21112,note_on,0,0,0,,10,,,81,127
21311,note_off,199,0,0,,10,,,81,127
21311,note_off,0,0,0,,5,,,65,127
21311,note_off,0,0,0,,0,,,60,127
21312,note_on,1,0,0,,0,,,60,127
21312,note_on,0,0,0,,7,,,67,127
21312,note_on,0,0,0,,11,,,82,127
21511,note_off,199,0,0,,11,,,82,127
21511,note_off,0,0,0,,7,,,67,127
21512,note_on,1,0,0,,4,,,64,127
21512,note_on,0,0,0,,10,,,81,127
21611,note_off,99,0,0,,10,,,81,127
21612,note_on,1,0,0,,7,,,79,127
21711,note_off,99,0,0,,7,,,79,127
21711,note_off,0,0,0,,4,,,64,127
21711,note_off,0,0,0,,0,,,60,127
21712,note_on,1,0,0,,5,,,65,127
21712,note_on,0,0,0,,0,,,72,127
21712,note_on,0,0,0,,10,,,81,127
21811,note_off,99,0,0,,10,,,81,127
21812,note_on,1,0,0,,10,,,81,127
21911,note_off,99,0,0,,10,,,81,127
21912,note_on,1,0,0,,11,,,82,127
22011,note_off,99,0,0,,11,,,82,127
22012,note_on,1,0,0,,0,,,84,127
22111,note_off,99,0,0,,0,,,84,127
22111,note_off,0,0,0,,0,,,72,127
22111,note_off,0,0,0,,5,,,65,127
22112,note_on,1,0,0,,6,,,66,127
22112,note_on,0,0,0,,11,,,70,127
22112,note_on,0,0,0,,3,,,75,127
22211,note_off,99,0,0,,3,,,75,127
22212,note_on,1,0,0,,3,,,75,127
22311,note_off,99,0,0,,3,,,75,127
22312,note_on,1,0,0,,5,,,77,127
22411,note_off,99,0,0,,5,,,77,127
22412,note_on,1,0,0,,6,,,78,127
22511,note_off,99,0,0,,6,,,78,127
22511,note_off,0,0,0,,11,,,70,127
22511,note_off,0,0,0,,6,,,66,127
22512,note_on,1,0,0,,6,,,66,127
22512,note_on,0,0,0,,11,,,70,127
22512,note_on,0,0,0,,3,,,75,127
22611,note_off,99,0,0,,3,,,75,127
22612,note_on,1,0,0,,3,,,75,127
22711,note_off,99,0,0,,3,,,75,127
22712,note_on,1,0,0,,5,,,77,127
22811,note_off,99,0,0,,5,,,77,127
22812,note_on,1,0,0,,6,,,78,127
22911,note_off,99,0,0,,6,,,78,127
22911,note_off,0,0,0,,11,,,70,127
22911,note_off,0,0,0,,6,,,66,127
22912,note_on,1,0,0,,5,,,65,127
22912,note_on,0,0,0,,0,,,72,127
22912,note_on,0,0,0,,10,,,81,127
23011,note_off,99,0,0,,10,,,81,127
23012,note_on,1,0,0,,10,,,81,127
23111,note_off,99,0,0,,10,,,81,127
23112,note_on,1,0,0,,11,,,82,127
23211,note_off,99,0,0,,11,,,82,127
23212,note_on,1,0,0,,0,,,84,127
23311,note_off,99,0,0,,0,,,84,127
23311,note_off,0,0,0,,0,,,72,127
23311,note_off,0,0,0,,5,,,65,127
23312,note_on,1,0,0,,6,,,66,127
23312,note_on,0,0,0,,11,,,70,127
23312,note_on,0,0,0,,3,,,75,127
23411,note_off,99,0,0,,3,,,75,127
23412,note_on,1,0,0,,3,,,75,127
23511,note_off,99,0,0,,3,,,75,127
23512,note_on,1,0,0,,5,,,77,127
23611,note_off,99,0,0,,5,,,77,127
23612,note_on,1,0,0,,6,,,78,127
23711,note_off,99,0,0,,6,,,78,127
23711,note_off,0,0,0,,11,,,70,127
23711,note_off,0,0,0,,6,,,66,127
23712,note_on,1,0,0,,11,,,70,127
23712,note_on,0,0,0,,6,,,66,127
23712,note_on,0,0,0,,3,,,75,127
23811,note_off,99,0,0,,3,,,75,127
23812,note_on,1,0,0,,3,,,75,127
23911,note_off,99,0,0,,3,,,75,127
23912,note_on,1,0,0,,5,,,77,127
24011,note_off,99,0,0,,5,,,77,127
24012,note_on,1,0,0,,6,,,78,127
24111,note_off,99,0,0,,6,,,78,127
24111,note_off,0,0,0,,6,,,66,127
24111,note_off,0,0,0,,11,,,70,127
24112,note_on,1,0,0,,5,,,65,127
24112,note_on,0,0,0,,12,,,71,127
24112,note_on,0,0,0,,8,,,68,127
24112,note_on,0,0,0,,8,,,80,127
24211,note_off,99,0,0,,8,,,80,127
24212,note_on,1,0,0,,8,,,80,127
24311,note_off,99,0,0,,8,,,80,127
24312,note_on,1,0,0,,11,,,82,127
24411,note_off,99,0,0,,11,,,82,127
24412,note_on,1,0,0,,12,,,83,127
24511,note_off,99,0,0,,12,,,83,127
24511,note_off,0,0,0,,8,,,68,127
24511,note_off,0,0,0,,12,,,71,127
24511,note_off,0,0,0,,5,,,65,127
24512,note_on,1,0,0,,8,,,68,127
24512,note_on,0,0,0,,5,,,65,127
24512,note_on,0,0,0,,12,,,71,127
24512,note_on,0,0,0,,2,,,74,127
24611,note_off,99,0,0,,2,,,74,127
24612,note_on,1,0,0,,2,,,74,127
24711,note_off,99,0,0,,2,,,74,127
24712,note_on,1,0,0,,3,,,75,127
24811,note_off,99,0,0,,3,,,75,127
24812,note_on,1,0,0,,5,,,77,127
24911,note_off,99,0,0,,5,,,77,127
24911,note_off,0,0,0,,12,,,71,127
24911,note_off,0,0,0,,5,,,65,127
24911,note_off,0,0,0,,8,,,68,127
24912,note_on,1,0,0,,6,,,66,127
24912,note_on,0,0,0,,11,,,70,127
24912,note_on,0,0,0,,3,,,75,127
25011,note_off,99,0,0,,3,,,75,127
25012,note_on,1,0,0,,3,,,75,127
25111,note_off,99,0,0,,3,,,75,127
25112,note_on,1,0,0,,5,,,77,127
25211,note_off,99,0,0,,5,,,77,127
25212,note_on,1,0,0,,6,,,78,127
25311,note_off,99,0,0,,6,,,78,127
25311,note_off,0,0,0,,11,,,70,127
25311,note_off,0,0,0,,6,,,66,127
25312,note_on,1,0,0,,8,,,68,127
25312,note_on,0,0,0,,5,,,65,127
25312,note_on,0,0,0,,12,,,71,127
25312,note_on,0,0,0,,8,,,80,127
25411,note_off,99,0,0,,8,,,80,127
25412,note_on,1,0,0,,8,,,80,127
25511,note_off,99,0,0,,8,,,80,127
25512,note_on,1,0,0,,11,,,82,127
25611,note_off,99,0,0,,11,,,82,127
25612,note_on,1,0,0,,12,,,83,127
25711,note_off,99,0,0,,12,,,83,127
25711,note_off,0,0,0,,12,,,71,127
25711,note_off,0,0,0,,5,,,65,127
25711,note_off,0,0,0,,8,,,68,127
25712,note_on,1,0,0,,8,,,68,127
25712,note_on,0,0,0,,5,,,65,127
25712,note_on,0,0,0,,12,,,71,127
25712,note_on,0,0,0,,2,,,74,127
25811,note_off,99,0,0,,2,,,74,127
25812,note_on,1,0,0,,2,,,74,127
25911,note_off,99,0,0,,2,,,74,127
25912,note_on,1,0,0,,3,,,75,127
26011,note_off,99,0,0,,3,,,75,127
26012,note_on,1,0,0,,5,,,77,127
26111,note_off,99,0,0,,5,,,77,127
26111,note_off,0,0,0,,12,,,71,127
26111,note_off,0,0,0,,5,,,65,127
26111,note_off,0,0,0,,8,,,68,127
26112,note_on,1,0,0,,11,,,70,127
26112,note_on,0,0,0,,6,,,66,127
26112,note_on,0,0,0,,3,,,75,127
26211,note_off,99,0,0,,3,,,75,127
26212,note_on,1,0,0,,3,,,75,127
26311,note_off,99,0,0,,3,,,75,127
26312,note_on,1,0,0,,5,,,77,127
26411,note_off,99,0,0,,5,,,77,127
26412,note_on,1,0,0,,6,,,78,127
26511,note_off,99,0,0,,6,,,78,127
26511,note_off,0,0,0,,6,,,66,127
26511,note_off,0,0,0,,11,,,70,127
26512,note_on,1,0,0,,5,,,65,127
26512,note_on,0,0,0,,0,,,72,127
26512,note_on,0,0,0,,10,,,81,127
26611,note_off,99,0,0,,10,,,81,127
26612,note_on,1,0,0,,10,,,81,127
26711,note_off,99,0,0,,10,,,81,127
26712,note_on,1,0,0,,11,,,82,127
26811,note_off,99,0,0,,11,,,82,127
26812,note_on,1,0,0,,0,,,84,127
26911,note_off,99,0,0,,0,,,84,127
26911,note_off,0,0,0,,0,,,72,127
26911,note_off,0,0,0,,5,,,65,127
26912,note_on,1,0,0,,3,,,63,127
26912,note_on,0,0,0,,6,,,78,127
27011,note_off,99,0,0,,6,,,78,127
27012,note_on,1,0,0,,6,,,78,127
27111,note_off,99,0,0,,6,,,78,127
27112,note_on,1,0,0,,10,,,81,127
27211,note_off,99,0,0,,10,,,81,127
27212,note_on,1,0,0,,11,,,82,127
27311,note_off,99,0,0,,11,,,82,127
27311,note_off,0,0,0,,3,,,63,127
27312,note_on,1,0,0,,1,,,61,127
27312,note_on,0,0,0,,5,,,77,127
27411,note_off,99,0,0,,5,,,77,127
27412,note_on,1,0,0,,5,,,77,127
27511,note_off,99,0,0,,5,,,77,127
27512,note_on,1,0,0,,10,,,81,127
27611,note_off,99,0,0,,10,,,81,127
27612,note_on,1,0,0,,11,,,82,127
27711,note_off,99,0,0,,11,,,82,127
27711,note_off,0,0,0,,1,,,61,127
27712,note_on,1,0,0,,0,,,60,127
27712,note_on,0,0,0,,3,,,75,127
27811,note_off,99,0,0,,3,,,75,127
27812,note_on,1,0,0,,3,,,75,127
27911,note_off,99,0,0,,3,,,75,127
27912,note_on,1,0,0,,10,,,81,127
28011,note_off,99,0,0,,10,,,81,127
28012,note_on,1,0,0,,11,,,82,127
28111,note_off,99,0,0,,11,,,82,127
28111,note_off,0,0,0,,0,,,60,127
28112,note_on,1,0,0,,11,,,58,127
28112,note_on,0,0,0,,1,,,73,127
28211,note_off,99,0,0,,1,,,73,127
28212,note_on,1,0,0,,1,,,73,127
28311,note_off,99,0,0,,1,,,73,127
28312,note_on,1,0,0,,10,,,81,127
28411,note_off,99,0,0,,10,,,81,127
28412,note_on,1,0,0,,11,,,82,127
28511,note_off,99,0,0,,11,,,82,127
28511,note_off,0,0,0,,11,,,58,127
28512,note_on,1,0,0,,8,,,56,127
28512,note_on,0,0,0,,0,,,72,127
28611,note_off,99,0,0,,0,,,72,127
28612,note_on,1,0,0,,0,,,72,127
28711,note_off,99,0,0,,0,,,72,127
28712,note_on,1,0,0,,10,,,81,127
28811,note_off,99,0,0,,10,,,81,127
28812,note_on,1,0,0,,11,,,82,127
28911,note_off,99,0,0,,11,,,82,127
28911,note_off,0,0,0,,8,,,56,127
28912,note_on,1,0,0,,6,,,54,127
28912,note_on,0,0,0,,11,,,70,127
29011,note_off,99,0,0,,11,,,70,127
29012,note_on,1,0,0,,11,,,70,127
29111,note_off,99,0,0,,11,,,70,127
29112,note_on,1,0,0,,10,,,81,127
29211,note_off,99,0,0,,10,,,81,127
29212,note_on,1,0,0,,11,,,82,127
29311,note_off,99,0,0,,11,,,82,127
29311,note_off,0,0,0,,6,,,54,127
29312,note_on,1,0,0,,5,,,53,127
29312,note_on,0,0,0,,10,,,69,127
29411,note_off,99,0,0,,10,,,69,127
29412,note_on,1,0,0,,11,,,70,127
29511,note_off,99,0,0,,11,,,70,127
29512,note_on,1,0,0,,0,,,72,127
29611,note_off,99,0,0,,0,,,72,127
29612,note_on,1,0,0,,2,,,74,127
29711,note_off,99,0,0,,2,,,74,127
29711,note_off,0,0,0,,5,,,53,127
29712,note_on,1,0,0,,0,,,48,127
29712,note_on,0,0,0,,4,,,76,127
29811,note_off,99,0,0,,4,,,76,127
29812,note_on,1,0,0,,5,,,77,127
29911,note_off,99,0,0,,5,,,77,127
29912,note_on,1,0,0,,7,,,79,127
30011,note_off,99,0,0,,7,,,79,127
30012,note_on,1,0,0,,4,,,76,127
30111,note_off,99,0,0,,4,,,76,127
30111,note_off,0,0,0,,0,,,48,127
30112,note_on,1,0,0,,5,,,53,127
30112,note_on,0,0,0,,10,,,81,127
30211,note_off,99,0,0,,10,,,81,127
30212,note_on,1,0,0,,10,,,81,127
30311,note_off,99,0,0,,10,,,81,127
30312,note_on,1,0,0,,11,,,82,127
30411,note_off,99,0,0,,11,,,82,127
30412,note_on,1,0,0,,0,,,84,127
30511,note_off,99,0,0,,0,,,84,127
30511,note_off,0,0,0,,5,,,53,127
30512,note_on,1,0,0,,5,,,77,127
30611,note_off,99,0,0,,5,,,77,127
30612,note_on,1,0,0,,5,,,77,127
30711,note_off,99,0,0,,5,,,77,127
30712,note_on,1,0,0,,7,,,79,127
30811,note_off,99,0,0,,7,,,79,127
30812,note_on,1,0,0,,10,,,81,127
30911,note_off,99,0,0,,10,,,81,127
30912,note_on,1,0,0,,2,,,74,127
31011,note_off,99,0,0,,2,,,74,127
31012,note_on,1,0,0,,2,,,74,127
31111,note_off,99,0,0,,2,,,74,127
31112,note_on,1,0,0,,4,,,76,127
31211,note_off,99,0,0,,4,,,76,127
31212,note_on,1,0,0,,5,,,77,127
31311,note_off,99,0,0,,5,,,77,127
31312,note_on,1,0,0,,11,,,70,127
31411,note_off,99,0,0,,11,,,70,127
31412,note_on,1,0,0,,11,,,70,127
31511,note_off,99,0,0,,11,,,70,127
31512,note_on,1,0,0,,0,,,72,127
31611,note_off,99,0,0,,0,,,72,127
31612,note_on,1,0,0,,2,,,74,127
31711,note_off,99,0,0,,2,,,74,127
31712,note_on,1,0,0,,7,,,67,127
31811,note_off,99,0,0,,7,,,67,127
31812,note_on,1,0,0,,7,,,67,127
31911,note_off,99,0,0,,7,,,67,127
31912,note_on,1,0,0,,10,,,69,127
32011,note_off,99,0,0,,10,,,69,127
32012,note_on,1,0,0,,11,,,70,127
32111,note_off,99,0,0,,11,,,70,127
32112,note_on,1,0,0,,4,,,64,127
32211,note_off,99,0,0,,4,,,64,127
32212,note_on,1,0,0,,4,,,64,127
32311,note_off,99,0,0,,4,,,64,127
32312,note_on,1,0,0,,5,,,65,127
32411,note_off,99,0,0,,5,,,65,127
32412,note_on,1,0,0,,7,,,67,127
32511,note_off,99,0,0,,7,,,67,127
32512,note_on,1,0,0,,5,,,65,127
32512,note_on,0,0,0,,10,,,69,127
32611,note_off,99,0,0,,10,,,69,127
32612,note_on,1,0,0,,10,,,69,127
32711,note_off,99,0,0,,10,,,69,127
32712,note_on,1,0,0,,11,,,70,127
32811,note_off,99,0,0,,11,,,70,127
32812,note_on,1,0,0,,0,,,72,127
32911,note_off,99,0,0,,0,,,72,127
32911,note_off,0,0,0,,5,,,65,127
32912,note_on,1,0,0,,2,,,62,127
32912,note_on,0,0,0,,5,,,65,127
33011,note_off,99,0,0,,5,,,65,127
33012,note_on,1,0,0,,5,,,65,127
33111,note_off,99,0,0,,5,,,65,127
33112,note_on,1,0,0,,7,,,67,127
33211,note_off,99,0,0,,7,,,67,127
33212,note_on,1,0,0,,10,,,69,127
33311,note_off,99,0,0,,10,,,69,127
33311,note_off,0,0,0,,2,,,62,127
33312,note_on,1,0,0,,11,,,58,127
33312,note_on,0,0,0,,2,,,62,127
33411,note_off,99,0,0,,2,,,62,127
33412,note_on,1,0,0,,2,,,62,127
33511,note_off,99,0,0,,2,,,62,127
33512,note_on,1,0,0,,4,,,64,127
33611,note_off,99,0,0,,4,,,64,127
33612,note_on,1,0,0,,5,,,65,127
33711,note_off,99,0,0,,5,,,65,127
33711,note_off,0,0,0,,11,,,58,127
33712,note_on,1,0,0,,7,,,55,127
33712,note_on,0,0,0,,11,,,58,127
33811,note_off,99,0,0,,11,,,58,127
33812,note_on,1,0,0,,11,,,58,127
33911,note_off,99,0,0,,11,,,58,127
33912,note_on,1,0,0,,0,,,60,127
34011,note_off,99,0,0,,0,,,60,127
34012,note_on,1,0,0,,2,,,62,127
34111,note_off,99,0,0,,2,,,62,127
34111,note_off,0,0,0,,7,,,55,127
34112,note_on,1,0,0,,4,,,52,127
34112,note_on,0,0,0,,7,,,55,127
34211,note_off,99,0,0,,7,,,55,127
34212,note_on,1,0,0,,7,,,55,127
34311,note_off,99,0,0,,7,,,55,127
34312,note_on,1,0,0,,10,,,57,127
34411,note_off,99,0,0,,10,,,57,127
34412,note_on,1,0,0,,11,,,58,127
34511,note_off,99,0,0,,11,,,58,127
34511,note_off,0,0,0,,4,,,52,127
34512,note_on,1,0,0,,0,,,48,127
34512,note_on,0,0,0,,4,,,52,127
34611,note_off,99,0,0,,4,,,52,127
34612,note_on,1,0,0,,4,,,52,127
34711,note_off,99,0,0,,4,,,52,127
34712,note_on,1,0,0,,5,,,53,127
34811,note_off,99,0,0,,5,,,53,127
34812,note_on,1,0,0,,7,,,55,127
34911,note_off,99,0,0,,7,,,55,127
34911,note_off,0,0,0,,0,,,48,127
34912,note_on,1,0,0,,5,,,53,127
34912,note_on,0,0,0,,10,,,81,127
35011,note_off,99,0,0,,10,,,81,127
35012,note_on,1,0,0,,5,,,77,127
35111,note_off,99,0,0,,5,,,77,127
35112,note_on,1,0,0,,11,,,46,127
35112,note_on,0,0,0,,11,,,82,127
35211,note_off,99,0,0,,11,,,82,127
35212,note_on,1,0,0,,7,,,79,127
35311,note_off,99,0,0,,7,,,79,127
35311,note_off,0,0,0,,11,,,46,127
35312,note_on,1,0,0,,0,,,48,127
35312,note_on,0,0,0,,5,,,77,127
35361,note_off,49,0,0,,5,,,77,127
35362,note_on,1,0,0,,7,,,79,127
35411,note_off,49,0,0,,7,,,79,127
35412,note_on,1,0,0,,10,,,81,127
35461,note_off,49,0,0,,10,,,81,127
35462,note_on,1,0,0,,7,,,79,127
35511,note_off,49,0,0,,7,,,79,127
35512,note_on,1,0,0,,10,,,81,127
35561,note_off,49,0,0,,10,,,81,127
35562,note_on,1,0,0,,7,,,79,127
35611,note_off,49,0,0,,7,,,79,127
35612,note_on,1,0,0,,10,,,81,127
35661,note_off,49,0,0,,10,,,81,127
35662,note_on,1,0,0,,7,,,79,127
35711,note_off,49,0,0,,7,,,79,127
35711,note_off,0,0,0,,5,,,53,127
35712,note_on,1,0,0,,4,,,52,127
35712,note_on,0,0,0,,10,,,81,127
35761,note_off,49,0,0,,10,,,81,127
35762,note_on,1,0,0,,7,,,79,127
35811,note_off,49,0,0,,7,,,79,127
35812,note_on,1,0,0,,10,,,81,127
35861,note_off,49,0,0,,10,,,81,127
35862,note_on,1,0,0,,7,,,79,127
35911,note_off,49,0,0,,7,,,79,127
35912,note_on,1,0,0,,5,,,77,127
36111,note_off,199,0,0,,5,,,77,127
36111,note_off,0,0,0,,4,,,52,127
36111,note_off,0,0,0,,0,,,48,127
36112,note_on,1,0,0,,5,,,53,127
36112,note_on,0,0,0,,5,,,41,127
36112,note_on,0,0,0,,10,,,81,127
36211,note_off,99,0,0,,10,,,81,127
36212,note_on,1,0,0,,10,,,81,127
36311,note_off,99,0,0,,10,,,81,127
36312,note_on,1,0,0,,11,,,82,127
36411,note_off,99,0,0,,11,,,82,127
36412,note_on,1,0,0,,0,,,84,127
36511,note_off,99,0,0,,0,,,84,127
36511,note_off,0,0,0,,5,,,41,127
36511,note_off,0,0,0,,5,,,53,127
36512,note_on,1,0,0,,5,,,77,127
36611,note_off,99,0,0,,5,,,77,127
36612,note_on,1,0,0,,5,,,77,127
36711,note_off,99,0,0,,5,,,77,127
36712,note_on,1,0,0,,7,,,79,127
36811,note_off,99,0,0,,7,,,79,127
36812,note_on,1,0,0,,10,,,81,127
36911,note_off,99,0,0,,10,,,81,127
36912,note_on,1,0,0,,2,,,74,127
37011,note_off,99,0,0,,2,,,74,127
37012,note_on,1,0,0,,2,,,74,127
37111,note_off,99,0,0,,2,,,74,127
37112,note_on,1,0,0,,4,,,76,127
37211,note_off,99,0,0,,4,,,76,127
37212,note_on,1,0,0,,5,,,77,127
37311,note_off,99,0,0,,5,,,77,127
37312,note_on,1,0,0,,11,,,70,127
37411,note_off,99,0,0,,11,,,70,127
37412,note_on,1,0,0,,11,,,70,127
37511,note_off,99,0,0,,11,,,70,127
37512,note_on,1,0,0,,0,,,72,127
37611,note_off,99,0,0,,0,,,72,127
37612,note_on,1,0,0,,2,,,74,127
37711,note_off,99,0,0,,2,,,74,127
37712,note_on,1,0,0,,7,,,67,127
37811,note_off,99,0,0,,7,,,67,127
37812,note_on,1,0,0,,7,,,67,127
37911,note_off,99,0,0,,7,,,67,127
37912,note_on,1,0,0,,10,,,69,127
38011,note_off,99,0,0,,10,,,69,127
38012,note_on,1,0,0,,11,,,70,127
38111,note_off,99,0,0,,11,,,70,127
38112,note_on,1,0,0,,4,,,64,127
38211,note_off,99,0,0,,4,,,64,127
38212,note_on,1,0,0,,4,,,64,127
38311,note_off,99,0,0,,4,,,64,127
38312,note_on,1,0,0,,5,,,65,127
38411,note_off,99,0,0,,5,,,65,127
38412,note_on,1,0,0,,7,,,67,127
38511,note_off,99,0,0,,7,,,67,127
38512,note_on,1,0,0,,5,,,65,127
38512,note_on,0,0,0,,10,,,69,127
38611,note_off,99,0,0,,10,,,69,127
38612,note_on,1,0,0,,10,,,69,127
38711,note_off,99,0,0,,10,,,69,127
38712,note_on,1,0,0,,11,,,70,127
38811,note_off,99,0,0,,11,,,70,127
38812,note_on,1,0,0,,0,,,72,127
38911,note_off,99,0,0,,0,,,72,127
38911,note_off,0,0,0,,5,,,65,127
38912,note_on,1,0,0,,2,,,62,127
38912,note_on,0,0,0,,5,,,65,127
39011,note_off,99,0,0,,5,,,65,127
39012,note_on,1,0,0,,5,,,65,127
39111,note_off,99,0,0,,5,,,65,127
39112,note_on,1,0,0,,7,,,67,127
39211,note_off,99,0,0,,7,,,67,127
39212,note_on,1,0,0,,10,,,69,127
39311,note_off,99,0,0,,10,,,69,127
39311,note_off,0,0,0,,2,,,62,127
39312,note_on,1,0,0,,11,,,58,127
39312,note_on,0,0,0,,2,,,62,127
39411,note_off,99,0,0,,2,,,62,127
39412,note_on,1,0,0,,2,,,62,127
39511,note_off,99,0,0,,2,,,62,127
39512,note_on,1,0,0,,4,,,64,127
39611,note_off,99,0,0,,4,,,64,127
39612,note_on,1,0,0,,5,,,65,127
39711,note_off,99,0,0,,5,,,65,127
39711,note_off,0,0,0,,11,,,58,127
39712,note_on,1,0,0,,7,,,55,127
39712,note_on,0,0,0,,11,,,58,127
39811,note_off,99,0,0,,11,,,58,127
39812,note_on,1,0,0,,11,,,58,127
39911,note_off,99,0,0,,11,,,58,127
39912,note_on,1,0,0,,0,,,60,127
40011,note_off,99,0,0,,0,,,60,127
40012,note_on,1,0,0,,2,,,62,127
40111,note_off,99,0,0,,2,,,62,127
40111,note_off,0,0,0,,7,,,55,127
40112,note_on,1,0,0,,4,,,52,127
40112,note_on,0,0,0,,7,,,55,127
40211,note_off,99,0,0,,7,,,55,127
40212,note_on,1,0,0,,7,,,55,127
40311,note_off,99,0,0,,7,,,55,127
40312,note_on,1,0,0,,10,,,57,127
40411,note_off,99,0,0,,10,,,57,127
40412,note_on,1,0,0,,11,,,58,127
40511,note_off,99,0,0,,11,,,58,127
40511,note_off,0,0,0,,4,,,52,127
40512,note_on,1,0,0,,0,,,48,127
40512,note_on,0,0,0,,4,,,52,127
40611,note_off,99,0,0,,4,,,52,127
40612,note_on,1,0,0,,4,,,52,127
40711,note_off,99,0,0,,4,,,52,127
40712,note_on,1,0,0,,5,,,53,127
40811,note_off,99,0,0,,5,,,53,127
40812,note_on,1,0,0,,7,,,55,127
40911,note_off,99,0,0,,7,,,55,127
40911,note_off,0,0,0,,0,,,48,127
40912,note_on,1,0,0,,5,,,53,127
40912,note_on,0,0,0,,10,,,81,127
41011,note_off,99,0,0,,10,,,81,127
41012,note_on,1,0,0,,5,,,77,127
41111,note_off,99,0,0,,5,,,77,127
41112,note_on,1,0,0,,11,,,46,127
41112,note_on,0,0,0,,11,,,82,127
41211,note_off,99,0,0,,11,,,82,127
41212,note_on,1,0,0,,7,,,79,127
41311,note_off,99,0,0,,7,,,79,127
41311,note_off,0,0,0,,11,,,46,127
41312,note_on,1,0,0,,0,,,48,127
41312,note_on,0,0,0,,5,,,77,127
41361,note_off,49,0,0,,5,,,77,127
41362,note_on,1,0,0,,7,,,79,127
41411,note_off,49,0,0,,7,,,79,127
41412,note_on,1,0,0,,10,,,81,127
41461,note_off,49,0,0,,10,,,81,127
41462,note_on,1,0,0,,7,,,79,127
41511,note_off,49,0,0,,7,,,79,127
41512,note_on,1,0,0,,10,,,81,127
41561,note_off,49,0,0,,10,,,81,127
41562,note_on,1,0,0,,7,,,79,127
41611,note_off,49,0,0,,7,,,79,127
41612,note_on,1,0,0,,10,,,81,127
41661,note_off,49,0,0,,10,,,81,127
41662,note_on,1,0,0,,7,,,79,127
41711,note_off,49,0,0,,7,,,79,127
41711,note_off,0,0,0,,5,,,53,127
41712,note_on,1,0,0,,4,,,52,127
41712,note_on,0,0,0,,10,,,81,127
41761,note_off,49,0,0,,10,,,81,127
41762,note_on,1,0,0,,7,,,79,127
41811,note_off,49,0,0,,7,,,79,127
41812,note_on,1,0,0,,10,,,81,127
41861,note_off,49,0,0,,10,,,81,127
41862,note_on,1,0,0,,7,,,79,127
41911,note_off,49,0,0,,7,,,79,127
41912,note_on,1,0,0,,10,,,81,127
41961,note_off,49,0,0,,10,,,81,127
41962,note_on,1,0,0,,7,,,79,127
42011,note_off,49,0,0,,7,,,79,127
42012,note_on,1,0,0,,5,,,77,127
42111,note_off,99,0,0,,5,,,77,127
42111,note_off,0,0,0,,4,,,52,127
42111,note_off,0,0,0,,0,,,48,127
42112,note_on,1,0,0,,5,,,41,127
42112,note_on,0,0,0,,5,,,53,127
42112,note_on,0,0,0,,5,,,77,127
42311,note_off,199,0,0,,5,,,77,127
42312,note_on,1,0,0,,0,,,84,127
42511,note_off,199,0,0,,0,,,84,127
42512,note_on,1,0,0,,11,,,82,127
42611,note_off,99,0,0,,11,,,82,127
42612,note_on,1,0,0,,10,,,81,127
42711,note_off,99,0,0,,10,,,81,127
42712,note_on,1,0,0,,7,,,79,127
42811,note_off,99,0,0,,7,,,79,127
42812,note_on,1,0,0,,5,,,77,127
42911,note_off,99,0,0,,5,,,77,127
42911,note_off,0,0,0,,5,,,53,127
42911,note_off,0,0,0,,5,,,41,127
42912,note_on,1,0,0,,10,,,45,127
42912,note_on,0,0,0,,5,,,53,127
42912,note_on,0,0,0,,5,,,77,127
43011,note_off,99,0,0,,5,,,77,127
43012,note_on,1,0,0,,4,,,76,127
43111,note_off,99,0,0,,4,,,76,127
43112,note_on,1,0,0,,2,,,74,127
43211,note_off,99,0,0,,2,,,74,127
43212,note_on,1,0,0,,0,,,72,127
43311,note_off,99,0,0,,0,,,72,127
43311,note_off,0,0,0,,10,,,45,127
43312,note_on,1,0,0,,11,,,46,127
43312,note_on,0,0,0,,0,,,72,127
43411,note_off,99,0,0,,0,,,72,127
43412,note_on,1,0,0,,11,,,70,127
43511,note_off,99,0,0,,11,,,70,127
43512,note_on,1,0,0,,10,,,69,127
43611,note_off,99,0,0,,10,,,69,127
43612,note_on,1,0,0,,7,,,67,127
43711,note_off,99,0,0,,7,,,67,127
43711,note_off,0,0,0,,11,,,46,127
43712,note_on,1,0,0,,0,,,48,127
43712,note_on,0,0,0,,5,,,65,127
43861,note_off,149,0,0,,5,,,65,127
43862,note_on,1,0,0,,7,,,67,127
43911,note_off,49,0,0,,7,,,67,127
43912,note_on,1,0,0,,5,,,65,127
43961,note_off,49,0,0,,5,,,65,127
43962,note_on,1,0,0,,4,,,64,127
44011,note_off,49,0,0,,4,,,64,127
44012,note_on,1,0,0,,5,,,65,127
44061,note_off,49,0,0,,5,,,65,127
44062,note_on,1,0,0,,7,,,67,127
44111,note_off,49,0,0,,7,,,67,127
44111,note_off,0,0,0,,5,,,53,127
44112,note_on,1,0,0,,4,,,52,127
44112,note_on,0,0,0,,10,,,69,127
44161,note_off,49,0,0,,10,,,69,127
44162,note_on,1,0,0,,7,,,67,127
44211,note_off,49,0,0,,7,,,67,127
44212,note_on,1,0,0,,10,,,69,127
44261,note_off,49,0,0,,10,,,69,127
44262,note_on,1,0,0,,7,,,67,127
44311,note_off,49,0,0,,7,,,67,127
44312,note_on,1,0,0,,10,,,69,127
44361,note_off,49,0,0,,10,,,69,127
44362,note_on,1,0,0,,7,,,67,127
44411,note_off,49,0,0,,7,,,67,127
44412,note_on,1,0,0,,5,,,65,127
44511,note_off,99,0,0,,5,,,65,127
44511,note_off,0,0,0,,4,,,52,127
44511,note_off,0,0,0,,0,,,48,127
44512,note_on,1,0,0,,5,,,41,127
44512,note_on,0,0,0,,5,,,53,127
44512,note_on,0,0,0,,5,,,65,127
44711,note_off,199,0,0,,5,,,65,127
44712,note_on,1,0,0,,0,,,84,127
44911,note_off,199,0,0,,0,,,84,127
44912,note_on,1,0,0,,11,,,82,127
45011,note_off,99,0,0,,11,,,82,127
45012,note_on,1,0,0,,10,,,81,127
45111,note_off,99,0,0,,10,,,81,127
45112,note_on,1,0,0,,7,,,79,127
45211,note_off,99,0,0,,7,,,79,127
45212,note_on,1,0,0,,5,,,77,127
45311,note_off,99,0,0,,5,,,77,127
45311,note_off,0,0,0,,5,,,53,127
45311,note_off,0,0,0,,5,,,41,127
45312,note_on,1,0,0,,10,,,45,127
45312,note_on,0,0,0,,5,,,53,127
45312,note_on,0,0,0,,5,,,77,127
45411,note_off,99,0,0,,5,,,77,127
45412,note_on,1,0,0,,4,,,76,127
45511,note_off,99,0,0,,4,,,76,127
45512,note_on,1,0,0,,2,,,74,127
45611,note_off,99,0,0,,2,,,74,127
45612,note_on,1,0,0,,0,,,72,127
45711,note_off,99,0,0,,0,,,72,127
45711,note_off,0,0,0,,10,,,45,127
45712,note_on,1,0,0,,11,,,46,127
45712,note_on,0,0,0,,0,,,72,127
45811,note_off,99,0,0,,0,,,72,127
45812,note_on,1,0,0,,11,,,70,127
45911,note_off,99,0,0,,11,,,70,127
45912,note_on,1,0,0,,10,,,69,127
46011,note_off,99,0,0,,10,,,69,127
46012,note_on,1,0,0,,7,,,67,127
46111,note_off,99,0,0,,7,,,67,127
46111,note_off,0,0,0,,11,,,46,127
46112,note_on,1,0,0,,0,,,48,127
46112,note_on,0,0,0,,5,,,65,127
46261,note_off,149,0,0,,5,,,65,127
46262,note_on,1,0,0,,7,,,67,127
46311,note_off,49,0,0,,7,,,67,127
46312,note_on,1,0,0,,5,,,65,127
46361,note_off,49,0,0,,5,,,65,127
46362,note_on,1,0,0,,4,,,64,127
46411,note_off,49,0,0,,4,,,64,127
46412,note_on,1,0,0,,5,,,65,127
46461,note_off,49,0,0,,5,,,65,127
46462,note_on,1,0,0,,7,,,67,127
46511,note_off,49,0,0,,7,,,67,127
46511,note_off,0,0,0,,5,,,53,127
46512,note_on,1,0,0,,4,,,52,127
46512,note_on,0,0,0,,10,,,69,127
46561,note_off,49,0,0,,10,,,69,127
46562,note_on,1,0,0,,7,,,67,127
46611,note_off,49,0,0,,7,,,67,127
46612,note_on,1,0,0,,10,,,69,127
46661,note_off,49,0,0,,10,,,69,127
46662,note_on,1,0,0,,7,,,67,127
46711,note_off,49,0,0,,7,,,67,127
46712,note_on,1,0,0,,10,,,69,127
46761,note_off,49,0,0,,10,,,69,127
46762,note_on,1,0,0,,7,,,67,127
46811,note_off,49,0,0,,7,,,67,127
46812,note_on,1,0,0,,5,,,65,127
46911,note_off,99,0,0,,5,,,65,127
46911,note_off,0,0,0,,4,,,52,127
46911,note_off,0,0,0,,0,,,48,127
46912,note_on,1,0,0,,5,,,41,127
46912,note_on,0,0,0,,5,,,65,127
47011,note_off,99,0,0,,5,,,65,127
47011,note_off,0,0,0,,5,,,41,127
47012,note_on,1,0,0,,10,,,57,127
47012,note_on,0,0,0,,5,,,77,127
47111,note_off,99,0,0,,5,,,77,127
47111,note_off,0,0,0,,10,,,57,127
47112,note_on,1,0,0,,7,,,55,127
47112,note_on,0,0,0,,5,,,65,127
47211,note_off,99,0,0,,5,,,65,127
47211,note_off,0,0,0,,7,,,55,127
47212,note_on,1,0,0,,5,,,53,127
47212,note_on,0,0,0,,7,,,67,127
47311,note_off,99,0,0,,7,,,67,127
47311,note_off,0,0,0,,5,,,53,127
47312,note_on,1,0,0,,5,,,41,127
47312,note_on,0,0,0,,5,,,65,127
47411,note_off,99,0,0,,5,,,65,127
47411,note_off,0,0,0,,5,,,41,127
47412,note_on,1,0,0,,10,,,57,127
47412,note_on,0,0,0,,5,,,77,127
47511,note_off,99,0,0,,5,,,77,127
47511,note_off,0,0,0,,10,,,57,127
47512,note_on,1,0,0,,7,,,55,127
47512,note_on,0,0,0,,5,,,65,127
47611,note_off,99,0,0,,5,,,65,127
47611,note_off,0,0,0,,7,,,55,127
47612,note_on,1,0,0,,5,,,53,127
47612,note_on,0,0,0,,7,,,67,127
47711,note_off,99,0,0,,7,,,67,127
47711,note_off,0,0,0,,5,,,53,127
47712,note_on,1,0,0,,5,,,41,127
47712,note_on,0,0,0,,5,,,65,127
47811,note_off,99,0,0,,5,,,65,127
47811,note_off,0,0,0,,5,,,41,127
47812,note_on,1,0,0,,10,,,57,127
47812,note_on,0,0,0,,5,,,77,127
47911,note_off,99,0,0,,5,,,77,127
47911,note_off,0,0,0,,10,,,57,127
47912,note_on,1,0,0,,7,,,55,127
47912,note_on,0,0,0,,5,,,65,127
48011,note_off,99,0,0,,5,,,65,127
48011,note_off,0,0,0,,7,,,55,127
48012,note_on,1,0,0,,5,,,53,127
48012,note_on,0,0,0,,7,,,67,127
48111,note_off,99,0,0,,7,,,67,127
48111,note_off,0,0,0,,5,,,53,127
48112,note_on,1,0,0,,5,,,41,127
48112,note_on,0,0,0,,10,,,69,127
48211,note_off,99,0,0,,10,,,69,127
48212,note_on,1,0,0,,0,,,72,127
48311,note_off,99,0,0,,0,,,72,127
48312,note_on,1,0,0,,11,,,70,127
48411,note_off,99,0,0,,11,,,70,127
48412,note_on,1,0,0,,10,,,69,127
48511,note_off,99,0,0,,10,,,69,127
48511,note_off,0,0,0,,5,,,41,127
48512,note_on,1,0,0,,11,,,46,127
48512,note_on,0,0,0,,11,,,70,127
48611,note_off,99,0,0,,11,,,70,127
48612,note_on,1,0,0,,2,,,74,127
48711,note_off,99,0,0,,2,,,74,127
48712,note_on,1,0,0,,0,,,72,127
48811,note_off,99,0,0,,0,,,72,127
48812,note_on,1,0,0,,11,,,70,127
48911,note_off,99,0,0,,11,,,70,127
48911,note_off,0,0,0,,11,,,46,127
48912,note_on,1,0,0,,0,,,48,127
48912,note_on,0,0,0,,10,,,69,127
49011,note_off,99,0,0,,10,,,69,127
49012,note_on,1,0,0,,7,,,67,127
49111,note_off,99,0,0,,7,,,67,127
49112,note_on,1,0,0,,5,,,65,127
49211,note_off,99,0,0,,5,,,65,127
49212,note_on,1,0,0,,4,,,64,127
49311,note_off,99,0,0,,4,,,64,127
49311,note_off,0,0,0,,0,,,48,127
49312,note_on,1,0,0,,5,,,41,127
49312,note_on,0,0,0,,5,,,65,127
49411,note_off,99,0,0,,5,,,41,127
49412,note_on,1,0,0,,10,,,57,127
49412,note_on,0,0,0,,5,,,77,127
49510,note_off,98,0,0,,5,,,65,127
49511,note_off,1,0,0,,5,,,77,127
49511,note_off,0,0,0,,10,,,57,127
49512,note_on,1,0,0,,7,,,55,127
49512,note_on,0,0,0,,5,,,65,127
49611,note_off,99,0,0,,5,,,65,127
49611,note_off,0,0,0,,7,,,55,127
49612,note_on,1,0,0,,5,,,53,127
49612,note_on,0,0,0,,7,,,67,127
49711,note_off,99,0,0,,7,,,67,127
49711,note_off,0,0,0,,5,,,53,127
49712,note_on,1,0,0,,5,,,41,127
49712,note_on,0,0,0,,5,,,65,127
49811,note_off,99,0,0,,5,,,41,127
49812,note_on,1,0,0,,10,,,57,127
49812,note_on,0,0,0,,5,,,77,127
49910,note_off,98,0,0,,5,,,65,127
49911,note_off,1,0,0,,5,,,77,127
49911,note_off,0,0,0,,10,,,57,127
49912,note_on,1,0,0,,7,,,55,127
49912,note_on,0,0,0,,5,,,65,127
50011,note_off,99,0,0,,5,,,65,127
50011,note_off,0,0,0,,7,,,55,127
50012,note_on,1,0,0,,5,,,53,127
50012,note_on,0,0,0,,7,,,67,127
50111,note_off,99,0,0,,7,,,67,127
50111,note_off,0,0,0,,5,,,53,127
50112,note_on,1,0,0,,5,,,41,127
50112,note_on,0,0,0,,5,,,65,127
50211,note_off,99,0,0,,5,,,41,127
50212,note_on,1,0,0,,10,,,57,127
50212,note_on,0,0,0,,5,,,77,127
50310,note_off,98,0,0,,5,,,65,127
50311,note_off,1,0,0,,5,,,77,127
50311,note_off,0,0,0,,10,,,57,127
50312,note_on,1,0,0,,7,,,55,127
50312,note_on,0,0,0,,5,,,65,127
50411,note_off,99,0,0,,5,,,65,127
50411,note_off,0,0,0,,7,,,55,127
50412,note_on,1,0,0,,5,,,53,127
50412,note_on,0,0,0,,7,,,67,127
50511,note_off,99,0,0,,7,,,67,127
50511,note_off,0,0,0,,5,,,53,127
50512,note_on,1,0,0,,5,,,41,127
50512,note_on,0,0,0,,10,,,69,127
50611,note_off,99,0,0,,10,,,69,127
50612,note_on,1,0,0,,0,,,72,127
50711,note_off,99,0,0,,0,,,72,127
50712,note_on,1,0,0,,11,,,70,127
50811,note_off,99,0,0,,11,,,70,127
50812,note_on,1,0,0,,10,,,69,127
50911,note_off,99,0,0,,10,,,69,127
50911,note_off,0,0,0,,5,,,41,127
50912,note_on,1,0,0,,11,,,46,127
50912,note_on,0,0,0,,11,,,70,127
51011,note_off,99,0,0,,11,,,70,127
51012,note_on,1,0,0,,2,,,74,127
51111,note_off,99,0,0,,2,,,74,127
51112,note_on,1,0,0,,0,,,72,127
51211,note_off,99,0,0,,0,,,72,127
51212,note_on,1,0,0,,11,,,70,127
51311,note_off,99,0,0,,11,,,70,127
51311,note_off,0,0,0,,11,,,46,127
51312,note_on,1,0,0,,0,,,48,127
51312,note_on,0,0,0,,10,,,69,127
51411,note_off,99,0,0,,10,,,69,127
51412,note_on,1,0,0,,7,,,67,127
51511,note_off,99,0,0,,7,,,67,127
51512,note_on,1,0,0,,5,,,65,127
51611,note_off,99,0,0,,5,,,65,127
51612,note_on,1,0,0,,4,,,64,127
51711,note_off,99,0,0,,4,,,64,127
51711,note_off,0,0,0,,0,,,48,127
51712,note_on,1,0,0,,2,,,50,127
51712,note_on,0,0,0,,5,,,53,127
51712,note_on,0,0,0,,5,,,65,127
51811,note_off,99,0,0,,5,,,65,127
51812,note_on,1,0,0,,11,,,82,127
51911,note_off,99,0,0,,11,,,82,127
51911,note_off,0,0,0,,2,,,50,127
51912,note_on,1,0,0,,11,,,46,127
51912,note_on,0,0,0,,10,,,81,127
52011,note_off,99,0,0,,10,,,81,127
52012,note_on,1,0,0,,7,,,79,127
52111,note_off,99,0,0,,7,,,79,127
52111,note_off,0,0,0,,11,,,46,127
52112,note_on,1,0,0,,0,,,48,127
52112,note_on,0,0,0,,10,,,81,127
52211,note_off,99,0,0,,10,,,81,127
52212,note_on,1,0,0,,11,,,82,127
52311,note_off,99,0,0,,11,,,82,127
52312,note_on,1,0,0,,0,,,84,127
52411,note_off,99,0,0,,0,,,84,127
52412,note_on,1,0,0,,11,,,82,127
52511,note_off,99,0,0,,11,,,82,127
52511,note_off,0,0,0,,5,,,53,127
52512,note_on,1,0,0,,4,,,52,127
52512,note_on,0,0,0,,10,,,81,127
52611,note_off,99,0,0,,10,,,81,127
52612,note_on,1,0,0,,7,,,79,127
52711,note_off,99,0,0,,7,,,79,127
52712,note_on,1,0,0,,5,,,77,127
52811,note_off,99,0,0,,5,,,77,127
52812,note_on,1,0,0,,4,,,76,127
52911,note_off,99,0,0,,4,,,76,127
52911,note_off,0,0,0,,4,,,52,127
52911,note_off,0,0,0,,0,,,48,127
52912,note_on,1,0,0,,5,,,41,127
52912,note_on,0,0,0,,5,,,53,127
52912,note_on,0,0,0,,7,,,79,127
52961,note_off,49,0,0,,7,,,79,127
52962,note_on,1,0,0,,5,,,77,127
53011,note_off,49,0,0,,5,,,77,127
53012,note_on,1,0,0,,7,,,79,127
53061,note_off,49,0,0,,7,,,79,127
53062,note_on,1,0,0,,5,,,77,127
53979,note_off,917,0,0,,5,,,41,127
54113,note_off,134,0,0,,5,,,77,127
54113,note_off,0,0,0,,5,,,53,127
54114,note_on,1,0,0,,5,,,65,127
54114,note_on,0,0,0,,0,,,72,127
54114,note_on,0,0,0,,10,,,69,127
54114,note_on,0,0,0,,5,,,77,127
54514,note_off,400,0,0,,5,,,77,127
54514,note_off,0,0,0,,10,,,69,127
54514,note_off,0,0,0,,0,,,72,127
54514,note_off,0,0,0,,5,,,65,127
54515,note_on,1,0,0,,5,,,65,127
54515,note_on,0,0,0,,0,,,72,127
54515,note_on,0,0,0,,10,,,69,127
54515,note_on,0,0,0,,5,,,77,127
54915,note_off,400,0,0,,5,,,77,127
54915,note_off,0,0,0,,10,,,69,127
54915,note_off,0,0,0,,0,,,72,127
54915,note_off,0,0,0,,5,,,65,127
54916,note_on,1,0,0,,7,,,67,127
54916,note_on,0,0,0,,11,,,70,127
54916,note_on,0,0,0,,0,,,72,127
54916,note_on,0,0,0,,5,,,77,127
55316,note_off,400,0,0,,5,,,77,127
55316,note_off,0,0,0,,0,,,72,127
55316,note_off,0,0,0,,11,,,70,127
55316,note_off,0,0,0,,7,,,67,127
55317,note_on,1,0,0,,8,,,68,127
55317,note_on,0,0,0,,5,,,65,127
55317,note_on,0,0,0,,0,,,72,127
55317,note_on,0,0,0,,5,,,77,127
55516,note_off,199,0,0,,5,,,77,127
55517,note_on,1,0,0,,8,,,80,127
55616,note_off,99,0,0,,8,,,80,127
55617,note_on,1,0,0,,11,,,82,127
55666,note_off,49,0,0,,11,,,82,127
55667,note_on,1,0,0,,0,,,84,127
55716,note_off,49,0,0,,0,,,84,127
55716,note_off,0,0,0,,0,,,72,127
55716,note_off,0,0,0,,5,,,65,127
55716,note_off,0,0,0,,8,,,68,127
55717,note_on,1,0,0,,5,,,65,127
55717,note_on,0,0,0,,8,,,68,127
55717,note_on,0,0,0,,0,,,72,127
55717,note_on,0,0,0,,11,,,82,127
55816,note_off,99,0,0,,11,,,82,127
55817,note_on,1,0,0,,8,,,80,127
55916,note_off,99,0,0,,8,,,80,127
55917,note_on,1,0,0,,7,,,79,127
56016,note_off,99,0,0,,7,,,79,127
56017,note_on,1,0,0,,5,,,77,127
56116,note_off,99,0,0,,5,,,77,127
56116,note_off,0,0,0,,0,,,72,127
56116,note_off,0,0,0,,8,,,68,127
56116,note_off,0,0,0,,5,,,65,127
56117,note_on,1,0,0,,0,,,60,127
56117,note_on,0,0,0,,7,,,67,127
56117,note_on,0,0,0,,4,,,76,127
56216,note_off,99,0,0,,4,,,76,127
56217,note_on,1,0,0,,1,,,73,127
56316,note_off,99,0,0,,1,,,73,127
56317,note_on,1,0,0,,0,,,72,127
56416,note_off,99,0,0,,0,,,72,127
56417,note_on,1,0,0,,11,,,70,127
56516,note_off,99,0,0,,11,,,70,127
56516,note_off,0,0,0,,7,,,67,127
56516,note_off,0,0,0,,0,,,60,127
56517,note_on,1,0,0,,5,,,65,127
56517,note_on,0,0,0,,8,,,68,127
56716,note_off,199,0,0,,8,,,68,127
56717,note_on,1,0,0,,8,,,80,127
56816,note_off,99,0,0,,8,,,80,127
56817,note_on,1,0,0,,11,,,82,127
56866,note_off,49,0,0,,11,,,82,127
56867,note_on,1,0,0,,0,,,84,127
56916,note_off,49,0,0,,0,,,84,127
56916,note_off,0,0,0,,5,,,65,127
56917,note_on,1,0,0,,5,,,65,127
56917,note_on,0,0,0,,0,,,72,127
56917,note_on,0,0,0,,8,,,68,127
56917,note_on,0,0,0,,11,,,82,127
57016,note_off,99,0,0,,11,,,82,127
57017,note_on,1,0,0,,8,,,80,127
57116,note_off,99,0,0,,8,,,80,127
57117,note_on,1,0,0,,7,,,79,127
57216,note_off,99,0,0,,7,,,79,127
57217,note_on,1,0,0,,5,,,77,127
57316,note_off,99,0,0,,5,,,77,127
57316,note_off,0,0,0,,8,,,68,127
57316,note_off,0,0,0,,0,,,72,127
57316,note_off,0,0,0,,5,,,65,127
57317,note_on,1,0,0,,7,,,67,127
57317,note_on,0,0,0,,0,,,60,127
57317,note_on,0,0,0,,4,,,76,127
57416,note_off,99,0,0,,4,,,76,127
57417,note_on,1,0,0,,1,,,73,127
57516,note_off,99,0,0,,1,,,73,127
57517,note_on,1,0,0,,0,,,72,127
57616,note_off,99,0,0,,0,,,72,127
57617,note_on,1,0,0,,11,,,70,127
57716,note_off,99,0,0,,11,,,70,127
57716,note_off,0,0,0,,0,,,60,127
57716,note_off,0,0,0,,7,,,67,127
57717,note_on,1,0,0,,5,,,65,127
57717,note_on,0,0,0,,11,,,70,127
57816,note_off,99,0,0,,11,,,70,127
57817,note_on,1,0,0,,10,,,69,127
57916,note_off,99,0,0,,10,,,69,127
57917,note_on,1,0,0,,11,,,70,127
58016,note_off,99,0,0,,11,,,70,127
58017,note_on,1,0,0,,0,,,72,127
58116,note_off,99,0,0,,0,,,72,127
58116,note_off,0,0,0,,5,,,65,127
58117,note_on,1,0,0,,2,,,62,127
58117,note_on,0,0,0,,0,,,72,127
58216,note_off,99,0,0,,0,,,72,127
58217,note_on,1,0,0,,11,,,70,127
58316,note_off,99,0,0,,11,,,70,127
58317,note_on,1,0,0,,0,,,72,127
58416,note_off,99,0,0,,0,,,72,127
58417,note_on,1,0,0,,2,,,74,127
58516,note_off,99,0,0,,2,,,74,127
58516,note_off,0,0,0,,2,,,62,127
58517,note_on,1,0,0,,10,,,57,127
58517,note_on,0,0,0,,0,,,60,127
58517,note_on,0,0,0,,5,,,65,127
58517,note_on,0,0,0,,2,,,74,127
58616,note_off,99,0,0,,2,,,74,127
58617,note_on,1,0,0,,0,,,72,127
58716,note_off,99,0,0,,0,,,72,127
58717,note_on,1,0,0,,2,,,74,127
58816,note_off,99,0,0,,2,,,74,127
58817,note_on,1,0,0,,3,,,75,127
58916,note_off,99,0,0,,3,,,75,127
58916,note_off,0,0,0,,5,,,65,127
58916,note_off,0,0,0,,0,,,60,127
58916,note_off,0,0,0,,10,,,57,127
58917,note_on,1,0,0,,11,,,58,127
58917,note_on,0,0,0,,5,,,65,127
58917,note_on,0,0,0,,2,,,62,127
58917,note_on,0,0,0,,3,,,75,127
59016,note_off,99,0,0,,3,,,75,127
59017,note_on,1,0,0,,2,,,74,127
59116,note_off,99,0,0,,2,,,74,127
59117,note_on,1,0,0,,3,,,75,127
59216,note_off,99,0,0,,3,,,75,127
59217,note_on,1,0,0,,5,,,77,127
59316,note_off,99,0,0,,5,,,77,127
59316,note_off,0,0,0,,2,,,62,127
59316,note_off,0,0,0,,5,,,65,127
59316,note_off,0,0,0,,11,,,58,127
59317,note_on,1,0,0,,11,,,58,127
59317,note_on,0,0,0,,7,,,55,127
59317,note_on,0,0,0,,5,,,77,127
59416,note_off,99,0,0,,5,,,77,127
59417,note_on,1,0,0,,3,,,75,127
59516,note_off,99,0,0,,3,,,75,127
59517,note_on,1,0,0,,5,,,77,127
59616,note_off,99,0,0,,5,,,77,127
59617,note_on,1,0,0,,7,,,79,127
59716,note_off,99,0,0,,7,,,79,127
59716,note_off,0,0,0,,7,,,55,127
59716,note_off,0,0,0,,11,,,58,127
59717,note_on,1,0,0,,2,,,62,127
59717,note_on,0,0,0,,5,,,65,127
59717,note_on,0,0,0,,7,,,79,127
59816,note_off,99,0,0,,7,,,79,127
59817,note_on,1,0,0,,5,,,77,127
59916,note_off,99,0,0,,5,,,77,127
59917,note_on,1,0,0,,7,,,79,127
60016,note_off,99,0,0,,7,,,79,127
60017,note_on,1,0,0,,8,,,80,127
60116,note_off,99,0,0,,8,,,80,127
60116,note_off,0,0,0,,5,,,65,127
60116,note_off,0,0,0,,2,,,62,127
60117,note_on,1,0,0,,7,,,67,127
60117,note_on,0,0,0,,3,,,63,127
60117,note_on,0,0,0,,7,,,79,127
60216,note_off,99,0,0,,7,,,79,127
60217,note_on,1,0,0,,7,,,79,127
60316,note_off,99,0,0,,7,,,79,127
60317,note_on,1,0,0,,8,,,80,127
60416,note_off,99,0,0,,8,,,80,127
60417,note_on,1,0,0,,11,,,82,127
60516,note_off,99,0,0,,11,,,82,127
60516,note_off,0,0,0,,3,,,63,127
60516,note_off,0,0,0,,7,,,67,127
60517,note_on,1,0,0,,11,,,70,127
60517,note_on,0,0,0,,3,,,63,127
60517,note_on,0,0,0,,7,,,67,127
60517,note_on,0,0,0,,8,,,80,127
60616,note_off,99,0,0,,8,,,80,127
60617,note_on,1,0,0,,7,,,79,127
60716,note_off,99,0,0,,7,,,79,127
60717,note_on,1,0,0,,5,,,77,127
60816,note_off,99,0,0,,5,,,77,127
60817,note_on,1,0,0,,3,,,75,127
60916,note_off,99,0,0,,3,,,75,127
60916,note_off,0,0,0,,7,,,67,127
60916,note_off,0,0,0,,3,,,63,127
60916,note_off,0,0,0,,11,,,70,127
60917,note_on,1,0,0,,5,,,65,127
60917,note_on,0,0,0,,11,,,58,127
60917,note_on,0,0,0,,2,,,74,127
61016,note_off,99,0,0,,2,,,74,127
61017,note_on,1,0,0,,0,,,72,127
61116,note_off,99,0,0,,0,,,72,127
61117,note_on,1,0,0,,11,,,70,127
61216,note_off,99,0,0,,11,,,70,127
61217,note_on,1,0,0,,8,,,68,127
61316,note_off,99,0,0,,8,,,68,127
61316,note_off,0,0,0,,11,,,58,127
61316,note_off,0,0,0,,5,,,65,127
61317,note_on,1,0,0,,3,,,63,127
61317,note_on,0,0,0,,7,,,67,127
61516,note_off,199,0,0,,7,,,67,127
61517,note_on,1,0,0,,7,,,79,127
61616,note_off,99,0,0,,7,,,79,127
61617,note_on,1,0,0,,8,,,80,127
61666,note_off,49,0,0,,8,,,80,127
61667,note_on,1,0,0,,11,,,82,127
61716,note_off,49,0,0,,11,,,82,127
61716,note_off,0,0,0,,3,,,63,127
61717,note_on,1,0,0,,3,,,63,127
61717,note_on,0,0,0,,11,,,70,127
61717,note_on,0,0,0,,7,,,67,127
61717,note_on,0,0,0,,8,,,80,127
61816,note_off,99,0,0,,8,,,80,127
61817,note_on,1,0,0,,7,,,79,127
61916,note_off,99,0,0,,7,,,79,127
61917,note_on,1,0,0,,5,,,77,127
62016,note_off,99,0,0,,5,,,77,127
62017,note_on,1,0,0,,3,,,75,127
62116,note_off,99,0,0,,3,,,75,127
62116,note_off,0,0,0,,7,,,67,127
62116,note_off,0,0,0,,11,,,70,127
62116,note_off,0,0,0,,3,,,63,127
62117,note_on,1,0,0,,11,,,58,127
62117,note_on,0,0,0,,5,,,65,127
62117,note_on,0,0,0,,2,,,74,127
62216,note_off,99,0,0,,2,,,74,127
62217,note_on,1,0,0,,0,,,72,127
62316,note_off,99,0,0,,0,,,72,127
62317,note_on,1,0,0,,11,,,70,127
62416,note_off,99,0,0,,11,,,70,127
62417,note_on,1,0,0,,8,,,68,127
62516,note_off,99,0,0,,8,,,68,127
62516,note_off,0,0,0,,5,,,65,127
62516,note_off,0,0,0,,11,,,58,127
62517,note_on,1,0,0,,3,,,63,127
62517,note_on,0,0,0,,7,,,67,127
62616,note_off,99,0,0,,7,,,67,127
62617,note_on,1,0,0,,7,,,67,127
62716,note_off,99,0,0,,7,,,67,127
62717,note_on,1,0,0,,7,,,67,127
62816,note_off,99,0,0,,7,,,67,127
62817,note_on,1,0,0,,10,,,69,127
62916,note_off,99,0,0,,10,,,69,127
62916,note_off,0,0,0,,3,,,63,127
62917,note_on,1,0,0,,5,,,65,127
62917,note_on,0,0,0,,2,,,62,127
62917,note_on,0,0,0,,12,,,71,127
63016,note_off,99,0,0,,12,,,71,127
63017,note_on,1,0,0,,12,,,71,127
63116,note_off,99,0,0,,12,,,71,127
63117,note_on,1,0,0,,0,,,72,127
63216,note_off,99,0,0,,0,,,72,127
63217,note_on,1,0,0,,2,,,74,127
63316,note_off,99,0,0,,2,,,74,127
63316,note_off,0,0,0,,2,,,62,127
63316,note_off,0,0,0,,5,,,65,127
63317,note_on,1,0,0,,0,,,60,127
63317,note_on,0,0,0,,3,,,63,127
63317,note_on,0,0,0,,3,,,75,127
63416,note_off,99,0,0,,3,,,75,127
63417,note_on,1,0,0,,3,,,75,127
63516,note_off,99,0,0,,3,,,75,127
63517,note_on,1,0,0,,5,,,77,127
63616,note_off,99,0,0,,5,,,77,127
63617,note_on,1,0,0,,7,,,79,127
63716,note_off,99,0,0,,7,,,79,127
63716,note_off,0,0,0,,3,,,63,127
63716,note_off,0,0,0,,0,,,60,127
63717,note_on,1,0,0,,3,,,63,127
63717,note_on,0,0,0,,7,,,67,127
63816,note_off,99,0,0,,7,,,67,127
63817,note_on,1,0,0,,7,,,67,127
63916,note_off,99,0,0,,7,,,67,127
63917,note_on,1,0,0,,7,,,67,127
64016,note_off,99,0,0,,7,,,67,127
64017,note_on,1,0,0,,10,,,69,127
64116,note_off,99,0,0,,10,,,69,127
64116,note_off,0,0,0,,3,,,63,127
64117,note_on,1,0,0,,2,,,62,127
64117,note_on,0,0,0,,5,,,65,127
64117,note_on,0,0,0,,12,,,71,127
64216,note_off,99,0,0,,12,,,71,127
64217,note_on,1,0,0,,12,,,71,127
64316,note_off,99,0,0,,12,,,71,127
64317,note_on,1,0,0,,0,,,72,127
64416,note_off,99,0,0,,0,,,72,127
64417,note_on,1,0,0,,2,,,74,127
64516,note_off,99,0,0,,2,,,74,127
64516,note_off,0,0,0,,5,,,65,127
64516,note_off,0,0,0,,2,,,62,127
64517,note_on,1,0,0,,3,,,63,127
64517,note_on,0,0,0,,0,,,60,127
64517,note_on,0,0,0,,3,,,75,127
64616,note_off,99,0,0,,3,,,75,127
64617,note_on,1,0,0,,3,,,75,127
64716,note_off,99,0,0,,3,,,75,127
64717,note_on,1,0,0,,5,,,77,127
64816,note_off,99,0,0,,5,,,77,127
64817,note_on,1,0,0,,7,,,79,127
64916,note_off,99,0,0,,7,,,79,127
64916,note_off,0,0,0,,0,,,60,127
64916,note_off,0,0,0,,3,,,63,127
64917,note_on,1,0,0,,3,,,63,127
64917,note_on,0,0,0,,7,,,67,127
65016,note_off,99,0,0,,7,,,67,127
65017,note_on,1,0,0,,7,,,67,127
65116,note_off,99,0,0,,7,,,67,127
65117,note_on,1,0,0,,7,,,67,127
65216,note_off,99,0,0,,7,,,67,127
65217,note_on,1,0,0,,10,,,69,127
65316,note_off,99,0,0,,10,,,69,127
65316,note_off,0,0,0,,3,,,63,127
65317,note_on,1,0,0,,5,,,65,127
65317,note_on,0,0,0,,2,,,62,127
65317,note_on,0,0,0,,12,,,71,127
65416,note_off,99,0,0,,12,,,71,127
65417,note_on,1,0,0,,12,,,71,127
65516,note_off,99,0,0,,12,,,71,127
65517,note_on,1,0,0,,0,,,72,127
65616,note_off,99,0,0,,0,,,72,127
65617,note_on,1,0,0,,2,,,74,127
65716,note_off,99,0,0,,2,,,74,127
65716,note_off,0,0,0,,2,,,62,127
65716,note_off,0,0,0,,5,,,65,127
65717,note_on,1,0,0,,0,,,60,127
65717,note_on,0,0,0,,5,,,77,127
65766,note_off,49,0,0,,5,,,77,127
65767,note_on,1,0,0,,3,,,75,127
65816,note_off,49,0,0,,3,,,75,127
65817,note_on,1,0,0,,5,,,77,127
65866,note_off,49,0,0,,5,,,77,127
65867,note_on,1,0,0,,3,,,75,127
65916,note_off,49,0,0,,3,,,75,127
65917,note_on,1,0,0,,5,,,77,127
65966,note_off,49,0,0,,5,,,77,127
65967,note_on,1,0,0,,3,,,75,127
66016,note_off,49,0,0,,3,,,75,127
66017,note_on,1,0,0,,2,,,74,127
66066,note_off,49,0,0,,2,,,74,127
66067,note_on,1,0,0,,3,,,75,127
66116,note_off,49,0,0,,3,,,75,127
66116,note_off,0,0,0,,0,,,60,127
66117,note_on,1,0,0,,7,,,55,127
66117,note_on,0,0,0,,2,,,74,127
66216,note_off,99,0,0,,7,,,55,127
66217,note_on,1,0,0,,7,,,55,127
66316,note_off,99,0,0,,7,,,55,127
66317,note_on,1,0,0,,10,,,57,127
66416,note_off,99,0,0,,10,,,57,127
66417,note_on,1,0,0,,12,,,59,127
66516,note_off,99,0,0,,12,,,59,127
66516,note_off,0,0,0,,2,,,74,127
66517,note_on,1,0,0,,0,,,60,127
66517,note_on,0,0,0,,3,,,75,127
66616,note_off,99,0,0,,0,,,60,127
66617,note_on,1,0,0,,0,,,60,127
66716,note_off,99,0,0,,0,,,60,127
66717,note_on,1,0,0,,2,,,62,127
66816,note_off,99,0,0,,2,,,62,127
66817,note_on,1,0,0,,3,,,63,127
66916,note_off,99,0,0,,3,,,63,127
66916,note_off,0,0,0,,3,,,75,127
66917,note_on,1,0,0,,5,,,53,127
66917,note_on,0,0,0,,5,,,77,127
67016,note_off,99,0,0,,5,,,77,127
67016,note_off,0,0,0,,5,,,53,127
67017,note_on,1,0,0,,5,,,53,127
67017,note_on,0,0,0,,3,,,75,127
67116,note_off,99,0,0,,3,,,75,127
67116,note_off,0,0,0,,5,,,53,127
67117,note_on,1,0,0,,7,,,55,127
67117,note_on,0,0,0,,2,,,74,127
67216,note_off,99,0,0,,2,,,74,127
67216,note_off,0,0,0,,7,,,55,127
67217,note_on,1,0,0,,8,,,56,127
67217,note_on,0,0,0,,0,,,72,127
67316,note_off,99,0,0,,0,,,72,127
67316,note_off,0,0,0,,8,,,56,127
67317,note_on,1,0,0,,11,,,58,127
67317,note_on,0,0,0,,2,,,62,127
67317,note_on,0,0,0,,5,,,65,127
67317,note_on,0,0,0,,5,,,77,127
67317,note_on,0,0,0,,2,,,74,127
67416,note_off,99,0,0,,2,,,74,127
67417,note_on,1,0,0,,2,,,74,127
67516,note_off,99,0,0,,2,,,74,127
67517,note_on,1,0,0,,3,,,75,127
67616,note_off,99,0,0,,3,,,75,127
67616,note_off,0,0,0,,5,,,77,127
67617,note_on,1,0,0,,5,,,77,127
67716,note_off,99,0,0,,5,,,77,127
67716,note_off,0,0,0,,5,,,65,127
67716,note_off,0,0,0,,2,,,62,127
67716,note_off,0,0,0,,11,,,58,127
67717,note_on,1,0,0,,5,,,65,127
67717,note_on,0,0,0,,0,,,60,127
67717,note_on,0,0,0,,10,,,57,127
67717,note_on,0,0,0,,3,,,75,127
67717,note_on,0,0,0,,5,,,77,127
67816,note_off,99,0,0,,3,,,75,127
67817,note_on,1,0,0,,3,,,75,127
67916,note_off,99,0,0,,3,,,75,127
67917,note_on,1,0,0,,2,,,74,127
68016,note_off,99,0,0,,2,,,74,127
68017,note_on,1,0,0,,0,,,72,127
68116,note_off,99,0,0,,0,,,72,127
68116,note_off,0,0,0,,5,,,77,127
68116,note_off,0,0,0,,10,,,57,127
68116,note_off,0,0,0,,0,,,60,127
68116,note_off,0,0,0,,5,,,65,127
68117,note_on,1,0,0,,11,,,58,127
68117,note_on,0,0,0,,5,,,65,127
68117,note_on,0,0,0,,2,,,62,127
68117,note_on,0,0,0,,5,,,77,127
68117,note_on,0,0,0,,2,,,74,127
68216,note_off,99,0,0,,2,,,74,127
68217,note_on,1,0,0,,2,,,74,127
68316,note_off,99,0,0,,2,,,74,127
68317,note_on,1,0,0,,3,,,75,127
68416,note_off,99,0,0,,3,,,75,127
68416,note_off,0,0,0,,5,,,77,127
68417,note_on,1,0,0,,5,,,77,127
68516,note_off,99,0,0,,5,,,77,127
68516,note_off,0,0,0,,2,,,62,127
68516,note_off,0,0,0,,5,,,65,127
68516,note_off,0,0,0,,11,,,58,127
68517,note_on,1,0,0,,5,,,65,127
68517,note_on,0,0,0,,0,,,60,127
68517,note_on,0,0,0,,10,,,57,127
68517,note_on,0,0,0,,3,,,75,127
68517,note_on,0,0,0,,5,,,77,127
68616,note_off,99,0,0,,3,,,75,127
68617,note_on,1,0,0,,3,,,75,127
68716,note_off,99,0,0,,3,,,75,127
68717,note_on,1,0,0,,2,,,74,127
68816,note_off,99,0,0,,2,,,74,127
68817,note_on,1,0,0,,0,,,72,127
68916,note_off,99,0,0,,0,,,72,127
68916,note_off,0,0,0,,5,,,77,127
68916,note_off,0,0,0,,10,,,57,127
68916,note_off,0,0,0,,0,,,60,127
68916,note_off,0,0,0,,5,,,65,127
68917,note_on,1,0,0,,11,,,58,127
68917,note_on,0,0,0,,5,,,65,127
68917,note_on,0,0,0,,2,,,62,127
68917,note_on,0,0,0,,5,,,77,127
68917,note_on,0,0,0,,2,,,74,127
69016,note_off,99,0,0,,2,,,74,127
69017,note_on,1,0,0,,2,,,74,127
69116,note_off,99,0,0,,2,,,74,127
69117,note_on,1,0,0,,3,,,75,127
69216,note_off,99,0,0,,3,,,75,127
69216,note_off,0,0,0,,5,,,77,127
69217,note_on,1,0,0,,5,,,77,127
69316,note_off,99,0,0,,5,,,77,127
69316,note_off,0,0,0,,2,,,62,127
69316,note_off,0,0,0,,5,,,65,127
69316,note_off,0,0,0,,11,,,58,127
69317,note_on,1,0,0,,0,,,60,127
69317,note_on,0,0,0,,10,,,57,127
69317,note_on,0,0,0,,5,,,65,127
69317,note_on,0,0,0,,3,,,75,127
69317,note_on,0,0,0,,5,,,77,127
69416,note_off,99,0,0,,3,,,75,127
69417,note_on,1,0,0,,3,,,75,127
69516,note_off,99,0,0,,3,,,75,127
69517,note_on,1,0,0,,2,,,74,127
69616,note_off,99,0,0,,2,,,74,127
69617,note_on,1,0,0,,0,,,72,127
69716,note_off,99,0,0,,0,,,72,127
69716,note_off,0,0,0,,5,,,77,127
69716,note_off,0,0,0,,5,,,65,127
69716,note_off,0,0,0,,10,,,57,127
69716,note_off,0,0,0,,0,,,60,127
69717,note_on,1,0,0,,5,,,65,127
69717,note_on,0,0,0,,2,,,62,127
69717,note_on,0,0,0,,11,,,58,127
69717,note_on,0,0,0,,2,,,74,127
69717,note_on,0,0,0,,11,,,82,127
69816,note_off,99,0,0,,11,,,82,127
69816,note_off,0,0,0,,2,,,74,127
69817,note_on,1,0,0,,11,,,82,127
69916,note_off,99,0,0,,11,,,82,127
69917,note_on,1,0,0,,0,,,84,127
70016,note_off,99,0,0,,0,,,84,127
70017,note_on,1,0,0,,2,,,86,127
70116,note_off,99,0,0,,2,,,86,127
70116,note_off,0,0,0,,11,,,58,127
70116,note_off,0,0,0,,2,,,62,127
70116,note_off,0,0,0,,5,,,65,127
70117,note_on,1,0,0,,3,,,75,127
70117,note_on,0,0,0,,7,,,79,127
70216,note_off,99,0,0,,7,,,79,127
70217,note_on,1,0,0,,7,,,79,127
70316,note_off,99,0,0,,7,,,79,127
70317,note_on,1,0,0,,10,,,81,127
70416,note_off,99,0,0,,10,,,81,127
70417,note_on,1,0,0,,11,,,82,127
70516,note_off,99,0,0,,11,,,82,127
70516,note_off,0,0,0,,3,,,75,127
70517,note_on,1,0,0,,0,,,72,127
70517,note_on,0,0,0,,3,,,75,127
70616,note_off,99,0,0,,3,,,75,127
70617,note_on,1,0,0,,3,,,75,127
70716,note_off,99,0,0,,3,,,75,127
70717,note_on,1,0,0,,5,,,77,127
70816,note_off,99,0,0,,5,,,77,127
70817,note_on,1,0,0,,7,,,79,127
70916,note_off,99,0,0,,7,,,79,127
70916,note_off,0,0,0,,0,,,72,127
70917,note_on,1,0,0,,10,,,69,127
70917,note_on,0,0,0,,0,,,72,127
71016,note_off,99,0,0,,0,,,72,127
71017,note_on,1,0,0,,0,,,72,127
71116,note_off,99,0,0,,0,,,72,127
71117,note_on,1,0,0,,2,,,74,127
71216,note_off,99,0,0,,2,,,74,127
71217,note_on,1,0,0,,3,,,75,127
71316,note_off,99,0,0,,3,,,75,127
71316,note_off,0,0,0,,10,,,69,127
71317,note_on,1,0,0,,5,,,65,127
71317,note_on,0,0,0,,10,,,69,127
71416,note_off,99,0,0,,10,,,69,127
71417,note_on,1,0,0,,10,,,69,127
71516,note_off,99,0,0,,10,,,69,127
71517,note_on,1,0,0,,11,,,70,127
71616,note_off,99,0,0,,11,,,70,127
71617,note_on,1,0,0,,0,,,72,127
71716,note_off,99,0,0,,0,,,72,127
71716,note_off,0,0,0,,5,,,65,127
71717,note_on,1,0,0,,2,,,62,127
71717,note_on,0,0,0,,11,,,70,127
71816,note_off,99,0,0,,11,,,70,127
71817,note_on,1,0,0,,11,,,70,127
71916,note_off,99,0,0,,11,,,70,127
71917,note_on,1,0,0,,0,,,72,127
72016,note_off,99,0,0,,0,,,72,127
72017,note_on,1,0,0,,2,,,74,127
72116,note_off,99,0,0,,2,,,74,127
72116,note_off,0,0,0,,2,,,62,127
72117,note_on,1,0,0,,3,,,63,127
72117,note_on,0,0,0,,7,,,67,127
72216,note_off,99,0,0,,7,,,67,127
72217,note_on,1,0,0,,7,,,67,127
72316,note_off,99,0,0,,7,,,67,127
72317,note_on,1,0,0,,10,,,69,127
72416,note_off,99,0,0,,10,,,69,127
72417,note_on,1,0,0,,11,,,70,127
72516,note_off,99,0,0,,11,,,70,127
72516,note_off,0,0,0,,3,,,63,127
72517,note_on,1,0,0,,0,,,60,127
72517,note_on,0,0,0,,3,,,63,127
72616,note_off,99,0,0,,3,,,63,127
72617,note_on,1,0,0,,3,,,63,127
72716,note_off,99,0,0,,3,,,63,127
72717,note_on,1,0,0,,5,,,65,127
72816,note_off,99,0,0,,5,,,65,127
72817,note_on,1,0,0,,7,,,67,127
72916,note_off,99,0,0,,7,,,67,127
72916,note_off,0,0,0,,0,,,60,127
72917,note_on,1,0,0,,10,,,57,127
72917,note_on,0,0,0,,0,,,60,127
73016,note_off,99,0,0,,0,,,60,127
73017,note_on,1,0,0,,0,,,60,127
73116,note_off,99,0,0,,0,,,60,127
73117,note_on,1,0,0,,2,,,62,127
73216,note_off,99,0,0,,2,,,62,127
73217,note_on,1,0,0,,3,,,63,127
73316,note_off,99,0,0,,3,,,63,127
73316,note_off,0,0,0,,10,,,57,127
73317,note_on,1,0,0,,5,,,53,127
73317,note_on,0,0,0,,10,,,57,127
73416,note_off,99,0,0,,10,,,57,127
73417,note_on,1,0,0,,10,,,57,127
73516,note_off,99,0,0,,10,,,57,127
73517,note_on,1,0,0,,11,,,58,127
73616,note_off,99,0,0,,11,,,58,127
73617,note_on,1,0,0,,0,,,60,127
73716,note_off,99,0,0,,0,,,60,127
73716,note_off,0,0,0,,5,,,53,127
73717,note_on,1,0,0,,2,,,50,127
73717,note_on,0,0,0,,5,,,53,127
73816,note_off,99,0,0,,5,,,53,127
73817,note_on,1,0,0,,5,,,53,127
73916,note_off,99,0,0,,5,,,53,127
73917,note_on,1,0,0,,7,,,55,127
74016,note_off,99,0,0,,7,,,55,127
74017,note_on,1,0,0,,10,,,57,127
74116,note_off,99,0,0,,10,,,57,127
74116,note_off,0,0,0,,2,,,50,127
74117,note_on,1,0,0,,11,,,46,127
74117,note_on,0,0,0,,11,,,58,127
74117,note_on,0,0,0,,11,,,82,127
74216,note_off,99,0,0,,11,,,82,127
74217,note_on,1,0,0,,10,,,81,127
74316,note_off,99,0,0,,10,,,81,127
74317,note_on,1,0,0,,7,,,79,127
74416,note_off,99,0,0,,7,,,79,127
74417,note_on,1,0,0,,5,,,77,127
74516,note_off,99,0,0,,5,,,77,127
74516,note_off,0,0,0,,11,,,46,127
74517,note_on,1,0,0,,3,,,51,127
74517,note_on,0,0,0,,3,,,75,127
74616,note_off,99,0,0,,3,,,75,127
74617,note_on,1,0,0,,2,,,74,127
74716,note_off,99,0,0,,2,,,74,127
74717,note_on,1,0,0,,0,,,72,127
74816,note_off,99,0,0,,0,,,72,127
74817,note_on,1,0,0,,11,,,70,127
74916,note_off,99,0,0,,3,,,51,127
74917,note_on,1,0,0,,5,,,53,127
75016,note_off,99,0,0,,11,,,70,127
75017,note_on,1,0,0,,0,,,72,127
75116,note_off,99,0,0,,0,,,72,127
75117,note_on,1,0,0,,11,,,70,127
75216,note_off,99,0,0,,11,,,70,127
75217,note_on,1,0,0,,0,,,72,127
75316,note_off,99,0,0,,0,,,72,127
75316,note_off,0,0,0,,11,,,58,127
75317,note_on,1,0,0,,10,,,57,127
75317,note_on,0,0,0,,2,,,74,127
75366,note_off,49,0,0,,2,,,74,127
75367,note_on,1,0,0,,0,,,72,127
75416,note_off,49,0,0,,0,,,72,127
75417,note_on,1,0,0,,2,,,74,127
75466,note_off,49,0,0,,2,,,74,127
75467,note_on,1,0,0,,0,,,72,127
75516,note_off,49,0,0,,0,,,72,127
75517,note_on,1,0,0,,2,,,74,127
75566,note_off,49,0,0,,2,,,74,127
75567,note_on,1,0,0,,0,,,72,127
75616,note_off,49,0,0,,0,,,72,127
75617,note_on,1,0,0,,11,,,70,127
75716,note_off,99,0,0,,11,,,70,127
75716,note_off,0,0,0,,10,,,57,127
75716,note_off,0,0,0,,5,,,53,127
75717,note_on,1,0,0,,11,,,58,127
75717,note_on,0,0,0,,11,,,46,127
75717,note_on,0,0,0,,2,,,74,127
75717,note_on,0,0,0,,11,,,82,127
75816,note_off,99,0,0,,11,,,82,127
75817,note_on,1,0,0,,11,,,82,127
75915,note_off,98,0,0,,2,,,74,127
75916,note_off,1,0,0,,11,,,82,127
75917,note_on,1,0,0,,0,,,84,127
76016,note_off,99,0,0,,0,,,84,127
76017,note_on,1,0,0,,2,,,86,127
76116,note_off,99,0,0,,2,,,86,127
76116,note_off,0,0,0,,11,,,46,127
76116,note_off,0,0,0,,11,,,58,127
76117,note_on,1,0,0,,3,,,75,127
76117,note_on,0,0,0,,7,,,79,127
76216,note_off,99,0,0,,7,,,79,127
76217,note_on,1,0,0,,7,,,79,127
76316,note_off,99,0,0,,7,,,79,127
76317,note_on,1,0,0,,10,,,81,127
76416,note_off,99,0,0,,10,,,81,127
76417,note_on,1,0,0,,11,,,82,127
76516,note_off,99,0,0,,11,,,82,127
76516,note_off,0,0,0,,3,,,75,127
76517,note_on,1,0,0,,0,,,72,127
76517,note_on,0,0,0,,3,,,75,127
76616,note_off,99,0,0,,3,,,75,127
76617,note_on,1,0,0,,3,,,75,127
76716,note_off,99,0,0,,3,,,75,127
76717,note_on,1,0,0,,5,,,77,127
76816,note_off,99,0,0,,5,,,77,127
76817,note_on,1,0,0,,7,,,79,127
76916,note_off,99,0,0,,7,,,79,127
76916,note_off,0,0,0,,0,,,72,127
76917,note_on,1,0,0,,10,,,69,127
76917,note_on,0,0,0,,0,,,72,127
77016,note_off,99,0,0,,0,,,72,127
77017,note_on,1,0,0,,0,,,72,127
77116,note_off,99,0,0,,0,,,72,127
77117,note_on,1,0,0,,2,,,74,127
77216,note_off,99,0,0,,2,,,74,127
77217,note_on,1,0,0,,3,,,75,127
77316,note_off,99,0,0,,3,,,75,127
77316,note_off,0,0,0,,10,,,69,127
77317,note_on,1,0,0,,5,,,65,127
77317,note_on,0,0,0,,10,,,69,127
77416,note_off,99,0,0,,10,,,69,127
77417,note_on,1,0,0,,10,,,69,127
77516,note_off,99,0,0,,10,,,69,127
77517,note_on,1,0,0,,11,,,70,127
77616,note_off,99,0,0,,11,,,70,127
77617,note_on,1,0,0,,0,,,72,127
77716,note_off,99,0,0,,0,,,72,127
77716,note_off,0,0,0,,5,,,65,127
77717,note_on,1,0,0,,2,,,62,127
77717,note_on,0,0,0,,11,,,70,127
77816,note_off,99,0,0,,11,,,70,127
77817,note_on,1,0,0,,11,,,70,127
77916,note_off,99,0,0,,11,,,70,127
77917,note_on,1,0,0,,0,,,72,127
78016,note_off,99,0,0,,0,,,72,127
78017,note_on,1,0,0,,2,,,74,127
78116,note_off,99,0,0,,2,,,74,127
78116,note_off,0,0,0,,2,,,62,127
78117,note_on,1,0,0,,3,,,63,127
78117,note_on,0,0,0,,7,,,67,127
78216,note_off,99,0,0,,7,,,67,127
78217,note_on,1,0,0,,7,,,67,127
78316,note_off,99,0,0,,7,,,67,127
78317,note_on,1,0,0,,10,,,69,127
78416,note_off,99,0,0,,10,,,69,127
78417,note_on,1,0,0,,11,,,70,127
78516,note_off,99,0,0,,11,,,70,127
78516,note_off,0,0,0,,3,,,63,127
78517,note_on,1,0,0,,0,,,60,127
78517,note_on,0,0,0,,3,,,63,127
78616,note_off,99,0,0,,3,,,63,127
78617,note_on,1,0,0,,3,,,63,127
78716,note_off,99,0,0,,3,,,63,127
78717,note_on,1,0,0,,5,,,65,127
78816,note_off,99,0,0,,5,,,65,127
78817,note_on,1,0,0,,7,,,67,127
78916,note_off,99,0,0,,7,,,67,127
78916,note_off,0,0,0,,0,,,60,127
78917,note_on,1,0,0,,10,,,57,127
78917,note_on,0,0,0,,0,,,60,127
79016,note_off,99,0,0,,0,,,60,127
79017,note_on,1,0,0,,0,,,60,127
79116,note_off,99,0,0,,0,,,60,127
79117,note_on,1,0,0,,2,,,62,127
79216,note_off,99,0,0,,2,,,62,127
79217,note_on,1,0,0,,3,,,63,127
79316,note_off,99,0,0,,3,,,63,127
79316,note_off,0,0,0,,10,,,57,127
79317,note_on,1,0,0,,5,,,53,127
79317,note_on,0,0,0,,10,,,57,127
79416,note_off,99,0,0,,10,,,57,127
79417,note_on,1,0,0,,10,,,57,127
79516,note_off,99,0,0,,10,,,57,127
79517,note_on,1,0,0,,11,,,58,127
79616,note_off,99,0,0,,11,,,58,127
79617,note_on,1,0,0,,0,,,60,127
79716,note_off,99,0,0,,0,,,60,127
79716,note_off,0,0,0,,5,,,53,127
79717,note_on,1,0,0,,2,,,50,127
79717,note_on,0,0,0,,5,,,53,127
79816,note_off,99,0,0,,5,,,53,127
79817,note_on,1,0,0,,5,,,53,127
79916,note_off,99,0,0,,5,,,53,127
79917,note_on,1,0,0,,7,,,55,127
80016,note_off,99,0,0,,7,,,55,127
80017,note_on,1,0,0,,10,,,57,127
80116,note_off,99,0,0,,10,,,57,127
80116,note_off,0,0,0,,2,,,50,127
80117,note_on,1,0,0,,11,,,46,127
80117,note_on,0,0,0,,11,,,58,127
80117,note_on,0,0,0,,11,,,82,127
80216,note_off,99,0,0,,11,,,82,127
80217,note_on,1,0,0,,10,,,81,127
80316,note_off,99,0,0,,10,,,81,127
80317,note_on,1,0,0,,7,,,79,127
80416,note_off,99,0,0,,7,,,79,127
80417,note_on,1,0,0,,5,,,77,127
80516,note_off,99,0,0,,5,,,77,127
80516,note_off,0,0,0,,11,,,46,127
80517,note_on,1,0,0,,3,,,51,127
80517,note_on,0,0,0,,3,,,75,127
80616,note_off,99,0,0,,3,,,75,127
80617,note_on,1,0,0,,2,,,74,127
80716,note_off,99,0,0,,2,,,74,127
80717,note_on,1,0,0,,0,,,72,127
80816,note_off,99,0,0,,0,,,72,127
80817,note_on,1,0,0,,11,,,70,127
80916,note_off,99,0,0,,3,,,51,127
80917,note_on,1,0,0,,5,,,53,127
81016,note_off,99,0,0,,11,,,70,127
81017,note_on,1,0,0,,0,,,72,127
81116,note_off,99,0,0,,0,,,72,127
81117,note_on,1,0,0,,11,,,70,127
81216,note_off,99,0,0,,11,,,70,127
81217,note_on,1,0,0,,0,,,72,127
81316,note_off,99,0,0,,0,,,72,127
81316,note_off,0,0,0,,11,,,58,127
81317,note_on,1,0,0,,10,,,57,127
81317,note_on,0,0,0,,2,,,74,127
81366,note_off,49,0,0,,2,,,74,127
81367,note_on,1,0,0,,0,,,72,127
81416,note_off,49,0,0,,0,,,72,127
81417,note_on,1,0,0,,2,,,74,127
81466,note_off,49,0,0,,2,,,74,127
81467,note_on,1,0,0,,0,,,72,127
81516,note_off,49,0,0,,0,,,72,127
81517,note_on,1,0,0,,2,,,74,127
81566,note_off,49,0,0,,2,,,74,127
81567,note_on,1,0,0,,0,,,72,127
81616,note_off,49,0,0,,0,,,72,127
81617,note_on,1,0,0,,11,,,70,127
81716,note_off,99,0,0,,11,,,70,127
81716,note_off,0,0,0,,10,,,57,127
81716,note_off,0,0,0,,5,,,53,127
81717,note_on,1,0,0,,11,,,46,127
81717,note_on,0,0,0,,11,,,58,127
81717,note_on,0,0,0,,11,,,70,127
81916,note_off,199,0,0,,11,,,70,127
81917,note_on,1,0,0,,5,,,77,127
82116,note_off,199,0,0,,5,,,77,127
82117,note_on,1,0,0,,3,,,75,127
82216,note_off,99,0,0,,3,,,75,127
82217,note_on,1,0,0,,2,,,74,127
82316,note_off,99,0,0,,2,,,74,127
82317,note_on,1,0,0,,0,,,72,127
82416,note_off,99,0,0,,0,,,72,127
82417,note_on,1,0,0,,11,,,70,127
82516,note_off,99,0,0,,11,,,58,127
82516,note_off,0,0,0,,11,,,46,127
82517,note_on,1,0,0,,2,,,50,127
82517,note_on,0,0,0,,11,,,58,127
82616,note_off,99,0,0,,11,,,70,127
82617,note_on,1,0,0,,8,,,68,127
82716,note_off,99,0,0,,8,,,68,127
82717,note_on,1,0,0,,7,,,67,127
82816,note_off,99,0,0,,7,,,67,127
82817,note_on,1,0,0,,6,,,66,127
82916,note_off,99,0,0,,6,,,66,127
82916,note_off,0,0,0,,2,,,50,127
82917,note_on,1,0,0,,3,,,51,127
82917,note_on,0,0,0,,7,,,79,127
83016,note_off,99,0,0,,7,,,79,127
83017,note_on,1,0,0,,3,,,75,127
83116,note_off,99,0,0,,3,,,75,127
83117,note_on,1,0,0,,2,,,74,127
83216,note_off,99,0,0,,2,,,74,127
83217,note_on,1,0,0,,0,,,72,127
83316,note_off,99,0,0,,0,,,72,127
83316,note_off,0,0,0,,3,,,51,127
83317,note_on,1,0,0,,5,,,53,127
83317,note_on,0,0,0,,11,,,70,127
83416,note_off,99,0,0,,11,,,70,127
83417,note_on,1,0,0,,10,,,69,127
83516,note_off,99,0,0,,10,,,69,127
83517,note_on,1,0,0,,11,,,70,127
83616,note_off,99,0,0,,11,,,70,127
83617,note_on,1,0,0,,0,,,72,127
83716,note_off,99,0,0,,0,,,72,127
83716,note_off,0,0,0,,11,,,58,127
83717,note_on,1,0,0,,10,,,57,127
83717,note_on,0,0,0,,2,,,74,127
83766,note_off,49,0,0,,2,,,74,127
83767,note_on,1,0,0,,0,,,72,127
83816,note_off,49,0,0,,0,,,72,127
83817,note_on,1,0,0,,2,,,74,127
83866,note_off,49,0,0,,2,,,74,127
83867,note_on,1,0,0,,0,,,72,127
83916,note_off,49,0,0,,0,,,72,127
83917,note_on,1,0,0,,2,,,74,127
83966,note_off,49,0,0,,2,,,74,127
83967,note_on,1,0,0,,0,,,72,127
84016,note_off,49,0,0,,0,,,72,127
84017,note_on,1,0,0,,11,,,70,127
84066,note_off,49,0,0,,11,,,70,127
84067,note_on,1,0,0,,0,,,72,127
84116,note_off,49,0,0,,0,,,72,127
84116,note_off,0,0,0,,10,,,57,127
84116,note_off,0,0,0,,5,,,53,127
84117,note_on,1,0,0,,11,,,46,127
84117,note_on,0,0,0,,11,,,58,127
84117,note_on,0,0,0,,2,,,74,127
84316,note_off,199,0,0,,2,,,74,127
84317,note_on,1,0,0,,5,,,77,127
84516,note_off,199,0,0,,5,,,77,127
84517,note_on,1,0,0,,3,,,75,127
84616,note_off,99,0,0,,3,,,75,127
84617,note_on,1,0,0,,2,,,74,127
84716,note_off,99,0,0,,2,,,74,127
84716,note_off,0,0,0,,11,,,46,127
84717,note_on,1,0,0,,0,,,72,127
84816,note_off,99,0,0,,0,,,72,127
84817,note_on,1,0,0,,11,,,70,127
84916,note_off,99,0,0,,11,,,58,127
84917,note_on,1,0,0,,2,,,50,127
84917,note_on,0,0,0,,11,,,58,127
85016,note_off,99,0,0,,11,,,70,127
85017,note_on,1,0,0,,8,,,68,127
85116,note_off,99,0,0,,8,,,68,127
85117,note_on,1,0,0,,7,,,67,127
85216,note_off,99,0,0,,7,,,67,127
85217,note_on,1,0,0,,6,,,66,127
85316,note_off,99,0,0,,6,,,66,127
85316,note_off,0,0,0,,2,,,50,127
85317,note_on,1,0,0,,3,,,51,127
85317,note_on,0,0,0,,7,,,79,127
85416,note_off,99,0,0,,7,,,79,127
85417,note_on,1,0,0,,3,,,75,127
85516,note_off,99,0,0,,3,,,75,127
85517,note_on,1,0,0,,2,,,74,127
85616,note_off,99,0,0,,2,,,74,127
85617,note_on,1,0,0,,0,,,72,127
85716,note_off,99,0,0,,0,,,72,127
85716,note_off,0,0,0,,3,,,51,127
85717,note_on,1,0,0,,5,,,53,127
85717,note_on,0,0,0,,11,,,70,127
85816,note_off,99,0,0,,11,,,70,127
85817,note_on,1,0,0,,10,,,69,127
85916,note_off,99,0,0,,10,,,69,127
85917,note_on,1,0,0,,11,,,70,127
86016,note_off,99,0,0,,11,,,70,127
86017,note_on,1,0,0,,0,,,72,127
86116,note_off,99,0,0,,0,,,72,127
86116,note_off,0,0,0,,11,,,58,127
86117,note_on,1,0,0,,10,,,57,127
86117,note_on,0,0,0,,2,,,74,127
86166,note_off,49,0,0,,2,,,74,127
86167,note_on,1,0,0,,0,,,72,127
86216,note_off,49,0,0,,0,,,72,127
86217,note_on,1,0,0,,2,,,74,127
86266,note_off,49,0,0,,2,,,74,127
86267,note_on,1,0,0,,0,,,72,127
86316,note_off,49,0,0,,0,,,72,127
86317,note_on,1,0,0,,2,,,74,127
86366,note_off,49,0,0,,2,,,74,127
86367,note_on,1,0,0,,0,,,72,127
86416,note_off,49,0,0,,0,,,72,127
86417,note_on,1,0,0,,11,,,70,127
86516,note_off,99,0,0,,11,,,70,127
86516,note_off,0,0,0,,10,,,57,127
86516,note_off,0,0,0,,5,,,53,127
86517,note_on,1,0,0,,11,,,46,127
86517,note_on,0,0,0,,11,,,70,127
86616,note_off,99,0,0,,11,,,70,127
86616,note_off,0,0,0,,11,,,46,127
86617,note_on,1,0,0,,2,,,62,127
86617,note_on,0,0,0,,11,,,82,127
86716,note_off,99,0,0,,11,,,82,127
86716,note_off,0,0,0,,2,,,62,127
86717,note_on,1,0,0,,0,,,60,127
86717,note_on,0,0,0,,11,,,70,127
86816,note_off,99,0,0,,11,,,70,127
86816,note_off,0,0,0,,0,,,60,127
86817,note_on,1,0,0,,11,,,58,127
86817,note_on,0,0,0,,0,,,72,127
86916,note_off,99,0,0,,0,,,72,127
86916,note_off,0,0,0,,11,,,58,127
86917,note_on,1,0,0,,11,,,46,127
86917,note_on,0,0,0,,11,,,70,127
87016,note_off,99,0,0,,11,,,70,127
87016,note_off,0,0,0,,11,,,46,127
87017,note_on,1,0,0,,2,,,62,127
87017,note_on,0,0,0,,11,,,82,127
87116,note_off,99,0,0,,11,,,82,127
87116,note_off,0,0,0,,2,,,62,127
87117,note_on,1,0,0,,0,,,60,127
87117,note_on,0,0,0,,11,,,70,127
87216,note_off,99,0,0,,11,,,70,127
87216,note_off,0,0,0,,0,,,60,127
87217,note_on,1,0,0,,11,,,58,127
87217,note_on,0,0,0,,0,,,72,127
87316,note_off,99,0,0,,0,,,72,127
87316,note_off,0,0,0,,11,,,58,127
87317,note_on,1,0,0,,11,,,46,127
87317,note_on,0,0,0,,11,,,70,127
87416,note_off,99,0,0,,11,,,70,127
87416,note_off,0,0,0,,11,,,46,127
87417,note_on,1,0,0,,2,,,62,127
87417,note_on,0,0,0,,11,,,82,127
87516,note_off,99,0,0,,11,,,82,127
87516,note_off,0,0,0,,2,,,62,127
87517,note_on,1,0,0,,0,,,60,127
87517,note_on,0,0,0,,11,,,70,127
87616,note_off,99,0,0,,11,,,70,127
87616,note_off,0,0,0,,0,,,60,127
87617,note_on,1,0,0,,11,,,58,127
87617,note_on,0,0,0,,0,,,72,127
87716,note_off,99,0,0,,0,,,72,127
87716,note_off,0,0,0,,11,,,58,127
87717,note_on,1,0,0,,11,,,46,127
87717,note_on,0,0,0,,2,,,74,127
87816,note_off,99,0,0,,2,,,74,127
87817,note_on,1,0,0,,5,,,77,127
87916,note_off,99,0,0,,5,,,77,127
87917,note_on,1,0,0,,3,,,75,127
88016,note_off,99,0,0,,3,,,75,127
88017,note_on,1,0,0,,2,,,74,127
88116,note_off,99,0,0,,2,,,74,127
88116,note_off,0,0,0,,11,,,46,127
88117,note_on,1,0,0,,3,,,51,127
88117,note_on,0,0,0,,3,,,75,127
88216,note_off,99,0,0,,3,,,75,127
88217,note_on,1,0,0,,7,,,79,127
88316,note_off,99,0,0,,7,,,79,127
88317,note_on,1,0,0,,5,,,77,127
88416,note_off,99,0,0,,5,,,77,127
88417,note_on,1,0,0,,3,,,75,127
88516,note_off,99,0,0,,3,,,75,127
88516,note_off,0,0,0,,3,,,51,127
88517,note_on,1,0,0,,5,,,53,127
88517,note_on,0,0,0,,2,,,74,127
88616,note_off,99,0,0,,2,,,74,127
88617,note_on,1,0,0,,0,,,72,127
88716,note_off,99,0,0,,0,,,72,127
88717,note_on,1,0,0,,11,,,70,127
88816,note_off,99,0,0,,11,,,70,127
88817,note_on,1,0,0,,10,,,69,127
88916,note_off,99,0,0,,10,,,69,127
88916,note_off,0,0,0,,5,,,53,127
88917,note_on,1,0,0,,11,,,46,127
88917,note_on,0,0,0,,11,,,70,127
89016,note_off,99,0,0,,11,,,46,127
89017,note_on,1,0,0,,2,,,62,127
89017,note_on,0,0,0,,11,,,82,127
89115,note_off,98,0,0,,11,,,70,127
89116,note_off,1,0,0,,11,,,82,127
89116,note_off,0,0,0,,2,,,62,127
89117,note_on,1,0,0,,0,,,60,127
89117,note_on,0,0,0,,11,,,70,127
89216,note_off,99,0,0,,11,,,70,127
89216,note_off,0,0,0,,0,,,60,127
89217,note_on,1,0,0,,11,,,58,127
89217,note_on,0,0,0,,0,,,72,127
89316,note_off,99,0,0,,0,,,72,127
89316,note_off,0,0,0,,11,,,58,127
89317,note_on,1,0,0,,11,,,46,127
89317,note_on,0,0,0,,11,,,70,127
89416,note_off,99,0,0,,11,,,46,127
89417,note_on,1,0,0,,2,,,62,127
89417,note_on,0,0,0,,11,,,82,127
89515,note_off,98,0,0,,11,,,70,127
89516,note_off,1,0,0,,11,,,82,127
89516,note_off,0,0,0,,2,,,62,127
89517,note_on,1,0,0,,0,,,60,127
89517,note_on,0,0,0,,11,,,70,127
89616,note_off,99,0,0,,11,,,70,127
89616,note_off,0,0,0,,0,,,60,127
89617,note_on,1,0,0,,11,,,58,127
89617,note_on,0,0,0,,0,,,72,127
89716,note_off,99,0,0,,0,,,72,127
89716,note_off,0,0,0,,11,,,58,127
89717,note_on,1,0,0,,11,,,46,127
89717,note_on,0,0,0,,11,,,70,127
89816,note_off,99,0,0,,11,,,46,127
89817,note_on,1,0,0,,2,,,62,127
89817,note_on,0,0,0,,11,,,82,127
89915,note_off,98,0,0,,11,,,70,127
89916,note_off,1,0,0,,11,,,82,127
89916,note_off,0,0,0,,2,,,62,127
89917,note_on,1,0,0,,0,,,60,127
89917,note_on,0,0,0,,11,,,70,127
90016,note_off,99,0,0,,11,,,70,127
90016,note_off,0,0,0,,0,,,60,127
90017,note_on,1,0,0,,11,,,58,127
90017,note_on,0,0,0,,0,,,72,127
90116,note_off,99,0,0,,0,,,72,127
90116,note_off,0,0,0,,11,,,58,127
90117,note_on,1,0,0,,11,,,46,127
90117,note_on,0,0,0,,2,,,74,127
90216,note_off,99,0,0,,2,,,74,127
90217,note_on,1,0,0,,5,,,77,127
90316,note_off,99,0,0,,5,,,77,127
90317,note_on,1,0,0,,3,,,75,127
90416,note_off,99,0,0,,3,,,75,127
90417,note_on,1,0,0,,2,,,74,127
90516,note_off,99,0,0,,2,,,74,127
90516,note_off,0,0,0,,11,,,46,127
90517,note_on,1,0,0,,3,,,51,127
90517,note_on,0,0,0,,3,,,75,127
90616,note_off,99,0,0,,3,,,75,127
90617,note_on,1,0,0,,7,,,79,127
90716,note_off,99,0,0,,7,,,79,127
90717,note_on,1,0,0,,5,,,77,127
90816,note_off,99,0,0,,5,,,77,127
90817,note_on,1,0,0,,3,,,75,127
90916,note_off,99,0,0,,3,,,75,127
90916,note_off,0,0,0,,3,,,51,127
90917,note_on,1,0,0,,5,,,53,127
90917,note_on,0,0,0,,2,,,74,127
91016,note_off,99,0,0,,2,,,74,127
91017,note_on,1,0,0,,0,,,72,127
91116,note_off,99,0,0,,0,,,72,127
91117,note_on,1,0,0,,11,,,70,127
91216,note_off,99,0,0,,11,,,70,127
91217,note_on,1,0,0,,10,,,69,127
91316,note_off,99,0,0,,10,,,69,127
91316,note_off,0,0,0,,5,,,53,127
91317,note_on,1,0,0,,7,,,55,127
91317,note_on,0,0,0,,11,,,58,127
91317,note_on,0,0,0,,11,,,70,127
91416,note_off,99,0,0,,11,,,70,127
91417,note_on,1,0,0,,7,,,67,127
91516,note_off,99,0,0,,7,,,67,127
91516,note_off,0,0,0,,7,,,55,127
91517,note_on,1,0,0,,3,,,51,127
91517,note_on,0,0,0,,5,,,65,127
91616,note_off,99,0,0,,5,,,65,127
91617,note_on,1,0,0,,3,,,63,127
91716,note_off,99,0,0,,3,,,63,127
91716,note_off,0,0,0,,3,,,51,127
91717,note_on,1,0,0,,5,,,53,127
91717,note_on,0,0,0,,2,,,62,127
91816,note_off,99,0,0,,2,,,62,127
91817,note_on,1,0,0,,3,,,63,127
91916,note_off,99,0,0,,3,,,63,127
91916,note_off,0,0,0,,11,,,58,127
91917,note_on,1,0,0,,5,,,65,127
92016,note_off,99,0,0,,5,,,65,127
92017,note_on,1,0,0,,3,,,63,127
92116,note_off,99,0,0,,3,,,63,127
92117,note_on,1,0,0,,5,,,41,127
92117,note_on,0,0,0,,2,,,62,127
92216,note_off,99,0,0,,2,,,62,127
92217,note_on,1,0,0,,0,,,60,127
92316,note_off,99,0,0,,0,,,60,127
92317,note_on,1,0,0,,11,,,58,127
92416,note_off,99,0,0,,11,,,58,127
92417,note_on,1,0,0,,10,,,57,127
92516,note_off,99,0,0,,10,,,57,127
92516,note_off,0,0,0,,5,,,41,127
92516,note_off,0,0,0,,5,,,53,127
92517,note_on,1,0,0,,11,,,46,127
92517,note_on,0,0,0,,0,,,60,127
92566,note_off,49,0,0,,0,,,60,127
92567,note_on,1,0,0,,11,,,58,127
92616,note_off,49,0,0,,11,,,58,127
92617,note_on,1,0,0,,0,,,60,127
92666,note_off,49,0,0,,0,,,60,127
92667,note_on,1,0,0,,11,,,58,127
94320,note_off,1653,0,0,,11,,,58,127
94320,note_off,0,0,0,,11,,,46,127
95232,end_of_track,912,1,0,,,,,,
