tick,type,time,meta,track,program,channel,pitch,tempo,note,velocity
0,copyright,0,1,0,,,,,,
0,program_change,0,0,0,6,0,,,,
0,pitchwheel,0,0,0,,0,0,,,
0,program_change,0,0,0,6,1,,,,
0,pitchwheel,0,0,0,,1,-590,,,
0,program_change,0,0,0,6,2,,,,
0,pitchwheel,0,0,0,,2,-272,,,
0,program_change,0,0,0,6,3,,,,
0,pitchwheel,0,0,0,,3,-353,,,
0,program_change,0,0,0,6,4,,,,
0,pitchwheel,0,0,0,,4,-560,,,
0,program_change,0,0,0,6,5,,,,
0,pitchwheel,0,0,0,,5,-80,,,
0,program_change,0,0,0,6,6,,,,
0,pitchwheel,0,0,0,,6,-625,,,
0,program_change,0,0,0,6,7,,,,
0,pitchwheel,0,0,0,,7,-130,,,
0,program_change,0,0,0,6,8,,,,
0,pitchwheel,0,0,0,,8,-512,,,
0,program_change,0,0,0,6,10,,,,
0,pitchwheel,0,0,0,,10,-464,,,
0,program_change,0,0,0,6,11,,,,
0,pitchwheel,0,0,0,,11,-208,,,
0,program_change,0,0,0,6,12,,,,
0,pitchwheel,0,0,0,,12,-553,,,
0,set_tempo,0,1,0,,,,500000,,
120,note_on,120,0,0,,7,,,79,127
121,note_on,1,0,0,,5,,,77,127
200,note_off,79,0,0,,7,,,79,127
240,note_on,40,0,0,,4,,,76,127
250,note_off,10,0,0,,5,,,77,127
359,note_off,109,0,0,,4,,,76,127
360,note_on,1,0,0,,5,,,77,127
479,note_off,119,0,0,,5,,,77,127
480,note_on,1,0,0,,7,,,79,127
599,note_off,119,0,0,,7,,,79,127
600,note_on,1,0,0,,10,,,81,127
719,note_off,119,0,0,,10,,,81,127
720,note_on,1,0,0,,11,,,82,127
839,note_off,119,0,0,,11,,,82,127
840,note_on,1,0,0,,10,,,81,127
840,note_on,0,0,0,,7,,,67,127
841,note_on,1,0,0,,5,,,65,127
959,note_off,118,0,0,,7,,,67,127
960,note_off,1,0,0,,5,,,65,127
960,note_on,0,0,0,,4,,,64,127
1079,note_off,119,0,0,,4,,,64,127
1079,note_off,0,0,0,,10,,,81,127
1080,note_on,1,0,0,,5,,,77,127
1080,note_on,0,0,0,,5,,,65,127
1199,note_off,119,0,0,,5,,,65,127
1199,note_off,0,0,0,,5,,,77,127
1200,note_on,1,0,0,,3,,,75,127
1200,note_on,0,0,0,,7,,,67,127
1319,note_off,119,0,0,,7,,,67,127
1320,note_on,1,0,0,,10,,,69,127
1439,note_off,119,0,0,,10,,,69,127
1440,note_on,1,0,0,,11,,,70,127
1559,note_off,119,0,0,,11,,,70,127
1560,note_on,1,0,0,,10,,,69,127
1679,note_off,119,0,0,,3,,,75,127
1680,note_on,1,0,0,,2,,,74,127
1799,note_off,119,0,0,,2,,,74,127
1800,note_on,1,0,0,,0,,,72,127
1919,note_off,119,0,0,,0,,,72,127
1919,note_off,0,0,0,,10,,,69,127
1920,note_on,1,0,0,,2,,,74,127
1920,note_on,0,0,0,,11,,,70,127
2039,note_off,119,0,0,,2,,,74,127
2040,note_on,1,0,0,,3,,,75,127
2159,note_off,119,0,0,,3,,,75,127
2160,note_on,1,0,0,,5,,,77,127
2279,note_off,119,0,0,,5,,,77,127
2279,note_off,0,0,0,,11,,,70,127
2280,note_on,1,0,0,,7,,,79,127
2280,note_on,0,0,0,,3,,,63,127
2399,note_off,119,0,0,,7,,,79,127
2400,note_on,1,0,0,,3,,,75,127
2519,note_off,119,0,0,,3,,,75,127
2520,note_on,1,0,0,,2,,,74,127
2639,note_off,119,0,0,,2,,,74,127
2639,note_off,0,0,0,,3,,,63,127
2640,note_on,1,0,0,,0,,,72,127
2640,note_on,0,0,0,,5,,,65,127
2759,note_off,119,0,0,,0,,,72,127
2760,note_on,1,0,0,,2,,,74,127
2879,note_off,119,0,0,,2,,,74,127
2880,note_on,1,0,0,,3,,,75,127
2999,note_off,119,0,0,,3,,,75,127
2999,note_off,0,0,0,,5,,,65,127
3000,note_on,1,0,0,,2,,,74,127
3000,note_on,0,0,0,,11,,,70,127
3119,note_off,119,0,0,,11,,,70,127
3120,note_on,1,0,0,,5,,,65,127
3238,note_off,118,0,0,,2,,,74,127
3239,note_off,1,0,0,,5,,,65,127
3240,note_on,1,0,0,,2,,,62,127
3359,note_off,119,0,0,,2,,,62,127
3360,note_on,1,0,0,,5,,,77,127
3360,note_on,0,0,0,,11,,,58,127
3479,note_off,119,0,0,,11,,,58,127
3480,note_on,1,0,0,,5,,,53,127
3598,note_off,118,0,0,,5,,,77,127
3599,note_off,1,0,0,,5,,,53,127
3600,note_on,1,0,0,,2,,,50,127
3719,note_off,119,0,0,,2,,,50,127
3720,note_on,1,0,0,,11,,,82,127
3720,note_on,0,0,0,,11,,,46,127
3839,note_off,119,0,0,,11,,,82,127
3840,note_on,1,0,0,,2,,,86,127
3959,note_off,119,0,0,,2,,,86,127
3960,note_on,1,0,0,,11,,,82,127
4079,note_off,119,0,0,,11,,,82,127
4080,note_on,1,0,0,,5,,,77,127
4199,note_off,119,0,0,,5,,,77,127
4200,note_on,1,0,0,,2,,,74,127
4319,note_off,119,0,0,,2,,,74,127
4320,note_on,1,0,0,,11,,,70,127
4439,note_off,119,0,0,,11,,,70,127
4439,note_off,0,0,0,,11,,,46,127
4440,note_on,1,0,0,,2,,,74,127
4440,note_on,0,0,0,,11,,,70,127
4559,note_off,119,0,0,,11,,,70,127
4560,note_on,1,0,0,,5,,,65,127
4679,note_off,119,0,0,,5,,,65,127
4680,note_on,1,0,0,,2,,,62,127
4715,note_off,35,0,0,,2,,,74,127
4799,note_off,84,0,0,,2,,,62,127
4800,note_on,1,0,0,,5,,,77,127
4800,note_on,0,0,0,,11,,,58,127
4919,note_off,119,0,0,,11,,,58,127
4920,note_on,1,0,0,,5,,,53,127
5039,note_off,119,0,0,,5,,,53,127
5040,note_on,1,0,0,,2,,,50,127
5075,note_off,35,0,0,,5,,,77,127
5159,note_off,84,0,0,,2,,,50,127
5160,note_on,1,0,0,,11,,,82,127
5160,note_on,0,0,0,,11,,,46,127
5279,note_off,119,0,0,,11,,,82,127
5280,note_on,1,0,0,,2,,,86,127
5399,note_off,119,0,0,,2,,,86,127
5400,note_on,1,0,0,,11,,,82,127
5519,note_off,119,0,0,,11,,,82,127
5520,note_on,1,0,0,,5,,,77,127
5639,note_off,119,0,0,,5,,,77,127
5640,note_on,1,0,0,,2,,,74,127
5759,note_off,119,0,0,,2,,,74,127
5760,note_on,1,0,0,,11,,,70,127
5879,note_off,119,0,0,,11,,,70,127
5879,note_off,0,0,0,,11,,,46,127
5880,note_on,1,0,0,,2,,,74,127
5880,note_on,0,0,0,,11,,,70,127
5999,note_off,119,0,0,,11,,,70,127
6000,note_on,1,0,0,,5,,,65,127
6119,note_off,119,0,0,,5,,,65,127
6120,note_on,1,0,0,,2,,,62,127
6180,note_off,60,0,0,,2,,,74,127
6239,note_off,59,0,0,,2,,,62,127
6240,note_on,1,0,0,,5,,,77,127
6240,note_on,0,0,0,,11,,,58,127
6359,note_off,119,0,0,,11,,,58,127
6360,note_on,1,0,0,,5,,,53,127
6479,note_off,119,0,0,,5,,,53,127
6480,note_on,1,0,0,,2,,,50,127
6540,note_off,60,0,0,,5,,,77,127
6599,note_off,59,0,0,,2,,,50,127
6600,note_on,1,0,0,,11,,,82,127
6600,note_on,0,0,0,,11,,,46,127
6719,note_off,119,0,0,,11,,,82,127
6720,note_on,1,0,0,,2,,,86,127
6839,note_off,119,0,0,,2,,,86,127
6840,note_on,1,0,0,,0,,,84,127
6959,note_off,119,0,0,,0,,,84,127
6959,note_off,0,0,0,,11,,,46,127
6960,note_on,1,0,0,,11,,,82,127
6960,note_on,0,0,0,,2,,,74,127
6960,note_on,0,0,0,,11,,,70,127
7079,note_off,119,0,0,,11,,,82,127
7080,note_on,1,0,0,,10,,,81,127
7199,note_off,119,0,0,,10,,,81,127
7200,note_on,1,0,0,,11,,,82,127
7319,note_off,119,0,0,,11,,,82,127
7319,note_off,0,0,0,,11,,,70,127
7319,note_off,0,0,0,,2,,,74,127
7320,note_on,1,0,0,,0,,,84,127
7320,note_on,0,0,0,,0,,,72,127
7320,note_on,0,0,0,,10,,,69,127
7439,note_off,119,0,0,,0,,,84,127
7440,note_on,1,0,0,,10,,,81,127
7559,note_off,119,0,0,,10,,,81,127
7560,note_on,1,0,0,,5,,,77,127
7679,note_off,119,0,0,,5,,,77,127
7679,note_off,0,0,0,,10,,,69,127
7679,note_off,0,0,0,,0,,,72,127
7680,note_on,1,0,0,,7,,,79,127
7680,note_on,0,0,0,,7,,,67,127
7680,note_on,0,0,0,,11,,,70,127
7799,note_off,119,0,0,,7,,,79,127
7800,note_on,1,0,0,,10,,,81,127
7919,note_off,119,0,0,,10,,,81,127
7920,note_on,1,0,0,,11,,,82,127
8039,note_off,119,0,0,,11,,,82,127
8039,note_off,0,0,0,,11,,,70,127
8039,note_off,0,0,0,,7,,,67,127
8040,note_on,1,0,0,,10,,,81,127
8040,note_on,0,0,0,,10,,,69,127
8040,note_on,0,0,0,,0,,,72,127
8040,note_on,0,0,0,,5,,,65,127
8040,note_on,0,0,0,,11,,,82,127
8159,note_off,119,0,0,,11,,,82,127
8159,note_off,0,0,0,,10,,,81,127
8160,note_on,1,0,0,,7,,,79,127
8279,note_off,119,0,0,,7,,,79,127
8280,note_on,1,0,0,,5,,,77,127
8399,note_off,119,0,0,,5,,,77,127
8399,note_off,0,0,0,,5,,,65,127
8399,note_off,0,0,0,,0,,,72,127
8399,note_off,0,0,0,,10,,,69,127
8400,note_on,1,0,0,,7,,,79,127
8400,note_on,0,0,0,,2,,,74,127
8400,note_on,0,0,0,,11,,,70,127
8519,note_off,119,0,0,,7,,,79,127
8520,note_on,1,0,0,,10,,,81,127
8639,note_off,119,0,0,,10,,,81,127
8640,note_on,1,0,0,,11,,,82,127
8759,note_off,119,0,0,,11,,,82,127
8759,note_off,0,0,0,,11,,,70,127
8759,note_off,0,0,0,,2,,,74,127
8760,note_on,1,0,0,,0,,,84,127
8760,note_on,0,0,0,,10,,,69,127
8760,note_on,0,0,0,,0,,,72,127
8879,note_off,119,0,0,,0,,,84,127
8880,note_on,1,0,0,,10,,,81,127
8999,note_off,119,0,0,,10,,,81,127
9000,note_on,1,0,0,,5,,,77,127
9119,note_off,119,0,0,,5,,,77,127
9119,note_off,0,0,0,,0,,,72,127
9119,note_off,0,0,0,,10,,,69,127
9120,note_on,1,0,0,,7,,,79,127
9120,note_on,0,0,0,,11,,,70,127
9120,note_on,0,0,0,,7,,,67,127
9239,note_off,119,0,0,,7,,,79,127
9240,note_on,1,0,0,,10,,,81,127
9359,note_off,119,0,0,,10,,,81,127
9360,note_on,1,0,0,,11,,,82,127
9479,note_off,119,0,0,,11,,,82,127
9479,note_off,0,0,0,,7,,,67,127
9479,note_off,0,0,0,,11,,,70,127
9480,note_on,1,0,0,,10,,,81,127
9480,note_on,0,0,0,,5,,,65,127
9599,note_off,119,0,0,,5,,,65,127
9600,note_on,1,0,0,,0,,,60,127
9719,note_off,119,0,0,,0,,,60,127
9720,note_on,1,0,0,,10,,,57,127
9780,note_off,60,0,0,,10,,,81,127
9839,note_off,59,0,0,,10,,,57,127
9840,note_on,1,0,0,,0,,,84,127
9840,note_on,0,0,0,,5,,,53,127
9959,note_off,119,0,0,,5,,,53,127
9960,note_on,1,0,0,,0,,,48,127
10079,note_off,119,0,0,,0,,,48,127
10080,note_on,1,0,0,,10,,,45,127
10199,note_off,119,0,0,,10,,,45,127
10200,note_on,1,0,0,,5,,,41,127
10319,note_off,119,0,0,,0,,,84,127
10320,note_on,1,0,0,,0,,,84,127
10439,note_off,119,0,0,,0,,,84,127
10440,note_on,1,0,0,,10,,,81,127
10559,note_off,119,0,0,,10,,,81,127
10560,note_on,1,0,0,,5,,,77,127
10679,note_off,119,0,0,,5,,,77,127
10680,note_on,1,0,0,,0,,,72,127
10799,note_off,119,0,0,,0,,,72,127
10800,note_on,1,0,0,,5,,,77,127
10919,note_off,119,0,0,,5,,,77,127
10919,note_off,0,0,0,,5,,,41,127
10920,note_on,1,0,0,,7,,,79,127
10920,note_on,0,0,0,,5,,,65,127
10949,note_off,29,0,0,,7,,,79,127
10950,note_on,1,0,0,,5,,,77,127
10979,note_off,29,0,0,,5,,,77,127
10980,note_on,1,0,0,,7,,,79,127
11009,note_off,29,0,0,,7,,,79,127
11010,note_on,1,0,0,,5,,,77,127
11039,note_off,29,0,0,,5,,,65,127
11040,note_on,1,0,0,,0,,,60,127
11159,note_off,119,0,0,,0,,,60,127
11160,note_on,1,0,0,,10,,,57,127
11248,note_off,88,0,0,,5,,,77,127
11279,note_off,31,0,0,,10,,,57,127
11280,note_on,1,0,0,,10,,,81,127
11280,note_on,0,0,0,,5,,,53,127
11399,note_off,119,0,0,,5,,,53,127
11400,note_on,1,0,0,,0,,,48,127
11519,note_off,119,0,0,,0,,,48,127
11520,note_on,1,0,0,,10,,,45,127
11630,note_off,110,0,0,,10,,,81,127
11639,note_off,9,0,0,,10,,,45,127
11640,note_on,1,0,0,,5,,,41,127
11760,note_on,120,0,0,,0,,,84,127
11879,note_off,119,0,0,,0,,,84,127
11880,note_on,1,0,0,,10,,,81,127
11999,note_off,119,0,0,,10,,,81,127
12000,note_on,1,0,0,,5,,,77,127
12119,note_off,119,0,0,,5,,,77,127
12120,note_on,1,0,0,,0,,,72,127
12239,note_off,119,0,0,,0,,,72,127
12240,note_on,1,0,0,,5,,,77,127
12359,note_off,119,0,0,,5,,,77,127
12359,note_off,0,0,0,,5,,,41,127
12360,note_on,1,0,0,,7,,,79,127
12360,note_on,0,0,0,,5,,,65,127
12389,note_off,29,0,0,,7,,,79,127
12390,note_on,1,0,0,,5,,,77,127
12419,note_off,29,0,0,,5,,,77,127
12420,note_on,1,0,0,,7,,,79,127
12449,note_off,29,0,0,,7,,,79,127
12450,note_on,1,0,0,,5,,,77,127
12479,note_off,29,0,0,,5,,,65,127
12480,note_on,1,0,0,,0,,,60,127
12599,note_off,119,0,0,,0,,,60,127
12600,note_on,1,0,0,,10,,,57,127
12688,note_off,88,0,0,,5,,,77,127
12719,note_off,31,0,0,,10,,,57,127
12720,note_on,1,0,0,,10,,,81,127
12720,note_on,0,0,0,,5,,,53,127
12839,note_off,119,0,0,,5,,,53,127
12840,note_on,1,0,0,,0,,,48,127
12959,note_off,119,0,0,,0,,,48,127
12960,note_on,1,0,0,,10,,,45,127
13079,note_off,119,0,0,,10,,,45,127
13080,note_on,1,0,0,,5,,,41,127
13199,note_off,119,0,0,,10,,,81,127
13200,note_on,1,0,0,,0,,,84,127
13319,note_off,119,0,0,,0,,,84,127
13320,note_on,1,0,0,,12,,,83,127
13439,note_off,119,0,0,,12,,,83,127
13439,note_off,0,0,0,,5,,,41,127
13440,note_on,1,0,0,,10,,,81,127
13440,note_on,0,0,0,,10,,,69,127
13440,note_on,0,0,0,,5,,,65,127
13440,note_on,0,0,0,,0,,,72,127
13559,note_off,119,0,0,,10,,,81,127
13560,note_on,1,0,0,,7,,,79,127
13679,note_off,119,0,0,,7,,,79,127
13680,note_on,1,0,0,,10,,,81,127
13799,note_off,119,0,0,,10,,,81,127
13799,note_off,0,0,0,,0,,,72,127
13799,note_off,0,0,0,,5,,,65,127
13799,note_off,0,0,0,,10,,,69,127
13800,note_on,1,0,0,,7,,,79,127
13800,note_on,0,0,0,,7,,,67,127
13800,note_on,0,0,0,,0,,,72,127
13800,note_on,0,0,0,,4,,,64,127
13919,note_off,119,0,0,,7,,,79,127
13920,note_on,1,0,0,,5,,,77,127
14039,note_off,119,0,0,,5,,,77,127
14040,note_on,1,0,0,,7,,,79,127
14159,note_off,119,0,0,,7,,,79,127
14159,note_off,0,0,0,,4,,,64,127
14159,note_off,0,0,0,,0,,,72,127
14159,note_off,0,0,0,,7,,,67,127
14160,note_on,1,0,0,,5,,,77,127
14160,note_on,0,0,0,,12,,,71,127
14160,note_on,0,0,0,,2,,,62,127
14160,note_on,0,0,0,,5,,,65,127
14160,note_on,0,0,0,,7,,,67,127
14279,note_off,119,0,0,,5,,,77,127
14280,note_on,1,0,0,,4,,,76,127
14399,note_off,119,0,0,,4,,,76,127
14400,note_on,1,0,0,,5,,,77,127
14519,note_off,119,0,0,,5,,,77,127
14519,note_off,0,0,0,,7,,,67,127
14519,note_off,0,0,0,,5,,,65,127
14519,note_off,0,0,0,,2,,,62,127
14519,note_off,0,0,0,,12,,,71,127
14520,note_on,1,0,0,,4,,,76,127
14520,note_on,0,0,0,,0,,,60,127
14520,note_on,0,0,0,,7,,,67,127
14520,note_on,0,0,0,,0,,,72,127
14639,note_off,119,0,0,,4,,,76,127
14640,note_on,1,0,0,,5,,,77,127
14759,note_off,119,0,0,,5,,,77,127
14760,note_on,1,0,0,,7,,,79,127
14879,note_off,119,0,0,,7,,,79,127
14879,note_off,0,0,0,,0,,,72,127
14879,note_off,0,0,0,,7,,,67,127
14879,note_off,0,0,0,,0,,,60,127
14880,note_on,1,0,0,,10,,,81,127
14880,note_on,0,0,0,,0,,,72,127
14880,note_on,0,0,0,,10,,,69,127
14880,note_on,0,0,0,,5,,,65,127
14999,note_off,119,0,0,,10,,,81,127
15000,note_on,1,0,0,,12,,,83,127
15119,note_off,119,0,0,,12,,,83,127
15120,note_on,1,0,0,,0,,,84,127
15239,note_off,119,0,0,,0,,,84,127
15239,note_off,0,0,0,,5,,,65,127
15239,note_off,0,0,0,,10,,,69,127
15239,note_off,0,0,0,,0,,,72,127
15240,note_on,1,0,0,,7,,,79,127
15240,note_on,0,0,0,,0,,,72,127
15240,note_on,0,0,0,,7,,,67,127
15240,note_on,0,0,0,,4,,,64,127
15240,note_on,0,0,0,,10,,,81,127
15359,note_off,119,0,0,,10,,,81,127
15359,note_off,0,0,0,,7,,,79,127
15360,note_on,1,0,0,,5,,,77,127
15479,note_off,119,0,0,,5,,,77,127
15480,note_on,1,0,0,,7,,,79,127
15599,note_off,119,0,0,,7,,,79,127
15599,note_off,0,0,0,,4,,,64,127
15599,note_off,0,0,0,,7,,,67,127
15599,note_off,0,0,0,,0,,,72,127
15600,note_on,1,0,0,,5,,,77,127
15600,note_on,0,0,0,,12,,,71,127
15600,note_on,0,0,0,,5,,,65,127
15600,note_on,0,0,0,,7,,,67,127
15600,note_on,0,0,0,,2,,,62,127
15600,note_on,0,0,0,,7,,,79,127
15719,note_off,119,0,0,,7,,,79,127
15719,note_off,0,0,0,,5,,,77,127
15720,note_on,1,0,0,,4,,,76,127
15839,note_off,119,0,0,,4,,,76,127
15840,note_on,1,0,0,,5,,,77,127
15959,note_off,119,0,0,,5,,,77,127
15959,note_off,0,0,0,,2,,,62,127
15959,note_off,0,0,0,,7,,,67,127
15959,note_off,0,0,0,,5,,,65,127
15959,note_off,0,0,0,,12,,,71,127
15960,note_on,1,0,0,,4,,,76,127
15960,note_on,0,0,0,,0,,,72,127
16079,note_off,119,0,0,,0,,,72,127
16080,note_on,1,0,0,,7,,,67,127
16199,note_off,119,0,0,,7,,,67,127
16200,note_on,1,0,0,,4,,,64,127
16260,note_off,60,0,0,,4,,,76,127
16319,note_off,59,0,0,,4,,,64,127
16320,note_on,1,0,0,,7,,,79,127
16320,note_on,0,0,0,,0,,,60,127
16439,note_off,119,0,0,,0,,,60,127
16440,note_on,1,0,0,,7,,,55,127
16559,note_off,119,0,0,,7,,,55,127
16560,note_on,1,0,0,,4,,,52,127
16679,note_off,119,0,0,,4,,,52,127
16680,note_on,1,0,0,,0,,,36,127
16782,note_off,102,0,0,,7,,,79,127
16800,note_on,18,0,0,,0,,,84,127
16919,note_off,119,0,0,,0,,,84,127
16920,note_on,1,0,0,,7,,,79,127
17039,note_off,119,0,0,,7,,,79,127
17040,note_on,1,0,0,,4,,,76,127
17159,note_off,119,0,0,,4,,,76,127
17160,note_on,1,0,0,,0,,,72,127
17279,note_off,119,0,0,,0,,,72,127
17280,note_on,1,0,0,,4,,,76,127
17399,note_off,119,0,0,,4,,,76,127
17399,note_off,0,0,0,,0,,,36,127
17400,note_on,1,0,0,,4,,,76,127
17400,note_on,0,0,0,,0,,,72,127
17519,note_off,119,0,0,,0,,,72,127
17520,note_on,1,0,0,,7,,,67,127
17639,note_off,119,0,0,,7,,,67,127
17640,note_on,1,0,0,,4,,,64,127
17700,note_off,60,0,0,,4,,,76,127
17759,note_off,59,0,0,,4,,,64,127
17760,note_on,1,0,0,,7,,,79,127
17760,note_on,0,0,0,,0,,,60,127
17879,note_off,119,0,0,,0,,,60,127
17880,note_on,1,0,0,,7,,,55,127
17999,note_off,119,0,0,,7,,,55,127
18000,note_on,1,0,0,,4,,,52,127
18119,note_off,119,0,0,,4,,,52,127
18120,note_on,1,0,0,,0,,,36,127
18222,note_off,102,0,0,,7,,,79,127
18240,note_on,18,0,0,,0,,,84,127
18359,note_off,119,0,0,,0,,,84,127
18360,note_on,1,0,0,,7,,,79,127
18479,note_off,119,0,0,,7,,,79,127
18480,note_on,1,0,0,,4,,,76,127
18599,note_off,119,0,0,,4,,,76,127
18600,note_on,1,0,0,,0,,,72,127
18719,note_off,119,0,0,,0,,,72,127
18720,note_on,1,0,0,,4,,,76,127
18839,note_off,119,0,0,,4,,,76,127
18839,note_off,0,0,0,,0,,,36,127
18840,note_on,1,0,0,,4,,,76,127
18840,note_on,0,0,0,,0,,,72,127
18959,note_off,119,0,0,,0,,,72,127
18960,note_on,1,0,0,,7,,,67,127
19079,note_off,119,0,0,,7,,,67,127
19080,note_on,1,0,0,,4,,,64,127
19165,note_off,85,0,0,,4,,,76,127
19199,note_off,34,0,0,,4,,,64,127
19200,note_on,1,0,0,,7,,,79,127
19200,note_on,0,0,0,,0,,,60,127
19319,note_off,119,0,0,,0,,,60,127
19320,note_on,1,0,0,,7,,,55,127
19439,note_off,119,0,0,,7,,,55,127
19440,note_on,1,0,0,,4,,,52,127
19559,note_off,119,0,0,,4,,,52,127
19560,note_on,1,0,0,,0,,,36,127
19680,note_on,120,0,0,,0,,,84,127
19750,note_off,70,0,0,,7,,,79,127
19799,note_off,49,0,0,,0,,,84,127
19800,note_on,1,0,0,,7,,,79,127
19919,note_off,119,0,0,,7,,,79,127
19920,note_on,1,0,0,,4,,,76,127
20039,note_off,119,0,0,,4,,,76,127
20040,note_on,1,0,0,,0,,,72,127
20159,note_off,119,0,0,,0,,,72,127
20160,note_on,1,0,0,,7,,,67,127
20279,note_off,119,0,0,,7,,,67,127
20280,note_on,1,0,0,,4,,,64,127
20399,note_off,119,0,0,,4,,,64,127
20400,note_on,1,0,0,,0,,,60,127
20519,note_off,119,0,0,,0,,,60,127
20520,note_on,1,0,0,,7,,,55,127
20639,note_off,119,0,0,,7,,,55,127
20640,note_on,1,0,0,,4,,,52,127
20759,note_off,119,0,0,,4,,,52,127
20759,note_off,0,0,0,,0,,,36,127
20760,note_on,1,0,0,,0,,,48,127
20879,note_off,119,0,0,,0,,,48,127
20880,note_on,1,0,0,,7,,,43,127
20999,note_off,119,0,0,,7,,,43,127
21000,note_on,1,0,0,,0,,,36,127
21719,note_off,719,0,0,,0,,,36,127
22080,note_on,361,0,0,,4,,,64,127
22320,note_on,240,0,0,,0,,,72,127
22439,note_off,119,0,0,,0,,,72,127
22439,note_off,0,0,0,,4,,,64,127
22440,note_on,1,0,0,,4,,,64,127
22440,note_on,0,0,0,,11,,,82,127
22799,note_off,359,0,0,,4,,,64,127
22800,note_on,1,0,0,,11,,,70,127
22800,note_on,0,0,0,,5,,,65,127
22800,note_on,0,0,0,,1,,,73,127
22919,note_off,119,0,0,,11,,,82,127
22920,note_on,1,0,0,,8,,,80,127
23039,note_off,119,0,0,,8,,,80,127
23040,note_on,1,0,0,,7,,,79,127
23159,note_off,119,0,0,,7,,,79,127
23159,note_off,0,0,0,,1,,,73,127
23159,note_off,0,0,0,,5,,,65,127
23159,note_off,0,0,0,,11,,,70,127
23160,note_on,1,0,0,,11,,,70,127
23160,note_on,0,0,0,,5,,,65,127
23160,note_on,0,0,0,,1,,,73,127
23160,note_on,0,0,0,,5,,,77,127
23279,note_off,119,0,0,,5,,,77,127
23280,note_on,1,0,0,,4,,,76,127
23399,note_off,119,0,0,,4,,,76,127
23400,note_on,1,0,0,,5,,,77,127
23519,note_off,119,0,0,,5,,,77,127
23519,note_off,0,0,0,,1,,,73,127
23519,note_off,0,0,0,,5,,,65,127
23519,note_off,0,0,0,,11,,,70,127
23520,note_on,1,0,0,,11,,,70,127
23520,note_on,0,0,0,,4,,,64,127
23520,note_on,0,0,0,,0,,,72,127
23520,note_on,0,0,0,,7,,,67,127
23520,note_on,0,0,0,,7,,,79,127
23638,note_off,118,0,0,,0,,,72,127
23639,note_off,1,0,0,,7,,,79,127
23640,note_on,1,0,0,,0,,,72,127
23760,note_on,120,0,0,,4,,,76,127
23876,note_off,116,0,0,,0,,,72,127
23878,note_off,2,0,0,,4,,,76,127
23879,note_on,1,0,0,,11,,,82,127
24118,note_off,239,0,0,,7,,,67,127
24118,note_off,0,0,0,,4,,,64,127
24118,note_off,0,0,0,,11,,,70,127
24119,note_on,1,0,0,,4,,,64,127
24119,note_on,0,0,0,,7,,,67,127
24119,note_on,0,0,0,,11,,,70,127
24119,note_on,0,0,0,,0,,,72,127
24238,note_off,119,0,0,,0,,,72,127
24238,note_off,0,0,0,,11,,,70,127
24238,note_off,0,0,0,,7,,,67,127
24238,note_off,0,0,0,,4,,,64,127
24239,note_on,1,0,0,,11,,,70,127
24239,note_on,0,0,0,,5,,,65,127
24239,note_on,0,0,0,,1,,,73,127
24358,note_off,119,0,0,,11,,,82,127
24359,note_on,1,0,0,,8,,,80,127
24478,note_off,119,0,0,,8,,,80,127
24479,note_on,1,0,0,,7,,,79,127
24598,note_off,119,0,0,,7,,,79,127
24598,note_off,0,0,0,,1,,,73,127
24598,note_off,0,0,0,,5,,,65,127
24598,note_off,0,0,0,,11,,,70,127
24599,note_on,1,0,0,,5,,,65,127
24599,note_on,0,0,0,,11,,,70,127
24599,note_on,0,0,0,,1,,,73,127
24599,note_on,0,0,0,,5,,,77,127
24718,note_off,119,0,0,,5,,,77,127
24719,note_on,1,0,0,,4,,,76,127
24838,note_off,119,0,0,,4,,,76,127
24839,note_on,1,0,0,,5,,,77,127
24958,note_off,119,0,0,,5,,,77,127
24958,note_off,0,0,0,,1,,,73,127
24958,note_off,0,0,0,,11,,,70,127
24958,note_off,0,0,0,,5,,,65,127
24959,note_on,1,0,0,,11,,,70,127
24959,note_on,0,0,0,,4,,,64,127
24959,note_on,0,0,0,,0,,,72,127
24959,note_on,0,0,0,,7,,,67,127
24959,note_on,0,0,0,,7,,,79,127
25078,note_off,119,0,0,,7,,,79,127
25079,note_on,1,0,0,,4,,,76,127
25198,note_off,119,0,0,,4,,,76,127
25199,note_on,1,0,0,,11,,,82,127
25318,note_off,119,0,0,,11,,,82,127
25319,note_on,1,0,0,,1,,,85,127
25558,note_off,239,0,0,,7,,,67,127
25558,note_off,0,0,0,,0,,,72,127
25558,note_off,0,0,0,,4,,,64,127
25558,note_off,0,0,0,,11,,,70,127
25559,note_on,1,0,0,,4,,,64,127
25559,note_on,0,0,0,,7,,,67,127
25559,note_on,0,0,0,,11,,,70,127
25559,note_on,0,0,0,,0,,,72,127
25678,note_off,119,0,0,,0,,,72,127
25678,note_off,0,0,0,,11,,,70,127
25678,note_off,0,0,0,,7,,,67,127
25678,note_off,0,0,0,,4,,,64,127
25679,note_on,1,0,0,,5,,,65,127
25679,note_on,0,0,0,,1,,,73,127
25679,note_on,0,0,0,,11,,,70,127
25798,note_off,119,0,0,,1,,,85,127
25799,note_on,1,0,0,,0,,,84,127
25918,note_off,119,0,0,,0,,,84,127
25919,note_on,1,0,0,,11,,,82,127
26038,note_off,119,0,0,,11,,,82,127
26038,note_off,0,0,0,,11,,,70,127
26038,note_off,0,0,0,,1,,,73,127
26038,note_off,0,0,0,,5,,,65,127
26039,note_on,1,0,0,,5,,,65,127
26039,note_on,0,0,0,,1,,,73,127
26039,note_on,0,0,0,,11,,,70,127
26039,note_on,0,0,0,,8,,,80,127
26158,note_off,119,0,0,,8,,,80,127
26159,note_on,1,0,0,,7,,,79,127
26278,note_off,119,0,0,,7,,,79,127
26279,note_on,1,0,0,,5,,,77,127
26398,note_off,119,0,0,,5,,,77,127
26398,note_off,0,0,0,,11,,,70,127
26398,note_off,0,0,0,,1,,,73,127
26398,note_off,0,0,0,,5,,,65,127
26399,note_on,1,0,0,,4,,,64,127
26399,note_on,0,0,0,,11,,,70,127
26399,note_on,0,0,0,,0,,,72,127
26399,note_on,0,0,0,,7,,,67,127
26399,note_on,0,0,0,,7,,,79,127
26518,note_off,119,0,0,,7,,,79,127
26519,note_on,1,0,0,,4,,,76,127
26638,note_off,119,0,0,,4,,,76,127
26639,note_on,1,0,0,,11,,,82,127
26758,note_off,119,0,0,,11,,,82,127
26759,note_on,1,0,0,,1,,,85,127
26998,note_off,239,0,0,,7,,,67,127
26998,note_off,0,0,0,,0,,,72,127
26998,note_off,0,0,0,,11,,,70,127
26998,note_off,0,0,0,,4,,,64,127
26999,note_on,1,0,0,,7,,,67,127
26999,note_on,0,0,0,,4,,,64,127
26999,note_on,0,0,0,,0,,,72,127
26999,note_on,0,0,0,,11,,,70,127
27118,note_off,119,0,0,,11,,,70,127
27118,note_off,0,0,0,,0,,,72,127
27118,note_off,0,0,0,,4,,,64,127
27118,note_off,0,0,0,,7,,,67,127
27119,note_on,1,0,0,,5,,,65,127
27119,note_on,0,0,0,,11,,,70,127
27119,note_on,0,0,0,,1,,,73,127
27238,note_off,119,0,0,,1,,,85,127
27239,note_on,1,0,0,,0,,,84,127
27358,note_off,119,0,0,,0,,,84,127
27359,note_on,1,0,0,,11,,,82,127
27478,note_off,119,0,0,,11,,,82,127
27478,note_off,0,0,0,,1,,,73,127
27478,note_off,0,0,0,,11,,,70,127
27478,note_off,0,0,0,,5,,,65,127
27479,note_on,1,0,0,,3,,,63,127
27479,note_on,0,0,0,,0,,,72,127
27479,note_on,0,0,0,,10,,,81,127
27479,note_on,0,0,0,,6,,,78,127
27598,note_off,119,0,0,,10,,,81,127
27599,note_on,1,0,0,,11,,,82,127
27718,note_off,119,0,0,,11,,,82,127
27719,note_on,1,0,0,,0,,,84,127
27838,note_off,119,0,0,,0,,,84,127
27838,note_off,0,0,0,,6,,,78,127
27838,note_off,0,0,0,,0,,,72,127
27838,note_off,0,0,0,,3,,,63,127
27839,note_on,1,0,0,,1,,,61,127
27839,note_on,0,0,0,,11,,,70,127
27839,note_on,0,0,0,,5,,,77,127
27839,note_on,0,0,0,,11,,,82,127
27958,note_off,119,0,0,,11,,,82,127
27959,note_on,1,0,0,,0,,,84,127
28078,note_off,119,0,0,,0,,,84,127
28079,note_on,1,0,0,,11,,,82,127
28198,note_off,119,0,0,,11,,,82,127
28198,note_off,0,0,0,,5,,,77,127
28198,note_off,0,0,0,,11,,,70,127
28198,note_off,0,0,0,,1,,,61,127
28199,note_on,1,0,0,,3,,,63,127
28199,note_on,0,0,0,,0,,,72,127
28199,note_on,0,0,0,,10,,,81,127
28199,note_on,0,0,0,,6,,,78,127
28318,note_off,119,0,0,,10,,,81,127
28319,note_on,1,0,0,,11,,,82,127
28438,note_off,119,0,0,,11,,,82,127
28439,note_on,1,0,0,,0,,,84,127
28558,note_off,119,0,0,,0,,,84,127
28558,note_off,0,0,0,,6,,,78,127
28558,note_off,0,0,0,,0,,,72,127
28558,note_off,0,0,0,,3,,,63,127
28559,note_on,1,0,0,,1,,,61,127
28559,note_on,0,0,0,,11,,,70,127
28559,note_on,0,0,0,,11,,,82,127
28559,note_on,0,0,0,,5,,,77,127
28678,note_off,119,0,0,,11,,,82,127
28679,note_on,1,0,0,,0,,,84,127
28798,note_off,119,0,0,,0,,,84,127
28799,note_on,1,0,0,,11,,,82,127
28918,note_off,119,0,0,,11,,,82,127
28918,note_off,0,0,0,,5,,,77,127
28918,note_off,0,0,0,,11,,,70,127
28918,note_off,0,0,0,,1,,,61,127
28919,note_on,1,0,0,,3,,,63,127
28919,note_on,0,0,0,,0,,,72,127
28919,note_on,0,0,0,,10,,,81,127
28919,note_on,0,0,0,,6,,,78,127
29038,note_off,119,0,0,,10,,,81,127
29039,note_on,1,0,0,,11,,,82,127
29158,note_off,119,0,0,,11,,,82,127
29159,note_on,1,0,0,,0,,,84,127
29278,note_off,119,0,0,,0,,,84,127
29278,note_off,0,0,0,,6,,,78,127
29278,note_off,0,0,0,,0,,,72,127
29278,note_off,0,0,0,,3,,,63,127
29279,note_on,1,0,0,,1,,,61,127
29279,note_on,0,0,0,,11,,,70,127
29279,note_on,0,0,0,,5,,,77,127
29279,note_on,0,0,0,,11,,,82,127
29398,note_off,119,0,0,,11,,,82,127
29399,note_on,1,0,0,,0,,,84,127
29518,note_off,119,0,0,,0,,,84,127
29519,note_on,1,0,0,,11,,,82,127
29638,note_off,119,0,0,,11,,,82,127
29638,note_off,0,0,0,,5,,,77,127
29638,note_off,0,0,0,,11,,,70,127
29638,note_off,0,0,0,,1,,,61,127
29639,note_on,1,0,0,,0,,,60,127
29639,note_on,0,0,0,,11,,,82,127
29639,note_on,0,0,0,,0,,,84,127
29758,note_off,119,0,0,,11,,,82,127
29759,note_on,1,0,0,,2,,,62,127
29759,note_on,0,0,0,,10,,,81,127
29878,note_off,119,0,0,,10,,,81,127
29878,note_off,0,0,0,,2,,,62,127
29879,note_on,1,0,0,,4,,,64,127
29879,note_on,0,0,0,,7,,,79,127
29998,note_off,119,0,0,,7,,,79,127
29998,note_off,0,0,0,,4,,,64,127
29998,note_off,0,0,0,,0,,,84,127
29998,note_off,0,0,0,,0,,,60,127
29999,note_on,1,0,0,,0,,,60,127
29999,note_on,0,0,0,,5,,,65,127
29999,note_on,0,0,0,,0,,,84,127
29999,note_on,0,0,0,,10,,,81,127
30118,note_off,119,0,0,,10,,,81,127
30118,note_off,0,0,0,,5,,,65,127
30119,note_on,1,0,0,,4,,,64,127
30119,note_on,0,0,0,,7,,,79,127
30238,note_off,119,0,0,,7,,,79,127
30238,note_off,0,0,0,,4,,,64,127
30239,note_on,1,0,0,,5,,,65,127
30239,note_on,0,0,0,,10,,,81,127
30358,note_off,119,0,0,,10,,,81,127
30358,note_off,0,0,0,,5,,,65,127
30358,note_off,0,0,0,,0,,,84,127
30358,note_off,0,0,0,,0,,,60,127
30359,note_on,1,0,0,,0,,,60,127
30359,note_on,0,0,0,,7,,,67,127
30359,note_on,0,0,0,,11,,,82,127
30359,note_on,0,0,0,,0,,,84,127
30478,note_off,119,0,0,,11,,,82,127
30478,note_off,0,0,0,,7,,,67,127
30479,note_on,1,0,0,,5,,,65,127
30479,note_on,0,0,0,,10,,,81,127
30598,note_off,119,0,0,,10,,,81,127
30598,note_off,0,0,0,,5,,,65,127
30599,note_on,1,0,0,,4,,,64,127
30599,note_on,0,0,0,,7,,,79,127
30718,note_off,119,0,0,,7,,,79,127
30718,note_off,0,0,0,,4,,,64,127
30718,note_off,0,0,0,,0,,,84,127
30718,note_off,0,0,0,,0,,,60,127
30719,note_on,1,0,0,,0,,,60,127
30719,note_on,0,0,0,,5,,,65,127
30719,note_on,0,0,0,,10,,,81,127
30719,note_on,0,0,0,,0,,,84,127
30838,note_off,119,0,0,,10,,,81,127
30838,note_off,0,0,0,,5,,,65,127
30839,note_on,1,0,0,,4,,,64,127
30839,note_on,0,0,0,,7,,,79,127
30958,note_off,119,0,0,,7,,,79,127
30958,note_off,0,0,0,,4,,,64,127
30959,note_on,1,0,0,,5,,,65,127
30959,note_on,0,0,0,,10,,,81,127
31078,note_off,119,0,0,,10,,,81,127
31078,note_off,0,0,0,,5,,,65,127
31078,note_off,0,0,0,,0,,,84,127
31078,note_off,0,0,0,,0,,,60,127
31079,note_on,1,0,0,,0,,,60,127
31079,note_on,0,0,0,,7,,,67,127
31079,note_on,0,0,0,,11,,,82,127
31079,note_on,0,0,0,,0,,,84,127
31198,note_off,119,0,0,,11,,,82,127
31198,note_off,0,0,0,,7,,,67,127
31199,note_on,1,0,0,,5,,,65,127
31199,note_on,0,0,0,,10,,,81,127
31318,note_off,119,0,0,,10,,,81,127
31318,note_off,0,0,0,,5,,,65,127
31319,note_on,1,0,0,,4,,,64,127
31319,note_on,0,0,0,,7,,,79,127
31438,note_off,119,0,0,,7,,,79,127
31438,note_off,0,0,0,,4,,,64,127
31438,note_off,0,0,0,,0,,,84,127
31438,note_off,0,0,0,,0,,,60,127
31439,note_on,1,0,0,,5,,,65,127
31439,note_on,0,0,0,,10,,,81,127
31558,note_off,119,0,0,,5,,,65,127
31559,note_on,1,0,0,,0,,,60,127
31678,note_off,119,0,0,,0,,,60,127
31679,note_on,1,0,0,,10,,,57,127
31739,note_off,60,0,0,,10,,,81,127
31798,note_off,59,0,0,,10,,,57,127
31799,note_on,1,0,0,,5,,,53,127
31799,note_on,0,0,0,,0,,,84,127
31918,note_off,119,0,0,,5,,,53,127
31919,note_on,1,0,0,,0,,,48,127
32038,note_off,119,0,0,,0,,,48,127
32039,note_on,1,0,0,,10,,,45,127
32158,note_off,119,0,0,,10,,,45,127
32159,note_on,1,0,0,,5,,,41,127
32261,note_off,102,0,0,,0,,,84,127
32279,note_on,18,0,0,,0,,,84,127
32398,note_off,119,0,0,,0,,,84,127
32399,note_on,1,0,0,,10,,,81,127
32518,note_off,119,0,0,,10,,,81,127
32518,note_off,0,0,0,,5,,,41,127
32519,note_on,1,0,0,,10,,,45,127
32519,note_on,0,0,0,,5,,,77,127
32638,note_off,119,0,0,,5,,,77,127
32639,note_on,1,0,0,,0,,,72,127
32758,note_off,119,0,0,,0,,,72,127
32759,note_on,1,0,0,,4,,,76,127
32878,note_off,119,0,0,,4,,,76,127
32878,note_off,0,0,0,,10,,,45,127
32879,note_on,1,0,0,,11,,,46,127
32879,note_on,0,0,0,,5,,,77,127
32879,note_on,0,0,0,,2,,,74,127
32998,note_off,119,0,0,,2,,,74,127
32999,note_on,1,0,0,,0,,,72,127
33118,note_off,119,0,0,,0,,,72,127
33119,note_on,1,0,0,,11,,,70,127
33238,note_off,119,0,0,,11,,,70,127
33238,note_off,0,0,0,,11,,,46,127
33239,note_on,1,0,0,,0,,,48,127
33239,note_on,0,0,0,,10,,,69,127
33358,note_off,119,0,0,,10,,,69,127
33359,note_on,1,0,0,,11,,,70,127
33477,note_off,118,0,0,,5,,,77,127
33478,note_off,1,0,0,,11,,,70,127
33479,note_on,1,0,0,,4,,,76,127
33479,note_on,0,0,0,,7,,,67,127
33598,note_off,119,0,0,,7,,,67,127
33598,note_off,0,0,0,,4,,,76,127
33598,note_off,0,0,0,,0,,,48,127
33599,note_on,1,0,0,,5,,,65,127
33599,note_on,0,0,0,,5,,,77,127
33599,note_on,0,0,0,,10,,,69,127
33718,note_off,119,0,0,,5,,,65,127
33719,note_on,1,0,0,,0,,,60,127
33838,note_off,119,0,0,,0,,,60,127
33839,note_on,1,0,0,,10,,,57,127
33899,note_off,60,0,0,,5,,,77,127
33958,note_off,59,0,0,,10,,,57,127
33958,note_off,0,0,0,,10,,,69,127
33959,note_on,1,0,0,,5,,,53,127
33959,note_on,0,0,0,,10,,,81,127
34078,note_off,119,0,0,,5,,,53,127
34079,note_on,1,0,0,,0,,,48,127
34198,note_off,119,0,0,,0,,,48,127
34199,note_on,1,0,0,,10,,,45,127
34318,note_off,119,0,0,,10,,,45,127
34319,note_on,1,0,0,,5,,,41,127
34421,note_off,102,0,0,,10,,,81,127
34439,note_on,18,0,0,,0,,,84,127
34558,note_off,119,0,0,,0,,,84,127
34559,note_on,1,0,0,,10,,,81,127
34678,note_off,119,0,0,,10,,,81,127
34678,note_off,0,0,0,,5,,,41,127
34679,note_on,1,0,0,,10,,,45,127
34679,note_on,0,0,0,,5,,,77,127
34798,note_off,119,0,0,,5,,,77,127
34799,note_on,1,0,0,,0,,,72,127
34918,note_off,119,0,0,,0,,,72,127
34919,note_on,1,0,0,,4,,,76,127
35038,note_off,119,0,0,,4,,,76,127
35038,note_off,0,0,0,,10,,,45,127
35039,note_on,1,0,0,,11,,,46,127
35039,note_on,0,0,0,,5,,,77,127
35039,note_on,0,0,0,,2,,,74,127
35158,note_off,119,0,0,,2,,,74,127
35159,note_on,1,0,0,,0,,,72,127
35278,note_off,119,0,0,,0,,,72,127
35279,note_on,1,0,0,,11,,,70,127
35398,note_off,119,0,0,,11,,,70,127
35398,note_off,0,0,0,,11,,,46,127
35399,note_on,1,0,0,,0,,,48,127
35399,note_on,0,0,0,,10,,,69,127
35518,note_off,119,0,0,,10,,,69,127
35519,note_on,1,0,0,,11,,,70,127
35637,note_off,118,0,0,,5,,,77,127
35638,note_off,1,0,0,,11,,,70,127
35639,note_on,1,0,0,,7,,,67,127
35639,note_on,0,0,0,,4,,,76,127
35758,note_off,119,0,0,,4,,,76,127
35758,note_off,0,0,0,,7,,,67,127
35758,note_off,0,0,0,,0,,,48,127
35759,note_on,1,0,0,,5,,,41,127
35759,note_on,0,0,0,,5,,,77,127
35878,note_off,119,0,0,,5,,,77,127
35879,note_on,1,0,0,,0,,,72,127
35998,note_off,119,0,0,,0,,,72,127
35999,note_on,1,0,0,,10,,,69,127
36118,note_off,119,0,0,,10,,,69,127
36118,note_off,0,0,0,,5,,,41,127
36119,note_on,1,0,0,,10,,,45,127
36119,note_on,0,0,0,,5,,,65,127
36238,note_off,119,0,0,,5,,,65,127
36239,note_on,1,0,0,,0,,,60,127
36358,note_off,119,0,0,,0,,,60,127
36359,note_on,1,0,0,,10,,,57,127
36478,note_off,119,0,0,,10,,,57,127
36478,note_off,0,0,0,,10,,,45,127
36479,note_on,1,0,0,,11,,,46,127
36479,note_on,0,0,0,,5,,,65,127
36479,note_on,0,0,0,,2,,,62,127
36598,note_off,119,0,0,,2,,,62,127
36599,note_on,1,0,0,,0,,,60,127
36718,note_off,119,0,0,,0,,,60,127
36719,note_on,1,0,0,,11,,,58,127
36838,note_off,119,0,0,,11,,,58,127
36838,note_off,0,0,0,,11,,,46,127
36839,note_on,1,0,0,,0,,,48,127
36839,note_on,0,0,0,,10,,,57,127
36958,note_off,119,0,0,,10,,,57,127
36959,note_on,1,0,0,,11,,,58,127
37077,note_off,118,0,0,,5,,,65,127
37078,note_off,1,0,0,,11,,,58,127
37079,note_on,1,0,0,,4,,,64,127
37079,note_on,0,0,0,,7,,,55,127
37198,note_off,119,0,0,,7,,,55,127
37198,note_off,0,0,0,,4,,,64,127
37198,note_off,0,0,0,,0,,,48,127
37199,note_on,1,0,0,,5,,,41,127
37199,note_on,0,0,0,,4,,,64,127
37199,note_on,0,0,0,,7,,,55,127
37438,note_off,239,0,0,,7,,,55,127
37438,note_off,0,0,0,,4,,,64,127
37439,note_on,1,0,0,,5,,,65,127
37439,note_on,0,0,0,,5,,,53,127
37918,note_off,479,0,0,,5,,,53,127
37918,note_off,0,0,0,,5,,,65,127
37918,note_off,0,0,0,,5,,,41,127
37919,note_on,1,0,0,,5,,,65,127
37919,note_on,0,0,0,,10,,,69,127
37919,note_on,0,0,0,,2,,,74,127
37919,note_on,0,0,0,,0,,,72,127
38038,note_off,119,0,0,,0,,,72,127
38038,note_off,0,0,0,,2,,,74,127
38039,note_on,1,0,0,,12,,,71,127
38158,note_off,119,0,0,,12,,,71,127
38159,note_on,1,0,0,,0,,,72,127
38278,note_off,119,0,0,,10,,,69,127
38278,note_off,0,0,0,,5,,,65,127
38279,note_on,1,0,0,,7,,,67,127
38279,note_on,0,0,0,,4,,,64,127
38279,note_on,0,0,0,,7,,,79,127
38334,note_off,55,0,0,,0,,,72,127
38399,note_on,65,0,0,,4,,,76,127
38517,note_off,118,0,0,,7,,,79,127
38518,note_off,1,0,0,,4,,,76,127
38519,note_on,1,0,0,,2,,,74,127
38638,note_off,119,0,0,,2,,,74,127
38638,note_off,0,0,0,,4,,,64,127
38638,note_off,0,0,0,,7,,,67,127
38639,note_on,1,0,0,,5,,,65,127
38639,note_on,0,0,0,,10,,,69,127
38639,note_on,0,0,0,,0,,,72,127
38639,note_on,0,0,0,,2,,,74,127
38758,note_off,119,0,0,,2,,,74,127
38758,note_off,0,0,0,,0,,,72,127
38759,note_on,1,0,0,,12,,,71,127
38878,note_off,119,0,0,,12,,,71,127
38879,note_on,1,0,0,,0,,,72,127
38998,note_off,119,0,0,,10,,,69,127
38998,note_off,0,0,0,,5,,,65,127
38999,note_on,1,0,0,,4,,,64,127
38999,note_on,0,0,0,,7,,,67,127
38999,note_on,0,0,0,,7,,,79,127
39054,note_off,55,0,0,,0,,,72,127
39119,note_on,65,0,0,,4,,,76,127
39237,note_off,118,0,0,,7,,,79,127
39238,note_off,1,0,0,,4,,,76,127
39239,note_on,1,0,0,,2,,,74,127
39358,note_off,119,0,0,,2,,,74,127
39358,note_off,0,0,0,,7,,,67,127
39358,note_off,0,0,0,,4,,,64,127
39359,note_on,1,0,0,,5,,,65,127
39359,note_on,0,0,0,,10,,,69,127
39359,note_on,0,0,0,,0,,,72,127
39359,note_on,0,0,0,,2,,,74,127
39478,note_off,119,0,0,,2,,,74,127
39478,note_off,0,0,0,,0,,,72,127
39479,note_on,1,0,0,,12,,,71,127
39598,note_off,119,0,0,,12,,,71,127
39599,note_on,1,0,0,,0,,,72,127
39718,note_off,119,0,0,,0,,,72,127
39718,note_off,0,0,0,,10,,,69,127
39718,note_off,0,0,0,,5,,,65,127
39719,note_on,1,0,0,,3,,,63,127
39719,note_on,0,0,0,,5,,,65,127
39719,note_on,0,0,0,,10,,,69,127
39719,note_on,0,0,0,,0,,,72,127
39838,note_off,119,0,0,,0,,,72,127
39839,note_on,1,0,0,,2,,,74,127
39958,note_off,119,0,0,,2,,,74,127
39959,note_on,1,0,0,,3,,,75,127
40078,note_off,119,0,0,,3,,,75,127
40078,note_off,0,0,0,,10,,,69,127
40078,note_off,0,0,0,,5,,,65,127
40078,note_off,0,0,0,,3,,,63,127
40079,note_on,1,0,0,,5,,,65,127
40079,note_on,0,0,0,,2,,,62,127
40079,note_on,0,0,0,,5,,,77,127
40198,note_off,119,0,0,,5,,,77,127
40199,note_on,1,0,0,,2,,,74,127
40318,note_off,119,0,0,,2,,,74,127
40319,note_on,1,0,0,,11,,,70,127
40438,note_off,119,0,0,,11,,,70,127
40438,note_off,0,0,0,,2,,,62,127
40438,note_off,0,0,0,,5,,,65,127
40439,note_on,1,0,0,,3,,,63,127
40439,note_on,0,0,0,,5,,,65,127
40439,note_on,0,0,0,,10,,,69,127
40439,note_on,0,0,0,,0,,,72,127
40558,note_off,119,0,0,,0,,,72,127
40559,note_on,1,0,0,,2,,,74,127
40678,note_off,119,0,0,,2,,,74,127
40679,note_on,1,0,0,,3,,,75,127
40798,note_off,119,0,0,,3,,,75,127
40798,note_off,0,0,0,,10,,,69,127
40798,note_off,0,0,0,,5,,,65,127
40798,note_off,0,0,0,,3,,,63,127
40799,note_on,1,0,0,,5,,,65,127
40799,note_on,0,0,0,,2,,,62,127
40799,note_on,0,0,0,,5,,,77,127
40918,note_off,119,0,0,,5,,,77,127
40919,note_on,1,0,0,,2,,,74,127
41038,note_off,119,0,0,,2,,,74,127
41039,note_on,1,0,0,,11,,,70,127
41158,note_off,119,0,0,,11,,,70,127
41158,note_off,0,0,0,,2,,,62,127
41158,note_off,0,0,0,,5,,,65,127
41159,note_on,1,0,0,,0,,,60,127
41159,note_on,0,0,0,,5,,,65,127
41159,note_on,0,0,0,,3,,,75,127
41159,note_on,0,0,0,,5,,,77,127
41278,note_off,119,0,0,,5,,,77,127
41278,note_off,0,0,0,,3,,,75,127
41279,note_on,1,0,0,,2,,,74,127
41398,note_off,119,0,0,,2,,,74,127
41399,note_on,1,0,0,,3,,,75,127
41518,note_off,119,0,0,,3,,,75,127
41518,note_off,0,0,0,,5,,,65,127
41518,note_off,0,0,0,,0,,,60,127
41519,note_on,1,0,0,,11,,,58,127
41519,note_on,0,0,0,,5,,,65,127
41519,note_on,0,0,0,,2,,,62,127
41519,note_on,0,0,0,,5,,,77,127
41519,note_on,0,0,0,,2,,,74,127
41638,note_off,119,0,0,,2,,,74,127
41639,note_on,1,0,0,,0,,,72,127
41758,note_off,119,0,0,,0,,,72,127
41759,note_on,1,0,0,,2,,,74,127
41878,note_off,119,0,0,,2,,,74,127
41878,note_off,0,0,0,,5,,,77,127
41878,note_off,0,0,0,,2,,,62,127
41878,note_off,0,0,0,,5,,,65,127
41878,note_off,0,0,0,,11,,,58,127
41879,note_on,1,0,0,,5,,,65,127
41879,note_on,0,0,0,,0,,,60,127
41879,note_on,0,0,0,,8,,,56,127
41879,note_on,0,0,0,,5,,,77,127
41879,note_on,0,0,0,,0,,,72,127
41998,note_off,119,0,0,,0,,,72,127
41999,note_on,1,0,0,,12,,,71,127
42118,note_off,119,0,0,,12,,,71,127
42119,note_on,1,0,0,,0,,,72,127
42238,note_off,119,0,0,,0,,,72,127
42238,note_off,0,0,0,,5,,,77,127
42238,note_off,0,0,0,,8,,,56,127
42238,note_off,0,0,0,,0,,,60,127
42238,note_off,0,0,0,,5,,,65,127
42239,note_on,1,0,0,,7,,,55,127
42239,note_on,0,0,0,,5,,,65,127
42239,note_on,0,0,0,,12,,,71,127
42239,note_on,0,0,0,,7,,,79,127
42358,note_off,119,0,0,,12,,,71,127
42359,note_on,1,0,0,,0,,,72,127
42478,note_off,119,0,0,,0,,,72,127
42479,note_on,1,0,0,,12,,,71,127
42598,note_off,119,0,0,,12,,,71,127
42598,note_off,0,0,0,,7,,,79,127
42598,note_off,0,0,0,,5,,,65,127
42598,note_off,0,0,0,,7,,,55,127
42599,note_on,1,0,0,,5,,,53,127
42599,note_on,0,0,0,,12,,,59,127
42599,note_on,0,0,0,,2,,,62,127
42599,note_on,0,0,0,,0,,,60,127
42599,note_on,0,0,0,,12,,,71,127
42599,note_on,0,0,0,,8,,,80,127
42718,note_off,119,0,0,,12,,,71,127
42719,note_on,1,0,0,,0,,,72,127
42838,note_off,119,0,0,,0,,,72,127
42839,note_on,1,0,0,,12,,,71,127
42958,note_off,119,0,0,,12,,,71,127
42958,note_off,0,0,0,,8,,,80,127
42958,note_off,0,0,0,,0,,,60,127
42958,note_off,0,0,0,,2,,,62,127
42958,note_off,0,0,0,,12,,,59,127
42958,note_off,0,0,0,,5,,,53,127
42959,note_on,1,0,0,,3,,,51,127
42959,note_on,0,0,0,,0,,,60,127
42959,note_on,0,0,0,,7,,,55,127
42959,note_on,0,0,0,,0,,,72,127
42959,note_on,0,0,0,,7,,,79,127
43078,note_off,119,0,0,,0,,,72,127
43079,note_on,1,0,0,,12,,,71,127
43198,note_off,119,0,0,,12,,,71,127
43199,note_on,1,0,0,,0,,,72,127
43318,note_off,119,0,0,,0,,,72,127
43318,note_off,0,0,0,,7,,,79,127
43318,note_off,0,0,0,,7,,,55,127
43318,note_off,0,0,0,,0,,,60,127
43318,note_off,0,0,0,,3,,,51,127
43319,note_on,1,0,0,,2,,,50,127
43319,note_on,0,0,0,,7,,,55,127
43319,note_on,0,0,0,,12,,,59,127
43319,note_on,0,0,0,,5,,,53,127
43319,note_on,0,0,0,,2,,,74,127
43319,note_on,0,0,0,,5,,,77,127
43438,note_off,119,0,0,,2,,,74,127
43439,note_on,1,0,0,,0,,,72,127
43558,note_off,119,0,0,,0,,,72,127
43559,note_on,1,0,0,,2,,,74,127
43678,note_off,119,0,0,,2,,,74,127
43678,note_off,0,0,0,,5,,,77,127
43678,note_off,0,0,0,,5,,,53,127
43678,note_off,0,0,0,,12,,,59,127
43678,note_off,0,0,0,,7,,,55,127
43678,note_off,0,0,0,,2,,,50,127
43679,note_on,1,0,0,,0,,,60,127
43679,note_on,0,0,0,,7,,,67,127
43679,note_on,0,0,0,,5,,,77,127
43679,note_on,0,0,0,,3,,,75,127
43798,note_off,119,0,0,,3,,,75,127
43798,note_off,0,0,0,,5,,,77,127
43799,note_on,1,0,0,,2,,,74,127
43918,note_off,119,0,0,,2,,,74,127
43919,note_on,1,0,0,,3,,,75,127
44038,note_off,119,0,0,,3,,,75,127
44038,note_off,0,0,0,,7,,,67,127
44038,note_off,0,0,0,,0,,,60,127
44039,note_on,1,0,0,,11,,,58,127
44039,note_on,0,0,0,,7,,,67,127
44039,note_on,0,0,0,,2,,,74,127
44039,note_on,0,0,0,,7,,,79,127
44158,note_off,119,0,0,,2,,,74,127
44159,note_on,1,0,0,,1,,,73,127
44278,note_off,119,0,0,,1,,,73,127
44279,note_on,1,0,0,,2,,,74,127
44398,note_off,119,0,0,,2,,,74,127
44398,note_off,0,0,0,,7,,,79,127
44398,note_off,0,0,0,,7,,,67,127
44398,note_off,0,0,0,,11,,,58,127
44399,note_on,1,0,0,,10,,,57,127
44399,note_on,0,0,0,,4,,,64,127
44399,note_on,0,0,0,,7,,,67,127
44399,note_on,0,0,0,,10,,,81,127
44399,note_on,0,0,0,,1,,,73,127
44518,note_off,119,0,0,,1,,,73,127
44519,note_on,1,0,0,,2,,,74,127
44638,note_off,119,0,0,,2,,,74,127
44639,note_on,1,0,0,,1,,,73,127
44758,note_off,119,0,0,,1,,,73,127
44758,note_off,0,0,0,,10,,,81,127
44758,note_off,0,0,0,,7,,,67,127
44758,note_off,0,0,0,,4,,,64,127
44758,note_off,0,0,0,,10,,,57,127
44759,note_on,1,0,0,,7,,,55,127
44759,note_on,0,0,0,,1,,,61,127
44759,note_on,0,0,0,,4,,,64,127
44759,note_on,0,0,0,,5,,,65,127
44759,note_on,0,0,0,,11,,,82,127
44759,note_on,0,0,0,,1,,,73,127
44878,note_off,119,0,0,,1,,,73,127
44879,note_on,1,0,0,,2,,,74,127
44998,note_off,119,0,0,,2,,,74,127
44999,note_on,1,0,0,,1,,,73,127
45118,note_off,119,0,0,,1,,,73,127
45118,note_off,0,0,0,,11,,,82,127
45118,note_off,0,0,0,,5,,,65,127
45118,note_off,0,0,0,,4,,,64,127
45118,note_off,0,0,0,,1,,,61,127
45118,note_off,0,0,0,,7,,,55,127
45119,note_on,1,0,0,,10,,,57,127
45119,note_on,0,0,0,,5,,,53,127
45119,note_on,0,0,0,,2,,,62,127
45119,note_on,0,0,0,,10,,,81,127
45119,note_on,0,0,0,,2,,,74,127
45238,note_off,119,0,0,,2,,,74,127
45239,note_on,1,0,0,,1,,,73,127
45358,note_off,119,0,0,,1,,,73,127
45359,note_on,1,0,0,,2,,,74,127
45478,note_off,119,0,0,,2,,,74,127
45478,note_off,0,0,0,,10,,,81,127
45478,note_off,0,0,0,,2,,,62,127
45478,note_off,0,0,0,,5,,,53,127
45478,note_off,0,0,0,,10,,,57,127
45479,note_on,1,0,0,,4,,,52,127
45479,note_on,0,0,0,,7,,,55,127
45479,note_on,0,0,0,,1,,,61,127
45479,note_on,0,0,0,,10,,,57,127
45479,note_on,0,0,0,,4,,,76,127
45479,note_on,0,0,0,,7,,,79,127
45598,note_off,119,0,0,,4,,,76,127
45599,note_on,1,0,0,,2,,,74,127
45718,note_off,119,0,0,,2,,,74,127
45719,note_on,1,0,0,,4,,,76,127
45838,note_off,119,0,0,,4,,,76,127
45838,note_off,0,0,0,,7,,,79,127
45838,note_off,0,0,0,,10,,,57,127
45838,note_off,0,0,0,,1,,,61,127
45838,note_off,0,0,0,,7,,,55,127
45838,note_off,0,0,0,,4,,,52,127
45839,note_on,1,0,0,,2,,,50,127
45839,note_on,0,0,0,,10,,,57,127
45839,note_on,0,0,0,,2,,,62,127
45839,note_on,0,0,0,,7,,,79,127
45839,note_on,0,0,0,,5,,,77,127
45958,note_off,119,0,0,,5,,,77,127
45958,note_off,0,0,0,,7,,,79,127
45959,note_on,1,0,0,,4,,,76,127
46078,note_off,119,0,0,,4,,,76,127
46079,note_on,1,0,0,,5,,,77,127
46198,note_off,119,0,0,,5,,,77,127
46198,note_off,0,0,0,,2,,,62,127
46198,note_off,0,0,0,,10,,,57,127
46198,note_off,0,0,0,,2,,,50,127
46199,note_on,1,0,0,,0,,,60,127
46199,note_on,0,0,0,,5,,,65,127
46199,note_on,0,0,0,,3,,,75,127
46199,note_on,0,0,0,,5,,,77,127
46318,note_off,119,0,0,,3,,,75,127
46319,note_on,1,0,0,,2,,,74,127
46438,note_off,119,0,0,,2,,,74,127
46439,note_on,1,0,0,,3,,,75,127
46558,note_off,119,0,0,,3,,,75,127
46558,note_off,0,0,0,,5,,,77,127
46558,note_off,0,0,0,,5,,,65,127
46558,note_off,0,0,0,,0,,,60,127
46559,note_on,1,0,0,,11,,,58,127
46559,note_on,0,0,0,,5,,,65,127
46559,note_on,0,0,0,,5,,,77,127
46559,note_on,0,0,0,,2,,,74,127
46678,note_off,119,0,0,,2,,,74,127
46679,note_on,1,0,0,,0,,,72,127
46798,note_off,119,0,0,,0,,,72,127
46799,note_on,1,0,0,,2,,,74,127
46918,note_off,119,0,0,,2,,,74,127
46918,note_off,0,0,0,,5,,,77,127
46918,note_off,0,0,0,,5,,,65,127
46918,note_off,0,0,0,,11,,,58,127
46919,note_on,1,0,0,,10,,,57,127
46919,note_on,0,0,0,,0,,,60,127
46919,note_on,0,0,0,,5,,,65,127
46919,note_on,0,0,0,,5,,,77,127
46919,note_on,0,0,0,,0,,,72,127
47038,note_off,119,0,0,,0,,,72,127
47039,note_on,1,0,0,,11,,,70,127
47158,note_off,119,0,0,,11,,,70,127
47159,note_on,1,0,0,,0,,,72,127
47278,note_off,119,0,0,,0,,,72,127
47278,note_off,0,0,0,,5,,,77,127
47278,note_off,0,0,0,,5,,,65,127
47278,note_off,0,0,0,,0,,,60,127
47278,note_off,0,0,0,,10,,,57,127
47279,note_on,1,0,0,,11,,,58,127
47279,note_on,0,0,0,,7,,,55,127
47279,note_on,0,0,0,,5,,,65,127
47279,note_on,0,0,0,,11,,,70,127
47279,note_on,0,0,0,,5,,,77,127
47398,note_off,119,0,0,,11,,,70,127
47399,note_on,1,0,0,,2,,,74,127
47518,note_off,119,0,0,,2,,,74,127
47519,note_on,1,0,0,,0,,,72,127
47638,note_off,119,0,0,,0,,,72,127
47638,note_off,0,0,0,,5,,,77,127
47638,note_off,0,0,0,,5,,,65,127
47638,note_off,0,0,0,,7,,,55,127
47638,note_off,0,0,0,,11,,,58,127
47639,note_on,1,0,0,,7,,,55,127
47639,note_on,0,0,0,,4,,,64,127
47639,note_on,0,0,0,,11,,,58,127
47639,note_on,0,0,0,,11,,,70,127
47639,note_on,0,0,0,,4,,,76,127
47758,note_off,119,0,0,,11,,,70,127
47759,note_on,1,0,0,,10,,,69,127
47878,note_off,119,0,0,,10,,,69,127
47879,note_on,1,0,0,,11,,,70,127
47998,note_off,119,0,0,,11,,,70,127
47998,note_off,0,0,0,,4,,,76,127
47998,note_off,0,0,0,,11,,,58,127
47998,note_off,0,0,0,,4,,,64,127
47998,note_off,0,0,0,,7,,,55,127
47999,note_on,1,0,0,,5,,,53,127
47999,note_on,0,0,0,,0,,,60,127
47999,note_on,0,0,0,,5,,,65,127
47999,note_on,0,0,0,,5,,,77,127
47999,note_on,0,0,0,,10,,,69,127
48118,note_off,119,0,0,,10,,,69,127
48119,note_on,1,0,0,,11,,,70,127
48238,note_off,119,0,0,,11,,,70,127
48239,note_on,1,0,0,,0,,,72,127
48311,note_off,72,0,0,,5,,,77,127
48357,note_off,46,0,0,,0,,,72,127
48357,note_off,0,0,0,,5,,,65,127
48357,note_off,0,0,0,,0,,,60,127
48357,note_off,0,0,0,,5,,,53,127
48358,note_on,1,0,0,,7,,,55,127
48358,note_on,0,0,0,,11,,,58,127
48358,note_on,0,0,0,,4,,,64,127
48358,note_on,0,0,0,,11,,,70,127
48358,note_on,0,0,0,,4,,,76,127
48477,note_off,119,0,0,,11,,,70,127
48478,note_on,1,0,0,,10,,,69,127
48597,note_off,119,0,0,,10,,,69,127
48598,note_on,1,0,0,,11,,,70,127
48670,note_off,72,0,0,,4,,,76,127
48716,note_off,46,0,0,,11,,,70,127
48716,note_off,0,0,0,,4,,,64,127
48716,note_off,0,0,0,,11,,,58,127
48716,note_off,0,0,0,,7,,,55,127
48717,note_on,1,0,0,,5,,,53,127
48717,note_on,0,0,0,,5,,,65,127
48717,note_on,0,0,0,,0,,,60,127
48717,note_on,0,0,0,,5,,,77,127
48717,note_on,0,0,0,,10,,,69,127
48836,note_off,119,0,0,,10,,,69,127
48837,note_on,1,0,0,,11,,,70,127
48956,note_off,119,0,0,,11,,,70,127
48957,note_on,1,0,0,,0,,,72,127
48992,note_off,35,0,0,,5,,,77,127
49076,note_off,84,0,0,,0,,,72,127
49076,note_off,0,0,0,,0,,,60,127
49076,note_off,0,0,0,,5,,,65,127
49076,note_off,0,0,0,,5,,,53,127
49077,note_on,1,0,0,,7,,,55,127
49077,note_on,0,0,0,,4,,,64,127
49077,note_on,0,0,0,,11,,,58,127
49077,note_on,0,0,0,,4,,,76,127
49077,note_on,0,0,0,,11,,,70,127
49196,note_off,119,0,0,,11,,,70,127
49197,note_on,1,0,0,,10,,,69,127
49316,note_off,119,0,0,,10,,,69,127
49317,note_on,1,0,0,,11,,,70,127
49352,note_off,35,0,0,,4,,,76,127
49436,note_off,84,0,0,,11,,,70,127
49436,note_off,0,0,0,,11,,,58,127
49436,note_off,0,0,0,,4,,,64,127
49436,note_off,0,0,0,,7,,,55,127
49437,note_on,1,0,0,,5,,,65,127
49437,note_on,0,0,0,,5,,,77,127
49437,note_on,0,0,0,,10,,,69,127
49556,note_off,119,0,0,,5,,,65,127
49557,note_on,1,0,0,,0,,,60,127
49675,note_off,118,0,0,,5,,,77,127
49676,note_off,1,0,0,,0,,,60,127
49677,note_on,1,0,0,,10,,,57,127
49796,note_off,119,0,0,,10,,,57,127
49796,note_off,0,0,0,,10,,,69,127
49797,note_on,1,0,0,,5,,,53,127
49797,note_on,0,0,0,,10,,,81,127
49916,note_off,119,0,0,,5,,,53,127
49917,note_on,1,0,0,,0,,,48,127
50036,note_off,119,0,0,,0,,,48,127
50037,note_on,1,0,0,,10,,,45,127
50156,note_off,119,0,0,,10,,,45,127
50157,note_on,1,0,0,,5,,,41,127
50259,note_off,102,0,0,,10,,,81,127
50277,note_on,18,0,0,,0,,,84,127
50396,note_off,119,0,0,,0,,,84,127
50397,note_on,1,0,0,,10,,,81,127
50516,note_off,119,0,0,,10,,,81,127
50517,note_on,1,0,0,,5,,,77,127
50636,note_off,119,0,0,,5,,,77,127
50637,note_on,1,0,0,,0,,,72,127
50756,note_off,119,0,0,,0,,,72,127
50757,note_on,1,0,0,,5,,,77,127
50876,note_off,119,0,0,,5,,,77,127
50876,note_off,0,0,0,,5,,,41,127
50877,note_on,1,0,0,,5,,,65,127
50877,note_on,0,0,0,,7,,,79,127
50906,note_off,29,0,0,,7,,,79,127
50907,note_on,1,0,0,,5,,,77,127
50936,note_off,29,0,0,,5,,,77,127
50937,note_on,1,0,0,,7,,,79,127
50966,note_off,29,0,0,,7,,,79,127
50967,note_on,1,0,0,,5,,,77,127
50996,note_off,29,0,0,,5,,,65,127
50997,note_on,1,0,0,,0,,,60,127
51116,note_off,119,0,0,,0,,,60,127
51117,note_on,1,0,0,,10,,,57,127
51205,note_off,88,0,0,,5,,,77,127
51236,note_off,31,0,0,,10,,,57,127
51237,note_on,1,0,0,,5,,,53,127
51237,note_on,0,0,0,,10,,,81,127
51356,note_off,119,0,0,,5,,,53,127
51357,note_on,1,0,0,,0,,,48,127
51476,note_off,119,0,0,,0,,,48,127
51477,note_on,1,0,0,,10,,,45,127
51596,note_off,119,0,0,,10,,,45,127
51597,note_on,1,0,0,,5,,,41,127
51716,note_off,119,0,0,,10,,,81,127
51717,note_on,1,0,0,,0,,,84,127
51836,note_off,119,0,0,,0,,,84,127
51837,note_on,1,0,0,,10,,,81,127
51956,note_off,119,0,0,,10,,,81,127
51957,note_on,1,0,0,,5,,,77,127
52076,note_off,119,0,0,,5,,,77,127
52077,note_on,1,0,0,,0,,,72,127
52196,note_off,119,0,0,,0,,,72,127
52197,note_on,1,0,0,,5,,,77,127
52316,note_off,119,0,0,,5,,,77,127
52316,note_off,0,0,0,,5,,,41,127
52317,note_on,1,0,0,,5,,,65,127
52317,note_on,0,0,0,,7,,,79,127
52346,note_off,29,0,0,,7,,,79,127
52347,note_on,1,0,0,,5,,,77,127
52376,note_off,29,0,0,,5,,,77,127
52377,note_on,1,0,0,,7,,,79,127
52406,note_off,29,0,0,,7,,,79,127
52407,note_on,1,0,0,,5,,,77,127
52436,note_off,29,0,0,,5,,,65,127
52437,note_on,1,0,0,,0,,,60,127
52556,note_off,119,0,0,,0,,,60,127
52557,note_on,1,0,0,,10,,,57,127
52645,note_off,88,0,0,,5,,,77,127
52676,note_off,31,0,0,,10,,,57,127
52677,note_on,1,0,0,,5,,,53,127
52677,note_on,0,0,0,,10,,,81,127
52796,note_off,119,0,0,,5,,,53,127
52797,note_on,1,0,0,,0,,,48,127
52916,note_off,119,0,0,,0,,,48,127
52917,note_on,1,0,0,,10,,,45,127
53036,note_off,119,0,0,,10,,,45,127
53037,note_on,1,0,0,,5,,,41,127
53156,note_off,119,0,0,,10,,,81,127
53157,note_on,1,0,0,,0,,,84,127
53276,note_off,119,0,0,,0,,,84,127
53277,note_on,1,0,0,,10,,,81,127
53396,note_off,119,0,0,,10,,,81,127
53397,note_on,1,0,0,,5,,,77,127
53516,note_off,119,0,0,,5,,,77,127
53517,note_on,1,0,0,,0,,,72,127
53636,note_off,119,0,0,,0,,,72,127
53637,note_on,1,0,0,,10,,,69,127
53756,note_off,119,0,0,,10,,,69,127
53757,note_on,1,0,0,,5,,,65,127
53876,note_off,119,0,0,,5,,,65,127
53877,note_on,1,0,0,,0,,,60,127
53996,note_off,119,0,0,,0,,,60,127
53997,note_on,1,0,0,,10,,,57,127
54116,note_off,119,0,0,,10,,,57,127
54116,note_off,0,0,0,,5,,,41,127
54117,note_on,1,0,0,,5,,,53,127
54236,note_off,119,0,0,,5,,,53,127
54237,note_on,1,0,0,,0,,,48,127
54356,note_off,119,0,0,,0,,,48,127
54357,note_on,1,0,0,,10,,,45,127
54476,note_off,119,0,0,,10,,,45,127
54477,note_on,1,0,0,,5,,,41,127
55196,note_off,719,0,0,,5,,,41,127
55557,note_on,361,0,0,,10,,,57,127
55797,note_on,240,0,0,,5,,,65,127
55916,note_off,119,0,0,,5,,,65,127
55917,note_on,1,0,0,,3,,,75,127
56156,note_off,239,0,0,,10,,,57,127
56157,note_on,1,0,0,,10,,,57,127
56276,note_off,119,0,0,,10,,,57,127
56277,note_on,1,0,0,,6,,,66,127
56277,note_on,0,0,0,,3,,,63,127
56277,note_on,0,0,0,,11,,,58,127
56396,note_off,119,0,0,,3,,,75,127
56397,note_on,1,0,0,,1,,,73,127
56516,note_off,119,0,0,,1,,,73,127
56517,note_on,1,0,0,,0,,,72,127
56636,note_off,119,0,0,,0,,,72,127
56636,note_off,0,0,0,,11,,,58,127
56636,note_off,0,0,0,,3,,,63,127
56636,note_off,0,0,0,,6,,,66,127
56637,note_on,1,0,0,,11,,,70,127
56637,note_on,0,0,0,,6,,,66,127
56637,note_on,0,0,0,,3,,,63,127
56637,note_on,0,0,0,,11,,,58,127
56756,note_off,119,0,0,,11,,,70,127
56757,note_on,1,0,0,,10,,,69,127
56876,note_off,119,0,0,,10,,,69,127
56877,note_on,1,0,0,,11,,,70,127
56996,note_off,119,0,0,,11,,,70,127
56996,note_off,0,0,0,,11,,,58,127
56996,note_off,0,0,0,,3,,,63,127
56996,note_off,0,0,0,,6,,,66,127
56997,note_on,1,0,0,,0,,,72,127
56997,note_on,0,0,0,,3,,,63,127
56997,note_on,0,0,0,,5,,,65,127
56997,note_on,0,0,0,,0,,,60,127
56997,note_on,0,0,0,,10,,,57,127
57116,note_off,119,0,0,,0,,,72,127
57117,note_on,1,0,0,,10,,,69,127
57236,note_off,119,0,0,,10,,,69,127
57237,note_on,1,0,0,,0,,,72,127
57356,note_off,119,0,0,,0,,,72,127
57357,note_on,1,0,0,,3,,,75,127
57596,note_off,239,0,0,,10,,,57,127
57596,note_off,0,0,0,,0,,,60,127
57596,note_off,0,0,0,,5,,,65,127
57596,note_off,0,0,0,,3,,,63,127
57597,note_on,1,0,0,,3,,,63,127
57597,note_on,0,0,0,,5,,,65,127
57597,note_on,0,0,0,,0,,,60,127
57597,note_on,0,0,0,,10,,,57,127
57716,note_off,119,0,0,,10,,,57,127
57716,note_off,0,0,0,,0,,,60,127
57716,note_off,0,0,0,,5,,,65,127
57716,note_off,0,0,0,,3,,,63,127
57717,note_on,1,0,0,,6,,,66,127
57717,note_on,0,0,0,,11,,,58,127
57717,note_on,0,0,0,,3,,,63,127
57836,note_off,119,0,0,,3,,,75,127
57837,note_on,1,0,0,,1,,,73,127
57956,note_off,119,0,0,,1,,,73,127
57957,note_on,1,0,0,,0,,,72,127
58076,note_off,119,0,0,,0,,,72,127
58076,note_off,0,0,0,,3,,,63,127
58076,note_off,0,0,0,,11,,,58,127
58076,note_off,0,0,0,,6,,,66,127
58077,note_on,1,0,0,,11,,,70,127
58077,note_on,0,0,0,,6,,,66,127
58077,note_on,0,0,0,,3,,,63,127
58077,note_on,0,0,0,,11,,,58,127
58196,note_off,119,0,0,,11,,,70,127
58197,note_on,1,0,0,,10,,,69,127
58316,note_off,119,0,0,,10,,,69,127
58317,note_on,1,0,0,,11,,,70,127
58436,note_off,119,0,0,,11,,,70,127
58436,note_off,0,0,0,,11,,,58,127
58436,note_off,0,0,0,,3,,,63,127
58436,note_off,0,0,0,,6,,,66,127
58437,note_on,1,0,0,,0,,,72,127
58437,note_on,0,0,0,,5,,,65,127
58437,note_on,0,0,0,,3,,,63,127
58437,note_on,0,0,0,,0,,,60,127
58437,note_on,0,0,0,,10,,,57,127
58556,note_off,119,0,0,,0,,,72,127
58557,note_on,1,0,0,,10,,,69,127
58676,note_off,119,0,0,,10,,,69,127
58677,note_on,1,0,0,,3,,,75,127
58796,note_off,119,0,0,,3,,,75,127
58797,note_on,1,0,0,,6,,,78,127
59036,note_off,239,0,0,,10,,,57,127
59036,note_off,0,0,0,,0,,,60,127
59036,note_off,0,0,0,,3,,,63,127
59036,note_off,0,0,0,,5,,,65,127
59037,note_on,1,0,0,,5,,,65,127
59037,note_on,0,0,0,,10,,,57,127
59037,note_on,0,0,0,,0,,,60,127
59037,note_on,0,0,0,,3,,,63,127
59156,note_off,119,0,0,,3,,,63,127
59156,note_off,0,0,0,,0,,,60,127
59156,note_off,0,0,0,,10,,,57,127
59156,note_off,0,0,0,,5,,,65,127
59157,note_on,1,0,0,,6,,,66,127
59157,note_on,0,0,0,,3,,,63,127
59157,note_on,0,0,0,,11,,,58,127
59276,note_off,119,0,0,,6,,,78,127
59277,note_on,1,0,0,,5,,,77,127
59396,note_off,119,0,0,,5,,,77,127
59397,note_on,1,0,0,,3,,,75,127
59516,note_off,119,0,0,,3,,,75,127
59516,note_off,0,0,0,,11,,,58,127
59516,note_off,0,0,0,,3,,,63,127
59516,note_off,0,0,0,,6,,,66,127
59517,note_on,1,0,0,,1,,,73,127
59517,note_on,0,0,0,,6,,,66,127
59517,note_on,0,0,0,,11,,,58,127
59517,note_on,0,0,0,,3,,,63,127
59636,note_off,119,0,0,,1,,,73,127
59637,note_on,1,0,0,,0,,,72,127
59756,note_off,119,0,0,,0,,,72,127
59757,note_on,1,0,0,,11,,,70,127
59876,note_off,119,0,0,,11,,,70,127
59876,note_off,0,0,0,,3,,,63,127
59876,note_off,0,0,0,,11,,,58,127
59876,note_off,0,0,0,,6,,,66,127
59877,note_on,1,0,0,,0,,,72,127
59877,note_on,0,0,0,,5,,,65,127
59877,note_on,0,0,0,,3,,,63,127
59877,note_on,0,0,0,,0,,,60,127
59877,note_on,0,0,0,,10,,,57,127
59996,note_off,119,0,0,,0,,,72,127
59997,note_on,1,0,0,,10,,,69,127
60116,note_off,119,0,0,,10,,,69,127
60117,note_on,1,0,0,,3,,,75,127
60236,note_off,119,0,0,,3,,,75,127
60237,note_on,1,0,0,,6,,,78,127
60476,note_off,239,0,0,,10,,,57,127
60476,note_off,0,0,0,,0,,,60,127
60476,note_off,0,0,0,,3,,,63,127
60476,note_off,0,0,0,,5,,,65,127
60477,note_on,1,0,0,,5,,,65,127
60477,note_on,0,0,0,,3,,,63,127
60477,note_on,0,0,0,,10,,,57,127
60477,note_on,0,0,0,,0,,,60,127
60596,note_off,119,0,0,,0,,,60,127
60596,note_off,0,0,0,,10,,,57,127
60596,note_off,0,0,0,,3,,,63,127
60596,note_off,0,0,0,,5,,,65,127
60597,note_on,1,0,0,,3,,,63,127
60597,note_on,0,0,0,,6,,,66,127
60597,note_on,0,0,0,,11,,,58,127
60716,note_off,119,0,0,,6,,,78,127
60717,note_on,1,0,0,,5,,,77,127
60836,note_off,119,0,0,,5,,,77,127
60837,note_on,1,0,0,,3,,,75,127
60956,note_off,119,0,0,,3,,,75,127
60956,note_off,0,0,0,,11,,,58,127
60956,note_off,0,0,0,,6,,,66,127
60956,note_off,0,0,0,,3,,,63,127
60957,note_on,1,0,0,,2,,,74,127
60957,note_on,0,0,0,,12,,,83,127
60957,note_on,0,0,0,,5,,,65,127
60957,note_on,0,0,0,,8,,,56,127
61076,note_off,119,0,0,,2,,,74,127
61077,note_on,1,0,0,,3,,,75,127
61196,note_off,119,0,0,,3,,,75,127
61197,note_on,1,0,0,,2,,,74,127
61316,note_off,119,0,0,,2,,,74,127
61316,note_off,0,0,0,,8,,,56,127
61316,note_off,0,0,0,,5,,,65,127
61316,note_off,0,0,0,,12,,,83,127
61317,note_on,1,0,0,,11,,,82,127
61317,note_on,0,0,0,,3,,,75,127
61317,note_on,0,0,0,,3,,,63,127
61317,note_on,0,0,0,,6,,,54,127
61436,note_off,119,0,0,,3,,,75,127
61437,note_on,1,0,0,,2,,,74,127
61556,note_off,119,0,0,,2,,,74,127
61557,note_on,1,0,0,,3,,,75,127
61676,note_off,119,0,0,,3,,,75,127
61676,note_off,0,0,0,,6,,,54,127
61676,note_off,0,0,0,,3,,,63,127
61676,note_off,0,0,0,,11,,,82,127
61677,note_on,1,0,0,,2,,,74,127
61677,note_on,0,0,0,,12,,,83,127
61677,note_on,0,0,0,,5,,,65,127
61677,note_on,0,0,0,,8,,,56,127
61796,note_off,119,0,0,,2,,,74,127
61797,note_on,1,0,0,,3,,,75,127
61916,note_off,119,0,0,,3,,,75,127
61917,note_on,1,0,0,,2,,,74,127
62036,note_off,119,0,0,,2,,,74,127
62036,note_off,0,0,0,,8,,,56,127
62036,note_off,0,0,0,,5,,,65,127
62036,note_off,0,0,0,,12,,,83,127
62037,note_on,1,0,0,,3,,,75,127
62037,note_on,0,0,0,,11,,,82,127
62037,note_on,0,0,0,,3,,,63,127
62037,note_on,0,0,0,,6,,,54,127
62156,note_off,119,0,0,,3,,,75,127
62157,note_on,1,0,0,,2,,,74,127
62276,note_off,119,0,0,,2,,,74,127
62277,note_on,1,0,0,,3,,,75,127
62396,note_off,119,0,0,,3,,,75,127
62396,note_off,0,0,0,,6,,,54,127
62396,note_off,0,0,0,,3,,,63,127
62396,note_off,0,0,0,,11,,,82,127
62397,note_on,1,0,0,,2,,,74,127
62397,note_on,0,0,0,,12,,,83,127
62397,note_on,0,0,0,,5,,,65,127
62397,note_on,0,0,0,,8,,,56,127
62516,note_off,119,0,0,,2,,,74,127
62517,note_on,1,0,0,,3,,,75,127
62636,note_off,119,0,0,,3,,,75,127
62637,note_on,1,0,0,,2,,,74,127
62756,note_off,119,0,0,,2,,,74,127
62756,note_off,0,0,0,,8,,,56,127
62756,note_off,0,0,0,,5,,,65,127
62756,note_off,0,0,0,,12,,,83,127
62757,note_on,1,0,0,,11,,,82,127
62757,note_on,0,0,0,,3,,,75,127
62757,note_on,0,0,0,,3,,,63,127
62757,note_on,0,0,0,,6,,,54,127
62876,note_off,119,0,0,,3,,,75,127
62877,note_on,1,0,0,,2,,,74,127
62996,note_off,119,0,0,,2,,,74,127
62997,note_on,1,0,0,,3,,,75,127
63116,note_off,119,0,0,,3,,,75,127
63116,note_off,0,0,0,,6,,,54,127
63116,note_off,0,0,0,,3,,,63,127
63116,note_off,0,0,0,,11,,,82,127
63117,note_on,1,0,0,,5,,,77,127
63117,note_on,0,0,0,,3,,,75,127
63117,note_on,0,0,0,,5,,,53,127
63236,note_off,119,0,0,,3,,,75,127
63237,note_on,1,0,0,,2,,,74,127
63237,note_on,0,0,0,,7,,,55,127
63356,note_off,119,0,0,,7,,,55,127
63356,note_off,0,0,0,,2,,,74,127
63357,note_on,1,0,0,,0,,,72,127
63357,note_on,0,0,0,,10,,,57,127
63476,note_off,119,0,0,,10,,,57,127
63476,note_off,0,0,0,,0,,,72,127
63476,note_off,0,0,0,,5,,,53,127
63476,note_off,0,0,0,,5,,,77,127
63477,note_on,1,0,0,,2,,,74,127
63477,note_on,0,0,0,,5,,,77,127
63477,note_on,0,0,0,,11,,,58,127
63477,note_on,0,0,0,,5,,,53,127
63596,note_off,119,0,0,,11,,,58,127
63596,note_off,0,0,0,,2,,,74,127
63597,note_on,1,0,0,,0,,,72,127
63597,note_on,0,0,0,,10,,,57,127
63716,note_off,119,0,0,,10,,,57,127
63716,note_off,0,0,0,,0,,,72,127
63717,note_on,1,0,0,,2,,,74,127
63717,note_on,0,0,0,,11,,,58,127
63836,note_off,119,0,0,,11,,,58,127
63836,note_off,0,0,0,,2,,,74,127
63836,note_off,0,0,0,,5,,,53,127
63836,note_off,0,0,0,,5,,,77,127
63837,note_on,1,0,0,,5,,,77,127
63837,note_on,0,0,0,,3,,,75,127
63837,note_on,0,0,0,,0,,,60,127
63837,note_on,0,0,0,,5,,,53,127
63956,note_off,119,0,0,,0,,,60,127
63956,note_off,0,0,0,,3,,,75,127
63957,note_on,1,0,0,,2,,,74,127
63957,note_on,0,0,0,,11,,,58,127
64076,note_off,119,0,0,,11,,,58,127
64076,note_off,0,0,0,,2,,,74,127
64077,note_on,1,0,0,,0,,,72,127
64077,note_on,0,0,0,,10,,,57,127
64196,note_off,119,0,0,,10,,,57,127
64196,note_off,0,0,0,,0,,,72,127
64196,note_off,0,0,0,,5,,,53,127
64196,note_off,0,0,0,,5,,,77,127
64197,note_on,1,0,0,,2,,,74,127
64197,note_on,0,0,0,,5,,,77,127
64197,note_on,0,0,0,,5,,,53,127
64197,note_on,0,0,0,,11,,,58,127
64316,note_off,119,0,0,,11,,,58,127
64316,note_off,0,0,0,,2,,,74,127
64317,note_on,1,0,0,,0,,,72,127
64317,note_on,0,0,0,,10,,,57,127
64436,note_off,119,0,0,,10,,,57,127
64436,note_off,0,0,0,,0,,,72,127
64437,note_on,1,0,0,,2,,,74,127
64437,note_on,0,0,0,,11,,,58,127
64556,note_off,119,0,0,,11,,,58,127
64556,note_off,0,0,0,,2,,,74,127
64556,note_off,0,0,0,,5,,,53,127
64556,note_off,0,0,0,,5,,,77,127
64557,note_on,1,0,0,,3,,,75,127
64557,note_on,0,0,0,,5,,,77,127
64557,note_on,0,0,0,,0,,,60,127
64557,note_on,0,0,0,,5,,,53,127
64676,note_off,119,0,0,,0,,,60,127
64676,note_off,0,0,0,,3,,,75,127
64677,note_on,1,0,0,,2,,,74,127
64677,note_on,0,0,0,,11,,,58,127
64796,note_off,119,0,0,,11,,,58,127
64796,note_off,0,0,0,,2,,,74,127
64797,note_on,1,0,0,,0,,,72,127
64797,note_on,0,0,0,,10,,,57,127
64916,note_off,119,0,0,,10,,,57,127
64916,note_off,0,0,0,,0,,,72,127
64916,note_off,0,0,0,,5,,,53,127
64916,note_off,0,0,0,,5,,,77,127
64917,note_on,1,0,0,,2,,,74,127
64917,note_on,0,0,0,,5,,,77,127
64917,note_on,0,0,0,,5,,,53,127
64917,note_on,0,0,0,,11,,,58,127
65036,note_off,119,0,0,,11,,,58,127
65036,note_off,0,0,0,,2,,,74,127
65037,note_on,1,0,0,,0,,,72,127
65037,note_on,0,0,0,,10,,,57,127
65156,note_off,119,0,0,,10,,,57,127
65156,note_off,0,0,0,,0,,,72,127
65157,note_on,1,0,0,,2,,,74,127
65157,note_on,0,0,0,,11,,,58,127
65276,note_off,119,0,0,,11,,,58,127
65276,note_off,0,0,0,,2,,,74,127
65276,note_off,0,0,0,,5,,,53,127
65276,note_off,0,0,0,,5,,,77,127
65277,note_on,1,0,0,,3,,,75,127
65277,note_on,0,0,0,,5,,,77,127
65277,note_on,0,0,0,,0,,,60,127
65277,note_on,0,0,0,,5,,,53,127
65396,note_off,119,0,0,,0,,,60,127
65396,note_off,0,0,0,,3,,,75,127
65397,note_on,1,0,0,,2,,,74,127
65397,note_on,0,0,0,,11,,,58,127
65516,note_off,119,0,0,,11,,,58,127
65516,note_off,0,0,0,,2,,,74,127
65517,note_on,1,0,0,,0,,,72,127
65517,note_on,0,0,0,,10,,,57,127
65636,note_off,119,0,0,,10,,,57,127
65636,note_off,0,0,0,,0,,,72,127
65636,note_off,0,0,0,,5,,,53,127
65636,note_off,0,0,0,,5,,,77,127
65637,note_on,1,0,0,,2,,,74,127
65637,note_on,0,0,0,,11,,,70,127
65756,note_off,119,0,0,,11,,,70,127
65757,note_on,1,0,0,,5,,,65,127
65876,note_off,119,0,0,,5,,,65,127
65877,note_on,1,0,0,,2,,,62,127
65937,note_off,60,0,0,,2,,,74,127
65996,note_off,59,0,0,,2,,,62,127
65997,note_on,1,0,0,,5,,,77,127
65997,note_on,0,0,0,,11,,,58,127
66116,note_off,119,0,0,,11,,,58,127
66117,note_on,1,0,0,,5,,,53,127
66236,note_off,119,0,0,,5,,,53,127
66237,note_on,1,0,0,,2,,,50,127
66297,note_off,60,0,0,,5,,,77,127
66356,note_off,59,0,0,,2,,,50,127
66357,note_on,1,0,0,,11,,,82,127
66357,note_on,0,0,0,,11,,,46,127
66476,note_off,119,0,0,,11,,,82,127
66477,note_on,1,0,0,,2,,,86,127
66596,note_off,119,0,0,,2,,,86,127
66597,note_on,1,0,0,,11,,,82,127
66716,note_off,119,0,0,,11,,,82,127
66716,note_off,0,0,0,,11,,,46,127
66717,note_on,1,0,0,,5,,,77,127
66717,note_on,0,0,0,,2,,,50,127
66836,note_off,119,0,0,,5,,,77,127
66837,note_on,1,0,0,,2,,,74,127
66956,note_off,119,0,0,,2,,,74,127
66957,note_on,1,0,0,,11,,,70,127
67076,note_off,119,0,0,,11,,,70,127
67076,note_off,0,0,0,,2,,,50,127
67077,note_on,1,0,0,,7,,,79,127
67077,note_on,0,0,0,,3,,,51,127
67196,note_off,119,0,0,,7,,,79,127
67197,note_on,1,0,0,,5,,,77,127
67316,note_off,119,0,0,,5,,,77,127
67317,note_on,1,0,0,,3,,,75,127
67436,note_off,119,0,0,,3,,,75,127
67436,note_off,0,0,0,,3,,,51,127
67437,note_on,1,0,0,,2,,,74,127
67437,note_on,0,0,0,,5,,,53,127
67556,note_off,119,0,0,,2,,,74,127
67557,note_on,1,0,0,,3,,,75,127
67676,note_off,119,0,0,,3,,,75,127
67677,note_on,1,0,0,,0,,,72,127
67796,note_off,119,0,0,,0,,,72,127
67796,note_off,0,0,0,,5,,,53,127
67797,note_on,1,0,0,,2,,,74,127
67797,note_on,0,0,0,,11,,,70,127
67916,note_off,119,0,0,,11,,,70,127
67917,note_on,1,0,0,,5,,,65,127
68036,note_off,119,0,0,,5,,,65,127
68037,note_on,1,0,0,,2,,,62,127
68097,note_off,60,0,0,,2,,,74,127
68156,note_off,59,0,0,,2,,,62,127
68157,note_on,1,0,0,,5,,,77,127
68157,note_on,0,0,0,,11,,,58,127
68276,note_off,119,0,0,,11,,,58,127
68277,note_on,1,0,0,,5,,,53,127
68396,note_off,119,0,0,,5,,,53,127
68397,note_on,1,0,0,,2,,,50,127
68457,note_off,60,0,0,,5,,,77,127
68516,note_off,59,0,0,,2,,,50,127
68517,note_on,1,0,0,,11,,,82,127
68517,note_on,0,0,0,,11,,,46,127
68637,note_on,120,0,0,,2,,,86,127
68697,note_off,60,0,0,,11,,,82,127
68756,note_off,59,0,0,,2,,,86,127
68757,note_on,1,0,0,,11,,,82,127
68876,note_off,119,0,0,,11,,,82,127
68876,note_off,0,0,0,,11,,,46,127
68877,note_on,1,0,0,,5,,,77,127
68877,note_on,0,0,0,,2,,,50,127
68996,note_off,119,0,0,,5,,,77,127
68997,note_on,1,0,0,,2,,,74,127
69116,note_off,119,0,0,,2,,,74,127
69117,note_on,1,0,0,,11,,,70,127
69236,note_off,119,0,0,,11,,,70,127
69236,note_off,0,0,0,,2,,,50,127
69237,note_on,1,0,0,,7,,,79,127
69237,note_on,0,0,0,,3,,,51,127
69356,note_off,119,0,0,,7,,,79,127
69357,note_on,1,0,0,,5,,,77,127
69476,note_off,119,0,0,,5,,,77,127
69477,note_on,1,0,0,,3,,,75,127
69596,note_off,119,0,0,,3,,,75,127
69596,note_off,0,0,0,,3,,,51,127
69597,note_on,1,0,0,,2,,,74,127
69597,note_on,0,0,0,,5,,,53,127
69716,note_off,119,0,0,,2,,,74,127
69717,note_on,1,0,0,,3,,,75,127
69836,note_off,119,0,0,,3,,,75,127
69837,note_on,1,0,0,,0,,,72,127
69956,note_off,119,0,0,,0,,,72,127
69956,note_off,0,0,0,,5,,,53,127
69957,note_on,1,0,0,,2,,,74,127
69957,note_on,0,0,0,,11,,,58,127
70076,note_off,119,0,0,,2,,,74,127
70077,note_on,1,0,0,,5,,,77,127
70196,note_off,119,0,0,,5,,,77,127
70197,note_on,1,0,0,,2,,,74,127
70316,note_off,119,0,0,,2,,,74,127
70316,note_off,0,0,0,,11,,,58,127
70317,note_on,1,0,0,,11,,,70,127
70317,note_on,0,0,0,,2,,,50,127
70436,note_off,119,0,0,,11,,,70,127
70437,note_on,1,0,0,,5,,,65,127
70556,note_off,119,0,0,,5,,,65,127
70557,note_on,1,0,0,,10,,,69,127
70676,note_off,119,0,0,,10,,,69,127
70676,note_off,0,0,0,,2,,,50,127
70677,note_on,1,0,0,,7,,,67,127
70677,note_on,0,0,0,,11,,,70,127
70677,note_on,0,0,0,,3,,,51,127
70796,note_off,119,0,0,,7,,,67,127
70797,note_on,1,0,0,,5,,,65,127
70916,note_off,119,0,0,,5,,,65,127
70917,note_on,1,0,0,,3,,,63,127
71036,note_off,119,0,0,,3,,,63,127
71036,note_off,0,0,0,,3,,,51,127
71037,note_on,1,0,0,,2,,,62,127
71037,note_on,0,0,0,,5,,,53,127
71156,note_off,119,0,0,,2,,,62,127
71157,note_on,1,0,0,,3,,,63,127
71275,note_off,118,0,0,,11,,,70,127
71276,note_off,1,0,0,,3,,,63,127
71277,note_on,1,0,0,,10,,,69,127
71277,note_on,0,0,0,,0,,,60,127
71396,note_off,119,0,0,,5,,,53,127
71400,note_off,4,0,0,,0,,,60,127
71400,note_off,0,0,0,,10,,,69,127
71402,note_on,2,0,0,,11,,,46,127
71402,note_on,0,0,0,,11,,,70,127
71524,note_off,122,0,0,,11,,,70,127
71528,note_on,4,0,0,,5,,,65,127
71650,note_off,122,0,0,,5,,,65,127
71654,note_on,4,0,0,,2,,,62,127
71774,note_off,120,0,0,,11,,,46,127
71776,note_off,2,0,0,,2,,,62,127
71780,note_on,4,0,0,,2,,,38,127
71780,note_on,0,0,0,,11,,,58,127
71902,note_off,122,0,0,,11,,,58,127
71906,note_on,4,0,0,,2,,,62,127
72028,note_off,122,0,0,,2,,,62,127
72030,note_on,2,0,0,,5,,,53,127
72151,note_off,121,0,0,,2,,,38,127
72153,note_off,2,0,0,,5,,,53,127
72158,note_on,5,0,0,,7,,,55,127
72158,note_on,0,0,0,,11,,,58,127
72158,note_on,0,0,0,,3,,,39,127
72282,note_off,124,0,0,,7,,,55,127
72287,note_on,5,0,0,,5,,,53,127
72411,note_off,124,0,0,,5,,,53,127
72416,note_on,5,0,0,,3,,,51,127
72537,note_off,121,0,0,,3,,,39,127
72539,note_off,2,0,0,,3,,,51,127
72544,note_on,5,0,0,,2,,,50,127
72544,note_on,0,0,0,,5,,,41,127
72668,note_off,124,0,0,,2,,,50,127
72672,note_on,4,0,0,,3,,,51,127
72791,note_off,119,0,0,,11,,,58,127
72796,note_off,5,0,0,,3,,,51,127
72801,note_on,5,0,0,,0,,,48,127
72801,note_on,0,0,0,,10,,,57,127
72923,note_off,122,0,0,,5,,,41,127
72924,note_off,1,0,0,,10,,,57,127
72924,note_off,0,0,0,,0,,,48,127
72944,note_on,20,0,0,,11,,,34,127
72944,note_on,0,0,0,,10,,,57,127
72944,note_on,0,0,0,,0,,,48,127
73463,note_on,519,0,0,,11,,,46,127
73463,note_on,0,0,0,,11,,,58,127
73477,note_off,14,0,0,,0,,,48,127
73477,note_off,0,0,0,,10,,,57,127
75115,note_off,1638,0,0,,11,,,58,127
75115,note_off,0,0,0,,11,,,46,127
75115,note_off,0,0,0,,11,,,34,127
81408,end_of_track,6293,1,0,,,,,,
