tick,type,time,meta,track,program,channel,pitch,tempo,note,velocity
0,copyright,0,1,0,,,,,,
0,program_change,0,0,0,6,0,,,,
0,pitchwheel,0,0,0,,0,0,,,
0,program_change,0,0,0,6,1,,,,
0,pitchwheel,0,0,0,,1,-590,,,
0,program_change,0,0,0,6,2,,,,
0,pitchwheel,0,0,0,,2,-272,,,
0,program_change,0,0,0,6,3,,,,
0,pitchwheel,0,0,0,,3,-353,,,
0,program_change,0,0,0,6,4,,,,
0,pitchwheel,0,0,0,,4,-560,,,
0,program_change,0,0,0,6,5,,,,
0,pitchwheel,0,0,0,,5,-80,,,
0,program_change,0,0,0,6,6,,,,
0,pitchwheel,0,0,0,,6,-625,,,
0,program_change,0,0,0,6,7,,,,
0,pitchwheel,0,0,0,,7,-130,,,
0,program_change,0,0,0,6,8,,,,
0,pitchwheel,0,0,0,,8,-512,,,
0,program_change,0,0,0,6,10,,,,
0,pitchwheel,0,0,0,,10,-464,,,
0,program_change,0,0,0,6,11,,,,
0,pitchwheel,0,0,0,,11,-208,,,
0,program_change,0,0,0,6,12,,,,
0,pitchwheel,0,0,0,,12,-553,,,
0,set_tempo,0,1,0,,,,500000,,
105,note_on,105,0,0,,2,,,62,127
313,note_off,208,0,0,,2,,,62,127
314,note_on,1,0,0,,5,,,65,127
522,note_off,208,0,0,,5,,,65,127
523,note_on,1,0,0,,10,,,69,127
731,note_off,208,0,0,,10,,,69,127
732,note_on,1,0,0,,2,,,74,127
940,note_off,208,0,0,,2,,,74,127
941,note_on,1,0,0,,10,,,69,127
1149,note_off,208,0,0,,10,,,69,127
1150,note_on,1,0,0,,4,,,76,127
1358,note_off,208,0,0,,4,,,76,127
1359,note_on,1,0,0,,2,,,50,127
1359,note_on,0,0,0,,4,,,76,127
1567,note_off,208,0,0,,2,,,50,127
1568,note_on,1,0,0,,5,,,53,127
1776,note_off,208,0,0,,5,,,53,127
1776,note_off,0,0,0,,4,,,76,127
1777,note_on,1,0,0,,10,,,57,127
1777,note_on,0,0,0,,5,,,77,127
1985,note_off,208,0,0,,10,,,57,127
1986,note_on,1,0,0,,2,,,62,127
2194,note_off,208,0,0,,2,,,62,127
2194,note_off,0,0,0,,5,,,77,127
2195,note_on,1,0,0,,10,,,57,127
2195,note_on,0,0,0,,4,,,76,127
2403,note_off,208,0,0,,10,,,57,127
2404,note_on,1,0,0,,4,,,64,127
2612,note_off,208,0,0,,4,,,64,127
2612,note_off,0,0,0,,4,,,76,127
2613,note_on,1,0,0,,5,,,65,127
2718,note_on,105,0,0,,2,,,74,127
2822,note_off,104,0,0,,2,,,74,127
2823,note_on,1,0,0,,1,,,73,127
2927,note_off,104,0,0,,1,,,73,127
2928,note_on,1,0,0,,2,,,74,127
3032,note_off,104,0,0,,2,,,74,127
3032,note_off,0,0,0,,5,,,65,127
3033,note_on,1,0,0,,4,,,64,127
3033,note_on,0,0,0,,4,,,76,127
3137,note_off,104,0,0,,4,,,76,127
3138,note_on,1,0,0,,2,,,74,127
3242,note_off,104,0,0,,2,,,74,127
3243,note_on,1,0,0,,1,,,73,127
3347,note_off,104,0,0,,1,,,73,127
3348,note_on,1,0,0,,12,,,71,127
3452,note_off,104,0,0,,12,,,71,127
3452,note_off,0,0,0,,4,,,64,127
3453,note_on,1,0,0,,10,,,57,127
3453,note_on,0,0,0,,10,,,69,127
3557,note_off,104,0,0,,10,,,69,127
3558,note_on,1,0,0,,7,,,67,127
3662,note_off,104,0,0,,7,,,67,127
3663,note_on,1,0,0,,5,,,65,127
3767,note_off,104,0,0,,5,,,65,127
3768,note_on,1,0,0,,4,,,64,127
3872,note_off,104,0,0,,4,,,64,127
3872,note_off,0,0,0,,10,,,57,127
3873,note_on,1,0,0,,5,,,65,127
3978,note_on,105,0,0,,2,,,62,127
4082,note_off,104,0,0,,2,,,62,127
4083,note_on,1,0,0,,1,,,61,127
4187,note_off,104,0,0,,1,,,61,127
4188,note_on,1,0,0,,2,,,62,127
4292,note_off,104,0,0,,2,,,62,127
4292,note_off,0,0,0,,5,,,65,127
4293,note_on,1,0,0,,4,,,64,127
4293,note_on,0,0,0,,7,,,67,127
4397,note_off,104,0,0,,4,,,64,127
4398,note_on,1,0,0,,2,,,62,127
4502,note_off,104,0,0,,2,,,62,127
4503,note_on,1,0,0,,1,,,61,127
4607,note_off,104,0,0,,1,,,61,127
4608,note_on,1,0,0,,12,,,59,127
4712,note_off,104,0,0,,12,,,59,127
4712,note_off,0,0,0,,7,,,67,127
4713,note_on,1,0,0,,10,,,57,127
4713,note_on,0,0,0,,10,,,69,127
4817,note_off,104,0,0,,10,,,57,127
4818,note_on,1,0,0,,7,,,55,127
4922,note_off,104,0,0,,7,,,55,127
4923,note_on,1,0,0,,5,,,53,127
5027,note_off,104,0,0,,5,,,53,127
5028,note_on,1,0,0,,4,,,52,127
5132,note_off,104,0,0,,4,,,52,127
5132,note_off,0,0,0,,10,,,69,127
5133,note_on,1,0,0,,5,,,53,127
5238,note_on,105,0,0,,2,,,74,127
5342,note_off,104,0,0,,2,,,74,127
5343,note_on,1,0,0,,1,,,73,127
5447,note_off,104,0,0,,1,,,73,127
5448,note_on,1,0,0,,2,,,74,127
5552,note_off,104,0,0,,2,,,74,127
5552,note_off,0,0,0,,5,,,53,127
5553,note_on,1,0,0,,7,,,55,127
5553,note_on,0,0,0,,4,,,76,127
5657,note_off,104,0,0,,4,,,76,127
5658,note_on,1,0,0,,2,,,74,127
5762,note_off,104,0,0,,2,,,74,127
5763,note_on,1,0,0,,1,,,73,127
5867,note_off,104,0,0,,1,,,73,127
5868,note_on,1,0,0,,12,,,71,127
5972,note_off,104,0,0,,12,,,71,127
5972,note_off,0,0,0,,7,,,55,127
5973,note_on,1,0,0,,10,,,57,127
5973,note_on,0,0,0,,10,,,69,127
6077,note_off,104,0,0,,10,,,69,127
6078,note_on,1,0,0,,7,,,67,127
6182,note_off,104,0,0,,7,,,67,127
6183,note_on,1,0,0,,5,,,65,127
6287,note_off,104,0,0,,5,,,65,127
6288,note_on,1,0,0,,4,,,64,127
6392,note_off,104,0,0,,4,,,64,127
6392,note_off,0,0,0,,10,,,57,127
6393,note_on,1,0,0,,5,,,65,127
6498,note_on,105,0,0,,2,,,62,127
6602,note_off,104,0,0,,2,,,62,127
6603,note_on,1,0,0,,1,,,61,127
6707,note_off,104,0,0,,1,,,61,127
6708,note_on,1,0,0,,2,,,62,127
6812,note_off,104,0,0,,2,,,62,127
6812,note_off,0,0,0,,5,,,65,127
6813,note_on,1,0,0,,4,,,64,127
6813,note_on,0,0,0,,7,,,67,127
6917,note_off,104,0,0,,4,,,64,127
6918,note_on,1,0,0,,2,,,62,127
7022,note_off,104,0,0,,2,,,62,127
7023,note_on,1,0,0,,1,,,61,127
7127,note_off,104,0,0,,1,,,61,127
7128,note_on,1,0,0,,12,,,59,127
7232,note_off,104,0,0,,12,,,59,127
7232,note_off,0,0,0,,7,,,67,127
7233,note_on,1,0,0,,10,,,57,127
7233,note_on,0,0,0,,10,,,69,127
7337,note_off,104,0,0,,10,,,57,127
7338,note_on,1,0,0,,7,,,55,127
7442,note_off,104,0,0,,7,,,55,127
7443,note_on,1,0,0,,5,,,53,127
7547,note_off,104,0,0,,5,,,53,127
7548,note_on,1,0,0,,4,,,52,127
7652,note_off,104,0,0,,4,,,52,127
7652,note_off,0,0,0,,10,,,69,127
7653,note_on,1,0,0,,5,,,53,127
7758,note_on,105,0,0,,10,,,81,127
7862,note_off,104,0,0,,10,,,81,127
7863,note_on,1,0,0,,8,,,80,127
7967,note_off,104,0,0,,8,,,80,127
7968,note_on,1,0,0,,10,,,81,127
8072,note_off,104,0,0,,10,,,81,127
8072,note_off,0,0,0,,5,,,53,127
8073,note_on,1,0,0,,7,,,55,127
8073,note_on,0,0,0,,11,,,82,127
8177,note_off,104,0,0,,11,,,82,127
8178,note_on,1,0,0,,10,,,81,127
8282,note_off,104,0,0,,10,,,81,127
8283,note_on,1,0,0,,7,,,79,127
8387,note_off,104,0,0,,7,,,79,127
8388,note_on,1,0,0,,5,,,77,127
8492,note_off,104,0,0,,5,,,77,127
8492,note_off,0,0,0,,7,,,55,127
8493,note_on,1,0,0,,10,,,57,127
8493,note_on,0,0,0,,7,,,79,127
8597,note_off,104,0,0,,7,,,79,127
8598,note_on,1,0,0,,5,,,77,127
8702,note_off,104,0,0,,5,,,77,127
8703,note_on,1,0,0,,4,,,76,127
8807,note_off,104,0,0,,4,,,76,127
8808,note_on,1,0,0,,2,,,74,127
8912,note_off,104,0,0,,2,,,74,127
8912,note_off,0,0,0,,10,,,57,127
8913,note_on,1,0,0,,1,,,73,127
9018,note_on,105,0,0,,10,,,69,127
9122,note_off,104,0,0,,10,,,69,127
9123,note_on,1,0,0,,8,,,68,127
9227,note_off,104,0,0,,8,,,68,127
9228,note_on,1,0,0,,10,,,69,127
9332,note_off,104,0,0,,10,,,69,127
9332,note_off,0,0,0,,1,,,73,127
9333,note_on,1,0,0,,11,,,70,127
9333,note_on,0,0,0,,2,,,74,127
9437,note_off,104,0,0,,11,,,70,127
9438,note_on,1,0,0,,10,,,69,127
9542,note_off,104,0,0,,10,,,69,127
9543,note_on,1,0,0,,7,,,67,127
9647,note_off,104,0,0,,7,,,67,127
9648,note_on,1,0,0,,5,,,65,127
9752,note_off,104,0,0,,5,,,65,127
9752,note_off,0,0,0,,2,,,74,127
9753,note_on,1,0,0,,7,,,67,127
9753,note_on,0,0,0,,7,,,79,127
9857,note_off,104,0,0,,7,,,67,127
9858,note_on,1,0,0,,5,,,65,127
9962,note_off,104,0,0,,5,,,65,127
9963,note_on,1,0,0,,4,,,64,127
10067,note_off,104,0,0,,4,,,64,127
10068,note_on,1,0,0,,2,,,62,127
10172,note_off,104,0,0,,2,,,62,127
10172,note_off,0,0,0,,7,,,79,127
10173,note_on,1,0,0,,1,,,61,127
10278,note_on,105,0,0,,10,,,69,127
10382,note_off,104,0,0,,10,,,69,127
10383,note_on,1,0,0,,12,,,71,127
10487,note_off,104,0,0,,12,,,71,127
10488,note_on,1,0,0,,1,,,73,127
10592,note_off,104,0,0,,1,,,73,127
10592,note_off,0,0,0,,1,,,61,127
10593,note_on,1,0,0,,2,,,62,127
10593,note_on,0,0,0,,2,,,74,127
10697,note_off,104,0,0,,2,,,74,127
10698,note_on,1,0,0,,4,,,76,127
10802,note_off,104,0,0,,4,,,76,127
10803,note_on,1,0,0,,5,,,77,127
10907,note_off,104,0,0,,5,,,77,127
10908,note_on,1,0,0,,2,,,74,127
11012,note_off,104,0,0,,2,,,74,127
11012,note_off,0,0,0,,2,,,62,127
11013,note_on,1,0,0,,11,,,58,127
11013,note_on,0,0,0,,7,,,79,127
11117,note_off,104,0,0,,7,,,79,127
11118,note_on,1,0,0,,5,,,77,127
11222,note_off,104,0,0,,5,,,77,127
11223,note_on,1,0,0,,4,,,76,127
11327,note_off,104,0,0,,4,,,76,127
11328,note_on,1,0,0,,2,,,74,127
11432,note_off,104,0,0,,2,,,74,127
11432,note_off,0,0,0,,11,,,58,127
11433,note_on,1,0,0,,10,,,81,127
11538,note_on,105,0,0,,10,,,57,127
11642,note_off,104,0,0,,10,,,57,127
11643,note_on,1,0,0,,12,,,59,127
11747,note_off,104,0,0,,12,,,59,127
11748,note_on,1,0,0,,1,,,61,127
11852,note_off,104,0,0,,1,,,61,127
11852,note_off,0,0,0,,10,,,81,127
11853,note_on,1,0,0,,2,,,62,127
11957,note_off,104,0,0,,2,,,62,127
11958,note_on,1,0,0,,4,,,64,127
12062,note_off,104,0,0,,4,,,64,127
12063,note_on,1,0,0,,5,,,65,127
12063,note_on,0,0,0,,5,,,77,127
12167,note_off,104,0,0,,5,,,65,127
12168,note_on,1,0,0,,2,,,62,127
12272,note_off,104,0,0,,2,,,62,127
12272,note_off,0,0,0,,5,,,77,127
12273,note_on,1,0,0,,7,,,67,127
12273,note_on,0,0,0,,4,,,76,127
12377,note_off,104,0,0,,7,,,67,127
12378,note_on,1,0,0,,10,,,69,127
12482,note_off,104,0,0,,10,,,69,127
12482,note_off,0,0,0,,4,,,76,127
12483,note_on,1,0,0,,11,,,70,127
12483,note_on,0,0,0,,2,,,74,127
12587,note_off,104,0,0,,11,,,70,127
12588,note_on,1,0,0,,7,,,67,127
12692,note_off,104,0,0,,7,,,67,127
12692,note_off,0,0,0,,2,,,74,127
12693,note_on,1,0,0,,10,,,69,127
12693,note_on,0,0,0,,1,,,73,127
12797,note_off,104,0,0,,1,,,73,127
12798,note_on,1,0,0,,10,,,81,127
12902,note_off,104,0,0,,10,,,81,127
12903,note_on,1,0,0,,7,,,79,127
13007,note_off,104,0,0,,7,,,79,127
13008,note_on,1,0,0,,5,,,77,127
13112,note_off,104,0,0,,5,,,77,127
13112,note_off,0,0,0,,10,,,69,127
13113,note_on,1,0,0,,10,,,57,127
13113,note_on,0,0,0,,4,,,76,127
13217,note_off,104,0,0,,4,,,76,127
13218,note_on,1,0,0,,2,,,74,127
13322,note_off,104,0,0,,2,,,74,127
13323,note_on,1,0,0,,1,,,73,127
13427,note_off,104,0,0,,1,,,73,127
13428,note_on,1,0,0,,12,,,71,127
13532,note_off,104,0,0,,12,,,71,127
13532,note_off,0,0,0,,10,,,57,127
13533,note_on,1,0,0,,1,,,61,127
13533,note_on,0,0,0,,10,,,69,127
13637,note_off,104,0,0,,10,,,69,127
13638,note_on,1,0,0,,7,,,67,127
13742,note_off,104,0,0,,7,,,67,127
13743,note_on,1,0,0,,5,,,65,127
13847,note_off,104,0,0,,5,,,65,127
13848,note_on,1,0,0,,4,,,64,127
13952,note_off,104,0,0,,4,,,64,127
13952,note_off,0,0,0,,1,,,61,127
13953,note_on,1,0,0,,2,,,50,127
13953,note_on,0,0,0,,5,,,65,127
14057,note_off,104,0,0,,2,,,50,127
14058,note_on,1,0,0,,2,,,62,127
14162,note_off,104,0,0,,2,,,62,127
14163,note_on,1,0,0,,0,,,60,127
14267,note_off,104,0,0,,0,,,60,127
14268,note_on,1,0,0,,11,,,58,127
14372,note_off,104,0,0,,11,,,58,127
14373,note_on,1,0,0,,10,,,57,127
14477,note_off,104,0,0,,10,,,57,127
14478,note_on,1,0,0,,7,,,55,127
14582,note_off,104,0,0,,7,,,55,127
14583,note_on,1,0,0,,5,,,53,127
14687,note_off,104,0,0,,5,,,53,127
14688,note_on,1,0,0,,4,,,52,127
14792,note_off,104,0,0,,4,,,52,127
14792,note_off,0,0,0,,5,,,65,127
14793,note_on,1,0,0,,2,,,50,127
14793,note_on,0,0,0,,2,,,74,127
14897,note_off,104,0,0,,2,,,50,127
14898,note_on,1,0,0,,0,,,48,127
15002,note_off,104,0,0,,0,,,48,127
15003,note_on,1,0,0,,12,,,47,127
15107,note_off,104,0,0,,12,,,47,127
15108,note_on,1,0,0,,10,,,45,127
15212,note_off,104,0,0,,10,,,45,127
15213,note_on,1,0,0,,8,,,44,127
15317,note_off,104,0,0,,2,,,74,127
15318,note_on,1,0,0,,4,,,76,127
15422,note_off,104,0,0,,4,,,76,127
15423,note_on,1,0,0,,2,,,74,127
15527,note_off,104,0,0,,2,,,74,127
15528,note_on,1,0,0,,0,,,72,127
15632,note_off,104,0,0,,0,,,72,127
15632,note_off,0,0,0,,8,,,44,127
15633,note_on,1,0,0,,4,,,40,127
15633,note_on,0,0,0,,12,,,71,127
15737,note_off,104,0,0,,12,,,71,127
15738,note_on,1,0,0,,10,,,69,127
15842,note_off,104,0,0,,10,,,69,127
15843,note_on,1,0,0,,8,,,68,127
15947,note_off,104,0,0,,8,,,68,127
15948,note_on,1,0,0,,6,,,66,127
16052,note_off,104,0,0,,6,,,66,127
16052,note_off,0,0,0,,4,,,40,127
16053,note_on,1,0,0,,8,,,44,127
16053,note_on,0,0,0,,4,,,64,127
16157,note_off,104,0,0,,4,,,64,127
16158,note_on,1,0,0,,2,,,62,127
16262,note_off,104,0,0,,2,,,62,127
16263,note_on,1,0,0,,0,,,60,127
16367,note_off,104,0,0,,0,,,60,127
16368,note_on,1,0,0,,12,,,59,127
16472,note_off,104,0,0,,12,,,59,127
16472,note_off,0,0,0,,8,,,44,127
16473,note_on,1,0,0,,10,,,45,127
16473,note_on,0,0,0,,0,,,60,127
16577,note_off,104,0,0,,10,,,45,127
16578,note_on,1,0,0,,0,,,48,127
16682,note_off,104,0,0,,0,,,48,127
16682,note_off,0,0,0,,0,,,60,127
16683,note_on,1,0,0,,12,,,47,127
16683,note_on,0,0,0,,2,,,62,127
16787,note_off,104,0,0,,12,,,47,127
16788,note_on,1,0,0,,2,,,50,127
16892,note_off,104,0,0,,2,,,50,127
16892,note_off,0,0,0,,2,,,62,127
16893,note_on,1,0,0,,0,,,48,127
16893,note_on,0,0,0,,4,,,64,127
16997,note_off,104,0,0,,0,,,48,127
16998,note_on,1,0,0,,4,,,52,127
17102,note_off,104,0,0,,4,,,52,127
17102,note_off,0,0,0,,4,,,64,127
17103,note_on,1,0,0,,2,,,50,127
17103,note_on,0,0,0,,6,,,66,127
17207,note_off,104,0,0,,2,,,50,127
17208,note_on,1,0,0,,6,,,54,127
17312,note_off,104,0,0,,6,,,54,127
17312,note_off,0,0,0,,6,,,66,127
17313,note_on,1,0,0,,4,,,52,127
17313,note_on,0,0,0,,8,,,68,127
17417,note_off,104,0,0,,4,,,52,127
17418,note_on,1,0,0,,8,,,56,127
17522,note_off,104,0,0,,8,,,56,127
17522,note_off,0,0,0,,8,,,68,127
17523,note_on,1,0,0,,6,,,54,127
17523,note_on,0,0,0,,10,,,69,127
17627,note_off,104,0,0,,6,,,54,127
17628,note_on,1,0,0,,10,,,57,127
17732,note_off,104,0,0,,10,,,57,127
17732,note_off,0,0,0,,10,,,69,127
17733,note_on,1,0,0,,8,,,56,127
17733,note_on,0,0,0,,12,,,71,127
17837,note_off,104,0,0,,8,,,56,127
17838,note_on,1,0,0,,12,,,59,127
17942,note_off,104,0,0,,12,,,59,127
17942,note_off,0,0,0,,12,,,71,127
17943,note_on,1,0,0,,10,,,57,127
17943,note_on,0,0,0,,0,,,72,127
18047,note_off,104,0,0,,10,,,57,127
18048,note_on,1,0,0,,0,,,60,127
18152,note_off,104,0,0,,0,,,60,127
18152,note_off,0,0,0,,0,,,72,127
18153,note_on,1,0,0,,12,,,59,127
18153,note_on,0,0,0,,2,,,74,127
18257,note_off,104,0,0,,12,,,59,127
18258,note_on,1,0,0,,2,,,62,127
18362,note_off,104,0,0,,2,,,62,127
18362,note_off,0,0,0,,2,,,74,127
18363,note_on,1,0,0,,8,,,56,127
18363,note_on,0,0,0,,12,,,71,127
18467,note_off,104,0,0,,8,,,56,127
18468,note_on,1,0,0,,12,,,59,127
18572,note_off,104,0,0,,12,,,59,127
18572,note_off,0,0,0,,12,,,71,127
18573,note_on,1,0,0,,10,,,57,127
18573,note_on,0,0,0,,0,,,72,127
18677,note_off,104,0,0,,10,,,57,127
18678,note_on,1,0,0,,0,,,60,127
18782,note_off,104,0,0,,0,,,60,127
18782,note_off,0,0,0,,0,,,72,127
18783,note_on,1,0,0,,2,,,50,127
18783,note_on,0,0,0,,2,,,74,127
18887,note_off,104,0,0,,2,,,50,127
18888,note_on,1,0,0,,2,,,62,127
18992,note_off,104,0,0,,2,,,62,127
18992,note_off,0,0,0,,2,,,74,127
18993,note_on,1,0,0,,4,,,52,127
19098,note_on,105,0,0,,4,,,76,127
19202,note_off,104,0,0,,4,,,76,127
19202,note_off,0,0,0,,4,,,52,127
19203,note_on,1,0,0,,4,,,64,127
19203,note_on,0,0,0,,2,,,74,127
19307,note_off,104,0,0,,2,,,74,127
19308,note_on,1,0,0,,4,,,76,127
19412,note_off,104,0,0,,4,,,76,127
19412,note_off,0,0,0,,4,,,64,127
19413,note_on,1,0,0,,2,,,62,127
19413,note_on,0,0,0,,5,,,77,127
19517,note_off,104,0,0,,5,,,77,127
19518,note_on,1,0,0,,2,,,74,127
19622,note_off,104,0,0,,2,,,74,127
19622,note_off,0,0,0,,2,,,62,127
19623,note_on,1,0,0,,12,,,71,127
19623,note_on,0,0,0,,0,,,72,127
19727,note_off,104,0,0,,0,,,72,127
19728,note_on,1,0,0,,2,,,74,127
19832,note_off,104,0,0,,2,,,74,127
19832,note_off,0,0,0,,12,,,71,127
19833,note_on,1,0,0,,0,,,60,127
19833,note_on,0,0,0,,4,,,76,127
19937,note_off,104,0,0,,4,,,76,127
19938,note_on,1,0,0,,0,,,72,127
20042,note_off,104,0,0,,0,,,72,127
20042,note_off,0,0,0,,0,,,60,127
20043,note_on,1,0,0,,10,,,69,127
20043,note_on,0,0,0,,12,,,71,127
20147,note_off,104,0,0,,12,,,71,127
20148,note_on,1,0,0,,0,,,72,127
20252,note_off,104,0,0,,0,,,72,127
20252,note_off,0,0,0,,10,,,69,127
20253,note_on,1,0,0,,12,,,59,127
20253,note_on,0,0,0,,2,,,74,127
20357,note_off,104,0,0,,2,,,74,127
20358,note_on,1,0,0,,2,,,74,127
20462,note_off,104,0,0,,2,,,74,127
20462,note_off,0,0,0,,12,,,59,127
20463,note_on,1,0,0,,8,,,68,127
20463,note_on,0,0,0,,0,,,72,127
20567,note_off,104,0,0,,0,,,72,127
20568,note_on,1,0,0,,2,,,74,127
20672,note_off,104,0,0,,2,,,74,127
20672,note_off,0,0,0,,8,,,68,127
20673,note_on,1,0,0,,0,,,60,127
20673,note_on,0,0,0,,4,,,76,127
20777,note_off,104,0,0,,4,,,76,127
20778,note_on,1,0,0,,0,,,72,127
20882,note_off,104,0,0,,0,,,72,127
20882,note_off,0,0,0,,0,,,60,127
20883,note_on,1,0,0,,10,,,69,127
20883,note_on,0,0,0,,12,,,71,127
20987,note_off,104,0,0,,12,,,71,127
20988,note_on,1,0,0,,0,,,72,127
21092,note_off,104,0,0,,0,,,72,127
21092,note_off,0,0,0,,10,,,69,127
21093,note_on,1,0,0,,12,,,59,127
21093,note_on,0,0,0,,2,,,74,127
21197,note_off,104,0,0,,2,,,74,127
21198,note_on,1,0,0,,12,,,71,127
21302,note_off,104,0,0,,12,,,71,127
21302,note_off,0,0,0,,12,,,59,127
21303,note_on,1,0,0,,8,,,68,127
21303,note_on,0,0,0,,10,,,69,127
21407,note_off,104,0,0,,10,,,69,127
21408,note_on,1,0,0,,12,,,71,127
21512,note_off,104,0,0,,12,,,71,127
21512,note_off,0,0,0,,8,,,68,127
21513,note_on,1,0,0,,10,,,57,127
21513,note_on,0,0,0,,0,,,72,127
21617,note_off,104,0,0,,10,,,57,127
21618,note_on,1,0,0,,4,,,64,127
21722,note_off,104,0,0,,4,,,64,127
21722,note_off,0,0,0,,0,,,72,127
21723,note_on,1,0,0,,2,,,62,127
21723,note_on,0,0,0,,0,,,72,127
21827,note_off,104,0,0,,2,,,62,127
21828,note_on,1,0,0,,4,,,64,127
21932,note_off,104,0,0,,4,,,64,127
21932,note_off,0,0,0,,0,,,72,127
21933,note_on,1,0,0,,5,,,65,127
21933,note_on,0,0,0,,2,,,74,127
22037,note_off,104,0,0,,5,,,65,127
22038,note_on,1,0,0,,2,,,62,127
22142,note_off,104,0,0,,2,,,62,127
22142,note_off,0,0,0,,2,,,74,127
22143,note_on,1,0,0,,0,,,60,127
22143,note_on,0,0,0,,12,,,71,127
22247,note_off,104,0,0,,0,,,60,127
22248,note_on,1,0,0,,2,,,62,127
22352,note_off,104,0,0,,2,,,62,127
22352,note_off,0,0,0,,12,,,71,127
22353,note_on,1,0,0,,4,,,64,127
22353,note_on,0,0,0,,0,,,72,127
22457,note_off,104,0,0,,4,,,64,127
22458,note_on,1,0,0,,0,,,60,127
22562,note_off,104,0,0,,0,,,60,127
22562,note_off,0,0,0,,0,,,72,127
22563,note_on,1,0,0,,12,,,59,127
22563,note_on,0,0,0,,10,,,69,127
22667,note_off,104,0,0,,12,,,59,127
22668,note_on,1,0,0,,0,,,60,127
22772,note_off,104,0,0,,0,,,60,127
22772,note_off,0,0,0,,10,,,69,127
22773,note_on,1,0,0,,2,,,62,127
22773,note_on,0,0,0,,12,,,71,127
22877,note_off,104,0,0,,2,,,62,127
22878,note_on,1,0,0,,2,,,62,127
22982,note_off,104,0,0,,2,,,62,127
22982,note_off,0,0,0,,12,,,71,127
22983,note_on,1,0,0,,0,,,60,127
22983,note_on,0,0,0,,12,,,71,127
23087,note_off,104,0,0,,0,,,60,127
23088,note_on,1,0,0,,2,,,62,127
23192,note_off,104,0,0,,2,,,62,127
23192,note_off,0,0,0,,12,,,71,127
23193,note_on,1,0,0,,4,,,64,127
23193,note_on,0,0,0,,0,,,72,127
23297,note_off,104,0,0,,4,,,64,127
23298,note_on,1,0,0,,0,,,60,127
23402,note_off,104,0,0,,0,,,60,127
23402,note_off,0,0,0,,0,,,72,127
23403,note_on,1,0,0,,12,,,59,127
23403,note_on,0,0,0,,10,,,69,127
23507,note_off,104,0,0,,12,,,59,127
23508,note_on,1,0,0,,0,,,60,127
23612,note_off,104,0,0,,0,,,60,127
23612,note_off,0,0,0,,10,,,69,127
23613,note_on,1,0,0,,2,,,62,127
23613,note_on,0,0,0,,12,,,71,127
23717,note_off,104,0,0,,2,,,62,127
23718,note_on,1,0,0,,12,,,59,127
23822,note_off,104,0,0,,12,,,59,127
23822,note_off,0,0,0,,12,,,71,127
23823,note_on,1,0,0,,10,,,57,127
23823,note_on,0,0,0,,8,,,68,127
23927,note_off,104,0,0,,10,,,57,127
23928,note_on,1,0,0,,12,,,59,127
24032,note_off,104,0,0,,12,,,59,127
24032,note_off,0,0,0,,8,,,68,127
24033,note_on,1,0,0,,0,,,60,127
24033,note_on,0,0,0,,10,,,69,127
24137,note_off,104,0,0,,0,,,60,127
24138,note_on,1,0,0,,12,,,59,127
24242,note_off,104,0,0,,12,,,59,127
24242,note_off,0,0,0,,10,,,69,127
24243,note_on,1,0,0,,10,,,57,127
24243,note_on,0,0,0,,12,,,71,127
24347,note_off,104,0,0,,10,,,57,127
24348,note_on,1,0,0,,8,,,56,127
24452,note_off,104,0,0,,8,,,56,127
24452,note_off,0,0,0,,12,,,71,127
24453,note_on,1,0,0,,10,,,57,127
24453,note_on,0,0,0,,0,,,72,127
24557,note_off,104,0,0,,10,,,57,127
24558,note_on,1,0,0,,7,,,55,127
24662,note_off,104,0,0,,7,,,55,127
24663,note_on,1,0,0,,5,,,53,127
24767,note_off,104,0,0,,5,,,53,127
24768,note_on,1,0,0,,4,,,52,127
24872,note_off,104,0,0,,4,,,52,127
24872,note_off,0,0,0,,0,,,72,127
24873,note_on,1,0,0,,5,,,53,127
24873,note_on,0,0,0,,4,,,76,127
24924,note_off,51,0,0,,4,,,76,127
24925,note_on,1,0,0,,2,,,74,127
24976,note_off,51,0,0,,2,,,74,127
24977,note_on,1,0,0,,4,,,76,127
25028,note_off,51,0,0,,4,,,76,127
25029,note_on,1,0,0,,2,,,74,127
25080,note_off,51,0,0,,2,,,74,127
25081,note_on,1,0,0,,4,,,76,127
25132,note_off,51,0,0,,4,,,76,127
25133,note_on,1,0,0,,2,,,74,127
25184,note_off,51,0,0,,2,,,74,127
25185,note_on,1,0,0,,0,,,72,127
25236,note_off,51,0,0,,0,,,72,127
25237,note_on,1,0,0,,2,,,74,127
25288,note_off,51,0,0,,2,,,74,127
25288,note_off,0,0,0,,5,,,53,127
25289,note_on,1,0,0,,4,,,76,127
25394,note_on,105,0,0,,4,,,40,127
25498,note_off,104,0,0,,4,,,40,127
25499,note_on,1,0,0,,6,,,42,127
25603,note_off,104,0,0,,6,,,42,127
25604,note_on,1,0,0,,8,,,44,127
25708,note_off,104,0,0,,8,,,44,127
25708,note_off,0,0,0,,4,,,76,127
25709,note_on,1,0,0,,10,,,45,127
25813,note_off,104,0,0,,10,,,45,127
25814,note_on,1,0,0,,12,,,47,127
25918,note_off,104,0,0,,12,,,47,127
25919,note_on,1,0,0,,0,,,48,127
25919,note_on,0,0,0,,4,,,76,127
26023,note_off,104,0,0,,0,,,48,127
26024,note_on,1,0,0,,2,,,50,127
26128,note_off,104,0,0,,2,,,50,127
26128,note_off,0,0,0,,4,,,76,127
26129,note_on,1,0,0,,4,,,52,127
26129,note_on,0,0,0,,2,,,74,127
26233,note_off,104,0,0,,4,,,52,127
26234,note_on,1,0,0,,6,,,54,127
26338,note_off,104,0,0,,6,,,54,127
26338,note_off,0,0,0,,2,,,74,127
26339,note_on,1,0,0,,8,,,56,127
26339,note_on,0,0,0,,12,,,71,127
26443,note_off,104,0,0,,8,,,56,127
26444,note_on,1,0,0,,4,,,52,127
26548,note_off,104,0,0,,4,,,52,127
26548,note_off,0,0,0,,12,,,71,127
26549,note_on,1,0,0,,10,,,57,127
26549,note_on,0,0,0,,2,,,74,127
26600,note_off,51,0,0,,2,,,74,127
26601,note_on,1,0,0,,0,,,72,127
26652,note_off,51,0,0,,0,,,72,127
26652,note_off,0,0,0,,10,,,57,127
26653,note_on,1,0,0,,12,,,59,127
26653,note_on,0,0,0,,2,,,74,127
26704,note_off,51,0,0,,2,,,74,127
26705,note_on,1,0,0,,0,,,72,127
26756,note_off,51,0,0,,0,,,72,127
26756,note_off,0,0,0,,12,,,59,127
26757,note_on,1,0,0,,0,,,60,127
26757,note_on,0,0,0,,2,,,74,127
26808,note_off,51,0,0,,2,,,74,127
26809,note_on,1,0,0,,0,,,72,127
26860,note_off,51,0,0,,0,,,72,127
26860,note_off,0,0,0,,0,,,60,127
26861,note_on,1,0,0,,2,,,62,127
26861,note_on,0,0,0,,2,,,74,127
26912,note_off,51,0,0,,2,,,74,127
26913,note_on,1,0,0,,0,,,72,127
26964,note_off,51,0,0,,0,,,72,127
26964,note_off,0,0,0,,2,,,62,127
26965,note_on,1,0,0,,4,,,64,127
26965,note_on,0,0,0,,12,,,71,127
27069,note_off,104,0,0,,4,,,64,127
27070,note_on,1,0,0,,6,,,66,127
27174,note_off,104,0,0,,6,,,66,127
27174,note_off,0,0,0,,12,,,71,127
27175,note_on,1,0,0,,8,,,68,127
27175,note_on,0,0,0,,2,,,74,127
27279,note_off,104,0,0,,8,,,68,127
27280,note_on,1,0,0,,4,,,64,127
27384,note_off,104,0,0,,4,,,64,127
27385,note_on,1,0,0,,10,,,69,127
27437,note_off,52,0,0,,2,,,74,127
27437,note_on,0,0,0,,0,,,72,127
27488,note_off,51,0,0,,0,,,72,127
27489,note_on,1,0,0,,2,,,74,127
27540,note_off,51,0,0,,2,,,74,127
27541,note_on,1,0,0,,0,,,72,127
27592,note_off,51,0,0,,0,,,72,127
27592,note_off,0,0,0,,10,,,69,127
27593,note_on,1,0,0,,10,,,57,127
27593,note_on,0,0,0,,2,,,74,127
27644,note_off,51,0,0,,2,,,74,127
27645,note_on,1,0,0,,0,,,72,127
27696,note_off,51,0,0,,0,,,72,127
27697,note_on,1,0,0,,2,,,74,127
27748,note_off,51,0,0,,2,,,74,127
27749,note_on,1,0,0,,0,,,72,127
27800,note_off,51,0,0,,0,,,72,127
27800,note_off,0,0,0,,10,,,57,127
27801,note_on,1,0,0,,12,,,71,127
27906,note_on,105,0,0,,4,,,40,127
28010,note_off,104,0,0,,4,,,40,127
28011,note_on,1,0,0,,6,,,42,127
28115,note_off,104,0,0,,6,,,42,127
28116,note_on,1,0,0,,8,,,44,127
28220,note_off,104,0,0,,8,,,44,127
28220,note_off,0,0,0,,12,,,71,127
28221,note_on,1,0,0,,10,,,45,127
28325,note_off,104,0,0,,10,,,45,127
28326,note_on,1,0,0,,12,,,47,127
28430,note_off,104,0,0,,12,,,47,127
28431,note_on,1,0,0,,0,,,48,127
28431,note_on,0,0,0,,4,,,76,127
28535,note_off,104,0,0,,0,,,48,127
28536,note_on,1,0,0,,2,,,50,127
28640,note_off,104,0,0,,2,,,50,127
28640,note_off,0,0,0,,4,,,76,127
28641,note_on,1,0,0,,4,,,52,127
28641,note_on,0,0,0,,2,,,74,127
28745,note_off,104,0,0,,4,,,52,127
28746,note_on,1,0,0,,6,,,54,127
28850,note_off,104,0,0,,6,,,54,127
28850,note_off,0,0,0,,2,,,74,127
28851,note_on,1,0,0,,8,,,56,127
28851,note_on,0,0,0,,12,,,71,127
28955,note_off,104,0,0,,8,,,56,127
28956,note_on,1,0,0,,4,,,52,127
29060,note_off,104,0,0,,4,,,52,127
29060,note_off,0,0,0,,12,,,71,127
29061,note_on,1,0,0,,10,,,57,127
29061,note_on,0,0,0,,2,,,74,127
29112,note_off,51,0,0,,2,,,74,127
29113,note_on,1,0,0,,0,,,72,127
29164,note_off,51,0,0,,0,,,72,127
29164,note_off,0,0,0,,10,,,57,127
29165,note_on,1,0,0,,12,,,59,127
29165,note_on,0,0,0,,2,,,74,127
29216,note_off,51,0,0,,2,,,74,127
29217,note_on,1,0,0,,0,,,72,127
29268,note_off,51,0,0,,0,,,72,127
29268,note_off,0,0,0,,12,,,59,127
29269,note_on,1,0,0,,0,,,60,127
29269,note_on,0,0,0,,2,,,74,127
29320,note_off,51,0,0,,2,,,74,127
29321,note_on,1,0,0,,0,,,72,127
29372,note_off,51,0,0,,0,,,72,127
29372,note_off,0,0,0,,0,,,60,127
29373,note_on,1,0,0,,2,,,62,127
29373,note_on,0,0,0,,2,,,74,127
29424,note_off,51,0,0,,2,,,74,127
29425,note_on,1,0,0,,0,,,72,127
29476,note_off,51,0,0,,0,,,72,127
29476,note_off,0,0,0,,2,,,62,127
29477,note_on,1,0,0,,4,,,64,127
29477,note_on,0,0,0,,12,,,71,127
29581,note_off,104,0,0,,4,,,64,127
29582,note_on,1,0,0,,6,,,66,127
29686,note_off,104,0,0,,6,,,66,127
29686,note_off,0,0,0,,12,,,71,127
29687,note_on,1,0,0,,8,,,68,127
29687,note_on,0,0,0,,2,,,74,127
29791,note_off,104,0,0,,8,,,68,127
29792,note_on,1,0,0,,4,,,64,127
29896,note_off,104,0,0,,4,,,64,127
29897,note_on,1,0,0,,10,,,69,127
29949,note_off,52,0,0,,2,,,74,127
29949,note_on,0,0,0,,0,,,72,127
30000,note_off,51,0,0,,0,,,72,127
30001,note_on,1,0,0,,2,,,74,127
30052,note_off,51,0,0,,2,,,74,127
30053,note_on,1,0,0,,0,,,72,127
30104,note_off,51,0,0,,0,,,72,127
30104,note_off,0,0,0,,10,,,69,127
30105,note_on,1,0,0,,10,,,57,127
30105,note_on,0,0,0,,2,,,74,127
30156,note_off,51,0,0,,2,,,74,127
30157,note_on,1,0,0,,0,,,72,127
30208,note_off,51,0,0,,0,,,72,127
30209,note_on,1,0,0,,2,,,74,127
30260,note_off,51,0,0,,2,,,74,127
30261,note_on,1,0,0,,0,,,72,127
30312,note_off,51,0,0,,0,,,72,127
30312,note_off,0,0,0,,10,,,57,127
30313,note_on,1,0,0,,4,,,52,127
30313,note_on,0,0,0,,12,,,71,127
30417,note_off,104,0,0,,4,,,52,127
30418,note_on,1,0,0,,8,,,56,127
30522,note_off,104,0,0,,8,,,56,127
30523,note_on,1,0,0,,6,,,54,127
30627,note_off,104,0,0,,6,,,54,127
30628,note_on,1,0,0,,10,,,57,127
30732,note_off,104,0,0,,10,,,57,127
30732,note_off,0,0,0,,12,,,71,127
30733,note_on,1,0,0,,8,,,56,127
30837,note_off,104,0,0,,8,,,56,127
30838,note_on,1,0,0,,12,,,59,127
30942,note_off,104,0,0,,12,,,59,127
30943,note_on,1,0,0,,10,,,57,127
30943,note_on,0,0,0,,0,,,72,127
31047,note_off,104,0,0,,10,,,57,127
31048,note_on,1,0,0,,0,,,60,127
31152,note_off,104,0,0,,0,,,60,127
31152,note_off,0,0,0,,0,,,72,127
31153,note_on,1,0,0,,12,,,59,127
31153,note_on,0,0,0,,2,,,74,127
31257,note_off,104,0,0,,12,,,59,127
31258,note_on,1,0,0,,2,,,62,127
31362,note_off,104,0,0,,2,,,62,127
31362,note_off,0,0,0,,2,,,74,127
31363,note_on,1,0,0,,0,,,60,127
31363,note_on,0,0,0,,4,,,76,127
31467,note_off,104,0,0,,0,,,60,127
31468,note_on,1,0,0,,4,,,64,127
31572,note_off,104,0,0,,4,,,64,127
31572,note_off,0,0,0,,4,,,76,127
31573,note_on,1,0,0,,2,,,50,127
31573,note_on,0,0,0,,5,,,77,127
31677,note_off,104,0,0,,2,,,50,127
31678,note_on,1,0,0,,5,,,53,127
31782,note_off,104,0,0,,5,,,53,127
31782,note_off,0,0,0,,5,,,77,127
31783,note_on,1,0,0,,4,,,52,127
31783,note_on,0,0,0,,8,,,68,127
31887,note_off,104,0,0,,4,,,52,127
31888,note_on,1,0,0,,8,,,56,127
31992,note_off,104,0,0,,8,,,56,127
31992,note_off,0,0,0,,8,,,68,127
31993,note_on,1,0,0,,6,,,54,127
31993,note_on,0,0,0,,10,,,69,127
32097,note_off,104,0,0,,6,,,54,127
32098,note_on,1,0,0,,10,,,57,127
32202,note_off,104,0,0,,10,,,57,127
32202,note_off,0,0,0,,10,,,69,127
32203,note_on,1,0,0,,8,,,56,127
32203,note_on,0,0,0,,12,,,71,127
32307,note_off,104,0,0,,8,,,56,127
32308,note_on,1,0,0,,12,,,59,127
32412,note_off,104,0,0,,12,,,59,127
32412,note_off,0,0,0,,12,,,71,127
32413,note_on,1,0,0,,10,,,57,127
32413,note_on,0,0,0,,0,,,72,127
32517,note_off,104,0,0,,10,,,57,127
32518,note_on,1,0,0,,0,,,60,127
32622,note_off,104,0,0,,0,,,60,127
32622,note_off,0,0,0,,0,,,72,127
32623,note_on,1,0,0,,12,,,59,127
32623,note_on,0,0,0,,2,,,74,127
32727,note_off,104,0,0,,12,,,59,127
32728,note_on,1,0,0,,2,,,62,127
32832,note_off,104,0,0,,2,,,62,127
32832,note_off,0,0,0,,2,,,74,127
32833,note_on,1,0,0,,0,,,48,127
32833,note_on,0,0,0,,4,,,76,127
32937,note_off,104,0,0,,4,,,76,127
32938,note_on,1,0,0,,4,,,64,127
33042,note_off,104,0,0,,4,,,64,127
33043,note_on,1,0,0,,6,,,66,127
33147,note_off,104,0,0,,6,,,66,127
33148,note_on,1,0,0,,8,,,68,127
33252,note_off,104,0,0,,8,,,68,127
33253,note_on,1,0,0,,10,,,57,127
33253,note_on,0,0,0,,10,,,69,127
33357,note_off,104,0,0,,10,,,69,127
33358,note_on,1,0,0,,12,,,71,127
33462,note_off,104,0,0,,12,,,71,127
33463,note_on,1,0,0,,0,,,72,127
33567,note_off,104,0,0,,0,,,72,127
33568,note_on,1,0,0,,2,,,74,127
33672,note_off,104,0,0,,2,,,74,127
33672,note_off,0,0,0,,10,,,57,127
33672,note_off,0,0,0,,0,,,48,127
33673,note_on,1,0,0,,0,,,48,127
33673,note_on,0,0,0,,4,,,76,127
33778,note_on,105,0,0,,7,,,67,127
33882,note_off,104,0,0,,7,,,67,127
33883,note_on,1,0,0,,5,,,65,127
33987,note_off,104,0,0,,5,,,65,127
33988,note_on,1,0,0,,4,,,64,127
34092,note_off,104,0,0,,4,,,64,127
34092,note_off,0,0,0,,0,,,48,127
34093,note_on,1,0,0,,2,,,50,127
34093,note_on,0,0,0,,12,,,59,127
34093,note_on,0,0,0,,10,,,57,127
34093,note_on,0,0,0,,5,,,65,127
34189,note_off,96,0,0,,4,,,76,127
34198,note_on,9,0,0,,2,,,74,127
34302,note_off,104,0,0,,2,,,74,127
34303,note_on,1,0,0,,0,,,72,127
34407,note_off,104,0,0,,0,,,72,127
34408,note_on,1,0,0,,12,,,71,127
34508,note_off,100,0,0,,5,,,65,127
34511,note_off,3,0,0,,12,,,71,127
34511,note_off,0,0,0,,10,,,57,127
34511,note_off,0,0,0,,12,,,59,127
34511,note_off,0,0,0,,2,,,50,127
34512,note_on,1,0,0,,10,,,57,127
34512,note_on,0,0,0,,4,,,52,127
34512,note_on,0,0,0,,0,,,60,127
34512,note_on,0,0,0,,0,,,72,127
34616,note_off,104,0,0,,0,,,72,127
34617,note_on,1,0,0,,2,,,74,127
34721,note_off,104,0,0,,2,,,74,127
34722,note_on,1,0,0,,4,,,76,127
34826,note_off,104,0,0,,4,,,76,127
34827,note_on,1,0,0,,2,,,74,127
34931,note_off,104,0,0,,2,,,74,127
34931,note_off,0,0,0,,0,,,60,127
34931,note_off,0,0,0,,4,,,52,127
34931,note_off,0,0,0,,10,,,57,127
34932,note_on,1,0,0,,12,,,59,127
34932,note_on,0,0,0,,4,,,52,127
34932,note_on,0,0,0,,0,,,72,127
35036,note_off,104,0,0,,0,,,72,127
35037,note_on,1,0,0,,12,,,71,127
35141,note_off,104,0,0,,12,,,71,127
35142,note_on,1,0,0,,10,,,69,127
35246,note_off,104,0,0,,10,,,69,127
35247,note_on,1,0,0,,8,,,68,127
35351,note_off,104,0,0,,8,,,68,127
35351,note_off,0,0,0,,4,,,52,127
35351,note_off,0,0,0,,12,,,59,127
35352,note_on,1,0,0,,2,,,86,127
35456,note_off,104,0,0,,2,,,86,127
35457,note_on,1,0,0,,12,,,83,127
35561,note_off,104,0,0,,12,,,83,127
35562,note_on,1,0,0,,8,,,80,127
35666,note_off,104,0,0,,8,,,80,127
35667,note_on,1,0,0,,5,,,77,127
35772,note_on,105,0,0,,2,,,62,127
35772,note_on,0,0,0,,12,,,59,127
35772,note_on,0,0,0,,10,,,57,127
35772,note_on,0,0,0,,2,,,50,127
35980,note_off,208,0,0,,5,,,77,127
35981,note_on,1,0,0,,8,,,68,127
35981,note_on,0,0,0,,12,,,71,127
36189,note_off,208,0,0,,2,,,50,127
36189,note_off,0,0,0,,10,,,57,127
36189,note_off,0,0,0,,12,,,59,127
36189,note_off,0,0,0,,2,,,62,127
36190,note_on,1,0,0,,12,,,59,127
36190,note_on,0,0,0,,10,,,57,127
36190,note_on,0,0,0,,2,,,62,127
36190,note_on,0,0,0,,4,,,52,127
36398,note_off,208,0,0,,12,,,71,127
36398,note_off,0,0,0,,8,,,68,127
36399,note_on,1,0,0,,10,,,69,127
36399,note_on,0,0,0,,0,,,72,127
36607,note_off,208,0,0,,0,,,72,127
36607,note_off,0,0,0,,10,,,69,127
36608,note_on,1,0,0,,2,,,86,127
36712,note_off,104,0,0,,2,,,86,127
36713,note_off,1,0,0,,4,,,52,127
36713,note_off,0,0,0,,2,,,62,127
36713,note_off,0,0,0,,10,,,57,127
36713,note_off,0,0,0,,12,,,59,127
36713,note_on,0,0,0,,12,,,83,127
36817,note_off,104,0,0,,12,,,83,127
36818,note_on,1,0,0,,8,,,80,127
36922,note_off,104,0,0,,8,,,80,127
36923,note_on,1,0,0,,5,,,77,127
37028,note_on,105,0,0,,10,,,57,127
37028,note_on,0,0,0,,12,,,59,127
37028,note_on,0,0,0,,2,,,62,127
37028,note_on,0,0,0,,5,,,53,127
37236,note_off,208,0,0,,5,,,77,127
37237,note_on,1,0,0,,8,,,68,127
37237,note_on,0,0,0,,12,,,71,127
37445,note_off,208,0,0,,5,,,53,127
37445,note_off,0,0,0,,2,,,62,127
37445,note_off,0,0,0,,12,,,59,127
37445,note_off,0,0,0,,10,,,57,127
37446,note_on,1,0,0,,10,,,57,127
37446,note_on,0,0,0,,4,,,52,127
37446,note_on,0,0,0,,12,,,59,127
37446,note_on,0,0,0,,2,,,62,127
37654,note_off,208,0,0,,12,,,71,127
37654,note_off,0,0,0,,8,,,68,127
37655,note_on,1,0,0,,10,,,69,127
37655,note_on,0,0,0,,0,,,72,127
37863,note_off,208,0,0,,0,,,72,127
37863,note_off,0,0,0,,10,,,69,127
37864,note_on,1,0,0,,2,,,86,127
37968,note_off,104,0,0,,2,,,86,127
37969,note_off,1,0,0,,2,,,62,127
37969,note_off,0,0,0,,12,,,59,127
37969,note_off,0,0,0,,4,,,52,127
37969,note_off,0,0,0,,10,,,57,127
37969,note_on,0,0,0,,12,,,83,127
38073,note_off,104,0,0,,12,,,83,127
38074,note_on,1,0,0,,8,,,80,127
38178,note_off,104,0,0,,8,,,80,127
38179,note_on,1,0,0,,5,,,77,127
38284,note_on,105,0,0,,2,,,50,127
38284,note_on,0,0,0,,2,,,62,127
38284,note_on,0,0,0,,12,,,59,127
38284,note_on,0,0,0,,10,,,57,127
38492,note_off,208,0,0,,5,,,77,127
38493,note_on,1,0,0,,8,,,68,127
38493,note_on,0,0,0,,12,,,71,127
38701,note_off,208,0,0,,10,,,57,127
38701,note_off,0,0,0,,12,,,59,127
38701,note_off,0,0,0,,2,,,62,127
38701,note_off,0,0,0,,2,,,50,127
38702,note_on,1,0,0,,12,,,59,127
38702,note_on,0,0,0,,10,,,57,127
38702,note_on,0,0,0,,4,,,52,127
38702,note_on,0,0,0,,2,,,62,127
38910,note_off,208,0,0,,12,,,71,127
38910,note_off,0,0,0,,8,,,68,127
38911,note_on,1,0,0,,10,,,69,127
38911,note_on,0,0,0,,0,,,72,127
39119,note_off,208,0,0,,0,,,72,127
39119,note_off,0,0,0,,10,,,69,127
39119,note_off,0,0,0,,2,,,62,127
39119,note_off,0,0,0,,4,,,52,127
39119,note_off,0,0,0,,10,,,57,127
39119,note_off,0,0,0,,12,,,59,127
39120,note_on,1,0,0,,2,,,62,127
39120,note_on,0,0,0,,5,,,53,127
39120,note_on,0,0,0,,2,,,74,127
39224,note_off,104,0,0,,2,,,74,127
39225,note_on,1,0,0,,5,,,77,127
39329,note_off,104,0,0,,5,,,77,127
39329,note_off,0,0,0,,5,,,53,127
39330,note_on,1,0,0,,2,,,50,127
39330,note_on,0,0,0,,4,,,76,127
39434,note_off,104,0,0,,4,,,76,127
39435,note_on,1,0,0,,2,,,74,127
39539,note_off,104,0,0,,2,,,74,127
39539,note_off,0,0,0,,2,,,50,127
39539,note_off,0,0,0,,2,,,62,127
39540,note_on,1,0,0,,10,,,57,127
39540,note_on,0,0,0,,4,,,52,127
39540,note_on,0,0,0,,0,,,60,127
39540,note_on,0,0,0,,0,,,72,127
39644,note_off,104,0,0,,0,,,72,127
39645,note_on,1,0,0,,2,,,74,127
39749,note_off,104,0,0,,2,,,74,127
39750,note_on,1,0,0,,4,,,76,127
39854,note_off,104,0,0,,4,,,76,127
39855,note_on,1,0,0,,2,,,74,127
39959,note_off,104,0,0,,2,,,74,127
39959,note_off,0,0,0,,0,,,60,127
39959,note_off,0,0,0,,4,,,52,127
39959,note_off,0,0,0,,10,,,57,127
39960,note_on,1,0,0,,4,,,52,127
39960,note_on,0,0,0,,12,,,59,127
39960,note_on,0,0,0,,0,,,72,127
40064,note_off,104,0,0,,0,,,72,127
40065,note_on,1,0,0,,12,,,71,127
40169,note_off,104,0,0,,12,,,71,127
40170,note_on,1,0,0,,10,,,69,127
40274,note_off,104,0,0,,10,,,69,127
40275,note_on,1,0,0,,8,,,68,127
40379,note_off,104,0,0,,8,,,68,127
40379,note_off,0,0,0,,12,,,59,127
40379,note_off,0,0,0,,4,,,52,127
40380,note_on,1,0,0,,0,,,48,127
40380,note_on,0,0,0,,10,,,57,127
40380,note_on,0,0,0,,10,,,69,127
40484,note_off,104,0,0,,10,,,69,127
40485,note_on,1,0,0,,0,,,72,127
40589,note_off,104,0,0,,0,,,72,127
40590,note_on,1,0,0,,12,,,71,127
40694,note_off,104,0,0,,12,,,71,127
40695,note_on,1,0,0,,10,,,69,127
40799,note_off,104,0,0,,10,,,69,127
40799,note_off,0,0,0,,10,,,57,127
40799,note_off,0,0,0,,0,,,48,127
40800,note_on,1,0,0,,10,,,57,127
40800,note_on,0,0,0,,2,,,50,127
40800,note_on,0,0,0,,12,,,59,127
40800,note_on,0,0,0,,5,,,77,127
40904,note_off,104,0,0,,5,,,77,127
40905,note_on,1,0,0,,5,,,77,127
41009,note_off,104,0,0,,5,,,77,127
41010,note_on,1,0,0,,4,,,76,127
41114,note_off,104,0,0,,4,,,76,127
41115,note_on,1,0,0,,2,,,74,127
41219,note_off,104,0,0,,2,,,74,127
41219,note_off,0,0,0,,12,,,59,127
41219,note_off,0,0,0,,2,,,50,127
41219,note_off,0,0,0,,10,,,57,127
41220,note_on,1,0,0,,4,,,52,127
41220,note_on,0,0,0,,12,,,59,127
41220,note_on,0,0,0,,0,,,72,127
41324,note_off,104,0,0,,0,,,72,127
41325,note_on,1,0,0,,12,,,71,127
41429,note_off,104,0,0,,12,,,71,127
41430,note_on,1,0,0,,10,,,69,127
41534,note_off,104,0,0,,10,,,69,127
41535,note_on,1,0,0,,8,,,68,127
41639,note_off,104,0,0,,8,,,68,127
41639,note_off,0,0,0,,12,,,59,127
41639,note_off,0,0,0,,4,,,52,127
41640,note_on,1,0,0,,10,,,57,127
41640,note_on,0,0,0,,0,,,48,127
41640,note_on,0,0,0,,10,,,69,127
41744,note_off,104,0,0,,10,,,69,127
41745,note_on,1,0,0,,0,,,72,127
41849,note_off,104,0,0,,0,,,72,127
41850,note_on,1,0,0,,12,,,71,127
41954,note_off,104,0,0,,12,,,71,127
41955,note_on,1,0,0,,10,,,69,127
42059,note_off,104,0,0,,10,,,69,127
42059,note_off,0,0,0,,0,,,48,127
42059,note_off,0,0,0,,10,,,57,127
42060,note_on,1,0,0,,2,,,50,127
42060,note_on,0,0,0,,10,,,57,127
42060,note_on,0,0,0,,12,,,59,127
42060,note_on,0,0,0,,5,,,77,127
42164,note_off,104,0,0,,5,,,77,127
42165,note_on,1,0,0,,5,,,77,127
42269,note_off,104,0,0,,5,,,77,127
42270,note_on,1,0,0,,4,,,76,127
42374,note_off,104,0,0,,4,,,76,127
42375,note_on,1,0,0,,2,,,74,127
42479,note_off,104,0,0,,2,,,74,127
42479,note_off,0,0,0,,12,,,59,127
42479,note_off,0,0,0,,10,,,57,127
42479,note_off,0,0,0,,2,,,50,127
42480,note_on,1,0,0,,4,,,52,127
42480,note_on,0,0,0,,12,,,59,127
42480,note_on,0,0,0,,0,,,72,127
42584,note_off,104,0,0,,0,,,72,127
42585,note_on,1,0,0,,12,,,71,127
42689,note_off,104,0,0,,12,,,71,127
42690,note_on,1,0,0,,10,,,69,127
42794,note_off,104,0,0,,10,,,69,127
42795,note_on,1,0,0,,8,,,68,127
42899,note_off,104,0,0,,8,,,68,127
42899,note_off,0,0,0,,12,,,59,127
42899,note_off,0,0,0,,4,,,52,127
42900,note_on,1,0,0,,0,,,36,127
42900,note_on,0,0,0,,0,,,48,127
42900,note_on,0,0,0,,10,,,69,127
43004,note_off,104,0,0,,10,,,69,127
43005,note_on,1,0,0,,0,,,72,127
43109,note_off,104,0,0,,0,,,72,127
43110,note_on,1,0,0,,12,,,71,127
43214,note_off,104,0,0,,12,,,71,127
43215,note_on,1,0,0,,10,,,69,127
43319,note_off,104,0,0,,10,,,69,127
43319,note_off,0,0,0,,0,,,48,127
43319,note_off,0,0,0,,0,,,36,127
43320,note_on,1,0,0,,2,,,50,127
43320,note_on,0,0,0,,2,,,38,127
43320,note_on,0,0,0,,10,,,81,127
43424,note_off,104,0,0,,10,,,81,127
43425,note_on,1,0,0,,10,,,81,127
43529,note_off,104,0,0,,10,,,81,127
43530,note_on,1,0,0,,7,,,79,127
43634,note_off,104,0,0,,7,,,79,127
43635,note_on,1,0,0,,5,,,77,127
43739,note_off,104,0,0,,5,,,77,127
43739,note_off,0,0,0,,2,,,38,127
43739,note_off,0,0,0,,2,,,50,127
43740,note_on,1,0,0,,4,,,40,127
43740,note_on,0,0,0,,4,,,52,127
43740,note_on,0,0,0,,4,,,76,127
43844,note_off,104,0,0,,4,,,76,127
43845,note_on,1,0,0,,2,,,74,127
43949,note_off,104,0,0,,2,,,74,127
43950,note_on,1,0,0,,0,,,72,127
44054,note_off,104,0,0,,0,,,72,127
44055,note_on,1,0,0,,12,,,71,127
44159,note_off,104,0,0,,12,,,71,127
44159,note_off,0,0,0,,4,,,52,127
44159,note_off,0,0,0,,4,,,40,127
44160,note_on,1,0,0,,10,,,45,127
44160,note_on,0,0,0,,10,,,69,127
44265,note_on,105,0,0,,10,,,81,127
44368,note_off,103,0,0,,10,,,69,127
44369,note_off,1,0,0,,10,,,81,127
44370,note_on,1,0,0,,7,,,79,127
44474,note_off,104,0,0,,7,,,79,127
44475,note_on,1,0,0,,10,,,81,127
44579,note_off,104,0,0,,10,,,81,127
44579,note_off,0,0,0,,10,,,45,127
44580,note_on,1,0,0,,11,,,82,127
44684,note_off,104,0,0,,11,,,82,127
44685,note_on,1,0,0,,7,,,79,127
44789,note_off,104,0,0,,7,,,79,127
44790,note_on,1,0,0,,10,,,81,127
44894,note_off,104,0,0,,10,,,81,127
44895,note_on,1,0,0,,5,,,77,127
44999,note_off,104,0,0,,5,,,77,127
45000,note_on,1,0,0,,7,,,79,127
45104,note_off,104,0,0,,7,,,79,127
45105,note_on,1,0,0,,4,,,76,127
45209,note_off,104,0,0,,4,,,76,127
45210,note_on,1,0,0,,5,,,77,127
45314,note_off,104,0,0,,5,,,77,127
45315,note_on,1,0,0,,2,,,74,127
45419,note_off,104,0,0,,2,,,74,127
45420,note_on,1,0,0,,4,,,76,127
45524,note_off,104,0,0,,4,,,76,127
45525,note_on,1,0,0,,1,,,73,127
45629,note_off,104,0,0,,1,,,73,127
45630,note_on,1,0,0,,2,,,74,127
45734,note_off,104,0,0,,2,,,74,127
45735,note_on,1,0,0,,12,,,71,127
45839,note_off,104,0,0,,12,,,71,127
45840,note_on,1,0,0,,1,,,73,127
45945,note_on,105,0,0,,10,,,69,127
45971,note_off,26,0,0,,1,,,73,127
46050,note_on,79,0,0,,2,,,74,127
46076,note_off,26,0,0,,10,,,69,127
46155,note_on,79,0,0,,10,,,69,127
46181,note_off,26,0,0,,2,,,74,127
46260,note_on,79,0,0,,4,,,76,127
46286,note_off,26,0,0,,10,,,69,127
46365,note_on,79,0,0,,10,,,69,127
46391,note_off,26,0,0,,4,,,76,127
46468,note_off,77,0,0,,10,,,69,127
46469,note_on,1,0,0,,5,,,77,127
46574,note_on,105,0,0,,10,,,69,127
46600,note_off,26,0,0,,5,,,77,127
46679,note_on,79,0,0,,4,,,76,127
46782,note_off,103,0,0,,10,,,69,127
46784,note_on,2,0,0,,10,,,69,127
46888,note_off,104,0,0,,10,,,69,127
46889,note_on,1,0,0,,7,,,67,127
46993,note_off,104,0,0,,7,,,67,127
46994,note_on,1,0,0,,10,,,69,127
47098,note_off,104,0,0,,10,,,69,127
47099,note_on,1,0,0,,11,,,70,127
47203,note_off,104,0,0,,11,,,70,127
47204,note_on,1,0,0,,7,,,67,127
47308,note_off,104,0,0,,7,,,67,127
47308,note_off,0,0,0,,4,,,76,127
47309,note_on,1,0,0,,10,,,69,127
47309,note_on,0,0,0,,2,,,74,127
47413,note_off,104,0,0,,10,,,69,127
47414,note_on,1,0,0,,5,,,65,127
47518,note_off,104,0,0,,5,,,65,127
47518,note_off,0,0,0,,2,,,74,127
47519,note_on,1,0,0,,7,,,67,127
47519,note_on,0,0,0,,1,,,73,127
47623,note_off,104,0,0,,7,,,67,127
47624,note_on,1,0,0,,4,,,64,127
47728,note_off,104,0,0,,4,,,64,127
47728,note_off,0,0,0,,1,,,73,127
47729,note_on,1,0,0,,5,,,65,127
47729,note_on,0,0,0,,2,,,74,127
47833,note_off,104,0,0,,5,,,65,127
47834,note_on,1,0,0,,2,,,62,127
47938,note_off,104,0,0,,2,,,62,127
47938,note_off,0,0,0,,2,,,74,127
47939,note_on,1,0,0,,4,,,64,127
47939,note_on,0,0,0,,4,,,76,127
48043,note_off,104,0,0,,4,,,64,127
48044,note_on,1,0,0,,1,,,61,127
48148,note_off,104,0,0,,1,,,61,127
48148,note_off,0,0,0,,4,,,76,127
48149,note_on,1,0,0,,2,,,62,127
48149,note_on,0,0,0,,5,,,77,127
48253,note_off,104,0,0,,2,,,62,127
48254,note_on,1,0,0,,12,,,59,127
48358,note_off,104,0,0,,12,,,59,127
48358,note_off,0,0,0,,5,,,77,127
48359,note_on,1,0,0,,1,,,61,127
48359,note_on,0,0,0,,7,,,79,127
48463,note_off,104,0,0,,1,,,61,127
48464,note_on,1,0,0,,10,,,57,127
48568,note_off,104,0,0,,10,,,57,127
48568,note_off,0,0,0,,7,,,79,127
48569,note_on,1,0,0,,2,,,62,127
48569,note_on,0,0,0,,5,,,77,127
48673,note_off,104,0,0,,2,,,62,127
48674,note_on,1,0,0,,10,,,57,127
48778,note_off,104,0,0,,10,,,57,127
48778,note_off,0,0,0,,5,,,77,127
48779,note_on,1,0,0,,4,,,64,127
48779,note_on,0,0,0,,4,,,76,127
48883,note_off,104,0,0,,4,,,64,127
48884,note_on,1,0,0,,10,,,57,127
48988,note_off,104,0,0,,10,,,57,127
48988,note_off,0,0,0,,4,,,76,127
48989,note_on,1,0,0,,5,,,65,127
48989,note_on,0,0,0,,2,,,74,127
49093,note_off,104,0,0,,5,,,65,127
49094,note_on,1,0,0,,10,,,57,127
49199,note_on,105,0,0,,4,,,64,127
49303,note_off,104,0,0,,2,,,74,127
49304,note_on,1,0,0,,4,,,76,127
49408,note_off,104,0,0,,4,,,76,127
49409,note_on,1,0,0,,1,,,73,127
49513,note_off,104,0,0,,1,,,73,127
49514,note_on,1,0,0,,2,,,74,127
49618,note_off,104,0,0,,2,,,74,127
49619,note_on,1,0,0,,4,,,76,127
49723,note_off,104,0,0,,4,,,64,127
49723,note_off,0,0,0,,10,,,57,127
49724,note_on,1,0,0,,10,,,57,127
49828,note_off,104,0,0,,10,,,57,127
49829,note_on,1,0,0,,2,,,62,127
49933,note_off,104,0,0,,2,,,62,127
49934,note_on,1,0,0,,4,,,64,127
50038,note_off,104,0,0,,4,,,64,127
50039,note_on,1,0,0,,5,,,65,127
50143,note_off,104,0,0,,4,,,76,127
50144,note_on,1,0,0,,10,,,69,127
50248,note_off,104,0,0,,10,,,69,127
50249,note_on,1,0,0,,2,,,74,127
50353,note_off,104,0,0,,2,,,74,127
50354,note_on,1,0,0,,4,,,76,127
50458,note_off,104,0,0,,4,,,76,127
50459,note_on,1,0,0,,5,,,77,127
50563,note_off,104,0,0,,5,,,65,127
50564,note_on,1,0,0,,10,,,57,127
50668,note_off,104,0,0,,10,,,57,127
50669,note_on,1,0,0,,4,,,64,127
50773,note_off,104,0,0,,4,,,64,127
50774,note_on,1,0,0,,5,,,65,127
50878,note_off,104,0,0,,5,,,65,127
50879,note_on,1,0,0,,7,,,67,127
50983,note_off,104,0,0,,5,,,77,127
50984,note_on,1,0,0,,10,,,69,127
51088,note_off,104,0,0,,10,,,69,127
51089,note_on,1,0,0,,4,,,76,127
51193,note_off,104,0,0,,4,,,76,127
51194,note_on,1,0,0,,5,,,77,127
51298,note_off,104,0,0,,5,,,77,127
51299,note_on,1,0,0,,7,,,79,127
51403,note_off,104,0,0,,7,,,67,127
51404,note_on,1,0,0,,10,,,57,127
51508,note_off,104,0,0,,10,,,57,127
51509,note_on,1,0,0,,5,,,65,127
51613,note_off,104,0,0,,5,,,65,127
51614,note_on,1,0,0,,7,,,67,127
51718,note_off,104,0,0,,7,,,67,127
51719,note_on,1,0,0,,10,,,69,127
51823,note_off,104,0,0,,10,,,69,127
51823,note_off,0,0,0,,7,,,79,127
51824,note_on,1,0,0,,10,,,69,127
51929,note_on,105,0,0,,5,,,77,127
52033,note_off,104,0,0,,5,,,77,127
52034,note_on,1,0,0,,7,,,79,127
52138,note_off,104,0,0,,7,,,79,127
52139,note_on,1,0,0,,10,,,81,127
52243,note_off,104,0,0,,10,,,69,127
52244,note_on,1,0,0,,7,,,67,127
52348,note_off,104,0,0,,7,,,67,127
52349,note_on,1,0,0,,5,,,65,127
52453,note_off,104,0,0,,5,,,65,127
52454,note_off,1,0,0,,10,,,81,127
52454,note_on,0,0,0,,4,,,64,127
52558,note_off,104,0,0,,4,,,64,127
52559,note_on,1,0,0,,2,,,62,127
52559,note_on,0,0,0,,2,,,86,127
52663,note_off,104,0,0,,2,,,62,127
52664,note_on,1,0,0,,0,,,60,127
52768,note_off,104,0,0,,0,,,60,127
52769,note_on,1,0,0,,11,,,58,127
52873,note_off,104,0,0,,11,,,58,127
52874,note_on,1,0,0,,10,,,57,127
52978,note_off,104,0,0,,10,,,57,127
52979,note_on,1,0,0,,7,,,55,127
53083,note_off,104,0,0,,2,,,86,127
53084,note_on,1,0,0,,0,,,84,127
53188,note_off,104,0,0,,0,,,84,127
53189,note_on,1,0,0,,11,,,82,127
53293,note_off,104,0,0,,11,,,82,127
53294,note_on,1,0,0,,10,,,81,127
53398,note_off,104,0,0,,10,,,81,127
53398,note_off,0,0,0,,7,,,55,127
53399,note_on,1,0,0,,11,,,58,127
53399,note_on,0,0,0,,7,,,79,127
53503,note_off,104,0,0,,7,,,79,127
53504,note_on,1,0,0,,5,,,77,127
53608,note_off,104,0,0,,5,,,77,127
53609,note_on,1,0,0,,4,,,76,127
53713,note_off,104,0,0,,4,,,76,127
53714,note_on,1,0,0,,2,,,74,127
53818,note_off,104,0,0,,2,,,74,127
53818,note_off,0,0,0,,11,,,58,127
53819,note_on,1,0,0,,0,,,60,127
53819,note_on,0,0,0,,0,,,72,127
53923,note_off,104,0,0,,0,,,72,127
53924,note_on,1,0,0,,11,,,70,127
54028,note_off,104,0,0,,11,,,70,127
54029,note_on,1,0,0,,10,,,69,127
54133,note_off,104,0,0,,10,,,69,127
54134,note_on,1,0,0,,7,,,67,127
54238,note_off,104,0,0,,7,,,67,127
54238,note_off,0,0,0,,0,,,60,127
54239,note_on,1,0,0,,5,,,53,127
54239,note_on,0,0,0,,5,,,65,127
54344,note_on,105,0,0,,0,,,72,127
54447,note_off,103,0,0,,5,,,65,127
54448,note_off,1,0,0,,0,,,72,127
54449,note_on,1,0,0,,2,,,74,127
54553,note_off,104,0,0,,2,,,74,127
54554,note_on,1,0,0,,4,,,76,127
54658,note_off,104,0,0,,4,,,76,127
54658,note_off,0,0,0,,5,,,53,127
54659,note_on,1,0,0,,10,,,57,127
54659,note_on,0,0,0,,5,,,77,127
54764,note_on,105,0,0,,10,,,69,127
54868,note_off,104,0,0,,10,,,69,127
54869,note_on,1,0,0,,11,,,70,127
54973,note_off,104,0,0,,11,,,70,127
54974,note_on,1,0,0,,0,,,72,127
55078,note_off,104,0,0,,0,,,72,127
55078,note_off,0,0,0,,10,,,57,127
55079,note_on,1,0,0,,12,,,59,127
55079,note_on,0,0,0,,5,,,65,127
55182,note_off,103,0,0,,5,,,77,127
55184,note_on,2,0,0,,5,,,77,127
55287,note_off,103,0,0,,5,,,65,127
55288,note_off,1,0,0,,5,,,77,127
55289,note_on,1,0,0,,4,,,76,127
55393,note_off,104,0,0,,4,,,76,127
55394,note_on,1,0,0,,2,,,74,127
55498,note_off,104,0,0,,2,,,74,127
55498,note_off,0,0,0,,12,,,59,127
55499,note_on,1,0,0,,0,,,60,127
55499,note_on,0,0,0,,4,,,76,127
55603,note_off,104,0,0,,0,,,60,127
55604,note_on,1,0,0,,7,,,55,127
55708,note_off,104,0,0,,7,,,55,127
55709,note_on,1,0,0,,10,,,57,127
55813,note_off,104,0,0,,10,,,57,127
55814,note_on,1,0,0,,12,,,59,127
55893,note_off,79,0,0,,4,,,76,127
55918,note_off,25,0,0,,12,,,59,127
55919,note_on,1,0,0,,0,,,60,127
55919,note_on,0,0,0,,7,,,79,127
56023,note_off,104,0,0,,0,,,60,127
56024,note_on,1,0,0,,4,,,52,127
56128,note_off,104,0,0,,4,,,52,127
56129,note_on,1,0,0,,5,,,53,127
56233,note_off,104,0,0,,5,,,53,127
56234,note_on,1,0,0,,7,,,55,127
56313,note_off,79,0,0,,7,,,79,127
56338,note_off,25,0,0,,7,,,55,127
56339,note_on,1,0,0,,0,,,48,127
56339,note_on,0,0,0,,0,,,84,127
56443,note_off,104,0,0,,0,,,48,127
56444,note_on,1,0,0,,10,,,57,127
56548,note_off,104,0,0,,10,,,57,127
56549,note_on,1,0,0,,7,,,55,127
56653,note_off,104,0,0,,7,,,55,127
56654,note_on,1,0,0,,6,,,54,127
56758,note_off,104,0,0,,6,,,54,127
56758,note_off,0,0,0,,0,,,84,127
56759,note_on,1,0,0,,7,,,55,127
56759,note_on,0,0,0,,11,,,82,127
56863,note_off,104,0,0,,11,,,82,127
56864,note_on,1,0,0,,2,,,74,127
56968,note_off,104,0,0,,2,,,74,127
56969,note_on,1,0,0,,4,,,76,127
57073,note_off,104,0,0,,4,,,76,127
57074,note_on,1,0,0,,6,,,78,127
57178,note_off,104,0,0,,6,,,78,127
57178,note_off,0,0,0,,7,,,55,127
57179,note_on,1,0,0,,11,,,58,127
57179,note_on,0,0,0,,7,,,79,127
57284,note_on,105,0,0,,11,,,70,127
57388,note_off,104,0,0,,11,,,70,127
57389,note_on,1,0,0,,0,,,72,127
57493,note_off,104,0,0,,0,,,72,127
57494,note_on,1,0,0,,2,,,74,127
57598,note_off,104,0,0,,2,,,74,127
57598,note_off,0,0,0,,11,,,58,127
57599,note_on,1,0,0,,1,,,61,127
57599,note_on,0,0,0,,7,,,67,127
57702,note_off,103,0,0,,7,,,79,127
57704,note_on,2,0,0,,7,,,79,127
57807,note_off,103,0,0,,7,,,67,127
57808,note_off,1,0,0,,7,,,79,127
57809,note_on,1,0,0,,5,,,77,127
57913,note_off,104,0,0,,5,,,77,127
57914,note_on,1,0,0,,4,,,76,127
58018,note_off,104,0,0,,4,,,76,127
58018,note_off,0,0,0,,1,,,61,127
58019,note_on,1,0,0,,2,,,62,127
58019,note_on,0,0,0,,5,,,77,127
58123,note_off,104,0,0,,2,,,62,127
58124,note_on,1,0,0,,10,,,57,127
58228,note_off,104,0,0,,10,,,57,127
58229,note_on,1,0,0,,12,,,59,127
58333,note_off,104,0,0,,12,,,59,127
58334,note_on,1,0,0,,1,,,61,127
58413,note_off,79,0,0,,5,,,77,127
58438,note_off,25,0,0,,1,,,61,127
58439,note_on,1,0,0,,2,,,62,127
58439,note_on,0,0,0,,10,,,81,127
58543,note_off,104,0,0,,2,,,62,127
58544,note_on,1,0,0,,5,,,53,127
58648,note_off,104,0,0,,5,,,53,127
58649,note_on,1,0,0,,7,,,55,127
58753,note_off,104,0,0,,7,,,55,127
58754,note_on,1,0,0,,10,,,57,127
58833,note_off,79,0,0,,10,,,81,127
58858,note_off,25,0,0,,10,,,57,127
58859,note_on,1,0,0,,2,,,50,127
58859,note_on,0,0,0,,2,,,86,127
58963,note_off,104,0,0,,2,,,50,127
58964,note_on,1,0,0,,11,,,58,127
59068,note_off,104,0,0,,11,,,58,127
59069,note_on,1,0,0,,10,,,57,127
59173,note_off,104,0,0,,10,,,57,127
59174,note_on,1,0,0,,8,,,56,127
59278,note_off,104,0,0,,8,,,56,127
59278,note_off,0,0,0,,2,,,86,127
59279,note_on,1,0,0,,10,,,57,127
59279,note_on,0,0,0,,1,,,85,127
59383,note_off,104,0,0,,1,,,85,127
59384,note_on,1,0,0,,11,,,82,127
59488,note_off,104,0,0,,11,,,82,127
59489,note_on,1,0,0,,10,,,81,127
59593,note_off,104,0,0,,10,,,81,127
59594,note_on,1,0,0,,7,,,79,127
59698,note_off,104,0,0,,7,,,79,127
59698,note_off,0,0,0,,10,,,57,127
59699,note_on,1,0,0,,10,,,45,127
59699,note_on,0,0,0,,10,,,81,127
59803,note_off,104,0,0,,10,,,81,127
59804,note_on,1,0,0,,7,,,79,127
59908,note_off,104,0,0,,7,,,79,127
59909,note_on,1,0,0,,5,,,77,127
60013,note_off,104,0,0,,5,,,77,127
60014,note_on,1,0,0,,4,,,76,127
60118,note_off,104,0,0,,4,,,76,127
60118,note_off,0,0,0,,10,,,45,127
60119,note_on,1,0,0,,10,,,57,127
60119,note_on,0,0,0,,5,,,77,127
60223,note_off,104,0,0,,5,,,77,127
60224,note_on,1,0,0,,4,,,76,127
60328,note_off,104,0,0,,4,,,76,127
60329,note_on,1,0,0,,2,,,74,127
60433,note_off,104,0,0,,2,,,74,127
60434,note_on,1,0,0,,1,,,73,127
60538,note_off,104,0,0,,1,,,73,127
60539,note_on,1,0,0,,2,,,74,127
60643,note_off,104,0,0,,2,,,74,127
60644,note_on,1,0,0,,5,,,77,127
60699,note_off,55,0,0,,10,,,57,127
60748,note_off,49,0,0,,5,,,77,127
60749,note_on,1,0,0,,2,,,62,127
60749,note_on,0,0,0,,4,,,76,127
60853,note_off,104,0,0,,4,,,76,127
60854,note_on,1,0,0,,2,,,74,127
60958,note_off,104,0,0,,2,,,74,127
60958,note_off,0,0,0,,2,,,62,127
60959,note_on,1,0,0,,7,,,55,127
60959,note_on,0,0,0,,11,,,82,127
61063,note_off,104,0,0,,11,,,82,127
61064,note_on,1,0,0,,10,,,81,127
61168,note_off,104,0,0,,10,,,81,127
61169,note_on,1,0,0,,7,,,79,127
61273,note_off,104,0,0,,7,,,79,127
61274,note_on,1,0,0,,5,,,77,127
61378,note_off,104,0,0,,5,,,77,127
61379,note_on,1,0,0,,7,,,43,127
61379,note_on,0,0,0,,4,,,76,127
61483,note_off,104,0,0,,4,,,76,127
61484,note_on,1,0,0,,2,,,74,127
61588,note_off,104,0,0,,2,,,74,127
61589,note_on,1,0,0,,1,,,73,127
61693,note_off,104,0,0,,1,,,73,127
61694,note_on,1,0,0,,11,,,70,127
61798,note_off,104,0,0,,11,,,70,127
61798,note_off,0,0,0,,7,,,43,127
61798,note_off,0,0,0,,7,,,55,127
61799,note_on,1,0,0,,10,,,69,127
61904,note_on,105,0,0,,10,,,45,127
62008,note_off,104,0,0,,10,,,45,127
62009,note_on,1,0,0,,12,,,47,127
62113,note_off,104,0,0,,12,,,47,127
62114,note_on,1,0,0,,1,,,49,127
62218,note_off,104,0,0,,1,,,49,127
62218,note_off,0,0,0,,10,,,69,127
62219,note_on,1,0,0,,2,,,50,127
62323,note_off,104,0,0,,2,,,50,127
62324,note_on,1,0,0,,4,,,52,127
62428,note_off,104,0,0,,4,,,52,127
62429,note_on,1,0,0,,5,,,53,127
62429,note_on,0,0,0,,10,,,81,127
62533,note_off,104,0,0,,5,,,53,127
62534,note_on,1,0,0,,7,,,55,127
62638,note_off,104,0,0,,7,,,55,127
62638,note_off,0,0,0,,10,,,81,127
62639,note_on,1,0,0,,10,,,57,127
62639,note_on,0,0,0,,7,,,79,127
62743,note_off,104,0,0,,10,,,57,127
62744,note_on,1,0,0,,12,,,59,127
62848,note_off,104,0,0,,12,,,59,127
62848,note_off,0,0,0,,7,,,79,127
62849,note_on,1,0,0,,1,,,61,127
62849,note_on,0,0,0,,4,,,76,127
62953,note_off,104,0,0,,1,,,61,127
62954,note_on,1,0,0,,10,,,57,127
63058,note_off,104,0,0,,10,,,57,127
63058,note_off,0,0,0,,4,,,76,127
63059,note_on,1,0,0,,2,,,62,127
63059,note_on,0,0,0,,7,,,79,127
63110,note_off,51,0,0,,7,,,79,127
63111,note_on,1,0,0,,5,,,77,127
63162,note_off,51,0,0,,5,,,77,127
63162,note_off,0,0,0,,2,,,62,127
63163,note_on,1,0,0,,4,,,64,127
63163,note_on,0,0,0,,7,,,79,127
63214,note_off,51,0,0,,7,,,79,127
63215,note_on,1,0,0,,5,,,77,127
63266,note_off,51,0,0,,5,,,77,127
63266,note_off,0,0,0,,4,,,64,127
63267,note_on,1,0,0,,5,,,65,127
63267,note_on,0,0,0,,7,,,79,127
63318,note_off,51,0,0,,7,,,79,127
63319,note_on,1,0,0,,5,,,77,127
63370,note_off,51,0,0,,5,,,77,127
63370,note_off,0,0,0,,5,,,65,127
63371,note_on,1,0,0,,7,,,67,127
63371,note_on,0,0,0,,7,,,79,127
63422,note_off,51,0,0,,7,,,79,127
63423,note_on,1,0,0,,5,,,77,127
63474,note_off,51,0,0,,5,,,77,127
63474,note_off,0,0,0,,7,,,67,127
63475,note_on,1,0,0,,10,,,69,127
63475,note_on,0,0,0,,4,,,76,127
63579,note_off,104,0,0,,10,,,69,127
63580,note_on,1,0,0,,12,,,71,127
63684,note_off,104,0,0,,12,,,71,127
63684,note_off,0,0,0,,4,,,76,127
63685,note_on,1,0,0,,1,,,73,127
63685,note_on,0,0,0,,7,,,79,127
63789,note_off,104,0,0,,1,,,73,127
63790,note_on,1,0,0,,10,,,69,127
63894,note_off,104,0,0,,10,,,69,127
63894,note_off,0,0,0,,7,,,79,127
63895,note_on,1,0,0,,2,,,74,127
63895,note_on,0,0,0,,7,,,79,127
63946,note_off,51,0,0,,7,,,79,127
63947,note_on,1,0,0,,5,,,77,127
63998,note_off,51,0,0,,5,,,77,127
63999,note_on,1,0,0,,7,,,79,127
64050,note_off,51,0,0,,7,,,79,127
64051,note_on,1,0,0,,5,,,77,127
64102,note_off,51,0,0,,5,,,77,127
64102,note_off,0,0,0,,2,,,74,127
64103,note_on,1,0,0,,2,,,62,127
64103,note_on,0,0,0,,7,,,79,127
64154,note_off,51,0,0,,7,,,79,127
64155,note_on,1,0,0,,5,,,77,127
64206,note_off,51,0,0,,5,,,77,127
64207,note_on,1,0,0,,7,,,79,127
64258,note_off,51,0,0,,7,,,79,127
64259,note_on,1,0,0,,5,,,77,127
64310,note_off,51,0,0,,5,,,77,127
64310,note_off,0,0,0,,2,,,62,127
64311,note_on,1,0,0,,4,,,76,127
64416,note_on,105,0,0,,10,,,45,127
64520,note_off,104,0,0,,10,,,45,127
64521,note_on,1,0,0,,12,,,47,127
64625,note_off,104,0,0,,12,,,47,127
64626,note_on,1,0,0,,1,,,49,127
64730,note_off,104,0,0,,1,,,49,127
64730,note_off,0,0,0,,4,,,76,127
64731,note_on,1,0,0,,2,,,50,127
64835,note_off,104,0,0,,2,,,50,127
64836,note_on,1,0,0,,4,,,52,127
64940,note_off,104,0,0,,4,,,52,127
64941,note_on,1,0,0,,5,,,53,127
64941,note_on,0,0,0,,10,,,81,127
65045,note_off,104,0,0,,5,,,53,127
65046,note_on,1,0,0,,7,,,55,127
65150,note_off,104,0,0,,7,,,55,127
65150,note_off,0,0,0,,10,,,81,127
65151,note_on,1,0,0,,10,,,57,127
65151,note_on,0,0,0,,7,,,79,127
65255,note_off,104,0,0,,10,,,57,127
65256,note_on,1,0,0,,12,,,59,127
65360,note_off,104,0,0,,12,,,59,127
65360,note_off,0,0,0,,7,,,79,127
65361,note_on,1,0,0,,1,,,61,127
65361,note_on,0,0,0,,4,,,76,127
65465,note_off,104,0,0,,1,,,61,127
65466,note_on,1,0,0,,10,,,57,127
65570,note_off,104,0,0,,10,,,57,127
65570,note_off,0,0,0,,4,,,76,127
65571,note_on,1,0,0,,2,,,62,127
65571,note_on,0,0,0,,7,,,79,127
65622,note_off,51,0,0,,7,,,79,127
65623,note_on,1,0,0,,5,,,77,127
65674,note_off,51,0,0,,5,,,77,127
65674,note_off,0,0,0,,2,,,62,127
65675,note_on,1,0,0,,4,,,64,127
65675,note_on,0,0,0,,7,,,79,127
65726,note_off,51,0,0,,7,,,79,127
65727,note_on,1,0,0,,5,,,77,127
65778,note_off,51,0,0,,5,,,77,127
65778,note_off,0,0,0,,4,,,64,127
65779,note_on,1,0,0,,5,,,65,127
65779,note_on,0,0,0,,7,,,79,127
65830,note_off,51,0,0,,7,,,79,127
65831,note_on,1,0,0,,5,,,77,127
65882,note_off,51,0,0,,5,,,77,127
65882,note_off,0,0,0,,5,,,65,127
65883,note_on,1,0,0,,7,,,67,127
65883,note_on,0,0,0,,7,,,79,127
65934,note_off,51,0,0,,7,,,79,127
65935,note_on,1,0,0,,5,,,77,127
65986,note_off,51,0,0,,5,,,77,127
65986,note_off,0,0,0,,7,,,67,127
65987,note_on,1,0,0,,10,,,69,127
65987,note_on,0,0,0,,4,,,76,127
66091,note_off,104,0,0,,10,,,69,127
66092,note_on,1,0,0,,12,,,71,127
66196,note_off,104,0,0,,12,,,71,127
66196,note_off,0,0,0,,4,,,76,127
66197,note_on,1,0,0,,1,,,73,127
66197,note_on,0,0,0,,7,,,79,127
66301,note_off,104,0,0,,1,,,73,127
66302,note_on,1,0,0,,10,,,69,127
66406,note_off,104,0,0,,10,,,69,127
66406,note_off,0,0,0,,7,,,79,127
66407,note_on,1,0,0,,2,,,74,127
66407,note_on,0,0,0,,7,,,79,127
66458,note_off,51,0,0,,7,,,79,127
66459,note_on,1,0,0,,5,,,77,127
66510,note_off,51,0,0,,5,,,77,127
66511,note_on,1,0,0,,7,,,79,127
66562,note_off,51,0,0,,7,,,79,127
66563,note_on,1,0,0,,5,,,77,127
66614,note_off,51,0,0,,5,,,77,127
66614,note_off,0,0,0,,2,,,74,127
66615,note_on,1,0,0,,2,,,62,127
66615,note_on,0,0,0,,7,,,79,127
66666,note_off,51,0,0,,7,,,79,127
66667,note_on,1,0,0,,5,,,77,127
66718,note_off,51,0,0,,5,,,77,127
66719,note_on,1,0,0,,7,,,79,127
66770,note_off,51,0,0,,7,,,79,127
66771,note_on,1,0,0,,5,,,77,127
66822,note_off,51,0,0,,5,,,77,127
66822,note_off,0,0,0,,2,,,62,127
66823,note_on,1,0,0,,10,,,45,127
66823,note_on,0,0,0,,4,,,76,127
66927,note_off,104,0,0,,10,,,45,127
66928,note_on,1,0,0,,1,,,49,127
67032,note_off,104,0,0,,1,,,49,127
67033,note_on,1,0,0,,12,,,47,127
67137,note_off,104,0,0,,12,,,47,127
67138,note_on,1,0,0,,2,,,50,127
67242,note_off,104,0,0,,2,,,50,127
67242,note_off,0,0,0,,4,,,76,127
67243,note_on,1,0,0,,1,,,49,127
67347,note_off,104,0,0,,1,,,49,127
67348,note_on,1,0,0,,4,,,52,127
67452,note_off,104,0,0,,4,,,52,127
67453,note_on,1,0,0,,2,,,50,127
67453,note_on,0,0,0,,5,,,77,127
67557,note_off,104,0,0,,2,,,50,127
67558,note_on,1,0,0,,5,,,53,127
67662,note_off,104,0,0,,5,,,53,127
67662,note_off,0,0,0,,5,,,77,127
67663,note_on,1,0,0,,4,,,52,127
67663,note_on,0,0,0,,7,,,79,127
67767,note_off,104,0,0,,4,,,52,127
67768,note_on,1,0,0,,7,,,55,127
67872,note_off,104,0,0,,7,,,55,127
67872,note_off,0,0,0,,7,,,79,127
67873,note_on,1,0,0,,5,,,53,127
67873,note_on,0,0,0,,10,,,81,127
67977,note_off,104,0,0,,5,,,53,127
67978,note_on,1,0,0,,10,,,57,127
68082,note_off,104,0,0,,10,,,57,127
68082,note_off,0,0,0,,10,,,81,127
68083,note_on,1,0,0,,7,,,55,127
68083,note_on,0,0,0,,11,,,82,127
68187,note_off,104,0,0,,7,,,55,127
68188,note_on,1,0,0,,11,,,58,127
68292,note_off,104,0,0,,11,,,58,127
68292,note_off,0,0,0,,11,,,82,127
68293,note_on,1,0,0,,10,,,57,127
68293,note_on,0,0,0,,1,,,73,127
68397,note_off,104,0,0,,10,,,57,127
68398,note_on,1,0,0,,1,,,61,127
68502,note_off,104,0,0,,1,,,61,127
68502,note_off,0,0,0,,1,,,73,127
68503,note_on,1,0,0,,12,,,59,127
68503,note_on,0,0,0,,2,,,74,127
68607,note_off,104,0,0,,12,,,59,127
68608,note_on,1,0,0,,2,,,62,127
68712,note_off,104,0,0,,2,,,62,127
68712,note_off,0,0,0,,2,,,74,127
68713,note_on,1,0,0,,1,,,61,127
68713,note_on,0,0,0,,4,,,76,127
68817,note_off,104,0,0,,1,,,61,127
68818,note_on,1,0,0,,4,,,64,127
68922,note_off,104,0,0,,4,,,64,127
68922,note_off,0,0,0,,4,,,76,127
68923,note_on,1,0,0,,2,,,62,127
68923,note_on,0,0,0,,5,,,77,127
69027,note_off,104,0,0,,2,,,62,127
69028,note_on,1,0,0,,5,,,65,127
69132,note_off,104,0,0,,5,,,65,127
69132,note_off,0,0,0,,5,,,77,127
69133,note_on,1,0,0,,4,,,64,127
69133,note_on,0,0,0,,7,,,79,127
69237,note_off,104,0,0,,4,,,64,127
69238,note_on,1,0,0,,7,,,67,127
69342,note_off,104,0,0,,7,,,67,127
69342,note_off,0,0,0,,7,,,79,127
69343,note_on,1,0,0,,5,,,53,127
69343,note_on,0,0,0,,10,,,81,127
69448,note_on,105,0,0,,10,,,69,127
69551,note_off,103,0,0,,10,,,81,127
69552,note_off,1,0,0,,10,,,69,127
69553,note_on,1,0,0,,12,,,71,127
69657,note_off,104,0,0,,12,,,71,127
69658,note_on,1,0,0,,1,,,73,127
69762,note_off,104,0,0,,1,,,73,127
69763,note_on,1,0,0,,2,,,62,127
69763,note_on,0,0,0,,2,,,74,127
69868,note_on,105,0,0,,5,,,65,127
69971,note_off,103,0,0,,2,,,74,127
69972,note_off,1,0,0,,5,,,65,127
69973,note_on,1,0,0,,7,,,67,127
70077,note_off,104,0,0,,7,,,67,127
70078,note_on,1,0,0,,10,,,69,127
70182,note_off,104,0,0,,10,,,69,127
70182,note_off,0,0,0,,2,,,62,127
70182,note_off,0,0,0,,5,,,53,127
70183,note_on,1,0,0,,5,,,53,127
70183,note_on,0,0,0,,2,,,62,127
70288,note_on,105,0,0,,0,,,72,127
70391,note_off,103,0,0,,2,,,62,127
70392,note_off,1,0,0,,0,,,72,127
70393,note_on,1,0,0,,11,,,70,127
70497,note_off,104,0,0,,11,,,70,127
70498,note_on,1,0,0,,10,,,69,127
70602,note_off,104,0,0,,10,,,69,127
70602,note_off,0,0,0,,5,,,53,127
70603,note_on,1,0,0,,7,,,55,127
70603,note_on,0,0,0,,11,,,70,127
70707,note_off,104,0,0,,11,,,70,127
70708,note_on,1,0,0,,2,,,74,127
70812,note_off,104,0,0,,2,,,74,127
70813,note_on,1,0,0,,0,,,72,127
70917,note_off,104,0,0,,0,,,72,127
70918,note_on,1,0,0,,11,,,70,127
71022,note_off,104,0,0,,11,,,70,127
71022,note_off,0,0,0,,7,,,55,127
71023,note_on,1,0,0,,10,,,57,127
71023,note_on,0,0,0,,10,,,69,127
71127,note_off,104,0,0,,10,,,69,127
71128,note_on,1,0,0,,7,,,67,127
71232,note_off,104,0,0,,7,,,67,127
71233,note_on,1,0,0,,5,,,65,127
71337,note_off,104,0,0,,5,,,65,127
71338,note_on,1,0,0,,4,,,64,127
71442,note_off,104,0,0,,4,,,64,127
71443,note_on,1,0,0,,10,,,45,127
71443,note_on,0,0,0,,5,,,65,127
71547,note_off,104,0,0,,5,,,65,127
71548,note_on,1,0,0,,4,,,64,127
71652,note_off,104,0,0,,4,,,64,127
71652,note_off,0,0,0,,10,,,57,127
71653,note_on,1,0,0,,2,,,62,127
71757,note_off,104,0,0,,2,,,62,127
71758,note_on,1,0,0,,1,,,61,127
71862,note_off,104,0,0,,1,,,61,127
71862,note_off,0,0,0,,10,,,45,127
71863,note_on,1,0,0,,2,,,38,127
71863,note_on,0,0,0,,2,,,62,127
71967,note_off,104,0,0,,2,,,38,127
71968,note_on,1,0,0,,4,,,40,127
72072,note_off,104,0,0,,4,,,40,127
72073,note_on,1,0,0,,5,,,41,127
72177,note_off,104,0,0,,5,,,41,127
72178,note_on,1,0,0,,7,,,43,127
72282,note_off,104,0,0,,7,,,43,127
72282,note_off,0,0,0,,2,,,62,127
72283,note_on,1,0,0,,10,,,45,127
72387,note_off,104,0,0,,10,,,45,127
72388,note_on,1,0,0,,12,,,47,127
72492,note_off,104,0,0,,12,,,47,127
72493,note_on,1,0,0,,1,,,49,127
72493,note_on,0,0,0,,4,,,76,127
72597,note_off,104,0,0,,1,,,49,127
72598,note_on,1,0,0,,10,,,45,127
72702,note_off,104,0,0,,10,,,45,127
72702,note_off,0,0,0,,4,,,76,127
72703,note_on,1,0,0,,2,,,50,127
72703,note_on,0,0,0,,7,,,79,127
72754,note_off,51,0,0,,7,,,79,127
72755,note_on,1,0,0,,5,,,77,127
72806,note_off,51,0,0,,5,,,77,127
72806,note_off,0,0,0,,2,,,50,127
72807,note_on,1,0,0,,4,,,52,127
72807,note_on,0,0,0,,4,,,76,127
72911,note_off,104,0,0,,4,,,76,127
72911,note_off,0,0,0,,4,,,52,127
72912,note_on,1,0,0,,5,,,53,127
72912,note_on,0,0,0,,2,,,74,127
73016,note_off,104,0,0,,5,,,53,127
73017,note_on,1,0,0,,7,,,55,127
73121,note_off,104,0,0,,7,,,55,127
73122,note_on,1,0,0,,10,,,57,127
73226,note_off,104,0,0,,10,,,57,127
73227,note_on,1,0,0,,12,,,59,127
73262,note_off,35,0,0,,2,,,74,127
73331,note_off,69,0,0,,12,,,59,127
73332,note_on,1,0,0,,1,,,61,127
73332,note_on,0,0,0,,4,,,76,127
73436,note_off,104,0,0,,1,,,61,127
73437,note_on,1,0,0,,10,,,57,127
73541,note_off,104,0,0,,10,,,57,127
73541,note_off,0,0,0,,4,,,76,127
73542,note_on,1,0,0,,2,,,62,127
73542,note_on,0,0,0,,7,,,79,127
73593,note_off,51,0,0,,7,,,79,127
73594,note_on,1,0,0,,5,,,77,127
73645,note_off,51,0,0,,5,,,77,127
73645,note_off,0,0,0,,2,,,62,127
73646,note_on,1,0,0,,4,,,64,127
73646,note_on,0,0,0,,4,,,76,127
73750,note_off,104,0,0,,4,,,76,127
73750,note_off,0,0,0,,4,,,64,127
73751,note_on,1,0,0,,5,,,65,127
73751,note_on,0,0,0,,2,,,74,127
73855,note_off,104,0,0,,5,,,65,127
73856,note_on,1,0,0,,7,,,67,127
73960,note_off,104,0,0,,7,,,67,127
73961,note_on,1,0,0,,10,,,69,127
74065,note_off,104,0,0,,10,,,69,127
74066,note_on,1,0,0,,12,,,71,127
74123,note_off,57,0,0,,2,,,74,127
74170,note_off,47,0,0,,12,,,71,127
74171,note_on,1,0,0,,1,,,73,127
74171,note_on,0,0,0,,4,,,76,127
74275,note_off,104,0,0,,1,,,73,127
74276,note_on,1,0,0,,10,,,69,127
74380,note_off,104,0,0,,10,,,69,127
74380,note_off,0,0,0,,4,,,76,127
74381,note_on,1,0,0,,2,,,74,127
74381,note_on,0,0,0,,5,,,77,127
74485,note_off,104,0,0,,5,,,77,127
74485,note_off,0,0,0,,2,,,74,127
74486,note_on,1,0,0,,2,,,74,127
74591,note_on,105,0,0,,5,,,77,127
74695,note_off,104,0,0,,5,,,77,127
74696,note_on,1,0,0,,10,,,81,127
74800,note_off,104,0,0,,10,,,81,127
74801,note_off,1,0,0,,2,,,74,127
74801,note_on,0,0,0,,2,,,86,127
74905,note_off,104,0,0,,2,,,86,127
74906,note_on,1,0,0,,11,,,82,127
75010,note_off,104,0,0,,11,,,82,127
75011,note_on,1,0,0,,10,,,81,127
75115,note_off,104,0,0,,10,,,81,127
75116,note_on,1,0,0,,7,,,79,127
75220,note_off,104,0,0,,7,,,79,127
75221,note_on,1,0,0,,10,,,81,127
75325,note_off,104,0,0,,10,,,81,127
75326,note_on,1,0,0,,7,,,79,127
75430,note_off,104,0,0,,7,,,79,127
75431,note_on,1,0,0,,5,,,77,127
75535,note_off,104,0,0,,5,,,77,127
75536,note_on,1,0,0,,4,,,76,127
75640,note_off,104,0,0,,4,,,76,127
75641,note_on,1,0,0,,2,,,38,127
75641,note_on,0,0,0,,7,,,79,127
75692,note_off,51,0,0,,7,,,79,127
75693,note_on,1,0,0,,5,,,77,127
75744,note_off,51,0,0,,5,,,77,127
75744,note_off,0,0,0,,2,,,38,127
75745,note_on,1,0,0,,4,,,40,127
75745,note_on,0,0,0,,4,,,76,127
75849,note_off,104,0,0,,4,,,76,127
75849,note_off,0,0,0,,4,,,40,127
75850,note_on,1,0,0,,5,,,41,127
75850,note_on,0,0,0,,2,,,74,127
75954,note_off,104,0,0,,5,,,41,127
75955,note_on,1,0,0,,7,,,43,127
76059,note_off,104,0,0,,7,,,43,127
76060,note_on,1,0,0,,10,,,45,127
76164,note_off,104,0,0,,10,,,45,127
76165,note_on,1,0,0,,12,,,47,127
76222,note_off,57,0,0,,2,,,74,127
76269,note_off,47,0,0,,12,,,47,127
76270,note_on,1,0,0,,1,,,49,127
76270,note_on,0,0,0,,4,,,76,127
76374,note_off,104,0,0,,1,,,49,127
76375,note_on,1,0,0,,10,,,45,127
76479,note_off,104,0,0,,10,,,45,127
76479,note_off,0,0,0,,4,,,76,127
76480,note_on,1,0,0,,2,,,50,127
76480,note_on,0,0,0,,7,,,79,127
76531,note_off,51,0,0,,7,,,79,127
76532,note_on,1,0,0,,5,,,77,127
76583,note_off,51,0,0,,5,,,77,127
76583,note_off,0,0,0,,2,,,50,127
76584,note_on,1,0,0,,4,,,52,127
76584,note_on,0,0,0,,4,,,76,127
76688,note_off,104,0,0,,4,,,76,127
76688,note_off,0,0,0,,4,,,52,127
76689,note_on,1,0,0,,5,,,53,127
76689,note_on,0,0,0,,2,,,74,127
76793,note_off,104,0,0,,5,,,53,127
76794,note_on,1,0,0,,7,,,55,127
76898,note_off,104,0,0,,7,,,55,127
76899,note_on,1,0,0,,10,,,57,127
77003,note_off,104,0,0,,10,,,57,127
77004,note_on,1,0,0,,12,,,59,127
77083,note_off,79,0,0,,2,,,74,127
77108,note_off,25,0,0,,12,,,59,127
77109,note_on,1,0,0,,1,,,61,127
77109,note_on,0,0,0,,4,,,76,127
77213,note_off,104,0,0,,1,,,61,127
77214,note_on,1,0,0,,10,,,57,127
77318,note_off,104,0,0,,10,,,57,127
77318,note_off,0,0,0,,4,,,76,127
77319,note_on,1,0,0,,2,,,62,127
77319,note_on,0,0,0,,7,,,79,127
77370,note_off,51,0,0,,7,,,79,127
77371,note_on,1,0,0,,5,,,77,127
77422,note_off,51,0,0,,5,,,77,127
77422,note_off,0,0,0,,2,,,62,127
77423,note_on,1,0,0,,4,,,64,127
77423,note_on,0,0,0,,4,,,76,127
77527,note_off,104,0,0,,4,,,76,127
77527,note_off,0,0,0,,4,,,64,127
77528,note_on,1,0,0,,5,,,65,127
77528,note_on,0,0,0,,2,,,74,127
77632,note_off,104,0,0,,5,,,65,127
77633,note_on,1,0,0,,7,,,67,127
77737,note_off,104,0,0,,7,,,67,127
77738,note_on,1,0,0,,10,,,69,127
77842,note_off,104,0,0,,10,,,69,127
77843,note_on,1,0,0,,12,,,71,127
77947,note_off,104,0,0,,12,,,71,127
77947,note_off,0,0,0,,2,,,74,127
77948,note_on,1,0,0,,1,,,73,127
77948,note_on,0,0,0,,4,,,76,127
78052,note_off,104,0,0,,1,,,73,127
78053,note_on,1,0,0,,10,,,69,127
78157,note_off,104,0,0,,10,,,69,127
78157,note_off,0,0,0,,4,,,76,127
78158,note_on,1,0,0,,2,,,74,127
78158,note_on,0,0,0,,5,,,77,127
78262,note_off,104,0,0,,5,,,77,127
78262,note_off,0,0,0,,2,,,74,127
78263,note_on,1,0,0,,2,,,74,127
78368,note_on,105,0,0,,5,,,77,127
78472,note_off,104,0,0,,5,,,77,127
78473,note_on,1,0,0,,10,,,81,127
78577,note_off,104,0,0,,10,,,81,127
78578,note_on,1,0,0,,2,,,86,127
78682,note_off,104,0,0,,2,,,74,127
78683,note_on,1,0,0,,0,,,72,127
78787,note_off,104,0,0,,0,,,72,127
78788,note_on,1,0,0,,11,,,70,127
78892,note_off,104,0,0,,11,,,70,127
78893,note_on,1,0,0,,10,,,69,127
78997,note_off,104,0,0,,10,,,69,127
78998,note_on,1,0,0,,7,,,67,127
79102,note_off,104,0,0,,2,,,86,127
79103,note_on,1,0,0,,11,,,82,127
79207,note_off,104,0,0,,11,,,82,127
79208,note_on,1,0,0,,10,,,81,127
79312,note_off,104,0,0,,10,,,81,127
79313,note_on,1,0,0,,7,,,79,127
79417,note_off,104,0,0,,7,,,79,127
79417,note_off,0,0,0,,7,,,67,127
79418,note_on,1,0,0,,5,,,65,127
79418,note_on,0,0,0,,10,,,81,127
79522,note_off,104,0,0,,10,,,81,127
79523,note_on,1,0,0,,11,,,82,127
79627,note_off,104,0,0,,11,,,82,127
79627,note_off,0,0,0,,5,,,65,127
79628,note_on,1,0,0,,7,,,67,127
79628,note_on,0,0,0,,10,,,81,127
79732,note_off,104,0,0,,10,,,81,127
79733,note_on,1,0,0,,7,,,79,127
79837,note_off,104,0,0,,7,,,79,127
79837,note_off,0,0,0,,7,,,67,127
79838,note_on,1,0,0,,10,,,69,127
79838,note_on,0,0,0,,10,,,81,127
79942,note_off,104,0,0,,10,,,81,127
79943,note_on,1,0,0,,7,,,79,127
80047,note_off,104,0,0,,7,,,79,127
80048,note_on,1,0,0,,5,,,77,127
80152,note_off,104,0,0,,5,,,77,127
80153,note_on,1,0,0,,4,,,76,127
80257,note_off,104,0,0,,4,,,76,127
80258,note_on,1,0,0,,10,,,57,127
80258,note_on,0,0,0,,5,,,77,127
80362,note_off,104,0,0,,5,,,77,127
80363,note_on,1,0,0,,4,,,76,127
80467,note_off,104,0,0,,4,,,76,127
80468,note_on,1,0,0,,2,,,74,127
80572,note_off,104,0,0,,2,,,74,127
80573,note_on,1,0,0,,1,,,73,127
80677,note_off,104,0,0,,1,,,73,127
80677,note_off,0,0,0,,10,,,57,127
80677,note_off,0,0,0,,10,,,69,127
80678,note_on,1,0,0,,2,,,86,127
80782,note_off,104,0,0,,2,,,86,127
80783,note_on,1,0,0,,11,,,82,127
80887,note_off,104,0,0,,11,,,82,127
80888,note_on,1,0,0,,7,,,79,127
80992,note_off,104,0,0,,7,,,79,127
80993,note_on,1,0,0,,4,,,76,127
81098,note_on,105,0,0,,7,,,43,127
81098,note_on,0,0,0,,2,,,50,127
81098,note_on,0,0,0,,4,,,52,127
81098,note_on,0,0,0,,7,,,55,127
81306,note_off,208,0,0,,4,,,76,127
81307,note_on,1,0,0,,4,,,76,127
81307,note_on,0,0,0,,1,,,73,127
81515,note_off,208,0,0,,7,,,55,127
81515,note_off,0,0,0,,4,,,52,127
81515,note_off,0,0,0,,2,,,50,127
81515,note_off,0,0,0,,7,,,43,127
81516,note_on,1,0,0,,10,,,45,127
81516,note_on,0,0,0,,2,,,50,127
81516,note_on,0,0,0,,4,,,52,127
81516,note_on,0,0,0,,7,,,55,127
81724,note_off,208,0,0,,1,,,73,127
81724,note_off,0,0,0,,4,,,76,127
81725,note_on,1,0,0,,5,,,77,127
81725,note_on,0,0,0,,2,,,74,127
81933,note_off,208,0,0,,2,,,74,127
81933,note_off,0,0,0,,5,,,77,127
81934,note_on,1,0,0,,2,,,86,127
82038,note_off,104,0,0,,2,,,86,127
82039,note_off,1,0,0,,7,,,55,127
82039,note_off,0,0,0,,4,,,52,127
82039,note_off,0,0,0,,2,,,50,127
82039,note_off,0,0,0,,10,,,45,127
82039,note_on,0,0,0,,11,,,82,127
82143,note_off,104,0,0,,11,,,82,127
82144,note_on,1,0,0,,7,,,79,127
82248,note_off,104,0,0,,7,,,79,127
82249,note_on,1,0,0,,4,,,76,127
82354,note_on,105,0,0,,11,,,46,127
82354,note_on,0,0,0,,4,,,52,127
82354,note_on,0,0,0,,2,,,50,127
82354,note_on,0,0,0,,7,,,55,127
82562,note_off,208,0,0,,4,,,76,127
82563,note_on,1,0,0,,4,,,76,127
82563,note_on,0,0,0,,1,,,73,127
82771,note_off,208,0,0,,7,,,55,127
82771,note_off,0,0,0,,2,,,50,127
82771,note_off,0,0,0,,4,,,52,127
82771,note_off,0,0,0,,11,,,46,127
82772,note_on,1,0,0,,2,,,50,127
82772,note_on,0,0,0,,10,,,45,127
82772,note_on,0,0,0,,7,,,55,127
82772,note_on,0,0,0,,4,,,52,127
82980,note_off,208,0,0,,1,,,73,127
82980,note_off,0,0,0,,4,,,76,127
82981,note_on,1,0,0,,5,,,77,127
82981,note_on,0,0,0,,2,,,74,127
83189,note_off,208,0,0,,2,,,74,127
83189,note_off,0,0,0,,5,,,77,127
83190,note_on,1,0,0,,2,,,86,127
83294,note_off,104,0,0,,2,,,86,127
83295,note_off,1,0,0,,4,,,52,127
83295,note_off,0,0,0,,7,,,55,127
83295,note_off,0,0,0,,10,,,45,127
83295,note_off,0,0,0,,2,,,50,127
83295,note_on,0,0,0,,11,,,82,127
83399,note_off,104,0,0,,11,,,82,127
83400,note_on,1,0,0,,7,,,79,127
83504,note_off,104,0,0,,7,,,79,127
83505,note_on,1,0,0,,4,,,76,127
83610,note_on,105,0,0,,7,,,43,127
83610,note_on,0,0,0,,2,,,50,127
83610,note_on,0,0,0,,4,,,52,127
83610,note_on,0,0,0,,7,,,55,127
83818,note_off,208,0,0,,4,,,76,127
83819,note_on,1,0,0,,1,,,73,127
83819,note_on,0,0,0,,4,,,76,127
84027,note_off,208,0,0,,7,,,55,127
84027,note_off,0,0,0,,4,,,52,127
84027,note_off,0,0,0,,2,,,50,127
84027,note_off,0,0,0,,7,,,43,127
84028,note_on,1,0,0,,10,,,45,127
84028,note_on,0,0,0,,4,,,52,127
84028,note_on,0,0,0,,2,,,50,127
84028,note_on,0,0,0,,7,,,55,127
84236,note_off,208,0,0,,4,,,76,127
84236,note_off,0,0,0,,1,,,73,127
84237,note_on,1,0,0,,2,,,74,127
84237,note_on,0,0,0,,5,,,77,127
84445,note_off,208,0,0,,5,,,77,127
84445,note_off,0,0,0,,2,,,74,127
84445,note_off,0,0,0,,7,,,55,127
84445,note_off,0,0,0,,2,,,50,127
84445,note_off,0,0,0,,4,,,52,127
84445,note_off,0,0,0,,10,,,45,127
84446,note_on,1,0,0,,7,,,55,127
84446,note_on,0,0,0,,11,,,46,127
84446,note_on,0,0,0,,10,,,81,127
84550,note_off,104,0,0,,10,,,81,127
84551,note_on,1,0,0,,11,,,82,127
84655,note_off,104,0,0,,11,,,82,127
84655,note_off,0,0,0,,11,,,46,127
84656,note_on,1,0,0,,7,,,43,127
84656,note_on,0,0,0,,10,,,81,127
84760,note_off,104,0,0,,10,,,81,127
84761,note_on,1,0,0,,7,,,79,127
84865,note_off,104,0,0,,7,,,79,127
84865,note_off,0,0,0,,7,,,43,127
84865,note_off,0,0,0,,7,,,55,127
84866,note_on,1,0,0,,10,,,45,127
84866,note_on,0,0,0,,5,,,53,127
84866,note_on,0,0,0,,2,,,50,127
84866,note_on,0,0,0,,10,,,81,127
84970,note_off,104,0,0,,10,,,81,127
84971,note_on,1,0,0,,7,,,79,127
85075,note_off,104,0,0,,7,,,79,127
85076,note_on,1,0,0,,5,,,77,127
85180,note_off,104,0,0,,5,,,77,127
85181,note_on,1,0,0,,4,,,76,127
85285,note_off,104,0,0,,4,,,76,127
85285,note_off,0,0,0,,2,,,50,127
85285,note_off,0,0,0,,5,,,53,127
85285,note_off,0,0,0,,10,,,45,127
85286,note_on,1,0,0,,4,,,52,127
85286,note_on,0,0,0,,2,,,50,127
85286,note_on,0,0,0,,10,,,45,127
85286,note_on,0,0,0,,7,,,55,127
85286,note_on,0,0,0,,5,,,77,127
85390,note_off,104,0,0,,5,,,77,127
85391,note_on,1,0,0,,4,,,76,127
85495,note_off,104,0,0,,4,,,76,127
85496,note_on,1,0,0,,2,,,74,127
85600,note_off,104,0,0,,2,,,74,127
85601,note_on,1,0,0,,1,,,73,127
85705,note_off,104,0,0,,1,,,73,127
85705,note_off,0,0,0,,7,,,55,127
85705,note_off,0,0,0,,10,,,45,127
85705,note_off,0,0,0,,2,,,50,127
85705,note_off,0,0,0,,4,,,52,127
85706,note_on,1,0,0,,5,,,53,127
85706,note_on,0,0,0,,2,,,62,127
85706,note_on,0,0,0,,10,,,57,127
85706,note_on,0,0,0,,2,,,74,127
85810,note_off,104,0,0,,2,,,74,127
85811,note_on,1,0,0,,5,,,77,127
85915,note_off,104,0,0,,5,,,77,127
85916,note_on,1,0,0,,4,,,76,127
86020,note_off,104,0,0,,4,,,76,127
86021,note_on,1,0,0,,2,,,74,127
86125,note_off,104,0,0,,2,,,74,127
86125,note_off,0,0,0,,10,,,57,127
86125,note_off,0,0,0,,2,,,62,127
86125,note_off,0,0,0,,5,,,53,127
86126,note_on,1,0,0,,2,,,62,127
86126,note_on,0,0,0,,7,,,55,127
86126,note_on,0,0,0,,4,,,64,127
86126,note_on,0,0,0,,11,,,82,127
86230,note_off,104,0,0,,11,,,82,127
86231,note_on,1,0,0,,11,,,82,127
86335,note_off,104,0,0,,11,,,82,127
86336,note_on,1,0,0,,10,,,81,127
86440,note_off,104,0,0,,10,,,81,127
86441,note_on,1,0,0,,7,,,79,127
86545,note_off,104,0,0,,7,,,79,127
86545,note_off,0,0,0,,4,,,64,127
86545,note_off,0,0,0,,7,,,55,127
86545,note_off,0,0,0,,2,,,62,127
86546,note_on,1,0,0,,10,,,57,127
86546,note_on,0,0,0,,4,,,64,127
86546,note_on,0,0,0,,5,,,77,127
86650,note_off,104,0,0,,5,,,77,127
86651,note_on,1,0,0,,4,,,76,127
86755,note_off,104,0,0,,4,,,76,127
86756,note_on,1,0,0,,2,,,74,127
86860,note_off,104,0,0,,2,,,74,127
86861,note_on,1,0,0,,1,,,73,127
86965,note_off,104,0,0,,1,,,73,127
86965,note_off,0,0,0,,4,,,64,127
86965,note_off,0,0,0,,10,,,57,127
86966,note_on,1,0,0,,5,,,53,127
86966,note_on,0,0,0,,2,,,62,127
86966,note_on,0,0,0,,10,,,57,127
86966,note_on,0,0,0,,2,,,74,127
87070,note_off,104,0,0,,2,,,74,127
87071,note_on,1,0,0,,5,,,77,127
87175,note_off,104,0,0,,5,,,77,127
87176,note_on,1,0,0,,4,,,76,127
87280,note_off,104,0,0,,4,,,76,127
87281,note_on,1,0,0,,2,,,74,127
87385,note_off,104,0,0,,2,,,74,127
87385,note_off,0,0,0,,10,,,57,127
87385,note_off,0,0,0,,2,,,62,127
87385,note_off,0,0,0,,5,,,53,127
87386,note_on,1,0,0,,7,,,55,127
87386,note_on,0,0,0,,2,,,62,127
87386,note_on,0,0,0,,4,,,64,127
87386,note_on,0,0,0,,11,,,82,127
87490,note_off,104,0,0,,11,,,82,127
87491,note_on,1,0,0,,11,,,82,127
87595,note_off,104,0,0,,11,,,82,127
87596,note_on,1,0,0,,10,,,81,127
87700,note_off,104,0,0,,10,,,81,127
87701,note_on,1,0,0,,7,,,79,127
87805,note_off,104,0,0,,7,,,79,127
87805,note_off,0,0,0,,4,,,64,127
87805,note_off,0,0,0,,2,,,62,127
87805,note_off,0,0,0,,7,,,55,127
87806,note_on,1,0,0,,10,,,57,127
87806,note_on,0,0,0,,4,,,64,127
87806,note_on,0,0,0,,5,,,77,127
87910,note_off,104,0,0,,5,,,77,127
87911,note_on,1,0,0,,4,,,76,127
88015,note_off,104,0,0,,4,,,76,127
88016,note_on,1,0,0,,2,,,74,127
88120,note_off,104,0,0,,2,,,74,127
88121,note_on,1,0,0,,1,,,73,127
88225,note_off,104,0,0,,1,,,73,127
88225,note_off,0,0,0,,4,,,64,127
88225,note_off,0,0,0,,10,,,57,127
88226,note_on,1,0,0,,10,,,57,127
88226,note_on,0,0,0,,5,,,53,127
88226,note_on,0,0,0,,2,,,62,127
88226,note_on,0,0,0,,2,,,74,127
88330,note_off,104,0,0,,2,,,74,127
88331,note_on,1,0,0,,5,,,77,127
88435,note_off,104,0,0,,5,,,77,127
88436,note_on,1,0,0,,4,,,76,127
88540,note_off,104,0,0,,4,,,76,127
88541,note_on,1,0,0,,2,,,74,127
88645,note_off,104,0,0,,2,,,74,127
88645,note_off,0,0,0,,2,,,62,127
88645,note_off,0,0,0,,5,,,53,127
88645,note_off,0,0,0,,10,,,57,127
88646,note_on,1,0,0,,2,,,62,127
88646,note_on,0,0,0,,7,,,55,127
88646,note_on,0,0,0,,4,,,64,127
88646,note_on,0,0,0,,2,,,86,127
88750,note_off,104,0,0,,2,,,86,127
88751,note_on,1,0,0,,2,,,86,127
88855,note_off,104,0,0,,2,,,86,127
88856,note_on,1,0,0,,0,,,84,127
88960,note_off,104,0,0,,0,,,84,127
88961,note_on,1,0,0,,11,,,82,127
89065,note_off,104,0,0,,11,,,82,127
89065,note_off,0,0,0,,4,,,64,127
89065,note_off,0,0,0,,7,,,55,127
89065,note_off,0,0,0,,2,,,62,127
89066,note_on,1,0,0,,10,,,57,127
89066,note_on,0,0,0,,4,,,64,127
89066,note_on,0,0,0,,10,,,81,127
89170,note_off,104,0,0,,10,,,81,127
89171,note_on,1,0,0,,7,,,79,127
89275,note_off,104,0,0,,7,,,79,127
89276,note_on,1,0,0,,5,,,77,127
89380,note_off,104,0,0,,5,,,77,127
89381,note_on,1,0,0,,4,,,76,127
89485,note_off,104,0,0,,4,,,64,127
89485,note_off,0,0,0,,10,,,57,127
89486,note_off,1,0,0,,4,,,76,127
89487,note_on,1,0,0,,2,,,74,127
89487,note_on,0,0,0,,5,,,53,127
89487,note_on,0,0,0,,5,,,41,127
89592,note_off,105,0,0,,2,,,74,127
89594,note_on,2,0,0,,2,,,74,127
89699,note_off,105,0,0,,2,,,74,127
89701,note_on,2,0,0,,0,,,72,127
89806,note_off,105,0,0,,0,,,72,127
89808,note_on,2,0,0,,11,,,70,127
89913,note_off,105,0,0,,11,,,70,127
89913,note_off,0,0,0,,5,,,41,127
89913,note_off,0,0,0,,5,,,53,127
89915,note_on,2,0,0,,10,,,69,127
89915,note_on,0,0,0,,7,,,43,127
89915,note_on,0,0,0,,7,,,55,127
90020,note_off,105,0,0,,10,,,69,127
90022,note_on,2,0,0,,7,,,67,127
90127,note_off,105,0,0,,7,,,67,127
90129,note_on,2,0,0,,5,,,65,127
90234,note_off,105,0,0,,5,,,65,127
90236,note_on,2,0,0,,4,,,64,127
90341,note_off,105,0,0,,4,,,64,127
90341,note_off,0,0,0,,7,,,55,127
90341,note_off,0,0,0,,7,,,43,127
90343,note_on,2,0,0,,5,,,65,127
90343,note_on,0,0,0,,10,,,57,127
90343,note_on,0,0,0,,10,,,45,127
90448,note_off,105,0,0,,5,,,65,127
90450,note_on,2,0,0,,4,,,64,127
90555,note_off,105,0,0,,4,,,64,127
90557,note_on,2,0,0,,2,,,62,127
90662,note_off,105,0,0,,2,,,62,127
90664,note_on,2,0,0,,1,,,61,127
90769,note_off,105,0,0,,1,,,61,127
90769,note_off,0,0,0,,10,,,45,127
90769,note_off,0,0,0,,10,,,57,127
90783,note_on,14,0,0,,2,,,50,127
90783,note_on,0,0,0,,1,,,61,127
90783,note_on,0,0,0,,2,,,38,127
91304,note_on,521,0,0,,2,,,62,127
91316,note_off,12,0,0,,1,,,61,127
92905,note_off,1589,0,0,,2,,,62,127
92918,note_off,13,0,0,,2,,,38,127
92918,note_off,0,0,0,,2,,,50,127
98304,end_of_track,5386,1,0,,,,,,
