tick,type,time,meta,track,program,channel,pitch,tempo,note,velocity
0,copyright,0,1,0,,,,,,
0,program_change,0,0,0,6,0,,,,
0,pitchwheel,0,0,0,,0,0,,,
0,program_change,0,0,0,6,1,,,,
0,pitchwheel,0,0,0,,1,-590,,,
0,program_change,0,0,0,6,2,,,,
0,pitchwheel,0,0,0,,2,-272,,,
0,program_change,0,0,0,6,3,,,,
0,pitchwheel,0,0,0,,3,-353,,,
0,program_change,0,0,0,6,4,,,,
0,pitchwheel,0,0,0,,4,-560,,,
0,program_change,0,0,0,6,5,,,,
0,pitchwheel,0,0,0,,5,-80,,,
0,program_change,0,0,0,6,6,,,,
0,pitchwheel,0,0,0,,6,-625,,,
0,program_change,0,0,0,6,7,,,,
0,pitchwheel,0,0,0,,7,-130,,,
0,program_change,0,0,0,6,8,,,,
0,pitchwheel,0,0,0,,8,-512,,,
0,program_change,0,0,0,6,10,,,,
0,pitchwheel,0,0,0,,10,-464,,,
0,program_change,0,0,0,6,11,,,,
0,pitchwheel,0,0,0,,11,-208,,,
0,program_change,0,0,0,6,12,,,,
0,pitchwheel,0,0,0,,12,-553,,,
0,set_tempo,0,1,0,,,,500000,,
136,note_on,136,0,0,,3,,,51,127
677,note_off,541,0,0,,3,,,51,127
678,note_on,1,0,0,,5,,,65,127
746,note_on,68,0,0,,3,,,63,127
767,note_off,21,0,0,,5,,,65,127
814,note_on,47,0,0,,5,,,65,127
835,note_off,21,0,0,,3,,,63,127
882,note_on,47,0,0,,3,,,63,127
903,note_off,21,0,0,,5,,,65,127
950,note_on,47,0,0,,5,,,65,127
971,note_off,21,0,0,,3,,,63,127
1018,note_on,47,0,0,,3,,,63,127
1039,note_off,21,0,0,,5,,,65,127
1086,note_on,47,0,0,,2,,,62,127
1107,note_off,21,0,0,,3,,,63,127
1154,note_on,47,0,0,,3,,,63,127
1175,note_off,21,0,0,,2,,,62,127
1220,note_off,45,0,0,,3,,,63,127
1221,note_on,1,0,0,,5,,,65,127
1491,note_off,270,0,0,,5,,,65,127
1492,note_on,1,0,0,,3,,,63,127
1762,note_off,270,0,0,,3,,,63,127
1763,note_on,1,0,0,,2,,,62,127
2033,note_off,270,0,0,,2,,,62,127
2034,note_on,1,0,0,,0,,,60,127
2304,note_off,270,0,0,,0,,,60,127
2305,note_on,1,0,0,,0,,,60,127
2439,note_off,134,0,0,,0,,,60,127
2440,note_on,1,0,0,,11,,,58,127
2574,note_off,134,0,0,,11,,,58,127
2575,note_on,1,0,0,,8,,,56,127
2709,note_off,134,0,0,,8,,,56,127
2710,note_on,1,0,0,,7,,,55,127
2844,note_off,134,0,0,,7,,,55,127
2845,note_on,1,0,0,,11,,,58,127
2979,note_off,134,0,0,,11,,,58,127
2980,note_on,1,0,0,,8,,,56,127
3114,note_off,134,0,0,,8,,,56,127
3115,note_on,1,0,0,,7,,,55,127
3249,note_off,134,0,0,,7,,,55,127
3250,note_on,1,0,0,,5,,,53,127
3384,note_off,134,0,0,,5,,,53,127
3385,note_on,1,0,0,,7,,,55,127
3385,note_on,0,0,0,,3,,,63,127
3655,note_off,270,0,0,,7,,,55,127
3656,note_on,1,0,0,,3,,,51,127
3926,note_off,270,0,0,,3,,,51,127
3926,note_off,0,0,0,,3,,,63,127
3927,note_on,1,0,0,,7,,,55,127
3927,note_on,0,0,0,,5,,,77,127
3995,note_on,68,0,0,,3,,,75,127
4016,note_off,21,0,0,,5,,,77,127
4063,note_on,47,0,0,,5,,,77,127
4084,note_off,21,0,0,,3,,,75,127
4131,note_on,47,0,0,,3,,,75,127
4152,note_off,21,0,0,,5,,,77,127
4197,note_off,45,0,0,,7,,,55,127
4198,note_on,1,0,0,,0,,,60,127
4198,note_on,0,0,0,,5,,,77,127
4219,note_off,21,0,0,,3,,,75,127
4266,note_on,47,0,0,,3,,,75,127
4287,note_off,21,0,0,,5,,,77,127
4334,note_on,47,0,0,,2,,,74,127
4355,note_off,21,0,0,,3,,,75,127
4402,note_on,47,0,0,,3,,,75,127
4423,note_off,21,0,0,,2,,,74,127
4468,note_off,45,0,0,,3,,,75,127
4468,note_off,0,0,0,,0,,,60,127
4469,note_on,1,0,0,,11,,,58,127
4469,note_on,0,0,0,,5,,,77,127
4739,note_off,270,0,0,,5,,,77,127
4740,note_on,1,0,0,,3,,,75,127
5010,note_off,270,0,0,,3,,,75,127
5011,note_on,1,0,0,,2,,,74,127
5281,note_off,270,0,0,,2,,,74,127
5281,note_off,0,0,0,,11,,,58,127
5282,note_on,1,0,0,,0,,,60,127
5282,note_on,0,0,0,,0,,,72,127
5552,note_off,270,0,0,,0,,,72,127
5552,note_off,0,0,0,,0,,,60,127
5553,note_on,1,0,0,,2,,,62,127
5553,note_on,0,0,0,,5,,,65,127
5553,note_on,0,0,0,,0,,,72,127
5687,note_off,134,0,0,,0,,,72,127
5688,note_on,1,0,0,,11,,,70,127
5822,note_off,134,0,0,,11,,,70,127
5822,note_off,0,0,0,,5,,,65,127
5822,note_off,0,0,0,,2,,,62,127
5823,note_on,1,0,0,,11,,,58,127
5823,note_on,0,0,0,,2,,,62,127
5823,note_on,0,0,0,,8,,,68,127
5957,note_off,134,0,0,,8,,,68,127
5958,note_on,1,0,0,,7,,,67,127
6092,note_off,134,0,0,,7,,,67,127
6092,note_off,0,0,0,,2,,,62,127
6092,note_off,0,0,0,,11,,,58,127
6093,note_on,1,0,0,,3,,,63,127
6093,note_on,0,0,0,,0,,,60,127
6093,note_on,0,0,0,,11,,,70,127
6227,note_off,134,0,0,,11,,,70,127
6228,note_on,1,0,0,,8,,,68,127
6362,note_off,134,0,0,,8,,,68,127
6362,note_off,0,0,0,,0,,,60,127
6362,note_off,0,0,0,,3,,,63,127
6363,note_on,1,0,0,,2,,,62,127
6363,note_on,0,0,0,,7,,,67,127
6497,note_off,134,0,0,,7,,,67,127
6498,note_on,1,0,0,,5,,,65,127
6632,note_off,134,0,0,,5,,,65,127
6632,note_off,0,0,0,,2,,,62,127
6633,note_on,1,0,0,,3,,,63,127
6633,note_on,0,0,0,,7,,,67,127
6767,note_off,134,0,0,,7,,,67,127
6768,note_on,1,0,0,,11,,,70,127
6902,note_off,134,0,0,,11,,,70,127
6903,note_on,1,0,0,,11,,,70,127
7037,note_off,134,0,0,,11,,,70,127
7038,note_on,1,0,0,,3,,,75,127
7172,note_off,134,0,0,,3,,,75,127
7173,note_on,1,0,0,,11,,,70,127
7307,note_off,134,0,0,,3,,,63,127
7308,note_on,1,0,0,,7,,,67,127
7442,note_off,134,0,0,,7,,,67,127
7443,note_on,1,0,0,,5,,,65,127
7511,note_on,68,0,0,,8,,,68,127
7525,note_off,14,0,0,,11,,,70,127
7577,note_off,52,0,0,,5,,,65,127
7578,note_on,1,0,0,,11,,,58,127
7578,note_on,0,0,0,,7,,,67,127
7599,note_off,21,0,0,,8,,,68,127
7646,note_on,47,0,0,,8,,,68,127
7667,note_off,21,0,0,,7,,,67,127
7712,note_off,45,0,0,,8,,,68,127
7712,note_off,0,0,0,,11,,,58,127
7713,note_on,1,0,0,,3,,,63,127
7713,note_on,0,0,0,,7,,,67,127
7847,note_off,134,0,0,,7,,,67,127
7848,note_on,1,0,0,,11,,,70,127
7982,note_off,134,0,0,,11,,,70,127
7983,note_on,1,0,0,,11,,,70,127
8117,note_off,134,0,0,,11,,,70,127
8118,note_on,1,0,0,,3,,,75,127
8252,note_off,134,0,0,,3,,,75,127
8253,note_on,1,0,0,,11,,,70,127
8387,note_off,134,0,0,,3,,,63,127
8388,note_on,1,0,0,,7,,,67,127
8522,note_off,134,0,0,,7,,,67,127
8523,note_on,1,0,0,,5,,,65,127
8591,note_on,68,0,0,,8,,,68,127
8605,note_off,14,0,0,,11,,,70,127
8657,note_off,52,0,0,,5,,,65,127
8658,note_on,1,0,0,,11,,,58,127
8658,note_on,0,0,0,,7,,,67,127
8679,note_off,21,0,0,,8,,,68,127
8726,note_on,47,0,0,,8,,,68,127
8747,note_off,21,0,0,,7,,,67,127
8792,note_off,45,0,0,,8,,,68,127
8792,note_off,0,0,0,,11,,,58,127
8793,note_on,1,0,0,,3,,,63,127
8793,note_on,0,0,0,,7,,,67,127
8927,note_off,134,0,0,,7,,,67,127
8928,note_on,1,0,0,,7,,,79,127
9062,note_off,134,0,0,,7,,,79,127
9063,note_on,1,0,0,,7,,,79,127
9197,note_off,134,0,0,,7,,,79,127
9198,note_on,1,0,0,,3,,,75,127
9332,note_off,134,0,0,,3,,,75,127
9333,note_on,1,0,0,,3,,,75,127
9333,note_on,0,0,0,,7,,,79,127
9467,note_off,134,0,0,,3,,,63,127
9468,note_on,1,0,0,,11,,,70,127
9602,note_off,134,0,0,,11,,,70,127
9602,note_off,0,0,0,,7,,,79,127
9602,note_off,0,0,0,,3,,,75,127
9603,note_on,1,0,0,,11,,,70,127
9603,note_on,0,0,0,,2,,,74,127
9603,note_on,0,0,0,,5,,,77,127
9737,note_off,134,0,0,,11,,,70,127
9738,note_on,1,0,0,,8,,,68,127
9872,note_off,134,0,0,,8,,,68,127
9872,note_off,0,0,0,,5,,,77,127
9872,note_off,0,0,0,,2,,,74,127
9873,note_on,1,0,0,,7,,,67,127
9873,note_on,0,0,0,,3,,,75,127
10007,note_off,134,0,0,,3,,,75,127
10007,note_off,0,0,0,,7,,,67,127
10008,note_on,1,0,0,,3,,,63,127
10008,note_on,0,0,0,,7,,,79,127
10142,note_off,134,0,0,,7,,,79,127
10143,note_on,1,0,0,,7,,,79,127
10277,note_off,134,0,0,,7,,,79,127
10278,note_on,1,0,0,,3,,,75,127
10412,note_off,134,0,0,,3,,,75,127
10413,note_on,1,0,0,,3,,,75,127
10413,note_on,0,0,0,,7,,,79,127
10547,note_off,134,0,0,,3,,,63,127
10548,note_on,1,0,0,,11,,,70,127
10682,note_off,134,0,0,,11,,,70,127
10682,note_off,0,0,0,,7,,,79,127
10682,note_off,0,0,0,,3,,,75,127
10683,note_on,1,0,0,,11,,,70,127
10683,note_on,0,0,0,,5,,,77,127
10683,note_on,0,0,0,,2,,,74,127
10817,note_off,134,0,0,,11,,,70,127
10818,note_on,1,0,0,,8,,,68,127
10952,note_off,134,0,0,,8,,,68,127
10952,note_off,0,0,0,,2,,,74,127
10952,note_off,0,0,0,,5,,,77,127
10953,note_on,1,0,0,,7,,,67,127
10953,note_on,0,0,0,,3,,,75,127
11087,note_off,134,0,0,,3,,,75,127
11087,note_off,0,0,0,,7,,,67,127
11088,note_on,1,0,0,,3,,,63,127
11088,note_on,0,0,0,,11,,,82,127
11222,note_off,134,0,0,,11,,,82,127
11223,note_on,1,0,0,,11,,,82,127
11357,note_off,134,0,0,,11,,,82,127
11358,note_on,1,0,0,,0,,,84,127
11492,note_off,134,0,0,,0,,,84,127
11493,note_off,1,0,0,,3,,,63,127
11493,note_on,0,0,0,,11,,,82,127
11629,note_on,136,0,0,,7,,,79,127
11763,note_off,134,0,0,,7,,,79,127
11763,note_off,0,0,0,,11,,,82,127
11764,note_on,1,0,0,,5,,,77,127
11764,note_on,0,0,0,,8,,,80,127
11898,note_off,134,0,0,,5,,,77,127
11899,note_on,1,0,0,,2,,,74,127
12033,note_off,134,0,0,,2,,,74,127
12034,note_on,1,0,0,,3,,,75,127
12168,note_off,134,0,0,,8,,,80,127
12169,note_on,1,0,0,,7,,,79,127
12303,note_off,134,0,0,,7,,,79,127
12304,note_on,1,0,0,,7,,,79,127
12438,note_off,134,0,0,,7,,,79,127
12439,note_on,1,0,0,,8,,,80,127
12573,note_off,134,0,0,,8,,,80,127
12574,note_on,1,0,0,,7,,,79,127
12708,note_off,134,0,0,,3,,,75,127
12709,note_on,1,0,0,,3,,,75,127
12843,note_off,134,0,0,,3,,,75,127
12843,note_off,0,0,0,,7,,,79,127
12844,note_on,1,0,0,,2,,,74,127
12844,note_on,0,0,0,,5,,,77,127
12978,note_off,134,0,0,,2,,,74,127
12979,note_on,1,0,0,,12,,,71,127
13113,note_off,134,0,0,,12,,,71,127
13114,note_on,1,0,0,,0,,,72,127
13248,note_off,134,0,0,,5,,,77,127
13249,note_on,1,0,0,,3,,,75,127
13383,note_off,134,0,0,,3,,,75,127
13384,note_on,1,0,0,,3,,,75,127
13518,note_off,134,0,0,,3,,,75,127
13519,note_on,1,0,0,,5,,,77,127
13653,note_off,134,0,0,,5,,,77,127
13654,note_on,1,0,0,,3,,,75,127
13788,note_off,134,0,0,,0,,,72,127
13789,note_on,1,0,0,,0,,,72,127
13923,note_off,134,0,0,,0,,,72,127
13923,note_off,0,0,0,,3,,,75,127
13924,note_on,1,0,0,,11,,,70,127
13924,note_on,0,0,0,,1,,,73,127
14058,note_off,134,0,0,,11,,,70,127
14059,note_on,1,0,0,,7,,,67,127
14193,note_off,134,0,0,,7,,,67,127
14194,note_on,1,0,0,,8,,,68,127
14328,note_off,134,0,0,,1,,,73,127
14329,note_on,1,0,0,,0,,,72,127
14463,note_off,134,0,0,,0,,,72,127
14464,note_on,1,0,0,,0,,,72,127
14598,note_off,134,0,0,,0,,,72,127
14599,note_on,1,0,0,,1,,,73,127
14733,note_off,134,0,0,,1,,,73,127
14734,note_on,1,0,0,,0,,,72,127
14868,note_off,134,0,0,,8,,,68,127
14869,note_on,1,0,0,,8,,,68,127
15003,note_off,134,0,0,,8,,,68,127
15003,note_off,0,0,0,,0,,,72,127
15004,note_on,1,0,0,,7,,,67,127
15004,note_on,0,0,0,,11,,,70,127
15138,note_off,134,0,0,,7,,,67,127
15139,note_on,1,0,0,,4,,,64,127
15273,note_off,134,0,0,,4,,,64,127
15274,note_on,1,0,0,,5,,,65,127
15408,note_off,134,0,0,,11,,,70,127
15409,note_on,1,0,0,,8,,,68,127
15543,note_off,134,0,0,,8,,,68,127
15544,note_on,1,0,0,,8,,,68,127
15678,note_off,134,0,0,,8,,,68,127
15679,note_on,1,0,0,,11,,,70,127
15813,note_off,134,0,0,,11,,,70,127
15814,note_on,1,0,0,,8,,,68,127
15948,note_off,134,0,0,,5,,,65,127
15949,note_on,1,0,0,,5,,,65,127
16083,note_off,134,0,0,,5,,,65,127
16083,note_off,0,0,0,,8,,,68,127
16084,note_on,1,0,0,,3,,,63,127
16084,note_on,0,0,0,,7,,,67,127
16218,note_off,134,0,0,,3,,,63,127
16219,note_on,1,0,0,,0,,,60,127
16353,note_off,134,0,0,,0,,,60,127
16354,note_on,1,0,0,,2,,,62,127
16488,note_off,134,0,0,,7,,,67,127
16489,note_on,1,0,0,,5,,,65,127
16623,note_off,134,0,0,,5,,,65,127
16624,note_on,1,0,0,,5,,,65,127
16758,note_off,134,0,0,,5,,,65,127
16759,note_on,1,0,0,,7,,,67,127
16893,note_off,134,0,0,,7,,,67,127
16894,note_on,1,0,0,,5,,,65,127
17028,note_off,134,0,0,,2,,,62,127
17029,note_on,1,0,0,,2,,,62,127
17163,note_off,134,0,0,,2,,,62,127
17163,note_off,0,0,0,,5,,,65,127
17164,note_on,1,0,0,,0,,,60,127
17164,note_on,0,0,0,,3,,,63,127
17298,note_off,134,0,0,,0,,,60,127
17299,note_on,1,0,0,,10,,,57,127
17433,note_off,134,0,0,,10,,,57,127
17433,note_off,0,0,0,,3,,,63,127
17434,note_on,1,0,0,,11,,,58,127
17434,note_on,0,0,0,,2,,,62,127
17568,note_off,134,0,0,,2,,,62,127
17569,note_on,1,0,0,,5,,,65,127
17703,note_off,134,0,0,,5,,,65,127
17704,note_on,1,0,0,,5,,,65,127
17838,note_off,134,0,0,,5,,,65,127
17839,note_on,1,0,0,,11,,,70,127
17973,note_off,134,0,0,,11,,,70,127
17973,note_off,0,0,0,,11,,,58,127
17974,note_on,1,0,0,,5,,,65,127
18110,note_on,136,0,0,,2,,,62,127
18244,note_off,134,0,0,,2,,,62,127
18245,note_on,1,0,0,,0,,,60,127
18313,note_on,68,0,0,,3,,,63,127
18327,note_off,14,0,0,,5,,,65,127
18379,note_off,52,0,0,,0,,,60,127
18380,note_on,1,0,0,,5,,,53,127
18380,note_on,0,0,0,,2,,,62,127
18401,note_off,21,0,0,,3,,,63,127
18448,note_on,47,0,0,,3,,,63,127
18469,note_off,21,0,0,,2,,,62,127
18514,note_off,45,0,0,,3,,,63,127
18514,note_off,0,0,0,,5,,,53,127
18515,note_on,1,0,0,,11,,,58,127
18515,note_on,0,0,0,,2,,,62,127
18649,note_off,134,0,0,,2,,,62,127
18650,note_on,1,0,0,,5,,,65,127
18784,note_off,134,0,0,,5,,,65,127
18785,note_on,1,0,0,,5,,,65,127
18919,note_off,134,0,0,,5,,,65,127
18920,note_on,1,0,0,,11,,,70,127
19054,note_off,134,0,0,,11,,,70,127
19055,note_on,1,0,0,,5,,,65,127
19189,note_off,134,0,0,,11,,,58,127
19190,note_on,1,0,0,,2,,,62,127
19324,note_off,134,0,0,,2,,,62,127
19325,note_on,1,0,0,,0,,,60,127
19393,note_on,68,0,0,,3,,,63,127
19407,note_off,14,0,0,,5,,,65,127
19459,note_off,52,0,0,,0,,,60,127
19460,note_on,1,0,0,,5,,,53,127
19460,note_on,0,0,0,,2,,,62,127
19481,note_off,21,0,0,,3,,,63,127
19528,note_on,47,0,0,,3,,,63,127
19549,note_off,21,0,0,,2,,,62,127
19594,note_off,45,0,0,,3,,,63,127
19594,note_off,0,0,0,,5,,,53,127
19595,note_on,1,0,0,,11,,,58,127
19595,note_on,0,0,0,,2,,,62,127
19729,note_off,134,0,0,,2,,,62,127
19730,note_on,1,0,0,,5,,,77,127
19864,note_off,134,0,0,,5,,,77,127
19865,note_on,1,0,0,,5,,,77,127
19999,note_off,134,0,0,,5,,,77,127
20000,note_on,1,0,0,,11,,,82,127
20134,note_off,134,0,0,,11,,,82,127
20135,note_on,1,0,0,,5,,,77,127
20269,note_off,134,0,0,,11,,,58,127
20270,note_on,1,0,0,,2,,,74,127
20404,note_off,134,0,0,,2,,,74,127
20405,note_on,1,0,0,,0,,,72,127
20473,note_on,68,0,0,,3,,,75,127
20487,note_off,14,0,0,,5,,,77,127
20539,note_off,52,0,0,,0,,,72,127
20540,note_on,1,0,0,,5,,,65,127
20540,note_on,0,0,0,,2,,,74,127
20561,note_off,21,0,0,,3,,,75,127
20608,note_on,47,0,0,,3,,,75,127
20629,note_off,21,0,0,,2,,,74,127
20674,note_off,45,0,0,,3,,,75,127
20674,note_off,0,0,0,,5,,,65,127
20675,note_on,1,0,0,,11,,,70,127
20675,note_on,0,0,0,,2,,,74,127
20809,note_off,134,0,0,,2,,,74,127
20810,note_on,1,0,0,,5,,,77,127
20944,note_off,134,0,0,,5,,,77,127
20945,note_on,1,0,0,,5,,,77,127
21079,note_off,134,0,0,,5,,,77,127
21080,note_on,1,0,0,,11,,,82,127
21214,note_off,134,0,0,,11,,,82,127
21215,note_on,1,0,0,,5,,,77,127
21349,note_off,134,0,0,,11,,,70,127
21350,note_on,1,0,0,,2,,,74,127
21484,note_off,134,0,0,,2,,,74,127
21485,note_on,1,0,0,,0,,,72,127
21553,note_on,68,0,0,,3,,,75,127
21567,note_off,14,0,0,,5,,,77,127
21619,note_off,52,0,0,,0,,,72,127
21620,note_on,1,0,0,,5,,,65,127
21620,note_on,0,0,0,,2,,,74,127
21641,note_off,21,0,0,,3,,,75,127
21688,note_on,47,0,0,,3,,,75,127
21709,note_off,21,0,0,,2,,,74,127
21754,note_off,45,0,0,,3,,,75,127
21754,note_off,0,0,0,,5,,,65,127
21755,note_on,1,0,0,,11,,,70,127
21755,note_on,0,0,0,,2,,,74,127
21889,note_off,134,0,0,,2,,,74,127
21889,note_off,0,0,0,,11,,,70,127
21890,note_on,1,0,0,,2,,,74,127
22024,note_off,134,0,0,,2,,,74,127
22025,note_on,1,0,0,,10,,,69,127
22025,note_on,0,0,0,,5,,,77,127
22159,note_off,134,0,0,,10,,,69,127
22160,note_on,1,0,0,,0,,,72,127
22294,note_off,134,0,0,,0,,,72,127
22294,note_off,0,0,0,,5,,,77,127
22295,note_on,1,0,0,,7,,,67,127
22295,note_on,0,0,0,,3,,,75,127
22429,note_off,134,0,0,,7,,,67,127
22430,note_on,1,0,0,,11,,,70,127
22564,note_off,134,0,0,,11,,,70,127
22564,note_off,0,0,0,,3,,,75,127
22565,note_on,1,0,0,,5,,,65,127
22565,note_on,0,0,0,,2,,,74,127
22699,note_off,134,0,0,,5,,,65,127
22700,note_on,1,0,0,,10,,,69,127
22834,note_off,134,0,0,,10,,,69,127
22834,note_off,0,0,0,,2,,,74,127
22835,note_on,1,0,0,,3,,,63,127
22835,note_on,0,0,0,,7,,,79,127
22969,note_off,134,0,0,,3,,,63,127
22970,note_on,1,0,0,,7,,,67,127
23104,note_off,134,0,0,,7,,,67,127
23104,note_off,0,0,0,,7,,,79,127
23105,note_on,1,0,0,,2,,,62,127
23105,note_on,0,0,0,,5,,,77,127
23239,note_off,134,0,0,,2,,,62,127
23240,note_on,1,0,0,,5,,,65,127
23374,note_off,134,0,0,,5,,,65,127
23375,note_on,1,0,0,,0,,,60,127
23509,note_off,134,0,0,,0,,,60,127
23509,note_off,0,0,0,,5,,,77,127
23510,note_on,1,0,0,,3,,,63,127
23510,note_on,0,0,0,,3,,,75,127
23644,note_off,134,0,0,,3,,,75,127
23644,note_off,0,0,0,,3,,,63,127
23645,note_on,1,0,0,,5,,,53,127
23645,note_on,0,0,0,,2,,,74,127
23779,note_off,134,0,0,,2,,,74,127
23779,note_off,0,0,0,,5,,,53,127
23780,note_on,1,0,0,,5,,,65,127
23780,note_on,0,0,0,,0,,,72,127
23914,note_off,134,0,0,,0,,,72,127
23914,note_off,0,0,0,,5,,,65,127
23915,note_on,1,0,0,,11,,,58,127
23915,note_on,0,0,0,,2,,,74,127
24049,note_off,134,0,0,,11,,,58,127
24050,note_on,1,0,0,,5,,,65,127
24184,note_off,134,0,0,,5,,,65,127
24185,note_on,1,0,0,,11,,,70,127
24319,note_off,134,0,0,,11,,,70,127
24320,note_on,1,0,0,,5,,,65,127
24454,note_off,134,0,0,,5,,,65,127
24454,note_off,0,0,0,,2,,,74,127
24455,note_on,1,0,0,,2,,,62,127
24589,note_off,134,0,0,,2,,,62,127
24590,note_on,1,0,0,,5,,,65,127
24724,note_off,134,0,0,,5,,,65,127
24725,note_on,1,0,0,,11,,,58,127
24725,note_on,0,0,0,,5,,,77,127
24859,note_off,134,0,0,,11,,,58,127
24860,note_on,1,0,0,,5,,,65,127
24994,note_off,134,0,0,,5,,,65,127
24994,note_off,0,0,0,,5,,,77,127
24995,note_on,1,0,0,,10,,,57,127
24995,note_on,0,0,0,,7,,,79,127
25063,note_on,68,0,0,,5,,,77,127
25084,note_off,21,0,0,,7,,,79,127
25129,note_off,45,0,0,,10,,,57,127
25130,note_on,1,0,0,,5,,,65,127
25130,note_on,0,0,0,,7,,,79,127
25151,note_off,21,0,0,,5,,,77,127
25198,note_on,47,0,0,,5,,,77,127
25219,note_off,21,0,0,,7,,,79,127
25264,note_off,45,0,0,,5,,,65,127
25265,note_on,1,0,0,,0,,,60,127
25265,note_on,0,0,0,,7,,,79,127
25286,note_off,21,0,0,,5,,,77,127
25333,note_on,47,0,0,,5,,,77,127
25354,note_off,21,0,0,,7,,,79,127
25399,note_off,45,0,0,,0,,,60,127
25400,note_on,1,0,0,,5,,,65,127
25400,note_on,0,0,0,,4,,,76,127
25421,note_off,21,0,0,,5,,,77,127
25468,note_on,47,0,0,,5,,,77,127
25489,note_off,21,0,0,,4,,,76,127
25534,note_off,45,0,0,,5,,,77,127
25534,note_off,0,0,0,,5,,,65,127
25535,note_on,1,0,0,,5,,,53,127
25535,note_on,0,0,0,,0,,,84,127
25669,note_off,134,0,0,,5,,,53,127
25670,note_on,1,0,0,,5,,,65,127
25804,note_off,134,0,0,,5,,,65,127
25804,note_off,0,0,0,,0,,,84,127
25805,note_on,1,0,0,,0,,,60,127
25805,note_on,0,0,0,,3,,,75,127
25939,note_off,134,0,0,,0,,,60,127
25940,note_on,1,0,0,,5,,,65,127
26074,note_off,134,0,0,,5,,,65,127
26074,note_off,0,0,0,,3,,,75,127
26075,note_on,1,0,0,,11,,,58,127
26075,note_on,0,0,0,,2,,,74,127
26209,note_off,134,0,0,,11,,,58,127
26210,note_on,1,0,0,,5,,,65,127
26344,note_off,134,0,0,,5,,,65,127
26345,note_on,1,0,0,,11,,,70,127
26479,note_off,134,0,0,,11,,,70,127
26480,note_on,1,0,0,,5,,,65,127
26614,note_off,134,0,0,,5,,,65,127
26614,note_off,0,0,0,,2,,,74,127
26615,note_on,1,0,0,,2,,,62,127
26749,note_off,134,0,0,,2,,,62,127
26750,note_on,1,0,0,,5,,,65,127
26884,note_off,134,0,0,,5,,,65,127
26885,note_on,1,0,0,,11,,,58,127
26885,note_on,0,0,0,,5,,,77,127
27019,note_off,134,0,0,,11,,,58,127
27020,note_on,1,0,0,,5,,,65,127
27154,note_off,134,0,0,,5,,,65,127
27154,note_off,0,0,0,,5,,,77,127
27155,note_on,1,0,0,,10,,,57,127
27155,note_on,0,0,0,,7,,,79,127
27223,note_on,68,0,0,,5,,,77,127
27244,note_off,21,0,0,,7,,,79,127
27289,note_off,45,0,0,,10,,,57,127
27290,note_on,1,0,0,,5,,,65,127
27290,note_on,0,0,0,,7,,,79,127
27311,note_off,21,0,0,,5,,,77,127
27358,note_on,47,0,0,,5,,,77,127
27379,note_off,21,0,0,,7,,,79,127
27424,note_off,45,0,0,,5,,,65,127
27425,note_on,1,0,0,,0,,,60,127
27425,note_on,0,0,0,,7,,,79,127
27446,note_off,21,0,0,,5,,,77,127
27493,note_on,47,0,0,,5,,,77,127
27514,note_off,21,0,0,,7,,,79,127
27559,note_off,45,0,0,,0,,,60,127
27560,note_on,1,0,0,,5,,,65,127
27560,note_on,0,0,0,,4,,,76,127
27581,note_off,21,0,0,,5,,,77,127
27628,note_on,47,0,0,,5,,,77,127
27649,note_off,21,0,0,,4,,,76,127
27694,note_off,45,0,0,,5,,,77,127
27694,note_off,0,0,0,,5,,,65,127
27695,note_on,1,0,0,,5,,,53,127
27695,note_on,0,0,0,,0,,,84,127
27829,note_off,134,0,0,,5,,,53,127
27830,note_on,1,0,0,,5,,,65,127
27964,note_off,134,0,0,,5,,,65,127
27964,note_off,0,0,0,,0,,,84,127
27965,note_on,1,0,0,,10,,,57,127
27965,note_on,0,0,0,,3,,,75,127
28099,note_off,134,0,0,,10,,,57,127
28100,note_on,1,0,0,,5,,,65,127
28234,note_off,134,0,0,,5,,,65,127
28234,note_off,0,0,0,,3,,,75,127
28235,note_on,1,0,0,,11,,,58,127
28235,note_on,0,0,0,,2,,,74,127
28369,note_off,134,0,0,,11,,,58,127
28370,note_on,1,0,0,,2,,,62,127
28504,note_off,134,0,0,,2,,,62,127
28505,note_on,1,0,0,,7,,,55,127
28639,note_off,134,0,0,,7,,,55,127
28640,note_on,1,0,0,,11,,,58,127
28770,note_off,130,0,0,,2,,,74,127
28774,note_off,4,0,0,,11,,,58,127
28775,note_on,1,0,0,,11,,,58,127
28909,note_off,134,0,0,,11,,,58,127
28910,note_on,1,0,0,,2,,,62,127
29044,note_off,134,0,0,,2,,,62,127
29045,note_on,1,0,0,,5,,,53,127
29045,note_on,0,0,0,,5,,,77,127
29179,note_off,134,0,0,,5,,,53,127
29180,note_on,1,0,0,,11,,,58,127
29314,note_off,134,0,0,,11,,,58,127
29314,note_off,0,0,0,,5,,,77,127
29315,note_on,1,0,0,,3,,,51,127
29315,note_on,0,0,0,,7,,,79,127
29449,note_off,134,0,0,,3,,,51,127
29450,note_on,1,0,0,,7,,,55,127
29584,note_off,134,0,0,,7,,,55,127
29584,note_off,0,0,0,,7,,,79,127
29585,note_on,1,0,0,,0,,,48,127
29585,note_on,0,0,0,,3,,,75,127
29719,note_off,134,0,0,,0,,,48,127
29720,note_on,1,0,0,,3,,,51,127
29854,note_off,134,0,0,,3,,,51,127
29854,note_off,0,0,0,,3,,,75,127
29855,note_on,1,0,0,,10,,,45,127
29855,note_on,0,0,0,,0,,,72,127
29989,note_off,134,0,0,,10,,,45,127
29990,note_on,1,0,0,,0,,,48,127
30124,note_off,134,0,0,,0,,,48,127
30124,note_off,0,0,0,,0,,,72,127
30125,note_on,1,0,0,,5,,,41,127
30125,note_on,0,0,0,,10,,,81,127
30259,note_off,134,0,0,,5,,,41,127
30260,note_on,1,0,0,,10,,,45,127
30394,note_off,134,0,0,,10,,,45,127
30394,note_off,0,0,0,,10,,,81,127
30395,note_on,1,0,0,,2,,,38,127
30395,note_on,0,0,0,,11,,,82,127
30529,note_off,134,0,0,,11,,,82,127
30530,note_on,1,0,0,,5,,,77,127
30664,note_off,134,0,0,,5,,,77,127
30665,note_on,1,0,0,,2,,,74,127
30799,note_off,134,0,0,,2,,,74,127
30800,note_on,1,0,0,,5,,,77,127
30934,note_off,134,0,0,,5,,,77,127
30935,note_on,1,0,0,,11,,,70,127
31069,note_off,134,0,0,,11,,,70,127
31070,note_off,1,0,0,,2,,,38,127
31070,note_on,0,0,0,,5,,,77,127
31204,note_off,134,0,0,,5,,,77,127
31205,note_on,1,0,0,,2,,,50,127
31205,note_on,0,0,0,,3,,,75,127
31339,note_off,134,0,0,,3,,,75,127
31340,note_on,1,0,0,,2,,,74,127
31474,note_off,134,0,0,,2,,,74,127
31474,note_off,0,0,0,,2,,,50,127
31475,note_on,1,0,0,,3,,,51,127
31475,note_on,0,0,0,,0,,,72,127
31611,note_on,136,0,0,,7,,,79,127
31645,note_off,34,0,0,,0,,,72,127
31745,note_off,100,0,0,,7,,,79,127
31745,note_off,0,0,0,,3,,,51,127
31746,note_on,1,0,0,,7,,,55,127
31746,note_on,0,0,0,,5,,,77,127
31880,note_off,134,0,0,,5,,,77,127
31881,note_on,1,0,0,,3,,,75,127
32015,note_off,134,0,0,,3,,,75,127
32015,note_off,0,0,0,,7,,,55,127
32016,note_on,1,0,0,,5,,,53,127
32016,note_on,0,0,0,,2,,,74,127
32150,note_off,134,0,0,,2,,,74,127
32151,note_on,1,0,0,,0,,,72,127
32285,note_off,134,0,0,,0,,,72,127
32286,note_on,1,0,0,,5,,,41,127
32286,note_on,0,0,0,,11,,,70,127
32420,note_off,134,0,0,,11,,,70,127
32421,note_on,1,0,0,,10,,,69,127
32555,note_off,134,0,0,,10,,,69,127
32555,note_off,0,0,0,,5,,,41,127
32555,note_off,0,0,0,,5,,,53,127
32556,note_on,1,0,0,,11,,,58,127
32556,note_on,0,0,0,,11,,,70,127
32690,note_off,134,0,0,,11,,,58,127
32691,note_on,1,0,0,,5,,,65,127
32824,note_off,133,0,0,,11,,,70,127
32825,note_off,1,0,0,,5,,,65,127
32826,note_on,1,0,0,,11,,,70,127
32962,note_on,136,0,0,,5,,,65,127
33096,note_off,134,0,0,,5,,,65,127
33096,note_off,0,0,0,,11,,,70,127
33097,note_on,1,0,0,,2,,,62,127
33231,note_off,134,0,0,,2,,,62,127
33232,note_on,1,0,0,,5,,,65,127
33366,note_off,134,0,0,,5,,,65,127
33367,note_on,1,0,0,,11,,,58,127
33367,note_on,0,0,0,,5,,,77,127
33501,note_off,134,0,0,,11,,,58,127
33502,note_on,1,0,0,,5,,,65,127
33636,note_off,134,0,0,,5,,,65,127
33636,note_off,0,0,0,,5,,,77,127
33637,note_on,1,0,0,,10,,,57,127
33637,note_on,0,0,0,,7,,,79,127
33705,note_on,68,0,0,,5,,,77,127
33726,note_off,21,0,0,,7,,,79,127
33771,note_off,45,0,0,,10,,,57,127
33772,note_on,1,0,0,,5,,,65,127
33772,note_on,0,0,0,,7,,,79,127
33793,note_off,21,0,0,,5,,,77,127
33840,note_on,47,0,0,,5,,,77,127
33861,note_off,21,0,0,,7,,,79,127
33906,note_off,45,0,0,,5,,,65,127
33907,note_on,1,0,0,,0,,,60,127
33907,note_on,0,0,0,,7,,,79,127
33928,note_off,21,0,0,,5,,,77,127
33975,note_on,47,0,0,,5,,,77,127
33996,note_off,21,0,0,,7,,,79,127
34041,note_off,45,0,0,,0,,,60,127
34042,note_on,1,0,0,,5,,,65,127
34042,note_on,0,0,0,,4,,,76,127
34063,note_off,21,0,0,,5,,,77,127
34110,note_on,47,0,0,,5,,,77,127
34131,note_off,21,0,0,,4,,,76,127
34176,note_off,45,0,0,,5,,,77,127
34176,note_off,0,0,0,,5,,,65,127
34177,note_on,1,0,0,,5,,,53,127
34177,note_on,0,0,0,,0,,,84,127
34311,note_off,134,0,0,,5,,,53,127
34312,note_on,1,0,0,,5,,,65,127
34446,note_off,134,0,0,,5,,,65,127
34446,note_off,0,0,0,,0,,,84,127
34447,note_on,1,0,0,,10,,,57,127
34447,note_on,0,0,0,,3,,,75,127
34581,note_off,134,0,0,,10,,,57,127
34582,note_on,1,0,0,,5,,,65,127
34716,note_off,134,0,0,,5,,,65,127
34716,note_off,0,0,0,,3,,,75,127
34717,note_on,1,0,0,,11,,,58,127
34717,note_on,0,0,0,,2,,,74,127
34851,note_off,134,0,0,,11,,,58,127
34852,note_on,1,0,0,,5,,,65,127
34986,note_off,134,0,0,,5,,,65,127
34987,note_on,1,0,0,,11,,,70,127
35121,note_off,134,0,0,,11,,,70,127
35122,note_on,1,0,0,,5,,,65,127
35256,note_off,134,0,0,,5,,,65,127
35256,note_off,0,0,0,,2,,,74,127
35257,note_on,1,0,0,,2,,,62,127
35391,note_off,134,0,0,,2,,,62,127
35392,note_on,1,0,0,,5,,,65,127
35526,note_off,134,0,0,,5,,,65,127
35527,note_on,1,0,0,,11,,,58,127
35527,note_on,0,0,0,,5,,,77,127
35661,note_off,134,0,0,,11,,,58,127
35662,note_on,1,0,0,,5,,,65,127
35796,note_off,134,0,0,,5,,,65,127
35796,note_off,0,0,0,,5,,,77,127
35797,note_on,1,0,0,,10,,,57,127
35797,note_on,0,0,0,,7,,,79,127
35865,note_on,68,0,0,,5,,,77,127
35886,note_off,21,0,0,,7,,,79,127
35931,note_off,45,0,0,,10,,,57,127
35932,note_on,1,0,0,,5,,,65,127
35932,note_on,0,0,0,,7,,,79,127
35953,note_off,21,0,0,,5,,,77,127
36000,note_on,47,0,0,,5,,,77,127
36021,note_off,21,0,0,,7,,,79,127
36066,note_off,45,0,0,,5,,,65,127
36067,note_on,1,0,0,,0,,,60,127
36067,note_on,0,0,0,,7,,,79,127
36088,note_off,21,0,0,,5,,,77,127
36135,note_on,47,0,0,,5,,,77,127
36156,note_off,21,0,0,,7,,,79,127
36201,note_off,45,0,0,,0,,,60,127
36202,note_on,1,0,0,,5,,,65,127
36202,note_on,0,0,0,,4,,,76,127
36223,note_off,21,0,0,,5,,,77,127
36270,note_on,47,0,0,,5,,,77,127
36291,note_off,21,0,0,,4,,,76,127
36336,note_off,45,0,0,,5,,,77,127
36336,note_off,0,0,0,,5,,,65,127
36337,note_on,1,0,0,,5,,,53,127
36337,note_on,0,0,0,,0,,,84,127
36471,note_off,134,0,0,,5,,,53,127
36472,note_on,1,0,0,,5,,,65,127
36606,note_off,134,0,0,,5,,,65,127
36606,note_off,0,0,0,,0,,,84,127
36607,note_on,1,0,0,,10,,,57,127
36607,note_on,0,0,0,,3,,,75,127
36741,note_off,134,0,0,,10,,,57,127
36742,note_on,1,0,0,,5,,,65,127
36876,note_off,134,0,0,,5,,,65,127
36876,note_off,0,0,0,,3,,,75,127
36877,note_on,1,0,0,,11,,,58,127
36877,note_on,0,0,0,,2,,,74,127
37011,note_off,134,0,0,,11,,,58,127
37012,note_on,1,0,0,,2,,,62,127
37146,note_off,134,0,0,,2,,,62,127
37147,note_on,1,0,0,,7,,,55,127
37281,note_off,134,0,0,,7,,,55,127
37282,note_on,1,0,0,,11,,,58,127
37416,note_off,134,0,0,,11,,,58,127
37417,note_on,1,0,0,,11,,,58,127
37551,note_off,134,0,0,,11,,,58,127
37552,note_on,1,0,0,,2,,,62,127
37686,note_off,134,0,0,,2,,,62,127
37686,note_off,0,0,0,,2,,,74,127
37687,note_on,1,0,0,,5,,,53,127
37687,note_on,0,0,0,,5,,,77,127
37821,note_off,134,0,0,,5,,,53,127
37822,note_on,1,0,0,,11,,,58,127
37956,note_off,134,0,0,,11,,,58,127
37956,note_off,0,0,0,,5,,,77,127
37957,note_on,1,0,0,,3,,,51,127
37957,note_on,0,0,0,,7,,,79,127
38091,note_off,134,0,0,,3,,,51,127
38092,note_on,1,0,0,,7,,,55,127
38226,note_off,134,0,0,,7,,,55,127
38226,note_off,0,0,0,,7,,,79,127
38227,note_on,1,0,0,,0,,,48,127
38227,note_on,0,0,0,,3,,,75,127
38361,note_off,134,0,0,,0,,,48,127
38362,note_on,1,0,0,,3,,,51,127
38496,note_off,134,0,0,,3,,,51,127
38496,note_off,0,0,0,,3,,,75,127
38497,note_on,1,0,0,,10,,,45,127
38497,note_on,0,0,0,,0,,,72,127
38631,note_off,134,0,0,,10,,,45,127
38632,note_on,1,0,0,,0,,,48,127
38766,note_off,134,0,0,,0,,,48,127
38766,note_off,0,0,0,,0,,,72,127
38767,note_on,1,0,0,,5,,,41,127
38767,note_on,0,0,0,,10,,,81,127
38901,note_off,134,0,0,,5,,,41,127
38902,note_on,1,0,0,,10,,,45,127
39036,note_off,134,0,0,,10,,,45,127
39036,note_off,0,0,0,,10,,,81,127
39037,note_on,1,0,0,,2,,,38,127
39037,note_on,0,0,0,,11,,,82,127
39171,note_off,134,0,0,,11,,,82,127
39172,note_on,1,0,0,,5,,,77,127
39306,note_off,134,0,0,,5,,,77,127
39307,note_on,1,0,0,,2,,,74,127
39441,note_off,134,0,0,,2,,,74,127
39442,note_on,1,0,0,,5,,,77,127
39576,note_off,134,0,0,,5,,,77,127
39577,note_on,1,0,0,,11,,,70,127
39711,note_off,134,0,0,,11,,,70,127
39712,note_off,1,0,0,,2,,,38,127
39712,note_on,0,0,0,,5,,,77,127
39846,note_off,134,0,0,,5,,,77,127
39847,note_on,1,0,0,,2,,,50,127
39847,note_on,0,0,0,,3,,,75,127
39981,note_off,134,0,0,,3,,,75,127
39982,note_on,1,0,0,,2,,,74,127
40116,note_off,134,0,0,,2,,,74,127
40116,note_off,0,0,0,,2,,,50,127
40117,note_on,1,0,0,,3,,,51,127
40117,note_on,0,0,0,,0,,,72,127
40253,note_on,136,0,0,,7,,,79,127
40287,note_off,34,0,0,,0,,,72,127
40387,note_off,100,0,0,,7,,,79,127
40387,note_off,0,0,0,,3,,,51,127
40388,note_on,1,0,0,,7,,,55,127
40388,note_on,0,0,0,,5,,,77,127
40522,note_off,134,0,0,,5,,,77,127
40523,note_on,1,0,0,,3,,,75,127
40657,note_off,134,0,0,,3,,,75,127
40657,note_off,0,0,0,,7,,,55,127
40658,note_on,1,0,0,,5,,,53,127
40658,note_on,0,0,0,,2,,,74,127
40792,note_off,134,0,0,,2,,,74,127
40793,note_on,1,0,0,,0,,,72,127
40927,note_off,134,0,0,,0,,,72,127
40928,note_on,1,0,0,,5,,,41,127
40928,note_on,0,0,0,,11,,,70,127
41062,note_off,134,0,0,,11,,,70,127
41063,note_on,1,0,0,,10,,,69,127
41197,note_off,134,0,0,,10,,,69,127
41197,note_off,0,0,0,,5,,,41,127
41197,note_off,0,0,0,,5,,,53,127
41198,note_on,1,0,0,,11,,,46,127
41198,note_on,0,0,0,,11,,,70,127
41332,note_off,134,0,0,,11,,,70,127
41333,note_on,1,0,0,,5,,,65,127
41467,note_off,134,0,0,,5,,,65,127
41468,note_on,1,0,0,,11,,,70,127
41602,note_off,134,0,0,,11,,,70,127
41603,note_on,1,0,0,,2,,,74,127
41737,note_off,134,0,0,,2,,,74,127
41738,note_on,1,0,0,,2,,,74,127
42008,note_off,270,0,0,,11,,,46,127
42009,note_on,1,0,0,,2,,,50,127
42279,note_off,270,0,0,,2,,,50,127
42280,note_on,1,0,0,,3,,,51,127
42414,note_off,134,0,0,,2,,,74,127
42415,note_on,1,0,0,,7,,,67,127
42549,note_off,134,0,0,,7,,,67,127
42549,note_off,0,0,0,,3,,,51,127
42550,note_on,1,0,0,,7,,,55,127
42550,note_on,0,0,0,,7,,,67,127
42684,note_off,134,0,0,,7,,,67,127
42685,note_on,1,0,0,,10,,,69,127
42819,note_off,134,0,0,,10,,,69,127
42819,note_off,0,0,0,,7,,,55,127
42820,note_on,1,0,0,,5,,,53,127
42820,note_on,0,0,0,,10,,,69,127
42954,note_off,134,0,0,,10,,,69,127
42955,note_on,1,0,0,,11,,,70,127
43089,note_off,134,0,0,,11,,,70,127
43089,note_off,0,0,0,,5,,,53,127
43090,note_on,1,0,0,,3,,,51,127
43090,note_on,0,0,0,,11,,,70,127
43224,note_off,134,0,0,,11,,,70,127
43225,note_on,1,0,0,,0,,,72,127
43359,note_off,134,0,0,,0,,,72,127
43359,note_off,0,0,0,,3,,,51,127
43360,note_on,1,0,0,,2,,,50,127
43360,note_on,0,0,0,,11,,,70,127
43494,note_off,134,0,0,,11,,,70,127
43495,note_on,1,0,0,,2,,,74,127
43629,note_off,134,0,0,,2,,,74,127
43630,note_on,1,0,0,,2,,,74,127
43764,note_off,134,0,0,,2,,,74,127
43765,note_on,1,0,0,,5,,,77,127
43899,note_off,134,0,0,,5,,,77,127
43900,note_on,1,0,0,,5,,,77,127
44170,note_off,270,0,0,,2,,,50,127
44171,note_on,1,0,0,,2,,,50,127
44441,note_off,270,0,0,,2,,,50,127
44442,note_on,1,0,0,,3,,,51,127
44576,note_off,134,0,0,,5,,,77,127
44577,note_on,1,0,0,,11,,,70,127
44711,note_off,134,0,0,,11,,,70,127
44711,note_off,0,0,0,,3,,,51,127
44712,note_on,1,0,0,,7,,,55,127
44712,note_on,0,0,0,,11,,,70,127
44846,note_off,134,0,0,,11,,,70,127
44847,note_on,1,0,0,,0,,,72,127
44981,note_off,134,0,0,,0,,,72,127
44981,note_off,0,0,0,,7,,,55,127
44982,note_on,1,0,0,,10,,,57,127
44982,note_on,0,0,0,,0,,,72,127
45116,note_off,134,0,0,,0,,,72,127
45117,note_on,1,0,0,,2,,,74,127
45251,note_off,134,0,0,,2,,,74,127
45251,note_off,0,0,0,,10,,,57,127
45252,note_on,1,0,0,,5,,,53,127
45252,note_on,0,0,0,,2,,,74,127
45386,note_off,134,0,0,,2,,,74,127
45387,note_on,1,0,0,,3,,,75,127
45521,note_off,134,0,0,,3,,,75,127
45521,note_off,0,0,0,,5,,,53,127
45522,note_on,1,0,0,,11,,,46,127
45522,note_on,0,0,0,,11,,,58,127
45522,note_on,0,0,0,,2,,,74,127
45656,note_off,134,0,0,,2,,,74,127
45657,note_on,1,0,0,,5,,,77,127
45791,note_off,134,0,0,,5,,,77,127
45792,note_on,1,0,0,,5,,,77,127
45926,note_off,134,0,0,,5,,,77,127
45927,note_on,1,0,0,,11,,,82,127
46061,note_off,134,0,0,,11,,,82,127
46062,note_on,1,0,0,,11,,,82,127
46332,note_off,270,0,0,,11,,,58,127
46332,note_off,0,0,0,,11,,,46,127
46333,note_on,1,0,0,,2,,,50,127
46603,note_off,270,0,0,,2,,,50,127
46604,note_on,1,0,0,,3,,,51,127
46738,note_off,134,0,0,,11,,,82,127
46739,note_on,1,0,0,,7,,,79,127
46873,note_off,134,0,0,,7,,,79,127
46873,note_off,0,0,0,,3,,,51,127
46874,note_on,1,0,0,,7,,,55,127
46874,note_on,0,0,0,,7,,,79,127
47008,note_off,134,0,0,,7,,,79,127
47009,note_on,1,0,0,,5,,,77,127
47143,note_off,134,0,0,,5,,,77,127
47143,note_off,0,0,0,,7,,,55,127
47144,note_on,1,0,0,,5,,,53,127
47144,note_on,0,0,0,,5,,,77,127
47278,note_off,134,0,0,,5,,,77,127
47279,note_on,1,0,0,,0,,,72,127
47413,note_off,134,0,0,,0,,,72,127
47413,note_off,0,0,0,,5,,,53,127
47414,note_on,1,0,0,,10,,,57,127
47414,note_on,0,0,0,,0,,,72,127
47548,note_off,134,0,0,,0,,,72,127
47549,note_on,1,0,0,,2,,,74,127
47683,note_off,134,0,0,,2,,,74,127
47683,note_off,0,0,0,,10,,,57,127
47684,note_on,1,0,0,,11,,,46,127
47684,note_on,0,0,0,,11,,,58,127
47684,note_on,0,0,0,,2,,,74,127
47818,note_off,134,0,0,,2,,,74,127
47819,note_on,1,0,0,,5,,,77,127
47953,note_off,134,0,0,,5,,,77,127
47954,note_on,1,0,0,,11,,,82,127
48088,note_off,134,0,0,,11,,,82,127
48089,note_on,1,0,0,,2,,,86,127
48223,note_off,134,0,0,,2,,,86,127
48224,note_on,1,0,0,,2,,,86,127
48494,note_off,270,0,0,,11,,,58,127
48494,note_off,0,0,0,,11,,,46,127
48495,note_on,1,0,0,,2,,,50,127
48765,note_off,270,0,0,,2,,,50,127
48766,note_on,1,0,0,,3,,,51,127
48900,note_off,134,0,0,,2,,,86,127
48901,note_on,1,0,0,,0,,,84,127
49035,note_off,134,0,0,,0,,,84,127
49035,note_off,0,0,0,,3,,,51,127
49036,note_on,1,0,0,,7,,,55,127
49036,note_on,0,0,0,,0,,,84,127
49170,note_off,134,0,0,,0,,,84,127
49171,note_on,1,0,0,,7,,,79,127
49305,note_off,134,0,0,,7,,,79,127
49305,note_off,0,0,0,,7,,,55,127
49306,note_on,1,0,0,,10,,,57,127
49306,note_on,0,0,0,,7,,,79,127
49440,note_off,134,0,0,,7,,,79,127
49441,note_on,1,0,0,,5,,,77,127
49575,note_off,134,0,0,,5,,,77,127
49575,note_off,0,0,0,,10,,,57,127
49576,note_on,1,0,0,,5,,,53,127
49576,note_on,0,0,0,,5,,,77,127
49710,note_off,134,0,0,,5,,,77,127
49711,note_on,1,0,0,,0,,,72,127
49845,note_off,134,0,0,,0,,,72,127
49845,note_off,0,0,0,,5,,,53,127
49846,note_on,1,0,0,,11,,,46,127
49846,note_on,0,0,0,,11,,,58,127
49846,note_on,0,0,0,,0,,,72,127
49980,note_off,134,0,0,,0,,,72,127
49981,note_on,1,0,0,,2,,,74,127
50115,note_off,134,0,0,,2,,,74,127
50115,note_off,0,0,0,,11,,,46,127
50116,note_on,1,0,0,,0,,,48,127
50116,note_on,0,0,0,,2,,,74,127
50250,note_off,134,0,0,,2,,,74,127
50251,note_off,1,0,0,,11,,,58,127
50251,note_on,0,0,0,,10,,,69,127
50385,note_off,134,0,0,,10,,,69,127
50385,note_off,0,0,0,,0,,,48,127
50386,note_on,1,0,0,,2,,,50,127
50386,note_on,0,0,0,,10,,,69,127
50520,note_off,134,0,0,,10,,,69,127
50521,note_on,1,0,0,,11,,,70,127
50655,note_off,134,0,0,,11,,,70,127
50655,note_off,0,0,0,,2,,,50,127
50656,note_on,1,0,0,,11,,,46,127
50656,note_on,0,0,0,,11,,,70,127
50790,note_off,134,0,0,,11,,,70,127
50791,note_on,1,0,0,,5,,,65,127
50925,note_off,134,0,0,,5,,,65,127
50925,note_off,0,0,0,,11,,,46,127
50926,note_on,1,0,0,,3,,,51,127
50926,note_on,0,0,0,,5,,,65,127
51060,note_off,134,0,0,,5,,,65,127
51061,note_on,1,0,0,,7,,,67,127
51195,note_off,134,0,0,,7,,,67,127
51195,note_off,0,0,0,,3,,,51,127
51196,note_on,1,0,0,,0,,,48,127
51196,note_on,0,0,0,,5,,,65,127
51330,note_off,134,0,0,,5,,,65,127
51331,note_on,1,0,0,,3,,,63,127
51465,note_off,134,0,0,,3,,,63,127
51465,note_off,0,0,0,,0,,,48,127
51466,note_on,1,0,0,,5,,,53,127
51466,note_on,0,0,0,,2,,,62,127
51600,note_off,134,0,0,,2,,,62,127
51601,note_on,1,0,0,,0,,,60,127
51735,note_off,134,0,0,,0,,,60,127
51736,note_on,1,0,0,,5,,,41,127
51736,note_on,0,0,0,,11,,,58,127
51870,note_off,134,0,0,,11,,,58,127
51871,note_on,1,0,0,,10,,,57,127
52005,note_off,134,0,0,,10,,,57,127
52005,note_off,0,0,0,,5,,,41,127
52005,note_off,0,0,0,,5,,,53,127
52006,note_on,1,0,0,,11,,,46,127
52006,note_on,0,0,0,,11,,,58,127
52545,note_off,539,0,0,,11,,,58,127
52546,note_off,1,0,0,,11,,,46,127
52547,note_on,1,0,0,,11,,,58,127
53089,note_on,542,0,0,,0,,,60,127
53223,note_off,134,0,0,,11,,,58,127
53224,note_on,1,0,0,,11,,,58,127
53358,note_off,134,0,0,,11,,,58,127
53359,note_on,1,0,0,,8,,,56,127
53493,note_off,134,0,0,,8,,,56,127
53494,note_on,1,0,0,,7,,,55,127
53596,note_off,102,0,0,,0,,,60,127
53628,note_off,32,0,0,,7,,,55,127
53629,note_on,1,0,0,,5,,,53,127
53629,note_on,0,0,0,,0,,,72,127
53763,note_off,134,0,0,,5,,,53,127
53764,note_on,1,0,0,,3,,,51,127
53898,note_off,134,0,0,,3,,,51,127
53899,note_on,1,0,0,,2,,,50,127
54033,note_off,134,0,0,,2,,,50,127
54034,note_on,1,0,0,,0,,,48,127
54168,note_off,134,0,0,,0,,,48,127
54169,note_on,1,0,0,,11,,,46,127
54303,note_off,134,0,0,,0,,,72,127
54304,note_on,1,0,0,,11,,,70,127
54438,note_off,134,0,0,,11,,,70,127
54439,note_on,1,0,0,,5,,,77,127
54573,note_off,134,0,0,,5,,,77,127
54574,note_on,1,0,0,,3,,,75,127
54708,note_off,134,0,0,,3,,,75,127
54708,note_off,0,0,0,,11,,,46,127
54709,note_on,1,0,0,,11,,,58,127
54709,note_on,0,0,0,,2,,,74,127
54843,note_off,134,0,0,,2,,,74,127
54844,note_on,1,0,0,,0,,,72,127
54978,note_off,134,0,0,,0,,,72,127
54979,note_on,1,0,0,,11,,,70,127
55113,note_off,134,0,0,,11,,,70,127
55114,note_on,1,0,0,,8,,,68,127
55248,note_off,134,0,0,,8,,,68,127
55248,note_off,0,0,0,,11,,,58,127
55249,note_on,1,0,0,,3,,,51,127
55249,note_on,0,0,0,,11,,,70,127
55317,note_on,68,0,0,,8,,,68,127
55338,note_off,21,0,0,,11,,,70,127
55385,note_on,47,0,0,,11,,,70,127
55406,note_off,21,0,0,,8,,,68,127
55453,note_on,47,0,0,,8,,,68,127
55474,note_off,21,0,0,,11,,,70,127
55519,note_off,45,0,0,,8,,,68,127
55520,note_on,1,0,0,,7,,,67,127
55790,note_off,270,0,0,,3,,,51,127
55791,note_on,1,0,0,,3,,,63,127
56061,note_off,270,0,0,,7,,,67,127
56333,note_on,272,0,0,,5,,,65,127
56467,note_off,134,0,0,,3,,,63,127
56468,note_on,1,0,0,,3,,,63,127
56602,note_off,134,0,0,,3,,,63,127
56603,note_on,1,0,0,,1,,,61,127
56737,note_off,134,0,0,,1,,,61,127
56738,note_on,1,0,0,,0,,,60,127
56840,note_off,102,0,0,,5,,,65,127
56872,note_off,32,0,0,,0,,,60,127
56873,note_on,1,0,0,,11,,,58,127
56873,note_on,0,0,0,,5,,,77,127
57007,note_off,134,0,0,,11,,,58,127
57008,note_on,1,0,0,,8,,,56,127
57142,note_off,134,0,0,,8,,,56,127
57143,note_on,1,0,0,,7,,,55,127
57277,note_off,134,0,0,,7,,,55,127
57278,note_on,1,0,0,,5,,,53,127
57412,note_off,134,0,0,,5,,,53,127
57413,note_on,1,0,0,,3,,,51,127
57547,note_off,134,0,0,,5,,,77,127
57548,note_on,1,0,0,,3,,,75,127
57682,note_off,134,0,0,,3,,,75,127
57683,note_on,1,0,0,,11,,,82,127
57817,note_off,134,0,0,,11,,,82,127
57818,note_on,1,0,0,,8,,,80,127
57952,note_off,134,0,0,,8,,,80,127
57952,note_off,0,0,0,,3,,,51,127
57953,note_on,1,0,0,,3,,,63,127
57953,note_on,0,0,0,,7,,,79,127
58087,note_off,134,0,0,,7,,,79,127
58088,note_on,1,0,0,,5,,,77,127
58222,note_off,134,0,0,,5,,,77,127
58223,note_on,1,0,0,,3,,,75,127
58357,note_off,134,0,0,,3,,,75,127
58358,note_on,1,0,0,,1,,,73,127
58492,note_off,134,0,0,,1,,,73,127
58492,note_off,0,0,0,,3,,,63,127
58493,note_on,1,0,0,,8,,,56,127
58493,note_on,0,0,0,,0,,,72,127
58627,note_off,134,0,0,,0,,,72,127
58628,note_on,1,0,0,,3,,,75,127
58762,note_off,134,0,0,,3,,,75,127
58763,note_on,1,0,0,,3,,,75,127
58897,note_off,134,0,0,,3,,,75,127
58898,note_on,1,0,0,,8,,,80,127
59028,note_off,130,0,0,,8,,,56,127
59032,note_off,4,0,0,,8,,,80,127
59033,note_on,1,0,0,,3,,,75,127
59169,note_on,136,0,0,,0,,,72,127
59303,note_off,134,0,0,,0,,,72,127
59304,note_on,1,0,0,,11,,,70,127
59372,note_on,68,0,0,,1,,,73,127
59386,note_off,14,0,0,,3,,,75,127
59438,note_off,52,0,0,,11,,,70,127
59439,note_on,1,0,0,,3,,,63,127
59439,note_on,0,0,0,,0,,,72,127
59460,note_off,21,0,0,,1,,,73,127
59507,note_on,47,0,0,,1,,,73,127
59528,note_off,21,0,0,,0,,,72,127
59573,note_off,45,0,0,,1,,,73,127
59573,note_off,0,0,0,,3,,,63,127
59574,note_on,1,0,0,,8,,,68,127
59574,note_on,0,0,0,,0,,,72,127
59708,note_off,134,0,0,,0,,,72,127
59709,note_on,1,0,0,,3,,,75,127
59843,note_off,134,0,0,,3,,,75,127
59844,note_on,1,0,0,,3,,,75,127
59978,note_off,134,0,0,,3,,,75,127
59979,note_on,1,0,0,,8,,,80,127
60113,note_off,134,0,0,,8,,,80,127
60114,note_on,1,0,0,,3,,,75,127
60248,note_off,134,0,0,,8,,,68,127
60249,note_on,1,0,0,,0,,,72,127
60383,note_off,134,0,0,,0,,,72,127
60384,note_on,1,0,0,,11,,,70,127
60452,note_on,68,0,0,,1,,,73,127
60466,note_off,14,0,0,,3,,,75,127
60518,note_off,52,0,0,,11,,,70,127
60519,note_on,1,0,0,,3,,,63,127
60519,note_on,0,0,0,,0,,,72,127
60540,note_off,21,0,0,,1,,,73,127
60587,note_on,47,0,0,,1,,,73,127
60608,note_off,21,0,0,,0,,,72,127
60653,note_off,45,0,0,,1,,,73,127
60653,note_off,0,0,0,,3,,,63,127
60654,note_on,1,0,0,,8,,,68,127
60654,note_on,0,0,0,,0,,,72,127
60788,note_off,134,0,0,,0,,,72,127
60789,note_on,1,0,0,,0,,,84,127
60923,note_off,134,0,0,,0,,,84,127
60924,note_on,1,0,0,,0,,,84,127
61058,note_off,134,0,0,,0,,,84,127
61059,note_on,1,0,0,,11,,,82,127
61193,note_off,134,0,0,,11,,,82,127
61193,note_off,0,0,0,,8,,,68,127
61194,note_on,1,0,0,,6,,,66,127
61194,note_on,0,0,0,,11,,,82,127
61328,note_off,134,0,0,,11,,,82,127
61329,note_on,1,0,0,,10,,,81,127
61463,note_off,134,0,0,,10,,,81,127
61463,note_off,0,0,0,,6,,,66,127
61464,note_on,1,0,0,,5,,,65,127
61464,note_on,0,0,0,,10,,,81,127
61598,note_off,134,0,0,,10,,,81,127
61599,note_on,1,0,0,,11,,,82,127
61733,note_off,134,0,0,,11,,,82,127
61733,note_off,0,0,0,,5,,,65,127
61734,note_on,1,0,0,,6,,,66,127
61734,note_on,0,0,0,,11,,,82,127
61868,note_off,134,0,0,,11,,,82,127
61869,note_on,1,0,0,,6,,,78,127
62003,note_off,134,0,0,,6,,,78,127
62003,note_off,0,0,0,,6,,,66,127
62004,note_on,1,0,0,,3,,,63,127
62004,note_on,0,0,0,,6,,,78,127
62138,note_off,134,0,0,,6,,,78,127
62139,note_on,1,0,0,,5,,,77,127
62273,note_off,134,0,0,,5,,,77,127
62273,note_off,0,0,0,,3,,,63,127
62274,note_on,1,0,0,,10,,,69,127
62274,note_on,0,0,0,,5,,,77,127
62408,note_off,134,0,0,,5,,,77,127
62409,note_on,1,0,0,,3,,,75,127
62543,note_off,134,0,0,,3,,,75,127
62543,note_off,0,0,0,,10,,,69,127
62544,note_on,1,0,0,,5,,,65,127
62544,note_on,0,0,0,,3,,,75,127
62678,note_off,134,0,0,,3,,,75,127
62679,note_on,1,0,0,,1,,,73,127
62813,note_off,134,0,0,,1,,,73,127
62813,note_off,0,0,0,,5,,,65,127
62814,note_on,1,0,0,,11,,,70,127
62814,note_on,0,0,0,,1,,,73,127
62948,note_off,134,0,0,,1,,,73,127
62949,note_on,1,0,0,,5,,,77,127
63083,note_off,134,0,0,,5,,,77,127
63084,note_on,1,0,0,,5,,,77,127
63218,note_off,134,0,0,,5,,,77,127
63219,note_on,1,0,0,,11,,,82,127
63349,note_off,130,0,0,,11,,,70,127
63353,note_off,4,0,0,,11,,,82,127
63354,note_on,1,0,0,,5,,,77,127
63490,note_on,136,0,0,,1,,,73,127
63624,note_off,134,0,0,,1,,,73,127
63625,note_on,1,0,0,,0,,,72,127
63693,note_on,68,0,0,,3,,,75,127
63707,note_off,14,0,0,,5,,,77,127
63759,note_off,52,0,0,,0,,,72,127
63760,note_on,1,0,0,,5,,,65,127
63760,note_on,0,0,0,,1,,,73,127
63781,note_off,21,0,0,,3,,,75,127
63828,note_on,47,0,0,,3,,,75,127
63849,note_off,21,0,0,,1,,,73,127
63894,note_off,45,0,0,,3,,,75,127
63894,note_off,0,0,0,,5,,,65,127
63895,note_on,1,0,0,,11,,,70,127
63895,note_on,0,0,0,,1,,,73,127
64029,note_off,134,0,0,,1,,,73,127
64030,note_on,1,0,0,,5,,,77,127
64164,note_off,134,0,0,,5,,,77,127
64165,note_on,1,0,0,,5,,,77,127
64299,note_off,134,0,0,,5,,,77,127
64300,note_on,1,0,0,,11,,,82,127
64434,note_off,134,0,0,,11,,,82,127
64435,note_on,1,0,0,,5,,,77,127
64569,note_off,134,0,0,,11,,,70,127
64570,note_on,1,0,0,,1,,,73,127
64704,note_off,134,0,0,,1,,,73,127
64705,note_on,1,0,0,,0,,,72,127
64773,note_on,68,0,0,,3,,,75,127
64787,note_off,14,0,0,,5,,,77,127
64839,note_off,52,0,0,,0,,,72,127
64840,note_on,1,0,0,,5,,,65,127
64840,note_on,0,0,0,,1,,,73,127
64861,note_off,21,0,0,,3,,,75,127
64908,note_on,47,0,0,,3,,,75,127
64929,note_off,21,0,0,,1,,,73,127
64974,note_off,45,0,0,,3,,,75,127
64974,note_off,0,0,0,,5,,,65,127
64975,note_on,1,0,0,,11,,,70,127
64975,note_on,0,0,0,,1,,,73,127
65109,note_off,134,0,0,,1,,,73,127
65110,note_on,1,0,0,,1,,,85,127
65244,note_off,134,0,0,,1,,,85,127
65244,note_off,0,0,0,,11,,,70,127
65245,note_on,1,0,0,,8,,,68,127
65245,note_on,0,0,0,,1,,,85,127
65379,note_off,134,0,0,,1,,,85,127
65380,note_on,1,0,0,,0,,,84,127
65514,note_off,134,0,0,,0,,,84,127
65514,note_off,0,0,0,,8,,,68,127
65515,note_on,1,0,0,,7,,,67,127
65515,note_on,0,0,0,,0,,,84,127
65649,note_off,134,0,0,,0,,,84,127
65650,note_on,1,0,0,,11,,,82,127
65784,note_off,134,0,0,,11,,,82,127
65784,note_off,0,0,0,,7,,,67,127
65785,note_on,1,0,0,,4,,,64,127
65785,note_on,0,0,0,,8,,,80,127
65919,note_off,134,0,0,,8,,,80,127
65920,note_on,1,0,0,,7,,,79,127
66054,note_off,134,0,0,,7,,,79,127
66054,note_off,0,0,0,,4,,,64,127
66055,note_on,1,0,0,,5,,,65,127
66055,note_on,0,0,0,,7,,,79,127
66189,note_off,134,0,0,,7,,,79,127
66190,note_on,1,0,0,,8,,,80,127
66324,note_off,134,0,0,,8,,,80,127
66324,note_off,0,0,0,,5,,,65,127
66325,note_on,1,0,0,,3,,,63,127
66325,note_on,0,0,0,,8,,,80,127
66459,note_off,134,0,0,,8,,,80,127
66460,note_on,1,0,0,,7,,,79,127
66594,note_off,134,0,0,,7,,,79,127
66594,note_off,0,0,0,,3,,,63,127
66595,note_on,1,0,0,,1,,,61,127
66595,note_on,0,0,0,,7,,,79,127
66729,note_off,134,0,0,,7,,,79,127
66730,note_on,1,0,0,,5,,,77,127
66864,note_off,134,0,0,,5,,,77,127
66865,note_on,1,0,0,,4,,,76,127
66999,note_off,134,0,0,,4,,,76,127
67000,note_on,1,0,0,,5,,,77,127
67134,note_off,134,0,0,,5,,,77,127
67134,note_off,0,0,0,,1,,,61,127
67135,note_on,1,0,0,,0,,,60,127
67135,note_on,0,0,0,,4,,,76,127
67269,note_off,134,0,0,,4,,,76,127
67270,note_on,1,0,0,,7,,,79,127
67404,note_off,134,0,0,,7,,,79,127
67405,note_on,1,0,0,,4,,,76,127
67539,note_off,134,0,0,,4,,,76,127
67540,note_on,1,0,0,,0,,,72,127
67674,note_off,134,0,0,,0,,,72,127
67674,note_off,0,0,0,,0,,,60,127
67675,note_on,1,0,0,,1,,,73,127
67811,note_on,136,0,0,,0,,,72,127
67945,note_off,134,0,0,,0,,,72,127
67946,note_on,1,0,0,,11,,,70,127
68080,note_off,134,0,0,,11,,,70,127
68081,note_on,1,0,0,,7,,,67,127
68215,note_off,134,0,0,,7,,,67,127
68216,note_on,1,0,0,,8,,,68,127
68350,note_off,134,0,0,,1,,,73,127
68351,note_on,1,0,0,,1,,,73,127
68485,note_off,134,0,0,,1,,,73,127
68486,note_on,1,0,0,,0,,,72,127
68619,note_off,133,0,0,,8,,,68,127
68620,note_off,1,0,0,,0,,,72,127
68621,note_on,1,0,0,,8,,,68,127
68757,note_on,136,0,0,,11,,,70,127
68890,note_off,133,0,0,,8,,,68,127
68893,note_on,3,0,0,,8,,,68,127
69027,note_off,134,0,0,,8,,,68,127
69028,note_on,1,0,0,,7,,,67,127
69162,note_off,134,0,0,,7,,,67,127
69163,note_on,1,0,0,,4,,,64,127
69297,note_off,134,0,0,,4,,,64,127
69298,note_on,1,0,0,,5,,,65,127
69432,note_off,134,0,0,,11,,,70,127
69433,note_on,1,0,0,,8,,,68,127
69567,note_off,134,0,0,,8,,,68,127
69567,note_off,0,0,0,,5,,,65,127
69568,note_on,1,0,0,,3,,,63,127
69568,note_on,0,0,0,,0,,,72,127
69702,note_off,134,0,0,,0,,,72,127
69703,note_on,1,0,0,,12,,,71,127
69837,note_off,134,0,0,,12,,,71,127
69837,note_off,0,0,0,,3,,,63,127
69838,note_on,1,0,0,,2,,,62,127
69838,note_on,0,0,0,,2,,,74,127
69972,note_off,134,0,0,,2,,,74,127
69973,note_on,1,0,0,,0,,,72,127
70107,note_off,134,0,0,,0,,,72,127
70107,note_off,0,0,0,,2,,,62,127
70108,note_on,1,0,0,,0,,,60,127
70108,note_on,0,0,0,,3,,,75,127
70242,note_off,134,0,0,,3,,,75,127
70243,note_on,1,0,0,,2,,,74,127
70377,note_off,134,0,0,,2,,,74,127
70377,note_off,0,0,0,,0,,,60,127
70378,note_on,1,0,0,,12,,,59,127
70378,note_on,0,0,0,,5,,,77,127
70512,note_off,134,0,0,,5,,,77,127
70513,note_on,1,0,0,,3,,,75,127
70647,note_off,134,0,0,,3,,,75,127
70647,note_off,0,0,0,,12,,,59,127
70648,note_on,1,0,0,,8,,,56,127
70648,note_on,0,0,0,,7,,,79,127
70782,note_off,134,0,0,,7,,,79,127
70783,note_on,1,0,0,,5,,,77,127
70917,note_off,134,0,0,,5,,,77,127
70917,note_off,0,0,0,,8,,,56,127
70918,note_on,1,0,0,,7,,,55,127
70918,note_on,0,0,0,,8,,,80,127
71052,note_off,134,0,0,,8,,,80,127
71053,note_on,1,0,0,,5,,,77,127
71187,note_off,134,0,0,,5,,,77,127
71187,note_off,0,0,0,,7,,,55,127
71188,note_on,1,0,0,,12,,,59,127
71188,note_on,0,0,0,,3,,,75,127
71322,note_off,134,0,0,,3,,,75,127
71323,note_on,1,0,0,,2,,,74,127
71457,note_off,134,0,0,,2,,,74,127
71457,note_off,0,0,0,,12,,,59,127
71458,note_on,1,0,0,,0,,,60,127
71458,note_on,0,0,0,,3,,,75,127
71592,note_off,134,0,0,,3,,,75,127
71593,note_on,1,0,0,,1,,,73,127
71727,note_off,134,0,0,,1,,,73,127
71727,note_off,0,0,0,,0,,,60,127
71728,note_on,1,0,0,,1,,,61,127
71728,note_on,0,0,0,,0,,,72,127
71862,note_off,134,0,0,,0,,,72,127
71863,note_on,1,0,0,,1,,,73,127
71997,note_off,134,0,0,,1,,,73,127
71997,note_off,0,0,0,,1,,,61,127
71998,note_on,1,0,0,,3,,,63,127
71998,note_on,0,0,0,,0,,,72,127
72132,note_off,134,0,0,,0,,,72,127
72133,note_on,1,0,0,,11,,,70,127
72267,note_off,134,0,0,,11,,,70,127
72267,note_off,0,0,0,,3,,,63,127
72268,note_on,1,0,0,,6,,,66,127
72268,note_on,0,0,0,,10,,,69,127
72402,note_off,134,0,0,,10,,,69,127
72403,note_on,1,0,0,,11,,,70,127
72537,note_off,134,0,0,,6,,,66,127
72538,note_on,1,0,0,,5,,,65,127
72671,note_off,133,0,0,,11,,,70,127
72674,note_on,3,0,0,,10,,,69,127
72808,note_off,134,0,0,,10,,,69,127
72808,note_off,0,0,0,,5,,,65,127
72809,note_on,1,0,0,,1,,,61,127
72809,note_on,0,0,0,,11,,,70,127
72943,note_off,134,0,0,,11,,,70,127
72944,note_on,1,0,0,,10,,,69,127
73078,note_off,134,0,0,,10,,,69,127
73078,note_off,0,0,0,,1,,,61,127
73079,note_on,1,0,0,,0,,,60,127
73079,note_on,0,0,0,,0,,,72,127
73213,note_off,134,0,0,,0,,,72,127
73214,note_on,1,0,0,,11,,,70,127
73348,note_off,134,0,0,,11,,,70,127
73348,note_off,0,0,0,,0,,,60,127
73349,note_on,1,0,0,,11,,,58,127
73349,note_on,0,0,0,,1,,,73,127
73483,note_off,134,0,0,,1,,,73,127
73484,note_on,1,0,0,,0,,,72,127
73618,note_off,134,0,0,,0,,,72,127
73618,note_off,0,0,0,,11,,,58,127
73619,note_on,1,0,0,,10,,,57,127
73619,note_on,0,0,0,,3,,,75,127
73753,note_off,134,0,0,,3,,,75,127
73754,note_on,1,0,0,,1,,,73,127
73888,note_off,134,0,0,,1,,,73,127
73888,note_off,0,0,0,,10,,,57,127
73889,note_on,1,0,0,,6,,,54,127
73889,note_on,0,0,0,,5,,,77,127
74023,note_off,134,0,0,,5,,,77,127
74024,note_on,1,0,0,,3,,,75,127
74158,note_off,134,0,0,,3,,,75,127
74158,note_off,0,0,0,,6,,,54,127
74159,note_on,1,0,0,,5,,,53,127
74159,note_on,0,0,0,,6,,,78,127
74293,note_off,134,0,0,,6,,,78,127
74294,note_on,1,0,0,,3,,,75,127
74428,note_off,134,0,0,,3,,,75,127
74428,note_off,0,0,0,,5,,,53,127
74429,note_on,1,0,0,,10,,,57,127
74429,note_on,0,0,0,,1,,,73,127
74563,note_off,134,0,0,,1,,,73,127
74564,note_on,1,0,0,,0,,,72,127
74698,note_off,134,0,0,,0,,,72,127
74698,note_off,0,0,0,,10,,,57,127
74699,note_on,1,0,0,,11,,,58,127
74699,note_on,0,0,0,,1,,,73,127
74833,note_off,134,0,0,,1,,,73,127
74834,note_on,1,0,0,,0,,,72,127
74968,note_off,134,0,0,,0,,,72,127
74968,note_off,0,0,0,,11,,,58,127
74969,note_on,1,0,0,,0,,,60,127
74969,note_on,0,0,0,,11,,,70,127
75103,note_off,134,0,0,,11,,,70,127
75104,note_on,1,0,0,,0,,,72,127
75238,note_off,134,0,0,,0,,,72,127
75238,note_off,0,0,0,,0,,,60,127
75239,note_on,1,0,0,,1,,,61,127
75239,note_on,0,0,0,,11,,,70,127
75373,note_off,134,0,0,,11,,,70,127
75374,note_on,1,0,0,,8,,,68,127
75508,note_off,134,0,0,,8,,,68,127
75508,note_off,0,0,0,,1,,,61,127
75509,note_on,1,0,0,,4,,,64,127
75509,note_on,0,0,0,,7,,,67,127
75643,note_off,134,0,0,,7,,,67,127
75644,note_on,1,0,0,,8,,,68,127
75778,note_off,134,0,0,,4,,,64,127
75779,note_on,1,0,0,,3,,,63,127
75912,note_off,133,0,0,,8,,,68,127
75915,note_on,3,0,0,,7,,,67,127
76049,note_off,134,0,0,,7,,,67,127
76049,note_off,0,0,0,,3,,,63,127
76050,note_on,1,0,0,,0,,,60,127
76050,note_on,0,0,0,,8,,,68,127
76184,note_off,134,0,0,,8,,,68,127
76185,note_on,1,0,0,,7,,,67,127
76319,note_off,134,0,0,,7,,,67,127
76319,note_off,0,0,0,,0,,,60,127
76320,note_on,1,0,0,,11,,,58,127
76320,note_on,0,0,0,,11,,,70,127
76454,note_off,134,0,0,,11,,,70,127
76455,note_on,1,0,0,,8,,,68,127
76589,note_off,134,0,0,,8,,,68,127
76589,note_off,0,0,0,,11,,,58,127
76590,note_on,1,0,0,,8,,,56,127
76590,note_on,0,0,0,,0,,,72,127
76724,note_off,134,0,0,,0,,,72,127
76725,note_on,1,0,0,,11,,,70,127
76859,note_off,134,0,0,,11,,,70,127
76859,note_off,0,0,0,,8,,,56,127
76860,note_on,1,0,0,,7,,,55,127
76860,note_on,0,0,0,,1,,,73,127
76994,note_off,134,0,0,,1,,,73,127
76995,note_on,1,0,0,,0,,,72,127
77129,note_off,134,0,0,,0,,,72,127
77129,note_off,0,0,0,,7,,,55,127
77130,note_on,1,0,0,,5,,,53,127
77130,note_on,0,0,0,,3,,,75,127
77264,note_off,134,0,0,,3,,,75,127
77265,note_on,1,0,0,,1,,,73,127
77399,note_off,134,0,0,,1,,,73,127
77399,note_off,0,0,0,,5,,,53,127
77400,note_on,1,0,0,,3,,,51,127
77400,note_on,0,0,0,,5,,,77,127
77534,note_off,134,0,0,,5,,,77,127
77535,note_on,1,0,0,,1,,,73,127
77669,note_off,134,0,0,,1,,,73,127
77669,note_off,0,0,0,,3,,,51,127
77670,note_on,1,0,0,,7,,,55,127
77670,note_on,0,0,0,,0,,,72,127
77804,note_off,134,0,0,,0,,,72,127
77805,note_on,1,0,0,,11,,,70,127
77939,note_off,134,0,0,,11,,,70,127
77939,note_off,0,0,0,,7,,,55,127
77940,note_on,1,0,0,,8,,,56,127
77940,note_on,0,0,0,,0,,,72,127
78074,note_off,134,0,0,,0,,,72,127
78075,note_on,1,0,0,,2,,,74,127
78209,note_off,134,0,0,,2,,,74,127
78209,note_off,0,0,0,,8,,,56,127
78210,note_on,1,0,0,,7,,,55,127
78210,note_on,0,0,0,,3,,,63,127
78210,note_on,0,0,0,,3,,,75,127
78344,note_off,134,0,0,,3,,,75,127
78345,note_on,1,0,0,,11,,,70,127
78472,note_off,127,0,0,,11,,,70,127
78479,note_off,7,0,0,,7,,,55,127
78480,note_on,1,0,0,,5,,,53,127
78480,note_on,0,0,0,,11,,,70,127
78548,note_on,68,0,0,,8,,,68,127
78569,note_off,21,0,0,,11,,,70,127
78616,note_on,47,0,0,,11,,,70,127
78637,note_off,21,0,0,,8,,,68,127
78684,note_on,47,0,0,,8,,,68,127
78705,note_off,21,0,0,,11,,,70,127
78750,note_off,45,0,0,,3,,,63,127
78751,note_on,1,0,0,,2,,,62,127
78751,note_on,0,0,0,,11,,,70,127
78772,note_off,21,0,0,,8,,,68,127
78819,note_on,47,0,0,,8,,,68,127
78840,note_off,21,0,0,,11,,,70,127
78887,note_on,47,0,0,,7,,,67,127
78908,note_off,21,0,0,,8,,,68,127
78955,note_on,47,0,0,,8,,,68,127
78976,note_off,21,0,0,,7,,,67,127
79021,note_off,45,0,0,,8,,,68,127
79021,note_off,0,0,0,,2,,,62,127
79021,note_off,0,0,0,,5,,,53,127
79022,note_on,1,0,0,,3,,,51,127
79022,note_on,0,0,0,,7,,,67,127
79156,note_off,134,0,0,,3,,,51,127
79157,note_on,1,0,0,,11,,,58,127
79291,note_off,134,0,0,,11,,,58,127
79292,note_on,1,0,0,,3,,,63,127
79426,note_off,134,0,0,,3,,,63,127
79427,note_on,1,0,0,,11,,,58,127
79561,note_off,134,0,0,,11,,,58,127
79561,note_off,0,0,0,,7,,,67,127
79562,note_on,1,0,0,,7,,,55,127
79696,note_off,134,0,0,,7,,,55,127
79697,note_on,1,0,0,,11,,,58,127
79831,note_off,134,0,0,,11,,,58,127
79832,note_on,1,0,0,,3,,,51,127
79832,note_on,0,0,0,,11,,,70,127
79966,note_off,134,0,0,,3,,,51,127
79967,note_on,1,0,0,,11,,,58,127
80101,note_off,134,0,0,,11,,,58,127
80101,note_off,0,0,0,,11,,,70,127
80102,note_on,1,0,0,,2,,,50,127
80102,note_on,0,0,0,,0,,,72,127
80170,note_on,68,0,0,,11,,,70,127
80191,note_off,21,0,0,,0,,,72,127
80236,note_off,45,0,0,,2,,,50,127
80237,note_on,1,0,0,,11,,,58,127
80237,note_on,0,0,0,,0,,,72,127
80258,note_off,21,0,0,,11,,,70,127
80305,note_on,47,0,0,,11,,,70,127
80326,note_off,21,0,0,,0,,,72,127
80371,note_off,45,0,0,,11,,,58,127
80372,note_on,1,0,0,,5,,,53,127
80372,note_on,0,0,0,,0,,,72,127
80393,note_off,21,0,0,,11,,,70,127
80440,note_on,47,0,0,,11,,,70,127
80461,note_off,21,0,0,,0,,,72,127
80506,note_off,45,0,0,,5,,,53,127
80507,note_on,1,0,0,,11,,,58,127
80507,note_on,0,0,0,,10,,,69,127
80528,note_off,21,0,0,,11,,,70,127
80575,note_on,47,0,0,,11,,,70,127
80596,note_off,21,0,0,,10,,,69,127
80641,note_off,45,0,0,,11,,,70,127
80641,note_off,0,0,0,,11,,,58,127
80642,note_on,1,0,0,,11,,,46,127
80642,note_on,0,0,0,,5,,,77,127
80776,note_off,134,0,0,,11,,,46,127
80777,note_on,1,0,0,,11,,,58,127
80911,note_off,134,0,0,,11,,,58,127
80911,note_off,0,0,0,,5,,,77,127
80912,note_on,1,0,0,,2,,,50,127
80912,note_on,0,0,0,,8,,,68,127
81046,note_off,134,0,0,,2,,,50,127
81047,note_on,1,0,0,,11,,,58,127
81181,note_off,134,0,0,,11,,,58,127
81181,note_off,0,0,0,,8,,,68,127
81182,note_on,1,0,0,,3,,,51,127
81182,note_on,0,0,0,,7,,,67,127
81316,note_off,134,0,0,,3,,,51,127
81317,note_on,1,0,0,,11,,,58,127
81451,note_off,134,0,0,,11,,,58,127
81452,note_on,1,0,0,,3,,,63,127
81586,note_off,134,0,0,,3,,,63,127
81587,note_on,1,0,0,,11,,,58,127
81721,note_off,134,0,0,,11,,,58,127
81721,note_off,0,0,0,,7,,,67,127
81722,note_on,1,0,0,,7,,,55,127
81856,note_off,134,0,0,,7,,,55,127
81857,note_on,1,0,0,,11,,,58,127
81991,note_off,134,0,0,,11,,,58,127
81992,note_on,1,0,0,,3,,,51,127
81992,note_on,0,0,0,,11,,,70,127
82126,note_off,134,0,0,,3,,,51,127
82127,note_on,1,0,0,,11,,,58,127
82261,note_off,134,0,0,,11,,,58,127
82261,note_off,0,0,0,,11,,,70,127
82262,note_on,1,0,0,,2,,,50,127
82262,note_on,0,0,0,,0,,,72,127
82330,note_on,68,0,0,,11,,,70,127
82351,note_off,21,0,0,,0,,,72,127
82396,note_off,45,0,0,,2,,,50,127
82397,note_on,1,0,0,,11,,,58,127
82397,note_on,0,0,0,,0,,,72,127
82418,note_off,21,0,0,,11,,,70,127
82465,note_on,47,0,0,,11,,,70,127
82486,note_off,21,0,0,,0,,,72,127
82531,note_off,45,0,0,,11,,,58,127
82532,note_on,1,0,0,,5,,,53,127
82532,note_on,0,0,0,,0,,,72,127
82553,note_off,21,0,0,,11,,,70,127
82600,note_on,47,0,0,,11,,,70,127
82621,note_off,21,0,0,,0,,,72,127
82666,note_off,45,0,0,,5,,,53,127
82667,note_on,1,0,0,,11,,,58,127
82667,note_on,0,0,0,,10,,,69,127
82688,note_off,21,0,0,,11,,,70,127
82735,note_on,47,0,0,,11,,,70,127
82756,note_off,21,0,0,,10,,,69,127
82801,note_off,45,0,0,,11,,,70,127
82801,note_off,0,0,0,,11,,,58,127
82802,note_on,1,0,0,,2,,,50,127
82802,note_on,0,0,0,,5,,,77,127
82936,note_off,134,0,0,,2,,,50,127
82937,note_on,1,0,0,,11,,,58,127
83071,note_off,134,0,0,,11,,,58,127
83071,note_off,0,0,0,,5,,,77,127
83072,note_on,1,0,0,,11,,,46,127
83072,note_on,0,0,0,,8,,,68,127
83206,note_off,134,0,0,,11,,,46,127
83207,note_on,1,0,0,,11,,,58,127
83341,note_off,134,0,0,,11,,,58,127
83341,note_off,0,0,0,,8,,,68,127
83342,note_on,1,0,0,,3,,,51,127
83342,note_on,0,0,0,,7,,,67,127
83476,note_off,134,0,0,,3,,,51,127
83477,note_on,1,0,0,,7,,,55,127
83581,note_off,104,0,0,,7,,,67,127
83611,note_off,30,0,0,,7,,,55,127
83612,note_on,1,0,0,,5,,,53,127
83612,note_on,0,0,0,,7,,,79,127
83746,note_off,134,0,0,,5,,,53,127
83747,note_on,1,0,0,,8,,,56,127
83881,note_off,134,0,0,,8,,,56,127
83882,note_on,1,0,0,,7,,,55,127
84016,note_off,134,0,0,,7,,,55,127
84017,note_on,1,0,0,,11,,,58,127
84151,note_off,134,0,0,,11,,,58,127
84151,note_off,0,0,0,,7,,,79,127
84152,note_on,1,0,0,,8,,,56,127
84152,note_on,0,0,0,,5,,,77,127
84286,note_off,134,0,0,,5,,,77,127
84286,note_off,0,0,0,,8,,,56,127
84287,note_on,1,0,0,,0,,,60,127
84287,note_on,0,0,0,,0,,,72,127
84421,note_off,134,0,0,,0,,,72,127
84421,note_off,0,0,0,,0,,,60,127
84422,note_on,1,0,0,,11,,,58,127
84422,note_on,0,0,0,,2,,,74,127
84556,note_off,134,0,0,,11,,,58,127
84557,note_on,1,0,0,,2,,,62,127
84661,note_off,104,0,0,,2,,,74,127
84691,note_off,30,0,0,,2,,,62,127
84692,note_on,1,0,0,,0,,,60,127
84692,note_on,0,0,0,,0,,,84,127
84826,note_off,134,0,0,,0,,,60,127
84827,note_on,1,0,0,,3,,,63,127
84961,note_off,134,0,0,,3,,,63,127
84962,note_on,1,0,0,,2,,,62,127
85096,note_off,134,0,0,,2,,,62,127
85097,note_on,1,0,0,,5,,,65,127
85231,note_off,134,0,0,,5,,,65,127
85231,note_off,0,0,0,,0,,,84,127
85232,note_on,1,0,0,,11,,,58,127
85232,note_on,0,0,0,,11,,,82,127
85366,note_off,134,0,0,,11,,,82,127
85366,note_off,0,0,0,,11,,,58,127
85367,note_on,1,0,0,,2,,,62,127
85367,note_on,0,0,0,,5,,,77,127
85501,note_off,134,0,0,,5,,,77,127
85501,note_off,0,0,0,,2,,,62,127
85502,note_on,1,0,0,,3,,,63,127
85502,note_on,0,0,0,,7,,,79,127
85636,note_off,134,0,0,,7,,,79,127
85637,note_on,1,0,0,,3,,,75,127
85771,note_off,134,0,0,,3,,,75,127
85771,note_off,0,0,0,,3,,,63,127
85772,note_on,1,0,0,,8,,,56,127
85772,note_on,0,0,0,,8,,,80,127
85906,note_off,134,0,0,,8,,,80,127
85907,note_on,1,0,0,,5,,,77,127
86041,note_off,134,0,0,,5,,,77,127
86041,note_off,0,0,0,,8,,,56,127
86042,note_on,1,0,0,,11,,,58,127
86042,note_on,0,0,0,,7,,,67,127
86042,note_on,0,0,0,,3,,,75,127
86312,note_off,270,0,0,,7,,,67,127
86313,note_on,1,0,0,,5,,,65,127
86381,note_on,68,0,0,,2,,,74,127
86395,note_off,14,0,0,,3,,,75,127
86449,note_on,54,0,0,,0,,,72,127
86470,note_off,21,0,0,,2,,,74,127
86517,note_on,47,0,0,,2,,,74,127
86538,note_off,21,0,0,,0,,,72,127
86583,note_off,45,0,0,,2,,,74,127
86583,note_off,0,0,0,,5,,,65,127
86583,note_off,0,0,0,,11,,,58,127
86584,note_on,1,0,0,,3,,,51,127
86584,note_on,0,0,0,,3,,,75,127
86718,note_off,134,0,0,,3,,,51,127
86719,note_on,1,0,0,,11,,,58,127
86853,note_off,134,0,0,,11,,,58,127
86854,note_on,1,0,0,,3,,,63,127
86988,note_off,134,0,0,,3,,,63,127
86989,note_on,1,0,0,,11,,,58,127
87123,note_off,134,0,0,,11,,,58,127
87123,note_off,0,0,0,,3,,,75,127
87124,note_on,1,0,0,,7,,,55,127
87258,note_off,134,0,0,,7,,,55,127
87259,note_on,1,0,0,,11,,,58,127
87393,note_off,134,0,0,,11,,,58,127
87394,note_on,1,0,0,,3,,,51,127
87394,note_on,0,0,0,,11,,,70,127
87528,note_off,134,0,0,,3,,,51,127
87529,note_on,1,0,0,,11,,,58,127
87663,note_off,134,0,0,,11,,,58,127
87663,note_off,0,0,0,,11,,,70,127
87664,note_on,1,0,0,,2,,,50,127
87664,note_on,0,0,0,,0,,,72,127
87732,note_on,68,0,0,,11,,,70,127
87753,note_off,21,0,0,,0,,,72,127
87798,note_off,45,0,0,,2,,,50,127
87799,note_on,1,0,0,,11,,,58,127
87799,note_on,0,0,0,,0,,,72,127
87820,note_off,21,0,0,,11,,,70,127
87867,note_on,47,0,0,,11,,,70,127
87888,note_off,21,0,0,,0,,,72,127
87933,note_off,45,0,0,,11,,,58,127
87934,note_on,1,0,0,,5,,,53,127
87934,note_on,0,0,0,,0,,,72,127
87955,note_off,21,0,0,,11,,,70,127
88002,note_on,47,0,0,,11,,,70,127
88023,note_off,21,0,0,,0,,,72,127
88068,note_off,45,0,0,,5,,,53,127
88069,note_on,1,0,0,,11,,,58,127
88069,note_on,0,0,0,,10,,,69,127
88090,note_off,21,0,0,,11,,,70,127
88137,note_on,47,0,0,,11,,,70,127
88158,note_off,21,0,0,,10,,,69,127
88203,note_off,45,0,0,,11,,,70,127
88203,note_off,0,0,0,,11,,,58,127
88204,note_on,1,0,0,,11,,,46,127
88204,note_on,0,0,0,,5,,,77,127
88338,note_off,134,0,0,,11,,,46,127
88339,note_on,1,0,0,,11,,,58,127
88473,note_off,134,0,0,,11,,,58,127
88473,note_off,0,0,0,,5,,,77,127
88474,note_on,1,0,0,,2,,,50,127
88474,note_on,0,0,0,,8,,,68,127
88608,note_off,134,0,0,,2,,,50,127
88609,note_on,1,0,0,,11,,,58,127
88743,note_off,134,0,0,,11,,,58,127
88743,note_off,0,0,0,,8,,,68,127
88744,note_on,1,0,0,,3,,,51,127
88744,note_on,0,0,0,,7,,,67,127
88878,note_off,134,0,0,,3,,,51,127
88879,note_on,1,0,0,,11,,,58,127
89013,note_off,134,0,0,,11,,,58,127
89014,note_on,1,0,0,,3,,,63,127
89148,note_off,134,0,0,,3,,,63,127
89149,note_on,1,0,0,,11,,,58,127
89283,note_off,134,0,0,,11,,,58,127
89283,note_off,0,0,0,,7,,,67,127
89284,note_on,1,0,0,,7,,,55,127
89418,note_off,134,0,0,,7,,,55,127
89419,note_on,1,0,0,,11,,,58,127
89553,note_off,134,0,0,,11,,,58,127
89554,note_on,1,0,0,,3,,,51,127
89554,note_on,0,0,0,,11,,,70,127
89688,note_off,134,0,0,,3,,,51,127
89689,note_on,1,0,0,,11,,,58,127
89823,note_off,134,0,0,,11,,,58,127
89823,note_off,0,0,0,,11,,,70,127
89824,note_on,1,0,0,,2,,,50,127
89824,note_on,0,0,0,,0,,,72,127
89892,note_on,68,0,0,,11,,,70,127
89913,note_off,21,0,0,,0,,,72,127
89958,note_off,45,0,0,,2,,,50,127
89959,note_on,1,0,0,,11,,,58,127
89959,note_on,0,0,0,,0,,,72,127
89980,note_off,21,0,0,,11,,,70,127
90027,note_on,47,0,0,,11,,,70,127
90048,note_off,21,0,0,,0,,,72,127
90093,note_off,45,0,0,,11,,,58,127
90094,note_on,1,0,0,,5,,,53,127
90094,note_on,0,0,0,,0,,,72,127
90115,note_off,21,0,0,,11,,,70,127
90162,note_on,47,0,0,,11,,,70,127
90183,note_off,21,0,0,,0,,,72,127
90228,note_off,45,0,0,,5,,,53,127
90229,note_on,1,0,0,,11,,,58,127
90229,note_on,0,0,0,,10,,,69,127
90250,note_off,21,0,0,,11,,,70,127
90297,note_on,47,0,0,,11,,,70,127
90318,note_off,21,0,0,,10,,,69,127
90363,note_off,45,0,0,,11,,,70,127
90363,note_off,0,0,0,,11,,,58,127
90364,note_on,1,0,0,,2,,,50,127
90364,note_on,0,0,0,,5,,,77,127
90498,note_off,134,0,0,,2,,,50,127
90499,note_on,1,0,0,,11,,,58,127
90633,note_off,134,0,0,,11,,,58,127
90633,note_off,0,0,0,,5,,,77,127
90634,note_on,1,0,0,,11,,,46,127
90634,note_on,0,0,0,,8,,,68,127
90768,note_off,134,0,0,,11,,,46,127
90769,note_on,1,0,0,,11,,,58,127
90903,note_off,134,0,0,,11,,,58,127
90903,note_off,0,0,0,,8,,,68,127
90904,note_on,1,0,0,,3,,,51,127
90904,note_on,0,0,0,,7,,,67,127
91038,note_off,134,0,0,,3,,,51,127
91039,note_on,1,0,0,,7,,,55,127
91143,note_off,104,0,0,,7,,,67,127
91173,note_off,30,0,0,,7,,,55,127
91174,note_on,1,0,0,,5,,,53,127
91174,note_on,0,0,0,,7,,,79,127
91308,note_off,134,0,0,,5,,,53,127
91309,note_on,1,0,0,,8,,,56,127
91443,note_off,134,0,0,,8,,,56,127
91444,note_on,1,0,0,,7,,,55,127
91578,note_off,134,0,0,,7,,,55,127
91579,note_on,1,0,0,,11,,,58,127
91713,note_off,134,0,0,,11,,,58,127
91713,note_off,0,0,0,,7,,,79,127
91714,note_on,1,0,0,,8,,,56,127
91714,note_on,0,0,0,,5,,,77,127
91848,note_off,134,0,0,,5,,,77,127
91848,note_off,0,0,0,,8,,,56,127
91849,note_on,1,0,0,,0,,,60,127
91849,note_on,0,0,0,,0,,,72,127
91983,note_off,134,0,0,,0,,,72,127
91983,note_off,0,0,0,,0,,,60,127
91984,note_on,1,0,0,,11,,,58,127
91984,note_on,0,0,0,,2,,,74,127
92118,note_off,134,0,0,,11,,,58,127
92119,note_on,1,0,0,,2,,,62,127
92223,note_off,104,0,0,,2,,,74,127
92253,note_off,30,0,0,,2,,,62,127
92254,note_on,1,0,0,,0,,,60,127
92254,note_on,0,0,0,,0,,,84,127
92388,note_off,134,0,0,,0,,,60,127
92389,note_on,1,0,0,,3,,,63,127
92523,note_off,134,0,0,,3,,,63,127
92524,note_on,1,0,0,,2,,,62,127
92658,note_off,134,0,0,,2,,,62,127
92659,note_on,1,0,0,,5,,,65,127
92793,note_off,134,0,0,,5,,,65,127
92793,note_off,0,0,0,,0,,,84,127
92794,note_on,1,0,0,,11,,,58,127
92794,note_on,0,0,0,,11,,,82,127
92928,note_off,134,0,0,,11,,,82,127
92928,note_off,0,0,0,,11,,,58,127
92929,note_on,1,0,0,,2,,,62,127
92929,note_on,0,0,0,,5,,,77,127
93063,note_off,134,0,0,,5,,,77,127
93063,note_off,0,0,0,,2,,,62,127
93064,note_on,1,0,0,,3,,,63,127
93064,note_on,0,0,0,,7,,,79,127
93198,note_off,134,0,0,,7,,,79,127
93199,note_on,1,0,0,,3,,,75,127
93333,note_off,134,0,0,,3,,,75,127
93333,note_off,0,0,0,,3,,,63,127
93334,note_on,1,0,0,,8,,,56,127
93334,note_on,0,0,0,,8,,,80,127
93468,note_off,134,0,0,,8,,,80,127
93469,note_on,1,0,0,,5,,,77,127
93603,note_off,134,0,0,,5,,,77,127
93603,note_off,0,0,0,,8,,,56,127
93604,note_on,1,0,0,,11,,,58,127
93604,note_on,0,0,0,,3,,,75,127
93875,note_on,271,0,0,,11,,,46,127
93943,note_on,68,0,0,,2,,,74,127
93957,note_off,14,0,0,,3,,,75,127
94011,note_on,54,0,0,,0,,,72,127
94032,note_off,21,0,0,,2,,,74,127
94079,note_on,47,0,0,,2,,,74,127
94100,note_off,21,0,0,,0,,,72,127
94138,note_off,38,0,0,,11,,,46,127
94139,note_off,1,0,0,,11,,,58,127
94146,note_on,7,0,0,,3,,,51,127
94177,note_off,31,0,0,,2,,,74,127
94281,note_on,104,0,0,,3,,,75,127
94415,note_off,134,0,0,,3,,,75,127
94416,note_on,1,0,0,,7,,,79,127
94550,note_off,134,0,0,,7,,,79,127
94551,note_on,1,0,0,,5,,,77,127
94685,note_off,134,0,0,,5,,,77,127
94686,note_on,1,0,0,,3,,,75,127
94820,note_off,134,0,0,,3,,,75,127
94821,note_on,1,0,0,,2,,,74,127
94955,note_off,134,0,0,,2,,,74,127
94955,note_off,0,0,0,,3,,,51,127
94956,note_on,1,0,0,,7,,,55,127
94956,note_on,0,0,0,,0,,,72,127
95090,note_off,134,0,0,,0,,,72,127
95091,note_on,1,0,0,,11,,,70,127
95225,note_off,134,0,0,,11,,,70,127
95225,note_off,0,0,0,,7,,,55,127
95226,note_on,1,0,0,,5,,,53,127
95226,note_on,0,0,0,,8,,,68,127
95360,note_off,134,0,0,,8,,,68,127
95361,note_on,1,0,0,,7,,,67,127
95495,note_off,134,0,0,,7,,,67,127
95495,note_off,0,0,0,,5,,,53,127
95496,note_on,1,0,0,,8,,,56,127
95496,note_on,0,0,0,,5,,,65,127
95630,note_off,134,0,0,,5,,,65,127
95631,note_on,1,0,0,,3,,,63,127
95765,note_off,134,0,0,,3,,,63,127
95765,note_off,0,0,0,,8,,,56,127
95766,note_on,1,0,0,,11,,,58,127
95766,note_on,0,0,0,,2,,,62,127
95900,note_off,134,0,0,,2,,,62,127
95901,note_on,1,0,0,,0,,,60,127
96035,note_off,134,0,0,,0,,,60,127
96035,note_off,0,0,0,,11,,,58,127
96036,note_on,1,0,0,,11,,,46,127
96036,note_on,0,0,0,,11,,,58,127
96170,note_off,134,0,0,,11,,,58,127
96171,note_on,1,0,0,,8,,,56,127
96305,note_off,134,0,0,,8,,,56,127
96305,note_off,0,0,0,,11,,,46,127
96306,note_on,1,0,0,,7,,,55,127
96442,note_on,136,0,0,,3,,,63,127
96576,note_off,134,0,0,,3,,,63,127
96577,note_on,1,0,0,,7,,,67,127
96711,note_off,134,0,0,,7,,,67,127
96712,note_on,1,0,0,,5,,,65,127
96846,note_off,134,0,0,,5,,,65,127
96846,note_off,0,0,0,,7,,,55,127
96847,note_on,1,0,0,,3,,,63,127
96981,note_off,134,0,0,,3,,,63,127
96982,note_on,1,0,0,,2,,,62,127
97116,note_off,134,0,0,,2,,,62,127
97117,note_on,1,0,0,,0,,,60,127
97251,note_off,134,0,0,,0,,,60,127
97252,note_on,1,0,0,,11,,,58,127
97386,note_off,134,0,0,,11,,,58,127
97387,note_on,1,0,0,,8,,,56,127
97387,note_on,0,0,0,,0,,,72,127
97521,note_off,134,0,0,,8,,,56,127
97522,note_on,1,0,0,,7,,,55,127
97656,note_off,134,0,0,,7,,,55,127
97657,note_on,1,0,0,,5,,,53,127
97791,note_off,134,0,0,,5,,,53,127
97792,note_on,1,0,0,,3,,,51,127
97926,note_off,134,0,0,,3,,,51,127
97926,note_off,0,0,0,,0,,,72,127
97927,note_on,1,0,0,,2,,,50,127
97927,note_on,0,0,0,,3,,,75,127
97995,note_on,68,0,0,,2,,,74,127
98016,note_off,21,0,0,,3,,,75,127
98061,note_off,45,0,0,,2,,,50,127
98062,note_on,1,0,0,,0,,,48,127
98062,note_on,0,0,0,,3,,,75,127
98083,note_off,21,0,0,,2,,,74,127
98130,note_on,47,0,0,,2,,,74,127
98151,note_off,21,0,0,,3,,,75,127
98196,note_off,45,0,0,,0,,,48,127
98197,note_on,1,0,0,,11,,,46,127
98197,note_on,0,0,0,,3,,,75,127
98218,note_off,21,0,0,,2,,,74,127
98265,note_on,47,0,0,,2,,,74,127
98286,note_off,21,0,0,,3,,,75,127
98331,note_off,45,0,0,,11,,,46,127
98332,note_on,1,0,0,,8,,,44,127
98332,note_on,0,0,0,,0,,,72,127
98353,note_off,21,0,0,,2,,,74,127
98400,note_on,47,0,0,,2,,,74,127
98421,note_off,21,0,0,,0,,,72,127
98466,note_off,45,0,0,,2,,,74,127
98466,note_off,0,0,0,,8,,,44,127
98467,note_on,1,0,0,,7,,,43,127
98603,note_on,136,0,0,,3,,,75,127
98737,note_off,134,0,0,,3,,,75,127
98738,note_on,1,0,0,,7,,,79,127
98872,note_off,134,0,0,,7,,,79,127
98873,note_on,1,0,0,,5,,,77,127
99007,note_off,134,0,0,,5,,,77,127
99008,note_on,1,0,0,,3,,,75,127
99142,note_off,134,0,0,,3,,,75,127
99143,note_off,1,0,0,,7,,,43,127
99143,note_on,0,0,0,,2,,,74,127
99277,note_off,134,0,0,,2,,,74,127
99278,note_on,1,0,0,,7,,,55,127
99278,note_on,0,0,0,,0,,,72,127
99412,note_off,134,0,0,,0,,,72,127
99413,note_on,1,0,0,,11,,,70,127
99547,note_off,134,0,0,,11,,,70,127
99547,note_off,0,0,0,,7,,,55,127
99548,note_on,1,0,0,,8,,,56,127
99548,note_on,0,0,0,,8,,,68,127
99682,note_off,134,0,0,,8,,,68,127
99683,note_on,1,0,0,,0,,,72,127
99817,note_off,134,0,0,,0,,,72,127
99817,note_off,0,0,0,,8,,,56,127
99818,note_on,1,0,0,,0,,,60,127
99818,note_on,0,0,0,,11,,,70,127
99952,note_off,134,0,0,,11,,,70,127
99953,note_on,1,0,0,,8,,,68,127
100087,note_off,134,0,0,,8,,,68,127
100087,note_off,0,0,0,,0,,,60,127
100088,note_on,1,0,0,,11,,,58,127
100088,note_on,0,0,0,,7,,,67,127
100222,note_off,134,0,0,,7,,,67,127
100223,note_on,1,0,0,,5,,,65,127
100357,note_off,134,0,0,,5,,,65,127
100358,note_on,1,0,0,,11,,,46,127
100358,note_on,0,0,0,,3,,,63,127
100492,note_off,134,0,0,,3,,,63,127
100493,note_on,1,0,0,,2,,,62,127
100627,note_off,134,0,0,,2,,,62,127
100627,note_off,0,0,0,,11,,,46,127
100627,note_off,0,0,0,,11,,,58,127
100628,note_on,1,0,0,,3,,,51,127
100628,note_on,0,0,0,,3,,,63,127
100762,note_off,134,0,0,,3,,,63,127
100763,note_on,1,0,0,,7,,,67,127
100897,note_off,134,0,0,,7,,,67,127
100898,note_on,1,0,0,,11,,,70,127
101032,note_off,134,0,0,,11,,,70,127
101033,note_on,1,0,0,,3,,,75,127
101167,note_off,134,0,0,,3,,,75,127
101168,note_on,1,0,0,,3,,,75,127
101438,note_off,270,0,0,,3,,,51,127
101439,note_on,1,0,0,,7,,,55,127
101709,note_off,270,0,0,,7,,,55,127
101710,note_on,1,0,0,,8,,,56,127
101844,note_off,134,0,0,,3,,,75,127
101845,note_on,1,0,0,,0,,,72,127
101979,note_off,134,0,0,,0,,,72,127
101979,note_off,0,0,0,,8,,,56,127
101980,note_on,1,0,0,,0,,,60,127
101980,note_on,0,0,0,,0,,,72,127
102114,note_off,134,0,0,,0,,,72,127
102115,note_on,1,0,0,,2,,,74,127
102249,note_off,134,0,0,,2,,,74,127
102249,note_off,0,0,0,,0,,,60,127
102250,note_on,1,0,0,,11,,,58,127
102250,note_on,0,0,0,,2,,,74,127
102384,note_off,134,0,0,,2,,,74,127
102385,note_on,1,0,0,,3,,,75,127
102519,note_off,134,0,0,,3,,,75,127
102519,note_off,0,0,0,,11,,,58,127
102520,note_on,1,0,0,,8,,,56,127
102520,note_on,0,0,0,,3,,,75,127
102654,note_off,134,0,0,,3,,,75,127
102655,note_on,1,0,0,,5,,,77,127
102789,note_off,134,0,0,,5,,,77,127
102789,note_off,0,0,0,,8,,,56,127
102790,note_on,1,0,0,,7,,,55,127
102790,note_on,0,0,0,,3,,,75,127
102924,note_off,134,0,0,,3,,,75,127
102925,note_on,1,0,0,,11,,,70,127
103059,note_off,134,0,0,,11,,,70,127
103060,note_on,1,0,0,,3,,,75,127
103194,note_off,134,0,0,,3,,,75,127
103195,note_on,1,0,0,,7,,,79,127
103329,note_off,134,0,0,,7,,,79,127
103330,note_on,1,0,0,,7,,,79,127
103600,note_off,270,0,0,,7,,,55,127
103601,note_on,1,0,0,,7,,,55,127
103871,note_off,270,0,0,,7,,,55,127
103872,note_on,1,0,0,,8,,,56,127
104006,note_off,134,0,0,,7,,,79,127
104007,note_on,1,0,0,,3,,,75,127
104141,note_off,134,0,0,,3,,,75,127
104141,note_off,0,0,0,,8,,,56,127
104142,note_on,1,0,0,,0,,,60,127
104142,note_on,0,0,0,,3,,,75,127
104276,note_off,134,0,0,,3,,,75,127
104277,note_on,1,0,0,,5,,,77,127
104411,note_off,134,0,0,,5,,,77,127
104411,note_off,0,0,0,,0,,,60,127
104412,note_on,1,0,0,,11,,,58,127
104412,note_on,0,0,0,,5,,,77,127
104546,note_off,134,0,0,,5,,,77,127
104547,note_on,1,0,0,,7,,,79,127
104681,note_off,134,0,0,,7,,,79,127
104682,note_on,1,0,0,,11,,,46,127
104682,note_on,0,0,0,,7,,,79,127
104816,note_off,134,0,0,,7,,,79,127
104817,note_on,1,0,0,,8,,,80,127
104951,note_off,134,0,0,,8,,,80,127
104951,note_off,0,0,0,,11,,,46,127
104951,note_off,0,0,0,,11,,,58,127
104952,note_on,1,0,0,,3,,,51,127
104952,note_on,0,0,0,,7,,,79,127
105086,note_off,134,0,0,,7,,,79,127
105087,note_on,1,0,0,,3,,,75,127
105221,note_off,134,0,0,,3,,,75,127
105222,note_on,1,0,0,,7,,,79,127
105356,note_off,134,0,0,,7,,,79,127
105357,note_on,1,0,0,,11,,,82,127
105491,note_off,134,0,0,,11,,,82,127
105492,note_on,1,0,0,,11,,,82,127
105762,note_off,270,0,0,,3,,,51,127
105763,note_on,1,0,0,,7,,,55,127
106033,note_off,270,0,0,,7,,,55,127
106034,note_on,1,0,0,,8,,,56,127
106168,note_off,134,0,0,,11,,,82,127
106169,note_on,1,0,0,,0,,,84,127
106303,note_off,134,0,0,,0,,,84,127
106303,note_off,0,0,0,,8,,,56,127
106304,note_on,1,0,0,,0,,,60,127
106304,note_on,0,0,0,,0,,,84,127
106438,note_off,134,0,0,,0,,,84,127
106439,note_on,1,0,0,,8,,,80,127
106573,note_off,134,0,0,,8,,,80,127
106573,note_off,0,0,0,,0,,,60,127
106574,note_on,1,0,0,,2,,,62,127
106574,note_on,0,0,0,,8,,,80,127
106708,note_off,134,0,0,,8,,,80,127
106709,note_on,1,0,0,,5,,,77,127
106843,note_off,134,0,0,,5,,,77,127
106843,note_off,0,0,0,,2,,,62,127
106844,note_on,1,0,0,,11,,,58,127
106844,note_on,0,0,0,,5,,,77,127
106978,note_off,134,0,0,,5,,,77,127
106979,note_on,1,0,0,,11,,,82,127
107113,note_off,134,0,0,,11,,,82,127
107113,note_off,0,0,0,,11,,,58,127
107114,note_on,1,0,0,,3,,,51,127
107114,note_on,0,0,0,,3,,,63,127
107114,note_on,0,0,0,,11,,,82,127
107248,note_off,134,0,0,,11,,,82,127
107249,note_on,1,0,0,,7,,,79,127
107383,note_off,134,0,0,,7,,,79,127
107383,note_off,0,0,0,,3,,,51,127
107384,note_on,1,0,0,,5,,,53,127
107384,note_on,0,0,0,,7,,,79,127
107518,note_off,134,0,0,,7,,,79,127
107519,note_on,1,0,0,,2,,,74,127
107649,note_off,130,0,0,,3,,,63,127
107653,note_off,4,0,0,,2,,,74,127
107653,note_off,0,0,0,,5,,,53,127
107654,note_on,1,0,0,,7,,,55,127
107654,note_on,0,0,0,,2,,,74,127
107788,note_off,134,0,0,,2,,,74,127
107789,note_on,1,0,0,,3,,,75,127
107923,note_off,134,0,0,,3,,,75,127
107923,note_off,0,0,0,,7,,,55,127
107924,note_on,1,0,0,,3,,,51,127
107924,note_on,0,0,0,,3,,,75,127
108058,note_off,134,0,0,,3,,,75,127
108059,note_on,1,0,0,,11,,,70,127
108193,note_off,134,0,0,,11,,,70,127
108193,note_off,0,0,0,,3,,,51,127
108194,note_on,1,0,0,,8,,,56,127
108194,note_on,0,0,0,,11,,,70,127
108328,note_off,134,0,0,,11,,,70,127
108329,note_on,1,0,0,,0,,,72,127
108463,note_off,134,0,0,,0,,,72,127
108463,note_off,0,0,0,,8,,,56,127
108464,note_on,1,0,0,,5,,,53,127
108464,note_on,0,0,0,,11,,,70,127
108598,note_off,134,0,0,,11,,,70,127
108599,note_on,1,0,0,,8,,,68,127
108733,note_off,134,0,0,,8,,,68,127
108733,note_off,0,0,0,,5,,,53,127
108734,note_on,1,0,0,,11,,,58,127
108734,note_on,0,0,0,,7,,,67,127
108868,note_off,134,0,0,,7,,,67,127
108869,note_on,1,0,0,,5,,,65,127
109003,note_off,134,0,0,,5,,,65,127
109004,note_on,1,0,0,,11,,,46,127
109004,note_on,0,0,0,,3,,,63,127
109138,note_off,134,0,0,,3,,,63,127
109139,note_on,1,0,0,,2,,,62,127
109273,note_off,134,0,0,,2,,,62,127
109273,note_off,0,0,0,,11,,,46,127
109273,note_off,0,0,0,,11,,,58,127
109289,note_on,16,0,0,,3,,,51,127
109289,note_on,0,0,0,,3,,,63,127
111457,note_off,2168,0,0,,3,,,63,127
111457,note_off,0,0,0,,3,,,51,127
113664,end_of_track,2207,1,0,,,,,,
