tick,type,time,meta,track,program,channel,pitch,tempo,note,velocity
0,copyright,0,1,0,,,,,,
0,program_change,0,0,0,6,0,,,,
0,pitchwheel,0,0,0,,0,0,,,
0,program_change,0,0,0,6,1,,,,
0,pitchwheel,0,0,0,,1,-590,,,
0,program_change,0,0,0,6,2,,,,
0,pitchwheel,0,0,0,,2,-272,,,
0,program_change,0,0,0,6,3,,,,
0,pitchwheel,0,0,0,,3,-353,,,
0,program_change,0,0,0,6,4,,,,
0,pitchwheel,0,0,0,,4,-560,,,
0,program_change,0,0,0,6,5,,,,
0,pitchwheel,0,0,0,,5,-80,,,
0,program_change,0,0,0,6,6,,,,
0,pitchwheel,0,0,0,,6,-625,,,
0,program_change,0,0,0,6,7,,,,
0,pitchwheel,0,0,0,,7,-130,,,
0,program_change,0,0,0,6,8,,,,
0,pitchwheel,0,0,0,,8,-512,,,
0,program_change,0,0,0,6,10,,,,
0,pitchwheel,0,0,0,,10,-464,,,
0,program_change,0,0,0,6,11,,,,
0,pitchwheel,0,0,0,,11,-208,,,
0,program_change,0,0,0,6,12,,,,
0,pitchwheel,0,0,0,,12,-553,,,
0,set_tempo,0,1,0,,,,500000,,
128,note_on,128,0,0,,8,,,80,127
129,note_on,1,0,0,,7,,,79,127
212,note_off,83,0,0,,8,,,80,127
213,note_off,1,0,0,,7,,,79,127
213,note_on,0,0,0,,5,,,77,127
297,note_off,84,0,0,,5,,,77,127
298,note_on,1,0,0,,7,,,79,127
382,note_off,84,0,0,,7,,,79,127
383,note_on,1,0,0,,8,,,80,127
638,note_off,255,0,0,,8,,,80,127
639,note_on,1,0,0,,7,,,79,127
894,note_off,255,0,0,,7,,,79,127
895,note_on,1,0,0,,8,,,68,127
895,note_on,0,0,0,,0,,,72,127
979,note_off,84,0,0,,8,,,68,127
980,note_on,1,0,0,,7,,,67,127
1064,note_off,84,0,0,,7,,,67,127
1065,note_on,1,0,0,,8,,,68,127
1149,note_off,84,0,0,,8,,,68,127
1149,note_off,0,0,0,,0,,,72,127
1150,note_on,1,0,0,,11,,,70,127
1150,note_on,0,0,0,,3,,,75,127
1405,note_off,255,0,0,,3,,,75,127
1405,note_off,0,0,0,,11,,,70,127
1406,note_on,1,0,0,,8,,,68,127
1406,note_on,0,0,0,,2,,,74,127
1661,note_off,255,0,0,,2,,,74,127
1661,note_off,0,0,0,,8,,,68,127
1662,note_on,1,0,0,,8,,,68,127
1662,note_on,0,0,0,,0,,,84,127
1663,note_on,1,0,0,,11,,,82,127
1663,note_on,0,0,0,,7,,,67,127
1746,note_off,83,0,0,,0,,,84,127
1746,note_off,0,0,0,,8,,,68,127
1747,note_off,1,0,0,,7,,,67,127
1747,note_off,0,0,0,,11,,,82,127
1747,note_on,0,0,0,,5,,,65,127
1747,note_on,0,0,0,,8,,,80,127
1831,note_off,84,0,0,,8,,,80,127
1831,note_off,0,0,0,,5,,,65,127
1832,note_on,1,0,0,,7,,,67,127
1832,note_on,0,0,0,,11,,,82,127
1916,note_off,84,0,0,,11,,,82,127
1916,note_off,0,0,0,,7,,,67,127
1917,note_on,1,0,0,,8,,,68,127
1917,note_on,0,0,0,,0,,,84,127
2172,note_off,255,0,0,,0,,,84,127
2172,note_off,0,0,0,,8,,,68,127
2173,note_on,1,0,0,,7,,,67,127
2173,note_on,0,0,0,,11,,,82,127
2428,note_off,255,0,0,,7,,,67,127
2429,note_on,1,0,0,,0,,,60,127
2684,note_off,255,0,0,,0,,,60,127
2685,note_on,1,0,0,,2,,,62,127
2746,note_off,61,0,0,,11,,,82,127
2749,note_on,3,0,0,,8,,,80,127
2812,note_off,63,0,0,,8,,,80,127
2813,note_on,1,0,0,,11,,,82,127
2876,note_off,63,0,0,,11,,,82,127
2877,note_on,1,0,0,,8,,,80,127
2940,note_off,63,0,0,,8,,,80,127
2940,note_off,0,0,0,,2,,,62,127
2941,note_on,1,0,0,,11,,,58,127
2941,note_on,0,0,0,,11,,,82,127
3004,note_off,63,0,0,,11,,,82,127
3005,note_on,1,0,0,,8,,,80,127
3068,note_off,63,0,0,,8,,,80,127
3069,note_on,1,0,0,,7,,,79,127
3132,note_off,63,0,0,,7,,,79,127
3133,note_on,1,0,0,,8,,,80,127
3196,note_off,63,0,0,,8,,,80,127
3196,note_off,0,0,0,,11,,,58,127
3197,note_on,1,0,0,,3,,,63,127
3197,note_on,0,0,0,,7,,,79,127
3281,note_off,84,0,0,,7,,,79,127
3282,note_on,1,0,0,,5,,,77,127
3366,note_off,84,0,0,,5,,,77,127
3367,note_on,1,0,0,,3,,,75,127
3451,note_off,84,0,0,,3,,,75,127
3452,note_on,1,0,0,,2,,,74,127
3536,note_off,84,0,0,,2,,,74,127
3537,note_on,1,0,0,,3,,,75,127
3621,note_off,84,0,0,,3,,,75,127
3622,note_on,1,0,0,,5,,,77,127
3706,note_off,84,0,0,,5,,,77,127
3707,note_on,1,0,0,,3,,,75,127
3934,note_off,227,0,0,,3,,,75,127
3962,note_off,28,0,0,,3,,,63,127
3963,note_on,1,0,0,,5,,,65,127
3963,note_on,0,0,0,,3,,,63,127
3963,note_on,0,0,0,,10,,,69,127
3963,note_on,0,0,0,,3,,,75,127
4047,note_off,84,0,0,,3,,,75,127
4048,note_on,1,0,0,,5,,,77,127
4132,note_off,84,0,0,,5,,,77,127
4133,note_on,1,0,0,,7,,,79,127
4217,note_off,84,0,0,,7,,,79,127
4217,note_off,0,0,0,,10,,,69,127
4217,note_off,0,0,0,,3,,,63,127
4217,note_off,0,0,0,,5,,,65,127
4218,note_on,1,0,0,,3,,,63,127
4218,note_on,0,0,0,,5,,,65,127
4218,note_on,0,0,0,,10,,,69,127
4218,note_on,0,0,0,,7,,,79,127
4473,note_off,255,0,0,,7,,,79,127
4473,note_off,0,0,0,,10,,,69,127
4473,note_off,0,0,0,,5,,,65,127
4473,note_off,0,0,0,,3,,,63,127
4474,note_on,1,0,0,,3,,,63,127
4474,note_on,0,0,0,,10,,,69,127
4474,note_on,0,0,0,,5,,,65,127
4474,note_on,0,0,0,,10,,,81,127
4729,note_off,255,0,0,,10,,,81,127
4729,note_off,0,0,0,,5,,,65,127
4729,note_off,0,0,0,,10,,,69,127
4729,note_off,0,0,0,,3,,,63,127
4730,note_on,1,0,0,,5,,,65,127
4730,note_on,0,0,0,,11,,,70,127
4730,note_on,0,0,0,,1,,,61,127
4730,note_on,0,0,0,,0,,,84,127
4793,note_off,63,0,0,,0,,,84,127
4794,note_on,1,0,0,,11,,,82,127
4857,note_off,63,0,0,,11,,,82,127
4858,note_on,1,0,0,,0,,,84,127
4921,note_off,63,0,0,,0,,,84,127
4922,note_on,1,0,0,,11,,,82,127
4985,note_off,63,0,0,,11,,,82,127
4985,note_off,0,0,0,,1,,,61,127
4985,note_off,0,0,0,,11,,,70,127
4985,note_off,0,0,0,,5,,,65,127
4986,note_on,1,0,0,,5,,,65,127
4986,note_on,0,0,0,,11,,,70,127
4986,note_on,0,0,0,,1,,,61,127
4986,note_on,0,0,0,,0,,,84,127
5049,note_off,63,0,0,,0,,,84,127
5050,note_on,1,0,0,,11,,,82,127
5113,note_off,63,0,0,,11,,,82,127
5114,note_on,1,0,0,,10,,,81,127
5241,note_off,127,0,0,,10,,,81,127
5241,note_off,0,0,0,,1,,,61,127
5241,note_off,0,0,0,,11,,,70,127
5241,note_off,0,0,0,,5,,,65,127
5242,note_on,1,0,0,,5,,,65,127
5242,note_on,0,0,0,,1,,,61,127
5242,note_on,0,0,0,,11,,,70,127
5242,note_on,0,0,0,,11,,,82,127
5482,note_off,240,0,0,,11,,,82,127
5497,note_off,15,0,0,,11,,,70,127
5497,note_off,0,0,0,,1,,,61,127
5497,note_off,0,0,0,,5,,,65,127
5498,note_on,1,0,0,,1,,,61,127
5498,note_on,0,0,0,,7,,,67,127
5498,note_on,0,0,0,,3,,,63,127
5498,note_on,0,0,0,,1,,,73,127
5582,note_off,84,0,0,,1,,,73,127
5583,note_on,1,0,0,,3,,,75,127
5667,note_off,84,0,0,,3,,,75,127
5668,note_on,1,0,0,,5,,,77,127
5752,note_off,84,0,0,,5,,,77,127
5752,note_off,0,0,0,,3,,,63,127
5752,note_off,0,0,0,,7,,,67,127
5752,note_off,0,0,0,,1,,,61,127
5753,note_on,1,0,0,,1,,,61,127
5753,note_on,0,0,0,,7,,,67,127
5753,note_on,0,0,0,,3,,,63,127
5753,note_on,0,0,0,,5,,,77,127
6008,note_off,255,0,0,,5,,,77,127
6008,note_off,0,0,0,,3,,,63,127
6008,note_off,0,0,0,,7,,,67,127
6008,note_off,0,0,0,,1,,,61,127
6009,note_on,1,0,0,,1,,,61,127
6009,note_on,0,0,0,,7,,,67,127
6009,note_on,0,0,0,,3,,,63,127
6009,note_on,0,0,0,,7,,,79,127
6264,note_off,255,0,0,,7,,,79,127
6264,note_off,0,0,0,,3,,,63,127
6264,note_off,0,0,0,,7,,,67,127
6264,note_off,0,0,0,,1,,,61,127
6265,note_on,1,0,0,,3,,,63,127
6265,note_on,0,0,0,,0,,,60,127
6265,note_on,0,0,0,,8,,,68,127
6265,note_on,0,0,0,,11,,,82,127
6328,note_off,63,0,0,,11,,,82,127
6329,note_on,1,0,0,,8,,,80,127
6392,note_off,63,0,0,,8,,,80,127
6393,note_on,1,0,0,,11,,,82,127
6456,note_off,63,0,0,,11,,,82,127
6457,note_on,1,0,0,,8,,,80,127
6520,note_off,63,0,0,,8,,,80,127
6520,note_off,0,0,0,,8,,,68,127
6520,note_off,0,0,0,,0,,,60,127
6520,note_off,0,0,0,,3,,,63,127
6521,note_on,1,0,0,,3,,,63,127
6521,note_on,0,0,0,,0,,,60,127
6521,note_on,0,0,0,,8,,,68,127
6521,note_on,0,0,0,,11,,,82,127
6584,note_off,63,0,0,,11,,,82,127
6585,note_on,1,0,0,,8,,,80,127
6648,note_off,63,0,0,,8,,,80,127
6649,note_on,1,0,0,,7,,,79,127
6776,note_off,127,0,0,,7,,,79,127
6776,note_off,0,0,0,,8,,,68,127
6776,note_off,0,0,0,,0,,,60,127
6776,note_off,0,0,0,,3,,,63,127
6777,note_on,1,0,0,,0,,,60,127
6777,note_on,0,0,0,,3,,,63,127
6777,note_on,0,0,0,,8,,,68,127
6777,note_on,0,0,0,,8,,,80,127
7032,note_off,255,0,0,,8,,,80,127
7032,note_off,0,0,0,,8,,,68,127
7032,note_off,0,0,0,,3,,,63,127
7032,note_off,0,0,0,,0,,,60,127
7033,note_on,1,0,0,,0,,,84,127
7117,note_off,84,0,0,,0,,,84,127
7118,note_on,1,0,0,,8,,,80,127
7202,note_off,84,0,0,,8,,,80,127
7203,note_on,1,0,0,,7,,,79,127
7287,note_off,84,0,0,,7,,,79,127
7288,note_on,1,0,0,,11,,,58,127
7288,note_on,0,0,0,,8,,,68,127
7288,note_on,0,0,0,,5,,,77,127
7543,note_off,255,0,0,,5,,,77,127
7543,note_off,0,0,0,,8,,,68,127
7544,note_on,1,0,0,,7,,,67,127
7544,note_on,0,0,0,,3,,,75,127
7799,note_off,255,0,0,,3,,,75,127
7799,note_off,0,0,0,,7,,,67,127
7799,note_off,0,0,0,,11,,,58,127
7800,note_on,1,0,0,,8,,,80,127
7884,note_off,84,0,0,,8,,,80,127
7885,note_on,1,0,0,,5,,,77,127
7969,note_off,84,0,0,,5,,,77,127
7970,note_on,1,0,0,,3,,,75,127
8054,note_off,84,0,0,,3,,,75,127
8055,note_on,1,0,0,,11,,,58,127
8055,note_on,0,0,0,,5,,,65,127
8055,note_on,0,0,0,,2,,,74,127
8310,note_off,255,0,0,,2,,,74,127
8310,note_off,0,0,0,,5,,,65,127
8311,note_on,1,0,0,,3,,,63,127
8311,note_on,0,0,0,,0,,,72,127
8566,note_off,255,0,0,,0,,,72,127
8566,note_off,0,0,0,,3,,,63,127
8566,note_off,0,0,0,,11,,,58,127
8567,note_on,1,0,0,,5,,,77,127
8651,note_off,84,0,0,,5,,,77,127
8652,note_on,1,0,0,,2,,,74,127
8736,note_off,84,0,0,,2,,,74,127
8737,note_on,1,0,0,,0,,,72,127
8821,note_off,84,0,0,,0,,,72,127
8822,note_on,1,0,0,,2,,,62,127
8822,note_on,0,0,0,,11,,,58,127
8822,note_on,0,0,0,,11,,,70,127
9077,note_off,255,0,0,,11,,,70,127
9077,note_off,0,0,0,,2,,,62,127
9078,note_on,1,0,0,,0,,,60,127
9078,note_on,0,0,0,,10,,,69,127
9333,note_off,255,0,0,,10,,,69,127
9333,note_off,0,0,0,,0,,,60,127
9333,note_off,0,0,0,,11,,,58,127
9334,note_on,1,0,0,,11,,,58,127
9334,note_on,0,0,0,,10,,,69,127
9590,note_on,256,0,0,,11,,,46,127
9845,note_off,255,0,0,,10,,,69,127
9846,note_on,1,0,0,,11,,,70,127
10101,note_off,255,0,0,,11,,,70,127
10101,note_off,0,0,0,,11,,,46,127
10101,note_off,0,0,0,,11,,,58,127
10102,note_on,1,0,0,,0,,,60,127
10102,note_on,0,0,0,,11,,,58,127
10102,note_on,0,0,0,,4,,,64,127
10102,note_on,0,0,0,,11,,,70,127
10186,note_off,84,0,0,,11,,,70,127
10187,note_on,1,0,0,,0,,,72,127
10271,note_off,84,0,0,,0,,,72,127
10272,note_on,1,0,0,,2,,,74,127
10356,note_off,84,0,0,,2,,,74,127
10356,note_off,0,0,0,,4,,,64,127
10356,note_off,0,0,0,,11,,,58,127
10356,note_off,0,0,0,,0,,,60,127
10357,note_on,1,0,0,,4,,,64,127
10357,note_on,0,0,0,,0,,,60,127
10357,note_on,0,0,0,,11,,,58,127
10357,note_on,0,0,0,,2,,,74,127
10612,note_off,255,0,0,,2,,,74,127
10612,note_off,0,0,0,,11,,,58,127
10612,note_off,0,0,0,,0,,,60,127
10612,note_off,0,0,0,,4,,,64,127
10613,note_on,1,0,0,,0,,,60,127
10613,note_on,0,0,0,,11,,,58,127
10613,note_on,0,0,0,,4,,,64,127
10613,note_on,0,0,0,,4,,,76,127
10868,note_off,255,0,0,,4,,,76,127
10868,note_off,0,0,0,,4,,,64,127
10868,note_off,0,0,0,,11,,,58,127
10868,note_off,0,0,0,,0,,,60,127
10869,note_on,1,0,0,,8,,,56,127
10869,note_on,0,0,0,,5,,,65,127
10869,note_on,0,0,0,,0,,,60,127
10869,note_on,0,0,0,,7,,,79,127
10932,note_off,63,0,0,,7,,,79,127
10933,note_on,1,0,0,,5,,,77,127
10996,note_off,63,0,0,,5,,,77,127
10997,note_on,1,0,0,,7,,,79,127
11060,note_off,63,0,0,,7,,,79,127
11061,note_on,1,0,0,,5,,,77,127
11124,note_off,63,0,0,,5,,,77,127
11124,note_off,0,0,0,,0,,,60,127
11124,note_off,0,0,0,,5,,,65,127
11124,note_off,0,0,0,,8,,,56,127
11125,note_on,1,0,0,,0,,,60,127
11125,note_on,0,0,0,,8,,,56,127
11125,note_on,0,0,0,,5,,,65,127
11125,note_on,0,0,0,,7,,,79,127
11188,note_off,63,0,0,,7,,,79,127
11189,note_on,1,0,0,,5,,,77,127
11252,note_off,63,0,0,,5,,,77,127
11253,note_on,1,0,0,,4,,,76,127
11380,note_off,127,0,0,,4,,,76,127
11380,note_off,0,0,0,,5,,,65,127
11380,note_off,0,0,0,,8,,,56,127
11380,note_off,0,0,0,,0,,,60,127
11381,note_on,1,0,0,,8,,,56,127
11381,note_on,0,0,0,,0,,,60,127
11381,note_on,0,0,0,,5,,,65,127
11381,note_on,0,0,0,,5,,,77,127
11636,note_off,255,0,0,,5,,,77,127
11636,note_off,0,0,0,,5,,,65,127
11636,note_off,0,0,0,,0,,,60,127
11636,note_off,0,0,0,,8,,,56,127
11637,note_on,1,0,0,,11,,,58,127
11637,note_on,0,0,0,,2,,,62,127
11637,note_on,0,0,0,,8,,,56,127
11637,note_on,0,0,0,,8,,,68,127
11721,note_off,84,0,0,,8,,,68,127
11722,note_on,1,0,0,,11,,,70,127
11806,note_off,84,0,0,,11,,,70,127
11807,note_on,1,0,0,,0,,,72,127
11891,note_off,84,0,0,,0,,,72,127
11891,note_off,0,0,0,,8,,,56,127
11891,note_off,0,0,0,,2,,,62,127
11891,note_off,0,0,0,,11,,,58,127
11892,note_on,1,0,0,,2,,,62,127
11892,note_on,0,0,0,,11,,,58,127
11892,note_on,0,0,0,,8,,,56,127
11892,note_on,0,0,0,,0,,,72,127
12147,note_off,255,0,0,,0,,,72,127
12147,note_off,0,0,0,,8,,,56,127
12147,note_off,0,0,0,,11,,,58,127
12147,note_off,0,0,0,,2,,,62,127
12148,note_on,1,0,0,,8,,,56,127
12148,note_on,0,0,0,,2,,,62,127
12148,note_on,0,0,0,,11,,,58,127
12148,note_on,0,0,0,,2,,,74,127
12403,note_off,255,0,0,,2,,,74,127
12403,note_off,0,0,0,,11,,,58,127
12403,note_off,0,0,0,,2,,,62,127
12403,note_off,0,0,0,,8,,,56,127
12404,note_on,1,0,0,,3,,,63,127
12404,note_on,0,0,0,,11,,,58,127
12404,note_on,0,0,0,,7,,,55,127
12404,note_on,0,0,0,,5,,,77,127
12467,note_off,63,0,0,,5,,,77,127
12468,note_on,1,0,0,,3,,,75,127
12531,note_off,63,0,0,,3,,,75,127
12532,note_on,1,0,0,,5,,,77,127
12595,note_off,63,0,0,,5,,,77,127
12596,note_on,1,0,0,,3,,,75,127
12659,note_off,63,0,0,,3,,,75,127
12659,note_off,0,0,0,,7,,,55,127
12659,note_off,0,0,0,,11,,,58,127
12659,note_off,0,0,0,,3,,,63,127
12660,note_on,1,0,0,,11,,,58,127
12660,note_on,0,0,0,,3,,,63,127
12660,note_on,0,0,0,,7,,,55,127
12660,note_on,0,0,0,,5,,,77,127
12723,note_off,63,0,0,,5,,,77,127
12724,note_on,1,0,0,,3,,,75,127
12787,note_off,63,0,0,,3,,,75,127
12788,note_on,1,0,0,,2,,,74,127
12915,note_off,127,0,0,,2,,,74,127
12915,note_off,0,0,0,,7,,,55,127
12915,note_off,0,0,0,,3,,,63,127
12915,note_off,0,0,0,,11,,,58,127
12916,note_on,1,0,0,,7,,,55,127
12916,note_on,0,0,0,,3,,,63,127
12916,note_on,0,0,0,,11,,,58,127
12916,note_on,0,0,0,,3,,,75,127
13171,note_off,255,0,0,,3,,,75,127
13171,note_off,0,0,0,,11,,,58,127
13171,note_off,0,0,0,,3,,,63,127
13171,note_off,0,0,0,,7,,,55,127
13172,note_on,1,0,0,,7,,,79,127
13256,note_off,84,0,0,,7,,,79,127
13257,note_on,1,0,0,,3,,,75,127
13341,note_off,84,0,0,,3,,,75,127
13342,note_on,1,0,0,,2,,,74,127
13426,note_off,84,0,0,,2,,,74,127
13427,note_on,1,0,0,,5,,,53,127
13427,note_on,0,0,0,,3,,,63,127
13427,note_on,0,0,0,,0,,,72,127
13682,note_off,255,0,0,,0,,,72,127
13682,note_off,0,0,0,,3,,,63,127
13683,note_on,1,0,0,,2,,,62,127
13683,note_on,0,0,0,,11,,,70,127
13938,note_off,255,0,0,,11,,,70,127
13938,note_off,0,0,0,,2,,,62,127
13938,note_off,0,0,0,,5,,,53,127
13939,note_on,1,0,0,,3,,,75,127
14023,note_off,84,0,0,,3,,,75,127
14024,note_on,1,0,0,,0,,,72,127
14108,note_off,84,0,0,,0,,,72,127
14109,note_on,1,0,0,,11,,,70,127
14193,note_off,84,0,0,,11,,,70,127
14194,note_on,1,0,0,,5,,,53,127
14194,note_on,0,0,0,,0,,,60,127
14194,note_on,0,0,0,,10,,,69,127
14449,note_off,255,0,0,,10,,,69,127
14449,note_off,0,0,0,,0,,,60,127
14450,note_on,1,0,0,,11,,,58,127
14450,note_on,0,0,0,,7,,,67,127
14705,note_off,255,0,0,,7,,,67,127
14705,note_off,0,0,0,,11,,,58,127
14705,note_off,0,0,0,,5,,,53,127
14706,note_on,1,0,0,,0,,,72,127
14790,note_off,84,0,0,,0,,,72,127
14791,note_on,1,0,0,,10,,,69,127
14875,note_off,84,0,0,,10,,,69,127
14876,note_on,1,0,0,,7,,,67,127
14960,note_off,84,0,0,,7,,,67,127
14961,note_on,1,0,0,,5,,,53,127
14961,note_on,0,0,0,,10,,,57,127
14961,note_on,0,0,0,,5,,,65,127
15216,note_off,255,0,0,,5,,,65,127
15216,note_off,0,0,0,,10,,,57,127
15217,note_on,1,0,0,,7,,,55,127
15217,note_on,0,0,0,,4,,,64,127
15472,note_off,255,0,0,,4,,,64,127
15472,note_off,0,0,0,,7,,,55,127
15472,note_off,0,0,0,,5,,,53,127
15473,note_on,1,0,0,,5,,,53,127
15473,note_on,0,0,0,,4,,,64,127
15729,note_on,256,0,0,,5,,,41,127
15984,note_off,255,0,0,,4,,,64,127
15985,note_on,1,0,0,,5,,,65,127
16240,note_off,255,0,0,,5,,,65,127
16240,note_off,0,0,0,,5,,,41,127
16240,note_off,0,0,0,,5,,,53,127
16241,note_on,1,0,0,,10,,,69,127
16241,note_on,0,0,0,,5,,,65,127
16326,note_on,85,0,0,,0,,,72,127
16410,note_off,84,0,0,,0,,,72,127
16411,note_on,1,0,0,,1,,,73,127
16495,note_off,84,0,0,,1,,,73,127
16495,note_off,0,0,0,,5,,,65,127
16495,note_off,0,0,0,,10,,,69,127
16496,note_on,1,0,0,,5,,,65,127
16496,note_on,0,0,0,,10,,,69,127
16496,note_on,0,0,0,,3,,,75,127
16580,note_off,84,0,0,,3,,,75,127
16581,note_on,1,0,0,,5,,,77,127
16665,note_off,84,0,0,,5,,,77,127
16666,note_on,1,0,0,,7,,,79,127
16750,note_off,84,0,0,,7,,,79,127
16750,note_off,0,0,0,,10,,,69,127
16750,note_off,0,0,0,,5,,,65,127
16751,note_on,1,0,0,,10,,,69,127
16751,note_on,0,0,0,,5,,,65,127
16751,note_on,0,0,0,,10,,,81,127
16835,note_off,84,0,0,,10,,,81,127
16836,note_on,1,0,0,,11,,,82,127
16920,note_off,84,0,0,,11,,,82,127
16921,note_on,1,0,0,,0,,,84,127
17005,note_off,84,0,0,,0,,,84,127
17005,note_off,0,0,0,,5,,,65,127
17005,note_off,0,0,0,,10,,,69,127
17006,note_on,1,0,0,,6,,,66,127
17006,note_on,0,0,0,,11,,,70,127
17006,note_on,0,0,0,,5,,,65,127
17006,note_on,0,0,0,,11,,,82,127
17090,note_off,84,0,0,,11,,,82,127
17091,note_on,1,0,0,,8,,,80,127
17175,note_off,84,0,0,,8,,,80,127
17176,note_on,1,0,0,,6,,,78,127
17260,note_off,84,0,0,,6,,,78,127
17260,note_off,0,0,0,,5,,,65,127
17260,note_off,0,0,0,,11,,,70,127
17260,note_off,0,0,0,,6,,,66,127
17261,note_on,1,0,0,,11,,,70,127
17261,note_on,0,0,0,,6,,,66,127
17261,note_on,0,0,0,,5,,,65,127
17261,note_on,0,0,0,,5,,,77,127
17345,note_off,84,0,0,,5,,,77,127
17346,note_on,1,0,0,,3,,,75,127
17430,note_off,84,0,0,,3,,,75,127
17431,note_on,1,0,0,,1,,,73,127
17515,note_off,84,0,0,,1,,,73,127
17515,note_off,0,0,0,,5,,,65,127
17515,note_off,0,0,0,,6,,,66,127
17515,note_off,0,0,0,,11,,,70,127
17516,note_on,1,0,0,,6,,,66,127
17516,note_on,0,0,0,,5,,,65,127
17516,note_on,0,0,0,,11,,,70,127
17516,note_on,0,0,0,,0,,,72,127
17600,note_off,84,0,0,,0,,,72,127
17601,note_on,1,0,0,,11,,,82,127
17686,note_on,85,0,0,,4,,,76,127
17770,note_off,84,0,0,,4,,,76,127
17770,note_off,0,0,0,,11,,,70,127
17770,note_off,0,0,0,,5,,,65,127
17770,note_off,0,0,0,,6,,,66,127
17771,note_on,1,0,0,,5,,,65,127
17771,note_on,0,0,0,,4,,,76,127
18027,note_on,256,0,0,,5,,,53,127
18282,note_off,255,0,0,,5,,,53,127
18282,note_off,0,0,0,,4,,,76,127
18282,note_off,0,0,0,,11,,,82,127
18283,note_on,1,0,0,,5,,,53,127
18283,note_on,0,0,0,,10,,,81,127
18283,note_on,0,0,0,,5,,,77,127
18538,note_off,255,0,0,,5,,,77,127
18538,note_off,0,0,0,,10,,,81,127
18538,note_off,0,0,0,,5,,,53,127
18538,note_off,0,0,0,,5,,,65,127
18539,note_on,1,0,0,,10,,,69,127
18539,note_on,0,0,0,,5,,,65,127
18624,note_on,85,0,0,,0,,,72,127
18708,note_off,84,0,0,,0,,,72,127
18709,note_on,1,0,0,,1,,,73,127
18793,note_off,84,0,0,,1,,,73,127
18793,note_off,0,0,0,,5,,,65,127
18793,note_off,0,0,0,,10,,,69,127
18794,note_on,1,0,0,,10,,,69,127
18794,note_on,0,0,0,,5,,,65,127
18794,note_on,0,0,0,,3,,,75,127
18878,note_off,84,0,0,,3,,,75,127
18879,note_on,1,0,0,,5,,,77,127
18963,note_off,84,0,0,,5,,,77,127
18964,note_on,1,0,0,,7,,,79,127
19048,note_off,84,0,0,,7,,,79,127
19048,note_off,0,0,0,,5,,,65,127
19048,note_off,0,0,0,,10,,,69,127
19049,note_on,1,0,0,,5,,,65,127
19049,note_on,0,0,0,,10,,,69,127
19049,note_on,0,0,0,,10,,,81,127
19133,note_off,84,0,0,,10,,,81,127
19134,note_on,1,0,0,,11,,,82,127
19218,note_off,84,0,0,,11,,,82,127
19219,note_on,1,0,0,,0,,,84,127
19303,note_off,84,0,0,,0,,,84,127
19303,note_off,0,0,0,,10,,,69,127
19303,note_off,0,0,0,,5,,,65,127
19304,note_on,1,0,0,,6,,,66,127
19304,note_on,0,0,0,,5,,,65,127
19304,note_on,0,0,0,,11,,,70,127
19304,note_on,0,0,0,,11,,,82,127
19388,note_off,84,0,0,,11,,,82,127
19389,note_on,1,0,0,,8,,,80,127
19473,note_off,84,0,0,,8,,,80,127
19474,note_on,1,0,0,,6,,,78,127
19558,note_off,84,0,0,,6,,,78,127
19558,note_off,0,0,0,,11,,,70,127
19558,note_off,0,0,0,,5,,,65,127
19558,note_off,0,0,0,,6,,,66,127
19559,note_on,1,0,0,,6,,,66,127
19559,note_on,0,0,0,,5,,,65,127
19559,note_on,0,0,0,,11,,,70,127
19559,note_on,0,0,0,,5,,,77,127
19643,note_off,84,0,0,,5,,,77,127
19644,note_on,1,0,0,,3,,,75,127
19728,note_off,84,0,0,,3,,,75,127
19729,note_on,1,0,0,,1,,,73,127
19813,note_off,84,0,0,,1,,,73,127
19813,note_off,0,0,0,,11,,,70,127
19813,note_off,0,0,0,,5,,,65,127
19813,note_off,0,0,0,,6,,,66,127
19814,note_on,1,0,0,,6,,,66,127
19814,note_on,0,0,0,,5,,,65,127
19814,note_on,0,0,0,,11,,,70,127
19814,note_on,0,0,0,,0,,,72,127
19898,note_off,84,0,0,,0,,,72,127
19899,note_on,1,0,0,,11,,,82,127
19984,note_on,85,0,0,,4,,,76,127
20068,note_off,84,0,0,,4,,,76,127
20068,note_off,0,0,0,,11,,,70,127
20068,note_off,0,0,0,,5,,,65,127
20068,note_off,0,0,0,,6,,,66,127
20069,note_on,1,0,0,,5,,,65,127
20069,note_on,0,0,0,,4,,,76,127
20325,note_on,256,0,0,,5,,,53,127
20580,note_off,255,0,0,,5,,,53,127
20580,note_off,0,0,0,,4,,,76,127
20580,note_off,0,0,0,,11,,,82,127
20581,note_on,1,0,0,,5,,,53,127
20581,note_on,0,0,0,,10,,,81,127
20581,note_on,0,0,0,,5,,,77,127
20836,note_off,255,0,0,,5,,,77,127
20836,note_off,0,0,0,,10,,,81,127
20836,note_off,0,0,0,,5,,,53,127
20836,note_off,0,0,0,,5,,,65,127
20837,note_on,1,0,0,,10,,,69,127
20837,note_on,0,0,0,,5,,,65,127
20922,note_on,85,0,0,,0,,,72,127
21006,note_off,84,0,0,,0,,,72,127
21007,note_on,1,0,0,,1,,,73,127
21091,note_off,84,0,0,,1,,,73,127
21091,note_off,0,0,0,,5,,,65,127
21091,note_off,0,0,0,,10,,,69,127
21092,note_on,1,0,0,,5,,,65,127
21092,note_on,0,0,0,,10,,,69,127
21092,note_on,0,0,0,,3,,,75,127
21176,note_off,84,0,0,,3,,,75,127
21177,note_on,1,0,0,,5,,,77,127
21261,note_off,84,0,0,,5,,,77,127
21262,note_on,1,0,0,,7,,,79,127
21346,note_off,84,0,0,,7,,,79,127
21346,note_off,0,0,0,,10,,,69,127
21346,note_off,0,0,0,,5,,,65,127
21347,note_on,1,0,0,,5,,,65,127
21347,note_on,0,0,0,,10,,,69,127
21347,note_on,0,0,0,,10,,,81,127
21431,note_off,84,0,0,,10,,,81,127
21432,note_on,1,0,0,,11,,,82,127
21516,note_off,84,0,0,,11,,,82,127
21517,note_on,1,0,0,,0,,,84,127
21601,note_off,84,0,0,,0,,,84,127
21601,note_off,0,0,0,,10,,,69,127
21601,note_off,0,0,0,,5,,,65,127
21602,note_on,1,0,0,,11,,,70,127
21602,note_on,0,0,0,,6,,,66,127
21602,note_on,0,0,0,,5,,,65,127
21602,note_on,0,0,0,,1,,,85,127
21686,note_off,84,0,0,,1,,,85,127
21687,note_on,1,0,0,,0,,,84,127
21771,note_off,84,0,0,,0,,,84,127
21772,note_on,1,0,0,,11,,,82,127
21856,note_off,84,0,0,,11,,,82,127
21856,note_off,0,0,0,,5,,,65,127
21856,note_off,0,0,0,,6,,,66,127
21856,note_off,0,0,0,,11,,,70,127
21857,note_on,1,0,0,,11,,,70,127
21857,note_on,0,0,0,,6,,,66,127
21857,note_on,0,0,0,,5,,,65,127
21857,note_on,0,0,0,,0,,,84,127
21920,note_off,63,0,0,,0,,,84,127
21921,note_on,1,0,0,,11,,,82,127
21984,note_off,63,0,0,,11,,,82,127
21985,note_on,1,0,0,,0,,,84,127
22048,note_off,63,0,0,,0,,,84,127
22049,note_on,1,0,0,,11,,,82,127
22112,note_off,63,0,0,,11,,,82,127
22112,note_off,0,0,0,,5,,,65,127
22112,note_off,0,0,0,,6,,,66,127
22112,note_off,0,0,0,,11,,,70,127
22113,note_on,1,0,0,,6,,,66,127
22113,note_on,0,0,0,,11,,,70,127
22113,note_on,0,0,0,,5,,,65,127
22113,note_on,0,0,0,,0,,,84,127
22176,note_off,63,0,0,,0,,,84,127
22177,note_on,1,0,0,,11,,,82,127
22240,note_off,63,0,0,,11,,,82,127
22241,note_on,1,0,0,,10,,,81,127
22304,note_off,63,0,0,,10,,,81,127
22305,note_on,1,0,0,,11,,,82,127
22368,note_off,63,0,0,,11,,,82,127
22368,note_off,0,0,0,,5,,,65,127
22368,note_off,0,0,0,,11,,,70,127
22368,note_off,0,0,0,,6,,,66,127
22369,note_on,1,0,0,,5,,,65,127
22369,note_on,0,0,0,,11,,,82,127
22369,note_on,0,0,0,,6,,,78,127
22625,note_on,256,0,0,,5,,,53,127
22880,note_off,255,0,0,,5,,,53,127
22880,note_off,0,0,0,,6,,,78,127
22880,note_off,0,0,0,,11,,,82,127
22881,note_on,1,0,0,,5,,,53,127
22881,note_on,0,0,0,,5,,,77,127
22881,note_on,0,0,0,,10,,,81,127
23136,note_off,255,0,0,,10,,,81,127
23136,note_off,0,0,0,,5,,,77,127
23136,note_off,0,0,0,,5,,,53,127
23136,note_off,0,0,0,,5,,,65,127
23137,note_on,1,0,0,,10,,,69,127
23137,note_on,0,0,0,,5,,,65,127
23222,note_on,85,0,0,,0,,,72,127
23306,note_off,84,0,0,,0,,,72,127
23307,note_on,1,0,0,,1,,,73,127
23391,note_off,84,0,0,,1,,,73,127
23391,note_off,0,0,0,,5,,,65,127
23391,note_off,0,0,0,,10,,,69,127
23392,note_on,1,0,0,,10,,,69,127
23392,note_on,0,0,0,,5,,,65,127
23392,note_on,0,0,0,,3,,,75,127
23476,note_off,84,0,0,,3,,,75,127
23477,note_on,1,0,0,,5,,,77,127
23561,note_off,84,0,0,,5,,,77,127
23562,note_on,1,0,0,,7,,,79,127
23646,note_off,84,0,0,,7,,,79,127
23646,note_off,0,0,0,,5,,,65,127
23646,note_off,0,0,0,,10,,,69,127
23647,note_on,1,0,0,,10,,,69,127
23647,note_on,0,0,0,,5,,,65,127
23647,note_on,0,0,0,,10,,,81,127
23731,note_off,84,0,0,,10,,,81,127
23732,note_on,1,0,0,,11,,,82,127
23816,note_off,84,0,0,,11,,,82,127
23817,note_on,1,0,0,,0,,,84,127
23901,note_off,84,0,0,,0,,,84,127
23901,note_off,0,0,0,,5,,,65,127
23901,note_off,0,0,0,,10,,,69,127
23902,note_on,1,0,0,,11,,,70,127
23902,note_on,0,0,0,,6,,,66,127
23902,note_on,0,0,0,,5,,,65,127
23902,note_on,0,0,0,,1,,,85,127
23986,note_off,84,0,0,,1,,,85,127
23987,note_on,1,0,0,,0,,,84,127
24071,note_off,84,0,0,,0,,,84,127
24072,note_on,1,0,0,,11,,,82,127
24156,note_off,84,0,0,,11,,,82,127
24156,note_off,0,0,0,,5,,,65,127
24156,note_off,0,0,0,,6,,,66,127
24156,note_off,0,0,0,,11,,,70,127
24157,note_on,1,0,0,,5,,,65,127
24157,note_on,0,0,0,,6,,,66,127
24157,note_on,0,0,0,,11,,,70,127
24157,note_on,0,0,0,,0,,,84,127
24220,note_off,63,0,0,,0,,,84,127
24221,note_on,1,0,0,,11,,,82,127
24284,note_off,63,0,0,,11,,,82,127
24285,note_on,1,0,0,,0,,,84,127
24348,note_off,63,0,0,,0,,,84,127
24349,note_on,1,0,0,,11,,,82,127
24412,note_off,63,0,0,,11,,,82,127
24412,note_off,0,0,0,,11,,,70,127
24412,note_off,0,0,0,,6,,,66,127
24412,note_off,0,0,0,,5,,,65,127
24413,note_on,1,0,0,,11,,,70,127
24413,note_on,0,0,0,,6,,,66,127
24413,note_on,0,0,0,,5,,,65,127
24413,note_on,0,0,0,,0,,,84,127
24476,note_off,63,0,0,,0,,,84,127
24477,note_on,1,0,0,,11,,,82,127
24540,note_off,63,0,0,,11,,,82,127
24541,note_on,1,0,0,,10,,,81,127
24604,note_off,63,0,0,,10,,,81,127
24605,note_on,1,0,0,,11,,,82,127
24668,note_off,63,0,0,,11,,,82,127
24668,note_off,0,0,0,,5,,,65,127
24668,note_off,0,0,0,,6,,,66,127
24668,note_off,0,0,0,,11,,,70,127
24669,note_on,1,0,0,,5,,,65,127
24669,note_on,0,0,0,,6,,,78,127
24669,note_on,0,0,0,,11,,,82,127
24925,note_on,256,0,0,,5,,,53,127
25176,note_off,251,0,0,,5,,,65,127
25180,note_off,4,0,0,,5,,,53,127
25180,note_off,0,0,0,,11,,,82,127
25180,note_off,0,0,0,,6,,,78,127
25181,note_on,1,0,0,,5,,,53,127
25181,note_on,0,0,0,,5,,,77,127
25181,note_on,0,0,0,,10,,,81,127
25436,note_off,255,0,0,,10,,,81,127
25436,note_off,0,0,0,,5,,,77,127
25436,note_off,0,0,0,,5,,,53,127
25437,note_on,1,0,0,,8,,,56,127
25437,note_on,0,0,0,,11,,,46,127
25522,note_on,85,0,0,,5,,,77,127
25606,note_off,84,0,0,,5,,,77,127
25607,note_on,1,0,0,,3,,,75,127
25691,note_off,84,0,0,,3,,,75,127
25691,note_off,0,0,0,,11,,,46,127
25691,note_off,0,0,0,,8,,,56,127
25692,note_on,1,0,0,,11,,,46,127
25692,note_on,0,0,0,,8,,,56,127
25692,note_on,0,0,0,,2,,,74,127
25776,note_off,84,0,0,,2,,,74,127
25777,note_on,1,0,0,,0,,,72,127
25861,note_off,84,0,0,,0,,,72,127
25862,note_on,1,0,0,,11,,,70,127
25946,note_off,84,0,0,,11,,,70,127
25946,note_off,0,0,0,,8,,,56,127
25946,note_off,0,0,0,,11,,,46,127
25947,note_on,1,0,0,,11,,,46,127
25947,note_on,0,0,0,,8,,,56,127
25947,note_on,0,0,0,,8,,,68,127
26031,note_off,84,0,0,,8,,,68,127
26032,note_on,1,0,0,,7,,,67,127
26116,note_off,84,0,0,,7,,,67,127
26117,note_on,1,0,0,,8,,,68,127
26201,note_off,84,0,0,,8,,,68,127
26201,note_off,0,0,0,,8,,,56,127
26201,note_off,0,0,0,,11,,,46,127
26202,note_on,1,0,0,,3,,,51,127
26202,note_on,0,0,0,,11,,,70,127
26265,note_off,63,0,0,,11,,,70,127
26266,note_on,1,0,0,,8,,,68,127
26329,note_off,63,0,0,,8,,,68,127
26330,note_on,1,0,0,,11,,,70,127
26393,note_off,63,0,0,,11,,,70,127
26394,note_on,1,0,0,,8,,,68,127
26457,note_off,63,0,0,,8,,,68,127
26458,note_on,1,0,0,,3,,,39,127
26458,note_on,0,0,0,,11,,,70,127
26521,note_off,63,0,0,,11,,,70,127
26522,note_on,1,0,0,,8,,,68,127
26585,note_off,63,0,0,,8,,,68,127
26586,note_on,1,0,0,,7,,,67,127
26649,note_off,63,0,0,,7,,,67,127
26650,note_on,1,0,0,,8,,,68,127
26709,note_off,59,0,0,,3,,,51,127
26713,note_off,4,0,0,,8,,,68,127
26713,note_off,0,0,0,,3,,,39,127
26714,note_on,1,0,0,,3,,,39,127
26714,note_on,0,0,0,,7,,,67,127
26969,note_off,255,0,0,,3,,,39,127
26970,note_on,1,0,0,,0,,,48,127
26970,note_on,0,0,0,,11,,,58,127
27054,note_off,84,0,0,,7,,,67,127
27055,note_on,1,0,0,,7,,,79,127
27139,note_off,84,0,0,,7,,,79,127
27140,note_on,1,0,0,,5,,,77,127
27224,note_off,84,0,0,,5,,,77,127
27224,note_off,0,0,0,,11,,,58,127
27224,note_off,0,0,0,,0,,,48,127
27225,note_on,1,0,0,,0,,,48,127
27225,note_on,0,0,0,,11,,,58,127
27225,note_on,0,0,0,,4,,,76,127
27309,note_off,84,0,0,,4,,,76,127
27310,note_on,1,0,0,,2,,,74,127
27394,note_off,84,0,0,,2,,,74,127
27395,note_on,1,0,0,,0,,,72,127
27479,note_off,84,0,0,,0,,,72,127
27479,note_off,0,0,0,,11,,,58,127
27479,note_off,0,0,0,,0,,,48,127
27480,note_on,1,0,0,,0,,,48,127
27480,note_on,0,0,0,,11,,,58,127
27480,note_on,0,0,0,,11,,,70,127
27564,note_off,84,0,0,,11,,,70,127
27565,note_on,1,0,0,,10,,,69,127
27649,note_off,84,0,0,,10,,,69,127
27650,note_on,1,0,0,,11,,,70,127
27734,note_off,84,0,0,,11,,,70,127
27734,note_off,0,0,0,,11,,,58,127
27734,note_off,0,0,0,,0,,,48,127
27735,note_on,1,0,0,,5,,,53,127
27735,note_on,0,0,0,,10,,,69,127
27819,note_off,84,0,0,,10,,,69,127
27820,note_on,1,0,0,,5,,,65,127
27904,note_off,84,0,0,,5,,,65,127
27905,note_on,1,0,0,,10,,,69,127
27989,note_off,84,0,0,,10,,,69,127
27989,note_off,0,0,0,,5,,,53,127
27990,note_on,1,0,0,,10,,,57,127
27990,note_on,0,0,0,,0,,,72,127
28074,note_off,84,0,0,,0,,,72,127
28075,note_on,1,0,0,,10,,,69,127
28159,note_off,84,0,0,,10,,,69,127
28160,note_on,1,0,0,,0,,,72,127
28244,note_off,84,0,0,,0,,,72,127
28244,note_off,0,0,0,,10,,,57,127
28245,note_on,1,0,0,,0,,,60,127
28245,note_on,0,0,0,,3,,,75,127
28329,note_off,84,0,0,,3,,,75,127
28330,note_on,1,0,0,,0,,,72,127
28414,note_off,84,0,0,,0,,,72,127
28415,note_on,1,0,0,,3,,,75,127
28499,note_off,84,0,0,,3,,,75,127
28499,note_off,0,0,0,,0,,,60,127
28500,note_on,1,0,0,,5,,,53,127
28500,note_on,0,0,0,,5,,,65,127
28500,note_on,0,0,0,,0,,,84,127
28755,note_off,255,0,0,,5,,,53,127
28756,note_on,1,0,0,,7,,,55,127
28840,note_off,84,0,0,,0,,,84,127
28841,note_on,1,0,0,,11,,,82,127
28925,note_off,84,0,0,,11,,,82,127
28926,note_on,1,0,0,,10,,,81,127
29010,note_off,84,0,0,,10,,,81,127
29010,note_off,0,0,0,,7,,,55,127
29011,note_on,1,0,0,,10,,,57,127
29011,note_on,0,0,0,,7,,,79,127
29095,note_off,84,0,0,,7,,,79,127
29096,note_on,1,0,0,,5,,,77,127
29180,note_off,84,0,0,,5,,,77,127
29181,note_on,1,0,0,,3,,,75,127
29265,note_off,84,0,0,,3,,,75,127
29265,note_off,0,0,0,,10,,,57,127
29265,note_off,0,0,0,,5,,,65,127
29266,note_on,1,0,0,,11,,,58,127
29266,note_on,0,0,0,,11,,,70,127
29350,note_off,84,0,0,,11,,,70,127
29351,note_on,1,0,0,,5,,,65,127
29435,note_off,84,0,0,,5,,,65,127
29436,note_on,1,0,0,,11,,,70,127
29520,note_off,84,0,0,,11,,,70,127
29520,note_off,0,0,0,,11,,,58,127
29521,note_on,1,0,0,,5,,,65,127
29521,note_on,0,0,0,,2,,,74,127
29605,note_off,84,0,0,,2,,,74,127
29606,note_on,1,0,0,,11,,,70,127
29690,note_off,84,0,0,,11,,,70,127
29691,note_on,1,0,0,,2,,,74,127
29775,note_off,84,0,0,,2,,,74,127
29775,note_off,0,0,0,,5,,,65,127
29776,note_on,1,0,0,,2,,,62,127
29776,note_on,0,0,0,,5,,,77,127
29860,note_off,84,0,0,,5,,,77,127
29861,note_on,1,0,0,,2,,,74,127
29945,note_off,84,0,0,,2,,,74,127
29946,note_on,1,0,0,,5,,,77,127
30030,note_off,84,0,0,,5,,,77,127
30030,note_off,0,0,0,,2,,,62,127
30031,note_on,1,0,0,,11,,,58,127
30031,note_on,0,0,0,,2,,,86,127
30286,note_off,255,0,0,,11,,,58,127
30287,note_on,1,0,0,,2,,,62,127
30371,note_off,84,0,0,,2,,,86,127
30372,note_on,1,0,0,,0,,,84,127
30456,note_off,84,0,0,,0,,,84,127
30457,note_on,1,0,0,,11,,,82,127
30541,note_off,84,0,0,,11,,,82,127
30541,note_off,0,0,0,,2,,,62,127
30542,note_on,1,0,0,,11,,,58,127
30542,note_on,0,0,0,,10,,,81,127
30626,note_off,84,0,0,,10,,,81,127
30627,note_on,1,0,0,,7,,,79,127
30711,note_off,84,0,0,,7,,,79,127
30712,note_on,1,0,0,,5,,,77,127
30796,note_off,84,0,0,,5,,,77,127
30796,note_off,0,0,0,,11,,,58,127
30797,note_on,1,0,0,,5,,,53,127
30797,note_on,0,0,0,,10,,,69,127
30881,note_off,84,0,0,,10,,,69,127
30882,note_on,1,0,0,,5,,,65,127
30966,note_off,84,0,0,,5,,,65,127
30967,note_on,1,0,0,,10,,,69,127
31051,note_off,84,0,0,,10,,,69,127
31051,note_off,0,0,0,,5,,,53,127
31052,note_on,1,0,0,,10,,,57,127
31052,note_on,0,0,0,,0,,,72,127
31136,note_off,84,0,0,,0,,,72,127
31137,note_on,1,0,0,,10,,,69,127
31221,note_off,84,0,0,,10,,,69,127
31222,note_on,1,0,0,,0,,,72,127
31306,note_off,84,0,0,,0,,,72,127
31306,note_off,0,0,0,,10,,,57,127
31307,note_on,1,0,0,,0,,,60,127
31307,note_on,0,0,0,,3,,,75,127
31391,note_off,84,0,0,,3,,,75,127
31392,note_on,1,0,0,,0,,,72,127
31476,note_off,84,0,0,,0,,,72,127
31477,note_on,1,0,0,,3,,,75,127
31561,note_off,84,0,0,,3,,,75,127
31561,note_off,0,0,0,,0,,,60,127
31562,note_on,1,0,0,,5,,,53,127
31562,note_on,0,0,0,,5,,,65,127
31562,note_on,0,0,0,,0,,,84,127
31817,note_off,255,0,0,,5,,,53,127
31818,note_on,1,0,0,,7,,,55,127
31902,note_off,84,0,0,,0,,,84,127
31903,note_on,1,0,0,,11,,,82,127
31987,note_off,84,0,0,,11,,,82,127
31988,note_on,1,0,0,,10,,,81,127
32072,note_off,84,0,0,,10,,,81,127
32072,note_off,0,0,0,,7,,,55,127
32073,note_on,1,0,0,,10,,,57,127
32073,note_on,0,0,0,,7,,,79,127
32157,note_off,84,0,0,,7,,,79,127
32158,note_on,1,0,0,,5,,,77,127
32242,note_off,84,0,0,,5,,,77,127
32243,note_on,1,0,0,,3,,,75,127
32327,note_off,84,0,0,,3,,,75,127
32327,note_off,0,0,0,,10,,,57,127
32327,note_off,0,0,0,,5,,,65,127
32328,note_on,1,0,0,,11,,,58,127
32328,note_on,0,0,0,,2,,,74,127
32412,note_off,84,0,0,,2,,,74,127
32413,note_on,1,0,0,,0,,,72,127
32497,note_off,84,0,0,,0,,,72,127
32498,note_on,1,0,0,,2,,,74,127
32582,note_off,84,0,0,,2,,,74,127
32582,note_off,0,0,0,,11,,,58,127
32583,note_on,1,0,0,,0,,,60,127
32583,note_on,0,0,0,,3,,,75,127
32667,note_off,84,0,0,,3,,,75,127
32668,note_on,1,0,0,,2,,,74,127
32752,note_off,84,0,0,,2,,,74,127
32753,note_on,1,0,0,,3,,,75,127
32837,note_off,84,0,0,,3,,,75,127
32837,note_off,0,0,0,,0,,,60,127
32838,note_on,1,0,0,,2,,,62,127
32838,note_on,0,0,0,,5,,,77,127
32922,note_off,84,0,0,,5,,,77,127
32923,note_on,1,0,0,,3,,,75,127
33007,note_off,84,0,0,,3,,,75,127
33008,note_on,1,0,0,,5,,,77,127
33092,note_off,84,0,0,,5,,,77,127
33092,note_off,0,0,0,,2,,,62,127
33093,note_on,1,0,0,,3,,,63,127
33093,note_on,0,0,0,,7,,,79,127
33177,note_off,84,0,0,,7,,,79,127
33178,note_on,1,0,0,,5,,,77,127
33262,note_off,84,0,0,,5,,,77,127
33263,note_on,1,0,0,,3,,,75,127
33347,note_off,84,0,0,,3,,,75,127
33347,note_off,0,0,0,,3,,,63,127
33348,note_on,1,0,0,,5,,,65,127
33348,note_on,0,0,0,,2,,,74,127
33575,note_off,227,0,0,,2,,,74,127
33604,note_on,29,0,0,,5,,,53,127
33604,note_on,0,0,0,,0,,,72,127
33796,note_off,192,0,0,,0,,,72,127
33859,note_off,63,0,0,,5,,,53,127
33859,note_off,0,0,0,,5,,,65,127
33860,note_on,1,0,0,,0,,,84,127
33944,note_off,84,0,0,,0,,,84,127
33945,note_on,1,0,0,,2,,,86,127
34029,note_off,84,0,0,,2,,,86,127
34030,note_on,1,0,0,,0,,,84,127
34114,note_off,84,0,0,,0,,,84,127
34115,note_on,1,0,0,,11,,,82,127
34199,note_off,84,0,0,,11,,,82,127
34200,note_on,1,0,0,,10,,,81,127
34284,note_off,84,0,0,,10,,,81,127
34285,note_on,1,0,0,,7,,,79,127
34369,note_off,84,0,0,,7,,,79,127
34370,note_on,1,0,0,,2,,,50,127
34370,note_on,0,0,0,,11,,,58,127
34370,note_on,0,0,0,,5,,,77,127
34454,note_off,84,0,0,,5,,,77,127
34455,note_on,1,0,0,,3,,,75,127
34539,note_off,84,0,0,,3,,,75,127
34540,note_on,1,0,0,,2,,,74,127
34624,note_off,84,0,0,,2,,,74,127
34624,note_off,0,0,0,,2,,,50,127
34625,note_on,1,0,0,,3,,,51,127
34625,note_on,0,0,0,,7,,,79,127
34709,note_off,84,0,0,,7,,,79,127
34710,note_on,1,0,0,,5,,,77,127
34794,note_off,84,0,0,,5,,,77,127
34795,note_on,1,0,0,,3,,,75,127
34879,note_off,84,0,0,,3,,,75,127
34879,note_off,0,0,0,,3,,,51,127
34880,note_on,1,0,0,,5,,,53,127
34880,note_on,0,0,0,,2,,,74,127
35120,note_off,240,0,0,,2,,,74,127
35135,note_off,15,0,0,,11,,,58,127
35136,note_on,1,0,0,,10,,,57,127
35136,note_on,0,0,0,,0,,,72,127
35363,note_off,227,0,0,,0,,,72,127
35391,note_off,28,0,0,,10,,,57,127
35391,note_off,0,0,0,,5,,,53,127
35392,note_on,1,0,0,,0,,,72,127
35476,note_off,84,0,0,,0,,,72,127
35477,note_on,1,0,0,,2,,,74,127
35561,note_off,84,0,0,,2,,,74,127
35562,note_on,1,0,0,,0,,,72,127
35646,note_off,84,0,0,,0,,,72,127
35647,note_on,1,0,0,,11,,,46,127
35647,note_on,0,0,0,,11,,,70,127
35731,note_off,84,0,0,,11,,,70,127
35732,note_on,1,0,0,,10,,,69,127
35816,note_off,84,0,0,,10,,,69,127
35817,note_on,1,0,0,,7,,,67,127
35901,note_off,84,0,0,,7,,,67,127
35901,note_off,0,0,0,,11,,,46,127
35902,note_on,1,0,0,,2,,,50,127
35902,note_on,0,0,0,,5,,,65,127
35986,note_off,84,0,0,,5,,,65,127
35987,note_on,1,0,0,,3,,,63,127
36071,note_off,84,0,0,,3,,,63,127
36072,note_on,1,0,0,,2,,,62,127
36156,note_off,84,0,0,,2,,,62,127
36156,note_off,0,0,0,,2,,,50,127
36157,note_on,1,0,0,,3,,,51,127
36157,note_on,0,0,0,,7,,,67,127
36241,note_off,84,0,0,,7,,,67,127
36242,note_on,1,0,0,,5,,,65,127
36326,note_off,84,0,0,,5,,,65,127
36327,note_on,1,0,0,,3,,,63,127
36411,note_off,84,0,0,,3,,,63,127
36411,note_off,0,0,0,,3,,,51,127
36412,note_on,1,0,0,,5,,,53,127
36412,note_on,0,0,0,,2,,,62,127
36652,note_off,240,0,0,,2,,,62,127
36668,note_on,16,0,0,,5,,,41,127
36668,note_on,0,0,0,,0,,,60,127
36908,note_off,240,0,0,,0,,,60,127
36923,note_off,15,0,0,,5,,,41,127
36923,note_off,0,0,0,,5,,,53,127
36924,note_on,1,0,0,,11,,,46,127
36924,note_on,0,0,0,,0,,,60,127
36967,note_on,43,0,0,,11,,,58,127
36987,note_off,20,0,0,,0,,,60,127
37010,note_on,23,0,0,,0,,,60,127
37030,note_off,20,0,0,,11,,,58,127
37053,note_on,23,0,0,,11,,,58,127
37073,note_off,20,0,0,,0,,,60,127
37686,note_off,613,0,0,,11,,,58,127
37691,note_off,5,0,0,,11,,,46,127
37692,note_on,1,0,0,,11,,,70,127
37692,note_on,0,0,0,,2,,,74,127
37820,note_on,128,0,0,,5,,,77,127
37947,note_off,127,0,0,,5,,,77,127
37947,note_off,0,0,0,,2,,,74,127
37947,note_off,0,0,0,,11,,,70,127
37948,note_on,1,0,0,,2,,,74,127
37948,note_on,0,0,0,,11,,,70,127
37948,note_on,0,0,0,,4,,,76,127
38203,note_off,255,0,0,,11,,,70,127
38203,note_off,0,0,0,,2,,,74,127
38204,note_on,1,0,0,,2,,,74,127
38204,note_on,0,0,0,,11,,,70,127
38459,note_off,255,0,0,,11,,,70,127
38459,note_off,0,0,0,,2,,,74,127
38460,note_on,1,0,0,,0,,,72,127
38460,note_on,0,0,0,,10,,,69,127
38715,note_off,255,0,0,,10,,,69,127
38715,note_off,0,0,0,,0,,,72,127
38716,note_on,1,0,0,,0,,,72,127
38716,note_on,0,0,0,,10,,,69,127
38843,note_off,127,0,0,,4,,,76,127
38844,note_on,1,0,0,,5,,,77,127
38971,note_off,127,0,0,,10,,,69,127
38971,note_off,0,0,0,,0,,,72,127
38972,note_on,1,0,0,,10,,,69,127
38972,note_on,0,0,0,,0,,,72,127
39099,note_off,127,0,0,,5,,,77,127
39227,note_off,128,0,0,,0,,,72,127
39227,note_off,0,0,0,,10,,,69,127
39228,note_on,1,0,0,,2,,,74,127
39228,note_on,0,0,0,,11,,,70,127
39356,note_on,128,0,0,,5,,,77,127
39483,note_off,127,0,0,,5,,,77,127
39483,note_off,0,0,0,,11,,,70,127
39483,note_off,0,0,0,,2,,,74,127
39484,note_on,1,0,0,,11,,,70,127
39484,note_on,0,0,0,,2,,,74,127
39484,note_on,0,0,0,,4,,,76,127
39739,note_off,255,0,0,,2,,,74,127
39739,note_off,0,0,0,,11,,,70,127
39740,note_on,1,0,0,,2,,,74,127
39740,note_on,0,0,0,,11,,,70,127
39995,note_off,255,0,0,,11,,,70,127
39995,note_off,0,0,0,,2,,,74,127
39996,note_on,1,0,0,,0,,,72,127
39996,note_on,0,0,0,,10,,,69,127
40251,note_off,255,0,0,,10,,,69,127
40251,note_off,0,0,0,,0,,,72,127
40252,note_on,1,0,0,,0,,,72,127
40252,note_on,0,0,0,,10,,,69,127
40379,note_off,127,0,0,,4,,,76,127
40380,note_on,1,0,0,,5,,,77,127
40507,note_off,127,0,0,,10,,,69,127
40507,note_off,0,0,0,,0,,,72,127
40508,note_on,1,0,0,,0,,,72,127
40508,note_on,0,0,0,,10,,,69,127
40635,note_off,127,0,0,,5,,,77,127
40763,note_off,128,0,0,,10,,,69,127
40763,note_off,0,0,0,,0,,,72,127
40764,note_on,1,0,0,,8,,,68,127
40764,note_on,0,0,0,,0,,,72,127
40892,note_on,128,0,0,,5,,,77,127
41019,note_off,127,0,0,,5,,,77,127
41019,note_off,0,0,0,,0,,,72,127
41019,note_off,0,0,0,,8,,,68,127
41020,note_on,1,0,0,,8,,,68,127
41020,note_on,0,0,0,,0,,,72,127
41020,note_on,0,0,0,,4,,,76,127
41275,note_off,255,0,0,,4,,,76,127
41275,note_off,0,0,0,,0,,,72,127
41275,note_off,0,0,0,,8,,,68,127
41276,note_on,1,0,0,,0,,,72,127
41276,note_on,0,0,0,,8,,,68,127
41276,note_on,0,0,0,,5,,,77,127
41531,note_off,255,0,0,,8,,,68,127
41531,note_off,0,0,0,,0,,,72,127
41532,note_on,1,0,0,,7,,,67,127
41532,note_on,0,0,0,,12,,,71,127
41787,note_off,255,0,0,,12,,,71,127
41787,note_off,0,0,0,,7,,,67,127
41787,note_off,0,0,0,,5,,,77,127
41788,note_on,1,0,0,,12,,,71,127
41788,note_on,0,0,0,,7,,,67,127
41788,note_on,0,0,0,,7,,,79,127
42043,note_off,255,0,0,,7,,,79,127
42043,note_off,0,0,0,,7,,,67,127
42043,note_off,0,0,0,,12,,,71,127
42044,note_on,1,0,0,,0,,,72,127
42044,note_on,0,0,0,,5,,,65,127
42044,note_on,0,0,0,,8,,,80,127
42299,note_off,255,0,0,,5,,,65,127
42299,note_off,0,0,0,,0,,,72,127
42300,note_on,1,0,0,,7,,,67,127
42300,note_on,0,0,0,,2,,,74,127
42300,note_on,0,0,0,,0,,,72,127
42555,note_off,255,0,0,,0,,,72,127
42555,note_off,0,0,0,,2,,,74,127
42555,note_off,0,0,0,,7,,,67,127
42555,note_off,0,0,0,,8,,,80,127
42556,note_on,1,0,0,,0,,,72,127
42556,note_on,0,0,0,,7,,,67,127
42556,note_on,0,0,0,,2,,,74,127
42556,note_on,0,0,0,,7,,,79,127
42640,note_off,84,0,0,,7,,,79,127
42641,note_on,1,0,0,,5,,,77,127
42725,note_off,84,0,0,,5,,,77,127
42726,note_on,1,0,0,,3,,,75,127
42810,note_off,84,0,0,,3,,,75,127
42810,note_off,0,0,0,,2,,,74,127
42810,note_off,0,0,0,,7,,,67,127
42810,note_off,0,0,0,,0,,,72,127
42811,note_on,1,0,0,,12,,,71,127
42811,note_on,0,0,0,,7,,,67,127
42811,note_on,0,0,0,,2,,,74,127
42895,note_off,84,0,0,,2,,,74,127
42896,note_on,1,0,0,,3,,,75,127
42980,note_off,84,0,0,,3,,,75,127
42981,note_on,1,0,0,,5,,,77,127
43065,note_off,84,0,0,,7,,,67,127
43065,note_off,0,0,0,,12,,,71,127
43066,note_on,1,0,0,,0,,,72,127
43127,note_off,61,0,0,,5,,,77,127
43130,note_on,3,0,0,,3,,,75,127
43193,note_off,63,0,0,,3,,,75,127
43194,note_on,1,0,0,,5,,,77,127
43257,note_off,63,0,0,,5,,,77,127
43258,note_on,1,0,0,,3,,,75,127
43321,note_off,63,0,0,,3,,,75,127
43321,note_off,0,0,0,,0,,,72,127
43322,note_on,1,0,0,,0,,,60,127
43322,note_on,0,0,0,,5,,,77,127
43385,note_off,63,0,0,,5,,,77,127
43386,note_on,1,0,0,,3,,,75,127
43449,note_off,63,0,0,,3,,,75,127
43450,note_on,1,0,0,,2,,,74,127
43577,note_off,127,0,0,,2,,,74,127
43578,note_on,1,0,0,,0,,,72,127
43805,note_off,227,0,0,,0,,,72,127
43833,note_off,28,0,0,,0,,,60,127
43834,note_on,1,0,0,,3,,,75,127
43834,note_on,0,0,0,,0,,,72,127
43962,note_on,128,0,0,,7,,,79,127
44089,note_off,127,0,0,,7,,,79,127
44089,note_off,0,0,0,,0,,,72,127
44089,note_off,0,0,0,,3,,,75,127
44090,note_on,1,0,0,,3,,,75,127
44090,note_on,0,0,0,,0,,,72,127
44090,note_on,0,0,0,,6,,,78,127
44345,note_off,255,0,0,,0,,,72,127
44345,note_off,0,0,0,,3,,,75,127
44346,note_on,1,0,0,,3,,,75,127
44346,note_on,0,0,0,,0,,,72,127
44601,note_off,255,0,0,,0,,,72,127
44601,note_off,0,0,0,,3,,,75,127
44602,note_on,1,0,0,,2,,,74,127
44602,note_on,0,0,0,,12,,,71,127
44857,note_off,255,0,0,,12,,,71,127
44857,note_off,0,0,0,,2,,,74,127
44858,note_on,1,0,0,,2,,,74,127
44858,note_on,0,0,0,,12,,,71,127
44985,note_off,127,0,0,,6,,,78,127
44986,note_on,1,0,0,,7,,,79,127
45113,note_off,127,0,0,,12,,,71,127
45113,note_off,0,0,0,,2,,,74,127
45114,note_on,1,0,0,,12,,,71,127
45114,note_on,0,0,0,,2,,,74,127
45241,note_off,127,0,0,,7,,,79,127
45369,note_off,128,0,0,,2,,,74,127
45369,note_off,0,0,0,,12,,,71,127
45370,note_on,1,0,0,,0,,,72,127
45370,note_on,0,0,0,,3,,,75,127
45498,note_on,128,0,0,,7,,,79,127
45625,note_off,127,0,0,,7,,,79,127
45625,note_off,0,0,0,,3,,,75,127
45625,note_off,0,0,0,,0,,,72,127
45626,note_on,1,0,0,,3,,,75,127
45626,note_on,0,0,0,,0,,,72,127
45626,note_on,0,0,0,,6,,,78,127
45881,note_off,255,0,0,,0,,,72,127
45881,note_off,0,0,0,,3,,,75,127
45882,note_on,1,0,0,,3,,,75,127
45882,note_on,0,0,0,,0,,,72,127
46137,note_off,255,0,0,,0,,,72,127
46137,note_off,0,0,0,,3,,,75,127
46138,note_on,1,0,0,,12,,,71,127
46138,note_on,0,0,0,,2,,,74,127
46393,note_off,255,0,0,,2,,,74,127
46393,note_off,0,0,0,,12,,,71,127
46394,note_on,1,0,0,,2,,,74,127
46394,note_on,0,0,0,,12,,,71,127
46521,note_off,127,0,0,,6,,,78,127
46522,note_on,1,0,0,,7,,,79,127
46649,note_off,127,0,0,,12,,,71,127
46649,note_off,0,0,0,,2,,,74,127
46650,note_on,1,0,0,,2,,,74,127
46650,note_on,0,0,0,,12,,,71,127
46777,note_off,127,0,0,,7,,,79,127
46905,note_off,128,0,0,,12,,,71,127
46905,note_off,0,0,0,,2,,,74,127
46906,note_on,1,0,0,,11,,,70,127
46906,note_on,0,0,0,,2,,,74,127
47034,note_on,128,0,0,,7,,,79,127
47161,note_off,127,0,0,,7,,,79,127
47161,note_off,0,0,0,,2,,,74,127
47161,note_off,0,0,0,,11,,,70,127
47162,note_on,1,0,0,,11,,,70,127
47162,note_on,0,0,0,,2,,,74,127
47162,note_on,0,0,0,,6,,,78,127
47417,note_off,255,0,0,,6,,,78,127
47417,note_off,0,0,0,,2,,,74,127
47417,note_off,0,0,0,,11,,,70,127
47418,note_on,1,0,0,,11,,,70,127
47418,note_on,0,0,0,,2,,,74,127
47418,note_on,0,0,0,,7,,,79,127
47673,note_off,255,0,0,,2,,,74,127
47673,note_off,0,0,0,,11,,,70,127
47674,note_on,1,0,0,,1,,,73,127
47674,note_on,0,0,0,,10,,,69,127
47929,note_off,255,0,0,,10,,,69,127
47929,note_off,0,0,0,,1,,,73,127
47929,note_off,0,0,0,,7,,,79,127
47930,note_on,1,0,0,,1,,,73,127
47930,note_on,0,0,0,,10,,,69,127
47930,note_on,0,0,0,,10,,,81,127
48185,note_off,255,0,0,,10,,,81,127
48185,note_off,0,0,0,,10,,,69,127
48185,note_off,0,0,0,,1,,,73,127
48186,note_on,1,0,0,,2,,,74,127
48186,note_on,0,0,0,,7,,,67,127
48186,note_on,0,0,0,,11,,,82,127
48441,note_off,255,0,0,,7,,,67,127
48441,note_off,0,0,0,,2,,,74,127
48442,note_on,1,0,0,,10,,,69,127
48442,note_on,0,0,0,,4,,,76,127
48442,note_on,0,0,0,,2,,,74,127
48697,note_off,255,0,0,,2,,,74,127
48697,note_off,0,0,0,,4,,,76,127
48697,note_off,0,0,0,,10,,,69,127
48697,note_off,0,0,0,,11,,,82,127
48698,note_on,1,0,0,,10,,,69,127
48698,note_on,0,0,0,,4,,,76,127
48698,note_on,0,0,0,,2,,,74,127
48698,note_on,0,0,0,,10,,,81,127
48782,note_off,84,0,0,,10,,,81,127
48783,note_on,1,0,0,,7,,,79,127
48867,note_off,84,0,0,,7,,,79,127
48868,note_on,1,0,0,,6,,,78,127
48952,note_off,84,0,0,,6,,,78,127
48952,note_off,0,0,0,,2,,,74,127
48952,note_off,0,0,0,,4,,,76,127
48952,note_off,0,0,0,,10,,,69,127
48953,note_on,1,0,0,,1,,,73,127
48953,note_on,0,0,0,,10,,,69,127
48953,note_on,0,0,0,,4,,,76,127
49037,note_off,84,0,0,,4,,,76,127
49038,note_on,1,0,0,,6,,,78,127
49122,note_off,84,0,0,,6,,,78,127
49123,note_on,1,0,0,,7,,,79,127
49207,note_off,84,0,0,,10,,,69,127
49207,note_off,0,0,0,,1,,,73,127
49208,note_on,1,0,0,,2,,,74,127
49269,note_off,61,0,0,,7,,,79,127
49272,note_on,3,0,0,,6,,,78,127
49335,note_off,63,0,0,,6,,,78,127
49336,note_on,1,0,0,,7,,,79,127
49399,note_off,63,0,0,,7,,,79,127
49400,note_on,1,0,0,,6,,,78,127
49463,note_off,63,0,0,,6,,,78,127
49463,note_off,0,0,0,,2,,,74,127
49464,note_on,1,0,0,,2,,,62,127
49464,note_on,0,0,0,,7,,,79,127
49527,note_off,63,0,0,,7,,,79,127
49528,note_on,1,0,0,,6,,,78,127
49591,note_off,63,0,0,,6,,,78,127
49592,note_on,1,0,0,,4,,,76,127
49719,note_off,127,0,0,,4,,,76,127
49720,note_on,1,0,0,,2,,,74,127
49975,note_off,255,0,0,,2,,,74,127
49975,note_off,0,0,0,,2,,,62,127
49976,note_on,1,0,0,,6,,,66,127
49976,note_on,0,0,0,,2,,,62,127
50061,note_on,85,0,0,,10,,,69,127
50145,note_off,84,0,0,,10,,,69,127
50146,note_on,1,0,0,,11,,,70,127
50230,note_off,84,0,0,,11,,,70,127
50230,note_off,0,0,0,,2,,,62,127
50230,note_off,0,0,0,,6,,,66,127
50231,note_on,1,0,0,,6,,,66,127
50231,note_on,0,0,0,,2,,,62,127
50231,note_on,0,0,0,,0,,,72,127
50315,note_off,84,0,0,,0,,,72,127
50316,note_on,1,0,0,,2,,,74,127
50400,note_off,84,0,0,,2,,,74,127
50401,note_on,1,0,0,,4,,,76,127
50485,note_off,84,0,0,,4,,,76,127
50485,note_off,0,0,0,,2,,,62,127
50485,note_off,0,0,0,,6,,,66,127
50486,note_on,1,0,0,,6,,,66,127
50486,note_on,0,0,0,,2,,,62,127
50486,note_on,0,0,0,,6,,,78,127
50570,note_off,84,0,0,,6,,,78,127
50571,note_on,1,0,0,,7,,,79,127
50655,note_off,84,0,0,,7,,,79,127
50656,note_on,1,0,0,,10,,,81,127
50740,note_off,84,0,0,,10,,,81,127
50740,note_off,0,0,0,,2,,,62,127
50740,note_off,0,0,0,,6,,,66,127
50741,note_on,1,0,0,,7,,,67,127
50741,note_on,0,0,0,,2,,,62,127
50741,note_on,0,0,0,,11,,,82,127
50825,note_off,84,0,0,,11,,,82,127
50826,note_on,1,0,0,,10,,,81,127
50910,note_off,84,0,0,,10,,,81,127
50911,note_on,1,0,0,,7,,,79,127
50995,note_off,84,0,0,,2,,,62,127
50995,note_off,0,0,0,,7,,,67,127
50996,note_on,1,0,0,,2,,,62,127
50996,note_on,0,0,0,,7,,,67,127
51080,note_off,84,0,0,,7,,,79,127
51081,note_on,1,0,0,,5,,,77,127
51165,note_off,84,0,0,,5,,,77,127
51166,note_on,1,0,0,,3,,,75,127
51250,note_off,84,0,0,,7,,,67,127
51250,note_off,0,0,0,,2,,,62,127
51251,note_on,1,0,0,,2,,,62,127
51251,note_on,0,0,0,,7,,,67,127
51335,note_off,84,0,0,,3,,,75,127
51336,note_on,1,0,0,,2,,,74,127
51420,note_off,84,0,0,,2,,,74,127
51421,note_on,1,0,0,,0,,,72,127
51505,note_off,84,0,0,,0,,,72,127
51505,note_off,0,0,0,,7,,,67,127
51505,note_off,0,0,0,,2,,,62,127
51506,note_on,1,0,0,,7,,,67,127
51506,note_on,0,0,0,,2,,,62,127
51506,note_on,0,0,0,,0,,,72,127
51569,note_off,63,0,0,,0,,,72,127
51570,note_on,1,0,0,,11,,,70,127
51633,note_off,63,0,0,,11,,,70,127
51634,note_on,1,0,0,,0,,,72,127
51697,note_off,63,0,0,,0,,,72,127
51698,note_on,1,0,0,,11,,,70,127
51761,note_off,63,0,0,,11,,,70,127
51761,note_off,0,0,0,,2,,,62,127
51761,note_off,0,0,0,,7,,,67,127
51762,note_on,1,0,0,,7,,,67,127
51762,note_on,0,0,0,,2,,,62,127
51762,note_on,0,0,0,,0,,,72,127
51825,note_off,63,0,0,,0,,,72,127
51826,note_on,1,0,0,,11,,,70,127
51889,note_off,63,0,0,,11,,,70,127
51890,note_on,1,0,0,,10,,,69,127
51953,note_off,63,0,0,,10,,,69,127
51954,note_on,1,0,0,,11,,,70,127
52017,note_off,63,0,0,,11,,,70,127
52017,note_off,0,0,0,,2,,,62,127
52017,note_off,0,0,0,,7,,,67,127
52018,note_on,1,0,0,,6,,,66,127
52018,note_on,0,0,0,,2,,,62,127
52018,note_on,0,0,0,,10,,,69,127
52273,note_off,255,0,0,,10,,,69,127
52273,note_off,0,0,0,,2,,,62,127
52273,note_off,0,0,0,,6,,,66,127
52274,note_on,1,0,0,,2,,,62,127
52274,note_on,0,0,0,,6,,,66,127
52359,note_on,85,0,0,,10,,,69,127
52443,note_off,84,0,0,,10,,,69,127
52444,note_on,1,0,0,,11,,,70,127
52528,note_off,84,0,0,,11,,,70,127
52528,note_off,0,0,0,,6,,,66,127
52528,note_off,0,0,0,,2,,,62,127
52529,note_on,1,0,0,,6,,,66,127
52529,note_on,0,0,0,,2,,,62,127
52529,note_on,0,0,0,,0,,,72,127
52613,note_off,84,0,0,,0,,,72,127
52614,note_on,1,0,0,,2,,,74,127
52698,note_off,84,0,0,,2,,,74,127
52699,note_on,1,0,0,,4,,,76,127
52783,note_off,84,0,0,,4,,,76,127
52783,note_off,0,0,0,,2,,,62,127
52783,note_off,0,0,0,,6,,,66,127
52784,note_on,1,0,0,,6,,,66,127
52784,note_on,0,0,0,,2,,,62,127
52784,note_on,0,0,0,,6,,,78,127
52868,note_off,84,0,0,,6,,,78,127
52869,note_on,1,0,0,,7,,,79,127
52953,note_off,84,0,0,,7,,,79,127
52954,note_on,1,0,0,,10,,,81,127
53038,note_off,84,0,0,,10,,,81,127
53038,note_off,0,0,0,,2,,,62,127
53038,note_off,0,0,0,,6,,,66,127
53039,note_on,1,0,0,,7,,,67,127
53039,note_on,0,0,0,,2,,,62,127
53039,note_on,0,0,0,,11,,,82,127
53123,note_off,84,0,0,,11,,,82,127
53124,note_on,1,0,0,,10,,,81,127
53208,note_off,84,0,0,,10,,,81,127
53209,note_on,1,0,0,,7,,,79,127
53293,note_off,84,0,0,,2,,,62,127
53293,note_off,0,0,0,,7,,,67,127
53294,note_on,1,0,0,,2,,,62,127
53294,note_on,0,0,0,,7,,,67,127
53378,note_off,84,0,0,,7,,,79,127
53379,note_on,1,0,0,,5,,,77,127
53463,note_off,84,0,0,,5,,,77,127
53464,note_on,1,0,0,,3,,,75,127
53548,note_off,84,0,0,,7,,,67,127
53548,note_off,0,0,0,,2,,,62,127
53549,note_on,1,0,0,,0,,,60,127
53549,note_on,0,0,0,,7,,,67,127
53633,note_off,84,0,0,,3,,,75,127
53634,note_on,1,0,0,,2,,,74,127
53718,note_off,84,0,0,,2,,,74,127
53719,note_on,1,0,0,,0,,,72,127
53803,note_off,84,0,0,,0,,,72,127
53803,note_off,0,0,0,,7,,,67,127
53803,note_off,0,0,0,,0,,,60,127
53804,note_on,1,0,0,,7,,,67,127
53804,note_on,0,0,0,,2,,,62,127
53804,note_on,0,0,0,,0,,,72,127
53867,note_off,63,0,0,,0,,,72,127
53868,note_on,1,0,0,,11,,,70,127
53931,note_off,63,0,0,,11,,,70,127
53932,note_on,1,0,0,,0,,,72,127
53995,note_off,63,0,0,,0,,,72,127
53996,note_on,1,0,0,,11,,,70,127
54059,note_off,63,0,0,,11,,,70,127
54059,note_off,0,0,0,,2,,,62,127
54059,note_off,0,0,0,,7,,,67,127
54060,note_on,1,0,0,,7,,,67,127
54060,note_on,0,0,0,,2,,,62,127
54060,note_on,0,0,0,,0,,,72,127
54123,note_off,63,0,0,,0,,,72,127
54124,note_on,1,0,0,,11,,,70,127
54187,note_off,63,0,0,,11,,,70,127
54188,note_on,1,0,0,,10,,,69,127
54251,note_off,63,0,0,,10,,,69,127
54252,note_on,1,0,0,,11,,,70,127
54315,note_off,63,0,0,,11,,,70,127
54315,note_off,0,0,0,,2,,,62,127
54315,note_off,0,0,0,,7,,,67,127
54316,note_on,1,0,0,,6,,,66,127
54316,note_on,0,0,0,,2,,,62,127
54316,note_on,0,0,0,,10,,,69,127
54571,note_off,255,0,0,,10,,,69,127
54571,note_off,0,0,0,,2,,,62,127
54571,note_off,0,0,0,,6,,,66,127
54572,note_on,1,0,0,,11,,,46,127
54572,note_on,0,0,0,,8,,,56,127
54657,note_on,85,0,0,,5,,,77,127
54741,note_off,84,0,0,,5,,,77,127
54742,note_on,1,0,0,,3,,,75,127
54826,note_off,84,0,0,,3,,,75,127
54826,note_off,0,0,0,,8,,,56,127
54826,note_off,0,0,0,,11,,,46,127
54827,note_on,1,0,0,,11,,,46,127
54827,note_on,0,0,0,,8,,,56,127
54827,note_on,0,0,0,,2,,,74,127
54911,note_off,84,0,0,,2,,,74,127
54912,note_on,1,0,0,,0,,,72,127
54996,note_off,84,0,0,,0,,,72,127
54997,note_on,1,0,0,,11,,,70,127
55081,note_off,84,0,0,,11,,,70,127
55081,note_off,0,0,0,,8,,,56,127
55081,note_off,0,0,0,,11,,,46,127
55082,note_on,1,0,0,,8,,,56,127
55082,note_on,0,0,0,,11,,,46,127
55082,note_on,0,0,0,,8,,,68,127
55166,note_off,84,0,0,,8,,,68,127
55167,note_on,1,0,0,,7,,,67,127
55251,note_off,84,0,0,,7,,,67,127
55252,note_on,1,0,0,,8,,,68,127
55336,note_off,84,0,0,,8,,,68,127
55336,note_off,0,0,0,,11,,,46,127
55336,note_off,0,0,0,,8,,,56,127
55337,note_on,1,0,0,,3,,,51,127
55337,note_on,0,0,0,,11,,,70,127
55400,note_off,63,0,0,,11,,,70,127
55401,note_on,1,0,0,,8,,,68,127
55464,note_off,63,0,0,,8,,,68,127
55465,note_on,1,0,0,,11,,,70,127
55528,note_off,63,0,0,,11,,,70,127
55529,note_on,1,0,0,,8,,,68,127
55592,note_off,63,0,0,,8,,,68,127
55593,note_on,1,0,0,,3,,,39,127
55593,note_on,0,0,0,,11,,,70,127
55656,note_off,63,0,0,,11,,,70,127
55657,note_on,1,0,0,,8,,,68,127
55720,note_off,63,0,0,,8,,,68,127
55721,note_on,1,0,0,,7,,,67,127
55784,note_off,63,0,0,,7,,,67,127
55785,note_on,1,0,0,,8,,,68,127
55844,note_off,59,0,0,,3,,,51,127
55848,note_off,4,0,0,,8,,,68,127
55848,note_off,0,0,0,,3,,,39,127
55849,note_on,1,0,0,,3,,,39,127
55849,note_on,0,0,0,,7,,,67,127
56104,note_off,255,0,0,,3,,,39,127
56105,note_on,1,0,0,,0,,,48,127
56105,note_on,0,0,0,,11,,,58,127
56189,note_off,84,0,0,,7,,,67,127
56190,note_on,1,0,0,,7,,,79,127
56274,note_off,84,0,0,,7,,,79,127
56275,note_on,1,0,0,,5,,,77,127
56359,note_off,84,0,0,,5,,,77,127
56359,note_off,0,0,0,,11,,,58,127
56359,note_off,0,0,0,,0,,,48,127
56360,note_on,1,0,0,,0,,,48,127
56360,note_on,0,0,0,,11,,,58,127
56360,note_on,0,0,0,,4,,,76,127
56444,note_off,84,0,0,,4,,,76,127
56445,note_on,1,0,0,,2,,,74,127
56529,note_off,84,0,0,,2,,,74,127
56530,note_on,1,0,0,,0,,,72,127
56614,note_off,84,0,0,,0,,,72,127
56614,note_off,0,0,0,,11,,,58,127
56614,note_off,0,0,0,,0,,,48,127
56615,note_on,1,0,0,,0,,,48,127
56615,note_on,0,0,0,,11,,,58,127
56615,note_on,0,0,0,,11,,,70,127
56699,note_off,84,0,0,,11,,,70,127
56700,note_on,1,0,0,,10,,,69,127
56784,note_off,84,0,0,,10,,,69,127
56785,note_on,1,0,0,,11,,,70,127
56869,note_off,84,0,0,,11,,,70,127
56869,note_off,0,0,0,,11,,,58,127
56869,note_off,0,0,0,,0,,,48,127
56870,note_on,1,0,0,,5,,,53,127
56870,note_on,0,0,0,,0,,,72,127
56933,note_off,63,0,0,,0,,,72,127
56934,note_on,1,0,0,,11,,,70,127
56997,note_off,63,0,0,,11,,,70,127
56998,note_on,1,0,0,,0,,,72,127
57061,note_off,63,0,0,,0,,,72,127
57062,note_on,1,0,0,,11,,,70,127
57125,note_off,63,0,0,,11,,,70,127
57126,note_on,1,0,0,,5,,,41,127
57126,note_on,0,0,0,,0,,,72,127
57189,note_off,63,0,0,,0,,,72,127
57190,note_on,1,0,0,,11,,,70,127
57253,note_off,63,0,0,,11,,,70,127
57254,note_on,1,0,0,,10,,,69,127
57317,note_off,63,0,0,,10,,,69,127
57318,note_on,1,0,0,,11,,,70,127
57377,note_off,59,0,0,,5,,,53,127
57381,note_off,4,0,0,,11,,,70,127
57381,note_off,0,0,0,,5,,,41,127
57382,note_on,1,0,0,,5,,,41,127
57382,note_on,0,0,0,,10,,,69,127
57637,note_off,255,0,0,,5,,,41,127
57638,note_on,1,0,0,,5,,,53,127
57638,note_on,0,0,0,,3,,,63,127
57722,note_off,84,0,0,,10,,,69,127
57723,note_on,1,0,0,,0,,,84,127
57807,note_off,84,0,0,,0,,,84,127
57808,note_on,1,0,0,,11,,,82,127
57892,note_off,84,0,0,,11,,,82,127
57892,note_off,0,0,0,,3,,,63,127
57892,note_off,0,0,0,,5,,,53,127
57893,note_on,1,0,0,,5,,,53,127
57893,note_on,0,0,0,,3,,,63,127
57893,note_on,0,0,0,,10,,,81,127
57977,note_off,84,0,0,,10,,,81,127
57978,note_on,1,0,0,,7,,,79,127
58062,note_off,84,0,0,,7,,,79,127
58063,note_on,1,0,0,,5,,,77,127
58147,note_off,84,0,0,,5,,,77,127
58147,note_off,0,0,0,,3,,,63,127
58147,note_off,0,0,0,,5,,,53,127
58148,note_on,1,0,0,,5,,,53,127
58148,note_on,0,0,0,,3,,,63,127
58148,note_on,0,0,0,,3,,,75,127
58232,note_off,84,0,0,,3,,,75,127
58233,note_on,1,0,0,,2,,,74,127
58317,note_off,84,0,0,,2,,,74,127
58318,note_on,1,0,0,,3,,,75,127
58402,note_off,84,0,0,,3,,,75,127
58402,note_off,0,0,0,,3,,,63,127
58402,note_off,0,0,0,,5,,,53,127
58403,note_on,1,0,0,,11,,,58,127
58403,note_on,0,0,0,,5,,,77,127
58466,note_off,63,0,0,,5,,,77,127
58467,note_on,1,0,0,,3,,,75,127
58530,note_off,63,0,0,,3,,,75,127
58531,note_on,1,0,0,,5,,,77,127
58594,note_off,63,0,0,,5,,,77,127
58595,note_on,1,0,0,,3,,,75,127
58658,note_off,63,0,0,,3,,,75,127
58659,note_on,1,0,0,,11,,,46,127
58659,note_on,0,0,0,,5,,,77,127
58722,note_off,63,0,0,,5,,,77,127
58723,note_on,1,0,0,,3,,,75,127
58786,note_off,63,0,0,,3,,,75,127
58787,note_on,1,0,0,,2,,,74,127
58850,note_off,63,0,0,,2,,,74,127
58851,note_on,1,0,0,,3,,,75,127
58914,note_off,63,0,0,,3,,,75,127
58914,note_off,0,0,0,,11,,,46,127
58915,note_on,1,0,0,,11,,,46,127
58915,note_on,0,0,0,,2,,,74,127
59170,note_off,255,0,0,,2,,,74,127
59170,note_off,0,0,0,,11,,,46,127
59170,note_off,0,0,0,,11,,,58,127
59171,note_on,1,0,0,,11,,,58,127
59171,note_on,0,0,0,,8,,,68,127
59426,note_off,255,0,0,,8,,,68,127
59426,note_off,0,0,0,,11,,,58,127
59427,note_on,1,0,0,,11,,,58,127
59427,note_on,0,0,0,,8,,,68,127
59427,note_on,0,0,0,,12,,,83,127
59682,note_off,255,0,0,,12,,,83,127
59682,note_off,0,0,0,,8,,,68,127
59682,note_off,0,0,0,,11,,,58,127
59683,note_on,1,0,0,,11,,,58,127
59683,note_on,0,0,0,,8,,,68,127
59683,note_on,0,0,0,,2,,,74,127
59938,note_off,255,0,0,,2,,,74,127
59938,note_off,0,0,0,,8,,,68,127
59938,note_off,0,0,0,,11,,,58,127
59939,note_on,1,0,0,,6,,,66,127
59939,note_on,0,0,0,,11,,,58,127
59939,note_on,0,0,0,,3,,,75,127
60194,note_off,255,0,0,,3,,,75,127
60194,note_off,0,0,0,,11,,,58,127
60194,note_off,0,0,0,,6,,,66,127
60195,note_on,1,0,0,,11,,,58,127
60195,note_on,0,0,0,,5,,,65,127
60195,note_on,0,0,0,,5,,,77,127
60450,note_off,255,0,0,,5,,,77,127
60450,note_off,0,0,0,,5,,,65,127
60450,note_off,0,0,0,,11,,,58,127
60451,note_on,1,0,0,,11,,,58,127
60451,note_on,0,0,0,,3,,,63,127
60451,note_on,0,0,0,,6,,,78,127
60706,note_off,255,0,0,,6,,,78,127
60706,note_off,0,0,0,,3,,,63,127
60706,note_off,0,0,0,,11,,,58,127
60707,note_on,1,0,0,,11,,,58,127
60707,note_on,0,0,0,,3,,,63,127
60707,note_on,0,0,0,,8,,,80,127
60962,note_off,255,0,0,,8,,,80,127
60962,note_off,0,0,0,,3,,,63,127
60962,note_off,0,0,0,,11,,,58,127
60963,note_on,1,0,0,,11,,,58,127
60963,note_on,0,0,0,,3,,,63,127
60963,note_on,0,0,0,,5,,,77,127
61218,note_off,255,0,0,,5,,,77,127
61218,note_off,0,0,0,,3,,,63,127
61218,note_off,0,0,0,,11,,,58,127
61219,note_on,1,0,0,,2,,,62,127
61219,note_on,0,0,0,,11,,,58,127
61219,note_on,0,0,0,,11,,,82,127
61474,note_off,255,0,0,,11,,,82,127
61474,note_off,0,0,0,,11,,,58,127
61474,note_off,0,0,0,,2,,,62,127
61475,note_on,1,0,0,,11,,,58,127
61475,note_on,0,0,0,,3,,,63,127
61475,note_on,0,0,0,,8,,,80,127
61538,note_off,63,0,0,,8,,,80,127
61539,note_on,1,0,0,,6,,,78,127
61602,note_off,63,0,0,,6,,,78,127
61603,note_on,1,0,0,,8,,,80,127
61666,note_off,63,0,0,,8,,,80,127
61667,note_on,1,0,0,,6,,,78,127
61730,note_off,63,0,0,,6,,,78,127
61730,note_off,0,0,0,,3,,,63,127
61730,note_off,0,0,0,,11,,,58,127
61731,note_on,1,0,0,,11,,,58,127
61731,note_on,0,0,0,,8,,,80,127
61794,note_off,63,0,0,,8,,,80,127
61795,note_on,1,0,0,,6,,,78,127
61858,note_off,63,0,0,,6,,,78,127
61859,note_on,1,0,0,,5,,,77,127
61922,note_off,63,0,0,,5,,,77,127
61923,note_on,1,0,0,,6,,,78,127
61986,note_off,63,0,0,,6,,,78,127
61986,note_off,0,0,0,,11,,,58,127
61987,note_on,1,0,0,,11,,,46,127
61987,note_on,0,0,0,,5,,,77,127
62242,note_off,255,0,0,,5,,,77,127
62242,note_off,0,0,0,,11,,,46,127
62243,note_on,1,0,0,,12,,,59,127
62243,note_on,0,0,0,,8,,,68,127
62498,note_off,255,0,0,,8,,,68,127
62498,note_off,0,0,0,,12,,,59,127
62499,note_on,1,0,0,,12,,,59,127
62499,note_on,0,0,0,,8,,,68,127
62499,note_on,0,0,0,,12,,,83,127
62754,note_off,255,0,0,,12,,,83,127
62754,note_off,0,0,0,,8,,,68,127
62754,note_off,0,0,0,,12,,,59,127
62755,note_on,1,0,0,,12,,,59,127
62755,note_on,0,0,0,,8,,,68,127
62755,note_on,0,0,0,,2,,,74,127
63010,note_off,255,0,0,,2,,,74,127
63010,note_off,0,0,0,,8,,,68,127
63010,note_off,0,0,0,,12,,,59,127
63011,note_on,1,0,0,,11,,,58,127
63011,note_on,0,0,0,,6,,,66,127
63011,note_on,0,0,0,,3,,,75,127
63266,note_off,255,0,0,,3,,,75,127
63266,note_off,0,0,0,,6,,,66,127
63266,note_off,0,0,0,,11,,,58,127
63267,note_on,1,0,0,,5,,,65,127
63267,note_on,0,0,0,,11,,,58,127
63267,note_on,0,0,0,,5,,,77,127
63522,note_off,255,0,0,,5,,,77,127
63522,note_off,0,0,0,,11,,,58,127
63522,note_off,0,0,0,,5,,,65,127
63523,note_on,1,0,0,,3,,,63,127
63523,note_on,0,0,0,,11,,,58,127
63523,note_on,0,0,0,,6,,,78,127
63778,note_off,255,0,0,,6,,,78,127
63778,note_off,0,0,0,,11,,,58,127
63778,note_off,0,0,0,,3,,,63,127
63779,note_on,1,0,0,,3,,,63,127
63779,note_on,0,0,0,,11,,,58,127
63779,note_on,0,0,0,,8,,,80,127
64034,note_off,255,0,0,,8,,,80,127
64034,note_off,0,0,0,,11,,,58,127
64034,note_off,0,0,0,,3,,,63,127
64035,note_on,1,0,0,,11,,,58,127
64035,note_on,0,0,0,,3,,,63,127
64035,note_on,0,0,0,,5,,,77,127
64290,note_off,255,0,0,,5,,,77,127
64290,note_off,0,0,0,,3,,,63,127
64290,note_off,0,0,0,,11,,,58,127
64291,note_on,1,0,0,,2,,,62,127
64291,note_on,0,0,0,,11,,,58,127
64291,note_on,0,0,0,,11,,,82,127
64546,note_off,255,0,0,,11,,,82,127
64546,note_off,0,0,0,,11,,,58,127
64546,note_off,0,0,0,,2,,,62,127
64547,note_on,1,0,0,,11,,,58,127
64547,note_on,0,0,0,,3,,,63,127
64547,note_on,0,0,0,,8,,,80,127
64610,note_off,63,0,0,,8,,,80,127
64611,note_on,1,0,0,,6,,,78,127
64674,note_off,63,0,0,,6,,,78,127
64675,note_on,1,0,0,,8,,,80,127
64738,note_off,63,0,0,,8,,,80,127
64739,note_on,1,0,0,,6,,,78,127
64802,note_off,63,0,0,,6,,,78,127
64802,note_off,0,0,0,,3,,,63,127
64802,note_off,0,0,0,,11,,,58,127
64803,note_on,1,0,0,,11,,,58,127
64803,note_on,0,0,0,,8,,,80,127
64866,note_off,63,0,0,,8,,,80,127
64867,note_on,1,0,0,,6,,,78,127
64930,note_off,63,0,0,,6,,,78,127
64931,note_on,1,0,0,,5,,,77,127
64994,note_off,63,0,0,,5,,,77,127
64995,note_on,1,0,0,,6,,,78,127
65058,note_off,63,0,0,,6,,,78,127
65059,note_on,1,0,0,,11,,,46,127
65059,note_on,0,0,0,,5,,,77,127
65310,note_off,251,0,0,,11,,,58,127
65314,note_off,4,0,0,,5,,,77,127
65314,note_off,0,0,0,,11,,,46,127
65315,note_on,1,0,0,,0,,,60,127
65315,note_on,0,0,0,,10,,,57,127
65315,note_on,0,0,0,,3,,,63,127
65315,note_on,0,0,0,,5,,,65,127
65400,note_on,85,0,0,,7,,,79,127
65484,note_off,84,0,0,,7,,,79,127
65485,note_on,1,0,0,,3,,,75,127
65569,note_off,84,0,0,,3,,,75,127
65569,note_off,0,0,0,,5,,,65,127
65569,note_off,0,0,0,,3,,,63,127
65569,note_off,0,0,0,,10,,,57,127
65569,note_off,0,0,0,,0,,,60,127
65570,note_on,1,0,0,,10,,,57,127
65570,note_on,0,0,0,,0,,,60,127
65570,note_on,0,0,0,,3,,,63,127
65570,note_on,0,0,0,,5,,,65,127
65570,note_on,0,0,0,,5,,,77,127
65825,note_off,255,0,0,,5,,,65,127
65825,note_off,0,0,0,,3,,,63,127
65825,note_off,0,0,0,,0,,,60,127
65825,note_off,0,0,0,,10,,,57,127
65826,note_on,1,0,0,,10,,,57,127
65826,note_on,0,0,0,,5,,,65,127
65826,note_on,0,0,0,,3,,,63,127
65826,note_on,0,0,0,,0,,,60,127
66081,note_off,255,0,0,,0,,,60,127
66081,note_off,0,0,0,,3,,,63,127
66081,note_off,0,0,0,,5,,,65,127
66081,note_off,0,0,0,,10,,,57,127
66082,note_on,1,0,0,,11,,,58,127
66082,note_on,0,0,0,,5,,,65,127
66082,note_on,0,0,0,,2,,,62,127
66166,note_off,84,0,0,,5,,,77,127
66167,note_on,1,0,0,,7,,,79,127
66251,note_off,84,0,0,,7,,,79,127
66252,note_on,1,0,0,,3,,,75,127
66336,note_off,84,0,0,,3,,,75,127
66336,note_off,0,0,0,,2,,,62,127
66336,note_off,0,0,0,,5,,,65,127
66336,note_off,0,0,0,,11,,,58,127
66337,note_on,1,0,0,,11,,,58,127
66337,note_on,0,0,0,,5,,,65,127
66337,note_on,0,0,0,,2,,,62,127
66337,note_on,0,0,0,,5,,,77,127
66592,note_off,255,0,0,,2,,,62,127
66592,note_off,0,0,0,,5,,,65,127
66592,note_off,0,0,0,,11,,,58,127
66593,note_on,1,0,0,,11,,,58,127
66593,note_on,0,0,0,,5,,,65,127
66593,note_on,0,0,0,,2,,,62,127
66848,note_off,255,0,0,,2,,,62,127
66848,note_off,0,0,0,,5,,,65,127
66848,note_off,0,0,0,,11,,,58,127
66849,note_on,1,0,0,,5,,,65,127
66849,note_on,0,0,0,,10,,,57,127
66849,note_on,0,0,0,,3,,,63,127
66849,note_on,0,0,0,,0,,,60,127
66933,note_off,84,0,0,,5,,,77,127
66934,note_on,1,0,0,,7,,,79,127
67018,note_off,84,0,0,,7,,,79,127
67019,note_on,1,0,0,,3,,,75,127
67103,note_off,84,0,0,,3,,,75,127
67103,note_off,0,0,0,,0,,,60,127
67103,note_off,0,0,0,,3,,,63,127
67103,note_off,0,0,0,,10,,,57,127
67103,note_off,0,0,0,,5,,,65,127
67104,note_on,1,0,0,,10,,,57,127
67104,note_on,0,0,0,,5,,,65,127
67104,note_on,0,0,0,,3,,,63,127
67104,note_on,0,0,0,,0,,,60,127
67104,note_on,0,0,0,,5,,,77,127
67359,note_off,255,0,0,,0,,,60,127
67359,note_off,0,0,0,,3,,,63,127
67359,note_off,0,0,0,,5,,,65,127
67359,note_off,0,0,0,,10,,,57,127
67360,note_on,1,0,0,,10,,,57,127
67360,note_on,0,0,0,,5,,,65,127
67360,note_on,0,0,0,,3,,,63,127
67360,note_on,0,0,0,,0,,,60,127
67615,note_off,255,0,0,,0,,,60,127
67615,note_off,0,0,0,,3,,,63,127
67615,note_off,0,0,0,,5,,,65,127
67615,note_off,0,0,0,,10,,,57,127
67616,note_on,1,0,0,,11,,,58,127
67616,note_on,0,0,0,,2,,,62,127
67616,note_on,0,0,0,,5,,,65,127
67700,note_off,84,0,0,,5,,,77,127
67701,note_on,1,0,0,,7,,,79,127
67785,note_off,84,0,0,,7,,,79,127
67786,note_on,1,0,0,,4,,,76,127
67870,note_off,84,0,0,,4,,,76,127
67870,note_off,0,0,0,,5,,,65,127
67870,note_off,0,0,0,,2,,,62,127
67870,note_off,0,0,0,,11,,,58,127
67871,note_on,1,0,0,,5,,,65,127
67871,note_on,0,0,0,,2,,,62,127
67871,note_on,0,0,0,,11,,,58,127
67871,note_on,0,0,0,,5,,,77,127
68126,note_off,255,0,0,,11,,,58,127
68126,note_off,0,0,0,,2,,,62,127
68126,note_off,0,0,0,,5,,,65,127
68127,note_on,1,0,0,,11,,,58,127
68127,note_on,0,0,0,,2,,,62,127
68127,note_on,0,0,0,,5,,,65,127
68382,note_off,255,0,0,,5,,,65,127
68382,note_off,0,0,0,,2,,,62,127
68382,note_off,0,0,0,,11,,,58,127
68383,note_on,1,0,0,,10,,,57,127
68383,note_on,0,0,0,,5,,,65,127
68383,note_on,0,0,0,,2,,,62,127
68467,note_off,84,0,0,,5,,,77,127
68468,note_on,1,0,0,,7,,,79,127
68552,note_off,84,0,0,,7,,,79,127
68553,note_on,1,0,0,,4,,,76,127
68637,note_off,84,0,0,,4,,,76,127
68637,note_off,0,0,0,,2,,,62,127
68637,note_off,0,0,0,,5,,,65,127
68637,note_off,0,0,0,,10,,,57,127
68638,note_on,1,0,0,,5,,,65,127
68638,note_on,0,0,0,,2,,,62,127
68638,note_on,0,0,0,,10,,,57,127
68638,note_on,0,0,0,,5,,,77,127
68893,note_off,255,0,0,,10,,,57,127
68893,note_off,0,0,0,,2,,,62,127
68893,note_off,0,0,0,,5,,,65,127
68894,note_on,1,0,0,,10,,,57,127
68894,note_on,0,0,0,,5,,,65,127
68894,note_on,0,0,0,,2,,,62,127
69149,note_off,255,0,0,,2,,,62,127
69149,note_off,0,0,0,,5,,,65,127
69149,note_off,0,0,0,,10,,,57,127
69150,note_on,1,0,0,,8,,,56,127
69150,note_on,0,0,0,,2,,,62,127
69150,note_on,0,0,0,,0,,,60,127
69150,note_on,0,0,0,,5,,,65,127
69234,note_off,84,0,0,,5,,,77,127
69235,note_on,1,0,0,,7,,,79,127
69319,note_off,84,0,0,,7,,,79,127
69320,note_on,1,0,0,,3,,,75,127
69404,note_off,84,0,0,,3,,,75,127
69404,note_off,0,0,0,,5,,,65,127
69404,note_off,0,0,0,,0,,,60,127
69404,note_off,0,0,0,,2,,,62,127
69404,note_off,0,0,0,,8,,,56,127
69405,note_on,1,0,0,,8,,,56,127
69405,note_on,0,0,0,,5,,,65,127
69405,note_on,0,0,0,,2,,,62,127
69405,note_on,0,0,0,,0,,,60,127
69405,note_on,0,0,0,,5,,,77,127
69660,note_off,255,0,0,,0,,,60,127
69660,note_off,0,0,0,,2,,,62,127
69660,note_off,0,0,0,,5,,,65,127
69660,note_off,0,0,0,,8,,,56,127
69661,note_on,1,0,0,,8,,,56,127
69661,note_on,0,0,0,,5,,,65,127
69661,note_on,0,0,0,,2,,,62,127
69661,note_on,0,0,0,,0,,,60,127
69916,note_off,255,0,0,,0,,,60,127
69916,note_off,0,0,0,,2,,,62,127
69916,note_off,0,0,0,,5,,,65,127
69916,note_off,0,0,0,,8,,,56,127
69917,note_on,1,0,0,,7,,,55,127
69917,note_on,0,0,0,,5,,,65,127
69917,note_on,0,0,0,,2,,,62,127
69917,note_on,0,0,0,,12,,,59,127
70001,note_off,84,0,0,,5,,,77,127
70002,note_on,1,0,0,,7,,,79,127
70086,note_off,84,0,0,,7,,,79,127
70087,note_on,1,0,0,,3,,,75,127
70171,note_off,84,0,0,,3,,,75,127
70171,note_off,0,0,0,,12,,,59,127
70171,note_off,0,0,0,,2,,,62,127
70171,note_off,0,0,0,,5,,,65,127
70171,note_off,0,0,0,,7,,,55,127
70172,note_on,1,0,0,,7,,,55,127
70172,note_on,0,0,0,,5,,,65,127
70172,note_on,0,0,0,,2,,,62,127
70172,note_on,0,0,0,,12,,,59,127
70172,note_on,0,0,0,,5,,,77,127
70427,note_off,255,0,0,,12,,,59,127
70427,note_off,0,0,0,,2,,,62,127
70427,note_off,0,0,0,,5,,,65,127
70427,note_off,0,0,0,,7,,,55,127
70428,note_on,1,0,0,,7,,,55,127
70428,note_on,0,0,0,,12,,,59,127
70428,note_on,0,0,0,,5,,,65,127
70428,note_on,0,0,0,,2,,,62,127
70683,note_off,255,0,0,,2,,,62,127
70683,note_off,0,0,0,,5,,,65,127
70683,note_off,0,0,0,,12,,,59,127
70683,note_off,0,0,0,,7,,,55,127
70684,note_on,1,0,0,,8,,,56,127
70684,note_on,0,0,0,,2,,,62,127
70684,note_on,0,0,0,,0,,,60,127
70684,note_on,0,0,0,,5,,,65,127
70768,note_off,84,0,0,,5,,,77,127
70769,note_on,1,0,0,,7,,,79,127
70853,note_off,84,0,0,,7,,,79,127
70854,note_on,1,0,0,,3,,,75,127
70938,note_off,84,0,0,,3,,,75,127
70938,note_off,0,0,0,,5,,,65,127
70938,note_off,0,0,0,,0,,,60,127
70938,note_off,0,0,0,,2,,,62,127
70938,note_off,0,0,0,,8,,,56,127
70939,note_on,1,0,0,,8,,,56,127
70939,note_on,0,0,0,,0,,,60,127
70939,note_on,0,0,0,,5,,,65,127
70939,note_on,0,0,0,,2,,,62,127
70939,note_on,0,0,0,,5,,,77,127
71194,note_off,255,0,0,,2,,,62,127
71194,note_off,0,0,0,,5,,,65,127
71194,note_off,0,0,0,,0,,,60,127
71194,note_off,0,0,0,,8,,,56,127
71195,note_on,1,0,0,,8,,,56,127
71195,note_on,0,0,0,,0,,,60,127
71195,note_on,0,0,0,,5,,,65,127
71195,note_on,0,0,0,,2,,,62,127
71450,note_off,255,0,0,,2,,,62,127
71450,note_off,0,0,0,,5,,,65,127
71450,note_off,0,0,0,,0,,,60,127
71450,note_off,0,0,0,,8,,,56,127
71451,note_on,1,0,0,,12,,,59,127
71451,note_on,0,0,0,,7,,,55,127
71451,note_on,0,0,0,,2,,,62,127
71451,note_on,0,0,0,,5,,,65,127
71535,note_off,84,0,0,,5,,,77,127
71536,note_on,1,0,0,,7,,,79,127
71620,note_off,84,0,0,,7,,,79,127
71621,note_on,1,0,0,,3,,,75,127
71705,note_off,84,0,0,,3,,,75,127
71705,note_off,0,0,0,,5,,,65,127
71705,note_off,0,0,0,,2,,,62,127
71705,note_off,0,0,0,,7,,,55,127
71705,note_off,0,0,0,,12,,,59,127
71706,note_on,1,0,0,,7,,,55,127
71706,note_on,0,0,0,,5,,,65,127
71706,note_on,0,0,0,,2,,,62,127
71706,note_on,0,0,0,,12,,,59,127
71706,note_on,0,0,0,,5,,,77,127
71961,note_off,255,0,0,,12,,,59,127
71961,note_off,0,0,0,,2,,,62,127
71961,note_off,0,0,0,,5,,,65,127
71961,note_off,0,0,0,,7,,,55,127
71962,note_on,1,0,0,,7,,,55,127
71962,note_on,0,0,0,,5,,,65,127
71962,note_on,0,0,0,,2,,,62,127
71962,note_on,0,0,0,,12,,,59,127
72217,note_off,255,0,0,,12,,,59,127
72217,note_off,0,0,0,,2,,,62,127
72217,note_off,0,0,0,,5,,,65,127
72217,note_off,0,0,0,,7,,,55,127
72218,note_on,1,0,0,,5,,,53,127
72218,note_on,0,0,0,,8,,,56,127
72218,note_on,0,0,0,,11,,,58,127
72218,note_on,0,0,0,,2,,,62,127
72302,note_off,84,0,0,,5,,,77,127
72303,note_on,1,0,0,,6,,,78,127
72387,note_off,84,0,0,,6,,,78,127
72388,note_on,1,0,0,,3,,,75,127
72472,note_off,84,0,0,,3,,,75,127
72472,note_off,0,0,0,,2,,,62,127
72472,note_off,0,0,0,,11,,,58,127
72472,note_off,0,0,0,,8,,,56,127
72472,note_off,0,0,0,,5,,,53,127
72473,note_on,1,0,0,,8,,,56,127
72473,note_on,0,0,0,,5,,,53,127
72473,note_on,0,0,0,,2,,,62,127
72473,note_on,0,0,0,,11,,,58,127
72473,note_on,0,0,0,,5,,,77,127
72728,note_off,255,0,0,,11,,,58,127
72728,note_off,0,0,0,,2,,,62,127
72728,note_off,0,0,0,,5,,,53,127
72728,note_off,0,0,0,,8,,,56,127
72729,note_on,1,0,0,,5,,,53,127
72729,note_on,0,0,0,,11,,,58,127
72729,note_on,0,0,0,,8,,,56,127
72729,note_on,0,0,0,,2,,,62,127
72984,note_off,255,0,0,,2,,,62,127
72984,note_off,0,0,0,,8,,,56,127
72984,note_off,0,0,0,,11,,,58,127
72984,note_off,0,0,0,,5,,,53,127
72985,note_on,1,0,0,,12,,,59,127
72985,note_on,0,0,0,,3,,,51,127
72985,note_on,0,0,0,,8,,,56,127
73069,note_off,84,0,0,,5,,,77,127
73070,note_on,1,0,0,,6,,,78,127
73154,note_off,84,0,0,,6,,,78,127
73155,note_on,1,0,0,,3,,,75,127
73239,note_off,84,0,0,,3,,,75,127
73239,note_off,0,0,0,,8,,,56,127
73239,note_off,0,0,0,,3,,,51,127
73239,note_off,0,0,0,,12,,,59,127
73240,note_on,1,0,0,,12,,,59,127
73240,note_on,0,0,0,,3,,,51,127
73240,note_on,0,0,0,,8,,,56,127
73240,note_on,0,0,0,,5,,,77,127
73495,note_off,255,0,0,,8,,,56,127
73495,note_off,0,0,0,,3,,,51,127
73495,note_off,0,0,0,,12,,,59,127
73496,note_on,1,0,0,,12,,,59,127
73496,note_on,0,0,0,,8,,,56,127
73496,note_on,0,0,0,,3,,,51,127
73751,note_off,255,0,0,,3,,,51,127
73751,note_off,0,0,0,,8,,,56,127
73751,note_off,0,0,0,,12,,,59,127
73752,note_on,1,0,0,,11,,,58,127
73752,note_on,0,0,0,,8,,,56,127
73752,note_on,0,0,0,,2,,,50,127
73773,note_off,21,0,0,,5,,,77,127
73837,note_on,64,0,0,,6,,,78,127
73921,note_off,84,0,0,,6,,,78,127
73922,note_on,1,0,0,,3,,,75,127
74006,note_off,84,0,0,,3,,,75,127
74006,note_off,0,0,0,,2,,,50,127
74006,note_off,0,0,0,,8,,,56,127
74006,note_off,0,0,0,,11,,,58,127
74007,note_on,1,0,0,,8,,,56,127
74007,note_on,0,0,0,,2,,,50,127
74007,note_on,0,0,0,,11,,,58,127
74007,note_on,0,0,0,,5,,,77,127
74262,note_off,255,0,0,,11,,,58,127
74262,note_off,0,0,0,,2,,,50,127
74262,note_off,0,0,0,,8,,,56,127
74263,note_on,1,0,0,,2,,,50,127
74263,note_on,0,0,0,,11,,,58,127
74263,note_on,0,0,0,,8,,,56,127
74391,note_off,128,0,0,,5,,,77,127
74518,note_off,127,0,0,,8,,,56,127
74518,note_off,0,0,0,,11,,,58,127
74518,note_off,0,0,0,,2,,,50,127
74519,note_on,1,0,0,,7,,,55,127
74519,note_on,0,0,0,,3,,,51,127
74604,note_on,85,0,0,,7,,,79,127
74688,note_off,84,0,0,,7,,,79,127
74689,note_on,1,0,0,,5,,,77,127
74773,note_off,84,0,0,,5,,,77,127
74773,note_off,0,0,0,,3,,,51,127
74773,note_off,0,0,0,,7,,,55,127
74774,note_on,1,0,0,,5,,,53,127
74774,note_on,0,0,0,,8,,,56,127
74774,note_on,0,0,0,,3,,,75,127
74858,note_off,84,0,0,,3,,,75,127
74859,note_on,1,0,0,,2,,,74,127
74943,note_off,84,0,0,,2,,,74,127
74944,note_on,1,0,0,,0,,,72,127
75028,note_off,84,0,0,,0,,,72,127
75028,note_off,0,0,0,,8,,,56,127
75028,note_off,0,0,0,,5,,,53,127
75029,note_on,1,0,0,,11,,,58,127
75029,note_on,0,0,0,,7,,,55,127
75029,note_on,0,0,0,,11,,,70,127
75113,note_off,84,0,0,,11,,,70,127
75114,note_on,1,0,0,,8,,,68,127
75198,note_off,84,0,0,,8,,,68,127
75199,note_on,1,0,0,,7,,,67,127
75283,note_off,84,0,0,,7,,,67,127
75283,note_off,0,0,0,,7,,,55,127
75283,note_off,0,0,0,,11,,,58,127
75284,note_on,1,0,0,,0,,,60,127
75284,note_on,0,0,0,,8,,,56,127
75284,note_on,0,0,0,,0,,,72,127
75368,note_off,84,0,0,,0,,,72,127
75369,note_on,1,0,0,,11,,,70,127
75453,note_off,84,0,0,,11,,,70,127
75454,note_on,1,0,0,,8,,,68,127
75538,note_off,84,0,0,,8,,,68,127
75538,note_off,0,0,0,,8,,,56,127
75538,note_off,0,0,0,,0,,,60,127
75539,note_on,1,0,0,,11,,,58,127
75539,note_on,0,0,0,,7,,,67,127
75623,note_off,84,0,0,,7,,,67,127
75624,note_on,1,0,0,,5,,,65,127
75708,note_off,84,0,0,,5,,,65,127
75709,note_on,1,0,0,,3,,,63,127
75793,note_off,84,0,0,,3,,,63,127
75794,note_on,1,0,0,,11,,,46,127
75794,note_on,0,0,0,,2,,,62,127
75878,note_off,84,0,0,,2,,,62,127
75879,note_on,1,0,0,,0,,,60,127
75954,note_off,75,0,0,,11,,,58,127
75963,note_off,9,0,0,,0,,,60,127
75964,note_on,1,0,0,,11,,,58,127
76048,note_off,84,0,0,,11,,,58,127
76048,note_off,0,0,0,,11,,,46,127
76049,note_on,1,0,0,,7,,,55,127
76049,note_on,0,0,0,,3,,,51,127
76049,note_on,0,0,0,,5,,,77,127
76133,note_off,84,0,0,,5,,,77,127
76134,note_on,1,0,0,,7,,,79,127
76218,note_off,84,0,0,,7,,,79,127
76219,note_on,1,0,0,,5,,,77,127
76303,note_off,84,0,0,,5,,,77,127
76303,note_off,0,0,0,,3,,,51,127
76303,note_off,0,0,0,,7,,,55,127
76304,note_on,1,0,0,,8,,,56,127
76304,note_on,0,0,0,,5,,,53,127
76304,note_on,0,0,0,,3,,,75,127
76388,note_off,84,0,0,,3,,,75,127
76389,note_on,1,0,0,,2,,,74,127
76473,note_off,84,0,0,,2,,,74,127
76474,note_on,1,0,0,,0,,,72,127
76558,note_off,84,0,0,,0,,,72,127
76558,note_off,0,0,0,,5,,,53,127
76558,note_off,0,0,0,,8,,,56,127
76559,note_on,1,0,0,,7,,,55,127
76559,note_on,0,0,0,,11,,,58,127
76559,note_on,0,0,0,,11,,,70,127
76643,note_off,84,0,0,,11,,,70,127
76644,note_on,1,0,0,,8,,,68,127
76728,note_off,84,0,0,,8,,,68,127
76729,note_on,1,0,0,,7,,,67,127
76813,note_off,84,0,0,,7,,,67,127
76813,note_off,0,0,0,,11,,,58,127
76813,note_off,0,0,0,,7,,,55,127
76814,note_on,1,0,0,,0,,,60,127
76814,note_on,0,0,0,,8,,,56,127
76814,note_on,0,0,0,,0,,,72,127
76898,note_off,84,0,0,,0,,,72,127
76899,note_on,1,0,0,,11,,,70,127
76983,note_off,84,0,0,,11,,,70,127
76984,note_on,1,0,0,,8,,,68,127
77068,note_off,84,0,0,,8,,,68,127
77068,note_off,0,0,0,,8,,,56,127
77068,note_off,0,0,0,,0,,,60,127
77069,note_on,1,0,0,,11,,,58,127
77069,note_on,0,0,0,,7,,,67,127
77153,note_off,84,0,0,,7,,,67,127
77154,note_on,1,0,0,,5,,,65,127
77238,note_off,84,0,0,,5,,,65,127
77239,note_on,1,0,0,,3,,,63,127
77323,note_off,84,0,0,,3,,,63,127
77324,note_on,1,0,0,,11,,,46,127
77324,note_on,0,0,0,,2,,,62,127
77408,note_off,84,0,0,,2,,,62,127
77409,note_on,1,0,0,,3,,,63,127
77493,note_off,84,0,0,,3,,,63,127
77494,note_on,1,0,0,,5,,,65,127
77578,note_off,84,0,0,,5,,,65,127
77578,note_off,0,0,0,,11,,,46,127
77578,note_off,0,0,0,,11,,,58,127
77579,note_on,1,0,0,,3,,,39,127
77579,note_on,0,0,0,,3,,,51,127
77579,note_on,0,0,0,,3,,,63,127
77663,note_off,84,0,0,,3,,,63,127
77664,note_on,1,0,0,,11,,,58,127
77748,note_off,84,0,0,,11,,,58,127
77749,note_on,1,0,0,,3,,,63,127
77833,note_off,84,0,0,,3,,,63,127
77834,note_on,1,0,0,,7,,,67,127
77918,note_off,84,0,0,,7,,,67,127
77919,note_on,1,0,0,,3,,,63,127
78003,note_off,84,0,0,,3,,,63,127
78004,note_on,1,0,0,,7,,,67,127
78088,note_off,84,0,0,,7,,,67,127
78088,note_off,0,0,0,,3,,,51,127
78088,note_off,0,0,0,,3,,,39,127
78089,note_on,1,0,0,,11,,,58,127
78089,note_on,0,0,0,,7,,,55,127
78089,note_on,0,0,0,,3,,,75,127
78344,note_off,255,0,0,,7,,,55,127
78344,note_off,0,0,0,,11,,,58,127
78345,note_on,1,0,0,,8,,,56,127
78345,note_on,0,0,0,,0,,,60,127
78429,note_off,84,0,0,,3,,,75,127
78430,note_on,1,0,0,,5,,,77,127
78514,note_off,84,0,0,,5,,,77,127
78515,note_on,1,0,0,,3,,,75,127
78599,note_off,84,0,0,,3,,,75,127
78599,note_off,0,0,0,,0,,,60,127
78599,note_off,0,0,0,,8,,,56,127
78600,note_on,1,0,0,,11,,,58,127
78600,note_on,0,0,0,,2,,,74,127
78684,note_off,84,0,0,,2,,,74,127
78685,note_on,1,0,0,,0,,,72,127
78769,note_off,84,0,0,,0,,,72,127
78770,note_on,1,0,0,,11,,,70,127
78854,note_off,84,0,0,,11,,,70,127
78855,note_on,1,0,0,,11,,,46,127
78855,note_on,0,0,0,,8,,,68,127
78939,note_off,84,0,0,,8,,,68,127
78940,note_on,1,0,0,,7,,,67,127
79024,note_off,84,0,0,,7,,,67,127
79025,note_on,1,0,0,,5,,,65,127
79109,note_off,84,0,0,,5,,,65,127
79109,note_off,0,0,0,,11,,,46,127
79109,note_off,0,0,0,,11,,,58,127
79110,note_on,1,0,0,,3,,,63,127
79194,note_off,84,0,0,,3,,,63,127
79195,note_on,1,0,0,,11,,,58,127
79279,note_off,84,0,0,,11,,,58,127
79280,note_on,1,0,0,,3,,,63,127
79364,note_off,84,0,0,,3,,,63,127
79365,note_on,1,0,0,,7,,,67,127
79449,note_off,84,0,0,,7,,,67,127
79450,note_on,1,0,0,,3,,,63,127
79534,note_off,84,0,0,,3,,,63,127
79535,note_on,1,0,0,,7,,,67,127
79619,note_off,84,0,0,,7,,,67,127
79620,note_on,1,0,0,,11,,,58,127
79620,note_on,0,0,0,,7,,,55,127
79620,note_on,0,0,0,,3,,,75,127
79875,note_off,255,0,0,,7,,,55,127
79875,note_off,0,0,0,,11,,,58,127
79876,note_on,1,0,0,,0,,,60,127
79876,note_on,0,0,0,,8,,,56,127
79960,note_off,84,0,0,,3,,,75,127
79961,note_on,1,0,0,,5,,,77,127
80045,note_off,84,0,0,,5,,,77,127
80046,note_on,1,0,0,,3,,,75,127
80130,note_off,84,0,0,,3,,,75,127
80130,note_off,0,0,0,,8,,,56,127
80130,note_off,0,0,0,,0,,,60,127
80131,note_on,1,0,0,,11,,,58,127
80131,note_on,0,0,0,,2,,,74,127
80215,note_off,84,0,0,,2,,,74,127
80216,note_on,1,0,0,,0,,,72,127
80300,note_off,84,0,0,,0,,,72,127
80301,note_on,1,0,0,,11,,,70,127
80385,note_off,84,0,0,,11,,,70,127
80386,note_on,1,0,0,,11,,,46,127
80386,note_on,0,0,0,,8,,,68,127
80470,note_off,84,0,0,,8,,,68,127
80471,note_on,1,0,0,,7,,,67,127
80555,note_off,84,0,0,,7,,,67,127
80556,note_on,1,0,0,,5,,,65,127
80621,note_off,65,0,0,,5,,,65,127
80640,note_off,19,0,0,,11,,,46,127
80640,note_off,0,0,0,,11,,,58,127
80641,note_on,1,0,0,,5,,,77,127
80725,note_off,84,0,0,,5,,,77,127
80726,note_on,1,0,0,,7,,,79,127
80810,note_off,84,0,0,,7,,,79,127
80811,note_on,1,0,0,,5,,,77,127
80895,note_off,84,0,0,,5,,,77,127
80896,note_on,1,0,0,,3,,,51,127
80896,note_on,0,0,0,,3,,,75,127
80980,note_off,84,0,0,,3,,,75,127
80981,note_on,1,0,0,,2,,,74,127
81065,note_off,84,0,0,,2,,,74,127
81066,note_on,1,0,0,,0,,,72,127
81150,note_off,84,0,0,,0,,,72,127
81150,note_off,0,0,0,,3,,,51,127
81151,note_on,1,0,0,,7,,,55,127
81151,note_on,0,0,0,,11,,,70,127
81235,note_off,84,0,0,,11,,,70,127
81236,note_on,1,0,0,,8,,,68,127
81320,note_off,84,0,0,,8,,,68,127
81321,note_on,1,0,0,,7,,,67,127
81405,note_off,84,0,0,,7,,,67,127
81405,note_off,0,0,0,,7,,,55,127
81406,note_on,1,0,0,,8,,,56,127
81406,note_on,0,0,0,,0,,,72,127
81490,note_off,84,0,0,,0,,,72,127
81491,note_on,1,0,0,,11,,,70,127
81575,note_off,84,0,0,,11,,,70,127
81576,note_on,1,0,0,,8,,,68,127
81660,note_off,84,0,0,,8,,,68,127
81660,note_off,0,0,0,,8,,,56,127
81661,note_on,1,0,0,,11,,,58,127
81661,note_on,0,0,0,,7,,,67,127
81745,note_off,84,0,0,,7,,,67,127
81746,note_on,1,0,0,,5,,,65,127
81830,note_off,84,0,0,,5,,,65,127
81831,note_on,1,0,0,,3,,,63,127
81915,note_off,84,0,0,,3,,,63,127
81916,note_on,1,0,0,,11,,,46,127
81916,note_on,0,0,0,,2,,,62,127
82000,note_off,84,0,0,,2,,,62,127
82001,note_on,1,0,0,,0,,,60,127
82076,note_off,75,0,0,,11,,,58,127
82085,note_off,9,0,0,,0,,,60,127
82086,note_on,1,0,0,,11,,,58,127
82171,note_off,85,0,0,,11,,,58,127
82174,note_on,3,0,0,,5,,,65,127
82259,note_off,85,0,0,,5,,,65,127
82262,note_on,3,0,0,,7,,,67,127
82347,note_off,85,0,0,,7,,,67,127
82350,note_on,3,0,0,,5,,,65,127
82426,note_off,76,0,0,,11,,,46,127
82435,note_off,9,0,0,,5,,,65,127
82438,note_on,3,0,0,,3,,,63,127
82438,note_on,0,0,0,,3,,,39,127
82523,note_off,85,0,0,,3,,,63,127
82526,note_on,3,0,0,,2,,,62,127
82611,note_off,85,0,0,,2,,,62,127
82614,note_on,3,0,0,,0,,,60,127
82697,note_off,83,0,0,,3,,,39,127
82700,note_off,3,0,0,,0,,,60,127
82703,note_on,3,0,0,,11,,,58,127
82703,note_on,0,0,0,,7,,,43,127
82788,note_off,85,0,0,,11,,,58,127
82791,note_on,3,0,0,,8,,,56,127
82876,note_off,85,0,0,,8,,,56,127
82879,note_on,3,0,0,,7,,,55,127
82962,note_off,83,0,0,,7,,,43,127
82965,note_off,3,0,0,,7,,,55,127
82968,note_on,3,0,0,,0,,,60,127
82968,note_on,0,0,0,,8,,,44,127
83053,note_off,85,0,0,,0,,,60,127
83056,note_on,3,0,0,,11,,,58,127
83141,note_off,85,0,0,,11,,,58,127
83144,note_on,3,0,0,,8,,,56,127
83227,note_off,83,0,0,,8,,,44,127
83230,note_off,3,0,0,,8,,,56,127
83231,note_on,1,0,0,,7,,,55,127
83231,note_on,0,0,0,,11,,,46,127
83316,note_off,85,0,0,,7,,,55,127
83319,note_on,3,0,0,,5,,,53,127
83404,note_off,85,0,0,,5,,,53,127
83407,note_on,3,0,0,,3,,,51,127
83492,note_off,85,0,0,,3,,,51,127
83495,note_on,3,0,0,,2,,,50,127
83495,note_on,0,0,0,,11,,,34,127
83580,note_off,85,0,0,,2,,,50,127
83583,note_on,3,0,0,,0,,,48,127
83655,note_off,72,0,0,,11,,,46,127
83668,note_off,13,0,0,,0,,,48,127
83671,note_on,3,0,0,,11,,,46,127
83754,note_off,83,0,0,,11,,,34,127
83757,note_off,3,0,0,,11,,,46,127
83760,note_on,3,0,0,,5,,,53,127
83760,note_on,0,0,0,,3,,,39,127
83804,note_on,44,0,0,,3,,,51,127
83823,note_off,19,0,0,,5,,,53,127
83848,note_on,25,0,0,,5,,,53,127
83867,note_off,19,0,0,,3,,,51,127
83892,note_on,25,0,0,,3,,,51,127
83911,note_off,19,0,0,,5,,,53,127
85979,note_off,2068,0,0,,3,,,39,127
85980,note_off,1,0,0,,3,,,51,127
90624,end_of_track,4644,1,0,,,,,,
