tick,type,time,meta,track,program,channel,pitch,tempo,note,velocity
0,copyright,0,1,0,,,,,,
0,program_change,0,0,0,6,0,,,,
0,pitchwheel,0,0,0,,0,0,,,
0,program_change,0,0,0,6,1,,,,
0,pitchwheel,0,0,0,,1,-590,,,
0,program_change,0,0,0,6,2,,,,
0,pitchwheel,0,0,0,,2,-272,,,
0,program_change,0,0,0,6,3,,,,
0,pitchwheel,0,0,0,,3,-353,,,
0,program_change,0,0,0,6,4,,,,
0,pitchwheel,0,0,0,,4,-560,,,
0,program_change,0,0,0,6,5,,,,
0,pitchwheel,0,0,0,,5,-80,,,
0,program_change,0,0,0,6,6,,,,
0,pitchwheel,0,0,0,,6,-625,,,
0,program_change,0,0,0,6,7,,,,
0,pitchwheel,0,0,0,,7,-130,,,
0,program_change,0,0,0,6,8,,,,
0,pitchwheel,0,0,0,,8,-512,,,
0,program_change,0,0,0,6,10,,,,
0,pitchwheel,0,0,0,,10,-464,,,
0,program_change,0,0,0,6,11,,,,
0,pitchwheel,0,0,0,,11,-208,,,
0,program_change,0,0,0,6,12,,,,
0,pitchwheel,0,0,0,,12,-553,,,
0,set_tempo,0,1,0,,,,500000,,
154,note_on,154,0,0,,7,,,79,127
204,note_off,50,0,0,,7,,,79,127
206,note_on,2,0,0,,5,,,77,127
256,note_off,50,0,0,,5,,,77,127
258,note_on,2,0,0,,7,,,79,127
308,note_off,50,0,0,,7,,,79,127
310,note_on,2,0,0,,5,,,77,127
360,note_off,50,0,0,,5,,,77,127
362,note_on,2,0,0,,4,,,76,127
463,note_off,101,0,0,,4,,,76,127
465,note_on,2,0,0,,5,,,77,127
668,note_off,203,0,0,,5,,,77,127
670,note_on,2,0,0,,7,,,79,127
771,note_off,101,0,0,,7,,,79,127
773,note_on,2,0,0,,10,,,81,127
1079,note_off,306,0,0,,10,,,81,127
1081,note_on,2,0,0,,11,,,82,127
1081,note_on,0,0,0,,2,,,74,127
1387,note_off,306,0,0,,2,,,74,127
1387,note_off,0,0,0,,11,,,82,127
1389,note_on,2,0,0,,10,,,81,127
1389,note_on,0,0,0,,0,,,72,127
1695,note_off,306,0,0,,0,,,72,127
1695,note_off,0,0,0,,10,,,81,127
1697,note_on,2,0,0,,7,,,79,127
1697,note_on,0,0,0,,11,,,70,127
2003,note_off,306,0,0,,11,,,70,127
2005,note_on,2,0,0,,10,,,69,127
2311,note_off,306,0,0,,7,,,79,127
2313,note_on,2,0,0,,7,,,79,127
2414,note_off,101,0,0,,7,,,79,127
2416,note_on,2,0,0,,5,,,77,127
2517,note_off,101,0,0,,5,,,77,127
2519,note_on,2,0,0,,4,,,76,127
2620,note_off,101,0,0,,4,,,76,127
2622,note_on,2,0,0,,5,,,77,127
2928,note_off,306,0,0,,5,,,77,127
2928,note_off,0,0,0,,10,,,69,127
2930,note_on,2,0,0,,5,,,65,127
2930,note_on,0,0,0,,11,,,82,127
2980,note_off,50,0,0,,11,,,82,127
2982,note_on,2,0,0,,10,,,81,127
3032,note_off,50,0,0,,10,,,81,127
3034,note_on,2,0,0,,11,,,82,127
3084,note_off,50,0,0,,11,,,82,127
3086,note_on,2,0,0,,10,,,81,127
3136,note_off,50,0,0,,10,,,81,127
3136,note_off,0,0,0,,5,,,65,127
3138,note_on,2,0,0,,4,,,64,127
3138,note_on,0,0,0,,7,,,79,127
3239,note_off,101,0,0,,7,,,79,127
3239,note_off,0,0,0,,4,,,64,127
3241,note_on,2,0,0,,5,,,65,127
3241,note_on,0,0,0,,10,,,81,127
3444,note_off,203,0,0,,10,,,81,127
3444,note_off,0,0,0,,5,,,65,127
3446,note_on,2,0,0,,7,,,67,127
3446,note_on,0,0,0,,11,,,82,127
3547,note_off,101,0,0,,11,,,82,127
3547,note_off,0,0,0,,7,,,67,127
3549,note_on,2,0,0,,10,,,69,127
3549,note_on,0,0,0,,0,,,84,127
3752,note_off,203,0,0,,0,,,84,127
3754,note_on,2,0,0,,2,,,86,127
3855,note_off,101,0,0,,2,,,86,127
3855,note_off,0,0,0,,10,,,69,127
3857,note_on,2,0,0,,2,,,62,127
3857,note_on,0,0,0,,11,,,70,127
3857,note_on,0,0,0,,2,,,74,127
4163,note_off,306,0,0,,11,,,70,127
4163,note_off,0,0,0,,2,,,62,127
4165,note_on,2,0,0,,10,,,69,127
4165,note_on,0,0,0,,0,,,60,127
4471,note_off,306,0,0,,0,,,60,127
4471,note_off,0,0,0,,10,,,69,127
4471,note_off,0,0,0,,2,,,74,127
4473,note_on,2,0,0,,11,,,58,127
4473,note_on,0,0,0,,7,,,67,127
4473,note_on,0,0,0,,4,,,76,127
4779,note_off,306,0,0,,7,,,67,127
4779,note_off,0,0,0,,11,,,58,127
4781,note_on,2,0,0,,10,,,57,127
4781,note_on,0,0,0,,5,,,65,127
5087,note_off,306,0,0,,4,,,76,127
5089,note_on,2,0,0,,7,,,79,127
5190,note_off,101,0,0,,7,,,79,127
5192,note_on,2,0,0,,5,,,77,127
5293,note_off,101,0,0,,5,,,77,127
5295,note_on,2,0,0,,4,,,76,127
5396,note_off,101,0,0,,4,,,76,127
5398,note_on,2,0,0,,5,,,77,127
5654,note_off,256,0,0,,5,,,77,127
5704,note_off,50,0,0,,5,,,65,127
5704,note_off,0,0,0,,10,,,57,127
5706,note_on,2,0,0,,2,,,74,127
5706,note_on,0,0,0,,0,,,72,127
5807,note_off,101,0,0,,0,,,72,127
5807,note_off,0,0,0,,2,,,74,127
5809,note_on,2,0,0,,12,,,71,127
5910,note_off,101,0,0,,12,,,71,127
5912,note_on,2,0,0,,0,,,72,127
6013,note_off,101,0,0,,0,,,72,127
6015,note_on,2,0,0,,10,,,81,127
6321,note_off,306,0,0,,10,,,81,127
6323,note_on,2,0,0,,0,,,72,127
6630,note_on,307,0,0,,0,,,60,127
6937,note_on,307,0,0,,10,,,69,127
7243,note_off,306,0,0,,10,,,69,127
7243,note_off,0,0,0,,0,,,72,127
7245,note_on,2,0,0,,7,,,67,127
7245,note_on,0,0,0,,11,,,70,127
7551,note_off,306,0,0,,11,,,70,127
7551,note_off,0,0,0,,7,,,67,127
7551,note_off,0,0,0,,0,,,60,127
7553,note_on,2,0,0,,4,,,76,127
7553,note_on,0,0,0,,5,,,77,127
7654,note_off,101,0,0,,5,,,77,127
7654,note_off,0,0,0,,4,,,76,127
7656,note_on,2,0,0,,2,,,74,127
7757,note_off,101,0,0,,2,,,74,127
7759,note_on,2,0,0,,4,,,76,127
7860,note_off,101,0,0,,4,,,76,127
7862,note_on,2,0,0,,7,,,79,127
8168,note_off,306,0,0,,7,,,79,127
8170,note_on,2,0,0,,11,,,70,127
8477,note_on,307,0,0,,0,,,60,127
8784,note_on,307,0,0,,7,,,67,127
9090,note_off,306,0,0,,7,,,67,127
9090,note_off,0,0,0,,11,,,70,127
9092,note_on,2,0,0,,5,,,65,127
9092,note_on,0,0,0,,10,,,69,127
9398,note_off,306,0,0,,10,,,69,127
9398,note_off,0,0,0,,5,,,65,127
9398,note_off,0,0,0,,0,,,60,127
9400,note_on,2,0,0,,2,,,74,127
9400,note_on,0,0,0,,0,,,72,127
9501,note_off,101,0,0,,0,,,72,127
9501,note_off,0,0,0,,2,,,74,127
9503,note_on,2,0,0,,12,,,71,127
9604,note_off,101,0,0,,12,,,71,127
9606,note_on,2,0,0,,0,,,72,127
9707,note_off,101,0,0,,0,,,72,127
9709,note_on,2,0,0,,5,,,77,127
10015,note_off,306,0,0,,5,,,77,127
10017,note_on,2,0,0,,10,,,69,127
10324,note_on,307,0,0,,11,,,58,127
10631,note_on,307,0,0,,5,,,65,127
10937,note_off,306,0,0,,5,,,65,127
10937,note_off,0,0,0,,10,,,69,127
10939,note_on,2,0,0,,4,,,64,127
10939,note_on,0,0,0,,7,,,67,127
11245,note_off,306,0,0,,7,,,67,127
11245,note_off,0,0,0,,4,,,64,127
11245,note_off,0,0,0,,11,,,58,127
11247,note_on,2,0,0,,0,,,72,127
11247,note_on,0,0,0,,11,,,70,127
11348,note_off,101,0,0,,11,,,70,127
11348,note_off,0,0,0,,0,,,72,127
11350,note_on,2,0,0,,10,,,69,127
11451,note_off,101,0,0,,10,,,69,127
11453,note_on,2,0,0,,11,,,70,127
11554,note_off,101,0,0,,11,,,70,127
11556,note_on,2,0,0,,2,,,74,127
11862,note_off,306,0,0,,2,,,74,127
11864,note_on,2,0,0,,5,,,65,127
12171,note_on,307,0,0,,12,,,59,127
12477,note_off,306,0,0,,12,,,59,127
12479,note_on,2,0,0,,0,,,60,127
12785,note_off,306,0,0,,5,,,65,127
12787,note_on,2,0,0,,4,,,64,127
13017,note_off,230,0,0,,4,,,64,127
13092,note_off,75,0,0,,0,,,60,127
13094,note_on,2,0,0,,2,,,74,127
13094,note_on,0,0,0,,0,,,72,127
13195,note_off,101,0,0,,0,,,72,127
13195,note_off,0,0,0,,2,,,74,127
13197,note_on,2,0,0,,12,,,71,127
13298,note_off,101,0,0,,12,,,71,127
13300,note_on,2,0,0,,0,,,72,127
13401,note_off,101,0,0,,0,,,72,127
13403,note_on,2,0,0,,3,,,75,127
13709,note_off,306,0,0,,3,,,75,127
13711,note_on,2,0,0,,7,,,67,127
14018,note_on,307,0,0,,8,,,56,127
14325,note_on,307,0,0,,3,,,63,127
14631,note_off,306,0,0,,3,,,63,127
14631,note_off,0,0,0,,7,,,67,127
14633,note_on,2,0,0,,2,,,62,127
14633,note_on,0,0,0,,5,,,65,127
14921,note_off,288,0,0,,5,,,65,127
14939,note_off,18,0,0,,2,,,62,127
14939,note_off,0,0,0,,8,,,56,127
14941,note_on,2,0,0,,3,,,75,127
14941,note_on,0,0,0,,2,,,74,127
15042,note_off,101,0,0,,2,,,74,127
15042,note_off,0,0,0,,3,,,75,127
15044,note_on,2,0,0,,0,,,72,127
15145,note_off,101,0,0,,0,,,72,127
15147,note_on,2,0,0,,2,,,74,127
15248,note_off,101,0,0,,2,,,74,127
15250,note_on,2,0,0,,5,,,77,127
15556,note_off,306,0,0,,5,,,77,127
15558,note_on,2,0,0,,5,,,65,127
15865,note_on,307,0,0,,7,,,55,127
16172,note_on,307,0,0,,2,,,62,127
16478,note_off,306,0,0,,2,,,62,127
16478,note_off,0,0,0,,5,,,65,127
16480,note_on,2,0,0,,0,,,60,127
16480,note_on,0,0,0,,3,,,63,127
16768,note_off,288,0,0,,3,,,63,127
16786,note_off,18,0,0,,0,,,60,127
16786,note_off,0,0,0,,7,,,55,127
16788,note_on,2,0,0,,5,,,77,127
16788,note_on,0,0,0,,3,,,75,127
16889,note_off,101,0,0,,3,,,75,127
16889,note_off,0,0,0,,5,,,77,127
16891,note_on,2,0,0,,2,,,74,127
16992,note_off,101,0,0,,2,,,74,127
16994,note_on,2,0,0,,3,,,75,127
17095,note_off,101,0,0,,3,,,75,127
17097,note_on,2,0,0,,7,,,79,127
17403,note_off,306,0,0,,7,,,79,127
17405,note_on,2,0,0,,3,,,63,127
17712,note_on,307,0,0,,5,,,53,127
18019,note_on,307,0,0,,0,,,60,127
18325,note_off,306,0,0,,0,,,60,127
18325,note_off,0,0,0,,3,,,63,127
18327,note_on,2,0,0,,12,,,59,127
18327,note_on,0,0,0,,2,,,62,127
18615,note_off,288,0,0,,2,,,62,127
18633,note_off,18,0,0,,12,,,59,127
18633,note_off,0,0,0,,5,,,53,127
18635,note_on,2,0,0,,7,,,79,127
18635,note_on,0,0,0,,5,,,77,127
18736,note_off,101,0,0,,5,,,77,127
18736,note_off,0,0,0,,7,,,79,127
18738,note_on,2,0,0,,4,,,76,127
18839,note_off,101,0,0,,4,,,76,127
18841,note_on,2,0,0,,5,,,77,127
18942,note_off,101,0,0,,5,,,77,127
18944,note_on,2,0,0,,8,,,80,127
19250,note_off,306,0,0,,8,,,80,127
19252,note_on,2,0,0,,2,,,62,127
19559,note_on,307,0,0,,3,,,51,127
19865,note_off,306,0,0,,2,,,62,127
19867,note_on,2,0,0,,0,,,60,127
20174,note_on,307,0,0,,8,,,56,127
20480,note_off,306,0,0,,8,,,56,127
20480,note_off,0,0,0,,3,,,51,127
20482,note_on,2,0,0,,2,,,50,127
20482,note_on,0,0,0,,5,,,53,127
20788,note_off,306,0,0,,0,,,60,127
20790,note_on,2,0,0,,12,,,59,127
21096,note_off,306,0,0,,12,,,59,127
21096,note_off,0,0,0,,5,,,53,127
21096,note_off,0,0,0,,2,,,50,127
21098,note_on,2,0,0,,7,,,55,127
21098,note_on,0,0,0,,3,,,51,127
21098,note_on,0,0,0,,0,,,60,127
21404,note_off,306,0,0,,0,,,60,127
21404,note_off,0,0,0,,3,,,51,127
21404,note_off,0,0,0,,7,,,55,127
21406,note_on,2,0,0,,5,,,53,127
21406,note_on,0,0,0,,2,,,50,127
21406,note_on,0,0,0,,2,,,62,127
21507,note_off,101,0,0,,2,,,62,127
21509,note_on,2,0,0,,3,,,63,127
21610,note_off,101,0,0,,3,,,63,127
21612,note_on,2,0,0,,5,,,65,127
21713,note_off,101,0,0,,2,,,50,127
21713,note_off,0,0,0,,5,,,53,127
21715,note_on,2,0,0,,0,,,48,127
21816,note_off,101,0,0,,5,,,65,127
21818,note_on,2,0,0,,3,,,63,127
21919,note_off,101,0,0,,3,,,63,127
21921,note_on,2,0,0,,2,,,62,127
22022,note_off,101,0,0,,2,,,62,127
22024,note_on,2,0,0,,0,,,36,127
22024,note_on,0,0,0,,3,,,63,127
22330,note_off,306,0,0,,3,,,63,127
22330,note_off,0,0,0,,0,,,36,127
22330,note_off,0,0,0,,0,,,48,127
22332,note_on,2,0,0,,7,,,55,127
22332,note_on,0,0,0,,3,,,63,127
22639,note_on,307,0,0,,7,,,43,127
22946,note_on,307,0,0,,2,,,62,127
22956,note_off,10,0,0,,3,,,63,127
23252,note_off,296,0,0,,7,,,43,127
23252,note_off,0,0,0,,7,,,55,127
23254,note_on,2,0,0,,2,,,74,127
23404,note_off,150,0,0,,2,,,62,127
23561,note_on,157,0,0,,7,,,67,127
23561,note_on,0,0,0,,11,,,70,127
23867,note_off,306,0,0,,11,,,70,127
23867,note_off,0,0,0,,7,,,67,127
23869,note_on,2,0,0,,5,,,65,127
23869,note_on,0,0,0,,10,,,69,127
24175,note_off,306,0,0,,10,,,69,127
24175,note_off,0,0,0,,5,,,65,127
24175,note_off,0,0,0,,2,,,74,127
24177,note_on,2,0,0,,3,,,63,127
24177,note_on,0,0,0,,7,,,67,127
24177,note_on,0,0,0,,2,,,74,127
24483,note_off,306,0,0,,2,,,74,127
24483,note_off,0,0,0,,7,,,67,127
24483,note_off,0,0,0,,3,,,63,127
24485,note_on,2,0,0,,2,,,62,127
24485,note_on,0,0,0,,6,,,66,127
24485,note_on,0,0,0,,2,,,74,127
24791,note_off,306,0,0,,2,,,74,127
24791,note_off,0,0,0,,6,,,66,127
24791,note_off,0,0,0,,2,,,62,127
24793,note_on,2,0,0,,0,,,60,127
24793,note_on,0,0,0,,7,,,67,127
24793,note_on,0,0,0,,2,,,74,127
25099,note_off,306,0,0,,2,,,74,127
25099,note_off,0,0,0,,7,,,67,127
25099,note_off,0,0,0,,0,,,60,127
25101,note_on,2,0,0,,11,,,58,127
25101,note_on,0,0,0,,2,,,74,127
25101,note_on,0,0,0,,2,,,62,127
25407,note_off,306,0,0,,2,,,62,127
25407,note_off,0,0,0,,2,,,74,127
25409,note_on,2,0,0,,4,,,64,127
25409,note_on,0,0,0,,2,,,74,127
25715,note_off,306,0,0,,4,,,64,127
25715,note_off,0,0,0,,11,,,58,127
25717,note_on,2,0,0,,0,,,60,127
25717,note_on,0,0,0,,10,,,57,127
25717,note_on,0,0,0,,0,,,72,127
25717,note_on,0,0,0,,6,,,66,127
25871,note_off,154,0,0,,2,,,74,127
26023,note_off,152,0,0,,6,,,66,127
26023,note_off,0,0,0,,0,,,72,127
26023,note_off,0,0,0,,10,,,57,127
26023,note_off,0,0,0,,0,,,60,127
26025,note_on,2,0,0,,7,,,55,127
26025,note_on,0,0,0,,2,,,62,127
26025,note_on,0,0,0,,7,,,67,127
26025,note_on,0,0,0,,2,,,74,127
26126,note_off,101,0,0,,2,,,74,127
26128,note_on,2,0,0,,0,,,72,127
26229,note_off,101,0,0,,0,,,72,127
26231,note_on,2,0,0,,11,,,70,127
26332,note_off,101,0,0,,11,,,70,127
26334,note_on,2,0,0,,0,,,72,127
26435,note_off,101,0,0,,0,,,72,127
26437,note_on,2,0,0,,11,,,70,127
26538,note_off,101,0,0,,11,,,70,127
26540,note_on,2,0,0,,10,,,69,127
26641,note_off,101,0,0,,10,,,69,127
26641,note_off,0,0,0,,7,,,67,127
26643,note_on,2,0,0,,7,,,67,127
26949,note_off,306,0,0,,2,,,62,127
26949,note_off,0,0,0,,7,,,55,127
26951,note_on,2,0,0,,7,,,79,127
27105,note_off,154,0,0,,7,,,67,127
27259,note_on,154,0,0,,0,,,72,127
27259,note_on,0,0,0,,3,,,75,127
27565,note_off,306,0,0,,3,,,75,127
27565,note_off,0,0,0,,0,,,72,127
27567,note_on,2,0,0,,11,,,70,127
27567,note_on,0,0,0,,2,,,74,127
27873,note_off,306,0,0,,2,,,74,127
27873,note_off,0,0,0,,11,,,70,127
27873,note_off,0,0,0,,7,,,79,127
27875,note_on,2,0,0,,8,,,68,127
27875,note_on,0,0,0,,0,,,72,127
27875,note_on,0,0,0,,7,,,79,127
28181,note_off,306,0,0,,7,,,79,127
28181,note_off,0,0,0,,0,,,72,127
28181,note_off,0,0,0,,8,,,68,127
28183,note_on,2,0,0,,7,,,67,127
28183,note_on,0,0,0,,7,,,79,127
28183,note_on,0,0,0,,12,,,71,127
28489,note_off,306,0,0,,12,,,71,127
28489,note_off,0,0,0,,7,,,79,127
28489,note_off,0,0,0,,7,,,67,127
28491,note_on,2,0,0,,5,,,65,127
28491,note_on,0,0,0,,0,,,72,127
28491,note_on,0,0,0,,7,,,79,127
28797,note_off,306,0,0,,7,,,79,127
28797,note_off,0,0,0,,0,,,72,127
28797,note_off,0,0,0,,5,,,65,127
28799,note_on,2,0,0,,3,,,63,127
28799,note_on,0,0,0,,7,,,79,127
28799,note_on,0,0,0,,7,,,67,127
29105,note_off,306,0,0,,7,,,67,127
29105,note_off,0,0,0,,7,,,79,127
29107,note_on,2,0,0,,7,,,79,127
29107,note_on,0,0,0,,10,,,69,127
29413,note_off,306,0,0,,10,,,69,127
29413,note_off,0,0,0,,3,,,63,127
29415,note_on,2,0,0,,2,,,62,127
29415,note_on,0,0,0,,5,,,65,127
29415,note_on,0,0,0,,12,,,71,127
29415,note_on,0,0,0,,5,,,77,127
29569,note_off,154,0,0,,7,,,79,127
29721,note_off,152,0,0,,5,,,77,127
29721,note_off,0,0,0,,12,,,71,127
29721,note_off,0,0,0,,5,,,65,127
29721,note_off,0,0,0,,2,,,62,127
29723,note_on,2,0,0,,7,,,67,127
29723,note_on,0,0,0,,0,,,60,127
29723,note_on,0,0,0,,0,,,72,127
29723,note_on,0,0,0,,7,,,79,127
29824,note_off,101,0,0,,7,,,79,127
29826,note_on,2,0,0,,5,,,77,127
29927,note_off,101,0,0,,5,,,77,127
29929,note_on,2,0,0,,3,,,75,127
30030,note_off,101,0,0,,3,,,75,127
30032,note_on,2,0,0,,5,,,77,127
30133,note_off,101,0,0,,5,,,77,127
30135,note_on,2,0,0,,3,,,75,127
30236,note_off,101,0,0,,3,,,75,127
30238,note_on,2,0,0,,2,,,74,127
30339,note_off,101,0,0,,2,,,74,127
30339,note_off,0,0,0,,0,,,72,127
30341,note_on,2,0,0,,0,,,72,127
30647,note_off,306,0,0,,0,,,60,127
30647,note_off,0,0,0,,7,,,67,127
30649,note_on,2,0,0,,0,,,84,127
30803,note_off,154,0,0,,0,,,72,127
30957,note_on,154,0,0,,5,,,77,127
30957,note_on,0,0,0,,8,,,80,127
31263,note_off,306,0,0,,8,,,80,127
31263,note_off,0,0,0,,5,,,77,127
31265,note_on,2,0,0,,3,,,75,127
31265,note_on,0,0,0,,7,,,79,127
31571,note_off,306,0,0,,7,,,79,127
31571,note_off,0,0,0,,3,,,75,127
31571,note_off,0,0,0,,0,,,84,127
31573,note_on,2,0,0,,1,,,73,127
31573,note_on,0,0,0,,5,,,77,127
31573,note_on,0,0,0,,0,,,84,127
31879,note_off,306,0,0,,0,,,84,127
31879,note_off,0,0,0,,5,,,77,127
31879,note_off,0,0,0,,1,,,73,127
31881,note_on,2,0,0,,0,,,72,127
31881,note_on,0,0,0,,0,,,84,127
31881,note_on,0,0,0,,4,,,76,127
32187,note_off,306,0,0,,4,,,76,127
32187,note_off,0,0,0,,0,,,84,127
32187,note_off,0,0,0,,0,,,72,127
32189,note_on,2,0,0,,11,,,70,127
32189,note_on,0,0,0,,0,,,84,127
32189,note_on,0,0,0,,5,,,77,127
32495,note_off,306,0,0,,5,,,77,127
32495,note_off,0,0,0,,0,,,84,127
32495,note_off,0,0,0,,11,,,70,127
32497,note_on,2,0,0,,8,,,68,127
32497,note_on,0,0,0,,0,,,84,127
32497,note_on,0,0,0,,0,,,72,127
32803,note_off,306,0,0,,0,,,72,127
32803,note_off,0,0,0,,0,,,84,127
32805,note_on,2,0,0,,0,,,84,127
32805,note_on,0,0,0,,2,,,74,127
33111,note_off,306,0,0,,2,,,74,127
33111,note_off,0,0,0,,8,,,68,127
33113,note_on,2,0,0,,7,,,67,127
33113,note_on,0,0,0,,11,,,70,127
33113,note_on,0,0,0,,4,,,76,127
33113,note_on,0,0,0,,11,,,82,127
33267,note_off,154,0,0,,0,,,84,127
33419,note_off,152,0,0,,11,,,82,127
33419,note_off,0,0,0,,4,,,76,127
33419,note_off,0,0,0,,11,,,70,127
33419,note_off,0,0,0,,7,,,67,127
33421,note_on,2,0,0,,0,,,72,127
33421,note_on,0,0,0,,5,,,65,127
33421,note_on,0,0,0,,5,,,77,127
33421,note_on,0,0,0,,0,,,84,127
33522,note_off,101,0,0,,0,,,84,127
33524,note_on,2,0,0,,11,,,82,127
33625,note_off,101,0,0,,11,,,82,127
33627,note_on,2,0,0,,8,,,80,127
33728,note_off,101,0,0,,8,,,80,127
33730,note_on,2,0,0,,11,,,82,127
33831,note_off,101,0,0,,11,,,82,127
33833,note_on,2,0,0,,8,,,80,127
33934,note_off,101,0,0,,8,,,80,127
33936,note_on,2,0,0,,7,,,79,127
34037,note_off,101,0,0,,7,,,79,127
34037,note_off,0,0,0,,5,,,77,127
34039,note_on,2,0,0,,5,,,77,127
34295,note_off,256,0,0,,5,,,77,127
34345,note_off,50,0,0,,5,,,65,127
34345,note_off,0,0,0,,0,,,72,127
34347,note_on,2,0,0,,11,,,70,127
34654,note_on,307,0,0,,2,,,62,127
34654,note_on,0,0,0,,11,,,82,127
34955,note_off,301,0,0,,11,,,70,127
34960,note_off,5,0,0,,2,,,62,127
34962,note_on,2,0,0,,11,,,58,127
35268,note_off,306,0,0,,11,,,58,127
35270,note_on,2,0,0,,3,,,63,127
35576,note_off,306,0,0,,3,,,63,127
35576,note_off,0,0,0,,11,,,82,127
35578,note_on,2,0,0,,5,,,65,127
35578,note_on,0,0,0,,7,,,79,127
35884,note_off,306,0,0,,7,,,79,127
35884,note_off,0,0,0,,5,,,65,127
35886,note_on,2,0,0,,7,,,67,127
35886,note_on,0,0,0,,3,,,75,127
36192,note_off,306,0,0,,3,,,75,127
36192,note_off,0,0,0,,7,,,67,127
36194,note_on,2,0,0,,8,,,68,127
36194,note_on,0,0,0,,0,,,72,127
36500,note_off,306,0,0,,0,,,72,127
36500,note_off,0,0,0,,8,,,68,127
36502,note_on,2,0,0,,11,,,70,127
36502,note_on,0,0,0,,3,,,75,127
36577,note_off,75,0,0,,3,,,75,127
36579,note_on,2,0,0,,2,,,74,127
36654,note_off,75,0,0,,2,,,74,127
36656,note_on,2,0,0,,3,,,75,127
36731,note_off,75,0,0,,3,,,75,127
36733,note_on,2,0,0,,2,,,74,127
36808,note_off,75,0,0,,2,,,74,127
36808,note_off,0,0,0,,11,,,70,127
36810,note_on,2,0,0,,8,,,68,127
36810,note_on,0,0,0,,3,,,75,127
36885,note_off,75,0,0,,3,,,75,127
36887,note_on,2,0,0,,2,,,74,127
36962,note_off,75,0,0,,2,,,74,127
36964,note_on,2,0,0,,0,,,72,127
37039,note_off,75,0,0,,0,,,72,127
37041,note_on,2,0,0,,2,,,74,127
37116,note_off,75,0,0,,2,,,74,127
37116,note_off,0,0,0,,8,,,68,127
37118,note_on,2,0,0,,7,,,67,127
37118,note_on,0,0,0,,4,,,76,127
37424,note_off,306,0,0,,4,,,76,127
37424,note_off,0,0,0,,7,,,67,127
37426,note_on,2,0,0,,5,,,65,127
37426,note_on,0,0,0,,5,,,77,127
37732,note_off,306,0,0,,5,,,77,127
37732,note_off,0,0,0,,5,,,65,127
37734,note_on,2,0,0,,4,,,64,127
37734,note_on,0,0,0,,7,,,79,127
38006,note_off,272,0,0,,7,,,79,127
38040,note_off,34,0,0,,4,,,64,127
38042,note_on,2,0,0,,0,,,72,127
38349,note_on,307,0,0,,4,,,64,127
38349,note_on,0,0,0,,0,,,84,127
38650,note_off,301,0,0,,0,,,72,127
38655,note_off,5,0,0,,4,,,64,127
38657,note_on,2,0,0,,0,,,60,127
38963,note_off,306,0,0,,0,,,60,127
38965,note_on,2,0,0,,5,,,65,127
39271,note_off,306,0,0,,5,,,65,127
39271,note_off,0,0,0,,0,,,84,127
39273,note_on,2,0,0,,7,,,67,127
39273,note_on,0,0,0,,8,,,80,127
39579,note_off,306,0,0,,8,,,80,127
39579,note_off,0,0,0,,7,,,67,127
39581,note_on,2,0,0,,8,,,68,127
39581,note_on,0,0,0,,5,,,77,127
39887,note_off,306,0,0,,5,,,77,127
39887,note_off,0,0,0,,8,,,68,127
39889,note_on,2,0,0,,11,,,70,127
39889,note_on,0,0,0,,2,,,74,127
40195,note_off,306,0,0,,2,,,74,127
40195,note_off,0,0,0,,11,,,70,127
40197,note_on,2,0,0,,0,,,72,127
40197,note_on,0,0,0,,5,,,77,127
40272,note_off,75,0,0,,5,,,77,127
40274,note_on,2,0,0,,4,,,76,127
40349,note_off,75,0,0,,4,,,76,127
40351,note_on,2,0,0,,5,,,77,127
40426,note_off,75,0,0,,5,,,77,127
40428,note_on,2,0,0,,4,,,76,127
40503,note_off,75,0,0,,4,,,76,127
40503,note_off,0,0,0,,0,,,72,127
40505,note_on,2,0,0,,11,,,70,127
40505,note_on,0,0,0,,5,,,77,127
40580,note_off,75,0,0,,5,,,77,127
40582,note_on,2,0,0,,4,,,76,127
40657,note_off,75,0,0,,4,,,76,127
40659,note_on,2,0,0,,2,,,74,127
40734,note_off,75,0,0,,2,,,74,127
40736,note_on,2,0,0,,4,,,76,127
40811,note_off,75,0,0,,4,,,76,127
40811,note_off,0,0,0,,11,,,70,127
40813,note_on,2,0,0,,10,,,69,127
40813,note_on,0,0,0,,6,,,78,127
41119,note_off,306,0,0,,6,,,78,127
41119,note_off,0,0,0,,10,,,69,127
41121,note_on,2,0,0,,7,,,67,127
41121,note_on,0,0,0,,7,,,79,127
41427,note_off,306,0,0,,7,,,79,127
41427,note_off,0,0,0,,7,,,67,127
41429,note_on,2,0,0,,6,,,66,127
41429,note_on,0,0,0,,10,,,81,127
41735,note_off,306,0,0,,10,,,81,127
41735,note_off,0,0,0,,6,,,66,127
41737,note_on,2,0,0,,2,,,74,127
42044,note_on,307,0,0,,6,,,66,127
42044,note_on,0,0,0,,2,,,86,127
42350,note_off,306,0,0,,6,,,66,127
42352,note_on,2,0,0,,2,,,62,127
42658,note_off,306,0,0,,2,,,62,127
42658,note_off,0,0,0,,2,,,74,127
42660,note_on,2,0,0,,7,,,67,127
42966,note_off,306,0,0,,7,,,67,127
42966,note_off,0,0,0,,2,,,86,127
42968,note_on,2,0,0,,10,,,69,127
42968,note_on,0,0,0,,11,,,82,127
43274,note_off,306,0,0,,11,,,82,127
43274,note_off,0,0,0,,10,,,69,127
43276,note_on,2,0,0,,11,,,70,127
43276,note_on,0,0,0,,7,,,79,127
43582,note_off,306,0,0,,7,,,79,127
43582,note_off,0,0,0,,11,,,70,127
43584,note_on,2,0,0,,0,,,72,127
43584,note_on,0,0,0,,4,,,76,127
43890,note_off,306,0,0,,4,,,76,127
43890,note_off,0,0,0,,0,,,72,127
43892,note_on,2,0,0,,2,,,74,127
43892,note_on,0,0,0,,7,,,79,127
43967,note_off,75,0,0,,7,,,79,127
43969,note_on,2,0,0,,6,,,78,127
44044,note_off,75,0,0,,6,,,78,127
44046,note_on,2,0,0,,7,,,79,127
44121,note_off,75,0,0,,7,,,79,127
44123,note_on,2,0,0,,6,,,78,127
44198,note_off,75,0,0,,6,,,78,127
44198,note_off,0,0,0,,2,,,74,127
44200,note_on,2,0,0,,0,,,72,127
44200,note_on,0,0,0,,7,,,79,127
44275,note_off,75,0,0,,7,,,79,127
44277,note_on,2,0,0,,6,,,78,127
44352,note_off,75,0,0,,6,,,78,127
44354,note_on,2,0,0,,4,,,76,127
44429,note_off,75,0,0,,4,,,76,127
44431,note_on,2,0,0,,6,,,78,127
44506,note_off,75,0,0,,6,,,78,127
44506,note_off,0,0,0,,0,,,72,127
44508,note_on,2,0,0,,12,,,71,127
44508,note_on,0,0,0,,7,,,79,127
44814,note_off,306,0,0,,7,,,79,127
44816,note_on,2,0,0,,2,,,74,127
44968,note_off,152,0,0,,2,,,74,127
44970,note_on,2,0,0,,5,,,77,127
45122,note_off,152,0,0,,5,,,77,127
45122,note_off,0,0,0,,12,,,71,127
45124,note_on,2,0,0,,0,,,72,127
45124,note_on,0,0,0,,4,,,76,127
45276,note_off,152,0,0,,4,,,76,127
45278,note_on,2,0,0,,7,,,79,127
45430,note_off,152,0,0,,7,,,79,127
45430,note_off,0,0,0,,0,,,72,127
45432,note_on,2,0,0,,2,,,74,127
45432,note_on,0,0,0,,5,,,77,127
45738,note_off,306,0,0,,2,,,74,127
45740,note_on,2,0,0,,0,,,72,127
45817,note_off,77,0,0,,5,,,77,127
45817,note_on,0,0,0,,4,,,76,127
45892,note_off,75,0,0,,4,,,76,127
45894,note_on,2,0,0,,5,,,77,127
45969,note_off,75,0,0,,5,,,77,127
45971,note_on,2,0,0,,4,,,76,127
46046,note_off,75,0,0,,4,,,76,127
46046,note_off,0,0,0,,0,,,72,127
46048,note_on,2,0,0,,0,,,60,127
46048,note_on,0,0,0,,5,,,77,127
46123,note_off,75,0,0,,5,,,77,127
46125,note_on,2,0,0,,4,,,76,127
46200,note_off,75,0,0,,4,,,76,127
46202,note_on,2,0,0,,2,,,74,127
46277,note_off,75,0,0,,2,,,74,127
46279,note_on,2,0,0,,4,,,76,127
46354,note_off,75,0,0,,0,,,60,127
46356,note_on,2,0,0,,7,,,55,127
46663,note_on,307,0,0,,7,,,43,127
46970,note_on,307,0,0,,2,,,74,127
46991,note_off,21,0,0,,4,,,76,127
47242,note_off,251,0,0,,2,,,74,127
47276,note_off,34,0,0,,7,,,43,127
47276,note_off,0,0,0,,7,,,55,127
47278,note_on,2,0,0,,0,,,48,127
47584,note_off,306,0,0,,0,,,48,127
47586,note_on,2,0,0,,0,,,48,127
47586,note_on,0,0,0,,0,,,60,127
47586,note_on,0,0,0,,0,,,72,127
47586,note_on,0,0,0,,4,,,76,127
47892,note_off,306,0,0,,0,,,60,127
47892,note_off,0,0,0,,0,,,48,127
47894,note_on,2,0,0,,12,,,47,127
47894,note_on,0,0,0,,12,,,59,127
48200,note_off,306,0,0,,12,,,59,127
48200,note_off,0,0,0,,12,,,47,127
48202,note_on,2,0,0,,10,,,57,127
48202,note_on,0,0,0,,10,,,45,127
48303,note_off,101,0,0,,0,,,72,127
48305,note_on,2,0,0,,12,,,71,127
48406,note_off,101,0,0,,12,,,71,127
48408,note_on,2,0,0,,0,,,72,127
48509,note_off,101,0,0,,0,,,72,127
48509,note_off,0,0,0,,10,,,45,127
48509,note_off,0,0,0,,10,,,57,127
48509,note_off,0,0,0,,4,,,76,127
48511,note_on,2,0,0,,7,,,43,127
48511,note_on,0,0,0,,7,,,55,127
48511,note_on,0,0,0,,2,,,74,127
48511,note_on,0,0,0,,5,,,77,127
48612,note_off,101,0,0,,2,,,74,127
48614,note_on,2,0,0,,0,,,72,127
48715,note_off,101,0,0,,0,,,72,127
48717,note_on,2,0,0,,2,,,74,127
48818,note_off,101,0,0,,2,,,74,127
48818,note_off,0,0,0,,5,,,77,127
48818,note_off,0,0,0,,7,,,55,127
48818,note_off,0,0,0,,7,,,43,127
48820,note_on,2,0,0,,5,,,41,127
48820,note_on,0,0,0,,5,,,53,127
48820,note_on,0,0,0,,4,,,76,127
48820,note_on,0,0,0,,7,,,79,127
49126,note_off,306,0,0,,5,,,53,127
49126,note_off,0,0,0,,5,,,41,127
49128,note_on,2,0,0,,4,,,52,127
49128,note_on,0,0,0,,4,,,40,127
49282,note_off,154,0,0,,7,,,79,127
49282,note_off,0,0,0,,4,,,76,127
49434,note_off,152,0,0,,4,,,40,127
49434,note_off,0,0,0,,4,,,52,127
49436,note_on,2,0,0,,10,,,45,127
49436,note_on,0,0,0,,10,,,57,127
49436,note_on,0,0,0,,4,,,76,127
49436,note_on,0,0,0,,0,,,72,127
49742,note_off,306,0,0,,10,,,57,127
49742,note_off,0,0,0,,10,,,45,127
49744,note_on,2,0,0,,7,,,43,127
49744,note_on,0,0,0,,7,,,55,127
50050,note_off,306,0,0,,7,,,55,127
50050,note_off,0,0,0,,7,,,43,127
50052,note_on,2,0,0,,5,,,53,127
50052,note_on,0,0,0,,5,,,41,127
50153,note_off,101,0,0,,0,,,72,127
50155,note_on,2,0,0,,12,,,71,127
50256,note_off,101,0,0,,12,,,71,127
50258,note_on,2,0,0,,0,,,72,127
50359,note_off,101,0,0,,0,,,72,127
50359,note_off,0,0,0,,5,,,41,127
50359,note_off,0,0,0,,5,,,53,127
50359,note_off,0,0,0,,4,,,76,127
50361,note_on,2,0,0,,4,,,52,127
50361,note_on,0,0,0,,4,,,40,127
50361,note_on,0,0,0,,2,,,74,127
50361,note_on,0,0,0,,5,,,77,127
50462,note_off,101,0,0,,2,,,74,127
50464,note_on,2,0,0,,0,,,72,127
50565,note_off,101,0,0,,0,,,72,127
50567,note_on,2,0,0,,2,,,74,127
50668,note_off,101,0,0,,2,,,74,127
50668,note_off,0,0,0,,5,,,77,127
50668,note_off,0,0,0,,4,,,40,127
50668,note_off,0,0,0,,4,,,52,127
50670,note_on,2,0,0,,2,,,38,127
50670,note_on,0,0,0,,2,,,50,127
50670,note_on,0,0,0,,7,,,79,127
50670,note_on,0,0,0,,4,,,76,127
50976,note_off,306,0,0,,2,,,50,127
50976,note_off,0,0,0,,2,,,38,127
50978,note_on,2,0,0,,0,,,48,127
50978,note_on,0,0,0,,0,,,36,127
51132,note_off,154,0,0,,4,,,76,127
51132,note_off,0,0,0,,7,,,79,127
51284,note_off,152,0,0,,0,,,36,127
51284,note_off,0,0,0,,0,,,48,127
51286,note_on,2,0,0,,0,,,48,127
51286,note_on,0,0,0,,0,,,60,127
51286,note_on,0,0,0,,4,,,76,127
51286,note_on,0,0,0,,0,,,72,127
51592,note_off,306,0,0,,0,,,60,127
51592,note_off,0,0,0,,0,,,48,127
51594,note_on,2,0,0,,12,,,59,127
51594,note_on,0,0,0,,12,,,47,127
51900,note_off,306,0,0,,12,,,47,127
51900,note_off,0,0,0,,12,,,59,127
51902,note_on,2,0,0,,10,,,45,127
51902,note_on,0,0,0,,10,,,57,127
52003,note_off,101,0,0,,0,,,72,127
52005,note_on,2,0,0,,12,,,71,127
52106,note_off,101,0,0,,12,,,71,127
52108,note_on,2,0,0,,0,,,72,127
52209,note_off,101,0,0,,0,,,72,127
52209,note_off,0,0,0,,10,,,57,127
52209,note_off,0,0,0,,10,,,45,127
52209,note_off,0,0,0,,4,,,76,127
52211,note_on,2,0,0,,7,,,43,127
52211,note_on,0,0,0,,7,,,55,127
52211,note_on,0,0,0,,2,,,74,127
52211,note_on,0,0,0,,5,,,77,127
52312,note_off,101,0,0,,2,,,74,127
52314,note_on,2,0,0,,0,,,72,127
52415,note_off,101,0,0,,0,,,72,127
52417,note_on,2,0,0,,2,,,74,127
52518,note_off,101,0,0,,2,,,74,127
52518,note_off,0,0,0,,5,,,77,127
52518,note_off,0,0,0,,7,,,55,127
52518,note_off,0,0,0,,7,,,43,127
52520,note_on,2,0,0,,5,,,41,127
52520,note_on,0,0,0,,5,,,53,127
52520,note_on,0,0,0,,7,,,79,127
52520,note_on,0,0,0,,4,,,76,127
52826,note_off,306,0,0,,5,,,53,127
52826,note_off,0,0,0,,5,,,41,127
52828,note_on,2,0,0,,4,,,52,127
52828,note_on,0,0,0,,4,,,40,127
52982,note_off,154,0,0,,4,,,76,127
52982,note_off,0,0,0,,7,,,79,127
53134,note_off,152,0,0,,4,,,40,127
53134,note_off,0,0,0,,4,,,52,127
53136,note_on,2,0,0,,10,,,45,127
53136,note_on,0,0,0,,10,,,57,127
53136,note_on,0,0,0,,4,,,76,127
53136,note_on,0,0,0,,0,,,72,127
53442,note_off,306,0,0,,10,,,57,127
53442,note_off,0,0,0,,10,,,45,127
53444,note_on,2,0,0,,7,,,43,127
53444,note_on,0,0,0,,7,,,55,127
53750,note_off,306,0,0,,7,,,55,127
53750,note_off,0,0,0,,7,,,43,127
53752,note_on,2,0,0,,5,,,41,127
53752,note_on,0,0,0,,5,,,53,127
53853,note_off,101,0,0,,0,,,72,127
53855,note_on,2,0,0,,12,,,71,127
53956,note_off,101,0,0,,12,,,71,127
53958,note_on,2,0,0,,0,,,72,127
54059,note_off,101,0,0,,0,,,72,127
54059,note_off,0,0,0,,5,,,53,127
54059,note_off,0,0,0,,5,,,41,127
54059,note_off,0,0,0,,4,,,76,127
54061,note_on,2,0,0,,4,,,52,127
54061,note_on,0,0,0,,4,,,40,127
54061,note_on,0,0,0,,5,,,77,127
54061,note_on,0,0,0,,2,,,74,127
54162,note_off,101,0,0,,2,,,74,127
54164,note_on,2,0,0,,0,,,72,127
54265,note_off,101,0,0,,0,,,72,127
54267,note_on,2,0,0,,2,,,74,127
54368,note_off,101,0,0,,2,,,74,127
54368,note_off,0,0,0,,5,,,77,127
54368,note_off,0,0,0,,4,,,40,127
54368,note_off,0,0,0,,4,,,52,127
54370,note_on,2,0,0,,2,,,38,127
54370,note_on,0,0,0,,2,,,50,127
54370,note_on,0,0,0,,2,,,74,127
54370,note_on,0,0,0,,12,,,83,127
54471,note_off,101,0,0,,2,,,74,127
54473,note_on,2,0,0,,0,,,72,127
54574,note_off,101,0,0,,0,,,72,127
54576,note_on,2,0,0,,2,,,74,127
54677,note_off,101,0,0,,2,,,74,127
54677,note_off,0,0,0,,12,,,83,127
54677,note_off,0,0,0,,2,,,50,127
54677,note_off,0,0,0,,2,,,38,127
54679,note_on,2,0,0,,0,,,36,127
54679,note_on,0,0,0,,0,,,48,127
54679,note_on,0,0,0,,0,,,84,127
54679,note_on,0,0,0,,4,,,76,127
54985,note_off,306,0,0,,0,,,84,127
54985,note_off,0,0,0,,0,,,48,127
54985,note_off,0,0,0,,0,,,36,127
54987,note_on,2,0,0,,2,,,38,127
54987,note_on,0,0,0,,2,,,50,127
54987,note_on,0,0,0,,7,,,79,127
55293,note_off,306,0,0,,7,,,79,127
55293,note_off,0,0,0,,2,,,50,127
55293,note_off,0,0,0,,2,,,38,127
55293,note_off,0,0,0,,4,,,76,127
55295,note_on,2,0,0,,4,,,40,127
55295,note_on,0,0,0,,4,,,52,127
55295,note_on,0,0,0,,0,,,72,127
55601,note_off,306,0,0,,4,,,52,127
55601,note_off,0,0,0,,4,,,40,127
55603,note_on,2,0,0,,5,,,41,127
55603,note_on,0,0,0,,5,,,53,127
55808,note_off,205,0,0,,0,,,72,127
55808,note_on,0,0,0,,2,,,74,127
55858,note_off,50,0,0,,2,,,74,127
55860,note_on,2,0,0,,0,,,72,127
55910,note_off,50,0,0,,0,,,72,127
55910,note_off,0,0,0,,5,,,53,127
55910,note_off,0,0,0,,5,,,41,127
55912,note_on,2,0,0,,7,,,55,127
55912,note_on,0,0,0,,12,,,71,127
55962,note_off,50,0,0,,12,,,71,127
55964,note_on,2,0,0,,0,,,72,127
56014,note_off,50,0,0,,0,,,72,127
56016,note_on,2,0,0,,2,,,74,127
56066,note_off,50,0,0,,2,,,74,127
56068,note_on,2,0,0,,4,,,76,127
56118,note_off,50,0,0,,4,,,76,127
56120,note_on,2,0,0,,2,,,74,127
56170,note_off,50,0,0,,2,,,74,127
56172,note_on,2,0,0,,4,,,76,127
56222,note_off,50,0,0,,4,,,76,127
56222,note_off,0,0,0,,7,,,55,127
56224,note_on,2,0,0,,7,,,43,127
56224,note_on,0,0,0,,2,,,74,127
56274,note_off,50,0,0,,2,,,74,127
56276,note_on,2,0,0,,4,,,76,127
56326,note_off,50,0,0,,4,,,76,127
56328,note_on,2,0,0,,2,,,74,127
56378,note_off,50,0,0,,2,,,74,127
56380,note_on,2,0,0,,4,,,76,127
56430,note_off,50,0,0,,4,,,76,127
56432,note_on,2,0,0,,2,,,74,127
56533,note_off,101,0,0,,7,,,43,127
56535,note_on,2,0,0,,0,,,48,127
56535,note_on,0,0,0,,0,,,72,127
56538,note_off,3,0,0,,2,,,74,127
56839,note_off,301,0,0,,0,,,72,127
56841,note_off,2,0,0,,0,,,48,127
56843,note_on,2,0,0,,0,,,48,127
56843,note_on,0,0,0,,0,,,60,127
56843,note_on,0,0,0,,4,,,76,127
56843,note_on,0,0,0,,0,,,72,127
57149,note_off,306,0,0,,0,,,60,127
57149,note_off,0,0,0,,0,,,48,127
57151,note_on,2,0,0,,12,,,47,127
57151,note_on,0,0,0,,12,,,59,127
57457,note_off,306,0,0,,12,,,59,127
57457,note_off,0,0,0,,12,,,47,127
57459,note_on,2,0,0,,10,,,45,127
57459,note_on,0,0,0,,10,,,57,127
57560,note_off,101,0,0,,0,,,72,127
57562,note_on,2,0,0,,12,,,71,127
57663,note_off,101,0,0,,12,,,71,127
57665,note_on,2,0,0,,0,,,72,127
57766,note_off,101,0,0,,0,,,72,127
57766,note_off,0,0,0,,10,,,57,127
57766,note_off,0,0,0,,10,,,45,127
57766,note_off,0,0,0,,4,,,76,127
57768,note_on,2,0,0,,7,,,43,127
57768,note_on,0,0,0,,7,,,55,127
57768,note_on,0,0,0,,2,,,74,127
57768,note_on,0,0,0,,5,,,77,127
57869,note_off,101,0,0,,2,,,74,127
57871,note_on,2,0,0,,0,,,72,127
57972,note_off,101,0,0,,0,,,72,127
57974,note_on,2,0,0,,2,,,74,127
58075,note_off,101,0,0,,2,,,74,127
58075,note_off,0,0,0,,5,,,77,127
58075,note_off,0,0,0,,7,,,55,127
58075,note_off,0,0,0,,7,,,43,127
58077,note_on,2,0,0,,5,,,53,127
58077,note_on,0,0,0,,5,,,41,127
58077,note_on,0,0,0,,4,,,76,127
58077,note_on,0,0,0,,7,,,79,127
58383,note_off,306,0,0,,5,,,41,127
58383,note_off,0,0,0,,5,,,53,127
58385,note_on,2,0,0,,4,,,52,127
58385,note_on,0,0,0,,4,,,40,127
58539,note_off,154,0,0,,7,,,79,127
58539,note_off,0,0,0,,4,,,76,127
58691,note_off,152,0,0,,4,,,40,127
58691,note_off,0,0,0,,4,,,52,127
58693,note_on,2,0,0,,10,,,45,127
58693,note_on,0,0,0,,10,,,57,127
58693,note_on,0,0,0,,0,,,72,127
58693,note_on,0,0,0,,4,,,76,127
58999,note_off,306,0,0,,10,,,57,127
58999,note_off,0,0,0,,10,,,45,127
59001,note_on,2,0,0,,7,,,43,127
59001,note_on,0,0,0,,7,,,55,127
59307,note_off,306,0,0,,7,,,55,127
59307,note_off,0,0,0,,7,,,43,127
59309,note_on,2,0,0,,5,,,53,127
59309,note_on,0,0,0,,5,,,41,127
59410,note_off,101,0,0,,0,,,72,127
59412,note_on,2,0,0,,12,,,71,127
59513,note_off,101,0,0,,12,,,71,127
59515,note_on,2,0,0,,0,,,72,127
59616,note_off,101,0,0,,0,,,72,127
59616,note_off,0,0,0,,5,,,41,127
59616,note_off,0,0,0,,5,,,53,127
59616,note_off,0,0,0,,4,,,76,127
59618,note_on,2,0,0,,4,,,52,127
59618,note_on,0,0,0,,4,,,40,127
59618,note_on,0,0,0,,2,,,74,127
59618,note_on,0,0,0,,5,,,77,127
59719,note_off,101,0,0,,2,,,74,127
59721,note_on,2,0,0,,0,,,72,127
59822,note_off,101,0,0,,0,,,72,127
59824,note_on,2,0,0,,2,,,74,127
59925,note_off,101,0,0,,2,,,74,127
59925,note_off,0,0,0,,5,,,77,127
59925,note_off,0,0,0,,4,,,40,127
59925,note_off,0,0,0,,4,,,52,127
59927,note_on,2,0,0,,2,,,38,127
59927,note_on,0,0,0,,2,,,50,127
59927,note_on,0,0,0,,2,,,74,127
59927,note_on,0,0,0,,12,,,83,127
60028,note_off,101,0,0,,2,,,74,127
60030,note_on,2,0,0,,0,,,72,127
60131,note_off,101,0,0,,0,,,72,127
60133,note_on,2,0,0,,2,,,74,127
60234,note_off,101,0,0,,2,,,74,127
60234,note_off,0,0,0,,12,,,83,127
60234,note_off,0,0,0,,2,,,50,127
60234,note_off,0,0,0,,2,,,38,127
60236,note_on,2,0,0,,0,,,36,127
60236,note_on,0,0,0,,0,,,48,127
60236,note_on,0,0,0,,0,,,84,127
60236,note_on,0,0,0,,4,,,76,127
60542,note_off,306,0,0,,0,,,84,127
60542,note_off,0,0,0,,0,,,48,127
60542,note_off,0,0,0,,0,,,36,127
60544,note_on,2,0,0,,2,,,50,127
60544,note_on,0,0,0,,2,,,38,127
60544,note_on,0,0,0,,7,,,79,127
60850,note_off,306,0,0,,7,,,79,127
60850,note_off,0,0,0,,2,,,38,127
60850,note_off,0,0,0,,2,,,50,127
60850,note_off,0,0,0,,4,,,76,127
60852,note_on,2,0,0,,4,,,52,127
60852,note_on,0,0,0,,4,,,40,127
60852,note_on,0,0,0,,0,,,72,127
61158,note_off,306,0,0,,4,,,40,127
61158,note_off,0,0,0,,4,,,52,127
61160,note_on,2,0,0,,5,,,41,127
61160,note_on,0,0,0,,5,,,53,127
61365,note_off,205,0,0,,0,,,72,127
61365,note_on,0,0,0,,2,,,74,127
61415,note_off,50,0,0,,2,,,74,127
61417,note_on,2,0,0,,0,,,72,127
61467,note_off,50,0,0,,0,,,72,127
61467,note_off,0,0,0,,5,,,53,127
61467,note_off,0,0,0,,5,,,41,127
61469,note_on,2,0,0,,7,,,55,127
61469,note_on,0,0,0,,12,,,71,127
61519,note_off,50,0,0,,12,,,71,127
61521,note_on,2,0,0,,0,,,72,127
61571,note_off,50,0,0,,0,,,72,127
61573,note_on,2,0,0,,2,,,74,127
61623,note_off,50,0,0,,2,,,74,127
61625,note_on,2,0,0,,4,,,76,127
61675,note_off,50,0,0,,4,,,76,127
61677,note_on,2,0,0,,2,,,74,127
61727,note_off,50,0,0,,2,,,74,127
61729,note_on,2,0,0,,4,,,76,127
61779,note_off,50,0,0,,4,,,76,127
61779,note_off,0,0,0,,7,,,55,127
61781,note_on,2,0,0,,7,,,43,127
61781,note_on,0,0,0,,2,,,74,127
61831,note_off,50,0,0,,2,,,74,127
61833,note_on,2,0,0,,4,,,76,127
61883,note_off,50,0,0,,4,,,76,127
61885,note_on,2,0,0,,2,,,74,127
61935,note_off,50,0,0,,2,,,74,127
61937,note_on,2,0,0,,4,,,76,127
61987,note_off,50,0,0,,4,,,76,127
61989,note_on,2,0,0,,2,,,74,127
62090,note_off,101,0,0,,7,,,43,127
62092,note_on,2,0,0,,0,,,48,127
62092,note_on,0,0,0,,0,,,72,127
62095,note_off,3,0,0,,2,,,74,127
62399,note_on,304,0,0,,10,,,81,127
62553,note_off,154,0,0,,0,,,72,127
62705,note_off,152,0,0,,10,,,81,127
62705,note_off,0,0,0,,0,,,48,127
62707,note_on,2,0,0,,4,,,64,127
62707,note_on,0,0,0,,7,,,79,127
63013,note_off,306,0,0,,7,,,79,127
63013,note_off,0,0,0,,4,,,64,127
63015,note_on,2,0,0,,2,,,62,127
63015,note_on,0,0,0,,7,,,79,127
63015,note_on,0,0,0,,10,,,81,127
63321,note_off,306,0,0,,7,,,79,127
63323,note_on,2,0,0,,5,,,77,127
63424,note_off,101,0,0,,5,,,77,127
63426,note_on,2,0,0,,4,,,76,127
63527,note_off,101,0,0,,4,,,76,127
63529,note_on,2,0,0,,2,,,74,127
63630,note_off,101,0,0,,2,,,74,127
63630,note_off,0,0,0,,10,,,81,127
63630,note_off,0,0,0,,2,,,62,127
63632,note_on,2,0,0,,7,,,55,127
63632,note_on,0,0,0,,2,,,74,127
63632,note_on,0,0,0,,5,,,77,127
63733,note_off,101,0,0,,2,,,74,127
63735,note_on,2,0,0,,0,,,72,127
63836,note_off,101,0,0,,0,,,72,127
63838,note_on,2,0,0,,12,,,71,127
63939,note_off,101,0,0,,12,,,71,127
63939,note_off,0,0,0,,5,,,77,127
63939,note_off,0,0,0,,7,,,55,127
63941,note_on,2,0,0,,0,,,60,127
63941,note_on,0,0,0,,4,,,76,127
63941,note_on,0,0,0,,0,,,72,127
64247,note_off,306,0,0,,4,,,76,127
64249,note_on,2,0,0,,7,,,79,127
64555,note_off,306,0,0,,7,,,79,127
64555,note_off,0,0,0,,0,,,72,127
64555,note_off,0,0,0,,0,,,60,127
64557,note_on,2,0,0,,4,,,52,127
64557,note_on,0,0,0,,7,,,67,127
64557,note_on,0,0,0,,7,,,79,127
64863,note_off,306,0,0,,7,,,79,127
64863,note_off,0,0,0,,7,,,67,127
64863,note_off,0,0,0,,4,,,52,127
64865,note_on,2,0,0,,5,,,53,127
64865,note_on,0,0,0,,7,,,79,127
64865,note_on,0,0,0,,10,,,69,127
65171,note_off,306,0,0,,10,,,69,127
65173,note_on,2,0,0,,10,,,69,127
65274,note_off,101,0,0,,10,,,69,127
65276,note_on,2,0,0,,12,,,71,127
65377,note_off,101,0,0,,12,,,71,127
65379,note_on,2,0,0,,0,,,72,127
65480,note_off,101,0,0,,0,,,72,127
65480,note_off,0,0,0,,7,,,79,127
65480,note_off,0,0,0,,5,,,53,127
65482,note_on,2,0,0,,7,,,55,127
65482,note_on,0,0,0,,5,,,77,127
65482,note_on,0,0,0,,12,,,71,127
65583,note_off,101,0,0,,12,,,71,127
65585,note_on,2,0,0,,0,,,72,127
65686,note_off,101,0,0,,0,,,72,127
65688,note_on,2,0,0,,2,,,74,127
65789,note_off,101,0,0,,2,,,74,127
65789,note_off,0,0,0,,5,,,77,127
65789,note_off,0,0,0,,7,,,55,127
65791,note_on,2,0,0,,0,,,48,127
65791,note_on,0,0,0,,4,,,76,127
65791,note_on,0,0,0,,0,,,72,127
66097,note_off,306,0,0,,0,,,72,127
66097,note_off,0,0,0,,4,,,76,127
66099,note_on,2,0,0,,10,,,69,127
66405,note_off,306,0,0,,10,,,69,127
66405,note_off,0,0,0,,0,,,48,127
66407,note_on,2,0,0,,4,,,52,127
66407,note_on,0,0,0,,7,,,67,127
66713,note_off,306,0,0,,7,,,67,127
66713,note_off,0,0,0,,4,,,52,127
66715,note_on,2,0,0,,2,,,50,127
66715,note_on,0,0,0,,10,,,69,127
66715,note_on,0,0,0,,7,,,67,127
67021,note_off,306,0,0,,7,,,67,127
67023,note_on,2,0,0,,5,,,65,127
67124,note_off,101,0,0,,5,,,65,127
67126,note_on,2,0,0,,4,,,64,127
67227,note_off,101,0,0,,4,,,64,127
67229,note_on,2,0,0,,2,,,62,127
67330,note_off,101,0,0,,2,,,62,127
67330,note_off,0,0,0,,10,,,69,127
67330,note_off,0,0,0,,2,,,50,127
67332,note_on,2,0,0,,7,,,43,127
67332,note_on,0,0,0,,5,,,65,127
67332,note_on,0,0,0,,2,,,62,127
67433,note_off,101,0,0,,2,,,62,127
67435,note_on,2,0,0,,0,,,60,127
67536,note_off,101,0,0,,0,,,60,127
67538,note_on,2,0,0,,12,,,59,127
67639,note_off,101,0,0,,12,,,59,127
67639,note_off,0,0,0,,5,,,65,127
67639,note_off,0,0,0,,7,,,43,127
67641,note_on,2,0,0,,0,,,48,127
67641,note_on,0,0,0,,0,,,60,127
67641,note_on,0,0,0,,4,,,64,127
67947,note_off,306,0,0,,4,,,64,127
67949,note_on,2,0,0,,7,,,67,127
68255,note_off,306,0,0,,7,,,67,127
68255,note_off,0,0,0,,0,,,60,127
68255,note_off,0,0,0,,0,,,48,127
68257,note_on,2,0,0,,4,,,40,127
68257,note_on,0,0,0,,7,,,55,127
68257,note_on,0,0,0,,7,,,67,127
68563,note_off,306,0,0,,7,,,67,127
68563,note_off,0,0,0,,7,,,55,127
68563,note_off,0,0,0,,4,,,40,127
68565,note_on,2,0,0,,5,,,41,127
68565,note_on,0,0,0,,10,,,57,127
68565,note_on,0,0,0,,7,,,67,127
68871,note_off,306,0,0,,10,,,57,127
68873,note_on,2,0,0,,10,,,57,127
68974,note_off,101,0,0,,10,,,57,127
68976,note_on,2,0,0,,12,,,59,127
69077,note_off,101,0,0,,12,,,59,127
69079,note_on,2,0,0,,0,,,60,127
69180,note_off,101,0,0,,0,,,60,127
69180,note_off,0,0,0,,7,,,67,127
69180,note_off,0,0,0,,5,,,41,127
69182,note_on,2,0,0,,7,,,43,127
69182,note_on,0,0,0,,12,,,59,127
69182,note_on,0,0,0,,5,,,65,127
69283,note_off,101,0,0,,12,,,59,127
69285,note_on,2,0,0,,0,,,60,127
69386,note_off,101,0,0,,0,,,60,127
69388,note_on,2,0,0,,2,,,62,127
69489,note_off,101,0,0,,2,,,62,127
69489,note_off,0,0,0,,5,,,65,127
69489,note_off,0,0,0,,7,,,43,127
69491,note_on,2,0,0,,10,,,45,127
69491,note_on,0,0,0,,4,,,64,127
69491,note_on,0,0,0,,0,,,60,127
69592,note_off,101,0,0,,0,,,60,127
69594,note_on,2,0,0,,2,,,62,127
69695,note_off,101,0,0,,2,,,62,127
69695,note_off,0,0,0,,4,,,64,127
69697,note_on,2,0,0,,4,,,64,127
69798,note_off,101,0,0,,4,,,64,127
69798,note_off,0,0,0,,10,,,45,127
69800,note_on,2,0,0,,12,,,47,127
69800,note_on,0,0,0,,2,,,62,127
69901,note_off,101,0,0,,2,,,62,127
69903,note_on,2,0,0,,4,,,64,127
70004,note_off,101,0,0,,4,,,64,127
70006,note_on,2,0,0,,5,,,65,127
70107,note_off,101,0,0,,5,,,65,127
70107,note_off,0,0,0,,12,,,47,127
70109,note_on,2,0,0,,0,,,48,127
70109,note_on,0,0,0,,4,,,64,127
70210,note_off,101,0,0,,4,,,64,127
70212,note_on,2,0,0,,5,,,65,127
70313,note_off,101,0,0,,5,,,65,127
70315,note_on,2,0,0,,7,,,67,127
70416,note_off,101,0,0,,7,,,67,127
70416,note_off,0,0,0,,0,,,48,127
70418,note_on,2,0,0,,5,,,53,127
70418,note_on,0,0,0,,10,,,69,127
70519,note_off,101,0,0,,10,,,69,127
70521,note_on,2,0,0,,5,,,65,127
70622,note_off,101,0,0,,5,,,65,127
70624,note_on,2,0,0,,2,,,62,127
70725,note_off,101,0,0,,2,,,62,127
70725,note_off,0,0,0,,5,,,53,127
70727,note_on,2,0,0,,7,,,55,127
70727,note_on,0,0,0,,0,,,60,127
71034,note_on,307,0,0,,7,,,43,127
71111,note_off,77,0,0,,0,,,60,127
71111,note_on,0,0,0,,12,,,59,127
71186,note_off,75,0,0,,12,,,59,127
71188,note_on,2,0,0,,10,,,57,127
71263,note_off,75,0,0,,10,,,57,127
71265,note_on,2,0,0,,12,,,59,127
71335,note_off,70,0,0,,7,,,55,127
71340,note_off,5,0,0,,7,,,43,127
71342,note_on,2,0,0,,0,,,48,127
71342,note_on,0,0,0,,0,,,36,127
71646,note_off,304,0,0,,12,,,59,127
71649,note_on,3,0,0,,0,,,60,127
72110,note_off,461,0,0,,0,,,60,127
72262,note_off,152,0,0,,0,,,36,127
72262,note_off,0,0,0,,0,,,48,127
72264,note_on,2,0,0,,2,,,74,127
72266,note_on,2,0,0,,0,,,72,127
72365,note_off,99,0,0,,2,,,74,127
72367,note_off,2,0,0,,0,,,72,127
72367,note_on,0,0,0,,12,,,71,127
72468,note_off,101,0,0,,12,,,71,127
72470,note_on,2,0,0,,10,,,69,127
72571,note_off,101,0,0,,10,,,69,127
72573,note_on,2,0,0,,2,,,62,127
72573,note_on,0,0,0,,5,,,65,127
72573,note_on,0,0,0,,5,,,77,127
72573,note_on,0,0,0,,8,,,68,127
72879,note_off,306,0,0,,8,,,68,127
72879,note_off,0,0,0,,5,,,77,127
72879,note_off,0,0,0,,5,,,65,127
72879,note_off,0,0,0,,2,,,62,127
72881,note_on,2,0,0,,4,,,64,127
72881,note_on,0,0,0,,0,,,60,127
72881,note_on,0,0,0,,10,,,69,127
72881,note_on,0,0,0,,4,,,76,127
73187,note_off,306,0,0,,4,,,76,127
73187,note_off,0,0,0,,10,,,69,127
73187,note_off,0,0,0,,0,,,60,127
73187,note_off,0,0,0,,4,,,64,127
73189,note_on,2,0,0,,2,,,62,127
73189,note_on,0,0,0,,12,,,59,127
73189,note_on,0,0,0,,12,,,71,127
73189,note_on,0,0,0,,2,,,74,127
73495,note_off,306,0,0,,2,,,74,127
73495,note_off,0,0,0,,2,,,62,127
73497,note_on,2,0,0,,4,,,64,127
73497,note_on,0,0,0,,8,,,80,127
73798,note_off,301,0,0,,12,,,71,127
73803,note_off,5,0,0,,8,,,80,127
73803,note_off,0,0,0,,4,,,64,127
73803,note_off,0,0,0,,12,,,59,127
73805,note_on,2,0,0,,5,,,65,127
73805,note_on,0,0,0,,10,,,57,127
73805,note_on,0,0,0,,10,,,81,127
74111,note_off,306,0,0,,10,,,81,127
74111,note_off,0,0,0,,10,,,57,127
74111,note_off,0,0,0,,5,,,65,127
74113,note_on,2,0,0,,2,,,62,127
74113,note_on,0,0,0,,12,,,59,127
74113,note_on,0,0,0,,8,,,56,127
74113,note_on,0,0,0,,4,,,64,127
74113,note_on,0,0,0,,12,,,83,127
74419,note_off,306,0,0,,12,,,83,127
74419,note_off,0,0,0,,8,,,56,127
74419,note_off,0,0,0,,12,,,59,127
74421,note_on,2,0,0,,6,,,54,127
74421,note_on,0,0,0,,4,,,76,127
74727,note_off,306,0,0,,4,,,76,127
74727,note_off,0,0,0,,6,,,54,127
74727,note_off,0,0,0,,4,,,64,127
74727,note_off,0,0,0,,2,,,62,127
74729,note_on,2,0,0,,4,,,52,127
74729,note_on,0,0,0,,2,,,74,127
75035,note_off,306,0,0,,4,,,52,127
75037,note_on,2,0,0,,10,,,57,127
75344,note_on,307,0,0,,10,,,45,127
75445,note_off,101,0,0,,2,,,74,127
75447,note_on,2,0,0,,0,,,72,127
75548,note_off,101,0,0,,0,,,72,127
75550,note_on,2,0,0,,12,,,71,127
75651,note_off,101,0,0,,12,,,71,127
75653,note_on,2,0,0,,10,,,69,127
75959,note_off,306,0,0,,10,,,69,127
75959,note_off,0,0,0,,10,,,45,127
75959,note_off,0,0,0,,10,,,57,127
75961,note_on,2,0,0,,2,,,74,127
75961,note_on,0,0,0,,0,,,72,127
76062,note_off,101,0,0,,0,,,72,127
76062,note_off,0,0,0,,2,,,74,127
76064,note_on,2,0,0,,12,,,71,127
76165,note_off,101,0,0,,12,,,71,127
76167,note_on,2,0,0,,10,,,69,127
76268,note_off,101,0,0,,10,,,69,127
76270,note_on,2,0,0,,5,,,65,127
76270,note_on,0,0,0,,2,,,62,127
76270,note_on,0,0,0,,5,,,77,127
76270,note_on,0,0,0,,8,,,68,127
76576,note_off,306,0,0,,8,,,68,127
76576,note_off,0,0,0,,5,,,77,127
76576,note_off,0,0,0,,2,,,62,127
76576,note_off,0,0,0,,5,,,65,127
76578,note_on,2,0,0,,0,,,60,127
76578,note_on,0,0,0,,4,,,64,127
76578,note_on,0,0,0,,10,,,69,127
76578,note_on,0,0,0,,4,,,76,127
76884,note_off,306,0,0,,4,,,76,127
76884,note_off,0,0,0,,10,,,69,127
76884,note_off,0,0,0,,4,,,64,127
76884,note_off,0,0,0,,0,,,60,127
76886,note_on,2,0,0,,12,,,59,127
76886,note_on,0,0,0,,2,,,62,127
76886,note_on,0,0,0,,2,,,74,127
76886,note_on,0,0,0,,12,,,71,127
77192,note_off,306,0,0,,2,,,74,127
77192,note_off,0,0,0,,2,,,62,127
77194,note_on,2,0,0,,4,,,64,127
77194,note_on,0,0,0,,8,,,80,127
77495,note_off,301,0,0,,12,,,71,127
77500,note_off,5,0,0,,8,,,80,127
77500,note_off,0,0,0,,4,,,64,127
77500,note_off,0,0,0,,12,,,59,127
77502,note_on,2,0,0,,10,,,57,127
77502,note_on,0,0,0,,5,,,65,127
77502,note_on,0,0,0,,10,,,81,127
77808,note_off,306,0,0,,10,,,81,127
77808,note_off,0,0,0,,5,,,65,127
77808,note_off,0,0,0,,10,,,57,127
77810,note_on,2,0,0,,8,,,56,127
77810,note_on,0,0,0,,2,,,62,127
77810,note_on,0,0,0,,12,,,59,127
77810,note_on,0,0,0,,4,,,64,127
77810,note_on,0,0,0,,12,,,83,127
78116,note_off,306,0,0,,12,,,83,127
78116,note_off,0,0,0,,12,,,59,127
78116,note_off,0,0,0,,8,,,56,127
78118,note_on,2,0,0,,6,,,54,127
78118,note_on,0,0,0,,4,,,76,127
78424,note_off,306,0,0,,4,,,76,127
78424,note_off,0,0,0,,6,,,54,127
78424,note_off,0,0,0,,4,,,64,127
78424,note_off,0,0,0,,2,,,62,127
78426,note_on,2,0,0,,4,,,52,127
78426,note_on,0,0,0,,2,,,74,127
78732,note_off,306,0,0,,4,,,52,127
78734,note_on,2,0,0,,10,,,57,127
79035,note_off,301,0,0,,2,,,74,127
79041,note_on,6,0,0,,10,,,45,127
79041,note_on,0,0,0,,0,,,72,127
79118,note_on,77,0,0,,2,,,74,127
79121,note_off,3,0,0,,0,,,72,127
79195,note_on,74,0,0,,0,,,72,127
79198,note_off,3,0,0,,2,,,74,127
79272,note_on,74,0,0,,12,,,71,127
79275,note_off,3,0,0,,0,,,72,127
79347,note_off,72,0,0,,12,,,71,127
79349,note_on,2,0,0,,10,,,69,127
79621,note_off,272,0,0,,10,,,69,127
79655,note_off,34,0,0,,10,,,45,127
79655,note_off,0,0,0,,10,,,57,127
79657,note_on,2,0,0,,0,,,72,127
79657,note_on,0,0,0,,2,,,74,127
79758,note_off,101,0,0,,2,,,74,127
79758,note_off,0,0,0,,0,,,72,127
79760,note_on,2,0,0,,12,,,71,127
79861,note_off,101,0,0,,12,,,71,127
79863,note_on,2,0,0,,0,,,72,127
79964,note_off,101,0,0,,0,,,72,127
79966,note_on,2,0,0,,10,,,81,127
80272,note_off,306,0,0,,10,,,81,127
80274,note_on,2,0,0,,0,,,48,127
80274,note_on,0,0,0,,0,,,72,127
80580,note_off,306,0,0,,0,,,48,127
80582,note_on,2,0,0,,2,,,50,127
80888,note_off,306,0,0,,0,,,72,127
80890,note_on,2,0,0,,11,,,58,127
80890,note_on,0,0,0,,1,,,73,127
81196,note_off,306,0,0,,1,,,73,127
81196,note_off,0,0,0,,11,,,58,127
81198,note_on,2,0,0,,2,,,62,127
81198,note_on,0,0,0,,2,,,74,127
81504,note_off,306,0,0,,2,,,74,127
81504,note_off,0,0,0,,2,,,62,127
81504,note_off,0,0,0,,2,,,50,127
81506,note_on,2,0,0,,5,,,77,127
81607,note_off,101,0,0,,5,,,77,127
81609,note_on,2,0,0,,4,,,76,127
81710,note_off,101,0,0,,4,,,76,127
81712,note_on,2,0,0,,5,,,77,127
81813,note_off,101,0,0,,5,,,77,127
81815,note_on,2,0,0,,11,,,82,127
82121,note_off,306,0,0,,11,,,82,127
82123,note_on,2,0,0,,2,,,50,127
82123,note_on,0,0,0,,2,,,74,127
82429,note_off,306,0,0,,2,,,50,127
82431,note_on,2,0,0,,4,,,52,127
82737,note_off,306,0,0,,2,,,74,127
82739,note_on,2,0,0,,7,,,55,127
82739,note_on,0,0,0,,1,,,73,127
83045,note_off,306,0,0,,1,,,73,127
83045,note_off,0,0,0,,7,,,55,127
83047,note_on,2,0,0,,4,,,64,127
83047,note_on,0,0,0,,4,,,76,127
83353,note_off,306,0,0,,4,,,76,127
83353,note_off,0,0,0,,4,,,64,127
83353,note_off,0,0,0,,4,,,52,127
83355,note_on,2,0,0,,5,,,77,127
83355,note_on,0,0,0,,7,,,79,127
83456,note_off,101,0,0,,7,,,79,127
83456,note_off,0,0,0,,5,,,77,127
83458,note_on,2,0,0,,4,,,76,127
83559,note_off,101,0,0,,4,,,76,127
83561,note_on,2,0,0,,5,,,77,127
83662,note_off,101,0,0,,5,,,77,127
83664,note_on,2,0,0,,1,,,85,127
83970,note_off,306,0,0,,1,,,85,127
83972,note_on,2,0,0,,4,,,52,127
83972,note_on,0,0,0,,11,,,82,127
84278,note_off,306,0,0,,4,,,52,127
84280,note_on,2,0,0,,5,,,53,127
84586,note_off,306,0,0,,11,,,82,127
84588,note_on,2,0,0,,2,,,62,127
84588,note_on,0,0,0,,8,,,80,127
84894,note_off,306,0,0,,8,,,80,127
84896,note_on,2,0,0,,10,,,81,127
85202,note_off,306,0,0,,10,,,81,127
85202,note_off,0,0,0,,2,,,62,127
85202,note_off,0,0,0,,5,,,53,127
85204,note_on,2,0,0,,2,,,74,127
85510,note_off,306,0,0,,2,,,74,127
85512,note_on,2,0,0,,5,,,53,127
85512,note_on,0,0,0,,2,,,62,127
85512,note_on,0,0,0,,2,,,86,127
85818,note_off,306,0,0,,2,,,86,127
85818,note_off,0,0,0,,5,,,53,127
85820,note_on,2,0,0,,2,,,50,127
85820,note_on,0,0,0,,0,,,84,127
86126,note_off,306,0,0,,2,,,50,127
86126,note_off,0,0,0,,2,,,62,127
86128,note_on,2,0,0,,2,,,62,127
86128,note_on,0,0,0,,7,,,55,127
86434,note_off,306,0,0,,0,,,84,127
86436,note_on,2,0,0,,11,,,82,127
86742,note_off,306,0,0,,11,,,82,127
86742,note_off,0,0,0,,7,,,55,127
86742,note_off,0,0,0,,2,,,62,127
86744,note_on,2,0,0,,1,,,61,127
86744,note_on,0,0,0,,10,,,57,127
86744,note_on,0,0,0,,10,,,81,127
87050,note_off,306,0,0,,10,,,57,127
87050,note_off,0,0,0,,1,,,61,127
87052,note_on,2,0,0,,11,,,58,127
87358,note_off,306,0,0,,10,,,81,127
87360,note_on,2,0,0,,2,,,62,127
87360,note_on,0,0,0,,7,,,79,127
87512,note_off,152,0,0,,7,,,79,127
87514,note_on,2,0,0,,5,,,77,127
87661,note_off,147,0,0,,11,,,58,127
87666,note_off,5,0,0,,5,,,77,127
87666,note_off,0,0,0,,2,,,62,127
87668,note_on,2,0,0,,7,,,55,127
87668,note_on,0,0,0,,4,,,76,127
87820,note_off,152,0,0,,4,,,76,127
87822,note_on,2,0,0,,5,,,77,127
87974,note_off,152,0,0,,5,,,77,127
87974,note_off,0,0,0,,7,,,55,127
87976,note_on,2,0,0,,10,,,57,127
87976,note_on,0,0,0,,2,,,74,127
88283,note_on,307,0,0,,4,,,64,127
88589,note_off,306,0,0,,4,,,64,127
88589,note_off,0,0,0,,2,,,74,127
88591,note_on,2,0,0,,10,,,69,127
88591,note_on,0,0,0,,1,,,73,127
88847,note_off,256,0,0,,1,,,73,127
88897,note_off,50,0,0,,10,,,69,127
88897,note_off,0,0,0,,10,,,57,127
88899,note_on,2,0,0,,10,,,81,127
89206,note_on,307,0,0,,2,,,74,127
89206,note_on,0,0,0,,5,,,77,127
89512,note_off,306,0,0,,5,,,77,127
89512,note_off,0,0,0,,2,,,74,127
89514,note_on,2,0,0,,0,,,72,127
89514,note_on,0,0,0,,4,,,76,127
89820,note_off,306,0,0,,4,,,76,127
89820,note_off,0,0,0,,0,,,72,127
89820,note_off,0,0,0,,10,,,81,127
89822,note_on,2,0,0,,11,,,70,127
89822,note_on,0,0,0,,10,,,81,127
89822,note_on,0,0,0,,2,,,74,127
90128,note_off,306,0,0,,2,,,74,127
90128,note_off,0,0,0,,10,,,81,127
90128,note_off,0,0,0,,11,,,70,127
90130,note_on,2,0,0,,10,,,69,127
90130,note_on,0,0,0,,1,,,73,127
90130,note_on,0,0,0,,10,,,81,127
90436,note_off,306,0,0,,10,,,81,127
90436,note_off,0,0,0,,1,,,73,127
90436,note_off,0,0,0,,10,,,69,127
90438,note_on,2,0,0,,7,,,67,127
90438,note_on,0,0,0,,10,,,81,127
90438,note_on,0,0,0,,2,,,74,127
90744,note_off,306,0,0,,2,,,74,127
90744,note_off,0,0,0,,10,,,81,127
90744,note_off,0,0,0,,7,,,67,127
90746,note_on,2,0,0,,5,,,65,127
90746,note_on,0,0,0,,10,,,81,127
90746,note_on,0,0,0,,10,,,69,127
91052,note_off,306,0,0,,10,,,69,127
91052,note_off,0,0,0,,10,,,81,127
91054,note_on,2,0,0,,10,,,81,127
91054,note_on,0,0,0,,12,,,71,127
91360,note_off,306,0,0,,12,,,71,127
91360,note_off,0,0,0,,5,,,65,127
91362,note_on,2,0,0,,7,,,67,127
91362,note_on,0,0,0,,4,,,64,127
91362,note_on,0,0,0,,1,,,73,127
91362,note_on,0,0,0,,7,,,79,127
91516,note_off,154,0,0,,10,,,81,127
91668,note_off,152,0,0,,7,,,79,127
91668,note_off,0,0,0,,1,,,73,127
91668,note_off,0,0,0,,4,,,64,127
91668,note_off,0,0,0,,7,,,67,127
91670,note_on,2,0,0,,2,,,62,127
91670,note_on,0,0,0,,10,,,69,127
91670,note_on,0,0,0,,2,,,74,127
91670,note_on,0,0,0,,10,,,81,127
91771,note_off,101,0,0,,10,,,81,127
91773,note_on,2,0,0,,7,,,79,127
91874,note_off,101,0,0,,7,,,79,127
91876,note_on,2,0,0,,5,,,77,127
91977,note_off,101,0,0,,5,,,77,127
91979,note_on,2,0,0,,7,,,79,127
92080,note_off,101,0,0,,7,,,79,127
92082,note_on,2,0,0,,5,,,77,127
92183,note_off,101,0,0,,5,,,77,127
92185,note_on,2,0,0,,4,,,76,127
92286,note_off,101,0,0,,4,,,76,127
92286,note_off,0,0,0,,2,,,74,127
92288,note_on,2,0,0,,2,,,74,127
92594,note_off,306,0,0,,10,,,69,127
92594,note_off,0,0,0,,2,,,62,127
92596,note_on,2,0,0,,2,,,86,127
92897,note_off,301,0,0,,2,,,74,127
92903,note_on,6,0,0,,7,,,79,127
92903,note_on,0,0,0,,11,,,82,127
93209,note_off,306,0,0,,11,,,82,127
93209,note_off,0,0,0,,7,,,79,127
93211,note_on,2,0,0,,5,,,77,127
93211,note_on,0,0,0,,10,,,81,127
93517,note_off,306,0,0,,10,,,81,127
93517,note_off,0,0,0,,5,,,77,127
93517,note_off,0,0,0,,2,,,86,127
93519,note_on,2,0,0,,3,,,75,127
93519,note_on,0,0,0,,2,,,86,127
93519,note_on,0,0,0,,7,,,79,127
93825,note_off,306,0,0,,7,,,79,127
93825,note_off,0,0,0,,2,,,86,127
93825,note_off,0,0,0,,3,,,75,127
93827,note_on,2,0,0,,2,,,74,127
93827,note_on,0,0,0,,2,,,86,127
93827,note_on,0,0,0,,6,,,78,127
94133,note_off,306,0,0,,6,,,78,127
94133,note_off,0,0,0,,2,,,86,127
94133,note_off,0,0,0,,2,,,74,127
94135,note_on,2,0,0,,0,,,72,127
94135,note_on,0,0,0,,2,,,86,127
94135,note_on,0,0,0,,7,,,79,127
94441,note_off,306,0,0,,7,,,79,127
94441,note_off,0,0,0,,2,,,86,127
94441,note_off,0,0,0,,0,,,72,127
94443,note_on,2,0,0,,11,,,70,127
94443,note_on,0,0,0,,2,,,86,127
94443,note_on,0,0,0,,2,,,74,127
94749,note_off,306,0,0,,2,,,74,127
94749,note_off,0,0,0,,2,,,86,127
94751,note_on,2,0,0,,2,,,86,127
94751,note_on,0,0,0,,4,,,76,127
95057,note_off,306,0,0,,4,,,76,127
95057,note_off,0,0,0,,11,,,70,127
95059,note_on,2,0,0,,0,,,72,127
95059,note_on,0,0,0,,10,,,69,127
95059,note_on,0,0,0,,6,,,78,127
95059,note_on,0,0,0,,0,,,84,127
95213,note_off,154,0,0,,2,,,86,127
95365,note_off,152,0,0,,0,,,84,127
95365,note_off,0,0,0,,6,,,78,127
95365,note_off,0,0,0,,10,,,69,127
95365,note_off,0,0,0,,0,,,72,127
95367,note_on,2,0,0,,7,,,67,127
95367,note_on,0,0,0,,2,,,74,127
95367,note_on,0,0,0,,7,,,79,127
95367,note_on,0,0,0,,2,,,86,127
95468,note_off,101,0,0,,2,,,86,127
95470,note_on,2,0,0,,0,,,84,127
95571,note_off,101,0,0,,0,,,84,127
95573,note_on,2,0,0,,11,,,82,127
95674,note_off,101,0,0,,11,,,82,127
95676,note_on,2,0,0,,0,,,84,127
95777,note_off,101,0,0,,0,,,84,127
95779,note_on,2,0,0,,11,,,82,127
95880,note_off,101,0,0,,11,,,82,127
95882,note_on,2,0,0,,10,,,81,127
95983,note_off,101,0,0,,10,,,81,127
95983,note_off,0,0,0,,7,,,79,127
95985,note_on,2,0,0,,7,,,79,127
96291,note_off,306,0,0,,7,,,79,127
96291,note_off,0,0,0,,2,,,74,127
96291,note_off,0,0,0,,7,,,67,127
96293,note_on,2,0,0,,11,,,82,127
96599,note_off,306,0,0,,11,,,82,127
96601,note_on,2,0,0,,2,,,62,127
96601,note_on,0,0,0,,8,,,80,127
96601,note_on,0,0,0,,11,,,82,127
96907,note_off,306,0,0,,11,,,82,127
96907,note_off,0,0,0,,8,,,80,127
96907,note_off,0,0,0,,2,,,62,127
96909,note_on,2,0,0,,11,,,58,127
96909,note_on,0,0,0,,5,,,77,127
96909,note_on,0,0,0,,11,,,82,127
97215,note_off,306,0,0,,11,,,82,127
97215,note_off,0,0,0,,5,,,77,127
97215,note_off,0,0,0,,11,,,58,127
97217,note_on,2,0,0,,3,,,63,127
97217,note_on,0,0,0,,11,,,82,127
97217,note_on,0,0,0,,7,,,79,127
97523,note_off,306,0,0,,7,,,79,127
97523,note_off,0,0,0,,3,,,63,127
97525,note_on,2,0,0,,2,,,62,127
97525,note_on,0,0,0,,5,,,77,127
97831,note_off,306,0,0,,5,,,77,127
97831,note_off,0,0,0,,2,,,62,127
97831,note_off,0,0,0,,11,,,82,127
97833,note_on,2,0,0,,0,,,60,127
97833,note_on,0,0,0,,3,,,75,127
97833,note_on,0,0,0,,10,,,81,127
98139,note_off,306,0,0,,10,,,81,127
98139,note_off,0,0,0,,3,,,75,127
98139,note_off,0,0,0,,0,,,60,127
98141,note_on,2,0,0,,11,,,58,127
98141,note_on,0,0,0,,10,,,81,127
98141,note_on,0,0,0,,3,,,75,127
98447,note_off,306,0,0,,3,,,75,127
98447,note_off,0,0,0,,10,,,81,127
98447,note_off,0,0,0,,11,,,58,127
98449,note_on,2,0,0,,0,,,60,127
98449,note_on,0,0,0,,10,,,57,127
98449,note_on,0,0,0,,2,,,74,127
98449,note_on,0,0,0,,11,,,82,127
98755,note_off,306,0,0,,11,,,82,127
98755,note_off,0,0,0,,2,,,74,127
98755,note_off,0,0,0,,10,,,57,127
98755,note_off,0,0,0,,0,,,60,127
98757,note_on,2,0,0,,11,,,58,127
98757,note_on,0,0,0,,7,,,55,127
98757,note_on,0,0,0,,4,,,76,127
98757,note_on,0,0,0,,11,,,82,127
99063,note_off,306,0,0,,11,,,82,127
99063,note_off,0,0,0,,4,,,76,127
99063,note_off,0,0,0,,7,,,55,127
99063,note_off,0,0,0,,11,,,58,127
99065,note_on,2,0,0,,5,,,53,127
99065,note_on,0,0,0,,0,,,60,127
99065,note_on,0,0,0,,5,,,77,127
99065,note_on,0,0,0,,11,,,82,127
99575,note_off,510,0,0,,5,,,77,127
99577,note_on,2,0,0,,7,,,79,127
99678,note_off,101,0,0,,7,,,79,127
99678,note_off,0,0,0,,11,,,82,127
99680,note_on,2,0,0,,10,,,81,127
99781,note_off,101,0,0,,10,,,81,127
99783,note_on,2,0,0,,11,,,82,127
99884,note_off,101,0,0,,11,,,82,127
99886,note_on,2,0,0,,0,,,84,127
99987,note_off,101,0,0,,0,,,84,127
99987,note_off,0,0,0,,0,,,60,127
99987,note_off,0,0,0,,5,,,53,127
99989,note_on,2,0,0,,11,,,82,127
100295,note_off,306,0,0,,11,,,82,127
100297,note_on,2,0,0,,2,,,62,127
100297,note_on,0,0,0,,8,,,80,127
100297,note_on,0,0,0,,11,,,82,127
100603,note_off,306,0,0,,11,,,82,127
100603,note_off,0,0,0,,8,,,80,127
100603,note_off,0,0,0,,2,,,62,127
100605,note_on,2,0,0,,11,,,58,127
100605,note_on,0,0,0,,11,,,82,127
100605,note_on,0,0,0,,5,,,77,127
100911,note_off,306,0,0,,5,,,77,127
100911,note_off,0,0,0,,11,,,82,127
100911,note_off,0,0,0,,11,,,58,127
100913,note_on,2,0,0,,3,,,63,127
100913,note_on,0,0,0,,11,,,82,127
100913,note_on,0,0,0,,7,,,79,127
101219,note_off,306,0,0,,7,,,79,127
101219,note_off,0,0,0,,3,,,63,127
101221,note_on,2,0,0,,2,,,62,127
101221,note_on,0,0,0,,5,,,77,127
101527,note_off,306,0,0,,5,,,77,127
101527,note_off,0,0,0,,2,,,62,127
101527,note_off,0,0,0,,11,,,82,127
101529,note_on,2,0,0,,0,,,60,127
101529,note_on,0,0,0,,10,,,81,127
101529,note_on,0,0,0,,3,,,75,127
101835,note_off,306,0,0,,3,,,75,127
101835,note_off,0,0,0,,10,,,81,127
101835,note_off,0,0,0,,0,,,60,127
101837,note_on,2,0,0,,11,,,58,127
101837,note_on,0,0,0,,10,,,81,127
101837,note_on,0,0,0,,3,,,75,127
102143,note_off,306,0,0,,3,,,75,127
102143,note_off,0,0,0,,10,,,81,127
102143,note_off,0,0,0,,11,,,58,127
102145,note_on,2,0,0,,0,,,60,127
102145,note_on,0,0,0,,10,,,57,127
102145,note_on,0,0,0,,11,,,82,127
102145,note_on,0,0,0,,2,,,74,127
102451,note_off,306,0,0,,2,,,74,127
102451,note_off,0,0,0,,11,,,82,127
102451,note_off,0,0,0,,10,,,57,127
102451,note_off,0,0,0,,0,,,60,127
102453,note_on,2,0,0,,7,,,55,127
102453,note_on,0,0,0,,11,,,58,127
102453,note_on,0,0,0,,11,,,82,127
102453,note_on,0,0,0,,4,,,76,127
102759,note_off,306,0,0,,4,,,76,127
102759,note_off,0,0,0,,11,,,82,127
102759,note_off,0,0,0,,11,,,58,127
102759,note_off,0,0,0,,7,,,55,127
102761,note_on,2,0,0,,5,,,53,127
102761,note_on,0,0,0,,0,,,60,127
102761,note_on,0,0,0,,11,,,82,127
102761,note_on,0,0,0,,5,,,77,127
103271,note_off,510,0,0,,5,,,77,127
103273,note_on,2,0,0,,7,,,79,127
103374,note_off,101,0,0,,7,,,79,127
103374,note_off,0,0,0,,11,,,82,127
103376,note_on,2,0,0,,10,,,81,127
103477,note_off,101,0,0,,10,,,81,127
103479,note_on,2,0,0,,11,,,82,127
103580,note_off,101,0,0,,11,,,82,127
103582,note_on,2,0,0,,0,,,84,127
103683,note_off,101,0,0,,0,,,84,127
103683,note_off,0,0,0,,0,,,60,127
103683,note_off,0,0,0,,5,,,53,127
103685,note_on,2,0,0,,5,,,77,127
103991,note_off,306,0,0,,5,,,77,127
103993,note_on,2,0,0,,10,,,57,127
103993,note_on,0,0,0,,3,,,75,127
103993,note_on,0,0,0,,5,,,77,127
104299,note_off,306,0,0,,5,,,77,127
104299,note_off,0,0,0,,3,,,75,127
104299,note_off,0,0,0,,10,,,57,127
104301,note_on,2,0,0,,5,,,53,127
104301,note_on,0,0,0,,5,,,77,127
104301,note_on,0,0,0,,0,,,72,127
104607,note_off,306,0,0,,0,,,72,127
104607,note_off,0,0,0,,5,,,77,127
104607,note_off,0,0,0,,5,,,53,127
104609,note_on,2,0,0,,11,,,58,127
104609,note_on,0,0,0,,5,,,77,127
104609,note_on,0,0,0,,2,,,74,127
104915,note_off,306,0,0,,2,,,74,127
104915,note_off,0,0,0,,11,,,58,127
104917,note_on,2,0,0,,10,,,57,127
104917,note_on,0,0,0,,0,,,72,127
105223,note_off,306,0,0,,0,,,72,127
105223,note_off,0,0,0,,10,,,57,127
105223,note_off,0,0,0,,5,,,77,127
105225,note_on,2,0,0,,7,,,55,127
105225,note_on,0,0,0,,11,,,70,127
105225,note_on,0,0,0,,4,,,76,127
105531,note_off,306,0,0,,4,,,76,127
105531,note_off,0,0,0,,11,,,70,127
105531,note_off,0,0,0,,7,,,55,127
105533,note_on,2,0,0,,5,,,53,127
105533,note_on,0,0,0,,4,,,76,127
105533,note_on,0,0,0,,11,,,70,127
105839,note_off,306,0,0,,11,,,70,127
105839,note_off,0,0,0,,4,,,76,127
105839,note_off,0,0,0,,5,,,53,127
105841,note_on,2,0,0,,7,,,55,127
105841,note_on,0,0,0,,4,,,52,127
105841,note_on,0,0,0,,10,,,69,127
105841,note_on,0,0,0,,5,,,77,127
106147,note_off,306,0,0,,5,,,77,127
106147,note_off,0,0,0,,10,,,69,127
106147,note_off,0,0,0,,4,,,52,127
106147,note_off,0,0,0,,7,,,55,127
106149,note_on,2,0,0,,5,,,53,127
106149,note_on,0,0,0,,2,,,50,127
106149,note_on,0,0,0,,5,,,77,127
106149,note_on,0,0,0,,12,,,71,127
106455,note_off,306,0,0,,12,,,71,127
106455,note_off,0,0,0,,5,,,77,127
106455,note_off,0,0,0,,2,,,50,127
106455,note_off,0,0,0,,5,,,53,127
106457,note_on,2,0,0,,7,,,55,127
106457,note_on,0,0,0,,0,,,48,127
106457,note_on,0,0,0,,5,,,77,127
106457,note_on,0,0,0,,0,,,72,127
106967,note_off,510,0,0,,0,,,72,127
106969,note_on,2,0,0,,2,,,74,127
107070,note_off,101,0,0,,2,,,74,127
107072,note_on,2,0,0,,4,,,76,127
107083,note_off,11,0,0,,5,,,77,127
107173,note_off,90,0,0,,4,,,76,127
107175,note_on,2,0,0,,5,,,77,127
107276,note_off,101,0,0,,5,,,77,127
107278,note_on,2,0,0,,7,,,79,127
107379,note_off,101,0,0,,7,,,79,127
107379,note_off,0,0,0,,0,,,48,127
107379,note_off,0,0,0,,7,,,55,127
107381,note_on,2,0,0,,5,,,77,127
107687,note_off,306,0,0,,5,,,77,127
107689,note_on,2,0,0,,10,,,57,127
107689,note_on,0,0,0,,3,,,75,127
107689,note_on,0,0,0,,5,,,77,127
107995,note_off,306,0,0,,5,,,77,127
107995,note_off,0,0,0,,3,,,75,127
107995,note_off,0,0,0,,10,,,57,127
107997,note_on,2,0,0,,5,,,53,127
107997,note_on,0,0,0,,0,,,72,127
107997,note_on,0,0,0,,5,,,77,127
108303,note_off,306,0,0,,5,,,77,127
108303,note_off,0,0,0,,0,,,72,127
108303,note_off,0,0,0,,5,,,53,127
108305,note_on,2,0,0,,11,,,58,127
108305,note_on,0,0,0,,5,,,77,127
108305,note_on,0,0,0,,2,,,74,127
108611,note_off,306,0,0,,2,,,74,127
108611,note_off,0,0,0,,5,,,77,127
108611,note_off,0,0,0,,11,,,58,127
108613,note_on,2,0,0,,10,,,57,127
108613,note_on,0,0,0,,5,,,77,127
108613,note_on,0,0,0,,0,,,72,127
108919,note_off,306,0,0,,0,,,72,127
108919,note_off,0,0,0,,5,,,77,127
108919,note_off,0,0,0,,10,,,57,127
108921,note_on,2,0,0,,7,,,55,127
108921,note_on,0,0,0,,4,,,76,127
108921,note_on,0,0,0,,11,,,70,127
109227,note_off,306,0,0,,11,,,70,127
109227,note_off,0,0,0,,4,,,76,127
109227,note_off,0,0,0,,7,,,55,127
109229,note_on,2,0,0,,5,,,53,127
109229,note_on,0,0,0,,11,,,70,127
109229,note_on,0,0,0,,4,,,76,127
109535,note_off,306,0,0,,4,,,76,127
109535,note_off,0,0,0,,11,,,70,127
109535,note_off,0,0,0,,5,,,53,127
109537,note_on,2,0,0,,7,,,55,127
109537,note_on,0,0,0,,4,,,52,127
109537,note_on,0,0,0,,5,,,77,127
109537,note_on,0,0,0,,10,,,69,127
109843,note_off,306,0,0,,10,,,69,127
109843,note_off,0,0,0,,5,,,77,127
109843,note_off,0,0,0,,4,,,52,127
109843,note_off,0,0,0,,7,,,55,127
109845,note_on,2,0,0,,5,,,53,127
109845,note_on,0,0,0,,2,,,50,127
109845,note_on,0,0,0,,5,,,77,127
109845,note_on,0,0,0,,12,,,71,127
110151,note_off,306,0,0,,12,,,71,127
110151,note_off,0,0,0,,5,,,77,127
110151,note_off,0,0,0,,2,,,50,127
110151,note_off,0,0,0,,5,,,53,127
110153,note_on,2,0,0,,7,,,55,127
110153,note_on,0,0,0,,0,,,48,127
110153,note_on,0,0,0,,0,,,72,127
110153,note_on,0,0,0,,5,,,77,127
110614,note_off,461,0,0,,5,,,77,127
110664,note_off,50,0,0,,0,,,72,127
110666,note_on,2,0,0,,2,,,74,127
110767,note_off,101,0,0,,2,,,74,127
110769,note_on,2,0,0,,4,,,76,127
110870,note_off,101,0,0,,4,,,76,127
110872,note_on,2,0,0,,5,,,77,127
110973,note_off,101,0,0,,5,,,77,127
110975,note_on,2,0,0,,7,,,79,127
111076,note_off,101,0,0,,7,,,79,127
111076,note_off,0,0,0,,0,,,48,127
111076,note_off,0,0,0,,7,,,55,127
111078,note_on,2,0,0,,5,,,77,127
111078,note_on,0,0,0,,10,,,69,127
111385,note_on,307,0,0,,5,,,65,127
111385,note_on,0,0,0,,5,,,53,127
111691,note_off,306,0,0,,5,,,53,127
111691,note_off,0,0,0,,5,,,65,127
111693,note_on,2,0,0,,4,,,64,127
111693,note_on,0,0,0,,4,,,52,127
111999,note_off,306,0,0,,4,,,52,127
111999,note_off,0,0,0,,4,,,64,127
112001,note_on,2,0,0,,2,,,62,127
112001,note_on,0,0,0,,2,,,50,127
112102,note_off,101,0,0,,10,,,69,127
112104,note_on,2,0,0,,7,,,67,127
112205,note_off,101,0,0,,7,,,67,127
112207,note_on,2,0,0,,10,,,69,127
112308,note_off,101,0,0,,10,,,69,127
112308,note_off,0,0,0,,2,,,50,127
112308,note_off,0,0,0,,2,,,62,127
112308,note_off,0,0,0,,5,,,77,127
112310,note_on,2,0,0,,0,,,60,127
112310,note_on,0,0,0,,0,,,48,127
112310,note_on,0,0,0,,7,,,79,127
112310,note_on,0,0,0,,11,,,70,127
112411,note_off,101,0,0,,11,,,70,127
112413,note_on,2,0,0,,10,,,69,127
112514,note_off,101,0,0,,10,,,69,127
112516,note_on,2,0,0,,11,,,70,127
112617,note_off,101,0,0,,11,,,70,127
112617,note_off,0,0,0,,7,,,79,127
112617,note_off,0,0,0,,0,,,48,127
112617,note_off,0,0,0,,0,,,60,127
112619,note_on,2,0,0,,11,,,46,127
112619,note_on,0,0,0,,11,,,58,127
112619,note_on,0,0,0,,0,,,72,127
112619,note_on,0,0,0,,10,,,81,127
112925,note_off,306,0,0,,11,,,58,127
112925,note_off,0,0,0,,11,,,46,127
112927,note_on,2,0,0,,10,,,57,127
112927,note_on,0,0,0,,10,,,45,127
113081,note_off,154,0,0,,10,,,81,127
113081,note_off,0,0,0,,0,,,72,127
113233,note_off,152,0,0,,10,,,45,127
113233,note_off,0,0,0,,10,,,57,127
113235,note_on,2,0,0,,2,,,62,127
113235,note_on,0,0,0,,2,,,50,127
113235,note_on,0,0,0,,10,,,81,127
113235,note_on,0,0,0,,5,,,77,127
113541,note_off,306,0,0,,2,,,50,127
113541,note_off,0,0,0,,2,,,62,127
113543,note_on,2,0,0,,0,,,48,127
113543,note_on,0,0,0,,0,,,60,127
113849,note_off,306,0,0,,0,,,60,127
113849,note_off,0,0,0,,0,,,48,127
113851,note_on,2,0,0,,11,,,46,127
113851,note_on,0,0,0,,11,,,58,127
113952,note_off,101,0,0,,5,,,77,127
113954,note_on,2,0,0,,4,,,76,127
114055,note_off,101,0,0,,4,,,76,127
114057,note_on,2,0,0,,5,,,77,127
114158,note_off,101,0,0,,5,,,77,127
114158,note_off,0,0,0,,11,,,58,127
114158,note_off,0,0,0,,11,,,46,127
114158,note_off,0,0,0,,10,,,81,127
114160,note_on,2,0,0,,10,,,57,127
114160,note_on,0,0,0,,10,,,45,127
114160,note_on,0,0,0,,11,,,82,127
114160,note_on,0,0,0,,7,,,79,127
114261,note_off,101,0,0,,7,,,79,127
114263,note_on,2,0,0,,5,,,77,127
114364,note_off,101,0,0,,5,,,77,127
114366,note_on,2,0,0,,7,,,79,127
114467,note_off,101,0,0,,7,,,79,127
114467,note_off,0,0,0,,11,,,82,127
114467,note_off,0,0,0,,10,,,45,127
114467,note_off,0,0,0,,10,,,57,127
114469,note_on,2,0,0,,7,,,55,127
114469,note_on,0,0,0,,7,,,43,127
114469,note_on,0,0,0,,0,,,84,127
114469,note_on,0,0,0,,10,,,81,127
114775,note_off,306,0,0,,7,,,43,127
114775,note_off,0,0,0,,7,,,55,127
114777,note_on,2,0,0,,5,,,53,127
114777,note_on,0,0,0,,5,,,41,127
114931,note_off,154,0,0,,10,,,81,127
114931,note_off,0,0,0,,0,,,84,127
115083,note_off,152,0,0,,5,,,41,127
115083,note_off,0,0,0,,5,,,53,127
115085,note_on,2,0,0,,5,,,53,127
115085,note_on,0,0,0,,5,,,65,127
115085,note_on,0,0,0,,10,,,69,127
115085,note_on,0,0,0,,5,,,77,127
115391,note_off,306,0,0,,5,,,65,127
115391,note_off,0,0,0,,5,,,53,127
115393,note_on,2,0,0,,4,,,52,127
115393,note_on,0,0,0,,4,,,64,127
115699,note_off,306,0,0,,4,,,64,127
115699,note_off,0,0,0,,4,,,52,127
115701,note_on,2,0,0,,2,,,50,127
115701,note_on,0,0,0,,2,,,62,127
115802,note_off,101,0,0,,10,,,69,127
115804,note_on,2,0,0,,7,,,67,127
115905,note_off,101,0,0,,7,,,67,127
115907,note_on,2,0,0,,10,,,69,127
116008,note_off,101,0,0,,10,,,69,127
116008,note_off,0,0,0,,2,,,62,127
116008,note_off,0,0,0,,2,,,50,127
116008,note_off,0,0,0,,5,,,77,127
116010,note_on,2,0,0,,0,,,48,127
116010,note_on,0,0,0,,0,,,60,127
116010,note_on,0,0,0,,11,,,70,127
116010,note_on,0,0,0,,7,,,79,127
116111,note_off,101,0,0,,11,,,70,127
116113,note_on,2,0,0,,10,,,69,127
116214,note_off,101,0,0,,10,,,69,127
116216,note_on,2,0,0,,11,,,70,127
116317,note_off,101,0,0,,11,,,70,127
116317,note_off,0,0,0,,7,,,79,127
116317,note_off,0,0,0,,0,,,60,127
116317,note_off,0,0,0,,0,,,48,127
116319,note_on,2,0,0,,11,,,46,127
116319,note_on,0,0,0,,11,,,58,127
116319,note_on,0,0,0,,0,,,72,127
116319,note_on,0,0,0,,10,,,81,127
116625,note_off,306,0,0,,11,,,58,127
116625,note_off,0,0,0,,11,,,46,127
116627,note_on,2,0,0,,10,,,45,127
116627,note_on,0,0,0,,10,,,57,127
116781,note_off,154,0,0,,10,,,81,127
116781,note_off,0,0,0,,0,,,72,127
116933,note_off,152,0,0,,10,,,57,127
116933,note_off,0,0,0,,10,,,45,127
116935,note_on,2,0,0,,2,,,50,127
116935,note_on,0,0,0,,2,,,62,127
116935,note_on,0,0,0,,5,,,77,127
116935,note_on,0,0,0,,10,,,81,127
117241,note_off,306,0,0,,2,,,62,127
117241,note_off,0,0,0,,2,,,50,127
117243,note_on,2,0,0,,0,,,48,127
117243,note_on,0,0,0,,0,,,60,127
117549,note_off,306,0,0,,0,,,60,127
117549,note_off,0,0,0,,0,,,48,127
117551,note_on,2,0,0,,11,,,46,127
117551,note_on,0,0,0,,11,,,58,127
117652,note_off,101,0,0,,5,,,77,127
117654,note_on,2,0,0,,4,,,76,127
117755,note_off,101,0,0,,4,,,76,127
117757,note_on,2,0,0,,5,,,77,127
117858,note_off,101,0,0,,5,,,77,127
117858,note_off,0,0,0,,11,,,58,127
117858,note_off,0,0,0,,11,,,46,127
117858,note_off,0,0,0,,10,,,81,127
117860,note_on,2,0,0,,10,,,45,127
117860,note_on,0,0,0,,10,,,57,127
117860,note_on,0,0,0,,7,,,79,127
117860,note_on,0,0,0,,11,,,82,127
117961,note_off,101,0,0,,7,,,79,127
117963,note_on,2,0,0,,5,,,77,127
118064,note_off,101,0,0,,5,,,77,127
118066,note_on,2,0,0,,7,,,79,127
118167,note_off,101,0,0,,7,,,79,127
118167,note_off,0,0,0,,10,,,57,127
118167,note_off,0,0,0,,10,,,45,127
118169,note_on,2,0,0,,7,,,55,127
118169,note_on,0,0,0,,7,,,43,127
118169,note_on,0,0,0,,4,,,76,127
118270,note_off,101,0,0,,4,,,76,127
118272,note_on,2,0,0,,5,,,77,127
118373,note_off,101,0,0,,5,,,77,127
118375,note_on,2,0,0,,7,,,79,127
118476,note_off,101,0,0,,7,,,79,127
118476,note_off,0,0,0,,7,,,43,127
118476,note_off,0,0,0,,7,,,55,127
118476,note_off,0,0,0,,11,,,82,127
118478,note_on,2,0,0,,5,,,53,127
118478,note_on,0,0,0,,5,,,41,127
118478,note_on,0,0,0,,0,,,84,127
118478,note_on,0,0,0,,10,,,81,127
118784,note_off,306,0,0,,10,,,81,127
118784,note_off,0,0,0,,0,,,84,127
118784,note_off,0,0,0,,5,,,41,127
118784,note_off,0,0,0,,5,,,53,127
118786,note_on,2,0,0,,7,,,43,127
118786,note_on,0,0,0,,7,,,55,127
118786,note_on,0,0,0,,7,,,79,127
118786,note_on,0,0,0,,11,,,82,127
119092,note_off,306,0,0,,11,,,82,127
119092,note_off,0,0,0,,7,,,79,127
119092,note_off,0,0,0,,7,,,55,127
119092,note_off,0,0,0,,7,,,43,127
119094,note_on,2,0,0,,10,,,45,127
119094,note_on,0,0,0,,10,,,57,127
119094,note_on,0,0,0,,10,,,81,127
119094,note_on,0,0,0,,5,,,77,127
119400,note_off,306,0,0,,5,,,77,127
119400,note_off,0,0,0,,10,,,81,127
119400,note_off,0,0,0,,10,,,57,127
119400,note_off,0,0,0,,10,,,45,127
119402,note_on,2,0,0,,11,,,46,127
119402,note_on,0,0,0,,11,,,58,127
119402,note_on,0,0,0,,0,,,84,127
119402,note_on,0,0,0,,11,,,82,127
119503,note_off,101,0,0,,11,,,82,127
119503,note_off,0,0,0,,0,,,84,127
119505,note_on,2,0,0,,10,,,81,127
119606,note_off,101,0,0,,10,,,81,127
119608,note_on,2,0,0,,7,,,79,127
119709,note_off,101,0,0,,7,,,79,127
119709,note_off,0,0,0,,11,,,58,127
119709,note_off,0,0,0,,11,,,46,127
119711,note_on,2,0,0,,0,,,60,127
119711,note_on,0,0,0,,10,,,81,127
119711,note_on,0,0,0,,5,,,77,127
120017,note_off,306,0,0,,5,,,77,127
120017,note_off,0,0,0,,10,,,81,127
120019,note_on,2,0,0,,0,,,48,127
120019,note_on,0,0,0,,7,,,79,127
120019,note_on,0,0,0,,4,,,76,127
120307,note_off,288,0,0,,4,,,76,127
120307,note_off,0,0,0,,7,,,79,127
120320,note_off,13,0,0,,0,,,60,127
120325,note_off,5,0,0,,0,,,48,127
120327,note_on,2,0,0,,5,,,41,127
120327,note_on,0,0,0,,5,,,53,127
120633,note_off,306,0,0,,5,,,53,127
120633,note_off,0,0,0,,5,,,41,127
120635,note_on,2,0,0,,5,,,53,127
120635,note_on,0,0,0,,5,,,65,127
120635,note_on,0,0,0,,5,,,77,127
120635,note_on,0,0,0,,10,,,69,127
120941,note_off,306,0,0,,5,,,65,127
120941,note_off,0,0,0,,5,,,53,127
120943,note_on,2,0,0,,4,,,52,127
120943,note_on,0,0,0,,4,,,64,127
121249,note_off,306,0,0,,4,,,64,127
121249,note_off,0,0,0,,4,,,52,127
121251,note_on,2,0,0,,2,,,50,127
121251,note_on,0,0,0,,2,,,62,127
121352,note_off,101,0,0,,10,,,69,127
121354,note_on,2,0,0,,7,,,67,127
121455,note_off,101,0,0,,7,,,67,127
121457,note_on,2,0,0,,10,,,69,127
121558,note_off,101,0,0,,10,,,69,127
121558,note_off,0,0,0,,2,,,62,127
121558,note_off,0,0,0,,2,,,50,127
121558,note_off,0,0,0,,5,,,77,127
121560,note_on,2,0,0,,0,,,48,127
121560,note_on,0,0,0,,0,,,60,127
121560,note_on,0,0,0,,7,,,79,127
121560,note_on,0,0,0,,11,,,70,127
121661,note_off,101,0,0,,11,,,70,127
121663,note_on,2,0,0,,10,,,69,127
121764,note_off,101,0,0,,10,,,69,127
121766,note_on,2,0,0,,11,,,70,127
121867,note_off,101,0,0,,11,,,70,127
121867,note_off,0,0,0,,7,,,79,127
121867,note_off,0,0,0,,0,,,60,127
121867,note_off,0,0,0,,0,,,48,127
121869,note_on,2,0,0,,11,,,46,127
121869,note_on,0,0,0,,11,,,58,127
121869,note_on,0,0,0,,0,,,72,127
121869,note_on,0,0,0,,10,,,81,127
122175,note_off,306,0,0,,11,,,58,127
122175,note_off,0,0,0,,11,,,46,127
122177,note_on,2,0,0,,10,,,45,127
122177,note_on,0,0,0,,10,,,57,127
122331,note_off,154,0,0,,10,,,81,127
122331,note_off,0,0,0,,0,,,72,127
122483,note_off,152,0,0,,10,,,57,127
122483,note_off,0,0,0,,10,,,45,127
122485,note_on,2,0,0,,2,,,50,127
122485,note_on,0,0,0,,2,,,62,127
122485,note_on,0,0,0,,5,,,77,127
122485,note_on,0,0,0,,10,,,81,127
122791,note_off,306,0,0,,2,,,62,127
122791,note_off,0,0,0,,2,,,50,127
122793,note_on,2,0,0,,0,,,48,127
122793,note_on,0,0,0,,0,,,60,127
123099,note_off,306,0,0,,0,,,60,127
123099,note_off,0,0,0,,0,,,48,127
123101,note_on,2,0,0,,11,,,46,127
123101,note_on,0,0,0,,11,,,58,127
123202,note_off,101,0,0,,5,,,77,127
123204,note_on,2,0,0,,4,,,76,127
123305,note_off,101,0,0,,4,,,76,127
123307,note_on,2,0,0,,5,,,77,127
123408,note_off,101,0,0,,5,,,77,127
123408,note_off,0,0,0,,11,,,58,127
123408,note_off,0,0,0,,11,,,46,127
123408,note_off,0,0,0,,10,,,81,127
123410,note_on,2,0,0,,10,,,57,127
123410,note_on,0,0,0,,10,,,45,127
123410,note_on,0,0,0,,7,,,79,127
123410,note_on,0,0,0,,11,,,82,127
123511,note_off,101,0,0,,7,,,79,127
123513,note_on,2,0,0,,5,,,77,127
123614,note_off,101,0,0,,5,,,77,127
123616,note_on,2,0,0,,7,,,79,127
123717,note_off,101,0,0,,7,,,79,127
123717,note_off,0,0,0,,10,,,45,127
123717,note_off,0,0,0,,10,,,57,127
123719,note_on,2,0,0,,7,,,43,127
123719,note_on,0,0,0,,7,,,55,127
123719,note_on,0,0,0,,4,,,76,127
123820,note_off,101,0,0,,4,,,76,127
123822,note_on,2,0,0,,5,,,77,127
123923,note_off,101,0,0,,5,,,77,127
123925,note_on,2,0,0,,7,,,79,127
124026,note_off,101,0,0,,7,,,79,127
124026,note_off,0,0,0,,7,,,55,127
124026,note_off,0,0,0,,7,,,43,127
124026,note_off,0,0,0,,11,,,82,127
124028,note_on,2,0,0,,5,,,41,127
124028,note_on,0,0,0,,5,,,53,127
124028,note_on,0,0,0,,0,,,84,127
124028,note_on,0,0,0,,10,,,81,127
124334,note_off,306,0,0,,10,,,81,127
124334,note_off,0,0,0,,0,,,84,127
124334,note_off,0,0,0,,5,,,53,127
124334,note_off,0,0,0,,5,,,41,127
124336,note_on,2,0,0,,7,,,43,127
124336,note_on,0,0,0,,7,,,55,127
124336,note_on,0,0,0,,7,,,79,127
124336,note_on,0,0,0,,11,,,82,127
124642,note_off,306,0,0,,11,,,82,127
124642,note_off,0,0,0,,7,,,79,127
124642,note_off,0,0,0,,7,,,55,127
124642,note_off,0,0,0,,7,,,43,127
124644,note_on,2,0,0,,10,,,45,127
124644,note_on,0,0,0,,10,,,57,127
124644,note_on,0,0,0,,10,,,81,127
124644,note_on,0,0,0,,5,,,77,127
124950,note_off,306,0,0,,5,,,77,127
124950,note_off,0,0,0,,10,,,81,127
124950,note_off,0,0,0,,10,,,57,127
124950,note_off,0,0,0,,10,,,45,127
124952,note_on,2,0,0,,11,,,46,127
124952,note_on,0,0,0,,11,,,58,127
124952,note_on,0,0,0,,0,,,84,127
124952,note_on,0,0,0,,11,,,82,127
125053,note_off,101,0,0,,11,,,82,127
125053,note_off,0,0,0,,0,,,84,127
125055,note_on,2,0,0,,10,,,81,127
125156,note_off,101,0,0,,10,,,81,127
125158,note_on,2,0,0,,7,,,79,127
125259,note_off,101,0,0,,7,,,79,127
125259,note_off,0,0,0,,11,,,58,127
125259,note_off,0,0,0,,11,,,46,127
125261,note_on,2,0,0,,0,,,60,127
125261,note_on,0,0,0,,5,,,77,127
125261,note_on,0,0,0,,10,,,81,127
125567,note_off,306,0,0,,10,,,81,127
125567,note_off,0,0,0,,5,,,77,127
125569,note_on,2,0,0,,0,,,48,127
125569,note_on,0,0,0,,7,,,79,127
125569,note_on,0,0,0,,4,,,76,127
125870,note_off,301,0,0,,0,,,60,127
125875,note_off,5,0,0,,4,,,76,127
125875,note_off,0,0,0,,7,,,79,127
125875,note_off,0,0,0,,0,,,48,127
125877,note_on,2,0,0,,5,,,41,127
125877,note_on,0,0,0,,5,,,53,127
125877,note_on,0,0,0,,5,,,77,127
126183,note_off,306,0,0,,5,,,77,127
126185,note_on,2,0,0,,2,,,86,127
126491,note_off,306,0,0,,2,,,86,127
126491,note_off,0,0,0,,5,,,53,127
126491,note_off,0,0,0,,5,,,41,127
126493,note_on,2,0,0,,10,,,69,127
126493,note_on,0,0,0,,0,,,84,127
126799,note_off,306,0,0,,0,,,84,127
126799,note_off,0,0,0,,10,,,69,127
126801,note_on,2,0,0,,7,,,67,127
126801,note_on,0,0,0,,2,,,86,127
126801,note_on,0,0,0,,0,,,84,127
127107,note_off,306,0,0,,0,,,84,127
127109,note_on,2,0,0,,11,,,82,127
127210,note_off,101,0,0,,11,,,82,127
127212,note_on,2,0,0,,10,,,81,127
127313,note_off,101,0,0,,10,,,81,127
127315,note_on,2,0,0,,7,,,79,127
127416,note_off,101,0,0,,7,,,79,127
127416,note_off,0,0,0,,2,,,86,127
127416,note_off,0,0,0,,7,,,67,127
127418,note_on,2,0,0,,0,,,60,127
127418,note_on,0,0,0,,7,,,79,127
127418,note_on,0,0,0,,11,,,82,127
127519,note_off,101,0,0,,7,,,79,127
127521,note_on,2,0,0,,5,,,77,127
127622,note_off,101,0,0,,5,,,77,127
127624,note_on,2,0,0,,4,,,76,127
127725,note_off,101,0,0,,4,,,76,127
127725,note_off,0,0,0,,11,,,82,127
127725,note_off,0,0,0,,0,,,60,127
127727,note_on,2,0,0,,5,,,65,127
127727,note_on,0,0,0,,10,,,81,127
127727,note_on,0,0,0,,5,,,77,127
128033,note_off,306,0,0,,10,,,81,127
128035,note_on,2,0,0,,0,,,84,127
128341,note_off,306,0,0,,0,,,84,127
128341,note_off,0,0,0,,5,,,77,127
128341,note_off,0,0,0,,5,,,65,127
128343,note_on,2,0,0,,10,,,57,127
128343,note_on,0,0,0,,0,,,84,127
128343,note_on,0,0,0,,0,,,72,127
128649,note_off,306,0,0,,0,,,72,127
128649,note_off,0,0,0,,0,,,84,127
128649,note_off,0,0,0,,10,,,57,127
128651,note_on,2,0,0,,11,,,58,127
128651,note_on,0,0,0,,2,,,74,127
128651,note_on,0,0,0,,0,,,84,127
128957,note_off,306,0,0,,0,,,84,127
128957,note_off,0,0,0,,2,,,74,127
128959,note_on,2,0,0,,2,,,74,127
128959,note_on,0,0,0,,11,,,82,127
129060,note_off,101,0,0,,2,,,74,127
129062,note_on,2,0,0,,4,,,76,127
129163,note_off,101,0,0,,4,,,76,127
129165,note_on,2,0,0,,5,,,77,127
129266,note_off,101,0,0,,5,,,77,127
129266,note_off,0,0,0,,11,,,82,127
129266,note_off,0,0,0,,11,,,58,127
129268,note_on,2,0,0,,0,,,60,127
129268,note_on,0,0,0,,4,,,76,127
129268,note_on,0,0,0,,11,,,82,127
129369,note_off,101,0,0,,4,,,76,127
129371,note_on,2,0,0,,5,,,77,127
129472,note_off,101,0,0,,5,,,77,127
129474,note_on,2,0,0,,7,,,79,127
129575,note_off,101,0,0,,7,,,79,127
129575,note_off,0,0,0,,11,,,82,127
129575,note_off,0,0,0,,0,,,60,127
129577,note_on,2,0,0,,5,,,53,127
129577,note_on,0,0,0,,10,,,81,127
129577,note_on,0,0,0,,5,,,77,127
129849,note_off,272,0,0,,5,,,77,127
129849,note_off,0,0,0,,10,,,81,127
129884,note_on,35,0,0,,2,,,74,127
130190,note_off,306,0,0,,2,,,74,127
130190,note_off,0,0,0,,5,,,53,127
130192,note_on,2,0,0,,10,,,57,127
130192,note_on,0,0,0,,0,,,72,127
130498,note_off,306,0,0,,0,,,72,127
130498,note_off,0,0,0,,10,,,57,127
130500,note_on,2,0,0,,7,,,55,127
130500,note_on,0,0,0,,2,,,74,127
130500,note_on,0,0,0,,0,,,72,127
130806,note_off,306,0,0,,0,,,72,127
130808,note_on,2,0,0,,11,,,70,127
130909,note_off,101,0,0,,11,,,70,127
130911,note_on,2,0,0,,10,,,69,127
131012,note_off,101,0,0,,10,,,69,127
131014,note_on,2,0,0,,7,,,67,127
131115,note_off,101,0,0,,7,,,67,127
131115,note_off,0,0,0,,2,,,74,127
131115,note_off,0,0,0,,7,,,55,127
131117,note_on,2,0,0,,0,,,48,127
131117,note_on,0,0,0,,7,,,67,127
131117,note_on,0,0,0,,11,,,70,127
131218,note_off,101,0,0,,7,,,67,127
131220,note_on,2,0,0,,5,,,65,127
131321,note_off,101,0,0,,5,,,65,127
131323,note_on,2,0,0,,4,,,64,127
131424,note_off,101,0,0,,4,,,64,127
131424,note_off,0,0,0,,11,,,70,127
131424,note_off,0,0,0,,0,,,48,127
131426,note_on,2,0,0,,5,,,53,127
131426,note_on,0,0,0,,5,,,65,127
131426,note_on,0,0,0,,10,,,69,127
131732,note_off,306,0,0,,10,,,69,127
131734,note_on,2,0,0,,0,,,72,127
132040,note_off,306,0,0,,0,,,72,127
132040,note_off,0,0,0,,5,,,65,127
132040,note_off,0,0,0,,5,,,53,127
132042,note_on,2,0,0,,10,,,45,127
132042,note_on,0,0,0,,0,,,72,127
132042,note_on,0,0,0,,0,,,60,127
132348,note_off,306,0,0,,0,,,60,127
132348,note_off,0,0,0,,0,,,72,127
132348,note_off,0,0,0,,10,,,45,127
132350,note_on,2,0,0,,11,,,46,127
132350,note_on,0,0,0,,0,,,72,127
132350,note_on,0,0,0,,2,,,62,127
132656,note_off,306,0,0,,2,,,62,127
132656,note_off,0,0,0,,0,,,72,127
132658,note_on,2,0,0,,2,,,62,127
132658,note_on,0,0,0,,11,,,70,127
132759,note_off,101,0,0,,2,,,62,127
132761,note_on,2,0,0,,4,,,64,127
132862,note_off,101,0,0,,4,,,64,127
132864,note_on,2,0,0,,5,,,65,127
132965,note_off,101,0,0,,5,,,65,127
132965,note_off,0,0,0,,11,,,70,127
132965,note_off,0,0,0,,11,,,46,127
132967,note_on,2,0,0,,0,,,48,127
132967,note_on,0,0,0,,11,,,70,127
132967,note_on,0,0,0,,4,,,64,127
133068,note_off,101,0,0,,4,,,64,127
133070,note_on,2,0,0,,5,,,65,127
133171,note_off,101,0,0,,5,,,65,127
133173,note_on,2,0,0,,7,,,67,127
133274,note_off,101,0,0,,7,,,67,127
133274,note_off,0,0,0,,11,,,70,127
133274,note_off,0,0,0,,0,,,48,127
133276,note_on,2,0,0,,2,,,50,127
133276,note_on,0,0,0,,10,,,69,127
133276,note_on,0,0,0,,5,,,65,127
133377,note_off,101,0,0,,5,,,65,127
133379,note_on,2,0,0,,7,,,67,127
133480,note_off,101,0,0,,7,,,67,127
133480,note_off,0,0,0,,10,,,69,127
133482,note_on,2,0,0,,10,,,69,127
133583,note_off,101,0,0,,10,,,69,127
133583,note_off,0,0,0,,2,,,50,127
133585,note_on,2,0,0,,4,,,52,127
133585,note_on,0,0,0,,7,,,67,127
133686,note_off,101,0,0,,7,,,67,127
133688,note_on,2,0,0,,10,,,69,127
133789,note_off,101,0,0,,10,,,69,127
133791,note_on,2,0,0,,11,,,70,127
133892,note_off,101,0,0,,11,,,70,127
133892,note_off,0,0,0,,4,,,52,127
133894,note_on,2,0,0,,5,,,53,127
133894,note_on,0,0,0,,10,,,69,127
133995,note_off,101,0,0,,10,,,69,127
133997,note_on,2,0,0,,11,,,70,127
134098,note_off,101,0,0,,11,,,70,127
134100,note_on,2,0,0,,0,,,72,127
134201,note_off,101,0,0,,0,,,72,127
134201,note_off,0,0,0,,5,,,53,127
134203,note_on,2,0,0,,11,,,58,127
134203,note_on,0,0,0,,2,,,74,127
134304,note_off,101,0,0,,2,,,74,127
134306,note_on,2,0,0,,11,,,70,127
134407,note_off,101,0,0,,11,,,70,127
134409,note_on,2,0,0,,7,,,67,127
134510,note_off,101,0,0,,7,,,67,127
134510,note_off,0,0,0,,11,,,58,127
134512,note_on,2,0,0,,0,,,60,127
134512,note_on,0,0,0,,5,,,65,127
134818,note_off,306,0,0,,0,,,60,127
134820,note_on,2,0,0,,0,,,48,127
134897,note_off,77,0,0,,5,,,65,127
134897,note_on,0,0,0,,4,,,64,127
134972,note_off,75,0,0,,4,,,64,127
134974,note_on,2,0,0,,2,,,62,127
135049,note_off,75,0,0,,2,,,62,127
135051,note_on,2,0,0,,4,,,64,127
135126,note_off,75,0,0,,4,,,64,127
135126,note_off,0,0,0,,0,,,48,127
135128,note_on,2,0,0,,5,,,41,127
135128,note_on,0,0,0,,5,,,53,127
135128,note_on,0,0,0,,4,,,64,127
135512,note_on,384,0,0,,5,,,65,127
135518,note_off,6,0,0,,4,,,64,127
136971,note_off,1453,0,0,,5,,,53,127
136971,note_off,0,0,0,,5,,,41,127
136982,note_off,11,0,0,,5,,,65,127
138240,end_of_track,1258,1,0,,,,,,
