tick,type,time,meta,track,program,channel,pitch,tempo,note,velocity
0,copyright,0,1,0,,,,,,
0,program_change,0,0,0,6,0,,,,
0,pitchwheel,0,0,0,,0,0,,,
0,program_change,0,0,0,6,1,,,,
0,pitchwheel,0,0,0,,1,-590,,,
0,program_change,0,0,0,6,2,,,,
0,pitchwheel,0,0,0,,2,-272,,,
0,program_change,0,0,0,6,3,,,,
0,pitchwheel,0,0,0,,3,-353,,,
0,program_change,0,0,0,6,4,,,,
0,pitchwheel,0,0,0,,4,-560,,,
0,program_change,0,0,0,6,5,,,,
0,pitchwheel,0,0,0,,5,-80,,,
0,program_change,0,0,0,6,6,,,,
0,pitchwheel,0,0,0,,6,-625,,,
0,program_change,0,0,0,6,7,,,,
0,pitchwheel,0,0,0,,7,-130,,,
0,program_change,0,0,0,6,8,,,,
0,pitchwheel,0,0,0,,8,-512,,,
0,program_change,0,0,0,6,10,,,,
0,pitchwheel,0,0,0,,10,-464,,,
0,program_change,0,0,0,6,11,,,,
0,pitchwheel,0,0,0,,11,-208,,,
0,program_change,0,0,0,6,12,,,,
0,pitchwheel,0,0,0,,12,-553,,,
0,set_tempo,0,1,0,,,,500000,,
105,note_on,105,0,0,,10,,,81,127
523,note_off,418,0,0,,10,,,81,127
524,note_on,1,0,0,,0,,,84,127
628,note_off,104,0,0,,0,,,84,127
629,note_on,1,0,0,,11,,,82,127
733,note_off,104,0,0,,11,,,82,127
734,note_on,1,0,0,,10,,,81,127
838,note_off,104,0,0,,10,,,81,127
839,note_on,1,0,0,,7,,,79,127
943,note_off,104,0,0,,7,,,79,127
944,note_on,1,0,0,,5,,,77,127
1152,note_off,208,0,0,,5,,,77,127
1153,note_on,1,0,0,,10,,,81,127
1361,note_off,208,0,0,,10,,,81,127
1362,note_on,1,0,0,,0,,,72,127
1570,note_off,208,0,0,,0,,,72,127
1571,note_on,1,0,0,,5,,,77,127
1779,note_off,208,0,0,,5,,,77,127
1780,note_on,1,0,0,,10,,,69,127
1988,note_off,208,0,0,,10,,,69,127
1989,note_on,1,0,0,,0,,,72,127
2197,note_off,208,0,0,,0,,,72,127
2198,note_on,1,0,0,,5,,,65,127
2302,note_off,104,0,0,,5,,,65,127
2303,note_on,1,0,0,,7,,,67,127
2407,note_off,104,0,0,,7,,,67,127
2408,note_on,1,0,0,,10,,,69,127
2512,note_off,104,0,0,,10,,,69,127
2513,note_on,1,0,0,,11,,,70,127
2617,note_off,104,0,0,,11,,,70,127
2618,note_on,1,0,0,,10,,,69,127
2618,note_on,0,0,0,,0,,,72,127
3036,note_off,418,0,0,,0,,,72,127
3036,note_off,0,0,0,,10,,,69,127
3037,note_on,1,0,0,,0,,,72,127
3037,note_on,0,0,0,,2,,,74,127
3141,note_off,104,0,0,,0,,,72,127
3142,note_on,1,0,0,,11,,,70,127
3246,note_off,104,0,0,,11,,,70,127
3246,note_off,0,0,0,,2,,,74,127
3247,note_on,1,0,0,,10,,,69,127
3247,note_on,0,0,0,,4,,,76,127
3351,note_off,104,0,0,,10,,,69,127
3352,note_on,1,0,0,,7,,,67,127
3456,note_off,104,0,0,,7,,,67,127
3456,note_off,0,0,0,,4,,,76,127
3457,note_on,1,0,0,,5,,,65,127
3457,note_on,0,0,0,,5,,,77,127
3665,note_off,208,0,0,,5,,,65,127
3666,note_on,1,0,0,,10,,,69,127
3874,note_off,208,0,0,,10,,,69,127
3874,note_off,0,0,0,,5,,,77,127
3875,note_on,1,0,0,,0,,,60,127
3875,note_on,0,0,0,,10,,,81,127
4083,note_off,208,0,0,,0,,,60,127
4084,note_on,1,0,0,,5,,,65,127
4292,note_off,208,0,0,,5,,,65,127
4292,note_off,0,0,0,,10,,,81,127
4293,note_on,1,0,0,,10,,,57,127
4293,note_on,0,0,0,,0,,,84,127
4501,note_off,208,0,0,,10,,,57,127
4502,note_on,1,0,0,,0,,,60,127
4710,note_off,208,0,0,,0,,,60,127
4711,note_on,1,0,0,,5,,,53,127
4815,note_off,104,0,0,,5,,,53,127
4816,note_on,1,0,0,,7,,,55,127
4920,note_off,104,0,0,,7,,,55,127
4920,note_off,0,0,0,,0,,,84,127
4921,note_on,1,0,0,,10,,,57,127
4921,note_on,0,0,0,,11,,,82,127
5025,note_off,104,0,0,,11,,,82,127
5025,note_off,0,0,0,,10,,,57,127
5026,note_on,1,0,0,,11,,,58,127
5026,note_on,0,0,0,,10,,,81,127
5130,note_off,104,0,0,,10,,,81,127
5130,note_off,0,0,0,,11,,,58,127
5131,note_on,1,0,0,,0,,,60,127
5131,note_on,0,0,0,,7,,,79,127
5235,note_off,104,0,0,,7,,,79,127
5236,note_on,1,0,0,,5,,,77,127
5340,note_off,104,0,0,,5,,,77,127
5341,note_on,1,0,0,,4,,,76,127
5445,note_off,104,0,0,,4,,,76,127
5446,note_on,1,0,0,,2,,,74,127
5550,note_off,104,0,0,,2,,,74,127
5551,note_on,1,0,0,,0,,,72,127
5708,note_off,157,0,0,,0,,,72,127
5759,note_off,51,0,0,,0,,,60,127
5760,note_on,1,0,0,,5,,,65,127
5760,note_on,0,0,0,,2,,,62,127
5760,note_on,0,0,0,,11,,,82,127
5968,note_off,208,0,0,,11,,,82,127
5968,note_off,0,0,0,,2,,,62,127
5968,note_off,0,0,0,,5,,,65,127
5969,note_on,1,0,0,,7,,,67,127
5969,note_on,0,0,0,,4,,,64,127
5969,note_on,0,0,0,,11,,,82,127
6073,note_off,104,0,0,,11,,,82,127
6074,note_on,1,0,0,,10,,,81,127
6178,note_off,104,0,0,,10,,,81,127
6179,note_on,1,0,0,,7,,,79,127
6283,note_off,104,0,0,,7,,,79,127
6284,note_on,1,0,0,,5,,,77,127
6384,note_off,100,0,0,,4,,,64,127
6384,note_off,0,0,0,,7,,,67,127
6387,note_off,3,0,0,,5,,,77,127
6388,note_on,1,0,0,,0,,,72,127
6596,note_off,208,0,0,,0,,,72,127
6597,note_on,1,0,0,,10,,,69,127
6597,note_on,0,0,0,,5,,,65,127
6597,note_on,0,0,0,,11,,,82,127
6805,note_off,208,0,0,,11,,,82,127
6805,note_off,0,0,0,,5,,,65,127
6805,note_off,0,0,0,,10,,,69,127
6806,note_on,1,0,0,,7,,,67,127
6806,note_on,0,0,0,,4,,,64,127
6806,note_on,0,0,0,,11,,,82,127
6910,note_off,104,0,0,,11,,,82,127
6911,note_on,1,0,0,,10,,,81,127
7015,note_off,104,0,0,,10,,,81,127
7016,note_on,1,0,0,,7,,,79,127
7120,note_off,104,0,0,,7,,,79,127
7121,note_on,1,0,0,,5,,,77,127
7221,note_off,100,0,0,,4,,,64,127
7221,note_off,0,0,0,,7,,,67,127
7224,note_off,3,0,0,,5,,,77,127
7225,note_on,1,0,0,,0,,,72,127
7433,note_off,208,0,0,,0,,,72,127
7434,note_on,1,0,0,,11,,,70,127
7434,note_on,0,0,0,,7,,,79,127
7642,note_off,208,0,0,,7,,,79,127
7642,note_off,0,0,0,,11,,,70,127
7643,note_on,1,0,0,,11,,,70,127
7643,note_on,0,0,0,,4,,,76,127
7747,note_off,104,0,0,,11,,,70,127
7748,note_on,1,0,0,,10,,,69,127
7852,note_off,104,0,0,,10,,,69,127
7852,note_off,0,0,0,,4,,,76,127
7853,note_on,1,0,0,,7,,,67,127
7853,note_on,0,0,0,,5,,,77,127
7957,note_off,104,0,0,,7,,,67,127
7958,note_on,1,0,0,,5,,,65,127
8062,note_off,104,0,0,,5,,,65,127
8063,note_on,1,0,0,,0,,,60,127
8168,note_off,105,0,0,,5,,,77,127
8272,note_off,104,0,0,,0,,,60,127
8273,note_on,1,0,0,,11,,,70,127
8273,note_on,0,0,0,,7,,,79,127
8481,note_off,208,0,0,,7,,,79,127
8481,note_off,0,0,0,,11,,,70,127
8482,note_on,1,0,0,,11,,,70,127
8482,note_on,0,0,0,,4,,,76,127
8586,note_off,104,0,0,,11,,,70,127
8587,note_on,1,0,0,,10,,,69,127
8691,note_off,104,0,0,,10,,,69,127
8691,note_off,0,0,0,,4,,,76,127
8692,note_on,1,0,0,,7,,,67,127
8692,note_on,0,0,0,,5,,,77,127
8796,note_off,104,0,0,,7,,,67,127
8797,note_on,1,0,0,,5,,,65,127
8901,note_off,104,0,0,,5,,,65,127
8902,note_on,1,0,0,,0,,,60,127
9007,note_off,105,0,0,,5,,,77,127
9111,note_off,104,0,0,,0,,,60,127
9112,note_on,1,0,0,,4,,,64,127
9112,note_on,0,0,0,,7,,,67,127
9112,note_on,0,0,0,,11,,,82,127
9320,note_off,208,0,0,,11,,,82,127
9320,note_off,0,0,0,,7,,,67,127
9320,note_off,0,0,0,,4,,,64,127
9321,note_on,1,0,0,,5,,,65,127
9321,note_on,0,0,0,,10,,,69,127
9321,note_on,0,0,0,,11,,,82,127
9425,note_off,104,0,0,,11,,,82,127
9426,note_on,1,0,0,,10,,,81,127
9530,note_off,104,0,0,,10,,,81,127
9531,note_on,1,0,0,,7,,,79,127
9635,note_off,104,0,0,,7,,,79,127
9636,note_on,1,0,0,,5,,,77,127
9736,note_off,100,0,0,,10,,,69,127
9736,note_off,0,0,0,,5,,,65,127
9739,note_off,3,0,0,,5,,,77,127
9740,note_on,1,0,0,,2,,,74,127
9949,note_on,209,0,0,,5,,,65,127
9949,note_on,0,0,0,,2,,,62,127
9949,note_on,0,0,0,,10,,,81,127
10054,note_off,105,0,0,,2,,,74,127
10158,note_off,104,0,0,,10,,,81,127
10158,note_off,0,0,0,,2,,,62,127
10158,note_off,0,0,0,,5,,,65,127
10159,note_on,1,0,0,,7,,,67,127
10159,note_on,0,0,0,,4,,,64,127
10159,note_on,0,0,0,,10,,,81,127
10263,note_off,104,0,0,,10,,,81,127
10264,note_on,1,0,0,,7,,,79,127
10368,note_off,104,0,0,,7,,,79,127
10369,note_on,1,0,0,,5,,,77,127
10473,note_off,104,0,0,,5,,,77,127
10474,note_on,1,0,0,,4,,,76,127
10578,note_off,104,0,0,,4,,,76,127
10579,note_on,1,0,0,,0,,,72,127
10684,note_off,105,0,0,,4,,,64,127
10684,note_off,0,0,0,,7,,,67,127
10789,note_on,105,0,0,,4,,,64,127
10789,note_on,0,0,0,,0,,,60,127
10789,note_on,0,0,0,,7,,,79,127
10894,note_off,105,0,0,,0,,,72,127
10998,note_off,104,0,0,,7,,,79,127
10998,note_off,0,0,0,,0,,,60,127
10998,note_off,0,0,0,,4,,,64,127
10999,note_on,1,0,0,,5,,,65,127
10999,note_on,0,0,0,,2,,,62,127
10999,note_on,0,0,0,,7,,,79,127
11103,note_off,104,0,0,,7,,,79,127
11104,note_on,1,0,0,,5,,,77,127
11208,note_off,104,0,0,,5,,,77,127
11209,note_on,1,0,0,,4,,,76,127
11313,note_off,104,0,0,,4,,,76,127
11314,note_on,1,0,0,,2,,,74,127
11418,note_off,104,0,0,,2,,,74,127
11419,note_on,1,0,0,,12,,,71,127
11524,note_off,105,0,0,,2,,,62,127
11524,note_off,0,0,0,,5,,,65,127
11629,note_on,105,0,0,,5,,,65,127
11629,note_on,0,0,0,,0,,,60,127
11629,note_on,0,0,0,,5,,,77,127
11660,note_off,31,0,0,,12,,,71,127
11838,note_off,178,0,0,,5,,,77,127
11838,note_off,0,0,0,,0,,,60,127
11838,note_off,0,0,0,,5,,,65,127
11839,note_on,1,0,0,,12,,,59,127
11839,note_on,0,0,0,,5,,,65,127
11839,note_on,0,0,0,,5,,,77,127
11943,note_off,104,0,0,,5,,,77,127
11944,note_on,1,0,0,,4,,,76,127
12048,note_off,104,0,0,,4,,,76,127
12049,note_on,1,0,0,,2,,,74,127
12153,note_off,104,0,0,,2,,,74,127
12154,note_on,1,0,0,,0,,,72,127
12258,note_off,104,0,0,,0,,,72,127
12259,note_on,1,0,0,,7,,,67,127
12364,note_off,105,0,0,,5,,,65,127
12467,note_off,103,0,0,,7,,,67,127
12468,note_off,1,0,0,,12,,,59,127
12469,note_on,1,0,0,,5,,,65,127
12469,note_on,0,0,0,,0,,,60,127
12469,note_on,0,0,0,,5,,,77,127
12677,note_off,208,0,0,,5,,,77,127
12677,note_off,0,0,0,,0,,,60,127
12677,note_off,0,0,0,,5,,,65,127
12678,note_on,1,0,0,,5,,,65,127
12678,note_on,0,0,0,,12,,,59,127
12678,note_on,0,0,0,,5,,,77,127
12782,note_off,104,0,0,,5,,,77,127
12783,note_on,1,0,0,,4,,,76,127
12887,note_off,104,0,0,,4,,,76,127
12888,note_on,1,0,0,,2,,,74,127
12992,note_off,104,0,0,,2,,,74,127
12993,note_on,1,0,0,,0,,,72,127
13097,note_off,104,0,0,,0,,,72,127
13098,note_on,1,0,0,,7,,,67,127
13306,note_off,208,0,0,,7,,,67,127
13306,note_off,0,0,0,,12,,,59,127
13306,note_off,0,0,0,,5,,,65,127
13307,note_on,1,0,0,,5,,,65,127
13307,note_on,0,0,0,,2,,,74,127
13515,note_off,208,0,0,,2,,,74,127
13515,note_off,0,0,0,,5,,,65,127
13516,note_on,1,0,0,,5,,,65,127
13516,note_on,0,0,0,,12,,,71,127
13620,note_off,104,0,0,,5,,,65,127
13621,note_on,1,0,0,,4,,,64,127
13725,note_off,104,0,0,,4,,,64,127
13725,note_off,0,0,0,,12,,,71,127
13726,note_on,1,0,0,,2,,,62,127
13726,note_on,0,0,0,,0,,,72,127
13830,note_off,104,0,0,,2,,,62,127
13831,note_on,1,0,0,,0,,,60,127
13935,note_off,104,0,0,,0,,,60,127
13936,note_on,1,0,0,,7,,,55,127
14041,note_off,105,0,0,,0,,,72,127
14145,note_off,104,0,0,,7,,,55,127
14146,note_on,1,0,0,,5,,,65,127
14146,note_on,0,0,0,,2,,,74,127
14354,note_off,208,0,0,,2,,,74,127
14354,note_off,0,0,0,,5,,,65,127
14355,note_on,1,0,0,,5,,,65,127
14355,note_on,0,0,0,,12,,,71,127
14459,note_off,104,0,0,,5,,,65,127
14460,note_on,1,0,0,,4,,,64,127
14564,note_off,104,0,0,,4,,,64,127
14564,note_off,0,0,0,,12,,,71,127
14565,note_on,1,0,0,,2,,,62,127
14565,note_on,0,0,0,,0,,,72,127
14669,note_off,104,0,0,,2,,,62,127
14670,note_on,1,0,0,,0,,,60,127
14774,note_off,104,0,0,,0,,,60,127
14775,note_on,1,0,0,,7,,,55,127
14880,note_off,105,0,0,,0,,,72,127
14984,note_off,104,0,0,,7,,,55,127
14985,note_on,1,0,0,,12,,,59,127
14985,note_on,0,0,0,,5,,,77,127
15193,note_off,208,0,0,,5,,,77,127
15193,note_off,0,0,0,,12,,,59,127
15194,note_on,1,0,0,,0,,,60,127
15194,note_on,0,0,0,,5,,,77,127
15298,note_off,104,0,0,,5,,,77,127
15299,note_on,1,0,0,,4,,,76,127
15403,note_off,104,0,0,,4,,,76,127
15404,note_on,1,0,0,,2,,,74,127
15508,note_off,104,0,0,,2,,,74,127
15509,note_on,1,0,0,,0,,,72,127
15613,note_off,104,0,0,,0,,,72,127
15614,note_on,1,0,0,,11,,,70,127
15822,note_off,208,0,0,,11,,,70,127
15822,note_off,0,0,0,,0,,,60,127
15823,note_on,1,0,0,,11,,,70,127
15823,note_on,0,0,0,,7,,,67,127
15823,note_on,0,0,0,,2,,,62,127
15823,note_on,0,0,0,,7,,,79,127
16031,note_off,208,0,0,,7,,,79,127
16031,note_off,0,0,0,,2,,,62,127
16031,note_off,0,0,0,,7,,,67,127
16031,note_off,0,0,0,,11,,,70,127
16032,note_on,1,0,0,,1,,,61,127
16032,note_on,0,0,0,,7,,,67,127
16032,note_on,0,0,0,,10,,,69,127
16032,note_on,0,0,0,,7,,,79,127
16136,note_off,104,0,0,,7,,,79,127
16137,note_on,1,0,0,,5,,,77,127
16241,note_off,104,0,0,,5,,,77,127
16242,note_on,1,0,0,,4,,,76,127
16346,note_off,104,0,0,,4,,,76,127
16347,note_on,1,0,0,,2,,,74,127
16451,note_off,104,0,0,,2,,,74,127
16452,note_on,1,0,0,,11,,,70,127
16660,note_off,208,0,0,,11,,,70,127
16660,note_off,0,0,0,,10,,,69,127
16660,note_off,0,0,0,,7,,,67,127
16660,note_off,0,0,0,,1,,,61,127
16661,note_on,1,0,0,,7,,,67,127
16661,note_on,0,0,0,,2,,,62,127
16661,note_on,0,0,0,,11,,,70,127
16661,note_on,0,0,0,,7,,,79,127
16869,note_off,208,0,0,,7,,,79,127
16869,note_off,0,0,0,,11,,,70,127
16869,note_off,0,0,0,,2,,,62,127
16869,note_off,0,0,0,,7,,,67,127
16870,note_on,1,0,0,,1,,,61,127
16870,note_on,0,0,0,,10,,,69,127
16870,note_on,0,0,0,,7,,,67,127
16870,note_on,0,0,0,,7,,,79,127
16974,note_off,104,0,0,,7,,,79,127
16975,note_on,1,0,0,,5,,,77,127
17079,note_off,104,0,0,,5,,,77,127
17080,note_on,1,0,0,,4,,,76,127
17184,note_off,104,0,0,,4,,,76,127
17185,note_on,1,0,0,,2,,,74,127
17285,note_off,100,0,0,,10,,,69,127
17288,note_off,3,0,0,,2,,,74,127
17289,note_on,1,0,0,,10,,,69,127
17497,note_off,208,0,0,,10,,,69,127
17497,note_off,0,0,0,,7,,,67,127
17497,note_off,0,0,0,,1,,,61,127
17498,note_on,1,0,0,,4,,,64,127
17498,note_on,0,0,0,,0,,,72,127
17498,note_on,0,0,0,,10,,,69,127
17498,note_on,0,0,0,,10,,,81,127
17706,note_off,208,0,0,,10,,,81,127
17706,note_off,0,0,0,,10,,,69,127
17706,note_off,0,0,0,,0,,,72,127
17706,note_off,0,0,0,,4,,,64,127
17707,note_on,1,0,0,,3,,,63,127
17707,note_on,0,0,0,,12,,,71,127
17707,note_on,0,0,0,,10,,,69,127
17707,note_on,0,0,0,,10,,,81,127
17811,note_off,104,0,0,,10,,,81,127
17812,note_on,1,0,0,,7,,,79,127
17916,note_off,104,0,0,,7,,,79,127
17917,note_on,1,0,0,,6,,,78,127
18021,note_off,104,0,0,,6,,,78,127
18022,note_on,1,0,0,,4,,,76,127
18126,note_off,104,0,0,,4,,,76,127
18127,note_on,1,0,0,,0,,,72,127
18335,note_off,208,0,0,,0,,,72,127
18335,note_off,0,0,0,,10,,,69,127
18335,note_off,0,0,0,,12,,,71,127
18335,note_off,0,0,0,,3,,,63,127
18336,note_on,1,0,0,,0,,,72,127
18336,note_on,0,0,0,,4,,,64,127
18336,note_on,0,0,0,,10,,,69,127
18336,note_on,0,0,0,,10,,,81,127
18544,note_off,208,0,0,,10,,,81,127
18544,note_off,0,0,0,,10,,,69,127
18544,note_off,0,0,0,,4,,,64,127
18544,note_off,0,0,0,,0,,,72,127
18545,note_on,1,0,0,,3,,,63,127
18545,note_on,0,0,0,,12,,,71,127
18545,note_on,0,0,0,,10,,,69,127
18545,note_on,0,0,0,,10,,,81,127
18649,note_off,104,0,0,,10,,,81,127
18650,note_on,1,0,0,,7,,,79,127
18754,note_off,104,0,0,,7,,,79,127
18755,note_on,1,0,0,,6,,,78,127
18859,note_off,104,0,0,,6,,,78,127
18860,note_on,1,0,0,,4,,,76,127
18960,note_off,100,0,0,,10,,,69,127
18960,note_off,0,0,0,,12,,,71,127
18960,note_off,0,0,0,,3,,,63,127
18963,note_off,3,0,0,,4,,,76,127
18964,note_on,1,0,0,,0,,,72,127
19172,note_off,208,0,0,,0,,,72,127
19173,note_on,1,0,0,,10,,,69,127
19173,note_on,0,0,0,,2,,,74,127
19173,note_on,0,0,0,,5,,,77,127
19173,note_on,0,0,0,,2,,,86,127
19381,note_off,208,0,0,,2,,,86,127
19381,note_off,0,0,0,,5,,,77,127
19381,note_off,0,0,0,,2,,,74,127
19381,note_off,0,0,0,,10,,,69,127
19382,note_on,1,0,0,,8,,,68,127
19382,note_on,0,0,0,,2,,,74,127
19382,note_on,0,0,0,,4,,,76,127
19382,note_on,0,0,0,,2,,,86,127
19486,note_off,104,0,0,,2,,,86,127
19487,note_on,1,0,0,,0,,,84,127
19591,note_off,104,0,0,,0,,,84,127
19592,note_on,1,0,0,,12,,,83,127
19696,note_off,104,0,0,,12,,,83,127
19697,note_on,1,0,0,,10,,,81,127
19801,note_off,104,0,0,,10,,,81,127
19802,note_on,1,0,0,,5,,,77,127
20010,note_off,208,0,0,,5,,,77,127
20010,note_off,0,0,0,,4,,,76,127
20010,note_off,0,0,0,,2,,,74,127
20010,note_off,0,0,0,,8,,,68,127
20011,note_on,1,0,0,,5,,,77,127
20011,note_on,0,0,0,,2,,,74,127
20011,note_on,0,0,0,,10,,,69,127
20011,note_on,0,0,0,,2,,,86,127
20219,note_off,208,0,0,,2,,,86,127
20219,note_off,0,0,0,,10,,,69,127
20219,note_off,0,0,0,,2,,,74,127
20219,note_off,0,0,0,,5,,,77,127
20220,note_on,1,0,0,,8,,,68,127
20220,note_on,0,0,0,,4,,,76,127
20220,note_on,0,0,0,,2,,,74,127
20220,note_on,0,0,0,,2,,,86,127
20324,note_off,104,0,0,,2,,,86,127
20325,note_on,1,0,0,,0,,,84,127
20429,note_off,104,0,0,,0,,,84,127
20430,note_on,1,0,0,,12,,,83,127
20534,note_off,104,0,0,,12,,,83,127
20535,note_on,1,0,0,,10,,,81,127
20639,note_off,104,0,0,,10,,,81,127
20640,note_on,1,0,0,,5,,,77,127
20821,note_off,181,0,0,,4,,,76,127
20825,note_off,4,0,0,,5,,,77,127
20842,note_off,17,0,0,,2,,,74,127
20847,note_off,5,0,0,,8,,,68,127
20848,note_on,1,0,0,,2,,,74,127
20848,note_on,0,0,0,,12,,,83,127
21056,note_off,208,0,0,,12,,,83,127
21056,note_off,0,0,0,,2,,,74,127
21057,note_on,1,0,0,,2,,,74,127
21057,note_on,0,0,0,,8,,,80,127
21161,note_off,104,0,0,,2,,,74,127
21162,note_on,1,0,0,,0,,,72,127
21266,note_off,104,0,0,,0,,,72,127
21266,note_off,0,0,0,,8,,,80,127
21267,note_on,1,0,0,,12,,,71,127
21267,note_on,0,0,0,,10,,,81,127
21371,note_off,104,0,0,,12,,,71,127
21372,note_on,1,0,0,,10,,,69,127
21476,note_off,104,0,0,,10,,,69,127
21477,note_on,1,0,0,,4,,,64,127
21582,note_off,105,0,0,,10,,,81,127
21686,note_off,104,0,0,,4,,,64,127
21687,note_on,1,0,0,,2,,,74,127
21687,note_on,0,0,0,,12,,,83,127
21895,note_off,208,0,0,,12,,,83,127
21895,note_off,0,0,0,,2,,,74,127
21896,note_on,1,0,0,,2,,,74,127
21896,note_on,0,0,0,,8,,,80,127
22000,note_off,104,0,0,,2,,,74,127
22001,note_on,1,0,0,,0,,,72,127
22105,note_off,104,0,0,,0,,,72,127
22105,note_off,0,0,0,,8,,,80,127
22106,note_on,1,0,0,,12,,,71,127
22106,note_on,0,0,0,,10,,,81,127
22210,note_off,104,0,0,,12,,,71,127
22211,note_on,1,0,0,,10,,,69,127
22315,note_off,104,0,0,,10,,,69,127
22316,note_on,1,0,0,,4,,,64,127
22420,note_off,104,0,0,,4,,,64,127
22421,note_on,1,0,0,,2,,,74,127
22525,note_off,104,0,0,,2,,,74,127
22525,note_off,0,0,0,,10,,,81,127
22526,note_on,1,0,0,,0,,,72,127
22526,note_on,0,0,0,,8,,,80,127
22630,note_off,104,0,0,,0,,,72,127
22631,note_on,1,0,0,,12,,,71,127
22735,note_off,104,0,0,,12,,,71,127
22735,note_off,0,0,0,,8,,,80,127
22736,note_on,1,0,0,,0,,,72,127
22736,note_on,0,0,0,,10,,,81,127
22840,note_off,104,0,0,,0,,,72,127
22841,note_on,1,0,0,,2,,,74,127
22945,note_off,104,0,0,,2,,,74,127
22945,note_off,0,0,0,,10,,,81,127
22946,note_on,1,0,0,,12,,,71,127
22946,note_on,0,0,0,,12,,,83,127
23050,note_off,104,0,0,,12,,,71,127
23051,note_on,1,0,0,,0,,,72,127
23155,note_off,104,0,0,,0,,,72,127
23155,note_off,0,0,0,,12,,,83,127
23156,note_on,1,0,0,,10,,,69,127
23156,note_on,0,0,0,,0,,,84,127
23260,note_off,104,0,0,,10,,,69,127
23261,note_on,1,0,0,,12,,,71,127
23365,note_off,104,0,0,,12,,,71,127
23365,note_off,0,0,0,,0,,,84,127
23366,note_on,1,0,0,,7,,,67,127
23366,note_on,0,0,0,,12,,,83,127
23470,note_off,104,0,0,,7,,,67,127
23471,note_on,1,0,0,,10,,,69,127
23575,note_off,104,0,0,,10,,,69,127
23575,note_off,0,0,0,,12,,,83,127
23576,note_on,1,0,0,,5,,,65,127
23576,note_on,0,0,0,,10,,,81,127
23680,note_off,104,0,0,,5,,,65,127
23681,note_on,1,0,0,,7,,,67,127
23785,note_off,104,0,0,,7,,,67,127
23785,note_off,0,0,0,,10,,,81,127
23786,note_on,1,0,0,,4,,,64,127
23786,note_on,0,0,0,,7,,,79,127
23890,note_off,104,0,0,,4,,,64,127
23891,note_on,1,0,0,,5,,,65,127
23995,note_off,104,0,0,,5,,,65,127
23995,note_off,0,0,0,,7,,,79,127
23996,note_on,1,0,0,,2,,,62,127
23996,note_on,0,0,0,,5,,,77,127
24100,note_off,104,0,0,,2,,,62,127
24101,note_on,1,0,0,,4,,,64,127
24205,note_off,104,0,0,,4,,,64,127
24205,note_off,0,0,0,,5,,,77,127
24206,note_on,1,0,0,,0,,,60,127
24206,note_on,0,0,0,,4,,,76,127
24310,note_off,104,0,0,,0,,,60,127
24311,note_on,1,0,0,,2,,,62,127
24415,note_off,104,0,0,,2,,,62,127
24415,note_off,0,0,0,,4,,,76,127
24416,note_on,1,0,0,,12,,,59,127
24416,note_on,0,0,0,,2,,,74,127
24520,note_off,104,0,0,,12,,,59,127
24521,note_on,1,0,0,,0,,,60,127
24625,note_off,104,0,0,,0,,,60,127
24625,note_off,0,0,0,,2,,,74,127
24626,note_on,1,0,0,,10,,,57,127
24626,note_on,0,0,0,,0,,,72,127
24730,note_off,104,0,0,,10,,,57,127
24731,note_on,1,0,0,,12,,,59,127
24835,note_off,104,0,0,,12,,,59,127
24835,note_off,0,0,0,,0,,,72,127
24836,note_on,1,0,0,,7,,,55,127
24836,note_on,0,0,0,,12,,,71,127
24940,note_off,104,0,0,,7,,,55,127
24941,note_on,1,0,0,,10,,,57,127
25045,note_off,104,0,0,,10,,,57,127
25045,note_off,0,0,0,,12,,,71,127
25046,note_on,1,0,0,,5,,,53,127
25046,note_on,0,0,0,,10,,,69,127
25150,note_off,104,0,0,,5,,,53,127
25151,note_on,1,0,0,,7,,,55,127
25255,note_off,104,0,0,,7,,,55,127
25255,note_off,0,0,0,,10,,,69,127
25256,note_on,1,0,0,,4,,,52,127
25256,note_on,0,0,0,,7,,,67,127
25360,note_off,104,0,0,,4,,,52,127
25361,note_on,1,0,0,,5,,,53,127
25465,note_off,104,0,0,,5,,,53,127
25465,note_off,0,0,0,,7,,,67,127
25466,note_on,1,0,0,,2,,,50,127
25466,note_on,0,0,0,,5,,,65,127
25570,note_off,104,0,0,,2,,,50,127
25571,note_on,1,0,0,,4,,,52,127
25675,note_off,104,0,0,,4,,,52,127
25675,note_off,0,0,0,,5,,,65,127
25676,note_on,1,0,0,,0,,,48,127
25676,note_on,0,0,0,,4,,,64,127
25780,note_off,104,0,0,,0,,,48,127
25781,note_on,1,0,0,,2,,,50,127
25885,note_off,104,0,0,,2,,,50,127
25885,note_off,0,0,0,,4,,,64,127
25886,note_on,1,0,0,,12,,,47,127
25886,note_on,0,0,0,,2,,,62,127
25990,note_off,104,0,0,,12,,,47,127
25991,note_on,1,0,0,,0,,,48,127
26095,note_off,104,0,0,,0,,,48,127
26095,note_off,0,0,0,,2,,,62,127
26096,note_on,1,0,0,,10,,,45,127
26096,note_on,0,0,0,,0,,,60,127
26200,note_off,104,0,0,,10,,,45,127
26201,note_on,1,0,0,,12,,,47,127
26305,note_off,104,0,0,,12,,,47,127
26305,note_off,0,0,0,,0,,,60,127
26306,note_on,1,0,0,,7,,,43,127
26306,note_on,0,0,0,,12,,,59,127
26410,note_off,104,0,0,,7,,,43,127
26411,note_on,1,0,0,,10,,,45,127
26515,note_off,104,0,0,,10,,,45,127
26515,note_off,0,0,0,,12,,,59,127
26516,note_on,1,0,0,,7,,,43,127
26516,note_on,0,0,0,,12,,,59,127
26567,note_off,51,0,0,,12,,,59,127
26567,note_off,0,0,0,,7,,,43,127
26568,note_on,1,0,0,,5,,,41,127
26568,note_on,0,0,0,,10,,,57,127
26619,note_off,51,0,0,,10,,,57,127
26619,note_off,0,0,0,,5,,,41,127
26620,note_on,1,0,0,,7,,,43,127
26620,note_on,0,0,0,,12,,,59,127
26671,note_off,51,0,0,,12,,,59,127
26671,note_off,0,0,0,,7,,,43,127
26672,note_on,1,0,0,,5,,,41,127
26672,note_on,0,0,0,,10,,,57,127
26723,note_off,51,0,0,,10,,,57,127
26723,note_off,0,0,0,,5,,,41,127
26724,note_on,1,0,0,,7,,,43,127
26724,note_on,0,0,0,,12,,,59,127
26775,note_off,51,0,0,,12,,,59,127
26775,note_off,0,0,0,,7,,,43,127
26776,note_on,1,0,0,,5,,,41,127
26776,note_on,0,0,0,,10,,,57,127
26827,note_off,51,0,0,,10,,,57,127
26827,note_off,0,0,0,,5,,,41,127
26828,note_on,1,0,0,,7,,,43,127
26828,note_on,0,0,0,,12,,,59,127
26879,note_off,51,0,0,,12,,,59,127
26879,note_off,0,0,0,,7,,,43,127
26880,note_on,1,0,0,,5,,,41,127
26880,note_on,0,0,0,,10,,,57,127
26931,note_off,51,0,0,,10,,,57,127
26931,note_off,0,0,0,,5,,,41,127
26932,note_on,1,0,0,,4,,,40,127
26932,note_on,0,0,0,,7,,,55,127
27036,note_off,104,0,0,,7,,,55,127
27037,note_on,1,0,0,,12,,,59,127
27141,note_off,104,0,0,,12,,,59,127
27142,note_on,1,0,0,,10,,,57,127
27246,note_off,104,0,0,,10,,,57,127
27247,note_on,1,0,0,,7,,,55,127
27351,note_off,104,0,0,,7,,,55,127
27352,note_on,1,0,0,,4,,,64,127
27352,note_on,0,0,0,,0,,,60,127
27456,note_off,104,0,0,,0,,,60,127
27457,note_on,1,0,0,,12,,,59,127
27561,note_off,104,0,0,,12,,,59,127
27561,note_off,0,0,0,,4,,,40,127
27562,note_on,1,0,0,,5,,,41,127
27562,note_on,0,0,0,,0,,,60,127
27666,note_off,104,0,0,,0,,,60,127
27667,note_on,1,0,0,,10,,,57,127
27767,note_off,100,0,0,,4,,,64,127
27770,note_off,3,0,0,,10,,,57,127
27770,note_off,0,0,0,,5,,,41,127
27771,note_on,1,0,0,,7,,,43,127
27771,note_on,0,0,0,,12,,,59,127
27771,note_on,0,0,0,,2,,,62,127
27875,note_off,104,0,0,,12,,,59,127
27876,note_on,1,0,0,,10,,,57,127
27980,note_off,104,0,0,,10,,,57,127
27981,note_on,1,0,0,,12,,,59,127
28085,note_off,104,0,0,,12,,,59,127
28086,note_on,1,0,0,,7,,,55,127
28186,note_off,100,0,0,,2,,,62,127
28189,note_off,3,0,0,,7,,,55,127
28189,note_off,0,0,0,,7,,,43,127
28190,note_on,1,0,0,,4,,,64,127
28190,note_on,0,0,0,,0,,,72,127
28190,note_on,0,0,0,,4,,,76,127
28294,note_off,104,0,0,,0,,,72,127
28295,note_on,1,0,0,,12,,,71,127
28399,note_off,104,0,0,,12,,,71,127
28400,note_on,1,0,0,,0,,,72,127
28504,note_off,104,0,0,,0,,,72,127
28504,note_off,0,0,0,,4,,,64,127
28505,note_on,1,0,0,,5,,,65,127
28505,note_on,0,0,0,,10,,,69,127
28605,note_off,100,0,0,,4,,,76,127
28608,note_off,3,0,0,,10,,,69,127
28608,note_off,0,0,0,,5,,,65,127
28609,note_on,1,0,0,,7,,,67,127
28609,note_on,0,0,0,,2,,,74,127
28609,note_on,0,0,0,,12,,,71,127
28713,note_off,104,0,0,,12,,,71,127
28714,note_on,1,0,0,,10,,,69,127
28818,note_off,104,0,0,,10,,,69,127
28819,note_on,1,0,0,,12,,,71,127
28915,note_off,96,0,0,,7,,,67,127
28923,note_off,8,0,0,,12,,,71,127
28924,note_on,1,0,0,,7,,,67,127
29024,note_off,100,0,0,,2,,,74,127
29027,note_off,3,0,0,,7,,,67,127
29028,note_on,1,0,0,,4,,,76,127
29028,note_on,0,0,0,,0,,,84,127
29132,note_off,104,0,0,,0,,,84,127
29133,note_on,1,0,0,,12,,,83,127
29237,note_off,104,0,0,,12,,,83,127
29238,note_on,1,0,0,,0,,,84,127
29342,note_off,104,0,0,,0,,,84,127
29342,note_off,0,0,0,,4,,,76,127
29343,note_on,1,0,0,,5,,,77,127
29343,note_on,0,0,0,,10,,,81,127
29447,note_off,104,0,0,,10,,,81,127
29447,note_off,0,0,0,,5,,,77,127
29448,note_on,1,0,0,,7,,,79,127
29448,note_on,0,0,0,,12,,,83,127
29552,note_off,104,0,0,,12,,,83,127
29553,note_on,1,0,0,,0,,,84,127
29657,note_off,104,0,0,,0,,,84,127
29658,note_on,1,0,0,,12,,,83,127
29754,note_off,96,0,0,,7,,,79,127
29762,note_off,8,0,0,,12,,,83,127
29763,note_on,1,0,0,,7,,,79,127
29867,note_off,104,0,0,,7,,,79,127
29868,note_on,1,0,0,,5,,,77,127
29868,note_on,0,0,0,,10,,,81,127
29972,note_off,104,0,0,,10,,,81,127
29973,note_on,1,0,0,,0,,,84,127
30077,note_off,104,0,0,,0,,,84,127
30078,note_on,1,0,0,,10,,,81,127
30174,note_off,96,0,0,,5,,,77,127
30182,note_off,8,0,0,,10,,,81,127
30183,note_on,1,0,0,,5,,,77,127
30287,note_off,104,0,0,,5,,,77,127
30288,note_on,1,0,0,,4,,,76,127
30288,note_on,0,0,0,,7,,,79,127
30392,note_off,104,0,0,,7,,,79,127
30393,note_on,1,0,0,,0,,,84,127
30497,note_off,104,0,0,,0,,,84,127
30498,note_on,1,0,0,,7,,,79,127
30594,note_off,96,0,0,,4,,,76,127
30602,note_off,8,0,0,,7,,,79,127
30603,note_on,1,0,0,,4,,,76,127
30707,note_off,104,0,0,,4,,,76,127
30708,note_on,1,0,0,,2,,,74,127
30708,note_on,0,0,0,,5,,,77,127
30812,note_off,104,0,0,,5,,,77,127
30813,note_on,1,0,0,,0,,,84,127
30917,note_off,104,0,0,,0,,,84,127
30918,note_on,1,0,0,,5,,,77,127
31014,note_off,96,0,0,,2,,,74,127
31022,note_off,8,0,0,,5,,,77,127
31023,note_on,1,0,0,,2,,,74,127
31127,note_off,104,0,0,,2,,,74,127
31128,note_on,1,0,0,,0,,,72,127
31128,note_on,0,0,0,,4,,,76,127
31232,note_off,104,0,0,,4,,,76,127
31233,note_on,1,0,0,,0,,,84,127
31337,note_off,104,0,0,,0,,,84,127
31338,note_on,1,0,0,,4,,,76,127
31434,note_off,96,0,0,,0,,,72,127
31442,note_off,8,0,0,,4,,,76,127
31443,note_on,1,0,0,,0,,,72,127
31547,note_off,104,0,0,,0,,,72,127
31548,note_on,1,0,0,,12,,,71,127
31548,note_on,0,0,0,,2,,,74,127
31652,note_off,104,0,0,,2,,,74,127
31653,note_on,1,0,0,,0,,,84,127
31757,note_off,104,0,0,,0,,,84,127
31758,note_on,1,0,0,,2,,,74,127
31854,note_off,96,0,0,,12,,,71,127
31862,note_off,8,0,0,,2,,,74,127
31863,note_on,1,0,0,,12,,,71,127
31967,note_off,104,0,0,,12,,,71,127
31968,note_on,1,0,0,,10,,,69,127
31968,note_on,0,0,0,,0,,,72,127
32072,note_off,104,0,0,,0,,,72,127
32073,note_on,1,0,0,,5,,,77,127
32177,note_off,104,0,0,,5,,,77,127
32177,note_off,0,0,0,,10,,,69,127
32178,note_on,1,0,0,,5,,,65,127
32178,note_on,0,0,0,,4,,,76,127
32282,note_off,104,0,0,,4,,,76,127
32283,note_on,1,0,0,,2,,,74,127
32387,note_off,104,0,0,,2,,,74,127
32387,note_off,0,0,0,,5,,,65,127
32388,note_on,1,0,0,,7,,,67,127
32388,note_on,0,0,0,,4,,,76,127
32492,note_off,104,0,0,,4,,,76,127
32493,note_on,1,0,0,,0,,,72,127
32597,note_off,104,0,0,,0,,,72,127
32598,note_on,1,0,0,,7,,,55,127
32598,note_on,0,0,0,,2,,,74,127
32702,note_off,104,0,0,,2,,,74,127
32703,note_on,1,0,0,,12,,,71,127
32803,note_off,100,0,0,,7,,,67,127
32806,note_off,3,0,0,,12,,,71,127
32806,note_off,0,0,0,,7,,,55,127
32807,note_on,1,0,0,,0,,,60,127
32807,note_on,0,0,0,,0,,,72,127
32911,note_off,104,0,0,,0,,,72,127
32912,note_on,1,0,0,,4,,,76,127
33016,note_off,104,0,0,,4,,,76,127
33017,note_on,1,0,0,,0,,,72,127
33121,note_off,104,0,0,,0,,,72,127
33122,note_on,1,0,0,,7,,,67,127
33226,note_off,104,0,0,,7,,,67,127
33226,note_off,0,0,0,,0,,,60,127
33227,note_on,1,0,0,,5,,,65,127
33227,note_on,0,0,0,,10,,,69,127
33331,note_off,104,0,0,,10,,,69,127
33332,note_on,1,0,0,,0,,,72,127
33436,note_off,104,0,0,,0,,,72,127
33437,note_on,1,0,0,,10,,,69,127
33533,note_off,96,0,0,,5,,,65,127
33541,note_off,8,0,0,,10,,,69,127
33542,note_on,1,0,0,,5,,,65,127
33646,note_off,104,0,0,,5,,,65,127
33647,note_on,1,0,0,,4,,,64,127
33647,note_on,0,0,0,,7,,,67,127
33751,note_off,104,0,0,,7,,,67,127
33752,note_on,1,0,0,,0,,,72,127
33856,note_off,104,0,0,,0,,,72,127
33857,note_on,1,0,0,,7,,,67,127
33953,note_off,96,0,0,,4,,,64,127
33961,note_off,8,0,0,,7,,,67,127
33962,note_on,1,0,0,,4,,,64,127
34066,note_off,104,0,0,,4,,,64,127
34067,note_on,1,0,0,,2,,,62,127
34067,note_on,0,0,0,,5,,,65,127
34171,note_off,104,0,0,,5,,,65,127
34172,note_on,1,0,0,,0,,,72,127
34276,note_off,104,0,0,,0,,,72,127
34277,note_on,1,0,0,,5,,,65,127
34373,note_off,96,0,0,,2,,,62,127
34381,note_off,8,0,0,,5,,,65,127
34382,note_on,1,0,0,,2,,,62,127
34486,note_off,104,0,0,,2,,,62,127
34487,note_on,1,0,0,,0,,,60,127
34487,note_on,0,0,0,,4,,,64,127
34591,note_off,104,0,0,,4,,,64,127
34592,note_on,1,0,0,,0,,,72,127
34696,note_off,104,0,0,,0,,,72,127
34697,note_on,1,0,0,,4,,,64,127
34793,note_off,96,0,0,,0,,,60,127
34801,note_off,8,0,0,,4,,,64,127
34802,note_on,1,0,0,,0,,,60,127
34906,note_off,104,0,0,,0,,,60,127
34907,note_on,1,0,0,,12,,,59,127
34907,note_on,0,0,0,,2,,,62,127
35011,note_off,104,0,0,,2,,,62,127
35012,note_on,1,0,0,,0,,,72,127
35116,note_off,104,0,0,,0,,,72,127
35117,note_on,1,0,0,,2,,,62,127
35213,note_off,96,0,0,,12,,,59,127
35221,note_off,8,0,0,,2,,,62,127
35222,note_on,1,0,0,,12,,,59,127
35326,note_off,104,0,0,,12,,,59,127
35327,note_on,1,0,0,,10,,,57,127
35327,note_on,0,0,0,,0,,,60,127
35431,note_off,104,0,0,,0,,,60,127
35432,note_on,1,0,0,,5,,,65,127
35536,note_off,104,0,0,,5,,,65,127
35536,note_off,0,0,0,,10,,,57,127
35537,note_on,1,0,0,,5,,,53,127
35537,note_on,0,0,0,,4,,,64,127
35641,note_off,104,0,0,,4,,,64,127
35642,note_on,1,0,0,,2,,,62,127
35746,note_off,104,0,0,,2,,,62,127
35746,note_off,0,0,0,,5,,,53,127
35747,note_on,1,0,0,,7,,,55,127
35747,note_on,0,0,0,,4,,,64,127
35851,note_off,104,0,0,,4,,,64,127
35852,note_on,1,0,0,,0,,,60,127
35956,note_off,104,0,0,,0,,,60,127
35957,note_on,1,0,0,,7,,,43,127
35957,note_on,0,0,0,,2,,,62,127
36061,note_off,104,0,0,,2,,,62,127
36062,note_on,1,0,0,,12,,,59,127
36162,note_off,100,0,0,,7,,,55,127
36165,note_off,3,0,0,,12,,,59,127
36165,note_off,0,0,0,,7,,,43,127
36166,note_on,1,0,0,,0,,,48,127
36166,note_on,0,0,0,,0,,,60,127
36374,note_off,208,0,0,,0,,,60,127
36375,note_on,1,0,0,,0,,,84,127
36583,note_off,208,0,0,,0,,,84,127
36583,note_off,0,0,0,,0,,,48,127
36584,note_on,1,0,0,,0,,,72,127
36584,note_on,0,0,0,,4,,,76,127
36635,note_off,51,0,0,,4,,,76,127
36635,note_off,0,0,0,,0,,,72,127
36636,note_on,1,0,0,,12,,,71,127
36636,note_on,0,0,0,,2,,,74,127
36687,note_off,51,0,0,,2,,,74,127
36687,note_off,0,0,0,,12,,,71,127
36688,note_on,1,0,0,,0,,,72,127
36688,note_on,0,0,0,,4,,,76,127
36739,note_off,51,0,0,,4,,,76,127
36739,note_off,0,0,0,,0,,,72,127
36740,note_on,1,0,0,,12,,,71,127
36740,note_on,0,0,0,,2,,,74,127
36791,note_off,51,0,0,,2,,,74,127
36791,note_off,0,0,0,,12,,,71,127
36792,note_on,1,0,0,,0,,,72,127
36792,note_on,0,0,0,,4,,,76,127
36843,note_off,51,0,0,,4,,,76,127
36843,note_off,0,0,0,,0,,,72,127
36844,note_on,1,0,0,,12,,,71,127
36844,note_on,0,0,0,,2,,,74,127
36895,note_off,51,0,0,,2,,,74,127
36895,note_off,0,0,0,,12,,,71,127
36896,note_on,1,0,0,,10,,,69,127
36896,note_on,0,0,0,,0,,,72,127
36947,note_off,51,0,0,,0,,,72,127
36947,note_off,0,0,0,,10,,,69,127
36948,note_on,1,0,0,,12,,,71,127
36948,note_on,0,0,0,,2,,,74,127
36999,note_off,51,0,0,,2,,,74,127
36999,note_off,0,0,0,,12,,,71,127
37000,note_on,1,0,0,,0,,,36,127
37000,note_on,0,0,0,,4,,,76,127
37208,note_off,208,0,0,,4,,,76,127
37209,note_on,1,0,0,,0,,,84,127
37417,note_off,208,0,0,,0,,,84,127
37417,note_off,0,0,0,,0,,,36,127
37418,note_on,1,0,0,,0,,,60,127
37418,note_on,0,0,0,,4,,,64,127
37469,note_off,51,0,0,,4,,,64,127
37469,note_off,0,0,0,,0,,,60,127
37470,note_on,1,0,0,,12,,,59,127
37470,note_on,0,0,0,,2,,,62,127
37521,note_off,51,0,0,,2,,,62,127
37521,note_off,0,0,0,,12,,,59,127
37522,note_on,1,0,0,,0,,,60,127
37522,note_on,0,0,0,,4,,,64,127
37573,note_off,51,0,0,,4,,,64,127
37573,note_off,0,0,0,,0,,,60,127
37574,note_on,1,0,0,,12,,,59,127
37574,note_on,0,0,0,,2,,,62,127
37625,note_off,51,0,0,,2,,,62,127
37625,note_off,0,0,0,,12,,,59,127
37626,note_on,1,0,0,,0,,,60,127
37626,note_on,0,0,0,,4,,,64,127
37677,note_off,51,0,0,,4,,,64,127
37677,note_off,0,0,0,,0,,,60,127
37678,note_on,1,0,0,,12,,,59,127
37678,note_on,0,0,0,,2,,,62,127
37729,note_off,51,0,0,,2,,,62,127
37729,note_off,0,0,0,,12,,,59,127
37730,note_on,1,0,0,,10,,,57,127
37730,note_on,0,0,0,,0,,,60,127
37781,note_off,51,0,0,,0,,,60,127
37781,note_off,0,0,0,,10,,,57,127
37782,note_on,1,0,0,,12,,,59,127
37782,note_on,0,0,0,,2,,,62,127
37833,note_off,51,0,0,,2,,,62,127
37833,note_off,0,0,0,,12,,,59,127
37834,note_on,1,0,0,,0,,,60,127
37834,note_on,0,0,0,,4,,,64,127
38042,note_off,208,0,0,,4,,,64,127
38042,note_off,0,0,0,,0,,,60,127
38043,note_on,1,0,0,,0,,,36,127
38043,note_on,0,0,0,,0,,,84,127
38251,note_off,208,0,0,,0,,,84,127
38251,note_off,0,0,0,,0,,,36,127
38252,note_on,1,0,0,,0,,,72,127
38252,note_on,0,0,0,,4,,,76,127
38303,note_off,51,0,0,,4,,,76,127
38303,note_off,0,0,0,,0,,,72,127
38304,note_on,1,0,0,,12,,,71,127
38304,note_on,0,0,0,,2,,,74,127
38355,note_off,51,0,0,,2,,,74,127
38355,note_off,0,0,0,,12,,,71,127
38356,note_on,1,0,0,,0,,,72,127
38356,note_on,0,0,0,,4,,,76,127
38407,note_off,51,0,0,,4,,,76,127
38407,note_off,0,0,0,,0,,,72,127
38408,note_on,1,0,0,,12,,,71,127
38408,note_on,0,0,0,,2,,,74,127
38459,note_off,51,0,0,,2,,,74,127
38459,note_off,0,0,0,,12,,,71,127
38460,note_on,1,0,0,,0,,,72,127
38460,note_on,0,0,0,,4,,,76,127
38511,note_off,51,0,0,,4,,,76,127
38511,note_off,0,0,0,,0,,,72,127
38512,note_on,1,0,0,,12,,,71,127
38512,note_on,0,0,0,,2,,,74,127
38563,note_off,51,0,0,,2,,,74,127
38563,note_off,0,0,0,,12,,,71,127
38564,note_on,1,0,0,,10,,,69,127
38564,note_on,0,0,0,,0,,,72,127
38615,note_off,51,0,0,,0,,,72,127
38615,note_off,0,0,0,,10,,,69,127
38616,note_on,1,0,0,,12,,,71,127
38616,note_on,0,0,0,,2,,,74,127
38667,note_off,51,0,0,,2,,,74,127
38667,note_off,0,0,0,,12,,,71,127
38668,note_on,1,0,0,,0,,,72,127
38668,note_on,0,0,0,,4,,,76,127
38876,note_off,208,0,0,,4,,,76,127
38876,note_off,0,0,0,,0,,,72,127
38877,note_on,1,0,0,,0,,,36,127
38877,note_on,0,0,0,,0,,,84,127
39085,note_off,208,0,0,,0,,,84,127
39085,note_off,0,0,0,,0,,,36,127
39086,note_on,1,0,0,,0,,,60,127
39086,note_on,0,0,0,,4,,,64,127
39137,note_off,51,0,0,,4,,,64,127
39137,note_off,0,0,0,,0,,,60,127
39138,note_on,1,0,0,,12,,,59,127
39138,note_on,0,0,0,,2,,,62,127
39189,note_off,51,0,0,,2,,,62,127
39189,note_off,0,0,0,,12,,,59,127
39190,note_on,1,0,0,,0,,,60,127
39190,note_on,0,0,0,,4,,,64,127
39241,note_off,51,0,0,,4,,,64,127
39241,note_off,0,0,0,,0,,,60,127
39242,note_on,1,0,0,,12,,,59,127
39242,note_on,0,0,0,,2,,,62,127
39293,note_off,51,0,0,,2,,,62,127
39293,note_off,0,0,0,,12,,,59,127
39294,note_on,1,0,0,,0,,,60,127
39294,note_on,0,0,0,,4,,,64,127
39345,note_off,51,0,0,,4,,,64,127
39345,note_off,0,0,0,,0,,,60,127
39346,note_on,1,0,0,,12,,,59,127
39346,note_on,0,0,0,,2,,,62,127
39397,note_off,51,0,0,,2,,,62,127
39397,note_off,0,0,0,,12,,,59,127
39398,note_on,1,0,0,,10,,,57,127
39398,note_on,0,0,0,,0,,,60,127
39449,note_off,51,0,0,,0,,,60,127
39449,note_off,0,0,0,,10,,,57,127
39450,note_on,1,0,0,,12,,,59,127
39450,note_on,0,0,0,,2,,,62,127
39501,note_off,51,0,0,,2,,,62,127
39501,note_off,0,0,0,,12,,,59,127
39502,note_on,1,0,0,,0,,,60,127
39502,note_on,0,0,0,,4,,,64,127
39600,note_off,98,0,0,,0,,,60,127
39605,note_off,5,0,0,,4,,,64,127
39606,note_on,1,0,0,,0,,,60,127
39710,note_off,104,0,0,,0,,,60,127
39711,note_on,1,0,0,,5,,,53,127
39711,note_on,0,0,0,,5,,,65,127
39815,note_off,104,0,0,,5,,,65,127
39816,note_on,1,0,0,,2,,,62,127
39920,note_off,104,0,0,,2,,,62,127
39920,note_off,0,0,0,,5,,,53,127
39921,note_on,1,0,0,,7,,,55,127
39921,note_on,0,0,0,,4,,,64,127
40129,note_off,208,0,0,,4,,,64,127
40130,note_on,1,0,0,,7,,,43,127
40130,note_on,0,0,0,,4,,,64,127
40181,note_off,51,0,0,,4,,,64,127
40182,note_on,1,0,0,,2,,,62,127
40233,note_off,51,0,0,,2,,,62,127
40234,note_off,1,0,0,,7,,,55,127
40234,note_on,0,0,0,,4,,,64,127
40285,note_off,51,0,0,,4,,,64,127
40286,note_on,1,0,0,,2,,,62,127
40337,note_off,51,0,0,,2,,,62,127
40337,note_off,0,0,0,,7,,,43,127
40338,note_on,1,0,0,,0,,,36,127
40338,note_on,0,0,0,,0,,,60,127
40546,note_off,208,0,0,,0,,,60,127
40547,note_on,1,0,0,,0,,,84,127
40755,note_off,208,0,0,,0,,,84,127
40755,note_off,0,0,0,,0,,,36,127
40756,note_on,1,0,0,,0,,,72,127
40756,note_on,0,0,0,,4,,,76,127
40807,note_off,51,0,0,,4,,,76,127
40807,note_off,0,0,0,,0,,,72,127
40808,note_on,1,0,0,,12,,,71,127
40808,note_on,0,0,0,,2,,,74,127
40859,note_off,51,0,0,,2,,,74,127
40859,note_off,0,0,0,,12,,,71,127
40860,note_on,1,0,0,,0,,,72,127
40860,note_on,0,0,0,,4,,,76,127
40911,note_off,51,0,0,,4,,,76,127
40911,note_off,0,0,0,,0,,,72,127
40912,note_on,1,0,0,,12,,,71,127
40912,note_on,0,0,0,,2,,,74,127
40963,note_off,51,0,0,,2,,,74,127
40963,note_off,0,0,0,,12,,,71,127
40964,note_on,1,0,0,,0,,,72,127
40964,note_on,0,0,0,,4,,,76,127
41015,note_off,51,0,0,,4,,,76,127
41015,note_off,0,0,0,,0,,,72,127
41016,note_on,1,0,0,,12,,,71,127
41016,note_on,0,0,0,,2,,,74,127
41067,note_off,51,0,0,,2,,,74,127
41067,note_off,0,0,0,,12,,,71,127
41068,note_on,1,0,0,,10,,,69,127
41068,note_on,0,0,0,,0,,,72,127
41119,note_off,51,0,0,,0,,,72,127
41119,note_off,0,0,0,,10,,,69,127
41120,note_on,1,0,0,,12,,,71,127
41120,note_on,0,0,0,,2,,,74,127
41171,note_off,51,0,0,,2,,,74,127
41171,note_off,0,0,0,,12,,,71,127
41172,note_on,1,0,0,,0,,,36,127
41172,note_on,0,0,0,,4,,,76,127
41380,note_off,208,0,0,,4,,,76,127
41381,note_on,1,0,0,,0,,,84,127
41589,note_off,208,0,0,,0,,,84,127
41589,note_off,0,0,0,,0,,,36,127
41590,note_on,1,0,0,,0,,,60,127
41590,note_on,0,0,0,,4,,,64,127
41641,note_off,51,0,0,,4,,,64,127
41641,note_off,0,0,0,,0,,,60,127
41642,note_on,1,0,0,,12,,,59,127
41642,note_on,0,0,0,,2,,,62,127
41693,note_off,51,0,0,,2,,,62,127
41693,note_off,0,0,0,,12,,,59,127
41694,note_on,1,0,0,,0,,,60,127
41694,note_on,0,0,0,,4,,,64,127
41745,note_off,51,0,0,,4,,,64,127
41745,note_off,0,0,0,,0,,,60,127
41746,note_on,1,0,0,,12,,,59,127
41746,note_on,0,0,0,,2,,,62,127
41797,note_off,51,0,0,,2,,,62,127
41797,note_off,0,0,0,,12,,,59,127
41798,note_on,1,0,0,,0,,,60,127
41798,note_on,0,0,0,,4,,,64,127
41849,note_off,51,0,0,,4,,,64,127
41849,note_off,0,0,0,,0,,,60,127
41850,note_on,1,0,0,,12,,,59,127
41850,note_on,0,0,0,,2,,,62,127
41901,note_off,51,0,0,,2,,,62,127
41901,note_off,0,0,0,,12,,,59,127
41902,note_on,1,0,0,,10,,,57,127
41902,note_on,0,0,0,,0,,,60,127
41953,note_off,51,0,0,,0,,,60,127
41953,note_off,0,0,0,,10,,,57,127
41954,note_on,1,0,0,,12,,,59,127
41954,note_on,0,0,0,,2,,,62,127
42005,note_off,51,0,0,,2,,,62,127
42005,note_off,0,0,0,,12,,,59,127
42006,note_on,1,0,0,,0,,,36,127
42006,note_on,0,0,0,,4,,,64,127
42214,note_off,208,0,0,,4,,,64,127
42215,note_on,1,0,0,,0,,,84,127
42423,note_off,208,0,0,,0,,,84,127
42423,note_off,0,0,0,,0,,,36,127
42424,note_on,1,0,0,,0,,,72,127
42424,note_on,0,0,0,,4,,,76,127
42475,note_off,51,0,0,,4,,,76,127
42475,note_off,0,0,0,,0,,,72,127
42476,note_on,1,0,0,,12,,,71,127
42476,note_on,0,0,0,,2,,,74,127
42527,note_off,51,0,0,,2,,,74,127
42527,note_off,0,0,0,,12,,,71,127
42528,note_on,1,0,0,,0,,,72,127
42528,note_on,0,0,0,,4,,,76,127
42579,note_off,51,0,0,,4,,,76,127
42579,note_off,0,0,0,,0,,,72,127
42580,note_on,1,0,0,,12,,,71,127
42580,note_on,0,0,0,,2,,,74,127
42631,note_off,51,0,0,,2,,,74,127
42631,note_off,0,0,0,,12,,,71,127
42632,note_on,1,0,0,,0,,,72,127
42632,note_on,0,0,0,,4,,,76,127
42683,note_off,51,0,0,,4,,,76,127
42683,note_off,0,0,0,,0,,,72,127
42684,note_on,1,0,0,,12,,,71,127
42684,note_on,0,0,0,,2,,,74,127
42735,note_off,51,0,0,,2,,,74,127
42735,note_off,0,0,0,,12,,,71,127
42736,note_on,1,0,0,,10,,,69,127
42736,note_on,0,0,0,,0,,,72,127
42787,note_off,51,0,0,,0,,,72,127
42787,note_off,0,0,0,,10,,,69,127
42788,note_on,1,0,0,,12,,,71,127
42788,note_on,0,0,0,,2,,,74,127
42839,note_off,51,0,0,,2,,,74,127
42839,note_off,0,0,0,,12,,,71,127
42840,note_on,1,0,0,,0,,,36,127
42840,note_on,0,0,0,,4,,,76,127
43048,note_off,208,0,0,,4,,,76,127
43049,note_on,1,0,0,,0,,,84,127
43257,note_off,208,0,0,,0,,,84,127
43257,note_off,0,0,0,,0,,,36,127
43258,note_on,1,0,0,,0,,,60,127
43258,note_on,0,0,0,,4,,,64,127
43309,note_off,51,0,0,,4,,,64,127
43309,note_off,0,0,0,,0,,,60,127
43310,note_on,1,0,0,,12,,,59,127
43310,note_on,0,0,0,,2,,,62,127
43361,note_off,51,0,0,,2,,,62,127
43361,note_off,0,0,0,,12,,,59,127
43362,note_on,1,0,0,,0,,,60,127
43362,note_on,0,0,0,,4,,,64,127
43413,note_off,51,0,0,,4,,,64,127
43413,note_off,0,0,0,,0,,,60,127
43414,note_on,1,0,0,,12,,,59,127
43414,note_on,0,0,0,,2,,,62,127
43465,note_off,51,0,0,,2,,,62,127
43465,note_off,0,0,0,,12,,,59,127
43466,note_on,1,0,0,,0,,,60,127
43466,note_on,0,0,0,,4,,,64,127
43517,note_off,51,0,0,,4,,,64,127
43517,note_off,0,0,0,,0,,,60,127
43518,note_on,1,0,0,,12,,,59,127
43518,note_on,0,0,0,,2,,,62,127
43569,note_off,51,0,0,,2,,,62,127
43569,note_off,0,0,0,,12,,,59,127
43570,note_on,1,0,0,,10,,,57,127
43570,note_on,0,0,0,,0,,,60,127
43621,note_off,51,0,0,,0,,,60,127
43621,note_off,0,0,0,,10,,,57,127
43622,note_on,1,0,0,,12,,,59,127
43622,note_on,0,0,0,,2,,,62,127
43673,note_off,51,0,0,,2,,,62,127
43673,note_off,0,0,0,,12,,,59,127
43674,note_on,1,0,0,,0,,,60,127
43674,note_on,0,0,0,,4,,,64,127
43772,note_off,98,0,0,,0,,,60,127
43777,note_off,5,0,0,,4,,,64,127
43778,note_on,1,0,0,,0,,,60,127
43882,note_off,104,0,0,,0,,,60,127
43883,note_on,1,0,0,,5,,,53,127
43883,note_on,0,0,0,,5,,,65,127
43987,note_off,104,0,0,,5,,,65,127
43988,note_on,1,0,0,,2,,,62,127
44092,note_off,104,0,0,,2,,,62,127
44092,note_off,0,0,0,,5,,,53,127
44093,note_on,1,0,0,,7,,,55,127
44093,note_on,0,0,0,,4,,,64,127
44301,note_off,208,0,0,,4,,,64,127
44302,note_on,1,0,0,,7,,,43,127
44302,note_on,0,0,0,,2,,,62,127
44407,note_off,105,0,0,,7,,,55,127
44511,note_off,104,0,0,,2,,,62,127
44511,note_off,0,0,0,,7,,,43,127
44512,note_on,1,0,0,,0,,,36,127
44512,note_on,0,0,0,,0,,,60,127
44687,note_off,175,0,0,,0,,,60,127
44721,note_off,34,0,0,,0,,,36,127
44722,note_on,1,0,0,,4,,,52,127
44722,note_on,0,0,0,,7,,,79,127
44930,note_off,208,0,0,,7,,,79,127
44930,note_off,0,0,0,,4,,,52,127
44931,note_on,1,0,0,,5,,,53,127
44931,note_on,0,0,0,,8,,,80,127
45139,note_off,208,0,0,,8,,,80,127
45139,note_off,0,0,0,,5,,,53,127
45140,note_on,1,0,0,,2,,,50,127
45140,note_on,0,0,0,,10,,,81,127
45348,note_off,208,0,0,,10,,,81,127
45348,note_off,0,0,0,,2,,,50,127
45349,note_on,1,0,0,,7,,,55,127
45349,note_on,0,0,0,,12,,,83,127
45557,note_off,208,0,0,,12,,,83,127
45557,note_off,0,0,0,,7,,,55,127
45558,note_on,1,0,0,,5,,,53,127
45558,note_on,0,0,0,,0,,,84,127
45662,note_off,104,0,0,,0,,,84,127
45663,note_on,1,0,0,,2,,,86,127
45767,note_off,104,0,0,,2,,,86,127
45767,note_off,0,0,0,,5,,,53,127
45768,note_on,1,0,0,,7,,,55,127
45768,note_on,0,0,0,,4,,,76,127
45873,note_on,105,0,0,,0,,,84,127
45921,note_off,48,0,0,,4,,,76,127
45978,note_on,57,0,0,,7,,,43,127
45978,note_on,0,0,0,,2,,,74,127
46004,note_off,26,0,0,,0,,,84,127
46083,note_on,79,0,0,,12,,,83,127
46131,note_off,48,0,0,,2,,,74,127
46183,note_off,52,0,0,,7,,,55,127
46186,note_off,3,0,0,,12,,,83,127
46186,note_off,0,0,0,,7,,,43,127
46187,note_on,1,0,0,,0,,,36,127
46187,note_on,0,0,0,,0,,,84,127
46395,note_off,208,0,0,,0,,,84,127
46395,note_off,0,0,0,,0,,,36,127
46396,note_on,1,0,0,,4,,,52,127
46396,note_on,0,0,0,,7,,,67,127
46604,note_off,208,0,0,,7,,,67,127
46604,note_off,0,0,0,,4,,,52,127
46605,note_on,1,0,0,,5,,,53,127
46605,note_on,0,0,0,,8,,,68,127
46813,note_off,208,0,0,,8,,,68,127
46813,note_off,0,0,0,,5,,,53,127
46814,note_on,1,0,0,,2,,,50,127
46814,note_on,0,0,0,,10,,,69,127
47022,note_off,208,0,0,,10,,,69,127
47022,note_off,0,0,0,,2,,,50,127
47023,note_on,1,0,0,,7,,,55,127
47023,note_on,0,0,0,,12,,,71,127
47231,note_off,208,0,0,,12,,,71,127
47231,note_off,0,0,0,,7,,,55,127
47232,note_on,1,0,0,,5,,,53,127
47232,note_on,0,0,0,,0,,,72,127
47336,note_off,104,0,0,,0,,,72,127
47337,note_on,1,0,0,,2,,,74,127
47441,note_off,104,0,0,,2,,,74,127
47441,note_off,0,0,0,,5,,,53,127
47442,note_on,1,0,0,,7,,,55,127
47442,note_on,0,0,0,,4,,,64,127
47547,note_on,105,0,0,,0,,,72,127
47595,note_off,48,0,0,,4,,,64,127
47652,note_on,57,0,0,,7,,,43,127
47652,note_on,0,0,0,,2,,,62,127
47700,note_off,48,0,0,,0,,,72,127
47757,note_on,57,0,0,,12,,,71,127
47805,note_off,48,0,0,,2,,,62,127
47857,note_off,52,0,0,,7,,,55,127
47860,note_off,3,0,0,,12,,,71,127
47860,note_off,0,0,0,,7,,,43,127
47861,note_on,1,0,0,,0,,,36,127
47861,note_on,0,0,0,,0,,,48,127
47861,note_on,0,0,0,,12,,,71,127
48279,note_off,418,0,0,,12,,,71,127
48280,note_on,1,0,0,,0,,,72,127
48384,note_off,104,0,0,,0,,,72,127
48385,note_on,1,0,0,,2,,,74,127
48489,note_off,104,0,0,,2,,,74,127
48490,note_on,1,0,0,,4,,,76,127
48594,note_off,104,0,0,,4,,,76,127
48595,note_on,1,0,0,,5,,,77,127
48699,note_off,104,0,0,,5,,,77,127
48699,note_off,0,0,0,,0,,,48,127
48699,note_off,0,0,0,,0,,,36,127
48700,note_on,1,0,0,,7,,,79,127
49118,note_off,418,0,0,,7,,,79,127
49119,note_on,1,0,0,,10,,,81,127
49327,note_off,208,0,0,,10,,,81,127
49328,note_on,1,0,0,,7,,,79,127
49432,note_off,104,0,0,,7,,,79,127
49433,note_on,1,0,0,,5,,,77,127
49537,note_off,104,0,0,,5,,,77,127
49538,note_on,1,0,0,,0,,,72,127
49538,note_on,0,0,0,,10,,,81,127
49642,note_off,104,0,0,,10,,,81,127
49643,note_on,1,0,0,,7,,,79,127
49747,note_off,104,0,0,,7,,,79,127
49748,note_on,1,0,0,,5,,,77,127
49852,note_off,104,0,0,,5,,,77,127
49853,note_on,1,0,0,,4,,,76,127
49957,note_off,104,0,0,,4,,,76,127
49957,note_off,0,0,0,,0,,,72,127
49958,note_on,1,0,0,,2,,,74,127
49958,note_on,0,0,0,,7,,,79,127
50062,note_off,104,0,0,,7,,,79,127
50063,note_on,1,0,0,,5,,,77,127
50167,note_off,104,0,0,,5,,,77,127
50167,note_off,0,0,0,,2,,,74,127
50168,note_on,1,0,0,,0,,,72,127
50168,note_on,0,0,0,,4,,,76,127
50272,note_off,104,0,0,,4,,,76,127
50272,note_off,0,0,0,,0,,,72,127
50273,note_on,1,0,0,,12,,,71,127
50273,note_on,0,0,0,,2,,,74,127
50377,note_off,104,0,0,,2,,,74,127
50377,note_off,0,0,0,,12,,,71,127
50378,note_on,1,0,0,,0,,,72,127
50378,note_on,0,0,0,,5,,,77,127
50482,note_off,104,0,0,,5,,,77,127
50483,note_on,1,0,0,,4,,,76,127
50587,note_off,104,0,0,,4,,,76,127
50588,note_on,1,0,0,,2,,,74,127
50692,note_off,104,0,0,,2,,,74,127
50693,note_on,1,0,0,,1,,,73,127
50797,note_off,104,0,0,,1,,,73,127
50797,note_off,0,0,0,,0,,,72,127
50798,note_on,1,0,0,,11,,,70,127
50798,note_on,0,0,0,,2,,,74,127
50902,note_off,104,0,0,,2,,,74,127
50903,note_on,1,0,0,,1,,,73,127
51007,note_off,104,0,0,,1,,,73,127
51007,note_off,0,0,0,,11,,,70,127
51008,note_on,1,0,0,,10,,,69,127
51008,note_on,0,0,0,,2,,,74,127
51112,note_off,104,0,0,,2,,,74,127
51112,note_off,0,0,0,,10,,,69,127
51113,note_on,1,0,0,,7,,,67,127
51113,note_on,0,0,0,,4,,,76,127
51217,note_off,104,0,0,,4,,,76,127
51217,note_off,0,0,0,,7,,,67,127
51218,note_on,1,0,0,,10,,,69,127
51218,note_on,0,0,0,,1,,,73,127
51322,note_off,104,0,0,,1,,,73,127
51323,note_on,1,0,0,,1,,,73,127
51427,note_off,104,0,0,,1,,,73,127
51428,note_on,1,0,0,,2,,,74,127
51532,note_off,104,0,0,,2,,,74,127
51533,note_on,1,0,0,,4,,,76,127
51633,note_off,100,0,0,,10,,,69,127
51636,note_off,3,0,0,,4,,,76,127
51637,note_on,1,0,0,,11,,,70,127
51845,note_off,208,0,0,,11,,,70,127
51846,note_on,1,0,0,,7,,,67,127
51846,note_on,0,0,0,,11,,,70,127
51846,note_on,0,0,0,,2,,,62,127
51846,note_on,0,0,0,,7,,,79,127
52054,note_off,208,0,0,,7,,,79,127
52054,note_off,0,0,0,,2,,,62,127
52054,note_off,0,0,0,,11,,,70,127
52054,note_off,0,0,0,,7,,,67,127
52055,note_on,1,0,0,,1,,,61,127
52055,note_on,0,0,0,,10,,,69,127
52055,note_on,0,0,0,,7,,,67,127
52055,note_on,0,0,0,,7,,,79,127
52159,note_off,104,0,0,,7,,,79,127
52160,note_on,1,0,0,,5,,,77,127
52264,note_off,104,0,0,,5,,,77,127
52265,note_on,1,0,0,,4,,,76,127
52369,note_off,104,0,0,,4,,,76,127
52370,note_on,1,0,0,,2,,,74,127
52474,note_off,104,0,0,,2,,,74,127
52475,note_on,1,0,0,,11,,,70,127
52660,note_off,185,0,0,,11,,,70,127
52667,note_off,7,0,0,,10,,,69,127
52683,note_off,16,0,0,,7,,,67,127
52683,note_off,0,0,0,,1,,,61,127
52684,note_on,1,0,0,,2,,,62,127
52684,note_on,0,0,0,,7,,,67,127
52684,note_on,0,0,0,,11,,,70,127
52684,note_on,0,0,0,,7,,,79,127
52892,note_off,208,0,0,,7,,,79,127
52892,note_off,0,0,0,,11,,,70,127
52892,note_off,0,0,0,,7,,,67,127
52892,note_off,0,0,0,,2,,,62,127
52893,note_on,1,0,0,,1,,,61,127
52893,note_on,0,0,0,,10,,,69,127
52893,note_on,0,0,0,,7,,,67,127
52893,note_on,0,0,0,,7,,,79,127
52997,note_off,104,0,0,,7,,,79,127
52998,note_on,1,0,0,,5,,,77,127
53102,note_off,104,0,0,,5,,,77,127
53103,note_on,1,0,0,,4,,,76,127
53207,note_off,104,0,0,,4,,,76,127
53208,note_on,1,0,0,,2,,,74,127
53312,note_off,104,0,0,,2,,,74,127
53313,note_on,1,0,0,,11,,,70,127
53498,note_off,185,0,0,,11,,,70,127
53505,note_off,7,0,0,,10,,,69,127
53521,note_off,16,0,0,,7,,,67,127
53521,note_off,0,0,0,,1,,,61,127
53522,note_on,1,0,0,,7,,,67,127
53522,note_on,0,0,0,,4,,,76,127
53730,note_off,208,0,0,,4,,,76,127
53730,note_off,0,0,0,,7,,,67,127
53731,note_on,1,0,0,,7,,,67,127
53731,note_on,0,0,0,,1,,,73,127
53835,note_off,104,0,0,,7,,,67,127
53836,note_on,1,0,0,,5,,,65,127
53940,note_off,104,0,0,,5,,,65,127
53940,note_off,0,0,0,,1,,,73,127
53941,note_on,1,0,0,,4,,,64,127
53941,note_on,0,0,0,,2,,,74,127
54045,note_off,104,0,0,,4,,,64,127
54046,note_on,1,0,0,,2,,,62,127
54150,note_off,104,0,0,,2,,,62,127
54151,note_on,1,0,0,,10,,,57,127
54256,note_off,105,0,0,,2,,,74,127
54360,note_off,104,0,0,,10,,,57,127
54361,note_on,1,0,0,,7,,,67,127
54361,note_on,0,0,0,,4,,,76,127
54569,note_off,208,0,0,,4,,,76,127
54569,note_off,0,0,0,,7,,,67,127
54570,note_on,1,0,0,,7,,,67,127
54570,note_on,0,0,0,,1,,,73,127
54674,note_off,104,0,0,,7,,,67,127
54675,note_on,1,0,0,,5,,,65,127
54779,note_off,104,0,0,,5,,,65,127
54779,note_off,0,0,0,,1,,,73,127
54780,note_on,1,0,0,,4,,,64,127
54780,note_on,0,0,0,,2,,,74,127
54884,note_off,104,0,0,,4,,,64,127
54885,note_on,1,0,0,,2,,,62,127
54989,note_off,104,0,0,,2,,,62,127
54990,note_on,1,0,0,,10,,,57,127
55095,note_off,105,0,0,,2,,,74,127
55200,note_on,105,0,0,,10,,,81,127
55408,note_off,208,0,0,,10,,,81,127
55408,note_off,0,0,0,,10,,,57,127
55409,note_on,1,0,0,,2,,,62,127
55409,note_on,0,0,0,,10,,,81,127
55513,note_off,104,0,0,,10,,,81,127
55514,note_on,1,0,0,,7,,,79,127
55618,note_off,104,0,0,,7,,,79,127
55619,note_on,1,0,0,,6,,,78,127
55723,note_off,104,0,0,,6,,,78,127
55724,note_on,1,0,0,,4,,,76,127
55828,note_off,104,0,0,,4,,,76,127
55829,note_on,1,0,0,,2,,,74,127
56037,note_off,208,0,0,,2,,,74,127
56037,note_off,0,0,0,,2,,,62,127
56038,note_on,1,0,0,,3,,,75,127
56038,note_on,0,0,0,,0,,,72,127
56038,note_on,0,0,0,,7,,,67,127
56038,note_on,0,0,0,,0,,,84,127
56246,note_off,208,0,0,,0,,,84,127
56246,note_off,0,0,0,,7,,,67,127
56246,note_off,0,0,0,,0,,,72,127
56246,note_off,0,0,0,,3,,,75,127
56247,note_on,1,0,0,,2,,,74,127
56247,note_on,0,0,0,,0,,,72,127
56247,note_on,0,0,0,,6,,,66,127
56247,note_on,0,0,0,,0,,,84,127
56351,note_off,104,0,0,,0,,,84,127
56352,note_on,1,0,0,,11,,,82,127
56456,note_off,104,0,0,,11,,,82,127
56457,note_on,1,0,0,,10,,,81,127
56561,note_off,104,0,0,,10,,,81,127
56562,note_on,1,0,0,,7,,,79,127
56666,note_off,104,0,0,,7,,,79,127
56667,note_on,1,0,0,,3,,,75,127
56772,note_off,105,0,0,,2,,,74,127
56876,note_off,104,0,0,,3,,,75,127
56876,note_off,0,0,0,,6,,,66,127
56876,note_off,0,0,0,,0,,,72,127
56877,note_on,1,0,0,,7,,,67,127
56877,note_on,0,0,0,,3,,,75,127
56877,note_on,0,0,0,,0,,,72,127
56877,note_on,0,0,0,,0,,,84,127
57085,note_off,208,0,0,,0,,,84,127
57085,note_off,0,0,0,,0,,,72,127
57085,note_off,0,0,0,,3,,,75,127
57085,note_off,0,0,0,,7,,,67,127
57086,note_on,1,0,0,,6,,,66,127
57086,note_on,0,0,0,,0,,,72,127
57086,note_on,0,0,0,,2,,,74,127
57086,note_on,0,0,0,,0,,,84,127
57190,note_off,104,0,0,,0,,,84,127
57191,note_on,1,0,0,,11,,,82,127
57295,note_off,104,0,0,,11,,,82,127
57296,note_on,1,0,0,,10,,,81,127
57400,note_off,104,0,0,,10,,,81,127
57401,note_on,1,0,0,,7,,,79,127
57505,note_off,104,0,0,,7,,,79,127
57506,note_on,1,0,0,,3,,,75,127
57691,note_off,185,0,0,,3,,,75,127
57714,note_off,23,0,0,,2,,,74,127
57714,note_off,0,0,0,,0,,,72,127
57714,note_off,0,0,0,,6,,,66,127
57715,note_on,1,0,0,,0,,,72,127
57715,note_on,0,0,0,,10,,,81,127
57923,note_off,208,0,0,,10,,,81,127
57923,note_off,0,0,0,,0,,,72,127
57924,note_on,1,0,0,,0,,,72,127
57924,note_on,0,0,0,,6,,,78,127
58028,note_off,104,0,0,,0,,,72,127
58029,note_on,1,0,0,,11,,,70,127
58133,note_off,104,0,0,,11,,,70,127
58133,note_off,0,0,0,,6,,,78,127
58134,note_on,1,0,0,,10,,,69,127
58134,note_on,0,0,0,,7,,,79,127
58238,note_off,104,0,0,,10,,,69,127
58239,note_on,1,0,0,,7,,,67,127
58343,note_off,104,0,0,,7,,,67,127
58344,note_on,1,0,0,,2,,,62,127
58449,note_off,105,0,0,,7,,,79,127
58553,note_off,104,0,0,,2,,,62,127
58554,note_on,1,0,0,,0,,,72,127
58554,note_on,0,0,0,,10,,,81,127
58762,note_off,208,0,0,,10,,,81,127
58762,note_off,0,0,0,,0,,,72,127
58763,note_on,1,0,0,,0,,,72,127
58763,note_on,0,0,0,,6,,,78,127
58867,note_off,104,0,0,,0,,,72,127
58868,note_on,1,0,0,,11,,,70,127
58972,note_off,104,0,0,,11,,,70,127
58972,note_off,0,0,0,,6,,,78,127
58973,note_on,1,0,0,,10,,,69,127
58973,note_on,0,0,0,,7,,,79,127
59077,note_off,104,0,0,,10,,,69,127
59078,note_on,1,0,0,,7,,,67,127
59182,note_off,104,0,0,,7,,,67,127
59183,note_on,1,0,0,,2,,,62,127
59287,note_off,104,0,0,,7,,,79,127
59288,note_on,1,0,0,,0,,,84,127
59392,note_off,104,0,0,,0,,,84,127
59392,note_off,0,0,0,,2,,,62,127
59393,note_on,1,0,0,,6,,,66,127
59393,note_on,0,0,0,,11,,,82,127
59497,note_off,104,0,0,,11,,,82,127
59498,note_on,1,0,0,,10,,,81,127
59602,note_off,104,0,0,,10,,,81,127
59603,note_on,1,0,0,,11,,,82,127
59707,note_off,104,0,0,,11,,,82,127
59708,note_on,1,0,0,,2,,,86,127
59812,note_off,104,0,0,,2,,,86,127
59812,note_off,0,0,0,,6,,,66,127
59813,note_on,1,0,0,,7,,,79,127
59813,note_on,0,0,0,,11,,,82,127
59911,note_off,98,0,0,,7,,,79,127
59916,note_off,5,0,0,,11,,,82,127
59917,note_on,1,0,0,,7,,,79,127
60022,note_on,105,0,0,,10,,,81,127
60126,note_off,104,0,0,,10,,,81,127
60127,note_on,1,0,0,,2,,,86,127
60223,note_off,96,0,0,,7,,,79,127
60231,note_off,8,0,0,,2,,,86,127
60232,note_on,1,0,0,,5,,,77,127
60232,note_on,0,0,0,,10,,,81,127
60330,note_off,98,0,0,,5,,,77,127
60335,note_off,5,0,0,,10,,,81,127
60336,note_on,1,0,0,,5,,,77,127
60441,note_on,105,0,0,,7,,,79,127
60545,note_off,104,0,0,,7,,,79,127
60546,note_on,1,0,0,,0,,,84,127
60642,note_off,96,0,0,,5,,,77,127
60650,note_off,8,0,0,,0,,,84,127
60651,note_on,1,0,0,,3,,,75,127
60651,note_on,0,0,0,,7,,,79,127
60749,note_off,98,0,0,,3,,,75,127
60754,note_off,5,0,0,,7,,,79,127
60755,note_on,1,0,0,,3,,,75,127
60860,note_on,105,0,0,,5,,,77,127
60964,note_off,104,0,0,,5,,,77,127
60965,note_on,1,0,0,,11,,,82,127
61061,note_off,96,0,0,,3,,,75,127
61069,note_off,8,0,0,,11,,,82,127
61070,note_on,1,0,0,,2,,,74,127
61070,note_on,0,0,0,,5,,,77,127
61168,note_off,98,0,0,,2,,,74,127
61173,note_off,5,0,0,,5,,,77,127
61174,note_on,1,0,0,,2,,,74,127
61279,note_on,105,0,0,,3,,,75,127
61383,note_off,104,0,0,,3,,,75,127
61384,note_on,1,0,0,,10,,,81,127
61480,note_off,96,0,0,,2,,,74,127
61488,note_off,8,0,0,,10,,,81,127
61489,note_on,1,0,0,,0,,,72,127
61489,note_on,0,0,0,,3,,,75,127
61587,note_off,98,0,0,,0,,,72,127
61592,note_off,5,0,0,,3,,,75,127
61593,note_on,1,0,0,,0,,,72,127
61698,note_on,105,0,0,,2,,,74,127
61802,note_off,104,0,0,,2,,,74,127
61803,note_on,1,0,0,,7,,,79,127
61899,note_off,96,0,0,,0,,,72,127
61907,note_off,8,0,0,,7,,,79,127
61908,note_on,1,0,0,,11,,,70,127
61908,note_on,0,0,0,,2,,,74,127
62006,note_off,98,0,0,,11,,,70,127
62011,note_off,5,0,0,,2,,,74,127
62012,note_on,1,0,0,,11,,,70,127
62117,note_on,105,0,0,,0,,,72,127
62221,note_off,104,0,0,,0,,,72,127
62222,note_on,1,0,0,,6,,,78,127
62318,note_off,96,0,0,,11,,,70,127
62326,note_off,8,0,0,,6,,,78,127
62327,note_on,1,0,0,,10,,,69,127
62327,note_on,0,0,0,,0,,,72,127
62425,note_off,98,0,0,,10,,,69,127
62430,note_off,5,0,0,,0,,,72,127
62431,note_on,1,0,0,,10,,,69,127
62536,note_on,105,0,0,,11,,,70,127
62640,note_off,104,0,0,,11,,,70,127
62641,note_on,1,0,0,,7,,,79,127
62737,note_off,96,0,0,,10,,,69,127
62745,note_off,8,0,0,,7,,,79,127
62746,note_on,1,0,0,,7,,,67,127
62746,note_on,0,0,0,,11,,,70,127
62844,note_off,98,0,0,,7,,,67,127
62849,note_off,5,0,0,,11,,,70,127
62850,note_on,1,0,0,,7,,,67,127
62954,note_off,104,0,0,,7,,,67,127
62955,note_on,1,0,0,,2,,,62,127
62955,note_on,0,0,0,,10,,,69,127
63053,note_off,98,0,0,,10,,,69,127
63060,note_on,7,0,0,,10,,,69,127
63163,note_off,103,0,0,,2,,,62,127
63164,note_off,1,0,0,,10,,,69,127
63165,note_on,1,0,0,,6,,,66,127
63165,note_on,0,0,0,,2,,,74,127
63269,note_off,104,0,0,,6,,,66,127
63270,note_on,1,0,0,,10,,,69,127
63374,note_off,104,0,0,,10,,,69,127
63374,note_off,0,0,0,,2,,,74,127
63375,note_on,1,0,0,,0,,,60,127
63375,note_on,0,0,0,,3,,,75,127
63479,note_off,104,0,0,,0,,,60,127
63480,note_on,1,0,0,,7,,,67,127
63584,note_off,104,0,0,,7,,,67,127
63584,note_off,0,0,0,,3,,,75,127
63585,note_on,1,0,0,,3,,,63,127
63585,note_on,0,0,0,,7,,,79,127
63689,note_off,104,0,0,,3,,,63,127
63690,note_on,1,0,0,,7,,,67,127
63794,note_off,104,0,0,,7,,,67,127
63794,note_off,0,0,0,,7,,,79,127
63795,note_on,1,0,0,,2,,,62,127
63795,note_on,0,0,0,,6,,,78,127
63899,note_off,104,0,0,,2,,,62,127
63900,note_on,1,0,0,,10,,,69,127
64004,note_off,104,0,0,,10,,,69,127
64004,note_off,0,0,0,,6,,,78,127
64005,note_on,1,0,0,,6,,,66,127
64005,note_on,0,0,0,,2,,,74,127
64109,note_off,104,0,0,,6,,,66,127
64110,note_on,1,0,0,,10,,,69,127
64214,note_off,104,0,0,,10,,,69,127
64214,note_off,0,0,0,,2,,,74,127
64215,note_on,1,0,0,,0,,,60,127
64215,note_on,0,0,0,,3,,,75,127
64319,note_off,104,0,0,,0,,,60,127
64320,note_on,1,0,0,,7,,,67,127
64424,note_off,104,0,0,,7,,,67,127
64424,note_off,0,0,0,,3,,,75,127
64425,note_on,1,0,0,,3,,,63,127
64425,note_on,0,0,0,,7,,,79,127
64529,note_off,104,0,0,,3,,,63,127
64530,note_on,1,0,0,,7,,,67,127
64634,note_off,104,0,0,,7,,,67,127
64634,note_off,0,0,0,,7,,,79,127
64635,note_on,1,0,0,,2,,,62,127
64635,note_on,0,0,0,,6,,,78,127
64739,note_off,104,0,0,,2,,,62,127
64740,note_on,1,0,0,,10,,,69,127
64844,note_off,104,0,0,,10,,,69,127
64844,note_off,0,0,0,,6,,,78,127
64845,note_on,1,0,0,,6,,,66,127
64845,note_on,0,0,0,,2,,,74,127
64949,note_off,104,0,0,,6,,,66,127
64950,note_on,1,0,0,,10,,,69,127
65054,note_off,104,0,0,,10,,,69,127
65055,note_on,1,0,0,,7,,,67,127
65151,note_off,96,0,0,,2,,,74,127
65159,note_off,8,0,0,,7,,,67,127
65160,note_on,1,0,0,,2,,,74,127
65264,note_off,104,0,0,,2,,,74,127
65265,note_on,1,0,0,,12,,,71,127
65265,note_on,0,0,0,,7,,,79,127
65369,note_off,104,0,0,,12,,,71,127
65370,note_on,1,0,0,,2,,,74,127
65474,note_off,104,0,0,,2,,,74,127
65474,note_off,0,0,0,,7,,,79,127
65475,note_on,1,0,0,,5,,,65,127
65475,note_on,0,0,0,,8,,,80,127
65579,note_off,104,0,0,,5,,,65,127
65580,note_on,1,0,0,,0,,,72,127
65684,note_off,104,0,0,,0,,,72,127
65684,note_off,0,0,0,,8,,,80,127
65685,note_on,1,0,0,,8,,,68,127
65685,note_on,0,0,0,,0,,,84,127
65789,note_off,104,0,0,,8,,,68,127
65790,note_on,1,0,0,,0,,,72,127
65894,note_off,104,0,0,,0,,,72,127
65894,note_off,0,0,0,,0,,,84,127
65895,note_on,1,0,0,,7,,,67,127
65895,note_on,0,0,0,,12,,,83,127
65999,note_off,104,0,0,,7,,,67,127
66000,note_on,1,0,0,,2,,,74,127
66104,note_off,104,0,0,,2,,,74,127
66104,note_off,0,0,0,,12,,,83,127
66105,note_on,1,0,0,,12,,,71,127
66105,note_on,0,0,0,,7,,,79,127
66209,note_off,104,0,0,,12,,,71,127
66210,note_on,1,0,0,,2,,,74,127
66314,note_off,104,0,0,,2,,,74,127
66314,note_off,0,0,0,,7,,,79,127
66315,note_on,1,0,0,,5,,,65,127
66315,note_on,0,0,0,,8,,,80,127
66419,note_off,104,0,0,,5,,,65,127
66420,note_on,1,0,0,,0,,,72,127
66524,note_off,104,0,0,,0,,,72,127
66524,note_off,0,0,0,,8,,,80,127
66525,note_on,1,0,0,,8,,,68,127
66525,note_on,0,0,0,,0,,,84,127
66629,note_off,104,0,0,,8,,,68,127
66630,note_on,1,0,0,,0,,,72,127
66734,note_off,104,0,0,,0,,,72,127
66734,note_off,0,0,0,,0,,,84,127
66735,note_on,1,0,0,,7,,,67,127
66735,note_on,0,0,0,,11,,,82,127
66839,note_off,104,0,0,,7,,,67,127
66840,note_on,1,0,0,,2,,,74,127
66944,note_off,104,0,0,,2,,,74,127
66944,note_off,0,0,0,,11,,,82,127
66945,note_on,1,0,0,,10,,,69,127
66945,note_on,0,0,0,,10,,,81,127
67049,note_off,104,0,0,,10,,,69,127
67050,note_on,1,0,0,,2,,,74,127
67154,note_off,104,0,0,,2,,,74,127
67154,note_off,0,0,0,,10,,,81,127
67155,note_on,1,0,0,,11,,,70,127
67155,note_on,0,0,0,,7,,,79,127
67259,note_off,104,0,0,,11,,,70,127
67260,note_on,1,0,0,,2,,,74,127
67364,note_off,104,0,0,,2,,,74,127
67364,note_off,0,0,0,,7,,,79,127
67365,note_on,1,0,0,,7,,,67,127
67365,note_on,0,0,0,,2,,,86,127
67469,note_off,104,0,0,,7,,,67,127
67470,note_on,1,0,0,,2,,,74,127
67574,note_off,104,0,0,,2,,,74,127
67574,note_off,0,0,0,,2,,,86,127
67575,note_on,1,0,0,,10,,,69,127
67575,note_on,0,0,0,,1,,,85,127
67679,note_off,104,0,0,,10,,,69,127
67680,note_on,1,0,0,,4,,,76,127
67784,note_off,104,0,0,,4,,,76,127
67784,note_off,0,0,0,,1,,,85,127
67785,note_on,1,0,0,,1,,,73,127
67785,note_on,0,0,0,,10,,,81,127
67889,note_off,104,0,0,,1,,,73,127
67890,note_on,1,0,0,,4,,,76,127
67994,note_off,104,0,0,,4,,,76,127
67994,note_off,0,0,0,,10,,,81,127
67995,note_on,1,0,0,,7,,,67,127
67995,note_on,0,0,0,,11,,,82,127
68099,note_off,104,0,0,,7,,,67,127
68100,note_on,1,0,0,,2,,,74,127
68204,note_off,104,0,0,,2,,,74,127
68204,note_off,0,0,0,,11,,,82,127
68205,note_on,1,0,0,,11,,,70,127
68205,note_on,0,0,0,,2,,,86,127
68309,note_off,104,0,0,,11,,,70,127
68310,note_on,1,0,0,,2,,,74,127
68414,note_off,104,0,0,,2,,,74,127
68414,note_off,0,0,0,,2,,,86,127
68415,note_on,1,0,0,,10,,,69,127
68415,note_on,0,0,0,,1,,,85,127
68519,note_off,104,0,0,,10,,,69,127
68520,note_on,1,0,0,,4,,,76,127
68624,note_off,104,0,0,,4,,,76,127
68624,note_off,0,0,0,,1,,,85,127
68625,note_on,1,0,0,,1,,,73,127
68625,note_on,0,0,0,,10,,,81,127
68729,note_off,104,0,0,,1,,,73,127
68730,note_on,1,0,0,,4,,,76,127
68834,note_off,104,0,0,,4,,,76,127
68834,note_off,0,0,0,,10,,,81,127
68835,note_on,1,0,0,,7,,,67,127
68835,note_on,0,0,0,,11,,,82,127
68939,note_off,104,0,0,,7,,,67,127
68940,note_on,1,0,0,,2,,,74,127
69044,note_off,104,0,0,,2,,,74,127
69044,note_off,0,0,0,,11,,,82,127
69045,note_on,1,0,0,,11,,,70,127
69045,note_on,0,0,0,,2,,,86,127
69149,note_off,104,0,0,,11,,,70,127
69150,note_on,1,0,0,,2,,,74,127
69254,note_off,104,0,0,,2,,,74,127
69254,note_off,0,0,0,,2,,,86,127
69255,note_on,1,0,0,,10,,,69,127
69255,note_on,0,0,0,,1,,,85,127
69359,note_off,104,0,0,,10,,,69,127
69360,note_on,1,0,0,,12,,,71,127
69464,note_off,104,0,0,,12,,,71,127
69464,note_off,0,0,0,,1,,,85,127
69465,note_on,1,0,0,,1,,,73,127
69465,note_on,0,0,0,,10,,,81,127
69569,note_off,104,0,0,,1,,,73,127
69570,note_on,1,0,0,,10,,,69,127
69674,note_off,104,0,0,,10,,,69,127
69674,note_off,0,0,0,,10,,,81,127
69675,note_on,1,0,0,,2,,,74,127
69675,note_on,0,0,0,,5,,,77,127
69773,note_off,98,0,0,,5,,,77,127
69773,note_off,0,0,0,,2,,,74,127
69780,note_on,7,0,0,,5,,,77,127
69878,note_off,98,0,0,,5,,,77,127
69885,note_on,7,0,0,,11,,,70,127
69885,note_on,0,0,0,,2,,,86,127
69983,note_off,98,0,0,,11,,,70,127
69990,note_on,7,0,0,,2,,,74,127
70088,note_off,98,0,0,,2,,,74,127
70095,note_on,7,0,0,,0,,,72,127
70193,note_off,98,0,0,,0,,,72,127
70200,note_on,7,0,0,,4,,,76,127
70298,note_off,98,0,0,,4,,,76,127
70303,note_off,5,0,0,,2,,,86,127
70304,note_on,1,0,0,,10,,,69,127
70304,note_on,0,0,0,,0,,,84,127
70402,note_off,98,0,0,,10,,,69,127
70409,note_on,7,0,0,,0,,,72,127
70507,note_off,98,0,0,,0,,,72,127
70514,note_on,7,0,0,,11,,,70,127
70618,note_off,104,0,0,,11,,,70,127
70619,note_on,1,0,0,,2,,,74,127
70723,note_off,104,0,0,,2,,,74,127
70723,note_off,0,0,0,,0,,,84,127
70724,note_on,1,0,0,,7,,,67,127
70724,note_on,0,0,0,,2,,,86,127
70724,note_on,0,0,0,,11,,,82,127
70828,note_off,104,0,0,,7,,,67,127
70829,note_on,1,0,0,,11,,,70,127
70933,note_off,104,0,0,,11,,,70,127
70934,note_on,1,0,0,,10,,,69,127
71038,note_off,104,0,0,,10,,,69,127
71039,note_on,1,0,0,,0,,,72,127
71143,note_off,104,0,0,,0,,,72,127
71143,note_off,0,0,0,,11,,,82,127
71143,note_off,0,0,0,,2,,,86,127
71144,note_on,1,0,0,,5,,,65,127
71144,note_on,0,0,0,,10,,,81,127
71144,note_on,0,0,0,,0,,,84,127
71248,note_off,104,0,0,,5,,,65,127
71249,note_on,1,0,0,,10,,,69,127
71353,note_off,104,0,0,,10,,,69,127
71354,note_on,1,0,0,,7,,,67,127
71459,note_on,105,0,0,,11,,,70,127
71463,note_off,4,0,0,,7,,,67,127
71562,note_off,99,0,0,,0,,,84,127
71562,note_off,0,0,0,,10,,,81,127
71563,note_on,1,0,0,,4,,,64,127
71563,note_on,0,0,0,,11,,,82,127
71563,note_on,0,0,0,,7,,,79,127
71567,note_off,4,0,0,,11,,,70,127
71667,note_on,100,0,0,,7,,,67,127
71671,note_off,4,0,0,,4,,,64,127
71771,note_on,100,0,0,,5,,,65,127
71775,note_off,4,0,0,,7,,,67,127
71875,note_on,100,0,0,,10,,,69,127
71879,note_off,4,0,0,,5,,,65,127
71978,note_off,99,0,0,,7,,,79,127
71978,note_off,0,0,0,,11,,,82,127
71979,note_on,1,0,0,,2,,,62,127
71979,note_on,0,0,0,,10,,,81,127
71979,note_on,0,0,0,,5,,,77,127
71983,note_off,4,0,0,,10,,,69,127
72083,note_on,100,0,0,,5,,,65,127
72087,note_off,4,0,0,,2,,,62,127
72187,note_on,100,0,0,,4,,,64,127
72191,note_off,4,0,0,,5,,,65,127
72291,note_on,100,0,0,,7,,,67,127
72301,note_off,10,0,0,,4,,,64,127
72395,note_off,94,0,0,,5,,,77,127
72395,note_off,0,0,0,,10,,,81,127
72396,note_on,1,0,0,,0,,,60,127
72396,note_on,0,0,0,,7,,,79,127
72396,note_on,0,0,0,,4,,,76,127
72406,note_off,10,0,0,,7,,,67,127
72501,note_on,95,0,0,,4,,,64,127
72511,note_off,10,0,0,,0,,,60,127
72606,note_on,95,0,0,,2,,,62,127
72616,note_off,10,0,0,,4,,,64,127
72711,note_on,95,0,0,,5,,,65,127
72721,note_off,10,0,0,,2,,,62,127
72815,note_off,94,0,0,,4,,,76,127
72815,note_off,0,0,0,,7,,,79,127
72816,note_on,1,0,0,,11,,,58,127
72816,note_on,0,0,0,,2,,,74,127
72816,note_on,0,0,0,,5,,,77,127
72826,note_off,10,0,0,,5,,,65,127
72921,note_on,95,0,0,,2,,,62,127
72931,note_off,10,0,0,,11,,,58,127
73026,note_on,95,0,0,,0,,,60,127
73036,note_off,10,0,0,,2,,,62,127
73131,note_on,95,0,0,,4,,,64,127
73146,note_off,15,0,0,,0,,,60,127
73234,note_off,88,0,0,,5,,,77,127
73234,note_off,0,0,0,,2,,,74,127
73235,note_on,1,0,0,,10,,,57,127
73235,note_on,0,0,0,,0,,,72,127
73235,note_on,0,0,0,,4,,,76,127
73250,note_off,15,0,0,,4,,,64,127
73339,note_on,89,0,0,,0,,,60,127
73354,note_off,15,0,0,,10,,,57,127
73443,note_on,89,0,0,,11,,,58,127
73458,note_off,15,0,0,,0,,,60,127
73547,note_on,89,0,0,,2,,,62,127
73562,note_off,15,0,0,,11,,,58,127
73650,note_off,88,0,0,,4,,,76,127
73650,note_off,0,0,0,,0,,,72,127
73651,note_on,1,0,0,,7,,,55,127
73651,note_on,0,0,0,,11,,,70,127
73651,note_on,0,0,0,,2,,,74,127
73666,note_off,15,0,0,,2,,,62,127
73755,note_on,89,0,0,,11,,,58,127
73770,note_off,15,0,0,,7,,,55,127
73859,note_on,89,0,0,,10,,,57,127
73874,note_off,15,0,0,,11,,,58,127
73963,note_on,89,0,0,,0,,,60,127
73984,note_off,21,0,0,,10,,,57,127
74053,note_off,69,0,0,,2,,,74,127
74053,note_off,0,0,0,,11,,,70,127
74068,note_on,15,0,0,,5,,,53,127
74068,note_on,0,0,0,,0,,,72,127
74068,note_on,0,0,0,,10,,,69,127
74089,note_off,21,0,0,,0,,,60,127
74173,note_on,84,0,0,,10,,,57,127
74194,note_off,21,0,0,,5,,,53,127
74278,note_on,84,0,0,,7,,,55,127
74299,note_off,21,0,0,,10,,,57,127
74383,note_on,84,0,0,,11,,,58,127
74404,note_off,21,0,0,,7,,,55,127
74467,note_off,63,0,0,,10,,,69,127
74467,note_off,0,0,0,,0,,,72,127
74488,note_on,21,0,0,,4,,,52,127
74488,note_on,0,0,0,,11,,,70,127
74488,note_on,0,0,0,,7,,,67,127
74509,note_off,21,0,0,,11,,,58,127
74593,note_on,84,0,0,,7,,,55,127
74614,note_off,21,0,0,,4,,,52,127
74698,note_on,84,0,0,,5,,,53,127
74719,note_off,21,0,0,,7,,,55,127
74803,note_on,84,0,0,,10,,,57,127
74829,note_off,26,0,0,,5,,,53,127
74881,note_off,52,0,0,,7,,,67,127
74881,note_off,0,0,0,,11,,,70,127
74907,note_on,26,0,0,,2,,,50,127
74907,note_on,0,0,0,,5,,,65,127
74907,note_on,0,0,0,,10,,,69,127
74933,note_off,26,0,0,,10,,,57,127
75012,note_on,79,0,0,,5,,,53,127
75038,note_off,26,0,0,,2,,,50,127
75117,note_on,79,0,0,,4,,,52,127
75143,note_off,26,0,0,,5,,,53,127
75222,note_on,79,0,0,,7,,,55,127
75248,note_off,26,0,0,,4,,,52,127
75295,note_off,47,0,0,,10,,,69,127
75295,note_off,0,0,0,,5,,,65,127
75327,note_on,32,0,0,,0,,,48,127
75327,note_on,0,0,0,,4,,,64,127
75327,note_on,0,0,0,,7,,,67,127
75353,note_off,26,0,0,,7,,,55,127
75432,note_on,79,0,0,,4,,,52,127
75458,note_off,26,0,0,,0,,,48,127
75537,note_on,79,0,0,,2,,,50,127
75563,note_off,26,0,0,,4,,,52,127
75642,note_on,79,0,0,,5,,,53,127
75674,note_off,32,0,0,,2,,,50,127
75710,note_off,36,0,0,,7,,,67,127
75710,note_off,0,0,0,,4,,,64,127
75747,note_on,37,0,0,,11,,,46,127
75747,note_on,0,0,0,,5,,,65,127
75747,note_on,0,0,0,,2,,,62,127
75779,note_off,32,0,0,,5,,,53,127
75852,note_on,73,0,0,,2,,,50,127
75884,note_off,32,0,0,,11,,,46,127
75957,note_on,73,0,0,,0,,,48,127
75989,note_off,32,0,0,,2,,,50,127
76062,note_on,73,0,0,,4,,,52,127
76094,note_off,32,0,0,,0,,,48,127
76125,note_off,31,0,0,,2,,,62,127
76125,note_off,0,0,0,,5,,,65,127
76168,note_on,43,0,0,,10,,,45,127
76168,note_on,0,0,0,,4,,,64,127
76168,note_on,0,0,0,,0,,,60,127
76200,note_off,32,0,0,,4,,,52,127
76273,note_on,73,0,0,,0,,,48,127
76305,note_off,32,0,0,,10,,,45,127
76378,note_on,73,0,0,,11,,,46,127
76410,note_off,32,0,0,,0,,,48,127
76483,note_on,73,0,0,,2,,,50,127
76520,note_off,37,0,0,,11,,,46,127
76540,note_off,20,0,0,,0,,,60,127
76540,note_off,0,0,0,,4,,,64,127
76588,note_on,48,0,0,,7,,,43,127
76588,note_on,0,0,0,,11,,,58,127
76588,note_on,0,0,0,,2,,,62,127
76625,note_off,37,0,0,,2,,,50,127
76693,note_on,68,0,0,,11,,,46,127
76730,note_off,37,0,0,,7,,,43,127
76798,note_on,68,0,0,,10,,,45,127
76835,note_off,37,0,0,,11,,,46,127
76903,note_on,68,0,0,,0,,,48,127
76940,note_off,37,0,0,,10,,,45,127
76954,note_off,14,0,0,,2,,,62,127
76954,note_off,0,0,0,,11,,,58,127
77007,note_on,53,0,0,,5,,,41,127
77007,note_on,0,0,0,,0,,,60,127
77007,note_on,0,0,0,,10,,,57,127
77044,note_off,37,0,0,,0,,,48,127
77112,note_on,68,0,0,,10,,,45,127
77149,note_off,37,0,0,,5,,,41,127
77217,note_on,68,0,0,,7,,,43,127
77254,note_off,37,0,0,,10,,,45,127
77322,note_on,68,0,0,,11,,,46,127
77365,note_off,43,0,0,,7,,,43,127
77368,note_off,3,0,0,,10,,,57,127
77368,note_off,0,0,0,,0,,,60,127
77427,note_on,59,0,0,,4,,,40,127
77427,note_on,0,0,0,,11,,,58,127
77427,note_on,0,0,0,,7,,,55,127
77470,note_off,43,0,0,,11,,,46,127
77532,note_on,62,0,0,,7,,,43,127
77575,note_off,43,0,0,,4,,,40,127
77637,note_on,62,0,0,,0,,,36,127
77680,note_off,43,0,0,,7,,,43,127
77742,note_on,62,0,0,,4,,,40,127
77785,note_off,43,0,0,,0,,,36,127
77847,note_on,62,0,0,,2,,,38,127
77890,note_off,43,0,0,,4,,,40,127
77952,note_on,62,0,0,,0,,,36,127
77995,note_off,43,0,0,,2,,,38,127
78056,note_off,61,0,0,,7,,,55,127
78056,note_off,0,0,0,,11,,,58,127
78057,note_on,1,0,0,,5,,,41,127
78057,note_on,0,0,0,,10,,,57,127
78100,note_off,43,0,0,,0,,,36,127
78161,note_off,61,0,0,,10,,,57,127
78162,note_on,1,0,0,,0,,,60,127
78266,note_off,104,0,0,,0,,,60,127
78267,note_on,1,0,0,,10,,,57,127
78371,note_off,104,0,0,,10,,,57,127
78372,note_on,1,0,0,,5,,,53,127
78476,note_off,104,0,0,,5,,,53,127
78476,note_off,0,0,0,,5,,,41,127
78477,note_on,1,0,0,,11,,,34,127
78477,note_on,0,0,0,,2,,,62,127
78581,note_off,104,0,0,,2,,,62,127
78582,note_on,1,0,0,,5,,,65,127
78686,note_off,104,0,0,,5,,,65,127
78686,note_off,0,0,0,,11,,,34,127
78687,note_on,1,0,0,,11,,,46,127
78687,note_on,0,0,0,,2,,,62,127
78791,note_off,104,0,0,,2,,,62,127
78792,note_on,1,0,0,,11,,,58,127
78896,note_off,104,0,0,,11,,,58,127
78896,note_off,0,0,0,,11,,,46,127
78897,note_on,1,0,0,,0,,,36,127
78897,note_on,0,0,0,,4,,,64,127
79001,note_off,104,0,0,,4,,,64,127
79002,note_on,1,0,0,,7,,,67,127
79106,note_off,104,0,0,,7,,,67,127
79106,note_off,0,0,0,,0,,,36,127
79107,note_on,1,0,0,,0,,,48,127
79107,note_on,0,0,0,,4,,,64,127
79211,note_off,104,0,0,,4,,,64,127
79212,note_on,1,0,0,,0,,,60,127
79316,note_off,104,0,0,,0,,,60,127
79316,note_off,0,0,0,,0,,,48,127
79317,note_on,1,0,0,,5,,,41,127
79317,note_on,0,0,0,,10,,,69,127
79421,note_off,104,0,0,,10,,,69,127
79422,note_on,1,0,0,,0,,,72,127
79526,note_off,104,0,0,,0,,,72,127
79526,note_off,0,0,0,,5,,,41,127
79527,note_on,1,0,0,,5,,,53,127
79527,note_on,0,0,0,,10,,,69,127
79631,note_off,104,0,0,,10,,,69,127
79632,note_on,1,0,0,,5,,,65,127
79736,note_off,104,0,0,,5,,,65,127
79736,note_off,0,0,0,,5,,,53,127
79737,note_on,1,0,0,,11,,,46,127
79737,note_on,0,0,0,,2,,,74,127
79841,note_off,104,0,0,,2,,,74,127
79842,note_on,1,0,0,,5,,,77,127
79946,note_off,104,0,0,,5,,,77,127
79946,note_off,0,0,0,,11,,,46,127
79947,note_on,1,0,0,,11,,,58,127
79947,note_on,0,0,0,,2,,,74,127
80051,note_off,104,0,0,,2,,,74,127
80052,note_on,1,0,0,,11,,,70,127
80156,note_off,104,0,0,,11,,,70,127
80156,note_off,0,0,0,,11,,,58,127
80157,note_on,1,0,0,,0,,,48,127
80157,note_on,0,0,0,,4,,,76,127
80261,note_off,104,0,0,,4,,,76,127
80262,note_on,1,0,0,,7,,,79,127
80366,note_off,104,0,0,,7,,,79,127
80366,note_off,0,0,0,,0,,,48,127
80367,note_on,1,0,0,,0,,,60,127
80367,note_on,0,0,0,,4,,,76,127
80471,note_off,104,0,0,,4,,,76,127
80472,note_on,1,0,0,,0,,,72,127
80576,note_off,104,0,0,,0,,,72,127
80576,note_off,0,0,0,,0,,,60,127
80577,note_on,1,0,0,,5,,,53,127
80577,note_on,0,0,0,,10,,,81,127
80681,note_off,104,0,0,,10,,,81,127
80682,note_on,1,0,0,,7,,,79,127
80786,note_off,104,0,0,,7,,,79,127
80786,note_off,0,0,0,,5,,,53,127
80787,note_on,1,0,0,,7,,,55,127
80787,note_on,0,0,0,,5,,,77,127
80891,note_off,104,0,0,,5,,,77,127
80892,note_on,1,0,0,,4,,,76,127
80996,note_off,104,0,0,,4,,,76,127
80996,note_off,0,0,0,,7,,,55,127
80997,note_on,1,0,0,,10,,,57,127
80997,note_on,0,0,0,,5,,,77,127
81101,note_off,104,0,0,,5,,,77,127
81102,note_on,1,0,0,,4,,,76,127
81206,note_off,104,0,0,,4,,,76,127
81206,note_off,0,0,0,,10,,,57,127
81207,note_on,1,0,0,,5,,,53,127
81207,note_on,0,0,0,,2,,,74,127
81311,note_off,104,0,0,,2,,,74,127
81312,note_on,1,0,0,,0,,,72,127
81416,note_off,104,0,0,,0,,,72,127
81416,note_off,0,0,0,,5,,,53,127
81417,note_on,1,0,0,,7,,,55,127
81417,note_on,0,0,0,,11,,,70,127
81521,note_off,104,0,0,,11,,,70,127
81522,note_on,1,0,0,,10,,,69,127
81626,note_off,104,0,0,,10,,,69,127
81627,note_on,1,0,0,,7,,,67,127
81731,note_off,104,0,0,,7,,,67,127
81732,note_on,1,0,0,,5,,,65,127
81836,note_off,104,0,0,,5,,,65,127
81836,note_off,0,0,0,,7,,,55,127
81837,note_on,1,0,0,,0,,,48,127
81837,note_on,0,0,0,,4,,,64,127
81941,note_off,104,0,0,,4,,,64,127
81942,note_on,1,0,0,,2,,,62,127
82046,note_off,104,0,0,,2,,,62,127
82047,note_on,1,0,0,,0,,,60,127
82151,note_off,104,0,0,,0,,,60,127
82152,note_on,1,0,0,,11,,,58,127
82256,note_off,104,0,0,,11,,,58,127
82256,note_off,0,0,0,,0,,,48,127
82257,note_on,1,0,0,,5,,,41,127
82257,note_on,0,0,0,,10,,,57,127
82361,note_off,104,0,0,,10,,,57,127
82362,note_on,1,0,0,,0,,,60,127
82466,note_off,104,0,0,,0,,,60,127
82466,note_off,0,0,0,,5,,,41,127
82467,note_on,1,0,0,,5,,,53,127
82467,note_on,0,0,0,,10,,,57,127
82565,note_off,98,0,0,,5,,,53,127
82570,note_off,5,0,0,,10,,,57,127
82571,note_on,1,0,0,,5,,,53,127
82675,note_off,104,0,0,,5,,,53,127
82676,note_on,1,0,0,,11,,,34,127
82676,note_on,0,0,0,,2,,,62,127
82780,note_off,104,0,0,,2,,,62,127
82781,note_on,1,0,0,,5,,,65,127
82885,note_off,104,0,0,,5,,,65,127
82885,note_off,0,0,0,,11,,,34,127
82886,note_on,1,0,0,,11,,,46,127
82886,note_on,0,0,0,,2,,,62,127
82990,note_off,104,0,0,,2,,,62,127
82991,note_on,1,0,0,,11,,,58,127
83095,note_off,104,0,0,,11,,,58,127
83095,note_off,0,0,0,,11,,,46,127
83096,note_on,1,0,0,,0,,,36,127
83096,note_on,0,0,0,,4,,,64,127
83200,note_off,104,0,0,,4,,,64,127
83201,note_on,1,0,0,,7,,,67,127
83305,note_off,104,0,0,,7,,,67,127
83305,note_off,0,0,0,,0,,,36,127
83306,note_on,1,0,0,,0,,,48,127
83306,note_on,0,0,0,,4,,,64,127
83410,note_off,104,0,0,,4,,,64,127
83411,note_on,1,0,0,,0,,,60,127
83515,note_off,104,0,0,,0,,,60,127
83515,note_off,0,0,0,,0,,,48,127
83516,note_on,1,0,0,,5,,,41,127
83516,note_on,0,0,0,,10,,,69,127
83620,note_off,104,0,0,,10,,,69,127
83621,note_on,1,0,0,,0,,,72,127
83725,note_off,104,0,0,,0,,,72,127
83725,note_off,0,0,0,,5,,,41,127
83726,note_on,1,0,0,,5,,,53,127
83726,note_on,0,0,0,,10,,,69,127
83830,note_off,104,0,0,,10,,,69,127
83831,note_on,1,0,0,,5,,,65,127
83935,note_off,104,0,0,,5,,,65,127
83935,note_off,0,0,0,,5,,,53,127
83936,note_on,1,0,0,,11,,,46,127
83936,note_on,0,0,0,,2,,,74,127
84040,note_off,104,0,0,,2,,,74,127
84041,note_on,1,0,0,,5,,,77,127
84145,note_off,104,0,0,,5,,,77,127
84145,note_off,0,0,0,,11,,,46,127
84146,note_on,1,0,0,,11,,,58,127
84146,note_on,0,0,0,,2,,,74,127
84250,note_off,104,0,0,,2,,,74,127
84251,note_on,1,0,0,,11,,,70,127
84355,note_off,104,0,0,,11,,,70,127
84355,note_off,0,0,0,,11,,,58,127
84356,note_on,1,0,0,,0,,,48,127
84356,note_on,0,0,0,,4,,,76,127
84460,note_off,104,0,0,,4,,,76,127
84461,note_on,1,0,0,,7,,,79,127
84565,note_off,104,0,0,,7,,,79,127
84565,note_off,0,0,0,,0,,,48,127
84566,note_on,1,0,0,,0,,,60,127
84566,note_on,0,0,0,,4,,,76,127
84670,note_off,104,0,0,,4,,,76,127
84671,note_on,1,0,0,,0,,,72,127
84775,note_off,104,0,0,,0,,,72,127
84775,note_off,0,0,0,,0,,,60,127
84776,note_on,1,0,0,,5,,,53,127
84776,note_on,0,0,0,,10,,,81,127
84880,note_off,104,0,0,,10,,,81,127
84881,note_on,1,0,0,,5,,,77,127
84985,note_off,104,0,0,,5,,,77,127
84985,note_off,0,0,0,,5,,,53,127
84986,note_on,1,0,0,,11,,,58,127
84986,note_on,0,0,0,,11,,,82,127
85090,note_off,104,0,0,,11,,,82,127
85091,note_on,1,0,0,,7,,,79,127
85195,note_off,104,0,0,,7,,,79,127
85195,note_off,0,0,0,,11,,,58,127
85196,note_on,1,0,0,,0,,,60,127
85196,note_on,0,0,0,,10,,,81,127
85247,note_off,51,0,0,,10,,,81,127
85248,note_on,1,0,0,,7,,,79,127
85299,note_off,51,0,0,,7,,,79,127
85300,note_on,1,0,0,,10,,,81,127
85351,note_off,51,0,0,,10,,,81,127
85352,note_on,1,0,0,,7,,,79,127
85403,note_off,51,0,0,,7,,,79,127
85403,note_off,0,0,0,,0,,,60,127
85404,note_on,1,0,0,,0,,,48,127
85404,note_on,0,0,0,,10,,,81,127
85455,note_off,51,0,0,,10,,,81,127
85456,note_on,1,0,0,,7,,,79,127
85507,note_off,51,0,0,,7,,,79,127
85508,note_on,1,0,0,,5,,,77,127
85559,note_off,51,0,0,,5,,,77,127
85560,note_on,1,0,0,,7,,,79,127
85611,note_off,51,0,0,,7,,,79,127
85611,note_off,0,0,0,,0,,,48,127
85612,note_on,1,0,0,,5,,,53,127
85612,note_on,0,0,0,,5,,,77,127
85820,note_off,208,0,0,,5,,,77,127
85820,note_off,0,0,0,,5,,,53,127
85821,note_on,1,0,0,,5,,,77,127
85821,note_on,0,0,0,,0,,,84,127
86029,note_off,208,0,0,,0,,,84,127
86030,note_on,1,0,0,,10,,,81,127
86081,note_off,51,0,0,,10,,,81,127
86082,note_on,1,0,0,,7,,,79,127
86133,note_off,51,0,0,,7,,,79,127
86134,note_on,1,0,0,,10,,,81,127
86185,note_off,51,0,0,,10,,,81,127
86186,note_on,1,0,0,,7,,,79,127
86237,note_off,51,0,0,,7,,,79,127
86237,note_off,0,0,0,,5,,,77,127
86238,note_on,1,0,0,,4,,,76,127
86238,note_on,0,0,0,,10,,,81,127
86289,note_off,51,0,0,,10,,,81,127
86290,note_on,1,0,0,,7,,,79,127
86341,note_off,51,0,0,,7,,,79,127
86342,note_on,1,0,0,,5,,,77,127
86393,note_off,51,0,0,,5,,,77,127
86394,note_on,1,0,0,,7,,,79,127
86445,note_off,51,0,0,,7,,,79,127
86445,note_off,0,0,0,,4,,,76,127
86446,note_on,1,0,0,,5,,,77,127
86446,note_on,0,0,0,,10,,,81,127
86654,note_off,208,0,0,,10,,,81,127
86654,note_off,0,0,0,,5,,,77,127
86655,note_on,1,0,0,,5,,,65,127
86655,note_on,0,0,0,,0,,,84,127
86863,note_off,208,0,0,,0,,,84,127
86864,note_on,1,0,0,,10,,,69,127
86915,note_off,51,0,0,,10,,,69,127
86916,note_on,1,0,0,,7,,,67,127
86967,note_off,51,0,0,,7,,,67,127
86968,note_on,1,0,0,,10,,,69,127
87019,note_off,51,0,0,,10,,,69,127
87020,note_on,1,0,0,,7,,,67,127
87071,note_off,51,0,0,,7,,,67,127
87071,note_off,0,0,0,,5,,,65,127
87072,note_on,1,0,0,,4,,,64,127
87072,note_on,0,0,0,,10,,,69,127
87123,note_off,51,0,0,,10,,,69,127
87124,note_on,1,0,0,,7,,,67,127
87175,note_off,51,0,0,,7,,,67,127
87176,note_on,1,0,0,,5,,,65,127
87227,note_off,51,0,0,,5,,,65,127
87228,note_on,1,0,0,,7,,,67,127
87279,note_off,51,0,0,,7,,,67,127
87279,note_off,0,0,0,,4,,,64,127
87280,note_on,1,0,0,,5,,,65,127
87280,note_on,0,0,0,,10,,,69,127
87488,note_off,208,0,0,,10,,,69,127
87488,note_off,0,0,0,,5,,,65,127
87489,note_on,1,0,0,,5,,,53,127
87489,note_on,0,0,0,,0,,,84,127
87697,note_off,208,0,0,,0,,,84,127
87698,note_on,1,0,0,,10,,,57,127
87749,note_off,51,0,0,,10,,,57,127
87750,note_on,1,0,0,,7,,,55,127
87801,note_off,51,0,0,,7,,,55,127
87802,note_on,1,0,0,,10,,,57,127
87853,note_off,51,0,0,,10,,,57,127
87854,note_on,1,0,0,,7,,,55,127
87905,note_off,51,0,0,,7,,,55,127
87905,note_off,0,0,0,,5,,,53,127
87906,note_on,1,0,0,,4,,,52,127
87906,note_on,0,0,0,,10,,,57,127
87957,note_off,51,0,0,,10,,,57,127
87958,note_on,1,0,0,,7,,,55,127
88009,note_off,51,0,0,,7,,,55,127
88010,note_on,1,0,0,,5,,,53,127
88061,note_off,51,0,0,,5,,,53,127
88062,note_on,1,0,0,,7,,,55,127
88113,note_off,51,0,0,,7,,,55,127
88113,note_off,0,0,0,,4,,,52,127
88114,note_on,1,0,0,,5,,,53,127
88114,note_on,0,0,0,,10,,,57,127
88212,note_off,98,0,0,,5,,,53,127
88217,note_off,5,0,0,,10,,,57,127
88218,note_on,1,0,0,,5,,,53,127
88322,note_off,104,0,0,,5,,,53,127
88323,note_on,1,0,0,,11,,,46,127
88323,note_on,0,0,0,,11,,,58,127
88427,note_off,104,0,0,,11,,,58,127
88428,note_on,1,0,0,,7,,,55,127
88532,note_off,104,0,0,,7,,,55,127
88532,note_off,0,0,0,,11,,,46,127
88533,note_on,1,0,0,,0,,,48,127
88533,note_on,0,0,0,,10,,,57,127
88741,note_off,208,0,0,,10,,,57,127
88741,note_off,0,0,0,,0,,,48,127
88742,note_on,1,0,0,,0,,,36,127
88742,note_on,0,0,0,,10,,,57,127
88793,note_off,51,0,0,,10,,,57,127
88794,note_on,1,0,0,,7,,,55,127
88845,note_off,51,0,0,,7,,,55,127
88846,note_on,1,0,0,,10,,,57,127
88897,note_off,51,0,0,,10,,,57,127
88898,note_on,1,0,0,,7,,,55,127
88949,note_off,51,0,0,,7,,,55,127
88949,note_off,0,0,0,,0,,,36,127
88950,note_on,1,0,0,,5,,,41,127
88950,note_on,0,0,0,,5,,,53,127
89158,note_off,208,0,0,,5,,,53,127
89158,note_off,0,0,0,,5,,,41,127
89159,note_on,1,0,0,,5,,,77,127
89159,note_on,0,0,0,,0,,,84,127
89367,note_off,208,0,0,,0,,,84,127
89368,note_on,1,0,0,,10,,,81,127
89419,note_off,51,0,0,,10,,,81,127
89420,note_on,1,0,0,,7,,,79,127
89471,note_off,51,0,0,,7,,,79,127
89472,note_on,1,0,0,,10,,,81,127
89523,note_off,51,0,0,,10,,,81,127
89524,note_on,1,0,0,,7,,,79,127
89575,note_off,51,0,0,,7,,,79,127
89575,note_off,0,0,0,,5,,,77,127
89576,note_on,1,0,0,,4,,,76,127
89576,note_on,0,0,0,,10,,,81,127
89627,note_off,51,0,0,,10,,,81,127
89628,note_on,1,0,0,,7,,,79,127
89679,note_off,51,0,0,,7,,,79,127
89680,note_on,1,0,0,,5,,,77,127
89731,note_off,51,0,0,,5,,,77,127
89732,note_on,1,0,0,,7,,,79,127
89783,note_off,51,0,0,,7,,,79,127
89783,note_off,0,0,0,,4,,,76,127
89784,note_on,1,0,0,,5,,,77,127
89784,note_on,0,0,0,,10,,,81,127
89992,note_off,208,0,0,,10,,,81,127
89992,note_off,0,0,0,,5,,,77,127
89993,note_on,1,0,0,,5,,,65,127
89993,note_on,0,0,0,,0,,,84,127
90201,note_off,208,0,0,,0,,,84,127
90202,note_on,1,0,0,,10,,,69,127
90253,note_off,51,0,0,,10,,,69,127
90254,note_on,1,0,0,,7,,,67,127
90305,note_off,51,0,0,,7,,,67,127
90306,note_on,1,0,0,,10,,,69,127
90357,note_off,51,0,0,,10,,,69,127
90358,note_on,1,0,0,,7,,,67,127
90409,note_off,51,0,0,,7,,,67,127
90409,note_off,0,0,0,,5,,,65,127
90410,note_on,1,0,0,,4,,,64,127
90410,note_on,0,0,0,,10,,,69,127
90461,note_off,51,0,0,,10,,,69,127
90462,note_on,1,0,0,,7,,,67,127
90513,note_off,51,0,0,,7,,,67,127
90514,note_on,1,0,0,,5,,,65,127
90565,note_off,51,0,0,,5,,,65,127
90566,note_on,1,0,0,,7,,,67,127
90617,note_off,51,0,0,,7,,,67,127
90617,note_off,0,0,0,,4,,,64,127
90618,note_on,1,0,0,,5,,,65,127
90618,note_on,0,0,0,,10,,,69,127
90826,note_off,208,0,0,,10,,,69,127
90826,note_off,0,0,0,,5,,,65,127
90827,note_on,1,0,0,,5,,,53,127
90827,note_on,0,0,0,,0,,,84,127
91035,note_off,208,0,0,,0,,,84,127
91036,note_on,1,0,0,,10,,,57,127
91087,note_off,51,0,0,,10,,,57,127
91088,note_on,1,0,0,,7,,,55,127
91139,note_off,51,0,0,,7,,,55,127
91140,note_on,1,0,0,,10,,,57,127
91191,note_off,51,0,0,,10,,,57,127
91192,note_on,1,0,0,,7,,,55,127
91243,note_off,51,0,0,,7,,,55,127
91243,note_off,0,0,0,,5,,,53,127
91244,note_on,1,0,0,,4,,,52,127
91244,note_on,0,0,0,,10,,,57,127
91295,note_off,51,0,0,,10,,,57,127
91296,note_on,1,0,0,,7,,,55,127
91347,note_off,51,0,0,,7,,,55,127
91348,note_on,1,0,0,,5,,,53,127
91399,note_off,51,0,0,,5,,,53,127
91400,note_on,1,0,0,,7,,,55,127
91451,note_off,51,0,0,,7,,,55,127
91451,note_off,0,0,0,,4,,,52,127
91452,note_on,1,0,0,,5,,,53,127
91452,note_on,0,0,0,,10,,,57,127
91550,note_off,98,0,0,,5,,,53,127
91555,note_off,5,0,0,,10,,,57,127
91556,note_on,1,0,0,,5,,,53,127
91660,note_off,104,0,0,,5,,,53,127
91661,note_on,1,0,0,,11,,,46,127
91661,note_on,0,0,0,,11,,,58,127
91765,note_off,104,0,0,,11,,,58,127
91766,note_on,1,0,0,,7,,,55,127
91870,note_off,104,0,0,,7,,,55,127
91870,note_off,0,0,0,,11,,,46,127
91871,note_on,1,0,0,,0,,,48,127
91871,note_on,0,0,0,,10,,,57,127
92079,note_off,208,0,0,,10,,,57,127
92079,note_off,0,0,0,,0,,,48,127
92080,note_on,1,0,0,,0,,,36,127
92080,note_on,0,0,0,,10,,,57,127
92131,note_off,51,0,0,,10,,,57,127
92132,note_on,1,0,0,,7,,,55,127
92183,note_off,51,0,0,,7,,,55,127
92184,note_on,1,0,0,,10,,,57,127
92235,note_off,51,0,0,,10,,,57,127
92236,note_on,1,0,0,,7,,,55,127
92287,note_off,51,0,0,,7,,,55,127
92287,note_off,0,0,0,,0,,,36,127
92289,note_on,2,0,0,,5,,,53,127
92289,note_on,0,0,0,,5,,,41,127
92465,note_off,176,0,0,,5,,,53,127
92499,note_off,34,0,0,,5,,,41,127
92503,note_on,4,0,0,,0,,,60,127
92503,note_on,0,0,0,,10,,,45,127
92712,note_off,209,0,0,,10,,,45,127
92712,note_off,0,0,0,,0,,,60,127
92716,note_on,4,0,0,,1,,,61,127
92716,note_on,0,0,0,,11,,,46,127
92925,note_off,209,0,0,,11,,,46,127
92925,note_off,0,0,0,,1,,,61,127
92929,note_on,4,0,0,,2,,,62,127
92929,note_on,0,0,0,,7,,,43,127
93138,note_off,209,0,0,,7,,,43,127
93138,note_off,0,0,0,,2,,,62,127
93142,note_on,4,0,0,,4,,,64,127
93142,note_on,0,0,0,,0,,,48,127
93351,note_off,209,0,0,,0,,,48,127
93351,note_off,0,0,0,,4,,,64,127
93355,note_on,4,0,0,,5,,,65,127
93355,note_on,0,0,0,,11,,,46,127
93459,note_off,104,0,0,,5,,,65,127
93462,note_on,3,0,0,,7,,,67,127
93565,note_off,103,0,0,,11,,,46,127
93568,note_on,3,0,0,,10,,,57,127
93568,note_on,0,0,0,,0,,,48,127
93583,note_off,15,0,0,,7,,,67,127
93675,note_on,92,0,0,,5,,,65,127
93726,note_off,51,0,0,,10,,,57,127
93777,note_off,51,0,0,,0,,,48,127
93781,note_on,4,0,0,,7,,,55,127
93781,note_on,0,0,0,,0,,,36,127
93832,note_off,51,0,0,,5,,,65,127
93888,note_on,56,0,0,,4,,,64,127
93939,note_off,51,0,0,,7,,,55,127
93990,note_off,51,0,0,,0,,,36,127
93993,note_off,3,0,0,,4,,,64,127
93996,note_on,3,0,0,,5,,,41,127
93996,note_on,0,0,0,,5,,,65,127
94211,note_off,215,0,0,,5,,,65,127
94211,note_off,0,0,0,,5,,,41,127
94216,note_on,5,0,0,,10,,,57,127
94216,note_on,0,0,0,,0,,,72,127
94431,note_off,215,0,0,,0,,,72,127
94431,note_off,0,0,0,,10,,,57,127
94436,note_on,5,0,0,,11,,,58,127
94436,note_on,0,0,0,,1,,,73,127
94651,note_off,215,0,0,,1,,,73,127
94651,note_off,0,0,0,,11,,,58,127
94656,note_on,5,0,0,,7,,,55,127
94656,note_on,0,0,0,,2,,,74,127
94871,note_off,215,0,0,,2,,,74,127
94871,note_off,0,0,0,,7,,,55,127
94875,note_on,4,0,0,,0,,,60,127
94875,note_on,0,0,0,,4,,,76,127
95090,note_off,215,0,0,,4,,,76,127
95090,note_off,0,0,0,,0,,,60,127
95095,note_on,5,0,0,,11,,,58,127
95095,note_on,0,0,0,,5,,,77,127
95201,note_off,106,0,0,,5,,,77,127
95205,note_on,4,0,0,,7,,,79,127
95310,note_off,105,0,0,,11,,,58,127
95311,note_off,1,0,0,,7,,,79,127
95315,note_on,4,0,0,,0,,,60,127
95315,note_on,0,0,0,,10,,,69,127
95425,note_on,110,0,0,,5,,,77,127
95477,note_off,52,0,0,,10,,,69,127
95535,note_on,58,0,0,,0,,,48,127
95535,note_on,0,0,0,,7,,,67,127
95587,note_off,52,0,0,,5,,,77,127
95645,note_on,58,0,0,,4,,,76,127
95697,note_off,52,0,0,,7,,,67,127
95744,note_off,47,0,0,,0,,,60,127
95749,note_off,5,0,0,,0,,,48,127
95750,note_off,1,0,0,,4,,,76,127
95753,note_on,3,0,0,,5,,,41,127
95753,note_on,0,0,0,,5,,,53,127
95753,note_on,0,0,0,,4,,,76,127
96296,note_off,543,0,0,,4,,,76,127
96304,note_on,8,0,0,,5,,,77,127
97931,note_off,1627,0,0,,5,,,53,127
97931,note_off,0,0,0,,5,,,41,127
97938,note_off,7,0,0,,5,,,77,127
102912,end_of_track,4974,1,0,,,,,,
