tick,type,time,meta,track,program,channel,pitch,tempo,note,velocity
0,copyright,0,1,0,,,,,,
0,program_change,0,0,0,6,0,,,,
0,pitchwheel,0,0,0,,0,0,,,
0,program_change,0,0,0,6,1,,,,
0,pitchwheel,0,0,0,,1,-590,,,
0,program_change,0,0,0,6,2,,,,
0,pitchwheel,0,0,0,,2,-272,,,
0,program_change,0,0,0,6,3,,,,
0,pitchwheel,0,0,0,,3,-353,,,
0,program_change,0,0,0,6,4,,,,
0,pitchwheel,0,0,0,,4,-560,,,
0,program_change,0,0,0,6,5,,,,
0,pitchwheel,0,0,0,,5,-80,,,
0,program_change,0,0,0,6,6,,,,
0,pitchwheel,0,0,0,,6,-625,,,
0,program_change,0,0,0,6,7,,,,
0,pitchwheel,0,0,0,,7,-130,,,
0,program_change,0,0,0,6,8,,,,
0,pitchwheel,0,0,0,,8,-512,,,
0,program_change,0,0,0,6,10,,,,
0,pitchwheel,0,0,0,,10,-464,,,
0,program_change,0,0,0,6,11,,,,
0,pitchwheel,0,0,0,,11,-208,,,
0,program_change,0,0,0,6,12,,,,
0,pitchwheel,0,0,0,,12,-553,,,
0,set_tempo,0,1,0,,,,500000,,
100,note_on,100,0,0,,11,,,70,127
199,note_off,99,0,0,,11,,,70,127
200,note_on,1,0,0,,0,,,72,127
299,note_off,99,0,0,,0,,,72,127
300,note_on,1,0,0,,2,,,74,127
500,note_on,200,0,0,,11,,,70,127
696,note_off,196,0,0,,2,,,74,127
699,note_off,3,0,0,,11,,,70,127
700,note_on,1,0,0,,3,,,75,127
700,note_on,0,0,0,,0,,,72,127
899,note_off,199,0,0,,0,,,72,127
900,note_on,1,0,0,,10,,,69,127
1099,note_off,199,0,0,,10,,,69,127
1099,note_off,0,0,0,,3,,,75,127
1100,note_on,1,0,0,,2,,,74,127
1100,note_on,0,0,0,,11,,,70,127
1299,note_off,199,0,0,,11,,,70,127
1300,note_on,1,0,0,,7,,,67,127
1499,note_off,199,0,0,,7,,,67,127
1499,note_off,0,0,0,,2,,,74,127
1500,note_on,1,0,0,,0,,,72,127
1500,note_on,0,0,0,,10,,,69,127
1699,note_off,199,0,0,,10,,,69,127
1700,note_on,1,0,0,,6,,,66,127
1899,note_off,199,0,0,,6,,,66,127
1899,note_off,0,0,0,,0,,,72,127
1900,note_on,1,0,0,,11,,,70,127
1900,note_on,0,0,0,,7,,,67,127
2099,note_off,199,0,0,,7,,,67,127
2099,note_off,0,0,0,,11,,,70,127
2100,note_on,1,0,0,,10,,,69,127
2100,note_on,0,0,0,,2,,,62,127
2299,note_off,199,0,0,,2,,,62,127
2300,note_on,1,0,0,,3,,,63,127
2499,note_off,199,0,0,,10,,,69,127
2500,note_on,1,0,0,,7,,,67,127
2699,note_off,199,0,0,,7,,,67,127
2699,note_off,0,0,0,,3,,,63,127
2700,note_on,1,0,0,,10,,,69,127
2700,note_on,0,0,0,,2,,,62,127
2876,note_off,176,0,0,,10,,,69,127
2900,note_on,24,0,0,,11,,,70,127
2999,note_off,99,0,0,,11,,,70,127
3000,note_on,1,0,0,,0,,,72,127
3099,note_off,99,0,0,,0,,,72,127
3100,note_on,1,0,0,,2,,,74,127
3209,note_off,109,0,0,,2,,,62,127
3301,note_on,92,0,0,,11,,,58,127
3400,note_off,99,0,0,,11,,,58,127
3401,note_on,1,0,0,,0,,,60,127
3500,note_off,99,0,0,,0,,,60,127
3501,note_on,1,0,0,,2,,,62,127
3700,note_off,199,0,0,,2,,,62,127
3701,note_on,1,0,0,,11,,,58,127
3900,note_off,199,0,0,,11,,,58,127
3901,note_on,1,0,0,,0,,,60,127
4100,note_off,199,0,0,,0,,,60,127
4100,note_off,0,0,0,,2,,,74,127
4101,note_on,1,0,0,,6,,,78,127
4101,note_on,0,0,0,,10,,,57,127
4300,note_off,199,0,0,,10,,,57,127
4301,note_on,1,0,0,,11,,,58,127
4500,note_off,199,0,0,,11,,,58,127
4500,note_off,0,0,0,,6,,,78,127
4501,note_on,1,0,0,,7,,,79,127
4501,note_on,0,0,0,,7,,,55,127
4700,note_off,199,0,0,,7,,,55,127
4701,note_on,1,0,0,,6,,,54,127
4900,note_off,199,0,0,,6,,,54,127
4900,note_off,0,0,0,,7,,,79,127
4901,note_on,1,0,0,,10,,,81,127
4901,note_on,0,0,0,,2,,,50,127
5100,note_off,199,0,0,,2,,,50,127
5100,note_off,0,0,0,,10,,,81,127
5101,note_on,1,0,0,,0,,,72,127
5101,note_on,0,0,0,,7,,,55,127
5200,note_off,99,0,0,,0,,,72,127
5201,note_on,1,0,0,,11,,,70,127
5300,note_off,99,0,0,,11,,,70,127
5300,note_off,0,0,0,,7,,,55,127
5301,note_on,1,0,0,,10,,,69,127
5301,note_on,0,0,0,,3,,,51,127
5400,note_off,99,0,0,,10,,,69,127
5401,note_on,1,0,0,,7,,,67,127
5500,note_off,99,0,0,,7,,,67,127
5500,note_off,0,0,0,,3,,,51,127
5501,note_on,1,0,0,,11,,,70,127
5501,note_on,0,0,0,,0,,,48,127
5600,note_off,99,0,0,,11,,,70,127
5601,note_on,1,0,0,,10,,,69,127
5700,note_off,99,0,0,,10,,,69,127
5700,note_off,0,0,0,,0,,,48,127
5701,note_on,1,0,0,,7,,,67,127
5701,note_on,0,0,0,,2,,,50,127
5800,note_off,99,0,0,,7,,,67,127
5801,note_on,1,0,0,,6,,,66,127
5900,note_off,99,0,0,,6,,,66,127
5900,note_off,0,0,0,,2,,,50,127
5901,note_on,1,0,0,,7,,,67,127
5901,note_on,0,0,0,,7,,,43,127
6078,note_off,177,0,0,,7,,,67,127
6101,note_on,23,0,0,,11,,,70,127
6200,note_off,99,0,0,,11,,,70,127
6201,note_on,1,0,0,,0,,,72,127
6300,note_off,99,0,0,,0,,,72,127
6301,note_on,1,0,0,,2,,,74,127
6401,note_off,100,0,0,,7,,,43,127
6501,note_on,100,0,0,,2,,,62,127
6501,note_on,0,0,0,,5,,,65,127
6600,note_off,99,0,0,,5,,,65,127
6600,note_off,0,0,0,,2,,,62,127
6601,note_on,1,0,0,,7,,,67,127
6601,note_on,0,0,0,,3,,,63,127
6700,note_off,99,0,0,,3,,,63,127
6700,note_off,0,0,0,,7,,,67,127
6701,note_on,1,0,0,,5,,,65,127
6701,note_on,0,0,0,,8,,,68,127
6900,note_off,199,0,0,,2,,,74,127
6901,note_on,1,0,0,,3,,,75,127
7000,note_off,99,0,0,,3,,,75,127
7001,note_on,1,0,0,,5,,,77,127
7100,note_off,99,0,0,,5,,,77,127
7100,note_off,0,0,0,,8,,,68,127
7100,note_off,0,0,0,,5,,,65,127
7101,note_on,1,0,0,,7,,,79,127
7101,note_on,0,0,0,,3,,,63,127
7101,note_on,0,0,0,,7,,,67,127
7300,note_off,199,0,0,,7,,,67,127
7300,note_off,0,0,0,,3,,,63,127
7301,note_on,1,0,0,,0,,,72,127
7301,note_on,0,0,0,,5,,,65,127
7301,note_on,0,0,0,,8,,,68,127
7351,note_off,50,0,0,,7,,,79,127
7500,note_off,149,0,0,,8,,,68,127
7500,note_off,0,0,0,,5,,,65,127
7500,note_off,0,0,0,,0,,,72,127
7501,note_on,1,0,0,,2,,,74,127
7501,note_on,0,0,0,,7,,,55,127
7501,note_on,0,0,0,,7,,,67,127
7600,note_off,99,0,0,,2,,,74,127
7601,note_on,1,0,0,,0,,,72,127
7700,note_off,99,0,0,,0,,,72,127
7701,note_on,1,0,0,,12,,,71,127
7800,note_off,99,0,0,,12,,,71,127
7801,note_on,1,0,0,,1,,,73,127
7900,note_off,99,0,0,,1,,,73,127
7901,note_on,1,0,0,,2,,,74,127
8100,note_off,199,0,0,,7,,,67,127
8100,note_off,0,0,0,,7,,,55,127
8101,note_on,1,0,0,,5,,,65,127
8101,note_on,0,0,0,,2,,,62,127
8200,note_off,99,0,0,,2,,,62,127
8200,note_off,0,0,0,,5,,,65,127
8201,note_on,1,0,0,,4,,,64,127
8201,note_on,0,0,0,,7,,,67,127
8300,note_off,99,0,0,,7,,,67,127
8300,note_off,0,0,0,,4,,,64,127
8301,note_on,1,0,0,,5,,,65,127
8301,note_on,0,0,0,,10,,,69,127
8401,note_off,100,0,0,,2,,,74,127
8501,note_on,100,0,0,,5,,,77,127
8600,note_off,99,0,0,,5,,,77,127
8601,note_on,1,0,0,,7,,,79,127
8700,note_off,99,0,0,,7,,,79,127
8700,note_off,0,0,0,,10,,,69,127
8700,note_off,0,0,0,,5,,,65,127
8701,note_on,1,0,0,,10,,,81,127
8701,note_on,0,0,0,,10,,,69,127
8701,note_on,0,0,0,,5,,,65,127
8900,note_off,199,0,0,,5,,,65,127
8900,note_off,0,0,0,,10,,,69,127
8901,note_on,1,0,0,,2,,,74,127
8901,note_on,0,0,0,,7,,,67,127
8901,note_on,0,0,0,,11,,,70,127
8951,note_off,50,0,0,,10,,,81,127
9100,note_off,149,0,0,,11,,,70,127
9100,note_off,0,0,0,,7,,,67,127
9100,note_off,0,0,0,,2,,,74,127
9101,note_on,1,0,0,,4,,,76,127
9101,note_on,0,0,0,,10,,,57,127
9101,note_on,0,0,0,,10,,,69,127
9200,note_off,99,0,0,,4,,,76,127
9201,note_on,1,0,0,,2,,,74,127
9300,note_off,99,0,0,,2,,,74,127
9301,note_on,1,0,0,,1,,,73,127
9400,note_off,99,0,0,,1,,,73,127
9401,note_on,1,0,0,,2,,,74,127
9500,note_off,99,0,0,,2,,,74,127
9501,note_on,1,0,0,,4,,,76,127
9700,note_off,199,0,0,,10,,,69,127
9700,note_off,0,0,0,,10,,,57,127
9701,note_on,1,0,0,,7,,,67,127
9800,note_off,99,0,0,,7,,,67,127
9801,note_on,1,0,0,,10,,,69,127
9900,note_off,99,0,0,,10,,,69,127
9901,note_on,1,0,0,,11,,,70,127
10001,note_off,100,0,0,,4,,,76,127
10100,note_off,99,0,0,,11,,,70,127
10101,note_on,1,0,0,,7,,,79,127
10101,note_on,0,0,0,,7,,,67,127
10200,note_off,99,0,0,,7,,,79,127
10201,note_on,1,0,0,,10,,,81,127
10300,note_off,99,0,0,,10,,,81,127
10300,note_off,0,0,0,,7,,,67,127
10301,note_on,1,0,0,,0,,,84,127
10301,note_on,0,0,0,,1,,,61,127
10400,note_off,99,0,0,,0,,,84,127
10401,note_on,1,0,0,,11,,,82,127
10500,note_off,99,0,0,,11,,,82,127
10500,note_off,0,0,0,,1,,,61,127
10501,note_on,1,0,0,,10,,,81,127
10501,note_on,0,0,0,,10,,,57,127
10600,note_off,99,0,0,,10,,,81,127
10601,note_on,1,0,0,,7,,,79,127
10700,note_off,99,0,0,,7,,,79,127
10700,note_off,0,0,0,,10,,,57,127
10701,note_on,1,0,0,,7,,,79,127
10701,note_on,0,0,0,,2,,,62,127
10800,note_off,99,0,0,,7,,,79,127
10801,note_on,1,0,0,,5,,,77,127
10900,note_off,99,0,0,,5,,,77,127
10901,note_on,1,0,0,,4,,,76,127
11000,note_off,99,0,0,,4,,,76,127
11001,note_on,1,0,0,,2,,,74,127
11100,note_off,99,0,0,,2,,,74,127
11101,note_on,1,0,0,,2,,,74,127
11300,note_off,199,0,0,,2,,,62,127
11301,note_on,1,0,0,,7,,,67,127
11400,note_off,99,0,0,,7,,,67,127
11401,note_on,1,0,0,,10,,,69,127
11500,note_off,99,0,0,,10,,,69,127
11501,note_on,1,0,0,,11,,,70,127
11601,note_off,100,0,0,,2,,,74,127
11700,note_off,99,0,0,,11,,,70,127
11701,note_on,1,0,0,,7,,,79,127
11701,note_on,0,0,0,,7,,,67,127
11800,note_off,99,0,0,,7,,,79,127
11801,note_on,1,0,0,,10,,,81,127
11900,note_off,99,0,0,,10,,,81,127
11900,note_off,0,0,0,,7,,,67,127
11901,note_on,1,0,0,,0,,,84,127
11901,note_on,0,0,0,,1,,,61,127
12000,note_off,99,0,0,,0,,,84,127
12001,note_on,1,0,0,,11,,,82,127
12100,note_off,99,0,0,,11,,,82,127
12100,note_off,0,0,0,,1,,,61,127
12101,note_on,1,0,0,,10,,,81,127
12101,note_on,0,0,0,,10,,,57,127
12200,note_off,99,0,0,,10,,,81,127
12201,note_on,1,0,0,,7,,,79,127
12300,note_off,99,0,0,,7,,,79,127
12300,note_off,0,0,0,,10,,,57,127
12301,note_on,1,0,0,,7,,,79,127
12301,note_on,0,0,0,,2,,,62,127
12400,note_off,99,0,0,,7,,,79,127
12401,note_on,1,0,0,,5,,,77,127
12500,note_off,99,0,0,,5,,,77,127
12501,note_on,1,0,0,,4,,,76,127
12600,note_off,99,0,0,,4,,,76,127
12601,note_on,1,0,0,,5,,,77,127
12700,note_off,99,0,0,,5,,,77,127
12700,note_off,0,0,0,,2,,,62,127
12701,note_on,1,0,0,,10,,,81,127
12701,note_on,0,0,0,,4,,,64,127
12800,note_off,99,0,0,,10,,,81,127
12801,note_on,1,0,0,,7,,,79,127
12900,note_off,99,0,0,,7,,,79,127
12901,note_on,1,0,0,,5,,,77,127
13000,note_off,99,0,0,,5,,,77,127
13001,note_on,1,0,0,,7,,,79,127
13100,note_off,99,0,0,,7,,,79,127
13100,note_off,0,0,0,,4,,,64,127
13101,note_on,1,0,0,,11,,,82,127
13101,note_on,0,0,0,,5,,,65,127
13200,note_off,99,0,0,,11,,,82,127
13201,note_on,1,0,0,,10,,,81,127
13300,note_off,99,0,0,,10,,,81,127
13301,note_on,1,0,0,,7,,,79,127
13400,note_off,99,0,0,,7,,,79,127
13401,note_on,1,0,0,,10,,,81,127
13500,note_off,99,0,0,,10,,,81,127
13500,note_off,0,0,0,,5,,,65,127
13501,note_on,1,0,0,,11,,,82,127
13501,note_on,0,0,0,,7,,,67,127
13700,note_off,199,0,0,,11,,,82,127
13701,note_on,1,0,0,,2,,,74,127
13889,note_off,188,0,0,,2,,,74,127
13900,note_off,11,0,0,,7,,,67,127
13901,note_on,1,0,0,,10,,,69,127
14101,note_on,200,0,0,,1,,,73,127
14101,note_on,0,0,0,,4,,,76,127
14200,note_off,99,0,0,,4,,,76,127
14200,note_off,0,0,0,,1,,,73,127
14201,note_on,1,0,0,,5,,,77,127
14201,note_on,0,0,0,,2,,,74,127
14300,note_off,99,0,0,,2,,,74,127
14300,note_off,0,0,0,,5,,,77,127
14301,note_on,1,0,0,,7,,,79,127
14301,note_on,0,0,0,,4,,,76,127
14500,note_off,199,0,0,,4,,,76,127
14500,note_off,0,0,0,,7,,,79,127
14500,note_off,0,0,0,,10,,,69,127
14501,note_on,1,0,0,,5,,,77,127
14501,note_on,0,0,0,,2,,,74,127
14501,note_on,0,0,0,,5,,,65,127
14600,note_off,99,0,0,,5,,,65,127
14601,note_on,1,0,0,,7,,,67,127
14700,note_off,99,0,0,,7,,,67,127
14701,note_on,1,0,0,,10,,,45,127
14855,note_off,154,0,0,,2,,,74,127
14876,note_off,21,0,0,,5,,,77,127
14901,note_on,25,0,0,,4,,,76,127
14901,note_on,0,0,0,,1,,,73,127
15000,note_off,99,0,0,,1,,,73,127
15000,note_off,0,0,0,,4,,,76,127
15001,note_on,1,0,0,,2,,,74,127
15001,note_on,0,0,0,,5,,,77,127
15100,note_off,99,0,0,,5,,,77,127
15100,note_off,0,0,0,,2,,,74,127
15101,note_on,1,0,0,,7,,,79,127
15101,note_on,0,0,0,,4,,,76,127
15300,note_off,199,0,0,,4,,,76,127
15300,note_off,0,0,0,,7,,,79,127
15300,note_off,0,0,0,,10,,,45,127
15301,note_on,1,0,0,,2,,,74,127
15301,note_on,0,0,0,,5,,,77,127
15301,note_on,0,0,0,,5,,,65,127
15400,note_off,99,0,0,,5,,,65,127
15401,note_on,1,0,0,,7,,,67,127
15500,note_off,99,0,0,,7,,,67,127
15501,note_on,1,0,0,,10,,,45,127
15700,note_off,199,0,0,,5,,,77,127
15700,note_off,0,0,0,,2,,,74,127
15701,note_on,1,0,0,,1,,,73,127
15701,note_on,0,0,0,,4,,,76,127
15900,note_off,199,0,0,,4,,,76,127
15901,note_on,1,0,0,,10,,,81,127
16097,note_off,196,0,0,,1,,,73,127
16100,note_off,3,0,0,,10,,,45,127
16101,note_on,1,0,0,,10,,,69,127
16101,note_on,0,0,0,,1,,,61,127
16300,note_off,199,0,0,,1,,,61,127
16300,note_off,0,0,0,,10,,,69,127
16300,note_off,0,0,0,,10,,,81,127
16301,note_on,1,0,0,,7,,,79,127
16301,note_on,0,0,0,,2,,,62,127
16400,note_off,99,0,0,,7,,,79,127
16401,note_on,1,0,0,,5,,,77,127
16500,note_off,99,0,0,,5,,,77,127
16500,note_off,0,0,0,,2,,,62,127
16501,note_on,1,0,0,,4,,,76,127
16501,note_on,0,0,0,,11,,,58,127
16600,note_off,99,0,0,,4,,,76,127
16601,note_on,1,0,0,,2,,,74,127
16700,note_off,99,0,0,,2,,,74,127
16700,note_off,0,0,0,,11,,,58,127
16701,note_on,1,0,0,,5,,,77,127
16701,note_on,0,0,0,,7,,,55,127
16800,note_off,99,0,0,,5,,,77,127
16801,note_on,1,0,0,,4,,,76,127
16900,note_off,99,0,0,,4,,,76,127
16900,note_off,0,0,0,,7,,,55,127
16901,note_on,1,0,0,,2,,,74,127
16901,note_on,0,0,0,,10,,,57,127
17000,note_off,99,0,0,,2,,,74,127
17001,note_on,1,0,0,,1,,,73,127
17100,note_off,99,0,0,,1,,,73,127
17100,note_off,0,0,0,,10,,,57,127
17101,note_on,1,0,0,,2,,,74,127
17101,note_on,0,0,0,,2,,,50,127
17278,note_off,177,0,0,,2,,,74,127
17301,note_on,23,0,0,,4,,,76,127
17400,note_off,99,0,0,,4,,,76,127
17401,note_on,1,0,0,,5,,,77,127
17500,note_off,99,0,0,,5,,,77,127
17501,note_on,1,0,0,,7,,,79,127
17601,note_off,100,0,0,,2,,,50,127
17701,note_on,100,0,0,,11,,,70,127
17701,note_on,0,0,0,,1,,,61,127
17800,note_off,99,0,0,,1,,,61,127
17801,note_on,1,0,0,,2,,,62,127
17900,note_off,99,0,0,,2,,,62,127
17901,note_on,1,0,0,,2,,,38,127
18064,note_off,163,0,0,,7,,,79,127
18101,note_off,37,0,0,,11,,,70,127
18102,note_on,1,0,0,,10,,,69,127
18102,note_on,0,0,0,,5,,,77,127
18201,note_off,99,0,0,,5,,,77,127
18201,note_off,0,0,0,,10,,,69,127
18202,note_on,1,0,0,,7,,,67,127
18202,note_on,0,0,0,,4,,,76,127
18301,note_off,99,0,0,,4,,,76,127
18301,note_off,0,0,0,,7,,,67,127
18302,note_on,1,0,0,,5,,,77,127
18302,note_on,0,0,0,,10,,,69,127
18501,note_off,199,0,0,,10,,,69,127
18501,note_off,0,0,0,,5,,,77,127
18501,note_off,0,0,0,,2,,,38,127
18502,note_on,1,0,0,,11,,,70,127
18502,note_on,0,0,0,,7,,,79,127
18502,note_on,0,0,0,,1,,,61,127
18601,note_off,99,0,0,,1,,,61,127
18602,note_on,1,0,0,,2,,,62,127
18701,note_off,99,0,0,,2,,,62,127
18702,note_on,1,0,0,,2,,,38,127
18836,note_off,134,0,0,,7,,,79,127
18902,note_off,66,0,0,,11,,,70,127
18903,note_on,1,0,0,,10,,,69,127
18903,note_on,0,0,0,,5,,,77,127
19002,note_off,99,0,0,,5,,,77,127
19002,note_off,0,0,0,,10,,,69,127
19003,note_on,1,0,0,,7,,,67,127
19003,note_on,0,0,0,,4,,,76,127
19102,note_off,99,0,0,,4,,,76,127
19102,note_off,0,0,0,,7,,,67,127
19103,note_on,1,0,0,,10,,,69,127
19103,note_on,0,0,0,,5,,,77,127
19302,note_off,199,0,0,,5,,,77,127
19302,note_off,0,0,0,,10,,,69,127
19302,note_off,0,0,0,,2,,,38,127
19303,note_on,1,0,0,,11,,,70,127
19303,note_on,0,0,0,,7,,,79,127
19303,note_on,0,0,0,,1,,,61,127
19402,note_off,99,0,0,,1,,,61,127
19403,note_on,1,0,0,,2,,,62,127
19502,note_off,99,0,0,,2,,,62,127
19503,note_on,1,0,0,,2,,,38,127
19603,note_off,100,0,0,,11,,,70,127
19657,note_off,54,0,0,,7,,,79,127
19703,note_on,46,0,0,,5,,,77,127
19802,note_off,99,0,0,,5,,,77,127
19803,note_on,1,0,0,,7,,,79,127
19902,note_off,99,0,0,,7,,,79,127
19903,note_on,1,0,0,,10,,,81,127
20003,note_off,100,0,0,,2,,,38,127
20102,note_off,99,0,0,,10,,,81,127
20103,note_on,1,0,0,,2,,,74,127
20103,note_on,0,0,0,,11,,,58,127
20103,note_on,0,0,0,,2,,,62,127
20302,note_off,199,0,0,,11,,,58,127
20302,note_off,0,0,0,,2,,,74,127
20303,note_on,1,0,0,,4,,,76,127
20303,note_on,0,0,0,,7,,,55,127
20502,note_off,199,0,0,,4,,,76,127
20502,note_off,0,0,0,,2,,,62,127
20503,note_on,1,0,0,,5,,,77,127
20503,note_on,0,0,0,,7,,,67,127
20602,note_off,99,0,0,,5,,,77,127
20603,note_on,1,0,0,,7,,,79,127
20702,note_off,99,0,0,,7,,,79,127
20702,note_off,0,0,0,,7,,,67,127
20702,note_off,0,0,0,,7,,,55,127
20703,note_on,1,0,0,,5,,,77,127
20703,note_on,0,0,0,,5,,,65,127
20703,note_on,0,0,0,,10,,,57,127
20802,note_off,99,0,0,,5,,,77,127
20803,note_on,1,0,0,,4,,,76,127
20902,note_off,99,0,0,,4,,,76,127
20902,note_off,0,0,0,,5,,,65,127
20903,note_on,1,0,0,,2,,,74,127
20903,note_on,0,0,0,,4,,,64,127
21002,note_off,99,0,0,,2,,,74,127
21003,note_on,1,0,0,,1,,,73,127
21102,note_off,99,0,0,,1,,,73,127
21102,note_off,0,0,0,,4,,,64,127
21102,note_off,0,0,0,,10,,,57,127
21103,note_on,1,0,0,,2,,,74,127
21103,note_on,0,0,0,,2,,,50,127
21302,note_off,199,0,0,,2,,,74,127
21303,note_on,1,0,0,,4,,,76,127
21402,note_off,99,0,0,,4,,,76,127
21403,note_on,1,0,0,,5,,,77,127
21502,note_off,99,0,0,,5,,,77,127
21503,note_on,1,0,0,,7,,,79,127
21603,note_off,100,0,0,,2,,,50,127
21703,note_on,100,0,0,,11,,,70,127
21703,note_on,0,0,0,,1,,,61,127
21802,note_off,99,0,0,,1,,,61,127
21803,note_on,1,0,0,,2,,,62,127
21902,note_off,99,0,0,,2,,,62,127
21903,note_on,1,0,0,,2,,,38,127
22003,note_off,100,0,0,,11,,,70,127
22097,note_off,94,0,0,,7,,,79,127
22103,note_on,6,0,0,,5,,,77,127
22103,note_on,0,0,0,,10,,,69,127
22202,note_off,99,0,0,,10,,,69,127
22202,note_off,0,0,0,,5,,,77,127
22203,note_on,1,0,0,,7,,,67,127
22203,note_on,0,0,0,,4,,,76,127
22302,note_off,99,0,0,,4,,,76,127
22302,note_off,0,0,0,,7,,,67,127
22303,note_on,1,0,0,,10,,,69,127
22303,note_on,0,0,0,,5,,,77,127
22502,note_off,199,0,0,,5,,,77,127
22502,note_off,0,0,0,,10,,,69,127
22502,note_off,0,0,0,,2,,,38,127
22503,note_on,1,0,0,,11,,,70,127
22503,note_on,0,0,0,,7,,,79,127
22503,note_on,0,0,0,,1,,,61,127
22602,note_off,99,0,0,,1,,,61,127
22603,note_on,1,0,0,,2,,,62,127
22702,note_off,99,0,0,,2,,,62,127
22703,note_on,1,0,0,,2,,,38,127
22803,note_off,100,0,0,,11,,,70,127
22902,note_off,99,0,0,,7,,,79,127
22903,note_on,1,0,0,,10,,,69,127
22903,note_on,0,0,0,,5,,,77,127
23002,note_off,99,0,0,,5,,,77,127
23002,note_off,0,0,0,,10,,,69,127
23003,note_on,1,0,0,,4,,,76,127
23003,note_on,0,0,0,,7,,,67,127
23102,note_off,99,0,0,,7,,,67,127
23102,note_off,0,0,0,,4,,,76,127
23103,note_on,1,0,0,,10,,,69,127
23103,note_on,0,0,0,,5,,,77,127
23302,note_off,199,0,0,,5,,,77,127
23302,note_off,0,0,0,,10,,,69,127
23302,note_off,0,0,0,,2,,,38,127
23303,note_on,1,0,0,,11,,,70,127
23303,note_on,0,0,0,,7,,,79,127
23303,note_on,0,0,0,,1,,,61,127
23402,note_off,99,0,0,,1,,,61,127
23403,note_on,1,0,0,,2,,,62,127
23501,note_off,98,0,0,,11,,,70,127
23502,note_off,1,0,0,,2,,,62,127
23503,note_on,1,0,0,,2,,,38,127
23702,note_off,199,0,0,,7,,,79,127
23703,note_on,1,0,0,,5,,,77,127
23802,note_off,99,0,0,,5,,,77,127
23803,note_on,1,0,0,,7,,,79,127
23902,note_off,99,0,0,,7,,,79,127
23903,note_on,1,0,0,,10,,,81,127
24102,note_off,199,0,0,,10,,,81,127
24102,note_off,0,0,0,,2,,,38,127
24103,note_on,1,0,0,,2,,,74,127
24103,note_on,0,0,0,,11,,,58,127
24103,note_on,0,0,0,,2,,,62,127
24302,note_off,199,0,0,,11,,,58,127
24302,note_off,0,0,0,,2,,,74,127
24303,note_on,1,0,0,,4,,,76,127
24303,note_on,0,0,0,,7,,,55,127
24502,note_off,199,0,0,,4,,,76,127
24502,note_off,0,0,0,,2,,,62,127
24503,note_on,1,0,0,,5,,,77,127
24503,note_on,0,0,0,,7,,,67,127
24602,note_off,99,0,0,,5,,,77,127
24603,note_on,1,0,0,,7,,,79,127
24702,note_off,99,0,0,,7,,,79,127
24702,note_off,0,0,0,,7,,,67,127
24702,note_off,0,0,0,,7,,,55,127
24703,note_on,1,0,0,,5,,,77,127
24703,note_on,0,0,0,,5,,,65,127
24703,note_on,0,0,0,,10,,,57,127
24802,note_off,99,0,0,,5,,,77,127
24803,note_on,1,0,0,,4,,,76,127
24902,note_off,99,0,0,,4,,,76,127
24902,note_off,0,0,0,,5,,,65,127
24903,note_on,1,0,0,,2,,,74,127
24903,note_on,0,0,0,,4,,,64,127
25002,note_off,99,0,0,,2,,,74,127
25003,note_on,1,0,0,,1,,,73,127
25102,note_off,99,0,0,,1,,,73,127
25102,note_off,0,0,0,,4,,,64,127
25102,note_off,0,0,0,,10,,,57,127
25103,note_on,1,0,0,,2,,,74,127
25103,note_on,0,0,0,,2,,,62,127
25103,note_on,0,0,0,,2,,,50,127
25280,note_off,177,0,0,,2,,,74,127
25302,note_off,22,0,0,,2,,,50,127
25303,note_on,1,0,0,,2,,,86,127
25303,note_on,0,0,0,,5,,,53,127
25499,note_off,196,0,0,,2,,,62,127
25502,note_off,3,0,0,,5,,,53,127
25502,note_off,0,0,0,,2,,,86,127
25503,note_on,1,0,0,,11,,,82,127
25503,note_on,0,0,0,,7,,,55,127
25702,note_off,199,0,0,,7,,,55,127
25702,note_off,0,0,0,,11,,,82,127
25703,note_on,1,0,0,,7,,,79,127
25703,note_on,0,0,0,,11,,,46,127
25902,note_off,199,0,0,,11,,,46,127
25902,note_off,0,0,0,,7,,,79,127
25903,note_on,1,0,0,,4,,,76,127
25903,note_on,0,0,0,,7,,,43,127
26102,note_off,199,0,0,,7,,,43,127
26102,note_off,0,0,0,,4,,,76,127
26103,note_on,1,0,0,,1,,,73,127
26103,note_on,0,0,0,,11,,,46,127
26302,note_off,199,0,0,,11,,,46,127
26302,note_off,0,0,0,,1,,,73,127
26303,note_on,1,0,0,,11,,,70,127
26303,note_on,0,0,0,,10,,,45,127
26502,note_off,199,0,0,,10,,,45,127
26502,note_off,0,0,0,,11,,,70,127
26503,note_on,1,0,0,,7,,,67,127
26503,note_on,0,0,0,,1,,,49,127
26702,note_off,199,0,0,,1,,,49,127
26703,note_on,1,0,0,,2,,,50,127
26753,note_off,50,0,0,,7,,,67,127
26753,note_on,0,0,0,,5,,,65,127
26802,note_off,49,0,0,,5,,,65,127
26803,note_on,1,0,0,,7,,,67,127
26852,note_off,49,0,0,,7,,,67,127
26853,note_on,1,0,0,,5,,,65,127
27002,note_off,149,0,0,,5,,,65,127
27003,note_on,1,0,0,,7,,,67,127
27102,note_off,99,0,0,,7,,,67,127
27103,note_on,1,0,0,,10,,,69,127
27302,note_off,199,0,0,,10,,,69,127
27302,note_off,0,0,0,,2,,,50,127
27303,note_on,1,0,0,,2,,,62,127
27303,note_on,0,0,0,,5,,,53,127
27502,note_off,199,0,0,,5,,,53,127
27502,note_off,0,0,0,,2,,,62,127
27503,note_on,1,0,0,,4,,,64,127
27503,note_on,0,0,0,,7,,,55,127
27702,note_off,199,0,0,,4,,,64,127
27703,note_on,1,0,0,,5,,,65,127
27703,note_on,0,0,0,,7,,,43,127
27802,note_off,99,0,0,,5,,,65,127
27803,note_on,1,0,0,,7,,,67,127
27899,note_off,96,0,0,,7,,,55,127
27902,note_off,3,0,0,,7,,,67,127
27902,note_off,0,0,0,,7,,,43,127
27903,note_on,1,0,0,,5,,,65,127
27903,note_on,0,0,0,,10,,,57,127
28002,note_off,99,0,0,,5,,,65,127
28003,note_on,1,0,0,,4,,,64,127
28102,note_off,99,0,0,,4,,,64,127
28103,note_on,1,0,0,,2,,,62,127
28103,note_on,0,0,0,,10,,,45,127
28202,note_off,99,0,0,,2,,,62,127
28203,note_on,1,0,0,,1,,,61,127
28299,note_off,96,0,0,,10,,,57,127
28302,note_off,3,0,0,,1,,,61,127
28302,note_off,0,0,0,,10,,,45,127
28303,note_on,1,0,0,,2,,,62,127
28303,note_on,0,0,0,,2,,,50,127
28470,note_off,167,0,0,,2,,,62,127
28502,note_off,32,0,0,,2,,,50,127
28503,note_on,1,0,0,,2,,,86,127
28503,note_on,0,0,0,,5,,,53,127
28702,note_off,199,0,0,,5,,,53,127
28702,note_off,0,0,0,,2,,,86,127
28703,note_on,1,0,0,,11,,,82,127
28703,note_on,0,0,0,,7,,,55,127
28902,note_off,199,0,0,,7,,,55,127
28902,note_off,0,0,0,,11,,,82,127
28903,note_on,1,0,0,,7,,,79,127
28903,note_on,0,0,0,,11,,,46,127
29102,note_off,199,0,0,,11,,,46,127
29102,note_off,0,0,0,,7,,,79,127
29103,note_on,1,0,0,,4,,,76,127
29103,note_on,0,0,0,,7,,,43,127
29302,note_off,199,0,0,,7,,,43,127
29302,note_off,0,0,0,,4,,,76,127
29303,note_on,1,0,0,,1,,,73,127
29303,note_on,0,0,0,,11,,,46,127
29502,note_off,199,0,0,,11,,,46,127
29502,note_off,0,0,0,,1,,,73,127
29503,note_on,1,0,0,,11,,,70,127
29503,note_on,0,0,0,,10,,,45,127
29702,note_off,199,0,0,,10,,,45,127
29702,note_off,0,0,0,,11,,,70,127
29703,note_on,1,0,0,,7,,,67,127
29703,note_on,0,0,0,,1,,,49,127
29902,note_off,199,0,0,,1,,,49,127
29903,note_on,1,0,0,,2,,,50,127
29953,note_off,50,0,0,,7,,,67,127
29953,note_on,0,0,0,,5,,,65,127
30002,note_off,49,0,0,,5,,,65,127
30003,note_on,1,0,0,,7,,,67,127
30052,note_off,49,0,0,,7,,,67,127
30053,note_on,1,0,0,,5,,,65,127
30202,note_off,149,0,0,,5,,,65,127
30203,note_on,1,0,0,,7,,,67,127
30302,note_off,99,0,0,,7,,,67,127
30303,note_on,1,0,0,,10,,,69,127
30502,note_off,199,0,0,,10,,,69,127
30502,note_off,0,0,0,,2,,,50,127
30503,note_on,1,0,0,,2,,,62,127
30503,note_on,0,0,0,,5,,,53,127
30702,note_off,199,0,0,,5,,,53,127
30702,note_off,0,0,0,,2,,,62,127
30703,note_on,1,0,0,,4,,,64,127
30703,note_on,0,0,0,,7,,,55,127
30902,note_off,199,0,0,,4,,,64,127
30903,note_on,1,0,0,,5,,,65,127
30903,note_on,0,0,0,,7,,,43,127
31002,note_off,99,0,0,,5,,,65,127
31003,note_on,1,0,0,,7,,,67,127
31099,note_off,96,0,0,,7,,,55,127
31102,note_off,3,0,0,,7,,,67,127
31102,note_off,0,0,0,,7,,,43,127
31103,note_on,1,0,0,,5,,,65,127
31103,note_on,0,0,0,,10,,,57,127
31202,note_off,99,0,0,,5,,,65,127
31203,note_on,1,0,0,,4,,,64,127
31302,note_off,99,0,0,,4,,,64,127
31303,note_on,1,0,0,,2,,,62,127
31303,note_on,0,0,0,,10,,,45,127
31402,note_off,99,0,0,,2,,,62,127
31403,note_on,1,0,0,,1,,,61,127
31499,note_off,96,0,0,,10,,,57,127
31502,note_off,3,0,0,,1,,,61,127
31502,note_off,0,0,0,,10,,,45,127
31503,note_on,1,0,0,,2,,,62,127
31503,note_on,0,0,0,,2,,,50,127
31503,note_on,0,0,0,,2,,,38,127
32103,note_off,600,0,0,,2,,,38,127
32103,note_off,0,0,0,,2,,,50,127
32104,note_on,1,0,0,,6,,,66,127
32203,note_off,99,0,0,,6,,,66,127
32204,note_on,1,0,0,,7,,,67,127
32303,note_off,99,0,0,,7,,,67,127
32304,note_on,1,0,0,,10,,,69,127
32502,note_off,198,0,0,,2,,,62,127
32503,note_off,1,0,0,,10,,,69,127
32504,note_on,1,0,0,,2,,,62,127
32704,note_on,200,0,0,,11,,,70,127
32704,note_on,0,0,0,,7,,,67,127
32900,note_off,196,0,0,,2,,,62,127
32903,note_off,3,0,0,,7,,,67,127
32904,note_on,1,0,0,,2,,,62,127
33103,note_off,199,0,0,,11,,,70,127
33104,note_on,1,0,0,,0,,,72,127
33104,note_on,0,0,0,,10,,,69,127
33300,note_off,196,0,0,,2,,,62,127
33303,note_off,3,0,0,,10,,,69,127
33304,note_on,1,0,0,,2,,,62,127
33503,note_off,199,0,0,,0,,,72,127
33504,note_on,1,0,0,,2,,,74,127
33504,note_on,0,0,0,,11,,,70,127
33700,note_off,196,0,0,,2,,,62,127
33703,note_off,3,0,0,,11,,,70,127
33704,note_on,1,0,0,,2,,,62,127
33903,note_off,199,0,0,,2,,,74,127
33904,note_on,1,0,0,,0,,,72,127
33904,note_on,0,0,0,,10,,,69,127
34100,note_off,196,0,0,,2,,,62,127
34103,note_off,3,0,0,,10,,,69,127
34104,note_on,1,0,0,,2,,,62,127
34303,note_off,199,0,0,,0,,,72,127
34304,note_on,1,0,0,,11,,,70,127
34304,note_on,0,0,0,,7,,,67,127
34500,note_off,196,0,0,,2,,,62,127
34503,note_off,3,0,0,,7,,,67,127
34504,note_on,1,0,0,,2,,,62,127
34703,note_off,199,0,0,,2,,,62,127
34703,note_off,0,0,0,,11,,,70,127
34704,note_on,1,0,0,,10,,,69,127
34704,note_on,0,0,0,,6,,,66,127
34903,note_off,199,0,0,,10,,,69,127
34904,note_on,1,0,0,,11,,,70,127
35003,note_off,99,0,0,,11,,,70,127
35004,note_off,1,0,0,,6,,,66,127
35004,note_on,0,0,0,,0,,,72,127
35103,note_off,99,0,0,,0,,,72,127
35104,note_on,1,0,0,,2,,,74,127
35304,note_on,200,0,0,,6,,,54,127
35403,note_off,99,0,0,,6,,,54,127
35404,note_on,1,0,0,,7,,,55,127
35503,note_off,99,0,0,,7,,,55,127
35504,note_on,1,0,0,,10,,,57,127
35703,note_off,199,0,0,,10,,,57,127
35703,note_off,0,0,0,,2,,,74,127
35704,note_on,1,0,0,,2,,,74,127
35704,note_on,0,0,0,,2,,,50,127
35903,note_off,199,0,0,,2,,,50,127
35904,note_on,1,0,0,,7,,,55,127
35904,note_on,0,0,0,,11,,,58,127
36103,note_off,199,0,0,,7,,,55,127
36103,note_off,0,0,0,,2,,,74,127
36104,note_on,1,0,0,,7,,,67,127
36104,note_on,0,0,0,,2,,,50,127
36303,note_off,199,0,0,,2,,,50,127
36303,note_off,0,0,0,,11,,,58,127
36304,note_on,1,0,0,,0,,,60,127
36304,note_on,0,0,0,,10,,,57,127
36503,note_off,199,0,0,,10,,,57,127
36503,note_off,0,0,0,,7,,,67,127
36504,note_on,1,0,0,,6,,,66,127
36504,note_on,0,0,0,,2,,,50,127
36703,note_off,199,0,0,,2,,,50,127
36703,note_off,0,0,0,,0,,,60,127
36704,note_on,1,0,0,,11,,,58,127
36704,note_on,0,0,0,,2,,,62,127
36903,note_off,199,0,0,,11,,,58,127
36903,note_off,0,0,0,,6,,,66,127
36904,note_on,1,0,0,,7,,,67,127
36904,note_on,0,0,0,,2,,,50,127
37103,note_off,199,0,0,,2,,,50,127
37103,note_off,0,0,0,,7,,,67,127
37103,note_off,0,0,0,,2,,,62,127
37104,note_on,1,0,0,,10,,,69,127
37104,note_on,0,0,0,,0,,,60,127
37104,note_on,0,0,0,,10,,,57,127
37303,note_off,199,0,0,,10,,,57,127
37304,note_on,1,0,0,,2,,,50,127
37503,note_off,199,0,0,,2,,,50,127
37503,note_off,0,0,0,,0,,,60,127
37503,note_off,0,0,0,,10,,,69,127
37504,note_on,1,0,0,,0,,,72,127
37504,note_on,0,0,0,,11,,,58,127
37504,note_on,0,0,0,,7,,,55,127
37553,note_off,49,0,0,,0,,,72,127
37554,note_on,1,0,0,,11,,,70,127
37603,note_off,49,0,0,,11,,,70,127
37604,note_on,1,0,0,,0,,,72,127
37653,note_off,49,0,0,,0,,,72,127
37654,note_on,1,0,0,,11,,,70,127
37703,note_off,49,0,0,,11,,,70,127
37703,note_off,0,0,0,,7,,,55,127
37704,note_on,1,0,0,,0,,,72,127
37704,note_on,0,0,0,,2,,,50,127
37753,note_off,49,0,0,,0,,,72,127
37754,note_on,1,0,0,,11,,,70,127
37803,note_off,49,0,0,,11,,,70,127
37804,note_on,1,0,0,,10,,,69,127
37853,note_off,49,0,0,,10,,,69,127
37854,note_on,1,0,0,,11,,,70,127
37903,note_off,49,0,0,,11,,,70,127
37903,note_off,0,0,0,,11,,,58,127
37904,note_on,1,0,0,,10,,,69,127
37904,note_on,0,0,0,,10,,,57,127
37904,note_on,0,0,0,,6,,,54,127
38103,note_off,199,0,0,,10,,,69,127
38104,note_on,1,0,0,,11,,,70,127
38203,note_off,99,0,0,,11,,,70,127
38204,note_on,1,0,0,,0,,,72,127
38212,note_off,8,0,0,,2,,,50,127
38258,note_off,46,0,0,,6,,,54,127
38258,note_off,0,0,0,,10,,,57,127
38303,note_off,45,0,0,,0,,,72,127
38304,note_on,1,0,0,,2,,,74,127
38304,note_on,0,0,0,,2,,,62,127
38403,note_off,99,0,0,,2,,,62,127
38404,note_on,1,0,0,,0,,,60,127
38503,note_off,99,0,0,,0,,,60,127
38504,note_on,1,0,0,,11,,,58,127
38603,note_off,99,0,0,,11,,,58,127
38604,note_on,1,0,0,,10,,,57,127
38703,note_off,99,0,0,,10,,,57,127
38704,note_on,1,0,0,,7,,,55,127
38803,note_off,99,0,0,,7,,,55,127
38804,note_on,1,0,0,,5,,,53,127
38903,note_off,99,0,0,,5,,,53,127
38904,note_on,1,0,0,,4,,,52,127
39003,note_off,99,0,0,,4,,,52,127
39004,note_on,1,0,0,,2,,,50,127
39054,note_off,50,0,0,,2,,,74,127
39103,note_off,49,0,0,,2,,,50,127
39104,note_on,1,0,0,,4,,,76,127
39104,note_on,0,0,0,,0,,,48,127
39203,note_off,99,0,0,,0,,,48,127
39204,note_on,1,0,0,,11,,,46,127
39303,note_off,99,0,0,,11,,,46,127
39304,note_on,1,0,0,,10,,,45,127
39403,note_off,99,0,0,,10,,,45,127
39404,note_on,1,0,0,,7,,,43,127
39500,note_off,96,0,0,,4,,,76,127
39503,note_off,3,0,0,,7,,,43,127
39504,note_on,1,0,0,,10,,,81,127
39504,note_on,0,0,0,,5,,,41,127
39603,note_off,99,0,0,,10,,,81,127
39604,note_on,1,0,0,,7,,,79,127
39703,note_off,99,0,0,,7,,,79,127
39704,note_on,1,0,0,,5,,,77,127
39803,note_off,99,0,0,,5,,,77,127
39804,note_on,1,0,0,,4,,,76,127
39903,note_off,99,0,0,,4,,,76,127
39903,note_off,0,0,0,,5,,,41,127
39904,note_on,1,0,0,,2,,,74,127
39904,note_on,0,0,0,,11,,,58,127
40003,note_off,99,0,0,,11,,,58,127
40004,note_on,1,0,0,,10,,,57,127
40103,note_off,99,0,0,,10,,,57,127
40104,note_on,1,0,0,,7,,,55,127
40203,note_off,99,0,0,,7,,,55,127
40204,note_on,1,0,0,,5,,,53,127
40303,note_off,99,0,0,,5,,,53,127
40304,note_on,1,0,0,,4,,,52,127
40403,note_off,99,0,0,,4,,,52,127
40404,note_on,1,0,0,,2,,,50,127
40503,note_off,99,0,0,,2,,,50,127
40504,note_on,1,0,0,,1,,,49,127
40603,note_off,99,0,0,,1,,,49,127
40604,note_on,1,0,0,,11,,,46,127
40654,note_off,50,0,0,,2,,,74,127
40703,note_off,49,0,0,,11,,,46,127
40704,note_on,1,0,0,,4,,,76,127
40704,note_on,0,0,0,,10,,,45,127
40803,note_off,99,0,0,,10,,,45,127
40804,note_on,1,0,0,,7,,,43,127
40903,note_off,99,0,0,,7,,,43,127
40904,note_on,1,0,0,,5,,,41,127
41003,note_off,99,0,0,,5,,,41,127
41004,note_on,1,0,0,,4,,,40,127
41103,note_off,99,0,0,,4,,,40,127
41103,note_off,0,0,0,,4,,,76,127
41104,note_on,1,0,0,,10,,,81,127
41104,note_on,0,0,0,,2,,,38,127
41203,note_off,99,0,0,,10,,,81,127
41204,note_on,1,0,0,,7,,,79,127
41303,note_off,99,0,0,,7,,,79,127
41304,note_on,1,0,0,,6,,,78,127
41403,note_off,99,0,0,,6,,,78,127
41404,note_on,1,0,0,,3,,,75,127
41503,note_off,99,0,0,,3,,,75,127
41503,note_off,0,0,0,,2,,,38,127
41504,note_on,1,0,0,,2,,,74,127
41504,note_on,0,0,0,,2,,,38,127
41603,note_off,99,0,0,,2,,,74,127
41604,note_on,1,0,0,,0,,,72,127
41703,note_off,99,0,0,,0,,,72,127
41704,note_on,1,0,0,,11,,,70,127
41803,note_off,99,0,0,,11,,,70,127
41804,note_on,1,0,0,,10,,,69,127
41903,note_off,99,0,0,,10,,,69,127
41903,note_off,0,0,0,,2,,,38,127
41904,note_on,1,0,0,,11,,,70,127
41904,note_on,0,0,0,,2,,,38,127
42003,note_off,99,0,0,,11,,,70,127
42004,note_on,1,0,0,,2,,,74,127
42103,note_off,99,0,0,,2,,,74,127
42104,note_on,1,0,0,,0,,,72,127
42203,note_off,99,0,0,,0,,,72,127
42204,note_on,1,0,0,,11,,,70,127
42303,note_off,99,0,0,,11,,,70,127
42303,note_off,0,0,0,,2,,,38,127
42304,note_on,1,0,0,,10,,,69,127
42304,note_on,0,0,0,,2,,,38,127
42403,note_off,99,0,0,,10,,,69,127
42404,note_on,1,0,0,,7,,,67,127
42503,note_off,99,0,0,,7,,,67,127
42504,note_on,1,0,0,,6,,,66,127
42603,note_off,99,0,0,,6,,,66,127
42604,note_on,1,0,0,,4,,,64,127
42703,note_off,99,0,0,,4,,,64,127
42703,note_off,0,0,0,,2,,,38,127
42704,note_on,1,0,0,,2,,,62,127
42704,note_on,0,0,0,,2,,,38,127
42903,note_off,199,0,0,,2,,,62,127
42904,note_on,1,0,0,,10,,,81,127
43003,note_off,99,0,0,,10,,,81,127
43004,note_on,1,0,0,,11,,,82,127
43103,note_off,99,0,0,,11,,,82,127
43103,note_off,0,0,0,,2,,,38,127
43104,note_on,1,0,0,,0,,,84,127
43104,note_on,0,0,0,,3,,,75,127
43104,note_on,0,0,0,,2,,,38,127
43303,note_off,199,0,0,,3,,,75,127
43303,note_off,0,0,0,,0,,,84,127
43304,note_on,1,0,0,,2,,,74,127
43304,note_on,0,0,0,,11,,,82,127
43503,note_off,199,0,0,,11,,,82,127
43503,note_off,0,0,0,,2,,,74,127
43503,note_off,0,0,0,,2,,,38,127
43504,note_on,1,0,0,,0,,,72,127
43504,note_on,0,0,0,,10,,,81,127
43504,note_on,0,0,0,,2,,,38,127
43703,note_off,199,0,0,,10,,,81,127
43703,note_off,0,0,0,,0,,,72,127
43704,note_on,1,0,0,,7,,,79,127
43704,note_on,0,0,0,,11,,,70,127
43903,note_off,199,0,0,,11,,,70,127
43903,note_off,0,0,0,,7,,,79,127
43903,note_off,0,0,0,,2,,,38,127
43904,note_on,1,0,0,,10,,,69,127
43904,note_on,0,0,0,,6,,,78,127
43904,note_on,0,0,0,,2,,,38,127
44103,note_off,199,0,0,,6,,,78,127
44103,note_off,0,0,0,,10,,,69,127
44104,note_on,1,0,0,,3,,,75,127
44104,note_on,0,0,0,,7,,,67,127
44303,note_off,199,0,0,,7,,,67,127
44303,note_off,0,0,0,,3,,,75,127
44303,note_off,0,0,0,,2,,,38,127
44304,note_on,1,0,0,,6,,,66,127
44304,note_on,0,0,0,,2,,,74,127
44304,note_on,0,0,0,,2,,,38,127
44503,note_off,199,0,0,,2,,,74,127
44504,note_on,1,0,0,,0,,,72,127
44603,note_off,99,0,0,,0,,,72,127
44604,note_on,1,0,0,,2,,,74,127
44700,note_off,96,0,0,,6,,,66,127
44703,note_off,3,0,0,,2,,,74,127
44703,note_off,0,0,0,,2,,,38,127
44704,note_on,1,0,0,,3,,,75,127
44704,note_on,0,0,0,,7,,,67,127
44704,note_on,0,0,0,,2,,,38,127
44903,note_off,199,0,0,,7,,,67,127
44903,note_off,0,0,0,,3,,,75,127
44904,note_on,1,0,0,,5,,,65,127
44904,note_on,0,0,0,,2,,,74,127
45103,note_off,199,0,0,,2,,,74,127
45103,note_off,0,0,0,,5,,,65,127
45103,note_off,0,0,0,,2,,,38,127
45104,note_on,1,0,0,,3,,,63,127
45104,note_on,0,0,0,,0,,,72,127
45104,note_on,0,0,0,,2,,,38,127
45303,note_off,199,0,0,,0,,,72,127
45303,note_off,0,0,0,,3,,,63,127
45304,note_on,1,0,0,,2,,,62,127
45304,note_on,0,0,0,,11,,,70,127
45503,note_off,199,0,0,,11,,,70,127
45503,note_off,0,0,0,,2,,,62,127
45503,note_off,0,0,0,,2,,,38,127
45504,note_on,1,0,0,,0,,,60,127
45504,note_on,0,0,0,,10,,,69,127
45504,note_on,0,0,0,,2,,,38,127
45703,note_off,199,0,0,,10,,,69,127
45703,note_off,0,0,0,,0,,,60,127
45704,note_on,1,0,0,,11,,,58,127
45704,note_on,0,0,0,,7,,,67,127
45903,note_off,199,0,0,,7,,,67,127
45903,note_off,0,0,0,,11,,,58,127
45903,note_off,0,0,0,,2,,,38,127
45904,note_on,1,0,0,,10,,,57,127
45904,note_on,0,0,0,,6,,,66,127
45904,note_on,0,0,0,,2,,,38,127
46102,note_off,198,0,0,,10,,,57,127
46103,note_off,1,0,0,,2,,,38,127
46104,note_on,1,0,0,,10,,,57,127
46203,note_off,99,0,0,,10,,,57,127
46204,note_on,1,0,0,,11,,,58,127
46303,note_off,99,0,0,,11,,,58,127
46304,note_on,1,0,0,,3,,,51,127
46304,note_on,0,0,0,,0,,,60,127
46503,note_off,199,0,0,,0,,,60,127
46503,note_off,0,0,0,,3,,,51,127
46503,note_off,0,0,0,,6,,,66,127
46504,note_on,1,0,0,,7,,,67,127
46504,note_on,0,0,0,,11,,,58,127
46504,note_on,0,0,0,,2,,,50,127
46703,note_off,199,0,0,,2,,,50,127
46703,note_off,0,0,0,,11,,,58,127
46703,note_off,0,0,0,,7,,,67,127
46704,note_on,1,0,0,,10,,,69,127
46704,note_on,0,0,0,,10,,,57,127
46704,note_on,0,0,0,,0,,,48,127
46903,note_off,199,0,0,,0,,,48,127
46903,note_off,0,0,0,,10,,,57,127
46903,note_off,0,0,0,,10,,,69,127
46904,note_on,1,0,0,,11,,,70,127
46904,note_on,0,0,0,,7,,,55,127
46904,note_on,0,0,0,,11,,,46,127
47103,note_off,199,0,0,,11,,,46,127
47103,note_off,0,0,0,,7,,,55,127
47103,note_off,0,0,0,,11,,,70,127
47104,note_on,1,0,0,,0,,,72,127
47104,note_on,0,0,0,,6,,,54,127
47104,note_on,0,0,0,,10,,,45,127
47303,note_off,199,0,0,,10,,,45,127
47303,note_off,0,0,0,,6,,,54,127
47303,note_off,0,0,0,,0,,,72,127
47304,note_on,1,0,0,,2,,,74,127
47304,note_on,0,0,0,,7,,,43,127
47304,note_on,0,0,0,,7,,,55,127
47503,note_off,199,0,0,,7,,,55,127
47503,note_off,0,0,0,,7,,,43,127
47503,note_off,0,0,0,,2,,,74,127
47504,note_on,1,0,0,,10,,,69,127
47504,note_on,0,0,0,,2,,,50,127
47703,note_off,199,0,0,,2,,,50,127
47704,note_on,1,0,0,,10,,,57,127
47803,note_off,99,0,0,,10,,,57,127
47804,note_on,1,0,0,,11,,,58,127
47903,note_off,99,0,0,,11,,,58,127
47904,note_on,1,0,0,,0,,,60,127
47904,note_on,0,0,0,,3,,,51,127
48013,note_off,109,0,0,,10,,,69,127
48104,note_off,91,0,0,,3,,,51,127
48104,note_off,0,0,0,,0,,,60,127
48105,note_on,1,0,0,,7,,,67,127
48105,note_on,0,0,0,,11,,,58,127
48105,note_on,0,0,0,,2,,,50,127
48304,note_off,199,0,0,,2,,,50,127
48304,note_off,0,0,0,,11,,,58,127
48304,note_off,0,0,0,,7,,,67,127
48305,note_on,1,0,0,,10,,,69,127
48305,note_on,0,0,0,,0,,,48,127
48305,note_on,0,0,0,,10,,,57,127
48504,note_off,199,0,0,,10,,,57,127
48504,note_off,0,0,0,,0,,,48,127
48504,note_off,0,0,0,,10,,,69,127
48505,note_on,1,0,0,,11,,,70,127
48505,note_on,0,0,0,,7,,,55,127
48505,note_on,0,0,0,,11,,,46,127
48704,note_off,199,0,0,,11,,,46,127
48704,note_off,0,0,0,,7,,,55,127
48704,note_off,0,0,0,,11,,,70,127
48705,note_on,1,0,0,,0,,,72,127
48705,note_on,0,0,0,,6,,,54,127
48705,note_on,0,0,0,,10,,,45,127
48904,note_off,199,0,0,,10,,,45,127
48904,note_off,0,0,0,,6,,,54,127
48904,note_off,0,0,0,,0,,,72,127
48905,note_on,1,0,0,,2,,,74,127
48905,note_on,0,0,0,,7,,,55,127
48905,note_on,0,0,0,,7,,,43,127
49104,note_off,199,0,0,,7,,,43,127
49104,note_off,0,0,0,,7,,,55,127
49104,note_off,0,0,0,,2,,,74,127
49105,note_on,1,0,0,,10,,,69,127
49105,note_on,0,0,0,,2,,,50,127
49105,note_on,0,0,0,,2,,,38,127
49304,note_off,199,0,0,,10,,,69,127
49305,note_on,1,0,0,,11,,,70,127
49404,note_off,99,0,0,,11,,,70,127
49405,note_on,1,0,0,,0,,,72,127
49504,note_off,99,0,0,,0,,,72,127
49505,note_on,1,0,0,,2,,,74,127
49704,note_off,199,0,0,,2,,,74,127
49704,note_off,0,0,0,,2,,,38,127
49704,note_off,0,0,0,,2,,,50,127
49705,note_on,1,0,0,,11,,,70,127
49705,note_on,0,0,0,,7,,,79,127
49705,note_on,0,0,0,,11,,,58,127
49804,note_off,99,0,0,,11,,,58,127
49805,note_on,1,0,0,,0,,,60,127
49904,note_off,99,0,0,,0,,,60,127
49905,note_on,1,0,0,,2,,,38,127
50059,note_off,154,0,0,,7,,,79,127
50090,note_off,31,0,0,,11,,,70,127
50105,note_on,15,0,0,,6,,,78,127
50105,note_on,0,0,0,,10,,,69,127
50204,note_off,99,0,0,,10,,,69,127
50204,note_off,0,0,0,,6,,,78,127
50205,note_on,1,0,0,,7,,,79,127
50205,note_on,0,0,0,,11,,,70,127
50304,note_off,99,0,0,,11,,,70,127
50304,note_off,0,0,0,,7,,,79,127
50305,note_on,1,0,0,,0,,,72,127
50305,note_on,0,0,0,,10,,,81,127
50504,note_off,199,0,0,,10,,,81,127
50504,note_off,0,0,0,,0,,,72,127
50504,note_off,0,0,0,,2,,,38,127
50505,note_on,1,0,0,,11,,,70,127
50505,note_on,0,0,0,,7,,,79,127
50505,note_on,0,0,0,,11,,,58,127
50604,note_off,99,0,0,,11,,,58,127
50605,note_on,1,0,0,,0,,,60,127
50704,note_off,99,0,0,,0,,,60,127
50705,note_on,1,0,0,,2,,,38,127
50859,note_off,154,0,0,,7,,,79,127
50890,note_off,31,0,0,,11,,,70,127
50905,note_on,15,0,0,,10,,,69,127
50905,note_on,0,0,0,,6,,,78,127
51004,note_off,99,0,0,,6,,,78,127
51004,note_off,0,0,0,,10,,,69,127
51005,note_on,1,0,0,,7,,,79,127
51005,note_on,0,0,0,,11,,,70,127
51104,note_off,99,0,0,,11,,,70,127
51104,note_off,0,0,0,,7,,,79,127
51105,note_on,1,0,0,,0,,,72,127
51105,note_on,0,0,0,,10,,,81,127
51304,note_off,199,0,0,,10,,,81,127
51304,note_off,0,0,0,,0,,,72,127
51304,note_off,0,0,0,,2,,,38,127
51305,note_on,1,0,0,,11,,,70,127
51305,note_on,0,0,0,,7,,,79,127
51305,note_on,0,0,0,,11,,,58,127
51404,note_off,99,0,0,,11,,,58,127
51405,note_on,1,0,0,,0,,,60,127
51504,note_off,99,0,0,,0,,,60,127
51505,note_on,1,0,0,,2,,,38,127
51659,note_off,154,0,0,,7,,,79,127
51704,note_off,45,0,0,,11,,,70,127
51705,note_on,1,0,0,,6,,,78,127
51804,note_off,99,0,0,,6,,,78,127
51805,note_on,1,0,0,,7,,,79,127
51904,note_off,99,0,0,,7,,,79,127
51905,note_on,1,0,0,,10,,,81,127
52005,note_off,100,0,0,,2,,,38,127
52105,note_on,100,0,0,,0,,,72,127
52105,note_on,0,0,0,,6,,,54,127
52105,note_on,0,0,0,,2,,,62,127
52301,note_off,196,0,0,,10,,,81,127
52304,note_off,3,0,0,,2,,,62,127
52304,note_off,0,0,0,,6,,,54,127
52305,note_on,1,0,0,,7,,,55,127
52404,note_off,99,0,0,,0,,,72,127
52405,note_on,1,0,0,,11,,,70,127
52504,note_off,99,0,0,,11,,,70,127
52504,note_off,0,0,0,,7,,,55,127
52505,note_on,1,0,0,,10,,,69,127
52505,note_on,0,0,0,,3,,,51,127
52604,note_off,99,0,0,,10,,,69,127
52605,note_on,1,0,0,,7,,,67,127
52704,note_off,99,0,0,,7,,,67,127
52704,note_off,0,0,0,,3,,,51,127
52705,note_on,1,0,0,,11,,,70,127
52705,note_on,0,0,0,,0,,,48,127
52804,note_off,99,0,0,,11,,,70,127
52805,note_on,1,0,0,,10,,,69,127
52904,note_off,99,0,0,,10,,,69,127
52904,note_off,0,0,0,,0,,,48,127
52905,note_on,1,0,0,,7,,,67,127
52905,note_on,0,0,0,,2,,,50,127
53004,note_off,99,0,0,,7,,,67,127
53005,note_on,1,0,0,,6,,,66,127
53104,note_off,99,0,0,,6,,,66,127
53104,note_off,0,0,0,,2,,,50,127
53105,note_on,1,0,0,,7,,,67,127
53105,note_on,0,0,0,,7,,,43,127
53304,note_off,199,0,0,,7,,,67,127
53305,note_on,1,0,0,,2,,,74,127
53305,note_on,0,0,0,,12,,,71,127
53404,note_off,99,0,0,,12,,,71,127
53404,note_off,0,0,0,,2,,,74,127
53405,note_on,1,0,0,,0,,,72,127
53405,note_on,0,0,0,,3,,,75,127
53504,note_off,99,0,0,,3,,,75,127
53504,note_off,0,0,0,,0,,,72,127
53505,note_on,1,0,0,,5,,,77,127
53505,note_on,0,0,0,,2,,,74,127
53605,note_off,100,0,0,,7,,,43,127
53704,note_off,99,0,0,,2,,,74,127
53704,note_off,0,0,0,,5,,,77,127
53705,note_on,1,0,0,,0,,,72,127
53705,note_on,0,0,0,,3,,,75,127
53705,note_on,0,0,0,,6,,,66,127
53804,note_off,99,0,0,,6,,,66,127
53805,note_on,1,0,0,,7,,,67,127
53904,note_off,99,0,0,,7,,,67,127
53905,note_on,1,0,0,,7,,,43,127
54070,note_off,165,0,0,,3,,,75,127
54070,note_off,0,0,0,,0,,,72,127
54105,note_on,35,0,0,,2,,,74,127
54105,note_on,0,0,0,,12,,,71,127
54204,note_off,99,0,0,,12,,,71,127
54204,note_off,0,0,0,,2,,,74,127
54205,note_on,1,0,0,,0,,,72,127
54205,note_on,0,0,0,,3,,,75,127
54304,note_off,99,0,0,,3,,,75,127
54304,note_off,0,0,0,,0,,,72,127
54305,note_on,1,0,0,,2,,,74,127
54305,note_on,0,0,0,,5,,,77,127
54504,note_off,199,0,0,,5,,,77,127
54504,note_off,0,0,0,,2,,,74,127
54504,note_off,0,0,0,,7,,,43,127
54505,note_on,1,0,0,,0,,,72,127
54505,note_on,0,0,0,,3,,,75,127
54505,note_on,0,0,0,,6,,,66,127
54604,note_off,99,0,0,,6,,,66,127
54605,note_on,1,0,0,,7,,,67,127
54704,note_off,99,0,0,,7,,,67,127
54705,note_on,1,0,0,,7,,,43,127
54880,note_off,175,0,0,,3,,,75,127
54880,note_off,0,0,0,,0,,,72,127
54905,note_on,25,0,0,,12,,,71,127
54905,note_on,0,0,0,,2,,,74,127
55004,note_off,99,0,0,,2,,,74,127
55004,note_off,0,0,0,,12,,,71,127
55005,note_on,1,0,0,,3,,,75,127
55005,note_on,0,0,0,,0,,,72,127
55104,note_off,99,0,0,,0,,,72,127
55104,note_off,0,0,0,,3,,,75,127
55105,note_on,1,0,0,,5,,,77,127
55105,note_on,0,0,0,,2,,,74,127
55304,note_off,199,0,0,,5,,,77,127
55304,note_off,0,0,0,,7,,,43,127
55305,note_on,1,0,0,,7,,,79,127
55305,note_on,0,0,0,,7,,,55,127
55305,note_on,0,0,0,,12,,,47,127
55504,note_off,199,0,0,,12,,,47,127
55504,note_off,0,0,0,,7,,,55,127
55504,note_off,0,0,0,,7,,,79,127
55504,note_off,0,0,0,,2,,,74,127
55505,note_on,1,0,0,,6,,,78,127
55505,note_on,0,0,0,,3,,,75,127
55505,note_on,0,0,0,,0,,,48,127
55704,note_off,199,0,0,,0,,,48,127
55704,note_off,0,0,0,,3,,,75,127
55704,note_off,0,0,0,,6,,,78,127
55705,note_on,1,0,0,,7,,,79,127
55705,note_on,0,0,0,,2,,,74,127
55705,note_on,0,0,0,,0,,,60,127
55804,note_off,99,0,0,,2,,,74,127
55805,note_on,1,0,0,,0,,,72,127
55904,note_off,99,0,0,,0,,,72,127
55904,note_off,0,0,0,,0,,,60,127
55905,note_on,1,0,0,,11,,,70,127
55905,note_on,0,0,0,,2,,,62,127
56104,note_off,199,0,0,,2,,,62,127
56104,note_off,0,0,0,,11,,,70,127
56104,note_off,0,0,0,,7,,,79,127
56105,note_on,1,0,0,,10,,,69,127
56105,note_on,0,0,0,,6,,,78,127
56105,note_on,0,0,0,,2,,,50,127
56304,note_off,199,0,0,,2,,,50,127
56304,note_off,0,0,0,,6,,,78,127
56304,note_off,0,0,0,,10,,,69,127
56305,note_on,1,0,0,,7,,,79,127
56305,note_on,0,0,0,,7,,,67,127
56305,note_on,0,0,0,,7,,,55,127
56305,note_on,0,0,0,,7,,,43,127
56504,note_off,199,0,0,,7,,,67,127
56504,note_off,0,0,0,,7,,,79,127
56505,note_on,1,0,0,,12,,,71,127
56505,note_on,0,0,0,,2,,,74,127
56604,note_off,99,0,0,,2,,,74,127
56604,note_off,0,0,0,,12,,,71,127
56605,note_on,1,0,0,,0,,,72,127
56605,note_on,0,0,0,,3,,,75,127
56704,note_off,99,0,0,,3,,,75,127
56704,note_off,0,0,0,,0,,,72,127
56705,note_on,1,0,0,,2,,,74,127
56705,note_on,0,0,0,,5,,,77,127
56805,note_off,100,0,0,,7,,,43,127
56904,note_off,99,0,0,,5,,,77,127
56904,note_off,0,0,0,,2,,,74,127
56904,note_off,0,0,0,,7,,,55,127
56905,note_on,1,0,0,,3,,,75,127
56905,note_on,0,0,0,,0,,,72,127
56905,note_on,0,0,0,,6,,,66,127
57004,note_off,99,0,0,,6,,,66,127
57005,note_on,1,0,0,,7,,,67,127
57104,note_off,99,0,0,,7,,,67,127
57105,note_on,1,0,0,,7,,,43,127
57205,note_off,100,0,0,,0,,,72,127
57304,note_off,99,0,0,,3,,,75,127
57305,note_on,1,0,0,,12,,,71,127
57305,note_on,0,0,0,,2,,,74,127
57404,note_off,99,0,0,,2,,,74,127
57404,note_off,0,0,0,,12,,,71,127
57405,note_on,1,0,0,,0,,,72,127
57405,note_on,0,0,0,,3,,,75,127
57504,note_off,99,0,0,,3,,,75,127
57504,note_off,0,0,0,,0,,,72,127
57505,note_on,1,0,0,,2,,,74,127
57505,note_on,0,0,0,,5,,,77,127
57704,note_off,199,0,0,,5,,,77,127
57704,note_off,0,0,0,,2,,,74,127
57704,note_off,0,0,0,,7,,,43,127
57705,note_on,1,0,0,,3,,,75,127
57705,note_on,0,0,0,,0,,,72,127
57705,note_on,0,0,0,,6,,,66,127
57804,note_off,99,0,0,,6,,,66,127
57805,note_on,1,0,0,,7,,,67,127
57904,note_off,99,0,0,,7,,,67,127
57905,note_on,1,0,0,,7,,,43,127
58005,note_off,100,0,0,,0,,,72,127
58104,note_off,99,0,0,,3,,,75,127
58105,note_on,1,0,0,,12,,,71,127
58105,note_on,0,0,0,,2,,,74,127
58204,note_off,99,0,0,,2,,,74,127
58204,note_off,0,0,0,,12,,,71,127
58205,note_on,1,0,0,,0,,,72,127
58205,note_on,0,0,0,,3,,,75,127
58304,note_off,99,0,0,,3,,,75,127
58304,note_off,0,0,0,,0,,,72,127
58305,note_on,1,0,0,,2,,,74,127
58305,note_on,0,0,0,,5,,,77,127
58504,note_off,199,0,0,,5,,,77,127
58504,note_off,0,0,0,,7,,,43,127
58505,note_on,1,0,0,,7,,,79,127
58505,note_on,0,0,0,,7,,,55,127
58505,note_on,0,0,0,,12,,,47,127
58704,note_off,199,0,0,,12,,,47,127
58704,note_off,0,0,0,,7,,,55,127
58704,note_off,0,0,0,,7,,,79,127
58704,note_off,0,0,0,,2,,,74,127
58705,note_on,1,0,0,,3,,,75,127
58705,note_on,0,0,0,,6,,,78,127
58705,note_on,0,0,0,,0,,,48,127
58904,note_off,199,0,0,,0,,,48,127
58904,note_off,0,0,0,,6,,,78,127
58904,note_off,0,0,0,,3,,,75,127
58905,note_on,1,0,0,,2,,,74,127
58905,note_on,0,0,0,,7,,,79,127
58905,note_on,0,0,0,,0,,,60,127
59004,note_off,99,0,0,,2,,,74,127
59005,note_on,1,0,0,,0,,,72,127
59104,note_off,99,0,0,,0,,,72,127
59104,note_off,0,0,0,,0,,,60,127
59105,note_on,1,0,0,,11,,,70,127
59105,note_on,0,0,0,,2,,,62,127
59304,note_off,199,0,0,,2,,,62,127
59304,note_off,0,0,0,,11,,,70,127
59304,note_off,0,0,0,,7,,,79,127
59305,note_on,1,0,0,,10,,,69,127
59305,note_on,0,0,0,,6,,,78,127
59305,note_on,0,0,0,,2,,,50,127
59504,note_off,199,0,0,,2,,,50,127
59504,note_off,0,0,0,,6,,,78,127
59504,note_off,0,0,0,,10,,,69,127
59505,note_on,1,0,0,,7,,,67,127
59505,note_on,0,0,0,,7,,,79,127
59505,note_on,0,0,0,,7,,,55,127
59505,note_on,0,0,0,,7,,,43,127
59672,note_off,167,0,0,,7,,,67,127
59682,note_off,10,0,0,,7,,,79,127
59705,note_on,23,0,0,,2,,,86,127
59904,note_off,199,0,0,,2,,,86,127
59905,note_on,1,0,0,,11,,,82,127
60104,note_off,199,0,0,,11,,,82,127
60104,note_off,0,0,0,,7,,,43,127
60104,note_off,0,0,0,,7,,,55,127
60105,note_on,1,0,0,,7,,,79,127
60105,note_on,0,0,0,,11,,,46,127
60304,note_off,199,0,0,,11,,,46,127
60304,note_off,0,0,0,,7,,,79,127
60305,note_on,1,0,0,,3,,,75,127
60305,note_on,0,0,0,,0,,,48,127
60504,note_off,199,0,0,,0,,,48,127
60504,note_off,0,0,0,,3,,,75,127
60505,note_on,1,0,0,,0,,,72,127
60505,note_on,0,0,0,,3,,,51,127
60704,note_off,199,0,0,,3,,,51,127
60704,note_off,0,0,0,,0,,,72,127
60705,note_on,1,0,0,,10,,,69,127
60705,note_on,0,0,0,,2,,,50,127
60904,note_off,199,0,0,,2,,,50,127
60904,note_off,0,0,0,,10,,,69,127
60905,note_on,1,0,0,,0,,,60,127
60905,note_on,0,0,0,,6,,,54,127
61104,note_off,199,0,0,,6,,,54,127
61105,note_on,1,0,0,,7,,,55,127
61155,note_off,50,0,0,,0,,,60,127
61155,note_on,0,0,0,,11,,,58,127
61204,note_off,49,0,0,,11,,,58,127
61205,note_on,1,0,0,,0,,,60,127
61254,note_off,49,0,0,,0,,,60,127
61255,note_on,1,0,0,,11,,,58,127
61404,note_off,149,0,0,,11,,,58,127
61405,note_on,1,0,0,,0,,,60,127
61504,note_off,99,0,0,,0,,,60,127
61505,note_on,1,0,0,,2,,,62,127
61704,note_off,199,0,0,,2,,,62,127
61704,note_off,0,0,0,,7,,,55,127
61705,note_on,1,0,0,,7,,,67,127
61705,note_on,0,0,0,,11,,,46,127
61904,note_off,199,0,0,,11,,,46,127
61905,note_on,1,0,0,,5,,,65,127
61905,note_on,0,0,0,,0,,,48,127
62004,note_off,99,0,0,,5,,,65,127
62005,note_on,1,0,0,,3,,,63,127
62104,note_off,99,0,0,,3,,,63,127
62105,note_on,1,0,0,,2,,,62,127
62105,note_on,0,0,0,,0,,,36,127
62204,note_off,99,0,0,,2,,,62,127
62205,note_on,1,0,0,,0,,,60,127
62299,note_off,94,0,0,,7,,,67,127
62301,note_off,2,0,0,,0,,,48,127
62304,note_off,3,0,0,,0,,,60,127
62304,note_off,0,0,0,,0,,,36,127
62305,note_on,1,0,0,,11,,,58,127
62305,note_on,0,0,0,,7,,,67,127
62305,note_on,0,0,0,,2,,,50,127
62504,note_off,199,0,0,,7,,,67,127
62504,note_off,0,0,0,,11,,,58,127
62505,note_on,1,0,0,,10,,,57,127
62505,note_on,0,0,0,,6,,,66,127
62505,note_on,0,0,0,,2,,,38,127
62701,note_off,196,0,0,,2,,,50,127
62704,note_off,3,0,0,,2,,,38,127
62704,note_off,0,0,0,,6,,,66,127
62704,note_off,0,0,0,,10,,,57,127
62705,note_on,1,0,0,,7,,,55,127
62705,note_on,0,0,0,,7,,,67,127
62705,note_on,0,0,0,,7,,,43,127
62904,note_off,199,0,0,,7,,,67,127
62904,note_off,0,0,0,,7,,,55,127
62905,note_on,1,0,0,,2,,,86,127
63104,note_off,199,0,0,,2,,,86,127
63105,note_on,1,0,0,,11,,,82,127
63304,note_off,199,0,0,,11,,,82,127
63304,note_off,0,0,0,,7,,,43,127
63305,note_on,1,0,0,,7,,,79,127
63305,note_on,0,0,0,,11,,,46,127
63504,note_off,199,0,0,,11,,,46,127
63504,note_off,0,0,0,,7,,,79,127
63505,note_on,1,0,0,,3,,,75,127
63505,note_on,0,0,0,,0,,,48,127
63704,note_off,199,0,0,,0,,,48,127
63704,note_off,0,0,0,,3,,,75,127
63705,note_on,1,0,0,,0,,,72,127
63705,note_on,0,0,0,,3,,,51,127
63904,note_off,199,0,0,,3,,,51,127
63904,note_off,0,0,0,,0,,,72,127
63905,note_on,1,0,0,,10,,,69,127
63905,note_on,0,0,0,,2,,,50,127
64104,note_off,199,0,0,,2,,,50,127
64104,note_off,0,0,0,,10,,,69,127
64105,note_on,1,0,0,,0,,,60,127
64105,note_on,0,0,0,,6,,,54,127
64304,note_off,199,0,0,,6,,,54,127
64305,note_on,1,0,0,,7,,,55,127
64355,note_off,50,0,0,,0,,,60,127
64355,note_on,0,0,0,,11,,,58,127
64404,note_off,49,0,0,,11,,,58,127
64405,note_on,1,0,0,,0,,,60,127
64454,note_off,49,0,0,,0,,,60,127
64455,note_on,1,0,0,,11,,,58,127
64604,note_off,149,0,0,,11,,,58,127
64605,note_on,1,0,0,,0,,,60,127
64704,note_off,99,0,0,,0,,,60,127
64705,note_on,1,0,0,,2,,,62,127
64904,note_off,199,0,0,,2,,,62,127
64904,note_off,0,0,0,,7,,,55,127
64908,note_on,4,0,0,,11,,,46,127
64908,note_on,0,0,0,,7,,,67,127
65113,note_off,205,0,0,,11,,,46,127
65117,note_on,4,0,0,,0,,,48,127
65117,note_on,0,0,0,,5,,,65,127
65218,note_off,101,0,0,,5,,,65,127
65221,note_on,3,0,0,,3,,,63,127
65322,note_off,101,0,0,,3,,,63,127
65325,note_on,3,0,0,,0,,,36,127
65325,note_on,0,0,0,,2,,,62,127
65426,note_off,101,0,0,,2,,,62,127
65429,note_on,3,0,0,,0,,,60,127
65524,note_off,95,0,0,,0,,,48,127
65529,note_off,5,0,0,,0,,,36,127
65530,note_off,1,0,0,,0,,,60,127
65532,note_on,2,0,0,,2,,,50,127
65532,note_on,0,0,0,,11,,,58,127
65731,note_off,199,0,0,,7,,,67,127
65736,note_off,5,0,0,,11,,,58,127
65754,note_on,18,0,0,,2,,,38,127
65754,note_on,0,0,0,,6,,,66,127
65754,note_on,0,0,0,,10,,,57,127
65940,note_off,186,0,0,,2,,,50,127
65974,note_off,34,0,0,,10,,,57,127
65974,note_off,0,0,0,,6,,,66,127
65974,note_off,0,0,0,,2,,,38,127
66001,note_on,27,0,0,,7,,,43,127
66001,note_on,0,0,0,,7,,,55,127
66001,note_on,0,0,0,,7,,,67,127
67808,note_off,1807,0,0,,7,,,67,127
67808,note_off,0,0,0,,7,,,55,127
67808,note_off,0,0,0,,7,,,43,127
72192,end_of_track,4384,1,0,,,,,,
