tick,type,time,meta,track,program,channel,pitch,tempo,note,velocity
0,copyright,0,1,0,,,,,,
0,program_change,0,0,0,6,0,,,,
0,pitchwheel,0,0,0,,0,0,,,
0,program_change,0,0,0,6,1,,,,
0,pitchwheel,0,0,0,,1,-590,,,
0,program_change,0,0,0,6,2,,,,
0,pitchwheel,0,0,0,,2,-272,,,
0,program_change,0,0,0,6,3,,,,
0,pitchwheel,0,0,0,,3,-353,,,
0,program_change,0,0,0,6,4,,,,
0,pitchwheel,0,0,0,,4,-560,,,
0,program_change,0,0,0,6,5,,,,
0,pitchwheel,0,0,0,,5,-80,,,
0,program_change,0,0,0,6,6,,,,
0,pitchwheel,0,0,0,,6,-625,,,
0,program_change,0,0,0,6,7,,,,
0,pitchwheel,0,0,0,,7,-130,,,
0,program_change,0,0,0,6,8,,,,
0,pitchwheel,0,0,0,,8,-512,,,
0,program_change,0,0,0,6,10,,,,
0,pitchwheel,0,0,0,,10,-464,,,
0,program_change,0,0,0,6,11,,,,
0,pitchwheel,0,0,0,,11,-208,,,
0,program_change,0,0,0,6,12,,,,
0,pitchwheel,0,0,0,,12,-553,,,
0,set_tempo,0,1,0,,,,500000,,
136,note_on,136,0,0,,12,,,59,127
136,note_on,0,0,0,,12,,,47,127
407,note_on,271,0,0,,6,,,78,127
677,note_off,270,0,0,,6,,,78,127
678,note_on,1,0,0,,4,,,76,127
948,note_off,270,0,0,,4,,,76,127
948,note_off,0,0,0,,12,,,47,127
948,note_off,0,0,0,,12,,,59,127
949,note_on,1,0,0,,6,,,66,127
949,note_on,0,0,0,,2,,,74,127
1219,note_off,270,0,0,,6,,,66,127
1220,note_on,1,0,0,,7,,,67,127
1429,note_off,209,0,0,,2,,,74,127
1491,note_on,62,0,0,,2,,,74,127
1761,note_off,270,0,0,,2,,,74,127
1762,note_on,1,0,0,,1,,,73,127
2032,note_off,270,0,0,,1,,,73,127
2032,note_off,0,0,0,,7,,,67,127
2033,note_on,1,0,0,,6,,,66,127
2033,note_on,0,0,0,,2,,,62,127
2033,note_on,0,0,0,,12,,,71,127
2303,note_off,270,0,0,,2,,,62,127
2303,note_off,0,0,0,,6,,,66,127
2304,note_on,1,0,0,,4,,,64,127
2304,note_on,0,0,0,,7,,,67,127
2438,note_off,134,0,0,,12,,,71,127
2439,note_on,1,0,0,,2,,,74,127
2573,note_off,134,0,0,,2,,,74,127
2573,note_off,0,0,0,,7,,,67,127
2573,note_off,0,0,0,,4,,,64,127
2574,note_on,1,0,0,,6,,,66,127
2574,note_on,0,0,0,,2,,,62,127
2574,note_on,0,0,0,,1,,,73,127
2708,note_off,134,0,0,,1,,,73,127
2709,note_on,1,0,0,,12,,,71,127
2843,note_off,134,0,0,,12,,,71,127
2843,note_off,0,0,0,,2,,,62,127
2843,note_off,0,0,0,,6,,,66,127
2844,note_on,1,0,0,,4,,,64,127
2844,note_on,0,0,0,,1,,,61,127
2844,note_on,0,0,0,,6,,,78,127
2978,note_off,134,0,0,,6,,,78,127
2979,note_on,1,0,0,,4,,,76,127
3113,note_off,134,0,0,,4,,,76,127
3113,note_off,0,0,0,,4,,,64,127
3114,note_on,1,0,0,,6,,,66,127
3114,note_on,0,0,0,,2,,,74,127
3248,note_off,134,0,0,,2,,,74,127
3249,note_off,1,0,0,,1,,,61,127
3249,note_on,0,0,0,,1,,,73,127
3383,note_off,134,0,0,,1,,,73,127
3383,note_off,0,0,0,,6,,,66,127
3384,note_on,1,0,0,,12,,,59,127
3384,note_on,0,0,0,,2,,,74,127
3520,note_on,136,0,0,,12,,,71,127
3596,note_off,76,0,0,,2,,,74,127
3654,note_off,58,0,0,,12,,,71,127
3655,note_on,1,0,0,,2,,,74,127
3789,note_off,134,0,0,,2,,,74,127
3790,note_on,1,0,0,,6,,,78,127
3924,note_off,134,0,0,,6,,,78,127
3925,note_on,1,0,0,,4,,,76,127
4195,note_off,270,0,0,,4,,,76,127
4195,note_off,0,0,0,,12,,,59,127
4196,note_on,1,0,0,,6,,,66,127
4196,note_on,0,0,0,,2,,,74,127
4466,note_off,270,0,0,,6,,,66,127
4467,note_on,1,0,0,,7,,,67,127
4690,note_off,223,0,0,,2,,,74,127
4738,note_on,48,0,0,,2,,,74,127
5008,note_off,270,0,0,,2,,,74,127
5009,note_on,1,0,0,,1,,,73,127
5279,note_off,270,0,0,,1,,,73,127
5279,note_off,0,0,0,,7,,,67,127
5280,note_on,1,0,0,,2,,,62,127
5280,note_on,0,0,0,,6,,,66,127
5280,note_on,0,0,0,,12,,,71,127
5550,note_off,270,0,0,,6,,,66,127
5550,note_off,0,0,0,,2,,,62,127
5551,note_on,1,0,0,,4,,,64,127
5551,note_on,0,0,0,,7,,,67,127
5685,note_off,134,0,0,,12,,,71,127
5686,note_on,1,0,0,,2,,,74,127
5820,note_off,134,0,0,,2,,,74,127
5820,note_off,0,0,0,,7,,,67,127
5820,note_off,0,0,0,,4,,,64,127
5821,note_on,1,0,0,,6,,,66,127
5821,note_on,0,0,0,,2,,,62,127
5821,note_on,0,0,0,,1,,,73,127
5955,note_off,134,0,0,,1,,,73,127
5956,note_on,1,0,0,,12,,,71,127
6090,note_off,134,0,0,,12,,,71,127
6090,note_off,0,0,0,,2,,,62,127
6090,note_off,0,0,0,,6,,,66,127
6091,note_on,1,0,0,,1,,,61,127
6091,note_on,0,0,0,,4,,,64,127
6091,note_on,0,0,0,,4,,,76,127
6212,note_off,121,0,0,,4,,,76,127
6226,note_on,14,0,0,,11,,,70,127
6360,note_off,134,0,0,,4,,,64,127
6360,note_off,0,0,0,,1,,,61,127
6361,note_on,1,0,0,,12,,,59,127
6495,note_off,134,0,0,,11,,,70,127
6496,note_on,1,0,0,,12,,,71,127
6630,note_off,134,0,0,,12,,,71,127
6630,note_off,0,0,0,,12,,,59,127
6631,note_on,1,0,0,,6,,,54,127
6631,note_on,0,0,0,,1,,,73,127
6765,note_off,134,0,0,,1,,,73,127
6766,note_on,1,0,0,,4,,,76,127
6900,note_off,134,0,0,,4,,,76,127
6901,note_on,1,0,0,,2,,,74,127
7035,note_off,134,0,0,,2,,,74,127
7036,note_on,1,0,0,,1,,,73,127
7170,note_off,134,0,0,,1,,,73,127
7170,note_off,0,0,0,,6,,,54,127
7171,note_on,1,0,0,,12,,,71,127
7171,note_on,0,0,0,,2,,,74,127
7305,note_off,134,0,0,,12,,,71,127
7306,note_on,1,0,0,,7,,,67,127
7440,note_off,134,0,0,,7,,,67,127
7441,note_on,1,0,0,,4,,,64,127
7575,note_off,134,0,0,,4,,,64,127
7576,note_on,1,0,0,,1,,,61,127
7710,note_off,134,0,0,,1,,,61,127
7711,note_on,1,0,0,,6,,,54,127
7845,note_off,134,0,0,,2,,,74,127
7846,note_on,1,0,0,,4,,,76,127
7980,note_off,134,0,0,,4,,,76,127
7981,note_on,1,0,0,,1,,,73,127
8115,note_off,134,0,0,,1,,,73,127
8116,note_on,1,0,0,,2,,,74,127
8250,note_off,134,0,0,,2,,,74,127
8250,note_off,0,0,0,,6,,,54,127
8251,note_on,1,0,0,,12,,,71,127
8251,note_on,0,0,0,,2,,,74,127
8385,note_off,134,0,0,,12,,,71,127
8386,note_on,1,0,0,,7,,,67,127
8520,note_off,134,0,0,,7,,,67,127
8520,note_off,0,0,0,,2,,,74,127
8521,note_on,1,0,0,,4,,,64,127
8521,note_on,0,0,0,,4,,,76,127
8655,note_off,134,0,0,,4,,,64,127
8656,note_on,1,0,0,,1,,,61,127
8790,note_off,134,0,0,,1,,,61,127
8791,note_on,1,0,0,,6,,,54,127
8925,note_off,134,0,0,,4,,,76,127
8926,note_on,1,0,0,,7,,,79,127
9060,note_off,134,0,0,,7,,,79,127
9061,note_on,1,0,0,,1,,,73,127
9195,note_off,134,0,0,,1,,,73,127
9196,note_on,1,0,0,,2,,,74,127
9330,note_off,134,0,0,,2,,,74,127
9330,note_off,0,0,0,,6,,,54,127
9331,note_on,1,0,0,,7,,,67,127
9331,note_on,0,0,0,,2,,,74,127
9465,note_off,134,0,0,,7,,,67,127
9466,note_on,1,0,0,,4,,,64,127
9600,note_off,134,0,0,,4,,,64,127
9600,note_off,0,0,0,,2,,,74,127
9601,note_on,1,0,0,,1,,,61,127
9601,note_on,0,0,0,,4,,,76,127
9735,note_off,134,0,0,,1,,,61,127
9736,note_on,1,0,0,,7,,,55,127
9870,note_off,134,0,0,,7,,,55,127
9871,note_on,1,0,0,,1,,,49,127
10005,note_off,134,0,0,,4,,,76,127
10006,note_on,1,0,0,,12,,,83,127
10140,note_off,134,0,0,,12,,,83,127
10141,note_on,1,0,0,,1,,,73,127
10275,note_off,134,0,0,,1,,,73,127
10276,note_on,1,0,0,,2,,,74,127
10410,note_off,134,0,0,,2,,,74,127
10410,note_off,0,0,0,,1,,,49,127
10411,note_on,1,0,0,,7,,,67,127
10411,note_on,0,0,0,,2,,,74,127
10545,note_off,134,0,0,,7,,,67,127
10546,note_on,1,0,0,,4,,,64,127
10680,note_off,134,0,0,,4,,,64,127
10680,note_off,0,0,0,,2,,,74,127
10681,note_on,1,0,0,,1,,,61,127
10681,note_on,0,0,0,,4,,,76,127
10815,note_off,134,0,0,,1,,,61,127
10816,note_on,1,0,0,,7,,,55,127
10950,note_off,134,0,0,,7,,,55,127
10951,note_on,1,0,0,,1,,,49,127
11085,note_off,134,0,0,,4,,,76,127
11086,note_on,1,0,0,,12,,,83,127
11220,note_off,134,0,0,,12,,,83,127
11221,note_on,1,0,0,,1,,,73,127
11355,note_off,134,0,0,,1,,,73,127
11356,note_on,1,0,0,,2,,,74,127
11490,note_off,134,0,0,,2,,,74,127
11490,note_off,0,0,0,,1,,,49,127
11491,note_on,1,0,0,,7,,,67,127
11491,note_on,0,0,0,,2,,,74,127
11625,note_off,134,0,0,,7,,,67,127
11626,note_on,1,0,0,,4,,,64,127
11760,note_off,134,0,0,,4,,,64,127
11760,note_off,0,0,0,,2,,,74,127
11761,note_on,1,0,0,,1,,,61,127
11761,note_on,0,0,0,,4,,,76,127
11895,note_off,134,0,0,,1,,,61,127
11896,note_on,1,0,0,,10,,,57,127
12030,note_off,134,0,0,,10,,,57,127
12031,note_on,1,0,0,,10,,,45,127
12165,note_off,134,0,0,,4,,,76,127
12166,note_on,1,0,0,,12,,,83,127
12300,note_off,134,0,0,,12,,,83,127
12301,note_on,1,0,0,,10,,,81,127
12435,note_off,134,0,0,,10,,,81,127
12436,note_on,1,0,0,,7,,,79,127
12570,note_off,134,0,0,,7,,,79,127
12571,note_on,1,0,0,,6,,,78,127
12705,note_off,134,0,0,,6,,,78,127
12706,note_off,1,0,0,,10,,,45,127
12706,note_on,0,0,0,,4,,,76,127
12840,note_off,134,0,0,,4,,,76,127
12841,note_on,1,0,0,,10,,,57,127
12841,note_on,0,0,0,,2,,,74,127
12975,note_off,134,0,0,,2,,,74,127
12976,note_on,1,0,0,,1,,,73,127
13110,note_off,134,0,0,,1,,,73,127
13110,note_off,0,0,0,,10,,,57,127
13111,note_on,1,0,0,,12,,,59,127
13111,note_on,0,0,0,,2,,,74,127
13247,note_on,136,0,0,,2,,,86,127
13380,note_off,133,0,0,,2,,,74,127
13381,note_off,1,0,0,,2,,,86,127
13381,note_off,0,0,0,,12,,,59,127
13382,note_on,1,0,0,,7,,,55,127
13382,note_on,0,0,0,,12,,,83,127
13516,note_off,134,0,0,,12,,,83,127
13517,note_on,1,0,0,,7,,,79,127
13651,note_off,134,0,0,,7,,,79,127
13651,note_off,0,0,0,,7,,,55,127
13652,note_on,1,0,0,,10,,,57,127
13652,note_on,0,0,0,,6,,,78,127
13786,note_off,134,0,0,,6,,,78,127
13787,note_on,1,0,0,,2,,,74,127
13923,note_on,136,0,0,,10,,,45,127
14035,note_off,112,0,0,,2,,,74,127
14059,note_on,24,0,0,,1,,,73,127
14189,note_off,130,0,0,,10,,,57,127
14193,note_off,4,0,0,,1,,,73,127
14193,note_off,0,0,0,,10,,,45,127
14194,note_on,1,0,0,,12,,,59,127
14194,note_on,0,0,0,,2,,,74,127
14330,note_on,136,0,0,,2,,,86,127
14463,note_off,133,0,0,,2,,,74,127
14464,note_off,1,0,0,,2,,,86,127
14464,note_off,0,0,0,,12,,,59,127
14465,note_on,1,0,0,,7,,,55,127
14465,note_on,0,0,0,,12,,,83,127
14599,note_off,134,0,0,,12,,,83,127
14600,note_on,1,0,0,,7,,,79,127
14734,note_off,134,0,0,,7,,,79,127
14734,note_off,0,0,0,,7,,,55,127
14735,note_on,1,0,0,,10,,,57,127
14735,note_on,0,0,0,,6,,,78,127
14869,note_off,134,0,0,,6,,,78,127
14870,note_on,1,0,0,,2,,,74,127
15006,note_on,136,0,0,,10,,,45,127
15118,note_off,112,0,0,,2,,,74,127
15142,note_on,24,0,0,,1,,,73,127
15272,note_off,130,0,0,,10,,,57,127
15276,note_off,4,0,0,,1,,,73,127
15277,note_on,1,0,0,,2,,,74,127
15317,note_off,40,0,0,,10,,,45,127
15412,note_off,95,0,0,,2,,,74,127
15413,note_on,1,0,0,,12,,,71,127
15549,note_on,136,0,0,,2,,,62,127
15549,note_on,0,0,0,,12,,,59,127
15683,note_off,134,0,0,,12,,,71,127
15684,note_on,1,0,0,,10,,,69,127
15818,note_off,134,0,0,,10,,,69,127
15818,note_off,0,0,0,,12,,,59,127
15818,note_off,0,0,0,,2,,,62,127
15819,note_on,1,0,0,,2,,,62,127
15819,note_on,0,0,0,,12,,,59,127
15819,note_on,0,0,0,,8,,,68,127
15953,note_off,134,0,0,,8,,,68,127
15954,note_on,1,0,0,,5,,,65,127
16088,note_off,134,0,0,,5,,,65,127
16088,note_off,0,0,0,,12,,,59,127
16088,note_off,0,0,0,,2,,,62,127
16089,note_on,1,0,0,,2,,,62,127
16089,note_on,0,0,0,,12,,,59,127
16089,note_on,0,0,0,,4,,,64,127
16223,note_off,134,0,0,,4,,,64,127
16223,note_off,0,0,0,,2,,,62,127
16224,note_on,1,0,0,,2,,,62,127
16358,note_off,134,0,0,,2,,,62,127
16359,note_on,1,0,0,,4,,,76,127
16493,note_off,134,0,0,,4,,,76,127
16494,note_on,1,0,0,,1,,,73,127
16628,note_off,134,0,0,,12,,,59,127
16629,note_on,1,0,0,,1,,,61,127
16629,note_on,0,0,0,,4,,,64,127
16763,note_off,134,0,0,,1,,,73,127
16764,note_on,1,0,0,,12,,,71,127
16898,note_off,134,0,0,,12,,,71,127
16898,note_off,0,0,0,,4,,,64,127
16898,note_off,0,0,0,,1,,,61,127
16899,note_on,1,0,0,,1,,,61,127
16899,note_on,0,0,0,,4,,,64,127
16899,note_on,0,0,0,,11,,,70,127
17033,note_off,134,0,0,,11,,,70,127
17034,note_on,1,0,0,,7,,,67,127
17168,note_off,134,0,0,,7,,,67,127
17168,note_off,0,0,0,,4,,,64,127
17168,note_off,0,0,0,,1,,,61,127
17169,note_on,1,0,0,,4,,,64,127
17169,note_on,0,0,0,,1,,,61,127
17169,note_on,0,0,0,,6,,,66,127
17303,note_off,134,0,0,,6,,,66,127
17303,note_off,0,0,0,,4,,,64,127
17304,note_on,1,0,0,,4,,,64,127
17438,note_off,134,0,0,,4,,,64,127
17439,note_on,1,0,0,,6,,,78,127
17573,note_off,134,0,0,,6,,,78,127
17574,note_on,1,0,0,,2,,,74,127
17708,note_off,134,0,0,,1,,,61,127
17709,note_on,1,0,0,,6,,,66,127
17709,note_on,0,0,0,,2,,,62,127
17843,note_off,134,0,0,,2,,,74,127
17844,note_on,1,0,0,,1,,,73,127
17978,note_off,134,0,0,,1,,,73,127
17978,note_off,0,0,0,,2,,,62,127
17978,note_off,0,0,0,,6,,,66,127
17979,note_on,1,0,0,,6,,,66,127
17979,note_on,0,0,0,,2,,,62,127
17979,note_on,0,0,0,,12,,,71,127
18113,note_off,134,0,0,,12,,,71,127
18114,note_on,1,0,0,,10,,,69,127
18248,note_off,134,0,0,,10,,,69,127
18248,note_off,0,0,0,,2,,,62,127
18248,note_off,0,0,0,,6,,,66,127
18249,note_on,1,0,0,,2,,,62,127
18249,note_on,0,0,0,,8,,,68,127
18383,note_off,134,0,0,,8,,,68,127
18384,note_on,1,0,0,,6,,,66,127
18518,note_off,134,0,0,,6,,,66,127
18519,note_on,1,0,0,,6,,,78,127
18653,note_off,134,0,0,,6,,,78,127
18654,note_on,1,0,0,,3,,,75,127
18788,note_off,134,0,0,,2,,,62,127
18789,note_on,1,0,0,,6,,,66,127
18789,note_on,0,0,0,,3,,,63,127
18923,note_off,134,0,0,,3,,,75,127
18924,note_on,1,0,0,,1,,,73,127
19058,note_off,134,0,0,,1,,,73,127
19058,note_off,0,0,0,,3,,,63,127
19058,note_off,0,0,0,,6,,,66,127
19059,note_on,1,0,0,,6,,,66,127
19059,note_on,0,0,0,,3,,,63,127
19059,note_on,0,0,0,,0,,,72,127
19193,note_off,134,0,0,,0,,,72,127
19194,note_on,1,0,0,,10,,,69,127
19328,note_off,134,0,0,,10,,,69,127
19328,note_off,0,0,0,,3,,,63,127
19328,note_off,0,0,0,,6,,,66,127
19329,note_on,1,0,0,,3,,,63,127
19329,note_on,0,0,0,,8,,,68,127
19463,note_off,134,0,0,,8,,,68,127
19464,note_on,1,0,0,,6,,,66,127
19598,note_off,134,0,0,,6,,,66,127
19599,note_on,1,0,0,,8,,,80,127
19733,note_off,134,0,0,,8,,,80,127
19734,note_on,1,0,0,,5,,,77,127
19868,note_off,134,0,0,,3,,,63,127
19869,note_on,1,0,0,,8,,,68,127
19869,note_on,0,0,0,,5,,,65,127
20003,note_off,134,0,0,,5,,,77,127
20004,note_on,1,0,0,,2,,,74,127
20138,note_off,134,0,0,,2,,,74,127
20138,note_off,0,0,0,,5,,,65,127
20138,note_off,0,0,0,,8,,,68,127
20139,note_on,1,0,0,,8,,,68,127
20139,note_on,0,0,0,,5,,,65,127
20139,note_on,0,0,0,,1,,,73,127
20273,note_off,134,0,0,,1,,,73,127
20274,note_on,1,0,0,,12,,,71,127
20408,note_off,134,0,0,,12,,,71,127
20408,note_off,0,0,0,,5,,,65,127
20408,note_off,0,0,0,,8,,,68,127
20409,note_on,1,0,0,,5,,,65,127
20409,note_on,0,0,0,,10,,,69,127
20543,note_off,134,0,0,,10,,,69,127
20544,note_on,1,0,0,,8,,,68,127
20678,note_off,134,0,0,,8,,,68,127
20678,note_off,0,0,0,,5,,,65,127
20679,note_on,1,0,0,,6,,,66,127
20679,note_on,0,0,0,,10,,,69,127
20813,note_off,134,0,0,,10,,,69,127
20814,note_on,1,0,0,,10,,,81,127
20948,note_off,134,0,0,,6,,,66,127
20949,note_on,1,0,0,,4,,,64,127
21083,note_off,134,0,0,,10,,,81,127
21084,note_on,1,0,0,,8,,,80,127
21218,note_off,134,0,0,,4,,,64,127
21219,note_on,1,0,0,,2,,,62,127
21285,note_off,66,0,0,,8,,,80,127
21286,note_on,1,0,0,,6,,,78,127
21352,note_off,66,0,0,,6,,,78,127
21353,note_on,1,0,0,,8,,,80,127
21419,note_off,66,0,0,,8,,,80,127
21420,note_on,1,0,0,,6,,,78,127
21486,note_off,66,0,0,,6,,,78,127
21486,note_off,0,0,0,,2,,,62,127
21487,note_on,1,0,0,,2,,,50,127
21487,note_on,0,0,0,,8,,,80,127
21553,note_off,66,0,0,,8,,,80,127
21554,note_on,1,0,0,,6,,,78,127
21620,note_off,66,0,0,,6,,,78,127
21621,note_on,1,0,0,,5,,,77,127
21687,note_off,66,0,0,,5,,,77,127
21688,note_on,1,0,0,,6,,,78,127
21754,note_off,66,0,0,,6,,,78,127
21754,note_off,0,0,0,,2,,,50,127
21755,note_on,1,0,0,,1,,,61,127
21755,note_on,0,0,0,,6,,,78,127
21889,note_off,134,0,0,,1,,,61,127
21890,note_on,1,0,0,,8,,,56,127
22024,note_off,134,0,0,,8,,,56,127
22024,note_off,0,0,0,,6,,,78,127
22025,note_on,1,0,0,,5,,,53,127
22025,note_on,0,0,0,,8,,,80,127
22159,note_off,134,0,0,,5,,,53,127
22160,note_on,1,0,0,,1,,,49,127
22294,note_off,134,0,0,,1,,,49,127
22295,note_on,1,0,0,,1,,,37,127
22335,note_off,40,0,0,,8,,,80,127
22431,note_on,96,0,0,,12,,,83,127
22565,note_off,134,0,0,,12,,,83,127
22566,note_on,1,0,0,,10,,,81,127
22700,note_off,134,0,0,,10,,,81,127
22701,note_on,1,0,0,,8,,,80,127
22835,note_off,134,0,0,,8,,,80,127
22835,note_off,0,0,0,,1,,,37,127
22836,note_on,1,0,0,,1,,,61,127
22836,note_on,0,0,0,,10,,,81,127
22970,note_off,134,0,0,,10,,,81,127
22970,note_off,0,0,0,,1,,,61,127
22971,note_on,1,0,0,,10,,,57,127
22971,note_on,0,0,0,,1,,,73,127
23105,note_off,134,0,0,,1,,,73,127
23105,note_off,0,0,0,,10,,,57,127
23106,note_on,1,0,0,,6,,,54,127
23106,note_on,0,0,0,,0,,,72,127
23240,note_off,134,0,0,,6,,,54,127
23241,note_on,1,0,0,,1,,,49,127
23375,note_off,134,0,0,,1,,,49,127
23376,note_on,1,0,0,,1,,,37,127
23486,note_off,110,0,0,,0,,,72,127
23511,note_on,25,0,0,,3,,,75,127
23645,note_off,134,0,0,,3,,,75,127
23646,note_on,1,0,0,,1,,,73,127
23780,note_off,134,0,0,,1,,,73,127
23781,note_on,1,0,0,,0,,,72,127
23915,note_off,134,0,0,,0,,,72,127
23915,note_off,0,0,0,,1,,,37,127
23916,note_on,1,0,0,,1,,,61,127
23916,note_on,0,0,0,,1,,,73,127
24050,note_off,134,0,0,,1,,,73,127
24050,note_off,0,0,0,,1,,,61,127
24051,note_on,1,0,0,,8,,,56,127
24051,note_on,0,0,0,,10,,,81,127
24185,note_off,134,0,0,,10,,,81,127
24185,note_off,0,0,0,,8,,,56,127
24186,note_on,1,0,0,,5,,,53,127
24186,note_on,0,0,0,,8,,,80,127
24320,note_off,134,0,0,,5,,,53,127
24321,note_on,1,0,0,,1,,,49,127
24455,note_off,134,0,0,,1,,,49,127
24456,note_on,1,0,0,,1,,,37,127
24566,note_off,110,0,0,,8,,,80,127
24591,note_on,25,0,0,,12,,,83,127
24725,note_off,134,0,0,,12,,,83,127
24726,note_on,1,0,0,,10,,,81,127
24860,note_off,134,0,0,,10,,,81,127
24861,note_on,1,0,0,,8,,,80,127
24995,note_off,134,0,0,,8,,,80,127
24995,note_off,0,0,0,,1,,,37,127
24996,note_on,1,0,0,,1,,,61,127
24996,note_on,0,0,0,,10,,,81,127
25130,note_off,134,0,0,,10,,,81,127
25130,note_off,0,0,0,,1,,,61,127
25131,note_on,1,0,0,,10,,,57,127
25131,note_on,0,0,0,,1,,,73,127
25265,note_off,134,0,0,,1,,,73,127
25265,note_off,0,0,0,,10,,,57,127
25266,note_on,1,0,0,,6,,,54,127
25266,note_on,0,0,0,,0,,,72,127
25400,note_off,134,0,0,,6,,,54,127
25401,note_on,1,0,0,,1,,,49,127
25535,note_off,134,0,0,,1,,,49,127
25536,note_on,1,0,0,,1,,,37,127
25646,note_off,110,0,0,,0,,,72,127
25671,note_on,25,0,0,,3,,,75,127
25805,note_off,134,0,0,,3,,,75,127
25806,note_on,1,0,0,,1,,,73,127
25940,note_off,134,0,0,,1,,,73,127
25941,note_on,1,0,0,,0,,,72,127
26075,note_off,134,0,0,,0,,,72,127
26075,note_off,0,0,0,,1,,,37,127
26076,note_on,1,0,0,,1,,,61,127
26076,note_on,0,0,0,,1,,,73,127
26210,note_off,134,0,0,,1,,,73,127
26210,note_off,0,0,0,,1,,,61,127
26211,note_on,1,0,0,,8,,,56,127
26211,note_on,0,0,0,,10,,,81,127
26345,note_off,134,0,0,,10,,,81,127
26345,note_off,0,0,0,,8,,,56,127
26346,note_on,1,0,0,,5,,,53,127
26346,note_on,0,0,0,,8,,,80,127
26480,note_off,134,0,0,,5,,,53,127
26481,note_on,1,0,0,,1,,,49,127
26615,note_off,134,0,0,,1,,,49,127
26616,note_on,1,0,0,,1,,,37,127
26750,note_off,134,0,0,,8,,,80,127
26751,note_on,1,0,0,,12,,,83,127
26885,note_off,134,0,0,,12,,,83,127
26886,note_on,1,0,0,,10,,,81,127
27020,note_off,134,0,0,,10,,,81,127
27021,note_on,1,0,0,,8,,,80,127
27155,note_off,134,0,0,,8,,,80,127
27155,note_off,0,0,0,,1,,,37,127
27156,note_on,1,0,0,,6,,,42,127
27156,note_on,0,0,0,,6,,,54,127
27156,note_on,0,0,0,,10,,,81,127
27292,note_on,136,0,0,,1,,,73,127
27426,note_off,134,0,0,,1,,,73,127
27426,note_off,0,0,0,,10,,,81,127
27426,note_off,0,0,0,,6,,,54,127
27426,note_off,0,0,0,,6,,,42,127
27427,note_on,1,0,0,,12,,,59,127
27427,note_on,0,0,0,,12,,,47,127
27427,note_on,0,0,0,,2,,,74,127
27427,note_on,0,0,0,,8,,,80,127
27561,note_off,134,0,0,,8,,,80,127
27562,note_on,1,0,0,,6,,,78,127
27696,note_off,134,0,0,,6,,,78,127
27696,note_off,0,0,0,,12,,,47,127
27696,note_off,0,0,0,,12,,,59,127
27697,note_on,1,0,0,,1,,,49,127
27697,note_on,0,0,0,,1,,,61,127
27697,note_on,0,0,0,,5,,,77,127
27831,note_off,134,0,0,,2,,,74,127
27832,note_on,1,0,0,,1,,,73,127
27966,note_off,134,0,0,,5,,,77,127
27966,note_off,0,0,0,,1,,,61,127
27966,note_off,0,0,0,,1,,,49,127
27967,note_on,1,0,0,,2,,,50,127
27967,note_on,0,0,0,,2,,,62,127
27967,note_on,0,0,0,,6,,,78,127
28101,note_off,134,0,0,,1,,,73,127
28102,note_on,1,0,0,,12,,,71,127
28187,note_off,85,0,0,,12,,,71,127
28236,note_off,49,0,0,,6,,,78,127
28236,note_off,0,0,0,,2,,,62,127
28236,note_off,0,0,0,,2,,,50,127
28237,note_on,1,0,0,,1,,,61,127
28237,note_on,0,0,0,,8,,,80,127
28371,note_off,134,0,0,,1,,,61,127
28372,note_on,1,0,0,,8,,,56,127
28506,note_off,134,0,0,,8,,,56,127
28507,note_on,1,0,0,,5,,,53,127
28641,note_off,134,0,0,,5,,,53,127
28642,note_on,1,0,0,,1,,,49,127
28776,note_off,134,0,0,,1,,,49,127
28777,note_on,1,0,0,,1,,,37,127
28911,note_off,134,0,0,,8,,,80,127
28912,note_on,1,0,0,,12,,,83,127
29046,note_off,134,0,0,,12,,,83,127
29047,note_on,1,0,0,,10,,,81,127
29181,note_off,134,0,0,,10,,,81,127
29182,note_on,1,0,0,,8,,,80,127
29316,note_off,134,0,0,,8,,,80,127
29316,note_off,0,0,0,,1,,,37,127
29317,note_on,1,0,0,,1,,,61,127
29317,note_on,0,0,0,,10,,,81,127
29451,note_off,134,0,0,,10,,,81,127
29451,note_off,0,0,0,,1,,,61,127
29452,note_on,1,0,0,,10,,,57,127
29452,note_on,0,0,0,,1,,,73,127
29586,note_off,134,0,0,,1,,,73,127
29586,note_off,0,0,0,,10,,,57,127
29587,note_on,1,0,0,,6,,,54,127
29587,note_on,0,0,0,,0,,,72,127
29721,note_off,134,0,0,,6,,,54,127
29722,note_on,1,0,0,,1,,,49,127
29856,note_off,134,0,0,,1,,,49,127
29857,note_on,1,0,0,,1,,,37,127
29967,note_off,110,0,0,,0,,,72,127
29992,note_on,25,0,0,,3,,,75,127
30126,note_off,134,0,0,,3,,,75,127
30127,note_on,1,0,0,,1,,,73,127
30261,note_off,134,0,0,,1,,,73,127
30262,note_on,1,0,0,,0,,,72,127
30396,note_off,134,0,0,,0,,,72,127
30396,note_off,0,0,0,,1,,,37,127
30397,note_on,1,0,0,,1,,,61,127
30397,note_on,0,0,0,,1,,,73,127
30531,note_off,134,0,0,,1,,,73,127
30531,note_off,0,0,0,,1,,,61,127
30532,note_on,1,0,0,,8,,,56,127
30532,note_on,0,0,0,,10,,,81,127
30666,note_off,134,0,0,,10,,,81,127
30666,note_off,0,0,0,,8,,,56,127
30667,note_on,1,0,0,,5,,,53,127
30667,note_on,0,0,0,,8,,,80,127
30801,note_off,134,0,0,,5,,,53,127
30802,note_on,1,0,0,,1,,,49,127
30936,note_off,134,0,0,,1,,,49,127
30937,note_on,1,0,0,,1,,,37,127
31047,note_off,110,0,0,,8,,,80,127
31072,note_on,25,0,0,,12,,,83,127
31206,note_off,134,0,0,,12,,,83,127
31207,note_on,1,0,0,,10,,,81,127
31341,note_off,134,0,0,,10,,,81,127
31342,note_on,1,0,0,,8,,,80,127
31476,note_off,134,0,0,,8,,,80,127
31476,note_off,0,0,0,,1,,,37,127
31477,note_on,1,0,0,,1,,,61,127
31477,note_on,0,0,0,,10,,,81,127
31611,note_off,134,0,0,,10,,,81,127
31611,note_off,0,0,0,,1,,,61,127
31612,note_on,1,0,0,,10,,,57,127
31612,note_on,0,0,0,,1,,,73,127
31746,note_off,134,0,0,,1,,,73,127
31746,note_off,0,0,0,,10,,,57,127
31747,note_on,1,0,0,,6,,,54,127
31747,note_on,0,0,0,,0,,,72,127
31881,note_off,134,0,0,,6,,,54,127
31882,note_on,1,0,0,,1,,,49,127
32016,note_off,134,0,0,,1,,,49,127
32017,note_on,1,0,0,,1,,,37,127
32127,note_off,110,0,0,,0,,,72,127
32152,note_on,25,0,0,,3,,,75,127
32286,note_off,134,0,0,,3,,,75,127
32287,note_on,1,0,0,,1,,,73,127
32421,note_off,134,0,0,,1,,,73,127
32422,note_on,1,0,0,,0,,,72,127
32556,note_off,134,0,0,,0,,,72,127
32556,note_off,0,0,0,,1,,,37,127
32557,note_on,1,0,0,,1,,,61,127
32557,note_on,0,0,0,,1,,,73,127
32691,note_off,134,0,0,,1,,,73,127
32691,note_off,0,0,0,,1,,,61,127
32692,note_on,1,0,0,,8,,,56,127
32692,note_on,0,0,0,,10,,,81,127
32826,note_off,134,0,0,,10,,,81,127
32826,note_off,0,0,0,,8,,,56,127
32827,note_on,1,0,0,,5,,,53,127
32827,note_on,0,0,0,,8,,,80,127
32961,note_off,134,0,0,,5,,,53,127
32962,note_on,1,0,0,,1,,,49,127
33096,note_off,134,0,0,,1,,,49,127
33097,note_on,1,0,0,,1,,,37,127
33231,note_off,134,0,0,,8,,,80,127
33232,note_on,1,0,0,,12,,,83,127
33366,note_off,134,0,0,,12,,,83,127
33367,note_on,1,0,0,,10,,,81,127
33501,note_off,134,0,0,,10,,,81,127
33502,note_on,1,0,0,,8,,,80,127
33636,note_off,134,0,0,,8,,,80,127
33636,note_off,0,0,0,,1,,,37,127
33637,note_on,1,0,0,,6,,,42,127
33637,note_on,0,0,0,,6,,,54,127
33637,note_on,0,0,0,,10,,,81,127
33771,note_off,134,0,0,,10,,,81,127
33772,note_on,1,0,0,,1,,,85,127
33906,note_off,134,0,0,,1,,,85,127
33906,note_off,0,0,0,,6,,,54,127
33906,note_off,0,0,0,,6,,,42,127
33907,note_on,1,0,0,,12,,,59,127
33907,note_on,0,0,0,,12,,,47,127
33907,note_on,0,0,0,,2,,,86,127
34041,note_off,134,0,0,,2,,,86,127
34042,note_on,1,0,0,,12,,,83,127
34176,note_off,134,0,0,,12,,,83,127
34176,note_off,0,0,0,,12,,,47,127
34176,note_off,0,0,0,,12,,,59,127
34177,note_on,1,0,0,,1,,,49,127
34177,note_on,0,0,0,,10,,,57,127
34177,note_on,0,0,0,,6,,,54,127
34177,note_on,0,0,0,,10,,,81,127
34311,note_off,134,0,0,,10,,,81,127
34312,note_on,1,0,0,,6,,,78,127
34446,note_off,134,0,0,,6,,,54,127
34446,note_off,0,0,0,,10,,,57,127
34447,note_on,1,0,0,,8,,,56,127
34581,note_off,134,0,0,,6,,,78,127
34582,note_on,1,0,0,,5,,,77,127
34716,note_off,134,0,0,,5,,,77,127
34716,note_off,0,0,0,,8,,,56,127
34716,note_off,0,0,0,,1,,,49,127
34717,note_on,1,0,0,,6,,,54,127
34717,note_on,0,0,0,,2,,,50,127
34717,note_on,0,0,0,,6,,,78,127
34851,note_off,134,0,0,,6,,,78,127
34852,note_on,1,0,0,,1,,,73,127
34986,note_off,134,0,0,,1,,,73,127
34986,note_off,0,0,0,,2,,,50,127
34987,note_on,1,0,0,,12,,,47,127
34987,note_on,0,0,0,,2,,,74,127
35121,note_off,134,0,0,,2,,,74,127
35122,note_on,1,0,0,,12,,,71,127
35256,note_off,134,0,0,,12,,,71,127
35256,note_off,0,0,0,,12,,,47,127
35257,note_on,1,0,0,,1,,,49,127
35257,note_on,0,0,0,,10,,,57,127
35257,note_on,0,0,0,,10,,,69,127
35391,note_off,134,0,0,,10,,,69,127
35392,note_on,1,0,0,,6,,,66,127
35526,note_off,134,0,0,,10,,,57,127
35526,note_off,0,0,0,,6,,,54,127
35527,note_on,1,0,0,,8,,,56,127
35661,note_off,134,0,0,,6,,,66,127
35662,note_on,1,0,0,,5,,,65,127
35796,note_off,134,0,0,,5,,,65,127
35796,note_off,0,0,0,,8,,,56,127
35796,note_off,0,0,0,,1,,,49,127
35797,note_on,1,0,0,,6,,,54,127
35797,note_on,0,0,0,,2,,,50,127
35797,note_on,0,0,0,,6,,,66,127
35931,note_off,134,0,0,,6,,,66,127
35932,note_on,1,0,0,,1,,,61,127
36066,note_off,134,0,0,,1,,,61,127
36066,note_off,0,0,0,,2,,,50,127
36066,note_off,0,0,0,,6,,,54,127
36067,note_on,1,0,0,,12,,,47,127
36067,note_on,0,0,0,,2,,,62,127
36201,note_off,134,0,0,,2,,,62,127
36202,note_on,1,0,0,,12,,,59,127
36336,note_off,134,0,0,,12,,,59,127
36336,note_off,0,0,0,,12,,,47,127
36337,note_on,1,0,0,,1,,,49,127
36337,note_on,0,0,0,,10,,,57,127
36471,note_off,134,0,0,,10,,,57,127
36472,note_on,1,0,0,,6,,,54,127
36606,note_off,134,0,0,,1,,,49,127
36607,note_on,1,0,0,,1,,,37,127
36741,note_off,134,0,0,,6,,,54,127
36742,note_on,1,0,0,,5,,,53,127
36876,note_off,134,0,0,,5,,,53,127
36876,note_off,0,0,0,,1,,,37,127
36877,note_on,1,0,0,,6,,,42,127
36877,note_on,0,0,0,,5,,,53,127
37147,note_off,270,0,0,,5,,,53,127
37148,note_on,1,0,0,,6,,,54,127
37960,note_off,812,0,0,,6,,,54,127
37960,note_off,0,0,0,,6,,,42,127
37961,note_on,1,0,0,,6,,,54,127
38095,note_off,134,0,0,,6,,,54,127
38096,note_on,1,0,0,,12,,,59,127
38230,note_off,134,0,0,,12,,,59,127
38231,note_on,1,0,0,,11,,,58,127
38365,note_off,134,0,0,,11,,,58,127
38366,note_on,1,0,0,,2,,,62,127
38500,note_off,134,0,0,,2,,,62,127
38501,note_on,1,0,0,,1,,,61,127
38635,note_off,134,0,0,,1,,,61,127
38636,note_on,1,0,0,,7,,,67,127
38770,note_off,134,0,0,,7,,,67,127
38771,note_on,1,0,0,,6,,,66,127
38905,note_off,134,0,0,,6,,,66,127
38906,note_on,1,0,0,,12,,,71,127
39040,note_off,134,0,0,,12,,,71,127
39041,note_on,1,0,0,,11,,,70,127
39175,note_off,134,0,0,,11,,,70,127
39176,note_on,1,0,0,,2,,,74,127
39310,note_off,134,0,0,,2,,,74,127
39311,note_on,1,0,0,,1,,,73,127
39445,note_off,134,0,0,,1,,,73,127
39446,note_on,1,0,0,,6,,,78,127
39580,note_off,134,0,0,,6,,,78,127
39581,note_on,1,0,0,,4,,,76,127
39715,note_off,134,0,0,,4,,,76,127
39716,note_on,1,0,0,,2,,,74,127
39850,note_off,134,0,0,,2,,,74,127
39851,note_on,1,0,0,,1,,,73,127
39985,note_off,134,0,0,,1,,,73,127
39986,note_on,1,0,0,,12,,,71,127
40120,note_off,134,0,0,,12,,,71,127
40121,note_on,1,0,0,,6,,,42,127
40121,note_on,0,0,0,,7,,,67,127
40182,note_on,61,0,0,,6,,,66,127
40188,note_off,6,0,0,,7,,,67,127
40244,note_on,56,0,0,,7,,,67,127
40248,note_off,4,0,0,,6,,,66,127
40255,note_off,7,0,0,,6,,,42,127
40256,note_on,1,0,0,,12,,,47,127
40304,note_on,48,0,0,,6,,,66,127
40310,note_off,6,0,0,,7,,,67,127
40366,note_on,56,0,0,,7,,,67,127
40370,note_off,4,0,0,,6,,,66,127
40390,note_off,20,0,0,,12,,,47,127
40391,note_on,1,0,0,,11,,,46,127
40428,note_on,37,0,0,,6,,,66,127
40432,note_off,4,0,0,,7,,,67,127
40488,note_on,56,0,0,,7,,,67,127
40494,note_off,6,0,0,,6,,,66,127
40525,note_off,31,0,0,,11,,,46,127
40526,note_on,1,0,0,,2,,,50,127
40550,note_on,24,0,0,,6,,,66,127
40554,note_off,4,0,0,,7,,,67,127
40612,note_on,58,0,0,,7,,,67,127
40616,note_off,4,0,0,,6,,,66,127
40660,note_off,44,0,0,,2,,,50,127
40661,note_on,1,0,0,,1,,,49,127
40672,note_on,11,0,0,,6,,,66,127
40678,note_off,6,0,0,,7,,,67,127
40734,note_on,56,0,0,,7,,,67,127
40738,note_off,4,0,0,,6,,,66,127
40794,note_off,56,0,0,,1,,,49,127
40795,note_on,1,0,0,,7,,,55,127
40795,note_on,0,0,0,,6,,,66,127
40799,note_off,4,0,0,,7,,,67,127
40855,note_on,56,0,0,,7,,,67,127
40861,note_off,6,0,0,,6,,,66,127
40917,note_on,56,0,0,,6,,,66,127
40921,note_off,4,0,0,,7,,,67,127
40928,note_off,7,0,0,,7,,,55,127
40929,note_on,1,0,0,,6,,,54,127
40977,note_on,48,0,0,,7,,,67,127
40983,note_off,6,0,0,,6,,,66,127
41039,note_on,56,0,0,,6,,,66,127
41043,note_off,4,0,0,,7,,,67,127
41063,note_off,20,0,0,,6,,,54,127
41064,note_on,1,0,0,,12,,,59,127
41101,note_on,37,0,0,,7,,,67,127
41105,note_off,4,0,0,,6,,,66,127
41161,note_on,56,0,0,,6,,,66,127
41167,note_off,6,0,0,,7,,,67,127
41198,note_off,31,0,0,,12,,,59,127
41199,note_on,1,0,0,,11,,,58,127
41223,note_on,24,0,0,,7,,,67,127
41227,note_off,4,0,0,,6,,,66,127
41283,note_on,56,0,0,,6,,,66,127
41289,note_off,6,0,0,,7,,,67,127
41333,note_off,44,0,0,,11,,,58,127
41334,note_on,1,0,0,,2,,,62,127
41468,note_off,134,0,0,,2,,,62,127
41469,note_on,1,0,0,,1,,,61,127
41593,note_off,124,0,0,,6,,,66,127
41603,note_off,10,0,0,,1,,,61,127
41604,note_on,1,0,0,,6,,,66,127
41738,note_off,134,0,0,,6,,,66,127
41739,note_on,1,0,0,,4,,,64,127
41873,note_off,134,0,0,,4,,,64,127
41874,note_on,1,0,0,,2,,,62,127
42008,note_off,134,0,0,,2,,,62,127
42009,note_on,1,0,0,,1,,,61,127
42009,note_on,0,0,0,,2,,,74,127
42143,note_off,134,0,0,,1,,,61,127
42144,note_on,1,0,0,,12,,,59,127
42278,note_off,134,0,0,,12,,,59,127
42278,note_off,0,0,0,,2,,,74,127
42279,note_on,1,0,0,,4,,,64,127
42279,note_on,0,0,0,,11,,,58,127
42279,note_on,0,0,0,,4,,,76,127
42413,note_off,134,0,0,,4,,,76,127
42414,note_on,1,0,0,,2,,,74,127
42548,note_off,134,0,0,,2,,,74,127
42548,note_off,0,0,0,,11,,,58,127
42548,note_off,0,0,0,,4,,,64,127
42549,note_on,1,0,0,,12,,,59,127
42549,note_on,0,0,0,,4,,,64,127
42549,note_on,0,0,0,,1,,,73,127
42683,note_off,134,0,0,,1,,,73,127
42684,note_on,1,0,0,,12,,,71,127
42818,note_off,134,0,0,,12,,,71,127
42818,note_off,0,0,0,,4,,,64,127
42818,note_off,0,0,0,,12,,,59,127
42819,note_on,1,0,0,,4,,,64,127
42819,note_on,0,0,0,,11,,,58,127
42819,note_on,0,0,0,,4,,,76,127
42953,note_off,134,0,0,,4,,,76,127
42954,note_on,1,0,0,,2,,,74,127
43088,note_off,134,0,0,,2,,,74,127
43088,note_off,0,0,0,,11,,,58,127
43088,note_off,0,0,0,,4,,,64,127
43089,note_on,1,0,0,,12,,,59,127
43089,note_on,0,0,0,,4,,,64,127
43089,note_on,0,0,0,,1,,,73,127
43223,note_off,134,0,0,,1,,,73,127
43224,note_on,1,0,0,,12,,,71,127
43358,note_off,134,0,0,,12,,,71,127
43358,note_off,0,0,0,,4,,,64,127
43358,note_off,0,0,0,,12,,,59,127
43359,note_on,1,0,0,,4,,,64,127
43359,note_on,0,0,0,,11,,,58,127
43359,note_on,0,0,0,,4,,,76,127
43493,note_off,134,0,0,,4,,,76,127
43494,note_on,1,0,0,,2,,,74,127
43628,note_off,134,0,0,,2,,,74,127
43628,note_off,0,0,0,,11,,,58,127
43628,note_off,0,0,0,,4,,,64,127
43629,note_on,1,0,0,,12,,,59,127
43629,note_on,0,0,0,,4,,,64,127
43629,note_on,0,0,0,,1,,,73,127
43763,note_off,134,0,0,,1,,,73,127
43764,note_on,1,0,0,,12,,,71,127
43898,note_off,134,0,0,,12,,,71,127
43898,note_off,0,0,0,,4,,,64,127
43898,note_off,0,0,0,,12,,,59,127
43899,note_on,1,0,0,,4,,,64,127
43899,note_on,0,0,0,,11,,,58,127
43899,note_on,0,0,0,,4,,,76,127
44033,note_off,134,0,0,,4,,,76,127
44034,note_on,1,0,0,,2,,,74,127
44168,note_off,134,0,0,,2,,,74,127
44168,note_off,0,0,0,,11,,,58,127
44168,note_off,0,0,0,,4,,,64,127
44169,note_on,1,0,0,,7,,,55,127
44169,note_on,0,0,0,,4,,,64,127
44169,note_on,0,0,0,,1,,,73,127
44303,note_off,134,0,0,,1,,,73,127
44304,note_on,1,0,0,,12,,,83,127
44438,note_off,134,0,0,,12,,,83,127
44438,note_off,0,0,0,,4,,,64,127
44438,note_off,0,0,0,,7,,,55,127
44439,note_on,1,0,0,,6,,,54,127
44439,note_on,0,0,0,,11,,,82,127
44573,note_off,134,0,0,,11,,,82,127
44574,note_on,1,0,0,,7,,,79,127
44708,note_off,134,0,0,,7,,,79,127
44708,note_off,0,0,0,,6,,,54,127
44709,note_on,1,0,0,,11,,,58,127
44709,note_on,0,0,0,,6,,,78,127
44843,note_off,134,0,0,,6,,,78,127
44844,note_on,1,0,0,,4,,,76,127
44978,note_off,134,0,0,,4,,,76,127
44978,note_off,0,0,0,,11,,,58,127
44979,note_on,1,0,0,,12,,,59,127
44979,note_on,0,0,0,,3,,,75,127
45113,note_off,134,0,0,,3,,,75,127
45114,note_on,1,0,0,,0,,,72,127
45248,note_off,134,0,0,,0,,,72,127
45248,note_off,0,0,0,,12,,,59,127
45249,note_on,1,0,0,,3,,,51,127
45249,note_on,0,0,0,,12,,,71,127
45383,note_off,134,0,0,,12,,,71,127
45384,note_on,1,0,0,,10,,,69,127
45518,note_off,134,0,0,,10,,,69,127
45518,note_off,0,0,0,,3,,,51,127
45519,note_on,1,0,0,,4,,,52,127
45519,note_on,0,0,0,,7,,,67,127
45653,note_off,134,0,0,,7,,,67,127
45654,note_on,1,0,0,,6,,,78,127
45788,note_off,134,0,0,,6,,,78,127
45788,note_off,0,0,0,,4,,,52,127
45789,note_on,1,0,0,,7,,,55,127
45789,note_on,0,0,0,,4,,,76,127
45923,note_off,134,0,0,,4,,,76,127
45924,note_on,1,0,0,,2,,,74,127
46058,note_off,134,0,0,,2,,,74,127
46058,note_off,0,0,0,,7,,,55,127
46059,note_on,1,0,0,,10,,,57,127
46059,note_on,0,0,0,,1,,,73,127
46193,note_off,134,0,0,,1,,,73,127
46194,note_on,1,0,0,,12,,,71,127
46328,note_off,134,0,0,,12,,,71,127
46329,note_on,1,0,0,,10,,,45,127
46329,note_on,0,0,0,,10,,,69,127
46463,note_off,134,0,0,,10,,,69,127
46464,note_on,1,0,0,,7,,,67,127
46594,note_off,130,0,0,,10,,,57,127
46598,note_off,4,0,0,,7,,,67,127
46598,note_off,0,0,0,,10,,,45,127
46599,note_on,1,0,0,,2,,,62,127
46599,note_on,0,0,0,,6,,,66,127
46733,note_off,134,0,0,,2,,,62,127
46734,note_on,1,0,0,,10,,,57,127
46838,note_off,104,0,0,,6,,,66,127
46868,note_off,30,0,0,,10,,,57,127
46869,note_on,1,0,0,,6,,,54,127
46869,note_on,0,0,0,,2,,,74,127
47003,note_off,134,0,0,,6,,,54,127
47004,note_on,1,0,0,,2,,,50,127
47138,note_off,134,0,0,,2,,,50,127
47139,note_on,1,0,0,,0,,,48,127
47273,note_off,134,0,0,,2,,,74,127
47274,note_on,1,0,0,,10,,,69,127
47408,note_off,134,0,0,,10,,,69,127
47409,note_on,1,0,0,,7,,,67,127
47543,note_off,134,0,0,,7,,,67,127
47544,note_on,1,0,0,,6,,,66,127
47678,note_off,134,0,0,,6,,,66,127
47678,note_off,0,0,0,,0,,,48,127
47679,note_on,1,0,0,,12,,,59,127
47679,note_on,0,0,0,,7,,,67,127
47813,note_off,134,0,0,,12,,,59,127
47814,note_on,1,0,0,,7,,,55,127
47933,note_off,119,0,0,,7,,,67,127
47949,note_off,16,0,0,,7,,,55,127
47950,note_on,1,0,0,,2,,,50,127
47950,note_on,0,0,0,,2,,,74,127
48084,note_off,134,0,0,,2,,,50,127
48085,note_on,1,0,0,,12,,,47,127
48219,note_off,134,0,0,,12,,,47,127
48220,note_on,1,0,0,,10,,,45,127
48354,note_off,134,0,0,,2,,,74,127
48355,note_on,1,0,0,,0,,,72,127
48489,note_off,134,0,0,,0,,,72,127
48490,note_on,1,0,0,,12,,,71,127
48624,note_off,134,0,0,,12,,,71,127
48625,note_on,1,0,0,,10,,,69,127
48759,note_off,134,0,0,,10,,,69,127
48759,note_off,0,0,0,,10,,,45,127
48760,note_on,1,0,0,,7,,,55,127
48760,note_on,0,0,0,,10,,,69,127
48894,note_off,134,0,0,,7,,,55,127
48895,note_on,1,0,0,,4,,,52,127
49014,note_off,119,0,0,,10,,,69,127
49030,note_off,16,0,0,,4,,,52,127
49031,note_on,1,0,0,,12,,,47,127
49031,note_on,0,0,0,,12,,,71,127
49165,note_off,134,0,0,,12,,,47,127
49166,note_on,1,0,0,,7,,,43,127
49300,note_off,134,0,0,,7,,,43,127
49301,note_on,1,0,0,,6,,,42,127
49435,note_off,134,0,0,,12,,,71,127
49436,note_on,1,0,0,,10,,,69,127
49570,note_off,134,0,0,,10,,,69,127
49571,note_on,1,0,0,,7,,,67,127
49705,note_off,134,0,0,,7,,,67,127
49706,note_on,1,0,0,,6,,,66,127
49840,note_off,134,0,0,,6,,,66,127
49840,note_off,0,0,0,,6,,,42,127
49841,note_on,1,0,0,,4,,,52,127
49841,note_on,0,0,0,,4,,,40,127
49841,note_on,0,0,0,,7,,,67,127
49975,note_off,134,0,0,,7,,,67,127
49976,note_on,1,0,0,,4,,,76,127
50110,note_off,134,0,0,,4,,,40,127
50110,note_off,0,0,0,,4,,,52,127
50111,note_on,1,0,0,,6,,,54,127
50111,note_on,0,0,0,,6,,,42,127
50245,note_off,134,0,0,,4,,,76,127
50246,note_on,1,0,0,,2,,,74,127
50380,note_off,134,0,0,,2,,,74,127
50380,note_off,0,0,0,,6,,,42,127
50380,note_off,0,0,0,,6,,,54,127
50381,note_on,1,0,0,,7,,,55,127
50381,note_on,0,0,0,,1,,,73,127
50515,note_off,134,0,0,,1,,,73,127
50516,note_on,1,0,0,,12,,,71,127
50650,note_off,134,0,0,,12,,,71,127
50650,note_off,0,0,0,,7,,,55,127
50651,note_on,1,0,0,,7,,,43,127
50651,note_on,0,0,0,,11,,,70,127
50785,note_off,134,0,0,,11,,,70,127
50786,note_on,1,0,0,,12,,,71,127
50920,note_off,134,0,0,,12,,,71,127
50920,note_off,0,0,0,,7,,,43,127
50921,note_on,1,0,0,,6,,,54,127
50921,note_on,0,0,0,,1,,,73,127
50921,note_on,0,0,0,,11,,,70,127
51055,note_off,134,0,0,,1,,,73,127
51056,note_on,1,0,0,,2,,,74,127
51190,note_off,134,0,0,,2,,,74,127
51190,note_off,0,0,0,,6,,,54,127
51191,note_on,1,0,0,,6,,,66,127
51191,note_on,0,0,0,,4,,,76,127
51325,note_off,134,0,0,,4,,,76,127
51326,note_on,1,0,0,,6,,,78,127
51460,note_off,134,0,0,,6,,,78,127
51460,note_off,0,0,0,,6,,,66,127
51460,note_off,0,0,0,,11,,,70,127
51461,note_on,1,0,0,,7,,,55,127
51461,note_on,0,0,0,,4,,,76,127
51595,note_off,134,0,0,,4,,,76,127
51596,note_on,1,0,0,,2,,,74,127
51730,note_off,134,0,0,,2,,,74,127
51731,note_on,1,0,0,,7,,,67,127
51731,note_on,0,0,0,,1,,,73,127
51865,note_off,134,0,0,,1,,,73,127
51866,note_on,1,0,0,,12,,,71,127
51996,note_off,130,0,0,,7,,,55,127
52000,note_off,4,0,0,,12,,,71,127
52000,note_off,0,0,0,,7,,,67,127
52001,note_on,1,0,0,,6,,,54,127
52001,note_on,0,0,0,,11,,,70,127
52001,note_on,0,0,0,,1,,,73,127
52135,note_off,134,0,0,,1,,,73,127
52136,note_on,1,0,0,,2,,,74,127
52270,note_off,134,0,0,,2,,,74,127
52270,note_off,0,0,0,,6,,,54,127
52271,note_on,1,0,0,,6,,,66,127
52271,note_on,0,0,0,,4,,,76,127
52405,note_off,134,0,0,,4,,,76,127
52406,note_on,1,0,0,,6,,,78,127
52540,note_off,134,0,0,,6,,,78,127
52540,note_off,0,0,0,,6,,,66,127
52540,note_off,0,0,0,,11,,,70,127
52541,note_on,1,0,0,,7,,,55,127
52541,note_on,0,0,0,,4,,,76,127
52675,note_off,134,0,0,,4,,,76,127
52676,note_on,1,0,0,,2,,,74,127
52810,note_off,134,0,0,,2,,,74,127
52811,note_on,1,0,0,,7,,,67,127
52811,note_on,0,0,0,,1,,,73,127
52945,note_off,134,0,0,,1,,,73,127
52946,note_on,1,0,0,,12,,,71,127
53076,note_off,130,0,0,,7,,,55,127
53080,note_off,4,0,0,,12,,,71,127
53080,note_off,0,0,0,,7,,,67,127
53081,note_on,1,0,0,,6,,,66,127
53081,note_on,0,0,0,,1,,,73,127
53215,note_off,134,0,0,,6,,,66,127
53216,note_on,1,0,0,,1,,,61,127
53320,note_off,104,0,0,,1,,,73,127
53350,note_off,30,0,0,,1,,,61,127
53351,note_on,1,0,0,,11,,,58,127
53351,note_on,0,0,0,,6,,,78,127
53485,note_off,134,0,0,,11,,,58,127
53486,note_on,1,0,0,,6,,,54,127
53620,note_off,134,0,0,,6,,,54,127
53621,note_on,1,0,0,,6,,,42,127
53755,note_off,134,0,0,,6,,,78,127
53756,note_on,1,0,0,,4,,,76,127
53890,note_off,134,0,0,,4,,,76,127
53891,note_on,1,0,0,,2,,,74,127
54025,note_off,134,0,0,,2,,,74,127
54026,note_on,1,0,0,,1,,,73,127
54160,note_off,134,0,0,,1,,,73,127
54160,note_off,0,0,0,,6,,,42,127
54161,note_on,1,0,0,,6,,,66,127
54161,note_on,0,0,0,,2,,,74,127
54295,note_off,134,0,0,,2,,,74,127
54295,note_off,0,0,0,,6,,,66,127
54296,note_on,1,0,0,,2,,,62,127
54296,note_on,0,0,0,,12,,,71,127
54430,note_off,134,0,0,,12,,,71,127
54430,note_off,0,0,0,,2,,,62,127
54431,note_on,1,0,0,,12,,,59,127
54431,note_on,0,0,0,,5,,,77,127
54565,note_off,134,0,0,,12,,,59,127
54566,note_on,1,0,0,,6,,,54,127
54700,note_off,134,0,0,,6,,,54,127
54701,note_on,1,0,0,,6,,,42,127
54835,note_off,134,0,0,,5,,,77,127
54836,note_on,1,0,0,,8,,,80,127
54970,note_off,134,0,0,,8,,,80,127
54971,note_on,1,0,0,,6,,,78,127
55105,note_off,134,0,0,,6,,,78,127
55106,note_on,1,0,0,,5,,,77,127
55240,note_off,134,0,0,,5,,,77,127
55240,note_off,0,0,0,,6,,,42,127
55241,note_on,1,0,0,,6,,,66,127
55241,note_on,0,0,0,,6,,,78,127
55375,note_off,134,0,0,,6,,,66,127
55376,note_on,1,0,0,,1,,,61,127
55480,note_off,104,0,0,,6,,,78,127
55510,note_off,30,0,0,,1,,,61,127
55511,note_on,1,0,0,,11,,,58,127
55511,note_on,0,0,0,,1,,,73,127
55645,note_off,134,0,0,,11,,,58,127
55646,note_on,1,0,0,,6,,,54,127
55780,note_off,134,0,0,,6,,,54,127
55781,note_on,1,0,0,,6,,,42,127
55915,note_off,134,0,0,,1,,,73,127
55916,note_on,1,0,0,,4,,,76,127
56050,note_off,134,0,0,,4,,,76,127
56051,note_on,1,0,0,,2,,,74,127
56185,note_off,134,0,0,,2,,,74,127
56186,note_on,1,0,0,,1,,,73,127
56320,note_off,134,0,0,,1,,,73,127
56320,note_off,0,0,0,,6,,,42,127
56321,note_on,1,0,0,,6,,,66,127
56321,note_on,0,0,0,,2,,,74,127
56455,note_off,134,0,0,,2,,,74,127
56455,note_off,0,0,0,,6,,,66,127
56456,note_on,1,0,0,,2,,,62,127
56456,note_on,0,0,0,,12,,,71,127
56590,note_off,134,0,0,,12,,,71,127
56590,note_off,0,0,0,,2,,,62,127
56591,note_on,1,0,0,,12,,,59,127
56591,note_on,0,0,0,,5,,,77,127
56725,note_off,134,0,0,,12,,,59,127
56726,note_on,1,0,0,,6,,,54,127
56860,note_off,134,0,0,,6,,,54,127
56861,note_on,1,0,0,,6,,,42,127
56995,note_off,134,0,0,,5,,,77,127
56996,note_on,1,0,0,,8,,,80,127
57130,note_off,134,0,0,,8,,,80,127
57131,note_on,1,0,0,,6,,,78,127
57265,note_off,134,0,0,,6,,,78,127
57266,note_on,1,0,0,,5,,,77,127
57400,note_off,134,0,0,,5,,,77,127
57400,note_off,0,0,0,,6,,,42,127
57401,note_on,1,0,0,,6,,,66,127
57401,note_on,0,0,0,,6,,,78,127
57535,note_off,134,0,0,,6,,,66,127
57536,note_on,1,0,0,,1,,,61,127
57655,note_off,119,0,0,,6,,,78,127
57671,note_off,16,0,0,,1,,,61,127
57672,note_on,1,0,0,,11,,,58,127
57672,note_on,0,0,0,,1,,,73,127
57806,note_off,134,0,0,,11,,,58,127
57807,note_on,1,0,0,,6,,,54,127
57941,note_off,134,0,0,,6,,,54,127
57942,note_on,1,0,0,,6,,,42,127
58076,note_off,134,0,0,,1,,,73,127
58077,note_on,1,0,0,,4,,,76,127
58211,note_off,134,0,0,,4,,,76,127
58212,note_on,1,0,0,,2,,,74,127
58346,note_off,134,0,0,,2,,,74,127
58347,note_off,1,0,0,,6,,,42,127
58347,note_on,0,0,0,,1,,,73,127
58481,note_off,134,0,0,,1,,,73,127
58482,note_on,1,0,0,,12,,,47,127
58482,note_on,0,0,0,,12,,,59,127
58482,note_on,0,0,0,,2,,,74,127
58618,note_on,136,0,0,,6,,,78,127
58752,note_off,134,0,0,,6,,,78,127
58752,note_off,0,0,0,,2,,,74,127
58752,note_off,0,0,0,,12,,,59,127
58752,note_off,0,0,0,,12,,,47,127
58753,note_on,1,0,0,,4,,,52,127
58753,note_on,0,0,0,,1,,,73,127
58753,note_on,0,0,0,,7,,,79,127
58887,note_off,134,0,0,,1,,,73,127
58888,note_on,1,0,0,,12,,,71,127
59022,note_off,134,0,0,,12,,,71,127
59022,note_off,0,0,0,,4,,,52,127
59023,note_on,1,0,0,,6,,,54,127
59023,note_on,0,0,0,,6,,,42,127
59023,note_on,0,0,0,,11,,,70,127
59157,note_off,134,0,0,,7,,,79,127
59158,note_on,1,0,0,,6,,,78,127
59292,note_off,134,0,0,,11,,,70,127
59292,note_off,0,0,0,,6,,,42,127
59292,note_off,0,0,0,,6,,,54,127
59293,note_on,1,0,0,,7,,,43,127
59293,note_on,0,0,0,,7,,,55,127
59293,note_on,0,0,0,,12,,,71,127
59427,note_off,134,0,0,,6,,,78,127
59428,note_on,1,0,0,,4,,,76,127
59532,note_off,104,0,0,,12,,,71,127
59562,note_off,30,0,0,,4,,,76,127
59562,note_off,0,0,0,,7,,,55,127
59562,note_off,0,0,0,,7,,,43,127
59563,note_on,1,0,0,,6,,,66,127
59563,note_on,0,0,0,,6,,,78,127
59697,note_off,134,0,0,,6,,,66,127
59698,note_on,1,0,0,,1,,,61,127
59832,note_off,134,0,0,,1,,,61,127
59832,note_off,0,0,0,,6,,,78,127
59833,note_on,1,0,0,,11,,,58,127
59833,note_on,0,0,0,,1,,,73,127
59967,note_off,134,0,0,,11,,,58,127
59968,note_on,1,0,0,,6,,,54,127
60102,note_off,134,0,0,,6,,,54,127
60103,note_on,1,0,0,,6,,,42,127
60237,note_off,134,0,0,,1,,,73,127
60238,note_on,1,0,0,,4,,,76,127
60372,note_off,134,0,0,,4,,,76,127
60373,note_on,1,0,0,,2,,,74,127
60507,note_off,134,0,0,,2,,,74,127
60508,note_on,1,0,0,,1,,,73,127
60642,note_off,134,0,0,,1,,,73,127
60642,note_off,0,0,0,,6,,,42,127
60643,note_on,1,0,0,,6,,,66,127
60643,note_on,0,0,0,,2,,,74,127
60777,note_off,134,0,0,,2,,,74,127
60777,note_off,0,0,0,,6,,,66,127
60778,note_on,1,0,0,,2,,,62,127
60778,note_on,0,0,0,,12,,,71,127
60912,note_off,134,0,0,,12,,,71,127
60912,note_off,0,0,0,,2,,,62,127
60913,note_on,1,0,0,,12,,,59,127
60913,note_on,0,0,0,,12,,,83,127
61047,note_off,134,0,0,,12,,,59,127
61048,note_on,1,0,0,,6,,,54,127
61182,note_off,134,0,0,,6,,,54,127
61183,note_on,1,0,0,,6,,,42,127
61317,note_off,134,0,0,,12,,,83,127
61318,note_on,1,0,0,,8,,,80,127
61452,note_off,134,0,0,,8,,,80,127
61453,note_on,1,0,0,,6,,,78,127
61587,note_off,134,0,0,,6,,,78,127
61588,note_on,1,0,0,,5,,,77,127
61722,note_off,134,0,0,,5,,,77,127
61722,note_off,0,0,0,,6,,,42,127
61723,note_on,1,0,0,,6,,,66,127
61723,note_on,0,0,0,,6,,,78,127
61857,note_off,134,0,0,,6,,,66,127
61858,note_on,1,0,0,,1,,,61,127
61977,note_off,119,0,0,,6,,,78,127
61993,note_off,16,0,0,,1,,,61,127
61994,note_on,1,0,0,,11,,,58,127
61994,note_on,0,0,0,,1,,,73,127
62128,note_off,134,0,0,,11,,,58,127
62129,note_on,1,0,0,,6,,,54,127
62263,note_off,134,0,0,,6,,,54,127
62264,note_on,1,0,0,,6,,,42,127
62398,note_off,134,0,0,,1,,,73,127
62399,note_on,1,0,0,,4,,,76,127
62533,note_off,134,0,0,,4,,,76,127
62534,note_on,1,0,0,,2,,,74,127
62668,note_off,134,0,0,,2,,,74,127
62669,note_on,1,0,0,,1,,,73,127
62803,note_off,134,0,0,,1,,,73,127
62803,note_off,0,0,0,,6,,,42,127
62804,note_on,1,0,0,,6,,,66,127
62804,note_on,0,0,0,,2,,,74,127
62938,note_off,134,0,0,,2,,,74,127
62938,note_off,0,0,0,,6,,,66,127
62939,note_on,1,0,0,,2,,,62,127
62939,note_on,0,0,0,,12,,,71,127
63073,note_off,134,0,0,,12,,,71,127
63073,note_off,0,0,0,,2,,,62,127
63074,note_on,1,0,0,,12,,,59,127
63074,note_on,0,0,0,,12,,,83,127
63208,note_off,134,0,0,,12,,,59,127
63209,note_on,1,0,0,,6,,,54,127
63343,note_off,134,0,0,,6,,,54,127
63344,note_on,1,0,0,,6,,,42,127
63478,note_off,134,0,0,,12,,,83,127
63479,note_on,1,0,0,,8,,,80,127
63613,note_off,134,0,0,,8,,,80,127
63614,note_on,1,0,0,,6,,,78,127
63748,note_off,134,0,0,,6,,,78,127
63749,note_on,1,0,0,,5,,,77,127
63883,note_off,134,0,0,,5,,,77,127
63883,note_off,0,0,0,,6,,,42,127
63884,note_on,1,0,0,,6,,,66,127
63884,note_on,0,0,0,,6,,,78,127
64018,note_off,134,0,0,,6,,,66,127
64019,note_on,1,0,0,,1,,,61,127
64138,note_off,119,0,0,,6,,,78,127
64154,note_off,16,0,0,,1,,,61,127
64155,note_on,1,0,0,,11,,,58,127
64155,note_on,0,0,0,,1,,,73,127
64289,note_off,134,0,0,,11,,,58,127
64290,note_on,1,0,0,,6,,,54,127
64424,note_off,134,0,0,,6,,,54,127
64425,note_on,1,0,0,,6,,,42,127
64559,note_off,134,0,0,,1,,,73,127
64560,note_on,1,0,0,,4,,,76,127
64694,note_off,134,0,0,,4,,,76,127
64695,note_on,1,0,0,,2,,,74,127
64829,note_off,134,0,0,,2,,,74,127
64830,note_off,1,0,0,,6,,,42,127
64830,note_on,0,0,0,,1,,,73,127
64964,note_off,134,0,0,,1,,,73,127
64965,note_on,1,0,0,,12,,,59,127
64965,note_on,0,0,0,,12,,,47,127
64965,note_on,0,0,0,,2,,,74,127
65099,note_off,134,0,0,,2,,,74,127
65100,note_on,1,0,0,,6,,,78,127
65234,note_off,134,0,0,,6,,,78,127
65234,note_off,0,0,0,,12,,,47,127
65235,note_on,1,0,0,,4,,,52,127
65235,note_on,0,0,0,,7,,,79,127
65369,note_off,134,0,0,,7,,,79,127
65370,note_on,1,0,0,,4,,,76,127
65504,note_off,134,0,0,,4,,,76,127
65504,note_off,0,0,0,,4,,,52,127
65505,note_on,1,0,0,,2,,,62,127
65505,note_on,0,0,0,,6,,,54,127
65505,note_on,0,0,0,,2,,,74,127
65639,note_off,134,0,0,,2,,,74,127
65640,note_on,1,0,0,,12,,,71,127
65774,note_off,134,0,0,,2,,,62,127
65774,note_off,0,0,0,,12,,,59,127
65775,note_on,1,0,0,,1,,,61,127
65909,note_off,134,0,0,,12,,,71,127
65910,note_on,1,0,0,,11,,,70,127
66044,note_off,134,0,0,,11,,,70,127
66044,note_off,0,0,0,,1,,,61,127
66044,note_off,0,0,0,,6,,,54,127
66045,note_on,1,0,0,,7,,,55,127
66045,note_on,0,0,0,,12,,,59,127
66045,note_on,0,0,0,,4,,,64,127
66045,note_on,0,0,0,,12,,,71,127
66179,note_off,134,0,0,,12,,,71,127
66180,note_on,1,0,0,,1,,,85,127
66314,note_off,134,0,0,,1,,,85,127
66314,note_off,0,0,0,,7,,,55,127
66315,note_on,1,0,0,,4,,,52,127
66315,note_on,0,0,0,,2,,,86,127
66449,note_off,134,0,0,,2,,,86,127
66450,note_on,1,0,0,,12,,,83,127
66584,note_off,134,0,0,,4,,,52,127
66584,note_off,0,0,0,,4,,,64,127
66585,note_on,1,0,0,,2,,,62,127
66585,note_on,0,0,0,,6,,,54,127
66719,note_off,134,0,0,,12,,,83,127
66720,note_on,1,0,0,,1,,,85,127
66854,note_off,134,0,0,,1,,,85,127
66854,note_off,0,0,0,,2,,,62,127
66854,note_off,0,0,0,,12,,,59,127
66855,note_on,1,0,0,,1,,,61,127
66855,note_on,0,0,0,,6,,,78,127
66989,note_off,134,0,0,,6,,,78,127
66990,note_on,1,0,0,,11,,,82,127
67124,note_off,134,0,0,,11,,,82,127
67124,note_off,0,0,0,,1,,,61,127
67124,note_off,0,0,0,,6,,,54,127
67125,note_on,1,0,0,,4,,,64,127
67125,note_on,0,0,0,,12,,,59,127
67125,note_on,0,0,0,,7,,,55,127
67125,note_on,0,0,0,,12,,,83,127
67259,note_off,134,0,0,,12,,,83,127
67260,note_on,1,0,0,,6,,,78,127
67394,note_off,134,0,0,,6,,,78,127
67394,note_off,0,0,0,,7,,,55,127
67395,note_on,1,0,0,,4,,,52,127
67395,note_on,0,0,0,,7,,,79,127
67529,note_off,134,0,0,,7,,,79,127
67530,note_on,1,0,0,,4,,,76,127
67664,note_off,134,0,0,,4,,,76,127
67664,note_off,0,0,0,,4,,,52,127
67664,note_off,0,0,0,,4,,,64,127
67665,note_on,1,0,0,,2,,,62,127
67665,note_on,0,0,0,,6,,,54,127
67665,note_on,0,0,0,,2,,,74,127
67799,note_off,134,0,0,,2,,,74,127
67800,note_on,1,0,0,,12,,,71,127
67934,note_off,134,0,0,,2,,,62,127
67934,note_off,0,0,0,,12,,,59,127
67935,note_on,1,0,0,,1,,,61,127
68069,note_off,134,0,0,,12,,,71,127
68070,note_on,1,0,0,,11,,,70,127
68204,note_off,134,0,0,,11,,,70,127
68204,note_off,0,0,0,,1,,,61,127
68204,note_off,0,0,0,,6,,,54,127
68205,note_on,1,0,0,,7,,,55,127
68205,note_on,0,0,0,,12,,,71,127
68339,note_off,134,0,0,,12,,,71,127
68340,note_on,1,0,0,,6,,,66,127
68474,note_off,134,0,0,,6,,,66,127
68474,note_off,0,0,0,,7,,,55,127
68475,note_on,1,0,0,,4,,,52,127
68475,note_on,0,0,0,,7,,,67,127
68609,note_off,134,0,0,,7,,,67,127
68610,note_on,1,0,0,,4,,,64,127
68744,note_off,134,0,0,,4,,,64,127
68744,note_off,0,0,0,,4,,,52,127
68745,note_on,1,0,0,,6,,,54,127
68745,note_on,0,0,0,,2,,,62,127
68879,note_off,134,0,0,,2,,,62,127
68880,note_on,1,0,0,,12,,,59,127
69014,note_off,134,0,0,,6,,,54,127
69015,note_on,1,0,0,,6,,,42,127
69149,note_off,134,0,0,,12,,,59,127
69150,note_on,1,0,0,,11,,,58,127
69284,note_off,134,0,0,,11,,,58,127
69284,note_off,0,0,0,,6,,,42,127
69285,note_on,1,0,0,,12,,,47,127
69285,note_on,0,0,0,,12,,,59,127
69419,note_off,134,0,0,,12,,,59,127
69420,note_on,1,0,0,,4,,,64,127
69554,note_off,134,0,0,,4,,,64,127
69555,note_on,1,0,0,,6,,,54,127
69555,note_on,0,0,0,,3,,,63,127
69689,note_off,134,0,0,,3,,,63,127
69690,note_on,1,0,0,,6,,,66,127
69824,note_off,134,0,0,,6,,,66,127
69824,note_off,0,0,0,,6,,,54,127
69825,note_on,1,0,0,,7,,,55,127
69825,note_on,0,0,0,,4,,,64,127
69959,note_off,134,0,0,,4,,,64,127
69960,note_on,1,0,0,,12,,,71,127
70094,note_off,134,0,0,,12,,,71,127
70095,note_on,1,0,0,,4,,,52,127
70095,note_on,0,0,0,,11,,,70,127
70229,note_off,134,0,0,,11,,,70,127
70230,note_on,1,0,0,,1,,,73,127
70364,note_off,134,0,0,,1,,,73,127
70364,note_off,0,0,0,,4,,,52,127
70364,note_off,0,0,0,,7,,,55,127
70365,note_on,1,0,0,,2,,,50,127
70365,note_on,0,0,0,,6,,,54,127
70365,note_on,0,0,0,,12,,,71,127
70499,note_off,134,0,0,,12,,,71,127
70500,note_on,1,0,0,,6,,,66,127
70634,note_off,134,0,0,,6,,,66,127
70634,note_off,0,0,0,,6,,,54,127
70634,note_off,0,0,0,,2,,,50,127
70635,note_on,1,0,0,,4,,,52,127
70635,note_on,0,0,0,,7,,,55,127
70635,note_on,0,0,0,,7,,,67,127
70769,note_off,134,0,0,,7,,,67,127
70770,note_on,1,0,0,,4,,,64,127
70904,note_off,134,0,0,,4,,,64,127
70904,note_off,0,0,0,,7,,,55,127
70904,note_off,0,0,0,,4,,,52,127
70905,note_on,1,0,0,,6,,,54,127
70905,note_on,0,0,0,,2,,,62,127
71039,note_off,134,0,0,,2,,,62,127
71040,note_on,1,0,0,,12,,,59,127
71170,note_off,130,0,0,,12,,,47,127
71176,note_on,6,0,0,,6,,,42,127
71310,note_off,134,0,0,,12,,,59,127
71311,note_on,1,0,0,,11,,,58,127
71445,note_off,134,0,0,,11,,,58,127
71445,note_off,0,0,0,,6,,,42,127
71445,note_off,0,0,0,,6,,,54,127
71446,note_on,1,0,0,,12,,,47,127
71446,note_on,0,0,0,,11,,,58,127
71716,note_off,270,0,0,,11,,,58,127
71717,note_on,1,0,0,,12,,,59,127
73612,note_off,1895,0,0,,12,,,59,127
73612,note_off,0,0,0,,12,,,47,127
78336,end_of_track,4724,1,0,,,,,,
