tick,type,time,meta,track,program,channel,pitch,tempo,note,velocity
0,copyright,0,1,0,,,,,,
0,program_change,0,0,0,6,0,,,,
0,pitchwheel,0,0,0,,0,0,,,
0,program_change,0,0,0,6,1,,,,
0,pitchwheel,0,0,0,,1,-590,,,
0,program_change,0,0,0,6,2,,,,
0,pitchwheel,0,0,0,,2,-272,,,
0,program_change,0,0,0,6,3,,,,
0,pitchwheel,0,0,0,,3,-353,,,
0,program_change,0,0,0,6,4,,,,
0,pitchwheel,0,0,0,,4,-560,,,
0,program_change,0,0,0,6,5,,,,
0,pitchwheel,0,0,0,,5,-80,,,
0,program_change,0,0,0,6,6,,,,
0,pitchwheel,0,0,0,,6,-625,,,
0,program_change,0,0,0,6,7,,,,
0,pitchwheel,0,0,0,,7,-130,,,
0,program_change,0,0,0,6,8,,,,
0,pitchwheel,0,0,0,,8,-512,,,
0,program_change,0,0,0,6,10,,,,
0,pitchwheel,0,0,0,,10,-464,,,
0,program_change,0,0,0,6,11,,,,
0,pitchwheel,0,0,0,,11,-208,,,
0,program_change,0,0,0,6,12,,,,
0,pitchwheel,0,0,0,,12,-553,,,
0,set_tempo,0,1,0,,,,500000,,
243,note_on,243,0,0,,12,,,71,127
484,note_off,241,0,0,,12,,,71,127
485,note_on,1,0,0,,4,,,76,127
726,note_off,241,0,0,,4,,,76,127
727,note_on,1,0,0,,0,,,72,127
968,note_off,241,0,0,,0,,,72,127
969,note_on,1,0,0,,12,,,71,127
1089,note_off,120,0,0,,12,,,71,127
1090,note_on,1,0,0,,10,,,69,127
1210,note_off,120,0,0,,10,,,69,127
1211,note_on,1,0,0,,7,,,67,127
1331,note_off,120,0,0,,7,,,67,127
1332,note_on,1,0,0,,6,,,66,127
1452,note_off,120,0,0,,6,,,66,127
1453,note_on,1,0,0,,7,,,67,127
1696,note_on,243,0,0,,12,,,59,127
1937,note_off,241,0,0,,12,,,59,127
1938,note_on,1,0,0,,4,,,64,127
2179,note_off,241,0,0,,4,,,64,127
2179,note_off,0,0,0,,7,,,67,127
2180,note_on,1,0,0,,10,,,69,127
2180,note_on,0,0,0,,0,,,60,127
2421,note_off,241,0,0,,0,,,60,127
2421,note_off,0,0,0,,10,,,69,127
2422,note_on,1,0,0,,12,,,71,127
2422,note_on,0,0,0,,12,,,59,127
2542,note_off,120,0,0,,12,,,59,127
2543,note_on,1,0,0,,10,,,57,127
2663,note_off,120,0,0,,10,,,57,127
2664,note_on,1,0,0,,7,,,55,127
2784,note_off,120,0,0,,7,,,55,127
2785,note_on,1,0,0,,6,,,54,127
2905,note_off,120,0,0,,6,,,54,127
2906,note_on,1,0,0,,7,,,55,127
3026,note_off,120,0,0,,12,,,71,127
3027,note_on,1,0,0,,12,,,71,127
3147,note_off,120,0,0,,12,,,71,127
3148,note_on,1,0,0,,4,,,76,127
3268,note_off,120,0,0,,4,,,76,127
3269,note_on,1,0,0,,12,,,71,127
3389,note_off,120,0,0,,12,,,71,127
3389,note_off,0,0,0,,7,,,55,127
3390,note_on,1,0,0,,0,,,72,127
3390,note_on,0,0,0,,10,,,57,127
3510,note_off,120,0,0,,0,,,72,127
3511,note_on,1,0,0,,7,,,67,127
3631,note_off,120,0,0,,7,,,67,127
3632,note_on,1,0,0,,10,,,69,127
3752,note_off,120,0,0,,10,,,69,127
3753,note_on,1,0,0,,6,,,66,127
3873,note_off,120,0,0,,6,,,66,127
3873,note_off,0,0,0,,10,,,57,127
3874,note_on,1,0,0,,7,,,67,127
3874,note_on,0,0,0,,12,,,59,127
3994,note_off,120,0,0,,7,,,67,127
3995,note_on,1,0,0,,4,,,64,127
4115,note_off,120,0,0,,4,,,64,127
4116,note_on,1,0,0,,12,,,71,127
4236,note_off,120,0,0,,12,,,71,127
4237,note_on,1,0,0,,3,,,63,127
4357,note_off,120,0,0,,3,,,63,127
4357,note_off,0,0,0,,12,,,59,127
4358,note_on,1,0,0,,4,,,64,127
4358,note_on,0,0,0,,7,,,55,127
4479,note_on,121,0,0,,12,,,71,127
4540,note_off,61,0,0,,4,,,64,127
4599,note_off,59,0,0,,12,,,71,127
4600,note_on,1,0,0,,4,,,76,127
4720,note_off,120,0,0,,4,,,76,127
4721,note_on,1,0,0,,12,,,71,127
4841,note_off,120,0,0,,12,,,71,127
4841,note_off,0,0,0,,7,,,55,127
4842,note_on,1,0,0,,0,,,72,127
4842,note_on,0,0,0,,10,,,57,127
4962,note_off,120,0,0,,0,,,72,127
4963,note_on,1,0,0,,7,,,67,127
5083,note_off,120,0,0,,7,,,67,127
5084,note_on,1,0,0,,10,,,69,127
5204,note_off,120,0,0,,10,,,69,127
5205,note_on,1,0,0,,6,,,66,127
5325,note_off,120,0,0,,6,,,66,127
5325,note_off,0,0,0,,10,,,57,127
5326,note_on,1,0,0,,7,,,67,127
5326,note_on,0,0,0,,12,,,59,127
5446,note_off,120,0,0,,7,,,67,127
5447,note_on,1,0,0,,4,,,64,127
5567,note_off,120,0,0,,4,,,64,127
5568,note_on,1,0,0,,12,,,71,127
5688,note_off,120,0,0,,12,,,71,127
5689,note_on,1,0,0,,3,,,63,127
5809,note_off,120,0,0,,3,,,63,127
5809,note_off,0,0,0,,12,,,59,127
5810,note_on,1,0,0,,4,,,64,127
5810,note_on,0,0,0,,4,,,52,127
5930,note_off,120,0,0,,4,,,52,127
5931,note_on,1,0,0,,12,,,59,127
6051,note_off,120,0,0,,12,,,59,127
6051,note_off,0,0,0,,4,,,64,127
6052,note_on,1,0,0,,4,,,64,127
6172,note_off,120,0,0,,4,,,64,127
6173,note_on,1,0,0,,12,,,59,127
6293,note_off,120,0,0,,12,,,59,127
6294,note_on,1,0,0,,0,,,60,127
6414,note_off,120,0,0,,0,,,60,127
6415,note_on,1,0,0,,7,,,55,127
6535,note_off,120,0,0,,7,,,55,127
6536,note_on,1,0,0,,10,,,69,127
6536,note_on,0,0,0,,10,,,57,127
6656,note_off,120,0,0,,10,,,57,127
6657,note_on,1,0,0,,6,,,54,127
6777,note_off,120,0,0,,6,,,54,127
6777,note_off,0,0,0,,10,,,69,127
6778,note_on,1,0,0,,12,,,71,127
6778,note_on,0,0,0,,7,,,55,127
6898,note_off,120,0,0,,7,,,55,127
6899,note_on,1,0,0,,4,,,52,127
7019,note_off,120,0,0,,4,,,52,127
7019,note_off,0,0,0,,12,,,71,127
7020,note_on,1,0,0,,6,,,66,127
7020,note_on,0,0,0,,12,,,59,127
7140,note_off,120,0,0,,12,,,59,127
7141,note_on,1,0,0,,3,,,51,127
7261,note_off,120,0,0,,3,,,51,127
7261,note_off,0,0,0,,6,,,66,127
7262,note_on,1,0,0,,7,,,67,127
7262,note_on,0,0,0,,4,,,52,127
7382,note_off,120,0,0,,4,,,52,127
7383,note_on,1,0,0,,12,,,59,127
7503,note_off,120,0,0,,12,,,59,127
7504,note_on,1,0,0,,4,,,64,127
7624,note_off,120,0,0,,4,,,64,127
7625,note_on,1,0,0,,12,,,59,127
7745,note_off,120,0,0,,12,,,59,127
7745,note_off,0,0,0,,7,,,67,127
7746,note_on,1,0,0,,0,,,60,127
7866,note_off,120,0,0,,0,,,60,127
7867,note_on,1,0,0,,7,,,55,127
7987,note_off,120,0,0,,7,,,55,127
7988,note_on,1,0,0,,10,,,69,127
7988,note_on,0,0,0,,10,,,57,127
8108,note_off,120,0,0,,10,,,57,127
8109,note_on,1,0,0,,6,,,54,127
8229,note_off,120,0,0,,6,,,54,127
8229,note_off,0,0,0,,10,,,69,127
8230,note_on,1,0,0,,12,,,71,127
8230,note_on,0,0,0,,7,,,55,127
8350,note_off,120,0,0,,7,,,55,127
8351,note_on,1,0,0,,4,,,52,127
8471,note_off,120,0,0,,4,,,52,127
8471,note_off,0,0,0,,12,,,71,127
8472,note_on,1,0,0,,6,,,66,127
8472,note_on,0,0,0,,12,,,59,127
8592,note_off,120,0,0,,12,,,59,127
8593,note_on,1,0,0,,3,,,51,127
8713,note_off,120,0,0,,3,,,51,127
8713,note_off,0,0,0,,6,,,66,127
8714,note_on,1,0,0,,4,,,52,127
8835,note_on,121,0,0,,7,,,67,127
8955,note_off,120,0,0,,7,,,67,127
8956,note_on,1,0,0,,6,,,66,127
9076,note_off,120,0,0,,6,,,66,127
9077,note_on,1,0,0,,7,,,67,127
9197,note_off,120,0,0,,7,,,67,127
9197,note_off,0,0,0,,4,,,52,127
9198,note_on,1,0,0,,10,,,69,127
9198,note_on,0,0,0,,0,,,60,127
9318,note_off,120,0,0,,10,,,69,127
9319,note_on,1,0,0,,6,,,66,127
9439,note_off,120,0,0,,6,,,66,127
9440,note_on,1,0,0,,7,,,67,127
9560,note_off,120,0,0,,7,,,67,127
9561,note_on,1,0,0,,4,,,64,127
9681,note_off,120,0,0,,4,,,64,127
9681,note_off,0,0,0,,0,,,60,127
9682,note_on,1,0,0,,6,,,66,127
9682,note_on,0,0,0,,10,,,57,127
9802,note_off,120,0,0,,6,,,66,127
9803,note_on,1,0,0,,3,,,63,127
9923,note_off,120,0,0,,3,,,63,127
9924,note_on,1,0,0,,4,,,64,127
10044,note_off,120,0,0,,4,,,64,127
10045,note_on,1,0,0,,1,,,61,127
10161,note_off,116,0,0,,10,,,57,127
10165,note_off,4,0,0,,1,,,61,127
10166,note_on,1,0,0,,3,,,63,127
10287,note_on,121,0,0,,12,,,47,127
10407,note_off,120,0,0,,12,,,47,127
10407,note_off,0,0,0,,3,,,63,127
10408,note_on,1,0,0,,6,,,66,127
10408,note_on,0,0,0,,3,,,51,127
10528,note_off,120,0,0,,3,,,51,127
10529,note_on,1,0,0,,12,,,47,127
10649,note_off,120,0,0,,12,,,47,127
10649,note_off,0,0,0,,6,,,66,127
10650,note_on,1,0,0,,7,,,67,127
10650,note_on,0,0,0,,4,,,52,127
10770,note_off,120,0,0,,4,,,52,127
10771,note_on,1,0,0,,12,,,47,127
10891,note_off,120,0,0,,12,,,47,127
10891,note_off,0,0,0,,7,,,67,127
10892,note_on,1,0,0,,10,,,69,127
10892,note_on,0,0,0,,6,,,54,127
11012,note_off,120,0,0,,6,,,54,127
11013,note_on,1,0,0,,12,,,47,127
11133,note_off,120,0,0,,12,,,47,127
11133,note_off,0,0,0,,10,,,69,127
11134,note_on,1,0,0,,12,,,71,127
11134,note_on,0,0,0,,7,,,55,127
11254,note_off,120,0,0,,7,,,55,127
11255,note_on,1,0,0,,12,,,47,127
11375,note_off,120,0,0,,12,,,47,127
11375,note_off,0,0,0,,12,,,71,127
11376,note_on,1,0,0,,4,,,64,127
11376,note_on,0,0,0,,10,,,57,127
11496,note_off,120,0,0,,10,,,57,127
11497,note_on,1,0,0,,12,,,47,127
11617,note_off,120,0,0,,4,,,64,127
11618,note_on,1,0,0,,3,,,63,127
11738,note_off,120,0,0,,12,,,47,127
11739,note_on,1,0,0,,12,,,59,127
11859,note_off,120,0,0,,12,,,59,127
11859,note_off,0,0,0,,3,,,63,127
11860,note_on,1,0,0,,6,,,66,127
11860,note_on,0,0,0,,3,,,63,127
11980,note_off,120,0,0,,3,,,63,127
11981,note_on,1,0,0,,12,,,59,127
12101,note_off,120,0,0,,12,,,59,127
12101,note_off,0,0,0,,6,,,66,127
12102,note_on,1,0,0,,7,,,67,127
12102,note_on,0,0,0,,4,,,64,127
12222,note_off,120,0,0,,4,,,64,127
12223,note_on,1,0,0,,12,,,59,127
12343,note_off,120,0,0,,12,,,59,127
12343,note_off,0,0,0,,7,,,67,127
12344,note_on,1,0,0,,10,,,69,127
12344,note_on,0,0,0,,6,,,66,127
12464,note_off,120,0,0,,6,,,66,127
12465,note_on,1,0,0,,12,,,59,127
12585,note_off,120,0,0,,12,,,59,127
12585,note_off,0,0,0,,10,,,69,127
12586,note_on,1,0,0,,12,,,71,127
12586,note_on,0,0,0,,7,,,67,127
12706,note_off,120,0,0,,7,,,67,127
12707,note_on,1,0,0,,12,,,59,127
12827,note_off,120,0,0,,12,,,59,127
12827,note_off,0,0,0,,12,,,71,127
12828,note_on,1,0,0,,0,,,72,127
12828,note_on,0,0,0,,10,,,69,127
12948,note_off,120,0,0,,10,,,69,127
12949,note_on,1,0,0,,12,,,59,127
13069,note_off,120,0,0,,12,,,59,127
13069,note_off,0,0,0,,0,,,72,127
13070,note_on,1,0,0,,3,,,75,127
13070,note_on,0,0,0,,12,,,71,127
13190,note_off,120,0,0,,12,,,71,127
13190,note_off,0,0,0,,3,,,75,127
13191,note_on,1,0,0,,12,,,71,127
13312,note_on,121,0,0,,1,,,73,127
13432,note_off,120,0,0,,1,,,73,127
13433,note_on,1,0,0,,3,,,75,127
13553,note_off,120,0,0,,3,,,75,127
13553,note_off,0,0,0,,12,,,71,127
13554,note_on,1,0,0,,4,,,76,127
13554,note_on,0,0,0,,7,,,67,127
13674,note_off,120,0,0,,4,,,76,127
13675,note_on,1,0,0,,12,,,71,127
13795,note_off,120,0,0,,12,,,71,127
13796,note_on,1,0,0,,6,,,78,127
13916,note_off,120,0,0,,6,,,78,127
13917,note_on,1,0,0,,12,,,71,127
14037,note_off,120,0,0,,12,,,71,127
14037,note_off,0,0,0,,7,,,67,127
14038,note_on,1,0,0,,7,,,79,127
14038,note_on,0,0,0,,4,,,64,127
14158,note_off,120,0,0,,7,,,79,127
14159,note_on,1,0,0,,3,,,75,127
14279,note_off,120,0,0,,3,,,75,127
14280,note_on,1,0,0,,1,,,73,127
14400,note_off,120,0,0,,1,,,73,127
14401,note_on,1,0,0,,12,,,71,127
14521,note_off,120,0,0,,12,,,71,127
14521,note_off,0,0,0,,4,,,64,127
14522,note_on,1,0,0,,0,,,72,127
14522,note_on,0,0,0,,10,,,57,127
14642,note_off,120,0,0,,0,,,72,127
14643,note_on,1,0,0,,0,,,72,127
14763,note_off,120,0,0,,0,,,72,127
14764,note_on,1,0,0,,2,,,74,127
14884,note_off,120,0,0,,2,,,74,127
14885,note_on,1,0,0,,4,,,76,127
15005,note_off,120,0,0,,4,,,76,127
15005,note_off,0,0,0,,10,,,57,127
15006,note_on,1,0,0,,6,,,78,127
15006,note_on,0,0,0,,10,,,69,127
15126,note_off,120,0,0,,6,,,78,127
15127,note_on,1,0,0,,0,,,72,127
15247,note_off,120,0,0,,0,,,72,127
15248,note_on,1,0,0,,7,,,79,127
15368,note_off,120,0,0,,7,,,79,127
15369,note_on,1,0,0,,0,,,72,127
15489,note_off,120,0,0,,0,,,72,127
15489,note_off,0,0,0,,10,,,69,127
15490,note_on,1,0,0,,10,,,81,127
15490,note_on,0,0,0,,6,,,66,127
15610,note_off,120,0,0,,10,,,81,127
15611,note_on,1,0,0,,0,,,72,127
15731,note_off,120,0,0,,0,,,72,127
15732,note_on,1,0,0,,12,,,71,127
15852,note_off,120,0,0,,12,,,71,127
15853,note_on,1,0,0,,10,,,69,127
15973,note_off,120,0,0,,10,,,69,127
15973,note_off,0,0,0,,6,,,66,127
15974,note_on,1,0,0,,12,,,71,127
15974,note_on,0,0,0,,7,,,55,127
16094,note_off,120,0,0,,12,,,71,127
16095,note_on,1,0,0,,7,,,67,127
16215,note_off,120,0,0,,7,,,67,127
16216,note_on,1,0,0,,12,,,71,127
16336,note_off,120,0,0,,12,,,71,127
16337,note_on,1,0,0,,2,,,74,127
16457,note_off,120,0,0,,2,,,74,127
16458,note_on,1,0,0,,4,,,76,127
16578,note_off,120,0,0,,7,,,55,127
16579,note_on,1,0,0,,4,,,64,127
16699,note_off,120,0,0,,4,,,64,127
16700,note_on,1,0,0,,0,,,60,127
16820,note_off,120,0,0,,0,,,60,127
16821,note_on,1,0,0,,10,,,57,127
16941,note_off,120,0,0,,10,,,57,127
16942,note_on,1,0,0,,6,,,54,127
17062,note_off,120,0,0,,4,,,76,127
17063,note_on,1,0,0,,2,,,74,127
17183,note_off,120,0,0,,2,,,74,127
17184,note_on,1,0,0,,0,,,72,127
17304,note_off,120,0,0,,0,,,72,127
17305,note_on,1,0,0,,10,,,69,127
17425,note_off,120,0,0,,10,,,69,127
17425,note_off,0,0,0,,6,,,54,127
17426,note_on,1,0,0,,7,,,55,127
17547,note_on,121,0,0,,2,,,62,127
17667,note_off,120,0,0,,2,,,62,127
17668,note_on,1,0,0,,7,,,67,127
17788,note_off,120,0,0,,7,,,67,127
17789,note_on,1,0,0,,12,,,71,127
17909,note_off,120,0,0,,12,,,71,127
17910,note_on,1,0,0,,4,,,76,127
18030,note_off,120,0,0,,7,,,55,127
18031,note_on,1,0,0,,4,,,64,127
18151,note_off,120,0,0,,4,,,64,127
18152,note_on,1,0,0,,0,,,60,127
18272,note_off,120,0,0,,0,,,60,127
18273,note_on,1,0,0,,10,,,57,127
18393,note_off,120,0,0,,10,,,57,127
18394,note_on,1,0,0,,6,,,54,127
18514,note_off,120,0,0,,4,,,76,127
18515,note_on,1,0,0,,2,,,74,127
18635,note_off,120,0,0,,2,,,74,127
18636,note_on,1,0,0,,0,,,72,127
18756,note_off,120,0,0,,0,,,72,127
18757,note_on,1,0,0,,10,,,69,127
18877,note_off,120,0,0,,10,,,69,127
18877,note_off,0,0,0,,6,,,54,127
18878,note_on,1,0,0,,7,,,55,127
18999,note_on,121,0,0,,7,,,67,127
19119,note_off,120,0,0,,7,,,67,127
19120,note_on,1,0,0,,12,,,71,127
19240,note_off,120,0,0,,12,,,71,127
19241,note_on,1,0,0,,2,,,74,127
19361,note_off,120,0,0,,2,,,74,127
19362,note_on,1,0,0,,12,,,83,127
19482,note_off,120,0,0,,7,,,55,127
19483,note_on,1,0,0,,12,,,71,127
19603,note_off,120,0,0,,12,,,71,127
19604,note_on,1,0,0,,7,,,67,127
19724,note_off,120,0,0,,7,,,67,127
19725,note_on,1,0,0,,4,,,64,127
19845,note_off,120,0,0,,4,,,64,127
19846,note_on,1,0,0,,1,,,61,127
19966,note_off,120,0,0,,12,,,83,127
19967,note_on,1,0,0,,10,,,81,127
20087,note_off,120,0,0,,10,,,81,127
20088,note_on,1,0,0,,7,,,79,127
20208,note_off,120,0,0,,7,,,79,127
20209,note_on,1,0,0,,4,,,76,127
20329,note_off,120,0,0,,4,,,76,127
20329,note_off,0,0,0,,1,,,61,127
20330,note_on,1,0,0,,2,,,62,127
20451,note_on,121,0,0,,10,,,69,127
20571,note_off,120,0,0,,10,,,69,127
20572,note_on,1,0,0,,2,,,74,127
20692,note_off,120,0,0,,2,,,74,127
20693,note_on,1,0,0,,6,,,78,127
20813,note_off,120,0,0,,6,,,78,127
20814,note_on,1,0,0,,12,,,83,127
20934,note_off,120,0,0,,2,,,62,127
20935,note_on,1,0,0,,12,,,71,127
21055,note_off,120,0,0,,12,,,71,127
21056,note_on,1,0,0,,7,,,67,127
21176,note_off,120,0,0,,7,,,67,127
21177,note_on,1,0,0,,4,,,64,127
21297,note_off,120,0,0,,4,,,64,127
21298,note_on,1,0,0,,1,,,61,127
21418,note_off,120,0,0,,12,,,83,127
21419,note_on,1,0,0,,10,,,81,127
21539,note_off,120,0,0,,10,,,81,127
21540,note_on,1,0,0,,7,,,79,127
21660,note_off,120,0,0,,7,,,79,127
21661,note_on,1,0,0,,4,,,76,127
21781,note_off,120,0,0,,4,,,76,127
21781,note_off,0,0,0,,1,,,61,127
21782,note_on,1,0,0,,6,,,78,127
21782,note_on,0,0,0,,2,,,62,127
21902,note_off,120,0,0,,6,,,78,127
21903,note_on,1,0,0,,10,,,81,127
22023,note_off,120,0,0,,10,,,81,127
22023,note_off,0,0,0,,2,,,62,127
22024,note_on,1,0,0,,7,,,79,127
22024,note_on,0,0,0,,2,,,62,127
22144,note_off,120,0,0,,7,,,79,127
22145,note_on,1,0,0,,6,,,78,127
22265,note_off,120,0,0,,6,,,78,127
22265,note_off,0,0,0,,2,,,62,127
22266,note_on,1,0,0,,4,,,76,127
22266,note_on,0,0,0,,4,,,64,127
22386,note_off,120,0,0,,4,,,76,127
22387,note_on,1,0,0,,2,,,74,127
22507,note_off,120,0,0,,2,,,74,127
22507,note_off,0,0,0,,4,,,64,127
22508,note_on,1,0,0,,1,,,73,127
22508,note_on,0,0,0,,6,,,66,127
22628,note_off,120,0,0,,1,,,73,127
22629,note_on,1,0,0,,12,,,71,127
22749,note_off,120,0,0,,12,,,71,127
22749,note_off,0,0,0,,6,,,66,127
22750,note_on,1,0,0,,11,,,70,127
22750,note_on,0,0,0,,7,,,67,127
22870,note_off,120,0,0,,11,,,70,127
22871,note_on,1,0,0,,1,,,73,127
22991,note_off,120,0,0,,1,,,73,127
22992,note_on,1,0,0,,12,,,71,127
22992,note_on,0,0,0,,7,,,55,127
23112,note_off,120,0,0,,12,,,71,127
23113,note_on,1,0,0,,2,,,74,127
23229,note_off,116,0,0,,7,,,67,127
23233,note_off,4,0,0,,2,,,74,127
23234,note_on,1,0,0,,11,,,70,127
23234,note_on,0,0,0,,1,,,73,127
23354,note_off,120,0,0,,7,,,55,127
23355,note_on,1,0,0,,6,,,54,127
23475,note_off,120,0,0,,6,,,54,127
23476,note_on,1,0,0,,1,,,61,127
23596,note_off,120,0,0,,1,,,61,127
23597,note_on,1,0,0,,4,,,64,127
23717,note_off,120,0,0,,4,,,64,127
23718,note_on,1,0,0,,7,,,67,127
23838,note_off,120,0,0,,1,,,73,127
23838,note_off,0,0,0,,11,,,70,127
23839,note_on,1,0,0,,2,,,74,127
23959,note_off,120,0,0,,2,,,74,127
23960,note_on,1,0,0,,4,,,76,127
24080,note_off,120,0,0,,4,,,76,127
24081,note_on,1,0,0,,2,,,74,127
24201,note_off,120,0,0,,2,,,74,127
24202,note_on,1,0,0,,1,,,73,127
24322,note_off,120,0,0,,1,,,73,127
24323,note_on,1,0,0,,2,,,74,127
24443,note_off,120,0,0,,2,,,74,127
24443,note_off,0,0,0,,7,,,67,127
24444,note_on,1,0,0,,12,,,71,127
24444,note_on,0,0,0,,6,,,66,127
24564,note_off,120,0,0,,12,,,71,127
24565,note_on,1,0,0,,2,,,74,127
24685,note_off,120,0,0,,2,,,74,127
24685,note_off,0,0,0,,6,,,66,127
24686,note_on,1,0,0,,11,,,70,127
24686,note_on,0,0,0,,1,,,73,127
24807,note_on,121,0,0,,6,,,54,127
24927,note_off,120,0,0,,6,,,54,127
24928,note_on,1,0,0,,1,,,61,127
25048,note_off,120,0,0,,1,,,61,127
25049,note_on,1,0,0,,4,,,64,127
25169,note_off,120,0,0,,4,,,64,127
25170,note_on,1,0,0,,7,,,67,127
25290,note_off,120,0,0,,1,,,73,127
25290,note_off,0,0,0,,11,,,70,127
25291,note_on,1,0,0,,2,,,74,127
25411,note_off,120,0,0,,2,,,74,127
25412,note_on,1,0,0,,4,,,76,127
25532,note_off,120,0,0,,4,,,76,127
25533,note_on,1,0,0,,2,,,74,127
25653,note_off,120,0,0,,2,,,74,127
25654,note_on,1,0,0,,1,,,73,127
25774,note_off,120,0,0,,1,,,73,127
25775,note_on,1,0,0,,2,,,74,127
25895,note_off,120,0,0,,2,,,74,127
25895,note_off,0,0,0,,7,,,67,127
25896,note_on,1,0,0,,12,,,71,127
25896,note_on,0,0,0,,6,,,66,127
26016,note_off,120,0,0,,12,,,71,127
26017,note_on,1,0,0,,2,,,74,127
26137,note_off,120,0,0,,2,,,74,127
26137,note_off,0,0,0,,6,,,66,127
26138,note_on,1,0,0,,11,,,70,127
26138,note_on,0,0,0,,1,,,73,127
26259,note_on,121,0,0,,6,,,54,127
26379,note_off,120,0,0,,6,,,54,127
26380,note_on,1,0,0,,1,,,61,127
26500,note_off,120,0,0,,1,,,61,127
26501,note_on,1,0,0,,4,,,64,127
26621,note_off,120,0,0,,4,,,64,127
26622,note_on,1,0,0,,7,,,67,127
26742,note_off,120,0,0,,1,,,73,127
26742,note_off,0,0,0,,11,,,70,127
26743,note_on,1,0,0,,2,,,74,127
26863,note_off,120,0,0,,2,,,74,127
26864,note_on,1,0,0,,4,,,76,127
26984,note_off,120,0,0,,4,,,76,127
26985,note_on,1,0,0,,2,,,74,127
27105,note_off,120,0,0,,2,,,74,127
27106,note_on,1,0,0,,1,,,73,127
27226,note_off,120,0,0,,1,,,73,127
27227,note_on,1,0,0,,2,,,74,127
27347,note_off,120,0,0,,2,,,74,127
27347,note_off,0,0,0,,7,,,67,127
27348,note_on,1,0,0,,12,,,71,127
27348,note_on,0,0,0,,6,,,66,127
27468,note_off,120,0,0,,12,,,71,127
27469,note_on,1,0,0,,2,,,74,127
27589,note_off,120,0,0,,2,,,74,127
27590,note_on,1,0,0,,1,,,73,127
27701,note_off,111,0,0,,6,,,66,127
27711,note_on,10,0,0,,4,,,64,127
27804,note_off,93,0,0,,1,,,73,127
27831,note_off,27,0,0,,4,,,64,127
27832,note_on,1,0,0,,6,,,78,127
27832,note_on,0,0,0,,2,,,62,127
27952,note_off,120,0,0,,2,,,62,127
27953,note_on,1,0,0,,1,,,61,127
28073,note_off,120,0,0,,1,,,61,127
28074,note_on,1,0,0,,2,,,62,127
28194,note_off,120,0,0,,6,,,78,127
28195,note_on,1,0,0,,4,,,76,127
28315,note_off,120,0,0,,4,,,76,127
28316,note_on,1,0,0,,2,,,74,127
28436,note_off,120,0,0,,2,,,74,127
28437,note_on,1,0,0,,1,,,73,127
28557,note_off,120,0,0,,1,,,73,127
28558,note_on,1,0,0,,2,,,74,127
28679,note_on,121,0,0,,12,,,71,127
28697,note_off,18,0,0,,2,,,74,127
28799,note_off,102,0,0,,12,,,71,127
28799,note_off,0,0,0,,2,,,62,127
28800,note_on,1,0,0,,1,,,73,127
28800,note_on,0,0,0,,1,,,61,127
28921,note_on,121,0,0,,11,,,70,127
28939,note_off,18,0,0,,1,,,73,127
29041,note_off,102,0,0,,11,,,70,127
29041,note_off,0,0,0,,1,,,61,127
29042,note_on,1,0,0,,12,,,71,127
29042,note_on,0,0,0,,2,,,62,127
29163,note_on,121,0,0,,6,,,78,127
29224,note_off,61,0,0,,12,,,71,127
29283,note_off,59,0,0,,6,,,78,127
29284,note_on,1,0,0,,12,,,83,127
29404,note_off,120,0,0,,12,,,83,127
29405,note_on,1,0,0,,6,,,78,127
29525,note_off,120,0,0,,6,,,78,127
29525,note_off,0,0,0,,2,,,62,127
29526,note_on,1,0,0,,7,,,79,127
29526,note_on,0,0,0,,4,,,64,127
29646,note_off,120,0,0,,7,,,79,127
29647,note_on,1,0,0,,4,,,76,127
29767,note_off,120,0,0,,4,,,76,127
29767,note_off,0,0,0,,4,,,64,127
29768,note_on,1,0,0,,6,,,78,127
29768,note_on,0,0,0,,6,,,66,127
29888,note_off,120,0,0,,6,,,78,127
29889,note_on,1,0,0,,2,,,74,127
30009,note_off,120,0,0,,2,,,74,127
30009,note_off,0,0,0,,6,,,66,127
30010,note_on,1,0,0,,4,,,76,127
30010,note_on,0,0,0,,7,,,67,127
30130,note_off,120,0,0,,4,,,76,127
30131,note_on,1,0,0,,1,,,73,127
30251,note_off,120,0,0,,1,,,73,127
30252,note_on,1,0,0,,2,,,74,127
30372,note_off,120,0,0,,2,,,74,127
30373,note_on,1,0,0,,12,,,71,127
30489,note_off,116,0,0,,7,,,67,127
30493,note_off,4,0,0,,12,,,71,127
30494,note_on,1,0,0,,1,,,73,127
30494,note_on,0,0,0,,11,,,70,127
30615,note_on,121,0,0,,6,,,54,127
30735,note_off,120,0,0,,6,,,54,127
30736,note_on,1,0,0,,1,,,61,127
30856,note_off,120,0,0,,1,,,61,127
30857,note_on,1,0,0,,4,,,64,127
30977,note_off,120,0,0,,4,,,64,127
30978,note_on,1,0,0,,7,,,67,127
31098,note_off,120,0,0,,11,,,70,127
31098,note_off,0,0,0,,1,,,73,127
31099,note_on,1,0,0,,2,,,74,127
31219,note_off,120,0,0,,2,,,74,127
31220,note_on,1,0,0,,4,,,76,127
31340,note_off,120,0,0,,4,,,76,127
31341,note_on,1,0,0,,2,,,74,127
31461,note_off,120,0,0,,2,,,74,127
31462,note_on,1,0,0,,1,,,73,127
31582,note_off,120,0,0,,1,,,73,127
31583,note_on,1,0,0,,2,,,74,127
31703,note_off,120,0,0,,2,,,74,127
31703,note_off,0,0,0,,7,,,67,127
31704,note_on,1,0,0,,12,,,71,127
31704,note_on,0,0,0,,6,,,66,127
31824,note_off,120,0,0,,12,,,71,127
31825,note_on,1,0,0,,2,,,74,127
31945,note_off,120,0,0,,2,,,74,127
31945,note_off,0,0,0,,6,,,66,127
31946,note_on,1,0,0,,1,,,73,127
31946,note_on,0,0,0,,11,,,70,127
32067,note_on,121,0,0,,6,,,54,127
32187,note_off,120,0,0,,6,,,54,127
32188,note_on,1,0,0,,1,,,61,127
32308,note_off,120,0,0,,1,,,61,127
32309,note_on,1,0,0,,4,,,64,127
32429,note_off,120,0,0,,4,,,64,127
32430,note_on,1,0,0,,7,,,67,127
32550,note_off,120,0,0,,11,,,70,127
32550,note_off,0,0,0,,1,,,73,127
32551,note_on,1,0,0,,2,,,74,127
32671,note_off,120,0,0,,2,,,74,127
32672,note_on,1,0,0,,4,,,76,127
32792,note_off,120,0,0,,4,,,76,127
32793,note_on,1,0,0,,2,,,74,127
32913,note_off,120,0,0,,2,,,74,127
32914,note_on,1,0,0,,1,,,73,127
33034,note_off,120,0,0,,1,,,73,127
33035,note_on,1,0,0,,2,,,74,127
33155,note_off,120,0,0,,2,,,74,127
33155,note_off,0,0,0,,7,,,67,127
33156,note_on,1,0,0,,12,,,71,127
33156,note_on,0,0,0,,6,,,66,127
33276,note_off,120,0,0,,12,,,71,127
33277,note_on,1,0,0,,2,,,74,127
33397,note_off,120,0,0,,2,,,74,127
33397,note_off,0,0,0,,6,,,66,127
33398,note_on,1,0,0,,11,,,70,127
33398,note_on,0,0,0,,1,,,73,127
33519,note_on,121,0,0,,6,,,54,127
33639,note_off,120,0,0,,6,,,54,127
33640,note_on,1,0,0,,1,,,61,127
33760,note_off,120,0,0,,1,,,61,127
33761,note_on,1,0,0,,4,,,64,127
33881,note_off,120,0,0,,4,,,64,127
33882,note_on,1,0,0,,7,,,67,127
34002,note_off,120,0,0,,1,,,73,127
34002,note_off,0,0,0,,11,,,70,127
34003,note_on,1,0,0,,2,,,74,127
34123,note_off,120,0,0,,2,,,74,127
34124,note_on,1,0,0,,4,,,76,127
34244,note_off,120,0,0,,4,,,76,127
34245,note_on,1,0,0,,2,,,74,127
34365,note_off,120,0,0,,2,,,74,127
34366,note_on,1,0,0,,1,,,73,127
34486,note_off,120,0,0,,1,,,73,127
34487,note_on,1,0,0,,2,,,74,127
34607,note_off,120,0,0,,2,,,74,127
34607,note_off,0,0,0,,7,,,67,127
34608,note_on,1,0,0,,12,,,71,127
34608,note_on,0,0,0,,6,,,66,127
34728,note_off,120,0,0,,12,,,71,127
34729,note_on,1,0,0,,2,,,74,127
34849,note_off,120,0,0,,2,,,74,127
34850,note_on,1,0,0,,1,,,73,127
34970,note_off,120,0,0,,6,,,66,127
34971,note_on,1,0,0,,4,,,64,127
35064,note_off,93,0,0,,1,,,73,127
35091,note_off,27,0,0,,4,,,64,127
35092,note_on,1,0,0,,6,,,78,127
35092,note_on,0,0,0,,2,,,62,127
35212,note_off,120,0,0,,2,,,62,127
35213,note_on,1,0,0,,1,,,61,127
35333,note_off,120,0,0,,1,,,61,127
35334,note_on,1,0,0,,2,,,62,127
35454,note_off,120,0,0,,6,,,78,127
35455,note_on,1,0,0,,4,,,76,127
35575,note_off,120,0,0,,4,,,76,127
35576,note_on,1,0,0,,2,,,74,127
35696,note_off,120,0,0,,2,,,74,127
35697,note_on,1,0,0,,1,,,73,127
35817,note_off,120,0,0,,1,,,73,127
35818,note_on,1,0,0,,2,,,74,127
35939,note_on,121,0,0,,12,,,71,127
35969,note_off,30,0,0,,2,,,74,127
36059,note_off,90,0,0,,12,,,71,127
36059,note_off,0,0,0,,2,,,62,127
36060,note_on,1,0,0,,1,,,73,127
36060,note_on,0,0,0,,1,,,61,127
36181,note_on,121,0,0,,11,,,70,127
36211,note_off,30,0,0,,1,,,73,127
36301,note_off,90,0,0,,11,,,70,127
36301,note_off,0,0,0,,1,,,61,127
36302,note_on,1,0,0,,12,,,71,127
36302,note_on,0,0,0,,2,,,62,127
36423,note_on,121,0,0,,6,,,78,127
36543,note_off,120,0,0,,6,,,78,127
36544,note_on,1,0,0,,12,,,83,127
36664,note_off,120,0,0,,12,,,83,127
36665,note_off,1,0,0,,12,,,71,127
36665,note_on,0,0,0,,6,,,78,127
36785,note_off,120,0,0,,6,,,78,127
36785,note_off,0,0,0,,2,,,62,127
36786,note_on,1,0,0,,7,,,79,127
36786,note_on,0,0,0,,4,,,64,127
36906,note_off,120,0,0,,7,,,79,127
36907,note_on,1,0,0,,4,,,76,127
37027,note_off,120,0,0,,4,,,76,127
37028,note_on,1,0,0,,6,,,78,127
37148,note_off,120,0,0,,6,,,78,127
37149,note_on,1,0,0,,1,,,73,127
37269,note_off,120,0,0,,1,,,73,127
37269,note_off,0,0,0,,4,,,64,127
37270,note_on,1,0,0,,2,,,74,127
37270,note_on,0,0,0,,6,,,66,127
37390,note_off,120,0,0,,2,,,74,127
37391,note_on,1,0,0,,12,,,71,127
37511,note_off,120,0,0,,12,,,71,127
37512,note_on,1,0,0,,6,,,78,127
37632,note_off,120,0,0,,6,,,78,127
37633,note_on,1,0,0,,11,,,70,127
37753,note_off,120,0,0,,11,,,70,127
37753,note_off,0,0,0,,6,,,66,127
37754,note_on,1,0,0,,12,,,71,127
37754,note_on,0,0,0,,12,,,47,127
37754,note_on,0,0,0,,12,,,59,127
37874,note_off,120,0,0,,12,,,71,127
37875,note_on,1,0,0,,6,,,66,127
37995,note_off,120,0,0,,6,,,66,127
37996,note_on,1,0,0,,7,,,67,127
38116,note_off,120,0,0,,7,,,67,127
38117,note_on,1,0,0,,6,,,66,127
38237,note_off,120,0,0,,6,,,66,127
38237,note_off,0,0,0,,12,,,59,127
38237,note_off,0,0,0,,12,,,47,127
38238,note_on,1,0,0,,7,,,67,127
38238,note_on,0,0,0,,12,,,59,127
38238,note_on,0,0,0,,4,,,52,127
38238,note_on,0,0,0,,7,,,55,127
38358,note_off,120,0,0,,7,,,67,127
38359,note_on,1,0,0,,4,,,64,127
38479,note_off,120,0,0,,4,,,64,127
38480,note_on,1,0,0,,6,,,66,127
38600,note_off,120,0,0,,6,,,66,127
38601,note_on,1,0,0,,1,,,61,127
38721,note_off,120,0,0,,1,,,61,127
38721,note_off,0,0,0,,7,,,55,127
38721,note_off,0,0,0,,4,,,52,127
38721,note_off,0,0,0,,12,,,59,127
38722,note_on,1,0,0,,2,,,62,127
38722,note_on,0,0,0,,6,,,54,127
38722,note_on,0,0,0,,6,,,42,127
38842,note_off,120,0,0,,2,,,62,127
38843,note_on,1,0,0,,12,,,59,127
38963,note_off,120,0,0,,12,,,59,127
38964,note_on,1,0,0,,6,,,66,127
39084,note_off,120,0,0,,6,,,66,127
39085,note_on,1,0,0,,11,,,58,127
39205,note_off,120,0,0,,11,,,58,127
39205,note_off,0,0,0,,6,,,42,127
39205,note_off,0,0,0,,6,,,54,127
39206,note_on,1,0,0,,11,,,58,127
39206,note_on,0,0,0,,12,,,47,127
39447,note_off,241,0,0,,11,,,58,127
39448,note_on,1,0,0,,12,,,59,127
39915,note_off,467,0,0,,12,,,59,127
39931,note_off,16,0,0,,12,,,47,127
39932,note_on,1,0,0,,0,,,60,127
40173,note_off,241,0,0,,0,,,60,127
40174,note_on,1,0,0,,12,,,59,127
40294,note_off,120,0,0,,12,,,59,127
40295,note_on,1,0,0,,10,,,57,127
40415,note_off,120,0,0,,10,,,57,127
40416,note_on,1,0,0,,7,,,55,127
40536,note_off,120,0,0,,7,,,55,127
40537,note_on,1,0,0,,6,,,54,127
40657,note_off,120,0,0,,6,,,54,127
40658,note_on,1,0,0,,12,,,47,127
40779,note_on,121,0,0,,12,,,83,127
40899,note_off,120,0,0,,12,,,83,127
40900,note_on,1,0,0,,6,,,78,127
41020,note_off,120,0,0,,6,,,78,127
41021,note_on,1,0,0,,12,,,83,127
41141,note_off,120,0,0,,12,,,83,127
41142,note_on,1,0,0,,3,,,75,127
41262,note_off,120,0,0,,3,,,75,127
41263,note_on,1,0,0,,6,,,78,127
41383,note_off,120,0,0,,6,,,78,127
41384,note_on,1,0,0,,12,,,71,127
41504,note_off,120,0,0,,12,,,71,127
41505,note_on,1,0,0,,3,,,75,127
41625,note_off,120,0,0,,3,,,75,127
41626,note_on,1,0,0,,6,,,66,127
41746,note_off,120,0,0,,6,,,66,127
41747,note_on,1,0,0,,12,,,71,127
41867,note_off,120,0,0,,12,,,71,127
41868,note_on,1,0,0,,3,,,63,127
41988,note_off,120,0,0,,3,,,63,127
41989,note_on,1,0,0,,6,,,66,127
42110,note_on,121,0,0,,12,,,59,127
42230,note_off,120,0,0,,6,,,66,127
42231,note_on,1,0,0,,12,,,71,127
42351,note_off,120,0,0,,12,,,71,127
42352,note_on,1,0,0,,6,,,66,127
42472,note_off,120,0,0,,6,,,66,127
42473,note_on,1,0,0,,12,,,71,127
42593,note_off,120,0,0,,12,,,71,127
42594,note_on,1,0,0,,3,,,63,127
42714,note_off,120,0,0,,3,,,63,127
42715,note_on,1,0,0,,6,,,66,127
42835,note_off,120,0,0,,6,,,66,127
42835,note_off,0,0,0,,12,,,59,127
42836,note_on,1,0,0,,12,,,59,127
42956,note_off,120,0,0,,12,,,59,127
42957,note_on,1,0,0,,3,,,63,127
43077,note_off,120,0,0,,3,,,63,127
43078,note_on,1,0,0,,6,,,54,127
43198,note_off,120,0,0,,6,,,54,127
43199,note_on,1,0,0,,12,,,59,127
43319,note_off,120,0,0,,12,,,59,127
43320,note_on,1,0,0,,3,,,51,127
43440,note_off,120,0,0,,3,,,51,127
43441,note_on,1,0,0,,6,,,54,127
43557,note_off,116,0,0,,12,,,47,127
43561,note_off,4,0,0,,6,,,54,127
43562,note_on,1,0,0,,12,,,47,127
43683,note_on,121,0,0,,12,,,71,127
43803,note_off,120,0,0,,12,,,71,127
43804,note_on,1,0,0,,1,,,73,127
43924,note_off,120,0,0,,1,,,73,127
43925,note_on,1,0,0,,12,,,71,127
44045,note_off,120,0,0,,12,,,71,127
44046,note_on,1,0,0,,3,,,75,127
44166,note_off,120,0,0,,3,,,75,127
44167,note_on,1,0,0,,12,,,71,127
44287,note_off,120,0,0,,12,,,71,127
44287,note_off,0,0,0,,12,,,47,127
44288,note_on,1,0,0,,6,,,78,127
44288,note_on,0,0,0,,10,,,69,127
44288,note_on,0,0,0,,12,,,59,127
44408,note_off,120,0,0,,6,,,78,127
44409,note_on,1,0,0,,12,,,71,127
44529,note_off,120,0,0,,12,,,71,127
44529,note_off,0,0,0,,10,,,69,127
44530,note_on,1,0,0,,4,,,76,127
44530,note_on,0,0,0,,7,,,67,127
44650,note_off,120,0,0,,4,,,76,127
44651,note_on,1,0,0,,12,,,71,127
44771,note_off,120,0,0,,12,,,71,127
44771,note_off,0,0,0,,7,,,67,127
44772,note_on,1,0,0,,3,,,75,127
44772,note_on,0,0,0,,6,,,66,127
44892,note_off,120,0,0,,3,,,75,127
44893,note_on,1,0,0,,12,,,71,127
45013,note_off,120,0,0,,12,,,71,127
45013,note_off,0,0,0,,6,,,66,127
45014,note_on,1,0,0,,7,,,79,127
45014,note_on,0,0,0,,4,,,64,127
45134,note_off,120,0,0,,7,,,79,127
45135,note_on,1,0,0,,12,,,71,127
45255,note_off,120,0,0,,12,,,71,127
45255,note_off,0,0,0,,4,,,64,127
45256,note_on,1,0,0,,6,,,78,127
45256,note_on,0,0,0,,10,,,69,127
45376,note_off,120,0,0,,6,,,78,127
45377,note_on,1,0,0,,12,,,71,127
45497,note_off,120,0,0,,12,,,71,127
45497,note_off,0,0,0,,10,,,69,127
45498,note_on,1,0,0,,4,,,76,127
45498,note_on,0,0,0,,7,,,67,127
45618,note_off,120,0,0,,4,,,76,127
45619,note_on,1,0,0,,12,,,71,127
45739,note_off,120,0,0,,12,,,71,127
45739,note_off,0,0,0,,7,,,67,127
45740,note_on,1,0,0,,3,,,75,127
45740,note_on,0,0,0,,6,,,66,127
45860,note_off,120,0,0,,3,,,75,127
45861,note_on,1,0,0,,12,,,71,127
45981,note_off,120,0,0,,12,,,71,127
45981,note_off,0,0,0,,6,,,66,127
45982,note_on,1,0,0,,7,,,79,127
45982,note_on,0,0,0,,4,,,64,127
46102,note_off,120,0,0,,7,,,79,127
46103,note_on,1,0,0,,12,,,71,127
46223,note_off,120,0,0,,12,,,71,127
46223,note_off,0,0,0,,4,,,64,127
46224,note_on,1,0,0,,6,,,78,127
46224,note_on,0,0,0,,10,,,69,127
46344,note_off,120,0,0,,6,,,78,127
46345,note_on,1,0,0,,12,,,71,127
46465,note_off,120,0,0,,12,,,71,127
46465,note_off,0,0,0,,10,,,69,127
46466,note_on,1,0,0,,4,,,76,127
46466,note_on,0,0,0,,7,,,67,127
46586,note_off,120,0,0,,4,,,76,127
46587,note_on,1,0,0,,12,,,71,127
46707,note_off,120,0,0,,12,,,71,127
46707,note_off,0,0,0,,7,,,67,127
46708,note_on,1,0,0,,3,,,75,127
46708,note_on,0,0,0,,6,,,66,127
46828,note_off,120,0,0,,3,,,75,127
46829,note_on,1,0,0,,12,,,71,127
46949,note_off,120,0,0,,12,,,71,127
46949,note_off,0,0,0,,6,,,66,127
46950,note_on,1,0,0,,7,,,79,127
46950,note_on,0,0,0,,4,,,64,127
47070,note_off,120,0,0,,7,,,79,127
47071,note_on,1,0,0,,12,,,71,127
47191,note_off,120,0,0,,12,,,71,127
47191,note_off,0,0,0,,4,,,64,127
47192,note_on,1,0,0,,6,,,78,127
47192,note_on,0,0,0,,10,,,69,127
47312,note_off,120,0,0,,6,,,78,127
47313,note_on,1,0,0,,12,,,71,127
47433,note_off,120,0,0,,12,,,71,127
47433,note_off,0,0,0,,10,,,69,127
47434,note_on,1,0,0,,4,,,76,127
47434,note_on,0,0,0,,7,,,67,127
47554,note_off,120,0,0,,4,,,76,127
47555,note_on,1,0,0,,12,,,71,127
47675,note_off,120,0,0,,12,,,71,127
47675,note_off,0,0,0,,7,,,67,127
47676,note_on,1,0,0,,3,,,75,127
47676,note_on,0,0,0,,6,,,66,127
47796,note_off,120,0,0,,3,,,75,127
47797,note_on,1,0,0,,12,,,71,127
47917,note_off,120,0,0,,12,,,71,127
47917,note_off,0,0,0,,6,,,66,127
47917,note_off,0,0,0,,12,,,59,127
47918,note_on,1,0,0,,0,,,84,127
47918,note_on,0,0,0,,4,,,64,127
48038,note_off,120,0,0,,0,,,84,127
48039,note_on,1,0,0,,4,,,76,127
48159,note_off,120,0,0,,4,,,76,127
48160,note_on,1,0,0,,12,,,83,127
48160,note_on,0,0,0,,2,,,74,127
48280,note_off,120,0,0,,12,,,83,127
48281,note_on,1,0,0,,4,,,76,127
48401,note_off,120,0,0,,4,,,76,127
48401,note_off,0,0,0,,2,,,74,127
48402,note_on,1,0,0,,10,,,81,127
48402,note_on,0,0,0,,0,,,72,127
48522,note_off,120,0,0,,10,,,81,127
48523,note_on,1,0,0,,4,,,76,127
48643,note_off,120,0,0,,4,,,76,127
48643,note_off,0,0,0,,0,,,72,127
48644,note_on,1,0,0,,8,,,80,127
48644,note_on,0,0,0,,12,,,71,127
48764,note_off,120,0,0,,8,,,80,127
48765,note_on,1,0,0,,4,,,76,127
48885,note_off,120,0,0,,4,,,76,127
48885,note_off,0,0,0,,12,,,71,127
48886,note_on,1,0,0,,0,,,84,127
48886,note_on,0,0,0,,10,,,69,127
49006,note_off,120,0,0,,0,,,84,127
49007,note_on,1,0,0,,4,,,76,127
49127,note_off,120,0,0,,4,,,76,127
49127,note_off,0,0,0,,10,,,69,127
49128,note_on,1,0,0,,12,,,83,127
49128,note_on,0,0,0,,2,,,74,127
49248,note_off,120,0,0,,12,,,83,127
49249,note_on,1,0,0,,4,,,76,127
49369,note_off,120,0,0,,4,,,76,127
49369,note_off,0,0,0,,2,,,74,127
49370,note_on,1,0,0,,10,,,81,127
49370,note_on,0,0,0,,0,,,72,127
49490,note_off,120,0,0,,10,,,81,127
49491,note_on,1,0,0,,4,,,76,127
49611,note_off,120,0,0,,4,,,76,127
49611,note_off,0,0,0,,0,,,72,127
49612,note_on,1,0,0,,8,,,80,127
49612,note_on,0,0,0,,12,,,71,127
49732,note_off,120,0,0,,8,,,80,127
49733,note_on,1,0,0,,4,,,76,127
49853,note_off,120,0,0,,4,,,76,127
49853,note_off,0,0,0,,12,,,71,127
49854,note_on,1,0,0,,0,,,84,127
49854,note_on,0,0,0,,10,,,69,127
49974,note_off,120,0,0,,0,,,84,127
49975,note_on,1,0,0,,4,,,76,127
50095,note_off,120,0,0,,4,,,76,127
50095,note_off,0,0,0,,10,,,69,127
50096,note_on,1,0,0,,12,,,83,127
50096,note_on,0,0,0,,2,,,74,127
50216,note_off,120,0,0,,12,,,83,127
50217,note_on,1,0,0,,4,,,76,127
50337,note_off,120,0,0,,4,,,76,127
50337,note_off,0,0,0,,2,,,74,127
50338,note_on,1,0,0,,10,,,81,127
50338,note_on,0,0,0,,0,,,72,127
50458,note_off,120,0,0,,10,,,81,127
50459,note_on,1,0,0,,4,,,76,127
50579,note_off,120,0,0,,4,,,76,127
50579,note_off,0,0,0,,0,,,72,127
50580,note_on,1,0,0,,8,,,80,127
50580,note_on,0,0,0,,12,,,71,127
50700,note_off,120,0,0,,8,,,80,127
50701,note_on,1,0,0,,4,,,76,127
50821,note_off,120,0,0,,4,,,76,127
50821,note_off,0,0,0,,12,,,71,127
50821,note_off,0,0,0,,4,,,64,127
50822,note_on,1,0,0,,10,,,81,127
50822,note_on,0,0,0,,10,,,69,127
50942,note_off,120,0,0,,10,,,69,127
50943,note_on,1,0,0,,0,,,72,127
51063,note_off,120,0,0,,0,,,72,127
51064,note_on,1,0,0,,5,,,65,127
51184,note_off,120,0,0,,5,,,65,127
51185,note_on,1,0,0,,10,,,69,127
51305,note_off,120,0,0,,10,,,69,127
51306,note_on,1,0,0,,2,,,62,127
51426,note_off,120,0,0,,2,,,62,127
51427,note_on,1,0,0,,5,,,65,127
51478,note_off,51,0,0,,10,,,81,127
51547,note_off,69,0,0,,5,,,65,127
51548,note_on,1,0,0,,5,,,77,127
51548,note_on,0,0,0,,12,,,59,127
51668,note_off,120,0,0,,12,,,59,127
51669,note_on,1,0,0,,2,,,62,127
51789,note_off,120,0,0,,2,,,62,127
51789,note_off,0,0,0,,5,,,77,127
51790,note_on,1,0,0,,4,,,76,127
51790,note_on,0,0,0,,8,,,56,127
51910,note_off,120,0,0,,8,,,56,127
51911,note_on,1,0,0,,12,,,59,127
52031,note_off,120,0,0,,12,,,59,127
52031,note_off,0,0,0,,4,,,76,127
52032,note_on,1,0,0,,2,,,74,127
52032,note_on,0,0,0,,10,,,57,127
52152,note_off,120,0,0,,10,,,57,127
52153,note_on,1,0,0,,8,,,56,127
52273,note_off,120,0,0,,8,,,56,127
52273,note_off,0,0,0,,2,,,74,127
52274,note_on,1,0,0,,4,,,76,127
52274,note_on,0,0,0,,0,,,60,127
52394,note_off,120,0,0,,0,,,60,127
52395,note_on,1,0,0,,4,,,64,127
52515,note_off,120,0,0,,4,,,64,127
52516,note_on,1,0,0,,10,,,57,127
52636,note_off,120,0,0,,10,,,57,127
52637,note_on,1,0,0,,0,,,60,127
52757,note_off,120,0,0,,0,,,60,127
52758,note_on,1,0,0,,5,,,53,127
52878,note_off,120,0,0,,5,,,53,127
52879,note_on,1,0,0,,10,,,57,127
52955,note_off,76,0,0,,4,,,76,127
52999,note_off,44,0,0,,10,,,57,127
53000,note_on,1,0,0,,0,,,72,127
53000,note_on,0,0,0,,2,,,50,127
53120,note_off,120,0,0,,2,,,50,127
53121,note_on,1,0,0,,5,,,53,127
53241,note_off,120,0,0,,5,,,53,127
53241,note_off,0,0,0,,0,,,72,127
53242,note_on,1,0,0,,12,,,71,127
53242,note_on,0,0,0,,12,,,47,127
53362,note_off,120,0,0,,12,,,47,127
53363,note_on,1,0,0,,2,,,50,127
53483,note_off,120,0,0,,2,,,50,127
53483,note_off,0,0,0,,12,,,71,127
53484,note_on,1,0,0,,10,,,69,127
53484,note_on,0,0,0,,0,,,48,127
53604,note_off,120,0,0,,0,,,48,127
53605,note_on,1,0,0,,12,,,47,127
53725,note_off,120,0,0,,12,,,47,127
53725,note_off,0,0,0,,10,,,69,127
53726,note_on,1,0,0,,8,,,68,127
53726,note_on,0,0,0,,4,,,40,127
53847,note_on,121,0,0,,5,,,65,127
53877,note_off,30,0,0,,8,,,68,127
53967,note_off,90,0,0,,5,,,65,127
53968,note_on,1,0,0,,8,,,68,127
54088,note_off,120,0,0,,8,,,68,127
54089,note_on,1,0,0,,12,,,71,127
54209,note_off,120,0,0,,12,,,71,127
54209,note_off,0,0,0,,4,,,40,127
54210,note_on,1,0,0,,5,,,77,127
54331,note_on,121,0,0,,5,,,65,127
54451,note_off,120,0,0,,5,,,65,127
54452,note_on,1,0,0,,2,,,62,127
54572,note_off,120,0,0,,2,,,62,127
54573,note_on,1,0,0,,12,,,59,127
54693,note_off,120,0,0,,12,,,59,127
54694,note_on,1,0,0,,8,,,56,127
54814,note_off,120,0,0,,5,,,77,127
54815,note_on,1,0,0,,4,,,76,127
54935,note_off,120,0,0,,4,,,76,127
54936,note_on,1,0,0,,2,,,74,127
55056,note_off,120,0,0,,2,,,74,127
55057,note_on,1,0,0,,12,,,71,127
55177,note_off,120,0,0,,12,,,71,127
55177,note_off,0,0,0,,8,,,56,127
55178,note_on,1,0,0,,10,,,57,127
55299,note_on,121,0,0,,5,,,65,127
55419,note_off,120,0,0,,5,,,65,127
55420,note_on,1,0,0,,8,,,68,127
55540,note_off,120,0,0,,8,,,68,127
55541,note_on,1,0,0,,12,,,71,127
55661,note_off,120,0,0,,12,,,71,127
55661,note_off,0,0,0,,10,,,57,127
55662,note_on,1,0,0,,5,,,77,127
55783,note_on,121,0,0,,5,,,65,127
55903,note_off,120,0,0,,5,,,65,127
55904,note_on,1,0,0,,2,,,62,127
56024,note_off,120,0,0,,2,,,62,127
56025,note_on,1,0,0,,12,,,59,127
56145,note_off,120,0,0,,12,,,59,127
56146,note_on,1,0,0,,8,,,56,127
56266,note_off,120,0,0,,5,,,77,127
56267,note_on,1,0,0,,4,,,76,127
56387,note_off,120,0,0,,4,,,76,127
56388,note_on,1,0,0,,2,,,74,127
56508,note_off,120,0,0,,2,,,74,127
56509,note_on,1,0,0,,12,,,71,127
56629,note_off,120,0,0,,12,,,71,127
56629,note_off,0,0,0,,8,,,56,127
56630,note_on,1,0,0,,10,,,57,127
56751,note_on,121,0,0,,0,,,72,127
56871,note_off,120,0,0,,0,,,72,127
56872,note_on,1,0,0,,3,,,75,127
56992,note_off,120,0,0,,3,,,75,127
56993,note_on,1,0,0,,6,,,78,127
57113,note_off,120,0,0,,6,,,78,127
57113,note_off,0,0,0,,10,,,57,127
57114,note_on,1,0,0,,0,,,84,127
57235,note_on,121,0,0,,0,,,72,127
57355,note_off,120,0,0,,0,,,72,127
57356,note_on,1,0,0,,10,,,69,127
57476,note_off,120,0,0,,10,,,69,127
57477,note_on,1,0,0,,6,,,66,127
57597,note_off,120,0,0,,6,,,66,127
57598,note_on,1,0,0,,3,,,63,127
57718,note_off,120,0,0,,0,,,84,127
57719,note_on,1,0,0,,12,,,83,127
57839,note_off,120,0,0,,12,,,83,127
57840,note_on,1,0,0,,10,,,81,127
57960,note_off,120,0,0,,10,,,81,127
57961,note_on,1,0,0,,6,,,78,127
58081,note_off,120,0,0,,6,,,78,127
58081,note_off,0,0,0,,3,,,63,127
58082,note_on,1,0,0,,4,,,64,127
58203,note_on,121,0,0,,0,,,72,127
58323,note_off,120,0,0,,0,,,72,127
58324,note_on,1,0,0,,3,,,75,127
58444,note_off,120,0,0,,3,,,75,127
58445,note_on,1,0,0,,6,,,78,127
58565,note_off,120,0,0,,6,,,78,127
58565,note_off,0,0,0,,4,,,64,127
58566,note_on,1,0,0,,0,,,84,127
58687,note_on,121,0,0,,0,,,72,127
58807,note_off,120,0,0,,0,,,72,127
58808,note_on,1,0,0,,10,,,69,127
58928,note_off,120,0,0,,10,,,69,127
58929,note_on,1,0,0,,6,,,66,127
59049,note_off,120,0,0,,6,,,66,127
59050,note_on,1,0,0,,3,,,63,127
59170,note_off,120,0,0,,0,,,84,127
59171,note_on,1,0,0,,12,,,83,127
59291,note_off,120,0,0,,12,,,83,127
59292,note_on,1,0,0,,10,,,81,127
59412,note_off,120,0,0,,10,,,81,127
59413,note_on,1,0,0,,6,,,78,127
59533,note_off,120,0,0,,6,,,78,127
59533,note_off,0,0,0,,3,,,63,127
59534,note_on,1,0,0,,7,,,79,127
59534,note_on,0,0,0,,4,,,64,127
59654,note_off,120,0,0,,7,,,79,127
59655,note_on,1,0,0,,4,,,76,127
59775,note_off,120,0,0,,4,,,76,127
59775,note_off,0,0,0,,4,,,64,127
59776,note_on,1,0,0,,10,,,81,127
59776,note_on,0,0,0,,6,,,66,127
59896,note_off,120,0,0,,10,,,81,127
59897,note_on,1,0,0,,6,,,78,127
60017,note_off,120,0,0,,6,,,78,127
60017,note_off,0,0,0,,6,,,66,127
60018,note_on,1,0,0,,12,,,83,127
60018,note_on,0,0,0,,7,,,67,127
60138,note_off,120,0,0,,12,,,83,127
60139,note_on,1,0,0,,7,,,79,127
60259,note_off,120,0,0,,7,,,79,127
60259,note_off,0,0,0,,7,,,67,127
60260,note_on,1,0,0,,6,,,78,127
60260,note_on,0,0,0,,10,,,69,127
60380,note_off,120,0,0,,6,,,78,127
60381,note_on,1,0,0,,4,,,76,127
60501,note_off,120,0,0,,4,,,76,127
60501,note_off,0,0,0,,10,,,69,127
60502,note_on,1,0,0,,3,,,75,127
60502,note_on,0,0,0,,12,,,71,127
60622,note_off,120,0,0,,3,,,75,127
60623,note_on,1,0,0,,6,,,78,127
60743,note_off,120,0,0,,6,,,78,127
60743,note_off,0,0,0,,12,,,71,127
60744,note_on,1,0,0,,4,,,76,127
60744,note_on,0,0,0,,0,,,72,127
60864,note_off,120,0,0,,4,,,76,127
60865,note_on,1,0,0,,7,,,79,127
60985,note_off,120,0,0,,7,,,79,127
60985,note_off,0,0,0,,0,,,72,127
60986,note_on,1,0,0,,6,,,78,127
61107,note_on,121,0,0,,12,,,59,127
61227,note_off,120,0,0,,12,,,59,127
61228,note_on,1,0,0,,6,,,66,127
61348,note_off,120,0,0,,6,,,66,127
61349,note_on,1,0,0,,10,,,69,127
61469,note_off,120,0,0,,10,,,69,127
61470,note_on,1,0,0,,0,,,72,127
61590,note_off,120,0,0,,6,,,78,127
61591,note_on,1,0,0,,7,,,79,127
61711,note_off,120,0,0,,7,,,79,127
61712,note_on,1,0,0,,10,,,81,127
61832,note_off,120,0,0,,10,,,81,127
61833,note_on,1,0,0,,7,,,79,127
61953,note_off,120,0,0,,7,,,79,127
61954,note_on,1,0,0,,6,,,78,127
62074,note_off,120,0,0,,6,,,78,127
62075,note_on,1,0,0,,7,,,79,127
62195,note_off,120,0,0,,7,,,79,127
62195,note_off,0,0,0,,0,,,72,127
62196,note_on,1,0,0,,4,,,76,127
62196,note_on,0,0,0,,12,,,71,127
62316,note_off,120,0,0,,4,,,76,127
62317,note_on,1,0,0,,7,,,79,127
62437,note_off,120,0,0,,7,,,79,127
62437,note_off,0,0,0,,12,,,71,127
62438,note_on,1,0,0,,3,,,75,127
62438,note_on,0,0,0,,6,,,78,127
62559,note_on,121,0,0,,12,,,59,127
62679,note_off,120,0,0,,12,,,59,127
62680,note_on,1,0,0,,6,,,66,127
62800,note_off,120,0,0,,6,,,66,127
62801,note_on,1,0,0,,10,,,69,127
62921,note_off,120,0,0,,10,,,69,127
62922,note_on,1,0,0,,0,,,72,127
63042,note_off,120,0,0,,6,,,78,127
63042,note_off,0,0,0,,3,,,75,127
63043,note_on,1,0,0,,7,,,79,127
63163,note_off,120,0,0,,7,,,79,127
63164,note_on,1,0,0,,10,,,81,127
63284,note_off,120,0,0,,10,,,81,127
63285,note_on,1,0,0,,7,,,79,127
63405,note_off,120,0,0,,7,,,79,127
63406,note_on,1,0,0,,6,,,78,127
63526,note_off,120,0,0,,6,,,78,127
63527,note_on,1,0,0,,7,,,79,127
63647,note_off,120,0,0,,7,,,79,127
63647,note_off,0,0,0,,0,,,72,127
63648,note_on,1,0,0,,4,,,76,127
63648,note_on,0,0,0,,12,,,71,127
63768,note_off,120,0,0,,4,,,76,127
63769,note_on,1,0,0,,7,,,79,127
63889,note_off,120,0,0,,7,,,79,127
63889,note_off,0,0,0,,12,,,71,127
63890,note_on,1,0,0,,3,,,75,127
63890,note_on,0,0,0,,6,,,78,127
64011,note_on,121,0,0,,12,,,59,127
64131,note_off,120,0,0,,12,,,59,127
64132,note_on,1,0,0,,6,,,66,127
64252,note_off,120,0,0,,6,,,66,127
64253,note_on,1,0,0,,10,,,69,127
64373,note_off,120,0,0,,10,,,69,127
64374,note_on,1,0,0,,0,,,72,127
64494,note_off,120,0,0,,6,,,78,127
64494,note_off,0,0,0,,3,,,75,127
64495,note_on,1,0,0,,7,,,79,127
64615,note_off,120,0,0,,7,,,79,127
64616,note_on,1,0,0,,10,,,81,127
64736,note_off,120,0,0,,10,,,81,127
64737,note_on,1,0,0,,7,,,79,127
64857,note_off,120,0,0,,7,,,79,127
64858,note_on,1,0,0,,6,,,78,127
64978,note_off,120,0,0,,6,,,78,127
64979,note_on,1,0,0,,7,,,79,127
65099,note_off,120,0,0,,7,,,79,127
65099,note_off,0,0,0,,0,,,72,127
65100,note_on,1,0,0,,4,,,76,127
65100,note_on,0,0,0,,12,,,71,127
65220,note_off,120,0,0,,4,,,76,127
65221,note_on,1,0,0,,7,,,79,127
65341,note_off,120,0,0,,7,,,79,127
65342,note_on,1,0,0,,6,,,78,127
65462,note_off,120,0,0,,12,,,71,127
65463,note_on,1,0,0,,10,,,69,127
65583,note_off,120,0,0,,10,,,69,127
65583,note_off,0,0,0,,6,,,78,127
65584,note_on,1,0,0,,12,,,83,127
65584,note_on,0,0,0,,7,,,67,127
65704,note_off,120,0,0,,7,,,67,127
65705,note_on,1,0,0,,6,,,66,127
65825,note_off,120,0,0,,6,,,66,127
65826,note_on,1,0,0,,7,,,67,127
65946,note_off,120,0,0,,12,,,83,127
65947,note_on,1,0,0,,10,,,81,127
66067,note_off,120,0,0,,10,,,81,127
66068,note_on,1,0,0,,7,,,79,127
66188,note_off,120,0,0,,7,,,79,127
66189,note_on,1,0,0,,6,,,78,127
66309,note_off,120,0,0,,6,,,78,127
66310,note_on,1,0,0,,7,,,79,127
66430,note_off,120,0,0,,7,,,79,127
66431,note_on,1,0,0,,4,,,76,127
66551,note_off,120,0,0,,4,,,76,127
66551,note_off,0,0,0,,7,,,67,127
66552,note_on,1,0,0,,6,,,78,127
66552,note_on,0,0,0,,6,,,66,127
66672,note_off,120,0,0,,6,,,78,127
66673,note_on,1,0,0,,3,,,75,127
66793,note_off,120,0,0,,3,,,75,127
66793,note_off,0,0,0,,6,,,66,127
66794,note_on,1,0,0,,4,,,76,127
66794,note_on,0,0,0,,7,,,67,127
66794,note_on,0,0,0,,7,,,55,127
66914,note_off,120,0,0,,4,,,76,127
66915,note_on,1,0,0,,12,,,71,127
67035,note_off,120,0,0,,12,,,71,127
67036,note_on,1,0,0,,0,,,72,127
67156,note_off,120,0,0,,0,,,72,127
67157,note_on,1,0,0,,10,,,69,127
67277,note_off,120,0,0,,10,,,69,127
67277,note_off,0,0,0,,7,,,55,127
67277,note_off,0,0,0,,7,,,67,127
67278,note_on,1,0,0,,12,,,71,127
67278,note_on,0,0,0,,10,,,57,127
67398,note_off,120,0,0,,12,,,71,127
67399,note_on,1,0,0,,6,,,66,127
67519,note_off,120,0,0,,6,,,66,127
67519,note_off,0,0,0,,10,,,57,127
67520,note_on,1,0,0,,7,,,67,127
67520,note_on,0,0,0,,12,,,59,127
67640,note_off,120,0,0,,7,,,67,127
67641,note_on,1,0,0,,4,,,64,127
67761,note_off,120,0,0,,4,,,64,127
67761,note_off,0,0,0,,12,,,59,127
67762,note_on,1,0,0,,3,,,63,127
67762,note_on,0,0,0,,0,,,60,127
67882,note_off,120,0,0,,3,,,63,127
67883,note_on,1,0,0,,6,,,66,127
68003,note_off,120,0,0,,6,,,66,127
68004,note_on,1,0,0,,4,,,64,127
68124,note_off,120,0,0,,4,,,64,127
68125,note_on,1,0,0,,7,,,67,127
68245,note_off,120,0,0,,7,,,67,127
68245,note_off,0,0,0,,0,,,60,127
68246,note_on,1,0,0,,3,,,63,127
68246,note_on,0,0,0,,6,,,66,127
68367,note_on,121,0,0,,12,,,47,127
68487,note_off,120,0,0,,12,,,47,127
68488,note_on,1,0,0,,6,,,54,127
68608,note_off,120,0,0,,6,,,54,127
68609,note_on,1,0,0,,10,,,57,127
68729,note_off,120,0,0,,10,,,57,127
68730,note_on,1,0,0,,0,,,60,127
68850,note_off,120,0,0,,6,,,66,127
68850,note_off,0,0,0,,3,,,63,127
68851,note_on,1,0,0,,7,,,67,127
68971,note_off,120,0,0,,7,,,67,127
68972,note_on,1,0,0,,10,,,69,127
69092,note_off,120,0,0,,10,,,69,127
69093,note_on,1,0,0,,7,,,67,127
69213,note_off,120,0,0,,7,,,67,127
69214,note_on,1,0,0,,6,,,66,127
69334,note_off,120,0,0,,6,,,66,127
69335,note_on,1,0,0,,7,,,67,127
69455,note_off,120,0,0,,7,,,67,127
69455,note_off,0,0,0,,0,,,60,127
69456,note_on,1,0,0,,4,,,64,127
69456,note_on,0,0,0,,12,,,59,127
69576,note_off,120,0,0,,4,,,64,127
69577,note_on,1,0,0,,7,,,67,127
69697,note_off,120,0,0,,7,,,67,127
69697,note_off,0,0,0,,12,,,59,127
69698,note_on,1,0,0,,6,,,66,127
69698,note_on,0,0,0,,3,,,63,127
69819,note_on,121,0,0,,12,,,47,127
69939,note_off,120,0,0,,12,,,47,127
69940,note_on,1,0,0,,6,,,54,127
70060,note_off,120,0,0,,6,,,54,127
70061,note_on,1,0,0,,10,,,57,127
70181,note_off,120,0,0,,10,,,57,127
70182,note_on,1,0,0,,0,,,60,127
70302,note_off,120,0,0,,3,,,63,127
70302,note_off,0,0,0,,6,,,66,127
70303,note_on,1,0,0,,7,,,67,127
70423,note_off,120,0,0,,7,,,67,127
70424,note_on,1,0,0,,10,,,69,127
70544,note_off,120,0,0,,10,,,69,127
70545,note_on,1,0,0,,7,,,67,127
70665,note_off,120,0,0,,7,,,67,127
70666,note_on,1,0,0,,6,,,66,127
70786,note_off,120,0,0,,6,,,66,127
70787,note_on,1,0,0,,7,,,67,127
70907,note_off,120,0,0,,7,,,67,127
70907,note_off,0,0,0,,0,,,60,127
70908,note_on,1,0,0,,4,,,64,127
70908,note_on,0,0,0,,12,,,59,127
71028,note_off,120,0,0,,4,,,64,127
71029,note_on,1,0,0,,7,,,67,127
71149,note_off,120,0,0,,7,,,67,127
71149,note_off,0,0,0,,12,,,59,127
71150,note_on,1,0,0,,3,,,63,127
71150,note_on,0,0,0,,6,,,66,127
71271,note_on,121,0,0,,12,,,47,127
71391,note_off,120,0,0,,12,,,47,127
71392,note_on,1,0,0,,6,,,54,127
71512,note_off,120,0,0,,6,,,54,127
71513,note_on,1,0,0,,10,,,57,127
71633,note_off,120,0,0,,10,,,57,127
71634,note_on,1,0,0,,0,,,60,127
71754,note_off,120,0,0,,6,,,66,127
71754,note_off,0,0,0,,3,,,63,127
71755,note_on,1,0,0,,7,,,67,127
71875,note_off,120,0,0,,7,,,67,127
71876,note_on,1,0,0,,10,,,69,127
71996,note_off,120,0,0,,10,,,69,127
71997,note_on,1,0,0,,7,,,67,127
72117,note_off,120,0,0,,7,,,67,127
72118,note_on,1,0,0,,6,,,66,127
72238,note_off,120,0,0,,6,,,66,127
72239,note_on,1,0,0,,7,,,67,127
72359,note_off,120,0,0,,7,,,67,127
72359,note_off,0,0,0,,0,,,60,127
72360,note_on,1,0,0,,4,,,64,127
72360,note_on,0,0,0,,12,,,59,127
72480,note_off,120,0,0,,4,,,64,127
72481,note_on,1,0,0,,7,,,67,127
72601,note_off,120,0,0,,7,,,67,127
72602,note_on,1,0,0,,6,,,66,127
72722,note_off,120,0,0,,12,,,59,127
72723,note_on,1,0,0,,10,,,57,127
72843,note_off,120,0,0,,10,,,57,127
72843,note_off,0,0,0,,6,,,66,127
72844,note_on,1,0,0,,12,,,71,127
72844,note_on,0,0,0,,7,,,55,127
72964,note_off,120,0,0,,7,,,55,127
72965,note_on,1,0,0,,6,,,54,127
73085,note_off,120,0,0,,6,,,54,127
73086,note_on,1,0,0,,7,,,55,127
73206,note_off,120,0,0,,12,,,71,127
73207,note_on,1,0,0,,10,,,69,127
73327,note_off,120,0,0,,10,,,69,127
73328,note_on,1,0,0,,7,,,67,127
73448,note_off,120,0,0,,7,,,67,127
73449,note_on,1,0,0,,6,,,66,127
73569,note_off,120,0,0,,6,,,66,127
73570,note_on,1,0,0,,7,,,67,127
73690,note_off,120,0,0,,7,,,67,127
73691,note_on,1,0,0,,4,,,64,127
73811,note_off,120,0,0,,4,,,64,127
73811,note_off,0,0,0,,7,,,55,127
73812,note_on,1,0,0,,6,,,66,127
73812,note_on,0,0,0,,6,,,54,127
73932,note_off,120,0,0,,6,,,66,127
73933,note_on,1,0,0,,3,,,63,127
74053,note_off,120,0,0,,3,,,63,127
74053,note_off,0,0,0,,6,,,54,127
74054,note_on,1,0,0,,4,,,64,127
74054,note_on,0,0,0,,7,,,55,127
74174,note_off,120,0,0,,4,,,64,127
74175,note_on,1,0,0,,12,,,71,127
74295,note_off,120,0,0,,12,,,71,127
74296,note_on,1,0,0,,4,,,76,127
74416,note_off,120,0,0,,4,,,76,127
74417,note_on,1,0,0,,12,,,71,127
74537,note_off,120,0,0,,12,,,71,127
74537,note_off,0,0,0,,7,,,55,127
74538,note_on,1,0,0,,0,,,72,127
74538,note_on,0,0,0,,10,,,57,127
74658,note_off,120,0,0,,0,,,72,127
74659,note_on,1,0,0,,10,,,69,127
74779,note_off,120,0,0,,10,,,69,127
74780,note_on,1,0,0,,10,,,81,127
74900,note_off,120,0,0,,10,,,81,127
74901,note_on,1,0,0,,6,,,78,127
75021,note_off,120,0,0,,6,,,78,127
75021,note_off,0,0,0,,10,,,57,127
75022,note_on,1,0,0,,7,,,79,127
75022,note_on,0,0,0,,12,,,59,127
75142,note_off,120,0,0,,7,,,79,127
75143,note_on,1,0,0,,4,,,76,127
75263,note_off,120,0,0,,4,,,76,127
75264,note_on,1,0,0,,12,,,83,127
75384,note_off,120,0,0,,12,,,83,127
75385,note_on,1,0,0,,3,,,75,127
75505,note_off,120,0,0,,3,,,75,127
75505,note_off,0,0,0,,12,,,59,127
75506,note_on,1,0,0,,4,,,76,127
75506,note_on,0,0,0,,12,,,59,127
75506,note_on,0,0,0,,7,,,55,127
75506,note_on,0,0,0,,4,,,52,127
75626,note_off,120,0,0,,4,,,76,127
75627,note_on,1,0,0,,12,,,71,127
75747,note_off,120,0,0,,12,,,71,127
75748,note_on,1,0,0,,4,,,76,127
75868,note_off,120,0,0,,4,,,76,127
75869,note_on,1,0,0,,12,,,71,127
75989,note_off,120,0,0,,12,,,71,127
75989,note_off,0,0,0,,4,,,52,127
75989,note_off,0,0,0,,7,,,55,127
75989,note_off,0,0,0,,12,,,59,127
75990,note_on,1,0,0,,0,,,72,127
75990,note_on,0,0,0,,10,,,57,127
75990,note_on,0,0,0,,4,,,52,127
75990,note_on,0,0,0,,10,,,45,127
76110,note_off,120,0,0,,0,,,72,127
76111,note_on,1,0,0,,10,,,69,127
76231,note_off,120,0,0,,10,,,69,127
76232,note_on,1,0,0,,12,,,71,127
76352,note_off,120,0,0,,12,,,71,127
76353,note_on,1,0,0,,6,,,66,127
76473,note_off,120,0,0,,6,,,66,127
76473,note_off,0,0,0,,10,,,45,127
76473,note_off,0,0,0,,4,,,52,127
76473,note_off,0,0,0,,10,,,57,127
76474,note_on,1,0,0,,7,,,67,127
76474,note_on,0,0,0,,10,,,57,127
76474,note_on,0,0,0,,6,,,54,127
76474,note_on,0,0,0,,12,,,47,127
76594,note_off,120,0,0,,7,,,67,127
76595,note_on,1,0,0,,4,,,64,127
76715,note_off,120,0,0,,4,,,64,127
76716,note_on,1,0,0,,12,,,71,127
76836,note_off,120,0,0,,12,,,71,127
76837,note_on,1,0,0,,3,,,63,127
76957,note_off,120,0,0,,3,,,63,127
76957,note_off,0,0,0,,12,,,47,127
76957,note_off,0,0,0,,6,,,54,127
76957,note_off,0,0,0,,10,,,57,127
76958,note_on,1,0,0,,4,,,64,127
76958,note_on,0,0,0,,4,,,52,127
76958,note_on,0,0,0,,4,,,40,127
77078,note_off,120,0,0,,4,,,64,127
77079,note_on,1,0,0,,12,,,59,127
77199,note_off,120,0,0,,12,,,59,127
77200,note_on,1,0,0,,4,,,64,127
77320,note_off,120,0,0,,4,,,64,127
77321,note_on,1,0,0,,12,,,59,127
77441,note_off,120,0,0,,12,,,59,127
77441,note_off,0,0,0,,4,,,40,127
77441,note_off,0,0,0,,4,,,52,127
77442,note_on,1,0,0,,0,,,60,127
77442,note_on,0,0,0,,10,,,45,127
77442,note_on,0,0,0,,0,,,48,127
77442,note_on,0,0,0,,4,,,52,127
77562,note_off,120,0,0,,0,,,60,127
77563,note_on,1,0,0,,10,,,57,127
77683,note_off,120,0,0,,10,,,57,127
77684,note_on,1,0,0,,12,,,59,127
77804,note_off,120,0,0,,12,,,59,127
77805,note_on,1,0,0,,6,,,54,127
77925,note_off,120,0,0,,6,,,54,127
77925,note_off,0,0,0,,4,,,52,127
77925,note_off,0,0,0,,0,,,48,127
77925,note_off,0,0,0,,10,,,45,127
77926,note_on,1,0,0,,7,,,55,127
77926,note_on,0,0,0,,12,,,47,127
77926,note_on,0,0,0,,12,,,35,127
77926,note_on,0,0,0,,6,,,42,127
78046,note_off,120,0,0,,7,,,55,127
78047,note_on,1,0,0,,4,,,52,127
78167,note_off,120,0,0,,4,,,52,127
78168,note_on,1,0,0,,12,,,59,127
78288,note_off,120,0,0,,12,,,59,127
78289,note_on,1,0,0,,3,,,51,127
78409,note_off,120,0,0,,3,,,51,127
78409,note_off,0,0,0,,6,,,42,127
78409,note_off,0,0,0,,12,,,35,127
78409,note_off,0,0,0,,12,,,47,127
78410,note_on,1,0,0,,3,,,51,127
78410,note_on,0,0,0,,4,,,40,127
78894,note_off,484,0,0,,3,,,51,127
78895,note_on,1,0,0,,4,,,52,127
80956,note_off,2061,0,0,,4,,,52,127
80956,note_off,0,0,0,,4,,,40,127
86016,end_of_track,5060,1,0,,,,,,
