tick,type,time,meta,track,program,channel,pitch,tempo,note,velocity
0,copyright,0,1,0,,,,,,
0,program_change,0,0,0,6,0,,,,
0,pitchwheel,0,0,0,,0,0,,,
0,program_change,0,0,0,6,1,,,,
0,pitchwheel,0,0,0,,1,-590,,,
0,program_change,0,0,0,6,2,,,,
0,pitchwheel,0,0,0,,2,-272,,,
0,program_change,0,0,0,6,3,,,,
0,pitchwheel,0,0,0,,3,-353,,,
0,program_change,0,0,0,6,4,,,,
0,pitchwheel,0,0,0,,4,-560,,,
0,program_change,0,0,0,6,5,,,,
0,pitchwheel,0,0,0,,5,-80,,,
0,program_change,0,0,0,6,6,,,,
0,pitchwheel,0,0,0,,6,-625,,,
0,program_change,0,0,0,6,7,,,,
0,pitchwheel,0,0,0,,7,-130,,,
0,program_change,0,0,0,6,8,,,,
0,pitchwheel,0,0,0,,8,-512,,,
0,program_change,0,0,0,6,10,,,,
0,pitchwheel,0,0,0,,10,-464,,,
0,program_change,0,0,0,6,11,,,,
0,pitchwheel,0,0,0,,11,-208,,,
0,program_change,0,0,0,6,12,,,,
0,pitchwheel,0,0,0,,12,-553,,,
0,set_tempo,0,1,0,,,,500000,,
79,note_on,79,0,0,,0,,,48,127
238,note_on,159,0,0,,4,,,52,127
244,note_off,6,0,0,,0,,,48,127
395,note_off,151,0,0,,4,,,52,127
397,note_on,2,0,0,,7,,,55,127
554,note_off,157,0,0,,7,,,55,127
556,note_on,2,0,0,,0,,,60,127
713,note_off,157,0,0,,0,,,60,127
715,note_on,2,0,0,,4,,,64,127
872,note_off,157,0,0,,4,,,64,127
874,note_on,2,0,0,,2,,,62,127
1026,note_off,152,0,0,,2,,,62,127
1033,note_on,7,0,0,,2,,,62,127
1111,note_off,78,0,0,,2,,,62,127
1113,note_on,2,0,0,,0,,,60,127
1191,note_off,78,0,0,,0,,,60,127
1193,note_on,2,0,0,,12,,,59,127
1350,note_off,157,0,0,,12,,,59,127
1352,note_on,2,0,0,,0,,,60,127
1509,note_off,157,0,0,,0,,,60,127
1511,note_on,2,0,0,,2,,,62,127
1670,note_on,159,0,0,,7,,,55,127
1743,note_off,73,0,0,,2,,,62,127
1827,note_off,84,0,0,,7,,,55,127
1829,note_on,2,0,0,,5,,,53,127
1986,note_off,157,0,0,,5,,,53,127
1988,note_on,2,0,0,,4,,,52,127
1988,note_on,0,0,0,,0,,,60,127
2145,note_off,157,0,0,,0,,,60,127
2147,note_on,2,0,0,,4,,,64,127
2304,note_off,157,0,0,,4,,,64,127
2306,note_on,2,0,0,,7,,,67,127
2463,note_off,157,0,0,,7,,,67,127
2465,note_on,2,0,0,,0,,,72,127
2622,note_off,157,0,0,,0,,,72,127
2623,note_off,1,0,0,,4,,,52,127
2624,note_on,1,0,0,,4,,,76,127
2781,note_off,157,0,0,,4,,,76,127
2783,note_on,2,0,0,,2,,,74,127
2940,note_off,157,0,0,,2,,,74,127
2942,note_on,2,0,0,,0,,,60,127
2942,note_on,0,0,0,,10,,,57,127
2942,note_on,0,0,0,,2,,,74,127
3020,note_off,78,0,0,,2,,,74,127
3022,note_on,2,0,0,,0,,,72,127
3100,note_off,78,0,0,,0,,,72,127
3102,note_on,2,0,0,,12,,,71,127
3259,note_off,157,0,0,,12,,,71,127
3261,note_on,2,0,0,,0,,,72,127
3418,note_off,157,0,0,,0,,,72,127
3418,note_off,0,0,0,,10,,,57,127
3418,note_off,0,0,0,,0,,,60,127
3420,note_on,2,0,0,,12,,,59,127
3420,note_on,0,0,0,,2,,,62,127
3420,note_on,0,0,0,,2,,,74,127
3579,note_on,159,0,0,,7,,,67,127
3619,note_off,40,0,0,,2,,,74,127
3737,note_off,118,0,0,,7,,,67,127
3739,note_on,2,0,0,,5,,,65,127
3896,note_off,157,0,0,,5,,,65,127
3896,note_off,0,0,0,,2,,,62,127
3896,note_off,0,0,0,,12,,,59,127
3898,note_on,2,0,0,,0,,,48,127
3898,note_on,0,0,0,,5,,,65,127
3951,note_on,53,0,0,,4,,,64,127
3976,note_off,25,0,0,,5,,,65,127
4004,note_on,28,0,0,,5,,,65,127
4029,note_off,25,0,0,,4,,,64,127
4055,note_off,26,0,0,,0,,,48,127
4057,note_on,2,0,0,,4,,,52,127
4057,note_on,0,0,0,,4,,,64,127
4082,note_off,25,0,0,,5,,,65,127
4214,note_off,132,0,0,,4,,,52,127
4216,note_on,2,0,0,,7,,,55,127
4373,note_off,157,0,0,,7,,,55,127
4375,note_on,2,0,0,,0,,,60,127
4453,note_off,78,0,0,,4,,,64,127
4534,note_on,81,0,0,,0,,,72,127
4691,note_off,157,0,0,,0,,,72,127
4693,note_on,2,0,0,,4,,,76,127
4850,note_off,157,0,0,,4,,,76,127
4850,note_off,0,0,0,,0,,,60,127
4852,note_on,2,0,0,,2,,,62,127
4852,note_on,0,0,0,,5,,,65,127
4852,note_on,0,0,0,,4,,,76,127
5009,note_off,157,0,0,,4,,,76,127
5011,note_on,2,0,0,,2,,,74,127
5168,note_off,157,0,0,,2,,,74,127
5170,note_on,2,0,0,,12,,,71,127
5327,note_off,157,0,0,,5,,,65,127
5327,note_off,0,0,0,,2,,,62,127
5329,note_on,2,0,0,,2,,,62,127
5329,note_on,0,0,0,,5,,,65,127
5408,note_off,79,0,0,,12,,,71,127
5487,note_on,79,0,0,,2,,,74,127
5644,note_off,157,0,0,,2,,,74,127
5646,note_on,2,0,0,,5,,,77,127
5803,note_off,157,0,0,,5,,,77,127
5803,note_off,0,0,0,,5,,,65,127
5803,note_off,0,0,0,,2,,,62,127
5805,note_on,2,0,0,,7,,,67,127
5805,note_on,0,0,0,,4,,,64,127
5805,note_on,0,0,0,,5,,,77,127
5962,note_off,157,0,0,,5,,,77,127
5964,note_on,2,0,0,,4,,,76,127
6121,note_off,157,0,0,,4,,,76,127
6123,note_on,2,0,0,,0,,,72,127
6280,note_off,157,0,0,,4,,,64,127
6280,note_off,0,0,0,,7,,,67,127
6282,note_on,2,0,0,,7,,,67,127
6282,note_on,0,0,0,,4,,,64,127
6361,note_off,79,0,0,,0,,,72,127
6440,note_on,79,0,0,,4,,,76,127
6597,note_off,157,0,0,,4,,,76,127
6599,note_on,2,0,0,,7,,,79,127
6756,note_off,157,0,0,,7,,,79,127
6756,note_off,0,0,0,,4,,,64,127
6756,note_off,0,0,0,,7,,,67,127
6758,note_on,2,0,0,,5,,,65,127
6758,note_on,0,0,0,,10,,,69,127
6758,note_on,0,0,0,,7,,,79,127
6915,note_off,157,0,0,,7,,,79,127
6917,note_on,2,0,0,,5,,,77,127
7074,note_off,157,0,0,,5,,,77,127
7076,note_on,2,0,0,,2,,,74,127
7233,note_off,157,0,0,,10,,,69,127
7233,note_off,0,0,0,,5,,,65,127
7235,note_on,2,0,0,,10,,,69,127
7235,note_on,0,0,0,,5,,,65,127
7392,note_off,157,0,0,,2,,,74,127
7394,note_on,2,0,0,,10,,,81,127
7551,note_off,157,0,0,,10,,,81,127
7553,note_on,2,0,0,,0,,,72,127
7710,note_off,157,0,0,,0,,,72,127
7710,note_off,0,0,0,,5,,,65,127
7710,note_off,0,0,0,,10,,,69,127
7712,note_on,2,0,0,,5,,,65,127
7712,note_on,0,0,0,,7,,,67,127
7712,note_on,0,0,0,,2,,,74,127
7790,note_off,78,0,0,,2,,,74,127
7792,note_on,2,0,0,,0,,,72,127
7870,note_off,78,0,0,,0,,,72,127
7872,note_on,2,0,0,,12,,,71,127
8029,note_off,157,0,0,,12,,,71,127
8031,note_on,2,0,0,,2,,,74,127
8188,note_off,157,0,0,,2,,,74,127
8188,note_off,0,0,0,,7,,,67,127
8188,note_off,0,0,0,,5,,,65,127
8190,note_on,2,0,0,,4,,,64,127
8190,note_on,0,0,0,,7,,,67,127
8190,note_on,0,0,0,,4,,,76,127
8268,note_off,78,0,0,,4,,,76,127
8270,note_on,2,0,0,,2,,,74,127
8348,note_off,78,0,0,,2,,,74,127
8350,note_on,2,0,0,,0,,,72,127
8507,note_off,157,0,0,,0,,,72,127
8509,note_on,2,0,0,,4,,,76,127
8666,note_off,157,0,0,,4,,,76,127
8666,note_off,0,0,0,,7,,,67,127
8666,note_off,0,0,0,,4,,,64,127
8668,note_on,2,0,0,,7,,,67,127
8668,note_on,0,0,0,,12,,,59,127
8668,note_on,0,0,0,,5,,,77,127
8746,note_off,78,0,0,,5,,,77,127
8748,note_on,2,0,0,,4,,,76,127
8826,note_off,78,0,0,,4,,,76,127
8828,note_on,2,0,0,,2,,,74,127
8985,note_off,157,0,0,,2,,,74,127
8987,note_on,2,0,0,,5,,,77,127
9144,note_off,157,0,0,,5,,,77,127
9144,note_off,0,0,0,,12,,,59,127
9144,note_off,0,0,0,,7,,,67,127
9146,note_on,2,0,0,,0,,,60,127
9146,note_on,0,0,0,,7,,,67,127
9146,note_on,0,0,0,,7,,,79,127
9224,note_off,78,0,0,,7,,,79,127
9226,note_on,2,0,0,,5,,,77,127
9304,note_off,78,0,0,,5,,,77,127
9306,note_on,2,0,0,,4,,,76,127
9463,note_off,157,0,0,,4,,,76,127
9465,note_on,2,0,0,,7,,,79,127
9622,note_off,157,0,0,,7,,,79,127
9622,note_off,0,0,0,,7,,,67,127
9622,note_off,0,0,0,,0,,,60,127
9624,note_on,2,0,0,,7,,,55,127
9624,note_on,0,0,0,,4,,,76,127
9677,note_on,53,0,0,,2,,,74,127
9702,note_off,25,0,0,,4,,,76,127
9730,note_on,28,0,0,,4,,,76,127
9755,note_off,25,0,0,,2,,,74,127
9783,note_on,28,0,0,,12,,,59,127
9783,note_on,0,0,0,,2,,,74,127
9808,note_off,25,0,0,,4,,,76,127
9940,note_off,132,0,0,,12,,,59,127
9942,note_on,2,0,0,,2,,,62,127
10099,note_off,157,0,0,,2,,,62,127
10100,note_off,1,0,0,,7,,,55,127
10101,note_on,1,0,0,,7,,,67,127
10179,note_off,78,0,0,,2,,,74,127
10270,note_on,91,0,0,,7,,,79,127
10427,note_off,157,0,0,,7,,,79,127
10432,note_on,5,0,0,,12,,,71,127
10576,note_off,144,0,0,,7,,,67,127
10589,note_off,13,0,0,,12,,,71,127
10591,note_on,2,0,0,,12,,,71,127
10591,note_on,0,0,0,,2,,,50,127
10750,note_on,159,0,0,,7,,,55,127
10907,note_off,157,0,0,,7,,,55,127
10907,note_off,0,0,0,,12,,,71,127
10909,note_on,2,0,0,,0,,,72,127
10909,note_on,0,0,0,,10,,,57,127
11066,note_off,157,0,0,,10,,,57,127
11068,note_on,2,0,0,,0,,,60,127
11147,note_off,79,0,0,,0,,,72,127
11226,note_off,79,0,0,,2,,,50,127
11227,note_on,1,0,0,,10,,,81,127
11384,note_off,157,0,0,,10,,,81,127
11386,note_on,2,0,0,,10,,,69,127
11543,note_off,157,0,0,,10,,,69,127
11543,note_off,0,0,0,,0,,,60,127
11545,note_on,2,0,0,,10,,,69,127
11545,note_on,0,0,0,,7,,,55,127
11704,note_on,159,0,0,,0,,,60,127
11861,note_off,157,0,0,,0,,,60,127
11861,note_off,0,0,0,,10,,,69,127
11863,note_on,2,0,0,,12,,,71,127
11863,note_on,0,0,0,,2,,,62,127
12020,note_off,157,0,0,,2,,,62,127
12022,note_on,2,0,0,,7,,,67,127
12101,note_off,79,0,0,,12,,,71,127
12180,note_off,79,0,0,,7,,,55,127
12181,note_on,1,0,0,,7,,,79,127
12338,note_off,157,0,0,,7,,,79,127
12340,note_on,2,0,0,,12,,,71,127
12497,note_off,157,0,0,,12,,,71,127
12497,note_off,0,0,0,,7,,,67,127
12499,note_on,2,0,0,,12,,,71,127
12499,note_on,0,0,0,,2,,,50,127
12658,note_on,159,0,0,,7,,,55,127
12815,note_off,157,0,0,,7,,,55,127
12815,note_off,0,0,0,,12,,,71,127
12817,note_on,2,0,0,,0,,,72,127
12817,note_on,0,0,0,,10,,,57,127
12974,note_off,157,0,0,,10,,,57,127
12976,note_on,2,0,0,,0,,,60,127
13055,note_off,79,0,0,,0,,,72,127
13134,note_off,79,0,0,,2,,,50,127
13135,note_on,1,0,0,,10,,,81,127
13292,note_off,157,0,0,,10,,,81,127
13294,note_on,2,0,0,,10,,,69,127
13451,note_off,157,0,0,,10,,,69,127
13451,note_off,0,0,0,,0,,,60,127
13453,note_on,2,0,0,,10,,,69,127
13453,note_on,0,0,0,,7,,,55,127
13612,note_on,159,0,0,,0,,,60,127
13769,note_off,157,0,0,,0,,,60,127
13769,note_off,0,0,0,,10,,,69,127
13771,note_on,2,0,0,,12,,,71,127
13771,note_on,0,0,0,,2,,,62,127
13928,note_off,157,0,0,,2,,,62,127
13929,note_off,1,0,0,,7,,,55,127
13930,note_on,1,0,0,,7,,,67,127
14052,note_off,122,0,0,,12,,,71,127
14102,note_on,50,0,0,,12,,,83,127
14259,note_off,157,0,0,,12,,,83,127
14261,note_on,2,0,0,,7,,,79,127
14406,note_off,145,0,0,,7,,,67,127
14418,note_off,12,0,0,,7,,,79,127
14420,note_on,2,0,0,,10,,,81,127
14498,note_off,78,0,0,,10,,,81,127
14500,note_on,2,0,0,,7,,,79,127
14578,note_off,78,0,0,,7,,,79,127
14580,note_on,2,0,0,,6,,,78,127
14737,note_off,157,0,0,,6,,,78,127
14739,note_on,2,0,0,,4,,,76,127
14896,note_off,157,0,0,,4,,,76,127
14898,note_on,2,0,0,,0,,,60,127
14898,note_on,0,0,0,,10,,,69,127
14898,note_on,0,0,0,,6,,,78,127
14976,note_off,78,0,0,,6,,,78,127
14978,note_on,2,0,0,,4,,,76,127
15056,note_off,78,0,0,,4,,,76,127
15058,note_on,2,0,0,,3,,,75,127
15215,note_off,157,0,0,,3,,,75,127
15217,note_on,2,0,0,,4,,,76,127
15374,note_off,157,0,0,,4,,,76,127
15374,note_off,0,0,0,,0,,,60,127
15376,note_on,2,0,0,,12,,,59,127
15376,note_on,0,0,0,,0,,,72,127
15429,note_on,53,0,0,,12,,,71,127
15454,note_off,25,0,0,,0,,,72,127
15482,note_on,28,0,0,,0,,,72,127
15507,note_off,25,0,0,,12,,,71,127
15534,note_off,27,0,0,,10,,,69,127
15535,note_on,1,0,0,,7,,,67,127
15535,note_on,0,0,0,,12,,,71,127
15560,note_off,25,0,0,,0,,,72,127
15692,note_off,132,0,0,,7,,,67,127
15694,note_on,2,0,0,,6,,,66,127
15851,note_off,157,0,0,,6,,,66,127
15852,note_off,1,0,0,,12,,,59,127
15853,note_on,1,0,0,,7,,,67,127
15853,note_on,0,0,0,,12,,,59,127
16007,note_off,154,0,0,,12,,,71,127
16012,note_on,5,0,0,,12,,,83,127
16169,note_off,157,0,0,,12,,,83,127
16171,note_on,2,0,0,,12,,,83,127
16328,note_off,157,0,0,,12,,,83,127
16328,note_off,0,0,0,,12,,,59,127
16328,note_off,0,0,0,,7,,,67,127
16330,note_on,2,0,0,,6,,,66,127
16330,note_on,0,0,0,,12,,,59,127
16330,note_on,0,0,0,,10,,,69,127
16330,note_on,0,0,0,,0,,,84,127
16487,note_off,157,0,0,,0,,,84,127
16489,note_on,2,0,0,,10,,,81,127
16646,note_off,157,0,0,,10,,,81,127
16648,note_on,2,0,0,,10,,,81,127
16805,note_off,157,0,0,,10,,,81,127
16805,note_off,0,0,0,,10,,,69,127
16805,note_off,0,0,0,,12,,,59,127
16805,note_off,0,0,0,,6,,,66,127
16807,note_on,2,0,0,,12,,,59,127
16807,note_on,0,0,0,,4,,,64,127
16807,note_on,0,0,0,,7,,,67,127
16807,note_on,0,0,0,,10,,,81,127
16885,note_off,78,0,0,,10,,,81,127
16887,note_on,2,0,0,,7,,,79,127
16965,note_off,78,0,0,,7,,,79,127
16967,note_on,2,0,0,,6,,,78,127
17124,note_off,157,0,0,,6,,,78,127
17126,note_on,2,0,0,,7,,,79,127
17283,note_off,157,0,0,,7,,,79,127
17283,note_off,0,0,0,,7,,,67,127
17283,note_off,0,0,0,,4,,,64,127
17283,note_off,0,0,0,,12,,,59,127
17285,note_on,2,0,0,,12,,,47,127
17285,note_on,0,0,0,,7,,,79,127
17338,note_on,53,0,0,,6,,,78,127
17363,note_off,25,0,0,,7,,,79,127
17391,note_on,28,0,0,,7,,,79,127
17416,note_off,25,0,0,,6,,,78,127
17444,note_on,28,0,0,,6,,,78,127
17469,note_off,25,0,0,,7,,,79,127
17873,note_off,404,0,0,,6,,,78,127
17920,note_off,47,0,0,,12,,,47,127
17987,note_on,67,0,0,,10,,,81,127
18144,note_off,157,0,0,,10,,,81,127
18146,note_on,2,0,0,,7,,,79,127
18303,note_off,157,0,0,,7,,,79,127
18305,note_on,2,0,0,,10,,,81,127
18383,note_off,78,0,0,,10,,,81,127
18385,note_on,2,0,0,,7,,,79,127
18463,note_off,78,0,0,,7,,,79,127
18465,note_on,2,0,0,,5,,,77,127
18622,note_off,157,0,0,,5,,,77,127
18624,note_on,2,0,0,,4,,,76,127
18781,note_off,157,0,0,,4,,,76,127
18783,note_on,2,0,0,,4,,,76,127
18783,note_on,0,0,0,,7,,,67,127
18783,note_on,0,0,0,,11,,,58,127
18861,note_off,78,0,0,,4,,,76,127
18863,note_on,2,0,0,,2,,,74,127
18941,note_off,78,0,0,,2,,,74,127
18943,note_on,2,0,0,,1,,,73,127
19100,note_off,157,0,0,,1,,,73,127
19102,note_on,2,0,0,,2,,,74,127
19259,note_off,157,0,0,,2,,,74,127
19259,note_off,0,0,0,,11,,,58,127
19261,note_on,2,0,0,,11,,,70,127
19261,note_on,0,0,0,,10,,,57,127
19314,note_on,53,0,0,,10,,,69,127
19339,note_off,25,0,0,,11,,,70,127
19367,note_on,28,0,0,,11,,,70,127
19392,note_off,25,0,0,,10,,,69,127
19419,note_off,27,0,0,,7,,,67,127
19420,note_on,1,0,0,,10,,,69,127
19420,note_on,0,0,0,,5,,,65,127
19445,note_off,25,0,0,,11,,,70,127
19577,note_off,132,0,0,,5,,,65,127
19579,note_on,2,0,0,,4,,,64,127
19736,note_off,157,0,0,,4,,,64,127
19737,note_off,1,0,0,,10,,,57,127
19738,note_on,1,0,0,,10,,,57,127
19738,note_on,0,0,0,,5,,,65,127
19892,note_off,154,0,0,,10,,,69,127
19897,note_on,5,0,0,,10,,,81,127
20054,note_off,157,0,0,,10,,,81,127
20056,note_on,2,0,0,,10,,,81,127
20213,note_off,157,0,0,,10,,,81,127
20213,note_off,0,0,0,,5,,,65,127
20213,note_off,0,0,0,,10,,,57,127
20215,note_on,2,0,0,,11,,,82,127
20215,note_on,0,0,0,,7,,,67,127
20215,note_on,0,0,0,,10,,,57,127
20215,note_on,0,0,0,,4,,,64,127
20372,note_off,157,0,0,,11,,,82,127
20374,note_on,2,0,0,,7,,,79,127
20531,note_off,157,0,0,,7,,,79,127
20533,note_on,2,0,0,,7,,,79,127
20690,note_off,157,0,0,,7,,,79,127
20690,note_off,0,0,0,,4,,,64,127
20690,note_off,0,0,0,,10,,,57,127
20690,note_off,0,0,0,,7,,,67,127
20692,note_on,2,0,0,,7,,,79,127
20692,note_on,0,0,0,,2,,,62,127
20692,note_on,0,0,0,,5,,,65,127
20692,note_on,0,0,0,,10,,,57,127
20770,note_off,78,0,0,,7,,,79,127
20772,note_on,2,0,0,,5,,,77,127
20850,note_off,78,0,0,,5,,,77,127
20852,note_on,2,0,0,,4,,,76,127
21009,note_off,157,0,0,,4,,,76,127
21011,note_on,2,0,0,,5,,,77,127
21168,note_off,157,0,0,,5,,,77,127
21168,note_off,0,0,0,,10,,,57,127
21168,note_off,0,0,0,,5,,,65,127
21168,note_off,0,0,0,,2,,,62,127
21170,note_on,2,0,0,,4,,,76,127
21170,note_on,0,0,0,,10,,,69,127
21170,note_on,0,0,0,,4,,,64,127
21170,note_on,0,0,0,,10,,,57,127
21327,note_off,157,0,0,,4,,,76,127
21329,note_on,2,0,0,,1,,,73,127
21486,note_off,157,0,0,,1,,,73,127
21488,note_on,2,0,0,,2,,,74,127
21645,note_off,157,0,0,,2,,,74,127
21645,note_off,0,0,0,,10,,,57,127
21645,note_off,0,0,0,,4,,,64,127
21645,note_off,0,0,0,,10,,,69,127
21647,note_on,2,0,0,,4,,,76,127
21647,note_on,0,0,0,,10,,,69,127
21647,note_on,0,0,0,,4,,,64,127
21647,note_on,0,0,0,,10,,,57,127
21804,note_off,157,0,0,,4,,,76,127
21806,note_on,2,0,0,,5,,,77,127
21963,note_off,157,0,0,,5,,,77,127
21965,note_on,2,0,0,,7,,,79,127
22122,note_off,157,0,0,,10,,,57,127
22122,note_off,0,0,0,,4,,,64,127
22122,note_off,0,0,0,,10,,,69,127
22124,note_on,2,0,0,,4,,,76,127
22124,note_on,0,0,0,,7,,,67,127
22124,note_on,0,0,0,,11,,,58,127
22280,note_off,156,0,0,,7,,,79,127
22282,note_off,2,0,0,,4,,,76,127
22284,note_on,2,0,0,,1,,,73,127
22441,note_off,157,0,0,,1,,,73,127
22443,note_on,2,0,0,,2,,,74,127
22600,note_off,157,0,0,,2,,,74,127
22600,note_off,0,0,0,,11,,,58,127
22600,note_off,0,0,0,,7,,,67,127
22602,note_on,2,0,0,,4,,,76,127
22602,note_on,0,0,0,,7,,,67,127
22602,note_on,0,0,0,,11,,,58,127
22759,note_off,157,0,0,,4,,,76,127
22761,note_on,2,0,0,,5,,,77,127
22918,note_off,157,0,0,,5,,,77,127
22920,note_on,2,0,0,,7,,,79,127
23077,note_off,157,0,0,,11,,,58,127
23077,note_off,0,0,0,,7,,,67,127
23079,note_on,2,0,0,,4,,,76,127
23079,note_on,0,0,0,,10,,,69,127
23079,note_on,0,0,0,,4,,,64,127
23079,note_on,0,0,0,,10,,,57,127
23235,note_off,156,0,0,,7,,,79,127
23237,note_off,2,0,0,,4,,,76,127
23239,note_on,2,0,0,,1,,,73,127
23396,note_off,157,0,0,,1,,,73,127
23398,note_on,2,0,0,,2,,,74,127
23555,note_off,157,0,0,,2,,,74,127
23555,note_off,0,0,0,,10,,,57,127
23555,note_off,0,0,0,,4,,,64,127
23555,note_off,0,0,0,,10,,,69,127
23557,note_on,2,0,0,,4,,,76,127
23557,note_on,0,0,0,,10,,,69,127
23557,note_on,0,0,0,,4,,,64,127
23557,note_on,0,0,0,,10,,,57,127
23714,note_off,157,0,0,,4,,,76,127
23716,note_on,2,0,0,,5,,,77,127
23873,note_off,157,0,0,,5,,,77,127
23875,note_on,2,0,0,,7,,,79,127
24032,note_off,157,0,0,,7,,,79,127
24032,note_off,0,0,0,,10,,,57,127
24032,note_off,0,0,0,,4,,,64,127
24032,note_off,0,0,0,,10,,,69,127
24047,note_on,15,0,0,,2,,,62,127
24047,note_on,0,0,0,,5,,,65,127
24047,note_on,0,0,0,,5,,,77,127
24206,note_on,159,0,0,,2,,,74,127
24363,note_off,157,0,0,,2,,,74,127
24365,note_on,2,0,0,,2,,,74,127
24520,note_off,155,0,0,,5,,,77,127
24522,note_off,2,0,0,,2,,,74,127
24522,note_off,0,0,0,,5,,,65,127
24522,note_off,0,0,0,,2,,,62,127
24524,note_on,2,0,0,,5,,,65,127
24524,note_on,0,0,0,,0,,,60,127
24524,note_on,0,0,0,,5,,,77,127
24683,note_on,159,0,0,,2,,,74,127
24840,note_off,157,0,0,,2,,,74,127
24842,note_on,2,0,0,,2,,,74,127
24997,note_off,155,0,0,,5,,,77,127
24999,note_off,2,0,0,,2,,,74,127
24999,note_off,0,0,0,,0,,,60,127
24999,note_off,0,0,0,,5,,,65,127
25001,note_on,2,0,0,,12,,,59,127
25001,note_on,0,0,0,,5,,,65,127
25001,note_on,0,0,0,,5,,,77,127
25160,note_on,159,0,0,,2,,,74,127
25317,note_off,157,0,0,,2,,,74,127
25319,note_on,2,0,0,,2,,,74,127
25474,note_off,155,0,0,,5,,,77,127
25476,note_off,2,0,0,,2,,,74,127
25476,note_off,0,0,0,,5,,,65,127
25476,note_off,0,0,0,,12,,,59,127
25478,note_on,2,0,0,,10,,,57,127
25478,note_on,0,0,0,,5,,,65,127
25478,note_on,0,0,0,,5,,,77,127
25637,note_on,159,0,0,,2,,,74,127
25794,note_off,157,0,0,,2,,,74,127
25796,note_on,2,0,0,,2,,,74,127
25951,note_off,155,0,0,,5,,,77,127
25953,note_off,2,0,0,,2,,,74,127
25953,note_off,0,0,0,,5,,,65,127
25953,note_off,0,0,0,,10,,,57,127
25955,note_on,2,0,0,,7,,,55,127
25955,note_on,0,0,0,,5,,,65,127
25955,note_on,0,0,0,,5,,,77,127
26114,note_on,159,0,0,,2,,,74,127
26271,note_off,157,0,0,,2,,,74,127
26273,note_on,2,0,0,,2,,,74,127
26428,note_off,155,0,0,,5,,,77,127
26430,note_off,2,0,0,,2,,,74,127
26430,note_off,0,0,0,,5,,,65,127
26430,note_off,0,0,0,,7,,,55,127
26432,note_on,2,0,0,,7,,,55,127
26432,note_on,0,0,0,,5,,,65,127
26432,note_on,0,0,0,,5,,,77,127
26591,note_on,159,0,0,,2,,,74,127
26748,note_off,157,0,0,,2,,,74,127
26750,note_on,2,0,0,,2,,,74,127
26905,note_off,155,0,0,,5,,,77,127
26907,note_off,2,0,0,,2,,,74,127
26907,note_off,0,0,0,,5,,,65,127
26907,note_off,0,0,0,,7,,,55,127
26909,note_on,2,0,0,,8,,,56,127
26909,note_on,0,0,0,,0,,,60,127
26909,note_on,0,0,0,,5,,,65,127
26909,note_on,0,0,0,,5,,,77,127
27068,note_on,159,0,0,,2,,,74,127
27225,note_off,157,0,0,,2,,,74,127
27227,note_on,2,0,0,,2,,,74,127
27382,note_off,155,0,0,,5,,,77,127
27384,note_off,2,0,0,,2,,,74,127
27384,note_off,0,0,0,,5,,,65,127
27384,note_off,0,0,0,,0,,,60,127
27384,note_off,0,0,0,,8,,,56,127
27386,note_on,2,0,0,,8,,,56,127
27386,note_on,0,0,0,,0,,,60,127
27386,note_on,0,0,0,,5,,,65,127
27386,note_on,0,0,0,,5,,,77,127
27545,note_on,159,0,0,,2,,,74,127
27702,note_off,157,0,0,,2,,,74,127
27704,note_on,2,0,0,,2,,,74,127
27859,note_off,155,0,0,,5,,,77,127
27861,note_off,2,0,0,,2,,,74,127
27861,note_off,0,0,0,,5,,,65,127
27861,note_off,0,0,0,,0,,,60,127
27861,note_off,0,0,0,,8,,,56,127
27863,note_on,2,0,0,,2,,,62,127
27863,note_on,0,0,0,,12,,,59,127
27863,note_on,0,0,0,,5,,,65,127
27863,note_on,0,0,0,,7,,,55,127
27863,note_on,0,0,0,,5,,,77,127
28022,note_on,159,0,0,,2,,,74,127
28179,note_off,157,0,0,,2,,,74,127
28181,note_on,2,0,0,,2,,,74,127
28336,note_off,155,0,0,,5,,,77,127
28338,note_off,2,0,0,,2,,,74,127
28338,note_off,0,0,0,,7,,,55,127
28338,note_off,0,0,0,,5,,,65,127
28338,note_off,0,0,0,,12,,,59,127
28338,note_off,0,0,0,,2,,,62,127
28340,note_on,2,0,0,,7,,,55,127
28340,note_on,0,0,0,,12,,,59,127
28340,note_on,0,0,0,,2,,,62,127
28340,note_on,0,0,0,,5,,,65,127
28340,note_on,0,0,0,,5,,,77,127
28499,note_on,159,0,0,,2,,,74,127
28656,note_off,157,0,0,,2,,,74,127
28658,note_on,2,0,0,,2,,,74,127
28813,note_off,155,0,0,,5,,,77,127
28815,note_off,2,0,0,,2,,,74,127
28815,note_off,0,0,0,,5,,,65,127
28815,note_off,0,0,0,,2,,,62,127
28815,note_off,0,0,0,,12,,,59,127
28815,note_off,0,0,0,,7,,,55,127
28817,note_on,2,0,0,,5,,,53,127
28817,note_on,0,0,0,,10,,,57,127
28817,note_on,0,0,0,,2,,,62,127
28817,note_on,0,0,0,,12,,,59,127
28817,note_on,0,0,0,,5,,,77,127
28976,note_on,159,0,0,,2,,,74,127
29133,note_off,157,0,0,,2,,,74,127
29135,note_on,2,0,0,,2,,,74,127
29290,note_off,155,0,0,,5,,,77,127
29292,note_off,2,0,0,,2,,,74,127
29292,note_off,0,0,0,,12,,,59,127
29292,note_off,0,0,0,,2,,,62,127
29292,note_off,0,0,0,,10,,,57,127
29292,note_off,0,0,0,,5,,,53,127
29294,note_on,2,0,0,,5,,,53,127
29294,note_on,0,0,0,,10,,,57,127
29294,note_on,0,0,0,,12,,,59,127
29294,note_on,0,0,0,,2,,,62,127
29294,note_on,0,0,0,,5,,,77,127
29453,note_on,159,0,0,,2,,,74,127
29610,note_off,157,0,0,,2,,,74,127
29612,note_on,2,0,0,,2,,,74,127
29767,note_off,155,0,0,,5,,,77,127
29769,note_off,2,0,0,,2,,,62,127
29769,note_off,0,0,0,,12,,,59,127
29769,note_off,0,0,0,,10,,,57,127
29769,note_off,0,0,0,,5,,,53,127
29777,note_off,8,0,0,,2,,,74,127
29777,note_on,0,0,0,,4,,,52,127
29777,note_on,0,0,0,,12,,,59,127
29777,note_on,0,0,0,,2,,,62,127
29777,note_on,0,0,0,,12,,,83,127
29936,note_on,159,0,0,,2,,,74,127
30093,note_off,157,0,0,,2,,,74,127
30095,note_on,2,0,0,,2,,,74,127
30250,note_off,155,0,0,,12,,,83,127
30252,note_off,2,0,0,,2,,,74,127
30252,note_off,0,0,0,,2,,,62,127
30252,note_off,0,0,0,,12,,,59,127
30252,note_off,0,0,0,,4,,,52,127
30254,note_on,2,0,0,,4,,,52,127
30254,note_on,0,0,0,,12,,,59,127
30254,note_on,0,0,0,,2,,,62,127
30254,note_on,0,0,0,,12,,,83,127
30413,note_on,159,0,0,,2,,,74,127
30570,note_off,157,0,0,,2,,,74,127
30572,note_on,2,0,0,,2,,,74,127
30727,note_off,155,0,0,,12,,,83,127
30729,note_off,2,0,0,,2,,,74,127
30729,note_off,0,0,0,,2,,,62,127
30729,note_off,0,0,0,,12,,,59,127
30729,note_off,0,0,0,,4,,,52,127
30731,note_on,2,0,0,,4,,,52,127
30731,note_on,0,0,0,,0,,,60,127
30731,note_on,0,0,0,,10,,,57,127
30731,note_on,0,0,0,,10,,,81,127
30890,note_on,159,0,0,,4,,,76,127
31047,note_off,157,0,0,,4,,,76,127
31049,note_on,2,0,0,,4,,,76,127
31204,note_off,155,0,0,,10,,,81,127
31206,note_off,2,0,0,,4,,,76,127
31206,note_off,0,0,0,,10,,,57,127
31206,note_off,0,0,0,,0,,,60,127
31206,note_off,0,0,0,,4,,,52,127
31208,note_on,2,0,0,,4,,,52,127
31208,note_on,0,0,0,,12,,,59,127
31208,note_on,0,0,0,,2,,,62,127
31208,note_on,0,0,0,,12,,,83,127
31367,note_on,159,0,0,,4,,,76,127
31524,note_off,157,0,0,,4,,,76,127
31526,note_on,2,0,0,,4,,,76,127
31681,note_off,155,0,0,,12,,,83,127
31683,note_off,2,0,0,,4,,,76,127
31683,note_off,0,0,0,,2,,,62,127
31683,note_off,0,0,0,,12,,,59,127
31683,note_off,0,0,0,,4,,,52,127
31685,note_on,2,0,0,,4,,,52,127
31685,note_on,0,0,0,,10,,,57,127
31685,note_on,0,0,0,,0,,,60,127
31685,note_on,0,0,0,,0,,,84,127
31844,note_on,159,0,0,,4,,,76,127
32001,note_off,157,0,0,,4,,,76,127
32003,note_on,2,0,0,,4,,,76,127
32158,note_off,155,0,0,,0,,,84,127
32160,note_off,2,0,0,,4,,,76,127
32160,note_off,0,0,0,,0,,,60,127
32160,note_off,0,0,0,,10,,,57,127
32160,note_off,0,0,0,,4,,,52,127
32162,note_on,2,0,0,,4,,,52,127
32162,note_on,0,0,0,,12,,,59,127
32162,note_on,0,0,0,,2,,,62,127
32162,note_on,0,0,0,,12,,,83,127
32321,note_on,159,0,0,,4,,,76,127
32478,note_off,157,0,0,,4,,,76,127
32480,note_on,2,0,0,,4,,,76,127
32635,note_off,155,0,0,,12,,,83,127
32637,note_off,2,0,0,,4,,,76,127
32637,note_off,0,0,0,,2,,,62,127
32637,note_off,0,0,0,,12,,,59,127
32637,note_off,0,0,0,,4,,,52,127
32639,note_on,2,0,0,,10,,,57,127
32639,note_on,0,0,0,,0,,,60,127
32639,note_on,0,0,0,,0,,,84,127
32798,note_on,159,0,0,,4,,,76,127
32955,note_off,157,0,0,,4,,,76,127
32957,note_on,2,0,0,,4,,,76,127
33112,note_off,155,0,0,,0,,,84,127
33114,note_off,2,0,0,,4,,,76,127
33114,note_off,0,0,0,,0,,,60,127
33114,note_off,0,0,0,,10,,,57,127
33116,note_on,2,0,0,,7,,,55,127
33116,note_on,0,0,0,,0,,,60,127
33116,note_on,0,0,0,,0,,,84,127
33275,note_on,159,0,0,,4,,,76,127
33432,note_off,157,0,0,,4,,,76,127
33434,note_on,2,0,0,,4,,,76,127
33589,note_off,155,0,0,,0,,,84,127
33591,note_off,2,0,0,,4,,,76,127
33591,note_off,0,0,0,,0,,,60,127
33591,note_off,0,0,0,,7,,,55,127
33593,note_on,2,0,0,,6,,,54,127
33593,note_on,0,0,0,,0,,,60,127
33593,note_on,0,0,0,,0,,,84,127
33752,note_on,159,0,0,,4,,,76,127
33909,note_off,157,0,0,,4,,,76,127
33911,note_on,2,0,0,,4,,,76,127
34066,note_off,155,0,0,,0,,,84,127
34068,note_off,2,0,0,,4,,,76,127
34068,note_off,0,0,0,,0,,,60,127
34068,note_off,0,0,0,,6,,,54,127
34070,note_on,2,0,0,,4,,,52,127
34070,note_on,0,0,0,,0,,,60,127
34070,note_on,0,0,0,,0,,,84,127
34229,note_on,159,0,0,,4,,,76,127
34386,note_off,157,0,0,,4,,,76,127
34388,note_on,2,0,0,,4,,,76,127
34543,note_off,155,0,0,,0,,,84,127
34545,note_off,2,0,0,,4,,,76,127
34545,note_off,0,0,0,,0,,,60,127
34545,note_off,0,0,0,,4,,,52,127
34547,note_on,2,0,0,,2,,,50,127
34547,note_on,0,0,0,,10,,,57,127
34547,note_on,0,0,0,,0,,,60,127
34547,note_on,0,0,0,,0,,,84,127
34706,note_on,159,0,0,,2,,,74,127
34863,note_off,157,0,0,,2,,,74,127
34865,note_on,2,0,0,,2,,,74,127
35020,note_off,155,0,0,,0,,,84,127
35022,note_off,2,0,0,,2,,,74,127
35022,note_off,0,0,0,,0,,,60,127
35022,note_off,0,0,0,,10,,,57,127
35022,note_off,0,0,0,,2,,,50,127
35024,note_on,2,0,0,,10,,,57,127
35024,note_on,0,0,0,,2,,,50,127
35024,note_on,0,0,0,,0,,,60,127
35024,note_on,0,0,0,,0,,,84,127
35183,note_on,159,0,0,,2,,,74,127
35340,note_off,157,0,0,,2,,,74,127
35342,note_on,2,0,0,,2,,,74,127
35497,note_off,155,0,0,,0,,,84,127
35499,note_off,2,0,0,,2,,,74,127
35499,note_off,0,0,0,,0,,,60,127
35499,note_off,0,0,0,,2,,,50,127
35499,note_off,0,0,0,,10,,,57,127
35501,note_on,2,0,0,,2,,,50,127
35501,note_on,0,0,0,,7,,,55,127
35501,note_on,0,0,0,,12,,,59,127
35501,note_on,0,0,0,,12,,,83,127
35660,note_on,159,0,0,,2,,,74,127
35817,note_off,157,0,0,,2,,,74,127
35819,note_on,2,0,0,,2,,,74,127
35974,note_off,155,0,0,,12,,,83,127
35976,note_off,2,0,0,,2,,,74,127
35976,note_off,0,0,0,,12,,,59,127
35976,note_off,0,0,0,,7,,,55,127
35976,note_off,0,0,0,,2,,,50,127
35978,note_on,2,0,0,,2,,,50,127
35978,note_on,0,0,0,,10,,,57,127
35978,note_on,0,0,0,,0,,,60,127
35978,note_on,0,0,0,,10,,,81,127
36137,note_on,159,0,0,,2,,,74,127
36294,note_off,157,0,0,,2,,,74,127
36296,note_on,2,0,0,,2,,,74,127
36375,note_off,79,0,0,,10,,,81,127
36453,note_off,78,0,0,,2,,,74,127
36453,note_off,0,0,0,,0,,,60,127
36453,note_off,0,0,0,,10,,,57,127
36453,note_off,0,0,0,,2,,,50,127
36455,note_on,2,0,0,,2,,,62,127
36455,note_on,0,0,0,,7,,,55,127
36455,note_on,0,0,0,,12,,,83,127
36627,note_on,172,0,0,,6,,,78,127
36653,note_off,26,0,0,,12,,,83,127
36784,note_off,131,0,0,,6,,,78,127
36792,note_on,8,0,0,,7,,,79,127
36926,note_off,134,0,0,,2,,,62,127
36929,note_off,3,0,0,,7,,,55,127
36951,note_on,22,0,0,,7,,,55,127
36951,note_on,0,0,0,,2,,,62,127
37107,note_off,156,0,0,,7,,,79,127
37110,note_on,3,0,0,,2,,,74,127
37267,note_off,157,0,0,,2,,,74,127
37269,note_on,2,0,0,,4,,,76,127
37426,note_off,157,0,0,,2,,,62,127
37426,note_off,0,0,0,,7,,,55,127
37428,note_on,2,0,0,,2,,,62,127
37428,note_on,0,0,0,,0,,,60,127
37428,note_on,0,0,0,,6,,,54,127
37584,note_off,156,0,0,,4,,,76,127
37587,note_on,3,0,0,,10,,,69,127
37744,note_off,157,0,0,,10,,,69,127
37746,note_on,2,0,0,,4,,,76,127
37903,note_off,157,0,0,,4,,,76,127
37903,note_off,0,0,0,,6,,,54,127
37903,note_off,0,0,0,,0,,,60,127
37903,note_off,0,0,0,,2,,,62,127
37905,note_on,2,0,0,,2,,,74,127
37905,note_on,0,0,0,,2,,,62,127
37905,note_on,0,0,0,,0,,,60,127
37905,note_on,0,0,0,,6,,,54,127
37983,note_off,78,0,0,,2,,,74,127
37985,note_on,2,0,0,,0,,,72,127
38063,note_off,78,0,0,,0,,,72,127
38065,note_on,2,0,0,,12,,,71,127
38222,note_off,157,0,0,,12,,,71,127
38224,note_on,2,0,0,,10,,,69,127
38381,note_off,157,0,0,,10,,,69,127
38381,note_off,0,0,0,,6,,,54,127
38381,note_off,0,0,0,,0,,,60,127
38381,note_off,0,0,0,,2,,,62,127
38383,note_on,2,0,0,,12,,,71,127
38383,note_on,0,0,0,,2,,,62,127
38383,note_on,0,0,0,,7,,,55,127
38540,note_off,157,0,0,,12,,,71,127
38542,note_on,2,0,0,,0,,,72,127
38699,note_off,157,0,0,,0,,,72,127
38701,note_on,2,0,0,,2,,,74,127
38858,note_off,157,0,0,,7,,,55,127
38858,note_off,0,0,0,,2,,,62,127
38860,note_on,2,0,0,,2,,,62,127
38860,note_on,0,0,0,,7,,,55,127
38939,note_off,79,0,0,,2,,,74,127
39018,note_on,79,0,0,,2,,,74,127
39175,note_off,157,0,0,,2,,,74,127
39177,note_on,2,0,0,,4,,,76,127
39334,note_off,157,0,0,,4,,,76,127
39334,note_off,0,0,0,,7,,,55,127
39334,note_off,0,0,0,,2,,,62,127
39336,note_on,2,0,0,,4,,,76,127
39336,note_on,0,0,0,,0,,,60,127
39336,note_on,0,0,0,,2,,,62,127
39336,note_on,0,0,0,,6,,,54,127
39493,note_off,157,0,0,,4,,,76,127
39495,note_on,2,0,0,,10,,,69,127
39652,note_off,157,0,0,,10,,,69,127
39654,note_on,2,0,0,,4,,,76,127
39811,note_off,157,0,0,,4,,,76,127
39811,note_off,0,0,0,,6,,,54,127
39811,note_off,0,0,0,,2,,,62,127
39811,note_off,0,0,0,,0,,,60,127
39813,note_on,2,0,0,,2,,,74,127
39813,note_on,0,0,0,,2,,,62,127
39813,note_on,0,0,0,,6,,,54,127
39813,note_on,0,0,0,,0,,,60,127
39891,note_off,78,0,0,,2,,,74,127
39893,note_on,2,0,0,,0,,,72,127
39971,note_off,78,0,0,,0,,,72,127
39973,note_on,2,0,0,,12,,,71,127
40130,note_off,157,0,0,,12,,,71,127
40132,note_on,2,0,0,,10,,,69,127
40289,note_off,157,0,0,,10,,,69,127
40289,note_off,0,0,0,,0,,,60,127
40289,note_off,0,0,0,,6,,,54,127
40289,note_off,0,0,0,,2,,,62,127
40291,note_on,2,0,0,,12,,,71,127
40291,note_on,0,0,0,,2,,,62,127
40291,note_on,0,0,0,,7,,,55,127
40448,note_off,157,0,0,,12,,,71,127
40450,note_on,2,0,0,,0,,,72,127
40607,note_off,157,0,0,,0,,,72,127
40609,note_on,2,0,0,,2,,,74,127
40766,note_off,157,0,0,,7,,,55,127
40766,note_off,0,0,0,,2,,,62,127
40768,note_on,2,0,0,,2,,,62,127
40768,note_on,0,0,0,,7,,,55,127
40847,note_off,79,0,0,,2,,,74,127
40926,note_on,79,0,0,,2,,,74,127
41083,note_off,157,0,0,,2,,,74,127
41085,note_on,2,0,0,,12,,,71,127
41242,note_off,157,0,0,,12,,,71,127
41242,note_off,0,0,0,,7,,,55,127
41242,note_off,0,0,0,,2,,,62,127
41244,note_on,2,0,0,,10,,,69,127
41244,note_on,0,0,0,,4,,,52,127
41244,note_on,0,0,0,,2,,,62,127
41322,note_off,78,0,0,,10,,,69,127
41324,note_on,2,0,0,,7,,,67,127
41402,note_off,78,0,0,,7,,,67,127
41404,note_on,2,0,0,,6,,,66,127
41561,note_off,157,0,0,,6,,,66,127
41563,note_on,2,0,0,,7,,,67,127
41720,note_off,157,0,0,,7,,,67,127
41720,note_off,0,0,0,,2,,,62,127
41720,note_off,0,0,0,,4,,,52,127
41722,note_on,2,0,0,,10,,,69,127
41722,note_on,0,0,0,,1,,,61,127
41722,note_on,0,0,0,,4,,,52,127
41800,note_off,78,0,0,,10,,,69,127
41802,note_on,2,0,0,,7,,,67,127
41880,note_off,78,0,0,,7,,,67,127
41882,note_on,2,0,0,,6,,,66,127
42039,note_off,157,0,0,,6,,,66,127
42041,note_on,2,0,0,,7,,,67,127
42198,note_off,157,0,0,,7,,,67,127
42198,note_off,0,0,0,,4,,,52,127
42198,note_off,0,0,0,,1,,,61,127
42200,note_on,2,0,0,,10,,,69,127
42200,note_on,0,0,0,,10,,,57,127
42200,note_on,0,0,0,,2,,,62,127
42200,note_on,0,0,0,,2,,,50,127
42357,note_off,157,0,0,,10,,,69,127
42359,note_on,2,0,0,,1,,,73,127
42516,note_off,157,0,0,,1,,,73,127
42518,note_on,2,0,0,,2,,,74,127
42675,note_off,157,0,0,,2,,,50,127
42675,note_off,0,0,0,,2,,,62,127
42675,note_off,0,0,0,,10,,,57,127
42677,note_on,2,0,0,,2,,,62,127
42677,note_on,0,0,0,,10,,,57,127
42677,note_on,0,0,0,,2,,,50,127
42756,note_off,79,0,0,,2,,,74,127
42835,note_on,79,0,0,,2,,,74,127
42992,note_off,157,0,0,,2,,,74,127
42994,note_on,2,0,0,,12,,,71,127
43151,note_off,157,0,0,,12,,,71,127
43151,note_off,0,0,0,,2,,,50,127
43151,note_off,0,0,0,,10,,,57,127
43151,note_off,0,0,0,,2,,,62,127
43153,note_on,2,0,0,,10,,,69,127
43153,note_on,0,0,0,,2,,,62,127
43153,note_on,0,0,0,,4,,,52,127
43231,note_off,78,0,0,,10,,,69,127
43233,note_on,2,0,0,,7,,,67,127
43311,note_off,78,0,0,,7,,,67,127
43313,note_on,2,0,0,,6,,,66,127
43470,note_off,157,0,0,,6,,,66,127
43472,note_on,2,0,0,,7,,,67,127
43629,note_off,157,0,0,,7,,,67,127
43629,note_off,0,0,0,,4,,,52,127
43629,note_off,0,0,0,,2,,,62,127
43631,note_on,2,0,0,,7,,,79,127
43631,note_on,0,0,0,,4,,,52,127
43631,note_on,0,0,0,,1,,,61,127
43788,note_off,157,0,0,,7,,,79,127
43790,note_on,2,0,0,,4,,,76,127
43947,note_off,157,0,0,,4,,,76,127
43949,note_on,2,0,0,,1,,,73,127
44106,note_off,157,0,0,,1,,,73,127
44106,note_off,0,0,0,,1,,,61,127
44106,note_off,0,0,0,,4,,,52,127
44108,note_on,2,0,0,,1,,,73,127
44108,note_on,0,0,0,,2,,,62,127
44108,note_on,0,0,0,,2,,,50,127
44424,note_off,316,0,0,,1,,,73,127
44426,note_on,2,0,0,,2,,,74,127
44583,note_off,157,0,0,,2,,,50,127
44583,note_off,0,0,0,,2,,,62,127
44585,note_on,2,0,0,,2,,,62,127
44585,note_on,0,0,0,,12,,,59,127
44664,note_off,79,0,0,,2,,,74,127
44743,note_on,79,0,0,,7,,,79,127
44900,note_off,157,0,0,,7,,,79,127
44902,note_on,2,0,0,,2,,,74,127
45059,note_off,157,0,0,,2,,,74,127
45059,note_off,0,0,0,,12,,,59,127
45059,note_off,0,0,0,,2,,,62,127
45061,note_on,2,0,0,,2,,,74,127
45061,note_on,0,0,0,,2,,,62,127
45061,note_on,0,0,0,,0,,,60,127
45061,note_on,0,0,0,,10,,,57,127
45218,note_off,157,0,0,,2,,,74,127
45220,note_on,2,0,0,,4,,,76,127
45377,note_off,157,0,0,,4,,,76,127
45379,note_on,2,0,0,,0,,,72,127
45536,note_off,157,0,0,,0,,,72,127
45536,note_off,0,0,0,,10,,,57,127
45536,note_off,0,0,0,,0,,,60,127
45536,note_off,0,0,0,,2,,,62,127
45538,note_on,2,0,0,,0,,,72,127
45538,note_on,0,0,0,,2,,,62,127
45538,note_on,0,0,0,,0,,,60,127
45538,note_on,0,0,0,,6,,,54,127
45695,note_off,157,0,0,,0,,,72,127
45697,note_on,2,0,0,,2,,,74,127
45854,note_off,157,0,0,,2,,,74,127
45856,note_on,2,0,0,,10,,,69,127
46013,note_off,157,0,0,,10,,,69,127
46013,note_off,0,0,0,,6,,,54,127
46013,note_off,0,0,0,,0,,,60,127
46013,note_off,0,0,0,,2,,,62,127
46015,note_on,2,0,0,,10,,,69,127
46015,note_on,0,0,0,,7,,,55,127
46172,note_off,157,0,0,,10,,,69,127
46174,note_on,2,0,0,,12,,,71,127
46331,note_off,157,0,0,,12,,,71,127
46333,note_on,2,0,0,,6,,,66,127
46490,note_off,157,0,0,,6,,,66,127
46490,note_off,0,0,0,,7,,,55,127
46492,note_on,2,0,0,,6,,,66,127
46492,note_on,0,0,0,,12,,,47,127
46649,note_off,157,0,0,,6,,,66,127
46651,note_on,2,0,0,,7,,,67,127
46808,note_off,157,0,0,,7,,,67,127
46810,note_on,2,0,0,,2,,,62,127
46967,note_off,157,0,0,,2,,,62,127
46967,note_off,0,0,0,,12,,,47,127
46969,note_on,2,0,0,,4,,,64,127
46969,note_on,0,0,0,,0,,,48,127
47126,note_off,157,0,0,,4,,,64,127
47128,note_on,2,0,0,,4,,,76,127
47128,note_on,0,0,0,,0,,,72,127
47285,note_off,157,0,0,,0,,,72,127
47285,note_off,0,0,0,,4,,,76,127
47287,note_on,2,0,0,,2,,,74,127
47287,note_on,0,0,0,,12,,,71,127
47444,note_off,157,0,0,,12,,,71,127
47444,note_off,0,0,0,,2,,,74,127
47444,note_off,0,0,0,,0,,,48,127
47446,note_on,2,0,0,,10,,,69,127
47446,note_on,0,0,0,,0,,,72,127
47446,note_on,0,0,0,,2,,,50,127
47603,note_off,157,0,0,,0,,,72,127
47603,note_off,0,0,0,,10,,,69,127
47605,note_on,2,0,0,,7,,,67,127
47605,note_on,0,0,0,,12,,,71,127
47762,note_off,157,0,0,,12,,,71,127
47762,note_off,0,0,0,,7,,,67,127
47764,note_on,2,0,0,,10,,,69,127
47764,note_on,0,0,0,,6,,,66,127
47921,note_off,157,0,0,,6,,,66,127
47921,note_off,0,0,0,,10,,,69,127
47921,note_off,0,0,0,,2,,,50,127
47923,note_on,2,0,0,,6,,,66,127
47923,note_on,0,0,0,,10,,,69,127
47923,note_on,0,0,0,,7,,,43,127
48239,note_off,316,0,0,,10,,,69,127
48239,note_off,0,0,0,,6,,,66,127
48241,note_on,2,0,0,,7,,,67,127
48398,note_off,157,0,0,,7,,,43,127
48413,note_on,15,0,0,,12,,,59,127
48413,note_on,0,0,0,,2,,,62,127
48539,note_off,126,0,0,,7,,,67,127
48572,note_on,33,0,0,,7,,,79,127
48729,note_off,157,0,0,,7,,,79,127
48731,note_on,2,0,0,,2,,,74,127
48888,note_off,157,0,0,,2,,,74,127
48888,note_off,0,0,0,,2,,,62,127
48888,note_off,0,0,0,,12,,,59,127
48890,note_on,2,0,0,,10,,,57,127
48890,note_on,0,0,0,,0,,,60,127
48890,note_on,0,0,0,,2,,,62,127
48890,note_on,0,0,0,,2,,,74,127
49047,note_off,157,0,0,,2,,,74,127
49049,note_on,2,0,0,,4,,,76,127
49206,note_off,157,0,0,,4,,,76,127
49208,note_on,2,0,0,,0,,,72,127
49365,note_off,157,0,0,,2,,,62,127
49365,note_off,0,0,0,,0,,,60,127
49365,note_off,0,0,0,,10,,,57,127
49367,note_on,2,0,0,,6,,,54,127
49367,note_on,0,0,0,,2,,,62,127
49367,note_on,0,0,0,,0,,,60,127
49519,note_off,152,0,0,,0,,,72,127
49526,note_on,7,0,0,,2,,,74,127
49683,note_off,157,0,0,,2,,,74,127
49685,note_on,2,0,0,,10,,,69,127
49842,note_off,157,0,0,,10,,,69,127
49842,note_off,0,0,0,,0,,,60,127
49842,note_off,0,0,0,,2,,,62,127
49842,note_off,0,0,0,,6,,,54,127
49844,note_on,2,0,0,,7,,,55,127
49844,note_on,0,0,0,,10,,,69,127
50001,note_off,157,0,0,,10,,,69,127
50003,note_on,2,0,0,,12,,,71,127
50160,note_off,157,0,0,,12,,,71,127
50162,note_on,2,0,0,,6,,,66,127
50319,note_off,157,0,0,,7,,,55,127
50321,note_on,2,0,0,,12,,,47,127
50473,note_off,152,0,0,,6,,,66,127
50480,note_on,7,0,0,,7,,,67,127
50637,note_off,157,0,0,,7,,,67,127
50639,note_on,2,0,0,,2,,,62,127
50796,note_off,157,0,0,,2,,,62,127
50796,note_off,0,0,0,,12,,,47,127
50798,note_on,2,0,0,,0,,,48,127
50798,note_on,0,0,0,,4,,,64,127
50955,note_off,157,0,0,,4,,,64,127
50957,note_on,2,0,0,,0,,,72,127
50957,note_on,0,0,0,,4,,,76,127
51114,note_off,157,0,0,,4,,,76,127
51114,note_off,0,0,0,,0,,,72,127
51116,note_on,2,0,0,,2,,,74,127
51116,note_on,0,0,0,,12,,,71,127
51273,note_off,157,0,0,,12,,,71,127
51273,note_off,0,0,0,,2,,,74,127
51273,note_off,0,0,0,,0,,,48,127
51275,note_on,2,0,0,,2,,,50,127
51275,note_on,0,0,0,,10,,,69,127
51275,note_on,0,0,0,,0,,,72,127
51432,note_off,157,0,0,,0,,,72,127
51432,note_off,0,0,0,,10,,,69,127
51434,note_on,2,0,0,,12,,,71,127
51434,note_on,0,0,0,,7,,,67,127
51591,note_off,157,0,0,,7,,,67,127
51591,note_off,0,0,0,,12,,,71,127
51593,note_on,2,0,0,,10,,,69,127
51593,note_on,0,0,0,,6,,,66,127
51750,note_off,157,0,0,,6,,,66,127
51750,note_off,0,0,0,,10,,,69,127
51750,note_off,0,0,0,,2,,,50,127
51752,note_on,2,0,0,,7,,,55,127
51752,note_on,0,0,0,,7,,,67,127
51909,note_off,157,0,0,,7,,,55,127
51911,note_on,2,0,0,,2,,,50,127
52068,note_off,157,0,0,,2,,,50,127
52070,note_on,2,0,0,,7,,,43,127
52227,note_off,157,0,0,,7,,,43,127
52227,note_off,0,0,0,,7,,,67,127
52229,note_on,2,0,0,,2,,,38,127
52229,note_on,0,0,0,,2,,,74,127
52307,note_off,78,0,0,,2,,,74,127
52309,note_on,2,0,0,,0,,,72,127
52387,note_off,78,0,0,,0,,,72,127
52389,note_on,2,0,0,,12,,,71,127
52467,note_off,78,0,0,,12,,,71,127
52469,note_on,2,0,0,,10,,,69,127
52547,note_off,78,0,0,,10,,,69,127
52549,note_on,2,0,0,,7,,,67,127
52627,note_off,78,0,0,,7,,,67,127
52629,note_on,2,0,0,,6,,,66,127
52695,note_off,66,0,0,,2,,,38,127
52707,note_off,12,0,0,,6,,,66,127
52709,note_on,2,0,0,,7,,,55,127
52709,note_on,0,0,0,,7,,,79,127
52866,note_off,157,0,0,,7,,,55,127
52868,note_on,2,0,0,,2,,,50,127
53025,note_off,157,0,0,,2,,,50,127
53027,note_on,2,0,0,,7,,,43,127
53184,note_off,157,0,0,,7,,,43,127
53184,note_off,0,0,0,,7,,,79,127
53186,note_on,2,0,0,,2,,,38,127
53186,note_on,0,0,0,,2,,,74,127
53264,note_off,78,0,0,,2,,,74,127
53266,note_on,2,0,0,,0,,,72,127
53344,note_off,78,0,0,,0,,,72,127
53346,note_on,2,0,0,,12,,,71,127
53424,note_off,78,0,0,,12,,,71,127
53426,note_on,2,0,0,,10,,,69,127
53504,note_off,78,0,0,,10,,,69,127
53506,note_on,2,0,0,,7,,,67,127
53584,note_off,78,0,0,,7,,,67,127
53586,note_on,2,0,0,,6,,,66,127
53644,note_off,58,0,0,,2,,,38,127
53664,note_off,20,0,0,,6,,,66,127
53666,note_on,2,0,0,,7,,,55,127
53666,note_on,0,0,0,,12,,,83,127
53823,note_off,157,0,0,,7,,,55,127
53825,note_on,2,0,0,,2,,,50,127
53982,note_off,157,0,0,,2,,,50,127
53984,note_on,2,0,0,,7,,,43,127
54141,note_off,157,0,0,,7,,,43,127
54141,note_off,0,0,0,,12,,,83,127
54143,note_on,2,0,0,,2,,,38,127
54143,note_on,0,0,0,,2,,,74,127
54221,note_off,78,0,0,,2,,,74,127
54223,note_on,2,0,0,,0,,,72,127
54301,note_off,78,0,0,,0,,,72,127
54303,note_on,2,0,0,,12,,,71,127
54381,note_off,78,0,0,,12,,,71,127
54383,note_on,2,0,0,,10,,,69,127
54461,note_off,78,0,0,,10,,,69,127
54463,note_on,2,0,0,,7,,,67,127
54541,note_off,78,0,0,,7,,,67,127
54543,note_on,2,0,0,,6,,,66,127
54576,note_off,33,0,0,,2,,,38,127
54621,note_off,45,0,0,,6,,,66,127
54623,note_on,2,0,0,,7,,,43,127
54623,note_on,0,0,0,,2,,,86,127
54780,note_off,157,0,0,,7,,,43,127
54782,note_on,2,0,0,,7,,,55,127
54939,note_off,157,0,0,,7,,,55,127
54939,note_off,0,0,0,,2,,,86,127
54941,note_on,2,0,0,,12,,,47,127
54941,note_on,0,0,0,,7,,,79,127
55098,note_off,157,0,0,,7,,,79,127
55098,note_off,0,0,0,,12,,,47,127
55100,note_on,2,0,0,,0,,,48,127
55100,note_on,0,0,0,,12,,,83,127
55178,note_off,78,0,0,,12,,,83,127
55180,note_on,2,0,0,,10,,,81,127
55258,note_off,78,0,0,,10,,,81,127
55260,note_on,2,0,0,,7,,,79,127
55417,note_off,157,0,0,,7,,,79,127
55417,note_off,0,0,0,,0,,,48,127
55419,note_on,2,0,0,,2,,,50,127
55419,note_on,0,0,0,,6,,,78,127
55576,note_off,157,0,0,,6,,,78,127
55576,note_off,0,0,0,,2,,,50,127
55578,note_on,2,0,0,,7,,,55,127
55578,note_on,0,0,0,,7,,,79,127
55750,note_on,172,0,0,,2,,,74,127
55760,note_off,10,0,0,,7,,,79,127
55907,note_off,147,0,0,,2,,,74,127
55909,note_on,2,0,0,,4,,,76,127
56053,note_off,144,0,0,,7,,,55,127
56066,note_off,13,0,0,,4,,,76,127
56068,note_on,2,0,0,,4,,,76,127
56068,note_on,0,0,0,,2,,,62,127
56068,note_on,0,0,0,,0,,,60,127
56068,note_on,0,0,0,,6,,,54,127
56225,note_off,157,0,0,,4,,,76,127
56227,note_on,2,0,0,,10,,,69,127
56384,note_off,157,0,0,,10,,,69,127
56386,note_on,2,0,0,,0,,,72,127
56543,note_off,157,0,0,,0,,,72,127
56543,note_off,0,0,0,,6,,,54,127
56543,note_off,0,0,0,,0,,,60,127
56543,note_off,0,0,0,,2,,,62,127
56545,note_on,2,0,0,,12,,,71,127
56545,note_on,0,0,0,,7,,,55,127
56702,note_off,157,0,0,,12,,,71,127
56704,note_on,2,0,0,,2,,,74,127
56861,note_off,157,0,0,,2,,,74,127
56861,note_off,0,0,0,,7,,,55,127
56863,note_on,2,0,0,,7,,,67,127
56863,note_on,0,0,0,,12,,,47,127
57020,note_off,157,0,0,,12,,,47,127
57020,note_off,0,0,0,,7,,,67,127
57022,note_on,2,0,0,,12,,,71,127
57022,note_on,0,0,0,,0,,,48,127
57100,note_off,78,0,0,,12,,,71,127
57102,note_on,2,0,0,,10,,,69,127
57180,note_off,78,0,0,,10,,,69,127
57182,note_on,2,0,0,,7,,,67,127
57339,note_off,157,0,0,,7,,,67,127
57339,note_off,0,0,0,,0,,,48,127
57341,note_on,2,0,0,,6,,,66,127
57341,note_on,0,0,0,,2,,,50,127
57498,note_off,157,0,0,,2,,,50,127
57498,note_off,0,0,0,,6,,,66,127
57500,note_on,2,0,0,,7,,,67,127
57500,note_on,0,0,0,,7,,,55,127
57500,note_on,0,0,0,,7,,,43,127
57657,note_off,157,0,0,,7,,,67,127
57659,note_on,2,0,0,,2,,,74,127
57816,note_off,157,0,0,,2,,,74,127
57818,note_on,2,0,0,,4,,,76,127
57975,note_off,157,0,0,,4,,,76,127
57975,note_off,0,0,0,,7,,,43,127
57975,note_off,0,0,0,,7,,,55,127
57977,note_on,2,0,0,,4,,,76,127
57977,note_on,0,0,0,,2,,,62,127
57977,note_on,0,0,0,,0,,,60,127
57977,note_on,0,0,0,,6,,,54,127
58134,note_off,157,0,0,,4,,,76,127
58136,note_on,2,0,0,,10,,,69,127
58293,note_off,157,0,0,,10,,,69,127
58295,note_on,2,0,0,,0,,,72,127
58452,note_off,157,0,0,,0,,,72,127
58452,note_off,0,0,0,,6,,,54,127
58452,note_off,0,0,0,,0,,,60,127
58452,note_off,0,0,0,,2,,,62,127
58454,note_on,2,0,0,,12,,,71,127
58454,note_on,0,0,0,,7,,,55,127
58611,note_off,157,0,0,,12,,,71,127
58613,note_on,2,0,0,,2,,,74,127
58770,note_off,157,0,0,,2,,,74,127
58770,note_off,0,0,0,,7,,,55,127
58772,note_on,2,0,0,,7,,,67,127
58772,note_on,0,0,0,,12,,,47,127
58929,note_off,157,0,0,,12,,,47,127
58929,note_off,0,0,0,,7,,,67,127
58931,note_on,2,0,0,,12,,,71,127
58931,note_on,0,0,0,,0,,,48,127
59009,note_off,78,0,0,,12,,,71,127
59011,note_on,2,0,0,,10,,,69,127
59089,note_off,78,0,0,,10,,,69,127
59091,note_on,2,0,0,,7,,,67,127
59248,note_off,157,0,0,,7,,,67,127
59248,note_off,0,0,0,,0,,,48,127
59250,note_on,2,0,0,,6,,,66,127
59250,note_on,0,0,0,,2,,,50,127
59407,note_off,157,0,0,,2,,,50,127
59407,note_off,0,0,0,,6,,,66,127
59409,note_on,2,0,0,,7,,,67,127
59409,note_on,0,0,0,,7,,,55,127
59409,note_on,0,0,0,,7,,,43,127
60320,note_off,911,0,0,,7,,,43,127
60361,note_off,41,0,0,,7,,,55,127
60361,note_off,0,0,0,,7,,,67,127
60376,note_on,15,0,0,,7,,,55,127
60535,note_on,159,0,0,,7,,,67,127
60692,note_off,157,0,0,,7,,,67,127
60694,note_on,2,0,0,,7,,,67,127
60851,note_off,157,0,0,,7,,,67,127
60853,note_on,2,0,0,,12,,,71,127
61012,note_on,159,0,0,,7,,,67,127
61168,note_off,156,0,0,,12,,,71,127
61170,note_off,2,0,0,,7,,,67,127
61172,note_on,2,0,0,,7,,,67,127
61329,note_off,157,0,0,,7,,,67,127
61329,note_off,0,0,0,,7,,,55,127
61331,note_on,2,0,0,,5,,,65,127
61331,note_on,0,0,0,,7,,,55,127
61331,note_on,0,0,0,,12,,,71,127
61490,note_on,159,0,0,,7,,,67,127
61647,note_off,157,0,0,,7,,,67,127
61649,note_on,2,0,0,,7,,,67,127
61679,note_off,30,0,0,,12,,,71,127
61806,note_off,127,0,0,,7,,,67,127
61806,note_off,0,0,0,,7,,,55,127
61806,note_off,0,0,0,,5,,,65,127
61808,note_on,2,0,0,,5,,,65,127
61808,note_on,0,0,0,,7,,,55,127
61808,note_on,0,0,0,,12,,,71,127
61967,note_on,159,0,0,,7,,,67,127
62124,note_off,157,0,0,,7,,,67,127
62126,note_on,2,0,0,,7,,,67,127
62205,note_off,79,0,0,,12,,,71,127
62283,note_off,78,0,0,,7,,,67,127
62283,note_off,0,0,0,,7,,,55,127
62283,note_off,0,0,0,,5,,,65,127
62285,note_on,2,0,0,,7,,,55,127
62285,note_on,0,0,0,,3,,,63,127
62285,note_on,0,0,0,,0,,,72,127
62444,note_on,159,0,0,,7,,,67,127
62601,note_off,157,0,0,,7,,,67,127
62603,note_on,2,0,0,,7,,,67,127
62758,note_off,155,0,0,,0,,,72,127
62760,note_off,2,0,0,,7,,,67,127
62760,note_off,0,0,0,,3,,,63,127
62760,note_off,0,0,0,,7,,,55,127
62762,note_on,2,0,0,,7,,,55,127
62762,note_on,0,0,0,,3,,,63,127
62762,note_on,0,0,0,,0,,,72,127
62921,note_on,159,0,0,,7,,,67,127
63078,note_off,157,0,0,,7,,,67,127
63080,note_on,2,0,0,,7,,,67,127
63235,note_off,155,0,0,,0,,,72,127
63237,note_off,2,0,0,,7,,,67,127
63237,note_off,0,0,0,,3,,,63,127
63237,note_off,0,0,0,,7,,,55,127
63239,note_on,2,0,0,,2,,,62,127
63239,note_on,0,0,0,,7,,,55,127
63239,note_on,0,0,0,,12,,,71,127
63398,note_on,159,0,0,,5,,,65,127
63555,note_off,157,0,0,,5,,,65,127
63557,note_on,2,0,0,,5,,,65,127
63712,note_off,155,0,0,,12,,,71,127
63714,note_off,2,0,0,,5,,,65,127
63714,note_off,0,0,0,,2,,,62,127
63716,note_on,2,0,0,,0,,,60,127
63716,note_on,0,0,0,,0,,,72,127
63875,note_on,159,0,0,,8,,,68,127
64032,note_off,157,0,0,,8,,,68,127
64034,note_on,2,0,0,,8,,,68,127
64189,note_off,155,0,0,,0,,,72,127
64191,note_off,2,0,0,,8,,,68,127
64191,note_off,0,0,0,,0,,,60,127
64191,note_off,0,0,0,,7,,,55,127
64193,note_on,2,0,0,,2,,,62,127
64193,note_on,0,0,0,,12,,,59,127
64193,note_on,0,0,0,,2,,,74,127
64352,note_on,159,0,0,,7,,,67,127
64509,note_off,157,0,0,,7,,,67,127
64511,note_on,2,0,0,,7,,,67,127
64666,note_off,155,0,0,,2,,,74,127
64668,note_off,2,0,0,,7,,,67,127
64668,note_off,0,0,0,,12,,,59,127
64668,note_off,0,0,0,,2,,,62,127
64670,note_on,2,0,0,,12,,,59,127
64670,note_on,0,0,0,,2,,,62,127
64670,note_on,0,0,0,,2,,,74,127
64829,note_on,159,0,0,,7,,,67,127
64986,note_off,157,0,0,,7,,,67,127
64988,note_on,2,0,0,,7,,,67,127
65143,note_off,155,0,0,,2,,,74,127
65145,note_off,2,0,0,,7,,,67,127
65145,note_off,0,0,0,,2,,,62,127
65145,note_off,0,0,0,,12,,,59,127
65147,note_on,2,0,0,,2,,,62,127
65147,note_on,0,0,0,,12,,,59,127
65147,note_on,0,0,0,,2,,,74,127
65306,note_on,159,0,0,,7,,,67,127
65463,note_off,157,0,0,,7,,,67,127
65465,note_on,2,0,0,,7,,,67,127
65620,note_off,155,0,0,,2,,,74,127
65622,note_off,2,0,0,,7,,,67,127
65622,note_off,0,0,0,,12,,,59,127
65622,note_off,0,0,0,,2,,,62,127
65624,note_on,2,0,0,,4,,,64,127
65624,note_on,0,0,0,,12,,,59,127
65624,note_on,0,0,0,,2,,,74,127
65783,note_on,159,0,0,,8,,,68,127
65940,note_off,157,0,0,,8,,,68,127
65942,note_on,2,0,0,,8,,,68,127
66097,note_off,155,0,0,,2,,,74,127
66099,note_off,2,0,0,,8,,,68,127
66099,note_off,0,0,0,,12,,,59,127
66099,note_off,0,0,0,,4,,,64,127
66101,note_on,2,0,0,,5,,,65,127
66101,note_on,0,0,0,,10,,,57,127
66101,note_on,0,0,0,,2,,,74,127
66260,note_on,159,0,0,,10,,,69,127
66417,note_off,157,0,0,,10,,,69,127
66419,note_on,2,0,0,,10,,,69,127
66574,note_off,155,0,0,,2,,,74,127
66576,note_off,2,0,0,,10,,,69,127
66576,note_off,0,0,0,,10,,,57,127
66576,note_off,0,0,0,,5,,,65,127
66578,note_on,2,0,0,,5,,,65,127
66578,note_on,0,0,0,,10,,,57,127
66578,note_on,0,0,0,,2,,,74,127
66737,note_on,159,0,0,,10,,,69,127
66894,note_off,157,0,0,,10,,,69,127
66896,note_on,2,0,0,,10,,,69,127
67051,note_off,155,0,0,,2,,,74,127
67053,note_off,2,0,0,,10,,,69,127
67053,note_off,0,0,0,,10,,,57,127
67053,note_off,0,0,0,,5,,,65,127
67055,note_on,2,0,0,,4,,,64,127
67055,note_on,0,0,0,,10,,,57,127
67055,note_on,0,0,0,,0,,,72,127
67214,note_on,159,0,0,,10,,,69,127
67371,note_off,157,0,0,,10,,,69,127
67373,note_on,2,0,0,,10,,,69,127
67528,note_off,155,0,0,,0,,,72,127
67530,note_off,2,0,0,,10,,,69,127
67530,note_off,0,0,0,,10,,,57,127
67532,note_on,2,0,0,,12,,,59,127
67532,note_on,0,0,0,,3,,,75,127
67691,note_on,159,0,0,,10,,,69,127
67848,note_off,157,0,0,,10,,,69,127
67850,note_on,2,0,0,,10,,,69,127
68005,note_off,155,0,0,,3,,,75,127
68007,note_off,2,0,0,,10,,,69,127
68007,note_off,0,0,0,,12,,,59,127
68007,note_off,0,0,0,,4,,,64,127
68009,note_on,2,0,0,,0,,,60,127
68009,note_on,0,0,0,,4,,,64,127
68009,note_on,0,0,0,,4,,,76,127
68168,note_on,159,0,0,,10,,,69,127
68325,note_off,157,0,0,,10,,,69,127
68327,note_on,2,0,0,,10,,,69,127
68482,note_off,155,0,0,,4,,,76,127
68484,note_off,2,0,0,,10,,,69,127
68484,note_off,0,0,0,,4,,,64,127
68484,note_off,0,0,0,,0,,,60,127
68486,note_on,2,0,0,,4,,,64,127
68486,note_on,0,0,0,,0,,,60,127
68486,note_on,0,0,0,,4,,,76,127
68645,note_on,159,0,0,,10,,,69,127
68802,note_off,157,0,0,,10,,,69,127
68804,note_on,2,0,0,,10,,,69,127
68959,note_off,155,0,0,,4,,,76,127
68961,note_off,2,0,0,,10,,,69,127
68961,note_off,0,0,0,,0,,,60,127
68961,note_off,0,0,0,,4,,,64,127
68963,note_on,2,0,0,,0,,,60,127
68963,note_on,0,0,0,,4,,,64,127
68963,note_on,0,0,0,,4,,,76,127
69122,note_on,159,0,0,,10,,,69,127
69279,note_off,157,0,0,,10,,,69,127
69281,note_on,2,0,0,,10,,,69,127
69436,note_off,155,0,0,,4,,,76,127
69438,note_off,2,0,0,,10,,,69,127
69438,note_off,0,0,0,,4,,,64,127
69438,note_off,0,0,0,,0,,,60,127
69440,note_on,2,0,0,,6,,,66,127
69440,note_on,0,0,0,,0,,,60,127
69440,note_on,0,0,0,,4,,,76,127
69599,note_on,159,0,0,,10,,,69,127
69756,note_off,157,0,0,,10,,,69,127
69758,note_on,2,0,0,,10,,,69,127
69913,note_off,155,0,0,,4,,,76,127
69915,note_off,2,0,0,,10,,,69,127
69915,note_off,0,0,0,,0,,,60,127
69915,note_off,0,0,0,,6,,,66,127
69917,note_on,2,0,0,,7,,,67,127
69917,note_on,0,0,0,,12,,,59,127
69917,note_on,0,0,0,,4,,,76,127
70076,note_on,159,0,0,,12,,,71,127
70233,note_off,157,0,0,,12,,,71,127
70235,note_on,2,0,0,,12,,,71,127
70390,note_off,155,0,0,,4,,,76,127
70392,note_off,2,0,0,,12,,,71,127
70392,note_off,0,0,0,,12,,,59,127
70392,note_off,0,0,0,,7,,,67,127
70394,note_on,2,0,0,,7,,,67,127
70394,note_on,0,0,0,,12,,,59,127
70394,note_on,0,0,0,,4,,,76,127
70553,note_on,159,0,0,,12,,,71,127
70710,note_off,157,0,0,,12,,,71,127
70712,note_on,2,0,0,,12,,,71,127
70867,note_off,155,0,0,,4,,,76,127
70869,note_off,2,0,0,,12,,,59,127
70869,note_off,0,0,0,,7,,,67,127
70877,note_on,8,0,0,,8,,,68,127
70877,note_on,0,0,0,,2,,,62,127
70877,note_on,0,0,0,,4,,,64,127
70877,note_on,0,0,0,,12,,,59,127
70877,note_on,0,0,0,,12,,,83,127
70878,note_off,1,0,0,,12,,,71,127
71036,note_on,158,0,0,,2,,,74,127
71193,note_off,157,0,0,,2,,,74,127
71195,note_on,2,0,0,,2,,,74,127
71350,note_off,155,0,0,,12,,,83,127
71352,note_off,2,0,0,,2,,,74,127
71352,note_off,0,0,0,,12,,,59,127
71352,note_off,0,0,0,,4,,,64,127
71352,note_off,0,0,0,,2,,,62,127
71352,note_off,0,0,0,,8,,,68,127
71354,note_on,2,0,0,,4,,,64,127
71354,note_on,0,0,0,,8,,,68,127
71354,note_on,0,0,0,,12,,,59,127
71354,note_on,0,0,0,,2,,,62,127
71354,note_on,0,0,0,,12,,,83,127
71513,note_on,159,0,0,,2,,,74,127
71670,note_off,157,0,0,,2,,,74,127
71672,note_on,2,0,0,,2,,,74,127
71827,note_off,155,0,0,,12,,,83,127
71829,note_off,2,0,0,,2,,,74,127
71829,note_off,0,0,0,,2,,,62,127
71829,note_off,0,0,0,,12,,,59,127
71829,note_off,0,0,0,,8,,,68,127
71829,note_off,0,0,0,,4,,,64,127
71831,note_on,2,0,0,,2,,,62,127
71831,note_on,0,0,0,,5,,,65,127
71831,note_on,0,0,0,,10,,,57,127
71831,note_on,0,0,0,,12,,,83,127
71990,note_on,159,0,0,,2,,,74,127
72147,note_off,157,0,0,,2,,,74,127
72149,note_on,2,0,0,,2,,,74,127
72304,note_off,155,0,0,,12,,,83,127
72306,note_off,2,0,0,,2,,,74,127
72306,note_off,0,0,0,,10,,,57,127
72306,note_off,0,0,0,,5,,,65,127
72306,note_off,0,0,0,,2,,,62,127
72308,note_on,2,0,0,,5,,,65,127
72308,note_on,0,0,0,,2,,,62,127
72308,note_on,0,0,0,,10,,,57,127
72308,note_on,0,0,0,,12,,,83,127
72467,note_on,159,0,0,,4,,,76,127
72624,note_off,157,0,0,,4,,,76,127
72626,note_on,2,0,0,,4,,,76,127
72781,note_off,155,0,0,,12,,,83,127
72783,note_off,2,0,0,,4,,,76,127
72783,note_off,0,0,0,,10,,,57,127
72783,note_off,0,0,0,,2,,,62,127
72783,note_off,0,0,0,,5,,,65,127
72785,note_on,2,0,0,,2,,,62,127
72785,note_on,0,0,0,,5,,,65,127
72785,note_on,0,0,0,,10,,,57,127
72785,note_on,0,0,0,,12,,,83,127
72944,note_on,159,0,0,,5,,,77,127
73101,note_off,157,0,0,,5,,,77,127
73103,note_on,2,0,0,,5,,,77,127
73258,note_off,155,0,0,,12,,,83,127
73260,note_off,2,0,0,,5,,,77,127
73260,note_off,0,0,0,,10,,,57,127
73260,note_off,0,0,0,,5,,,65,127
73260,note_off,0,0,0,,2,,,62,127
73262,note_on,2,0,0,,2,,,62,127
73262,note_on,0,0,0,,5,,,65,127
73262,note_on,0,0,0,,10,,,57,127
73262,note_on,0,0,0,,0,,,84,127
73421,note_on,159,0,0,,5,,,77,127
73578,note_off,157,0,0,,5,,,77,127
73580,note_on,2,0,0,,5,,,77,127
73735,note_off,155,0,0,,0,,,84,127
73737,note_off,2,0,0,,5,,,77,127
73737,note_off,0,0,0,,10,,,57,127
73737,note_off,0,0,0,,5,,,65,127
73737,note_off,0,0,0,,2,,,62,127
73739,note_on,2,0,0,,5,,,65,127
73739,note_on,0,0,0,,2,,,62,127
73739,note_on,0,0,0,,7,,,55,127
73739,note_on,0,0,0,,2,,,86,127
73898,note_on,159,0,0,,5,,,77,127
74055,note_off,157,0,0,,5,,,77,127
74057,note_on,2,0,0,,5,,,77,127
74212,note_off,155,0,0,,2,,,86,127
74214,note_off,2,0,0,,5,,,77,127
74214,note_off,0,0,0,,7,,,55,127
74214,note_off,0,0,0,,2,,,62,127
74214,note_off,0,0,0,,5,,,65,127
74216,note_on,2,0,0,,5,,,65,127
74216,note_on,0,0,0,,7,,,55,127
74216,note_on,0,0,0,,2,,,62,127
74216,note_on,0,0,0,,2,,,86,127
74375,note_on,159,0,0,,5,,,77,127
74531,note_off,156,0,0,,2,,,86,127
74533,note_off,2,0,0,,5,,,77,127
74535,note_on,2,0,0,,2,,,86,127
74692,note_off,157,0,0,,2,,,86,127
74692,note_off,0,0,0,,2,,,62,127
74692,note_off,0,0,0,,7,,,55,127
74692,note_off,0,0,0,,5,,,65,127
74694,note_on,2,0,0,,4,,,64,127
74694,note_on,0,0,0,,7,,,55,127
74694,note_on,0,0,0,,0,,,60,127
74694,note_on,0,0,0,,0,,,84,127
74853,note_on,159,0,0,,4,,,76,127
74876,note_off,23,0,0,,0,,,84,127
75010,note_off,134,0,0,,4,,,76,127
75012,note_on,2,0,0,,0,,,84,127
75169,note_off,157,0,0,,0,,,84,127
75169,note_off,0,0,0,,0,,,60,127
75169,note_off,0,0,0,,7,,,55,127
75169,note_off,0,0,0,,4,,,64,127
75171,note_on,2,0,0,,2,,,62,127
75171,note_on,0,0,0,,5,,,65,127
75171,note_on,0,0,0,,7,,,55,127
75171,note_on,0,0,0,,12,,,83,127
75330,note_on,159,0,0,,2,,,74,127
75353,note_off,23,0,0,,12,,,83,127
75487,note_off,134,0,0,,2,,,74,127
75489,note_on,2,0,0,,12,,,83,127
75646,note_off,157,0,0,,12,,,83,127
75646,note_off,0,0,0,,7,,,55,127
75646,note_off,0,0,0,,5,,,65,127
75646,note_off,0,0,0,,2,,,62,127
75648,note_on,2,0,0,,0,,,60,127
75648,note_on,0,0,0,,0,,,48,127
75648,note_on,0,0,0,,0,,,84,127
75807,note_on,159,0,0,,7,,,79,127
75964,note_off,157,0,0,,7,,,79,127
75966,note_on,2,0,0,,4,,,76,127
76123,note_off,157,0,0,,4,,,76,127
76125,note_on,2,0,0,,0,,,72,127
76228,note_off,103,0,0,,0,,,84,127
76258,note_off,30,0,0,,0,,,72,127
76298,note_on,40,0,0,,7,,,79,127
76455,note_off,157,0,0,,7,,,79,127
76457,note_on,2,0,0,,10,,,81,127
76601,note_off,144,0,0,,0,,,48,127
76601,note_off,0,0,0,,0,,,60,127
76614,note_off,13,0,0,,10,,,81,127
76616,note_on,2,0,0,,10,,,81,127
76616,note_on,0,0,0,,12,,,59,127
76616,note_on,0,0,0,,7,,,67,127
76616,note_on,0,0,0,,5,,,65,127
76773,note_off,157,0,0,,10,,,81,127
76775,note_on,2,0,0,,2,,,74,127
76932,note_off,157,0,0,,2,,,74,127
76934,note_on,2,0,0,,10,,,81,127
77091,note_off,157,0,0,,10,,,81,127
77091,note_off,0,0,0,,5,,,65,127
77091,note_off,0,0,0,,7,,,67,127
77091,note_off,0,0,0,,12,,,59,127
77093,note_on,2,0,0,,7,,,79,127
77093,note_on,0,0,0,,5,,,65,127
77093,note_on,0,0,0,,12,,,59,127
77093,note_on,0,0,0,,7,,,67,127
77171,note_off,78,0,0,,7,,,79,127
77173,note_on,2,0,0,,5,,,77,127
77251,note_off,78,0,0,,5,,,77,127
77253,note_on,2,0,0,,4,,,76,127
77410,note_off,157,0,0,,4,,,76,127
77412,note_on,2,0,0,,2,,,74,127
77569,note_off,157,0,0,,2,,,74,127
77569,note_off,0,0,0,,7,,,67,127
77569,note_off,0,0,0,,12,,,59,127
77569,note_off,0,0,0,,5,,,65,127
77571,note_on,2,0,0,,4,,,76,127
77571,note_on,0,0,0,,0,,,60,127
77571,note_on,0,0,0,,7,,,67,127
77728,note_off,157,0,0,,4,,,76,127
77730,note_on,2,0,0,,5,,,77,127
77887,note_off,157,0,0,,5,,,77,127
77889,note_on,2,0,0,,7,,,79,127
78046,note_off,157,0,0,,7,,,67,127
78046,note_off,0,0,0,,0,,,60,127
78048,note_on,2,0,0,,0,,,60,127
78048,note_on,0,0,0,,7,,,67,127
78127,note_off,79,0,0,,7,,,79,127
78206,note_on,79,0,0,,7,,,79,127
78363,note_off,157,0,0,,7,,,79,127
78365,note_on,2,0,0,,10,,,81,127
78522,note_off,157,0,0,,10,,,81,127
78522,note_off,0,0,0,,7,,,67,127
78522,note_off,0,0,0,,0,,,60,127
78524,note_on,2,0,0,,10,,,81,127
78524,note_on,0,0,0,,12,,,59,127
78524,note_on,0,0,0,,5,,,65,127
78524,note_on,0,0,0,,7,,,67,127
78681,note_off,157,0,0,,10,,,81,127
78683,note_on,2,0,0,,2,,,74,127
78840,note_off,157,0,0,,2,,,74,127
78842,note_on,2,0,0,,10,,,81,127
78999,note_off,157,0,0,,10,,,81,127
78999,note_off,0,0,0,,7,,,67,127
78999,note_off,0,0,0,,5,,,65,127
78999,note_off,0,0,0,,12,,,59,127
79001,note_on,2,0,0,,7,,,79,127
79001,note_on,0,0,0,,12,,,59,127
79001,note_on,0,0,0,,7,,,67,127
79001,note_on,0,0,0,,5,,,65,127
79079,note_off,78,0,0,,7,,,79,127
79081,note_on,2,0,0,,5,,,77,127
79159,note_off,78,0,0,,5,,,77,127
79161,note_on,2,0,0,,4,,,76,127
79318,note_off,157,0,0,,4,,,76,127
79320,note_on,2,0,0,,2,,,74,127
79477,note_off,157,0,0,,2,,,74,127
79477,note_off,0,0,0,,5,,,65,127
79477,note_off,0,0,0,,7,,,67,127
79477,note_off,0,0,0,,12,,,59,127
79479,note_on,2,0,0,,4,,,76,127
79479,note_on,0,0,0,,0,,,60,127
79479,note_on,0,0,0,,7,,,67,127
79636,note_off,157,0,0,,4,,,76,127
79638,note_on,2,0,0,,5,,,77,127
79795,note_off,157,0,0,,5,,,77,127
79797,note_on,2,0,0,,7,,,79,127
79954,note_off,157,0,0,,7,,,67,127
79954,note_off,0,0,0,,0,,,60,127
79956,note_on,2,0,0,,0,,,60,127
79956,note_on,0,0,0,,7,,,67,127
80035,note_off,79,0,0,,7,,,79,127
80114,note_on,79,0,0,,7,,,79,127
80271,note_off,157,0,0,,7,,,79,127
80273,note_on,2,0,0,,4,,,76,127
80430,note_off,157,0,0,,4,,,76,127
80430,note_off,0,0,0,,7,,,67,127
80430,note_off,0,0,0,,0,,,60,127
80432,note_on,2,0,0,,2,,,74,127
80432,note_on,0,0,0,,10,,,57,127
80432,note_on,0,0,0,,7,,,67,127
80510,note_off,78,0,0,,2,,,74,127
80512,note_on,2,0,0,,0,,,72,127
80590,note_off,78,0,0,,0,,,72,127
80592,note_on,2,0,0,,12,,,71,127
80749,note_off,157,0,0,,12,,,71,127
80751,note_on,2,0,0,,0,,,72,127
80908,note_off,157,0,0,,0,,,72,127
80908,note_off,0,0,0,,7,,,67,127
80908,note_off,0,0,0,,10,,,57,127
80910,note_on,2,0,0,,2,,,74,127
80910,note_on,0,0,0,,10,,,57,127
80910,note_on,0,0,0,,6,,,66,127
80988,note_off,78,0,0,,2,,,74,127
80990,note_on,2,0,0,,0,,,72,127
81068,note_off,78,0,0,,0,,,72,127
81070,note_on,2,0,0,,12,,,71,127
81227,note_off,157,0,0,,12,,,71,127
81229,note_on,2,0,0,,0,,,72,127
81386,note_off,157,0,0,,0,,,72,127
81386,note_off,0,0,0,,6,,,66,127
81386,note_off,0,0,0,,10,,,57,127
81388,note_on,2,0,0,,2,,,74,127
81388,note_on,0,0,0,,7,,,55,127
81388,note_on,0,0,0,,7,,,67,127
81545,note_off,157,0,0,,2,,,74,127
81547,note_on,2,0,0,,6,,,78,127
81704,note_off,157,0,0,,6,,,78,127
81706,note_on,2,0,0,,7,,,79,127
81863,note_off,157,0,0,,7,,,67,127
81863,note_off,0,0,0,,7,,,55,127
81865,note_on,2,0,0,,7,,,67,127
81865,note_on,0,0,0,,12,,,59,127
81944,note_off,79,0,0,,7,,,79,127
82023,note_on,79,0,0,,7,,,79,127
82180,note_off,157,0,0,,7,,,79,127
82182,note_on,2,0,0,,4,,,76,127
82339,note_off,157,0,0,,4,,,76,127
82339,note_off,0,0,0,,12,,,59,127
82339,note_off,0,0,0,,7,,,67,127
82341,note_on,2,0,0,,2,,,74,127
82341,note_on,0,0,0,,10,,,57,127
82341,note_on,0,0,0,,7,,,67,127
82419,note_off,78,0,0,,2,,,74,127
82421,note_on,2,0,0,,0,,,72,127
82499,note_off,78,0,0,,0,,,72,127
82501,note_on,2,0,0,,12,,,71,127
82658,note_off,157,0,0,,12,,,71,127
82660,note_on,2,0,0,,0,,,72,127
82817,note_off,157,0,0,,0,,,72,127
82817,note_off,0,0,0,,7,,,67,127
82817,note_off,0,0,0,,10,,,57,127
82819,note_on,2,0,0,,0,,,84,127
82819,note_on,0,0,0,,6,,,66,127
82819,note_on,0,0,0,,10,,,57,127
82976,note_off,157,0,0,,0,,,84,127
82978,note_on,2,0,0,,10,,,81,127
83135,note_off,157,0,0,,10,,,81,127
83137,note_on,2,0,0,,6,,,78,127
83294,note_off,157,0,0,,6,,,78,127
83294,note_off,0,0,0,,10,,,57,127
83294,note_off,0,0,0,,6,,,66,127
83296,note_on,2,0,0,,6,,,78,127
83296,note_on,0,0,0,,7,,,55,127
83296,note_on,0,0,0,,7,,,67,127
83612,note_off,316,0,0,,6,,,78,127
83614,note_on,2,0,0,,7,,,79,127
83771,note_off,157,0,0,,7,,,79,127
83771,note_off,0,0,0,,7,,,67,127
83771,note_off,0,0,0,,7,,,55,127
83779,note_on,8,0,0,,2,,,62,127
83779,note_on,0,0,0,,7,,,67,127
83938,note_on,159,0,0,,0,,,84,127
84095,note_off,157,0,0,,0,,,84,127
84097,note_on,2,0,0,,7,,,79,127
84254,note_off,157,0,0,,7,,,79,127
84254,note_off,0,0,0,,7,,,67,127
84254,note_off,0,0,0,,2,,,62,127
84256,note_on,2,0,0,,7,,,79,127
84256,note_on,0,0,0,,2,,,62,127
84256,note_on,0,0,0,,5,,,65,127
84413,note_off,157,0,0,,7,,,79,127
84415,note_on,2,0,0,,10,,,81,127
84572,note_off,157,0,0,,10,,,81,127
84574,note_on,2,0,0,,5,,,77,127
84731,note_off,157,0,0,,5,,,77,127
84731,note_off,0,0,0,,5,,,65,127
84731,note_off,0,0,0,,2,,,62,127
84733,note_on,2,0,0,,5,,,77,127
84733,note_on,0,0,0,,12,,,59,127
84733,note_on,0,0,0,,5,,,65,127
84733,note_on,0,0,0,,7,,,67,127
84890,note_off,157,0,0,,5,,,77,127
84892,note_on,2,0,0,,7,,,79,127
85049,note_off,157,0,0,,7,,,79,127
85051,note_on,2,0,0,,2,,,74,127
85208,note_off,157,0,0,,2,,,74,127
85208,note_off,0,0,0,,7,,,67,127
85208,note_off,0,0,0,,5,,,65,127
85208,note_off,0,0,0,,12,,,59,127
85210,note_on,2,0,0,,2,,,74,127
85210,note_on,0,0,0,,0,,,60,127
85367,note_off,157,0,0,,2,,,74,127
85369,note_on,2,0,0,,4,,,76,127
85526,note_off,157,0,0,,4,,,76,127
85528,note_on,2,0,0,,12,,,71,127
85685,note_off,157,0,0,,12,,,71,127
85685,note_off,0,0,0,,0,,,60,127
85687,note_on,2,0,0,,12,,,71,127
85687,note_on,0,0,0,,4,,,52,127
85844,note_off,157,0,0,,12,,,71,127
85846,note_on,2,0,0,,0,,,72,127
86003,note_off,157,0,0,,0,,,72,127
86005,note_on,2,0,0,,7,,,67,127
86162,note_off,157,0,0,,7,,,67,127
86162,note_off,0,0,0,,4,,,52,127
86164,note_on,2,0,0,,10,,,69,127
86164,note_on,0,0,0,,5,,,53,127
86321,note_off,157,0,0,,10,,,69,127
86323,note_on,2,0,0,,5,,,77,127
86323,note_on,0,0,0,,10,,,81,127
86480,note_off,157,0,0,,10,,,81,127
86480,note_off,0,0,0,,5,,,77,127
86482,note_on,2,0,0,,7,,,79,127
86482,note_on,0,0,0,,4,,,76,127
86639,note_off,157,0,0,,4,,,76,127
86639,note_off,0,0,0,,7,,,79,127
86639,note_off,0,0,0,,5,,,53,127
86641,note_on,2,0,0,,5,,,77,127
86641,note_on,0,0,0,,2,,,74,127
86641,note_on,0,0,0,,7,,,55,127
86798,note_off,157,0,0,,2,,,74,127
86798,note_off,0,0,0,,5,,,77,127
86800,note_on,2,0,0,,4,,,76,127
86800,note_on,0,0,0,,0,,,72,127
86957,note_off,157,0,0,,0,,,72,127
86957,note_off,0,0,0,,4,,,76,127
86959,note_on,2,0,0,,12,,,71,127
86959,note_on,0,0,0,,2,,,74,127
87116,note_off,157,0,0,,2,,,74,127
87116,note_off,0,0,0,,12,,,71,127
87116,note_off,0,0,0,,7,,,55,127
87118,note_on,2,0,0,,12,,,71,127
87118,note_on,0,0,0,,2,,,74,127
87118,note_on,0,0,0,,0,,,48,127
87434,note_off,316,0,0,,2,,,74,127
87434,note_off,0,0,0,,12,,,71,127
87436,note_on,2,0,0,,0,,,72,127
87593,note_off,157,0,0,,0,,,48,127
87608,note_on,15,0,0,,4,,,64,127
87608,note_on,0,0,0,,7,,,67,127
87752,note_off,144,0,0,,0,,,72,127
87767,note_on,15,0,0,,0,,,84,127
87924,note_off,157,0,0,,0,,,84,127
87926,note_on,2,0,0,,7,,,79,127
88083,note_off,157,0,0,,7,,,79,127
88083,note_off,0,0,0,,7,,,67,127
88083,note_off,0,0,0,,4,,,64,127
88085,note_on,2,0,0,,5,,,65,127
88085,note_on,0,0,0,,2,,,62,127
88085,note_on,0,0,0,,7,,,79,127
88242,note_off,157,0,0,,7,,,79,127
88244,note_on,2,0,0,,10,,,81,127
88401,note_off,157,0,0,,10,,,81,127
88403,note_on,2,0,0,,5,,,77,127
88560,note_off,157,0,0,,2,,,62,127
88560,note_off,0,0,0,,5,,,65,127
88562,note_on,2,0,0,,7,,,67,127
88562,note_on,0,0,0,,5,,,65,127
88562,note_on,0,0,0,,12,,,59,127
88714,note_off,152,0,0,,5,,,77,127
88721,note_on,7,0,0,,7,,,79,127
88878,note_off,157,0,0,,7,,,79,127
88880,note_on,2,0,0,,2,,,74,127
89037,note_off,157,0,0,,2,,,74,127
89037,note_off,0,0,0,,12,,,59,127
89037,note_off,0,0,0,,5,,,65,127
89037,note_off,0,0,0,,7,,,67,127
89039,note_on,2,0,0,,0,,,60,127
89039,note_on,0,0,0,,2,,,74,127
89196,note_off,157,0,0,,2,,,74,127
89198,note_on,2,0,0,,4,,,76,127
89355,note_off,157,0,0,,4,,,76,127
89357,note_on,2,0,0,,12,,,71,127
89514,note_off,157,0,0,,0,,,60,127
89516,note_on,2,0,0,,4,,,52,127
89668,note_off,152,0,0,,12,,,71,127
89675,note_on,7,0,0,,0,,,72,127
89832,note_off,157,0,0,,0,,,72,127
89834,note_on,2,0,0,,7,,,67,127
89991,note_off,157,0,0,,7,,,67,127
89991,note_off,0,0,0,,4,,,52,127
89993,note_on,2,0,0,,5,,,53,127
89993,note_on,0,0,0,,10,,,69,127
90150,note_off,157,0,0,,10,,,69,127
90152,note_on,2,0,0,,5,,,77,127
90152,note_on,0,0,0,,10,,,81,127
90309,note_off,157,0,0,,10,,,81,127
90309,note_off,0,0,0,,5,,,77,127
90311,note_on,2,0,0,,7,,,79,127
90311,note_on,0,0,0,,4,,,76,127
90468,note_off,157,0,0,,4,,,76,127
90468,note_off,0,0,0,,7,,,79,127
90468,note_off,0,0,0,,5,,,53,127
90470,note_on,2,0,0,,7,,,55,127
90470,note_on,0,0,0,,2,,,74,127
90470,note_on,0,0,0,,5,,,77,127
90627,note_off,157,0,0,,5,,,77,127
90627,note_off,0,0,0,,2,,,74,127
90629,note_on,2,0,0,,4,,,76,127
90629,note_on,0,0,0,,0,,,72,127
90786,note_off,157,0,0,,0,,,72,127
90786,note_off,0,0,0,,4,,,76,127
90788,note_on,2,0,0,,2,,,74,127
90788,note_on,0,0,0,,12,,,71,127
90945,note_off,157,0,0,,12,,,71,127
90945,note_off,0,0,0,,2,,,74,127
90945,note_off,0,0,0,,7,,,55,127
90947,note_on,2,0,0,,0,,,60,127
90947,note_on,0,0,0,,2,,,74,127
90947,note_on,0,0,0,,12,,,71,127
91104,note_off,157,0,0,,0,,,60,127
91106,note_on,2,0,0,,7,,,55,127
91263,note_off,157,0,0,,7,,,55,127
91263,note_off,0,0,0,,12,,,71,127
91263,note_off,0,0,0,,2,,,74,127
91270,note_on,7,0,0,,0,,,48,127
91270,note_on,0,0,0,,0,,,72,127
91427,note_off,157,0,0,,0,,,72,127
91427,note_off,0,0,0,,0,,,48,127
91437,note_on,10,0,0,,7,,,79,127
91437,note_on,0,0,0,,7,,,43,127
91515,note_off,78,0,0,,7,,,79,127
91517,note_on,2,0,0,,5,,,77,127
91595,note_off,78,0,0,,5,,,77,127
91597,note_on,2,0,0,,4,,,76,127
91675,note_off,78,0,0,,4,,,76,127
91677,note_on,2,0,0,,2,,,74,127
91755,note_off,78,0,0,,2,,,74,127
91757,note_on,2,0,0,,0,,,72,127
91835,note_off,78,0,0,,0,,,72,127
91837,note_on,2,0,0,,12,,,71,127
91915,note_off,78,0,0,,12,,,71,127
91915,note_off,0,0,0,,7,,,43,127
91917,note_on,2,0,0,,0,,,84,127
91917,note_on,0,0,0,,0,,,60,127
92074,note_off,157,0,0,,0,,,60,127
92076,note_on,2,0,0,,7,,,55,127
92233,note_off,157,0,0,,7,,,55,127
92235,note_on,2,0,0,,0,,,48,127
92392,note_off,157,0,0,,0,,,48,127
92392,note_off,0,0,0,,0,,,84,127
92394,note_on,2,0,0,,7,,,79,127
92394,note_on,0,0,0,,7,,,43,127
92472,note_off,78,0,0,,7,,,79,127
92474,note_on,2,0,0,,5,,,77,127
92552,note_off,78,0,0,,5,,,77,127
92554,note_on,2,0,0,,4,,,76,127
92632,note_off,78,0,0,,4,,,76,127
92634,note_on,2,0,0,,2,,,74,127
92712,note_off,78,0,0,,2,,,74,127
92714,note_on,2,0,0,,0,,,72,127
92792,note_off,78,0,0,,0,,,72,127
92794,note_on,2,0,0,,12,,,71,127
92872,note_off,78,0,0,,12,,,71,127
92872,note_off,0,0,0,,7,,,43,127
92874,note_on,2,0,0,,0,,,84,127
92874,note_on,0,0,0,,0,,,60,127
93031,note_off,157,0,0,,0,,,60,127
93033,note_on,2,0,0,,7,,,55,127
93190,note_off,157,0,0,,7,,,55,127
93192,note_on,2,0,0,,0,,,48,127
93349,note_off,157,0,0,,0,,,48,127
93349,note_off,0,0,0,,0,,,84,127
93351,note_on,2,0,0,,7,,,79,127
93351,note_on,0,0,0,,7,,,43,127
93429,note_off,78,0,0,,7,,,79,127
93431,note_on,2,0,0,,5,,,77,127
93509,note_off,78,0,0,,5,,,77,127
93511,note_on,2,0,0,,4,,,76,127
93589,note_off,78,0,0,,4,,,76,127
93591,note_on,2,0,0,,2,,,74,127
93669,note_off,78,0,0,,2,,,74,127
93671,note_on,2,0,0,,0,,,72,127
93749,note_off,78,0,0,,0,,,72,127
93751,note_on,2,0,0,,12,,,71,127
93829,note_off,78,0,0,,12,,,71,127
93829,note_off,0,0,0,,7,,,43,127
93831,note_on,2,0,0,,7,,,79,127
93831,note_on,0,0,0,,0,,,48,127
93988,note_off,157,0,0,,0,,,48,127
93990,note_on,2,0,0,,0,,,60,127
94147,note_off,157,0,0,,0,,,60,127
94147,note_off,0,0,0,,7,,,79,127
94149,note_on,2,0,0,,0,,,72,127
94149,note_on,0,0,0,,4,,,52,127
94306,note_off,157,0,0,,4,,,52,127
94306,note_off,0,0,0,,0,,,72,127
94308,note_on,2,0,0,,4,,,76,127
94308,note_on,0,0,0,,5,,,53,127
94386,note_off,78,0,0,,4,,,76,127
94388,note_on,2,0,0,,2,,,74,127
94466,note_off,78,0,0,,2,,,74,127
94468,note_on,2,0,0,,0,,,72,127
94625,note_off,157,0,0,,0,,,72,127
94625,note_off,0,0,0,,5,,,53,127
94627,note_on,2,0,0,,12,,,71,127
94627,note_on,0,0,0,,7,,,55,127
94784,note_off,157,0,0,,7,,,55,127
94784,note_off,0,0,0,,12,,,71,127
94786,note_on,2,0,0,,0,,,72,127
94786,note_on,0,0,0,,0,,,48,127
94943,note_off,157,0,0,,0,,,72,127
94958,note_on,15,0,0,,7,,,79,127
95115,note_off,157,0,0,,7,,,79,127
95117,note_on,2,0,0,,10,,,81,127
95261,note_off,144,0,0,,0,,,48,127
95274,note_off,13,0,0,,10,,,81,127
95276,note_on,2,0,0,,12,,,59,127
95276,note_on,0,0,0,,10,,,81,127
95433,note_off,157,0,0,,10,,,81,127
95435,note_on,2,0,0,,2,,,74,127
95592,note_off,157,0,0,,2,,,74,127
95594,note_on,2,0,0,,5,,,77,127
95751,note_off,157,0,0,,5,,,77,127
95751,note_off,0,0,0,,12,,,59,127
95753,note_on,2,0,0,,0,,,60,127
95753,note_on,0,0,0,,4,,,76,127
95910,note_off,157,0,0,,4,,,76,127
95912,note_on,2,0,0,,7,,,79,127
96069,note_off,157,0,0,,7,,,79,127
96069,note_off,0,0,0,,0,,,60,127
96071,note_on,2,0,0,,4,,,52,127
96071,note_on,0,0,0,,0,,,72,127
96228,note_off,157,0,0,,0,,,72,127
96228,note_off,0,0,0,,4,,,52,127
96230,note_on,2,0,0,,5,,,53,127
96230,note_on,0,0,0,,4,,,76,127
96308,note_off,78,0,0,,4,,,76,127
96310,note_on,2,0,0,,2,,,74,127
96388,note_off,78,0,0,,2,,,74,127
96390,note_on,2,0,0,,0,,,72,127
96547,note_off,157,0,0,,0,,,72,127
96547,note_off,0,0,0,,5,,,53,127
96549,note_on,2,0,0,,7,,,55,127
96549,note_on,0,0,0,,12,,,71,127
96706,note_off,157,0,0,,12,,,71,127
96706,note_off,0,0,0,,7,,,55,127
96708,note_on,2,0,0,,0,,,60,127
96708,note_on,0,0,0,,0,,,48,127
96708,note_on,0,0,0,,0,,,72,127
96865,note_off,157,0,0,,0,,,72,127
96880,note_on,15,0,0,,7,,,79,127
97037,note_off,157,0,0,,7,,,79,127
97039,note_on,2,0,0,,10,,,81,127
97183,note_off,144,0,0,,0,,,48,127
97183,note_off,0,0,0,,0,,,60,127
97196,note_off,13,0,0,,10,,,81,127
97198,note_on,2,0,0,,10,,,81,127
97198,note_on,0,0,0,,12,,,59,127
97355,note_off,157,0,0,,10,,,81,127
97357,note_on,2,0,0,,2,,,74,127
97514,note_off,157,0,0,,2,,,74,127
97516,note_on,2,0,0,,5,,,77,127
97673,note_off,157,0,0,,5,,,77,127
97673,note_off,0,0,0,,12,,,59,127
97675,note_on,2,0,0,,4,,,76,127
97675,note_on,0,0,0,,0,,,60,127
97832,note_off,157,0,0,,4,,,76,127
97834,note_on,2,0,0,,7,,,79,127
97991,note_off,157,0,0,,7,,,79,127
97991,note_off,0,0,0,,0,,,60,127
97993,note_on,2,0,0,,0,,,72,127
97993,note_on,0,0,0,,4,,,52,127
98150,note_off,157,0,0,,4,,,52,127
98150,note_off,0,0,0,,0,,,72,127
98152,note_on,2,0,0,,4,,,76,127
98152,note_on,0,0,0,,5,,,53,127
98230,note_off,78,0,0,,4,,,76,127
98232,note_on,2,0,0,,2,,,74,127
98310,note_off,78,0,0,,2,,,74,127
98312,note_on,2,0,0,,0,,,72,127
98469,note_off,157,0,0,,0,,,72,127
98469,note_off,0,0,0,,5,,,53,127
98471,note_on,2,0,0,,12,,,71,127
98471,note_on,0,0,0,,7,,,55,127
98628,note_off,157,0,0,,7,,,55,127
98628,note_off,0,0,0,,12,,,71,127
98630,note_on,2,0,0,,0,,,72,127
98630,note_on,0,0,0,,4,,,52,127
98789,note_on,159,0,0,,7,,,67,127
98946,note_off,157,0,0,,7,,,67,127
98946,note_off,0,0,0,,4,,,52,127
98948,note_on,2,0,0,,5,,,65,127
98948,note_on,0,0,0,,5,,,53,127
99105,note_off,157,0,0,,5,,,53,127
99105,note_off,0,0,0,,5,,,65,127
99107,note_on,2,0,0,,5,,,65,127
99107,note_on,0,0,0,,7,,,55,127
99264,note_off,157,0,0,,5,,,65,127
99266,note_on,2,0,0,,4,,,64,127
99423,note_off,157,0,0,,4,,,64,127
99423,note_off,0,0,0,,0,,,72,127
99438,note_on,15,0,0,,7,,,43,127
99438,note_on,0,0,0,,2,,,62,127
99438,note_on,0,0,0,,12,,,71,127
99583,note_off,145,0,0,,7,,,55,127
99595,note_off,12,0,0,,12,,,71,127
99595,note_off,0,0,0,,2,,,62,127
99595,note_off,0,0,0,,7,,,43,127
99615,note_on,20,0,0,,0,,,36,127
99615,note_on,0,0,0,,0,,,48,127
99615,note_on,0,0,0,,0,,,60,127
99615,note_on,0,0,0,,0,,,72,127
101318,note_off,1703,0,0,,0,,,72,127
101318,note_off,0,0,0,,0,,,60,127
101318,note_off,0,0,0,,0,,,48,127
101318,note_off,0,0,0,,0,,,36,127
102912,end_of_track,1594,1,0,,,,,,
