tick,type,time,meta,track,program,channel,pitch,tempo,note,velocity
0,copyright,0,1,0,,,,,,
0,program_change,0,0,0,6,0,,,,
0,pitchwheel,0,0,0,,0,0,,,
0,program_change,0,0,0,6,1,,,,
0,pitchwheel,0,0,0,,1,-590,,,
0,program_change,0,0,0,6,2,,,,
0,pitchwheel,0,0,0,,2,-272,,,
0,program_change,0,0,0,6,3,,,,
0,pitchwheel,0,0,0,,3,-353,,,
0,program_change,0,0,0,6,4,,,,
0,pitchwheel,0,0,0,,4,-560,,,
0,program_change,0,0,0,6,5,,,,
0,pitchwheel,0,0,0,,5,-80,,,
0,program_change,0,0,0,6,6,,,,
0,pitchwheel,0,0,0,,6,-625,,,
0,program_change,0,0,0,6,7,,,,
0,pitchwheel,0,0,0,,7,-130,,,
0,program_change,0,0,0,6,8,,,,
0,pitchwheel,0,0,0,,8,-512,,,
0,program_change,0,0,0,6,10,,,,
0,pitchwheel,0,0,0,,10,-464,,,
0,program_change,0,0,0,6,11,,,,
0,pitchwheel,0,0,0,,11,-208,,,
0,program_change,0,0,0,6,12,,,,
0,pitchwheel,0,0,0,,12,-553,,,
0,set_tempo,0,1,0,,,,500000,,
112,note_on,112,0,0,,0,,,60,127
112,note_on,0,0,0,,4,,,64,127
112,note_on,0,0,0,,4,,,76,127
333,note_off,221,0,0,,4,,,76,127
335,note_on,2,0,0,,2,,,74,127
445,note_off,110,0,0,,2,,,74,127
447,note_on,2,0,0,,4,,,76,127
557,note_off,110,0,0,,4,,,76,127
557,note_off,0,0,0,,4,,,64,127
557,note_off,0,0,0,,0,,,60,127
559,note_on,2,0,0,,2,,,62,127
559,note_on,0,0,0,,5,,,65,127
559,note_on,0,0,0,,5,,,77,127
669,note_off,110,0,0,,5,,,77,127
671,note_on,2,0,0,,7,,,79,127
781,note_off,110,0,0,,7,,,79,127
783,note_on,2,0,0,,10,,,81,127
893,note_off,110,0,0,,10,,,81,127
895,note_on,2,0,0,,12,,,83,127
1005,note_off,110,0,0,,12,,,83,127
1005,note_off,0,0,0,,5,,,65,127
1005,note_off,0,0,0,,2,,,62,127
1007,note_on,2,0,0,,4,,,64,127
1007,note_on,0,0,0,,7,,,67,127
1007,note_on,0,0,0,,0,,,84,127
1198,note_off,191,0,0,,0,,,84,127
1231,note_on,33,0,0,,7,,,79,127
1422,note_off,191,0,0,,7,,,79,127
1455,note_on,33,0,0,,0,,,72,127
1648,note_off,193,0,0,,7,,,67,127
1648,note_off,0,0,0,,4,,,64,127
1678,note_on,30,0,0,,7,,,67,127
1678,note_on,0,0,0,,4,,,64,127
1899,note_off,221,0,0,,4,,,64,127
1899,note_off,0,0,0,,7,,,67,127
1901,note_on,2,0,0,,5,,,65,127
1901,note_on,0,0,0,,10,,,69,127
2011,note_off,110,0,0,,0,,,72,127
2013,note_on,2,0,0,,4,,,76,127
2123,note_off,110,0,0,,4,,,76,127
2123,note_off,0,0,0,,10,,,69,127
2123,note_off,0,0,0,,5,,,65,127
2125,note_on,2,0,0,,7,,,67,127
2125,note_on,0,0,0,,4,,,64,127
2125,note_on,0,0,0,,2,,,74,127
2235,note_off,110,0,0,,2,,,74,127
2237,note_on,2,0,0,,0,,,72,127
2347,note_off,110,0,0,,0,,,72,127
2347,note_off,0,0,0,,4,,,64,127
2347,note_off,0,0,0,,7,,,67,127
2349,note_on,2,0,0,,5,,,65,127
2349,note_on,0,0,0,,2,,,62,127
2349,note_on,0,0,0,,2,,,74,127
2459,note_off,110,0,0,,2,,,74,127
2461,note_on,2,0,0,,10,,,81,127
2571,note_off,110,0,0,,10,,,81,127
2571,note_off,0,0,0,,2,,,62,127
2571,note_off,0,0,0,,5,,,65,127
2573,note_on,2,0,0,,7,,,55,127
2573,note_on,0,0,0,,7,,,79,127
2683,note_off,110,0,0,,7,,,79,127
2685,note_on,2,0,0,,5,,,77,127
2795,note_off,110,0,0,,5,,,77,127
2795,note_off,0,0,0,,7,,,55,127
2797,note_on,2,0,0,,0,,,60,127
2797,note_on,0,0,0,,0,,,48,127
2797,note_on,0,0,0,,4,,,76,127
2907,note_off,110,0,0,,4,,,76,127
2909,note_on,2,0,0,,2,,,74,127
3019,note_off,110,0,0,,2,,,74,127
3021,note_on,2,0,0,,0,,,72,127
3131,note_off,110,0,0,,0,,,72,127
3133,note_on,2,0,0,,12,,,71,127
3243,note_off,110,0,0,,12,,,71,127
3245,note_on,2,0,0,,12,,,71,127
3461,note_off,216,0,0,,12,,,71,127
3467,note_off,6,0,0,,0,,,48,127
3467,note_off,0,0,0,,0,,,60,127
3469,note_on,2,0,0,,4,,,64,127
3469,note_on,0,0,0,,7,,,67,127
3469,note_on,0,0,0,,0,,,72,127
3690,note_off,221,0,0,,7,,,67,127
3690,note_off,0,0,0,,4,,,64,127
3692,note_on,2,0,0,,10,,,69,127
3692,note_on,0,0,0,,5,,,65,127
3713,note_off,21,0,0,,0,,,72,127
3804,note_on,91,0,0,,4,,,76,127
3914,note_off,110,0,0,,4,,,76,127
3914,note_off,0,0,0,,5,,,65,127
3914,note_off,0,0,0,,10,,,69,127
3916,note_on,2,0,0,,4,,,64,127
3916,note_on,0,0,0,,7,,,67,127
3916,note_on,0,0,0,,2,,,74,127
4026,note_off,110,0,0,,2,,,74,127
4028,note_on,2,0,0,,0,,,72,127
4138,note_off,110,0,0,,0,,,72,127
4138,note_off,0,0,0,,7,,,67,127
4138,note_off,0,0,0,,4,,,64,127
4140,note_on,2,0,0,,2,,,62,127
4140,note_on,0,0,0,,5,,,65,127
4140,note_on,0,0,0,,2,,,74,127
4250,note_off,110,0,0,,2,,,74,127
4252,note_on,2,0,0,,10,,,81,127
4362,note_off,110,0,0,,10,,,81,127
4362,note_off,0,0,0,,5,,,65,127
4362,note_off,0,0,0,,2,,,62,127
4364,note_on,2,0,0,,7,,,55,127
4364,note_on,0,0,0,,7,,,79,127
4474,note_off,110,0,0,,7,,,79,127
4476,note_on,2,0,0,,5,,,77,127
4586,note_off,110,0,0,,5,,,77,127
4586,note_off,0,0,0,,7,,,55,127
4588,note_on,2,0,0,,0,,,60,127
4588,note_on,0,0,0,,4,,,76,127
4698,note_off,110,0,0,,4,,,76,127
4700,note_on,2,0,0,,2,,,74,127
4810,note_off,110,0,0,,2,,,74,127
4812,note_on,2,0,0,,0,,,72,127
4922,note_off,110,0,0,,0,,,72,127
4924,note_on,2,0,0,,12,,,71,127
5034,note_off,110,0,0,,12,,,71,127
5036,note_on,2,0,0,,0,,,72,127
5146,note_off,110,0,0,,0,,,72,127
5148,note_off,2,0,0,,0,,,60,127
5148,note_on,0,0,0,,2,,,74,127
5258,note_off,110,0,0,,2,,,74,127
5260,note_on,2,0,0,,2,,,62,127
5260,note_on,0,0,0,,4,,,76,127
5370,note_off,110,0,0,,4,,,76,127
5372,note_on,2,0,0,,5,,,77,127
5482,note_off,110,0,0,,5,,,77,127
5482,note_off,0,0,0,,2,,,62,127
5484,note_on,2,0,0,,4,,,64,127
5484,note_on,0,0,0,,7,,,79,127
5594,note_off,110,0,0,,7,,,79,127
5596,note_on,2,0,0,,4,,,76,127
5706,note_off,110,0,0,,4,,,76,127
5708,note_on,2,0,0,,10,,,81,127
5818,note_off,110,0,0,,10,,,81,127
5820,note_on,2,0,0,,7,,,79,127
5834,note_off,14,0,0,,4,,,64,127
5930,note_off,96,0,0,,7,,,79,127
5932,note_on,2,0,0,,5,,,77,127
6042,note_off,110,0,0,,5,,,77,127
6044,note_on,2,0,0,,4,,,76,127
6154,note_off,110,0,0,,4,,,76,127
6156,note_on,2,0,0,,5,,,65,127
6156,note_on,0,0,0,,2,,,74,127
6266,note_off,110,0,0,,2,,,74,127
6268,note_on,2,0,0,,0,,,72,127
6378,note_off,110,0,0,,0,,,72,127
6378,note_off,0,0,0,,5,,,65,127
6380,note_on,2,0,0,,7,,,55,127
6380,note_on,0,0,0,,2,,,74,127
6490,note_off,110,0,0,,2,,,74,127
6492,note_on,2,0,0,,0,,,72,127
6602,note_off,110,0,0,,0,,,72,127
6604,note_on,2,0,0,,12,,,71,127
6714,note_off,110,0,0,,12,,,71,127
6716,note_on,2,0,0,,10,,,69,127
6826,note_off,110,0,0,,10,,,69,127
6828,note_on,2,0,0,,7,,,67,127
6882,note_off,54,0,0,,7,,,55,127
6950,note_on,68,0,0,,5,,,65,127
7050,note_off,100,0,0,,7,,,67,127
7059,note_off,9,0,0,,5,,,65,127
7061,note_on,2,0,0,,4,,,64,127
7061,note_on,0,0,0,,7,,,67,127
7171,note_off,110,0,0,,4,,,64,127
7173,note_on,2,0,0,,2,,,62,127
7283,note_off,110,0,0,,2,,,62,127
7283,note_off,0,0,0,,7,,,67,127
7285,note_on,2,0,0,,4,,,64,127
7285,note_on,0,0,0,,0,,,72,127
7395,note_off,110,0,0,,4,,,64,127
7397,note_on,2,0,0,,2,,,62,127
7507,note_off,110,0,0,,2,,,62,127
7507,note_off,0,0,0,,0,,,72,127
7509,note_on,2,0,0,,0,,,60,127
7509,note_on,0,0,0,,2,,,74,127
7619,note_off,110,0,0,,0,,,60,127
7621,note_on,2,0,0,,12,,,59,127
7731,note_off,110,0,0,,12,,,59,127
7731,note_off,0,0,0,,2,,,74,127
7733,note_on,2,0,0,,0,,,60,127
7733,note_on,0,0,0,,4,,,76,127
7805,note_off,72,0,0,,4,,,76,127
7807,note_on,2,0,0,,5,,,77,127
7879,note_off,72,0,0,,5,,,77,127
7881,note_on,2,0,0,,7,,,79,127
7953,note_off,72,0,0,,7,,,79,127
7955,note_on,2,0,0,,5,,,53,127
7955,note_on,0,0,0,,5,,,77,127
8011,note_off,56,0,0,,0,,,60,127
8065,note_off,54,0,0,,5,,,77,127
8067,note_on,2,0,0,,4,,,76,127
8177,note_off,110,0,0,,4,,,76,127
8177,note_off,0,0,0,,5,,,53,127
8179,note_on,2,0,0,,7,,,55,127
8179,note_on,0,0,0,,2,,,74,127
8289,note_off,110,0,0,,2,,,74,127
8291,note_on,2,0,0,,0,,,72,127
8401,note_off,110,0,0,,0,,,72,127
8403,note_on,2,0,0,,12,,,71,127
8513,note_off,110,0,0,,12,,,71,127
8515,note_on,2,0,0,,10,,,69,127
8625,note_off,110,0,0,,10,,,69,127
8627,note_on,2,0,0,,7,,,67,127
8737,note_off,110,0,0,,7,,,55,127
8749,note_on,12,0,0,,5,,,65,127
8849,note_off,100,0,0,,7,,,67,127
8858,note_off,9,0,0,,5,,,65,127
8860,note_on,2,0,0,,4,,,64,127
8860,note_on,0,0,0,,7,,,67,127
8970,note_off,110,0,0,,4,,,64,127
8972,note_on,2,0,0,,2,,,62,127
9082,note_off,110,0,0,,2,,,62,127
9082,note_off,0,0,0,,7,,,67,127
9084,note_on,2,0,0,,4,,,64,127
9084,note_on,0,0,0,,0,,,72,127
9194,note_off,110,0,0,,4,,,64,127
9196,note_on,2,0,0,,2,,,62,127
9306,note_off,110,0,0,,2,,,62,127
9306,note_off,0,0,0,,0,,,72,127
9308,note_on,2,0,0,,0,,,60,127
9308,note_on,0,0,0,,2,,,74,127
9418,note_off,110,0,0,,0,,,60,127
9420,note_on,2,0,0,,12,,,59,127
9530,note_off,110,0,0,,12,,,59,127
9530,note_off,0,0,0,,2,,,74,127
9532,note_on,2,0,0,,0,,,60,127
9532,note_on,0,0,0,,4,,,76,127
9604,note_off,72,0,0,,4,,,76,127
9606,note_on,2,0,0,,5,,,77,127
9678,note_off,72,0,0,,5,,,77,127
9680,note_on,2,0,0,,7,,,79,127
9752,note_off,72,0,0,,7,,,79,127
9752,note_off,0,0,0,,0,,,60,127
9754,note_on,2,0,0,,5,,,53,127
9754,note_on,0,0,0,,5,,,77,127
9864,note_off,110,0,0,,5,,,77,127
9866,note_on,2,0,0,,4,,,76,127
9976,note_off,110,0,0,,5,,,53,127
9978,note_on,2,0,0,,7,,,43,127
9978,note_on,0,0,0,,7,,,55,127
10029,note_off,51,0,0,,4,,,76,127
10034,note_on,5,0,0,,2,,,74,127
10088,note_off,54,0,0,,2,,,74,127
10090,note_on,2,0,0,,4,,,76,127
10144,note_off,54,0,0,,4,,,76,127
10146,note_on,2,0,0,,2,,,74,127
10200,note_off,54,0,0,,2,,,74,127
10202,note_on,2,0,0,,4,,,76,127
10256,note_off,54,0,0,,4,,,76,127
10258,note_on,2,0,0,,2,,,74,127
10771,note_off,513,0,0,,7,,,55,127
10771,note_off,0,0,0,,7,,,43,127
10818,note_off,47,0,0,,2,,,74,127
10855,note_on,37,0,0,,5,,,65,127
10855,note_on,0,0,0,,2,,,62,127
11076,note_off,221,0,0,,2,,,62,127
11076,note_off,0,0,0,,5,,,65,127
11078,note_on,2,0,0,,1,,,61,127
11078,note_on,0,0,0,,4,,,64,127
11299,note_off,221,0,0,,4,,,64,127
11299,note_off,0,0,0,,1,,,61,127
11301,note_on,2,0,0,,11,,,58,127
11301,note_on,0,0,0,,2,,,62,127
11301,note_on,0,0,0,,5,,,65,127
11522,note_off,221,0,0,,5,,,65,127
11522,note_off,0,0,0,,2,,,62,127
11522,note_off,0,0,0,,11,,,58,127
11524,note_on,2,0,0,,11,,,58,127
11524,note_on,0,0,0,,1,,,61,127
11524,note_on,0,0,0,,4,,,64,127
11745,note_off,221,0,0,,4,,,64,127
11745,note_off,0,0,0,,1,,,61,127
11745,note_off,0,0,0,,11,,,58,127
11747,note_on,2,0,0,,11,,,58,127
11747,note_on,0,0,0,,2,,,62,127
11747,note_on,0,0,0,,5,,,65,127
11968,note_off,221,0,0,,5,,,65,127
11968,note_off,0,0,0,,2,,,62,127
11970,note_on,2,0,0,,7,,,67,127
11970,note_on,0,0,0,,4,,,64,127
12081,note_off,111,0,0,,11,,,58,127
12192,note_off,111,0,0,,4,,,64,127
12192,note_off,0,0,0,,7,,,67,127
12194,note_on,2,0,0,,7,,,55,127
12194,note_on,0,0,0,,5,,,65,127
12194,note_on,0,0,0,,10,,,69,127
12415,note_off,221,0,0,,7,,,55,127
12417,note_on,2,0,0,,7,,,55,127
12638,note_off,221,0,0,,7,,,55,127
12638,note_off,0,0,0,,10,,,69,127
12638,note_off,0,0,0,,5,,,65,127
12640,note_on,2,0,0,,7,,,55,127
12640,note_on,0,0,0,,11,,,70,127
12640,note_on,0,0,0,,7,,,67,127
12861,note_off,221,0,0,,7,,,55,127
12863,note_on,2,0,0,,10,,,57,127
13084,note_off,221,0,0,,7,,,67,127
13084,note_off,0,0,0,,11,,,70,127
13086,note_on,2,0,0,,5,,,65,127
13086,note_on,0,0,0,,10,,,69,127
13196,note_off,110,0,0,,10,,,69,127
13196,note_off,0,0,0,,5,,,65,127
13198,note_on,2,0,0,,4,,,64,127
13198,note_on,0,0,0,,7,,,67,127
13308,note_off,110,0,0,,7,,,67,127
13308,note_off,0,0,0,,4,,,64,127
13310,note_on,2,0,0,,10,,,45,127
13310,note_on,0,0,0,,5,,,65,127
13310,note_on,0,0,0,,2,,,62,127
13531,note_off,221,0,0,,2,,,62,127
13531,note_off,0,0,0,,5,,,65,127
13533,note_on,2,0,0,,1,,,61,127
13533,note_on,0,0,0,,4,,,64,127
13754,note_off,221,0,0,,4,,,64,127
13754,note_off,0,0,0,,1,,,61,127
13754,note_off,0,0,0,,10,,,45,127
13755,note_off,1,0,0,,10,,,57,127
13756,note_on,1,0,0,,2,,,50,127
13756,note_on,0,0,0,,4,,,64,127
13756,note_on,0,0,0,,1,,,61,127
13977,note_off,221,0,0,,1,,,61,127
13977,note_off,0,0,0,,4,,,64,127
13979,note_on,2,0,0,,2,,,38,127
13979,note_on,0,0,0,,2,,,62,127
13979,note_on,0,0,0,,5,,,65,127
14198,note_off,219,0,0,,2,,,50,127
14200,note_off,2,0,0,,2,,,38,127
14202,note_on,2,0,0,,2,,,50,127
14374,note_off,172,0,0,,5,,,65,127
14374,note_off,0,0,0,,2,,,62,127
14425,note_on,51,0,0,,4,,,64,127
14425,note_on,0,0,0,,7,,,67,127
14536,note_off,111,0,0,,2,,,50,127
14647,note_off,111,0,0,,7,,,67,127
14647,note_off,0,0,0,,4,,,64,127
14649,note_on,2,0,0,,6,,,66,127
14649,note_on,0,0,0,,3,,,63,127
14870,note_off,221,0,0,,3,,,63,127
14870,note_off,0,0,0,,6,,,66,127
14872,note_on,2,0,0,,0,,,60,127
14872,note_on,0,0,0,,4,,,64,127
14872,note_on,0,0,0,,7,,,67,127
15093,note_off,221,0,0,,7,,,67,127
15093,note_off,0,0,0,,4,,,64,127
15093,note_off,0,0,0,,0,,,60,127
15095,note_on,2,0,0,,0,,,60,127
15095,note_on,0,0,0,,6,,,66,127
15095,note_on,0,0,0,,3,,,63,127
15316,note_off,221,0,0,,3,,,63,127
15316,note_off,0,0,0,,6,,,66,127
15316,note_off,0,0,0,,0,,,60,127
15318,note_on,2,0,0,,0,,,60,127
15318,note_on,0,0,0,,4,,,64,127
15318,note_on,0,0,0,,7,,,67,127
15539,note_off,221,0,0,,7,,,67,127
15539,note_off,0,0,0,,4,,,64,127
15541,note_on,2,0,0,,10,,,69,127
15541,note_on,0,0,0,,6,,,66,127
15652,note_off,111,0,0,,0,,,60,127
15763,note_off,111,0,0,,6,,,66,127
15763,note_off,0,0,0,,10,,,69,127
15765,note_on,2,0,0,,10,,,57,127
15765,note_on,0,0,0,,12,,,71,127
15765,note_on,0,0,0,,7,,,67,127
15986,note_off,221,0,0,,10,,,57,127
15988,note_on,2,0,0,,10,,,57,127
16209,note_off,221,0,0,,10,,,57,127
16209,note_off,0,0,0,,7,,,67,127
16209,note_off,0,0,0,,12,,,71,127
16211,note_on,2,0,0,,10,,,57,127
16211,note_on,0,0,0,,10,,,69,127
16211,note_on,0,0,0,,0,,,72,127
16584,note_off,373,0,0,,10,,,57,127
16656,note_off,72,0,0,,0,,,72,127
16656,note_off,0,0,0,,10,,,69,127
16658,note_on,2,0,0,,12,,,59,127
16658,note_on,0,0,0,,7,,,67,127
16658,note_on,0,0,0,,12,,,71,127
16768,note_off,110,0,0,,12,,,71,127
16768,note_off,0,0,0,,7,,,67,127
16770,note_on,2,0,0,,6,,,66,127
16770,note_on,0,0,0,,10,,,69,127
16880,note_off,110,0,0,,10,,,69,127
16880,note_off,0,0,0,,6,,,66,127
16880,note_off,0,0,0,,12,,,59,127
16882,note_on,2,0,0,,12,,,59,127
16882,note_on,0,0,0,,4,,,64,127
16882,note_on,0,0,0,,7,,,67,127
17103,note_off,221,0,0,,7,,,67,127
17103,note_off,0,0,0,,4,,,64,127
17103,note_off,0,0,0,,12,,,59,127
17105,note_on,2,0,0,,12,,,59,127
17105,note_on,0,0,0,,6,,,66,127
17105,note_on,0,0,0,,3,,,63,127
17326,note_off,221,0,0,,3,,,63,127
17326,note_off,0,0,0,,6,,,66,127
17326,note_off,0,0,0,,12,,,59,127
17328,note_on,2,0,0,,4,,,52,127
17328,note_on,0,0,0,,4,,,64,127
17549,note_off,221,0,0,,4,,,64,127
17561,note_on,12,0,0,,4,,,76,127
17782,note_off,221,0,0,,4,,,76,127
17794,note_on,12,0,0,,12,,,71,127
17904,note_off,110,0,0,,12,,,71,127
17906,note_on,2,0,0,,12,,,71,127
17997,note_off,91,0,0,,4,,,52,127
18016,note_off,19,0,0,,12,,,71,127
18018,note_on,2,0,0,,0,,,72,127
18018,note_on,0,0,0,,4,,,64,127
18018,note_on,0,0,0,,4,,,52,127
18128,note_off,110,0,0,,0,,,72,127
18130,note_on,2,0,0,,2,,,74,127
18240,note_off,110,0,0,,2,,,74,127
18240,note_off,0,0,0,,4,,,52,127
18240,note_off,0,0,0,,4,,,64,127
18242,note_on,2,0,0,,8,,,68,127
18242,note_on,0,0,0,,4,,,52,127
18242,note_on,0,0,0,,2,,,62,127
18352,note_off,110,0,0,,8,,,68,127
18354,note_on,2,0,0,,8,,,68,127
18464,note_off,110,0,0,,8,,,68,127
18464,note_off,0,0,0,,2,,,62,127
18464,note_off,0,0,0,,4,,,52,127
18466,note_on,2,0,0,,10,,,69,127
18466,note_on,0,0,0,,4,,,52,127
18466,note_on,0,0,0,,0,,,60,127
18576,note_off,110,0,0,,10,,,69,127
18578,note_on,2,0,0,,12,,,71,127
18688,note_off,110,0,0,,12,,,71,127
18688,note_off,0,0,0,,0,,,60,127
18688,note_off,0,0,0,,4,,,52,127
18690,note_on,2,0,0,,2,,,62,127
18690,note_on,0,0,0,,4,,,52,127
18690,note_on,0,0,0,,12,,,59,127
18800,note_off,110,0,0,,2,,,62,127
18802,note_on,2,0,0,,2,,,62,127
18912,note_off,110,0,0,,2,,,62,127
18912,note_off,0,0,0,,12,,,59,127
18912,note_off,0,0,0,,4,,,52,127
18914,note_on,2,0,0,,4,,,64,127
18914,note_on,0,0,0,,4,,,52,127
18914,note_on,0,0,0,,10,,,57,127
19024,note_off,110,0,0,,4,,,64,127
19026,note_on,2,0,0,,5,,,65,127
19136,note_off,110,0,0,,5,,,65,127
19136,note_off,0,0,0,,10,,,57,127
19136,note_off,0,0,0,,4,,,52,127
19138,note_on,2,0,0,,4,,,64,127
19138,note_on,0,0,0,,4,,,52,127
19138,note_on,0,0,0,,8,,,56,127
19362,note_on,224,0,0,,4,,,76,127
19581,note_off,219,0,0,,4,,,64,127
19583,note_off,2,0,0,,4,,,76,127
19584,note_off,1,0,0,,8,,,56,127
19584,note_off,0,0,0,,4,,,52,127
19585,note_on,1,0,0,,12,,,71,127
19695,note_off,110,0,0,,12,,,71,127
19697,note_on,2,0,0,,12,,,71,127
19807,note_off,110,0,0,,12,,,71,127
19809,note_on,2,0,0,,0,,,72,127
19809,note_on,0,0,0,,4,,,64,127
19809,note_on,0,0,0,,4,,,52,127
19919,note_off,110,0,0,,0,,,72,127
19921,note_on,2,0,0,,2,,,74,127
20031,note_off,110,0,0,,2,,,74,127
20031,note_off,0,0,0,,4,,,52,127
20031,note_off,0,0,0,,4,,,64,127
20033,note_on,2,0,0,,8,,,68,127
20033,note_on,0,0,0,,2,,,62,127
20033,note_on,0,0,0,,4,,,52,127
20143,note_off,110,0,0,,8,,,68,127
20145,note_on,2,0,0,,8,,,68,127
20255,note_off,110,0,0,,8,,,68,127
20255,note_off,0,0,0,,4,,,52,127
20255,note_off,0,0,0,,2,,,62,127
20257,note_on,2,0,0,,10,,,69,127
20257,note_on,0,0,0,,0,,,60,127
20257,note_on,0,0,0,,4,,,52,127
20367,note_off,110,0,0,,10,,,69,127
20369,note_on,2,0,0,,12,,,71,127
20479,note_off,110,0,0,,12,,,71,127
20479,note_off,0,0,0,,4,,,52,127
20479,note_off,0,0,0,,0,,,60,127
20481,note_on,2,0,0,,2,,,62,127
20481,note_on,0,0,0,,4,,,52,127
20481,note_on,0,0,0,,12,,,59,127
20591,note_off,110,0,0,,2,,,62,127
20593,note_on,2,0,0,,2,,,62,127
20703,note_off,110,0,0,,2,,,62,127
20703,note_off,0,0,0,,12,,,59,127
20703,note_off,0,0,0,,4,,,52,127
20705,note_on,2,0,0,,4,,,64,127
20705,note_on,0,0,0,,10,,,57,127
20705,note_on,0,0,0,,4,,,52,127
20815,note_off,110,0,0,,4,,,64,127
20817,note_on,2,0,0,,5,,,65,127
20927,note_off,110,0,0,,5,,,65,127
20927,note_off,0,0,0,,4,,,52,127
20927,note_off,0,0,0,,10,,,57,127
20929,note_on,2,0,0,,4,,,64,127
20929,note_on,0,0,0,,4,,,52,127
20929,note_on,0,0,0,,8,,,56,127
21150,note_off,221,0,0,,4,,,64,127
21164,note_on,14,0,0,,2,,,74,127
21375,note_off,211,0,0,,8,,,56,127
21375,note_off,0,0,0,,4,,,52,127
21385,note_off,10,0,0,,2,,,74,127
21394,note_on,9,0,0,,0,,,72,127
21394,note_on,0,0,0,,2,,,74,127
21466,note_off,72,0,0,,2,,,74,127
21466,note_off,0,0,0,,0,,,72,127
21468,note_on,2,0,0,,12,,,71,127
21540,note_off,72,0,0,,12,,,71,127
21542,note_on,2,0,0,,10,,,69,127
21614,note_off,72,0,0,,10,,,69,127
21616,note_on,2,0,0,,2,,,62,127
21616,note_on,0,0,0,,4,,,52,127
21616,note_on,0,0,0,,8,,,68,127
21837,note_off,221,0,0,,8,,,68,127
21837,note_off,0,0,0,,4,,,52,127
21837,note_off,0,0,0,,2,,,62,127
21839,note_on,2,0,0,,5,,,53,127
21839,note_on,0,0,0,,2,,,62,127
21839,note_on,0,0,0,,10,,,69,127
22060,note_off,221,0,0,,10,,,69,127
22062,note_on,2,0,0,,2,,,74,127
22283,note_off,221,0,0,,2,,,74,127
22284,note_off,1,0,0,,2,,,62,127
22284,note_off,0,0,0,,5,,,53,127
22285,note_on,1,0,0,,0,,,72,127
22285,note_on,0,0,0,,2,,,74,127
22357,note_off,72,0,0,,2,,,74,127
22357,note_off,0,0,0,,0,,,72,127
22359,note_on,2,0,0,,12,,,71,127
22431,note_off,72,0,0,,12,,,71,127
22433,note_on,2,0,0,,10,,,69,127
22505,note_off,72,0,0,,10,,,69,127
22507,note_on,2,0,0,,4,,,52,127
22507,note_on,0,0,0,,2,,,62,127
22507,note_on,0,0,0,,8,,,68,127
22728,note_off,221,0,0,,8,,,68,127
22728,note_off,0,0,0,,2,,,62,127
22728,note_off,0,0,0,,4,,,52,127
22730,note_on,2,0,0,,5,,,53,127
22730,note_on,0,0,0,,2,,,62,127
22730,note_on,0,0,0,,10,,,69,127
22951,note_off,221,0,0,,10,,,69,127
22953,note_on,2,0,0,,2,,,50,127
22953,note_on,0,0,0,,5,,,77,127
22986,note_off,33,0,0,,5,,,53,127
23175,note_off,189,0,0,,5,,,77,127
23175,note_off,0,0,0,,2,,,50,127
23177,note_on,2,0,0,,8,,,56,127
23177,note_on,0,0,0,,4,,,76,127
23287,note_off,110,0,0,,4,,,76,127
23289,note_on,2,0,0,,2,,,74,127
23399,note_off,110,0,0,,2,,,74,127
23400,note_off,1,0,0,,2,,,62,127
23401,note_on,1,0,0,,4,,,52,127
23401,note_on,0,0,0,,0,,,72,127
23434,note_off,33,0,0,,8,,,56,127
23511,note_off,77,0,0,,0,,,72,127
23513,note_on,2,0,0,,12,,,71,127
23623,note_off,110,0,0,,12,,,71,127
23623,note_off,0,0,0,,4,,,52,127
23625,note_on,2,0,0,,10,,,57,127
23625,note_on,0,0,0,,0,,,72,127
23859,note_off,234,0,0,,0,,,72,127
23860,note_on,1,0,0,,4,,,76,127
24081,note_off,221,0,0,,4,,,76,127
24090,note_on,9,0,0,,10,,,69,127
24200,note_off,110,0,0,,10,,,69,127
24202,note_on,2,0,0,,10,,,69,127
24293,note_off,91,0,0,,10,,,57,127
24312,note_off,19,0,0,,10,,,69,127
24314,note_on,2,0,0,,12,,,71,127
24314,note_on,0,0,0,,2,,,62,127
24314,note_on,0,0,0,,2,,,50,127
24424,note_off,110,0,0,,12,,,71,127
24426,note_on,2,0,0,,0,,,72,127
24536,note_off,110,0,0,,0,,,72,127
24536,note_off,0,0,0,,2,,,50,127
24536,note_off,0,0,0,,2,,,62,127
24538,note_on,2,0,0,,6,,,66,127
24538,note_on,0,0,0,,0,,,60,127
24538,note_on,0,0,0,,2,,,50,127
24648,note_off,110,0,0,,6,,,66,127
24650,note_on,2,0,0,,6,,,66,127
24760,note_off,110,0,0,,6,,,66,127
24760,note_off,0,0,0,,2,,,50,127
24760,note_off,0,0,0,,0,,,60,127
24762,note_on,2,0,0,,7,,,67,127
24762,note_on,0,0,0,,12,,,59,127
24762,note_on,0,0,0,,2,,,50,127
24872,note_off,110,0,0,,7,,,67,127
24874,note_on,2,0,0,,10,,,69,127
24984,note_off,110,0,0,,10,,,69,127
24984,note_off,0,0,0,,2,,,50,127
24984,note_off,0,0,0,,12,,,59,127
24986,note_on,2,0,0,,0,,,60,127
24986,note_on,0,0,0,,2,,,50,127
24986,note_on,0,0,0,,10,,,57,127
25096,note_off,110,0,0,,0,,,60,127
25098,note_on,2,0,0,,0,,,60,127
25208,note_off,110,0,0,,0,,,60,127
25208,note_off,0,0,0,,10,,,57,127
25208,note_off,0,0,0,,2,,,50,127
25210,note_on,2,0,0,,2,,,62,127
25210,note_on,0,0,0,,2,,,50,127
25210,note_on,0,0,0,,7,,,55,127
25320,note_off,110,0,0,,2,,,62,127
25322,note_on,2,0,0,,4,,,64,127
25432,note_off,110,0,0,,4,,,64,127
25432,note_off,0,0,0,,7,,,55,127
25432,note_off,0,0,0,,2,,,50,127
25434,note_on,2,0,0,,2,,,62,127
25434,note_on,0,0,0,,2,,,50,127
25434,note_on,0,0,0,,6,,,54,127
25658,note_on,224,0,0,,2,,,74,127
25854,note_off,196,0,0,,2,,,62,127
25880,note_off,26,0,0,,2,,,74,127
25881,note_off,1,0,0,,6,,,54,127
25881,note_off,0,0,0,,2,,,50,127
25882,note_on,1,0,0,,10,,,69,127
25992,note_off,110,0,0,,10,,,69,127
25994,note_on,2,0,0,,10,,,69,127
26104,note_off,110,0,0,,10,,,69,127
26106,note_on,2,0,0,,12,,,71,127
26106,note_on,0,0,0,,2,,,62,127
26106,note_on,0,0,0,,2,,,50,127
26216,note_off,110,0,0,,12,,,71,127
26218,note_on,2,0,0,,0,,,72,127
26328,note_off,110,0,0,,0,,,72,127
26328,note_off,0,0,0,,2,,,50,127
26328,note_off,0,0,0,,2,,,62,127
26330,note_on,2,0,0,,6,,,66,127
26330,note_on,0,0,0,,0,,,60,127
26330,note_on,0,0,0,,2,,,50,127
26440,note_off,110,0,0,,6,,,66,127
26442,note_on,2,0,0,,6,,,66,127
26552,note_off,110,0,0,,6,,,66,127
26552,note_off,0,0,0,,2,,,50,127
26552,note_off,0,0,0,,0,,,60,127
26554,note_on,2,0,0,,7,,,67,127
26554,note_on,0,0,0,,12,,,59,127
26554,note_on,0,0,0,,2,,,50,127
26664,note_off,110,0,0,,7,,,67,127
26666,note_on,2,0,0,,10,,,69,127
26776,note_off,110,0,0,,10,,,69,127
26776,note_off,0,0,0,,2,,,50,127
26776,note_off,0,0,0,,12,,,59,127
26778,note_on,2,0,0,,0,,,60,127
26778,note_on,0,0,0,,2,,,50,127
26778,note_on,0,0,0,,10,,,57,127
26888,note_off,110,0,0,,0,,,60,127
26890,note_on,2,0,0,,0,,,60,127
27000,note_off,110,0,0,,0,,,60,127
27000,note_off,0,0,0,,10,,,57,127
27000,note_off,0,0,0,,2,,,50,127
27002,note_on,2,0,0,,2,,,62,127
27002,note_on,0,0,0,,2,,,50,127
27002,note_on,0,0,0,,7,,,55,127
27112,note_off,110,0,0,,2,,,62,127
27114,note_on,2,0,0,,4,,,64,127
27224,note_off,110,0,0,,4,,,64,127
27224,note_off,0,0,0,,7,,,55,127
27224,note_off,0,0,0,,2,,,50,127
27226,note_on,2,0,0,,2,,,62,127
27226,note_on,0,0,0,,6,,,54,127
27226,note_on,0,0,0,,2,,,50,127
27447,note_off,221,0,0,,2,,,62,127
27459,note_on,12,0,0,,0,,,72,127
27680,note_off,221,0,0,,0,,,72,127
27692,note_on,12,0,0,,12,,,71,127
27692,note_on,0,0,0,,0,,,72,127
27764,note_off,72,0,0,,0,,,72,127
27764,note_off,0,0,0,,12,,,71,127
27766,note_on,2,0,0,,10,,,69,127
27838,note_off,72,0,0,,10,,,69,127
27840,note_on,2,0,0,,7,,,67,127
27866,note_off,26,0,0,,2,,,50,127
27866,note_off,0,0,0,,6,,,54,127
27913,note_off,47,0,0,,7,,,67,127
27915,note_on,2,0,0,,0,,,60,127
27915,note_on,0,0,0,,2,,,50,127
27915,note_on,0,0,0,,6,,,66,127
28136,note_off,221,0,0,,6,,,66,127
28136,note_off,0,0,0,,2,,,50,127
28136,note_off,0,0,0,,0,,,60,127
28138,note_on,2,0,0,,4,,,52,127
28138,note_on,0,0,0,,0,,,60,127
28138,note_on,0,0,0,,7,,,67,127
28359,note_off,221,0,0,,7,,,67,127
28361,note_on,2,0,0,,0,,,72,127
28582,note_off,221,0,0,,0,,,72,127
28584,note_on,2,0,0,,0,,,72,127
28584,note_on,0,0,0,,12,,,71,127
28656,note_off,72,0,0,,12,,,71,127
28656,note_off,0,0,0,,0,,,72,127
28658,note_on,2,0,0,,10,,,69,127
28730,note_off,72,0,0,,10,,,69,127
28732,note_on,2,0,0,,7,,,67,127
28753,note_off,21,0,0,,0,,,60,127
28753,note_off,0,0,0,,4,,,52,127
28804,note_off,51,0,0,,7,,,67,127
28806,note_on,2,0,0,,2,,,50,127
28806,note_on,0,0,0,,0,,,60,127
28806,note_on,0,0,0,,6,,,66,127
29027,note_off,221,0,0,,6,,,66,127
29027,note_off,0,0,0,,0,,,60,127
29027,note_off,0,0,0,,2,,,50,127
29029,note_on,2,0,0,,4,,,52,127
29029,note_on,0,0,0,,0,,,60,127
29029,note_on,0,0,0,,7,,,67,127
29250,note_off,221,0,0,,7,,,67,127
29250,note_off,0,0,0,,0,,,60,127
29252,note_on,2,0,0,,0,,,48,127
29252,note_on,0,0,0,,4,,,76,127
29285,note_off,33,0,0,,4,,,52,127
29474,note_off,189,0,0,,4,,,76,127
29474,note_off,0,0,0,,0,,,48,127
29476,note_on,2,0,0,,6,,,54,127
29476,note_on,0,0,0,,2,,,74,127
29586,note_off,110,0,0,,2,,,74,127
29588,note_on,2,0,0,,0,,,72,127
29698,note_off,110,0,0,,0,,,72,127
29700,note_on,2,0,0,,2,,,50,127
29700,note_on,0,0,0,,12,,,71,127
29733,note_off,33,0,0,,6,,,54,127
29810,note_off,77,0,0,,12,,,71,127
29812,note_on,2,0,0,,10,,,69,127
29922,note_off,110,0,0,,10,,,69,127
29922,note_off,0,0,0,,2,,,50,127
29924,note_on,2,0,0,,7,,,55,127
29924,note_on,0,0,0,,12,,,71,127
30034,note_off,110,0,0,,12,,,71,127
30036,note_on,2,0,0,,7,,,67,127
30146,note_off,110,0,0,,7,,,67,127
30148,note_on,2,0,0,,10,,,69,127
30258,note_off,110,0,0,,10,,,69,127
30260,note_on,2,0,0,,12,,,71,127
30370,note_off,110,0,0,,12,,,71,127
30372,note_on,2,0,0,,0,,,72,127
30482,note_off,110,0,0,,0,,,72,127
30484,note_off,2,0,0,,7,,,55,127
30484,note_on,0,0,0,,2,,,74,127
30594,note_off,110,0,0,,2,,,74,127
30596,note_on,2,0,0,,10,,,57,127
30596,note_on,0,0,0,,4,,,76,127
30706,note_off,110,0,0,,4,,,76,127
30708,note_on,2,0,0,,6,,,78,127
30818,note_off,110,0,0,,6,,,78,127
30818,note_off,0,0,0,,10,,,57,127
30820,note_on,2,0,0,,12,,,59,127
30820,note_on,0,0,0,,7,,,79,127
30930,note_off,110,0,0,,7,,,79,127
30932,note_on,2,0,0,,6,,,78,127
31042,note_off,110,0,0,,6,,,78,127
31044,note_on,2,0,0,,4,,,76,127
31154,note_off,110,0,0,,4,,,76,127
31156,note_on,2,0,0,,2,,,74,127
31266,note_off,110,0,0,,2,,,74,127
31266,note_off,0,0,0,,12,,,59,127
31268,note_on,2,0,0,,0,,,60,127
31268,note_on,0,0,0,,0,,,72,127
31378,note_off,110,0,0,,0,,,72,127
31380,note_on,2,0,0,,12,,,71,127
31490,note_off,110,0,0,,12,,,71,127
31492,note_on,2,0,0,,10,,,69,127
31602,note_off,110,0,0,,10,,,69,127
31604,note_on,2,0,0,,7,,,67,127
31714,note_off,110,0,0,,7,,,67,127
31715,note_off,1,0,0,,0,,,60,127
31716,note_on,1,0,0,,4,,,64,127
31768,note_on,52,0,0,,2,,,62,127
31769,note_off,1,0,0,,4,,,64,127
31820,note_on,51,0,0,,4,,,64,127
31821,note_off,1,0,0,,2,,,62,127
31872,note_on,51,0,0,,2,,,62,127
31873,note_off,1,0,0,,4,,,64,127
31938,note_on,65,0,0,,2,,,50,127
31938,note_on,0,0,0,,2,,,38,127
32159,note_off,221,0,0,,2,,,38,127
32159,note_off,0,0,0,,2,,,50,127
32161,note_on,2,0,0,,4,,,52,127
32161,note_on,0,0,0,,4,,,40,127
32314,note_off,153,0,0,,2,,,62,127
32383,note_off,69,0,0,,4,,,40,127
32383,note_off,0,0,0,,4,,,52,127
32385,note_on,2,0,0,,6,,,54,127
32385,note_on,0,0,0,,6,,,42,127
32385,note_on,0,0,0,,2,,,74,127
32606,note_off,221,0,0,,2,,,74,127
32608,note_on,2,0,0,,12,,,71,127
32662,note_off,54,0,0,,12,,,71,127
32664,note_off,2,0,0,,6,,,42,127
32664,note_off,0,0,0,,6,,,54,127
32664,note_on,0,0,0,,0,,,72,127
32718,note_off,54,0,0,,0,,,72,127
32720,note_on,2,0,0,,2,,,74,127
32774,note_off,54,0,0,,2,,,74,127
32776,note_on,2,0,0,,4,,,76,127
32830,note_off,54,0,0,,4,,,76,127
32832,note_on,2,0,0,,7,,,55,127
32832,note_on,0,0,0,,7,,,43,127
32832,note_on,0,0,0,,2,,,74,127
33053,note_off,221,0,0,,2,,,74,127
33053,note_off,0,0,0,,7,,,43,127
33053,note_off,0,0,0,,7,,,55,127
33055,note_on,2,0,0,,12,,,47,127
33055,note_on,0,0,0,,12,,,59,127
33055,note_on,0,0,0,,7,,,79,127
33276,note_off,221,0,0,,7,,,79,127
33276,note_off,0,0,0,,12,,,59,127
33276,note_off,0,0,0,,12,,,47,127
33278,note_on,2,0,0,,2,,,62,127
33278,note_on,0,0,0,,2,,,50,127
33278,note_on,0,0,0,,2,,,74,127
33499,note_off,221,0,0,,2,,,74,127
33501,note_on,2,0,0,,12,,,71,127
33555,note_off,54,0,0,,12,,,71,127
33557,note_on,2,0,0,,0,,,72,127
33611,note_off,54,0,0,,0,,,72,127
33612,note_off,1,0,0,,2,,,50,127
33612,note_off,0,0,0,,2,,,62,127
33613,note_on,1,0,0,,2,,,74,127
33667,note_off,54,0,0,,2,,,74,127
33669,note_on,2,0,0,,4,,,76,127
33723,note_off,54,0,0,,4,,,76,127
33725,note_on,2,0,0,,7,,,55,127
33725,note_on,0,0,0,,7,,,43,127
33725,note_on,0,0,0,,2,,,74,127
33946,note_off,221,0,0,,2,,,74,127
33946,note_off,0,0,0,,7,,,43,127
33946,note_off,0,0,0,,7,,,55,127
33948,note_on,2,0,0,,12,,,59,127
33948,note_on,0,0,0,,12,,,47,127
33948,note_on,0,0,0,,7,,,79,127
34169,note_off,221,0,0,,7,,,79,127
34169,note_off,0,0,0,,12,,,47,127
34169,note_off,0,0,0,,12,,,59,127
34171,note_on,2,0,0,,2,,,50,127
34171,note_on,0,0,0,,2,,,62,127
34171,note_on,0,0,0,,2,,,74,127
34392,note_off,221,0,0,,2,,,74,127
34392,note_off,0,0,0,,2,,,62,127
34392,note_off,0,0,0,,2,,,50,127
34394,note_on,2,0,0,,7,,,55,127
34394,note_on,0,0,0,,7,,,67,127
34394,note_on,0,0,0,,12,,,71,127
34504,note_off,110,0,0,,12,,,71,127
34506,note_on,2,0,0,,2,,,74,127
34616,note_off,110,0,0,,2,,,74,127
34616,note_off,0,0,0,,7,,,55,127
34618,note_on,2,0,0,,0,,,60,127
34618,note_on,0,0,0,,0,,,72,127
34728,note_off,110,0,0,,0,,,72,127
34730,note_on,2,0,0,,10,,,69,127
34840,note_off,110,0,0,,10,,,69,127
34840,note_off,0,0,0,,0,,,60,127
34841,note_off,1,0,0,,7,,,67,127
34842,note_on,1,0,0,,2,,,62,127
34842,note_on,0,0,0,,12,,,71,127
35066,note_on,224,0,0,,2,,,50,127
35122,note_off,56,0,0,,12,,,71,127
35122,note_on,0,0,0,,10,,,69,127
35176,note_off,54,0,0,,10,,,69,127
35178,note_on,2,0,0,,12,,,71,127
35232,note_off,54,0,0,,12,,,71,127
35234,note_on,2,0,0,,10,,,69,127
35288,note_off,54,0,0,,10,,,69,127
35289,note_off,1,0,0,,2,,,62,127
35290,note_on,1,0,0,,7,,,67,127
35401,note_off,111,0,0,,2,,,50,127
35514,note_on,113,0,0,,7,,,55,127
35514,note_on,0,0,0,,7,,,43,127
35735,note_off,221,0,0,,7,,,43,127
35735,note_off,0,0,0,,7,,,55,127
35737,note_on,2,0,0,,12,,,47,127
35737,note_on,0,0,0,,12,,,59,127
35958,note_off,221,0,0,,12,,,59,127
35958,note_off,0,0,0,,12,,,47,127
35958,note_off,0,0,0,,7,,,67,127
35960,note_on,2,0,0,,2,,,50,127
35960,note_on,0,0,0,,2,,,62,127
35960,note_on,0,0,0,,2,,,74,127
36181,note_off,221,0,0,,2,,,74,127
36183,note_on,2,0,0,,12,,,71,127
36237,note_off,54,0,0,,12,,,71,127
36239,note_on,2,0,0,,0,,,72,127
36293,note_off,54,0,0,,0,,,72,127
36294,note_off,1,0,0,,2,,,62,127
36294,note_off,0,0,0,,2,,,50,127
36295,note_on,1,0,0,,2,,,74,127
36349,note_off,54,0,0,,2,,,74,127
36351,note_on,2,0,0,,4,,,76,127
36405,note_off,54,0,0,,4,,,76,127
36407,note_on,2,0,0,,7,,,55,127
36407,note_on,0,0,0,,7,,,43,127
36407,note_on,0,0,0,,2,,,74,127
36628,note_off,221,0,0,,2,,,74,127
36628,note_off,0,0,0,,7,,,43,127
36628,note_off,0,0,0,,7,,,55,127
36630,note_on,2,0,0,,12,,,59,127
36630,note_on,0,0,0,,12,,,47,127
36630,note_on,0,0,0,,7,,,79,127
36851,note_off,221,0,0,,7,,,79,127
36851,note_off,0,0,0,,12,,,47,127
36851,note_off,0,0,0,,12,,,59,127
36853,note_on,2,0,0,,2,,,50,127
36853,note_on,0,0,0,,2,,,62,127
36853,note_on,0,0,0,,2,,,74,127
37074,note_off,221,0,0,,2,,,74,127
37076,note_on,2,0,0,,12,,,71,127
37130,note_off,54,0,0,,12,,,71,127
37132,note_on,2,0,0,,0,,,72,127
37186,note_off,54,0,0,,0,,,72,127
37187,note_off,1,0,0,,2,,,62,127
37187,note_off,0,0,0,,2,,,50,127
37188,note_on,1,0,0,,2,,,74,127
37242,note_off,54,0,0,,2,,,74,127
37244,note_on,2,0,0,,4,,,76,127
37298,note_off,54,0,0,,4,,,76,127
37300,note_on,2,0,0,,7,,,43,127
37300,note_on,0,0,0,,7,,,55,127
37300,note_on,0,0,0,,2,,,74,127
37521,note_off,221,0,0,,2,,,74,127
37521,note_off,0,0,0,,7,,,55,127
37521,note_off,0,0,0,,7,,,43,127
37523,note_on,2,0,0,,12,,,59,127
37523,note_on,0,0,0,,12,,,47,127
37523,note_on,0,0,0,,7,,,79,127
37744,note_off,221,0,0,,7,,,79,127
37744,note_off,0,0,0,,12,,,47,127
37744,note_off,0,0,0,,12,,,59,127
37746,note_on,2,0,0,,2,,,50,127
37746,note_on,0,0,0,,2,,,62,127
37746,note_on,0,0,0,,2,,,74,127
37967,note_off,221,0,0,,2,,,74,127
37967,note_off,0,0,0,,2,,,62,127
37967,note_off,0,0,0,,2,,,50,127
37969,note_on,2,0,0,,7,,,67,127
37969,note_on,0,0,0,,7,,,55,127
37969,note_on,0,0,0,,12,,,71,127
38079,note_off,110,0,0,,12,,,71,127
38081,note_on,2,0,0,,2,,,74,127
38191,note_off,110,0,0,,2,,,74,127
38191,note_off,0,0,0,,7,,,55,127
38193,note_on,2,0,0,,0,,,60,127
38193,note_on,0,0,0,,0,,,72,127
38303,note_off,110,0,0,,0,,,72,127
38305,note_on,2,0,0,,10,,,69,127
38415,note_off,110,0,0,,10,,,69,127
38415,note_off,0,0,0,,0,,,60,127
38416,note_off,1,0,0,,7,,,67,127
38417,note_on,1,0,0,,2,,,62,127
38417,note_on,0,0,0,,12,,,71,127
38641,note_on,224,0,0,,2,,,50,127
38697,note_off,56,0,0,,12,,,71,127
38697,note_on,0,0,0,,10,,,69,127
38751,note_off,54,0,0,,10,,,69,127
38753,note_on,2,0,0,,12,,,71,127
38807,note_off,54,0,0,,12,,,71,127
38809,note_on,2,0,0,,10,,,69,127
38863,note_off,54,0,0,,10,,,69,127
38863,note_off,0,0,0,,2,,,50,127
38864,note_off,1,0,0,,2,,,62,127
38865,note_on,1,0,0,,7,,,55,127
38865,note_on,0,0,0,,7,,,43,127
38865,note_on,0,0,0,,7,,,67,127
39082,note_on,217,0,0,,12,,,71,127
39087,note_off,5,0,0,,7,,,67,127
39192,note_off,105,0,0,,12,,,71,127
39199,note_on,7,0,0,,0,,,72,127
39309,note_off,110,0,0,,0,,,72,127
39314,note_on,5,0,0,,2,,,74,127
39424,note_off,110,0,0,,2,,,74,127
39426,note_on,2,0,0,,7,,,67,127
39496,note_off,70,0,0,,7,,,43,127
39496,note_off,0,0,0,,7,,,55,127
39536,note_off,40,0,0,,7,,,67,127
39538,note_on,2,0,0,,2,,,62,127
39538,note_on,0,0,0,,2,,,50,127
39538,note_on,0,0,0,,10,,,69,127
39648,note_off,110,0,0,,10,,,69,127
39650,note_on,2,0,0,,6,,,66,127
39760,note_off,110,0,0,,6,,,66,127
39760,note_off,0,0,0,,2,,,50,127
39760,note_off,0,0,0,,2,,,62,127
39762,note_on,2,0,0,,12,,,59,127
39762,note_on,0,0,0,,12,,,47,127
39762,note_on,0,0,0,,7,,,67,127
39983,note_off,221,0,0,,7,,,67,127
39983,note_off,0,0,0,,12,,,47,127
39983,note_off,0,0,0,,12,,,59,127
39985,note_on,2,0,0,,7,,,43,127
39985,note_on,0,0,0,,7,,,55,127
39985,note_on,0,0,0,,12,,,71,127
40095,note_off,110,0,0,,12,,,71,127
40097,note_on,2,0,0,,0,,,72,127
40207,note_off,110,0,0,,0,,,72,127
40209,note_on,2,0,0,,2,,,74,127
40319,note_off,110,0,0,,2,,,74,127
40321,note_on,2,0,0,,7,,,67,127
40431,note_off,110,0,0,,7,,,67,127
40431,note_off,0,0,0,,7,,,55,127
40431,note_off,0,0,0,,7,,,43,127
40433,note_on,2,0,0,,2,,,50,127
40433,note_on,0,0,0,,2,,,62,127
40433,note_on,0,0,0,,10,,,69,127
40543,note_off,110,0,0,,10,,,69,127
40545,note_on,2,0,0,,6,,,66,127
40655,note_off,110,0,0,,6,,,66,127
40655,note_off,0,0,0,,2,,,62,127
40655,note_off,0,0,0,,2,,,50,127
40657,note_on,2,0,0,,12,,,59,127
40657,note_on,0,0,0,,12,,,47,127
40657,note_on,0,0,0,,7,,,67,127
40878,note_off,221,0,0,,7,,,67,127
40878,note_off,0,0,0,,12,,,47,127
40878,note_off,0,0,0,,12,,,59,127
40880,note_on,2,0,0,,7,,,55,127
40880,note_on,0,0,0,,7,,,43,127
40880,note_on,0,0,0,,10,,,69,127
40990,note_off,110,0,0,,10,,,69,127
40992,note_on,2,0,0,,12,,,71,127
41102,note_off,110,0,0,,12,,,71,127
41104,note_on,2,0,0,,0,,,72,127
41214,note_off,110,0,0,,0,,,72,127
41216,note_on,2,0,0,,2,,,74,127
41288,note_off,72,0,0,,7,,,43,127
41288,note_off,0,0,0,,7,,,55,127
41325,note_off,37,0,0,,2,,,74,127
41327,note_on,2,0,0,,10,,,57,127
41327,note_on,0,0,0,,10,,,45,127
41327,note_on,0,0,0,,4,,,76,127
41437,note_off,110,0,0,,4,,,76,127
41439,note_on,2,0,0,,6,,,78,127
41549,note_off,110,0,0,,6,,,78,127
41549,note_off,0,0,0,,10,,,45,127
41549,note_off,0,0,0,,10,,,57,127
41551,note_on,2,0,0,,12,,,47,127
41551,note_on,0,0,0,,12,,,59,127
41551,note_on,0,0,0,,7,,,79,127
41661,note_off,110,0,0,,7,,,79,127
41663,note_on,2,0,0,,2,,,74,127
41773,note_off,110,0,0,,2,,,74,127
41773,note_off,0,0,0,,12,,,59,127
41773,note_off,0,0,0,,12,,,47,127
41775,note_on,2,0,0,,0,,,48,127
41775,note_on,0,0,0,,0,,,60,127
41775,note_on,0,0,0,,4,,,76,127
41885,note_off,110,0,0,,4,,,76,127
41887,note_on,2,0,0,,0,,,72,127
41997,note_off,110,0,0,,0,,,72,127
41997,note_off,0,0,0,,0,,,60,127
41997,note_off,0,0,0,,0,,,48,127
41999,note_on,2,0,0,,2,,,50,127
41999,note_on,0,0,0,,2,,,62,127
41999,note_on,0,0,0,,12,,,71,127
42109,note_off,110,0,0,,12,,,71,127
42111,note_on,2,0,0,,7,,,79,127
42221,note_off,110,0,0,,2,,,62,127
42221,note_off,0,0,0,,2,,,50,127
42223,note_on,2,0,0,,0,,,60,127
42223,note_on,0,0,0,,0,,,48,127
42223,note_on,0,0,0,,10,,,69,127
42333,note_off,110,0,0,,10,,,69,127
42333,note_off,0,0,0,,7,,,79,127
42335,note_on,2,0,0,,6,,,78,127
42445,note_off,110,0,0,,6,,,78,127
42445,note_off,0,0,0,,0,,,48,127
42445,note_off,0,0,0,,0,,,60,127
42447,note_on,2,0,0,,12,,,59,127
42447,note_on,0,0,0,,12,,,47,127
42447,note_on,0,0,0,,7,,,79,127
42557,note_off,110,0,0,,7,,,79,127
42559,note_on,2,0,0,,2,,,74,127
42669,note_off,110,0,0,,2,,,74,127
42669,note_off,0,0,0,,12,,,47,127
42669,note_off,0,0,0,,12,,,59,127
42671,note_on,2,0,0,,0,,,60,127
42671,note_on,0,0,0,,0,,,48,127
42671,note_on,0,0,0,,4,,,76,127
42781,note_off,110,0,0,,4,,,76,127
42783,note_on,2,0,0,,0,,,72,127
42893,note_off,110,0,0,,0,,,72,127
42893,note_off,0,0,0,,0,,,48,127
42893,note_off,0,0,0,,0,,,60,127
42895,note_on,2,0,0,,2,,,50,127
42895,note_on,0,0,0,,2,,,62,127
42895,note_on,0,0,0,,12,,,71,127
43007,note_on,112,0,0,,7,,,79,127
43117,note_off,110,0,0,,7,,,79,127
43117,note_off,0,0,0,,12,,,71,127
43117,note_off,0,0,0,,2,,,62,127
43117,note_off,0,0,0,,2,,,50,127
43119,note_on,2,0,0,,0,,,60,127
43119,note_on,0,0,0,,0,,,48,127
43119,note_on,0,0,0,,10,,,69,127
43231,note_on,112,0,0,,6,,,78,127
43341,note_off,110,0,0,,6,,,78,127
43341,note_off,0,0,0,,10,,,69,127
43341,note_off,0,0,0,,0,,,48,127
43341,note_off,0,0,0,,0,,,60,127
43343,note_on,2,0,0,,12,,,59,127
43343,note_on,0,0,0,,12,,,47,127
43343,note_on,0,0,0,,7,,,79,127
43453,note_off,110,0,0,,7,,,79,127
43455,note_on,2,0,0,,2,,,74,127
43565,note_off,110,0,0,,2,,,74,127
43565,note_off,0,0,0,,12,,,47,127
43565,note_off,0,0,0,,12,,,59,127
43567,note_on,2,0,0,,0,,,48,127
43567,note_on,0,0,0,,0,,,60,127
43567,note_on,0,0,0,,4,,,76,127
43677,note_off,110,0,0,,4,,,76,127
43679,note_on,2,0,0,,7,,,67,127
43789,note_off,110,0,0,,0,,,60,127
43789,note_off,0,0,0,,0,,,48,127
43791,note_on,2,0,0,,2,,,50,127
43791,note_on,0,0,0,,2,,,62,127
44012,note_off,221,0,0,,2,,,62,127
44012,note_off,0,0,0,,2,,,50,127
44014,note_on,2,0,0,,2,,,50,127
44063,note_off,49,0,0,,7,,,67,127
44070,note_on,7,0,0,,6,,,66,127
44124,note_off,54,0,0,,6,,,66,127
44126,note_on,2,0,0,,7,,,67,127
44180,note_off,54,0,0,,7,,,67,127
44182,note_on,2,0,0,,6,,,66,127
44236,note_off,54,0,0,,6,,,66,127
44236,note_off,0,0,0,,2,,,50,127
44238,note_on,2,0,0,,7,,,43,127
44238,note_on,0,0,0,,7,,,55,127
44238,note_on,0,0,0,,6,,,66,127
44491,note_on,253,0,0,,7,,,67,127
44494,note_off,3,0,0,,6,,,66,127
45077,note_off,583,0,0,,7,,,43,127
45132,note_off,55,0,0,,7,,,67,127
45132,note_off,0,0,0,,7,,,55,127
45170,note_on,38,0,0,,0,,,72,127
45170,note_on,0,0,0,,12,,,71,127
45280,note_off,110,0,0,,12,,,71,127
45280,note_off,0,0,0,,0,,,72,127
45282,note_on,2,0,0,,10,,,69,127
45392,note_off,110,0,0,,10,,,69,127
45394,note_on,2,0,0,,12,,,71,127
45394,note_on,0,0,0,,7,,,67,127
45394,note_on,0,0,0,,7,,,55,127
45504,note_off,110,0,0,,12,,,71,127
45506,note_on,2,0,0,,0,,,72,127
45616,note_off,110,0,0,,0,,,72,127
45616,note_off,0,0,0,,7,,,55,127
45616,note_off,0,0,0,,7,,,67,127
45618,note_on,2,0,0,,2,,,74,127
45618,note_on,0,0,0,,7,,,55,127
45618,note_on,0,0,0,,7,,,67,127
45728,note_off,110,0,0,,2,,,74,127
45730,note_on,2,0,0,,4,,,76,127
45840,note_off,110,0,0,,4,,,76,127
45840,note_off,0,0,0,,7,,,67,127
45840,note_off,0,0,0,,7,,,55,127
45842,note_on,2,0,0,,6,,,78,127
45842,note_on,0,0,0,,7,,,55,127
45842,note_on,0,0,0,,7,,,67,127
45952,note_off,110,0,0,,6,,,78,127
45954,note_on,2,0,0,,7,,,79,127
46064,note_off,110,0,0,,7,,,79,127
46064,note_off,0,0,0,,7,,,67,127
46064,note_off,0,0,0,,7,,,55,127
46066,note_on,2,0,0,,12,,,71,127
46066,note_on,0,0,0,,7,,,67,127
46066,note_on,0,0,0,,7,,,55,127
46120,note_off,54,0,0,,12,,,71,127
46122,note_on,2,0,0,,10,,,69,127
46176,note_off,54,0,0,,10,,,69,127
46178,note_on,2,0,0,,12,,,71,127
46232,note_off,54,0,0,,12,,,71,127
46234,note_on,2,0,0,,10,,,69,127
46288,note_off,54,0,0,,10,,,69,127
46288,note_off,0,0,0,,7,,,55,127
46288,note_off,0,0,0,,7,,,67,127
46290,note_on,2,0,0,,12,,,71,127
46290,note_on,0,0,0,,7,,,55,127
46290,note_on,0,0,0,,5,,,65,127
46344,note_off,54,0,0,,12,,,71,127
46346,note_on,2,0,0,,10,,,69,127
46400,note_off,54,0,0,,10,,,69,127
46402,note_on,2,0,0,,12,,,71,127
46456,note_off,54,0,0,,12,,,71,127
46458,note_on,2,0,0,,10,,,69,127
46512,note_off,54,0,0,,10,,,69,127
46512,note_off,0,0,0,,5,,,65,127
46512,note_off,0,0,0,,7,,,55,127
46514,note_on,2,0,0,,12,,,71,127
46514,note_on,0,0,0,,7,,,55,127
46514,note_on,0,0,0,,5,,,65,127
46568,note_off,54,0,0,,12,,,71,127
46570,note_on,2,0,0,,10,,,69,127
46624,note_off,54,0,0,,10,,,69,127
46626,note_on,2,0,0,,12,,,71,127
46680,note_off,54,0,0,,12,,,71,127
46682,note_on,2,0,0,,10,,,69,127
46736,note_off,54,0,0,,10,,,69,127
46736,note_off,0,0,0,,5,,,65,127
46736,note_off,0,0,0,,7,,,55,127
46738,note_on,2,0,0,,12,,,71,127
46738,note_on,0,0,0,,7,,,55,127
46738,note_on,0,0,0,,5,,,65,127
46792,note_off,54,0,0,,12,,,71,127
46794,note_on,2,0,0,,10,,,69,127
46848,note_off,54,0,0,,10,,,69,127
46850,note_on,2,0,0,,7,,,67,127
46904,note_off,54,0,0,,7,,,67,127
46906,note_on,2,0,0,,10,,,69,127
46960,note_off,54,0,0,,10,,,69,127
46960,note_off,0,0,0,,5,,,65,127
46960,note_off,0,0,0,,7,,,55,127
46962,note_on,2,0,0,,10,,,69,127
46962,note_on,0,0,0,,7,,,67,127
46962,note_on,0,0,0,,7,,,55,127
46962,note_on,0,0,0,,4,,,64,127
47072,note_off,110,0,0,,7,,,67,127
47072,note_off,0,0,0,,10,,,69,127
47074,note_on,2,0,0,,6,,,66,127
47184,note_off,110,0,0,,6,,,66,127
47184,note_off,0,0,0,,4,,,64,127
47184,note_off,0,0,0,,7,,,55,127
47186,note_on,2,0,0,,7,,,67,127
47186,note_on,0,0,0,,4,,,64,127
47186,note_on,0,0,0,,7,,,55,127
47296,note_off,110,0,0,,7,,,67,127
47298,note_on,2,0,0,,10,,,69,127
47408,note_off,110,0,0,,10,,,69,127
47408,note_off,0,0,0,,7,,,55,127
47408,note_off,0,0,0,,4,,,64,127
47410,note_on,2,0,0,,12,,,71,127
47410,note_on,0,0,0,,4,,,64,127
47410,note_on,0,0,0,,7,,,55,127
47520,note_off,110,0,0,,12,,,71,127
47522,note_on,2,0,0,,0,,,72,127
47632,note_off,110,0,0,,0,,,72,127
47632,note_off,0,0,0,,7,,,55,127
47632,note_off,0,0,0,,4,,,64,127
47634,note_on,2,0,0,,2,,,74,127
47634,note_on,0,0,0,,4,,,64,127
47634,note_on,0,0,0,,7,,,55,127
47744,note_off,110,0,0,,2,,,74,127
47746,note_on,2,0,0,,4,,,76,127
47856,note_off,110,0,0,,4,,,76,127
47856,note_off,0,0,0,,7,,,55,127
47856,note_off,0,0,0,,4,,,64,127
47858,note_on,2,0,0,,7,,,67,127
47858,note_on,0,0,0,,7,,,55,127
47858,note_on,0,0,0,,4,,,64,127
47912,note_off,54,0,0,,7,,,67,127
47914,note_on,2,0,0,,5,,,65,127
47968,note_off,54,0,0,,5,,,65,127
47970,note_on,2,0,0,,7,,,67,127
48024,note_off,54,0,0,,7,,,67,127
48026,note_on,2,0,0,,5,,,65,127
48080,note_off,54,0,0,,5,,,65,127
48080,note_off,0,0,0,,4,,,64,127
48080,note_off,0,0,0,,7,,,55,127
48082,note_on,2,0,0,,7,,,67,127
48082,note_on,0,0,0,,7,,,55,127
48082,note_on,0,0,0,,2,,,62,127
48136,note_off,54,0,0,,7,,,67,127
48138,note_on,2,0,0,,5,,,65,127
48192,note_off,54,0,0,,5,,,65,127
48194,note_on,2,0,0,,7,,,67,127
48248,note_off,54,0,0,,7,,,67,127
48250,note_on,2,0,0,,5,,,65,127
48304,note_off,54,0,0,,5,,,65,127
48304,note_off,0,0,0,,2,,,62,127
48304,note_off,0,0,0,,7,,,55,127
48306,note_on,2,0,0,,7,,,67,127
48306,note_on,0,0,0,,7,,,55,127
48306,note_on,0,0,0,,2,,,62,127
48360,note_off,54,0,0,,7,,,67,127
48362,note_on,2,0,0,,5,,,65,127
48416,note_off,54,0,0,,5,,,65,127
48418,note_on,2,0,0,,7,,,67,127
48472,note_off,54,0,0,,7,,,67,127
48474,note_on,2,0,0,,5,,,65,127
48528,note_off,54,0,0,,5,,,65,127
48528,note_off,0,0,0,,2,,,62,127
48528,note_off,0,0,0,,7,,,55,127
48530,note_on,2,0,0,,7,,,67,127
48530,note_on,0,0,0,,7,,,55,127
48530,note_on,0,0,0,,2,,,62,127
48584,note_off,54,0,0,,7,,,67,127
48586,note_on,2,0,0,,5,,,65,127
48640,note_off,54,0,0,,5,,,65,127
48642,note_on,2,0,0,,4,,,64,127
48696,note_off,54,0,0,,4,,,64,127
48698,note_on,2,0,0,,5,,,65,127
48752,note_off,54,0,0,,5,,,65,127
48752,note_off,0,0,0,,2,,,62,127
48752,note_off,0,0,0,,7,,,55,127
48754,note_on,2,0,0,,5,,,65,127
48754,note_on,0,0,0,,4,,,64,127
48754,note_on,0,0,0,,0,,,60,127
48754,note_on,0,0,0,,7,,,55,127
48864,note_off,110,0,0,,4,,,64,127
48864,note_off,0,0,0,,5,,,65,127
48866,note_on,2,0,0,,2,,,62,127
48976,note_off,110,0,0,,2,,,62,127
48976,note_off,0,0,0,,7,,,55,127
48976,note_off,0,0,0,,0,,,60,127
48978,note_on,2,0,0,,4,,,64,127
48978,note_on,0,0,0,,0,,,60,127
48978,note_on,0,0,0,,7,,,55,127
49088,note_off,110,0,0,,4,,,64,127
49090,note_on,2,0,0,,5,,,65,127
49200,note_off,110,0,0,,5,,,65,127
49200,note_off,0,0,0,,7,,,55,127
49200,note_off,0,0,0,,0,,,60,127
49202,note_on,2,0,0,,7,,,67,127
49202,note_on,0,0,0,,7,,,55,127
49202,note_on,0,0,0,,0,,,60,127
49312,note_off,110,0,0,,7,,,67,127
49314,note_on,2,0,0,,10,,,69,127
49424,note_off,110,0,0,,10,,,69,127
49424,note_off,0,0,0,,0,,,60,127
49424,note_off,0,0,0,,7,,,55,127
49426,note_on,2,0,0,,12,,,71,127
49426,note_on,0,0,0,,7,,,55,127
49426,note_on,0,0,0,,0,,,60,127
49536,note_off,110,0,0,,12,,,71,127
49538,note_on,2,0,0,,0,,,72,127
49648,note_off,110,0,0,,0,,,72,127
49648,note_off,0,0,0,,0,,,60,127
49648,note_off,0,0,0,,7,,,55,127
49650,note_on,2,0,0,,2,,,74,127
49650,note_on,0,0,0,,12,,,59,127
49650,note_on,0,0,0,,2,,,62,127
49871,note_off,221,0,0,,2,,,62,127
49871,note_off,0,0,0,,12,,,59,127
49871,note_off,0,0,0,,2,,,74,127
49873,note_on,2,0,0,,7,,,67,127
49873,note_on,0,0,0,,2,,,62,127
49873,note_on,0,0,0,,12,,,59,127
50094,note_off,221,0,0,,12,,,59,127
50094,note_off,0,0,0,,2,,,62,127
50094,note_off,0,0,0,,7,,,67,127
50096,note_on,2,0,0,,7,,,67,127
50096,note_on,0,0,0,,12,,,59,127
50096,note_on,0,0,0,,2,,,62,127
50150,note_off,54,0,0,,7,,,67,127
50152,note_on,2,0,0,,5,,,65,127
50206,note_off,54,0,0,,5,,,65,127
50208,note_on,2,0,0,,7,,,67,127
50262,note_off,54,0,0,,7,,,67,127
50264,note_on,2,0,0,,5,,,65,127
50318,note_off,54,0,0,,5,,,65,127
50318,note_off,0,0,0,,2,,,62,127
50318,note_off,0,0,0,,12,,,59,127
50320,note_on,2,0,0,,7,,,67,127
50320,note_on,0,0,0,,2,,,62,127
50320,note_on,0,0,0,,12,,,59,127
50374,note_off,54,0,0,,7,,,67,127
50376,note_on,2,0,0,,5,,,65,127
50430,note_off,54,0,0,,5,,,65,127
50432,note_on,2,0,0,,4,,,64,127
50486,note_off,54,0,0,,4,,,64,127
50488,note_on,2,0,0,,5,,,65,127
50542,note_off,54,0,0,,5,,,65,127
50542,note_off,0,0,0,,12,,,59,127
50542,note_off,0,0,0,,2,,,62,127
50544,note_on,2,0,0,,4,,,64,127
50544,note_on,0,0,0,,0,,,60,127
50765,note_off,221,0,0,,0,,,60,127
50765,note_off,0,0,0,,4,,,64,127
50767,note_on,2,0,0,,2,,,74,127
50767,note_on,0,0,0,,0,,,72,127
50767,note_on,0,0,0,,0,,,60,127
50839,note_off,72,0,0,,0,,,72,127
50839,note_off,0,0,0,,2,,,74,127
50841,note_on,2,0,0,,12,,,71,127
50913,note_off,72,0,0,,12,,,71,127
50915,note_on,2,0,0,,0,,,72,127
50987,note_off,72,0,0,,0,,,72,127
50987,note_off,0,0,0,,0,,,60,127
50989,note_on,2,0,0,,2,,,74,127
50989,note_on,0,0,0,,2,,,62,127
50989,note_on,0,0,0,,12,,,59,127
51210,note_off,221,0,0,,12,,,59,127
51210,note_off,0,0,0,,2,,,62,127
51210,note_off,0,0,0,,2,,,74,127
51212,note_on,2,0,0,,7,,,67,127
51212,note_on,0,0,0,,5,,,65,127
51212,note_on,0,0,0,,2,,,62,127
51212,note_on,0,0,0,,12,,,59,127
51284,note_off,72,0,0,,5,,,65,127
51284,note_off,0,0,0,,7,,,67,127
51286,note_on,2,0,0,,4,,,64,127
51358,note_off,72,0,0,,4,,,64,127
51360,note_on,2,0,0,,5,,,65,127
51432,note_off,72,0,0,,5,,,65,127
51432,note_off,0,0,0,,12,,,59,127
51432,note_off,0,0,0,,2,,,62,127
51434,note_on,2,0,0,,4,,,64,127
51434,note_on,0,0,0,,0,,,60,127
51655,note_off,221,0,0,,0,,,60,127
51655,note_off,0,0,0,,4,,,64,127
51657,note_on,2,0,0,,0,,,72,127
51657,note_on,0,0,0,,2,,,74,127
51657,note_on,0,0,0,,0,,,60,127
51729,note_off,72,0,0,,2,,,74,127
51729,note_off,0,0,0,,0,,,72,127
51731,note_on,2,0,0,,12,,,71,127
51803,note_off,72,0,0,,12,,,71,127
51805,note_on,2,0,0,,0,,,72,127
51877,note_off,72,0,0,,0,,,72,127
51877,note_off,0,0,0,,0,,,60,127
51879,note_on,2,0,0,,2,,,74,127
51879,note_on,0,0,0,,12,,,59,127
51879,note_on,0,0,0,,2,,,62,127
52100,note_off,221,0,0,,2,,,62,127
52100,note_off,0,0,0,,12,,,59,127
52100,note_off,0,0,0,,2,,,74,127
52102,note_on,2,0,0,,5,,,65,127
52102,note_on,0,0,0,,7,,,67,127
52102,note_on,0,0,0,,2,,,62,127
52102,note_on,0,0,0,,12,,,59,127
52174,note_off,72,0,0,,7,,,67,127
52174,note_off,0,0,0,,5,,,65,127
52176,note_on,2,0,0,,4,,,64,127
52248,note_off,72,0,0,,4,,,64,127
52250,note_on,2,0,0,,5,,,65,127
52322,note_off,72,0,0,,5,,,65,127
52322,note_off,0,0,0,,12,,,59,127
52322,note_off,0,0,0,,2,,,62,127
52324,note_on,2,0,0,,4,,,64,127
52324,note_on,0,0,0,,0,,,60,127
52545,note_off,221,0,0,,0,,,60,127
52545,note_off,0,0,0,,4,,,64,127
52547,note_on,2,0,0,,0,,,72,127
52547,note_on,0,0,0,,0,,,60,127
52768,note_off,221,0,0,,0,,,60,127
52770,note_on,2,0,0,,2,,,62,127
52991,note_off,221,0,0,,2,,,62,127
52991,note_off,0,0,0,,0,,,72,127
52993,note_on,2,0,0,,11,,,70,127
52993,note_on,0,0,0,,2,,,62,127
53214,note_off,221,0,0,,2,,,62,127
53216,note_on,2,0,0,,4,,,64,127
53326,note_off,110,0,0,,11,,,70,127
53328,note_on,2,0,0,,0,,,72,127
53438,note_off,110,0,0,,0,,,72,127
53438,note_off,0,0,0,,4,,,64,127
53440,note_on,2,0,0,,2,,,74,127
53440,note_on,0,0,0,,4,,,64,127
53661,note_off,221,0,0,,4,,,64,127
53663,note_on,2,0,0,,0,,,60,127
53884,note_off,221,0,0,,0,,,60,127
53884,note_off,0,0,0,,2,,,74,127
53886,note_on,2,0,0,,0,,,72,127
53886,note_on,0,0,0,,0,,,60,127
53996,note_off,110,0,0,,0,,,72,127
53998,note_on,2,0,0,,11,,,70,127
54101,note_on,103,0,0,,5,,,65,127
54101,note_on,0,0,0,,10,,,69,127
54108,note_off,7,0,0,,0,,,60,127
54111,note_off,3,0,0,,11,,,70,127
54154,note_off,43,0,0,,10,,,69,127
54156,note_on,2,0,0,,11,,,70,127
54210,note_off,54,0,0,,11,,,70,127
54212,note_on,2,0,0,,0,,,72,127
54266,note_off,54,0,0,,0,,,72,127
54268,note_on,2,0,0,,2,,,74,127
54322,note_off,54,0,0,,2,,,74,127
54322,note_off,0,0,0,,5,,,65,127
54324,note_on,2,0,0,,5,,,65,127
54324,note_on,0,0,0,,0,,,72,127
54545,note_off,221,0,0,,5,,,65,127
54547,note_on,2,0,0,,4,,,64,127
54547,note_on,0,0,0,,7,,,67,127
54768,note_off,221,0,0,,4,,,64,127
54769,note_off,1,0,0,,0,,,72,127
54770,note_on,1,0,0,,0,,,60,127
54770,note_on,0,0,0,,11,,,70,127
54991,note_off,221,0,0,,11,,,70,127
54991,note_off,0,0,0,,0,,,60,127
54992,note_off,1,0,0,,7,,,67,127
54993,note_on,1,0,0,,5,,,65,127
54993,note_on,0,0,0,,10,,,69,127
55047,note_off,54,0,0,,10,,,69,127
55049,note_on,2,0,0,,11,,,70,127
55103,note_off,54,0,0,,11,,,70,127
55105,note_on,2,0,0,,0,,,72,127
55159,note_off,54,0,0,,0,,,72,127
55161,note_on,2,0,0,,2,,,74,127
55215,note_off,54,0,0,,2,,,74,127
55215,note_off,0,0,0,,5,,,65,127
55217,note_on,2,0,0,,5,,,65,127
55217,note_on,0,0,0,,0,,,72,127
55438,note_off,221,0,0,,5,,,65,127
55440,note_on,2,0,0,,4,,,64,127
55440,note_on,0,0,0,,7,,,67,127
55661,note_off,221,0,0,,4,,,64,127
55662,note_off,1,0,0,,0,,,72,127
55663,note_on,1,0,0,,0,,,60,127
55663,note_on,0,0,0,,11,,,70,127
55884,note_off,221,0,0,,11,,,70,127
55884,note_off,0,0,0,,0,,,60,127
55885,note_off,1,0,0,,7,,,67,127
55886,note_on,1,0,0,,5,,,65,127
55886,note_on,0,0,0,,10,,,69,127
56107,note_off,221,0,0,,10,,,69,127
56107,note_off,0,0,0,,5,,,65,127
56109,note_on,2,0,0,,5,,,65,127
56109,note_on,0,0,0,,2,,,74,127
56330,note_off,221,0,0,,2,,,74,127
56330,note_off,0,0,0,,5,,,65,127
56332,note_on,2,0,0,,4,,,64,127
56332,note_on,0,0,0,,1,,,73,127
56553,note_off,221,0,0,,1,,,73,127
56553,note_off,0,0,0,,4,,,64,127
56555,note_on,2,0,0,,2,,,62,127
56555,note_on,0,0,0,,2,,,74,127
56776,note_off,221,0,0,,2,,,74,127
56776,note_off,0,0,0,,2,,,62,127
56778,note_on,2,0,0,,1,,,61,127
56778,note_on,0,0,0,,4,,,76,127
56999,note_off,221,0,0,,1,,,61,127
57001,note_on,2,0,0,,12,,,59,127
57111,note_off,110,0,0,,4,,,76,127
57113,note_on,2,0,0,,5,,,77,127
57167,note_off,54,0,0,,5,,,77,127
57169,note_on,2,0,0,,7,,,79,127
57223,note_off,54,0,0,,7,,,79,127
57223,note_off,0,0,0,,12,,,59,127
57225,note_on,2,0,0,,10,,,57,127
57225,note_on,0,0,0,,5,,,77,127
57446,note_off,221,0,0,,5,,,77,127
57446,note_off,0,0,0,,10,,,57,127
57448,note_on,2,0,0,,1,,,61,127
57448,note_on,0,0,0,,4,,,76,127
57669,note_off,221,0,0,,4,,,76,127
57669,note_off,0,0,0,,1,,,61,127
57671,note_on,2,0,0,,2,,,62,127
57671,note_on,0,0,0,,5,,,77,127
57671,note_on,0,0,0,,7,,,79,127
57781,note_off,110,0,0,,7,,,79,127
57781,note_off,0,0,0,,5,,,77,127
57781,note_on,0,0,0,,4,,,76,127
57900,note_on,119,0,0,,2,,,50,127
57900,note_on,0,0,0,,2,,,74,127
57902,note_off,2,0,0,,4,,,76,127
58007,note_off,105,0,0,,2,,,62,127
58128,note_on,121,0,0,,2,,,38,127
58319,note_off,191,0,0,,2,,,74,127
58361,note_on,42,0,0,,2,,,74,127
58459,note_off,98,0,0,,2,,,50,127
58574,note_off,115,0,0,,2,,,38,127
58582,note_off,8,0,0,,2,,,74,127
58584,note_on,2,0,0,,10,,,81,127
58805,note_off,221,0,0,,10,,,81,127
58807,note_on,2,0,0,,10,,,69,127
58807,note_on,0,0,0,,0,,,72,127
58807,note_on,0,0,0,,2,,,62,127
59028,note_off,221,0,0,,2,,,62,127
59028,note_off,0,0,0,,0,,,72,127
59028,note_off,0,0,0,,10,,,69,127
59030,note_on,2,0,0,,7,,,67,127
59030,note_on,0,0,0,,12,,,71,127
59030,note_on,0,0,0,,2,,,62,127
59251,note_off,221,0,0,,2,,,62,127
59251,note_off,0,0,0,,12,,,71,127
59251,note_off,0,0,0,,7,,,67,127
59253,note_on,2,0,0,,10,,,69,127
59253,note_on,0,0,0,,6,,,66,127
59253,note_on,0,0,0,,2,,,62,127
59474,note_off,221,0,0,,6,,,66,127
59474,note_off,0,0,0,,10,,,69,127
59476,note_on,2,0,0,,12,,,71,127
59530,note_off,54,0,0,,12,,,71,127
59532,note_on,2,0,0,,0,,,72,127
59586,note_off,54,0,0,,0,,,72,127
59588,note_on,2,0,0,,2,,,74,127
59642,note_off,54,0,0,,2,,,74,127
59644,note_on,2,0,0,,4,,,76,127
59698,note_off,54,0,0,,4,,,76,127
59698,note_off,0,0,0,,2,,,62,127
59700,note_on,2,0,0,,2,,,74,127
59700,note_on,0,0,0,,7,,,67,127
59921,note_off,221,0,0,,7,,,67,127
59923,note_on,2,0,0,,10,,,69,127
59923,note_on,0,0,0,,6,,,66,127
60144,note_off,221,0,0,,6,,,66,127
60145,note_off,1,0,0,,2,,,74,127
60146,note_on,1,0,0,,0,,,72,127
60146,note_on,0,0,0,,2,,,62,127
60367,note_off,221,0,0,,2,,,62,127
60367,note_off,0,0,0,,0,,,72,127
60368,note_off,1,0,0,,10,,,69,127
60369,note_on,1,0,0,,12,,,71,127
60369,note_on,0,0,0,,7,,,67,127
60423,note_off,54,0,0,,12,,,71,127
60425,note_on,2,0,0,,0,,,72,127
60479,note_off,54,0,0,,0,,,72,127
60481,note_on,2,0,0,,2,,,74,127
60535,note_off,54,0,0,,2,,,74,127
60537,note_on,2,0,0,,4,,,76,127
60591,note_off,54,0,0,,4,,,76,127
60591,note_off,0,0,0,,7,,,67,127
60593,note_on,2,0,0,,2,,,74,127
60593,note_on,0,0,0,,7,,,67,127
60814,note_off,221,0,0,,7,,,67,127
60816,note_on,2,0,0,,10,,,69,127
60816,note_on,0,0,0,,6,,,66,127
61037,note_off,221,0,0,,6,,,66,127
61038,note_off,1,0,0,,2,,,74,127
61039,note_on,1,0,0,,0,,,72,127
61039,note_on,0,0,0,,2,,,62,127
61260,note_off,221,0,0,,2,,,62,127
61260,note_off,0,0,0,,0,,,72,127
61261,note_off,1,0,0,,10,,,69,127
61262,note_on,1,0,0,,12,,,71,127
61262,note_on,0,0,0,,7,,,67,127
61483,note_off,221,0,0,,7,,,67,127
61483,note_off,0,0,0,,12,,,71,127
61485,note_on,2,0,0,,4,,,76,127
61485,note_on,0,0,0,,7,,,67,127
61706,note_off,221,0,0,,7,,,67,127
61706,note_off,0,0,0,,4,,,76,127
61708,note_on,2,0,0,,3,,,75,127
61708,note_on,0,0,0,,6,,,66,127
61929,note_off,221,0,0,,6,,,66,127
61929,note_off,0,0,0,,3,,,75,127
61931,note_on,2,0,0,,4,,,76,127
61931,note_on,0,0,0,,4,,,64,127
62152,note_off,221,0,0,,4,,,64,127
62152,note_off,0,0,0,,4,,,76,127
62154,note_on,2,0,0,,6,,,78,127
62154,note_on,0,0,0,,3,,,63,127
62375,note_off,221,0,0,,3,,,63,127
62377,note_on,2,0,0,,1,,,61,127
62487,note_off,110,0,0,,6,,,78,127
62489,note_on,2,0,0,,7,,,79,127
62543,note_off,54,0,0,,7,,,79,127
62545,note_on,2,0,0,,10,,,81,127
62599,note_off,54,0,0,,10,,,81,127
62599,note_off,0,0,0,,1,,,61,127
62601,note_on,2,0,0,,7,,,79,127
62601,note_on,0,0,0,,12,,,59,127
62822,note_off,221,0,0,,12,,,59,127
62822,note_off,0,0,0,,7,,,79,127
62824,note_on,2,0,0,,6,,,78,127
62824,note_on,0,0,0,,3,,,63,127
63045,note_off,221,0,0,,3,,,63,127
63045,note_off,0,0,0,,6,,,78,127
63047,note_on,2,0,0,,7,,,79,127
63047,note_on,0,0,0,,10,,,81,127
63047,note_on,0,0,0,,4,,,64,127
63157,note_off,110,0,0,,10,,,81,127
63157,note_off,0,0,0,,7,,,79,127
63159,note_on,2,0,0,,6,,,78,127
63280,note_off,121,0,0,,6,,,78,127
63281,note_on,1,0,0,,4,,,76,127
63282,note_on,1,0,0,,4,,,52,127
63382,note_off,100,0,0,,4,,,64,127
63524,note_on,142,0,0,,4,,,40,127
63841,note_off,317,0,0,,4,,,52,127
63949,note_off,108,0,0,,4,,,76,127
63969,note_off,20,0,0,,4,,,40,127
63978,note_on,9,0,0,,10,,,81,127
63978,note_on,0,0,0,,8,,,80,127
63978,note_on,0,0,0,,5,,,77,127
63978,note_on,0,0,0,,2,,,62,127
63978,note_on,0,0,0,,4,,,52,127
64199,note_off,221,0,0,,4,,,52,127
64199,note_off,0,0,0,,2,,,62,127
64200,note_off,1,0,0,,10,,,81,127
64201,note_on,1,0,0,,2,,,62,127
64201,note_on,0,0,0,,4,,,52,127
64422,note_off,221,0,0,,4,,,52,127
64422,note_off,0,0,0,,2,,,62,127
64424,note_on,2,0,0,,2,,,62,127
64424,note_on,0,0,0,,4,,,52,127
64645,note_off,221,0,0,,4,,,52,127
64645,note_off,0,0,0,,2,,,62,127
64647,note_on,2,0,0,,2,,,62,127
64647,note_on,0,0,0,,4,,,52,127
64868,note_off,221,0,0,,4,,,52,127
64868,note_off,0,0,0,,2,,,62,127
64868,note_off,0,0,0,,5,,,77,127
64868,note_off,0,0,0,,8,,,80,127
64870,note_on,2,0,0,,12,,,83,127
64870,note_on,0,0,0,,4,,,76,127
64870,note_on,0,0,0,,10,,,81,127
64870,note_on,0,0,0,,4,,,52,127
64870,note_on,0,0,0,,0,,,60,127
65091,note_off,221,0,0,,0,,,60,127
65091,note_off,0,0,0,,4,,,52,127
65092,note_off,1,0,0,,12,,,83,127
65093,note_on,1,0,0,,0,,,60,127
65093,note_on,0,0,0,,4,,,52,127
65314,note_off,221,0,0,,4,,,52,127
65314,note_off,0,0,0,,0,,,60,127
65316,note_on,2,0,0,,4,,,52,127
65316,note_on,0,0,0,,0,,,60,127
65537,note_off,221,0,0,,0,,,60,127
65537,note_off,0,0,0,,4,,,52,127
65539,note_on,2,0,0,,4,,,52,127
65539,note_on,0,0,0,,0,,,60,127
65760,note_off,221,0,0,,0,,,60,127
65760,note_off,0,0,0,,4,,,52,127
65760,note_off,0,0,0,,10,,,81,127
65760,note_off,0,0,0,,4,,,76,127
65762,note_on,2,0,0,,12,,,83,127
65762,note_on,0,0,0,,2,,,74,127
65762,note_on,0,0,0,,0,,,84,127
65762,note_on,0,0,0,,12,,,59,127
65762,note_on,0,0,0,,4,,,52,127
65983,note_off,221,0,0,,4,,,52,127
65983,note_off,0,0,0,,12,,,59,127
65984,note_off,1,0,0,,0,,,84,127
65985,note_on,1,0,0,,12,,,59,127
65985,note_on,0,0,0,,4,,,52,127
66206,note_off,221,0,0,,4,,,52,127
66206,note_off,0,0,0,,12,,,59,127
66208,note_on,2,0,0,,12,,,59,127
66208,note_on,0,0,0,,4,,,52,127
66429,note_off,221,0,0,,4,,,52,127
66429,note_off,0,0,0,,12,,,59,127
66431,note_on,2,0,0,,12,,,59,127
66431,note_on,0,0,0,,4,,,52,127
66652,note_off,221,0,0,,4,,,52,127
66652,note_off,0,0,0,,12,,,59,127
66652,note_off,0,0,0,,2,,,74,127
66652,note_off,0,0,0,,12,,,83,127
66654,note_on,2,0,0,,2,,,86,127
66654,note_on,0,0,0,,4,,,76,127
66654,note_on,0,0,0,,0,,,84,127
66654,note_on,0,0,0,,10,,,57,127
66654,note_on,0,0,0,,10,,,45,127
66764,note_off,110,0,0,,0,,,84,127
66764,note_off,0,0,0,,4,,,76,127
66764,note_off,0,0,0,,2,,,86,127
66766,note_on,2,0,0,,12,,,83,127
66876,note_off,110,0,0,,12,,,83,127
66876,note_off,0,0,0,,10,,,45,127
66876,note_off,0,0,0,,10,,,57,127
66878,note_on,2,0,0,,10,,,81,127
66878,note_on,0,0,0,,10,,,57,127
66878,note_on,0,0,0,,10,,,45,127
67099,note_off,221,0,0,,10,,,45,127
67099,note_off,0,0,0,,10,,,57,127
67101,note_on,2,0,0,,10,,,45,127
67101,note_on,0,0,0,,10,,,57,127
67322,note_off,221,0,0,,10,,,57,127
67322,note_off,0,0,0,,10,,,45,127
67323,note_off,1,0,0,,10,,,81,127
67324,note_on,1,0,0,,10,,,45,127
67324,note_on,0,0,0,,10,,,57,127
67534,note_off,210,0,0,,10,,,57,127
67534,note_off,0,0,0,,10,,,45,127
67557,note_on,23,0,0,,0,,,84,127
67557,note_on,0,0,0,,1,,,73,127
67557,note_on,0,0,0,,11,,,82,127
67557,note_on,0,0,0,,4,,,64,127
67557,note_on,0,0,0,,7,,,55,127
67778,note_off,221,0,0,,7,,,55,127
67778,note_off,0,0,0,,4,,,64,127
67779,note_off,1,0,0,,0,,,84,127
67780,note_on,1,0,0,,4,,,64,127
67780,note_on,0,0,0,,7,,,55,127
68001,note_off,221,0,0,,7,,,55,127
68001,note_off,0,0,0,,4,,,64,127
68003,note_on,2,0,0,,7,,,55,127
68003,note_on,0,0,0,,4,,,64,127
68224,note_off,221,0,0,,4,,,64,127
68224,note_off,0,0,0,,7,,,55,127
68226,note_on,2,0,0,,7,,,55,127
68226,note_on,0,0,0,,4,,,64,127
68447,note_off,221,0,0,,4,,,64,127
68447,note_off,0,0,0,,7,,,55,127
68447,note_off,0,0,0,,11,,,82,127
68447,note_off,0,0,0,,1,,,73,127
68449,note_on,2,0,0,,10,,,81,127
68449,note_on,0,0,0,,2,,,74,127
68449,note_on,0,0,0,,11,,,82,127
68449,note_on,0,0,0,,2,,,62,127
68449,note_on,0,0,0,,5,,,53,127
68670,note_off,221,0,0,,5,,,53,127
68670,note_off,0,0,0,,2,,,62,127
68671,note_off,1,0,0,,11,,,82,127
68672,note_on,1,0,0,,2,,,62,127
68672,note_on,0,0,0,,5,,,53,127
68893,note_off,221,0,0,,5,,,53,127
68893,note_off,0,0,0,,2,,,62,127
68895,note_on,2,0,0,,5,,,53,127
68895,note_on,0,0,0,,2,,,62,127
69116,note_off,221,0,0,,2,,,62,127
69116,note_off,0,0,0,,5,,,53,127
69118,note_on,2,0,0,,2,,,62,127
69118,note_on,0,0,0,,5,,,53,127
69339,note_off,221,0,0,,5,,,53,127
69339,note_off,0,0,0,,2,,,62,127
69339,note_off,0,0,0,,2,,,74,127
69339,note_off,0,0,0,,10,,,81,127
69341,note_on,2,0,0,,7,,,79,127
69341,note_on,0,0,0,,10,,,81,127
69341,note_on,0,0,0,,4,,,76,127
69341,note_on,0,0,0,,4,,,52,127
69341,note_on,0,0,0,,1,,,61,127
69562,note_off,221,0,0,,1,,,61,127
69562,note_off,0,0,0,,4,,,52,127
69563,note_off,1,0,0,,10,,,81,127
69564,note_on,1,0,0,,4,,,52,127
69564,note_on,0,0,0,,1,,,61,127
69785,note_off,221,0,0,,1,,,61,127
69785,note_off,0,0,0,,4,,,52,127
69787,note_on,2,0,0,,4,,,52,127
69787,note_on,0,0,0,,1,,,61,127
70008,note_off,221,0,0,,1,,,61,127
70008,note_off,0,0,0,,4,,,52,127
70010,note_on,2,0,0,,4,,,52,127
70010,note_on,0,0,0,,1,,,61,127
70231,note_off,221,0,0,,1,,,61,127
70231,note_off,0,0,0,,4,,,52,127
70231,note_off,0,0,0,,4,,,76,127
70231,note_off,0,0,0,,7,,,79,127
70243,note_on,12,0,0,,5,,,77,127
70243,note_on,0,0,0,,2,,,50,127
70243,note_on,0,0,0,,2,,,62,127
70353,note_off,110,0,0,,5,,,77,127
70355,note_on,2,0,0,,2,,,74,127
70465,note_off,110,0,0,,2,,,74,127
70467,note_on,2,0,0,,10,,,81,127
70577,note_off,110,0,0,,10,,,81,127
70579,note_on,2,0,0,,7,,,79,127
70689,note_off,110,0,0,,7,,,79,127
70691,note_on,2,0,0,,5,,,77,127
70801,note_off,110,0,0,,5,,,77,127
70803,note_on,2,0,0,,4,,,76,127
70913,note_off,110,0,0,,4,,,76,127
70913,note_off,0,0,0,,2,,,62,127
70913,note_off,0,0,0,,2,,,50,127
70915,note_on,2,0,0,,2,,,74,127
70915,note_on,0,0,0,,5,,,53,127
71025,note_off,110,0,0,,2,,,74,127
71027,note_on,2,0,0,,0,,,72,127
71137,note_off,110,0,0,,0,,,72,127
71137,note_off,0,0,0,,5,,,53,127
71139,note_on,2,0,0,,12,,,71,127
71139,note_on,0,0,0,,7,,,55,127
71360,note_off,221,0,0,,7,,,55,127
71360,note_off,0,0,0,,12,,,71,127
71362,note_on,2,0,0,,10,,,81,127
71362,note_on,0,0,0,,7,,,55,127
71362,note_on,0,0,0,,12,,,59,127
71583,note_off,221,0,0,,12,,,59,127
71583,note_off,0,0,0,,7,,,55,127
71585,note_on,2,0,0,,10,,,57,127
71585,note_on,0,0,0,,0,,,60,127
71806,note_off,221,0,0,,0,,,60,127
71806,note_off,0,0,0,,10,,,57,127
71806,note_off,0,0,0,,10,,,81,127
71808,note_on,2,0,0,,7,,,79,127
71808,note_on,0,0,0,,2,,,62,127
71808,note_on,0,0,0,,12,,,59,127
71918,note_off,110,0,0,,7,,,79,127
71920,note_on,2,0,0,,5,,,77,127
72030,note_off,110,0,0,,5,,,77,127
72030,note_off,0,0,0,,12,,,59,127
72030,note_off,0,0,0,,2,,,62,127
72032,note_on,2,0,0,,4,,,76,127
72032,note_on,0,0,0,,0,,,60,127
72032,note_on,0,0,0,,0,,,48,127
72253,note_off,221,0,0,,0,,,48,127
72253,note_off,0,0,0,,0,,,60,127
72255,note_on,2,0,0,,0,,,60,127
72255,note_on,0,0,0,,0,,,48,127
72476,note_off,221,0,0,,0,,,48,127
72476,note_off,0,0,0,,0,,,60,127
72478,note_on,2,0,0,,0,,,60,127
72478,note_on,0,0,0,,4,,,52,127
72699,note_off,221,0,0,,4,,,52,127
72699,note_off,0,0,0,,0,,,60,127
72699,note_off,0,0,0,,4,,,76,127
72701,note_on,2,0,0,,5,,,77,127
72701,note_on,0,0,0,,4,,,52,127
72701,note_on,0,0,0,,0,,,60,127
72811,note_off,110,0,0,,5,,,77,127
72813,note_on,2,0,0,,7,,,79,127
72923,note_off,110,0,0,,7,,,79,127
72923,note_off,0,0,0,,0,,,60,127
72923,note_off,0,0,0,,4,,,52,127
72925,note_on,2,0,0,,5,,,77,127
72925,note_on,0,0,0,,5,,,53,127
72925,note_on,0,0,0,,0,,,60,127
73035,note_off,110,0,0,,5,,,77,127
73037,note_on,2,0,0,,4,,,76,127
73147,note_off,110,0,0,,4,,,76,127
73147,note_off,0,0,0,,0,,,60,127
73147,note_off,0,0,0,,5,,,53,127
73149,note_on,2,0,0,,2,,,74,127
73149,note_on,0,0,0,,5,,,53,127
73149,note_on,0,0,0,,0,,,60,127
73259,note_off,110,0,0,,2,,,74,127
73261,note_on,2,0,0,,0,,,72,127
73371,note_off,110,0,0,,0,,,72,127
73371,note_off,0,0,0,,0,,,60,127
73371,note_off,0,0,0,,5,,,53,127
73373,note_on,2,0,0,,2,,,74,127
73373,note_on,0,0,0,,10,,,57,127
73427,note_off,54,0,0,,2,,,74,127
73429,note_on,2,0,0,,0,,,72,127
73483,note_off,54,0,0,,0,,,72,127
73485,note_on,2,0,0,,2,,,74,127
73539,note_off,54,0,0,,2,,,74,127
73541,note_on,2,0,0,,0,,,72,127
73595,note_off,54,0,0,,0,,,72,127
73595,note_off,0,0,0,,10,,,57,127
73597,note_on,2,0,0,,2,,,74,127
73597,note_on,0,0,0,,10,,,57,127
73651,note_off,54,0,0,,2,,,74,127
73653,note_on,2,0,0,,0,,,72,127
73707,note_off,54,0,0,,0,,,72,127
73709,note_on,2,0,0,,12,,,71,127
73763,note_off,54,0,0,,12,,,71,127
73765,note_on,2,0,0,,0,,,72,127
73819,note_off,54,0,0,,0,,,72,127
73819,note_off,0,0,0,,10,,,57,127
73821,note_on,2,0,0,,0,,,72,127
73821,note_on,0,0,0,,7,,,55,127
74042,note_off,221,0,0,,0,,,72,127
74054,note_on,12,0,0,,7,,,43,127
74054,note_on,0,0,0,,2,,,74,127
74264,note_off,210,0,0,,7,,,55,127
74294,note_on,30,0,0,,7,,,55,127
74334,note_off,40,0,0,,7,,,43,127
74389,note_off,55,0,0,,2,,,74,127
74511,note_on,122,0,0,,7,,,79,127
74621,note_off,110,0,0,,7,,,55,127
74733,note_off,112,0,0,,7,,,79,127
74735,note_on,2,0,0,,4,,,76,127
74789,note_off,54,0,0,,4,,,76,127
74791,note_on,2,0,0,,5,,,77,127
74845,note_off,54,0,0,,5,,,77,127
74847,note_on,2,0,0,,7,,,79,127
74901,note_off,54,0,0,,7,,,79,127
74903,note_on,2,0,0,,10,,,81,127
74957,note_off,54,0,0,,10,,,81,127
74959,note_on,2,0,0,,0,,,60,127
74959,note_on,0,0,0,,0,,,48,127
74959,note_on,0,0,0,,7,,,79,127
75180,note_off,221,0,0,,7,,,79,127
75180,note_off,0,0,0,,0,,,48,127
75180,note_off,0,0,0,,0,,,60,127
75182,note_on,2,0,0,,4,,,52,127
75182,note_on,0,0,0,,4,,,64,127
75182,note_on,0,0,0,,0,,,84,127
75403,note_off,221,0,0,,0,,,84,127
75403,note_off,0,0,0,,4,,,64,127
75403,note_off,0,0,0,,4,,,52,127
75405,note_on,2,0,0,,7,,,67,127
75405,note_on,0,0,0,,7,,,55,127
75405,note_on,0,0,0,,7,,,79,127
75626,note_off,221,0,0,,7,,,79,127
75628,note_on,2,0,0,,4,,,76,127
75682,note_off,54,0,0,,4,,,76,127
75684,note_on,2,0,0,,5,,,77,127
75738,note_off,54,0,0,,5,,,77,127
75740,note_off,2,0,0,,7,,,55,127
75740,note_off,0,0,0,,7,,,67,127
75740,note_on,0,0,0,,7,,,79,127
75794,note_off,54,0,0,,7,,,79,127
75796,note_on,2,0,0,,10,,,81,127
75850,note_off,54,0,0,,10,,,81,127
75852,note_on,2,0,0,,0,,,48,127
75852,note_on,0,0,0,,0,,,60,127
75852,note_on,0,0,0,,7,,,79,127
76073,note_off,221,0,0,,7,,,79,127
76073,note_off,0,0,0,,0,,,60,127
76073,note_off,0,0,0,,0,,,48,127
76075,note_on,2,0,0,,4,,,52,127
76075,note_on,0,0,0,,4,,,64,127
76075,note_on,0,0,0,,0,,,84,127
76296,note_off,221,0,0,,0,,,84,127
76296,note_off,0,0,0,,4,,,64,127
76296,note_off,0,0,0,,4,,,52,127
76298,note_on,2,0,0,,7,,,55,127
76298,note_on,0,0,0,,7,,,67,127
76298,note_on,0,0,0,,7,,,79,127
76519,note_off,221,0,0,,7,,,79,127
76519,note_off,0,0,0,,7,,,67,127
76519,note_off,0,0,0,,7,,,55,127
76521,note_on,2,0,0,,0,,,60,127
76521,note_on,0,0,0,,0,,,72,127
76521,note_on,0,0,0,,4,,,76,127
76631,note_off,110,0,0,,4,,,76,127
76633,note_on,2,0,0,,7,,,79,127
76743,note_off,110,0,0,,7,,,79,127
76743,note_off,0,0,0,,0,,,72,127
76743,note_off,0,0,0,,0,,,60,127
76745,note_on,2,0,0,,5,,,65,127
76745,note_on,0,0,0,,5,,,77,127
76855,note_off,110,0,0,,5,,,77,127
76857,note_on,2,0,0,,2,,,74,127
76967,note_off,110,0,0,,2,,,74,127
76967,note_off,0,0,0,,5,,,65,127
76969,note_on,2,0,0,,7,,,67,127
76969,note_on,0,0,0,,4,,,76,127
77190,note_off,221,0,0,,7,,,67,127
77192,note_on,2,0,0,,7,,,55,127
77248,note_off,56,0,0,,4,,,76,127
77248,note_on,0,0,0,,2,,,74,127
77302,note_off,54,0,0,,2,,,74,127
77304,note_on,2,0,0,,4,,,76,127
77358,note_off,54,0,0,,4,,,76,127
77360,note_on,2,0,0,,2,,,74,127
77414,note_off,54,0,0,,2,,,74,127
77414,note_off,0,0,0,,7,,,55,127
77416,note_on,2,0,0,,0,,,72,127
77640,note_on,224,0,0,,0,,,36,127
77640,note_on,0,0,0,,0,,,48,127
77861,note_off,221,0,0,,0,,,48,127
77861,note_off,0,0,0,,0,,,36,127
77863,note_on,2,0,0,,4,,,40,127
77863,note_on,0,0,0,,4,,,52,127
78084,note_off,221,0,0,,4,,,52,127
78084,note_off,0,0,0,,4,,,40,127
78084,note_off,0,0,0,,0,,,72,127
78086,note_on,2,0,0,,7,,,43,127
78086,note_on,0,0,0,,7,,,55,127
78086,note_on,0,0,0,,7,,,79,127
78307,note_off,221,0,0,,7,,,79,127
78309,note_on,2,0,0,,4,,,76,127
78363,note_off,54,0,0,,4,,,76,127
78365,note_on,2,0,0,,5,,,77,127
78419,note_off,54,0,0,,5,,,77,127
78421,note_off,2,0,0,,7,,,55,127
78421,note_off,0,0,0,,7,,,43,127
78421,note_on,0,0,0,,7,,,79,127
78475,note_off,54,0,0,,7,,,79,127
78477,note_on,2,0,0,,10,,,81,127
78531,note_off,54,0,0,,10,,,81,127
78533,note_on,2,0,0,,0,,,36,127
78533,note_on,0,0,0,,0,,,48,127
78533,note_on,0,0,0,,7,,,79,127
78754,note_off,221,0,0,,7,,,79,127
78754,note_off,0,0,0,,0,,,48,127
78754,note_off,0,0,0,,0,,,36,127
78756,note_on,2,0,0,,4,,,40,127
78756,note_on,0,0,0,,4,,,52,127
78756,note_on,0,0,0,,0,,,84,127
78977,note_off,221,0,0,,0,,,84,127
78977,note_off,0,0,0,,4,,,52,127
78977,note_off,0,0,0,,4,,,40,127
78979,note_on,2,0,0,,7,,,43,127
78979,note_on,0,0,0,,7,,,55,127
78979,note_on,0,0,0,,7,,,79,127
79200,note_off,221,0,0,,7,,,79,127
79202,note_on,2,0,0,,4,,,76,127
79256,note_off,54,0,0,,4,,,76,127
79258,note_on,2,0,0,,5,,,77,127
79312,note_off,54,0,0,,5,,,77,127
79314,note_off,2,0,0,,7,,,55,127
79314,note_off,0,0,0,,7,,,43,127
79314,note_on,0,0,0,,7,,,79,127
79368,note_off,54,0,0,,7,,,79,127
79370,note_on,2,0,0,,10,,,81,127
79424,note_off,54,0,0,,10,,,81,127
79426,note_on,2,0,0,,0,,,36,127
79426,note_on,0,0,0,,0,,,48,127
79426,note_on,0,0,0,,7,,,79,127
79647,note_off,221,0,0,,7,,,79,127
79647,note_off,0,0,0,,0,,,48,127
79647,note_off,0,0,0,,0,,,36,127
79649,note_on,2,0,0,,4,,,40,127
79649,note_on,0,0,0,,4,,,52,127
79649,note_on,0,0,0,,0,,,84,127
79870,note_off,221,0,0,,0,,,84,127
79870,note_off,0,0,0,,4,,,52,127
79870,note_off,0,0,0,,4,,,40,127
79872,note_on,2,0,0,,7,,,43,127
79872,note_on,0,0,0,,7,,,55,127
79872,note_on,0,0,0,,7,,,79,127
80093,note_off,221,0,0,,7,,,79,127
80093,note_off,0,0,0,,7,,,55,127
80093,note_off,0,0,0,,7,,,43,127
80095,note_on,2,0,0,,0,,,60,127
80095,note_on,0,0,0,,0,,,48,127
80095,note_on,0,0,0,,4,,,76,127
80205,note_off,110,0,0,,4,,,76,127
80207,note_on,2,0,0,,7,,,79,127
80317,note_off,110,0,0,,7,,,79,127
80317,note_off,0,0,0,,0,,,48,127
80317,note_off,0,0,0,,0,,,60,127
80319,note_on,2,0,0,,5,,,53,127
80319,note_on,0,0,0,,5,,,77,127
80429,note_off,110,0,0,,5,,,77,127
80431,note_on,2,0,0,,2,,,74,127
80541,note_off,110,0,0,,2,,,74,127
80541,note_off,0,0,0,,5,,,53,127
80543,note_on,2,0,0,,7,,,55,127
80543,note_on,0,0,0,,4,,,76,127
80767,note_on,224,0,0,,7,,,43,127
80823,note_off,56,0,0,,4,,,76,127
80823,note_on,0,0,0,,2,,,74,127
80877,note_off,54,0,0,,2,,,74,127
80879,note_on,2,0,0,,4,,,76,127
80933,note_off,54,0,0,,4,,,76,127
80935,note_on,2,0,0,,2,,,74,127
80986,note_off,51,0,0,,7,,,55,127
80988,note_off,2,0,0,,2,,,74,127
80988,note_off,0,0,0,,7,,,43,127
80990,note_on,2,0,0,,0,,,48,127
80990,note_on,0,0,0,,0,,,36,127
80990,note_on,0,0,0,,0,,,72,127
81211,note_off,221,0,0,,0,,,72,127
81225,note_on,14,0,0,,4,,,76,127
81335,note_off,110,0,0,,4,,,76,127
81342,note_on,7,0,0,,5,,,77,127
81452,note_off,110,0,0,,5,,,77,127
81457,note_on,5,0,0,,7,,,79,127
81550,note_off,93,0,0,,0,,,36,127
81550,note_off,0,0,0,,0,,,48,127
81566,note_off,16,0,0,,7,,,79,127
81568,note_on,2,0,0,,0,,,72,127
81678,note_off,110,0,0,,0,,,72,127
81680,note_on,2,0,0,,2,,,74,127
81680,note_on,0,0,0,,7,,,67,127
81680,note_on,0,0,0,,7,,,55,127
81790,note_off,110,0,0,,2,,,74,127
81792,note_on,2,0,0,,12,,,71,127
81902,note_off,110,0,0,,12,,,71,127
81902,note_off,0,0,0,,7,,,55,127
81902,note_off,0,0,0,,7,,,67,127
81904,note_on,2,0,0,,0,,,72,127
81904,note_on,0,0,0,,4,,,52,127
81904,note_on,0,0,0,,4,,,64,127
82125,note_off,221,0,0,,4,,,64,127
82125,note_off,0,0,0,,4,,,52,127
82125,note_off,0,0,0,,0,,,72,127
82127,note_on,2,0,0,,4,,,76,127
82127,note_on,0,0,0,,0,,,48,127
82127,note_on,0,0,0,,0,,,60,127
82237,note_off,110,0,0,,4,,,76,127
82239,note_on,2,0,0,,5,,,77,127
82349,note_off,110,0,0,,5,,,77,127
82351,note_on,2,0,0,,7,,,79,127
82461,note_off,110,0,0,,7,,,79,127
82463,note_off,2,0,0,,0,,,60,127
82463,note_off,0,0,0,,0,,,48,127
82463,note_on,0,0,0,,0,,,72,127
82573,note_off,110,0,0,,0,,,72,127
82575,note_on,2,0,0,,2,,,74,127
82575,note_on,0,0,0,,7,,,67,127
82575,note_on,0,0,0,,7,,,55,127
82685,note_off,110,0,0,,2,,,74,127
82687,note_on,2,0,0,,12,,,71,127
82797,note_off,110,0,0,,12,,,71,127
82797,note_off,0,0,0,,7,,,55,127
82797,note_off,0,0,0,,7,,,67,127
82799,note_on,2,0,0,,0,,,72,127
82799,note_on,0,0,0,,4,,,64,127
82799,note_on,0,0,0,,4,,,52,127
83020,note_off,221,0,0,,4,,,52,127
83020,note_off,0,0,0,,4,,,64,127
83020,note_off,0,0,0,,0,,,72,127
83022,note_on,2,0,0,,2,,,74,127
83022,note_on,0,0,0,,0,,,48,127
83022,note_on,0,0,0,,0,,,60,127
83132,note_off,110,0,0,,2,,,74,127
83134,note_on,2,0,0,,4,,,76,127
83244,note_off,110,0,0,,4,,,76,127
83246,note_on,2,0,0,,5,,,77,127
83356,note_off,110,0,0,,5,,,77,127
83357,note_off,1,0,0,,0,,,60,127
83357,note_off,0,0,0,,0,,,48,127
83358,note_on,1,0,0,,7,,,79,127
83468,note_off,110,0,0,,7,,,79,127
83470,note_on,2,0,0,,10,,,81,127
83470,note_on,0,0,0,,2,,,50,127
83470,note_on,0,0,0,,2,,,38,127
83580,note_off,110,0,0,,10,,,81,127
83582,note_on,2,0,0,,12,,,83,127
83692,note_off,110,0,0,,12,,,83,127
83692,note_off,0,0,0,,2,,,38,127
83692,note_off,0,0,0,,2,,,50,127
83694,note_on,2,0,0,,0,,,84,127
83694,note_on,0,0,0,,4,,,52,127
83694,note_on,0,0,0,,4,,,40,127
83804,note_off,110,0,0,,0,,,84,127
83806,note_on,2,0,0,,7,,,79,127
83916,note_off,110,0,0,,7,,,79,127
83916,note_off,0,0,0,,4,,,40,127
83916,note_off,0,0,0,,4,,,52,127
83918,note_on,2,0,0,,10,,,81,127
83918,note_on,0,0,0,,5,,,41,127
83918,note_on,0,0,0,,5,,,53,127
84028,note_off,110,0,0,,10,,,81,127
84030,note_on,2,0,0,,5,,,77,127
84140,note_off,110,0,0,,5,,,77,127
84140,note_off,0,0,0,,5,,,53,127
84140,note_off,0,0,0,,5,,,41,127
84142,note_on,2,0,0,,4,,,76,127
84142,note_on,0,0,0,,7,,,55,127
84142,note_on,0,0,0,,7,,,43,127
84254,note_on,112,0,0,,0,,,84,127
84282,note_off,28,0,0,,4,,,76,127
84364,note_off,82,0,0,,0,,,84,127
84364,note_off,0,0,0,,7,,,43,127
84364,note_off,0,0,0,,7,,,55,127
84366,note_on,2,0,0,,2,,,74,127
84366,note_on,0,0,0,,5,,,41,127
84366,note_on,0,0,0,,5,,,53,127
84478,note_on,112,0,0,,12,,,83,127
84506,note_off,28,0,0,,2,,,74,127
84588,note_off,82,0,0,,12,,,83,127
84588,note_off,0,0,0,,5,,,53,127
84588,note_off,0,0,0,,5,,,41,127
84595,note_on,7,0,0,,4,,,40,127
84595,note_on,0,0,0,,4,,,52,127
84595,note_on,0,0,0,,0,,,84,127
84705,note_off,110,0,0,,0,,,84,127
84707,note_on,2,0,0,,7,,,79,127
84817,note_off,110,0,0,,7,,,79,127
84817,note_off,0,0,0,,4,,,52,127
84817,note_off,0,0,0,,4,,,40,127
84819,note_on,2,0,0,,5,,,53,127
84819,note_on,0,0,0,,5,,,41,127
84819,note_on,0,0,0,,10,,,81,127
84929,note_off,110,0,0,,10,,,81,127
84931,note_on,2,0,0,,5,,,77,127
85041,note_off,110,0,0,,5,,,77,127
85041,note_off,0,0,0,,5,,,41,127
85041,note_off,0,0,0,,5,,,53,127
85043,note_on,2,0,0,,7,,,55,127
85043,note_on,0,0,0,,7,,,43,127
85043,note_on,0,0,0,,4,,,76,127
85155,note_on,112,0,0,,0,,,84,127
85265,note_off,110,0,0,,4,,,76,127
85265,note_off,0,0,0,,7,,,43,127
85265,note_off,0,0,0,,7,,,55,127
85267,note_on,2,0,0,,5,,,53,127
85267,note_on,0,0,0,,5,,,41,127
85267,note_on,0,0,0,,2,,,74,127
85377,note_off,110,0,0,,0,,,84,127
85379,note_on,2,0,0,,12,,,83,127
85489,note_off,110,0,0,,12,,,83,127
85489,note_off,0,0,0,,2,,,74,127
85489,note_off,0,0,0,,5,,,41,127
85489,note_off,0,0,0,,5,,,53,127
85496,note_on,7,0,0,,0,,,84,127
85496,note_on,0,0,0,,4,,,52,127
85496,note_on,0,0,0,,4,,,40,127
85606,note_off,110,0,0,,0,,,84,127
85608,note_on,2,0,0,,7,,,79,127
85718,note_off,110,0,0,,7,,,79,127
85718,note_off,0,0,0,,4,,,40,127
85718,note_off,0,0,0,,4,,,52,127
85720,note_on,2,0,0,,10,,,81,127
85720,note_on,0,0,0,,5,,,53,127
85720,note_on,0,0,0,,5,,,41,127
85830,note_off,110,0,0,,10,,,81,127
85832,note_on,2,0,0,,0,,,72,127
85942,note_off,110,0,0,,5,,,41,127
85942,note_off,0,0,0,,5,,,53,127
85944,note_on,2,0,0,,7,,,55,127
85944,note_on,0,0,0,,7,,,43,127
86165,note_off,221,0,0,,7,,,43,127
86165,note_off,0,0,0,,7,,,55,127
86165,note_off,0,0,0,,0,,,72,127
86167,note_on,2,0,0,,0,,,72,127
86167,note_on,0,0,0,,5,,,53,127
86167,note_on,0,0,0,,5,,,41,127
86221,note_off,54,0,0,,0,,,72,127
86223,note_on,2,0,0,,12,,,71,127
86277,note_off,54,0,0,,12,,,71,127
86279,note_on,2,0,0,,0,,,72,127
86333,note_off,54,0,0,,0,,,72,127
86335,note_on,2,0,0,,12,,,71,127
86389,note_off,54,0,0,,12,,,71,127
86389,note_off,0,0,0,,5,,,41,127
86389,note_off,0,0,0,,5,,,53,127
86391,note_on,2,0,0,,0,,,72,127
86391,note_on,0,0,0,,4,,,40,127
86391,note_on,0,0,0,,4,,,52,127
86501,note_off,110,0,0,,0,,,72,127
86503,note_on,2,0,0,,7,,,67,127
86613,note_off,110,0,0,,7,,,67,127
86613,note_off,0,0,0,,4,,,52,127
86613,note_off,0,0,0,,4,,,40,127
86615,note_on,2,0,0,,10,,,69,127
86615,note_on,0,0,0,,5,,,53,127
86615,note_on,0,0,0,,5,,,41,127
86725,note_off,110,0,0,,10,,,69,127
86727,note_on,2,0,0,,0,,,60,127
86837,note_off,110,0,0,,5,,,41,127
86837,note_off,0,0,0,,5,,,53,127
86839,note_on,2,0,0,,7,,,55,127
86839,note_on,0,0,0,,7,,,43,127
87060,note_off,221,0,0,,7,,,43,127
87060,note_off,0,0,0,,7,,,55,127
87060,note_off,0,0,0,,0,,,60,127
87062,note_on,2,0,0,,0,,,60,127
87062,note_on,0,0,0,,7,,,43,127
87116,note_off,54,0,0,,0,,,60,127
87118,note_on,2,0,0,,12,,,59,127
87172,note_off,54,0,0,,12,,,59,127
87174,note_on,2,0,0,,0,,,60,127
87228,note_off,54,0,0,,0,,,60,127
87230,note_on,2,0,0,,12,,,59,127
87284,note_off,54,0,0,,12,,,59,127
87284,note_off,0,0,0,,7,,,43,127
87305,note_on,21,0,0,,0,,,36,127
87305,note_on,0,0,0,,0,,,48,127
87305,note_on,0,0,0,,12,,,59,127
87599,note_on,294,0,0,,0,,,60,127
87667,note_off,68,0,0,,12,,,59,127
89165,note_off,1498,0,0,,0,,,60,127
89170,note_off,5,0,0,,0,,,48,127
89170,note_off,0,0,0,,0,,,36,127
95232,end_of_track,6062,1,0,,,,,,
