tick,type,time,meta,track,program,channel,pitch,tempo,note,velocity
0,copyright,0,1,0,,,,,,
0,program_change,0,0,0,6,0,,,,
0,pitchwheel,0,0,0,,0,0,,,
0,program_change,0,0,0,6,1,,,,
0,pitchwheel,0,0,0,,1,-590,,,
0,program_change,0,0,0,6,2,,,,
0,pitchwheel,0,0,0,,2,-272,,,
0,program_change,0,0,0,6,3,,,,
0,pitchwheel,0,0,0,,3,-353,,,
0,program_change,0,0,0,6,4,,,,
0,pitchwheel,0,0,0,,4,-560,,,
0,program_change,0,0,0,6,5,,,,
0,pitchwheel,0,0,0,,5,-80,,,
0,program_change,0,0,0,6,6,,,,
0,pitchwheel,0,0,0,,6,-625,,,
0,program_change,0,0,0,6,7,,,,
0,pitchwheel,0,0,0,,7,-130,,,
0,program_change,0,0,0,6,8,,,,
0,pitchwheel,0,0,0,,8,-512,,,
0,program_change,0,0,0,6,10,,,,
0,pitchwheel,0,0,0,,10,-464,,,
0,program_change,0,0,0,6,11,,,,
0,pitchwheel,0,0,0,,11,-208,,,
0,program_change,0,0,0,6,12,,,,
0,pitchwheel,0,0,0,,12,-553,,,
0,set_tempo,0,1,0,,,,500000,,
100,note_on,100,0,0,,7,,,43,127
100,note_on,0,0,0,,7,,,55,127
100,note_on,0,0,0,,7,,,67,127
200,note_on,100,0,0,,12,,,71,127
299,note_off,99,0,0,,12,,,71,127
300,note_on,1,0,0,,2,,,74,127
399,note_off,99,0,0,,2,,,74,127
400,note_on,1,0,0,,7,,,79,127
496,note_off,96,0,0,,7,,,67,127
500,note_on,4,0,0,,7,,,67,127
692,note_off,192,0,0,,7,,,79,127
700,note_on,8,0,0,,4,,,76,127
700,note_on,0,0,0,,0,,,72,127
899,note_off,199,0,0,,0,,,72,127
899,note_off,0,0,0,,4,,,76,127
900,note_on,1,0,0,,12,,,71,127
900,note_on,0,0,0,,2,,,74,127
1099,note_off,199,0,0,,2,,,74,127
1099,note_off,0,0,0,,12,,,71,127
1099,note_off,0,0,0,,7,,,67,127
1100,note_on,1,0,0,,0,,,72,127
1100,note_on,0,0,0,,10,,,69,127
1299,note_off,199,0,0,,10,,,69,127
1299,note_off,0,0,0,,0,,,72,127
1299,note_off,0,0,0,,7,,,55,127
1299,note_off,0,0,0,,7,,,43,127
1300,note_on,1,0,0,,7,,,43,127
1300,note_on,0,0,0,,7,,,55,127
1300,note_on,0,0,0,,7,,,67,127
1400,note_on,100,0,0,,12,,,71,127
1499,note_off,99,0,0,,12,,,71,127
1500,note_on,1,0,0,,2,,,74,127
1599,note_off,99,0,0,,2,,,74,127
1600,note_on,1,0,0,,7,,,79,127
1696,note_off,96,0,0,,7,,,67,127
1700,note_on,4,0,0,,7,,,67,127
1892,note_off,192,0,0,,7,,,79,127
1900,note_on,8,0,0,,4,,,76,127
1900,note_on,0,0,0,,0,,,72,127
2099,note_off,199,0,0,,0,,,72,127
2099,note_off,0,0,0,,4,,,76,127
2100,note_on,1,0,0,,12,,,71,127
2100,note_on,0,0,0,,2,,,74,127
2299,note_off,199,0,0,,2,,,74,127
2299,note_off,0,0,0,,12,,,71,127
2299,note_off,0,0,0,,7,,,67,127
2300,note_on,1,0,0,,0,,,72,127
2300,note_on,0,0,0,,10,,,69,127
2499,note_off,199,0,0,,10,,,69,127
2499,note_off,0,0,0,,0,,,72,127
2499,note_off,0,0,0,,7,,,55,127
2499,note_off,0,0,0,,7,,,43,127
2500,note_on,1,0,0,,7,,,55,127
2500,note_on,0,0,0,,7,,,43,127
2500,note_on,0,0,0,,7,,,67,127
2600,note_on,100,0,0,,12,,,71,127
2699,note_off,99,0,0,,12,,,71,127
2700,note_on,1,0,0,,2,,,74,127
2799,note_off,99,0,0,,2,,,74,127
2800,note_on,1,0,0,,7,,,79,127
2896,note_off,96,0,0,,7,,,67,127
2900,note_on,4,0,0,,7,,,67,127
3092,note_off,192,0,0,,7,,,79,127
3100,note_on,8,0,0,,4,,,76,127
3100,note_on,0,0,0,,0,,,72,127
3299,note_off,199,0,0,,0,,,72,127
3299,note_off,0,0,0,,4,,,76,127
3300,note_on,1,0,0,,12,,,71,127
3300,note_on,0,0,0,,2,,,74,127
3499,note_off,199,0,0,,2,,,74,127
3499,note_off,0,0,0,,12,,,71,127
3499,note_off,0,0,0,,7,,,67,127
3500,note_on,1,0,0,,10,,,69,127
3500,note_on,0,0,0,,0,,,72,127
3699,note_off,199,0,0,,0,,,72,127
3699,note_off,0,0,0,,10,,,69,127
3699,note_off,0,0,0,,7,,,43,127
3699,note_off,0,0,0,,7,,,55,127
3700,note_on,1,0,0,,7,,,55,127
3700,note_on,0,0,0,,2,,,74,127
3700,note_on,0,0,0,,12,,,71,127
3800,note_on,100,0,0,,12,,,59,127
3899,note_off,99,0,0,,12,,,59,127
3900,note_on,1,0,0,,2,,,62,127
3999,note_off,99,0,0,,2,,,62,127
4000,note_on,1,0,0,,7,,,67,127
4096,note_off,96,0,0,,7,,,55,127
4099,note_off,3,0,0,,7,,,67,127
4100,note_on,1,0,0,,7,,,55,127
4268,note_off,168,0,0,,12,,,71,127
4268,note_off,0,0,0,,2,,,74,127
4300,note_on,32,0,0,,4,,,64,127
4300,note_on,0,0,0,,0,,,60,127
4300,note_on,0,0,0,,10,,,69,127
4300,note_on,0,0,0,,6,,,66,127
4499,note_off,199,0,0,,6,,,66,127
4499,note_off,0,0,0,,10,,,69,127
4499,note_off,0,0,0,,0,,,60,127
4499,note_off,0,0,0,,4,,,64,127
4500,note_on,1,0,0,,2,,,62,127
4500,note_on,0,0,0,,12,,,59,127
4500,note_on,0,0,0,,12,,,71,127
4500,note_on,0,0,0,,7,,,67,127
4699,note_off,199,0,0,,7,,,67,127
4699,note_off,0,0,0,,12,,,71,127
4699,note_off,0,0,0,,12,,,59,127
4699,note_off,0,0,0,,2,,,62,127
4699,note_off,0,0,0,,7,,,55,127
4700,note_on,1,0,0,,0,,,60,127
4700,note_on,0,0,0,,10,,,57,127
4700,note_on,0,0,0,,10,,,69,127
4700,note_on,0,0,0,,0,,,72,127
4899,note_off,199,0,0,,0,,,72,127
4899,note_off,0,0,0,,10,,,69,127
4899,note_off,0,0,0,,10,,,57,127
4899,note_off,0,0,0,,0,,,60,127
4900,note_on,1,0,0,,7,,,55,127
4900,note_on,0,0,0,,10,,,69,127
4900,note_on,0,0,0,,0,,,72,127
5000,note_on,100,0,0,,12,,,59,127
5099,note_off,99,0,0,,12,,,59,127
5100,note_on,1,0,0,,2,,,62,127
5199,note_off,99,0,0,,2,,,62,127
5200,note_on,1,0,0,,7,,,67,127
5296,note_off,96,0,0,,7,,,55,127
5299,note_off,3,0,0,,7,,,67,127
5299,note_off,0,0,0,,0,,,72,127
5299,note_off,0,0,0,,10,,,69,127
5300,note_on,1,0,0,,7,,,55,127
5300,note_on,0,0,0,,12,,,71,127
5300,note_on,0,0,0,,2,,,74,127
5499,note_off,199,0,0,,2,,,74,127
5499,note_off,0,0,0,,12,,,71,127
5500,note_on,1,0,0,,0,,,60,127
5500,note_on,0,0,0,,4,,,64,127
5500,note_on,0,0,0,,6,,,66,127
5500,note_on,0,0,0,,10,,,69,127
5699,note_off,199,0,0,,10,,,69,127
5699,note_off,0,0,0,,6,,,66,127
5699,note_off,0,0,0,,4,,,64,127
5699,note_off,0,0,0,,0,,,60,127
5700,note_on,1,0,0,,12,,,59,127
5700,note_on,0,0,0,,2,,,62,127
5700,note_on,0,0,0,,7,,,67,127
5700,note_on,0,0,0,,12,,,71,127
5899,note_off,199,0,0,,12,,,71,127
5899,note_off,0,0,0,,7,,,67,127
5899,note_off,0,0,0,,2,,,62,127
5899,note_off,0,0,0,,12,,,59,127
5899,note_off,0,0,0,,7,,,55,127
5900,note_on,1,0,0,,0,,,60,127
5900,note_on,0,0,0,,10,,,57,127
5900,note_on,0,0,0,,0,,,72,127
5900,note_on,0,0,0,,10,,,69,127
6099,note_off,199,0,0,,10,,,69,127
6099,note_off,0,0,0,,0,,,72,127
6099,note_off,0,0,0,,10,,,57,127
6099,note_off,0,0,0,,0,,,60,127
6100,note_on,1,0,0,,7,,,55,127
6100,note_on,0,0,0,,10,,,69,127
6100,note_on,0,0,0,,0,,,72,127
6200,note_on,100,0,0,,12,,,59,127
6299,note_off,99,0,0,,12,,,59,127
6300,note_on,1,0,0,,2,,,62,127
6399,note_off,99,0,0,,2,,,62,127
6400,note_on,1,0,0,,7,,,67,127
6496,note_off,96,0,0,,7,,,55,127
6499,note_off,3,0,0,,7,,,67,127
6499,note_off,0,0,0,,0,,,72,127
6499,note_off,0,0,0,,10,,,69,127
6500,note_on,1,0,0,,7,,,55,127
6500,note_on,0,0,0,,2,,,74,127
6500,note_on,0,0,0,,12,,,71,127
6699,note_off,199,0,0,,12,,,71,127
6699,note_off,0,0,0,,2,,,74,127
6700,note_on,1,0,0,,0,,,60,127
6700,note_on,0,0,0,,4,,,64,127
6700,note_on,0,0,0,,10,,,69,127
6700,note_on,0,0,0,,6,,,66,127
6899,note_off,199,0,0,,6,,,66,127
6899,note_off,0,0,0,,10,,,69,127
6899,note_off,0,0,0,,4,,,64,127
6899,note_off,0,0,0,,0,,,60,127
6900,note_on,1,0,0,,12,,,59,127
6900,note_on,0,0,0,,2,,,62,127
6900,note_on,0,0,0,,7,,,67,127
6900,note_on,0,0,0,,12,,,71,127
7099,note_off,199,0,0,,12,,,71,127
7099,note_off,0,0,0,,7,,,67,127
7099,note_off,0,0,0,,2,,,62,127
7099,note_off,0,0,0,,12,,,59,127
7099,note_off,0,0,0,,7,,,55,127
7100,note_on,1,0,0,,0,,,60,127
7100,note_on,0,0,0,,10,,,57,127
7100,note_on,0,0,0,,0,,,72,127
7100,note_on,0,0,0,,10,,,69,127
7299,note_off,199,0,0,,10,,,69,127
7299,note_off,0,0,0,,0,,,72,127
7299,note_off,0,0,0,,10,,,57,127
7299,note_off,0,0,0,,0,,,60,127
7300,note_on,1,0,0,,2,,,62,127
7300,note_on,0,0,0,,7,,,55,127
7300,note_on,0,0,0,,12,,,71,127
7300,note_on,0,0,0,,2,,,74,127
7499,note_off,199,0,0,,2,,,74,127
7500,note_on,1,0,0,,7,,,79,127
7699,note_off,199,0,0,,7,,,79,127
7699,note_off,0,0,0,,12,,,71,127
7699,note_off,0,0,0,,7,,,55,127
7699,note_off,0,0,0,,2,,,62,127
7700,note_on,1,0,0,,0,,,48,127
7700,note_on,0,0,0,,0,,,60,127
7700,note_on,0,0,0,,4,,,76,127
7700,note_on,0,0,0,,0,,,72,127
7899,note_off,199,0,0,,0,,,72,127
7899,note_off,0,0,0,,4,,,76,127
7900,note_on,1,0,0,,0,,,72,127
7900,note_on,0,0,0,,10,,,69,127
8099,note_off,199,0,0,,0,,,60,127
8099,note_off,0,0,0,,0,,,48,127
8100,note_on,1,0,0,,2,,,50,127
8100,note_on,0,0,0,,0,,,60,127
8299,note_off,199,0,0,,10,,,69,127
8299,note_off,0,0,0,,0,,,72,127
8300,note_on,1,0,0,,10,,,69,127
8300,note_on,0,0,0,,6,,,66,127
8499,note_off,199,0,0,,6,,,66,127
8499,note_off,0,0,0,,10,,,69,127
8499,note_off,0,0,0,,0,,,60,127
8499,note_off,0,0,0,,2,,,50,127
8500,note_on,1,0,0,,7,,,55,127
8500,note_on,0,0,0,,2,,,62,127
8500,note_on,0,0,0,,12,,,59,127
8500,note_on,0,0,0,,12,,,71,127
8500,note_on,0,0,0,,7,,,67,127
8699,note_off,199,0,0,,12,,,71,127
8700,note_on,1,0,0,,7,,,79,127
8899,note_off,199,0,0,,7,,,79,127
8899,note_off,0,0,0,,7,,,67,127
8899,note_off,0,0,0,,12,,,59,127
8899,note_off,0,0,0,,2,,,62,127
8899,note_off,0,0,0,,7,,,55,127
8900,note_on,1,0,0,,0,,,48,127
8900,note_on,0,0,0,,0,,,60,127
8900,note_on,0,0,0,,4,,,76,127
8900,note_on,0,0,0,,0,,,72,127
9099,note_off,199,0,0,,0,,,72,127
9099,note_off,0,0,0,,4,,,76,127
9100,note_on,1,0,0,,10,,,69,127
9100,note_on,0,0,0,,0,,,72,127
9299,note_off,199,0,0,,0,,,60,127
9299,note_off,0,0,0,,0,,,48,127
9300,note_on,1,0,0,,2,,,50,127
9300,note_on,0,0,0,,0,,,60,127
9499,note_off,199,0,0,,0,,,72,127
9499,note_off,0,0,0,,10,,,69,127
9500,note_on,1,0,0,,7,,,67,127
9500,note_on,0,0,0,,12,,,71,127
9599,note_off,99,0,0,,12,,,71,127
9599,note_off,0,0,0,,7,,,67,127
9600,note_on,1,0,0,,6,,,66,127
9600,note_on,0,0,0,,10,,,69,127
9699,note_off,99,0,0,,10,,,69,127
9699,note_off,0,0,0,,6,,,66,127
9699,note_off,0,0,0,,0,,,60,127
9699,note_off,0,0,0,,2,,,50,127
9700,note_on,1,0,0,,7,,,55,127
9700,note_on,0,0,0,,7,,,67,127
9700,note_on,0,0,0,,12,,,71,127
9898,note_off,198,0,0,,7,,,67,127
9899,note_off,1,0,0,,7,,,55,127
9900,note_on,1,0,0,,7,,,67,127
10099,note_off,199,0,0,,7,,,67,127
10100,note_on,1,0,0,,4,,,64,127
10100,note_on,0,0,0,,0,,,60,127
10268,note_off,168,0,0,,12,,,71,127
10299,note_off,31,0,0,,0,,,60,127
10299,note_off,0,0,0,,4,,,64,127
10300,note_on,1,0,0,,10,,,57,127
10300,note_on,0,0,0,,0,,,60,127
10300,note_on,0,0,0,,0,,,72,127
10499,note_off,199,0,0,,0,,,60,127
10499,note_off,0,0,0,,10,,,57,127
10500,note_on,1,0,0,,6,,,54,127
10500,note_on,0,0,0,,10,,,57,127
10699,note_off,199,0,0,,6,,,54,127
10699,note_off,0,0,0,,0,,,72,127
10700,note_on,1,0,0,,2,,,50,127
10700,note_on,0,0,0,,2,,,74,127
10899,note_off,199,0,0,,2,,,74,127
10899,note_off,0,0,0,,2,,,50,127
10899,note_off,0,0,0,,10,,,57,127
10900,note_on,1,0,0,,7,,,55,127
10900,note_on,0,0,0,,12,,,71,127
11099,note_off,199,0,0,,7,,,55,127
11100,note_on,1,0,0,,7,,,67,127
11299,note_off,199,0,0,,7,,,67,127
11300,note_on,1,0,0,,0,,,60,127
11300,note_on,0,0,0,,4,,,64,127
11468,note_off,168,0,0,,12,,,71,127
11499,note_off,31,0,0,,4,,,64,127
11499,note_off,0,0,0,,0,,,60,127
11500,note_on,1,0,0,,0,,,60,127
11500,note_on,0,0,0,,10,,,57,127
11500,note_on,0,0,0,,0,,,72,127
11699,note_off,199,0,0,,10,,,57,127
11699,note_off,0,0,0,,0,,,60,127
11700,note_on,1,0,0,,6,,,54,127
11700,note_on,0,0,0,,10,,,57,127
11899,note_off,199,0,0,,6,,,54,127
11899,note_off,0,0,0,,0,,,72,127
11900,note_on,1,0,0,,2,,,50,127
11900,note_on,0,0,0,,2,,,74,127
12099,note_off,199,0,0,,2,,,74,127
12099,note_off,0,0,0,,2,,,50,127
12099,note_off,0,0,0,,10,,,57,127
12100,note_on,1,0,0,,7,,,43,127
12100,note_on,0,0,0,,12,,,71,127
12199,note_off,99,0,0,,12,,,71,127
12200,note_on,1,0,0,,7,,,67,127
12299,note_off,99,0,0,,7,,,67,127
12300,note_on,1,0,0,,12,,,71,127
12399,note_off,99,0,0,,12,,,71,127
12400,note_on,1,0,0,,2,,,74,127
12499,note_off,99,0,0,,2,,,74,127
12500,note_on,1,0,0,,7,,,79,127
12599,note_off,99,0,0,,7,,,79,127
12600,note_on,1,0,0,,2,,,74,127
12699,note_off,99,0,0,,2,,,74,127
12699,note_off,0,0,0,,7,,,43,127
12700,note_on,1,0,0,,12,,,71,127
12799,note_off,99,0,0,,12,,,71,127
12800,note_on,1,0,0,,7,,,67,127
12899,note_off,99,0,0,,7,,,67,127
12900,note_on,1,0,0,,2,,,62,127
12999,note_off,99,0,0,,2,,,62,127
13000,note_on,1,0,0,,12,,,59,127
13099,note_off,99,0,0,,12,,,59,127
13100,note_on,1,0,0,,7,,,55,127
13199,note_off,99,0,0,,7,,,55,127
13200,note_on,1,0,0,,2,,,50,127
13299,note_off,99,0,0,,2,,,50,127
13300,note_on,1,0,0,,7,,,43,127
14208,note_off,908,0,0,,7,,,43,127
14502,note_on,294,0,0,,7,,,55,127
14502,note_on,0,0,0,,7,,,43,127
14502,note_on,0,0,0,,7,,,79,127
14601,note_off,99,0,0,,7,,,79,127
14602,note_on,1,0,0,,2,,,74,127
14701,note_off,99,0,0,,2,,,74,127
14702,note_on,1,0,0,,12,,,71,127
14801,note_off,99,0,0,,12,,,71,127
14802,note_on,1,0,0,,7,,,67,127
14901,note_off,99,0,0,,7,,,67,127
14902,note_on,1,0,0,,12,,,71,127
15001,note_off,99,0,0,,12,,,71,127
15002,note_on,1,0,0,,2,,,74,127
15070,note_off,68,0,0,,7,,,43,127
15070,note_off,0,0,0,,7,,,55,127
15101,note_off,31,0,0,,2,,,74,127
15102,note_on,1,0,0,,0,,,48,127
15102,note_on,0,0,0,,7,,,79,127
15201,note_off,99,0,0,,7,,,79,127
15202,note_on,1,0,0,,12,,,83,127
15301,note_off,99,0,0,,0,,,48,127
15302,note_on,1,0,0,,2,,,50,127
15302,note_on,0,0,0,,2,,,74,127
15401,note_off,99,0,0,,12,,,83,127
15402,note_on,1,0,0,,10,,,81,127
15501,note_off,99,0,0,,10,,,81,127
15502,note_on,1,0,0,,2,,,38,127
15502,note_on,0,0,0,,7,,,79,127
15601,note_off,99,0,0,,7,,,79,127
15602,note_on,1,0,0,,6,,,78,127
15698,note_off,96,0,0,,2,,,50,127
15701,note_off,3,0,0,,6,,,78,127
15701,note_off,0,0,0,,2,,,38,127
15701,note_off,0,0,0,,2,,,74,127
15702,note_on,1,0,0,,7,,,43,127
15702,note_on,0,0,0,,7,,,79,127
15801,note_off,99,0,0,,7,,,79,127
15802,note_on,1,0,0,,2,,,74,127
15901,note_off,99,0,0,,2,,,74,127
15902,note_on,1,0,0,,12,,,71,127
16001,note_off,99,0,0,,12,,,71,127
16002,note_on,1,0,0,,7,,,67,127
16101,note_off,99,0,0,,7,,,67,127
16102,note_on,1,0,0,,12,,,71,127
16201,note_off,99,0,0,,12,,,71,127
16202,note_on,1,0,0,,2,,,74,127
16270,note_off,68,0,0,,7,,,43,127
16301,note_off,31,0,0,,2,,,74,127
16302,note_on,1,0,0,,0,,,48,127
16302,note_on,0,0,0,,7,,,79,127
16401,note_off,99,0,0,,7,,,79,127
16402,note_on,1,0,0,,12,,,83,127
16501,note_off,99,0,0,,0,,,48,127
16502,note_on,1,0,0,,2,,,50,127
16502,note_on,0,0,0,,2,,,74,127
16601,note_off,99,0,0,,12,,,83,127
16602,note_on,1,0,0,,10,,,81,127
16701,note_off,99,0,0,,10,,,81,127
16702,note_on,1,0,0,,2,,,38,127
16702,note_on,0,0,0,,7,,,79,127
16801,note_off,99,0,0,,7,,,79,127
16802,note_on,1,0,0,,6,,,78,127
16898,note_off,96,0,0,,2,,,50,127
16901,note_off,3,0,0,,6,,,78,127
16901,note_off,0,0,0,,2,,,38,127
16901,note_off,0,0,0,,2,,,74,127
16902,note_on,1,0,0,,7,,,55,127
16902,note_on,0,0,0,,7,,,79,127
17001,note_off,99,0,0,,7,,,55,127
17002,note_on,1,0,0,,2,,,50,127
17101,note_off,99,0,0,,2,,,50,127
17102,note_on,1,0,0,,12,,,47,127
17201,note_off,99,0,0,,12,,,47,127
17202,note_on,1,0,0,,7,,,43,127
17301,note_off,99,0,0,,7,,,43,127
17302,note_on,1,0,0,,12,,,47,127
17401,note_off,99,0,0,,12,,,47,127
17402,note_off,1,0,0,,7,,,79,127
17402,note_on,0,0,0,,2,,,50,127
17501,note_off,99,0,0,,2,,,50,127
17502,note_on,1,0,0,,7,,,55,127
17502,note_on,0,0,0,,2,,,74,127
17601,note_off,99,0,0,,7,,,55,127
17602,note_on,1,0,0,,12,,,59,127
17702,note_on,100,0,0,,2,,,50,127
17801,note_off,99,0,0,,12,,,59,127
17802,note_on,1,0,0,,10,,,57,127
17901,note_off,99,0,0,,10,,,57,127
17901,note_off,0,0,0,,2,,,74,127
17902,note_on,1,0,0,,7,,,55,127
17902,note_on,0,0,0,,0,,,72,127
18001,note_off,99,0,0,,7,,,55,127
18002,note_on,1,0,0,,6,,,54,127
18101,note_off,99,0,0,,6,,,54,127
18101,note_off,0,0,0,,0,,,72,127
18101,note_off,0,0,0,,2,,,50,127
18102,note_on,1,0,0,,7,,,55,127
18102,note_on,0,0,0,,12,,,71,127
18201,note_off,99,0,0,,7,,,55,127
18202,note_on,1,0,0,,2,,,50,127
18301,note_off,99,0,0,,2,,,50,127
18302,note_on,1,0,0,,12,,,47,127
18401,note_off,99,0,0,,12,,,47,127
18402,note_on,1,0,0,,7,,,43,127
18501,note_off,99,0,0,,7,,,43,127
18502,note_on,1,0,0,,12,,,47,127
18601,note_off,99,0,0,,12,,,47,127
18602,note_on,1,0,0,,2,,,50,127
18644,note_off,42,0,0,,12,,,71,127
18701,note_off,57,0,0,,2,,,50,127
18702,note_on,1,0,0,,7,,,55,127
18702,note_on,0,0,0,,2,,,74,127
18801,note_off,99,0,0,,7,,,55,127
18802,note_on,1,0,0,,12,,,59,127
18902,note_on,100,0,0,,2,,,50,127
19001,note_off,99,0,0,,12,,,59,127
19002,note_on,1,0,0,,10,,,57,127
19101,note_off,99,0,0,,10,,,57,127
19101,note_off,0,0,0,,2,,,74,127
19102,note_on,1,0,0,,7,,,55,127
19102,note_on,0,0,0,,0,,,72,127
19201,note_off,99,0,0,,7,,,55,127
19202,note_on,1,0,0,,6,,,54,127
19301,note_off,99,0,0,,6,,,54,127
19301,note_off,0,0,0,,0,,,72,127
19301,note_off,0,0,0,,2,,,50,127
19302,note_on,1,0,0,,7,,,55,127
19302,note_on,0,0,0,,12,,,71,127
19401,note_off,99,0,0,,12,,,71,127
19402,note_on,1,0,0,,2,,,74,127
19501,note_off,99,0,0,,2,,,74,127
19502,note_on,1,0,0,,1,,,73,127
19601,note_off,99,0,0,,1,,,73,127
19602,note_on,1,0,0,,4,,,76,127
19701,note_off,99,0,0,,4,,,76,127
19701,note_off,0,0,0,,7,,,55,127
19702,note_on,1,0,0,,2,,,62,127
19702,note_on,0,0,0,,7,,,55,127
19702,note_on,0,0,0,,2,,,74,127
19801,note_off,99,0,0,,2,,,74,127
19802,note_on,1,0,0,,6,,,78,127
19901,note_off,99,0,0,,6,,,78,127
19902,note_on,1,0,0,,4,,,76,127
20001,note_off,99,0,0,,4,,,76,127
20002,note_on,1,0,0,,7,,,79,127
20101,note_off,99,0,0,,7,,,79,127
20101,note_off,0,0,0,,7,,,55,127
20101,note_off,0,0,0,,2,,,62,127
20102,note_on,1,0,0,,2,,,62,127
20102,note_on,0,0,0,,7,,,55,127
20102,note_on,0,0,0,,6,,,78,127
20201,note_off,99,0,0,,6,,,78,127
20202,note_on,1,0,0,,10,,,81,127
20301,note_off,99,0,0,,10,,,81,127
20302,note_on,1,0,0,,7,,,79,127
20401,note_off,99,0,0,,7,,,79,127
20402,note_on,1,0,0,,12,,,83,127
20501,note_off,99,0,0,,12,,,83,127
20501,note_off,0,0,0,,7,,,55,127
20501,note_off,0,0,0,,2,,,62,127
20502,note_on,1,0,0,,4,,,64,127
20502,note_on,0,0,0,,6,,,54,127
20502,note_on,0,0,0,,10,,,69,127
20601,note_off,99,0,0,,10,,,69,127
20602,note_on,1,0,0,,1,,,73,127
20701,note_off,99,0,0,,1,,,73,127
20702,note_on,1,0,0,,12,,,71,127
20801,note_off,99,0,0,,12,,,71,127
20802,note_on,1,0,0,,2,,,74,127
20901,note_off,99,0,0,,2,,,74,127
20901,note_off,0,0,0,,6,,,54,127
20901,note_off,0,0,0,,4,,,64,127
20902,note_on,1,0,0,,2,,,62,127
20902,note_on,0,0,0,,6,,,54,127
20902,note_on,0,0,0,,1,,,73,127
21001,note_off,99,0,0,,1,,,73,127
21002,note_on,1,0,0,,4,,,76,127
21101,note_off,99,0,0,,4,,,76,127
21102,note_on,1,0,0,,2,,,74,127
21201,note_off,99,0,0,,2,,,74,127
21202,note_on,1,0,0,,6,,,78,127
21301,note_off,99,0,0,,6,,,78,127
21301,note_off,0,0,0,,6,,,54,127
21301,note_off,0,0,0,,2,,,62,127
21302,note_on,1,0,0,,2,,,62,127
21302,note_on,0,0,0,,6,,,54,127
21302,note_on,0,0,0,,4,,,76,127
21401,note_off,99,0,0,,4,,,76,127
21402,note_on,1,0,0,,7,,,79,127
21501,note_off,99,0,0,,7,,,79,127
21502,note_on,1,0,0,,6,,,78,127
21601,note_off,99,0,0,,6,,,78,127
21602,note_on,1,0,0,,10,,,81,127
21701,note_off,99,0,0,,10,,,81,127
21701,note_off,0,0,0,,6,,,54,127
21701,note_off,0,0,0,,2,,,62,127
21702,note_on,1,0,0,,4,,,52,127
21702,note_on,0,0,0,,2,,,62,127
21702,note_on,0,0,0,,7,,,67,127
21801,note_off,99,0,0,,7,,,67,127
21802,note_on,1,0,0,,12,,,71,127
21901,note_off,99,0,0,,12,,,71,127
21902,note_on,1,0,0,,10,,,69,127
22001,note_off,99,0,0,,10,,,69,127
22002,note_on,1,0,0,,1,,,73,127
22101,note_off,99,0,0,,1,,,73,127
22101,note_off,0,0,0,,2,,,62,127
22101,note_off,0,0,0,,4,,,52,127
22102,note_on,1,0,0,,4,,,52,127
22102,note_on,0,0,0,,1,,,61,127
22102,note_on,0,0,0,,12,,,71,127
22201,note_off,99,0,0,,12,,,71,127
22202,note_on,1,0,0,,2,,,74,127
22301,note_off,99,0,0,,2,,,74,127
22302,note_on,1,0,0,,1,,,73,127
22401,note_off,99,0,0,,1,,,73,127
22402,note_on,1,0,0,,4,,,76,127
22501,note_off,99,0,0,,4,,,76,127
22501,note_off,0,0,0,,1,,,61,127
22501,note_off,0,0,0,,4,,,52,127
22502,note_on,1,0,0,,1,,,61,127
22502,note_on,0,0,0,,4,,,52,127
22502,note_on,0,0,0,,2,,,74,127
22601,note_off,99,0,0,,2,,,74,127
22602,note_on,1,0,0,,6,,,78,127
22701,note_off,99,0,0,,6,,,78,127
22702,note_on,1,0,0,,4,,,76,127
22801,note_off,99,0,0,,4,,,76,127
22802,note_on,1,0,0,,7,,,79,127
22901,note_off,99,0,0,,7,,,79,127
22901,note_off,0,0,0,,4,,,52,127
22901,note_off,0,0,0,,1,,,61,127
22902,note_on,1,0,0,,2,,,50,127
22902,note_on,0,0,0,,6,,,78,127
23001,note_off,99,0,0,,2,,,50,127
23002,note_on,1,0,0,,6,,,54,127
23101,note_off,99,0,0,,6,,,54,127
23102,note_on,1,0,0,,4,,,52,127
23201,note_off,99,0,0,,4,,,52,127
23202,note_on,1,0,0,,7,,,55,127
23301,note_off,99,0,0,,7,,,55,127
23301,note_off,0,0,0,,6,,,78,127
23302,note_on,1,0,0,,6,,,54,127
23302,note_on,0,0,0,,10,,,81,127
23401,note_off,99,0,0,,6,,,54,127
23402,note_on,1,0,0,,10,,,57,127
23501,note_off,99,0,0,,10,,,57,127
23502,note_on,1,0,0,,7,,,55,127
23601,note_off,99,0,0,,7,,,55,127
23602,note_on,1,0,0,,12,,,59,127
23701,note_off,99,0,0,,12,,,59,127
23701,note_off,0,0,0,,10,,,81,127
23702,note_on,1,0,0,,10,,,57,127
23702,note_on,0,0,0,,6,,,78,127
23801,note_off,99,0,0,,10,,,57,127
23802,note_on,1,0,0,,1,,,61,127
23901,note_off,99,0,0,,1,,,61,127
23902,note_on,1,0,0,,12,,,59,127
24001,note_off,99,0,0,,12,,,59,127
24002,note_on,1,0,0,,2,,,62,127
24101,note_off,99,0,0,,2,,,62,127
24101,note_off,0,0,0,,6,,,78,127
24102,note_on,1,0,0,,1,,,49,127
24102,note_on,0,0,0,,4,,,76,127
24201,note_off,99,0,0,,1,,,49,127
24202,note_on,1,0,0,,4,,,52,127
24301,note_off,99,0,0,,4,,,52,127
24302,note_on,1,0,0,,2,,,50,127
24401,note_off,99,0,0,,2,,,50,127
24402,note_on,1,0,0,,6,,,54,127
24501,note_off,99,0,0,,6,,,54,127
24501,note_off,0,0,0,,4,,,76,127
24502,note_on,1,0,0,,4,,,52,127
24502,note_on,0,0,0,,10,,,81,127
24601,note_off,99,0,0,,4,,,52,127
24602,note_on,1,0,0,,8,,,56,127
24701,note_off,99,0,0,,8,,,56,127
24702,note_on,1,0,0,,6,,,54,127
24801,note_off,99,0,0,,6,,,54,127
24802,note_on,1,0,0,,10,,,57,127
24901,note_off,99,0,0,,10,,,57,127
24901,note_off,0,0,0,,10,,,81,127
24902,note_on,1,0,0,,8,,,56,127
24902,note_on,0,0,0,,4,,,76,127
25001,note_off,99,0,0,,8,,,56,127
25002,note_on,1,0,0,,12,,,59,127
25101,note_off,99,0,0,,12,,,59,127
25102,note_on,1,0,0,,10,,,57,127
25201,note_off,99,0,0,,10,,,57,127
25202,note_on,1,0,0,,1,,,61,127
25301,note_off,99,0,0,,1,,,61,127
25301,note_off,0,0,0,,4,,,76,127
25302,note_on,1,0,0,,12,,,47,127
25302,note_on,0,0,0,,2,,,74,127
25401,note_off,99,0,0,,12,,,47,127
25402,note_on,1,0,0,,2,,,50,127
25501,note_off,99,0,0,,2,,,50,127
25502,note_on,1,0,0,,1,,,49,127
25601,note_off,99,0,0,,1,,,49,127
25602,note_on,1,0,0,,4,,,52,127
25701,note_off,99,0,0,,4,,,52,127
25701,note_off,0,0,0,,2,,,74,127
25702,note_on,1,0,0,,2,,,50,127
25702,note_on,0,0,0,,10,,,81,127
25801,note_off,99,0,0,,2,,,50,127
25802,note_on,1,0,0,,6,,,54,127
25901,note_off,99,0,0,,6,,,54,127
25902,note_on,1,0,0,,4,,,52,127
26001,note_off,99,0,0,,4,,,52,127
26002,note_on,1,0,0,,8,,,56,127
26101,note_off,99,0,0,,8,,,56,127
26101,note_off,0,0,0,,10,,,81,127
26102,note_on,1,0,0,,6,,,54,127
26102,note_on,0,0,0,,2,,,74,127
26201,note_off,99,0,0,,6,,,54,127
26202,note_on,1,0,0,,10,,,57,127
26301,note_off,99,0,0,,10,,,57,127
26302,note_on,1,0,0,,8,,,56,127
26401,note_off,99,0,0,,8,,,56,127
26402,note_on,1,0,0,,12,,,59,127
26501,note_off,99,0,0,,12,,,59,127
26501,note_off,0,0,0,,2,,,74,127
26502,note_on,1,0,0,,10,,,45,127
26502,note_on,0,0,0,,1,,,73,127
26601,note_off,99,0,0,,1,,,73,127
26602,note_on,1,0,0,,4,,,76,127
26701,note_off,99,0,0,,4,,,76,127
26702,note_on,1,0,0,,1,,,73,127
26801,note_off,99,0,0,,1,,,73,127
26802,note_on,1,0,0,,10,,,69,127
26901,note_off,99,0,0,,10,,,69,127
26902,note_on,1,0,0,,4,,,64,127
26996,note_off,94,0,0,,4,,,64,127
27001,note_off,5,0,0,,10,,,45,127
27002,note_on,1,0,0,,4,,,64,127
27102,note_on,100,0,0,,1,,,61,127
27102,note_on,0,0,0,,4,,,76,127
27201,note_off,99,0,0,,1,,,61,127
27202,note_on,1,0,0,,10,,,57,127
27294,note_off,92,0,0,,4,,,64,127
27301,note_off,7,0,0,,10,,,57,127
27302,note_on,1,0,0,,12,,,59,127
27401,note_off,99,0,0,,12,,,59,127
27402,note_on,1,0,0,,2,,,62,127
27501,note_off,99,0,0,,2,,,62,127
27501,note_off,0,0,0,,4,,,76,127
27502,note_on,1,0,0,,12,,,59,127
27502,note_on,0,0,0,,2,,,74,127
27601,note_off,99,0,0,,12,,,59,127
27602,note_on,1,0,0,,8,,,56,127
27701,note_off,99,0,0,,8,,,56,127
27701,note_off,0,0,0,,2,,,74,127
27702,note_on,1,0,0,,10,,,45,127
27702,note_on,0,0,0,,1,,,73,127
27801,note_off,99,0,0,,1,,,73,127
27802,note_on,1,0,0,,4,,,76,127
27901,note_off,99,0,0,,4,,,76,127
27902,note_on,1,0,0,,1,,,73,127
28001,note_off,99,0,0,,1,,,73,127
28002,note_on,1,0,0,,10,,,69,127
28101,note_off,99,0,0,,10,,,69,127
28102,note_on,1,0,0,,4,,,64,127
28196,note_off,94,0,0,,4,,,64,127
28201,note_off,5,0,0,,10,,,45,127
28202,note_on,1,0,0,,4,,,64,127
28302,note_on,100,0,0,,1,,,61,127
28302,note_on,0,0,0,,4,,,76,127
28401,note_off,99,0,0,,1,,,61,127
28402,note_on,1,0,0,,10,,,57,127
28494,note_off,92,0,0,,4,,,64,127
28501,note_off,7,0,0,,10,,,57,127
28502,note_on,1,0,0,,12,,,59,127
28601,note_off,99,0,0,,12,,,59,127
28602,note_on,1,0,0,,2,,,62,127
28701,note_off,99,0,0,,2,,,62,127
28701,note_off,0,0,0,,4,,,76,127
28702,note_on,1,0,0,,12,,,59,127
28702,note_on,0,0,0,,2,,,74,127
28801,note_off,99,0,0,,12,,,59,127
28802,note_on,1,0,0,,8,,,56,127
28901,note_off,99,0,0,,8,,,56,127
28901,note_off,0,0,0,,2,,,74,127
28902,note_on,1,0,0,,10,,,45,127
28902,note_on,0,0,0,,1,,,73,127
29001,note_off,99,0,0,,1,,,73,127
29002,note_on,1,0,0,,4,,,76,127
29101,note_off,99,0,0,,4,,,76,127
29102,note_on,1,0,0,,1,,,73,127
29201,note_off,99,0,0,,1,,,73,127
29202,note_on,1,0,0,,10,,,69,127
29301,note_off,99,0,0,,10,,,69,127
29301,note_off,0,0,0,,10,,,45,127
29302,note_on,1,0,0,,12,,,59,127
29302,note_on,0,0,0,,4,,,64,127
29302,note_on,0,0,0,,7,,,67,127
29401,note_off,99,0,0,,7,,,67,127
29402,note_on,1,0,0,,4,,,76,127
29501,note_off,99,0,0,,4,,,76,127
29502,note_on,1,0,0,,1,,,73,127
29601,note_off,99,0,0,,1,,,73,127
29602,note_on,1,0,0,,7,,,67,127
29701,note_off,99,0,0,,7,,,67,127
29701,note_off,0,0,0,,4,,,64,127
29701,note_off,0,0,0,,12,,,59,127
29702,note_on,1,0,0,,11,,,58,127
29702,note_on,0,0,0,,4,,,64,127
29702,note_on,0,0,0,,6,,,66,127
29801,note_off,99,0,0,,6,,,66,127
29802,note_on,1,0,0,,4,,,76,127
29901,note_off,99,0,0,,4,,,76,127
29902,note_on,1,0,0,,1,,,73,127
30001,note_off,99,0,0,,1,,,73,127
30002,note_on,1,0,0,,6,,,66,127
30101,note_off,99,0,0,,6,,,66,127
30101,note_off,0,0,0,,4,,,64,127
30101,note_off,0,0,0,,11,,,58,127
30102,note_on,1,0,0,,12,,,59,127
30102,note_on,0,0,0,,2,,,62,127
30102,note_on,0,0,0,,2,,,74,127
30201,note_off,99,0,0,,2,,,74,127
30202,note_on,1,0,0,,6,,,78,127
30301,note_off,99,0,0,,6,,,78,127
30302,note_on,1,0,0,,2,,,74,127
30401,note_off,99,0,0,,2,,,74,127
30402,note_on,1,0,0,,12,,,71,127
30501,note_off,99,0,0,,12,,,71,127
30502,note_on,1,0,0,,6,,,66,127
30596,note_off,94,0,0,,6,,,66,127
30601,note_off,5,0,0,,2,,,62,127
30601,note_off,0,0,0,,12,,,59,127
30602,note_on,1,0,0,,6,,,66,127
30702,note_on,100,0,0,,2,,,62,127
30702,note_on,0,0,0,,6,,,78,127
30801,note_off,99,0,0,,2,,,62,127
30802,note_on,1,0,0,,12,,,59,127
30894,note_off,92,0,0,,6,,,66,127
30901,note_off,7,0,0,,12,,,59,127
30902,note_on,1,0,0,,1,,,61,127
31001,note_off,99,0,0,,1,,,61,127
31002,note_on,1,0,0,,4,,,64,127
31101,note_off,99,0,0,,4,,,64,127
31101,note_off,0,0,0,,6,,,78,127
31102,note_on,1,0,0,,1,,,61,127
31102,note_on,0,0,0,,4,,,76,127
31201,note_off,99,0,0,,1,,,61,127
31202,note_on,1,0,0,,11,,,58,127
31301,note_off,99,0,0,,11,,,58,127
31301,note_off,0,0,0,,4,,,76,127
31302,note_on,1,0,0,,12,,,47,127
31302,note_on,0,0,0,,2,,,74,127
31401,note_off,99,0,0,,2,,,74,127
31402,note_on,1,0,0,,6,,,78,127
31501,note_off,99,0,0,,6,,,78,127
31502,note_on,1,0,0,,2,,,74,127
31601,note_off,99,0,0,,2,,,74,127
31602,note_on,1,0,0,,12,,,71,127
31701,note_off,99,0,0,,12,,,71,127
31702,note_on,1,0,0,,6,,,66,127
31796,note_off,94,0,0,,6,,,66,127
31801,note_off,5,0,0,,12,,,47,127
31802,note_on,1,0,0,,6,,,66,127
31902,note_on,100,0,0,,2,,,62,127
31902,note_on,0,0,0,,6,,,78,127
32001,note_off,99,0,0,,2,,,62,127
32002,note_on,1,0,0,,12,,,59,127
32094,note_off,92,0,0,,6,,,66,127
32101,note_off,7,0,0,,12,,,59,127
32102,note_on,1,0,0,,1,,,61,127
32201,note_off,99,0,0,,1,,,61,127
32202,note_on,1,0,0,,4,,,64,127
32301,note_off,99,0,0,,4,,,64,127
32301,note_off,0,0,0,,6,,,78,127
32302,note_on,1,0,0,,1,,,61,127
32302,note_on,0,0,0,,4,,,76,127
32401,note_off,99,0,0,,1,,,61,127
32402,note_on,1,0,0,,11,,,58,127
32501,note_off,99,0,0,,11,,,58,127
32501,note_off,0,0,0,,4,,,76,127
32502,note_on,1,0,0,,12,,,47,127
32502,note_on,0,0,0,,2,,,74,127
32601,note_off,99,0,0,,2,,,74,127
32602,note_on,1,0,0,,6,,,78,127
32701,note_off,99,0,0,,6,,,78,127
32702,note_on,1,0,0,,12,,,71,127
32801,note_off,99,0,0,,12,,,71,127
32802,note_on,1,0,0,,2,,,74,127
32901,note_off,99,0,0,,2,,,74,127
32902,note_on,1,0,0,,6,,,66,127
33001,note_off,99,0,0,,6,,,66,127
33002,note_on,1,0,0,,12,,,71,127
33101,note_off,99,0,0,,12,,,71,127
33102,note_on,1,0,0,,2,,,62,127
33201,note_off,99,0,0,,2,,,62,127
33202,note_on,1,0,0,,6,,,66,127
33301,note_off,99,0,0,,6,,,66,127
33302,note_on,1,0,0,,12,,,59,127
33401,note_off,99,0,0,,12,,,59,127
33402,note_on,1,0,0,,2,,,62,127
33501,note_off,99,0,0,,2,,,62,127
33502,note_off,1,0,0,,12,,,47,127
33502,note_on,0,0,0,,6,,,54,127
33601,note_off,99,0,0,,6,,,54,127
33602,note_on,1,0,0,,12,,,59,127
33701,note_off,99,0,0,,12,,,59,127
33702,note_on,1,0,0,,12,,,35,127
33802,note_on,100,0,0,,2,,,62,127
33901,note_off,99,0,0,,2,,,62,127
33902,note_on,1,0,0,,6,,,66,127
34001,note_off,99,0,0,,6,,,66,127
34002,note_on,1,0,0,,2,,,62,127
34101,note_off,99,0,0,,2,,,62,127
34102,note_on,1,0,0,,2,,,74,127
34201,note_off,99,0,0,,2,,,74,127
34202,note_on,1,0,0,,2,,,62,127
34270,note_off,68,0,0,,12,,,35,127
34301,note_off,31,0,0,,2,,,62,127
34302,note_on,1,0,0,,12,,,59,127
34302,note_on,0,0,0,,6,,,66,127
34401,note_off,99,0,0,,6,,,66,127
34402,note_on,1,0,0,,2,,,62,127
34501,note_off,99,0,0,,2,,,62,127
34501,note_off,0,0,0,,12,,,59,127
34502,note_on,1,0,0,,12,,,59,127
34502,note_on,0,0,0,,2,,,74,127
34601,note_off,99,0,0,,2,,,74,127
34602,note_on,1,0,0,,2,,,62,127
34701,note_off,99,0,0,,2,,,62,127
34701,note_off,0,0,0,,12,,,59,127
34702,note_on,1,0,0,,10,,,57,127
34702,note_on,0,0,0,,6,,,66,127
34801,note_off,99,0,0,,6,,,66,127
34802,note_on,1,0,0,,2,,,62,127
34901,note_off,99,0,0,,2,,,62,127
34901,note_off,0,0,0,,10,,,57,127
34902,note_on,1,0,0,,7,,,43,127
34902,note_on,0,0,0,,12,,,71,127
35001,note_off,99,0,0,,12,,,71,127
35002,note_on,1,0,0,,12,,,59,127
35101,note_off,99,0,0,,12,,,59,127
35102,note_on,1,0,0,,7,,,67,127
35201,note_off,99,0,0,,7,,,67,127
35202,note_on,1,0,0,,12,,,59,127
35301,note_off,99,0,0,,12,,,59,127
35302,note_on,1,0,0,,12,,,71,127
35401,note_off,99,0,0,,12,,,71,127
35402,note_on,1,0,0,,12,,,59,127
35470,note_off,68,0,0,,7,,,43,127
35501,note_off,31,0,0,,12,,,59,127
35502,note_on,1,0,0,,7,,,55,127
35502,note_on,0,0,0,,7,,,67,127
35601,note_off,99,0,0,,7,,,67,127
35602,note_on,1,0,0,,12,,,59,127
35701,note_off,99,0,0,,12,,,59,127
35701,note_off,0,0,0,,7,,,55,127
35702,note_on,1,0,0,,7,,,55,127
35702,note_on,0,0,0,,12,,,71,127
35801,note_off,99,0,0,,12,,,71,127
35802,note_on,1,0,0,,12,,,59,127
35901,note_off,99,0,0,,12,,,59,127
35901,note_off,0,0,0,,7,,,55,127
35902,note_on,1,0,0,,6,,,54,127
35902,note_on,0,0,0,,10,,,69,127
36001,note_off,99,0,0,,10,,,69,127
36002,note_on,1,0,0,,3,,,63,127
36101,note_off,99,0,0,,3,,,63,127
36101,note_off,0,0,0,,6,,,54,127
36102,note_on,1,0,0,,4,,,40,127
36102,note_on,0,0,0,,12,,,71,127
36201,note_off,99,0,0,,12,,,71,127
36202,note_on,1,0,0,,4,,,64,127
36301,note_off,99,0,0,,4,,,64,127
36302,note_on,1,0,0,,7,,,67,127
36401,note_off,99,0,0,,7,,,67,127
36402,note_on,1,0,0,,4,,,64,127
36501,note_off,99,0,0,,4,,,64,127
36502,note_on,1,0,0,,12,,,71,127
36601,note_off,99,0,0,,12,,,71,127
36602,note_on,1,0,0,,4,,,64,127
36670,note_off,68,0,0,,4,,,40,127
36701,note_off,31,0,0,,4,,,64,127
36702,note_on,1,0,0,,4,,,52,127
36702,note_on,0,0,0,,7,,,67,127
36801,note_off,99,0,0,,7,,,67,127
36802,note_on,1,0,0,,4,,,64,127
36901,note_off,99,0,0,,4,,,64,127
36901,note_off,0,0,0,,4,,,52,127
36902,note_on,1,0,0,,4,,,52,127
36902,note_on,0,0,0,,12,,,71,127
37001,note_off,99,0,0,,12,,,71,127
37002,note_on,1,0,0,,4,,,64,127
37101,note_off,99,0,0,,4,,,64,127
37101,note_off,0,0,0,,4,,,52,127
37102,note_on,1,0,0,,2,,,50,127
37102,note_on,0,0,0,,12,,,71,127
37201,note_off,99,0,0,,12,,,71,127
37202,note_on,1,0,0,,5,,,65,127
37301,note_off,99,0,0,,5,,,65,127
37301,note_off,0,0,0,,2,,,50,127
37302,note_on,1,0,0,,0,,,36,127
37302,note_on,0,0,0,,0,,,72,127
37401,note_off,99,0,0,,0,,,72,127
37402,note_on,1,0,0,,4,,,64,127
37501,note_off,99,0,0,,4,,,64,127
37502,note_on,1,0,0,,7,,,67,127
37601,note_off,99,0,0,,7,,,67,127
37602,note_on,1,0,0,,4,,,64,127
37701,note_off,99,0,0,,4,,,64,127
37702,note_on,1,0,0,,0,,,72,127
37801,note_off,99,0,0,,0,,,72,127
37802,note_on,1,0,0,,4,,,64,127
37870,note_off,68,0,0,,0,,,36,127
37901,note_off,31,0,0,,4,,,64,127
37902,note_on,1,0,0,,0,,,60,127
37902,note_on,0,0,0,,7,,,67,127
38001,note_off,99,0,0,,7,,,67,127
38002,note_on,1,0,0,,4,,,64,127
38101,note_off,99,0,0,,4,,,64,127
38101,note_off,0,0,0,,0,,,60,127
38102,note_on,1,0,0,,0,,,60,127
38102,note_on,0,0,0,,0,,,72,127
38201,note_off,99,0,0,,0,,,72,127
38202,note_on,1,0,0,,4,,,64,127
38301,note_off,99,0,0,,4,,,64,127
38301,note_off,0,0,0,,0,,,60,127
38302,note_on,1,0,0,,12,,,59,127
38302,note_on,0,0,0,,8,,,68,127
38401,note_off,99,0,0,,8,,,68,127
38402,note_on,1,0,0,,4,,,64,127
38501,note_off,99,0,0,,4,,,64,127
38501,note_off,0,0,0,,12,,,59,127
38502,note_on,1,0,0,,10,,,45,127
38502,note_on,0,0,0,,0,,,72,127
38601,note_off,99,0,0,,0,,,72,127
38602,note_on,1,0,0,,4,,,64,127
38701,note_off,99,0,0,,4,,,64,127
38702,note_on,1,0,0,,10,,,69,127
38801,note_off,99,0,0,,10,,,69,127
38802,note_on,1,0,0,,4,,,64,127
38901,note_off,99,0,0,,4,,,64,127
38902,note_on,1,0,0,,0,,,72,127
39001,note_off,99,0,0,,0,,,72,127
39002,note_on,1,0,0,,4,,,64,127
39070,note_off,68,0,0,,10,,,45,127
39101,note_off,31,0,0,,4,,,64,127
39102,note_on,1,0,0,,10,,,57,127
39102,note_on,0,0,0,,10,,,69,127
39201,note_off,99,0,0,,10,,,69,127
39202,note_on,1,0,0,,4,,,64,127
39301,note_off,99,0,0,,4,,,64,127
39301,note_off,0,0,0,,10,,,57,127
39302,note_on,1,0,0,,10,,,57,127
39302,note_on,0,0,0,,0,,,72,127
39401,note_off,99,0,0,,0,,,72,127
39402,note_on,1,0,0,,4,,,64,127
39501,note_off,99,0,0,,4,,,64,127
39501,note_off,0,0,0,,10,,,57,127
39502,note_on,1,0,0,,7,,,55,127
39502,note_on,0,0,0,,11,,,70,127
39601,note_off,99,0,0,,11,,,70,127
39602,note_on,1,0,0,,4,,,64,127
39701,note_off,99,0,0,,4,,,64,127
39701,note_off,0,0,0,,7,,,55,127
39702,note_on,1,0,0,,5,,,41,127
39702,note_on,0,0,0,,0,,,72,127
39801,note_off,99,0,0,,0,,,72,127
39802,note_on,1,0,0,,5,,,65,127
39901,note_off,99,0,0,,5,,,65,127
39902,note_on,1,0,0,,10,,,69,127
40001,note_off,99,0,0,,10,,,69,127
40002,note_on,1,0,0,,5,,,65,127
40101,note_off,99,0,0,,5,,,65,127
40102,note_on,1,0,0,,0,,,72,127
40201,note_off,99,0,0,,0,,,72,127
40202,note_on,1,0,0,,5,,,65,127
40270,note_off,68,0,0,,5,,,41,127
40301,note_off,31,0,0,,5,,,65,127
40302,note_on,1,0,0,,5,,,53,127
40302,note_on,0,0,0,,10,,,69,127
40401,note_off,99,0,0,,10,,,69,127
40402,note_on,1,0,0,,5,,,65,127
40501,note_off,99,0,0,,5,,,65,127
40501,note_off,0,0,0,,5,,,53,127
40502,note_on,1,0,0,,5,,,53,127
40502,note_on,0,0,0,,0,,,72,127
40601,note_off,99,0,0,,0,,,72,127
40602,note_on,1,0,0,,5,,,65,127
40701,note_off,99,0,0,,5,,,65,127
40701,note_off,0,0,0,,5,,,53,127
40702,note_on,1,0,0,,4,,,52,127
40702,note_on,0,0,0,,1,,,73,127
40801,note_off,99,0,0,,1,,,73,127
40802,note_on,1,0,0,,7,,,67,127
40901,note_off,99,0,0,,7,,,67,127
40901,note_off,0,0,0,,4,,,52,127
40902,note_on,1,0,0,,2,,,38,127
40902,note_on,0,0,0,,2,,,74,127
41001,note_off,99,0,0,,2,,,74,127
41002,note_on,1,0,0,,5,,,65,127
41101,note_off,99,0,0,,5,,,65,127
41102,note_on,1,0,0,,10,,,69,127
41201,note_off,99,0,0,,10,,,69,127
41202,note_on,1,0,0,,5,,,65,127
41301,note_off,99,0,0,,5,,,65,127
41302,note_on,1,0,0,,2,,,74,127
41401,note_off,99,0,0,,2,,,74,127
41402,note_on,1,0,0,,5,,,65,127
41470,note_off,68,0,0,,2,,,38,127
41501,note_off,31,0,0,,5,,,65,127
41502,note_on,1,0,0,,2,,,62,127
41502,note_on,0,0,0,,10,,,69,127
41601,note_off,99,0,0,,10,,,69,127
41602,note_on,1,0,0,,5,,,65,127
41701,note_off,99,0,0,,5,,,65,127
41701,note_off,0,0,0,,2,,,62,127
41702,note_on,1,0,0,,2,,,62,127
41702,note_on,0,0,0,,2,,,74,127
41801,note_off,99,0,0,,2,,,74,127
41802,note_on,1,0,0,,5,,,65,127
41901,note_off,99,0,0,,5,,,65,127
41901,note_off,0,0,0,,2,,,62,127
41902,note_on,1,0,0,,0,,,60,127
41902,note_on,0,0,0,,10,,,69,127
42001,note_off,99,0,0,,10,,,69,127
42002,note_on,1,0,0,,5,,,65,127
42101,note_off,99,0,0,,5,,,65,127
42101,note_off,0,0,0,,0,,,60,127
42102,note_on,1,0,0,,11,,,34,127
42102,note_on,0,0,0,,2,,,74,127
42201,note_off,99,0,0,,2,,,74,127
42202,note_on,1,0,0,,5,,,65,127
42301,note_off,99,0,0,,5,,,65,127
42302,note_on,1,0,0,,11,,,70,127
42401,note_off,99,0,0,,11,,,70,127
42402,note_on,1,0,0,,5,,,65,127
42501,note_off,99,0,0,,5,,,65,127
42501,note_off,0,0,0,,11,,,34,127
42502,note_on,1,0,0,,11,,,58,127
42502,note_on,0,0,0,,2,,,74,127
42601,note_off,99,0,0,,2,,,74,127
42602,note_on,1,0,0,,5,,,65,127
42701,note_off,99,0,0,,5,,,65,127
42702,note_on,1,0,0,,11,,,70,127
42801,note_off,99,0,0,,11,,,70,127
42802,note_on,1,0,0,,5,,,65,127
42901,note_off,99,0,0,,5,,,65,127
42901,note_off,0,0,0,,11,,,58,127
42902,note_on,1,0,0,,11,,,34,127
42902,note_on,0,0,0,,2,,,74,127
43001,note_off,99,0,0,,2,,,74,127
43002,note_on,1,0,0,,5,,,65,127
43101,note_off,99,0,0,,5,,,65,127
43102,note_on,1,0,0,,11,,,70,127
43201,note_off,99,0,0,,11,,,70,127
43202,note_on,1,0,0,,5,,,65,127
43301,note_off,99,0,0,,5,,,65,127
43301,note_off,0,0,0,,11,,,34,127
43302,note_on,1,0,0,,11,,,58,127
43302,note_on,0,0,0,,2,,,74,127
43401,note_off,99,0,0,,2,,,74,127
43402,note_on,1,0,0,,5,,,65,127
43501,note_off,99,0,0,,5,,,65,127
43502,note_on,1,0,0,,11,,,70,127
43601,note_off,99,0,0,,11,,,70,127
43602,note_on,1,0,0,,5,,,65,127
43701,note_off,99,0,0,,5,,,65,127
43702,note_on,1,0,0,,2,,,74,127
43801,note_off,99,0,0,,2,,,74,127
43802,note_on,1,0,0,,5,,,65,127
43901,note_off,99,0,0,,5,,,65,127
43901,note_off,0,0,0,,11,,,58,127
43902,note_on,1,0,0,,11,,,58,127
43902,note_on,0,0,0,,11,,,70,127
44001,note_off,99,0,0,,11,,,70,127
44002,note_on,1,0,0,,5,,,65,127
44101,note_off,99,0,0,,5,,,65,127
44101,note_off,0,0,0,,11,,,58,127
44102,note_on,1,0,0,,11,,,58,127
44102,note_on,0,0,0,,2,,,74,127
44201,note_off,99,0,0,,2,,,74,127
44202,note_on,1,0,0,,5,,,65,127
44301,note_off,99,0,0,,5,,,65,127
44301,note_off,0,0,0,,11,,,58,127
44302,note_on,1,0,0,,10,,,57,127
44302,note_on,0,0,0,,11,,,70,127
44401,note_off,99,0,0,,11,,,70,127
44402,note_on,1,0,0,,5,,,65,127
44501,note_off,99,0,0,,5,,,65,127
44501,note_off,0,0,0,,10,,,57,127
44502,note_on,1,0,0,,7,,,55,127
44502,note_on,0,0,0,,2,,,74,127
44601,note_off,99,0,0,,2,,,74,127
44602,note_on,1,0,0,,4,,,64,127
44701,note_off,99,0,0,,4,,,64,127
44701,note_off,0,0,0,,7,,,55,127
44702,note_on,1,0,0,,7,,,55,127
44702,note_on,0,0,0,,11,,,70,127
44801,note_off,99,0,0,,11,,,70,127
44802,note_on,1,0,0,,4,,,64,127
44901,note_off,99,0,0,,4,,,64,127
44901,note_off,0,0,0,,7,,,55,127
44902,note_on,1,0,0,,7,,,55,127
44902,note_on,0,0,0,,2,,,74,127
45001,note_off,99,0,0,,2,,,74,127
45002,note_on,1,0,0,,4,,,64,127
45101,note_off,99,0,0,,4,,,64,127
45101,note_off,0,0,0,,7,,,55,127
45102,note_on,1,0,0,,7,,,55,127
45102,note_on,0,0,0,,11,,,70,127
45201,note_off,99,0,0,,11,,,70,127
45202,note_on,1,0,0,,4,,,64,127
45301,note_off,99,0,0,,4,,,64,127
45301,note_off,0,0,0,,7,,,55,127
45302,note_on,1,0,0,,7,,,55,127
45302,note_on,0,0,0,,2,,,74,127
45401,note_off,99,0,0,,2,,,74,127
45402,note_on,1,0,0,,4,,,64,127
45501,note_off,99,0,0,,4,,,64,127
45501,note_off,0,0,0,,7,,,55,127
45502,note_on,1,0,0,,7,,,55,127
45502,note_on,0,0,0,,11,,,70,127
45601,note_off,99,0,0,,11,,,70,127
45602,note_on,1,0,0,,4,,,64,127
45701,note_off,99,0,0,,4,,,64,127
45701,note_off,0,0,0,,7,,,55,127
45702,note_on,1,0,0,,8,,,56,127
45702,note_on,0,0,0,,2,,,62,127
45702,note_on,0,0,0,,2,,,74,127
45801,note_off,99,0,0,,2,,,74,127
45802,note_on,1,0,0,,4,,,64,127
45901,note_off,99,0,0,,4,,,64,127
45901,note_off,0,0,0,,2,,,62,127
45901,note_off,0,0,0,,8,,,56,127
45902,note_on,1,0,0,,8,,,56,127
45902,note_on,0,0,0,,2,,,62,127
45902,note_on,0,0,0,,12,,,71,127
46001,note_off,99,0,0,,12,,,71,127
46002,note_on,1,0,0,,4,,,64,127
46101,note_off,99,0,0,,4,,,64,127
46101,note_off,0,0,0,,2,,,62,127
46101,note_off,0,0,0,,8,,,56,127
46102,note_on,1,0,0,,8,,,56,127
46102,note_on,0,0,0,,2,,,62,127
46102,note_on,0,0,0,,2,,,74,127
46201,note_off,99,0,0,,2,,,74,127
46202,note_on,1,0,0,,4,,,64,127
46301,note_off,99,0,0,,4,,,64,127
46301,note_off,0,0,0,,2,,,62,127
46301,note_off,0,0,0,,8,,,56,127
46302,note_on,1,0,0,,8,,,56,127
46302,note_on,0,0,0,,2,,,62,127
46302,note_on,0,0,0,,12,,,71,127
46401,note_off,99,0,0,,12,,,71,127
46402,note_on,1,0,0,,4,,,64,127
46501,note_off,99,0,0,,4,,,64,127
46501,note_off,0,0,0,,2,,,62,127
46501,note_off,0,0,0,,8,,,56,127
46502,note_on,1,0,0,,8,,,56,127
46502,note_on,0,0,0,,2,,,62,127
46502,note_on,0,0,0,,2,,,74,127
46601,note_off,99,0,0,,2,,,74,127
46602,note_on,1,0,0,,4,,,64,127
46701,note_off,99,0,0,,4,,,64,127
46701,note_off,0,0,0,,2,,,62,127
46701,note_off,0,0,0,,8,,,56,127
46702,note_on,1,0,0,,8,,,56,127
46702,note_on,0,0,0,,2,,,62,127
46702,note_on,0,0,0,,12,,,71,127
46801,note_off,99,0,0,,12,,,71,127
46802,note_on,1,0,0,,4,,,64,127
46901,note_off,99,0,0,,4,,,64,127
46901,note_off,0,0,0,,2,,,62,127
46901,note_off,0,0,0,,8,,,56,127
46902,note_on,1,0,0,,10,,,45,127
46902,note_on,0,0,0,,10,,,57,127
46902,note_on,0,0,0,,10,,,81,127
47002,note_on,100,0,0,,4,,,76,127
47052,note_off,50,0,0,,10,,,81,127
47101,note_off,49,0,0,,4,,,76,127
47102,note_on,1,0,0,,1,,,73,127
47201,note_off,99,0,0,,1,,,73,127
47202,note_on,1,0,0,,4,,,76,127
47301,note_off,99,0,0,,4,,,76,127
47302,note_on,1,0,0,,10,,,69,127
47402,note_on,100,0,0,,7,,,79,127
47501,note_off,99,0,0,,7,,,79,127
47502,note_on,1,0,0,,6,,,78,127
47601,note_off,99,0,0,,6,,,78,127
47602,note_on,1,0,0,,4,,,76,127
47698,note_off,96,0,0,,10,,,69,127
47701,note_off,3,0,0,,4,,,76,127
47701,note_off,0,0,0,,10,,,57,127
47701,note_off,0,0,0,,10,,,45,127
47702,note_on,1,0,0,,10,,,57,127
47702,note_on,0,0,0,,2,,,50,127
47702,note_on,0,0,0,,6,,,78,127
47801,note_off,99,0,0,,6,,,78,127
47802,note_on,1,0,0,,2,,,74,127
47901,note_off,99,0,0,,2,,,74,127
47902,note_on,1,0,0,,10,,,69,127
48001,note_off,99,0,0,,10,,,69,127
48002,note_on,1,0,0,,6,,,66,127
48101,note_off,99,0,0,,6,,,66,127
48101,note_off,0,0,0,,2,,,50,127
48101,note_off,0,0,0,,10,,,57,127
48102,note_on,1,0,0,,10,,,45,127
48102,note_on,0,0,0,,10,,,57,127
48102,note_on,0,0,0,,10,,,81,127
48202,note_on,100,0,0,,4,,,76,127
48252,note_off,50,0,0,,10,,,81,127
48301,note_off,49,0,0,,4,,,76,127
48302,note_on,1,0,0,,1,,,73,127
48401,note_off,99,0,0,,1,,,73,127
48402,note_on,1,0,0,,4,,,76,127
48501,note_off,99,0,0,,4,,,76,127
48502,note_on,1,0,0,,10,,,69,127
48602,note_on,100,0,0,,7,,,79,127
48701,note_off,99,0,0,,7,,,79,127
48702,note_on,1,0,0,,6,,,78,127
48801,note_off,99,0,0,,6,,,78,127
48802,note_on,1,0,0,,4,,,76,127
48898,note_off,96,0,0,,10,,,69,127
48901,note_off,3,0,0,,4,,,76,127
48901,note_off,0,0,0,,10,,,57,127
48901,note_off,0,0,0,,10,,,45,127
48902,note_on,1,0,0,,2,,,50,127
48902,note_on,0,0,0,,10,,,57,127
48902,note_on,0,0,0,,6,,,78,127
49001,note_off,99,0,0,,6,,,78,127
49002,note_on,1,0,0,,2,,,74,127
49101,note_off,99,0,0,,2,,,74,127
49102,note_on,1,0,0,,10,,,69,127
49201,note_off,99,0,0,,10,,,69,127
49202,note_on,1,0,0,,6,,,66,127
49301,note_off,99,0,0,,6,,,66,127
49301,note_off,0,0,0,,10,,,57,127
49301,note_off,0,0,0,,2,,,50,127
49302,note_on,1,0,0,,10,,,45,127
49302,note_on,0,0,0,,10,,,57,127
49302,note_on,0,0,0,,10,,,81,127
49402,note_on,100,0,0,,4,,,76,127
49452,note_off,50,0,0,,10,,,81,127
49501,note_off,49,0,0,,4,,,76,127
49502,note_on,1,0,0,,1,,,73,127
49601,note_off,99,0,0,,1,,,73,127
49602,note_on,1,0,0,,4,,,76,127
49701,note_off,99,0,0,,4,,,76,127
49702,note_on,1,0,0,,10,,,69,127
49801,note_off,99,0,0,,10,,,57,127
49801,note_off,0,0,0,,10,,,45,127
49802,note_on,1,0,0,,10,,,57,127
49901,note_off,99,0,0,,10,,,57,127
49902,note_on,1,0,0,,12,,,59,127
49902,note_on,0,0,0,,7,,,79,127
50001,note_off,99,0,0,,12,,,59,127
50002,note_on,1,0,0,,1,,,61,127
50098,note_off,96,0,0,,10,,,69,127
50101,note_off,3,0,0,,1,,,61,127
50101,note_off,0,0,0,,7,,,79,127
50102,note_on,1,0,0,,2,,,62,127
50102,note_on,0,0,0,,6,,,78,127
50201,note_off,99,0,0,,2,,,62,127
50202,note_on,1,0,0,,10,,,57,127
50301,note_off,99,0,0,,10,,,57,127
50301,note_off,0,0,0,,6,,,78,127
50302,note_on,1,0,0,,6,,,54,127
50302,note_on,0,0,0,,2,,,74,127
50401,note_off,99,0,0,,6,,,54,127
50402,note_on,1,0,0,,2,,,50,127
50501,note_off,99,0,0,,2,,,50,127
50501,note_off,0,0,0,,2,,,74,127
50502,note_on,1,0,0,,10,,,57,127
50502,note_on,0,0,0,,4,,,76,127
50601,note_off,99,0,0,,10,,,57,127
50602,note_on,1,0,0,,4,,,52,127
50701,note_off,99,0,0,,4,,,52,127
50701,note_off,0,0,0,,4,,,76,127
50702,note_on,1,0,0,,1,,,49,127
50702,note_on,0,0,0,,7,,,79,127
50801,note_off,99,0,0,,1,,,49,127
50802,note_on,1,0,0,,10,,,45,127
50901,note_off,99,0,0,,10,,,45,127
50901,note_off,0,0,0,,7,,,79,127
50902,note_on,1,0,0,,2,,,50,127
50902,note_on,0,0,0,,6,,,78,127
51001,note_off,99,0,0,,2,,,50,127
51002,note_on,1,0,0,,10,,,45,127
51101,note_off,99,0,0,,10,,,45,127
51101,note_off,0,0,0,,6,,,78,127
51102,note_on,1,0,0,,6,,,42,127
51102,note_on,0,0,0,,2,,,74,127
51201,note_off,99,0,0,,6,,,42,127
51202,note_on,1,0,0,,2,,,38,127
51301,note_off,99,0,0,,2,,,38,127
51301,note_off,0,0,0,,2,,,74,127
51302,note_on,1,0,0,,10,,,45,127
51302,note_on,0,0,0,,4,,,76,127
51401,note_off,99,0,0,,10,,,45,127
51402,note_on,1,0,0,,4,,,40,127
51501,note_off,99,0,0,,4,,,40,127
51501,note_off,0,0,0,,4,,,76,127
51502,note_on,1,0,0,,1,,,37,127
51502,note_on,0,0,0,,2,,,74,127
51601,note_off,99,0,0,,2,,,74,127
51601,note_off,0,0,0,,1,,,37,127
51602,note_on,1,0,0,,10,,,33,127
51602,note_on,0,0,0,,1,,,73,127
51701,note_off,99,0,0,,1,,,73,127
51701,note_off,0,0,0,,10,,,33,127
51702,note_on,1,0,0,,2,,,38,127
51702,note_on,0,0,0,,2,,,74,127
51801,note_off,99,0,0,,2,,,74,127
51802,note_on,1,0,0,,10,,,69,127
51901,note_off,99,0,0,,10,,,69,127
51902,note_on,1,0,0,,6,,,66,127
52001,note_off,99,0,0,,6,,,66,127
52002,note_on,1,0,0,,2,,,62,127
52101,note_off,99,0,0,,2,,,62,127
52102,note_on,1,0,0,,6,,,66,127
52201,note_off,99,0,0,,6,,,66,127
52202,note_on,1,0,0,,10,,,69,127
52301,note_off,99,0,0,,10,,,69,127
52302,note_on,1,0,0,,2,,,74,127
52401,note_off,99,0,0,,2,,,74,127
52402,note_on,1,0,0,,6,,,78,127
52501,note_off,99,0,0,,2,,,38,127
52502,note_on,1,0,0,,10,,,45,127
52502,note_on,0,0,0,,10,,,57,127
52502,note_on,0,0,0,,10,,,69,127
52601,note_off,99,0,0,,6,,,78,127
52602,note_on,1,0,0,,4,,,76,127
52701,note_off,99,0,0,,4,,,76,127
52702,note_on,1,0,0,,2,,,74,127
52801,note_off,99,0,0,,2,,,74,127
52802,note_on,1,0,0,,1,,,73,127
52901,note_off,99,0,0,,1,,,73,127
52901,note_off,0,0,0,,10,,,69,127
52901,note_off,0,0,0,,10,,,57,127
52901,note_off,0,0,0,,10,,,45,127
52902,note_on,1,0,0,,2,,,50,127
52902,note_on,0,0,0,,2,,,38,127
52902,note_on,0,0,0,,2,,,74,127
53002,note_on,100,0,0,,10,,,69,127
53100,note_off,98,0,0,,2,,,74,127
53101,note_off,1,0,0,,10,,,69,127
53102,note_on,1,0,0,,6,,,66,127
53201,note_off,99,0,0,,6,,,66,127
53202,note_on,1,0,0,,2,,,62,127
53301,note_off,99,0,0,,2,,,62,127
53302,note_on,1,0,0,,6,,,66,127
53401,note_off,99,0,0,,6,,,66,127
53402,note_on,1,0,0,,10,,,69,127
53501,note_off,99,0,0,,10,,,69,127
53502,note_on,1,0,0,,2,,,74,127
53601,note_off,99,0,0,,2,,,74,127
53602,note_on,1,0,0,,10,,,81,127
53701,note_off,99,0,0,,2,,,38,127
53701,note_off,0,0,0,,2,,,50,127
53702,note_on,1,0,0,,10,,,45,127
53702,note_on,0,0,0,,10,,,57,127
53702,note_on,0,0,0,,10,,,69,127
53801,note_off,99,0,0,,10,,,81,127
53802,note_on,1,0,0,,7,,,79,127
53901,note_off,99,0,0,,7,,,79,127
53902,note_on,1,0,0,,6,,,78,127
54001,note_off,99,0,0,,6,,,78,127
54002,note_on,1,0,0,,4,,,76,127
54101,note_off,99,0,0,,4,,,76,127
54101,note_off,0,0,0,,10,,,69,127
54101,note_off,0,0,0,,10,,,57,127
54101,note_off,0,0,0,,10,,,45,127
54102,note_on,1,0,0,,2,,,50,127
54102,note_on,0,0,0,,2,,,38,127
54102,note_on,0,0,0,,2,,,74,127
54202,note_on,100,0,0,,10,,,69,127
54300,note_off,98,0,0,,2,,,74,127
54301,note_off,1,0,0,,10,,,69,127
54302,note_on,1,0,0,,6,,,66,127
54401,note_off,99,0,0,,6,,,66,127
54402,note_on,1,0,0,,2,,,62,127
54501,note_off,99,0,0,,2,,,62,127
54502,note_on,1,0,0,,6,,,66,127
54601,note_off,99,0,0,,6,,,66,127
54602,note_on,1,0,0,,10,,,69,127
54701,note_off,99,0,0,,10,,,69,127
54702,note_on,1,0,0,,2,,,74,127
54801,note_off,99,0,0,,2,,,74,127
54802,note_on,1,0,0,,6,,,78,127
54901,note_off,99,0,0,,2,,,38,127
54901,note_off,0,0,0,,2,,,50,127
54902,note_on,1,0,0,,10,,,45,127
54902,note_on,0,0,0,,10,,,57,127
54902,note_on,0,0,0,,10,,,69,127
55001,note_off,99,0,0,,6,,,78,127
55002,note_on,1,0,0,,4,,,76,127
55101,note_off,99,0,0,,4,,,76,127
55102,note_on,1,0,0,,2,,,74,127
55201,note_off,99,0,0,,2,,,74,127
55202,note_on,1,0,0,,1,,,73,127
55301,note_off,99,0,0,,1,,,73,127
55301,note_off,0,0,0,,10,,,69,127
55301,note_off,0,0,0,,10,,,57,127
55301,note_off,0,0,0,,10,,,45,127
55302,note_on,1,0,0,,2,,,50,127
55302,note_on,0,0,0,,2,,,38,127
55302,note_on,0,0,0,,2,,,74,127
55402,note_on,100,0,0,,10,,,69,127
55500,note_off,98,0,0,,2,,,74,127
55501,note_off,1,0,0,,10,,,69,127
55502,note_on,1,0,0,,6,,,66,127
55601,note_off,99,0,0,,6,,,66,127
55602,note_on,1,0,0,,2,,,62,127
55701,note_off,99,0,0,,2,,,62,127
55702,note_on,1,0,0,,6,,,66,127
55801,note_off,99,0,0,,6,,,66,127
55802,note_on,1,0,0,,10,,,69,127
55901,note_off,99,0,0,,10,,,69,127
55902,note_on,1,0,0,,2,,,74,127
56001,note_off,99,0,0,,2,,,74,127
56002,note_on,1,0,0,,10,,,81,127
56101,note_off,99,0,0,,2,,,38,127
56101,note_off,0,0,0,,2,,,50,127
56102,note_on,1,0,0,,10,,,45,127
56102,note_on,0,0,0,,10,,,57,127
56102,note_on,0,0,0,,10,,,69,127
56201,note_off,99,0,0,,10,,,81,127
56202,note_on,1,0,0,,7,,,79,127
56301,note_off,99,0,0,,7,,,79,127
56302,note_on,1,0,0,,6,,,78,127
56401,note_off,99,0,0,,6,,,78,127
56402,note_on,1,0,0,,4,,,76,127
56501,note_off,99,0,0,,4,,,76,127
56501,note_off,0,0,0,,10,,,69,127
56501,note_off,0,0,0,,10,,,57,127
56501,note_off,0,0,0,,10,,,45,127
56502,note_on,1,0,0,,2,,,50,127
56502,note_on,0,0,0,,6,,,78,127
56601,note_off,99,0,0,,6,,,78,127
56602,note_on,1,0,0,,4,,,76,127
56701,note_off,99,0,0,,4,,,76,127
56702,note_on,1,0,0,,2,,,74,127
56801,note_off,99,0,0,,2,,,74,127
56802,note_on,1,0,0,,1,,,73,127
56901,note_off,99,0,0,,1,,,73,127
56901,note_off,0,0,0,,2,,,50,127
56902,note_on,1,0,0,,7,,,55,127
56902,note_on,0,0,0,,12,,,71,127
57001,note_off,99,0,0,,12,,,71,127
57002,note_on,1,0,0,,1,,,73,127
57101,note_off,99,0,0,,1,,,73,127
57102,note_on,1,0,0,,2,,,74,127
57202,note_on,100,0,0,,7,,,67,127
57301,note_off,99,0,0,,7,,,67,127
57301,note_off,0,0,0,,7,,,55,127
57302,note_on,1,0,0,,10,,,57,127
57302,note_on,0,0,0,,6,,,66,127
57400,note_off,98,0,0,,2,,,74,127
57401,note_off,1,0,0,,6,,,66,127
57402,note_on,1,0,0,,2,,,74,127
57502,note_on,100,0,0,,4,,,64,127
57600,note_off,98,0,0,,2,,,74,127
57601,note_off,1,0,0,,4,,,64,127
57602,note_on,1,0,0,,1,,,73,127
57701,note_off,99,0,0,,1,,,73,127
57701,note_off,0,0,0,,10,,,57,127
57702,note_on,1,0,0,,2,,,62,127
57702,note_on,0,0,0,,2,,,74,127
57801,note_off,99,0,0,,2,,,62,127
57802,note_on,1,0,0,,10,,,57,127
57901,note_off,99,0,0,,10,,,57,127
57902,note_on,1,0,0,,6,,,54,127
58001,note_off,99,0,0,,6,,,54,127
58002,note_on,1,0,0,,2,,,50,127
58101,note_off,99,0,0,,2,,,50,127
58102,note_on,1,0,0,,6,,,54,127
58201,note_off,99,0,0,,6,,,54,127
58202,note_on,1,0,0,,10,,,57,127
58270,note_off,68,0,0,,2,,,74,127
58301,note_off,31,0,0,,10,,,57,127
58302,note_on,1,0,0,,2,,,62,127
58302,note_on,0,0,0,,10,,,81,127
58401,note_off,99,0,0,,2,,,62,127
58402,note_on,1,0,0,,6,,,66,127
58502,note_on,100,0,0,,10,,,57,127
58601,note_off,99,0,0,,6,,,66,127
58602,note_on,1,0,0,,4,,,64,127
58701,note_off,99,0,0,,4,,,64,127
58701,note_off,0,0,0,,10,,,81,127
58702,note_on,1,0,0,,2,,,62,127
58702,note_on,0,0,0,,7,,,79,127
58801,note_off,99,0,0,,2,,,62,127
58802,note_on,1,0,0,,1,,,61,127
58901,note_off,99,0,0,,1,,,61,127
58901,note_off,0,0,0,,7,,,79,127
58901,note_off,0,0,0,,10,,,57,127
58902,note_on,1,0,0,,2,,,62,127
58902,note_on,0,0,0,,6,,,78,127
59001,note_off,99,0,0,,2,,,62,127
59002,note_on,1,0,0,,10,,,57,127
59101,note_off,99,0,0,,10,,,57,127
59102,note_on,1,0,0,,6,,,54,127
59201,note_off,99,0,0,,6,,,54,127
59202,note_on,1,0,0,,2,,,50,127
59301,note_off,99,0,0,,2,,,50,127
59302,note_on,1,0,0,,6,,,54,127
59401,note_off,99,0,0,,6,,,54,127
59402,note_on,1,0,0,,10,,,57,127
59470,note_off,68,0,0,,6,,,78,127
59501,note_off,31,0,0,,10,,,57,127
59502,note_on,1,0,0,,2,,,62,127
59502,note_on,0,0,0,,6,,,78,127
59601,note_off,99,0,0,,2,,,62,127
59602,note_on,1,0,0,,10,,,69,127
59702,note_on,100,0,0,,10,,,57,127
59801,note_off,99,0,0,,10,,,69,127
59802,note_on,1,0,0,,7,,,67,127
59901,note_off,99,0,0,,7,,,67,127
59901,note_off,0,0,0,,6,,,78,127
59902,note_on,1,0,0,,6,,,66,127
59902,note_on,0,0,0,,4,,,76,127
60001,note_off,99,0,0,,6,,,66,127
60002,note_on,1,0,0,,4,,,64,127
60101,note_off,99,0,0,,4,,,64,127
60101,note_off,0,0,0,,4,,,76,127
60101,note_off,0,0,0,,10,,,57,127
60102,note_on,1,0,0,,2,,,62,127
60102,note_on,0,0,0,,2,,,74,127
60201,note_off,99,0,0,,2,,,62,127
60202,note_on,1,0,0,,10,,,57,127
60301,note_off,99,0,0,,10,,,57,127
60302,note_on,1,0,0,,6,,,54,127
60401,note_off,99,0,0,,6,,,54,127
60402,note_on,1,0,0,,2,,,50,127
60501,note_off,99,0,0,,2,,,50,127
60502,note_on,1,0,0,,6,,,54,127
60601,note_off,99,0,0,,6,,,54,127
60602,note_off,1,0,0,,2,,,74,127
60602,note_on,0,0,0,,10,,,57,127
60701,note_off,99,0,0,,10,,,57,127
60702,note_on,1,0,0,,2,,,62,127
60702,note_on,0,0,0,,10,,,81,127
60801,note_off,99,0,0,,2,,,62,127
60802,note_on,1,0,0,,6,,,66,127
60902,note_on,100,0,0,,10,,,57,127
61001,note_off,99,0,0,,6,,,66,127
61002,note_on,1,0,0,,4,,,64,127
61101,note_off,99,0,0,,4,,,64,127
61101,note_off,0,0,0,,10,,,81,127
61102,note_on,1,0,0,,2,,,62,127
61102,note_on,0,0,0,,7,,,79,127
61201,note_off,99,0,0,,2,,,62,127
61202,note_on,1,0,0,,1,,,61,127
61301,note_off,99,0,0,,1,,,61,127
61301,note_off,0,0,0,,7,,,79,127
61301,note_off,0,0,0,,10,,,57,127
61302,note_on,1,0,0,,2,,,62,127
61302,note_on,0,0,0,,6,,,78,127
61401,note_off,99,0,0,,2,,,62,127
61402,note_on,1,0,0,,10,,,57,127
61501,note_off,99,0,0,,10,,,57,127
61502,note_on,1,0,0,,6,,,54,127
61601,note_off,99,0,0,,6,,,54,127
61602,note_on,1,0,0,,2,,,50,127
61701,note_off,99,0,0,,2,,,50,127
61702,note_on,1,0,0,,6,,,54,127
61801,note_off,99,0,0,,6,,,54,127
61802,note_on,1,0,0,,10,,,57,127
61870,note_off,68,0,0,,6,,,78,127
61901,note_off,31,0,0,,10,,,57,127
61902,note_on,1,0,0,,2,,,62,127
61902,note_on,0,0,0,,6,,,78,127
62001,note_off,99,0,0,,2,,,62,127
62002,note_on,1,0,0,,10,,,69,127
62102,note_on,100,0,0,,10,,,57,127
62201,note_off,99,0,0,,10,,,69,127
62202,note_on,1,0,0,,7,,,67,127
62301,note_off,99,0,0,,7,,,67,127
62301,note_off,0,0,0,,6,,,78,127
62302,note_on,1,0,0,,6,,,66,127
62302,note_on,0,0,0,,4,,,76,127
62401,note_off,99,0,0,,6,,,66,127
62402,note_on,1,0,0,,4,,,64,127
62501,note_off,99,0,0,,4,,,64,127
62501,note_off,0,0,0,,4,,,76,127
62501,note_off,0,0,0,,10,,,57,127
62502,note_on,1,0,0,,2,,,50,127
62502,note_on,0,0,0,,2,,,74,127
62601,note_off,99,0,0,,2,,,74,127
62602,note_on,1,0,0,,1,,,73,127
62701,note_off,99,0,0,,1,,,73,127
62702,note_on,1,0,0,,12,,,71,127
62801,note_off,99,0,0,,12,,,71,127
62802,note_on,1,0,0,,10,,,69,127
62901,note_off,99,0,0,,10,,,69,127
62901,note_off,0,0,0,,2,,,50,127
62902,note_on,1,0,0,,7,,,55,127
62902,note_on,0,0,0,,12,,,71,127
63001,note_off,99,0,0,,12,,,71,127
63002,note_on,1,0,0,,1,,,73,127
63101,note_off,99,0,0,,1,,,73,127
63102,note_on,1,0,0,,2,,,74,127
63201,note_off,99,0,0,,2,,,74,127
63202,note_on,1,0,0,,4,,,76,127
63301,note_off,99,0,0,,4,,,76,127
63301,note_off,0,0,0,,7,,,55,127
63302,note_on,1,0,0,,10,,,57,127
63302,note_on,0,0,0,,6,,,66,127
63402,note_on,100,0,0,,2,,,74,127
63452,note_off,50,0,0,,6,,,66,127
63502,note_on,50,0,0,,4,,,64,127
63600,note_off,98,0,0,,2,,,74,127
63602,note_on,2,0,0,,1,,,73,127
63652,note_off,50,0,0,,4,,,64,127
63701,note_off,49,0,0,,1,,,73,127
63701,note_off,0,0,0,,10,,,57,127
63702,note_on,1,0,0,,2,,,50,127
63702,note_on,0,0,0,,2,,,74,127
63801,note_off,99,0,0,,2,,,74,127
63802,note_on,1,0,0,,1,,,73,127
63901,note_off,99,0,0,,1,,,73,127
63902,note_on,1,0,0,,12,,,71,127
64001,note_off,99,0,0,,12,,,71,127
64002,note_on,1,0,0,,10,,,69,127
64101,note_off,99,0,0,,10,,,69,127
64101,note_off,0,0,0,,2,,,50,127
64102,note_on,1,0,0,,7,,,43,127
64102,note_on,0,0,0,,7,,,67,127
64201,note_off,99,0,0,,7,,,67,127
64202,note_on,1,0,0,,6,,,66,127
64301,note_off,99,0,0,,6,,,66,127
64302,note_on,1,0,0,,4,,,64,127
64401,note_off,99,0,0,,4,,,64,127
64402,note_on,1,0,0,,2,,,62,127
64501,note_off,99,0,0,,2,,,62,127
64501,note_off,0,0,0,,7,,,43,127
64502,note_on,1,0,0,,10,,,45,127
64502,note_on,0,0,0,,1,,,61,127
64601,note_off,99,0,0,,1,,,61,127
64602,note_on,1,0,0,,12,,,59,127
64701,note_off,99,0,0,,12,,,59,127
64702,note_on,1,0,0,,10,,,57,127
64801,note_off,99,0,0,,10,,,57,127
64802,note_on,1,0,0,,7,,,55,127
64901,note_off,99,0,0,,7,,,55,127
64901,note_off,0,0,0,,10,,,45,127
64902,note_on,1,0,0,,2,,,38,127
64902,note_on,0,0,0,,6,,,54,127
65001,note_off,99,0,0,,6,,,54,127
65002,note_on,1,0,0,,2,,,50,127
65101,note_off,99,0,0,,2,,,50,127
65102,note_on,1,0,0,,10,,,57,127
65201,note_off,99,0,0,,10,,,57,127
65202,note_on,1,0,0,,6,,,54,127
65301,note_off,99,0,0,,6,,,54,127
65302,note_on,1,0,0,,2,,,62,127
65401,note_off,99,0,0,,2,,,62,127
65402,note_on,1,0,0,,10,,,57,127
65501,note_off,99,0,0,,10,,,57,127
65502,note_on,1,0,0,,6,,,66,127
65601,note_off,99,0,0,,6,,,66,127
65602,note_on,1,0,0,,2,,,62,127
65701,note_off,99,0,0,,2,,,62,127
65702,note_on,1,0,0,,10,,,69,127
65801,note_off,99,0,0,,10,,,69,127
65802,note_on,1,0,0,,6,,,66,127
65901,note_off,99,0,0,,6,,,66,127
65902,note_on,1,0,0,,2,,,74,127
66001,note_off,99,0,0,,2,,,74,127
66002,note_on,1,0,0,,10,,,69,127
66101,note_off,99,0,0,,10,,,69,127
66101,note_off,0,0,0,,2,,,38,127
66102,note_on,1,0,0,,2,,,38,127
66102,note_on,0,0,0,,2,,,50,127
66302,note_on,200,0,0,,2,,,74,127
66501,note_off,199,0,0,,2,,,74,127
66502,note_on,1,0,0,,0,,,72,127
66502,note_on,0,0,0,,2,,,74,127
66701,note_off,199,0,0,,2,,,74,127
66701,note_off,0,0,0,,0,,,72,127
66702,note_on,1,0,0,,11,,,70,127
66702,note_on,0,0,0,,2,,,74,127
66901,note_off,199,0,0,,2,,,74,127
66901,note_off,0,0,0,,11,,,70,127
66902,note_on,1,0,0,,2,,,74,127
66902,note_on,0,0,0,,10,,,69,127
67101,note_off,199,0,0,,10,,,69,127
67101,note_off,0,0,0,,2,,,74,127
67102,note_on,1,0,0,,7,,,67,127
67102,note_on,0,0,0,,2,,,74,127
67301,note_off,199,0,0,,2,,,74,127
67301,note_off,0,0,0,,7,,,67,127
67302,note_on,1,0,0,,6,,,66,127
67302,note_on,0,0,0,,2,,,74,127
67501,note_off,199,0,0,,2,,,74,127
67501,note_off,0,0,0,,6,,,66,127
67501,note_off,0,0,0,,2,,,50,127
67501,note_off,0,0,0,,2,,,38,127
67502,note_on,1,0,0,,3,,,63,127
67502,note_on,0,0,0,,2,,,74,127
67502,note_on,0,0,0,,0,,,72,127
67701,note_off,199,0,0,,0,,,72,127
67701,note_off,0,0,0,,2,,,74,127
67701,note_off,0,0,0,,3,,,63,127
67702,note_on,1,0,0,,2,,,62,127
67702,note_on,0,0,0,,2,,,74,127
67702,note_on,0,0,0,,11,,,70,127
67901,note_off,199,0,0,,11,,,70,127
67901,note_off,0,0,0,,2,,,74,127
67901,note_off,0,0,0,,2,,,62,127
67902,note_on,1,0,0,,0,,,60,127
67902,note_on,0,0,0,,10,,,69,127
67902,note_on,0,0,0,,2,,,74,127
68101,note_off,199,0,0,,2,,,74,127
68101,note_off,0,0,0,,10,,,69,127
68101,note_off,0,0,0,,0,,,60,127
68102,note_on,1,0,0,,11,,,58,127
68102,note_on,0,0,0,,2,,,74,127
68102,note_on,0,0,0,,7,,,67,127
68301,note_off,199,0,0,,7,,,67,127
68301,note_off,0,0,0,,2,,,74,127
68301,note_off,0,0,0,,11,,,58,127
68302,note_on,1,0,0,,10,,,57,127
68302,note_on,0,0,0,,2,,,74,127
68302,note_on,0,0,0,,6,,,66,127
68501,note_off,199,0,0,,6,,,66,127
68501,note_off,0,0,0,,2,,,74,127
68501,note_off,0,0,0,,10,,,57,127
68502,note_on,1,0,0,,11,,,58,127
68502,note_on,0,0,0,,2,,,74,127
68502,note_on,0,0,0,,7,,,67,127
68701,note_off,199,0,0,,2,,,74,127
68701,note_off,0,0,0,,11,,,58,127
68702,note_on,1,0,0,,0,,,60,127
68702,note_on,0,0,0,,3,,,75,127
68901,note_off,199,0,0,,3,,,75,127
68901,note_off,0,0,0,,0,,,60,127
68902,note_on,1,0,0,,11,,,58,127
68902,note_on,0,0,0,,2,,,74,127
69101,note_off,199,0,0,,2,,,74,127
69101,note_off,0,0,0,,11,,,58,127
69101,note_off,0,0,0,,7,,,67,127
69102,note_on,1,0,0,,8,,,56,127
69102,note_on,0,0,0,,5,,,65,127
69102,note_on,0,0,0,,2,,,74,127
69301,note_off,199,0,0,,2,,,74,127
69301,note_off,0,0,0,,5,,,65,127
69301,note_off,0,0,0,,8,,,56,127
69302,note_on,1,0,0,,7,,,55,127
69302,note_on,0,0,0,,7,,,67,127
69302,note_on,0,0,0,,12,,,71,127
69501,note_off,199,0,0,,12,,,71,127
69501,note_off,0,0,0,,7,,,67,127
69501,note_off,0,0,0,,7,,,55,127
69502,note_on,1,0,0,,5,,,53,127
69502,note_on,0,0,0,,8,,,68,127
69502,note_on,0,0,0,,0,,,72,127
69701,note_off,199,0,0,,0,,,72,127
69701,note_off,0,0,0,,8,,,68,127
69701,note_off,0,0,0,,5,,,53,127
69702,note_on,1,0,0,,7,,,55,127
69702,note_on,0,0,0,,12,,,71,127
69702,note_on,0,0,0,,7,,,67,127
69901,note_off,199,0,0,,7,,,67,127
69901,note_off,0,0,0,,12,,,71,127
69901,note_off,0,0,0,,7,,,55,127
69902,note_on,1,0,0,,8,,,56,127
69902,note_on,0,0,0,,0,,,72,127
69902,note_on,0,0,0,,5,,,65,127
70101,note_off,199,0,0,,5,,,65,127
70101,note_off,0,0,0,,0,,,72,127
70101,note_off,0,0,0,,8,,,56,127
70102,note_on,1,0,0,,7,,,55,127
70102,note_on,0,0,0,,12,,,71,127
70102,note_on,0,0,0,,7,,,67,127
70301,note_off,199,0,0,,7,,,67,127
70301,note_off,0,0,0,,12,,,71,127
70301,note_off,0,0,0,,7,,,55,127
70302,note_on,1,0,0,,5,,,53,127
70302,note_on,0,0,0,,8,,,68,127
70302,note_on,0,0,0,,0,,,72,127
70501,note_off,199,0,0,,0,,,72,127
70501,note_off,0,0,0,,8,,,68,127
70501,note_off,0,0,0,,5,,,53,127
70502,note_on,1,0,0,,7,,,55,127
70502,note_on,0,0,0,,12,,,71,127
70502,note_on,0,0,0,,7,,,67,127
70701,note_off,199,0,0,,7,,,67,127
70701,note_off,0,0,0,,12,,,71,127
70701,note_off,0,0,0,,7,,,55,127
70702,note_on,1,0,0,,8,,,56,127
70702,note_on,0,0,0,,2,,,74,127
70751,note_off,49,0,0,,2,,,74,127
70752,note_on,1,0,0,,0,,,72,127
70801,note_off,49,0,0,,0,,,72,127
70802,note_on,1,0,0,,12,,,71,127
70851,note_off,49,0,0,,12,,,71,127
70852,note_on,1,0,0,,0,,,72,127
70901,note_off,49,0,0,,0,,,72,127
70901,note_off,0,0,0,,8,,,56,127
70902,note_on,1,0,0,,7,,,55,127
70902,note_on,0,0,0,,2,,,74,127
71101,note_off,199,0,0,,2,,,74,127
71102,note_on,1,0,0,,7,,,79,127
71301,note_off,199,0,0,,7,,,79,127
71302,note_on,1,0,0,,7,,,79,127
71302,note_on,0,0,0,,5,,,77,127
71501,note_off,199,0,0,,5,,,77,127
71501,note_off,0,0,0,,7,,,79,127
71502,note_on,1,0,0,,7,,,79,127
71502,note_on,0,0,0,,3,,,75,127
71701,note_off,199,0,0,,3,,,75,127
71701,note_off,0,0,0,,7,,,79,127
71702,note_on,1,0,0,,2,,,74,127
71702,note_on,0,0,0,,7,,,79,127
71901,note_off,199,0,0,,7,,,79,127
71901,note_off,0,0,0,,2,,,74,127
71902,note_on,1,0,0,,7,,,79,127
71902,note_on,0,0,0,,0,,,72,127
72101,note_off,199,0,0,,0,,,72,127
72101,note_off,0,0,0,,7,,,79,127
72102,note_on,1,0,0,,12,,,71,127
72102,note_on,0,0,0,,7,,,79,127
72301,note_off,199,0,0,,7,,,79,127
72301,note_off,0,0,0,,12,,,71,127
72301,note_off,0,0,0,,7,,,55,127
72302,note_on,1,0,0,,8,,,68,127
72302,note_on,0,0,0,,7,,,79,127
72302,note_on,0,0,0,,5,,,77,127
72501,note_off,199,0,0,,5,,,77,127
72501,note_off,0,0,0,,7,,,79,127
72501,note_off,0,0,0,,8,,,68,127
72502,note_on,1,0,0,,7,,,67,127
72502,note_on,0,0,0,,3,,,75,127
72502,note_on,0,0,0,,7,,,79,127
72701,note_off,199,0,0,,7,,,79,127
72701,note_off,0,0,0,,3,,,75,127
72701,note_off,0,0,0,,7,,,67,127
72702,note_on,1,0,0,,5,,,65,127
72702,note_on,0,0,0,,7,,,79,127
72702,note_on,0,0,0,,2,,,74,127
72901,note_off,199,0,0,,2,,,74,127
72901,note_off,0,0,0,,7,,,79,127
72901,note_off,0,0,0,,5,,,65,127
72902,note_on,1,0,0,,3,,,63,127
72902,note_on,0,0,0,,7,,,79,127
72902,note_on,0,0,0,,0,,,72,127
73101,note_off,199,0,0,,0,,,72,127
73101,note_off,0,0,0,,7,,,79,127
73101,note_off,0,0,0,,3,,,63,127
73102,note_on,1,0,0,,2,,,62,127
73102,note_on,0,0,0,,12,,,71,127
73102,note_on,0,0,0,,7,,,79,127
73301,note_off,199,0,0,,7,,,79,127
73301,note_off,0,0,0,,12,,,71,127
73301,note_off,0,0,0,,2,,,62,127
73302,note_on,1,0,0,,3,,,63,127
73302,note_on,0,0,0,,7,,,79,127
73302,note_on,0,0,0,,0,,,72,127
73501,note_off,199,0,0,,7,,,79,127
73501,note_off,0,0,0,,3,,,63,127
73502,note_on,1,0,0,,5,,,65,127
73502,note_on,0,0,0,,8,,,80,127
73701,note_off,199,0,0,,8,,,80,127
73701,note_off,0,0,0,,5,,,65,127
73702,note_on,1,0,0,,3,,,63,127
73702,note_on,0,0,0,,7,,,79,127
73901,note_off,199,0,0,,7,,,79,127
73901,note_off,0,0,0,,3,,,63,127
73901,note_off,0,0,0,,0,,,72,127
73902,note_on,1,0,0,,1,,,61,127
73902,note_on,0,0,0,,5,,,77,127
73902,note_on,0,0,0,,11,,,70,127
74101,note_off,199,0,0,,11,,,70,127
74101,note_off,0,0,0,,5,,,77,127
74101,note_off,0,0,0,,1,,,61,127
74102,note_on,1,0,0,,0,,,60,127
74102,note_on,0,0,0,,4,,,76,127
74102,note_on,0,0,0,,0,,,72,127
74301,note_off,199,0,0,,0,,,72,127
74301,note_off,0,0,0,,4,,,76,127
74301,note_off,0,0,0,,0,,,60,127
74302,note_on,1,0,0,,11,,,58,127
74302,note_on,0,0,0,,5,,,77,127
74302,note_on,0,0,0,,1,,,73,127
74501,note_off,199,0,0,,1,,,73,127
74501,note_off,0,0,0,,5,,,77,127
74501,note_off,0,0,0,,11,,,58,127
74502,note_on,1,0,0,,0,,,60,127
74502,note_on,0,0,0,,4,,,76,127
74502,note_on,0,0,0,,0,,,72,127
74701,note_off,199,0,0,,0,,,72,127
74701,note_off,0,0,0,,4,,,76,127
74701,note_off,0,0,0,,0,,,60,127
74702,note_on,1,0,0,,1,,,61,127
74702,note_on,0,0,0,,5,,,77,127
74702,note_on,0,0,0,,11,,,70,127
74901,note_off,199,0,0,,11,,,70,127
74901,note_off,0,0,0,,5,,,77,127
74901,note_off,0,0,0,,1,,,61,127
74902,note_on,1,0,0,,0,,,60,127
74902,note_on,0,0,0,,0,,,72,127
74902,note_on,0,0,0,,4,,,76,127
75101,note_off,199,0,0,,4,,,76,127
75101,note_off,0,0,0,,0,,,72,127
75101,note_off,0,0,0,,0,,,60,127
75102,note_on,1,0,0,,11,,,58,127
75102,note_on,0,0,0,,5,,,77,127
75102,note_on,0,0,0,,1,,,73,127
75301,note_off,199,0,0,,1,,,73,127
75301,note_off,0,0,0,,5,,,77,127
75301,note_off,0,0,0,,11,,,58,127
75302,note_on,1,0,0,,0,,,60,127
75302,note_on,0,0,0,,4,,,76,127
75302,note_on,0,0,0,,0,,,72,127
75501,note_off,199,0,0,,0,,,72,127
75501,note_off,0,0,0,,4,,,76,127
75501,note_off,0,0,0,,0,,,60,127
75502,note_on,1,0,0,,1,,,61,127
75502,note_on,0,0,0,,7,,,79,127
75551,note_off,49,0,0,,7,,,79,127
75552,note_on,1,0,0,,5,,,77,127
75601,note_off,49,0,0,,5,,,77,127
75602,note_on,1,0,0,,4,,,76,127
75651,note_off,49,0,0,,4,,,76,127
75652,note_on,1,0,0,,5,,,77,127
75701,note_off,49,0,0,,5,,,77,127
75701,note_off,0,0,0,,1,,,61,127
75702,note_on,1,0,0,,0,,,60,127
75702,note_on,0,0,0,,7,,,79,127
75901,note_off,199,0,0,,7,,,79,127
75902,note_on,1,0,0,,7,,,79,127
76101,note_off,199,0,0,,7,,,79,127
76102,note_on,1,0,0,,7,,,79,127
76301,note_off,199,0,0,,7,,,79,127
76301,note_off,0,0,0,,0,,,60,127
76302,note_on,1,0,0,,2,,,74,127
76302,note_on,0,0,0,,7,,,79,127
76302,note_on,0,0,0,,5,,,77,127
76501,note_off,199,0,0,,5,,,77,127
76501,note_off,0,0,0,,7,,,79,127
76501,note_off,0,0,0,,2,,,74,127
76502,note_on,1,0,0,,0,,,72,127
76502,note_on,0,0,0,,4,,,76,127
76502,note_on,0,0,0,,7,,,79,127
76701,note_off,199,0,0,,7,,,79,127
76701,note_off,0,0,0,,4,,,76,127
76701,note_off,0,0,0,,0,,,72,127
76702,note_on,1,0,0,,11,,,70,127
76702,note_on,0,0,0,,7,,,79,127
76702,note_on,0,0,0,,2,,,74,127
76901,note_off,199,0,0,,2,,,74,127
76901,note_off,0,0,0,,7,,,79,127
76901,note_off,0,0,0,,11,,,70,127
76902,note_on,1,0,0,,10,,,69,127
76902,note_on,0,0,0,,7,,,79,127
76902,note_on,0,0,0,,1,,,73,127
77101,note_off,199,0,0,,7,,,79,127
77101,note_off,0,0,0,,10,,,69,127
77102,note_on,1,0,0,,7,,,67,127
77102,note_on,0,0,0,,7,,,79,127
77301,note_off,199,0,0,,7,,,79,127
77301,note_off,0,0,0,,7,,,67,127
77301,note_off,0,0,0,,1,,,73,127
77302,note_on,1,0,0,,6,,,66,127
77302,note_on,0,0,0,,10,,,81,127
77302,note_on,0,0,0,,2,,,74,127
77501,note_off,199,0,0,,2,,,74,127
77501,note_off,0,0,0,,10,,,81,127
77501,note_off,0,0,0,,6,,,66,127
77502,note_on,1,0,0,,7,,,67,127
77502,note_on,0,0,0,,11,,,82,127
77502,note_on,0,0,0,,2,,,74,127
77701,note_off,199,0,0,,2,,,74,127
77701,note_off,0,0,0,,11,,,82,127
77701,note_off,0,0,0,,7,,,67,127
77702,note_on,1,0,0,,6,,,66,127
77702,note_on,0,0,0,,2,,,74,127
77702,note_on,0,0,0,,10,,,81,127
77901,note_off,199,0,0,,10,,,81,127
77901,note_off,0,0,0,,2,,,74,127
77901,note_off,0,0,0,,6,,,66,127
77902,note_on,1,0,0,,3,,,63,127
77902,note_on,0,0,0,,7,,,79,127
77902,note_on,0,0,0,,0,,,72,127
78101,note_off,199,0,0,,0,,,72,127
78101,note_off,0,0,0,,7,,,79,127
78101,note_off,0,0,0,,3,,,63,127
78102,note_on,1,0,0,,2,,,62,127
78102,note_on,0,0,0,,6,,,78,127
78102,note_on,0,0,0,,2,,,74,127
78301,note_off,199,0,0,,2,,,74,127
78301,note_off,0,0,0,,6,,,78,127
78301,note_off,0,0,0,,2,,,62,127
78302,note_on,1,0,0,,0,,,60,127
78302,note_on,0,0,0,,7,,,79,127
78302,note_on,0,0,0,,3,,,75,127
78501,note_off,199,0,0,,3,,,75,127
78501,note_off,0,0,0,,7,,,79,127
78501,note_off,0,0,0,,0,,,60,127
78502,note_on,1,0,0,,2,,,62,127
78502,note_on,0,0,0,,6,,,78,127
78502,note_on,0,0,0,,2,,,74,127
78701,note_off,199,0,0,,2,,,74,127
78701,note_off,0,0,0,,6,,,78,127
78701,note_off,0,0,0,,2,,,62,127
78702,note_on,1,0,0,,3,,,63,127
78702,note_on,0,0,0,,7,,,79,127
78702,note_on,0,0,0,,0,,,72,127
78901,note_off,199,0,0,,0,,,72,127
78901,note_off,0,0,0,,7,,,79,127
78901,note_off,0,0,0,,3,,,63,127
78902,note_on,1,0,0,,2,,,62,127
78902,note_on,0,0,0,,6,,,78,127
78902,note_on,0,0,0,,2,,,74,127
79101,note_off,199,0,0,,2,,,74,127
79101,note_off,0,0,0,,6,,,78,127
79101,note_off,0,0,0,,2,,,62,127
79102,note_on,1,0,0,,0,,,60,127
79102,note_on,0,0,0,,10,,,81,127
79151,note_off,49,0,0,,10,,,81,127
79152,note_on,1,0,0,,7,,,79,127
79201,note_off,49,0,0,,7,,,79,127
79202,note_on,1,0,0,,6,,,78,127
79251,note_off,49,0,0,,6,,,78,127
79252,note_on,1,0,0,,7,,,79,127
79301,note_off,49,0,0,,7,,,79,127
79301,note_off,0,0,0,,0,,,60,127
79302,note_on,1,0,0,,2,,,62,127
79302,note_on,0,0,0,,10,,,81,127
79401,note_off,99,0,0,,10,,,81,127
79402,note_on,1,0,0,,6,,,78,127
79501,note_off,99,0,0,,6,,,78,127
79502,note_on,1,0,0,,2,,,74,127
79601,note_off,99,0,0,,2,,,74,127
79602,note_on,1,0,0,,10,,,69,127
79701,note_off,99,0,0,,10,,,69,127
79702,note_on,1,0,0,,0,,,72,127
79801,note_off,99,0,0,,2,,,62,127
79802,note_on,1,0,0,,10,,,69,127
79901,note_off,99,0,0,,10,,,69,127
79901,note_off,0,0,0,,0,,,72,127
79902,note_on,1,0,0,,6,,,66,127
79902,note_on,0,0,0,,10,,,81,127
80001,note_off,99,0,0,,6,,,66,127
80002,note_on,1,0,0,,2,,,62,127
80101,note_off,99,0,0,,2,,,62,127
80101,note_off,0,0,0,,10,,,81,127
80102,note_on,1,0,0,,7,,,67,127
80102,note_on,0,0,0,,2,,,74,127
80201,note_off,99,0,0,,7,,,67,127
80202,note_on,1,0,0,,2,,,62,127
80301,note_off,99,0,0,,2,,,62,127
80301,note_off,0,0,0,,2,,,74,127
80302,note_on,1,0,0,,12,,,59,127
80302,note_on,0,0,0,,12,,,83,127
80302,note_on,0,0,0,,7,,,79,127
80401,note_off,99,0,0,,12,,,59,127
80402,note_on,1,0,0,,7,,,55,127
80501,note_off,99,0,0,,7,,,55,127
80501,note_off,0,0,0,,7,,,79,127
80501,note_off,0,0,0,,12,,,83,127
80502,note_on,1,0,0,,2,,,38,127
80502,note_on,0,0,0,,10,,,81,127
80601,note_off,99,0,0,,10,,,81,127
80602,note_on,1,0,0,,6,,,78,127
80701,note_off,99,0,0,,6,,,78,127
80702,note_on,1,0,0,,2,,,74,127
80801,note_off,99,0,0,,2,,,74,127
80802,note_on,1,0,0,,10,,,69,127
80901,note_off,99,0,0,,10,,,69,127
80902,note_on,1,0,0,,0,,,72,127
81001,note_off,99,0,0,,2,,,38,127
81002,note_on,1,0,0,,10,,,69,127
81101,note_off,99,0,0,,10,,,69,127
81101,note_off,0,0,0,,0,,,72,127
81102,note_on,1,0,0,,6,,,66,127
81102,note_on,0,0,0,,10,,,81,127
81201,note_off,99,0,0,,6,,,66,127
81202,note_on,1,0,0,,2,,,62,127
81301,note_off,99,0,0,,2,,,62,127
81301,note_off,0,0,0,,10,,,81,127
81302,note_on,1,0,0,,7,,,67,127
81302,note_on,0,0,0,,2,,,74,127
81401,note_off,99,0,0,,7,,,67,127
81402,note_on,1,0,0,,2,,,62,127
81501,note_off,99,0,0,,2,,,62,127
81501,note_off,0,0,0,,2,,,74,127
81502,note_on,1,0,0,,12,,,59,127
81502,note_on,0,0,0,,12,,,83,127
81502,note_on,0,0,0,,7,,,79,127
81601,note_off,99,0,0,,12,,,59,127
81602,note_on,1,0,0,,7,,,55,127
81701,note_off,99,0,0,,7,,,55,127
81701,note_off,0,0,0,,7,,,79,127
81701,note_off,0,0,0,,12,,,83,127
81702,note_on,1,0,0,,2,,,38,127
81702,note_on,0,0,0,,10,,,81,127
81801,note_off,99,0,0,,10,,,81,127
81802,note_on,1,0,0,,6,,,78,127
81901,note_off,99,0,0,,6,,,78,127
81902,note_on,1,0,0,,2,,,74,127
82001,note_off,99,0,0,,2,,,74,127
82002,note_on,1,0,0,,10,,,69,127
82101,note_off,99,0,0,,10,,,69,127
82102,note_on,1,0,0,,0,,,72,127
82201,note_off,99,0,0,,2,,,38,127
82202,note_on,1,0,0,,10,,,57,127
82301,note_off,99,0,0,,10,,,57,127
82301,note_off,0,0,0,,0,,,72,127
82302,note_on,1,0,0,,6,,,54,127
82302,note_on,0,0,0,,10,,,81,127
82401,note_off,99,0,0,,6,,,54,127
82402,note_on,1,0,0,,2,,,50,127
82501,note_off,99,0,0,,2,,,50,127
82501,note_off,0,0,0,,10,,,81,127
82502,note_on,1,0,0,,7,,,55,127
82502,note_on,0,0,0,,12,,,71,127
82601,note_off,99,0,0,,7,,,55,127
82602,note_on,1,0,0,,2,,,62,127
82701,note_off,99,0,0,,2,,,62,127
82701,note_off,0,0,0,,12,,,71,127
82702,note_on,1,0,0,,12,,,59,127
82702,note_on,0,0,0,,7,,,79,127
82801,note_off,99,0,0,,12,,,59,127
82802,note_on,1,0,0,,7,,,55,127
82901,note_off,99,0,0,,7,,,55,127
82901,note_off,0,0,0,,7,,,79,127
82902,note_on,1,0,0,,0,,,48,127
82902,note_on,0,0,0,,4,,,76,127
83001,note_off,99,0,0,,0,,,48,127
83002,note_on,1,0,0,,0,,,60,127
83101,note_off,99,0,0,,0,,,60,127
83101,note_off,0,0,0,,4,,,76,127
83102,note_on,1,0,0,,10,,,57,127
83102,note_on,0,0,0,,0,,,72,127
83201,note_off,99,0,0,,10,,,57,127
83202,note_on,1,0,0,,6,,,54,127
83301,note_off,99,0,0,,6,,,54,127
83301,note_off,0,0,0,,0,,,72,127
83302,note_on,1,0,0,,12,,,47,127
83302,note_on,0,0,0,,2,,,74,127
83401,note_off,99,0,0,,12,,,47,127
83402,note_on,1,0,0,,12,,,59,127
83501,note_off,99,0,0,,12,,,59,127
83501,note_off,0,0,0,,2,,,74,127
83502,note_on,1,0,0,,7,,,55,127
83502,note_on,0,0,0,,12,,,71,127
83601,note_off,99,0,0,,7,,,55,127
83602,note_on,1,0,0,,4,,,52,127
83701,note_off,99,0,0,,4,,,52,127
83701,note_off,0,0,0,,12,,,71,127
83702,note_on,1,0,0,,10,,,45,127
83702,note_on,0,0,0,,2,,,74,127
83801,note_off,99,0,0,,2,,,74,127
83801,note_off,0,0,0,,10,,,45,127
83802,note_on,1,0,0,,10,,,57,127
83802,note_on,0,0,0,,0,,,72,127
83901,note_off,99,0,0,,0,,,72,127
83901,note_off,0,0,0,,10,,,57,127
83902,note_on,1,0,0,,6,,,54,127
83902,note_on,0,0,0,,12,,,71,127
84001,note_off,99,0,0,,12,,,71,127
84001,note_off,0,0,0,,6,,,54,127
84002,note_on,1,0,0,,2,,,50,127
84002,note_on,0,0,0,,10,,,69,127
84101,note_off,99,0,0,,10,,,69,127
84101,note_off,0,0,0,,2,,,50,127
84102,note_on,1,0,0,,7,,,43,127
84102,note_on,0,0,0,,7,,,79,127
84202,note_on,100,0,0,,2,,,74,127
84252,note_off,50,0,0,,7,,,79,127
84301,note_off,49,0,0,,2,,,74,127
84302,note_on,1,0,0,,12,,,71,127
84401,note_off,99,0,0,,12,,,71,127
84402,note_on,1,0,0,,7,,,67,127
84501,note_off,99,0,0,,7,,,67,127
84502,note_on,1,0,0,,12,,,71,127
84601,note_off,99,0,0,,12,,,71,127
84602,note_on,1,0,0,,2,,,74,127
84701,note_off,99,0,0,,2,,,74,127
84701,note_off,0,0,0,,7,,,43,127
84702,note_on,1,0,0,,0,,,48,127
84702,note_on,0,0,0,,7,,,79,127
84801,note_off,99,0,0,,7,,,79,127
84802,note_on,1,0,0,,12,,,83,127
84901,note_off,99,0,0,,0,,,48,127
84902,note_on,1,0,0,,2,,,50,127
84902,note_on,0,0,0,,2,,,74,127
85001,note_off,99,0,0,,12,,,83,127
85002,note_on,1,0,0,,10,,,81,127
85101,note_off,99,0,0,,10,,,81,127
85102,note_on,1,0,0,,2,,,38,127
85102,note_on,0,0,0,,7,,,79,127
85201,note_off,99,0,0,,7,,,79,127
85202,note_on,1,0,0,,6,,,78,127
85298,note_off,96,0,0,,2,,,50,127
85301,note_off,3,0,0,,6,,,78,127
85301,note_off,0,0,0,,2,,,38,127
85301,note_off,0,0,0,,2,,,74,127
85302,note_on,1,0,0,,7,,,43,127
85302,note_on,0,0,0,,7,,,79,127
85402,note_on,100,0,0,,2,,,74,127
85452,note_off,50,0,0,,7,,,79,127
85501,note_off,49,0,0,,2,,,74,127
85502,note_on,1,0,0,,12,,,71,127
85601,note_off,99,0,0,,12,,,71,127
85602,note_on,1,0,0,,7,,,67,127
85701,note_off,99,0,0,,7,,,67,127
85702,note_on,1,0,0,,12,,,71,127
85801,note_off,99,0,0,,12,,,71,127
85802,note_on,1,0,0,,2,,,74,127
85901,note_off,99,0,0,,2,,,74,127
85901,note_off,0,0,0,,7,,,43,127
85902,note_on,1,0,0,,0,,,48,127
85902,note_on,0,0,0,,7,,,79,127
86001,note_off,99,0,0,,7,,,79,127
86002,note_on,1,0,0,,2,,,86,127
86101,note_off,99,0,0,,0,,,48,127
86102,note_on,1,0,0,,2,,,50,127
86102,note_on,0,0,0,,2,,,74,127
86201,note_off,99,0,0,,2,,,86,127
86202,note_on,1,0,0,,0,,,84,127
86301,note_off,99,0,0,,0,,,84,127
86302,note_on,1,0,0,,2,,,38,127
86302,note_on,0,0,0,,12,,,83,127
86401,note_off,99,0,0,,12,,,83,127
86402,note_on,1,0,0,,10,,,81,127
86498,note_off,96,0,0,,2,,,50,127
86501,note_off,3,0,0,,10,,,81,127
86501,note_off,0,0,0,,2,,,38,127
86501,note_off,0,0,0,,2,,,74,127
86502,note_on,1,0,0,,7,,,43,127
86502,note_on,0,0,0,,7,,,79,127
86602,note_on,100,0,0,,2,,,74,127
86652,note_off,50,0,0,,7,,,79,127
86701,note_off,49,0,0,,2,,,74,127
86702,note_on,1,0,0,,12,,,71,127
86801,note_off,99,0,0,,12,,,71,127
86802,note_on,1,0,0,,7,,,67,127
86901,note_off,99,0,0,,7,,,67,127
86902,note_on,1,0,0,,12,,,71,127
87001,note_off,99,0,0,,12,,,71,127
87002,note_on,1,0,0,,2,,,74,127
87101,note_off,99,0,0,,2,,,74,127
87101,note_off,0,0,0,,7,,,43,127
87102,note_on,1,0,0,,0,,,48,127
87102,note_on,0,0,0,,7,,,79,127
87201,note_off,99,0,0,,7,,,79,127
87202,note_on,1,0,0,,12,,,83,127
87301,note_off,99,0,0,,0,,,48,127
87302,note_on,1,0,0,,2,,,50,127
87302,note_on,0,0,0,,2,,,74,127
87401,note_off,99,0,0,,12,,,83,127
87402,note_on,1,0,0,,10,,,81,127
87501,note_off,99,0,0,,10,,,81,127
87502,note_on,1,0,0,,2,,,38,127
87502,note_on,0,0,0,,7,,,79,127
87601,note_off,99,0,0,,7,,,79,127
87602,note_on,1,0,0,,6,,,78,127
87698,note_off,96,0,0,,2,,,50,127
87701,note_off,3,0,0,,6,,,78,127
87701,note_off,0,0,0,,2,,,38,127
87701,note_off,0,0,0,,2,,,74,127
87702,note_on,1,0,0,,7,,,43,127
87702,note_on,0,0,0,,7,,,79,127
87802,note_on,100,0,0,,2,,,74,127
87900,note_off,98,0,0,,7,,,79,127
87901,note_off,1,0,0,,2,,,74,127
87902,note_on,1,0,0,,12,,,71,127
88001,note_off,99,0,0,,12,,,71,127
88002,note_on,1,0,0,,7,,,67,127
88101,note_off,99,0,0,,7,,,67,127
88102,note_on,1,0,0,,12,,,71,127
88201,note_off,99,0,0,,12,,,71,127
88202,note_on,1,0,0,,2,,,74,127
88301,note_off,99,0,0,,2,,,74,127
88301,note_off,0,0,0,,7,,,43,127
88302,note_on,1,0,0,,0,,,48,127
88302,note_on,0,0,0,,7,,,79,127
88401,note_off,99,0,0,,7,,,79,127
88402,note_on,1,0,0,,2,,,86,127
88501,note_off,99,0,0,,0,,,48,127
88502,note_on,1,0,0,,2,,,50,127
88502,note_on,0,0,0,,2,,,74,127
88601,note_off,99,0,0,,2,,,86,127
88602,note_on,1,0,0,,0,,,84,127
88701,note_off,99,0,0,,0,,,84,127
88702,note_on,1,0,0,,2,,,38,127
88702,note_on,0,0,0,,12,,,83,127
88801,note_off,99,0,0,,12,,,83,127
88802,note_on,1,0,0,,10,,,81,127
88898,note_off,96,0,0,,2,,,50,127
88901,note_off,3,0,0,,10,,,81,127
88901,note_off,0,0,0,,2,,,38,127
88901,note_off,0,0,0,,2,,,74,127
88902,note_on,1,0,0,,7,,,55,127
88902,note_on,0,0,0,,7,,,43,127
88902,note_on,0,0,0,,7,,,79,127
89001,note_off,99,0,0,,7,,,79,127
89002,note_on,1,0,0,,6,,,78,127
89101,note_off,99,0,0,,6,,,78,127
89102,note_on,1,0,0,,4,,,76,127
89201,note_off,99,0,0,,4,,,76,127
89202,note_on,1,0,0,,2,,,74,127
89301,note_off,99,0,0,,2,,,74,127
89301,note_off,0,0,0,,7,,,43,127
89301,note_off,0,0,0,,7,,,55,127
89302,note_on,1,0,0,,0,,,36,127
89302,note_on,0,0,0,,0,,,48,127
89302,note_on,0,0,0,,0,,,72,127
89401,note_off,99,0,0,,0,,,72,127
89402,note_on,1,0,0,,12,,,71,127
89501,note_off,99,0,0,,12,,,71,127
89502,note_on,1,0,0,,10,,,69,127
89601,note_off,99,0,0,,10,,,69,127
89602,note_on,1,0,0,,7,,,67,127
89701,note_off,99,0,0,,7,,,67,127
89701,note_off,0,0,0,,0,,,48,127
89701,note_off,0,0,0,,0,,,36,127
89702,note_on,1,0,0,,2,,,38,127
89702,note_on,0,0,0,,2,,,50,127
89702,note_on,0,0,0,,6,,,66,127
89801,note_off,99,0,0,,6,,,66,127
89802,note_on,1,0,0,,4,,,64,127
89901,note_off,99,0,0,,4,,,64,127
89902,note_on,1,0,0,,2,,,62,127
90001,note_off,99,0,0,,2,,,62,127
90002,note_on,1,0,0,,0,,,60,127
90101,note_off,99,0,0,,0,,,60,127
90101,note_off,0,0,0,,2,,,50,127
90101,note_off,0,0,0,,2,,,38,127
90102,note_on,1,0,0,,7,,,55,127
90102,note_on,0,0,0,,12,,,59,127
90201,note_off,99,0,0,,7,,,55,127
90202,note_on,1,0,0,,2,,,50,127
90301,note_off,99,0,0,,2,,,50,127
90302,note_on,1,0,0,,12,,,47,127
90401,note_off,99,0,0,,12,,,47,127
90402,note_on,1,0,0,,7,,,43,127
90501,note_off,99,0,0,,7,,,43,127
90502,note_on,1,0,0,,12,,,47,127
90601,note_off,99,0,0,,12,,,47,127
90602,note_on,1,0,0,,2,,,50,127
90670,note_off,68,0,0,,12,,,59,127
90701,note_off,31,0,0,,2,,,50,127
90702,note_on,1,0,0,,7,,,55,127
90702,note_on,0,0,0,,2,,,74,127
90801,note_off,99,0,0,,7,,,55,127
90802,note_on,1,0,0,,12,,,59,127
90902,note_on,100,0,0,,2,,,50,127
91001,note_off,99,0,0,,12,,,59,127
91002,note_on,1,0,0,,10,,,57,127
91101,note_off,99,0,0,,10,,,57,127
91101,note_off,0,0,0,,2,,,74,127
91102,note_on,1,0,0,,7,,,55,127
91102,note_on,0,0,0,,0,,,72,127
91201,note_off,99,0,0,,7,,,55,127
91202,note_on,1,0,0,,6,,,54,127
91301,note_off,99,0,0,,6,,,54,127
91301,note_off,0,0,0,,0,,,72,127
91301,note_off,0,0,0,,2,,,50,127
91302,note_on,1,0,0,,7,,,55,127
91302,note_on,0,0,0,,12,,,71,127
91401,note_off,99,0,0,,7,,,55,127
91402,note_on,1,0,0,,2,,,50,127
91501,note_off,99,0,0,,2,,,50,127
91502,note_on,1,0,0,,12,,,47,127
91601,note_off,99,0,0,,12,,,47,127
91602,note_on,1,0,0,,7,,,43,127
91701,note_off,99,0,0,,7,,,43,127
91702,note_on,1,0,0,,12,,,47,127
91801,note_off,99,0,0,,12,,,47,127
91802,note_on,1,0,0,,2,,,50,127
91870,note_off,68,0,0,,12,,,71,127
91901,note_off,31,0,0,,2,,,50,127
91902,note_on,1,0,0,,7,,,55,127
91902,note_on,0,0,0,,12,,,71,127
92001,note_off,99,0,0,,7,,,55,127
92002,note_on,1,0,0,,2,,,62,127
92102,note_on,100,0,0,,2,,,50,127
92201,note_off,99,0,0,,2,,,62,127
92202,note_on,1,0,0,,0,,,60,127
92301,note_off,99,0,0,,0,,,60,127
92301,note_off,0,0,0,,12,,,71,127
92302,note_on,1,0,0,,12,,,59,127
92302,note_on,0,0,0,,10,,,69,127
92401,note_off,99,0,0,,12,,,59,127
92402,note_on,1,0,0,,10,,,57,127
92501,note_off,99,0,0,,10,,,57,127
92501,note_off,0,0,0,,10,,,69,127
92501,note_off,0,0,0,,2,,,50,127
92502,note_on,1,0,0,,7,,,55,127
92502,note_on,0,0,0,,7,,,67,127
92601,note_off,99,0,0,,7,,,55,127
92602,note_on,1,0,0,,2,,,50,127
92701,note_off,99,0,0,,2,,,50,127
92702,note_on,1,0,0,,12,,,47,127
92801,note_off,99,0,0,,12,,,47,127
92802,note_on,1,0,0,,7,,,43,127
92901,note_off,99,0,0,,7,,,43,127
92902,note_on,1,0,0,,12,,,47,127
93001,note_off,99,0,0,,12,,,47,127
93002,note_off,1,0,0,,7,,,67,127
93002,note_on,0,0,0,,2,,,50,127
93101,note_off,99,0,0,,2,,,50,127
93102,note_on,1,0,0,,7,,,55,127
93102,note_on,0,0,0,,2,,,74,127
93201,note_off,99,0,0,,7,,,55,127
93202,note_on,1,0,0,,12,,,59,127
93302,note_on,100,0,0,,2,,,50,127
93401,note_off,99,0,0,,12,,,59,127
93402,note_on,1,0,0,,10,,,57,127
93501,note_off,99,0,0,,10,,,57,127
93501,note_off,0,0,0,,2,,,74,127
93502,note_on,1,0,0,,7,,,55,127
93502,note_on,0,0,0,,0,,,72,127
93601,note_off,99,0,0,,7,,,55,127
93602,note_on,1,0,0,,6,,,54,127
93701,note_off,99,0,0,,6,,,54,127
93701,note_off,0,0,0,,0,,,72,127
93701,note_off,0,0,0,,2,,,50,127
93702,note_on,1,0,0,,7,,,55,127
93702,note_on,0,0,0,,12,,,71,127
93801,note_off,99,0,0,,7,,,55,127
93802,note_on,1,0,0,,2,,,50,127
93901,note_off,99,0,0,,2,,,50,127
93902,note_on,1,0,0,,12,,,47,127
94001,note_off,99,0,0,,12,,,47,127
94002,note_on,1,0,0,,7,,,43,127
94101,note_off,99,0,0,,7,,,43,127
94102,note_on,1,0,0,,12,,,47,127
94201,note_off,99,0,0,,12,,,47,127
94202,note_on,1,0,0,,2,,,50,127
94270,note_off,68,0,0,,12,,,71,127
94301,note_off,31,0,0,,2,,,50,127
94302,note_on,1,0,0,,7,,,55,127
94302,note_on,0,0,0,,12,,,71,127
94401,note_off,99,0,0,,7,,,55,127
94402,note_on,1,0,0,,2,,,62,127
94502,note_on,100,0,0,,2,,,50,127
94601,note_off,99,0,0,,2,,,62,127
94602,note_on,1,0,0,,0,,,60,127
94701,note_off,99,0,0,,0,,,60,127
94701,note_off,0,0,0,,12,,,71,127
94702,note_on,1,0,0,,12,,,59,127
94702,note_on,0,0,0,,10,,,69,127
94801,note_off,99,0,0,,12,,,59,127
94802,note_on,1,0,0,,10,,,57,127
94901,note_off,99,0,0,,10,,,57,127
94901,note_off,0,0,0,,10,,,69,127
94901,note_off,0,0,0,,2,,,50,127
94902,note_on,1,0,0,,7,,,43,127
94902,note_on,0,0,0,,7,,,55,127
94902,note_on,0,0,0,,7,,,79,127
95001,note_off,99,0,0,,7,,,79,127
95002,note_on,1,0,0,,6,,,78,127
95101,note_off,99,0,0,,6,,,78,127
95102,note_on,1,0,0,,4,,,76,127
95201,note_off,99,0,0,,4,,,76,127
95202,note_on,1,0,0,,2,,,74,127
95301,note_off,99,0,0,,2,,,74,127
95301,note_off,0,0,0,,7,,,55,127
95301,note_off,0,0,0,,7,,,43,127
95302,note_on,1,0,0,,0,,,48,127
95302,note_on,0,0,0,,0,,,36,127
95302,note_on,0,0,0,,0,,,72,127
95401,note_off,99,0,0,,0,,,72,127
95402,note_on,1,0,0,,12,,,71,127
95501,note_off,99,0,0,,12,,,71,127
95502,note_on,1,0,0,,10,,,69,127
95601,note_off,99,0,0,,10,,,69,127
95602,note_on,1,0,0,,7,,,67,127
95701,note_off,99,0,0,,7,,,67,127
95701,note_off,0,0,0,,0,,,36,127
95701,note_off,0,0,0,,0,,,48,127
95702,note_on,1,0,0,,2,,,50,127
95702,note_on,0,0,0,,2,,,38,127
95702,note_on,0,0,0,,6,,,66,127
95801,note_off,99,0,0,,6,,,66,127
95802,note_on,1,0,0,,4,,,64,127
95901,note_off,99,0,0,,4,,,64,127
95902,note_on,1,0,0,,2,,,62,127
96001,note_off,99,0,0,,2,,,62,127
96002,note_on,1,0,0,,0,,,60,127
96101,note_off,99,0,0,,0,,,60,127
96101,note_off,0,0,0,,2,,,38,127
96101,note_off,0,0,0,,2,,,50,127
96102,note_on,1,0,0,,7,,,43,127
96102,note_on,0,0,0,,7,,,55,127
96102,note_on,0,0,0,,7,,,67,127
96102,note_on,0,0,0,,12,,,59,127
96201,note_off,99,0,0,,7,,,67,127
96202,note_on,1,0,0,,6,,,66,127
96301,note_off,99,0,0,,6,,,66,127
96302,note_on,1,0,0,,4,,,64,127
96401,note_off,99,0,0,,4,,,64,127
96402,note_on,1,0,0,,2,,,62,127
96498,note_off,96,0,0,,12,,,59,127
96501,note_off,3,0,0,,2,,,62,127
96501,note_off,0,0,0,,7,,,55,127
96501,note_off,0,0,0,,7,,,43,127
96502,note_on,1,0,0,,0,,,36,127
96502,note_on,0,0,0,,0,,,48,127
96502,note_on,0,0,0,,0,,,60,127
96601,note_off,99,0,0,,0,,,60,127
96602,note_on,1,0,0,,12,,,59,127
96701,note_off,99,0,0,,12,,,59,127
96702,note_on,1,0,0,,10,,,57,127
96801,note_off,99,0,0,,10,,,57,127
96802,note_on,1,0,0,,7,,,55,127
96901,note_off,99,0,0,,7,,,55,127
96901,note_off,0,0,0,,0,,,48,127
96901,note_off,0,0,0,,0,,,36,127
96902,note_on,1,0,0,,2,,,38,127
96902,note_on,0,0,0,,2,,,50,127
96902,note_on,0,0,0,,6,,,54,127
97001,note_off,99,0,0,,6,,,54,127
97002,note_on,1,0,0,,7,,,55,127
97101,note_off,99,0,0,,7,,,55,127
97102,note_on,1,0,0,,10,,,57,127
97201,note_off,99,0,0,,10,,,57,127
97202,note_on,1,0,0,,6,,,54,127
97301,note_off,99,0,0,,6,,,54,127
97301,note_off,0,0,0,,2,,,50,127
97301,note_off,0,0,0,,2,,,38,127
97302,note_on,1,0,0,,7,,,43,127
97302,note_on,0,0,0,,7,,,31,127
97302,note_on,0,0,0,,7,,,55,127
97401,note_off,99,0,0,,7,,,55,127
97402,note_on,1,0,0,,2,,,50,127
97501,note_off,99,0,0,,2,,,50,127
97502,note_on,1,0,0,,12,,,59,127
97601,note_off,99,0,0,,12,,,59,127
97602,note_on,1,0,0,,7,,,55,127
97701,note_off,99,0,0,,7,,,55,127
97702,note_on,1,0,0,,2,,,62,127
97801,note_off,99,0,0,,2,,,62,127
97802,note_on,1,0,0,,12,,,59,127
97901,note_off,99,0,0,,12,,,59,127
97902,note_on,1,0,0,,7,,,67,127
98001,note_off,99,0,0,,7,,,67,127
98002,note_on,1,0,0,,2,,,62,127
98101,note_off,99,0,0,,2,,,62,127
98102,note_on,1,0,0,,12,,,71,127
98201,note_off,99,0,0,,12,,,71,127
98202,note_on,1,0,0,,7,,,67,127
98301,note_off,99,0,0,,7,,,67,127
98302,note_on,1,0,0,,2,,,74,127
98401,note_off,99,0,0,,2,,,74,127
98402,note_on,1,0,0,,12,,,71,127
98501,note_off,99,0,0,,12,,,71,127
98501,note_off,0,0,0,,7,,,31,127
98502,note_on,1,0,0,,7,,,31,127
98502,note_on,0,0,0,,7,,,79,127
99700,note_off,1198,0,0,,7,,,43,127
99702,note_off,2,0,0,,7,,,79,127
99702,note_off,0,0,0,,7,,,31,127
104448,end_of_track,4746,1,0,,,,,,
