tick,type,time,meta,track,program,channel,pitch,tempo,note,velocity
0,copyright,0,1,0,,,,,,
0,program_change,0,0,0,6,0,,,,
0,pitchwheel,0,0,0,,0,0,,,
0,program_change,0,0,0,6,1,,,,
0,pitchwheel,0,0,0,,1,-590,,,
0,program_change,0,0,0,6,2,,,,
0,pitchwheel,0,0,0,,2,-272,,,
0,program_change,0,0,0,6,3,,,,
0,pitchwheel,0,0,0,,3,-353,,,
0,program_change,0,0,0,6,4,,,,
0,pitchwheel,0,0,0,,4,-560,,,
0,program_change,0,0,0,6,5,,,,
0,pitchwheel,0,0,0,,5,-80,,,
0,program_change,0,0,0,6,6,,,,
0,pitchwheel,0,0,0,,6,-625,,,
0,program_change,0,0,0,6,7,,,,
0,pitchwheel,0,0,0,,7,-130,,,
0,program_change,0,0,0,6,8,,,,
0,pitchwheel,0,0,0,,8,-512,,,
0,program_change,0,0,0,6,10,,,,
0,pitchwheel,0,0,0,,10,-464,,,
0,program_change,0,0,0,6,11,,,,
0,pitchwheel,0,0,0,,11,-208,,,
0,program_change,0,0,0,6,12,,,,
0,pitchwheel,0,0,0,,12,-553,,,
0,set_tempo,0,1,0,,,,500000,,
113,note_on,113,0,0,,11,,,82,127
337,note_off,224,0,0,,11,,,82,127
339,note_on,2,0,0,,11,,,82,127
563,note_off,224,0,0,,11,,,82,127
565,note_on,2,0,0,,11,,,82,127
789,note_off,224,0,0,,11,,,82,127
791,note_on,2,0,0,,7,,,79,127
1015,note_off,224,0,0,,7,,,79,127
1017,note_on,2,0,0,,7,,,79,127
1241,note_off,224,0,0,,7,,,79,127
1243,note_on,2,0,0,,3,,,75,127
1467,note_off,224,0,0,,3,,,75,127
1469,note_on,2,0,0,,0,,,72,127
1693,note_off,224,0,0,,0,,,72,127
1695,note_on,2,0,0,,0,,,72,127
1919,note_off,224,0,0,,0,,,72,127
1921,note_on,2,0,0,,10,,,69,127
2145,note_off,224,0,0,,10,,,69,127
2147,note_on,2,0,0,,5,,,65,127
2258,note_off,111,0,0,,5,,,65,127
2260,note_on,2,0,0,,7,,,67,127
2371,note_off,111,0,0,,7,,,67,127
2373,note_on,2,0,0,,10,,,69,127
2484,note_off,111,0,0,,10,,,69,127
2486,note_on,2,0,0,,11,,,70,127
2597,note_off,111,0,0,,11,,,70,127
2599,note_on,2,0,0,,0,,,72,127
2710,note_off,111,0,0,,0,,,72,127
2712,note_on,2,0,0,,2,,,74,127
2823,note_off,111,0,0,,2,,,74,127
2825,note_on,2,0,0,,5,,,77,127
2936,note_off,111,0,0,,5,,,77,127
2938,note_on,2,0,0,,3,,,75,127
3049,note_off,111,0,0,,3,,,75,127
3051,note_on,2,0,0,,2,,,74,127
3275,note_off,224,0,0,,2,,,74,127
3277,note_on,2,0,0,,0,,,72,127
3501,note_off,224,0,0,,0,,,72,127
3503,note_on,2,0,0,,11,,,70,127
3503,note_on,0,0,0,,2,,,74,127
3727,note_off,224,0,0,,11,,,70,127
3729,note_on,2,0,0,,11,,,70,127
3953,note_off,224,0,0,,11,,,70,127
3955,note_on,2,0,0,,11,,,70,127
4179,note_off,224,0,0,,11,,,70,127
4181,note_on,2,0,0,,7,,,67,127
4405,note_off,224,0,0,,7,,,67,127
4405,note_off,0,0,0,,2,,,74,127
4407,note_on,2,0,0,,7,,,67,127
4407,note_on,0,0,0,,11,,,70,127
4631,note_off,224,0,0,,11,,,70,127
4631,note_off,0,0,0,,7,,,67,127
4633,note_on,2,0,0,,3,,,63,127
4633,note_on,0,0,0,,7,,,79,127
4857,note_off,224,0,0,,3,,,63,127
4859,note_on,2,0,0,,0,,,60,127
5083,note_off,224,0,0,,0,,,60,127
5083,note_off,0,0,0,,7,,,79,127
5085,note_on,2,0,0,,0,,,60,127
5085,note_on,0,0,0,,3,,,75,127
5309,note_off,224,0,0,,3,,,75,127
5309,note_off,0,0,0,,0,,,60,127
5311,note_on,2,0,0,,10,,,57,127
5311,note_on,0,0,0,,0,,,72,127
5535,note_off,224,0,0,,0,,,72,127
5535,note_off,0,0,0,,10,,,57,127
5537,note_on,2,0,0,,5,,,53,127
5537,note_on,0,0,0,,11,,,70,127
5648,note_off,111,0,0,,5,,,53,127
5650,note_on,2,0,0,,7,,,55,127
5761,note_off,111,0,0,,7,,,55,127
5761,note_off,0,0,0,,11,,,70,127
5763,note_on,2,0,0,,10,,,57,127
5763,note_on,0,0,0,,10,,,69,127
5874,note_off,111,0,0,,10,,,57,127
5876,note_on,2,0,0,,11,,,58,127
5987,note_off,111,0,0,,11,,,58,127
5989,note_on,2,0,0,,0,,,60,127
6100,note_off,111,0,0,,0,,,60,127
6102,note_on,2,0,0,,2,,,62,127
6213,note_off,111,0,0,,2,,,62,127
6213,note_off,0,0,0,,10,,,69,127
6215,note_on,2,0,0,,3,,,63,127
6215,note_on,0,0,0,,0,,,72,127
6439,note_off,224,0,0,,0,,,72,127
6439,note_off,0,0,0,,3,,,63,127
6441,note_on,2,0,0,,2,,,62,127
6441,note_on,0,0,0,,11,,,70,127
6665,note_off,224,0,0,,11,,,70,127
6665,note_off,0,0,0,,2,,,62,127
6667,note_on,2,0,0,,0,,,60,127
6667,note_on,0,0,0,,10,,,69,127
6891,note_off,224,0,0,,10,,,69,127
6891,note_off,0,0,0,,0,,,60,127
6893,note_on,2,0,0,,2,,,62,127
6893,note_on,0,0,0,,11,,,70,127
7117,note_off,224,0,0,,11,,,70,127
7117,note_off,0,0,0,,2,,,62,127
7119,note_on,2,0,0,,0,,,60,127
7119,note_on,0,0,0,,0,,,72,127
7343,note_off,224,0,0,,0,,,72,127
7343,note_off,0,0,0,,0,,,60,127
7345,note_on,2,0,0,,11,,,58,127
7345,note_on,0,0,0,,2,,,74,127
7569,note_off,224,0,0,,2,,,74,127
7569,note_off,0,0,0,,11,,,58,127
7571,note_on,2,0,0,,0,,,60,127
7571,note_on,0,0,0,,5,,,77,127
7682,note_off,111,0,0,,5,,,77,127
7684,note_on,2,0,0,,3,,,75,127
7795,note_off,111,0,0,,3,,,75,127
7795,note_off,0,0,0,,0,,,60,127
7797,note_on,2,0,0,,11,,,58,127
7797,note_on,0,0,0,,2,,,74,127
7908,note_off,111,0,0,,2,,,74,127
7910,note_on,2,0,0,,3,,,75,127
8021,note_off,111,0,0,,3,,,75,127
8021,note_off,0,0,0,,11,,,58,127
8023,note_on,2,0,0,,10,,,57,127
8023,note_on,0,0,0,,5,,,77,127
8134,note_off,111,0,0,,5,,,77,127
8136,note_on,2,0,0,,3,,,75,127
8247,note_off,111,0,0,,3,,,75,127
8247,note_off,0,0,0,,10,,,57,127
8249,note_on,2,0,0,,11,,,58,127
8249,note_on,0,0,0,,2,,,74,127
8473,note_off,224,0,0,,2,,,74,127
8473,note_off,0,0,0,,11,,,58,127
8475,note_on,2,0,0,,0,,,60,127
8475,note_on,0,0,0,,0,,,72,127
8699,note_off,224,0,0,,0,,,72,127
8699,note_off,0,0,0,,0,,,60,127
8701,note_on,2,0,0,,2,,,62,127
8701,note_on,0,0,0,,11,,,70,127
8925,note_off,224,0,0,,11,,,70,127
8925,note_off,0,0,0,,2,,,62,127
8927,note_on,2,0,0,,3,,,63,127
8927,note_on,0,0,0,,11,,,70,127
9151,note_off,224,0,0,,3,,,63,127
9153,note_on,2,0,0,,2,,,62,127
9264,note_off,111,0,0,,2,,,62,127
9266,note_on,2,0,0,,3,,,63,127
9377,note_off,111,0,0,,3,,,63,127
9377,note_off,0,0,0,,11,,,70,127
9379,note_on,2,0,0,,5,,,65,127
9379,note_on,0,0,0,,10,,,69,127
9490,note_off,111,0,0,,5,,,65,127
9492,note_on,2,0,0,,3,,,63,127
9603,note_off,111,0,0,,3,,,63,127
9603,note_off,0,0,0,,10,,,69,127
9605,note_on,2,0,0,,2,,,62,127
9605,note_on,0,0,0,,11,,,70,127
9829,note_off,224,0,0,,11,,,70,127
9829,note_off,0,0,0,,2,,,62,127
9831,note_on,2,0,0,,0,,,60,127
9831,note_on,0,0,0,,0,,,72,127
10055,note_off,224,0,0,,0,,,72,127
10055,note_off,0,0,0,,0,,,60,127
10057,note_on,2,0,0,,11,,,58,127
10057,note_on,0,0,0,,2,,,74,127
10281,note_off,224,0,0,,2,,,74,127
10281,note_off,0,0,0,,11,,,58,127
10283,note_on,2,0,0,,0,,,60,127
10283,note_on,0,0,0,,5,,,77,127
10394,note_off,111,0,0,,5,,,77,127
10396,note_on,2,0,0,,3,,,75,127
10507,note_off,111,0,0,,3,,,75,127
10507,note_off,0,0,0,,0,,,60,127
10509,note_on,2,0,0,,11,,,58,127
10509,note_on,0,0,0,,2,,,74,127
10620,note_off,111,0,0,,2,,,74,127
10622,note_on,2,0,0,,3,,,75,127
10733,note_off,111,0,0,,3,,,75,127
10733,note_off,0,0,0,,11,,,58,127
10735,note_on,2,0,0,,10,,,57,127
10735,note_on,0,0,0,,5,,,77,127
10846,note_off,111,0,0,,5,,,77,127
10848,note_on,2,0,0,,3,,,75,127
10959,note_off,111,0,0,,3,,,75,127
10959,note_off,0,0,0,,10,,,57,127
10961,note_on,2,0,0,,11,,,58,127
10961,note_on,0,0,0,,3,,,75,127
11072,note_off,111,0,0,,3,,,75,127
11074,note_on,2,0,0,,2,,,74,127
11185,note_off,111,0,0,,2,,,74,127
11187,note_on,2,0,0,,3,,,75,127
11298,note_off,111,0,0,,3,,,75,127
11300,note_on,2,0,0,,2,,,74,127
11411,note_off,111,0,0,,2,,,74,127
11411,note_off,0,0,0,,11,,,58,127
11413,note_on,2,0,0,,11,,,46,127
11413,note_on,0,0,0,,0,,,72,127
11524,note_off,111,0,0,,0,,,72,127
11526,note_on,2,0,0,,11,,,70,127
11637,note_off,111,0,0,,11,,,70,127
11637,note_off,0,0,0,,11,,,46,127
11639,note_on,2,0,0,,8,,,68,127
11750,note_off,111,0,0,,8,,,68,127
11752,note_on,2,0,0,,7,,,67,127
11863,note_off,111,0,0,,7,,,67,127
11865,note_on,2,0,0,,5,,,65,127
11865,note_on,0,0,0,,8,,,80,127
11976,note_off,111,0,0,,5,,,65,127
11978,note_on,2,0,0,,3,,,63,127
12089,note_off,111,0,0,,3,,,63,127
12089,note_off,0,0,0,,8,,,80,127
12091,note_on,2,0,0,,2,,,62,127
12091,note_on,0,0,0,,8,,,80,127
12202,note_off,111,0,0,,2,,,62,127
12204,note_on,2,0,0,,0,,,60,127
12315,note_off,111,0,0,,0,,,60,127
12315,note_off,0,0,0,,8,,,80,127
12317,note_on,2,0,0,,11,,,58,127
12317,note_on,0,0,0,,8,,,80,127
12428,note_off,111,0,0,,8,,,80,127
12430,note_on,2,0,0,,7,,,79,127
12541,note_off,111,0,0,,7,,,79,127
12541,note_off,0,0,0,,11,,,58,127
12543,note_on,2,0,0,,11,,,70,127
12543,note_on,0,0,0,,5,,,77,127
12654,note_off,111,0,0,,5,,,77,127
12656,note_on,2,0,0,,3,,,75,127
12767,note_off,111,0,0,,3,,,75,127
12767,note_off,0,0,0,,11,,,70,127
12769,note_on,2,0,0,,11,,,70,127
12769,note_on,0,0,0,,2,,,74,127
12880,note_off,111,0,0,,2,,,74,127
12882,note_on,2,0,0,,0,,,72,127
12993,note_off,111,0,0,,0,,,72,127
12993,note_off,0,0,0,,11,,,70,127
12995,note_on,2,0,0,,11,,,70,127
12995,note_on,0,0,0,,2,,,74,127
13106,note_off,111,0,0,,11,,,70,127
13108,note_on,2,0,0,,8,,,68,127
13219,note_off,111,0,0,,8,,,68,127
13219,note_off,0,0,0,,2,,,74,127
13221,note_on,2,0,0,,7,,,67,127
13221,note_on,0,0,0,,11,,,82,127
13332,note_off,111,0,0,,7,,,67,127
13334,note_on,2,0,0,,5,,,65,127
13445,note_off,111,0,0,,5,,,65,127
13445,note_off,0,0,0,,11,,,82,127
13447,note_on,2,0,0,,4,,,64,127
13447,note_on,0,0,0,,11,,,82,127
13558,note_off,111,0,0,,4,,,64,127
13560,note_on,2,0,0,,2,,,62,127
13671,note_off,111,0,0,,2,,,62,127
13671,note_off,0,0,0,,11,,,82,127
13673,note_on,2,0,0,,0,,,60,127
13673,note_on,0,0,0,,11,,,82,127
13784,note_off,111,0,0,,11,,,82,127
13786,note_on,2,0,0,,8,,,80,127
13897,note_off,111,0,0,,8,,,80,127
13897,note_off,0,0,0,,0,,,60,127
13899,note_on,2,0,0,,0,,,72,127
13899,note_on,0,0,0,,7,,,79,127
14010,note_off,111,0,0,,7,,,79,127
14012,note_on,2,0,0,,5,,,77,127
14123,note_off,111,0,0,,5,,,77,127
14123,note_off,0,0,0,,0,,,72,127
14125,note_on,2,0,0,,0,,,72,127
14125,note_on,0,0,0,,4,,,76,127
14236,note_off,111,0,0,,4,,,76,127
14238,note_on,2,0,0,,2,,,74,127
14349,note_off,111,0,0,,2,,,74,127
14349,note_off,0,0,0,,0,,,72,127
14351,note_on,2,0,0,,0,,,72,127
14351,note_on,0,0,0,,4,,,76,127
14462,note_off,111,0,0,,0,,,72,127
14464,note_on,2,0,0,,12,,,71,127
14575,note_off,111,0,0,,12,,,71,127
14575,note_off,0,0,0,,4,,,76,127
14577,note_on,2,0,0,,10,,,69,127
14577,note_on,0,0,0,,0,,,84,127
14688,note_off,111,0,0,,10,,,69,127
14690,note_on,2,0,0,,7,,,67,127
14801,note_off,111,0,0,,7,,,67,127
14801,note_off,0,0,0,,0,,,84,127
14803,note_on,2,0,0,,6,,,66,127
14803,note_on,0,0,0,,0,,,84,127
14914,note_off,111,0,0,,6,,,66,127
14916,note_on,2,0,0,,4,,,64,127
15027,note_off,111,0,0,,4,,,64,127
15027,note_off,0,0,0,,0,,,84,127
15029,note_on,2,0,0,,2,,,62,127
15029,note_on,0,0,0,,0,,,84,127
15140,note_off,111,0,0,,0,,,84,127
15142,note_on,2,0,0,,11,,,82,127
15253,note_off,111,0,0,,11,,,82,127
15253,note_off,0,0,0,,2,,,62,127
15255,note_on,2,0,0,,2,,,62,127
15255,note_on,0,0,0,,10,,,81,127
15366,note_off,111,0,0,,10,,,81,127
15368,note_on,2,0,0,,7,,,79,127
15479,note_off,111,0,0,,7,,,79,127
15479,note_off,0,0,0,,2,,,62,127
15481,note_on,2,0,0,,2,,,62,127
15481,note_on,0,0,0,,6,,,78,127
15592,note_off,111,0,0,,6,,,78,127
15594,note_on,2,0,0,,4,,,76,127
15705,note_off,111,0,0,,4,,,76,127
15705,note_off,0,0,0,,2,,,62,127
15707,note_on,2,0,0,,2,,,62,127
15707,note_on,0,0,0,,2,,,74,127
15818,note_off,111,0,0,,2,,,74,127
15820,note_on,2,0,0,,3,,,75,127
15931,note_off,111,0,0,,2,,,62,127
15933,note_on,2,0,0,,0,,,72,127
16044,note_off,111,0,0,,3,,,75,127
16046,note_on,2,0,0,,2,,,74,127
16157,note_off,111,0,0,,0,,,72,127
16159,note_on,2,0,0,,11,,,70,127
16270,note_off,111,0,0,,2,,,74,127
16272,note_on,2,0,0,,7,,,79,127
16383,note_off,111,0,0,,11,,,70,127
16385,note_on,2,0,0,,10,,,69,127
16496,note_off,111,0,0,,7,,,79,127
16498,note_on,2,0,0,,6,,,78,127
16609,note_off,111,0,0,,10,,,69,127
16611,note_on,2,0,0,,7,,,67,127
16722,note_off,111,0,0,,6,,,78,127
16724,note_on,2,0,0,,7,,,79,127
16835,note_off,111,0,0,,7,,,67,127
16837,note_on,2,0,0,,6,,,66,127
16948,note_off,111,0,0,,7,,,79,127
16950,note_on,2,0,0,,10,,,81,127
17061,note_off,111,0,0,,10,,,81,127
17061,note_off,0,0,0,,6,,,66,127
17063,note_on,2,0,0,,7,,,67,127
17063,note_on,0,0,0,,0,,,84,127
17117,note_off,54,0,0,,0,,,84,127
17119,note_on,2,0,0,,11,,,82,127
17173,note_off,54,0,0,,11,,,82,127
17175,note_on,2,0,0,,0,,,84,127
17229,note_off,54,0,0,,0,,,84,127
17231,note_on,2,0,0,,11,,,82,127
17285,note_off,54,0,0,,11,,,82,127
17287,note_on,2,0,0,,0,,,84,127
17341,note_off,54,0,0,,0,,,84,127
17343,note_on,2,0,0,,11,,,82,127
17397,note_off,54,0,0,,11,,,82,127
17399,note_on,2,0,0,,10,,,81,127
17510,note_off,111,0,0,,10,,,81,127
17512,note_on,2,0,0,,7,,,55,127
17512,note_on,0,0,0,,7,,,79,127
17736,note_off,224,0,0,,7,,,79,127
17736,note_off,0,0,0,,7,,,55,127
17737,note_off,1,0,0,,7,,,67,127
17738,note_on,1,0,0,,11,,,70,127
17849,note_off,111,0,0,,11,,,70,127
17851,note_on,2,0,0,,8,,,68,127
17962,note_off,111,0,0,,8,,,68,127
17964,note_on,2,0,0,,7,,,67,127
17964,note_on,0,0,0,,11,,,82,127
18075,note_off,111,0,0,,7,,,67,127
18077,note_on,2,0,0,,5,,,65,127
18188,note_off,111,0,0,,5,,,65,127
18188,note_off,0,0,0,,11,,,82,127
18190,note_on,2,0,0,,4,,,64,127
18190,note_on,0,0,0,,11,,,82,127
18301,note_off,111,0,0,,4,,,64,127
18303,note_on,2,0,0,,2,,,62,127
18414,note_off,111,0,0,,2,,,62,127
18414,note_off,0,0,0,,11,,,82,127
18416,note_on,2,0,0,,0,,,60,127
18416,note_on,0,0,0,,11,,,82,127
18527,note_off,111,0,0,,11,,,82,127
18529,note_on,2,0,0,,8,,,80,127
18640,note_off,111,0,0,,8,,,80,127
18640,note_off,0,0,0,,0,,,60,127
18642,note_on,2,0,0,,0,,,60,127
18642,note_on,0,0,0,,7,,,79,127
18753,note_off,111,0,0,,7,,,79,127
18755,note_on,2,0,0,,5,,,77,127
18866,note_off,111,0,0,,5,,,77,127
18866,note_off,0,0,0,,0,,,60,127
18868,note_on,2,0,0,,0,,,60,127
18868,note_on,0,0,0,,4,,,76,127
18979,note_off,111,0,0,,4,,,76,127
18981,note_on,2,0,0,,2,,,74,127
19092,note_off,111,0,0,,2,,,74,127
19092,note_off,0,0,0,,0,,,60,127
19094,note_on,2,0,0,,0,,,60,127
19094,note_on,0,0,0,,0,,,72,127
19205,note_off,111,0,0,,0,,,72,127
19207,note_on,2,0,0,,1,,,73,127
19318,note_off,111,0,0,,0,,,60,127
19320,note_on,2,0,0,,11,,,70,127
19431,note_off,111,0,0,,1,,,73,127
19433,note_on,2,0,0,,0,,,72,127
19544,note_off,111,0,0,,11,,,70,127
19546,note_on,2,0,0,,8,,,68,127
19657,note_off,111,0,0,,0,,,72,127
19659,note_on,2,0,0,,5,,,77,127
19770,note_off,111,0,0,,8,,,68,127
19772,note_on,2,0,0,,7,,,67,127
19883,note_off,111,0,0,,5,,,77,127
19885,note_on,2,0,0,,4,,,76,127
19996,note_off,111,0,0,,7,,,67,127
19998,note_on,2,0,0,,5,,,65,127
20109,note_off,111,0,0,,4,,,76,127
20111,note_on,2,0,0,,5,,,77,127
20222,note_off,111,0,0,,5,,,65,127
20224,note_on,2,0,0,,4,,,64,127
20335,note_off,111,0,0,,5,,,77,127
20337,note_on,2,0,0,,7,,,79,127
20448,note_off,111,0,0,,7,,,79,127
20448,note_off,0,0,0,,4,,,64,127
20450,note_on,2,0,0,,5,,,65,127
20450,note_on,0,0,0,,11,,,82,127
20504,note_off,54,0,0,,11,,,82,127
20506,note_on,2,0,0,,8,,,80,127
20560,note_off,54,0,0,,8,,,80,127
20562,note_on,2,0,0,,11,,,82,127
20616,note_off,54,0,0,,11,,,82,127
20618,note_on,2,0,0,,8,,,80,127
20672,note_off,54,0,0,,8,,,80,127
20674,note_on,2,0,0,,11,,,82,127
20728,note_off,54,0,0,,11,,,82,127
20730,note_on,2,0,0,,8,,,80,127
20784,note_off,54,0,0,,8,,,80,127
20786,note_on,2,0,0,,7,,,79,127
20897,note_off,111,0,0,,7,,,79,127
20899,note_on,2,0,0,,5,,,53,127
20899,note_on,0,0,0,,5,,,77,127
21123,note_off,224,0,0,,5,,,77,127
21123,note_off,0,0,0,,5,,,53,127
21124,note_off,1,0,0,,5,,,65,127
21125,note_on,1,0,0,,8,,,68,127
21236,note_off,111,0,0,,8,,,68,127
21238,note_on,2,0,0,,7,,,67,127
21349,note_off,111,0,0,,7,,,67,127
21351,note_on,2,0,0,,5,,,65,127
21351,note_on,0,0,0,,8,,,80,127
21462,note_off,111,0,0,,5,,,65,127
21464,note_on,2,0,0,,3,,,63,127
21575,note_off,111,0,0,,3,,,63,127
21575,note_off,0,0,0,,8,,,80,127
21577,note_on,2,0,0,,2,,,62,127
21577,note_on,0,0,0,,8,,,80,127
21688,note_off,111,0,0,,2,,,62,127
21690,note_on,2,0,0,,0,,,60,127
21801,note_off,111,0,0,,0,,,60,127
21801,note_off,0,0,0,,8,,,80,127
21803,note_on,2,0,0,,12,,,59,127
21803,note_on,0,0,0,,8,,,80,127
21914,note_off,111,0,0,,8,,,80,127
21916,note_on,2,0,0,,7,,,79,127
22027,note_off,111,0,0,,7,,,79,127
22029,note_on,2,0,0,,5,,,77,127
22140,note_off,111,0,0,,5,,,77,127
22142,note_on,2,0,0,,3,,,75,127
22253,note_off,111,0,0,,3,,,75,127
22253,note_off,0,0,0,,12,,,59,127
22255,note_on,2,0,0,,8,,,56,127
22255,note_on,0,0,0,,2,,,74,127
22366,note_off,111,0,0,,2,,,74,127
22368,note_on,2,0,0,,0,,,72,127
22479,note_off,111,0,0,,0,,,72,127
22479,note_off,0,0,0,,8,,,56,127
22481,note_on,2,0,0,,7,,,55,127
22481,note_on,0,0,0,,12,,,71,127
22592,note_off,111,0,0,,12,,,71,127
22594,note_on,2,0,0,,0,,,72,127
22705,note_off,111,0,0,,0,,,72,127
22707,note_on,2,0,0,,2,,,74,127
22818,note_off,111,0,0,,2,,,74,127
22820,note_on,2,0,0,,4,,,76,127
22931,note_off,111,0,0,,4,,,76,127
22931,note_off,0,0,0,,7,,,55,127
22933,note_on,2,0,0,,12,,,59,127
22933,note_on,0,0,0,,5,,,77,127
23044,note_off,111,0,0,,5,,,77,127
23046,note_on,2,0,0,,7,,,79,127
23157,note_off,111,0,0,,7,,,79,127
23157,note_off,0,0,0,,12,,,59,127
23159,note_on,2,0,0,,0,,,60,127
23159,note_on,0,0,0,,4,,,76,127
23383,note_off,224,0,0,,4,,,76,127
23383,note_off,0,0,0,,0,,,60,127
23385,note_on,2,0,0,,0,,,60,127
23385,note_on,0,0,0,,7,,,79,127
23458,note_off,73,0,0,,7,,,79,127
23460,note_on,2,0,0,,11,,,70,127
23533,note_off,73,0,0,,11,,,70,127
23535,note_on,2,0,0,,7,,,67,127
23608,note_off,73,0,0,,7,,,67,127
23608,note_off,0,0,0,,0,,,60,127
23610,note_on,2,0,0,,5,,,65,127
23610,note_on,0,0,0,,0,,,60,127
23610,note_on,0,0,0,,10,,,69,127
23834,note_off,224,0,0,,10,,,69,127
23834,note_off,0,0,0,,0,,,60,127
23834,note_off,0,0,0,,5,,,65,127
23836,note_on,2,0,0,,10,,,69,127
23836,note_on,0,0,0,,0,,,60,127
23836,note_on,0,0,0,,10,,,81,127
23909,note_off,73,0,0,,10,,,81,127
23911,note_on,2,0,0,,0,,,72,127
23977,note_off,66,0,0,,10,,,69,127
23984,note_off,7,0,0,,0,,,72,127
23986,note_on,2,0,0,,10,,,69,127
24059,note_off,73,0,0,,10,,,69,127
24059,note_off,0,0,0,,0,,,60,127
24061,note_on,2,0,0,,0,,,60,127
24061,note_on,0,0,0,,7,,,67,127
24061,note_on,0,0,0,,11,,,70,127
24285,note_off,224,0,0,,11,,,70,127
24285,note_off,0,0,0,,7,,,67,127
24285,note_off,0,0,0,,0,,,60,127
24287,note_on,2,0,0,,0,,,60,127
24287,note_on,0,0,0,,4,,,64,127
24287,note_on,0,0,0,,7,,,79,127
24360,note_off,73,0,0,,7,,,79,127
24362,note_on,2,0,0,,11,,,70,127
24435,note_off,73,0,0,,11,,,70,127
24437,note_on,2,0,0,,7,,,67,127
24510,note_off,73,0,0,,7,,,67,127
24510,note_off,0,0,0,,4,,,64,127
24510,note_off,0,0,0,,0,,,60,127
24512,note_on,2,0,0,,5,,,53,127
24512,note_on,0,0,0,,5,,,65,127
24512,note_on,0,0,0,,10,,,69,127
24623,note_off,111,0,0,,10,,,69,127
24625,note_on,2,0,0,,0,,,84,127
24736,note_off,111,0,0,,0,,,84,127
24736,note_off,0,0,0,,5,,,65,127
24736,note_off,0,0,0,,5,,,53,127
24738,note_on,2,0,0,,7,,,55,127
24738,note_on,0,0,0,,0,,,84,127
24849,note_off,111,0,0,,0,,,84,127
24851,note_on,2,0,0,,10,,,81,127
24962,note_off,111,0,0,,10,,,81,127
24962,note_off,0,0,0,,7,,,55,127
24964,note_on,2,0,0,,10,,,57,127
24964,note_on,0,0,0,,10,,,81,127
25075,note_off,111,0,0,,10,,,81,127
25077,note_on,2,0,0,,5,,,77,127
25188,note_off,111,0,0,,5,,,77,127
25188,note_off,0,0,0,,10,,,57,127
25190,note_on,2,0,0,,11,,,58,127
25190,note_on,0,0,0,,5,,,77,127
25301,note_off,111,0,0,,5,,,77,127
25303,note_on,2,0,0,,2,,,74,127
25414,note_off,111,0,0,,2,,,74,127
25414,note_off,0,0,0,,11,,,58,127
25416,note_on,2,0,0,,0,,,60,127
25416,note_on,0,0,0,,2,,,74,127
25527,note_off,111,0,0,,2,,,74,127
25529,note_on,2,0,0,,0,,,72,127
25640,note_off,111,0,0,,0,,,72,127
25640,note_off,0,0,0,,0,,,60,127
25642,note_on,2,0,0,,0,,,48,127
25642,note_on,0,0,0,,0,,,72,127
25753,note_off,111,0,0,,0,,,72,127
25755,note_on,2,0,0,,11,,,70,127
25866,note_off,111,0,0,,11,,,70,127
25866,note_off,0,0,0,,0,,,48,127
25868,note_on,2,0,0,,0,,,60,127
25868,note_on,0,0,0,,5,,,65,127
25868,note_on,0,0,0,,10,,,69,127
26092,note_off,224,0,0,,10,,,69,127
26092,note_off,0,0,0,,5,,,65,127
26092,note_off,0,0,0,,0,,,60,127
26094,note_on,2,0,0,,0,,,60,127
26094,note_on,0,0,0,,10,,,81,127
26167,note_off,73,0,0,,10,,,81,127
26169,note_on,2,0,0,,0,,,72,127
26242,note_off,73,0,0,,0,,,72,127
26244,note_on,2,0,0,,10,,,69,127
26317,note_off,73,0,0,,10,,,69,127
26317,note_off,0,0,0,,0,,,60,127
26319,note_on,2,0,0,,7,,,67,127
26319,note_on,0,0,0,,0,,,60,127
26319,note_on,0,0,0,,11,,,70,127
26543,note_off,224,0,0,,11,,,70,127
26543,note_off,0,0,0,,0,,,60,127
26543,note_off,0,0,0,,7,,,67,127
26545,note_on,2,0,0,,4,,,64,127
26545,note_on,0,0,0,,0,,,60,127
26545,note_on,0,0,0,,7,,,79,127
26618,note_off,73,0,0,,7,,,79,127
26620,note_on,2,0,0,,11,,,70,127
26693,note_off,73,0,0,,11,,,70,127
26695,note_on,2,0,0,,7,,,67,127
26768,note_off,73,0,0,,7,,,67,127
26768,note_off,0,0,0,,0,,,60,127
26768,note_off,0,0,0,,4,,,64,127
26770,note_on,2,0,0,,5,,,65,127
26770,note_on,0,0,0,,0,,,60,127
26770,note_on,0,0,0,,10,,,69,127
26994,note_off,224,0,0,,10,,,69,127
26994,note_off,0,0,0,,0,,,60,127
26994,note_off,0,0,0,,5,,,65,127
26996,note_on,2,0,0,,10,,,69,127
26996,note_on,0,0,0,,0,,,60,127
26996,note_on,0,0,0,,10,,,81,127
27069,note_off,73,0,0,,10,,,81,127
27071,note_on,2,0,0,,0,,,72,127
27137,note_off,66,0,0,,10,,,69,127
27144,note_off,7,0,0,,0,,,72,127
27146,note_on,2,0,0,,10,,,69,127
27219,note_off,73,0,0,,10,,,69,127
27219,note_off,0,0,0,,0,,,60,127
27221,note_on,2,0,0,,7,,,67,127
27221,note_on,0,0,0,,0,,,60,127
27221,note_on,0,0,0,,11,,,70,127
27445,note_off,224,0,0,,11,,,70,127
27445,note_off,0,0,0,,0,,,60,127
27445,note_off,0,0,0,,7,,,67,127
27447,note_on,2,0,0,,0,,,60,127
27447,note_on,0,0,0,,4,,,64,127
27447,note_on,0,0,0,,7,,,79,127
27520,note_off,73,0,0,,7,,,79,127
27522,note_on,2,0,0,,11,,,70,127
27595,note_off,73,0,0,,11,,,70,127
27597,note_on,2,0,0,,7,,,67,127
27670,note_off,73,0,0,,7,,,67,127
27670,note_off,0,0,0,,4,,,64,127
27670,note_off,0,0,0,,0,,,60,127
27672,note_on,2,0,0,,5,,,65,127
27672,note_on,0,0,0,,0,,,60,127
27672,note_on,0,0,0,,10,,,69,127
27896,note_off,224,0,0,,10,,,69,127
27896,note_off,0,0,0,,0,,,60,127
27896,note_off,0,0,0,,5,,,65,127
27898,note_on,2,0,0,,5,,,65,127
27898,note_on,0,0,0,,0,,,60,127
27898,note_on,0,0,0,,10,,,81,127
27971,note_off,73,0,0,,10,,,81,127
27973,note_on,2,0,0,,0,,,72,127
28046,note_off,73,0,0,,0,,,72,127
28048,note_on,2,0,0,,10,,,69,127
28121,note_off,73,0,0,,10,,,69,127
28121,note_off,0,0,0,,0,,,60,127
28121,note_off,0,0,0,,5,,,65,127
28123,note_on,2,0,0,,0,,,60,127
28123,note_on,0,0,0,,7,,,67,127
28123,note_on,0,0,0,,11,,,70,127
28347,note_off,224,0,0,,11,,,70,127
28347,note_off,0,0,0,,7,,,67,127
28347,note_off,0,0,0,,0,,,60,127
28349,note_on,2,0,0,,4,,,64,127
28349,note_on,0,0,0,,0,,,60,127
28349,note_on,0,0,0,,7,,,79,127
28422,note_off,73,0,0,,7,,,79,127
28424,note_on,2,0,0,,11,,,70,127
28497,note_off,73,0,0,,11,,,70,127
28499,note_on,2,0,0,,7,,,67,127
28572,note_off,73,0,0,,7,,,67,127
28572,note_off,0,0,0,,0,,,60,127
28572,note_off,0,0,0,,4,,,64,127
28574,note_on,2,0,0,,5,,,65,127
28574,note_on,0,0,0,,5,,,53,127
28574,note_on,0,0,0,,10,,,69,127
28685,note_off,111,0,0,,10,,,69,127
28687,note_on,2,0,0,,0,,,84,127
28798,note_off,111,0,0,,0,,,84,127
28798,note_off,0,0,0,,5,,,53,127
28798,note_off,0,0,0,,5,,,65,127
28800,note_on,2,0,0,,7,,,55,127
28800,note_on,0,0,0,,0,,,84,127
28911,note_off,111,0,0,,0,,,84,127
28913,note_on,2,0,0,,10,,,81,127
29024,note_off,111,0,0,,10,,,81,127
29024,note_off,0,0,0,,7,,,55,127
29026,note_on,2,0,0,,10,,,57,127
29026,note_on,0,0,0,,10,,,81,127
29137,note_off,111,0,0,,10,,,81,127
29139,note_on,2,0,0,,5,,,77,127
29250,note_off,111,0,0,,5,,,77,127
29250,note_off,0,0,0,,10,,,57,127
29252,note_on,2,0,0,,11,,,58,127
29252,note_on,0,0,0,,5,,,77,127
29363,note_off,111,0,0,,5,,,77,127
29365,note_on,2,0,0,,2,,,74,127
29476,note_off,111,0,0,,2,,,74,127
29476,note_off,0,0,0,,11,,,58,127
29478,note_on,2,0,0,,0,,,60,127
29478,note_on,0,0,0,,2,,,74,127
29589,note_off,111,0,0,,2,,,74,127
29591,note_on,2,0,0,,0,,,72,127
29702,note_off,111,0,0,,0,,,72,127
29704,note_on,2,0,0,,0,,,48,127
29704,note_on,0,0,0,,0,,,72,127
29815,note_off,111,0,0,,0,,,72,127
29817,note_off,2,0,0,,0,,,60,127
29817,note_on,0,0,0,,11,,,70,127
29928,note_off,111,0,0,,11,,,70,127
29928,note_off,0,0,0,,0,,,48,127
29930,note_on,2,0,0,,5,,,41,127
29930,note_on,0,0,0,,11,,,70,127
30041,note_off,111,0,0,,11,,,70,127
30043,note_on,2,0,0,,10,,,69,127
30154,note_off,111,0,0,,10,,,69,127
30154,note_off,0,0,0,,5,,,41,127
30156,note_on,2,0,0,,7,,,43,127
30156,note_on,0,0,0,,10,,,69,127
30267,note_off,111,0,0,,10,,,69,127
30269,note_on,2,0,0,,7,,,67,127
30380,note_off,111,0,0,,7,,,67,127
30380,note_off,0,0,0,,7,,,43,127
30382,note_on,2,0,0,,10,,,45,127
30382,note_on,0,0,0,,7,,,67,127
30493,note_off,111,0,0,,7,,,67,127
30495,note_on,2,0,0,,5,,,65,127
30606,note_off,111,0,0,,5,,,65,127
30606,note_off,0,0,0,,10,,,45,127
30608,note_on,2,0,0,,11,,,46,127
30608,note_on,0,0,0,,7,,,67,127
30719,note_off,111,0,0,,7,,,67,127
30721,note_on,2,0,0,,11,,,70,127
30832,note_off,111,0,0,,11,,,70,127
30832,note_off,0,0,0,,11,,,46,127
30834,note_on,2,0,0,,0,,,48,127
30834,note_on,0,0,0,,10,,,69,127
30945,note_off,111,0,0,,10,,,69,127
30947,note_on,2,0,0,,7,,,67,127
31058,note_off,111,0,0,,7,,,67,127
31060,note_on,2,0,0,,0,,,36,127
31060,note_on,0,0,0,,5,,,65,127
31171,note_off,111,0,0,,5,,,65,127
31173,note_on,2,0,0,,4,,,64,127
31281,note_off,108,0,0,,0,,,48,127
31283,note_off,2,0,0,,4,,,64,127
31283,note_off,0,0,0,,0,,,36,127
31295,note_on,12,0,0,,5,,,53,127
31295,note_on,0,0,0,,5,,,65,127
31624,note_off,329,0,0,,5,,,65,127
31650,note_on,26,0,0,,0,,,72,127
31650,note_on,0,0,0,,10,,,69,127
31650,note_on,0,0,0,,5,,,65,127
31744,note_off,94,0,0,,5,,,53,127
31816,note_off,72,0,0,,5,,,65,127
31816,note_off,0,0,0,,10,,,69,127
31816,note_off,0,0,0,,0,,,72,127
31820,note_on,4,0,0,,0,,,72,127
31820,note_on,0,0,0,,10,,,69,127
31820,note_on,0,0,0,,5,,,65,127
32071,note_off,251,0,0,,0,,,72,127
32073,note_on,2,0,0,,11,,,70,127
32155,note_off,82,0,0,,11,,,70,127
32155,note_off,0,0,0,,5,,,65,127
32155,note_off,0,0,0,,10,,,69,127
32156,note_on,1,0,0,,0,,,72,127
32156,note_on,0,0,0,,10,,,69,127
32156,note_on,0,0,0,,5,,,65,127
32322,note_off,166,0,0,,5,,,65,127
32322,note_off,0,0,0,,10,,,69,127
32322,note_off,0,0,0,,0,,,72,127
32326,note_on,4,0,0,,2,,,74,127
32326,note_on,0,0,0,,5,,,65,127
32326,note_on,0,0,0,,11,,,70,127
32577,note_off,251,0,0,,2,,,74,127
32578,note_on,1,0,0,,0,,,72,127
32660,note_off,82,0,0,,0,,,72,127
32661,note_off,1,0,0,,11,,,70,127
32661,note_off,0,0,0,,5,,,65,127
32662,note_on,1,0,0,,2,,,74,127
32662,note_on,0,0,0,,5,,,65,127
32662,note_on,0,0,0,,11,,,70,127
32828,note_off,166,0,0,,11,,,70,127
32828,note_off,0,0,0,,5,,,65,127
32828,note_off,0,0,0,,2,,,74,127
32830,note_on,2,0,0,,4,,,76,127
32830,note_on,0,0,0,,7,,,67,127
32830,note_on,0,0,0,,5,,,65,127
33081,note_off,251,0,0,,4,,,76,127
33083,note_on,2,0,0,,2,,,74,127
33165,note_off,82,0,0,,2,,,74,127
33165,note_off,0,0,0,,5,,,65,127
33165,note_off,0,0,0,,7,,,67,127
33167,note_on,2,0,0,,4,,,76,127
33167,note_on,0,0,0,,5,,,65,127
33167,note_on,0,0,0,,7,,,67,127
33333,note_off,166,0,0,,7,,,67,127
33333,note_off,0,0,0,,5,,,65,127
33333,note_off,0,0,0,,4,,,76,127
33335,note_on,2,0,0,,5,,,77,127
33335,note_on,0,0,0,,5,,,65,127
33335,note_on,0,0,0,,10,,,69,127
33670,note_off,335,0,0,,10,,,69,127
33670,note_off,0,0,0,,5,,,65,127
33670,note_off,0,0,0,,5,,,77,127
33672,note_on,2,0,0,,0,,,72,127
33672,note_on,0,0,0,,5,,,65,127
33672,note_on,0,0,0,,10,,,69,127
33838,note_off,166,0,0,,10,,,69,127
33838,note_off,0,0,0,,5,,,65,127
33838,note_off,0,0,0,,0,,,72,127
33840,note_on,2,0,0,,5,,,77,127
33840,note_on,0,0,0,,10,,,69,127
33840,note_on,0,0,0,,5,,,65,127
34175,note_off,335,0,0,,5,,,65,127
34175,note_off,0,0,0,,10,,,69,127
34175,note_off,0,0,0,,5,,,77,127
34177,note_on,2,0,0,,0,,,72,127
34177,note_on,0,0,0,,5,,,65,127
34177,note_on,0,0,0,,10,,,69,127
34343,note_off,166,0,0,,10,,,69,127
34343,note_off,0,0,0,,5,,,65,127
34343,note_off,0,0,0,,0,,,72,127
34345,note_on,2,0,0,,2,,,74,127
34345,note_on,0,0,0,,5,,,65,127
34345,note_on,0,0,0,,11,,,70,127
34596,note_off,251,0,0,,2,,,74,127
34598,note_on,2,0,0,,0,,,72,127
34680,note_off,82,0,0,,0,,,72,127
34680,note_off,0,0,0,,11,,,70,127
34680,note_off,0,0,0,,5,,,65,127
34682,note_on,2,0,0,,2,,,74,127
34682,note_on,0,0,0,,11,,,70,127
34682,note_on,0,0,0,,5,,,65,127
34848,note_off,166,0,0,,5,,,65,127
34848,note_off,0,0,0,,11,,,70,127
34848,note_off,0,0,0,,2,,,74,127
34850,note_on,2,0,0,,4,,,76,127
34850,note_on,0,0,0,,7,,,67,127
34850,note_on,0,0,0,,5,,,65,127
35101,note_off,251,0,0,,4,,,76,127
35103,note_on,2,0,0,,2,,,74,127
35185,note_off,82,0,0,,2,,,74,127
35185,note_off,0,0,0,,5,,,65,127
35185,note_off,0,0,0,,7,,,67,127
35186,note_on,1,0,0,,4,,,76,127
35186,note_on,0,0,0,,5,,,65,127
35186,note_on,0,0,0,,7,,,67,127
35352,note_off,166,0,0,,7,,,67,127
35352,note_off,0,0,0,,5,,,65,127
35352,note_off,0,0,0,,4,,,76,127
35356,note_on,4,0,0,,5,,,77,127
35356,note_on,0,0,0,,10,,,69,127
35356,note_on,0,0,0,,5,,,65,127
35691,note_off,335,0,0,,5,,,65,127
35691,note_off,0,0,0,,10,,,69,127
35691,note_off,0,0,0,,5,,,77,127
35692,note_on,1,0,0,,0,,,72,127
35692,note_on,0,0,0,,10,,,69,127
35692,note_on,0,0,0,,5,,,65,127
35858,note_off,166,0,0,,5,,,65,127
35858,note_off,0,0,0,,10,,,69,127
35858,note_off,0,0,0,,0,,,72,127
35862,note_on,4,0,0,,5,,,77,127
35862,note_on,0,0,0,,5,,,65,127
35862,note_on,0,0,0,,10,,,69,127
36197,note_off,335,0,0,,10,,,69,127
36197,note_off,0,0,0,,5,,,65,127
36197,note_off,0,0,0,,5,,,77,127
36198,note_on,1,0,0,,7,,,79,127
36198,note_on,0,0,0,,5,,,65,127
36198,note_on,0,0,0,,10,,,69,127
36364,note_off,166,0,0,,10,,,69,127
36364,note_off,0,0,0,,5,,,65,127
36364,note_off,0,0,0,,7,,,79,127
36366,note_on,2,0,0,,10,,,81,127
36366,note_on,0,0,0,,5,,,65,127
36617,note_off,251,0,0,,5,,,65,127
36617,note_off,0,0,0,,10,,,81,127
36619,note_on,2,0,0,,7,,,79,127
36619,note_on,0,0,0,,4,,,64,127
36701,note_off,82,0,0,,4,,,64,127
36701,note_off,0,0,0,,7,,,79,127
36703,note_on,2,0,0,,5,,,77,127
36703,note_on,0,0,0,,5,,,65,127
36869,note_off,166,0,0,,5,,,65,127
36869,note_off,0,0,0,,5,,,77,127
36871,note_on,2,0,0,,5,,,77,127
36871,note_on,0,0,0,,7,,,67,127
37122,note_off,251,0,0,,7,,,67,127
37122,note_off,0,0,0,,5,,,77,127
37124,note_on,2,0,0,,4,,,76,127
37124,note_on,0,0,0,,5,,,65,127
37206,note_off,82,0,0,,5,,,65,127
37206,note_off,0,0,0,,4,,,76,127
37208,note_on,2,0,0,,2,,,74,127
37208,note_on,0,0,0,,7,,,67,127
37374,note_off,166,0,0,,7,,,67,127
37374,note_off,0,0,0,,2,,,74,127
37376,note_on,2,0,0,,1,,,73,127
37376,note_on,0,0,0,,10,,,69,127
37711,note_off,335,0,0,,10,,,69,127
37711,note_off,0,0,0,,1,,,73,127
37713,note_on,2,0,0,,4,,,76,127
37713,note_on,0,0,0,,10,,,69,127
37713,note_on,0,0,0,,1,,,73,127
37879,note_off,166,0,0,,1,,,73,127
37879,note_off,0,0,0,,10,,,69,127
37879,note_off,0,0,0,,4,,,76,127
37881,note_on,2,0,0,,4,,,76,127
37881,note_on,0,0,0,,1,,,73,127
37881,note_on,0,0,0,,10,,,69,127
38132,note_off,251,0,0,,4,,,76,127
38134,note_on,2,0,0,,2,,,74,127
38216,note_off,82,0,0,,2,,,74,127
38216,note_off,0,0,0,,10,,,69,127
38216,note_off,0,0,0,,1,,,73,127
38217,note_on,1,0,0,,4,,,76,127
38217,note_on,0,0,0,,1,,,73,127
38217,note_on,0,0,0,,10,,,69,127
38383,note_off,166,0,0,,10,,,69,127
38383,note_off,0,0,0,,1,,,73,127
38383,note_off,0,0,0,,4,,,76,127
38387,note_on,4,0,0,,5,,,77,127
38387,note_on,0,0,0,,2,,,74,127
38387,note_on,0,0,0,,10,,,69,127
38638,note_off,251,0,0,,5,,,77,127
38640,note_on,2,0,0,,4,,,76,127
38722,note_off,82,0,0,,4,,,76,127
38722,note_off,0,0,0,,10,,,69,127
38722,note_off,0,0,0,,2,,,74,127
38723,note_on,1,0,0,,5,,,77,127
38723,note_on,0,0,0,,10,,,69,127
38723,note_on,0,0,0,,2,,,74,127
38889,note_off,166,0,0,,2,,,74,127
38889,note_off,0,0,0,,10,,,69,127
38889,note_off,0,0,0,,5,,,77,127
38893,note_on,4,0,0,,7,,,79,127
38893,note_on,0,0,0,,10,,,69,127
38893,note_on,0,0,0,,2,,,74,127
39144,note_off,251,0,0,,7,,,79,127
39146,note_on,2,0,0,,5,,,77,127
39228,note_off,82,0,0,,5,,,77,127
39228,note_off,0,0,0,,2,,,74,127
39228,note_off,0,0,0,,10,,,69,127
39229,note_on,1,0,0,,7,,,79,127
39229,note_on,0,0,0,,2,,,74,127
39229,note_on,0,0,0,,10,,,69,127
39395,note_off,166,0,0,,10,,,69,127
39395,note_off,0,0,0,,2,,,74,127
39395,note_off,0,0,0,,7,,,79,127
39397,note_on,2,0,0,,10,,,81,127
39397,note_on,0,0,0,,1,,,73,127
39397,note_on,0,0,0,,10,,,69,127
39732,note_off,335,0,0,,10,,,69,127
39732,note_off,0,0,0,,1,,,73,127
39732,note_off,0,0,0,,10,,,81,127
39734,note_on,2,0,0,,4,,,76,127
39734,note_on,0,0,0,,1,,,73,127
39734,note_on,0,0,0,,10,,,69,127
39900,note_off,166,0,0,,10,,,69,127
39900,note_off,0,0,0,,1,,,73,127
39900,note_off,0,0,0,,4,,,76,127
39902,note_on,2,0,0,,4,,,76,127
39902,note_on,0,0,0,,1,,,73,127
39902,note_on,0,0,0,,10,,,69,127
40153,note_off,251,0,0,,4,,,76,127
40155,note_on,2,0,0,,2,,,74,127
40237,note_off,82,0,0,,2,,,74,127
40237,note_off,0,0,0,,10,,,69,127
40237,note_off,0,0,0,,1,,,73,127
40239,note_on,2,0,0,,4,,,76,127
40239,note_on,0,0,0,,1,,,73,127
40239,note_on,0,0,0,,10,,,69,127
40405,note_off,166,0,0,,10,,,69,127
40405,note_off,0,0,0,,1,,,73,127
40405,note_off,0,0,0,,4,,,76,127
40407,note_on,2,0,0,,5,,,77,127
40407,note_on,0,0,0,,2,,,74,127
40407,note_on,0,0,0,,10,,,69,127
40658,note_off,251,0,0,,5,,,77,127
40660,note_on,2,0,0,,4,,,76,127
40742,note_off,82,0,0,,4,,,76,127
40742,note_off,0,0,0,,10,,,69,127
40742,note_off,0,0,0,,2,,,74,127
40744,note_on,2,0,0,,5,,,77,127
40744,note_on,0,0,0,,10,,,69,127
40744,note_on,0,0,0,,2,,,74,127
40910,note_off,166,0,0,,2,,,74,127
40910,note_off,0,0,0,,10,,,69,127
40910,note_off,0,0,0,,5,,,77,127
40912,note_on,2,0,0,,7,,,79,127
40912,note_on,0,0,0,,10,,,69,127
40912,note_on,0,0,0,,2,,,74,127
41163,note_off,251,0,0,,7,,,79,127
41165,note_on,2,0,0,,5,,,77,127
41247,note_off,82,0,0,,5,,,77,127
41247,note_off,0,0,0,,2,,,74,127
41247,note_off,0,0,0,,10,,,69,127
41249,note_on,2,0,0,,7,,,79,127
41249,note_on,0,0,0,,2,,,74,127
41249,note_on,0,0,0,,10,,,69,127
41415,note_off,166,0,0,,10,,,69,127
41415,note_off,0,0,0,,2,,,74,127
41415,note_off,0,0,0,,7,,,79,127
41417,note_on,2,0,0,,10,,,81,127
41417,note_on,0,0,0,,10,,,69,127
41417,note_on,0,0,0,,1,,,73,127
41752,note_off,335,0,0,,1,,,73,127
41752,note_off,0,0,0,,10,,,69,127
41752,note_off,0,0,0,,10,,,81,127
41753,note_on,1,0,0,,10,,,81,127
41753,note_on,0,0,0,,0,,,72,127
41753,note_on,0,0,0,,10,,,69,127
41919,note_off,166,0,0,,10,,,69,127
41919,note_off,0,0,0,,0,,,72,127
41919,note_off,0,0,0,,10,,,81,127
41923,note_on,4,0,0,,10,,,81,127
41923,note_on,0,0,0,,0,,,72,127
41923,note_on,0,0,0,,10,,,69,127
42258,note_off,335,0,0,,10,,,69,127
42258,note_off,0,0,0,,0,,,72,127
42258,note_off,0,0,0,,10,,,81,127
42259,note_on,1,0,0,,10,,,81,127
42259,note_on,0,0,0,,0,,,72,127
42259,note_on,0,0,0,,7,,,67,127
42425,note_off,166,0,0,,7,,,67,127
42425,note_off,0,0,0,,0,,,72,127
42425,note_off,0,0,0,,10,,,81,127
42429,note_on,4,0,0,,0,,,72,127
42429,note_on,0,0,0,,10,,,81,127
42429,note_on,0,0,0,,6,,,66,127
42680,note_off,251,0,0,,0,,,72,127
42682,note_on,2,0,0,,2,,,74,127
42764,note_off,82,0,0,,2,,,74,127
42764,note_off,0,0,0,,6,,,66,127
42764,note_off,0,0,0,,10,,,81,127
42765,note_on,1,0,0,,3,,,75,127
42765,note_on,0,0,0,,10,,,81,127
42765,note_on,0,0,0,,6,,,66,127
42931,note_off,166,0,0,,6,,,66,127
42931,note_off,0,0,0,,10,,,81,127
42931,note_off,0,0,0,,3,,,75,127
42933,note_on,2,0,0,,10,,,81,127
42933,note_on,0,0,0,,0,,,72,127
42933,note_on,0,0,0,,6,,,66,127
43268,note_off,335,0,0,,6,,,66,127
43268,note_off,0,0,0,,0,,,72,127
43268,note_off,0,0,0,,10,,,81,127
43270,note_on,2,0,0,,10,,,81,127
43270,note_on,0,0,0,,0,,,72,127
43270,note_on,0,0,0,,3,,,63,127
43436,note_off,166,0,0,,3,,,63,127
43436,note_off,0,0,0,,0,,,72,127
43436,note_off,0,0,0,,10,,,81,127
43438,note_on,2,0,0,,6,,,78,127
43438,note_on,0,0,0,,0,,,72,127
43438,note_on,0,0,0,,2,,,62,127
43689,note_off,251,0,0,,0,,,72,127
43691,note_on,2,0,0,,2,,,74,127
43773,note_off,82,0,0,,2,,,74,127
43773,note_off,0,0,0,,2,,,62,127
43773,note_off,0,0,0,,6,,,78,127
43775,note_on,2,0,0,,6,,,78,127
43775,note_on,0,0,0,,3,,,75,127
43775,note_on,0,0,0,,2,,,62,127
43941,note_off,166,0,0,,2,,,62,127
43941,note_off,0,0,0,,3,,,75,127
43941,note_off,0,0,0,,6,,,78,127
43943,note_on,2,0,0,,6,,,78,127
43943,note_on,0,0,0,,2,,,74,127
43943,note_on,0,0,0,,2,,,62,127
44278,note_off,335,0,0,,2,,,62,127
44278,note_off,0,0,0,,2,,,74,127
44278,note_off,0,0,0,,6,,,78,127
44280,note_on,2,0,0,,6,,,78,127
44280,note_on,0,0,0,,0,,,72,127
44280,note_on,0,0,0,,2,,,62,127
44446,note_off,166,0,0,,2,,,62,127
44446,note_off,0,0,0,,0,,,72,127
44446,note_off,0,0,0,,6,,,78,127
44448,note_on,2,0,0,,7,,,79,127
44448,note_on,0,0,0,,11,,,70,127
44448,note_on,0,0,0,,7,,,67,127
44699,note_off,251,0,0,,11,,,70,127
44701,note_on,2,0,0,,10,,,69,127
44783,note_off,82,0,0,,10,,,69,127
44783,note_off,0,0,0,,7,,,67,127
44783,note_off,0,0,0,,7,,,79,127
44785,note_on,2,0,0,,7,,,79,127
44785,note_on,0,0,0,,11,,,70,127
44785,note_on,0,0,0,,7,,,67,127
44951,note_off,166,0,0,,7,,,67,127
44951,note_off,0,0,0,,11,,,70,127
44951,note_off,0,0,0,,7,,,79,127
44953,note_on,2,0,0,,7,,,79,127
44953,note_on,0,0,0,,0,,,72,127
44953,note_on,0,0,0,,3,,,63,127
45204,note_off,251,0,0,,0,,,72,127
45206,note_on,2,0,0,,11,,,70,127
45288,note_off,82,0,0,,11,,,70,127
45288,note_off,0,0,0,,3,,,63,127
45288,note_off,0,0,0,,7,,,79,127
45289,note_on,1,0,0,,0,,,72,127
45289,note_on,0,0,0,,7,,,79,127
45289,note_on,0,0,0,,3,,,63,127
45455,note_off,166,0,0,,3,,,63,127
45455,note_off,0,0,0,,7,,,79,127
45455,note_off,0,0,0,,0,,,72,127
45459,note_on,4,0,0,,2,,,74,127
45459,note_on,0,0,0,,10,,,69,127
45459,note_on,0,0,0,,6,,,78,127
45459,note_on,0,0,0,,2,,,62,127
45794,note_off,335,0,0,,2,,,62,127
45794,note_off,0,0,0,,6,,,78,127
45794,note_off,0,0,0,,10,,,69,127
45794,note_off,0,0,0,,2,,,74,127
45795,note_on,1,0,0,,2,,,74,127
45795,note_on,0,0,0,,6,,,66,127
45795,note_on,0,0,0,,2,,,62,127
45961,note_off,166,0,0,,2,,,62,127
45961,note_off,0,0,0,,6,,,66,127
45961,note_off,0,0,0,,2,,,74,127
45965,note_on,4,0,0,,2,,,74,127
45965,note_on,0,0,0,,2,,,62,127
45965,note_on,0,0,0,,6,,,66,127
46300,note_off,335,0,0,,6,,,66,127
46300,note_off,0,0,0,,2,,,62,127
46300,note_off,0,0,0,,2,,,74,127
46301,note_on,1,0,0,,0,,,72,127
46301,note_on,0,0,0,,6,,,66,127
46301,note_on,0,0,0,,2,,,62,127
46467,note_off,166,0,0,,2,,,62,127
46467,note_off,0,0,0,,6,,,66,127
46467,note_off,0,0,0,,0,,,72,127
46469,note_on,2,0,0,,11,,,70,127
46469,note_on,0,0,0,,7,,,67,127
46469,note_on,0,0,0,,2,,,62,127
46720,note_off,251,0,0,,11,,,70,127
46722,note_on,2,0,0,,10,,,69,127
46804,note_off,82,0,0,,10,,,69,127
46804,note_off,0,0,0,,2,,,62,127
46804,note_off,0,0,0,,7,,,67,127
46806,note_on,2,0,0,,11,,,70,127
46806,note_on,0,0,0,,2,,,62,127
46806,note_on,0,0,0,,7,,,67,127
46972,note_off,166,0,0,,7,,,67,127
46972,note_off,0,0,0,,2,,,62,127
46972,note_off,0,0,0,,11,,,70,127
46974,note_on,2,0,0,,0,,,72,127
46974,note_on,0,0,0,,7,,,67,127
46974,note_on,0,0,0,,3,,,63,127
46974,note_on,0,0,0,,2,,,62,127
47225,note_off,251,0,0,,0,,,72,127
47227,note_on,2,0,0,,11,,,70,127
47309,note_off,82,0,0,,11,,,70,127
47309,note_off,0,0,0,,2,,,62,127
47309,note_off,0,0,0,,3,,,63,127
47309,note_off,0,0,0,,7,,,67,127
47311,note_on,2,0,0,,0,,,72,127
47311,note_on,0,0,0,,3,,,63,127
47311,note_on,0,0,0,,7,,,67,127
47311,note_on,0,0,0,,2,,,62,127
47477,note_off,166,0,0,,2,,,62,127
47477,note_off,0,0,0,,7,,,67,127
47477,note_off,0,0,0,,3,,,63,127
47477,note_off,0,0,0,,0,,,72,127
47479,note_on,2,0,0,,2,,,74,127
47479,note_on,0,0,0,,12,,,71,127
47479,note_on,0,0,0,,8,,,68,127
47479,note_on,0,0,0,,2,,,62,127
47479,note_on,0,0,0,,5,,,65,127
47814,note_off,335,0,0,,5,,,65,127
47814,note_off,0,0,0,,2,,,62,127
47814,note_off,0,0,0,,8,,,68,127
47814,note_off,0,0,0,,12,,,71,127
47814,note_off,0,0,0,,2,,,74,127
47816,note_on,2,0,0,,2,,,74,127
47816,note_on,0,0,0,,12,,,71,127
47816,note_on,0,0,0,,8,,,68,127
47816,note_on,0,0,0,,5,,,65,127
47816,note_on,0,0,0,,2,,,62,127
47982,note_off,166,0,0,,2,,,62,127
47982,note_off,0,0,0,,5,,,65,127
47982,note_off,0,0,0,,8,,,68,127
47982,note_off,0,0,0,,12,,,71,127
47982,note_off,0,0,0,,2,,,74,127
47984,note_on,2,0,0,,2,,,74,127
47984,note_on,0,0,0,,8,,,68,127
47984,note_on,0,0,0,,2,,,62,127
47984,note_on,0,0,0,,12,,,71,127
47984,note_on,0,0,0,,5,,,65,127
48235,note_off,251,0,0,,2,,,74,127
48237,note_on,2,0,0,,3,,,75,127
48319,note_off,82,0,0,,3,,,75,127
48319,note_off,0,0,0,,5,,,65,127
48319,note_off,0,0,0,,12,,,71,127
48319,note_off,0,0,0,,2,,,62,127
48319,note_off,0,0,0,,8,,,68,127
48321,note_on,2,0,0,,0,,,72,127
48321,note_on,0,0,0,,3,,,63,127
48321,note_on,0,0,0,,7,,,67,127
48487,note_off,166,0,0,,7,,,67,127
48487,note_off,0,0,0,,3,,,63,127
48487,note_off,0,0,0,,0,,,72,127
48489,note_on,2,0,0,,2,,,74,127
48489,note_on,0,0,0,,12,,,71,127
48489,note_on,0,0,0,,8,,,68,127
48489,note_on,0,0,0,,5,,,65,127
48489,note_on,0,0,0,,2,,,62,127
48824,note_off,335,0,0,,2,,,62,127
48824,note_off,0,0,0,,5,,,65,127
48824,note_off,0,0,0,,8,,,68,127
48824,note_off,0,0,0,,12,,,71,127
48824,note_off,0,0,0,,2,,,74,127
48825,note_on,1,0,0,,2,,,74,127
48825,note_on,0,0,0,,12,,,71,127
48825,note_on,0,0,0,,8,,,68,127
48825,note_on,0,0,0,,5,,,65,127
48825,note_on,0,0,0,,2,,,62,127
48991,note_off,166,0,0,,2,,,62,127
48991,note_off,0,0,0,,5,,,65,127
48991,note_off,0,0,0,,8,,,68,127
48991,note_off,0,0,0,,12,,,71,127
48991,note_off,0,0,0,,2,,,74,127
48995,note_on,4,0,0,,2,,,74,127
48995,note_on,0,0,0,,8,,,68,127
48995,note_on,0,0,0,,12,,,71,127
48995,note_on,0,0,0,,5,,,65,127
48995,note_on,0,0,0,,2,,,62,127
49246,note_off,251,0,0,,2,,,74,127
49248,note_on,2,0,0,,3,,,75,127
49330,note_off,82,0,0,,3,,,75,127
49330,note_off,0,0,0,,2,,,62,127
49330,note_off,0,0,0,,5,,,65,127
49330,note_off,0,0,0,,12,,,71,127
49330,note_off,0,0,0,,8,,,68,127
49331,note_on,1,0,0,,0,,,72,127
49331,note_on,0,0,0,,3,,,63,127
49331,note_on,0,0,0,,7,,,67,127
49497,note_off,166,0,0,,7,,,67,127
49497,note_off,0,0,0,,3,,,63,127
49497,note_off,0,0,0,,0,,,72,127
49499,note_on,2,0,0,,2,,,74,127
49499,note_on,0,0,0,,5,,,65,127
49499,note_on,0,0,0,,2,,,62,127
49750,note_off,251,0,0,,2,,,74,127
49752,note_on,2,0,0,,4,,,76,127
49834,note_off,82,0,0,,4,,,76,127
49834,note_off,0,0,0,,2,,,62,127
49834,note_off,0,0,0,,5,,,65,127
49836,note_on,2,0,0,,5,,,77,127
49836,note_on,0,0,0,,5,,,65,127
49836,note_on,0,0,0,,2,,,62,127
50002,note_off,166,0,0,,2,,,62,127
50002,note_off,0,0,0,,5,,,65,127
50002,note_off,0,0,0,,5,,,77,127
50004,note_on,2,0,0,,5,,,77,127
50004,note_on,0,0,0,,5,,,65,127
50004,note_on,0,0,0,,2,,,62,127
50255,note_off,251,0,0,,5,,,77,127
50257,note_on,2,0,0,,4,,,76,127
50339,note_off,82,0,0,,4,,,76,127
50339,note_off,0,0,0,,2,,,62,127
50339,note_off,0,0,0,,5,,,65,127
50341,note_on,2,0,0,,5,,,77,127
50341,note_on,0,0,0,,5,,,65,127
50341,note_on,0,0,0,,2,,,62,127
50507,note_off,166,0,0,,2,,,62,127
50507,note_off,0,0,0,,5,,,65,127
50507,note_off,0,0,0,,5,,,77,127
50509,note_on,2,0,0,,4,,,76,127
50509,note_on,0,0,0,,4,,,64,127
50509,note_on,0,0,0,,8,,,68,127
50509,note_on,0,0,0,,2,,,62,127
50844,note_off,335,0,0,,2,,,62,127
50844,note_off,0,0,0,,8,,,68,127
50844,note_off,0,0,0,,4,,,64,127
50844,note_off,0,0,0,,4,,,76,127
50846,note_on,2,0,0,,4,,,76,127
50846,note_on,0,0,0,,4,,,64,127
50846,note_on,0,0,0,,2,,,62,127
50846,note_on,0,0,0,,8,,,68,127
51012,note_off,166,0,0,,8,,,68,127
51012,note_off,0,0,0,,2,,,62,127
51012,note_off,0,0,0,,4,,,64,127
51012,note_off,0,0,0,,4,,,76,127
51014,note_on,2,0,0,,4,,,76,127
51014,note_on,0,0,0,,8,,,68,127
51014,note_on,0,0,0,,4,,,64,127
51014,note_on,0,0,0,,2,,,62,127
51329,note_off,315,0,0,,2,,,62,127
51329,note_off,0,0,0,,4,,,76,127
51349,note_off,20,0,0,,4,,,64,127
51349,note_off,0,0,0,,8,,,68,127
51351,note_on,2,0,0,,12,,,71,127
51351,note_on,0,0,0,,4,,,64,127
51351,note_on,0,0,0,,8,,,68,127
51517,note_off,166,0,0,,8,,,68,127
51517,note_off,0,0,0,,4,,,64,127
51517,note_off,0,0,0,,12,,,71,127
51519,note_on,2,0,0,,0,,,72,127
51519,note_on,0,0,0,,10,,,69,127
51519,note_on,0,0,0,,5,,,65,127
51770,note_off,251,0,0,,0,,,72,127
51772,note_on,2,0,0,,12,,,71,127
51854,note_off,82,0,0,,12,,,71,127
51854,note_off,0,0,0,,5,,,65,127
51854,note_off,0,0,0,,10,,,69,127
51855,note_on,1,0,0,,0,,,72,127
51855,note_on,0,0,0,,10,,,69,127
51855,note_on,0,0,0,,5,,,65,127
52021,note_off,166,0,0,,5,,,65,127
52021,note_off,0,0,0,,10,,,69,127
52021,note_off,0,0,0,,0,,,72,127
52025,note_on,4,0,0,,2,,,74,127
52025,note_on,0,0,0,,5,,,65,127
52025,note_on,0,0,0,,10,,,69,127
52276,note_off,251,0,0,,2,,,74,127
52278,note_on,2,0,0,,0,,,72,127
52360,note_off,82,0,0,,0,,,72,127
52360,note_off,0,0,0,,10,,,69,127
52360,note_off,0,0,0,,5,,,65,127
52361,note_on,1,0,0,,2,,,74,127
52361,note_on,0,0,0,,5,,,65,127
52361,note_on,0,0,0,,10,,,69,127
52527,note_off,166,0,0,,10,,,69,127
52527,note_off,0,0,0,,5,,,65,127
52527,note_off,0,0,0,,2,,,74,127
52531,note_on,4,0,0,,4,,,76,127
52531,note_on,0,0,0,,4,,,64,127
52531,note_on,0,0,0,,8,,,68,127
52866,note_off,335,0,0,,8,,,68,127
52866,note_off,0,0,0,,4,,,64,127
52866,note_off,0,0,0,,4,,,76,127
52867,note_on,1,0,0,,12,,,71,127
52867,note_on,0,0,0,,8,,,68,127
52867,note_on,0,0,0,,4,,,64,127
53033,note_off,166,0,0,,4,,,64,127
53033,note_off,0,0,0,,8,,,68,127
53033,note_off,0,0,0,,12,,,71,127
53035,note_on,2,0,0,,4,,,76,127
53035,note_on,0,0,0,,4,,,64,127
53035,note_on,0,0,0,,8,,,68,127
53350,note_off,315,0,0,,4,,,76,127
53359,note_off,9,0,0,,8,,,68,127
53370,note_off,11,0,0,,4,,,64,127
53372,note_on,2,0,0,,4,,,76,127
53372,note_on,0,0,0,,8,,,68,127
53372,note_on,0,0,0,,4,,,64,127
53538,note_off,166,0,0,,4,,,64,127
53538,note_off,0,0,0,,8,,,68,127
53538,note_off,0,0,0,,4,,,76,127
53540,note_on,2,0,0,,7,,,79,127
53540,note_on,0,0,0,,11,,,70,127
53540,note_on,0,0,0,,2,,,62,127
53875,note_off,335,0,0,,2,,,62,127
53875,note_off,0,0,0,,11,,,70,127
53875,note_off,0,0,0,,7,,,79,127
53877,note_on,2,0,0,,11,,,70,127
53877,note_on,0,0,0,,7,,,79,127
53877,note_on,0,0,0,,2,,,62,127
54043,note_off,166,0,0,,2,,,62,127
54043,note_off,0,0,0,,7,,,79,127
54043,note_off,0,0,0,,11,,,70,127
54045,note_on,2,0,0,,11,,,70,127
54045,note_on,0,0,0,,7,,,79,127
54045,note_on,0,0,0,,2,,,62,127
54045,note_on,0,0,0,,7,,,67,127
54380,note_off,335,0,0,,7,,,67,127
54380,note_off,0,0,0,,2,,,62,127
54380,note_off,0,0,0,,7,,,79,127
54380,note_off,0,0,0,,11,,,70,127
54382,note_on,2,0,0,,11,,,70,127
54382,note_on,0,0,0,,7,,,79,127
54382,note_on,0,0,0,,7,,,67,127
54382,note_on,0,0,0,,2,,,62,127
54548,note_off,166,0,0,,2,,,62,127
54548,note_off,0,0,0,,7,,,67,127
54548,note_off,0,0,0,,7,,,79,127
54548,note_off,0,0,0,,11,,,70,127
54550,note_on,2,0,0,,7,,,79,127
54550,note_on,0,0,0,,11,,,70,127
54550,note_on,0,0,0,,4,,,64,127
54550,note_on,0,0,0,,7,,,67,127
54885,note_off,335,0,0,,7,,,67,127
54885,note_off,0,0,0,,4,,,64,127
54885,note_off,0,0,0,,11,,,70,127
54885,note_off,0,0,0,,7,,,79,127
54887,note_on,2,0,0,,11,,,70,127
54887,note_on,0,0,0,,7,,,79,127
54887,note_on,0,0,0,,7,,,67,127
54887,note_on,0,0,0,,4,,,64,127
55053,note_off,166,0,0,,4,,,64,127
55053,note_off,0,0,0,,7,,,67,127
55053,note_off,0,0,0,,7,,,79,127
55053,note_off,0,0,0,,11,,,70,127
55055,note_on,2,0,0,,11,,,70,127
55055,note_on,0,0,0,,7,,,79,127
55055,note_on,0,0,0,,4,,,64,127
55055,note_on,0,0,0,,7,,,67,127
55390,note_off,335,0,0,,7,,,67,127
55390,note_off,0,0,0,,4,,,64,127
55390,note_off,0,0,0,,7,,,79,127
55390,note_off,0,0,0,,11,,,70,127
55391,note_on,1,0,0,,7,,,79,127
55391,note_on,0,0,0,,12,,,71,127
55391,note_on,0,0,0,,4,,,64,127
55391,note_on,0,0,0,,7,,,67,127
55557,note_off,166,0,0,,7,,,67,127
55557,note_off,0,0,0,,4,,,64,127
55557,note_off,0,0,0,,12,,,71,127
55557,note_off,0,0,0,,7,,,79,127
55561,note_on,4,0,0,,7,,,79,127
55561,note_on,0,0,0,,1,,,73,127
55561,note_on,0,0,0,,4,,,64,127
55561,note_on,0,0,0,,11,,,58,127
55561,note_on,0,0,0,,7,,,67,127
55896,note_off,335,0,0,,7,,,67,127
55896,note_off,0,0,0,,11,,,58,127
55896,note_off,0,0,0,,4,,,64,127
55896,note_off,0,0,0,,1,,,73,127
55897,note_on,1,0,0,,3,,,75,127
55897,note_on,0,0,0,,11,,,58,127
55897,note_on,0,0,0,,7,,,67,127
55897,note_on,0,0,0,,4,,,64,127
56063,note_off,166,0,0,,4,,,64,127
56063,note_off,0,0,0,,7,,,67,127
56063,note_off,0,0,0,,11,,,58,127
56063,note_off,0,0,0,,3,,,75,127
56064,note_off,1,0,0,,7,,,79,127
56066,note_on,2,0,0,,7,,,79,127
56066,note_on,0,0,0,,4,,,76,127
56066,note_on,0,0,0,,7,,,67,127
56066,note_on,0,0,0,,4,,,64,127
56066,note_on,0,0,0,,11,,,58,127
56317,note_off,251,0,0,,4,,,76,127
56317,note_off,0,0,0,,7,,,79,127
56318,note_on,1,0,0,,6,,,78,127
56318,note_on,0,0,0,,3,,,75,127
56400,note_off,82,0,0,,3,,,75,127
56400,note_off,0,0,0,,6,,,78,127
56402,note_on,2,0,0,,7,,,79,127
56402,note_on,0,0,0,,4,,,76,127
56568,note_off,166,0,0,,4,,,76,127
56568,note_off,0,0,0,,7,,,79,127
56569,note_off,1,0,0,,11,,,58,127
56569,note_off,0,0,0,,4,,,64,127
56569,note_off,0,0,0,,7,,,67,127
56570,note_on,1,0,0,,3,,,75,127
56570,note_on,0,0,0,,6,,,78,127
56570,note_on,0,0,0,,6,,,66,127
56570,note_on,0,0,0,,12,,,59,127
56570,note_on,0,0,0,,10,,,69,127
56905,note_off,335,0,0,,10,,,69,127
56905,note_off,0,0,0,,12,,,59,127
56905,note_off,0,0,0,,6,,,66,127
56905,note_off,0,0,0,,6,,,78,127
56905,note_off,0,0,0,,3,,,75,127
56907,note_on,2,0,0,,6,,,78,127
56907,note_on,0,0,0,,3,,,75,127
56907,note_on,0,0,0,,6,,,66,127
56907,note_on,0,0,0,,12,,,59,127
56907,note_on,0,0,0,,10,,,69,127
57073,note_off,166,0,0,,10,,,69,127
57073,note_off,0,0,0,,12,,,59,127
57073,note_off,0,0,0,,6,,,66,127
57073,note_off,0,0,0,,3,,,75,127
57073,note_off,0,0,0,,6,,,78,127
57075,note_on,2,0,0,,3,,,75,127
57075,note_on,0,0,0,,6,,,78,127
57075,note_on,0,0,0,,6,,,66,127
57075,note_on,0,0,0,,12,,,59,127
57075,note_on,0,0,0,,10,,,69,127
57410,note_off,335,0,0,,10,,,69,127
57410,note_off,0,0,0,,12,,,59,127
57410,note_off,0,0,0,,6,,,66,127
57410,note_off,0,0,0,,6,,,78,127
57410,note_off,0,0,0,,3,,,75,127
57412,note_on,2,0,0,,4,,,76,127
57412,note_on,0,0,0,,7,,,79,127
57412,note_on,0,0,0,,12,,,59,127
57412,note_on,0,0,0,,7,,,67,127
57412,note_on,0,0,0,,4,,,64,127
57578,note_off,166,0,0,,4,,,64,127
57578,note_off,0,0,0,,7,,,67,127
57578,note_off,0,0,0,,12,,,59,127
57578,note_off,0,0,0,,7,,,79,127
57578,note_off,0,0,0,,4,,,76,127
57580,note_on,2,0,0,,10,,,81,127
57580,note_on,0,0,0,,6,,,78,127
57580,note_on,0,0,0,,10,,,57,127
57580,note_on,0,0,0,,6,,,54,127
57831,note_off,251,0,0,,6,,,78,127
57831,note_off,0,0,0,,10,,,81,127
57833,note_on,2,0,0,,4,,,76,127
57833,note_on,0,0,0,,7,,,79,127
57915,note_off,82,0,0,,7,,,79,127
57915,note_off,0,0,0,,4,,,76,127
57915,note_off,0,0,0,,6,,,54,127
57915,note_off,0,0,0,,10,,,57,127
57917,note_on,2,0,0,,6,,,78,127
57917,note_on,0,0,0,,3,,,75,127
57917,note_on,0,0,0,,6,,,54,127
57917,note_on,0,0,0,,10,,,57,127
58083,note_off,166,0,0,,10,,,57,127
58083,note_off,0,0,0,,6,,,54,127
58083,note_off,0,0,0,,3,,,75,127
58083,note_off,0,0,0,,6,,,78,127
58085,note_on,2,0,0,,7,,,79,127
58085,note_on,0,0,0,,4,,,76,127
58085,note_on,0,0,0,,12,,,59,127
58085,note_on,0,0,0,,4,,,52,127
58336,note_off,251,0,0,,4,,,52,127
58338,note_on,2,0,0,,2,,,50,127
58418,note_off,80,0,0,,12,,,59,127
58420,note_off,2,0,0,,2,,,50,127
58420,note_off,0,0,0,,4,,,76,127
58420,note_off,0,0,0,,7,,,79,127
58422,note_on,2,0,0,,10,,,81,127
58422,note_on,0,0,0,,4,,,76,127
58422,note_on,0,0,0,,0,,,48,127
58422,note_on,0,0,0,,10,,,57,127
58588,note_off,166,0,0,,10,,,57,127
58588,note_off,0,0,0,,0,,,48,127
58588,note_off,0,0,0,,4,,,76,127
58588,note_off,0,0,0,,10,,,81,127
58590,note_on,2,0,0,,12,,,83,127
58590,note_on,0,0,0,,3,,,75,127
58590,note_on,0,0,0,,12,,,47,127
58590,note_on,0,0,0,,12,,,59,127
58590,note_on,0,0,0,,6,,,54,127
58925,note_off,335,0,0,,6,,,54,127
58925,note_off,0,0,0,,12,,,59,127
58925,note_off,0,0,0,,12,,,47,127
58925,note_off,0,0,0,,3,,,75,127
58925,note_off,0,0,0,,12,,,83,127
58926,note_on,1,0,0,,12,,,71,127
58926,note_on,0,0,0,,6,,,78,127
58926,note_on,0,0,0,,10,,,57,127
58926,note_on,0,0,0,,6,,,66,127
58926,note_on,0,0,0,,3,,,63,127
59092,note_off,166,0,0,,3,,,63,127
59092,note_off,0,0,0,,6,,,66,127
59092,note_off,0,0,0,,10,,,57,127
59092,note_off,0,0,0,,6,,,78,127
59092,note_off,0,0,0,,12,,,71,127
59096,note_on,4,0,0,,12,,,83,127
59096,note_on,0,0,0,,12,,,71,127
59096,note_on,0,0,0,,12,,,59,127
59096,note_on,0,0,0,,6,,,66,127
59096,note_on,0,0,0,,3,,,63,127
59431,note_off,335,0,0,,3,,,63,127
59431,note_off,0,0,0,,6,,,66,127
59431,note_off,0,0,0,,12,,,59,127
59431,note_off,0,0,0,,12,,,71,127
59431,note_off,0,0,0,,12,,,83,127
59432,note_on,1,0,0,,10,,,81,127
59432,note_on,0,0,0,,12,,,71,127
59432,note_on,0,0,0,,12,,,59,127
59432,note_on,0,0,0,,3,,,63,127
59432,note_on,0,0,0,,6,,,66,127
59598,note_off,166,0,0,,6,,,66,127
59598,note_off,0,0,0,,3,,,63,127
59598,note_off,0,0,0,,12,,,59,127
59598,note_off,0,0,0,,12,,,71,127
59598,note_off,0,0,0,,10,,,81,127
59602,note_on,4,0,0,,4,,,76,127
59602,note_on,0,0,0,,7,,,79,127
59602,note_on,0,0,0,,10,,,69,127
59602,note_on,0,0,0,,0,,,60,127
59602,note_on,0,0,0,,12,,,59,127
59853,note_off,251,0,0,,7,,,79,127
59854,note_on,1,0,0,,6,,,78,127
59936,note_off,82,0,0,,6,,,78,127
59937,note_off,1,0,0,,12,,,59,127
59937,note_off,0,0,0,,0,,,60,127
59937,note_off,0,0,0,,10,,,69,127
59937,note_off,0,0,0,,4,,,76,127
59938,note_on,1,0,0,,7,,,79,127
59938,note_on,0,0,0,,4,,,76,127
59938,note_on,0,0,0,,10,,,69,127
59938,note_on,0,0,0,,12,,,59,127
59938,note_on,0,0,0,,0,,,60,127
60104,note_off,166,0,0,,0,,,60,127
60104,note_off,0,0,0,,12,,,59,127
60104,note_off,0,0,0,,10,,,69,127
60104,note_off,0,0,0,,4,,,76,127
60104,note_off,0,0,0,,7,,,79,127
60106,note_on,2,0,0,,10,,,81,127
60106,note_on,0,0,0,,4,,,76,127
60106,note_on,0,0,0,,10,,,69,127
60106,note_on,0,0,0,,12,,,59,127
60106,note_on,0,0,0,,0,,,60,127
60357,note_off,251,0,0,,10,,,81,127
60359,note_on,2,0,0,,7,,,79,127
60441,note_off,82,0,0,,7,,,79,127
60441,note_off,0,0,0,,0,,,60,127
60441,note_off,0,0,0,,12,,,59,127
60441,note_off,0,0,0,,10,,,69,127
60441,note_off,0,0,0,,4,,,76,127
60443,note_on,2,0,0,,4,,,76,127
60443,note_on,0,0,0,,10,,,81,127
60443,note_on,0,0,0,,10,,,69,127
60443,note_on,0,0,0,,12,,,59,127
60443,note_on,0,0,0,,0,,,60,127
60609,note_off,166,0,0,,0,,,60,127
60609,note_off,0,0,0,,12,,,59,127
60609,note_off,0,0,0,,10,,,69,127
60609,note_off,0,0,0,,10,,,81,127
60609,note_off,0,0,0,,4,,,76,127
60611,note_on,2,0,0,,12,,,83,127
60611,note_on,0,0,0,,12,,,71,127
60611,note_on,0,0,0,,3,,,75,127
60611,note_on,0,0,0,,12,,,59,127
60611,note_on,0,0,0,,6,,,66,127
60946,note_off,335,0,0,,6,,,66,127
60946,note_off,0,0,0,,12,,,59,127
60946,note_off,0,0,0,,3,,,75,127
60946,note_off,0,0,0,,12,,,71,127
60946,note_off,0,0,0,,12,,,83,127
60948,note_on,2,0,0,,6,,,78,127
60948,note_on,0,0,0,,12,,,71,127
60948,note_on,0,0,0,,12,,,59,127
60948,note_on,0,0,0,,6,,,66,127
61114,note_off,166,0,0,,6,,,66,127
61114,note_off,0,0,0,,12,,,59,127
61114,note_off,0,0,0,,12,,,71,127
61114,note_off,0,0,0,,6,,,78,127
61116,note_on,2,0,0,,12,,,83,127
61116,note_on,0,0,0,,12,,,71,127
61116,note_on,0,0,0,,12,,,59,127
61116,note_on,0,0,0,,6,,,66,127
61451,note_off,335,0,0,,6,,,66,127
61451,note_off,0,0,0,,12,,,59,127
61451,note_off,0,0,0,,12,,,71,127
61451,note_off,0,0,0,,12,,,83,127
61453,note_on,2,0,0,,12,,,71,127
61453,note_on,0,0,0,,10,,,81,127
61453,note_on,0,0,0,,6,,,66,127
61453,note_on,0,0,0,,12,,,59,127
61619,note_off,166,0,0,,12,,,59,127
61619,note_off,0,0,0,,6,,,66,127
61619,note_off,0,0,0,,10,,,81,127
61619,note_off,0,0,0,,12,,,71,127
61621,note_on,2,0,0,,7,,,79,127
61621,note_on,0,0,0,,4,,,76,127
61621,note_on,0,0,0,,10,,,69,127
61621,note_on,0,0,0,,12,,,59,127
61621,note_on,0,0,0,,0,,,60,127
61872,note_off,251,0,0,,7,,,79,127
61874,note_on,2,0,0,,6,,,78,127
61956,note_off,82,0,0,,6,,,78,127
61956,note_off,0,0,0,,0,,,60,127
61956,note_off,0,0,0,,12,,,59,127
61956,note_off,0,0,0,,10,,,69,127
61956,note_off,0,0,0,,4,,,76,127
61957,note_on,1,0,0,,10,,,69,127
61957,note_on,0,0,0,,7,,,79,127
61957,note_on,0,0,0,,4,,,76,127
61957,note_on,0,0,0,,0,,,60,127
61957,note_on,0,0,0,,12,,,59,127
62123,note_off,166,0,0,,12,,,59,127
62123,note_off,0,0,0,,0,,,60,127
62123,note_off,0,0,0,,4,,,76,127
62123,note_off,0,0,0,,7,,,79,127
62123,note_off,0,0,0,,10,,,69,127
62127,note_on,4,0,0,,10,,,81,127
62127,note_on,0,0,0,,4,,,76,127
62127,note_on,0,0,0,,10,,,69,127
62127,note_on,0,0,0,,12,,,59,127
62127,note_on,0,0,0,,0,,,60,127
62378,note_off,251,0,0,,10,,,81,127
62380,note_on,2,0,0,,7,,,79,127
62462,note_off,82,0,0,,7,,,79,127
62462,note_off,0,0,0,,0,,,60,127
62462,note_off,0,0,0,,12,,,59,127
62462,note_off,0,0,0,,10,,,69,127
62462,note_off,0,0,0,,4,,,76,127
62463,note_on,1,0,0,,10,,,81,127
62463,note_on,0,0,0,,10,,,69,127
62463,note_on,0,0,0,,12,,,59,127
62463,note_on,0,0,0,,0,,,60,127
62629,note_off,166,0,0,,0,,,60,127
62629,note_off,0,0,0,,12,,,59,127
62629,note_off,0,0,0,,10,,,69,127
62629,note_off,0,0,0,,10,,,81,127
62633,note_on,4,0,0,,12,,,83,127
62633,note_on,0,0,0,,12,,,71,127
62633,note_on,0,0,0,,4,,,64,127
62633,note_on,0,0,0,,8,,,68,127
62633,note_on,0,0,0,,12,,,59,127
62633,note_on,0,0,0,,2,,,62,127
62968,note_off,335,0,0,,2,,,62,127
62968,note_off,0,0,0,,12,,,59,127
62968,note_off,0,0,0,,8,,,68,127
62968,note_off,0,0,0,,4,,,64,127
62968,note_off,0,0,0,,12,,,71,127
62968,note_off,0,0,0,,12,,,83,127
62969,note_on,1,0,0,,12,,,83,127
62969,note_on,0,0,0,,12,,,71,127
62969,note_on,0,0,0,,8,,,68,127
62969,note_on,0,0,0,,4,,,64,127
62969,note_on,0,0,0,,2,,,62,127
62969,note_on,0,0,0,,12,,,59,127
63135,note_off,166,0,0,,12,,,59,127
63135,note_off,0,0,0,,2,,,62,127
63135,note_off,0,0,0,,4,,,64,127
63135,note_off,0,0,0,,8,,,68,127
63135,note_off,0,0,0,,12,,,71,127
63135,note_off,0,0,0,,12,,,83,127
63137,note_on,2,0,0,,12,,,71,127
63137,note_on,0,0,0,,12,,,83,127
63137,note_on,0,0,0,,12,,,59,127
63137,note_on,0,0,0,,2,,,62,127
63137,note_on,0,0,0,,4,,,64,127
63137,note_on,0,0,0,,8,,,68,127
63472,note_off,335,0,0,,8,,,68,127
63472,note_off,0,0,0,,4,,,64,127
63472,note_off,0,0,0,,2,,,62,127
63472,note_off,0,0,0,,12,,,59,127
63472,note_off,0,0,0,,12,,,83,127
63472,note_off,0,0,0,,12,,,71,127
63474,note_on,2,0,0,,12,,,83,127
63474,note_on,0,0,0,,12,,,71,127
63474,note_on,0,0,0,,8,,,68,127
63474,note_on,0,0,0,,4,,,64,127
63474,note_on,0,0,0,,2,,,62,127
63474,note_on,0,0,0,,12,,,59,127
63640,note_off,166,0,0,,12,,,59,127
63640,note_off,0,0,0,,2,,,62,127
63640,note_off,0,0,0,,4,,,64,127
63640,note_off,0,0,0,,8,,,68,127
63640,note_off,0,0,0,,12,,,71,127
63640,note_off,0,0,0,,12,,,83,127
63642,note_on,2,0,0,,12,,,83,127
63642,note_on,0,0,0,,2,,,74,127
63642,note_on,0,0,0,,10,,,57,127
63642,note_on,0,0,0,,5,,,65,127
63642,note_on,0,0,0,,2,,,62,127
63893,note_off,251,0,0,,2,,,74,127
63895,note_on,2,0,0,,4,,,76,127
63977,note_off,82,0,0,,4,,,76,127
63977,note_off,0,0,0,,2,,,62,127
63977,note_off,0,0,0,,5,,,65,127
63977,note_off,0,0,0,,10,,,57,127
63977,note_off,0,0,0,,12,,,83,127
63979,note_on,2,0,0,,5,,,77,127
63979,note_on,0,0,0,,12,,,83,127
63979,note_on,0,0,0,,5,,,65,127
63979,note_on,0,0,0,,2,,,62,127
63979,note_on,0,0,0,,10,,,57,127
64145,note_off,166,0,0,,10,,,57,127
64145,note_off,0,0,0,,2,,,62,127
64145,note_off,0,0,0,,5,,,65,127
64145,note_off,0,0,0,,12,,,83,127
64145,note_off,0,0,0,,5,,,77,127
64147,note_on,2,0,0,,12,,,83,127
64147,note_on,0,0,0,,2,,,74,127
64147,note_on,0,0,0,,10,,,57,127
64147,note_on,0,0,0,,5,,,65,127
64147,note_on,0,0,0,,2,,,62,127
64482,note_off,335,0,0,,2,,,62,127
64482,note_off,0,0,0,,5,,,65,127
64482,note_off,0,0,0,,10,,,57,127
64482,note_off,0,0,0,,2,,,74,127
64482,note_off,0,0,0,,12,,,83,127
64484,note_on,2,0,0,,12,,,83,127
64484,note_on,0,0,0,,2,,,74,127
64484,note_on,0,0,0,,2,,,62,127
64484,note_on,0,0,0,,10,,,57,127
64484,note_on,0,0,0,,5,,,65,127
64650,note_off,166,0,0,,5,,,65,127
64650,note_off,0,0,0,,10,,,57,127
64650,note_off,0,0,0,,2,,,62,127
64650,note_off,0,0,0,,2,,,74,127
64650,note_off,0,0,0,,12,,,83,127
64652,note_on,2,0,0,,12,,,83,127
64652,note_on,0,0,0,,2,,,74,127
64652,note_on,0,0,0,,5,,,65,127
64652,note_on,0,0,0,,2,,,62,127
64652,note_on,0,0,0,,8,,,56,127
64903,note_off,251,0,0,,2,,,74,127
64905,note_on,2,0,0,,4,,,76,127
64987,note_off,82,0,0,,4,,,76,127
64987,note_off,0,0,0,,8,,,56,127
64987,note_off,0,0,0,,2,,,62,127
64987,note_off,0,0,0,,5,,,65,127
64987,note_off,0,0,0,,12,,,83,127
64989,note_on,2,0,0,,12,,,83,127
64989,note_on,0,0,0,,5,,,77,127
64989,note_on,0,0,0,,8,,,56,127
64989,note_on,0,0,0,,2,,,62,127
64989,note_on,0,0,0,,5,,,65,127
65155,note_off,166,0,0,,5,,,65,127
65155,note_off,0,0,0,,2,,,62,127
65155,note_off,0,0,0,,8,,,56,127
65155,note_off,0,0,0,,5,,,77,127
65155,note_off,0,0,0,,12,,,83,127
65157,note_on,2,0,0,,2,,,74,127
65157,note_on,0,0,0,,12,,,83,127
65157,note_on,0,0,0,,8,,,56,127
65157,note_on,0,0,0,,5,,,65,127
65157,note_on,0,0,0,,2,,,62,127
65492,note_off,335,0,0,,2,,,62,127
65492,note_off,0,0,0,,5,,,65,127
65492,note_off,0,0,0,,8,,,56,127
65492,note_off,0,0,0,,12,,,83,127
65492,note_off,0,0,0,,2,,,74,127
65493,note_on,1,0,0,,3,,,75,127
65493,note_on,0,0,0,,0,,,84,127
65493,note_on,0,0,0,,8,,,56,127
65493,note_on,0,0,0,,5,,,65,127
65493,note_on,0,0,0,,2,,,62,127
65659,note_off,166,0,0,,2,,,62,127
65659,note_off,0,0,0,,5,,,65,127
65659,note_off,0,0,0,,8,,,56,127
65659,note_off,0,0,0,,0,,,84,127
65659,note_off,0,0,0,,3,,,75,127
65663,note_on,4,0,0,,5,,,77,127
65663,note_on,0,0,0,,2,,,86,127
65663,note_on,0,0,0,,0,,,60,127
65663,note_on,0,0,0,,2,,,62,127
65663,note_on,0,0,0,,7,,,55,127
65663,note_on,0,0,0,,5,,,65,127
65998,note_off,335,0,0,,5,,,65,127
65998,note_off,0,0,0,,7,,,55,127
65998,note_off,0,0,0,,2,,,62,127
65998,note_off,0,0,0,,0,,,60,127
65998,note_off,0,0,0,,2,,,86,127
65998,note_off,0,0,0,,5,,,77,127
65999,note_on,1,0,0,,0,,,84,127
65999,note_on,0,0,0,,3,,,75,127
65999,note_on,0,0,0,,0,,,60,127
65999,note_on,0,0,0,,7,,,55,127
65999,note_on,0,0,0,,2,,,62,127
65999,note_on,0,0,0,,5,,,65,127
66165,note_off,166,0,0,,5,,,65,127
66165,note_off,0,0,0,,2,,,62,127
66165,note_off,0,0,0,,7,,,55,127
66165,note_off,0,0,0,,0,,,60,127
66165,note_off,0,0,0,,3,,,75,127
66165,note_off,0,0,0,,0,,,84,127
66169,note_on,4,0,0,,2,,,86,127
66169,note_on,0,0,0,,0,,,84,127
66169,note_on,0,0,0,,3,,,75,127
66169,note_on,0,0,0,,0,,,60,127
66169,note_on,0,0,0,,7,,,55,127
66169,note_on,0,0,0,,5,,,65,127
66169,note_on,0,0,0,,2,,,62,127
66335,note_off,166,0,0,,2,,,86,127
66504,note_off,169,0,0,,2,,,62,127
66504,note_off,0,0,0,,5,,,65,127
66504,note_off,0,0,0,,7,,,55,127
66504,note_off,0,0,0,,0,,,60,127
66504,note_off,0,0,0,,3,,,75,127
66504,note_off,0,0,0,,0,,,84,127
66505,note_on,1,0,0,,12,,,83,127
66505,note_on,0,0,0,,2,,,74,127
66505,note_on,0,0,0,,0,,,60,127
66505,note_on,0,0,0,,2,,,62,127
66505,note_on,0,0,0,,7,,,55,127
66505,note_on,0,0,0,,5,,,65,127
66671,note_off,166,0,0,,5,,,65,127
66671,note_off,0,0,0,,7,,,55,127
66671,note_off,0,0,0,,2,,,62,127
66671,note_off,0,0,0,,0,,,60,127
66671,note_off,0,0,0,,2,,,74,127
66671,note_off,0,0,0,,12,,,83,127
66673,note_on,2,0,0,,0,,,84,127
66673,note_on,0,0,0,,0,,,48,127
66673,note_on,0,0,0,,0,,,60,127
67008,note_off,335,0,0,,0,,,60,127
67008,note_off,0,0,0,,0,,,48,127
67008,note_off,0,0,0,,0,,,84,127
67010,note_on,2,0,0,,7,,,79,127
67010,note_on,0,0,0,,0,,,72,127
67010,note_on,0,0,0,,3,,,75,127
67176,note_off,166,0,0,,3,,,75,127
67176,note_off,0,0,0,,0,,,72,127
67176,note_off,0,0,0,,7,,,79,127
67178,note_on,2,0,0,,7,,,79,127
67178,note_on,0,0,0,,0,,,72,127
67178,note_on,0,0,0,,3,,,75,127
67513,note_off,335,0,0,,3,,,75,127
67513,note_off,0,0,0,,0,,,72,127
67513,note_off,0,0,0,,7,,,79,127
67515,note_on,2,0,0,,5,,,77,127
67515,note_on,0,0,0,,0,,,72,127
67681,note_off,166,0,0,,0,,,72,127
67681,note_off,0,0,0,,5,,,77,127
67683,note_on,2,0,0,,3,,,75,127
67683,note_on,0,0,0,,8,,,68,127
67683,note_on,0,0,0,,0,,,72,127
67934,note_off,251,0,0,,3,,,75,127
67936,note_on,2,0,0,,2,,,74,127
68018,note_off,82,0,0,,2,,,74,127
68018,note_off,0,0,0,,0,,,72,127
68018,note_off,0,0,0,,8,,,68,127
68020,note_on,2,0,0,,3,,,75,127
68020,note_on,0,0,0,,8,,,68,127
68020,note_on,0,0,0,,0,,,72,127
68186,note_off,166,0,0,,0,,,72,127
68186,note_off,0,0,0,,8,,,68,127
68186,note_off,0,0,0,,3,,,75,127
68188,note_on,2,0,0,,5,,,77,127
68188,note_on,0,0,0,,0,,,72,127
68188,note_on,0,0,0,,8,,,68,127
68439,note_off,251,0,0,,5,,,77,127
68441,note_on,2,0,0,,3,,,75,127
68523,note_off,82,0,0,,3,,,75,127
68523,note_off,0,0,0,,8,,,68,127
68523,note_off,0,0,0,,0,,,72,127
68525,note_on,2,0,0,,5,,,77,127
68525,note_on,0,0,0,,0,,,72,127
68525,note_on,0,0,0,,8,,,68,127
68691,note_off,166,0,0,,8,,,68,127
68691,note_off,0,0,0,,0,,,72,127
68691,note_off,0,0,0,,5,,,77,127
68693,note_on,2,0,0,,7,,,79,127
68693,note_on,0,0,0,,12,,,71,127
68693,note_on,0,0,0,,7,,,67,127
69028,note_off,335,0,0,,7,,,67,127
69028,note_off,0,0,0,,12,,,71,127
69028,note_off,0,0,0,,7,,,79,127
69029,note_on,1,0,0,,2,,,74,127
69029,note_on,0,0,0,,7,,,67,127
69029,note_on,0,0,0,,12,,,71,127
69195,note_off,166,0,0,,12,,,71,127
69195,note_off,0,0,0,,7,,,67,127
69195,note_off,0,0,0,,2,,,74,127
69199,note_on,4,0,0,,7,,,79,127
69199,note_on,0,0,0,,12,,,71,127
69199,note_on,0,0,0,,7,,,67,127
69534,note_off,335,0,0,,7,,,67,127
69534,note_off,0,0,0,,12,,,71,127
69534,note_off,0,0,0,,7,,,79,127
69535,note_on,1,0,0,,5,,,77,127
69535,note_on,0,0,0,,12,,,71,127
69535,note_on,0,0,0,,7,,,67,127
69701,note_off,166,0,0,,7,,,67,127
69701,note_off,0,0,0,,12,,,71,127
69701,note_off,0,0,0,,5,,,77,127
69705,note_on,4,0,0,,3,,,75,127
69705,note_on,0,0,0,,8,,,68,127
69705,note_on,0,0,0,,0,,,72,127
69705,note_on,0,0,0,,7,,,67,127
69956,note_off,251,0,0,,3,,,75,127
69957,note_on,1,0,0,,2,,,74,127
70039,note_off,82,0,0,,2,,,74,127
70040,note_off,1,0,0,,7,,,67,127
70040,note_off,0,0,0,,0,,,72,127
70040,note_off,0,0,0,,8,,,68,127
70041,note_on,1,0,0,,3,,,75,127
70041,note_on,0,0,0,,8,,,68,127
70041,note_on,0,0,0,,0,,,72,127
70041,note_on,0,0,0,,7,,,67,127
70207,note_off,166,0,0,,7,,,67,127
70207,note_off,0,0,0,,0,,,72,127
70207,note_off,0,0,0,,8,,,68,127
70207,note_off,0,0,0,,3,,,75,127
70209,note_on,2,0,0,,5,,,77,127
70209,note_on,0,0,0,,8,,,68,127
70209,note_on,0,0,0,,7,,,67,127
70209,note_on,0,0,0,,0,,,72,127
70460,note_off,251,0,0,,5,,,77,127
70462,note_on,2,0,0,,3,,,75,127
70544,note_off,82,0,0,,3,,,75,127
70544,note_off,0,0,0,,0,,,72,127
70544,note_off,0,0,0,,7,,,67,127
70544,note_off,0,0,0,,8,,,68,127
70546,note_on,2,0,0,,5,,,77,127
70546,note_on,0,0,0,,8,,,68,127
70546,note_on,0,0,0,,0,,,72,127
70546,note_on,0,0,0,,7,,,67,127
70712,note_off,166,0,0,,7,,,67,127
70712,note_off,0,0,0,,0,,,72,127
70712,note_off,0,0,0,,8,,,68,127
70712,note_off,0,0,0,,5,,,77,127
70714,note_on,2,0,0,,7,,,79,127
70714,note_on,0,0,0,,12,,,71,127
70714,note_on,0,0,0,,7,,,67,127
71049,note_off,335,0,0,,7,,,67,127
71049,note_off,0,0,0,,12,,,71,127
71049,note_off,0,0,0,,7,,,79,127
71051,note_on,2,0,0,,7,,,79,127
71051,note_on,0,0,0,,7,,,67,127
71051,note_on,0,0,0,,12,,,71,127
71217,note_off,166,0,0,,12,,,71,127
71217,note_off,0,0,0,,7,,,67,127
71217,note_off,0,0,0,,7,,,79,127
71219,note_on,2,0,0,,0,,,84,127
71219,note_on,0,0,0,,7,,,67,127
71219,note_on,0,0,0,,4,,,64,127
71554,note_off,335,0,0,,4,,,64,127
71554,note_off,0,0,0,,7,,,67,127
71554,note_off,0,0,0,,0,,,84,127
71556,note_on,2,0,0,,11,,,82,127
71556,note_on,0,0,0,,7,,,67,127
71556,note_on,0,0,0,,4,,,64,127
71722,note_off,166,0,0,,4,,,64,127
71722,note_off,0,0,0,,7,,,67,127
71722,note_off,0,0,0,,11,,,82,127
71724,note_on,2,0,0,,8,,,80,127
71724,note_on,0,0,0,,5,,,65,127
71724,note_on,0,0,0,,8,,,68,127
71975,note_off,251,0,0,,8,,,80,127
71977,note_on,2,0,0,,7,,,79,127
72059,note_off,82,0,0,,7,,,79,127
72059,note_off,0,0,0,,8,,,68,127
72059,note_off,0,0,0,,5,,,65,127
72060,note_on,1,0,0,,8,,,80,127
72060,note_on,0,0,0,,7,,,67,127
72060,note_on,0,0,0,,3,,,63,127
72226,note_off,166,0,0,,3,,,63,127
72226,note_off,0,0,0,,7,,,67,127
72226,note_off,0,0,0,,8,,,80,127
72230,note_on,4,0,0,,11,,,82,127
72230,note_on,0,0,0,,1,,,61,127
72230,note_on,0,0,0,,5,,,65,127
72481,note_off,251,0,0,,11,,,82,127
72483,note_on,2,0,0,,8,,,80,127
72565,note_off,82,0,0,,8,,,80,127
72565,note_off,0,0,0,,5,,,65,127
72565,note_off,0,0,0,,1,,,61,127
72566,note_on,1,0,0,,11,,,82,127
72566,note_on,0,0,0,,1,,,61,127
72566,note_on,0,0,0,,5,,,65,127
72732,note_off,166,0,0,,5,,,65,127
72732,note_off,0,0,0,,1,,,61,127
72732,note_off,0,0,0,,11,,,82,127
72736,note_on,4,0,0,,0,,,84,127
72736,note_on,0,0,0,,7,,,67,127
72736,note_on,0,0,0,,0,,,60,127
72736,note_on,0,0,0,,4,,,64,127
73071,note_off,335,0,0,,4,,,64,127
73071,note_off,0,0,0,,0,,,60,127
73071,note_off,0,0,0,,7,,,67,127
73071,note_off,0,0,0,,0,,,84,127
73072,note_on,1,0,0,,0,,,72,127
73072,note_on,0,0,0,,7,,,67,127
73072,note_on,0,0,0,,0,,,60,127
73072,note_on,0,0,0,,4,,,64,127
73238,note_off,166,0,0,,4,,,64,127
73238,note_off,0,0,0,,0,,,60,127
73238,note_off,0,0,0,,7,,,67,127
73238,note_off,0,0,0,,0,,,72,127
73240,note_on,2,0,0,,0,,,84,127
73240,note_on,0,0,0,,4,,,64,127
73240,note_on,0,0,0,,0,,,60,127
73240,note_on,0,0,0,,7,,,67,127
73575,note_off,335,0,0,,7,,,67,127
73575,note_off,0,0,0,,0,,,60,127
73575,note_off,0,0,0,,4,,,64,127
73575,note_off,0,0,0,,0,,,84,127
73577,note_on,2,0,0,,11,,,82,127
73577,note_on,0,0,0,,7,,,67,127
73577,note_on,0,0,0,,4,,,64,127
73743,note_off,166,0,0,,4,,,64,127
73743,note_off,0,0,0,,7,,,67,127
73743,note_off,0,0,0,,11,,,82,127
73745,note_on,2,0,0,,8,,,80,127
73745,note_on,0,0,0,,8,,,68,127
73745,note_on,0,0,0,,5,,,65,127
73996,note_off,251,0,0,,8,,,80,127
73998,note_on,2,0,0,,7,,,79,127
74080,note_off,82,0,0,,7,,,79,127
74080,note_off,0,0,0,,5,,,65,127
74080,note_off,0,0,0,,8,,,68,127
74082,note_on,2,0,0,,8,,,80,127
74082,note_on,0,0,0,,7,,,67,127
74082,note_on,0,0,0,,3,,,63,127
74248,note_off,166,0,0,,3,,,63,127
74248,note_off,0,0,0,,7,,,67,127
74248,note_off,0,0,0,,8,,,80,127
74250,note_on,2,0,0,,11,,,82,127
74250,note_on,0,0,0,,5,,,65,127
74250,note_on,0,0,0,,1,,,61,127
74501,note_off,251,0,0,,11,,,82,127
74503,note_on,2,0,0,,8,,,80,127
74585,note_off,82,0,0,,8,,,80,127
74585,note_off,0,0,0,,1,,,61,127
74585,note_off,0,0,0,,5,,,65,127
74587,note_on,2,0,0,,11,,,82,127
74587,note_on,0,0,0,,5,,,65,127
74587,note_on,0,0,0,,1,,,61,127
74753,note_off,166,0,0,,1,,,61,127
74753,note_off,0,0,0,,5,,,65,127
74753,note_off,0,0,0,,11,,,82,127
74755,note_on,2,0,0,,0,,,84,127
74755,note_on,0,0,0,,0,,,60,127
74755,note_on,0,0,0,,4,,,64,127
75090,note_off,335,0,0,,4,,,64,127
75090,note_off,0,0,0,,0,,,60,127
75090,note_off,0,0,0,,0,,,84,127
75092,note_on,2,0,0,,0,,,72,127
75092,note_on,0,0,0,,0,,,60,127
75092,note_on,0,0,0,,7,,,67,127
75092,note_on,0,0,0,,4,,,64,127
75258,note_off,166,0,0,,4,,,64,127
75258,note_off,0,0,0,,7,,,67,127
75258,note_off,0,0,0,,0,,,60,127
75258,note_off,0,0,0,,0,,,72,127
75260,note_on,2,0,0,,0,,,84,127
75260,note_on,0,0,0,,4,,,64,127
75260,note_on,0,0,0,,0,,,60,127
75260,note_on,0,0,0,,7,,,67,127
75595,note_off,335,0,0,,7,,,67,127
75595,note_off,0,0,0,,0,,,60,127
75595,note_off,0,0,0,,4,,,64,127
75595,note_off,0,0,0,,0,,,84,127
75596,note_on,1,0,0,,11,,,82,127
75596,note_on,0,0,0,,4,,,64,127
75596,note_on,0,0,0,,0,,,60,127
75596,note_on,0,0,0,,7,,,67,127
75762,note_off,166,0,0,,7,,,67,127
75762,note_off,0,0,0,,0,,,60,127
75762,note_off,0,0,0,,4,,,64,127
75762,note_off,0,0,0,,11,,,82,127
75766,note_on,4,0,0,,10,,,81,127
75766,note_on,0,0,0,,5,,,53,127
75766,note_on,0,0,0,,0,,,60,127
75766,note_on,0,0,0,,5,,,65,127
76017,note_off,251,0,0,,10,,,81,127
76019,note_on,2,0,0,,7,,,79,127
76101,note_off,82,0,0,,7,,,79,127
76101,note_off,0,0,0,,5,,,65,127
76101,note_off,0,0,0,,0,,,60,127
76101,note_off,0,0,0,,5,,,53,127
76102,note_on,1,0,0,,5,,,77,127
76102,note_on,0,0,0,,5,,,65,127
76102,note_on,0,0,0,,0,,,60,127
76102,note_on,0,0,0,,5,,,53,127
76268,note_off,166,0,0,,5,,,53,127
76268,note_off,0,0,0,,0,,,60,127
76268,note_off,0,0,0,,5,,,65,127
76268,note_off,0,0,0,,5,,,77,127
76272,note_on,4,0,0,,0,,,84,127
76272,note_on,0,0,0,,5,,,77,127
76272,note_on,0,0,0,,10,,,57,127
76272,note_on,0,0,0,,0,,,60,127
76272,note_on,0,0,0,,5,,,65,127
76607,note_off,335,0,0,,5,,,65,127
76607,note_off,0,0,0,,0,,,60,127
76607,note_off,0,0,0,,10,,,57,127
76607,note_off,0,0,0,,5,,,77,127
76607,note_off,0,0,0,,0,,,84,127
76608,note_on,1,0,0,,3,,,75,127
76608,note_on,0,0,0,,10,,,57,127
76608,note_on,0,0,0,,0,,,60,127
76608,note_on,0,0,0,,5,,,65,127
76774,note_off,166,0,0,,5,,,65,127
76774,note_off,0,0,0,,0,,,60,127
76774,note_off,0,0,0,,10,,,57,127
76774,note_off,0,0,0,,3,,,75,127
76776,note_on,2,0,0,,2,,,74,127
76776,note_on,0,0,0,,2,,,62,127
76776,note_on,0,0,0,,11,,,58,127
76776,note_on,0,0,0,,5,,,65,127
77027,note_off,251,0,0,,2,,,74,127
77029,note_on,2,0,0,,0,,,72,127
77111,note_off,82,0,0,,0,,,72,127
77111,note_off,0,0,0,,5,,,65,127
77111,note_off,0,0,0,,11,,,58,127
77111,note_off,0,0,0,,2,,,62,127
77113,note_on,2,0,0,,11,,,70,127
77113,note_on,0,0,0,,11,,,58,127
77113,note_on,0,0,0,,5,,,65,127
77113,note_on,0,0,0,,2,,,62,127
77279,note_off,166,0,0,,2,,,62,127
77279,note_off,0,0,0,,5,,,65,127
77279,note_off,0,0,0,,11,,,58,127
77279,note_off,0,0,0,,11,,,70,127
77281,note_on,2,0,0,,11,,,82,127
77281,note_on,0,0,0,,2,,,62,127
77281,note_on,0,0,0,,5,,,65,127
77616,note_off,335,0,0,,5,,,65,127
77616,note_off,0,0,0,,2,,,62,127
77616,note_off,0,0,0,,11,,,82,127
77618,note_on,2,0,0,,8,,,80,127
77618,note_on,0,0,0,,2,,,62,127
77618,note_on,0,0,0,,5,,,65,127
77784,note_off,166,0,0,,5,,,65,127
77784,note_off,0,0,0,,2,,,62,127
77784,note_off,0,0,0,,8,,,80,127
77786,note_on,2,0,0,,7,,,79,127
77786,note_on,0,0,0,,3,,,63,127
77786,note_on,0,0,0,,7,,,67,127
78037,note_off,251,0,0,,7,,,79,127
78039,note_on,2,0,0,,5,,,77,127
78121,note_off,82,0,0,,5,,,77,127
78121,note_off,0,0,0,,7,,,67,127
78121,note_off,0,0,0,,3,,,63,127
78123,note_on,2,0,0,,3,,,75,127
78123,note_on,0,0,0,,3,,,63,127
78123,note_on,0,0,0,,7,,,67,127
78289,note_off,166,0,0,,7,,,67,127
78289,note_off,0,0,0,,3,,,63,127
78289,note_off,0,0,0,,3,,,75,127
78291,note_on,2,0,0,,2,,,74,127
78291,note_on,0,0,0,,4,,,64,127
78291,note_on,0,0,0,,7,,,67,127
78542,note_off,251,0,0,,2,,,74,127
78544,note_on,2,0,0,,0,,,72,127
78626,note_off,82,0,0,,0,,,72,127
78626,note_off,0,0,0,,7,,,67,127
78626,note_off,0,0,0,,4,,,64,127
78628,note_on,2,0,0,,11,,,70,127
78628,note_on,0,0,0,,4,,,64,127
78628,note_on,0,0,0,,7,,,67,127
78794,note_off,166,0,0,,7,,,67,127
78794,note_off,0,0,0,,4,,,64,127
78794,note_off,0,0,0,,11,,,70,127
78796,note_on,2,0,0,,10,,,69,127
78796,note_on,0,0,0,,5,,,65,127
79094,note_off,298,0,0,,10,,,69,127
79132,note_off,38,0,0,,5,,,65,127
79133,note_on,1,0,0,,5,,,77,127
79133,note_on,0,0,0,,5,,,65,127
79299,note_off,166,0,0,,5,,,65,127
79299,note_off,0,0,0,,5,,,77,127
79303,note_on,4,0,0,,0,,,72,127
79303,note_on,0,0,0,,2,,,50,127
79345,note_on,42,0,0,,11,,,70,127
79369,note_off,24,0,0,,0,,,72,127
79387,note_on,18,0,0,,0,,,72,127
79412,note_off,25,0,0,,11,,,70,127
79430,note_on,18,0,0,,11,,,70,127
79454,note_off,24,0,0,,0,,,72,127
79639,note_off,185,0,0,,11,,,70,127
79640,note_off,1,0,0,,2,,,50,127
79641,note_on,1,0,0,,5,,,77,127
79641,note_on,0,0,0,,11,,,58,127
79807,note_off,166,0,0,,11,,,58,127
79807,note_off,0,0,0,,5,,,77,127
79811,note_on,4,0,0,,0,,,72,127
79811,note_on,0,0,0,,3,,,51,127
79852,note_on,41,0,0,,11,,,70,127
79877,note_off,25,0,0,,0,,,72,127
79895,note_on,18,0,0,,0,,,72,127
79919,note_off,24,0,0,,11,,,70,127
79938,note_on,19,0,0,,11,,,70,127
79962,note_off,24,0,0,,0,,,72,127
80147,note_off,185,0,0,,11,,,70,127
80148,note_off,1,0,0,,3,,,51,127
80149,note_on,1,0,0,,7,,,79,127
80149,note_on,0,0,0,,11,,,58,127
80315,note_off,166,0,0,,11,,,58,127
80315,note_off,0,0,0,,7,,,79,127
80317,note_on,2,0,0,,0,,,72,127
80317,note_on,0,0,0,,5,,,53,127
80359,note_on,42,0,0,,11,,,70,127
80383,note_off,24,0,0,,0,,,72,127
80402,note_on,19,0,0,,0,,,72,127
80426,note_off,24,0,0,,11,,,70,127
80445,note_on,19,0,0,,11,,,70,127
80469,note_off,24,0,0,,0,,,72,127
80654,note_off,185,0,0,,11,,,70,127
80654,note_off,0,0,0,,5,,,53,127
80656,note_on,2,0,0,,10,,,81,127
80656,note_on,0,0,0,,11,,,58,127
80822,note_off,166,0,0,,11,,,58,127
80822,note_off,0,0,0,,10,,,81,127
80824,note_on,2,0,0,,0,,,72,127
80824,note_on,0,0,0,,7,,,55,127
80866,note_on,42,0,0,,11,,,70,127
80890,note_off,24,0,0,,0,,,72,127
80909,note_on,19,0,0,,0,,,72,127
80933,note_off,24,0,0,,11,,,70,127
80952,note_on,19,0,0,,11,,,70,127
80976,note_off,24,0,0,,0,,,72,127
81161,note_off,185,0,0,,11,,,70,127
81161,note_off,0,0,0,,7,,,55,127
81163,note_on,2,0,0,,11,,,82,127
81163,note_on,0,0,0,,11,,,58,127
81329,note_off,166,0,0,,11,,,58,127
81329,note_off,0,0,0,,11,,,82,127
81331,note_on,2,0,0,,0,,,72,127
81331,note_on,0,0,0,,2,,,50,127
81373,note_on,42,0,0,,11,,,70,127
81397,note_off,24,0,0,,0,,,72,127
81416,note_on,19,0,0,,0,,,72,127
81440,note_off,24,0,0,,11,,,70,127
81459,note_on,19,0,0,,11,,,70,127
81483,note_off,24,0,0,,0,,,72,127
81668,note_off,185,0,0,,11,,,70,127
81668,note_off,0,0,0,,2,,,50,127
81670,note_on,2,0,0,,5,,,77,127
81670,note_on,0,0,0,,11,,,58,127
81836,note_off,166,0,0,,11,,,58,127
81836,note_off,0,0,0,,5,,,77,127
81838,note_on,2,0,0,,0,,,72,127
81838,note_on,0,0,0,,3,,,51,127
81880,note_on,42,0,0,,11,,,70,127
81904,note_off,24,0,0,,0,,,72,127
81923,note_on,19,0,0,,0,,,72,127
81947,note_off,24,0,0,,11,,,70,127
81965,note_on,18,0,0,,11,,,70,127
81990,note_off,25,0,0,,0,,,72,127
82174,note_off,184,0,0,,11,,,70,127
82175,note_off,1,0,0,,3,,,51,127
82177,note_on,2,0,0,,7,,,79,127
82177,note_on,0,0,0,,11,,,58,127
82343,note_off,166,0,0,,11,,,58,127
82343,note_off,0,0,0,,7,,,79,127
82345,note_on,2,0,0,,0,,,72,127
82345,note_on,0,0,0,,5,,,53,127
82387,note_on,42,0,0,,11,,,70,127
82411,note_off,24,0,0,,0,,,72,127
82429,note_on,18,0,0,,0,,,72,127
82454,note_off,25,0,0,,11,,,70,127
82472,note_on,18,0,0,,11,,,70,127
82496,note_off,24,0,0,,0,,,72,127
82681,note_off,185,0,0,,11,,,70,127
82682,note_off,1,0,0,,5,,,53,127
82683,note_on,1,0,0,,10,,,81,127
82683,note_on,0,0,0,,11,,,58,127
82849,note_off,166,0,0,,11,,,58,127
82849,note_off,0,0,0,,10,,,81,127
82853,note_on,4,0,0,,0,,,72,127
82853,note_on,0,0,0,,7,,,55,127
82894,note_on,41,0,0,,11,,,70,127
82919,note_off,25,0,0,,0,,,72,127
82937,note_on,18,0,0,,0,,,72,127
82961,note_off,24,0,0,,11,,,70,127
82980,note_on,19,0,0,,11,,,70,127
83004,note_off,24,0,0,,0,,,72,127
83189,note_off,185,0,0,,11,,,70,127
83190,note_off,1,0,0,,7,,,55,127
83191,note_on,1,0,0,,11,,,82,127
83191,note_on,0,0,0,,11,,,58,127
83357,note_off,166,0,0,,11,,,58,127
83357,note_off,0,0,0,,11,,,82,127
83359,note_on,2,0,0,,0,,,72,127
83359,note_on,0,0,0,,5,,,53,127
83401,note_on,42,0,0,,11,,,70,127
83425,note_off,24,0,0,,0,,,72,127
83444,note_on,19,0,0,,0,,,72,127
83468,note_off,24,0,0,,11,,,70,127
83487,note_on,19,0,0,,11,,,70,127
83511,note_off,24,0,0,,0,,,72,127
83696,note_off,185,0,0,,11,,,70,127
83696,note_off,0,0,0,,5,,,53,127
83698,note_on,2,0,0,,5,,,77,127
83698,note_on,0,0,0,,11,,,58,127
83864,note_off,166,0,0,,11,,,58,127
83864,note_off,0,0,0,,5,,,77,127
83866,note_on,2,0,0,,7,,,79,127
83866,note_on,0,0,0,,3,,,51,127
84117,note_off,251,0,0,,7,,,79,127
84119,note_on,2,0,0,,3,,,75,127
84201,note_off,82,0,0,,3,,,75,127
84201,note_off,0,0,0,,3,,,51,127
84203,note_on,2,0,0,,0,,,72,127
84203,note_on,0,0,0,,3,,,51,127
84369,note_off,166,0,0,,3,,,51,127
84369,note_off,0,0,0,,0,,,72,127
84371,note_on,2,0,0,,11,,,70,127
84371,note_on,0,0,0,,5,,,53,127
84706,note_off,335,0,0,,5,,,53,127
84706,note_off,0,0,0,,11,,,70,127
84708,note_on,2,0,0,,10,,,69,127
84708,note_on,0,0,0,,5,,,53,127
84874,note_off,166,0,0,,5,,,53,127
84874,note_off,0,0,0,,10,,,69,127
84876,note_on,2,0,0,,11,,,70,127
84876,note_on,0,0,0,,11,,,46,127
85211,note_off,335,0,0,,11,,,46,127
85211,note_off,0,0,0,,11,,,70,127
85213,note_on,2,0,0,,11,,,82,127
85213,note_on,0,0,0,,11,,,58,127
85379,note_off,166,0,0,,11,,,58,127
85379,note_off,0,0,0,,11,,,82,127
85381,note_on,2,0,0,,0,,,72,127
85381,note_on,0,0,0,,2,,,50,127
85427,note_on,46,0,0,,11,,,70,127
85447,note_off,20,0,0,,0,,,72,127
85474,note_on,27,0,0,,0,,,72,127
85493,note_off,19,0,0,,11,,,70,127
85521,note_on,28,0,0,,11,,,70,127
85540,note_off,19,0,0,,0,,,72,127
85716,note_off,176,0,0,,2,,,50,127
85717,note_on,1,0,0,,5,,,77,127
85717,note_on,0,0,0,,11,,,58,127
85883,note_off,166,0,0,,11,,,58,127
85883,note_off,0,0,0,,5,,,77,127
85887,note_on,4,0,0,,0,,,72,127
85887,note_on,0,0,0,,3,,,51,127
85889,note_off,2,0,0,,11,,,70,127
85933,note_on,44,0,0,,11,,,70,127
85953,note_off,20,0,0,,0,,,72,127
85980,note_on,27,0,0,,0,,,72,127
85999,note_off,19,0,0,,11,,,70,127
86026,note_on,27,0,0,,11,,,70,127
86046,note_off,20,0,0,,0,,,72,127
86222,note_off,176,0,0,,3,,,51,127
86223,note_on,1,0,0,,7,,,79,127
86223,note_on,0,0,0,,11,,,58,127
86389,note_off,166,0,0,,11,,,58,127
86389,note_off,0,0,0,,7,,,79,127
86393,note_on,4,0,0,,0,,,72,127
86393,note_on,0,0,0,,5,,,53,127
86394,note_off,1,0,0,,11,,,70,127
86439,note_on,45,0,0,,11,,,70,127
86459,note_off,20,0,0,,0,,,72,127
86486,note_on,27,0,0,,0,,,72,127
86505,note_off,19,0,0,,11,,,70,127
86532,note_on,27,0,0,,11,,,70,127
86552,note_off,20,0,0,,0,,,72,127
86728,note_off,176,0,0,,5,,,53,127
86729,note_on,1,0,0,,10,,,81,127
86729,note_on,0,0,0,,11,,,58,127
86895,note_off,166,0,0,,11,,,58,127
86895,note_off,0,0,0,,10,,,81,127
86897,note_on,2,0,0,,0,,,72,127
86897,note_on,0,0,0,,7,,,55,127
86899,note_off,2,0,0,,11,,,70,127
86944,note_on,45,0,0,,11,,,70,127
86963,note_off,19,0,0,,0,,,72,127
86991,note_on,28,0,0,,0,,,72,127
87010,note_off,19,0,0,,11,,,70,127
87037,note_on,27,0,0,,11,,,70,127
87057,note_off,20,0,0,,0,,,72,127
87232,note_off,175,0,0,,7,,,55,127
87234,note_on,2,0,0,,11,,,82,127
87234,note_on,0,0,0,,11,,,58,127
87400,note_off,166,0,0,,11,,,58,127
87400,note_off,0,0,0,,11,,,82,127
87402,note_on,2,0,0,,0,,,72,127
87402,note_on,0,0,0,,2,,,50,127
87404,note_off,2,0,0,,11,,,70,127
87449,note_on,45,0,0,,11,,,70,127
87468,note_off,19,0,0,,0,,,72,127
87495,note_on,27,0,0,,0,,,72,127
87515,note_off,20,0,0,,11,,,70,127
87542,note_on,27,0,0,,11,,,70,127
87561,note_off,19,0,0,,0,,,72,127
87737,note_off,176,0,0,,2,,,50,127
87739,note_on,2,0,0,,5,,,77,127
87739,note_on,0,0,0,,11,,,58,127
87905,note_off,166,0,0,,11,,,58,127
87905,note_off,0,0,0,,5,,,77,127
87907,note_on,2,0,0,,0,,,72,127
87907,note_on,0,0,0,,3,,,51,127
87909,note_off,2,0,0,,11,,,70,127
87954,note_on,45,0,0,,11,,,70,127
87973,note_off,19,0,0,,0,,,72,127
88000,note_on,27,0,0,,0,,,72,127
88020,note_off,20,0,0,,11,,,70,127
88047,note_on,27,0,0,,11,,,70,127
88066,note_off,19,0,0,,0,,,72,127
88242,note_off,176,0,0,,3,,,51,127
88244,note_on,2,0,0,,7,,,79,127
88244,note_on,0,0,0,,11,,,58,127
88410,note_off,166,0,0,,11,,,58,127
88410,note_off,0,0,0,,7,,,79,127
88412,note_on,2,0,0,,0,,,72,127
88412,note_on,0,0,0,,5,,,53,127
88414,note_off,2,0,0,,11,,,70,127
88459,note_on,45,0,0,,11,,,70,127
88478,note_off,19,0,0,,0,,,72,127
88505,note_on,27,0,0,,0,,,72,127
88525,note_off,20,0,0,,11,,,70,127
88552,note_on,27,0,0,,11,,,70,127
88571,note_off,19,0,0,,0,,,72,127
88747,note_off,176,0,0,,5,,,53,127
88749,note_on,2,0,0,,10,,,81,127
88749,note_on,0,0,0,,11,,,58,127
88915,note_off,166,0,0,,11,,,58,127
88915,note_off,0,0,0,,10,,,81,127
88917,note_on,2,0,0,,0,,,72,127
88917,note_on,0,0,0,,7,,,55,127
88919,note_off,2,0,0,,11,,,70,127
88963,note_on,44,0,0,,11,,,70,127
88983,note_off,20,0,0,,0,,,72,127
89010,note_on,27,0,0,,0,,,72,127
89029,note_off,19,0,0,,11,,,70,127
89057,note_on,28,0,0,,11,,,70,127
89076,note_off,19,0,0,,0,,,72,127
89252,note_off,176,0,0,,7,,,55,127
89253,note_on,1,0,0,,11,,,82,127
89253,note_on,0,0,0,,11,,,58,127
89419,note_off,166,0,0,,11,,,58,127
89419,note_off,0,0,0,,11,,,82,127
89423,note_on,4,0,0,,0,,,72,127
89423,note_on,0,0,0,,2,,,50,127
89425,note_off,2,0,0,,11,,,70,127
89469,note_on,44,0,0,,11,,,70,127
89489,note_off,20,0,0,,0,,,72,127
89516,note_on,27,0,0,,0,,,72,127
89535,note_off,19,0,0,,11,,,70,127
89562,note_on,27,0,0,,11,,,70,127
89582,note_off,20,0,0,,0,,,72,127
89758,note_off,176,0,0,,2,,,50,127
89759,note_on,1,0,0,,5,,,77,127
89759,note_on,0,0,0,,11,,,58,127
89770,note_off,11,0,0,,11,,,70,127
89925,note_off,155,0,0,,11,,,58,127
89925,note_off,0,0,0,,5,,,77,127
89929,note_on,4,0,0,,7,,,79,127
89929,note_on,0,0,0,,3,,,51,127
90180,note_off,251,0,0,,7,,,79,127
90181,note_on,1,0,0,,3,,,75,127
90263,note_off,82,0,0,,3,,,75,127
90264,note_off,1,0,0,,3,,,51,127
90265,note_on,1,0,0,,0,,,72,127
90265,note_on,0,0,0,,3,,,51,127
90265,note_on,0,0,0,,3,,,63,127
90431,note_off,166,0,0,,3,,,63,127
90431,note_off,0,0,0,,3,,,51,127
90431,note_off,0,0,0,,0,,,72,127
90433,note_on,2,0,0,,11,,,70,127
90433,note_on,0,0,0,,5,,,53,127
90433,note_on,0,0,0,,2,,,62,127
90768,note_off,335,0,0,,2,,,62,127
90768,note_off,0,0,0,,5,,,53,127
90768,note_off,0,0,0,,11,,,70,127
90770,note_on,2,0,0,,10,,,69,127
90770,note_on,0,0,0,,5,,,53,127
90770,note_on,0,0,0,,0,,,60,127
90935,note_off,165,0,0,,0,,,60,127
90939,note_off,4,0,0,,5,,,53,127
90947,note_off,8,0,0,,10,,,69,127
90965,note_on,18,0,0,,11,,,46,127
90965,note_on,0,0,0,,11,,,82,127
91189,note_off,224,0,0,,11,,,82,127
91191,note_on,2,0,0,,11,,,82,127
91415,note_off,224,0,0,,11,,,82,127
91417,note_on,2,0,0,,11,,,82,127
91641,note_off,224,0,0,,11,,,82,127
91641,note_off,0,0,0,,11,,,46,127
91643,note_on,2,0,0,,3,,,75,127
91643,note_on,0,0,0,,7,,,79,127
91867,note_off,224,0,0,,3,,,75,127
91869,note_on,2,0,0,,3,,,75,127
92093,note_off,224,0,0,,3,,,75,127
92095,note_on,2,0,0,,3,,,75,127
92319,note_off,224,0,0,,3,,,75,127
92319,note_off,0,0,0,,7,,,79,127
92321,note_on,2,0,0,,0,,,72,127
92321,note_on,0,0,0,,3,,,75,127
92545,note_off,224,0,0,,0,,,72,127
92547,note_on,2,0,0,,0,,,72,127
92771,note_off,224,0,0,,0,,,72,127
92771,note_off,0,0,0,,3,,,75,127
92773,note_on,2,0,0,,10,,,69,127
92773,note_on,0,0,0,,0,,,84,127
92997,note_off,224,0,0,,10,,,69,127
92999,note_on,2,0,0,,5,,,65,127
93110,note_off,111,0,0,,0,,,84,127
93112,note_on,2,0,0,,11,,,82,127
93223,note_off,111,0,0,,11,,,82,127
93223,note_off,0,0,0,,5,,,65,127
93225,note_on,2,0,0,,7,,,67,127
93225,note_on,0,0,0,,10,,,81,127
93336,note_off,111,0,0,,10,,,81,127
93338,note_on,2,0,0,,7,,,79,127
93449,note_off,111,0,0,,7,,,79,127
93449,note_off,0,0,0,,7,,,67,127
93451,note_on,2,0,0,,10,,,69,127
93451,note_on,0,0,0,,5,,,77,127
93562,note_off,111,0,0,,5,,,77,127
93564,note_on,2,0,0,,3,,,75,127
93675,note_off,111,0,0,,3,,,75,127
93675,note_off,0,0,0,,10,,,69,127
93677,note_on,2,0,0,,11,,,70,127
93677,note_on,0,0,0,,2,,,74,127
93788,note_off,111,0,0,,2,,,74,127
93790,note_on,2,0,0,,5,,,77,127
93901,note_off,111,0,0,,5,,,77,127
93901,note_off,0,0,0,,11,,,70,127
93903,note_on,2,0,0,,7,,,67,127
93903,note_on,0,0,0,,3,,,75,127
94014,note_off,111,0,0,,3,,,75,127
94016,note_on,2,0,0,,2,,,74,127
94127,note_off,111,0,0,,2,,,74,127
94127,note_off,0,0,0,,7,,,67,127
94129,note_on,2,0,0,,3,,,63,127
94129,note_on,0,0,0,,0,,,72,127
94240,note_off,111,0,0,,0,,,72,127
94242,note_on,2,0,0,,11,,,70,127
94353,note_off,111,0,0,,11,,,70,127
94353,note_off,0,0,0,,3,,,63,127
94355,note_on,2,0,0,,5,,,65,127
94355,note_on,0,0,0,,2,,,74,127
94466,note_off,111,0,0,,5,,,65,127
94468,note_on,2,0,0,,7,,,67,127
94579,note_off,111,0,0,,7,,,67,127
94581,note_on,2,0,0,,5,,,65,127
94692,note_off,111,0,0,,5,,,65,127
94694,note_on,2,0,0,,3,,,63,127
94805,note_off,111,0,0,,3,,,63,127
94805,note_off,0,0,0,,2,,,74,127
94807,note_on,2,0,0,,2,,,62,127
94807,note_on,0,0,0,,0,,,72,127
94893,note_off,86,0,0,,0,,,72,127
94918,note_off,25,0,0,,2,,,62,127
94920,note_on,2,0,0,,0,,,60,127
95031,note_off,111,0,0,,0,,,60,127
95033,note_on,2,0,0,,11,,,58,127
95033,note_on,0,0,0,,11,,,82,127
95144,note_off,111,0,0,,11,,,82,127
95146,note_on,2,0,0,,5,,,77,127
95257,note_off,111,0,0,,5,,,77,127
95259,note_on,2,0,0,,2,,,74,127
95370,note_off,111,0,0,,2,,,74,127
95372,note_on,2,0,0,,11,,,70,127
95483,note_off,111,0,0,,11,,,70,127
95485,note_on,2,0,0,,5,,,65,127
95596,note_off,111,0,0,,5,,,65,127
95598,note_on,2,0,0,,2,,,62,127
95709,note_off,111,0,0,,2,,,62,127
95709,note_off,0,0,0,,11,,,58,127
95711,note_on,2,0,0,,5,,,53,127
95711,note_on,0,0,0,,0,,,60,127
95822,note_off,111,0,0,,5,,,53,127
95824,note_on,2,0,0,,7,,,55,127
95935,note_off,111,0,0,,7,,,55,127
95937,note_on,2,0,0,,5,,,53,127
96048,note_off,111,0,0,,5,,,53,127
96050,note_off,2,0,0,,0,,,60,127
96050,note_on,0,0,0,,3,,,51,127
96161,note_off,111,0,0,,3,,,51,127
96163,note_on,2,0,0,,2,,,50,127
96274,note_off,111,0,0,,2,,,50,127
96276,note_on,2,0,0,,0,,,48,127
96387,note_off,111,0,0,,0,,,48,127
96389,note_on,2,0,0,,11,,,46,127
96389,note_on,0,0,0,,11,,,82,127
96500,note_off,111,0,0,,11,,,82,127
96502,note_on,2,0,0,,5,,,77,127
96613,note_off,111,0,0,,5,,,77,127
96615,note_on,2,0,0,,2,,,74,127
96726,note_off,111,0,0,,2,,,74,127
96728,note_on,2,0,0,,11,,,70,127
96839,note_off,111,0,0,,11,,,70,127
96841,note_on,2,0,0,,5,,,65,127
96952,note_off,111,0,0,,5,,,65,127
96954,note_on,2,0,0,,2,,,62,127
97065,note_off,111,0,0,,2,,,62,127
97065,note_off,0,0,0,,11,,,46,127
97067,note_on,2,0,0,,5,,,53,127
97067,note_on,0,0,0,,0,,,60,127
97291,note_off,224,0,0,,5,,,53,127
97293,note_on,2,0,0,,0,,,48,127
97517,note_off,224,0,0,,0,,,48,127
97519,note_on,2,0,0,,5,,,41,127
97743,note_off,224,0,0,,5,,,41,127
97743,note_off,0,0,0,,0,,,60,127
97745,note_on,2,0,0,,5,,,65,127
97745,note_on,0,0,0,,0,,,72,127
97745,note_on,0,0,0,,10,,,69,127
97856,note_off,111,0,0,,5,,,65,127
97858,note_on,2,0,0,,0,,,60,127
97969,note_off,111,0,0,,0,,,60,127
97969,note_off,0,0,0,,10,,,69,127
97969,note_off,0,0,0,,0,,,72,127
97971,note_on,2,0,0,,10,,,57,127
97971,note_on,0,0,0,,0,,,72,127
97971,note_on,0,0,0,,10,,,69,127
98082,note_off,111,0,0,,10,,,57,127
98084,note_on,2,0,0,,5,,,53,127
98195,note_off,111,0,0,,5,,,53,127
98195,note_off,0,0,0,,10,,,69,127
98195,note_off,0,0,0,,0,,,72,127
98197,note_on,2,0,0,,0,,,48,127
98197,note_on,0,0,0,,0,,,72,127
98197,note_on,0,0,0,,3,,,75,127
98308,note_off,111,0,0,,0,,,48,127
98310,note_on,2,0,0,,5,,,41,127
98421,note_off,111,0,0,,5,,,41,127
98421,note_off,0,0,0,,3,,,75,127
98421,note_off,0,0,0,,0,,,72,127
98423,note_on,2,0,0,,11,,,46,127
98423,note_on,0,0,0,,2,,,74,127
98423,note_on,0,0,0,,11,,,70,127
98647,note_off,224,0,0,,11,,,70,127
98647,note_off,0,0,0,,2,,,74,127
98649,note_on,2,0,0,,10,,,69,127
98649,note_on,0,0,0,,0,,,72,127
98873,note_off,224,0,0,,0,,,72,127
98873,note_off,0,0,0,,10,,,69,127
98875,note_on,2,0,0,,11,,,70,127
99099,note_off,224,0,0,,11,,,70,127
99099,note_off,0,0,0,,11,,,46,127
99101,note_on,2,0,0,,5,,,65,127
99101,note_on,0,0,0,,10,,,69,127
99101,note_on,0,0,0,,0,,,72,127
99212,note_off,111,0,0,,5,,,65,127
99214,note_on,2,0,0,,0,,,60,127
99325,note_off,111,0,0,,0,,,60,127
99325,note_off,0,0,0,,0,,,72,127
99325,note_off,0,0,0,,10,,,69,127
99327,note_on,2,0,0,,10,,,57,127
99327,note_on,0,0,0,,10,,,69,127
99327,note_on,0,0,0,,0,,,72,127
99438,note_off,111,0,0,,10,,,57,127
99440,note_on,2,0,0,,5,,,53,127
99551,note_off,111,0,0,,5,,,53,127
99551,note_off,0,0,0,,0,,,72,127
99551,note_off,0,0,0,,10,,,69,127
99553,note_on,2,0,0,,0,,,48,127
99553,note_on,0,0,0,,3,,,75,127
99553,note_on,0,0,0,,0,,,72,127
99664,note_off,111,0,0,,0,,,48,127
99666,note_on,2,0,0,,5,,,41,127
99777,note_off,111,0,0,,5,,,41,127
99777,note_off,0,0,0,,0,,,72,127
99777,note_off,0,0,0,,3,,,75,127
99779,note_on,2,0,0,,11,,,46,127
99779,note_on,0,0,0,,2,,,74,127
99779,note_on,0,0,0,,11,,,70,127
100003,note_off,224,0,0,,11,,,70,127
100003,note_off,0,0,0,,2,,,74,127
100005,note_on,2,0,0,,10,,,69,127
100005,note_on,0,0,0,,0,,,72,127
100229,note_off,224,0,0,,0,,,72,127
100229,note_off,0,0,0,,10,,,69,127
100231,note_on,2,0,0,,11,,,70,127
100353,note_off,122,0,0,,11,,,46,127
100431,note_off,78,0,0,,11,,,70,127
100457,note_on,26,0,0,,7,,,67,127
100457,note_on,0,0,0,,5,,,77,127
100457,note_on,0,0,0,,2,,,74,127
100568,note_off,111,0,0,,7,,,67,127
100570,note_on,2,0,0,,2,,,62,127
100681,note_off,111,0,0,,2,,,62,127
100681,note_off,0,0,0,,2,,,74,127
100681,note_off,0,0,0,,5,,,77,127
100683,note_on,2,0,0,,12,,,59,127
100683,note_on,0,0,0,,2,,,74,127
100683,note_on,0,0,0,,5,,,77,127
100794,note_off,111,0,0,,12,,,59,127
100796,note_on,2,0,0,,7,,,55,127
100907,note_off,111,0,0,,7,,,55,127
100907,note_off,0,0,0,,5,,,77,127
100907,note_off,0,0,0,,2,,,74,127
100909,note_on,2,0,0,,2,,,50,127
100909,note_on,0,0,0,,8,,,80,127
100909,note_on,0,0,0,,5,,,77,127
101020,note_off,111,0,0,,2,,,50,127
101022,note_on,2,0,0,,7,,,43,127
101133,note_off,111,0,0,,7,,,43,127
101133,note_off,0,0,0,,5,,,77,127
101133,note_off,0,0,0,,8,,,80,127
101135,note_on,2,0,0,,3,,,51,127
101135,note_on,0,0,0,,7,,,79,127
101135,note_on,0,0,0,,3,,,75,127
101359,note_off,224,0,0,,3,,,75,127
101359,note_off,0,0,0,,7,,,79,127
101361,note_on,2,0,0,,2,,,74,127
101361,note_on,0,0,0,,5,,,77,127
101585,note_off,224,0,0,,5,,,77,127
101585,note_off,0,0,0,,2,,,74,127
101587,note_on,2,0,0,,3,,,75,127
101811,note_off,224,0,0,,3,,,75,127
101811,note_off,0,0,0,,3,,,51,127
101813,note_on,2,0,0,,7,,,67,127
101813,note_on,0,0,0,,2,,,74,127
101813,note_on,0,0,0,,5,,,77,127
101924,note_off,111,0,0,,7,,,67,127
101926,note_on,2,0,0,,2,,,62,127
102037,note_off,111,0,0,,2,,,62,127
102037,note_off,0,0,0,,5,,,77,127
102037,note_off,0,0,0,,2,,,74,127
102039,note_on,2,0,0,,12,,,59,127
102039,note_on,0,0,0,,5,,,77,127
102039,note_on,0,0,0,,2,,,74,127
102150,note_off,111,0,0,,12,,,59,127
102152,note_on,2,0,0,,7,,,55,127
102263,note_off,111,0,0,,7,,,55,127
102263,note_off,0,0,0,,2,,,74,127
102263,note_off,0,0,0,,5,,,77,127
102265,note_on,2,0,0,,2,,,50,127
102265,note_on,0,0,0,,8,,,80,127
102265,note_on,0,0,0,,5,,,77,127
102376,note_off,111,0,0,,2,,,50,127
102378,note_on,2,0,0,,7,,,43,127
102489,note_off,111,0,0,,7,,,43,127
102489,note_off,0,0,0,,5,,,77,127
102489,note_off,0,0,0,,8,,,80,127
102491,note_on,2,0,0,,3,,,51,127
102491,note_on,0,0,0,,3,,,75,127
102491,note_on,0,0,0,,7,,,79,127
102715,note_off,224,0,0,,7,,,79,127
102715,note_off,0,0,0,,3,,,75,127
102717,note_on,2,0,0,,5,,,77,127
102717,note_on,0,0,0,,2,,,74,127
102941,note_off,224,0,0,,2,,,74,127
102941,note_off,0,0,0,,5,,,77,127
102943,note_on,2,0,0,,3,,,75,127
103167,note_off,224,0,0,,3,,,75,127
103167,note_off,0,0,0,,3,,,51,127
103169,note_on,2,0,0,,3,,,51,127
103169,note_on,0,0,0,,7,,,79,127
103280,note_off,111,0,0,,7,,,79,127
103282,note_on,2,0,0,,3,,,75,127
103393,note_off,111,0,0,,3,,,75,127
103393,note_off,0,0,0,,3,,,51,127
103395,note_on,2,0,0,,0,,,60,127
103395,note_on,0,0,0,,0,,,72,127
103506,note_off,111,0,0,,0,,,72,127
103508,note_on,2,0,0,,10,,,69,127
103619,note_off,111,0,0,,10,,,69,127
103619,note_off,0,0,0,,0,,,60,127
103621,note_on,2,0,0,,3,,,51,127
103621,note_on,0,0,0,,3,,,75,127
103732,note_off,111,0,0,,3,,,75,127
103734,note_on,2,0,0,,7,,,79,127
103845,note_off,111,0,0,,7,,,79,127
103845,note_off,0,0,0,,3,,,51,127
103847,note_on,2,0,0,,2,,,50,127
103847,note_on,0,0,0,,5,,,77,127
103958,note_off,111,0,0,,5,,,77,127
103960,note_on,2,0,0,,2,,,74,127
104071,note_off,111,0,0,,2,,,74,127
104071,note_off,0,0,0,,2,,,50,127
104073,note_on,2,0,0,,11,,,58,127
104073,note_on,0,0,0,,11,,,70,127
104184,note_off,111,0,0,,11,,,70,127
104186,note_on,2,0,0,,5,,,65,127
104297,note_off,111,0,0,,5,,,65,127
104297,note_off,0,0,0,,11,,,58,127
104299,note_on,2,0,0,,2,,,62,127
104299,note_on,0,0,0,,2,,,74,127
104410,note_off,111,0,0,,2,,,74,127
104412,note_on,2,0,0,,5,,,77,127
104523,note_off,111,0,0,,5,,,77,127
104523,note_off,0,0,0,,2,,,62,127
104525,note_on,2,0,0,,0,,,48,127
104525,note_on,0,0,0,,3,,,75,127
104636,note_off,111,0,0,,3,,,75,127
104638,note_on,2,0,0,,0,,,72,127
104749,note_off,111,0,0,,0,,,72,127
104749,note_off,0,0,0,,0,,,48,127
104751,note_on,2,0,0,,10,,,57,127
104751,note_on,0,0,0,,10,,,69,127
104862,note_off,111,0,0,,10,,,69,127
104864,note_on,2,0,0,,3,,,63,127
104975,note_off,111,0,0,,3,,,63,127
104975,note_off,0,0,0,,10,,,57,127
104977,note_on,2,0,0,,0,,,60,127
104977,note_on,0,0,0,,10,,,69,127
105088,note_off,111,0,0,,10,,,69,127
105090,note_on,2,0,0,,3,,,75,127
105201,note_off,111,0,0,,3,,,75,127
105201,note_off,0,0,0,,0,,,60,127
105203,note_on,2,0,0,,2,,,50,127
105203,note_on,0,0,0,,2,,,74,127
105314,note_off,111,0,0,,2,,,74,127
105316,note_on,2,0,0,,11,,,70,127
105427,note_off,111,0,0,,11,,,70,127
105427,note_off,0,0,0,,2,,,50,127
105429,note_on,2,0,0,,5,,,53,127
105429,note_on,0,0,0,,5,,,65,127
105540,note_off,111,0,0,,5,,,65,127
105542,note_on,2,0,0,,2,,,62,127
105653,note_off,111,0,0,,2,,,62,127
105653,note_off,0,0,0,,5,,,53,127
105655,note_on,2,0,0,,11,,,58,127
105655,note_on,0,0,0,,11,,,70,127
105766,note_off,111,0,0,,11,,,70,127
105768,note_on,2,0,0,,2,,,74,127
105879,note_off,111,0,0,,2,,,74,127
105879,note_off,0,0,0,,11,,,58,127
105881,note_on,2,0,0,,3,,,51,127
105881,note_on,0,0,0,,7,,,79,127
105992,note_off,111,0,0,,7,,,79,127
105994,note_on,2,0,0,,3,,,75,127
106105,note_off,111,0,0,,3,,,75,127
106105,note_off,0,0,0,,3,,,51,127
106107,note_on,2,0,0,,0,,,60,127
106107,note_on,0,0,0,,0,,,72,127
106218,note_off,111,0,0,,0,,,72,127
106220,note_on,2,0,0,,10,,,69,127
106331,note_off,111,0,0,,10,,,69,127
106331,note_off,0,0,0,,0,,,60,127
106333,note_on,2,0,0,,3,,,51,127
106333,note_on,0,0,0,,3,,,75,127
106444,note_off,111,0,0,,3,,,75,127
106446,note_on,2,0,0,,7,,,79,127
106557,note_off,111,0,0,,7,,,79,127
106557,note_off,0,0,0,,3,,,51,127
106559,note_on,2,0,0,,2,,,50,127
106559,note_on,0,0,0,,5,,,77,127
106670,note_off,111,0,0,,5,,,77,127
106672,note_on,2,0,0,,2,,,74,127
106783,note_off,111,0,0,,2,,,74,127
106783,note_off,0,0,0,,2,,,50,127
106785,note_on,2,0,0,,11,,,58,127
106785,note_on,0,0,0,,11,,,70,127
106896,note_off,111,0,0,,11,,,70,127
106898,note_on,2,0,0,,5,,,65,127
107009,note_off,111,0,0,,5,,,65,127
107009,note_off,0,0,0,,11,,,58,127
107011,note_on,2,0,0,,2,,,62,127
107011,note_on,0,0,0,,2,,,74,127
107122,note_off,111,0,0,,2,,,74,127
107124,note_on,2,0,0,,5,,,77,127
107235,note_off,111,0,0,,5,,,77,127
107235,note_off,0,0,0,,2,,,62,127
107237,note_on,2,0,0,,0,,,48,127
107237,note_on,0,0,0,,3,,,75,127
107348,note_off,111,0,0,,3,,,75,127
107350,note_on,2,0,0,,0,,,72,127
107461,note_off,111,0,0,,0,,,72,127
107461,note_off,0,0,0,,0,,,48,127
107463,note_on,2,0,0,,10,,,57,127
107463,note_on,0,0,0,,10,,,69,127
107574,note_off,111,0,0,,10,,,69,127
107576,note_on,2,0,0,,3,,,63,127
107687,note_off,111,0,0,,3,,,63,127
107687,note_off,0,0,0,,10,,,57,127
107689,note_on,2,0,0,,0,,,60,127
107689,note_on,0,0,0,,10,,,69,127
107800,note_off,111,0,0,,10,,,69,127
107802,note_on,2,0,0,,3,,,75,127
107913,note_off,111,0,0,,3,,,75,127
107913,note_off,0,0,0,,0,,,60,127
107915,note_on,2,0,0,,11,,,46,127
107915,note_on,0,0,0,,2,,,74,127
108026,note_off,111,0,0,,2,,,74,127
108028,note_on,2,0,0,,11,,,70,127
108139,note_off,111,0,0,,11,,,70,127
108139,note_off,0,0,0,,11,,,46,127
108141,note_on,2,0,0,,0,,,48,127
108141,note_on,0,0,0,,3,,,75,127
108252,note_off,111,0,0,,3,,,75,127
108254,note_on,2,0,0,,0,,,72,127
108365,note_off,111,0,0,,0,,,72,127
108365,note_off,0,0,0,,0,,,48,127
108367,note_on,2,0,0,,2,,,50,127
108367,note_on,0,0,0,,5,,,77,127
108478,note_off,111,0,0,,5,,,77,127
108480,note_on,2,0,0,,2,,,74,127
108591,note_off,111,0,0,,2,,,74,127
108591,note_off,0,0,0,,2,,,50,127
108593,note_on,2,0,0,,3,,,51,127
108593,note_on,0,0,0,,3,,,75,127
108704,note_off,111,0,0,,3,,,75,127
108706,note_on,2,0,0,,0,,,72,127
108817,note_off,111,0,0,,0,,,72,127
108817,note_off,0,0,0,,3,,,51,127
108819,note_on,2,0,0,,5,,,53,127
108819,note_on,0,0,0,,2,,,74,127
108930,note_off,111,0,0,,2,,,74,127
108932,note_on,2,0,0,,11,,,70,127
109043,note_off,111,0,0,,11,,,70,127
109045,note_on,2,0,0,,5,,,41,127
109045,note_on,0,0,0,,0,,,72,127
109156,note_off,111,0,0,,0,,,72,127
109158,note_on,2,0,0,,10,,,69,127
109266,note_off,108,0,0,,5,,,53,127
109268,note_off,2,0,0,,10,,,69,127
109268,note_off,0,0,0,,5,,,41,127
109279,note_on,11,0,0,,11,,,46,127
109279,note_on,0,0,0,,11,,,82,127
109390,note_off,111,0,0,,11,,,82,127
109395,note_on,5,0,0,,5,,,77,127
109504,note_off,109,0,0,,11,,,46,127
109505,note_off,1,0,0,,5,,,77,127
109510,note_on,5,0,0,,0,,,48,127
109510,note_on,0,0,0,,7,,,79,127
109621,note_off,111,0,0,,7,,,79,127
109626,note_on,5,0,0,,3,,,75,127
109735,note_off,109,0,0,,0,,,48,127
109736,note_off,1,0,0,,3,,,75,127
109741,note_on,5,0,0,,2,,,50,127
109741,note_on,0,0,0,,5,,,77,127
109852,note_off,111,0,0,,5,,,77,127
109857,note_on,5,0,0,,2,,,74,127
109966,note_off,109,0,0,,2,,,50,127
109967,note_off,1,0,0,,2,,,74,127
109972,note_on,5,0,0,,3,,,51,127
109972,note_on,0,0,0,,3,,,75,127
110083,note_off,111,0,0,,3,,,75,127
110088,note_on,5,0,0,,0,,,72,127
110197,note_off,109,0,0,,3,,,51,127
110198,note_off,1,0,0,,0,,,72,127
110203,note_on,5,0,0,,5,,,53,127
110203,note_on,0,0,0,,2,,,74,127
110314,note_off,111,0,0,,2,,,74,127
110319,note_on,5,0,0,,11,,,70,127
110430,note_off,111,0,0,,11,,,70,127
110435,note_on,5,0,0,,5,,,41,127
110435,note_on,0,0,0,,0,,,72,127
110546,note_off,111,0,0,,0,,,72,127
110551,note_on,5,0,0,,10,,,69,127
110656,note_off,105,0,0,,5,,,53,127
110661,note_off,5,0,0,,5,,,41,127
110663,note_off,2,0,0,,10,,,69,127
110667,note_on,4,0,0,,11,,,70,127
110667,note_on,0,0,0,,11,,,46,127
110779,note_off,112,0,0,,11,,,70,127
110785,note_on,6,0,0,,5,,,65,127
110896,note_off,111,0,0,,11,,,46,127
110897,note_off,1,0,0,,5,,,65,127
110903,note_on,6,0,0,,7,,,67,127
110903,note_on,0,0,0,,0,,,48,127
111015,note_off,112,0,0,,7,,,67,127
111021,note_on,6,0,0,,3,,,63,127
111132,note_off,111,0,0,,0,,,48,127
111133,note_off,1,0,0,,3,,,63,127
111139,note_on,6,0,0,,5,,,65,127
111139,note_on,0,0,0,,2,,,50,127
111251,note_off,112,0,0,,5,,,65,127
111257,note_on,6,0,0,,2,,,62,127
111368,note_off,111,0,0,,2,,,50,127
111369,note_off,1,0,0,,2,,,62,127
111375,note_on,6,0,0,,3,,,63,127
111375,note_on,0,0,0,,3,,,51,127
111487,note_off,112,0,0,,3,,,63,127
111493,note_on,6,0,0,,0,,,60,127
111604,note_off,111,0,0,,3,,,51,127
111605,note_off,1,0,0,,0,,,60,127
111611,note_on,6,0,0,,2,,,62,127
111611,note_on,0,0,0,,5,,,53,127
111723,note_off,112,0,0,,2,,,62,127
111729,note_on,6,0,0,,11,,,58,127
111841,note_off,112,0,0,,11,,,58,127
111847,note_on,6,0,0,,0,,,60,127
111847,note_on,0,0,0,,5,,,41,127
111959,note_off,112,0,0,,0,,,60,127
111965,note_on,6,0,0,,10,,,57,127
112071,note_off,106,0,0,,5,,,53,127
112076,note_off,5,0,0,,5,,,41,127
112077,note_off,1,0,0,,10,,,57,127
112102,note_on,25,0,0,,11,,,58,127
112102,note_on,0,0,0,,11,,,46,127
113920,note_off,1818,0,0,,11,,,46,127
113920,note_off,0,0,0,,11,,,58,127
118272,end_of_track,4352,1,0,,,,,,
