tick,type,time,meta,track,program,channel,pitch,tempo,note,velocity
0,copyright,0,1,0,,,,,,
0,program_change,0,0,0,6,0,,,,
0,pitchwheel,0,0,0,,0,0,,,
0,program_change,0,0,0,6,1,,,,
0,pitchwheel,0,0,0,,1,-590,,,
0,program_change,0,0,0,6,2,,,,
0,pitchwheel,0,0,0,,2,-272,,,
0,program_change,0,0,0,6,3,,,,
0,pitchwheel,0,0,0,,3,-353,,,
0,program_change,0,0,0,6,4,,,,
0,pitchwheel,0,0,0,,4,-560,,,
0,program_change,0,0,0,6,5,,,,
0,pitchwheel,0,0,0,,5,-80,,,
0,program_change,0,0,0,6,6,,,,
0,pitchwheel,0,0,0,,6,-625,,,
0,program_change,0,0,0,6,7,,,,
0,pitchwheel,0,0,0,,7,-130,,,
0,program_change,0,0,0,6,8,,,,
0,pitchwheel,0,0,0,,8,-512,,,
0,program_change,0,0,0,6,10,,,,
0,pitchwheel,0,0,0,,10,-464,,,
0,program_change,0,0,0,6,11,,,,
0,pitchwheel,0,0,0,,11,-208,,,
0,program_change,0,0,0,6,12,,,,
0,pitchwheel,0,0,0,,12,-553,,,
0,set_tempo,0,1,0,,,,500000,,
110,note_on,110,0,0,,0,,,72,127
165,note_on,55,0,0,,12,,,71,127
183,note_off,18,0,0,,0,,,72,127
220,note_on,37,0,0,,0,,,72,127
238,note_off,18,0,0,,12,,,71,127
275,note_on,37,0,0,,12,,,71,127
293,note_off,18,0,0,,0,,,72,127
330,note_on,37,0,0,,4,,,52,127
330,note_on,0,0,0,,0,,,72,127
348,note_off,18,0,0,,12,,,71,127
385,note_on,37,0,0,,12,,,71,127
403,note_off,18,0,0,,0,,,72,127
440,note_on,37,0,0,,0,,,72,127
458,note_off,18,0,0,,12,,,71,127
495,note_on,37,0,0,,12,,,71,127
513,note_off,18,0,0,,0,,,72,127
547,note_off,34,0,0,,4,,,52,127
549,note_on,2,0,0,,7,,,55,127
549,note_on,0,0,0,,0,,,72,127
567,note_off,18,0,0,,12,,,71,127
604,note_on,37,0,0,,12,,,71,127
622,note_off,18,0,0,,0,,,72,127
659,note_on,37,0,0,,0,,,72,127
677,note_off,18,0,0,,12,,,71,127
714,note_on,37,0,0,,12,,,71,127
732,note_off,18,0,0,,0,,,72,127
766,note_off,34,0,0,,7,,,55,127
768,note_on,2,0,0,,2,,,74,127
786,note_off,18,0,0,,12,,,71,127
823,note_on,37,0,0,,0,,,72,127
841,note_off,18,0,0,,2,,,74,127
878,note_on,37,0,0,,2,,,74,127
896,note_off,18,0,0,,0,,,72,127
933,note_on,37,0,0,,0,,,72,127
951,note_off,18,0,0,,2,,,74,127
988,note_on,37,0,0,,10,,,57,127
988,note_on,0,0,0,,2,,,74,127
1006,note_off,18,0,0,,0,,,72,127
1043,note_on,37,0,0,,0,,,72,127
1061,note_off,18,0,0,,2,,,74,127
1098,note_on,37,0,0,,2,,,74,127
1116,note_off,18,0,0,,0,,,72,127
1153,note_on,37,0,0,,0,,,72,127
1171,note_off,18,0,0,,2,,,74,127
1205,note_off,34,0,0,,10,,,57,127
1207,note_on,2,0,0,,0,,,60,127
1207,note_on,0,0,0,,2,,,74,127
1225,note_off,18,0,0,,0,,,72,127
1262,note_on,37,0,0,,0,,,72,127
1280,note_off,18,0,0,,2,,,74,127
1317,note_on,37,0,0,,2,,,74,127
1335,note_off,18,0,0,,0,,,72,127
1372,note_on,37,0,0,,0,,,72,127
1390,note_off,18,0,0,,2,,,74,127
1424,note_off,34,0,0,,0,,,60,127
1426,note_on,2,0,0,,7,,,79,127
1444,note_off,18,0,0,,0,,,72,127
1481,note_on,37,0,0,,6,,,78,127
1499,note_off,18,0,0,,7,,,79,127
1536,note_on,37,0,0,,7,,,79,127
1554,note_off,18,0,0,,6,,,78,127
1591,note_on,37,0,0,,6,,,78,127
1609,note_off,18,0,0,,7,,,79,127
1646,note_on,37,0,0,,3,,,63,127
1646,note_on,0,0,0,,7,,,79,127
1664,note_off,18,0,0,,6,,,78,127
1701,note_on,37,0,0,,6,,,78,127
1719,note_off,18,0,0,,7,,,79,127
1756,note_on,37,0,0,,7,,,79,127
1774,note_off,18,0,0,,6,,,78,127
1811,note_on,37,0,0,,6,,,78,127
1829,note_off,18,0,0,,7,,,79,127
1863,note_off,34,0,0,,3,,,63,127
1865,note_on,2,0,0,,6,,,66,127
1865,note_on,0,0,0,,7,,,79,127
1883,note_off,18,0,0,,6,,,78,127
1920,note_on,37,0,0,,6,,,78,127
1938,note_off,18,0,0,,7,,,79,127
1975,note_on,37,0,0,,7,,,79,127
1993,note_off,18,0,0,,6,,,78,127
2030,note_on,37,0,0,,6,,,78,127
2048,note_off,18,0,0,,7,,,79,127
2085,note_on,37,0,0,,10,,,81,127
2103,note_off,18,0,0,,6,,,78,127
2140,note_on,37,0,0,,7,,,79,127
2158,note_off,18,0,0,,10,,,81,127
2192,note_off,34,0,0,,6,,,66,127
2194,note_on,2,0,0,,4,,,64,127
2194,note_on,0,0,0,,10,,,81,127
2212,note_off,18,0,0,,7,,,79,127
2249,note_on,37,0,0,,7,,,79,127
2267,note_off,18,0,0,,10,,,81,127
2301,note_off,34,0,0,,4,,,64,127
2303,note_on,2,0,0,,7,,,67,127
2303,note_on,0,0,0,,10,,,81,127
2321,note_off,18,0,0,,7,,,79,127
2358,note_on,37,0,0,,7,,,79,127
2376,note_off,18,0,0,,10,,,81,127
2410,note_off,34,0,0,,7,,,67,127
2412,note_on,2,0,0,,6,,,66,127
2412,note_on,0,0,0,,10,,,81,127
2430,note_off,18,0,0,,7,,,79,127
2467,note_on,37,0,0,,7,,,79,127
2485,note_off,18,0,0,,10,,,81,127
2519,note_off,34,0,0,,6,,,66,127
2521,note_on,2,0,0,,4,,,64,127
2521,note_on,0,0,0,,10,,,81,127
2539,note_off,18,0,0,,7,,,79,127
2576,note_on,37,0,0,,7,,,79,127
2594,note_off,18,0,0,,10,,,81,127
2628,note_off,34,0,0,,4,,,64,127
2630,note_on,2,0,0,,2,,,62,127
2630,note_on,0,0,0,,10,,,81,127
2648,note_off,18,0,0,,7,,,79,127
2685,note_on,37,0,0,,7,,,79,127
2703,note_off,18,0,0,,10,,,81,127
2737,note_off,34,0,0,,2,,,62,127
2739,note_on,2,0,0,,0,,,60,127
2846,note_off,107,0,0,,7,,,79,127
2848,note_on,2,0,0,,10,,,81,127
2955,note_off,107,0,0,,10,,,81,127
2957,note_on,2,0,0,,3,,,75,127
3064,note_off,107,0,0,,3,,,75,127
3066,note_on,2,0,0,,4,,,76,127
3173,note_off,107,0,0,,4,,,76,127
3175,note_on,2,0,0,,6,,,78,127
3282,note_off,107,0,0,,6,,,78,127
3284,note_on,2,0,0,,7,,,79,127
3391,note_off,107,0,0,,7,,,79,127
3391,note_off,0,0,0,,0,,,60,127
3393,note_on,2,0,0,,12,,,59,127
3393,note_on,0,0,0,,10,,,81,127
3500,note_off,107,0,0,,10,,,81,127
3502,note_on,2,0,0,,6,,,78,127
3609,note_off,107,0,0,,6,,,78,127
3611,note_on,2,0,0,,3,,,75,127
3718,note_off,107,0,0,,3,,,75,127
3720,note_on,2,0,0,,12,,,71,127
3827,note_off,107,0,0,,12,,,71,127
3829,note_on,2,0,0,,10,,,69,127
3936,note_off,107,0,0,,10,,,69,127
3938,note_on,2,0,0,,6,,,66,127
4045,note_off,107,0,0,,6,,,66,127
4046,note_off,1,0,0,,12,,,59,127
4047,note_on,1,0,0,,3,,,63,127
4154,note_off,107,0,0,,3,,,63,127
4156,note_on,2,0,0,,12,,,59,127
4263,note_off,107,0,0,,12,,,59,127
4265,note_on,2,0,0,,6,,,54,127
4372,note_off,107,0,0,,6,,,54,127
4374,note_on,2,0,0,,12,,,47,127
4484,note_on,110,0,0,,6,,,54,127
4591,note_off,107,0,0,,6,,,54,127
4591,note_off,0,0,0,,12,,,47,127
4593,note_on,2,0,0,,12,,,59,127
4700,note_off,107,0,0,,12,,,59,127
4702,note_on,2,0,0,,12,,,47,127
4702,note_on,0,0,0,,3,,,63,127
4702,note_on,0,0,0,,12,,,59,127
4702,note_on,0,0,0,,10,,,69,127
4702,note_on,0,0,0,,6,,,66,127
4919,note_off,217,0,0,,6,,,66,127
4919,note_off,0,0,0,,10,,,69,127
4921,note_on,2,0,0,,7,,,67,127
5138,note_off,217,0,0,,7,,,67,127
5140,note_on,2,0,0,,6,,,66,127
5357,note_off,217,0,0,,6,,,66,127
5357,note_off,0,0,0,,12,,,47,127
5358,note_off,1,0,0,,12,,,59,127
5358,note_off,0,0,0,,3,,,63,127
5359,note_on,1,0,0,,4,,,40,127
5359,note_on,0,0,0,,4,,,52,127
5359,note_on,0,0,0,,10,,,69,127
5466,note_off,107,0,0,,10,,,69,127
5468,note_on,2,0,0,,7,,,67,127
5575,note_off,107,0,0,,7,,,67,127
5577,note_on,2,0,0,,6,,,66,127
5794,note_off,217,0,0,,6,,,66,127
5796,note_on,2,0,0,,4,,,64,127
5990,note_off,194,0,0,,4,,,64,127
6014,note_off,24,0,0,,4,,,40,127
6015,note_on,1,0,0,,0,,,72,127
6070,note_on,55,0,0,,12,,,71,127
6088,note_off,18,0,0,,0,,,72,127
6125,note_on,37,0,0,,0,,,72,127
6143,note_off,18,0,0,,12,,,71,127
6180,note_on,37,0,0,,12,,,71,127
6198,note_off,18,0,0,,0,,,72,127
6232,note_off,34,0,0,,4,,,52,127
6234,note_on,2,0,0,,4,,,52,127
6234,note_on,0,0,0,,0,,,72,127
6252,note_off,18,0,0,,12,,,71,127
6289,note_on,37,0,0,,12,,,71,127
6307,note_off,18,0,0,,0,,,72,127
6344,note_on,37,0,0,,0,,,72,127
6362,note_off,18,0,0,,12,,,71,127
6399,note_on,37,0,0,,12,,,71,127
6417,note_off,18,0,0,,0,,,72,127
6451,note_off,34,0,0,,4,,,52,127
6453,note_on,2,0,0,,7,,,55,127
6453,note_on,0,0,0,,0,,,72,127
6471,note_off,18,0,0,,12,,,71,127
6508,note_on,37,0,0,,12,,,71,127
6526,note_off,18,0,0,,0,,,72,127
6563,note_on,37,0,0,,0,,,72,127
6581,note_off,18,0,0,,12,,,71,127
6618,note_on,37,0,0,,12,,,71,127
6636,note_off,18,0,0,,0,,,72,127
6670,note_off,34,0,0,,7,,,55,127
6672,note_on,2,0,0,,2,,,74,127
6690,note_off,18,0,0,,12,,,71,127
6727,note_on,37,0,0,,0,,,72,127
6745,note_off,18,0,0,,2,,,74,127
6782,note_on,37,0,0,,2,,,74,127
6800,note_off,18,0,0,,0,,,72,127
6837,note_on,37,0,0,,0,,,72,127
6855,note_off,18,0,0,,2,,,74,127
6892,note_on,37,0,0,,10,,,57,127
6892,note_on,0,0,0,,2,,,74,127
6910,note_off,18,0,0,,0,,,72,127
6947,note_on,37,0,0,,0,,,72,127
6965,note_off,18,0,0,,2,,,74,127
7002,note_on,37,0,0,,2,,,74,127
7020,note_off,18,0,0,,0,,,72,127
7057,note_on,37,0,0,,0,,,72,127
7075,note_off,18,0,0,,2,,,74,127
7109,note_off,34,0,0,,10,,,57,127
7111,note_on,2,0,0,,0,,,60,127
7111,note_on,0,0,0,,2,,,74,127
7129,note_off,18,0,0,,0,,,72,127
7166,note_on,37,0,0,,0,,,72,127
7184,note_off,18,0,0,,2,,,74,127
7221,note_on,37,0,0,,2,,,74,127
7239,note_off,18,0,0,,0,,,72,127
7276,note_on,37,0,0,,0,,,72,127
7294,note_off,18,0,0,,2,,,74,127
7328,note_off,34,0,0,,0,,,60,127
7330,note_on,2,0,0,,12,,,83,127
7348,note_off,18,0,0,,0,,,72,127
7385,note_on,37,0,0,,10,,,81,127
7403,note_off,18,0,0,,12,,,83,127
7440,note_on,37,0,0,,12,,,83,127
7458,note_off,18,0,0,,10,,,81,127
7495,note_on,37,0,0,,10,,,81,127
7513,note_off,18,0,0,,12,,,83,127
7550,note_on,37,0,0,,2,,,62,127
7550,note_on,0,0,0,,12,,,83,127
7568,note_off,18,0,0,,10,,,81,127
7605,note_on,37,0,0,,10,,,81,127
7623,note_off,18,0,0,,12,,,83,127
7660,note_on,37,0,0,,12,,,83,127
7678,note_off,18,0,0,,10,,,81,127
7715,note_on,37,0,0,,10,,,81,127
7733,note_off,18,0,0,,12,,,83,127
7767,note_off,34,0,0,,2,,,62,127
7769,note_on,2,0,0,,6,,,66,127
7769,note_on,0,0,0,,12,,,83,127
7787,note_off,18,0,0,,10,,,81,127
7824,note_on,37,0,0,,10,,,81,127
7842,note_off,18,0,0,,12,,,83,127
7879,note_on,37,0,0,,12,,,83,127
7897,note_off,18,0,0,,10,,,81,127
7934,note_on,37,0,0,,10,,,81,127
7952,note_off,18,0,0,,12,,,83,127
7989,note_on,37,0,0,,0,,,84,127
8007,note_off,18,0,0,,10,,,81,127
8044,note_on,37,0,0,,12,,,83,127
8062,note_off,18,0,0,,0,,,84,127
8096,note_off,34,0,0,,6,,,66,127
8098,note_on,2,0,0,,2,,,62,127
8098,note_on,0,0,0,,0,,,84,127
8116,note_off,18,0,0,,12,,,83,127
8153,note_on,37,0,0,,12,,,83,127
8171,note_off,18,0,0,,0,,,84,127
8205,note_off,34,0,0,,2,,,62,127
8207,note_on,2,0,0,,7,,,67,127
8207,note_on,0,0,0,,0,,,84,127
8225,note_off,18,0,0,,12,,,83,127
8262,note_on,37,0,0,,12,,,83,127
8280,note_off,18,0,0,,0,,,84,127
8314,note_off,34,0,0,,7,,,67,127
8316,note_on,2,0,0,,6,,,66,127
8316,note_on,0,0,0,,0,,,84,127
8334,note_off,18,0,0,,12,,,83,127
8371,note_on,37,0,0,,12,,,83,127
8389,note_off,18,0,0,,0,,,84,127
8423,note_off,34,0,0,,6,,,66,127
8425,note_on,2,0,0,,4,,,64,127
8425,note_on,0,0,0,,0,,,84,127
8443,note_off,18,0,0,,12,,,83,127
8480,note_on,37,0,0,,12,,,83,127
8498,note_off,18,0,0,,0,,,84,127
8532,note_off,34,0,0,,4,,,64,127
8534,note_on,2,0,0,,2,,,62,127
8534,note_on,0,0,0,,0,,,84,127
8552,note_off,18,0,0,,12,,,83,127
8589,note_on,37,0,0,,12,,,83,127
8607,note_off,18,0,0,,0,,,84,127
8641,note_off,34,0,0,,2,,,62,127
8643,note_on,2,0,0,,0,,,60,127
8750,note_off,107,0,0,,12,,,83,127
8752,note_on,2,0,0,,0,,,84,127
8859,note_off,107,0,0,,0,,,84,127
8861,note_on,2,0,0,,6,,,78,127
8968,note_off,107,0,0,,6,,,78,127
8970,note_on,2,0,0,,7,,,79,127
9077,note_off,107,0,0,,7,,,79,127
9079,note_on,2,0,0,,10,,,81,127
9186,note_off,107,0,0,,10,,,81,127
9188,note_on,2,0,0,,12,,,83,127
9295,note_off,107,0,0,,12,,,83,127
9295,note_off,0,0,0,,0,,,60,127
9297,note_on,2,0,0,,2,,,62,127
9297,note_on,0,0,0,,0,,,84,127
9404,note_off,107,0,0,,0,,,84,127
9406,note_on,2,0,0,,10,,,81,127
9513,note_off,107,0,0,,10,,,81,127
9515,note_on,2,0,0,,6,,,78,127
9622,note_off,107,0,0,,6,,,78,127
9624,note_on,2,0,0,,0,,,72,127
9731,note_off,107,0,0,,0,,,72,127
9733,note_on,2,0,0,,10,,,69,127
9840,note_off,107,0,0,,10,,,69,127
9842,note_on,2,0,0,,6,,,66,127
9945,note_off,103,0,0,,2,,,62,127
9950,note_off,5,0,0,,6,,,66,127
9952,note_on,2,0,0,,2,,,62,127
10059,note_off,107,0,0,,2,,,62,127
10061,note_on,2,0,0,,10,,,57,127
10168,note_off,107,0,0,,10,,,57,127
10170,note_on,2,0,0,,6,,,54,127
10277,note_off,107,0,0,,6,,,54,127
10279,note_on,2,0,0,,2,,,50,127
10389,note_on,110,0,0,,6,,,54,127
10496,note_off,107,0,0,,6,,,54,127
10496,note_off,0,0,0,,2,,,50,127
10498,note_on,2,0,0,,10,,,57,127
10605,note_off,107,0,0,,10,,,57,127
10607,note_on,2,0,0,,2,,,50,127
10607,note_on,0,0,0,,0,,,72,127
10607,note_on,0,0,0,,6,,,66,127
10607,note_on,0,0,0,,10,,,69,127
10607,note_on,0,0,0,,2,,,62,127
10824,note_off,217,0,0,,10,,,69,127
10824,note_off,0,0,0,,0,,,72,127
10826,note_on,2,0,0,,12,,,71,127
11043,note_off,217,0,0,,12,,,71,127
11045,note_on,2,0,0,,10,,,69,127
11262,note_off,217,0,0,,10,,,69,127
11262,note_off,0,0,0,,2,,,50,127
11263,note_off,1,0,0,,2,,,62,127
11263,note_off,0,0,0,,6,,,66,127
11264,note_on,1,0,0,,7,,,43,127
11264,note_on,0,0,0,,7,,,55,127
11264,note_on,0,0,0,,0,,,72,127
11371,note_off,107,0,0,,0,,,72,127
11373,note_on,2,0,0,,12,,,71,127
11480,note_off,107,0,0,,12,,,71,127
11482,note_on,2,0,0,,10,,,69,127
11699,note_off,217,0,0,,10,,,69,127
11701,note_on,2,0,0,,7,,,67,127
11895,note_off,194,0,0,,7,,,67,127
11919,note_off,24,0,0,,7,,,55,127
11919,note_off,0,0,0,,7,,,43,127
11920,note_on,1,0,0,,12,,,83,127
11920,note_on,0,0,0,,4,,,76,127
12027,note_off,107,0,0,,4,,,76,127
12029,note_on,2,0,0,,6,,,78,127
12136,note_off,107,0,0,,6,,,78,127
12138,note_on,2,0,0,,7,,,67,127
12138,note_on,0,0,0,,4,,,76,127
12245,note_off,107,0,0,,4,,,76,127
12247,note_on,2,0,0,,2,,,74,127
12354,note_off,107,0,0,,2,,,74,127
12356,note_on,2,0,0,,0,,,72,127
12463,note_off,107,0,0,,0,,,72,127
12465,note_on,2,0,0,,12,,,71,127
12570,note_off,105,0,0,,7,,,67,127
12572,note_off,2,0,0,,12,,,71,127
12573,note_off,1,0,0,,12,,,83,127
12574,note_on,1,0,0,,10,,,81,127
12574,note_on,0,0,0,,2,,,74,127
12681,note_off,107,0,0,,2,,,74,127
12683,note_on,2,0,0,,4,,,76,127
12790,note_off,107,0,0,,4,,,76,127
12792,note_on,2,0,0,,6,,,66,127
12792,note_on,0,0,0,,2,,,74,127
12899,note_off,107,0,0,,2,,,74,127
12901,note_on,2,0,0,,0,,,72,127
13008,note_off,107,0,0,,0,,,72,127
13010,note_on,2,0,0,,12,,,71,127
13117,note_off,107,0,0,,12,,,71,127
13119,note_on,2,0,0,,10,,,69,127
13224,note_off,105,0,0,,6,,,66,127
13226,note_off,2,0,0,,10,,,69,127
13227,note_off,1,0,0,,10,,,81,127
13228,note_on,1,0,0,,7,,,79,127
13228,note_on,0,0,0,,0,,,72,127
13335,note_off,107,0,0,,0,,,72,127
13337,note_on,2,0,0,,2,,,74,127
13444,note_off,107,0,0,,2,,,74,127
13446,note_on,2,0,0,,0,,,72,127
13446,note_on,0,0,0,,4,,,64,127
13553,note_off,107,0,0,,0,,,72,127
13555,note_on,2,0,0,,12,,,71,127
13662,note_off,107,0,0,,12,,,71,127
13664,note_on,2,0,0,,10,,,69,127
13771,note_off,107,0,0,,10,,,69,127
13773,note_on,2,0,0,,7,,,67,127
13878,note_off,105,0,0,,4,,,64,127
13880,note_off,2,0,0,,7,,,67,127
13881,note_off,1,0,0,,7,,,79,127
13882,note_on,1,0,0,,6,,,78,127
13882,note_on,0,0,0,,12,,,71,127
13989,note_off,107,0,0,,12,,,71,127
13991,note_on,2,0,0,,0,,,72,127
14098,note_off,107,0,0,,0,,,72,127
14100,note_on,2,0,0,,12,,,71,127
14100,note_on,0,0,0,,3,,,63,127
14207,note_off,107,0,0,,12,,,71,127
14209,note_on,2,0,0,,10,,,69,127
14316,note_off,107,0,0,,10,,,69,127
14318,note_on,2,0,0,,7,,,67,127
14425,note_off,107,0,0,,7,,,67,127
14427,note_on,2,0,0,,6,,,66,127
14436,note_off,9,0,0,,6,,,78,127
14532,note_off,96,0,0,,3,,,63,127
14534,note_off,2,0,0,,6,,,66,127
14536,note_on,2,0,0,,4,,,76,127
14536,note_on,0,0,0,,12,,,83,127
14643,note_off,107,0,0,,4,,,76,127
14645,note_on,2,0,0,,6,,,78,127
14752,note_off,107,0,0,,6,,,78,127
14754,note_on,2,0,0,,7,,,67,127
14754,note_on,0,0,0,,4,,,76,127
14861,note_off,107,0,0,,4,,,76,127
14863,note_on,2,0,0,,2,,,74,127
14970,note_off,107,0,0,,2,,,74,127
14972,note_on,2,0,0,,0,,,72,127
15079,note_off,107,0,0,,0,,,72,127
15081,note_on,2,0,0,,12,,,71,127
15186,note_off,105,0,0,,7,,,67,127
15188,note_off,2,0,0,,12,,,71,127
15189,note_off,1,0,0,,12,,,83,127
15190,note_on,1,0,0,,2,,,74,127
15190,note_on,0,0,0,,10,,,81,127
15297,note_off,107,0,0,,2,,,74,127
15299,note_on,2,0,0,,4,,,76,127
15406,note_off,107,0,0,,4,,,76,127
15408,note_on,2,0,0,,2,,,74,127
15408,note_on,0,0,0,,6,,,66,127
15515,note_off,107,0,0,,2,,,74,127
15517,note_on,2,0,0,,0,,,72,127
15624,note_off,107,0,0,,0,,,72,127
15626,note_on,2,0,0,,12,,,71,127
15733,note_off,107,0,0,,12,,,71,127
15735,note_on,2,0,0,,10,,,69,127
15840,note_off,105,0,0,,6,,,66,127
15842,note_off,2,0,0,,10,,,69,127
15843,note_off,1,0,0,,10,,,81,127
15844,note_on,1,0,0,,7,,,79,127
15844,note_on,0,0,0,,0,,,72,127
15951,note_off,107,0,0,,0,,,72,127
15953,note_on,2,0,0,,2,,,74,127
16060,note_off,107,0,0,,2,,,74,127
16062,note_on,2,0,0,,4,,,64,127
16062,note_on,0,0,0,,0,,,72,127
16169,note_off,107,0,0,,0,,,72,127
16171,note_on,2,0,0,,12,,,71,127
16278,note_off,107,0,0,,12,,,71,127
16280,note_on,2,0,0,,10,,,69,127
16387,note_off,107,0,0,,10,,,69,127
16389,note_on,2,0,0,,7,,,67,127
16494,note_off,105,0,0,,4,,,64,127
16496,note_off,2,0,0,,7,,,67,127
16497,note_off,1,0,0,,7,,,79,127
16498,note_on,1,0,0,,6,,,78,127
16498,note_on,0,0,0,,12,,,71,127
16605,note_off,107,0,0,,12,,,71,127
16607,note_on,2,0,0,,0,,,72,127
16714,note_off,107,0,0,,0,,,72,127
16716,note_on,2,0,0,,12,,,71,127
16716,note_on,0,0,0,,3,,,63,127
16823,note_off,107,0,0,,12,,,71,127
16825,note_on,2,0,0,,10,,,69,127
16932,note_off,107,0,0,,10,,,69,127
16934,note_on,2,0,0,,7,,,67,127
17041,note_off,107,0,0,,7,,,67,127
17043,note_on,2,0,0,,6,,,66,127
17148,note_off,105,0,0,,3,,,63,127
17150,note_off,2,0,0,,6,,,66,127
17151,note_off,1,0,0,,6,,,78,127
17152,note_on,1,0,0,,4,,,64,127
17152,note_on,0,0,0,,7,,,67,127
17259,note_off,107,0,0,,4,,,64,127
17261,note_on,2,0,0,,6,,,66,127
17368,note_off,107,0,0,,6,,,66,127
17368,note_off,0,0,0,,7,,,67,127
17370,note_on,2,0,0,,4,,,64,127
17370,note_on,0,0,0,,10,,,69,127
17477,note_off,107,0,0,,4,,,64,127
17479,note_on,2,0,0,,2,,,62,127
17586,note_off,107,0,0,,2,,,62,127
17586,note_off,0,0,0,,10,,,69,127
17588,note_on,2,0,0,,0,,,60,127
17588,note_on,0,0,0,,12,,,71,127
17695,note_off,107,0,0,,0,,,60,127
17697,note_on,2,0,0,,12,,,59,127
17804,note_off,107,0,0,,12,,,59,127
17804,note_off,0,0,0,,12,,,71,127
17806,note_on,2,0,0,,10,,,57,127
17806,note_on,0,0,0,,0,,,72,127
17913,note_off,107,0,0,,10,,,57,127
17915,note_on,2,0,0,,12,,,59,127
18022,note_off,107,0,0,,12,,,59,127
18024,note_on,2,0,0,,10,,,57,127
18131,note_off,107,0,0,,10,,,57,127
18133,note_on,2,0,0,,7,,,55,127
18240,note_off,107,0,0,,7,,,55,127
18242,note_on,2,0,0,,6,,,54,127
18349,note_off,107,0,0,,6,,,54,127
18351,note_on,2,0,0,,4,,,52,127
18458,note_off,107,0,0,,4,,,52,127
18460,note_on,2,0,0,,3,,,51,127
18567,note_off,107,0,0,,0,,,72,127
18569,note_on,2,0,0,,0,,,72,127
18676,note_off,107,0,0,,0,,,72,127
18678,note_on,2,0,0,,12,,,71,127
18785,note_off,107,0,0,,12,,,71,127
18787,note_on,2,0,0,,10,,,69,127
18894,note_off,107,0,0,,10,,,69,127
18896,note_on,2,0,0,,7,,,67,127
19003,note_off,107,0,0,,7,,,67,127
19005,note_on,2,0,0,,6,,,66,127
19112,note_off,107,0,0,,6,,,66,127
19112,note_off,0,0,0,,3,,,51,127
19114,note_on,2,0,0,,4,,,52,127
19114,note_on,0,0,0,,7,,,67,127
19221,note_off,107,0,0,,7,,,67,127
19223,note_on,2,0,0,,12,,,71,127
19330,note_off,107,0,0,,12,,,71,127
19330,note_off,0,0,0,,4,,,52,127
19332,note_on,2,0,0,,2,,,50,127
19332,note_on,0,0,0,,10,,,69,127
19439,note_off,107,0,0,,10,,,69,127
19441,note_on,2,0,0,,7,,,67,127
19548,note_off,107,0,0,,7,,,67,127
19548,note_off,0,0,0,,2,,,50,127
19550,note_on,2,0,0,,0,,,48,127
19550,note_on,0,0,0,,6,,,66,127
19657,note_off,107,0,0,,6,,,66,127
19659,note_on,2,0,0,,4,,,64,127
19766,note_off,107,0,0,,4,,,64,127
19766,note_off,0,0,0,,0,,,48,127
19768,note_on,2,0,0,,12,,,47,127
19768,note_on,0,0,0,,12,,,59,127
19768,note_on,0,0,0,,12,,,71,127
19878,note_on,110,0,0,,4,,,64,127
19905,note_off,27,0,0,,12,,,71,127
19985,note_off,80,0,0,,4,,,64,127
19987,note_on,2,0,0,,6,,,66,127
20094,note_off,107,0,0,,6,,,66,127
20096,note_on,2,0,0,,3,,,63,127
20203,note_off,107,0,0,,3,,,63,127
20203,note_off,0,0,0,,12,,,59,127
20203,note_off,0,0,0,,12,,,47,127
20205,note_on,2,0,0,,0,,,48,127
20205,note_on,0,0,0,,10,,,57,127
20205,note_on,0,0,0,,4,,,52,127
20205,note_on,0,0,0,,4,,,64,127
20315,note_on,110,0,0,,10,,,69,127
20422,note_off,107,0,0,,10,,,69,127
20422,note_off,0,0,0,,4,,,64,127
20422,note_off,0,0,0,,4,,,52,127
20422,note_off,0,0,0,,10,,,57,127
20422,note_off,0,0,0,,0,,,48,127
20424,note_on,2,0,0,,12,,,47,127
20424,note_on,0,0,0,,12,,,59,127
20424,note_on,0,0,0,,6,,,54,127
20424,note_on,0,0,0,,12,,,71,127
20534,note_on,110,0,0,,4,,,64,127
20584,note_off,50,0,0,,12,,,71,127
20641,note_off,57,0,0,,4,,,64,127
20643,note_on,2,0,0,,6,,,66,127
20750,note_off,107,0,0,,6,,,66,127
20752,note_on,2,0,0,,3,,,63,127
20859,note_off,107,0,0,,3,,,63,127
20859,note_off,0,0,0,,6,,,54,127
20859,note_off,0,0,0,,12,,,59,127
20859,note_off,0,0,0,,12,,,47,127
20861,note_on,2,0,0,,0,,,48,127
20861,note_on,0,0,0,,10,,,57,127
20861,note_on,0,0,0,,4,,,52,127
20861,note_on,0,0,0,,4,,,64,127
20971,note_on,110,0,0,,10,,,69,127
21078,note_off,107,0,0,,10,,,69,127
21078,note_off,0,0,0,,4,,,64,127
21078,note_off,0,0,0,,4,,,52,127
21078,note_off,0,0,0,,10,,,57,127
21078,note_off,0,0,0,,0,,,48,127
21080,note_on,2,0,0,,6,,,54,127
21080,note_on,0,0,0,,12,,,59,127
21080,note_on,0,0,0,,12,,,47,127
21080,note_on,0,0,0,,12,,,71,127
21190,note_on,110,0,0,,4,,,64,127
21263,note_off,73,0,0,,12,,,71,127
21297,note_off,34,0,0,,4,,,64,127
21299,note_on,2,0,0,,6,,,66,127
21406,note_off,107,0,0,,6,,,66,127
21408,note_on,2,0,0,,3,,,63,127
21515,note_off,107,0,0,,3,,,63,127
21515,note_off,0,0,0,,12,,,47,127
21515,note_off,0,0,0,,12,,,59,127
21515,note_off,0,0,0,,6,,,54,127
21517,note_on,2,0,0,,0,,,48,127
21517,note_on,0,0,0,,10,,,57,127
21517,note_on,0,0,0,,4,,,52,127
21517,note_on,0,0,0,,4,,,64,127
21627,note_on,110,0,0,,10,,,69,127
21734,note_off,107,0,0,,10,,,69,127
21734,note_off,0,0,0,,4,,,64,127
21734,note_off,0,0,0,,4,,,52,127
21734,note_off,0,0,0,,10,,,57,127
21734,note_off,0,0,0,,0,,,48,127
21736,note_on,2,0,0,,12,,,47,127
21736,note_on,0,0,0,,12,,,59,127
21736,note_on,0,0,0,,12,,,71,127
21846,note_on,110,0,0,,6,,,66,127
21953,note_off,107,0,0,,6,,,66,127
21955,note_on,2,0,0,,3,,,63,127
22056,note_off,101,0,0,,12,,,71,127
22056,note_off,0,0,0,,12,,,59,127
22063,note_off,7,0,0,,3,,,63,127
22065,note_on,2,0,0,,12,,,59,127
22175,note_on,110,0,0,,6,,,66,127
22282,note_off,107,0,0,,6,,,66,127
22284,note_on,2,0,0,,3,,,63,127
22385,note_off,101,0,0,,12,,,59,127
22392,note_off,7,0,0,,3,,,63,127
22393,note_off,1,0,0,,12,,,47,127
22394,note_on,1,0,0,,12,,,59,127
22504,note_on,110,0,0,,6,,,54,127
22611,note_off,107,0,0,,6,,,54,127
22613,note_on,2,0,0,,3,,,51,127
22714,note_off,101,0,0,,12,,,59,127
22721,note_off,7,0,0,,3,,,51,127
22723,note_on,2,0,0,,12,,,47,127
22830,note_off,107,0,0,,12,,,47,127
22832,note_on,2,0,0,,6,,,42,127
22939,note_off,107,0,0,,6,,,42,127
22941,note_on,2,0,0,,3,,,39,127
23048,note_off,107,0,0,,3,,,39,127
23050,note_on,2,0,0,,12,,,35,127
23707,note_off,657,0,0,,12,,,35,127
23708,note_on,1,0,0,,7,,,67,127
23927,note_on,219,0,0,,7,,,55,127
24034,note_off,107,0,0,,7,,,67,127
24036,note_on,2,0,0,,10,,,69,127
24143,note_off,107,0,0,,10,,,69,127
24145,note_on,2,0,0,,12,,,71,127
24252,note_off,107,0,0,,7,,,55,127
24254,note_on,2,0,0,,10,,,57,127
24361,note_off,107,0,0,,10,,,57,127
24363,note_on,2,0,0,,12,,,59,127
24470,note_off,107,0,0,,12,,,71,127
24472,note_on,2,0,0,,0,,,72,127
24579,note_off,107,0,0,,0,,,72,127
24581,note_on,2,0,0,,2,,,74,127
24688,note_off,107,0,0,,12,,,59,127
24690,note_on,2,0,0,,0,,,60,127
24797,note_off,107,0,0,,0,,,60,127
24799,note_on,2,0,0,,2,,,62,127
24906,note_off,107,0,0,,2,,,74,127
24908,note_on,2,0,0,,4,,,76,127
25015,note_off,107,0,0,,4,,,76,127
25017,note_on,2,0,0,,6,,,78,127
25124,note_off,107,0,0,,2,,,62,127
25126,note_on,2,0,0,,4,,,64,127
25233,note_off,107,0,0,,4,,,64,127
25235,note_on,2,0,0,,6,,,66,127
25342,note_off,107,0,0,,6,,,78,127
25344,note_on,2,0,0,,7,,,79,127
25451,note_off,107,0,0,,7,,,79,127
25453,note_on,2,0,0,,10,,,81,127
25560,note_off,107,0,0,,6,,,66,127
25562,note_on,2,0,0,,7,,,67,127
25669,note_off,107,0,0,,7,,,67,127
25671,note_on,2,0,0,,10,,,69,127
25778,note_off,107,0,0,,10,,,81,127
25780,note_on,2,0,0,,12,,,83,127
25887,note_off,107,0,0,,12,,,83,127
25887,note_off,0,0,0,,10,,,69,127
25889,note_on,2,0,0,,10,,,69,127
26328,note_on,439,0,0,,10,,,57,127
26435,note_off,107,0,0,,10,,,69,127
26437,note_on,2,0,0,,12,,,71,127
26544,note_off,107,0,0,,12,,,71,127
26546,note_on,2,0,0,,0,,,72,127
26653,note_off,107,0,0,,10,,,57,127
26655,note_on,2,0,0,,12,,,59,127
26762,note_off,107,0,0,,12,,,59,127
26764,note_on,2,0,0,,0,,,60,127
26871,note_off,107,0,0,,0,,,72,127
26873,note_on,2,0,0,,2,,,74,127
26980,note_off,107,0,0,,2,,,74,127
26982,note_on,2,0,0,,4,,,76,127
27089,note_off,107,0,0,,0,,,60,127
27091,note_on,2,0,0,,2,,,62,127
27198,note_off,107,0,0,,2,,,62,127
27200,note_on,2,0,0,,4,,,64,127
27307,note_off,107,0,0,,4,,,76,127
27309,note_on,2,0,0,,6,,,78,127
27416,note_off,107,0,0,,6,,,78,127
27418,note_on,2,0,0,,7,,,79,127
27525,note_off,107,0,0,,4,,,64,127
27527,note_on,2,0,0,,6,,,66,127
27634,note_off,107,0,0,,6,,,66,127
27636,note_on,2,0,0,,7,,,67,127
27743,note_off,107,0,0,,7,,,79,127
27745,note_on,2,0,0,,10,,,81,127
27852,note_off,107,0,0,,10,,,81,127
27854,note_on,2,0,0,,12,,,83,127
27961,note_off,107,0,0,,7,,,67,127
27963,note_on,2,0,0,,10,,,69,127
28070,note_off,107,0,0,,10,,,69,127
28072,note_on,2,0,0,,12,,,71,127
28179,note_off,107,0,0,,12,,,83,127
28181,note_on,2,0,0,,1,,,85,127
28288,note_off,107,0,0,,1,,,85,127
28288,note_off,0,0,0,,12,,,71,127
28290,note_on,2,0,0,,12,,,71,127
28729,note_on,439,0,0,,12,,,59,127
28836,note_off,107,0,0,,12,,,71,127
28838,note_on,2,0,0,,1,,,73,127
28945,note_off,107,0,0,,1,,,73,127
28947,note_on,2,0,0,,2,,,74,127
29054,note_off,107,0,0,,12,,,59,127
29056,note_on,2,0,0,,1,,,61,127
29163,note_off,107,0,0,,1,,,61,127
29165,note_on,2,0,0,,2,,,62,127
29272,note_off,107,0,0,,2,,,74,127
29274,note_on,2,0,0,,4,,,76,127
29381,note_off,107,0,0,,4,,,76,127
29383,note_on,2,0,0,,6,,,78,127
29490,note_off,107,0,0,,2,,,62,127
29492,note_on,2,0,0,,4,,,64,127
29599,note_off,107,0,0,,4,,,64,127
29601,note_on,2,0,0,,6,,,66,127
29708,note_off,107,0,0,,6,,,78,127
29710,note_on,2,0,0,,7,,,79,127
29817,note_off,107,0,0,,7,,,79,127
29819,note_on,2,0,0,,6,,,78,127
29926,note_off,107,0,0,,6,,,78,127
29928,note_on,2,0,0,,4,,,76,127
30035,note_off,107,0,0,,4,,,76,127
30037,note_on,2,0,0,,2,,,74,127
30144,note_off,107,0,0,,2,,,74,127
30146,note_on,2,0,0,,1,,,73,127
30253,note_off,107,0,0,,1,,,73,127
30253,note_off,0,0,0,,6,,,66,127
30255,note_on,2,0,0,,7,,,67,127
30255,note_on,0,0,0,,12,,,71,127
30362,note_off,107,0,0,,7,,,67,127
30364,note_on,2,0,0,,10,,,69,127
30471,note_off,107,0,0,,10,,,69,127
30471,note_off,0,0,0,,12,,,71,127
30473,note_on,2,0,0,,7,,,67,127
30473,note_on,0,0,0,,1,,,73,127
30580,note_off,107,0,0,,7,,,67,127
30582,note_on,2,0,0,,6,,,66,127
30689,note_off,107,0,0,,6,,,66,127
30689,note_off,0,0,0,,1,,,73,127
30691,note_on,2,0,0,,4,,,64,127
30691,note_on,0,0,0,,2,,,74,127
30798,note_off,107,0,0,,4,,,64,127
30800,note_on,2,0,0,,2,,,62,127
30907,note_off,107,0,0,,2,,,62,127
30907,note_off,0,0,0,,2,,,74,127
30909,note_on,2,0,0,,1,,,61,127
30909,note_on,0,0,0,,4,,,76,127
31016,note_off,107,0,0,,4,,,76,127
31018,note_on,2,0,0,,6,,,78,127
31125,note_off,107,0,0,,6,,,78,127
31125,note_off,0,0,0,,1,,,61,127
31127,note_on,2,0,0,,2,,,62,127
31127,note_on,0,0,0,,4,,,76,127
31234,note_off,107,0,0,,4,,,76,127
31236,note_on,2,0,0,,2,,,74,127
31343,note_off,107,0,0,,2,,,74,127
31343,note_off,0,0,0,,2,,,62,127
31345,note_on,2,0,0,,4,,,64,127
31345,note_on,0,0,0,,1,,,73,127
31452,note_off,107,0,0,,1,,,73,127
31454,note_on,2,0,0,,12,,,71,127
31561,note_off,107,0,0,,12,,,71,127
31561,note_off,0,0,0,,4,,,64,127
31563,note_on,2,0,0,,6,,,66,127
31563,note_on,0,0,0,,12,,,71,127
31670,note_off,107,0,0,,6,,,66,127
31672,note_on,2,0,0,,7,,,67,127
31779,note_off,107,0,0,,7,,,67,127
31781,note_on,2,0,0,,6,,,66,127
31888,note_off,107,0,0,,6,,,66,127
31890,note_on,2,0,0,,4,,,64,127
31997,note_off,107,0,0,,4,,,64,127
31997,note_off,0,0,0,,12,,,71,127
31999,note_on,2,0,0,,2,,,62,127
31999,note_on,0,0,0,,11,,,70,127
32106,note_off,107,0,0,,2,,,62,127
32108,note_on,2,0,0,,1,,,61,127
32170,note_off,62,0,0,,11,,,70,127
32200,note_off,30,0,0,,1,,,61,127
32218,note_on,18,0,0,,6,,,78,127
32218,note_on,0,0,0,,12,,,71,127
32325,note_off,107,0,0,,12,,,71,127
32327,note_on,2,0,0,,1,,,73,127
32434,note_off,107,0,0,,1,,,73,127
32436,note_on,2,0,0,,2,,,62,127
32436,note_on,0,0,0,,12,,,71,127
32543,note_off,107,0,0,,12,,,71,127
32545,note_on,2,0,0,,10,,,69,127
32652,note_off,107,0,0,,10,,,69,127
32654,note_on,2,0,0,,7,,,67,127
32761,note_off,107,0,0,,7,,,67,127
32763,note_on,2,0,0,,6,,,66,127
32868,note_off,105,0,0,,2,,,62,127
32870,note_off,2,0,0,,6,,,66,127
32871,note_off,1,0,0,,6,,,78,127
32872,note_on,1,0,0,,4,,,76,127
32872,note_on,0,0,0,,10,,,69,127
32979,note_off,107,0,0,,10,,,69,127
32981,note_on,2,0,0,,12,,,71,127
33088,note_off,107,0,0,,12,,,71,127
33090,note_on,2,0,0,,1,,,61,127
33090,note_on,0,0,0,,10,,,69,127
33197,note_off,107,0,0,,10,,,69,127
33199,note_on,2,0,0,,7,,,67,127
33306,note_off,107,0,0,,7,,,67,127
33308,note_on,2,0,0,,6,,,66,127
33415,note_off,107,0,0,,6,,,66,127
33417,note_on,2,0,0,,4,,,64,127
33522,note_off,105,0,0,,1,,,61,127
33524,note_off,2,0,0,,4,,,64,127
33525,note_off,1,0,0,,4,,,76,127
33526,note_on,1,0,0,,7,,,67,127
33526,note_on,0,0,0,,2,,,74,127
33633,note_off,107,0,0,,7,,,67,127
33635,note_on,2,0,0,,10,,,69,127
33742,note_off,107,0,0,,10,,,69,127
33744,note_on,2,0,0,,12,,,59,127
33744,note_on,0,0,0,,7,,,67,127
33851,note_off,107,0,0,,7,,,67,127
33853,note_on,2,0,0,,6,,,66,127
33960,note_off,107,0,0,,6,,,66,127
33962,note_on,2,0,0,,4,,,64,127
34069,note_off,107,0,0,,4,,,64,127
34071,note_on,2,0,0,,2,,,62,127
34176,note_off,105,0,0,,12,,,59,127
34178,note_off,2,0,0,,2,,,62,127
34179,note_off,1,0,0,,2,,,74,127
34180,note_on,1,0,0,,6,,,66,127
34180,note_on,0,0,0,,1,,,73,127
34287,note_off,107,0,0,,6,,,66,127
34289,note_on,2,0,0,,7,,,67,127
34396,note_off,107,0,0,,7,,,67,127
34398,note_on,2,0,0,,11,,,58,127
34398,note_on,0,0,0,,6,,,66,127
34505,note_off,107,0,0,,6,,,66,127
34507,note_on,2,0,0,,4,,,64,127
34614,note_off,107,0,0,,4,,,64,127
34616,note_on,2,0,0,,2,,,62,127
34723,note_off,107,0,0,,2,,,62,127
34725,note_on,2,0,0,,1,,,61,127
34734,note_off,9,0,0,,1,,,73,127
34830,note_off,96,0,0,,11,,,58,127
34832,note_off,2,0,0,,1,,,61,127
34834,note_on,2,0,0,,6,,,78,127
34834,note_on,0,0,0,,12,,,71,127
34941,note_off,107,0,0,,12,,,71,127
34943,note_on,2,0,0,,1,,,73,127
35050,note_off,107,0,0,,1,,,73,127
35052,note_on,2,0,0,,12,,,71,127
35052,note_on,0,0,0,,2,,,62,127
35159,note_off,107,0,0,,12,,,71,127
35161,note_on,2,0,0,,10,,,69,127
35268,note_off,107,0,0,,10,,,69,127
35270,note_on,2,0,0,,7,,,67,127
35377,note_off,107,0,0,,7,,,67,127
35379,note_on,2,0,0,,6,,,66,127
35484,note_off,105,0,0,,2,,,62,127
35486,note_off,2,0,0,,6,,,66,127
35487,note_off,1,0,0,,6,,,78,127
35488,note_on,1,0,0,,10,,,69,127
35488,note_on,0,0,0,,4,,,76,127
35595,note_off,107,0,0,,10,,,69,127
35597,note_on,2,0,0,,12,,,71,127
35704,note_off,107,0,0,,12,,,71,127
35706,note_on,2,0,0,,10,,,69,127
35706,note_on,0,0,0,,1,,,61,127
35813,note_off,107,0,0,,10,,,69,127
35815,note_on,2,0,0,,7,,,67,127
35922,note_off,107,0,0,,7,,,67,127
35924,note_on,2,0,0,,6,,,66,127
36031,note_off,107,0,0,,6,,,66,127
36033,note_on,2,0,0,,4,,,64,127
36138,note_off,105,0,0,,1,,,61,127
36140,note_off,2,0,0,,4,,,64,127
36141,note_off,1,0,0,,4,,,76,127
36142,note_on,1,0,0,,2,,,74,127
36142,note_on,0,0,0,,7,,,67,127
36249,note_off,107,0,0,,7,,,67,127
36251,note_on,2,0,0,,10,,,69,127
36358,note_off,107,0,0,,10,,,69,127
36360,note_on,2,0,0,,7,,,67,127
36360,note_on,0,0,0,,12,,,59,127
36467,note_off,107,0,0,,7,,,67,127
36469,note_on,2,0,0,,6,,,66,127
36576,note_off,107,0,0,,6,,,66,127
36578,note_on,2,0,0,,4,,,64,127
36685,note_off,107,0,0,,4,,,64,127
36687,note_on,2,0,0,,2,,,62,127
36792,note_off,105,0,0,,12,,,59,127
36794,note_off,2,0,0,,2,,,62,127
36795,note_off,1,0,0,,2,,,74,127
36796,note_on,1,0,0,,1,,,73,127
36796,note_on,0,0,0,,6,,,66,127
36903,note_off,107,0,0,,6,,,66,127
36905,note_on,2,0,0,,7,,,67,127
37012,note_off,107,0,0,,7,,,67,127
37014,note_on,2,0,0,,6,,,66,127
37014,note_on,0,0,0,,11,,,58,127
37121,note_off,107,0,0,,6,,,66,127
37123,note_on,2,0,0,,4,,,64,127
37230,note_off,107,0,0,,4,,,64,127
37232,note_on,2,0,0,,2,,,62,127
37339,note_off,107,0,0,,2,,,62,127
37341,note_on,2,0,0,,1,,,61,127
37446,note_off,105,0,0,,11,,,58,127
37448,note_off,2,0,0,,1,,,61,127
37449,note_off,1,0,0,,1,,,73,127
37450,note_on,1,0,0,,12,,,59,127
37450,note_on,0,0,0,,2,,,62,127
37557,note_off,107,0,0,,12,,,59,127
37559,note_on,2,0,0,,1,,,61,127
37666,note_off,107,0,0,,1,,,61,127
37666,note_off,0,0,0,,2,,,62,127
37668,note_on,2,0,0,,12,,,59,127
37668,note_on,0,0,0,,4,,,64,127
37775,note_off,107,0,0,,12,,,59,127
37777,note_on,2,0,0,,10,,,57,127
37884,note_off,107,0,0,,10,,,57,127
37884,note_off,0,0,0,,4,,,64,127
37886,note_on,2,0,0,,7,,,55,127
37886,note_on,0,0,0,,6,,,66,127
37993,note_off,107,0,0,,7,,,55,127
37995,note_on,2,0,0,,6,,,54,127
38102,note_off,107,0,0,,6,,,54,127
38102,note_off,0,0,0,,6,,,66,127
38104,note_on,2,0,0,,4,,,52,127
38104,note_on,0,0,0,,7,,,67,127
38211,note_off,107,0,0,,4,,,52,127
38213,note_on,2,0,0,,6,,,54,127
38320,note_off,107,0,0,,6,,,54,127
38320,note_off,0,0,0,,7,,,67,127
38322,note_on,2,0,0,,4,,,52,127
38322,note_on,0,0,0,,4,,,64,127
38429,note_off,107,0,0,,4,,,52,127
38431,note_on,2,0,0,,2,,,50,127
38538,note_off,107,0,0,,2,,,50,127
38538,note_off,0,0,0,,4,,,64,127
38540,note_on,2,0,0,,1,,,49,127
38540,note_on,0,0,0,,6,,,66,127
38647,note_off,107,0,0,,1,,,49,127
38649,note_on,2,0,0,,12,,,47,127
38756,note_off,107,0,0,,12,,,47,127
38756,note_off,0,0,0,,6,,,66,127
38758,note_on,2,0,0,,11,,,46,127
38758,note_on,0,0,0,,7,,,67,127
38865,note_off,107,0,0,,7,,,67,127
38867,note_on,2,0,0,,7,,,67,127
38974,note_off,107,0,0,,7,,,67,127
38976,note_on,2,0,0,,6,,,66,127
39083,note_off,107,0,0,,6,,,66,127
39085,note_on,2,0,0,,4,,,64,127
39192,note_off,107,0,0,,4,,,64,127
39194,note_on,2,0,0,,2,,,62,127
39301,note_off,107,0,0,,2,,,62,127
39303,note_on,2,0,0,,1,,,61,127
39410,note_off,107,0,0,,1,,,61,127
39410,note_off,0,0,0,,11,,,46,127
39412,note_on,2,0,0,,12,,,47,127
39412,note_on,0,0,0,,2,,,62,127
39519,note_off,107,0,0,,2,,,62,127
39521,note_on,2,0,0,,6,,,66,127
39628,note_off,107,0,0,,6,,,66,127
39628,note_off,0,0,0,,12,,,47,127
39630,note_on,2,0,0,,10,,,45,127
39630,note_on,0,0,0,,12,,,71,127
39737,note_off,107,0,0,,12,,,71,127
39739,note_on,2,0,0,,11,,,70,127
39846,note_off,107,0,0,,11,,,70,127
39846,note_off,0,0,0,,10,,,45,127
39848,note_on,2,0,0,,7,,,43,127
39848,note_on,0,0,0,,12,,,71,127
39955,note_off,107,0,0,,12,,,71,127
39957,note_on,2,0,0,,1,,,73,127
40064,note_off,107,0,0,,1,,,73,127
40064,note_off,0,0,0,,7,,,43,127
40066,note_on,2,0,0,,6,,,42,127
40066,note_on,0,0,0,,6,,,54,127
40066,note_on,0,0,0,,11,,,70,127
40173,note_off,107,0,0,,11,,,70,127
40175,note_on,2,0,0,,6,,,66,127
40282,note_off,107,0,0,,6,,,66,127
40284,note_on,2,0,0,,12,,,71,127
40391,note_off,107,0,0,,12,,,71,127
40393,note_on,2,0,0,,11,,,70,127
40500,note_off,107,0,0,,11,,,70,127
40500,note_off,0,0,0,,6,,,54,127
40500,note_off,0,0,0,,6,,,42,127
40502,note_on,2,0,0,,7,,,43,127
40502,note_on,0,0,0,,4,,,52,127
40502,note_on,0,0,0,,12,,,47,127
40502,note_on,0,0,0,,12,,,71,127
40609,note_off,107,0,0,,12,,,71,127
40611,note_on,2,0,0,,1,,,73,127
40718,note_off,107,0,0,,1,,,73,127
40718,note_off,0,0,0,,12,,,47,127
40718,note_off,0,0,0,,4,,,52,127
40718,note_off,0,0,0,,7,,,43,127
40720,note_on,2,0,0,,6,,,42,127
40720,note_on,0,0,0,,1,,,49,127
40720,note_on,0,0,0,,6,,,54,127
40720,note_on,0,0,0,,11,,,70,127
40827,note_off,107,0,0,,11,,,70,127
40829,note_on,2,0,0,,6,,,66,127
40936,note_off,107,0,0,,6,,,66,127
40938,note_on,2,0,0,,2,,,74,127
41048,note_on,110,0,0,,11,,,70,127
41098,note_off,50,0,0,,2,,,74,127
41155,note_off,57,0,0,,11,,,70,127
41155,note_off,0,0,0,,6,,,54,127
41155,note_off,0,0,0,,1,,,49,127
41155,note_off,0,0,0,,6,,,42,127
41157,note_on,2,0,0,,4,,,52,127
41157,note_on,0,0,0,,7,,,43,127
41157,note_on,0,0,0,,12,,,47,127
41157,note_on,0,0,0,,12,,,71,127
41264,note_off,107,0,0,,12,,,71,127
41266,note_on,2,0,0,,1,,,73,127
41373,note_off,107,0,0,,1,,,73,127
41373,note_off,0,0,0,,12,,,47,127
41373,note_off,0,0,0,,7,,,43,127
41373,note_off,0,0,0,,4,,,52,127
41375,note_on,2,0,0,,6,,,42,127
41375,note_on,0,0,0,,6,,,54,127
41375,note_on,0,0,0,,1,,,49,127
41375,note_on,0,0,0,,11,,,70,127
41482,note_off,107,0,0,,11,,,70,127
41484,note_on,2,0,0,,6,,,66,127
41591,note_off,107,0,0,,6,,,66,127
41593,note_on,2,0,0,,2,,,74,127
41703,note_on,110,0,0,,11,,,70,127
41788,note_off,85,0,0,,2,,,74,127
41811,note_off,23,0,0,,11,,,70,127
41811,note_off,0,0,0,,1,,,49,127
41811,note_off,0,0,0,,6,,,54,127
41811,note_off,0,0,0,,6,,,42,127
41813,note_on,2,0,0,,12,,,47,127
41813,note_on,0,0,0,,7,,,43,127
41813,note_on,0,0,0,,4,,,52,127
41813,note_on,0,0,0,,12,,,71,127
41920,note_off,107,0,0,,12,,,71,127
41922,note_on,2,0,0,,1,,,73,127
42029,note_off,107,0,0,,1,,,73,127
42029,note_off,0,0,0,,4,,,52,127
42029,note_off,0,0,0,,7,,,43,127
42029,note_off,0,0,0,,12,,,47,127
42031,note_on,2,0,0,,6,,,42,127
42031,note_on,0,0,0,,6,,,54,127
42031,note_on,0,0,0,,1,,,49,127
42031,note_on,0,0,0,,11,,,70,127
42138,note_off,107,0,0,,11,,,70,127
42140,note_on,2,0,0,,6,,,66,127
42247,note_off,107,0,0,,6,,,66,127
42249,note_on,2,0,0,,4,,,76,127
42356,note_off,107,0,0,,4,,,76,127
42358,note_on,2,0,0,,11,,,70,127
42465,note_off,107,0,0,,11,,,70,127
42465,note_off,0,0,0,,1,,,49,127
42465,note_off,0,0,0,,6,,,54,127
42465,note_off,0,0,0,,6,,,42,127
42467,note_on,2,0,0,,7,,,43,127
42467,note_on,0,0,0,,5,,,77,127
42574,note_off,107,0,0,,5,,,77,127
42576,note_on,2,0,0,,12,,,71,127
42683,note_off,107,0,0,,12,,,71,127
42683,note_off,0,0,0,,7,,,43,127
42685,note_on,2,0,0,,6,,,42,127
42685,note_on,0,0,0,,6,,,78,127
42795,note_on,110,0,0,,1,,,73,127
42902,note_off,107,0,0,,1,,,73,127
42902,note_off,0,0,0,,6,,,78,127
42904,note_on,2,0,0,,11,,,70,127
43011,note_off,107,0,0,,11,,,70,127
43013,note_on,2,0,0,,6,,,66,127
43120,note_off,107,0,0,,6,,,66,127
43122,note_on,2,0,0,,1,,,73,127
43229,note_off,107,0,0,,1,,,73,127
43231,note_on,2,0,0,,11,,,70,127
43338,note_off,107,0,0,,11,,,70,127
43339,note_off,1,0,0,,6,,,42,127
43340,note_on,1,0,0,,6,,,66,127
43450,note_on,110,0,0,,1,,,61,127
43557,note_off,107,0,0,,1,,,61,127
43557,note_off,0,0,0,,6,,,66,127
43559,note_on,2,0,0,,11,,,58,127
43666,note_off,107,0,0,,11,,,58,127
43668,note_on,2,0,0,,6,,,54,127
43775,note_off,107,0,0,,6,,,54,127
43777,note_on,2,0,0,,1,,,49,127
43884,note_off,107,0,0,,1,,,49,127
43886,note_on,2,0,0,,11,,,46,127
43993,note_off,107,0,0,,11,,,46,127
43995,note_on,2,0,0,,6,,,42,127
44651,note_off,656,0,0,,6,,,42,127
44653,note_on,2,0,0,,6,,,66,127
44763,note_on,110,0,0,,1,,,73,127
44870,note_off,107,0,0,,1,,,73,127
44870,note_off,0,0,0,,6,,,66,127
44872,note_on,2,0,0,,6,,,66,127
44872,note_on,0,0,0,,11,,,70,127
44979,note_off,107,0,0,,11,,,70,127
44981,note_on,2,0,0,,12,,,71,127
45088,note_off,107,0,0,,12,,,71,127
45088,note_off,0,0,0,,6,,,66,127
45090,note_on,2,0,0,,6,,,66,127
45090,note_on,0,0,0,,1,,,73,127
45197,note_off,107,0,0,,1,,,73,127
45199,note_on,2,0,0,,2,,,74,127
45306,note_off,107,0,0,,2,,,74,127
45306,note_off,0,0,0,,6,,,66,127
45308,note_on,2,0,0,,7,,,67,127
45308,note_on,0,0,0,,4,,,64,127
45308,note_on,0,0,0,,4,,,76,127
45415,note_off,107,0,0,,4,,,76,127
45417,note_on,2,0,0,,6,,,78,127
45524,note_off,107,0,0,,6,,,78,127
45524,note_off,0,0,0,,4,,,64,127
45524,note_off,0,0,0,,7,,,67,127
45526,note_on,2,0,0,,4,,,64,127
45526,note_on,0,0,0,,7,,,67,127
45526,note_on,0,0,0,,7,,,79,127
45633,note_off,107,0,0,,7,,,79,127
45635,note_on,2,0,0,,1,,,85,127
45742,note_off,107,0,0,,1,,,85,127
45742,note_off,0,0,0,,7,,,67,127
45742,note_off,0,0,0,,4,,,64,127
45744,note_on,2,0,0,,7,,,67,127
45744,note_on,0,0,0,,4,,,64,127
45744,note_on,0,0,0,,11,,,82,127
45961,note_off,217,0,0,,11,,,82,127
45961,note_off,0,0,0,,4,,,64,127
45961,note_off,0,0,0,,7,,,67,127
45963,note_on,2,0,0,,7,,,67,127
45963,note_on,0,0,0,,4,,,64,127
46073,note_on,110,0,0,,4,,,76,127
46180,note_off,107,0,0,,4,,,76,127
46180,note_off,0,0,0,,4,,,64,127
46180,note_off,0,0,0,,7,,,67,127
46182,note_on,2,0,0,,7,,,67,127
46182,note_on,0,0,0,,4,,,64,127
46182,note_on,0,0,0,,2,,,74,127
46289,note_off,107,0,0,,2,,,74,127
46291,note_on,2,0,0,,1,,,73,127
46398,note_off,107,0,0,,1,,,73,127
46398,note_off,0,0,0,,4,,,64,127
46398,note_off,0,0,0,,7,,,67,127
46400,note_on,2,0,0,,7,,,67,127
46400,note_on,0,0,0,,4,,,64,127
46400,note_on,0,0,0,,12,,,71,127
46507,note_off,107,0,0,,12,,,71,127
46509,note_on,2,0,0,,11,,,70,127
46616,note_off,107,0,0,,11,,,70,127
46616,note_off,0,0,0,,4,,,64,127
46616,note_off,0,0,0,,7,,,67,127
46618,note_on,2,0,0,,6,,,66,127
46618,note_on,0,0,0,,2,,,62,127
46618,note_on,0,0,0,,12,,,71,127
46725,note_off,107,0,0,,12,,,71,127
46727,note_on,2,0,0,,1,,,73,127
46834,note_off,107,0,0,,1,,,73,127
46834,note_off,0,0,0,,2,,,62,127
46834,note_off,0,0,0,,6,,,66,127
46836,note_on,2,0,0,,6,,,66,127
46836,note_on,0,0,0,,2,,,62,127
46836,note_on,0,0,0,,2,,,74,127
46943,note_off,107,0,0,,2,,,74,127
46945,note_on,2,0,0,,11,,,82,127
47052,note_off,107,0,0,,11,,,82,127
47052,note_off,0,0,0,,2,,,62,127
47052,note_off,0,0,0,,6,,,66,127
47054,note_on,2,0,0,,6,,,66,127
47054,note_on,0,0,0,,2,,,62,127
47054,note_on,0,0,0,,12,,,83,127
47271,note_off,217,0,0,,2,,,62,127
47271,note_off,0,0,0,,6,,,66,127
47273,note_on,2,0,0,,7,,,67,127
47273,note_on,0,0,0,,4,,,64,127
47305,note_off,32,0,0,,12,,,83,127
47383,note_on,78,0,0,,4,,,76,127
47490,note_off,107,0,0,,4,,,76,127
47490,note_off,0,0,0,,4,,,64,127
47490,note_off,0,0,0,,7,,,67,127
47492,note_on,2,0,0,,7,,,67,127
47492,note_on,0,0,0,,4,,,64,127
47492,note_on,0,0,0,,2,,,74,127
47599,note_off,107,0,0,,2,,,74,127
47601,note_on,2,0,0,,1,,,73,127
47708,note_off,107,0,0,,1,,,73,127
47708,note_off,0,0,0,,4,,,64,127
47708,note_off,0,0,0,,7,,,67,127
47710,note_on,2,0,0,,7,,,67,127
47710,note_on,0,0,0,,4,,,64,127
47710,note_on,0,0,0,,12,,,71,127
47817,note_off,107,0,0,,12,,,71,127
47819,note_on,2,0,0,,11,,,70,127
47926,note_off,107,0,0,,11,,,70,127
47926,note_off,0,0,0,,4,,,64,127
47926,note_off,0,0,0,,7,,,67,127
47928,note_on,2,0,0,,2,,,62,127
47928,note_on,0,0,0,,6,,,66,127
47928,note_on,0,0,0,,12,,,71,127
48035,note_off,107,0,0,,12,,,71,127
48037,note_on,2,0,0,,1,,,73,127
48144,note_off,107,0,0,,1,,,73,127
48144,note_off,0,0,0,,6,,,66,127
48144,note_off,0,0,0,,2,,,62,127
48146,note_on,2,0,0,,6,,,66,127
48146,note_on,0,0,0,,2,,,62,127
48146,note_on,0,0,0,,2,,,74,127
48253,note_off,107,0,0,,2,,,74,127
48255,note_on,2,0,0,,11,,,82,127
48362,note_off,107,0,0,,11,,,82,127
48362,note_off,0,0,0,,2,,,62,127
48362,note_off,0,0,0,,6,,,66,127
48364,note_on,2,0,0,,6,,,66,127
48364,note_on,0,0,0,,2,,,62,127
48364,note_on,0,0,0,,12,,,83,127
48581,note_off,217,0,0,,2,,,62,127
48581,note_off,0,0,0,,6,,,66,127
48583,note_on,2,0,0,,1,,,61,127
48583,note_on,0,0,0,,5,,,65,127
48626,note_off,43,0,0,,12,,,83,127
48692,note_on,66,0,0,,2,,,74,127
48799,note_off,107,0,0,,2,,,74,127
48799,note_off,0,0,0,,5,,,65,127
48799,note_off,0,0,0,,1,,,61,127
48801,note_on,2,0,0,,5,,,65,127
48801,note_on,0,0,0,,1,,,61,127
48801,note_on,0,0,0,,1,,,73,127
48908,note_off,107,0,0,,1,,,73,127
48910,note_on,2,0,0,,12,,,71,127
49017,note_off,107,0,0,,12,,,71,127
49017,note_off,0,0,0,,1,,,61,127
49017,note_off,0,0,0,,5,,,65,127
49019,note_on,2,0,0,,5,,,65,127
49019,note_on,0,0,0,,1,,,61,127
49019,note_on,0,0,0,,10,,,69,127
49126,note_off,107,0,0,,10,,,69,127
49128,note_on,2,0,0,,8,,,68,127
49235,note_off,107,0,0,,8,,,68,127
49235,note_off,0,0,0,,1,,,61,127
49235,note_off,0,0,0,,5,,,65,127
49237,note_on,2,0,0,,1,,,61,127
49237,note_on,0,0,0,,6,,,66,127
49237,note_on,0,0,0,,10,,,69,127
49344,note_off,107,0,0,,10,,,69,127
49346,note_on,2,0,0,,12,,,71,127
49453,note_off,107,0,0,,12,,,71,127
49453,note_off,0,0,0,,6,,,66,127
49453,note_off,0,0,0,,1,,,61,127
49455,note_on,2,0,0,,1,,,61,127
49455,note_on,0,0,0,,6,,,66,127
49455,note_on,0,0,0,,1,,,73,127
49562,note_off,107,0,0,,1,,,73,127
49564,note_on,2,0,0,,8,,,80,127
49671,note_off,107,0,0,,8,,,80,127
49671,note_off,0,0,0,,6,,,66,127
49671,note_off,0,0,0,,1,,,61,127
49673,note_on,2,0,0,,6,,,66,127
49673,note_on,0,0,0,,1,,,61,127
49673,note_on,0,0,0,,10,,,81,127
49890,note_off,217,0,0,,1,,,61,127
49890,note_off,0,0,0,,6,,,66,127
49892,note_on,2,0,0,,5,,,65,127
49892,note_on,0,0,0,,1,,,61,127
49947,note_off,55,0,0,,10,,,81,127
50002,note_on,55,0,0,,1,,,73,127
50109,note_off,107,0,0,,1,,,73,127
50109,note_off,0,0,0,,1,,,61,127
50109,note_off,0,0,0,,5,,,65,127
50111,note_on,2,0,0,,5,,,65,127
50111,note_on,0,0,0,,1,,,61,127
50111,note_on,0,0,0,,12,,,71,127
50218,note_off,107,0,0,,12,,,71,127
50220,note_on,2,0,0,,10,,,69,127
50327,note_off,107,0,0,,10,,,69,127
50327,note_off,0,0,0,,1,,,61,127
50327,note_off,0,0,0,,5,,,65,127
50329,note_on,2,0,0,,1,,,61,127
50329,note_on,0,0,0,,7,,,67,127
50436,note_off,107,0,0,,7,,,67,127
50438,note_on,2,0,0,,6,,,66,127
50545,note_off,107,0,0,,6,,,66,127
50545,note_off,0,0,0,,1,,,61,127
50547,note_on,2,0,0,,4,,,64,127
50547,note_on,0,0,0,,12,,,59,127
50547,note_on,0,0,0,,7,,,67,127
50654,note_off,107,0,0,,7,,,67,127
50656,note_on,2,0,0,,12,,,71,127
50763,note_off,107,0,0,,12,,,71,127
50763,note_off,0,0,0,,12,,,59,127
50763,note_off,0,0,0,,4,,,64,127
50765,note_on,2,0,0,,4,,,64,127
50765,note_on,0,0,0,,12,,,59,127
50765,note_on,0,0,0,,1,,,73,127
50872,note_off,107,0,0,,1,,,73,127
50874,note_on,2,0,0,,4,,,76,127
50981,note_off,107,0,0,,4,,,76,127
50981,note_off,0,0,0,,12,,,59,127
50981,note_off,0,0,0,,4,,,64,127
50983,note_on,2,0,0,,12,,,59,127
50983,note_on,0,0,0,,4,,,64,127
50983,note_on,0,0,0,,7,,,79,127
51200,note_off,217,0,0,,4,,,64,127
51200,note_off,0,0,0,,12,,,59,127
51202,note_on,2,0,0,,4,,,64,127
51202,note_on,0,0,0,,12,,,59,127
51268,note_off,66,0,0,,7,,,79,127
51311,note_on,43,0,0,,1,,,73,127
51418,note_off,107,0,0,,1,,,73,127
51418,note_off,0,0,0,,12,,,59,127
51418,note_off,0,0,0,,4,,,64,127
51420,note_on,2,0,0,,12,,,59,127
51420,note_on,0,0,0,,4,,,64,127
51420,note_on,0,0,0,,12,,,71,127
51527,note_off,107,0,0,,12,,,71,127
51529,note_on,2,0,0,,10,,,69,127
51636,note_off,107,0,0,,10,,,69,127
51636,note_off,0,0,0,,4,,,64,127
51636,note_off,0,0,0,,12,,,59,127
51638,note_on,2,0,0,,12,,,59,127
51638,note_on,0,0,0,,4,,,64,127
51638,note_on,0,0,0,,7,,,67,127
51745,note_off,107,0,0,,7,,,67,127
51747,note_on,2,0,0,,6,,,66,127
51854,note_off,107,0,0,,6,,,66,127
51854,note_off,0,0,0,,4,,,64,127
51854,note_off,0,0,0,,12,,,59,127
51856,note_on,2,0,0,,10,,,57,127
51856,note_on,0,0,0,,4,,,64,127
51856,note_on,0,0,0,,7,,,67,127
51963,note_off,107,0,0,,7,,,67,127
51965,note_on,2,0,0,,10,,,69,127
52072,note_off,107,0,0,,10,,,69,127
52072,note_off,0,0,0,,4,,,64,127
52072,note_off,0,0,0,,10,,,57,127
52074,note_on,2,0,0,,10,,,57,127
52074,note_on,0,0,0,,4,,,64,127
52074,note_on,0,0,0,,1,,,73,127
52181,note_off,107,0,0,,1,,,73,127
52183,note_on,2,0,0,,4,,,76,127
52290,note_off,107,0,0,,4,,,76,127
52290,note_off,0,0,0,,4,,,64,127
52290,note_off,0,0,0,,10,,,57,127
52292,note_on,2,0,0,,4,,,64,127
52292,note_on,0,0,0,,10,,,57,127
52292,note_on,0,0,0,,7,,,79,127
52509,note_off,217,0,0,,10,,,57,127
52509,note_off,0,0,0,,4,,,64,127
52511,note_on,2,0,0,,4,,,64,127
52511,note_on,0,0,0,,10,,,57,127
52612,note_off,101,0,0,,7,,,79,127
52621,note_on,9,0,0,,12,,,71,127
52728,note_off,107,0,0,,12,,,71,127
52728,note_off,0,0,0,,10,,,57,127
52728,note_off,0,0,0,,4,,,64,127
52730,note_on,2,0,0,,4,,,64,127
52730,note_on,0,0,0,,10,,,57,127
52730,note_on,0,0,0,,10,,,69,127
52837,note_off,107,0,0,,10,,,69,127
52839,note_on,2,0,0,,7,,,67,127
52946,note_off,107,0,0,,7,,,67,127
52946,note_off,0,0,0,,10,,,57,127
52946,note_off,0,0,0,,4,,,64,127
52948,note_on,2,0,0,,10,,,57,127
52948,note_on,0,0,0,,6,,,66,127
53055,note_off,107,0,0,,6,,,66,127
53057,note_on,2,0,0,,4,,,64,127
53164,note_off,107,0,0,,4,,,64,127
53164,note_off,0,0,0,,10,,,57,127
53166,note_on,2,0,0,,1,,,61,127
53166,note_on,0,0,0,,11,,,58,127
53166,note_on,0,0,0,,6,,,66,127
53273,note_off,107,0,0,,6,,,66,127
53275,note_on,2,0,0,,8,,,68,127
53382,note_off,107,0,0,,8,,,68,127
53382,note_off,0,0,0,,11,,,58,127
53382,note_off,0,0,0,,1,,,61,127
53384,note_on,2,0,0,,11,,,58,127
53384,note_on,0,0,0,,1,,,61,127
53384,note_on,0,0,0,,11,,,70,127
53491,note_off,107,0,0,,11,,,70,127
53493,note_on,2,0,0,,12,,,71,127
53600,note_off,107,0,0,,12,,,71,127
53600,note_off,0,0,0,,1,,,61,127
53600,note_off,0,0,0,,11,,,58,127
53602,note_on,2,0,0,,1,,,61,127
53602,note_on,0,0,0,,11,,,58,127
53602,note_on,0,0,0,,1,,,73,127
53709,note_off,107,0,0,,1,,,73,127
53711,note_on,2,0,0,,2,,,74,127
53818,note_off,107,0,0,,2,,,74,127
53818,note_off,0,0,0,,11,,,58,127
53818,note_off,0,0,0,,1,,,61,127
53820,note_on,2,0,0,,11,,,58,127
53820,note_on,0,0,0,,4,,,76,127
53927,note_off,107,0,0,,4,,,76,127
53929,note_on,2,0,0,,1,,,73,127
54036,note_off,107,0,0,,1,,,73,127
54036,note_off,0,0,0,,11,,,58,127
54038,note_on,2,0,0,,8,,,56,127
54038,note_on,0,0,0,,6,,,78,127
54145,note_off,107,0,0,,6,,,78,127
54147,note_on,2,0,0,,4,,,76,127
54254,note_off,107,0,0,,4,,,76,127
54254,note_off,0,0,0,,8,,,56,127
54256,note_on,2,0,0,,6,,,54,127
54256,note_on,0,0,0,,2,,,74,127
54363,note_off,107,0,0,,2,,,74,127
54365,note_on,2,0,0,,1,,,73,127
54472,note_off,107,0,0,,1,,,73,127
54472,note_off,0,0,0,,6,,,54,127
54474,note_on,2,0,0,,12,,,59,127
54474,note_on,0,0,0,,7,,,55,127
54474,note_on,0,0,0,,12,,,83,127
54584,note_on,110,0,0,,12,,,71,127
54691,note_off,107,0,0,,12,,,71,127
54691,note_off,0,0,0,,12,,,83,127
54693,note_on,2,0,0,,1,,,73,127
54800,note_off,107,0,0,,1,,,73,127
54802,note_on,2,0,0,,12,,,71,127
54909,note_off,107,0,0,,12,,,71,127
54909,note_off,0,0,0,,7,,,55,127
54909,note_off,0,0,0,,12,,,59,127
54911,note_on,2,0,0,,6,,,54,127
54911,note_on,0,0,0,,1,,,85,127
55021,note_on,110,0,0,,1,,,73,127
55128,note_off,107,0,0,,1,,,73,127
55128,note_off,0,0,0,,1,,,85,127
55128,note_off,0,0,0,,6,,,54,127
55130,note_on,2,0,0,,12,,,59,127
55130,note_on,0,0,0,,2,,,86,127
55240,note_on,110,0,0,,2,,,74,127
55347,note_off,107,0,0,,2,,,74,127
55347,note_off,0,0,0,,2,,,86,127
55349,note_on,2,0,0,,2,,,62,127
55349,note_on,0,0,0,,1,,,73,127
55456,note_off,107,0,0,,1,,,73,127
55458,note_on,2,0,0,,2,,,74,127
55563,note_off,105,0,0,,12,,,59,127
55565,note_off,2,0,0,,2,,,74,127
55565,note_off,0,0,0,,2,,,62,127
55567,note_on,2,0,0,,10,,,57,127
55567,note_on,0,0,0,,1,,,85,127
55677,note_on,110,0,0,,1,,,73,127
55784,note_off,107,0,0,,1,,,73,127
55784,note_off,0,0,0,,1,,,85,127
55784,note_off,0,0,0,,10,,,57,127
55786,note_on,2,0,0,,12,,,59,127
55786,note_on,0,0,0,,7,,,55,127
55786,note_on,0,0,0,,12,,,83,127
55896,note_on,110,0,0,,12,,,71,127
56003,note_off,107,0,0,,12,,,71,127
56003,note_off,0,0,0,,12,,,83,127
56005,note_on,2,0,0,,1,,,73,127
56112,note_off,107,0,0,,1,,,73,127
56114,note_on,2,0,0,,12,,,71,127
56221,note_off,107,0,0,,12,,,71,127
56221,note_off,0,0,0,,7,,,55,127
56221,note_off,0,0,0,,12,,,59,127
56223,note_on,2,0,0,,6,,,54,127
56223,note_on,0,0,0,,1,,,85,127
56333,note_on,110,0,0,,1,,,73,127
56440,note_off,107,0,0,,1,,,73,127
56440,note_off,0,0,0,,1,,,85,127
56440,note_off,0,0,0,,6,,,54,127
56442,note_on,2,0,0,,12,,,59,127
56442,note_on,0,0,0,,2,,,86,127
56552,note_on,110,0,0,,2,,,74,127
56659,note_off,107,0,0,,2,,,74,127
56659,note_off,0,0,0,,2,,,86,127
56661,note_on,2,0,0,,2,,,62,127
56661,note_on,0,0,0,,1,,,73,127
56768,note_off,107,0,0,,1,,,73,127
56770,note_on,2,0,0,,2,,,74,127
56875,note_off,105,0,0,,12,,,59,127
56877,note_off,2,0,0,,2,,,74,127
56877,note_off,0,0,0,,2,,,62,127
56879,note_on,2,0,0,,10,,,57,127
56879,note_on,0,0,0,,1,,,85,127
56989,note_on,110,0,0,,1,,,73,127
57096,note_off,107,0,0,,1,,,73,127
57096,note_off,0,0,0,,1,,,85,127
57096,note_off,0,0,0,,10,,,57,127
57098,note_on,2,0,0,,12,,,59,127
57098,note_on,0,0,0,,7,,,55,127
57098,note_on,0,0,0,,12,,,83,127
57208,note_on,110,0,0,,12,,,71,127
57315,note_off,107,0,0,,12,,,71,127
57315,note_off,0,0,0,,12,,,83,127
57317,note_on,2,0,0,,1,,,73,127
57424,note_off,107,0,0,,1,,,73,127
57426,note_on,2,0,0,,12,,,71,127
57533,note_off,107,0,0,,12,,,71,127
57533,note_off,0,0,0,,7,,,55,127
57533,note_off,0,0,0,,12,,,59,127
57535,note_on,2,0,0,,6,,,54,127
57535,note_on,0,0,0,,1,,,85,127
57645,note_on,110,0,0,,1,,,73,127
57752,note_off,107,0,0,,1,,,73,127
57752,note_off,0,0,0,,1,,,85,127
57752,note_off,0,0,0,,6,,,54,127
57754,note_on,2,0,0,,12,,,59,127
57754,note_on,0,0,0,,2,,,86,127
57861,note_off,107,0,0,,2,,,86,127
57863,note_on,2,0,0,,12,,,83,127
57970,note_off,107,0,0,,12,,,83,127
57970,note_off,0,0,0,,12,,,59,127
57972,note_on,2,0,0,,1,,,61,127
57972,note_on,0,0,0,,1,,,85,127
58079,note_off,107,0,0,,1,,,85,127
58081,note_on,2,0,0,,11,,,82,127
58188,note_off,107,0,0,,11,,,82,127
58188,note_off,0,0,0,,1,,,61,127
58190,note_on,2,0,0,,2,,,62,127
58190,note_on,0,0,0,,12,,,83,127
58297,note_off,107,0,0,,12,,,83,127
58299,note_on,2,0,0,,6,,,78,127
58406,note_off,107,0,0,,6,,,78,127
58406,note_off,0,0,0,,2,,,62,127
58408,note_on,2,0,0,,4,,,52,127
58408,note_on,0,0,0,,4,,,64,127
58408,note_on,0,0,0,,7,,,79,127
58515,note_off,107,0,0,,7,,,79,127
58517,note_on,2,0,0,,4,,,76,127
58624,note_off,107,0,0,,4,,,76,127
58624,note_off,0,0,0,,4,,,64,127
58624,note_off,0,0,0,,4,,,52,127
58626,note_on,2,0,0,,6,,,54,127
58626,note_on,0,0,0,,2,,,62,127
58626,note_on,0,0,0,,12,,,59,127
58626,note_on,0,0,0,,6,,,78,127
58733,note_off,107,0,0,,6,,,78,127
58735,note_on,2,0,0,,2,,,74,127
58842,note_off,107,0,0,,2,,,74,127
58842,note_off,0,0,0,,12,,,59,127
58842,note_off,0,0,0,,2,,,62,127
58844,note_on,2,0,0,,1,,,61,127
58844,note_on,0,0,0,,11,,,58,127
58844,note_on,0,0,0,,4,,,76,127
58951,note_off,107,0,0,,4,,,76,127
58953,note_on,2,0,0,,1,,,73,127
59058,note_off,105,0,0,,6,,,54,127
59060,note_off,2,0,0,,1,,,73,127
59060,note_off,0,0,0,,11,,,58,127
59060,note_off,0,0,0,,1,,,61,127
59062,note_on,2,0,0,,12,,,59,127
59062,note_on,0,0,0,,7,,,55,127
59062,note_on,0,0,0,,12,,,83,127
59172,note_on,110,0,0,,12,,,71,127
59279,note_off,107,0,0,,12,,,71,127
59281,note_on,2,0,0,,1,,,73,127
59388,note_off,107,0,0,,1,,,73,127
59390,note_on,2,0,0,,12,,,71,127
59495,note_off,105,0,0,,12,,,83,127
59497,note_off,2,0,0,,12,,,71,127
59497,note_off,0,0,0,,7,,,55,127
59497,note_off,0,0,0,,12,,,59,127
59499,note_on,2,0,0,,6,,,54,127
59499,note_on,0,0,0,,1,,,85,127
59609,note_on,110,0,0,,1,,,73,127
59664,note_off,55,0,0,,1,,,85,127
59717,note_off,53,0,0,,1,,,73,127
59717,note_off,0,0,0,,6,,,54,127
59719,note_on,2,0,0,,12,,,59,127
59719,note_on,0,0,0,,2,,,86,127
59829,note_on,110,0,0,,2,,,74,127
59884,note_off,55,0,0,,2,,,86,127
59937,note_off,53,0,0,,2,,,74,127
59939,note_on,2,0,0,,2,,,62,127
59939,note_on,0,0,0,,1,,,73,127
60046,note_off,107,0,0,,1,,,73,127
60048,note_on,2,0,0,,2,,,74,127
60153,note_off,105,0,0,,12,,,59,127
60155,note_off,2,0,0,,2,,,74,127
60155,note_off,0,0,0,,2,,,62,127
60157,note_on,2,0,0,,10,,,57,127
60157,note_on,0,0,0,,1,,,85,127
60267,note_on,110,0,0,,1,,,73,127
60322,note_off,55,0,0,,1,,,85,127
60375,note_off,53,0,0,,1,,,73,127
60375,note_off,0,0,0,,10,,,57,127
60377,note_on,2,0,0,,12,,,59,127
60377,note_on,0,0,0,,7,,,55,127
60377,note_on,0,0,0,,12,,,83,127
60487,note_on,110,0,0,,12,,,71,127
60594,note_off,107,0,0,,12,,,71,127
60596,note_on,2,0,0,,1,,,73,127
60703,note_off,107,0,0,,1,,,73,127
60705,note_on,2,0,0,,12,,,71,127
60810,note_off,105,0,0,,12,,,83,127
60812,note_off,2,0,0,,12,,,71,127
60812,note_off,0,0,0,,7,,,55,127
60812,note_off,0,0,0,,12,,,59,127
60814,note_on,2,0,0,,6,,,54,127
60814,note_on,0,0,0,,1,,,85,127
60924,note_on,110,0,0,,1,,,73,127
60979,note_off,55,0,0,,1,,,85,127
61032,note_off,53,0,0,,1,,,73,127
61032,note_off,0,0,0,,6,,,54,127
61034,note_on,2,0,0,,12,,,59,127
61034,note_on,0,0,0,,2,,,86,127
61144,note_on,110,0,0,,2,,,74,127
61199,note_off,55,0,0,,2,,,86,127
61252,note_off,53,0,0,,2,,,74,127
61254,note_on,2,0,0,,2,,,62,127
61254,note_on,0,0,0,,1,,,73,127
61361,note_off,107,0,0,,1,,,73,127
61363,note_on,2,0,0,,2,,,74,127
61468,note_off,105,0,0,,12,,,59,127
61470,note_off,2,0,0,,2,,,74,127
61470,note_off,0,0,0,,2,,,62,127
61472,note_on,2,0,0,,10,,,57,127
61472,note_on,0,0,0,,1,,,85,127
61582,note_on,110,0,0,,1,,,73,127
61637,note_off,55,0,0,,1,,,85,127
61690,note_off,53,0,0,,1,,,73,127
61690,note_off,0,0,0,,10,,,57,127
61692,note_on,2,0,0,,12,,,59,127
61692,note_on,0,0,0,,7,,,55,127
61692,note_on,0,0,0,,12,,,83,127
61802,note_on,110,0,0,,12,,,71,127
61909,note_off,107,0,0,,12,,,71,127
61911,note_on,2,0,0,,1,,,73,127
62018,note_off,107,0,0,,1,,,73,127
62020,note_on,2,0,0,,12,,,71,127
62125,note_off,105,0,0,,12,,,83,127
62127,note_off,2,0,0,,12,,,71,127
62127,note_off,0,0,0,,7,,,55,127
62127,note_off,0,0,0,,12,,,59,127
62129,note_on,2,0,0,,6,,,54,127
62129,note_on,0,0,0,,1,,,85,127
62236,note_off,107,0,0,,1,,,85,127
62238,note_on,2,0,0,,1,,,73,127
62345,note_off,107,0,0,,1,,,73,127
62345,note_off,0,0,0,,6,,,54,127
62347,note_on,2,0,0,,12,,,59,127
62347,note_on,0,0,0,,2,,,86,127
62454,note_off,107,0,0,,2,,,86,127
62456,note_on,2,0,0,,12,,,83,127
62563,note_off,107,0,0,,12,,,83,127
62563,note_off,0,0,0,,12,,,59,127
62565,note_on,2,0,0,,1,,,61,127
62565,note_on,0,0,0,,1,,,85,127
62672,note_off,107,0,0,,1,,,85,127
62674,note_on,2,0,0,,11,,,82,127
62781,note_off,107,0,0,,11,,,82,127
62781,note_off,0,0,0,,1,,,61,127
62783,note_on,2,0,0,,2,,,62,127
62783,note_on,0,0,0,,12,,,83,127
62890,note_off,107,0,0,,12,,,83,127
62892,note_on,2,0,0,,6,,,78,127
62999,note_off,107,0,0,,6,,,78,127
62999,note_off,0,0,0,,2,,,62,127
63001,note_on,2,0,0,,4,,,52,127
63001,note_on,0,0,0,,4,,,64,127
63001,note_on,0,0,0,,7,,,79,127
63108,note_off,107,0,0,,7,,,79,127
63110,note_on,2,0,0,,4,,,76,127
63217,note_off,107,0,0,,4,,,76,127
63217,note_off,0,0,0,,4,,,64,127
63217,note_off,0,0,0,,4,,,52,127
63219,note_on,2,0,0,,6,,,54,127
63219,note_on,0,0,0,,12,,,59,127
63219,note_on,0,0,0,,2,,,62,127
63219,note_on,0,0,0,,6,,,78,127
63326,note_off,107,0,0,,6,,,78,127
63328,note_on,2,0,0,,2,,,74,127
63435,note_off,107,0,0,,2,,,74,127
63435,note_off,0,0,0,,2,,,62,127
63435,note_off,0,0,0,,12,,,59,127
63437,note_on,2,0,0,,1,,,61,127
63437,note_on,0,0,0,,11,,,58,127
63437,note_on,0,0,0,,4,,,76,127
63544,note_off,107,0,0,,4,,,76,127
63546,note_on,2,0,0,,1,,,73,127
63651,note_off,105,0,0,,6,,,54,127
63653,note_off,2,0,0,,1,,,73,127
63653,note_off,0,0,0,,11,,,58,127
63653,note_off,0,0,0,,1,,,61,127
63655,note_on,2,0,0,,12,,,47,127
63655,note_on,0,0,0,,2,,,74,127
63762,note_off,107,0,0,,2,,,74,127
63764,note_on,2,0,0,,12,,,71,127
63871,note_off,107,0,0,,12,,,71,127
63871,note_off,0,0,0,,12,,,47,127
63873,note_on,2,0,0,,1,,,49,127
63873,note_on,0,0,0,,1,,,73,127
63980,note_off,107,0,0,,1,,,73,127
63982,note_on,2,0,0,,11,,,70,127
64089,note_off,107,0,0,,11,,,70,127
64089,note_off,0,0,0,,1,,,49,127
64091,note_on,2,0,0,,2,,,50,127
64091,note_on,0,0,0,,12,,,71,127
64198,note_off,107,0,0,,12,,,71,127
64200,note_on,2,0,0,,6,,,66,127
64307,note_off,107,0,0,,6,,,66,127
64307,note_off,0,0,0,,2,,,50,127
64309,note_on,2,0,0,,4,,,52,127
64309,note_on,0,0,0,,7,,,67,127
64416,note_off,107,0,0,,7,,,67,127
64418,note_on,2,0,0,,4,,,64,127
64525,note_off,107,0,0,,4,,,64,127
64525,note_off,0,0,0,,4,,,52,127
64527,note_on,2,0,0,,6,,,54,127
64527,note_on,0,0,0,,6,,,66,127
64634,note_off,107,0,0,,6,,,66,127
64636,note_on,2,0,0,,2,,,62,127
64743,note_off,107,0,0,,2,,,62,127
64743,note_off,0,0,0,,6,,,54,127
64745,note_on,2,0,0,,6,,,42,127
64745,note_on,0,0,0,,4,,,64,127
64852,note_off,107,0,0,,4,,,64,127
64854,note_on,2,0,0,,1,,,61,127
64961,note_off,107,0,0,,1,,,61,127
64961,note_off,0,0,0,,6,,,42,127
64963,note_on,2,0,0,,12,,,47,127
64963,note_on,0,0,0,,2,,,62,127
65070,note_off,107,0,0,,2,,,62,127
65072,note_on,2,0,0,,12,,,59,127
65179,note_off,107,0,0,,12,,,59,127
65179,note_off,0,0,0,,12,,,47,127
65181,note_on,2,0,0,,1,,,49,127
65181,note_on,0,0,0,,1,,,61,127
65288,note_off,107,0,0,,1,,,61,127
65290,note_on,2,0,0,,11,,,58,127
65397,note_off,107,0,0,,11,,,58,127
65397,note_off,0,0,0,,1,,,49,127
65399,note_on,2,0,0,,2,,,50,127
65399,note_on,0,0,0,,12,,,59,127
65506,note_off,107,0,0,,12,,,59,127
65508,note_on,2,0,0,,6,,,66,127
65615,note_off,107,0,0,,6,,,66,127
65615,note_off,0,0,0,,2,,,50,127
65617,note_on,2,0,0,,4,,,52,127
65617,note_on,0,0,0,,7,,,67,127
65724,note_off,107,0,0,,7,,,67,127
65726,note_on,2,0,0,,4,,,64,127
65833,note_off,107,0,0,,4,,,64,127
65833,note_off,0,0,0,,4,,,52,127
65835,note_on,2,0,0,,6,,,54,127
65835,note_on,0,0,0,,2,,,62,127
65942,note_off,107,0,0,,2,,,62,127
65944,note_on,2,0,0,,12,,,71,127
66051,note_off,107,0,0,,12,,,71,127
66051,note_off,0,0,0,,6,,,54,127
66053,note_on,2,0,0,,6,,,42,127
66053,note_on,0,0,0,,1,,,61,127
66160,note_off,107,0,0,,1,,,61,127
66162,note_on,2,0,0,,11,,,70,127
66269,note_off,107,0,0,,11,,,70,127
66269,note_off,0,0,0,,6,,,42,127
66271,note_on,2,0,0,,12,,,47,127
66271,note_on,0,0,0,,11,,,70,127
66488,note_off,217,0,0,,11,,,70,127
66490,note_on,2,0,0,,12,,,71,127
66924,note_off,434,0,0,,12,,,71,127
66926,note_off,2,0,0,,12,,,47,127
66928,note_on,2,0,0,,12,,,59,127
67038,note_on,110,0,0,,6,,,66,127
67145,note_off,107,0,0,,6,,,66,127
67145,note_off,0,0,0,,12,,,59,127
67147,note_on,2,0,0,,12,,,59,127
67147,note_on,0,0,0,,3,,,63,127
67254,note_off,107,0,0,,3,,,63,127
67256,note_on,2,0,0,,4,,,64,127
67363,note_off,107,0,0,,4,,,64,127
67363,note_off,0,0,0,,12,,,59,127
67365,note_on,2,0,0,,12,,,59,127
67365,note_on,0,0,0,,6,,,66,127
67472,note_off,107,0,0,,6,,,66,127
67474,note_on,2,0,0,,7,,,67,127
67581,note_off,107,0,0,,7,,,67,127
67581,note_off,0,0,0,,12,,,59,127
67583,note_on,2,0,0,,0,,,60,127
67583,note_on,0,0,0,,10,,,57,127
67583,note_on,0,0,0,,10,,,69,127
67690,note_off,107,0,0,,10,,,69,127
67692,note_on,2,0,0,,12,,,71,127
67799,note_off,107,0,0,,12,,,71,127
67799,note_off,0,0,0,,10,,,57,127
67799,note_off,0,0,0,,0,,,60,127
67801,note_on,2,0,0,,0,,,60,127
67801,note_on,0,0,0,,10,,,57,127
67801,note_on,0,0,0,,0,,,72,127
67908,note_off,107,0,0,,0,,,72,127
67910,note_on,2,0,0,,4,,,76,127
68017,note_off,107,0,0,,4,,,76,127
68017,note_off,0,0,0,,10,,,57,127
68017,note_off,0,0,0,,0,,,60,127
68019,note_on,2,0,0,,0,,,60,127
68019,note_on,0,0,0,,10,,,57,127
68019,note_on,0,0,0,,3,,,75,127
68236,note_off,217,0,0,,3,,,75,127
68236,note_off,0,0,0,,10,,,57,127
68236,note_off,0,0,0,,0,,,60,127
68238,note_on,2,0,0,,0,,,60,127
68238,note_on,0,0,0,,10,,,57,127
68348,note_on,110,0,0,,10,,,69,127
68455,note_off,107,0,0,,10,,,69,127
68455,note_off,0,0,0,,10,,,57,127
68455,note_off,0,0,0,,0,,,60,127
68457,note_on,2,0,0,,0,,,60,127
68457,note_on,0,0,0,,10,,,57,127
68457,note_on,0,0,0,,7,,,67,127
68564,note_off,107,0,0,,7,,,67,127
68566,note_on,2,0,0,,6,,,66,127
68673,note_off,107,0,0,,6,,,66,127
68673,note_off,0,0,0,,10,,,57,127
68673,note_off,0,0,0,,0,,,60,127
68675,note_on,2,0,0,,0,,,60,127
68675,note_on,0,0,0,,10,,,57,127
68675,note_on,0,0,0,,4,,,64,127
68782,note_off,107,0,0,,4,,,64,127
68784,note_on,2,0,0,,3,,,63,127
68891,note_off,107,0,0,,3,,,63,127
68891,note_off,0,0,0,,10,,,57,127
68891,note_off,0,0,0,,0,,,60,127
68893,note_on,2,0,0,,7,,,55,127
68893,note_on,0,0,0,,12,,,59,127
68893,note_on,0,0,0,,4,,,64,127
69000,note_off,107,0,0,,4,,,64,127
69002,note_on,2,0,0,,6,,,66,127
69109,note_off,107,0,0,,6,,,66,127
69109,note_off,0,0,0,,12,,,59,127
69109,note_off,0,0,0,,7,,,55,127
69111,note_on,2,0,0,,12,,,59,127
69111,note_on,0,0,0,,7,,,55,127
69111,note_on,0,0,0,,7,,,67,127
69218,note_off,107,0,0,,7,,,67,127
69220,note_on,2,0,0,,3,,,75,127
69327,note_off,107,0,0,,3,,,75,127
69327,note_off,0,0,0,,7,,,55,127
69327,note_off,0,0,0,,12,,,59,127
69329,note_on,2,0,0,,12,,,59,127
69329,note_on,0,0,0,,7,,,55,127
69329,note_on,0,0,0,,4,,,76,127
69546,note_off,217,0,0,,7,,,55,127
69546,note_off,0,0,0,,12,,,59,127
69548,note_on,2,0,0,,12,,,59,127
69548,note_on,0,0,0,,7,,,55,127
69655,note_off,107,0,0,,4,,,76,127
69657,note_on,2,0,0,,12,,,71,127
69764,note_off,107,0,0,,12,,,71,127
69764,note_off,0,0,0,,7,,,55,127
69764,note_off,0,0,0,,12,,,59,127
69766,note_on,2,0,0,,12,,,59,127
69766,note_on,0,0,0,,7,,,55,127
69766,note_on,0,0,0,,10,,,69,127
69873,note_off,107,0,0,,10,,,69,127
69875,note_on,2,0,0,,7,,,67,127
69982,note_off,107,0,0,,7,,,67,127
69982,note_off,0,0,0,,7,,,55,127
69982,note_off,0,0,0,,12,,,59,127
69984,note_on,2,0,0,,7,,,55,127
69984,note_on,0,0,0,,12,,,59,127
69984,note_on,0,0,0,,6,,,66,127
70091,note_off,107,0,0,,6,,,66,127
70093,note_on,2,0,0,,4,,,64,127
70200,note_off,107,0,0,,4,,,64,127
70200,note_off,0,0,0,,12,,,59,127
70200,note_off,0,0,0,,7,,,55,127
70202,note_on,2,0,0,,6,,,54,127
70202,note_on,0,0,0,,10,,,57,127
70202,note_on,0,0,0,,6,,,66,127
70309,note_off,107,0,0,,6,,,66,127
70311,note_on,2,0,0,,7,,,67,127
70418,note_off,107,0,0,,7,,,67,127
70418,note_off,0,0,0,,10,,,57,127
70418,note_off,0,0,0,,6,,,54,127
70420,note_on,2,0,0,,10,,,57,127
70420,note_on,0,0,0,,6,,,54,127
70420,note_on,0,0,0,,10,,,69,127
70527,note_off,107,0,0,,10,,,69,127
70529,note_on,2,0,0,,4,,,76,127
70636,note_off,107,0,0,,4,,,76,127
70636,note_off,0,0,0,,6,,,54,127
70636,note_off,0,0,0,,10,,,57,127
70638,note_on,2,0,0,,10,,,57,127
70638,note_on,0,0,0,,6,,,54,127
70638,note_on,0,0,0,,6,,,78,127
70855,note_off,217,0,0,,6,,,54,127
70855,note_off,0,0,0,,10,,,57,127
70857,note_on,2,0,0,,6,,,54,127
70857,note_on,0,0,0,,10,,,57,127
70964,note_off,107,0,0,,6,,,78,127
70966,note_on,2,0,0,,0,,,72,127
71073,note_off,107,0,0,,0,,,72,127
71073,note_off,0,0,0,,10,,,57,127
71073,note_off,0,0,0,,6,,,54,127
71075,note_on,2,0,0,,6,,,54,127
71075,note_on,0,0,0,,10,,,57,127
71075,note_on,0,0,0,,12,,,71,127
71182,note_off,107,0,0,,12,,,71,127
71184,note_on,2,0,0,,10,,,69,127
71291,note_off,107,0,0,,10,,,69,127
71291,note_off,0,0,0,,10,,,57,127
71291,note_off,0,0,0,,6,,,54,127
71293,note_on,2,0,0,,6,,,54,127
71293,note_on,0,0,0,,10,,,57,127
71293,note_on,0,0,0,,7,,,67,127
71400,note_off,107,0,0,,7,,,67,127
71402,note_on,2,0,0,,6,,,66,127
71509,note_off,107,0,0,,6,,,66,127
71509,note_off,0,0,0,,10,,,57,127
71509,note_off,0,0,0,,6,,,54,127
71511,note_on,2,0,0,,12,,,59,127
71511,note_on,0,0,0,,10,,,57,127
71511,note_on,0,0,0,,4,,,52,127
71511,note_on,0,0,0,,7,,,67,127
71618,note_off,107,0,0,,7,,,67,127
71620,note_on,2,0,0,,10,,,69,127
71727,note_off,107,0,0,,10,,,69,127
71727,note_off,0,0,0,,4,,,52,127
71727,note_off,0,0,0,,10,,,57,127
71727,note_off,0,0,0,,12,,,59,127
71729,note_on,2,0,0,,10,,,57,127
71729,note_on,0,0,0,,4,,,52,127
71729,note_on,0,0,0,,12,,,59,127
71729,note_on,0,0,0,,12,,,71,127
71836,note_off,107,0,0,,12,,,71,127
71838,note_on,2,0,0,,6,,,78,127
71945,note_off,107,0,0,,6,,,78,127
71945,note_off,0,0,0,,12,,,59,127
71945,note_off,0,0,0,,4,,,52,127
71945,note_off,0,0,0,,10,,,57,127
71947,note_on,2,0,0,,12,,,59,127
71947,note_on,0,0,0,,10,,,57,127
71947,note_on,0,0,0,,4,,,52,127
71947,note_on,0,0,0,,7,,,79,127
72164,note_off,217,0,0,,4,,,52,127
72164,note_off,0,0,0,,10,,,57,127
72164,note_off,0,0,0,,12,,,59,127
72166,note_on,2,0,0,,4,,,52,127
72166,note_on,0,0,0,,12,,,59,127
72166,note_on,0,0,0,,10,,,57,127
72255,note_off,89,0,0,,7,,,79,127
72276,note_on,21,0,0,,12,,,71,127
72383,note_off,107,0,0,,12,,,71,127
72383,note_off,0,0,0,,10,,,57,127
72383,note_off,0,0,0,,12,,,59,127
72383,note_off,0,0,0,,4,,,52,127
72385,note_on,2,0,0,,4,,,52,127
72385,note_on,0,0,0,,10,,,57,127
72385,note_on,0,0,0,,12,,,59,127
72385,note_on,0,0,0,,10,,,69,127
72492,note_off,107,0,0,,10,,,69,127
72494,note_on,2,0,0,,7,,,67,127
72601,note_off,107,0,0,,7,,,67,127
72601,note_off,0,0,0,,12,,,59,127
72601,note_off,0,0,0,,10,,,57,127
72601,note_off,0,0,0,,4,,,52,127
72603,note_on,2,0,0,,4,,,52,127
72603,note_on,0,0,0,,12,,,59,127
72603,note_on,0,0,0,,10,,,57,127
72603,note_on,0,0,0,,5,,,65,127
72710,note_off,107,0,0,,5,,,65,127
72712,note_on,2,0,0,,4,,,64,127
72819,note_off,107,0,0,,4,,,64,127
72819,note_off,0,0,0,,10,,,57,127
72819,note_off,0,0,0,,12,,,59,127
72819,note_off,0,0,0,,4,,,52,127
72821,note_on,2,0,0,,2,,,50,127
72821,note_on,0,0,0,,12,,,59,127
72821,note_on,0,0,0,,10,,,57,127
72821,note_on,0,0,0,,5,,,65,127
72928,note_off,107,0,0,,5,,,65,127
72930,note_on,2,0,0,,8,,,68,127
73037,note_off,107,0,0,,8,,,68,127
73037,note_off,0,0,0,,10,,,57,127
73037,note_off,0,0,0,,12,,,59,127
73037,note_off,0,0,0,,2,,,50,127
73039,note_on,2,0,0,,10,,,57,127
73039,note_on,0,0,0,,2,,,50,127
73039,note_on,0,0,0,,12,,,59,127
73039,note_on,0,0,0,,12,,,71,127
73146,note_off,107,0,0,,12,,,71,127
73148,note_on,2,0,0,,2,,,74,127
73255,note_off,107,0,0,,2,,,74,127
73255,note_off,0,0,0,,12,,,59,127
73255,note_off,0,0,0,,2,,,50,127
73255,note_off,0,0,0,,10,,,57,127
73257,note_on,2,0,0,,10,,,57,127
73257,note_on,0,0,0,,2,,,50,127
73257,note_on,0,0,0,,12,,,59,127
73257,note_on,0,0,0,,5,,,77,127
73474,note_off,217,0,0,,12,,,59,127
73474,note_off,0,0,0,,2,,,50,127
73474,note_off,0,0,0,,10,,,57,127
73476,note_on,2,0,0,,2,,,50,127
73476,note_on,0,0,0,,12,,,59,127
73476,note_on,0,0,0,,8,,,56,127
73554,note_off,78,0,0,,5,,,77,127
73586,note_on,32,0,0,,2,,,74,127
73693,note_off,107,0,0,,2,,,74,127
73693,note_off,0,0,0,,8,,,56,127
73693,note_off,0,0,0,,12,,,59,127
73693,note_off,0,0,0,,2,,,50,127
73695,note_on,2,0,0,,2,,,50,127
73695,note_on,0,0,0,,8,,,56,127
73695,note_on,0,0,0,,12,,,59,127
73695,note_on,0,0,0,,0,,,72,127
73802,note_off,107,0,0,,0,,,72,127
73804,note_on,2,0,0,,12,,,71,127
73911,note_off,107,0,0,,12,,,71,127
73911,note_off,0,0,0,,12,,,59,127
73911,note_off,0,0,0,,8,,,56,127
73911,note_off,0,0,0,,2,,,50,127
73913,note_on,2,0,0,,8,,,56,127
73913,note_on,0,0,0,,12,,,59,127
73913,note_on,0,0,0,,2,,,50,127
73913,note_on,0,0,0,,10,,,69,127
74020,note_off,107,0,0,,10,,,69,127
74022,note_on,2,0,0,,8,,,68,127
74129,note_off,107,0,0,,8,,,68,127
74129,note_off,0,0,0,,2,,,50,127
74129,note_off,0,0,0,,12,,,59,127
74129,note_off,0,0,0,,8,,,56,127
74131,note_on,2,0,0,,4,,,52,127
74131,note_on,0,0,0,,0,,,48,127
74131,note_on,0,0,0,,10,,,57,127
74131,note_on,0,0,0,,10,,,69,127
74238,note_off,107,0,0,,10,,,69,127
74240,note_on,2,0,0,,12,,,71,127
74347,note_off,107,0,0,,12,,,71,127
74347,note_off,0,0,0,,10,,,57,127
74347,note_off,0,0,0,,0,,,48,127
74347,note_off,0,0,0,,4,,,52,127
74349,note_on,2,0,0,,4,,,52,127
74349,note_on,0,0,0,,0,,,48,127
74349,note_on,0,0,0,,10,,,57,127
74349,note_on,0,0,0,,0,,,72,127
74456,note_off,107,0,0,,0,,,72,127
74458,note_on,2,0,0,,8,,,80,127
74565,note_off,107,0,0,,8,,,80,127
74565,note_off,0,0,0,,10,,,57,127
74565,note_off,0,0,0,,0,,,48,127
74565,note_off,0,0,0,,4,,,52,127
74567,note_on,2,0,0,,10,,,57,127
74567,note_on,0,0,0,,4,,,52,127
74567,note_on,0,0,0,,0,,,48,127
74567,note_on,0,0,0,,10,,,81,127
74784,note_off,217,0,0,,0,,,48,127
74784,note_off,0,0,0,,4,,,52,127
74784,note_off,0,0,0,,10,,,57,127
74786,note_on,2,0,0,,0,,,48,127
74786,note_on,0,0,0,,10,,,57,127
74786,note_on,0,0,0,,4,,,52,127
74864,note_off,78,0,0,,10,,,81,127
74896,note_on,32,0,0,,4,,,76,127
75003,note_off,107,0,0,,4,,,76,127
75003,note_off,0,0,0,,4,,,52,127
75003,note_off,0,0,0,,10,,,57,127
75003,note_off,0,0,0,,0,,,48,127
75005,note_on,2,0,0,,10,,,57,127
75005,note_on,0,0,0,,4,,,52,127
75005,note_on,0,0,0,,0,,,48,127
75005,note_on,0,0,0,,2,,,74,127
75112,note_off,107,0,0,,2,,,74,127
75114,note_on,2,0,0,,0,,,72,127
75221,note_off,107,0,0,,0,,,72,127
75221,note_off,0,0,0,,0,,,48,127
75221,note_off,0,0,0,,4,,,52,127
75221,note_off,0,0,0,,10,,,57,127
75223,note_on,2,0,0,,10,,,57,127
75223,note_on,0,0,0,,4,,,52,127
75223,note_on,0,0,0,,0,,,48,127
75223,note_on,0,0,0,,12,,,71,127
75330,note_off,107,0,0,,12,,,71,127
75332,note_on,2,0,0,,10,,,69,127
75439,note_off,107,0,0,,10,,,69,127
75439,note_off,0,0,0,,0,,,48,127
75439,note_off,0,0,0,,4,,,52,127
75439,note_off,0,0,0,,10,,,57,127
75441,note_on,2,0,0,,2,,,50,127
75441,note_on,0,0,0,,12,,,47,127
75441,note_on,0,0,0,,10,,,57,127
75441,note_on,0,0,0,,12,,,71,127
75548,note_off,107,0,0,,12,,,71,127
75550,note_on,2,0,0,,0,,,72,127
75657,note_off,107,0,0,,0,,,72,127
75657,note_off,0,0,0,,10,,,57,127
75657,note_off,0,0,0,,12,,,47,127
75657,note_off,0,0,0,,2,,,50,127
75659,note_on,2,0,0,,10,,,57,127
75659,note_on,0,0,0,,2,,,50,127
75659,note_on,0,0,0,,12,,,47,127
75659,note_on,0,0,0,,2,,,74,127
75766,note_off,107,0,0,,2,,,74,127
75768,note_on,2,0,0,,10,,,81,127
75875,note_off,107,0,0,,10,,,81,127
75875,note_off,0,0,0,,12,,,47,127
75875,note_off,0,0,0,,2,,,50,127
75875,note_off,0,0,0,,10,,,57,127
75877,note_on,2,0,0,,10,,,57,127
75877,note_on,0,0,0,,2,,,50,127
75877,note_on,0,0,0,,12,,,47,127
75877,note_on,0,0,0,,12,,,83,127
76094,note_off,217,0,0,,12,,,47,127
76094,note_off,0,0,0,,2,,,50,127
76094,note_off,0,0,0,,10,,,57,127
76096,note_on,2,0,0,,2,,,50,127
76096,note_on,0,0,0,,12,,,47,127
76096,note_on,0,0,0,,8,,,56,127
76151,note_off,55,0,0,,12,,,83,127
76206,note_on,55,0,0,,5,,,77,127
76313,note_off,107,0,0,,5,,,77,127
76313,note_off,0,0,0,,8,,,56,127
76313,note_off,0,0,0,,12,,,47,127
76313,note_off,0,0,0,,2,,,50,127
76315,note_on,2,0,0,,8,,,56,127
76315,note_on,0,0,0,,2,,,50,127
76315,note_on,0,0,0,,12,,,47,127
76315,note_on,0,0,0,,4,,,76,127
76422,note_off,107,0,0,,4,,,76,127
76424,note_on,2,0,0,,2,,,74,127
76531,note_off,107,0,0,,2,,,74,127
76531,note_off,0,0,0,,12,,,47,127
76531,note_off,0,0,0,,2,,,50,127
76531,note_off,0,0,0,,8,,,56,127
76533,note_on,2,0,0,,8,,,56,127
76533,note_on,0,0,0,,2,,,50,127
76533,note_on,0,0,0,,12,,,47,127
76533,note_on,0,0,0,,0,,,72,127
76640,note_off,107,0,0,,0,,,72,127
76642,note_on,2,0,0,,12,,,71,127
76749,note_off,107,0,0,,12,,,71,127
76749,note_off,0,0,0,,12,,,47,127
76749,note_off,0,0,0,,2,,,50,127
76749,note_off,0,0,0,,8,,,56,127
76751,note_on,2,0,0,,10,,,57,127
76751,note_on,0,0,0,,10,,,45,127
76751,note_on,0,0,0,,0,,,72,127
76858,note_off,107,0,0,,0,,,72,127
76860,note_on,2,0,0,,2,,,74,127
76967,note_off,107,0,0,,2,,,74,127
76969,note_on,2,0,0,,4,,,76,127
77076,note_off,107,0,0,,4,,,76,127
77078,note_on,2,0,0,,12,,,83,127
77185,note_off,107,0,0,,12,,,83,127
77187,note_on,2,0,0,,0,,,84,127
77404,note_off,217,0,0,,10,,,45,127
77404,note_off,0,0,0,,10,,,57,127
77406,note_on,2,0,0,,10,,,45,127
77406,note_on,0,0,0,,10,,,57,127
77513,note_off,107,0,0,,0,,,84,127
77515,note_on,2,0,0,,4,,,76,127
77622,note_off,107,0,0,,4,,,76,127
77624,note_on,2,0,0,,12,,,83,127
77841,note_off,217,0,0,,10,,,57,127
77841,note_off,0,0,0,,10,,,45,127
77843,note_on,2,0,0,,12,,,47,127
77843,note_on,0,0,0,,12,,,59,127
77950,note_off,107,0,0,,12,,,83,127
77952,note_on,2,0,0,,2,,,74,127
78059,note_off,107,0,0,,2,,,74,127
78061,note_on,2,0,0,,10,,,81,127
78278,note_off,217,0,0,,12,,,59,127
78278,note_off,0,0,0,,12,,,47,127
78280,note_on,2,0,0,,0,,,48,127
78280,note_on,0,0,0,,0,,,60,127
78387,note_off,107,0,0,,10,,,81,127
78389,note_on,2,0,0,,0,,,72,127
78496,note_off,107,0,0,,0,,,72,127
78498,note_on,2,0,0,,7,,,79,127
78715,note_off,217,0,0,,0,,,60,127
78715,note_off,0,0,0,,0,,,48,127
78717,note_on,2,0,0,,1,,,49,127
78717,note_on,0,0,0,,1,,,61,127
78824,note_off,107,0,0,,7,,,79,127
78826,note_on,2,0,0,,12,,,71,127
78933,note_off,107,0,0,,12,,,71,127
78935,note_on,2,0,0,,6,,,78,127
79152,note_off,217,0,0,,1,,,61,127
79152,note_off,0,0,0,,1,,,49,127
79154,note_on,2,0,0,,2,,,62,127
79154,note_on,0,0,0,,2,,,50,127
79261,note_off,107,0,0,,6,,,78,127
79263,note_on,2,0,0,,10,,,69,127
79373,note_on,110,0,0,,4,,,76,127
79480,note_off,107,0,0,,10,,,69,127
79590,note_off,110,0,0,,4,,,76,127
79590,note_off,0,0,0,,2,,,50,127
79590,note_off,0,0,0,,2,,,62,127
79592,note_on,2,0,0,,4,,,52,127
79592,note_on,0,0,0,,4,,,64,127
79592,note_on,0,0,0,,6,,,78,127
79699,note_off,107,0,0,,6,,,78,127
79701,note_on,2,0,0,,4,,,76,127
79808,note_off,107,0,0,,4,,,76,127
79810,note_on,2,0,0,,2,,,74,127
79917,note_off,107,0,0,,2,,,74,127
79919,note_on,2,0,0,,0,,,72,127
80026,note_off,107,0,0,,0,,,72,127
80026,note_off,0,0,0,,4,,,64,127
80026,note_off,0,0,0,,4,,,52,127
80028,note_on,2,0,0,,6,,,54,127
80028,note_on,0,0,0,,2,,,62,127
80028,note_on,0,0,0,,10,,,81,127
80028,note_on,0,0,0,,2,,,74,127
80135,note_off,107,0,0,,2,,,74,127
80137,note_on,2,0,0,,4,,,76,127
80244,note_off,107,0,0,,4,,,76,127
80244,note_off,0,0,0,,6,,,54,127
80246,note_on,2,0,0,,4,,,52,127
80246,note_on,0,0,0,,2,,,74,127
80353,note_off,107,0,0,,2,,,74,127
80355,note_on,2,0,0,,0,,,72,127
80462,note_off,107,0,0,,0,,,72,127
80462,note_off,0,0,0,,4,,,52,127
80464,note_on,2,0,0,,2,,,50,127
80464,note_on,0,0,0,,12,,,71,127
80571,note_off,107,0,0,,12,,,71,127
80573,note_on,2,0,0,,10,,,69,127
80680,note_off,107,0,0,,10,,,69,127
80680,note_off,0,0,0,,2,,,50,127
80681,note_off,1,0,0,,10,,,81,127
80681,note_off,0,0,0,,2,,,62,127
80682,note_on,1,0,0,,7,,,55,127
80682,note_on,0,0,0,,2,,,62,127
80682,note_on,0,0,0,,12,,,83,127
80682,note_on,0,0,0,,2,,,74,127
80789,note_off,107,0,0,,2,,,74,127
80791,note_on,2,0,0,,4,,,76,127
80898,note_off,107,0,0,,4,,,76,127
80898,note_off,0,0,0,,7,,,55,127
80900,note_on,2,0,0,,12,,,59,127
80900,note_on,0,0,0,,2,,,74,127
81007,note_off,107,0,0,,2,,,74,127
81009,note_on,2,0,0,,0,,,72,127
81116,note_off,107,0,0,,0,,,72,127
81116,note_off,0,0,0,,12,,,59,127
81118,note_on,2,0,0,,7,,,55,127
81118,note_on,0,0,0,,12,,,71,127
81225,note_off,107,0,0,,12,,,71,127
81227,note_on,2,0,0,,10,,,69,127
81334,note_off,107,0,0,,10,,,69,127
81334,note_off,0,0,0,,7,,,55,127
81335,note_off,1,0,0,,12,,,83,127
81335,note_off,0,0,0,,2,,,62,127
81336,note_on,1,0,0,,2,,,50,127
81336,note_on,0,0,0,,2,,,62,127
81336,note_on,0,0,0,,10,,,81,127
81336,note_on,0,0,0,,2,,,74,127
81443,note_off,107,0,0,,2,,,74,127
81445,note_on,2,0,0,,4,,,76,127
81552,note_off,107,0,0,,4,,,76,127
81552,note_off,0,0,0,,2,,,50,127
81554,note_on,2,0,0,,6,,,54,127
81554,note_on,0,0,0,,2,,,74,127
81661,note_off,107,0,0,,2,,,74,127
81663,note_on,2,0,0,,0,,,72,127
81770,note_off,107,0,0,,0,,,72,127
81770,note_off,0,0,0,,6,,,54,127
81772,note_on,2,0,0,,2,,,50,127
81772,note_on,0,0,0,,12,,,71,127
81879,note_off,107,0,0,,12,,,71,127
81881,note_on,2,0,0,,10,,,69,127
81988,note_off,107,0,0,,10,,,69,127
81988,note_off,0,0,0,,2,,,50,127
81989,note_off,1,0,0,,10,,,81,127
81989,note_off,0,0,0,,2,,,62,127
81990,note_on,1,0,0,,7,,,55,127
81990,note_on,0,0,0,,2,,,62,127
81990,note_on,0,0,0,,12,,,83,127
81990,note_on,0,0,0,,2,,,74,127
82097,note_off,107,0,0,,2,,,74,127
82099,note_on,2,0,0,,4,,,76,127
82206,note_off,107,0,0,,4,,,76,127
82206,note_off,0,0,0,,7,,,55,127
82208,note_on,2,0,0,,12,,,59,127
82208,note_on,0,0,0,,2,,,74,127
82315,note_off,107,0,0,,2,,,74,127
82317,note_on,2,0,0,,0,,,72,127
82422,note_off,105,0,0,,2,,,62,127
82424,note_off,2,0,0,,0,,,72,127
82424,note_off,0,0,0,,12,,,59,127
82426,note_on,2,0,0,,7,,,55,127
82426,note_on,0,0,0,,12,,,71,127
82533,note_off,107,0,0,,12,,,71,127
82535,note_on,2,0,0,,10,,,69,127
82642,note_off,107,0,0,,10,,,69,127
82642,note_off,0,0,0,,7,,,55,127
82643,note_off,1,0,0,,12,,,83,127
82644,note_on,1,0,0,,4,,,52,127
82644,note_on,0,0,0,,4,,,64,127
82644,note_on,0,0,0,,12,,,83,127
82644,note_on,0,0,0,,4,,,76,127
82751,note_off,107,0,0,,4,,,76,127
82753,note_on,2,0,0,,5,,,77,127
82860,note_off,107,0,0,,5,,,77,127
82860,note_off,0,0,0,,4,,,52,127
82862,note_on,2,0,0,,8,,,56,127
82862,note_on,0,0,0,,4,,,76,127
82969,note_off,107,0,0,,4,,,76,127
82971,note_on,2,0,0,,2,,,74,127
83078,note_off,107,0,0,,2,,,74,127
83078,note_off,0,0,0,,8,,,56,127
83080,note_on,2,0,0,,4,,,52,127
83080,note_on,0,0,0,,0,,,72,127
83187,note_off,107,0,0,,0,,,72,127
83189,note_on,2,0,0,,12,,,71,127
83296,note_off,107,0,0,,12,,,71,127
83296,note_off,0,0,0,,4,,,52,127
83297,note_off,1,0,0,,12,,,83,127
83297,note_off,0,0,0,,4,,,64,127
83298,note_on,1,0,0,,10,,,57,127
83298,note_on,0,0,0,,4,,,64,127
83298,note_on,0,0,0,,4,,,76,127
83298,note_on,0,0,0,,0,,,84,127
83405,note_off,107,0,0,,4,,,76,127
83407,note_on,2,0,0,,5,,,77,127
83514,note_off,107,0,0,,5,,,77,127
83514,note_off,0,0,0,,10,,,57,127
83516,note_on,2,0,0,,0,,,60,127
83516,note_on,0,0,0,,4,,,76,127
83623,note_off,107,0,0,,4,,,76,127
83625,note_on,2,0,0,,2,,,74,127
83732,note_off,107,0,0,,2,,,74,127
83732,note_off,0,0,0,,0,,,60,127
83734,note_on,2,0,0,,10,,,57,127
83734,note_on,0,0,0,,0,,,72,127
83841,note_off,107,0,0,,0,,,72,127
83843,note_on,2,0,0,,12,,,71,127
83950,note_off,107,0,0,,12,,,71,127
83950,note_off,0,0,0,,10,,,57,127
83951,note_off,1,0,0,,0,,,84,127
83951,note_off,0,0,0,,4,,,64,127
83952,note_on,1,0,0,,4,,,52,127
83952,note_on,0,0,0,,4,,,64,127
83952,note_on,0,0,0,,4,,,76,127
83952,note_on,0,0,0,,12,,,83,127
84059,note_off,107,0,0,,4,,,76,127
84061,note_on,2,0,0,,5,,,77,127
84168,note_off,107,0,0,,5,,,77,127
84168,note_off,0,0,0,,4,,,52,127
84170,note_on,2,0,0,,8,,,56,127
84170,note_on,0,0,0,,4,,,76,127
84277,note_off,107,0,0,,4,,,76,127
84279,note_on,2,0,0,,2,,,74,127
84386,note_off,107,0,0,,2,,,74,127
84386,note_off,0,0,0,,8,,,56,127
84388,note_on,2,0,0,,4,,,52,127
84388,note_on,0,0,0,,0,,,72,127
84495,note_off,107,0,0,,0,,,72,127
84497,note_on,2,0,0,,12,,,71,127
84604,note_off,107,0,0,,12,,,71,127
84604,note_off,0,0,0,,4,,,52,127
84605,note_off,1,0,0,,12,,,83,127
84605,note_off,0,0,0,,4,,,64,127
84606,note_on,1,0,0,,0,,,84,127
84825,note_on,219,0,0,,12,,,59,127
84825,note_on,0,0,0,,10,,,57,127
84825,note_on,0,0,0,,3,,,63,127
84932,note_off,107,0,0,,0,,,84,127
84934,note_on,2,0,0,,3,,,75,127
85041,note_off,107,0,0,,3,,,75,127
85043,note_on,2,0,0,,12,,,83,127
85260,note_off,217,0,0,,3,,,63,127
85260,note_off,0,0,0,,10,,,57,127
85260,note_off,0,0,0,,12,,,59,127
85262,note_on,2,0,0,,7,,,55,127
85262,note_on,0,0,0,,12,,,59,127
85262,note_on,0,0,0,,4,,,64,127
85369,note_off,107,0,0,,12,,,83,127
85371,note_on,2,0,0,,4,,,76,127
85478,note_off,107,0,0,,4,,,76,127
85480,note_on,2,0,0,,10,,,81,127
85697,note_off,217,0,0,,4,,,64,127
85697,note_off,0,0,0,,12,,,59,127
85697,note_off,0,0,0,,7,,,55,127
85699,note_on,2,0,0,,6,,,54,127
85699,note_on,0,0,0,,12,,,59,127
85699,note_on,0,0,0,,10,,,57,127
85699,note_on,0,0,0,,3,,,63,127
85806,note_off,107,0,0,,10,,,81,127
85808,note_on,2,0,0,,6,,,78,127
85915,note_off,107,0,0,,6,,,78,127
85915,note_off,0,0,0,,3,,,63,127
85915,note_off,0,0,0,,10,,,57,127
85915,note_off,0,0,0,,12,,,59,127
85915,note_off,0,0,0,,6,,,54,127
85917,note_on,2,0,0,,4,,,52,127
85917,note_on,0,0,0,,4,,,64,127
85917,note_on,0,0,0,,7,,,79,127
86024,note_off,107,0,0,,7,,,79,127
86026,note_on,2,0,0,,4,,,76,127
86133,note_off,107,0,0,,4,,,76,127
86133,note_off,0,0,0,,4,,,64,127
86133,note_off,0,0,0,,4,,,52,127
86135,note_on,2,0,0,,2,,,62,127
86135,note_on,0,0,0,,2,,,50,127
86135,note_on,0,0,0,,6,,,78,127
86242,note_off,107,0,0,,6,,,78,127
86244,note_on,2,0,0,,2,,,74,127
86351,note_off,107,0,0,,2,,,74,127
86351,note_off,0,0,0,,2,,,50,127
86351,note_off,0,0,0,,2,,,62,127
86353,note_on,2,0,0,,0,,,60,127
86353,note_on,0,0,0,,0,,,48,127
86353,note_on,0,0,0,,4,,,76,127
86460,note_off,107,0,0,,4,,,76,127
86462,note_on,2,0,0,,0,,,72,127
86569,note_off,107,0,0,,0,,,72,127
86569,note_off,0,0,0,,0,,,48,127
86569,note_off,0,0,0,,0,,,60,127
86571,note_on,2,0,0,,12,,,59,127
86571,note_on,0,0,0,,12,,,47,127
86571,note_on,0,0,0,,2,,,74,127
86678,note_off,107,0,0,,2,,,74,127
86680,note_on,2,0,0,,12,,,71,127
86787,note_off,107,0,0,,12,,,71,127
86787,note_off,0,0,0,,12,,,47,127
86787,note_off,0,0,0,,12,,,59,127
86789,note_on,2,0,0,,10,,,45,127
86789,note_on,0,0,0,,10,,,57,127
86789,note_on,0,0,0,,0,,,72,127
86896,note_off,107,0,0,,0,,,72,127
86898,note_on,2,0,0,,10,,,69,127
87005,note_off,107,0,0,,10,,,69,127
87005,note_off,0,0,0,,10,,,57,127
87005,note_off,0,0,0,,10,,,45,127
87007,note_on,2,0,0,,3,,,39,127
87007,note_on,0,0,0,,3,,,51,127
87007,note_on,0,0,0,,12,,,71,127
87114,note_off,107,0,0,,12,,,71,127
87116,note_on,2,0,0,,6,,,66,127
87223,note_off,107,0,0,,6,,,66,127
87223,note_off,0,0,0,,3,,,51,127
87223,note_off,0,0,0,,3,,,39,127
87225,note_on,2,0,0,,4,,,40,127
87225,note_on,0,0,0,,4,,,52,127
87225,note_on,0,0,0,,7,,,67,127
87332,note_off,107,0,0,,7,,,67,127
87334,note_on,2,0,0,,12,,,71,127
87441,note_off,107,0,0,,12,,,71,127
87441,note_off,0,0,0,,4,,,52,127
87441,note_off,0,0,0,,4,,,40,127
87443,note_on,2,0,0,,2,,,50,127
87443,note_on,0,0,0,,2,,,38,127
87443,note_on,0,0,0,,10,,,69,127
87550,note_off,107,0,0,,10,,,69,127
87552,note_on,2,0,0,,7,,,67,127
87659,note_off,107,0,0,,7,,,67,127
87659,note_off,0,0,0,,2,,,38,127
87659,note_off,0,0,0,,2,,,50,127
87661,note_on,2,0,0,,0,,,48,127
87661,note_on,0,0,0,,0,,,36,127
87661,note_on,0,0,0,,6,,,66,127
87768,note_off,107,0,0,,6,,,66,127
87770,note_on,2,0,0,,4,,,64,127
87866,note_off,96,0,0,,0,,,36,127
87866,note_off,0,0,0,,0,,,48,127
87877,note_off,11,0,0,,4,,,64,127
87879,note_on,2,0,0,,12,,,59,127
88098,note_on,219,0,0,,12,,,47,127
88205,note_off,107,0,0,,12,,,59,127
88207,note_on,2,0,0,,1,,,61,127
88314,note_off,107,0,0,,1,,,61,127
88316,note_on,2,0,0,,3,,,63,127
88423,note_off,107,0,0,,12,,,47,127
88425,note_on,2,0,0,,1,,,49,127
88532,note_off,107,0,0,,1,,,49,127
88534,note_on,2,0,0,,3,,,51,127
88641,note_off,107,0,0,,3,,,63,127
88643,note_on,2,0,0,,4,,,64,127
88750,note_off,107,0,0,,4,,,64,127
88752,note_on,2,0,0,,6,,,66,127
88859,note_off,107,0,0,,3,,,51,127
88861,note_on,2,0,0,,4,,,52,127
88968,note_off,107,0,0,,4,,,52,127
88970,note_on,2,0,0,,6,,,54,127
89077,note_off,107,0,0,,6,,,66,127
89079,note_on,2,0,0,,7,,,67,127
89186,note_off,107,0,0,,7,,,67,127
89188,note_on,2,0,0,,10,,,69,127
89295,note_off,107,0,0,,6,,,54,127
89297,note_on,2,0,0,,7,,,55,127
89404,note_off,107,0,0,,7,,,55,127
89406,note_on,2,0,0,,10,,,57,127
89513,note_off,107,0,0,,10,,,69,127
89515,note_on,2,0,0,,12,,,71,127
89622,note_off,107,0,0,,12,,,71,127
89622,note_off,0,0,0,,10,,,57,127
89624,note_on,2,0,0,,0,,,60,127
89843,note_on,219,0,0,,0,,,48,127
89950,note_off,107,0,0,,0,,,60,127
89952,note_on,2,0,0,,2,,,62,127
90059,note_off,107,0,0,,2,,,62,127
90061,note_on,2,0,0,,4,,,64,127
90168,note_off,107,0,0,,0,,,48,127
90170,note_on,2,0,0,,2,,,50,127
90277,note_off,107,0,0,,2,,,50,127
90279,note_on,2,0,0,,4,,,52,127
90386,note_off,107,0,0,,4,,,64,127
90388,note_on,2,0,0,,6,,,66,127
90495,note_off,107,0,0,,6,,,66,127
90497,note_on,2,0,0,,7,,,67,127
90604,note_off,107,0,0,,4,,,52,127
90606,note_on,2,0,0,,6,,,54,127
90713,note_off,107,0,0,,6,,,54,127
90715,note_on,2,0,0,,7,,,55,127
90822,note_off,107,0,0,,7,,,67,127
90824,note_on,2,0,0,,10,,,69,127
90931,note_off,107,0,0,,10,,,69,127
90933,note_on,2,0,0,,12,,,71,127
91040,note_off,107,0,0,,7,,,55,127
91042,note_on,2,0,0,,10,,,57,127
91149,note_off,107,0,0,,10,,,57,127
91151,note_on,2,0,0,,12,,,59,127
91258,note_off,107,0,0,,12,,,71,127
91260,note_on,2,0,0,,1,,,73,127
91367,note_off,107,0,0,,1,,,73,127
91369,note_on,2,0,0,,3,,,75,127
91476,note_off,107,0,0,,12,,,59,127
91478,note_on,2,0,0,,1,,,61,127
91585,note_off,107,0,0,,1,,,61,127
91587,note_on,2,0,0,,3,,,63,127
91694,note_off,107,0,0,,3,,,75,127
91696,note_on,2,0,0,,4,,,76,127
91803,note_off,107,0,0,,4,,,76,127
91805,note_on,2,0,0,,6,,,78,127
91912,note_off,107,0,0,,3,,,63,127
91914,note_on,2,0,0,,4,,,64,127
92021,note_off,107,0,0,,4,,,64,127
92023,note_on,2,0,0,,6,,,66,127
92130,note_off,107,0,0,,6,,,78,127
92132,note_on,2,0,0,,7,,,79,127
92239,note_off,107,0,0,,7,,,79,127
92241,note_on,2,0,0,,10,,,81,127
92348,note_off,107,0,0,,6,,,66,127
92350,note_on,2,0,0,,4,,,64,127
92457,note_off,107,0,0,,4,,,64,127
92459,note_on,2,0,0,,3,,,63,127
92566,note_off,107,0,0,,10,,,81,127
92568,note_on,2,0,0,,6,,,78,127
92675,note_off,107,0,0,,6,,,78,127
92677,note_on,2,0,0,,12,,,83,127
92784,note_off,107,0,0,,12,,,83,127
92786,note_on,2,0,0,,10,,,81,127
92893,note_off,107,0,0,,10,,,81,127
92895,note_on,2,0,0,,7,,,79,127
93002,note_off,107,0,0,,7,,,79,127
93004,note_on,2,0,0,,6,,,78,127
93111,note_off,107,0,0,,6,,,78,127
93111,note_off,0,0,0,,3,,,63,127
93113,note_on,2,0,0,,4,,,64,127
93113,note_on,0,0,0,,7,,,79,127
93220,note_off,107,0,0,,7,,,79,127
93222,note_on,2,0,0,,6,,,78,127
93329,note_off,107,0,0,,6,,,78,127
93329,note_off,0,0,0,,4,,,64,127
93331,note_on,2,0,0,,6,,,66,127
93331,note_on,0,0,0,,4,,,76,127
93438,note_off,107,0,0,,4,,,76,127
93440,note_on,2,0,0,,2,,,74,127
93547,note_off,107,0,0,,2,,,74,127
93547,note_off,0,0,0,,6,,,66,127
93549,note_on,2,0,0,,7,,,67,127
93549,note_on,0,0,0,,0,,,72,127
93656,note_off,107,0,0,,0,,,72,127
93658,note_on,2,0,0,,12,,,71,127
93765,note_off,107,0,0,,12,,,71,127
93765,note_off,0,0,0,,7,,,67,127
93767,note_on,2,0,0,,6,,,66,127
93767,note_on,0,0,0,,10,,,69,127
93874,note_off,107,0,0,,10,,,69,127
93876,note_on,2,0,0,,0,,,72,127
93983,note_off,107,0,0,,0,,,72,127
93983,note_off,0,0,0,,6,,,66,127
93985,note_on,2,0,0,,3,,,63,127
93985,note_on,0,0,0,,12,,,71,127
94092,note_off,107,0,0,,12,,,71,127
94094,note_on,2,0,0,,10,,,69,127
94201,note_off,107,0,0,,10,,,69,127
94201,note_off,0,0,0,,3,,,63,127
94203,note_on,2,0,0,,12,,,59,127
94203,note_on,0,0,0,,7,,,67,127
94310,note_off,107,0,0,,7,,,67,127
94312,note_on,2,0,0,,6,,,66,127
94419,note_off,107,0,0,,6,,,66,127
94419,note_off,0,0,0,,12,,,59,127
94421,note_on,2,0,0,,4,,,52,127
94421,note_on,0,0,0,,0,,,48,127
94421,note_on,0,0,0,,4,,,76,127
94531,note_on,110,0,0,,4,,,64,127
94638,note_off,107,0,0,,4,,,64,127
94638,note_off,0,0,0,,4,,,76,127
94640,note_on,2,0,0,,6,,,66,127
94747,note_off,107,0,0,,6,,,66,127
94749,note_on,2,0,0,,4,,,64,127
94856,note_off,107,0,0,,4,,,64,127
94856,note_off,0,0,0,,0,,,48,127
94856,note_off,0,0,0,,4,,,52,127
94858,note_on,2,0,0,,12,,,47,127
94858,note_on,0,0,0,,6,,,78,127
94968,note_on,110,0,0,,6,,,66,127
95075,note_off,107,0,0,,6,,,66,127
95075,note_off,0,0,0,,6,,,78,127
95075,note_off,0,0,0,,12,,,47,127
95077,note_on,2,0,0,,4,,,52,127
95077,note_on,0,0,0,,7,,,79,127
95187,note_on,110,0,0,,7,,,67,127
95294,note_off,107,0,0,,7,,,67,127
95294,note_off,0,0,0,,7,,,79,127
95296,note_on,2,0,0,,7,,,55,127
95296,note_on,0,0,0,,6,,,66,127
95403,note_off,107,0,0,,6,,,66,127
95405,note_on,2,0,0,,7,,,67,127
95510,note_off,105,0,0,,4,,,52,127
95512,note_off,2,0,0,,7,,,67,127
95512,note_off,0,0,0,,7,,,55,127
95514,note_on,2,0,0,,2,,,50,127
95514,note_on,0,0,0,,6,,,78,127
95624,note_on,110,0,0,,6,,,66,127
95731,note_off,107,0,0,,6,,,66,127
95731,note_off,0,0,0,,6,,,78,127
95731,note_off,0,0,0,,2,,,50,127
95733,note_on,2,0,0,,4,,,52,127
95733,note_on,0,0,0,,0,,,48,127
95733,note_on,0,0,0,,4,,,76,127
95843,note_on,110,0,0,,4,,,64,127
95950,note_off,107,0,0,,4,,,64,127
95950,note_off,0,0,0,,4,,,76,127
95952,note_on,2,0,0,,6,,,66,127
96059,note_off,107,0,0,,6,,,66,127
96061,note_on,2,0,0,,4,,,64,127
96168,note_off,107,0,0,,4,,,64,127
96168,note_off,0,0,0,,0,,,48,127
96168,note_off,0,0,0,,4,,,52,127
96170,note_on,2,0,0,,12,,,47,127
96170,note_on,0,0,0,,6,,,78,127
96280,note_on,110,0,0,,6,,,66,127
96387,note_off,107,0,0,,6,,,66,127
96387,note_off,0,0,0,,6,,,78,127
96387,note_off,0,0,0,,12,,,47,127
96389,note_on,2,0,0,,4,,,52,127
96389,note_on,0,0,0,,7,,,79,127
96499,note_on,110,0,0,,7,,,67,127
96606,note_off,107,0,0,,7,,,67,127
96606,note_off,0,0,0,,7,,,79,127
96608,note_on,2,0,0,,7,,,55,127
96608,note_on,0,0,0,,6,,,66,127
96715,note_off,107,0,0,,6,,,66,127
96717,note_on,2,0,0,,7,,,67,127
96822,note_off,105,0,0,,4,,,52,127
96824,note_off,2,0,0,,7,,,67,127
96824,note_off,0,0,0,,7,,,55,127
96826,note_on,2,0,0,,2,,,50,127
96826,note_on,0,0,0,,6,,,78,127
96936,note_on,110,0,0,,6,,,66,127
97043,note_off,107,0,0,,6,,,66,127
97043,note_off,0,0,0,,6,,,78,127
97043,note_off,0,0,0,,2,,,50,127
97045,note_on,2,0,0,,4,,,52,127
97045,note_on,0,0,0,,0,,,48,127
97045,note_on,0,0,0,,4,,,76,127
97155,note_on,110,0,0,,4,,,64,127
97262,note_off,107,0,0,,4,,,64,127
97262,note_off,0,0,0,,4,,,76,127
97264,note_on,2,0,0,,6,,,66,127
97371,note_off,107,0,0,,6,,,66,127
97373,note_on,2,0,0,,4,,,64,127
97480,note_off,107,0,0,,4,,,64,127
97480,note_off,0,0,0,,0,,,48,127
97480,note_off,0,0,0,,4,,,52,127
97482,note_on,2,0,0,,12,,,47,127
97482,note_on,0,0,0,,6,,,78,127
97592,note_on,110,0,0,,6,,,66,127
97699,note_off,107,0,0,,6,,,66,127
97699,note_off,0,0,0,,6,,,78,127
97699,note_off,0,0,0,,12,,,47,127
97701,note_on,2,0,0,,4,,,52,127
97701,note_on,0,0,0,,7,,,79,127
97808,note_off,107,0,0,,7,,,79,127
97810,note_on,2,0,0,,4,,,76,127
97917,note_off,107,0,0,,4,,,76,127
97917,note_off,0,0,0,,4,,,52,127
97919,note_on,2,0,0,,6,,,54,127
97919,note_on,0,0,0,,6,,,78,127
98026,note_off,107,0,0,,6,,,78,127
98028,note_on,2,0,0,,3,,,75,127
98135,note_off,107,0,0,,3,,,75,127
98135,note_off,0,0,0,,6,,,54,127
98137,note_on,2,0,0,,7,,,55,127
98137,note_on,0,0,0,,4,,,76,127
98244,note_off,107,0,0,,4,,,76,127
98246,note_on,2,0,0,,12,,,71,127
98353,note_off,107,0,0,,12,,,71,127
98353,note_off,0,0,0,,7,,,55,127
98355,note_on,2,0,0,,10,,,57,127
98355,note_on,0,0,0,,0,,,72,127
98462,note_off,107,0,0,,0,,,72,127
98464,note_on,2,0,0,,10,,,69,127
98571,note_off,107,0,0,,10,,,69,127
98571,note_off,0,0,0,,10,,,57,127
98573,note_on,2,0,0,,12,,,59,127
98573,note_on,0,0,0,,12,,,71,127
98680,note_off,107,0,0,,12,,,71,127
98682,note_on,2,0,0,,7,,,67,127
98789,note_off,107,0,0,,7,,,67,127
98789,note_off,0,0,0,,12,,,59,127
98791,note_on,2,0,0,,12,,,47,127
98791,note_on,0,0,0,,10,,,69,127
98898,note_off,107,0,0,,10,,,69,127
98900,note_on,2,0,0,,6,,,66,127
99007,note_off,107,0,0,,6,,,66,127
99007,note_off,0,0,0,,12,,,47,127
99009,note_on,2,0,0,,4,,,52,127
99009,note_on,0,0,0,,0,,,48,127
99009,note_on,0,0,0,,4,,,76,127
99119,note_on,110,0,0,,4,,,64,127
99226,note_off,107,0,0,,4,,,64,127
99228,note_on,2,0,0,,6,,,66,127
99335,note_off,107,0,0,,6,,,66,127
99337,note_on,2,0,0,,4,,,64,127
99442,note_off,105,0,0,,4,,,76,127
99444,note_off,2,0,0,,4,,,64,127
99444,note_off,0,0,0,,0,,,48,127
99444,note_off,0,0,0,,4,,,52,127
99446,note_on,2,0,0,,12,,,47,127
99446,note_on,0,0,0,,6,,,78,127
99556,note_on,110,0,0,,6,,,66,127
99611,note_off,55,0,0,,6,,,78,127
99664,note_off,53,0,0,,6,,,66,127
99664,note_off,0,0,0,,12,,,47,127
99666,note_on,2,0,0,,4,,,52,127
99666,note_on,0,0,0,,7,,,79,127
99776,note_on,110,0,0,,7,,,67,127
99831,note_off,55,0,0,,7,,,79,127
99884,note_off,53,0,0,,7,,,67,127
99886,note_on,2,0,0,,7,,,55,127
99886,note_on,0,0,0,,6,,,66,127
99993,note_off,107,0,0,,6,,,66,127
99995,note_on,2,0,0,,7,,,67,127
100100,note_off,105,0,0,,4,,,52,127
100102,note_off,2,0,0,,7,,,67,127
100102,note_off,0,0,0,,7,,,55,127
100104,note_on,2,0,0,,2,,,50,127
100104,note_on,0,0,0,,6,,,78,127
100214,note_on,110,0,0,,6,,,66,127
100269,note_off,55,0,0,,6,,,78,127
100322,note_off,53,0,0,,6,,,66,127
100322,note_off,0,0,0,,2,,,50,127
100324,note_on,2,0,0,,4,,,52,127
100324,note_on,0,0,0,,0,,,48,127
100324,note_on,0,0,0,,4,,,76,127
100434,note_on,110,0,0,,4,,,64,127
100541,note_off,107,0,0,,4,,,64,127
100543,note_on,2,0,0,,6,,,66,127
100650,note_off,107,0,0,,6,,,66,127
100652,note_on,2,0,0,,4,,,64,127
100757,note_off,105,0,0,,4,,,76,127
100759,note_off,2,0,0,,4,,,64,127
100759,note_off,0,0,0,,0,,,48,127
100759,note_off,0,0,0,,4,,,52,127
100761,note_on,2,0,0,,12,,,47,127
100761,note_on,0,0,0,,6,,,78,127
100871,note_on,110,0,0,,6,,,66,127
100926,note_off,55,0,0,,6,,,78,127
100979,note_off,53,0,0,,6,,,66,127
100979,note_off,0,0,0,,12,,,47,127
100981,note_on,2,0,0,,4,,,52,127
100981,note_on,0,0,0,,7,,,79,127
101091,note_on,110,0,0,,7,,,67,127
101146,note_off,55,0,0,,7,,,79,127
101199,note_off,53,0,0,,7,,,67,127
101201,note_on,2,0,0,,7,,,55,127
101201,note_on,0,0,0,,6,,,66,127
101308,note_off,107,0,0,,6,,,66,127
101310,note_on,2,0,0,,7,,,67,127
101415,note_off,105,0,0,,4,,,52,127
101417,note_off,2,0,0,,7,,,67,127
101417,note_off,0,0,0,,7,,,55,127
101419,note_on,2,0,0,,2,,,50,127
101419,note_on,0,0,0,,6,,,78,127
101529,note_on,110,0,0,,6,,,66,127
101584,note_off,55,0,0,,6,,,78,127
101637,note_off,53,0,0,,6,,,66,127
101637,note_off,0,0,0,,2,,,50,127
101639,note_on,2,0,0,,4,,,52,127
101639,note_on,0,0,0,,0,,,48,127
101639,note_on,0,0,0,,4,,,76,127
101749,note_on,110,0,0,,4,,,64,127
101856,note_off,107,0,0,,4,,,64,127
101858,note_on,2,0,0,,6,,,66,127
101965,note_off,107,0,0,,6,,,66,127
101967,note_on,2,0,0,,4,,,64,127
102072,note_off,105,0,0,,4,,,76,127
102074,note_off,2,0,0,,4,,,64,127
102074,note_off,0,0,0,,0,,,48,127
102074,note_off,0,0,0,,4,,,52,127
102076,note_on,2,0,0,,12,,,47,127
102076,note_on,0,0,0,,6,,,78,127
102183,note_off,107,0,0,,6,,,78,127
102185,note_on,2,0,0,,6,,,66,127
102292,note_off,107,0,0,,6,,,66,127
102292,note_off,0,0,0,,12,,,47,127
102294,note_on,2,0,0,,4,,,52,127
102294,note_on,0,0,0,,7,,,55,127
102294,note_on,0,0,0,,7,,,79,127
102401,note_off,107,0,0,,7,,,79,127
102403,note_on,2,0,0,,4,,,76,127
102510,note_off,107,0,0,,4,,,76,127
102510,note_off,0,0,0,,7,,,55,127
102510,note_off,0,0,0,,4,,,52,127
102512,note_on,2,0,0,,10,,,57,127
102512,note_on,0,0,0,,6,,,54,127
102512,note_on,0,0,0,,6,,,78,127
102619,note_off,107,0,0,,6,,,78,127
102621,note_on,2,0,0,,3,,,75,127
102728,note_off,107,0,0,,3,,,75,127
102728,note_off,0,0,0,,6,,,54,127
102728,note_off,0,0,0,,10,,,57,127
102730,note_on,2,0,0,,12,,,59,127
102730,note_on,0,0,0,,7,,,55,127
102730,note_on,0,0,0,,4,,,76,127
102837,note_off,107,0,0,,4,,,76,127
102839,note_on,2,0,0,,12,,,83,127
102946,note_off,107,0,0,,12,,,83,127
102946,note_off,0,0,0,,7,,,55,127
102946,note_off,0,0,0,,12,,,59,127
102948,note_on,2,0,0,,10,,,57,127
102948,note_on,0,0,0,,0,,,60,127
102948,note_on,0,0,0,,0,,,84,127
103055,note_off,107,0,0,,0,,,84,127
103057,note_on,2,0,0,,10,,,81,127
103164,note_off,107,0,0,,10,,,81,127
103164,note_off,0,0,0,,0,,,60,127
103164,note_off,0,0,0,,10,,,57,127
103166,note_on,2,0,0,,12,,,59,127
103166,note_on,0,0,0,,12,,,83,127
103273,note_off,107,0,0,,12,,,83,127
103275,note_on,2,0,0,,7,,,79,127
103382,note_off,107,0,0,,7,,,79,127
103384,note_on,2,0,0,,12,,,47,127
103384,note_on,0,0,0,,10,,,81,127
103491,note_off,107,0,0,,10,,,81,127
103493,note_on,2,0,0,,6,,,78,127
103598,note_off,105,0,0,,12,,,59,127
103600,note_off,2,0,0,,6,,,78,127
103600,note_off,0,0,0,,12,,,47,127
103602,note_on,2,0,0,,4,,,52,127
103602,note_on,0,0,0,,7,,,79,127
103709,note_off,107,0,0,,7,,,79,127
103711,note_on,2,0,0,,4,,,76,127
103818,note_off,107,0,0,,4,,,76,127
103818,note_off,0,0,0,,4,,,52,127
103820,note_on,2,0,0,,6,,,54,127
103820,note_on,0,0,0,,6,,,78,127
103927,note_off,107,0,0,,6,,,78,127
103929,note_on,2,0,0,,3,,,75,127
104036,note_off,107,0,0,,3,,,75,127
104036,note_off,0,0,0,,6,,,54,127
104038,note_on,2,0,0,,7,,,55,127
104038,note_on,0,0,0,,4,,,76,127
104145,note_off,107,0,0,,4,,,76,127
104147,note_on,2,0,0,,12,,,71,127
104254,note_off,107,0,0,,12,,,71,127
104254,note_off,0,0,0,,7,,,55,127
104256,note_on,2,0,0,,10,,,57,127
104256,note_on,0,0,0,,0,,,72,127
104363,note_off,107,0,0,,0,,,72,127
104365,note_on,2,0,0,,10,,,69,127
104472,note_off,107,0,0,,10,,,69,127
104472,note_off,0,0,0,,10,,,57,127
104474,note_on,2,0,0,,12,,,59,127
104474,note_on,0,0,0,,12,,,71,127
104581,note_off,107,0,0,,12,,,71,127
104583,note_on,2,0,0,,7,,,67,127
104690,note_off,107,0,0,,7,,,67,127
104692,note_on,2,0,0,,12,,,47,127
104692,note_on,0,0,0,,10,,,69,127
104799,note_off,107,0,0,,10,,,69,127
104801,note_off,2,0,0,,12,,,59,127
104801,note_on,0,0,0,,6,,,66,127
104908,note_off,107,0,0,,12,,,47,127
104909,note_off,1,0,0,,6,,,66,127
104912,note_on,3,0,0,,7,,,67,127
104912,note_on,0,0,0,,4,,,52,127
104912,note_on,0,0,0,,4,,,40,127
105021,note_off,109,0,0,,7,,,67,127
105026,note_on,5,0,0,,4,,,64,127
105133,note_off,107,0,0,,4,,,40,127
105133,note_off,0,0,0,,4,,,52,127
105134,note_off,1,0,0,,4,,,64,127
105139,note_on,5,0,0,,6,,,66,127
105139,note_on,0,0,0,,6,,,42,127
105248,note_off,109,0,0,,6,,,66,127
105253,note_on,5,0,0,,3,,,63,127
105360,note_off,107,0,0,,6,,,42,127
105361,note_off,1,0,0,,3,,,63,127
105366,note_on,5,0,0,,4,,,64,127
105366,note_on,0,0,0,,7,,,43,127
105475,note_off,109,0,0,,4,,,64,127
105480,note_on,5,0,0,,12,,,59,127
105587,note_off,107,0,0,,7,,,43,127
105588,note_off,1,0,0,,12,,,59,127
105593,note_on,5,0,0,,0,,,60,127
105593,note_on,0,0,0,,10,,,45,127
105702,note_off,109,0,0,,0,,,60,127
105707,note_on,5,0,0,,10,,,57,127
105814,note_off,107,0,0,,10,,,45,127
105815,note_off,1,0,0,,10,,,57,127
105818,note_on,3,0,0,,7,,,55,127
105818,note_on,0,0,0,,12,,,47,127
105927,note_off,109,0,0,,7,,,55,127
105932,note_on,5,0,0,,4,,,64,127
106041,note_off,109,0,0,,4,,,64,127
106046,note_on,5,0,0,,6,,,54,127
106046,note_on,0,0,0,,12,,,35,127
106155,note_off,109,0,0,,6,,,54,127
106160,note_on,5,0,0,,3,,,63,127
106263,note_off,103,0,0,,12,,,47,127
106268,note_off,5,0,0,,12,,,35,127
106279,note_off,11,0,0,,3,,,63,127
106298,note_on,19,0,0,,4,,,40,127
106298,note_on,0,0,0,,3,,,63,127
106298,note_on,0,0,0,,4,,,52,127
106889,note_off,591,0,0,,3,,,63,127
106889,note_on,0,0,0,,4,,,64,127
108425,note_off,1536,0,0,,4,,,64,127
108425,note_off,0,0,0,,4,,,52,127
108425,note_off,0,0,0,,4,,,40,127
113664,end_of_track,5239,1,0,,,,,,
