tick,type,time,meta,track,program,channel,pitch,tempo,note,velocity
0,copyright,0,1,0,,,,,,
0,program_change,0,0,0,6,0,,,,
0,pitchwheel,0,0,0,,0,0,,,
0,program_change,0,0,0,6,1,,,,
0,pitchwheel,0,0,0,,1,-590,,,
0,program_change,0,0,0,6,2,,,,
0,pitchwheel,0,0,0,,2,-272,,,
0,program_change,0,0,0,6,3,,,,
0,pitchwheel,0,0,0,,3,-353,,,
0,program_change,0,0,0,6,4,,,,
0,pitchwheel,0,0,0,,4,-560,,,
0,program_change,0,0,0,6,5,,,,
0,pitchwheel,0,0,0,,5,-80,,,
0,program_change,0,0,0,6,6,,,,
0,pitchwheel,0,0,0,,6,-625,,,
0,program_change,0,0,0,6,7,,,,
0,pitchwheel,0,0,0,,7,-130,,,
0,program_change,0,0,0,6,8,,,,
0,pitchwheel,0,0,0,,8,-512,,,
0,program_change,0,0,0,6,10,,,,
0,pitchwheel,0,0,0,,10,-464,,,
0,program_change,0,0,0,6,11,,,,
0,pitchwheel,0,0,0,,11,-208,,,
0,program_change,0,0,0,6,12,,,,
0,pitchwheel,0,0,0,,12,-553,,,
0,set_tempo,0,1,0,,,,500000,,
48,note_on,48,0,0,,5,,,77,127
622,note_off,574,0,0,,5,,,77,127
624,note_on,2,0,0,,5,,,77,127
910,note_off,286,0,0,,5,,,77,127
912,note_on,2,0,0,,0,,,72,127
1054,note_off,142,0,0,,0,,,72,127
1056,note_on,2,0,0,,8,,,68,127
1198,note_off,142,0,0,,8,,,68,127
1200,note_on,2,0,0,,5,,,65,127
1486,note_off,286,0,0,,5,,,65,127
1488,note_on,2,0,0,,0,,,60,127
1774,note_off,286,0,0,,0,,,60,127
1776,note_on,2,0,0,,8,,,56,127
2062,note_off,286,0,0,,8,,,56,127
2064,note_on,2,0,0,,5,,,53,127
2352,note_on,288,0,0,,5,,,65,127
2638,note_off,286,0,0,,5,,,53,127
2640,note_on,2,0,0,,8,,,68,127
2926,note_off,286,0,0,,8,,,68,127
2928,note_on,2,0,0,,0,,,72,127
3214,note_off,286,0,0,,5,,,65,127
3216,note_on,2,0,0,,0,,,60,127
3358,note_off,142,0,0,,0,,,60,127
3360,note_on,2,0,0,,8,,,56,127
3502,note_off,142,0,0,,8,,,56,127
3504,note_on,2,0,0,,5,,,53,127
3790,note_off,286,0,0,,5,,,53,127
3790,note_off,0,0,0,,0,,,72,127
3792,note_on,2,0,0,,0,,,48,127
3792,note_on,0,0,0,,0,,,72,127
4054,note_off,262,0,0,,0,,,72,127
4078,note_off,24,0,0,,0,,,48,127
4080,note_on,2,0,0,,8,,,44,127
4080,note_on,0,0,0,,5,,,77,127
4342,note_off,262,0,0,,5,,,77,127
4366,note_off,24,0,0,,8,,,44,127
4368,note_on,2,0,0,,5,,,41,127
4368,note_on,0,0,0,,8,,,80,127
4630,note_off,262,0,0,,8,,,80,127
4654,note_off,24,0,0,,5,,,41,127
4656,note_on,2,0,0,,0,,,48,127
4656,note_on,0,0,0,,7,,,79,127
4942,note_off,286,0,0,,7,,,79,127
4944,note_on,2,0,0,,4,,,76,127
5086,note_off,142,0,0,,4,,,76,127
5088,note_on,2,0,0,,0,,,72,127
5181,note_off,93,0,0,,0,,,48,127
5231,note_off,50,0,0,,0,,,72,127
5233,note_on,2,0,0,,7,,,67,127
5233,note_on,0,0,0,,11,,,70,127
5519,note_off,286,0,0,,7,,,67,127
5521,note_on,2,0,0,,4,,,64,127
5663,note_off,142,0,0,,4,,,64,127
5665,note_on,2,0,0,,0,,,60,127
5807,note_off,142,0,0,,0,,,60,127
5809,note_on,2,0,0,,11,,,58,127
6095,note_off,286,0,0,,11,,,70,127
6097,note_on,2,0,0,,11,,,82,127
6239,note_off,142,0,0,,11,,,82,127
6241,note_on,2,0,0,,7,,,79,127
6383,note_off,142,0,0,,7,,,79,127
6385,note_on,2,0,0,,5,,,77,127
6431,note_off,46,0,0,,5,,,77,127
6433,note_on,2,0,0,,4,,,76,127
6479,note_off,46,0,0,,4,,,76,127
6481,note_on,2,0,0,,5,,,77,127
6484,note_off,3,0,0,,11,,,58,127
6528,note_off,44,0,0,,5,,,77,127
6530,note_on,2,0,0,,4,,,76,127
6674,note_on,144,0,0,,11,,,70,127
6816,note_off,142,0,0,,11,,,70,127
6818,note_on,2,0,0,,7,,,67,127
6905,note_off,87,0,0,,4,,,76,127
6961,note_off,56,0,0,,7,,,67,127
6963,note_on,2,0,0,,8,,,68,127
7251,note_on,288,0,0,,0,,,84,127
7393,note_off,142,0,0,,0,,,84,127
7395,note_on,2,0,0,,8,,,80,127
7537,note_off,142,0,0,,8,,,80,127
7539,note_on,2,0,0,,7,,,79,127
7585,note_off,46,0,0,,7,,,79,127
7587,note_on,2,0,0,,5,,,77,127
7633,note_off,46,0,0,,5,,,77,127
7635,note_on,2,0,0,,7,,,79,127
7681,note_off,46,0,0,,7,,,79,127
7683,note_off,2,0,0,,8,,,68,127
7683,note_on,0,0,0,,5,,,77,127
7827,note_on,144,0,0,,1,,,73,127
7969,note_off,142,0,0,,1,,,73,127
7971,note_on,2,0,0,,11,,,70,127
8113,note_off,142,0,0,,11,,,70,127
8115,note_on,2,0,0,,7,,,67,127
8358,note_off,243,0,0,,5,,,77,127
8403,note_on,45,0,0,,11,,,82,127
8545,note_off,142,0,0,,11,,,82,127
8547,note_on,2,0,0,,7,,,79,127
8689,note_off,142,0,0,,7,,,79,127
8691,note_on,2,0,0,,5,,,77,127
8737,note_off,46,0,0,,5,,,77,127
8739,note_on,2,0,0,,4,,,76,127
8785,note_off,46,0,0,,4,,,76,127
8787,note_on,2,0,0,,5,,,77,127
8833,note_off,46,0,0,,5,,,77,127
8835,note_on,2,0,0,,4,,,76,127
8940,note_off,105,0,0,,7,,,67,127
8979,note_on,39,0,0,,11,,,70,127
9121,note_off,142,0,0,,11,,,70,127
9123,note_on,2,0,0,,7,,,67,127
9265,note_off,142,0,0,,7,,,67,127
9266,note_off,1,0,0,,4,,,76,127
9267,note_on,1,0,0,,8,,,68,127
9553,note_off,286,0,0,,8,,,68,127
9555,note_on,2,0,0,,0,,,72,127
9555,note_on,0,0,0,,7,,,79,127
9594,note_on,39,0,0,,5,,,77,127
9595,note_off,1,0,0,,7,,,79,127
9633,note_on,38,0,0,,7,,,79,127
9634,note_off,1,0,0,,5,,,77,127
9672,note_on,38,0,0,,5,,,77,127
9673,note_off,1,0,0,,7,,,79,127
9697,note_off,24,0,0,,0,,,72,127
9699,note_on,2,0,0,,8,,,68,127
9841,note_off,142,0,0,,8,,,68,127
9843,note_on,2,0,0,,5,,,65,127
10034,note_off,191,0,0,,5,,,77,127
10129,note_off,95,0,0,,5,,,65,127
10131,note_on,2,0,0,,8,,,68,127
10131,note_on,0,0,0,,7,,,79,127
10168,note_on,37,0,0,,5,,,77,127
10169,note_off,1,0,0,,7,,,79,127
10205,note_on,36,0,0,,7,,,79,127
10206,note_off,1,0,0,,5,,,77,127
10242,note_on,36,0,0,,5,,,77,127
10243,note_off,1,0,0,,7,,,79,127
10273,note_off,30,0,0,,8,,,68,127
10275,note_on,2,0,0,,5,,,65,127
10417,note_off,142,0,0,,5,,,65,127
10419,note_on,2,0,0,,1,,,61,127
10602,note_off,183,0,0,,5,,,77,127
10705,note_off,103,0,0,,1,,,61,127
10707,note_on,2,0,0,,8,,,68,127
10707,note_on,0,0,0,,7,,,79,127
10741,note_off,34,0,0,,7,,,79,127
10743,note_on,2,0,0,,5,,,77,127
10777,note_off,34,0,0,,5,,,77,127
10779,note_on,2,0,0,,7,,,79,127
10813,note_off,34,0,0,,7,,,79,127
10815,note_on,2,0,0,,5,,,77,127
10849,note_off,34,0,0,,8,,,68,127
10851,note_on,2,0,0,,5,,,65,127
10993,note_off,142,0,0,,5,,,65,127
10995,note_on,2,0,0,,0,,,60,127
11175,note_off,180,0,0,,5,,,77,127
11281,note_off,106,0,0,,0,,,60,127
11283,note_on,2,0,0,,8,,,68,127
11283,note_on,0,0,0,,7,,,79,127
11283,note_on,0,0,0,,11,,,82,127
11329,note_off,46,0,0,,11,,,82,127
11329,note_off,0,0,0,,7,,,79,127
11331,note_on,2,0,0,,5,,,77,127
11331,note_on,0,0,0,,8,,,80,127
11377,note_off,46,0,0,,8,,,80,127
11377,note_off,0,0,0,,5,,,77,127
11379,note_on,2,0,0,,7,,,79,127
11379,note_on,0,0,0,,11,,,82,127
11425,note_off,46,0,0,,11,,,82,127
11425,note_off,0,0,0,,7,,,79,127
11425,note_off,0,0,0,,8,,,68,127
11427,note_on,2,0,0,,5,,,65,127
11427,note_on,0,0,0,,5,,,77,127
11427,note_on,0,0,0,,8,,,80,127
11569,note_off,142,0,0,,5,,,65,127
11571,note_on,2,0,0,,11,,,58,127
11787,note_off,216,0,0,,8,,,80,127
11787,note_off,0,0,0,,5,,,77,127
11857,note_off,70,0,0,,11,,,58,127
11859,note_on,2,0,0,,7,,,67,127
11859,note_on,0,0,0,,8,,,80,127
11859,note_on,0,0,0,,0,,,84,127
11905,note_off,46,0,0,,0,,,84,127
11905,note_off,0,0,0,,8,,,80,127
11907,note_on,2,0,0,,7,,,79,127
11907,note_on,0,0,0,,11,,,82,127
11953,note_off,46,0,0,,11,,,82,127
11953,note_off,0,0,0,,7,,,79,127
11955,note_on,2,0,0,,8,,,80,127
11955,note_on,0,0,0,,0,,,84,127
12001,note_off,46,0,0,,0,,,84,127
12001,note_off,0,0,0,,8,,,80,127
12001,note_off,0,0,0,,7,,,67,127
12003,note_on,2,0,0,,4,,,64,127
12003,note_on,0,0,0,,7,,,79,127
12003,note_on,0,0,0,,11,,,82,127
12145,note_off,142,0,0,,4,,,64,127
12147,note_on,2,0,0,,8,,,56,127
12363,note_off,216,0,0,,11,,,82,127
12363,note_off,0,0,0,,7,,,79,127
12433,note_off,70,0,0,,8,,,56,127
12435,note_on,2,0,0,,5,,,65,127
12435,note_on,0,0,0,,11,,,82,127
12435,note_on,0,0,0,,1,,,85,127
12481,note_off,46,0,0,,1,,,85,127
12481,note_off,0,0,0,,11,,,82,127
12483,note_on,2,0,0,,8,,,80,127
12483,note_on,0,0,0,,0,,,84,127
12529,note_off,46,0,0,,0,,,84,127
12529,note_off,0,0,0,,8,,,80,127
12531,note_on,2,0,0,,11,,,82,127
12531,note_on,0,0,0,,1,,,85,127
12577,note_off,46,0,0,,1,,,85,127
12577,note_off,0,0,0,,11,,,82,127
12577,note_off,0,0,0,,5,,,65,127
12579,note_on,2,0,0,,0,,,60,127
12579,note_on,0,0,0,,8,,,80,127
12579,note_on,0,0,0,,0,,,84,127
12721,note_off,142,0,0,,0,,,60,127
12723,note_on,2,0,0,,7,,,55,127
12939,note_off,216,0,0,,0,,,84,127
12939,note_off,0,0,0,,8,,,80,127
13009,note_off,70,0,0,,7,,,55,127
13011,note_on,2,0,0,,4,,,64,127
13011,note_on,0,0,0,,4,,,76,127
13083,note_on,72,0,0,,7,,,79,127
13153,note_off,70,0,0,,4,,,64,127
13155,note_on,2,0,0,,11,,,58,127
13155,note_on,0,0,0,,11,,,82,127
13297,note_off,142,0,0,,11,,,58,127
13299,note_on,2,0,0,,5,,,53,127
13518,note_off,219,0,0,,7,,,79,127
13521,note_off,3,0,0,,4,,,76,127
13585,note_off,64,0,0,,5,,,53,127
13585,note_off,0,0,0,,11,,,82,127
13587,note_on,2,0,0,,5,,,65,127
13587,note_on,0,0,0,,8,,,80,127
13729,note_off,142,0,0,,5,,,65,127
13731,note_on,2,0,0,,0,,,60,127
13873,note_off,142,0,0,,0,,,60,127
13873,note_off,0,0,0,,8,,,80,127
13875,note_on,2,0,0,,0,,,48,127
13875,note_on,0,0,0,,7,,,79,127
14161,note_off,286,0,0,,7,,,79,127
14163,note_on,2,0,0,,0,,,84,127
14385,note_off,222,0,0,,0,,,48,127
14451,note_on,66,0,0,,0,,,72,127
14593,note_off,142,0,0,,0,,,84,127
14595,note_on,2,0,0,,7,,,79,127
14737,note_off,142,0,0,,7,,,79,127
14739,note_on,2,0,0,,4,,,76,127
14881,note_off,142,0,0,,4,,,76,127
14882,note_off,1,0,0,,0,,,72,127
14883,note_on,1,0,0,,0,,,72,127
15025,note_off,142,0,0,,0,,,72,127
15027,note_on,2,0,0,,5,,,65,127
15027,note_on,0,0,0,,3,,,75,127
15080,note_off,53,0,0,,3,,,75,127
15080,note_on,0,0,0,,1,,,73,127
15133,note_off,53,0,0,,1,,,73,127
15133,note_on,0,0,0,,3,,,75,127
15186,note_off,53,0,0,,3,,,75,127
15186,note_on,0,0,0,,1,,,73,127
15239,note_off,53,0,0,,1,,,73,127
15239,note_on,0,0,0,,3,,,75,127
15292,note_off,53,0,0,,3,,,75,127
15292,note_on,0,0,0,,1,,,73,127
15313,note_off,21,0,0,,5,,,65,127
15315,note_on,2,0,0,,0,,,72,127
15345,note_off,30,0,0,,1,,,73,127
15345,note_on,0,0,0,,3,,,75,127
15398,note_off,53,0,0,,3,,,75,127
15398,note_on,0,0,0,,1,,,73,127
15451,note_off,53,0,0,,1,,,73,127
15451,note_on,0,0,0,,3,,,75,127
15504,note_off,53,0,0,,3,,,75,127
15504,note_on,0,0,0,,1,,,73,127
15601,note_off,97,0,0,,0,,,72,127
15603,note_on,2,0,0,,0,,,72,127
15745,note_off,142,0,0,,0,,,72,127
15747,note_on,2,0,0,,11,,,70,127
15889,note_off,142,0,0,,11,,,70,127
15891,note_on,2,0,0,,8,,,68,127
16004,note_off,113,0,0,,1,,,73,127
16033,note_off,29,0,0,,8,,,68,127
16035,note_on,2,0,0,,7,,,67,127
16177,note_off,142,0,0,,7,,,67,127
16179,note_on,2,0,0,,8,,,68,127
16239,note_on,60,0,0,,4,,,76,127
16309,note_off,70,0,0,,4,,,76,127
16315,note_on,6,0,0,,5,,,77,127
16385,note_off,70,0,0,,5,,,77,127
16391,note_on,6,0,0,,7,,,79,127
16461,note_off,70,0,0,,7,,,79,127
16465,note_off,4,0,0,,8,,,68,127
16467,note_on,2,0,0,,11,,,70,127
16467,note_on,0,0,0,,5,,,77,127
16753,note_off,286,0,0,,11,,,70,127
16755,note_on,2,0,0,,8,,,68,127
16897,note_off,142,0,0,,5,,,77,127
16899,note_on,2,0,0,,4,,,76,127
17041,note_off,142,0,0,,4,,,76,127
17041,note_off,0,0,0,,8,,,68,127
17043,note_on,2,0,0,,7,,,67,127
17043,note_on,0,0,0,,5,,,77,127
17185,note_off,142,0,0,,5,,,77,127
17187,note_on,2,0,0,,7,,,79,127
17329,note_off,142,0,0,,7,,,79,127
17329,note_off,0,0,0,,7,,,67,127
17331,note_on,2,0,0,,5,,,65,127
17331,note_on,0,0,0,,8,,,80,127
17547,note_off,216,0,0,,8,,,80,127
17619,note_on,72,0,0,,12,,,83,127
17879,note_off,260,0,0,,5,,,65,127
17907,note_on,28,0,0,,0,,,60,127
17979,note_off,72,0,0,,12,,,83,127
18051,note_on,72,0,0,,0,,,84,127
18193,note_off,142,0,0,,0,,,84,127
18195,note_on,2,0,0,,7,,,79,127
18337,note_off,142,0,0,,7,,,79,127
18339,note_on,2,0,0,,0,,,72,127
18481,note_off,142,0,0,,0,,,72,127
18481,note_off,0,0,0,,0,,,60,127
18483,note_on,2,0,0,,5,,,65,127
18483,note_on,0,0,0,,3,,,75,127
18541,note_on,58,0,0,,1,,,73,127
18544,note_off,3,0,0,,3,,,75,127
18600,note_on,56,0,0,,0,,,72,127
18602,note_off,2,0,0,,1,,,73,127
18658,note_on,56,0,0,,1,,,73,127
18661,note_off,3,0,0,,0,,,72,127
18717,note_on,56,0,0,,3,,,75,127
18719,note_off,2,0,0,,1,,,73,127
18771,note_off,52,0,0,,5,,,65,127
18773,note_on,2,0,0,,0,,,72,127
18775,note_on,2,0,0,,1,,,73,127
18778,note_off,3,0,0,,3,,,75,127
18834,note_on,56,0,0,,3,,,75,127
18836,note_off,2,0,0,,1,,,73,127
18892,note_on,56,0,0,,1,,,73,127
18894,note_off,2,0,0,,3,,,75,127
18950,note_on,56,0,0,,3,,,75,127
18953,note_off,3,0,0,,1,,,73,127
19009,note_on,56,0,0,,1,,,73,127
19011,note_off,2,0,0,,3,,,75,127
19060,note_off,49,0,0,,0,,,72,127
19062,note_on,2,0,0,,0,,,72,127
19067,note_on,5,0,0,,3,,,75,127
19070,note_off,3,0,0,,1,,,73,127
19126,note_on,56,0,0,,1,,,73,127
19128,note_off,2,0,0,,3,,,75,127
19184,note_on,56,0,0,,3,,,75,127
19186,note_off,2,0,0,,1,,,73,127
19204,note_off,18,0,0,,0,,,72,127
19206,note_on,2,0,0,,11,,,70,127
19240,note_on,34,0,0,,1,,,73,127
19244,note_off,4,0,0,,3,,,75,127
19298,note_on,54,0,0,,3,,,75,127
19300,note_off,2,0,0,,1,,,73,127
19347,note_off,47,0,0,,11,,,70,127
19349,note_on,2,0,0,,8,,,68,127
19359,note_off,10,0,0,,3,,,75,127
19360,note_on,1,0,0,,1,,,73,127
19492,note_off,132,0,0,,8,,,68,127
19494,note_on,2,0,0,,7,,,67,127
19636,note_off,142,0,0,,7,,,67,127
19638,note_on,2,0,0,,8,,,68,127
19690,note_off,52,0,0,,1,,,73,127
19737,note_on,47,0,0,,4,,,76,127
19798,note_off,61,0,0,,4,,,76,127
19800,note_on,2,0,0,,5,,,77,127
19861,note_off,61,0,0,,5,,,77,127
19863,note_on,2,0,0,,7,,,79,127
19924,note_off,61,0,0,,7,,,79,127
19926,note_off,2,0,0,,8,,,68,127
19928,note_on,2,0,0,,11,,,70,127
19928,note_on,0,0,0,,5,,,77,127
20214,note_off,286,0,0,,11,,,70,127
20216,note_on,2,0,0,,8,,,68,127
20318,note_off,102,0,0,,5,,,77,127
20502,note_off,184,0,0,,8,,,68,127
20520,note_on,18,0,0,,4,,,76,127
20520,note_on,0,0,0,,7,,,67,127
20615,note_off,95,0,0,,4,,,76,127
20616,note_on,1,0,0,,5,,,77,127
20711,note_off,95,0,0,,5,,,77,127
20712,note_on,1,0,0,,7,,,79,127
20806,note_off,94,0,0,,7,,,67,127
20807,note_off,1,0,0,,7,,,79,127
20824,note_on,17,0,0,,5,,,65,127
20824,note_on,0,0,0,,8,,,80,127
21012,note_off,188,0,0,,8,,,80,127
21012,note_off,0,0,0,,5,,,65,127
21014,note_on,2,0,0,,7,,,67,127
21014,note_on,0,0,0,,7,,,79,127
21202,note_off,188,0,0,,7,,,79,127
21202,note_off,0,0,0,,7,,,67,127
21204,note_on,2,0,0,,8,,,68,127
21204,note_on,0,0,0,,5,,,77,127
21392,note_off,188,0,0,,5,,,77,127
21392,note_off,0,0,0,,8,,,68,127
21394,note_on,2,0,0,,11,,,70,127
21394,note_on,0,0,0,,2,,,74,127
21582,note_off,188,0,0,,11,,,70,127
21584,note_on,2,0,0,,7,,,67,127
21772,note_off,188,0,0,,7,,,67,127
21772,note_off,0,0,0,,2,,,74,127
21774,note_on,2,0,0,,0,,,72,127
21774,note_on,0,0,0,,4,,,76,127
21953,note_off,179,0,0,,4,,,76,127
21963,note_off,10,0,0,,0,,,72,127
21965,note_on,2,0,0,,5,,,65,127
21965,note_on,0,0,0,,11,,,82,127
22058,note_off,93,0,0,,11,,,82,127
22060,note_on,2,0,0,,8,,,80,127
22153,note_off,93,0,0,,8,,,80,127
22153,note_off,0,0,0,,5,,,65,127
22155,note_on,2,0,0,,7,,,67,127
22155,note_on,0,0,0,,7,,,79,127
22343,note_off,188,0,0,,7,,,79,127
22343,note_off,0,0,0,,7,,,67,127
22345,note_on,2,0,0,,8,,,68,127
22345,note_on,0,0,0,,5,,,77,127
22533,note_off,188,0,0,,5,,,77,127
22533,note_off,0,0,0,,8,,,68,127
22535,note_on,2,0,0,,11,,,70,127
22535,note_on,0,0,0,,2,,,74,127
22723,note_off,188,0,0,,11,,,70,127
22725,note_on,2,0,0,,7,,,67,127
22913,note_off,188,0,0,,7,,,67,127
22913,note_off,0,0,0,,2,,,74,127
22915,note_on,2,0,0,,0,,,72,127
22915,note_on,0,0,0,,4,,,76,127
23084,note_off,169,0,0,,4,,,76,127
23104,note_off,20,0,0,,0,,,72,127
23106,note_on,2,0,0,,8,,,68,127
23106,note_on,0,0,0,,5,,,77,127
23294,note_off,188,0,0,,5,,,77,127
23294,note_off,0,0,0,,8,,,68,127
23296,note_on,2,0,0,,7,,,67,127
23296,note_on,0,0,0,,7,,,79,127
23484,note_off,188,0,0,,7,,,79,127
23484,note_off,0,0,0,,7,,,67,127
23486,note_on,2,0,0,,5,,,65,127
23486,note_on,0,0,0,,8,,,80,127
23674,note_off,188,0,0,,8,,,80,127
23674,note_off,0,0,0,,5,,,65,127
23676,note_on,2,0,0,,7,,,67,127
23676,note_on,0,0,0,,11,,,82,127
23769,note_off,93,0,0,,11,,,82,127
23771,note_on,2,0,0,,8,,,80,127
23864,note_off,93,0,0,,8,,,80,127
23864,note_off,0,0,0,,7,,,67,127
23866,note_on,2,0,0,,10,,,69,127
23866,note_on,0,0,0,,7,,,79,127
23959,note_off,93,0,0,,7,,,79,127
23961,note_on,2,0,0,,5,,,77,127
24054,note_off,93,0,0,,5,,,77,127
24054,note_off,0,0,0,,10,,,69,127
24056,note_on,2,0,0,,12,,,71,127
24056,note_on,0,0,0,,3,,,75,127
24149,note_off,93,0,0,,3,,,75,127
24151,note_on,2,0,0,,2,,,74,127
24234,note_off,83,0,0,,12,,,71,127
24244,note_off,10,0,0,,2,,,74,127
24246,note_on,2,0,0,,0,,,60,127
24246,note_on,0,0,0,,5,,,77,127
24339,note_off,93,0,0,,5,,,77,127
24341,note_on,2,0,0,,3,,,75,127
24434,note_off,93,0,0,,3,,,75,127
24434,note_off,0,0,0,,0,,,60,127
24436,note_on,2,0,0,,2,,,62,127
24436,note_on,0,0,0,,2,,,74,127
24624,note_off,188,0,0,,2,,,74,127
24624,note_off,0,0,0,,2,,,62,127
24626,note_on,2,0,0,,3,,,63,127
24626,note_on,0,0,0,,0,,,72,127
24814,note_off,188,0,0,,0,,,72,127
24814,note_off,0,0,0,,3,,,63,127
24816,note_on,2,0,0,,5,,,65,127
24816,note_on,0,0,0,,10,,,69,127
25004,note_off,188,0,0,,5,,,65,127
25006,note_on,2,0,0,,2,,,62,127
25194,note_off,188,0,0,,2,,,62,127
25194,note_off,0,0,0,,10,,,69,127
25196,note_on,2,0,0,,7,,,67,127
25196,note_on,0,0,0,,12,,,71,127
25365,note_off,169,0,0,,12,,,71,127
25385,note_off,20,0,0,,7,,,67,127
25387,note_on,2,0,0,,0,,,60,127
25387,note_on,0,0,0,,5,,,77,127
25480,note_off,93,0,0,,5,,,77,127
25482,note_on,2,0,0,,3,,,75,127
25575,note_off,93,0,0,,3,,,75,127
25575,note_off,0,0,0,,0,,,60,127
25577,note_on,2,0,0,,2,,,62,127
25577,note_on,0,0,0,,2,,,74,127
25765,note_off,188,0,0,,2,,,74,127
25765,note_off,0,0,0,,2,,,62,127
25767,note_on,2,0,0,,3,,,63,127
25767,note_on,0,0,0,,0,,,72,127
25955,note_off,188,0,0,,0,,,72,127
25955,note_off,0,0,0,,3,,,63,127
25957,note_on,2,0,0,,5,,,65,127
25957,note_on,0,0,0,,10,,,69,127
26145,note_off,188,0,0,,5,,,65,127
26147,note_on,2,0,0,,2,,,62,127
26335,note_off,188,0,0,,2,,,62,127
26335,note_off,0,0,0,,10,,,69,127
26337,note_on,2,0,0,,7,,,67,127
26337,note_on,0,0,0,,12,,,71,127
26516,note_off,179,0,0,,12,,,71,127
26526,note_off,10,0,0,,7,,,67,127
26528,note_on,2,0,0,,0,,,60,127
26528,note_on,0,0,0,,0,,,72,127
26728,note_on,200,0,0,,7,,,79,127
26766,note_off,38,0,0,,0,,,72,127
26915,note_off,149,0,0,,7,,,79,127
26925,note_on,10,0,0,,7,,,67,127
27098,note_off,173,0,0,,0,,,60,127
27111,note_off,13,0,0,,7,,,67,127
27115,note_on,4,0,0,,11,,,70,127
27305,note_on,190,0,0,,5,,,65,127
27305,note_on,0,0,0,,5,,,53,127
27452,note_off,147,0,0,,11,,,70,127
27479,note_off,27,0,0,,5,,,53,127
27479,note_off,0,0,0,,5,,,65,127
27496,note_on,17,0,0,,8,,,68,127
27496,note_on,0,0,0,,2,,,62,127
27496,note_on,0,0,0,,2,,,50,127
27670,note_off,174,0,0,,2,,,50,127
27670,note_off,0,0,0,,2,,,62,127
27687,note_on,17,0,0,,12,,,47,127
27687,note_on,0,0,0,,12,,,59,127
27861,note_off,174,0,0,,12,,,59,127
27861,note_off,0,0,0,,12,,,47,127
27876,note_off,15,0,0,,8,,,68,127
27878,note_on,2,0,0,,7,,,67,127
27878,note_on,0,0,0,,7,,,43,127
27878,note_on,0,0,0,,7,,,55,127
28052,note_off,174,0,0,,7,,,55,127
28052,note_off,0,0,0,,7,,,43,127
28067,note_off,15,0,0,,7,,,67,127
28069,note_on,2,0,0,,0,,,72,127
28069,note_on,0,0,0,,8,,,44,127
28069,note_on,0,0,0,,8,,,56,127
28243,note_off,174,0,0,,8,,,56,127
28243,note_off,0,0,0,,8,,,44,127
28260,note_on,17,0,0,,5,,,41,127
28260,note_on,0,0,0,,5,,,53,127
28407,note_off,147,0,0,,0,,,72,127
28434,note_off,27,0,0,,5,,,53,127
28434,note_off,0,0,0,,5,,,41,127
28451,note_on,17,0,0,,12,,,71,127
28451,note_on,0,0,0,,2,,,50,127
28451,note_on,0,0,0,,2,,,38,127
28625,note_off,174,0,0,,2,,,38,127
28625,note_off,0,0,0,,2,,,50,127
28638,note_off,13,0,0,,12,,,71,127
28642,note_on,4,0,0,,2,,,74,127
28642,note_on,0,0,0,,12,,,47,127
28642,note_on,0,0,0,,12,,,35,127
28816,note_off,174,0,0,,12,,,35,127
28816,note_off,0,0,0,,12,,,47,127
28829,note_off,13,0,0,,2,,,74,127
28833,note_on,4,0,0,,3,,,75,127
28833,note_on,0,0,0,,0,,,36,127
28833,note_on,0,0,0,,0,,,48,127
29007,note_off,174,0,0,,0,,,48,127
29007,note_off,0,0,0,,0,,,36,127
29020,note_off,13,0,0,,3,,,75,127
29024,note_on,4,0,0,,5,,,77,127
29024,note_on,0,0,0,,2,,,38,127
29024,note_on,0,0,0,,2,,,50,127
29198,note_off,174,0,0,,2,,,50,127
29198,note_off,0,0,0,,2,,,38,127
29211,note_off,13,0,0,,5,,,77,127
29215,note_on,4,0,0,,7,,,79,127
29215,note_on,0,0,0,,3,,,39,127
29215,note_on,0,0,0,,3,,,51,127
29389,note_off,174,0,0,,3,,,51,127
29389,note_off,0,0,0,,3,,,39,127
29402,note_off,13,0,0,,7,,,79,127
29406,note_on,4,0,0,,8,,,80,127
29406,note_on,0,0,0,,5,,,53,127
29406,note_on,0,0,0,,5,,,41,127
29580,note_off,174,0,0,,5,,,41,127
29580,note_off,0,0,0,,5,,,53,127
29597,note_on,17,0,0,,12,,,71,127
29597,note_on,0,0,0,,7,,,55,127
29597,note_on,0,0,0,,7,,,43,127
29645,note_off,48,0,0,,8,,,80,127
29771,note_off,126,0,0,,7,,,43,127
29771,note_off,0,0,0,,7,,,55,127
29784,note_off,13,0,0,,12,,,71,127
29788,note_on,4,0,0,,0,,,72,127
29788,note_on,0,0,0,,8,,,44,127
29788,note_on,0,0,0,,8,,,56,127
29962,note_off,174,0,0,,8,,,56,127
29962,note_off,0,0,0,,8,,,44,127
29975,note_off,13,0,0,,0,,,72,127
29979,note_on,4,0,0,,2,,,74,127
29979,note_on,0,0,0,,7,,,55,127
29979,note_on,0,0,0,,7,,,43,127
30153,note_off,174,0,0,,7,,,43,127
30153,note_off,0,0,0,,7,,,55,127
30170,note_on,17,0,0,,10,,,57,127
30170,note_on,0,0,0,,10,,,45,127
30265,note_off,95,0,0,,2,,,74,127
30343,note_off,78,0,0,,10,,,45,127
30343,note_off,0,0,0,,10,,,57,127
30360,note_on,17,0,0,,5,,,77,127
30360,note_on,0,0,0,,12,,,47,127
30360,note_on,0,0,0,,12,,,59,127
30534,note_off,174,0,0,,12,,,59,127
30534,note_off,0,0,0,,12,,,47,127
30547,note_off,13,0,0,,5,,,77,127
30551,note_on,4,0,0,,3,,,75,127
30551,note_on,0,0,0,,0,,,48,127
30551,note_on,0,0,0,,0,,,60,127
30725,note_off,174,0,0,,0,,,60,127
30725,note_off,0,0,0,,0,,,48,127
30738,note_off,13,0,0,,3,,,75,127
30742,note_on,4,0,0,,2,,,74,127
30742,note_on,0,0,0,,2,,,62,127
30742,note_on,0,0,0,,2,,,50,127
30916,note_off,174,0,0,,2,,,50,127
30916,note_off,0,0,0,,2,,,62,127
30929,note_off,13,0,0,,2,,,74,127
30933,note_on,4,0,0,,0,,,72,127
30933,note_on,0,0,0,,3,,,63,127
30933,note_on,0,0,0,,3,,,51,127
31107,note_off,174,0,0,,3,,,51,127
31107,note_off,0,0,0,,3,,,63,127
31120,note_off,13,0,0,,0,,,72,127
31124,note_on,4,0,0,,2,,,74,127
31124,note_on,0,0,0,,5,,,65,127
31124,note_on,0,0,0,,5,,,53,127
31164,note_off,40,0,0,,2,,,74,127
31165,note_on,1,0,0,,0,,,72,127
31205,note_off,40,0,0,,0,,,72,127
31206,note_on,1,0,0,,2,,,74,127
31246,note_off,40,0,0,,2,,,74,127
31247,note_on,1,0,0,,0,,,72,127
31298,note_off,51,0,0,,5,,,53,127
31298,note_off,0,0,0,,5,,,65,127
31304,note_off,6,0,0,,0,,,72,127
31315,note_on,11,0,0,,12,,,71,127
31315,note_on,0,0,0,,7,,,67,127
31315,note_on,0,0,0,,7,,,55,127
31489,note_off,174,0,0,,7,,,55,127
31489,note_off,0,0,0,,7,,,67,127
31502,note_off,13,0,0,,12,,,71,127
31506,note_on,4,0,0,,0,,,72,127
31506,note_on,0,0,0,,8,,,56,127
31506,note_on,0,0,0,,8,,,68,127
31680,note_off,174,0,0,,8,,,68,127
31680,note_off,0,0,0,,8,,,56,127
31693,note_off,13,0,0,,0,,,72,127
31697,note_on,4,0,0,,2,,,74,127
31697,note_on,0,0,0,,7,,,67,127
31697,note_on,0,0,0,,7,,,55,127
31887,note_on,190,0,0,,7,,,79,127
31974,note_off,87,0,0,,2,,,74,127
32073,note_off,99,0,0,,7,,,79,127
32073,note_off,0,0,0,,7,,,67,127
32077,note_on,4,0,0,,7,,,67,127
32266,note_off,189,0,0,,7,,,67,127
32266,note_off,0,0,0,,7,,,55,127
32267,note_on,1,0,0,,11,,,70,127
32328,note_off,61,0,0,,11,,,70,127
32330,note_on,2,0,0,,8,,,68,127
32391,note_off,61,0,0,,8,,,68,127
32393,note_on,2,0,0,,11,,,70,127
32454,note_off,61,0,0,,11,,,70,127
32456,note_on,2,0,0,,8,,,68,127
32456,note_on,0,0,0,,5,,,65,127
32456,note_on,0,0,0,,5,,,53,127
32630,note_off,174,0,0,,5,,,53,127
32630,note_off,0,0,0,,5,,,65,127
32647,note_on,17,0,0,,2,,,62,127
32647,note_on,0,0,0,,2,,,50,127
32821,note_off,174,0,0,,2,,,50,127
32821,note_off,0,0,0,,2,,,62,127
32838,note_on,17,0,0,,12,,,47,127
32838,note_on,0,0,0,,12,,,59,127
32963,note_off,125,0,0,,8,,,68,127
33012,note_off,49,0,0,,12,,,59,127
33012,note_off,0,0,0,,12,,,47,127
33029,note_on,17,0,0,,7,,,67,127
33029,note_on,0,0,0,,7,,,55,127
33029,note_on,0,0,0,,7,,,43,127
33203,note_off,174,0,0,,7,,,43,127
33203,note_off,0,0,0,,7,,,55,127
33216,note_off,13,0,0,,7,,,67,127
33220,note_on,4,0,0,,0,,,72,127
33220,note_on,0,0,0,,8,,,56,127
33220,note_on,0,0,0,,8,,,44,127
33394,note_off,174,0,0,,8,,,44,127
33394,note_off,0,0,0,,8,,,56,127
33411,note_on,17,0,0,,5,,,53,127
33411,note_on,0,0,0,,5,,,41,127
33558,note_off,147,0,0,,0,,,72,127
33585,note_off,27,0,0,,5,,,41,127
33585,note_off,0,0,0,,5,,,53,127
33602,note_on,17,0,0,,12,,,71,127
33602,note_on,0,0,0,,2,,,50,127
33602,note_on,0,0,0,,2,,,38,127
33776,note_off,174,0,0,,2,,,38,127
33776,note_off,0,0,0,,2,,,50,127
33789,note_off,13,0,0,,12,,,71,127
33793,note_on,4,0,0,,2,,,74,127
33793,note_on,0,0,0,,12,,,47,127
33794,note_on,1,0,0,,12,,,35,127
33967,note_off,173,0,0,,12,,,47,127
33968,note_off,1,0,0,,12,,,35,127
33980,note_off,12,0,0,,2,,,74,127
33984,note_on,4,0,0,,3,,,75,127
33984,note_on,0,0,0,,0,,,48,127
33984,note_on,0,0,0,,0,,,36,127
34158,note_off,174,0,0,,0,,,36,127
34158,note_off,0,0,0,,0,,,48,127
34171,note_off,13,0,0,,3,,,75,127
34175,note_on,4,0,0,,5,,,77,127
34175,note_on,0,0,0,,2,,,50,127
34175,note_on,0,0,0,,2,,,38,127
34349,note_off,174,0,0,,2,,,38,127
34349,note_off,0,0,0,,2,,,50,127
34362,note_off,13,0,0,,5,,,77,127
34366,note_on,4,0,0,,7,,,79,127
34366,note_on,0,0,0,,3,,,51,127
34366,note_on,0,0,0,,3,,,39,127
34540,note_off,174,0,0,,3,,,39,127
34540,note_off,0,0,0,,3,,,51,127
34553,note_off,13,0,0,,7,,,79,127
34557,note_on,4,0,0,,8,,,80,127
34557,note_on,0,0,0,,5,,,41,127
34557,note_on,0,0,0,,5,,,53,127
34731,note_off,174,0,0,,5,,,53,127
34731,note_off,0,0,0,,5,,,41,127
34748,note_on,17,0,0,,12,,,71,127
34748,note_on,0,0,0,,7,,,43,127
34748,note_on,0,0,0,,7,,,55,127
34776,note_off,28,0,0,,8,,,80,127
34922,note_off,146,0,0,,7,,,55,127
34922,note_off,0,0,0,,7,,,43,127
34935,note_off,13,0,0,,12,,,71,127
34939,note_on,4,0,0,,0,,,72,127
34939,note_on,0,0,0,,8,,,56,127
34939,note_on,0,0,0,,8,,,44,127
35113,note_off,174,0,0,,8,,,44,127
35113,note_off,0,0,0,,8,,,56,127
35126,note_off,13,0,0,,0,,,72,127
35130,note_on,4,0,0,,2,,,74,127
35130,note_on,0,0,0,,7,,,55,127
35130,note_on,0,0,0,,7,,,43,127
35304,note_off,174,0,0,,7,,,43,127
35304,note_off,0,0,0,,7,,,55,127
35321,note_on,17,0,0,,10,,,57,127
35321,note_on,0,0,0,,10,,,45,127
35416,note_off,95,0,0,,2,,,74,127
35494,note_off,78,0,0,,10,,,45,127
35494,note_off,0,0,0,,10,,,57,127
35511,note_on,17,0,0,,5,,,77,127
35511,note_on,0,0,0,,12,,,59,127
35511,note_on,0,0,0,,12,,,47,127
35685,note_off,174,0,0,,12,,,47,127
35685,note_off,0,0,0,,12,,,59,127
35698,note_off,13,0,0,,5,,,77,127
35702,note_on,4,0,0,,3,,,75,127
35702,note_on,0,0,0,,0,,,60,127
35702,note_on,0,0,0,,0,,,48,127
35876,note_off,174,0,0,,0,,,48,127
35876,note_off,0,0,0,,0,,,60,127
35889,note_off,13,0,0,,3,,,75,127
35893,note_on,4,0,0,,2,,,74,127
35893,note_on,0,0,0,,2,,,62,127
35893,note_on,0,0,0,,2,,,50,127
36067,note_off,174,0,0,,2,,,50,127
36067,note_off,0,0,0,,2,,,62,127
36080,note_off,13,0,0,,2,,,74,127
36084,note_on,4,0,0,,0,,,72,127
36084,note_on,0,0,0,,3,,,63,127
36084,note_on,0,0,0,,3,,,51,127
36258,note_off,174,0,0,,3,,,51,127
36258,note_off,0,0,0,,3,,,63,127
36271,note_off,13,0,0,,0,,,72,127
36275,note_on,4,0,0,,0,,,72,127
36275,note_on,0,0,0,,5,,,65,127
36275,note_on,0,0,0,,5,,,53,127
36449,note_off,174,0,0,,5,,,53,127
36449,note_off,0,0,0,,5,,,65,127
36462,note_off,13,0,0,,0,,,72,127
36466,note_on,4,0,0,,12,,,71,127
36466,note_on,0,0,0,,7,,,55,127
36466,note_on,0,0,0,,7,,,67,127
36640,note_off,174,0,0,,7,,,67,127
36640,note_off,0,0,0,,7,,,55,127
36653,note_off,13,0,0,,12,,,71,127
36657,note_on,4,0,0,,0,,,72,127
36657,note_on,0,0,0,,8,,,56,127
36657,note_on,0,0,0,,8,,,68,127
36831,note_off,174,0,0,,8,,,68,127
36831,note_off,0,0,0,,8,,,56,127
36844,note_off,13,0,0,,0,,,72,127
36848,note_on,4,0,0,,2,,,74,127
36848,note_on,0,0,0,,7,,,67,127
36848,note_on,0,0,0,,7,,,55,127
37038,note_on,190,0,0,,7,,,79,127
37133,note_off,95,0,0,,7,,,67,127
37204,note_off,71,0,0,,2,,,74,127
37224,note_off,20,0,0,,7,,,79,127
37228,note_on,4,0,0,,7,,,67,127
37417,note_off,189,0,0,,7,,,55,127
37418,note_on,1,0,0,,11,,,70,127
37479,note_off,61,0,0,,11,,,70,127
37481,note_on,2,0,0,,8,,,68,127
37542,note_off,61,0,0,,8,,,68,127
37544,note_on,2,0,0,,11,,,70,127
37605,note_off,61,0,0,,11,,,70,127
37605,note_off,0,0,0,,7,,,67,127
37607,note_on,2,0,0,,8,,,68,127
37607,note_on,0,0,0,,5,,,65,127
37700,note_off,93,0,0,,5,,,65,127
37702,note_on,2,0,0,,3,,,63,127
37795,note_off,93,0,0,,3,,,63,127
37797,note_on,2,0,0,,2,,,62,127
37890,note_off,93,0,0,,2,,,62,127
37892,note_on,2,0,0,,0,,,60,127
37985,note_off,93,0,0,,0,,,60,127
37985,note_off,0,0,0,,8,,,68,127
37987,note_on,2,0,0,,7,,,67,127
37987,note_on,0,0,0,,12,,,59,127
38161,note_off,174,0,0,,12,,,59,127
38174,note_off,13,0,0,,7,,,67,127
38178,note_on,4,0,0,,2,,,74,127
38178,note_on,0,0,0,,7,,,55,127
38364,note_off,186,0,0,,2,,,74,127
38368,note_on,4,0,0,,12,,,71,127
38554,note_off,186,0,0,,12,,,71,127
38554,note_off,0,0,0,,7,,,55,127
38558,note_on,4,0,0,,11,,,70,127
38619,note_off,61,0,0,,11,,,70,127
38621,note_on,2,0,0,,8,,,68,127
38682,note_off,61,0,0,,8,,,68,127
38684,note_on,2,0,0,,11,,,70,127
38745,note_off,61,0,0,,11,,,70,127
38747,note_on,2,0,0,,8,,,68,127
38747,note_on,0,0,0,,5,,,65,127
38840,note_off,93,0,0,,5,,,65,127
38842,note_on,2,0,0,,3,,,63,127
38935,note_off,93,0,0,,3,,,63,127
38937,note_on,2,0,0,,2,,,62,127
39030,note_off,93,0,0,,2,,,62,127
39032,note_on,2,0,0,,0,,,60,127
39125,note_off,93,0,0,,0,,,60,127
39125,note_off,0,0,0,,8,,,68,127
39127,note_on,2,0,0,,7,,,67,127
39127,note_on,0,0,0,,12,,,59,127
39313,note_off,186,0,0,,12,,,59,127
39313,note_off,0,0,0,,7,,,67,127
39317,note_on,4,0,0,,5,,,77,127
39317,note_on,0,0,0,,7,,,55,127
39503,note_off,186,0,0,,7,,,55,127
39503,note_off,0,0,0,,5,,,77,127
39507,note_on,4,0,0,,3,,,75,127
39507,note_on,0,0,0,,0,,,60,127
39693,note_off,186,0,0,,0,,,60,127
39693,note_off,0,0,0,,3,,,75,127
39697,note_on,4,0,0,,2,,,74,127
39697,note_on,0,0,0,,5,,,65,127
39697,note_on,0,0,0,,5,,,53,127
39871,note_off,174,0,0,,5,,,65,127
39871,note_off,0,0,0,,2,,,74,127
39884,note_off,13,0,0,,5,,,53,127
39888,note_on,4,0,0,,0,,,72,127
39888,note_on,0,0,0,,3,,,63,127
39888,note_on,0,0,0,,7,,,55,127
40062,note_off,174,0,0,,3,,,63,127
40062,note_off,0,0,0,,0,,,72,127
40075,note_off,13,0,0,,7,,,55,127
40079,note_on,4,0,0,,12,,,71,127
40079,note_on,0,0,0,,2,,,62,127
40079,note_on,0,0,0,,5,,,53,127
40253,note_off,174,0,0,,2,,,62,127
40253,note_off,0,0,0,,12,,,71,127
40266,note_off,13,0,0,,5,,,53,127
40270,note_on,4,0,0,,0,,,72,127
40270,note_on,0,0,0,,3,,,63,127
40270,note_on,0,0,0,,3,,,51,127
40444,note_off,174,0,0,,3,,,63,127
40444,note_off,0,0,0,,0,,,72,127
40457,note_off,13,0,0,,3,,,51,127
40461,note_on,4,0,0,,5,,,77,127
40461,note_on,0,0,0,,8,,,68,127
40461,note_on,0,0,0,,2,,,50,127
40635,note_off,174,0,0,,8,,,68,127
40635,note_off,0,0,0,,5,,,77,127
40648,note_off,13,0,0,,2,,,50,127
40652,note_on,4,0,0,,3,,,75,127
40652,note_on,0,0,0,,7,,,67,127
40652,note_on,0,0,0,,0,,,48,127
40826,note_off,174,0,0,,7,,,67,127
40826,note_off,0,0,0,,3,,,75,127
40839,note_off,13,0,0,,0,,,48,127
40843,note_on,4,0,0,,2,,,74,127
40843,note_on,0,0,0,,5,,,65,127
40843,note_on,0,0,0,,5,,,53,127
41017,note_off,174,0,0,,5,,,65,127
41017,note_off,0,0,0,,2,,,74,127
41030,note_off,13,0,0,,5,,,53,127
41034,note_on,4,0,0,,0,,,72,127
41034,note_on,0,0,0,,3,,,63,127
41034,note_on,0,0,0,,7,,,55,127
41208,note_off,174,0,0,,3,,,63,127
41208,note_off,0,0,0,,0,,,72,127
41221,note_off,13,0,0,,7,,,55,127
41225,note_on,4,0,0,,12,,,71,127
41225,note_on,0,0,0,,2,,,62,127
41225,note_on,0,0,0,,5,,,53,127
41399,note_off,174,0,0,,2,,,62,127
41399,note_off,0,0,0,,12,,,71,127
41412,note_off,13,0,0,,5,,,53,127
41416,note_on,4,0,0,,0,,,72,127
41416,note_on,0,0,0,,3,,,63,127
41416,note_on,0,0,0,,3,,,51,127
41590,note_off,174,0,0,,3,,,63,127
41590,note_off,0,0,0,,0,,,72,127
41603,note_off,13,0,0,,3,,,51,127
41607,note_on,4,0,0,,5,,,77,127
41607,note_on,0,0,0,,8,,,68,127
41607,note_on,0,0,0,,2,,,50,127
41781,note_off,174,0,0,,8,,,68,127
41781,note_off,0,0,0,,5,,,77,127
41794,note_off,13,0,0,,2,,,50,127
41798,note_on,4,0,0,,3,,,75,127
41798,note_on,0,0,0,,7,,,67,127
41798,note_on,0,0,0,,0,,,48,127
41972,note_off,174,0,0,,7,,,67,127
41972,note_off,0,0,0,,3,,,75,127
41985,note_off,13,0,0,,0,,,48,127
41989,note_on,4,0,0,,2,,,74,127
41989,note_on,0,0,0,,5,,,65,127
41989,note_on,0,0,0,,5,,,53,127
42163,note_off,174,0,0,,5,,,53,127
42163,note_off,0,0,0,,5,,,65,127
42163,note_off,0,0,0,,2,,,74,127
42180,note_on,17,0,0,,0,,,72,127
42180,note_on,0,0,0,,3,,,63,127
42180,note_on,0,0,0,,7,,,55,127
42349,note_off,169,0,0,,3,,,63,127
42349,note_off,0,0,0,,0,,,72,127
42354,note_off,5,0,0,,7,,,55,127
42371,note_on,17,0,0,,2,,,62,127
42371,note_on,0,0,0,,12,,,71,127
42371,note_on,0,0,0,,7,,,43,127
42561,note_off,190,0,0,,7,,,43,127
42561,note_off,0,0,0,,12,,,71,127
42561,note_off,0,0,0,,2,,,62,127
42610,note_on,49,0,0,,0,,,48,127
42964,note_on,354,0,0,,0,,,72,127
43139,note_off,175,0,0,,0,,,72,127
43139,note_off,0,0,0,,0,,,48,127
43141,note_on,2,0,0,,0,,,72,127
43141,note_on,0,0,0,,4,,,52,127
43316,note_off,175,0,0,,0,,,72,127
43318,note_on,2,0,0,,2,,,74,127
43493,note_off,175,0,0,,2,,,74,127
43495,note_on,2,0,0,,4,,,76,127
43670,note_off,175,0,0,,4,,,76,127
43670,note_off,0,0,0,,4,,,52,127
43672,note_on,2,0,0,,10,,,69,127
43672,note_on,0,0,0,,5,,,53,127
43847,note_off,175,0,0,,10,,,69,127
43849,note_on,2,0,0,,5,,,77,127
44024,note_off,175,0,0,,5,,,77,127
44026,note_on,2,0,0,,4,,,76,127
44201,note_off,175,0,0,,4,,,76,127
44201,note_off,0,0,0,,5,,,53,127
44203,note_on,2,0,0,,2,,,74,127
44203,note_on,0,0,0,,7,,,55,127
44378,note_off,175,0,0,,2,,,74,127
44380,note_on,2,0,0,,0,,,72,127
44555,note_off,175,0,0,,0,,,72,127
44557,note_on,2,0,0,,12,,,71,127
44701,note_off,144,0,0,,7,,,55,127
44732,note_off,31,0,0,,12,,,71,127
44734,note_on,2,0,0,,0,,,72,127
45088,note_on,354,0,0,,0,,,60,127
45263,note_off,175,0,0,,0,,,60,127
45265,note_on,2,0,0,,0,,,60,127
45440,note_off,175,0,0,,0,,,60,127
45442,note_on,2,0,0,,2,,,62,127
45617,note_off,175,0,0,,2,,,62,127
45619,note_on,2,0,0,,4,,,64,127
45794,note_off,175,0,0,,4,,,64,127
45794,note_off,0,0,0,,0,,,72,127
45796,note_on,2,0,0,,10,,,57,127
45971,note_off,175,0,0,,10,,,57,127
45973,note_on,2,0,0,,5,,,65,127
46148,note_off,175,0,0,,5,,,65,127
46150,note_on,2,0,0,,4,,,64,127
46325,note_off,175,0,0,,4,,,64,127
46327,note_on,2,0,0,,2,,,74,127
46327,note_on,0,0,0,,7,,,67,127
46327,note_on,0,0,0,,5,,,77,127
46327,note_on,0,0,0,,2,,,62,127
46502,note_off,175,0,0,,2,,,62,127
46504,note_on,2,0,0,,0,,,60,127
46679,note_off,175,0,0,,0,,,60,127
46681,note_on,2,0,0,,12,,,59,127
46856,note_off,175,0,0,,12,,,59,127
46856,note_off,0,0,0,,5,,,77,127
46856,note_off,0,0,0,,7,,,67,127
46856,note_off,0,0,0,,2,,,74,127
46858,note_on,2,0,0,,7,,,67,127
46858,note_on,0,0,0,,0,,,72,127
46858,note_on,0,0,0,,4,,,76,127
46858,note_on,0,0,0,,0,,,60,127
47211,note_off,353,0,0,,4,,,76,127
47211,note_off,0,0,0,,0,,,72,127
47211,note_off,0,0,0,,7,,,67,127
47213,note_on,2,0,0,,7,,,79,127
47388,note_off,175,0,0,,7,,,79,127
47388,note_off,0,0,0,,0,,,60,127
47390,note_on,2,0,0,,7,,,67,127
47390,note_on,0,0,0,,7,,,79,127
47390,note_on,0,0,0,,4,,,52,127
47565,note_off,175,0,0,,4,,,52,127
47567,note_on,2,0,0,,0,,,48,127
47742,note_off,175,0,0,,0,,,48,127
47742,note_off,0,0,0,,7,,,79,127
47742,note_off,0,0,0,,7,,,67,127
47744,note_on,2,0,0,,7,,,79,127
47744,note_on,0,0,0,,12,,,71,127
47744,note_on,0,0,0,,4,,,52,127
47919,note_off,175,0,0,,4,,,52,127
47919,note_off,0,0,0,,12,,,71,127
47919,note_off,0,0,0,,7,,,79,127
47921,note_on,2,0,0,,7,,,79,127
47921,note_on,0,0,0,,10,,,69,127
47921,note_on,0,0,0,,5,,,53,127
48096,note_off,175,0,0,,5,,,53,127
48098,note_on,2,0,0,,2,,,50,127
48273,note_off,175,0,0,,2,,,50,127
48273,note_off,0,0,0,,10,,,69,127
48273,note_off,0,0,0,,7,,,79,127
48275,note_on,2,0,0,,0,,,72,127
48275,note_on,0,0,0,,7,,,79,127
48275,note_on,0,0,0,,5,,,53,127
48450,note_off,175,0,0,,5,,,53,127
48450,note_off,0,0,0,,7,,,79,127
48450,note_off,0,0,0,,0,,,72,127
48452,note_on,2,0,0,,7,,,79,127
48452,note_on,0,0,0,,12,,,71,127
48452,note_on,0,0,0,,7,,,55,127
48627,note_off,175,0,0,,7,,,55,127
48629,note_on,2,0,0,,4,,,52,127
48804,note_off,175,0,0,,4,,,52,127
48804,note_off,0,0,0,,12,,,71,127
48804,note_off,0,0,0,,7,,,79,127
48806,note_on,2,0,0,,7,,,79,127
48806,note_on,0,0,0,,2,,,74,127
48806,note_on,0,0,0,,7,,,55,127
48981,note_off,175,0,0,,7,,,55,127
48981,note_off,0,0,0,,2,,,74,127
48981,note_off,0,0,0,,7,,,79,127
48983,note_on,2,0,0,,7,,,79,127
48983,note_on,0,0,0,,0,,,72,127
48983,note_on,0,0,0,,10,,,57,127
49158,note_off,175,0,0,,10,,,57,127
49160,note_on,2,0,0,,5,,,53,127
49335,note_off,175,0,0,,5,,,53,127
49335,note_off,0,0,0,,0,,,72,127
49335,note_off,0,0,0,,7,,,79,127
49337,note_on,2,0,0,,4,,,76,127
49337,note_on,0,0,0,,7,,,79,127
49337,note_on,0,0,0,,10,,,57,127
49512,note_off,175,0,0,,10,,,57,127
49512,note_off,0,0,0,,7,,,79,127
49512,note_off,0,0,0,,4,,,76,127
49514,note_on,2,0,0,,2,,,74,127
49514,note_on,0,0,0,,7,,,79,127
49514,note_on,0,0,0,,12,,,59,127
49689,note_off,175,0,0,,12,,,59,127
49691,note_on,2,0,0,,7,,,55,127
49866,note_off,175,0,0,,7,,,55,127
49866,note_off,0,0,0,,7,,,79,127
49866,note_off,0,0,0,,2,,,74,127
49868,note_on,2,0,0,,7,,,79,127
49868,note_on,0,0,0,,5,,,77,127
49868,note_on,0,0,0,,12,,,59,127
50043,note_off,175,0,0,,12,,,59,127
50043,note_off,0,0,0,,5,,,77,127
50043,note_off,0,0,0,,7,,,79,127
50045,note_on,2,0,0,,4,,,76,127
50045,note_on,0,0,0,,0,,,60,127
50220,note_off,175,0,0,,4,,,76,127
50222,note_on,2,0,0,,5,,,77,127
50397,note_off,175,0,0,,5,,,77,127
50397,note_off,0,0,0,,0,,,60,127
50399,note_on,2,0,0,,7,,,79,127
50399,note_on,0,0,0,,2,,,62,127
50556,note_off,157,0,0,,7,,,79,127
50574,note_off,18,0,0,,2,,,62,127
50576,note_on,2,0,0,,10,,,81,127
50576,note_on,0,0,0,,7,,,79,127
50576,note_on,0,0,0,,4,,,64,127
50664,note_off,88,0,0,,10,,,81,127
50752,note_off,88,0,0,,7,,,79,127
50754,note_on,2,0,0,,5,,,77,127
50929,note_off,175,0,0,,5,,,77,127
50929,note_off,0,0,0,,4,,,64,127
50931,note_on,2,0,0,,4,,,76,127
50931,note_on,0,0,0,,5,,,65,127
51106,note_off,175,0,0,,5,,,65,127
51106,note_off,0,0,0,,4,,,76,127
51108,note_on,2,0,0,,4,,,76,127
51108,note_on,0,0,0,,7,,,67,127
51162,note_off,54,0,0,,4,,,76,127
51164,note_on,2,0,0,,2,,,74,127
51218,note_off,54,0,0,,2,,,74,127
51220,note_on,2,0,0,,4,,,76,127
51274,note_off,54,0,0,,4,,,76,127
51276,note_on,2,0,0,,2,,,74,127
51462,note_off,186,0,0,,2,,,74,127
51476,note_on,14,0,0,,7,,,79,127
51639,note_off,163,0,0,,7,,,67,127
51651,note_off,12,0,0,,7,,,79,127
51657,note_on,6,0,0,,7,,,55,127
51657,note_on,0,0,0,,12,,,71,127
51832,note_off,175,0,0,,12,,,71,127
51834,note_on,2,0,0,,7,,,67,127
52009,note_off,175,0,0,,7,,,67,127
52009,note_off,0,0,0,,7,,,55,127
52011,note_on,2,0,0,,7,,,67,127
52011,note_on,0,0,0,,12,,,71,127
52186,note_off,175,0,0,,12,,,71,127
52186,note_off,0,0,0,,7,,,67,127
52188,note_on,2,0,0,,10,,,57,127
52188,note_on,0,0,0,,0,,,72,127
52363,note_off,175,0,0,,0,,,72,127
52365,note_on,2,0,0,,10,,,69,127
52540,note_off,175,0,0,,10,,,69,127
52540,note_off,0,0,0,,10,,,57,127
52542,note_on,2,0,0,,7,,,67,127
52542,note_on,0,0,0,,0,,,72,127
52717,note_off,175,0,0,,0,,,72,127
52717,note_off,0,0,0,,7,,,67,127
52719,note_on,2,0,0,,12,,,59,127
52719,note_on,0,0,0,,2,,,74,127
52894,note_off,175,0,0,,2,,,74,127
52896,note_on,2,0,0,,12,,,71,127
53071,note_off,175,0,0,,12,,,71,127
53071,note_off,0,0,0,,12,,,59,127
53073,note_on,2,0,0,,7,,,67,127
53073,note_on,0,0,0,,2,,,74,127
53248,note_off,175,0,0,,2,,,74,127
53248,note_off,0,0,0,,7,,,67,127
53250,note_on,2,0,0,,0,,,60,127
53250,note_on,0,0,0,,4,,,76,127
53425,note_off,175,0,0,,4,,,76,127
53427,note_on,2,0,0,,0,,,72,127
53602,note_off,175,0,0,,0,,,72,127
53602,note_off,0,0,0,,0,,,60,127
53604,note_on,2,0,0,,7,,,67,127
53604,note_on,0,0,0,,4,,,76,127
53779,note_off,175,0,0,,4,,,76,127
53779,note_off,0,0,0,,7,,,67,127
53781,note_on,2,0,0,,2,,,62,127
53781,note_on,0,0,0,,5,,,77,127
53956,note_off,175,0,0,,5,,,77,127
53958,note_on,2,0,0,,2,,,74,127
54133,note_off,175,0,0,,2,,,74,127
54133,note_off,0,0,0,,2,,,62,127
54135,note_on,2,0,0,,7,,,67,127
54135,note_on,0,0,0,,5,,,77,127
54310,note_off,175,0,0,,5,,,77,127
54310,note_off,0,0,0,,7,,,67,127
54312,note_on,2,0,0,,4,,,64,127
54312,note_on,0,0,0,,7,,,79,127
54487,note_off,175,0,0,,7,,,79,127
54489,note_on,2,0,0,,5,,,77,127
54664,note_off,175,0,0,,5,,,77,127
54666,note_on,2,0,0,,4,,,76,127
54841,note_off,175,0,0,,4,,,76,127
54841,note_off,0,0,0,,4,,,64,127
54843,note_on,2,0,0,,5,,,65,127
54843,note_on,0,0,0,,2,,,74,127
55018,note_off,175,0,0,,2,,,74,127
55020,note_on,2,0,0,,4,,,76,127
55195,note_off,175,0,0,,4,,,76,127
55197,note_on,2,0,0,,0,,,72,127
55372,note_off,175,0,0,,0,,,72,127
55372,note_off,0,0,0,,5,,,65,127
55374,note_on,2,0,0,,7,,,67,127
55374,note_on,0,0,0,,4,,,76,127
55431,note_off,57,0,0,,4,,,76,127
55433,note_on,2,0,0,,2,,,74,127
55490,note_off,57,0,0,,2,,,74,127
55492,note_on,2,0,0,,4,,,76,127
55549,note_off,57,0,0,,4,,,76,127
55551,note_on,2,0,0,,2,,,74,127
55726,note_off,175,0,0,,2,,,74,127
55728,note_on,2,0,0,,7,,,79,127
55903,note_off,175,0,0,,7,,,79,127
55903,note_off,0,0,0,,7,,,67,127
55905,note_on,2,0,0,,4,,,40,127
55905,note_on,0,0,0,,4,,,52,127
55905,note_on,0,0,0,,7,,,79,127
55905,note_on,0,0,0,,7,,,67,127
56080,note_off,175,0,0,,4,,,52,127
56082,note_on,2,0,0,,0,,,48,127
56257,note_off,175,0,0,,0,,,48,127
56257,note_off,0,0,0,,7,,,67,127
56257,note_off,0,0,0,,7,,,79,127
56259,note_on,2,0,0,,4,,,52,127
56259,note_on,0,0,0,,7,,,79,127
56259,note_on,0,0,0,,12,,,71,127
56348,note_off,89,0,0,,4,,,40,127
56435,note_off,87,0,0,,12,,,71,127
56435,note_off,0,0,0,,7,,,79,127
56435,note_off,0,0,0,,4,,,52,127
56437,note_on,2,0,0,,5,,,53,127
56437,note_on,0,0,0,,5,,,41,127
56437,note_on,0,0,0,,7,,,79,127
56437,note_on,0,0,0,,10,,,69,127
56612,note_off,175,0,0,,5,,,53,127
56614,note_on,2,0,0,,2,,,50,127
56789,note_off,175,0,0,,2,,,50,127
56789,note_off,0,0,0,,10,,,69,127
56789,note_off,0,0,0,,7,,,79,127
56791,note_on,2,0,0,,5,,,53,127
56791,note_on,0,0,0,,0,,,72,127
56791,note_on,0,0,0,,7,,,79,127
56880,note_off,89,0,0,,5,,,41,127
56967,note_off,87,0,0,,7,,,79,127
56967,note_off,0,0,0,,0,,,72,127
56967,note_off,0,0,0,,5,,,53,127
56969,note_on,2,0,0,,7,,,43,127
56969,note_on,0,0,0,,7,,,55,127
56969,note_on,0,0,0,,7,,,79,127
56969,note_on,0,0,0,,12,,,71,127
57144,note_off,175,0,0,,7,,,55,127
57146,note_on,2,0,0,,4,,,52,127
57321,note_off,175,0,0,,4,,,52,127
57321,note_off,0,0,0,,12,,,71,127
57321,note_off,0,0,0,,7,,,79,127
57323,note_on,2,0,0,,7,,,55,127
57323,note_on,0,0,0,,7,,,79,127
57323,note_on,0,0,0,,2,,,74,127
57412,note_off,89,0,0,,7,,,43,127
57499,note_off,87,0,0,,2,,,74,127
57499,note_off,0,0,0,,7,,,79,127
57499,note_off,0,0,0,,7,,,55,127
57501,note_on,2,0,0,,10,,,45,127
57501,note_on,0,0,0,,10,,,57,127
57501,note_on,0,0,0,,0,,,72,127
57501,note_on,0,0,0,,7,,,79,127
57676,note_off,175,0,0,,10,,,57,127
57678,note_on,2,0,0,,5,,,53,127
57853,note_off,175,0,0,,5,,,53,127
57853,note_off,0,0,0,,7,,,79,127
57853,note_off,0,0,0,,0,,,72,127
57855,note_on,2,0,0,,10,,,57,127
57855,note_on,0,0,0,,7,,,79,127
57855,note_on,0,0,0,,4,,,76,127
57944,note_off,89,0,0,,10,,,45,127
58031,note_off,87,0,0,,4,,,76,127
58031,note_off,0,0,0,,7,,,79,127
58031,note_off,0,0,0,,10,,,57,127
58033,note_on,2,0,0,,12,,,47,127
58033,note_on,0,0,0,,12,,,59,127
58033,note_on,0,0,0,,7,,,79,127
58033,note_on,0,0,0,,2,,,74,127
58208,note_off,175,0,0,,12,,,59,127
58210,note_on,2,0,0,,7,,,55,127
58385,note_off,175,0,0,,7,,,55,127
58385,note_off,0,0,0,,2,,,74,127
58385,note_off,0,0,0,,7,,,79,127
58387,note_on,2,0,0,,12,,,59,127
58387,note_on,0,0,0,,7,,,79,127
58387,note_on,0,0,0,,5,,,77,127
58476,note_off,89,0,0,,12,,,47,127
58563,note_off,87,0,0,,5,,,77,127
58563,note_off,0,0,0,,7,,,79,127
58563,note_off,0,0,0,,12,,,59,127
58565,note_on,2,0,0,,0,,,60,127
58565,note_on,0,0,0,,0,,,72,127
58565,note_on,0,0,0,,4,,,76,127
58740,note_off,175,0,0,,4,,,76,127
58740,note_off,0,0,0,,0,,,72,127
58742,note_on,2,0,0,,5,,,77,127
58742,note_on,0,0,0,,2,,,74,127
58917,note_off,175,0,0,,2,,,74,127
58917,note_off,0,0,0,,5,,,77,127
58917,note_off,0,0,0,,0,,,60,127
58919,note_on,2,0,0,,5,,,53,127
58919,note_on,0,0,0,,4,,,76,127
58919,note_on,0,0,0,,7,,,79,127
59094,note_off,175,0,0,,7,,,79,127
59094,note_off,0,0,0,,4,,,76,127
59094,note_off,0,0,0,,5,,,53,127
59096,note_on,2,0,0,,7,,,55,127
59096,note_on,0,0,0,,5,,,77,127
59096,note_on,0,0,0,,2,,,74,127
59271,note_off,175,0,0,,2,,,74,127
59271,note_off,0,0,0,,5,,,77,127
59273,note_on,2,0,0,,0,,,72,127
59273,note_on,0,0,0,,4,,,76,127
59448,note_off,175,0,0,,4,,,76,127
59448,note_off,0,0,0,,0,,,72,127
59448,note_off,0,0,0,,7,,,55,127
59450,note_on,2,0,0,,7,,,43,127
59450,note_on,0,0,0,,12,,,71,127
59450,note_on,0,0,0,,2,,,74,127
59625,note_off,175,0,0,,2,,,74,127
59625,note_off,0,0,0,,12,,,71,127
59625,note_off,0,0,0,,7,,,43,127
59627,note_on,2,0,0,,0,,,48,127
59627,note_on,0,0,0,,0,,,72,127
59980,note_off,353,0,0,,0,,,72,127
59982,note_on,2,0,0,,7,,,79,127
60157,note_off,175,0,0,,7,,,79,127
60157,note_off,0,0,0,,0,,,48,127
60159,note_on,2,0,0,,4,,,52,127
60159,note_on,0,0,0,,4,,,40,127
60159,note_on,0,0,0,,7,,,67,127
60159,note_on,0,0,0,,7,,,79,127
60334,note_off,175,0,0,,4,,,52,127
60336,note_on,2,0,0,,0,,,48,127
60362,note_off,26,0,0,,4,,,40,127
60512,note_off,150,0,0,,7,,,79,127
60512,note_off,0,0,0,,7,,,67,127
60514,note_on,2,0,0,,4,,,52,127
60514,note_on,0,0,0,,7,,,79,127
60514,note_on,0,0,0,,12,,,71,127
60688,note_off,174,0,0,,0,,,48,127
60690,note_off,2,0,0,,12,,,71,127
60690,note_off,0,0,0,,7,,,79,127
60690,note_off,0,0,0,,4,,,52,127
60692,note_on,2,0,0,,5,,,53,127
60692,note_on,0,0,0,,5,,,41,127
60692,note_on,0,0,0,,10,,,69,127
60692,note_on,0,0,0,,7,,,79,127
60867,note_off,175,0,0,,5,,,53,127
60869,note_on,2,0,0,,2,,,50,127
60895,note_off,26,0,0,,5,,,41,127
61045,note_off,150,0,0,,7,,,79,127
61045,note_off,0,0,0,,10,,,69,127
61047,note_on,2,0,0,,5,,,53,127
61047,note_on,0,0,0,,0,,,72,127
61047,note_on,0,0,0,,7,,,79,127
61221,note_off,174,0,0,,2,,,50,127
61223,note_off,2,0,0,,7,,,79,127
61223,note_off,0,0,0,,0,,,72,127
61223,note_off,0,0,0,,5,,,53,127
61225,note_on,2,0,0,,7,,,55,127
61225,note_on,0,0,0,,7,,,43,127
61225,note_on,0,0,0,,7,,,79,127
61225,note_on,0,0,0,,12,,,71,127
61400,note_off,175,0,0,,7,,,55,127
61402,note_on,2,0,0,,4,,,52,127
61428,note_off,26,0,0,,7,,,43,127
61578,note_off,150,0,0,,12,,,71,127
61578,note_off,0,0,0,,7,,,79,127
61580,note_on,2,0,0,,7,,,55,127
61580,note_on,0,0,0,,7,,,79,127
61580,note_on,0,0,0,,2,,,74,127
61754,note_off,174,0,0,,4,,,52,127
61756,note_off,2,0,0,,2,,,74,127
61756,note_off,0,0,0,,7,,,79,127
61756,note_off,0,0,0,,7,,,55,127
61758,note_on,2,0,0,,10,,,45,127
61758,note_on,0,0,0,,10,,,57,127
61758,note_on,0,0,0,,7,,,79,127
61758,note_on,0,0,0,,0,,,72,127
61933,note_off,175,0,0,,10,,,57,127
61935,note_on,2,0,0,,5,,,53,127
61961,note_off,26,0,0,,10,,,45,127
62111,note_off,150,0,0,,0,,,72,127
62111,note_off,0,0,0,,7,,,79,127
62113,note_on,2,0,0,,10,,,57,127
62113,note_on,0,0,0,,4,,,76,127
62113,note_on,0,0,0,,7,,,79,127
62287,note_off,174,0,0,,5,,,53,127
62289,note_off,2,0,0,,7,,,79,127
62289,note_off,0,0,0,,4,,,76,127
62289,note_off,0,0,0,,10,,,57,127
62291,note_on,2,0,0,,12,,,47,127
62291,note_on,0,0,0,,12,,,59,127
62291,note_on,0,0,0,,7,,,79,127
62291,note_on,0,0,0,,2,,,74,127
62466,note_off,175,0,0,,12,,,59,127
62468,note_on,2,0,0,,7,,,55,127
62475,note_off,7,0,0,,12,,,47,127
62643,note_off,168,0,0,,2,,,74,127
62643,note_off,0,0,0,,7,,,79,127
62645,note_on,2,0,0,,12,,,59,127
62645,note_on,0,0,0,,5,,,77,127
62645,note_on,0,0,0,,7,,,79,127
62819,note_off,174,0,0,,7,,,55,127
62821,note_off,2,0,0,,7,,,79,127
62821,note_off,0,0,0,,5,,,77,127
62821,note_off,0,0,0,,12,,,59,127
62823,note_on,2,0,0,,0,,,60,127
62823,note_on,0,0,0,,0,,,72,127
62823,note_on,0,0,0,,4,,,76,127
62998,note_off,175,0,0,,4,,,76,127
62998,note_off,0,0,0,,0,,,72,127
63000,note_on,2,0,0,,5,,,77,127
63000,note_on,0,0,0,,2,,,74,127
63175,note_off,175,0,0,,2,,,74,127
63175,note_off,0,0,0,,5,,,77,127
63175,note_off,0,0,0,,0,,,60,127
63177,note_on,2,0,0,,5,,,53,127
63177,note_on,0,0,0,,4,,,76,127
63177,note_on,0,0,0,,7,,,79,127
63352,note_off,175,0,0,,7,,,79,127
63352,note_off,0,0,0,,4,,,76,127
63352,note_off,0,0,0,,5,,,53,127
63354,note_on,2,0,0,,7,,,55,127
63354,note_on,0,0,0,,5,,,77,127
63354,note_on,0,0,0,,2,,,74,127
63354,note_on,0,0,0,,7,,,79,127
63529,note_off,175,0,0,,7,,,79,127
63529,note_off,0,0,0,,2,,,74,127
63529,note_off,0,0,0,,5,,,77,127
63531,note_on,2,0,0,,0,,,72,127
63531,note_on,0,0,0,,4,,,76,127
63706,note_off,175,0,0,,4,,,76,127
63706,note_off,0,0,0,,0,,,72,127
63706,note_off,0,0,0,,7,,,55,127
63708,note_on,2,0,0,,7,,,43,127
63708,note_on,0,0,0,,2,,,74,127
63708,note_on,0,0,0,,12,,,71,127
63883,note_off,175,0,0,,12,,,71,127
63883,note_off,0,0,0,,2,,,74,127
63883,note_off,0,0,0,,7,,,43,127
63885,note_on,2,0,0,,0,,,36,127
63885,note_on,0,0,0,,0,,,48,127
63885,note_on,0,0,0,,0,,,72,127
64062,note_on,177,0,0,,0,,,84,127
64235,note_off,173,0,0,,0,,,72,127
64237,note_off,2,0,0,,0,,,84,127
64239,note_on,2,0,0,,7,,,79,127
64414,note_off,175,0,0,,7,,,79,127
64416,note_on,2,0,0,,4,,,76,127
64591,note_off,175,0,0,,4,,,76,127
64593,note_on,2,0,0,,0,,,72,127
64715,note_off,122,0,0,,0,,,48,127
64715,note_off,0,0,0,,0,,,36,127
64769,note_off,54,0,0,,0,,,72,127
64771,note_on,2,0,0,,7,,,43,127
64771,note_on,0,0,0,,7,,,55,127
64771,note_on,0,0,0,,12,,,71,127
64946,note_off,175,0,0,,12,,,71,127
64946,note_off,0,0,0,,7,,,55,127
64946,note_off,0,0,0,,7,,,43,127
64948,note_on,2,0,0,,0,,,36,127
64948,note_on,0,0,0,,0,,,48,127
64948,note_on,0,0,0,,0,,,72,127
65125,note_on,177,0,0,,0,,,84,127
65298,note_off,173,0,0,,0,,,72,127
65300,note_off,2,0,0,,0,,,84,127
65302,note_on,2,0,0,,7,,,79,127
65477,note_off,175,0,0,,7,,,79,127
65479,note_on,2,0,0,,4,,,76,127
65654,note_off,175,0,0,,4,,,76,127
65656,note_on,2,0,0,,0,,,72,127
65778,note_off,122,0,0,,0,,,48,127
65778,note_off,0,0,0,,0,,,36,127
65832,note_off,54,0,0,,0,,,72,127
65834,note_on,2,0,0,,7,,,43,127
65834,note_on,0,0,0,,7,,,55,127
65834,note_on,0,0,0,,12,,,71,127
66009,note_off,175,0,0,,12,,,71,127
66009,note_off,0,0,0,,7,,,55,127
66009,note_off,0,0,0,,7,,,43,127
66011,note_on,2,0,0,,0,,,36,127
66011,note_on,0,0,0,,0,,,48,127
66011,note_on,0,0,0,,0,,,72,127
66186,note_off,175,0,0,,0,,,72,127
66188,note_on,2,0,0,,0,,,72,127
66363,note_off,175,0,0,,0,,,72,127
66365,note_on,2,0,0,,7,,,67,127
66540,note_off,175,0,0,,7,,,67,127
66542,note_on,2,0,0,,4,,,64,127
66717,note_off,175,0,0,,4,,,64,127
66719,note_on,2,0,0,,0,,,60,127
66894,note_off,175,0,0,,0,,,60,127
66896,note_on,2,0,0,,12,,,59,127
67071,note_off,175,0,0,,12,,,59,127
67071,note_off,0,0,0,,0,,,36,127
67073,note_on,2,0,0,,0,,,60,127
67248,note_off,175,0,0,,0,,,60,127
67250,note_on,2,0,0,,0,,,60,127
67427,note_on,177,0,0,,7,,,55,127
67602,note_off,175,0,0,,7,,,55,127
67602,note_off,0,0,0,,0,,,48,127
67604,note_on,2,0,0,,4,,,52,127
67779,note_off,175,0,0,,4,,,52,127
67781,note_on,2,0,0,,0,,,48,127
67956,note_off,175,0,0,,0,,,48,127
67958,note_on,2,0,0,,12,,,47,127
68133,note_off,175,0,0,,12,,,47,127
68135,note_on,2,0,0,,0,,,48,127
68310,note_off,175,0,0,,0,,,48,127
68312,note_on,2,0,0,,0,,,48,127
68487,note_off,175,0,0,,0,,,48,127
68489,note_on,2,0,0,,7,,,43,127
68664,note_off,175,0,0,,7,,,43,127
68666,note_on,2,0,0,,4,,,40,127
68841,note_off,175,0,0,,4,,,40,127
68843,note_on,2,0,0,,0,,,36,127
69018,note_off,175,0,0,,0,,,36,127
69020,note_on,2,0,0,,12,,,35,127
69193,note_off,173,0,0,,0,,,60,127
69196,note_off,3,0,0,,12,,,35,127
69198,note_on,2,0,0,,0,,,36,127
69576,note_on,378,0,0,,7,,,79,127
69751,note_off,175,0,0,,7,,,79,127
69753,note_on,2,0,0,,0,,,84,127
69905,note_off,152,0,0,,0,,,36,127
69928,note_off,23,0,0,,0,,,84,127
69930,note_on,2,0,0,,7,,,79,127
70105,note_off,175,0,0,,7,,,79,127
70107,note_on,2,0,0,,0,,,72,127
70107,note_on,0,0,0,,4,,,52,127
70282,note_off,175,0,0,,4,,,52,127
70282,note_off,0,0,0,,0,,,72,127
70284,note_on,2,0,0,,4,,,76,127
70284,note_on,0,0,0,,5,,,53,127
70341,note_off,57,0,0,,4,,,76,127
70343,note_on,2,0,0,,2,,,74,127
70400,note_off,57,0,0,,2,,,74,127
70402,note_on,2,0,0,,4,,,76,127
70459,note_off,57,0,0,,4,,,76,127
70461,note_on,2,0,0,,2,,,74,127
70518,note_off,57,0,0,,2,,,74,127
70520,note_on,2,0,0,,4,,,76,127
70577,note_off,57,0,0,,4,,,76,127
70579,note_on,2,0,0,,2,,,74,127
70636,note_off,57,0,0,,2,,,74,127
70638,note_on,2,0,0,,4,,,76,127
70695,note_off,57,0,0,,4,,,76,127
70697,note_on,2,0,0,,2,,,74,127
70813,note_off,116,0,0,,5,,,53,127
70815,note_on,2,0,0,,7,,,55,127
71297,note_off,482,0,0,,2,,,74,127
71345,note_off,48,0,0,,7,,,55,127
71347,note_on,2,0,0,,4,,,76,127
71347,note_on,0,0,0,,0,,,48,127
71522,note_off,175,0,0,,4,,,76,127
71524,note_on,2,0,0,,0,,,84,127
71699,note_off,175,0,0,,0,,,84,127
71701,note_on,2,0,0,,7,,,79,127
71876,note_off,175,0,0,,7,,,79,127
71878,note_on,2,0,0,,4,,,76,127
72053,note_off,175,0,0,,4,,,76,127
72054,note_off,1,0,0,,0,,,48,127
72055,note_on,1,0,0,,0,,,72,127
72230,note_off,175,0,0,,0,,,72,127
72232,note_on,2,0,0,,7,,,67,127
72232,note_on,0,0,0,,4,,,52,127
72407,note_off,175,0,0,,4,,,52,127
72407,note_off,0,0,0,,7,,,67,127
72409,note_on,2,0,0,,4,,,64,127
72409,note_on,0,0,0,,5,,,53,127
72466,note_off,57,0,0,,4,,,64,127
72468,note_on,2,0,0,,2,,,62,127
72525,note_off,57,0,0,,2,,,62,127
72527,note_on,2,0,0,,4,,,64,127
72584,note_off,57,0,0,,4,,,64,127
72586,note_on,2,0,0,,2,,,62,127
72643,note_off,57,0,0,,2,,,62,127
72645,note_on,2,0,0,,4,,,64,127
72702,note_off,57,0,0,,4,,,64,127
72704,note_on,2,0,0,,2,,,62,127
72938,note_off,234,0,0,,5,,,53,127
72940,note_on,2,0,0,,7,,,55,127
73470,note_off,530,0,0,,7,,,55,127
73470,note_off,0,0,0,,2,,,62,127
73472,note_on,2,0,0,,0,,,60,127
73472,note_on,0,0,0,,0,,,48,127
73825,note_off,353,0,0,,0,,,60,127
73827,note_on,2,0,0,,7,,,79,127
74002,note_off,175,0,0,,7,,,79,127
74004,note_on,2,0,0,,0,,,84,127
74179,note_off,175,0,0,,0,,,84,127
74180,note_off,1,0,0,,0,,,48,127
74181,note_on,1,0,0,,7,,,79,127
74356,note_off,175,0,0,,7,,,79,127
74358,note_on,2,0,0,,0,,,72,127
74358,note_on,0,0,0,,4,,,52,127
74533,note_off,175,0,0,,4,,,52,127
74533,note_off,0,0,0,,0,,,72,127
74535,note_on,2,0,0,,4,,,76,127
74535,note_on,0,0,0,,5,,,53,127
74592,note_off,57,0,0,,4,,,76,127
74594,note_on,2,0,0,,2,,,74,127
74651,note_off,57,0,0,,2,,,74,127
74653,note_on,2,0,0,,4,,,76,127
74710,note_off,57,0,0,,4,,,76,127
74712,note_on,2,0,0,,2,,,74,127
74769,note_off,57,0,0,,2,,,74,127
74771,note_on,2,0,0,,4,,,76,127
74828,note_off,57,0,0,,4,,,76,127
74830,note_on,2,0,0,,2,,,74,127
74887,note_off,57,0,0,,2,,,74,127
74889,note_on,2,0,0,,4,,,76,127
74946,note_off,57,0,0,,4,,,76,127
74948,note_on,2,0,0,,2,,,74,127
75064,note_off,116,0,0,,5,,,53,127
75066,note_on,2,0,0,,7,,,55,127
75502,note_off,436,0,0,,2,,,74,127
75596,note_off,94,0,0,,7,,,55,127
75598,note_on,2,0,0,,4,,,76,127
75598,note_on,0,0,0,,0,,,48,127
75773,note_off,175,0,0,,4,,,76,127
75775,note_on,2,0,0,,0,,,84,127
75950,note_off,175,0,0,,0,,,84,127
75952,note_on,2,0,0,,7,,,79,127
76127,note_off,175,0,0,,7,,,79,127
76129,note_on,2,0,0,,4,,,76,127
76304,note_off,175,0,0,,4,,,76,127
76305,note_off,1,0,0,,0,,,48,127
76306,note_on,1,0,0,,0,,,72,127
76481,note_off,175,0,0,,0,,,72,127
76483,note_on,2,0,0,,7,,,67,127
76483,note_on,0,0,0,,4,,,52,127
76658,note_off,175,0,0,,4,,,52,127
76658,note_off,0,0,0,,7,,,67,127
76660,note_on,2,0,0,,4,,,64,127
76660,note_on,0,0,0,,5,,,53,127
76717,note_off,57,0,0,,4,,,64,127
76719,note_on,2,0,0,,2,,,62,127
76776,note_off,57,0,0,,2,,,62,127
76778,note_on,2,0,0,,4,,,64,127
76835,note_off,57,0,0,,4,,,64,127
76837,note_on,2,0,0,,2,,,62,127
76894,note_off,57,0,0,,2,,,62,127
76896,note_on,2,0,0,,4,,,64,127
76953,note_off,57,0,0,,4,,,64,127
76955,note_on,2,0,0,,2,,,62,127
77012,note_off,57,0,0,,2,,,62,127
77014,note_on,2,0,0,,4,,,64,127
77071,note_off,57,0,0,,4,,,64,127
77073,note_on,2,0,0,,2,,,62,127
77130,note_off,57,0,0,,2,,,62,127
77132,note_on,2,0,0,,4,,,64,127
77189,note_off,57,0,0,,4,,,64,127
77189,note_off,0,0,0,,5,,,53,127
77191,note_on,2,0,0,,2,,,62,127
77191,note_on,0,0,0,,7,,,55,127
77248,note_off,57,0,0,,2,,,62,127
77250,note_on,2,0,0,,4,,,64,127
77307,note_off,57,0,0,,4,,,64,127
77309,note_on,2,0,0,,2,,,62,127
77721,note_off,412,0,0,,2,,,62,127
77721,note_off,0,0,0,,7,,,55,127
77723,note_on,2,0,0,,0,,,60,127
77723,note_on,0,0,0,,0,,,48,127
77723,note_on,0,0,0,,0,,,36,127
77898,note_off,175,0,0,,0,,,60,127
77900,note_on,2,0,0,,7,,,55,127
78075,note_off,175,0,0,,7,,,55,127
78077,note_on,2,0,0,,4,,,64,127
78077,note_on,0,0,0,,0,,,60,127
78252,note_off,175,0,0,,0,,,60,127
78252,note_off,0,0,0,,4,,,64,127
78252,note_off,0,0,0,,0,,,36,127
78252,note_off,0,0,0,,0,,,48,127
78254,note_on,2,0,0,,0,,,60,127
78254,note_on,0,0,0,,4,,,64,127
78254,note_on,0,0,0,,0,,,48,127
78254,note_on,0,0,0,,0,,,36,127
78431,note_on,177,0,0,,7,,,55,127
78605,note_off,174,0,0,,4,,,64,127
78605,note_off,0,0,0,,0,,,60,127
78607,note_off,2,0,0,,7,,,55,127
78609,note_on,2,0,0,,7,,,67,127
78609,note_on,0,0,0,,4,,,64,127
78784,note_off,175,0,0,,4,,,64,127
78784,note_off,0,0,0,,7,,,67,127
78784,note_off,0,0,0,,0,,,36,127
78784,note_off,0,0,0,,0,,,48,127
78786,note_on,2,0,0,,4,,,64,127
78786,note_on,0,0,0,,7,,,67,127
78786,note_on,0,0,0,,0,,,48,127
78786,note_on,0,0,0,,0,,,36,127
78961,note_off,175,0,0,,4,,,64,127
78963,note_on,2,0,0,,0,,,60,127
78963,note_on,0,0,0,,4,,,64,127
79137,note_off,174,0,0,,7,,,67,127
79139,note_off,2,0,0,,4,,,64,127
79139,note_off,0,0,0,,0,,,60,127
79141,note_on,2,0,0,,0,,,72,127
79141,note_on,0,0,0,,7,,,67,127
79316,note_off,175,0,0,,7,,,67,127
79316,note_off,0,0,0,,0,,,72,127
79316,note_off,0,0,0,,0,,,36,127
79316,note_off,0,0,0,,0,,,48,127
79318,note_on,2,0,0,,7,,,67,127
79318,note_on,0,0,0,,0,,,72,127
79318,note_on,0,0,0,,0,,,48,127
79318,note_on,0,0,0,,0,,,36,127
79493,note_off,175,0,0,,7,,,67,127
79495,note_on,2,0,0,,7,,,67,127
79495,note_on,0,0,0,,4,,,64,127
79669,note_off,174,0,0,,0,,,72,127
79671,note_off,2,0,0,,4,,,64,127
79673,note_on,2,0,0,,4,,,76,127
79847,note_off,174,0,0,,7,,,67,127
79849,note_off,2,0,0,,4,,,76,127
79849,note_off,0,0,0,,0,,,36,127
79849,note_off,0,0,0,,0,,,48,127
79851,note_on,2,0,0,,2,,,74,127
79851,note_on,0,0,0,,0,,,48,127
79851,note_on,0,0,0,,0,,,36,127
79905,note_off,54,0,0,,2,,,74,127
79907,note_on,2,0,0,,0,,,72,127
79961,note_off,54,0,0,,0,,,72,127
79963,note_on,2,0,0,,2,,,74,127
80017,note_off,54,0,0,,2,,,74,127
80019,note_on,2,0,0,,0,,,72,127
80887,note_off,868,0,0,,0,,,72,127
80915,note_off,28,0,0,,0,,,36,127
80915,note_off,0,0,0,,0,,,48,127
80941,note_on,26,0,0,,0,,,36,127
80941,note_on,0,0,0,,0,,,48,127
80941,note_on,0,0,0,,4,,,76,127
80941,note_on,0,0,0,,7,,,79,127
81471,note_off,530,0,0,,7,,,79,127
81471,note_off,0,0,0,,4,,,76,127
81473,note_on,2,0,0,,4,,,76,127
81473,note_on,0,0,0,,7,,,79,127
81650,note_on,177,0,0,,0,,,72,127
81824,note_off,174,0,0,,7,,,79,127
81824,note_off,0,0,0,,4,,,76,127
81826,note_off,2,0,0,,0,,,72,127
81828,note_on,2,0,0,,8,,,80,127
81828,note_on,0,0,0,,5,,,77,127
82003,note_off,175,0,0,,5,,,77,127
82003,note_off,0,0,0,,8,,,80,127
82005,note_on,2,0,0,,7,,,79,127
82005,note_on,0,0,0,,4,,,76,127
82182,note_on,177,0,0,,0,,,72,127
82356,note_off,174,0,0,,4,,,76,127
82356,note_off,0,0,0,,7,,,79,127
82358,note_off,2,0,0,,0,,,72,127
82360,note_on,2,0,0,,8,,,80,127
82360,note_on,0,0,0,,5,,,77,127
82535,note_off,175,0,0,,5,,,77,127
82535,note_off,0,0,0,,8,,,80,127
82537,note_on,2,0,0,,4,,,76,127
82537,note_on,0,0,0,,7,,,79,127
82712,note_off,175,0,0,,4,,,76,127
82714,note_on,2,0,0,,0,,,72,127
82888,note_off,174,0,0,,7,,,79,127
82890,note_off,2,0,0,,0,,,72,127
82892,note_on,2,0,0,,8,,,80,127
82892,note_on,0,0,0,,5,,,77,127
83067,note_off,175,0,0,,5,,,77,127
83067,note_off,0,0,0,,8,,,80,127
83069,note_on,2,0,0,,5,,,77,127
83069,note_on,0,0,0,,8,,,80,127
83422,note_off,353,0,0,,8,,,80,127
83422,note_off,0,0,0,,5,,,77,127
83422,note_off,0,0,0,,0,,,48,127
83422,note_off,0,0,0,,0,,,36,127
83424,note_on,2,0,0,,0,,,60,127
83424,note_on,0,0,0,,11,,,70,127
83424,note_on,0,0,0,,4,,,76,127
83424,note_on,0,0,0,,7,,,79,127
83599,note_off,175,0,0,,11,,,70,127
83599,note_off,0,0,0,,0,,,60,127
83601,note_on,2,0,0,,0,,,60,127
83601,note_on,0,0,0,,11,,,70,127
83954,note_off,353,0,0,,11,,,70,127
83954,note_off,0,0,0,,0,,,60,127
83954,note_off,0,0,0,,7,,,79,127
83954,note_off,0,0,0,,4,,,76,127
83956,note_on,2,0,0,,0,,,60,127
83956,note_on,0,0,0,,11,,,70,127
83956,note_on,0,0,0,,7,,,79,127
83956,note_on,0,0,0,,4,,,76,127
84131,note_off,175,0,0,,4,,,76,127
84131,note_off,0,0,0,,7,,,79,127
84131,note_off,0,0,0,,11,,,70,127
84131,note_off,0,0,0,,0,,,60,127
84133,note_on,2,0,0,,0,,,60,127
84133,note_on,0,0,0,,8,,,68,127
84133,note_on,0,0,0,,7,,,79,127
84198,note_off,65,0,0,,7,,,79,127
84200,note_on,2,0,0,,5,,,77,127
84265,note_off,65,0,0,,5,,,77,127
84267,note_on,2,0,0,,7,,,79,127
84328,note_off,61,0,0,,7,,,79,127
84330,note_on,2,0,0,,5,,,77,127
84395,note_off,65,0,0,,5,,,77,127
84397,note_on,2,0,0,,4,,,76,127
84487,note_off,90,0,0,,4,,,76,127
84487,note_off,0,0,0,,8,,,68,127
84487,note_off,0,0,0,,0,,,60,127
84489,note_on,2,0,0,,0,,,60,127
84489,note_on,0,0,0,,8,,,68,127
84489,note_on,0,0,0,,5,,,77,127
84664,note_off,175,0,0,,5,,,77,127
84664,note_off,0,0,0,,8,,,68,127
84664,note_off,0,0,0,,0,,,60,127
84666,note_on,2,0,0,,7,,,67,127
84666,note_on,0,0,0,,0,,,60,127
84666,note_on,0,0,0,,7,,,79,127
84666,note_on,0,0,0,,4,,,76,127
85019,note_off,353,0,0,,4,,,76,127
85019,note_off,0,0,0,,7,,,79,127
85019,note_off,0,0,0,,0,,,60,127
85019,note_off,0,0,0,,7,,,67,127
85021,note_on,2,0,0,,5,,,65,127
85021,note_on,0,0,0,,0,,,60,127
85021,note_on,0,0,0,,5,,,77,127
85021,note_on,0,0,0,,8,,,80,127
85196,note_off,175,0,0,,8,,,80,127
85196,note_off,0,0,0,,5,,,77,127
85196,note_off,0,0,0,,0,,,60,127
85196,note_off,0,0,0,,5,,,65,127
85198,note_on,2,0,0,,0,,,60,127
85198,note_on,0,0,0,,7,,,79,127
85198,note_on,0,0,0,,4,,,76,127
85551,note_off,353,0,0,,4,,,76,127
85551,note_off,0,0,0,,7,,,79,127
85560,note_on,9,0,0,,0,,,84,127
85735,note_off,175,0,0,,0,,,84,127
85746,note_on,11,0,0,,4,,,76,127
85746,note_on,0,0,0,,7,,,79,127
85921,note_off,175,0,0,,7,,,79,127
85923,note_on,2,0,0,,0,,,72,127
86097,note_off,174,0,0,,4,,,76,127
86099,note_off,2,0,0,,0,,,72,127
86101,note_on,2,0,0,,8,,,80,127
86101,note_on,0,0,0,,5,,,77,127
86276,note_off,175,0,0,,5,,,77,127
86276,note_off,0,0,0,,8,,,80,127
86278,note_on,2,0,0,,7,,,79,127
86278,note_on,0,0,0,,4,,,76,127
86453,note_off,175,0,0,,7,,,79,127
86455,note_on,2,0,0,,0,,,72,127
86629,note_off,174,0,0,,4,,,76,127
86631,note_off,2,0,0,,0,,,72,127
86633,note_on,2,0,0,,8,,,80,127
86633,note_on,0,0,0,,5,,,77,127
86808,note_off,175,0,0,,5,,,77,127
86808,note_off,0,0,0,,8,,,80,127
86810,note_on,2,0,0,,4,,,76,127
86810,note_on,0,0,0,,7,,,79,127
86985,note_off,175,0,0,,7,,,79,127
86987,note_on,2,0,0,,0,,,72,127
87161,note_off,174,0,0,,4,,,76,127
87163,note_off,2,0,0,,0,,,72,127
87165,note_on,2,0,0,,8,,,80,127
87165,note_on,0,0,0,,5,,,77,127
87340,note_off,175,0,0,,5,,,77,127
87340,note_off,0,0,0,,8,,,80,127
87342,note_on,2,0,0,,8,,,80,127
87342,note_on,0,0,0,,5,,,77,127
87399,note_off,57,0,0,,5,,,77,127
87399,note_off,0,0,0,,8,,,80,127
87401,note_on,2,0,0,,7,,,79,127
87401,note_on,0,0,0,,4,,,76,127
87458,note_off,57,0,0,,4,,,76,127
87458,note_off,0,0,0,,7,,,79,127
87460,note_on,2,0,0,,8,,,80,127
87460,note_on,0,0,0,,5,,,77,127
87517,note_off,57,0,0,,5,,,77,127
87517,note_off,0,0,0,,8,,,80,127
87519,note_on,2,0,0,,7,,,79,127
87519,note_on,0,0,0,,4,,,76,127
87678,note_off,159,0,0,,0,,,60,127
87696,note_on,18,0,0,,11,,,70,127
87696,note_on,0,0,0,,0,,,60,127
87871,note_off,175,0,0,,0,,,60,127
87871,note_off,0,0,0,,11,,,70,127
87873,note_on,2,0,0,,0,,,60,127
87873,note_on,0,0,0,,11,,,70,127
88226,note_off,353,0,0,,11,,,70,127
88226,note_off,0,0,0,,0,,,60,127
88226,note_off,0,0,0,,4,,,76,127
88226,note_off,0,0,0,,7,,,79,127
88228,note_on,2,0,0,,7,,,79,127
88228,note_on,0,0,0,,4,,,76,127
88228,note_on,0,0,0,,11,,,70,127
88228,note_on,0,0,0,,0,,,60,127
88403,note_off,175,0,0,,0,,,60,127
88403,note_off,0,0,0,,11,,,70,127
88403,note_off,0,0,0,,4,,,76,127
88403,note_off,0,0,0,,7,,,79,127
88405,note_on,2,0,0,,7,,,79,127
88405,note_on,0,0,0,,0,,,60,127
88405,note_on,0,0,0,,8,,,68,127
88447,note_off,42,0,0,,7,,,79,127
88449,note_on,2,0,0,,5,,,77,127
88491,note_off,42,0,0,,5,,,77,127
88493,note_on,2,0,0,,7,,,79,127
88535,note_off,42,0,0,,7,,,79,127
88537,note_on,2,0,0,,5,,,77,127
88579,note_off,42,0,0,,5,,,77,127
88581,note_on,2,0,0,,4,,,76,127
88756,note_off,175,0,0,,4,,,76,127
88756,note_off,0,0,0,,8,,,68,127
88756,note_off,0,0,0,,0,,,60,127
88758,note_on,2,0,0,,5,,,77,127
88758,note_on,0,0,0,,8,,,68,127
88758,note_on,0,0,0,,0,,,60,127
88933,note_off,175,0,0,,0,,,60,127
88933,note_off,0,0,0,,8,,,68,127
88933,note_off,0,0,0,,5,,,77,127
88935,note_on,2,0,0,,4,,,76,127
88935,note_on,0,0,0,,7,,,79,127
88935,note_on,0,0,0,,7,,,67,127
88935,note_on,0,0,0,,0,,,60,127
89288,note_off,353,0,0,,0,,,60,127
89288,note_off,0,0,0,,7,,,67,127
89288,note_off,0,0,0,,7,,,79,127
89288,note_off,0,0,0,,4,,,76,127
89290,note_on,2,0,0,,8,,,80,127
89290,note_on,0,0,0,,5,,,77,127
89290,note_on,0,0,0,,0,,,60,127
89290,note_on,0,0,0,,5,,,65,127
89465,note_off,175,0,0,,5,,,65,127
89465,note_off,0,0,0,,0,,,60,127
89465,note_off,0,0,0,,5,,,77,127
89465,note_off,0,0,0,,8,,,80,127
89467,note_on,2,0,0,,8,,,80,127
89467,note_on,0,0,0,,5,,,77,127
89467,note_on,0,0,0,,7,,,67,127
89467,note_on,0,0,0,,4,,,64,127
89467,note_on,0,0,0,,0,,,60,127
89820,note_off,353,0,0,,0,,,60,127
89820,note_off,0,0,0,,4,,,64,127
89820,note_off,0,0,0,,7,,,67,127
89820,note_off,0,0,0,,5,,,77,127
89820,note_off,0,0,0,,8,,,80,127
89822,note_on,2,0,0,,4,,,76,127
89822,note_on,0,0,0,,7,,,79,127
89822,note_on,0,0,0,,7,,,67,127
89822,note_on,0,0,0,,0,,,60,127
89822,note_on,0,0,0,,4,,,64,127
89997,note_off,175,0,0,,4,,,64,127
89997,note_off,0,0,0,,0,,,60,127
89997,note_off,0,0,0,,7,,,67,127
89999,note_on,2,0,0,,7,,,67,127
89999,note_on,0,0,0,,4,,,64,127
89999,note_on,0,0,0,,0,,,60,127
90352,note_off,353,0,0,,0,,,60,127
90352,note_off,0,0,0,,4,,,64,127
90352,note_off,0,0,0,,7,,,67,127
90352,note_off,0,0,0,,7,,,79,127
90352,note_off,0,0,0,,4,,,76,127
90354,note_on,2,0,0,,7,,,79,127
90354,note_on,0,0,0,,0,,,60,127
90354,note_on,0,0,0,,4,,,64,127
90354,note_on,0,0,0,,7,,,67,127
90529,note_off,175,0,0,,7,,,67,127
90529,note_off,0,0,0,,4,,,64,127
90529,note_off,0,0,0,,0,,,60,127
90529,note_off,0,0,0,,7,,,79,127
90531,note_on,2,0,0,,2,,,86,127
90531,note_on,0,0,0,,7,,,67,127
90531,note_on,0,0,0,,5,,,65,127
90531,note_on,0,0,0,,12,,,59,127
90706,note_off,175,0,0,,2,,,86,127
90708,note_on,2,0,0,,12,,,83,127
90883,note_off,175,0,0,,12,,,83,127
90883,note_off,0,0,0,,12,,,59,127
90883,note_off,0,0,0,,5,,,65,127
90883,note_off,0,0,0,,7,,,67,127
90885,note_on,2,0,0,,8,,,80,127
90885,note_on,0,0,0,,5,,,65,127
90885,note_on,0,0,0,,7,,,67,127
90885,note_on,0,0,0,,12,,,59,127
91060,note_off,175,0,0,,12,,,59,127
91060,note_off,0,0,0,,7,,,67,127
91060,note_off,0,0,0,,5,,,65,127
91062,note_on,2,0,0,,5,,,65,127
91062,note_on,0,0,0,,7,,,67,127
91062,note_on,0,0,0,,12,,,59,127
91415,note_off,353,0,0,,12,,,59,127
91415,note_off,0,0,0,,7,,,67,127
91415,note_off,0,0,0,,5,,,65,127
91417,note_on,2,0,0,,7,,,67,127
91417,note_on,0,0,0,,12,,,59,127
91417,note_on,0,0,0,,5,,,65,127
91592,note_off,175,0,0,,5,,,65,127
91592,note_off,0,0,0,,12,,,59,127
91592,note_off,0,0,0,,7,,,67,127
91594,note_on,2,0,0,,7,,,67,127
91594,note_on,0,0,0,,0,,,60,127
91594,note_on,0,0,0,,5,,,65,127
91947,note_off,353,0,0,,5,,,65,127
91947,note_off,0,0,0,,0,,,60,127
91947,note_off,0,0,0,,7,,,67,127
91947,note_off,0,0,0,,8,,,80,127
91949,note_on,2,0,0,,5,,,77,127
91949,note_on,0,0,0,,5,,,65,127
91949,note_on,0,0,0,,7,,,67,127
91949,note_on,0,0,0,,0,,,60,127
92124,note_off,175,0,0,,0,,,60,127
92124,note_off,0,0,0,,7,,,67,127
92124,note_off,0,0,0,,5,,,65,127
92124,note_off,0,0,0,,5,,,77,127
92126,note_on,2,0,0,,6,,,78,127
92126,note_on,0,0,0,,0,,,60,127
92126,note_on,0,0,0,,5,,,65,127
92126,note_on,0,0,0,,7,,,67,127
92479,note_off,353,0,0,,7,,,67,127
92479,note_off,0,0,0,,5,,,65,127
92479,note_off,0,0,0,,0,,,60,127
92479,note_off,0,0,0,,6,,,78,127
92481,note_on,2,0,0,,7,,,79,127
92481,note_on,0,0,0,,7,,,67,127
92481,note_on,0,0,0,,5,,,65,127
92481,note_on,0,0,0,,0,,,60,127
92656,note_off,175,0,0,,0,,,60,127
92656,note_off,0,0,0,,5,,,65,127
92656,note_off,0,0,0,,7,,,67,127
92656,note_off,0,0,0,,7,,,79,127
92658,note_on,2,0,0,,2,,,86,127
92658,note_on,0,0,0,,7,,,67,127
92658,note_on,0,0,0,,5,,,65,127
92658,note_on,0,0,0,,12,,,59,127
92833,note_off,175,0,0,,2,,,86,127
92835,note_on,2,0,0,,12,,,83,127
93010,note_off,175,0,0,,12,,,83,127
93010,note_off,0,0,0,,12,,,59,127
93010,note_off,0,0,0,,5,,,65,127
93010,note_off,0,0,0,,7,,,67,127
93012,note_on,2,0,0,,8,,,80,127
93012,note_on,0,0,0,,7,,,67,127
93012,note_on,0,0,0,,12,,,59,127
93012,note_on,0,0,0,,5,,,65,127
93187,note_off,175,0,0,,5,,,65,127
93187,note_off,0,0,0,,12,,,59,127
93187,note_off,0,0,0,,7,,,67,127
93187,note_off,0,0,0,,8,,,80,127
93189,note_on,2,0,0,,8,,,80,127
93189,note_on,0,0,0,,5,,,65,127
93189,note_on,0,0,0,,7,,,67,127
93189,note_on,0,0,0,,12,,,59,127
93542,note_off,353,0,0,,12,,,59,127
93542,note_off,0,0,0,,7,,,67,127
93542,note_off,0,0,0,,5,,,65,127
93544,note_on,2,0,0,,7,,,67,127
93544,note_on,0,0,0,,5,,,65,127
93544,note_on,0,0,0,,12,,,59,127
93719,note_off,175,0,0,,12,,,59,127
93719,note_off,0,0,0,,5,,,65,127
93719,note_off,0,0,0,,7,,,67,127
93721,note_on,2,0,0,,7,,,67,127
93721,note_on,0,0,0,,0,,,60,127
93721,note_on,0,0,0,,5,,,65,127
94074,note_off,353,0,0,,5,,,65,127
94074,note_off,0,0,0,,0,,,60,127
94074,note_off,0,0,0,,7,,,67,127
94074,note_off,0,0,0,,8,,,80,127
94076,note_on,2,0,0,,5,,,77,127
94076,note_on,0,0,0,,7,,,67,127
94076,note_on,0,0,0,,5,,,65,127
94076,note_on,0,0,0,,0,,,60,127
94251,note_off,175,0,0,,0,,,60,127
94251,note_off,0,0,0,,5,,,65,127
94251,note_off,0,0,0,,7,,,67,127
94251,note_off,0,0,0,,5,,,77,127
94253,note_on,2,0,0,,6,,,78,127
94253,note_on,0,0,0,,7,,,67,127
94253,note_on,0,0,0,,0,,,60,127
94253,note_on,0,0,0,,4,,,64,127
94606,note_off,353,0,0,,4,,,64,127
94606,note_off,0,0,0,,0,,,60,127
94606,note_off,0,0,0,,7,,,67,127
94606,note_off,0,0,0,,6,,,78,127
94608,note_on,2,0,0,,7,,,79,127
94608,note_on,0,0,0,,7,,,67,127
94608,note_on,0,0,0,,0,,,60,127
94608,note_on,0,0,0,,4,,,64,127
94783,note_off,175,0,0,,4,,,64,127
94783,note_off,0,0,0,,0,,,60,127
94783,note_off,0,0,0,,7,,,67,127
94783,note_off,0,0,0,,7,,,79,127
94785,note_on,2,0,0,,2,,,86,127
94785,note_on,0,0,0,,7,,,67,127
94785,note_on,0,0,0,,2,,,62,127
94785,note_on,0,0,0,,11,,,58,127
94960,note_off,175,0,0,,2,,,86,127
94962,note_on,2,0,0,,11,,,82,127
95137,note_off,175,0,0,,11,,,82,127
95137,note_off,0,0,0,,11,,,58,127
95137,note_off,0,0,0,,2,,,62,127
95137,note_off,0,0,0,,7,,,67,127
95139,note_on,2,0,0,,6,,,78,127
95139,note_on,0,0,0,,11,,,58,127
95139,note_on,0,0,0,,2,,,62,127
95139,note_on,0,0,0,,7,,,67,127
95314,note_off,175,0,0,,7,,,67,127
95314,note_off,0,0,0,,2,,,62,127
95314,note_off,0,0,0,,11,,,58,127
95316,note_on,2,0,0,,7,,,67,127
95316,note_on,0,0,0,,11,,,58,127
95316,note_on,0,0,0,,2,,,62,127
95609,note_off,293,0,0,,6,,,78,127
95669,note_off,60,0,0,,2,,,62,127
95669,note_off,0,0,0,,11,,,58,127
95669,note_off,0,0,0,,7,,,67,127
95671,note_on,2,0,0,,7,,,79,127
95671,note_on,0,0,0,,7,,,67,127
95671,note_on,0,0,0,,2,,,62,127
95671,note_on,0,0,0,,11,,,58,127
95846,note_off,175,0,0,,11,,,58,127
95846,note_off,0,0,0,,2,,,62,127
95846,note_off,0,0,0,,7,,,67,127
95848,note_on,2,0,0,,7,,,67,127
95848,note_on,0,0,0,,10,,,57,127
95848,note_on,0,0,0,,1,,,61,127
96023,note_off,175,0,0,,7,,,79,127
96025,note_on,2,0,0,,10,,,81,127
96200,note_off,175,0,0,,10,,,81,127
96200,note_off,0,0,0,,1,,,61,127
96200,note_off,0,0,0,,10,,,57,127
96200,note_off,0,0,0,,7,,,67,127
96202,note_on,2,0,0,,6,,,78,127
96202,note_on,0,0,0,,7,,,67,127
96202,note_on,0,0,0,,1,,,61,127
96202,note_on,0,0,0,,4,,,64,127
96202,note_on,0,0,0,,10,,,57,127
96377,note_off,175,0,0,,10,,,57,127
96377,note_off,0,0,0,,4,,,64,127
96377,note_off,0,0,0,,1,,,61,127
96377,note_off,0,0,0,,7,,,67,127
96377,note_off,0,0,0,,6,,,78,127
96379,note_on,2,0,0,,6,,,78,127
96379,note_on,0,0,0,,1,,,61,127
96379,note_on,0,0,0,,4,,,64,127
96379,note_on,0,0,0,,7,,,67,127
96379,note_on,0,0,0,,10,,,57,127
96732,note_off,353,0,0,,10,,,57,127
96732,note_off,0,0,0,,7,,,67,127
96732,note_off,0,0,0,,4,,,64,127
96732,note_off,0,0,0,,1,,,61,127
96732,note_off,0,0,0,,6,,,78,127
96734,note_on,2,0,0,,7,,,79,127
96734,note_on,0,0,0,,7,,,67,127
96734,note_on,0,0,0,,1,,,61,127
96734,note_on,0,0,0,,4,,,64,127
96734,note_on,0,0,0,,10,,,57,127
96909,note_off,175,0,0,,10,,,57,127
96909,note_off,0,0,0,,4,,,64,127
96909,note_off,0,0,0,,1,,,61,127
96909,note_off,0,0,0,,7,,,67,127
96909,note_off,0,0,0,,7,,,79,127
96911,note_on,2,0,0,,2,,,86,127
96911,note_on,0,0,0,,7,,,67,127
96911,note_on,0,0,0,,11,,,58,127
96911,note_on,0,0,0,,2,,,62,127
97086,note_off,175,0,0,,2,,,86,127
97088,note_on,2,0,0,,11,,,82,127
97263,note_off,175,0,0,,11,,,82,127
97263,note_off,0,0,0,,2,,,62,127
97263,note_off,0,0,0,,11,,,58,127
97263,note_off,0,0,0,,7,,,67,127
97265,note_on,2,0,0,,6,,,78,127
97265,note_on,0,0,0,,7,,,67,127
97265,note_on,0,0,0,,2,,,62,127
97265,note_on,0,0,0,,11,,,58,127
97440,note_off,175,0,0,,11,,,58,127
97440,note_off,0,0,0,,2,,,62,127
97440,note_off,0,0,0,,7,,,67,127
97440,note_off,0,0,0,,6,,,78,127
97442,note_on,2,0,0,,6,,,78,127
97442,note_on,0,0,0,,11,,,58,127
97442,note_on,0,0,0,,7,,,67,127
97442,note_on,0,0,0,,2,,,62,127
97795,note_off,353,0,0,,2,,,62,127
97795,note_off,0,0,0,,7,,,67,127
97795,note_off,0,0,0,,11,,,58,127
97795,note_off,0,0,0,,6,,,78,127
97797,note_on,2,0,0,,7,,,79,127
97797,note_on,0,0,0,,11,,,58,127
97797,note_on,0,0,0,,7,,,67,127
97797,note_on,0,0,0,,2,,,62,127
97972,note_off,175,0,0,,2,,,62,127
97972,note_off,0,0,0,,7,,,67,127
97972,note_off,0,0,0,,11,,,58,127
97972,note_off,0,0,0,,7,,,79,127
97974,note_on,2,0,0,,6,,,78,127
97974,note_on,0,0,0,,0,,,60,127
97974,note_on,0,0,0,,6,,,66,127
97974,note_on,0,0,0,,10,,,57,127
97974,note_on,0,0,0,,2,,,62,127
98327,note_off,353,0,0,,2,,,62,127
98327,note_off,0,0,0,,10,,,57,127
98327,note_off,0,0,0,,6,,,66,127
98327,note_off,0,0,0,,0,,,60,127
98329,note_on,2,0,0,,6,,,66,127
98329,note_on,0,0,0,,10,,,57,127
98329,note_on,0,0,0,,0,,,60,127
98329,note_on,0,0,0,,2,,,62,127
98504,note_off,175,0,0,,2,,,62,127
98504,note_off,0,0,0,,0,,,60,127
98504,note_off,0,0,0,,10,,,57,127
98504,note_off,0,0,0,,6,,,66,127
98504,note_off,0,0,0,,6,,,78,127
98506,note_on,2,0,0,,3,,,75,127
98506,note_on,0,0,0,,0,,,60,127
98506,note_on,0,0,0,,3,,,63,127
98506,note_on,0,0,0,,7,,,55,127
98859,note_off,353,0,0,,7,,,55,127
98859,note_off,0,0,0,,3,,,63,127
98859,note_off,0,0,0,,0,,,60,127
98861,note_on,2,0,0,,3,,,63,127
98861,note_on,0,0,0,,0,,,60,127
98861,note_on,0,0,0,,7,,,55,127
99036,note_off,175,0,0,,7,,,55,127
99036,note_off,0,0,0,,0,,,60,127
99036,note_off,0,0,0,,3,,,63,127
99036,note_off,0,0,0,,3,,,75,127
99038,note_on,2,0,0,,2,,,74,127
99038,note_on,0,0,0,,6,,,54,127
99038,note_on,0,0,0,,0,,,60,127
99038,note_on,0,0,0,,2,,,62,127
99391,note_off,353,0,0,,2,,,62,127
99391,note_off,0,0,0,,0,,,60,127
99391,note_off,0,0,0,,6,,,54,127
99393,note_on,2,0,0,,2,,,62,127
99393,note_on,0,0,0,,6,,,54,127
99393,note_on,0,0,0,,0,,,60,127
99568,note_off,175,0,0,,0,,,60,127
99568,note_off,0,0,0,,6,,,54,127
99568,note_off,0,0,0,,2,,,62,127
99568,note_off,0,0,0,,2,,,74,127
99570,note_on,2,0,0,,0,,,72,127
99570,note_on,0,0,0,,0,,,60,127
99570,note_on,0,0,0,,3,,,51,127
99570,note_on,0,0,0,,7,,,55,127
99923,note_off,353,0,0,,7,,,55,127
99923,note_off,0,0,0,,3,,,51,127
99923,note_off,0,0,0,,0,,,60,127
99925,note_on,2,0,0,,7,,,55,127
99925,note_on,0,0,0,,0,,,60,127
99925,note_on,0,0,0,,3,,,51,127
100100,note_off,175,0,0,,3,,,51,127
100100,note_off,0,0,0,,0,,,60,127
100100,note_off,0,0,0,,7,,,55,127
100100,note_off,0,0,0,,0,,,72,127
100102,note_on,2,0,0,,12,,,71,127
100102,note_on,0,0,0,,12,,,59,127
100102,note_on,0,0,0,,7,,,55,127
100102,note_on,0,0,0,,5,,,53,127
100102,note_on,0,0,0,,2,,,50,127
100455,note_off,353,0,0,,2,,,50,127
100455,note_off,0,0,0,,5,,,53,127
100455,note_off,0,0,0,,7,,,55,127
100455,note_off,0,0,0,,12,,,59,127
100457,note_on,2,0,0,,7,,,55,127
100457,note_on,0,0,0,,12,,,59,127
100457,note_on,0,0,0,,2,,,50,127
100457,note_on,0,0,0,,5,,,53,127
100632,note_off,175,0,0,,5,,,53,127
100632,note_off,0,0,0,,2,,,50,127
100632,note_off,0,0,0,,12,,,59,127
100632,note_off,0,0,0,,7,,,55,127
100632,note_off,0,0,0,,12,,,71,127
100634,note_on,2,0,0,,8,,,68,127
100634,note_on,0,0,0,,8,,,56,127
100634,note_on,0,0,0,,5,,,53,127
100634,note_on,0,0,0,,0,,,48,127
100987,note_off,353,0,0,,0,,,48,127
100987,note_off,0,0,0,,5,,,53,127
100987,note_off,0,0,0,,8,,,56,127
100989,note_on,2,0,0,,5,,,53,127
100989,note_on,0,0,0,,8,,,56,127
100989,note_on,0,0,0,,0,,,48,127
101164,note_off,175,0,0,,0,,,48,127
101164,note_off,0,0,0,,8,,,56,127
101164,note_off,0,0,0,,5,,,53,127
101164,note_off,0,0,0,,8,,,68,127
101166,note_on,2,0,0,,7,,,67,127
101166,note_on,0,0,0,,7,,,55,127
101166,note_on,0,0,0,,2,,,50,127
101166,note_on,0,0,0,,5,,,53,127
101166,note_on,0,0,0,,12,,,47,127
101519,note_off,353,0,0,,12,,,47,127
101519,note_off,0,0,0,,5,,,53,127
101519,note_off,0,0,0,,2,,,50,127
101519,note_off,0,0,0,,7,,,55,127
101528,note_on,9,0,0,,2,,,50,127
101528,note_on,0,0,0,,5,,,53,127
101528,note_on,0,0,0,,7,,,55,127
101528,note_on,0,0,0,,12,,,47,127
101703,note_off,175,0,0,,12,,,47,127
101703,note_off,0,0,0,,7,,,55,127
101703,note_off,0,0,0,,5,,,53,127
101703,note_off,0,0,0,,2,,,50,127
101714,note_on,11,0,0,,12,,,47,127
101714,note_on,0,0,0,,5,,,53,127
101714,note_on,0,0,0,,2,,,50,127
101714,note_on,0,0,0,,7,,,55,127
101794,note_off,80,0,0,,7,,,67,127
101968,note_on,174,0,0,,10,,,69,127
102044,note_on,76,0,0,,12,,,71,127
102046,note_off,2,0,0,,10,,,69,127
102067,note_off,21,0,0,,7,,,55,127
102067,note_off,0,0,0,,2,,,50,127
102067,note_off,0,0,0,,5,,,53,127
102109,note_on,42,0,0,,5,,,53,127
102109,note_on,0,0,0,,7,,,55,127
102109,note_on,0,0,0,,2,,,50,127
102120,note_on,11,0,0,,0,,,72,127
102122,note_off,2,0,0,,12,,,71,127
102158,note_off,36,0,0,,12,,,47,127
102195,note_on,37,0,0,,2,,,74,127
102197,note_off,2,0,0,,0,,,72,127
102266,note_off,69,0,0,,2,,,50,127
102272,note_off,6,0,0,,2,,,74,127
102275,note_off,3,0,0,,5,,,53,127
102284,note_off,9,0,0,,7,,,55,127
102286,note_on,2,0,0,,3,,,75,127
102286,note_on,0,0,0,,0,,,60,127
102473,note_off,187,0,0,,0,,,60,127
102473,note_off,0,0,0,,3,,,75,127
102475,note_on,2,0,0,,2,,,74,127
102475,note_on,0,0,0,,2,,,62,127
102662,note_off,187,0,0,,2,,,62,127
102662,note_off,0,0,0,,2,,,74,127
102664,note_on,2,0,0,,0,,,72,127
102664,note_on,0,0,0,,3,,,63,127
102851,note_off,187,0,0,,3,,,63,127
102851,note_off,0,0,0,,0,,,72,127
102853,note_on,2,0,0,,10,,,69,127
102853,note_on,0,0,0,,5,,,65,127
103040,note_off,187,0,0,,5,,,65,127
103042,note_on,2,0,0,,2,,,62,127
103229,note_off,187,0,0,,2,,,62,127
103229,note_off,0,0,0,,10,,,69,127
103231,note_on,2,0,0,,12,,,71,127
103231,note_on,0,0,0,,7,,,67,127
103388,note_off,157,0,0,,12,,,71,127
103418,note_off,30,0,0,,7,,,67,127
103420,note_on,2,0,0,,5,,,77,127
103420,note_on,0,0,0,,0,,,60,127
103512,note_off,92,0,0,,5,,,77,127
103514,note_on,2,0,0,,3,,,75,127
103606,note_off,92,0,0,,3,,,75,127
103606,note_off,0,0,0,,0,,,60,127
103608,note_on,2,0,0,,2,,,74,127
103608,note_on,0,0,0,,2,,,62,127
103795,note_off,187,0,0,,2,,,62,127
103795,note_off,0,0,0,,2,,,74,127
103797,note_on,2,0,0,,0,,,72,127
103797,note_on,0,0,0,,3,,,63,127
103984,note_off,187,0,0,,3,,,63,127
103984,note_off,0,0,0,,0,,,72,127
103986,note_on,2,0,0,,10,,,69,127
103986,note_on,0,0,0,,5,,,65,127
104173,note_off,187,0,0,,5,,,65,127
104175,note_on,2,0,0,,2,,,62,127
104362,note_off,187,0,0,,2,,,62,127
104362,note_off,0,0,0,,10,,,69,127
104364,note_on,2,0,0,,12,,,71,127
104364,note_on,0,0,0,,7,,,67,127
104521,note_off,157,0,0,,12,,,71,127
104551,note_off,30,0,0,,7,,,67,127
104553,note_on,2,0,0,,0,,,72,127
104553,note_on,0,0,0,,0,,,60,127
104740,note_off,187,0,0,,0,,,60,127
104740,note_off,0,0,0,,0,,,72,127
104742,note_on,2,0,0,,2,,,74,127
104742,note_on,0,0,0,,2,,,62,127
104834,note_off,92,0,0,,2,,,74,127
104836,note_on,2,0,0,,4,,,76,127
104928,note_off,92,0,0,,4,,,76,127
104928,note_off,0,0,0,,2,,,62,127
104930,note_on,2,0,0,,5,,,77,127
104930,note_on,0,0,0,,4,,,64,127
105022,note_off,92,0,0,,5,,,77,127
105024,note_on,2,0,0,,7,,,79,127
105116,note_off,92,0,0,,7,,,79,127
105116,note_off,0,0,0,,4,,,64,127
105118,note_on,2,0,0,,11,,,82,127
105118,note_on,0,0,0,,5,,,65,127
105210,note_off,92,0,0,,11,,,82,127
105212,note_on,2,0,0,,8,,,80,127
105304,note_off,92,0,0,,8,,,80,127
105304,note_off,0,0,0,,5,,,65,127
105306,note_on,2,0,0,,7,,,79,127
105306,note_on,0,0,0,,7,,,67,127
105493,note_off,187,0,0,,7,,,67,127
105493,note_off,0,0,0,,7,,,79,127
105495,note_on,2,0,0,,5,,,77,127
105495,note_on,0,0,0,,8,,,68,127
105682,note_off,187,0,0,,8,,,68,127
105682,note_off,0,0,0,,5,,,77,127
105684,note_on,2,0,0,,2,,,74,127
105684,note_on,0,0,0,,11,,,70,127
105871,note_off,187,0,0,,11,,,70,127
105873,note_on,2,0,0,,7,,,67,127
106060,note_off,187,0,0,,7,,,67,127
106060,note_off,0,0,0,,2,,,74,127
106062,note_on,2,0,0,,4,,,76,127
106062,note_on,0,0,0,,0,,,72,127
106219,note_off,157,0,0,,4,,,76,127
106249,note_off,30,0,0,,0,,,72,127
106251,note_on,2,0,0,,11,,,82,127
106251,note_on,0,0,0,,5,,,65,127
106343,note_off,92,0,0,,11,,,82,127
106345,note_on,2,0,0,,8,,,80,127
106437,note_off,92,0,0,,8,,,80,127
106437,note_off,0,0,0,,5,,,65,127
106439,note_on,2,0,0,,7,,,79,127
106439,note_on,0,0,0,,7,,,67,127
106626,note_off,187,0,0,,7,,,67,127
106626,note_off,0,0,0,,7,,,79,127
106628,note_on,2,0,0,,5,,,77,127
106628,note_on,0,0,0,,8,,,68,127
106815,note_off,187,0,0,,8,,,68,127
106815,note_off,0,0,0,,5,,,77,127
106817,note_on,2,0,0,,2,,,74,127
106817,note_on,0,0,0,,11,,,70,127
107004,note_off,187,0,0,,11,,,70,127
107006,note_on,2,0,0,,7,,,67,127
107193,note_off,187,0,0,,7,,,67,127
107193,note_off,0,0,0,,2,,,74,127
107195,note_on,2,0,0,,4,,,76,127
107195,note_on,0,0,0,,0,,,72,127
107362,note_off,167,0,0,,4,,,76,127
107382,note_off,20,0,0,,0,,,72,127
107384,note_on,2,0,0,,5,,,77,127
107384,note_on,0,0,0,,5,,,65,127
107573,note_on,189,0,0,,0,,,84,127
107660,note_off,87,0,0,,5,,,77,127
107760,note_off,100,0,0,,0,,,84,127
107762,note_on,2,0,0,,0,,,72,127
107949,note_off,187,0,0,,0,,,72,127
107950,note_off,1,0,0,,5,,,65,127
107951,note_on,1,0,0,,3,,,75,127
108012,note_off,61,0,0,,3,,,75,127
108014,note_on,2,0,0,,1,,,73,127
108075,note_off,61,0,0,,1,,,73,127
108077,note_on,2,0,0,,3,,,75,127
108138,note_off,61,0,0,,3,,,75,127
108140,note_on,2,0,0,,1,,,73,127
108140,note_on,0,0,0,,11,,,70,127
108232,note_off,92,0,0,,11,,,70,127
108234,note_on,2,0,0,,8,,,68,127
108326,note_off,92,0,0,,8,,,68,127
108328,note_on,2,0,0,,7,,,67,127
108420,note_off,92,0,0,,7,,,67,127
108422,note_on,2,0,0,,5,,,65,127
108514,note_off,92,0,0,,5,,,65,127
108514,note_off,0,0,0,,1,,,73,127
108516,note_on,2,0,0,,0,,,72,127
108516,note_on,0,0,0,,4,,,64,127
108703,note_off,187,0,0,,4,,,64,127
108705,note_on,2,0,0,,0,,,60,127
108792,note_off,87,0,0,,0,,,72,127
108894,note_on,102,0,0,,7,,,79,127
108894,note_on,0,0,0,,0,,,72,127
109079,note_off,185,0,0,,0,,,60,127
109083,note_on,4,0,0,,1,,,61,127
109268,note_off,185,0,0,,0,,,72,127
109270,note_off,2,0,0,,7,,,79,127
109272,note_on,2,0,0,,8,,,80,127
109272,note_on,0,0,0,,11,,,70,127
109459,note_off,187,0,0,,8,,,80,127
109461,note_on,2,0,0,,5,,,77,127
109555,note_off,94,0,0,,1,,,61,127
109647,note_off,92,0,0,,5,,,77,127
109647,note_off,0,0,0,,11,,,70,127
109649,note_on,2,0,0,,7,,,79,127
109649,note_on,0,0,0,,0,,,60,127
109649,note_on,0,0,0,,0,,,72,127
109838,note_on,189,0,0,,0,,,84,127
109925,note_off,87,0,0,,7,,,79,127
110023,note_off,98,0,0,,0,,,72,127
110027,note_on,4,0,0,,0,,,72,127
110114,note_off,87,0,0,,0,,,84,127
110204,note_off,90,0,0,,0,,,72,127
110216,note_on,12,0,0,,3,,,75,127
110268,note_off,52,0,0,,3,,,75,127
110270,note_on,2,0,0,,1,,,73,127
110322,note_off,52,0,0,,1,,,73,127
110324,note_on,2,0,0,,3,,,75,127
110376,note_off,52,0,0,,3,,,75,127
110378,note_on,2,0,0,,1,,,73,127
110403,note_off,25,0,0,,0,,,60,127
110405,note_on,2,0,0,,11,,,70,127
110497,note_off,92,0,0,,11,,,70,127
110499,note_on,2,0,0,,8,,,68,127
110591,note_off,92,0,0,,8,,,68,127
110593,note_on,2,0,0,,7,,,67,127
110685,note_off,92,0,0,,7,,,67,127
110687,note_on,2,0,0,,5,,,65,127
110779,note_off,92,0,0,,5,,,65,127
110779,note_off,0,0,0,,1,,,73,127
110781,note_on,2,0,0,,0,,,72,127
110781,note_on,0,0,0,,4,,,64,127
110968,note_off,187,0,0,,4,,,64,127
110970,note_on,2,0,0,,0,,,60,127
111157,note_off,187,0,0,,0,,,60,127
111157,note_off,0,0,0,,0,,,72,127
111159,note_on,2,0,0,,7,,,79,127
111159,note_on,0,0,0,,0,,,72,127
111348,note_on,189,0,0,,1,,,61,127
111533,note_off,185,0,0,,0,,,72,127
111535,note_off,2,0,0,,7,,,79,127
111537,note_on,2,0,0,,8,,,80,127
111537,note_on,0,0,0,,11,,,70,127
111724,note_off,187,0,0,,8,,,80,127
111726,note_on,2,0,0,,5,,,77,127
111813,note_off,87,0,0,,11,,,70,127
111913,note_off,100,0,0,,5,,,77,127
111914,note_off,1,0,0,,1,,,61,127
111915,note_on,1,0,0,,7,,,79,127
111915,note_on,0,0,0,,0,,,60,127
112102,note_off,187,0,0,,0,,,60,127
112104,note_on,2,0,0,,0,,,72,127
112196,note_off,92,0,0,,0,,,72,127
112198,note_on,2,0,0,,11,,,70,127
112290,note_off,92,0,0,,11,,,70,127
112290,note_off,0,0,0,,7,,,79,127
112292,note_on,2,0,0,,0,,,84,127
112292,note_on,0,0,0,,10,,,69,127
112384,note_off,92,0,0,,10,,,69,127
112386,note_on,2,0,0,,7,,,67,127
112478,note_off,92,0,0,,7,,,67,127
112480,note_on,2,0,0,,5,,,53,127
112667,note_off,187,0,0,,5,,,53,127
112667,note_off,0,0,0,,0,,,84,127
112669,note_on,2,0,0,,5,,,77,127
112669,note_on,0,0,0,,5,,,65,127
112761,note_off,92,0,0,,5,,,65,127
112763,note_on,2,0,0,,3,,,63,127
112855,note_off,92,0,0,,3,,,63,127
112855,note_off,0,0,0,,5,,,77,127
112857,note_on,2,0,0,,0,,,84,127
112857,note_on,0,0,0,,1,,,61,127
112949,note_off,92,0,0,,1,,,61,127
112951,note_on,2,0,0,,0,,,60,127
113043,note_off,92,0,0,,0,,,60,127
113043,note_off,0,0,0,,0,,,84,127
113045,note_on,2,0,0,,1,,,85,127
113045,note_on,0,0,0,,11,,,46,127
113045,note_on,0,0,0,,11,,,58,127
113137,note_off,92,0,0,,1,,,85,127
113139,note_on,2,0,0,,0,,,84,127
113231,note_off,92,0,0,,0,,,84,127
113233,note_on,2,0,0,,11,,,82,127
113325,note_off,92,0,0,,11,,,82,127
113327,note_on,2,0,0,,8,,,80,127
113419,note_off,92,0,0,,8,,,80,127
113421,note_on,2,0,0,,7,,,79,127
113513,note_off,92,0,0,,7,,,79,127
113515,note_on,2,0,0,,5,,,77,127
113607,note_off,92,0,0,,5,,,77,127
113607,note_off,0,0,0,,11,,,58,127
113607,note_off,0,0,0,,11,,,46,127
113609,note_on,2,0,0,,4,,,76,127
113609,note_on,0,0,0,,0,,,48,127
113609,note_on,0,0,0,,0,,,60,127
113701,note_off,92,0,0,,4,,,76,127
113703,note_on,2,0,0,,1,,,73,127
113795,note_off,92,0,0,,1,,,73,127
113797,note_on,2,0,0,,0,,,72,127
113889,note_off,92,0,0,,0,,,72,127
113891,note_on,2,0,0,,11,,,70,127
113983,note_off,92,0,0,,11,,,70,127
113985,note_on,2,0,0,,8,,,68,127
114077,note_off,92,0,0,,8,,,68,127
114079,note_on,2,0,0,,7,,,67,127
114171,note_off,92,0,0,,7,,,67,127
114171,note_off,0,0,0,,0,,,60,127
114171,note_off,0,0,0,,0,,,48,127
114173,note_on,2,0,0,,0,,,72,127
114173,note_on,0,0,0,,5,,,53,127
114173,note_on,0,0,0,,5,,,41,127
114265,note_off,92,0,0,,0,,,72,127
114267,note_on,2,0,0,,11,,,70,127
114359,note_off,92,0,0,,11,,,70,127
114361,note_on,2,0,0,,8,,,68,127
114453,note_off,92,0,0,,8,,,68,127
114455,note_on,2,0,0,,7,,,67,127
114547,note_off,92,0,0,,7,,,67,127
114549,note_on,2,0,0,,5,,,65,127
114641,note_off,92,0,0,,5,,,65,127
114643,note_on,2,0,0,,3,,,63,127
114735,note_off,92,0,0,,3,,,63,127
114735,note_off,0,0,0,,5,,,41,127
114735,note_off,0,0,0,,5,,,53,127
114737,note_on,2,0,0,,1,,,61,127
114737,note_on,0,0,0,,11,,,46,127
114829,note_off,92,0,0,,1,,,61,127
114831,note_on,2,0,0,,0,,,60,127
114923,note_off,92,0,0,,0,,,60,127
114925,note_on,2,0,0,,11,,,58,127
115017,note_off,92,0,0,,11,,,58,127
115019,note_on,2,0,0,,8,,,56,127
115111,note_off,92,0,0,,8,,,56,127
115113,note_on,2,0,0,,7,,,55,127
115205,note_off,92,0,0,,7,,,55,127
115207,note_on,2,0,0,,5,,,53,127
115299,note_off,92,0,0,,5,,,53,127
115299,note_off,0,0,0,,11,,,46,127
115301,note_on,2,0,0,,0,,,48,127
115301,note_on,0,0,0,,0,,,36,127
116432,note_off,1131,0,0,,0,,,36,127
116432,note_off,0,0,0,,0,,,48,127
116818,note_on,386,0,0,,0,,,60,127
116818,note_on,0,0,0,,0,,,48,127
117005,note_off,187,0,0,,0,,,48,127
117005,note_off,0,0,0,,0,,,60,127
117007,note_on,2,0,0,,2,,,50,127
117007,note_on,0,0,0,,2,,,62,127
117194,note_off,187,0,0,,2,,,62,127
117194,note_off,0,0,0,,2,,,50,127
117196,note_on,2,0,0,,4,,,64,127
117196,note_on,0,0,0,,4,,,52,127
117383,note_off,187,0,0,,4,,,52,127
117383,note_off,0,0,0,,4,,,64,127
117385,note_on,2,0,0,,5,,,53,127
117385,note_on,0,0,0,,5,,,65,127
117572,note_off,187,0,0,,5,,,65,127
117572,note_off,0,0,0,,5,,,53,127
117574,note_on,2,0,0,,7,,,55,127
117574,note_on,0,0,0,,7,,,67,127
117761,note_off,187,0,0,,7,,,67,127
117761,note_off,0,0,0,,7,,,55,127
117763,note_on,2,0,0,,0,,,84,127
117763,note_on,0,0,0,,8,,,68,127
117763,note_on,0,0,0,,8,,,56,127
117950,note_off,187,0,0,,8,,,56,127
117950,note_off,0,0,0,,8,,,68,127
117950,note_off,0,0,0,,0,,,84,127
117952,note_on,2,0,0,,7,,,79,127
117952,note_on,0,0,0,,1,,,61,127
117952,note_on,0,0,0,,1,,,49,127
117997,note_off,45,0,0,,7,,,79,127
117999,note_on,2,0,0,,5,,,77,127
118044,note_off,45,0,0,,5,,,77,127
118046,note_on,2,0,0,,7,,,79,127
118091,note_off,45,0,0,,7,,,79,127
118093,note_on,2,0,0,,5,,,77,127
118138,note_off,45,0,0,,5,,,77,127
118138,note_off,0,0,0,,1,,,49,127
118138,note_off,0,0,0,,1,,,61,127
118140,note_on,2,0,0,,4,,,76,127
118140,note_on,0,0,0,,0,,,60,127
118140,note_on,0,0,0,,0,,,48,127
118327,note_off,187,0,0,,0,,,48,127
118327,note_off,0,0,0,,0,,,60,127
118327,note_off,0,0,0,,4,,,76,127
118329,note_on,2,0,0,,5,,,77,127
118329,note_on,0,0,0,,1,,,61,127
118329,note_on,0,0,0,,1,,,49,127
118516,note_off,187,0,0,,1,,,49,127
118516,note_off,0,0,0,,1,,,61,127
118516,note_off,0,0,0,,5,,,77,127
118518,note_on,2,0,0,,6,,,78,127
118518,note_on,0,0,0,,0,,,48,127
118518,note_on,0,0,0,,0,,,60,127
118705,note_off,187,0,0,,0,,,60,127
118705,note_off,0,0,0,,0,,,48,127
118707,note_on,2,0,0,,2,,,62,127
118707,note_on,0,0,0,,2,,,50,127
118894,note_off,187,0,0,,2,,,50,127
118894,note_off,0,0,0,,2,,,62,127
118894,note_off,0,0,0,,6,,,78,127
118896,note_on,2,0,0,,7,,,79,127
118896,note_on,0,0,0,,4,,,52,127
118896,note_on,0,0,0,,4,,,64,127
119073,note_off,177,0,0,,7,,,79,127
119083,note_off,10,0,0,,4,,,64,127
119083,note_off,0,0,0,,4,,,52,127
119085,note_on,2,0,0,,5,,,53,127
119085,note_on,0,0,0,,5,,,65,127
119272,note_off,187,0,0,,5,,,65,127
119272,note_off,0,0,0,,5,,,53,127
119274,note_on,2,0,0,,7,,,67,127
119274,note_on,0,0,0,,7,,,55,127
119461,note_off,187,0,0,,7,,,55,127
119461,note_off,0,0,0,,7,,,67,127
119463,note_on,2,0,0,,0,,,84,127
119463,note_on,0,0,0,,10,,,69,127
119463,note_on,0,0,0,,10,,,57,127
119650,note_off,187,0,0,,10,,,57,127
119650,note_off,0,0,0,,10,,,69,127
119650,note_off,0,0,0,,0,,,84,127
119652,note_on,2,0,0,,7,,,79,127
119652,note_on,0,0,0,,1,,,49,127
119652,note_on,0,0,0,,1,,,61,127
119697,note_off,45,0,0,,7,,,79,127
119699,note_on,2,0,0,,5,,,77,127
119744,note_off,45,0,0,,5,,,77,127
119746,note_on,2,0,0,,7,,,79,127
119791,note_off,45,0,0,,7,,,79,127
119793,note_on,2,0,0,,5,,,77,127
119838,note_off,45,0,0,,5,,,77,127
119838,note_off,0,0,0,,1,,,61,127
119838,note_off,0,0,0,,1,,,49,127
119840,note_on,2,0,0,,4,,,76,127
119840,note_on,0,0,0,,0,,,48,127
119840,note_on,0,0,0,,0,,,60,127
120027,note_off,187,0,0,,0,,,60,127
120027,note_off,0,0,0,,0,,,48,127
120027,note_off,0,0,0,,4,,,76,127
120029,note_on,2,0,0,,5,,,77,127
120029,note_on,0,0,0,,1,,,49,127
120029,note_on,0,0,0,,1,,,61,127
120216,note_off,187,0,0,,1,,,61,127
120216,note_off,0,0,0,,1,,,49,127
120216,note_off,0,0,0,,5,,,77,127
120218,note_on,2,0,0,,6,,,78,127
120218,note_on,0,0,0,,0,,,48,127
120218,note_on,0,0,0,,0,,,60,127
120405,note_off,187,0,0,,0,,,60,127
120405,note_off,0,0,0,,0,,,48,127
120405,note_off,0,0,0,,6,,,78,127
120407,note_on,2,0,0,,7,,,79,127
120407,note_on,0,0,0,,2,,,62,127
120407,note_on,0,0,0,,2,,,50,127
120594,note_off,187,0,0,,2,,,50,127
120594,note_off,0,0,0,,2,,,62,127
120594,note_off,0,0,0,,7,,,79,127
120596,note_on,2,0,0,,11,,,82,127
120596,note_on,0,0,0,,4,,,52,127
120596,note_on,0,0,0,,4,,,64,127
120783,note_off,187,0,0,,4,,,64,127
120783,note_off,0,0,0,,4,,,52,127
120783,note_off,0,0,0,,11,,,82,127
120785,note_on,2,0,0,,8,,,80,127
120785,note_on,0,0,0,,5,,,53,127
120972,note_off,187,0,0,,5,,,53,127
120972,note_off,0,0,0,,8,,,80,127
120974,note_on,2,0,0,,7,,,79,127
120974,note_on,0,0,0,,7,,,55,127
121161,note_off,187,0,0,,7,,,55,127
121161,note_off,0,0,0,,7,,,79,127
121163,note_on,2,0,0,,5,,,77,127
121163,note_on,0,0,0,,8,,,56,127
121350,note_off,187,0,0,,8,,,56,127
121350,note_off,0,0,0,,5,,,77,127
121352,note_on,2,0,0,,11,,,82,127
121352,note_on,0,0,0,,1,,,85,127
121352,note_on,0,0,0,,11,,,58,127
121539,note_off,187,0,0,,11,,,58,127
121539,note_off,0,0,0,,1,,,85,127
121539,note_off,0,0,0,,11,,,82,127
121541,note_on,2,0,0,,8,,,80,127
121541,note_on,0,0,0,,0,,,84,127
121541,note_on,0,0,0,,0,,,60,127
121728,note_off,187,0,0,,0,,,60,127
121728,note_off,0,0,0,,0,,,84,127
121728,note_off,0,0,0,,8,,,80,127
121730,note_on,2,0,0,,11,,,82,127
121730,note_on,0,0,0,,7,,,79,127
121730,note_on,0,0,0,,0,,,48,127
121868,note_off,138,0,0,,11,,,82,127
121917,note_off,49,0,0,,0,,,48,127
121917,note_off,0,0,0,,7,,,79,127
121919,note_on,2,0,0,,5,,,77,127
121919,note_on,0,0,0,,5,,,65,127
121919,note_on,0,0,0,,5,,,53,127
122106,note_off,187,0,0,,5,,,53,127
122106,note_off,0,0,0,,5,,,65,127
122108,note_on,2,0,0,,7,,,55,127
122108,note_on,0,0,0,,7,,,67,127
122293,note_off,185,0,0,,5,,,77,127
122295,note_off,2,0,0,,7,,,67,127
122295,note_off,0,0,0,,7,,,55,127
122297,note_on,2,0,0,,8,,,68,127
122297,note_on,0,0,0,,8,,,56,127
122484,note_off,187,0,0,,8,,,56,127
122484,note_off,0,0,0,,8,,,68,127
122486,note_on,2,0,0,,7,,,79,127
122486,note_on,0,0,0,,1,,,49,127
122486,note_on,0,0,0,,1,,,61,127
122531,note_off,45,0,0,,7,,,79,127
122533,note_on,2,0,0,,5,,,77,127
122578,note_off,45,0,0,,5,,,77,127
122580,note_on,2,0,0,,7,,,79,127
122625,note_off,45,0,0,,7,,,79,127
122627,note_on,2,0,0,,5,,,77,127
122672,note_off,45,0,0,,5,,,77,127
122672,note_off,0,0,0,,1,,,61,127
122672,note_off,0,0,0,,1,,,49,127
122674,note_on,2,0,0,,4,,,76,127
122674,note_on,0,0,0,,0,,,48,127
122674,note_on,0,0,0,,0,,,60,127
122861,note_off,187,0,0,,0,,,60,127
122861,note_off,0,0,0,,0,,,48,127
122861,note_off,0,0,0,,4,,,76,127
122863,note_on,2,0,0,,5,,,77,127
122863,note_on,0,0,0,,1,,,49,127
122863,note_on,0,0,0,,1,,,61,127
123050,note_off,187,0,0,,1,,,61,127
123050,note_off,0,0,0,,1,,,49,127
123050,note_off,0,0,0,,5,,,77,127
123052,note_on,2,0,0,,7,,,79,127
123052,note_on,0,0,0,,0,,,60,127
123052,note_on,0,0,0,,0,,,48,127
123239,note_off,187,0,0,,0,,,48,127
123239,note_off,0,0,0,,0,,,60,127
123239,note_off,0,0,0,,7,,,79,127
123241,note_on,2,0,0,,12,,,83,127
123241,note_on,0,0,0,,2,,,50,127
123241,note_on,0,0,0,,2,,,62,127
123428,note_off,187,0,0,,2,,,62,127
123428,note_off,0,0,0,,2,,,50,127
123428,note_off,0,0,0,,12,,,83,127
123430,note_on,2,0,0,,0,,,84,127
123430,note_on,0,0,0,,4,,,52,127
123430,note_on,0,0,0,,4,,,64,127
123617,note_off,187,0,0,,4,,,64,127
123617,note_off,0,0,0,,4,,,52,127
123619,note_on,2,0,0,,5,,,65,127
123619,note_on,0,0,0,,5,,,53,127
123706,note_off,87,0,0,,0,,,84,127
123806,note_off,100,0,0,,5,,,53,127
123806,note_off,0,0,0,,5,,,65,127
123808,note_on,2,0,0,,8,,,80,127
123808,note_on,0,0,0,,7,,,67,127
123808,note_on,0,0,0,,7,,,55,127
123995,note_off,187,0,0,,7,,,55,127
123995,note_off,0,0,0,,7,,,67,127
123995,note_off,0,0,0,,8,,,80,127
123997,note_on,2,0,0,,7,,,79,127
123997,note_on,0,0,0,,8,,,68,127
123997,note_on,0,0,0,,8,,,56,127
124184,note_off,187,0,0,,8,,,56,127
124184,note_off,0,0,0,,8,,,68,127
124184,note_off,0,0,0,,7,,,79,127
124186,note_on,2,0,0,,7,,,79,127
124186,note_on,0,0,0,,1,,,49,127
124186,note_on,0,0,0,,1,,,61,127
124231,note_off,45,0,0,,7,,,79,127
124233,note_on,2,0,0,,5,,,77,127
124278,note_off,45,0,0,,5,,,77,127
124280,note_on,2,0,0,,7,,,79,127
124325,note_off,45,0,0,,7,,,79,127
124327,note_on,2,0,0,,5,,,77,127
124372,note_off,45,0,0,,5,,,77,127
124372,note_off,0,0,0,,1,,,61,127
124372,note_off,0,0,0,,1,,,49,127
124374,note_on,2,0,0,,4,,,76,127
124374,note_on,0,0,0,,0,,,48,127
124374,note_on,0,0,0,,0,,,60,127
124561,note_off,187,0,0,,0,,,60,127
124561,note_off,0,0,0,,0,,,48,127
124561,note_off,0,0,0,,4,,,76,127
124563,note_on,2,0,0,,5,,,77,127
124563,note_on,0,0,0,,1,,,49,127
124563,note_on,0,0,0,,1,,,61,127
124750,note_off,187,0,0,,1,,,61,127
124750,note_off,0,0,0,,1,,,49,127
124750,note_off,0,0,0,,5,,,77,127
124752,note_on,2,0,0,,5,,,77,127
124752,note_on,0,0,0,,0,,,48,127
124752,note_on,0,0,0,,0,,,60,127
124939,note_off,187,0,0,,0,,,60,127
124939,note_off,0,0,0,,0,,,48,127
124939,note_off,0,0,0,,5,,,77,127
124941,note_on,2,0,0,,7,,,79,127
124941,note_on,0,0,0,,2,,,50,127
124941,note_on,0,0,0,,2,,,62,127
125128,note_off,187,0,0,,2,,,62,127
125128,note_off,0,0,0,,2,,,50,127
125128,note_off,0,0,0,,7,,,79,127
125130,note_on,2,0,0,,11,,,82,127
125130,note_on,0,0,0,,4,,,64,127
125130,note_on,0,0,0,,4,,,52,127
125317,note_off,187,0,0,,4,,,52,127
125317,note_off,0,0,0,,4,,,64,127
125317,note_off,0,0,0,,11,,,82,127
125319,note_on,2,0,0,,8,,,80,127
125319,note_on,0,0,0,,5,,,53,127
125506,note_off,187,0,0,,5,,,53,127
125506,note_off,0,0,0,,8,,,80,127
125508,note_on,2,0,0,,7,,,79,127
125508,note_on,0,0,0,,7,,,55,127
125695,note_off,187,0,0,,7,,,55,127
125695,note_off,0,0,0,,7,,,79,127
125697,note_on,2,0,0,,5,,,77,127
125697,note_on,0,0,0,,8,,,56,127
125884,note_off,187,0,0,,8,,,56,127
125884,note_off,0,0,0,,5,,,77,127
125886,note_on,2,0,0,,11,,,82,127
125886,note_on,0,0,0,,7,,,79,127
125886,note_on,0,0,0,,11,,,58,127
126073,note_off,187,0,0,,11,,,58,127
126073,note_off,0,0,0,,7,,,79,127
126073,note_off,0,0,0,,11,,,82,127
126075,note_on,2,0,0,,8,,,80,127
126075,note_on,0,0,0,,5,,,77,127
126075,note_on,0,0,0,,0,,,60,127
126252,note_off,177,0,0,,5,,,77,127
126252,note_off,0,0,0,,8,,,80,127
126262,note_off,10,0,0,,0,,,60,127
126264,note_on,2,0,0,,4,,,76,127
126264,note_on,0,0,0,,7,,,79,127
126264,note_on,0,0,0,,0,,,48,127
126441,note_off,177,0,0,,7,,,79,127
126441,note_off,0,0,0,,4,,,76,127
126451,note_off,10,0,0,,0,,,48,127
126453,note_on,2,0,0,,5,,,77,127
126453,note_on,0,0,0,,5,,,53,127
126453,note_on,0,0,0,,5,,,41,127
126642,note_on,189,0,0,,0,,,84,127
126729,note_off,87,0,0,,5,,,77,127
126829,note_off,100,0,0,,0,,,84,127
126831,note_on,2,0,0,,0,,,72,127
127008,note_off,177,0,0,,0,,,72,127
127020,note_on,12,0,0,,3,,,75,127
127024,note_off,4,0,0,,5,,,41,127
127024,note_off,0,0,0,,5,,,53,127
127081,note_off,57,0,0,,3,,,75,127
127083,note_on,2,0,0,,1,,,73,127
127144,note_off,61,0,0,,1,,,73,127
127146,note_on,2,0,0,,3,,,75,127
127207,note_off,61,0,0,,3,,,75,127
127209,note_on,2,0,0,,1,,,73,127
127209,note_on,0,0,0,,11,,,70,127
127301,note_off,92,0,0,,11,,,70,127
127303,note_on,2,0,0,,8,,,68,127
127395,note_off,92,0,0,,8,,,68,127
127397,note_on,2,0,0,,7,,,67,127
127489,note_off,92,0,0,,7,,,67,127
127491,note_on,2,0,0,,5,,,65,127
127583,note_off,92,0,0,,5,,,65,127
127583,note_off,0,0,0,,1,,,73,127
127585,note_on,2,0,0,,0,,,72,127
127585,note_on,0,0,0,,4,,,64,127
127772,note_off,187,0,0,,0,,,72,127
127774,note_on,2,0,0,,7,,,79,127
127961,note_off,187,0,0,,7,,,79,127
127961,note_off,0,0,0,,4,,,64,127
127963,note_on,2,0,0,,4,,,76,127
127963,note_on,0,0,0,,0,,,60,127
128150,note_off,187,0,0,,4,,,76,127
128152,note_on,2,0,0,,3,,,75,127
128213,note_off,61,0,0,,3,,,75,127
128215,note_on,2,0,0,,1,,,73,127
128239,note_off,24,0,0,,0,,,60,127
128276,note_off,37,0,0,,1,,,73,127
128278,note_on,2,0,0,,3,,,75,127
128339,note_off,61,0,0,,3,,,75,127
128341,note_on,2,0,0,,1,,,73,127
128341,note_on,0,0,0,,11,,,70,127
128433,note_off,92,0,0,,11,,,70,127
128435,note_on,2,0,0,,8,,,68,127
128527,note_off,92,0,0,,8,,,68,127
128529,note_on,2,0,0,,7,,,67,127
128621,note_off,92,0,0,,7,,,67,127
128623,note_on,2,0,0,,5,,,65,127
128715,note_off,92,0,0,,5,,,65,127
128715,note_off,0,0,0,,1,,,73,127
128717,note_on,2,0,0,,0,,,72,127
128717,note_on,0,0,0,,4,,,64,127
128904,note_off,187,0,0,,4,,,64,127
128904,note_off,0,0,0,,0,,,72,127
128906,note_on,2,0,0,,11,,,82,127
128906,note_on,0,0,0,,0,,,60,127
129093,note_off,187,0,0,,0,,,60,127
129093,note_off,0,0,0,,11,,,82,127
129095,note_on,2,0,0,,8,,,80,127
129095,note_on,0,0,0,,5,,,65,127
129282,note_off,187,0,0,,5,,,65,127
129282,note_off,0,0,0,,8,,,80,127
129284,note_on,2,0,0,,7,,,79,127
129284,note_on,0,0,0,,11,,,70,127
129284,note_on,0,0,0,,11,,,58,127
129471,note_off,187,0,0,,11,,,58,127
129471,note_off,0,0,0,,11,,,70,127
129471,note_off,0,0,0,,7,,,79,127
129473,note_on,2,0,0,,5,,,77,127
129473,note_on,0,0,0,,8,,,68,127
129473,note_on,0,0,0,,0,,,60,127
129660,note_off,187,0,0,,0,,,60,127
129660,note_off,0,0,0,,8,,,68,127
129660,note_off,0,0,0,,5,,,77,127
129662,note_on,2,0,0,,4,,,76,127
129662,note_on,0,0,0,,7,,,67,127
129662,note_on,0,0,0,,11,,,58,127
129849,note_off,187,0,0,,11,,,58,127
129849,note_off,0,0,0,,7,,,67,127
129849,note_off,0,0,0,,4,,,76,127
129851,note_on,2,0,0,,5,,,77,127
129851,note_on,0,0,0,,5,,,65,127
129851,note_on,0,0,0,,8,,,56,127
130038,note_off,187,0,0,,8,,,56,127
130038,note_off,0,0,0,,5,,,65,127
130038,note_off,0,0,0,,5,,,77,127
130040,note_on,2,0,0,,11,,,82,127
130040,note_on,0,0,0,,7,,,55,127
130040,note_on,0,0,0,,1,,,73,127
130227,note_off,187,0,0,,1,,,73,127
130227,note_off,0,0,0,,7,,,55,127
130227,note_off,0,0,0,,11,,,82,127
130229,note_on,2,0,0,,8,,,80,127
130229,note_on,0,0,0,,0,,,72,127
130229,note_on,0,0,0,,5,,,53,127
130416,note_off,187,0,0,,5,,,53,127
130416,note_off,0,0,0,,0,,,72,127
130416,note_off,0,0,0,,8,,,80,127
130418,note_on,2,0,0,,7,,,79,127
130418,note_on,0,0,0,,11,,,58,127
130418,note_on,0,0,0,,11,,,70,127
130605,note_off,187,0,0,,11,,,70,127
130605,note_off,0,0,0,,11,,,58,127
130605,note_off,0,0,0,,7,,,79,127
130607,note_on,2,0,0,,5,,,77,127
130607,note_on,0,0,0,,0,,,60,127
130607,note_on,0,0,0,,8,,,68,127
130794,note_off,187,0,0,,8,,,68,127
130794,note_off,0,0,0,,0,,,60,127
130794,note_off,0,0,0,,5,,,77,127
130796,note_on,2,0,0,,4,,,76,127
130796,note_on,0,0,0,,7,,,67,127
130796,note_on,0,0,0,,11,,,58,127
130983,note_off,187,0,0,,11,,,58,127
130983,note_off,0,0,0,,7,,,67,127
130983,note_off,0,0,0,,4,,,76,127
130985,note_on,2,0,0,,5,,,77,127
130985,note_on,0,0,0,,8,,,56,127
130985,note_on,0,0,0,,8,,,68,127
131172,note_off,187,0,0,,8,,,68,127
131172,note_off,0,0,0,,8,,,56,127
131172,note_off,0,0,0,,5,,,77,127
131174,note_on,2,0,0,,11,,,82,127
131174,note_on,0,0,0,,7,,,55,127
131174,note_on,0,0,0,,1,,,73,127
131361,note_off,187,0,0,,1,,,73,127
131361,note_off,0,0,0,,7,,,55,127
131361,note_off,0,0,0,,11,,,82,127
131363,note_on,2,0,0,,8,,,80,127
131363,note_on,0,0,0,,5,,,53,127
131363,note_on,0,0,0,,0,,,72,127
131550,note_off,187,0,0,,0,,,72,127
131550,note_off,0,0,0,,5,,,53,127
131550,note_off,0,0,0,,8,,,80,127
131552,note_on,2,0,0,,7,,,79,127
131552,note_on,0,0,0,,11,,,70,127
131552,note_on,0,0,0,,11,,,58,127
131739,note_off,187,0,0,,11,,,58,127
131739,note_off,0,0,0,,11,,,70,127
131739,note_off,0,0,0,,7,,,79,127
131741,note_on,2,0,0,,5,,,77,127
131741,note_on,0,0,0,,0,,,60,127
131741,note_on,0,0,0,,8,,,68,127
131928,note_off,187,0,0,,8,,,68,127
131928,note_off,0,0,0,,0,,,60,127
131928,note_off,0,0,0,,5,,,77,127
131930,note_on,2,0,0,,4,,,76,127
131930,note_on,0,0,0,,0,,,48,127
131930,note_on,0,0,0,,7,,,67,127
132107,note_off,177,0,0,,4,,,76,127
132117,note_off,10,0,0,,7,,,67,127
132117,note_off,0,0,0,,0,,,48,127
132159,note_on,42,0,0,,5,,,53,127
132513,note_on,354,0,0,,5,,,77,127
132688,note_off,175,0,0,,5,,,77,127
132688,note_off,0,0,0,,5,,,53,127
132690,note_on,2,0,0,,5,,,77,127
132690,note_on,0,0,0,,10,,,57,127
132865,note_off,175,0,0,,5,,,77,127
132867,note_on,2,0,0,,7,,,79,127
133042,note_off,175,0,0,,7,,,79,127
133044,note_on,2,0,0,,10,,,81,127
133219,note_off,175,0,0,,10,,,81,127
133219,note_off,0,0,0,,10,,,57,127
133221,note_on,2,0,0,,2,,,74,127
133221,note_on,0,0,0,,11,,,58,127
133396,note_off,175,0,0,,2,,,74,127
133398,note_on,2,0,0,,11,,,82,127
133573,note_off,175,0,0,,11,,,82,127
133575,note_on,2,0,0,,10,,,81,127
133737,note_off,162,0,0,,11,,,58,127
133750,note_off,13,0,0,,10,,,81,127
133752,note_on,2,0,0,,7,,,79,127
133752,note_on,0,0,0,,0,,,60,127
133927,note_off,175,0,0,,7,,,79,127
133929,note_on,2,0,0,,5,,,77,127
134104,note_off,175,0,0,,5,,,77,127
134106,note_on,2,0,0,,4,,,76,127
134232,note_off,126,0,0,,0,,,60,127
134282,note_off,50,0,0,,4,,,76,127
134284,note_on,2,0,0,,5,,,77,127
134638,note_on,354,0,0,,5,,,65,127
134813,note_off,175,0,0,,5,,,65,127
134815,note_on,2,0,0,,5,,,65,127
134990,note_off,175,0,0,,5,,,65,127
134992,note_on,2,0,0,,7,,,67,127
135167,note_off,175,0,0,,7,,,67,127
135169,note_off,2,0,0,,5,,,77,127
135169,note_on,0,0,0,,10,,,69,127
135344,note_off,175,0,0,,10,,,69,127
135346,note_on,2,0,0,,2,,,62,127
135523,note_on,177,0,0,,11,,,70,127
135586,note_off,63,0,0,,2,,,62,127
135699,note_off,113,0,0,,11,,,70,127
135701,note_on,2,0,0,,10,,,69,127
135876,note_off,175,0,0,,10,,,69,127
135878,note_on,2,0,0,,11,,,82,127
135878,note_on,0,0,0,,7,,,79,127
135878,note_on,0,0,0,,7,,,67,127
135878,note_on,0,0,0,,0,,,72,127
136053,note_off,175,0,0,,7,,,67,127
136055,note_on,2,0,0,,5,,,65,127
136230,note_off,175,0,0,,5,,,65,127
136232,note_on,2,0,0,,4,,,64,127
136407,note_off,175,0,0,,4,,,64,127
136407,note_off,0,0,0,,7,,,79,127
136407,note_off,0,0,0,,11,,,82,127
136408,note_off,1,0,0,,0,,,72,127
136409,note_on,1,0,0,,5,,,77,127
136409,note_on,0,0,0,,10,,,81,127
136409,note_on,0,0,0,,5,,,65,127
136762,note_off,353,0,0,,10,,,81,127
136762,note_off,0,0,0,,5,,,77,127
136764,note_on,2,0,0,,0,,,84,127
136939,note_off,175,0,0,,0,,,84,127
136939,note_off,0,0,0,,5,,,65,127
136941,note_on,2,0,0,,0,,,72,127
136941,note_on,0,0,0,,0,,,84,127
136941,note_on,0,0,0,,10,,,57,127
137116,note_off,175,0,0,,10,,,57,127
137118,note_on,2,0,0,,5,,,53,127
137293,note_off,175,0,0,,5,,,53,127
137293,note_off,0,0,0,,0,,,84,127
137293,note_off,0,0,0,,0,,,72,127
137295,note_on,2,0,0,,0,,,84,127
137295,note_on,0,0,0,,4,,,76,127
137295,note_on,0,0,0,,10,,,57,127
137470,note_off,175,0,0,,10,,,57,127
137470,note_off,0,0,0,,4,,,76,127
137470,note_off,0,0,0,,0,,,84,127
137472,note_on,2,0,0,,0,,,84,127
137472,note_on,0,0,0,,2,,,74,127
137472,note_on,0,0,0,,11,,,58,127
137647,note_off,175,0,0,,11,,,58,127
137649,note_on,2,0,0,,7,,,55,127
137824,note_off,175,0,0,,7,,,55,127
137824,note_off,0,0,0,,2,,,74,127
137824,note_off,0,0,0,,0,,,84,127
137826,note_on,2,0,0,,5,,,77,127
137826,note_on,0,0,0,,0,,,84,127
137826,note_on,0,0,0,,11,,,58,127
138001,note_off,175,0,0,,11,,,58,127
138001,note_off,0,0,0,,0,,,84,127
138001,note_off,0,0,0,,5,,,77,127
138003,note_on,2,0,0,,4,,,76,127
138003,note_on,0,0,0,,0,,,84,127
138003,note_on,0,0,0,,0,,,60,127
138178,note_off,175,0,0,,0,,,60,127
138180,note_on,2,0,0,,10,,,57,127
138355,note_off,175,0,0,,10,,,57,127
138355,note_off,0,0,0,,0,,,84,127
138355,note_off,0,0,0,,4,,,76,127
138357,note_on,2,0,0,,7,,,79,127
138357,note_on,0,0,0,,0,,,84,127
138357,note_on,0,0,0,,0,,,60,127
138532,note_off,175,0,0,,0,,,60,127
138532,note_off,0,0,0,,0,,,84,127
138532,note_off,0,0,0,,7,,,79,127
138534,note_on,2,0,0,,0,,,84,127
138534,note_on,0,0,0,,5,,,77,127
138534,note_on,0,0,0,,2,,,62,127
138709,note_off,175,0,0,,2,,,62,127
138711,note_on,2,0,0,,11,,,58,127
138886,note_off,175,0,0,,11,,,58,127
138886,note_off,0,0,0,,5,,,77,127
138886,note_off,0,0,0,,0,,,84,127
138888,note_on,2,0,0,,0,,,84,127
138888,note_on,0,0,0,,10,,,81,127
138888,note_on,0,0,0,,2,,,62,127
139063,note_off,175,0,0,,2,,,62,127
139063,note_off,0,0,0,,10,,,81,127
139063,note_off,0,0,0,,0,,,84,127
139065,note_on,2,0,0,,7,,,79,127
139065,note_on,0,0,0,,0,,,84,127
139065,note_on,0,0,0,,4,,,64,127
139240,note_off,175,0,0,,4,,,64,127
139242,note_on,2,0,0,,0,,,60,127
139417,note_off,175,0,0,,0,,,60,127
139417,note_off,0,0,0,,0,,,84,127
139417,note_off,0,0,0,,7,,,79,127
139419,note_on,2,0,0,,0,,,84,127
139419,note_on,0,0,0,,11,,,82,127
139419,note_on,0,0,0,,4,,,64,127
139594,note_off,175,0,0,,4,,,64,127
139594,note_off,0,0,0,,11,,,82,127
139594,note_off,0,0,0,,0,,,84,127
139596,note_on,2,0,0,,10,,,81,127
139596,note_on,0,0,0,,5,,,65,127
139771,note_off,175,0,0,,10,,,81,127
139773,note_on,2,0,0,,11,,,82,127
139948,note_off,175,0,0,,11,,,82,127
139948,note_off,0,0,0,,5,,,65,127
139950,note_on,2,0,0,,0,,,84,127
139950,note_on,0,0,0,,7,,,67,127
140125,note_off,175,0,0,,7,,,67,127
140125,note_off,0,0,0,,0,,,84,127
140127,note_on,2,0,0,,0,,,84,127
140127,note_on,0,0,0,,10,,,69,127
140127,note_on,0,0,0,,2,,,86,127
140302,note_off,175,0,0,,2,,,86,127
140302,note_off,0,0,0,,0,,,84,127
140304,note_on,2,0,0,,11,,,82,127
140479,note_off,175,0,0,,11,,,82,127
140479,note_off,0,0,0,,10,,,69,127
140481,note_on,2,0,0,,10,,,81,127
140481,note_on,0,0,0,,11,,,70,127
140656,note_off,175,0,0,,11,,,70,127
140656,note_off,0,0,0,,10,,,81,127
140658,note_on,2,0,0,,10,,,81,127
140658,note_on,0,0,0,,0,,,72,127
140717,note_off,59,0,0,,10,,,81,127
140719,note_on,2,0,0,,7,,,79,127
140778,note_off,59,0,0,,7,,,79,127
140780,note_on,2,0,0,,10,,,81,127
140839,note_off,59,0,0,,10,,,81,127
140841,note_on,2,0,0,,7,,,79,127
141011,note_off,170,0,0,,7,,,79,127
141013,note_on,2,0,0,,0,,,84,127
141188,note_off,175,0,0,,0,,,84,127
141188,note_off,0,0,0,,0,,,72,127
141190,note_on,2,0,0,,4,,,76,127
141190,note_on,0,0,0,,0,,,60,127
141367,note_on,177,0,0,,0,,,72,127
141541,note_off,174,0,0,,4,,,76,127
141543,note_off,2,0,0,,0,,,72,127
141543,note_off,0,0,0,,0,,,60,127
141545,note_on,2,0,0,,4,,,76,127
141545,note_on,0,0,0,,0,,,72,127
141720,note_off,175,0,0,,0,,,72,127
141720,note_off,0,0,0,,4,,,76,127
141722,note_on,2,0,0,,5,,,77,127
141722,note_on,0,0,0,,2,,,62,127
141899,note_on,177,0,0,,2,,,74,127
142073,note_off,174,0,0,,5,,,77,127
142075,note_off,2,0,0,,2,,,74,127
142075,note_off,0,0,0,,2,,,62,127
142077,note_on,2,0,0,,5,,,77,127
142077,note_on,0,0,0,,0,,,72,127
142252,note_off,175,0,0,,0,,,72,127
142252,note_off,0,0,0,,5,,,77,127
142254,note_on,2,0,0,,7,,,79,127
142254,note_on,0,0,0,,4,,,64,127
142431,note_on,177,0,0,,4,,,76,127
142605,note_off,174,0,0,,7,,,79,127
142607,note_off,2,0,0,,4,,,76,127
142607,note_off,0,0,0,,4,,,64,127
142609,note_on,2,0,0,,7,,,79,127
142609,note_on,0,0,0,,0,,,72,127
142784,note_off,175,0,0,,0,,,72,127
142784,note_off,0,0,0,,7,,,79,127
142786,note_on,2,0,0,,10,,,81,127
142786,note_on,0,0,0,,5,,,65,127
142963,note_on,177,0,0,,5,,,77,127
143137,note_off,174,0,0,,10,,,81,127
143139,note_off,2,0,0,,5,,,77,127
143139,note_off,0,0,0,,5,,,65,127
143141,note_on,2,0,0,,10,,,81,127
143141,note_on,0,0,0,,0,,,72,127
143316,note_off,175,0,0,,0,,,72,127
143316,note_off,0,0,0,,10,,,81,127
143318,note_on,2,0,0,,11,,,82,127
143318,note_on,0,0,0,,7,,,67,127
143495,note_on,177,0,0,,7,,,79,127
143576,note_off,81,0,0,,11,,,82,127
143670,note_off,94,0,0,,7,,,79,127
143670,note_off,0,0,0,,7,,,67,127
143672,note_on,2,0,0,,11,,,82,127
143672,note_on,0,0,0,,0,,,72,127
143847,note_off,175,0,0,,0,,,72,127
143847,note_off,0,0,0,,11,,,82,127
143849,note_on,2,0,0,,0,,,84,127
143849,note_on,0,0,0,,10,,,69,127
144024,note_off,175,0,0,,0,,,84,127
144026,note_on,2,0,0,,11,,,82,127
144201,note_off,175,0,0,,11,,,82,127
144203,note_on,2,0,0,,10,,,81,127
144361,note_off,158,0,0,,10,,,69,127
144379,note_off,18,0,0,,10,,,81,127
144381,note_on,2,0,0,,7,,,79,127
144381,note_on,0,0,0,,11,,,70,127
144556,note_off,175,0,0,,7,,,79,127
144558,note_on,2,0,0,,10,,,81,127
144733,note_off,175,0,0,,10,,,81,127
144735,note_on,2,0,0,,5,,,77,127
144893,note_off,158,0,0,,11,,,70,127
144911,note_off,18,0,0,,5,,,77,127
144913,note_on,2,0,0,,4,,,76,127
144913,note_on,0,0,0,,0,,,72,127
145002,note_on,89,0,0,,5,,,77,127
145089,note_off,87,0,0,,5,,,77,127
145091,note_on,2,0,0,,7,,,79,127
145265,note_off,174,0,0,,4,,,76,127
145267,note_off,2,0,0,,7,,,79,127
145269,note_on,2,0,0,,0,,,84,127
145444,note_off,175,0,0,,0,,,84,127
145444,note_off,0,0,0,,0,,,72,127
145446,note_on,2,0,0,,0,,,72,127
145446,note_on,0,0,0,,0,,,84,127
145446,note_on,0,0,0,,10,,,57,127
145446,note_on,0,0,0,,10,,,45,127
145621,note_off,175,0,0,,10,,,57,127
145623,note_on,2,0,0,,5,,,53,127
145797,note_off,174,0,0,,10,,,45,127
145799,note_off,2,0,0,,5,,,53,127
145799,note_off,0,0,0,,0,,,84,127
145799,note_off,0,0,0,,0,,,72,127
145801,note_on,2,0,0,,4,,,76,127
145801,note_on,0,0,0,,0,,,84,127
145801,note_on,0,0,0,,10,,,57,127
145976,note_off,175,0,0,,10,,,57,127
145976,note_off,0,0,0,,0,,,84,127
145976,note_off,0,0,0,,4,,,76,127
145978,note_on,2,0,0,,0,,,84,127
145978,note_on,0,0,0,,2,,,74,127
145978,note_on,0,0,0,,11,,,58,127
145978,note_on,0,0,0,,11,,,46,127
146153,note_off,175,0,0,,11,,,58,127
146155,note_on,2,0,0,,7,,,55,127
146329,note_off,174,0,0,,11,,,46,127
146331,note_off,2,0,0,,7,,,55,127
146331,note_off,0,0,0,,2,,,74,127
146331,note_off,0,0,0,,0,,,84,127
146333,note_on,2,0,0,,0,,,84,127
146333,note_on,0,0,0,,5,,,77,127
146333,note_on,0,0,0,,11,,,58,127
146508,note_off,175,0,0,,11,,,58,127
146508,note_off,0,0,0,,5,,,77,127
146508,note_off,0,0,0,,0,,,84,127
146510,note_on,2,0,0,,4,,,76,127
146510,note_on,0,0,0,,0,,,84,127
146510,note_on,0,0,0,,0,,,48,127
146510,note_on,0,0,0,,0,,,60,127
146685,note_off,175,0,0,,0,,,60,127
146687,note_on,2,0,0,,10,,,57,127
146861,note_off,174,0,0,,0,,,48,127
146863,note_off,2,0,0,,10,,,57,127
146863,note_off,0,0,0,,0,,,84,127
146863,note_off,0,0,0,,4,,,76,127
146865,note_on,2,0,0,,7,,,79,127
146865,note_on,0,0,0,,0,,,84,127
146865,note_on,0,0,0,,0,,,60,127
147040,note_off,175,0,0,,0,,,60,127
147040,note_off,0,0,0,,0,,,84,127
147040,note_off,0,0,0,,7,,,79,127
147042,note_on,2,0,0,,5,,,77,127
147042,note_on,0,0,0,,0,,,84,127
147042,note_on,0,0,0,,2,,,50,127
147042,note_on,0,0,0,,2,,,62,127
147217,note_off,175,0,0,,2,,,62,127
147219,note_on,2,0,0,,11,,,58,127
147393,note_off,174,0,0,,2,,,50,127
147395,note_off,2,0,0,,11,,,58,127
147395,note_off,0,0,0,,0,,,84,127
147395,note_off,0,0,0,,5,,,77,127
147397,note_on,2,0,0,,10,,,81,127
147397,note_on,0,0,0,,0,,,84,127
147397,note_on,0,0,0,,2,,,62,127
147572,note_off,175,0,0,,2,,,62,127
147572,note_off,0,0,0,,0,,,84,127
147572,note_off,0,0,0,,10,,,81,127
147574,note_on,2,0,0,,7,,,79,127
147574,note_on,0,0,0,,0,,,84,127
147574,note_on,0,0,0,,4,,,52,127
147574,note_on,0,0,0,,4,,,64,127
147749,note_off,175,0,0,,4,,,64,127
147751,note_on,2,0,0,,0,,,60,127
147832,note_off,81,0,0,,4,,,52,127
147926,note_off,94,0,0,,0,,,60,127
147926,note_off,0,0,0,,0,,,84,127
147926,note_off,0,0,0,,7,,,79,127
147928,note_on,2,0,0,,11,,,82,127
147928,note_on,0,0,0,,0,,,84,127
147928,note_on,0,0,0,,4,,,64,127
148103,note_off,175,0,0,,4,,,64,127
148103,note_off,0,0,0,,0,,,84,127
148103,note_off,0,0,0,,11,,,82,127
148105,note_on,2,0,0,,10,,,81,127
148105,note_on,0,0,0,,5,,,77,127
148105,note_on,0,0,0,,5,,,53,127
148105,note_on,0,0,0,,5,,,65,127
148280,note_off,175,0,0,,5,,,77,127
148280,note_off,0,0,0,,10,,,81,127
148282,note_on,2,0,0,,11,,,82,127
148282,note_on,0,0,0,,7,,,79,127
148457,note_off,175,0,0,,7,,,79,127
148457,note_off,0,0,0,,11,,,82,127
148457,note_off,0,0,0,,5,,,65,127
148457,note_off,0,0,0,,5,,,53,127
148459,note_on,2,0,0,,10,,,81,127
148459,note_on,0,0,0,,0,,,84,127
148459,note_on,0,0,0,,11,,,58,127
148634,note_off,175,0,0,,11,,,58,127
148634,note_off,0,0,0,,0,,,84,127
148634,note_off,0,0,0,,10,,,81,127
148636,note_on,2,0,0,,7,,,79,127
148636,note_on,0,0,0,,11,,,82,127
148636,note_on,0,0,0,,0,,,60,127
148811,note_off,175,0,0,,11,,,82,127
148811,note_off,0,0,0,,7,,,79,127
148813,note_on,2,0,0,,5,,,77,127
148813,note_on,0,0,0,,10,,,81,127
148988,note_off,175,0,0,,10,,,81,127
148988,note_off,0,0,0,,5,,,77,127
148988,note_off,0,0,0,,0,,,60,127
148990,note_on,2,0,0,,4,,,76,127
148990,note_on,0,0,0,,7,,,79,127
148990,note_on,0,0,0,,0,,,48,127
149165,note_off,175,0,0,,0,,,48,127
149165,note_off,0,0,0,,7,,,79,127
149165,note_off,0,0,0,,4,,,76,127
149167,note_on,2,0,0,,5,,,77,127
149167,note_on,0,0,0,,5,,,53,127
149520,note_off,353,0,0,,5,,,77,127
149522,note_on,2,0,0,,0,,,84,127
149697,note_off,175,0,0,,0,,,84,127
149697,note_off,0,0,0,,5,,,53,127
149699,note_on,2,0,0,,0,,,72,127
149699,note_on,0,0,0,,0,,,84,127
149699,note_on,0,0,0,,10,,,45,127
149699,note_on,0,0,0,,10,,,57,127
149876,note_on,177,0,0,,5,,,53,127
149902,note_off,26,0,0,,10,,,45,127
150050,note_off,148,0,0,,10,,,57,127
150052,note_off,2,0,0,,5,,,53,127
150052,note_off,0,0,0,,0,,,84,127
150052,note_off,0,0,0,,0,,,72,127
150054,note_on,2,0,0,,0,,,84,127
150054,note_on,0,0,0,,4,,,76,127
150054,note_on,0,0,0,,10,,,57,127
150229,note_off,175,0,0,,10,,,57,127
150229,note_off,0,0,0,,4,,,76,127
150229,note_off,0,0,0,,0,,,84,127
150231,note_on,2,0,0,,0,,,84,127
150231,note_on,0,0,0,,2,,,74,127
150231,note_on,0,0,0,,11,,,58,127
150231,note_on,0,0,0,,11,,,46,127
150408,note_on,177,0,0,,7,,,55,127
150434,note_off,26,0,0,,11,,,46,127
150582,note_off,148,0,0,,11,,,58,127
150584,note_off,2,0,0,,7,,,55,127
150584,note_off,0,0,0,,2,,,74,127
150584,note_off,0,0,0,,0,,,84,127
150586,note_on,2,0,0,,0,,,84,127
150586,note_on,0,0,0,,5,,,77,127
150586,note_on,0,0,0,,11,,,58,127
150761,note_off,175,0,0,,11,,,58,127
150761,note_off,0,0,0,,5,,,77,127
150761,note_off,0,0,0,,0,,,84,127
150763,note_on,2,0,0,,4,,,76,127
150763,note_on,0,0,0,,0,,,84,127
150763,note_on,0,0,0,,0,,,60,127
150763,note_on,0,0,0,,0,,,48,127
150940,note_on,177,0,0,,10,,,57,127
150966,note_off,26,0,0,,0,,,48,127
151114,note_off,148,0,0,,0,,,60,127
151116,note_off,2,0,0,,10,,,57,127
151116,note_off,0,0,0,,0,,,84,127
151116,note_off,0,0,0,,4,,,76,127
151118,note_on,2,0,0,,7,,,79,127
151118,note_on,0,0,0,,0,,,84,127
151118,note_on,0,0,0,,0,,,60,127
151293,note_off,175,0,0,,0,,,60,127
151293,note_off,0,0,0,,0,,,84,127
151293,note_off,0,0,0,,7,,,79,127
151295,note_on,2,0,0,,5,,,77,127
151295,note_on,0,0,0,,0,,,84,127
151295,note_on,0,0,0,,2,,,62,127
151295,note_on,0,0,0,,2,,,50,127
151472,note_on,177,0,0,,11,,,58,127
151489,note_off,17,0,0,,2,,,50,127
151646,note_off,157,0,0,,2,,,62,127
151648,note_off,2,0,0,,11,,,58,127
151648,note_off,0,0,0,,0,,,84,127
151648,note_off,0,0,0,,5,,,77,127
151650,note_on,2,0,0,,10,,,81,127
151650,note_on,0,0,0,,0,,,84,127
151650,note_on,0,0,0,,2,,,62,127
151825,note_off,175,0,0,,2,,,62,127
151825,note_off,0,0,0,,0,,,84,127
151825,note_off,0,0,0,,10,,,81,127
151827,note_on,2,0,0,,7,,,79,127
151827,note_on,0,0,0,,0,,,84,127
151827,note_on,0,0,0,,4,,,64,127
151827,note_on,0,0,0,,4,,,52,127
152004,note_on,177,0,0,,0,,,60,127
152011,note_off,7,0,0,,4,,,52,127
152177,note_off,166,0,0,,4,,,64,127
152179,note_off,2,0,0,,0,,,84,127
152179,note_off,0,0,0,,7,,,79,127
152181,note_on,2,0,0,,11,,,82,127
152181,note_on,0,0,0,,0,,,84,127
152181,note_on,0,0,0,,4,,,64,127
152355,note_off,174,0,0,,0,,,60,127
152357,note_off,2,0,0,,4,,,64,127
152357,note_off,0,0,0,,0,,,84,127
152357,note_off,0,0,0,,11,,,82,127
152359,note_on,2,0,0,,10,,,81,127
152359,note_on,0,0,0,,5,,,77,127
152359,note_on,0,0,0,,5,,,65,127
152359,note_on,0,0,0,,5,,,53,127
152534,note_off,175,0,0,,5,,,77,127
152534,note_off,0,0,0,,10,,,81,127
152536,note_on,2,0,0,,7,,,79,127
152536,note_on,0,0,0,,11,,,82,127
152711,note_off,175,0,0,,11,,,82,127
152711,note_off,0,0,0,,7,,,79,127
152711,note_off,0,0,0,,5,,,53,127
152711,note_off,0,0,0,,5,,,65,127
152713,note_on,2,0,0,,0,,,84,127
152713,note_on,0,0,0,,10,,,81,127
152713,note_on,0,0,0,,11,,,58,127
152888,note_off,175,0,0,,11,,,58,127
152888,note_off,0,0,0,,10,,,81,127
152888,note_off,0,0,0,,0,,,84,127
152890,note_on,2,0,0,,0,,,84,127
152890,note_on,0,0,0,,7,,,79,127
152890,note_on,0,0,0,,11,,,82,127
152890,note_on,0,0,0,,0,,,60,127
153065,note_off,175,0,0,,11,,,82,127
153065,note_off,0,0,0,,7,,,79,127
153065,note_off,0,0,0,,0,,,84,127
153067,note_on,2,0,0,,10,,,81,127
153067,note_on,0,0,0,,5,,,77,127
153242,note_off,175,0,0,,5,,,77,127
153242,note_off,0,0,0,,10,,,81,127
153242,note_off,0,0,0,,0,,,60,127
153244,note_on,2,0,0,,4,,,76,127
153244,note_on,0,0,0,,7,,,79,127
153244,note_on,0,0,0,,0,,,48,127
153419,note_off,175,0,0,,0,,,48,127
153419,note_off,0,0,0,,7,,,79,127
153419,note_off,0,0,0,,4,,,76,127
153421,note_on,2,0,0,,5,,,77,127
153421,note_on,0,0,0,,5,,,53,127
153421,note_on,0,0,0,,5,,,41,127
153596,note_off,175,0,0,,5,,,77,127
153598,note_on,2,0,0,,0,,,84,127
153773,note_off,175,0,0,,0,,,84,127
153775,note_on,2,0,0,,10,,,81,127
153950,note_off,175,0,0,,10,,,81,127
153952,note_on,2,0,0,,5,,,77,127
154127,note_off,175,0,0,,5,,,77,127
154129,note_on,2,0,0,,0,,,72,127
154304,note_off,175,0,0,,0,,,72,127
154306,note_on,2,0,0,,10,,,69,127
154481,note_off,175,0,0,,10,,,69,127
154481,note_off,0,0,0,,5,,,41,127
154481,note_off,0,0,0,,5,,,53,127
154483,note_on,2,0,0,,5,,,65,127
154483,note_on,0,0,0,,5,,,53,127
154836,note_off,353,0,0,,5,,,53,127
154836,note_off,0,0,0,,5,,,65,127
154838,note_on,2,0,0,,5,,,77,127
154838,note_on,0,0,0,,5,,,53,127
155013,note_off,175,0,0,,5,,,53,127
155013,note_off,0,0,0,,5,,,77,127
155015,note_on,2,0,0,,10,,,81,127
155015,note_on,0,0,0,,0,,,60,127
155070,note_off,55,0,0,,10,,,81,127
155072,note_on,2,0,0,,7,,,79,127
155127,note_off,55,0,0,,7,,,79,127
155129,note_on,2,0,0,,10,,,81,127
155184,note_off,55,0,0,,10,,,81,127
155186,note_on,2,0,0,,7,,,79,127
155241,note_off,55,0,0,,7,,,79,127
155243,note_on,2,0,0,,10,,,81,127
155298,note_off,55,0,0,,10,,,81,127
155300,note_on,2,0,0,,7,,,79,127
155355,note_off,55,0,0,,7,,,79,127
155357,note_on,2,0,0,,10,,,81,127
155366,note_off,9,0,0,,0,,,60,127
155368,note_on,2,0,0,,0,,,48,127
155402,note_off,34,0,0,,10,,,81,127
155404,note_on,2,0,0,,7,,,79,127
155449,note_off,45,0,0,,7,,,79,127
155451,note_on,2,0,0,,5,,,77,127
155496,note_off,45,0,0,,5,,,77,127
155498,note_on,2,0,0,,7,,,79,127
155543,note_off,45,0,0,,7,,,79,127
155543,note_off,0,0,0,,0,,,48,127
155545,note_on,2,0,0,,5,,,77,127
155545,note_on,0,0,0,,5,,,53,127
155545,note_on,0,0,0,,5,,,41,127
155720,note_off,175,0,0,,5,,,77,127
155722,note_on,2,0,0,,0,,,84,127
155897,note_off,175,0,0,,0,,,84,127
155899,note_on,2,0,0,,10,,,81,127
156074,note_off,175,0,0,,10,,,81,127
156076,note_on,2,0,0,,5,,,77,127
156251,note_off,175,0,0,,5,,,77,127
156253,note_on,2,0,0,,0,,,72,127
156428,note_off,175,0,0,,0,,,72,127
156430,note_on,2,0,0,,10,,,69,127
156605,note_off,175,0,0,,10,,,69,127
156605,note_off,0,0,0,,5,,,41,127
156605,note_off,0,0,0,,5,,,53,127
156607,note_on,2,0,0,,5,,,65,127
156607,note_on,0,0,0,,5,,,53,127
156960,note_off,353,0,0,,5,,,53,127
156960,note_off,0,0,0,,5,,,65,127
156962,note_on,2,0,0,,5,,,77,127
156962,note_on,0,0,0,,5,,,53,127
157137,note_off,175,0,0,,5,,,53,127
157137,note_off,0,0,0,,5,,,77,127
157139,note_on,2,0,0,,10,,,81,127
157139,note_on,0,0,0,,0,,,60,127
157196,note_off,57,0,0,,10,,,81,127
157198,note_on,2,0,0,,7,,,79,127
157255,note_off,57,0,0,,7,,,79,127
157257,note_on,2,0,0,,10,,,81,127
157314,note_off,57,0,0,,10,,,81,127
157316,note_on,2,0,0,,7,,,79,127
157373,note_off,57,0,0,,7,,,79,127
157375,note_on,2,0,0,,10,,,81,127
157432,note_off,57,0,0,,10,,,81,127
157434,note_on,2,0,0,,7,,,79,127
157491,note_off,57,0,0,,0,,,60,127
157493,note_on,2,0,0,,0,,,48,127
157637,note_off,144,0,0,,7,,,79,127
157668,note_off,31,0,0,,0,,,48,127
157670,note_on,2,0,0,,5,,,77,127
157670,note_on,0,0,0,,5,,,41,127
157818,note_off,148,0,0,,5,,,41,127
157827,note_off,9,0,0,,5,,,77,127
157847,note_on,20,0,0,,10,,,81,127
157847,note_on,0,0,0,,0,,,48,127
157889,note_off,42,0,0,,10,,,81,127
157891,note_on,2,0,0,,7,,,79,127
157933,note_off,42,0,0,,7,,,79,127
157935,note_on,2,0,0,,10,,,81,127
157977,note_off,42,0,0,,10,,,81,127
157979,note_on,2,0,0,,7,,,79,127
158199,note_off,220,0,0,,7,,,79,127
158199,note_off,0,0,0,,0,,,48,127
158201,note_on,2,0,0,,5,,,77,127
158201,note_on,0,0,0,,5,,,41,127
158349,note_off,148,0,0,,5,,,41,127
158358,note_off,9,0,0,,5,,,77,127
158378,note_on,20,0,0,,10,,,69,127
158378,note_on,0,0,0,,0,,,48,127
158420,note_off,42,0,0,,10,,,69,127
158422,note_on,2,0,0,,7,,,67,127
158464,note_off,42,0,0,,7,,,67,127
158466,note_on,2,0,0,,10,,,69,127
158508,note_off,42,0,0,,10,,,69,127
158510,note_on,2,0,0,,7,,,67,127
158730,note_off,220,0,0,,7,,,67,127
158730,note_off,0,0,0,,0,,,48,127
158732,note_on,2,0,0,,5,,,65,127
158732,note_on,0,0,0,,5,,,41,127
158880,note_off,148,0,0,,5,,,41,127
158889,note_off,9,0,0,,5,,,65,127
158909,note_on,20,0,0,,10,,,57,127
158909,note_on,0,0,0,,0,,,48,127
158951,note_off,42,0,0,,10,,,57,127
158953,note_on,2,0,0,,7,,,55,127
158995,note_off,42,0,0,,7,,,55,127
158997,note_on,2,0,0,,10,,,57,127
159039,note_off,42,0,0,,10,,,57,127
159041,note_on,2,0,0,,7,,,55,127
159261,note_off,220,0,0,,7,,,55,127
159261,note_off,0,0,0,,0,,,48,127
159263,note_on,2,0,0,,5,,,53,127
159263,note_on,0,0,0,,5,,,41,127
159411,note_off,148,0,0,,5,,,41,127
159420,note_off,9,0,0,,5,,,53,127
159440,note_on,20,0,0,,10,,,81,127
159440,note_on,0,0,0,,0,,,48,127
159482,note_off,42,0,0,,10,,,81,127
159484,note_on,2,0,0,,7,,,79,127
159526,note_off,42,0,0,,7,,,79,127
159528,note_on,2,0,0,,10,,,81,127
159570,note_off,42,0,0,,10,,,81,127
159572,note_on,2,0,0,,7,,,79,127
159792,note_off,220,0,0,,7,,,79,127
159792,note_off,0,0,0,,0,,,48,127
159794,note_on,2,0,0,,5,,,77,127
159794,note_on,0,0,0,,5,,,41,127
159942,note_off,148,0,0,,5,,,41,127
159951,note_off,9,0,0,,5,,,77,127
159971,note_on,20,0,0,,10,,,69,127
159971,note_on,0,0,0,,0,,,48,127
160013,note_off,42,0,0,,10,,,69,127
160015,note_on,2,0,0,,7,,,67,127
160057,note_off,42,0,0,,7,,,67,127
160059,note_on,2,0,0,,10,,,69,127
160101,note_off,42,0,0,,10,,,69,127
160103,note_on,2,0,0,,7,,,67,127
160323,note_off,220,0,0,,7,,,67,127
160323,note_off,0,0,0,,0,,,48,127
160325,note_on,2,0,0,,5,,,65,127
160325,note_on,0,0,0,,5,,,41,127
160473,note_off,148,0,0,,5,,,41,127
160482,note_off,9,0,0,,5,,,65,127
160502,note_on,20,0,0,,10,,,57,127
160502,note_on,0,0,0,,0,,,48,127
160544,note_off,42,0,0,,10,,,57,127
160546,note_on,2,0,0,,7,,,55,127
160588,note_off,42,0,0,,7,,,55,127
160590,note_on,2,0,0,,10,,,57,127
160632,note_off,42,0,0,,10,,,57,127
160634,note_on,2,0,0,,7,,,55,127
160854,note_off,220,0,0,,7,,,55,127
160854,note_off,0,0,0,,0,,,48,127
160856,note_on,2,0,0,,5,,,53,127
160856,note_on,0,0,0,,5,,,41,127
161013,note_off,157,0,0,,5,,,53,127
161033,note_on,20,0,0,,0,,,84,127
161386,note_off,353,0,0,,5,,,41,127
161388,note_on,2,0,0,,10,,,45,127
161563,note_off,175,0,0,,0,,,84,127
161565,note_on,2,0,0,,10,,,81,127
161740,note_off,175,0,0,,10,,,81,127
161742,note_on,2,0,0,,5,,,77,127
161917,note_off,175,0,0,,5,,,77,127
161917,note_off,0,0,0,,10,,,45,127
161919,note_on,2,0,0,,2,,,74,127
161919,note_on,0,0,0,,11,,,46,127
162183,note_off,264,0,0,,2,,,74,127
162185,note_on,2,0,0,,4,,,76,127
162272,note_off,87,0,0,,4,,,76,127
162274,note_on,2,0,0,,5,,,77,127
162361,note_off,87,0,0,,5,,,77,127
162363,note_on,2,0,0,,7,,,79,127
162450,note_off,87,0,0,,7,,,79,127
162450,note_off,0,0,0,,11,,,46,127
162452,note_on,2,0,0,,10,,,81,127
162452,note_on,0,0,0,,0,,,48,127
162504,note_off,52,0,0,,10,,,81,127
162506,note_on,2,0,0,,7,,,79,127
162558,note_off,52,0,0,,7,,,79,127
162560,note_on,2,0,0,,10,,,81,127
162612,note_off,52,0,0,,10,,,81,127
162614,note_on,2,0,0,,7,,,79,127
162666,note_off,52,0,0,,7,,,79,127
162668,note_on,2,0,0,,10,,,81,127
162720,note_off,52,0,0,,10,,,81,127
162722,note_on,2,0,0,,7,,,79,127
162774,note_off,52,0,0,,7,,,79,127
162776,note_on,2,0,0,,10,,,81,127
162828,note_off,52,0,0,,10,,,81,127
162830,note_on,2,0,0,,7,,,79,127
162919,note_off,89,0,0,,7,,,79,127
162985,note_off,66,0,0,,0,,,48,127
162987,note_on,2,0,0,,5,,,77,127
162987,note_on,0,0,0,,5,,,41,127
163144,note_off,157,0,0,,5,,,41,127
163162,note_off,18,0,0,,5,,,77,127
163164,note_on,2,0,0,,10,,,81,127
163164,note_on,0,0,0,,0,,,48,127
163206,note_off,42,0,0,,10,,,81,127
163208,note_on,2,0,0,,7,,,79,127
163250,note_off,42,0,0,,7,,,79,127
163252,note_on,2,0,0,,10,,,81,127
163294,note_off,42,0,0,,10,,,81,127
163296,note_on,2,0,0,,7,,,79,127
163338,note_off,42,0,0,,7,,,79,127
163340,note_on,2,0,0,,10,,,81,127
163382,note_off,42,0,0,,10,,,81,127
163384,note_on,2,0,0,,7,,,79,127
163515,note_off,131,0,0,,7,,,79,127
163515,note_off,0,0,0,,0,,,48,127
163517,note_on,2,0,0,,5,,,77,127
163517,note_on,0,0,0,,5,,,41,127
163655,note_off,138,0,0,,5,,,77,127
163673,note_off,18,0,0,,5,,,41,127
163693,note_on,20,0,0,,10,,,69,127
163693,note_on,0,0,0,,0,,,48,127
163735,note_off,42,0,0,,10,,,69,127
163737,note_on,2,0,0,,7,,,67,127
163779,note_off,42,0,0,,7,,,67,127
163781,note_on,2,0,0,,10,,,69,127
163823,note_off,42,0,0,,10,,,69,127
163825,note_on,2,0,0,,7,,,67,127
164045,note_off,220,0,0,,7,,,67,127
164045,note_off,0,0,0,,0,,,48,127
164047,note_on,2,0,0,,5,,,65,127
164047,note_on,0,0,0,,5,,,41,127
164185,note_off,138,0,0,,5,,,65,127
164203,note_off,18,0,0,,5,,,41,127
164223,note_on,20,0,0,,10,,,57,127
164223,note_on,0,0,0,,0,,,48,127
164265,note_off,42,0,0,,10,,,57,127
164267,note_on,2,0,0,,7,,,55,127
164309,note_off,42,0,0,,7,,,55,127
164311,note_on,2,0,0,,10,,,57,127
164353,note_off,42,0,0,,10,,,57,127
164355,note_on,2,0,0,,7,,,55,127
164575,note_off,220,0,0,,7,,,55,127
164575,note_off,0,0,0,,0,,,48,127
164577,note_on,2,0,0,,5,,,65,127
164577,note_on,0,0,0,,5,,,41,127
164715,note_off,138,0,0,,5,,,65,127
164733,note_off,18,0,0,,5,,,41,127
164753,note_on,20,0,0,,10,,,81,127
164753,note_on,0,0,0,,0,,,48,127
164795,note_off,42,0,0,,10,,,81,127
164797,note_on,2,0,0,,7,,,79,127
164839,note_off,42,0,0,,7,,,79,127
164841,note_on,2,0,0,,10,,,81,127
164883,note_off,42,0,0,,10,,,81,127
164885,note_on,2,0,0,,7,,,79,127
165105,note_off,220,0,0,,7,,,79,127
165105,note_off,0,0,0,,0,,,48,127
165107,note_on,2,0,0,,5,,,77,127
165107,note_on,0,0,0,,5,,,41,127
165264,note_off,157,0,0,,5,,,41,127
165282,note_off,18,0,0,,5,,,77,127
165284,note_on,2,0,0,,10,,,69,127
165284,note_on,0,0,0,,0,,,48,127
165326,note_off,42,0,0,,10,,,69,127
165328,note_on,2,0,0,,7,,,67,127
165370,note_off,42,0,0,,7,,,67,127
165372,note_on,2,0,0,,10,,,69,127
165414,note_off,42,0,0,,10,,,69,127
165416,note_on,2,0,0,,7,,,67,127
165601,note_off,185,0,0,,7,,,67,127
165636,note_off,35,0,0,,0,,,48,127
165638,note_on,2,0,0,,5,,,65,127
165638,note_on,0,0,0,,5,,,41,127
165991,note_off,353,0,0,,5,,,65,127
165993,note_on,2,0,0,,0,,,84,127
166168,note_off,175,0,0,,5,,,41,127
166170,note_on,2,0,0,,10,,,45,127
166345,note_off,175,0,0,,0,,,84,127
166347,note_on,2,0,0,,10,,,81,127
166522,note_off,175,0,0,,10,,,81,127
166524,note_on,2,0,0,,5,,,77,127
166699,note_off,175,0,0,,5,,,77,127
166699,note_off,0,0,0,,10,,,45,127
166701,note_on,2,0,0,,2,,,74,127
166701,note_on,0,0,0,,11,,,46,127
166965,note_off,264,0,0,,2,,,74,127
166967,note_on,2,0,0,,4,,,76,127
167054,note_off,87,0,0,,4,,,76,127
167056,note_on,2,0,0,,5,,,77,127
167143,note_off,87,0,0,,5,,,77,127
167145,note_on,2,0,0,,7,,,79,127
167232,note_off,87,0,0,,7,,,79,127
167232,note_off,0,0,0,,11,,,46,127
167234,note_on,2,0,0,,10,,,81,127
167234,note_on,0,0,0,,0,,,48,127
167288,note_off,54,0,0,,10,,,81,127
167290,note_on,2,0,0,,7,,,79,127
167344,note_off,54,0,0,,7,,,79,127
167346,note_on,2,0,0,,10,,,81,127
167400,note_off,54,0,0,,10,,,81,127
167402,note_on,2,0,0,,7,,,79,127
167456,note_off,54,0,0,,7,,,79,127
167458,note_on,2,0,0,,10,,,81,127
167512,note_off,54,0,0,,10,,,81,127
167514,note_on,2,0,0,,7,,,79,127
167568,note_off,54,0,0,,7,,,79,127
167570,note_on,2,0,0,,10,,,81,127
167615,note_off,45,0,0,,10,,,81,127
167617,note_on,2,0,0,,7,,,79,127
167666,note_off,49,0,0,,7,,,79,127
167668,note_on,2,0,0,,5,,,77,127
167717,note_off,49,0,0,,5,,,77,127
167719,note_on,2,0,0,,7,,,79,127
167768,note_off,49,0,0,,7,,,79,127
167768,note_off,0,0,0,,0,,,48,127
167770,note_on,2,0,0,,5,,,77,127
167770,note_on,0,0,0,,5,,,41,127
167918,note_off,148,0,0,,5,,,77,127
167948,note_on,30,0,0,,0,,,84,127
168301,note_off,353,0,0,,5,,,41,127
168303,note_on,2,0,0,,10,,,45,127
168478,note_off,175,0,0,,0,,,84,127
168480,note_on,2,0,0,,10,,,81,127
168655,note_off,175,0,0,,10,,,81,127
168657,note_on,2,0,0,,5,,,77,127
168832,note_off,175,0,0,,5,,,77,127
168832,note_off,0,0,0,,10,,,45,127
168834,note_on,2,0,0,,2,,,74,127
168834,note_on,0,0,0,,11,,,46,127
169098,note_off,264,0,0,,2,,,74,127
169100,note_on,2,0,0,,4,,,76,127
169187,note_off,87,0,0,,4,,,76,127
169189,note_on,2,0,0,,5,,,77,127
169276,note_off,87,0,0,,5,,,77,127
169278,note_on,2,0,0,,7,,,79,127
169365,note_off,87,0,0,,7,,,79,127
169365,note_off,0,0,0,,11,,,46,127
169367,note_on,2,0,0,,10,,,81,127
169367,note_on,0,0,0,,0,,,48,127
169421,note_off,54,0,0,,10,,,81,127
169423,note_on,2,0,0,,7,,,79,127
169477,note_off,54,0,0,,7,,,79,127
169479,note_on,2,0,0,,10,,,81,127
169533,note_off,54,0,0,,10,,,81,127
169535,note_on,2,0,0,,7,,,79,127
169589,note_off,54,0,0,,7,,,79,127
169591,note_on,2,0,0,,10,,,81,127
169645,note_off,54,0,0,,10,,,81,127
169647,note_on,2,0,0,,7,,,79,127
169701,note_off,54,0,0,,7,,,79,127
169703,note_on,2,0,0,,10,,,81,127
169748,note_off,45,0,0,,10,,,81,127
169750,note_on,2,0,0,,7,,,79,127
169799,note_off,49,0,0,,7,,,79,127
169801,note_on,2,0,0,,5,,,77,127
169850,note_off,49,0,0,,5,,,77,127
169852,note_on,2,0,0,,7,,,79,127
169901,note_off,49,0,0,,7,,,79,127
169901,note_off,0,0,0,,0,,,48,127
169903,note_on,2,0,0,,5,,,77,127
169903,note_on,0,0,0,,5,,,41,127
170167,note_off,264,0,0,,5,,,77,127
170169,note_on,2,0,0,,10,,,81,127
170256,note_off,87,0,0,,10,,,81,127
170258,note_on,2,0,0,,7,,,79,127
170345,note_off,87,0,0,,7,,,79,127
170347,note_on,2,0,0,,5,,,77,127
170434,note_off,87,0,0,,5,,,77,127
170434,note_off,0,0,0,,5,,,41,127
170436,note_on,2,0,0,,4,,,76,127
170436,note_on,0,0,0,,10,,,45,127
170523,note_off,87,0,0,,4,,,76,127
170525,note_on,2,0,0,,2,,,74,127
170612,note_off,87,0,0,,2,,,74,127
170614,note_on,2,0,0,,0,,,72,127
170701,note_off,87,0,0,,0,,,72,127
170703,note_on,2,0,0,,11,,,70,127
170790,note_off,87,0,0,,11,,,70,127
170792,note_on,2,0,0,,10,,,69,127
170879,note_off,87,0,0,,10,,,69,127
170881,note_off,2,0,0,,10,,,45,127
170881,note_on,0,0,0,,7,,,67,127
170968,note_off,87,0,0,,7,,,67,127
170970,note_on,2,0,0,,5,,,65,127
170970,note_on,0,0,0,,11,,,46,127
171057,note_off,87,0,0,,5,,,65,127
171059,note_on,2,0,0,,4,,,64,127
171146,note_off,87,0,0,,4,,,64,127
171148,note_on,2,0,0,,2,,,62,127
171235,note_off,87,0,0,,2,,,62,127
171237,note_on,2,0,0,,0,,,60,127
171324,note_off,87,0,0,,0,,,60,127
171326,note_on,2,0,0,,11,,,58,127
171413,note_off,87,0,0,,11,,,58,127
171415,note_off,2,0,0,,11,,,46,127
171415,note_on,0,0,0,,10,,,57,127
171502,note_off,87,0,0,,10,,,57,127
171504,note_on,2,0,0,,7,,,55,127
171504,note_on,0,0,0,,0,,,48,127
171947,note_off,443,0,0,,0,,,48,127
171984,note_off,37,0,0,,7,,,55,127
172036,note_on,52,0,0,,5,,,41,127
172036,note_on,0,0,0,,5,,,53,127
174436,note_off,2400,0,0,,5,,,53,127
174436,note_off,0,0,0,,5,,,41,127
175808,note_on,1372,0,0,,5,,,65,127
175808,note_on,0,0,0,,8,,,68,127
175808,note_on,0,0,0,,8,,,80,127
175808,note_on,0,0,0,,11,,,82,127
175889,note_off,81,0,0,,11,,,82,127
175889,note_off,0,0,0,,8,,,80,127
175892,note_on,3,0,0,,7,,,79,127
175973,note_off,81,0,0,,7,,,79,127
175976,note_on,3,0,0,,8,,,80,127
176057,note_off,81,0,0,,8,,,80,127
176057,note_off,0,0,0,,8,,,68,127
176057,note_off,0,0,0,,5,,,65,127
176060,note_on,3,0,0,,8,,,68,127
176060,note_on,0,0,0,,5,,,65,127
176060,note_on,0,0,0,,8,,,80,127
176308,note_off,248,0,0,,8,,,80,127
176308,note_off,0,0,0,,5,,,65,127
176308,note_off,0,0,0,,8,,,68,127
176311,note_on,3,0,0,,8,,,68,127
176311,note_on,0,0,0,,5,,,65,127
176311,note_on,0,0,0,,8,,,80,127
176559,note_off,248,0,0,,5,,,65,127
176559,note_off,0,0,0,,8,,,68,127
176562,note_on,3,0,0,,7,,,67,127
176562,note_on,0,0,0,,11,,,70,127
176810,note_off,248,0,0,,11,,,70,127
176810,note_off,0,0,0,,7,,,67,127
176810,note_off,0,0,0,,8,,,80,127
176813,note_on,3,0,0,,7,,,67,127
176813,note_on,0,0,0,,11,,,70,127
176813,note_on,0,0,0,,11,,,82,127
177061,note_off,248,0,0,,11,,,82,127
177061,note_off,0,0,0,,11,,,70,127
177061,note_off,0,0,0,,7,,,67,127
177064,note_on,3,0,0,,7,,,67,127
177064,note_on,0,0,0,,11,,,70,127
177064,note_on,0,0,0,,7,,,79,127
177312,note_off,248,0,0,,7,,,79,127
177312,note_off,0,0,0,,11,,,70,127
177312,note_off,0,0,0,,7,,,67,127
177315,note_on,3,0,0,,8,,,68,127
177315,note_on,0,0,0,,0,,,72,127
177315,note_on,0,0,0,,5,,,77,127
177315,note_on,0,0,0,,7,,,79,127
177396,note_off,81,0,0,,7,,,79,127
177396,note_off,0,0,0,,5,,,77,127
177399,note_on,3,0,0,,4,,,76,127
177480,note_off,81,0,0,,4,,,76,127
177483,note_on,3,0,0,,5,,,77,127
177564,note_off,81,0,0,,5,,,77,127
177564,note_off,0,0,0,,0,,,72,127
177564,note_off,0,0,0,,8,,,68,127
177567,note_on,3,0,0,,0,,,72,127
177567,note_on,0,0,0,,8,,,68,127
177567,note_on,0,0,0,,5,,,77,127
177815,note_off,248,0,0,,5,,,77,127
177815,note_off,0,0,0,,8,,,68,127
177815,note_off,0,0,0,,0,,,72,127
177818,note_on,3,0,0,,8,,,68,127
177818,note_on,0,0,0,,0,,,72,127
177818,note_on,0,0,0,,5,,,77,127
178066,note_off,248,0,0,,0,,,72,127
178066,note_off,0,0,0,,8,,,68,127
178069,note_on,3,0,0,,1,,,73,127
178069,note_on,0,0,0,,11,,,70,127
178317,note_off,248,0,0,,11,,,70,127
178317,note_off,0,0,0,,1,,,73,127
178317,note_off,0,0,0,,5,,,77,127
178320,note_on,3,0,0,,1,,,73,127
178320,note_on,0,0,0,,11,,,70,127
178320,note_on,0,0,0,,7,,,79,127
178568,note_off,248,0,0,,7,,,79,127
178568,note_off,0,0,0,,11,,,70,127
178568,note_off,0,0,0,,1,,,73,127
178571,note_on,3,0,0,,11,,,70,127
178571,note_on,0,0,0,,1,,,73,127
178571,note_on,0,0,0,,4,,,76,127
178819,note_off,248,0,0,,4,,,76,127
178819,note_off,0,0,0,,1,,,73,127
178819,note_off,0,0,0,,11,,,70,127
178822,note_on,3,0,0,,11,,,70,127
178822,note_on,0,0,0,,1,,,73,127
178822,note_on,0,0,0,,7,,,79,127
178822,note_on,0,0,0,,5,,,77,127
178903,note_off,81,0,0,,5,,,77,127
178903,note_off,0,0,0,,7,,,79,127
178906,note_on,3,0,0,,4,,,76,127
178987,note_off,81,0,0,,4,,,76,127
178990,note_on,3,0,0,,5,,,77,127
179071,note_off,81,0,0,,5,,,77,127
179071,note_off,0,0,0,,1,,,73,127
179071,note_off,0,0,0,,11,,,70,127
179074,note_on,3,0,0,,1,,,73,127
179074,note_on,0,0,0,,11,,,70,127
179074,note_on,0,0,0,,7,,,79,127
179322,note_off,248,0,0,,7,,,79,127
179322,note_off,0,0,0,,11,,,70,127
179322,note_off,0,0,0,,1,,,73,127
179325,note_on,3,0,0,,1,,,73,127
179325,note_on,0,0,0,,11,,,70,127
179325,note_on,0,0,0,,4,,,76,127
179573,note_off,248,0,0,,4,,,76,127
179573,note_off,0,0,0,,11,,,70,127
179573,note_off,0,0,0,,1,,,73,127
179576,note_on,3,0,0,,8,,,68,127
179576,note_on,0,0,0,,0,,,72,127
179576,note_on,0,0,0,,8,,,80,127
179576,note_on,0,0,0,,7,,,79,127
179657,note_off,81,0,0,,7,,,79,127
179657,note_off,0,0,0,,8,,,80,127
179660,note_on,3,0,0,,5,,,77,127
179741,note_off,81,0,0,,5,,,77,127
179744,note_on,3,0,0,,7,,,79,127
179825,note_off,81,0,0,,7,,,79,127
179825,note_off,0,0,0,,0,,,72,127
179825,note_off,0,0,0,,8,,,68,127
179828,note_on,3,0,0,,8,,,68,127
179828,note_on,0,0,0,,0,,,72,127
179828,note_on,0,0,0,,8,,,80,127
180076,note_off,248,0,0,,8,,,80,127
180076,note_off,0,0,0,,0,,,72,127
180076,note_off,0,0,0,,8,,,68,127
180079,note_on,3,0,0,,8,,,68,127
180079,note_on,0,0,0,,0,,,72,127
180079,note_on,0,0,0,,5,,,77,127
180327,note_off,248,0,0,,5,,,77,127
180327,note_off,0,0,0,,0,,,72,127
180327,note_off,0,0,0,,8,,,68,127
180330,note_on,3,0,0,,11,,,70,127
180330,note_on,0,0,0,,7,,,67,127
180330,note_on,0,0,0,,11,,,82,127
180330,note_on,0,0,0,,8,,,80,127
180411,note_off,81,0,0,,8,,,80,127
180411,note_off,0,0,0,,11,,,82,127
180414,note_on,3,0,0,,7,,,79,127
180495,note_off,81,0,0,,7,,,79,127
180498,note_on,3,0,0,,8,,,80,127
180579,note_off,81,0,0,,8,,,80,127
180579,note_off,0,0,0,,7,,,67,127
180579,note_off,0,0,0,,11,,,70,127
180582,note_on,3,0,0,,11,,,70,127
180582,note_on,0,0,0,,7,,,67,127
180582,note_on,0,0,0,,11,,,82,127
180830,note_off,248,0,0,,11,,,82,127
180830,note_off,0,0,0,,7,,,67,127
180830,note_off,0,0,0,,11,,,70,127
180833,note_on,3,0,0,,11,,,70,127
180833,note_on,0,0,0,,7,,,67,127
180833,note_on,0,0,0,,7,,,79,127
181081,note_off,248,0,0,,7,,,79,127
181081,note_off,0,0,0,,7,,,67,127
181081,note_off,0,0,0,,11,,,70,127
181084,note_on,3,0,0,,5,,,65,127
181084,note_on,0,0,0,,8,,,68,127
181084,note_on,0,0,0,,0,,,84,127
181084,note_on,0,0,0,,11,,,82,127
181165,note_off,81,0,0,,11,,,82,127
181165,note_off,0,0,0,,0,,,84,127
181168,note_on,3,0,0,,8,,,80,127
181249,note_off,81,0,0,,8,,,80,127
181252,note_on,3,0,0,,11,,,82,127
181333,note_off,81,0,0,,11,,,82,127
181333,note_off,0,0,0,,8,,,68,127
181333,note_off,0,0,0,,5,,,65,127
181336,note_on,3,0,0,,8,,,68,127
181336,note_on,0,0,0,,5,,,65,127
181336,note_on,0,0,0,,0,,,84,127
181584,note_off,248,0,0,,0,,,84,127
181584,note_off,0,0,0,,5,,,65,127
181584,note_off,0,0,0,,8,,,68,127
181587,note_on,3,0,0,,5,,,65,127
181587,note_on,0,0,0,,8,,,68,127
181587,note_on,0,0,0,,8,,,80,127
181835,note_off,248,0,0,,8,,,80,127
181835,note_off,0,0,0,,8,,,68,127
181835,note_off,0,0,0,,5,,,65,127
181838,note_on,3,0,0,,5,,,65,127
181838,note_on,0,0,0,,4,,,64,127
181838,note_on,0,0,0,,7,,,79,127
181919,note_off,81,0,0,,4,,,64,127
181919,note_off,0,0,0,,5,,,65,127
181922,note_on,3,0,0,,2,,,62,127
182003,note_off,81,0,0,,2,,,62,127
182006,note_on,3,0,0,,4,,,64,127
182087,note_off,81,0,0,,4,,,64,127
182087,note_off,0,0,0,,7,,,79,127
182090,note_on,3,0,0,,4,,,64,127
182090,note_on,0,0,0,,0,,,84,127
182338,note_off,248,0,0,,4,,,64,127
182341,note_on,3,0,0,,4,,,64,127
182341,note_on,0,0,0,,0,,,72,127
182586,note_off,245,0,0,,0,,,84,127
182589,note_off,3,0,0,,0,,,72,127
182589,note_off,0,0,0,,4,,,64,127
182592,note_on,3,0,0,,5,,,65,127
182592,note_on,0,0,0,,7,,,67,127
182592,note_on,0,0,0,,8,,,80,127
182673,note_off,81,0,0,,7,,,67,127
182673,note_off,0,0,0,,5,,,65,127
182676,note_on,3,0,0,,4,,,64,127
182757,note_off,81,0,0,,4,,,64,127
182760,note_on,3,0,0,,5,,,65,127
182841,note_off,81,0,0,,5,,,65,127
182841,note_off,0,0,0,,8,,,80,127
182844,note_on,3,0,0,,5,,,65,127
182844,note_on,0,0,0,,0,,,84,127
183092,note_off,248,0,0,,5,,,65,127
183095,note_on,3,0,0,,5,,,65,127
183095,note_on,0,0,0,,0,,,72,127
183340,note_off,245,0,0,,0,,,84,127
183343,note_off,3,0,0,,0,,,72,127
183343,note_off,0,0,0,,5,,,65,127
183346,note_on,3,0,0,,8,,,68,127
183346,note_on,0,0,0,,7,,,67,127
183346,note_on,0,0,0,,4,,,76,127
183427,note_off,81,0,0,,7,,,67,127
183427,note_off,0,0,0,,8,,,68,127
183430,note_on,3,0,0,,5,,,65,127
183511,note_off,81,0,0,,5,,,65,127
183514,note_on,3,0,0,,7,,,67,127
183595,note_off,81,0,0,,7,,,67,127
183595,note_off,0,0,0,,4,,,76,127
183598,note_on,3,0,0,,7,,,67,127
183598,note_on,0,0,0,,0,,,84,127
183846,note_off,248,0,0,,7,,,67,127
183849,note_on,3,0,0,,7,,,67,127
183849,note_on,0,0,0,,0,,,72,127
184094,note_off,245,0,0,,0,,,84,127
184097,note_off,3,0,0,,0,,,72,127
184097,note_off,0,0,0,,7,,,67,127
184100,note_on,3,0,0,,11,,,70,127
184100,note_on,0,0,0,,8,,,68,127
184100,note_on,0,0,0,,5,,,77,127
184181,note_off,81,0,0,,8,,,68,127
184181,note_off,0,0,0,,11,,,70,127
184184,note_on,3,0,0,,7,,,67,127
184265,note_off,81,0,0,,7,,,67,127
184268,note_on,3,0,0,,8,,,68,127
184349,note_off,81,0,0,,8,,,68,127
184349,note_off,0,0,0,,5,,,77,127
184352,note_on,3,0,0,,8,,,68,127
184352,note_on,0,0,0,,0,,,84,127
184600,note_off,248,0,0,,8,,,68,127
184603,note_on,3,0,0,,8,,,68,127
184603,note_on,0,0,0,,0,,,72,127
184848,note_off,245,0,0,,0,,,84,127
184851,note_off,3,0,0,,0,,,72,127
184851,note_off,0,0,0,,8,,,68,127
184854,note_on,3,0,0,,11,,,70,127
184854,note_on,0,0,0,,1,,,73,127
184854,note_on,0,0,0,,1,,,85,127
185102,note_off,248,0,0,,1,,,85,127
185102,note_off,0,0,0,,1,,,73,127
185102,note_off,0,0,0,,11,,,70,127
185105,note_on,3,0,0,,1,,,73,127
185105,note_on,0,0,0,,11,,,70,127
185105,note_on,0,0,0,,0,,,84,127
185228,note_off,123,0,0,,0,,,84,127
185231,note_on,3,0,0,,11,,,82,127
185354,note_off,123,0,0,,11,,,82,127
185354,note_off,0,0,0,,11,,,70,127
185354,note_off,0,0,0,,1,,,73,127
185357,note_on,3,0,0,,1,,,73,127
185357,note_on,0,0,0,,11,,,70,127
185357,note_on,0,0,0,,8,,,80,127
185480,note_off,123,0,0,,8,,,80,127
185483,note_on,3,0,0,,7,,,79,127
185606,note_off,123,0,0,,7,,,79,127
185606,note_off,0,0,0,,11,,,70,127
185606,note_off,0,0,0,,1,,,73,127
185609,note_on,3,0,0,,0,,,72,127
185609,note_on,0,0,0,,11,,,70,127
185609,note_on,0,0,0,,5,,,77,127
185857,note_off,248,0,0,,5,,,77,127
185860,note_on,3,0,0,,4,,,76,127
186108,note_off,248,0,0,,4,,,76,127
186108,note_off,0,0,0,,11,,,70,127
186108,note_off,0,0,0,,0,,,72,127
186111,note_on,3,0,0,,8,,,68,127
186111,note_on,0,0,0,,0,,,72,127
186111,note_on,0,0,0,,5,,,77,127
186359,note_off,248,0,0,,5,,,77,127
186359,note_off,0,0,0,,0,,,72,127
186359,note_off,0,0,0,,8,,,68,127
186362,note_on,3,0,0,,11,,,70,127
186362,note_on,0,0,0,,7,,,67,127
186362,note_on,0,0,0,,7,,,79,127
186610,note_off,248,0,0,,7,,,79,127
186610,note_off,0,0,0,,7,,,67,127
186610,note_off,0,0,0,,11,,,70,127
186613,note_on,3,0,0,,5,,,65,127
186613,note_on,0,0,0,,8,,,68,127
186613,note_on,0,0,0,,11,,,82,127
186673,note_off,60,0,0,,11,,,82,127
186676,note_on,3,0,0,,8,,,80,127
186736,note_off,60,0,0,,8,,,80,127
186739,note_on,3,0,0,,11,,,82,127
186799,note_off,60,0,0,,11,,,82,127
186802,note_on,3,0,0,,8,,,80,127
186862,note_off,60,0,0,,8,,,80,127
186862,note_off,0,0,0,,8,,,68,127
186862,note_off,0,0,0,,5,,,65,127
186865,note_on,3,0,0,,12,,,71,127
186865,note_on,0,0,0,,11,,,82,127
186925,note_off,60,0,0,,11,,,82,127
186928,note_on,3,0,0,,8,,,80,127
186988,note_off,60,0,0,,8,,,80,127
186991,note_on,3,0,0,,7,,,79,127
187051,note_off,60,0,0,,7,,,79,127
187054,note_on,3,0,0,,8,,,80,127
187114,note_off,60,0,0,,8,,,80,127
187114,note_off,0,0,0,,12,,,71,127
187117,note_on,3,0,0,,0,,,72,127
187117,note_on,0,0,0,,8,,,80,127
187365,note_off,248,0,0,,0,,,72,127
187407,note_on,42,0,0,,0,,,60,127
187691,note_off,284,0,0,,8,,,80,127
187696,note_on,5,0,0,,7,,,79,127
187905,note_off,209,0,0,,0,,,60,127
188192,note_off,287,0,0,,7,,,79,127
188369,note_on,177,0,0,,7,,,79,127
188369,note_on,0,0,0,,5,,,77,127
188369,note_on,0,0,0,,0,,,60,127
188450,note_off,81,0,0,,5,,,77,127
188450,note_off,0,0,0,,7,,,79,127
188453,note_on,3,0,0,,3,,,75,127
188534,note_off,81,0,0,,3,,,75,127
188537,note_on,3,0,0,,5,,,77,127
188618,note_off,81,0,0,,5,,,77,127
188618,note_off,0,0,0,,0,,,60,127
188621,note_on,3,0,0,,5,,,77,127
188621,note_on,0,0,0,,2,,,62,127
188869,note_off,248,0,0,,2,,,62,127
188869,note_off,0,0,0,,5,,,77,127
188872,note_on,3,0,0,,7,,,79,127
188872,note_on,0,0,0,,3,,,63,127
189120,note_off,248,0,0,,3,,,63,127
189120,note_off,0,0,0,,7,,,79,127
189123,note_on,3,0,0,,7,,,79,127
189123,note_on,0,0,0,,5,,,65,127
189371,note_off,248,0,0,,5,,,65,127
189371,note_off,0,0,0,,7,,,79,127
189374,note_on,3,0,0,,8,,,80,127
189374,note_on,0,0,0,,7,,,67,127
189622,note_off,248,0,0,,7,,,67,127
189622,note_off,0,0,0,,8,,,80,127
189625,note_on,3,0,0,,0,,,72,127
189625,note_on,0,0,0,,8,,,68,127
189873,note_off,248,0,0,,8,,,68,127
189873,note_off,0,0,0,,0,,,72,127
189876,note_on,3,0,0,,3,,,75,127
189876,note_on,0,0,0,,1,,,73,127
189876,note_on,0,0,0,,11,,,58,127
189957,note_off,81,0,0,,1,,,73,127
189957,note_off,0,0,0,,3,,,75,127
189960,note_on,3,0,0,,0,,,72,127
190041,note_off,81,0,0,,0,,,72,127
190044,note_on,3,0,0,,1,,,73,127
190125,note_off,81,0,0,,1,,,73,127
190125,note_off,0,0,0,,11,,,58,127
190128,note_on,3,0,0,,3,,,75,127
190128,note_on,0,0,0,,0,,,60,127
190376,note_off,248,0,0,,0,,,60,127
190376,note_off,0,0,0,,3,,,75,127
190379,note_on,3,0,0,,5,,,77,127
190379,note_on,0,0,0,,1,,,61,127
190627,note_off,248,0,0,,1,,,61,127
190627,note_off,0,0,0,,5,,,77,127
190630,note_on,3,0,0,,5,,,77,127
190630,note_on,0,0,0,,3,,,63,127
190878,note_off,248,0,0,,3,,,63,127
190878,note_off,0,0,0,,5,,,77,127
190881,note_on,3,0,0,,7,,,79,127
190881,note_on,0,0,0,,5,,,65,127
191129,note_off,248,0,0,,5,,,65,127
191129,note_off,0,0,0,,7,,,79,127
191132,note_on,3,0,0,,12,,,71,127
191132,note_on,0,0,0,,7,,,67,127
191380,note_off,248,0,0,,7,,,67,127
191380,note_off,0,0,0,,12,,,71,127
191383,note_on,3,0,0,,0,,,72,127
191383,note_on,0,0,0,,2,,,74,127
191383,note_on,0,0,0,,8,,,56,127
191464,note_off,81,0,0,,2,,,74,127
191464,note_off,0,0,0,,0,,,72,127
191467,note_on,3,0,0,,12,,,71,127
191548,note_off,81,0,0,,12,,,71,127
191551,note_on,3,0,0,,0,,,72,127
191632,note_off,81,0,0,,0,,,72,127
191632,note_off,0,0,0,,8,,,56,127
191635,note_on,3,0,0,,2,,,74,127
191635,note_on,0,0,0,,11,,,58,127
191883,note_off,248,0,0,,11,,,58,127
191883,note_off,0,0,0,,2,,,74,127
191886,note_on,3,0,0,,3,,,75,127
191886,note_on,0,0,0,,0,,,60,127
192134,note_off,248,0,0,,0,,,60,127
192134,note_off,0,0,0,,3,,,75,127
192137,note_on,3,0,0,,4,,,76,127
192137,note_on,0,0,0,,1,,,61,127
192385,note_off,248,0,0,,1,,,61,127
192385,note_off,0,0,0,,4,,,76,127
192388,note_on,3,0,0,,5,,,77,127
192388,note_on,0,0,0,,3,,,63,127
192636,note_off,248,0,0,,3,,,63,127
192636,note_off,0,0,0,,5,,,77,127
192639,note_on,3,0,0,,10,,,69,127
192639,note_on,0,0,0,,5,,,65,127
192887,note_off,248,0,0,,5,,,65,127
192887,note_off,0,0,0,,10,,,69,127
192890,note_on,3,0,0,,11,,,70,127
192890,note_on,0,0,0,,0,,,72,127
192890,note_on,0,0,0,,7,,,55,127
192971,note_off,81,0,0,,0,,,72,127
192971,note_off,0,0,0,,11,,,70,127
192974,note_on,3,0,0,,10,,,69,127
193055,note_off,81,0,0,,10,,,69,127
193058,note_on,3,0,0,,11,,,70,127
193139,note_off,81,0,0,,11,,,70,127
193139,note_off,0,0,0,,7,,,55,127
193142,note_on,3,0,0,,0,,,72,127
193142,note_on,0,0,0,,8,,,56,127
193390,note_off,248,0,0,,8,,,56,127
193390,note_off,0,0,0,,0,,,72,127
193393,note_on,3,0,0,,1,,,73,127
193393,note_on,0,0,0,,11,,,58,127
193641,note_off,248,0,0,,11,,,58,127
193641,note_off,0,0,0,,1,,,73,127
193644,note_on,3,0,0,,2,,,74,127
193644,note_on,0,0,0,,3,,,63,127
193644,note_on,0,0,0,,0,,,60,127
193892,note_off,248,0,0,,0,,,60,127
193892,note_off,0,0,0,,3,,,63,127
193892,note_off,0,0,0,,2,,,74,127
193895,note_on,3,0,0,,3,,,75,127
193895,note_on,0,0,0,,3,,,63,127
193895,note_on,0,0,0,,0,,,60,127
194143,note_off,248,0,0,,0,,,60,127
194143,note_off,0,0,0,,3,,,63,127
194143,note_off,0,0,0,,3,,,75,127
194146,note_on,3,0,0,,7,,,67,127
194146,note_on,0,0,0,,3,,,63,127
194146,note_on,0,0,0,,0,,,60,127
194394,note_off,248,0,0,,0,,,60,127
194394,note_off,0,0,0,,3,,,63,127
194394,note_off,0,0,0,,7,,,67,127
194397,note_on,3,0,0,,11,,,70,127
194397,note_on,0,0,0,,8,,,68,127
194397,note_on,0,0,0,,3,,,63,127
194397,note_on,0,0,0,,0,,,60,127
194478,note_off,81,0,0,,8,,,68,127
194478,note_off,0,0,0,,11,,,70,127
194481,note_on,3,0,0,,7,,,67,127
194562,note_off,81,0,0,,7,,,67,127
194565,note_on,3,0,0,,8,,,68,127
194646,note_off,81,0,0,,8,,,68,127
194646,note_off,0,0,0,,0,,,60,127
194646,note_off,0,0,0,,3,,,63,127
194649,note_on,3,0,0,,8,,,68,127
194649,note_on,0,0,0,,3,,,63,127
194649,note_on,0,0,0,,0,,,60,127
194897,note_off,248,0,0,,0,,,60,127
194897,note_off,0,0,0,,3,,,63,127
194897,note_off,0,0,0,,8,,,68,127
194900,note_on,3,0,0,,11,,,70,127
194900,note_on,0,0,0,,0,,,60,127
194900,note_on,0,0,0,,3,,,63,127
194981,note_off,81,0,0,,11,,,70,127
194984,note_on,3,0,0,,10,,,69,127
195148,note_off,164,0,0,,10,,,69,127
195148,note_off,0,0,0,,3,,,63,127
195148,note_off,0,0,0,,0,,,60,127
195151,note_on,3,0,0,,0,,,72,127
195151,note_on,0,0,0,,1,,,61,127
195232,note_off,81,0,0,,0,,,72,127
195235,note_on,3,0,0,,11,,,70,127
195399,note_off,164,0,0,,11,,,70,127
195399,note_off,0,0,0,,1,,,61,127
195402,note_on,3,0,0,,1,,,73,127
195402,note_on,0,0,0,,3,,,63,127
195483,note_off,81,0,0,,1,,,73,127
195486,note_on,3,0,0,,0,,,72,127
195650,note_off,164,0,0,,0,,,72,127
195650,note_off,0,0,0,,3,,,63,127
195653,note_on,3,0,0,,3,,,75,127
195653,note_on,0,0,0,,5,,,65,127
195734,note_off,81,0,0,,3,,,75,127
195737,note_on,3,0,0,,1,,,73,127
195901,note_off,164,0,0,,1,,,73,127
195901,note_off,0,0,0,,5,,,65,127
195904,note_on,3,0,0,,0,,,72,127
195904,note_on,0,0,0,,7,,,67,127
195985,note_off,81,0,0,,0,,,72,127
195988,note_on,3,0,0,,11,,,70,127
196152,note_off,164,0,0,,11,,,70,127
196152,note_off,0,0,0,,7,,,67,127
196155,note_on,3,0,0,,1,,,73,127
196155,note_on,0,0,0,,8,,,68,127
196236,note_off,81,0,0,,1,,,73,127
196239,note_on,3,0,0,,0,,,72,127
196403,note_off,164,0,0,,0,,,72,127
196403,note_off,0,0,0,,8,,,68,127
196406,note_on,3,0,0,,3,,,75,127
196406,note_on,0,0,0,,5,,,65,127
196487,note_off,81,0,0,,3,,,75,127
196490,note_on,3,0,0,,2,,,74,127
196654,note_off,164,0,0,,2,,,74,127
196654,note_off,0,0,0,,5,,,65,127
196657,note_on,3,0,0,,5,,,77,127
196657,note_on,0,0,0,,7,,,67,127
196738,note_off,81,0,0,,5,,,77,127
196741,note_on,3,0,0,,3,,,75,127
196905,note_off,164,0,0,,3,,,75,127
196905,note_off,0,0,0,,7,,,67,127
196908,note_on,3,0,0,,5,,,77,127
196908,note_on,0,0,0,,11,,,70,127
196908,note_on,0,0,0,,7,,,67,127
196989,note_off,81,0,0,,5,,,77,127
196992,note_on,3,0,0,,4,,,76,127
197156,note_off,164,0,0,,4,,,76,127
197156,note_off,0,0,0,,7,,,67,127
197156,note_off,0,0,0,,11,,,70,127
197159,note_on,3,0,0,,0,,,72,127
197159,note_on,0,0,0,,7,,,79,127
197159,note_on,0,0,0,,8,,,68,127
197240,note_off,81,0,0,,7,,,79,127
197240,note_off,0,0,0,,0,,,72,127
197243,note_on,3,0,0,,5,,,77,127
197407,note_off,164,0,0,,5,,,77,127
197407,note_off,0,0,0,,8,,,68,127
197410,note_on,3,0,0,,8,,,80,127
197410,note_on,0,0,0,,0,,,72,127
197410,note_on,0,0,0,,4,,,64,127
197491,note_off,81,0,0,,8,,,80,127
197494,note_on,3,0,0,,7,,,79,127
197658,note_off,164,0,0,,7,,,79,127
197658,note_off,0,0,0,,4,,,64,127
197658,note_off,0,0,0,,0,,,72,127
197661,note_on,3,0,0,,11,,,82,127
197661,note_on,0,0,0,,5,,,65,127
197742,note_off,81,0,0,,11,,,82,127
197745,note_on,3,0,0,,8,,,80,127
197909,note_off,164,0,0,,8,,,80,127
197909,note_off,0,0,0,,5,,,65,127
197912,note_on,3,0,0,,0,,,84,127
197912,note_on,0,0,0,,2,,,62,127
197912,note_on,0,0,0,,5,,,65,127
197972,note_off,60,0,0,,0,,,84,127
197975,note_on,3,0,0,,12,,,83,127
198035,note_off,60,0,0,,12,,,83,127
198038,note_on,3,0,0,,10,,,81,127
198098,note_off,60,0,0,,10,,,81,127
198101,note_on,3,0,0,,12,,,83,127
198161,note_off,60,0,0,,12,,,83,127
198161,note_off,0,0,0,,5,,,65,127
198161,note_off,0,0,0,,2,,,62,127
198164,note_on,3,0,0,,0,,,84,127
198164,note_on,0,0,0,,4,,,64,127
198164,note_on,0,0,0,,7,,,67,127
198412,note_off,248,0,0,,7,,,67,127
198412,note_off,0,0,0,,4,,,64,127
198412,note_off,0,0,0,,0,,,84,127
198415,note_on,3,0,0,,7,,,79,127
198415,note_on,0,0,0,,12,,,59,127
198663,note_off,248,0,0,,12,,,59,127
198663,note_off,0,0,0,,7,,,79,127
198666,note_on,3,0,0,,3,,,75,127
198666,note_on,0,0,0,,0,,,60,127
198914,note_off,248,0,0,,0,,,60,127
198914,note_off,0,0,0,,3,,,75,127
198917,note_on,3,0,0,,2,,,74,127
198917,note_on,0,0,0,,7,,,67,127
198917,note_on,0,0,0,,7,,,55,127
199165,note_off,248,0,0,,7,,,55,127
199165,note_off,0,0,0,,7,,,67,127
199165,note_off,0,0,0,,2,,,74,127
199168,note_on,3,0,0,,2,,,74,127
199168,note_on,0,0,0,,8,,,56,127
199249,note_off,81,0,0,,2,,,74,127
199252,note_on,3,0,0,,0,,,72,127
199333,note_off,81,0,0,,0,,,72,127
199336,note_on,3,0,0,,2,,,74,127
199417,note_off,81,0,0,,2,,,74,127
199417,note_off,0,0,0,,8,,,56,127
199420,note_on,3,0,0,,0,,,72,127
199420,note_on,0,0,0,,5,,,65,127
199501,note_off,81,0,0,,0,,,72,127
199504,note_on,3,0,0,,12,,,71,127
199585,note_off,81,0,0,,12,,,71,127
199588,note_on,3,0,0,,0,,,72,127
199669,note_off,81,0,0,,0,,,72,127
199669,note_off,0,0,0,,5,,,65,127
199672,note_on,3,0,0,,0,,,72,127
199672,note_on,0,0,0,,7,,,55,127
199982,note_off,310,0,0,,0,,,72,127
199985,note_on,3,0,0,,2,,,74,127
200298,note_on,313,0,0,,7,,,43,127
200415,note_off,117,0,0,,7,,,55,127
200611,note_off,196,0,0,,2,,,74,127
200924,note_off,313,0,0,,7,,,43,127
200987,note_on,63,0,0,,3,,,63,127
200987,note_on,0,0,0,,5,,,65,127
200987,note_on,0,0,0,,7,,,67,127
201068,note_off,81,0,0,,5,,,65,127
201068,note_off,0,0,0,,3,,,63,127
201071,note_on,3,0,0,,2,,,62,127
201152,note_off,81,0,0,,2,,,62,127
201155,note_on,3,0,0,,3,,,63,127
201236,note_off,81,0,0,,3,,,63,127
201236,note_off,0,0,0,,7,,,67,127
201239,note_on,3,0,0,,3,,,63,127
201239,note_on,0,0,0,,0,,,72,127
201487,note_off,248,0,0,,0,,,72,127
201487,note_off,0,0,0,,3,,,63,127
201490,note_on,3,0,0,,3,,,63,127
201490,note_on,0,0,0,,7,,,67,127
201738,note_off,248,0,0,,7,,,67,127
201738,note_off,0,0,0,,3,,,63,127
201741,note_on,3,0,0,,5,,,65,127
201741,note_on,0,0,0,,8,,,68,127
201822,note_off,81,0,0,,5,,,65,127
201825,note_on,3,0,0,,3,,,63,127
201906,note_off,81,0,0,,3,,,63,127
201909,note_on,3,0,0,,5,,,65,127
201990,note_off,81,0,0,,5,,,65,127
201990,note_off,0,0,0,,8,,,68,127
201993,note_on,3,0,0,,3,,,63,127
201993,note_on,0,0,0,,7,,,67,127
202074,note_off,81,0,0,,3,,,63,127
202077,note_on,3,0,0,,2,,,62,127
202158,note_off,81,0,0,,2,,,62,127
202161,note_on,3,0,0,,3,,,63,127
202242,note_off,81,0,0,,3,,,63,127
202242,note_off,0,0,0,,7,,,67,127
202245,note_on,3,0,0,,2,,,62,127
202245,note_on,0,0,0,,5,,,65,127
202326,note_off,81,0,0,,2,,,62,127
202329,note_on,3,0,0,,0,,,60,127
202410,note_off,81,0,0,,0,,,60,127
202413,note_on,3,0,0,,2,,,62,127
202494,note_off,81,0,0,,2,,,62,127
202494,note_off,0,0,0,,5,,,65,127
202497,note_on,3,0,0,,0,,,60,127
202497,note_on,0,0,0,,3,,,63,127
202578,note_off,81,0,0,,0,,,60,127
202581,note_on,3,0,0,,11,,,58,127
202662,note_off,81,0,0,,11,,,58,127
202665,note_on,3,0,0,,0,,,60,127
202746,note_off,81,0,0,,0,,,60,127
202746,note_off,0,0,0,,3,,,63,127
202749,note_on,3,0,0,,11,,,58,127
202749,note_on,0,0,0,,2,,,62,127
202830,note_off,81,0,0,,11,,,58,127
202833,note_on,3,0,0,,8,,,56,127
202914,note_off,81,0,0,,8,,,56,127
202917,note_on,3,0,0,,11,,,58,127
202998,note_off,81,0,0,,11,,,58,127
202998,note_off,0,0,0,,2,,,62,127
203001,note_on,3,0,0,,8,,,56,127
203001,note_on,0,0,0,,0,,,60,127
203082,note_off,81,0,0,,8,,,56,127
203085,note_on,3,0,0,,7,,,55,127
203166,note_off,81,0,0,,7,,,55,127
203169,note_on,3,0,0,,8,,,56,127
203250,note_off,81,0,0,,8,,,56,127
203250,note_off,0,0,0,,0,,,60,127
203253,note_on,3,0,0,,7,,,55,127
203253,note_on,0,0,0,,0,,,60,127
203530,note_on,277,0,0,,7,,,43,127
203619,note_off,89,0,0,,7,,,55,127
203807,note_on,188,0,0,,2,,,62,127
203828,note_off,21,0,0,,0,,,60,127
204094,note_on,266,0,0,,7,,,55,127
204094,note_on,0,0,0,,3,,,63,127
204094,note_on,0,0,0,,5,,,77,127
204094,note_on,0,0,0,,3,,,75,127
204101,note_off,7,0,0,,2,,,62,127
204157,note_off,56,0,0,,7,,,43,127
204175,note_off,18,0,0,,3,,,75,127
204175,note_off,0,0,0,,5,,,77,127
204178,note_on,3,0,0,,2,,,74,127
204259,note_off,81,0,0,,2,,,74,127
204262,note_on,3,0,0,,3,,,75,127
204343,note_off,81,0,0,,3,,,75,127
204343,note_off,0,0,0,,3,,,63,127
204343,note_off,0,0,0,,7,,,55,127
204346,note_on,3,0,0,,7,,,55,127
204346,note_on,0,0,0,,3,,,63,127
204346,note_on,0,0,0,,3,,,75,127
204594,note_off,248,0,0,,3,,,75,127
204594,note_off,0,0,0,,3,,,63,127
204594,note_off,0,0,0,,7,,,55,127
204597,note_on,3,0,0,,7,,,55,127
204597,note_on,0,0,0,,3,,,63,127
204597,note_on,0,0,0,,3,,,75,127
204845,note_off,248,0,0,,3,,,75,127
204845,note_off,0,0,0,,3,,,63,127
204845,note_off,0,0,0,,7,,,55,127
204848,note_on,3,0,0,,5,,,65,127
204848,note_on,0,0,0,,8,,,56,127
204848,note_on,0,0,0,,5,,,77,127
204929,note_off,81,0,0,,5,,,77,127
204932,note_on,3,0,0,,3,,,75,127
205013,note_off,81,0,0,,3,,,75,127
205016,note_on,3,0,0,,5,,,77,127
205097,note_off,81,0,0,,5,,,77,127
205097,note_off,0,0,0,,8,,,56,127
205097,note_off,0,0,0,,5,,,65,127
205100,note_on,3,0,0,,7,,,55,127
205100,note_on,0,0,0,,3,,,63,127
205100,note_on,0,0,0,,3,,,75,127
205181,note_off,81,0,0,,3,,,75,127
205184,note_on,3,0,0,,2,,,74,127
205265,note_off,81,0,0,,2,,,74,127
205268,note_on,3,0,0,,3,,,75,127
205349,note_off,81,0,0,,3,,,75,127
205349,note_off,0,0,0,,3,,,63,127
205349,note_off,0,0,0,,7,,,55,127
205352,note_on,3,0,0,,2,,,62,127
205352,note_on,0,0,0,,5,,,53,127
205352,note_on,0,0,0,,2,,,74,127
205433,note_off,81,0,0,,2,,,74,127
205436,note_on,3,0,0,,0,,,72,127
205517,note_off,81,0,0,,0,,,72,127
205520,note_on,3,0,0,,2,,,74,127
205601,note_off,81,0,0,,2,,,74,127
205601,note_off,0,0,0,,5,,,53,127
205601,note_off,0,0,0,,2,,,62,127
205604,note_on,3,0,0,,7,,,67,127
205604,note_on,0,0,0,,7,,,55,127
205604,note_on,0,0,0,,0,,,72,127
205685,note_off,81,0,0,,0,,,72,127
205688,note_on,3,0,0,,12,,,71,127
205769,note_off,81,0,0,,12,,,71,127
205772,note_on,3,0,0,,0,,,72,127
205853,note_off,81,0,0,,0,,,72,127
205853,note_off,0,0,0,,7,,,55,127
205853,note_off,0,0,0,,7,,,67,127
205856,note_on,3,0,0,,8,,,56,127
205856,note_on,0,0,0,,12,,,71,127
205937,note_off,81,0,0,,12,,,71,127
205940,note_on,3,0,0,,0,,,72,127
206021,note_off,81,0,0,,0,,,72,127
206024,note_on,3,0,0,,2,,,74,127
206105,note_off,81,0,0,,2,,,74,127
206105,note_off,0,0,0,,8,,,56,127
206108,note_on,3,0,0,,5,,,65,127
206108,note_on,0,0,0,,0,,,72,127
206160,note_off,52,0,0,,0,,,72,127
206160,note_on,0,0,0,,2,,,74,127
206212,note_off,52,0,0,,2,,,74,127
206212,note_on,0,0,0,,0,,,72,127
206264,note_off,52,0,0,,0,,,72,127
206264,note_on,0,0,0,,12,,,71,127
206316,note_off,52,0,0,,12,,,71,127
206316,note_on,0,0,0,,0,,,72,127
206355,note_off,39,0,0,,5,,,65,127
206368,note_off,13,0,0,,0,,,72,127
206378,note_on,10,0,0,,0,,,72,127
206378,note_on,0,0,0,,7,,,67,127
206651,note_on,273,0,0,,7,,,55,127
206744,note_off,93,0,0,,7,,,67,127
206942,note_on,198,0,0,,2,,,74,127
206964,note_off,22,0,0,,0,,,72,127
207177,note_off,213,0,0,,2,,,74,127
207238,note_off,61,0,0,,7,,,55,127
207276,note_on,38,0,0,,7,,,67,127
207276,note_on,0,0,0,,5,,,65,127
207357,note_off,81,0,0,,5,,,65,127
207357,note_off,0,0,0,,7,,,67,127
207360,note_on,3,0,0,,4,,,64,127
207441,note_off,81,0,0,,4,,,64,127
207444,note_on,3,0,0,,5,,,65,127
207525,note_off,81,0,0,,5,,,65,127
207528,note_on,3,0,0,,0,,,84,127
207528,note_on,0,0,0,,0,,,72,127
207528,note_on,0,0,0,,5,,,65,127
207776,note_off,248,0,0,,5,,,65,127
207776,note_off,0,0,0,,0,,,72,127
207776,note_off,0,0,0,,0,,,84,127
207779,note_on,3,0,0,,7,,,79,127
207779,note_on,0,0,0,,1,,,73,127
207779,note_on,0,0,0,,5,,,65,127
208027,note_off,248,0,0,,5,,,65,127
208027,note_off,0,0,0,,7,,,79,127
208030,note_on,3,0,0,,5,,,77,127
208030,note_on,0,0,0,,7,,,67,127
208278,note_off,248,0,0,,7,,,67,127
208278,note_off,0,0,0,,5,,,77,127
208281,note_on,3,0,0,,4,,,76,127
208281,note_on,0,0,0,,7,,,67,127
208529,note_off,248,0,0,,7,,,67,127
208529,note_off,0,0,0,,4,,,76,127
208530,note_off,1,0,0,,1,,,73,127
208531,note_on,1,0,0,,5,,,77,127
208531,note_on,0,0,0,,0,,,72,127
208531,note_on,0,0,0,,8,,,68,127
208766,note_off,235,0,0,,5,,,77,127
208779,note_off,13,0,0,,8,,,68,127
208779,note_off,0,0,0,,0,,,72,127
208782,note_on,3,0,0,,5,,,65,127
208782,note_on,0,0,0,,7,,,67,127
208863,note_off,81,0,0,,7,,,67,127
208863,note_off,0,0,0,,5,,,65,127
208866,note_on,3,0,0,,4,,,64,127
208947,note_off,81,0,0,,4,,,64,127
208950,note_on,3,0,0,,5,,,65,127
209031,note_off,81,0,0,,5,,,65,127
209034,note_on,3,0,0,,11,,,82,127
209034,note_on,0,0,0,,0,,,72,127
209034,note_on,0,0,0,,5,,,65,127
209157,note_off,123,0,0,,11,,,82,127
209160,note_on,3,0,0,,8,,,80,127
209283,note_off,123,0,0,,8,,,80,127
209283,note_off,0,0,0,,5,,,65,127
209283,note_off,0,0,0,,0,,,72,127
209286,note_on,3,0,0,,7,,,79,127
209286,note_on,0,0,0,,5,,,65,127
209286,note_on,0,0,0,,1,,,73,127
209534,note_off,248,0,0,,5,,,65,127
209534,note_off,0,0,0,,7,,,79,127
209537,note_on,3,0,0,,5,,,77,127
209537,note_on,0,0,0,,7,,,67,127
209785,note_off,248,0,0,,7,,,67,127
209785,note_off,0,0,0,,5,,,77,127
209788,note_on,3,0,0,,4,,,76,127
209788,note_on,0,0,0,,7,,,67,127
210036,note_off,248,0,0,,7,,,67,127
210036,note_off,0,0,0,,4,,,76,127
210037,note_off,1,0,0,,1,,,73,127
210038,note_on,1,0,0,,5,,,77,127
210038,note_on,0,0,0,,0,,,72,127
210038,note_on,0,0,0,,8,,,68,127
210286,note_off,248,0,0,,8,,,68,127
210286,note_off,0,0,0,,0,,,72,127
210309,note_on,23,0,0,,7,,,67,127
210309,note_on,0,0,0,,5,,,65,127
210390,note_off,81,0,0,,5,,,65,127
210390,note_off,0,0,0,,7,,,67,127
210393,note_on,3,0,0,,4,,,64,127
210403,note_off,10,0,0,,5,,,77,127
210473,note_off,70,0,0,,4,,,64,127
210476,note_on,3,0,0,,5,,,65,127
210557,note_off,81,0,0,,5,,,65,127
210560,note_on,3,0,0,,5,,,65,127
210560,note_on,0,0,0,,0,,,72,127
210560,note_on,0,0,0,,5,,,77,127
210641,note_off,81,0,0,,5,,,77,127
210644,note_on,3,0,0,,7,,,79,127
210725,note_off,81,0,0,,7,,,79,127
210728,note_on,3,0,0,,8,,,80,127
210809,note_off,81,0,0,,8,,,80,127
210809,note_off,0,0,0,,0,,,72,127
210809,note_off,0,0,0,,5,,,65,127
210812,note_on,3,0,0,,5,,,65,127
210812,note_on,0,0,0,,7,,,79,127
211060,note_off,248,0,0,,7,,,79,127
211060,note_off,0,0,0,,5,,,65,127
211063,note_on,3,0,0,,7,,,55,127
211063,note_on,0,0,0,,5,,,65,127
211063,note_on,0,0,0,,5,,,77,127
211311,note_off,248,0,0,,5,,,77,127
211311,note_off,0,0,0,,5,,,65,127
211311,note_off,0,0,0,,7,,,55,127
211314,note_on,3,0,0,,7,,,55,127
211314,note_on,0,0,0,,5,,,65,127
211314,note_on,0,0,0,,12,,,71,127
211562,note_off,248,0,0,,12,,,71,127
211562,note_off,0,0,0,,5,,,65,127
211562,note_off,0,0,0,,7,,,55,127
211565,note_on,3,0,0,,8,,,56,127
211565,note_on,0,0,0,,3,,,63,127
211565,note_on,0,0,0,,0,,,72,127
211813,note_off,248,0,0,,0,,,72,127
211813,note_off,0,0,0,,3,,,63,127
211813,note_off,0,0,0,,8,,,56,127
211816,note_on,3,0,0,,5,,,53,127
211816,note_on,0,0,0,,5,,,65,127
211816,note_on,0,0,0,,7,,,79,127
211876,note_off,60,0,0,,7,,,79,127
211879,note_on,3,0,0,,5,,,77,127
211939,note_off,60,0,0,,5,,,77,127
211942,note_on,3,0,0,,3,,,75,127
212002,note_off,60,0,0,,3,,,75,127
212005,note_on,3,0,0,,2,,,74,127
212065,note_off,60,0,0,,2,,,74,127
212065,note_off,0,0,0,,5,,,65,127
212065,note_off,0,0,0,,5,,,53,127
212068,note_on,3,0,0,,7,,,55,127
212068,note_on,0,0,0,,3,,,63,127
212068,note_on,0,0,0,,0,,,72,127
212316,note_off,248,0,0,,0,,,72,127
212316,note_off,0,0,0,,3,,,63,127
212319,note_on,3,0,0,,2,,,62,127
212319,note_on,0,0,0,,12,,,71,127
212564,note_off,245,0,0,,7,,,55,127
212567,note_off,3,0,0,,12,,,71,127
212567,note_off,0,0,0,,2,,,62,127
212570,note_on,3,0,0,,0,,,60,127
212570,note_on,0,0,0,,12,,,71,127
212818,note_off,248,0,0,,0,,,60,127
212834,note_on,16,0,0,,0,,,48,127
213069,note_off,235,0,0,,12,,,71,127
213099,note_on,30,0,0,,0,,,72,127
213332,note_off,233,0,0,,0,,,48,127
213342,note_on,10,0,0,,7,,,67,127
213342,note_on,0,0,0,,5,,,65,127
213423,note_off,81,0,0,,5,,,65,127
213423,note_off,0,0,0,,7,,,67,127
213426,note_on,3,0,0,,4,,,64,127
213507,note_off,81,0,0,,4,,,64,127
213510,note_on,3,0,0,,5,,,65,127
213591,note_off,81,0,0,,5,,,65,127
213594,note_off,3,0,0,,0,,,72,127
213594,note_on,0,0,0,,11,,,82,127
213594,note_on,0,0,0,,5,,,65,127
213594,note_on,0,0,0,,0,,,72,127
213717,note_off,123,0,0,,11,,,82,127
213720,note_on,3,0,0,,8,,,80,127
213843,note_off,123,0,0,,8,,,80,127
213843,note_off,0,0,0,,0,,,72,127
213843,note_off,0,0,0,,5,,,65,127
213846,note_on,3,0,0,,7,,,79,127
213846,note_on,0,0,0,,1,,,73,127
213846,note_on,0,0,0,,5,,,65,127
214094,note_off,248,0,0,,5,,,65,127
214094,note_off,0,0,0,,1,,,73,127
214094,note_off,0,0,0,,7,,,79,127
214097,note_on,3,0,0,,5,,,77,127
214097,note_on,0,0,0,,1,,,73,127
214097,note_on,0,0,0,,7,,,67,127
214345,note_off,248,0,0,,7,,,67,127
214345,note_off,0,0,0,,5,,,77,127
214348,note_on,3,0,0,,4,,,76,127
214348,note_on,0,0,0,,7,,,67,127
214593,note_off,245,0,0,,1,,,73,127
214596,note_off,3,0,0,,7,,,67,127
214596,note_off,0,0,0,,4,,,76,127
214599,note_on,3,0,0,,5,,,77,127
214599,note_on,0,0,0,,0,,,72,127
214599,note_on,0,0,0,,8,,,68,127
214847,note_off,248,0,0,,8,,,68,127
214847,note_off,0,0,0,,0,,,72,127
214850,note_on,3,0,0,,5,,,65,127
214850,note_on,0,0,0,,7,,,67,127
214931,note_off,81,0,0,,7,,,67,127
214931,note_off,0,0,0,,5,,,65,127
214934,note_on,3,0,0,,4,,,64,127
214965,note_off,31,0,0,,5,,,77,127
215015,note_off,50,0,0,,4,,,64,127
215018,note_on,3,0,0,,5,,,65,127
215099,note_off,81,0,0,,5,,,65,127
215102,note_on,3,0,0,,11,,,82,127
215102,note_on,0,0,0,,8,,,80,127
215102,note_on,0,0,0,,0,,,72,127
215102,note_on,0,0,0,,5,,,65,127
215350,note_off,248,0,0,,5,,,65,127
215350,note_off,0,0,0,,0,,,72,127
215350,note_off,0,0,0,,8,,,80,127
215350,note_off,0,0,0,,11,,,82,127
215353,note_on,3,0,0,,7,,,79,127
215353,note_on,0,0,0,,1,,,73,127
215353,note_on,0,0,0,,5,,,65,127
215601,note_off,248,0,0,,5,,,65,127
215601,note_off,0,0,0,,1,,,73,127
215601,note_off,0,0,0,,7,,,79,127
215604,note_on,3,0,0,,5,,,77,127
215604,note_on,0,0,0,,1,,,73,127
215604,note_on,0,0,0,,7,,,67,127
215852,note_off,248,0,0,,7,,,67,127
215852,note_off,0,0,0,,5,,,77,127
215855,note_on,3,0,0,,4,,,76,127
215855,note_on,0,0,0,,7,,,67,127
216100,note_off,245,0,0,,1,,,73,127
216103,note_off,3,0,0,,7,,,67,127
216103,note_off,0,0,0,,4,,,76,127
216106,note_on,3,0,0,,5,,,77,127
216106,note_on,0,0,0,,0,,,72,127
216106,note_on,0,0,0,,8,,,68,127
216354,note_off,248,0,0,,8,,,68,127
216354,note_off,0,0,0,,0,,,72,127
216357,note_on,3,0,0,,7,,,67,127
216357,note_on,0,0,0,,5,,,65,127
216438,note_off,81,0,0,,5,,,65,127
216438,note_off,0,0,0,,7,,,67,127
216441,note_on,3,0,0,,4,,,64,127
216472,note_off,31,0,0,,5,,,77,127
216522,note_off,50,0,0,,4,,,64,127
216525,note_on,3,0,0,,5,,,65,127
216606,note_off,81,0,0,,5,,,65,127
216609,note_on,3,0,0,,5,,,77,127
216609,note_on,0,0,0,,0,,,72,127
216609,note_on,0,0,0,,5,,,65,127
216685,note_on,76,0,0,,7,,,79,127
216729,note_on,44,0,0,,8,,,80,127
216737,note_off,8,0,0,,7,,,79,127
216824,note_off,87,0,0,,5,,,77,127
216846,note_off,22,0,0,,8,,,80,127
216856,note_off,10,0,0,,5,,,65,127
216856,note_off,0,0,0,,0,,,72,127
216859,note_on,3,0,0,,7,,,79,127
216859,note_on,0,0,0,,5,,,65,127
217107,note_off,248,0,0,,5,,,65,127
217107,note_off,0,0,0,,7,,,79,127
217110,note_on,3,0,0,,5,,,77,127
217110,note_on,0,0,0,,7,,,55,127
217110,note_on,0,0,0,,5,,,65,127
217358,note_off,248,0,0,,5,,,65,127
217358,note_off,0,0,0,,7,,,55,127
217361,note_on,3,0,0,,7,,,55,127
217361,note_on,0,0,0,,12,,,71,127
217361,note_on,0,0,0,,5,,,65,127
217398,note_off,37,0,0,,5,,,77,127
217609,note_off,211,0,0,,5,,,65,127
217609,note_off,0,0,0,,12,,,71,127
217609,note_off,0,0,0,,7,,,55,127
217612,note_on,3,0,0,,8,,,56,127
217612,note_on,0,0,0,,0,,,72,127
217612,note_on,0,0,0,,3,,,63,127
217860,note_off,248,0,0,,3,,,63,127
217860,note_off,0,0,0,,0,,,72,127
217860,note_off,0,0,0,,8,,,56,127
217863,note_on,3,0,0,,7,,,79,127
217863,note_on,0,0,0,,5,,,65,127
217863,note_on,0,0,0,,5,,,53,127
217923,note_off,60,0,0,,7,,,79,127
217926,note_on,3,0,0,,5,,,77,127
217986,note_off,60,0,0,,5,,,77,127
217989,note_on,3,0,0,,3,,,75,127
218049,note_off,60,0,0,,3,,,75,127
218052,note_on,3,0,0,,2,,,74,127
218112,note_off,60,0,0,,2,,,74,127
218112,note_off,0,0,0,,5,,,53,127
218112,note_off,0,0,0,,5,,,65,127
218115,note_on,3,0,0,,0,,,72,127
218115,note_on,0,0,0,,3,,,63,127
218115,note_on,0,0,0,,7,,,55,127
218363,note_off,248,0,0,,3,,,63,127
218363,note_off,0,0,0,,0,,,72,127
218366,note_on,3,0,0,,12,,,71,127
218366,note_on,0,0,0,,2,,,62,127
218611,note_off,245,0,0,,7,,,55,127
218614,note_off,3,0,0,,2,,,62,127
218614,note_off,0,0,0,,12,,,71,127
218617,note_on,3,0,0,,0,,,72,127
218617,note_on,0,0,0,,3,,,63,127
218617,note_on,0,0,0,,0,,,60,127
218865,note_off,248,0,0,,0,,,60,127
218865,note_off,0,0,0,,3,,,63,127
218868,note_on,3,0,0,,0,,,84,127
218868,note_on,0,0,0,,5,,,65,127
218868,note_on,0,0,0,,2,,,62,127
219116,note_off,248,0,0,,2,,,62,127
219116,note_off,0,0,0,,5,,,65,127
219119,note_on,3,0,0,,7,,,67,127
219119,note_on,0,0,0,,3,,,63,127
219367,note_off,248,0,0,,3,,,63,127
219367,note_off,0,0,0,,7,,,67,127
219367,note_off,0,0,0,,0,,,84,127
219368,note_off,1,0,0,,0,,,72,127
219369,note_on,1,0,0,,8,,,80,127
219369,note_on,0,0,0,,8,,,68,127
219369,note_on,0,0,0,,5,,,65,127
219450,note_off,81,0,0,,8,,,80,127
219453,note_on,3,0,0,,5,,,77,127
219534,note_off,81,0,0,,5,,,77,127
219537,note_on,3,0,0,,2,,,74,127
219618,note_off,81,0,0,,2,,,74,127
219618,note_off,0,0,0,,5,,,65,127
219618,note_off,0,0,0,,8,,,68,127
219621,note_on,3,0,0,,0,,,72,127
219621,note_on,0,0,0,,7,,,67,127
219869,note_off,248,0,0,,7,,,67,127
219869,note_off,0,0,0,,0,,,72,127
219872,note_on,3,0,0,,12,,,71,127
219872,note_on,0,0,0,,7,,,55,127
220120,note_off,248,0,0,,7,,,55,127
220120,note_off,0,0,0,,12,,,71,127
220123,note_on,3,0,0,,0,,,72,127
220123,note_on,0,0,0,,0,,,60,127
220123,note_on,0,0,0,,3,,,63,127
220371,note_off,248,0,0,,3,,,63,127
220371,note_off,0,0,0,,0,,,60,127
220374,note_on,3,0,0,,0,,,84,127
220374,note_on,0,0,0,,2,,,62,127
220374,note_on,0,0,0,,5,,,65,127
220489,note_off,115,0,0,,0,,,72,127
220622,note_off,133,0,0,,5,,,65,127
220622,note_off,0,0,0,,2,,,62,127
220625,note_on,3,0,0,,7,,,67,127
220625,note_on,0,0,0,,3,,,63,127
220873,note_off,248,0,0,,3,,,63,127
220873,note_off,0,0,0,,7,,,67,127
220873,note_off,0,0,0,,0,,,84,127
220876,note_on,3,0,0,,8,,,80,127
220876,note_on,0,0,0,,8,,,68,127
220876,note_on,0,0,0,,5,,,65,127
220957,note_off,81,0,0,,8,,,80,127
220960,note_on,3,0,0,,5,,,77,127
221041,note_off,81,0,0,,5,,,77,127
221044,note_on,3,0,0,,2,,,74,127
221125,note_off,81,0,0,,2,,,74,127
221125,note_off,0,0,0,,5,,,65,127
221125,note_off,0,0,0,,8,,,68,127
221128,note_on,3,0,0,,0,,,72,127
221128,note_on,0,0,0,,7,,,67,127
221376,note_off,248,0,0,,7,,,67,127
221376,note_off,0,0,0,,0,,,72,127
221379,note_on,3,0,0,,12,,,71,127
221379,note_on,0,0,0,,7,,,55,127
221614,note_off,235,0,0,,12,,,71,127
221627,note_off,13,0,0,,7,,,55,127
221637,note_on,10,0,0,,0,,,48,127
221637,note_on,0,0,0,,3,,,51,127
221885,note_off,248,0,0,,3,,,51,127
221885,note_off,0,0,0,,0,,,48,127
221901,note_on,16,0,0,,2,,,50,127
221901,note_on,0,0,0,,5,,,53,127
221901,note_on,0,0,0,,7,,,67,127
221901,note_on,0,0,0,,7,,,79,127
221901,note_on,0,0,0,,3,,,75,127
221901,note_on,0,0,0,,0,,,72,127
222149,note_off,248,0,0,,5,,,53,127
222149,note_off,0,0,0,,2,,,50,127
222152,note_on,3,0,0,,3,,,51,127
222152,note_on,0,0,0,,7,,,55,127
222400,note_off,248,0,0,,7,,,55,127
222400,note_off,0,0,0,,3,,,51,127
222400,note_off,0,0,0,,0,,,72,127
222400,note_off,0,0,0,,3,,,75,127
222400,note_off,0,0,0,,7,,,79,127
222400,note_off,0,0,0,,7,,,67,127
222403,note_on,3,0,0,,8,,,56,127
222403,note_on,0,0,0,,5,,,53,127
222403,note_on,0,0,0,,5,,,77,127
222484,note_off,81,0,0,,5,,,77,127
222487,note_on,3,0,0,,3,,,75,127
222568,note_off,81,0,0,,3,,,75,127
222571,note_on,3,0,0,,2,,,74,127
222652,note_off,81,0,0,,2,,,74,127
222652,note_off,0,0,0,,5,,,53,127
222652,note_off,0,0,0,,8,,,56,127
222655,note_on,3,0,0,,7,,,55,127
222655,note_on,0,0,0,,3,,,63,127
222655,note_on,0,0,0,,0,,,72,127
222903,note_off,248,0,0,,0,,,72,127
222903,note_off,0,0,0,,3,,,63,127
222903,note_off,0,0,0,,7,,,55,127
222906,note_on,3,0,0,,5,,,53,127
222906,note_on,0,0,0,,2,,,62,127
222906,note_on,0,0,0,,12,,,71,127
223141,note_off,235,0,0,,12,,,71,127
223154,note_off,13,0,0,,2,,,62,127
223154,note_off,0,0,0,,5,,,53,127
223162,note_on,8,0,0,,0,,,60,127
223162,note_on,0,0,0,,3,,,51,127
223410,note_off,248,0,0,,3,,,51,127
223410,note_off,0,0,0,,0,,,60,127
223428,note_on,18,0,0,,7,,,79,127
223428,note_on,0,0,0,,7,,,67,127
223428,note_on,0,0,0,,0,,,72,127
223428,note_on,0,0,0,,3,,,75,127
223428,note_on,0,0,0,,2,,,50,127
223428,note_on,0,0,0,,5,,,53,127
223676,note_off,248,0,0,,5,,,53,127
223676,note_off,0,0,0,,2,,,50,127
223679,note_on,3,0,0,,0,,,48,127
223679,note_on,0,0,0,,3,,,51,127
223927,note_off,248,0,0,,3,,,51,127
223927,note_off,0,0,0,,0,,,48,127
223927,note_off,0,0,0,,3,,,75,127
223927,note_off,0,0,0,,0,,,72,127
223927,note_off,0,0,0,,7,,,67,127
223927,note_off,0,0,0,,7,,,79,127
223930,note_on,3,0,0,,7,,,79,127
223930,note_on,0,0,0,,5,,,53,127
223990,note_off,60,0,0,,7,,,79,127
223993,note_on,3,0,0,,5,,,77,127
224053,note_off,60,0,0,,5,,,77,127
224056,note_on,3,0,0,,3,,,75,127
224116,note_off,60,0,0,,3,,,75,127
224119,note_on,3,0,0,,2,,,74,127
224179,note_off,60,0,0,,2,,,74,127
224179,note_off,0,0,0,,5,,,53,127
224182,note_on,3,0,0,,0,,,72,127
224182,note_on,0,0,0,,3,,,63,127
224182,note_on,0,0,0,,7,,,55,127
224430,note_off,248,0,0,,7,,,55,127
224430,note_off,0,0,0,,3,,,63,127
224430,note_off,0,0,0,,0,,,72,127
224433,note_on,3,0,0,,2,,,62,127
224433,note_on,0,0,0,,12,,,71,127
224433,note_on,0,0,0,,7,,,43,127
224681,note_off,248,0,0,,7,,,43,127
224681,note_off,0,0,0,,12,,,71,127
224681,note_off,0,0,0,,2,,,62,127
224684,note_on,3,0,0,,12,,,71,127
224684,note_on,0,0,0,,0,,,60,127
224684,note_on,0,0,0,,0,,,48,127
225182,note_off,498,0,0,,12,,,71,127
225185,note_on,3,0,0,,0,,,72,127
225433,note_off,248,0,0,,0,,,48,127
225433,note_off,0,0,0,,0,,,60,127
225436,note_on,3,0,0,,2,,,62,127
225436,note_on,0,0,0,,0,,,60,127
225517,note_off,81,0,0,,0,,,60,127
225517,note_off,0,0,0,,2,,,62,127
225520,note_on,3,0,0,,12,,,59,127
225551,note_off,31,0,0,,0,,,72,127
225601,note_off,50,0,0,,12,,,59,127
225604,note_on,3,0,0,,0,,,60,127
225685,note_off,81,0,0,,0,,,60,127
225688,note_on,3,0,0,,0,,,60,127
225936,note_off,248,0,0,,0,,,60,127
225939,note_on,3,0,0,,0,,,60,127
226187,note_off,248,0,0,,0,,,60,127
226190,note_on,3,0,0,,1,,,61,127
226438,note_off,248,0,0,,1,,,61,127
226441,note_on,3,0,0,,5,,,65,127
226441,note_on,0,0,0,,2,,,62,127
226689,note_off,248,0,0,,2,,,62,127
226692,note_on,3,0,0,,3,,,63,127
226807,note_off,115,0,0,,5,,,65,127
226940,note_off,133,0,0,,3,,,63,127
226943,note_on,3,0,0,,7,,,67,127
226943,note_on,0,0,0,,4,,,64,127
227191,note_off,248,0,0,,4,,,64,127
227191,note_off,0,0,0,,7,,,67,127
227194,note_on,3,0,0,,8,,,68,127
227194,note_on,0,0,0,,5,,,65,127
227442,note_off,248,0,0,,5,,,65,127
227442,note_off,0,0,0,,8,,,68,127
227445,note_on,3,0,0,,11,,,70,127
227445,note_on,0,0,0,,0,,,60,127
227693,note_off,248,0,0,,0,,,60,127
227693,note_off,0,0,0,,11,,,70,127
227696,note_on,3,0,0,,11,,,70,127
227696,note_on,0,0,0,,5,,,65,127
227756,note_off,60,0,0,,11,,,70,127
227759,note_on,3,0,0,,8,,,68,127
227819,note_off,60,0,0,,8,,,68,127
227822,note_on,3,0,0,,11,,,70,127
227882,note_off,60,0,0,,11,,,70,127
227885,note_on,3,0,0,,8,,,68,127
227945,note_off,60,0,0,,8,,,68,127
227945,note_off,0,0,0,,5,,,65,127
227948,note_on,3,0,0,,11,,,70,127
227948,note_on,0,0,0,,5,,,53,127
228008,note_off,60,0,0,,11,,,70,127
228011,note_on,3,0,0,,8,,,68,127
228071,note_off,60,0,0,,8,,,68,127
228074,note_on,3,0,0,,7,,,67,127
228197,note_off,123,0,0,,7,,,67,127
228200,note_on,3,0,0,,5,,,65,127
228448,note_off,248,0,0,,5,,,53,127
228449,note_off,1,0,0,,5,,,65,127
228461,note_on,12,0,0,,7,,,67,127
228461,note_on,0,0,0,,5,,,65,127
228542,note_off,81,0,0,,5,,,65,127
228542,note_off,0,0,0,,7,,,67,127
228545,note_on,3,0,0,,4,,,64,127
228626,note_off,81,0,0,,4,,,64,127
228629,note_on,3,0,0,,5,,,65,127
228710,note_off,81,0,0,,5,,,65,127
228713,note_on,3,0,0,,5,,,65,127
228961,note_off,248,0,0,,5,,,65,127
228964,note_on,3,0,0,,7,,,67,127
229212,note_off,248,0,0,,7,,,67,127
229215,note_on,3,0,0,,8,,,68,127
229463,note_off,248,0,0,,8,,,68,127
229466,note_on,3,0,0,,0,,,72,127
229466,note_on,0,0,0,,10,,,69,127
229714,note_off,248,0,0,,10,,,69,127
229717,note_on,3,0,0,,11,,,70,127
229832,note_off,115,0,0,,0,,,72,127
229965,note_off,133,0,0,,11,,,70,127
229968,note_on,3,0,0,,2,,,74,127
229968,note_on,0,0,0,,12,,,71,127
230216,note_off,248,0,0,,12,,,71,127
230216,note_off,0,0,0,,2,,,74,127
230219,note_on,3,0,0,,4,,,76,127
230219,note_on,0,0,0,,0,,,72,127
230467,note_off,248,0,0,,0,,,72,127
230467,note_off,0,0,0,,4,,,76,127
230470,note_on,3,0,0,,5,,,77,127
230470,note_on,0,0,0,,7,,,67,127
230718,note_off,248,0,0,,7,,,67,127
230718,note_off,0,0,0,,5,,,77,127
230721,note_on,3,0,0,,5,,,77,127
230721,note_on,0,0,0,,0,,,72,127
230781,note_off,60,0,0,,5,,,77,127
230784,note_on,3,0,0,,4,,,76,127
230844,note_off,60,0,0,,4,,,76,127
230847,note_on,3,0,0,,5,,,77,127
230907,note_off,60,0,0,,5,,,77,127
230910,note_on,3,0,0,,4,,,76,127
230970,note_off,60,0,0,,4,,,76,127
230970,note_off,0,0,0,,0,,,72,127
230973,note_on,3,0,0,,5,,,77,127
230973,note_on,0,0,0,,0,,,60,127
231033,note_off,60,0,0,,5,,,77,127
231036,note_on,3,0,0,,4,,,76,127
231086,note_on,50,0,0,,2,,,74,127
231096,note_off,10,0,0,,4,,,76,127
231135,note_on,39,0,0,,4,,,76,127
231145,note_off,10,0,0,,2,,,74,127
231184,note_on,39,0,0,,5,,,77,127
231194,note_off,10,0,0,,4,,,76,127
231233,note_on,39,0,0,,7,,,79,127
231243,note_off,10,0,0,,5,,,77,127
231470,note_off,227,0,0,,0,,,60,127
231528,note_on,58,0,0,,4,,,64,127
231528,note_on,0,0,0,,0,,,60,127
231598,note_off,70,0,0,,7,,,79,127
231776,note_off,178,0,0,,0,,,60,127
231776,note_off,0,0,0,,4,,,64,127
231789,note_on,13,0,0,,8,,,68,127
231789,note_on,0,0,0,,0,,,60,127
231789,note_on,0,0,0,,4,,,64,127
231849,note_off,60,0,0,,8,,,68,127
231852,note_on,3,0,0,,7,,,67,127
231912,note_off,60,0,0,,7,,,67,127
231915,note_on,3,0,0,,8,,,68,127
231975,note_off,60,0,0,,8,,,68,127
231978,note_on,3,0,0,,7,,,67,127
232038,note_off,60,0,0,,7,,,67,127
232038,note_off,0,0,0,,4,,,64,127
232038,note_off,0,0,0,,0,,,60,127
232041,note_on,3,0,0,,8,,,68,127
232041,note_on,0,0,0,,4,,,64,127
232041,note_on,0,0,0,,0,,,60,127
232101,note_off,60,0,0,,8,,,68,127
232104,note_on,3,0,0,,7,,,67,127
232164,note_off,60,0,0,,7,,,67,127
232167,note_on,3,0,0,,5,,,65,127
232227,note_off,60,0,0,,5,,,65,127
232230,note_on,3,0,0,,7,,,67,127
232290,note_off,60,0,0,,7,,,67,127
232290,note_off,0,0,0,,0,,,60,127
232290,note_off,0,0,0,,4,,,64,127
232293,note_on,3,0,0,,8,,,68,127
232293,note_on,0,0,0,,2,,,62,127
232293,note_on,0,0,0,,5,,,65,127
232353,note_off,60,0,0,,8,,,68,127
232356,note_on,3,0,0,,12,,,71,127
232416,note_off,60,0,0,,12,,,71,127
232419,note_on,3,0,0,,0,,,72,127
232479,note_off,60,0,0,,0,,,72,127
232482,note_on,3,0,0,,2,,,74,127
232542,note_off,60,0,0,,2,,,74,127
232542,note_off,0,0,0,,5,,,65,127
232542,note_off,0,0,0,,2,,,62,127
232545,note_on,3,0,0,,2,,,74,127
232545,note_on,0,0,0,,2,,,62,127
232545,note_on,0,0,0,,5,,,65,127
232605,note_off,60,0,0,,2,,,74,127
232608,note_on,3,0,0,,0,,,72,127
232671,note_on,63,0,0,,12,,,71,127
232705,note_off,34,0,0,,0,,,72,127
232731,note_off,26,0,0,,12,,,71,127
232734,note_on,3,0,0,,0,,,72,127
232794,note_off,60,0,0,,0,,,72,127
232794,note_off,0,0,0,,5,,,65,127
232794,note_off,0,0,0,,2,,,62,127
232797,note_on,3,0,0,,2,,,74,127
232797,note_on,0,0,0,,2,,,62,127
232797,note_on,0,0,0,,5,,,65,127
233032,note_off,235,0,0,,2,,,74,127
233045,note_off,13,0,0,,5,,,65,127
233045,note_off,0,0,0,,2,,,62,127
233048,note_on,3,0,0,,0,,,60,127
233048,note_on,0,0,0,,4,,,64,127
233296,note_off,248,0,0,,4,,,64,127
233296,note_off,0,0,0,,0,,,60,127
233299,note_on,3,0,0,,8,,,68,127
233299,note_on,0,0,0,,0,,,60,127
233299,note_on,0,0,0,,4,,,64,127
233359,note_off,60,0,0,,8,,,68,127
233362,note_on,3,0,0,,7,,,67,127
233422,note_off,60,0,0,,7,,,67,127
233425,note_on,3,0,0,,8,,,68,127
233485,note_off,60,0,0,,8,,,68,127
233488,note_on,3,0,0,,7,,,67,127
233548,note_off,60,0,0,,7,,,67,127
233548,note_off,0,0,0,,4,,,64,127
233548,note_off,0,0,0,,0,,,60,127
233551,note_on,3,0,0,,8,,,68,127
233551,note_on,0,0,0,,4,,,64,127
233551,note_on,0,0,0,,0,,,60,127
233611,note_off,60,0,0,,8,,,68,127
233614,note_on,3,0,0,,7,,,67,127
233674,note_off,60,0,0,,7,,,67,127
233677,note_on,3,0,0,,5,,,65,127
233737,note_off,60,0,0,,5,,,65,127
233740,note_on,3,0,0,,7,,,67,127
233800,note_off,60,0,0,,7,,,67,127
233800,note_off,0,0,0,,0,,,60,127
233800,note_off,0,0,0,,4,,,64,127
233803,note_on,3,0,0,,8,,,68,127
233803,note_on,0,0,0,,5,,,65,127
233803,note_on,0,0,0,,12,,,59,127
233863,note_off,60,0,0,,8,,,68,127
233866,note_on,3,0,0,,12,,,71,127
233926,note_off,60,0,0,,12,,,71,127
233929,note_on,3,0,0,,0,,,72,127
233989,note_off,60,0,0,,0,,,72,127
233992,note_on,3,0,0,,2,,,74,127
234052,note_off,60,0,0,,2,,,74,127
234052,note_off,0,0,0,,12,,,59,127
234052,note_off,0,0,0,,5,,,65,127
234055,note_on,3,0,0,,2,,,74,127
234055,note_on,0,0,0,,5,,,65,127
234055,note_on,0,0,0,,12,,,59,127
234115,note_off,60,0,0,,2,,,74,127
234118,note_on,3,0,0,,0,,,72,127
234178,note_off,60,0,0,,0,,,72,127
234181,note_on,3,0,0,,12,,,71,127
234241,note_off,60,0,0,,12,,,71,127
234244,note_on,3,0,0,,0,,,72,127
234304,note_off,60,0,0,,0,,,72,127
234304,note_off,0,0,0,,12,,,59,127
234304,note_off,0,0,0,,5,,,65,127
234307,note_on,3,0,0,,2,,,74,127
234307,note_on,0,0,0,,5,,,65,127
234307,note_on,0,0,0,,12,,,59,127
234542,note_off,235,0,0,,2,,,74,127
234555,note_off,13,0,0,,12,,,59,127
234555,note_off,0,0,0,,5,,,65,127
234558,note_on,3,0,0,,4,,,64,127
234558,note_on,0,0,0,,0,,,60,127
234558,note_on,0,0,0,,11,,,58,127
234806,note_off,248,0,0,,11,,,58,127
234806,note_off,0,0,0,,0,,,60,127
234806,note_off,0,0,0,,4,,,64,127
234809,note_on,3,0,0,,0,,,72,127
234809,note_on,0,0,0,,4,,,64,127
234809,note_on,0,0,0,,0,,,60,127
234809,note_on,0,0,0,,11,,,58,127
234869,note_off,60,0,0,,0,,,72,127
234872,note_on,3,0,0,,11,,,70,127
234932,note_off,60,0,0,,11,,,70,127
234935,note_on,3,0,0,,0,,,72,127
234995,note_off,60,0,0,,0,,,72,127
234998,note_on,3,0,0,,11,,,70,127
235058,note_off,60,0,0,,11,,,70,127
235058,note_off,0,0,0,,11,,,58,127
235058,note_off,0,0,0,,0,,,60,127
235058,note_off,0,0,0,,4,,,64,127
235061,note_on,3,0,0,,0,,,72,127
235061,note_on,0,0,0,,0,,,60,127
235061,note_on,0,0,0,,4,,,64,127
235061,note_on,0,0,0,,11,,,58,127
235121,note_off,60,0,0,,0,,,72,127
235124,note_on,3,0,0,,11,,,70,127
235184,note_off,60,0,0,,11,,,70,127
235187,note_on,3,0,0,,0,,,72,127
235247,note_off,60,0,0,,0,,,72,127
235250,note_on,3,0,0,,1,,,73,127
235310,note_off,60,0,0,,1,,,73,127
235310,note_off,0,0,0,,11,,,58,127
235310,note_off,0,0,0,,4,,,64,127
235310,note_off,0,0,0,,0,,,60,127
235313,note_on,3,0,0,,0,,,72,127
235313,note_on,0,0,0,,8,,,56,127
235313,note_on,0,0,0,,5,,,65,127
235313,note_on,0,0,0,,0,,,60,127
235373,note_off,60,0,0,,0,,,72,127
235376,note_on,3,0,0,,2,,,74,127
235436,note_off,60,0,0,,2,,,74,127
235439,note_on,3,0,0,,4,,,76,127
235499,note_off,60,0,0,,4,,,76,127
235502,note_on,3,0,0,,5,,,77,127
235562,note_off,60,0,0,,5,,,77,127
235562,note_off,0,0,0,,0,,,60,127
235562,note_off,0,0,0,,5,,,65,127
235562,note_off,0,0,0,,8,,,56,127
235565,note_on,3,0,0,,5,,,77,127
235565,note_on,0,0,0,,5,,,65,127
235565,note_on,0,0,0,,8,,,56,127
235565,note_on,0,0,0,,0,,,60,127
235625,note_off,60,0,0,,5,,,77,127
235628,note_on,3,0,0,,4,,,76,127
235688,note_off,60,0,0,,4,,,76,127
235691,note_on,3,0,0,,2,,,74,127
235751,note_off,60,0,0,,2,,,74,127
235754,note_on,3,0,0,,4,,,76,127
235814,note_off,60,0,0,,4,,,76,127
235814,note_off,0,0,0,,0,,,60,127
235814,note_off,0,0,0,,8,,,56,127
235814,note_off,0,0,0,,5,,,65,127
235817,note_on,3,0,0,,5,,,77,127
235817,note_on,0,0,0,,5,,,65,127
235817,note_on,0,0,0,,8,,,56,127
235817,note_on,0,0,0,,0,,,60,127
236052,note_off,235,0,0,,5,,,77,127
236065,note_off,13,0,0,,0,,,60,127
236065,note_off,0,0,0,,8,,,56,127
236065,note_off,0,0,0,,5,,,65,127
236068,note_on,3,0,0,,4,,,64,127
236068,note_on,0,0,0,,11,,,58,127
236068,note_on,0,0,0,,0,,,60,127
236316,note_off,248,0,0,,0,,,60,127
236316,note_off,0,0,0,,11,,,58,127
236316,note_off,0,0,0,,4,,,64,127
236319,note_on,3,0,0,,0,,,72,127
236319,note_on,0,0,0,,0,,,60,127
236319,note_on,0,0,0,,4,,,64,127
236319,note_on,0,0,0,,11,,,58,127
236379,note_off,60,0,0,,0,,,72,127
236382,note_on,3,0,0,,11,,,70,127
236442,note_off,60,0,0,,11,,,70,127
236445,note_on,3,0,0,,0,,,72,127
236505,note_off,60,0,0,,0,,,72,127
236508,note_on,3,0,0,,11,,,70,127
236568,note_off,60,0,0,,11,,,70,127
236568,note_off,0,0,0,,11,,,58,127
236568,note_off,0,0,0,,4,,,64,127
236568,note_off,0,0,0,,0,,,60,127
236571,note_on,3,0,0,,0,,,72,127
236571,note_on,0,0,0,,4,,,64,127
236571,note_on,0,0,0,,11,,,58,127
236571,note_on,0,0,0,,0,,,60,127
236631,note_off,60,0,0,,0,,,72,127
236634,note_on,3,0,0,,11,,,70,127
236694,note_off,60,0,0,,11,,,70,127
236697,note_on,3,0,0,,0,,,72,127
236757,note_off,60,0,0,,0,,,72,127
236760,note_on,3,0,0,,1,,,73,127
236820,note_off,60,0,0,,1,,,73,127
236820,note_off,0,0,0,,0,,,60,127
236820,note_off,0,0,0,,11,,,58,127
236820,note_off,0,0,0,,4,,,64,127
236823,note_on,3,0,0,,0,,,72,127
236823,note_on,0,0,0,,0,,,60,127
236823,note_on,0,0,0,,5,,,65,127
236823,note_on,0,0,0,,8,,,56,127
236883,note_off,60,0,0,,0,,,72,127
236886,note_on,3,0,0,,2,,,74,127
236946,note_off,60,0,0,,2,,,74,127
236949,note_on,3,0,0,,4,,,76,127
237009,note_off,60,0,0,,4,,,76,127
237012,note_on,3,0,0,,5,,,77,127
237072,note_off,60,0,0,,5,,,77,127
237072,note_off,0,0,0,,8,,,56,127
237072,note_off,0,0,0,,5,,,65,127
237072,note_off,0,0,0,,0,,,60,127
237075,note_on,3,0,0,,5,,,77,127
237075,note_on,0,0,0,,8,,,56,127
237075,note_on,0,0,0,,5,,,65,127
237075,note_on,0,0,0,,0,,,60,127
237135,note_off,60,0,0,,5,,,77,127
237138,note_on,3,0,0,,4,,,76,127
237198,note_off,60,0,0,,4,,,76,127
237201,note_on,3,0,0,,2,,,74,127
237261,note_off,60,0,0,,2,,,74,127
237264,note_on,3,0,0,,4,,,76,127
237324,note_off,60,0,0,,4,,,76,127
237324,note_off,0,0,0,,0,,,60,127
237324,note_off,0,0,0,,5,,,65,127
237324,note_off,0,0,0,,8,,,56,127
237327,note_on,3,0,0,,5,,,77,127
237327,note_on,0,0,0,,8,,,56,127
237327,note_on,0,0,0,,0,,,60,127
237327,note_on,0,0,0,,5,,,65,127
237575,note_off,248,0,0,,5,,,65,127
237575,note_off,0,0,0,,0,,,60,127
237575,note_off,0,0,0,,8,,,56,127
237578,note_on,3,0,0,,6,,,54,127
237578,note_on,0,0,0,,11,,,58,127
237578,note_on,0,0,0,,3,,,63,127
237771,note_off,193,0,0,,5,,,77,127
237826,note_off,55,0,0,,3,,,63,127
237826,note_off,0,0,0,,11,,,58,127
237826,note_off,0,0,0,,6,,,54,127
237829,note_on,3,0,0,,5,,,77,127
237829,note_on,0,0,0,,6,,,54,127
237829,note_on,0,0,0,,3,,,63,127
237829,note_on,0,0,0,,11,,,58,127
237889,note_off,60,0,0,,5,,,77,127
237892,note_on,3,0,0,,3,,,75,127
237952,note_off,60,0,0,,3,,,75,127
237955,note_on,3,0,0,,5,,,77,127
238015,note_off,60,0,0,,5,,,77,127
238018,note_on,3,0,0,,3,,,75,127
238078,note_off,60,0,0,,3,,,75,127
238078,note_off,0,0,0,,11,,,58,127
238078,note_off,0,0,0,,3,,,63,127
238078,note_off,0,0,0,,6,,,54,127
238081,note_on,3,0,0,,5,,,77,127
238081,note_on,0,0,0,,11,,,58,127
238081,note_on,0,0,0,,3,,,63,127
238081,note_on,0,0,0,,6,,,54,127
238141,note_off,60,0,0,,5,,,77,127
238144,note_on,3,0,0,,3,,,75,127
238204,note_off,60,0,0,,3,,,75,127
238207,note_on,3,0,0,,5,,,77,127
238267,note_off,60,0,0,,5,,,77,127
238270,note_on,3,0,0,,6,,,78,127
238330,note_off,60,0,0,,6,,,78,127
238330,note_off,0,0,0,,6,,,54,127
238330,note_off,0,0,0,,3,,,63,127
238330,note_off,0,0,0,,11,,,58,127
238333,note_on,3,0,0,,10,,,81,127
238333,note_on,0,0,0,,0,,,60,127
238333,note_on,0,0,0,,3,,,63,127
238333,note_on,0,0,0,,5,,,53,127
238393,note_off,60,0,0,,10,,,81,127
238396,note_on,3,0,0,,11,,,82,127
238456,note_off,60,0,0,,11,,,82,127
238459,note_on,3,0,0,,0,,,84,127
238519,note_off,60,0,0,,0,,,84,127
238522,note_on,3,0,0,,11,,,82,127
238582,note_off,60,0,0,,11,,,82,127
238582,note_off,0,0,0,,5,,,53,127
238582,note_off,0,0,0,,3,,,63,127
238582,note_off,0,0,0,,0,,,60,127
238585,note_on,3,0,0,,0,,,84,127
238585,note_on,0,0,0,,5,,,53,127
238585,note_on,0,0,0,,0,,,60,127
238585,note_on,0,0,0,,3,,,63,127
238645,note_off,60,0,0,,0,,,84,127
238648,note_on,3,0,0,,11,,,82,127
238708,note_off,60,0,0,,11,,,82,127
238711,note_on,3,0,0,,10,,,81,127
238771,note_off,60,0,0,,10,,,81,127
238774,note_on,3,0,0,,11,,,82,127
238834,note_off,60,0,0,,11,,,82,127
238834,note_off,0,0,0,,3,,,63,127
238834,note_off,0,0,0,,0,,,60,127
238834,note_off,0,0,0,,5,,,53,127
238837,note_on,3,0,0,,0,,,84,127
238837,note_on,0,0,0,,3,,,63,127
238837,note_on,0,0,0,,5,,,53,127
238837,note_on,0,0,0,,0,,,60,127
239072,note_off,235,0,0,,0,,,84,127
239085,note_off,13,0,0,,0,,,60,127
239085,note_off,0,0,0,,5,,,53,127
239085,note_off,0,0,0,,3,,,63,127
239088,note_on,3,0,0,,3,,,63,127
239088,note_on,0,0,0,,11,,,58,127
239088,note_on,0,0,0,,6,,,54,127
239336,note_off,248,0,0,,6,,,54,127
239336,note_off,0,0,0,,11,,,58,127
239336,note_off,0,0,0,,3,,,63,127
239339,note_on,3,0,0,,5,,,77,127
239339,note_on,0,0,0,,6,,,54,127
239339,note_on,0,0,0,,11,,,58,127
239339,note_on,0,0,0,,3,,,63,127
239399,note_off,60,0,0,,5,,,77,127
239402,note_on,3,0,0,,3,,,75,127
239462,note_off,60,0,0,,3,,,75,127
239465,note_on,3,0,0,,5,,,77,127
239525,note_off,60,0,0,,5,,,77,127
239528,note_on,3,0,0,,3,,,75,127
239588,note_off,60,0,0,,3,,,75,127
239588,note_off,0,0,0,,3,,,63,127
239588,note_off,0,0,0,,11,,,58,127
239588,note_off,0,0,0,,6,,,54,127
239591,note_on,3,0,0,,5,,,77,127
239591,note_on,0,0,0,,3,,,63,127
239591,note_on,0,0,0,,6,,,54,127
239591,note_on,0,0,0,,11,,,58,127
239651,note_off,60,0,0,,5,,,77,127
239654,note_on,3,0,0,,3,,,75,127
239714,note_off,60,0,0,,3,,,75,127
239717,note_on,3,0,0,,5,,,77,127
239777,note_off,60,0,0,,5,,,77,127
239780,note_on,3,0,0,,6,,,78,127
239840,note_off,60,0,0,,6,,,78,127
239840,note_off,0,0,0,,11,,,58,127
239840,note_off,0,0,0,,6,,,54,127
239840,note_off,0,0,0,,3,,,63,127
239843,note_on,3,0,0,,10,,,81,127
239843,note_on,0,0,0,,5,,,53,127
239843,note_on,0,0,0,,0,,,60,127
239843,note_on,0,0,0,,3,,,63,127
239903,note_off,60,0,0,,10,,,81,127
239906,note_on,3,0,0,,11,,,82,127
239966,note_off,60,0,0,,11,,,82,127
239969,note_on,3,0,0,,0,,,84,127
240029,note_off,60,0,0,,0,,,84,127
240032,note_on,3,0,0,,11,,,82,127
240092,note_off,60,0,0,,11,,,82,127
240092,note_off,0,0,0,,3,,,63,127
240092,note_off,0,0,0,,0,,,60,127
240092,note_off,0,0,0,,5,,,53,127
240095,note_on,3,0,0,,0,,,84,127
240095,note_on,0,0,0,,5,,,53,127
240095,note_on,0,0,0,,0,,,60,127
240095,note_on,0,0,0,,3,,,63,127
240155,note_off,60,0,0,,0,,,84,127
240158,note_on,3,0,0,,11,,,82,127
240218,note_off,60,0,0,,11,,,82,127
240221,note_on,3,0,0,,10,,,81,127
240281,note_off,60,0,0,,10,,,81,127
240284,note_on,3,0,0,,11,,,82,127
240344,note_off,60,0,0,,11,,,82,127
240344,note_off,0,0,0,,3,,,63,127
240344,note_off,0,0,0,,0,,,60,127
240344,note_off,0,0,0,,5,,,53,127
240347,note_on,3,0,0,,0,,,84,127
240347,note_on,0,0,0,,0,,,60,127
240347,note_on,0,0,0,,3,,,63,127
240347,note_on,0,0,0,,5,,,53,127
240595,note_off,248,0,0,,5,,,53,127
240595,note_off,0,0,0,,3,,,63,127
240595,note_off,0,0,0,,0,,,60,127
240598,note_on,3,0,0,,5,,,65,127
240598,note_on,0,0,0,,3,,,63,127
240598,note_on,0,0,0,,10,,,57,127
240721,note_off,123,0,0,,0,,,84,127
240724,note_on,3,0,0,,11,,,82,127
240847,note_off,123,0,0,,11,,,82,127
240847,note_off,0,0,0,,10,,,57,127
240847,note_off,0,0,0,,3,,,63,127
240847,note_off,0,0,0,,5,,,65,127
240850,note_on,3,0,0,,10,,,81,127
240850,note_on,0,0,0,,10,,,57,127
240850,note_on,0,0,0,,5,,,65,127
240850,note_on,0,0,0,,3,,,63,127
240973,note_off,123,0,0,,10,,,81,127
240976,note_on,3,0,0,,6,,,78,127
241099,note_off,123,0,0,,6,,,78,127
241099,note_off,0,0,0,,3,,,63,127
241099,note_off,0,0,0,,5,,,65,127
241099,note_off,0,0,0,,10,,,57,127
241102,note_on,3,0,0,,5,,,77,127
241102,note_on,0,0,0,,5,,,65,127
241102,note_on,0,0,0,,10,,,57,127
241102,note_on,0,0,0,,3,,,63,127
241225,note_off,123,0,0,,5,,,77,127
241228,note_on,3,0,0,,3,,,75,127
241351,note_off,123,0,0,,3,,,63,127
241351,note_off,0,0,0,,10,,,57,127
241351,note_off,0,0,0,,5,,,65,127
241354,note_on,3,0,0,,5,,,65,127
241354,note_on,0,0,0,,1,,,61,127
241354,note_on,0,0,0,,11,,,58,127
241414,note_off,60,0,0,,3,,,75,127
241417,note_on,3,0,0,,3,,,75,127
241477,note_off,60,0,0,,3,,,75,127
241480,note_on,3,0,0,,1,,,73,127
241540,note_off,60,0,0,,1,,,73,127
241543,note_on,3,0,0,,3,,,75,127
241603,note_off,60,0,0,,3,,,75,127
241603,note_off,0,0,0,,11,,,58,127
241603,note_off,0,0,0,,1,,,61,127
241603,note_off,0,0,0,,5,,,65,127
241606,note_on,3,0,0,,1,,,61,127
241606,note_on,0,0,0,,11,,,58,127
241606,note_on,0,0,0,,5,,,65,127
241606,note_on,0,0,0,,1,,,73,127
241666,note_off,60,0,0,,1,,,73,127
241669,note_on,3,0,0,,3,,,75,127
241729,note_off,60,0,0,,3,,,75,127
241732,note_on,3,0,0,,1,,,73,127
241792,note_off,60,0,0,,1,,,73,127
241795,note_on,3,0,0,,0,,,72,127
241855,note_off,60,0,0,,0,,,72,127
241855,note_off,0,0,0,,5,,,65,127
241855,note_off,0,0,0,,11,,,58,127
241855,note_off,0,0,0,,1,,,61,127
241858,note_on,3,0,0,,5,,,65,127
241858,note_on,0,0,0,,11,,,58,127
241858,note_on,0,0,0,,1,,,61,127
241858,note_on,0,0,0,,1,,,73,127
241918,note_off,60,0,0,,1,,,73,127
241921,note_on,3,0,0,,11,,,82,127
242106,note_off,185,0,0,,1,,,61,127
242106,note_off,0,0,0,,11,,,58,127
242106,note_off,0,0,0,,5,,,65,127
242109,note_on,3,0,0,,1,,,61,127
242109,note_on,0,0,0,,3,,,51,127
242169,note_off,60,0,0,,11,,,82,127
242234,note_on,65,0,0,,8,,,80,127
242357,note_off,123,0,0,,8,,,80,127
242357,note_off,0,0,0,,3,,,51,127
242357,note_off,0,0,0,,1,,,61,127
242360,note_on,3,0,0,,7,,,79,127
242360,note_on,0,0,0,,1,,,61,127
242360,note_on,0,0,0,,3,,,51,127
242483,note_off,123,0,0,,7,,,79,127
242486,note_on,3,0,0,,5,,,77,127
242609,note_off,123,0,0,,5,,,77,127
242609,note_off,0,0,0,,3,,,51,127
242609,note_off,0,0,0,,1,,,61,127
242612,note_on,3,0,0,,3,,,75,127
242612,note_on,0,0,0,,1,,,61,127
242612,note_on,0,0,0,,3,,,51,127
242735,note_off,123,0,0,,3,,,75,127
242738,note_on,3,0,0,,1,,,73,127
242861,note_off,123,0,0,,1,,,73,127
242861,note_off,0,0,0,,3,,,51,127
242861,note_off,0,0,0,,1,,,61,127
242864,note_on,3,0,0,,12,,,71,127
242864,note_on,0,0,0,,8,,,56,127
242864,note_on,0,0,0,,0,,,60,127
243112,note_off,248,0,0,,0,,,60,127
243112,note_off,0,0,0,,8,,,56,127
243112,note_off,0,0,0,,12,,,71,127
243115,note_on,3,0,0,,0,,,72,127
243115,note_on,0,0,0,,8,,,56,127
243115,note_on,0,0,0,,0,,,60,127
243363,note_off,248,0,0,,0,,,60,127
243363,note_off,0,0,0,,8,,,56,127
243363,note_off,0,0,0,,0,,,72,127
243366,note_on,3,0,0,,8,,,80,127
243366,note_on,0,0,0,,0,,,60,127
243366,note_on,0,0,0,,8,,,56,127
243614,note_off,248,0,0,,8,,,56,127
243614,note_off,0,0,0,,0,,,60,127
243617,note_on,3,0,0,,1,,,49,127
243617,note_on,0,0,0,,0,,,60,127
243740,note_off,123,0,0,,8,,,80,127
243743,note_on,3,0,0,,7,,,79,127
243866,note_off,123,0,0,,7,,,79,127
243866,note_off,0,0,0,,0,,,60,127
243866,note_off,0,0,0,,1,,,49,127
243869,note_on,3,0,0,,5,,,77,127
243869,note_on,0,0,0,,0,,,60,127
243869,note_on,0,0,0,,1,,,49,127
243992,note_off,123,0,0,,5,,,77,127
243995,note_on,3,0,0,,3,,,75,127
244118,note_off,123,0,0,,3,,,75,127
244118,note_off,0,0,0,,1,,,49,127
244118,note_off,0,0,0,,0,,,60,127
244121,note_on,3,0,0,,1,,,73,127
244121,note_on,0,0,0,,1,,,49,127
244121,note_on,0,0,0,,0,,,60,127
244244,note_off,123,0,0,,1,,,73,127
244247,note_on,3,0,0,,0,,,72,127
244370,note_off,123,0,0,,0,,,72,127
244370,note_off,0,0,0,,0,,,60,127
244370,note_off,0,0,0,,1,,,49,127
244373,note_on,3,0,0,,10,,,69,127
244373,note_on,0,0,0,,11,,,58,127
244373,note_on,0,0,0,,7,,,55,127
244621,note_off,248,0,0,,7,,,55,127
244621,note_off,0,0,0,,11,,,58,127
244621,note_off,0,0,0,,10,,,69,127
244624,note_on,3,0,0,,11,,,70,127
244624,note_on,0,0,0,,11,,,58,127
244624,note_on,0,0,0,,7,,,55,127
244872,note_off,248,0,0,,7,,,55,127
244872,note_off,0,0,0,,11,,,58,127
244872,note_off,0,0,0,,11,,,70,127
244875,note_on,3,0,0,,7,,,79,127
244875,note_on,0,0,0,,7,,,55,127
244875,note_on,0,0,0,,11,,,58,127
245123,note_off,248,0,0,,11,,,58,127
245123,note_off,0,0,0,,7,,,55,127
245126,note_on,3,0,0,,11,,,58,127
245126,note_on,0,0,0,,0,,,48,127
245249,note_off,123,0,0,,7,,,79,127
245252,note_on,3,0,0,,5,,,77,127
245375,note_off,123,0,0,,5,,,77,127
245375,note_off,0,0,0,,0,,,48,127
245375,note_off,0,0,0,,11,,,58,127
245378,note_on,3,0,0,,4,,,76,127
245378,note_on,0,0,0,,0,,,48,127
245378,note_on,0,0,0,,11,,,58,127
245501,note_off,123,0,0,,4,,,76,127
245504,note_on,3,0,0,,1,,,73,127
245627,note_off,123,0,0,,1,,,73,127
245627,note_off,0,0,0,,11,,,58,127
245627,note_off,0,0,0,,0,,,48,127
245630,note_on,3,0,0,,0,,,72,127
245630,note_on,0,0,0,,11,,,58,127
245630,note_on,0,0,0,,0,,,48,127
245753,note_off,123,0,0,,0,,,72,127
245756,note_on,3,0,0,,11,,,70,127
245879,note_off,123,0,0,,11,,,70,127
245879,note_off,0,0,0,,0,,,48,127
245879,note_off,0,0,0,,11,,,58,127
245882,note_on,3,0,0,,7,,,67,127
245882,note_on,0,0,0,,5,,,53,127
246130,note_off,248,0,0,,5,,,53,127
246130,note_off,0,0,0,,7,,,67,127
246133,note_on,3,0,0,,8,,,68,127
246133,note_on,0,0,0,,7,,,55,127
246381,note_off,248,0,0,,7,,,55,127
246381,note_off,0,0,0,,8,,,68,127
246384,note_on,3,0,0,,0,,,72,127
246384,note_on,0,0,0,,8,,,56,127
246632,note_off,248,0,0,,8,,,56,127
246636,note_off,4,0,0,,0,,,72,127
246653,note_on,17,0,0,,1,,,73,127
246653,note_on,0,0,0,,1,,,61,127
246653,note_on,0,0,0,,11,,,58,127
246901,note_off,248,0,0,,1,,,73,127
246904,note_on,3,0,0,,0,,,72,127
247027,note_off,123,0,0,,0,,,72,127
247030,note_on,3,0,0,,11,,,70,127
247153,note_off,123,0,0,,11,,,70,127
247153,note_off,0,0,0,,11,,,58,127
247153,note_off,0,0,0,,1,,,61,127
247156,note_on,3,0,0,,8,,,68,127
247156,note_on,0,0,0,,1,,,61,127
247156,note_on,0,0,0,,11,,,58,127
247279,note_off,123,0,0,,8,,,68,127
247282,note_on,3,0,0,,7,,,67,127
247405,note_off,123,0,0,,7,,,67,127
247405,note_off,0,0,0,,11,,,58,127
247405,note_off,0,0,0,,1,,,61,127
247408,note_on,3,0,0,,5,,,65,127
247408,note_on,0,0,0,,0,,,60,127
247408,note_on,0,0,0,,11,,,58,127
247656,note_off,248,0,0,,5,,,65,127
247659,note_on,3,0,0,,4,,,64,127
247907,note_off,248,0,0,,4,,,64,127
247907,note_off,0,0,0,,11,,,58,127
247907,note_off,0,0,0,,0,,,60,127
247910,note_on,3,0,0,,5,,,65,127
247910,note_on,0,0,0,,0,,,60,127
247910,note_on,0,0,0,,8,,,56,127
248158,note_off,248,0,0,,8,,,56,127
248158,note_off,0,0,0,,0,,,60,127
248158,note_off,0,0,0,,5,,,65,127
248161,note_on,3,0,0,,7,,,67,127
248161,note_on,0,0,0,,7,,,55,127
248161,note_on,0,0,0,,11,,,58,127
248284,note_off,123,0,0,,7,,,67,127
248287,note_on,3,0,0,,8,,,68,127
248326,note_off,39,0,0,,8,,,68,127
248329,note_on,3,0,0,,11,,,70,127
248410,note_off,81,0,0,,11,,,70,127
248410,note_off,0,0,0,,11,,,58,127
248410,note_off,0,0,0,,7,,,55,127
248413,note_on,3,0,0,,11,,,70,127
248413,note_on,0,0,0,,8,,,56,127
248413,note_on,0,0,0,,5,,,53,127
248473,note_off,60,0,0,,11,,,70,127
248476,note_on,3,0,0,,8,,,68,127
248536,note_off,60,0,0,,8,,,68,127
248539,note_on,3,0,0,,11,,,70,127
248599,note_off,60,0,0,,11,,,70,127
248602,note_on,3,0,0,,8,,,68,127
248662,note_off,60,0,0,,8,,,68,127
248662,note_off,0,0,0,,5,,,53,127
248662,note_off,0,0,0,,8,,,56,127
248665,note_on,3,0,0,,11,,,70,127
248665,note_on,0,0,0,,12,,,59,127
248725,note_off,60,0,0,,11,,,70,127
248728,note_on,3,0,0,,8,,,68,127
248788,note_off,60,0,0,,8,,,68,127
248791,note_on,3,0,0,,7,,,67,127
248851,note_off,60,0,0,,7,,,67,127
248854,note_on,3,0,0,,8,,,68,127
248914,note_off,60,0,0,,8,,,68,127
248914,note_off,0,0,0,,12,,,59,127
248917,note_on,3,0,0,,5,,,65,127
248917,note_on,0,0,0,,8,,,68,127
248917,note_on,0,0,0,,0,,,60,127
249165,note_off,248,0,0,,0,,,60,127
249168,note_on,3,0,0,,0,,,48,127
249416,note_off,248,0,0,,8,,,68,127
249416,note_off,0,0,0,,5,,,65,127
249419,note_on,3,0,0,,7,,,67,127
249419,note_on,0,0,0,,4,,,64,127
249667,note_off,248,0,0,,4,,,64,127
249667,note_off,0,0,0,,7,,,67,127
249667,note_off,0,0,0,,0,,,48,127
249690,note_on,23,0,0,,8,,,56,127
249690,note_on,0,0,0,,11,,,58,127
249690,note_on,0,0,0,,0,,,72,127
249771,note_off,81,0,0,,11,,,58,127
249771,note_off,0,0,0,,8,,,56,127
249774,note_on,3,0,0,,7,,,55,127
249855,note_off,81,0,0,,7,,,55,127
249858,note_on,3,0,0,,8,,,56,127
249939,note_off,81,0,0,,8,,,56,127
249939,note_off,0,0,0,,0,,,72,127
249942,note_on,3,0,0,,8,,,56,127
249942,note_on,0,0,0,,5,,,65,127
250190,note_off,248,0,0,,5,,,65,127
250190,note_off,0,0,0,,8,,,56,127
250193,note_on,3,0,0,,8,,,56,127
250193,note_on,0,0,0,,0,,,72,127
250441,note_off,248,0,0,,0,,,72,127
250441,note_off,0,0,0,,8,,,56,127
250444,note_on,3,0,0,,11,,,58,127
250444,note_on,0,0,0,,1,,,73,127
250525,note_off,81,0,0,,11,,,58,127
250528,note_on,3,0,0,,8,,,56,127
250609,note_off,81,0,0,,8,,,56,127
250612,note_on,3,0,0,,11,,,58,127
250693,note_off,81,0,0,,11,,,58,127
250693,note_off,0,0,0,,1,,,73,127
250696,note_on,3,0,0,,8,,,56,127
250696,note_on,0,0,0,,0,,,72,127
250777,note_off,81,0,0,,8,,,56,127
250780,note_on,3,0,0,,7,,,55,127
250861,note_off,81,0,0,,7,,,55,127
250864,note_on,3,0,0,,8,,,56,127
250945,note_off,81,0,0,,8,,,56,127
250945,note_off,0,0,0,,0,,,72,127
250948,note_on,3,0,0,,7,,,55,127
250948,note_on,0,0,0,,11,,,70,127
251029,note_off,81,0,0,,7,,,55,127
251032,note_on,3,0,0,,5,,,53,127
251113,note_off,81,0,0,,5,,,53,127
251116,note_on,3,0,0,,7,,,55,127
251197,note_off,81,0,0,,7,,,55,127
251197,note_off,0,0,0,,11,,,70,127
251200,note_on,3,0,0,,5,,,53,127
251200,note_on,0,0,0,,8,,,68,127
251281,note_off,81,0,0,,5,,,53,127
251284,note_on,3,0,0,,3,,,51,127
251365,note_off,81,0,0,,3,,,51,127
251368,note_on,3,0,0,,5,,,53,127
251449,note_off,81,0,0,,5,,,53,127
251449,note_off,0,0,0,,8,,,68,127
251452,note_on,3,0,0,,3,,,51,127
251452,note_on,0,0,0,,7,,,67,127
251533,note_off,81,0,0,,3,,,51,127
251536,note_on,3,0,0,,1,,,49,127
251617,note_off,81,0,0,,1,,,49,127
251620,note_on,3,0,0,,3,,,51,127
251701,note_off,81,0,0,,3,,,51,127
251701,note_off,0,0,0,,7,,,67,127
251704,note_on,3,0,0,,1,,,49,127
251704,note_on,0,0,0,,5,,,65,127
251785,note_off,81,0,0,,1,,,49,127
251788,note_on,3,0,0,,0,,,48,127
251869,note_off,81,0,0,,0,,,48,127
251872,note_on,3,0,0,,1,,,49,127
251953,note_off,81,0,0,,1,,,49,127
251953,note_off,0,0,0,,5,,,65,127
251956,note_on,3,0,0,,0,,,48,127
251956,note_on,0,0,0,,5,,,65,127
252204,note_off,248,0,0,,0,,,48,127
252207,note_on,3,0,0,,0,,,36,127
252455,note_off,248,0,0,,5,,,65,127
252458,note_on,3,0,0,,7,,,67,127
252706,note_off,248,0,0,,7,,,67,127
252706,note_off,0,0,0,,0,,,36,127
252729,note_on,23,0,0,,8,,,80,127
252729,note_on,0,0,0,,11,,,82,127
252729,note_on,0,0,0,,8,,,68,127
252729,note_on,0,0,0,,0,,,60,127
252810,note_off,81,0,0,,11,,,82,127
252810,note_off,0,0,0,,8,,,80,127
252813,note_on,3,0,0,,7,,,79,127
252894,note_off,81,0,0,,7,,,79,127
252897,note_on,3,0,0,,8,,,80,127
252978,note_off,81,0,0,,8,,,80,127
252978,note_off,0,0,0,,0,,,60,127
252978,note_off,0,0,0,,8,,,68,127
252981,note_on,3,0,0,,8,,,80,127
252981,note_on,0,0,0,,0,,,60,127
252981,note_on,0,0,0,,8,,,68,127
253229,note_off,248,0,0,,8,,,68,127
253229,note_off,0,0,0,,0,,,60,127
253229,note_off,0,0,0,,8,,,80,127
253232,note_on,3,0,0,,8,,,80,127
253232,note_on,0,0,0,,8,,,68,127
253232,note_on,0,0,0,,0,,,60,127
253480,note_off,248,0,0,,0,,,60,127
253480,note_off,0,0,0,,8,,,68,127
253480,note_off,0,0,0,,8,,,80,127
253483,note_on,3,0,0,,11,,,82,127
253483,note_on,0,0,0,,11,,,70,127
253483,note_on,0,0,0,,1,,,61,127
253564,note_off,81,0,0,,11,,,82,127
253567,note_on,3,0,0,,8,,,80,127
253648,note_off,81,0,0,,8,,,80,127
253651,note_on,3,0,0,,11,,,82,127
253732,note_off,81,0,0,,11,,,82,127
253732,note_off,0,0,0,,1,,,61,127
253732,note_off,0,0,0,,11,,,70,127
253735,note_on,3,0,0,,8,,,80,127
253735,note_on,0,0,0,,0,,,60,127
253735,note_on,0,0,0,,8,,,68,127
253816,note_off,81,0,0,,8,,,80,127
253819,note_on,3,0,0,,7,,,79,127
253900,note_off,81,0,0,,7,,,79,127
253903,note_on,3,0,0,,8,,,80,127
253984,note_off,81,0,0,,8,,,80,127
253984,note_off,0,0,0,,8,,,68,127
253984,note_off,0,0,0,,0,,,60,127
253987,note_on,3,0,0,,7,,,79,127
253987,note_on,0,0,0,,7,,,67,127
253987,note_on,0,0,0,,11,,,58,127
254068,note_off,81,0,0,,7,,,79,127
254071,note_on,3,0,0,,5,,,77,127
254152,note_off,81,0,0,,5,,,77,127
254155,note_on,3,0,0,,7,,,79,127
254236,note_off,81,0,0,,7,,,79,127
254236,note_off,0,0,0,,11,,,58,127
254236,note_off,0,0,0,,7,,,67,127
254239,note_on,3,0,0,,5,,,77,127
254239,note_on,0,0,0,,0,,,60,127
254239,note_on,0,0,0,,0,,,72,127
254320,note_off,81,0,0,,5,,,77,127
254323,note_on,3,0,0,,4,,,76,127
254404,note_off,81,0,0,,4,,,76,127
254407,note_on,3,0,0,,5,,,77,127
254488,note_off,81,0,0,,5,,,77,127
254488,note_off,0,0,0,,0,,,60,127
254491,note_on,3,0,0,,4,,,76,127
254491,note_on,0,0,0,,1,,,61,127
254614,note_off,123,0,0,,4,,,76,127
254617,note_on,3,0,0,,5,,,77,127
254677,note_off,60,0,0,,5,,,77,127
254680,note_on,3,0,0,,7,,,79,127
254737,note_off,57,0,0,,0,,,72,127
254740,note_off,3,0,0,,7,,,79,127
254743,note_on,3,0,0,,7,,,79,127
254743,note_on,0,0,0,,11,,,70,127
254803,note_off,60,0,0,,7,,,79,127
254806,note_on,3,0,0,,5,,,77,127
254866,note_off,60,0,0,,5,,,77,127
254869,note_on,3,0,0,,4,,,76,127
254929,note_off,60,0,0,,4,,,76,127
254932,note_on,3,0,0,,5,,,77,127
254989,note_off,57,0,0,,1,,,61,127
254992,note_off,3,0,0,,5,,,77,127
254992,note_off,0,0,0,,11,,,70,127
254995,note_on,3,0,0,,5,,,77,127
254995,note_on,0,0,0,,0,,,72,127
255252,note_on,257,0,0,,0,,,60,127
255491,note_off,239,0,0,,0,,,72,127
255494,note_off,3,0,0,,5,,,77,127
255510,note_on,16,0,0,,7,,,79,127
255618,note_off,108,0,0,,0,,,60,127
255745,note_off,127,0,0,,7,,,79,127
255796,note_on,51,0,0,,11,,,70,127
255796,note_on,0,0,0,,0,,,72,127
255877,note_off,81,0,0,,0,,,72,127
255877,note_off,0,0,0,,11,,,70,127
255880,note_on,3,0,0,,10,,,69,127
255961,note_off,81,0,0,,10,,,69,127
255964,note_on,3,0,0,,11,,,70,127
256045,note_off,81,0,0,,11,,,70,127
256048,note_on,3,0,0,,5,,,77,127
256048,note_on,0,0,0,,1,,,85,127
256048,note_on,0,0,0,,11,,,70,127
256296,note_off,248,0,0,,11,,,70,127
256296,note_off,0,0,0,,1,,,85,127
256296,note_off,0,0,0,,5,,,77,127
256299,note_on,3,0,0,,6,,,78,127
256299,note_on,0,0,0,,0,,,84,127
256299,note_on,0,0,0,,11,,,70,127
256547,note_off,248,0,0,,11,,,70,127
256547,note_off,0,0,0,,0,,,84,127
256550,note_on,3,0,0,,11,,,82,127
256550,note_on,0,0,0,,0,,,72,127
256795,note_off,245,0,0,,6,,,78,127
256798,note_off,3,0,0,,0,,,72,127
256798,note_off,0,0,0,,11,,,82,127
256801,note_on,3,0,0,,10,,,81,127
256801,note_on,0,0,0,,0,,,72,127
257049,note_off,248,0,0,,0,,,72,127
257049,note_off,0,0,0,,10,,,81,127
257052,note_on,3,0,0,,11,,,82,127
257052,note_on,0,0,0,,1,,,73,127
257052,note_on,0,0,0,,5,,,77,127
257287,note_off,235,0,0,,11,,,82,127
257300,note_off,13,0,0,,5,,,77,127
257300,note_off,0,0,0,,1,,,73,127
257303,note_on,3,0,0,,0,,,72,127
257303,note_on,0,0,0,,11,,,70,127
257384,note_off,81,0,0,,11,,,70,127
257384,note_off,0,0,0,,0,,,72,127
257387,note_on,3,0,0,,10,,,69,127
257468,note_off,81,0,0,,10,,,69,127
257471,note_on,3,0,0,,11,,,70,127
257552,note_off,81,0,0,,11,,,70,127
257555,note_on,3,0,0,,1,,,85,127
257555,note_on,0,0,0,,5,,,77,127
257555,note_on,0,0,0,,11,,,70,127
257803,note_off,248,0,0,,11,,,70,127
257803,note_off,0,0,0,,5,,,77,127
257803,note_off,0,0,0,,1,,,85,127
257806,note_on,3,0,0,,0,,,84,127
257806,note_on,0,0,0,,11,,,70,127
257806,note_on,0,0,0,,6,,,78,127
258054,note_off,248,0,0,,11,,,70,127
258054,note_off,0,0,0,,0,,,84,127
258057,note_on,3,0,0,,11,,,82,127
258057,note_on,0,0,0,,0,,,72,127
258302,note_off,245,0,0,,6,,,78,127
258305,note_off,3,0,0,,0,,,72,127
258305,note_off,0,0,0,,11,,,82,127
258308,note_on,3,0,0,,10,,,81,127
258308,note_on,0,0,0,,0,,,72,127
258556,note_off,248,0,0,,0,,,72,127
258556,note_off,0,0,0,,10,,,81,127
258559,note_on,3,0,0,,11,,,82,127
258559,note_on,0,0,0,,5,,,77,127
258559,note_on,0,0,0,,1,,,73,127
258807,note_off,248,0,0,,1,,,73,127
258807,note_off,0,0,0,,5,,,77,127
258810,note_on,3,0,0,,11,,,70,127
258810,note_on,0,0,0,,0,,,72,127
258891,note_off,81,0,0,,0,,,72,127
258891,note_off,0,0,0,,11,,,70,127
258894,note_on,3,0,0,,10,,,69,127
258975,note_off,81,0,0,,10,,,69,127
258978,note_on,3,0,0,,11,,,70,127
259004,note_off,26,0,0,,11,,,82,127
259059,note_off,55,0,0,,11,,,70,127
259062,note_on,3,0,0,,11,,,82,127
259062,note_on,0,0,0,,5,,,77,127
259062,note_on,0,0,0,,11,,,70,127
259143,note_off,81,0,0,,11,,,82,127
259146,note_on,3,0,0,,0,,,84,127
259227,note_off,81,0,0,,0,,,84,127
259230,note_on,3,0,0,,1,,,85,127
259311,note_off,81,0,0,,1,,,85,127
259311,note_off,0,0,0,,11,,,70,127
259311,note_off,0,0,0,,5,,,77,127
259314,note_on,3,0,0,,0,,,84,127
259314,note_on,0,0,0,,5,,,77,127
259314,note_on,0,0,0,,11,,,70,127
259562,note_off,248,0,0,,11,,,70,127
259562,note_off,0,0,0,,5,,,77,127
259562,note_off,0,0,0,,0,,,84,127
259565,note_on,3,0,0,,11,,,82,127
259565,note_on,0,0,0,,11,,,70,127
259565,note_on,0,0,0,,0,,,60,127
259813,note_off,248,0,0,,0,,,60,127
259813,note_off,0,0,0,,11,,,70,127
259813,note_off,0,0,0,,11,,,82,127
259816,note_on,3,0,0,,4,,,76,127
259816,note_on,0,0,0,,7,,,67,127
259816,note_on,0,0,0,,0,,,60,127
260064,note_off,248,0,0,,0,,,60,127
260064,note_off,0,0,0,,7,,,67,127
260064,note_off,0,0,0,,4,,,76,127
260067,note_on,3,0,0,,5,,,77,127
260067,note_on,0,0,0,,1,,,61,127
260067,note_on,0,0,0,,8,,,68,127
260315,note_off,248,0,0,,8,,,68,127
260315,note_off,0,0,0,,1,,,61,127
260315,note_off,0,0,0,,5,,,77,127
260318,note_on,3,0,0,,0,,,84,127
260318,note_on,0,0,0,,7,,,67,127
260318,note_on,0,0,0,,11,,,58,127
260378,note_off,60,0,0,,0,,,84,127
260381,note_on,3,0,0,,11,,,82,127
260441,note_off,60,0,0,,11,,,82,127
260444,note_on,3,0,0,,8,,,80,127
260504,note_off,60,0,0,,8,,,80,127
260507,note_on,3,0,0,,7,,,79,127
260567,note_off,60,0,0,,7,,,79,127
260567,note_off,0,0,0,,11,,,58,127
260567,note_off,0,0,0,,7,,,67,127
260570,note_on,3,0,0,,5,,,77,127
260570,note_on,0,0,0,,8,,,68,127
260570,note_on,0,0,0,,0,,,60,127
260818,note_off,248,0,0,,8,,,68,127
260818,note_off,0,0,0,,5,,,77,127
260821,note_on,3,0,0,,4,,,76,127
260821,note_on,0,0,0,,7,,,67,127
261066,note_off,245,0,0,,0,,,60,127
261069,note_off,3,0,0,,7,,,67,127
261069,note_off,0,0,0,,4,,,76,127
261072,note_on,3,0,0,,4,,,76,127
261072,note_on,0,0,0,,5,,,65,127
261330,note_on,258,0,0,,5,,,53,127
261570,note_off,240,0,0,,4,,,76,127
261588,note_on,18,0,0,,5,,,77,127
261821,note_off,233,0,0,,5,,,65,127
261822,note_off,1,0,0,,5,,,77,127
261822,note_on,0,0,0,,11,,,58,127
261822,note_on,0,0,0,,0,,,60,127
261827,note_off,5,0,0,,5,,,53,127
261903,note_off,76,0,0,,0,,,60,127
261903,note_off,0,0,0,,11,,,58,127
261906,note_on,3,0,0,,10,,,57,127
261987,note_off,81,0,0,,10,,,57,127
261990,note_on,3,0,0,,11,,,58,127
262071,note_off,81,0,0,,11,,,58,127
262074,note_on,3,0,0,,3,,,75,127
262074,note_on,0,0,0,,11,,,58,127
262074,note_on,0,0,0,,5,,,65,127
262197,note_off,123,0,0,,3,,,75,127
262200,note_on,3,0,0,,1,,,73,127
262323,note_off,123,0,0,,1,,,73,127
262323,note_off,0,0,0,,5,,,65,127
262323,note_off,0,0,0,,11,,,58,127
262326,note_on,3,0,0,,0,,,72,127
262326,note_on,0,0,0,,6,,,66,127
262326,note_on,0,0,0,,11,,,58,127
262574,note_off,248,0,0,,11,,,58,127
262574,note_off,0,0,0,,0,,,72,127
262577,note_on,3,0,0,,11,,,70,127
262577,note_on,0,0,0,,0,,,60,127
262825,note_off,248,0,0,,0,,,60,127
262825,note_off,0,0,0,,11,,,70,127
262828,note_on,3,0,0,,10,,,69,127
262828,note_on,0,0,0,,0,,,60,127
263076,note_off,248,0,0,,0,,,60,127
263076,note_off,0,0,0,,10,,,69,127
263077,note_off,1,0,0,,6,,,66,127
263078,note_on,1,0,0,,11,,,70,127
263078,note_on,0,0,0,,1,,,61,127
263078,note_on,0,0,0,,5,,,65,127
263313,note_off,235,0,0,,11,,,70,127
263326,note_off,13,0,0,,5,,,65,127
263326,note_off,0,0,0,,1,,,61,127
263329,note_on,3,0,0,,0,,,60,127
263329,note_on,0,0,0,,11,,,58,127
263410,note_off,81,0,0,,11,,,58,127
263410,note_off,0,0,0,,0,,,60,127
263413,note_on,3,0,0,,10,,,57,127
263494,note_off,81,0,0,,10,,,57,127
263497,note_on,3,0,0,,11,,,58,127
263578,note_off,81,0,0,,11,,,58,127
263581,note_on,3,0,0,,3,,,75,127
263581,note_on,0,0,0,,11,,,58,127
263581,note_on,0,0,0,,5,,,65,127
263704,note_off,123,0,0,,3,,,75,127
263707,note_on,3,0,0,,1,,,73,127
263830,note_off,123,0,0,,1,,,73,127
263830,note_off,0,0,0,,5,,,65,127
263830,note_off,0,0,0,,11,,,58,127
263833,note_on,3,0,0,,0,,,72,127
263833,note_on,0,0,0,,6,,,66,127
263833,note_on,0,0,0,,11,,,58,127
264081,note_off,248,0,0,,11,,,58,127
264081,note_off,0,0,0,,0,,,72,127
264084,note_on,3,0,0,,11,,,70,127
264084,note_on,0,0,0,,0,,,60,127
264329,note_off,245,0,0,,6,,,66,127
264332,note_off,3,0,0,,0,,,60,127
264332,note_off,0,0,0,,11,,,70,127
264335,note_on,3,0,0,,10,,,69,127
264335,note_on,0,0,0,,0,,,60,127
264583,note_off,248,0,0,,0,,,60,127
264583,note_off,0,0,0,,10,,,69,127
264586,note_on,3,0,0,,11,,,70,127
264586,note_on,0,0,0,,1,,,61,127
264586,note_on,0,0,0,,5,,,65,127
264834,note_off,248,0,0,,5,,,65,127
264834,note_off,0,0,0,,1,,,61,127
264837,note_on,3,0,0,,11,,,58,127
264837,note_on,0,0,0,,0,,,60,127
264918,note_off,81,0,0,,0,,,60,127
264918,note_off,0,0,0,,11,,,58,127
264921,note_on,3,0,0,,10,,,57,127
265002,note_off,81,0,0,,10,,,57,127
265005,note_on,3,0,0,,11,,,58,127
265031,note_off,26,0,0,,11,,,70,127
265086,note_off,55,0,0,,11,,,58,127
265089,note_on,3,0,0,,11,,,70,127
265089,note_on,0,0,0,,5,,,65,127
265089,note_on,0,0,0,,11,,,58,127
265170,note_off,81,0,0,,11,,,70,127
265173,note_on,3,0,0,,0,,,72,127
265254,note_off,81,0,0,,0,,,72,127
265257,note_on,3,0,0,,1,,,73,127
265338,note_off,81,0,0,,1,,,73,127
265338,note_off,0,0,0,,11,,,58,127
265338,note_off,0,0,0,,5,,,65,127
265341,note_on,3,0,0,,0,,,72,127
265341,note_on,0,0,0,,5,,,65,127
265341,note_on,0,0,0,,11,,,58,127
265589,note_off,248,0,0,,11,,,58,127
265589,note_off,0,0,0,,5,,,65,127
265589,note_off,0,0,0,,0,,,72,127
265592,note_on,3,0,0,,11,,,70,127
265592,note_on,0,0,0,,0,,,48,127
265592,note_on,0,0,0,,11,,,58,127
265840,note_off,248,0,0,,11,,,58,127
265840,note_off,0,0,0,,0,,,48,127
265840,note_off,0,0,0,,11,,,70,127
265843,note_on,3,0,0,,4,,,64,127
265843,note_on,0,0,0,,11,,,58,127
265843,note_on,0,0,0,,0,,,48,127
266091,note_off,248,0,0,,0,,,48,127
266091,note_off,0,0,0,,11,,,58,127
266091,note_off,0,0,0,,4,,,64,127
266094,note_on,3,0,0,,5,,,65,127
266094,note_on,0,0,0,,11,,,58,127
266094,note_on,0,0,0,,1,,,49,127
266342,note_off,248,0,0,,1,,,49,127
266342,note_off,0,0,0,,11,,,58,127
266342,note_off,0,0,0,,5,,,65,127
266345,note_on,3,0,0,,11,,,70,127
266345,note_on,0,0,0,,7,,,55,127
266345,note_on,0,0,0,,11,,,46,127
266426,note_off,81,0,0,,11,,,70,127
266429,note_on,3,0,0,,8,,,68,127
266510,note_off,81,0,0,,8,,,68,127
266513,note_on,3,0,0,,7,,,67,127
266594,note_off,81,0,0,,7,,,67,127
266594,note_off,0,0,0,,11,,,46,127
266594,note_off,0,0,0,,7,,,55,127
266597,note_on,3,0,0,,5,,,65,127
266597,note_on,0,0,0,,8,,,56,127
266597,note_on,0,0,0,,0,,,48,127
266845,note_off,248,0,0,,8,,,56,127
266845,note_off,0,0,0,,5,,,65,127
266848,note_on,3,0,0,,4,,,64,127
266848,note_on,0,0,0,,7,,,55,127
267041,note_off,193,0,0,,0,,,48,127
267096,note_off,55,0,0,,7,,,55,127
267096,note_off,0,0,0,,4,,,64,127
267099,note_on,3,0,0,,5,,,65,127
267099,note_on,0,0,0,,8,,,56,127
267099,note_on,0,0,0,,5,,,53,127
267347,note_off,248,0,0,,5,,,53,127
267347,note_off,0,0,0,,8,,,56,127
267350,note_on,3,0,0,,5,,,77,127
267350,note_on,0,0,0,,7,,,55,127
267350,note_on,0,0,0,,11,,,58,127
267598,note_off,248,0,0,,11,,,58,127
267598,note_off,0,0,0,,7,,,55,127
267601,note_on,3,0,0,,0,,,60,127
267601,note_on,0,0,0,,8,,,56,127
267849,note_off,248,0,0,,8,,,56,127
267849,note_off,0,0,0,,0,,,60,127
267849,note_off,0,0,0,,5,,,77,127
267850,note_off,1,0,0,,5,,,65,127
267851,note_on,1,0,0,,1,,,73,127
267851,note_on,0,0,0,,1,,,61,127
267851,note_on,0,0,0,,11,,,58,127
267932,note_off,81,0,0,,1,,,73,127
267935,note_on,3,0,0,,11,,,70,127
268016,note_off,81,0,0,,11,,,70,127
268019,note_on,3,0,0,,7,,,67,127
268100,note_off,81,0,0,,7,,,67,127
268100,note_off,0,0,0,,11,,,58,127
268100,note_off,0,0,0,,1,,,61,127
268103,note_on,3,0,0,,5,,,65,127
268103,note_on,0,0,0,,0,,,60,127
268351,note_off,248,0,0,,5,,,65,127
268354,note_on,3,0,0,,4,,,64,127
268354,note_on,0,0,0,,0,,,48,127
268599,note_off,245,0,0,,0,,,60,127
268602,note_off,3,0,0,,0,,,48,127
268602,note_off,0,0,0,,4,,,64,127
268605,note_on,3,0,0,,5,,,65,127
268605,note_on,0,0,0,,0,,,60,127
268605,note_on,0,0,0,,8,,,56,127
268840,note_off,235,0,0,,8,,,56,127
268840,note_off,0,0,0,,0,,,60,127
268840,note_off,0,0,0,,5,,,65,127
268866,note_on,26,0,0,,8,,,80,127
268866,note_on,0,0,0,,0,,,84,127
268866,note_on,0,0,0,,5,,,77,127
268866,note_on,0,0,0,,0,,,72,127
268866,note_on,0,0,0,,11,,,58,127
268866,note_on,0,0,0,,7,,,55,127
269114,note_off,248,0,0,,7,,,55,127
269114,note_off,0,0,0,,11,,,58,127
269117,note_on,3,0,0,,8,,,56,127
269117,note_on,0,0,0,,5,,,53,127
269365,note_off,248,0,0,,5,,,53,127
269365,note_off,0,0,0,,8,,,56,127
269365,note_off,0,0,0,,0,,,72,127
269365,note_off,0,0,0,,5,,,77,127
269365,note_off,0,0,0,,0,,,84,127
269365,note_off,0,0,0,,8,,,80,127
269368,note_on,3,0,0,,0,,,84,127
269368,note_on,0,0,0,,11,,,58,127
269428,note_off,60,0,0,,0,,,84,127
269431,note_on,3,0,0,,11,,,82,127
269491,note_off,60,0,0,,11,,,82,127
269494,note_on,3,0,0,,8,,,80,127
269554,note_off,60,0,0,,8,,,80,127
269557,note_on,3,0,0,,7,,,79,127
269617,note_off,60,0,0,,7,,,79,127
269617,note_off,0,0,0,,11,,,58,127
269620,note_on,3,0,0,,5,,,77,127
269620,note_on,0,0,0,,0,,,60,127
269868,note_off,248,0,0,,5,,,77,127
269871,note_on,3,0,0,,4,,,76,127
269871,note_on,0,0,0,,0,,,48,127
270106,note_off,235,0,0,,4,,,76,127
270116,note_off,10,0,0,,0,,,60,127
270119,note_off,3,0,0,,0,,,48,127
270122,note_on,3,0,0,,5,,,53,127
270122,note_on,0,0,0,,8,,,56,127
270370,note_off,248,0,0,,8,,,56,127
270370,note_off,0,0,0,,5,,,53,127
270373,note_on,3,0,0,,5,,,77,127
270373,note_on,0,0,0,,11,,,58,127
270373,note_on,0,0,0,,7,,,55,127
270621,note_off,248,0,0,,7,,,55,127
270621,note_off,0,0,0,,11,,,58,127
270624,note_on,3,0,0,,8,,,56,127
270624,note_on,0,0,0,,0,,,60,127
270872,note_off,248,0,0,,0,,,60,127
270872,note_off,0,0,0,,8,,,56,127
270872,note_off,0,0,0,,5,,,77,127
270875,note_on,3,0,0,,1,,,73,127
270875,note_on,0,0,0,,1,,,61,127
270875,note_on,0,0,0,,11,,,58,127
270956,note_off,81,0,0,,1,,,73,127
270959,note_on,3,0,0,,11,,,70,127
271040,note_off,81,0,0,,11,,,70,127
271043,note_on,3,0,0,,7,,,67,127
271124,note_off,81,0,0,,7,,,67,127
271124,note_off,0,0,0,,11,,,58,127
271124,note_off,0,0,0,,1,,,61,127
271127,note_on,3,0,0,,5,,,65,127
271127,note_on,0,0,0,,0,,,60,127
271375,note_off,248,0,0,,0,,,60,127
271375,note_off,0,0,0,,5,,,65,127
271378,note_on,3,0,0,,4,,,64,127
271378,note_on,0,0,0,,11,,,58,127
271626,note_off,248,0,0,,11,,,58,127
271626,note_off,0,0,0,,4,,,64,127
271629,note_on,3,0,0,,5,,,65,127
271629,note_on,0,0,0,,0,,,60,127
271629,note_on,0,0,0,,8,,,56,127
271877,note_off,248,0,0,,8,,,56,127
271877,note_off,0,0,0,,0,,,60,127
271877,note_off,0,0,0,,5,,,65,127
271890,note_on,13,0,0,,0,,,72,127
271890,note_on,0,0,0,,5,,,77,127
271890,note_on,0,0,0,,8,,,80,127
271890,note_on,0,0,0,,0,,,84,127
271890,note_on,0,0,0,,7,,,55,127
271890,note_on,0,0,0,,11,,,58,127
272138,note_off,248,0,0,,11,,,58,127
272138,note_off,0,0,0,,7,,,55,127
272141,note_on,3,0,0,,5,,,53,127
272141,note_on,0,0,0,,8,,,56,127
272389,note_off,248,0,0,,8,,,56,127
272389,note_off,0,0,0,,5,,,53,127
272389,note_off,0,0,0,,0,,,84,127
272389,note_off,0,0,0,,8,,,80,127
272389,note_off,0,0,0,,5,,,77,127
272389,note_off,0,0,0,,0,,,72,127
272392,note_on,3,0,0,,11,,,82,127
272392,note_on,0,0,0,,11,,,58,127
272473,note_off,81,0,0,,11,,,82,127
272476,note_on,3,0,0,,8,,,80,127
272557,note_off,81,0,0,,8,,,80,127
272560,note_on,3,0,0,,7,,,79,127
272641,note_off,81,0,0,,7,,,79,127
272641,note_off,0,0,0,,11,,,58,127
272644,note_on,3,0,0,,5,,,77,127
272644,note_on,0,0,0,,0,,,60,127
272892,note_off,248,0,0,,5,,,77,127
272895,note_on,3,0,0,,4,,,76,127
272895,note_on,0,0,0,,0,,,48,127
273140,note_off,245,0,0,,0,,,60,127
273143,note_off,3,0,0,,0,,,48,127
273143,note_off,0,0,0,,4,,,76,127
273178,note_on,35,0,0,,4,,,76,127
273178,note_on,0,0,0,,5,,,53,127
273178,note_on,0,0,0,,5,,,41,127
273706,note_on,528,0,0,,5,,,77,127
273749,note_off,43,0,0,,4,,,76,127
275662,note_off,1913,0,0,,5,,,77,127
275712,note_off,50,0,0,,5,,,41,127
275712,note_off,0,0,0,,5,,,53,127
281088,end_of_track,5376,1,0,,,,,,
