tick,type,time,meta,track,program,channel,pitch,tempo,note,velocity
0,copyright,0,1,0,,,,,,
0,program_change,0,0,0,6,0,,,,
0,pitchwheel,0,0,0,,0,0,,,
0,program_change,0,0,0,6,1,,,,
0,pitchwheel,0,0,0,,1,-590,,,
0,program_change,0,0,0,6,2,,,,
0,pitchwheel,0,0,0,,2,-272,,,
0,program_change,0,0,0,6,3,,,,
0,pitchwheel,0,0,0,,3,-353,,,
0,program_change,0,0,0,6,4,,,,
0,pitchwheel,0,0,0,,4,-560,,,
0,program_change,0,0,0,6,5,,,,
0,pitchwheel,0,0,0,,5,-80,,,
0,program_change,0,0,0,6,6,,,,
0,pitchwheel,0,0,0,,6,-625,,,
0,program_change,0,0,0,6,7,,,,
0,pitchwheel,0,0,0,,7,-130,,,
0,program_change,0,0,0,6,8,,,,
0,pitchwheel,0,0,0,,8,-512,,,
0,program_change,0,0,0,6,10,,,,
0,pitchwheel,0,0,0,,10,-464,,,
0,program_change,0,0,0,6,11,,,,
0,pitchwheel,0,0,0,,11,-208,,,
0,program_change,0,0,0,6,12,,,,
0,pitchwheel,0,0,0,,12,-553,,,
0,set_tempo,0,1,0,,,,500000,,
110,note_on,110,0,0,,7,,,79,127
163,note_off,53,0,0,,7,,,79,127
165,note_on,2,0,0,,5,,,77,127
218,note_off,53,0,0,,5,,,77,127
220,note_on,2,0,0,,7,,,79,127
273,note_off,53,0,0,,7,,,79,127
275,note_on,2,0,0,,5,,,77,127
328,note_off,53,0,0,,5,,,77,127
330,note_on,2,0,0,,4,,,76,127
437,note_off,107,0,0,,4,,,76,127
439,note_on,2,0,0,,2,,,74,127
546,note_off,107,0,0,,2,,,74,127
548,note_on,2,0,0,,0,,,72,127
765,note_off,217,0,0,,0,,,72,127
767,note_on,2,0,0,,10,,,81,127
984,note_off,217,0,0,,10,,,81,127
986,note_on,2,0,0,,7,,,79,127
1039,note_off,53,0,0,,7,,,79,127
1041,note_on,2,0,0,,5,,,77,127
1094,note_off,53,0,0,,5,,,77,127
1096,note_on,2,0,0,,7,,,79,127
1149,note_off,53,0,0,,7,,,79,127
1151,note_on,2,0,0,,5,,,77,127
1204,note_off,53,0,0,,5,,,77,127
1206,note_on,2,0,0,,4,,,76,127
1313,note_off,107,0,0,,4,,,76,127
1315,note_on,2,0,0,,2,,,74,127
1422,note_off,107,0,0,,2,,,74,127
1424,note_on,2,0,0,,0,,,72,127
1641,note_off,217,0,0,,0,,,72,127
1643,note_on,2,0,0,,10,,,81,127
1860,note_off,217,0,0,,10,,,81,127
1862,note_on,2,0,0,,7,,,79,127
1915,note_off,53,0,0,,7,,,79,127
1917,note_on,2,0,0,,5,,,77,127
1970,note_off,53,0,0,,5,,,77,127
1972,note_on,2,0,0,,7,,,79,127
2025,note_off,53,0,0,,7,,,79,127
2027,note_on,2,0,0,,5,,,77,127
2080,note_off,53,0,0,,5,,,77,127
2082,note_on,2,0,0,,4,,,76,127
2189,note_off,107,0,0,,4,,,76,127
2191,note_on,2,0,0,,2,,,74,127
2298,note_off,107,0,0,,2,,,74,127
2300,note_on,2,0,0,,0,,,72,127
2517,note_off,217,0,0,,0,,,72,127
2519,note_on,2,0,0,,11,,,70,127
2626,note_off,107,0,0,,11,,,70,127
2628,note_on,2,0,0,,10,,,69,127
2735,note_off,107,0,0,,10,,,69,127
2737,note_on,2,0,0,,11,,,70,127
2844,note_off,107,0,0,,11,,,70,127
2846,note_on,2,0,0,,0,,,72,127
2953,note_off,107,0,0,,0,,,72,127
2955,note_on,2,0,0,,2,,,74,127
3062,note_off,107,0,0,,2,,,74,127
3064,note_on,2,0,0,,4,,,76,127
3171,note_off,107,0,0,,4,,,76,127
3173,note_on,2,0,0,,5,,,77,127
3280,note_off,107,0,0,,5,,,77,127
3282,note_on,2,0,0,,7,,,79,127
3389,note_off,107,0,0,,7,,,79,127
3391,note_on,2,0,0,,10,,,81,127
3498,note_off,107,0,0,,10,,,81,127
3500,note_on,2,0,0,,11,,,82,127
3607,note_off,107,0,0,,11,,,82,127
3609,note_on,2,0,0,,7,,,67,127
3609,note_on,0,0,0,,0,,,84,127
3662,note_off,53,0,0,,7,,,67,127
3664,note_on,2,0,0,,5,,,65,127
3717,note_off,53,0,0,,5,,,65,127
3719,note_on,2,0,0,,7,,,67,127
3772,note_off,53,0,0,,7,,,67,127
3774,note_on,2,0,0,,5,,,65,127
3827,note_off,53,0,0,,5,,,65,127
3829,note_on,2,0,0,,4,,,64,127
3936,note_off,107,0,0,,4,,,64,127
3938,note_on,2,0,0,,2,,,62,127
4045,note_off,107,0,0,,2,,,62,127
4047,note_on,2,0,0,,0,,,60,127
4264,note_off,217,0,0,,0,,,60,127
4266,note_on,2,0,0,,10,,,69,127
4266,note_on,0,0,0,,0,,,72,127
4483,note_off,217,0,0,,10,,,69,127
4484,note_off,1,0,0,,0,,,84,127
4485,note_on,1,0,0,,7,,,67,127
4485,note_on,0,0,0,,0,,,84,127
4538,note_off,53,0,0,,7,,,67,127
4540,note_on,2,0,0,,5,,,65,127
4593,note_off,53,0,0,,5,,,65,127
4595,note_on,2,0,0,,7,,,67,127
4648,note_off,53,0,0,,7,,,67,127
4650,note_on,2,0,0,,5,,,65,127
4700,note_off,50,0,0,,0,,,72,127
4702,note_off,2,0,0,,5,,,65,127
4704,note_on,2,0,0,,4,,,64,127
4811,note_off,107,0,0,,4,,,64,127
4813,note_on,2,0,0,,2,,,62,127
4920,note_off,107,0,0,,2,,,62,127
4922,note_on,2,0,0,,0,,,60,127
5139,note_off,217,0,0,,0,,,60,127
5141,note_on,2,0,0,,10,,,69,127
5141,note_on,0,0,0,,0,,,72,127
5358,note_off,217,0,0,,10,,,69,127
5359,note_off,1,0,0,,0,,,84,127
5360,note_on,1,0,0,,7,,,67,127
5360,note_on,0,0,0,,0,,,84,127
5413,note_off,53,0,0,,7,,,67,127
5415,note_on,2,0,0,,5,,,65,127
5468,note_off,53,0,0,,5,,,65,127
5470,note_on,2,0,0,,7,,,67,127
5523,note_off,53,0,0,,7,,,67,127
5525,note_on,2,0,0,,5,,,65,127
5575,note_off,50,0,0,,0,,,72,127
5577,note_off,2,0,0,,5,,,65,127
5579,note_on,2,0,0,,4,,,64,127
5686,note_off,107,0,0,,4,,,64,127
5688,note_on,2,0,0,,2,,,62,127
5795,note_off,107,0,0,,2,,,62,127
5797,note_on,2,0,0,,0,,,60,127
6014,note_off,217,0,0,,0,,,60,127
6016,note_on,2,0,0,,11,,,58,127
6123,note_off,107,0,0,,11,,,58,127
6125,note_on,2,0,0,,10,,,57,127
6232,note_off,107,0,0,,10,,,57,127
6234,note_on,2,0,0,,11,,,58,127
6341,note_off,107,0,0,,11,,,58,127
6343,note_on,2,0,0,,0,,,60,127
6450,note_off,107,0,0,,0,,,60,127
6450,note_off,0,0,0,,0,,,84,127
6452,note_on,2,0,0,,2,,,62,127
6452,note_on,0,0,0,,11,,,82,127
6559,note_off,107,0,0,,2,,,62,127
6561,note_on,2,0,0,,4,,,64,127
6668,note_off,107,0,0,,4,,,64,127
6670,note_on,2,0,0,,5,,,65,127
6777,note_off,107,0,0,,5,,,65,127
6779,note_on,2,0,0,,7,,,67,127
6886,note_off,107,0,0,,7,,,67,127
6886,note_off,0,0,0,,11,,,82,127
6888,note_on,2,0,0,,10,,,69,127
6888,note_on,0,0,0,,10,,,81,127
6995,note_off,107,0,0,,10,,,69,127
6997,note_on,2,0,0,,11,,,70,127
7104,note_off,107,0,0,,11,,,70,127
7106,note_on,2,0,0,,0,,,72,127
7323,note_off,217,0,0,,10,,,81,127
7325,note_on,2,0,0,,7,,,79,127
7432,note_off,107,0,0,,7,,,79,127
7434,note_on,2,0,0,,5,,,77,127
7541,note_off,107,0,0,,5,,,77,127
7543,note_on,2,0,0,,5,,,77,127
7650,note_off,107,0,0,,5,,,77,127
7652,note_on,2,0,0,,4,,,76,127
7759,note_off,107,0,0,,4,,,76,127
7759,note_off,0,0,0,,0,,,72,127
7761,note_on,2,0,0,,11,,,70,127
7761,note_on,0,0,0,,4,,,76,127
7868,note_off,107,0,0,,4,,,76,127
7870,note_on,2,0,0,,2,,,74,127
7977,note_off,107,0,0,,2,,,74,127
7977,note_off,0,0,0,,11,,,70,127
7979,note_on,2,0,0,,10,,,69,127
7979,note_on,0,0,0,,2,,,74,127
8086,note_off,107,0,0,,2,,,74,127
8088,note_on,2,0,0,,0,,,72,127
8195,note_off,107,0,0,,0,,,72,127
8195,note_off,0,0,0,,10,,,69,127
8197,note_on,2,0,0,,7,,,67,127
8197,note_on,0,0,0,,0,,,72,127
8304,note_off,107,0,0,,0,,,72,127
8306,note_on,2,0,0,,11,,,70,127
8413,note_off,107,0,0,,11,,,70,127
8413,note_off,0,0,0,,7,,,67,127
8415,note_on,2,0,0,,5,,,65,127
8415,note_on,0,0,0,,0,,,72,127
8468,note_off,53,0,0,,0,,,72,127
8470,note_on,2,0,0,,11,,,70,127
8523,note_off,53,0,0,,11,,,70,127
8525,note_on,2,0,0,,0,,,72,127
8578,note_off,53,0,0,,0,,,72,127
8580,note_on,2,0,0,,11,,,70,127
8633,note_off,53,0,0,,11,,,70,127
8635,note_on,2,0,0,,10,,,69,127
8818,note_off,183,0,0,,10,,,69,127
8844,note_off,26,0,0,,5,,,65,127
8854,note_on,10,0,0,,4,,,64,127
8854,note_on,0,0,0,,0,,,72,127
8961,note_off,107,0,0,,0,,,72,127
8963,note_on,2,0,0,,4,,,76,127
9070,note_off,107,0,0,,4,,,76,127
9070,note_off,0,0,0,,4,,,64,127
9072,note_on,2,0,0,,0,,,60,127
9072,note_on,0,0,0,,7,,,79,127
9179,note_off,107,0,0,,7,,,79,127
9181,note_on,2,0,0,,11,,,82,127
9288,note_off,107,0,0,,11,,,82,127
9288,note_off,0,0,0,,0,,,60,127
9290,note_on,2,0,0,,5,,,65,127
9290,note_on,0,0,0,,11,,,82,127
9507,note_off,217,0,0,,11,,,82,127
9509,note_on,2,0,0,,10,,,81,127
9702,note_off,193,0,0,,10,,,81,127
9726,note_off,24,0,0,,5,,,65,127
9728,note_on,2,0,0,,0,,,60,127
9728,note_on,0,0,0,,7,,,79,127
9835,note_off,107,0,0,,0,,,60,127
9837,note_on,2,0,0,,4,,,64,127
9944,note_off,107,0,0,,4,,,64,127
9944,note_off,0,0,0,,7,,,79,127
9946,note_on,2,0,0,,7,,,67,127
9946,note_on,0,0,0,,5,,,77,127
10053,note_off,107,0,0,,5,,,77,127
10053,note_off,0,0,0,,7,,,67,127
10055,note_on,2,0,0,,11,,,70,127
10055,note_on,0,0,0,,4,,,76,127
10162,note_off,107,0,0,,4,,,76,127
10162,note_off,0,0,0,,11,,,70,127
10164,note_on,2,0,0,,11,,,70,127
10164,note_on,0,0,0,,4,,,76,127
10381,note_off,217,0,0,,4,,,76,127
10381,note_off,0,0,0,,11,,,70,127
10383,note_on,2,0,0,,10,,,69,127
10383,note_on,0,0,0,,5,,,77,127
10589,note_off,206,0,0,,5,,,77,127
10600,note_off,11,0,0,,10,,,69,127
10602,note_on,2,0,0,,0,,,60,127
10602,note_on,0,0,0,,7,,,79,127
10709,note_off,107,0,0,,0,,,60,127
10711,note_on,2,0,0,,4,,,64,127
10818,note_off,107,0,0,,4,,,64,127
10818,note_off,0,0,0,,7,,,79,127
10820,note_on,2,0,0,,7,,,67,127
10820,note_on,0,0,0,,5,,,77,127
10927,note_off,107,0,0,,5,,,77,127
10927,note_off,0,0,0,,7,,,67,127
10929,note_on,2,0,0,,11,,,70,127
10929,note_on,0,0,0,,4,,,76,127
11036,note_off,107,0,0,,4,,,76,127
11036,note_off,0,0,0,,11,,,70,127
11038,note_on,2,0,0,,11,,,70,127
11038,note_on,0,0,0,,4,,,76,127
11255,note_off,217,0,0,,4,,,76,127
11255,note_off,0,0,0,,11,,,70,127
11257,note_on,2,0,0,,10,,,69,127
11257,note_on,0,0,0,,5,,,77,127
11463,note_off,206,0,0,,5,,,77,127
11477,note_on,14,0,0,,8,,,80,127
11532,note_off,55,0,0,,10,,,69,127
11585,note_off,53,0,0,,8,,,80,127
11587,note_on,2,0,0,,10,,,81,127
11694,note_off,107,0,0,,10,,,81,127
11696,note_on,2,0,0,,5,,,65,127
11696,note_on,0,0,0,,10,,,69,127
11696,note_on,0,0,0,,10,,,81,127
11803,note_off,107,0,0,,10,,,81,127
11805,note_on,2,0,0,,7,,,79,127
11912,note_off,107,0,0,,7,,,79,127
11912,note_off,0,0,0,,10,,,69,127
11912,note_off,0,0,0,,5,,,65,127
11914,note_on,2,0,0,,5,,,65,127
11914,note_on,0,0,0,,10,,,69,127
11914,note_on,0,0,0,,7,,,79,127
12021,note_off,107,0,0,,7,,,79,127
12023,note_on,2,0,0,,5,,,77,127
12130,note_off,107,0,0,,5,,,77,127
12130,note_off,0,0,0,,10,,,69,127
12130,note_off,0,0,0,,5,,,65,127
12132,note_on,2,0,0,,5,,,65,127
12132,note_on,0,0,0,,10,,,69,127
12132,note_on,0,0,0,,5,,,77,127
12239,note_off,107,0,0,,5,,,77,127
12241,note_on,2,0,0,,4,,,76,127
12348,note_off,107,0,0,,4,,,76,127
12348,note_off,0,0,0,,10,,,69,127
12348,note_off,0,0,0,,5,,,65,127
12350,note_on,2,0,0,,10,,,69,127
12350,note_on,0,0,0,,5,,,65,127
12350,note_on,0,0,0,,4,,,76,127
12457,note_off,107,0,0,,4,,,76,127
12459,note_on,2,0,0,,2,,,74,127
12566,note_off,107,0,0,,2,,,74,127
12566,note_off,0,0,0,,5,,,65,127
12566,note_off,0,0,0,,10,,,69,127
12568,note_on,2,0,0,,5,,,65,127
12568,note_on,0,0,0,,10,,,69,127
12568,note_on,0,0,0,,2,,,74,127
12675,note_off,107,0,0,,2,,,74,127
12677,note_on,2,0,0,,0,,,72,127
12784,note_off,107,0,0,,0,,,72,127
12784,note_off,0,0,0,,10,,,69,127
12784,note_off,0,0,0,,5,,,65,127
12786,note_on,2,0,0,,7,,,67,127
12786,note_on,0,0,0,,5,,,65,127
12786,note_on,0,0,0,,2,,,74,127
12839,note_off,53,0,0,,2,,,74,127
12841,note_on,2,0,0,,0,,,72,127
12894,note_off,53,0,0,,0,,,72,127
12896,note_on,2,0,0,,2,,,74,127
12949,note_off,53,0,0,,2,,,74,127
12951,note_on,2,0,0,,0,,,72,127
13004,note_off,53,0,0,,0,,,72,127
13006,note_on,2,0,0,,12,,,71,127
13223,note_off,217,0,0,,12,,,71,127
13225,note_on,2,0,0,,6,,,78,127
13332,note_off,107,0,0,,6,,,78,127
13334,note_on,2,0,0,,7,,,79,127
13441,note_off,107,0,0,,7,,,79,127
13441,note_off,0,0,0,,5,,,65,127
13441,note_off,0,0,0,,7,,,67,127
13443,note_on,2,0,0,,4,,,64,127
13443,note_on,0,0,0,,7,,,67,127
13443,note_on,0,0,0,,7,,,79,127
13550,note_off,107,0,0,,7,,,79,127
13552,note_on,2,0,0,,5,,,77,127
13659,note_off,107,0,0,,5,,,77,127
13659,note_off,0,0,0,,7,,,67,127
13659,note_off,0,0,0,,4,,,64,127
13661,note_on,2,0,0,,4,,,64,127
13661,note_on,0,0,0,,7,,,67,127
13661,note_on,0,0,0,,5,,,77,127
13768,note_off,107,0,0,,5,,,77,127
13770,note_on,2,0,0,,4,,,76,127
13877,note_off,107,0,0,,4,,,76,127
13877,note_off,0,0,0,,7,,,67,127
13877,note_off,0,0,0,,4,,,64,127
13879,note_on,2,0,0,,4,,,64,127
13879,note_on,0,0,0,,7,,,67,127
13879,note_on,0,0,0,,4,,,76,127
13986,note_off,107,0,0,,4,,,76,127
13988,note_on,2,0,0,,2,,,74,127
14095,note_off,107,0,0,,2,,,74,127
14095,note_off,0,0,0,,7,,,67,127
14095,note_off,0,0,0,,4,,,64,127
14097,note_on,2,0,0,,4,,,64,127
14097,note_on,0,0,0,,7,,,67,127
14097,note_on,0,0,0,,2,,,74,127
14204,note_off,107,0,0,,2,,,74,127
14206,note_on,2,0,0,,0,,,72,127
14313,note_off,107,0,0,,0,,,72,127
14313,note_off,0,0,0,,7,,,67,127
14313,note_off,0,0,0,,4,,,64,127
14315,note_on,2,0,0,,4,,,64,127
14315,note_on,0,0,0,,7,,,67,127
14315,note_on,0,0,0,,0,,,72,127
14422,note_off,107,0,0,,0,,,72,127
14424,note_on,2,0,0,,12,,,71,127
14531,note_off,107,0,0,,12,,,71,127
14531,note_off,0,0,0,,7,,,67,127
14531,note_off,0,0,0,,4,,,64,127
14533,note_on,2,0,0,,4,,,64,127
14533,note_on,0,0,0,,5,,,65,127
14533,note_on,0,0,0,,0,,,72,127
14586,note_off,53,0,0,,0,,,72,127
14588,note_on,2,0,0,,12,,,71,127
14641,note_off,53,0,0,,12,,,71,127
14643,note_on,2,0,0,,0,,,72,127
14696,note_off,53,0,0,,0,,,72,127
14698,note_on,2,0,0,,12,,,71,127
14751,note_off,53,0,0,,12,,,71,127
14753,note_on,2,0,0,,10,,,69,127
14970,note_off,217,0,0,,10,,,69,127
14972,note_on,2,0,0,,4,,,76,127
15079,note_off,107,0,0,,4,,,76,127
15081,note_on,2,0,0,,5,,,77,127
15188,note_off,107,0,0,,5,,,77,127
15188,note_off,0,0,0,,5,,,65,127
15188,note_off,0,0,0,,4,,,64,127
15190,note_on,2,0,0,,5,,,65,127
15190,note_on,0,0,0,,2,,,62,127
15190,note_on,0,0,0,,5,,,77,127
15297,note_off,107,0,0,,5,,,77,127
15299,note_on,2,0,0,,4,,,76,127
15406,note_off,107,0,0,,4,,,76,127
15406,note_off,0,0,0,,2,,,62,127
15406,note_off,0,0,0,,5,,,65,127
15408,note_on,2,0,0,,2,,,62,127
15408,note_on,0,0,0,,5,,,65,127
15408,note_on,0,0,0,,4,,,76,127
15515,note_off,107,0,0,,4,,,76,127
15517,note_on,2,0,0,,2,,,74,127
15624,note_off,107,0,0,,2,,,74,127
15624,note_off,0,0,0,,5,,,65,127
15624,note_off,0,0,0,,2,,,62,127
15626,note_on,2,0,0,,2,,,62,127
15626,note_on,0,0,0,,5,,,65,127
15626,note_on,0,0,0,,2,,,74,127
15733,note_off,107,0,0,,2,,,74,127
15735,note_on,2,0,0,,0,,,72,127
15842,note_off,107,0,0,,0,,,72,127
15842,note_off,0,0,0,,5,,,65,127
15842,note_off,0,0,0,,2,,,62,127
15844,note_on,2,0,0,,0,,,60,127
15844,note_on,0,0,0,,5,,,65,127
15844,note_on,0,0,0,,0,,,72,127
15951,note_off,107,0,0,,0,,,72,127
15953,note_on,2,0,0,,12,,,71,127
16060,note_off,107,0,0,,12,,,71,127
16060,note_off,0,0,0,,5,,,65,127
16060,note_off,0,0,0,,0,,,60,127
16062,note_on,2,0,0,,5,,,65,127
16062,note_on,0,0,0,,0,,,60,127
16062,note_on,0,0,0,,12,,,71,127
16169,note_off,107,0,0,,12,,,71,127
16171,note_on,2,0,0,,10,,,69,127
16278,note_off,107,0,0,,10,,,69,127
16278,note_off,0,0,0,,0,,,60,127
16278,note_off,0,0,0,,5,,,65,127
16280,note_on,2,0,0,,5,,,65,127
16280,note_on,0,0,0,,12,,,59,127
16280,note_on,0,0,0,,12,,,71,127
16333,note_off,53,0,0,,12,,,71,127
16335,note_on,2,0,0,,10,,,69,127
16388,note_off,53,0,0,,10,,,69,127
16390,note_on,2,0,0,,12,,,71,127
16443,note_off,53,0,0,,12,,,71,127
16445,note_on,2,0,0,,10,,,69,127
16498,note_off,53,0,0,,10,,,69,127
16500,note_on,2,0,0,,7,,,67,127
16717,note_off,217,0,0,,7,,,67,127
16717,note_off,0,0,0,,12,,,59,127
16717,note_off,0,0,0,,5,,,65,127
16719,note_on,2,0,0,,12,,,59,127
16719,note_on,0,0,0,,2,,,62,127
16719,note_on,0,0,0,,7,,,67,127
16826,note_off,107,0,0,,7,,,67,127
16828,note_on,2,0,0,,12,,,71,127
16935,note_off,107,0,0,,12,,,71,127
16935,note_off,0,0,0,,12,,,59,127
16937,note_on,2,0,0,,7,,,55,127
16937,note_on,0,0,0,,2,,,74,127
17044,note_off,107,0,0,,2,,,74,127
17046,note_on,2,0,0,,5,,,77,127
17151,note_off,105,0,0,,2,,,62,127
17153,note_off,2,0,0,,5,,,77,127
17153,note_off,0,0,0,,7,,,55,127
17155,note_on,2,0,0,,0,,,60,127
17155,note_on,0,0,0,,5,,,77,127
17372,note_off,217,0,0,,5,,,77,127
17374,note_on,2,0,0,,4,,,76,127
17591,note_off,217,0,0,,4,,,76,127
17591,note_off,0,0,0,,0,,,60,127
17593,note_on,2,0,0,,12,,,59,127
17593,note_on,0,0,0,,2,,,62,127
17593,note_on,0,0,0,,7,,,67,127
17700,note_off,107,0,0,,7,,,67,127
17702,note_on,2,0,0,,12,,,71,127
17809,note_off,107,0,0,,12,,,71,127
17809,note_off,0,0,0,,12,,,59,127
17811,note_on,2,0,0,,7,,,55,127
17811,note_on,0,0,0,,2,,,74,127
17918,note_off,107,0,0,,2,,,74,127
17920,note_on,2,0,0,,5,,,77,127
18025,note_off,105,0,0,,2,,,62,127
18027,note_off,2,0,0,,5,,,77,127
18027,note_off,0,0,0,,7,,,55,127
18029,note_on,2,0,0,,0,,,60,127
18029,note_on,0,0,0,,5,,,77,127
18246,note_off,217,0,0,,5,,,77,127
18248,note_on,2,0,0,,4,,,76,127
18442,note_off,194,0,0,,4,,,76,127
18465,note_off,23,0,0,,0,,,60,127
18467,note_on,2,0,0,,7,,,55,127
18467,note_on,0,0,0,,4,,,76,127
18574,note_off,107,0,0,,4,,,76,127
18574,note_off,0,0,0,,7,,,55,127
18576,note_on,2,0,0,,12,,,59,127
18576,note_on,0,0,0,,2,,,74,127
18683,note_off,107,0,0,,2,,,74,127
18683,note_off,0,0,0,,12,,,59,127
18685,note_on,2,0,0,,2,,,62,127
18685,note_on,0,0,0,,0,,,72,127
18792,note_off,107,0,0,,0,,,72,127
18792,note_off,0,0,0,,2,,,62,127
18794,note_on,2,0,0,,5,,,65,127
18794,note_on,0,0,0,,12,,,71,127
18901,note_off,107,0,0,,12,,,71,127
18901,note_off,0,0,0,,5,,,65,127
18903,note_on,2,0,0,,5,,,65,127
18903,note_on,0,0,0,,12,,,71,127
19120,note_off,217,0,0,,12,,,71,127
19120,note_off,0,0,0,,5,,,65,127
19122,note_on,2,0,0,,4,,,64,127
19122,note_on,0,0,0,,0,,,72,127
19339,note_off,217,0,0,,0,,,72,127
19339,note_off,0,0,0,,4,,,64,127
19341,note_on,2,0,0,,7,,,55,127
19341,note_on,0,0,0,,4,,,76,127
19448,note_off,107,0,0,,4,,,76,127
19448,note_off,0,0,0,,7,,,55,127
19450,note_on,2,0,0,,12,,,59,127
19450,note_on,0,0,0,,2,,,74,127
19557,note_off,107,0,0,,2,,,74,127
19557,note_off,0,0,0,,12,,,59,127
19559,note_on,2,0,0,,2,,,62,127
19559,note_on,0,0,0,,0,,,72,127
19666,note_off,107,0,0,,0,,,72,127
19666,note_off,0,0,0,,2,,,62,127
19668,note_on,2,0,0,,5,,,65,127
19668,note_on,0,0,0,,12,,,71,127
19775,note_off,107,0,0,,12,,,71,127
19775,note_off,0,0,0,,5,,,65,127
19777,note_on,2,0,0,,5,,,65,127
19777,note_on,0,0,0,,12,,,71,127
19994,note_off,217,0,0,,12,,,71,127
19994,note_off,0,0,0,,5,,,65,127
19996,note_on,2,0,0,,4,,,64,127
19996,note_on,0,0,0,,0,,,72,127
20213,note_off,217,0,0,,0,,,72,127
20213,note_off,0,0,0,,4,,,64,127
20215,note_on,2,0,0,,7,,,79,127
20322,note_off,107,0,0,,7,,,79,127
20324,note_on,2,0,0,,4,,,76,127
20431,note_off,107,0,0,,4,,,76,127
20433,note_on,2,0,0,,0,,,60,127
20433,note_on,0,0,0,,4,,,52,127
20433,note_on,0,0,0,,0,,,72,127
20540,note_off,107,0,0,,0,,,72,127
20542,note_on,2,0,0,,12,,,71,127
20649,note_off,107,0,0,,12,,,71,127
20649,note_off,0,0,0,,4,,,52,127
20649,note_off,0,0,0,,0,,,60,127
20651,note_on,2,0,0,,0,,,60,127
20651,note_on,0,0,0,,5,,,53,127
20651,note_on,0,0,0,,12,,,71,127
20868,note_off,217,0,0,,12,,,71,127
20870,note_on,2,0,0,,10,,,69,127
21085,note_off,215,0,0,,5,,,53,127
21085,note_off,0,0,0,,0,,,60,127
21087,note_off,2,0,0,,10,,,69,127
21089,note_on,2,0,0,,10,,,81,127
21196,note_off,107,0,0,,10,,,81,127
21198,note_on,2,0,0,,5,,,77,127
21305,note_off,107,0,0,,5,,,77,127
21307,note_on,2,0,0,,0,,,60,127
21307,note_on,0,0,0,,2,,,62,127
21307,note_on,0,0,0,,6,,,54,127
21307,note_on,0,0,0,,2,,,74,127
21414,note_off,107,0,0,,2,,,74,127
21416,note_on,2,0,0,,0,,,72,127
21523,note_off,107,0,0,,0,,,72,127
21523,note_off,0,0,0,,6,,,54,127
21523,note_off,0,0,0,,2,,,62,127
21523,note_off,0,0,0,,0,,,60,127
21525,note_on,2,0,0,,2,,,62,127
21525,note_on,0,0,0,,0,,,60,127
21525,note_on,0,0,0,,7,,,55,127
21525,note_on,0,0,0,,0,,,72,127
21742,note_off,217,0,0,,0,,,72,127
21744,note_on,2,0,0,,12,,,71,127
21959,note_off,215,0,0,,7,,,55,127
21959,note_off,0,0,0,,0,,,60,127
21959,note_off,0,0,0,,2,,,62,127
21961,note_off,2,0,0,,12,,,71,127
21963,note_on,2,0,0,,7,,,79,127
22070,note_off,107,0,0,,7,,,79,127
22072,note_on,2,0,0,,4,,,76,127
22179,note_off,107,0,0,,4,,,76,127
22181,note_on,2,0,0,,0,,,60,127
22181,note_on,0,0,0,,4,,,52,127
22181,note_on,0,0,0,,0,,,72,127
22288,note_off,107,0,0,,0,,,72,127
22290,note_on,2,0,0,,12,,,71,127
22397,note_off,107,0,0,,12,,,71,127
22397,note_off,0,0,0,,4,,,52,127
22397,note_off,0,0,0,,0,,,60,127
22399,note_on,2,0,0,,0,,,60,127
22399,note_on,0,0,0,,5,,,53,127
22399,note_on,0,0,0,,12,,,71,127
22616,note_off,217,0,0,,12,,,71,127
22618,note_on,2,0,0,,10,,,69,127
22833,note_off,215,0,0,,5,,,53,127
22833,note_off,0,0,0,,0,,,60,127
22835,note_off,2,0,0,,10,,,69,127
22837,note_on,2,0,0,,10,,,81,127
22944,note_off,107,0,0,,10,,,81,127
22946,note_on,2,0,0,,5,,,77,127
23053,note_off,107,0,0,,5,,,77,127
23055,note_on,2,0,0,,2,,,62,127
23055,note_on,0,0,0,,0,,,60,127
23055,note_on,0,0,0,,6,,,54,127
23055,note_on,0,0,0,,2,,,74,127
23162,note_off,107,0,0,,2,,,74,127
23164,note_on,2,0,0,,0,,,72,127
23271,note_off,107,0,0,,0,,,72,127
23271,note_off,0,0,0,,6,,,54,127
23271,note_off,0,0,0,,0,,,60,127
23271,note_off,0,0,0,,2,,,62,127
23273,note_on,2,0,0,,0,,,60,127
23273,note_on,0,0,0,,2,,,62,127
23273,note_on,0,0,0,,7,,,55,127
23273,note_on,0,0,0,,0,,,72,127
23490,note_off,217,0,0,,0,,,72,127
23492,note_on,2,0,0,,12,,,71,127
23709,note_off,217,0,0,,12,,,71,127
23709,note_off,0,0,0,,7,,,55,127
23709,note_off,0,0,0,,2,,,62,127
23709,note_off,0,0,0,,0,,,60,127
23711,note_on,2,0,0,,12,,,59,127
23711,note_on,0,0,0,,7,,,67,127
23818,note_off,107,0,0,,7,,,67,127
23820,note_on,2,0,0,,12,,,71,127
23927,note_off,107,0,0,,12,,,71,127
23927,note_off,0,0,0,,12,,,59,127
23929,note_on,2,0,0,,7,,,55,127
23929,note_on,0,0,0,,2,,,74,127
24036,note_off,107,0,0,,2,,,74,127
24038,note_on,2,0,0,,5,,,77,127
24145,note_off,107,0,0,,5,,,77,127
24145,note_off,0,0,0,,7,,,55,127
24147,note_on,2,0,0,,0,,,60,127
24147,note_on,0,0,0,,5,,,77,127
24364,note_off,217,0,0,,5,,,77,127
24364,note_off,0,0,0,,0,,,60,127
24366,note_on,2,0,0,,3,,,51,127
24366,note_on,0,0,0,,3,,,75,127
24583,note_off,217,0,0,,3,,,75,127
24583,note_off,0,0,0,,3,,,51,127
24585,note_on,2,0,0,,5,,,53,127
24585,note_on,0,0,0,,5,,,65,127
24692,note_off,107,0,0,,5,,,65,127
24694,note_on,2,0,0,,8,,,68,127
24801,note_off,107,0,0,,8,,,68,127
24801,note_off,0,0,0,,5,,,53,127
24803,note_on,2,0,0,,7,,,55,127
24803,note_on,0,0,0,,12,,,71,127
24910,note_off,107,0,0,,12,,,71,127
24912,note_on,2,0,0,,2,,,74,127
25019,note_off,107,0,0,,2,,,74,127
25019,note_off,0,0,0,,7,,,55,127
25021,note_on,2,0,0,,3,,,63,127
25021,note_on,0,0,0,,8,,,56,127
25021,note_on,0,0,0,,2,,,74,127
25238,note_off,217,0,0,,2,,,74,127
25238,note_off,0,0,0,,8,,,56,127
25240,note_on,2,0,0,,0,,,60,127
25240,note_on,0,0,0,,0,,,72,127
25455,note_off,215,0,0,,3,,,63,127
25457,note_off,2,0,0,,0,,,72,127
25457,note_off,0,0,0,,0,,,60,127
25459,note_on,2,0,0,,12,,,59,127
25459,note_on,0,0,0,,7,,,67,127
25566,note_off,107,0,0,,7,,,67,127
25568,note_on,2,0,0,,12,,,71,127
25675,note_off,107,0,0,,12,,,71,127
25675,note_off,0,0,0,,12,,,59,127
25677,note_on,2,0,0,,7,,,55,127
25677,note_on,0,0,0,,2,,,74,127
25784,note_off,107,0,0,,2,,,74,127
25786,note_on,2,0,0,,5,,,77,127
25893,note_off,107,0,0,,5,,,77,127
25893,note_off,0,0,0,,7,,,55,127
25895,note_on,2,0,0,,0,,,60,127
25895,note_on,0,0,0,,5,,,77,127
26112,note_off,217,0,0,,5,,,77,127
26112,note_off,0,0,0,,0,,,60,127
26114,note_on,2,0,0,,3,,,51,127
26114,note_on,0,0,0,,3,,,75,127
26331,note_off,217,0,0,,3,,,75,127
26331,note_off,0,0,0,,3,,,51,127
26333,note_on,2,0,0,,5,,,53,127
26333,note_on,0,0,0,,5,,,65,127
26440,note_off,107,0,0,,5,,,65,127
26442,note_on,2,0,0,,8,,,68,127
26549,note_off,107,0,0,,8,,,68,127
26549,note_off,0,0,0,,5,,,53,127
26551,note_on,2,0,0,,7,,,55,127
26551,note_on,0,0,0,,12,,,71,127
26658,note_off,107,0,0,,12,,,71,127
26660,note_on,2,0,0,,2,,,74,127
26767,note_off,107,0,0,,2,,,74,127
26767,note_off,0,0,0,,7,,,55,127
26769,note_on,2,0,0,,3,,,63,127
26769,note_on,0,0,0,,8,,,56,127
26769,note_on,0,0,0,,0,,,60,127
26769,note_on,0,0,0,,2,,,74,127
26986,note_off,217,0,0,,2,,,74,127
26986,note_off,0,0,0,,0,,,60,127
26986,note_off,0,0,0,,8,,,56,127
26988,note_on,2,0,0,,8,,,56,127
26988,note_on,0,0,0,,0,,,60,127
26988,note_on,0,0,0,,0,,,72,127
27203,note_off,215,0,0,,3,,,63,127
27205,note_off,2,0,0,,0,,,60,127
27205,note_off,0,0,0,,8,,,56,127
27207,note_on,2,0,0,,0,,,60,127
27207,note_on,0,0,0,,8,,,56,127
27314,note_off,107,0,0,,0,,,72,127
27316,note_on,2,0,0,,0,,,72,127
27423,note_off,107,0,0,,0,,,72,127
27423,note_off,0,0,0,,8,,,56,127
27423,note_off,0,0,0,,0,,,60,127
27425,note_on,2,0,0,,0,,,60,127
27425,note_on,0,0,0,,8,,,56,127
27425,note_on,0,0,0,,0,,,72,127
27532,note_off,107,0,0,,0,,,72,127
27534,note_on,2,0,0,,0,,,72,127
27641,note_off,107,0,0,,0,,,72,127
27641,note_off,0,0,0,,8,,,56,127
27641,note_off,0,0,0,,0,,,60,127
27643,note_on,2,0,0,,0,,,60,127
27643,note_on,0,0,0,,4,,,64,127
27643,note_on,0,0,0,,7,,,55,127
27643,note_on,0,0,0,,11,,,58,127
27643,note_on,0,0,0,,1,,,73,127
27750,note_off,107,0,0,,1,,,73,127
27752,note_on,2,0,0,,11,,,70,127
27859,note_off,107,0,0,,11,,,70,127
27859,note_off,0,0,0,,11,,,58,127
27859,note_off,0,0,0,,7,,,55,127
27859,note_off,0,0,0,,4,,,64,127
27859,note_off,0,0,0,,0,,,60,127
27861,note_on,2,0,0,,4,,,64,127
27861,note_on,0,0,0,,11,,,58,127
27861,note_on,0,0,0,,0,,,60,127
27861,note_on,0,0,0,,7,,,55,127
27861,note_on,0,0,0,,11,,,70,127
27968,note_off,107,0,0,,11,,,70,127
27970,note_on,2,0,0,,8,,,68,127
28077,note_off,107,0,0,,8,,,68,127
28077,note_off,0,0,0,,7,,,55,127
28077,note_off,0,0,0,,0,,,60,127
28077,note_off,0,0,0,,11,,,58,127
28077,note_off,0,0,0,,4,,,64,127
28079,note_on,2,0,0,,0,,,60,127
28079,note_on,0,0,0,,4,,,64,127
28079,note_on,0,0,0,,7,,,55,127
28079,note_on,0,0,0,,11,,,58,127
28079,note_on,0,0,0,,8,,,68,127
28186,note_off,107,0,0,,8,,,68,127
28188,note_on,2,0,0,,7,,,67,127
28295,note_off,107,0,0,,7,,,67,127
28295,note_off,0,0,0,,11,,,58,127
28295,note_off,0,0,0,,7,,,55,127
28295,note_off,0,0,0,,4,,,64,127
28295,note_off,0,0,0,,0,,,60,127
28297,note_on,2,0,0,,7,,,55,127
28297,note_on,0,0,0,,11,,,58,127
28297,note_on,0,0,0,,0,,,60,127
28297,note_on,0,0,0,,4,,,64,127
28297,note_on,0,0,0,,7,,,67,127
28404,note_off,107,0,0,,7,,,67,127
28406,note_on,2,0,0,,4,,,76,127
28513,note_off,107,0,0,,4,,,76,127
28513,note_off,0,0,0,,4,,,64,127
28513,note_off,0,0,0,,0,,,60,127
28513,note_off,0,0,0,,11,,,58,127
28513,note_off,0,0,0,,7,,,55,127
28515,note_on,2,0,0,,5,,,65,127
28515,note_on,0,0,0,,0,,,60,127
28515,note_on,0,0,0,,8,,,56,127
28515,note_on,0,0,0,,4,,,76,127
28732,note_off,217,0,0,,4,,,76,127
28732,note_off,0,0,0,,8,,,56,127
28732,note_off,0,0,0,,0,,,60,127
28732,note_off,0,0,0,,5,,,65,127
28734,note_on,2,0,0,,5,,,65,127
28734,note_on,0,0,0,,8,,,56,127
28734,note_on,0,0,0,,0,,,60,127
28734,note_on,0,0,0,,5,,,77,127
28951,note_off,217,0,0,,0,,,60,127
28951,note_off,0,0,0,,8,,,56,127
28951,note_off,0,0,0,,5,,,65,127
28953,note_on,2,0,0,,0,,,60,127
28953,note_on,0,0,0,,5,,,65,127
28953,note_on,0,0,0,,8,,,56,127
29060,note_off,107,0,0,,5,,,77,127
29062,note_on,2,0,0,,5,,,77,127
29169,note_off,107,0,0,,5,,,77,127
29169,note_off,0,0,0,,8,,,56,127
29169,note_off,0,0,0,,5,,,65,127
29169,note_off,0,0,0,,0,,,60,127
29171,note_on,2,0,0,,5,,,65,127
29171,note_on,0,0,0,,8,,,56,127
29171,note_on,0,0,0,,0,,,60,127
29171,note_on,0,0,0,,5,,,77,127
29278,note_off,107,0,0,,5,,,77,127
29280,note_on,2,0,0,,5,,,77,127
29387,note_off,107,0,0,,5,,,77,127
29387,note_off,0,0,0,,0,,,60,127
29387,note_off,0,0,0,,8,,,56,127
29387,note_off,0,0,0,,5,,,65,127
29389,note_on,2,0,0,,7,,,67,127
29389,note_on,0,0,0,,4,,,64,127
29389,note_on,0,0,0,,7,,,79,127
29496,note_off,107,0,0,,7,,,79,127
29498,note_on,2,0,0,,1,,,73,127
29605,note_off,107,0,0,,1,,,73,127
29605,note_off,0,0,0,,4,,,64,127
29605,note_off,0,0,0,,7,,,67,127
29607,note_on,2,0,0,,4,,,64,127
29607,note_on,0,0,0,,7,,,67,127
29607,note_on,0,0,0,,1,,,73,127
29714,note_off,107,0,0,,1,,,73,127
29716,note_on,2,0,0,,0,,,72,127
29823,note_off,107,0,0,,0,,,72,127
29823,note_off,0,0,0,,7,,,67,127
29823,note_off,0,0,0,,4,,,64,127
29825,note_on,2,0,0,,4,,,64,127
29825,note_on,0,0,0,,7,,,67,127
29825,note_on,0,0,0,,0,,,72,127
29932,note_off,107,0,0,,0,,,72,127
29934,note_on,2,0,0,,11,,,70,127
30041,note_off,107,0,0,,11,,,70,127
30041,note_off,0,0,0,,7,,,67,127
30041,note_off,0,0,0,,4,,,64,127
30043,note_on,2,0,0,,4,,,64,127
30043,note_on,0,0,0,,7,,,67,127
30043,note_on,0,0,0,,11,,,70,127
30150,note_off,107,0,0,,11,,,70,127
30152,note_on,2,0,0,,7,,,79,127
30259,note_off,107,0,0,,7,,,79,127
30259,note_off,0,0,0,,7,,,67,127
30259,note_off,0,0,0,,4,,,64,127
30261,note_on,2,0,0,,5,,,65,127
30261,note_on,0,0,0,,0,,,60,127
30261,note_on,0,0,0,,5,,,53,127
30261,note_on,0,0,0,,7,,,79,127
30478,note_off,217,0,0,,7,,,79,127
30478,note_off,0,0,0,,5,,,53,127
30478,note_off,0,0,0,,0,,,60,127
30478,note_off,0,0,0,,5,,,65,127
30480,note_on,2,0,0,,5,,,65,127
30480,note_on,0,0,0,,5,,,53,127
30480,note_on,0,0,0,,0,,,60,127
30480,note_on,0,0,0,,8,,,80,127
30697,note_off,217,0,0,,0,,,60,127
30697,note_off,0,0,0,,5,,,53,127
30697,note_off,0,0,0,,5,,,65,127
30699,note_on,2,0,0,,0,,,60,127
30699,note_on,0,0,0,,5,,,65,127
30699,note_on,0,0,0,,5,,,53,127
30806,note_off,107,0,0,,8,,,80,127
30808,note_on,2,0,0,,8,,,80,127
30915,note_off,107,0,0,,8,,,80,127
30915,note_off,0,0,0,,5,,,53,127
30915,note_off,0,0,0,,5,,,65,127
30915,note_off,0,0,0,,0,,,60,127
30917,note_on,2,0,0,,5,,,53,127
30917,note_on,0,0,0,,0,,,60,127
30917,note_on,0,0,0,,5,,,65,127
30917,note_on,0,0,0,,8,,,80,127
31024,note_off,107,0,0,,8,,,80,127
31026,note_on,2,0,0,,8,,,80,127
31133,note_off,107,0,0,,8,,,80,127
31133,note_off,0,0,0,,5,,,65,127
31133,note_off,0,0,0,,0,,,60,127
31133,note_off,0,0,0,,5,,,53,127
31135,note_on,2,0,0,,11,,,70,127
31135,note_on,0,0,0,,1,,,61,127
31135,note_on,0,0,0,,4,,,64,127
31135,note_on,0,0,0,,8,,,80,127
31242,note_off,107,0,0,,8,,,80,127
31244,note_on,2,0,0,,7,,,79,127
31351,note_off,107,0,0,,7,,,79,127
31351,note_off,0,0,0,,4,,,64,127
31351,note_off,0,0,0,,1,,,61,127
31351,note_off,0,0,0,,11,,,70,127
31353,note_on,2,0,0,,11,,,70,127
31353,note_on,0,0,0,,1,,,61,127
31353,note_on,0,0,0,,4,,,64,127
31353,note_on,0,0,0,,11,,,82,127
31460,note_off,107,0,0,,11,,,82,127
31462,note_on,2,0,0,,8,,,80,127
31569,note_off,107,0,0,,8,,,80,127
31569,note_off,0,0,0,,4,,,64,127
31569,note_off,0,0,0,,1,,,61,127
31569,note_off,0,0,0,,11,,,70,127
31571,note_on,2,0,0,,11,,,70,127
31571,note_on,0,0,0,,1,,,61,127
31571,note_on,0,0,0,,4,,,64,127
31571,note_on,0,0,0,,7,,,79,127
31678,note_off,107,0,0,,7,,,79,127
31680,note_on,2,0,0,,5,,,77,127
31787,note_off,107,0,0,,5,,,77,127
31787,note_off,0,0,0,,4,,,64,127
31787,note_off,0,0,0,,1,,,61,127
31787,note_off,0,0,0,,11,,,70,127
31789,note_on,2,0,0,,11,,,70,127
31789,note_on,0,0,0,,1,,,61,127
31789,note_on,0,0,0,,4,,,64,127
31789,note_on,0,0,0,,4,,,76,127
31896,note_off,107,0,0,,4,,,76,127
31898,note_on,2,0,0,,5,,,77,127
32005,note_off,107,0,0,,5,,,77,127
32005,note_off,0,0,0,,4,,,64,127
32005,note_off,0,0,0,,1,,,61,127
32005,note_off,0,0,0,,11,,,70,127
32007,note_on,2,0,0,,0,,,60,127
32007,note_on,0,0,0,,7,,,67,127
32007,note_on,0,0,0,,0,,,72,127
32007,note_on,0,0,0,,5,,,77,127
32114,note_off,107,0,0,,5,,,77,127
32116,note_on,2,0,0,,4,,,76,127
32223,note_off,107,0,0,,4,,,76,127
32223,note_off,0,0,0,,0,,,72,127
32223,note_off,0,0,0,,7,,,67,127
32223,note_off,0,0,0,,0,,,60,127
32225,note_on,2,0,0,,7,,,67,127
32225,note_on,0,0,0,,0,,,72,127
32225,note_on,0,0,0,,0,,,60,127
32225,note_on,0,0,0,,11,,,82,127
32332,note_off,107,0,0,,11,,,82,127
32334,note_on,2,0,0,,8,,,80,127
32441,note_off,107,0,0,,8,,,80,127
32441,note_off,0,0,0,,0,,,60,127
32441,note_off,0,0,0,,0,,,72,127
32441,note_off,0,0,0,,7,,,67,127
32443,note_on,2,0,0,,1,,,61,127
32443,note_on,0,0,0,,11,,,70,127
32443,note_on,0,0,0,,4,,,64,127
32443,note_on,0,0,0,,7,,,79,127
32550,note_off,107,0,0,,7,,,79,127
32552,note_on,2,0,0,,5,,,77,127
32659,note_off,107,0,0,,5,,,77,127
32659,note_off,0,0,0,,4,,,64,127
32659,note_off,0,0,0,,11,,,70,127
32659,note_off,0,0,0,,1,,,61,127
32661,note_on,2,0,0,,12,,,71,127
32661,note_on,0,0,0,,1,,,61,127
32661,note_on,0,0,0,,4,,,64,127
32661,note_on,0,0,0,,4,,,76,127
32768,note_off,107,0,0,,4,,,76,127
32770,note_on,2,0,0,,5,,,77,127
32877,note_off,107,0,0,,5,,,77,127
32877,note_off,0,0,0,,4,,,64,127
32877,note_off,0,0,0,,1,,,61,127
32877,note_off,0,0,0,,12,,,71,127
32879,note_on,2,0,0,,7,,,67,127
32879,note_on,0,0,0,,0,,,60,127
32879,note_on,0,0,0,,0,,,72,127
32879,note_on,0,0,0,,5,,,77,127
32986,note_off,107,0,0,,5,,,77,127
32988,note_on,2,0,0,,4,,,76,127
33095,note_off,107,0,0,,4,,,76,127
33095,note_off,0,0,0,,0,,,72,127
33095,note_off,0,0,0,,0,,,60,127
33095,note_off,0,0,0,,7,,,67,127
33097,note_on,2,0,0,,0,,,60,127
33097,note_on,0,0,0,,7,,,67,127
33097,note_on,0,0,0,,0,,,72,127
33097,note_on,0,0,0,,11,,,82,127
33204,note_off,107,0,0,,11,,,82,127
33206,note_on,2,0,0,,8,,,80,127
33313,note_off,107,0,0,,8,,,80,127
33313,note_off,0,0,0,,0,,,72,127
33313,note_off,0,0,0,,7,,,67,127
33313,note_off,0,0,0,,0,,,60,127
33315,note_on,2,0,0,,11,,,70,127
33315,note_on,0,0,0,,1,,,61,127
33315,note_on,0,0,0,,4,,,64,127
33315,note_on,0,0,0,,7,,,79,127
33422,note_off,107,0,0,,7,,,79,127
33424,note_on,2,0,0,,5,,,77,127
33531,note_off,107,0,0,,5,,,77,127
33531,note_off,0,0,0,,4,,,64,127
33531,note_off,0,0,0,,1,,,61,127
33531,note_off,0,0,0,,11,,,70,127
33533,note_on,2,0,0,,1,,,61,127
33533,note_on,0,0,0,,4,,,64,127
33533,note_on,0,0,0,,12,,,71,127
33533,note_on,0,0,0,,4,,,76,127
33640,note_off,107,0,0,,4,,,76,127
33642,note_on,2,0,0,,5,,,77,127
33745,note_off,103,0,0,,5,,,77,127
33747,note_on,2,0,0,,0,,,72,127
33747,note_on,0,0,0,,0,,,60,127
33749,note_off,2,0,0,,12,,,71,127
33749,note_off,0,0,0,,4,,,64,127
33749,note_off,0,0,0,,1,,,61,127
34028,note_on,279,0,0,,0,,,84,127
34164,note_off,136,0,0,,0,,,60,127
34164,note_off,0,0,0,,0,,,72,127
34166,note_off,2,0,0,,0,,,84,127
34168,note_on,2,0,0,,11,,,82,127
34306,note_off,138,0,0,,11,,,82,127
34308,note_on,2,0,0,,8,,,80,127
34446,note_off,138,0,0,,8,,,80,127
34448,note_on,2,0,0,,7,,,79,127
34586,note_off,138,0,0,,7,,,79,127
34588,note_on,2,0,0,,8,,,80,127
34726,note_off,138,0,0,,8,,,80,127
34728,note_on,2,0,0,,11,,,82,127
34866,note_off,138,0,0,,11,,,82,127
34868,note_on,2,0,0,,0,,,84,127
35006,note_off,138,0,0,,0,,,84,127
35009,note_on,3,0,0,,11,,,82,127
35147,note_off,138,0,0,,11,,,82,127
35149,note_on,2,0,0,,8,,,80,127
35287,note_off,138,0,0,,8,,,80,127
35289,note_on,2,0,0,,7,,,79,127
35427,note_off,138,0,0,,7,,,79,127
35429,note_on,2,0,0,,5,,,77,127
35567,note_off,138,0,0,,5,,,77,127
35569,note_on,2,0,0,,7,,,79,127
35707,note_off,138,0,0,,7,,,79,127
35709,note_on,2,0,0,,8,,,80,127
35847,note_off,138,0,0,,8,,,80,127
35849,note_on,2,0,0,,7,,,79,127
35987,note_off,138,0,0,,7,,,79,127
35989,note_on,2,0,0,,5,,,77,127
36127,note_off,138,0,0,,5,,,77,127
36129,note_on,2,0,0,,3,,,75,127
36267,note_off,138,0,0,,3,,,75,127
36269,note_on,2,0,0,,1,,,73,127
36407,note_off,138,0,0,,1,,,73,127
36409,note_on,2,0,0,,3,,,75,127
36547,note_off,138,0,0,,3,,,75,127
36549,note_on,2,0,0,,5,,,77,127
36687,note_off,138,0,0,,5,,,77,127
36689,note_on,2,0,0,,3,,,75,127
36827,note_off,138,0,0,,3,,,75,127
36830,note_on,3,0,0,,1,,,73,127
36968,note_off,138,0,0,,1,,,73,127
36970,note_on,2,0,0,,0,,,72,127
37108,note_off,138,0,0,,0,,,72,127
37110,note_on,2,0,0,,11,,,70,127
37248,note_off,138,0,0,,11,,,70,127
37250,note_on,2,0,0,,0,,,72,127
37388,note_off,138,0,0,,0,,,72,127
37390,note_on,2,0,0,,1,,,73,127
37528,note_off,138,0,0,,1,,,73,127
37530,note_on,2,0,0,,0,,,72,127
37668,note_off,138,0,0,,0,,,72,127
37670,note_on,2,0,0,,11,,,70,127
37808,note_off,138,0,0,,11,,,70,127
37810,note_on,2,0,0,,8,,,68,127
37948,note_off,138,0,0,,8,,,68,127
37950,note_on,2,0,0,,7,,,67,127
38088,note_off,138,0,0,,7,,,67,127
38090,note_on,2,0,0,,8,,,68,127
38228,note_off,138,0,0,,8,,,68,127
38230,note_on,2,0,0,,11,,,70,127
38368,note_off,138,0,0,,11,,,70,127
38370,note_on,2,0,0,,8,,,68,127
38508,note_off,138,0,0,,8,,,68,127
38510,note_on,2,0,0,,7,,,67,127
38648,note_off,138,0,0,,7,,,67,127
38651,note_on,3,0,0,,5,,,65,127
38789,note_off,138,0,0,,5,,,65,127
38791,note_on,2,0,0,,4,,,64,127
39072,note_on,281,0,0,,0,,,60,127
39210,note_off,138,0,0,,0,,,60,127
39210,note_off,0,0,0,,4,,,64,127
39212,note_on,2,0,0,,4,,,64,127
39212,note_on,0,0,0,,11,,,58,127
39350,note_off,138,0,0,,11,,,58,127
39352,note_on,2,0,0,,8,,,56,127
39490,note_off,138,0,0,,8,,,56,127
39492,note_on,2,0,0,,7,,,55,127
39630,note_off,138,0,0,,7,,,55,127
39630,note_off,0,0,0,,4,,,64,127
39632,note_on,2,0,0,,5,,,65,127
39632,note_on,0,0,0,,8,,,56,127
39770,note_off,138,0,0,,8,,,56,127
39772,note_on,2,0,0,,11,,,58,127
39910,note_off,138,0,0,,11,,,58,127
39912,note_on,2,0,0,,0,,,60,127
40050,note_off,138,0,0,,0,,,60,127
40050,note_off,0,0,0,,5,,,65,127
40052,note_on,2,0,0,,7,,,67,127
40052,note_on,0,0,0,,11,,,58,127
40190,note_off,138,0,0,,11,,,58,127
40192,note_on,2,0,0,,8,,,56,127
40330,note_off,138,0,0,,8,,,56,127
40332,note_on,2,0,0,,7,,,55,127
40470,note_off,138,0,0,,7,,,55,127
40470,note_off,0,0,0,,7,,,67,127
40473,note_on,3,0,0,,8,,,68,127
40473,note_on,0,0,0,,5,,,53,127
40611,note_off,138,0,0,,5,,,53,127
40613,note_on,2,0,0,,7,,,55,127
40751,note_off,138,0,0,,7,,,55,127
40753,note_on,2,0,0,,8,,,56,127
40891,note_off,138,0,0,,8,,,56,127
40891,note_off,0,0,0,,8,,,68,127
40893,note_on,2,0,0,,7,,,67,127
40893,note_on,0,0,0,,7,,,55,127
41031,note_off,138,0,0,,7,,,55,127
41033,note_on,2,0,0,,5,,,53,127
41171,note_off,138,0,0,,5,,,53,127
41173,note_on,2,0,0,,3,,,51,127
41311,note_off,138,0,0,,3,,,51,127
41311,note_off,0,0,0,,7,,,67,127
41313,note_on,2,0,0,,5,,,65,127
41313,note_on,0,0,0,,1,,,49,127
41451,note_off,138,0,0,,1,,,49,127
41453,note_on,2,0,0,,3,,,51,127
41591,note_off,138,0,0,,3,,,51,127
41593,note_on,2,0,0,,5,,,53,127
41731,note_off,138,0,0,,5,,,53,127
41731,note_off,0,0,0,,5,,,65,127
41733,note_on,2,0,0,,3,,,63,127
41733,note_on,0,0,0,,3,,,51,127
41871,note_off,138,0,0,,3,,,51,127
41873,note_on,2,0,0,,1,,,49,127
42011,note_off,138,0,0,,1,,,49,127
42013,note_on,2,0,0,,0,,,48,127
42151,note_off,138,0,0,,0,,,48,127
42151,note_off,0,0,0,,3,,,63,127
42153,note_on,2,0,0,,1,,,61,127
42153,note_on,0,0,0,,11,,,46,127
42291,note_off,138,0,0,,11,,,46,127
42294,note_on,3,0,0,,0,,,48,127
42432,note_off,138,0,0,,0,,,48,127
42434,note_on,2,0,0,,1,,,49,127
42571,note_off,137,0,0,,1,,,61,127
42572,note_off,1,0,0,,1,,,49,127
42574,note_on,2,0,0,,0,,,60,127
42574,note_on,0,0,0,,0,,,48,127
42712,note_off,138,0,0,,0,,,48,127
42714,note_on,2,0,0,,11,,,46,127
42852,note_off,138,0,0,,11,,,46,127
42854,note_on,2,0,0,,8,,,44,127
42992,note_off,138,0,0,,8,,,44,127
42992,note_off,0,0,0,,0,,,60,127
42994,note_on,2,0,0,,11,,,58,127
42994,note_on,0,0,0,,7,,,43,127
43132,note_off,138,0,0,,7,,,43,127
43134,note_on,2,0,0,,8,,,44,127
43272,note_off,138,0,0,,8,,,44,127
43274,note_on,2,0,0,,11,,,46,127
43412,note_off,138,0,0,,11,,,46,127
43412,note_off,0,0,0,,11,,,58,127
43414,note_on,2,0,0,,8,,,56,127
43414,note_on,0,0,0,,8,,,44,127
43552,note_off,138,0,0,,8,,,44,127
43554,note_on,2,0,0,,7,,,43,127
43692,note_off,138,0,0,,7,,,43,127
43694,note_on,2,0,0,,5,,,41,127
43832,note_off,138,0,0,,5,,,41,127
43832,note_off,0,0,0,,8,,,56,127
43834,note_on,2,0,0,,7,,,55,127
43834,note_on,0,0,0,,0,,,36,127
44085,note_off,251,0,0,,7,,,55,127
44253,note_off,168,0,0,,0,,,36,127
44256,note_on,3,0,0,,0,,,36,127
44537,note_on,281,0,0,,7,,,55,127
44675,note_off,138,0,0,,7,,,55,127
44675,note_off,0,0,0,,0,,,36,127
44677,note_on,2,0,0,,8,,,56,127
44677,note_on,0,0,0,,0,,,36,127
44815,note_off,138,0,0,,8,,,56,127
44817,note_on,2,0,0,,5,,,53,127
44955,note_off,138,0,0,,5,,,53,127
44957,note_on,2,0,0,,0,,,60,127
45095,note_off,138,0,0,,0,,,60,127
45095,note_off,0,0,0,,0,,,36,127
45097,note_on,2,0,0,,12,,,59,127
45097,note_on,0,0,0,,0,,,36,127
45235,note_off,138,0,0,,12,,,59,127
45237,note_on,2,0,0,,7,,,55,127
45375,note_off,138,0,0,,7,,,55,127
45377,note_on,2,0,0,,5,,,65,127
45377,note_on,0,0,0,,12,,,59,127
45515,note_off,138,0,0,,12,,,59,127
45515,note_off,0,0,0,,5,,,65,127
45515,note_off,0,0,0,,0,,,36,127
45517,note_on,2,0,0,,5,,,65,127
45517,note_on,0,0,0,,12,,,59,127
45517,note_on,0,0,0,,0,,,36,127
45796,note_off,279,0,0,,12,,,59,127
45796,note_off,0,0,0,,5,,,65,127
45798,note_on,2,0,0,,4,,,64,127
45798,note_on,0,0,0,,0,,,60,127
45902,note_off,104,0,0,,4,,,64,127
45936,note_off,34,0,0,,0,,,36,127
45939,note_on,3,0,0,,0,,,36,127
46214,note_off,275,0,0,,0,,,60,127
46220,note_on,6,0,0,,7,,,55,127
46358,note_off,138,0,0,,7,,,55,127
46358,note_off,0,0,0,,0,,,36,127
46360,note_on,2,0,0,,8,,,56,127
46360,note_on,0,0,0,,0,,,36,127
46498,note_off,138,0,0,,8,,,56,127
46500,note_on,2,0,0,,5,,,53,127
46638,note_off,138,0,0,,5,,,53,127
46640,note_on,2,0,0,,0,,,60,127
46778,note_off,138,0,0,,0,,,60,127
46778,note_off,0,0,0,,0,,,36,127
46780,note_on,2,0,0,,12,,,59,127
46780,note_on,0,0,0,,0,,,36,127
46918,note_off,138,0,0,,12,,,59,127
46920,note_on,2,0,0,,7,,,55,127
47058,note_off,138,0,0,,7,,,55,127
47060,note_on,2,0,0,,12,,,59,127
47060,note_on,0,0,0,,5,,,65,127
47198,note_off,138,0,0,,5,,,65,127
47198,note_off,0,0,0,,12,,,59,127
47198,note_off,0,0,0,,0,,,36,127
47200,note_on,2,0,0,,5,,,65,127
47200,note_on,0,0,0,,12,,,59,127
47200,note_on,0,0,0,,0,,,36,127
47479,note_off,279,0,0,,12,,,59,127
47479,note_off,0,0,0,,5,,,65,127
47481,note_on,2,0,0,,4,,,64,127
47481,note_on,0,0,0,,0,,,60,127
47585,note_off,104,0,0,,4,,,64,127
47619,note_off,34,0,0,,0,,,36,127
47621,note_on,2,0,0,,8,,,56,127
47898,note_off,277,0,0,,0,,,60,127
47904,note_on,6,0,0,,0,,,60,127
48041,note_off,137,0,0,,8,,,56,127
48042,note_off,1,0,0,,0,,,60,127
48044,note_on,2,0,0,,1,,,61,127
48044,note_on,0,0,0,,11,,,58,127
48182,note_off,138,0,0,,11,,,58,127
48182,note_off,0,0,0,,1,,,61,127
48184,note_on,2,0,0,,11,,,58,127
48325,note_on,141,0,0,,5,,,65,127
48459,note_off,134,0,0,,11,,,58,127
48464,note_off,5,0,0,,5,,,65,127
48466,note_on,2,0,0,,4,,,64,127
48466,note_on,0,0,0,,7,,,55,127
48604,note_off,138,0,0,,4,,,64,127
48606,note_on,2,0,0,,0,,,60,127
48744,note_off,138,0,0,,0,,,60,127
48746,note_on,2,0,0,,4,,,64,127
48746,note_on,0,0,0,,11,,,70,127
48884,note_off,138,0,0,,11,,,70,127
48884,note_off,0,0,0,,4,,,64,127
48884,note_off,0,0,0,,7,,,55,127
48886,note_on,2,0,0,,11,,,70,127
48886,note_on,0,0,0,,4,,,64,127
48886,note_on,0,0,0,,5,,,53,127
49165,note_off,279,0,0,,4,,,64,127
49165,note_off,0,0,0,,11,,,70,127
49167,note_on,2,0,0,,5,,,65,127
49167,note_on,0,0,0,,8,,,68,127
49305,note_off,138,0,0,,5,,,53,127
49307,note_on,2,0,0,,8,,,56,127
49482,note_off,175,0,0,,8,,,68,127
49482,note_off,0,0,0,,5,,,65,127
49589,note_on,107,0,0,,0,,,60,127
49726,note_off,137,0,0,,8,,,56,127
49727,note_off,1,0,0,,0,,,60,127
49729,note_on,2,0,0,,1,,,61,127
49729,note_on,0,0,0,,11,,,58,127
49867,note_off,138,0,0,,11,,,58,127
49867,note_off,0,0,0,,1,,,61,127
49869,note_on,2,0,0,,11,,,58,127
50010,note_on,141,0,0,,5,,,65,127
50144,note_off,134,0,0,,11,,,58,127
50149,note_off,5,0,0,,5,,,65,127
50151,note_on,2,0,0,,4,,,64,127
50151,note_on,0,0,0,,7,,,55,127
50289,note_off,138,0,0,,4,,,64,127
50291,note_on,2,0,0,,0,,,60,127
50429,note_off,138,0,0,,0,,,60,127
50431,note_on,2,0,0,,4,,,64,127
50431,note_on,0,0,0,,11,,,70,127
50569,note_off,138,0,0,,11,,,70,127
50569,note_off,0,0,0,,4,,,64,127
50569,note_off,0,0,0,,7,,,55,127
50571,note_on,2,0,0,,11,,,70,127
50571,note_on,0,0,0,,4,,,64,127
50571,note_on,0,0,0,,5,,,53,127
50850,note_off,279,0,0,,4,,,64,127
50850,note_off,0,0,0,,11,,,70,127
50852,note_on,2,0,0,,5,,,65,127
50852,note_on,0,0,0,,10,,,69,127
50990,note_off,138,0,0,,5,,,53,127
50992,note_on,2,0,0,,1,,,61,127
51114,note_off,122,0,0,,10,,,69,127
51114,note_off,0,0,0,,5,,,65,127
51273,note_on,159,0,0,,5,,,65,127
51411,note_off,138,0,0,,5,,,65,127
51411,note_off,0,0,0,,1,,,61,127
51414,note_on,3,0,0,,6,,,66,127
51414,note_on,0,0,0,,3,,,63,127
51545,note_off,131,0,0,,3,,,63,127
51552,note_off,7,0,0,,6,,,66,127
51554,note_on,2,0,0,,3,,,63,127
51695,note_on,141,0,0,,11,,,70,127
51829,note_off,134,0,0,,3,,,63,127
51834,note_off,5,0,0,,11,,,70,127
51836,note_on,2,0,0,,10,,,69,127
51836,note_on,0,0,0,,0,,,60,127
51974,note_off,138,0,0,,10,,,69,127
51976,note_on,2,0,0,,5,,,65,127
52114,note_off,138,0,0,,5,,,65,127
52116,note_on,2,0,0,,10,,,69,127
52116,note_on,0,0,0,,3,,,75,127
52254,note_off,138,0,0,,3,,,75,127
52254,note_off,0,0,0,,10,,,69,127
52254,note_off,0,0,0,,0,,,60,127
52256,note_on,2,0,0,,3,,,75,127
52256,note_on,0,0,0,,10,,,69,127
52256,note_on,0,0,0,,11,,,58,127
52535,note_off,279,0,0,,10,,,69,127
52535,note_off,0,0,0,,3,,,75,127
52537,note_on,2,0,0,,1,,,73,127
52537,note_on,0,0,0,,11,,,70,127
52675,note_off,138,0,0,,11,,,58,127
52677,note_on,2,0,0,,1,,,61,127
52852,note_off,175,0,0,,11,,,70,127
52852,note_off,0,0,0,,1,,,73,127
52958,note_on,106,0,0,,5,,,65,127
53096,note_off,138,0,0,,5,,,65,127
53096,note_off,0,0,0,,1,,,61,127
53098,note_on,2,0,0,,6,,,66,127
53098,note_on,0,0,0,,3,,,63,127
53236,note_off,138,0,0,,3,,,63,127
53236,note_off,0,0,0,,6,,,66,127
53239,note_on,3,0,0,,3,,,63,127
53380,note_on,141,0,0,,11,,,70,127
53514,note_off,134,0,0,,3,,,63,127
53519,note_off,5,0,0,,11,,,70,127
53521,note_on,2,0,0,,10,,,69,127
53521,note_on,0,0,0,,0,,,60,127
53659,note_off,138,0,0,,10,,,69,127
53661,note_on,2,0,0,,5,,,65,127
53799,note_off,138,0,0,,5,,,65,127
53801,note_on,2,0,0,,3,,,75,127
53939,note_off,138,0,0,,3,,,75,127
53939,note_off,0,0,0,,0,,,60,127
53941,note_on,2,0,0,,3,,,75,127
53941,note_on,0,0,0,,11,,,58,127
54079,note_off,138,0,0,,3,,,75,127
54081,note_on,2,0,0,,1,,,73,127
54219,note_off,138,0,0,,1,,,73,127
54221,note_on,2,0,0,,0,,,72,127
54359,note_off,138,0,0,,0,,,72,127
54359,note_off,0,0,0,,11,,,58,127
54361,note_on,2,0,0,,0,,,72,127
54361,note_on,0,0,0,,1,,,61,127
54499,note_off,138,0,0,,0,,,72,127
54501,note_on,2,0,0,,11,,,70,127
54639,note_off,138,0,0,,11,,,70,127
54641,note_on,2,0,0,,8,,,68,127
54779,note_off,138,0,0,,8,,,68,127
54779,note_off,0,0,0,,1,,,61,127
54781,note_on,2,0,0,,8,,,68,127
54781,note_on,0,0,0,,3,,,51,127
54919,note_off,138,0,0,,8,,,68,127
54921,note_on,2,0,0,,6,,,66,127
55059,note_off,138,0,0,,6,,,66,127
55062,note_on,3,0,0,,5,,,65,127
55199,note_off,137,0,0,,3,,,51,127
55200,note_off,1,0,0,,5,,,65,127
55202,note_on,2,0,0,,5,,,65,127
55202,note_on,0,0,0,,6,,,54,127
55340,note_off,138,0,0,,5,,,65,127
55342,note_on,2,0,0,,3,,,63,127
55480,note_off,138,0,0,,3,,,63,127
55482,note_on,2,0,0,,1,,,61,127
55620,note_off,138,0,0,,1,,,61,127
55620,note_off,0,0,0,,6,,,54,127
55622,note_on,2,0,0,,1,,,61,127
55622,note_on,0,0,0,,8,,,56,127
55860,note_on,238,0,0,,0,,,60,127
55901,note_off,41,0,0,,1,,,61,127
56036,note_off,135,0,0,,0,,,60,127
56042,note_off,6,0,0,,8,,,56,127
56063,note_on,21,0,0,,0,,,72,127
56063,note_on,0,0,0,,8,,,68,127
56063,note_on,0,0,0,,3,,,75,127
56201,note_off,138,0,0,,3,,,75,127
56203,note_on,2,0,0,,3,,,75,127
56341,note_off,138,0,0,,3,,,75,127
56343,note_on,2,0,0,,3,,,75,127
56481,note_off,138,0,0,,3,,,75,127
56481,note_off,0,0,0,,8,,,68,127
56481,note_off,0,0,0,,0,,,72,127
56483,note_on,2,0,0,,7,,,67,127
56483,note_on,0,0,0,,11,,,70,127
56483,note_on,0,0,0,,3,,,75,127
56621,note_off,138,0,0,,3,,,75,127
56623,note_on,2,0,0,,3,,,75,127
56761,note_off,138,0,0,,3,,,75,127
56763,note_on,2,0,0,,3,,,75,127
56901,note_off,138,0,0,,3,,,75,127
56901,note_off,0,0,0,,11,,,70,127
56901,note_off,0,0,0,,7,,,67,127
56904,note_on,3,0,0,,0,,,72,127
56904,note_on,0,0,0,,8,,,68,127
56904,note_on,0,0,0,,3,,,75,127
57042,note_off,138,0,0,,3,,,75,127
57044,note_on,2,0,0,,3,,,75,127
57182,note_off,138,0,0,,3,,,75,127
57184,note_on,2,0,0,,3,,,75,127
57322,note_off,138,0,0,,3,,,75,127
57322,note_off,0,0,0,,8,,,68,127
57322,note_off,0,0,0,,0,,,72,127
57324,note_on,2,0,0,,11,,,70,127
57324,note_on,0,0,0,,7,,,67,127
57324,note_on,0,0,0,,3,,,75,127
57462,note_off,138,0,0,,3,,,75,127
57464,note_on,2,0,0,,3,,,75,127
57602,note_off,138,0,0,,3,,,75,127
57604,note_on,2,0,0,,3,,,75,127
57742,note_off,138,0,0,,3,,,75,127
57742,note_off,0,0,0,,7,,,67,127
57742,note_off,0,0,0,,11,,,70,127
57744,note_on,2,0,0,,11,,,70,127
57744,note_on,0,0,0,,7,,,67,127
57744,note_on,0,0,0,,4,,,76,127
57882,note_off,138,0,0,,4,,,76,127
57884,note_on,2,0,0,,4,,,76,127
58022,note_off,138,0,0,,4,,,76,127
58024,note_on,2,0,0,,4,,,76,127
58162,note_off,138,0,0,,4,,,76,127
58162,note_off,0,0,0,,7,,,67,127
58162,note_off,0,0,0,,11,,,70,127
58164,note_on,2,0,0,,8,,,68,127
58164,note_on,0,0,0,,0,,,72,127
58164,note_on,0,0,0,,5,,,77,127
58302,note_off,138,0,0,,5,,,77,127
58304,note_on,2,0,0,,5,,,77,127
58442,note_off,138,0,0,,5,,,77,127
58444,note_on,2,0,0,,5,,,77,127
58582,note_off,138,0,0,,5,,,77,127
58582,note_off,0,0,0,,0,,,72,127
58582,note_off,0,0,0,,8,,,68,127
58584,note_on,2,0,0,,7,,,67,127
58584,note_on,0,0,0,,4,,,64,127
58584,note_on,0,0,0,,0,,,72,127
58584,note_on,0,0,0,,7,,,79,127
58722,note_off,138,0,0,,7,,,79,127
58725,note_on,3,0,0,,7,,,79,127
58863,note_off,138,0,0,,7,,,79,127
58865,note_on,2,0,0,,7,,,79,127
59002,note_off,137,0,0,,0,,,72,127
59002,note_off,0,0,0,,4,,,64,127
59002,note_off,0,0,0,,7,,,67,127
59003,note_off,1,0,0,,7,,,79,127
59005,note_on,2,0,0,,8,,,68,127
59005,note_on,0,0,0,,5,,,65,127
59005,note_on,0,0,0,,0,,,72,127
59005,note_on,0,0,0,,11,,,82,127
59072,note_off,67,0,0,,11,,,82,127
59074,note_on,2,0,0,,8,,,80,127
59141,note_off,67,0,0,,8,,,80,127
59144,note_on,3,0,0,,7,,,79,127
59282,note_off,138,0,0,,7,,,79,127
59284,note_on,2,0,0,,5,,,77,127
59422,note_off,138,0,0,,5,,,77,127
59422,note_off,0,0,0,,0,,,72,127
59422,note_off,0,0,0,,5,,,65,127
59422,note_off,0,0,0,,8,,,68,127
59424,note_on,2,0,0,,12,,,71,127
59424,note_on,0,0,0,,7,,,67,127
59424,note_on,0,0,0,,5,,,77,127
59562,note_off,138,0,0,,5,,,77,127
59564,note_on,2,0,0,,3,,,75,127
59702,note_off,138,0,0,,3,,,75,127
59704,note_on,2,0,0,,2,,,74,127
59842,note_off,138,0,0,,2,,,74,127
59842,note_off,0,0,0,,7,,,67,127
59842,note_off,0,0,0,,12,,,71,127
59844,note_on,2,0,0,,0,,,60,127
59844,note_on,0,0,0,,3,,,75,127
59982,note_off,138,0,0,,3,,,75,127
59984,note_on,2,0,0,,2,,,74,127
60122,note_off,138,0,0,,2,,,74,127
60124,note_on,2,0,0,,0,,,72,127
60262,note_off,138,0,0,,0,,,72,127
60264,note_on,2,0,0,,7,,,79,127
60402,note_off,138,0,0,,7,,,79,127
60404,note_on,2,0,0,,3,,,75,127
60542,note_off,138,0,0,,3,,,75,127
60545,note_on,3,0,0,,0,,,72,127
60682,note_off,137,0,0,,0,,,60,127
60683,note_off,1,0,0,,0,,,72,127
60685,note_on,2,0,0,,7,,,55,127
60685,note_on,0,0,0,,2,,,74,127
60752,note_off,67,0,0,,2,,,74,127
60754,note_on,2,0,0,,0,,,72,127
60821,note_off,67,0,0,,0,,,72,127
60824,note_on,3,0,0,,12,,,71,127
60962,note_off,138,0,0,,12,,,71,127
60964,note_on,2,0,0,,12,,,71,127
61102,note_off,138,0,0,,12,,,71,127
61104,note_on,2,0,0,,7,,,67,127
61104,note_on,0,0,0,,2,,,74,127
61242,note_off,138,0,0,,2,,,74,127
61244,note_on,2,0,0,,2,,,74,127
61382,note_off,138,0,0,,2,,,74,127
61384,note_on,2,0,0,,2,,,74,127
61515,note_off,131,0,0,,7,,,55,127
61522,note_off,7,0,0,,2,,,74,127
61524,note_on,2,0,0,,8,,,56,127
61524,note_on,0,0,0,,0,,,72,127
61524,note_on,0,0,0,,3,,,75,127
61662,note_off,138,0,0,,0,,,72,127
61664,note_on,2,0,0,,0,,,72,127
61802,note_off,138,0,0,,0,,,72,127
61804,note_on,2,0,0,,0,,,72,127
61935,note_off,131,0,0,,7,,,67,127
61942,note_off,7,0,0,,0,,,72,127
61944,note_on,2,0,0,,5,,,65,127
61944,note_on,0,0,0,,0,,,72,127
62082,note_off,138,0,0,,0,,,72,127
62084,note_on,2,0,0,,0,,,72,127
62222,note_off,138,0,0,,0,,,72,127
62224,note_on,2,0,0,,0,,,72,127
62355,note_off,131,0,0,,3,,,75,127
62355,note_off,0,0,0,,8,,,56,127
62362,note_off,7,0,0,,0,,,72,127
62362,note_off,0,0,0,,5,,,65,127
62365,note_on,3,0,0,,7,,,55,127
62365,note_on,0,0,0,,3,,,63,127
62365,note_on,0,0,0,,2,,,74,127
62365,note_on,0,0,0,,0,,,72,127
62503,note_off,138,0,0,,0,,,72,127
62505,note_on,2,0,0,,12,,,71,127
62643,note_off,138,0,0,,12,,,71,127
62645,note_on,2,0,0,,12,,,71,127
62781,note_off,136,0,0,,2,,,74,127
62783,note_off,2,0,0,,12,,,71,127
62783,note_off,0,0,0,,3,,,63,127
62785,note_on,2,0,0,,7,,,67,127
62785,note_on,0,0,0,,2,,,74,127
62923,note_off,138,0,0,,2,,,74,127
62925,note_on,2,0,0,,2,,,74,127
63063,note_off,138,0,0,,2,,,74,127
63065,note_on,2,0,0,,2,,,74,127
63196,note_off,131,0,0,,7,,,55,127
63203,note_off,7,0,0,,2,,,74,127
63205,note_on,2,0,0,,8,,,56,127
63205,note_on,0,0,0,,3,,,75,127
63205,note_on,0,0,0,,2,,,74,127
63343,note_off,138,0,0,,2,,,74,127
63345,note_on,2,0,0,,0,,,72,127
63483,note_off,138,0,0,,0,,,72,127
63485,note_on,2,0,0,,0,,,72,127
63616,note_off,131,0,0,,7,,,67,127
63623,note_off,7,0,0,,0,,,72,127
63625,note_on,2,0,0,,5,,,65,127
63625,note_on,0,0,0,,0,,,72,127
63763,note_off,138,0,0,,0,,,72,127
63765,note_on,2,0,0,,0,,,72,127
63903,note_off,138,0,0,,0,,,72,127
63905,note_on,2,0,0,,0,,,72,127
64036,note_off,131,0,0,,3,,,75,127
64036,note_off,0,0,0,,8,,,56,127
64043,note_off,7,0,0,,0,,,72,127
64043,note_off,0,0,0,,5,,,65,127
64045,note_on,2,0,0,,7,,,55,127
64045,note_on,0,0,0,,3,,,63,127
64045,note_on,0,0,0,,0,,,72,127
64045,note_on,0,0,0,,2,,,74,127
64183,note_off,138,0,0,,0,,,72,127
64186,note_on,3,0,0,,12,,,71,127
64324,note_off,138,0,0,,12,,,71,127
64326,note_on,2,0,0,,12,,,71,127
64461,note_off,135,0,0,,2,,,74,127
64463,note_off,2,0,0,,3,,,63,127
64464,note_off,1,0,0,,12,,,71,127
64466,note_on,2,0,0,,7,,,67,127
64466,note_on,0,0,0,,12,,,71,127
64466,note_on,0,0,0,,7,,,79,127
64604,note_off,138,0,0,,7,,,79,127
64606,note_on,2,0,0,,7,,,79,127
64744,note_off,138,0,0,,7,,,79,127
64746,note_on,2,0,0,,7,,,79,127
64876,note_off,130,0,0,,7,,,55,127
64882,note_off,6,0,0,,12,,,71,127
64884,note_off,2,0,0,,7,,,79,127
64886,note_on,2,0,0,,7,,,55,127
64886,note_on,0,0,0,,0,,,72,127
64886,note_on,0,0,0,,8,,,80,127
65024,note_off,138,0,0,,8,,,80,127
65026,note_on,2,0,0,,8,,,80,127
65164,note_off,138,0,0,,8,,,80,127
65166,note_on,2,0,0,,8,,,80,127
65297,note_off,131,0,0,,7,,,67,127
65304,note_off,7,0,0,,8,,,80,127
65306,note_on,2,0,0,,5,,,65,127
65306,note_on,0,0,0,,10,,,81,127
65444,note_off,138,0,0,,10,,,81,127
65446,note_on,2,0,0,,10,,,81,127
65584,note_off,138,0,0,,10,,,81,127
65586,note_on,2,0,0,,10,,,81,127
65717,note_off,131,0,0,,0,,,72,127
65717,note_off,0,0,0,,7,,,55,127
65724,note_off,7,0,0,,10,,,81,127
65726,note_on,2,0,0,,7,,,55,127
65726,note_on,0,0,0,,2,,,74,127
65726,note_on,0,0,0,,12,,,83,127
65864,note_off,138,0,0,,12,,,83,127
65866,note_on,2,0,0,,12,,,83,127
66004,note_off,138,0,0,,12,,,83,127
66007,note_on,3,0,0,,12,,,83,127
66137,note_off,130,0,0,,5,,,65,127
66142,note_off,5,0,0,,2,,,74,127
66145,note_off,3,0,0,,12,,,83,127
66147,note_on,2,0,0,,3,,,63,127
66147,note_on,0,0,0,,0,,,84,127
66147,note_on,0,0,0,,3,,,75,127
66285,note_off,138,0,0,,0,,,84,127
66287,note_on,2,0,0,,0,,,84,127
66425,note_off,138,0,0,,0,,,84,127
66427,note_on,2,0,0,,0,,,84,127
66557,note_off,130,0,0,,7,,,55,127
66563,note_off,6,0,0,,3,,,75,127
66565,note_off,2,0,0,,0,,,84,127
66565,note_off,0,0,0,,3,,,63,127
66567,note_on,2,0,0,,5,,,53,127
66567,note_on,0,0,0,,5,,,65,127
66567,note_on,0,0,0,,11,,,82,127
66634,note_off,67,0,0,,11,,,82,127
66636,note_on,2,0,0,,8,,,80,127
66703,note_off,67,0,0,,8,,,80,127
66706,note_on,3,0,0,,7,,,79,127
66844,note_off,138,0,0,,7,,,79,127
66846,note_on,2,0,0,,5,,,77,127
66984,note_off,138,0,0,,5,,,77,127
66984,note_off,0,0,0,,5,,,65,127
66984,note_off,0,0,0,,5,,,53,127
66986,note_on,2,0,0,,7,,,55,127
66986,note_on,0,0,0,,2,,,62,127
66986,note_on,0,0,0,,5,,,65,127
66986,note_on,0,0,0,,5,,,77,127
67124,note_off,138,0,0,,5,,,77,127
67126,note_on,2,0,0,,3,,,75,127
67264,note_off,138,0,0,,3,,,75,127
67266,note_on,2,0,0,,2,,,74,127
67404,note_off,138,0,0,,2,,,74,127
67404,note_off,0,0,0,,5,,,65,127
67404,note_off,0,0,0,,2,,,62,127
67404,note_off,0,0,0,,7,,,55,127
67406,note_on,2,0,0,,0,,,60,127
67406,note_on,0,0,0,,0,,,72,127
67544,note_off,138,0,0,,0,,,72,127
67546,note_on,2,0,0,,3,,,75,127
67684,note_off,138,0,0,,3,,,75,127
67686,note_on,2,0,0,,7,,,79,127
67824,note_off,138,0,0,,0,,,60,127
67827,note_on,3,0,0,,0,,,48,127
67960,note_off,133,0,0,,7,,,79,127
67968,note_on,8,0,0,,3,,,75,127
68106,note_off,138,0,0,,3,,,75,127
68108,note_on,2,0,0,,0,,,72,127
68246,note_off,138,0,0,,0,,,72,127
68246,note_off,0,0,0,,0,,,48,127
68248,note_on,2,0,0,,7,,,55,127
68248,note_on,0,0,0,,2,,,74,127
68315,note_off,67,0,0,,2,,,74,127
68317,note_on,2,0,0,,0,,,72,127
68384,note_off,67,0,0,,0,,,72,127
68387,note_on,3,0,0,,12,,,71,127
68525,note_off,138,0,0,,12,,,71,127
68527,note_on,2,0,0,,12,,,71,127
68665,note_off,138,0,0,,12,,,71,127
68667,note_on,2,0,0,,7,,,67,127
68667,note_on,0,0,0,,2,,,74,127
68805,note_off,138,0,0,,2,,,74,127
68807,note_on,2,0,0,,2,,,74,127
68945,note_off,138,0,0,,2,,,74,127
68947,note_on,2,0,0,,2,,,74,127
69078,note_off,131,0,0,,7,,,55,127
69085,note_off,7,0,0,,2,,,74,127
69087,note_on,2,0,0,,8,,,56,127
69087,note_on,0,0,0,,2,,,74,127
69087,note_on,0,0,0,,3,,,75,127
69225,note_off,138,0,0,,2,,,74,127
69227,note_on,2,0,0,,0,,,72,127
69365,note_off,138,0,0,,0,,,72,127
69367,note_on,2,0,0,,0,,,72,127
69498,note_off,131,0,0,,7,,,67,127
69505,note_off,7,0,0,,0,,,72,127
69507,note_on,2,0,0,,5,,,65,127
69507,note_on,0,0,0,,0,,,72,127
69645,note_off,138,0,0,,0,,,72,127
69648,note_on,3,0,0,,0,,,72,127
69786,note_off,138,0,0,,0,,,72,127
69788,note_on,2,0,0,,0,,,72,127
69918,note_off,130,0,0,,3,,,75,127
69918,note_off,0,0,0,,8,,,56,127
69925,note_off,7,0,0,,5,,,65,127
69926,note_off,1,0,0,,0,,,72,127
69928,note_on,2,0,0,,7,,,55,127
69928,note_on,0,0,0,,3,,,63,127
69928,note_on,0,0,0,,2,,,74,127
69928,note_on,0,0,0,,0,,,72,127
70066,note_off,138,0,0,,0,,,72,127
70068,note_on,2,0,0,,12,,,71,127
70206,note_off,138,0,0,,12,,,71,127
70208,note_on,2,0,0,,12,,,71,127
70344,note_off,136,0,0,,2,,,74,127
70346,note_off,2,0,0,,12,,,71,127
70346,note_off,0,0,0,,3,,,63,127
70348,note_on,2,0,0,,7,,,67,127
70348,note_on,0,0,0,,2,,,74,127
70486,note_off,138,0,0,,2,,,74,127
70488,note_on,2,0,0,,2,,,74,127
70626,note_off,138,0,0,,2,,,74,127
70628,note_on,2,0,0,,2,,,74,127
70759,note_off,131,0,0,,7,,,55,127
70766,note_off,7,0,0,,2,,,74,127
70768,note_on,2,0,0,,8,,,56,127
70768,note_on,0,0,0,,3,,,75,127
70768,note_on,0,0,0,,2,,,74,127
70906,note_off,138,0,0,,2,,,74,127
70908,note_on,2,0,0,,0,,,72,127
71046,note_off,138,0,0,,0,,,72,127
71048,note_on,2,0,0,,0,,,72,127
71179,note_off,131,0,0,,7,,,67,127
71186,note_off,7,0,0,,0,,,72,127
71188,note_on,2,0,0,,5,,,65,127
71188,note_on,0,0,0,,0,,,72,127
71326,note_off,138,0,0,,0,,,72,127
71328,note_on,2,0,0,,0,,,72,127
71466,note_off,138,0,0,,0,,,72,127
71469,note_on,3,0,0,,0,,,72,127
71599,note_off,130,0,0,,3,,,75,127
71599,note_off,0,0,0,,8,,,56,127
71606,note_off,7,0,0,,5,,,65,127
71607,note_off,1,0,0,,0,,,72,127
71609,note_on,2,0,0,,7,,,55,127
71609,note_on,0,0,0,,3,,,63,127
71609,note_on,0,0,0,,0,,,72,127
71609,note_on,0,0,0,,2,,,74,127
71747,note_off,138,0,0,,0,,,72,127
71749,note_on,2,0,0,,12,,,71,127
71887,note_off,138,0,0,,12,,,71,127
71889,note_on,2,0,0,,12,,,71,127
72025,note_off,136,0,0,,2,,,74,127
72027,note_off,2,0,0,,12,,,71,127
72027,note_off,0,0,0,,3,,,63,127
72029,note_on,2,0,0,,7,,,67,127
72029,note_on,0,0,0,,7,,,79,127
72029,note_on,0,0,0,,12,,,71,127
72167,note_off,138,0,0,,7,,,79,127
72169,note_on,2,0,0,,7,,,79,127
72307,note_off,138,0,0,,7,,,79,127
72309,note_on,2,0,0,,7,,,79,127
72440,note_off,131,0,0,,7,,,55,127
72445,note_off,5,0,0,,12,,,71,127
72447,note_off,2,0,0,,7,,,79,127
72449,note_on,2,0,0,,7,,,55,127
72449,note_on,0,0,0,,8,,,80,127
72449,note_on,0,0,0,,0,,,72,127
72587,note_off,138,0,0,,8,,,80,127
72589,note_on,2,0,0,,8,,,80,127
72727,note_off,138,0,0,,8,,,80,127
72729,note_on,2,0,0,,8,,,80,127
72860,note_off,131,0,0,,7,,,67,127
72867,note_off,7,0,0,,8,,,80,127
72869,note_on,2,0,0,,5,,,65,127
72869,note_on,0,0,0,,10,,,81,127
73007,note_off,138,0,0,,10,,,81,127
73009,note_on,2,0,0,,10,,,81,127
73147,note_off,138,0,0,,10,,,81,127
73149,note_on,2,0,0,,10,,,81,127
73280,note_off,131,0,0,,0,,,72,127
73280,note_off,0,0,0,,7,,,55,127
73287,note_off,7,0,0,,10,,,81,127
73290,note_on,3,0,0,,7,,,55,127
73290,note_on,0,0,0,,2,,,74,127
73290,note_on,0,0,0,,12,,,83,127
73428,note_off,138,0,0,,12,,,83,127
73430,note_on,2,0,0,,12,,,83,127
73568,note_off,138,0,0,,12,,,83,127
73570,note_on,2,0,0,,12,,,83,127
73700,note_off,130,0,0,,5,,,65,127
73706,note_off,6,0,0,,2,,,74,127
73708,note_off,2,0,0,,12,,,83,127
73710,note_on,2,0,0,,3,,,63,127
73710,note_on,0,0,0,,3,,,75,127
73710,note_on,0,0,0,,0,,,84,127
73848,note_off,138,0,0,,0,,,84,127
73850,note_on,2,0,0,,0,,,84,127
73988,note_off,138,0,0,,0,,,84,127
73990,note_on,2,0,0,,0,,,84,127
74121,note_off,131,0,0,,7,,,55,127
74126,note_off,5,0,0,,3,,,75,127
74128,note_off,2,0,0,,0,,,84,127
74128,note_off,0,0,0,,3,,,63,127
74130,note_on,2,0,0,,5,,,53,127
74130,note_on,0,0,0,,5,,,65,127
74130,note_on,0,0,0,,11,,,82,127
74197,note_off,67,0,0,,11,,,82,127
74200,note_on,3,0,0,,8,,,80,127
74267,note_off,67,0,0,,8,,,80,127
74269,note_on,2,0,0,,7,,,79,127
74407,note_off,138,0,0,,7,,,79,127
74409,note_on,2,0,0,,5,,,77,127
74547,note_off,138,0,0,,5,,,77,127
74547,note_off,0,0,0,,5,,,65,127
74547,note_off,0,0,0,,5,,,53,127
74549,note_on,2,0,0,,7,,,55,127
74549,note_on,0,0,0,,2,,,62,127
74549,note_on,0,0,0,,5,,,65,127
74549,note_on,0,0,0,,5,,,77,127
74687,note_off,138,0,0,,5,,,77,127
74689,note_on,2,0,0,,3,,,75,127
74827,note_off,138,0,0,,3,,,75,127
74829,note_on,2,0,0,,2,,,74,127
74967,note_off,138,0,0,,2,,,74,127
74967,note_off,0,0,0,,5,,,65,127
74967,note_off,0,0,0,,2,,,62,127
74967,note_off,0,0,0,,7,,,55,127
74969,note_on,2,0,0,,0,,,60,127
74969,note_on,0,0,0,,0,,,72,127
75248,note_off,279,0,0,,0,,,72,127
75251,note_on,3,0,0,,7,,,67,127
75388,note_off,137,0,0,,0,,,60,127
75391,note_on,3,0,0,,3,,,63,127
75391,note_on,0,0,0,,0,,,60,127
75529,note_off,138,0,0,,7,,,67,127
75531,note_on,2,0,0,,8,,,68,127
75669,note_off,138,0,0,,8,,,68,127
75671,note_on,2,0,0,,5,,,65,127
75809,note_off,138,0,0,,5,,,65,127
75809,note_off,0,0,0,,0,,,60,127
75809,note_off,0,0,0,,3,,,63,127
75811,note_on,2,0,0,,12,,,59,127
75811,note_on,0,0,0,,2,,,62,127
75811,note_on,0,0,0,,7,,,67,127
76074,note_off,263,0,0,,7,,,67,127
76092,note_on,18,0,0,,2,,,74,127
76230,note_off,138,0,0,,2,,,62,127
76230,note_off,0,0,0,,12,,,59,127
76232,note_on,2,0,0,,8,,,56,127
76232,note_on,0,0,0,,2,,,62,127
76232,note_on,0,0,0,,0,,,60,127
76370,note_off,138,0,0,,2,,,74,127
76372,note_on,2,0,0,,3,,,75,127
76510,note_off,138,0,0,,3,,,75,127
76512,note_on,2,0,0,,0,,,72,127
76650,note_off,138,0,0,,0,,,72,127
76650,note_off,0,0,0,,0,,,60,127
76650,note_off,0,0,0,,2,,,62,127
76650,note_off,0,0,0,,8,,,56,127
76652,note_on,2,0,0,,2,,,62,127
76652,note_on,0,0,0,,12,,,59,127
76652,note_on,0,0,0,,7,,,55,127
76652,note_on,0,0,0,,2,,,74,127
76931,note_off,279,0,0,,2,,,74,127
76934,note_on,3,0,0,,7,,,67,127
77071,note_off,137,0,0,,7,,,55,127
77071,note_off,0,0,0,,12,,,59,127
77071,note_off,0,0,0,,2,,,62,127
77074,note_on,3,0,0,,3,,,63,127
77074,note_on,0,0,0,,0,,,60,127
77212,note_off,138,0,0,,7,,,67,127
77214,note_on,2,0,0,,8,,,68,127
77352,note_off,138,0,0,,8,,,68,127
77354,note_on,2,0,0,,5,,,65,127
77492,note_off,138,0,0,,5,,,65,127
77492,note_off,0,0,0,,0,,,60,127
77492,note_off,0,0,0,,3,,,63,127
77494,note_on,2,0,0,,12,,,59,127
77494,note_on,0,0,0,,2,,,62,127
77494,note_on,0,0,0,,7,,,67,127
77757,note_off,263,0,0,,7,,,67,127
77775,note_on,18,0,0,,2,,,74,127
77913,note_off,138,0,0,,2,,,62,127
77913,note_off,0,0,0,,12,,,59,127
77915,note_on,2,0,0,,8,,,56,127
77915,note_on,0,0,0,,2,,,62,127
77915,note_on,0,0,0,,0,,,60,127
78053,note_off,138,0,0,,2,,,74,127
78055,note_on,2,0,0,,3,,,75,127
78193,note_off,138,0,0,,3,,,75,127
78195,note_on,2,0,0,,0,,,72,127
78333,note_off,138,0,0,,0,,,72,127
78333,note_off,0,0,0,,0,,,60,127
78333,note_off,0,0,0,,2,,,62,127
78333,note_off,0,0,0,,8,,,56,127
78335,note_on,2,0,0,,7,,,55,127
78335,note_on,0,0,0,,12,,,59,127
78335,note_on,0,0,0,,2,,,62,127
78335,note_on,0,0,0,,2,,,74,127
78598,note_off,263,0,0,,2,,,74,127
78616,note_on,18,0,0,,8,,,80,127
78754,note_off,138,0,0,,2,,,62,127
78754,note_off,0,0,0,,12,,,59,127
78754,note_off,0,0,0,,7,,,55,127
78757,note_on,3,0,0,,12,,,59,127
78757,note_on,0,0,0,,5,,,53,127
78757,note_on,0,0,0,,2,,,62,127
78894,note_off,137,0,0,,8,,,80,127
78897,note_on,3,0,0,,5,,,77,127
79035,note_off,138,0,0,,5,,,77,127
79037,note_on,2,0,0,,2,,,74,127
79175,note_off,138,0,0,,2,,,74,127
79175,note_off,0,0,0,,2,,,62,127
79175,note_off,0,0,0,,5,,,53,127
79175,note_off,0,0,0,,12,,,59,127
79177,note_on,2,0,0,,0,,,60,127
79177,note_on,0,0,0,,3,,,51,127
79177,note_on,0,0,0,,7,,,79,127
79315,note_off,138,0,0,,7,,,79,127
79317,note_on,2,0,0,,3,,,75,127
79455,note_off,138,0,0,,3,,,75,127
79455,note_off,0,0,0,,3,,,51,127
79455,note_off,0,0,0,,0,,,60,127
79457,note_on,2,0,0,,2,,,62,127
79457,note_on,0,0,0,,5,,,53,127
79457,note_on,0,0,0,,0,,,72,127
79595,note_off,138,0,0,,5,,,53,127
79595,note_off,0,0,0,,2,,,62,127
79597,note_on,2,0,0,,7,,,55,127
79597,note_on,0,0,0,,3,,,63,127
79735,note_off,138,0,0,,0,,,72,127
79737,note_on,2,0,0,,2,,,74,127
79875,note_off,138,0,0,,2,,,74,127
79875,note_off,0,0,0,,3,,,63,127
79877,note_on,2,0,0,,2,,,62,127
79877,note_on,0,0,0,,12,,,71,127
80013,note_off,136,0,0,,7,,,55,127
80015,note_off,2,0,0,,12,,,71,127
80015,note_off,0,0,0,,2,,,62,127
80017,note_on,2,0,0,,0,,,60,127
80017,note_on,0,0,0,,0,,,72,127
80296,note_off,279,0,0,,0,,,72,127
80298,note_on,2,0,0,,7,,,67,127
80436,note_off,138,0,0,,0,,,60,127
80438,note_on,2,0,0,,3,,,63,127
80438,note_on,0,0,0,,0,,,60,127
80576,note_off,138,0,0,,7,,,67,127
80579,note_on,3,0,0,,8,,,68,127
80717,note_off,138,0,0,,8,,,68,127
80719,note_on,2,0,0,,5,,,65,127
80856,note_off,137,0,0,,0,,,60,127
80856,note_off,0,0,0,,3,,,63,127
80857,note_off,1,0,0,,5,,,65,127
80859,note_on,2,0,0,,2,,,62,127
80859,note_on,0,0,0,,12,,,59,127
80859,note_on,0,0,0,,7,,,67,127
81112,note_off,253,0,0,,7,,,67,127
81141,note_on,29,0,0,,2,,,74,127
81279,note_off,138,0,0,,12,,,59,127
81279,note_off,0,0,0,,2,,,62,127
81281,note_on,2,0,0,,0,,,60,127
81281,note_on,0,0,0,,8,,,56,127
81281,note_on,0,0,0,,2,,,62,127
81419,note_off,138,0,0,,2,,,74,127
81421,note_on,2,0,0,,3,,,75,127
81559,note_off,138,0,0,,3,,,75,127
81561,note_on,2,0,0,,0,,,72,127
81699,note_off,138,0,0,,0,,,72,127
81699,note_off,0,0,0,,2,,,62,127
81699,note_off,0,0,0,,8,,,56,127
81699,note_off,0,0,0,,0,,,60,127
81701,note_on,2,0,0,,7,,,55,127
81701,note_on,0,0,0,,2,,,62,127
81701,note_on,0,0,0,,12,,,59,127
81701,note_on,0,0,0,,2,,,74,127
81954,note_off,253,0,0,,2,,,74,127
81983,note_on,29,0,0,,7,,,67,127
82121,note_off,138,0,0,,12,,,59,127
82121,note_off,0,0,0,,2,,,62,127
82121,note_off,0,0,0,,7,,,55,127
82123,note_on,2,0,0,,0,,,60,127
82123,note_on,0,0,0,,3,,,63,127
82261,note_off,138,0,0,,7,,,67,127
82263,note_on,2,0,0,,8,,,68,127
82401,note_off,138,0,0,,8,,,68,127
82404,note_on,3,0,0,,5,,,65,127
82541,note_off,137,0,0,,3,,,63,127
82541,note_off,0,0,0,,0,,,60,127
82542,note_off,1,0,0,,5,,,65,127
82544,note_on,2,0,0,,12,,,59,127
82544,note_on,0,0,0,,2,,,62,127
82544,note_on,0,0,0,,7,,,67,127
82797,note_off,253,0,0,,7,,,67,127
82826,note_on,29,0,0,,2,,,74,127
82964,note_off,138,0,0,,2,,,62,127
82964,note_off,0,0,0,,12,,,59,127
82966,note_on,2,0,0,,8,,,56,127
82966,note_on,0,0,0,,0,,,60,127
82966,note_on,0,0,0,,2,,,62,127
83104,note_off,138,0,0,,2,,,74,127
83106,note_on,2,0,0,,3,,,75,127
83244,note_off,138,0,0,,3,,,75,127
83246,note_on,2,0,0,,0,,,72,127
83384,note_off,138,0,0,,0,,,72,127
83384,note_off,0,0,0,,2,,,62,127
83384,note_off,0,0,0,,0,,,60,127
83384,note_off,0,0,0,,8,,,56,127
83386,note_on,2,0,0,,12,,,59,127
83386,note_on,0,0,0,,7,,,55,127
83386,note_on,0,0,0,,2,,,62,127
83386,note_on,0,0,0,,2,,,74,127
83639,note_off,253,0,0,,2,,,74,127
83668,note_on,29,0,0,,8,,,80,127
83806,note_off,138,0,0,,2,,,62,127
83806,note_off,0,0,0,,7,,,55,127
83806,note_off,0,0,0,,12,,,59,127
83808,note_on,2,0,0,,5,,,53,127
83808,note_on,0,0,0,,12,,,59,127
83808,note_on,0,0,0,,2,,,62,127
83946,note_off,138,0,0,,8,,,80,127
83948,note_on,2,0,0,,5,,,77,127
84086,note_off,138,0,0,,5,,,77,127
84088,note_on,2,0,0,,2,,,74,127
84226,note_off,138,0,0,,2,,,74,127
84226,note_off,0,0,0,,2,,,62,127
84226,note_off,0,0,0,,12,,,59,127
84226,note_off,0,0,0,,5,,,53,127
84229,note_on,3,0,0,,3,,,51,127
84229,note_on,0,0,0,,0,,,60,127
84229,note_on,0,0,0,,7,,,79,127
84367,note_off,138,0,0,,7,,,79,127
84369,note_on,2,0,0,,3,,,75,127
84507,note_off,138,0,0,,3,,,75,127
84507,note_off,0,0,0,,0,,,60,127
84507,note_off,0,0,0,,3,,,51,127
84509,note_on,2,0,0,,2,,,62,127
84509,note_on,0,0,0,,5,,,53,127
84509,note_on,0,0,0,,0,,,72,127
84647,note_off,138,0,0,,5,,,53,127
84647,note_off,0,0,0,,2,,,62,127
84649,note_on,2,0,0,,7,,,55,127
84649,note_on,0,0,0,,3,,,63,127
84787,note_off,138,0,0,,0,,,72,127
84789,note_on,2,0,0,,2,,,74,127
84927,note_off,138,0,0,,2,,,74,127
84927,note_off,0,0,0,,3,,,63,127
84929,note_on,2,0,0,,2,,,62,127
84929,note_on,0,0,0,,12,,,71,127
85065,note_off,136,0,0,,7,,,55,127
85067,note_off,2,0,0,,12,,,71,127
85067,note_off,0,0,0,,2,,,62,127
85069,note_on,2,0,0,,0,,,60,127
85069,note_on,0,0,0,,0,,,72,127
85207,note_off,138,0,0,,0,,,72,127
85209,note_on,2,0,0,,0,,,72,127
85347,note_off,138,0,0,,0,,,72,127
85347,note_off,0,0,0,,0,,,60,127
85349,note_on,2,0,0,,3,,,51,127
85349,note_on,0,0,0,,3,,,75,127
85487,note_off,138,0,0,,3,,,75,127
85487,note_off,0,0,0,,3,,,51,127
85489,note_on,2,0,0,,5,,,53,127
85489,note_on,0,0,0,,2,,,74,127
85768,note_off,279,0,0,,2,,,74,127
85768,note_off,0,0,0,,5,,,53,127
85770,note_on,2,0,0,,7,,,55,127
85770,note_on,0,0,0,,12,,,83,127
85908,note_off,138,0,0,,12,,,83,127
85908,note_off,0,0,0,,7,,,55,127
85910,note_on,2,0,0,,0,,,60,127
85910,note_on,0,0,0,,0,,,84,127
86048,note_off,138,0,0,,0,,,84,127
86048,note_off,0,0,0,,0,,,60,127
86051,note_on,3,0,0,,0,,,60,127
86189,note_off,138,0,0,,0,,,60,127
86191,note_on,2,0,0,,3,,,51,127
86191,note_on,0,0,0,,3,,,63,127
86329,note_off,138,0,0,,3,,,63,127
86329,note_off,0,0,0,,3,,,51,127
86331,note_on,2,0,0,,5,,,53,127
86331,note_on,0,0,0,,2,,,62,127
86610,note_off,279,0,0,,2,,,62,127
86610,note_off,0,0,0,,5,,,53,127
86612,note_on,2,0,0,,7,,,55,127
86612,note_on,0,0,0,,12,,,71,127
86750,note_off,138,0,0,,12,,,71,127
86750,note_off,0,0,0,,7,,,55,127
86752,note_on,2,0,0,,0,,,60,127
86752,note_on,0,0,0,,0,,,72,127
86890,note_off,138,0,0,,0,,,72,127
86892,note_on,2,0,0,,0,,,72,127
87030,note_off,138,0,0,,0,,,72,127
87030,note_off,0,0,0,,0,,,60,127
87032,note_on,2,0,0,,3,,,51,127
87032,note_on,0,0,0,,3,,,75,127
87170,note_off,138,0,0,,3,,,75,127
87170,note_off,0,0,0,,3,,,51,127
87172,note_on,2,0,0,,5,,,53,127
87172,note_on,0,0,0,,2,,,74,127
87451,note_off,279,0,0,,2,,,74,127
87451,note_off,0,0,0,,5,,,53,127
87453,note_on,2,0,0,,7,,,55,127
87453,note_on,0,0,0,,12,,,83,127
87591,note_off,138,0,0,,12,,,83,127
87591,note_off,0,0,0,,7,,,55,127
87593,note_on,2,0,0,,0,,,60,127
87593,note_on,0,0,0,,0,,,84,127
87731,note_off,138,0,0,,0,,,84,127
87731,note_off,0,0,0,,0,,,60,127
87733,note_on,2,0,0,,0,,,60,127
87871,note_off,138,0,0,,0,,,60,127
87874,note_on,3,0,0,,3,,,51,127
87874,note_on,0,0,0,,3,,,63,127
88012,note_off,138,0,0,,3,,,63,127
88012,note_off,0,0,0,,3,,,51,127
88014,note_on,2,0,0,,5,,,53,127
88014,note_on,0,0,0,,2,,,62,127
88293,note_off,279,0,0,,5,,,53,127
88295,note_on,2,0,0,,7,,,55,127
88295,note_on,0,0,0,,2,,,74,127
88415,note_off,120,0,0,,7,,,55,127
88420,note_off,5,0,0,,2,,,62,127
88437,note_off,17,0,0,,2,,,74,127
88455,note_on,18,0,0,,8,,,68,127
88717,note_on,262,0,0,,5,,,65,127
88717,note_on,0,0,0,,5,,,77,127
88855,note_off,138,0,0,,5,,,65,127
88857,note_on,2,0,0,,2,,,62,127
88995,note_off,138,0,0,,5,,,77,127
88997,note_on,2,0,0,,2,,,74,127
89135,note_off,138,0,0,,2,,,62,127
89137,note_on,2,0,0,,12,,,59,127
89254,note_off,117,0,0,,8,,,68,127
89276,note_off,22,0,0,,12,,,59,127
89278,note_on,2,0,0,,8,,,56,127
89416,note_off,138,0,0,,2,,,74,127
89418,note_on,2,0,0,,3,,,75,127
89556,note_off,138,0,0,,3,,,75,127
89556,note_off,0,0,0,,8,,,56,127
89558,note_on,2,0,0,,5,,,53,127
89558,note_on,0,0,0,,0,,,72,127
89696,note_off,138,0,0,,5,,,53,127
89699,note_on,3,0,0,,0,,,60,127
89699,note_on,0,0,0,,7,,,55,127
89699,note_on,0,0,0,,3,,,63,127
89836,note_off,137,0,0,,0,,,72,127
89839,note_on,3,0,0,,2,,,74,127
89977,note_off,138,0,0,,2,,,74,127
89977,note_off,0,0,0,,3,,,63,127
89977,note_off,0,0,0,,0,,,60,127
89979,note_on,2,0,0,,2,,,62,127
89979,note_on,0,0,0,,12,,,71,127
90115,note_off,136,0,0,,7,,,55,127
90117,note_off,2,0,0,,12,,,71,127
90117,note_off,0,0,0,,2,,,62,127
90119,note_on,2,0,0,,0,,,60,127
90119,note_on,0,0,0,,0,,,72,127
90257,note_off,138,0,0,,0,,,72,127
90257,note_off,0,0,0,,0,,,60,127
90259,note_on,2,0,0,,0,,,60,127
90397,note_off,138,0,0,,0,,,60,127
90399,note_on,2,0,0,,3,,,51,127
90399,note_on,0,0,0,,3,,,63,127
90537,note_off,138,0,0,,3,,,63,127
90537,note_off,0,0,0,,3,,,51,127
90539,note_on,2,0,0,,5,,,53,127
90539,note_on,0,0,0,,2,,,62,127
90818,note_off,279,0,0,,2,,,62,127
90818,note_off,0,0,0,,5,,,53,127
90820,note_on,2,0,0,,7,,,55,127
90820,note_on,0,0,0,,12,,,71,127
90958,note_off,138,0,0,,12,,,71,127
90958,note_off,0,0,0,,7,,,55,127
90960,note_on,2,0,0,,0,,,60,127
90960,note_on,0,0,0,,0,,,72,127
91098,note_off,138,0,0,,0,,,72,127
91100,note_on,2,0,0,,0,,,72,127
91238,note_off,138,0,0,,0,,,72,127
91238,note_off,0,0,0,,0,,,60,127
91240,note_on,2,0,0,,3,,,51,127
91240,note_on,0,0,0,,3,,,75,127
91378,note_off,138,0,0,,3,,,75,127
91378,note_off,0,0,0,,3,,,51,127
91380,note_on,2,0,0,,5,,,53,127
91380,note_on,0,0,0,,2,,,74,127
91659,note_off,279,0,0,,2,,,74,127
91659,note_off,0,0,0,,5,,,53,127
91662,note_on,3,0,0,,7,,,55,127
91662,note_on,0,0,0,,12,,,83,127
91800,note_off,138,0,0,,12,,,83,127
91800,note_off,0,0,0,,7,,,55,127
91802,note_on,2,0,0,,0,,,60,127
91802,note_on,0,0,0,,0,,,84,127
91940,note_off,138,0,0,,0,,,84,127
91940,note_off,0,0,0,,0,,,60,127
91942,note_on,2,0,0,,0,,,60,127
92080,note_off,138,0,0,,0,,,60,127
92082,note_on,2,0,0,,3,,,51,127
92082,note_on,0,0,0,,3,,,63,127
92220,note_off,138,0,0,,3,,,63,127
92220,note_off,0,0,0,,3,,,51,127
92222,note_on,2,0,0,,5,,,53,127
92222,note_on,0,0,0,,2,,,62,127
92501,note_off,279,0,0,,5,,,53,127
92503,note_on,2,0,0,,7,,,55,127
92503,note_on,0,0,0,,2,,,74,127
92613,note_off,110,0,0,,2,,,74,127
92616,note_off,3,0,0,,2,,,62,127
92641,note_off,25,0,0,,7,,,55,127
92643,note_on,2,0,0,,8,,,68,127
92924,note_on,281,0,0,,5,,,65,127
92924,note_on,0,0,0,,5,,,77,127
93062,note_off,138,0,0,,5,,,65,127
93064,note_on,2,0,0,,2,,,62,127
93202,note_off,138,0,0,,5,,,77,127
93204,note_on,2,0,0,,2,,,74,127
93342,note_off,138,0,0,,2,,,62,127
93345,note_on,3,0,0,,12,,,59,127
93475,note_off,130,0,0,,8,,,68,127
93483,note_off,8,0,0,,12,,,59,127
93485,note_on,2,0,0,,8,,,56,127
93622,note_off,137,0,0,,2,,,74,127
93625,note_on,3,0,0,,3,,,75,127
93763,note_off,138,0,0,,3,,,75,127
93763,note_off,0,0,0,,8,,,56,127
93765,note_on,2,0,0,,5,,,53,127
93765,note_on,0,0,0,,0,,,72,127
93903,note_off,138,0,0,,5,,,53,127
93905,note_on,2,0,0,,7,,,55,127
93905,note_on,0,0,0,,0,,,60,127
93905,note_on,0,0,0,,3,,,63,127
94043,note_off,138,0,0,,0,,,72,127
94045,note_on,2,0,0,,2,,,74,127
94183,note_off,138,0,0,,2,,,74,127
94183,note_off,0,0,0,,3,,,63,127
94183,note_off,0,0,0,,0,,,60,127
94185,note_on,2,0,0,,2,,,62,127
94185,note_on,0,0,0,,12,,,71,127
94321,note_off,136,0,0,,7,,,55,127
94323,note_off,2,0,0,,12,,,71,127
94323,note_off,0,0,0,,2,,,62,127
94325,note_on,2,0,0,,0,,,60,127
94325,note_on,0,0,0,,0,,,72,127
94604,note_off,279,0,0,,0,,,72,127
94604,note_off,0,0,0,,0,,,60,127
94606,note_on,2,0,0,,0,,,48,127
94606,note_on,0,0,0,,7,,,79,127
94606,note_on,0,0,0,,4,,,76,127
94744,note_off,138,0,0,,0,,,48,127
94746,note_on,2,0,0,,7,,,55,127
94884,note_off,138,0,0,,4,,,76,127
94884,note_off,0,0,0,,7,,,79,127
94886,note_on,2,0,0,,10,,,81,127
94886,note_on,0,0,0,,5,,,77,127
95024,note_off,138,0,0,,5,,,77,127
95024,note_off,0,0,0,,10,,,81,127
95026,note_on,2,0,0,,7,,,43,127
95026,note_on,0,0,0,,2,,,74,127
95026,note_on,0,0,0,,5,,,77,127
95162,note_off,136,0,0,,7,,,55,127
95164,note_off,2,0,0,,7,,,43,127
95167,note_on,3,0,0,,0,,,48,127
95304,note_off,137,0,0,,5,,,77,127
95304,note_off,0,0,0,,2,,,74,127
95307,note_on,3,0,0,,7,,,79,127
95307,note_on,0,0,0,,4,,,76,127
95445,note_off,138,0,0,,4,,,76,127
95445,note_off,0,0,0,,7,,,79,127
95447,note_on,2,0,0,,0,,,36,127
95447,note_on,0,0,0,,0,,,72,127
95447,note_on,0,0,0,,4,,,76,127
95583,note_off,136,0,0,,0,,,48,127
95585,note_off,2,0,0,,0,,,36,127
95587,note_on,2,0,0,,7,,,55,127
95725,note_off,138,0,0,,4,,,76,127
95725,note_off,0,0,0,,0,,,72,127
95727,note_on,2,0,0,,2,,,74,127
95727,note_on,0,0,0,,5,,,77,127
95865,note_off,138,0,0,,5,,,77,127
95865,note_off,0,0,0,,2,,,74,127
95867,note_on,2,0,0,,7,,,43,127
95867,note_on,0,0,0,,12,,,71,127
95867,note_on,0,0,0,,2,,,74,127
96003,note_off,136,0,0,,7,,,55,127
96005,note_off,2,0,0,,2,,,74,127
96005,note_off,0,0,0,,12,,,71,127
96005,note_off,0,0,0,,7,,,43,127
96007,note_on,2,0,0,,0,,,48,127
96007,note_on,0,0,0,,0,,,72,127
96286,note_off,279,0,0,,0,,,72,127
96288,note_on,2,0,0,,4,,,76,127
96288,note_on,0,0,0,,7,,,79,127
96426,note_off,138,0,0,,0,,,48,127
96428,note_on,2,0,0,,4,,,52,127
96566,note_off,138,0,0,,7,,,79,127
96566,note_off,0,0,0,,4,,,76,127
96568,note_on,2,0,0,,10,,,81,127
96568,note_on,0,0,0,,5,,,77,127
96706,note_off,138,0,0,,5,,,77,127
96706,note_off,0,0,0,,10,,,81,127
96708,note_on,2,0,0,,2,,,74,127
96708,note_on,0,0,0,,5,,,77,127
96846,note_off,138,0,0,,4,,,52,127
96848,note_on,2,0,0,,5,,,53,127
96986,note_off,138,0,0,,5,,,77,127
96986,note_off,0,0,0,,2,,,74,127
96989,note_on,3,0,0,,7,,,79,127
96989,note_on,0,0,0,,4,,,76,127
97127,note_off,138,0,0,,4,,,76,127
97127,note_off,0,0,0,,7,,,79,127
97129,note_on,2,0,0,,0,,,72,127
97129,note_on,0,0,0,,4,,,76,127
97266,note_off,137,0,0,,5,,,53,127
97269,note_on,3,0,0,,7,,,55,127
97407,note_off,138,0,0,,4,,,76,127
97407,note_off,0,0,0,,0,,,72,127
97409,note_on,2,0,0,,5,,,77,127
97409,note_on,0,0,0,,2,,,74,127
97547,note_off,138,0,0,,2,,,74,127
97547,note_off,0,0,0,,5,,,77,127
97549,note_on,2,0,0,,2,,,74,127
97549,note_on,0,0,0,,12,,,71,127
97687,note_off,138,0,0,,12,,,71,127
97687,note_off,0,0,0,,2,,,74,127
97687,note_off,0,0,0,,7,,,55,127
97689,note_on,2,0,0,,0,,,48,127
97689,note_on,0,0,0,,0,,,72,127
97827,note_off,138,0,0,,0,,,72,127
97829,note_on,2,0,0,,2,,,74,127
97967,note_off,138,0,0,,2,,,74,127
97969,note_on,2,0,0,,4,,,76,127
98107,note_off,138,0,0,,4,,,76,127
98107,note_off,0,0,0,,0,,,48,127
98109,note_on,2,0,0,,4,,,52,127
98109,note_on,0,0,0,,4,,,76,127
98247,note_off,138,0,0,,4,,,76,127
98249,note_on,2,0,0,,5,,,77,127
98387,note_off,138,0,0,,5,,,77,127
98389,note_on,2,0,0,,7,,,79,127
98527,note_off,138,0,0,,7,,,79,127
98527,note_off,0,0,0,,4,,,52,127
98529,note_on,2,0,0,,5,,,53,127
98529,note_on,0,0,0,,10,,,81,127
98667,note_off,138,0,0,,10,,,81,127
98669,note_on,2,0,0,,12,,,83,127
98807,note_off,138,0,0,,12,,,83,127
98810,note_on,3,0,0,,0,,,84,127
98947,note_off,137,0,0,,5,,,53,127
98948,note_off,1,0,0,,0,,,84,127
98950,note_on,2,0,0,,7,,,55,127
98950,note_on,0,0,0,,4,,,76,127
99017,note_off,67,0,0,,4,,,76,127
99019,note_on,2,0,0,,2,,,74,127
99086,note_off,67,0,0,,2,,,74,127
99089,note_on,3,0,0,,4,,,76,127
99156,note_off,67,0,0,,4,,,76,127
99158,note_on,2,0,0,,2,,,74,127
99225,note_off,67,0,0,,2,,,74,127
99228,note_on,3,0,0,,4,,,76,127
99295,note_off,67,0,0,,4,,,76,127
99297,note_on,2,0,0,,2,,,74,127
99364,note_off,67,0,0,,2,,,74,127
99365,note_off,1,0,0,,7,,,55,127
99367,note_on,2,0,0,,0,,,48,127
99367,note_on,0,0,0,,0,,,60,127
99505,note_off,138,0,0,,0,,,60,127
99507,note_on,2,0,0,,2,,,62,127
99645,note_off,138,0,0,,2,,,62,127
99647,note_on,2,0,0,,4,,,64,127
99785,note_off,138,0,0,,4,,,64,127
99785,note_off,0,0,0,,0,,,48,127
99787,note_on,2,0,0,,4,,,52,127
99787,note_on,0,0,0,,4,,,64,127
99925,note_off,138,0,0,,4,,,64,127
99927,note_on,2,0,0,,5,,,65,127
100065,note_off,138,0,0,,5,,,65,127
100067,note_on,2,0,0,,7,,,67,127
100205,note_off,138,0,0,,7,,,67,127
100205,note_off,0,0,0,,4,,,52,127
100207,note_on,2,0,0,,5,,,53,127
100207,note_on,0,0,0,,10,,,69,127
100345,note_off,138,0,0,,10,,,69,127
100347,note_on,2,0,0,,12,,,71,127
100485,note_off,138,0,0,,12,,,71,127
100487,note_on,2,0,0,,0,,,72,127
100625,note_off,138,0,0,,0,,,72,127
100625,note_off,0,0,0,,5,,,53,127
100628,note_on,3,0,0,,7,,,55,127
100628,note_on,0,0,0,,4,,,64,127
100695,note_off,67,0,0,,4,,,64,127
100697,note_on,2,0,0,,2,,,62,127
100764,note_off,67,0,0,,2,,,62,127
100767,note_on,3,0,0,,4,,,64,127
100834,note_off,67,0,0,,4,,,64,127
100836,note_on,2,0,0,,2,,,62,127
100903,note_off,67,0,0,,2,,,62,127
100906,note_on,3,0,0,,4,,,64,127
100973,note_off,67,0,0,,4,,,64,127
100975,note_on,2,0,0,,2,,,62,127
101042,note_off,67,0,0,,2,,,62,127
101043,note_off,1,0,0,,7,,,55,127
101045,note_on,2,0,0,,0,,,48,127
101045,note_on,0,0,0,,0,,,60,127
101183,note_off,138,0,0,,0,,,48,127
101185,note_on,2,0,0,,2,,,50,127
101323,note_off,138,0,0,,2,,,50,127
101325,note_on,2,0,0,,4,,,52,127
101463,note_off,138,0,0,,4,,,52,127
101463,note_off,0,0,0,,0,,,60,127
101465,note_on,2,0,0,,4,,,52,127
101465,note_on,0,0,0,,7,,,67,127
101465,note_on,0,0,0,,0,,,72,127
101465,note_on,0,0,0,,4,,,76,127
101603,note_off,138,0,0,,4,,,52,127
101605,note_on,2,0,0,,5,,,53,127
101743,note_off,138,0,0,,5,,,53,127
101745,note_on,2,0,0,,7,,,55,127
101883,note_off,138,0,0,,7,,,55,127
101885,note_on,2,0,0,,10,,,57,127
102023,note_off,138,0,0,,10,,,57,127
102023,note_off,0,0,0,,4,,,76,127
102023,note_off,0,0,0,,0,,,72,127
102025,note_on,2,0,0,,12,,,59,127
102025,note_on,0,0,0,,5,,,77,127
102025,note_on,0,0,0,,2,,,74,127
102094,note_off,69,0,0,,7,,,67,127
102164,note_off,70,0,0,,12,,,59,127
102166,note_on,2,0,0,,0,,,60,127
102304,note_off,138,0,0,,0,,,60,127
102306,note_on,2,0,0,,7,,,43,127
102444,note_off,138,0,0,,2,,,74,127
102444,note_off,0,0,0,,5,,,77,127
102447,note_on,3,0,0,,4,,,76,127
102447,note_on,0,0,0,,0,,,72,127
102585,note_off,138,0,0,,0,,,72,127
102585,note_off,0,0,0,,4,,,76,127
102587,note_on,2,0,0,,12,,,71,127
102587,note_on,0,0,0,,2,,,74,127
102724,note_off,137,0,0,,7,,,43,127
102725,note_off,1,0,0,,2,,,74,127
102725,note_off,0,0,0,,12,,,71,127
102727,note_on,2,0,0,,0,,,48,127
102727,note_on,0,0,0,,4,,,76,127
102727,note_on,0,0,0,,0,,,72,127
102865,note_off,138,0,0,,0,,,48,127
102867,note_on,2,0,0,,2,,,50,127
103005,note_off,138,0,0,,2,,,50,127
103007,note_on,2,0,0,,4,,,52,127
103041,note_off,34,0,0,,0,,,72,127
103041,note_off,0,0,0,,4,,,76,127
103145,note_off,104,0,0,,4,,,52,127
103147,note_on,2,0,0,,4,,,52,127
103147,note_on,0,0,0,,4,,,76,127
103147,note_on,0,0,0,,0,,,72,127
103147,note_on,0,0,0,,7,,,67,127
103285,note_off,138,0,0,,4,,,52,127
103287,note_on,2,0,0,,5,,,53,127
103425,note_off,138,0,0,,5,,,53,127
103427,note_on,2,0,0,,7,,,55,127
103565,note_off,138,0,0,,7,,,55,127
103567,note_on,2,0,0,,10,,,57,127
103705,note_off,138,0,0,,10,,,57,127
103707,note_on,2,0,0,,12,,,59,127
103776,note_off,69,0,0,,7,,,67,127
103846,note_off,70,0,0,,12,,,59,127
103846,note_off,0,0,0,,0,,,72,127
103846,note_off,0,0,0,,4,,,76,127
103848,note_on,2,0,0,,0,,,60,127
103848,note_on,0,0,0,,5,,,77,127
103986,note_off,138,0,0,,0,,,60,127
103988,note_on,2,0,0,,7,,,43,127
104126,note_off,138,0,0,,5,,,77,127
104128,note_on,2,0,0,,4,,,76,127
104128,note_on,0,0,0,,7,,,67,127
104266,note_off,138,0,0,,7,,,67,127
104266,note_off,0,0,0,,4,,,76,127
104269,note_on,3,0,0,,2,,,74,127
104269,note_on,0,0,0,,5,,,65,127
104406,note_off,137,0,0,,7,,,43,127
104407,note_off,1,0,0,,5,,,65,127
104407,note_off,0,0,0,,2,,,74,127
104409,note_on,2,0,0,,0,,,48,127
104409,note_on,0,0,0,,0,,,36,127
104409,note_on,0,0,0,,0,,,72,127
104409,note_on,0,0,0,,4,,,64,127
105250,note_off,841,0,0,,4,,,64,127
105250,note_off,0,0,0,,0,,,72,127
105251,note_off,1,0,0,,0,,,36,127
105251,note_off,0,0,0,,0,,,48,127
105252,note_on,1,0,0,,7,,,79,127
105390,note_off,138,0,0,,7,,,79,127
105392,note_on,2,0,0,,5,,,77,127
105530,note_off,138,0,0,,5,,,77,127
105532,note_on,2,0,0,,4,,,76,127
105670,note_off,138,0,0,,4,,,76,127
105672,note_on,2,0,0,,2,,,74,127
105810,note_off,138,0,0,,2,,,74,127
105812,note_on,2,0,0,,4,,,76,127
105950,note_off,138,0,0,,4,,,76,127
105952,note_on,2,0,0,,5,,,77,127
106090,note_off,138,0,0,,5,,,77,127
106093,note_on,3,0,0,,4,,,76,127
106231,note_off,138,0,0,,4,,,76,127
106233,note_on,2,0,0,,2,,,74,127
106371,note_off,138,0,0,,2,,,74,127
106373,note_on,2,0,0,,0,,,72,127
106511,note_off,138,0,0,,0,,,72,127
106513,note_on,2,0,0,,11,,,70,127
106651,note_off,138,0,0,,11,,,70,127
106653,note_on,2,0,0,,0,,,72,127
106791,note_off,138,0,0,,0,,,72,127
106793,note_on,2,0,0,,2,,,74,127
106931,note_off,138,0,0,,2,,,74,127
106933,note_on,2,0,0,,0,,,72,127
107000,note_off,67,0,0,,0,,,72,127
107003,note_on,3,0,0,,11,,,70,127
107070,note_off,67,0,0,,11,,,70,127
107072,note_on,2,0,0,,10,,,69,127
107210,note_off,138,0,0,,10,,,69,127
107212,note_on,2,0,0,,8,,,68,127
107350,note_off,138,0,0,,8,,,68,127
107352,note_on,2,0,0,,8,,,68,127
107631,note_off,279,0,0,,8,,,68,127
107633,note_on,2,0,0,,10,,,69,127
107771,note_off,138,0,0,,10,,,69,127
107773,note_on,2,0,0,,7,,,67,127
107773,note_on,0,0,0,,1,,,73,127
107911,note_off,138,0,0,,7,,,67,127
107914,note_on,3,0,0,,5,,,65,127
108052,note_off,138,0,0,,5,,,65,127
108054,note_on,2,0,0,,4,,,64,127
108191,note_off,137,0,0,,1,,,73,127
108192,note_off,1,0,0,,4,,,64,127
108194,note_on,2,0,0,,5,,,65,127
108194,note_on,0,0,0,,2,,,74,127
108332,note_off,138,0,0,,5,,,65,127
108334,note_on,2,0,0,,7,,,67,127
108472,note_off,138,0,0,,7,,,67,127
108474,note_on,2,0,0,,10,,,69,127
108612,note_off,138,0,0,,10,,,69,127
108614,note_on,2,0,0,,5,,,65,127
108752,note_off,138,0,0,,5,,,65,127
108754,note_on,2,0,0,,4,,,64,127
108892,note_off,138,0,0,,4,,,64,127
108894,note_on,2,0,0,,2,,,62,127
109032,note_off,138,0,0,,2,,,62,127
109032,note_off,0,0,0,,2,,,74,127
109034,note_on,2,0,0,,1,,,61,127
109034,note_on,0,0,0,,4,,,76,127
109172,note_off,138,0,0,,4,,,76,127
109172,note_off,0,0,0,,1,,,61,127
109174,note_on,2,0,0,,2,,,62,127
109174,note_on,0,0,0,,5,,,77,127
109312,note_off,138,0,0,,5,,,77,127
109312,note_off,0,0,0,,2,,,62,127
109314,note_on,2,0,0,,4,,,64,127
109314,note_on,0,0,0,,7,,,79,127
109452,note_off,138,0,0,,7,,,79,127
109452,note_off,0,0,0,,4,,,64,127
109454,note_on,2,0,0,,2,,,62,127
109454,note_on,0,0,0,,5,,,77,127
109592,note_off,138,0,0,,5,,,77,127
109592,note_off,0,0,0,,2,,,62,127
109594,note_on,2,0,0,,0,,,60,127
109594,note_on,0,0,0,,4,,,76,127
109732,note_off,138,0,0,,4,,,76,127
109732,note_off,0,0,0,,0,,,60,127
109735,note_on,3,0,0,,11,,,58,127
109735,note_on,0,0,0,,2,,,74,127
109873,note_off,138,0,0,,2,,,74,127
109873,note_off,0,0,0,,11,,,58,127
109875,note_on,2,0,0,,10,,,57,127
109875,note_on,0,0,0,,1,,,73,127
110016,note_on,141,0,0,,10,,,45,127
110128,note_off,112,0,0,,1,,,73,127
110150,note_off,22,0,0,,10,,,57,127
110155,note_off,5,0,0,,10,,,45,127
110157,note_on,2,0,0,,10,,,57,127
110157,note_on,0,0,0,,10,,,81,127
110295,note_off,138,0,0,,10,,,57,127
110297,note_on,2,0,0,,11,,,58,127
110435,note_off,138,0,0,,11,,,58,127
110437,note_on,2,0,0,,10,,,57,127
110575,note_off,138,0,0,,10,,,57,127
110575,note_off,0,0,0,,10,,,81,127
110577,note_on,2,0,0,,11,,,58,127
110577,note_on,0,0,0,,2,,,74,127
110715,note_off,138,0,0,,2,,,74,127
110715,note_off,0,0,0,,11,,,58,127
110717,note_on,2,0,0,,10,,,57,127
110717,note_on,0,0,0,,1,,,73,127
110858,note_on,141,0,0,,10,,,45,127
110970,note_off,112,0,0,,1,,,73,127
110992,note_off,22,0,0,,10,,,57,127
110997,note_off,5,0,0,,10,,,45,127
110999,note_on,2,0,0,,10,,,57,127
110999,note_on,0,0,0,,10,,,81,127
111137,note_off,138,0,0,,10,,,57,127
111139,note_on,2,0,0,,11,,,58,127
111277,note_off,138,0,0,,11,,,58,127
111279,note_on,2,0,0,,10,,,57,127
111417,note_off,138,0,0,,10,,,57,127
111417,note_off,0,0,0,,10,,,81,127
111419,note_on,2,0,0,,11,,,58,127
111419,note_on,0,0,0,,2,,,74,127
111557,note_off,138,0,0,,2,,,74,127
111557,note_off,0,0,0,,11,,,58,127
111560,note_on,3,0,0,,10,,,45,127
111560,note_on,0,0,0,,1,,,73,127
111698,note_off,138,0,0,,1,,,73,127
111700,note_on,2,0,0,,2,,,74,127
111838,note_off,138,0,0,,2,,,74,127
111840,note_on,2,0,0,,4,,,76,127
111978,note_off,138,0,0,,10,,,45,127
111994,note_on,16,0,0,,1,,,61,127
112081,note_off,87,0,0,,4,,,76,127
112135,note_on,54,0,0,,10,,,69,127
112273,note_off,138,0,0,,10,,,69,127
112275,note_on,2,0,0,,4,,,64,127
112413,note_off,138,0,0,,4,,,64,127
112413,note_off,0,0,0,,1,,,61,127
112415,note_on,2,0,0,,5,,,65,127
112415,note_on,0,0,0,,2,,,62,127
112546,note_off,131,0,0,,2,,,62,127
112553,note_off,7,0,0,,5,,,65,127
112555,note_on,2,0,0,,2,,,62,127
112696,note_on,141,0,0,,10,,,69,127
112830,note_off,134,0,0,,2,,,62,127
112835,note_off,5,0,0,,10,,,69,127
112837,note_on,2,0,0,,8,,,68,127
112837,note_on,0,0,0,,12,,,59,127
112975,note_off,138,0,0,,8,,,68,127
112977,note_on,2,0,0,,4,,,64,127
113115,note_off,138,0,0,,4,,,64,127
113117,note_on,2,0,0,,8,,,68,127
113117,note_on,0,0,0,,2,,,74,127
113255,note_off,138,0,0,,2,,,74,127
113255,note_off,0,0,0,,8,,,68,127
113255,note_off,0,0,0,,12,,,59,127
113257,note_on,2,0,0,,8,,,68,127
113257,note_on,0,0,0,,2,,,74,127
113257,note_on,0,0,0,,10,,,57,127
113536,note_off,279,0,0,,2,,,74,127
113536,note_off,0,0,0,,8,,,68,127
113539,note_on,3,0,0,,10,,,69,127
113539,note_on,0,0,0,,1,,,73,127
113676,note_off,137,0,0,,10,,,57,127
113679,note_on,3,0,0,,1,,,61,127
113817,note_off,138,0,0,,1,,,73,127
113817,note_off,0,0,0,,10,,,69,127
113819,note_on,2,0,0,,10,,,69,127
113957,note_off,138,0,0,,10,,,69,127
113959,note_on,2,0,0,,4,,,64,127
114097,note_off,138,0,0,,4,,,64,127
114097,note_off,0,0,0,,1,,,61,127
114099,note_on,2,0,0,,5,,,65,127
114099,note_on,0,0,0,,2,,,62,127
114237,note_off,138,0,0,,2,,,62,127
114237,note_off,0,0,0,,5,,,65,127
114239,note_on,2,0,0,,2,,,62,127
114380,note_on,141,0,0,,10,,,69,127
114514,note_off,134,0,0,,2,,,62,127
114519,note_off,5,0,0,,10,,,69,127
114521,note_on,2,0,0,,8,,,68,127
114521,note_on,0,0,0,,12,,,59,127
114659,note_off,138,0,0,,8,,,68,127
114661,note_on,2,0,0,,4,,,64,127
114799,note_off,138,0,0,,4,,,64,127
114801,note_on,2,0,0,,2,,,74,127
114801,note_on,0,0,0,,8,,,68,127
114939,note_off,138,0,0,,8,,,68,127
114939,note_off,0,0,0,,2,,,74,127
114939,note_off,0,0,0,,12,,,59,127
114941,note_on,2,0,0,,8,,,68,127
114941,note_on,0,0,0,,2,,,74,127
114941,note_on,0,0,0,,10,,,57,127
115220,note_off,279,0,0,,2,,,74,127
115220,note_off,0,0,0,,8,,,68,127
115223,note_on,3,0,0,,1,,,73,127
115223,note_on,0,0,0,,10,,,69,127
115360,note_off,137,0,0,,10,,,57,127
115361,note_off,1,0,0,,10,,,69,127
115361,note_off,0,0,0,,1,,,73,127
115363,note_on,2,0,0,,5,,,65,127
115504,note_on,141,0,0,,2,,,74,127
115642,note_off,138,0,0,,2,,,74,127
115644,note_on,2,0,0,,10,,,69,127
115782,note_off,138,0,0,,10,,,69,127
115782,note_off,0,0,0,,5,,,65,127
115784,note_on,2,0,0,,11,,,70,127
115784,note_on,0,0,0,,7,,,67,127
115915,note_off,131,0,0,,7,,,67,127
115922,note_off,7,0,0,,11,,,70,127
115924,note_on,2,0,0,,7,,,67,127
116065,note_on,141,0,0,,2,,,74,127
116199,note_off,134,0,0,,7,,,67,127
116204,note_off,5,0,0,,2,,,74,127
116206,note_on,2,0,0,,4,,,76,127
116206,note_on,0,0,0,,1,,,61,127
116344,note_off,138,0,0,,4,,,76,127
116346,note_on,2,0,0,,10,,,69,127
116484,note_off,138,0,0,,10,,,69,127
116486,note_on,2,0,0,,7,,,79,127
116486,note_on,0,0,0,,11,,,70,127
116624,note_off,138,0,0,,11,,,70,127
116624,note_off,0,0,0,,7,,,79,127
116624,note_off,0,0,0,,1,,,61,127
116626,note_on,2,0,0,,11,,,70,127
116626,note_on,0,0,0,,7,,,79,127
116626,note_on,0,0,0,,2,,,62,127
116905,note_off,279,0,0,,7,,,79,127
116905,note_off,0,0,0,,11,,,70,127
116907,note_on,2,0,0,,10,,,69,127
116907,note_on,0,0,0,,5,,,77,127
117045,note_off,138,0,0,,2,,,62,127
117048,note_on,3,0,0,,5,,,65,127
117185,note_off,137,0,0,,5,,,77,127
117185,note_off,0,0,0,,10,,,69,127
117188,note_on,3,0,0,,2,,,74,127
117326,note_off,138,0,0,,2,,,74,127
117328,note_on,2,0,0,,10,,,69,127
117466,note_off,138,0,0,,10,,,69,127
117466,note_off,0,0,0,,5,,,65,127
117468,note_on,2,0,0,,11,,,70,127
117468,note_on,0,0,0,,7,,,67,127
117599,note_off,131,0,0,,7,,,67,127
117606,note_off,7,0,0,,11,,,70,127
117608,note_on,2,0,0,,7,,,67,127
117749,note_on,141,0,0,,2,,,74,127
117883,note_off,134,0,0,,7,,,67,127
117888,note_off,5,0,0,,2,,,74,127
117890,note_on,2,0,0,,4,,,76,127
117890,note_on,0,0,0,,1,,,61,127
118028,note_off,138,0,0,,4,,,76,127
118030,note_on,2,0,0,,10,,,69,127
118168,note_off,138,0,0,,10,,,69,127
118170,note_on,2,0,0,,7,,,79,127
118170,note_on,0,0,0,,11,,,70,127
118308,note_off,138,0,0,,11,,,70,127
118308,note_off,0,0,0,,7,,,79,127
118308,note_off,0,0,0,,1,,,61,127
118310,note_on,2,0,0,,11,,,70,127
118310,note_on,0,0,0,,7,,,79,127
118310,note_on,0,0,0,,2,,,62,127
118589,note_off,279,0,0,,7,,,79,127
118589,note_off,0,0,0,,11,,,70,127
118591,note_on,2,0,0,,6,,,78,127
118591,note_on,0,0,0,,10,,,69,127
118729,note_off,138,0,0,,10,,,69,127
118729,note_off,0,0,0,,6,,,78,127
118729,note_off,0,0,0,,2,,,62,127
118731,note_on,2,0,0,,11,,,70,127
118873,note_on,142,0,0,,7,,,79,127
119011,note_off,138,0,0,,7,,,79,127
119013,note_on,2,0,0,,2,,,74,127
119150,note_off,137,0,0,,11,,,70,127
119151,note_off,1,0,0,,2,,,74,127
119153,note_on,2,0,0,,3,,,75,127
119153,note_on,0,0,0,,0,,,72,127
119291,note_off,138,0,0,,0,,,72,127
119291,note_off,0,0,0,,3,,,75,127
119293,note_on,2,0,0,,0,,,72,127
119434,note_on,141,0,0,,7,,,79,127
119568,note_off,134,0,0,,0,,,72,127
119573,note_off,5,0,0,,7,,,79,127
119575,note_on,2,0,0,,10,,,81,127
119575,note_on,0,0,0,,6,,,66,127
119713,note_off,138,0,0,,10,,,81,127
119715,note_on,2,0,0,,2,,,74,127
119853,note_off,138,0,0,,2,,,74,127
119855,note_on,2,0,0,,0,,,84,127
119855,note_on,0,0,0,,3,,,75,127
119993,note_off,138,0,0,,3,,,75,127
119993,note_off,0,0,0,,0,,,84,127
119993,note_off,0,0,0,,6,,,66,127
119995,note_on,2,0,0,,3,,,75,127
119995,note_on,0,0,0,,0,,,84,127
119995,note_on,0,0,0,,7,,,67,127
120274,note_off,279,0,0,,0,,,84,127
120274,note_off,0,0,0,,3,,,75,127
120276,note_on,2,0,0,,2,,,74,127
120276,note_on,0,0,0,,11,,,82,127
120414,note_off,138,0,0,,7,,,67,127
120416,note_on,2,0,0,,11,,,70,127
120554,note_off,138,0,0,,11,,,82,127
120554,note_off,0,0,0,,2,,,74,127
120556,note_on,2,0,0,,7,,,79,127
120694,note_off,138,0,0,,7,,,79,127
120697,note_on,3,0,0,,2,,,74,127
120834,note_off,137,0,0,,11,,,70,127
120835,note_off,1,0,0,,2,,,74,127
120837,note_on,2,0,0,,3,,,75,127
120837,note_on,0,0,0,,0,,,72,127
120968,note_off,131,0,0,,0,,,72,127
120975,note_off,7,0,0,,3,,,75,127
120977,note_on,2,0,0,,0,,,72,127
121118,note_on,141,0,0,,7,,,79,127
121252,note_off,134,0,0,,0,,,72,127
121257,note_off,5,0,0,,7,,,79,127
121259,note_on,2,0,0,,10,,,81,127
121259,note_on,0,0,0,,6,,,66,127
121397,note_off,138,0,0,,10,,,81,127
121399,note_on,2,0,0,,2,,,74,127
121537,note_off,138,0,0,,2,,,74,127
121539,note_on,2,0,0,,0,,,84,127
121677,note_off,138,0,0,,0,,,84,127
121677,note_off,0,0,0,,6,,,66,127
121679,note_on,2,0,0,,0,,,84,127
121679,note_on,0,0,0,,7,,,67,127
121817,note_off,138,0,0,,0,,,84,127
121819,note_on,2,0,0,,11,,,82,127
121957,note_off,138,0,0,,11,,,82,127
121959,note_on,2,0,0,,10,,,81,127
122097,note_off,138,0,0,,10,,,81,127
122097,note_off,0,0,0,,7,,,67,127
122099,note_on,2,0,0,,10,,,81,127
122099,note_on,0,0,0,,11,,,70,127
122237,note_off,138,0,0,,10,,,81,127
122239,note_on,2,0,0,,7,,,79,127
122377,note_off,138,0,0,,7,,,79,127
122379,note_on,2,0,0,,5,,,77,127
122517,note_off,138,0,0,,5,,,77,127
122517,note_off,0,0,0,,11,,,70,127
122520,note_on,3,0,0,,5,,,77,127
122520,note_on,0,0,0,,0,,,60,127
122658,note_off,138,0,0,,5,,,77,127
122660,note_on,2,0,0,,3,,,75,127
122798,note_off,138,0,0,,3,,,75,127
122800,note_on,2,0,0,,2,,,74,127
122938,note_off,138,0,0,,2,,,74,127
122938,note_off,0,0,0,,0,,,60,127
122940,note_on,2,0,0,,2,,,74,127
122940,note_on,0,0,0,,3,,,63,127
123078,note_off,138,0,0,,2,,,74,127
123080,note_on,2,0,0,,0,,,72,127
123218,note_off,138,0,0,,0,,,72,127
123220,note_on,2,0,0,,11,,,70,127
123358,note_off,138,0,0,,11,,,70,127
123358,note_off,0,0,0,,3,,,63,127
123360,note_on,2,0,0,,11,,,70,127
123360,note_on,0,0,0,,5,,,53,127
123498,note_off,138,0,0,,11,,,70,127
123500,note_on,2,0,0,,10,,,69,127
123638,note_off,138,0,0,,10,,,69,127
123640,note_on,2,0,0,,7,,,67,127
123778,note_off,138,0,0,,7,,,67,127
123778,note_off,0,0,0,,5,,,53,127
123780,note_on,2,0,0,,7,,,67,127
123780,note_on,0,0,0,,10,,,57,127
123918,note_off,138,0,0,,7,,,67,127
123920,note_on,2,0,0,,5,,,65,127
124058,note_off,138,0,0,,5,,,65,127
124060,note_on,2,0,0,,3,,,63,127
124198,note_off,138,0,0,,3,,,63,127
124198,note_off,0,0,0,,10,,,57,127
124200,note_on,2,0,0,,2,,,62,127
124200,note_on,0,0,0,,11,,,58,127
124338,note_off,138,0,0,,2,,,62,127
124341,note_on,3,0,0,,3,,,63,127
124479,note_off,138,0,0,,3,,,63,127
124481,note_on,2,0,0,,5,,,65,127
124618,note_off,137,0,0,,11,,,58,127
124619,note_off,1,0,0,,5,,,65,127
124621,note_on,2,0,0,,7,,,67,127
124621,note_on,0,0,0,,10,,,57,127
124759,note_off,138,0,0,,7,,,67,127
124761,note_on,2,0,0,,5,,,65,127
124899,note_off,138,0,0,,5,,,65,127
124901,note_on,2,0,0,,3,,,63,127
125039,note_off,138,0,0,,3,,,63,127
125039,note_off,0,0,0,,10,,,57,127
125041,note_on,2,0,0,,3,,,63,127
125041,note_on,0,0,0,,11,,,58,127
125249,note_off,208,0,0,,3,,,63,127
125252,note_on,3,0,0,,2,,,62,127
125460,note_off,208,0,0,,2,,,62,127
125460,note_off,0,0,0,,11,,,58,127
125466,note_on,6,0,0,,10,,,57,127
125466,note_on,0,0,0,,0,,,60,127
125466,note_on,0,0,0,,5,,,65,127
125572,note_off,106,0,0,,5,,,65,127
125575,note_on,3,0,0,,10,,,69,127
125681,note_off,106,0,0,,10,,,69,127
125681,note_off,0,0,0,,10,,,57,127
125684,note_on,3,0,0,,5,,,53,127
125684,note_on,0,0,0,,0,,,72,127
125790,note_off,106,0,0,,0,,,72,127
125793,note_on,3,0,0,,3,,,75,127
125897,note_off,104,0,0,,0,,,60,127
125899,note_off,2,0,0,,3,,,75,127
125899,note_off,0,0,0,,5,,,53,127
125904,note_on,5,0,0,,11,,,58,127
125904,note_on,0,0,0,,3,,,75,127
126120,note_off,216,0,0,,3,,,75,127
126122,note_on,2,0,0,,2,,,74,127
126338,note_off,216,0,0,,2,,,74,127
126339,note_off,1,0,0,,11,,,58,127
126341,note_on,2,0,0,,0,,,60,127
126341,note_on,0,0,0,,10,,,57,127
126341,note_on,0,0,0,,5,,,65,127
126447,note_off,106,0,0,,5,,,65,127
126450,note_on,3,0,0,,10,,,69,127
126556,note_off,106,0,0,,10,,,69,127
126556,note_off,0,0,0,,10,,,57,127
126561,note_on,5,0,0,,5,,,53,127
126561,note_on,0,0,0,,0,,,72,127
126667,note_off,106,0,0,,0,,,72,127
126670,note_on,3,0,0,,3,,,75,127
126773,note_off,103,0,0,,0,,,60,127
126776,note_off,3,0,0,,3,,,75,127
126776,note_off,0,0,0,,5,,,53,127
126778,note_on,2,0,0,,11,,,58,127
126778,note_on,0,0,0,,3,,,75,127
126994,note_off,216,0,0,,3,,,75,127
126997,note_on,3,0,0,,2,,,74,127
127213,note_off,216,0,0,,2,,,74,127
127213,note_off,0,0,0,,11,,,58,127
127218,note_on,5,0,0,,11,,,58,127
127218,note_on,0,0,0,,2,,,50,127
127218,note_on,0,0,0,,11,,,70,127
127324,note_off,106,0,0,,11,,,70,127
127327,note_on,3,0,0,,2,,,74,127
127433,note_off,106,0,0,,2,,,74,127
127433,note_off,0,0,0,,2,,,50,127
127433,note_off,0,0,0,,11,,,58,127
127435,note_on,2,0,0,,11,,,58,127
127435,note_on,0,0,0,,2,,,50,127
127435,note_on,0,0,0,,5,,,77,127
127541,note_off,106,0,0,,5,,,77,127
127544,note_on,3,0,0,,8,,,80,127
127650,note_off,106,0,0,,8,,,80,127
127650,note_off,0,0,0,,2,,,50,127
127650,note_off,0,0,0,,11,,,58,127
127653,note_on,3,0,0,,11,,,58,127
127653,note_on,0,0,0,,3,,,51,127
127653,note_on,0,0,0,,8,,,80,127
127869,note_off,216,0,0,,8,,,80,127
127869,note_off,0,0,0,,3,,,51,127
127869,note_off,0,0,0,,11,,,58,127
127874,note_on,5,0,0,,11,,,58,127
127874,note_on,0,0,0,,3,,,51,127
127874,note_on,0,0,0,,7,,,79,127
128090,note_off,216,0,0,,7,,,79,127
128090,note_off,0,0,0,,3,,,51,127
128090,note_off,0,0,0,,11,,,58,127
128093,note_on,3,0,0,,2,,,50,127
128093,note_on,0,0,0,,11,,,58,127
128093,note_on,0,0,0,,11,,,70,127
128199,note_off,106,0,0,,11,,,70,127
128201,note_on,2,0,0,,2,,,74,127
128307,note_off,106,0,0,,2,,,74,127
128308,note_off,1,0,0,,11,,,58,127
128308,note_off,0,0,0,,2,,,50,127
128310,note_on,2,0,0,,11,,,58,127
128310,note_on,0,0,0,,2,,,50,127
128310,note_on,0,0,0,,5,,,77,127
128416,note_off,106,0,0,,5,,,77,127
128419,note_on,3,0,0,,8,,,80,127
128525,note_off,106,0,0,,8,,,80,127
128525,note_off,0,0,0,,2,,,50,127
128525,note_off,0,0,0,,11,,,58,127
128528,note_on,3,0,0,,11,,,58,127
128528,note_on,0,0,0,,3,,,51,127
128528,note_on,0,0,0,,8,,,80,127
128634,note_off,106,0,0,,8,,,80,127
128639,note_on,5,0,0,,7,,,79,127
128744,note_off,105,0,0,,3,,,51,127
128745,note_off,1,0,0,,7,,,79,127
128748,note_on,3,0,0,,5,,,53,127
128748,note_on,0,0,0,,7,,,79,127
128854,note_off,106,0,0,,7,,,79,127
128855,note_off,1,0,0,,11,,,58,127
128856,note_on,1,0,0,,5,,,77,127
128962,note_off,106,0,0,,5,,,77,127
128963,note_off,1,0,0,,5,,,53,127
128965,note_on,2,0,0,,7,,,55,127
128965,note_on,0,0,0,,5,,,77,127
129071,note_off,106,0,0,,5,,,77,127
129074,note_on,3,0,0,,3,,,75,127
129180,note_off,106,0,0,,3,,,75,127
129180,note_off,0,0,0,,7,,,55,127
129183,note_on,3,0,0,,3,,,51,127
129183,note_on,0,0,0,,3,,,75,127
129289,note_off,106,0,0,,3,,,75,127
129294,note_on,5,0,0,,2,,,74,127
129399,note_off,105,0,0,,3,,,51,127
129400,note_off,1,0,0,,2,,,74,127
129403,note_on,3,0,0,,8,,,56,127
129403,note_on,0,0,0,,2,,,74,127
129509,note_off,106,0,0,,2,,,74,127
129511,note_on,2,0,0,,0,,,72,127
129617,note_off,106,0,0,,0,,,72,127
129618,note_off,1,0,0,,8,,,56,127
129620,note_on,2,0,0,,11,,,58,127
129620,note_on,0,0,0,,0,,,72,127
129726,note_off,106,0,0,,0,,,72,127
129729,note_on,3,0,0,,11,,,70,127
129835,note_off,106,0,0,,11,,,70,127
129835,note_off,0,0,0,,11,,,58,127
129838,note_on,3,0,0,,0,,,60,127
129838,note_on,0,0,0,,11,,,70,127
129944,note_off,106,0,0,,11,,,70,127
129949,note_on,5,0,0,,8,,,68,127
130054,note_off,105,0,0,,0,,,60,127
130055,note_off,1,0,0,,8,,,68,127
130058,note_on,3,0,0,,2,,,62,127
130058,note_on,0,0,0,,8,,,68,127
130164,note_off,106,0,0,,8,,,68,127
130166,note_on,2,0,0,,7,,,67,127
130272,note_off,106,0,0,,7,,,67,127
130273,note_off,1,0,0,,2,,,62,127
130275,note_on,2,0,0,,3,,,63,127
130275,note_on,0,0,0,,5,,,65,127
130491,note_off,216,0,0,,5,,,65,127
130494,note_on,3,0,0,,7,,,67,127
130710,note_off,216,0,0,,7,,,67,127
130710,note_off,0,0,0,,3,,,63,127
130715,note_on,5,0,0,,7,,,55,127
130715,note_on,0,0,0,,11,,,58,127
130715,note_on,0,0,0,,3,,,63,127
130821,note_off,106,0,0,,3,,,63,127
130824,note_on,3,0,0,,7,,,67,127
130930,note_off,106,0,0,,7,,,67,127
130930,note_off,0,0,0,,7,,,55,127
130932,note_on,2,0,0,,3,,,51,127
130932,note_on,0,0,0,,11,,,70,127
131038,note_off,106,0,0,,11,,,70,127
131041,note_on,3,0,0,,1,,,73,127
131146,note_off,105,0,0,,11,,,58,127
131147,note_off,1,0,0,,1,,,73,127
131147,note_off,0,0,0,,3,,,51,127
131150,note_on,3,0,0,,8,,,56,127
131150,note_on,0,0,0,,1,,,73,127
131366,note_off,216,0,0,,1,,,73,127
131371,note_on,5,0,0,,0,,,72,127
131586,note_off,215,0,0,,8,,,56,127
131587,note_off,1,0,0,,0,,,72,127
131589,note_on,2,0,0,,7,,,55,127
131589,note_on,0,0,0,,11,,,58,127
131589,note_on,0,0,0,,3,,,63,127
131695,note_off,106,0,0,,3,,,63,127
131698,note_on,3,0,0,,7,,,67,127
131804,note_off,106,0,0,,7,,,67,127
131804,note_off,0,0,0,,7,,,55,127
131807,note_on,3,0,0,,3,,,51,127
131807,note_on,0,0,0,,11,,,70,127
131913,note_off,106,0,0,,11,,,70,127
131916,note_on,3,0,0,,1,,,73,127
132020,note_off,104,0,0,,11,,,58,127
132022,note_off,2,0,0,,1,,,73,127
132022,note_off,0,0,0,,3,,,51,127
132027,note_on,5,0,0,,8,,,56,127
132027,note_on,0,0,0,,1,,,73,127
132243,note_off,216,0,0,,1,,,73,127
132245,note_on,2,0,0,,0,,,72,127
132461,note_off,216,0,0,,0,,,72,127
132464,note_on,3,0,0,,3,,,75,127
132570,note_off,106,0,0,,3,,,75,127
132573,note_on,3,0,0,,11,,,70,127
132679,note_off,106,0,0,,11,,,70,127
132680,note_off,1,0,0,,8,,,56,127
132683,note_on,3,0,0,,6,,,54,127
132683,note_on,0,0,0,,11,,,58,127
132683,note_on,0,0,0,,11,,,70,127
132789,note_off,106,0,0,,11,,,70,127
132792,note_on,3,0,0,,10,,,69,127
132898,note_off,106,0,0,,10,,,69,127
132898,note_off,0,0,0,,11,,,58,127
132898,note_off,0,0,0,,6,,,54,127
132900,note_on,2,0,0,,5,,,53,127
132900,note_on,0,0,0,,10,,,57,127
132900,note_on,0,0,0,,10,,,69,127
133006,note_off,106,0,0,,10,,,69,127
133009,note_on,3,0,0,,11,,,70,127
133115,note_off,106,0,0,,11,,,70,127
133115,note_off,0,0,0,,10,,,57,127
133115,note_off,0,0,0,,5,,,53,127
133118,note_on,3,0,0,,7,,,55,127
133118,note_on,0,0,0,,11,,,58,127
133118,note_on,0,0,0,,11,,,70,127
133224,note_off,106,0,0,,11,,,70,127
133227,note_on,3,0,0,,0,,,72,127
133333,note_off,106,0,0,,0,,,72,127
133333,note_off,0,0,0,,11,,,58,127
133333,note_off,0,0,0,,7,,,55,127
133338,note_on,5,0,0,,0,,,60,127
133338,note_on,0,0,0,,10,,,57,127
133338,note_on,0,0,0,,0,,,72,127
133444,note_off,106,0,0,,0,,,72,127
133447,note_on,3,0,0,,1,,,73,127
133553,note_off,106,0,0,,1,,,73,127
133553,note_off,0,0,0,,10,,,57,127
133553,note_off,0,0,0,,0,,,60,127
133556,note_on,3,0,0,,10,,,57,127
133556,note_on,0,0,0,,5,,,53,127
133556,note_on,0,0,0,,1,,,73,127
133662,note_off,106,0,0,,1,,,73,127
133664,note_on,2,0,0,,3,,,75,127
133770,note_off,106,0,0,,3,,,75,127
133771,note_off,1,0,0,,5,,,53,127
133771,note_off,0,0,0,,10,,,57,127
133773,note_on,2,0,0,,11,,,58,127
133773,note_on,0,0,0,,3,,,75,127
133879,note_off,106,0,0,,3,,,75,127
133882,note_on,3,0,0,,1,,,73,127
133988,note_off,106,0,0,,1,,,73,127
133991,note_on,3,0,0,,0,,,72,127
134097,note_off,106,0,0,,0,,,72,127
134102,note_on,5,0,0,,11,,,70,127
134207,note_off,105,0,0,,11,,,58,127
134208,note_off,1,0,0,,11,,,70,127
134211,note_on,3,0,0,,0,,,60,127
134211,note_on,0,0,0,,10,,,57,127
134211,note_on,0,0,0,,5,,,65,127
134317,note_off,106,0,0,,5,,,65,127
134319,note_on,2,0,0,,10,,,69,127
134425,note_off,106,0,0,,10,,,69,127
134426,note_off,1,0,0,,10,,,57,127
134428,note_on,2,0,0,,5,,,53,127
134428,note_on,0,0,0,,0,,,72,127
134534,note_off,106,0,0,,0,,,72,127
134537,note_on,3,0,0,,3,,,75,127
134642,note_off,105,0,0,,0,,,60,127
134643,note_off,1,0,0,,3,,,75,127
134643,note_off,0,0,0,,5,,,53,127
134646,note_on,3,0,0,,11,,,58,127
134646,note_on,0,0,0,,3,,,75,127
134862,note_off,216,0,0,,3,,,75,127
134867,note_on,5,0,0,,1,,,73,127
135082,note_off,215,0,0,,11,,,58,127
135083,note_off,1,0,0,,1,,,73,127
135085,note_on,2,0,0,,0,,,60,127
135085,note_on,0,0,0,,10,,,57,127
135085,note_on,0,0,0,,5,,,65,127
135191,note_off,106,0,0,,5,,,65,127
135194,note_on,3,0,0,,10,,,69,127
135300,note_off,106,0,0,,10,,,69,127
135300,note_off,0,0,0,,10,,,57,127
135303,note_on,3,0,0,,5,,,53,127
135303,note_on,0,0,0,,0,,,72,127
135409,note_off,106,0,0,,0,,,72,127
135414,note_on,5,0,0,,3,,,75,127
135517,note_off,103,0,0,,0,,,60,127
135519,note_off,2,0,0,,5,,,53,127
135520,note_off,1,0,0,,3,,,75,127
135523,note_on,3,0,0,,11,,,58,127
135523,note_on,0,0,0,,3,,,75,127
135739,note_off,216,0,0,,3,,,75,127
135741,note_on,2,0,0,,1,,,73,127
135957,note_off,216,0,0,,1,,,73,127
135960,note_on,3,0,0,,5,,,77,127
136066,note_off,106,0,0,,5,,,77,127
136069,note_off,3,0,0,,11,,,58,127
136070,note_on,1,0,0,,0,,,72,127
136176,note_off,106,0,0,,0,,,72,127
136179,note_on,3,0,0,,0,,,60,127
136179,note_on,0,0,0,,8,,,56,127
136179,note_on,0,0,0,,0,,,72,127
136285,note_off,106,0,0,,0,,,72,127
136288,note_on,3,0,0,,12,,,71,127
136394,note_off,106,0,0,,12,,,71,127
136394,note_off,0,0,0,,8,,,56,127
136394,note_off,0,0,0,,0,,,60,127
136396,note_on,2,0,0,,7,,,55,127
136396,note_on,0,0,0,,12,,,59,127
136396,note_on,0,0,0,,12,,,71,127
136502,note_off,106,0,0,,12,,,71,127
136505,note_on,3,0,0,,0,,,72,127
136611,note_off,106,0,0,,0,,,72,127
136611,note_off,0,0,0,,12,,,59,127
136611,note_off,0,0,0,,7,,,55,127
136614,note_on,3,0,0,,10,,,57,127
136614,note_on,0,0,0,,0,,,60,127
136614,note_on,0,0,0,,0,,,72,127
136720,note_off,106,0,0,,0,,,72,127
136723,note_on,3,0,0,,2,,,74,127
136829,note_off,106,0,0,,2,,,74,127
136829,note_off,0,0,0,,0,,,60,127
136829,note_off,0,0,0,,10,,,57,127
136834,note_on,5,0,0,,2,,,62,127
136834,note_on,0,0,0,,12,,,59,127
136834,note_on,0,0,0,,2,,,74,127
136940,note_off,106,0,0,,2,,,74,127
136943,note_on,3,0,0,,2,,,74,127
137049,note_off,106,0,0,,2,,,74,127
137049,note_off,0,0,0,,12,,,59,127
137049,note_off,0,0,0,,2,,,62,127
137051,note_on,2,0,0,,7,,,55,127
137051,note_on,0,0,0,,12,,,59,127
137051,note_on,0,0,0,,3,,,75,127
137157,note_off,106,0,0,,3,,,75,127
137160,note_on,3,0,0,,5,,,77,127
137266,note_off,106,0,0,,5,,,77,127
137266,note_off,0,0,0,,12,,,59,127
137266,note_off,0,0,0,,7,,,55,127
137269,note_on,3,0,0,,0,,,60,127
137269,note_on,0,0,0,,5,,,77,127
137375,note_off,106,0,0,,5,,,77,127
137378,note_on,3,0,0,,3,,,75,127
137484,note_off,106,0,0,,3,,,75,127
137489,note_on,5,0,0,,2,,,74,127
137595,note_off,106,0,0,,2,,,74,127
137598,note_on,3,0,0,,0,,,72,127
137703,note_off,105,0,0,,0,,,60,127
137704,note_off,1,0,0,,0,,,72,127
137706,note_on,2,0,0,,12,,,59,127
137706,note_on,0,0,0,,2,,,62,127
137706,note_on,0,0,0,,7,,,67,127
137812,note_off,106,0,0,,7,,,67,127
137815,note_on,3,0,0,,12,,,71,127
137921,note_off,106,0,0,,12,,,71,127
137921,note_off,0,0,0,,12,,,59,127
137924,note_on,3,0,0,,7,,,55,127
137924,note_on,0,0,0,,2,,,74,127
138030,note_off,106,0,0,,2,,,74,127
138033,note_on,3,0,0,,5,,,77,127
138137,note_off,104,0,0,,2,,,62,127
138139,note_off,2,0,0,,5,,,77,127
138139,note_off,0,0,0,,7,,,55,127
138144,note_on,5,0,0,,0,,,60,127
138144,note_on,0,0,0,,5,,,77,127
138360,note_off,216,0,0,,5,,,77,127
138362,note_on,2,0,0,,3,,,75,127
138578,note_off,216,0,0,,3,,,75,127
138579,note_off,1,0,0,,0,,,60,127
138581,note_on,2,0,0,,2,,,62,127
138581,note_on,0,0,0,,12,,,59,127
138581,note_on,0,0,0,,7,,,67,127
138687,note_off,106,0,0,,7,,,67,127
138690,note_on,3,0,0,,12,,,71,127
138796,note_off,106,0,0,,12,,,71,127
138796,note_off,0,0,0,,12,,,59,127
138801,note_on,5,0,0,,7,,,55,127
138801,note_on,0,0,0,,2,,,74,127
138907,note_off,106,0,0,,2,,,74,127
138910,note_on,3,0,0,,5,,,77,127
139013,note_off,103,0,0,,2,,,62,127
139016,note_off,3,0,0,,5,,,77,127
139016,note_off,0,0,0,,7,,,55,127
139019,note_on,3,0,0,,0,,,60,127
139019,note_on,0,0,0,,5,,,77,127
139235,note_off,216,0,0,,5,,,77,127
139237,note_on,2,0,0,,4,,,76,127
139453,note_off,216,0,0,,4,,,76,127
139454,note_off,1,0,0,,0,,,60,127
139456,note_on,2,0,0,,4,,,52,127
139456,note_on,0,0,0,,7,,,79,127
139562,note_off,106,0,0,,7,,,79,127
139567,note_on,5,0,0,,4,,,76,127
139672,note_off,105,0,0,,4,,,52,127
139673,note_off,1,0,0,,4,,,76,127
139676,note_on,3,0,0,,0,,,60,127
139676,note_on,0,0,0,,0,,,72,127
139782,note_off,106,0,0,,0,,,72,127
139784,note_on,2,0,0,,11,,,70,127
139890,note_off,106,0,0,,11,,,70,127
139891,note_off,1,0,0,,0,,,60,127
139893,note_on,2,0,0,,5,,,53,127
139893,note_on,0,0,0,,11,,,70,127
140109,note_off,216,0,0,,11,,,70,127
140109,note_off,0,0,0,,5,,,53,127
140112,note_on,3,0,0,,0,,,60,127
140112,note_on,0,0,0,,8,,,68,127
140328,note_off,216,0,0,,8,,,68,127
140328,note_off,0,0,0,,0,,,60,127
140333,note_on,5,0,0,,11,,,46,127
140333,note_on,0,0,0,,1,,,73,127
140439,note_off,106,0,0,,1,,,73,127
140441,note_on,2,0,0,,11,,,70,127
140547,note_off,106,0,0,,11,,,70,127
140548,note_off,1,0,0,,11,,,46,127
140550,note_on,2,0,0,,11,,,58,127
140550,note_on,0,0,0,,7,,,67,127
140656,note_off,106,0,0,,7,,,67,127
140659,note_on,3,0,0,,5,,,65,127
140765,note_off,106,0,0,,5,,,65,127
140765,note_off,0,0,0,,11,,,58,127
140768,note_on,3,0,0,,0,,,48,127
140768,note_on,0,0,0,,5,,,65,127
140984,note_off,216,0,0,,5,,,65,127
140984,note_off,0,0,0,,0,,,48,127
140989,note_on,5,0,0,,0,,,60,127
140989,note_on,0,0,0,,4,,,64,127
141205,note_off,216,0,0,,4,,,64,127
141205,note_off,0,0,0,,0,,,60,127
141207,note_on,2,0,0,,4,,,52,127
141207,note_on,0,0,0,,7,,,79,127
141313,note_off,106,0,0,,7,,,79,127
141316,note_on,3,0,0,,4,,,76,127
141422,note_off,106,0,0,,4,,,76,127
141422,note_off,0,0,0,,4,,,52,127
141425,note_on,3,0,0,,0,,,60,127
141425,note_on,0,0,0,,0,,,72,127
141531,note_off,106,0,0,,0,,,72,127
141536,note_on,5,0,0,,11,,,70,127
141641,note_off,105,0,0,,0,,,60,127
141642,note_off,1,0,0,,11,,,70,127
141645,note_on,3,0,0,,5,,,53,127
141645,note_on,0,0,0,,11,,,70,127
141861,note_off,216,0,0,,11,,,70,127
141861,note_off,0,0,0,,5,,,53,127
141863,note_on,2,0,0,,0,,,60,127
141863,note_on,0,0,0,,8,,,68,127
142079,note_off,216,0,0,,8,,,68,127
142079,note_off,0,0,0,,0,,,60,127
142082,note_on,3,0,0,,11,,,46,127
142082,note_on,0,0,0,,1,,,73,127
142188,note_off,106,0,0,,1,,,73,127
142191,note_on,3,0,0,,11,,,70,127
142297,note_off,106,0,0,,11,,,70,127
142297,note_off,0,0,0,,11,,,46,127
142302,note_on,5,0,0,,11,,,58,127
142302,note_on,0,0,0,,7,,,67,127
142408,note_off,106,0,0,,7,,,67,127
142411,note_on,3,0,0,,5,,,65,127
142517,note_off,106,0,0,,5,,,65,127
142517,note_off,0,0,0,,11,,,58,127
142519,note_on,2,0,0,,0,,,48,127
142519,note_on,0,0,0,,4,,,64,127
142798,note_off,279,0,0,,4,,,64,127
142802,note_on,4,0,0,,0,,,84,127
142939,note_off,137,0,0,,0,,,84,127
142942,note_on,3,0,0,,11,,,82,127
142951,note_off,9,0,0,,0,,,48,127
143079,note_off,128,0,0,,11,,,82,127
143082,note_on,3,0,0,,8,,,80,127
143219,note_off,137,0,0,,8,,,80,127
143222,note_on,3,0,0,,7,,,79,127
143359,note_off,137,0,0,,7,,,79,127
143362,note_on,3,0,0,,8,,,80,127
143499,note_off,137,0,0,,8,,,80,127
143502,note_on,3,0,0,,11,,,82,127
143639,note_off,137,0,0,,11,,,82,127
143644,note_on,5,0,0,,0,,,84,127
143781,note_off,137,0,0,,0,,,84,127
143784,note_on,3,0,0,,11,,,82,127
143921,note_off,137,0,0,,11,,,82,127
143924,note_on,3,0,0,,8,,,80,127
144061,note_off,137,0,0,,8,,,80,127
144064,note_on,3,0,0,,7,,,79,127
144201,note_off,137,0,0,,7,,,79,127
144206,note_on,5,0,0,,5,,,77,127
144343,note_off,137,0,0,,5,,,77,127
144345,note_on,2,0,0,,7,,,79,127
144482,note_off,137,0,0,,7,,,79,127
144485,note_on,3,0,0,,8,,,80,127
144622,note_off,137,0,0,,8,,,80,127
144625,note_on,3,0,0,,7,,,79,127
144762,note_off,137,0,0,,7,,,79,127
144765,note_on,3,0,0,,5,,,77,127
144902,note_off,137,0,0,,5,,,77,127
144905,note_on,3,0,0,,3,,,75,127
145042,note_off,137,0,0,,3,,,75,127
145045,note_on,3,0,0,,1,,,73,127
145182,note_off,137,0,0,,1,,,73,127
145185,note_on,3,0,0,,3,,,75,127
145322,note_off,137,0,0,,3,,,75,127
145325,note_on,3,0,0,,5,,,77,127
145462,note_off,137,0,0,,5,,,77,127
145467,note_on,5,0,0,,1,,,73,127
145604,note_off,137,0,0,,1,,,73,127
145607,note_on,3,0,0,,0,,,72,127
145744,note_off,137,0,0,,0,,,72,127
145747,note_on,3,0,0,,12,,,71,127
145884,note_off,137,0,0,,12,,,71,127
145887,note_on,3,0,0,,0,,,72,127
146160,note_off,273,0,0,,0,,,72,127
146168,note_on,8,0,0,,0,,,72,127
146305,note_off,137,0,0,,0,,,72,127
146308,note_on,3,0,0,,4,,,76,127
146308,note_on,0,0,0,,11,,,70,127
146445,note_off,137,0,0,,11,,,70,127
146448,note_on,3,0,0,,8,,,68,127
146585,note_off,137,0,0,,8,,,68,127
146588,note_on,3,0,0,,7,,,67,127
146725,note_off,137,0,0,,7,,,67,127
146725,note_off,0,0,0,,4,,,76,127
146728,note_on,3,0,0,,5,,,77,127
146728,note_on,0,0,0,,8,,,68,127
146865,note_off,137,0,0,,8,,,68,127
146868,note_on,3,0,0,,11,,,70,127
147005,note_off,137,0,0,,11,,,70,127
147008,note_on,3,0,0,,0,,,72,127
147145,note_off,137,0,0,,0,,,72,127
147148,note_on,3,0,0,,8,,,68,127
147285,note_off,137,0,0,,8,,,68,127
147290,note_on,5,0,0,,7,,,67,127
147427,note_off,137,0,0,,7,,,67,127
147430,note_on,3,0,0,,5,,,65,127
147566,note_off,136,0,0,,5,,,77,127
147567,note_off,1,0,0,,5,,,65,127
147570,note_on,3,0,0,,7,,,79,127
147570,note_on,0,0,0,,4,,,64,127
147707,note_off,137,0,0,,4,,,64,127
147707,note_off,0,0,0,,7,,,79,127
147710,note_on,3,0,0,,8,,,80,127
147710,note_on,0,0,0,,5,,,65,127
147847,note_off,137,0,0,,5,,,65,127
147847,note_off,0,0,0,,8,,,80,127
147852,note_on,5,0,0,,11,,,82,127
147852,note_on,0,0,0,,7,,,67,127
147989,note_off,137,0,0,,7,,,67,127
147989,note_off,0,0,0,,11,,,82,127
147991,note_on,2,0,0,,8,,,80,127
147991,note_on,0,0,0,,5,,,65,127
148128,note_off,137,0,0,,5,,,65,127
148128,note_off,0,0,0,,8,,,80,127
148131,note_on,3,0,0,,7,,,79,127
148131,note_on,0,0,0,,3,,,63,127
148268,note_off,137,0,0,,3,,,63,127
148268,note_off,0,0,0,,7,,,79,127
148271,note_on,3,0,0,,5,,,77,127
148271,note_on,0,0,0,,1,,,61,127
148408,note_off,137,0,0,,1,,,61,127
148408,note_off,0,0,0,,5,,,77,127
148411,note_on,3,0,0,,0,,,84,127
148411,note_on,0,0,0,,0,,,60,127
148552,note_on,141,0,0,,0,,,48,127
148685,note_off,133,0,0,,0,,,60,127
148690,note_off,5,0,0,,0,,,48,127
148690,note_off,0,0,0,,0,,,84,127
148693,note_on,3,0,0,,4,,,76,127
148693,note_on,0,0,0,,0,,,60,127
148830,note_off,137,0,0,,0,,,60,127
148830,note_off,0,0,0,,4,,,76,127
148833,note_on,3,0,0,,5,,,77,127
148833,note_on,0,0,0,,1,,,61,127
148970,note_off,137,0,0,,1,,,61,127
148970,note_off,0,0,0,,5,,,77,127
148973,note_on,3,0,0,,4,,,76,127
148973,note_on,0,0,0,,0,,,60,127
149110,note_off,137,0,0,,0,,,60,127
149110,note_off,0,0,0,,4,,,76,127
149115,note_on,5,0,0,,5,,,77,127
149115,note_on,0,0,0,,1,,,61,127
149252,note_off,137,0,0,,1,,,61,127
149252,note_off,0,0,0,,5,,,77,127
149255,note_on,3,0,0,,7,,,79,127
149255,note_on,0,0,0,,0,,,60,127
149396,note_on,141,0,0,,0,,,48,127
149529,note_off,133,0,0,,0,,,60,127
149534,note_off,5,0,0,,0,,,48,127
149534,note_off,0,0,0,,7,,,79,127
149537,note_on,3,0,0,,4,,,76,127
149537,note_on,0,0,0,,0,,,60,127
149674,note_off,137,0,0,,0,,,60,127
149674,note_off,0,0,0,,4,,,76,127
149679,note_on,5,0,0,,5,,,77,127
149679,note_on,0,0,0,,1,,,61,127
149816,note_off,137,0,0,,1,,,61,127
149816,note_off,0,0,0,,5,,,77,127
149818,note_on,2,0,0,,4,,,76,127
149818,note_on,0,0,0,,0,,,60,127
149955,note_off,137,0,0,,0,,,60,127
149955,note_off,0,0,0,,4,,,76,127
149958,note_on,3,0,0,,5,,,77,127
149958,note_on,0,0,0,,1,,,61,127
150095,note_off,137,0,0,,1,,,61,127
150095,note_off,0,0,0,,5,,,77,127
150098,note_on,3,0,0,,7,,,79,127
150098,note_on,0,0,0,,0,,,60,127
150239,note_on,141,0,0,,0,,,48,127
150372,note_off,133,0,0,,0,,,60,127
150377,note_off,5,0,0,,0,,,48,127
150377,note_off,0,0,0,,7,,,79,127
150380,note_on,3,0,0,,4,,,76,127
150380,note_on,0,0,0,,0,,,60,127
150517,note_off,137,0,0,,0,,,60,127
150517,note_off,0,0,0,,4,,,76,127
150520,note_on,3,0,0,,5,,,77,127
150520,note_on,0,0,0,,1,,,61,127
150657,note_off,137,0,0,,1,,,61,127
150657,note_off,0,0,0,,5,,,77,127
150660,note_on,3,0,0,,4,,,76,127
150660,note_on,0,0,0,,0,,,60,127
150797,note_off,137,0,0,,0,,,60,127
150797,note_off,0,0,0,,4,,,76,127
150800,note_on,3,0,0,,5,,,77,127
150800,note_on,0,0,0,,1,,,61,127
150937,note_off,137,0,0,,1,,,61,127
150937,note_off,0,0,0,,5,,,77,127
150942,note_on,5,0,0,,5,,,77,127
150942,note_on,0,0,0,,0,,,48,127
151220,note_off,278,0,0,,5,,,77,127
151223,note_on,3,0,0,,7,,,79,127
151360,note_off,137,0,0,,0,,,48,127
151363,note_on,3,0,0,,4,,,64,127
151500,note_off,137,0,0,,7,,,79,127
151505,note_on,5,0,0,,0,,,72,127
151642,note_off,137,0,0,,0,,,72,127
151644,note_on,2,0,0,,7,,,67,127
151781,note_off,137,0,0,,7,,,67,127
151781,note_off,0,0,0,,4,,,64,127
151784,note_on,3,0,0,,8,,,68,127
151784,note_on,0,0,0,,5,,,65,127
151914,note_off,130,0,0,,5,,,65,127
151921,note_off,7,0,0,,8,,,68,127
151924,note_on,3,0,0,,5,,,65,127
152065,note_on,141,0,0,,0,,,72,127
152198,note_off,133,0,0,,5,,,65,127
152203,note_off,5,0,0,,0,,,72,127
152206,note_on,3,0,0,,12,,,71,127
152206,note_on,0,0,0,,2,,,62,127
152343,note_off,137,0,0,,12,,,71,127
152346,note_on,3,0,0,,7,,,67,127
152483,note_off,137,0,0,,7,,,67,127
152486,note_on,3,0,0,,5,,,77,127
152486,note_on,0,0,0,,12,,,71,127
152623,note_off,137,0,0,,12,,,71,127
152623,note_off,0,0,0,,5,,,77,127
152623,note_off,0,0,0,,2,,,62,127
152626,note_on,3,0,0,,12,,,71,127
152626,note_on,0,0,0,,5,,,77,127
152626,note_on,0,0,0,,0,,,60,127
152904,note_off,278,0,0,,5,,,77,127
152904,note_off,0,0,0,,12,,,71,127
152909,note_on,5,0,0,,4,,,76,127
152909,note_on,0,0,0,,0,,,72,127
153045,note_off,136,0,0,,0,,,60,127
153050,note_on,5,0,0,,4,,,64,127
153187,note_off,137,0,0,,0,,,72,127
153187,note_off,0,0,0,,4,,,76,127
153190,note_on,3,0,0,,0,,,72,127
153327,note_off,137,0,0,,0,,,72,127
153332,note_on,5,0,0,,7,,,67,127
153468,note_off,136,0,0,,4,,,64,127
153469,note_off,1,0,0,,7,,,67,127
153471,note_on,2,0,0,,8,,,68,127
153471,note_on,0,0,0,,5,,,65,127
153608,note_off,137,0,0,,5,,,65,127
153608,note_off,0,0,0,,8,,,68,127
153611,note_on,3,0,0,,5,,,65,127
153752,note_on,141,0,0,,0,,,72,127
153885,note_off,133,0,0,,5,,,65,127
153890,note_off,5,0,0,,0,,,72,127
153893,note_on,3,0,0,,12,,,71,127
153893,note_on,0,0,0,,2,,,62,127
154030,note_off,137,0,0,,12,,,71,127
154033,note_on,3,0,0,,7,,,67,127
154170,note_off,137,0,0,,7,,,67,127
154173,note_on,3,0,0,,12,,,71,127
154173,note_on,0,0,0,,5,,,77,127
154310,note_off,137,0,0,,5,,,77,127
154310,note_off,0,0,0,,12,,,71,127
154310,note_off,0,0,0,,2,,,62,127
154313,note_on,3,0,0,,5,,,77,127
154313,note_on,0,0,0,,12,,,71,127
154313,note_on,0,0,0,,0,,,60,127
154591,note_off,278,0,0,,12,,,71,127
154591,note_off,0,0,0,,5,,,77,127
154596,note_on,5,0,0,,0,,,72,127
154596,note_on,0,0,0,,4,,,76,127
154732,note_off,136,0,0,,0,,,60,127
154733,note_off,1,0,0,,4,,,76,127
154733,note_off,0,0,0,,0,,,72,127
154736,note_on,3,0,0,,8,,,68,127
154877,note_on,141,0,0,,5,,,77,127
155014,note_off,137,0,0,,5,,,77,127
155017,note_on,3,0,0,,0,,,72,127
155154,note_off,137,0,0,,0,,,72,127
155154,note_off,0,0,0,,8,,,68,127
155159,note_on,5,0,0,,1,,,73,127
155159,note_on,0,0,0,,11,,,70,127
155296,note_off,137,0,0,,11,,,70,127
155296,note_off,0,0,0,,1,,,73,127
155298,note_on,2,0,0,,11,,,70,127
155439,note_on,141,0,0,,5,,,77,127
155572,note_off,133,0,0,,11,,,70,127
155577,note_off,5,0,0,,5,,,77,127
155580,note_on,3,0,0,,4,,,76,127
155580,note_on,0,0,0,,7,,,67,127
155717,note_off,137,0,0,,4,,,76,127
155720,note_on,3,0,0,,0,,,72,127
155857,note_off,137,0,0,,0,,,72,127
155860,note_on,3,0,0,,4,,,76,127
155860,note_on,0,0,0,,11,,,82,127
155997,note_off,137,0,0,,11,,,82,127
155997,note_off,0,0,0,,4,,,76,127
155997,note_off,0,0,0,,7,,,67,127
156000,note_on,3,0,0,,11,,,82,127
156000,note_on,0,0,0,,4,,,76,127
156000,note_on,0,0,0,,5,,,65,127
156278,note_off,278,0,0,,4,,,76,127
156278,note_off,0,0,0,,11,,,82,127
156281,note_on,3,0,0,,5,,,77,127
156281,note_on,0,0,0,,8,,,80,127
156418,note_off,137,0,0,,5,,,65,127
156423,note_on,5,0,0,,8,,,68,127
156559,note_off,136,0,0,,8,,,80,127
156559,note_off,0,0,0,,5,,,77,127
156564,note_on,5,0,0,,5,,,77,127
156701,note_off,137,0,0,,5,,,77,127
156704,note_on,3,0,0,,0,,,72,127
156841,note_off,137,0,0,,0,,,72,127
156841,note_off,0,0,0,,8,,,68,127
156844,note_on,3,0,0,,1,,,73,127
156844,note_on,0,0,0,,11,,,70,127
156981,note_off,137,0,0,,11,,,70,127
156981,note_off,0,0,0,,1,,,73,127
156986,note_on,5,0,0,,11,,,70,127
157125,note_on,139,0,0,,5,,,77,127
157259,note_off,134,0,0,,11,,,70,127
157262,note_off,3,0,0,,5,,,77,127
157265,note_on,3,0,0,,4,,,76,127
157265,note_on,0,0,0,,7,,,67,127
157402,note_off,137,0,0,,4,,,76,127
157405,note_on,3,0,0,,0,,,72,127
157542,note_off,137,0,0,,0,,,72,127
157545,note_on,3,0,0,,11,,,82,127
157682,note_off,137,0,0,,11,,,82,127
157682,note_off,0,0,0,,7,,,67,127
157685,note_on,3,0,0,,11,,,82,127
157685,note_on,0,0,0,,5,,,65,127
157822,note_off,137,0,0,,11,,,82,127
157825,note_on,3,0,0,,8,,,80,127
157962,note_off,137,0,0,,8,,,80,127
157965,note_on,3,0,0,,7,,,79,127
158102,note_off,137,0,0,,7,,,79,127
158102,note_off,0,0,0,,5,,,65,127
158105,note_on,3,0,0,,7,,,79,127
158105,note_on,0,0,0,,5,,,65,127
158242,note_off,137,0,0,,7,,,79,127
158247,note_on,5,0,0,,5,,,77,127
158384,note_off,137,0,0,,5,,,77,127
158387,note_on,3,0,0,,3,,,75,127
158523,note_off,136,0,0,,5,,,65,127
158524,note_off,1,0,0,,3,,,75,127
158527,note_on,3,0,0,,3,,,75,127
158527,note_on,0,0,0,,11,,,58,127
158664,note_off,137,0,0,,3,,,75,127
158667,note_on,3,0,0,,1,,,73,127
158804,note_off,137,0,0,,1,,,73,127
158809,note_on,5,0,0,,0,,,72,127
158945,note_off,136,0,0,,11,,,58,127
158946,note_off,1,0,0,,0,,,72,127
158948,note_on,2,0,0,,11,,,70,127
158948,note_on,0,0,0,,0,,,60,127
159085,note_off,137,0,0,,11,,,70,127
159088,note_on,3,0,0,,8,,,68,127
159225,note_off,137,0,0,,8,,,68,127
159228,note_on,3,0,0,,7,,,67,127
159365,note_off,137,0,0,,7,,,67,127
159365,note_off,0,0,0,,0,,,60,127
159368,note_on,3,0,0,,5,,,65,127
159368,note_on,0,0,0,,5,,,53,127
159646,note_off,278,0,0,,5,,,65,127
159649,note_on,3,0,0,,0,,,72,127
159786,note_off,137,0,0,,5,,,53,127
159789,note_on,3,0,0,,5,,,65,127
159789,note_on,0,0,0,,8,,,68,127
159926,note_off,137,0,0,,0,,,72,127
159929,note_on,3,0,0,,1,,,73,127
160066,note_off,137,0,0,,1,,,73,127
160071,note_on,5,0,0,,11,,,70,127
160207,note_off,136,0,0,,8,,,68,127
160207,note_off,0,0,0,,5,,,65,127
160208,note_off,1,0,0,,11,,,70,127
160211,note_on,3,0,0,,0,,,72,127
160211,note_on,0,0,0,,7,,,67,127
160211,note_on,0,0,0,,4,,,64,127
160462,note_off,251,0,0,,0,,,72,127
160492,note_on,30,0,0,,7,,,79,127
160629,note_off,137,0,0,,4,,,64,127
160629,note_off,0,0,0,,7,,,67,127
160634,note_on,5,0,0,,1,,,61,127
160634,note_on,0,0,0,,7,,,67,127
160634,note_on,0,0,0,,5,,,65,127
160770,note_off,136,0,0,,7,,,79,127
160773,note_on,3,0,0,,8,,,80,127
160910,note_off,137,0,0,,8,,,80,127
160913,note_on,3,0,0,,5,,,77,127
161050,note_off,137,0,0,,5,,,77,127
161051,note_off,1,0,0,,5,,,65,127
161051,note_off,0,0,0,,7,,,67,127
161051,note_off,0,0,0,,1,,,61,127
161053,note_on,2,0,0,,7,,,79,127
161053,note_on,0,0,0,,7,,,67,127
161053,note_on,0,0,0,,0,,,60,127
161053,note_on,0,0,0,,4,,,64,127
161304,note_off,251,0,0,,7,,,79,127
161334,note_on,30,0,0,,0,,,72,127
161471,note_off,137,0,0,,4,,,64,127
161471,note_off,0,0,0,,0,,,60,127
161471,note_off,0,0,0,,7,,,67,127
161474,note_on,3,0,0,,5,,,65,127
161474,note_on,0,0,0,,8,,,68,127
161611,note_off,137,0,0,,0,,,72,127
161614,note_on,3,0,0,,1,,,73,127
161751,note_off,137,0,0,,1,,,73,127
161754,note_on,3,0,0,,11,,,70,127
161891,note_off,137,0,0,,11,,,70,127
161891,note_off,0,0,0,,8,,,68,127
161891,note_off,0,0,0,,5,,,65,127
161896,note_on,5,0,0,,0,,,72,127
161896,note_on,0,0,0,,7,,,67,127
161896,note_on,0,0,0,,4,,,64,127
162136,note_off,240,0,0,,0,,,72,127
162177,note_on,41,0,0,,7,,,79,127
162314,note_off,137,0,0,,4,,,64,127
162314,note_off,0,0,0,,7,,,67,127
162317,note_on,3,0,0,,7,,,67,127
162317,note_on,0,0,0,,1,,,61,127
162317,note_on,0,0,0,,5,,,65,127
162454,note_off,137,0,0,,7,,,79,127
162459,note_on,5,0,0,,8,,,80,127
162596,note_off,137,0,0,,8,,,80,127
162598,note_on,2,0,0,,5,,,77,127
162735,note_off,137,0,0,,5,,,77,127
162735,note_off,0,0,0,,5,,,65,127
162735,note_off,0,0,0,,1,,,61,127
162735,note_off,0,0,0,,7,,,67,127
162738,note_on,3,0,0,,7,,,79,127
162738,note_on,0,0,0,,7,,,67,127
162738,note_on,0,0,0,,0,,,60,127
162738,note_on,0,0,0,,4,,,64,127
162978,note_off,240,0,0,,7,,,79,127
163019,note_on,41,0,0,,1,,,85,127
163156,note_off,137,0,0,,4,,,64,127
163156,note_off,0,0,0,,0,,,60,127
163156,note_off,0,0,0,,7,,,67,127
163159,note_on,3,0,0,,7,,,67,127
163159,note_on,0,0,0,,11,,,58,127
163159,note_on,0,0,0,,4,,,64,127
163296,note_off,137,0,0,,1,,,85,127
163299,note_on,3,0,0,,11,,,82,127
163436,note_off,137,0,0,,11,,,82,127
163439,note_on,3,0,0,,7,,,79,127
163576,note_off,137,0,0,,7,,,79,127
163576,note_off,0,0,0,,4,,,64,127
163576,note_off,0,0,0,,11,,,58,127
163576,note_off,0,0,0,,7,,,67,127
163579,note_on,3,0,0,,0,,,84,127
163579,note_on,0,0,0,,5,,,65,127
163579,note_on,0,0,0,,8,,,56,127
163716,note_off,137,0,0,,0,,,84,127
163721,note_on,5,0,0,,8,,,80,127
163857,note_off,136,0,0,,8,,,56,127
163857,note_off,0,0,0,,5,,,65,127
163858,note_off,1,0,0,,8,,,80,127
163861,note_on,3,0,0,,5,,,77,127
163861,note_on,0,0,0,,7,,,67,127
163861,note_on,0,0,0,,11,,,58,127
163998,note_off,137,0,0,,11,,,58,127
163998,note_off,0,0,0,,7,,,67,127
164001,note_on,3,0,0,,0,,,60,127
164001,note_on,0,0,0,,8,,,68,127
164138,note_off,137,0,0,,5,,,77,127
164141,note_on,3,0,0,,7,,,79,127
164278,note_off,137,0,0,,7,,,79,127
164278,note_off,0,0,0,,8,,,68,127
164283,note_on,5,0,0,,4,,,76,127
164283,note_on,0,0,0,,7,,,67,127
164417,note_off,134,0,0,,0,,,60,127
164420,note_off,3,0,0,,7,,,67,127
164420,note_off,0,0,0,,4,,,76,127
164422,note_on,2,0,0,,5,,,77,127
164422,note_on,0,0,0,,5,,,65,127
164422,note_on,0,0,0,,5,,,53,127
164700,note_off,278,0,0,,5,,,77,127
164703,note_on,3,0,0,,0,,,72,127
164840,note_off,137,0,0,,5,,,53,127
164840,note_off,0,0,0,,5,,,65,127
164843,note_on,3,0,0,,5,,,65,127
164843,note_on,0,0,0,,8,,,68,127
164980,note_off,137,0,0,,0,,,72,127
164983,note_on,3,0,0,,1,,,73,127
165120,note_off,137,0,0,,1,,,73,127
165123,note_on,3,0,0,,11,,,70,127
165260,note_off,137,0,0,,11,,,70,127
165260,note_off,0,0,0,,8,,,68,127
165260,note_off,0,0,0,,5,,,65,127
165263,note_on,3,0,0,,0,,,72,127
165263,note_on,0,0,0,,4,,,64,127
165263,note_on,0,0,0,,7,,,67,127
165503,note_off,240,0,0,,0,,,72,127
165545,note_on,42,0,0,,7,,,79,127
165681,note_off,136,0,0,,7,,,67,127
165681,note_off,0,0,0,,4,,,64,127
165686,note_on,5,0,0,,7,,,67,127
165686,note_on,0,0,0,,5,,,65,127
165686,note_on,0,0,0,,1,,,61,127
165823,note_off,137,0,0,,7,,,79,127
165826,note_on,3,0,0,,8,,,80,127
165963,note_off,137,0,0,,8,,,80,127
165966,note_on,3,0,0,,5,,,77,127
166103,note_off,137,0,0,,5,,,77,127
166103,note_off,0,0,0,,1,,,61,127
166103,note_off,0,0,0,,5,,,65,127
166103,note_off,0,0,0,,7,,,67,127
166108,note_on,5,0,0,,7,,,79,127
166108,note_on,0,0,0,,7,,,67,127
166108,note_on,0,0,0,,0,,,60,127
166108,note_on,0,0,0,,4,,,64,127
166348,note_off,240,0,0,,7,,,79,127
166388,note_on,40,0,0,,0,,,72,127
166526,note_off,138,0,0,,4,,,64,127
166526,note_off,0,0,0,,0,,,60,127
166526,note_off,0,0,0,,7,,,67,127
166528,note_on,2,0,0,,5,,,65,127
166528,note_on,0,0,0,,8,,,68,127
166665,note_off,137,0,0,,0,,,72,127
166668,note_on,3,0,0,,1,,,73,127
166805,note_off,137,0,0,,1,,,73,127
166808,note_on,3,0,0,,11,,,70,127
166945,note_off,137,0,0,,11,,,70,127
166945,note_off,0,0,0,,8,,,68,127
166945,note_off,0,0,0,,5,,,65,127
166948,note_on,3,0,0,,0,,,72,127
166948,note_on,0,0,0,,4,,,64,127
166948,note_on,0,0,0,,7,,,67,127
167177,note_off,229,0,0,,0,,,72,127
167230,note_on,53,0,0,,7,,,79,127
167367,note_off,137,0,0,,7,,,67,127
167367,note_off,0,0,0,,4,,,64,127
167372,note_on,5,0,0,,7,,,67,127
167372,note_on,0,0,0,,1,,,61,127
167372,note_on,0,0,0,,5,,,65,127
167508,note_off,136,0,0,,7,,,79,127
167513,note_on,5,0,0,,8,,,80,127
167650,note_off,137,0,0,,8,,,80,127
167653,note_on,3,0,0,,5,,,77,127
167790,note_off,137,0,0,,5,,,77,127
167790,note_off,0,0,0,,5,,,65,127
167790,note_off,0,0,0,,1,,,61,127
167790,note_off,0,0,0,,7,,,67,127
167793,note_on,3,0,0,,7,,,79,127
167793,note_on,0,0,0,,4,,,64,127
167793,note_on,0,0,0,,7,,,67,127
167793,note_on,0,0,0,,0,,,60,127
168022,note_off,229,0,0,,7,,,79,127
168075,note_on,53,0,0,,1,,,85,127
168212,note_off,137,0,0,,0,,,60,127
168212,note_off,0,0,0,,7,,,67,127
168212,note_off,0,0,0,,4,,,64,127
168215,note_on,3,0,0,,7,,,67,127
168215,note_on,0,0,0,,4,,,64,127
168215,note_on,0,0,0,,11,,,58,127
168352,note_off,137,0,0,,1,,,85,127
168355,note_on,3,0,0,,11,,,82,127
168492,note_off,137,0,0,,11,,,82,127
168495,note_on,3,0,0,,7,,,79,127
168632,note_off,137,0,0,,7,,,79,127
168632,note_off,0,0,0,,11,,,58,127
168632,note_off,0,0,0,,4,,,64,127
168632,note_off,0,0,0,,7,,,67,127
168635,note_on,3,0,0,,0,,,84,127
168635,note_on,0,0,0,,5,,,65,127
168635,note_on,0,0,0,,8,,,56,127
168772,note_off,137,0,0,,0,,,84,127
168775,note_on,3,0,0,,8,,,80,127
168912,note_off,137,0,0,,8,,,80,127
168912,note_off,0,0,0,,8,,,56,127
168912,note_off,0,0,0,,5,,,65,127
168915,note_on,3,0,0,,5,,,77,127
168915,note_on,0,0,0,,7,,,67,127
168915,note_on,0,0,0,,11,,,58,127
169052,note_off,137,0,0,,11,,,58,127
169052,note_off,0,0,0,,7,,,67,127
169055,note_on,3,0,0,,8,,,68,127
169055,note_on,0,0,0,,0,,,60,127
169192,note_off,137,0,0,,5,,,77,127
169197,note_on,5,0,0,,7,,,79,127
169333,note_off,136,0,0,,8,,,68,127
169334,note_off,1,0,0,,7,,,79,127
169337,note_on,3,0,0,,4,,,76,127
169337,note_on,0,0,0,,7,,,67,127
169471,note_off,134,0,0,,0,,,60,127
169474,note_off,3,0,0,,7,,,67,127
169474,note_off,0,0,0,,4,,,76,127
169477,note_on,3,0,0,,5,,,77,127
169477,note_on,0,0,0,,5,,,65,127
169477,note_on,0,0,0,,5,,,53,127
169895,note_off,418,0,0,,5,,,77,127
169911,note_on,16,0,0,,0,,,84,127
170048,note_off,137,0,0,,0,,,84,127
170051,note_on,3,0,0,,8,,,80,127
170188,note_off,137,0,0,,8,,,80,127
170191,note_on,3,0,0,,5,,,77,127
170316,note_off,125,0,0,,5,,,53,127
170316,note_off,0,0,0,,5,,,65,127
170329,note_off,13,0,0,,5,,,77,127
170332,note_on,3,0,0,,0,,,60,127
170332,note_on,0,0,0,,7,,,79,127
170398,note_off,66,0,0,,7,,,79,127
170403,note_on,5,0,0,,5,,,77,127
170469,note_off,66,0,0,,5,,,77,127
170472,note_on,3,0,0,,4,,,76,127
170609,note_off,137,0,0,,4,,,76,127
170612,note_on,3,0,0,,4,,,76,127
170749,note_off,137,0,0,,4,,,76,127
170752,note_on,3,0,0,,0,,,72,127
170752,note_on,0,0,0,,7,,,79,127
170889,note_off,137,0,0,,7,,,79,127
170892,note_on,3,0,0,,7,,,79,127
171029,note_off,137,0,0,,7,,,79,127
171034,note_on,5,0,0,,7,,,79,127
171163,note_off,129,0,0,,0,,,60,127
171171,note_off,8,0,0,,7,,,79,127
171174,note_on,3,0,0,,1,,,61,127
171174,note_on,0,0,0,,8,,,80,127
171174,note_on,0,0,0,,7,,,79,127
171311,note_off,137,0,0,,7,,,79,127
171314,note_on,3,0,0,,5,,,77,127
171451,note_off,137,0,0,,5,,,77,127
171454,note_on,3,0,0,,5,,,77,127
171583,note_off,129,0,0,,0,,,72,127
171591,note_off,8,0,0,,5,,,77,127
171596,note_on,5,0,0,,11,,,70,127
171596,note_on,0,0,0,,5,,,77,127
171733,note_off,137,0,0,,5,,,77,127
171735,note_on,2,0,0,,5,,,77,127
171872,note_off,137,0,0,,5,,,77,127
171875,note_on,3,0,0,,5,,,77,127
172005,note_off,130,0,0,,8,,,80,127
172005,note_off,0,0,0,,1,,,61,127
172012,note_off,7,0,0,,5,,,77,127
172013,note_off,1,0,0,,11,,,70,127
172015,note_on,2,0,0,,8,,,68,127
172015,note_on,0,0,0,,0,,,60,127
172015,note_on,0,0,0,,7,,,79,127
172015,note_on,0,0,0,,5,,,77,127
172152,note_off,137,0,0,,5,,,77,127
172155,note_on,3,0,0,,4,,,76,127
172292,note_off,137,0,0,,4,,,76,127
172295,note_on,3,0,0,,4,,,76,127
172430,note_off,135,0,0,,7,,,79,127
172432,note_off,2,0,0,,4,,,76,127
172432,note_off,0,0,0,,8,,,68,127
172435,note_on,3,0,0,,0,,,72,127
172435,note_on,0,0,0,,7,,,79,127
172572,note_off,137,0,0,,7,,,79,127
172575,note_on,3,0,0,,7,,,79,127
172712,note_off,137,0,0,,7,,,79,127
172715,note_on,3,0,0,,7,,,79,127
172845,note_off,130,0,0,,0,,,60,127
172852,note_off,7,0,0,,7,,,79,127
172857,note_on,5,0,0,,1,,,61,127
172857,note_on,0,0,0,,8,,,80,127
172857,note_on,0,0,0,,7,,,79,127
172994,note_off,137,0,0,,7,,,79,127
172997,note_on,3,0,0,,5,,,77,127
173134,note_off,137,0,0,,5,,,77,127
173137,note_on,3,0,0,,5,,,77,127
173266,note_off,129,0,0,,0,,,72,127
173274,note_off,8,0,0,,5,,,77,127
173277,note_on,3,0,0,,11,,,70,127
173277,note_on,0,0,0,,5,,,77,127
173414,note_off,137,0,0,,5,,,77,127
173419,note_on,5,0,0,,5,,,77,127
173556,note_off,137,0,0,,5,,,77,127
173558,note_on,2,0,0,,5,,,77,127
173688,note_off,130,0,0,,8,,,80,127
173688,note_off,0,0,0,,1,,,61,127
173695,note_off,7,0,0,,5,,,77,127
173695,note_off,0,0,0,,11,,,70,127
173698,note_on,3,0,0,,0,,,60,127
173698,note_on,0,0,0,,0,,,72,127
173698,note_on,0,0,0,,7,,,79,127
173698,note_on,0,0,0,,5,,,77,127
173835,note_off,137,0,0,,5,,,77,127
173838,note_on,3,0,0,,3,,,75,127
173975,note_off,137,0,0,,3,,,75,127
173978,note_on,3,0,0,,3,,,75,127
174113,note_off,135,0,0,,7,,,79,127
174115,note_off,2,0,0,,3,,,75,127
174115,note_off,0,0,0,,0,,,72,127
174118,note_on,3,0,0,,11,,,70,127
174118,note_on,0,0,0,,3,,,75,127
174118,note_on,0,0,0,,5,,,77,127
174255,note_off,137,0,0,,3,,,75,127
174258,note_on,3,0,0,,1,,,73,127
174325,note_off,67,0,0,,0,,,60,127
174395,note_off,70,0,0,,1,,,73,127
174398,note_on,3,0,0,,1,,,73,127
174533,note_off,135,0,0,,5,,,77,127
174535,note_off,2,0,0,,1,,,73,127
174535,note_off,0,0,0,,11,,,70,127
174538,note_on,3,0,0,,8,,,68,127
174538,note_on,0,0,0,,3,,,75,127
174538,note_on,0,0,0,,1,,,73,127
174675,note_off,137,0,0,,1,,,73,127
174680,note_on,5,0,0,,0,,,72,127
174817,note_off,137,0,0,,0,,,72,127
174820,note_on,3,0,0,,0,,,72,127
174954,note_off,134,0,0,,3,,,75,127
174956,note_off,2,0,0,,8,,,68,127
174957,note_off,1,0,0,,0,,,72,127
174960,note_on,3,0,0,,7,,,67,127
174960,note_on,0,0,0,,0,,,72,127
174960,note_on,0,0,0,,1,,,73,127
175097,note_off,137,0,0,,0,,,72,127
175100,note_on,3,0,0,,11,,,70,127
175237,note_off,137,0,0,,11,,,70,127
175242,note_on,5,0,0,,11,,,70,127
175376,note_off,134,0,0,,1,,,73,127
175378,note_off,2,0,0,,7,,,67,127
175379,note_off,1,0,0,,11,,,70,127
175381,note_on,2,0,0,,5,,,65,127
175381,note_on,0,0,0,,11,,,70,127
175381,note_on,0,0,0,,0,,,72,127
175518,note_off,137,0,0,,11,,,70,127
175521,note_on,3,0,0,,8,,,68,127
175658,note_off,137,0,0,,8,,,68,127
175661,note_on,3,0,0,,11,,,70,127
175796,note_off,135,0,0,,0,,,72,127
175798,note_off,2,0,0,,11,,,70,127
175798,note_off,0,0,0,,5,,,65,127
175801,note_on,3,0,0,,5,,,53,127
175801,note_on,0,0,0,,0,,,72,127
175938,note_off,137,0,0,,0,,,72,127
175941,note_on,3,0,0,,8,,,68,127
176078,note_off,137,0,0,,8,,,68,127
176081,note_on,3,0,0,,5,,,65,127
176218,note_off,137,0,0,,5,,,65,127
176218,note_off,0,0,0,,5,,,53,127
176221,note_on,3,0,0,,0,,,48,127
176221,note_on,0,0,0,,7,,,67,127
176287,note_off,66,0,0,,7,,,67,127
176292,note_on,5,0,0,,5,,,65,127
176358,note_off,66,0,0,,5,,,65,127
176361,note_on,3,0,0,,4,,,64,127
176498,note_off,137,0,0,,4,,,64,127
176503,note_on,5,0,0,,4,,,64,127
176640,note_off,137,0,0,,4,,,64,127
176643,note_on,3,0,0,,0,,,60,127
176643,note_on,0,0,0,,7,,,67,127
176780,note_off,137,0,0,,7,,,67,127
176783,note_on,3,0,0,,7,,,67,127
176920,note_off,137,0,0,,7,,,67,127
176923,note_on,3,0,0,,7,,,67,127
177052,note_off,129,0,0,,0,,,48,127
177060,note_off,8,0,0,,7,,,67,127
177065,note_on,5,0,0,,1,,,49,127
177065,note_on,0,0,0,,7,,,67,127
177065,note_on,0,0,0,,8,,,68,127
177202,note_off,137,0,0,,7,,,67,127
177204,note_on,2,0,0,,5,,,65,127
177341,note_off,137,0,0,,5,,,65,127
177344,note_on,3,0,0,,5,,,65,127
177474,note_off,130,0,0,,0,,,60,127
177481,note_off,7,0,0,,5,,,65,127
177484,note_on,3,0,0,,11,,,58,127
177484,note_on,0,0,0,,5,,,65,127
177621,note_off,137,0,0,,5,,,65,127
177624,note_on,3,0,0,,5,,,65,127
177761,note_off,137,0,0,,5,,,65,127
177764,note_on,3,0,0,,5,,,65,127
177895,note_off,131,0,0,,8,,,68,127
177895,note_off,0,0,0,,1,,,49,127
177901,note_off,6,0,0,,5,,,65,127
177901,note_off,0,0,0,,11,,,58,127
177904,note_on,3,0,0,,8,,,56,127
177904,note_on,0,0,0,,0,,,48,127
177904,note_on,0,0,0,,7,,,67,127
177904,note_on,0,0,0,,5,,,65,127
178041,note_off,137,0,0,,5,,,65,127
178044,note_on,3,0,0,,4,,,64,127
178181,note_off,137,0,0,,4,,,64,127
178184,note_on,3,0,0,,4,,,64,127
178319,note_off,135,0,0,,7,,,67,127
178321,note_off,2,0,0,,4,,,64,127
178321,note_off,0,0,0,,8,,,56,127
178326,note_on,5,0,0,,0,,,60,127
178326,note_on,0,0,0,,7,,,67,127
178463,note_off,137,0,0,,7,,,67,127
178466,note_on,3,0,0,,7,,,67,127
178603,note_off,137,0,0,,7,,,67,127
178606,note_on,3,0,0,,7,,,67,127
178735,note_off,129,0,0,,0,,,48,127
178743,note_off,8,0,0,,7,,,67,127
178746,note_on,3,0,0,,1,,,49,127
178746,note_on,0,0,0,,7,,,67,127
178746,note_on,0,0,0,,8,,,68,127
178883,note_off,137,0,0,,7,,,67,127
178888,note_on,5,0,0,,5,,,65,127
179025,note_off,137,0,0,,5,,,65,127
179027,note_on,2,0,0,,5,,,65,127
179157,note_off,130,0,0,,0,,,60,127
179164,note_off,7,0,0,,5,,,65,127
179167,note_on,3,0,0,,11,,,58,127
179167,note_on,0,0,0,,5,,,65,127
179304,note_off,137,0,0,,5,,,65,127
179307,note_on,3,0,0,,5,,,65,127
179444,note_off,137,0,0,,5,,,65,127
179447,note_on,3,0,0,,5,,,65,127
179577,note_off,130,0,0,,8,,,68,127
179577,note_off,0,0,0,,1,,,49,127
179584,note_off,7,0,0,,5,,,65,127
179587,note_on,3,0,0,,0,,,48,127
179587,note_on,0,0,0,,5,,,65,127
179587,note_on,0,0,0,,7,,,67,127
179724,note_off,137,0,0,,5,,,65,127
179727,note_on,3,0,0,,3,,,63,127
179864,note_off,137,0,0,,3,,,63,127
179867,note_on,3,0,0,,3,,,63,127
179997,note_off,130,0,0,,11,,,58,127
180004,note_off,7,0,0,,3,,,63,127
180007,note_on,3,0,0,,0,,,60,127
180007,note_on,0,0,0,,3,,,63,127
180144,note_off,137,0,0,,3,,,63,127
180149,note_on,5,0,0,,3,,,63,127
180286,note_off,137,0,0,,3,,,63,127
180289,note_on,3,0,0,,3,,,63,127
180418,note_off,129,0,0,,7,,,67,127
180418,note_off,0,0,0,,0,,,48,127
180423,note_off,5,0,0,,0,,,60,127
180426,note_off,3,0,0,,3,,,63,127
180429,note_on,3,0,0,,5,,,53,127
180429,note_on,0,0,0,,10,,,69,127
180429,note_on,0,0,0,,3,,,63,127
180566,note_off,137,0,0,,3,,,63,127
180569,note_on,3,0,0,,3,,,63,127
180706,note_off,137,0,0,,3,,,63,127
180711,note_on,5,0,0,,3,,,63,127
180845,note_off,134,0,0,,10,,,69,127
180847,note_off,2,0,0,,5,,,53,127
180848,note_off,1,0,0,,3,,,63,127
180850,note_on,2,0,0,,11,,,46,127
180850,note_on,0,0,0,,11,,,58,127
180850,note_on,0,0,0,,1,,,61,127
180850,note_on,0,0,0,,11,,,70,127
180987,note_off,137,0,0,,1,,,61,127
180990,note_on,3,0,0,,1,,,61,127
181127,note_off,137,0,0,,1,,,61,127
181130,note_on,3,0,0,,1,,,61,127
181265,note_off,135,0,0,,11,,,70,127
181267,note_off,2,0,0,,1,,,61,127
181267,note_off,0,0,0,,11,,,58,127
181267,note_off,0,0,0,,11,,,46,127
181270,note_on,3,0,0,,0,,,48,127
181270,note_on,0,0,0,,0,,,60,127
181270,note_on,0,0,0,,4,,,64,127
181270,note_on,0,0,0,,11,,,70,127
181407,note_off,137,0,0,,4,,,64,127
181410,note_on,3,0,0,,4,,,64,127
181547,note_off,137,0,0,,4,,,64,127
181550,note_on,3,0,0,,4,,,64,127
181685,note_off,135,0,0,,11,,,70,127
181687,note_off,2,0,0,,4,,,64,127
181687,note_off,0,0,0,,0,,,60,127
181687,note_off,0,0,0,,0,,,48,127
181690,note_on,3,0,0,,0,,,60,127
181690,note_on,0,0,0,,5,,,53,127
181690,note_on,0,0,0,,5,,,65,127
181690,note_on,0,0,0,,8,,,68,127
181827,note_off,137,0,0,,8,,,68,127
181830,note_on,3,0,0,,8,,,68,127
181967,note_off,137,0,0,,8,,,68,127
181972,note_on,5,0,0,,8,,,68,127
182106,note_off,134,0,0,,5,,,65,127
182108,note_off,2,0,0,,5,,,53,127
182108,note_off,0,0,0,,0,,,60,127
182109,note_off,1,0,0,,8,,,68,127
182112,note_on,3,0,0,,7,,,55,127
182112,note_on,0,0,0,,5,,,65,127
182112,note_on,0,0,0,,12,,,71,127
182249,note_off,137,0,0,,12,,,71,127
182252,note_on,3,0,0,,12,,,71,127
182389,note_off,137,0,0,,12,,,71,127
182392,note_on,3,0,0,,12,,,71,127
182527,note_off,135,0,0,,5,,,65,127
182529,note_off,2,0,0,,12,,,71,127
182529,note_off,0,0,0,,7,,,55,127
182534,note_on,5,0,0,,0,,,60,127
182534,note_on,0,0,0,,0,,,48,127
182534,note_on,0,0,0,,4,,,64,127
182534,note_on,0,0,0,,0,,,72,127
182671,note_off,137,0,0,,4,,,64,127
182673,note_on,2,0,0,,4,,,64,127
182810,note_off,137,0,0,,4,,,64,127
182813,note_on,3,0,0,,4,,,64,127
182949,note_off,136,0,0,,0,,,72,127
182950,note_off,1,0,0,,4,,,64,127
182951,note_off,1,0,0,,0,,,48,127
182953,note_on,2,0,0,,1,,,49,127
182953,note_on,0,0,0,,5,,,65,127
182953,note_on,0,0,0,,0,,,72,127
183090,note_off,137,0,0,,5,,,65,127
183093,note_on,3,0,0,,5,,,65,127
183230,note_off,137,0,0,,5,,,65,127
183233,note_on,3,0,0,,5,,,65,127
183364,note_off,131,0,0,,0,,,60,127
183367,note_off,3,0,0,,0,,,72,127
183369,note_off,2,0,0,,5,,,65,127
183372,note_on,3,0,0,,11,,,58,127
183372,note_on,0,0,0,,11,,,70,127
183372,note_on,0,0,0,,5,,,77,127
183509,note_off,137,0,0,,5,,,77,127
183512,note_on,3,0,0,,5,,,77,127
183649,note_off,137,0,0,,5,,,77,127
183652,note_on,3,0,0,,5,,,77,127
183782,note_off,130,0,0,,1,,,49,127
183787,note_off,5,0,0,,11,,,70,127
183789,note_off,2,0,0,,5,,,77,127
183789,note_off,0,0,0,,11,,,58,127
183794,note_on,5,0,0,,0,,,48,127
183794,note_on,0,0,0,,0,,,60,127
183794,note_on,0,0,0,,4,,,76,127
183794,note_on,0,0,0,,11,,,70,127
183931,note_off,137,0,0,,4,,,76,127
183934,note_on,3,0,0,,4,,,76,127
184071,note_off,137,0,0,,4,,,76,127
184074,note_on,3,0,0,,4,,,76,127
184209,note_off,135,0,0,,11,,,70,127
184211,note_off,2,0,0,,4,,,76,127
184211,note_off,0,0,0,,0,,,60,127
184211,note_off,0,0,0,,0,,,48,127
184214,note_on,3,0,0,,5,,,53,127
184214,note_on,0,0,0,,5,,,77,127
184214,note_on,0,0,0,,8,,,68,127
184351,note_off,137,0,0,,5,,,77,127
184356,note_on,5,0,0,,5,,,77,127
184493,note_off,137,0,0,,5,,,77,127
184495,note_on,2,0,0,,5,,,77,127
184630,note_off,135,0,0,,8,,,68,127
184632,note_off,2,0,0,,5,,,77,127
184632,note_off,0,0,0,,5,,,53,127
184635,note_on,3,0,0,,11,,,58,127
184635,note_on,0,0,0,,3,,,75,127
184701,note_off,66,0,0,,3,,,75,127
184706,note_on,5,0,0,,1,,,73,127
184772,note_off,66,0,0,,1,,,73,127
184775,note_on,3,0,0,,0,,,72,127
184912,note_off,137,0,0,,0,,,72,127
184915,note_on,3,0,0,,11,,,70,127
185052,note_off,137,0,0,,11,,,70,127
185052,note_off,0,0,0,,11,,,58,127
185055,note_on,3,0,0,,0,,,60,127
185055,note_on,0,0,0,,11,,,70,127
185192,note_off,137,0,0,,11,,,70,127
185195,note_on,3,0,0,,8,,,68,127
185332,note_off,137,0,0,,8,,,68,127
185335,note_on,3,0,0,,7,,,67,127
185472,note_off,137,0,0,,7,,,67,127
185472,note_off,0,0,0,,0,,,60,127
185475,note_on,3,0,0,,5,,,41,127
185475,note_on,0,0,0,,5,,,65,127
185612,note_off,137,0,0,,5,,,65,127
185617,note_on,5,0,0,,8,,,68,127
185754,note_off,137,0,0,,8,,,68,127
185757,note_on,3,0,0,,11,,,70,127
185893,note_off,136,0,0,,5,,,41,127
185894,note_off,1,0,0,,11,,,70,127
185897,note_on,3,0,0,,5,,,53,127
185897,note_on,0,0,0,,0,,,72,127
186034,note_off,137,0,0,,0,,,72,127
186037,note_on,3,0,0,,8,,,68,127
186174,note_off,137,0,0,,8,,,68,127
186179,note_on,5,0,0,,5,,,65,127
186315,note_off,136,0,0,,5,,,53,127
186316,note_off,1,0,0,,5,,,65,127
186318,note_on,2,0,0,,0,,,48,127
186318,note_on,0,0,0,,7,,,67,127
186384,note_off,66,0,0,,7,,,67,127
186387,note_on,3,0,0,,5,,,65,127
186453,note_off,66,0,0,,5,,,65,127
186458,note_on,5,0,0,,4,,,64,127
186595,note_off,137,0,0,,4,,,64,127
186598,note_on,3,0,0,,4,,,64,127
186735,note_off,137,0,0,,4,,,64,127
186738,note_on,3,0,0,,0,,,60,127
186738,note_on,0,0,0,,7,,,67,127
186875,note_off,137,0,0,,7,,,67,127
186878,note_on,3,0,0,,7,,,67,127
187015,note_off,137,0,0,,7,,,67,127
187018,note_on,3,0,0,,7,,,67,127
187148,note_off,130,0,0,,0,,,48,127
187155,note_off,7,0,0,,7,,,67,127
187158,note_on,3,0,0,,1,,,49,127
187158,note_on,0,0,0,,8,,,68,127
187158,note_on,0,0,0,,7,,,67,127
187295,note_off,137,0,0,,7,,,67,127
187298,note_on,3,0,0,,5,,,65,127
187435,note_off,137,0,0,,5,,,65,127
187440,note_on,5,0,0,,5,,,65,127
187569,note_off,129,0,0,,0,,,60,127
187577,note_off,8,0,0,,5,,,65,127
187580,note_on,3,0,0,,11,,,58,127
187580,note_on,0,0,0,,5,,,65,127
187717,note_off,137,0,0,,5,,,65,127
187720,note_on,3,0,0,,5,,,65,127
187857,note_off,137,0,0,,5,,,65,127
187860,note_on,3,0,0,,5,,,65,127
187989,note_off,129,0,0,,8,,,68,127
187989,note_off,0,0,0,,1,,,49,127
187997,note_off,8,0,0,,5,,,65,127
187997,note_off,0,0,0,,11,,,58,127
188002,note_on,5,0,0,,8,,,56,127
188002,note_on,0,0,0,,0,,,48,127
188002,note_on,0,0,0,,5,,,65,127
188002,note_on,0,0,0,,7,,,67,127
188139,note_off,137,0,0,,5,,,65,127
188141,note_on,2,0,0,,4,,,64,127
188278,note_off,137,0,0,,4,,,64,127
188281,note_on,3,0,0,,4,,,64,127
188417,note_off,136,0,0,,7,,,67,127
188418,note_off,1,0,0,,4,,,64,127
188419,note_off,1,0,0,,8,,,56,127
188421,note_on,2,0,0,,0,,,60,127
188421,note_on,0,0,0,,7,,,67,127
188558,note_off,137,0,0,,7,,,67,127
188561,note_on,3,0,0,,7,,,67,127
188698,note_off,137,0,0,,7,,,67,127
188701,note_on,3,0,0,,7,,,67,127
188832,note_off,131,0,0,,0,,,48,127
188838,note_off,6,0,0,,7,,,67,127
188841,note_on,3,0,0,,1,,,49,127
188841,note_on,0,0,0,,8,,,68,127
188841,note_on,0,0,0,,7,,,67,127
188978,note_off,137,0,0,,7,,,67,127
188981,note_on,3,0,0,,5,,,65,127
189118,note_off,137,0,0,,5,,,65,127
189121,note_on,3,0,0,,5,,,65,127
189251,note_off,130,0,0,,0,,,60,127
189258,note_off,7,0,0,,5,,,65,127
189263,note_on,5,0,0,,11,,,58,127
189263,note_on,0,0,0,,5,,,65,127
189400,note_off,137,0,0,,5,,,65,127
189403,note_on,3,0,0,,5,,,65,127
189540,note_off,137,0,0,,5,,,65,127
189543,note_on,3,0,0,,5,,,65,127
189672,note_off,129,0,0,,8,,,68,127
189672,note_off,0,0,0,,1,,,49,127
189680,note_off,8,0,0,,5,,,65,127
189680,note_off,0,0,0,,11,,,58,127
189683,note_on,3,0,0,,0,,,48,127
189683,note_on,0,0,0,,5,,,65,127
189683,note_on,0,0,0,,7,,,67,127
189820,note_off,137,0,0,,5,,,65,127
189825,note_on,5,0,0,,3,,,63,127
189962,note_off,137,0,0,,3,,,63,127
189964,note_on,2,0,0,,3,,,63,127
190101,note_off,137,0,0,,3,,,63,127
190101,note_off,0,0,0,,0,,,48,127
190104,note_on,3,0,0,,0,,,60,127
190104,note_on,0,0,0,,3,,,63,127
190241,note_off,137,0,0,,3,,,63,127
190244,note_on,3,0,0,,3,,,63,127
190381,note_off,137,0,0,,3,,,63,127
190384,note_on,3,0,0,,3,,,63,127
190514,note_off,130,0,0,,7,,,67,127
190521,note_off,7,0,0,,3,,,63,127
190521,note_off,0,0,0,,0,,,60,127
190524,note_on,3,0,0,,5,,,53,127
190524,note_on,0,0,0,,3,,,63,127
190524,note_on,0,0,0,,10,,,69,127
190661,note_off,137,0,0,,3,,,63,127
190664,note_on,3,0,0,,3,,,63,127
190801,note_off,137,0,0,,3,,,63,127
190804,note_on,3,0,0,,3,,,63,127
190939,note_off,135,0,0,,10,,,69,127
190941,note_off,2,0,0,,3,,,63,127
190941,note_off,0,0,0,,5,,,53,127
190944,note_on,3,0,0,,11,,,46,127
190944,note_on,0,0,0,,11,,,58,127
190944,note_on,0,0,0,,11,,,70,127
190944,note_on,0,0,0,,1,,,61,127
191081,note_off,137,0,0,,1,,,61,127
191086,note_on,5,0,0,,1,,,61,127
191223,note_off,137,0,0,,1,,,61,127
191226,note_on,3,0,0,,1,,,61,127
191360,note_off,134,0,0,,11,,,70,127
191362,note_off,2,0,0,,11,,,58,127
191362,note_off,0,0,0,,11,,,46,127
191363,note_off,1,0,0,,1,,,61,127
191366,note_on,3,0,0,,0,,,60,127
191366,note_on,0,0,0,,0,,,48,127
191366,note_on,0,0,0,,11,,,70,127
191366,note_on,0,0,0,,4,,,64,127
191503,note_off,137,0,0,,4,,,64,127
191506,note_on,3,0,0,,4,,,64,127
191643,note_off,137,0,0,,4,,,64,127
191648,note_on,5,0,0,,4,,,64,127
191782,note_off,134,0,0,,11,,,70,127
191784,note_off,2,0,0,,0,,,48,127
191784,note_off,0,0,0,,0,,,60,127
191785,note_off,1,0,0,,4,,,64,127
191787,note_on,2,0,0,,5,,,53,127
191787,note_on,0,0,0,,5,,,65,127
191787,note_on,0,0,0,,8,,,68,127
191924,note_off,137,0,0,,8,,,68,127
191927,note_on,3,0,0,,8,,,68,127
192064,note_off,137,0,0,,8,,,68,127
192067,note_on,3,0,0,,8,,,68,127
192202,note_off,135,0,0,,5,,,65,127
192204,note_off,2,0,0,,8,,,68,127
192204,note_off,0,0,0,,5,,,53,127
192207,note_on,3,0,0,,7,,,55,127
192207,note_on,0,0,0,,5,,,65,127
192207,note_on,0,0,0,,12,,,71,127
192344,note_off,137,0,0,,12,,,71,127
192347,note_on,3,0,0,,12,,,71,127
192484,note_off,137,0,0,,12,,,71,127
192487,note_on,3,0,0,,12,,,71,127
192622,note_off,135,0,0,,5,,,65,127
192624,note_off,2,0,0,,12,,,71,127
192624,note_off,0,0,0,,7,,,55,127
192627,note_on,3,0,0,,0,,,60,127
192627,note_on,0,0,0,,0,,,48,127
192627,note_on,0,0,0,,3,,,63,127
192627,note_on,0,0,0,,0,,,72,127
192764,note_off,137,0,0,,3,,,63,127
192767,note_on,3,0,0,,3,,,63,127
192904,note_off,137,0,0,,3,,,63,127
192909,note_on,5,0,0,,3,,,63,127
193043,note_off,134,0,0,,0,,,72,127
193045,note_off,2,0,0,,0,,,48,127
193046,note_off,1,0,0,,3,,,63,127
193049,note_on,3,0,0,,1,,,49,127
193049,note_on,0,0,0,,5,,,65,127
193049,note_on,0,0,0,,0,,,72,127
193186,note_off,137,0,0,,5,,,65,127
193189,note_on,3,0,0,,5,,,65,127
193326,note_off,137,0,0,,5,,,65,127
193329,note_on,3,0,0,,5,,,65,127
193458,note_off,129,0,0,,0,,,60,127
193464,note_off,6,0,0,,0,,,72,127
193466,note_off,2,0,0,,5,,,65,127
193471,note_on,5,0,0,,11,,,58,127
193471,note_on,0,0,0,,5,,,77,127
193471,note_on,0,0,0,,11,,,70,127
193608,note_off,137,0,0,,5,,,77,127
193610,note_on,2,0,0,,5,,,77,127
193747,note_off,137,0,0,,5,,,77,127
193750,note_on,3,0,0,,5,,,77,127
193880,note_off,130,0,0,,1,,,49,127
193886,note_off,6,0,0,,11,,,70,127
193887,note_off,1,0,0,,5,,,77,127
193888,note_off,1,0,0,,11,,,58,127
193890,note_on,2,0,0,,0,,,48,127
193890,note_on,0,0,0,,0,,,60,127
193890,note_on,0,0,0,,4,,,76,127
193890,note_on,0,0,0,,11,,,70,127
194027,note_off,137,0,0,,4,,,76,127
194030,note_on,3,0,0,,4,,,76,127
194167,note_off,137,0,0,,4,,,76,127
194170,note_on,3,0,0,,4,,,76,127
194305,note_off,135,0,0,,11,,,70,127
194307,note_off,2,0,0,,4,,,76,127
194307,note_off,0,0,0,,0,,,60,127
194307,note_off,0,0,0,,0,,,48,127
194310,note_on,3,0,0,,5,,,53,127
194310,note_on,0,0,0,,5,,,77,127
194310,note_on,0,0,0,,8,,,68,127
194447,note_off,137,0,0,,5,,,77,127
194450,note_on,3,0,0,,5,,,77,127
194587,note_off,137,0,0,,5,,,77,127
194590,note_on,3,0,0,,5,,,77,127
194725,note_off,135,0,0,,8,,,68,127
194727,note_off,2,0,0,,5,,,77,127
194727,note_off,0,0,0,,5,,,53,127
194732,note_on,5,0,0,,11,,,58,127
194732,note_on,0,0,0,,3,,,75,127
194798,note_off,66,0,0,,3,,,75,127
194801,note_on,3,0,0,,1,,,73,127
194867,note_off,66,0,0,,1,,,73,127
194872,note_on,5,0,0,,0,,,72,127
195009,note_off,137,0,0,,0,,,72,127
195012,note_on,3,0,0,,11,,,70,127
195149,note_off,137,0,0,,11,,,70,127
195149,note_off,0,0,0,,11,,,58,127
195152,note_on,3,0,0,,0,,,60,127
195152,note_on,0,0,0,,11,,,70,127
195289,note_off,137,0,0,,11,,,70,127
195294,note_on,5,0,0,,8,,,68,127
195431,note_off,137,0,0,,8,,,68,127
195433,note_on,2,0,0,,7,,,67,127
195570,note_off,137,0,0,,7,,,67,127
195570,note_off,0,0,0,,0,,,60,127
195573,note_on,3,0,0,,5,,,53,127
195573,note_on,0,0,0,,8,,,56,127
195573,note_on,0,0,0,,0,,,60,127
195573,note_on,0,0,0,,5,,,65,127
195710,note_off,137,0,0,,5,,,65,127
195713,note_on,3,0,0,,5,,,65,127
195850,note_off,137,0,0,,5,,,65,127
195853,note_on,3,0,0,,8,,,68,127
195990,note_off,137,0,0,,8,,,68,127
195990,note_off,0,0,0,,0,,,60,127
195990,note_off,0,0,0,,8,,,56,127
195990,note_off,0,0,0,,5,,,53,127
195993,note_on,3,0,0,,0,,,48,127
195993,note_on,0,0,0,,7,,,55,127
195993,note_on,0,0,0,,0,,,60,127
195993,note_on,0,0,0,,7,,,67,127
196271,note_off,278,0,0,,7,,,67,127
196274,note_on,3,0,0,,4,,,76,127
196411,note_off,137,0,0,,4,,,76,127
196411,note_off,0,0,0,,0,,,60,127
196411,note_off,0,0,0,,7,,,55,127
196411,note_off,0,0,0,,0,,,48,127
196414,note_on,3,0,0,,5,,,53,127
196414,note_on,0,0,0,,8,,,56,127
196414,note_on,0,0,0,,0,,,60,127
196414,note_on,0,0,0,,5,,,77,127
196551,note_off,137,0,0,,5,,,77,127
196556,note_on,5,0,0,,5,,,65,127
196693,note_off,137,0,0,,5,,,65,127
196696,note_on,3,0,0,,8,,,68,127
196832,note_off,136,0,0,,0,,,60,127
196832,note_off,0,0,0,,8,,,56,127
196832,note_off,0,0,0,,5,,,53,127
196833,note_off,1,0,0,,8,,,68,127
196836,note_on,3,0,0,,0,,,48,127
196836,note_on,0,0,0,,7,,,55,127
196836,note_on,0,0,0,,0,,,60,127
196836,note_on,0,0,0,,7,,,67,127
197114,note_off,278,0,0,,7,,,67,127
197119,note_on,5,0,0,,4,,,76,127
197119,note_on,0,0,0,,7,,,79,127
197255,note_off,136,0,0,,0,,,60,127
197255,note_off,0,0,0,,7,,,55,127
197255,note_off,0,0,0,,0,,,48,127
197256,note_off,1,0,0,,7,,,79,127
197256,note_off,0,0,0,,4,,,76,127
197258,note_on,2,0,0,,8,,,56,127
197258,note_on,0,0,0,,5,,,53,127
197258,note_on,0,0,0,,0,,,60,127
197258,note_on,0,0,0,,5,,,77,127
197258,note_on,0,0,0,,8,,,80,127
197395,note_off,137,0,0,,8,,,80,127
197395,note_off,0,0,0,,5,,,77,127
197398,note_on,3,0,0,,5,,,65,127
197535,note_off,137,0,0,,5,,,65,127
197538,note_on,3,0,0,,8,,,68,127
197675,note_off,137,0,0,,8,,,68,127
197675,note_off,0,0,0,,0,,,60,127
197675,note_off,0,0,0,,5,,,53,127
197675,note_off,0,0,0,,8,,,56,127
197678,note_on,3,0,0,,0,,,48,127
197678,note_on,0,0,0,,0,,,60,127
197678,note_on,0,0,0,,7,,,55,127
197678,note_on,0,0,0,,7,,,67,127
197956,note_off,278,0,0,,7,,,67,127
197959,note_on,3,0,0,,7,,,79,127
197959,note_on,0,0,0,,11,,,82,127
198096,note_off,137,0,0,,11,,,82,127
198096,note_off,0,0,0,,7,,,79,127
198096,note_off,0,0,0,,7,,,55,127
198096,note_off,0,0,0,,0,,,60,127
198096,note_off,0,0,0,,0,,,48,127
198099,note_on,3,0,0,,0,,,60,127
198099,note_on,0,0,0,,8,,,56,127
198099,note_on,0,0,0,,5,,,53,127
198099,note_on,0,0,0,,0,,,84,127
198099,note_on,0,0,0,,8,,,80,127
198236,note_off,137,0,0,,8,,,80,127
198236,note_off,0,0,0,,0,,,84,127
198239,note_on,3,0,0,,4,,,76,127
198376,note_off,137,0,0,,4,,,76,127
198381,note_on,5,0,0,,7,,,79,127
198517,note_off,136,0,0,,5,,,53,127
198517,note_off,0,0,0,,8,,,56,127
198517,note_off,0,0,0,,0,,,60,127
198518,note_off,1,0,0,,7,,,79,127
198521,note_on,3,0,0,,8,,,56,127
198521,note_on,0,0,0,,5,,,77,127
198658,note_off,137,0,0,,5,,,77,127
198661,note_on,3,0,0,,0,,,72,127
198798,note_off,137,0,0,,0,,,72,127
198801,note_on,3,0,0,,3,,,75,127
198938,note_off,137,0,0,,3,,,75,127
198938,note_off,0,0,0,,8,,,56,127
198943,note_on,5,0,0,,11,,,58,127
198943,note_on,0,0,0,,3,,,75,127
199080,note_off,137,0,0,,3,,,75,127
199082,note_on,2,0,0,,1,,,73,127
199219,note_off,137,0,0,,1,,,73,127
199222,note_on,3,0,0,,0,,,72,127
199359,note_off,137,0,0,,0,,,72,127
199360,note_off,1,0,0,,11,,,58,127
199362,note_on,2,0,0,,0,,,60,127
199362,note_on,0,0,0,,11,,,70,127
199499,note_off,137,0,0,,11,,,70,127
199502,note_on,3,0,0,,8,,,68,127
199639,note_off,137,0,0,,8,,,68,127
199642,note_on,3,0,0,,7,,,67,127
199779,note_off,137,0,0,,7,,,67,127
199779,note_off,0,0,0,,0,,,60,127
199782,note_on,3,0,0,,5,,,53,127
199782,note_on,0,0,0,,8,,,56,127
199782,note_on,0,0,0,,0,,,60,127
199782,note_on,0,0,0,,5,,,65,127
199919,note_off,137,0,0,,5,,,65,127
199922,note_on,3,0,0,,5,,,65,127
200059,note_off,137,0,0,,5,,,65,127
200062,note_on,3,0,0,,8,,,68,127
200199,note_off,137,0,0,,8,,,68,127
200199,note_off,0,0,0,,0,,,60,127
200199,note_off,0,0,0,,8,,,56,127
200199,note_off,0,0,0,,5,,,53,127
200204,note_on,5,0,0,,0,,,48,127
200204,note_on,0,0,0,,7,,,55,127
200204,note_on,0,0,0,,0,,,60,127
200204,note_on,0,0,0,,7,,,67,127
200482,note_off,278,0,0,,7,,,67,127
200485,note_on,3,0,0,,4,,,76,127
200622,note_off,137,0,0,,4,,,76,127
200622,note_off,0,0,0,,0,,,60,127
200622,note_off,0,0,0,,7,,,55,127
200622,note_off,0,0,0,,0,,,48,127
200625,note_on,3,0,0,,8,,,56,127
200625,note_on,0,0,0,,5,,,53,127
200625,note_on,0,0,0,,0,,,60,127
200625,note_on,0,0,0,,5,,,77,127
200762,note_off,137,0,0,,5,,,77,127
200767,note_on,5,0,0,,5,,,65,127
200904,note_off,137,0,0,,5,,,65,127
200906,note_on,2,0,0,,8,,,68,127
201043,note_off,137,0,0,,8,,,68,127
201043,note_off,0,0,0,,0,,,60,127
201043,note_off,0,0,0,,5,,,53,127
201043,note_off,0,0,0,,8,,,56,127
201046,note_on,3,0,0,,0,,,48,127
201046,note_on,0,0,0,,7,,,55,127
201046,note_on,0,0,0,,0,,,60,127
201046,note_on,0,0,0,,7,,,67,127
201324,note_off,278,0,0,,7,,,67,127
201327,note_on,3,0,0,,4,,,76,127
201327,note_on,0,0,0,,7,,,79,127
201464,note_off,137,0,0,,7,,,79,127
201464,note_off,0,0,0,,4,,,76,127
201464,note_off,0,0,0,,0,,,60,127
201464,note_off,0,0,0,,7,,,55,127
201464,note_off,0,0,0,,0,,,48,127
201467,note_on,3,0,0,,8,,,56,127
201467,note_on,0,0,0,,5,,,53,127
201467,note_on,0,0,0,,0,,,60,127
201467,note_on,0,0,0,,5,,,77,127
201467,note_on,0,0,0,,8,,,80,127
201604,note_off,137,0,0,,8,,,80,127
201604,note_off,0,0,0,,5,,,77,127
201607,note_on,3,0,0,,5,,,65,127
201744,note_off,137,0,0,,5,,,65,127
201747,note_on,3,0,0,,8,,,68,127
201884,note_off,137,0,0,,8,,,68,127
201884,note_off,0,0,0,,0,,,60,127
201884,note_off,0,0,0,,5,,,53,127
201884,note_off,0,0,0,,8,,,56,127
201887,note_on,3,0,0,,0,,,48,127
201887,note_on,0,0,0,,7,,,55,127
201887,note_on,0,0,0,,0,,,60,127
201887,note_on,0,0,0,,7,,,67,127
202165,note_off,278,0,0,,7,,,67,127
202170,note_on,5,0,0,,7,,,79,127
202170,note_on,0,0,0,,11,,,82,127
202306,note_off,136,0,0,,0,,,60,127
202306,note_off,0,0,0,,7,,,55,127
202306,note_off,0,0,0,,0,,,48,127
202307,note_off,1,0,0,,11,,,82,127
202307,note_off,0,0,0,,7,,,79,127
202310,note_on,3,0,0,,5,,,53,127
202310,note_on,0,0,0,,8,,,56,127
202310,note_on,0,0,0,,0,,,60,127
202310,note_on,0,0,0,,0,,,84,127
202310,note_on,0,0,0,,8,,,80,127
202447,note_off,137,0,0,,8,,,80,127
202447,note_off,0,0,0,,0,,,84,127
202450,note_on,3,0,0,,4,,,76,127
202587,note_off,137,0,0,,4,,,76,127
202592,note_on,5,0,0,,7,,,79,127
202728,note_off,136,0,0,,0,,,60,127
202728,note_off,0,0,0,,8,,,56,127
202728,note_off,0,0,0,,5,,,53,127
202729,note_off,1,0,0,,7,,,79,127
202731,note_on,2,0,0,,8,,,44,127
202731,note_on,0,0,0,,8,,,56,127
202731,note_on,0,0,0,,5,,,77,127
202868,note_off,137,0,0,,5,,,77,127
202871,note_on,3,0,0,,0,,,72,127
203008,note_off,137,0,0,,0,,,72,127
203011,note_on,3,0,0,,3,,,75,127
203148,note_off,137,0,0,,3,,,75,127
203148,note_off,0,0,0,,8,,,56,127
203148,note_off,0,0,0,,8,,,44,127
203151,note_on,3,0,0,,11,,,46,127
203151,note_on,0,0,0,,3,,,75,127
203288,note_off,137,0,0,,3,,,75,127
203291,note_on,3,0,0,,1,,,73,127
203428,note_off,137,0,0,,1,,,73,127
203431,note_on,3,0,0,,0,,,72,127
203568,note_off,137,0,0,,0,,,72,127
203568,note_off,0,0,0,,11,,,46,127
203571,note_on,3,0,0,,0,,,48,127
203571,note_on,0,0,0,,11,,,70,127
203708,note_off,137,0,0,,11,,,70,127
203711,note_on,3,0,0,,8,,,68,127
203848,note_off,137,0,0,,8,,,68,127
203853,note_on,5,0,0,,7,,,67,127
203989,note_off,136,0,0,,0,,,48,127
203990,note_off,1,0,0,,7,,,67,127
203993,note_on,3,0,0,,5,,,53,127
203993,note_on,0,0,0,,0,,,60,127
203993,note_on,0,0,0,,5,,,65,127
204271,note_off,278,0,0,,5,,,65,127
204289,note_on,18,0,0,,0,,,84,127
204289,note_on,0,0,0,,10,,,81,127
204411,note_off,122,0,0,,0,,,60,127
204411,note_off,0,0,0,,5,,,53,127
204430,note_on,19,0,0,,0,,,48,127
204430,note_on,0,0,0,,0,,,60,127
204566,note_off,136,0,0,,10,,,81,127
204566,note_off,0,0,0,,0,,,84,127
204569,note_on,3,0,0,,11,,,82,127
204569,note_on,0,0,0,,2,,,86,127
204706,note_off,137,0,0,,2,,,86,127
204706,note_off,0,0,0,,11,,,82,127
204709,note_on,3,0,0,,11,,,82,127
204709,note_on,0,0,0,,7,,,79,127
204847,note_off,138,0,0,,0,,,60,127
204847,note_off,0,0,0,,0,,,48,127
204849,note_on,2,0,0,,0,,,60,127
204849,note_on,0,0,0,,5,,,53,127
204986,note_off,137,0,0,,7,,,79,127
204986,note_off,0,0,0,,11,,,82,127
204989,note_on,3,0,0,,0,,,84,127
204989,note_on,0,0,0,,10,,,81,127
205126,note_off,137,0,0,,10,,,81,127
205126,note_off,0,0,0,,0,,,84,127
205129,note_on,3,0,0,,10,,,81,127
205129,note_on,0,0,0,,5,,,77,127
205266,note_off,137,0,0,,5,,,53,127
205266,note_off,0,0,0,,0,,,60,127
205269,note_on,3,0,0,,0,,,48,127
205269,note_on,0,0,0,,0,,,60,127
205406,note_off,137,0,0,,5,,,77,127
205406,note_off,0,0,0,,10,,,81,127
205409,note_on,3,0,0,,7,,,79,127
205409,note_on,0,0,0,,11,,,82,127
205546,note_off,137,0,0,,11,,,82,127
205546,note_off,0,0,0,,7,,,79,127
205549,note_on,3,0,0,,7,,,79,127
205549,note_on,0,0,0,,4,,,76,127
205686,note_off,137,0,0,,4,,,76,127
205686,note_off,0,0,0,,7,,,79,127
205686,note_off,0,0,0,,0,,,60,127
205686,note_off,0,0,0,,0,,,48,127
205691,note_on,5,0,0,,5,,,77,127
205691,note_on,0,0,0,,0,,,60,127
205691,note_on,0,0,0,,5,,,53,127
205969,note_off,278,0,0,,5,,,77,127
205972,note_on,3,0,0,,0,,,72,127
205972,note_on,0,0,0,,10,,,69,127
206109,note_off,137,0,0,,5,,,53,127
206109,note_off,0,0,0,,0,,,60,127
206112,note_on,3,0,0,,0,,,48,127
206112,note_on,0,0,0,,0,,,60,127
206249,note_off,137,0,0,,10,,,69,127
206249,note_off,0,0,0,,0,,,72,127
206254,note_on,5,0,0,,11,,,70,127
206254,note_on,0,0,0,,2,,,74,127
206391,note_off,137,0,0,,2,,,74,127
206391,note_off,0,0,0,,11,,,70,127
206393,note_on,2,0,0,,11,,,70,127
206393,note_on,0,0,0,,7,,,67,127
206530,note_off,137,0,0,,0,,,60,127
206530,note_off,0,0,0,,0,,,48,127
206533,note_on,3,0,0,,0,,,60,127
206533,note_on,0,0,0,,5,,,53,127
206670,note_off,137,0,0,,7,,,67,127
206670,note_off,0,0,0,,11,,,70,127
206673,note_on,3,0,0,,10,,,69,127
206673,note_on,0,0,0,,0,,,72,127
206810,note_off,137,0,0,,0,,,72,127
206810,note_off,0,0,0,,10,,,69,127
206813,note_on,3,0,0,,10,,,69,127
206813,note_on,0,0,0,,5,,,65,127
206950,note_off,137,0,0,,5,,,53,127
206950,note_off,0,0,0,,0,,,60,127
206953,note_on,3,0,0,,0,,,48,127
206953,note_on,0,0,0,,0,,,60,127
207090,note_off,137,0,0,,5,,,65,127
207090,note_off,0,0,0,,10,,,69,127
207093,note_on,3,0,0,,7,,,67,127
207093,note_on,0,0,0,,11,,,70,127
207230,note_off,137,0,0,,11,,,70,127
207230,note_off,0,0,0,,7,,,67,127
207233,note_on,3,0,0,,7,,,67,127
207233,note_on,0,0,0,,4,,,64,127
207370,note_off,137,0,0,,4,,,64,127
207370,note_off,0,0,0,,7,,,67,127
207370,note_off,0,0,0,,0,,,60,127
207370,note_off,0,0,0,,0,,,48,127
207373,note_on,3,0,0,,5,,,65,127
207373,note_on,0,0,0,,5,,,53,127
207510,note_off,137,0,0,,5,,,65,127
207515,note_on,5,0,0,,7,,,67,127
207652,note_off,137,0,0,,7,,,67,127
207655,note_on,3,0,0,,10,,,69,127
207791,note_off,136,0,0,,5,,,53,127
207792,note_off,1,0,0,,10,,,69,127
207795,note_on,3,0,0,,10,,,69,127
207795,note_on,0,0,0,,10,,,45,127
207932,note_off,137,0,0,,10,,,69,127
207935,note_on,3,0,0,,11,,,70,127
208072,note_off,137,0,0,,11,,,70,127
208077,note_on,5,0,0,,0,,,72,127
208213,note_off,136,0,0,,10,,,45,127
208214,note_off,1,0,0,,0,,,72,127
208216,note_on,2,0,0,,2,,,74,127
208216,note_on,0,0,0,,11,,,46,127
208353,note_off,137,0,0,,2,,,74,127
208356,note_on,3,0,0,,4,,,76,127
208493,note_off,137,0,0,,4,,,76,127
208496,note_on,3,0,0,,5,,,77,127
208633,note_off,137,0,0,,5,,,77,127
208633,note_off,0,0,0,,11,,,46,127
208636,note_on,3,0,0,,10,,,69,127
208636,note_on,0,0,0,,0,,,48,127
208702,note_off,66,0,0,,10,,,69,127
208707,note_on,5,0,0,,7,,,67,127
208773,note_off,66,0,0,,7,,,67,127
208776,note_on,3,0,0,,10,,,69,127
208842,note_off,66,0,0,,10,,,69,127
208847,note_on,5,0,0,,7,,,67,127
208913,note_off,66,0,0,,7,,,67,127
208916,note_on,3,0,0,,10,,,69,127
208982,note_off,66,0,0,,10,,,69,127
208988,note_on,6,0,0,,7,,,67,127
209053,note_off,65,0,0,,0,,,48,127
209054,note_off,1,0,0,,7,,,67,127
209056,note_on,2,0,0,,5,,,65,127
209056,note_on,0,0,0,,5,,,53,127
209193,note_off,137,0,0,,5,,,53,127
209196,note_on,3,0,0,,7,,,55,127
209333,note_off,137,0,0,,7,,,55,127
209338,note_on,5,0,0,,10,,,57,127
209474,note_off,136,0,0,,5,,,65,127
209475,note_off,1,0,0,,10,,,57,127
209478,note_on,3,0,0,,5,,,65,127
209478,note_on,0,0,0,,10,,,57,127
209615,note_off,137,0,0,,10,,,57,127
209615,note_off,0,0,0,,5,,,65,127
209618,note_on,3,0,0,,7,,,67,127
209618,note_on,0,0,0,,11,,,58,127
209755,note_off,137,0,0,,11,,,58,127
209755,note_off,0,0,0,,7,,,67,127
209758,note_on,3,0,0,,10,,,69,127
209758,note_on,0,0,0,,0,,,60,127
209895,note_off,137,0,0,,0,,,60,127
209895,note_off,0,0,0,,10,,,69,127
209900,note_on,5,0,0,,11,,,70,127
209900,note_on,0,0,0,,2,,,62,127
210037,note_off,137,0,0,,2,,,62,127
210037,note_off,0,0,0,,11,,,70,127
210039,note_on,2,0,0,,0,,,72,127
210039,note_on,0,0,0,,4,,,64,127
210176,note_off,137,0,0,,4,,,64,127
210176,note_off,0,0,0,,0,,,72,127
210179,note_on,3,0,0,,2,,,74,127
210179,note_on,0,0,0,,5,,,65,127
210316,note_off,137,0,0,,5,,,65,127
210316,note_off,0,0,0,,2,,,74,127
210319,note_on,3,0,0,,2,,,74,127
210319,note_on,0,0,0,,0,,,36,127
210456,note_off,137,0,0,,2,,,74,127
210459,note_on,3,0,0,,0,,,72,127
210596,note_off,137,0,0,,0,,,72,127
210599,note_on,3,0,0,,11,,,70,127
210736,note_off,137,0,0,,11,,,70,127
210736,note_off,0,0,0,,0,,,36,127
210739,note_on,3,0,0,,10,,,69,127
210739,note_on,0,0,0,,5,,,53,127
210876,note_off,137,0,0,,5,,,53,127
210876,note_off,0,0,0,,10,,,69,127
210879,note_on,3,0,0,,7,,,67,127
210879,note_on,0,0,0,,7,,,55,127
211016,note_off,137,0,0,,7,,,55,127
211016,note_off,0,0,0,,7,,,67,127
211019,note_on,3,0,0,,5,,,65,127
211019,note_on,0,0,0,,10,,,57,127
211156,note_off,137,0,0,,10,,,57,127
211156,note_off,0,0,0,,5,,,65,127
211161,note_on,5,0,0,,5,,,65,127
211161,note_on,0,0,0,,10,,,57,127
211298,note_off,137,0,0,,10,,,57,127
211298,note_off,0,0,0,,5,,,65,127
211301,note_on,3,0,0,,7,,,67,127
211301,note_on,0,0,0,,11,,,58,127
211438,note_off,137,0,0,,11,,,58,127
211438,note_off,0,0,0,,7,,,67,127
211441,note_on,3,0,0,,10,,,69,127
211441,note_on,0,0,0,,0,,,60,127
211578,note_off,137,0,0,,0,,,60,127
211578,note_off,0,0,0,,10,,,69,127
211581,note_on,3,0,0,,11,,,70,127
211581,note_on,0,0,0,,2,,,62,127
211718,note_off,137,0,0,,2,,,62,127
211718,note_off,0,0,0,,11,,,70,127
211723,note_on,5,0,0,,0,,,72,127
211723,note_on,0,0,0,,4,,,64,127
211860,note_off,137,0,0,,4,,,64,127
211860,note_off,0,0,0,,0,,,72,127
211862,note_on,2,0,0,,2,,,74,127
211862,note_on,0,0,0,,5,,,65,127
211999,note_off,137,0,0,,5,,,65,127
211999,note_off,0,0,0,,2,,,74,127
212002,note_on,3,0,0,,2,,,74,127
212002,note_on,0,0,0,,0,,,36,127
212139,note_off,137,0,0,,2,,,74,127
212142,note_on,3,0,0,,0,,,72,127
212279,note_off,137,0,0,,0,,,72,127
212282,note_on,3,0,0,,11,,,70,127
212419,note_off,137,0,0,,11,,,70,127
212419,note_off,0,0,0,,0,,,36,127
212422,note_on,3,0,0,,10,,,69,127
212422,note_on,0,0,0,,5,,,41,127
212559,note_off,137,0,0,,10,,,69,127
212562,note_on,3,0,0,,11,,,70,127
212699,note_off,137,0,0,,11,,,70,127
212702,note_on,3,0,0,,0,,,72,127
212839,note_off,137,0,0,,0,,,72,127
212839,note_off,0,0,0,,5,,,41,127
212842,note_on,3,0,0,,5,,,65,127
212842,note_on,0,0,0,,10,,,45,127
212979,note_off,137,0,0,,5,,,65,127
212984,note_on,5,0,0,,7,,,67,127
213121,note_off,137,0,0,,7,,,67,127
213124,note_on,3,0,0,,10,,,69,127
213260,note_off,136,0,0,,10,,,45,127
213261,note_off,1,0,0,,10,,,69,127
213264,note_on,3,0,0,,2,,,62,127
213264,note_on,0,0,0,,11,,,46,127
213401,note_off,137,0,0,,2,,,62,127
213404,note_on,3,0,0,,2,,,74,127
213404,note_on,0,0,0,,11,,,70,127
213541,note_off,137,0,0,,11,,,70,127
213541,note_off,0,0,0,,2,,,74,127
213546,note_on,5,0,0,,0,,,72,127
213546,note_on,0,0,0,,10,,,69,127
213682,note_off,136,0,0,,11,,,46,127
213683,note_off,1,0,0,,10,,,69,127
213683,note_off,0,0,0,,0,,,72,127
213685,note_on,2,0,0,,7,,,67,127
213685,note_on,0,0,0,,11,,,70,127
213685,note_on,0,0,0,,0,,,48,127
213822,note_off,137,0,0,,11,,,70,127
213822,note_off,0,0,0,,7,,,67,127
213825,note_on,3,0,0,,5,,,65,127
213825,note_on,0,0,0,,10,,,69,127
213962,note_off,137,0,0,,10,,,69,127
213962,note_off,0,0,0,,5,,,65,127
213965,note_on,3,0,0,,7,,,67,127
213965,note_on,0,0,0,,11,,,70,127
214102,note_off,137,0,0,,11,,,70,127
214102,note_off,0,0,0,,7,,,67,127
214102,note_off,0,0,0,,0,,,48,127
214105,note_on,3,0,0,,10,,,69,127
214105,note_on,0,0,0,,5,,,41,127
214242,note_off,137,0,0,,10,,,69,127
214245,note_on,3,0,0,,11,,,70,127
214382,note_off,137,0,0,,11,,,70,127
214385,note_on,3,0,0,,0,,,72,127
214522,note_off,137,0,0,,0,,,72,127
214522,note_off,0,0,0,,5,,,41,127
214525,note_on,3,0,0,,5,,,65,127
214525,note_on,0,0,0,,10,,,45,127
214662,note_off,137,0,0,,5,,,65,127
214665,note_on,3,0,0,,7,,,67,127
214802,note_off,137,0,0,,7,,,67,127
214807,note_on,5,0,0,,10,,,69,127
214943,note_off,136,0,0,,10,,,45,127
214944,note_off,1,0,0,,10,,,69,127
214950,note_on,6,0,0,,11,,,46,127
214950,note_on,0,0,0,,2,,,62,127
215093,note_off,143,0,0,,2,,,62,127
215096,note_on,3,0,0,,2,,,62,127
215096,note_on,0,0,0,,11,,,70,127
215239,note_off,143,0,0,,11,,,70,127
215239,note_off,0,0,0,,2,,,62,127
215244,note_on,5,0,0,,0,,,60,127
215244,note_on,0,0,0,,10,,,69,127
215385,note_off,141,0,0,,11,,,46,127
215387,note_off,2,0,0,,10,,,69,127
215387,note_off,0,0,0,,0,,,60,127
215390,note_on,3,0,0,,0,,,48,127
215390,note_on,0,0,0,,7,,,67,127
215390,note_on,0,0,0,,11,,,58,127
215533,note_off,143,0,0,,11,,,58,127
215533,note_off,0,0,0,,7,,,67,127
215536,note_on,3,0,0,,5,,,65,127
215536,note_on,0,0,0,,10,,,57,127
215679,note_off,143,0,0,,10,,,57,127
215679,note_off,0,0,0,,5,,,65,127
215684,note_on,5,0,0,,7,,,55,127
215684,note_on,0,0,0,,4,,,64,127
215825,note_off,141,0,0,,0,,,48,127
215827,note_off,2,0,0,,4,,,64,127
215827,note_off,0,0,0,,7,,,55,127
215838,note_on,11,0,0,,5,,,41,127
215838,note_on,0,0,0,,4,,,64,127
215838,note_on,0,0,0,,7,,,55,127
216377,note_on,539,0,0,,5,,,65,127
216377,note_on,0,0,0,,5,,,53,127
216384,note_off,7,0,0,,7,,,55,127
216384,note_off,0,0,0,,4,,,64,127
218178,note_off,1794,0,0,,5,,,53,127
218178,note_off,0,0,0,,5,,,65,127
218178,note_off,0,0,0,,5,,,41,127
222720,end_of_track,4542,1,0,,,,,,
