tick,type,time,meta,track,program,channel,pitch,tempo,note,velocity
0,copyright,0,1,0,,,,,,
0,program_change,0,0,0,6,0,,,,
0,pitchwheel,0,0,0,,0,0,,,
0,program_change,0,0,0,6,1,,,,
0,pitchwheel,0,0,0,,1,-590,,,
0,program_change,0,0,0,6,2,,,,
0,pitchwheel,0,0,0,,2,-272,,,
0,program_change,0,0,0,6,3,,,,
0,pitchwheel,0,0,0,,3,-353,,,
0,program_change,0,0,0,6,4,,,,
0,pitchwheel,0,0,0,,4,-560,,,
0,program_change,0,0,0,6,5,,,,
0,pitchwheel,0,0,0,,5,-80,,,
0,program_change,0,0,0,6,6,,,,
0,pitchwheel,0,0,0,,6,-625,,,
0,program_change,0,0,0,6,7,,,,
0,pitchwheel,0,0,0,,7,-130,,,
0,program_change,0,0,0,6,8,,,,
0,pitchwheel,0,0,0,,8,-512,,,
0,program_change,0,0,0,6,10,,,,
0,pitchwheel,0,0,0,,10,-464,,,
0,program_change,0,0,0,6,11,,,,
0,pitchwheel,0,0,0,,11,-208,,,
0,program_change,0,0,0,6,12,,,,
0,pitchwheel,0,0,0,,12,-553,,,
0,set_tempo,0,1,0,,,,500000,,
101,note_on,101,0,0,,4,,,76,127
501,note_off,400,0,0,,4,,,76,127
505,note_on,4,0,0,,4,,,76,127
905,note_off,400,0,0,,4,,,76,127
909,note_on,4,0,0,,12,,,71,127
1309,note_off,400,0,0,,12,,,71,127
1313,note_on,4,0,0,,4,,,76,127
1717,note_on,404,0,0,,4,,,64,127
2092,note_off,375,0,0,,4,,,76,127
2117,note_off,25,0,0,,4,,,64,127
2121,note_on,4,0,0,,8,,,80,127
2121,note_on,0,0,0,,4,,,64,127
2252,note_off,131,0,0,,8,,,80,127
2256,note_on,4,0,0,,10,,,81,127
2387,note_off,131,0,0,,10,,,81,127
2391,note_on,4,0,0,,12,,,83,127
2522,note_off,131,0,0,,12,,,83,127
2522,note_off,0,0,0,,4,,,64,127
2526,note_on,4,0,0,,10,,,81,127
2526,note_on,0,0,0,,12,,,59,127
2657,note_off,131,0,0,,10,,,81,127
2661,note_on,4,0,0,,8,,,80,127
2792,note_off,131,0,0,,8,,,80,127
2796,note_on,4,0,0,,6,,,78,127
2927,note_off,131,0,0,,6,,,78,127
2927,note_off,0,0,0,,12,,,59,127
2931,note_on,4,0,0,,8,,,80,127
2931,note_on,0,0,0,,4,,,64,127
3062,note_off,131,0,0,,8,,,80,127
3066,note_on,4,0,0,,6,,,78,127
3197,note_off,131,0,0,,6,,,78,127
3201,note_on,4,0,0,,4,,,76,127
3332,note_off,131,0,0,,4,,,76,127
3336,note_on,4,0,0,,4,,,76,127
3736,note_off,400,0,0,,4,,,64,127
3740,note_on,4,0,0,,8,,,68,127
3871,note_off,131,0,0,,8,,,68,127
3875,note_on,4,0,0,,10,,,69,127
4006,note_off,131,0,0,,10,,,69,127
4010,note_on,4,0,0,,12,,,71,127
4141,note_off,131,0,0,,12,,,71,127
4141,note_off,0,0,0,,4,,,76,127
4145,note_on,4,0,0,,3,,,75,127
4145,note_on,0,0,0,,10,,,69,127
4276,note_off,131,0,0,,10,,,69,127
4280,note_on,4,0,0,,8,,,68,127
4411,note_off,131,0,0,,8,,,68,127
4415,note_on,4,0,0,,6,,,66,127
4546,note_off,131,0,0,,6,,,66,127
4546,note_off,0,0,0,,3,,,75,127
4550,note_on,4,0,0,,4,,,76,127
4550,note_on,0,0,0,,8,,,68,127
4681,note_off,131,0,0,,8,,,68,127
4685,note_on,4,0,0,,6,,,66,127
4816,note_off,131,0,0,,6,,,66,127
4820,note_on,4,0,0,,4,,,64,127
4951,note_off,131,0,0,,4,,,64,127
4955,note_on,4,0,0,,4,,,64,127
5355,note_off,400,0,0,,4,,,76,127
5359,note_on,4,0,0,,8,,,80,127
5490,note_off,131,0,0,,8,,,80,127
5494,note_on,4,0,0,,10,,,81,127
5625,note_off,131,0,0,,10,,,81,127
5629,note_on,4,0,0,,12,,,83,127
5760,note_off,131,0,0,,12,,,83,127
5760,note_off,0,0,0,,4,,,64,127
5764,note_on,4,0,0,,10,,,81,127
5764,note_on,0,0,0,,12,,,59,127
5895,note_off,131,0,0,,10,,,81,127
5899,note_on,4,0,0,,8,,,80,127
6030,note_off,131,0,0,,8,,,80,127
6034,note_on,4,0,0,,6,,,78,127
6165,note_off,131,0,0,,6,,,78,127
6165,note_off,0,0,0,,12,,,59,127
6169,note_on,4,0,0,,8,,,80,127
6169,note_on,0,0,0,,4,,,52,127
6300,note_off,131,0,0,,8,,,80,127
6304,note_on,4,0,0,,6,,,78,127
6435,note_off,131,0,0,,6,,,78,127
6439,note_on,4,0,0,,4,,,76,127
6570,note_off,131,0,0,,4,,,76,127
6574,note_on,4,0,0,,12,,,71,127
6970,note_off,396,0,0,,4,,,52,127
6974,note_off,4,0,0,,12,,,71,127
6978,note_on,4,0,0,,0,,,72,127
7378,note_off,400,0,0,,0,,,72,127
7382,note_on,4,0,0,,1,,,73,127
7382,note_on,0,0,0,,10,,,69,127
7782,note_off,400,0,0,,1,,,73,127
7786,note_on,4,0,0,,4,,,76,127
7984,note_off,198,0,0,,4,,,76,127
7988,note_on,4,0,0,,3,,,75,127
8186,note_off,198,0,0,,3,,,75,127
8186,note_off,0,0,0,,10,,,69,127
8190,note_on,4,0,0,,6,,,78,127
8190,note_on,0,0,0,,8,,,68,127
8388,note_off,198,0,0,,6,,,78,127
8392,note_on,4,0,0,,4,,,76,127
8590,note_off,198,0,0,,4,,,76,127
8590,note_off,0,0,0,,8,,,68,127
8594,note_on,4,0,0,,12,,,71,127
8594,note_on,0,0,0,,6,,,66,127
8994,note_off,400,0,0,,6,,,66,127
8998,note_on,4,0,0,,12,,,59,127
9057,note_off,59,0,0,,12,,,71,127
9065,note_on,8,0,0,,10,,,69,127
9132,note_on,67,0,0,,12,,,71,127
9164,note_off,32,0,0,,10,,,69,127
9200,note_on,36,0,0,,10,,,69,127
9232,note_off,32,0,0,,12,,,71,127
9268,note_on,36,0,0,,12,,,71,127
9300,note_off,32,0,0,,10,,,69,127
9336,note_on,36,0,0,,10,,,69,127
9368,note_off,32,0,0,,12,,,71,127
9400,note_off,32,0,0,,12,,,59,127
9404,note_on,4,0,0,,8,,,68,127
9404,note_on,0,0,0,,4,,,64,127
9436,note_off,32,0,0,,10,,,69,127
9804,note_off,368,0,0,,4,,,64,127
9817,note_on,13,0,0,,4,,,52,127
10259,note_on,442,0,0,,4,,,40,127
10415,note_off,156,0,0,,8,,,68,127
10617,note_off,202,0,0,,4,,,52,127
10668,note_on,51,0,0,,12,,,71,127
11060,note_off,392,0,0,,4,,,40,127
11089,note_on,29,0,0,,8,,,80,127
11095,note_off,6,0,0,,12,,,71,127
11287,note_off,192,0,0,,8,,,80,127
11291,note_on,4,0,0,,11,,,82,127
11489,note_off,198,0,0,,11,,,82,127
11493,note_on,4,0,0,,11,,,82,127
11493,note_on,0,0,0,,4,,,64,127
11495,note_on,2,0,0,,12,,,71,127
11691,note_off,196,0,0,,11,,,82,127
11695,note_on,4,0,0,,12,,,83,127
11893,note_off,198,0,0,,12,,,83,127
11893,note_off,0,0,0,,4,,,64,127
11895,note_off,2,0,0,,12,,,71,127
11897,note_on,2,0,0,,12,,,83,127
11897,note_on,0,0,0,,4,,,64,127
11899,note_on,2,0,0,,12,,,71,127
12297,note_off,398,0,0,,4,,,64,127
12297,note_off,0,0,0,,12,,,83,127
12299,note_off,2,0,0,,12,,,71,127
12301,note_on,2,0,0,,11,,,82,127
12301,note_on,0,0,0,,4,,,64,127
12303,note_on,2,0,0,,12,,,71,127
12398,note_off,95,0,0,,11,,,82,127
12402,note_on,4,0,0,,8,,,80,127
12499,note_off,97,0,0,,8,,,80,127
12503,note_on,4,0,0,,6,,,78,127
12600,note_off,97,0,0,,6,,,78,127
12604,note_on,4,0,0,,4,,,76,127
12701,note_off,97,0,0,,4,,,76,127
12705,note_on,4,0,0,,6,,,78,127
12903,note_off,198,0,0,,6,,,78,127
12907,note_off,4,0,0,,4,,,64,127
12907,note_on,0,0,0,,8,,,80,127
12909,note_off,2,0,0,,12,,,71,127
13105,note_off,196,0,0,,8,,,80,127
13109,note_on,4,0,0,,8,,,80,127
13109,note_on,0,0,0,,3,,,63,127
13111,note_on,2,0,0,,6,,,66,127
13113,note_on,2,0,0,,12,,,71,127
13307,note_off,194,0,0,,8,,,80,127
13311,note_on,4,0,0,,11,,,82,127
13509,note_off,198,0,0,,11,,,82,127
13509,note_off,0,0,0,,3,,,63,127
13511,note_off,2,0,0,,6,,,66,127
13513,note_off,2,0,0,,12,,,71,127
13513,note_on,0,0,0,,11,,,82,127
13513,note_on,0,0,0,,3,,,63,127
13515,note_on,2,0,0,,6,,,66,127
13517,note_on,2,0,0,,12,,,71,127
13913,note_off,396,0,0,,3,,,63,127
13913,note_off,0,0,0,,11,,,82,127
13915,note_off,2,0,0,,6,,,66,127
13917,note_off,2,0,0,,12,,,71,127
13917,note_on,0,0,0,,8,,,80,127
13917,note_on,0,0,0,,3,,,63,127
13919,note_on,2,0,0,,6,,,66,127
13921,note_on,2,0,0,,12,,,71,127
14014,note_off,93,0,0,,8,,,80,127
14018,note_on,4,0,0,,6,,,78,127
14115,note_off,97,0,0,,6,,,78,127
14119,note_on,4,0,0,,4,,,76,127
14216,note_off,97,0,0,,4,,,76,127
14220,note_on,4,0,0,,3,,,75,127
14317,note_off,97,0,0,,3,,,75,127
14321,note_on,4,0,0,,4,,,76,127
14464,note_off,143,0,0,,3,,,63,127
14466,note_off,2,0,0,,6,,,66,127
14468,note_off,2,0,0,,12,,,71,127
14519,note_off,51,0,0,,4,,,76,127
14523,note_on,4,0,0,,6,,,78,127
14721,note_off,198,0,0,,6,,,78,127
14725,note_on,4,0,0,,6,,,78,127
14725,note_on,0,0,0,,1,,,61,127
14727,note_on,2,0,0,,12,,,71,127
14923,note_off,196,0,0,,6,,,78,127
14927,note_on,4,0,0,,8,,,80,127
15125,note_off,198,0,0,,8,,,80,127
15125,note_off,0,0,0,,1,,,61,127
15127,note_off,2,0,0,,12,,,71,127
15129,note_on,2,0,0,,8,,,80,127
15129,note_on,0,0,0,,1,,,61,127
15131,note_on,2,0,0,,12,,,71,127
15529,note_off,398,0,0,,1,,,61,127
15529,note_off,0,0,0,,8,,,80,127
15531,note_off,2,0,0,,12,,,71,127
15533,note_on,2,0,0,,6,,,78,127
15533,note_on,0,0,0,,1,,,61,127
15535,note_on,2,0,0,,11,,,70,127
15630,note_off,95,0,0,,6,,,78,127
15634,note_on,4,0,0,,4,,,76,127
15731,note_off,97,0,0,,4,,,76,127
15735,note_on,4,0,0,,3,,,75,127
15832,note_off,97,0,0,,3,,,75,127
15836,note_on,4,0,0,,1,,,73,127
15933,note_off,97,0,0,,1,,,73,127
15937,note_on,4,0,0,,3,,,75,127
16038,note_off,101,0,0,,1,,,61,127
16040,note_off,2,0,0,,11,,,70,127
16135,note_off,95,0,0,,3,,,75,127
16139,note_on,4,0,0,,4,,,76,127
16337,note_off,198,0,0,,4,,,76,127
16341,note_on,4,0,0,,4,,,76,127
16341,note_on,0,0,0,,12,,,59,127
16343,note_on,2,0,0,,3,,,63,127
16345,note_on,2,0,0,,6,,,66,127
16539,note_off,194,0,0,,4,,,76,127
16543,note_on,4,0,0,,6,,,78,127
16741,note_off,198,0,0,,6,,,78,127
16741,note_off,0,0,0,,12,,,59,127
16743,note_off,2,0,0,,3,,,63,127
16745,note_off,2,0,0,,6,,,66,127
16745,note_on,0,0,0,,6,,,78,127
16745,note_on,0,0,0,,12,,,59,127
16747,note_on,2,0,0,,3,,,63,127
16749,note_on,2,0,0,,6,,,66,127
17145,note_off,396,0,0,,12,,,59,127
17145,note_off,0,0,0,,6,,,78,127
17147,note_off,2,0,0,,3,,,63,127
17149,note_off,2,0,0,,6,,,66,127
17149,note_on,0,0,0,,12,,,71,127
17149,note_on,0,0,0,,12,,,59,127
17151,note_on,2,0,0,,3,,,63,127
17153,note_on,2,0,0,,6,,,66,127
17549,note_off,396,0,0,,12,,,71,127
17553,note_on,4,0,0,,1,,,73,127
17751,note_off,198,0,0,,1,,,73,127
17755,note_off,4,0,0,,12,,,59,127
17755,note_on,0,0,0,,3,,,75,127
17757,note_off,2,0,0,,3,,,63,127
17759,note_off,2,0,0,,6,,,66,127
17953,note_off,194,0,0,,3,,,75,127
17957,note_on,4,0,0,,4,,,76,127
17957,note_on,0,0,0,,11,,,58,127
17959,note_on,2,0,0,,4,,,64,127
17961,note_on,2,0,0,,6,,,66,127
18155,note_off,194,0,0,,4,,,76,127
18159,note_on,4,0,0,,5,,,77,127
18357,note_off,198,0,0,,5,,,77,127
18357,note_off,0,0,0,,11,,,58,127
18359,note_off,2,0,0,,4,,,64,127
18361,note_off,2,0,0,,6,,,66,127
18361,note_on,0,0,0,,5,,,77,127
18361,note_on,0,0,0,,11,,,58,127
18363,note_on,2,0,0,,4,,,64,127
18365,note_on,2,0,0,,6,,,66,127
18458,note_off,93,0,0,,5,,,77,127
18462,note_on,4,0,0,,6,,,78,127
18559,note_off,97,0,0,,6,,,78,127
18563,note_on,4,0,0,,8,,,80,127
18660,note_off,97,0,0,,8,,,80,127
18664,note_on,4,0,0,,6,,,78,127
18761,note_off,97,0,0,,11,,,58,127
18763,note_off,2,0,0,,4,,,64,127
18765,note_off,2,0,0,,6,,,66,127
18765,note_on,0,0,0,,11,,,58,127
18767,note_on,2,0,0,,4,,,64,127
18769,note_on,2,0,0,,6,,,66,127
18963,note_off,194,0,0,,6,,,78,127
18967,note_on,4,0,0,,4,,,76,127
19165,note_off,198,0,0,,4,,,76,127
19169,note_on,4,0,0,,3,,,75,127
19266,note_off,97,0,0,,3,,,75,127
19270,note_off,4,0,0,,11,,,58,127
19270,note_on,0,0,0,,1,,,73,127
19272,note_off,2,0,0,,4,,,64,127
19274,note_off,2,0,0,,6,,,66,127
19367,note_off,93,0,0,,1,,,73,127
19371,note_on,4,0,0,,12,,,71,127
19569,note_off,198,0,0,,12,,,71,127
19573,note_on,4,0,0,,1,,,73,127
19573,note_on,0,0,0,,12,,,59,127
19575,note_on,2,0,0,,3,,,63,127
19577,note_on,2,0,0,,6,,,66,127
19670,note_off,93,0,0,,1,,,73,127
19674,note_on,4,0,0,,12,,,71,127
19771,note_off,97,0,0,,12,,,71,127
19775,note_on,4,0,0,,11,,,70,127
19973,note_off,198,0,0,,11,,,70,127
19973,note_off,0,0,0,,12,,,59,127
19975,note_off,2,0,0,,3,,,63,127
19977,note_off,2,0,0,,6,,,66,127
19977,note_on,0,0,0,,12,,,71,127
19977,note_on,0,0,0,,12,,,59,127
19979,note_on,2,0,0,,3,,,63,127
19981,note_on,2,0,0,,6,,,66,127
20377,note_off,396,0,0,,12,,,59,127
20377,note_off,0,0,0,,12,,,71,127
20379,note_off,2,0,0,,3,,,63,127
20381,note_off,2,0,0,,6,,,66,127
20381,note_on,0,0,0,,12,,,71,127
20381,note_on,0,0,0,,12,,,59,127
20383,note_on,2,0,0,,3,,,63,127
20385,note_on,2,0,0,,6,,,66,127
20781,note_off,396,0,0,,12,,,71,127
20785,note_on,4,0,0,,1,,,73,127
20983,note_off,198,0,0,,1,,,73,127
20987,note_off,4,0,0,,12,,,59,127
20987,note_on,0,0,0,,3,,,75,127
20989,note_off,2,0,0,,3,,,63,127
20991,note_off,2,0,0,,6,,,66,127
21185,note_off,194,0,0,,3,,,75,127
21189,note_on,4,0,0,,4,,,76,127
21189,note_on,0,0,0,,11,,,58,127
21191,note_on,2,0,0,,4,,,64,127
21193,note_on,2,0,0,,6,,,66,127
21387,note_off,194,0,0,,4,,,76,127
21391,note_on,4,0,0,,5,,,77,127
21589,note_off,198,0,0,,5,,,77,127
21589,note_off,0,0,0,,11,,,58,127
21591,note_off,2,0,0,,4,,,64,127
21593,note_off,2,0,0,,6,,,66,127
21593,note_on,0,0,0,,5,,,77,127
21593,note_on,0,0,0,,11,,,58,127
21595,note_on,2,0,0,,4,,,64,127
21597,note_on,2,0,0,,6,,,66,127
21690,note_off,93,0,0,,5,,,77,127
21694,note_on,4,0,0,,6,,,78,127
21791,note_off,97,0,0,,6,,,78,127
21795,note_on,4,0,0,,8,,,80,127
21892,note_off,97,0,0,,8,,,80,127
21896,note_on,4,0,0,,6,,,78,127
21993,note_off,97,0,0,,11,,,58,127
21995,note_off,2,0,0,,4,,,64,127
21997,note_off,2,0,0,,6,,,66,127
21997,note_on,0,0,0,,11,,,58,127
21999,note_on,2,0,0,,4,,,64,127
22001,note_on,2,0,0,,6,,,66,127
22195,note_off,194,0,0,,6,,,78,127
22199,note_on,4,0,0,,4,,,76,127
22397,note_off,198,0,0,,4,,,76,127
22397,note_off,0,0,0,,11,,,58,127
22399,note_off,2,0,0,,4,,,64,127
22401,note_off,2,0,0,,6,,,66,127
22401,note_on,0,0,0,,12,,,59,127
22401,note_on,0,0,0,,3,,,75,127
22599,note_off,198,0,0,,3,,,75,127
22612,note_on,13,0,0,,12,,,83,127
22823,note_on,211,0,0,,12,,,47,127
23034,note_off,211,0,0,,12,,,83,127
23034,note_on,0,0,0,,6,,,78,127
23223,note_off,189,0,0,,12,,,47,127
23244,note_on,21,0,0,,12,,,47,127
23455,note_off,211,0,0,,6,,,78,127
23455,note_on,0,0,0,,3,,,75,127
23644,note_off,189,0,0,,12,,,47,127
23665,note_on,21,0,0,,12,,,47,127
23876,note_off,211,0,0,,3,,,75,127
23876,note_on,0,0,0,,12,,,71,127
24065,note_off,189,0,0,,12,,,47,127
24086,note_on,21,0,0,,12,,,47,127
24297,note_off,211,0,0,,12,,,71,127
24297,note_on,0,0,0,,6,,,66,127
24486,note_off,189,0,0,,12,,,47,127
24507,note_on,21,0,0,,12,,,47,127
24718,note_off,211,0,0,,6,,,66,127
24718,note_on,0,0,0,,3,,,63,127
24823,note_off,105,0,0,,12,,,59,127
24907,note_off,84,0,0,,12,,,47,127
24928,note_on,21,0,0,,12,,,47,127
25139,note_off,211,0,0,,3,,,63,127
25139,note_on,0,0,0,,12,,,59,127
25328,note_off,189,0,0,,12,,,47,127
25349,note_on,21,0,0,,12,,,47,127
25560,note_off,211,0,0,,12,,,59,127
25560,note_on,0,0,0,,6,,,54,127
25848,note_on,288,0,0,,12,,,35,127
25981,note_off,133,0,0,,6,,,54,127
26754,note_off,773,0,0,,12,,,47,127
27343,note_off,589,0,0,,12,,,35,127
27402,note_on,59,0,0,,3,,,87,127
27808,note_on,406,0,0,,3,,,75,127
28191,note_off,383,0,0,,3,,,75,127
28197,note_on,6,0,0,,11,,,46,127
28197,note_on,0,0,0,,5,,,53,127
28197,note_on,0,0,0,,8,,,56,127
28197,note_on,0,0,0,,2,,,74,127
28201,note_off,4,0,0,,3,,,87,127
28580,note_off,379,0,0,,2,,,74,127
28584,note_on,4,0,0,,11,,,82,127
28773,note_off,189,0,0,,11,,,82,127
28779,note_on,6,0,0,,8,,,80,127
28968,note_off,189,0,0,,8,,,80,127
28972,note_on,4,0,0,,8,,,80,127
29161,note_off,189,0,0,,8,,,80,127
29165,note_on,4,0,0,,6,,,78,127
29354,note_off,189,0,0,,6,,,78,127
29354,note_off,0,0,0,,8,,,56,127
29354,note_off,0,0,0,,5,,,53,127
29354,note_off,0,0,0,,11,,,46,127
29360,note_on,6,0,0,,11,,,46,127
29360,note_on,0,0,0,,6,,,78,127
29549,note_off,189,0,0,,6,,,78,127
29553,note_on,4,0,0,,5,,,77,127
29738,note_off,185,0,0,,5,,,77,127
29742,note_off,4,0,0,,11,,,46,127
29746,note_on,4,0,0,,3,,,51,127
29746,note_on,0,0,0,,11,,,58,127
29746,note_on,0,0,0,,5,,,77,127
29824,note_on,78,0,0,,6,,,78,127
29839,note_off,15,0,0,,5,,,77,127
29900,note_on,61,0,0,,8,,,80,127
29917,note_off,17,0,0,,6,,,78,127
29978,note_on,61,0,0,,6,,,78,127
29993,note_off,15,0,0,,8,,,80,127
30054,note_on,61,0,0,,8,,,80,127
30071,note_off,17,0,0,,6,,,78,127
30130,note_off,59,0,0,,11,,,58,127
30130,note_off,0,0,0,,3,,,51,127
30136,note_on,6,0,0,,6,,,78,127
30136,note_on,0,0,0,,12,,,59,127
30136,note_on,0,0,0,,8,,,56,127
30147,note_off,11,0,0,,8,,,80,127
30212,note_on,65,0,0,,8,,,80,127
30229,note_off,17,0,0,,6,,,78,127
30290,note_on,61,0,0,,6,,,78,127
30305,note_off,15,0,0,,8,,,80,127
30366,note_on,61,0,0,,5,,,77,127
30383,note_off,17,0,0,,6,,,78,127
30444,note_on,61,0,0,,3,,,75,127
30459,note_off,15,0,0,,5,,,77,127
30520,note_off,61,0,0,,3,,,75,127
30520,note_off,0,0,0,,8,,,56,127
30520,note_off,0,0,0,,12,,,59,127
30524,note_on,4,0,0,,11,,,58,127
30524,note_on,0,0,0,,2,,,74,127
30713,note_off,189,0,0,,2,,,74,127
30719,note_on,6,0,0,,3,,,75,127
30906,note_off,187,0,0,,11,,,58,127
30908,note_off,2,0,0,,3,,,75,127
30912,note_on,4,0,0,,12,,,59,127
30912,note_on,0,0,0,,5,,,77,127
31005,note_off,93,0,0,,5,,,77,127
31009,note_on,4,0,0,,3,,,75,127
31102,note_off,93,0,0,,3,,,75,127
31106,note_on,4,0,0,,2,,,74,127
31199,note_off,93,0,0,,2,,,74,127
31205,note_on,6,0,0,,3,,,75,127
31296,note_off,91,0,0,,12,,,59,127
31298,note_off,2,0,0,,3,,,75,127
31302,note_on,4,0,0,,11,,,58,127
31302,note_on,0,0,0,,5,,,77,127
31645,note_off,343,0,0,,5,,,77,127
31685,note_off,40,0,0,,11,,,58,127
31689,note_on,4,0,0,,5,,,65,127
31689,note_on,0,0,0,,2,,,62,127
31689,note_on,0,0,0,,11,,,70,127
32072,note_off,383,0,0,,2,,,62,127
32072,note_off,0,0,0,,5,,,65,127
32078,note_on,6,0,0,,3,,,63,127
32078,note_on,0,0,0,,6,,,66,127
32461,note_off,383,0,0,,6,,,66,127
32461,note_off,0,0,0,,3,,,63,127
32461,note_off,0,0,0,,11,,,70,127
32467,note_on,6,0,0,,5,,,65,127
32467,note_on,0,0,0,,2,,,62,127
32467,note_on,0,0,0,,12,,,71,127
32850,note_off,383,0,0,,12,,,71,127
32850,note_off,0,0,0,,2,,,62,127
32850,note_off,0,0,0,,5,,,65,127
32854,note_on,4,0,0,,6,,,66,127
32854,note_on,0,0,0,,3,,,63,127
32854,note_on,0,0,0,,11,,,70,127
33237,note_off,383,0,0,,11,,,70,127
33237,note_off,0,0,0,,3,,,63,127
33237,note_off,0,0,0,,6,,,66,127
33243,note_on,6,0,0,,5,,,65,127
33243,note_on,0,0,0,,2,,,62,127
33243,note_on,0,0,0,,8,,,80,127
33432,note_off,189,0,0,,8,,,80,127
33436,note_on,4,0,0,,5,,,77,127
33625,note_off,189,0,0,,5,,,77,127
33625,note_off,0,0,0,,2,,,62,127
33625,note_off,0,0,0,,5,,,65,127
33629,note_on,4,0,0,,6,,,66,127
33629,note_on,0,0,0,,3,,,63,127
33629,note_on,0,0,0,,6,,,78,127
33818,note_off,189,0,0,,6,,,78,127
33824,note_on,6,0,0,,5,,,77,127
34011,note_off,187,0,0,,3,,,63,127
34011,note_off,0,0,0,,6,,,66,127
34013,note_off,2,0,0,,5,,,77,127
34017,note_on,4,0,0,,5,,,65,127
34017,note_on,0,0,0,,2,,,62,127
34017,note_on,0,0,0,,11,,,82,127
34206,note_off,189,0,0,,11,,,82,127
34210,note_on,4,0,0,,8,,,80,127
34399,note_off,189,0,0,,8,,,80,127
34399,note_off,0,0,0,,2,,,62,127
34399,note_off,0,0,0,,5,,,65,127
34405,note_on,6,0,0,,6,,,66,127
34405,note_on,0,0,0,,3,,,63,127
34405,note_on,0,0,0,,8,,,80,127
34405,note_on,0,0,0,,6,,,78,127
34594,note_off,189,0,0,,6,,,78,127
34594,note_off,0,0,0,,8,,,80,127
34598,note_on,4,0,0,,5,,,77,127
34787,note_off,189,0,0,,5,,,77,127
34787,note_off,0,0,0,,3,,,63,127
34787,note_off,0,0,0,,6,,,66,127
34791,note_on,4,0,0,,5,,,65,127
34791,note_on,0,0,0,,2,,,62,127
34791,note_on,0,0,0,,11,,,70,127
35174,note_off,383,0,0,,2,,,62,127
35174,note_off,0,0,0,,5,,,65,127
35180,note_on,6,0,0,,6,,,66,127
35180,note_on,0,0,0,,3,,,63,127
35563,note_off,383,0,0,,3,,,63,127
35563,note_off,0,0,0,,6,,,66,127
35563,note_off,0,0,0,,11,,,70,127
35567,note_on,4,0,0,,2,,,62,127
35567,note_on,0,0,0,,5,,,65,127
35567,note_on,0,0,0,,12,,,71,127
35950,note_off,383,0,0,,12,,,71,127
35950,note_off,0,0,0,,5,,,65,127
35950,note_off,0,0,0,,2,,,62,127
35956,note_on,6,0,0,,6,,,66,127
35956,note_on,0,0,0,,3,,,63,127
35956,note_on,0,0,0,,11,,,70,127
36339,note_off,383,0,0,,11,,,70,127
36339,note_off,0,0,0,,3,,,63,127
36339,note_off,0,0,0,,6,,,66,127
36345,note_on,6,0,0,,2,,,62,127
36345,note_on,0,0,0,,5,,,65,127
36345,note_on,0,0,0,,8,,,80,127
36534,note_off,189,0,0,,8,,,80,127
36538,note_on,4,0,0,,5,,,77,127
36727,note_off,189,0,0,,5,,,77,127
36727,note_off,0,0,0,,5,,,65,127
36727,note_off,0,0,0,,2,,,62,127
36731,note_on,4,0,0,,3,,,63,127
36731,note_on,0,0,0,,6,,,66,127
36731,note_on,0,0,0,,6,,,78,127
36920,note_off,189,0,0,,6,,,78,127
36926,note_on,6,0,0,,5,,,77,127
37113,note_off,187,0,0,,6,,,66,127
37113,note_off,0,0,0,,3,,,63,127
37115,note_off,2,0,0,,5,,,77,127
37119,note_on,4,0,0,,5,,,65,127
37119,note_on,0,0,0,,2,,,62,127
37119,note_on,0,0,0,,11,,,82,127
37308,note_off,189,0,0,,11,,,82,127
37312,note_on,4,0,0,,8,,,80,127
37501,note_off,189,0,0,,8,,,80,127
37501,note_off,0,0,0,,2,,,62,127
37501,note_off,0,0,0,,5,,,65,127
37507,note_on,6,0,0,,3,,,63,127
37507,note_on,0,0,0,,6,,,66,127
37507,note_on,0,0,0,,8,,,80,127
37507,note_on,0,0,0,,6,,,78,127
37696,note_off,189,0,0,,6,,,78,127
37696,note_off,0,0,0,,8,,,80,127
37700,note_on,4,0,0,,5,,,77,127
37889,note_off,189,0,0,,5,,,77,127
37893,note_on,4,0,0,,3,,,75,127
38082,note_off,189,0,0,,3,,,75,127
38086,note_on,4,0,0,,5,,,77,127
38275,note_off,189,0,0,,5,,,77,127
38277,note_off,2,0,0,,6,,,66,127
38277,note_off,0,0,0,,3,,,63,127
38281,note_on,4,0,0,,3,,,51,127
38281,note_on,0,0,0,,6,,,78,127
38475,note_on,194,0,0,,8,,,56,127
38664,note_off,189,0,0,,8,,,56,127
38664,note_off,0,0,0,,6,,,78,127
38668,note_on,4,0,0,,11,,,58,127
38668,note_on,0,0,0,,6,,,78,127
38857,note_off,189,0,0,,11,,,58,127
38863,note_on,6,0,0,,0,,,60,127
39048,note_off,185,0,0,,3,,,51,127
39050,note_off,2,0,0,,6,,,78,127
39052,note_off,2,0,0,,0,,,60,127
39056,note_on,4,0,0,,1,,,61,127
39056,note_on,0,0,0,,1,,,49,127
39056,note_on,0,0,0,,8,,,80,127
39149,note_off,93,0,0,,8,,,80,127
39153,note_on,4,0,0,,6,,,78,127
39246,note_off,93,0,0,,6,,,78,127
39250,note_on,4,0,0,,5,,,77,127
39343,note_off,93,0,0,,5,,,77,127
39347,note_on,4,0,0,,3,,,75,127
39440,note_off,93,0,0,,3,,,75,127
39440,note_off,0,0,0,,1,,,61,127
39446,note_on,6,0,0,,1,,,61,127
39446,note_on,0,0,0,,5,,,77,127
39635,note_off,189,0,0,,5,,,77,127
39637,note_off,2,0,0,,1,,,49,127
39639,note_on,2,0,0,,6,,,78,127
39828,note_off,189,0,0,,6,,,78,127
39828,note_off,0,0,0,,1,,,61,127
39832,note_on,4,0,0,,8,,,56,127
39832,note_on,0,0,0,,8,,,80,127
40028,note_on,196,0,0,,1,,,61,127
40215,note_off,187,0,0,,8,,,80,127
40217,note_off,2,0,0,,1,,,61,127
40221,note_on,4,0,0,,3,,,63,127
40221,note_on,0,0,0,,12,,,71,127
40410,note_off,189,0,0,,3,,,63,127
40414,note_on,4,0,0,,5,,,65,127
40599,note_off,185,0,0,,8,,,56,127
40603,note_off,4,0,0,,5,,,65,127
40603,note_off,0,0,0,,12,,,71,127
40607,note_on,4,0,0,,6,,,54,127
40607,note_on,0,0,0,,1,,,73,127
40700,note_off,93,0,0,,1,,,73,127
40706,note_on,6,0,0,,12,,,71,127
40799,note_off,93,0,0,,12,,,71,127
40803,note_on,4,0,0,,11,,,70,127
40896,note_off,93,0,0,,11,,,70,127
40900,note_on,4,0,0,,8,,,68,127
40993,note_off,93,0,0,,8,,,68,127
40997,note_on,4,0,0,,6,,,66,127
40997,note_on,0,0,0,,11,,,70,127
41186,note_off,189,0,0,,11,,,70,127
41190,note_on,4,0,0,,12,,,71,127
41274,note_off,84,0,0,,6,,,54,127
41379,note_off,105,0,0,,12,,,71,127
41379,note_off,0,0,0,,6,,,66,127
41385,note_on,6,0,0,,1,,,61,127
41385,note_on,0,0,0,,1,,,73,127
41574,note_off,189,0,0,,1,,,73,127
41578,note_on,4,0,0,,6,,,66,127
41578,note_on,0,0,0,,3,,,75,127
41767,note_off,189,0,0,,3,,,75,127
41767,note_off,0,0,0,,6,,,66,127
41771,note_on,4,0,0,,8,,,68,127
41771,note_on,0,0,0,,4,,,76,127
41960,note_off,189,0,0,,8,,,68,127
41966,note_on,6,0,0,,11,,,70,127
42151,note_off,185,0,0,,1,,,61,127
42153,note_off,2,0,0,,4,,,76,127
42155,note_off,2,0,0,,11,,,70,127
42159,note_on,4,0,0,,12,,,59,127
42159,note_on,0,0,0,,6,,,78,127
42252,note_off,93,0,0,,6,,,78,127
42256,note_on,4,0,0,,4,,,76,127
42349,note_off,93,0,0,,4,,,76,127
42353,note_on,4,0,0,,3,,,75,127
42446,note_off,93,0,0,,3,,,75,127
42450,note_on,4,0,0,,1,,,73,127
42543,note_off,93,0,0,,1,,,73,127
42549,note_on,6,0,0,,12,,,71,127
42549,note_on,0,0,0,,3,,,75,127
42738,note_off,189,0,0,,3,,,75,127
42742,note_on,4,0,0,,4,,,76,127
42931,note_off,189,0,0,,4,,,76,127
42931,note_off,0,0,0,,12,,,71,127
42935,note_on,4,0,0,,3,,,63,127
42935,note_on,0,0,0,,6,,,78,127
43124,note_off,189,0,0,,6,,,78,127
43128,note_off,4,0,0,,12,,,59,127
43128,note_on,0,0,0,,12,,,71,127
43317,note_off,189,0,0,,12,,,71,127
43317,note_off,0,0,0,,3,,,63,127
43323,note_on,6,0,0,,12,,,59,127
43323,note_on,0,0,0,,12,,,83,127
43512,note_off,189,0,0,,12,,,83,127
43516,note_on,4,0,0,,11,,,82,127
43705,note_off,189,0,0,,11,,,82,127
43705,note_off,0,0,0,,12,,,59,127
43709,note_on,4,0,0,,4,,,64,127
43709,note_on,0,0,0,,12,,,71,127
43709,note_on,0,0,0,,12,,,83,127
43709,note_on,0,0,0,,11,,,82,127
43898,note_off,189,0,0,,11,,,82,127
43898,note_off,0,0,0,,12,,,83,127
43904,note_on,6,0,0,,8,,,80,127
44091,note_off,187,0,0,,12,,,71,127
44091,note_off,0,0,0,,4,,,64,127
44093,note_off,2,0,0,,8,,,80,127
44097,note_on,4,0,0,,3,,,63,127
44097,note_on,0,0,0,,12,,,71,127
44097,note_on,0,0,0,,11,,,82,127
44097,note_on,0,0,0,,8,,,80,127
44286,note_off,189,0,0,,8,,,80,127
44286,note_off,0,0,0,,11,,,82,127
44290,note_on,4,0,0,,6,,,78,127
44479,note_off,189,0,0,,6,,,78,127
44479,note_off,0,0,0,,12,,,71,127
44479,note_off,0,0,0,,3,,,63,127
44485,note_on,6,0,0,,1,,,61,127
44485,note_on,0,0,0,,11,,,70,127
44485,note_on,0,0,0,,8,,,80,127
44485,note_on,0,0,0,,6,,,78,127
44674,note_off,189,0,0,,6,,,78,127
44674,note_off,0,0,0,,8,,,80,127
44678,note_on,4,0,0,,4,,,76,127
44867,note_off,189,0,0,,4,,,76,127
44867,note_off,0,0,0,,11,,,70,127
44867,note_off,0,0,0,,1,,,61,127
44871,note_on,4,0,0,,12,,,59,127
44871,note_on,0,0,0,,12,,,71,127
44871,note_on,0,0,0,,6,,,78,127
44871,note_on,0,0,0,,4,,,76,127
45060,note_off,189,0,0,,4,,,76,127
45060,note_off,0,0,0,,6,,,78,127
45066,note_on,6,0,0,,3,,,75,127
45253,note_off,187,0,0,,12,,,71,127
45253,note_off,0,0,0,,12,,,59,127
45255,note_off,2,0,0,,3,,,75,127
45259,note_on,4,0,0,,8,,,68,127
45259,note_on,0,0,0,,4,,,64,127
45259,note_on,0,0,0,,4,,,76,127
45259,note_on,0,0,0,,3,,,75,127
45448,note_off,189,0,0,,3,,,75,127
45448,note_off,0,0,0,,4,,,76,127
45452,note_on,4,0,0,,1,,,73,127
45641,note_off,189,0,0,,1,,,73,127
45641,note_off,0,0,0,,4,,,64,127
45641,note_off,0,0,0,,8,,,68,127
45645,note_on,4,0,0,,3,,,63,127
45645,note_on,0,0,0,,6,,,66,127
45645,note_on,0,0,0,,3,,,75,127
45645,note_on,0,0,0,,1,,,73,127
45834,note_off,189,0,0,,1,,,73,127
45834,note_off,0,0,0,,3,,,75,127
45840,note_on,6,0,0,,12,,,71,127
46027,note_off,187,0,0,,6,,,66,127
46027,note_off,0,0,0,,3,,,63,127
46029,note_off,2,0,0,,12,,,71,127
46033,note_on,4,0,0,,4,,,64,127
46033,note_on,0,0,0,,1,,,61,127
46033,note_on,0,0,0,,11,,,70,127
46416,note_off,383,0,0,,11,,,70,127
46416,note_off,0,0,0,,1,,,61,127
46416,note_off,0,0,0,,4,,,64,127
46422,note_on,6,0,0,,12,,,59,127
46422,note_on,0,0,0,,3,,,63,127
46422,note_on,0,0,0,,1,,,73,127
46515,note_off,93,0,0,,1,,,73,127
46519,note_on,4,0,0,,12,,,71,127
46612,note_off,93,0,0,,12,,,71,127
46616,note_on,4,0,0,,11,,,70,127
46709,note_off,93,0,0,,11,,,70,127
46713,note_on,4,0,0,,12,,,71,127
46806,note_off,93,0,0,,12,,,71,127
46806,note_off,0,0,0,,3,,,63,127
46806,note_off,0,0,0,,12,,,59,127
46810,note_on,4,0,0,,6,,,54,127
46810,note_on,0,0,0,,12,,,71,127
47235,note_on,425,0,0,,1,,,73,127
47235,note_on,0,0,0,,6,,,42,127
47246,note_off,11,0,0,,12,,,71,127
47675,note_off,429,0,0,,1,,,73,127
47677,note_off,2,0,0,,6,,,54,127
47711,note_on,34,0,0,,6,,,54,127
47972,note_off,261,0,0,,6,,,42,127
48416,note_on,444,0,0,,6,,,78,127
48431,note_off,15,0,0,,6,,,54,127
48806,note_off,375,0,0,,6,,,78,127
48819,note_on,13,0,0,,6,,,78,127
49217,note_off,398,0,0,,6,,,78,127
49223,note_on,6,0,0,,1,,,73,127
49223,note_on,0,0,0,,11,,,70,127
49223,note_on,0,0,0,,6,,,66,127
49621,note_off,398,0,0,,6,,,66,127
49621,note_off,0,0,0,,11,,,70,127
49629,note_on,8,0,0,,11,,,70,127
49629,note_on,0,0,0,,6,,,66,127
50025,note_off,396,0,0,,1,,,73,127
50027,note_off,2,0,0,,6,,,66,127
50027,note_off,0,0,0,,11,,,70,127
50031,note_on,4,0,0,,6,,,78,127
50031,note_on,0,0,0,,6,,,66,127
50031,note_on,0,0,0,,11,,,70,127
50429,note_off,398,0,0,,6,,,78,127
50435,note_on,6,0,0,,10,,,81,127
50492,note_off,57,0,0,,11,,,70,127
50492,note_off,0,0,0,,6,,,66,127
50833,note_off,341,0,0,,10,,,81,127
50841,note_on,8,0,0,,7,,,79,127
50841,note_on,0,0,0,,12,,,71,127
50841,note_on,0,0,0,,4,,,64,127
51239,note_off,398,0,0,,4,,,64,127
51239,note_off,0,0,0,,12,,,71,127
51243,note_on,4,0,0,,12,,,71,127
51243,note_on,0,0,0,,4,,,64,127
51641,note_off,398,0,0,,4,,,64,127
51641,note_off,0,0,0,,12,,,71,127
51643,note_off,2,0,0,,7,,,79,127
51647,note_on,4,0,0,,12,,,83,127
51647,note_on,0,0,0,,12,,,71,127
51647,note_on,0,0,0,,4,,,64,127
52045,note_off,398,0,0,,12,,,83,127
52051,note_on,6,0,0,,11,,,82,127
52251,note_off,200,0,0,,4,,,64,127
52251,note_off,0,0,0,,12,,,71,127
52449,note_off,198,0,0,,11,,,82,127
52455,note_on,6,0,0,,7,,,79,127
52455,note_on,0,0,0,,7,,,67,127
52455,note_on,0,0,0,,12,,,71,127
52853,note_off,398,0,0,,12,,,71,127
52853,note_off,0,0,0,,7,,,67,127
52853,note_off,0,0,0,,7,,,79,127
52859,note_on,6,0,0,,2,,,74,127
52859,note_on,0,0,0,,12,,,71,127
52859,note_on,0,0,0,,7,,,67,127
53257,note_off,398,0,0,,7,,,67,127
53257,note_off,0,0,0,,12,,,71,127
53257,note_off,0,0,0,,2,,,74,127
53263,note_on,6,0,0,,12,,,83,127
53263,note_on,0,0,0,,6,,,78,127
53263,note_on,0,0,0,,12,,,71,127
53263,note_on,0,0,0,,7,,,67,127
53358,note_off,95,0,0,,6,,,78,127
53366,note_on,8,0,0,,4,,,76,127
53461,note_off,95,0,0,,4,,,76,127
53467,note_on,6,0,0,,2,,,74,127
53562,note_off,95,0,0,,2,,,74,127
53568,note_on,6,0,0,,4,,,76,127
53661,note_off,93,0,0,,7,,,67,127
53661,note_off,0,0,0,,12,,,71,127
53663,note_off,2,0,0,,4,,,76,127
53669,note_on,6,0,0,,6,,,78,127
53669,note_on,0,0,0,,6,,,66,127
54061,note_off,392,0,0,,12,,,83,127
54080,note_on,19,0,0,,6,,,54,127
54080,note_on,0,0,0,,1,,,73,127
54080,note_on,0,0,0,,11,,,82,127
54274,note_off,194,0,0,,6,,,66,127
54506,note_on,232,0,0,,6,,,42,127
54512,note_off,6,0,0,,6,,,78,127
54520,note_off,8,0,0,,11,,,82,127
54684,note_off,164,0,0,,1,,,73,127
54878,note_off,194,0,0,,6,,,54,127
55040,note_on,162,0,0,,6,,,78,127
55269,note_off,229,0,0,,6,,,42,127
55437,note_off,168,0,0,,6,,,78,127
55452,note_on,15,0,0,,6,,,78,127
55454,note_on,2,0,0,,7,,,79,127
55580,note_off,126,0,0,,6,,,78,127
55582,note_off,2,0,0,,7,,,79,127
55588,note_on,6,0,0,,4,,,76,127
55716,note_off,128,0,0,,4,,,76,127
55720,note_on,4,0,0,,2,,,74,127
55848,note_off,128,0,0,,2,,,74,127
55854,note_on,6,0,0,,6,,,66,127
55854,note_on,0,0,0,,11,,,70,127
55854,note_on,0,0,0,,1,,,73,127
56252,note_off,398,0,0,,11,,,70,127
56252,note_off,0,0,0,,6,,,66,127
56260,note_on,8,0,0,,6,,,66,127
56260,note_on,0,0,0,,11,,,70,127
56656,note_off,396,0,0,,1,,,73,127
56658,note_off,2,0,0,,11,,,70,127
56658,note_off,0,0,0,,6,,,66,127
56662,note_on,4,0,0,,6,,,66,127
56662,note_on,0,0,0,,11,,,70,127
56662,note_on,0,0,0,,6,,,78,127
57060,note_off,398,0,0,,6,,,78,127
57066,note_on,6,0,0,,10,,,81,127
57194,note_off,128,0,0,,10,,,81,127
57200,note_on,6,0,0,,7,,,79,127
57265,note_off,65,0,0,,11,,,70,127
57265,note_off,0,0,0,,6,,,66,127
57328,note_off,63,0,0,,7,,,79,127
57334,note_on,6,0,0,,6,,,78,127
57462,note_off,128,0,0,,6,,,78,127
57470,note_on,8,0,0,,4,,,64,127
57470,note_on,0,0,0,,12,,,71,127
57470,note_on,0,0,0,,6,,,78,127
57868,note_off,398,0,0,,6,,,78,127
57868,note_off,0,0,0,,12,,,71,127
57868,note_off,0,0,0,,4,,,64,127
57872,note_on,4,0,0,,12,,,71,127
57872,note_on,0,0,0,,4,,,64,127
57872,note_on,0,0,0,,7,,,79,127
58270,note_off,398,0,0,,7,,,79,127
58270,note_off,0,0,0,,4,,,64,127
58270,note_off,0,0,0,,12,,,71,127
58276,note_on,6,0,0,,12,,,71,127
58276,note_on,0,0,0,,4,,,64,127
58276,note_on,0,0,0,,12,,,83,127
58674,note_off,398,0,0,,12,,,83,127
58682,note_on,8,0,0,,1,,,85,127
58682,note_on,0,0,0,,12,,,83,127
58878,note_off,196,0,0,,12,,,83,127
58878,note_off,0,0,0,,1,,,85,127
58880,note_off,2,0,0,,4,,,64,127
58880,note_off,0,0,0,,12,,,71,127
58882,note_on,2,0,0,,11,,,82,127
59084,note_on,202,0,0,,7,,,67,127
59084,note_on,0,0,0,,12,,,71,127
59280,note_off,196,0,0,,11,,,82,127
59286,note_on,6,0,0,,12,,,83,127
59482,note_off,196,0,0,,12,,,83,127
59482,note_off,0,0,0,,12,,,71,127
59482,note_off,0,0,0,,7,,,67,127
59488,note_on,6,0,0,,12,,,71,127
59488,note_on,0,0,0,,7,,,67,127
59488,note_on,0,0,0,,2,,,74,127
59886,note_off,398,0,0,,2,,,74,127
59886,note_off,0,0,0,,7,,,67,127
59886,note_off,0,0,0,,12,,,71,127
59894,note_on,8,0,0,,12,,,71,127
59894,note_on,0,0,0,,7,,,67,127
59894,note_on,0,0,0,,12,,,83,127
59894,note_on,0,0,0,,6,,,78,127
59989,note_off,95,0,0,,6,,,78,127
59995,note_on,6,0,0,,4,,,76,127
60090,note_off,95,0,0,,4,,,76,127
60094,note_on,4,0,0,,2,,,74,127
60189,note_off,95,0,0,,2,,,74,127
60195,note_on,6,0,0,,4,,,76,127
60292,note_off,97,0,0,,7,,,67,127
60292,note_off,0,0,0,,12,,,71,127
60296,note_on,4,0,0,,6,,,66,127
60694,note_off,398,0,0,,4,,,76,127
60705,note_on,11,0,0,,6,,,54,127
60705,note_on,0,0,0,,6,,,78,127
60901,note_off,196,0,0,,6,,,66,127
61093,note_off,192,0,0,,12,,,83,127
61209,note_on,116,0,0,,11,,,82,127
61209,note_on,0,0,0,,1,,,73,127
61217,note_on,8,0,0,,6,,,42,127
61969,note_off,752,0,0,,6,,,78,127
62007,note_off,38,0,0,,1,,,73,127
62007,note_off,0,0,0,,11,,,82,127
62138,note_off,131,0,0,,6,,,54,127
62271,note_off,133,0,0,,6,,,42,127
62343,note_on,72,0,0,,6,,,78,127
62758,note_on,415,0,0,,2,,,74,127
62764,note_off,6,0,0,,6,,,78,127
63151,note_off,387,0,0,,2,,,74,127
63166,note_on,15,0,0,,12,,,71,127
63166,note_on,0,0,0,,6,,,78,127
63558,note_on,392,0,0,,2,,,74,127
63569,note_off,11,0,0,,6,,,78,127
63918,note_off,349,0,0,,2,,,74,127
63935,note_off,17,0,0,,12,,,71,127
63948,note_on,13,0,0,,10,,,69,127
63948,note_on,0,0,0,,2,,,86,127
64333,note_on,385,0,0,,12,,,83,127
64350,note_off,17,0,0,,2,,,86,127
64693,note_off,343,0,0,,12,,,83,127
64716,note_off,23,0,0,,10,,,69,127
64724,note_on,8,0,0,,7,,,67,127
64724,note_on,0,0,0,,2,,,86,127
65109,note_on,385,0,0,,12,,,83,127
65126,note_off,17,0,0,,2,,,86,127
65490,note_off,364,0,0,,12,,,83,127
65492,note_off,2,0,0,,7,,,67,127
65500,note_on,8,0,0,,2,,,62,127
65500,note_on,0,0,0,,6,,,78,127
65622,note_off,122,0,0,,6,,,78,127
65628,note_on,6,0,0,,7,,,79,127
65750,note_off,122,0,0,,7,,,79,127
65758,note_on,8,0,0,,10,,,81,127
65880,note_off,122,0,0,,10,,,81,127
65880,note_off,0,0,0,,2,,,62,127
65886,note_on,6,0,0,,4,,,64,127
65886,note_on,0,0,0,,7,,,79,127
66008,note_off,122,0,0,,7,,,79,127
66014,note_on,6,0,0,,6,,,78,127
66136,note_off,122,0,0,,6,,,78,127
66142,note_on,6,0,0,,4,,,76,127
66264,note_off,122,0,0,,4,,,76,127
66266,note_off,2,0,0,,4,,,64,127
66272,note_on,6,0,0,,7,,,67,127
66272,note_on,0,0,0,,2,,,74,127
66394,note_off,122,0,0,,2,,,74,127
66402,note_on,8,0,0,,1,,,73,127
66524,note_off,122,0,0,,1,,,73,127
66530,note_on,6,0,0,,12,,,71,127
66652,note_off,122,0,0,,12,,,71,127
66652,note_off,0,0,0,,7,,,67,127
66660,note_on,8,0,0,,6,,,66,127
66660,note_on,0,0,0,,2,,,74,127
66660,note_on,0,0,0,,12,,,71,127
67041,note_off,381,0,0,,12,,,71,127
67041,note_off,0,0,0,,2,,,74,127
67047,note_on,6,0,0,,6,,,54,127
67047,note_on,0,0,0,,1,,,73,127
67047,note_on,0,0,0,,11,,,70,127
67424,note_off,377,0,0,,6,,,66,127
67428,note_off,4,0,0,,11,,,70,127
67428,note_off,0,0,0,,1,,,73,127
67428,note_off,0,0,0,,6,,,54,127
67436,note_on,8,0,0,,12,,,59,127
67436,note_on,0,0,0,,12,,,71,127
67828,note_on,392,0,0,,12,,,47,127
68015,note_off,187,0,0,,12,,,59,127
68223,note_on,208,0,0,,12,,,35,127
68419,note_off,196,0,0,,12,,,71,127
68592,note_off,173,0,0,,12,,,47,127
68666,note_on,74,0,0,,6,,,66,127
68988,note_off,322,0,0,,12,,,35,127
69060,note_on,72,0,0,,2,,,62,127
69073,note_off,13,0,0,,6,,,66,127
69435,note_off,362,0,0,,2,,,62,127
69452,note_on,17,0,0,,6,,,66,127
69452,note_on,0,0,0,,12,,,59,127
69846,note_on,394,0,0,,2,,,62,127
69859,note_off,13,0,0,,6,,,66,127
70221,note_off,362,0,0,,2,,,62,127
70229,note_off,8,0,0,,12,,,59,127
70235,note_on,6,0,0,,2,,,74,127
70235,note_on,0,0,0,,10,,,57,127
70629,note_on,394,0,0,,12,,,71,127
70642,note_off,13,0,0,,2,,,74,127
71004,note_off,362,0,0,,12,,,71,127
71012,note_off,8,0,0,,10,,,57,127
71020,note_on,8,0,0,,2,,,74,127
71020,note_on,0,0,0,,7,,,55,127
71414,note_on,394,0,0,,12,,,71,127
71427,note_off,13,0,0,,2,,,74,127
71798,note_off,371,0,0,,7,,,55,127
71800,note_off,2,0,0,,12,,,71,127
71806,note_on,6,0,0,,6,,,66,127
71806,note_on,0,0,0,,2,,,50,127
71930,note_off,124,0,0,,6,,,66,127
71936,note_on,6,0,0,,7,,,67,127
72060,note_off,124,0,0,,7,,,67,127
72066,note_on,6,0,0,,10,,,69,127
72190,note_off,124,0,0,,10,,,69,127
72190,note_off,0,0,0,,2,,,50,127
72196,note_on,6,0,0,,7,,,67,127
72196,note_on,0,0,0,,4,,,52,127
72320,note_off,124,0,0,,7,,,67,127
72328,note_on,8,0,0,,6,,,66,127
72452,note_off,124,0,0,,6,,,66,127
72458,note_on,6,0,0,,4,,,64,127
72580,note_off,122,0,0,,4,,,52,127
72591,note_on,11,0,0,,4,,,76,127
72591,note_on,0,0,0,,7,,,55,127
72700,note_off,109,0,0,,4,,,64,127
72715,note_off,15,0,0,,4,,,76,127
72719,note_on,4,0,0,,2,,,74,127
72843,note_off,124,0,0,,2,,,74,127
72851,note_on,8,0,0,,1,,,73,127
72975,note_off,124,0,0,,1,,,73,127
72975,note_off,0,0,0,,7,,,55,127
72979,note_on,4,0,0,,12,,,71,127
72979,note_on,0,0,0,,2,,,74,127
72979,note_on,0,0,0,,6,,,54,127
73364,note_off,385,0,0,,2,,,74,127
73364,note_off,0,0,0,,12,,,71,127
73375,note_on,11,0,0,,1,,,73,127
73375,note_on,0,0,0,,11,,,70,127
73375,note_on,0,0,0,,6,,,42,127
73752,note_off,377,0,0,,6,,,54,127
73760,note_off,8,0,0,,6,,,42,127
73760,note_off,0,0,0,,11,,,70,127
73760,note_off,0,0,0,,1,,,73,127
73764,note_on,4,0,0,,12,,,71,127
73764,note_on,0,0,0,,12,,,47,127
74149,note_off,385,0,0,,12,,,47,127
74149,note_off,0,0,0,,12,,,71,127
74157,note_on,8,0,0,,12,,,59,127
74540,note_on,383,0,0,,1,,,61,127
74911,note_off,371,0,0,,1,,,61,127
74922,note_on,11,0,0,,10,,,57,127
74922,note_on,0,0,0,,3,,,63,127
74933,note_off,11,0,0,,12,,,59,127
75293,note_off,360,0,0,,3,,,63,127
75293,note_off,0,0,0,,10,,,57,127
75304,note_on,11,0,0,,7,,,55,127
75304,note_on,0,0,0,,4,,,64,127
75675,note_off,371,0,0,,4,,,64,127
75675,note_off,0,0,0,,7,,,55,127
75688,note_on,13,0,0,,6,,,54,127
75688,note_on,0,0,0,,6,,,66,127
76059,note_off,371,0,0,,6,,,66,127
76059,note_off,0,0,0,,6,,,54,127
76065,note_on,6,0,0,,4,,,52,127
76065,note_on,0,0,0,,7,,,67,127
76436,note_off,371,0,0,,7,,,67,127
76436,note_off,0,0,0,,4,,,52,127
76449,note_on,13,0,0,,2,,,50,127
76449,note_on,0,0,0,,8,,,68,127
76820,note_off,371,0,0,,8,,,68,127
76820,note_off,0,0,0,,2,,,50,127
76828,note_on,8,0,0,,1,,,49,127
76828,note_on,0,0,0,,11,,,70,127
77199,note_off,371,0,0,,11,,,70,127
77199,note_off,0,0,0,,1,,,49,127
77214,note_on,15,0,0,,12,,,47,127
77214,note_on,0,0,0,,12,,,71,127
77585,note_off,371,0,0,,12,,,71,127
77585,note_off,0,0,0,,12,,,47,127
77593,note_on,8,0,0,,11,,,46,127
77593,note_on,0,0,0,,1,,,73,127
77964,note_off,371,0,0,,1,,,73,127
77964,note_off,0,0,0,,11,,,46,127
77972,note_on,8,0,0,,8,,,44,127
77972,note_on,0,0,0,,3,,,75,127
78343,note_off,371,0,0,,3,,,75,127
78343,note_off,0,0,0,,8,,,44,127
78356,note_on,13,0,0,,6,,,42,127
78356,note_on,0,0,0,,4,,,76,127
78727,note_off,371,0,0,,4,,,76,127
78738,note_on,11,0,0,,5,,,77,127
78738,note_on,0,0,0,,12,,,71,127
79109,note_off,371,0,0,,12,,,71,127
79109,note_off,0,0,0,,5,,,77,127
79120,note_on,11,0,0,,6,,,78,127
79120,note_on,0,0,0,,11,,,70,127
79491,note_off,371,0,0,,11,,,70,127
79491,note_off,0,0,0,,6,,,78,127
79491,note_off,0,0,0,,6,,,42,127
79499,note_on,8,0,0,,6,,,42,127
79499,note_on,0,0,0,,6,,,54,127
79499,note_on,0,0,0,,1,,,49,127
79499,note_on,0,0,0,,6,,,66,127
79499,note_on,0,0,0,,4,,,76,127
79882,note_off,383,0,0,,4,,,76,127
79882,note_off,0,0,0,,6,,,66,127
79882,note_off,0,0,0,,1,,,49,127
79882,note_off,0,0,0,,6,,,54,127
79882,note_off,0,0,0,,6,,,42,127
79897,note_on,15,0,0,,12,,,47,127
79897,note_on,0,0,0,,12,,,59,127
79897,note_on,0,0,0,,3,,,75,127
79897,note_on,0,0,0,,4,,,76,127
80015,note_off,118,0,0,,4,,,76,127
80015,note_off,0,0,0,,3,,,75,127
80028,note_on,13,0,0,,1,,,73,127
80146,note_off,118,0,0,,1,,,73,127
80152,note_on,6,0,0,,3,,,75,127
80268,note_off,116,0,0,,12,,,47,127
80270,note_off,2,0,0,,3,,,75,127
80283,note_on,13,0,0,,4,,,52,127
80283,note_on,0,0,0,,4,,,76,127
80283,note_on,0,0,0,,6,,,78,127
80401,note_off,118,0,0,,6,,,78,127
80401,note_off,0,0,0,,4,,,76,127
80407,note_on,6,0,0,,3,,,75,127
80525,note_off,118,0,0,,3,,,75,127
80533,note_on,8,0,0,,1,,,73,127
80645,note_off,112,0,0,,12,,,59,127
80651,note_off,6,0,0,,1,,,73,127
80653,note_off,2,0,0,,4,,,52,127
80661,note_on,8,0,0,,6,,,54,127
80661,note_on,0,0,0,,12,,,59,127
80661,note_on,0,0,0,,3,,,63,127
80661,note_on,0,0,0,,12,,,71,127
80661,note_on,0,0,0,,3,,,75,127
81032,note_off,371,0,0,,3,,,75,127
81032,note_off,0,0,0,,12,,,71,127
81032,note_off,0,0,0,,3,,,63,127
81032,note_off,0,0,0,,12,,,59,127
81043,note_on,11,0,0,,1,,,61,127
81043,note_on,0,0,0,,1,,,73,127
81043,note_on,0,0,0,,11,,,70,127
81409,note_off,366,0,0,,6,,,54,127
81413,note_off,4,0,0,,11,,,70,127
81413,note_off,0,0,0,,1,,,73,127
81413,note_off,0,0,0,,1,,,61,127
81421,note_on,8,0,0,,12,,,47,127
81421,note_on,0,0,0,,12,,,71,127
81792,note_off,371,0,0,,12,,,47,127
81836,note_on,44,0,0,,12,,,59,127
82173,note_off,337,0,0,,12,,,71,127
82217,note_on,44,0,0,,1,,,61,127
82581,note_off,364,0,0,,12,,,59,127
82585,note_off,4,0,0,,1,,,61,127
82591,note_on,6,0,0,,10,,,57,127
82591,note_on,0,0,0,,3,,,63,127
82959,note_off,368,0,0,,3,,,63,127
82959,note_off,0,0,0,,10,,,57,127
82970,note_on,11,0,0,,7,,,55,127
82970,note_on,0,0,0,,4,,,64,127
83338,note_off,368,0,0,,4,,,64,127
83338,note_off,0,0,0,,7,,,55,127
83344,note_on,6,0,0,,6,,,54,127
83344,note_on,0,0,0,,6,,,66,127
83712,note_off,368,0,0,,6,,,66,127
83712,note_off,0,0,0,,6,,,54,127
83723,note_on,11,0,0,,4,,,52,127
83723,note_on,0,0,0,,7,,,67,127
84091,note_off,368,0,0,,7,,,67,127
84091,note_off,0,0,0,,4,,,52,127
84099,note_on,8,0,0,,2,,,50,127
84099,note_on,0,0,0,,8,,,68,127
84467,note_off,368,0,0,,8,,,68,127
84467,note_off,0,0,0,,2,,,50,127
84475,note_on,8,0,0,,1,,,49,127
84475,note_on,0,0,0,,11,,,70,127
84843,note_off,368,0,0,,11,,,70,127
84843,note_off,0,0,0,,1,,,49,127
84851,note_on,8,0,0,,12,,,47,127
84851,note_on,0,0,0,,12,,,71,127
85219,note_off,368,0,0,,12,,,71,127
85219,note_off,0,0,0,,12,,,47,127
85230,note_on,11,0,0,,11,,,46,127
85230,note_on,0,0,0,,1,,,73,127
85598,note_off,368,0,0,,1,,,73,127
85598,note_off,0,0,0,,11,,,46,127
85609,note_on,11,0,0,,8,,,44,127
85609,note_on,0,0,0,,3,,,75,127
85977,note_off,368,0,0,,3,,,75,127
85977,note_off,0,0,0,,8,,,44,127
85983,note_on,6,0,0,,6,,,42,127
85983,note_on,0,0,0,,4,,,76,127
86351,note_off,368,0,0,,4,,,76,127
86359,note_on,8,0,0,,12,,,71,127
86359,note_on,0,0,0,,5,,,77,127
86727,note_off,368,0,0,,5,,,77,127
86727,note_off,0,0,0,,12,,,71,127
86738,note_on,11,0,0,,6,,,78,127
86738,note_on,0,0,0,,11,,,70,127
87104,note_off,366,0,0,,6,,,42,127
87106,note_off,2,0,0,,11,,,70,127
87106,note_off,0,0,0,,6,,,78,127
87112,note_on,6,0,0,,6,,,42,127
87112,note_on,0,0,0,,1,,,49,127
87112,note_on,0,0,0,,6,,,54,127
87112,note_on,0,0,0,,6,,,66,127
87112,note_on,0,0,0,,4,,,76,127
87491,note_off,379,0,0,,4,,,76,127
87512,note_off,21,0,0,,6,,,54,127
87512,note_off,0,0,0,,1,,,49,127
87512,note_off,0,0,0,,6,,,42,127
87529,note_off,17,0,0,,6,,,66,127
87531,note_on,2,0,0,,12,,,47,127
87531,note_on,0,0,0,,12,,,59,127
87531,note_on,0,0,0,,3,,,75,127
87531,note_on,0,0,0,,4,,,76,127
87651,note_off,120,0,0,,4,,,76,127
87651,note_off,0,0,0,,3,,,75,127
87659,note_on,8,0,0,,1,,,73,127
87779,note_off,120,0,0,,1,,,73,127
87785,note_on,6,0,0,,3,,,75,127
87903,note_off,118,0,0,,12,,,47,127
87905,note_off,2,0,0,,3,,,75,127
87911,note_on,6,0,0,,4,,,52,127
87911,note_on,0,0,0,,4,,,76,127
87911,note_on,0,0,0,,6,,,78,127
88031,note_off,120,0,0,,6,,,78,127
88031,note_off,0,0,0,,4,,,76,127
88039,note_on,8,0,0,,3,,,75,127
88159,note_off,120,0,0,,3,,,75,127
88163,note_on,4,0,0,,1,,,73,127
88279,note_off,116,0,0,,12,,,59,127
88283,note_off,4,0,0,,1,,,73,127
88283,note_off,0,0,0,,4,,,52,127
88294,note_on,11,0,0,,6,,,54,127
88294,note_on,0,0,0,,12,,,59,127
88294,note_on,0,0,0,,3,,,63,127
88294,note_on,0,0,0,,3,,,75,127
88294,note_on,0,0,0,,12,,,71,127
88667,note_off,373,0,0,,12,,,71,127
88667,note_off,0,0,0,,3,,,75,127
88667,note_off,0,0,0,,3,,,63,127
88667,note_off,0,0,0,,12,,,59,127
88675,note_on,8,0,0,,1,,,61,127
88675,note_on,0,0,0,,11,,,70,127
88675,note_on,0,0,0,,1,,,73,127
89043,note_off,368,0,0,,6,,,54,127
89047,note_off,4,0,0,,1,,,73,127
89047,note_off,0,0,0,,11,,,70,127
89047,note_off,0,0,0,,1,,,61,127
89053,note_on,6,0,0,,12,,,59,127
89053,note_on,0,0,0,,12,,,71,127
89245,note_on,192,0,0,,12,,,83,127
89287,note_off,42,0,0,,12,,,71,127
89426,note_off,139,0,0,,12,,,59,127
89428,note_off,2,0,0,,12,,,83,127
89434,note_on,6,0,0,,12,,,59,127
89434,note_on,0,0,0,,4,,,52,127
89434,note_on,0,0,0,,8,,,80,127
89617,note_off,183,0,0,,8,,,80,127
89625,note_on,8,0,0,,4,,,76,127
89806,note_off,181,0,0,,4,,,52,127
89806,note_off,0,0,0,,12,,,59,127
89808,note_off,2,0,0,,4,,,76,127
89814,note_on,6,0,0,,6,,,54,127
89814,note_on,0,0,0,,12,,,59,127
89814,note_on,0,0,0,,3,,,75,127
89934,note_off,120,0,0,,3,,,75,127
89940,note_on,6,0,0,,4,,,76,127
90060,note_off,120,0,0,,4,,,76,127
90066,note_on,6,0,0,,6,,,78,127
90186,note_off,120,0,0,,6,,,78,127
90186,note_off,0,0,0,,12,,,59,127
90186,note_off,0,0,0,,6,,,54,127
90194,note_on,8,0,0,,6,,,54,127
90194,note_on,0,0,0,,11,,,58,127
90194,note_on,0,0,0,,4,,,76,127
90314,note_off,120,0,0,,4,,,76,127
90322,note_on,8,0,0,,3,,,75,127
90442,note_off,120,0,0,,3,,,75,127
90450,note_on,8,0,0,,1,,,73,127
90566,note_off,116,0,0,,11,,,58,127
90566,note_off,0,0,0,,6,,,54,127
90570,note_off,4,0,0,,1,,,73,127
90574,note_on,4,0,0,,8,,,56,127
90574,note_on,0,0,0,,12,,,59,127
90574,note_on,0,0,0,,12,,,71,127
90766,note_on,192,0,0,,12,,,83,127
90808,note_off,42,0,0,,12,,,71,127
90947,note_off,139,0,0,,12,,,59,127
90947,note_off,0,0,0,,8,,,56,127
90949,note_off,2,0,0,,12,,,83,127
90955,note_on,6,0,0,,4,,,52,127
90955,note_on,0,0,0,,12,,,59,127
90955,note_on,0,0,0,,8,,,80,127
91138,note_off,183,0,0,,8,,,80,127
91144,note_on,6,0,0,,4,,,76,127
91327,note_off,183,0,0,,4,,,76,127
91327,note_off,0,0,0,,12,,,59,127
91327,note_off,0,0,0,,4,,,52,127
91335,note_on,8,0,0,,6,,,54,127
91335,note_on,0,0,0,,12,,,59,127
91335,note_on,0,0,0,,3,,,75,127
91455,note_off,120,0,0,,3,,,75,127
91461,note_on,6,0,0,,4,,,76,127
91581,note_off,120,0,0,,4,,,76,127
91589,note_on,8,0,0,,6,,,78,127
91707,note_off,118,0,0,,12,,,59,127
91707,note_off,0,0,0,,6,,,54,127
91709,note_off,2,0,0,,6,,,78,127
91717,note_on,8,0,0,,11,,,58,127
91717,note_on,0,0,0,,6,,,54,127
91717,note_on,0,0,0,,4,,,76,127
91837,note_off,120,0,0,,4,,,76,127
91841,note_on,4,0,0,,3,,,75,127
91961,note_off,120,0,0,,3,,,75,127
91967,note_on,6,0,0,,1,,,73,127
92087,note_off,120,0,0,,1,,,73,127
92089,note_off,2,0,0,,6,,,54,127
92089,note_off,0,0,0,,11,,,58,127
92093,note_on,4,0,0,,12,,,59,127
92093,note_on,0,0,0,,3,,,51,127
92093,note_on,0,0,0,,12,,,71,127
92289,note_on,196,0,0,,12,,,83,127
92327,note_off,38,0,0,,12,,,71,127
92466,note_off,139,0,0,,3,,,51,127
92466,note_off,0,0,0,,12,,,59,127
92472,note_off,6,0,0,,12,,,83,127
92480,note_on,8,0,0,,4,,,52,127
92480,note_on,0,0,0,,8,,,80,127
92663,note_off,183,0,0,,8,,,80,127
92676,note_on,13,0,0,,4,,,76,127
92857,note_off,181,0,0,,4,,,52,127
92859,note_off,2,0,0,,4,,,76,127
92867,note_on,8,0,0,,6,,,54,127
92867,note_on,0,0,0,,8,,,68,127
92934,note_on,67,0,0,,6,,,66,127
92953,note_off,19,0,0,,8,,,68,127
92995,note_on,42,0,0,,8,,,68,127
93020,note_off,25,0,0,,6,,,66,127
93062,note_on,42,0,0,,6,,,66,127
93081,note_off,19,0,0,,8,,,68,127
93127,note_on,46,0,0,,8,,,68,127
93148,note_off,21,0,0,,6,,,66,127
93190,note_on,42,0,0,,6,,,66,127
93213,note_off,23,0,0,,8,,,68,127
93259,note_on,46,0,0,,6,,,42,127
93259,note_on,0,0,0,,8,,,68,127
93276,note_off,17,0,0,,6,,,66,127
93345,note_off,69,0,0,,8,,,68,127
93351,note_on,6,0,0,,6,,,66,127
93437,note_off,86,0,0,,6,,,66,127
93445,note_on,8,0,0,,4,,,64,127
93550,note_off,105,0,0,,4,,,64,127
93556,note_on,6,0,0,,6,,,66,127
93651,note_off,95,0,0,,6,,,54,127
93662,note_off,11,0,0,,6,,,66,127
93662,note_off,0,0,0,,6,,,42,127
93670,note_on,8,0,0,,12,,,47,127
93670,note_on,0,0,0,,12,,,59,127
94432,note_off,762,0,0,,12,,,59,127
95217,note_off,785,0,0,,12,,,47,127
95518,note_on,301,0,0,,12,,,83,127
95891,note_off,373,0,0,,12,,,83,127
95908,note_on,17,0,0,,6,,,78,127
96300,note_off,392,0,0,,6,,,78,127
96311,note_on,11,0,0,,8,,,80,127
96703,note_off,392,0,0,,8,,,80,127
96714,note_on,11,0,0,,10,,,81,127
97112,note_on,398,0,0,,0,,,60,127
97114,note_on,2,0,0,,6,,,66,127
97116,note_on,2,0,0,,10,,,69,127
97503,note_off,387,0,0,,0,,,60,127
97505,note_off,2,0,0,,6,,,66,127
97507,note_off,2,0,0,,10,,,69,127
97511,note_on,4,0,0,,0,,,60,127
97513,note_on,2,0,0,,6,,,66,127
97515,note_on,2,0,0,,10,,,69,127
97902,note_off,387,0,0,,0,,,60,127
97902,note_off,0,0,0,,10,,,81,127
97904,note_off,2,0,0,,6,,,66,127
97906,note_off,2,0,0,,10,,,69,127
97908,note_on,2,0,0,,8,,,80,127
97908,note_on,0,0,0,,0,,,60,127
97910,note_on,2,0,0,,6,,,66,127
97914,note_on,4,0,0,,10,,,69,127
98099,note_off,185,0,0,,8,,,80,127
98110,note_on,11,0,0,,6,,,78,127
98299,note_off,189,0,0,,0,,,60,127
98301,note_off,2,0,0,,6,,,78,127
98301,note_off,0,0,0,,6,,,66,127
98305,note_off,4,0,0,,10,,,69,127
98309,note_on,4,0,0,,12,,,83,127
98309,note_on,0,0,0,,0,,,60,127
98311,note_on,2,0,0,,6,,,66,127
98313,note_on,2,0,0,,10,,,69,127
98500,note_off,187,0,0,,12,,,83,127
98508,note_on,8,0,0,,10,,,81,127
98700,note_off,192,0,0,,10,,,81,127
98700,note_off,0,0,0,,0,,,60,127
98702,note_off,2,0,0,,6,,,66,127
98704,note_off,2,0,0,,10,,,69,127
98710,note_on,6,0,0,,8,,,80,127
98710,note_on,0,0,0,,0,,,60,127
98712,note_on,2,0,0,,6,,,66,127
98714,note_on,2,0,0,,10,,,69,127
98901,note_off,187,0,0,,8,,,80,127
98905,note_on,4,0,0,,6,,,78,127
99097,note_off,192,0,0,,6,,,78,127
99101,note_off,4,0,0,,0,,,60,127
99103,note_off,2,0,0,,6,,,66,127
99105,note_off,2,0,0,,10,,,69,127
99105,note_on,0,0,0,,12,,,83,127
99105,note_on,0,0,0,,0,,,60,127
99107,note_on,2,0,0,,6,,,66,127
99109,note_on,2,0,0,,10,,,69,127
99296,note_off,187,0,0,,12,,,83,127
99307,note_on,11,0,0,,10,,,81,127
99496,note_off,189,0,0,,0,,,60,127
99498,note_off,2,0,0,,10,,,81,127
99498,note_off,0,0,0,,6,,,66,127
99500,note_off,2,0,0,,10,,,69,127
99508,note_on,8,0,0,,8,,,80,127
99508,note_on,0,0,0,,0,,,60,127
99510,note_on,2,0,0,,10,,,69,127
99510,note_on,0,0,0,,6,,,66,127
99699,note_off,189,0,0,,8,,,80,127
99710,note_on,11,0,0,,6,,,78,127
99899,note_off,189,0,0,,0,,,60,127
99901,note_off,2,0,0,,6,,,78,127
99901,note_off,0,0,0,,6,,,66,127
99901,note_off,0,0,0,,10,,,69,127
99905,note_on,4,0,0,,8,,,80,127
99905,note_on,0,0,0,,1,,,61,127
99909,note_on,4,0,0,,6,,,66,127
99911,note_on,2,0,0,,8,,,68,127
100096,note_off,185,0,0,,8,,,80,127
100104,note_on,8,0,0,,6,,,78,127
100296,note_off,192,0,0,,6,,,78,127
100296,note_off,0,0,0,,1,,,61,127
100300,note_off,4,0,0,,6,,,66,127
100302,note_off,2,0,0,,8,,,68,127
100304,note_on,2,0,0,,4,,,76,127
100304,note_on,0,0,0,,1,,,61,127
100306,note_on,2,0,0,,6,,,66,127
100308,note_on,2,0,0,,8,,,68,127
100495,note_off,187,0,0,,4,,,76,127
100503,note_on,8,0,0,,3,,,75,127
100695,note_off,192,0,0,,3,,,75,127
100695,note_off,0,0,0,,1,,,61,127
100697,note_off,2,0,0,,6,,,66,127
100699,note_off,2,0,0,,8,,,68,127
100705,note_on,6,0,0,,3,,,75,127
100705,note_on,0,0,0,,1,,,61,127
100707,note_on,2,0,0,,6,,,66,127
100709,note_on,2,0,0,,8,,,68,127
101096,note_off,387,0,0,,1,,,61,127
101096,note_off,0,0,0,,3,,,75,127
101098,note_off,2,0,0,,6,,,66,127
101100,note_off,2,0,0,,8,,,68,127
101102,note_on,2,0,0,,4,,,76,127
101102,note_on,0,0,0,,1,,,61,127
101104,note_on,2,0,0,,6,,,66,127
101106,note_on,2,0,0,,8,,,68,127
101399,note_off,293,0,0,,6,,,66,127
101494,note_off,95,0,0,,1,,,61,127
101498,note_off,4,0,0,,8,,,68,127
101502,note_on,4,0,0,,1,,,73,127
101502,note_on,0,0,0,,1,,,61,127
101885,note_off,383,0,0,,4,,,76,127
101950,note_on,65,0,0,,1,,,85,127
102342,note_off,392,0,0,,1,,,85,127
102353,note_on,11,0,0,,8,,,80,127
102745,note_off,392,0,0,,8,,,80,127
102758,note_on,13,0,0,,11,,,82,127
103082,note_off,324,0,0,,1,,,61,127
103082,note_off,0,0,0,,1,,,73,127
103149,note_off,67,0,0,,11,,,82,127
103153,note_on,4,0,0,,12,,,83,127
103555,note_on,402,0,0,,2,,,62,127
103557,note_on,2,0,0,,8,,,68,127
103557,note_on,0,0,0,,12,,,71,127
103946,note_off,389,0,0,,2,,,62,127
103948,note_off,2,0,0,,12,,,71,127
103948,note_off,0,0,0,,8,,,68,127
103952,note_on,4,0,0,,2,,,62,127
103956,note_on,4,0,0,,8,,,68,127
103958,note_on,2,0,0,,12,,,71,127
104341,note_off,383,0,0,,12,,,83,127
104343,note_off,2,0,0,,2,,,62,127
104347,note_off,4,0,0,,8,,,68,127
104349,note_off,2,0,0,,12,,,71,127
104351,note_on,2,0,0,,2,,,62,127
104351,note_on,0,0,0,,11,,,82,127
104353,note_on,2,0,0,,8,,,68,127
104355,note_on,2,0,0,,12,,,71,127
104542,note_off,187,0,0,,11,,,82,127
104550,note_on,8,0,0,,8,,,80,127
104742,note_off,192,0,0,,8,,,80,127
104742,note_off,0,0,0,,2,,,62,127
104744,note_off,2,0,0,,8,,,68,127
104746,note_off,2,0,0,,12,,,71,127
104752,note_on,6,0,0,,2,,,62,127
104752,note_on,0,0,0,,1,,,85,127
104754,note_on,2,0,0,,8,,,68,127
104756,note_on,2,0,0,,12,,,71,127
104943,note_off,187,0,0,,1,,,85,127
104949,note_on,6,0,0,,12,,,83,127
105141,note_off,192,0,0,,12,,,83,127
105143,note_off,2,0,0,,2,,,62,127
105145,note_off,2,0,0,,8,,,68,127
105147,note_off,2,0,0,,12,,,71,127
105149,note_on,2,0,0,,2,,,62,127
105149,note_on,0,0,0,,11,,,82,127
105151,note_on,2,0,0,,8,,,68,127
105153,note_on,2,0,0,,12,,,71,127
105340,note_off,187,0,0,,11,,,82,127
105348,note_on,8,0,0,,8,,,80,127
105540,note_off,192,0,0,,8,,,80,127
105540,note_off,0,0,0,,2,,,62,127
105542,note_off,2,0,0,,8,,,68,127
105544,note_off,2,0,0,,12,,,71,127
105548,note_on,4,0,0,,2,,,62,127
105548,note_on,0,0,0,,1,,,85,127
105550,note_on,2,0,0,,8,,,68,127
105552,note_on,2,0,0,,12,,,71,127
105739,note_off,187,0,0,,1,,,85,127
105752,note_on,13,0,0,,12,,,83,127
105939,note_off,187,0,0,,2,,,62,127
105941,note_off,2,0,0,,8,,,68,127
105943,note_off,2,0,0,,12,,,83,127
105943,note_off,0,0,0,,12,,,71,127
105947,note_on,4,0,0,,2,,,62,127
105947,note_on,0,0,0,,11,,,82,127
105951,note_on,4,0,0,,8,,,68,127
105953,note_on,2,0,0,,12,,,71,127
106138,note_off,185,0,0,,11,,,82,127
106146,note_on,8,0,0,,8,,,80,127
106338,note_off,192,0,0,,8,,,80,127
106338,note_off,0,0,0,,2,,,62,127
106342,note_off,4,0,0,,8,,,68,127
106344,note_off,2,0,0,,12,,,71,127
106348,note_on,4,0,0,,3,,,63,127
106348,note_on,0,0,0,,11,,,82,127
106350,note_on,2,0,0,,8,,,68,127
106352,note_on,2,0,0,,11,,,70,127
106438,note_off,86,0,0,,11,,,82,127
106444,note_on,6,0,0,,8,,,80,127
106535,note_off,91,0,0,,8,,,80,127
106548,note_on,13,0,0,,11,,,82,127
106639,note_off,91,0,0,,11,,,82,127
106647,note_on,8,0,0,,8,,,80,127
106738,note_off,91,0,0,,8,,,80,127
106740,note_off,2,0,0,,3,,,63,127
106742,note_off,2,0,0,,8,,,68,127
106744,note_off,2,0,0,,11,,,70,127
106750,note_on,6,0,0,,3,,,63,127
106750,note_on,0,0,0,,11,,,82,127
106752,note_on,2,0,0,,8,,,68,127
106752,note_on,0,0,0,,11,,,70,127
106840,note_off,88,0,0,,11,,,82,127
106848,note_on,8,0,0,,8,,,80,127
106939,note_off,91,0,0,,8,,,80,127
106945,note_on,6,0,0,,11,,,82,127
107036,note_off,91,0,0,,11,,,82,127
107047,note_on,11,0,0,,8,,,80,127
107138,note_off,91,0,0,,8,,,80,127
107142,note_off,4,0,0,,3,,,63,127
107144,note_off,2,0,0,,11,,,70,127
107144,note_off,0,0,0,,8,,,68,127
107146,note_on,2,0,0,,3,,,63,127
107146,note_on,0,0,0,,7,,,79,127
107146,note_on,0,0,0,,11,,,70,127
107538,note_off,392,0,0,,11,,,70,127
107538,note_off,0,0,0,,7,,,79,127
107538,note_off,0,0,0,,3,,,63,127
107549,note_on,11,0,0,,3,,,63,127
107549,note_on,0,0,0,,11,,,70,127
107549,note_on,0,0,0,,3,,,75,127
107941,note_off,392,0,0,,3,,,75,127
107941,note_off,0,0,0,,11,,,70,127
107941,note_off,0,0,0,,3,,,63,127
107947,note_on,6,0,0,,1,,,61,127
107947,note_on,0,0,0,,8,,,68,127
107947,note_on,0,0,0,,3,,,75,127
108073,note_off,126,0,0,,3,,,75,127
108081,note_on,8,0,0,,4,,,76,127
108207,note_off,126,0,0,,4,,,76,127
108215,note_on,8,0,0,,6,,,78,127
108337,note_off,122,0,0,,8,,,68,127
108337,note_off,0,0,0,,1,,,61,127
108341,note_off,4,0,0,,6,,,78,127
108345,note_on,4,0,0,,1,,,61,127
108345,note_on,0,0,0,,8,,,68,127
108345,note_on,0,0,0,,4,,,76,127
108737,note_off,392,0,0,,8,,,68,127
108737,note_off,0,0,0,,1,,,61,127
108750,note_on,13,0,0,,11,,,70,127
108750,note_on,0,0,0,,3,,,63,127
109137,note_off,387,0,0,,4,,,76,127
109141,note_off,4,0,0,,3,,,63,127
109141,note_off,0,0,0,,11,,,70,127
109147,note_on,6,0,0,,11,,,70,127
109147,note_on,0,0,0,,3,,,63,127
109147,note_on,0,0,0,,3,,,75,127
109539,note_off,392,0,0,,3,,,75,127
109539,note_off,0,0,0,,3,,,63,127
109539,note_off,0,0,0,,11,,,70,127
109547,note_on,8,0,0,,8,,,68,127
109547,note_on,0,0,0,,1,,,61,127
109547,note_on,0,0,0,,3,,,75,127
109673,note_off,126,0,0,,3,,,75,127
109679,note_on,6,0,0,,4,,,76,127
109805,note_off,126,0,0,,4,,,76,127
109811,note_on,6,0,0,,6,,,78,127
109937,note_off,126,0,0,,6,,,78,127
109937,note_off,0,0,0,,1,,,61,127
109937,note_off,0,0,0,,8,,,68,127
109943,note_on,6,0,0,,1,,,61,127
109943,note_on,0,0,0,,8,,,68,127
109943,note_on,0,0,0,,4,,,76,127
110335,note_off,392,0,0,,8,,,68,127
110335,note_off,0,0,0,,1,,,61,127
110346,note_on,11,0,0,,11,,,70,127
110346,note_on,0,0,0,,3,,,63,127
110735,note_off,389,0,0,,4,,,76,127
110737,note_off,2,0,0,,3,,,63,127
110737,note_off,0,0,0,,11,,,70,127
110748,note_on,11,0,0,,11,,,70,127
110748,note_on,0,0,0,,3,,,63,127
110748,note_on,0,0,0,,3,,,75,127
111140,note_off,392,0,0,,3,,,75,127
111140,note_off,0,0,0,,3,,,63,127
111140,note_off,0,0,0,,11,,,70,127
111144,note_on,4,0,0,,1,,,61,127
111144,note_on,0,0,0,,8,,,68,127
111144,note_on,0,0,0,,4,,,76,127
111536,note_off,392,0,0,,4,,,76,127
111536,note_off,0,0,0,,8,,,68,127
111536,note_off,0,0,0,,1,,,61,127
111547,note_on,11,0,0,,8,,,68,127
111547,note_on,0,0,0,,1,,,61,127
111547,note_on,0,0,0,,4,,,76,127
111939,note_off,392,0,0,,4,,,76,127
111939,note_off,0,0,0,,1,,,61,127
111939,note_off,0,0,0,,8,,,68,127
111950,note_on,11,0,0,,6,,,66,127
111950,note_on,0,0,0,,1,,,61,127
111950,note_on,0,0,0,,11,,,70,127
111950,note_on,0,0,0,,4,,,76,127
112342,note_off,392,0,0,,4,,,76,127
112342,note_off,0,0,0,,11,,,70,127
112342,note_off,0,0,0,,1,,,61,127
112342,note_off,0,0,0,,6,,,66,127
112348,note_on,6,0,0,,1,,,61,127
112348,note_on,0,0,0,,6,,,66,127
112348,note_on,0,0,0,,11,,,70,127
112348,note_on,0,0,0,,4,,,76,127
112740,note_off,392,0,0,,4,,,76,127
112740,note_off,0,0,0,,11,,,70,127
112740,note_off,0,0,0,,6,,,66,127
112740,note_off,0,0,0,,1,,,61,127
112751,note_on,11,0,0,,7,,,67,127
112751,note_on,0,0,0,,4,,,64,127
112751,note_on,0,0,0,,12,,,59,127
112751,note_on,0,0,0,,4,,,76,127
113143,note_off,392,0,0,,12,,,59,127
113143,note_off,0,0,0,,4,,,64,127
113143,note_off,0,0,0,,7,,,67,127
113149,note_on,6,0,0,,7,,,67,127
113149,note_on,0,0,0,,4,,,64,127
113149,note_on,0,0,0,,12,,,59,127
113277,note_off,128,0,0,,4,,,76,127
113281,note_on,4,0,0,,6,,,78,127
113407,note_off,126,0,0,,6,,,78,127
113415,note_on,8,0,0,,7,,,79,127
113539,note_off,124,0,0,,12,,,59,127
113539,note_off,0,0,0,,4,,,64,127
113539,note_off,0,0,0,,7,,,67,127
113541,note_off,2,0,0,,7,,,79,127
113547,note_on,6,0,0,,12,,,59,127
113547,note_on,0,0,0,,4,,,64,127
113547,note_on,0,0,0,,7,,,67,127
113547,note_on,0,0,0,,7,,,79,127
113939,note_off,392,0,0,,7,,,79,127
113939,note_off,0,0,0,,7,,,67,127
113939,note_off,0,0,0,,4,,,64,127
113939,note_off,0,0,0,,12,,,59,127
113945,note_on,6,0,0,,12,,,59,127
113945,note_on,0,0,0,,4,,,64,127
113945,note_on,0,0,0,,7,,,67,127
113945,note_on,0,0,0,,7,,,79,127
114337,note_off,392,0,0,,7,,,79,127
114337,note_off,0,0,0,,7,,,67,127
114337,note_off,0,0,0,,4,,,64,127
114337,note_off,0,0,0,,12,,,59,127
114348,note_on,11,0,0,,0,,,60,127
114348,note_on,0,0,0,,4,,,64,127
114348,note_on,0,0,0,,6,,,66,127
114348,note_on,0,0,0,,6,,,78,127
114348,note_on,0,0,0,,0,,,72,127
114474,note_off,126,0,0,,6,,,78,127
114482,note_on,8,0,0,,7,,,79,127
114608,note_off,126,0,0,,7,,,79,127
114612,note_on,4,0,0,,10,,,81,127
114738,note_off,126,0,0,,10,,,81,127
114738,note_off,0,0,0,,6,,,66,127
114738,note_off,0,0,0,,4,,,64,127
114738,note_off,0,0,0,,0,,,60,127
114749,note_on,11,0,0,,0,,,60,127
114749,note_on,0,0,0,,10,,,69,127
114749,note_on,0,0,0,,6,,,66,127
114749,note_on,0,0,0,,4,,,64,127
114749,note_on,0,0,0,,7,,,79,127
114875,note_off,126,0,0,,7,,,79,127
114879,note_on,4,0,0,,6,,,78,127
115005,note_off,126,0,0,,6,,,78,127
115013,note_on,8,0,0,,4,,,76,127
115139,note_off,126,0,0,,4,,,76,127
115139,note_off,0,0,0,,4,,,64,127
115139,note_off,0,0,0,,6,,,66,127
115139,note_off,0,0,0,,10,,,69,127
115139,note_off,0,0,0,,0,,,60,127
115145,note_on,6,0,0,,6,,,66,127
115145,note_on,0,0,0,,4,,,64,127
115145,note_on,0,0,0,,0,,,60,127
115145,note_on,0,0,0,,10,,,69,127
115145,note_on,0,0,0,,3,,,75,127
115337,note_off,192,0,0,,3,,,75,127
115345,note_on,8,0,0,,4,,,76,127
115537,note_off,192,0,0,,4,,,76,127
115537,note_off,0,0,0,,10,,,69,127
115537,note_off,0,0,0,,0,,,60,127
115537,note_off,0,0,0,,4,,,64,127
115537,note_off,0,0,0,,6,,,66,127
115548,note_on,11,0,0,,0,,,60,127
115548,note_on,0,0,0,,4,,,64,127
115548,note_on,0,0,0,,6,,,66,127
115548,note_on,0,0,0,,10,,,69,127
115548,note_on,0,0,0,,6,,,78,127
115639,note_off,91,0,0,,6,,,78,127
115645,note_on,6,0,0,,4,,,76,127
115736,note_off,91,0,0,,4,,,76,127
115751,note_on,15,0,0,,3,,,75,127
115842,note_off,91,0,0,,3,,,75,127
115848,note_on,6,0,0,,4,,,76,127
115939,note_off,91,0,0,,4,,,76,127
115941,note_off,2,0,0,,10,,,69,127
115941,note_off,0,0,0,,6,,,66,127
115941,note_off,0,0,0,,4,,,64,127
115941,note_off,0,0,0,,0,,,60,127
115941,note_off,0,0,0,,0,,,72,127
115949,note_on,8,0,0,,12,,,59,127
115949,note_on,0,0,0,,6,,,66,127
115949,note_on,0,0,0,,12,,,71,127
115949,note_on,0,0,0,,4,,,76,127
116341,note_off,392,0,0,,4,,,76,127
116341,note_off,0,0,0,,12,,,71,127
116341,note_off,0,0,0,,6,,,66,127
116341,note_off,0,0,0,,12,,,59,127
116347,note_on,6,0,0,,12,,,59,127
116347,note_on,0,0,0,,12,,,71,127
116347,note_on,0,0,0,,6,,,66,127
116347,note_on,0,0,0,,6,,,78,127
116739,note_off,392,0,0,,6,,,66,127
116739,note_off,0,0,0,,12,,,71,127
116739,note_off,0,0,0,,12,,,59,127
116750,note_on,11,0,0,,12,,,59,127
116750,note_on,0,0,0,,6,,,66,127
116750,note_on,0,0,0,,12,,,71,127
117137,note_off,387,0,0,,6,,,78,127
117141,note_off,4,0,0,,12,,,71,127
117141,note_off,0,0,0,,6,,,66,127
117141,note_off,0,0,0,,12,,,59,127
117147,note_on,6,0,0,,12,,,59,127
117147,note_on,0,0,0,,6,,,66,127
117147,note_on,0,0,0,,12,,,71,127
117147,note_on,0,0,0,,7,,,79,127
117339,note_off,192,0,0,,7,,,79,127
117347,note_on,8,0,0,,10,,,81,127
117539,note_off,192,0,0,,10,,,81,127
117539,note_off,0,0,0,,12,,,71,127
117539,note_off,0,0,0,,6,,,66,127
117539,note_off,0,0,0,,12,,,59,127
117547,note_on,8,0,0,,0,,,60,127
117547,note_on,0,0,0,,4,,,64,127
117547,note_on,0,0,0,,6,,,66,127
117547,note_on,0,0,0,,10,,,69,127
117547,note_on,0,0,0,,10,,,81,127
117739,note_off,192,0,0,,10,,,81,127
117750,note_on,11,0,0,,7,,,79,127
117939,note_off,189,0,0,,10,,,69,127
117939,note_off,0,0,0,,6,,,66,127
117939,note_off,0,0,0,,4,,,64,127
117939,note_off,0,0,0,,0,,,60,127
117941,note_off,2,0,0,,7,,,79,127
117945,note_on,4,0,0,,0,,,60,127
117945,note_on,0,0,0,,10,,,69,127
117945,note_on,0,0,0,,6,,,66,127
117945,note_on,0,0,0,,4,,,64,127
117945,note_on,0,0,0,,6,,,78,127
118137,note_off,192,0,0,,6,,,78,127
118148,note_on,11,0,0,,4,,,76,127
118337,note_off,189,0,0,,4,,,64,127
118337,note_off,0,0,0,,6,,,66,127
118337,note_off,0,0,0,,10,,,69,127
118337,note_off,0,0,0,,0,,,60,127
118339,note_off,2,0,0,,4,,,76,127
118350,note_on,11,0,0,,10,,,69,127
118350,note_on,0,0,0,,6,,,66,127
118350,note_on,0,0,0,,0,,,60,127
118350,note_on,0,0,0,,4,,,64,127
118350,note_on,0,0,0,,3,,,75,127
118542,note_off,192,0,0,,3,,,75,127
118550,note_on,8,0,0,,4,,,76,127
118742,note_off,192,0,0,,4,,,76,127
118742,note_off,0,0,0,,4,,,64,127
118742,note_off,0,0,0,,0,,,60,127
118742,note_off,0,0,0,,6,,,66,127
118742,note_off,0,0,0,,10,,,69,127
118753,note_on,11,0,0,,0,,,60,127
118753,note_on,0,0,0,,10,,,69,127
118753,note_on,0,0,0,,6,,,66,127
118753,note_on,0,0,0,,4,,,64,127
118753,note_on,0,0,0,,6,,,78,127
118844,note_off,91,0,0,,6,,,78,127
118852,note_on,8,0,0,,4,,,76,127
118943,note_off,91,0,0,,4,,,76,127
118951,note_on,8,0,0,,3,,,75,127
119042,note_off,91,0,0,,3,,,75,127
119050,note_on,8,0,0,,4,,,76,127
119141,note_off,91,0,0,,4,,,76,127
119145,note_off,4,0,0,,4,,,64,127
119145,note_off,0,0,0,,6,,,66,127
119145,note_off,0,0,0,,10,,,69,127
119145,note_off,0,0,0,,0,,,60,127
119149,note_on,4,0,0,,12,,,59,127
119149,note_on,0,0,0,,4,,,76,127
119541,note_off,392,0,0,,4,,,76,127
119562,note_on,21,0,0,,6,,,78,127
119562,note_on,0,0,0,,12,,,47,127
119745,note_off,183,0,0,,12,,,59,127
120069,note_on,324,0,0,,12,,,35,127
120534,note_off,465,0,0,,6,,,78,127
120563,note_off,29,0,0,,12,,,35,127
120738,note_on,175,0,0,,12,,,59,127
120738,note_on,0,0,0,,3,,,63,127
120738,note_on,0,0,0,,12,,,71,127
120753,note_off,15,0,0,,12,,,47,127
121145,note_off,392,0,0,,12,,,59,127
121153,note_off,8,0,0,,12,,,71,127
121153,note_off,0,0,0,,3,,,63,127
121157,note_on,4,0,0,,1,,,73,127
121157,note_on,0,0,0,,4,,,64,127
121157,note_on,0,0,0,,12,,,59,127
121157,note_on,0,0,0,,1,,,61,127
121349,note_off,192,0,0,,1,,,73,127
121357,note_on,8,0,0,,3,,,75,127
121549,note_off,192,0,0,,3,,,75,127
121551,note_off,2,0,0,,1,,,61,127
121551,note_off,0,0,0,,12,,,59,127
121551,note_off,0,0,0,,4,,,64,127
121562,note_on,11,0,0,,3,,,75,127
121562,note_on,0,0,0,,4,,,64,127
121562,note_on,0,0,0,,12,,,59,127
121562,note_on,0,0,0,,1,,,61,127
121754,note_off,192,0,0,,3,,,75,127
121762,note_on,8,0,0,,4,,,76,127
121954,note_off,192,0,0,,4,,,76,127
121956,note_off,2,0,0,,1,,,61,127
121956,note_off,0,0,0,,12,,,59,127
121956,note_off,0,0,0,,4,,,64,127
121967,note_on,11,0,0,,4,,,76,127
121967,note_on,0,0,0,,4,,,64,127
121967,note_on,0,0,0,,10,,,57,127
121967,note_on,0,0,0,,1,,,61,127
122361,note_off,394,0,0,,1,,,61,127
122361,note_off,0,0,0,,10,,,57,127
122361,note_off,0,0,0,,4,,,64,127
122361,note_off,0,0,0,,4,,,76,127
122367,note_on,6,0,0,,3,,,75,127
122367,note_on,0,0,0,,4,,,64,127
122367,note_on,0,0,0,,1,,,61,127
122367,note_on,0,0,0,,10,,,57,127
122458,note_off,91,0,0,,3,,,75,127
122471,note_on,13,0,0,,1,,,73,127
122562,note_off,91,0,0,,1,,,73,127
122573,note_on,11,0,0,,12,,,71,127
122664,note_off,91,0,0,,12,,,71,127
122672,note_on,8,0,0,,10,,,69,127
122763,note_off,91,0,0,,10,,,69,127
122763,note_off,0,0,0,,10,,,57,127
122763,note_off,0,0,0,,1,,,61,127
122763,note_off,0,0,0,,4,,,64,127
122776,note_on,13,0,0,,12,,,71,127
122776,note_on,0,0,0,,3,,,63,127
122776,note_on,0,0,0,,12,,,59,127
122776,note_on,0,0,0,,10,,,57,127
122968,note_off,192,0,0,,12,,,71,127
122981,note_on,13,0,0,,1,,,73,127
123170,note_off,189,0,0,,10,,,57,127
123170,note_off,0,0,0,,12,,,59,127
123170,note_off,0,0,0,,3,,,63,127
123172,note_off,2,0,0,,1,,,73,127
123180,note_on,8,0,0,,1,,,73,127
123180,note_on,0,0,0,,10,,,57,127
123180,note_on,0,0,0,,3,,,63,127
123180,note_on,0,0,0,,12,,,59,127
123372,note_off,192,0,0,,1,,,73,127
123380,note_on,8,0,0,,3,,,75,127
123572,note_off,192,0,0,,3,,,75,127
123574,note_off,2,0,0,,12,,,59,127
123574,note_off,0,0,0,,3,,,63,127
123574,note_off,0,0,0,,10,,,57,127
123582,note_on,8,0,0,,3,,,75,127
123582,note_on,0,0,0,,8,,,56,127
123582,note_on,0,0,0,,12,,,59,127
123582,note_on,0,0,0,,4,,,64,127
123976,note_off,394,0,0,,4,,,64,127
123976,note_off,0,0,0,,12,,,59,127
123976,note_off,0,0,0,,8,,,56,127
123976,note_off,0,0,0,,3,,,75,127
123991,note_on,15,0,0,,1,,,73,127
123991,note_on,0,0,0,,4,,,64,127
123991,note_on,0,0,0,,12,,,59,127
123991,note_on,0,0,0,,8,,,56,127
124082,note_off,91,0,0,,1,,,73,127
124090,note_on,8,0,0,,12,,,71,127
124181,note_off,91,0,0,,12,,,71,127
124192,note_on,11,0,0,,10,,,69,127
124283,note_off,91,0,0,,10,,,69,127
124291,note_on,8,0,0,,8,,,68,127
124382,note_off,91,0,0,,8,,,68,127
124386,note_off,4,0,0,,8,,,56,127
124386,note_off,0,0,0,,12,,,59,127
124386,note_off,0,0,0,,4,,,64,127
124392,note_on,6,0,0,,10,,,69,127
124392,note_on,0,0,0,,4,,,64,127
124392,note_on,0,0,0,,6,,,54,127
124584,note_off,192,0,0,,10,,,69,127
124597,note_on,13,0,0,,12,,,71,127
124786,note_off,189,0,0,,6,,,54,127
124786,note_off,0,0,0,,4,,,64,127
124788,note_off,2,0,0,,12,,,71,127
124799,note_on,11,0,0,,12,,,71,127
124799,note_on,0,0,0,,4,,,64,127
124799,note_on,0,0,0,,6,,,54,127
124991,note_off,192,0,0,,12,,,71,127
125004,note_on,13,0,0,,1,,,73,127
125193,note_off,189,0,0,,6,,,54,127
125193,note_off,0,0,0,,4,,,64,127
125195,note_off,2,0,0,,1,,,73,127
125206,note_on,11,0,0,,1,,,73,127
125206,note_on,0,0,0,,6,,,54,127
125206,note_on,0,0,0,,3,,,63,127
125600,note_off,394,0,0,,3,,,63,127
125600,note_off,0,0,0,,6,,,54,127
125600,note_off,0,0,0,,1,,,73,127
125608,note_on,8,0,0,,12,,,71,127
125608,note_on,0,0,0,,6,,,54,127
125608,note_on,0,0,0,,3,,,63,127
125699,note_off,91,0,0,,12,,,71,127
125705,note_on,6,0,0,,10,,,69,127
125796,note_off,91,0,0,,10,,,69,127
125809,note_on,13,0,0,,8,,,68,127
125900,note_off,91,0,0,,8,,,68,127
125911,note_on,11,0,0,,6,,,66,127
126002,note_off,91,0,0,,6,,,66,127
126004,note_off,2,0,0,,3,,,63,127
126004,note_off,0,0,0,,6,,,54,127
126015,note_on,11,0,0,,8,,,68,127
126015,note_on,0,0,0,,4,,,52,127
126015,note_on,0,0,0,,4,,,64,127
126207,note_off,192,0,0,,8,,,68,127
126215,note_on,8,0,0,,10,,,69,127
126407,note_off,192,0,0,,10,,,69,127
126409,note_off,2,0,0,,4,,,64,127
126409,note_off,0,0,0,,4,,,52,127
126415,note_on,6,0,0,,10,,,69,127
126415,note_on,0,0,0,,4,,,64,127
126415,note_on,0,0,0,,4,,,52,127
126607,note_off,192,0,0,,10,,,69,127
126620,note_on,13,0,0,,12,,,71,127
126809,note_off,189,0,0,,4,,,52,127
126809,note_off,0,0,0,,4,,,64,127
126811,note_off,2,0,0,,12,,,71,127
126822,note_on,11,0,0,,12,,,71,127
126822,note_on,0,0,0,,4,,,52,127
126822,note_on,0,0,0,,8,,,56,127
126822,note_on,0,0,0,,12,,,59,127
127195,note_off,373,0,0,,12,,,71,127
127216,note_off,21,0,0,,12,,,59,127
127216,note_off,0,0,0,,8,,,56,127
127216,note_off,0,0,0,,4,,,52,127
127227,note_on,11,0,0,,4,,,64,127
127227,note_on,0,0,0,,12,,,59,127
127227,note_on,0,0,0,,8,,,56,127
127227,note_on,0,0,0,,4,,,52,127
127600,note_off,373,0,0,,4,,,64,127
127621,note_off,21,0,0,,4,,,52,127
127621,note_off,0,0,0,,8,,,56,127
127621,note_off,0,0,0,,12,,,59,127
127629,note_on,8,0,0,,6,,,66,127
127629,note_on,0,0,0,,4,,,52,127
127629,note_on,0,0,0,,6,,,54,127
127629,note_on,0,0,0,,10,,,57,127
127821,note_off,192,0,0,,6,,,66,127
127834,note_on,13,0,0,,8,,,68,127
128023,note_off,189,0,0,,10,,,57,127
128023,note_off,0,0,0,,6,,,54,127
128023,note_off,0,0,0,,4,,,52,127
128025,note_off,2,0,0,,8,,,68,127
128038,note_on,13,0,0,,10,,,69,127
128038,note_on,0,0,0,,4,,,52,127
128038,note_on,0,0,0,,6,,,54,127
128038,note_on,0,0,0,,10,,,57,127
128230,note_off,192,0,0,,10,,,69,127
128241,note_on,11,0,0,,11,,,70,127
128433,note_off,192,0,0,,11,,,70,127
128433,note_off,0,0,0,,10,,,57,127
128433,note_off,0,0,0,,6,,,54,127
128433,note_off,0,0,0,,4,,,52,127
128441,note_on,8,0,0,,11,,,70,127
128441,note_on,0,0,0,,3,,,51,127
128441,note_on,0,0,0,,12,,,59,127
128441,note_on,0,0,0,,6,,,54,127
128532,note_off,91,0,0,,11,,,70,127
128543,note_on,11,0,0,,12,,,71,127
128634,note_off,91,0,0,,12,,,71,127
128645,note_on,11,0,0,,1,,,73,127
128736,note_off,91,0,0,,1,,,73,127
128744,note_on,8,0,0,,12,,,71,127
128837,note_off,93,0,0,,6,,,54,127
128837,note_off,0,0,0,,12,,,59,127
128837,note_off,0,0,0,,3,,,51,127
128848,note_on,11,0,0,,12,,,59,127
128848,note_on,0,0,0,,3,,,51,127
128848,note_on,0,0,0,,6,,,54,127
129037,note_off,189,0,0,,12,,,71,127
129052,note_on,15,0,0,,10,,,69,127
129241,note_off,189,0,0,,6,,,54,127
129241,note_off,0,0,0,,3,,,51,127
129241,note_off,0,0,0,,12,,,59,127
129243,note_off,2,0,0,,10,,,69,127
129254,note_on,11,0,0,,8,,,68,127
129254,note_on,0,0,0,,4,,,52,127
129254,note_on,0,0,0,,12,,,59,127
129345,note_off,91,0,0,,8,,,68,127
129353,note_on,8,0,0,,6,,,66,127
129444,note_off,91,0,0,,6,,,66,127
129455,note_on,11,0,0,,4,,,64,127
129647,note_off,192,0,0,,4,,,64,127
129649,note_off,2,0,0,,12,,,59,127
129649,note_off,0,0,0,,4,,,52,127
129657,note_on,8,0,0,,6,,,66,127
129657,note_on,0,0,0,,12,,,59,127
129657,note_on,0,0,0,,4,,,52,127
129748,note_off,91,0,0,,6,,,66,127
129756,note_on,8,0,0,,4,,,64,127
129847,note_off,91,0,0,,4,,,64,127
129858,note_on,11,0,0,,3,,,63,127
130050,note_off,192,0,0,,3,,,63,127
130052,note_off,2,0,0,,4,,,52,127
130052,note_off,0,0,0,,12,,,59,127
130063,note_on,11,0,0,,4,,,64,127
130063,note_on,0,0,0,,8,,,56,127
130063,note_on,0,0,0,,4,,,52,127
130063,note_on,0,0,0,,12,,,59,127
130457,note_off,394,0,0,,12,,,59,127
130457,note_off,0,0,0,,4,,,52,127
130457,note_off,0,0,0,,8,,,56,127
130457,note_off,0,0,0,,4,,,64,127
130463,note_on,6,0,0,,4,,,64,127
130463,note_on,0,0,0,,12,,,59,127
130463,note_on,0,0,0,,8,,,56,127
130463,note_on,0,0,0,,4,,,52,127
130857,note_off,394,0,0,,4,,,52,127
130857,note_off,0,0,0,,8,,,56,127
130857,note_off,0,0,0,,12,,,59,127
130857,note_off,0,0,0,,4,,,64,127
130872,note_on,15,0,0,,10,,,57,127
130872,note_on,0,0,0,,6,,,54,127
130872,note_on,0,0,0,,4,,,52,127
130872,note_on,0,0,0,,6,,,66,127
131064,note_off,192,0,0,,6,,,66,127
131079,note_on,15,0,0,,8,,,68,127
131268,note_off,189,0,0,,4,,,52,127
131268,note_off,0,0,0,,6,,,54,127
131268,note_off,0,0,0,,10,,,57,127
131270,note_off,2,0,0,,8,,,68,127
131283,note_on,13,0,0,,4,,,52,127
131283,note_on,0,0,0,,10,,,57,127
131283,note_on,0,0,0,,6,,,54,127
131283,note_on,0,0,0,,10,,,69,127
131475,note_off,192,0,0,,10,,,69,127
131486,note_on,11,0,0,,11,,,70,127
131678,note_off,192,0,0,,11,,,70,127
131680,note_off,2,0,0,,6,,,54,127
131680,note_off,0,0,0,,10,,,57,127
131680,note_off,0,0,0,,4,,,52,127
131691,note_on,11,0,0,,3,,,51,127
131691,note_on,0,0,0,,12,,,59,127
131691,note_on,0,0,0,,10,,,57,127
131691,note_on,0,0,0,,11,,,70,127
131782,note_off,91,0,0,,11,,,70,127
131790,note_on,8,0,0,,12,,,71,127
131881,note_off,91,0,0,,12,,,71,127
131896,note_on,15,0,0,,1,,,73,127
131987,note_off,91,0,0,,1,,,73,127
131995,note_on,8,0,0,,12,,,71,127
132088,note_off,93,0,0,,10,,,57,127
132088,note_off,0,0,0,,12,,,59,127
132088,note_off,0,0,0,,3,,,51,127
132103,note_on,15,0,0,,3,,,51,127
132103,note_on,0,0,0,,10,,,57,127
132103,note_on,0,0,0,,12,,,59,127
132290,note_off,187,0,0,,12,,,71,127
132307,note_on,17,0,0,,10,,,69,127
132499,note_off,192,0,0,,10,,,69,127
132499,note_off,0,0,0,,12,,,59,127
132499,note_off,0,0,0,,10,,,57,127
132499,note_off,0,0,0,,3,,,51,127
132510,note_on,11,0,0,,12,,,59,127
132510,note_on,0,0,0,,8,,,56,127
132510,note_on,0,0,0,,4,,,52,127
132510,note_on,0,0,0,,8,,,68,127
132601,note_off,91,0,0,,8,,,68,127
132612,note_on,11,0,0,,6,,,66,127
132703,note_off,91,0,0,,6,,,66,127
132716,note_on,13,0,0,,4,,,64,127
132929,note_off,213,0,0,,4,,,52,127
132929,note_off,0,0,0,,8,,,56,127
132929,note_off,0,0,0,,12,,,59,127
132931,note_off,2,0,0,,4,,,64,127
132946,note_on,15,0,0,,4,,,52,127
132946,note_on,0,0,0,,8,,,56,127
132946,note_on,0,0,0,,12,,,59,127
132946,note_on,0,0,0,,6,,,66,127
133037,note_off,91,0,0,,6,,,66,127
133045,note_on,8,0,0,,4,,,64,127
133136,note_off,91,0,0,,4,,,64,127
133151,note_on,15,0,0,,3,,,63,127
133376,note_off,225,0,0,,12,,,59,127
133376,note_off,0,0,0,,8,,,56,127
133376,note_off,0,0,0,,4,,,52,127
133395,note_off,19,0,0,,3,,,63,127
133397,note_on,2,0,0,,4,,,52,127
133397,note_on,0,0,0,,8,,,56,127
133397,note_on,0,0,0,,12,,,59,127
133397,note_on,0,0,0,,4,,,64,127
134361,note_off,964,0,0,,12,,,59,127
134361,note_off,0,0,0,,8,,,56,127
134361,note_off,0,0,0,,4,,,52,127
134466,note_on,105,0,0,,4,,,76,127
134468,note_off,2,0,0,,4,,,64,127
134889,note_off,421,0,0,,4,,,76,127
134908,note_on,19,0,0,,4,,,76,127
135300,note_off,392,0,0,,4,,,76,127
135315,note_on,15,0,0,,8,,,68,127
135315,note_on,0,0,0,,4,,,64,127
135315,note_on,0,0,0,,12,,,71,127
135707,note_off,392,0,0,,4,,,64,127
135707,note_off,0,0,0,,8,,,68,127
135713,note_on,6,0,0,,4,,,64,127
135713,note_on,0,0,0,,8,,,68,127
136105,note_off,392,0,0,,8,,,68,127
136105,note_off,0,0,0,,4,,,64,127
136107,note_off,2,0,0,,12,,,71,127
136115,note_on,8,0,0,,4,,,64,127
136115,note_on,0,0,0,,8,,,68,127
136115,note_on,0,0,0,,4,,,76,127
136507,note_off,392,0,0,,4,,,76,127
136513,note_on,6,0,0,,7,,,79,127
136570,note_off,57,0,0,,8,,,68,127
136570,note_off,0,0,0,,4,,,64,127
136905,note_off,335,0,0,,7,,,79,127
136913,note_on,8,0,0,,2,,,62,127
136913,note_on,0,0,0,,10,,,69,127
136913,note_on,0,0,0,,5,,,77,127
137305,note_off,392,0,0,,10,,,69,127
137305,note_off,0,0,0,,2,,,62,127
137318,note_on,13,0,0,,2,,,62,127
137318,note_on,0,0,0,,10,,,69,127
137705,note_off,387,0,0,,5,,,77,127
137709,note_off,4,0,0,,10,,,69,127
137709,note_off,0,0,0,,2,,,62,127
137715,note_on,6,0,0,,2,,,62,127
137715,note_on,0,0,0,,10,,,69,127
137715,note_on,0,0,0,,10,,,81,127
138107,note_off,392,0,0,,10,,,81,127
138115,note_on,8,0,0,,8,,,80,127
138311,note_off,196,0,0,,10,,,69,127
138311,note_off,0,0,0,,2,,,62,127
138507,note_off,196,0,0,,8,,,80,127
138513,note_on,6,0,0,,5,,,65,127
138513,note_on,0,0,0,,10,,,69,127
138513,note_on,0,0,0,,5,,,77,127
138905,note_off,392,0,0,,5,,,77,127
138905,note_off,0,0,0,,10,,,69,127
138905,note_off,0,0,0,,5,,,65,127
138916,note_on,11,0,0,,5,,,65,127
138916,note_on,0,0,0,,10,,,69,127
138916,note_on,0,0,0,,0,,,72,127
139308,note_off,392,0,0,,0,,,72,127
139308,note_off,0,0,0,,10,,,69,127
139308,note_off,0,0,0,,5,,,65,127
139316,note_on,8,0,0,,5,,,65,127
139316,note_on,0,0,0,,10,,,69,127
139316,note_on,0,0,0,,10,,,81,127
139316,note_on,0,0,0,,4,,,76,127
139407,note_off,91,0,0,,4,,,76,127
139420,note_on,13,0,0,,2,,,74,127
139515,note_on,95,0,0,,0,,,72,127
139519,note_off,4,0,0,,2,,,74,127
139618,note_on,99,0,0,,2,,,74,127
139620,note_off,2,0,0,,0,,,72,127
139708,note_off,88,0,0,,2,,,74,127
139708,note_off,0,0,0,,10,,,69,127
139708,note_off,0,0,0,,5,,,65,127
139714,note_on,6,0,0,,4,,,64,127
139714,note_on,0,0,0,,2,,,74,127
140106,note_off,392,0,0,,2,,,74,127
140117,note_on,11,0,0,,4,,,52,127
140117,note_on,0,0,0,,4,,,76,127
140311,note_off,194,0,0,,4,,,64,127
140500,note_off,189,0,0,,10,,,81,127
140517,note_on,17,0,0,,4,,,40,127
140517,note_on,0,0,0,,8,,,80,127
140517,note_on,0,0,0,,12,,,71,127
140906,note_off,389,0,0,,4,,,76,127
140906,note_off,0,0,0,,4,,,52,127
140908,note_off,2,0,0,,12,,,71,127
140908,note_off,0,0,0,,8,,,80,127
140984,note_on,76,0,0,,4,,,76,127
141306,note_off,322,0,0,,4,,,40,127
141375,note_off,69,0,0,,4,,,76,127
141386,note_on,11,0,0,,5,,,77,127
141477,note_off,91,0,0,,5,,,77,127
141483,note_on,6,0,0,,4,,,76,127
141574,note_off,91,0,0,,4,,,76,127
141587,note_on,13,0,0,,2,,,74,127
141678,note_off,91,0,0,,2,,,74,127
141686,note_on,8,0,0,,0,,,72,127
141777,note_off,91,0,0,,0,,,72,127
141790,note_on,13,0,0,,12,,,71,127
141790,note_on,0,0,0,,4,,,64,127
141790,note_on,0,0,0,,8,,,68,127
142184,note_off,394,0,0,,8,,,68,127
142184,note_off,0,0,0,,4,,,64,127
142195,note_on,11,0,0,,4,,,64,127
142195,note_on,0,0,0,,8,,,68,127
142589,note_off,394,0,0,,8,,,68,127
142589,note_off,0,0,0,,4,,,64,127
142589,note_off,0,0,0,,12,,,71,127
142595,note_on,6,0,0,,4,,,76,127
142595,note_on,0,0,0,,8,,,68,127
142595,note_on,0,0,0,,4,,,64,127
142989,note_off,394,0,0,,4,,,76,127
143002,note_on,13,0,0,,7,,,79,127
143055,note_off,53,0,0,,4,,,64,127
143055,note_off,0,0,0,,8,,,68,127
143129,note_off,74,0,0,,7,,,79,127
143140,note_on,11,0,0,,5,,,77,127
143266,note_off,126,0,0,,5,,,77,127
143272,note_on,6,0,0,,4,,,76,127
143407,note_on,135,0,0,,10,,,69,127
143407,note_on,0,0,0,,2,,,62,127
143801,note_off,394,0,0,,2,,,62,127
143801,note_off,0,0,0,,10,,,69,127
143803,note_off,2,0,0,,4,,,76,127
143811,note_on,8,0,0,,5,,,77,127
143811,note_on,0,0,0,,10,,,69,127
143811,note_on,0,0,0,,2,,,62,127
144205,note_off,394,0,0,,2,,,62,127
144205,note_off,0,0,0,,10,,,69,127
144205,note_off,0,0,0,,5,,,77,127
144218,note_on,13,0,0,,10,,,81,127
144218,note_on,0,0,0,,10,,,69,127
144218,note_on,0,0,0,,2,,,62,127
144612,note_off,394,0,0,,10,,,81,127
144620,note_on,8,0,0,,10,,,81,127
144620,note_on,0,0,0,,12,,,83,127
144812,note_off,192,0,0,,12,,,83,127
144812,note_off,0,0,0,,10,,,81,127
144818,note_off,6,0,0,,2,,,62,127
144818,note_off,0,0,0,,10,,,69,127
144822,note_on,4,0,0,,8,,,80,127
145024,note_on,202,0,0,,10,,,69,127
145024,note_on,0,0,0,,5,,,65,127
145216,note_off,192,0,0,,8,,,80,127
145227,note_on,11,0,0,,10,,,81,127
145419,note_off,192,0,0,,10,,,81,127
145419,note_off,0,0,0,,5,,,65,127
145419,note_off,0,0,0,,10,,,69,127
145432,note_on,13,0,0,,0,,,72,127
145432,note_on,0,0,0,,5,,,65,127
145432,note_on,0,0,0,,10,,,69,127
145826,note_off,394,0,0,,10,,,69,127
145826,note_off,0,0,0,,5,,,65,127
145826,note_off,0,0,0,,0,,,72,127
145834,note_on,8,0,0,,10,,,81,127
145834,note_on,0,0,0,,4,,,76,127
145834,note_on,0,0,0,,10,,,69,127
145834,note_on,0,0,0,,5,,,65,127
145925,note_off,91,0,0,,4,,,76,127
145933,note_on,8,0,0,,2,,,74,127
146024,note_off,91,0,0,,2,,,74,127
146037,note_on,13,0,0,,0,,,72,127
146128,note_off,91,0,0,,0,,,72,127
146139,note_on,11,0,0,,2,,,74,127
146230,note_off,91,0,0,,2,,,74,127
146230,note_off,0,0,0,,5,,,65,127
146230,note_off,0,0,0,,10,,,69,127
146241,note_on,11,0,0,,2,,,74,127
146241,note_on,0,0,0,,4,,,64,127
146635,note_off,394,0,0,,2,,,74,127
146671,note_on,36,0,0,,4,,,76,127
146671,note_on,0,0,0,,4,,,52,127
146842,note_off,171,0,0,,4,,,64,127
147040,note_off,198,0,0,,10,,,81,127
147143,note_on,103,0,0,,8,,,80,127
147143,note_on,0,0,0,,12,,,71,127
147143,note_on,0,0,0,,4,,,40,127
147467,note_off,324,0,0,,4,,,52,127
147467,note_off,0,0,0,,4,,,76,127
147985,note_off,518,0,0,,12,,,71,127
147985,note_off,0,0,0,,8,,,80,127
148196,note_off,211,0,0,,4,,,40,127
148329,note_on,133,0,0,,4,,,76,127
148716,note_off,387,0,0,,4,,,76,127
148720,note_on,4,0,0,,1,,,73,127
149101,note_on,381,0,0,,4,,,76,127
149101,note_on,0,0,0,,1,,,61,127
149101,note_on,0,0,0,,10,,,57,127
149288,note_off,187,0,0,,1,,,73,127
149475,note_off,187,0,0,,4,,,76,127
149490,note_on,15,0,0,,12,,,71,127
149669,note_off,179,0,0,,10,,,57,127
149669,note_off,0,0,0,,1,,,61,127
149873,note_on,204,0,0,,4,,,76,127
149873,note_on,0,0,0,,8,,,56,127
149873,note_on,0,0,0,,12,,,59,127
150058,note_off,185,0,0,,12,,,71,127
150247,note_off,189,0,0,,4,,,76,127
150253,note_on,6,0,0,,10,,,69,127
150440,note_off,187,0,0,,12,,,59,127
150440,note_off,0,0,0,,8,,,56,127
150640,note_on,200,0,0,,4,,,76,127
150640,note_on,0,0,0,,6,,,54,127
150640,note_on,0,0,0,,10,,,57,127
150821,note_off,181,0,0,,10,,,69,127
151015,note_off,194,0,0,,4,,,76,127
151028,note_on,13,0,0,,8,,,68,127
151209,note_off,181,0,0,,10,,,57,127
151209,note_off,0,0,0,,6,,,54,127
151409,note_on,200,0,0,,4,,,76,127
151409,note_on,0,0,0,,4,,,52,127
151409,note_on,0,0,0,,8,,,56,127
151596,note_off,187,0,0,,8,,,68,127
151783,note_off,187,0,0,,8,,,56,127
151783,note_off,0,0,0,,4,,,52,127
151783,note_off,0,0,0,,4,,,76,127
151798,note_on,15,0,0,,1,,,73,127
151798,note_on,0,0,0,,10,,,45,127
152173,note_off,375,0,0,,1,,,73,127
152177,note_on,4,0,0,,1,,,85,127
152177,note_on,0,0,0,,4,,,52,127
152552,note_off,375,0,0,,4,,,52,127
152552,note_off,0,0,0,,1,,,85,127
152563,note_on,11,0,0,,12,,,83,127
152563,note_on,0,0,0,,10,,,57,127
152746,note_off,183,0,0,,12,,,83,127
152754,note_on,8,0,0,,10,,,81,127
152937,note_off,183,0,0,,10,,,81,127
152937,note_off,0,0,0,,10,,,57,127
152943,note_off,6,0,0,,10,,,45,127
152947,note_on,4,0,0,,8,,,80,127
152947,note_on,0,0,0,,1,,,49,127
153130,note_off,183,0,0,,8,,,80,127
153138,note_on,8,0,0,,6,,,78,127
153321,note_off,183,0,0,,6,,,78,127
153321,note_off,0,0,0,,1,,,49,127
153332,note_on,11,0,0,,4,,,76,127
153332,note_on,0,0,0,,12,,,47,127
153416,note_off,84,0,0,,4,,,76,127
153424,note_on,8,0,0,,3,,,75,127
153508,note_off,84,0,0,,3,,,75,127
153527,note_on,19,0,0,,4,,,76,127
153611,note_off,84,0,0,,4,,,76,127
153619,note_on,8,0,0,,3,,,75,127
153703,note_off,84,0,0,,3,,,75,127
153714,note_on,11,0,0,,4,,,76,127
153714,note_on,0,0,0,,6,,,54,127
153798,note_off,84,0,0,,4,,,76,127
153811,note_on,13,0,0,,3,,,75,127
153895,note_off,84,0,0,,3,,,75,127
153906,note_on,11,0,0,,1,,,73,127
154089,note_off,183,0,0,,1,,,73,127
154089,note_off,0,0,0,,6,,,54,127
154100,note_on,11,0,0,,12,,,71,127
154100,note_on,0,0,0,,12,,,59,127
154475,note_off,375,0,0,,12,,,71,127
154477,note_off,2,0,0,,12,,,47,127
154485,note_on,8,0,0,,12,,,71,127
154485,note_on,0,0,0,,3,,,63,127
154860,note_off,375,0,0,,3,,,63,127
154860,note_off,0,0,0,,12,,,71,127
154871,note_on,11,0,0,,0,,,72,127
154871,note_on,0,0,0,,4,,,64,127
155242,note_off,371,0,0,,12,,,59,127
155248,note_off,6,0,0,,4,,,64,127
155248,note_off,0,0,0,,0,,,72,127
155261,note_on,13,0,0,,10,,,57,127
155261,note_on,0,0,0,,12,,,47,127
155261,note_on,0,0,0,,3,,,75,127
155261,note_on,0,0,0,,6,,,66,127
155638,note_off,377,0,0,,6,,,66,127
155638,note_off,0,0,0,,3,,,75,127
155638,note_off,0,0,0,,12,,,47,127
155638,note_off,0,0,0,,10,,,57,127
155651,note_on,13,0,0,,12,,,47,127
155651,note_on,0,0,0,,7,,,55,127
155651,note_on,0,0,0,,4,,,76,127
155651,note_on,0,0,0,,7,,,67,127
156028,note_off,377,0,0,,7,,,67,127
156028,note_off,0,0,0,,4,,,76,127
156028,note_off,0,0,0,,7,,,55,127
156028,note_off,0,0,0,,12,,,47,127
156039,note_on,11,0,0,,6,,,54,127
156039,note_on,0,0,0,,12,,,47,127
156039,note_on,0,0,0,,10,,,69,127
156039,note_on,0,0,0,,6,,,78,127
156416,note_off,377,0,0,,6,,,78,127
156416,note_off,0,0,0,,10,,,69,127
156416,note_off,0,0,0,,12,,,47,127
156416,note_off,0,0,0,,6,,,54,127
156427,note_on,11,0,0,,4,,,52,127
156427,note_on,0,0,0,,12,,,47,127
156427,note_on,0,0,0,,6,,,78,127
156427,note_on,0,0,0,,12,,,71,127
156547,note_off,120,0,0,,6,,,78,127
156558,note_on,11,0,0,,7,,,79,127
156678,note_off,120,0,0,,7,,,79,127
156684,note_on,6,0,0,,10,,,81,127
156804,note_off,120,0,0,,10,,,81,127
156804,note_off,0,0,0,,4,,,52,127
156815,note_on,11,0,0,,11,,,58,127
156815,note_on,0,0,0,,7,,,79,127
156935,note_off,120,0,0,,7,,,79,127
156948,note_on,13,0,0,,6,,,78,127
157068,note_off,120,0,0,,6,,,78,127
157076,note_on,8,0,0,,4,,,76,127
157188,note_off,112,0,0,,12,,,47,127
157192,note_off,4,0,0,,11,,,58,127
157196,note_off,4,0,0,,4,,,76,127
157204,note_on,8,0,0,,12,,,47,127
157204,note_on,0,0,0,,12,,,59,127
157204,note_on,0,0,0,,3,,,75,127
157581,note_off,377,0,0,,3,,,75,127
157583,note_off,2,0,0,,12,,,71,127
157598,note_on,15,0,0,,12,,,71,127
157598,note_on,0,0,0,,3,,,63,127
157964,note_off,366,0,0,,12,,,59,127
157996,note_off,32,0,0,,3,,,63,127
157996,note_off,0,0,0,,12,,,71,127
158009,note_on,13,0,0,,0,,,72,127
158009,note_on,0,0,0,,4,,,64,127
158356,note_off,347,0,0,,12,,,47,127
158407,note_off,51,0,0,,4,,,64,127
158407,note_off,0,0,0,,0,,,72,127
158415,note_on,8,0,0,,6,,,66,127
158415,note_on,0,0,0,,3,,,75,127
158415,note_on,0,0,0,,10,,,57,127
158415,note_on,0,0,0,,12,,,47,127
158415,note_on,0,0,0,,6,,,54,127
158813,note_off,398,0,0,,12,,,47,127
158813,note_off,0,0,0,,10,,,57,127
158813,note_off,0,0,0,,3,,,75,127
158813,note_off,0,0,0,,6,,,66,127
158815,note_off,2,0,0,,6,,,54,127
158823,note_on,8,0,0,,7,,,67,127
158823,note_on,0,0,0,,4,,,76,127
158823,note_on,0,0,0,,7,,,55,127
158823,note_on,0,0,0,,12,,,47,127
158823,note_on,0,0,0,,4,,,52,127
159221,note_off,398,0,0,,4,,,52,127
159221,note_off,0,0,0,,12,,,47,127
159221,note_off,0,0,0,,7,,,55,127
159221,note_off,0,0,0,,4,,,76,127
159221,note_off,0,0,0,,7,,,67,127
159229,note_on,8,0,0,,6,,,78,127
159229,note_on,0,0,0,,10,,,69,127
159229,note_on,0,0,0,,12,,,47,127
159229,note_on,0,0,0,,6,,,54,127
159229,note_on,0,0,0,,10,,,57,127
159627,note_off,398,0,0,,10,,,57,127
159627,note_off,0,0,0,,6,,,54,127
159627,note_off,0,0,0,,12,,,47,127
159627,note_off,0,0,0,,10,,,69,127
159627,note_off,0,0,0,,6,,,78,127
159638,note_on,11,0,0,,12,,,71,127
159638,note_on,0,0,0,,4,,,52,127
159638,note_on,0,0,0,,12,,,47,127
159638,note_on,0,0,0,,7,,,55,127
159638,note_on,0,0,0,,6,,,78,127
159720,note_on,82,0,0,,7,,,79,127
159766,note_off,46,0,0,,6,,,78,127
159800,note_on,34,0,0,,10,,,81,127
159848,note_off,48,0,0,,7,,,79,127
159880,note_on,32,0,0,,7,,,79,127
159928,note_off,48,0,0,,10,,,81,127
159960,note_on,32,0,0,,10,,,81,127
160008,note_off,48,0,0,,7,,,79,127
160035,note_off,27,0,0,,4,,,52,127
160046,note_on,11,0,0,,7,,,79,127
160046,note_on,0,0,0,,11,,,58,127
160088,note_off,42,0,0,,10,,,81,127
160174,note_off,86,0,0,,7,,,79,127
160182,note_on,8,0,0,,6,,,78,127
160310,note_off,128,0,0,,6,,,78,127
160316,note_on,6,0,0,,4,,,76,127
160438,note_off,122,0,0,,7,,,55,127
160438,note_off,0,0,0,,12,,,47,127
160442,note_off,4,0,0,,11,,,58,127
160444,note_off,2,0,0,,4,,,76,127
160455,note_on,11,0,0,,3,,,75,127
160455,note_on,0,0,0,,12,,,47,127
160455,note_on,0,0,0,,12,,,59,127
161259,note_off,804,0,0,,12,,,71,127
161295,note_off,36,0,0,,3,,,75,127
161508,note_off,213,0,0,,12,,,47,127
161533,note_off,25,0,0,,12,,,59,127
161659,note_on,126,0,0,,12,,,83,127
162036,note_off,377,0,0,,12,,,83,127
162051,note_on,15,0,0,,7,,,79,127
162428,note_off,377,0,0,,7,,,79,127
162441,note_on,13,0,0,,4,,,76,127
162441,note_on,0,0,0,,12,,,83,127
162818,note_off,377,0,0,,12,,,83,127
162829,note_on,11,0,0,,6,,,78,127
163206,note_off,377,0,0,,6,,,78,127
163206,note_off,0,0,0,,4,,,76,127
163214,note_on,8,0,0,,2,,,74,127
163214,note_on,0,0,0,,12,,,83,127
163591,note_off,377,0,0,,12,,,83,127
163604,note_on,13,0,0,,4,,,76,127
163979,note_off,375,0,0,,2,,,74,127
163981,note_off,2,0,0,,4,,,76,127
163992,note_on,11,0,0,,0,,,72,127
163992,note_on,0,0,0,,7,,,79,127
164369,note_off,377,0,0,,7,,,79,127
164384,note_on,15,0,0,,4,,,76,127
164757,note_off,373,0,0,,0,,,72,127
164761,note_off,4,0,0,,4,,,76,127
164774,note_on,13,0,0,,7,,,67,127
164774,note_on,0,0,0,,12,,,83,127
165151,note_off,377,0,0,,12,,,83,127
165151,note_off,0,0,0,,7,,,67,127
165159,note_on,8,0,0,,10,,,69,127
165159,note_on,0,0,0,,0,,,84,127
165277,note_off,118,0,0,,0,,,84,127
165292,note_on,15,0,0,,12,,,83,127
165410,note_off,118,0,0,,12,,,83,127
165421,note_on,11,0,0,,10,,,81,127
165537,note_off,116,0,0,,10,,,69,127
165539,note_off,2,0,0,,10,,,81,127
165552,note_on,13,0,0,,0,,,72,127
165552,note_on,0,0,0,,7,,,79,127
165670,note_off,118,0,0,,7,,,79,127
165676,note_on,6,0,0,,6,,,78,127
165794,note_off,118,0,0,,6,,,78,127
165809,note_on,15,0,0,,4,,,76,127
165927,note_off,118,0,0,,4,,,76,127
165929,note_off,2,0,0,,0,,,72,127
165937,note_on,8,0,0,,12,,,71,127
165937,note_on,0,0,0,,4,,,76,127
165937,note_on,0,0,0,,7,,,79,127
166314,note_off,377,0,0,,7,,,79,127
166314,note_off,0,0,0,,4,,,76,127
166325,note_on,11,0,0,,12,,,59,127
166325,note_on,0,0,0,,6,,,78,127
166325,note_on,0,0,0,,3,,,75,127
166698,note_off,373,0,0,,12,,,71,127
166702,note_off,4,0,0,,3,,,75,127
166702,note_off,0,0,0,,6,,,78,127
166702,note_off,0,0,0,,12,,,59,127
166715,note_on,13,0,0,,4,,,64,127
166715,note_on,0,0,0,,6,,,78,127
166715,note_on,0,0,0,,3,,,75,127
167092,note_off,377,0,0,,3,,,75,127
167092,note_off,0,0,0,,6,,,78,127
167103,note_on,11,0,0,,4,,,52,127
167103,note_on,0,0,0,,4,,,76,127
167288,note_off,185,0,0,,4,,,64,127
167494,note_on,206,0,0,,4,,,40,127
167675,note_off,181,0,0,,4,,,76,127
167862,note_off,187,0,0,,4,,,52,127
167883,note_on,21,0,0,,12,,,71,127
168254,note_off,371,0,0,,4,,,40,127
168260,note_off,6,0,0,,12,,,71,127
168268,note_on,8,0,0,,7,,,67,127
168645,note_off,377,0,0,,7,,,67,127
168660,note_on,15,0,0,,4,,,64,127
168660,note_on,0,0,0,,12,,,71,127
169037,note_off,377,0,0,,12,,,71,127
169045,note_on,8,0,0,,6,,,66,127
169422,note_off,377,0,0,,6,,,66,127
169424,note_off,2,0,0,,4,,,64,127
169432,note_on,8,0,0,,2,,,62,127
169432,note_on,0,0,0,,12,,,71,127
169809,note_off,377,0,0,,12,,,71,127
169822,note_on,13,0,0,,4,,,64,127
170197,note_off,375,0,0,,2,,,62,127
170199,note_off,2,0,0,,4,,,64,127
170212,note_on,13,0,0,,0,,,60,127
170212,note_on,0,0,0,,7,,,67,127
170589,note_off,377,0,0,,7,,,67,127
170604,note_on,15,0,0,,4,,,64,127
170977,note_off,373,0,0,,0,,,60,127
170981,note_off,4,0,0,,4,,,64,127
170987,note_on,6,0,0,,7,,,55,127
170987,note_on,0,0,0,,12,,,71,127
171364,note_off,377,0,0,,12,,,71,127
171364,note_off,0,0,0,,7,,,55,127
171377,note_on,13,0,0,,10,,,57,127
171377,note_on,0,0,0,,0,,,72,127
171495,note_off,118,0,0,,0,,,72,127
171508,note_on,13,0,0,,12,,,71,127
171626,note_off,118,0,0,,12,,,71,127
171637,note_on,11,0,0,,10,,,69,127
171755,note_off,118,0,0,,10,,,69,127
171755,note_off,0,0,0,,10,,,57,127
171768,note_on,13,0,0,,0,,,60,127
171768,note_on,0,0,0,,10,,,81,127
171886,note_off,118,0,0,,10,,,81,127
171897,note_on,11,0,0,,7,,,79,127
172015,note_off,118,0,0,,7,,,79,127
172028,note_on,13,0,0,,6,,,78,127
172146,note_off,118,0,0,,6,,,78,127
172146,note_off,0,0,0,,0,,,60,127
172154,note_on,8,0,0,,12,,,59,127
172154,note_on,0,0,0,,7,,,79,127
172154,note_on,0,0,0,,4,,,76,127
172562,note_off,408,0,0,,4,,,76,127
172562,note_off,0,0,0,,7,,,79,127
172594,note_on,32,0,0,,6,,,78,127
172594,note_on,0,0,0,,3,,,75,127
172594,note_on,0,0,0,,12,,,47,127
172914,note_off,320,0,0,,12,,,59,127
173030,note_off,116,0,0,,12,,,47,127
173030,note_off,0,0,0,,3,,,75,127
173030,note_off,0,0,0,,6,,,78,127
173815,note_on,785,0,0,,10,,,69,127
173815,note_on,0,0,0,,2,,,62,127
173998,note_off,183,0,0,,10,,,69,127
174004,note_on,6,0,0,,8,,,68,127
174206,note_on,202,0,0,,4,,,40,127
174206,note_on,0,0,0,,4,,,52,127
174574,note_off,368,0,0,,2,,,62,127
174603,note_off,29,0,0,,8,,,68,127
174616,note_on,13,0,0,,8,,,68,127
174616,note_on,0,0,0,,4,,,76,127
174808,note_off,192,0,0,,4,,,76,127
174810,note_off,2,0,0,,4,,,52,127
174810,note_off,0,0,0,,4,,,40,127
174821,note_on,11,0,0,,2,,,74,127
175025,note_on,204,0,0,,4,,,52,127
175025,note_on,0,0,0,,4,,,40,127
175419,note_off,394,0,0,,8,,,68,127
175421,note_off,2,0,0,,4,,,40,127
175421,note_off,0,0,0,,4,,,52,127
175421,note_off,0,0,0,,2,,,74,127
175432,note_on,11,0,0,,10,,,45,127
175432,note_on,0,0,0,,10,,,57,127
175432,note_on,0,0,0,,0,,,72,127
175558,note_off,126,0,0,,0,,,72,127
175569,note_on,11,0,0,,12,,,71,127
175695,note_off,126,0,0,,12,,,71,127
175708,note_on,13,0,0,,10,,,69,127
175828,note_off,120,0,0,,10,,,45,127
175834,note_off,6,0,0,,10,,,69,127
175842,note_on,8,0,0,,0,,,48,127
175842,note_on,0,0,0,,10,,,81,127
175968,note_off,126,0,0,,10,,,81,127
175976,note_on,8,0,0,,7,,,79,127
176102,note_off,126,0,0,,7,,,79,127
176110,note_on,8,0,0,,6,,,78,127
176232,note_off,122,0,0,,10,,,57,127
176236,note_off,4,0,0,,6,,,78,127
176236,note_off,0,0,0,,0,,,48,127
176244,note_on,8,0,0,,12,,,47,127
176244,note_on,0,0,0,,4,,,52,127
176244,note_on,0,0,0,,7,,,55,127
176244,note_on,0,0,0,,7,,,79,127
176244,note_on,0,0,0,,4,,,76,127
176640,note_off,396,0,0,,4,,,76,127
176640,note_off,0,0,0,,7,,,79,127
176640,note_off,0,0,0,,7,,,55,127
176640,note_off,0,0,0,,4,,,52,127
176657,note_on,17,0,0,,6,,,54,127
176657,note_on,0,0,0,,10,,,57,127
176657,note_on,0,0,0,,3,,,75,127
176657,note_on,0,0,0,,6,,,78,127
177339,note_off,682,0,0,,12,,,47,127
177352,note_off,13,0,0,,6,,,78,127
177352,note_off,0,0,0,,3,,,75,127
177352,note_off,0,0,0,,10,,,57,127
177352,note_off,0,0,0,,6,,,54,127
177792,note_on,440,0,0,,10,,,69,127
177792,note_on,0,0,0,,2,,,62,127
177988,note_off,196,0,0,,10,,,69,127
178003,note_on,15,0,0,,8,,,68,127
178209,note_on,206,0,0,,4,,,52,127
178209,note_on,0,0,0,,4,,,40,127
178613,note_off,404,0,0,,2,,,62,127
178617,note_off,4,0,0,,8,,,68,127
178628,note_on,11,0,0,,4,,,76,127
178628,note_on,0,0,0,,8,,,68,127
178824,note_off,196,0,0,,4,,,76,127
178830,note_off,6,0,0,,4,,,40,127
178830,note_off,0,0,0,,4,,,52,127
178838,note_on,8,0,0,,2,,,74,127
179046,note_on,208,0,0,,4,,,52,127
179046,note_on,0,0,0,,4,,,40,127
179448,note_off,402,0,0,,8,,,68,127
179452,note_off,4,0,0,,4,,,40,127
179452,note_off,0,0,0,,4,,,52,127
179452,note_off,0,0,0,,2,,,74,127
179465,note_on,13,0,0,,0,,,72,127
179465,note_on,0,0,0,,10,,,57,127
179465,note_on,0,0,0,,10,,,45,127
179593,note_off,128,0,0,,0,,,72,127
179608,note_on,15,0,0,,12,,,71,127
179736,note_off,128,0,0,,12,,,71,127
179751,note_on,15,0,0,,10,,,69,127
179871,note_off,120,0,0,,10,,,45,127
179879,note_off,8,0,0,,10,,,69,127
179885,note_on,6,0,0,,10,,,81,127
179885,note_on,0,0,0,,0,,,48,127
180013,note_off,128,0,0,,10,,,81,127
180024,note_on,11,0,0,,7,,,79,127
180152,note_off,128,0,0,,7,,,79,127
180169,note_on,17,0,0,,6,,,78,127
180285,note_off,116,0,0,,10,,,57,127
180291,note_off,6,0,0,,0,,,48,127
180297,note_off,6,0,0,,6,,,78,127
180305,note_on,8,0,0,,7,,,79,127
180305,note_on,0,0,0,,4,,,76,127
180305,note_on,0,0,0,,7,,,55,127
180305,note_on,0,0,0,,4,,,52,127
180305,note_on,0,0,0,,12,,,47,127
180711,note_off,406,0,0,,4,,,52,127
180711,note_off,0,0,0,,7,,,55,127
180711,note_off,0,0,0,,4,,,76,127
180711,note_off,0,0,0,,7,,,79,127
180728,note_on,17,0,0,,6,,,78,127
180728,note_on,0,0,0,,3,,,75,127
180728,note_on,0,0,0,,10,,,57,127
180728,note_on,0,0,0,,6,,,54,127
181126,note_off,398,0,0,,12,,,47,127
181134,note_off,8,0,0,,6,,,54,127
181134,note_off,0,0,0,,10,,,57,127
181134,note_off,0,0,0,,3,,,75,127
181134,note_off,0,0,0,,6,,,78,127
181149,note_on,15,0,0,,4,,,76,127
181149,note_on,0,0,0,,4,,,52,127
181149,note_on,0,0,0,,4,,,40,127
181559,note_off,410,0,0,,4,,,40,127
181570,note_on,11,0,0,,12,,,59,127
181623,note_off,53,0,0,,4,,,52,127
181711,note_off,88,0,0,,4,,,76,127
181976,note_on,265,0,0,,1,,,61,127
182353,note_off,377,0,0,,1,,,61,127
182370,note_on,17,0,0,,3,,,63,127
182370,note_on,0,0,0,,10,,,57,127
182395,note_off,25,0,0,,12,,,59,127
182747,note_off,352,0,0,,10,,,57,127
182747,note_off,0,0,0,,3,,,63,127
182760,note_on,13,0,0,,4,,,64,127
182760,note_on,0,0,0,,7,,,55,127
183137,note_off,377,0,0,,7,,,55,127
183137,note_off,0,0,0,,4,,,64,127
183145,note_on,8,0,0,,6,,,66,127
183145,note_on,0,0,0,,6,,,54,127
183522,note_off,377,0,0,,6,,,54,127
183522,note_off,0,0,0,,6,,,66,127
183539,note_on,17,0,0,,7,,,67,127
183539,note_on,0,0,0,,4,,,52,127
183916,note_off,377,0,0,,4,,,52,127
183916,note_off,0,0,0,,7,,,67,127
183922,note_on,6,0,0,,8,,,68,127
183922,note_on,0,0,0,,2,,,50,127
184299,note_off,377,0,0,,2,,,50,127
184299,note_off,0,0,0,,8,,,68,127
184312,note_on,13,0,0,,10,,,69,127
184312,note_on,0,0,0,,0,,,48,127
184689,note_off,377,0,0,,0,,,48,127
184689,note_off,0,0,0,,10,,,69,127
184702,note_on,13,0,0,,12,,,71,127
184702,note_on,0,0,0,,12,,,47,127
185079,note_off,377,0,0,,12,,,47,127
185079,note_off,0,0,0,,12,,,71,127
185092,note_on,13,0,0,,0,,,72,127
185092,note_on,0,0,0,,10,,,45,127
185469,note_off,377,0,0,,10,,,45,127
185469,note_off,0,0,0,,0,,,72,127
185482,note_on,13,0,0,,1,,,73,127
185482,note_on,0,0,0,,7,,,43,127
185876,note_off,394,0,0,,7,,,43,127
185876,note_off,0,0,0,,1,,,73,127
185897,note_on,21,0,0,,10,,,81,127
185897,note_on,0,0,0,,3,,,75,127
185897,note_on,0,0,0,,12,,,71,127
185897,note_on,0,0,0,,6,,,42,127
186276,note_off,379,0,0,,6,,,42,127
186276,note_off,0,0,0,,3,,,75,127
186276,note_off,0,0,0,,10,,,81,127
186297,note_on,21,0,0,,7,,,79,127
186297,note_on,0,0,0,,4,,,52,127
186297,note_on,0,0,0,,4,,,40,127
186478,note_off,181,0,0,,7,,,79,127
186495,note_on,17,0,0,,6,,,78,127
186661,note_off,166,0,0,,12,,,71,127
186676,note_off,15,0,0,,6,,,78,127
186676,note_off,0,0,0,,4,,,40,127
186676,note_off,0,0,0,,4,,,52,127
186691,note_on,15,0,0,,12,,,71,127
186691,note_on,0,0,0,,7,,,79,127
186691,note_on,0,0,0,,4,,,76,127
186691,note_on,0,0,0,,7,,,55,127
186691,note_on,0,0,0,,4,,,52,127
186691,note_on,0,0,0,,12,,,47,127
187070,note_off,379,0,0,,4,,,52,127
187070,note_off,0,0,0,,7,,,55,127
187070,note_off,0,0,0,,4,,,76,127
187070,note_off,0,0,0,,7,,,79,127
187081,note_on,11,0,0,,3,,,75,127
187081,note_on,0,0,0,,6,,,78,127
187081,note_on,0,0,0,,10,,,57,127
187081,note_on,0,0,0,,6,,,54,127
187456,note_off,375,0,0,,12,,,47,127
187456,note_off,0,0,0,,12,,,71,127
187460,note_off,4,0,0,,6,,,54,127
187460,note_off,0,0,0,,10,,,57,127
187460,note_off,0,0,0,,6,,,78,127
187460,note_off,0,0,0,,3,,,75,127
187485,note_on,25,0,0,,4,,,40,127
187485,note_on,0,0,0,,4,,,52,127
187485,note_on,0,0,0,,4,,,76,127
187864,note_off,379,0,0,,4,,,76,127
187864,note_off,0,0,0,,4,,,40,127
187906,note_on,42,0,0,,12,,,59,127
187906,note_on,0,0,0,,12,,,47,127
187912,note_off,6,0,0,,4,,,52,127
188285,note_off,373,0,0,,12,,,47,127
188300,note_on,15,0,0,,1,,,61,127
188675,note_off,375,0,0,,12,,,59,127
188679,note_off,4,0,0,,1,,,61,127
188692,note_on,13,0,0,,3,,,63,127
188692,note_on,0,0,0,,10,,,57,127
189071,note_off,379,0,0,,10,,,57,127
189071,note_off,0,0,0,,3,,,63,127
189082,note_on,11,0,0,,4,,,64,127
189082,note_on,0,0,0,,7,,,55,127
189461,note_off,379,0,0,,7,,,55,127
189461,note_off,0,0,0,,4,,,64,127
189476,note_on,15,0,0,,6,,,66,127
189476,note_on,0,0,0,,6,,,54,127
189855,note_off,379,0,0,,6,,,54,127
189855,note_off,0,0,0,,6,,,66,127
189868,note_on,13,0,0,,7,,,67,127
189868,note_on,0,0,0,,4,,,52,127
190247,note_off,379,0,0,,4,,,52,127
190247,note_off,0,0,0,,7,,,67,127
190266,note_on,19,0,0,,8,,,68,127
190266,note_on,0,0,0,,2,,,50,127
190645,note_off,379,0,0,,2,,,50,127
190645,note_off,0,0,0,,8,,,68,127
190660,note_on,15,0,0,,10,,,69,127
190660,note_on,0,0,0,,0,,,48,127
191039,note_off,379,0,0,,0,,,48,127
191039,note_off,0,0,0,,10,,,69,127
191050,note_on,11,0,0,,12,,,71,127
191050,note_on,0,0,0,,12,,,47,127
191429,note_off,379,0,0,,12,,,47,127
191429,note_off,0,0,0,,12,,,71,127
191442,note_on,13,0,0,,0,,,72,127
191442,note_on,0,0,0,,10,,,45,127
191821,note_off,379,0,0,,10,,,45,127
191821,note_off,0,0,0,,0,,,72,127
191836,note_on,15,0,0,,1,,,73,127
191836,note_on,0,0,0,,7,,,43,127
192215,note_off,379,0,0,,7,,,43,127
192215,note_off,0,0,0,,1,,,73,127
192226,note_on,11,0,0,,10,,,81,127
192226,note_on,0,0,0,,12,,,71,127
192226,note_on,0,0,0,,3,,,75,127
192226,note_on,0,0,0,,6,,,42,127
192611,note_off,385,0,0,,6,,,42,127
192611,note_off,0,0,0,,3,,,75,127
192611,note_off,0,0,0,,10,,,81,127
192630,note_on,19,0,0,,4,,,40,127
192630,note_on,0,0,0,,4,,,52,127
192630,note_on,0,0,0,,7,,,79,127
192815,note_off,185,0,0,,7,,,79,127
192840,note_on,25,0,0,,6,,,78,127
193004,note_off,164,0,0,,12,,,71,127
193021,note_off,17,0,0,,4,,,52,127
193021,note_off,0,0,0,,4,,,40,127
193025,note_off,4,0,0,,6,,,78,127
193054,note_on,29,0,0,,12,,,47,127
193054,note_on,0,0,0,,4,,,52,127
193054,note_on,0,0,0,,7,,,55,127
193054,note_on,0,0,0,,4,,,76,127
193054,note_on,0,0,0,,7,,,79,127
193054,note_on,0,0,0,,12,,,71,127
193446,note_off,392,0,0,,7,,,79,127
193446,note_off,0,0,0,,4,,,76,127
193446,note_off,0,0,0,,7,,,55,127
193446,note_off,0,0,0,,4,,,52,127
193513,note_on,67,0,0,,6,,,54,127
193513,note_on,0,0,0,,10,,,57,127
193513,note_on,0,0,0,,6,,,78,127
193513,note_on,0,0,0,,3,,,75,127
194086,note_off,573,0,0,,12,,,71,127
194086,note_off,0,0,0,,12,,,47,127
194143,note_off,57,0,0,,3,,,75,127
194143,note_off,0,0,0,,6,,,78,127
194143,note_off,0,0,0,,10,,,57,127
194143,note_off,0,0,0,,6,,,54,127
194682,note_on,539,0,0,,0,,,72,127
194924,note_off,242,0,0,,0,,,72,127
194930,note_on,6,0,0,,4,,,76,127
195172,note_off,242,0,0,,4,,,76,127
195193,note_on,21,0,0,,10,,,45,127
195193,note_on,0,0,0,,10,,,57,127
195193,note_on,0,0,0,,0,,,84,127
195629,note_off,436,0,0,,10,,,57,127
195629,note_off,0,0,0,,10,,,45,127
195631,note_on,2,0,0,,12,,,47,127
195631,note_on,0,0,0,,7,,,55,127
195852,note_on,221,0,0,,10,,,81,127
195860,note_off,8,0,0,,0,,,84,127
196054,note_off,194,0,0,,10,,,81,127
196065,note_on,11,0,0,,6,,,54,127
196065,note_on,0,0,0,,6,,,78,127
196067,note_off,2,0,0,,7,,,55,127
196267,note_off,200,0,0,,6,,,78,127
196288,note_on,21,0,0,,3,,,75,127
196490,note_off,202,0,0,,3,,,75,127
196501,note_off,11,0,0,,6,,,54,127
196505,note_on,4,0,0,,3,,,75,127
196528,note_off,23,0,0,,12,,,47,127
196943,note_off,415,0,0,,3,,,75,127
196945,note_on,2,0,0,,0,,,72,127
196945,note_on,0,0,0,,10,,,57,127
196945,note_on,0,0,0,,10,,,45,127
197383,note_off,438,0,0,,10,,,45,127
197383,note_off,0,0,0,,10,,,57,127
197387,note_on,4,0,0,,12,,,47,127
197387,note_on,0,0,0,,7,,,55,127
197612,note_on,225,0,0,,10,,,69,127
197616,note_off,4,0,0,,0,,,72,127
197814,note_off,198,0,0,,10,,,69,127
197825,note_off,11,0,0,,7,,,55,127
197833,note_on,8,0,0,,6,,,54,127
197833,note_on,0,0,0,,6,,,66,127
198035,note_off,202,0,0,,6,,,66,127
198060,note_on,25,0,0,,3,,,63,127
198262,note_off,202,0,0,,3,,,63,127
198270,note_off,8,0,0,,6,,,54,127
198287,note_off,17,0,0,,12,,,47,127
198287,note_on,0,0,0,,3,,,63,127
198489,note_off,202,0,0,,3,,,63,127
198506,note_on,17,0,0,,0,,,60,127
198735,note_on,229,0,0,,10,,,45,127
198948,note_off,213,0,0,,0,,,60,127
198963,note_on,15,0,0,,10,,,57,127
199165,note_off,202,0,0,,10,,,57,127
199178,note_off,13,0,0,,10,,,45,127
199195,note_on,17,0,0,,12,,,47,127
199195,note_on,0,0,0,,7,,,55,127
199439,note_on,244,0,0,,4,,,64,127
199668,note_off,229,0,0,,7,,,55,127
199668,note_off,0,0,0,,12,,,47,127
199685,note_on,17,0,0,,12,,,47,127
199685,note_on,0,0,0,,6,,,54,127
199912,note_off,227,0,0,,4,,,64,127
199925,note_on,13,0,0,,3,,,63,127
200129,note_off,204,0,0,,3,,,63,127
200158,note_off,29,0,0,,6,,,54,127
200158,note_off,0,0,0,,12,,,47,127
200162,note_on,4,0,0,,4,,,40,127
200162,note_on,0,0,0,,3,,,63,127
200968,note_on,806,0,0,,4,,,64,127
201002,note_off,34,0,0,,3,,,63,127
203613,note_off,2611,0,0,,4,,,64,127
203632,note_off,19,0,0,,4,,,40,127
204288,end_of_track,656,1,0,,,,,,
