tick,type,time,meta,track,program,channel,pitch,tempo,note,velocity
0,copyright,0,1,0,,,,,,
0,program_change,0,0,0,6,0,,,,
0,pitchwheel,0,0,0,,0,0,,,
0,program_change,0,0,0,6,1,,,,
0,pitchwheel,0,0,0,,1,-590,,,
0,program_change,0,0,0,6,2,,,,
0,pitchwheel,0,0,0,,2,-272,,,
0,program_change,0,0,0,6,3,,,,
0,pitchwheel,0,0,0,,3,-353,,,
0,program_change,0,0,0,6,4,,,,
0,pitchwheel,0,0,0,,4,-560,,,
0,program_change,0,0,0,6,5,,,,
0,pitchwheel,0,0,0,,5,-80,,,
0,program_change,0,0,0,6,6,,,,
0,pitchwheel,0,0,0,,6,-625,,,
0,program_change,0,0,0,6,7,,,,
0,pitchwheel,0,0,0,,7,-130,,,
0,program_change,0,0,0,6,8,,,,
0,pitchwheel,0,0,0,,8,-512,,,
0,program_change,0,0,0,6,10,,,,
0,pitchwheel,0,0,0,,10,-464,,,
0,program_change,0,0,0,6,11,,,,
0,pitchwheel,0,0,0,,11,-208,,,
0,program_change,0,0,0,6,12,,,,
0,pitchwheel,0,0,0,,12,-553,,,
0,set_tempo,0,1,0,,,,500000,,
110,note_on,110,0,0,,4,,,40,127
329,note_on,219,0,0,,4,,,76,127
329,note_on,0,0,0,,8,,,80,127
436,note_off,107,0,0,,8,,,80,127
436,note_off,0,0,0,,4,,,76,127
438,note_on,2,0,0,,6,,,78,127
438,note_on,0,0,0,,3,,,75,127
545,note_off,107,0,0,,3,,,75,127
545,note_off,0,0,0,,6,,,78,127
547,note_on,2,0,0,,4,,,76,127
547,note_on,0,0,0,,8,,,80,127
654,note_off,107,0,0,,8,,,80,127
654,note_off,0,0,0,,4,,,76,127
656,note_on,2,0,0,,10,,,81,127
656,note_on,0,0,0,,6,,,78,127
763,note_off,107,0,0,,6,,,78,127
763,note_off,0,0,0,,10,,,81,127
763,note_off,0,0,0,,4,,,40,127
765,note_on,2,0,0,,4,,,52,127
765,note_on,0,0,0,,8,,,80,127
765,note_on,0,0,0,,12,,,83,127
982,note_off,217,0,0,,12,,,83,127
982,note_off,0,0,0,,8,,,80,127
984,note_on,2,0,0,,10,,,81,127
984,note_on,0,0,0,,6,,,78,127
1091,note_off,107,0,0,,6,,,78,127
1091,note_off,0,0,0,,10,,,81,127
1093,note_on,2,0,0,,4,,,76,127
1093,note_on,0,0,0,,8,,,80,127
1200,note_off,107,0,0,,8,,,80,127
1200,note_off,0,0,0,,4,,,76,127
1202,note_on,2,0,0,,10,,,81,127
1202,note_on,0,0,0,,6,,,78,127
1309,note_off,107,0,0,,6,,,78,127
1309,note_off,0,0,0,,10,,,81,127
1311,note_on,2,0,0,,8,,,80,127
1311,note_on,0,0,0,,12,,,83,127
1418,note_off,107,0,0,,12,,,83,127
1418,note_off,0,0,0,,8,,,80,127
1418,note_off,0,0,0,,4,,,52,127
1420,note_on,2,0,0,,10,,,69,127
1420,note_on,0,0,0,,1,,,85,127
1420,note_on,0,0,0,,10,,,81,127
1527,note_off,107,0,0,,10,,,69,127
1529,note_on,2,0,0,,6,,,66,127
1636,note_off,107,0,0,,6,,,66,127
1638,note_on,2,0,0,,3,,,63,127
1745,note_off,107,0,0,,3,,,63,127
1747,note_on,2,0,0,,10,,,57,127
1854,note_off,107,0,0,,10,,,57,127
1856,note_on,2,0,0,,6,,,54,127
1963,note_off,107,0,0,,6,,,54,127
1965,note_on,2,0,0,,3,,,51,127
2072,note_off,107,0,0,,3,,,51,127
2074,note_on,2,0,0,,12,,,47,127
2181,note_off,107,0,0,,10,,,81,127
2181,note_off,0,0,0,,1,,,85,127
2183,note_on,2,0,0,,10,,,81,127
2183,note_on,0,0,0,,1,,,85,127
2290,note_off,107,0,0,,1,,,85,127
2290,note_off,0,0,0,,10,,,81,127
2292,note_on,2,0,0,,12,,,83,127
2292,note_on,0,0,0,,8,,,80,127
2399,note_off,107,0,0,,8,,,80,127
2399,note_off,0,0,0,,12,,,83,127
2401,note_on,2,0,0,,6,,,78,127
2401,note_on,0,0,0,,10,,,81,127
2508,note_off,107,0,0,,10,,,81,127
2508,note_off,0,0,0,,6,,,78,127
2510,note_on,2,0,0,,4,,,76,127
2510,note_on,0,0,0,,8,,,80,127
2617,note_off,107,0,0,,8,,,80,127
2617,note_off,0,0,0,,4,,,76,127
2619,note_on,2,0,0,,3,,,75,127
2619,note_on,0,0,0,,6,,,78,127
2726,note_off,107,0,0,,6,,,78,127
2726,note_off,0,0,0,,3,,,75,127
2726,note_off,0,0,0,,12,,,47,127
2728,note_on,2,0,0,,4,,,40,127
2728,note_on,0,0,0,,4,,,76,127
2728,note_on,0,0,0,,8,,,80,127
2945,note_off,217,0,0,,8,,,80,127
2945,note_off,0,0,0,,4,,,76,127
2947,note_on,2,0,0,,4,,,76,127
2947,note_on,0,0,0,,8,,,80,127
3054,note_off,107,0,0,,8,,,80,127
3054,note_off,0,0,0,,4,,,76,127
3056,note_on,2,0,0,,3,,,75,127
3056,note_on,0,0,0,,6,,,78,127
3163,note_off,107,0,0,,6,,,78,127
3163,note_off,0,0,0,,3,,,75,127
3165,note_on,2,0,0,,4,,,76,127
3165,note_on,0,0,0,,8,,,80,127
3272,note_off,107,0,0,,8,,,80,127
3272,note_off,0,0,0,,4,,,76,127
3274,note_on,2,0,0,,10,,,81,127
3274,note_on,0,0,0,,6,,,78,127
3381,note_off,107,0,0,,6,,,78,127
3381,note_off,0,0,0,,10,,,81,127
3381,note_off,0,0,0,,4,,,40,127
3383,note_on,2,0,0,,4,,,52,127
3383,note_on,0,0,0,,12,,,83,127
3383,note_on,0,0,0,,8,,,80,127
3600,note_off,217,0,0,,8,,,80,127
3600,note_off,0,0,0,,12,,,83,127
3602,note_on,2,0,0,,6,,,78,127
3602,note_on,0,0,0,,10,,,81,127
3709,note_off,107,0,0,,10,,,81,127
3709,note_off,0,0,0,,6,,,78,127
3711,note_on,2,0,0,,8,,,80,127
3711,note_on,0,0,0,,4,,,76,127
3818,note_off,107,0,0,,4,,,76,127
3818,note_off,0,0,0,,8,,,80,127
3820,note_on,2,0,0,,10,,,81,127
3820,note_on,0,0,0,,6,,,78,127
3927,note_off,107,0,0,,6,,,78,127
3927,note_off,0,0,0,,10,,,81,127
3929,note_on,2,0,0,,8,,,80,127
3929,note_on,0,0,0,,12,,,83,127
4036,note_off,107,0,0,,12,,,83,127
4036,note_off,0,0,0,,8,,,80,127
4036,note_off,0,0,0,,4,,,52,127
4038,note_on,2,0,0,,10,,,69,127
4038,note_on,0,0,0,,10,,,81,127
4038,note_on,0,0,0,,1,,,85,127
4145,note_off,107,0,0,,10,,,69,127
4147,note_on,2,0,0,,6,,,66,127
4254,note_off,107,0,0,,6,,,66,127
4256,note_on,2,0,0,,3,,,63,127
4363,note_off,107,0,0,,3,,,63,127
4365,note_on,2,0,0,,10,,,57,127
4472,note_off,107,0,0,,10,,,57,127
4474,note_on,2,0,0,,6,,,54,127
4581,note_off,107,0,0,,6,,,54,127
4583,note_on,2,0,0,,3,,,51,127
4690,note_off,107,0,0,,3,,,51,127
4692,note_on,2,0,0,,12,,,47,127
4799,note_off,107,0,0,,1,,,85,127
4799,note_off,0,0,0,,10,,,81,127
4801,note_on,2,0,0,,10,,,81,127
4801,note_on,0,0,0,,1,,,85,127
4908,note_off,107,0,0,,1,,,85,127
4908,note_off,0,0,0,,10,,,81,127
4910,note_on,2,0,0,,12,,,83,127
4910,note_on,0,0,0,,8,,,80,127
5017,note_off,107,0,0,,8,,,80,127
5017,note_off,0,0,0,,12,,,83,127
5019,note_on,2,0,0,,10,,,81,127
5019,note_on,0,0,0,,6,,,78,127
5126,note_off,107,0,0,,6,,,78,127
5126,note_off,0,0,0,,10,,,81,127
5128,note_on,2,0,0,,8,,,80,127
5128,note_on,0,0,0,,4,,,76,127
5235,note_off,107,0,0,,4,,,76,127
5235,note_off,0,0,0,,8,,,80,127
5237,note_on,2,0,0,,3,,,75,127
5237,note_on,0,0,0,,6,,,78,127
5344,note_off,107,0,0,,6,,,78,127
5344,note_off,0,0,0,,3,,,75,127
5344,note_off,0,0,0,,12,,,47,127
5346,note_on,2,0,0,,4,,,52,127
5346,note_on,0,0,0,,4,,,40,127
5346,note_on,0,0,0,,10,,,81,127
5346,note_on,0,0,0,,4,,,76,127
5399,note_off,53,0,0,,4,,,76,127
5399,note_off,0,0,0,,10,,,81,127
5401,note_on,2,0,0,,8,,,80,127
5454,note_off,53,0,0,,8,,,80,127
5456,note_on,2,0,0,,10,,,81,127
5509,note_off,53,0,0,,10,,,81,127
5511,note_on,2,0,0,,8,,,80,127
5564,note_off,53,0,0,,8,,,80,127
5566,note_on,2,0,0,,10,,,81,127
5619,note_off,53,0,0,,10,,,81,127
5621,note_on,2,0,0,,8,,,80,127
5674,note_off,53,0,0,,8,,,80,127
5676,note_on,2,0,0,,6,,,78,127
5783,note_off,107,0,0,,6,,,78,127
5785,note_on,2,0,0,,4,,,76,127
6002,note_off,217,0,0,,4,,,76,127
6002,note_off,0,0,0,,4,,,40,127
6002,note_off,0,0,0,,4,,,52,127
6004,note_on,2,0,0,,4,,,52,127
6004,note_on,0,0,0,,4,,,40,127
6004,note_on,0,0,0,,12,,,83,127
6111,note_off,107,0,0,,12,,,83,127
6113,note_on,2,0,0,,8,,,80,127
6220,note_off,107,0,0,,8,,,80,127
6222,note_on,2,0,0,,4,,,76,127
6329,note_off,107,0,0,,4,,,76,127
6331,note_on,2,0,0,,12,,,71,127
6438,note_off,107,0,0,,12,,,71,127
6440,note_on,2,0,0,,8,,,68,127
6547,note_off,107,0,0,,8,,,68,127
6549,note_on,2,0,0,,4,,,64,127
6656,note_off,107,0,0,,4,,,64,127
6656,note_off,0,0,0,,4,,,40,127
6656,note_off,0,0,0,,4,,,52,127
6658,note_on,2,0,0,,12,,,47,127
6658,note_on,0,0,0,,8,,,68,127
6711,note_off,53,0,0,,8,,,68,127
6713,note_on,2,0,0,,6,,,66,127
6766,note_off,53,0,0,,6,,,66,127
6766,note_off,0,0,0,,12,,,47,127
6768,note_on,2,0,0,,3,,,51,127
6768,note_on,0,0,0,,8,,,68,127
6821,note_off,53,0,0,,8,,,68,127
6823,note_on,2,0,0,,6,,,66,127
6876,note_off,53,0,0,,6,,,66,127
6876,note_off,0,0,0,,3,,,51,127
6878,note_on,2,0,0,,6,,,54,127
6878,note_on,0,0,0,,8,,,68,127
6931,note_off,53,0,0,,8,,,68,127
6933,note_on,2,0,0,,6,,,66,127
6986,note_off,53,0,0,,6,,,54,127
6988,note_on,2,0,0,,12,,,59,127
7095,note_off,107,0,0,,12,,,59,127
7097,note_on,2,0,0,,10,,,57,127
7204,note_off,107,0,0,,10,,,57,127
7206,note_on,2,0,0,,6,,,54,127
7313,note_off,107,0,0,,6,,,54,127
7313,note_off,0,0,0,,6,,,66,127
7315,note_on,2,0,0,,8,,,56,127
7315,note_on,0,0,0,,12,,,83,127
7422,note_off,107,0,0,,12,,,83,127
7424,note_on,2,0,0,,8,,,80,127
7531,note_off,107,0,0,,8,,,80,127
7533,note_on,2,0,0,,4,,,76,127
7640,note_off,107,0,0,,4,,,76,127
7642,note_on,2,0,0,,12,,,71,127
7749,note_off,107,0,0,,12,,,71,127
7749,note_off,0,0,0,,8,,,56,127
7751,note_on,2,0,0,,4,,,52,127
7751,note_on,0,0,0,,8,,,68,127
7858,note_off,107,0,0,,8,,,68,127
7860,note_on,2,0,0,,4,,,64,127
7967,note_off,107,0,0,,4,,,64,127
7967,note_off,0,0,0,,4,,,52,127
7969,note_on,2,0,0,,12,,,47,127
7969,note_on,0,0,0,,1,,,61,127
8034,note_off,65,0,0,,1,,,61,127
8035,note_on,1,0,0,,12,,,59,127
8076,note_off,41,0,0,,12,,,47,127
8078,note_on,2,0,0,,3,,,51,127
8100,note_off,22,0,0,,12,,,59,127
8101,note_on,1,0,0,,1,,,61,127
8166,note_off,65,0,0,,1,,,61,127
8166,note_on,0,0,0,,12,,,59,127
8185,note_off,19,0,0,,3,,,51,127
8187,note_on,2,0,0,,6,,,54,127
8230,note_off,43,0,0,,12,,,59,127
8235,note_on,5,0,0,,1,,,61,127
8294,note_off,59,0,0,,6,,,54,127
8296,note_on,2,0,0,,12,,,59,127
8299,note_off,3,0,0,,1,,,61,127
8405,note_on,106,0,0,,10,,,57,127
8512,note_off,107,0,0,,10,,,57,127
8514,note_on,2,0,0,,6,,,54,127
8615,note_off,101,0,0,,12,,,59,127
8622,note_off,7,0,0,,6,,,54,127
8624,note_on,2,0,0,,4,,,40,127
8624,note_on,0,0,0,,4,,,52,127
8624,note_on,0,0,0,,12,,,83,127
8731,note_off,107,0,0,,12,,,83,127
8733,note_on,2,0,0,,8,,,80,127
8840,note_off,107,0,0,,8,,,80,127
8842,note_on,2,0,0,,4,,,76,127
8949,note_off,107,0,0,,4,,,76,127
8951,note_on,2,0,0,,12,,,71,127
9058,note_off,107,0,0,,12,,,71,127
9060,note_on,2,0,0,,8,,,68,127
9167,note_off,107,0,0,,8,,,68,127
9169,note_on,2,0,0,,4,,,64,127
9276,note_off,107,0,0,,4,,,64,127
9276,note_off,0,0,0,,4,,,52,127
9276,note_off,0,0,0,,4,,,40,127
9278,note_on,2,0,0,,12,,,47,127
9278,note_on,0,0,0,,8,,,68,127
9331,note_off,53,0,0,,8,,,68,127
9333,note_on,2,0,0,,6,,,66,127
9386,note_off,53,0,0,,6,,,66,127
9386,note_off,0,0,0,,12,,,47,127
9388,note_on,2,0,0,,3,,,51,127
9388,note_on,0,0,0,,8,,,68,127
9441,note_off,53,0,0,,8,,,68,127
9443,note_on,2,0,0,,6,,,66,127
9496,note_off,53,0,0,,6,,,66,127
9496,note_off,0,0,0,,3,,,51,127
9498,note_on,2,0,0,,6,,,54,127
9498,note_on,0,0,0,,8,,,68,127
9551,note_off,53,0,0,,8,,,68,127
9553,note_on,2,0,0,,6,,,66,127
9606,note_off,53,0,0,,6,,,54,127
9608,note_on,2,0,0,,12,,,59,127
9715,note_off,107,0,0,,12,,,59,127
9717,note_on,2,0,0,,10,,,57,127
9824,note_off,107,0,0,,10,,,57,127
9826,note_on,2,0,0,,6,,,54,127
9933,note_off,107,0,0,,6,,,54,127
9933,note_off,0,0,0,,6,,,66,127
9935,note_on,2,0,0,,8,,,56,127
9935,note_on,0,0,0,,12,,,83,127
10042,note_off,107,0,0,,12,,,83,127
10044,note_on,2,0,0,,8,,,80,127
10151,note_off,107,0,0,,8,,,80,127
10153,note_on,2,0,0,,4,,,76,127
10260,note_off,107,0,0,,4,,,76,127
10262,note_on,2,0,0,,12,,,71,127
10369,note_off,107,0,0,,12,,,71,127
10369,note_off,0,0,0,,8,,,56,127
10371,note_on,2,0,0,,4,,,52,127
10371,note_on,0,0,0,,8,,,68,127
10478,note_off,107,0,0,,8,,,68,127
10480,note_on,2,0,0,,4,,,64,127
10587,note_off,107,0,0,,4,,,64,127
10587,note_off,0,0,0,,4,,,52,127
10589,note_on,2,0,0,,12,,,47,127
10589,note_on,0,0,0,,1,,,61,127
10654,note_off,65,0,0,,1,,,61,127
10655,note_on,1,0,0,,12,,,59,127
10696,note_off,41,0,0,,12,,,47,127
10698,note_on,2,0,0,,3,,,51,127
10720,note_off,22,0,0,,12,,,59,127
10721,note_on,1,0,0,,1,,,61,127
10786,note_off,65,0,0,,1,,,61,127
10786,note_on,0,0,0,,12,,,59,127
10805,note_off,19,0,0,,3,,,51,127
10807,note_on,2,0,0,,6,,,54,127
10850,note_off,43,0,0,,12,,,59,127
10850,note_on,0,0,0,,1,,,61,127
10914,note_off,64,0,0,,6,,,54,127
10915,note_off,1,0,0,,1,,,61,127
10916,note_on,1,0,0,,12,,,59,127
11026,note_on,110,0,0,,6,,,54,127
11133,note_off,107,0,0,,6,,,54,127
11135,note_on,2,0,0,,3,,,51,127
11236,note_off,101,0,0,,12,,,59,127
11243,note_off,7,0,0,,3,,,51,127
11245,note_on,2,0,0,,12,,,59,127
11352,note_off,107,0,0,,12,,,59,127
11354,note_on,2,0,0,,3,,,63,127
11461,note_off,107,0,0,,3,,,63,127
11463,note_on,2,0,0,,12,,,59,127
11570,note_off,107,0,0,,12,,,59,127
11572,note_on,2,0,0,,6,,,54,127
11679,note_off,107,0,0,,6,,,54,127
11681,note_on,2,0,0,,3,,,51,127
11788,note_off,107,0,0,,3,,,51,127
11790,note_on,2,0,0,,12,,,47,127
11897,note_off,107,0,0,,12,,,47,127
11899,note_on,2,0,0,,6,,,42,127
12009,note_on,110,0,0,,6,,,78,127
12116,note_off,107,0,0,,6,,,78,127
12118,note_on,2,0,0,,4,,,76,127
12225,note_off,107,0,0,,4,,,76,127
12227,note_on,2,0,0,,3,,,75,127
12334,note_off,107,0,0,,3,,,75,127
12336,note_on,2,0,0,,4,,,76,127
12443,note_off,107,0,0,,4,,,76,127
12445,note_on,2,0,0,,1,,,73,127
12552,note_off,107,0,0,,1,,,73,127
12552,note_off,0,0,0,,6,,,42,127
12554,note_on,2,0,0,,12,,,59,127
12554,note_on,0,0,0,,1,,,73,127
12661,note_off,107,0,0,,12,,,59,127
12663,note_on,2,0,0,,3,,,63,127
12770,note_off,107,0,0,,3,,,63,127
12770,note_off,0,0,0,,1,,,73,127
12772,note_on,2,0,0,,12,,,59,127
12772,note_on,0,0,0,,3,,,75,127
12879,note_off,107,0,0,,12,,,59,127
12881,note_on,2,0,0,,6,,,54,127
12988,note_off,107,0,0,,6,,,54,127
12990,note_on,2,0,0,,3,,,51,127
13097,note_off,107,0,0,,3,,,51,127
13099,note_on,2,0,0,,12,,,47,127
13206,note_off,107,0,0,,12,,,47,127
13208,note_on,2,0,0,,6,,,42,127
13315,note_off,107,0,0,,3,,,75,127
13317,note_on,2,0,0,,6,,,78,127
13424,note_off,107,0,0,,6,,,78,127
13426,note_on,2,0,0,,4,,,76,127
13533,note_off,107,0,0,,4,,,76,127
13535,note_on,2,0,0,,3,,,75,127
13642,note_off,107,0,0,,3,,,75,127
13644,note_on,2,0,0,,4,,,76,127
13751,note_off,107,0,0,,4,,,76,127
13753,note_on,2,0,0,,1,,,73,127
13860,note_off,107,0,0,,1,,,73,127
13860,note_off,0,0,0,,6,,,42,127
13862,note_on,2,0,0,,12,,,47,127
13862,note_on,0,0,0,,3,,,75,127
13969,note_off,107,0,0,,3,,,75,127
13971,note_on,2,0,0,,12,,,71,127
14078,note_off,107,0,0,,12,,,71,127
14078,note_off,0,0,0,,12,,,47,127
14080,note_on,2,0,0,,1,,,49,127
14080,note_on,0,0,0,,12,,,83,127
14187,note_off,107,0,0,,12,,,83,127
14189,note_on,2,0,0,,11,,,82,127
14296,note_off,107,0,0,,11,,,82,127
14296,note_off,0,0,0,,1,,,49,127
14298,note_on,2,0,0,,3,,,51,127
14298,note_on,0,0,0,,8,,,80,127
14405,note_off,107,0,0,,8,,,80,127
14407,note_on,2,0,0,,6,,,78,127
14514,note_off,107,0,0,,6,,,78,127
14514,note_off,0,0,0,,3,,,51,127
14516,note_on,2,0,0,,4,,,52,127
14516,note_on,0,0,0,,8,,,80,127
14623,note_off,107,0,0,,8,,,80,127
14625,note_on,2,0,0,,6,,,78,127
14732,note_off,107,0,0,,6,,,78,127
14732,note_off,0,0,0,,4,,,52,127
14734,note_on,2,0,0,,6,,,54,127
14734,note_on,0,0,0,,4,,,76,127
14841,note_off,107,0,0,,4,,,76,127
14843,note_on,2,0,0,,3,,,75,127
14950,note_off,107,0,0,,3,,,75,127
14950,note_off,0,0,0,,6,,,54,127
14952,note_on,2,0,0,,8,,,56,127
14952,note_on,0,0,0,,1,,,73,127
15059,note_off,107,0,0,,1,,,73,127
15061,note_on,2,0,0,,12,,,71,127
15168,note_off,107,0,0,,12,,,71,127
15168,note_off,0,0,0,,8,,,56,127
15170,note_on,2,0,0,,6,,,54,127
15170,note_on,0,0,0,,11,,,70,127
15280,note_on,110,0,0,,1,,,73,127
15307,note_off,27,0,0,,11,,,70,127
15387,note_off,80,0,0,,1,,,73,127
15389,note_on,2,0,0,,6,,,66,127
15496,note_off,107,0,0,,6,,,66,127
15496,note_off,0,0,0,,6,,,54,127
15498,note_on,2,0,0,,4,,,52,127
15498,note_on,0,0,0,,11,,,70,127
15605,note_off,107,0,0,,11,,,70,127
15605,note_off,0,0,0,,4,,,52,127
15607,note_on,2,0,0,,3,,,51,127
15607,note_on,0,0,0,,12,,,71,127
15717,note_on,110,0,0,,3,,,75,127
15744,note_off,27,0,0,,12,,,71,127
15824,note_off,80,0,0,,3,,,75,127
15824,note_off,0,0,0,,3,,,51,127
15826,note_on,2,0,0,,4,,,52,127
15826,note_on,0,0,0,,1,,,73,127
15933,note_off,107,0,0,,1,,,73,127
15935,note_on,2,0,0,,4,,,76,127
16042,note_off,107,0,0,,4,,,76,127
16042,note_off,0,0,0,,4,,,52,127
16044,note_on,2,0,0,,6,,,54,127
16044,note_on,0,0,0,,3,,,75,127
16151,note_off,107,0,0,,3,,,75,127
16153,note_on,2,0,0,,1,,,73,127
16260,note_off,107,0,0,,1,,,73,127
16260,note_off,0,0,0,,6,,,54,127
16262,note_on,2,0,0,,6,,,42,127
16262,note_on,0,0,0,,12,,,71,127
16365,note_off,103,0,0,,12,,,71,127
16372,note_on,7,0,0,,11,,,70,127
16452,note_off,80,0,0,,11,,,70,127
16479,note_off,27,0,0,,6,,,42,127
16481,note_on,2,0,0,,12,,,47,127
16481,note_on,0,0,0,,12,,,59,127
16481,note_on,0,0,0,,12,,,83,127
16588,note_off,107,0,0,,12,,,83,127
16590,note_on,2,0,0,,6,,,78,127
16697,note_off,107,0,0,,6,,,78,127
16699,note_on,2,0,0,,3,,,75,127
16806,note_off,107,0,0,,3,,,75,127
16808,note_on,2,0,0,,12,,,71,127
16915,note_off,107,0,0,,12,,,71,127
16915,note_off,0,0,0,,12,,,59,127
16915,note_off,0,0,0,,12,,,47,127
16917,note_on,2,0,0,,12,,,47,127
16917,note_on,0,0,0,,12,,,59,127
16917,note_on,0,0,0,,3,,,75,127
17024,note_off,107,0,0,,3,,,75,127
17026,note_on,2,0,0,,6,,,78,127
17133,note_off,107,0,0,,6,,,78,127
17133,note_off,0,0,0,,12,,,59,127
17133,note_off,0,0,0,,12,,,47,127
17135,note_on,2,0,0,,4,,,52,127
17135,note_on,0,0,0,,12,,,59,127
17135,note_on,0,0,0,,8,,,56,127
17135,note_on,0,0,0,,12,,,83,127
17242,note_off,107,0,0,,12,,,83,127
17244,note_on,2,0,0,,8,,,80,127
17351,note_off,107,0,0,,8,,,80,127
17353,note_on,2,0,0,,4,,,76,127
17460,note_off,107,0,0,,4,,,76,127
17462,note_on,2,0,0,,12,,,71,127
17569,note_off,107,0,0,,12,,,71,127
17571,note_on,2,0,0,,8,,,68,127
17678,note_off,107,0,0,,8,,,68,127
17680,note_on,2,0,0,,4,,,64,127
17787,note_off,107,0,0,,4,,,64,127
17787,note_off,0,0,0,,8,,,56,127
17787,note_off,0,0,0,,12,,,59,127
17787,note_off,0,0,0,,4,,,52,127
17789,note_on,2,0,0,,6,,,54,127
17789,note_on,0,0,0,,12,,,59,127
17789,note_on,0,0,0,,3,,,51,127
17789,note_on,0,0,0,,12,,,83,127
17896,note_off,107,0,0,,12,,,83,127
17898,note_on,2,0,0,,6,,,78,127
18005,note_off,107,0,0,,6,,,78,127
18007,note_on,2,0,0,,3,,,75,127
18114,note_off,107,0,0,,3,,,75,127
18116,note_on,2,0,0,,12,,,71,127
18223,note_off,107,0,0,,12,,,71,127
18225,note_on,2,0,0,,6,,,66,127
18332,note_off,107,0,0,,6,,,66,127
18334,note_on,2,0,0,,3,,,63,127
18441,note_off,107,0,0,,3,,,63,127
18441,note_off,0,0,0,,3,,,51,127
18441,note_off,0,0,0,,12,,,59,127
18441,note_off,0,0,0,,6,,,54,127
18443,note_on,2,0,0,,1,,,49,127
18443,note_on,0,0,0,,12,,,59,127
18443,note_on,0,0,0,,4,,,52,127
18443,note_on,0,0,0,,12,,,83,127
18550,note_off,107,0,0,,12,,,83,127
18552,note_on,2,0,0,,8,,,80,127
18659,note_off,107,0,0,,8,,,80,127
18661,note_on,2,0,0,,4,,,76,127
18768,note_off,107,0,0,,4,,,76,127
18770,note_on,2,0,0,,12,,,71,127
18877,note_off,107,0,0,,12,,,71,127
18879,note_on,2,0,0,,4,,,64,127
18986,note_off,107,0,0,,4,,,64,127
18988,note_on,2,0,0,,1,,,61,127
19095,note_off,107,0,0,,1,,,61,127
19095,note_off,0,0,0,,4,,,52,127
19095,note_off,0,0,0,,12,,,59,127
19095,note_off,0,0,0,,1,,,49,127
19097,note_on,2,0,0,,3,,,51,127
19097,note_on,0,0,0,,12,,,47,127
19097,note_on,0,0,0,,12,,,59,127
19097,note_on,0,0,0,,12,,,83,127
19204,note_off,107,0,0,,12,,,83,127
19206,note_on,2,0,0,,6,,,78,127
19313,note_off,107,0,0,,6,,,78,127
19315,note_on,2,0,0,,3,,,75,127
19422,note_off,107,0,0,,3,,,75,127
19424,note_on,2,0,0,,12,,,71,127
19531,note_off,107,0,0,,12,,,71,127
19533,note_on,2,0,0,,3,,,63,127
19640,note_off,107,0,0,,3,,,63,127
19642,note_off,2,0,0,,12,,,59,127
19642,note_on,0,0,0,,12,,,59,127
19749,note_off,107,0,0,,12,,,59,127
19749,note_off,0,0,0,,12,,,47,127
19749,note_off,0,0,0,,3,,,51,127
19751,note_on,2,0,0,,12,,,59,127
19751,note_on,0,0,0,,8,,,56,127
19751,note_on,0,0,0,,4,,,52,127
19751,note_on,0,0,0,,12,,,83,127
19858,note_off,107,0,0,,12,,,83,127
19860,note_on,2,0,0,,8,,,80,127
19967,note_off,107,0,0,,8,,,80,127
19969,note_on,2,0,0,,4,,,76,127
20076,note_off,107,0,0,,4,,,76,127
20078,note_on,2,0,0,,12,,,71,127
20185,note_off,107,0,0,,12,,,71,127
20187,note_on,2,0,0,,8,,,68,127
20294,note_off,107,0,0,,8,,,68,127
20296,note_on,2,0,0,,4,,,64,127
20403,note_off,107,0,0,,4,,,64,127
20403,note_off,0,0,0,,4,,,52,127
20403,note_off,0,0,0,,8,,,56,127
20403,note_off,0,0,0,,12,,,59,127
20405,note_on,2,0,0,,6,,,54,127
20405,note_on,0,0,0,,3,,,51,127
20405,note_on,0,0,0,,12,,,59,127
20405,note_on,0,0,0,,12,,,83,127
20512,note_off,107,0,0,,12,,,83,127
20514,note_on,2,0,0,,6,,,78,127
20621,note_off,107,0,0,,6,,,78,127
20623,note_on,2,0,0,,3,,,75,127
20730,note_off,107,0,0,,3,,,75,127
20732,note_on,2,0,0,,12,,,71,127
20839,note_off,107,0,0,,12,,,71,127
20841,note_on,2,0,0,,6,,,66,127
20948,note_off,107,0,0,,6,,,66,127
20950,note_on,2,0,0,,3,,,63,127
21057,note_off,107,0,0,,3,,,63,127
21057,note_off,0,0,0,,12,,,59,127
21057,note_off,0,0,0,,3,,,51,127
21057,note_off,0,0,0,,6,,,54,127
21059,note_on,2,0,0,,1,,,49,127
21059,note_on,0,0,0,,4,,,52,127
21059,note_on,0,0,0,,12,,,59,127
21059,note_on,0,0,0,,12,,,83,127
21166,note_off,107,0,0,,12,,,83,127
21168,note_on,2,0,0,,8,,,80,127
21275,note_off,107,0,0,,8,,,80,127
21277,note_on,2,0,0,,4,,,76,127
21384,note_off,107,0,0,,4,,,76,127
21386,note_on,2,0,0,,12,,,71,127
21493,note_off,107,0,0,,12,,,71,127
21495,note_on,2,0,0,,4,,,64,127
21602,note_off,107,0,0,,4,,,64,127
21604,note_on,2,0,0,,1,,,61,127
21711,note_off,107,0,0,,1,,,61,127
21711,note_off,0,0,0,,12,,,59,127
21711,note_off,0,0,0,,4,,,52,127
21711,note_off,0,0,0,,1,,,49,127
21713,note_on,2,0,0,,3,,,51,127
21713,note_on,0,0,0,,12,,,47,127
21713,note_on,0,0,0,,12,,,59,127
21713,note_on,0,0,0,,12,,,83,127
21820,note_off,107,0,0,,12,,,83,127
21822,note_on,2,0,0,,6,,,78,127
21929,note_off,107,0,0,,6,,,78,127
21931,note_on,2,0,0,,3,,,75,127
22038,note_off,107,0,0,,3,,,75,127
22040,note_on,2,0,0,,12,,,71,127
22147,note_off,107,0,0,,12,,,71,127
22149,note_on,2,0,0,,3,,,63,127
22256,note_off,107,0,0,,3,,,63,127
22258,note_off,2,0,0,,12,,,59,127
22258,note_on,0,0,0,,12,,,59,127
22365,note_off,107,0,0,,12,,,59,127
22365,note_off,0,0,0,,12,,,47,127
22365,note_off,0,0,0,,3,,,51,127
22367,note_on,2,0,0,,4,,,52,127
22367,note_on,0,0,0,,8,,,68,127
22474,note_off,107,0,0,,8,,,68,127
22476,note_on,2,0,0,,4,,,64,127
22583,note_off,107,0,0,,4,,,64,127
22583,note_off,0,0,0,,4,,,52,127
22585,note_on,2,0,0,,6,,,54,127
22585,note_on,0,0,0,,11,,,70,127
22692,note_off,107,0,0,,11,,,70,127
22694,note_on,2,0,0,,6,,,66,127
22801,note_off,107,0,0,,6,,,66,127
22801,note_off,0,0,0,,6,,,54,127
22803,note_on,2,0,0,,8,,,56,127
22803,note_on,0,0,0,,12,,,71,127
22910,note_off,107,0,0,,12,,,71,127
22912,note_on,2,0,0,,8,,,68,127
23019,note_off,107,0,0,,8,,,68,127
23019,note_off,0,0,0,,8,,,56,127
23021,note_on,2,0,0,,6,,,54,127
23021,note_on,0,0,0,,11,,,70,127
23128,note_off,107,0,0,,11,,,70,127
23130,note_on,2,0,0,,1,,,73,127
23237,note_off,107,0,0,,1,,,73,127
23239,note_on,2,0,0,,6,,,66,127
23346,note_off,107,0,0,,6,,,66,127
23346,note_off,0,0,0,,6,,,54,127
23348,note_on,2,0,0,,4,,,52,127
23348,note_on,0,0,0,,11,,,70,127
23455,note_off,107,0,0,,11,,,70,127
23455,note_off,0,0,0,,4,,,52,127
23457,note_on,2,0,0,,3,,,51,127
23457,note_on,0,0,0,,12,,,71,127
23564,note_off,107,0,0,,12,,,71,127
23566,note_on,2,0,0,,3,,,75,127
23673,note_off,107,0,0,,3,,,75,127
23673,note_off,0,0,0,,3,,,51,127
23675,note_on,2,0,0,,4,,,52,127
23675,note_on,0,0,0,,1,,,73,127
23782,note_off,107,0,0,,1,,,73,127
23784,note_on,2,0,0,,4,,,76,127
23891,note_off,107,0,0,,4,,,76,127
23891,note_off,0,0,0,,4,,,52,127
23893,note_on,2,0,0,,6,,,54,127
23893,note_on,0,0,0,,3,,,75,127
24000,note_off,107,0,0,,3,,,75,127
24002,note_on,2,0,0,,1,,,73,127
24109,note_off,107,0,0,,1,,,73,127
24111,note_on,2,0,0,,6,,,42,127
24111,note_on,0,0,0,,12,,,71,127
24218,note_off,107,0,0,,12,,,71,127
24220,note_on,2,0,0,,11,,,70,127
24325,note_off,105,0,0,,6,,,54,127
24327,note_off,2,0,0,,11,,,70,127
24327,note_off,0,0,0,,6,,,42,127
24329,note_on,2,0,0,,12,,,59,127
24329,note_on,0,0,0,,12,,,71,127
24546,note_off,217,0,0,,12,,,71,127
24546,note_off,0,0,0,,12,,,59,127
24548,note_on,2,0,0,,3,,,63,127
24548,note_on,0,0,0,,8,,,80,127
24601,note_off,53,0,0,,8,,,80,127
24603,note_on,2,0,0,,6,,,78,127
24656,note_off,53,0,0,,6,,,78,127
24658,note_on,2,0,0,,8,,,80,127
24711,note_off,53,0,0,,8,,,80,127
24713,note_on,2,0,0,,6,,,78,127
24766,note_off,53,0,0,,6,,,78,127
24766,note_off,0,0,0,,3,,,63,127
24768,note_on,2,0,0,,12,,,59,127
24768,note_on,0,0,0,,8,,,80,127
24821,note_off,53,0,0,,8,,,80,127
24823,note_on,2,0,0,,6,,,78,127
24876,note_off,53,0,0,,6,,,78,127
24878,note_on,2,0,0,,5,,,77,127
24931,note_off,53,0,0,,5,,,77,127
24933,note_on,2,0,0,,6,,,78,127
24986,note_off,53,0,0,,6,,,78,127
24986,note_off,0,0,0,,12,,,59,127
24988,note_on,2,0,0,,11,,,58,127
24988,note_on,0,0,0,,1,,,85,127
25205,note_off,217,0,0,,1,,,85,127
25205,note_off,0,0,0,,11,,,58,127
25207,note_on,2,0,0,,6,,,54,127
25207,note_on,0,0,0,,8,,,80,127
25260,note_off,53,0,0,,8,,,80,127
25262,note_on,2,0,0,,6,,,78,127
25315,note_off,53,0,0,,6,,,78,127
25317,note_on,2,0,0,,8,,,80,127
25370,note_off,53,0,0,,8,,,80,127
25372,note_on,2,0,0,,6,,,78,127
25425,note_off,53,0,0,,6,,,78,127
25425,note_off,0,0,0,,6,,,54,127
25427,note_on,2,0,0,,11,,,58,127
25427,note_on,0,0,0,,8,,,80,127
25480,note_off,53,0,0,,8,,,80,127
25482,note_on,2,0,0,,6,,,78,127
25535,note_off,53,0,0,,6,,,78,127
25537,note_on,2,0,0,,5,,,77,127
25590,note_off,53,0,0,,5,,,77,127
25592,note_on,2,0,0,,6,,,78,127
25645,note_off,53,0,0,,6,,,78,127
25645,note_off,0,0,0,,11,,,58,127
25647,note_on,2,0,0,,12,,,59,127
25647,note_on,0,0,0,,3,,,75,127
25864,note_off,217,0,0,,3,,,75,127
25864,note_off,0,0,0,,12,,,59,127
25866,note_on,2,0,0,,3,,,63,127
25866,note_on,0,0,0,,8,,,80,127
25919,note_off,53,0,0,,8,,,80,127
25921,note_on,2,0,0,,6,,,78,127
25974,note_off,53,0,0,,6,,,78,127
25976,note_on,2,0,0,,8,,,80,127
26029,note_off,53,0,0,,8,,,80,127
26031,note_on,2,0,0,,6,,,78,127
26084,note_off,53,0,0,,6,,,78,127
26084,note_off,0,0,0,,3,,,63,127
26086,note_on,2,0,0,,12,,,59,127
26086,note_on,0,0,0,,8,,,80,127
26139,note_off,53,0,0,,8,,,80,127
26141,note_on,2,0,0,,6,,,78,127
26194,note_off,53,0,0,,6,,,78,127
26196,note_on,2,0,0,,5,,,77,127
26249,note_off,53,0,0,,5,,,77,127
26251,note_on,2,0,0,,6,,,78,127
26304,note_off,53,0,0,,6,,,78,127
26304,note_off,0,0,0,,12,,,59,127
26306,note_on,2,0,0,,11,,,58,127
26306,note_on,0,0,0,,1,,,85,127
26523,note_off,217,0,0,,1,,,85,127
26523,note_off,0,0,0,,11,,,58,127
26525,note_on,2,0,0,,6,,,54,127
26525,note_on,0,0,0,,8,,,80,127
26578,note_off,53,0,0,,8,,,80,127
26580,note_on,2,0,0,,6,,,78,127
26633,note_off,53,0,0,,6,,,78,127
26635,note_on,2,0,0,,8,,,80,127
26688,note_off,53,0,0,,8,,,80,127
26690,note_on,2,0,0,,6,,,78,127
26743,note_off,53,0,0,,6,,,78,127
26743,note_off,0,0,0,,6,,,54,127
26745,note_on,2,0,0,,11,,,58,127
26745,note_on,0,0,0,,8,,,80,127
26798,note_off,53,0,0,,8,,,80,127
26800,note_on,2,0,0,,6,,,78,127
26853,note_off,53,0,0,,6,,,78,127
26855,note_on,2,0,0,,5,,,77,127
26908,note_off,53,0,0,,5,,,77,127
26910,note_on,2,0,0,,6,,,78,127
26963,note_off,53,0,0,,6,,,78,127
26963,note_off,0,0,0,,11,,,58,127
26965,note_on,2,0,0,,12,,,59,127
26965,note_on,0,0,0,,3,,,75,127
27072,note_off,107,0,0,,3,,,75,127
27074,note_on,2,0,0,,12,,,83,127
27181,note_off,107,0,0,,12,,,83,127
27181,note_off,0,0,0,,12,,,59,127
27183,note_on,2,0,0,,1,,,61,127
27183,note_on,0,0,0,,12,,,83,127
27290,note_off,107,0,0,,12,,,83,127
27292,note_on,2,0,0,,11,,,82,127
27399,note_off,107,0,0,,11,,,82,127
27399,note_off,0,0,0,,1,,,61,127
27401,note_on,2,0,0,,3,,,63,127
27401,note_on,0,0,0,,12,,,83,127
27508,note_off,107,0,0,,12,,,83,127
27510,note_on,2,0,0,,6,,,78,127
27617,note_off,107,0,0,,6,,,78,127
27617,note_off,0,0,0,,3,,,63,127
27619,note_on,2,0,0,,4,,,64,127
27619,note_on,0,0,0,,8,,,80,127
27726,note_off,107,0,0,,8,,,80,127
27728,note_on,2,0,0,,4,,,76,127
27835,note_off,107,0,0,,4,,,76,127
27835,note_off,0,0,0,,4,,,64,127
27837,note_on,2,0,0,,6,,,66,127
27837,note_on,0,0,0,,3,,,75,127
27944,note_off,107,0,0,,3,,,75,127
27946,note_on,2,0,0,,1,,,73,127
28053,note_off,107,0,0,,1,,,73,127
28055,note_on,2,0,0,,6,,,54,127
28055,note_on,0,0,0,,12,,,71,127
28162,note_off,107,0,0,,12,,,71,127
28164,note_on,2,0,0,,11,,,70,127
28269,note_off,105,0,0,,6,,,66,127
28271,note_off,2,0,0,,11,,,70,127
28271,note_off,0,0,0,,6,,,54,127
28273,note_on,2,0,0,,12,,,59,127
28273,note_on,0,0,0,,12,,,71,127
28490,note_off,217,0,0,,12,,,71,127
28490,note_off,0,0,0,,12,,,59,127
28492,note_on,2,0,0,,3,,,63,127
28492,note_on,0,0,0,,8,,,68,127
28545,note_off,53,0,0,,8,,,68,127
28547,note_on,2,0,0,,6,,,66,127
28600,note_off,53,0,0,,6,,,66,127
28602,note_on,2,0,0,,8,,,68,127
28655,note_off,53,0,0,,8,,,68,127
28657,note_on,2,0,0,,6,,,66,127
28710,note_off,53,0,0,,6,,,66,127
28710,note_off,0,0,0,,3,,,63,127
28712,note_on,2,0,0,,12,,,59,127
28712,note_on,0,0,0,,8,,,68,127
28765,note_off,53,0,0,,8,,,68,127
28767,note_on,2,0,0,,6,,,66,127
28820,note_off,53,0,0,,6,,,66,127
28822,note_on,2,0,0,,5,,,65,127
28875,note_off,53,0,0,,5,,,65,127
28877,note_on,2,0,0,,6,,,66,127
28930,note_off,53,0,0,,6,,,66,127
28930,note_off,0,0,0,,12,,,59,127
28932,note_on,2,0,0,,11,,,58,127
28932,note_on,0,0,0,,1,,,73,127
29149,note_off,217,0,0,,1,,,73,127
29149,note_off,0,0,0,,11,,,58,127
29151,note_on,2,0,0,,6,,,54,127
29151,note_on,0,0,0,,8,,,68,127
29204,note_off,53,0,0,,8,,,68,127
29206,note_on,2,0,0,,6,,,66,127
29259,note_off,53,0,0,,6,,,66,127
29261,note_on,2,0,0,,8,,,68,127
29314,note_off,53,0,0,,8,,,68,127
29316,note_on,2,0,0,,6,,,66,127
29369,note_off,53,0,0,,6,,,66,127
29369,note_off,0,0,0,,6,,,54,127
29371,note_on,2,0,0,,11,,,58,127
29371,note_on,0,0,0,,8,,,68,127
29424,note_off,53,0,0,,8,,,68,127
29426,note_on,2,0,0,,6,,,66,127
29479,note_off,53,0,0,,6,,,66,127
29481,note_on,2,0,0,,5,,,65,127
29534,note_off,53,0,0,,5,,,65,127
29536,note_on,2,0,0,,6,,,66,127
29589,note_off,53,0,0,,6,,,66,127
29589,note_off,0,0,0,,11,,,58,127
29591,note_on,2,0,0,,12,,,59,127
29591,note_on,0,0,0,,3,,,75,127
29808,note_off,217,0,0,,3,,,75,127
29808,note_off,0,0,0,,12,,,59,127
29810,note_on,2,0,0,,3,,,63,127
29810,note_on,0,0,0,,8,,,68,127
29863,note_off,53,0,0,,8,,,68,127
29865,note_on,2,0,0,,6,,,66,127
29918,note_off,53,0,0,,6,,,66,127
29920,note_on,2,0,0,,8,,,68,127
29973,note_off,53,0,0,,8,,,68,127
29975,note_on,2,0,0,,6,,,66,127
30028,note_off,53,0,0,,6,,,66,127
30028,note_off,0,0,0,,3,,,63,127
30030,note_on,2,0,0,,12,,,59,127
30030,note_on,0,0,0,,8,,,68,127
30083,note_off,53,0,0,,8,,,68,127
30085,note_on,2,0,0,,6,,,66,127
30138,note_off,53,0,0,,6,,,66,127
30140,note_on,2,0,0,,5,,,65,127
30193,note_off,53,0,0,,5,,,65,127
30195,note_on,2,0,0,,6,,,66,127
30248,note_off,53,0,0,,6,,,66,127
30248,note_off,0,0,0,,12,,,59,127
30250,note_on,2,0,0,,11,,,58,127
30250,note_on,0,0,0,,4,,,76,127
30467,note_off,217,0,0,,4,,,76,127
30467,note_off,0,0,0,,11,,,58,127
30469,note_on,2,0,0,,6,,,54,127
30469,note_on,0,0,0,,8,,,68,127
30522,note_off,53,0,0,,8,,,68,127
30524,note_on,2,0,0,,6,,,66,127
30577,note_off,53,0,0,,6,,,66,127
30579,note_on,2,0,0,,8,,,68,127
30632,note_off,53,0,0,,8,,,68,127
30634,note_on,2,0,0,,6,,,66,127
30687,note_off,53,0,0,,6,,,66,127
30687,note_off,0,0,0,,6,,,54,127
30689,note_on,2,0,0,,11,,,58,127
30689,note_on,0,0,0,,8,,,68,127
30742,note_off,53,0,0,,8,,,68,127
30744,note_on,2,0,0,,6,,,66,127
30797,note_off,53,0,0,,6,,,66,127
30799,note_on,2,0,0,,5,,,65,127
30852,note_off,53,0,0,,5,,,65,127
30854,note_on,2,0,0,,6,,,66,127
30907,note_off,53,0,0,,6,,,66,127
30907,note_off,0,0,0,,11,,,58,127
30909,note_on,2,0,0,,12,,,47,127
30909,note_on,0,0,0,,6,,,78,127
31016,note_off,107,0,0,,6,,,78,127
31018,note_on,2,0,0,,4,,,76,127
31125,note_off,107,0,0,,4,,,76,127
31125,note_off,0,0,0,,12,,,47,127
31127,note_on,2,0,0,,1,,,49,127
31127,note_on,0,0,0,,4,,,76,127
31234,note_off,107,0,0,,4,,,76,127
31236,note_on,2,0,0,,3,,,75,127
31343,note_off,107,0,0,,3,,,75,127
31343,note_off,0,0,0,,1,,,49,127
31345,note_on,2,0,0,,3,,,51,127
31345,note_on,0,0,0,,3,,,75,127
31452,note_off,107,0,0,,3,,,75,127
31454,note_on,2,0,0,,1,,,73,127
31561,note_off,107,0,0,,1,,,73,127
31561,note_off,0,0,0,,3,,,51,127
31563,note_on,2,0,0,,4,,,52,127
31563,note_on,0,0,0,,1,,,73,127
31670,note_off,107,0,0,,1,,,73,127
31672,note_on,2,0,0,,4,,,76,127
31779,note_off,107,0,0,,4,,,76,127
31779,note_off,0,0,0,,4,,,52,127
31781,note_on,2,0,0,,6,,,54,127
31781,note_on,0,0,0,,3,,,75,127
31888,note_off,107,0,0,,3,,,75,127
31890,note_on,2,0,0,,1,,,73,127
31997,note_off,107,0,0,,1,,,73,127
31999,note_on,2,0,0,,6,,,42,127
31999,note_on,0,0,0,,12,,,71,127
32106,note_off,107,0,0,,12,,,71,127
32108,note_on,2,0,0,,11,,,70,127
32213,note_off,105,0,0,,6,,,54,127
32215,note_off,2,0,0,,11,,,70,127
32215,note_off,0,0,0,,6,,,42,127
32217,note_on,2,0,0,,12,,,47,127
32217,note_on,0,0,0,,12,,,71,127
32324,note_off,107,0,0,,12,,,71,127
32326,note_on,2,0,0,,11,,,70,127
32433,note_off,107,0,0,,11,,,70,127
32433,note_off,0,0,0,,12,,,47,127
32435,note_on,2,0,0,,1,,,49,127
32435,note_on,0,0,0,,11,,,70,127
32542,note_off,107,0,0,,11,,,70,127
32544,note_on,2,0,0,,8,,,68,127
32651,note_off,107,0,0,,8,,,68,127
32651,note_off,0,0,0,,1,,,49,127
32653,note_on,2,0,0,,3,,,51,127
32653,note_on,0,0,0,,8,,,68,127
32760,note_off,107,0,0,,8,,,68,127
32762,note_on,2,0,0,,6,,,66,127
32869,note_off,107,0,0,,6,,,66,127
32869,note_off,0,0,0,,3,,,51,127
32871,note_on,2,0,0,,4,,,52,127
32871,note_on,0,0,0,,6,,,66,127
32978,note_off,107,0,0,,6,,,66,127
32980,note_on,2,0,0,,4,,,64,127
33087,note_off,107,0,0,,4,,,64,127
33087,note_off,0,0,0,,4,,,52,127
33089,note_on,2,0,0,,6,,,54,127
33089,note_on,0,0,0,,4,,,64,127
33196,note_off,107,0,0,,4,,,64,127
33198,note_on,2,0,0,,3,,,63,127
33305,note_off,107,0,0,,3,,,63,127
33307,note_on,2,0,0,,6,,,42,127
33307,note_on,0,0,0,,3,,,63,127
33414,note_off,107,0,0,,3,,,63,127
33416,note_on,2,0,0,,1,,,61,127
33521,note_off,105,0,0,,6,,,54,127
33523,note_off,2,0,0,,1,,,61,127
33523,note_off,0,0,0,,6,,,42,127
33525,note_on,2,0,0,,12,,,47,127
33525,note_on,0,0,0,,12,,,59,127
33632,note_off,107,0,0,,12,,,59,127
33634,note_on,2,0,0,,6,,,78,127
33741,note_off,107,0,0,,6,,,78,127
33743,note_on,2,0,0,,12,,,71,127
33850,note_off,107,0,0,,12,,,71,127
33852,note_on,2,0,0,,1,,,73,127
33959,note_off,107,0,0,,1,,,73,127
33961,note_on,2,0,0,,3,,,75,127
34068,note_off,107,0,0,,3,,,75,127
34070,note_on,2,0,0,,4,,,76,127
34177,note_off,107,0,0,,4,,,76,127
34177,note_off,0,0,0,,12,,,47,127
34179,note_on,2,0,0,,12,,,47,127
34179,note_on,0,0,0,,6,,,78,127
34286,note_off,107,0,0,,12,,,47,127
34288,note_on,2,0,0,,3,,,51,127
34395,note_off,107,0,0,,3,,,51,127
34397,note_on,2,0,0,,6,,,54,127
34504,note_off,107,0,0,,6,,,54,127
34506,note_on,2,0,0,,12,,,59,127
34613,note_off,107,0,0,,12,,,59,127
34615,note_on,2,0,0,,3,,,63,127
34722,note_off,107,0,0,,3,,,63,127
34724,note_on,2,0,0,,6,,,66,127
34831,note_off,107,0,0,,6,,,66,127
34833,note_on,2,0,0,,12,,,71,127
34940,note_off,107,0,0,,6,,,78,127
34942,note_on,2,0,0,,6,,,78,127
35049,note_off,107,0,0,,6,,,78,127
35051,note_on,2,0,0,,3,,,75,127
35158,note_off,107,0,0,,3,,,75,127
35160,note_on,2,0,0,,4,,,76,127
35267,note_off,107,0,0,,4,,,76,127
35269,note_on,2,0,0,,6,,,78,127
35376,note_off,107,0,0,,6,,,78,127
35378,note_on,2,0,0,,8,,,80,127
35485,note_off,107,0,0,,8,,,80,127
35485,note_off,0,0,0,,12,,,71,127
35487,note_on,2,0,0,,10,,,69,127
35487,note_on,0,0,0,,12,,,83,127
35487,note_on,0,0,0,,10,,,81,127
35594,note_off,107,0,0,,10,,,81,127
35594,note_off,0,0,0,,12,,,83,127
35596,note_on,2,0,0,,8,,,80,127
35703,note_off,107,0,0,,8,,,80,127
35705,note_on,2,0,0,,6,,,78,127
35812,note_off,107,0,0,,6,,,78,127
35814,note_on,2,0,0,,4,,,76,127
35921,note_off,107,0,0,,4,,,76,127
35923,note_on,2,0,0,,3,,,75,127
36030,note_off,107,0,0,,3,,,75,127
36032,note_on,2,0,0,,1,,,73,127
36139,note_off,107,0,0,,1,,,73,127
36139,note_off,0,0,0,,10,,,69,127
36141,note_on,2,0,0,,8,,,44,127
36141,note_on,0,0,0,,12,,,71,127
36248,note_off,107,0,0,,8,,,44,127
36250,note_on,2,0,0,,12,,,47,127
36357,note_off,107,0,0,,12,,,47,127
36359,note_on,2,0,0,,4,,,52,127
36466,note_off,107,0,0,,4,,,52,127
36468,note_on,2,0,0,,8,,,56,127
36575,note_off,107,0,0,,8,,,56,127
36577,note_on,2,0,0,,12,,,59,127
36684,note_off,107,0,0,,12,,,59,127
36686,note_on,2,0,0,,4,,,64,127
36793,note_off,107,0,0,,4,,,64,127
36795,note_on,2,0,0,,8,,,68,127
36902,note_off,107,0,0,,12,,,71,127
36904,note_on,2,0,0,,12,,,71,127
37011,note_off,107,0,0,,12,,,71,127
37013,note_on,2,0,0,,4,,,76,127
37120,note_off,107,0,0,,4,,,76,127
37122,note_on,2,0,0,,3,,,75,127
37229,note_off,107,0,0,,3,,,75,127
37231,note_on,2,0,0,,1,,,73,127
37338,note_off,107,0,0,,1,,,73,127
37340,note_on,2,0,0,,12,,,71,127
37447,note_off,107,0,0,,12,,,71,127
37447,note_off,0,0,0,,8,,,68,127
37449,note_on,2,0,0,,10,,,69,127
37449,note_on,0,0,0,,1,,,73,127
37556,note_off,107,0,0,,1,,,73,127
37558,note_on,2,0,0,,3,,,75,127
37665,note_off,107,0,0,,3,,,75,127
37667,note_on,2,0,0,,4,,,76,127
37774,note_off,107,0,0,,4,,,76,127
37776,note_on,2,0,0,,6,,,78,127
37883,note_off,107,0,0,,6,,,78,127
37883,note_off,0,0,0,,10,,,69,127
37885,note_on,2,0,0,,10,,,69,127
37885,note_on,0,0,0,,8,,,80,127
37992,note_off,107,0,0,,8,,,80,127
37994,note_on,2,0,0,,10,,,81,127
38101,note_off,107,0,0,,10,,,81,127
38101,note_off,0,0,0,,10,,,69,127
38103,note_on,2,0,0,,8,,,68,127
38103,note_on,0,0,0,,12,,,83,127
38210,note_off,107,0,0,,12,,,83,127
38212,note_on,2,0,0,,8,,,80,127
38319,note_off,107,0,0,,8,,,80,127
38319,note_off,0,0,0,,8,,,68,127
38321,note_on,2,0,0,,10,,,69,127
38321,note_on,0,0,0,,1,,,85,127
38428,note_off,107,0,0,,1,,,85,127
38430,note_on,2,0,0,,12,,,83,127
38537,note_off,107,0,0,,12,,,83,127
38537,note_off,0,0,0,,10,,,69,127
38539,note_on,2,0,0,,8,,,68,127
38539,note_on,0,0,0,,10,,,81,127
38646,note_off,107,0,0,,10,,,81,127
38648,note_on,2,0,0,,8,,,80,127
38755,note_off,107,0,0,,8,,,80,127
38755,note_off,0,0,0,,8,,,68,127
38757,note_on,2,0,0,,6,,,66,127
38757,note_on,0,0,0,,12,,,83,127
38810,note_off,53,0,0,,12,,,83,127
38812,note_on,2,0,0,,10,,,81,127
38865,note_off,53,0,0,,10,,,81,127
38867,note_on,2,0,0,,12,,,83,127
38920,note_off,53,0,0,,12,,,83,127
38922,note_on,2,0,0,,10,,,81,127
38975,note_off,53,0,0,,10,,,81,127
38975,note_off,0,0,0,,6,,,66,127
38977,note_on,2,0,0,,3,,,63,127
38977,note_on,0,0,0,,12,,,83,127
39030,note_off,53,0,0,,12,,,83,127
39032,note_on,2,0,0,,10,,,81,127
39085,note_off,53,0,0,,10,,,81,127
39087,note_on,2,0,0,,12,,,83,127
39140,note_off,53,0,0,,12,,,83,127
39142,note_on,2,0,0,,10,,,81,127
39195,note_off,53,0,0,,10,,,81,127
39195,note_off,0,0,0,,3,,,63,127
39197,note_on,2,0,0,,12,,,59,127
39197,note_on,0,0,0,,12,,,83,127
39250,note_off,53,0,0,,12,,,83,127
39252,note_on,2,0,0,,10,,,81,127
39305,note_off,53,0,0,,10,,,81,127
39307,note_on,2,0,0,,12,,,83,127
39360,note_off,53,0,0,,12,,,83,127
39362,note_on,2,0,0,,10,,,81,127
39415,note_off,53,0,0,,10,,,81,127
39415,note_off,0,0,0,,12,,,59,127
39417,note_on,2,0,0,,4,,,64,127
39417,note_on,0,0,0,,8,,,80,127
39634,note_off,217,0,0,,8,,,80,127
39634,note_off,0,0,0,,4,,,64,127
39636,note_on,2,0,0,,4,,,64,127
39636,note_on,0,0,0,,8,,,68,127
39636,note_on,0,0,0,,6,,,78,127
39689,note_off,53,0,0,,6,,,78,127
39691,note_on,2,0,0,,4,,,76,127
39744,note_off,53,0,0,,4,,,76,127
39746,note_on,2,0,0,,6,,,78,127
39799,note_off,53,0,0,,6,,,78,127
39801,note_on,2,0,0,,4,,,76,127
39854,note_off,53,0,0,,4,,,76,127
39854,note_off,0,0,0,,8,,,68,127
39854,note_off,0,0,0,,4,,,64,127
39856,note_on,2,0,0,,8,,,68,127
39856,note_on,0,0,0,,4,,,64,127
39856,note_on,0,0,0,,6,,,78,127
39909,note_off,53,0,0,,6,,,78,127
39911,note_on,2,0,0,,4,,,76,127
39964,note_off,53,0,0,,4,,,76,127
39966,note_on,2,0,0,,3,,,75,127
40019,note_off,53,0,0,,3,,,75,127
40021,note_on,2,0,0,,4,,,76,127
40074,note_off,53,0,0,,4,,,76,127
40074,note_off,0,0,0,,4,,,64,127
40074,note_off,0,0,0,,8,,,68,127
40076,note_on,2,0,0,,10,,,69,127
40076,note_on,0,0,0,,4,,,64,127
40076,note_on,0,0,0,,1,,,73,127
40293,note_off,217,0,0,,1,,,73,127
40293,note_off,0,0,0,,4,,,64,127
40293,note_off,0,0,0,,10,,,69,127
40295,note_on,2,0,0,,10,,,69,127
40295,note_on,0,0,0,,4,,,64,127
40295,note_on,0,0,0,,6,,,78,127
40348,note_off,53,0,0,,6,,,78,127
40350,note_on,2,0,0,,4,,,76,127
40403,note_off,53,0,0,,4,,,76,127
40405,note_on,2,0,0,,6,,,78,127
40458,note_off,53,0,0,,6,,,78,127
40460,note_on,2,0,0,,4,,,76,127
40513,note_off,53,0,0,,4,,,76,127
40513,note_off,0,0,0,,4,,,64,127
40513,note_off,0,0,0,,10,,,69,127
40515,note_on,2,0,0,,10,,,69,127
40515,note_on,0,0,0,,4,,,64,127
40515,note_on,0,0,0,,6,,,78,127
40568,note_off,53,0,0,,6,,,78,127
40570,note_on,2,0,0,,4,,,76,127
40623,note_off,53,0,0,,4,,,76,127
40625,note_on,2,0,0,,3,,,75,127
40678,note_off,53,0,0,,3,,,75,127
40680,note_on,2,0,0,,4,,,76,127
40733,note_off,53,0,0,,4,,,76,127
40733,note_off,0,0,0,,4,,,64,127
40733,note_off,0,0,0,,10,,,69,127
40735,note_on,2,0,0,,8,,,68,127
40735,note_on,0,0,0,,4,,,64,127
40735,note_on,0,0,0,,12,,,71,127
40952,note_off,217,0,0,,12,,,71,127
40952,note_off,0,0,0,,4,,,64,127
40952,note_off,0,0,0,,8,,,68,127
40954,note_on,2,0,0,,8,,,68,127
40954,note_on,0,0,0,,4,,,64,127
40954,note_on,0,0,0,,6,,,78,127
41007,note_off,53,0,0,,6,,,78,127
41009,note_on,2,0,0,,4,,,76,127
41062,note_off,53,0,0,,4,,,76,127
41064,note_on,2,0,0,,6,,,78,127
41117,note_off,53,0,0,,6,,,78,127
41119,note_on,2,0,0,,4,,,76,127
41172,note_off,53,0,0,,4,,,76,127
41172,note_off,0,0,0,,4,,,64,127
41172,note_off,0,0,0,,8,,,68,127
41174,note_on,2,0,0,,8,,,68,127
41174,note_on,0,0,0,,4,,,64,127
41174,note_on,0,0,0,,6,,,78,127
41227,note_off,53,0,0,,6,,,78,127
41229,note_on,2,0,0,,4,,,76,127
41282,note_off,53,0,0,,4,,,76,127
41284,note_on,2,0,0,,3,,,75,127
41337,note_off,53,0,0,,3,,,75,127
41339,note_on,2,0,0,,4,,,76,127
41392,note_off,53,0,0,,4,,,76,127
41392,note_off,0,0,0,,4,,,64,127
41392,note_off,0,0,0,,8,,,68,127
41394,note_on,2,0,0,,6,,,66,127
41394,note_on,0,0,0,,4,,,64,127
41394,note_on,0,0,0,,10,,,69,127
41611,note_off,217,0,0,,10,,,69,127
41611,note_off,0,0,0,,4,,,64,127
41611,note_off,0,0,0,,6,,,66,127
41613,note_on,2,0,0,,6,,,66,127
41613,note_on,0,0,0,,4,,,64,127
41613,note_on,0,0,0,,6,,,78,127
41666,note_off,53,0,0,,6,,,78,127
41668,note_on,2,0,0,,4,,,76,127
41721,note_off,53,0,0,,4,,,76,127
41723,note_on,2,0,0,,6,,,78,127
41776,note_off,53,0,0,,6,,,78,127
41778,note_on,2,0,0,,4,,,76,127
41831,note_off,53,0,0,,4,,,76,127
41831,note_off,0,0,0,,4,,,64,127
41831,note_off,0,0,0,,6,,,66,127
41833,note_on,2,0,0,,6,,,66,127
41833,note_on,0,0,0,,4,,,64,127
41833,note_on,0,0,0,,6,,,78,127
41886,note_off,53,0,0,,6,,,78,127
41888,note_on,2,0,0,,4,,,76,127
41941,note_off,53,0,0,,4,,,76,127
41943,note_on,2,0,0,,3,,,75,127
41996,note_off,53,0,0,,3,,,75,127
41998,note_on,2,0,0,,4,,,76,127
42051,note_off,53,0,0,,4,,,76,127
42051,note_off,0,0,0,,4,,,64,127
42051,note_off,0,0,0,,6,,,66,127
42053,note_on,2,0,0,,8,,,68,127
42053,note_on,0,0,0,,4,,,64,127
42163,note_on,110,0,0,,4,,,76,127
42270,note_off,107,0,0,,4,,,76,127
42270,note_off,0,0,0,,4,,,64,127
42270,note_off,0,0,0,,8,,,68,127
42272,note_on,2,0,0,,8,,,68,127
42272,note_on,0,0,0,,4,,,64,127
42272,note_on,0,0,0,,4,,,76,127
42379,note_off,107,0,0,,4,,,76,127
42381,note_on,2,0,0,,3,,,75,127
42488,note_off,107,0,0,,3,,,75,127
42488,note_off,0,0,0,,4,,,64,127
42488,note_off,0,0,0,,8,,,68,127
42490,note_on,2,0,0,,8,,,68,127
42490,note_on,0,0,0,,4,,,64,127
42490,note_on,0,0,0,,3,,,75,127
42597,note_off,107,0,0,,3,,,75,127
42599,note_on,2,0,0,,4,,,76,127
42706,note_off,107,0,0,,4,,,76,127
42706,note_off,0,0,0,,4,,,64,127
42706,note_off,0,0,0,,8,,,68,127
42708,note_on,2,0,0,,10,,,69,127
42708,note_on,0,0,0,,4,,,64,127
42708,note_on,0,0,0,,1,,,73,127
42818,note_on,110,0,0,,4,,,76,127
42925,note_off,107,0,0,,4,,,76,127
42925,note_off,0,0,0,,4,,,64,127
42925,note_off,0,0,0,,10,,,69,127
42927,note_on,2,0,0,,10,,,69,127
42927,note_on,0,0,0,,4,,,64,127
42927,note_on,0,0,0,,4,,,76,127
43034,note_off,107,0,0,,4,,,76,127
43036,note_on,2,0,0,,3,,,75,127
43143,note_off,107,0,0,,3,,,75,127
43143,note_off,0,0,0,,4,,,64,127
43143,note_off,0,0,0,,10,,,69,127
43145,note_on,2,0,0,,4,,,64,127
43145,note_on,0,0,0,,10,,,69,127
43145,note_on,0,0,0,,3,,,75,127
43252,note_off,107,0,0,,3,,,75,127
43254,note_on,2,0,0,,4,,,76,127
43361,note_off,107,0,0,,4,,,76,127
43361,note_off,0,0,0,,10,,,69,127
43361,note_off,0,0,0,,4,,,64,127
43362,note_off,1,0,0,,1,,,73,127
43363,note_on,1,0,0,,8,,,68,127
43363,note_on,0,0,0,,4,,,64,127
43363,note_on,0,0,0,,12,,,71,127
43473,note_on,110,0,0,,4,,,76,127
43580,note_off,107,0,0,,4,,,76,127
43580,note_off,0,0,0,,4,,,64,127
43580,note_off,0,0,0,,8,,,68,127
43582,note_on,2,0,0,,8,,,68,127
43582,note_on,0,0,0,,4,,,64,127
43582,note_on,0,0,0,,4,,,76,127
43689,note_off,107,0,0,,4,,,76,127
43691,note_on,2,0,0,,3,,,75,127
43798,note_off,107,0,0,,3,,,75,127
43798,note_off,0,0,0,,4,,,64,127
43798,note_off,0,0,0,,8,,,68,127
43800,note_on,2,0,0,,8,,,68,127
43800,note_on,0,0,0,,4,,,64,127
43800,note_on,0,0,0,,3,,,75,127
43907,note_off,107,0,0,,3,,,75,127
43909,note_on,2,0,0,,4,,,76,127
44016,note_off,107,0,0,,4,,,76,127
44016,note_off,0,0,0,,4,,,64,127
44016,note_off,0,0,0,,8,,,68,127
44017,note_off,1,0,0,,12,,,71,127
44018,note_on,1,0,0,,6,,,66,127
44018,note_on,0,0,0,,4,,,64,127
44018,note_on,0,0,0,,10,,,69,127
44128,note_on,110,0,0,,4,,,76,127
44235,note_off,107,0,0,,4,,,76,127
44235,note_off,0,0,0,,4,,,64,127
44235,note_off,0,0,0,,6,,,66,127
44237,note_on,2,0,0,,6,,,66,127
44237,note_on,0,0,0,,4,,,64,127
44237,note_on,0,0,0,,4,,,76,127
44344,note_off,107,0,0,,4,,,76,127
44346,note_on,2,0,0,,3,,,75,127
44453,note_off,107,0,0,,3,,,75,127
44453,note_off,0,0,0,,4,,,64,127
44453,note_off,0,0,0,,6,,,66,127
44455,note_on,2,0,0,,6,,,66,127
44455,note_on,0,0,0,,4,,,64,127
44455,note_on,0,0,0,,3,,,75,127
44562,note_off,107,0,0,,3,,,75,127
44564,note_on,2,0,0,,4,,,76,127
44671,note_off,107,0,0,,4,,,76,127
44671,note_off,0,0,0,,4,,,64,127
44671,note_off,0,0,0,,6,,,66,127
44672,note_off,1,0,0,,10,,,69,127
44673,note_on,1,0,0,,4,,,64,127
44673,note_on,0,0,0,,8,,,68,127
44783,note_on,110,0,0,,12,,,83,127
44890,note_off,107,0,0,,12,,,83,127
44890,note_off,0,0,0,,8,,,68,127
44890,note_off,0,0,0,,4,,,64,127
44892,note_on,2,0,0,,6,,,66,127
44892,note_on,0,0,0,,10,,,81,127
44999,note_off,107,0,0,,10,,,81,127
45001,note_on,2,0,0,,8,,,80,127
45108,note_off,107,0,0,,8,,,80,127
45108,note_off,0,0,0,,6,,,66,127
45110,note_on,2,0,0,,8,,,68,127
45110,note_on,0,0,0,,10,,,81,127
45217,note_off,107,0,0,,10,,,81,127
45219,note_on,2,0,0,,12,,,83,127
45326,note_off,107,0,0,,12,,,83,127
45326,note_off,0,0,0,,8,,,68,127
45328,note_on,2,0,0,,10,,,57,127
45328,note_on,0,0,0,,1,,,85,127
45435,note_off,107,0,0,,1,,,85,127
45437,note_on,2,0,0,,12,,,83,127
45544,note_off,107,0,0,,12,,,83,127
45544,note_off,0,0,0,,10,,,57,127
45546,note_on,2,0,0,,12,,,59,127
45546,note_on,0,0,0,,10,,,81,127
45653,note_off,107,0,0,,10,,,81,127
45655,note_on,2,0,0,,8,,,80,127
45762,note_off,107,0,0,,8,,,80,127
45762,note_off,0,0,0,,12,,,59,127
45764,note_on,2,0,0,,1,,,61,127
45764,note_on,0,0,0,,6,,,78,127
45871,note_off,107,0,0,,6,,,78,127
45873,note_on,2,0,0,,4,,,76,127
45980,note_off,107,0,0,,4,,,76,127
45980,note_off,0,0,0,,1,,,61,127
45982,note_on,2,0,0,,12,,,59,127
45982,note_on,0,0,0,,3,,,75,127
46089,note_off,107,0,0,,3,,,75,127
46091,note_on,2,0,0,,1,,,73,127
46198,note_off,107,0,0,,1,,,73,127
46200,note_on,2,0,0,,12,,,71,127
46307,note_off,107,0,0,,12,,,59,127
46309,note_on,2,0,0,,10,,,57,127
46416,note_off,107,0,0,,10,,,57,127
46418,note_on,2,0,0,,8,,,56,127
46525,note_off,107,0,0,,8,,,56,127
46527,note_on,2,0,0,,6,,,54,127
46634,note_off,107,0,0,,6,,,54,127
46634,note_off,0,0,0,,12,,,71,127
46636,note_on,2,0,0,,8,,,56,127
46636,note_on,0,0,0,,4,,,52,127
46636,note_on,0,0,0,,12,,,59,127
46636,note_on,0,0,0,,12,,,83,127
46743,note_off,107,0,0,,12,,,83,127
46745,note_on,2,0,0,,8,,,80,127
46852,note_off,107,0,0,,8,,,80,127
46854,note_on,2,0,0,,4,,,76,127
46961,note_off,107,0,0,,4,,,76,127
46963,note_on,2,0,0,,12,,,71,127
47070,note_off,107,0,0,,12,,,71,127
47072,note_on,2,0,0,,8,,,68,127
47179,note_off,107,0,0,,8,,,68,127
47181,note_on,2,0,0,,4,,,64,127
47288,note_off,107,0,0,,4,,,64,127
47288,note_off,0,0,0,,12,,,59,127
47288,note_off,0,0,0,,4,,,52,127
47288,note_off,0,0,0,,8,,,56,127
47290,note_on,2,0,0,,6,,,54,127
47290,note_on,0,0,0,,3,,,51,127
47290,note_on,0,0,0,,12,,,59,127
47290,note_on,0,0,0,,12,,,83,127
47397,note_off,107,0,0,,12,,,83,127
47399,note_on,2,0,0,,6,,,78,127
47506,note_off,107,0,0,,6,,,78,127
47508,note_on,2,0,0,,3,,,75,127
47615,note_off,107,0,0,,3,,,75,127
47617,note_on,2,0,0,,12,,,71,127
47724,note_off,107,0,0,,12,,,71,127
47726,note_on,2,0,0,,6,,,66,127
47833,note_off,107,0,0,,6,,,66,127
47835,note_on,2,0,0,,3,,,63,127
47942,note_off,107,0,0,,3,,,63,127
47942,note_off,0,0,0,,12,,,59,127
47942,note_off,0,0,0,,3,,,51,127
47942,note_off,0,0,0,,6,,,54,127
47944,note_on,2,0,0,,4,,,52,127
47944,note_on,0,0,0,,1,,,49,127
47944,note_on,0,0,0,,12,,,59,127
47944,note_on,0,0,0,,12,,,83,127
48051,note_off,107,0,0,,12,,,83,127
48053,note_on,2,0,0,,8,,,80,127
48160,note_off,107,0,0,,8,,,80,127
48162,note_on,2,0,0,,4,,,76,127
48269,note_off,107,0,0,,4,,,76,127
48271,note_on,2,0,0,,12,,,71,127
48378,note_off,107,0,0,,12,,,71,127
48380,note_on,2,0,0,,4,,,64,127
48487,note_off,107,0,0,,4,,,64,127
48489,note_on,2,0,0,,1,,,61,127
48596,note_off,107,0,0,,1,,,61,127
48596,note_off,0,0,0,,12,,,59,127
48596,note_off,0,0,0,,1,,,49,127
48596,note_off,0,0,0,,4,,,52,127
48598,note_on,2,0,0,,12,,,47,127
48598,note_on,0,0,0,,12,,,59,127
48598,note_on,0,0,0,,3,,,51,127
48598,note_on,0,0,0,,12,,,83,127
48705,note_off,107,0,0,,12,,,83,127
48707,note_on,2,0,0,,6,,,78,127
48814,note_off,107,0,0,,6,,,78,127
48816,note_on,2,0,0,,3,,,75,127
48923,note_off,107,0,0,,3,,,75,127
48925,note_on,2,0,0,,12,,,71,127
49032,note_off,107,0,0,,12,,,71,127
49034,note_on,2,0,0,,3,,,63,127
49141,note_off,107,0,0,,3,,,63,127
49143,note_off,2,0,0,,12,,,59,127
49143,note_on,0,0,0,,12,,,59,127
49250,note_off,107,0,0,,12,,,59,127
49250,note_off,0,0,0,,3,,,51,127
49250,note_off,0,0,0,,12,,,47,127
49252,note_on,2,0,0,,1,,,49,127
49252,note_on,0,0,0,,10,,,45,127
49252,note_on,0,0,0,,12,,,83,127
49359,note_off,107,0,0,,12,,,83,127
49361,note_on,2,0,0,,8,,,80,127
49468,note_off,107,0,0,,8,,,80,127
49470,note_on,2,0,0,,4,,,76,127
49577,note_off,107,0,0,,4,,,76,127
49579,note_on,2,0,0,,1,,,73,127
49686,note_off,107,0,0,,1,,,73,127
49688,note_on,2,0,0,,1,,,61,127
49795,note_off,107,0,0,,1,,,61,127
49797,note_on,2,0,0,,10,,,57,127
49904,note_off,107,0,0,,10,,,57,127
49904,note_off,0,0,0,,10,,,45,127
49904,note_off,0,0,0,,1,,,49,127
49906,note_on,2,0,0,,8,,,44,127
49906,note_on,0,0,0,,12,,,47,127
49906,note_on,0,0,0,,12,,,83,127
50013,note_off,107,0,0,,12,,,83,127
50015,note_on,2,0,0,,8,,,80,127
50122,note_off,107,0,0,,8,,,80,127
50124,note_on,2,0,0,,4,,,76,127
50231,note_off,107,0,0,,4,,,76,127
50233,note_on,2,0,0,,12,,,71,127
50340,note_off,107,0,0,,12,,,71,127
50342,note_on,2,0,0,,12,,,59,127
50449,note_off,107,0,0,,12,,,59,127
50451,note_on,2,0,0,,8,,,56,127
50558,note_off,107,0,0,,8,,,56,127
50558,note_off,0,0,0,,12,,,47,127
50558,note_off,0,0,0,,8,,,44,127
50560,note_on,2,0,0,,10,,,45,127
50560,note_on,0,0,0,,1,,,61,127
50667,note_off,107,0,0,,1,,,61,127
50669,note_on,2,0,0,,10,,,57,127
50776,note_off,107,0,0,,10,,,57,127
50776,note_off,0,0,0,,10,,,45,127
50778,note_on,2,0,0,,12,,,47,127
50778,note_on,0,0,0,,3,,,63,127
50885,note_off,107,0,0,,3,,,63,127
50887,note_on,2,0,0,,12,,,59,127
50994,note_off,107,0,0,,12,,,59,127
50994,note_off,0,0,0,,12,,,47,127
50996,note_on,2,0,0,,1,,,49,127
50996,note_on,0,0,0,,4,,,64,127
51103,note_off,107,0,0,,4,,,64,127
51105,note_on,2,0,0,,1,,,61,127
51212,note_off,107,0,0,,1,,,61,127
51212,note_off,0,0,0,,1,,,49,127
51214,note_on,2,0,0,,12,,,47,127
51214,note_on,0,0,0,,3,,,63,127
51321,note_off,107,0,0,,3,,,63,127
51323,note_on,2,0,0,,6,,,66,127
51430,note_off,107,0,0,,6,,,66,127
51432,note_on,2,0,0,,12,,,59,127
51539,note_off,107,0,0,,12,,,59,127
51539,note_off,0,0,0,,12,,,47,127
51541,note_on,2,0,0,,10,,,45,127
51541,note_on,0,0,0,,3,,,63,127
51648,note_off,107,0,0,,3,,,63,127
51648,note_off,0,0,0,,10,,,45,127
51650,note_on,2,0,0,,8,,,44,127
51650,note_on,0,0,0,,4,,,64,127
51760,note_on,110,0,0,,8,,,68,127
51787,note_off,27,0,0,,4,,,64,127
51867,note_off,80,0,0,,8,,,68,127
51867,note_off,0,0,0,,8,,,44,127
51869,note_on,2,0,0,,10,,,45,127
51869,note_on,0,0,0,,6,,,66,127
51979,note_on,110,0,0,,10,,,69,127
52006,note_off,27,0,0,,6,,,66,127
52086,note_off,80,0,0,,10,,,69,127
52086,note_off,0,0,0,,10,,,45,127
52088,note_on,2,0,0,,12,,,47,127
52088,note_on,0,0,0,,8,,,68,127
52195,note_off,107,0,0,,8,,,68,127
52197,note_on,2,0,0,,6,,,66,127
52304,note_off,107,0,0,,6,,,66,127
52304,note_off,0,0,0,,12,,,47,127
52306,note_on,2,0,0,,12,,,35,127
52306,note_on,0,0,0,,4,,,64,127
52413,note_off,107,0,0,,4,,,64,127
52415,note_on,2,0,0,,3,,,63,127
52522,note_off,107,0,0,,3,,,63,127
52522,note_off,0,0,0,,12,,,35,127
52524,note_on,2,0,0,,8,,,56,127
52524,note_on,0,0,0,,4,,,52,127
52524,note_on,0,0,0,,12,,,59,127
52524,note_on,0,0,0,,12,,,83,127
52631,note_off,107,0,0,,12,,,83,127
52633,note_on,2,0,0,,8,,,80,127
52740,note_off,107,0,0,,8,,,80,127
52742,note_on,2,0,0,,4,,,76,127
52849,note_off,107,0,0,,4,,,76,127
52851,note_on,2,0,0,,12,,,71,127
52958,note_off,107,0,0,,12,,,71,127
52960,note_on,2,0,0,,8,,,68,127
53067,note_off,107,0,0,,8,,,68,127
53069,note_on,2,0,0,,4,,,64,127
53176,note_off,107,0,0,,4,,,64,127
53176,note_off,0,0,0,,12,,,59,127
53176,note_off,0,0,0,,4,,,52,127
53176,note_off,0,0,0,,8,,,56,127
53178,note_on,2,0,0,,3,,,51,127
53178,note_on,0,0,0,,6,,,54,127
53178,note_on,0,0,0,,12,,,59,127
53178,note_on,0,0,0,,12,,,83,127
53285,note_off,107,0,0,,12,,,83,127
53287,note_on,2,0,0,,6,,,78,127
53394,note_off,107,0,0,,6,,,78,127
53396,note_on,2,0,0,,3,,,75,127
53503,note_off,107,0,0,,3,,,75,127
53505,note_on,2,0,0,,12,,,71,127
53612,note_off,107,0,0,,12,,,71,127
53614,note_on,2,0,0,,6,,,66,127
53721,note_off,107,0,0,,6,,,66,127
53723,note_on,2,0,0,,3,,,63,127
53830,note_off,107,0,0,,3,,,63,127
53830,note_off,0,0,0,,12,,,59,127
53830,note_off,0,0,0,,6,,,54,127
53830,note_off,0,0,0,,3,,,51,127
53832,note_on,2,0,0,,1,,,49,127
53832,note_on,0,0,0,,12,,,59,127
53832,note_on,0,0,0,,4,,,52,127
53832,note_on,0,0,0,,12,,,83,127
53939,note_off,107,0,0,,12,,,83,127
53941,note_on,2,0,0,,8,,,80,127
54048,note_off,107,0,0,,8,,,80,127
54050,note_on,2,0,0,,4,,,76,127
54157,note_off,107,0,0,,4,,,76,127
54159,note_on,2,0,0,,12,,,71,127
54266,note_off,107,0,0,,12,,,71,127
54268,note_on,2,0,0,,4,,,64,127
54375,note_off,107,0,0,,4,,,64,127
54377,note_on,2,0,0,,1,,,61,127
54484,note_off,107,0,0,,1,,,61,127
54484,note_off,0,0,0,,4,,,52,127
54484,note_off,0,0,0,,12,,,59,127
54484,note_off,0,0,0,,1,,,49,127
54486,note_on,2,0,0,,12,,,59,127
54486,note_on,0,0,0,,12,,,47,127
54486,note_on,0,0,0,,3,,,51,127
54486,note_on,0,0,0,,12,,,83,127
54593,note_off,107,0,0,,12,,,83,127
54595,note_on,2,0,0,,6,,,78,127
54702,note_off,107,0,0,,6,,,78,127
54704,note_on,2,0,0,,3,,,75,127
54811,note_off,107,0,0,,3,,,75,127
54813,note_on,2,0,0,,12,,,71,127
54920,note_off,107,0,0,,12,,,71,127
54922,note_on,2,0,0,,3,,,63,127
55029,note_off,107,0,0,,3,,,63,127
55031,note_off,2,0,0,,12,,,59,127
55031,note_on,0,0,0,,12,,,59,127
55138,note_off,107,0,0,,12,,,59,127
55138,note_off,0,0,0,,3,,,51,127
55138,note_off,0,0,0,,12,,,47,127
55140,note_on,2,0,0,,10,,,45,127
55140,note_on,0,0,0,,1,,,49,127
55140,note_on,0,0,0,,12,,,83,127
55247,note_off,107,0,0,,12,,,83,127
55249,note_on,2,0,0,,8,,,80,127
55356,note_off,107,0,0,,8,,,80,127
55358,note_on,2,0,0,,4,,,76,127
55465,note_off,107,0,0,,4,,,76,127
55467,note_on,2,0,0,,1,,,73,127
55574,note_off,107,0,0,,1,,,73,127
55576,note_on,2,0,0,,1,,,61,127
55683,note_off,107,0,0,,1,,,61,127
55685,note_on,2,0,0,,10,,,57,127
55792,note_off,107,0,0,,10,,,57,127
55792,note_off,0,0,0,,1,,,49,127
55792,note_off,0,0,0,,10,,,45,127
55794,note_on,2,0,0,,8,,,44,127
55794,note_on,0,0,0,,12,,,47,127
55794,note_on,0,0,0,,12,,,83,127
55901,note_off,107,0,0,,12,,,83,127
55903,note_on,2,0,0,,8,,,80,127
56010,note_off,107,0,0,,8,,,80,127
56012,note_on,2,0,0,,4,,,76,127
56119,note_off,107,0,0,,4,,,76,127
56121,note_on,2,0,0,,12,,,71,127
56228,note_off,107,0,0,,12,,,71,127
56230,note_on,2,0,0,,12,,,59,127
56337,note_off,107,0,0,,12,,,59,127
56339,note_on,2,0,0,,8,,,56,127
56446,note_off,107,0,0,,8,,,56,127
56446,note_off,0,0,0,,12,,,47,127
56446,note_off,0,0,0,,8,,,44,127
56448,note_on,2,0,0,,10,,,45,127
56448,note_on,0,0,0,,1,,,61,127
56555,note_off,107,0,0,,1,,,61,127
56557,note_on,2,0,0,,10,,,57,127
56664,note_off,107,0,0,,10,,,57,127
56664,note_off,0,0,0,,10,,,45,127
56666,note_on,2,0,0,,12,,,47,127
56666,note_on,0,0,0,,3,,,63,127
56773,note_off,107,0,0,,3,,,63,127
56775,note_on,2,0,0,,12,,,59,127
56882,note_off,107,0,0,,12,,,59,127
56882,note_off,0,0,0,,12,,,47,127
56884,note_on,2,0,0,,1,,,49,127
56884,note_on,0,0,0,,4,,,64,127
56991,note_off,107,0,0,,4,,,64,127
56993,note_on,2,0,0,,1,,,61,127
57100,note_off,107,0,0,,1,,,61,127
57100,note_off,0,0,0,,1,,,49,127
57102,note_on,2,0,0,,12,,,47,127
57102,note_on,0,0,0,,3,,,63,127
57209,note_off,107,0,0,,3,,,63,127
57211,note_on,2,0,0,,6,,,66,127
57318,note_off,107,0,0,,6,,,66,127
57320,note_on,2,0,0,,12,,,59,127
57427,note_off,107,0,0,,12,,,59,127
57427,note_off,0,0,0,,12,,,47,127
57429,note_on,2,0,0,,10,,,45,127
57429,note_on,0,0,0,,3,,,63,127
57536,note_off,107,0,0,,3,,,63,127
57536,note_off,0,0,0,,10,,,45,127
57538,note_on,2,0,0,,8,,,44,127
57538,note_on,0,0,0,,4,,,64,127
57648,note_on,110,0,0,,8,,,68,127
57675,note_off,27,0,0,,4,,,64,127
57755,note_off,80,0,0,,8,,,68,127
57755,note_off,0,0,0,,8,,,44,127
57757,note_on,2,0,0,,10,,,45,127
57757,note_on,0,0,0,,6,,,66,127
57867,note_on,110,0,0,,10,,,69,127
57894,note_off,27,0,0,,6,,,66,127
57974,note_off,80,0,0,,10,,,69,127
57974,note_off,0,0,0,,10,,,45,127
57976,note_on,2,0,0,,12,,,47,127
57976,note_on,0,0,0,,8,,,68,127
58083,note_off,107,0,0,,8,,,68,127
58085,note_on,2,0,0,,6,,,66,127
58192,note_off,107,0,0,,6,,,66,127
58194,note_on,2,0,0,,12,,,35,127
58194,note_on,0,0,0,,4,,,64,127
58301,note_off,107,0,0,,4,,,64,127
58303,note_on,2,0,0,,3,,,63,127
58408,note_off,105,0,0,,12,,,47,127
58410,note_off,2,0,0,,3,,,63,127
58410,note_off,0,0,0,,12,,,35,127
58412,note_on,2,0,0,,4,,,52,127
58412,note_on,0,0,0,,4,,,64,127
58629,note_off,217,0,0,,4,,,64,127
58629,note_off,0,0,0,,4,,,52,127
58631,note_on,2,0,0,,8,,,56,127
58631,note_on,0,0,0,,1,,,73,127
58684,note_off,53,0,0,,1,,,73,127
58686,note_on,2,0,0,,12,,,71,127
58739,note_off,53,0,0,,12,,,71,127
58741,note_on,2,0,0,,1,,,73,127
58794,note_off,53,0,0,,1,,,73,127
58796,note_on,2,0,0,,12,,,71,127
58849,note_off,53,0,0,,12,,,71,127
58849,note_off,0,0,0,,8,,,56,127
58851,note_on,2,0,0,,4,,,52,127
58851,note_on,0,0,0,,1,,,73,127
58904,note_off,53,0,0,,1,,,73,127
58906,note_on,2,0,0,,12,,,71,127
58959,note_off,53,0,0,,12,,,71,127
58961,note_on,2,0,0,,11,,,70,127
59014,note_off,53,0,0,,11,,,70,127
59016,note_on,2,0,0,,12,,,71,127
59069,note_off,53,0,0,,12,,,71,127
59069,note_off,0,0,0,,4,,,52,127
59071,note_on,2,0,0,,3,,,51,127
59071,note_on,0,0,0,,6,,,78,127
59288,note_off,217,0,0,,6,,,78,127
59288,note_off,0,0,0,,3,,,51,127
59290,note_on,2,0,0,,6,,,54,127
59290,note_on,0,0,0,,1,,,73,127
59343,note_off,53,0,0,,1,,,73,127
59345,note_on,2,0,0,,12,,,71,127
59398,note_off,53,0,0,,12,,,71,127
59400,note_on,2,0,0,,1,,,73,127
59453,note_off,53,0,0,,1,,,73,127
59455,note_on,2,0,0,,12,,,71,127
59508,note_off,53,0,0,,12,,,71,127
59508,note_off,0,0,0,,6,,,54,127
59510,note_on,2,0,0,,12,,,47,127
59510,note_on,0,0,0,,1,,,73,127
59563,note_off,53,0,0,,1,,,73,127
59565,note_on,2,0,0,,12,,,71,127
59618,note_off,53,0,0,,12,,,71,127
59620,note_on,2,0,0,,11,,,70,127
59673,note_off,53,0,0,,11,,,70,127
59675,note_on,2,0,0,,12,,,71,127
59728,note_off,53,0,0,,12,,,71,127
59728,note_off,0,0,0,,12,,,47,127
59730,note_on,2,0,0,,4,,,52,127
59730,note_on,0,0,0,,8,,,80,127
59947,note_off,217,0,0,,8,,,80,127
59947,note_off,0,0,0,,4,,,52,127
59949,note_on,2,0,0,,8,,,56,127
59949,note_on,0,0,0,,1,,,73,127
60002,note_off,53,0,0,,1,,,73,127
60004,note_on,2,0,0,,12,,,71,127
60057,note_off,53,0,0,,12,,,71,127
60059,note_on,2,0,0,,1,,,73,127
60112,note_off,53,0,0,,1,,,73,127
60114,note_on,2,0,0,,12,,,71,127
60167,note_off,53,0,0,,12,,,71,127
60167,note_off,0,0,0,,8,,,56,127
60169,note_on,2,0,0,,4,,,52,127
60169,note_on,0,0,0,,1,,,73,127
60222,note_off,53,0,0,,1,,,73,127
60224,note_on,2,0,0,,12,,,71,127
60277,note_off,53,0,0,,12,,,71,127
60279,note_on,2,0,0,,11,,,70,127
60332,note_off,53,0,0,,11,,,70,127
60334,note_on,2,0,0,,12,,,71,127
60387,note_off,53,0,0,,12,,,71,127
60387,note_off,0,0,0,,4,,,52,127
60389,note_on,2,0,0,,3,,,51,127
60389,note_on,0,0,0,,10,,,81,127
60606,note_off,217,0,0,,10,,,81,127
60606,note_off,0,0,0,,3,,,51,127
60608,note_on,2,0,0,,6,,,54,127
60608,note_on,0,0,0,,1,,,73,127
60661,note_off,53,0,0,,1,,,73,127
60663,note_on,2,0,0,,12,,,71,127
60716,note_off,53,0,0,,12,,,71,127
60718,note_on,2,0,0,,1,,,73,127
60771,note_off,53,0,0,,1,,,73,127
60773,note_on,2,0,0,,12,,,71,127
60826,note_off,53,0,0,,12,,,71,127
60826,note_off,0,0,0,,6,,,54,127
60828,note_on,2,0,0,,12,,,47,127
60828,note_on,0,0,0,,1,,,73,127
60881,note_off,53,0,0,,1,,,73,127
60883,note_on,2,0,0,,12,,,71,127
60936,note_off,53,0,0,,12,,,71,127
60938,note_on,2,0,0,,11,,,70,127
60991,note_off,53,0,0,,11,,,70,127
60993,note_on,2,0,0,,12,,,71,127
61046,note_off,53,0,0,,12,,,71,127
61046,note_off,0,0,0,,12,,,47,127
61048,note_on,2,0,0,,4,,,52,127
61048,note_on,0,0,0,,12,,,83,127
61155,note_off,107,0,0,,12,,,83,127
61157,note_on,2,0,0,,10,,,81,127
61264,note_off,107,0,0,,10,,,81,127
61264,note_off,0,0,0,,4,,,52,127
61266,note_on,2,0,0,,6,,,54,127
61266,note_on,0,0,0,,10,,,81,127
61373,note_off,107,0,0,,10,,,81,127
61375,note_on,2,0,0,,8,,,80,127
61482,note_off,107,0,0,,8,,,80,127
61482,note_off,0,0,0,,6,,,54,127
61484,note_on,2,0,0,,8,,,56,127
61484,note_on,0,0,0,,8,,,80,127
61591,note_off,107,0,0,,8,,,80,127
61593,note_on,2,0,0,,6,,,78,127
61700,note_off,107,0,0,,6,,,78,127
61700,note_off,0,0,0,,8,,,56,127
61702,note_on,2,0,0,,10,,,57,127
61702,note_on,0,0,0,,6,,,78,127
61809,note_off,107,0,0,,6,,,78,127
61811,note_on,2,0,0,,10,,,81,127
61918,note_off,107,0,0,,10,,,81,127
61918,note_off,0,0,0,,10,,,57,127
61920,note_on,2,0,0,,12,,,59,127
61920,note_on,0,0,0,,8,,,80,127
62027,note_off,107,0,0,,8,,,80,127
62029,note_on,2,0,0,,6,,,78,127
62136,note_off,107,0,0,,6,,,78,127
62138,note_on,2,0,0,,12,,,47,127
62138,note_on,0,0,0,,4,,,76,127
62245,note_off,107,0,0,,4,,,76,127
62247,note_on,2,0,0,,3,,,75,127
62352,note_off,105,0,0,,12,,,59,127
62354,note_off,2,0,0,,3,,,75,127
62354,note_off,0,0,0,,12,,,47,127
62356,note_on,2,0,0,,4,,,52,127
62356,note_on,0,0,0,,4,,,76,127
62573,note_off,217,0,0,,4,,,76,127
62573,note_off,0,0,0,,4,,,52,127
62575,note_on,2,0,0,,8,,,56,127
62575,note_on,0,0,0,,1,,,73,127
62628,note_off,53,0,0,,1,,,73,127
62630,note_on,2,0,0,,12,,,71,127
62683,note_off,53,0,0,,12,,,71,127
62685,note_on,2,0,0,,1,,,73,127
62738,note_off,53,0,0,,1,,,73,127
62740,note_on,2,0,0,,12,,,71,127
62793,note_off,53,0,0,,12,,,71,127
62793,note_off,0,0,0,,8,,,56,127
62795,note_on,2,0,0,,4,,,52,127
62795,note_on,0,0,0,,1,,,73,127
62848,note_off,53,0,0,,1,,,73,127
62850,note_on,2,0,0,,12,,,71,127
62903,note_off,53,0,0,,12,,,71,127
62905,note_on,2,0,0,,11,,,70,127
62958,note_off,53,0,0,,11,,,70,127
62960,note_on,2,0,0,,12,,,71,127
63013,note_off,53,0,0,,12,,,71,127
63013,note_off,0,0,0,,4,,,52,127
63015,note_on,2,0,0,,3,,,51,127
63015,note_on,0,0,0,,6,,,78,127
63232,note_off,217,0,0,,6,,,78,127
63232,note_off,0,0,0,,3,,,51,127
63234,note_on,2,0,0,,6,,,54,127
63234,note_on,0,0,0,,8,,,68,127
63287,note_off,53,0,0,,8,,,68,127
63289,note_on,2,0,0,,6,,,66,127
63342,note_off,53,0,0,,6,,,66,127
63344,note_on,2,0,0,,8,,,68,127
63397,note_off,53,0,0,,8,,,68,127
63399,note_on,2,0,0,,6,,,66,127
63452,note_off,53,0,0,,6,,,66,127
63452,note_off,0,0,0,,6,,,54,127
63454,note_on,2,0,0,,12,,,47,127
63454,note_on,0,0,0,,8,,,68,127
63507,note_off,53,0,0,,8,,,68,127
63509,note_on,2,0,0,,6,,,66,127
63562,note_off,53,0,0,,6,,,66,127
63564,note_on,2,0,0,,4,,,64,127
63617,note_off,53,0,0,,4,,,64,127
63619,note_on,2,0,0,,6,,,66,127
63672,note_off,53,0,0,,6,,,66,127
63672,note_off,0,0,0,,12,,,47,127
63674,note_on,2,0,0,,4,,,52,127
63674,note_on,0,0,0,,4,,,76,127
63891,note_off,217,0,0,,4,,,76,127
63891,note_off,0,0,0,,4,,,52,127
63893,note_on,2,0,0,,8,,,56,127
63893,note_on,0,0,0,,1,,,73,127
63946,note_off,53,0,0,,1,,,73,127
63948,note_on,2,0,0,,12,,,71,127
64001,note_off,53,0,0,,12,,,71,127
64003,note_on,2,0,0,,1,,,73,127
64056,note_off,53,0,0,,1,,,73,127
64058,note_on,2,0,0,,12,,,71,127
64111,note_off,53,0,0,,12,,,71,127
64111,note_off,0,0,0,,8,,,56,127
64113,note_on,2,0,0,,4,,,52,127
64113,note_on,0,0,0,,1,,,73,127
64166,note_off,53,0,0,,1,,,73,127
64168,note_on,2,0,0,,12,,,71,127
64221,note_off,53,0,0,,12,,,71,127
64223,note_on,2,0,0,,11,,,70,127
64276,note_off,53,0,0,,11,,,70,127
64278,note_on,2,0,0,,12,,,71,127
64331,note_off,53,0,0,,12,,,71,127
64331,note_off,0,0,0,,4,,,52,127
64333,note_on,2,0,0,,3,,,51,127
64333,note_on,0,0,0,,6,,,78,127
64550,note_off,217,0,0,,6,,,78,127
64550,note_off,0,0,0,,3,,,51,127
64552,note_on,2,0,0,,6,,,54,127
64552,note_on,0,0,0,,8,,,68,127
64605,note_off,53,0,0,,8,,,68,127
64607,note_on,2,0,0,,6,,,66,127
64660,note_off,53,0,0,,6,,,66,127
64662,note_on,2,0,0,,8,,,68,127
64715,note_off,53,0,0,,8,,,68,127
64717,note_on,2,0,0,,6,,,66,127
64770,note_off,53,0,0,,6,,,66,127
64770,note_off,0,0,0,,6,,,54,127
64772,note_on,2,0,0,,12,,,47,127
64772,note_on,0,0,0,,8,,,68,127
64825,note_off,53,0,0,,8,,,68,127
64827,note_on,2,0,0,,6,,,66,127
64880,note_off,53,0,0,,6,,,66,127
64882,note_on,2,0,0,,4,,,64,127
64935,note_off,53,0,0,,4,,,64,127
64937,note_on,2,0,0,,6,,,66,127
64990,note_off,53,0,0,,6,,,66,127
64990,note_off,0,0,0,,12,,,47,127
64992,note_on,2,0,0,,4,,,52,127
64992,note_on,0,0,0,,8,,,68,127
65099,note_off,107,0,0,,8,,,68,127
65101,note_on,2,0,0,,4,,,76,127
65208,note_off,107,0,0,,4,,,76,127
65208,note_off,0,0,0,,4,,,52,127
65210,note_on,2,0,0,,6,,,54,127
65210,note_on,0,0,0,,4,,,76,127
65317,note_off,107,0,0,,4,,,76,127
65319,note_on,2,0,0,,3,,,75,127
65426,note_off,107,0,0,,3,,,75,127
65426,note_off,0,0,0,,6,,,54,127
65428,note_on,2,0,0,,8,,,56,127
65428,note_on,0,0,0,,4,,,76,127
65535,note_off,107,0,0,,4,,,76,127
65537,note_on,2,0,0,,12,,,71,127
65644,note_off,107,0,0,,12,,,71,127
65644,note_off,0,0,0,,8,,,56,127
65646,note_on,2,0,0,,10,,,57,127
65646,note_on,0,0,0,,1,,,73,127
65753,note_off,107,0,0,,1,,,73,127
65755,note_on,2,0,0,,10,,,69,127
65862,note_off,107,0,0,,10,,,69,127
65862,note_off,0,0,0,,10,,,57,127
65864,note_on,2,0,0,,12,,,59,127
65864,note_on,0,0,0,,8,,,68,127
65971,note_off,107,0,0,,8,,,68,127
65973,note_on,2,0,0,,6,,,66,127
66080,note_off,107,0,0,,6,,,66,127
66082,note_on,2,0,0,,12,,,47,127
66082,note_on,0,0,0,,4,,,64,127
66189,note_off,107,0,0,,4,,,64,127
66191,note_off,2,0,0,,12,,,59,127
66191,note_on,0,0,0,,3,,,63,127
66298,note_off,107,0,0,,12,,,47,127
66299,note_off,1,0,0,,3,,,63,127
66302,note_on,3,0,0,,4,,,64,127
66302,note_on,0,0,0,,4,,,40,127
66302,note_on,0,0,0,,4,,,52,127
66411,note_off,109,0,0,,4,,,64,127
66416,note_on,5,0,0,,6,,,66,127
66523,note_off,107,0,0,,4,,,40,127
66524,note_off,1,0,0,,6,,,66,127
66529,note_on,5,0,0,,4,,,64,127
66529,note_on,0,0,0,,6,,,42,127
66638,note_off,109,0,0,,4,,,64,127
66643,note_on,5,0,0,,3,,,63,127
66750,note_off,107,0,0,,6,,,42,127
66751,note_off,1,0,0,,3,,,63,127
66756,note_on,5,0,0,,4,,,64,127
66756,note_on,0,0,0,,8,,,44,127
66865,note_off,109,0,0,,4,,,64,127
66870,note_on,5,0,0,,12,,,59,127
66968,note_off,98,0,0,,4,,,52,127
66977,note_off,9,0,0,,8,,,44,127
66978,note_off,1,0,0,,12,,,59,127
66983,note_on,5,0,0,,1,,,61,127
66983,note_on,0,0,0,,10,,,45,127
67092,note_off,109,0,0,,1,,,61,127
67097,note_on,5,0,0,,10,,,57,127
67204,note_off,107,0,0,,10,,,45,127
67205,note_off,1,0,0,,10,,,57,127
67208,note_on,3,0,0,,8,,,56,127
67208,note_on,0,0,0,,12,,,47,127
67317,note_off,109,0,0,,8,,,56,127
67322,note_on,5,0,0,,6,,,54,127
67431,note_off,109,0,0,,6,,,54,127
67436,note_on,5,0,0,,4,,,52,127
67436,note_on,0,0,0,,12,,,35,127
67545,note_off,109,0,0,,4,,,52,127
67550,note_on,5,0,0,,3,,,51,127
67653,note_off,103,0,0,,12,,,47,127
67658,note_off,5,0,0,,12,,,35,127
67659,note_off,1,0,0,,3,,,51,127
67664,note_on,5,0,0,,6,,,54,127
67664,note_on,0,0,0,,4,,,40,127
67717,note_off,53,0,0,,6,,,54,127
67720,note_on,3,0,0,,4,,,52,127
67773,note_off,53,0,0,,4,,,52,127
67778,note_on,5,0,0,,6,,,54,127
67831,note_off,53,0,0,,6,,,54,127
67834,note_on,3,0,0,,4,,,52,127
69567,note_off,1733,0,0,,4,,,40,127
69568,note_off,1,0,0,,4,,,52,127
73728,end_of_track,4160,1,0,,,,,,
