tick,type,time,meta,track,program,channel,pitch,tempo,note,velocity
0,copyright,0,1,0,,,,,,
0,program_change,0,0,0,6,0,,,,
0,pitchwheel,0,0,0,,0,0,,,
0,program_change,0,0,0,6,1,,,,
0,pitchwheel,0,0,0,,1,-590,,,
0,program_change,0,0,0,6,2,,,,
0,pitchwheel,0,0,0,,2,-272,,,
0,program_change,0,0,0,6,3,,,,
0,pitchwheel,0,0,0,,3,-353,,,
0,program_change,0,0,0,6,4,,,,
0,pitchwheel,0,0,0,,4,-560,,,
0,program_change,0,0,0,6,5,,,,
0,pitchwheel,0,0,0,,5,-80,,,
0,program_change,0,0,0,6,6,,,,
0,pitchwheel,0,0,0,,6,-625,,,
0,program_change,0,0,0,6,7,,,,
0,pitchwheel,0,0,0,,7,-130,,,
0,program_change,0,0,0,6,8,,,,
0,pitchwheel,0,0,0,,8,-512,,,
0,program_change,0,0,0,6,10,,,,
0,pitchwheel,0,0,0,,10,-464,,,
0,program_change,0,0,0,6,11,,,,
0,pitchwheel,0,0,0,,11,-208,,,
0,program_change,0,0,0,6,12,,,,
0,pitchwheel,0,0,0,,12,-553,,,
0,set_tempo,0,1,0,,,,500000,,
160,note_on,160,0,0,,10,,,57,127
160,note_on,0,0,0,,10,,,69,127
798,note_off,638,0,0,,10,,,57,127
800,note_on,2,0,0,,10,,,57,127
800,note_on,0,0,0,,1,,,73,127
803,note_off,3,0,0,,10,,,69,127
1438,note_off,635,0,0,,10,,,57,127
1440,note_on,2,0,0,,10,,,57,127
1443,note_off,3,0,0,,1,,,73,127
1443,note_on,0,0,0,,6,,,78,127
1760,note_on,317,0,0,,4,,,76,127
1810,note_off,50,0,0,,6,,,78,127
2078,note_off,268,0,0,,10,,,57,127
2080,note_on,2,0,0,,10,,,57,127
2393,note_off,313,0,0,,4,,,76,127
2400,note_on,7,0,0,,2,,,74,127
2560,note_on,160,0,0,,1,,,73,127
2563,note_off,3,0,0,,2,,,74,127
2718,note_off,155,0,0,,10,,,57,127
2720,note_on,2,0,0,,2,,,50,127
2720,note_on,0,0,0,,12,,,71,127
2723,note_off,3,0,0,,1,,,73,127
3043,note_on,320,0,0,,6,,,78,127
3136,note_off,93,0,0,,12,,,71,127
3358,note_off,222,0,0,,2,,,50,127
3360,note_on,2,0,0,,2,,,50,127
3610,note_off,250,0,0,,6,,,78,127
3680,note_on,70,0,0,,4,,,76,127
3998,note_off,318,0,0,,2,,,50,127
4000,note_on,2,0,0,,2,,,50,127
4000,note_on,0,0,0,,2,,,74,127
4003,note_off,3,0,0,,4,,,76,127
4156,note_on,153,0,0,,4,,,76,127
4158,note_off,2,0,0,,2,,,74,127
4313,note_on,155,0,0,,2,,,74,127
4315,note_off,2,0,0,,4,,,76,127
4470,note_on,155,0,0,,1,,,73,127
4472,note_off,2,0,0,,2,,,74,127
4629,note_off,157,0,0,,1,,,73,127
4639,note_off,10,0,0,,2,,,50,127
4641,note_on,2,0,0,,12,,,71,127
4641,note_on,0,0,0,,2,,,50,127
4961,note_on,320,0,0,,10,,,69,127
4973,note_off,12,0,0,,12,,,71,127
5280,note_off,307,0,0,,2,,,50,127
5282,note_on,2,0,0,,12,,,59,127
5282,note_on,0,0,0,,2,,,50,127
5282,note_on,0,0,0,,8,,,68,127
5285,note_off,3,0,0,,10,,,69,127
5605,note_on,320,0,0,,4,,,76,127
5815,note_off,210,0,0,,8,,,68,127
5920,note_off,105,0,0,,2,,,50,127
5920,note_off,0,0,0,,12,,,59,127
5922,note_on,2,0,0,,1,,,49,127
5922,note_on,0,0,0,,10,,,57,127
6155,note_off,233,0,0,,4,,,76,127
6242,note_on,87,0,0,,1,,,73,127
6560,note_off,318,0,0,,10,,,57,127
6560,note_off,0,0,0,,1,,,49,127
6562,note_on,2,0,0,,10,,,57,127
6562,note_on,0,0,0,,1,,,49,127
6562,note_on,0,0,0,,8,,,68,127
6565,note_off,3,0,0,,1,,,73,127
6882,note_on,317,0,0,,10,,,69,127
6929,note_off,47,0,0,,8,,,68,127
7201,note_off,272,0,0,,1,,,49,127
7201,note_off,0,0,0,,10,,,57,127
7203,note_on,2,0,0,,1,,,49,127
7203,note_on,0,0,0,,10,,,57,127
7203,note_on,0,0,0,,3,,,63,127
7206,note_off,3,0,0,,10,,,69,127
7523,note_on,317,0,0,,4,,,64,127
7570,note_off,47,0,0,,3,,,63,127
7823,note_off,253,0,0,,4,,,64,127
7841,note_off,18,0,0,,10,,,57,127
7841,note_off,0,0,0,,1,,,49,127
7843,note_on,2,0,0,,10,,,57,127
7843,note_on,0,0,0,,2,,,50,127
7843,note_on,0,0,0,,6,,,66,127
8003,note_on,160,0,0,,8,,,68,127
8006,note_off,3,0,0,,6,,,66,127
8163,note_on,157,0,0,,10,,,69,127
8166,note_off,3,0,0,,8,,,68,127
8323,note_on,157,0,0,,8,,,68,127
8326,note_off,3,0,0,,10,,,69,127
8481,note_off,155,0,0,,2,,,50,127
8481,note_off,0,0,0,,10,,,57,127
8483,note_on,2,0,0,,2,,,50,127
8483,note_on,0,0,0,,10,,,57,127
8483,note_on,0,0,0,,12,,,71,127
8486,note_off,3,0,0,,8,,,68,127
8643,note_on,157,0,0,,1,,,73,127
8646,note_off,3,0,0,,12,,,71,127
8803,note_on,157,0,0,,2,,,74,127
8806,note_off,3,0,0,,1,,,73,127
8963,note_on,157,0,0,,1,,,73,127
8966,note_off,3,0,0,,2,,,74,127
9121,note_off,155,0,0,,10,,,57,127
9121,note_off,0,0,0,,2,,,50,127
9123,note_on,2,0,0,,4,,,52,127
9123,note_on,0,0,0,,12,,,59,127
9123,note_on,0,0,0,,10,,,81,127
9126,note_off,3,0,0,,1,,,73,127
9283,note_on,157,0,0,,8,,,80,127
9286,note_off,3,0,0,,10,,,81,127
9443,note_on,157,0,0,,12,,,83,127
9446,note_off,3,0,0,,8,,,80,127
9603,note_on,157,0,0,,10,,,81,127
9606,note_off,3,0,0,,12,,,83,127
9761,note_off,155,0,0,,12,,,59,127
9761,note_off,0,0,0,,4,,,52,127
9763,note_on,2,0,0,,4,,,52,127
9763,note_on,0,0,0,,12,,,59,127
9763,note_on,0,0,0,,8,,,80,127
9766,note_off,3,0,0,,10,,,81,127
9923,note_on,157,0,0,,6,,,78,127
9926,note_off,3,0,0,,8,,,80,127
10083,note_on,157,0,0,,4,,,76,127
10086,note_off,3,0,0,,6,,,78,127
10243,note_on,157,0,0,,2,,,74,127
10246,note_off,3,0,0,,4,,,76,127
10401,note_off,155,0,0,,12,,,59,127
10401,note_off,0,0,0,,4,,,52,127
10403,note_on,2,0,0,,10,,,45,127
10405,note_on,2,0,0,,1,,,73,127
10407,note_off,2,0,0,,2,,,74,127
10520,note_on,113,0,0,,12,,,71,127
10522,note_off,2,0,0,,1,,,73,127
10634,note_on,112,0,0,,10,,,69,127
10637,note_off,3,0,0,,12,,,71,127
10950,note_off,313,0,0,,10,,,69,127
11042,note_off,92,0,0,,10,,,45,127
11049,note_on,7,0,0,,10,,,57,127
11369,note_on,320,0,0,,1,,,73,127
11687,note_off,318,0,0,,10,,,57,127
11689,note_on,2,0,0,,10,,,57,127
12009,note_on,320,0,0,,3,,,75,127
12012,note_off,3,0,0,,1,,,73,127
12327,note_off,315,0,0,,10,,,57,127
12329,note_on,2,0,0,,10,,,57,127
12329,note_on,0,0,0,,4,,,64,127
12642,note_off,313,0,0,,3,,,75,127
12649,note_on,7,0,0,,4,,,76,127
12809,note_on,160,0,0,,1,,,73,127
12812,note_off,3,0,0,,4,,,76,127
12967,note_off,155,0,0,,4,,,64,127
12967,note_off,0,0,0,,10,,,57,127
12969,note_on,2,0,0,,11,,,70,127
12969,note_on,0,0,0,,8,,,56,127
12969,note_on,0,0,0,,4,,,64,127
12972,note_off,3,0,0,,1,,,73,127
13129,note_on,157,0,0,,12,,,71,127
13132,note_off,3,0,0,,11,,,70,127
13289,note_on,157,0,0,,3,,,75,127
13292,note_off,3,0,0,,12,,,71,127
13607,note_off,315,0,0,,4,,,64,127
13607,note_off,0,0,0,,8,,,56,127
13609,note_on,2,0,0,,8,,,56,127
13609,note_on,0,0,0,,4,,,64,127
13889,note_off,280,0,0,,3,,,75,127
13929,note_on,40,0,0,,4,,,76,127
14089,note_on,160,0,0,,1,,,73,127
14092,note_off,3,0,0,,4,,,76,127
14247,note_off,155,0,0,,4,,,64,127
14247,note_off,0,0,0,,8,,,56,127
14249,note_on,2,0,0,,8,,,68,127
14249,note_on,0,0,0,,10,,,57,127
14249,note_on,0,0,0,,6,,,54,127
14252,note_off,3,0,0,,1,,,73,127
14409,note_on,157,0,0,,10,,,69,127
14412,note_off,3,0,0,,8,,,68,127
14569,note_on,157,0,0,,3,,,75,127
14572,note_off,3,0,0,,10,,,69,127
14887,note_off,315,0,0,,6,,,54,127
14887,note_off,0,0,0,,10,,,57,127
14889,note_on,2,0,0,,6,,,54,127
14889,note_on,0,0,0,,10,,,57,127
15169,note_off,280,0,0,,3,,,75,127
15209,note_on,40,0,0,,4,,,76,127
15369,note_on,160,0,0,,1,,,73,127
15372,note_off,3,0,0,,4,,,76,127
15527,note_off,155,0,0,,10,,,57,127
15527,note_off,0,0,0,,6,,,54,127
15529,note_on,2,0,0,,4,,,52,127
15529,note_on,0,0,0,,10,,,57,127
15689,note_on,160,0,0,,10,,,69,127
15692,note_off,3,0,0,,1,,,73,127
15849,note_on,157,0,0,,1,,,73,127
15852,note_off,3,0,0,,10,,,69,127
16167,note_off,315,0,0,,10,,,57,127
16167,note_off,0,0,0,,4,,,52,127
16169,note_on,2,0,0,,4,,,52,127
16169,note_on,0,0,0,,10,,,57,127
16416,note_off,247,0,0,,1,,,73,127
16489,note_on,73,0,0,,10,,,81,127
16649,note_on,160,0,0,,1,,,73,127
16652,note_off,3,0,0,,10,,,81,127
16807,note_off,155,0,0,,10,,,57,127
16807,note_off,0,0,0,,4,,,52,127
16809,note_on,2,0,0,,4,,,76,127
16809,note_on,0,0,0,,10,,,57,127
16809,note_on,0,0,0,,12,,,59,127
16809,note_on,0,0,0,,3,,,51,127
16812,note_off,3,0,0,,1,,,73,127
16969,note_on,157,0,0,,3,,,75,127
16972,note_off,3,0,0,,4,,,76,127
17129,note_on,157,0,0,,6,,,78,127
17132,note_off,3,0,0,,3,,,75,127
17289,note_on,157,0,0,,4,,,76,127
17292,note_off,3,0,0,,6,,,78,127
17447,note_off,155,0,0,,3,,,51,127
17447,note_off,0,0,0,,12,,,59,127
17447,note_off,0,0,0,,10,,,57,127
17449,note_on,2,0,0,,3,,,75,127
17449,note_on,0,0,0,,3,,,51,127
17449,note_on,0,0,0,,10,,,57,127
17449,note_on,0,0,0,,12,,,59,127
17452,note_off,3,0,0,,4,,,76,127
17609,note_on,157,0,0,,1,,,73,127
17612,note_off,3,0,0,,3,,,75,127
17769,note_on,157,0,0,,12,,,71,127
17772,note_off,3,0,0,,1,,,73,127
17929,note_on,157,0,0,,10,,,69,127
17932,note_off,3,0,0,,12,,,71,127
18087,note_off,155,0,0,,12,,,59,127
18087,note_off,0,0,0,,10,,,57,127
18087,note_off,0,0,0,,3,,,51,127
18089,note_on,2,0,0,,8,,,68,127
18089,note_on,0,0,0,,12,,,59,127
18089,note_on,0,0,0,,4,,,52,127
18092,note_off,3,0,0,,10,,,69,127
18204,note_on,112,0,0,,6,,,66,127
18206,note_off,2,0,0,,8,,,68,127
18319,note_on,113,0,0,,4,,,64,127
18321,note_off,2,0,0,,6,,,66,127
18636,note_off,315,0,0,,4,,,64,127
18728,note_off,92,0,0,,4,,,52,127
18728,note_off,0,0,0,,12,,,59,127
18730,note_on,2,0,0,,4,,,52,127
18730,note_on,0,0,0,,12,,,59,127
19053,note_on,323,0,0,,4,,,76,127
19368,note_off,315,0,0,,12,,,59,127
19368,note_off,0,0,0,,4,,,52,127
19373,note_on,5,0,0,,12,,,59,127
19373,note_on,0,0,0,,0,,,48,127
19533,note_on,160,0,0,,0,,,72,127
19693,note_on,160,0,0,,4,,,64,127
19696,note_off,3,0,0,,0,,,72,127
20011,note_off,315,0,0,,0,,,48,127
20011,note_off,0,0,0,,12,,,59,127
20013,note_on,2,0,0,,10,,,57,127
20013,note_on,0,0,0,,0,,,48,127
20053,note_off,40,0,0,,4,,,76,127
20260,note_off,207,0,0,,4,,,64,127
20333,note_on,73,0,0,,4,,,76,127
20651,note_off,318,0,0,,0,,,48,127
20651,note_off,0,0,0,,10,,,57,127
20653,note_on,2,0,0,,7,,,43,127
20653,note_on,0,0,0,,7,,,55,127
20813,note_on,160,0,0,,12,,,71,127
20973,note_on,160,0,0,,4,,,64,127
20976,note_off,3,0,0,,12,,,71,127
21291,note_off,315,0,0,,7,,,55,127
21291,note_off,0,0,0,,7,,,43,127
21293,note_on,2,0,0,,7,,,43,127
21293,note_on,0,0,0,,7,,,55,127
21333,note_off,40,0,0,,4,,,76,127
21540,note_off,207,0,0,,4,,,64,127
21613,note_on,73,0,0,,4,,,76,127
21931,note_off,318,0,0,,7,,,55,127
21931,note_off,0,0,0,,7,,,43,127
21933,note_on,2,0,0,,4,,,52,127
21933,note_on,0,0,0,,10,,,45,127
21933,note_on,0,0,0,,10,,,57,127
22093,note_on,160,0,0,,0,,,72,127
22253,note_on,160,0,0,,6,,,66,127
22256,note_off,3,0,0,,0,,,72,127
22571,note_off,315,0,0,,10,,,57,127
22571,note_off,0,0,0,,10,,,45,127
22571,note_off,0,0,0,,4,,,52,127
22573,note_on,2,0,0,,4,,,52,127
22573,note_on,0,0,0,,10,,,45,127
22573,note_on,0,0,0,,10,,,57,127
22613,note_off,40,0,0,,4,,,76,127
22820,note_off,207,0,0,,6,,,66,127
22893,note_on,73,0,0,,4,,,76,127
23211,note_off,318,0,0,,10,,,57,127
23211,note_off,0,0,0,,10,,,45,127
23211,note_off,0,0,0,,4,,,52,127
23213,note_on,2,0,0,,6,,,54,127
23213,note_on,0,0,0,,11,,,46,127
23213,note_on,0,0,0,,4,,,52,127
23373,note_on,160,0,0,,1,,,73,127
23533,note_on,160,0,0,,6,,,66,127
23536,note_off,3,0,0,,1,,,73,127
23851,note_off,315,0,0,,4,,,52,127
23851,note_off,0,0,0,,11,,,46,127
23851,note_off,0,0,0,,6,,,54,127
23853,note_on,2,0,0,,11,,,46,127
23853,note_on,0,0,0,,4,,,52,127
23853,note_on,0,0,0,,6,,,54,127
23893,note_off,40,0,0,,4,,,76,127
24125,note_off,232,0,0,,6,,,66,127
24175,note_on,50,0,0,,4,,,76,127
24492,note_off,317,0,0,,6,,,54,127
24492,note_off,0,0,0,,4,,,52,127
24492,note_off,0,0,0,,11,,,46,127
24495,note_on,3,0,0,,6,,,54,127
24495,note_on,0,0,0,,12,,,47,127
24655,note_on,160,0,0,,3,,,75,127
24658,note_off,3,0,0,,4,,,76,127
24815,note_on,157,0,0,,8,,,80,127
24838,note_off,23,0,0,,3,,,75,127
24975,note_on,137,0,0,,6,,,78,127
24978,note_off,3,0,0,,8,,,80,127
25133,note_off,155,0,0,,12,,,47,127
25133,note_off,0,0,0,,6,,,54,127
25135,note_on,2,0,0,,12,,,59,127
25135,note_on,0,0,0,,6,,,54,127
25135,note_on,0,0,0,,12,,,47,127
25275,note_off,140,0,0,,6,,,78,127
25295,note_on,20,0,0,,3,,,75,127
25455,note_on,160,0,0,,12,,,71,127
25478,note_off,23,0,0,,3,,,75,127
25615,note_on,137,0,0,,10,,,69,127
25618,note_off,3,0,0,,12,,,71,127
25773,note_off,155,0,0,,12,,,47,127
25773,note_off,0,0,0,,6,,,54,127
25773,note_off,0,0,0,,12,,,59,127
25775,note_on,2,0,0,,12,,,59,127
25775,note_on,0,0,0,,4,,,52,127
25915,note_off,140,0,0,,10,,,69,127
25935,note_on,20,0,0,,8,,,68,127
26095,note_on,160,0,0,,4,,,76,127
26118,note_off,23,0,0,,8,,,68,127
26255,note_on,137,0,0,,3,,,75,127
26258,note_off,3,0,0,,4,,,76,127
26413,note_off,155,0,0,,4,,,52,127
26413,note_off,0,0,0,,12,,,59,127
26415,note_on,2,0,0,,10,,,57,127
26415,note_on,0,0,0,,10,,,45,127
26555,note_off,140,0,0,,3,,,75,127
26575,note_on,20,0,0,,1,,,73,127
26735,note_on,160,0,0,,12,,,71,127
26738,note_off,3,0,0,,1,,,73,127
26895,note_on,157,0,0,,10,,,69,127
26898,note_off,3,0,0,,12,,,71,127
27053,note_off,155,0,0,,10,,,45,127
27053,note_off,0,0,0,,10,,,57,127
27055,note_on,2,0,0,,12,,,59,127
27055,note_on,0,0,0,,12,,,47,127
27170,note_off,115,0,0,,10,,,69,127
27215,note_on,45,0,0,,8,,,68,127
27375,note_on,160,0,0,,6,,,66,127
27378,note_off,3,0,0,,8,,,68,127
27535,note_on,157,0,0,,4,,,64,127
27538,note_off,3,0,0,,6,,,66,127
27693,note_off,155,0,0,,12,,,47,127
27693,note_off,0,0,0,,12,,,59,127
27695,note_on,2,0,0,,8,,,68,127
27695,note_on,0,0,0,,12,,,59,127
27695,note_on,0,0,0,,12,,,47,127
27698,note_off,3,0,0,,4,,,64,127
27775,note_off,77,0,0,,8,,,68,127
27775,note_on,0,0,0,,6,,,66,127
27855,note_off,80,0,0,,6,,,66,127
27855,note_on,0,0,0,,8,,,68,127
27935,note_off,80,0,0,,8,,,68,127
27935,note_on,0,0,0,,6,,,66,127
28015,note_off,80,0,0,,6,,,66,127
28015,note_on,0,0,0,,8,,,68,127
28095,note_off,80,0,0,,8,,,68,127
28095,note_on,0,0,0,,6,,,66,127
28175,note_off,80,0,0,,6,,,66,127
28175,note_on,0,0,0,,4,,,64,127
28255,note_on,80,0,0,,6,,,66,127
28258,note_off,3,0,0,,4,,,64,127
28333,note_off,75,0,0,,12,,,47,127
28333,note_off,0,0,0,,12,,,59,127
28335,note_on,2,0,0,,4,,,64,127
28335,note_on,0,0,0,,12,,,59,127
28335,note_on,0,0,0,,0,,,48,127
28338,note_off,3,0,0,,6,,,66,127
28498,note_on,160,0,0,,12,,,71,127
28651,note_off,153,0,0,,4,,,64,127
28658,note_on,7,0,0,,10,,,69,127
28661,note_off,3,0,0,,12,,,71,127
28818,note_on,157,0,0,,8,,,68,127
28821,note_off,3,0,0,,10,,,69,127
28973,note_off,152,0,0,,0,,,48,127
28973,note_off,0,0,0,,12,,,59,127
28978,note_on,5,0,0,,0,,,48,127
28978,note_on,0,0,0,,10,,,57,127
29118,note_off,140,0,0,,8,,,68,127
29138,note_on,20,0,0,,10,,,69,127
29298,note_on,160,0,0,,8,,,68,127
29301,note_off,3,0,0,,10,,,69,127
29458,note_on,157,0,0,,10,,,69,127
29461,note_off,3,0,0,,8,,,68,127
29616,note_off,155,0,0,,10,,,57,127
29616,note_off,0,0,0,,0,,,48,127
29618,note_on,2,0,0,,3,,,51,127
29618,note_on,0,0,0,,12,,,59,127
29741,note_off,123,0,0,,10,,,69,127
29778,note_on,37,0,0,,1,,,73,127
29938,note_on,160,0,0,,12,,,71,127
29941,note_off,3,0,0,,1,,,73,127
30098,note_on,157,0,0,,11,,,70,127
30101,note_off,3,0,0,,12,,,71,127
30256,note_off,155,0,0,,12,,,59,127
30256,note_off,0,0,0,,3,,,51,127
30258,note_on,2,0,0,,12,,,59,127
30258,note_on,0,0,0,,3,,,51,127
30398,note_off,140,0,0,,11,,,70,127
30418,note_on,20,0,0,,12,,,71,127
30578,note_on,160,0,0,,11,,,70,127
30581,note_off,3,0,0,,12,,,71,127
30738,note_on,157,0,0,,12,,,71,127
30741,note_off,3,0,0,,11,,,70,127
30879,note_off,138,0,0,,12,,,71,127
30896,note_off,17,0,0,,3,,,51,127
30896,note_off,0,0,0,,12,,,59,127
30899,note_on,3,0,0,,10,,,81,127
30899,note_on,0,0,0,,12,,,59,127
30899,note_on,0,0,0,,4,,,52,127
31059,note_on,160,0,0,,8,,,80,127
31062,note_off,3,0,0,,10,,,81,127
31219,note_on,157,0,0,,6,,,78,127
31222,note_off,3,0,0,,8,,,80,127
31379,note_on,157,0,0,,4,,,76,127
31382,note_off,3,0,0,,6,,,78,127
31537,note_off,155,0,0,,4,,,52,127
31537,note_off,0,0,0,,12,,,59,127
31539,note_on,2,0,0,,0,,,72,127
31539,note_on,0,0,0,,10,,,45,127
31539,note_on,0,0,0,,10,,,57,127
31542,note_off,3,0,0,,4,,,76,127
31699,note_on,157,0,0,,1,,,73,127
31702,note_off,3,0,0,,0,,,72,127
31859,note_on,157,0,0,,4,,,76,127
31862,note_off,3,0,0,,1,,,73,127
32019,note_on,157,0,0,,4,,,64,127
32176,note_off,157,0,0,,4,,,76,127
32178,note_off,2,0,0,,4,,,64,127
32178,note_off,0,0,0,,10,,,57,127
32178,note_off,0,0,0,,10,,,45,127
32180,note_on,2,0,0,,8,,,68,127
32180,note_on,0,0,0,,4,,,64,127
32180,note_on,0,0,0,,12,,,59,127
32180,note_on,0,0,0,,12,,,47,127
32817,note_off,637,0,0,,8,,,68,127
32819,note_off,2,0,0,,12,,,47,127
32819,note_off,0,0,0,,12,,,59,127
32819,note_off,0,0,0,,4,,,64,127
32821,note_on,2,0,0,,8,,,68,127
32821,note_on,0,0,0,,3,,,63,127
32821,note_on,0,0,0,,10,,,57,127
32821,note_on,0,0,0,,6,,,54,127
32821,note_on,0,0,0,,12,,,47,127
32821,note_on,0,0,0,,12,,,59,127
32901,note_off,80,0,0,,8,,,68,127
32901,note_on,0,0,0,,6,,,66,127
32981,note_off,80,0,0,,6,,,66,127
32981,note_on,0,0,0,,8,,,68,127
33061,note_off,80,0,0,,8,,,68,127
33061,note_on,0,0,0,,6,,,66,127
33141,note_off,80,0,0,,6,,,66,127
33141,note_on,0,0,0,,8,,,68,127
33221,note_off,80,0,0,,8,,,68,127
33221,note_on,0,0,0,,6,,,66,127
33301,note_off,80,0,0,,6,,,66,127
33301,note_on,0,0,0,,4,,,64,127
33381,note_off,80,0,0,,4,,,64,127
33381,note_on,0,0,0,,6,,,66,127
33459,note_off,78,0,0,,12,,,59,127
33459,note_off,0,0,0,,12,,,47,127
33459,note_off,0,0,0,,6,,,54,127
33459,note_off,0,0,0,,10,,,57,127
33459,note_off,0,0,0,,3,,,63,127
33461,note_off,2,0,0,,6,,,66,127
33461,note_on,0,0,0,,4,,,64,127
33461,note_on,0,0,0,,4,,,52,127
34421,note_off,960,0,0,,4,,,64,127
34741,note_off,320,0,0,,4,,,52,127
34801,note_on,60,0,0,,12,,,47,127
35441,note_on,640,0,0,,12,,,59,127
35441,note_on,0,0,0,,12,,,71,127
35501,note_off,60,0,0,,12,,,47,127
36079,note_off,578,0,0,,12,,,71,127
36079,note_off,0,0,0,,12,,,59,127
36081,note_on,2,0,0,,7,,,55,127
36081,note_on,0,0,0,,1,,,73,127
36161,note_off,80,0,0,,1,,,73,127
36161,note_on,0,0,0,,12,,,71,127
36241,note_off,80,0,0,,12,,,71,127
36241,note_on,0,0,0,,1,,,73,127
36321,note_off,80,0,0,,1,,,73,127
36321,note_on,0,0,0,,12,,,71,127
36401,note_off,80,0,0,,12,,,71,127
36401,note_on,0,0,0,,1,,,73,127
36481,note_off,80,0,0,,1,,,73,127
36481,note_on,0,0,0,,12,,,71,127
36561,note_off,80,0,0,,12,,,71,127
36561,note_on,0,0,0,,1,,,73,127
36641,note_off,80,0,0,,1,,,73,127
36641,note_on,0,0,0,,12,,,71,127
36719,note_off,78,0,0,,7,,,55,127
36721,note_off,2,0,0,,12,,,71,127
36721,note_on,0,0,0,,4,,,52,127
36721,note_on,0,0,0,,1,,,73,127
36801,note_off,80,0,0,,1,,,73,127
36801,note_on,0,0,0,,12,,,71,127
36881,note_off,80,0,0,,12,,,71,127
36881,note_on,0,0,0,,1,,,73,127
36961,note_off,80,0,0,,1,,,73,127
36961,note_on,0,0,0,,12,,,71,127
37041,note_off,80,0,0,,12,,,71,127
37041,note_on,0,0,0,,1,,,73,127
37201,note_on,160,0,0,,2,,,74,127
37204,note_off,3,0,0,,1,,,73,127
37359,note_off,155,0,0,,4,,,52,127
37361,note_on,2,0,0,,2,,,50,127
37361,note_on,0,0,0,,12,,,71,127
37364,note_off,3,0,0,,2,,,74,127
37684,note_on,320,0,0,,12,,,83,127
37994,note_off,310,0,0,,12,,,71,127
37999,note_off,5,0,0,,2,,,50,127
38001,note_off,2,0,0,,12,,,83,127
38001,note_on,0,0,0,,12,,,59,127
38001,note_on,0,0,0,,2,,,50,127
38161,note_on,160,0,0,,10,,,81,127
38321,note_on,160,0,0,,8,,,80,127
38324,note_off,3,0,0,,10,,,81,127
38481,note_on,157,0,0,,6,,,78,127
38484,note_off,3,0,0,,8,,,80,127
38639,note_off,155,0,0,,2,,,50,127
38639,note_off,0,0,0,,12,,,59,127
38641,note_on,2,0,0,,12,,,59,127
38641,note_on,0,0,0,,1,,,49,127
38781,note_off,140,0,0,,6,,,78,127
38801,note_on,20,0,0,,5,,,77,127
38961,note_on,160,0,0,,8,,,80,127
38964,note_off,3,0,0,,5,,,77,127
39121,note_on,157,0,0,,2,,,74,127
39124,note_off,3,0,0,,8,,,80,127
39279,note_off,155,0,0,,1,,,49,127
39279,note_off,0,0,0,,12,,,59,127
39281,note_on,2,0,0,,12,,,59,127
39281,note_on,0,0,0,,1,,,49,127
39429,note_off,148,0,0,,2,,,74,127
39441,note_on,12,0,0,,1,,,73,127
39599,note_off,158,0,0,,1,,,73,127
39601,note_on,2,0,0,,1,,,73,127
39761,note_on,160,0,0,,12,,,71,127
39764,note_off,3,0,0,,1,,,73,127
39919,note_off,155,0,0,,1,,,49,127
39919,note_off,0,0,0,,12,,,59,127
39922,note_on,3,0,0,,7,,,55,127
39922,note_on,0,0,0,,1,,,49,127
40027,note_off,105,0,0,,12,,,71,127
40082,note_on,55,0,0,,11,,,70,127
40242,note_on,160,0,0,,1,,,73,127
40245,note_off,3,0,0,,11,,,70,127
40402,note_on,157,0,0,,4,,,76,127
40405,note_off,3,0,0,,1,,,73,127
40560,note_off,155,0,0,,1,,,49,127
40560,note_off,0,0,0,,7,,,55,127
40562,note_on,2,0,0,,7,,,79,127
40562,note_on,0,0,0,,1,,,49,127
40562,note_on,0,0,0,,7,,,55,127
40565,note_off,3,0,0,,4,,,76,127
40722,note_on,157,0,0,,7,,,67,127
40879,note_off,157,0,0,,7,,,79,127
40882,note_on,3,0,0,,1,,,73,127
40885,note_off,3,0,0,,7,,,67,127
41042,note_on,157,0,0,,4,,,76,127
41045,note_off,3,0,0,,1,,,73,127
41200,note_off,155,0,0,,7,,,55,127
41200,note_off,0,0,0,,1,,,49,127
41202,note_on,2,0,0,,7,,,79,127
41202,note_on,0,0,0,,7,,,55,127
41202,note_on,0,0,0,,12,,,47,127
41205,note_off,3,0,0,,4,,,76,127
41362,note_on,157,0,0,,7,,,67,127
41519,note_off,157,0,0,,7,,,79,127
41522,note_on,3,0,0,,1,,,73,127
41525,note_off,3,0,0,,7,,,67,127
41682,note_on,157,0,0,,4,,,76,127
41685,note_off,3,0,0,,1,,,73,127
41840,note_off,155,0,0,,12,,,47,127
41840,note_off,0,0,0,,7,,,55,127
41842,note_on,2,0,0,,7,,,79,127
41842,note_on,0,0,0,,7,,,55,127
41842,note_on,0,0,0,,12,,,47,127
41845,note_off,3,0,0,,4,,,76,127
42002,note_on,157,0,0,,7,,,67,127
42159,note_off,157,0,0,,7,,,79,127
42162,note_on,3,0,0,,1,,,73,127
42165,note_off,3,0,0,,7,,,67,127
42322,note_on,157,0,0,,4,,,76,127
42325,note_off,3,0,0,,1,,,73,127
42480,note_off,155,0,0,,12,,,47,127
42480,note_off,0,0,0,,7,,,55,127
42482,note_on,2,0,0,,7,,,79,127
42482,note_on,0,0,0,,10,,,45,127
42482,note_on,0,0,0,,7,,,55,127
42485,note_off,3,0,0,,4,,,76,127
42642,note_off,157,0,0,,7,,,79,127
42642,note_on,0,0,0,,7,,,67,127
42802,note_on,160,0,0,,1,,,73,127
42805,note_off,3,0,0,,7,,,67,127
42962,note_on,157,0,0,,4,,,76,127
42965,note_off,3,0,0,,1,,,73,127
43120,note_off,155,0,0,,7,,,55,127
43120,note_off,0,0,0,,10,,,45,127
43122,note_on,2,0,0,,7,,,79,127
43122,note_on,0,0,0,,7,,,55,127
43122,note_on,0,0,0,,10,,,45,127
43125,note_off,3,0,0,,4,,,76,127
43282,note_on,157,0,0,,5,,,77,127
43285,note_off,3,0,0,,7,,,79,127
43440,note_off,155,0,0,,5,,,77,127
43442,note_on,2,0,0,,5,,,77,127
43602,note_on,160,0,0,,4,,,76,127
43605,note_off,3,0,0,,5,,,77,127
43760,note_off,155,0,0,,10,,,45,127
43760,note_off,0,0,0,,7,,,55,127
43762,note_on,2,0,0,,2,,,74,127
43762,note_on,0,0,0,,5,,,53,127
43762,note_on,0,0,0,,10,,,45,127
43762,note_on,0,0,0,,10,,,57,127
43765,note_off,3,0,0,,4,,,76,127
43922,note_on,157,0,0,,5,,,65,127
43945,note_off,23,0,0,,2,,,74,127
44082,note_on,137,0,0,,10,,,69,127
44085,note_off,3,0,0,,5,,,65,127
44242,note_on,157,0,0,,2,,,74,127
44245,note_off,3,0,0,,10,,,69,127
44400,note_off,155,0,0,,10,,,57,127
44400,note_off,0,0,0,,10,,,45,127
44400,note_off,0,0,0,,5,,,53,127
44402,note_on,2,0,0,,5,,,77,127
44402,note_on,0,0,0,,10,,,57,127
44402,note_on,0,0,0,,10,,,45,127
44405,note_off,3,0,0,,2,,,74,127
44562,note_on,157,0,0,,4,,,76,127
44565,note_off,3,0,0,,5,,,77,127
44720,note_off,155,0,0,,4,,,76,127
44722,note_on,2,0,0,,4,,,76,127
44882,note_on,160,0,0,,2,,,74,127
44885,note_off,3,0,0,,4,,,76,127
45040,note_off,155,0,0,,10,,,45,127
45040,note_off,0,0,0,,10,,,57,127
45043,note_on,3,0,0,,12,,,47,127
45043,note_on,0,0,0,,8,,,56,127
45121,note_off,78,0,0,,2,,,74,127
45203,note_on,82,0,0,,5,,,65,127
45363,note_on,160,0,0,,12,,,71,127
45366,note_off,3,0,0,,5,,,65,127
45523,note_on,157,0,0,,2,,,74,127
45526,note_off,3,0,0,,12,,,71,127
45681,note_off,155,0,0,,8,,,56,127
45681,note_off,0,0,0,,12,,,47,127
45683,note_on,2,0,0,,12,,,47,127
45683,note_on,0,0,0,,8,,,56,127
45683,note_on,0,0,0,,5,,,77,127
45686,note_off,3,0,0,,2,,,74,127
45843,note_on,157,0,0,,4,,,76,127
45846,note_off,3,0,0,,5,,,77,127
46001,note_off,155,0,0,,4,,,76,127
46003,note_on,2,0,0,,4,,,76,127
46163,note_on,160,0,0,,2,,,74,127
46166,note_off,3,0,0,,4,,,76,127
46296,note_off,130,0,0,,2,,,74,127
46321,note_off,25,0,0,,8,,,56,127
46321,note_off,0,0,0,,12,,,47,127
46324,note_on,3,0,0,,7,,,67,127
46324,note_on,0,0,0,,1,,,49,127
46324,note_on,0,0,0,,10,,,57,127
46324,note_on,0,0,0,,7,,,55,127
46484,note_on,160,0,0,,1,,,73,127
46564,note_off,80,0,0,,7,,,67,127
46644,note_on,80,0,0,,4,,,76,127
46647,note_off,3,0,0,,1,,,73,127
46804,note_on,157,0,0,,7,,,79,127
46807,note_off,3,0,0,,4,,,76,127
46962,note_off,155,0,0,,7,,,55,127
46962,note_off,0,0,0,,10,,,57,127
46962,note_off,0,0,0,,1,,,49,127
46964,note_on,2,0,0,,7,,,55,127
46964,note_on,0,0,0,,1,,,49,127
46964,note_on,0,0,0,,10,,,57,127
47124,note_on,160,0,0,,5,,,77,127
47127,note_off,3,0,0,,7,,,79,127
47282,note_off,155,0,0,,5,,,77,127
47284,note_on,2,0,0,,5,,,77,127
47444,note_on,160,0,0,,4,,,76,127
47447,note_off,3,0,0,,5,,,77,127
47572,note_off,125,0,0,,4,,,76,127
47602,note_off,30,0,0,,10,,,57,127
47602,note_off,0,0,0,,1,,,49,127
47602,note_off,0,0,0,,7,,,55,127
47607,note_on,5,0,0,,2,,,50,127
47607,note_on,0,0,0,,10,,,57,127
47607,note_on,0,0,0,,8,,,80,127
47767,note_on,160,0,0,,10,,,81,127
47790,note_off,23,0,0,,8,,,80,127
47927,note_on,137,0,0,,5,,,77,127
47930,note_off,3,0,0,,10,,,81,127
48087,note_on,157,0,0,,2,,,74,127
48090,note_off,3,0,0,,5,,,77,127
48245,note_off,155,0,0,,10,,,57,127
48245,note_off,0,0,0,,2,,,50,127
48247,note_on,2,0,0,,2,,,50,127
48247,note_on,0,0,0,,10,,,57,127
48395,note_off,148,0,0,,2,,,74,127
48407,note_on,12,0,0,,0,,,72,127
48565,note_off,158,0,0,,0,,,72,127
48567,note_on,2,0,0,,0,,,72,127
48727,note_on,160,0,0,,12,,,71,127
48730,note_off,3,0,0,,0,,,72,127
48843,note_off,113,0,0,,12,,,71,127
48885,note_off,42,0,0,,10,,,57,127
48885,note_off,0,0,0,,2,,,50,127
48887,note_on,2,0,0,,12,,,59,127
48887,note_on,0,0,0,,3,,,51,127
48887,note_on,0,0,0,,10,,,57,127
48887,note_on,0,0,0,,8,,,80,127
49047,note_on,160,0,0,,10,,,81,127
49050,note_off,3,0,0,,8,,,80,127
49207,note_on,157,0,0,,12,,,71,127
49210,note_off,3,0,0,,10,,,81,127
49367,note_on,157,0,0,,0,,,72,127
49370,note_off,3,0,0,,12,,,71,127
49525,note_off,155,0,0,,10,,,57,127
49525,note_off,0,0,0,,3,,,51,127
49525,note_off,0,0,0,,12,,,59,127
49527,note_on,2,0,0,,10,,,57,127
49527,note_on,0,0,0,,12,,,59,127
49527,note_on,0,0,0,,3,,,51,127
49675,note_off,148,0,0,,0,,,72,127
49687,note_on,12,0,0,,3,,,75,127
49847,note_on,160,0,0,,4,,,76,127
49850,note_off,3,0,0,,3,,,75,127
50007,note_on,157,0,0,,10,,,69,127
50010,note_off,3,0,0,,4,,,76,127
50165,note_off,155,0,0,,3,,,51,127
50165,note_off,0,0,0,,12,,,59,127
50165,note_off,0,0,0,,10,,,57,127
50170,note_on,5,0,0,,12,,,59,127
50170,note_on,0,0,0,,4,,,52,127
50207,note_off,37,0,0,,10,,,69,127
50330,note_on,123,0,0,,6,,,66,127
50490,note_on,160,0,0,,8,,,68,127
50493,note_off,3,0,0,,6,,,66,127
50650,note_on,157,0,0,,10,,,69,127
50653,note_off,3,0,0,,8,,,68,127
50808,note_off,155,0,0,,4,,,52,127
50808,note_off,0,0,0,,12,,,59,127
50810,note_on,2,0,0,,12,,,71,127
50810,note_on,0,0,0,,12,,,59,127
50810,note_on,0,0,0,,4,,,52,127
50813,note_off,3,0,0,,10,,,69,127
50970,note_on,157,0,0,,1,,,73,127
50973,note_off,3,0,0,,12,,,71,127
51128,note_off,155,0,0,,1,,,73,127
51130,note_on,2,0,0,,1,,,73,127
51290,note_on,160,0,0,,2,,,74,127
51293,note_off,3,0,0,,1,,,73,127
51448,note_off,155,0,0,,4,,,52,127
51448,note_off,0,0,0,,12,,,59,127
51450,note_on,2,0,0,,10,,,45,127
51450,note_on,0,0,0,,10,,,57,127
51557,note_off,107,0,0,,2,,,74,127
51610,note_on,53,0,0,,12,,,71,127
51770,note_on,160,0,0,,1,,,73,127
51773,note_off,3,0,0,,12,,,71,127
51930,note_on,157,0,0,,2,,,74,127
51933,note_off,3,0,0,,1,,,73,127
52088,note_off,155,0,0,,2,,,74,127
52088,note_off,0,0,0,,10,,,57,127
52088,note_off,0,0,0,,10,,,45,127
52090,note_on,2,0,0,,2,,,74,127
52090,note_on,0,0,0,,10,,,45,127
52090,note_on,0,0,0,,10,,,57,127
52250,note_on,160,0,0,,3,,,75,127
52253,note_off,3,0,0,,2,,,74,127
52408,note_off,155,0,0,,3,,,75,127
52410,note_on,2,0,0,,3,,,75,127
52570,note_on,160,0,0,,4,,,76,127
52573,note_off,3,0,0,,3,,,75,127
52728,note_off,155,0,0,,10,,,57,127
52728,note_off,0,0,0,,10,,,45,127
52730,note_on,2,0,0,,2,,,50,127
52730,note_on,0,0,0,,10,,,57,127
52820,note_off,90,0,0,,4,,,76,127
52890,note_on,70,0,0,,1,,,73,127
53050,note_on,160,0,0,,2,,,74,127
53053,note_off,3,0,0,,1,,,73,127
53210,note_on,157,0,0,,4,,,76,127
53213,note_off,3,0,0,,2,,,74,127
53368,note_off,155,0,0,,4,,,76,127
53368,note_off,0,0,0,,10,,,57,127
53368,note_off,0,0,0,,2,,,50,127
53370,note_on,2,0,0,,4,,,76,127
53370,note_on,0,0,0,,10,,,57,127
53370,note_on,0,0,0,,2,,,50,127
53530,note_on,160,0,0,,5,,,77,127
53533,note_off,3,0,0,,4,,,76,127
53688,note_off,155,0,0,,5,,,77,127
53690,note_on,2,0,0,,5,,,77,127
53850,note_on,160,0,0,,6,,,78,127
53853,note_off,3,0,0,,5,,,77,127
53966,note_off,113,0,0,,6,,,78,127
54008,note_off,42,0,0,,2,,,50,127
54008,note_off,0,0,0,,10,,,57,127
54013,note_on,5,0,0,,10,,,57,127
54013,note_on,0,0,0,,2,,,50,127
54013,note_on,0,0,0,,2,,,86,127
54173,note_on,160,0,0,,1,,,85,127
54196,note_off,23,0,0,,2,,,86,127
54333,note_on,137,0,0,,12,,,83,127
54336,note_off,3,0,0,,1,,,85,127
54493,note_on,157,0,0,,10,,,81,127
54496,note_off,3,0,0,,12,,,83,127
54651,note_off,155,0,0,,2,,,50,127
54651,note_off,0,0,0,,10,,,57,127
54653,note_on,2,0,0,,2,,,62,127
54653,note_on,0,0,0,,2,,,50,127
54653,note_on,0,0,0,,6,,,78,127
54656,note_off,3,0,0,,10,,,81,127
54813,note_on,157,0,0,,12,,,83,127
54833,note_off,20,0,0,,6,,,78,127
54973,note_on,140,0,0,,8,,,80,127
54976,note_off,3,0,0,,12,,,83,127
55129,note_off,153,0,0,,8,,,80,127
55132,note_on,3,0,0,,2,,,74,127
55280,note_off,148,0,0,,2,,,74,127
55290,note_off,10,0,0,,2,,,50,127
55290,note_off,0,0,0,,2,,,62,127
55292,note_on,2,0,0,,1,,,61,127
55292,note_on,0,0,0,,4,,,52,127
55292,note_on,0,0,0,,10,,,57,127
55292,note_on,0,0,0,,10,,,69,127
55612,note_on,320,0,0,,12,,,71,127
55627,note_off,15,0,0,,10,,,69,127
55692,note_on,65,0,0,,10,,,69,127
55695,note_off,3,0,0,,12,,,71,127
55772,note_on,77,0,0,,8,,,68,127
55775,note_off,3,0,0,,10,,,69,127
55852,note_on,77,0,0,,10,,,69,127
55855,note_off,3,0,0,,8,,,68,127
55930,note_off,75,0,0,,10,,,57,127
55930,note_off,0,0,0,,4,,,52,127
55930,note_off,0,0,0,,1,,,61,127
55932,note_on,2,0,0,,12,,,59,127
55932,note_on,0,0,0,,4,,,52,127
55932,note_on,0,0,0,,1,,,73,127
55935,note_off,3,0,0,,10,,,69,127
56012,note_on,77,0,0,,12,,,71,127
56015,note_off,3,0,0,,1,,,73,127
56092,note_on,77,0,0,,1,,,73,127
56095,note_off,3,0,0,,12,,,71,127
56172,note_on,77,0,0,,12,,,71,127
56175,note_off,3,0,0,,1,,,73,127
56252,note_on,77,0,0,,1,,,73,127
56255,note_off,3,0,0,,12,,,71,127
56332,note_on,77,0,0,,12,,,71,127
56335,note_off,3,0,0,,1,,,73,127
56412,note_on,77,0,0,,10,,,69,127
56415,note_off,3,0,0,,12,,,71,127
56492,note_on,77,0,0,,8,,,68,127
56497,note_off,5,0,0,,10,,,69,127
56570,note_off,73,0,0,,4,,,52,127
56570,note_off,0,0,0,,12,,,59,127
56573,note_on,3,0,0,,10,,,69,127
56573,note_on,0,0,0,,10,,,57,127
56573,note_on,0,0,0,,6,,,54,127
56576,note_off,3,0,0,,8,,,68,127
56691,note_off,115,0,0,,10,,,69,127
56739,note_on,48,0,0,,4,,,76,127
56902,note_on,163,0,0,,2,,,74,127
56904,note_off,2,0,0,,4,,,76,127
57066,note_on,162,0,0,,1,,,73,127
57068,note_off,2,0,0,,2,,,74,127
57223,note_off,155,0,0,,6,,,54,127
57223,note_off,0,0,0,,10,,,57,127
57230,note_on,7,0,0,,6,,,54,127
57230,note_on,0,0,0,,10,,,57,127
57380,note_off,150,0,0,,1,,,73,127
57393,note_on,13,0,0,,2,,,74,127
57556,note_on,163,0,0,,1,,,73,127
57558,note_off,2,0,0,,2,,,74,127
57720,note_on,162,0,0,,2,,,74,127
57722,note_off,2,0,0,,1,,,73,127
57880,note_off,158,0,0,,10,,,57,127
57880,note_off,0,0,0,,6,,,54,127
57883,note_on,3,0,0,,8,,,56,127
57883,note_on,0,0,0,,12,,,59,127
58008,note_off,125,0,0,,2,,,74,127
58046,note_on,38,0,0,,6,,,78,127
58209,note_on,163,0,0,,4,,,76,127
58211,note_off,2,0,0,,6,,,78,127
58373,note_on,162,0,0,,3,,,75,127
58375,note_off,2,0,0,,4,,,76,127
58533,note_off,158,0,0,,12,,,59,127
58533,note_off,0,0,0,,8,,,56,127
58535,note_on,2,0,0,,8,,,56,127
58535,note_on,0,0,0,,12,,,59,127
58687,note_off,152,0,0,,3,,,75,127
58699,note_on,12,0,0,,4,,,76,127
58862,note_on,163,0,0,,3,,,75,127
58864,note_off,2,0,0,,4,,,76,127
59026,note_on,162,0,0,,4,,,76,127
59028,note_off,2,0,0,,3,,,75,127
59186,note_off,158,0,0,,12,,,59,127
59186,note_off,0,0,0,,8,,,56,127
59193,note_on,7,0,0,,10,,,57,127
59315,note_off,122,0,0,,4,,,76,127
59362,note_on,47,0,0,,2,,,86,127
59530,note_on,168,0,0,,1,,,85,127
59550,note_off,20,0,0,,2,,,86,127
59695,note_off,145,0,0,,1,,,85,127
59698,note_on,3,0,0,,10,,,81,127
59843,note_off,145,0,0,,10,,,57,127
59863,note_off,20,0,0,,10,,,81,127
59866,note_on,3,0,0,,5,,,77,127
59866,note_on,0,0,0,,2,,,50,127
59866,note_on,0,0,0,,2,,,62,127
60031,note_off,165,0,0,,5,,,77,127
60034,note_on,3,0,0,,6,,,78,127
60199,note_off,165,0,0,,6,,,78,127
60202,note_on,3,0,0,,12,,,83,127
60367,note_off,165,0,0,,12,,,83,127
60370,note_on,3,0,0,,10,,,81,127
60515,note_off,145,0,0,,2,,,62,127
60515,note_off,0,0,0,,2,,,50,127
60535,note_off,20,0,0,,10,,,81,127
60537,note_on,2,0,0,,10,,,69,127
60537,note_on,0,0,0,,4,,,52,127
60537,note_on,0,0,0,,1,,,61,127
60537,note_on,0,0,0,,10,,,57,127
60790,note_on,253,0,0,,12,,,71,127
60812,note_off,22,0,0,,10,,,69,127
60874,note_on,62,0,0,,10,,,69,127
60876,note_off,2,0,0,,12,,,71,127
60959,note_off,83,0,0,,10,,,69,127
60959,note_on,0,0,0,,8,,,68,127
61042,note_on,83,0,0,,10,,,69,127
61044,note_off,2,0,0,,8,,,68,127
61127,note_off,83,0,0,,10,,,69,127
61127,note_on,0,0,0,,12,,,71,127
61187,note_off,60,0,0,,10,,,57,127
61187,note_off,0,0,0,,1,,,61,127
61187,note_off,0,0,0,,4,,,52,127
61210,note_on,23,0,0,,1,,,73,127
61210,note_on,0,0,0,,4,,,52,127
61210,note_on,0,0,0,,12,,,59,127
61212,note_off,2,0,0,,12,,,71,127
61294,note_on,82,0,0,,12,,,71,127
61296,note_off,2,0,0,,1,,,73,127
61379,note_off,83,0,0,,12,,,71,127
61379,note_on,0,0,0,,1,,,73,127
61462,note_on,83,0,0,,12,,,71,127
61464,note_off,2,0,0,,1,,,73,127
61547,note_off,83,0,0,,12,,,71,127
61547,note_on,0,0,0,,1,,,73,127
61630,note_on,83,0,0,,12,,,71,127
61632,note_off,2,0,0,,1,,,73,127
61715,note_off,83,0,0,,12,,,71,127
61715,note_on,0,0,0,,1,,,73,127
61798,note_on,83,0,0,,12,,,71,127
61800,note_off,2,0,0,,1,,,73,127
61860,note_off,60,0,0,,12,,,59,127
61860,note_off,0,0,0,,4,,,52,127
61882,note_on,22,0,0,,10,,,69,127
61884,note_off,2,0,0,,12,,,71,127
61967,note_off,83,0,0,,10,,,69,127
61967,note_on,0,0,0,,12,,,71,127
62050,note_on,83,0,0,,10,,,69,127
62050,note_on,0,0,0,,10,,,45,127
62052,note_off,2,0,0,,12,,,71,127
64002,note_off,1950,0,0,,10,,,45,127
64002,note_off,0,0,0,,10,,,69,127
66048,end_of_track,2046,1,0,,,,,,
