tick,type,time,meta,track,program,channel,pitch,tempo,note,velocity
0,copyright,0,1,0,,,,,,
0,program_change,0,0,0,6,0,,,,
0,pitchwheel,0,0,0,,0,0,,,
0,program_change,0,0,0,6,1,,,,
0,pitchwheel,0,0,0,,1,-590,,,
0,program_change,0,0,0,6,2,,,,
0,pitchwheel,0,0,0,,2,-272,,,
0,program_change,0,0,0,6,3,,,,
0,pitchwheel,0,0,0,,3,-353,,,
0,program_change,0,0,0,6,4,,,,
0,pitchwheel,0,0,0,,4,-560,,,
0,program_change,0,0,0,6,5,,,,
0,pitchwheel,0,0,0,,5,-80,,,
0,program_change,0,0,0,6,6,,,,
0,pitchwheel,0,0,0,,6,-625,,,
0,program_change,0,0,0,6,7,,,,
0,pitchwheel,0,0,0,,7,-130,,,
0,program_change,0,0,0,6,8,,,,
0,pitchwheel,0,0,0,,8,-512,,,
0,program_change,0,0,0,6,10,,,,
0,pitchwheel,0,0,0,,10,-464,,,
0,program_change,0,0,0,6,11,,,,
0,pitchwheel,0,0,0,,11,-208,,,
0,program_change,0,0,0,6,12,,,,
0,pitchwheel,0,0,0,,12,-553,,,
0,set_tempo,0,1,0,,,,500000,,
107,note_on,107,0,0,,10,,,69,127
319,note_off,212,0,0,,10,,,69,127
320,note_on,1,0,0,,10,,,69,127
532,note_off,212,0,0,,10,,,69,127
533,note_on,1,0,0,,4,,,76,127
745,note_off,212,0,0,,4,,,76,127
746,note_on,1,0,0,,10,,,81,127
958,note_off,212,0,0,,10,,,81,127
959,note_on,1,0,0,,10,,,81,127
1171,note_off,212,0,0,,10,,,81,127
1172,note_on,1,0,0,,4,,,76,127
1372,note_off,200,0,0,,4,,,76,127
1385,note_on,13,0,0,,10,,,69,127
1597,note_off,212,0,0,,10,,,69,127
1598,note_on,1,0,0,,10,,,69,127
1810,note_off,212,0,0,,10,,,69,127
1811,note_on,1,0,0,,4,,,76,127
2023,note_off,212,0,0,,4,,,76,127
2024,note_on,1,0,0,,10,,,81,127
2236,note_off,212,0,0,,10,,,81,127
2237,note_on,1,0,0,,10,,,81,127
2449,note_off,212,0,0,,10,,,81,127
2450,note_on,1,0,0,,4,,,76,127
2639,note_off,189,0,0,,4,,,76,127
2663,note_on,24,0,0,,10,,,57,127
2663,note_on,0,0,0,,2,,,74,127
2715,note_off,52,0,0,,2,,,74,127
2716,note_on,1,0,0,,1,,,73,127
2768,note_off,52,0,0,,1,,,73,127
2769,note_on,1,0,0,,2,,,74,127
2821,note_off,52,0,0,,2,,,74,127
2822,note_on,1,0,0,,1,,,73,127
2874,note_off,52,0,0,,1,,,73,127
2874,note_off,0,0,0,,10,,,57,127
2875,note_on,1,0,0,,10,,,57,127
2875,note_on,0,0,0,,2,,,74,127
2927,note_off,52,0,0,,2,,,74,127
2928,note_on,1,0,0,,1,,,73,127
2980,note_off,52,0,0,,1,,,73,127
2981,note_on,1,0,0,,2,,,74,127
3033,note_off,52,0,0,,2,,,74,127
3034,note_on,1,0,0,,1,,,73,127
3086,note_off,52,0,0,,1,,,73,127
3086,note_off,0,0,0,,10,,,57,127
3087,note_on,1,0,0,,4,,,64,127
3087,note_on,0,0,0,,12,,,71,127
3299,note_off,212,0,0,,12,,,71,127
3299,note_off,0,0,0,,4,,,64,127
3300,note_on,1,0,0,,10,,,69,127
3300,note_on,0,0,0,,1,,,73,127
3512,note_off,212,0,0,,10,,,69,127
3513,note_on,1,0,0,,10,,,69,127
3700,note_off,187,0,0,,1,,,73,127
3726,note_off,26,0,0,,10,,,69,127
3727,note_on,1,0,0,,4,,,64,127
3727,note_on,0,0,0,,2,,,74,127
3927,note_off,200,0,0,,2,,,74,127
3939,note_off,12,0,0,,4,,,64,127
3940,note_on,1,0,0,,10,,,57,127
3940,note_on,0,0,0,,2,,,74,127
3992,note_off,52,0,0,,2,,,74,127
3993,note_on,1,0,0,,1,,,73,127
4045,note_off,52,0,0,,1,,,73,127
4046,note_on,1,0,0,,2,,,74,127
4098,note_off,52,0,0,,2,,,74,127
4099,note_on,1,0,0,,1,,,73,127
4151,note_off,52,0,0,,1,,,73,127
4151,note_off,0,0,0,,10,,,57,127
4152,note_on,1,0,0,,10,,,57,127
4152,note_on,0,0,0,,2,,,74,127
4204,note_off,52,0,0,,2,,,74,127
4205,note_on,1,0,0,,1,,,73,127
4257,note_off,52,0,0,,1,,,73,127
4258,note_on,1,0,0,,2,,,74,127
4310,note_off,52,0,0,,2,,,74,127
4311,note_on,1,0,0,,1,,,73,127
4363,note_off,52,0,0,,1,,,73,127
4363,note_off,0,0,0,,10,,,57,127
4364,note_on,1,0,0,,4,,,64,127
4364,note_on,0,0,0,,12,,,71,127
4576,note_off,212,0,0,,12,,,71,127
4576,note_off,0,0,0,,4,,,64,127
4577,note_on,1,0,0,,10,,,69,127
4577,note_on,0,0,0,,1,,,73,127
4789,note_off,212,0,0,,10,,,69,127
4790,note_on,1,0,0,,10,,,69,127
4977,note_off,187,0,0,,1,,,73,127
5003,note_off,26,0,0,,10,,,69,127
5004,note_on,1,0,0,,4,,,64,127
5004,note_on,0,0,0,,2,,,74,127
5204,note_off,200,0,0,,2,,,74,127
5216,note_off,12,0,0,,4,,,64,127
5217,note_on,1,0,0,,10,,,57,127
5217,note_on,0,0,0,,1,,,73,127
5429,note_off,212,0,0,,1,,,73,127
5429,note_off,0,0,0,,10,,,57,127
5430,note_on,1,0,0,,12,,,59,127
5430,note_on,0,0,0,,2,,,74,127
5642,note_off,212,0,0,,2,,,74,127
5642,note_off,0,0,0,,12,,,59,127
5643,note_on,1,0,0,,1,,,61,127
5643,note_on,0,0,0,,4,,,76,127
5855,note_off,212,0,0,,4,,,76,127
5855,note_off,0,0,0,,1,,,61,127
5856,note_on,1,0,0,,2,,,62,127
5856,note_on,0,0,0,,6,,,78,127
5962,note_off,106,0,0,,6,,,78,127
5963,note_on,1,0,0,,2,,,74,127
6069,note_off,106,0,0,,2,,,74,127
6070,note_on,1,0,0,,4,,,76,127
6176,note_off,106,0,0,,4,,,76,127
6177,note_on,1,0,0,,1,,,73,127
6283,note_off,106,0,0,,1,,,73,127
6283,note_off,0,0,0,,2,,,62,127
6284,note_on,1,0,0,,4,,,64,127
6284,note_on,0,0,0,,2,,,74,127
6390,note_off,106,0,0,,2,,,74,127
6391,note_on,1,0,0,,12,,,71,127
6497,note_off,106,0,0,,12,,,71,127
6497,note_off,0,0,0,,4,,,64,127
6498,note_on,1,0,0,,10,,,57,127
6498,note_on,0,0,0,,1,,,73,127
6710,note_off,212,0,0,,1,,,73,127
6710,note_off,0,0,0,,10,,,57,127
6711,note_on,1,0,0,,12,,,59,127
6711,note_on,0,0,0,,2,,,74,127
6923,note_off,212,0,0,,2,,,74,127
6923,note_off,0,0,0,,12,,,59,127
6924,note_on,1,0,0,,1,,,61,127
6924,note_on,0,0,0,,4,,,76,127
7136,note_off,212,0,0,,4,,,76,127
7136,note_off,0,0,0,,1,,,61,127
7137,note_on,1,0,0,,2,,,62,127
7137,note_on,0,0,0,,2,,,74,127
7243,note_off,106,0,0,,2,,,74,127
7244,note_on,1,0,0,,12,,,71,127
7350,note_off,106,0,0,,12,,,71,127
7350,note_off,0,0,0,,2,,,62,127
7351,note_on,1,0,0,,4,,,64,127
7351,note_on,0,0,0,,1,,,73,127
7457,note_off,106,0,0,,1,,,73,127
7458,note_on,1,0,0,,10,,,69,127
7564,note_off,106,0,0,,10,,,69,127
7564,note_off,0,0,0,,4,,,64,127
7565,note_on,1,0,0,,4,,,52,127
7565,note_on,0,0,0,,12,,,71,127
7671,note_off,106,0,0,,12,,,71,127
7672,note_on,1,0,0,,8,,,68,127
7778,note_off,106,0,0,,8,,,68,127
7778,note_off,0,0,0,,4,,,52,127
7779,note_on,1,0,0,,10,,,57,127
7779,note_on,0,0,0,,10,,,69,127
7991,note_off,212,0,0,,10,,,69,127
7991,note_off,0,0,0,,10,,,57,127
7992,note_on,1,0,0,,12,,,59,127
7992,note_on,0,0,0,,10,,,69,127
8204,note_off,212,0,0,,10,,,69,127
8204,note_off,0,0,0,,12,,,59,127
8205,note_on,1,0,0,,1,,,61,127
8205,note_on,0,0,0,,10,,,69,127
8417,note_off,212,0,0,,10,,,69,127
8417,note_off,0,0,0,,1,,,61,127
8418,note_on,1,0,0,,2,,,62,127
8418,note_on,0,0,0,,10,,,69,127
8524,note_off,106,0,0,,2,,,62,127
8525,note_on,1,0,0,,12,,,59,127
8631,note_off,106,0,0,,12,,,59,127
8631,note_off,0,0,0,,10,,,69,127
8632,note_on,1,0,0,,1,,,61,127
8632,note_on,0,0,0,,10,,,69,127
8738,note_off,106,0,0,,1,,,61,127
8739,note_on,1,0,0,,10,,,57,127
8845,note_off,106,0,0,,10,,,57,127
8846,note_on,1,0,0,,12,,,59,127
8846,note_on,0,0,0,,2,,,74,127
8952,note_off,106,0,0,,12,,,59,127
8953,note_off,1,0,0,,10,,,69,127
8953,note_on,0,0,0,,8,,,56,127
9059,note_off,106,0,0,,8,,,56,127
9059,note_off,0,0,0,,2,,,74,127
9060,note_on,1,0,0,,10,,,57,127
9060,note_on,0,0,0,,1,,,73,127
9272,note_off,212,0,0,,1,,,73,127
9272,note_off,0,0,0,,10,,,57,127
9273,note_on,1,0,0,,12,,,59,127
9273,note_on,0,0,0,,10,,,69,127
9485,note_off,212,0,0,,10,,,69,127
9485,note_off,0,0,0,,12,,,59,127
9486,note_on,1,0,0,,1,,,61,127
9486,note_on,0,0,0,,10,,,69,127
9698,note_off,212,0,0,,10,,,69,127
9698,note_off,0,0,0,,1,,,61,127
9699,note_on,1,0,0,,2,,,62,127
9699,note_on,0,0,0,,10,,,69,127
9805,note_off,106,0,0,,2,,,62,127
9806,note_on,1,0,0,,12,,,59,127
9912,note_off,106,0,0,,12,,,59,127
9912,note_off,0,0,0,,10,,,69,127
9913,note_on,1,0,0,,1,,,61,127
9913,note_on,0,0,0,,10,,,69,127
10019,note_off,106,0,0,,1,,,61,127
10020,note_on,1,0,0,,10,,,57,127
10126,note_off,106,0,0,,10,,,57,127
10127,note_on,1,0,0,,12,,,59,127
10127,note_on,0,0,0,,2,,,74,127
10233,note_off,106,0,0,,12,,,59,127
10234,note_off,1,0,0,,10,,,69,127
10234,note_on,0,0,0,,8,,,56,127
10340,note_off,106,0,0,,8,,,56,127
10340,note_off,0,0,0,,2,,,74,127
10341,note_on,1,0,0,,10,,,57,127
10341,note_on,0,0,0,,1,,,73,127
10554,note_on,213,0,0,,10,,,69,127
10574,note_off,20,0,0,,1,,,73,127
10732,note_off,158,0,0,,10,,,69,127
10752,note_off,20,0,0,,10,,,57,127
10768,note_on,16,0,0,,10,,,57,127
10768,note_on,0,0,0,,4,,,76,127
10980,note_off,212,0,0,,4,,,76,127
10980,note_off,0,0,0,,10,,,57,127
10981,note_on,1,0,0,,8,,,56,127
10981,note_on,0,0,0,,4,,,76,127
11194,note_on,213,0,0,,12,,,71,127
11247,note_off,53,0,0,,4,,,76,127
11406,note_off,159,0,0,,12,,,71,127
11406,note_off,0,0,0,,8,,,56,127
11407,note_on,1,0,0,,8,,,56,127
11407,note_on,0,0,0,,4,,,76,127
11619,note_off,212,0,0,,4,,,76,127
11619,note_off,0,0,0,,8,,,56,127
11620,note_on,1,0,0,,6,,,54,127
11620,note_on,0,0,0,,4,,,76,127
11833,note_on,213,0,0,,10,,,69,127
11886,note_off,53,0,0,,4,,,76,127
11938,note_off,52,0,0,,6,,,54,127
11939,note_on,1,0,0,,4,,,52,127
12045,note_off,106,0,0,,4,,,52,127
12045,note_off,0,0,0,,10,,,69,127
12046,note_on,1,0,0,,3,,,51,127
12046,note_on,0,0,0,,10,,,81,127
12152,note_off,106,0,0,,3,,,51,127
12153,note_on,1,0,0,,1,,,49,127
12259,note_off,106,0,0,,1,,,49,127
12259,note_off,0,0,0,,10,,,81,127
12260,note_on,1,0,0,,12,,,47,127
12260,note_on,0,0,0,,10,,,81,127
12472,note_off,212,0,0,,12,,,47,127
12473,note_on,1,0,0,,12,,,47,127
12473,note_on,0,0,0,,12,,,71,127
12526,note_off,53,0,0,,10,,,81,127
12685,note_off,159,0,0,,12,,,71,127
12685,note_off,0,0,0,,12,,,47,127
12686,note_on,1,0,0,,12,,,47,127
12686,note_on,0,0,0,,10,,,81,127
12898,note_off,212,0,0,,10,,,81,127
12898,note_off,0,0,0,,12,,,47,127
12899,note_on,1,0,0,,4,,,52,127
12899,note_on,0,0,0,,8,,,80,127
13112,note_on,213,0,0,,12,,,71,127
13165,note_off,53,0,0,,8,,,80,127
13324,note_off,159,0,0,,4,,,52,127
13325,note_on,1,0,0,,4,,,64,127
13325,note_on,0,0,0,,12,,,83,127
13432,note_off,107,0,0,,12,,,71,127
13538,note_off,106,0,0,,4,,,64,127
13539,note_on,1,0,0,,3,,,63,127
13742,note_off,203,0,0,,12,,,83,127
13751,note_off,9,0,0,,3,,,63,127
13752,note_on,1,0,0,,12,,,59,127
13752,note_on,0,0,0,,10,,,81,127
13858,note_off,106,0,0,,10,,,81,127
13859,note_on,1,0,0,,8,,,80,127
13965,note_off,106,0,0,,8,,,80,127
13965,note_off,0,0,0,,12,,,59,127
13966,note_on,1,0,0,,3,,,63,127
13966,note_on,0,0,0,,6,,,78,127
14072,note_off,106,0,0,,6,,,78,127
14073,note_on,1,0,0,,10,,,81,127
14179,note_off,106,0,0,,10,,,81,127
14179,note_off,0,0,0,,3,,,63,127
14180,note_on,1,0,0,,4,,,64,127
14180,note_on,0,0,0,,8,,,80,127
14393,note_on,213,0,0,,12,,,71,127
14446,note_off,53,0,0,,8,,,80,127
14605,note_off,159,0,0,,4,,,64,127
14606,note_on,1,0,0,,4,,,64,127
14606,note_on,0,0,0,,12,,,83,127
14818,note_off,212,0,0,,4,,,64,127
14819,note_on,1,0,0,,3,,,63,127
14926,note_off,107,0,0,,12,,,71,127
15023,note_off,97,0,0,,12,,,83,127
15032,note_off,9,0,0,,3,,,63,127
15033,note_on,1,0,0,,12,,,59,127
15033,note_on,0,0,0,,10,,,81,127
15139,note_off,106,0,0,,10,,,81,127
15140,note_on,1,0,0,,8,,,80,127
15246,note_off,106,0,0,,8,,,80,127
15246,note_off,0,0,0,,12,,,59,127
15247,note_on,1,0,0,,3,,,63,127
15247,note_on,0,0,0,,6,,,78,127
15353,note_off,106,0,0,,6,,,78,127
15354,note_on,1,0,0,,10,,,81,127
15460,note_off,106,0,0,,10,,,81,127
15460,note_off,0,0,0,,3,,,63,127
15461,note_on,1,0,0,,4,,,64,127
15461,note_on,0,0,0,,8,,,80,127
15674,note_on,213,0,0,,12,,,71,127
15745,note_off,71,0,0,,8,,,80,127
15872,note_off,127,0,0,,4,,,64,127
15886,note_off,14,0,0,,12,,,71,127
15887,note_on,1,0,0,,8,,,68,127
15887,note_on,0,0,0,,12,,,83,127
16099,note_off,212,0,0,,8,,,68,127
16100,note_on,1,0,0,,10,,,69,127
16253,note_off,153,0,0,,12,,,83,127
16313,note_on,60,0,0,,1,,,73,127
16516,note_off,203,0,0,,10,,,69,127
16525,note_off,9,0,0,,1,,,73,127
16526,note_on,1,0,0,,6,,,66,127
16526,note_on,0,0,0,,10,,,81,127
16738,note_off,212,0,0,,6,,,66,127
16739,note_on,1,0,0,,3,,,63,127
16915,note_off,176,0,0,,10,,,81,127
16953,note_on,38,0,0,,12,,,71,127
17156,note_off,203,0,0,,3,,,63,127
17165,note_off,9,0,0,,12,,,71,127
17166,note_on,1,0,0,,4,,,64,127
17166,note_on,0,0,0,,8,,,80,127
17378,note_off,212,0,0,,4,,,64,127
17379,note_on,1,0,0,,1,,,61,127
17555,note_off,176,0,0,,8,,,80,127
17593,note_on,38,0,0,,10,,,69,127
17796,note_off,203,0,0,,1,,,61,127
17805,note_off,9,0,0,,10,,,69,127
17806,note_on,1,0,0,,3,,,63,127
17806,note_on,0,0,0,,6,,,78,127
18018,note_off,212,0,0,,3,,,63,127
18019,note_on,1,0,0,,4,,,64,127
18161,note_off,142,0,0,,6,,,78,127
18232,note_on,71,0,0,,8,,,68,127
18435,note_off,203,0,0,,4,,,64,127
18444,note_off,9,0,0,,8,,,68,127
18445,note_on,1,0,0,,8,,,56,127
18445,note_on,0,0,0,,4,,,76,127
18657,note_off,212,0,0,,8,,,56,127
18658,note_on,1,0,0,,10,,,57,127
18764,note_off,106,0,0,,10,,,57,127
18765,note_on,1,0,0,,12,,,59,127
18862,note_off,97,0,0,,4,,,76,127
18871,note_off,9,0,0,,12,,,59,127
18872,note_on,1,0,0,,1,,,61,127
18872,note_on,0,0,0,,1,,,73,127
18978,note_off,106,0,0,,1,,,61,127
18979,note_on,1,0,0,,10,,,57,127
19085,note_off,106,0,0,,10,,,57,127
19085,note_off,0,0,0,,1,,,73,127
19086,note_on,1,0,0,,3,,,63,127
19086,note_on,0,0,0,,10,,,69,127
19192,note_off,106,0,0,,3,,,63,127
19193,note_on,1,0,0,,12,,,59,127
19299,note_off,106,0,0,,12,,,59,127
19299,note_off,0,0,0,,10,,,69,127
19300,note_on,1,0,0,,4,,,64,127
19300,note_on,0,0,0,,8,,,68,127
19512,note_off,212,0,0,,8,,,68,127
19512,note_off,0,0,0,,4,,,64,127
19513,note_on,1,0,0,,4,,,64,127
19513,note_on,0,0,0,,12,,,71,127
19725,note_off,212,0,0,,12,,,71,127
19725,note_off,0,0,0,,4,,,64,127
19726,note_on,1,0,0,,8,,,56,127
19726,note_on,0,0,0,,4,,,76,127
19938,note_off,212,0,0,,8,,,56,127
19939,note_on,1,0,0,,10,,,57,127
20045,note_off,106,0,0,,10,,,57,127
20046,note_on,1,0,0,,12,,,59,127
20143,note_off,97,0,0,,4,,,76,127
20152,note_off,9,0,0,,12,,,59,127
20153,note_on,1,0,0,,1,,,61,127
20153,note_on,0,0,0,,1,,,73,127
20259,note_off,106,0,0,,1,,,61,127
20260,note_on,1,0,0,,10,,,57,127
20366,note_off,106,0,0,,10,,,57,127
20366,note_off,0,0,0,,1,,,73,127
20367,note_on,1,0,0,,3,,,63,127
20367,note_on,0,0,0,,10,,,69,127
20473,note_off,106,0,0,,3,,,63,127
20474,note_on,1,0,0,,12,,,59,127
20567,note_off,93,0,0,,10,,,69,127
20574,note_off,7,0,0,,12,,,59,127
20581,note_on,7,0,0,,4,,,64,127
20581,note_on,0,0,0,,8,,,68,127
20794,note_on,213,0,0,,4,,,76,127
20900,note_off,106,0,0,,8,,,68,127
20900,note_off,0,0,0,,4,,,64,127
20901,note_on,1,0,0,,6,,,66,127
20901,note_on,0,0,0,,10,,,69,127
21007,note_off,106,0,0,,10,,,69,127
21007,note_off,0,0,0,,6,,,66,127
21008,note_on,1,0,0,,8,,,68,127
21008,note_on,0,0,0,,12,,,71,127
21114,note_off,106,0,0,,12,,,71,127
21114,note_off,0,0,0,,8,,,68,127
21115,note_off,1,0,0,,4,,,76,127
21115,note_on,0,0,0,,10,,,69,127
21115,note_on,0,0,0,,1,,,73,127
21221,note_off,106,0,0,,1,,,73,127
21221,note_off,0,0,0,,10,,,69,127
21222,note_on,1,0,0,,8,,,68,127
21222,note_on,0,0,0,,12,,,71,127
21435,note_on,213,0,0,,4,,,76,127
21541,note_off,106,0,0,,12,,,71,127
21541,note_off,0,0,0,,8,,,68,127
21542,note_on,1,0,0,,6,,,66,127
21542,note_on,0,0,0,,10,,,69,127
21648,note_off,106,0,0,,10,,,69,127
21648,note_off,0,0,0,,6,,,66,127
21649,note_on,1,0,0,,4,,,64,127
21649,note_on,0,0,0,,8,,,68,127
21755,note_off,106,0,0,,8,,,68,127
21755,note_off,0,0,0,,4,,,64,127
21756,note_off,1,0,0,,4,,,76,127
21756,note_on,0,0,0,,3,,,63,127
21756,note_on,0,0,0,,6,,,66,127
21862,note_off,106,0,0,,6,,,66,127
21862,note_off,0,0,0,,3,,,63,127
21863,note_on,1,0,0,,4,,,64,127
21863,note_on,0,0,0,,8,,,68,127
22076,note_on,213,0,0,,4,,,76,127
22182,note_off,106,0,0,,8,,,68,127
22182,note_off,0,0,0,,4,,,64,127
22183,note_on,1,0,0,,6,,,66,127
22183,note_on,0,0,0,,10,,,69,127
22289,note_off,106,0,0,,10,,,69,127
22289,note_off,0,0,0,,6,,,66,127
22290,note_on,1,0,0,,8,,,68,127
22290,note_on,0,0,0,,12,,,71,127
22396,note_off,106,0,0,,12,,,71,127
22396,note_off,0,0,0,,8,,,68,127
22397,note_off,1,0,0,,4,,,76,127
22397,note_on,0,0,0,,10,,,69,127
22397,note_on,0,0,0,,1,,,73,127
22503,note_off,106,0,0,,1,,,73,127
22503,note_off,0,0,0,,10,,,69,127
22504,note_on,1,0,0,,8,,,68,127
22504,note_on,0,0,0,,12,,,71,127
22717,note_on,213,0,0,,4,,,76,127
22823,note_off,106,0,0,,12,,,71,127
22823,note_off,0,0,0,,8,,,68,127
22824,note_on,1,0,0,,6,,,66,127
22824,note_on,0,0,0,,10,,,69,127
22930,note_off,106,0,0,,10,,,69,127
22930,note_off,0,0,0,,6,,,66,127
22931,note_on,1,0,0,,4,,,64,127
22931,note_on,0,0,0,,8,,,68,127
23037,note_off,106,0,0,,8,,,68,127
23037,note_off,0,0,0,,4,,,64,127
23038,note_off,1,0,0,,4,,,76,127
23038,note_on,0,0,0,,3,,,63,127
23038,note_on,0,0,0,,6,,,66,127
23138,note_off,100,0,0,,6,,,66,127
23141,note_off,3,0,0,,3,,,63,127
23144,note_on,3,0,0,,4,,,64,127
23144,note_on,0,0,0,,8,,,68,127
23250,note_off,106,0,0,,4,,,64,127
23251,note_on,1,0,0,,6,,,66,127
23355,note_off,104,0,0,,8,,,68,127
23356,note_off,1,0,0,,6,,,66,127
23357,note_on,1,0,0,,8,,,68,127
23357,note_on,0,0,0,,4,,,76,127
23463,note_off,106,0,0,,8,,,68,127
23464,note_on,1,0,0,,4,,,64,127
23570,note_off,106,0,0,,4,,,64,127
23570,note_off,0,0,0,,4,,,76,127
23571,note_on,1,0,0,,10,,,69,127
23571,note_on,0,0,0,,1,,,73,127
23677,note_off,106,0,0,,10,,,69,127
23678,note_on,1,0,0,,10,,,57,127
23784,note_off,106,0,0,,10,,,57,127
23784,note_off,0,0,0,,1,,,73,127
23785,note_on,1,0,0,,4,,,64,127
23785,note_on,0,0,0,,12,,,71,127
23891,note_off,106,0,0,,4,,,64,127
23892,note_on,1,0,0,,6,,,66,127
23998,note_off,106,0,0,,6,,,66,127
23999,note_on,1,0,0,,8,,,68,127
23999,note_on,0,0,0,,4,,,76,127
24052,note_off,53,0,0,,12,,,71,127
24104,note_off,52,0,0,,8,,,68,127
24105,note_on,1,0,0,,4,,,64,127
24211,note_off,106,0,0,,4,,,64,127
24211,note_off,0,0,0,,4,,,76,127
24212,note_on,1,0,0,,10,,,69,127
24212,note_on,0,0,0,,1,,,73,127
24318,note_off,106,0,0,,10,,,69,127
24319,note_on,1,0,0,,10,,,57,127
24425,note_off,106,0,0,,10,,,57,127
24425,note_off,0,0,0,,1,,,73,127
24426,note_on,1,0,0,,4,,,64,127
24426,note_on,0,0,0,,12,,,71,127
24532,note_off,106,0,0,,4,,,64,127
24533,note_on,1,0,0,,6,,,66,127
24639,note_off,106,0,0,,6,,,66,127
24640,note_on,1,0,0,,8,,,68,127
24640,note_on,0,0,0,,4,,,76,127
24693,note_off,53,0,0,,12,,,71,127
24745,note_off,52,0,0,,8,,,68,127
24746,note_on,1,0,0,,4,,,64,127
24852,note_off,106,0,0,,4,,,64,127
24852,note_off,0,0,0,,4,,,76,127
24853,note_on,1,0,0,,10,,,69,127
24853,note_on,0,0,0,,1,,,73,127
24959,note_off,106,0,0,,10,,,69,127
24960,note_on,1,0,0,,10,,,57,127
25031,note_off,71,0,0,,1,,,73,127
25060,note_off,29,0,0,,10,,,57,127
25067,note_on,7,0,0,,8,,,68,127
25067,note_on,0,0,0,,12,,,83,127
25174,note_on,107,0,0,,12,,,71,127
25227,note_off,53,0,0,,12,,,83,127
25279,note_off,52,0,0,,12,,,71,127
25279,note_off,0,0,0,,8,,,68,127
25280,note_on,1,0,0,,6,,,66,127
25280,note_on,0,0,0,,10,,,81,127
25387,note_on,107,0,0,,12,,,71,127
25440,note_off,53,0,0,,10,,,81,127
25492,note_off,52,0,0,,12,,,71,127
25492,note_off,0,0,0,,6,,,66,127
25493,note_on,1,0,0,,4,,,64,127
25493,note_on,0,0,0,,8,,,80,127
25600,note_on,107,0,0,,12,,,71,127
25653,note_off,53,0,0,,8,,,80,127
25705,note_off,52,0,0,,12,,,71,127
25705,note_off,0,0,0,,4,,,64,127
25706,note_on,1,0,0,,12,,,59,127
25706,note_on,0,0,0,,6,,,78,127
25813,note_on,107,0,0,,12,,,71,127
25866,note_off,53,0,0,,6,,,78,127
25918,note_off,52,0,0,,12,,,71,127
25918,note_off,0,0,0,,12,,,59,127
25919,note_on,1,0,0,,12,,,59,127
25919,note_on,0,0,0,,3,,,75,127
26025,note_off,106,0,0,,3,,,75,127
26026,note_on,1,0,0,,12,,,71,127
26132,note_off,106,0,0,,12,,,71,127
26132,note_off,0,0,0,,12,,,59,127
26133,note_on,1,0,0,,10,,,57,127
26133,note_on,0,0,0,,6,,,78,127
26239,note_off,106,0,0,,6,,,78,127
26240,note_on,1,0,0,,12,,,71,127
26346,note_off,106,0,0,,12,,,71,127
26346,note_off,0,0,0,,10,,,57,127
26347,note_on,1,0,0,,8,,,56,127
26347,note_on,0,0,0,,12,,,83,127
26453,note_off,106,0,0,,12,,,83,127
26454,note_on,1,0,0,,12,,,71,127
26560,note_off,106,0,0,,12,,,71,127
26560,note_off,0,0,0,,8,,,56,127
26561,note_on,1,0,0,,6,,,54,127
26561,note_on,0,0,0,,10,,,81,127
26667,note_off,106,0,0,,10,,,81,127
26668,note_on,1,0,0,,12,,,71,127
26774,note_off,106,0,0,,12,,,71,127
26774,note_off,0,0,0,,6,,,54,127
26775,note_on,1,0,0,,4,,,52,127
26775,note_on,0,0,0,,8,,,80,127
26881,note_off,106,0,0,,8,,,80,127
26882,note_on,1,0,0,,12,,,71,127
26988,note_off,106,0,0,,12,,,71,127
26988,note_off,0,0,0,,4,,,52,127
26989,note_on,1,0,0,,12,,,47,127
26989,note_on,0,0,0,,6,,,78,127
27095,note_off,106,0,0,,6,,,78,127
27096,note_on,1,0,0,,12,,,71,127
27202,note_off,106,0,0,,12,,,71,127
27202,note_off,0,0,0,,12,,,47,127
27203,note_on,1,0,0,,12,,,59,127
27203,note_on,0,0,0,,3,,,75,127
27309,note_off,106,0,0,,3,,,75,127
27310,note_on,1,0,0,,12,,,71,127
27416,note_off,106,0,0,,12,,,71,127
27416,note_off,0,0,0,,12,,,59,127
27417,note_on,1,0,0,,10,,,57,127
27417,note_on,0,0,0,,6,,,78,127
27523,note_off,106,0,0,,6,,,78,127
27524,note_on,1,0,0,,12,,,71,127
27630,note_off,106,0,0,,12,,,71,127
27630,note_off,0,0,0,,10,,,57,127
27631,note_on,1,0,0,,8,,,56,127
27631,note_on,0,0,0,,12,,,83,127
27738,note_on,107,0,0,,12,,,71,127
27831,note_off,93,0,0,,12,,,83,127
27843,note_off,12,0,0,,12,,,71,127
27843,note_off,0,0,0,,8,,,56,127
27844,note_on,1,0,0,,6,,,54,127
27844,note_on,0,0,0,,10,,,81,127
27951,note_on,107,0,0,,12,,,71,127
28044,note_off,93,0,0,,10,,,81,127
28056,note_off,12,0,0,,12,,,71,127
28056,note_off,0,0,0,,6,,,54,127
28057,note_on,1,0,0,,4,,,52,127
28057,note_on,0,0,0,,8,,,80,127
28164,note_on,107,0,0,,12,,,71,127
28246,note_off,82,0,0,,8,,,80,127
28269,note_off,23,0,0,,12,,,71,127
28269,note_off,0,0,0,,4,,,52,127
28270,note_on,1,0,0,,12,,,47,127
28270,note_on,0,0,0,,8,,,80,127
28322,note_off,52,0,0,,8,,,80,127
28323,note_on,1,0,0,,6,,,78,127
28375,note_off,52,0,0,,6,,,78,127
28376,note_on,1,0,0,,8,,,80,127
28428,note_off,52,0,0,,8,,,80,127
28429,note_on,1,0,0,,6,,,78,127
28481,note_off,52,0,0,,6,,,78,127
28482,note_on,1,0,0,,8,,,80,127
28534,note_off,52,0,0,,8,,,80,127
28535,note_on,1,0,0,,6,,,78,127
28587,note_off,52,0,0,,6,,,78,127
28588,note_on,1,0,0,,8,,,80,127
28640,note_off,52,0,0,,8,,,80,127
28641,note_on,1,0,0,,6,,,78,127
28854,note_off,213,0,0,,6,,,78,127
28906,note_off,52,0,0,,12,,,47,127
28987,note_on,81,0,0,,11,,,82,127
28987,note_on,0,0,0,,4,,,76,127
28987,note_on,0,0,0,,1,,,61,127
28987,note_on,0,0,0,,4,,,64,127
28987,note_on,0,0,0,,6,,,66,127
29199,note_off,212,0,0,,6,,,66,127
29199,note_off,0,0,0,,4,,,64,127
29199,note_off,0,0,0,,1,,,61,127
29200,note_on,1,0,0,,6,,,66,127
29200,note_on,0,0,0,,4,,,64,127
29200,note_on,0,0,0,,1,,,61,127
29412,note_off,212,0,0,,1,,,61,127
29412,note_off,0,0,0,,4,,,64,127
29412,note_off,0,0,0,,6,,,66,127
29413,note_on,1,0,0,,1,,,61,127
29413,note_on,0,0,0,,4,,,64,127
29413,note_on,0,0,0,,6,,,66,127
29625,note_off,212,0,0,,6,,,66,127
29625,note_off,0,0,0,,4,,,64,127
29625,note_off,0,0,0,,1,,,61,127
29625,note_off,0,0,0,,4,,,76,127
29625,note_off,0,0,0,,11,,,82,127
29626,note_on,1,0,0,,12,,,83,127
29626,note_on,0,0,0,,12,,,59,127
29626,note_on,0,0,0,,6,,,66,127
29732,note_off,106,0,0,,12,,,83,127
29733,note_on,1,0,0,,6,,,78,127
29839,note_off,106,0,0,,6,,,78,127
29840,note_on,1,0,0,,3,,,75,127
29946,note_off,106,0,0,,3,,,75,127
29947,note_on,1,0,0,,12,,,71,127
30053,note_off,106,0,0,,12,,,71,127
30054,note_on,1,0,0,,6,,,78,127
30160,note_off,106,0,0,,6,,,78,127
30161,note_on,1,0,0,,3,,,75,127
30267,note_off,106,0,0,,3,,,75,127
30267,note_off,0,0,0,,6,,,66,127
30267,note_off,0,0,0,,12,,,59,127
30268,note_on,1,0,0,,11,,,82,127
30268,note_on,0,0,0,,4,,,76,127
30268,note_on,0,0,0,,4,,,64,127
30268,note_on,0,0,0,,6,,,66,127
30268,note_on,0,0,0,,1,,,61,127
30480,note_off,212,0,0,,1,,,61,127
30480,note_off,0,0,0,,6,,,66,127
30480,note_off,0,0,0,,4,,,64,127
30481,note_on,1,0,0,,6,,,66,127
30481,note_on,0,0,0,,1,,,61,127
30481,note_on,0,0,0,,4,,,64,127
30693,note_off,212,0,0,,4,,,64,127
30693,note_off,0,0,0,,1,,,61,127
30693,note_off,0,0,0,,6,,,66,127
30694,note_on,1,0,0,,6,,,66,127
30694,note_on,0,0,0,,1,,,61,127
30694,note_on,0,0,0,,4,,,64,127
30906,note_off,212,0,0,,4,,,64,127
30906,note_off,0,0,0,,1,,,61,127
30906,note_off,0,0,0,,6,,,66,127
30906,note_off,0,0,0,,4,,,76,127
30906,note_off,0,0,0,,11,,,82,127
30907,note_on,1,0,0,,12,,,83,127
30907,note_on,0,0,0,,12,,,59,127
30907,note_on,0,0,0,,6,,,66,127
31013,note_off,106,0,0,,12,,,83,127
31014,note_on,1,0,0,,12,,,71,127
31120,note_off,106,0,0,,12,,,71,127
31121,note_on,1,0,0,,3,,,75,127
31227,note_off,106,0,0,,3,,,75,127
31228,note_on,1,0,0,,12,,,71,127
31334,note_off,106,0,0,,12,,,71,127
31335,note_on,1,0,0,,6,,,78,127
31441,note_off,106,0,0,,6,,,78,127
31442,note_on,1,0,0,,3,,,75,127
31548,note_off,106,0,0,,3,,,75,127
31548,note_off,0,0,0,,6,,,66,127
31548,note_off,0,0,0,,12,,,59,127
31549,note_on,1,0,0,,6,,,78,127
31549,note_on,0,0,0,,10,,,81,127
31549,note_on,0,0,0,,12,,,71,127
31549,note_on,0,0,0,,3,,,75,127
31549,note_on,0,0,0,,3,,,63,127
31549,note_on,0,0,0,,6,,,66,127
31549,note_on,0,0,0,,12,,,59,127
31761,note_off,212,0,0,,12,,,59,127
31761,note_off,0,0,0,,6,,,66,127
31761,note_off,0,0,0,,3,,,63,127
31762,note_on,1,0,0,,6,,,66,127
31762,note_on,0,0,0,,3,,,63,127
31762,note_on,0,0,0,,12,,,59,127
31974,note_off,212,0,0,,12,,,59,127
31974,note_off,0,0,0,,3,,,63,127
31974,note_off,0,0,0,,6,,,66,127
31975,note_on,1,0,0,,6,,,66,127
31975,note_on,0,0,0,,12,,,59,127
31975,note_on,0,0,0,,3,,,63,127
32187,note_off,212,0,0,,3,,,63,127
32187,note_off,0,0,0,,12,,,59,127
32187,note_off,0,0,0,,6,,,66,127
32187,note_off,0,0,0,,3,,,75,127
32187,note_off,0,0,0,,12,,,71,127
32187,note_off,0,0,0,,10,,,81,127
32187,note_off,0,0,0,,6,,,78,127
32188,note_on,1,0,0,,8,,,80,127
32188,note_on,0,0,0,,8,,,68,127
32188,note_on,0,0,0,,12,,,59,127
32188,note_on,0,0,0,,4,,,64,127
32294,note_off,106,0,0,,8,,,80,127
32295,note_on,1,0,0,,12,,,71,127
32401,note_off,106,0,0,,12,,,71,127
32402,note_on,1,0,0,,4,,,76,127
32508,note_off,106,0,0,,4,,,76,127
32509,note_on,1,0,0,,12,,,71,127
32615,note_off,106,0,0,,12,,,71,127
32616,note_on,1,0,0,,8,,,80,127
32722,note_off,106,0,0,,8,,,80,127
32723,note_on,1,0,0,,12,,,71,127
32829,note_off,106,0,0,,12,,,71,127
32829,note_off,0,0,0,,4,,,64,127
32829,note_off,0,0,0,,12,,,59,127
32829,note_off,0,0,0,,8,,,68,127
32830,note_on,1,0,0,,10,,,81,127
32830,note_on,0,0,0,,6,,,78,127
32830,note_on,0,0,0,,12,,,71,127
32830,note_on,0,0,0,,3,,,75,127
32830,note_on,0,0,0,,6,,,66,127
32830,note_on,0,0,0,,12,,,59,127
32830,note_on,0,0,0,,3,,,63,127
33042,note_off,212,0,0,,3,,,63,127
33042,note_off,0,0,0,,12,,,59,127
33042,note_off,0,0,0,,6,,,66,127
33043,note_on,1,0,0,,3,,,63,127
33043,note_on,0,0,0,,6,,,66,127
33043,note_on,0,0,0,,12,,,59,127
33255,note_off,212,0,0,,12,,,59,127
33255,note_off,0,0,0,,6,,,66,127
33255,note_off,0,0,0,,3,,,63,127
33256,note_on,1,0,0,,6,,,66,127
33256,note_on,0,0,0,,3,,,63,127
33256,note_on,0,0,0,,12,,,59,127
33468,note_off,212,0,0,,12,,,59,127
33468,note_off,0,0,0,,3,,,63,127
33468,note_off,0,0,0,,6,,,66,127
33468,note_off,0,0,0,,3,,,75,127
33468,note_off,0,0,0,,12,,,71,127
33468,note_off,0,0,0,,6,,,78,127
33468,note_off,0,0,0,,10,,,81,127
33469,note_on,1,0,0,,8,,,80,127
33469,note_on,0,0,0,,4,,,64,127
33469,note_on,0,0,0,,8,,,68,127
33469,note_on,0,0,0,,12,,,59,127
33575,note_off,106,0,0,,8,,,80,127
33576,note_on,1,0,0,,6,,,78,127
33682,note_off,106,0,0,,6,,,78,127
33683,note_on,1,0,0,,4,,,76,127
33789,note_off,106,0,0,,4,,,76,127
33790,note_on,1,0,0,,3,,,75,127
33896,note_off,106,0,0,,3,,,75,127
33897,note_on,1,0,0,,1,,,73,127
34003,note_off,106,0,0,,1,,,73,127
34004,note_on,1,0,0,,12,,,71,127
34110,note_off,106,0,0,,12,,,71,127
34110,note_off,0,0,0,,12,,,59,127
34110,note_off,0,0,0,,8,,,68,127
34110,note_off,0,0,0,,4,,,64,127
34111,note_on,1,0,0,,11,,,70,127
34111,note_on,0,0,0,,4,,,76,127
34111,note_on,0,0,0,,1,,,61,127
34111,note_on,0,0,0,,4,,,64,127
34111,note_on,0,0,0,,12,,,59,127
34323,note_off,212,0,0,,12,,,59,127
34323,note_off,0,0,0,,4,,,64,127
34323,note_off,0,0,0,,1,,,61,127
34324,note_on,1,0,0,,1,,,61,127
34324,note_on,0,0,0,,4,,,64,127
34324,note_on,0,0,0,,12,,,59,127
34536,note_off,212,0,0,,12,,,59,127
34536,note_off,0,0,0,,4,,,64,127
34536,note_off,0,0,0,,1,,,61,127
34537,note_on,1,0,0,,4,,,64,127
34537,note_on,0,0,0,,12,,,59,127
34537,note_on,0,0,0,,1,,,61,127
34749,note_off,212,0,0,,1,,,61,127
34749,note_off,0,0,0,,12,,,59,127
34749,note_off,0,0,0,,4,,,64,127
34749,note_off,0,0,0,,4,,,76,127
34749,note_off,0,0,0,,11,,,70,127
34750,note_on,1,0,0,,3,,,75,127
34750,note_on,0,0,0,,12,,,59,127
34750,note_on,0,0,0,,6,,,66,127
34856,note_off,106,0,0,,3,,,75,127
34857,note_on,1,0,0,,12,,,71,127
34963,note_off,106,0,0,,12,,,71,127
34964,note_on,1,0,0,,6,,,78,127
35070,note_off,106,0,0,,6,,,78,127
35071,note_on,1,0,0,,12,,,71,127
35177,note_off,106,0,0,,12,,,71,127
35178,note_on,1,0,0,,3,,,75,127
35284,note_off,106,0,0,,3,,,75,127
35285,note_on,1,0,0,,12,,,71,127
35391,note_off,106,0,0,,12,,,71,127
35391,note_off,0,0,0,,6,,,66,127
35391,note_off,0,0,0,,12,,,59,127
35392,note_on,1,0,0,,11,,,70,127
35392,note_on,0,0,0,,4,,,76,127
35392,note_on,0,0,0,,4,,,64,127
35392,note_on,0,0,0,,12,,,59,127
35392,note_on,0,0,0,,1,,,61,127
35604,note_off,212,0,0,,1,,,61,127
35604,note_off,0,0,0,,12,,,59,127
35604,note_off,0,0,0,,4,,,64,127
35605,note_on,1,0,0,,12,,,59,127
35605,note_on,0,0,0,,1,,,61,127
35605,note_on,0,0,0,,4,,,64,127
35817,note_off,212,0,0,,4,,,64,127
35817,note_off,0,0,0,,1,,,61,127
35817,note_off,0,0,0,,12,,,59,127
35818,note_on,1,0,0,,4,,,64,127
35818,note_on,0,0,0,,12,,,59,127
35818,note_on,0,0,0,,1,,,61,127
36030,note_off,212,0,0,,1,,,61,127
36030,note_off,0,0,0,,12,,,59,127
36030,note_off,0,0,0,,4,,,64,127
36030,note_off,0,0,0,,4,,,76,127
36030,note_off,0,0,0,,11,,,70,127
36031,note_on,1,0,0,,3,,,75,127
36031,note_on,0,0,0,,12,,,59,127
36031,note_on,0,0,0,,6,,,66,127
36137,note_off,106,0,0,,3,,,75,127
36138,note_on,1,0,0,,12,,,71,127
36244,note_off,106,0,0,,12,,,71,127
36245,note_on,1,0,0,,6,,,78,127
36351,note_off,106,0,0,,6,,,78,127
36352,note_on,1,0,0,,12,,,71,127
36458,note_off,106,0,0,,12,,,71,127
36459,note_on,1,0,0,,3,,,75,127
36565,note_off,106,0,0,,3,,,75,127
36566,note_on,1,0,0,,12,,,71,127
36672,note_off,106,0,0,,6,,,66,127
36672,note_off,0,0,0,,12,,,59,127
36673,note_on,1,0,0,,12,,,83,127
36673,note_on,0,0,0,,12,,,47,127
36676,note_off,3,0,0,,12,,,71,127
36779,note_on,103,0,0,,12,,,71,127
36883,note_off,104,0,0,,12,,,83,127
36884,note_off,1,0,0,,12,,,71,127
36885,note_on,1,0,0,,6,,,78,127
36991,note_off,106,0,0,,6,,,78,127
36992,note_on,1,0,0,,12,,,71,127
37098,note_off,106,0,0,,12,,,71,127
37099,note_on,1,0,0,,3,,,75,127
37205,note_off,106,0,0,,3,,,75,127
37206,note_on,1,0,0,,12,,,71,127
37312,note_off,106,0,0,,12,,,71,127
37312,note_off,0,0,0,,12,,,47,127
37313,note_on,1,0,0,,12,,,83,127
37313,note_on,0,0,0,,12,,,47,127
37420,note_on,107,0,0,,12,,,71,127
37524,note_off,104,0,0,,12,,,83,127
37525,note_off,1,0,0,,12,,,71,127
37526,note_on,1,0,0,,6,,,78,127
37632,note_off,106,0,0,,6,,,78,127
37633,note_on,1,0,0,,12,,,71,127
37739,note_off,106,0,0,,12,,,71,127
37740,note_on,1,0,0,,3,,,75,127
37846,note_off,106,0,0,,3,,,75,127
37847,note_on,1,0,0,,12,,,71,127
37953,note_off,106,0,0,,12,,,71,127
37953,note_off,0,0,0,,12,,,47,127
37954,note_on,1,0,0,,12,,,83,127
37954,note_on,0,0,0,,12,,,47,127
38061,note_on,107,0,0,,12,,,71,127
38165,note_off,104,0,0,,12,,,83,127
38166,note_off,1,0,0,,12,,,71,127
38167,note_on,1,0,0,,6,,,78,127
38273,note_off,106,0,0,,6,,,78,127
38274,note_on,1,0,0,,12,,,71,127
38380,note_off,106,0,0,,12,,,71,127
38381,note_on,1,0,0,,3,,,75,127
38487,note_off,106,0,0,,3,,,75,127
38488,note_on,1,0,0,,12,,,71,127
38594,note_off,106,0,0,,12,,,71,127
38594,note_off,0,0,0,,12,,,47,127
38595,note_on,1,0,0,,1,,,73,127
38595,note_on,0,0,0,,12,,,47,127
38647,note_off,52,0,0,,1,,,73,127
38648,note_on,1,0,0,,12,,,71,127
38700,note_off,52,0,0,,12,,,71,127
38701,note_on,1,0,0,,1,,,73,127
38753,note_off,52,0,0,,1,,,73,127
38754,note_on,1,0,0,,12,,,71,127
39372,note_off,618,0,0,,12,,,47,127
39421,note_off,49,0,0,,12,,,71,127
39679,note_on,258,0,0,,12,,,71,127
39891,note_off,212,0,0,,12,,,71,127
39892,note_on,1,0,0,,12,,,71,127
40105,note_on,213,0,0,,7,,,67,127
40158,note_off,53,0,0,,12,,,71,127
40317,note_off,159,0,0,,7,,,67,127
40318,note_on,1,0,0,,12,,,71,127
40318,note_on,0,0,0,,4,,,64,127
40530,note_off,212,0,0,,4,,,64,127
40530,note_off,0,0,0,,12,,,71,127
40531,note_on,1,0,0,,12,,,71,127
40531,note_on,0,0,0,,4,,,64,127
40744,note_on,213,0,0,,7,,,67,127
40797,note_off,53,0,0,,12,,,71,127
40956,note_off,159,0,0,,7,,,67,127
40956,note_off,0,0,0,,4,,,64,127
40957,note_on,1,0,0,,4,,,76,127
40957,note_on,0,0,0,,0,,,60,127
41169,note_off,212,0,0,,0,,,60,127
41169,note_off,0,0,0,,4,,,76,127
41170,note_on,1,0,0,,4,,,76,127
41170,note_on,0,0,0,,0,,,60,127
41383,note_on,213,0,0,,0,,,72,127
41436,note_off,53,0,0,,4,,,76,127
41595,note_off,159,0,0,,0,,,72,127
41595,note_off,0,0,0,,0,,,60,127
41596,note_on,1,0,0,,4,,,76,127
41596,note_on,0,0,0,,10,,,57,127
41808,note_off,212,0,0,,10,,,57,127
41808,note_off,0,0,0,,4,,,76,127
41809,note_on,1,0,0,,4,,,76,127
41809,note_on,0,0,0,,10,,,57,127
42022,note_on,213,0,0,,12,,,71,127
42075,note_off,53,0,0,,4,,,76,127
42234,note_off,159,0,0,,12,,,71,127
42234,note_off,0,0,0,,10,,,57,127
42235,note_on,1,0,0,,12,,,83,127
42235,note_on,0,0,0,,4,,,64,127
42235,note_on,0,0,0,,7,,,55,127
42447,note_off,212,0,0,,7,,,55,127
42447,note_off,0,0,0,,4,,,64,127
42447,note_off,0,0,0,,12,,,83,127
42448,note_on,1,0,0,,12,,,83,127
42448,note_on,0,0,0,,7,,,55,127
42448,note_on,0,0,0,,4,,,64,127
42661,note_on,213,0,0,,7,,,79,127
42768,note_off,107,0,0,,12,,,83,127
42874,note_off,106,0,0,,7,,,79,127
42874,note_off,0,0,0,,4,,,64,127
42874,note_off,0,0,0,,7,,,55,127
42875,note_on,1,0,0,,12,,,83,127
42875,note_on,0,0,0,,7,,,55,127
42875,note_on,0,0,0,,4,,,64,127
43087,note_off,212,0,0,,4,,,64,127
43087,note_off,0,0,0,,7,,,55,127
43087,note_off,0,0,0,,12,,,83,127
43088,note_on,1,0,0,,4,,,76,127
43088,note_on,0,0,0,,0,,,84,127
43088,note_on,0,0,0,,10,,,57,127
43088,note_on,0,0,0,,4,,,64,127
43300,note_off,212,0,0,,0,,,84,127
43301,note_on,1,0,0,,12,,,83,127
43407,note_off,106,0,0,,12,,,83,127
43408,note_on,1,0,0,,10,,,81,127
43510,note_off,102,0,0,,4,,,76,127
43513,note_off,3,0,0,,10,,,81,127
43513,note_off,0,0,0,,4,,,64,127
43513,note_off,0,0,0,,10,,,57,127
43514,note_on,1,0,0,,7,,,79,127
43514,note_on,0,0,0,,10,,,57,127
43514,note_on,0,0,0,,4,,,64,127
43620,note_off,106,0,0,,7,,,79,127
43621,note_on,1,0,0,,6,,,78,127
43727,note_off,106,0,0,,6,,,78,127
43727,note_off,0,0,0,,4,,,64,127
43727,note_off,0,0,0,,10,,,57,127
43728,note_on,1,0,0,,4,,,76,127
43728,note_on,0,0,0,,12,,,59,127
43940,note_off,212,0,0,,4,,,76,127
43941,note_on,1,0,0,,4,,,76,127
43993,note_off,52,0,0,,4,,,76,127
43994,note_on,1,0,0,,3,,,75,127
44046,note_off,52,0,0,,3,,,75,127
44047,note_on,1,0,0,,4,,,76,127
44099,note_off,52,0,0,,4,,,76,127
44100,note_on,1,0,0,,3,,,75,127
44152,note_off,52,0,0,,3,,,75,127
44152,note_off,0,0,0,,12,,,59,127
44153,note_on,1,0,0,,4,,,76,127
44153,note_on,0,0,0,,12,,,47,127
44205,note_off,52,0,0,,4,,,76,127
44206,note_on,1,0,0,,3,,,75,127
44258,note_off,52,0,0,,3,,,75,127
44259,note_on,1,0,0,,1,,,73,127
44311,note_off,52,0,0,,1,,,73,127
44312,note_on,1,0,0,,3,,,75,127
44364,note_off,52,0,0,,3,,,75,127
44364,note_off,0,0,0,,12,,,47,127
44365,note_on,1,0,0,,4,,,76,127
44365,note_on,0,0,0,,4,,,52,127
44791,note_off,426,0,0,,4,,,52,127
44791,note_off,0,0,0,,4,,,76,127
44792,note_on,1,0,0,,12,,,71,127
45004,note_off,212,0,0,,12,,,71,127
45005,note_on,1,0,0,,12,,,71,127
45218,note_on,213,0,0,,7,,,67,127
45427,note_off,209,0,0,,12,,,71,127
45430,note_off,3,0,0,,7,,,67,127
45431,note_on,1,0,0,,12,,,71,127
45431,note_on,0,0,0,,4,,,64,127
45643,note_off,212,0,0,,4,,,64,127
45643,note_off,0,0,0,,12,,,71,127
45644,note_on,1,0,0,,12,,,71,127
45644,note_on,0,0,0,,4,,,64,127
45857,note_on,213,0,0,,7,,,67,127
46066,note_off,209,0,0,,12,,,71,127
46069,note_off,3,0,0,,7,,,67,127
46069,note_off,0,0,0,,4,,,64,127
46070,note_on,1,0,0,,4,,,76,127
46070,note_on,0,0,0,,0,,,60,127
46282,note_off,212,0,0,,0,,,60,127
46282,note_off,0,0,0,,4,,,76,127
46283,note_on,1,0,0,,4,,,76,127
46283,note_on,0,0,0,,0,,,60,127
46496,note_on,213,0,0,,0,,,72,127
46705,note_off,209,0,0,,4,,,76,127
46708,note_off,3,0,0,,0,,,72,127
46708,note_off,0,0,0,,0,,,60,127
46709,note_on,1,0,0,,4,,,76,127
46709,note_on,0,0,0,,10,,,57,127
46921,note_off,212,0,0,,10,,,57,127
46921,note_off,0,0,0,,4,,,76,127
46922,note_on,1,0,0,,4,,,76,127
46922,note_on,0,0,0,,10,,,57,127
47135,note_on,213,0,0,,12,,,71,127
47344,note_off,209,0,0,,4,,,76,127
47347,note_off,3,0,0,,10,,,57,127
47348,note_on,1,0,0,,12,,,83,127
47348,note_on,0,0,0,,7,,,55,127
47348,note_on,0,0,0,,4,,,64,127
47401,note_off,53,0,0,,12,,,71,127
47560,note_off,159,0,0,,4,,,64,127
47560,note_off,0,0,0,,7,,,55,127
47560,note_off,0,0,0,,12,,,83,127
47561,note_on,1,0,0,,12,,,83,127
47561,note_on,0,0,0,,4,,,64,127
47561,note_on,0,0,0,,7,,,55,127
47774,note_on,213,0,0,,7,,,79,127
47983,note_off,209,0,0,,12,,,83,127
47986,note_off,3,0,0,,7,,,79,127
47986,note_off,0,0,0,,7,,,55,127
47986,note_off,0,0,0,,4,,,64,127
47987,note_on,1,0,0,,12,,,83,127
47987,note_on,0,0,0,,4,,,64,127
47987,note_on,0,0,0,,7,,,55,127
48199,note_off,212,0,0,,7,,,55,127
48199,note_off,0,0,0,,4,,,64,127
48199,note_off,0,0,0,,12,,,83,127
48200,note_on,1,0,0,,4,,,76,127
48200,note_on,0,0,0,,0,,,84,127
48200,note_on,0,0,0,,4,,,64,127
48200,note_on,0,0,0,,10,,,57,127
48412,note_off,212,0,0,,0,,,84,127
48413,note_on,1,0,0,,12,,,83,127
48519,note_off,106,0,0,,12,,,83,127
48520,note_off,1,0,0,,4,,,76,127
48520,note_on,0,0,0,,10,,,81,127
48626,note_off,106,0,0,,10,,,81,127
48626,note_off,0,0,0,,10,,,57,127
48626,note_off,0,0,0,,4,,,64,127
48627,note_on,1,0,0,,7,,,79,127
48627,note_on,0,0,0,,4,,,64,127
48627,note_on,0,0,0,,10,,,57,127
48733,note_off,106,0,0,,7,,,79,127
48734,note_on,1,0,0,,6,,,78,127
48840,note_off,106,0,0,,6,,,78,127
48840,note_off,0,0,0,,10,,,57,127
48840,note_off,0,0,0,,4,,,64,127
48841,note_on,1,0,0,,4,,,76,127
48841,note_on,0,0,0,,12,,,59,127
49053,note_off,212,0,0,,4,,,76,127
49054,note_on,1,0,0,,4,,,76,127
49106,note_off,52,0,0,,4,,,76,127
49107,note_on,1,0,0,,3,,,75,127
49159,note_off,52,0,0,,3,,,75,127
49160,note_on,1,0,0,,4,,,76,127
49212,note_off,52,0,0,,4,,,76,127
49213,note_on,1,0,0,,3,,,75,127
49265,note_off,52,0,0,,3,,,75,127
49266,note_on,1,0,0,,4,,,76,127
49266,note_on,0,0,0,,12,,,47,127
49318,note_off,52,0,0,,4,,,76,127
49319,note_on,1,0,0,,3,,,75,127
49371,note_off,52,0,0,,3,,,75,127
49372,note_on,1,0,0,,1,,,73,127
49424,note_off,52,0,0,,1,,,73,127
49425,note_on,1,0,0,,3,,,75,127
49477,note_off,52,0,0,,3,,,75,127
49477,note_off,0,0,0,,12,,,47,127
49477,note_off,0,0,0,,12,,,59,127
49478,note_on,1,0,0,,4,,,76,127
49478,note_on,0,0,0,,4,,,52,127
49584,note_off,106,0,0,,4,,,52,127
49585,note_on,1,0,0,,12,,,59,127
49691,note_off,106,0,0,,12,,,59,127
49692,note_on,1,0,0,,8,,,56,127
49798,note_off,106,0,0,,8,,,56,127
49799,note_on,1,0,0,,12,,,59,127
49868,note_off,69,0,0,,4,,,76,127
49905,note_off,37,0,0,,12,,,59,127
49906,note_on,1,0,0,,12,,,83,127
49906,note_on,0,0,0,,4,,,52,127
50012,note_off,106,0,0,,4,,,52,127
50013,note_on,1,0,0,,12,,,59,127
50119,note_off,106,0,0,,12,,,59,127
50119,note_off,0,0,0,,12,,,83,127
50120,note_on,1,0,0,,12,,,83,127
50120,note_on,0,0,0,,3,,,51,127
50226,note_off,106,0,0,,3,,,51,127
50227,note_on,1,0,0,,12,,,59,127
50333,note_off,106,0,0,,12,,,59,127
50334,note_on,1,0,0,,6,,,78,127
50334,note_on,0,0,0,,12,,,47,127
50387,note_off,53,0,0,,12,,,83,127
50439,note_off,52,0,0,,12,,,47,127
50440,note_on,1,0,0,,12,,,59,127
50546,note_off,106,0,0,,12,,,59,127
50546,note_off,0,0,0,,6,,,78,127
50547,note_on,1,0,0,,12,,,83,127
50547,note_on,0,0,0,,3,,,51,127
50653,note_off,106,0,0,,3,,,51,127
50654,note_on,1,0,0,,12,,,59,127
50760,note_off,106,0,0,,12,,,59,127
50760,note_off,0,0,0,,12,,,83,127
50761,note_on,1,0,0,,12,,,83,127
50761,note_on,0,0,0,,4,,,52,127
50867,note_off,106,0,0,,4,,,52,127
50868,note_on,1,0,0,,12,,,59,127
50974,note_off,106,0,0,,12,,,59,127
50975,note_on,1,0,0,,8,,,80,127
50975,note_on,0,0,0,,8,,,56,127
51028,note_off,53,0,0,,12,,,83,127
51080,note_off,52,0,0,,8,,,56,127
51081,note_on,1,0,0,,12,,,59,127
51187,note_off,106,0,0,,12,,,59,127
51187,note_off,0,0,0,,8,,,80,127
51188,note_on,1,0,0,,12,,,83,127
51188,note_on,0,0,0,,4,,,52,127
51294,note_off,106,0,0,,4,,,52,127
51295,note_on,1,0,0,,12,,,59,127
51401,note_off,106,0,0,,12,,,59,127
51401,note_off,0,0,0,,12,,,83,127
51402,note_on,1,0,0,,12,,,83,127
51402,note_on,0,0,0,,3,,,51,127
51508,note_off,106,0,0,,3,,,51,127
51509,note_on,1,0,0,,12,,,59,127
51615,note_off,106,0,0,,12,,,59,127
51616,note_on,1,0,0,,6,,,78,127
51616,note_on,0,0,0,,12,,,47,127
51669,note_off,53,0,0,,12,,,83,127
51721,note_off,52,0,0,,12,,,47,127
51722,note_on,1,0,0,,12,,,59,127
51828,note_off,106,0,0,,12,,,59,127
51828,note_off,0,0,0,,6,,,78,127
51829,note_on,1,0,0,,12,,,83,127
51829,note_on,0,0,0,,3,,,51,127
51935,note_off,106,0,0,,3,,,51,127
51936,note_on,1,0,0,,12,,,59,127
52042,note_off,106,0,0,,12,,,59,127
52042,note_off,0,0,0,,12,,,83,127
52043,note_on,1,0,0,,12,,,83,127
52043,note_on,0,0,0,,4,,,52,127
52149,note_off,106,0,0,,12,,,83,127
52150,note_on,1,0,0,,10,,,81,127
52256,note_off,106,0,0,,10,,,81,127
52256,note_off,0,0,0,,4,,,52,127
52257,note_on,1,0,0,,8,,,80,127
52257,note_on,0,0,0,,6,,,54,127
52363,note_off,106,0,0,,8,,,80,127
52364,note_on,1,0,0,,6,,,78,127
52470,note_off,106,0,0,,6,,,78,127
52470,note_off,0,0,0,,6,,,54,127
52471,note_on,1,0,0,,4,,,76,127
52471,note_on,0,0,0,,8,,,56,127
52577,note_off,106,0,0,,4,,,76,127
52578,note_on,1,0,0,,3,,,75,127
52684,note_off,106,0,0,,3,,,75,127
52684,note_off,0,0,0,,8,,,56,127
52685,note_on,1,0,0,,1,,,73,127
52685,note_on,0,0,0,,10,,,57,127
52897,note_off,212,0,0,,10,,,57,127
52897,note_off,0,0,0,,1,,,73,127
52898,note_on,1,0,0,,12,,,71,127
52898,note_on,0,0,0,,12,,,59,127
53004,note_off,106,0,0,,12,,,71,127
53005,note_on,1,0,0,,10,,,69,127
53111,note_off,106,0,0,,10,,,69,127
53112,note_on,1,0,0,,8,,,68,127
53112,note_on,0,0,0,,12,,,47,127
53218,note_off,106,0,0,,8,,,68,127
53219,note_on,1,0,0,,6,,,66,127
53321,note_off,102,0,0,,12,,,59,127
53324,note_off,3,0,0,,6,,,66,127
53324,note_off,0,0,0,,12,,,47,127
53325,note_on,1,0,0,,4,,,64,127
53325,note_on,0,0,0,,4,,,52,127
53431,note_off,106,0,0,,4,,,52,127
53432,note_on,1,0,0,,12,,,59,127
53538,note_off,106,0,0,,12,,,59,127
53539,note_on,1,0,0,,8,,,56,127
53645,note_off,106,0,0,,8,,,56,127
53646,note_off,1,0,0,,4,,,64,127
53646,note_on,0,0,0,,12,,,59,127
53752,note_off,106,0,0,,12,,,59,127
53753,note_on,1,0,0,,12,,,83,127
53753,note_on,0,0,0,,4,,,52,127
53859,note_off,106,0,0,,4,,,52,127
53860,note_on,1,0,0,,12,,,59,127
53966,note_off,106,0,0,,12,,,59,127
53966,note_off,0,0,0,,12,,,83,127
53967,note_on,1,0,0,,12,,,83,127
53967,note_on,0,0,0,,3,,,51,127
54073,note_off,106,0,0,,3,,,51,127
54074,note_on,1,0,0,,12,,,59,127
54180,note_off,106,0,0,,12,,,59,127
54181,note_on,1,0,0,,6,,,78,127
54181,note_on,0,0,0,,12,,,47,127
54287,note_off,106,0,0,,12,,,47,127
54288,note_off,1,0,0,,12,,,83,127
54288,note_on,0,0,0,,12,,,59,127
54394,note_off,106,0,0,,12,,,59,127
54394,note_off,0,0,0,,6,,,78,127
54395,note_on,1,0,0,,12,,,83,127
54395,note_on,0,0,0,,3,,,51,127
54501,note_off,106,0,0,,3,,,51,127
54502,note_on,1,0,0,,12,,,59,127
54608,note_off,106,0,0,,12,,,59,127
54608,note_off,0,0,0,,12,,,83,127
54609,note_on,1,0,0,,12,,,83,127
54609,note_on,0,0,0,,4,,,52,127
54715,note_off,106,0,0,,4,,,52,127
54716,note_on,1,0,0,,12,,,59,127
54822,note_off,106,0,0,,12,,,59,127
54823,note_on,1,0,0,,8,,,80,127
54823,note_on,0,0,0,,8,,,56,127
54929,note_off,106,0,0,,8,,,56,127
54930,note_off,1,0,0,,12,,,83,127
54930,note_on,0,0,0,,12,,,59,127
55036,note_off,106,0,0,,12,,,59,127
55036,note_off,0,0,0,,8,,,80,127
55037,note_on,1,0,0,,12,,,83,127
55037,note_on,0,0,0,,4,,,52,127
55143,note_off,106,0,0,,4,,,52,127
55144,note_on,1,0,0,,12,,,59,127
55250,note_off,106,0,0,,12,,,59,127
55250,note_off,0,0,0,,12,,,83,127
55251,note_on,1,0,0,,12,,,83,127
55251,note_on,0,0,0,,3,,,51,127
55357,note_off,106,0,0,,3,,,51,127
55358,note_on,1,0,0,,12,,,59,127
55464,note_off,106,0,0,,12,,,59,127
55465,note_on,1,0,0,,6,,,78,127
55465,note_on,0,0,0,,12,,,47,127
55571,note_off,106,0,0,,12,,,47,127
55572,note_off,1,0,0,,12,,,83,127
55572,note_on,0,0,0,,12,,,59,127
55678,note_off,106,0,0,,12,,,59,127
55678,note_off,0,0,0,,6,,,78,127
55679,note_on,1,0,0,,12,,,83,127
55679,note_on,0,0,0,,3,,,51,127
55785,note_off,106,0,0,,3,,,51,127
55786,note_on,1,0,0,,12,,,59,127
55892,note_off,106,0,0,,12,,,59,127
55892,note_off,0,0,0,,12,,,83,127
55893,note_on,1,0,0,,12,,,83,127
55893,note_on,0,0,0,,4,,,52,127
55999,note_off,106,0,0,,12,,,83,127
56000,note_on,1,0,0,,10,,,81,127
56106,note_off,106,0,0,,10,,,81,127
56106,note_off,0,0,0,,4,,,52,127
56107,note_on,1,0,0,,8,,,80,127
56107,note_on,0,0,0,,6,,,54,127
56213,note_off,106,0,0,,8,,,80,127
56214,note_on,1,0,0,,6,,,78,127
56320,note_off,106,0,0,,6,,,78,127
56320,note_off,0,0,0,,6,,,54,127
56321,note_on,1,0,0,,4,,,76,127
56321,note_on,0,0,0,,8,,,56,127
56427,note_off,106,0,0,,4,,,76,127
56428,note_on,1,0,0,,3,,,75,127
56534,note_off,106,0,0,,3,,,75,127
56534,note_off,0,0,0,,8,,,56,127
56535,note_on,1,0,0,,1,,,73,127
56535,note_on,0,0,0,,10,,,57,127
56747,note_off,212,0,0,,10,,,57,127
56747,note_off,0,0,0,,1,,,73,127
56748,note_on,1,0,0,,12,,,71,127
56748,note_on,0,0,0,,12,,,59,127
56854,note_off,106,0,0,,12,,,71,127
56855,note_on,1,0,0,,10,,,69,127
56961,note_off,106,0,0,,10,,,69,127
56962,note_on,1,0,0,,8,,,68,127
56962,note_on,0,0,0,,12,,,47,127
57068,note_off,106,0,0,,8,,,68,127
57069,note_on,1,0,0,,6,,,66,127
57171,note_off,102,0,0,,12,,,59,127
57174,note_off,3,0,0,,6,,,66,127
57174,note_off,0,0,0,,12,,,47,127
57175,note_on,1,0,0,,4,,,64,127
57175,note_on,0,0,0,,4,,,52,127
57387,note_off,212,0,0,,4,,,52,127
57388,note_on,1,0,0,,4,,,76,127
57388,note_on,0,0,0,,6,,,54,127
57597,note_off,209,0,0,,4,,,64,127
57600,note_off,3,0,0,,6,,,54,127
57600,note_off,0,0,0,,4,,,76,127
57601,note_on,1,0,0,,4,,,64,127
57601,note_on,0,0,0,,8,,,56,127
57813,note_off,212,0,0,,8,,,56,127
57813,note_off,0,0,0,,4,,,64,127
57814,note_on,1,0,0,,1,,,73,127
57814,note_on,0,0,0,,10,,,57,127
58026,note_off,212,0,0,,10,,,57,127
58026,note_off,0,0,0,,1,,,73,127
58027,note_on,1,0,0,,12,,,71,127
58027,note_on,0,0,0,,12,,,59,127
58133,note_off,106,0,0,,12,,,71,127
58134,note_on,1,0,0,,10,,,69,127
58240,note_off,106,0,0,,10,,,69,127
58241,note_on,1,0,0,,8,,,68,127
58241,note_on,0,0,0,,12,,,47,127
58347,note_off,106,0,0,,8,,,68,127
58348,note_on,1,0,0,,6,,,66,127
58450,note_off,102,0,0,,12,,,59,127
58453,note_off,3,0,0,,6,,,66,127
58453,note_off,0,0,0,,12,,,47,127
58454,note_on,1,0,0,,8,,,68,127
58454,note_on,0,0,0,,4,,,52,127
58666,note_off,212,0,0,,4,,,52,127
58667,note_on,1,0,0,,4,,,76,127
58667,note_on,0,0,0,,6,,,54,127
58720,note_off,53,0,0,,8,,,68,127
58879,note_off,159,0,0,,6,,,54,127
58879,note_off,0,0,0,,4,,,76,127
58880,note_on,1,0,0,,4,,,64,127
58880,note_on,0,0,0,,8,,,56,127
59092,note_off,212,0,0,,8,,,56,127
59092,note_off,0,0,0,,4,,,64,127
59093,note_on,1,0,0,,1,,,73,127
59093,note_on,0,0,0,,10,,,57,127
59305,note_off,212,0,0,,10,,,57,127
59305,note_off,0,0,0,,1,,,73,127
59306,note_on,1,0,0,,12,,,71,127
59306,note_on,0,0,0,,12,,,59,127
59412,note_off,106,0,0,,12,,,71,127
59413,note_on,1,0,0,,10,,,69,127
59519,note_off,106,0,0,,10,,,69,127
59520,note_on,1,0,0,,8,,,68,127
59520,note_on,0,0,0,,12,,,47,127
59626,note_off,106,0,0,,8,,,68,127
59627,note_on,1,0,0,,6,,,66,127
59729,note_off,102,0,0,,12,,,59,127
59732,note_off,3,0,0,,6,,,66,127
59732,note_off,0,0,0,,12,,,47,127
59733,note_on,1,0,0,,6,,,66,127
59733,note_on,0,0,0,,4,,,52,127
59785,note_off,52,0,0,,6,,,66,127
59786,note_on,1,0,0,,4,,,64,127
59838,note_off,52,0,0,,4,,,64,127
59839,note_on,1,0,0,,6,,,66,127
59891,note_off,52,0,0,,6,,,66,127
59892,note_on,1,0,0,,4,,,64,127
60401,note_off,509,0,0,,4,,,64,127
60432,note_off,31,0,0,,4,,,52,127
60479,note_on,47,0,0,,4,,,52,127
60479,note_on,0,0,0,,4,,,64,127
60691,note_off,212,0,0,,4,,,52,127
60692,note_on,1,0,0,,4,,,52,127
60904,note_off,212,0,0,,4,,,52,127
60904,note_off,0,0,0,,4,,,64,127
60905,note_on,1,0,0,,12,,,59,127
60905,note_on,0,0,0,,12,,,71,127
61117,note_off,212,0,0,,12,,,71,127
61117,note_off,0,0,0,,12,,,59,127
61118,note_on,1,0,0,,4,,,64,127
61118,note_on,0,0,0,,10,,,69,127
61170,note_off,52,0,0,,10,,,69,127
61171,note_on,1,0,0,,8,,,68,127
61223,note_off,52,0,0,,8,,,68,127
61224,note_on,1,0,0,,10,,,69,127
61276,note_off,52,0,0,,10,,,69,127
61277,note_on,1,0,0,,8,,,68,127
61329,note_off,52,0,0,,8,,,68,127
61329,note_off,0,0,0,,4,,,64,127
61330,note_on,1,0,0,,4,,,64,127
61330,note_on,0,0,0,,10,,,69,127
61382,note_off,52,0,0,,10,,,69,127
61383,note_on,1,0,0,,8,,,68,127
61435,note_off,52,0,0,,8,,,68,127
61436,note_on,1,0,0,,10,,,69,127
61488,note_off,52,0,0,,10,,,69,127
61489,note_on,1,0,0,,8,,,68,127
61541,note_off,52,0,0,,8,,,68,127
61541,note_off,0,0,0,,4,,,64,127
61542,note_on,1,0,0,,12,,,59,127
61542,note_on,0,0,0,,6,,,66,127
61742,note_off,200,0,0,,6,,,66,127
61754,note_off,12,0,0,,12,,,59,127
61755,note_on,1,0,0,,4,,,52,127
61755,note_on,0,0,0,,8,,,68,127
61967,note_off,212,0,0,,8,,,68,127
61967,note_off,0,0,0,,4,,,52,127
61968,note_on,1,0,0,,4,,,52,127
61968,note_on,0,0,0,,4,,,76,127
62180,note_off,212,0,0,,4,,,76,127
62180,note_off,0,0,0,,4,,,52,127
62181,note_on,1,0,0,,12,,,59,127
62181,note_on,0,0,0,,12,,,71,127
62393,note_off,212,0,0,,12,,,71,127
62393,note_off,0,0,0,,12,,,59,127
62394,note_on,1,0,0,,4,,,64,127
62394,note_on,0,0,0,,10,,,69,127
62446,note_off,52,0,0,,10,,,69,127
62447,note_on,1,0,0,,8,,,68,127
62499,note_off,52,0,0,,8,,,68,127
62500,note_on,1,0,0,,10,,,69,127
62552,note_off,52,0,0,,10,,,69,127
62553,note_on,1,0,0,,8,,,68,127
62605,note_off,52,0,0,,8,,,68,127
62605,note_off,0,0,0,,4,,,64,127
62606,note_on,1,0,0,,4,,,64,127
62606,note_on,0,0,0,,10,,,69,127
62658,note_off,52,0,0,,10,,,69,127
62659,note_on,1,0,0,,8,,,68,127
62711,note_off,52,0,0,,8,,,68,127
62712,note_on,1,0,0,,10,,,69,127
62764,note_off,52,0,0,,10,,,69,127
62765,note_on,1,0,0,,8,,,68,127
62817,note_off,52,0,0,,8,,,68,127
62817,note_off,0,0,0,,4,,,64,127
62818,note_on,1,0,0,,12,,,59,127
62818,note_on,0,0,0,,6,,,66,127
63018,note_off,200,0,0,,6,,,66,127
63030,note_off,12,0,0,,12,,,59,127
63031,note_on,1,0,0,,4,,,52,127
63031,note_on,0,0,0,,8,,,68,127
63137,note_off,106,0,0,,8,,,68,127
63138,note_on,1,0,0,,10,,,69,127
63244,note_off,106,0,0,,10,,,69,127
63245,note_on,1,0,0,,12,,,71,127
63351,note_off,106,0,0,,12,,,71,127
63352,note_on,1,0,0,,1,,,73,127
63458,note_off,106,0,0,,1,,,73,127
63458,note_off,0,0,0,,4,,,52,127
63459,note_on,1,0,0,,4,,,64,127
63459,note_on,0,0,0,,2,,,74,127
63565,note_off,106,0,0,,2,,,74,127
63566,note_on,1,0,0,,4,,,76,127
63672,note_off,106,0,0,,4,,,76,127
63672,note_off,0,0,0,,4,,,64,127
63673,note_on,1,0,0,,2,,,62,127
63673,note_on,0,0,0,,6,,,78,127
63885,note_off,212,0,0,,6,,,78,127
63886,note_on,1,0,0,,4,,,76,127
63992,note_off,106,0,0,,4,,,76,127
63993,note_on,1,0,0,,2,,,74,127
64099,note_off,106,0,0,,2,,,74,127
64099,note_off,0,0,0,,2,,,62,127
64100,note_on,1,0,0,,2,,,62,127
64100,note_on,0,0,0,,1,,,73,127
64206,note_off,106,0,0,,1,,,73,127
64207,note_on,1,0,0,,12,,,71,127
64313,note_off,106,0,0,,12,,,71,127
64313,note_off,0,0,0,,2,,,62,127
64314,note_on,1,0,0,,1,,,61,127
64314,note_on,0,0,0,,4,,,76,127
64526,note_off,212,0,0,,4,,,76,127
64527,note_on,1,0,0,,8,,,68,127
64739,note_off,212,0,0,,8,,,68,127
64739,note_off,0,0,0,,1,,,61,127
64740,note_on,1,0,0,,1,,,61,127
64740,note_on,0,0,0,,10,,,69,127
64940,note_off,200,0,0,,10,,,69,127
64952,note_off,12,0,0,,1,,,61,127
64953,note_on,1,0,0,,4,,,64,127
64953,note_on,0,0,0,,11,,,70,127
64953,note_on,0,0,0,,7,,,79,127
65165,note_off,212,0,0,,7,,,79,127
65166,note_on,1,0,0,,6,,,78,127
65272,note_off,106,0,0,,6,,,78,127
65273,note_on,1,0,0,,4,,,76,127
65375,note_off,102,0,0,,11,,,70,127
65378,note_off,3,0,0,,4,,,76,127
65378,note_off,0,0,0,,4,,,64,127
65379,note_on,1,0,0,,4,,,64,127
65379,note_on,0,0,0,,2,,,74,127
65485,note_off,106,0,0,,2,,,74,127
65486,note_on,1,0,0,,1,,,73,127
65592,note_off,106,0,0,,1,,,73,127
65592,note_off,0,0,0,,4,,,64,127
65593,note_on,1,0,0,,2,,,62,127
65593,note_on,0,0,0,,6,,,78,127
65805,note_off,212,0,0,,6,,,78,127
65806,note_on,1,0,0,,11,,,70,127
66018,note_off,212,0,0,,11,,,70,127
66018,note_off,0,0,0,,2,,,62,127
66019,note_on,1,0,0,,2,,,62,127
66019,note_on,0,0,0,,12,,,71,127
66225,note_off,206,0,0,,12,,,71,127
66232,note_off,7,0,0,,2,,,62,127
66233,note_on,1,0,0,,4,,,64,127
66233,note_on,0,0,0,,11,,,70,127
66233,note_on,0,0,0,,7,,,79,127
66339,note_off,106,0,0,,4,,,64,127
66340,note_on,1,0,0,,1,,,61,127
66446,note_off,106,0,0,,1,,,61,127
66446,note_off,0,0,0,,7,,,79,127
66446,note_off,0,0,0,,11,,,70,127
66447,note_on,1,0,0,,2,,,62,127
66447,note_on,0,0,0,,6,,,78,127
66447,note_on,0,0,0,,12,,,71,127
66553,note_off,106,0,0,,2,,,62,127
66554,note_on,1,0,0,,12,,,59,127
66660,note_off,106,0,0,,12,,,59,127
66660,note_off,0,0,0,,12,,,71,127
66660,note_off,0,0,0,,6,,,78,127
66661,note_on,1,0,0,,1,,,61,127
66661,note_on,0,0,0,,4,,,76,127
66661,note_on,0,0,0,,1,,,73,127
66767,note_off,106,0,0,,1,,,61,127
66768,note_on,1,0,0,,11,,,58,127
66874,note_off,106,0,0,,11,,,58,127
66874,note_off,0,0,0,,1,,,73,127
66874,note_off,0,0,0,,4,,,76,127
66875,note_on,1,0,0,,12,,,59,127
66875,note_on,0,0,0,,2,,,74,127
67087,note_off,212,0,0,,2,,,74,127
67088,note_on,1,0,0,,2,,,74,127
67300,note_off,212,0,0,,2,,,74,127
67300,note_off,0,0,0,,12,,,59,127
67301,note_on,1,0,0,,10,,,57,127
67301,note_on,0,0,0,,6,,,78,127
67513,note_off,212,0,0,,6,,,78,127
67513,note_off,0,0,0,,10,,,57,127
67514,note_on,1,0,0,,7,,,55,127
67514,note_on,0,0,0,,12,,,83,127
67726,note_off,212,0,0,,12,,,83,127
67727,note_on,1,0,0,,12,,,83,127
67939,note_off,212,0,0,,12,,,83,127
67939,note_off,0,0,0,,7,,,55,127
67940,note_on,1,0,0,,6,,,54,127
67940,note_on,0,0,0,,6,,,78,127
68152,note_off,212,0,0,,6,,,78,127
68152,note_off,0,0,0,,6,,,54,127
68153,note_on,1,0,0,,4,,,52,127
68153,note_on,0,0,0,,12,,,71,127
68365,note_off,212,0,0,,12,,,71,127
68366,note_on,1,0,0,,12,,,71,127
68588,note_on,222,0,0,,2,,,50,127
68588,note_on,0,0,0,,12,,,83,127
68594,note_off,6,0,0,,4,,,52,127
68788,note_off,194,0,0,,12,,,71,127
68800,note_off,12,0,0,,12,,,83,127
68800,note_off,0,0,0,,2,,,50,127
68810,note_on,10,0,0,,5,,,77,127
68810,note_on,0,0,0,,12,,,83,127
68810,note_on,0,0,0,,12,,,59,127
68810,note_on,0,0,0,,1,,,49,127
69022,note_off,212,0,0,,1,,,49,127
69022,note_off,0,0,0,,12,,,59,127
69022,note_off,0,0,0,,12,,,83,127
69023,note_on,1,0,0,,10,,,81,127
69023,note_on,0,0,0,,12,,,59,127
69023,note_on,0,0,0,,1,,,49,127
69129,note_off,106,0,0,,10,,,81,127
69130,note_off,1,0,0,,5,,,77,127
69130,note_on,0,0,0,,8,,,80,127
69236,note_off,106,0,0,,8,,,80,127
69236,note_off,0,0,0,,1,,,49,127
69236,note_off,0,0,0,,12,,,59,127
69237,note_on,1,0,0,,6,,,78,127
69237,note_on,0,0,0,,12,,,59,127
69237,note_on,0,0,0,,1,,,49,127
69343,note_off,106,0,0,,6,,,78,127
69344,note_on,1,0,0,,8,,,80,127
69450,note_off,106,0,0,,8,,,80,127
69450,note_off,0,0,0,,1,,,49,127
69450,note_off,0,0,0,,12,,,59,127
69451,note_on,1,0,0,,10,,,81,127
69451,note_on,0,0,0,,6,,,54,127
69451,note_on,0,0,0,,10,,,57,127
69663,note_off,212,0,0,,10,,,57,127
69663,note_off,0,0,0,,6,,,54,127
69664,note_on,1,0,0,,6,,,78,127
69664,note_on,0,0,0,,6,,,54,127
69664,note_on,0,0,0,,10,,,57,127
69717,note_off,53,0,0,,10,,,81,127
69876,note_off,159,0,0,,10,,,57,127
69876,note_off,0,0,0,,6,,,54,127
69876,note_off,0,0,0,,6,,,78,127
69877,note_on,1,0,0,,10,,,81,127
69877,note_on,0,0,0,,10,,,57,127
69877,note_on,0,0,0,,6,,,54,127
70089,note_off,212,0,0,,6,,,54,127
70089,note_off,0,0,0,,10,,,57,127
70089,note_off,0,0,0,,10,,,81,127
70090,note_on,1,0,0,,10,,,81,127
70090,note_on,0,0,0,,3,,,75,127
70090,note_on,0,0,0,,10,,,57,127
70090,note_on,0,0,0,,12,,,47,127
70302,note_off,212,0,0,,12,,,47,127
70302,note_off,0,0,0,,10,,,57,127
70302,note_off,0,0,0,,10,,,81,127
70303,note_on,1,0,0,,7,,,79,127
70303,note_on,0,0,0,,12,,,47,127
70303,note_on,0,0,0,,10,,,57,127
70409,note_off,106,0,0,,7,,,79,127
70410,note_off,1,0,0,,3,,,75,127
70410,note_on,0,0,0,,6,,,78,127
70516,note_off,106,0,0,,6,,,78,127
70516,note_off,0,0,0,,10,,,57,127
70516,note_off,0,0,0,,12,,,47,127
70517,note_on,1,0,0,,4,,,76,127
70517,note_on,0,0,0,,10,,,57,127
70517,note_on,0,0,0,,12,,,47,127
70623,note_off,106,0,0,,4,,,76,127
70624,note_on,1,0,0,,6,,,78,127
70730,note_off,106,0,0,,6,,,78,127
70730,note_off,0,0,0,,12,,,47,127
70730,note_off,0,0,0,,10,,,57,127
70731,note_on,1,0,0,,7,,,79,127
70731,note_on,0,0,0,,7,,,55,127
70731,note_on,0,0,0,,4,,,52,127
70943,note_off,212,0,0,,4,,,52,127
70943,note_off,0,0,0,,7,,,55,127
70944,note_on,1,0,0,,4,,,76,127
70944,note_on,0,0,0,,4,,,52,127
70944,note_on,0,0,0,,7,,,55,127
70997,note_off,53,0,0,,7,,,79,127
71156,note_off,159,0,0,,7,,,55,127
71156,note_off,0,0,0,,4,,,52,127
71156,note_off,0,0,0,,4,,,76,127
71157,note_on,1,0,0,,7,,,79,127
71157,note_on,0,0,0,,4,,,52,127
71157,note_on,0,0,0,,7,,,55,127
71369,note_off,212,0,0,,7,,,55,127
71369,note_off,0,0,0,,4,,,52,127
71369,note_off,0,0,0,,7,,,79,127
71370,note_on,1,0,0,,1,,,73,127
71370,note_on,0,0,0,,7,,,79,127
71370,note_on,0,0,0,,7,,,55,127
71370,note_on,0,0,0,,10,,,45,127
71582,note_off,212,0,0,,10,,,45,127
71582,note_off,0,0,0,,7,,,55,127
71582,note_off,0,0,0,,7,,,79,127
71583,note_on,1,0,0,,6,,,78,127
71583,note_on,0,0,0,,7,,,55,127
71583,note_on,0,0,0,,10,,,45,127
71689,note_off,106,0,0,,6,,,78,127
71690,note_off,1,0,0,,1,,,73,127
71690,note_on,0,0,0,,4,,,76,127
71796,note_off,106,0,0,,4,,,76,127
71796,note_off,0,0,0,,10,,,45,127
71796,note_off,0,0,0,,7,,,55,127
71797,note_on,1,0,0,,2,,,74,127
71797,note_on,0,0,0,,7,,,55,127
71797,note_on,0,0,0,,10,,,45,127
71903,note_off,106,0,0,,2,,,74,127
71904,note_on,1,0,0,,4,,,76,127
72004,note_off,100,0,0,,4,,,76,127
72010,note_off,6,0,0,,10,,,45,127
72010,note_off,0,0,0,,7,,,55,127
72011,note_on,1,0,0,,6,,,78,127
72011,note_on,0,0,0,,2,,,50,127
72117,note_off,106,0,0,,6,,,78,127
72118,note_on,1,0,0,,4,,,76,127
72224,note_off,106,0,0,,4,,,76,127
72224,note_off,0,0,0,,2,,,50,127
72225,note_on,1,0,0,,2,,,74,127
72225,note_on,0,0,0,,4,,,52,127
72331,note_off,106,0,0,,2,,,74,127
72332,note_on,1,0,0,,1,,,73,127
72438,note_off,106,0,0,,1,,,73,127
72438,note_off,0,0,0,,4,,,52,127
72439,note_on,1,0,0,,12,,,71,127
72439,note_on,0,0,0,,6,,,54,127
72545,note_off,106,0,0,,12,,,71,127
72546,note_on,1,0,0,,10,,,69,127
72652,note_off,106,0,0,,10,,,69,127
72652,note_off,0,0,0,,6,,,54,127
72653,note_on,1,0,0,,12,,,71,127
72653,note_on,0,0,0,,7,,,55,127
72759,note_off,106,0,0,,12,,,71,127
72760,note_on,1,0,0,,10,,,69,127
72866,note_off,106,0,0,,10,,,69,127
72866,note_off,0,0,0,,7,,,55,127
72867,note_on,1,0,0,,7,,,67,127
72867,note_on,0,0,0,,10,,,57,127
72973,note_off,106,0,0,,7,,,67,127
72974,note_on,1,0,0,,6,,,66,127
73080,note_off,106,0,0,,6,,,66,127
73080,note_off,0,0,0,,10,,,57,127
73081,note_on,1,0,0,,4,,,64,127
73081,note_on,0,0,0,,12,,,59,127
73187,note_off,106,0,0,,4,,,64,127
73188,note_on,1,0,0,,2,,,62,127
73277,note_off,89,0,0,,2,,,62,127
73294,note_off,17,0,0,,12,,,59,127
73295,note_on,1,0,0,,1,,,61,127
73295,note_on,0,0,0,,10,,,57,127
73508,note_on,213,0,0,,10,,,69,127
73614,note_off,106,0,0,,10,,,57,127
73615,note_off,1,0,0,,1,,,61,127
73615,note_on,0,0,0,,2,,,62,127
73615,note_on,0,0,0,,12,,,59,127
73721,note_off,106,0,0,,12,,,59,127
73721,note_off,0,0,0,,2,,,62,127
73722,note_on,1,0,0,,4,,,64,127
73722,note_on,0,0,0,,1,,,61,127
73828,note_off,106,0,0,,1,,,61,127
73828,note_off,0,0,0,,4,,,64,127
73829,note_off,1,0,0,,10,,,69,127
73829,note_on,0,0,0,,6,,,66,127
73829,note_on,0,0,0,,2,,,62,127
73935,note_off,106,0,0,,2,,,62,127
73935,note_off,0,0,0,,6,,,66,127
73936,note_on,1,0,0,,4,,,64,127
73936,note_on,0,0,0,,1,,,61,127
74149,note_on,213,0,0,,10,,,69,127
74255,note_off,106,0,0,,1,,,61,127
74256,note_off,1,0,0,,4,,,64,127
74256,note_on,0,0,0,,2,,,62,127
74256,note_on,0,0,0,,12,,,59,127
74362,note_off,106,0,0,,12,,,59,127
74362,note_off,0,0,0,,2,,,62,127
74363,note_on,1,0,0,,1,,,61,127
74363,note_on,0,0,0,,10,,,57,127
74469,note_off,106,0,0,,10,,,57,127
74469,note_off,0,0,0,,1,,,61,127
74470,note_off,1,0,0,,10,,,69,127
74470,note_on,0,0,0,,12,,,59,127
74470,note_on,0,0,0,,8,,,56,127
74576,note_off,106,0,0,,8,,,56,127
74576,note_off,0,0,0,,12,,,59,127
74577,note_on,1,0,0,,1,,,61,127
74577,note_on,0,0,0,,10,,,57,127
74790,note_on,213,0,0,,10,,,69,127
74896,note_off,106,0,0,,10,,,57,127
74897,note_off,1,0,0,,1,,,61,127
74897,note_on,0,0,0,,2,,,62,127
74897,note_on,0,0,0,,12,,,59,127
75003,note_off,106,0,0,,12,,,59,127
75003,note_off,0,0,0,,2,,,62,127
75004,note_on,1,0,0,,4,,,64,127
75004,note_on,0,0,0,,1,,,61,127
75110,note_off,106,0,0,,1,,,61,127
75110,note_off,0,0,0,,4,,,64,127
75111,note_off,1,0,0,,10,,,69,127
75111,note_on,0,0,0,,6,,,66,127
75111,note_on,0,0,0,,2,,,62,127
75217,note_off,106,0,0,,2,,,62,127
75217,note_off,0,0,0,,6,,,66,127
75218,note_on,1,0,0,,4,,,64,127
75218,note_on,0,0,0,,1,,,61,127
75431,note_on,213,0,0,,10,,,69,127
75537,note_off,106,0,0,,1,,,61,127
75538,note_off,1,0,0,,4,,,64,127
75538,note_on,0,0,0,,2,,,62,127
75538,note_on,0,0,0,,12,,,59,127
75644,note_off,106,0,0,,12,,,59,127
75644,note_off,0,0,0,,2,,,62,127
75645,note_on,1,0,0,,1,,,61,127
75645,note_on,0,0,0,,10,,,57,127
75751,note_off,106,0,0,,10,,,57,127
75751,note_off,0,0,0,,1,,,61,127
75752,note_off,1,0,0,,10,,,69,127
75752,note_on,0,0,0,,12,,,59,127
75752,note_on,0,0,0,,8,,,56,127
75858,note_off,106,0,0,,8,,,56,127
75858,note_off,0,0,0,,12,,,59,127
75859,note_on,1,0,0,,4,,,64,127
75859,note_on,0,0,0,,10,,,57,127
75965,note_off,106,0,0,,10,,,57,127
75966,note_on,1,0,0,,12,,,59,127
76072,note_off,106,0,0,,12,,,59,127
76072,note_off,0,0,0,,4,,,64,127
76073,note_on,1,0,0,,10,,,69,127
76073,note_on,0,0,0,,1,,,61,127
76179,note_off,106,0,0,,1,,,61,127
76180,note_on,1,0,0,,10,,,57,127
76286,note_off,106,0,0,,10,,,57,127
76286,note_off,0,0,0,,10,,,69,127
76287,note_on,1,0,0,,6,,,66,127
76287,note_on,0,0,0,,2,,,62,127
76393,note_off,106,0,0,,2,,,62,127
76394,note_on,1,0,0,,2,,,50,127
76500,note_off,106,0,0,,2,,,50,127
76500,note_off,0,0,0,,6,,,66,127
76501,note_on,1,0,0,,4,,,64,127
76501,note_on,0,0,0,,10,,,57,127
76607,note_off,106,0,0,,10,,,57,127
76608,note_on,1,0,0,,12,,,59,127
76714,note_off,106,0,0,,12,,,59,127
76714,note_off,0,0,0,,4,,,64,127
76715,note_on,1,0,0,,10,,,69,127
76715,note_on,0,0,0,,1,,,61,127
76821,note_off,106,0,0,,1,,,61,127
76822,note_on,1,0,0,,10,,,57,127
76928,note_off,106,0,0,,10,,,57,127
76928,note_off,0,0,0,,10,,,69,127
76929,note_on,1,0,0,,6,,,66,127
76929,note_on,0,0,0,,2,,,62,127
77035,note_off,106,0,0,,2,,,62,127
77036,note_on,1,0,0,,2,,,50,127
77129,note_off,93,0,0,,6,,,66,127
77141,note_off,12,0,0,,2,,,50,127
77142,note_on,1,0,0,,8,,,68,127
77142,note_on,0,0,0,,4,,,64,127
77142,note_on,0,0,0,,4,,,52,127
77248,note_off,106,0,0,,4,,,52,127
77249,note_on,1,0,0,,6,,,54,127
77355,note_off,106,0,0,,6,,,54,127
77355,note_off,0,0,0,,8,,,68,127
77356,note_on,1,0,0,,4,,,76,127
77356,note_on,0,0,0,,8,,,56,127
77409,note_off,53,0,0,,4,,,64,127
77461,note_off,52,0,0,,8,,,56,127
77462,note_on,1,0,0,,4,,,52,127
77568,note_off,106,0,0,,4,,,52,127
77568,note_off,0,0,0,,4,,,76,127
77569,note_on,1,0,0,,1,,,73,127
77569,note_on,0,0,0,,10,,,57,127
77676,note_on,107,0,0,,10,,,45,127
77780,note_off,104,0,0,,10,,,57,127
77781,note_off,1,0,0,,10,,,45,127
77781,note_off,0,0,0,,1,,,73,127
77782,note_on,1,0,0,,12,,,71,127
77782,note_on,0,0,0,,4,,,52,127
77888,note_off,106,0,0,,4,,,52,127
77889,note_on,1,0,0,,6,,,54,127
77995,note_off,106,0,0,,6,,,54,127
77996,note_on,1,0,0,,4,,,76,127
77996,note_on,0,0,0,,8,,,56,127
78049,note_off,53,0,0,,12,,,71,127
78101,note_off,52,0,0,,8,,,56,127
78102,note_on,1,0,0,,4,,,52,127
78208,note_off,106,0,0,,4,,,52,127
78208,note_off,0,0,0,,4,,,76,127
78209,note_on,1,0,0,,1,,,73,127
78209,note_on,0,0,0,,10,,,57,127
78316,note_on,107,0,0,,10,,,45,127
78420,note_off,104,0,0,,10,,,57,127
78421,note_off,1,0,0,,10,,,45,127
78421,note_off,0,0,0,,1,,,73,127
78422,note_on,1,0,0,,12,,,71,127
78422,note_on,0,0,0,,4,,,52,127
78528,note_off,106,0,0,,12,,,71,127
78529,note_on,1,0,0,,4,,,64,127
78635,note_off,106,0,0,,4,,,64,127
78636,note_on,1,0,0,,8,,,68,127
78742,note_off,106,0,0,,8,,,68,127
78743,note_on,1,0,0,,4,,,64,127
78849,note_off,106,0,0,,4,,,64,127
78850,note_on,1,0,0,,12,,,71,127
78956,note_off,106,0,0,,12,,,71,127
78957,note_off,1,0,0,,4,,,52,127
78957,note_on,0,0,0,,4,,,64,127
79063,note_off,106,0,0,,4,,,64,127
79064,note_on,1,0,0,,3,,,75,127
79064,note_on,0,0,0,,10,,,69,127
79064,note_on,0,0,0,,6,,,54,127
79064,note_on,0,0,0,,10,,,57,127
79064,note_on,0,0,0,,12,,,59,127
79276,note_off,212,0,0,,12,,,59,127
79276,note_off,0,0,0,,10,,,57,127
79276,note_off,0,0,0,,6,,,54,127
79277,note_on,1,0,0,,6,,,54,127
79277,note_on,0,0,0,,10,,,57,127
79277,note_on,0,0,0,,12,,,59,127
79489,note_off,212,0,0,,12,,,59,127
79489,note_off,0,0,0,,10,,,57,127
79489,note_off,0,0,0,,6,,,54,127
79490,note_on,1,0,0,,6,,,54,127
79490,note_on,0,0,0,,10,,,57,127
79490,note_on,0,0,0,,12,,,59,127
79702,note_off,212,0,0,,12,,,59,127
79702,note_off,0,0,0,,10,,,57,127
79702,note_off,0,0,0,,6,,,54,127
79702,note_off,0,0,0,,10,,,69,127
79702,note_off,0,0,0,,3,,,75,127
79703,note_on,1,0,0,,4,,,76,127
79703,note_on,0,0,0,,4,,,52,127
79703,note_on,0,0,0,,12,,,59,127
79809,note_off,106,0,0,,4,,,76,127
79810,note_on,1,0,0,,4,,,64,127
79916,note_off,106,0,0,,4,,,64,127
79917,note_on,1,0,0,,8,,,68,127
80023,note_off,106,0,0,,8,,,68,127
80024,note_on,1,0,0,,4,,,64,127
80130,note_off,106,0,0,,4,,,64,127
80131,note_on,1,0,0,,12,,,71,127
80237,note_off,106,0,0,,12,,,71,127
80238,note_on,1,0,0,,4,,,64,127
80344,note_off,106,0,0,,4,,,64,127
80344,note_off,0,0,0,,12,,,59,127
80344,note_off,0,0,0,,4,,,52,127
80345,note_on,1,0,0,,10,,,69,127
80345,note_on,0,0,0,,3,,,75,127
80345,note_on,0,0,0,,10,,,57,127
80345,note_on,0,0,0,,12,,,59,127
80345,note_on,0,0,0,,6,,,54,127
80557,note_off,212,0,0,,6,,,54,127
80557,note_off,0,0,0,,12,,,59,127
80557,note_off,0,0,0,,10,,,57,127
80558,note_on,1,0,0,,10,,,57,127
80558,note_on,0,0,0,,12,,,59,127
80558,note_on,0,0,0,,6,,,54,127
80770,note_off,212,0,0,,6,,,54,127
80770,note_off,0,0,0,,12,,,59,127
80770,note_off,0,0,0,,10,,,57,127
80771,note_on,1,0,0,,10,,,57,127
80771,note_on,0,0,0,,12,,,59,127
80771,note_on,0,0,0,,6,,,54,127
80983,note_off,212,0,0,,6,,,54,127
80983,note_off,0,0,0,,12,,,59,127
80983,note_off,0,0,0,,10,,,57,127
80983,note_off,0,0,0,,3,,,75,127
80983,note_off,0,0,0,,10,,,69,127
80984,note_on,1,0,0,,4,,,76,127
80984,note_on,0,0,0,,12,,,59,127
80984,note_on,0,0,0,,4,,,52,127
81090,note_off,106,0,0,,4,,,76,127
81091,note_on,1,0,0,,4,,,64,127
81197,note_off,106,0,0,,4,,,64,127
81198,note_on,1,0,0,,8,,,68,127
81304,note_off,106,0,0,,8,,,68,127
81305,note_on,1,0,0,,4,,,64,127
81411,note_off,106,0,0,,4,,,64,127
81412,note_on,1,0,0,,12,,,71,127
81518,note_off,106,0,0,,12,,,71,127
81519,note_on,1,0,0,,8,,,68,127
81625,note_off,106,0,0,,8,,,68,127
81625,note_off,0,0,0,,4,,,52,127
81625,note_off,0,0,0,,12,,,59,127
81626,note_on,1,0,0,,8,,,68,127
81626,note_on,0,0,0,,4,,,64,127
81626,note_on,0,0,0,,2,,,74,127
81626,note_on,0,0,0,,12,,,71,127
81626,note_on,0,0,0,,2,,,62,127
81626,note_on,0,0,0,,12,,,59,127
81626,note_on,0,0,0,,4,,,52,127
81838,note_off,212,0,0,,4,,,52,127
81838,note_off,0,0,0,,12,,,59,127
81838,note_off,0,0,0,,2,,,62,127
81839,note_on,1,0,0,,2,,,62,127
81839,note_on,0,0,0,,4,,,52,127
81839,note_on,0,0,0,,12,,,59,127
82051,note_off,212,0,0,,12,,,59,127
82051,note_off,0,0,0,,4,,,52,127
82051,note_off,0,0,0,,2,,,62,127
82052,note_on,1,0,0,,2,,,62,127
82052,note_on,0,0,0,,12,,,59,127
82052,note_on,0,0,0,,4,,,52,127
82264,note_off,212,0,0,,4,,,52,127
82264,note_off,0,0,0,,12,,,59,127
82264,note_off,0,0,0,,2,,,62,127
82264,note_off,0,0,0,,12,,,71,127
82264,note_off,0,0,0,,2,,,74,127
82264,note_off,0,0,0,,4,,,64,127
82264,note_off,0,0,0,,8,,,68,127
82265,note_on,1,0,0,,1,,,73,127
82265,note_on,0,0,0,,10,,,57,127
82265,note_on,0,0,0,,1,,,61,127
82265,note_on,0,0,0,,4,,,52,127
82371,note_off,106,0,0,,1,,,73,127
82372,note_on,1,0,0,,4,,,64,127
82478,note_off,106,0,0,,4,,,64,127
82479,note_on,1,0,0,,10,,,69,127
82585,note_off,106,0,0,,10,,,69,127
82586,note_on,1,0,0,,4,,,64,127
82692,note_off,106,0,0,,4,,,64,127
82693,note_on,1,0,0,,1,,,73,127
82799,note_off,106,0,0,,1,,,73,127
82800,note_on,1,0,0,,4,,,64,127
82906,note_off,106,0,0,,4,,,64,127
82906,note_off,0,0,0,,4,,,52,127
82906,note_off,0,0,0,,1,,,61,127
82906,note_off,0,0,0,,10,,,57,127
82907,note_on,1,0,0,,2,,,74,127
82907,note_on,0,0,0,,12,,,71,127
82907,note_on,0,0,0,,8,,,68,127
82907,note_on,0,0,0,,4,,,64,127
82907,note_on,0,0,0,,2,,,62,127
82907,note_on,0,0,0,,4,,,52,127
82907,note_on,0,0,0,,12,,,59,127
83119,note_off,212,0,0,,12,,,59,127
83119,note_off,0,0,0,,4,,,52,127
83119,note_off,0,0,0,,2,,,62,127
83120,note_on,1,0,0,,2,,,62,127
83120,note_on,0,0,0,,4,,,52,127
83120,note_on,0,0,0,,12,,,59,127
83332,note_off,212,0,0,,12,,,59,127
83332,note_off,0,0,0,,4,,,52,127
83332,note_off,0,0,0,,2,,,62,127
83333,note_on,1,0,0,,2,,,62,127
83333,note_on,0,0,0,,12,,,59,127
83333,note_on,0,0,0,,4,,,52,127
83545,note_off,212,0,0,,4,,,52,127
83545,note_off,0,0,0,,12,,,59,127
83545,note_off,0,0,0,,2,,,62,127
83545,note_off,0,0,0,,4,,,64,127
83545,note_off,0,0,0,,8,,,68,127
83545,note_off,0,0,0,,12,,,71,127
83545,note_off,0,0,0,,2,,,74,127
83546,note_on,1,0,0,,1,,,73,127
83546,note_on,0,0,0,,1,,,61,127
83546,note_on,0,0,0,,4,,,52,127
83546,note_on,0,0,0,,10,,,57,127
83652,note_off,106,0,0,,1,,,73,127
83653,note_on,1,0,0,,4,,,64,127
83759,note_off,106,0,0,,4,,,64,127
83760,note_on,1,0,0,,10,,,69,127
83866,note_off,106,0,0,,10,,,69,127
83867,note_on,1,0,0,,4,,,64,127
83973,note_off,106,0,0,,4,,,64,127
83974,note_on,1,0,0,,1,,,73,127
84080,note_off,106,0,0,,1,,,73,127
84081,note_on,1,0,0,,10,,,69,127
84170,note_off,89,0,0,,10,,,57,127
84170,note_off,0,0,0,,4,,,52,127
84187,note_off,17,0,0,,10,,,69,127
84187,note_off,0,0,0,,1,,,61,127
84188,note_on,1,0,0,,10,,,69,127
84188,note_on,0,0,0,,10,,,81,127
84188,note_on,0,0,0,,3,,,75,127
84188,note_on,0,0,0,,10,,,57,127
84188,note_on,0,0,0,,12,,,59,127
84188,note_on,0,0,0,,6,,,54,127
84400,note_off,212,0,0,,6,,,54,127
84400,note_off,0,0,0,,12,,,59,127
84400,note_off,0,0,0,,10,,,57,127
84401,note_on,1,0,0,,6,,,54,127
84401,note_on,0,0,0,,10,,,57,127
84401,note_on,0,0,0,,12,,,59,127
84613,note_off,212,0,0,,12,,,59,127
84613,note_off,0,0,0,,10,,,57,127
84613,note_off,0,0,0,,6,,,54,127
84614,note_on,1,0,0,,10,,,57,127
84614,note_on,0,0,0,,12,,,59,127
84614,note_on,0,0,0,,6,,,54,127
84826,note_off,212,0,0,,6,,,54,127
84826,note_off,0,0,0,,12,,,59,127
84826,note_off,0,0,0,,10,,,57,127
84826,note_off,0,0,0,,3,,,75,127
84826,note_off,0,0,0,,10,,,81,127
84826,note_off,0,0,0,,10,,,69,127
84827,note_on,1,0,0,,8,,,80,127
84827,note_on,0,0,0,,4,,,52,127
84827,note_on,0,0,0,,12,,,59,127
84933,note_off,106,0,0,,8,,,80,127
84934,note_on,1,0,0,,12,,,71,127
85040,note_off,106,0,0,,12,,,71,127
85041,note_on,1,0,0,,4,,,76,127
85147,note_off,106,0,0,,4,,,76,127
85148,note_on,1,0,0,,12,,,71,127
85254,note_off,106,0,0,,12,,,71,127
85255,note_on,1,0,0,,8,,,80,127
85361,note_off,106,0,0,,8,,,80,127
85362,note_on,1,0,0,,12,,,71,127
85440,note_off,78,0,0,,12,,,59,127
85440,note_off,0,0,0,,4,,,52,127
85468,note_off,28,0,0,,12,,,71,127
85469,note_on,1,0,0,,3,,,75,127
85469,note_on,0,0,0,,10,,,81,127
85469,note_on,0,0,0,,10,,,69,127
85469,note_on,0,0,0,,12,,,59,127
85469,note_on,0,0,0,,6,,,54,127
85469,note_on,0,0,0,,10,,,57,127
85681,note_off,212,0,0,,10,,,57,127
85681,note_off,0,0,0,,6,,,54,127
85681,note_off,0,0,0,,12,,,59,127
85682,note_on,1,0,0,,12,,,59,127
85682,note_on,0,0,0,,6,,,54,127
85682,note_on,0,0,0,,10,,,57,127
85894,note_off,212,0,0,,10,,,57,127
85894,note_off,0,0,0,,6,,,54,127
85894,note_off,0,0,0,,12,,,59,127
85895,note_on,1,0,0,,12,,,59,127
85895,note_on,0,0,0,,6,,,54,127
85895,note_on,0,0,0,,10,,,57,127
86107,note_off,212,0,0,,10,,,57,127
86107,note_off,0,0,0,,6,,,54,127
86107,note_off,0,0,0,,12,,,59,127
86107,note_off,0,0,0,,10,,,69,127
86107,note_off,0,0,0,,10,,,81,127
86107,note_off,0,0,0,,3,,,75,127
86108,note_on,1,0,0,,8,,,80,127
86108,note_on,0,0,0,,12,,,59,127
86108,note_on,0,0,0,,4,,,52,127
86214,note_off,106,0,0,,8,,,80,127
86215,note_on,1,0,0,,12,,,71,127
86321,note_off,106,0,0,,12,,,71,127
86322,note_on,1,0,0,,4,,,76,127
86428,note_off,106,0,0,,4,,,76,127
86429,note_on,1,0,0,,12,,,71,127
86535,note_off,106,0,0,,12,,,71,127
86536,note_on,1,0,0,,8,,,80,127
86642,note_off,106,0,0,,8,,,80,127
86643,note_on,1,0,0,,12,,,71,127
86749,note_off,106,0,0,,12,,,71,127
86749,note_off,0,0,0,,4,,,52,127
86749,note_off,0,0,0,,12,,,59,127
86750,note_on,1,0,0,,12,,,83,127
86750,note_on,0,0,0,,4,,,40,127
86750,note_on,0,0,0,,4,,,52,127
86856,note_off,106,0,0,,12,,,83,127
86857,note_on,1,0,0,,8,,,80,127
86963,note_off,106,0,0,,8,,,80,127
86963,note_off,0,0,0,,4,,,52,127
86963,note_off,0,0,0,,4,,,40,127
86964,note_on,1,0,0,,4,,,76,127
86964,note_on,0,0,0,,4,,,52,127
86964,note_on,0,0,0,,4,,,40,127
87070,note_off,106,0,0,,4,,,76,127
87071,note_on,1,0,0,,12,,,71,127
87177,note_off,106,0,0,,12,,,71,127
87177,note_off,0,0,0,,4,,,40,127
87177,note_off,0,0,0,,4,,,52,127
87178,note_on,1,0,0,,4,,,52,127
87178,note_on,0,0,0,,4,,,40,127
87179,note_on,1,0,0,,8,,,68,127
87285,note_off,106,0,0,,8,,,68,127
87291,note_on,6,0,0,,4,,,64,127
87391,note_off,100,0,0,,4,,,40,127
87391,note_off,0,0,0,,4,,,52,127
87397,note_off,6,0,0,,4,,,64,127
87404,note_on,7,0,0,,4,,,52,127
87404,note_on,0,0,0,,4,,,40,127
87404,note_on,0,0,0,,4,,,64,127
88131,note_off,727,0,0,,4,,,40,127
88131,note_off,0,0,0,,4,,,52,127
88238,note_off,107,0,0,,4,,,64,127
88496,note_on,258,0,0,,4,,,76,127
88708,note_off,212,0,0,,4,,,76,127
88709,note_on,1,0,0,,4,,,76,127
88921,note_off,212,0,0,,4,,,76,127
88922,note_on,1,0,0,,0,,,72,127
89134,note_off,212,0,0,,0,,,72,127
89135,note_on,1,0,0,,10,,,69,127
89135,note_on,0,0,0,,4,,,76,127
89347,note_off,212,0,0,,4,,,76,127
89347,note_off,0,0,0,,10,,,69,127
89348,note_on,1,0,0,,10,,,69,127
89348,note_on,0,0,0,,4,,,76,127
89560,note_off,212,0,0,,4,,,76,127
89561,note_on,1,0,0,,0,,,72,127
89773,note_off,212,0,0,,0,,,72,127
89773,note_off,0,0,0,,10,,,69,127
89774,note_on,1,0,0,,5,,,65,127
89774,note_on,0,0,0,,10,,,81,127
89986,note_off,212,0,0,,10,,,81,127
89986,note_off,0,0,0,,5,,,65,127
89987,note_on,1,0,0,,5,,,65,127
89987,note_on,0,0,0,,10,,,81,127
90199,note_off,212,0,0,,10,,,81,127
90200,note_on,1,0,0,,5,,,77,127
90412,note_off,212,0,0,,5,,,77,127
90412,note_off,0,0,0,,5,,,65,127
90413,note_on,1,0,0,,2,,,62,127
90413,note_on,0,0,0,,10,,,81,127
90625,note_off,212,0,0,,10,,,81,127
90625,note_off,0,0,0,,2,,,62,127
90626,note_on,1,0,0,,2,,,62,127
90626,note_on,0,0,0,,10,,,81,127
90838,note_off,212,0,0,,10,,,81,127
90839,note_on,1,0,0,,4,,,76,127
91051,note_off,212,0,0,,4,,,76,127
91051,note_off,0,0,0,,2,,,62,127
91052,note_on,1,0,0,,0,,,60,127
91052,note_on,0,0,0,,10,,,69,127
91052,note_on,0,0,0,,0,,,84,127
91264,note_off,212,0,0,,0,,,84,127
91264,note_off,0,0,0,,10,,,69,127
91264,note_off,0,0,0,,0,,,60,127
91265,note_on,1,0,0,,0,,,60,127
91265,note_on,0,0,0,,10,,,69,127
91265,note_on,0,0,0,,0,,,84,127
91477,note_off,212,0,0,,0,,,84,127
91478,note_on,1,0,0,,10,,,81,127
91690,note_off,212,0,0,,10,,,81,127
91690,note_off,0,0,0,,10,,,69,127
91690,note_off,0,0,0,,0,,,60,127
91691,note_on,1,0,0,,10,,,69,127
91691,note_on,0,0,0,,10,,,57,127
91691,note_on,0,0,0,,0,,,84,127
91903,note_off,212,0,0,,0,,,84,127
91903,note_off,0,0,0,,10,,,57,127
91903,note_off,0,0,0,,10,,,69,127
91904,note_on,1,0,0,,2,,,62,127
91904,note_on,0,0,0,,10,,,69,127
91904,note_on,0,0,0,,2,,,86,127
91904,note_on,0,0,0,,5,,,77,127
92116,note_off,212,0,0,,2,,,86,127
92117,note_on,1,0,0,,0,,,84,127
92170,note_off,53,0,0,,5,,,77,127
92222,note_off,52,0,0,,0,,,84,127
92223,note_on,1,0,0,,12,,,83,127
92329,note_off,106,0,0,,12,,,83,127
92329,note_off,0,0,0,,10,,,69,127
92329,note_off,0,0,0,,2,,,62,127
92330,note_on,1,0,0,,2,,,62,127
92330,note_on,0,0,0,,10,,,69,127
92330,note_on,0,0,0,,10,,,81,127
92436,note_off,106,0,0,,10,,,81,127
92437,note_on,1,0,0,,12,,,83,127
92543,note_off,106,0,0,,12,,,83,127
92543,note_off,0,0,0,,10,,,69,127
92543,note_off,0,0,0,,2,,,62,127
92544,note_on,1,0,0,,4,,,64,127
92544,note_on,0,0,0,,4,,,76,127
92756,note_off,212,0,0,,4,,,76,127
92757,note_on,1,0,0,,10,,,81,127
92809,note_off,52,0,0,,10,,,81,127
92810,note_on,1,0,0,,8,,,80,127
92862,note_off,52,0,0,,8,,,80,127
92863,note_on,1,0,0,,10,,,81,127
92915,note_off,52,0,0,,10,,,81,127
92916,note_on,1,0,0,,8,,,80,127
92968,note_off,52,0,0,,8,,,80,127
92968,note_off,0,0,0,,4,,,64,127
92969,note_on,1,0,0,,4,,,52,127
92969,note_on,0,0,0,,10,,,81,127
93021,note_off,52,0,0,,10,,,81,127
93022,note_on,1,0,0,,8,,,80,127
93074,note_off,52,0,0,,8,,,80,127
93075,note_on,1,0,0,,6,,,78,127
93127,note_off,52,0,0,,6,,,78,127
93128,note_on,1,0,0,,8,,,80,127
93180,note_off,52,0,0,,8,,,80,127
93181,note_off,1,0,0,,4,,,52,127
93181,note_on,0,0,0,,10,,,57,127
93181,note_on,0,0,0,,10,,,81,127
93607,note_off,426,0,0,,10,,,81,127
93607,note_off,0,0,0,,10,,,57,127
93608,note_on,1,0,0,,4,,,64,127
93820,note_off,212,0,0,,4,,,64,127
93821,note_on,1,0,0,,4,,,64,127
94033,note_off,212,0,0,,4,,,64,127
94034,note_on,1,0,0,,0,,,60,127
94246,note_off,212,0,0,,0,,,60,127
94247,note_on,1,0,0,,10,,,57,127
94247,note_on,0,0,0,,4,,,64,127
94459,note_off,212,0,0,,4,,,64,127
94459,note_off,0,0,0,,10,,,57,127
94460,note_on,1,0,0,,10,,,57,127
94460,note_on,0,0,0,,4,,,64,127
94672,note_off,212,0,0,,4,,,64,127
94673,note_on,1,0,0,,0,,,60,127
94885,note_off,212,0,0,,0,,,60,127
94885,note_off,0,0,0,,10,,,57,127
94886,note_on,1,0,0,,5,,,53,127
94886,note_on,0,0,0,,10,,,69,127
95098,note_off,212,0,0,,10,,,69,127
95098,note_off,0,0,0,,5,,,53,127
95099,note_on,1,0,0,,5,,,53,127
95099,note_on,0,0,0,,10,,,69,127
95311,note_off,212,0,0,,10,,,69,127
95312,note_on,1,0,0,,5,,,65,127
95524,note_off,212,0,0,,5,,,65,127
95524,note_off,0,0,0,,5,,,53,127
95525,note_on,1,0,0,,2,,,50,127
95525,note_on,0,0,0,,10,,,69,127
95737,note_off,212,0,0,,10,,,69,127
95737,note_off,0,0,0,,2,,,50,127
95738,note_on,1,0,0,,2,,,50,127
95738,note_on,0,0,0,,10,,,69,127
95950,note_off,212,0,0,,10,,,69,127
95951,note_on,1,0,0,,4,,,64,127
96163,note_off,212,0,0,,4,,,64,127
96163,note_off,0,0,0,,2,,,50,127
96164,note_on,1,0,0,,10,,,57,127
96164,note_on,0,0,0,,0,,,48,127
96164,note_on,0,0,0,,0,,,72,127
96376,note_off,212,0,0,,0,,,72,127
96376,note_off,0,0,0,,0,,,48,127
96376,note_off,0,0,0,,10,,,57,127
96377,note_on,1,0,0,,10,,,57,127
96377,note_on,0,0,0,,0,,,48,127
96377,note_on,0,0,0,,0,,,72,127
96589,note_off,212,0,0,,0,,,72,127
96590,note_on,1,0,0,,10,,,69,127
96802,note_off,212,0,0,,10,,,69,127
96802,note_off,0,0,0,,0,,,48,127
96802,note_off,0,0,0,,10,,,57,127
96803,note_on,1,0,0,,10,,,57,127
96803,note_on,0,0,0,,0,,,48,127
96803,note_on,0,0,0,,4,,,76,127
97015,note_off,212,0,0,,4,,,76,127
97015,note_off,0,0,0,,0,,,48,127
97015,note_off,0,0,0,,10,,,57,127
97016,note_on,1,0,0,,10,,,57,127
97016,note_on,0,0,0,,2,,,50,127
97016,note_on,0,0,0,,10,,,69,127
97016,note_on,0,0,0,,5,,,77,127
97228,note_off,212,0,0,,5,,,77,127
97229,note_on,1,0,0,,4,,,76,127
97282,note_off,53,0,0,,10,,,69,127
97334,note_off,52,0,0,,4,,,76,127
97335,note_on,1,0,0,,2,,,74,127
97441,note_off,106,0,0,,2,,,74,127
97441,note_off,0,0,0,,2,,,50,127
97441,note_off,0,0,0,,10,,,57,127
97442,note_on,1,0,0,,2,,,50,127
97442,note_on,0,0,0,,10,,,57,127
97442,note_on,0,0,0,,0,,,72,127
97548,note_off,106,0,0,,0,,,72,127
97549,note_on,1,0,0,,12,,,71,127
97655,note_off,106,0,0,,12,,,71,127
97655,note_off,0,0,0,,10,,,57,127
97655,note_off,0,0,0,,2,,,50,127
97656,note_on,1,0,0,,4,,,52,127
97656,note_on,0,0,0,,10,,,69,127
97868,note_off,212,0,0,,10,,,69,127
97869,note_on,1,0,0,,10,,,69,127
97921,note_off,52,0,0,,10,,,69,127
97922,note_on,1,0,0,,8,,,68,127
97974,note_off,52,0,0,,8,,,68,127
97975,note_on,1,0,0,,10,,,69,127
98027,note_off,52,0,0,,10,,,69,127
98028,note_on,1,0,0,,8,,,68,127
98080,note_off,52,0,0,,8,,,68,127
98081,note_on,1,0,0,,4,,,40,127
98081,note_on,0,0,0,,10,,,69,127
98133,note_off,52,0,0,,10,,,69,127
98134,note_on,1,0,0,,8,,,68,127
98186,note_off,52,0,0,,8,,,68,127
98187,note_on,1,0,0,,6,,,66,127
98239,note_off,52,0,0,,6,,,66,127
98240,note_on,1,0,0,,8,,,68,127
98292,note_off,52,0,0,,8,,,68,127
98292,note_off,0,0,0,,4,,,40,127
98292,note_off,0,0,0,,4,,,52,127
98293,note_on,1,0,0,,10,,,57,127
98293,note_on,0,0,0,,10,,,69,127
98399,note_off,106,0,0,,10,,,57,127
98400,note_on,1,0,0,,4,,,64,127
98506,note_off,106,0,0,,4,,,64,127
98507,note_on,1,0,0,,1,,,61,127
98613,note_off,106,0,0,,1,,,61,127
98614,note_on,1,0,0,,4,,,64,127
98720,note_off,106,0,0,,4,,,64,127
98720,note_off,0,0,0,,10,,,69,127
98721,note_on,1,0,0,,10,,,57,127
98721,note_on,0,0,0,,4,,,76,127
98827,note_off,106,0,0,,10,,,57,127
98828,note_on,1,0,0,,4,,,64,127
98934,note_off,106,0,0,,4,,,64,127
98934,note_off,0,0,0,,4,,,76,127
98935,note_on,1,0,0,,8,,,56,127
98935,note_on,0,0,0,,4,,,76,127
99041,note_off,106,0,0,,8,,,56,127
99042,note_on,1,0,0,,4,,,64,127
99148,note_off,106,0,0,,4,,,64,127
99149,note_on,1,0,0,,4,,,52,127
99149,note_on,0,0,0,,12,,,71,127
99202,note_off,53,0,0,,4,,,76,127
99254,note_off,52,0,0,,4,,,52,127
99255,note_on,1,0,0,,4,,,64,127
99361,note_off,106,0,0,,4,,,64,127
99361,note_off,0,0,0,,12,,,71,127
99362,note_on,1,0,0,,8,,,56,127
99362,note_on,0,0,0,,4,,,76,127
99468,note_off,106,0,0,,8,,,56,127
99469,note_on,1,0,0,,4,,,64,127
99575,note_off,106,0,0,,4,,,64,127
99575,note_off,0,0,0,,4,,,76,127
99576,note_on,1,0,0,,10,,,57,127
99576,note_on,0,0,0,,4,,,76,127
99682,note_off,106,0,0,,10,,,57,127
99683,note_on,1,0,0,,4,,,64,127
99789,note_off,106,0,0,,4,,,64,127
99790,note_on,1,0,0,,1,,,61,127
99790,note_on,0,0,0,,1,,,73,127
99843,note_off,53,0,0,,4,,,76,127
99895,note_off,52,0,0,,1,,,61,127
99896,note_on,1,0,0,,4,,,64,127
100002,note_off,106,0,0,,4,,,64,127
100002,note_off,0,0,0,,1,,,73,127
100003,note_on,1,0,0,,10,,,57,127
100003,note_on,0,0,0,,4,,,76,127
100109,note_off,106,0,0,,10,,,57,127
100110,note_on,1,0,0,,4,,,64,127
100216,note_off,106,0,0,,4,,,64,127
100216,note_off,0,0,0,,4,,,76,127
100217,note_on,1,0,0,,8,,,56,127
100217,note_on,0,0,0,,4,,,76,127
100323,note_off,106,0,0,,8,,,56,127
100324,note_on,1,0,0,,4,,,64,127
100430,note_off,106,0,0,,4,,,64,127
100431,note_on,1,0,0,,4,,,52,127
100431,note_on,0,0,0,,12,,,71,127
100484,note_off,53,0,0,,4,,,76,127
100536,note_off,52,0,0,,4,,,52,127
100537,note_on,1,0,0,,4,,,64,127
100643,note_off,106,0,0,,4,,,64,127
100643,note_off,0,0,0,,12,,,71,127
100644,note_on,1,0,0,,8,,,56,127
100644,note_on,0,0,0,,4,,,76,127
100750,note_off,106,0,0,,8,,,56,127
100751,note_on,1,0,0,,4,,,64,127
100857,note_off,106,0,0,,4,,,64,127
100857,note_off,0,0,0,,4,,,76,127
100858,note_on,1,0,0,,10,,,57,127
100858,note_on,0,0,0,,4,,,76,127
100964,note_off,106,0,0,,10,,,57,127
100965,note_on,1,0,0,,4,,,64,127
101071,note_off,106,0,0,,4,,,64,127
101071,note_off,0,0,0,,4,,,76,127
101072,note_on,1,0,0,,12,,,59,127
101072,note_on,0,0,0,,10,,,81,127
101178,note_off,106,0,0,,12,,,59,127
101179,note_on,1,0,0,,4,,,64,127
101285,note_off,106,0,0,,4,,,64,127
101285,note_off,0,0,0,,10,,,81,127
101286,note_on,1,0,0,,1,,,61,127
101286,note_on,0,0,0,,4,,,76,127
101392,note_off,106,0,0,,1,,,61,127
101393,note_on,1,0,0,,4,,,64,127
101499,note_off,106,0,0,,4,,,64,127
101499,note_off,0,0,0,,4,,,76,127
101500,note_on,1,0,0,,2,,,62,127
101500,note_on,0,0,0,,6,,,78,127
101712,note_off,212,0,0,,6,,,78,127
101712,note_off,0,0,0,,2,,,62,127
101713,note_on,1,0,0,,4,,,64,127
101713,note_on,0,0,0,,4,,,76,127
101819,note_off,106,0,0,,4,,,76,127
101820,note_on,1,0,0,,2,,,74,127
101926,note_off,106,0,0,,2,,,74,127
101927,note_on,1,0,0,,4,,,52,127
101927,note_on,0,0,0,,1,,,73,127
102033,note_off,106,0,0,,1,,,73,127
102034,note_on,1,0,0,,12,,,71,127
102136,note_off,102,0,0,,4,,,64,127
102139,note_off,3,0,0,,12,,,71,127
102139,note_off,0,0,0,,4,,,52,127
102140,note_on,1,0,0,,10,,,57,127
102140,note_on,0,0,0,,10,,,69,127
102246,note_off,106,0,0,,10,,,57,127
102247,note_on,1,0,0,,4,,,64,127
102353,note_off,106,0,0,,4,,,64,127
102354,note_on,1,0,0,,1,,,61,127
102460,note_off,106,0,0,,1,,,61,127
102461,note_on,1,0,0,,4,,,64,127
102519,note_off,58,0,0,,10,,,69,127
102567,note_off,48,0,0,,4,,,64,127
102568,note_on,1,0,0,,10,,,57,127
102568,note_on,0,0,0,,4,,,76,127
102674,note_off,106,0,0,,10,,,57,127
102675,note_on,1,0,0,,4,,,64,127
102781,note_off,106,0,0,,4,,,64,127
102781,note_off,0,0,0,,4,,,76,127
102782,note_on,1,0,0,,8,,,56,127
102782,note_on,0,0,0,,4,,,76,127
102888,note_off,106,0,0,,8,,,56,127
102889,note_on,1,0,0,,4,,,64,127
102995,note_off,106,0,0,,4,,,64,127
102996,note_on,1,0,0,,4,,,52,127
102996,note_on,0,0,0,,12,,,71,127
103049,note_off,53,0,0,,4,,,76,127
103101,note_off,52,0,0,,4,,,52,127
103102,note_on,1,0,0,,4,,,64,127
103208,note_off,106,0,0,,4,,,64,127
103208,note_off,0,0,0,,12,,,71,127
103209,note_on,1,0,0,,8,,,56,127
103209,note_on,0,0,0,,4,,,76,127
103315,note_off,106,0,0,,8,,,56,127
103316,note_on,1,0,0,,4,,,64,127
103422,note_off,106,0,0,,4,,,64,127
103422,note_off,0,0,0,,4,,,76,127
103423,note_on,1,0,0,,10,,,57,127
103423,note_on,0,0,0,,4,,,76,127
103529,note_off,106,0,0,,10,,,57,127
103530,note_on,1,0,0,,4,,,64,127
103636,note_off,106,0,0,,4,,,64,127
103637,note_on,1,0,0,,1,,,61,127
103637,note_on,0,0,0,,1,,,73,127
103690,note_off,53,0,0,,4,,,76,127
103742,note_off,52,0,0,,1,,,61,127
103743,note_on,1,0,0,,4,,,64,127
103849,note_off,106,0,0,,4,,,64,127
103849,note_off,0,0,0,,1,,,73,127
103850,note_on,1,0,0,,10,,,57,127
103850,note_on,0,0,0,,4,,,76,127
103956,note_off,106,0,0,,10,,,57,127
103957,note_on,1,0,0,,4,,,64,127
104063,note_off,106,0,0,,4,,,64,127
104063,note_off,0,0,0,,4,,,76,127
104064,note_on,1,0,0,,8,,,56,127
104064,note_on,0,0,0,,4,,,76,127
104170,note_off,106,0,0,,8,,,56,127
104171,note_on,1,0,0,,4,,,64,127
104277,note_off,106,0,0,,4,,,64,127
104278,note_on,1,0,0,,4,,,52,127
104278,note_on,0,0,0,,12,,,71,127
104331,note_off,53,0,0,,4,,,76,127
104383,note_off,52,0,0,,4,,,52,127
104384,note_on,1,0,0,,4,,,64,127
104490,note_off,106,0,0,,4,,,64,127
104490,note_off,0,0,0,,12,,,71,127
104491,note_on,1,0,0,,8,,,56,127
104491,note_on,0,0,0,,4,,,76,127
104597,note_off,106,0,0,,8,,,56,127
104598,note_on,1,0,0,,4,,,64,127
104704,note_off,106,0,0,,4,,,64,127
104704,note_off,0,0,0,,4,,,76,127
104705,note_on,1,0,0,,10,,,57,127
104705,note_on,0,0,0,,4,,,76,127
104811,note_off,106,0,0,,10,,,57,127
104812,note_on,1,0,0,,4,,,64,127
104918,note_off,106,0,0,,4,,,64,127
104918,note_off,0,0,0,,4,,,76,127
104919,note_on,1,0,0,,12,,,59,127
104919,note_on,0,0,0,,10,,,81,127
105025,note_off,106,0,0,,12,,,59,127
105026,note_on,1,0,0,,4,,,64,127
105132,note_off,106,0,0,,4,,,64,127
105132,note_off,0,0,0,,10,,,81,127
105133,note_on,1,0,0,,1,,,61,127
105133,note_on,0,0,0,,4,,,76,127
105239,note_off,106,0,0,,1,,,61,127
105240,note_on,1,0,0,,4,,,64,127
105346,note_off,106,0,0,,4,,,64,127
105346,note_off,0,0,0,,4,,,76,127
105347,note_on,1,0,0,,2,,,62,127
105347,note_on,0,0,0,,6,,,78,127
105559,note_off,212,0,0,,6,,,78,127
105559,note_off,0,0,0,,2,,,62,127
105560,note_on,1,0,0,,4,,,64,127
105560,note_on,0,0,0,,4,,,76,127
105666,note_off,106,0,0,,4,,,76,127
105667,note_on,1,0,0,,2,,,74,127
105773,note_off,106,0,0,,2,,,74,127
105774,note_on,1,0,0,,4,,,52,127
105774,note_on,0,0,0,,1,,,73,127
105880,note_off,106,0,0,,1,,,73,127
105881,note_on,1,0,0,,12,,,71,127
105983,note_off,102,0,0,,4,,,64,127
105986,note_off,3,0,0,,12,,,71,127
105986,note_off,0,0,0,,4,,,52,127
105987,note_on,1,0,0,,10,,,57,127
105987,note_on,0,0,0,,10,,,69,127
106199,note_off,212,0,0,,10,,,57,127
106200,note_on,1,0,0,,12,,,59,127
106200,note_on,0,0,0,,10,,,81,127
106253,note_off,53,0,0,,10,,,69,127
106412,note_off,159,0,0,,10,,,81,127
106412,note_off,0,0,0,,12,,,59,127
106413,note_on,1,0,0,,1,,,61,127
106413,note_on,0,0,0,,10,,,69,127
106619,note_off,206,0,0,,10,,,69,127
106626,note_off,7,0,0,,1,,,61,127
106627,note_on,1,0,0,,2,,,62,127
106627,note_on,0,0,0,,6,,,78,127
106839,note_off,212,0,0,,6,,,78,127
106839,note_off,0,0,0,,2,,,62,127
106840,note_on,1,0,0,,4,,,64,127
106840,note_on,0,0,0,,4,,,76,127
106946,note_off,106,0,0,,4,,,76,127
106947,note_on,1,0,0,,2,,,74,127
107053,note_off,106,0,0,,2,,,74,127
107054,note_on,1,0,0,,4,,,52,127
107054,note_on,0,0,0,,1,,,73,127
107160,note_off,106,0,0,,1,,,73,127
107161,note_on,1,0,0,,12,,,71,127
107263,note_off,102,0,0,,4,,,64,127
107266,note_off,3,0,0,,12,,,71,127
107266,note_off,0,0,0,,4,,,52,127
107267,note_on,1,0,0,,10,,,57,127
107267,note_on,0,0,0,,10,,,69,127
107267,note_on,0,0,0,,1,,,73,127
107479,note_off,212,0,0,,1,,,73,127
107479,note_off,0,0,0,,10,,,57,127
107480,note_on,1,0,0,,12,,,59,127
107480,note_on,0,0,0,,10,,,81,127
107587,note_off,107,0,0,,10,,,69,127
107693,note_off,106,0,0,,10,,,81,127
107693,note_off,0,0,0,,12,,,59,127
107694,note_on,1,0,0,,1,,,61,127
107694,note_on,0,0,0,,10,,,69,127
107883,note_off,189,0,0,,10,,,69,127
107905,note_off,22,0,0,,1,,,61,127
107907,note_on,2,0,0,,2,,,62,127
107907,note_on,0,0,0,,6,,,78,127
108129,note_off,222,0,0,,6,,,78,127
108129,note_off,0,0,0,,2,,,62,127
108136,note_on,7,0,0,,4,,,64,127
108136,note_on,0,0,0,,4,,,76,127
108246,note_off,110,0,0,,4,,,76,127
108250,note_on,4,0,0,,2,,,74,127
108360,note_off,110,0,0,,2,,,74,127
108364,note_on,4,0,0,,4,,,52,127
108364,note_on,0,0,0,,1,,,73,127
108471,note_off,107,0,0,,4,,,64,127
108475,note_off,4,0,0,,1,,,73,127
108478,note_on,3,0,0,,12,,,71,127
108586,note_off,108,0,0,,4,,,52,127
108589,note_off,3,0,0,,12,,,71,127
108608,note_on,19,0,0,,10,,,45,127
108608,note_on,0,0,0,,10,,,69,127
110552,note_off,1944,0,0,,10,,,69,127
110552,note_off,0,0,0,,10,,,45,127
115200,end_of_track,4648,1,0,,,,,,
