tick,type,time,meta,track,program,channel,pitch,tempo,note,velocity
0,copyright,0,1,0,,,,,,
0,program_change,0,0,0,6,0,,,,
0,pitchwheel,0,0,0,,0,0,,,
0,program_change,0,0,0,6,1,,,,
0,pitchwheel,0,0,0,,1,-590,,,
0,program_change,0,0,0,6,2,,,,
0,pitchwheel,0,0,0,,2,-272,,,
0,program_change,0,0,0,6,3,,,,
0,pitchwheel,0,0,0,,3,-353,,,
0,program_change,0,0,0,6,4,,,,
0,pitchwheel,0,0,0,,4,-560,,,
0,program_change,0,0,0,6,5,,,,
0,pitchwheel,0,0,0,,5,-80,,,
0,program_change,0,0,0,6,6,,,,
0,pitchwheel,0,0,0,,6,-625,,,
0,program_change,0,0,0,6,7,,,,
0,pitchwheel,0,0,0,,7,-130,,,
0,program_change,0,0,0,6,8,,,,
0,pitchwheel,0,0,0,,8,-512,,,
0,program_change,0,0,0,6,10,,,,
0,pitchwheel,0,0,0,,10,-464,,,
0,program_change,0,0,0,6,11,,,,
0,pitchwheel,0,0,0,,11,-208,,,
0,program_change,0,0,0,6,12,,,,
0,pitchwheel,0,0,0,,12,-553,,,
0,set_tempo,0,1,0,,,,500000,,
82,note_on,82,0,0,,10,,,81,127
191,note_off,109,0,0,,10,,,81,127
192,note_on,1,0,0,,4,,,76,127
301,note_off,109,0,0,,4,,,76,127
302,note_on,1,0,0,,1,,,73,127
411,note_off,109,0,0,,1,,,73,127
412,note_on,1,0,0,,10,,,69,127
412,note_on,0,0,0,,1,,,73,127
740,note_off,328,0,0,,10,,,69,127
741,note_on,1,0,0,,10,,,69,127
1069,note_off,328,0,0,,10,,,69,127
1069,note_off,0,0,0,,1,,,73,127
1070,note_on,1,0,0,,6,,,66,127
1070,note_on,0,0,0,,2,,,74,127
1361,note_off,291,0,0,,2,,,74,127
1398,note_off,37,0,0,,6,,,66,127
1399,note_on,1,0,0,,4,,,76,127
1508,note_off,109,0,0,,4,,,76,127
1509,note_on,1,0,0,,1,,,73,127
1618,note_off,109,0,0,,1,,,73,127
1619,note_on,1,0,0,,10,,,69,127
1728,note_off,109,0,0,,10,,,69,127
1729,note_on,1,0,0,,1,,,61,127
1729,note_on,0,0,0,,10,,,69,127
2057,note_off,328,0,0,,1,,,61,127
2058,note_on,1,0,0,,2,,,62,127
2386,note_off,328,0,0,,2,,,62,127
2386,note_off,0,0,0,,10,,,69,127
2387,note_on,1,0,0,,4,,,64,127
2387,note_on,0,0,0,,12,,,71,127
2634,note_off,247,0,0,,12,,,71,127
2713,note_off,79,0,0,,4,,,64,127
2716,note_on,3,0,0,,10,,,69,127
2716,note_on,0,0,0,,1,,,73,127
2825,note_off,109,0,0,,10,,,69,127
2826,note_on,1,0,0,,4,,,64,127
2935,note_off,109,0,0,,4,,,64,127
2936,note_on,1,0,0,,1,,,61,127
3045,note_off,109,0,0,,1,,,61,127
3046,note_on,1,0,0,,1,,,61,127
3265,note_off,219,0,0,,1,,,73,127
3266,note_on,1,0,0,,2,,,74,127
3375,note_off,109,0,0,,2,,,74,127
3376,note_on,1,0,0,,4,,,76,127
3704,note_off,328,0,0,,4,,,76,127
3704,note_off,0,0,0,,1,,,61,127
3705,note_on,1,0,0,,2,,,62,127
3705,note_on,0,0,0,,6,,,78,127
3996,note_off,291,0,0,,6,,,78,127
4026,note_off,30,0,0,,2,,,62,127
4034,note_on,8,0,0,,4,,,64,127
4034,note_on,0,0,0,,10,,,69,127
4143,note_off,109,0,0,,4,,,64,127
4144,note_on,1,0,0,,1,,,61,127
4253,note_off,109,0,0,,1,,,61,127
4253,note_off,0,0,0,,10,,,69,127
4254,note_on,1,0,0,,10,,,57,127
4254,note_on,0,0,0,,8,,,68,127
4363,note_off,109,0,0,,8,,,68,127
4363,note_off,0,0,0,,10,,,57,127
4364,note_on,1,0,0,,10,,,57,127
4364,note_on,0,0,0,,10,,,69,127
4583,note_off,219,0,0,,10,,,69,127
4584,note_on,1,0,0,,12,,,71,127
4693,note_off,109,0,0,,12,,,71,127
4694,note_on,1,0,0,,1,,,73,127
5022,note_off,328,0,0,,1,,,73,127
5022,note_off,0,0,0,,10,,,57,127
5023,note_on,1,0,0,,12,,,59,127
5023,note_on,0,0,0,,2,,,74,127
5314,note_off,291,0,0,,2,,,74,127
5347,note_off,33,0,0,,12,,,59,127
5356,note_on,9,0,0,,4,,,76,127
5356,note_on,0,0,0,,1,,,61,127
5465,note_off,109,0,0,,1,,,61,127
5466,note_on,1,0,0,,2,,,62,127
5575,note_off,109,0,0,,2,,,62,127
5576,note_on,1,0,0,,4,,,64,127
5685,note_off,109,0,0,,4,,,64,127
5685,note_off,0,0,0,,4,,,76,127
5686,note_on,1,0,0,,6,,,78,127
5686,note_on,0,0,0,,2,,,62,127
6014,note_off,328,0,0,,2,,,62,127
6014,note_off,0,0,0,,6,,,78,127
6015,note_on,1,0,0,,8,,,68,127
6015,note_on,0,0,0,,4,,,64,127
6124,note_off,109,0,0,,4,,,64,127
6125,note_on,1,0,0,,6,,,66,127
6230,note_off,105,0,0,,8,,,68,127
6234,note_off,4,0,0,,6,,,66,127
6235,note_on,1,0,0,,8,,,68,127
6344,note_off,109,0,0,,8,,,68,127
6345,note_on,1,0,0,,10,,,69,127
6345,note_on,0,0,0,,6,,,66,127
6673,note_off,328,0,0,,6,,,66,127
6673,note_off,0,0,0,,10,,,69,127
6674,note_on,1,0,0,,12,,,71,127
6674,note_on,0,0,0,,8,,,68,127
6783,note_off,109,0,0,,12,,,71,127
6784,note_on,1,0,0,,1,,,73,127
6893,note_off,109,0,0,,1,,,73,127
6894,note_on,1,0,0,,2,,,74,127
7003,note_off,109,0,0,,2,,,74,127
7003,note_off,0,0,0,,8,,,68,127
7004,note_on,1,0,0,,2,,,74,127
7004,note_on,0,0,0,,10,,,69,127
7333,note_on,329,0,0,,10,,,57,127
7661,note_off,328,0,0,,10,,,69,127
7661,note_off,0,0,0,,2,,,74,127
7662,note_on,1,0,0,,1,,,73,127
7826,note_off,164,0,0,,10,,,57,127
7989,note_off,163,0,0,,1,,,73,127
8005,note_on,16,0,0,,1,,,85,127
8115,note_on,110,0,0,,6,,,78,127
8220,note_off,105,0,0,,1,,,85,127
8224,note_off,4,0,0,,6,,,78,127
8225,note_on,1,0,0,,5,,,77,127
8334,note_off,109,0,0,,5,,,77,127
8335,note_on,1,0,0,,1,,,73,127
8335,note_on,0,0,0,,10,,,69,127
8335,note_on,0,0,0,,6,,,78,127
8444,note_off,109,0,0,,6,,,78,127
8445,note_on,1,0,0,,5,,,77,127
8554,note_off,109,0,0,,5,,,77,127
8555,note_on,1,0,0,,6,,,78,127
8664,note_off,109,0,0,,6,,,78,127
8665,note_on,1,0,0,,12,,,83,127
8775,note_on,110,0,0,,4,,,76,127
8829,note_off,54,0,0,,10,,,69,127
8829,note_off,0,0,0,,1,,,73,127
8880,note_off,51,0,0,,12,,,83,127
8884,note_off,4,0,0,,4,,,76,127
8885,note_on,1,0,0,,3,,,75,127
8994,note_off,109,0,0,,3,,,75,127
8995,note_on,1,0,0,,12,,,71,127
8995,note_on,0,0,0,,8,,,68,127
8995,note_on,0,0,0,,4,,,76,127
9104,note_off,109,0,0,,4,,,76,127
9105,note_on,1,0,0,,3,,,75,127
9214,note_off,109,0,0,,3,,,75,127
9215,note_on,1,0,0,,4,,,76,127
9324,note_off,109,0,0,,4,,,76,127
9325,note_on,1,0,0,,6,,,78,127
9433,note_off,108,0,0,,12,,,71,127
9434,note_off,1,0,0,,6,,,78,127
9435,note_on,1,0,0,,12,,,71,127
9489,note_off,54,0,0,,8,,,68,127
9544,note_off,55,0,0,,12,,,71,127
9545,note_on,1,0,0,,11,,,70,127
9654,note_off,109,0,0,,11,,,70,127
9655,note_on,1,0,0,,3,,,63,127
9655,note_on,0,0,0,,6,,,66,127
9655,note_on,0,0,0,,12,,,71,127
9764,note_off,109,0,0,,12,,,71,127
9765,note_on,1,0,0,,11,,,70,127
9874,note_off,109,0,0,,11,,,70,127
9875,note_on,1,0,0,,12,,,71,127
9984,note_off,109,0,0,,12,,,71,127
9985,note_on,1,0,0,,8,,,80,127
10094,note_off,109,0,0,,8,,,80,127
10095,note_on,1,0,0,,4,,,76,127
10149,note_off,54,0,0,,6,,,66,127
10149,note_off,0,0,0,,3,,,63,127
10204,note_off,55,0,0,,4,,,76,127
10205,note_on,1,0,0,,3,,,75,127
10314,note_off,109,0,0,,3,,,75,127
10315,note_on,1,0,0,,8,,,68,127
10315,note_on,0,0,0,,4,,,64,127
10315,note_on,0,0,0,,4,,,76,127
10424,note_off,109,0,0,,4,,,76,127
10425,note_on,1,0,0,,3,,,75,127
10534,note_off,109,0,0,,3,,,75,127
10535,note_on,1,0,0,,4,,,76,127
10644,note_off,109,0,0,,4,,,76,127
10659,note_on,15,0,0,,2,,,86,127
10693,note_off,34,0,0,,4,,,64,127
10693,note_off,0,0,0,,8,,,68,127
10768,note_on,75,0,0,,8,,,80,127
10873,note_off,105,0,0,,2,,,86,127
10877,note_off,4,0,0,,8,,,80,127
10878,note_on,1,0,0,,6,,,78,127
10987,note_off,109,0,0,,6,,,78,127
10988,note_on,1,0,0,,8,,,80,127
10988,note_on,0,0,0,,12,,,71,127
10988,note_on,0,0,0,,2,,,74,127
11097,note_off,109,0,0,,8,,,80,127
11098,note_on,1,0,0,,6,,,78,127
11207,note_off,109,0,0,,6,,,78,127
11208,note_on,1,0,0,,8,,,80,127
11317,note_off,109,0,0,,8,,,80,127
11318,note_on,1,0,0,,1,,,85,127
11428,note_on,110,0,0,,6,,,78,127
11482,note_off,54,0,0,,2,,,74,127
11482,note_off,0,0,0,,12,,,71,127
11533,note_off,51,0,0,,1,,,85,127
11537,note_off,4,0,0,,6,,,78,127
11538,note_on,1,0,0,,5,,,77,127
11647,note_off,109,0,0,,5,,,77,127
11648,note_on,1,0,0,,6,,,78,127
11648,note_on,0,0,0,,10,,,69,127
11648,note_on,0,0,0,,1,,,73,127
11757,note_off,109,0,0,,6,,,78,127
11758,note_on,1,0,0,,5,,,77,127
11867,note_off,109,0,0,,5,,,77,127
11868,note_on,1,0,0,,6,,,78,127
11977,note_off,109,0,0,,6,,,78,127
11977,note_off,0,0,0,,1,,,73,127
11978,note_on,1,0,0,,8,,,80,127
12087,note_off,109,0,0,,8,,,80,127
12088,note_on,1,0,0,,1,,,73,127
12142,note_off,54,0,0,,10,,,69,127
12197,note_off,55,0,0,,1,,,73,127
12198,note_on,1,0,0,,0,,,72,127
12307,note_off,109,0,0,,0,,,72,127
12308,note_on,1,0,0,,1,,,73,127
12308,note_on,0,0,0,,5,,,65,127
12308,note_on,0,0,0,,8,,,68,127
12417,note_off,109,0,0,,1,,,73,127
12418,note_on,1,0,0,,0,,,72,127
12527,note_off,109,0,0,,0,,,72,127
12528,note_on,1,0,0,,1,,,73,127
12637,note_off,109,0,0,,1,,,73,127
12638,note_on,1,0,0,,10,,,81,127
12748,note_on,110,0,0,,6,,,78,127
12802,note_off,54,0,0,,8,,,68,127
12802,note_off,0,0,0,,5,,,65,127
12853,note_off,51,0,0,,10,,,81,127
12857,note_off,4,0,0,,6,,,78,127
12858,note_on,1,0,0,,5,,,77,127
12967,note_off,109,0,0,,5,,,77,127
12968,note_on,1,0,0,,6,,,78,127
12968,note_on,0,0,0,,10,,,69,127
12968,note_on,0,0,0,,6,,,66,127
13077,note_off,109,0,0,,6,,,78,127
13078,note_on,1,0,0,,5,,,77,127
13187,note_off,109,0,0,,5,,,77,127
13202,note_on,15,0,0,,6,,,78,127
13311,note_off,109,0,0,,6,,,78,127
13312,note_on,1,0,0,,10,,,81,127
13381,note_off,69,0,0,,6,,,66,127
13381,note_off,0,0,0,,10,,,69,127
13422,note_on,41,0,0,,6,,,78,127
13531,note_off,109,0,0,,6,,,78,127
13532,note_on,1,0,0,,5,,,77,127
13548,note_off,16,0,0,,10,,,81,127
13641,note_off,93,0,0,,5,,,77,127
13642,note_on,1,0,0,,6,,,66,127
13642,note_on,0,0,0,,2,,,62,127
13642,note_on,0,0,0,,10,,,69,127
13642,note_on,0,0,0,,6,,,78,127
13751,note_off,109,0,0,,6,,,78,127
13752,note_on,1,0,0,,5,,,77,127
13861,note_off,109,0,0,,5,,,77,127
13862,note_on,1,0,0,,6,,,78,127
13971,note_off,109,0,0,,6,,,78,127
13972,note_on,1,0,0,,10,,,81,127
14082,note_on,110,0,0,,4,,,76,127
14191,note_off,109,0,0,,4,,,76,127
14192,note_on,1,0,0,,3,,,75,127
14201,note_off,9,0,0,,10,,,69,127
14201,note_off,0,0,0,,2,,,62,127
14201,note_off,0,0,0,,6,,,66,127
14230,note_off,29,0,0,,10,,,81,127
14301,note_off,71,0,0,,3,,,75,127
14302,note_on,1,0,0,,4,,,64,127
14302,note_on,0,0,0,,1,,,61,127
14302,note_on,0,0,0,,10,,,69,127
14302,note_on,0,0,0,,4,,,76,127
14411,note_off,109,0,0,,4,,,76,127
14412,note_on,1,0,0,,3,,,75,127
14521,note_off,109,0,0,,3,,,75,127
14522,note_on,1,0,0,,4,,,76,127
14631,note_off,109,0,0,,4,,,76,127
14632,note_on,1,0,0,,10,,,81,127
14742,note_on,110,0,0,,2,,,74,127
14851,note_off,109,0,0,,2,,,74,127
14852,note_on,1,0,0,,1,,,73,127
14903,note_off,51,0,0,,10,,,69,127
14903,note_off,0,0,0,,1,,,61,127
14909,note_off,6,0,0,,4,,,64,127
14911,note_off,2,0,0,,10,,,81,127
14961,note_off,50,0,0,,1,,,73,127
14962,note_on,1,0,0,,12,,,59,127
14962,note_on,0,0,0,,2,,,62,127
14962,note_on,0,0,0,,2,,,74,127
15071,note_off,109,0,0,,2,,,74,127
15072,note_on,1,0,0,,1,,,73,127
15181,note_off,109,0,0,,1,,,73,127
15182,note_on,1,0,0,,2,,,74,127
15291,note_off,109,0,0,,2,,,74,127
15292,note_on,1,0,0,,10,,,81,127
15402,note_on,110,0,0,,1,,,73,127
15511,note_off,109,0,0,,1,,,73,127
15512,note_on,1,0,0,,12,,,71,127
15593,note_off,81,0,0,,10,,,81,127
15607,note_off,14,0,0,,2,,,62,127
15607,note_off,0,0,0,,12,,,59,127
15622,note_off,15,0,0,,12,,,71,127
15623,note_on,1,0,0,,10,,,57,127
15623,note_on,0,0,0,,1,,,61,127
15623,note_on,0,0,0,,1,,,73,127
15732,note_off,109,0,0,,1,,,73,127
15733,note_on,1,0,0,,12,,,71,127
15842,note_off,109,0,0,,12,,,71,127
15843,note_on,1,0,0,,1,,,73,127
15952,note_off,109,0,0,,1,,,61,127
15952,note_off,0,0,0,,10,,,57,127
15973,note_on,21,0,0,,1,,,85,127
15973,note_on,0,0,0,,10,,,57,127
15981,note_off,8,0,0,,1,,,73,127
16082,note_off,101,0,0,,10,,,57,127
16083,note_on,1,0,0,,10,,,69,127
16192,note_off,109,0,0,,10,,,69,127
16193,note_on,1,0,0,,1,,,73,127
16302,note_off,109,0,0,,1,,,73,127
16302,note_off,0,0,0,,1,,,85,127
16303,note_on,1,0,0,,12,,,83,127
16303,note_on,0,0,0,,4,,,52,127
16412,note_off,109,0,0,,4,,,52,127
16413,note_on,1,0,0,,4,,,64,127
16522,note_off,109,0,0,,4,,,64,127
16523,note_on,1,0,0,,8,,,68,127
16632,note_off,109,0,0,,8,,,68,127
16632,note_off,0,0,0,,12,,,83,127
16633,note_on,1,0,0,,10,,,81,127
16633,note_on,0,0,0,,10,,,45,127
16742,note_off,109,0,0,,10,,,45,127
16743,note_on,1,0,0,,10,,,57,127
16852,note_off,109,0,0,,10,,,57,127
16853,note_on,1,0,0,,1,,,61,127
16962,note_off,109,0,0,,1,,,61,127
16962,note_off,0,0,0,,10,,,81,127
16963,note_on,1,0,0,,12,,,83,127
16963,note_on,0,0,0,,4,,,40,127
17291,note_off,328,0,0,,4,,,40,127
17291,note_off,0,0,0,,12,,,83,127
17292,note_on,1,0,0,,1,,,85,127
17292,note_on,0,0,0,,10,,,57,127
17401,note_off,109,0,0,,10,,,57,127
17402,note_on,1,0,0,,10,,,69,127
17511,note_off,109,0,0,,10,,,69,127
17512,note_on,1,0,0,,1,,,73,127
17621,note_off,109,0,0,,1,,,73,127
17621,note_off,0,0,0,,1,,,85,127
17622,note_on,1,0,0,,12,,,83,127
17622,note_on,0,0,0,,4,,,52,127
17731,note_off,109,0,0,,4,,,52,127
17732,note_on,1,0,0,,4,,,64,127
17841,note_off,109,0,0,,4,,,64,127
17842,note_on,1,0,0,,8,,,68,127
17951,note_off,109,0,0,,8,,,68,127
17951,note_off,0,0,0,,12,,,83,127
17952,note_on,1,0,0,,10,,,81,127
17952,note_on,0,0,0,,10,,,45,127
18061,note_off,109,0,0,,10,,,45,127
18062,note_on,1,0,0,,10,,,57,127
18171,note_off,109,0,0,,10,,,57,127
18172,note_on,1,0,0,,1,,,61,127
18281,note_off,109,0,0,,1,,,61,127
18281,note_off,0,0,0,,10,,,81,127
18282,note_on,1,0,0,,12,,,83,127
18282,note_on,0,0,0,,4,,,40,127
18610,note_off,328,0,0,,4,,,40,127
18610,note_off,0,0,0,,12,,,83,127
18611,note_on,1,0,0,,10,,,81,127
18611,note_on,0,0,0,,6,,,42,127
18720,note_off,109,0,0,,6,,,42,127
18721,note_on,1,0,0,,6,,,54,127
18830,note_off,109,0,0,,6,,,54,127
18831,note_on,1,0,0,,10,,,57,127
18940,note_off,109,0,0,,10,,,57,127
18940,note_off,0,0,0,,10,,,81,127
18941,note_on,1,0,0,,12,,,83,127
18941,note_on,0,0,0,,8,,,44,127
19050,note_off,109,0,0,,8,,,44,127
19051,note_on,1,0,0,,8,,,56,127
19160,note_off,109,0,0,,8,,,56,127
19161,note_on,1,0,0,,12,,,59,127
19270,note_off,109,0,0,,12,,,59,127
19270,note_off,0,0,0,,12,,,83,127
19271,note_on,1,0,0,,1,,,85,127
19271,note_on,0,0,0,,10,,,45,127
19380,note_off,109,0,0,,10,,,45,127
19381,note_on,1,0,0,,10,,,57,127
19490,note_off,109,0,0,,10,,,57,127
19491,note_on,1,0,0,,1,,,61,127
19600,note_off,109,0,0,,1,,,61,127
19600,note_off,0,0,0,,1,,,85,127
19601,note_on,1,0,0,,8,,,80,127
19601,note_on,0,0,0,,12,,,47,127
19710,note_off,109,0,0,,12,,,47,127
19711,note_on,1,0,0,,12,,,59,127
19820,note_off,109,0,0,,12,,,59,127
19821,note_on,1,0,0,,2,,,62,127
19930,note_off,109,0,0,,2,,,62,127
19930,note_off,0,0,0,,8,,,80,127
19931,note_on,1,0,0,,10,,,81,127
19931,note_on,0,0,0,,1,,,49,127
20040,note_off,109,0,0,,1,,,49,127
20041,note_on,1,0,0,,1,,,61,127
20150,note_off,109,0,0,,1,,,61,127
20151,note_on,1,0,0,,4,,,64,127
20260,note_off,109,0,0,,4,,,64,127
20260,note_off,0,0,0,,10,,,81,127
20261,note_on,1,0,0,,6,,,78,127
20261,note_on,0,0,0,,3,,,51,127
20370,note_off,109,0,0,,3,,,51,127
20371,note_on,1,0,0,,3,,,63,127
20480,note_off,109,0,0,,3,,,63,127
20481,note_on,1,0,0,,6,,,66,127
20590,note_off,109,0,0,,6,,,66,127
20590,note_off,0,0,0,,6,,,78,127
20591,note_on,1,0,0,,8,,,80,127
20591,note_on,0,0,0,,4,,,52,127
20700,note_off,109,0,0,,8,,,80,127
20701,note_on,1,0,0,,12,,,83,127
20810,note_off,109,0,0,,12,,,83,127
20811,note_on,1,0,0,,10,,,81,127
20920,note_off,109,0,0,,10,,,81,127
20921,note_on,1,0,0,,12,,,83,127
21030,note_off,109,0,0,,12,,,83,127
21031,note_on,1,0,0,,8,,,80,127
21140,note_off,109,0,0,,8,,,80,127
21141,note_on,1,0,0,,6,,,78,127
21250,note_off,109,0,0,,6,,,78,127
21250,note_off,0,0,0,,4,,,52,127
21251,note_on,1,0,0,,8,,,80,127
21251,note_on,0,0,0,,4,,,64,127
21360,note_off,109,0,0,,8,,,80,127
21361,note_on,1,0,0,,4,,,76,127
21470,note_off,109,0,0,,4,,,76,127
21471,note_on,1,0,0,,3,,,75,127
21580,note_off,109,0,0,,3,,,75,127
21581,note_on,1,0,0,,4,,,76,127
21690,note_off,109,0,0,,4,,,76,127
21691,note_on,1,0,0,,1,,,73,127
21800,note_off,109,0,0,,1,,,73,127
21801,note_on,1,0,0,,12,,,71,127
21910,note_off,109,0,0,,12,,,71,127
21910,note_off,0,0,0,,4,,,64,127
21911,note_on,1,0,0,,1,,,73,127
21911,note_on,0,0,0,,10,,,57,127
22020,note_off,109,0,0,,1,,,73,127
22021,note_on,1,0,0,,10,,,69,127
22130,note_off,109,0,0,,10,,,69,127
22131,note_on,1,0,0,,8,,,68,127
22240,note_off,109,0,0,,8,,,68,127
22241,note_on,1,0,0,,10,,,69,127
22350,note_off,109,0,0,,10,,,69,127
22351,note_on,1,0,0,,1,,,73,127
22460,note_off,109,0,0,,1,,,73,127
22461,note_on,1,0,0,,12,,,71,127
22570,note_off,109,0,0,,12,,,71,127
22570,note_off,0,0,0,,10,,,57,127
22571,note_on,1,0,0,,1,,,73,127
22571,note_on,0,0,0,,12,,,59,127
22680,note_off,109,0,0,,1,,,73,127
22681,note_on,1,0,0,,12,,,71,127
22790,note_off,109,0,0,,12,,,71,127
22791,note_on,1,0,0,,10,,,69,127
22900,note_off,109,0,0,,10,,,69,127
22901,note_on,1,0,0,,10,,,69,127
22901,note_on,0,0,0,,12,,,71,127
23010,note_off,109,0,0,,12,,,71,127
23010,note_off,0,0,0,,10,,,69,127
23011,note_on,1,0,0,,8,,,68,127
23120,note_off,109,0,0,,8,,,68,127
23121,note_on,1,0,0,,6,,,66,127
23228,note_off,107,0,0,,12,,,59,127
23230,note_off,2,0,0,,6,,,66,127
23231,note_on,1,0,0,,8,,,68,127
23341,note_on,110,0,0,,4,,,64,127
23450,note_off,109,0,0,,4,,,64,127
23451,note_on,1,0,0,,3,,,63,127
23560,note_off,109,0,0,,3,,,63,127
23561,note_on,1,0,0,,4,,,64,127
23670,note_off,109,0,0,,4,,,64,127
23671,note_on,1,0,0,,1,,,61,127
23780,note_off,109,0,0,,1,,,61,127
23781,note_on,1,0,0,,12,,,59,127
23890,note_off,109,0,0,,12,,,59,127
23890,note_off,0,0,0,,8,,,68,127
23891,note_on,1,0,0,,4,,,64,127
23891,note_on,0,0,0,,1,,,61,127
24000,note_off,109,0,0,,1,,,61,127
24001,note_on,1,0,0,,10,,,57,127
24110,note_off,109,0,0,,10,,,57,127
24111,note_on,1,0,0,,8,,,56,127
24220,note_off,109,0,0,,8,,,56,127
24220,note_off,0,0,0,,4,,,64,127
24221,note_on,1,0,0,,1,,,73,127
24221,note_on,0,0,0,,10,,,57,127
24330,note_off,109,0,0,,10,,,57,127
24331,note_on,1,0,0,,6,,,54,127
24440,note_off,109,0,0,,6,,,54,127
24441,note_on,1,0,0,,4,,,52,127
24550,note_off,109,0,0,,4,,,52,127
24550,note_off,0,0,0,,1,,,73,127
24551,note_on,1,0,0,,10,,,69,127
24551,note_on,0,0,0,,6,,,54,127
24660,note_off,109,0,0,,6,,,54,127
24661,note_on,1,0,0,,3,,,51,127
24770,note_off,109,0,0,,3,,,51,127
24771,note_on,1,0,0,,1,,,49,127
24880,note_off,109,0,0,,1,,,49,127
24880,note_off,0,0,0,,10,,,69,127
24881,note_on,1,0,0,,6,,,78,127
24881,note_on,0,0,0,,3,,,51,127
24990,note_off,109,0,0,,3,,,51,127
24991,note_on,1,0,0,,12,,,47,127
25100,note_off,109,0,0,,12,,,47,127
25101,note_on,1,0,0,,11,,,46,127
25210,note_off,109,0,0,,11,,,46,127
25210,note_off,0,0,0,,6,,,78,127
25211,note_on,1,0,0,,3,,,75,127
25211,note_on,0,0,0,,12,,,47,127
25320,note_off,109,0,0,,12,,,47,127
25321,note_on,1,0,0,,8,,,44,127
25430,note_off,109,0,0,,8,,,44,127
25431,note_on,1,0,0,,6,,,42,127
25540,note_off,109,0,0,,6,,,42,127
25540,note_off,0,0,0,,3,,,75,127
25541,note_on,1,0,0,,12,,,71,127
25541,note_on,0,0,0,,8,,,44,127
25650,note_off,109,0,0,,8,,,44,127
25651,note_on,1,0,0,,4,,,40,127
25760,note_off,109,0,0,,4,,,40,127
25761,note_on,1,0,0,,3,,,39,127
25870,note_off,109,0,0,,3,,,39,127
25870,note_off,0,0,0,,12,,,71,127
25871,note_on,1,0,0,,4,,,40,127
25981,note_on,110,0,0,,12,,,83,127
26090,note_off,109,0,0,,12,,,83,127
26091,note_on,1,0,0,,10,,,81,127
26200,note_off,109,0,0,,10,,,81,127
26201,note_on,1,0,0,,12,,,83,127
26310,note_off,109,0,0,,12,,,83,127
26311,note_on,1,0,0,,8,,,80,127
26420,note_off,109,0,0,,8,,,80,127
26421,note_on,1,0,0,,6,,,78,127
26530,note_off,109,0,0,,6,,,78,127
26531,note_on,1,0,0,,8,,,80,127
26531,note_on,0,0,0,,4,,,52,127
26531,note_on,0,0,0,,8,,,44,127
26531,note_on,0,0,0,,12,,,47,127
26640,note_off,109,0,0,,8,,,80,127
26641,note_on,1,0,0,,4,,,76,127
26750,note_off,109,0,0,,4,,,76,127
26751,note_on,1,0,0,,3,,,75,127
26860,note_off,109,0,0,,3,,,75,127
26861,note_on,1,0,0,,4,,,76,127
26970,note_off,109,0,0,,4,,,76,127
26971,note_on,1,0,0,,1,,,73,127
27080,note_off,109,0,0,,1,,,73,127
27081,note_on,1,0,0,,12,,,71,127
27160,note_off,79,0,0,,4,,,40,127
27190,note_off,30,0,0,,12,,,71,127
27190,note_off,0,0,0,,12,,,47,127
27190,note_off,0,0,0,,8,,,44,127
27190,note_off,0,0,0,,4,,,52,127
27191,note_on,1,0,0,,1,,,73,127
27191,note_on,0,0,0,,10,,,45,127
27300,note_off,109,0,0,,1,,,73,127
27301,note_on,1,0,0,,4,,,76,127
27410,note_off,109,0,0,,4,,,76,127
27411,note_on,1,0,0,,3,,,75,127
27520,note_off,109,0,0,,3,,,75,127
27521,note_on,1,0,0,,1,,,73,127
27521,note_on,0,0,0,,10,,,57,127
27630,note_off,109,0,0,,1,,,73,127
27631,note_on,1,0,0,,12,,,71,127
27740,note_off,109,0,0,,12,,,71,127
27741,note_on,1,0,0,,10,,,69,127
27798,note_off,57,0,0,,10,,,45,127
27849,note_off,51,0,0,,10,,,69,127
27849,note_off,0,0,0,,10,,,57,127
27850,note_on,1,0,0,,8,,,68,127
27850,note_on,0,0,0,,8,,,56,127
27850,note_on,0,0,0,,4,,,52,127
27850,note_on,0,0,0,,12,,,47,127
27959,note_off,109,0,0,,8,,,68,127
27960,note_on,1,0,0,,12,,,71,127
28069,note_off,109,0,0,,12,,,71,127
28070,note_on,1,0,0,,4,,,64,127
28179,note_off,109,0,0,,4,,,64,127
28179,note_off,0,0,0,,12,,,47,127
28179,note_off,0,0,0,,4,,,52,127
28179,note_off,0,0,0,,8,,,56,127
28180,note_on,1,0,0,,6,,,66,127
28180,note_on,0,0,0,,12,,,47,127
28180,note_on,0,0,0,,10,,,57,127
28180,note_on,0,0,0,,4,,,52,127
28180,note_on,0,0,0,,6,,,54,127
28289,note_off,109,0,0,,6,,,66,127
28290,note_on,1,0,0,,4,,,64,127
28399,note_off,109,0,0,,4,,,64,127
28400,note_on,1,0,0,,3,,,63,127
28509,note_off,109,0,0,,3,,,63,127
28509,note_off,0,0,0,,6,,,54,127
28509,note_off,0,0,0,,4,,,52,127
28509,note_off,0,0,0,,10,,,57,127
28509,note_off,0,0,0,,12,,,47,127
28510,note_on,1,0,0,,4,,,64,127
28510,note_on,0,0,0,,4,,,52,127
28510,note_on,0,0,0,,4,,,40,127
29067,note_off,557,0,0,,4,,,64,127
29167,note_off,100,0,0,,4,,,40,127
29167,note_off,0,0,0,,4,,,52,127
29195,note_on,28,0,0,,12,,,71,127
29304,note_off,109,0,0,,12,,,71,127
29305,note_on,1,0,0,,12,,,71,127
29414,note_off,109,0,0,,12,,,71,127
29415,note_on,1,0,0,,12,,,71,127
29524,note_off,109,0,0,,12,,,71,127
29525,note_on,1,0,0,,12,,,71,127
29525,note_on,0,0,0,,7,,,55,127
29634,note_off,109,0,0,,12,,,71,127
29635,note_on,1,0,0,,12,,,71,127
29744,note_off,109,0,0,,12,,,71,127
29745,note_on,1,0,0,,12,,,71,127
29854,note_off,109,0,0,,12,,,71,127
29855,note_on,1,0,0,,12,,,71,127
29855,note_on,0,0,0,,12,,,59,127
29964,note_off,109,0,0,,12,,,71,127
29965,note_on,1,0,0,,12,,,71,127
30074,note_off,109,0,0,,12,,,71,127
30075,note_on,1,0,0,,12,,,71,127
30184,note_off,109,0,0,,12,,,71,127
30184,note_off,0,0,0,,12,,,59,127
30185,note_on,1,0,0,,12,,,71,127
30185,note_on,0,0,0,,4,,,64,127
30294,note_off,109,0,0,,12,,,71,127
30295,note_on,1,0,0,,12,,,71,127
30404,note_off,109,0,0,,12,,,71,127
30405,note_on,1,0,0,,12,,,71,127
30514,note_off,109,0,0,,12,,,71,127
30514,note_off,0,0,0,,4,,,64,127
30514,note_off,0,0,0,,7,,,55,127
30515,note_on,1,0,0,,4,,,76,127
30624,note_off,109,0,0,,4,,,76,127
30625,note_on,1,0,0,,4,,,76,127
30734,note_off,109,0,0,,4,,,76,127
30735,note_on,1,0,0,,4,,,76,127
30844,note_off,109,0,0,,4,,,76,127
30845,note_on,1,0,0,,4,,,76,127
30845,note_on,0,0,0,,10,,,57,127
30954,note_off,109,0,0,,4,,,76,127
30955,note_on,1,0,0,,4,,,76,127
31064,note_off,109,0,0,,4,,,76,127
31065,note_on,1,0,0,,4,,,76,127
31174,note_off,109,0,0,,4,,,76,127
31175,note_on,1,0,0,,4,,,76,127
31175,note_on,0,0,0,,0,,,60,127
31284,note_off,109,0,0,,4,,,76,127
31285,note_on,1,0,0,,4,,,76,127
31394,note_off,109,0,0,,4,,,76,127
31395,note_on,1,0,0,,4,,,76,127
31504,note_off,109,0,0,,4,,,76,127
31504,note_off,0,0,0,,0,,,60,127
31505,note_on,1,0,0,,4,,,76,127
31505,note_on,0,0,0,,4,,,64,127
31614,note_off,109,0,0,,4,,,76,127
31615,note_on,1,0,0,,4,,,76,127
31724,note_off,109,0,0,,4,,,76,127
31725,note_on,1,0,0,,4,,,76,127
31834,note_off,109,0,0,,4,,,76,127
31834,note_off,0,0,0,,4,,,64,127
31834,note_off,0,0,0,,10,,,57,127
31835,note_on,1,0,0,,12,,,83,127
31944,note_off,109,0,0,,12,,,83,127
31945,note_on,1,0,0,,12,,,83,127
32054,note_off,109,0,0,,12,,,83,127
32055,note_on,1,0,0,,12,,,83,127
32164,note_off,109,0,0,,12,,,83,127
32165,note_on,1,0,0,,12,,,83,127
32165,note_on,0,0,0,,7,,,55,127
32274,note_off,109,0,0,,12,,,83,127
32275,note_on,1,0,0,,12,,,83,127
32384,note_off,109,0,0,,12,,,83,127
32385,note_on,1,0,0,,12,,,83,127
32494,note_off,109,0,0,,12,,,83,127
32495,note_on,1,0,0,,12,,,83,127
32495,note_on,0,0,0,,12,,,59,127
32604,note_off,109,0,0,,12,,,83,127
32605,note_on,1,0,0,,12,,,83,127
32714,note_off,109,0,0,,12,,,83,127
32715,note_on,1,0,0,,12,,,83,127
32824,note_off,109,0,0,,12,,,83,127
32824,note_off,0,0,0,,12,,,59,127
32825,note_on,1,0,0,,12,,,83,127
32825,note_on,0,0,0,,4,,,64,127
32934,note_off,109,0,0,,12,,,83,127
32935,note_on,1,0,0,,12,,,83,127
33044,note_off,109,0,0,,12,,,83,127
33045,note_on,1,0,0,,12,,,83,127
33154,note_off,109,0,0,,12,,,83,127
33154,note_off,0,0,0,,4,,,64,127
33154,note_off,0,0,0,,7,,,55,127
33155,note_on,1,0,0,,0,,,84,127
33155,note_on,0,0,0,,10,,,57,127
33264,note_off,109,0,0,,0,,,84,127
33265,note_on,1,0,0,,10,,,81,127
33374,note_off,109,0,0,,10,,,81,127
33375,note_on,1,0,0,,8,,,80,127
33484,note_off,109,0,0,,8,,,80,127
33485,note_on,1,0,0,,10,,,81,127
33594,note_off,109,0,0,,10,,,81,127
33595,note_on,1,0,0,,7,,,79,127
33704,note_off,109,0,0,,7,,,79,127
33705,note_on,1,0,0,,6,,,78,127
33814,note_off,109,0,0,,6,,,78,127
33815,note_on,1,0,0,,7,,,79,127
33815,note_on,0,0,0,,10,,,69,127
33924,note_off,109,0,0,,7,,,79,127
33925,note_on,1,0,0,,4,,,76,127
34034,note_off,109,0,0,,4,,,76,127
34035,note_on,1,0,0,,3,,,75,127
34144,note_off,109,0,0,,3,,,75,127
34145,note_on,1,0,0,,4,,,76,127
34254,note_off,109,0,0,,4,,,76,127
34255,note_on,1,0,0,,0,,,72,127
34364,note_off,109,0,0,,0,,,72,127
34365,note_on,1,0,0,,12,,,71,127
34471,note_off,106,0,0,,10,,,57,127
34474,note_off,3,0,0,,12,,,71,127
34474,note_off,0,0,0,,10,,,69,127
34475,note_on,1,0,0,,12,,,71,127
34475,note_on,0,0,0,,7,,,67,127
34475,note_on,0,0,0,,12,,,59,127
34584,note_off,109,0,0,,12,,,71,127
34585,note_on,1,0,0,,10,,,81,127
34694,note_off,109,0,0,,10,,,81,127
34695,note_on,1,0,0,,7,,,79,127
34804,note_off,109,0,0,,7,,,79,127
34805,note_on,1,0,0,,10,,,81,127
34805,note_on,0,0,0,,7,,,79,127
34914,note_off,109,0,0,,7,,,79,127
34914,note_off,0,0,0,,10,,,81,127
34915,note_on,1,0,0,,6,,,78,127
35024,note_off,109,0,0,,6,,,78,127
35025,note_on,1,0,0,,4,,,76,127
35134,note_off,109,0,0,,4,,,76,127
35134,note_off,0,0,0,,12,,,59,127
35134,note_off,0,0,0,,7,,,67,127
35135,note_on,1,0,0,,10,,,69,127
35135,note_on,0,0,0,,12,,,59,127
35135,note_on,0,0,0,,6,,,66,127
35244,note_off,109,0,0,,10,,,69,127
35245,note_on,1,0,0,,7,,,79,127
35354,note_off,109,0,0,,7,,,79,127
35355,note_on,1,0,0,,6,,,78,127
35464,note_off,109,0,0,,6,,,78,127
35465,note_on,1,0,0,,6,,,78,127
35465,note_on,0,0,0,,7,,,79,127
35574,note_off,109,0,0,,7,,,79,127
35574,note_off,0,0,0,,6,,,78,127
35575,note_on,1,0,0,,4,,,76,127
35684,note_off,109,0,0,,4,,,76,127
35685,note_on,1,0,0,,3,,,75,127
35794,note_off,109,0,0,,3,,,75,127
35794,note_off,0,0,0,,6,,,66,127
35794,note_off,0,0,0,,12,,,59,127
35795,note_on,1,0,0,,4,,,76,127
35795,note_on,0,0,0,,4,,,52,127
35904,note_off,109,0,0,,4,,,76,127
35905,note_on,1,0,0,,12,,,71,127
36014,note_off,109,0,0,,12,,,71,127
36015,note_on,1,0,0,,10,,,69,127
36124,note_off,109,0,0,,10,,,69,127
36125,note_on,1,0,0,,12,,,71,127
36234,note_off,109,0,0,,12,,,71,127
36235,note_on,1,0,0,,7,,,67,127
36344,note_off,109,0,0,,7,,,67,127
36345,note_on,1,0,0,,6,,,66,127
36454,note_off,109,0,0,,6,,,66,127
36455,note_on,1,0,0,,7,,,67,127
36564,note_off,109,0,0,,7,,,67,127
36565,note_on,1,0,0,,4,,,64,127
36674,note_off,109,0,0,,4,,,64,127
36675,note_on,1,0,0,,3,,,63,127
36784,note_off,109,0,0,,3,,,63,127
36784,note_off,0,0,0,,4,,,52,127
36785,note_on,1,0,0,,4,,,64,127
37113,note_off,328,0,0,,4,,,64,127
37128,note_on,15,0,0,,12,,,71,127
37237,note_off,109,0,0,,12,,,71,127
37238,note_on,1,0,0,,12,,,71,127
37347,note_off,109,0,0,,12,,,71,127
37348,note_on,1,0,0,,12,,,71,127
37457,note_off,109,0,0,,12,,,71,127
37458,note_on,1,0,0,,7,,,55,127
37458,note_on,0,0,0,,12,,,71,127
37567,note_off,109,0,0,,12,,,71,127
37568,note_on,1,0,0,,12,,,71,127
37677,note_off,109,0,0,,12,,,71,127
37678,note_on,1,0,0,,12,,,71,127
37787,note_off,109,0,0,,12,,,71,127
37788,note_on,1,0,0,,12,,,59,127
37788,note_on,0,0,0,,12,,,71,127
37897,note_off,109,0,0,,12,,,71,127
37898,note_on,1,0,0,,12,,,71,127
38007,note_off,109,0,0,,12,,,71,127
38008,note_on,1,0,0,,12,,,71,127
38117,note_off,109,0,0,,12,,,71,127
38117,note_off,0,0,0,,12,,,59,127
38118,note_on,1,0,0,,4,,,64,127
38118,note_on,0,0,0,,12,,,71,127
38227,note_off,109,0,0,,12,,,71,127
38228,note_on,1,0,0,,12,,,71,127
38337,note_off,109,0,0,,12,,,71,127
38338,note_on,1,0,0,,12,,,71,127
38447,note_off,109,0,0,,12,,,71,127
38447,note_off,0,0,0,,4,,,64,127
38447,note_off,0,0,0,,7,,,55,127
38448,note_on,1,0,0,,4,,,76,127
38557,note_off,109,0,0,,4,,,76,127
38558,note_on,1,0,0,,4,,,76,127
38667,note_off,109,0,0,,4,,,76,127
38668,note_on,1,0,0,,4,,,76,127
38777,note_off,109,0,0,,4,,,76,127
38778,note_on,1,0,0,,10,,,57,127
38778,note_on,0,0,0,,4,,,76,127
38887,note_off,109,0,0,,4,,,76,127
38888,note_on,1,0,0,,4,,,76,127
38997,note_off,109,0,0,,4,,,76,127
38998,note_on,1,0,0,,4,,,76,127
39107,note_off,109,0,0,,4,,,76,127
39108,note_on,1,0,0,,0,,,60,127
39108,note_on,0,0,0,,4,,,76,127
39217,note_off,109,0,0,,4,,,76,127
39218,note_on,1,0,0,,4,,,76,127
39327,note_off,109,0,0,,4,,,76,127
39328,note_on,1,0,0,,4,,,76,127
39437,note_off,109,0,0,,4,,,76,127
39437,note_off,0,0,0,,0,,,60,127
39438,note_on,1,0,0,,4,,,64,127
39438,note_on,0,0,0,,4,,,76,127
39547,note_off,109,0,0,,4,,,76,127
39548,note_on,1,0,0,,4,,,76,127
39657,note_off,109,0,0,,4,,,76,127
39658,note_on,1,0,0,,4,,,76,127
39767,note_off,109,0,0,,4,,,76,127
39767,note_off,0,0,0,,4,,,64,127
39767,note_off,0,0,0,,10,,,57,127
39768,note_on,1,0,0,,12,,,83,127
39877,note_off,109,0,0,,12,,,83,127
39878,note_on,1,0,0,,12,,,83,127
39987,note_off,109,0,0,,12,,,83,127
39988,note_on,1,0,0,,12,,,83,127
40097,note_off,109,0,0,,12,,,83,127
40098,note_on,1,0,0,,7,,,55,127
40098,note_on,0,0,0,,12,,,83,127
40207,note_off,109,0,0,,12,,,83,127
40208,note_on,1,0,0,,12,,,83,127
40317,note_off,109,0,0,,12,,,83,127
40318,note_on,1,0,0,,12,,,83,127
40427,note_off,109,0,0,,12,,,83,127
40428,note_on,1,0,0,,12,,,59,127
40428,note_on,0,0,0,,12,,,83,127
40537,note_off,109,0,0,,12,,,83,127
40538,note_on,1,0,0,,12,,,83,127
40647,note_off,109,0,0,,12,,,83,127
40648,note_on,1,0,0,,12,,,83,127
40757,note_off,109,0,0,,12,,,83,127
40757,note_off,0,0,0,,12,,,59,127
40758,note_on,1,0,0,,4,,,64,127
40758,note_on,0,0,0,,12,,,83,127
40867,note_off,109,0,0,,12,,,83,127
40868,note_on,1,0,0,,12,,,83,127
40977,note_off,109,0,0,,12,,,83,127
40978,note_on,1,0,0,,12,,,83,127
41087,note_off,109,0,0,,12,,,83,127
41087,note_off,0,0,0,,4,,,64,127
41087,note_off,0,0,0,,7,,,55,127
41088,note_on,1,0,0,,10,,,57,127
41088,note_on,0,0,0,,0,,,84,127
41197,note_off,109,0,0,,0,,,84,127
41198,note_on,1,0,0,,10,,,81,127
41307,note_off,109,0,0,,10,,,81,127
41308,note_on,1,0,0,,8,,,80,127
41417,note_off,109,0,0,,8,,,80,127
41418,note_on,1,0,0,,10,,,81,127
41527,note_off,109,0,0,,10,,,81,127
41528,note_on,1,0,0,,7,,,79,127
41637,note_off,109,0,0,,7,,,79,127
41638,note_on,1,0,0,,6,,,78,127
41747,note_off,109,0,0,,6,,,78,127
41748,note_on,1,0,0,,10,,,69,127
41748,note_on,0,0,0,,7,,,79,127
41857,note_off,109,0,0,,7,,,79,127
41858,note_on,1,0,0,,4,,,76,127
41967,note_off,109,0,0,,4,,,76,127
41968,note_on,1,0,0,,3,,,75,127
42077,note_off,109,0,0,,3,,,75,127
42078,note_on,1,0,0,,4,,,76,127
42187,note_off,109,0,0,,4,,,76,127
42188,note_on,1,0,0,,0,,,72,127
42297,note_off,109,0,0,,0,,,72,127
42298,note_on,1,0,0,,12,,,71,127
42404,note_off,106,0,0,,10,,,57,127
42407,note_off,3,0,0,,12,,,71,127
42407,note_off,0,0,0,,10,,,69,127
42408,note_on,1,0,0,,12,,,59,127
42408,note_on,0,0,0,,7,,,67,127
42408,note_on,0,0,0,,12,,,71,127
42517,note_off,109,0,0,,12,,,71,127
42518,note_on,1,0,0,,10,,,81,127
42627,note_off,109,0,0,,10,,,81,127
42628,note_on,1,0,0,,7,,,79,127
42737,note_off,109,0,0,,7,,,79,127
42738,note_on,1,0,0,,7,,,79,127
42738,note_on,0,0,0,,10,,,81,127
42847,note_off,109,0,0,,10,,,81,127
42847,note_off,0,0,0,,7,,,79,127
42848,note_on,1,0,0,,6,,,78,127
42957,note_off,109,0,0,,6,,,78,127
42958,note_on,1,0,0,,4,,,76,127
43067,note_off,109,0,0,,4,,,76,127
43067,note_off,0,0,0,,7,,,67,127
43067,note_off,0,0,0,,12,,,59,127
43068,note_on,1,0,0,,6,,,66,127
43068,note_on,0,0,0,,12,,,59,127
43068,note_on,0,0,0,,10,,,69,127
43177,note_off,109,0,0,,10,,,69,127
43178,note_on,1,0,0,,7,,,79,127
43287,note_off,109,0,0,,7,,,79,127
43288,note_on,1,0,0,,6,,,78,127
43397,note_off,109,0,0,,6,,,78,127
43398,note_on,1,0,0,,6,,,78,127
43398,note_on,0,0,0,,7,,,79,127
43507,note_off,109,0,0,,7,,,79,127
43507,note_off,0,0,0,,6,,,78,127
43508,note_on,1,0,0,,4,,,76,127
43617,note_off,109,0,0,,4,,,76,127
43618,note_on,1,0,0,,3,,,75,127
43727,note_off,109,0,0,,3,,,75,127
43727,note_off,0,0,0,,12,,,59,127
43727,note_off,0,0,0,,6,,,66,127
43728,note_on,1,0,0,,4,,,52,127
43837,note_off,109,0,0,,4,,,52,127
43838,note_on,1,0,0,,8,,,56,127
43947,note_off,109,0,0,,8,,,56,127
43948,note_on,1,0,0,,12,,,59,127
44057,note_off,109,0,0,,12,,,59,127
44058,note_on,1,0,0,,4,,,64,127
44058,note_on,0,0,0,,4,,,76,127
44167,note_off,109,0,0,,4,,,64,127
44168,note_on,1,0,0,,8,,,68,127
44277,note_off,109,0,0,,8,,,68,127
44278,note_on,1,0,0,,4,,,64,127
44387,note_off,109,0,0,,4,,,64,127
44387,note_off,0,0,0,,4,,,76,127
44388,note_on,1,0,0,,12,,,47,127
44497,note_off,109,0,0,,12,,,47,127
44498,note_on,1,0,0,,3,,,51,127
44607,note_off,109,0,0,,3,,,51,127
44608,note_on,1,0,0,,6,,,54,127
44717,note_off,109,0,0,,6,,,54,127
44718,note_on,1,0,0,,12,,,59,127
44718,note_on,0,0,0,,6,,,78,127
44827,note_off,109,0,0,,12,,,59,127
44828,note_on,1,0,0,,3,,,63,127
44937,note_off,109,0,0,,3,,,63,127
44938,note_on,1,0,0,,12,,,59,127
45047,note_off,109,0,0,,12,,,59,127
45047,note_off,0,0,0,,6,,,78,127
45048,note_on,1,0,0,,4,,,52,127
45157,note_off,109,0,0,,4,,,52,127
45158,note_on,1,0,0,,8,,,56,127
45267,note_off,109,0,0,,8,,,56,127
45268,note_on,1,0,0,,12,,,59,127
45377,note_off,109,0,0,,12,,,59,127
45378,note_on,1,0,0,,4,,,64,127
45378,note_on,0,0,0,,8,,,80,127
45487,note_off,109,0,0,,4,,,64,127
45488,note_on,1,0,0,,8,,,68,127
45597,note_off,109,0,0,,8,,,68,127
45598,note_on,1,0,0,,4,,,64,127
45707,note_off,109,0,0,,4,,,64,127
45707,note_off,0,0,0,,8,,,80,127
45708,note_on,1,0,0,,12,,,47,127
45817,note_off,109,0,0,,12,,,47,127
45818,note_on,1,0,0,,3,,,51,127
45927,note_off,109,0,0,,3,,,51,127
45928,note_on,1,0,0,,6,,,54,127
46037,note_off,109,0,0,,6,,,54,127
46038,note_on,1,0,0,,12,,,59,127
46038,note_on,0,0,0,,10,,,81,127
46147,note_off,109,0,0,,12,,,59,127
46148,note_on,1,0,0,,3,,,63,127
46257,note_off,109,0,0,,3,,,63,127
46258,note_on,1,0,0,,12,,,59,127
46367,note_off,109,0,0,,12,,,59,127
46367,note_off,0,0,0,,10,,,81,127
46368,note_on,1,0,0,,4,,,52,127
46477,note_off,109,0,0,,4,,,52,127
46478,note_on,1,0,0,,8,,,56,127
46587,note_off,109,0,0,,8,,,56,127
46588,note_on,1,0,0,,12,,,59,127
46697,note_off,109,0,0,,12,,,59,127
46698,note_on,1,0,0,,4,,,64,127
46698,note_on,0,0,0,,12,,,83,127
46807,note_off,109,0,0,,4,,,64,127
46808,note_on,1,0,0,,8,,,68,127
46917,note_off,109,0,0,,8,,,68,127
46918,note_on,1,0,0,,4,,,64,127
47027,note_off,109,0,0,,4,,,64,127
47027,note_off,0,0,0,,12,,,83,127
47028,note_on,1,0,0,,10,,,45,127
47137,note_off,109,0,0,,10,,,45,127
47138,note_on,1,0,0,,1,,,49,127
47247,note_off,109,0,0,,1,,,49,127
47248,note_on,1,0,0,,4,,,52,127
47357,note_off,109,0,0,,4,,,52,127
47358,note_on,1,0,0,,10,,,57,127
47358,note_on,0,0,0,,1,,,85,127
47467,note_off,109,0,0,,10,,,57,127
47468,note_on,1,0,0,,1,,,61,127
47577,note_off,109,0,0,,1,,,61,127
47578,note_on,1,0,0,,10,,,57,127
47659,note_off,81,0,0,,1,,,85,127
47687,note_off,28,0,0,,10,,,57,127
47688,note_on,1,0,0,,8,,,56,127
47688,note_on,0,0,0,,12,,,83,127
47797,note_off,109,0,0,,12,,,83,127
47798,note_on,1,0,0,,8,,,80,127
47907,note_off,109,0,0,,8,,,80,127
47908,note_on,1,0,0,,4,,,76,127
48017,note_off,109,0,0,,4,,,76,127
48017,note_off,0,0,0,,8,,,56,127
48018,note_on,1,0,0,,10,,,57,127
48018,note_on,0,0,0,,1,,,85,127
48127,note_off,109,0,0,,1,,,85,127
48128,note_on,1,0,0,,10,,,81,127
48237,note_off,109,0,0,,10,,,81,127
48238,note_on,1,0,0,,6,,,78,127
48347,note_off,109,0,0,,6,,,78,127
48347,note_off,0,0,0,,10,,,57,127
48348,note_on,1,0,0,,12,,,59,127
48348,note_on,0,0,0,,8,,,80,127
48457,note_off,109,0,0,,8,,,80,127
48458,note_on,1,0,0,,12,,,83,127
48567,note_off,109,0,0,,12,,,83,127
48568,note_on,1,0,0,,4,,,76,127
48677,note_off,109,0,0,,4,,,76,127
48678,note_on,1,0,0,,12,,,47,127
48678,note_on,0,0,0,,6,,,78,127
48678,note_on,0,0,0,,8,,,80,127
48787,note_off,109,0,0,,8,,,80,127
48787,note_off,0,0,0,,6,,,78,127
48788,note_on,1,0,0,,4,,,76,127
48897,note_off,109,0,0,,4,,,76,127
48898,note_on,1,0,0,,3,,,75,127
49007,note_off,109,0,0,,3,,,75,127
49007,note_off,0,0,0,,12,,,47,127
49007,note_off,0,0,0,,12,,,59,127
49008,note_on,1,0,0,,4,,,52,127
49117,note_off,109,0,0,,4,,,52,127
49118,note_on,1,0,0,,8,,,56,127
49227,note_off,109,0,0,,8,,,56,127
49228,note_on,1,0,0,,12,,,59,127
49337,note_off,109,0,0,,12,,,59,127
49338,note_on,1,0,0,,4,,,64,127
49338,note_on,0,0,0,,4,,,76,127
49447,note_off,109,0,0,,4,,,64,127
49448,note_on,1,0,0,,8,,,68,127
49557,note_off,109,0,0,,8,,,68,127
49558,note_on,1,0,0,,4,,,64,127
49667,note_off,109,0,0,,4,,,64,127
49668,note_on,1,0,0,,12,,,47,127
49767,note_off,99,0,0,,4,,,76,127
49776,note_off,9,0,0,,12,,,47,127
49777,note_on,1,0,0,,3,,,51,127
49886,note_off,109,0,0,,3,,,51,127
49887,note_on,1,0,0,,6,,,54,127
49996,note_off,109,0,0,,6,,,54,127
49997,note_on,1,0,0,,12,,,59,127
49997,note_on,0,0,0,,6,,,78,127
50106,note_off,109,0,0,,12,,,59,127
50107,note_on,1,0,0,,3,,,63,127
50216,note_off,109,0,0,,3,,,63,127
50217,note_on,1,0,0,,12,,,59,127
50326,note_off,109,0,0,,12,,,59,127
50327,note_on,1,0,0,,4,,,52,127
50426,note_off,99,0,0,,6,,,78,127
50435,note_off,9,0,0,,4,,,52,127
50436,note_on,1,0,0,,8,,,56,127
50545,note_off,109,0,0,,8,,,56,127
50546,note_on,1,0,0,,12,,,59,127
50655,note_off,109,0,0,,12,,,59,127
50656,note_on,1,0,0,,4,,,64,127
50656,note_on,0,0,0,,8,,,80,127
50765,note_off,109,0,0,,4,,,64,127
50766,note_on,1,0,0,,8,,,68,127
50875,note_off,109,0,0,,8,,,68,127
50876,note_on,1,0,0,,4,,,64,127
50985,note_off,109,0,0,,4,,,64,127
50986,note_on,1,0,0,,12,,,47,127
51085,note_off,99,0,0,,8,,,80,127
51094,note_off,9,0,0,,12,,,47,127
51095,note_on,1,0,0,,3,,,51,127
51204,note_off,109,0,0,,3,,,51,127
51205,note_on,1,0,0,,6,,,54,127
51314,note_off,109,0,0,,6,,,54,127
51315,note_on,1,0,0,,12,,,59,127
51315,note_on,0,0,0,,10,,,81,127
51424,note_off,109,0,0,,12,,,59,127
51425,note_on,1,0,0,,3,,,63,127
51534,note_off,109,0,0,,3,,,63,127
51535,note_on,1,0,0,,12,,,59,127
51644,note_off,109,0,0,,12,,,59,127
51645,note_on,1,0,0,,4,,,52,127
51744,note_off,99,0,0,,10,,,81,127
51753,note_off,9,0,0,,4,,,52,127
51754,note_on,1,0,0,,8,,,56,127
51863,note_off,109,0,0,,8,,,56,127
51864,note_on,1,0,0,,12,,,59,127
51973,note_off,109,0,0,,12,,,59,127
51974,note_on,1,0,0,,4,,,64,127
51974,note_on,0,0,0,,12,,,83,127
52083,note_off,109,0,0,,4,,,64,127
52084,note_on,1,0,0,,8,,,68,127
52193,note_off,109,0,0,,8,,,68,127
52194,note_on,1,0,0,,4,,,64,127
52303,note_off,109,0,0,,4,,,64,127
52304,note_on,1,0,0,,10,,,45,127
52403,note_off,99,0,0,,12,,,83,127
52412,note_off,9,0,0,,10,,,45,127
52413,note_on,1,0,0,,1,,,49,127
52522,note_off,109,0,0,,1,,,49,127
52523,note_on,1,0,0,,4,,,52,127
52632,note_off,109,0,0,,4,,,52,127
52633,note_on,1,0,0,,10,,,57,127
52633,note_on,0,0,0,,1,,,85,127
52742,note_off,109,0,0,,10,,,57,127
52743,note_on,1,0,0,,1,,,61,127
52852,note_off,109,0,0,,1,,,61,127
52853,note_on,1,0,0,,10,,,57,127
52880,note_off,27,0,0,,1,,,85,127
52961,note_off,81,0,0,,10,,,57,127
52962,note_on,1,0,0,,8,,,56,127
52962,note_on,0,0,0,,12,,,83,127
53071,note_off,109,0,0,,12,,,83,127
53072,note_on,1,0,0,,8,,,80,127
53181,note_off,109,0,0,,8,,,80,127
53182,note_on,1,0,0,,4,,,76,127
53291,note_off,109,0,0,,4,,,76,127
53291,note_off,0,0,0,,8,,,56,127
53292,note_on,1,0,0,,10,,,57,127
53292,note_on,0,0,0,,1,,,85,127
53401,note_off,109,0,0,,1,,,85,127
53402,note_on,1,0,0,,10,,,81,127
53511,note_off,109,0,0,,10,,,81,127
53512,note_on,1,0,0,,6,,,78,127
53621,note_off,109,0,0,,6,,,78,127
53621,note_off,0,0,0,,10,,,57,127
53622,note_on,1,0,0,,12,,,59,127
53622,note_on,0,0,0,,8,,,80,127
53731,note_off,109,0,0,,8,,,80,127
53732,note_on,1,0,0,,12,,,83,127
53841,note_off,109,0,0,,12,,,83,127
53842,note_on,1,0,0,,8,,,80,127
53951,note_off,109,0,0,,8,,,80,127
53951,note_off,0,0,0,,12,,,59,127
53952,note_on,1,0,0,,12,,,47,127
53952,note_on,0,0,0,,8,,,80,127
53952,note_on,0,0,0,,6,,,78,127
54061,note_off,109,0,0,,6,,,78,127
54061,note_off,0,0,0,,8,,,80,127
54062,note_on,1,0,0,,4,,,76,127
54171,note_off,109,0,0,,4,,,76,127
54172,note_on,1,0,0,,3,,,75,127
54281,note_off,109,0,0,,3,,,75,127
54281,note_off,0,0,0,,12,,,47,127
54282,note_on,1,0,0,,4,,,52,127
54282,note_on,0,0,0,,4,,,76,127
54391,note_off,109,0,0,,4,,,76,127
54392,note_on,1,0,0,,12,,,83,127
54501,note_off,109,0,0,,12,,,83,127
54502,note_on,1,0,0,,8,,,80,127
54611,note_off,109,0,0,,8,,,80,127
54612,note_on,1,0,0,,4,,,76,127
54721,note_off,109,0,0,,4,,,76,127
54722,note_on,1,0,0,,12,,,71,127
54831,note_off,109,0,0,,12,,,71,127
54832,note_on,1,0,0,,8,,,68,127
54941,note_off,109,0,0,,8,,,68,127
54942,note_on,1,0,0,,4,,,64,127
55051,note_off,109,0,0,,4,,,64,127
55052,note_on,1,0,0,,12,,,59,127
55161,note_off,109,0,0,,12,,,59,127
55162,note_on,1,0,0,,4,,,64,127
55271,note_off,109,0,0,,4,,,64,127
55271,note_off,0,0,0,,4,,,52,127
55272,note_on,1,0,0,,12,,,47,127
55272,note_on,0,0,0,,8,,,80,127
55326,note_off,54,0,0,,8,,,80,127
55327,note_on,1,0,0,,6,,,78,127
55381,note_off,54,0,0,,6,,,78,127
55382,note_on,1,0,0,,8,,,80,127
55436,note_off,54,0,0,,8,,,80,127
55437,note_on,1,0,0,,6,,,78,127
55491,note_off,54,0,0,,6,,,78,127
55492,note_on,1,0,0,,4,,,76,127
55546,note_off,54,0,0,,4,,,76,127
55547,note_on,1,0,0,,6,,,78,127
55601,note_off,54,0,0,,6,,,78,127
55601,note_off,0,0,0,,12,,,47,127
55602,note_on,1,0,0,,4,,,52,127
55602,note_on,0,0,0,,4,,,76,127
55711,note_off,109,0,0,,4,,,76,127
55712,note_on,1,0,0,,12,,,83,127
55821,note_off,109,0,0,,12,,,83,127
55822,note_on,1,0,0,,8,,,80,127
55931,note_off,109,0,0,,8,,,80,127
55932,note_on,1,0,0,,4,,,76,127
56041,note_off,109,0,0,,4,,,76,127
56042,note_on,1,0,0,,12,,,71,127
56151,note_off,109,0,0,,12,,,71,127
56152,note_on,1,0,0,,8,,,68,127
56261,note_off,109,0,0,,8,,,68,127
56262,note_on,1,0,0,,4,,,64,127
56371,note_off,109,0,0,,4,,,64,127
56372,note_on,1,0,0,,12,,,59,127
56481,note_off,109,0,0,,12,,,59,127
56482,note_on,1,0,0,,4,,,64,127
56591,note_off,109,0,0,,4,,,64,127
56591,note_off,0,0,0,,4,,,52,127
56592,note_on,1,0,0,,12,,,47,127
56592,note_on,0,0,0,,8,,,80,127
56646,note_off,54,0,0,,8,,,80,127
56647,note_on,1,0,0,,6,,,78,127
56701,note_off,54,0,0,,6,,,78,127
56702,note_on,1,0,0,,8,,,80,127
56756,note_off,54,0,0,,8,,,80,127
56757,note_on,1,0,0,,6,,,78,127
56811,note_off,54,0,0,,6,,,78,127
56812,note_on,1,0,0,,4,,,76,127
56866,note_off,54,0,0,,4,,,76,127
56867,note_on,1,0,0,,6,,,78,127
56921,note_off,54,0,0,,6,,,78,127
56921,note_off,0,0,0,,12,,,47,127
56922,note_on,1,0,0,,4,,,40,127
56922,note_on,0,0,0,,4,,,76,127
57031,note_off,109,0,0,,4,,,76,127
57032,note_on,1,0,0,,12,,,71,127
57141,note_off,109,0,0,,12,,,71,127
57142,note_on,1,0,0,,4,,,76,127
57251,note_off,109,0,0,,4,,,76,127
57251,note_off,0,0,0,,4,,,40,127
57252,note_on,1,0,0,,12,,,47,127
57252,note_on,0,0,0,,8,,,80,127
57306,note_off,54,0,0,,8,,,80,127
57307,note_on,1,0,0,,6,,,78,127
57361,note_off,54,0,0,,6,,,78,127
57362,note_on,1,0,0,,8,,,80,127
57416,note_off,54,0,0,,8,,,80,127
57417,note_on,1,0,0,,6,,,78,127
57471,note_off,54,0,0,,6,,,78,127
57472,note_on,1,0,0,,4,,,76,127
57526,note_off,54,0,0,,4,,,76,127
57527,note_on,1,0,0,,6,,,78,127
57581,note_off,54,0,0,,6,,,78,127
57581,note_off,0,0,0,,12,,,47,127
57582,note_on,1,0,0,,4,,,40,127
57582,note_on,0,0,0,,4,,,76,127
57691,note_off,109,0,0,,4,,,76,127
57692,note_on,1,0,0,,12,,,71,127
57801,note_off,109,0,0,,12,,,71,127
57802,note_on,1,0,0,,4,,,76,127
57911,note_off,109,0,0,,4,,,76,127
57911,note_off,0,0,0,,4,,,40,127
57912,note_on,1,0,0,,12,,,47,127
57912,note_on,0,0,0,,8,,,80,127
57966,note_off,54,0,0,,8,,,80,127
57967,note_on,1,0,0,,6,,,78,127
58021,note_off,54,0,0,,6,,,78,127
58022,note_on,1,0,0,,8,,,80,127
58076,note_off,54,0,0,,8,,,80,127
58077,note_on,1,0,0,,6,,,78,127
58131,note_off,54,0,0,,6,,,78,127
58132,note_on,1,0,0,,4,,,76,127
58186,note_off,54,0,0,,4,,,76,127
58187,note_on,1,0,0,,6,,,78,127
58241,note_off,54,0,0,,6,,,78,127
58241,note_off,0,0,0,,12,,,47,127
58242,note_on,1,0,0,,4,,,52,127
58242,note_on,0,0,0,,4,,,40,127
58242,note_on,0,0,0,,4,,,76,127
58351,note_off,109,0,0,,4,,,76,127
58352,note_on,1,0,0,,12,,,71,127
58461,note_off,109,0,0,,12,,,71,127
58462,note_on,1,0,0,,8,,,68,127
58571,note_off,109,0,0,,8,,,68,127
58571,note_off,0,0,0,,4,,,40,127
58571,note_off,0,0,0,,4,,,52,127
58572,note_on,1,0,0,,4,,,52,127
58572,note_on,0,0,0,,4,,,40,127
58572,note_on,0,0,0,,4,,,64,127
58681,note_off,109,0,0,,4,,,64,127
58682,note_on,1,0,0,,4,,,64,127
58791,note_off,109,0,0,,4,,,64,127
58792,note_on,1,0,0,,4,,,64,127
58901,note_off,109,0,0,,4,,,64,127
58901,note_off,0,0,0,,4,,,40,127
58901,note_off,0,0,0,,4,,,52,127
58902,note_on,1,0,0,,4,,,40,127
58902,note_on,0,0,0,,4,,,52,127
58902,note_on,0,0,0,,4,,,64,127
59011,note_off,109,0,0,,4,,,64,127
59012,note_on,1,0,0,,4,,,64,127
59121,note_off,109,0,0,,4,,,64,127
59122,note_on,1,0,0,,4,,,64,127
59231,note_off,109,0,0,,4,,,64,127
59231,note_off,0,0,0,,4,,,52,127
59231,note_off,0,0,0,,4,,,40,127
59232,note_on,1,0,0,,4,,,40,127
59232,note_on,0,0,0,,4,,,52,127
59232,note_on,0,0,0,,4,,,64,127
59341,note_off,109,0,0,,4,,,64,127
59342,note_on,1,0,0,,4,,,64,127
59451,note_off,109,0,0,,4,,,64,127
59452,note_on,1,0,0,,4,,,64,127
59561,note_off,109,0,0,,4,,,64,127
59561,note_off,0,0,0,,4,,,52,127
59561,note_off,0,0,0,,4,,,40,127
59562,note_on,1,0,0,,4,,,40,127
59562,note_on,0,0,0,,4,,,52,127
59562,note_on,0,0,0,,6,,,66,127
59603,note_off,41,0,0,,6,,,66,127
59603,note_on,0,0,0,,4,,,64,127
59644,note_off,41,0,0,,4,,,64,127
59644,note_on,0,0,0,,6,,,66,127
59685,note_off,41,0,0,,6,,,66,127
59685,note_on,0,0,0,,4,,,64,127
60219,note_off,534,0,0,,4,,,52,127
60219,note_off,0,0,0,,4,,,40,127
60254,note_on,35,0,0,,12,,,71,127
60363,note_off,109,0,0,,12,,,71,127
60364,note_on,1,0,0,,12,,,71,127
60473,note_off,109,0,0,,12,,,71,127
60474,note_on,1,0,0,,12,,,71,127
60543,note_off,69,0,0,,4,,,64,127
60583,note_off,40,0,0,,12,,,71,127
60584,note_on,1,0,0,,4,,,64,127
60584,note_on,0,0,0,,12,,,71,127
60693,note_off,109,0,0,,12,,,71,127
60694,note_on,1,0,0,,12,,,71,127
60803,note_off,109,0,0,,12,,,71,127
60804,note_on,1,0,0,,12,,,71,127
60913,note_off,109,0,0,,12,,,71,127
60913,note_off,0,0,0,,4,,,64,127
60914,note_on,1,0,0,,2,,,62,127
60914,note_on,0,0,0,,5,,,65,127
60914,note_on,0,0,0,,12,,,71,127
61023,note_off,109,0,0,,12,,,71,127
61024,note_on,1,0,0,,12,,,71,127
61133,note_off,109,0,0,,12,,,71,127
61134,note_on,1,0,0,,12,,,71,127
61243,note_off,109,0,0,,12,,,71,127
61243,note_off,0,0,0,,5,,,65,127
61243,note_off,0,0,0,,2,,,62,127
61244,note_on,1,0,0,,4,,,64,127
61244,note_on,0,0,0,,0,,,60,127
61244,note_on,0,0,0,,12,,,71,127
61353,note_off,109,0,0,,12,,,71,127
61354,note_on,1,0,0,,12,,,71,127
61463,note_off,109,0,0,,12,,,71,127
61464,note_on,1,0,0,,12,,,71,127
61573,note_off,109,0,0,,12,,,71,127
61573,note_off,0,0,0,,0,,,60,127
61573,note_off,0,0,0,,4,,,64,127
61574,note_on,1,0,0,,2,,,62,127
61574,note_on,0,0,0,,12,,,59,127
61574,note_on,0,0,0,,12,,,71,127
61683,note_off,109,0,0,,12,,,71,127
61684,note_on,1,0,0,,12,,,71,127
61793,note_off,109,0,0,,12,,,71,127
61794,note_on,1,0,0,,12,,,71,127
61903,note_off,109,0,0,,12,,,71,127
61903,note_off,0,0,0,,12,,,59,127
61903,note_off,0,0,0,,2,,,62,127
61904,note_on,1,0,0,,10,,,57,127
61904,note_on,0,0,0,,0,,,60,127
61904,note_on,0,0,0,,0,,,72,127
62013,note_off,109,0,0,,0,,,72,127
62014,note_on,1,0,0,,0,,,72,127
62123,note_off,109,0,0,,0,,,72,127
62124,note_on,1,0,0,,0,,,72,127
62233,note_off,109,0,0,,0,,,72,127
62233,note_off,0,0,0,,0,,,60,127
62233,note_off,0,0,0,,10,,,57,127
62234,note_on,1,0,0,,7,,,55,127
62234,note_on,0,0,0,,12,,,59,127
62234,note_on,0,0,0,,2,,,74,127
62343,note_off,109,0,0,,2,,,74,127
62344,note_on,1,0,0,,2,,,74,127
62453,note_off,109,0,0,,2,,,74,127
62454,note_on,1,0,0,,2,,,74,127
62563,note_off,109,0,0,,2,,,74,127
62563,note_off,0,0,0,,12,,,59,127
62563,note_off,0,0,0,,7,,,55,127
62564,note_on,1,0,0,,10,,,57,127
62564,note_on,0,0,0,,5,,,53,127
62564,note_on,0,0,0,,2,,,74,127
62673,note_off,109,0,0,,2,,,74,127
62674,note_on,1,0,0,,2,,,74,127
62783,note_off,109,0,0,,2,,,74,127
62784,note_on,1,0,0,,2,,,74,127
62893,note_off,109,0,0,,2,,,74,127
62893,note_off,0,0,0,,5,,,53,127
62893,note_off,0,0,0,,10,,,57,127
62894,note_on,1,0,0,,12,,,59,127
62894,note_on,0,0,0,,4,,,52,127
62894,note_on,0,0,0,,8,,,56,127
62894,note_on,0,0,0,,2,,,74,127
63003,note_off,109,0,0,,2,,,74,127
63004,note_on,1,0,0,,2,,,74,127
63113,note_off,109,0,0,,2,,,74,127
63114,note_on,1,0,0,,2,,,74,127
63223,note_off,109,0,0,,2,,,74,127
63223,note_off,0,0,0,,8,,,56,127
63223,note_off,0,0,0,,4,,,52,127
63223,note_off,0,0,0,,12,,,59,127
63224,note_on,1,0,0,,4,,,64,127
63224,note_on,0,0,0,,4,,,76,127
63333,note_off,109,0,0,,4,,,76,127
63334,note_on,1,0,0,,4,,,76,127
63443,note_off,109,0,0,,4,,,76,127
63444,note_on,1,0,0,,4,,,76,127
63553,note_off,109,0,0,,4,,,76,127
63553,note_off,0,0,0,,4,,,64,127
63554,note_on,1,0,0,,2,,,62,127
63554,note_on,0,0,0,,5,,,65,127
63554,note_on,0,0,0,,5,,,77,127
63663,note_off,109,0,0,,5,,,77,127
63664,note_on,1,0,0,,5,,,77,127
63773,note_off,109,0,0,,5,,,77,127
63774,note_on,1,0,0,,5,,,77,127
63883,note_off,109,0,0,,5,,,77,127
63883,note_off,0,0,0,,5,,,65,127
63883,note_off,0,0,0,,2,,,62,127
63884,note_on,1,0,0,,0,,,60,127
63884,note_on,0,0,0,,4,,,64,127
63884,note_on,0,0,0,,5,,,77,127
63993,note_off,109,0,0,,5,,,77,127
63994,note_on,1,0,0,,5,,,77,127
64103,note_off,109,0,0,,5,,,77,127
64104,note_on,1,0,0,,5,,,77,127
64213,note_off,109,0,0,,5,,,77,127
64213,note_off,0,0,0,,4,,,64,127
64213,note_off,0,0,0,,0,,,60,127
64214,note_on,1,0,0,,12,,,59,127
64214,note_on,0,0,0,,2,,,62,127
64214,note_on,0,0,0,,5,,,77,127
64323,note_off,109,0,0,,5,,,77,127
64324,note_on,1,0,0,,5,,,77,127
64433,note_off,109,0,0,,5,,,77,127
64434,note_on,1,0,0,,5,,,77,127
64543,note_off,109,0,0,,5,,,77,127
64543,note_off,0,0,0,,2,,,62,127
64543,note_off,0,0,0,,12,,,59,127
64544,note_on,1,0,0,,10,,,57,127
64544,note_on,0,0,0,,0,,,60,127
64544,note_on,0,0,0,,6,,,78,127
64653,note_off,109,0,0,,6,,,78,127
64654,note_on,1,0,0,,6,,,78,127
64763,note_off,109,0,0,,6,,,78,127
64764,note_on,1,0,0,,6,,,78,127
64873,note_off,109,0,0,,6,,,78,127
64873,note_off,0,0,0,,0,,,60,127
64873,note_off,0,0,0,,10,,,57,127
64874,note_on,1,0,0,,7,,,55,127
64874,note_on,0,0,0,,12,,,59,127
64874,note_on,0,0,0,,7,,,79,127
64983,note_off,109,0,0,,7,,,79,127
64984,note_on,1,0,0,,7,,,79,127
65093,note_off,109,0,0,,7,,,79,127
65094,note_on,1,0,0,,7,,,79,127
65203,note_off,109,0,0,,7,,,79,127
65203,note_off,0,0,0,,12,,,59,127
65203,note_off,0,0,0,,7,,,55,127
65204,note_on,1,0,0,,10,,,57,127
65204,note_on,0,0,0,,5,,,53,127
65204,note_on,0,0,0,,7,,,79,127
65313,note_off,109,0,0,,7,,,79,127
65314,note_on,1,0,0,,7,,,79,127
65423,note_off,109,0,0,,7,,,79,127
65424,note_on,1,0,0,,7,,,79,127
65533,note_off,109,0,0,,7,,,79,127
65533,note_off,0,0,0,,5,,,53,127
65533,note_off,0,0,0,,10,,,57,127
65534,note_on,1,0,0,,7,,,55,127
65534,note_on,0,0,0,,4,,,52,127
65534,note_on,0,0,0,,7,,,79,127
65643,note_off,109,0,0,,7,,,79,127
65644,note_on,1,0,0,,7,,,79,127
65753,note_off,109,0,0,,7,,,79,127
65754,note_on,1,0,0,,7,,,79,127
65863,note_off,109,0,0,,7,,,79,127
65863,note_off,0,0,0,,4,,,52,127
65863,note_off,0,0,0,,7,,,55,127
65864,note_on,1,0,0,,12,,,59,127
65864,note_on,0,0,0,,2,,,50,127
65864,note_on,0,0,0,,5,,,53,127
65864,note_on,0,0,0,,8,,,56,127
65864,note_on,0,0,0,,8,,,80,127
65973,note_off,109,0,0,,8,,,80,127
65974,note_on,1,0,0,,8,,,80,127
66083,note_off,109,0,0,,8,,,80,127
66084,note_on,1,0,0,,8,,,80,127
66193,note_off,109,0,0,,8,,,80,127
66193,note_off,0,0,0,,8,,,56,127
66193,note_off,0,0,0,,5,,,53,127
66193,note_off,0,0,0,,2,,,50,127
66193,note_off,0,0,0,,12,,,59,127
66194,note_on,1,0,0,,0,,,48,127
66194,note_on,0,0,0,,4,,,52,127
66194,note_on,0,0,0,,10,,,57,127
66194,note_on,0,0,0,,10,,,81,127
66303,note_off,109,0,0,,10,,,81,127
66304,note_on,1,0,0,,10,,,81,127
66413,note_off,109,0,0,,10,,,81,127
66414,note_on,1,0,0,,10,,,81,127
66523,note_off,109,0,0,,10,,,81,127
66523,note_off,0,0,0,,10,,,57,127
66523,note_off,0,0,0,,4,,,52,127
66523,note_off,0,0,0,,0,,,48,127
66524,note_on,1,0,0,,4,,,52,127
66524,note_on,0,0,0,,8,,,56,127
66524,note_on,0,0,0,,2,,,50,127
66524,note_on,0,0,0,,12,,,47,127
66524,note_on,0,0,0,,12,,,83,127
66633,note_off,109,0,0,,12,,,83,127
66634,note_on,1,0,0,,12,,,83,127
66743,note_off,109,0,0,,12,,,83,127
66744,note_on,1,0,0,,12,,,83,127
66853,note_off,109,0,0,,12,,,83,127
66853,note_off,0,0,0,,12,,,47,127
66853,note_off,0,0,0,,2,,,50,127
66853,note_off,0,0,0,,8,,,56,127
66853,note_off,0,0,0,,4,,,52,127
66854,note_on,1,0,0,,10,,,45,127
66854,note_on,0,0,0,,0,,,84,127
66963,note_off,109,0,0,,0,,,84,127
66964,note_on,1,0,0,,10,,,81,127
67073,note_off,109,0,0,,10,,,81,127
67074,note_on,1,0,0,,8,,,80,127
67183,note_off,109,0,0,,8,,,80,127
67184,note_on,1,0,0,,10,,,81,127
67293,note_off,109,0,0,,10,,,81,127
67294,note_on,1,0,0,,4,,,76,127
67403,note_off,109,0,0,,4,,,76,127
67404,note_on,1,0,0,,3,,,75,127
67513,note_off,109,0,0,,3,,,75,127
67513,note_off,0,0,0,,10,,,45,127
67514,note_on,1,0,0,,10,,,45,127
67514,note_on,0,0,0,,4,,,76,127
67623,note_off,109,0,0,,4,,,76,127
67624,note_on,1,0,0,,0,,,72,127
67733,note_off,109,0,0,,0,,,72,127
67734,note_on,1,0,0,,12,,,71,127
67843,note_off,109,0,0,,12,,,71,127
67844,note_on,1,0,0,,0,,,72,127
67953,note_off,109,0,0,,0,,,72,127
67954,note_on,1,0,0,,10,,,69,127
68063,note_off,109,0,0,,10,,,69,127
68064,note_on,1,0,0,,8,,,68,127
68173,note_off,109,0,0,,8,,,68,127
68173,note_off,0,0,0,,10,,,45,127
68174,note_on,1,0,0,,10,,,45,127
68174,note_on,0,0,0,,10,,,69,127
68283,note_off,109,0,0,,10,,,69,127
68284,note_on,1,0,0,,4,,,64,127
68393,note_off,109,0,0,,4,,,64,127
68394,note_on,1,0,0,,3,,,63,127
68503,note_off,109,0,0,,3,,,63,127
68504,note_on,1,0,0,,4,,,64,127
68613,note_off,109,0,0,,4,,,64,127
68614,note_on,1,0,0,,0,,,60,127
68723,note_off,109,0,0,,0,,,60,127
68724,note_on,1,0,0,,12,,,59,127
68833,note_off,109,0,0,,10,,,45,127
68842,note_off,9,0,0,,12,,,59,127
68843,note_on,1,0,0,,10,,,57,127
69424,note_on,581,0,0,,4,,,64,127
69533,note_off,109,0,0,,4,,,64,127
69534,note_on,1,0,0,,4,,,64,127
69643,note_off,109,0,0,,4,,,64,127
69644,note_on,1,0,0,,4,,,64,127
69751,note_off,107,0,0,,10,,,57,127
69753,note_off,2,0,0,,4,,,64,127
69754,note_on,1,0,0,,4,,,64,127
69754,note_on,0,0,0,,10,,,57,127
69863,note_off,109,0,0,,4,,,64,127
69864,note_on,1,0,0,,4,,,64,127
69973,note_off,109,0,0,,4,,,64,127
69974,note_on,1,0,0,,4,,,64,127
70083,note_off,109,0,0,,4,,,64,127
70083,note_off,0,0,0,,10,,,57,127
70084,note_on,1,0,0,,4,,,64,127
70084,note_on,0,0,0,,11,,,58,127
70084,note_on,0,0,0,,7,,,55,127
70193,note_off,109,0,0,,4,,,64,127
70194,note_on,1,0,0,,4,,,64,127
70303,note_off,109,0,0,,4,,,64,127
70304,note_on,1,0,0,,4,,,64,127
70413,note_off,109,0,0,,4,,,64,127
70413,note_off,0,0,0,,7,,,55,127
70413,note_off,0,0,0,,11,,,58,127
70414,note_on,1,0,0,,4,,,64,127
70414,note_on,0,0,0,,5,,,53,127
70414,note_on,0,0,0,,10,,,57,127
70523,note_off,109,0,0,,4,,,64,127
70524,note_on,1,0,0,,4,,,64,127
70633,note_off,109,0,0,,4,,,64,127
70634,note_on,1,0,0,,4,,,64,127
70743,note_off,109,0,0,,4,,,64,127
70743,note_off,0,0,0,,10,,,57,127
70743,note_off,0,0,0,,5,,,53,127
70744,note_on,1,0,0,,4,,,64,127
70744,note_on,0,0,0,,7,,,55,127
70744,note_on,0,0,0,,4,,,52,127
70853,note_off,109,0,0,,4,,,64,127
70854,note_on,1,0,0,,4,,,64,127
70963,note_off,109,0,0,,4,,,64,127
70964,note_on,1,0,0,,4,,,64,127
71073,note_off,109,0,0,,4,,,64,127
71073,note_off,0,0,0,,4,,,52,127
71073,note_off,0,0,0,,7,,,55,127
71074,note_on,1,0,0,,5,,,65,127
71074,note_on,0,0,0,,5,,,53,127
71074,note_on,0,0,0,,2,,,50,127
71183,note_off,109,0,0,,5,,,65,127
71184,note_on,1,0,0,,5,,,65,127
71293,note_off,109,0,0,,5,,,65,127
71294,note_on,1,0,0,,5,,,65,127
71403,note_off,109,0,0,,5,,,65,127
71403,note_off,0,0,0,,2,,,50,127
71403,note_off,0,0,0,,5,,,53,127
71404,note_on,1,0,0,,7,,,67,127
71404,note_on,0,0,0,,4,,,52,127
71404,note_on,0,0,0,,0,,,48,127
71513,note_off,109,0,0,,7,,,67,127
71514,note_on,1,0,0,,7,,,67,127
71623,note_off,109,0,0,,7,,,67,127
71624,note_on,1,0,0,,7,,,67,127
71733,note_off,109,0,0,,7,,,67,127
71733,note_off,0,0,0,,0,,,48,127
71733,note_off,0,0,0,,4,,,52,127
71734,note_on,1,0,0,,7,,,67,127
71734,note_on,0,0,0,,11,,,46,127
71734,note_on,0,0,0,,2,,,50,127
71843,note_off,109,0,0,,7,,,67,127
71844,note_on,1,0,0,,7,,,67,127
71953,note_off,109,0,0,,7,,,67,127
71954,note_on,1,0,0,,7,,,67,127
72063,note_off,109,0,0,,7,,,67,127
72063,note_off,0,0,0,,2,,,50,127
72063,note_off,0,0,0,,11,,,46,127
72064,note_on,1,0,0,,7,,,67,127
72064,note_on,0,0,0,,1,,,49,127
72064,note_on,0,0,0,,4,,,52,127
72064,note_on,0,0,0,,10,,,45,127
72173,note_off,109,0,0,,7,,,67,127
72174,note_on,1,0,0,,7,,,67,127
72283,note_off,109,0,0,,7,,,67,127
72284,note_on,1,0,0,,7,,,67,127
72393,note_off,109,0,0,,7,,,67,127
72393,note_off,0,0,0,,10,,,45,127
72393,note_off,0,0,0,,4,,,52,127
72393,note_off,0,0,0,,1,,,49,127
72394,note_on,1,0,0,,10,,,69,127
72394,note_on,0,0,0,,10,,,57,127
72503,note_off,109,0,0,,10,,,69,127
72504,note_on,1,0,0,,10,,,69,127
72613,note_off,109,0,0,,10,,,69,127
72614,note_on,1,0,0,,10,,,69,127
72723,note_off,109,0,0,,10,,,69,127
72723,note_off,0,0,0,,10,,,57,127
72724,note_on,1,0,0,,11,,,70,127
72724,note_on,0,0,0,,7,,,55,127
72724,note_on,0,0,0,,11,,,58,127
72833,note_off,109,0,0,,11,,,70,127
72834,note_on,1,0,0,,11,,,70,127
72943,note_off,109,0,0,,11,,,70,127
72944,note_on,1,0,0,,11,,,70,127
73053,note_off,109,0,0,,11,,,70,127
73053,note_off,0,0,0,,11,,,58,127
73053,note_off,0,0,0,,7,,,55,127
73054,note_on,1,0,0,,11,,,70,127
73054,note_on,0,0,0,,10,,,57,127
73054,note_on,0,0,0,,5,,,53,127
73163,note_off,109,0,0,,11,,,70,127
73164,note_on,1,0,0,,11,,,70,127
73273,note_off,109,0,0,,11,,,70,127
73274,note_on,1,0,0,,11,,,70,127
73383,note_off,109,0,0,,11,,,70,127
73383,note_off,0,0,0,,5,,,53,127
73383,note_off,0,0,0,,10,,,57,127
73384,note_on,1,0,0,,11,,,70,127
73384,note_on,0,0,0,,7,,,55,127
73384,note_on,0,0,0,,4,,,52,127
73493,note_off,109,0,0,,11,,,70,127
73494,note_on,1,0,0,,11,,,70,127
73603,note_off,109,0,0,,11,,,70,127
73604,note_on,1,0,0,,11,,,70,127
73713,note_off,109,0,0,,11,,,70,127
73713,note_off,0,0,0,,4,,,52,127
73713,note_off,0,0,0,,7,,,55,127
73714,note_on,1,0,0,,12,,,71,127
73714,note_on,0,0,0,,12,,,59,127
73714,note_on,0,0,0,,2,,,50,127
73823,note_off,109,0,0,,12,,,71,127
73824,note_on,1,0,0,,12,,,71,127
73933,note_off,109,0,0,,12,,,71,127
73934,note_on,1,0,0,,12,,,71,127
74043,note_off,109,0,0,,12,,,71,127
74043,note_off,0,0,0,,2,,,50,127
74043,note_off,0,0,0,,12,,,59,127
74044,note_on,1,0,0,,0,,,72,127
74044,note_on,0,0,0,,0,,,48,127
74044,note_on,0,0,0,,0,,,60,127
74153,note_off,109,0,0,,0,,,72,127
74154,note_on,1,0,0,,0,,,72,127
74263,note_off,109,0,0,,0,,,72,127
74264,note_on,1,0,0,,0,,,72,127
74373,note_off,109,0,0,,0,,,72,127
74373,note_off,0,0,0,,0,,,60,127
74373,note_off,0,0,0,,0,,,48,127
74374,note_on,1,0,0,,0,,,72,127
74374,note_on,0,0,0,,0,,,60,127
74374,note_on,0,0,0,,11,,,58,127
74483,note_off,109,0,0,,0,,,72,127
74484,note_on,1,0,0,,0,,,72,127
74593,note_off,109,0,0,,0,,,72,127
74594,note_on,1,0,0,,0,,,72,127
74703,note_off,109,0,0,,0,,,72,127
74703,note_off,0,0,0,,11,,,58,127
74703,note_off,0,0,0,,0,,,60,127
74704,note_on,1,0,0,,0,,,72,127
74704,note_on,0,0,0,,10,,,57,127
74813,note_off,109,0,0,,0,,,72,127
74814,note_on,1,0,0,,0,,,72,127
74923,note_off,109,0,0,,0,,,72,127
74924,note_on,1,0,0,,0,,,72,127
75033,note_off,109,0,0,,0,,,72,127
75033,note_off,0,0,0,,10,,,57,127
75034,note_on,1,0,0,,1,,,73,127
75034,note_on,0,0,0,,1,,,61,127
75034,note_on,0,0,0,,4,,,64,127
75034,note_on,0,0,0,,7,,,55,127
75034,note_on,0,0,0,,10,,,57,127
75143,note_off,109,0,0,,1,,,73,127
75144,note_on,1,0,0,,1,,,73,127
75253,note_off,109,0,0,,1,,,73,127
75254,note_on,1,0,0,,1,,,73,127
75363,note_off,109,0,0,,1,,,73,127
75363,note_off,0,0,0,,10,,,57,127
75363,note_off,0,0,0,,7,,,55,127
75363,note_off,0,0,0,,4,,,64,127
75363,note_off,0,0,0,,1,,,61,127
75364,note_on,1,0,0,,2,,,74,127
75364,note_on,0,0,0,,10,,,57,127
75364,note_on,0,0,0,,5,,,53,127
75364,note_on,0,0,0,,2,,,62,127
75473,note_off,109,0,0,,2,,,74,127
75474,note_on,1,0,0,,2,,,74,127
75583,note_off,109,0,0,,2,,,74,127
75584,note_on,1,0,0,,2,,,74,127
75693,note_off,109,0,0,,2,,,74,127
75693,note_off,0,0,0,,2,,,62,127
75693,note_off,0,0,0,,5,,,53,127
75693,note_off,0,0,0,,10,,,57,127
75694,note_on,1,0,0,,4,,,76,127
75694,note_on,0,0,0,,7,,,55,127
75694,note_on,0,0,0,,4,,,52,127
75694,note_on,0,0,0,,1,,,61,127
75694,note_on,0,0,0,,10,,,57,127
75803,note_off,109,0,0,,4,,,76,127
75804,note_on,1,0,0,,4,,,76,127
75913,note_off,109,0,0,,4,,,76,127
75914,note_on,1,0,0,,4,,,76,127
76023,note_off,109,0,0,,4,,,76,127
76023,note_off,0,0,0,,10,,,57,127
76023,note_off,0,0,0,,1,,,61,127
76023,note_off,0,0,0,,4,,,52,127
76023,note_off,0,0,0,,7,,,55,127
76024,note_on,1,0,0,,5,,,77,127
76024,note_on,0,0,0,,2,,,50,127
76133,note_off,109,0,0,,5,,,77,127
76134,note_on,1,0,0,,2,,,74,127
76243,note_off,109,0,0,,2,,,74,127
76244,note_on,1,0,0,,1,,,73,127
76353,note_off,109,0,0,,1,,,73,127
76354,note_on,1,0,0,,2,,,74,127
76463,note_off,109,0,0,,2,,,74,127
76464,note_on,1,0,0,,10,,,69,127
76573,note_off,109,0,0,,10,,,69,127
76574,note_on,1,0,0,,8,,,68,127
76683,note_off,109,0,0,,8,,,68,127
76684,note_on,1,0,0,,10,,,69,127
76684,note_on,0,0,0,,2,,,62,127
76793,note_off,109,0,0,,10,,,69,127
76794,note_on,1,0,0,,5,,,65,127
76903,note_off,109,0,0,,5,,,65,127
76904,note_on,1,0,0,,4,,,64,127
77013,note_off,109,0,0,,4,,,64,127
77014,note_off,1,0,0,,2,,,50,127
77014,note_on,0,0,0,,5,,,65,127
77123,note_off,109,0,0,,5,,,65,127
77124,note_on,1,0,0,,4,,,64,127
77232,note_off,108,0,0,,2,,,62,127
77233,note_off,1,0,0,,4,,,64,127
77234,note_on,1,0,0,,2,,,62,127
77311,note_off,77,0,0,,2,,,62,127
77350,note_on,39,0,0,,4,,,76,127
77350,note_on,0,0,0,,10,,,45,127
77459,note_off,109,0,0,,4,,,76,127
77460,note_on,1,0,0,,1,,,73,127
77569,note_off,109,0,0,,1,,,73,127
77570,note_on,1,0,0,,12,,,71,127
77679,note_off,109,0,0,,12,,,71,127
77680,note_on,1,0,0,,1,,,73,127
77789,note_off,109,0,0,,1,,,73,127
77790,note_on,1,0,0,,10,,,69,127
77899,note_off,109,0,0,,10,,,69,127
77900,note_on,1,0,0,,8,,,68,127
78009,note_off,109,0,0,,8,,,68,127
78010,note_on,1,0,0,,10,,,69,127
78010,note_on,0,0,0,,10,,,57,127
78119,note_off,109,0,0,,10,,,69,127
78120,note_on,1,0,0,,7,,,67,127
78229,note_off,109,0,0,,7,,,67,127
78230,note_on,1,0,0,,5,,,65,127
78339,note_off,109,0,0,,5,,,65,127
78340,note_off,1,0,0,,10,,,45,127
78340,note_on,0,0,0,,7,,,67,127
78449,note_off,109,0,0,,7,,,67,127
78450,note_on,1,0,0,,5,,,65,127
78559,note_off,109,0,0,,5,,,65,127
78560,note_on,1,0,0,,4,,,64,127
78629,note_off,69,0,0,,4,,,64,127
78669,note_off,40,0,0,,10,,,57,127
78677,note_on,8,0,0,,6,,,78,127
78677,note_on,0,0,0,,2,,,50,127
78786,note_off,109,0,0,,6,,,78,127
78787,note_on,1,0,0,,2,,,74,127
78896,note_off,109,0,0,,2,,,74,127
78897,note_on,1,0,0,,1,,,73,127
79006,note_off,109,0,0,,1,,,73,127
79007,note_on,1,0,0,,2,,,74,127
79116,note_off,109,0,0,,2,,,74,127
79117,note_on,1,0,0,,10,,,69,127
79226,note_off,109,0,0,,10,,,69,127
79227,note_on,1,0,0,,8,,,68,127
79336,note_off,109,0,0,,8,,,68,127
79337,note_on,1,0,0,,10,,,69,127
79337,note_on,0,0,0,,2,,,62,127
79446,note_off,109,0,0,,10,,,69,127
79447,note_on,1,0,0,,6,,,66,127
79556,note_off,109,0,0,,6,,,66,127
79557,note_on,1,0,0,,4,,,64,127
79666,note_off,109,0,0,,4,,,64,127
79667,note_on,1,0,0,,6,,,66,127
79776,note_off,109,0,0,,6,,,66,127
79777,note_on,1,0,0,,4,,,64,127
79880,note_off,103,0,0,,2,,,50,127
79886,note_off,6,0,0,,4,,,64,127
79887,note_off,1,0,0,,2,,,62,127
79887,note_on,0,0,0,,2,,,62,127
79990,note_off,103,0,0,,2,,,62,127
79997,note_on,7,0,0,,4,,,76,127
79997,note_on,0,0,0,,10,,,45,127
80106,note_off,109,0,0,,4,,,76,127
80107,note_on,1,0,0,,1,,,73,127
80216,note_off,109,0,0,,1,,,73,127
80217,note_on,1,0,0,,12,,,71,127
80326,note_off,109,0,0,,12,,,71,127
80327,note_on,1,0,0,,1,,,73,127
80436,note_off,109,0,0,,1,,,73,127
80437,note_on,1,0,0,,10,,,69,127
80546,note_off,109,0,0,,10,,,69,127
80547,note_on,1,0,0,,8,,,68,127
80656,note_off,109,0,0,,8,,,68,127
80657,note_on,1,0,0,,10,,,69,127
80657,note_on,0,0,0,,10,,,57,127
80766,note_off,109,0,0,,10,,,69,127
80767,note_on,1,0,0,,7,,,67,127
80876,note_off,109,0,0,,7,,,67,127
80877,note_on,1,0,0,,6,,,66,127
80986,note_off,109,0,0,,6,,,66,127
80987,note_on,1,0,0,,7,,,67,127
81096,note_off,109,0,0,,7,,,67,127
81097,note_on,1,0,0,,6,,,66,127
81200,note_off,103,0,0,,10,,,45,127
81206,note_off,6,0,0,,6,,,66,127
81213,note_on,7,0,0,,4,,,64,127
81299,note_off,86,0,0,,4,,,64,127
81331,note_on,32,0,0,,2,,,50,127
81331,note_on,0,0,0,,6,,,78,127
81351,note_off,20,0,0,,10,,,57,127
81440,note_off,89,0,0,,2,,,50,127
81441,note_on,1,0,0,,2,,,62,127
81550,note_off,109,0,0,,2,,,62,127
81551,note_on,1,0,0,,6,,,66,127
81660,note_off,109,0,0,,6,,,66,127
81660,note_off,0,0,0,,6,,,78,127
81661,note_on,1,0,0,,10,,,45,127
81661,note_on,0,0,0,,7,,,79,127
81770,note_off,109,0,0,,10,,,45,127
81771,note_on,1,0,0,,10,,,57,127
81880,note_off,109,0,0,,10,,,57,127
81881,note_on,1,0,0,,1,,,61,127
81990,note_off,109,0,0,,1,,,61,127
81990,note_off,0,0,0,,7,,,79,127
81991,note_on,1,0,0,,2,,,50,127
81991,note_on,0,0,0,,6,,,78,127
82100,note_off,109,0,0,,2,,,50,127
82101,note_on,1,0,0,,2,,,62,127
82210,note_off,109,0,0,,2,,,62,127
82211,note_on,1,0,0,,6,,,66,127
82320,note_off,109,0,0,,6,,,66,127
82320,note_off,0,0,0,,6,,,78,127
82321,note_on,1,0,0,,10,,,45,127
82321,note_on,0,0,0,,4,,,76,127
82430,note_off,109,0,0,,10,,,45,127
82431,note_on,1,0,0,,10,,,57,127
82540,note_off,109,0,0,,10,,,57,127
82541,note_on,1,0,0,,1,,,61,127
82650,note_off,109,0,0,,1,,,61,127
82650,note_off,0,0,0,,4,,,76,127
82651,note_on,1,0,0,,2,,,50,127
82651,note_on,0,0,0,,10,,,81,127
82760,note_off,109,0,0,,10,,,81,127
82761,note_on,1,0,0,,6,,,78,127
82870,note_off,109,0,0,,6,,,78,127
82871,note_on,1,0,0,,4,,,76,127
82980,note_off,109,0,0,,4,,,76,127
82981,note_on,1,0,0,,6,,,78,127
83090,note_off,109,0,0,,6,,,78,127
83091,note_on,1,0,0,,2,,,74,127
83200,note_off,109,0,0,,2,,,74,127
83201,note_on,1,0,0,,1,,,73,127
83310,note_off,109,0,0,,1,,,73,127
83310,note_off,0,0,0,,2,,,50,127
83311,note_on,1,0,0,,2,,,74,127
83420,note_off,109,0,0,,2,,,74,127
83421,note_on,1,0,0,,10,,,69,127
83530,note_off,109,0,0,,10,,,69,127
83531,note_on,1,0,0,,6,,,66,127
83640,note_off,109,0,0,,6,,,66,127
83641,note_on,1,0,0,,2,,,62,127
83750,note_off,109,0,0,,2,,,62,127
83751,note_on,1,0,0,,6,,,66,127
83860,note_off,109,0,0,,6,,,66,127
83861,note_on,1,0,0,,10,,,69,127
83970,note_off,109,0,0,,10,,,69,127
83985,note_on,15,0,0,,8,,,80,127
83985,note_on,0,0,0,,4,,,52,127
84094,note_off,109,0,0,,4,,,52,127
84095,note_on,1,0,0,,4,,,64,127
84204,note_off,109,0,0,,4,,,64,127
84205,note_on,1,0,0,,8,,,68,127
84314,note_off,109,0,0,,8,,,68,127
84314,note_off,0,0,0,,8,,,80,127
84315,note_on,1,0,0,,10,,,81,127
84315,note_on,0,0,0,,12,,,47,127
84424,note_off,109,0,0,,12,,,47,127
84425,note_on,1,0,0,,12,,,59,127
84534,note_off,109,0,0,,12,,,59,127
84535,note_on,1,0,0,,3,,,63,127
84644,note_off,109,0,0,,3,,,63,127
84644,note_off,0,0,0,,10,,,81,127
84645,note_on,1,0,0,,8,,,80,127
84645,note_on,0,0,0,,4,,,52,127
84754,note_off,109,0,0,,4,,,52,127
84755,note_on,1,0,0,,4,,,64,127
84864,note_off,109,0,0,,4,,,64,127
84865,note_on,1,0,0,,8,,,68,127
84974,note_off,109,0,0,,8,,,68,127
84974,note_off,0,0,0,,8,,,80,127
84975,note_on,1,0,0,,6,,,78,127
84975,note_on,0,0,0,,12,,,47,127
85084,note_off,109,0,0,,12,,,47,127
85085,note_on,1,0,0,,12,,,59,127
85194,note_off,109,0,0,,12,,,59,127
85195,note_on,1,0,0,,3,,,63,127
85304,note_off,109,0,0,,3,,,63,127
85304,note_off,0,0,0,,6,,,78,127
85305,note_on,1,0,0,,12,,,83,127
85305,note_on,0,0,0,,4,,,52,127
85414,note_off,109,0,0,,12,,,83,127
85415,note_on,1,0,0,,8,,,80,127
85524,note_off,109,0,0,,8,,,80,127
85525,note_on,1,0,0,,6,,,78,127
85634,note_off,109,0,0,,6,,,78,127
85635,note_on,1,0,0,,8,,,80,127
85744,note_off,109,0,0,,8,,,80,127
85745,note_on,1,0,0,,4,,,76,127
85854,note_off,109,0,0,,4,,,76,127
85855,note_on,1,0,0,,3,,,75,127
85964,note_off,109,0,0,,3,,,75,127
85964,note_off,0,0,0,,4,,,52,127
85965,note_on,1,0,0,,4,,,76,127
86074,note_off,109,0,0,,4,,,76,127
86075,note_on,1,0,0,,12,,,71,127
86184,note_off,109,0,0,,12,,,71,127
86185,note_on,1,0,0,,8,,,68,127
86294,note_off,109,0,0,,8,,,68,127
86295,note_on,1,0,0,,4,,,64,127
86404,note_off,109,0,0,,4,,,64,127
86405,note_on,1,0,0,,8,,,68,127
86514,note_off,109,0,0,,8,,,68,127
86520,note_on,6,0,0,,12,,,71,127
86635,note_off,115,0,0,,12,,,71,127
86638,note_on,3,0,0,,10,,,45,127
86638,note_on,0,0,0,,1,,,85,127
86747,note_off,109,0,0,,10,,,45,127
86748,note_on,1,0,0,,10,,,57,127
86857,note_off,109,0,0,,10,,,57,127
86858,note_on,1,0,0,,1,,,61,127
86967,note_off,109,0,0,,1,,,61,127
86967,note_off,0,0,0,,1,,,85,127
86968,note_on,1,0,0,,4,,,40,127
86968,note_on,0,0,0,,2,,,86,127
87077,note_off,109,0,0,,4,,,40,127
87078,note_on,1,0,0,,4,,,52,127
87187,note_off,109,0,0,,4,,,52,127
87188,note_on,1,0,0,,8,,,56,127
87297,note_off,109,0,0,,8,,,56,127
87297,note_off,0,0,0,,2,,,86,127
87298,note_on,1,0,0,,10,,,45,127
87298,note_on,0,0,0,,1,,,85,127
87407,note_off,109,0,0,,10,,,45,127
87408,note_on,1,0,0,,10,,,57,127
87517,note_off,109,0,0,,10,,,57,127
87518,note_on,1,0,0,,1,,,61,127
87627,note_off,109,0,0,,1,,,61,127
87627,note_off,0,0,0,,1,,,85,127
87628,note_on,1,0,0,,4,,,40,127
87628,note_on,0,0,0,,12,,,83,127
87737,note_off,109,0,0,,4,,,40,127
87738,note_on,1,0,0,,4,,,52,127
87847,note_off,109,0,0,,4,,,52,127
87848,note_on,1,0,0,,8,,,56,127
87957,note_off,109,0,0,,8,,,56,127
87957,note_off,0,0,0,,12,,,83,127
87958,note_on,1,0,0,,10,,,45,127
87958,note_on,0,0,0,,1,,,85,127
88067,note_off,109,0,0,,10,,,45,127
88068,note_on,1,0,0,,10,,,57,127
88177,note_off,109,0,0,,10,,,57,127
88178,note_on,1,0,0,,1,,,61,127
88287,note_off,109,0,0,,1,,,61,127
88287,note_off,0,0,0,,1,,,85,127
88288,note_on,1,0,0,,12,,,47,127
88288,note_on,0,0,0,,8,,,80,127
88397,note_off,109,0,0,,12,,,47,127
88398,note_on,1,0,0,,12,,,59,127
88507,note_off,109,0,0,,12,,,59,127
88508,note_on,1,0,0,,2,,,62,127
88617,note_off,109,0,0,,2,,,62,127
88617,note_off,0,0,0,,8,,,80,127
88618,note_on,1,0,0,,1,,,49,127
88618,note_on,0,0,0,,10,,,81,127
88727,note_off,109,0,0,,1,,,49,127
88728,note_on,1,0,0,,1,,,61,127
88837,note_off,109,0,0,,1,,,61,127
88838,note_on,1,0,0,,4,,,64,127
88947,note_off,109,0,0,,4,,,64,127
88947,note_off,0,0,0,,10,,,81,127
88948,note_on,1,0,0,,2,,,50,127
88948,note_on,0,0,0,,6,,,78,127
89057,note_off,109,0,0,,2,,,50,127
89058,note_on,1,0,0,,2,,,62,127
89167,note_off,109,0,0,,2,,,62,127
89168,note_on,1,0,0,,6,,,66,127
89277,note_off,109,0,0,,6,,,66,127
89277,note_off,0,0,0,,6,,,78,127
89278,note_on,1,0,0,,4,,,52,127
89278,note_on,0,0,0,,8,,,80,127
89387,note_off,109,0,0,,8,,,80,127
89388,note_on,1,0,0,,12,,,83,127
89497,note_off,109,0,0,,12,,,83,127
89498,note_on,1,0,0,,10,,,81,127
89607,note_off,109,0,0,,10,,,81,127
89608,note_on,1,0,0,,12,,,83,127
89717,note_off,109,0,0,,12,,,83,127
89718,note_on,1,0,0,,8,,,80,127
89827,note_off,109,0,0,,8,,,80,127
89828,note_on,1,0,0,,6,,,78,127
89937,note_off,109,0,0,,6,,,78,127
89937,note_off,0,0,0,,4,,,52,127
89938,note_on,1,0,0,,4,,,64,127
89938,note_on,0,0,0,,8,,,80,127
90047,note_off,109,0,0,,8,,,80,127
90048,note_on,1,0,0,,4,,,76,127
90157,note_off,109,0,0,,4,,,76,127
90158,note_on,1,0,0,,2,,,74,127
90267,note_off,109,0,0,,2,,,74,127
90268,note_on,1,0,0,,4,,,76,127
90268,note_on,0,0,0,,2,,,74,127
90377,note_off,109,0,0,,2,,,74,127
90377,note_off,0,0,0,,4,,,76,127
90378,note_on,1,0,0,,1,,,73,127
90487,note_off,109,0,0,,1,,,73,127
90488,note_on,1,0,0,,12,,,71,127
90597,note_off,109,0,0,,12,,,71,127
90598,note_on,1,0,0,,1,,,73,127
90707,note_off,109,0,0,,4,,,64,127
90708,note_on,1,0,0,,10,,,69,127
90817,note_off,109,0,0,,10,,,69,127
90818,note_on,1,0,0,,8,,,68,127
90927,note_off,109,0,0,,8,,,68,127
90928,note_on,1,0,0,,10,,,69,127
91037,note_off,109,0,0,,10,,,69,127
91038,note_on,1,0,0,,6,,,66,127
91147,note_off,109,0,0,,6,,,66,127
91148,note_on,1,0,0,,4,,,64,127
91257,note_off,109,0,0,,4,,,64,127
91257,note_off,0,0,0,,1,,,73,127
91258,note_on,1,0,0,,6,,,66,127
91258,note_on,0,0,0,,10,,,69,127
91367,note_off,109,0,0,,6,,,66,127
91368,note_on,1,0,0,,2,,,62,127
91477,note_off,109,0,0,,2,,,62,127
91478,note_on,1,0,0,,1,,,61,127
91587,note_off,109,0,0,,1,,,61,127
91587,note_off,0,0,0,,10,,,69,127
91588,note_on,1,0,0,,2,,,62,127
91588,note_on,0,0,0,,6,,,78,127
91697,note_off,109,0,0,,2,,,62,127
91698,note_on,1,0,0,,12,,,59,127
91807,note_off,109,0,0,,12,,,59,127
91808,note_on,1,0,0,,10,,,57,127
91917,note_off,109,0,0,,10,,,57,127
91918,note_on,1,0,0,,12,,,59,127
91918,note_on,0,0,0,,2,,,74,127
92027,note_off,109,0,0,,12,,,59,127
92028,note_on,1,0,0,,8,,,56,127
92137,note_off,109,0,0,,8,,,56,127
92138,note_on,1,0,0,,6,,,54,127
92247,note_off,109,0,0,,6,,,54,127
92247,note_off,0,0,0,,2,,,74,127
92247,note_off,0,0,0,,6,,,78,127
92248,note_on,1,0,0,,8,,,56,127
92248,note_on,0,0,0,,12,,,83,127
92248,note_on,0,0,0,,12,,,71,127
92357,note_off,109,0,0,,8,,,56,127
92358,note_on,1,0,0,,4,,,52,127
92467,note_off,109,0,0,,4,,,52,127
92468,note_on,1,0,0,,3,,,51,127
92577,note_off,109,0,0,,3,,,51,127
92577,note_off,0,0,0,,12,,,83,127
92578,note_on,1,0,0,,4,,,52,127
92578,note_on,0,0,0,,8,,,80,127
92687,note_off,109,0,0,,4,,,52,127
92688,note_on,1,0,0,,1,,,49,127
92797,note_off,109,0,0,,1,,,49,127
92798,note_on,1,0,0,,12,,,47,127
92907,note_off,109,0,0,,12,,,47,127
92907,note_off,0,0,0,,8,,,80,127
92907,note_off,0,0,0,,12,,,71,127
92908,note_on,1,0,0,,1,,,49,127
92908,note_on,0,0,0,,4,,,76,127
93017,note_off,109,0,0,,1,,,49,127
93018,note_on,1,0,0,,10,,,45,127
93127,note_off,109,0,0,,10,,,45,127
93128,note_on,1,0,0,,8,,,44,127
93237,note_off,109,0,0,,8,,,44,127
93238,note_on,1,0,0,,10,,,45,127
93269,note_off,31,0,0,,4,,,76,127
93348,note_on,79,0,0,,1,,,85,127
93457,note_off,109,0,0,,1,,,85,127
93458,note_on,1,0,0,,12,,,83,127
93567,note_off,109,0,0,,12,,,83,127
93568,note_on,1,0,0,,1,,,85,127
93677,note_off,109,0,0,,1,,,85,127
93678,note_on,1,0,0,,10,,,81,127
93787,note_off,109,0,0,,10,,,81,127
93788,note_on,1,0,0,,8,,,80,127
93897,note_off,109,0,0,,8,,,80,127
93898,note_on,1,0,0,,10,,,57,127
93898,note_on,0,0,0,,1,,,49,127
93898,note_on,0,0,0,,4,,,52,127
93898,note_on,0,0,0,,10,,,81,127
94007,note_off,109,0,0,,10,,,81,127
94008,note_on,1,0,0,,4,,,76,127
94117,note_off,109,0,0,,4,,,76,127
94118,note_on,1,0,0,,3,,,75,127
94227,note_off,109,0,0,,3,,,75,127
94228,note_on,1,0,0,,4,,,76,127
94337,note_off,109,0,0,,4,,,76,127
94338,note_on,1,0,0,,6,,,78,127
94447,note_off,109,0,0,,6,,,78,127
94448,note_on,1,0,0,,4,,,76,127
94527,note_off,79,0,0,,10,,,45,127
94557,note_off,30,0,0,,4,,,76,127
94557,note_off,0,0,0,,4,,,52,127
94557,note_off,0,0,0,,1,,,49,127
94557,note_off,0,0,0,,10,,,57,127
94558,note_on,1,0,0,,2,,,50,127
94558,note_on,0,0,0,,6,,,78,127
94667,note_off,109,0,0,,6,,,78,127
94668,note_on,1,0,0,,10,,,81,127
94777,note_off,109,0,0,,10,,,81,127
94778,note_on,1,0,0,,8,,,80,127
94887,note_off,109,0,0,,8,,,80,127
94888,note_on,1,0,0,,10,,,81,127
94997,note_off,109,0,0,,10,,,81,127
94998,note_on,1,0,0,,6,,,78,127
95107,note_off,109,0,0,,6,,,78,127
95108,note_on,1,0,0,,4,,,76,127
95217,note_off,109,0,0,,4,,,76,127
95218,note_on,1,0,0,,2,,,62,127
95218,note_on,0,0,0,,6,,,78,127
95327,note_off,109,0,0,,6,,,78,127
95328,note_on,1,0,0,,2,,,74,127
95437,note_off,109,0,0,,2,,,74,127
95438,note_on,1,0,0,,1,,,73,127
95547,note_off,109,0,0,,1,,,73,127
95548,note_on,1,0,0,,4,,,76,127
95548,note_on,0,0,0,,2,,,74,127
95657,note_off,109,0,0,,2,,,74,127
95657,note_off,0,0,0,,4,,,76,127
95658,note_on,1,0,0,,1,,,73,127
95767,note_off,109,0,0,,1,,,73,127
95768,note_on,1,0,0,,12,,,71,127
95847,note_off,79,0,0,,2,,,50,127
95877,note_off,30,0,0,,12,,,71,127
95877,note_off,0,0,0,,2,,,62,127
95878,note_on,1,0,0,,1,,,61,127
95878,note_on,0,0,0,,10,,,57,127
95878,note_on,0,0,0,,4,,,52,127
95878,note_on,0,0,0,,1,,,73,127
95987,note_off,109,0,0,,1,,,73,127
95988,note_on,1,0,0,,2,,,74,127
96097,note_off,109,0,0,,2,,,74,127
96098,note_on,1,0,0,,4,,,76,127
96207,note_off,109,0,0,,4,,,76,127
96208,note_on,1,0,0,,2,,,74,127
96208,note_on,0,0,0,,1,,,73,127
96317,note_off,109,0,0,,1,,,73,127
96317,note_off,0,0,0,,2,,,74,127
96318,note_on,1,0,0,,12,,,71,127
96427,note_off,109,0,0,,12,,,71,127
96428,note_on,1,0,0,,10,,,69,127
96537,note_off,109,0,0,,10,,,69,127
96537,note_off,0,0,0,,4,,,52,127
96537,note_off,0,0,0,,10,,,57,127
96537,note_off,0,0,0,,1,,,61,127
96538,note_on,1,0,0,,10,,,57,127
96538,note_on,0,0,0,,12,,,59,127
96538,note_on,0,0,0,,4,,,52,127
96538,note_on,0,0,0,,12,,,71,127
96647,note_off,109,0,0,,12,,,71,127
96648,note_on,1,0,0,,1,,,73,127
96757,note_off,109,0,0,,1,,,73,127
96758,note_on,1,0,0,,2,,,74,127
96867,note_off,109,0,0,,2,,,74,127
96868,note_on,1,0,0,,12,,,71,127
96868,note_on,0,0,0,,1,,,73,127
96977,note_off,109,0,0,,1,,,73,127
96977,note_off,0,0,0,,12,,,71,127
96978,note_on,1,0,0,,10,,,69,127
97087,note_off,109,0,0,,10,,,69,127
97088,note_on,1,0,0,,8,,,68,127
97197,note_off,109,0,0,,8,,,68,127
97197,note_off,0,0,0,,4,,,52,127
97197,note_off,0,0,0,,12,,,59,127
97197,note_off,0,0,0,,10,,,57,127
97198,note_on,1,0,0,,10,,,45,127
97198,note_on,0,0,0,,10,,,57,127
97199,note_on,1,0,0,,8,,,68,127
97555,note_on,356,0,0,,10,,,69,127
97558,note_off,3,0,0,,8,,,68,127
97855,note_off,297,0,0,,10,,,57,127
97855,note_off,0,0,0,,10,,,45,127
97913,note_off,58,0,0,,10,,,69,127
97931,note_on,18,0,0,,4,,,64,127
98040,note_off,109,0,0,,4,,,64,127
98041,note_on,1,0,0,,4,,,64,127
98150,note_off,109,0,0,,4,,,64,127
98151,note_on,1,0,0,,4,,,64,127
98260,note_off,109,0,0,,4,,,64,127
98261,note_on,1,0,0,,4,,,64,127
98261,note_on,0,0,0,,0,,,48,127
98370,note_off,109,0,0,,4,,,64,127
98371,note_on,1,0,0,,4,,,64,127
98480,note_off,109,0,0,,4,,,64,127
98481,note_on,1,0,0,,4,,,64,127
98590,note_off,109,0,0,,4,,,64,127
98591,note_on,1,0,0,,4,,,64,127
98591,note_on,0,0,0,,4,,,52,127
98700,note_off,109,0,0,,4,,,64,127
98701,note_on,1,0,0,,4,,,64,127
98810,note_off,109,0,0,,4,,,64,127
98811,note_on,1,0,0,,4,,,64,127
98920,note_off,109,0,0,,4,,,64,127
98920,note_off,0,0,0,,4,,,52,127
98921,note_on,1,0,0,,4,,,64,127
98921,note_on,0,0,0,,10,,,57,127
99030,note_off,109,0,0,,4,,,64,127
99031,note_on,1,0,0,,4,,,64,127
99140,note_off,109,0,0,,4,,,64,127
99141,note_on,1,0,0,,4,,,64,127
99250,note_off,109,0,0,,4,,,64,127
99250,note_off,0,0,0,,10,,,57,127
99250,note_off,0,0,0,,0,,,48,127
99251,note_on,1,0,0,,5,,,65,127
99360,note_off,109,0,0,,5,,,65,127
99361,note_on,1,0,0,,5,,,65,127
99470,note_off,109,0,0,,5,,,65,127
99471,note_on,1,0,0,,5,,,65,127
99580,note_off,109,0,0,,5,,,65,127
99581,note_on,1,0,0,,5,,,65,127
99581,note_on,0,0,0,,2,,,50,127
99690,note_off,109,0,0,,5,,,65,127
99691,note_on,1,0,0,,5,,,65,127
99800,note_off,109,0,0,,5,,,65,127
99801,note_on,1,0,0,,5,,,65,127
99910,note_off,109,0,0,,5,,,65,127
99911,note_on,1,0,0,,8,,,68,127
99911,note_on,0,0,0,,10,,,57,127
100020,note_off,109,0,0,,8,,,68,127
100021,note_on,1,0,0,,8,,,68,127
100130,note_off,109,0,0,,8,,,68,127
100131,note_on,1,0,0,,8,,,68,127
100240,note_off,109,0,0,,8,,,68,127
100240,note_off,0,0,0,,10,,,57,127
100241,note_on,1,0,0,,12,,,71,127
100241,note_on,0,0,0,,12,,,59,127
100350,note_off,109,0,0,,12,,,71,127
100351,note_on,1,0,0,,12,,,71,127
100460,note_off,109,0,0,,12,,,71,127
100461,note_on,1,0,0,,12,,,71,127
100570,note_off,109,0,0,,12,,,71,127
100570,note_off,0,0,0,,12,,,59,127
100570,note_off,0,0,0,,2,,,50,127
100571,note_on,1,0,0,,0,,,72,127
100680,note_off,109,0,0,,0,,,72,127
100681,note_on,1,0,0,,0,,,72,127
100790,note_off,109,0,0,,0,,,72,127
100791,note_on,1,0,0,,0,,,72,127
100900,note_off,109,0,0,,0,,,72,127
100901,note_on,1,0,0,,0,,,72,127
100901,note_on,0,0,0,,0,,,48,127
101010,note_off,109,0,0,,0,,,72,127
101011,note_on,1,0,0,,0,,,72,127
101120,note_off,109,0,0,,0,,,72,127
101121,note_on,1,0,0,,0,,,72,127
101230,note_off,109,0,0,,0,,,72,127
101231,note_on,1,0,0,,4,,,76,127
101231,note_on,0,0,0,,4,,,52,127
101340,note_off,109,0,0,,4,,,76,127
101341,note_on,1,0,0,,4,,,76,127
101450,note_off,109,0,0,,4,,,76,127
101451,note_on,1,0,0,,4,,,76,127
101560,note_off,109,0,0,,4,,,76,127
101560,note_off,0,0,0,,4,,,52,127
101561,note_on,1,0,0,,4,,,76,127
101561,note_on,0,0,0,,10,,,57,127
101670,note_off,109,0,0,,4,,,76,127
101671,note_on,1,0,0,,4,,,76,127
101780,note_off,109,0,0,,4,,,76,127
101781,note_on,1,0,0,,4,,,76,127
101890,note_off,109,0,0,,4,,,76,127
101890,note_off,0,0,0,,10,,,57,127
101890,note_off,0,0,0,,0,,,48,127
101891,note_on,1,0,0,,5,,,77,127
102000,note_off,109,0,0,,5,,,77,127
102001,note_on,1,0,0,,5,,,77,127
102110,note_off,109,0,0,,5,,,77,127
102111,note_on,1,0,0,,5,,,77,127
102220,note_off,109,0,0,,5,,,77,127
102221,note_on,1,0,0,,5,,,77,127
102221,note_on,0,0,0,,2,,,50,127
102330,note_off,109,0,0,,5,,,77,127
102331,note_on,1,0,0,,5,,,77,127
102440,note_off,109,0,0,,5,,,77,127
102441,note_on,1,0,0,,5,,,77,127
102550,note_off,109,0,0,,5,,,77,127
102551,note_on,1,0,0,,8,,,80,127
102551,note_on,0,0,0,,10,,,57,127
102660,note_off,109,0,0,,8,,,80,127
102661,note_on,1,0,0,,8,,,80,127
102770,note_off,109,0,0,,8,,,80,127
102771,note_on,1,0,0,,8,,,80,127
102880,note_off,109,0,0,,8,,,80,127
102880,note_off,0,0,0,,10,,,57,127
102881,note_on,1,0,0,,8,,,80,127
102881,note_on,0,0,0,,12,,,59,127
102990,note_off,109,0,0,,8,,,80,127
102991,note_on,1,0,0,,8,,,80,127
103100,note_off,109,0,0,,8,,,80,127
103101,note_on,1,0,0,,8,,,80,127
103210,note_off,109,0,0,,8,,,80,127
103210,note_off,0,0,0,,12,,,59,127
103210,note_off,0,0,0,,2,,,50,127
103211,note_on,1,0,0,,10,,,81,127
103211,note_on,0,0,0,,0,,,48,127
103320,note_off,109,0,0,,10,,,81,127
103321,note_on,1,0,0,,0,,,84,127
103430,note_off,109,0,0,,0,,,84,127
103431,note_on,1,0,0,,12,,,83,127
103540,note_off,109,0,0,,12,,,83,127
103541,note_on,1,0,0,,0,,,84,127
103650,note_off,109,0,0,,0,,,84,127
103651,note_on,1,0,0,,10,,,81,127
103760,note_off,109,0,0,,10,,,81,127
103761,note_on,1,0,0,,8,,,80,127
103870,note_off,109,0,0,,8,,,80,127
103871,note_on,1,0,0,,10,,,81,127
103871,note_on,0,0,0,,10,,,57,127
103980,note_off,109,0,0,,10,,,81,127
103981,note_on,1,0,0,,4,,,76,127
104036,note_off,55,0,0,,0,,,48,127
104090,note_off,54,0,0,,4,,,76,127
104091,note_on,1,0,0,,3,,,75,127
104200,note_off,109,0,0,,3,,,75,127
104201,note_on,1,0,0,,4,,,76,127
104310,note_off,109,0,0,,4,,,76,127
104311,note_on,1,0,0,,5,,,77,127
104420,note_off,109,0,0,,5,,,77,127
104421,note_on,1,0,0,,4,,,76,127
104530,note_off,109,0,0,,4,,,76,127
104530,note_off,0,0,0,,10,,,57,127
104531,note_on,1,0,0,,5,,,77,127
104531,note_on,0,0,0,,2,,,50,127
104640,note_off,109,0,0,,5,,,77,127
104641,note_on,1,0,0,,2,,,74,127
104750,note_off,109,0,0,,2,,,74,127
104751,note_on,1,0,0,,1,,,73,127
104860,note_off,109,0,0,,1,,,73,127
104861,note_on,1,0,0,,2,,,74,127
104970,note_off,109,0,0,,2,,,74,127
104971,note_on,1,0,0,,4,,,76,127
105080,note_off,109,0,0,,4,,,76,127
105081,note_on,1,0,0,,1,,,73,127
105190,note_off,109,0,0,,1,,,73,127
105191,note_on,1,0,0,,4,,,76,127
105191,note_on,0,0,0,,2,,,62,127
105300,note_off,109,0,0,,4,,,76,127
105301,note_on,1,0,0,,0,,,72,127
105410,note_off,109,0,0,,0,,,72,127
105411,note_on,1,0,0,,12,,,71,127
105520,note_off,109,0,0,,12,,,71,127
105521,note_off,1,0,0,,2,,,50,127
105521,note_on,0,0,0,,0,,,72,127
105630,note_off,109,0,0,,0,,,72,127
105631,note_on,1,0,0,,2,,,74,127
105740,note_off,109,0,0,,2,,,74,127
105741,note_on,1,0,0,,1,,,73,127
105850,note_off,109,0,0,,1,,,73,127
105850,note_off,0,0,0,,2,,,62,127
105851,note_on,1,0,0,,2,,,74,127
105851,note_on,0,0,0,,4,,,52,127
105851,note_on,0,0,0,,0,,,60,127
105851,note_on,0,0,0,,10,,,57,127
105960,note_off,109,0,0,,2,,,74,127
105961,note_on,1,0,0,,12,,,71,127
106070,note_off,109,0,0,,12,,,71,127
106071,note_on,1,0,0,,10,,,69,127
106180,note_off,109,0,0,,10,,,69,127
106181,note_on,1,0,0,,12,,,71,127
106290,note_off,109,0,0,,12,,,71,127
106291,note_on,1,0,0,,0,,,72,127
106400,note_off,109,0,0,,0,,,72,127
106401,note_on,1,0,0,,2,,,74,127
106510,note_off,109,0,0,,2,,,74,127
106510,note_off,0,0,0,,10,,,57,127
106510,note_off,0,0,0,,0,,,60,127
106510,note_off,0,0,0,,4,,,52,127
106511,note_on,1,0,0,,0,,,72,127
106511,note_on,0,0,0,,2,,,74,127
106511,note_on,0,0,0,,4,,,52,127
106511,note_on,0,0,0,,12,,,59,127
106511,note_on,0,0,0,,10,,,57,127
106620,note_off,109,0,0,,2,,,74,127
106620,note_off,0,0,0,,0,,,72,127
106621,note_on,1,0,0,,12,,,71,127
106730,note_off,109,0,0,,12,,,71,127
106731,note_on,1,0,0,,10,,,69,127
106840,note_off,109,0,0,,10,,,69,127
106841,note_on,1,0,0,,12,,,71,127
106841,note_on,0,0,0,,0,,,72,127
106950,note_off,109,0,0,,0,,,72,127
106950,note_off,0,0,0,,12,,,71,127
106951,note_on,1,0,0,,10,,,69,127
107060,note_off,109,0,0,,10,,,69,127
107061,note_on,1,0,0,,8,,,68,127
107170,note_off,109,0,0,,8,,,68,127
107170,note_off,0,0,0,,10,,,57,127
107170,note_off,0,0,0,,12,,,59,127
107170,note_off,0,0,0,,4,,,52,127
107171,note_on,1,0,0,,10,,,69,127
107171,note_on,0,0,0,,10,,,45,127
107171,note_on,0,0,0,,10,,,57,127
107280,note_off,109,0,0,,10,,,69,127
107281,note_on,1,0,0,,4,,,64,127
107390,note_off,109,0,0,,4,,,64,127
107391,note_on,1,0,0,,3,,,63,127
107500,note_off,109,0,0,,3,,,63,127
107501,note_on,1,0,0,,4,,,64,127
107610,note_off,109,0,0,,4,,,64,127
107611,note_on,1,0,0,,0,,,60,127
107720,note_off,109,0,0,,0,,,60,127
107721,note_on,1,0,0,,12,,,59,127
107830,note_off,109,0,0,,12,,,59,127
107830,note_off,0,0,0,,10,,,57,127
107831,note_on,1,0,0,,0,,,60,127
107940,note_off,109,0,0,,0,,,60,127
107941,note_on,1,0,0,,10,,,57,127
108050,note_off,109,0,0,,10,,,57,127
108051,note_on,1,0,0,,8,,,56,127
108160,note_off,109,0,0,,8,,,56,127
108161,note_on,1,0,0,,10,,,57,127
108489,note_off,328,0,0,,10,,,57,127
108504,note_on,15,0,0,,4,,,64,127
108545,note_off,41,0,0,,10,,,45,127
108613,note_off,68,0,0,,4,,,64,127
108614,note_on,1,0,0,,4,,,64,127
108723,note_off,109,0,0,,4,,,64,127
108724,note_on,1,0,0,,4,,,64,127
108833,note_off,109,0,0,,4,,,64,127
108834,note_on,1,0,0,,0,,,48,127
108834,note_on,0,0,0,,4,,,64,127
108943,note_off,109,0,0,,4,,,64,127
108944,note_on,1,0,0,,4,,,64,127
109053,note_off,109,0,0,,4,,,64,127
109054,note_on,1,0,0,,4,,,64,127
109163,note_off,109,0,0,,4,,,64,127
109164,note_on,1,0,0,,4,,,52,127
109164,note_on,0,0,0,,4,,,64,127
109273,note_off,109,0,0,,4,,,64,127
109274,note_on,1,0,0,,4,,,64,127
109383,note_off,109,0,0,,4,,,64,127
109384,note_on,1,0,0,,4,,,64,127
109493,note_off,109,0,0,,4,,,64,127
109493,note_off,0,0,0,,4,,,52,127
109494,note_on,1,0,0,,10,,,57,127
109494,note_on,0,0,0,,4,,,64,127
109603,note_off,109,0,0,,4,,,64,127
109604,note_on,1,0,0,,4,,,64,127
109713,note_off,109,0,0,,4,,,64,127
109714,note_on,1,0,0,,4,,,64,127
109823,note_off,109,0,0,,4,,,64,127
109823,note_off,0,0,0,,10,,,57,127
109823,note_off,0,0,0,,0,,,48,127
109824,note_on,1,0,0,,5,,,65,127
109933,note_off,109,0,0,,5,,,65,127
109934,note_on,1,0,0,,5,,,65,127
110043,note_off,109,0,0,,5,,,65,127
110044,note_on,1,0,0,,5,,,65,127
110153,note_off,109,0,0,,5,,,65,127
110154,note_on,1,0,0,,2,,,50,127
110154,note_on,0,0,0,,5,,,65,127
110263,note_off,109,0,0,,5,,,65,127
110264,note_on,1,0,0,,5,,,65,127
110373,note_off,109,0,0,,5,,,65,127
110374,note_on,1,0,0,,5,,,65,127
110483,note_off,109,0,0,,5,,,65,127
110484,note_on,1,0,0,,10,,,57,127
110484,note_on,0,0,0,,8,,,68,127
110593,note_off,109,0,0,,8,,,68,127
110594,note_on,1,0,0,,8,,,68,127
110703,note_off,109,0,0,,8,,,68,127
110704,note_on,1,0,0,,8,,,68,127
110813,note_off,109,0,0,,8,,,68,127
110813,note_off,0,0,0,,10,,,57,127
110814,note_on,1,0,0,,12,,,59,127
110814,note_on,0,0,0,,12,,,71,127
110923,note_off,109,0,0,,12,,,71,127
110924,note_on,1,0,0,,12,,,71,127
111033,note_off,109,0,0,,12,,,71,127
111034,note_on,1,0,0,,12,,,71,127
111143,note_off,109,0,0,,12,,,71,127
111143,note_off,0,0,0,,12,,,59,127
111143,note_off,0,0,0,,2,,,50,127
111144,note_on,1,0,0,,0,,,72,127
111253,note_off,109,0,0,,0,,,72,127
111254,note_on,1,0,0,,0,,,72,127
111363,note_off,109,0,0,,0,,,72,127
111364,note_on,1,0,0,,0,,,72,127
111473,note_off,109,0,0,,0,,,72,127
111474,note_on,1,0,0,,0,,,48,127
111474,note_on,0,0,0,,0,,,72,127
111583,note_off,109,0,0,,0,,,72,127
111584,note_on,1,0,0,,0,,,72,127
111693,note_off,109,0,0,,0,,,72,127
111694,note_on,1,0,0,,0,,,72,127
111803,note_off,109,0,0,,0,,,72,127
111804,note_on,1,0,0,,4,,,52,127
111804,note_on,0,0,0,,4,,,76,127
111913,note_off,109,0,0,,4,,,76,127
111914,note_on,1,0,0,,4,,,76,127
112023,note_off,109,0,0,,4,,,76,127
112024,note_on,1,0,0,,4,,,76,127
112133,note_off,109,0,0,,4,,,76,127
112133,note_off,0,0,0,,4,,,52,127
112134,note_on,1,0,0,,10,,,57,127
112134,note_on,0,0,0,,4,,,76,127
112243,note_off,109,0,0,,4,,,76,127
112244,note_on,1,0,0,,4,,,76,127
112353,note_off,109,0,0,,4,,,76,127
112354,note_on,1,0,0,,4,,,76,127
112463,note_off,109,0,0,,4,,,76,127
112463,note_off,0,0,0,,10,,,57,127
112463,note_off,0,0,0,,0,,,48,127
112464,note_on,1,0,0,,5,,,77,127
112573,note_off,109,0,0,,5,,,77,127
112574,note_on,1,0,0,,5,,,77,127
112683,note_off,109,0,0,,5,,,77,127
112684,note_on,1,0,0,,5,,,77,127
112793,note_off,109,0,0,,5,,,77,127
112794,note_on,1,0,0,,2,,,50,127
112794,note_on,0,0,0,,5,,,77,127
112903,note_off,109,0,0,,5,,,77,127
112904,note_on,1,0,0,,5,,,77,127
113013,note_off,109,0,0,,5,,,77,127
113014,note_on,1,0,0,,5,,,77,127
113123,note_off,109,0,0,,5,,,77,127
113124,note_on,1,0,0,,10,,,57,127
113124,note_on,0,0,0,,8,,,80,127
113233,note_off,109,0,0,,8,,,80,127
113234,note_on,1,0,0,,8,,,80,127
113343,note_off,109,0,0,,8,,,80,127
113344,note_on,1,0,0,,8,,,80,127
113453,note_off,109,0,0,,8,,,80,127
113453,note_off,0,0,0,,10,,,57,127
113454,note_on,1,0,0,,12,,,59,127
113454,note_on,0,0,0,,8,,,80,127
113563,note_off,109,0,0,,8,,,80,127
113564,note_on,1,0,0,,8,,,80,127
113673,note_off,109,0,0,,8,,,80,127
113674,note_on,1,0,0,,8,,,80,127
113783,note_off,109,0,0,,8,,,80,127
113783,note_off,0,0,0,,12,,,59,127
113783,note_off,0,0,0,,2,,,50,127
113784,note_on,1,0,0,,0,,,48,127
113784,note_on,0,0,0,,10,,,81,127
113893,note_off,109,0,0,,10,,,81,127
113894,note_on,1,0,0,,0,,,84,127
114003,note_off,109,0,0,,0,,,84,127
114004,note_on,1,0,0,,12,,,83,127
114113,note_off,109,0,0,,12,,,83,127
114114,note_on,1,0,0,,0,,,84,127
114223,note_off,109,0,0,,0,,,84,127
114224,note_on,1,0,0,,10,,,81,127
114333,note_off,109,0,0,,10,,,81,127
114334,note_on,1,0,0,,8,,,80,127
114443,note_off,109,0,0,,8,,,80,127
114444,note_on,1,0,0,,10,,,57,127
114444,note_on,0,0,0,,10,,,81,127
114553,note_off,109,0,0,,10,,,81,127
114554,note_on,1,0,0,,4,,,76,127
114663,note_off,109,0,0,,4,,,76,127
114664,note_on,1,0,0,,3,,,75,127
114773,note_off,109,0,0,,3,,,75,127
114774,note_on,1,0,0,,4,,,76,127
114883,note_off,109,0,0,,4,,,76,127
114884,note_on,1,0,0,,5,,,77,127
114901,note_off,17,0,0,,0,,,48,127
114993,note_off,92,0,0,,5,,,77,127
114994,note_on,1,0,0,,4,,,76,127
115103,note_off,109,0,0,,4,,,76,127
115103,note_off,0,0,0,,10,,,57,127
115104,note_on,1,0,0,,2,,,50,127
115104,note_on,0,0,0,,5,,,77,127
115213,note_off,109,0,0,,5,,,77,127
115214,note_on,1,0,0,,2,,,74,127
115323,note_off,109,0,0,,2,,,74,127
115324,note_on,1,0,0,,1,,,73,127
115433,note_off,109,0,0,,1,,,73,127
115434,note_on,1,0,0,,2,,,74,127
115543,note_off,109,0,0,,2,,,74,127
115544,note_on,1,0,0,,4,,,76,127
115653,note_off,109,0,0,,4,,,76,127
115654,note_on,1,0,0,,3,,,75,127
115763,note_off,109,0,0,,3,,,75,127
115764,note_on,1,0,0,,2,,,62,127
115764,note_on,0,0,0,,4,,,76,127
115873,note_off,109,0,0,,4,,,76,127
115874,note_on,1,0,0,,0,,,72,127
115983,note_off,109,0,0,,0,,,72,127
115984,note_on,1,0,0,,12,,,71,127
116093,note_off,109,0,0,,12,,,71,127
116094,note_on,1,0,0,,0,,,72,127
116203,note_off,109,0,0,,0,,,72,127
116204,note_on,1,0,0,,2,,,74,127
116307,note_off,103,0,0,,2,,,50,127
116313,note_off,6,0,0,,2,,,74,127
116314,note_on,1,0,0,,1,,,73,127
116423,note_off,109,0,0,,1,,,73,127
116423,note_off,0,0,0,,2,,,62,127
116424,note_on,1,0,0,,10,,,57,127
116424,note_on,0,0,0,,0,,,60,127
116424,note_on,0,0,0,,4,,,52,127
116424,note_on,0,0,0,,2,,,74,127
116533,note_off,109,0,0,,2,,,74,127
116534,note_on,1,0,0,,12,,,71,127
116643,note_off,109,0,0,,12,,,71,127
116644,note_on,1,0,0,,10,,,69,127
116753,note_off,109,0,0,,10,,,69,127
116754,note_on,1,0,0,,12,,,71,127
116863,note_off,109,0,0,,12,,,71,127
116864,note_on,1,0,0,,0,,,72,127
116973,note_off,109,0,0,,0,,,72,127
116974,note_on,1,0,0,,2,,,74,127
117083,note_off,109,0,0,,2,,,74,127
117083,note_off,0,0,0,,4,,,52,127
117083,note_off,0,0,0,,0,,,60,127
117083,note_off,0,0,0,,10,,,57,127
117084,note_on,1,0,0,,10,,,57,127
117084,note_on,0,0,0,,12,,,59,127
117084,note_on,0,0,0,,4,,,52,127
117084,note_on,0,0,0,,2,,,74,127
117084,note_on,0,0,0,,0,,,72,127
117193,note_off,109,0,0,,0,,,72,127
117193,note_off,0,0,0,,2,,,74,127
117194,note_on,1,0,0,,12,,,71,127
117303,note_off,109,0,0,,12,,,71,127
117304,note_on,1,0,0,,10,,,69,127
117413,note_off,109,0,0,,10,,,69,127
117414,note_on,1,0,0,,12,,,71,127
117414,note_on,0,0,0,,0,,,72,127
117523,note_off,109,0,0,,0,,,72,127
117523,note_off,0,0,0,,12,,,71,127
117524,note_on,1,0,0,,10,,,69,127
117633,note_off,109,0,0,,10,,,69,127
117634,note_on,1,0,0,,8,,,68,127
117685,note_off,51,0,0,,12,,,59,127
117685,note_off,0,0,0,,10,,,57,127
117736,note_off,51,0,0,,4,,,52,127
117742,note_off,6,0,0,,8,,,68,127
117746,note_on,4,0,0,,8,,,68,127
117746,note_on,0,0,0,,10,,,45,127
117855,note_off,109,0,0,,10,,,45,127
117856,note_on,1,0,0,,1,,,49,127
117965,note_off,109,0,0,,1,,,49,127
117966,note_on,1,0,0,,4,,,52,127
118075,note_off,109,0,0,,4,,,52,127
118075,note_off,0,0,0,,8,,,68,127
118076,note_on,1,0,0,,10,,,69,127
118076,note_on,0,0,0,,10,,,57,127
118185,note_off,109,0,0,,10,,,57,127
118186,note_on,1,0,0,,1,,,61,127
118295,note_off,109,0,0,,1,,,61,127
118296,note_on,1,0,0,,10,,,57,127
118405,note_off,109,0,0,,10,,,57,127
118405,note_off,0,0,0,,10,,,69,127
118406,note_on,1,0,0,,4,,,40,127
118515,note_off,109,0,0,,4,,,40,127
118516,note_on,1,0,0,,8,,,44,127
118625,note_off,109,0,0,,8,,,44,127
118626,note_on,1,0,0,,12,,,47,127
118735,note_off,109,0,0,,12,,,47,127
118736,note_on,1,0,0,,1,,,73,127
118736,note_on,0,0,0,,4,,,52,127
118790,note_off,54,0,0,,1,,,73,127
118791,note_on,1,0,0,,12,,,71,127
118845,note_off,54,0,0,,12,,,71,127
118845,note_off,0,0,0,,4,,,52,127
118846,note_on,1,0,0,,1,,,73,127
118846,note_on,0,0,0,,8,,,56,127
118900,note_off,54,0,0,,1,,,73,127
118901,note_on,1,0,0,,12,,,71,127
118955,note_off,54,0,0,,12,,,71,127
118955,note_off,0,0,0,,8,,,56,127
118956,note_on,1,0,0,,10,,,69,127
118956,note_on,0,0,0,,4,,,52,127
119010,note_off,54,0,0,,10,,,69,127
119011,note_on,1,0,0,,12,,,71,127
119052,note_off,41,0,0,,12,,,71,127
119065,note_off,13,0,0,,4,,,52,127
119066,note_on,1,0,0,,12,,,71,127
119066,note_on,0,0,0,,10,,,45,127
119175,note_off,109,0,0,,10,,,45,127
119176,note_on,1,0,0,,1,,,49,127
119285,note_off,109,0,0,,1,,,49,127
119286,note_on,1,0,0,,4,,,52,127
119395,note_off,109,0,0,,4,,,52,127
119395,note_off,0,0,0,,12,,,71,127
119396,note_on,1,0,0,,1,,,73,127
119396,note_on,0,0,0,,10,,,57,127
119505,note_off,109,0,0,,10,,,57,127
119506,note_on,1,0,0,,1,,,61,127
119615,note_off,109,0,0,,1,,,61,127
119616,note_on,1,0,0,,10,,,57,127
119725,note_off,109,0,0,,10,,,57,127
119725,note_off,0,0,0,,1,,,73,127
119726,note_on,1,0,0,,4,,,40,127
119835,note_off,109,0,0,,4,,,40,127
119836,note_on,1,0,0,,8,,,44,127
119945,note_off,109,0,0,,8,,,44,127
119946,note_on,1,0,0,,12,,,47,127
120055,note_off,109,0,0,,12,,,47,127
120056,note_on,1,0,0,,4,,,76,127
120056,note_on,0,0,0,,4,,,52,127
120110,note_off,54,0,0,,4,,,76,127
120111,note_on,1,0,0,,2,,,74,127
120165,note_off,54,0,0,,2,,,74,127
120165,note_off,0,0,0,,4,,,52,127
120166,note_on,1,0,0,,4,,,76,127
120166,note_on,0,0,0,,8,,,56,127
120220,note_off,54,0,0,,4,,,76,127
120221,note_on,1,0,0,,2,,,74,127
120275,note_off,54,0,0,,2,,,74,127
120275,note_off,0,0,0,,8,,,56,127
120276,note_on,1,0,0,,1,,,73,127
120276,note_on,0,0,0,,4,,,52,127
120330,note_off,54,0,0,,1,,,73,127
120331,note_on,1,0,0,,12,,,71,127
120372,note_off,41,0,0,,12,,,71,127
120385,note_off,13,0,0,,4,,,52,127
120386,note_on,1,0,0,,12,,,71,127
120386,note_on,0,0,0,,10,,,45,127
120495,note_off,109,0,0,,10,,,45,127
120496,note_on,1,0,0,,1,,,49,127
120605,note_off,109,0,0,,1,,,49,127
120606,note_on,1,0,0,,4,,,52,127
120715,note_off,109,0,0,,4,,,52,127
120715,note_off,0,0,0,,12,,,71,127
120716,note_on,1,0,0,,1,,,73,127
120716,note_on,0,0,0,,10,,,57,127
120825,note_off,109,0,0,,10,,,57,127
120826,note_on,1,0,0,,1,,,61,127
120935,note_off,109,0,0,,1,,,61,127
120936,note_on,1,0,0,,10,,,57,127
121045,note_off,109,0,0,,10,,,57,127
121045,note_off,0,0,0,,1,,,73,127
121046,note_on,1,0,0,,2,,,38,127
121155,note_off,109,0,0,,2,,,38,127
121156,note_on,1,0,0,,6,,,42,127
121265,note_off,109,0,0,,6,,,42,127
121266,note_on,1,0,0,,10,,,45,127
121375,note_off,109,0,0,,10,,,45,127
121376,note_on,1,0,0,,10,,,81,127
121376,note_on,0,0,0,,2,,,50,127
121430,note_off,54,0,0,,10,,,81,127
121431,note_on,1,0,0,,8,,,80,127
121485,note_off,54,0,0,,8,,,80,127
121485,note_off,0,0,0,,2,,,50,127
121486,note_on,1,0,0,,10,,,81,127
121486,note_on,0,0,0,,6,,,54,127
121540,note_off,54,0,0,,10,,,81,127
121541,note_on,1,0,0,,8,,,80,127
121595,note_off,54,0,0,,8,,,80,127
121595,note_off,0,0,0,,6,,,54,127
121596,note_on,1,0,0,,6,,,78,127
121596,note_on,0,0,0,,2,,,50,127
121650,note_off,54,0,0,,6,,,78,127
121651,note_on,1,0,0,,8,,,80,127
121705,note_off,54,0,0,,8,,,80,127
121705,note_off,0,0,0,,2,,,50,127
121706,note_on,1,0,0,,10,,,81,127
121706,note_on,0,0,0,,1,,,49,127
121815,note_off,109,0,0,,10,,,81,127
121816,note_on,1,0,0,,4,,,76,127
121925,note_off,109,0,0,,4,,,76,127
121926,note_on,1,0,0,,8,,,80,127
122035,note_off,109,0,0,,8,,,80,127
122035,note_off,0,0,0,,1,,,49,127
122036,note_on,1,0,0,,6,,,78,127
122036,note_on,0,0,0,,2,,,50,127
122145,note_off,109,0,0,,6,,,78,127
122146,note_on,1,0,0,,4,,,76,127
122255,note_off,109,0,0,,4,,,76,127
122256,note_on,1,0,0,,2,,,74,127
122365,note_off,109,0,0,,2,,,74,127
122365,note_off,0,0,0,,2,,,50,127
122366,note_on,1,0,0,,1,,,73,127
122366,note_on,0,0,0,,4,,,52,127
122475,note_off,109,0,0,,1,,,73,127
122476,note_on,1,0,0,,4,,,76,127
122585,note_off,109,0,0,,4,,,76,127
122586,note_on,1,0,0,,10,,,69,127
122695,note_off,109,0,0,,10,,,69,127
122696,note_on,1,0,0,,1,,,73,127
122696,note_on,0,0,0,,12,,,71,127
122696,note_on,0,0,0,,4,,,40,127
122805,note_off,109,0,0,,12,,,71,127
122805,note_off,0,0,0,,1,,,73,127
122806,note_on,1,0,0,,10,,,69,127
122915,note_off,109,0,0,,10,,,69,127
122916,note_on,1,0,0,,8,,,68,127
123002,note_off,86,0,0,,4,,,52,127
123024,note_off,22,0,0,,4,,,40,127
123025,note_off,1,0,0,,8,,,68,127
123026,note_on,1,0,0,,8,,,68,127
123026,note_on,0,0,0,,10,,,45,127
123135,note_off,109,0,0,,10,,,45,127
123136,note_on,1,0,0,,1,,,49,127
123245,note_off,109,0,0,,1,,,49,127
123246,note_on,1,0,0,,4,,,52,127
123355,note_off,109,0,0,,4,,,52,127
123355,note_off,0,0,0,,8,,,68,127
123356,note_on,1,0,0,,10,,,69,127
123356,note_on,0,0,0,,10,,,57,127
123465,note_off,109,0,0,,10,,,57,127
123466,note_on,1,0,0,,1,,,61,127
123575,note_off,109,0,0,,1,,,61,127
123576,note_on,1,0,0,,10,,,57,127
123685,note_off,109,0,0,,10,,,57,127
123685,note_off,0,0,0,,10,,,69,127
123686,note_on,1,0,0,,4,,,40,127
123795,note_off,109,0,0,,4,,,40,127
123796,note_on,1,0,0,,8,,,44,127
123905,note_off,109,0,0,,8,,,44,127
123906,note_on,1,0,0,,12,,,47,127
124015,note_off,109,0,0,,12,,,47,127
124016,note_on,1,0,0,,1,,,73,127
124016,note_on,0,0,0,,4,,,52,127
124070,note_off,54,0,0,,1,,,73,127
124071,note_on,1,0,0,,12,,,71,127
124125,note_off,54,0,0,,12,,,71,127
124125,note_off,0,0,0,,4,,,52,127
124126,note_on,1,0,0,,1,,,73,127
124126,note_on,0,0,0,,8,,,56,127
124180,note_off,54,0,0,,1,,,73,127
124181,note_on,1,0,0,,12,,,71,127
124235,note_off,54,0,0,,12,,,71,127
124235,note_off,0,0,0,,8,,,56,127
124236,note_on,1,0,0,,10,,,69,127
124236,note_on,0,0,0,,4,,,52,127
124290,note_off,54,0,0,,10,,,69,127
124291,note_on,1,0,0,,12,,,71,127
124332,note_off,41,0,0,,12,,,71,127
124345,note_off,13,0,0,,4,,,52,127
124346,note_on,1,0,0,,12,,,71,127
124346,note_on,0,0,0,,10,,,45,127
124455,note_off,109,0,0,,10,,,45,127
124456,note_on,1,0,0,,1,,,49,127
124565,note_off,109,0,0,,1,,,49,127
124566,note_on,1,0,0,,4,,,52,127
124675,note_off,109,0,0,,4,,,52,127
124675,note_off,0,0,0,,12,,,71,127
124676,note_on,1,0,0,,1,,,73,127
124676,note_on,0,0,0,,10,,,57,127
124785,note_off,109,0,0,,10,,,57,127
124786,note_on,1,0,0,,1,,,61,127
124895,note_off,109,0,0,,1,,,61,127
124896,note_on,1,0,0,,10,,,57,127
125005,note_off,109,0,0,,10,,,57,127
125005,note_off,0,0,0,,1,,,73,127
125006,note_on,1,0,0,,4,,,40,127
125115,note_off,109,0,0,,4,,,40,127
125116,note_on,1,0,0,,8,,,44,127
125225,note_off,109,0,0,,8,,,44,127
125226,note_on,1,0,0,,12,,,47,127
125335,note_off,109,0,0,,12,,,47,127
125336,note_on,1,0,0,,4,,,76,127
125336,note_on,0,0,0,,4,,,52,127
125390,note_off,54,0,0,,4,,,76,127
125391,note_on,1,0,0,,2,,,74,127
125445,note_off,54,0,0,,2,,,74,127
125445,note_off,0,0,0,,4,,,52,127
125446,note_on,1,0,0,,4,,,76,127
125446,note_on,0,0,0,,8,,,56,127
125500,note_off,54,0,0,,4,,,76,127
125501,note_on,1,0,0,,2,,,74,127
125555,note_off,54,0,0,,2,,,74,127
125555,note_off,0,0,0,,8,,,56,127
125556,note_on,1,0,0,,1,,,73,127
125556,note_on,0,0,0,,4,,,52,127
125610,note_off,54,0,0,,1,,,73,127
125611,note_on,1,0,0,,12,,,71,127
125652,note_off,41,0,0,,12,,,71,127
125665,note_off,13,0,0,,4,,,52,127
125666,note_on,1,0,0,,12,,,71,127
125666,note_on,0,0,0,,10,,,45,127
125775,note_off,109,0,0,,10,,,45,127
125776,note_on,1,0,0,,1,,,49,127
125885,note_off,109,0,0,,1,,,49,127
125886,note_on,1,0,0,,4,,,52,127
125995,note_off,109,0,0,,4,,,52,127
125995,note_off,0,0,0,,12,,,71,127
125996,note_on,1,0,0,,1,,,73,127
125996,note_on,0,0,0,,10,,,57,127
126105,note_off,109,0,0,,10,,,57,127
126106,note_on,1,0,0,,1,,,61,127
126215,note_off,109,0,0,,1,,,61,127
126216,note_on,1,0,0,,10,,,57,127
126325,note_off,109,0,0,,10,,,57,127
126325,note_off,0,0,0,,1,,,73,127
126326,note_on,1,0,0,,2,,,38,127
126435,note_off,109,0,0,,2,,,38,127
126436,note_on,1,0,0,,6,,,42,127
126545,note_off,109,0,0,,6,,,42,127
126546,note_on,1,0,0,,10,,,45,127
126655,note_off,109,0,0,,10,,,45,127
126656,note_on,1,0,0,,10,,,81,127
126656,note_on,0,0,0,,2,,,50,127
126710,note_off,54,0,0,,10,,,81,127
126711,note_on,1,0,0,,8,,,80,127
126765,note_off,54,0,0,,8,,,80,127
126765,note_off,0,0,0,,2,,,50,127
126766,note_on,1,0,0,,10,,,81,127
126766,note_on,0,0,0,,6,,,54,127
126820,note_off,54,0,0,,10,,,81,127
126821,note_on,1,0,0,,8,,,80,127
126875,note_off,54,0,0,,8,,,80,127
126875,note_off,0,0,0,,6,,,54,127
126876,note_on,1,0,0,,6,,,78,127
126876,note_on,0,0,0,,2,,,50,127
126930,note_off,54,0,0,,6,,,78,127
126931,note_on,1,0,0,,8,,,80,127
126985,note_off,54,0,0,,8,,,80,127
126985,note_off,0,0,0,,2,,,50,127
126986,note_on,1,0,0,,10,,,81,127
126986,note_on,0,0,0,,1,,,49,127
127095,note_off,109,0,0,,10,,,81,127
127096,note_on,1,0,0,,4,,,76,127
127205,note_off,109,0,0,,4,,,76,127
127206,note_on,1,0,0,,8,,,80,127
127315,note_off,109,0,0,,8,,,80,127
127315,note_off,0,0,0,,1,,,49,127
127316,note_on,1,0,0,,6,,,78,127
127316,note_on,0,0,0,,2,,,50,127
127425,note_off,109,0,0,,6,,,78,127
127426,note_on,1,0,0,,4,,,76,127
127535,note_off,109,0,0,,4,,,76,127
127536,note_on,1,0,0,,2,,,74,127
127645,note_off,109,0,0,,2,,,74,127
127645,note_off,0,0,0,,2,,,50,127
127646,note_on,1,0,0,,1,,,73,127
127646,note_on,0,0,0,,4,,,52,127
127755,note_off,109,0,0,,1,,,73,127
127756,note_on,1,0,0,,4,,,76,127
127865,note_off,109,0,0,,4,,,76,127
127866,note_on,1,0,0,,10,,,69,127
127975,note_off,109,0,0,,10,,,69,127
127975,note_off,0,0,0,,4,,,52,127
127976,note_on,1,0,0,,12,,,71,127
127976,note_on,0,0,0,,1,,,73,127
127976,note_on,0,0,0,,4,,,40,127
128085,note_off,109,0,0,,1,,,73,127
128085,note_off,0,0,0,,12,,,71,127
128086,note_on,1,0,0,,10,,,69,127
128195,note_off,109,0,0,,10,,,69,127
128196,note_on,1,0,0,,8,,,68,127
128305,note_off,109,0,0,,8,,,68,127
128305,note_off,0,0,0,,4,,,40,127
128306,note_on,1,0,0,,10,,,69,127
128306,note_on,0,0,0,,10,,,45,127
128306,note_on,0,0,0,,10,,,57,127
128416,note_on,110,0,0,,10,,,81,127
128525,note_off,109,0,0,,10,,,81,127
128526,note_on,1,0,0,,4,,,76,127
128632,note_off,106,0,0,,10,,,69,127
128635,note_off,3,0,0,,4,,,76,127
128636,note_on,1,0,0,,1,,,73,127
128745,note_off,109,0,0,,1,,,73,127
128746,note_on,1,0,0,,4,,,76,127
128855,note_off,109,0,0,,4,,,76,127
128856,note_on,1,0,0,,1,,,73,127
128965,note_off,109,0,0,,1,,,73,127
128966,note_on,1,0,0,,10,,,69,127
129076,note_on,110,0,0,,4,,,64,127
129181,note_off,105,0,0,,10,,,69,127
129185,note_off,4,0,0,,4,,,64,127
129186,note_on,1,0,0,,10,,,69,127
129285,note_off,99,0,0,,10,,,57,127
129285,note_off,0,0,0,,10,,,45,127
129294,note_off,9,0,0,,10,,,69,127
129295,note_on,1,0,0,,1,,,73,127
129295,note_on,0,0,0,,4,,,40,127
129295,note_on,0,0,0,,4,,,52,127
129349,note_off,54,0,0,,1,,,73,127
129350,note_on,1,0,0,,12,,,71,127
129404,note_off,54,0,0,,12,,,71,127
129405,note_on,1,0,0,,1,,,73,127
129459,note_off,54,0,0,,1,,,73,127
129460,note_on,1,0,0,,12,,,71,127
129514,note_off,54,0,0,,12,,,71,127
129515,note_on,1,0,0,,10,,,69,127
129569,note_off,54,0,0,,10,,,69,127
129570,note_on,1,0,0,,12,,,71,127
129613,note_off,43,0,0,,4,,,52,127
129613,note_off,0,0,0,,4,,,40,127
129624,note_off,11,0,0,,12,,,71,127
129625,note_on,1,0,0,,10,,,69,127
129625,note_on,0,0,0,,10,,,45,127
129625,note_on,0,0,0,,10,,,57,127
129735,note_on,110,0,0,,10,,,81,127
129844,note_off,109,0,0,,10,,,81,127
129845,note_on,1,0,0,,4,,,76,127
129951,note_off,106,0,0,,10,,,69,127
129954,note_off,3,0,0,,4,,,76,127
129955,note_on,1,0,0,,1,,,73,127
130064,note_off,109,0,0,,1,,,73,127
130065,note_on,1,0,0,,4,,,76,127
130174,note_off,109,0,0,,4,,,76,127
130175,note_on,1,0,0,,1,,,73,127
130284,note_off,109,0,0,,1,,,73,127
130285,note_on,1,0,0,,10,,,69,127
130395,note_on,110,0,0,,4,,,64,127
130500,note_off,105,0,0,,10,,,69,127
130504,note_off,4,0,0,,4,,,64,127
130505,note_on,1,0,0,,10,,,69,127
130604,note_off,99,0,0,,10,,,57,127
130604,note_off,0,0,0,,10,,,45,127
130613,note_off,9,0,0,,10,,,69,127
130614,note_on,1,0,0,,1,,,73,127
130614,note_on,0,0,0,,4,,,52,127
130614,note_on,0,0,0,,4,,,40,127
130668,note_off,54,0,0,,1,,,73,127
130669,note_on,1,0,0,,12,,,71,127
130723,note_off,54,0,0,,12,,,71,127
130724,note_on,1,0,0,,1,,,73,127
130778,note_off,54,0,0,,1,,,73,127
130779,note_on,1,0,0,,12,,,71,127
130833,note_off,54,0,0,,12,,,71,127
130834,note_on,1,0,0,,10,,,69,127
130888,note_off,54,0,0,,10,,,69,127
130889,note_on,1,0,0,,12,,,71,127
130932,note_off,43,0,0,,4,,,40,127
130932,note_off,0,0,0,,4,,,52,127
130943,note_off,11,0,0,,12,,,71,127
130944,note_on,1,0,0,,10,,,69,127
130944,note_on,0,0,0,,10,,,45,127
130944,note_on,0,0,0,,10,,,57,127
131054,note_on,110,0,0,,10,,,81,127
131159,note_off,105,0,0,,10,,,69,127
131163,note_off,4,0,0,,10,,,81,127
131164,note_on,1,0,0,,4,,,76,127
131266,note_off,102,0,0,,10,,,57,127
131266,note_off,0,0,0,,10,,,45,127
131273,note_off,7,0,0,,4,,,76,127
131274,note_on,1,0,0,,1,,,85,127
131274,note_on,0,0,0,,4,,,40,127
131274,note_on,0,0,0,,4,,,52,127
131328,note_off,54,0,0,,1,,,85,127
131329,note_on,1,0,0,,12,,,83,127
131383,note_off,54,0,0,,12,,,83,127
131384,note_on,1,0,0,,1,,,85,127
131438,note_off,54,0,0,,1,,,85,127
131439,note_on,1,0,0,,12,,,83,127
131493,note_off,54,0,0,,12,,,83,127
131494,note_on,1,0,0,,10,,,81,127
131548,note_off,54,0,0,,10,,,81,127
131549,note_on,1,0,0,,12,,,83,127
131596,note_off,47,0,0,,4,,,52,127
131596,note_off,0,0,0,,4,,,40,127
131603,note_off,7,0,0,,12,,,83,127
131604,note_on,1,0,0,,10,,,81,127
131604,note_on,0,0,0,,10,,,45,127
131604,note_on,0,0,0,,10,,,57,127
131713,note_off,109,0,0,,10,,,81,127
131714,note_on,1,0,0,,4,,,76,127
131823,note_off,109,0,0,,4,,,76,127
131824,note_on,1,0,0,,10,,,81,127
131926,note_off,102,0,0,,10,,,57,127
131926,note_off,0,0,0,,10,,,45,127
131933,note_off,7,0,0,,10,,,81,127
131934,note_on,1,0,0,,1,,,85,127
131934,note_on,0,0,0,,4,,,40,127
131934,note_on,0,0,0,,4,,,52,127
131988,note_off,54,0,0,,1,,,85,127
131989,note_on,1,0,0,,12,,,83,127
132043,note_off,54,0,0,,12,,,83,127
132044,note_on,1,0,0,,1,,,85,127
132098,note_off,54,0,0,,1,,,85,127
132099,note_on,1,0,0,,12,,,83,127
132153,note_off,54,0,0,,12,,,83,127
132154,note_on,1,0,0,,10,,,81,127
132208,note_off,54,0,0,,10,,,81,127
132209,note_on,1,0,0,,12,,,83,127
132256,note_off,47,0,0,,4,,,52,127
132256,note_off,0,0,0,,4,,,40,127
132263,note_off,7,0,0,,12,,,83,127
132264,note_on,1,0,0,,10,,,81,127
132264,note_on,0,0,0,,10,,,45,127
132264,note_on,0,0,0,,10,,,57,127
132373,note_off,109,0,0,,10,,,81,127
132374,note_on,1,0,0,,4,,,76,127
132483,note_off,109,0,0,,4,,,76,127
132484,note_on,1,0,0,,1,,,73,127
132593,note_off,109,0,0,,1,,,73,127
132593,note_off,0,0,0,,10,,,57,127
132593,note_off,0,0,0,,10,,,45,127
132594,note_on,1,0,0,,10,,,69,127
132594,note_on,0,0,0,,10,,,45,127
132594,note_on,0,0,0,,10,,,57,127
132703,note_off,109,0,0,,10,,,69,127
132704,note_on,1,0,0,,10,,,69,127
132813,note_off,109,0,0,,10,,,69,127
132814,note_on,1,0,0,,10,,,69,127
132923,note_off,109,0,0,,10,,,69,127
132923,note_off,0,0,0,,10,,,57,127
132923,note_off,0,0,0,,10,,,45,127
132924,note_on,1,0,0,,10,,,69,127
132924,note_on,0,0,0,,10,,,57,127
132924,note_on,0,0,0,,10,,,45,127
133033,note_off,109,0,0,,10,,,69,127
133034,note_on,1,0,0,,10,,,69,127
133143,note_off,109,0,0,,10,,,69,127
133144,note_on,1,0,0,,10,,,69,127
133253,note_off,109,0,0,,10,,,69,127
133253,note_off,0,0,0,,10,,,45,127
133253,note_off,0,0,0,,10,,,57,127
133254,note_on,1,0,0,,10,,,69,127
133254,note_on,0,0,0,,10,,,45,127
133254,note_on,0,0,0,,10,,,57,127
133363,note_off,109,0,0,,10,,,69,127
133364,note_on,1,0,0,,10,,,69,127
133474,note_on,110,0,0,,4,,,76,127
133579,note_off,105,0,0,,10,,,69,127
133583,note_off,4,0,0,,4,,,76,127
133583,note_off,0,0,0,,10,,,57,127
133583,note_off,0,0,0,,10,,,45,127
133589,note_on,6,0,0,,12,,,71,127
133592,note_on,3,0,0,,10,,,45,127
133592,note_on,0,0,0,,10,,,57,127
133629,note_off,37,0,0,,12,,,71,127
133630,note_on,1,0,0,,10,,,69,127
133670,note_off,40,0,0,,10,,,69,127
133671,note_on,1,0,0,,12,,,71,127
133711,note_off,40,0,0,,12,,,71,127
133713,note_on,2,0,0,,10,,,69,127
135257,note_off,1544,0,0,,10,,,69,127
135257,note_off,0,0,0,,10,,,57,127
135257,note_off,0,0,0,,10,,,45,127
136704,end_of_track,1447,1,0,,,,,,
