tick,type,time,meta,track,program,channel,pitch,tempo,note,velocity
0,copyright,0,1,0,,,,,,
0,program_change,0,0,0,6,0,,,,
0,pitchwheel,0,0,0,,0,0,,,
0,program_change,0,0,0,6,1,,,,
0,pitchwheel,0,0,0,,1,-590,,,
0,program_change,0,0,0,6,2,,,,
0,pitchwheel,0,0,0,,2,-272,,,
0,program_change,0,0,0,6,3,,,,
0,pitchwheel,0,0,0,,3,-353,,,
0,program_change,0,0,0,6,4,,,,
0,pitchwheel,0,0,0,,4,-560,,,
0,program_change,0,0,0,6,5,,,,
0,pitchwheel,0,0,0,,5,-80,,,
0,program_change,0,0,0,6,6,,,,
0,pitchwheel,0,0,0,,6,-625,,,
0,program_change,0,0,0,6,7,,,,
0,pitchwheel,0,0,0,,7,-130,,,
0,program_change,0,0,0,6,8,,,,
0,pitchwheel,0,0,0,,8,-512,,,
0,program_change,0,0,0,6,10,,,,
0,pitchwheel,0,0,0,,10,-464,,,
0,program_change,0,0,0,6,11,,,,
0,pitchwheel,0,0,0,,11,-208,,,
0,program_change,0,0,0,6,12,,,,
0,pitchwheel,0,0,0,,12,-553,,,
0,set_tempo,0,1,0,,,,500000,,
110,note_on,110,0,0,,10,,,69,127
219,note_off,109,0,0,,10,,,69,127
220,note_on,1,0,0,,12,,,71,127
329,note_off,109,0,0,,12,,,71,127
330,note_on,1,0,0,,1,,,73,127
439,note_off,109,0,0,,1,,,73,127
440,note_on,1,0,0,,2,,,74,127
549,note_off,109,0,0,,2,,,74,127
550,note_on,1,0,0,,4,,,76,127
659,note_off,109,0,0,,4,,,76,127
660,note_on,1,0,0,,6,,,78,127
769,note_off,109,0,0,,6,,,78,127
770,note_on,1,0,0,,4,,,76,127
770,note_on,0,0,0,,10,,,57,127
879,note_off,109,0,0,,10,,,57,127
880,note_on,1,0,0,,12,,,59,127
989,note_off,109,0,0,,12,,,59,127
990,note_on,1,0,0,,1,,,61,127
1099,note_off,109,0,0,,1,,,61,127
1100,note_on,1,0,0,,2,,,62,127
1209,note_off,109,0,0,,2,,,62,127
1210,note_on,1,0,0,,4,,,64,127
1319,note_off,109,0,0,,4,,,64,127
1320,note_on,1,0,0,,6,,,66,127
1429,note_off,109,0,0,,6,,,66,127
1430,note_on,1,0,0,,4,,,64,127
1526,note_off,96,0,0,,4,,,76,127
1540,note_on,14,0,0,,6,,,78,127
1649,note_off,109,0,0,,6,,,78,127
1649,note_off,0,0,0,,4,,,64,127
1650,note_on,1,0,0,,4,,,76,127
1650,note_on,0,0,0,,6,,,66,127
1759,note_off,109,0,0,,4,,,76,127
1760,note_on,1,0,0,,2,,,74,127
1869,note_off,109,0,0,,2,,,74,127
1869,note_off,0,0,0,,6,,,66,127
1870,note_on,1,0,0,,1,,,73,127
1870,note_on,0,0,0,,8,,,68,127
1979,note_off,109,0,0,,1,,,73,127
1980,note_on,1,0,0,,12,,,71,127
2089,note_off,109,0,0,,12,,,71,127
2089,note_off,0,0,0,,8,,,68,127
2090,note_on,1,0,0,,1,,,73,127
2090,note_on,0,0,0,,10,,,69,127
2199,note_off,109,0,0,,10,,,69,127
2200,note_on,1,0,0,,8,,,68,127
2309,note_off,109,0,0,,8,,,68,127
2309,note_off,0,0,0,,1,,,73,127
2310,note_on,1,0,0,,2,,,74,127
2310,note_on,0,0,0,,6,,,66,127
2419,note_off,109,0,0,,6,,,66,127
2420,note_on,1,0,0,,4,,,64,127
2529,note_off,109,0,0,,4,,,64,127
2529,note_off,0,0,0,,2,,,74,127
2530,note_on,1,0,0,,4,,,76,127
2530,note_on,0,0,0,,2,,,62,127
2639,note_off,109,0,0,,2,,,62,127
2640,note_on,1,0,0,,1,,,61,127
2749,note_off,109,0,0,,1,,,61,127
2749,note_off,0,0,0,,4,,,76,127
2750,note_on,1,0,0,,6,,,78,127
2750,note_on,0,0,0,,2,,,62,127
2859,note_off,109,0,0,,2,,,62,127
2860,note_on,1,0,0,,1,,,61,127
2969,note_off,109,0,0,,1,,,61,127
2969,note_off,0,0,0,,6,,,78,127
2970,note_on,1,0,0,,8,,,80,127
2970,note_on,0,0,0,,12,,,59,127
3079,note_off,109,0,0,,12,,,59,127
3080,note_on,1,0,0,,10,,,57,127
3189,note_off,109,0,0,,10,,,57,127
3189,note_off,0,0,0,,8,,,80,127
3190,note_on,1,0,0,,10,,,81,127
3190,note_on,0,0,0,,8,,,56,127
3299,note_off,109,0,0,,8,,,56,127
3300,note_on,1,0,0,,6,,,54,127
3409,note_off,109,0,0,,6,,,54,127
3409,note_off,0,0,0,,10,,,81,127
3410,note_on,1,0,0,,8,,,80,127
3410,note_on,0,0,0,,4,,,52,127
3519,note_off,109,0,0,,8,,,80,127
3520,note_on,1,0,0,,6,,,78,127
3629,note_off,109,0,0,,6,,,78,127
3629,note_off,0,0,0,,4,,,52,127
3630,note_on,1,0,0,,4,,,76,127
3630,note_on,0,0,0,,6,,,54,127
3739,note_off,109,0,0,,4,,,76,127
3740,note_on,1,0,0,,2,,,74,127
3849,note_off,109,0,0,,2,,,74,127
3849,note_off,0,0,0,,6,,,54,127
3850,note_on,1,0,0,,1,,,73,127
3850,note_on,0,0,0,,8,,,56,127
3959,note_off,109,0,0,,1,,,73,127
3960,note_on,1,0,0,,12,,,71,127
4040,note_off,80,0,0,,12,,,71,127
4056,note_off,16,0,0,,8,,,56,127
4070,note_on,14,0,0,,1,,,73,127
4070,note_on,0,0,0,,10,,,57,127
4180,note_on,110,0,0,,10,,,81,127
4253,note_off,73,0,0,,1,,,73,127
4288,note_off,35,0,0,,10,,,57,127
4289,note_on,1,0,0,,12,,,71,127
4289,note_on,0,0,0,,4,,,64,127
4362,note_off,73,0,0,,10,,,81,127
4399,note_on,37,0,0,,8,,,80,127
4472,note_off,73,0,0,,12,,,71,127
4507,note_off,35,0,0,,4,,,64,127
4508,note_on,1,0,0,,10,,,69,127
4508,note_on,0,0,0,,6,,,66,127
4581,note_off,73,0,0,,8,,,80,127
4618,note_on,37,0,0,,6,,,78,127
4691,note_off,73,0,0,,10,,,69,127
4726,note_off,35,0,0,,6,,,66,127
4727,note_on,1,0,0,,8,,,68,127
4727,note_on,0,0,0,,1,,,61,127
4800,note_off,73,0,0,,6,,,78,127
4837,note_on,37,0,0,,4,,,76,127
4910,note_off,73,0,0,,8,,,68,127
4945,note_off,35,0,0,,1,,,61,127
4946,note_on,1,0,0,,6,,,66,127
4946,note_on,0,0,0,,2,,,62,127
5019,note_off,73,0,0,,4,,,76,127
5056,note_on,37,0,0,,2,,,74,127
5129,note_off,73,0,0,,6,,,66,127
5164,note_off,35,0,0,,2,,,62,127
5165,note_on,1,0,0,,4,,,64,127
5165,note_on,0,0,0,,10,,,57,127
5238,note_off,73,0,0,,2,,,74,127
5275,note_on,37,0,0,,1,,,73,127
5348,note_off,73,0,0,,4,,,64,127
5383,note_off,35,0,0,,10,,,57,127
5384,note_on,1,0,0,,2,,,74,127
5384,note_on,0,0,0,,6,,,54,127
5457,note_off,73,0,0,,1,,,73,127
5494,note_on,37,0,0,,2,,,62,127
5531,note_off,37,0,0,,6,,,54,127
5603,note_off,72,0,0,,2,,,74,127
5604,note_on,1,0,0,,4,,,76,127
5604,note_on,0,0,0,,4,,,52,127
5641,note_off,37,0,0,,2,,,62,127
5714,note_on,73,0,0,,1,,,61,127
5751,note_off,37,0,0,,4,,,52,127
5823,note_off,72,0,0,,4,,,76,127
5824,note_on,1,0,0,,6,,,78,127
5824,note_on,0,0,0,,2,,,50,127
5861,note_off,37,0,0,,1,,,61,127
5934,note_on,73,0,0,,12,,,59,127
5961,note_off,27,0,0,,2,,,50,127
6042,note_off,81,0,0,,6,,,78,127
6043,note_on,1,0,0,,4,,,76,127
6043,note_on,0,0,0,,1,,,49,127
6070,note_off,27,0,0,,12,,,59,127
6152,note_on,82,0,0,,10,,,57,127
6179,note_off,27,0,0,,1,,,49,127
6260,note_off,81,0,0,,4,,,76,127
6261,note_on,1,0,0,,2,,,74,127
6261,note_on,0,0,0,,12,,,47,127
6288,note_off,27,0,0,,10,,,57,127
6370,note_on,82,0,0,,8,,,56,127
6397,note_off,27,0,0,,12,,,47,127
6478,note_off,81,0,0,,2,,,74,127
6479,note_on,1,0,0,,1,,,73,127
6479,note_on,0,0,0,,10,,,45,127
6506,note_off,27,0,0,,8,,,56,127
6588,note_on,82,0,0,,10,,,57,127
6615,note_off,27,0,0,,10,,,45,127
6696,note_off,81,0,0,,1,,,73,127
6697,note_on,1,0,0,,12,,,71,127
6697,note_on,0,0,0,,4,,,52,127
6704,note_off,7,0,0,,10,,,57,127
6806,note_off,102,0,0,,12,,,71,127
6807,note_on,1,0,0,,10,,,69,127
6916,note_off,109,0,0,,10,,,69,127
6916,note_off,0,0,0,,4,,,52,127
6917,note_on,1,0,0,,8,,,68,127
6917,note_on,0,0,0,,6,,,54,127
7026,note_off,109,0,0,,8,,,68,127
7027,note_on,1,0,0,,6,,,66,127
7136,note_off,109,0,0,,6,,,66,127
7136,note_off,0,0,0,,6,,,54,127
7137,note_on,1,0,0,,4,,,64,127
7137,note_on,0,0,0,,8,,,56,127
7246,note_off,109,0,0,,4,,,64,127
7247,note_on,1,0,0,,2,,,62,127
7332,note_off,85,0,0,,8,,,56,127
7350,note_off,18,0,0,,2,,,62,127
7357,note_on,7,0,0,,1,,,61,127
7357,note_on,0,0,0,,10,,,57,127
7467,note_on,110,0,0,,10,,,69,127
7540,note_off,73,0,0,,1,,,61,127
7575,note_off,35,0,0,,10,,,57,127
7576,note_on,1,0,0,,12,,,59,127
7576,note_on,0,0,0,,4,,,52,127
7649,note_off,73,0,0,,10,,,69,127
7686,note_on,37,0,0,,8,,,68,127
7759,note_off,73,0,0,,12,,,59,127
7794,note_off,35,0,0,,4,,,52,127
7795,note_on,1,0,0,,1,,,61,127
7795,note_on,0,0,0,,1,,,49,127
7868,note_off,73,0,0,,8,,,68,127
7905,note_on,37,0,0,,10,,,69,127
7978,note_off,73,0,0,,1,,,61,127
8013,note_off,35,0,0,,1,,,49,127
8014,note_on,1,0,0,,2,,,62,127
8014,note_on,0,0,0,,12,,,47,127
8087,note_off,73,0,0,,10,,,69,127
8124,note_on,37,0,0,,12,,,71,127
8197,note_off,73,0,0,,2,,,62,127
8232,note_off,35,0,0,,12,,,47,127
8233,note_on,1,0,0,,4,,,64,127
8233,note_on,0,0,0,,10,,,45,127
8306,note_off,73,0,0,,12,,,71,127
8343,note_on,37,0,0,,1,,,73,127
8416,note_off,73,0,0,,4,,,64,127
8451,note_off,35,0,0,,10,,,45,127
8452,note_on,1,0,0,,8,,,68,127
8452,note_on,0,0,0,,4,,,52,127
8525,note_off,73,0,0,,1,,,73,127
8562,note_on,37,0,0,,2,,,74,127
8635,note_off,73,0,0,,8,,,68,127
8670,note_off,35,0,0,,4,,,52,127
8671,note_on,1,0,0,,1,,,73,127
8671,note_on,0,0,0,,10,,,57,127
8744,note_off,73,0,0,,2,,,74,127
8779,note_off,35,0,0,,1,,,73,127
8780,note_on,1,0,0,,12,,,71,127
8889,note_off,109,0,0,,12,,,71,127
8890,note_on,1,0,0,,10,,,69,127
8999,note_off,109,0,0,,10,,,69,127
9000,note_on,1,0,0,,8,,,68,127
9109,note_off,109,0,0,,8,,,68,127
9109,note_off,0,0,0,,10,,,57,127
9110,note_on,1,0,0,,6,,,66,127
9110,note_on,0,0,0,,11,,,58,127
9219,note_off,109,0,0,,6,,,66,127
9220,note_on,1,0,0,,4,,,64,127
9305,note_off,85,0,0,,11,,,58,127
9323,note_off,18,0,0,,4,,,64,127
9330,note_on,7,0,0,,3,,,63,127
9330,note_on,0,0,0,,12,,,59,127
9440,note_on,110,0,0,,12,,,71,127
9513,note_off,73,0,0,,3,,,63,127
9548,note_off,35,0,0,,12,,,59,127
9549,note_on,1,0,0,,1,,,61,127
9549,note_on,0,0,0,,6,,,54,127
9622,note_off,73,0,0,,12,,,71,127
9659,note_on,37,0,0,,11,,,70,127
9732,note_off,73,0,0,,1,,,61,127
9767,note_off,35,0,0,,6,,,54,127
9768,note_on,1,0,0,,3,,,63,127
9768,note_on,0,0,0,,3,,,51,127
9841,note_off,73,0,0,,11,,,70,127
9878,note_on,37,0,0,,12,,,71,127
9951,note_off,73,0,0,,3,,,63,127
9986,note_off,35,0,0,,3,,,51,127
9987,note_on,1,0,0,,4,,,64,127
9987,note_on,0,0,0,,1,,,49,127
10060,note_off,73,0,0,,12,,,71,127
10097,note_on,37,0,0,,1,,,73,127
10170,note_off,73,0,0,,4,,,64,127
10205,note_off,35,0,0,,1,,,49,127
10206,note_on,1,0,0,,6,,,66,127
10206,note_on,0,0,0,,12,,,47,127
10279,note_off,73,0,0,,1,,,73,127
10316,note_on,37,0,0,,3,,,75,127
10389,note_off,73,0,0,,6,,,66,127
10424,note_off,35,0,0,,12,,,47,127
10425,note_on,1,0,0,,11,,,70,127
10425,note_on,0,0,0,,6,,,54,127
10498,note_off,73,0,0,,3,,,75,127
10535,note_on,37,0,0,,4,,,76,127
10608,note_off,73,0,0,,11,,,70,127
10643,note_off,35,0,0,,6,,,54,127
10644,note_on,1,0,0,,3,,,75,127
10644,note_on,0,0,0,,12,,,59,127
10717,note_off,73,0,0,,4,,,76,127
10752,note_off,35,0,0,,3,,,75,127
10753,note_on,1,0,0,,1,,,73,127
10862,note_off,109,0,0,,1,,,73,127
10862,note_off,0,0,0,,12,,,59,127
10863,note_on,1,0,0,,12,,,71,127
10863,note_on,0,0,0,,1,,,61,127
10972,note_off,109,0,0,,12,,,71,127
10973,note_on,1,0,0,,10,,,69,127
11082,note_off,109,0,0,,10,,,69,127
11082,note_off,0,0,0,,1,,,61,127
11083,note_on,1,0,0,,8,,,68,127
11083,note_on,0,0,0,,3,,,63,127
11192,note_off,109,0,0,,8,,,68,127
11193,note_on,1,0,0,,6,,,66,127
11278,note_off,85,0,0,,3,,,63,127
11296,note_off,18,0,0,,6,,,66,127
11303,note_on,7,0,0,,8,,,68,127
11303,note_on,0,0,0,,4,,,64,127
11413,note_on,110,0,0,,4,,,76,127
11486,note_off,73,0,0,,8,,,68,127
11521,note_off,35,0,0,,4,,,64,127
11522,note_on,1,0,0,,6,,,66,127
11522,note_on,0,0,0,,12,,,59,127
11595,note_off,73,0,0,,4,,,76,127
11632,note_on,37,0,0,,3,,,75,127
11705,note_off,73,0,0,,6,,,66,127
11740,note_off,35,0,0,,12,,,59,127
11741,note_on,1,0,0,,8,,,68,127
11741,note_on,0,0,0,,8,,,56,127
11814,note_off,73,0,0,,3,,,75,127
11851,note_on,37,0,0,,4,,,76,127
11924,note_off,73,0,0,,8,,,68,127
11959,note_off,35,0,0,,8,,,56,127
11960,note_on,1,0,0,,10,,,69,127
11960,note_on,0,0,0,,6,,,54,127
12033,note_off,73,0,0,,4,,,76,127
12070,note_on,37,0,0,,6,,,78,127
12143,note_off,73,0,0,,10,,,69,127
12178,note_off,35,0,0,,6,,,54,127
12179,note_on,1,0,0,,12,,,71,127
12179,note_on,0,0,0,,4,,,52,127
12252,note_off,73,0,0,,6,,,78,127
12289,note_on,37,0,0,,8,,,80,127
12362,note_off,73,0,0,,12,,,71,127
12397,note_off,35,0,0,,4,,,52,127
12398,note_on,1,0,0,,3,,,75,127
12398,note_on,0,0,0,,12,,,47,127
12471,note_off,73,0,0,,8,,,80,127
12508,note_on,37,0,0,,10,,,81,127
12581,note_off,73,0,0,,3,,,75,127
12616,note_off,35,0,0,,12,,,47,127
12617,note_on,1,0,0,,8,,,80,127
12617,note_on,0,0,0,,4,,,64,127
12690,note_off,73,0,0,,10,,,81,127
12725,note_off,35,0,0,,8,,,80,127
12726,note_on,1,0,0,,6,,,78,127
12835,note_off,109,0,0,,6,,,78,127
12835,note_off,0,0,0,,4,,,64,127
12836,note_on,1,0,0,,4,,,76,127
12836,note_on,0,0,0,,6,,,66,127
12945,note_off,109,0,0,,4,,,76,127
12946,note_on,1,0,0,,3,,,75,127
13055,note_off,109,0,0,,3,,,75,127
13055,note_off,0,0,0,,6,,,66,127
13056,note_on,1,0,0,,1,,,73,127
13056,note_on,0,0,0,,8,,,68,127
13165,note_off,109,0,0,,1,,,73,127
13166,note_on,1,0,0,,12,,,71,127
13252,note_off,86,0,0,,12,,,71,127
13275,note_off,23,0,0,,8,,,68,127
13276,note_on,1,0,0,,1,,,73,127
13276,note_on,0,0,0,,10,,,69,127
13385,note_off,109,0,0,,10,,,69,127
13386,note_on,1,0,0,,8,,,68,127
13495,note_off,109,0,0,,8,,,68,127
13495,note_off,0,0,0,,1,,,73,127
13496,note_on,1,0,0,,3,,,75,127
13496,note_on,0,0,0,,6,,,66,127
13605,note_off,109,0,0,,6,,,66,127
13606,note_on,1,0,0,,4,,,64,127
13715,note_off,109,0,0,,4,,,64,127
13715,note_off,0,0,0,,3,,,75,127
13716,note_on,1,0,0,,4,,,76,127
13716,note_on,0,0,0,,3,,,63,127
13825,note_off,109,0,0,,3,,,63,127
13826,note_on,1,0,0,,1,,,61,127
13923,note_off,97,0,0,,1,,,61,127
13934,note_off,11,0,0,,4,,,76,127
13935,note_on,1,0,0,,6,,,78,127
13935,note_on,0,0,0,,3,,,63,127
14044,note_off,109,0,0,,6,,,78,127
14045,note_on,1,0,0,,4,,,76,127
14154,note_off,109,0,0,,4,,,76,127
14154,note_off,0,0,0,,3,,,63,127
14155,note_on,1,0,0,,3,,,75,127
14155,note_on,0,0,0,,4,,,64,127
14264,note_off,109,0,0,,3,,,75,127
14265,note_on,1,0,0,,1,,,73,127
14374,note_off,109,0,0,,1,,,73,127
14374,note_off,0,0,0,,4,,,64,127
14375,note_on,1,0,0,,12,,,71,127
14375,note_on,0,0,0,,6,,,66,127
14484,note_off,109,0,0,,12,,,71,127
14485,note_on,1,0,0,,10,,,69,127
14571,note_off,86,0,0,,10,,,69,127
14594,note_off,23,0,0,,6,,,66,127
14595,note_on,1,0,0,,12,,,71,127
14595,note_on,0,0,0,,8,,,68,127
14704,note_off,109,0,0,,8,,,68,127
14705,note_on,1,0,0,,6,,,66,127
14814,note_off,109,0,0,,6,,,66,127
14814,note_off,0,0,0,,12,,,71,127
14815,note_on,1,0,0,,1,,,73,127
14815,note_on,0,0,0,,4,,,64,127
14924,note_off,109,0,0,,4,,,64,127
14925,note_on,1,0,0,,3,,,63,127
15034,note_off,109,0,0,,3,,,63,127
15034,note_off,0,0,0,,1,,,73,127
15035,note_on,1,0,0,,3,,,75,127
15035,note_on,0,0,0,,1,,,61,127
15144,note_off,109,0,0,,1,,,61,127
15145,note_on,1,0,0,,12,,,59,127
15242,note_off,97,0,0,,12,,,59,127
15253,note_off,11,0,0,,3,,,75,127
15254,note_on,1,0,0,,4,,,76,127
15254,note_on,0,0,0,,1,,,61,127
15363,note_off,109,0,0,,4,,,76,127
15364,note_on,1,0,0,,3,,,75,127
15473,note_off,109,0,0,,3,,,75,127
15473,note_off,0,0,0,,1,,,61,127
15474,note_on,1,0,0,,1,,,73,127
15474,note_on,0,0,0,,3,,,63,127
15583,note_off,109,0,0,,1,,,73,127
15584,note_on,1,0,0,,12,,,71,127
15693,note_off,109,0,0,,12,,,71,127
15693,note_off,0,0,0,,3,,,63,127
15694,note_on,1,0,0,,10,,,69,127
15694,note_on,0,0,0,,4,,,64,127
15803,note_off,109,0,0,,10,,,69,127
15804,note_on,1,0,0,,8,,,68,127
15890,note_off,86,0,0,,8,,,68,127
15913,note_off,23,0,0,,4,,,64,127
15914,note_on,1,0,0,,10,,,69,127
15914,note_on,0,0,0,,6,,,66,127
16023,note_off,109,0,0,,6,,,66,127
16024,note_on,1,0,0,,4,,,64,127
16133,note_off,109,0,0,,4,,,64,127
16133,note_off,0,0,0,,10,,,69,127
16134,note_on,1,0,0,,12,,,71,127
16134,note_on,0,0,0,,3,,,63,127
16243,note_off,109,0,0,,3,,,63,127
16244,note_on,1,0,0,,1,,,61,127
16353,note_off,109,0,0,,1,,,61,127
16353,note_off,0,0,0,,12,,,71,127
16354,note_on,1,0,0,,1,,,73,127
16354,note_on,0,0,0,,12,,,59,127
16463,note_off,109,0,0,,12,,,59,127
16464,note_on,1,0,0,,10,,,57,127
16561,note_off,97,0,0,,10,,,57,127
16572,note_off,11,0,0,,1,,,73,127
16573,note_on,1,0,0,,3,,,75,127
16573,note_on,0,0,0,,12,,,59,127
16682,note_off,109,0,0,,3,,,75,127
16683,note_on,1,0,0,,1,,,73,127
16792,note_off,109,0,0,,1,,,73,127
16792,note_off,0,0,0,,12,,,59,127
16793,note_on,1,0,0,,12,,,71,127
16793,note_on,0,0,0,,1,,,61,127
16902,note_off,109,0,0,,12,,,71,127
16903,note_on,1,0,0,,10,,,69,127
17012,note_off,109,0,0,,10,,,69,127
17012,note_off,0,0,0,,1,,,61,127
17013,note_on,1,0,0,,8,,,68,127
17013,note_on,0,0,0,,3,,,63,127
17122,note_off,109,0,0,,8,,,68,127
17123,note_on,1,0,0,,6,,,66,127
17209,note_off,86,0,0,,6,,,66,127
17232,note_off,23,0,0,,3,,,63,127
17233,note_on,1,0,0,,8,,,68,127
17233,note_on,0,0,0,,4,,,64,127
17343,note_on,110,0,0,,4,,,76,127
17416,note_off,73,0,0,,8,,,68,127
17451,note_off,35,0,0,,4,,,64,127
17452,note_on,1,0,0,,6,,,66,127
17452,note_on,0,0,0,,12,,,59,127
17525,note_off,73,0,0,,4,,,76,127
17562,note_on,37,0,0,,3,,,75,127
17635,note_off,73,0,0,,6,,,66,127
17670,note_off,35,0,0,,12,,,59,127
17671,note_on,1,0,0,,4,,,64,127
17671,note_on,0,0,0,,1,,,61,127
17744,note_off,73,0,0,,3,,,75,127
17781,note_on,37,0,0,,1,,,73,127
17854,note_off,73,0,0,,4,,,64,127
17889,note_off,35,0,0,,1,,,61,127
17890,note_on,1,0,0,,3,,,63,127
17890,note_on,0,0,0,,8,,,56,127
17963,note_off,73,0,0,,1,,,73,127
18000,note_on,37,0,0,,12,,,71,127
18073,note_off,73,0,0,,3,,,63,127
18108,note_off,35,0,0,,8,,,56,127
18109,note_on,1,0,0,,1,,,61,127
18109,note_on,0,0,0,,10,,,57,127
18182,note_off,73,0,0,,12,,,71,127
18219,note_on,37,0,0,,10,,,69,127
18292,note_off,73,0,0,,1,,,61,127
18327,note_off,35,0,0,,10,,,57,127
18328,note_on,1,0,0,,12,,,59,127
18328,note_on,0,0,0,,4,,,52,127
18401,note_off,73,0,0,,10,,,69,127
18438,note_on,37,0,0,,8,,,68,127
18511,note_off,73,0,0,,12,,,59,127
18546,note_off,35,0,0,,4,,,52,127
18547,note_on,1,0,0,,6,,,66,127
18547,note_on,0,0,0,,12,,,47,127
18620,note_off,73,0,0,,8,,,68,127
18655,note_off,35,0,0,,6,,,66,127
18656,note_on,1,0,0,,4,,,64,127
18765,note_off,109,0,0,,4,,,64,127
18766,note_on,1,0,0,,3,,,63,127
18875,note_off,109,0,0,,3,,,63,127
18876,note_on,1,0,0,,1,,,61,127
18985,note_off,109,0,0,,1,,,61,127
18986,note_on,1,0,0,,12,,,59,127
19050,note_off,64,0,0,,12,,,47,127
19095,note_off,45,0,0,,12,,,59,127
19096,note_on,1,0,0,,1,,,61,127
19205,note_off,109,0,0,,1,,,61,127
19206,note_on,1,0,0,,3,,,63,127
19206,note_on,0,0,0,,12,,,59,127
19315,note_off,109,0,0,,3,,,63,127
19316,note_on,1,0,0,,4,,,64,127
19425,note_off,109,0,0,,4,,,64,127
19425,note_off,0,0,0,,12,,,59,127
19426,note_on,1,0,0,,6,,,66,127
19426,note_on,0,0,0,,1,,,61,127
19535,note_off,109,0,0,,6,,,66,127
19536,note_on,1,0,0,,8,,,68,127
19645,note_off,109,0,0,,8,,,68,127
19645,note_off,0,0,0,,1,,,61,127
19646,note_on,1,0,0,,10,,,69,127
19646,note_on,0,0,0,,3,,,63,127
19755,note_off,109,0,0,,10,,,69,127
19756,note_on,1,0,0,,12,,,71,127
19853,note_off,97,0,0,,12,,,71,127
19864,note_off,11,0,0,,3,,,63,127
19865,note_on,1,0,0,,8,,,68,127
19865,note_on,0,0,0,,4,,,64,127
19974,note_off,109,0,0,,8,,,68,127
19975,note_on,1,0,0,,10,,,69,127
20084,note_off,109,0,0,,10,,,69,127
20084,note_off,0,0,0,,4,,,64,127
20085,note_on,1,0,0,,12,,,71,127
20085,note_on,0,0,0,,6,,,66,127
20194,note_off,109,0,0,,12,,,71,127
20195,note_on,1,0,0,,1,,,73,127
20304,note_off,109,0,0,,1,,,73,127
20304,note_off,0,0,0,,6,,,66,127
20305,note_on,1,0,0,,3,,,75,127
20305,note_on,0,0,0,,8,,,68,127
20414,note_off,109,0,0,,3,,,75,127
20415,note_on,1,0,0,,4,,,76,127
20512,note_off,97,0,0,,4,,,76,127
20523,note_off,11,0,0,,8,,,68,127
20524,note_on,1,0,0,,11,,,70,127
20524,note_on,0,0,0,,6,,,66,127
20633,note_off,109,0,0,,11,,,70,127
20634,note_on,1,0,0,,12,,,71,127
20743,note_off,109,0,0,,12,,,71,127
20743,note_off,0,0,0,,6,,,66,127
20744,note_on,1,0,0,,1,,,73,127
20744,note_on,0,0,0,,8,,,68,127
20853,note_off,109,0,0,,1,,,73,127
20854,note_on,1,0,0,,3,,,75,127
20963,note_off,109,0,0,,3,,,75,127
20963,note_off,0,0,0,,8,,,68,127
20964,note_on,1,0,0,,4,,,76,127
20964,note_on,0,0,0,,11,,,70,127
21073,note_off,109,0,0,,4,,,76,127
21074,note_on,1,0,0,,6,,,78,127
21171,note_off,97,0,0,,6,,,78,127
21182,note_off,11,0,0,,11,,,70,127
21183,note_on,1,0,0,,3,,,75,127
21183,note_on,0,0,0,,12,,,71,127
21292,note_off,109,0,0,,3,,,75,127
21293,note_on,1,0,0,,4,,,76,127
21402,note_off,109,0,0,,4,,,76,127
21402,note_off,0,0,0,,12,,,71,127
21403,note_on,1,0,0,,6,,,78,127
21403,note_on,0,0,0,,1,,,73,127
21512,note_off,109,0,0,,6,,,78,127
21513,note_on,1,0,0,,8,,,80,127
21622,note_off,109,0,0,,8,,,80,127
21622,note_off,0,0,0,,1,,,73,127
21623,note_on,1,0,0,,11,,,82,127
21623,note_on,0,0,0,,3,,,75,127
21732,note_off,109,0,0,,11,,,82,127
21733,note_on,1,0,0,,12,,,83,127
21842,note_off,109,0,0,,3,,,75,127
21843,note_on,1,0,0,,4,,,76,127
21928,note_off,85,0,0,,12,,,83,127
21953,note_on,25,0,0,,8,,,80,127
22062,note_off,109,0,0,,4,,,76,127
22063,note_on,1,0,0,,3,,,75,127
22090,note_off,27,0,0,,8,,,80,127
22172,note_on,82,0,0,,6,,,78,127
22281,note_off,109,0,0,,3,,,75,127
22282,note_on,1,0,0,,1,,,73,127
22309,note_off,27,0,0,,6,,,78,127
22391,note_on,82,0,0,,4,,,76,127
22500,note_off,109,0,0,,1,,,73,127
22501,note_on,1,0,0,,12,,,71,127
22528,note_off,27,0,0,,4,,,76,127
22610,note_on,82,0,0,,3,,,75,127
22719,note_off,109,0,0,,12,,,71,127
22720,note_on,1,0,0,,10,,,69,127
22747,note_off,27,0,0,,3,,,75,127
22829,note_on,82,0,0,,1,,,73,127
22938,note_off,109,0,0,,10,,,69,127
22939,note_on,1,0,0,,8,,,68,127
22966,note_off,27,0,0,,1,,,73,127
23048,note_on,82,0,0,,12,,,71,127
23157,note_off,109,0,0,,8,,,68,127
23158,note_on,1,0,0,,6,,,66,127
23185,note_off,27,0,0,,12,,,71,127
23267,note_on,82,0,0,,10,,,81,127
23267,note_on,0,0,0,,10,,,69,127
23376,note_off,109,0,0,,6,,,66,127
23377,note_on,1,0,0,,4,,,64,127
23432,note_off,55,0,0,,10,,,69,127
23432,note_off,0,0,0,,10,,,81,127
23487,note_on,55,0,0,,8,,,68,127
23487,note_on,0,0,0,,8,,,80,127
23596,note_off,109,0,0,,4,,,64,127
23597,note_on,1,0,0,,3,,,63,127
23652,note_off,55,0,0,,8,,,80,127
23652,note_off,0,0,0,,8,,,68,127
23707,note_on,55,0,0,,6,,,66,127
23707,note_on,0,0,0,,6,,,78,127
23816,note_off,109,0,0,,3,,,63,127
23817,note_on,1,0,0,,1,,,61,127
23872,note_off,55,0,0,,6,,,78,127
23872,note_off,0,0,0,,6,,,66,127
23927,note_on,55,0,0,,4,,,64,127
23927,note_on,0,0,0,,4,,,76,127
24036,note_off,109,0,0,,1,,,61,127
24037,note_on,1,0,0,,12,,,59,127
24092,note_off,55,0,0,,4,,,76,127
24092,note_off,0,0,0,,4,,,64,127
24147,note_on,55,0,0,,3,,,63,127
24147,note_on,0,0,0,,3,,,75,127
24256,note_off,109,0,0,,12,,,59,127
24257,note_on,1,0,0,,10,,,57,127
24312,note_off,55,0,0,,3,,,75,127
24312,note_off,0,0,0,,3,,,63,127
24367,note_on,55,0,0,,1,,,73,127
24367,note_on,0,0,0,,1,,,61,127
24476,note_off,109,0,0,,1,,,61,127
24476,note_off,0,0,0,,1,,,73,127
24476,note_off,0,0,0,,10,,,57,127
24477,note_on,1,0,0,,12,,,71,127
24477,note_on,0,0,0,,8,,,56,127
24586,note_off,109,0,0,,12,,,71,127
24587,note_on,1,0,0,,10,,,69,127
24696,note_off,109,0,0,,10,,,69,127
24696,note_off,0,0,0,,8,,,56,127
24697,note_on,1,0,0,,8,,,68,127
24697,note_on,0,0,0,,12,,,59,127
24806,note_off,109,0,0,,8,,,68,127
24807,note_on,1,0,0,,6,,,66,127
24916,note_off,109,0,0,,6,,,66,127
24916,note_off,0,0,0,,12,,,59,127
24917,note_on,1,0,0,,4,,,64,127
24917,note_on,0,0,0,,1,,,61,127
25026,note_off,109,0,0,,4,,,64,127
25027,note_on,1,0,0,,8,,,68,127
25136,note_off,109,0,0,,8,,,68,127
25136,note_off,0,0,0,,1,,,61,127
25137,note_on,1,0,0,,6,,,66,127
25137,note_on,0,0,0,,10,,,57,127
25246,note_off,109,0,0,,6,,,66,127
25247,note_on,1,0,0,,10,,,69,127
25356,note_off,109,0,0,,10,,,69,127
25356,note_off,0,0,0,,10,,,57,127
25357,note_on,1,0,0,,8,,,68,127
25357,note_on,0,0,0,,12,,,59,127
25466,note_off,109,0,0,,8,,,68,127
25467,note_on,1,0,0,,6,,,66,127
25576,note_off,109,0,0,,6,,,66,127
25577,note_on,1,0,0,,4,,,64,127
25577,note_on,0,0,0,,12,,,47,127
25686,note_off,109,0,0,,4,,,64,127
25687,note_on,1,0,0,,3,,,63,127
25784,note_off,97,0,0,,3,,,63,127
25790,note_off,6,0,0,,12,,,59,127
25795,note_off,5,0,0,,12,,,47,127
25829,note_on,34,0,0,,4,,,76,127
25939,note_on,110,0,0,,8,,,80,127
26048,note_off,109,0,0,,4,,,76,127
26049,note_on,1,0,0,,3,,,75,127
26104,note_off,55,0,0,,8,,,80,127
26159,note_on,55,0,0,,6,,,78,127
26268,note_off,109,0,0,,3,,,75,127
26269,note_on,1,0,0,,1,,,73,127
26324,note_off,55,0,0,,6,,,78,127
26379,note_on,55,0,0,,4,,,76,127
26488,note_off,109,0,0,,1,,,73,127
26489,note_on,1,0,0,,12,,,71,127
26544,note_off,55,0,0,,4,,,76,127
26599,note_on,55,0,0,,3,,,75,127
26708,note_off,109,0,0,,12,,,71,127
26709,note_on,1,0,0,,10,,,69,127
26764,note_off,55,0,0,,3,,,75,127
26819,note_on,55,0,0,,1,,,73,127
26928,note_off,109,0,0,,10,,,69,127
26929,note_on,1,0,0,,8,,,68,127
26984,note_off,55,0,0,,1,,,73,127
27039,note_on,55,0,0,,12,,,71,127
27148,note_off,109,0,0,,8,,,68,127
27149,note_on,1,0,0,,6,,,66,127
27204,note_off,55,0,0,,12,,,71,127
27259,note_on,55,0,0,,10,,,81,127
27259,note_on,0,0,0,,10,,,69,127
27368,note_off,109,0,0,,6,,,66,127
27369,note_on,1,0,0,,4,,,64,127
27424,note_off,55,0,0,,10,,,69,127
27424,note_off,0,0,0,,10,,,81,127
27479,note_on,55,0,0,,8,,,68,127
27479,note_on,0,0,0,,8,,,80,127
27588,note_off,109,0,0,,4,,,64,127
27589,note_on,1,0,0,,3,,,63,127
27644,note_off,55,0,0,,8,,,80,127
27644,note_off,0,0,0,,8,,,68,127
27699,note_on,55,0,0,,6,,,66,127
27699,note_on,0,0,0,,6,,,78,127
27808,note_off,109,0,0,,3,,,63,127
27809,note_on,1,0,0,,1,,,61,127
27864,note_off,55,0,0,,6,,,78,127
27864,note_off,0,0,0,,6,,,66,127
27919,note_on,55,0,0,,4,,,64,127
27919,note_on,0,0,0,,4,,,76,127
28028,note_off,109,0,0,,1,,,61,127
28029,note_on,1,0,0,,12,,,59,127
28084,note_off,55,0,0,,4,,,76,127
28084,note_off,0,0,0,,4,,,64,127
28139,note_on,55,0,0,,3,,,75,127
28139,note_on,0,0,0,,3,,,63,127
28248,note_off,109,0,0,,12,,,59,127
28249,note_on,1,0,0,,10,,,57,127
28304,note_off,55,0,0,,3,,,63,127
28304,note_off,0,0,0,,3,,,75,127
28359,note_on,55,0,0,,1,,,73,127
28359,note_on,0,0,0,,1,,,61,127
28468,note_off,109,0,0,,1,,,61,127
28468,note_off,0,0,0,,1,,,73,127
28468,note_off,0,0,0,,10,,,57,127
28469,note_on,1,0,0,,8,,,56,127
28469,note_on,0,0,0,,12,,,71,127
28578,note_off,109,0,0,,12,,,71,127
28579,note_on,1,0,0,,10,,,69,127
28688,note_off,109,0,0,,10,,,69,127
28688,note_off,0,0,0,,8,,,56,127
28689,note_on,1,0,0,,12,,,59,127
28689,note_on,0,0,0,,8,,,68,127
28798,note_off,109,0,0,,8,,,68,127
28799,note_on,1,0,0,,6,,,66,127
28908,note_off,109,0,0,,6,,,66,127
28908,note_off,0,0,0,,12,,,59,127
28909,note_on,1,0,0,,1,,,61,127
28909,note_on,0,0,0,,4,,,64,127
29018,note_off,109,0,0,,4,,,64,127
29019,note_on,1,0,0,,8,,,68,127
29128,note_off,109,0,0,,8,,,68,127
29128,note_off,0,0,0,,1,,,61,127
29129,note_on,1,0,0,,10,,,57,127
29129,note_on,0,0,0,,6,,,66,127
29238,note_off,109,0,0,,6,,,66,127
29239,note_on,1,0,0,,10,,,69,127
29348,note_off,109,0,0,,10,,,69,127
29348,note_off,0,0,0,,10,,,57,127
29349,note_on,1,0,0,,12,,,59,127
29349,note_on,0,0,0,,8,,,68,127
29458,note_off,109,0,0,,8,,,68,127
29459,note_on,1,0,0,,6,,,66,127
29568,note_off,109,0,0,,6,,,66,127
29569,note_on,1,0,0,,12,,,47,127
29569,note_on,0,0,0,,4,,,64,127
29678,note_off,109,0,0,,4,,,64,127
29679,note_on,1,0,0,,3,,,63,127
29780,note_off,101,0,0,,12,,,59,127
29781,note_off,1,0,0,,12,,,47,127
29782,note_off,1,0,0,,3,,,63,127
29806,note_on,24,0,0,,4,,,52,127
29923,note_on,117,0,0,,12,,,83,127
30033,note_on,110,0,0,,12,,,71,127
30140,note_off,107,0,0,,12,,,83,127
30142,note_on,2,0,0,,12,,,83,127
30197,note_off,55,0,0,,12,,,71,127
30244,note_off,47,0,0,,4,,,52,127
30252,note_on,8,0,0,,8,,,56,127
30252,note_on,0,0,0,,12,,,71,127
30359,note_off,107,0,0,,12,,,83,127
30361,note_on,2,0,0,,12,,,83,127
30416,note_off,55,0,0,,12,,,71,127
30470,note_off,54,0,0,,8,,,56,127
30471,note_on,1,0,0,,10,,,57,127
30526,note_off,55,0,0,,12,,,83,127
30581,note_on,55,0,0,,12,,,83,127
30690,note_off,109,0,0,,12,,,83,127
30691,note_on,1,0,0,,10,,,81,127
30800,note_off,109,0,0,,10,,,81,127
30801,note_on,1,0,0,,8,,,80,127
30910,note_off,109,0,0,,8,,,80,127
30910,note_off,0,0,0,,10,,,57,127
30911,note_on,1,0,0,,12,,,59,127
30911,note_on,0,0,0,,6,,,78,127
31020,note_off,109,0,0,,6,,,78,127
31021,note_on,1,0,0,,10,,,81,127
31130,note_off,109,0,0,,10,,,81,127
31130,note_off,0,0,0,,12,,,59,127
31131,note_on,1,0,0,,4,,,52,127
31131,note_on,0,0,0,,4,,,76,127
31131,note_on,0,0,0,,8,,,80,127
31240,note_off,109,0,0,,8,,,80,127
31241,note_on,1,0,0,,12,,,83,127
31296,note_off,55,0,0,,4,,,76,127
31351,note_on,55,0,0,,12,,,71,127
31406,note_off,55,0,0,,12,,,83,127
31461,note_on,55,0,0,,12,,,83,127
31516,note_off,55,0,0,,12,,,71,127
31570,note_off,54,0,0,,4,,,52,127
31571,note_on,1,0,0,,8,,,56,127
31571,note_on,0,0,0,,12,,,71,127
31626,note_off,55,0,0,,12,,,83,127
31681,note_on,55,0,0,,12,,,83,127
31736,note_off,55,0,0,,12,,,71,127
31790,note_off,54,0,0,,8,,,56,127
31791,note_on,1,0,0,,10,,,57,127
31846,note_off,55,0,0,,12,,,83,127
31901,note_on,55,0,0,,12,,,83,127
32010,note_off,109,0,0,,12,,,83,127
32011,note_on,1,0,0,,10,,,81,127
32120,note_off,109,0,0,,10,,,81,127
32121,note_on,1,0,0,,8,,,80,127
32230,note_off,109,0,0,,8,,,80,127
32230,note_off,0,0,0,,10,,,57,127
32231,note_on,1,0,0,,12,,,59,127
32231,note_on,0,0,0,,6,,,78,127
32340,note_off,109,0,0,,6,,,78,127
32341,note_on,1,0,0,,10,,,81,127
32427,note_off,86,0,0,,10,,,81,127
32450,note_off,23,0,0,,12,,,59,127
32451,note_on,1,0,0,,4,,,64,127
32451,note_on,0,0,0,,4,,,52,127
32560,note_off,109,0,0,,4,,,64,127
32561,note_on,1,0,0,,12,,,71,127
32671,note_on,110,0,0,,12,,,59,127
32778,note_off,107,0,0,,12,,,71,127
32780,note_on,2,0,0,,12,,,71,127
32835,note_off,55,0,0,,12,,,59,127
32889,note_off,54,0,0,,4,,,52,127
32890,note_on,1,0,0,,8,,,44,127
32890,note_on,0,0,0,,12,,,59,127
32997,note_off,107,0,0,,12,,,71,127
32999,note_on,2,0,0,,12,,,71,127
33054,note_off,55,0,0,,12,,,59,127
33108,note_off,54,0,0,,8,,,44,127
33109,note_on,1,0,0,,10,,,45,127
33164,note_off,55,0,0,,12,,,71,127
33219,note_on,55,0,0,,12,,,71,127
33328,note_off,109,0,0,,12,,,71,127
33329,note_on,1,0,0,,10,,,69,127
33438,note_off,109,0,0,,10,,,69,127
33439,note_on,1,0,0,,8,,,68,127
33548,note_off,109,0,0,,8,,,68,127
33548,note_off,0,0,0,,10,,,45,127
33549,note_on,1,0,0,,12,,,47,127
33549,note_on,0,0,0,,6,,,66,127
33658,note_off,109,0,0,,6,,,66,127
33659,note_on,1,0,0,,10,,,69,127
33768,note_off,109,0,0,,10,,,69,127
33768,note_off,0,0,0,,12,,,47,127
33769,note_on,1,0,0,,4,,,52,127
33769,note_on,0,0,0,,8,,,68,127
33769,note_on,0,0,0,,4,,,64,127
33878,note_off,109,0,0,,8,,,68,127
33879,note_on,1,0,0,,12,,,71,127
33934,note_off,55,0,0,,4,,,64,127
33989,note_on,55,0,0,,12,,,59,127
34044,note_off,55,0,0,,12,,,71,127
34099,note_on,55,0,0,,12,,,71,127
34154,note_off,55,0,0,,12,,,59,127
34208,note_off,54,0,0,,4,,,52,127
34209,note_on,1,0,0,,8,,,44,127
34209,note_on,0,0,0,,12,,,59,127
34264,note_off,55,0,0,,12,,,71,127
34319,note_on,55,0,0,,12,,,71,127
34374,note_off,55,0,0,,12,,,59,127
34428,note_off,54,0,0,,8,,,44,127
34429,note_on,1,0,0,,10,,,45,127
34484,note_off,55,0,0,,12,,,71,127
34539,note_on,55,0,0,,12,,,71,127
34648,note_off,109,0,0,,12,,,71,127
34649,note_on,1,0,0,,10,,,69,127
34758,note_off,109,0,0,,10,,,69,127
34759,note_on,1,0,0,,8,,,68,127
34868,note_off,109,0,0,,8,,,68,127
34868,note_off,0,0,0,,10,,,45,127
34869,note_on,1,0,0,,12,,,47,127
34869,note_on,0,0,0,,6,,,66,127
34978,note_off,109,0,0,,6,,,66,127
34979,note_on,1,0,0,,10,,,69,127
35088,note_off,109,0,0,,10,,,69,127
35088,note_off,0,0,0,,12,,,47,127
35098,note_on,10,0,0,,4,,,64,127
35098,note_on,0,0,0,,8,,,68,127
35098,note_on,0,0,0,,4,,,52,127
35207,note_off,109,0,0,,8,,,68,127
35207,note_off,0,0,0,,4,,,64,127
35208,note_on,1,0,0,,4,,,64,127
35317,note_off,109,0,0,,4,,,64,127
35318,note_on,1,0,0,,8,,,68,127
35427,note_off,109,0,0,,8,,,68,127
35428,note_on,1,0,0,,12,,,71,127
35537,note_off,109,0,0,,12,,,71,127
35537,note_off,0,0,0,,4,,,52,127
35538,note_on,1,0,0,,4,,,76,127
35538,note_on,0,0,0,,8,,,56,127
35647,note_off,109,0,0,,4,,,76,127
35648,note_on,1,0,0,,12,,,71,127
35757,note_off,109,0,0,,12,,,71,127
35757,note_off,0,0,0,,8,,,56,127
35758,note_on,1,0,0,,12,,,83,127
35758,note_on,0,0,0,,10,,,57,127
35867,note_off,109,0,0,,12,,,83,127
35868,note_on,1,0,0,,10,,,81,127
35977,note_off,109,0,0,,10,,,81,127
35977,note_off,0,0,0,,10,,,57,127
35978,note_on,1,0,0,,8,,,80,127
35978,note_on,0,0,0,,12,,,59,127
36087,note_off,109,0,0,,8,,,80,127
36088,note_on,1,0,0,,6,,,78,127
36197,note_off,109,0,0,,6,,,78,127
36198,note_on,1,0,0,,4,,,76,127
36198,note_on,0,0,0,,12,,,47,127
36307,note_off,109,0,0,,4,,,76,127
36308,note_on,1,0,0,,3,,,75,127
36417,note_off,109,0,0,,3,,,75,127
36417,note_off,0,0,0,,12,,,47,127
36417,note_off,0,0,0,,12,,,59,127
36418,note_on,1,0,0,,4,,,76,127
36418,note_on,0,0,0,,4,,,52,127
36527,note_off,109,0,0,,4,,,76,127
36528,note_on,1,0,0,,4,,,64,127
36637,note_off,109,0,0,,4,,,64,127
36638,note_on,1,0,0,,8,,,68,127
36747,note_off,109,0,0,,8,,,68,127
36748,note_on,1,0,0,,12,,,71,127
36857,note_off,109,0,0,,12,,,71,127
36857,note_off,0,0,0,,4,,,52,127
36858,note_on,1,0,0,,4,,,76,127
36858,note_on,0,0,0,,8,,,56,127
36967,note_off,109,0,0,,4,,,76,127
36968,note_on,1,0,0,,12,,,71,127
37077,note_off,109,0,0,,12,,,71,127
37077,note_off,0,0,0,,8,,,56,127
37078,note_on,1,0,0,,12,,,83,127
37078,note_on,0,0,0,,10,,,57,127
37187,note_off,109,0,0,,12,,,83,127
37188,note_on,1,0,0,,10,,,81,127
37297,note_off,109,0,0,,10,,,81,127
37297,note_off,0,0,0,,10,,,57,127
37298,note_on,1,0,0,,8,,,80,127
37298,note_on,0,0,0,,12,,,59,127
37407,note_off,109,0,0,,8,,,80,127
37408,note_on,1,0,0,,6,,,78,127
37517,note_off,109,0,0,,6,,,78,127
37518,note_on,1,0,0,,4,,,76,127
37518,note_on,0,0,0,,12,,,47,127
37627,note_off,109,0,0,,4,,,76,127
37628,note_on,1,0,0,,3,,,75,127
37737,note_off,109,0,0,,3,,,75,127
37737,note_off,0,0,0,,12,,,47,127
37737,note_off,0,0,0,,12,,,59,127
37738,note_on,1,0,0,,4,,,76,127
37738,note_on,0,0,0,,4,,,52,127
37847,note_off,109,0,0,,4,,,76,127
37848,note_on,1,0,0,,4,,,64,127
37957,note_off,109,0,0,,4,,,64,127
37958,note_on,1,0,0,,8,,,68,127
38067,note_off,109,0,0,,8,,,68,127
38068,note_on,1,0,0,,12,,,71,127
38177,note_off,109,0,0,,12,,,71,127
38177,note_off,0,0,0,,4,,,52,127
38178,note_on,1,0,0,,4,,,76,127
38178,note_on,0,0,0,,8,,,56,127
38287,note_off,109,0,0,,4,,,76,127
38288,note_on,1,0,0,,12,,,71,127
38397,note_off,109,0,0,,12,,,71,127
38397,note_off,0,0,0,,8,,,56,127
38398,note_on,1,0,0,,12,,,83,127
38398,note_on,0,0,0,,10,,,57,127
38507,note_off,109,0,0,,12,,,83,127
38508,note_on,1,0,0,,10,,,81,127
38617,note_off,109,0,0,,10,,,81,127
38617,note_off,0,0,0,,10,,,57,127
38618,note_on,1,0,0,,8,,,80,127
38618,note_on,0,0,0,,12,,,59,127
38727,note_off,109,0,0,,8,,,80,127
38728,note_on,1,0,0,,6,,,78,127
38837,note_off,109,0,0,,6,,,78,127
38838,note_on,1,0,0,,4,,,76,127
38838,note_on,0,0,0,,12,,,47,127
38947,note_off,109,0,0,,4,,,76,127
38948,note_on,1,0,0,,3,,,75,127
39057,note_off,109,0,0,,3,,,75,127
39057,note_off,0,0,0,,12,,,47,127
39057,note_off,0,0,0,,12,,,59,127
39058,note_on,1,0,0,,4,,,76,127
39058,note_on,0,0,0,,4,,,52,127
39607,note_off,549,0,0,,4,,,76,127
39716,note_off,109,0,0,,4,,,52,127
39831,note_on,115,0,0,,4,,,64,127
39831,note_on,0,0,0,,0,,,60,127
39941,note_on,110,0,0,,7,,,67,127
40050,note_off,109,0,0,,7,,,67,127
40050,note_off,0,0,0,,0,,,60,127
40050,note_off,0,0,0,,4,,,64,127
40051,note_on,1,0,0,,4,,,64,127
40051,note_on,0,0,0,,0,,,60,127
40051,note_on,0,0,0,,0,,,72,127
40160,note_off,109,0,0,,0,,,72,127
40161,note_on,1,0,0,,7,,,67,127
40270,note_off,109,0,0,,7,,,67,127
40270,note_off,0,0,0,,0,,,60,127
40270,note_off,0,0,0,,4,,,64,127
40271,note_on,1,0,0,,4,,,64,127
40271,note_on,0,0,0,,0,,,60,127
40271,note_on,0,0,0,,4,,,76,127
40380,note_off,109,0,0,,4,,,76,127
40381,note_on,1,0,0,,0,,,72,127
40490,note_off,109,0,0,,0,,,72,127
40490,note_off,0,0,0,,0,,,60,127
40490,note_off,0,0,0,,4,,,64,127
40491,note_on,1,0,0,,0,,,60,127
40491,note_on,0,0,0,,7,,,67,127
40491,note_on,0,0,0,,4,,,64,127
40491,note_on,0,0,0,,7,,,79,127
40600,note_off,109,0,0,,7,,,79,127
40601,note_on,1,0,0,,0,,,72,127
40710,note_off,109,0,0,,0,,,72,127
40710,note_off,0,0,0,,4,,,64,127
40710,note_off,0,0,0,,7,,,67,127
40710,note_off,0,0,0,,0,,,60,127
40711,note_on,1,0,0,,4,,,64,127
40711,note_on,0,0,0,,0,,,60,127
40711,note_on,0,0,0,,7,,,67,127
40711,note_on,0,0,0,,4,,,76,127
40820,note_off,109,0,0,,4,,,76,127
40821,note_on,1,0,0,,0,,,72,127
40930,note_off,109,0,0,,0,,,72,127
40930,note_off,0,0,0,,7,,,67,127
40930,note_off,0,0,0,,0,,,60,127
40930,note_off,0,0,0,,4,,,64,127
40931,note_on,1,0,0,,0,,,60,127
40931,note_on,0,0,0,,7,,,67,127
40931,note_on,0,0,0,,4,,,64,127
40931,note_on,0,0,0,,7,,,79,127
41040,note_off,109,0,0,,7,,,79,127
41041,note_on,1,0,0,,0,,,72,127
41150,note_off,109,0,0,,0,,,72,127
41150,note_off,0,0,0,,4,,,64,127
41150,note_off,0,0,0,,7,,,67,127
41150,note_off,0,0,0,,0,,,60,127
41151,note_on,1,0,0,,12,,,59,127
41151,note_on,0,0,0,,7,,,67,127
41151,note_on,0,0,0,,2,,,62,127
41151,note_on,0,0,0,,0,,,84,127
41261,note_on,110,0,0,,0,,,72,127
41368,note_off,107,0,0,,0,,,84,127
41369,note_off,1,0,0,,0,,,72,127
41369,note_off,0,0,0,,2,,,62,127
41369,note_off,0,0,0,,7,,,67,127
41369,note_off,0,0,0,,12,,,59,127
41370,note_on,1,0,0,,12,,,59,127
41370,note_on,0,0,0,,7,,,67,127
41370,note_on,0,0,0,,2,,,62,127
41370,note_on,0,0,0,,7,,,79,127
41479,note_off,109,0,0,,7,,,79,127
41480,note_on,1,0,0,,0,,,72,127
41589,note_off,109,0,0,,0,,,72,127
41589,note_off,0,0,0,,2,,,62,127
41589,note_off,0,0,0,,7,,,67,127
41589,note_off,0,0,0,,12,,,59,127
41590,note_on,1,0,0,,7,,,67,127
41590,note_on,0,0,0,,12,,,59,127
41590,note_on,0,0,0,,2,,,62,127
41590,note_on,0,0,0,,0,,,84,127
41700,note_on,110,0,0,,0,,,72,127
41807,note_off,107,0,0,,0,,,84,127
41808,note_off,1,0,0,,0,,,72,127
41808,note_off,0,0,0,,2,,,62,127
41808,note_off,0,0,0,,12,,,59,127
41808,note_off,0,0,0,,7,,,67,127
41809,note_on,1,0,0,,10,,,57,127
41809,note_on,0,0,0,,4,,,64,127
41809,note_on,0,0,0,,0,,,60,127
41809,note_on,0,0,0,,2,,,86,127
41863,note_off,54,0,0,,2,,,86,127
41864,note_on,1,0,0,,0,,,84,127
41918,note_off,54,0,0,,0,,,84,127
41919,note_on,1,0,0,,2,,,86,127
41973,note_off,54,0,0,,2,,,86,127
41974,note_on,1,0,0,,0,,,84,127
42028,note_off,54,0,0,,0,,,84,127
42028,note_off,0,0,0,,0,,,60,127
42028,note_off,0,0,0,,4,,,64,127
42028,note_off,0,0,0,,10,,,57,127
42029,note_on,1,0,0,,10,,,57,127
42029,note_on,0,0,0,,4,,,64,127
42029,note_on,0,0,0,,0,,,60,127
42029,note_on,0,0,0,,2,,,86,127
42083,note_off,54,0,0,,2,,,86,127
42084,note_on,1,0,0,,0,,,84,127
42138,note_off,54,0,0,,0,,,84,127
42139,note_on,1,0,0,,12,,,83,127
42248,note_off,109,0,0,,12,,,83,127
42248,note_off,0,0,0,,0,,,60,127
42248,note_off,0,0,0,,4,,,64,127
42248,note_off,0,0,0,,10,,,57,127
42249,note_on,1,0,0,,0,,,60,127
42249,note_on,0,0,0,,10,,,57,127
42249,note_on,0,0,0,,4,,,64,127
42249,note_on,0,0,0,,0,,,84,127
42467,note_off,218,0,0,,4,,,64,127
42467,note_off,0,0,0,,10,,,57,127
42467,note_off,0,0,0,,0,,,60,127
42475,note_on,8,0,0,,0,,,60,127
42475,note_on,0,0,0,,10,,,57,127
42577,note_off,102,0,0,,0,,,84,127
42585,note_on,8,0,0,,4,,,64,127
42694,note_off,109,0,0,,4,,,64,127
42694,note_off,0,0,0,,10,,,57,127
42694,note_off,0,0,0,,0,,,60,127
42695,note_on,1,0,0,,10,,,69,127
42695,note_on,0,0,0,,10,,,57,127
42695,note_on,0,0,0,,0,,,60,127
42804,note_off,109,0,0,,10,,,69,127
42805,note_on,1,0,0,,4,,,64,127
42914,note_off,109,0,0,,4,,,64,127
42914,note_off,0,0,0,,0,,,60,127
42914,note_off,0,0,0,,10,,,57,127
42915,note_on,1,0,0,,0,,,72,127
42915,note_on,0,0,0,,10,,,57,127
42915,note_on,0,0,0,,0,,,60,127
43024,note_off,109,0,0,,0,,,72,127
43025,note_on,1,0,0,,10,,,69,127
43134,note_off,109,0,0,,10,,,69,127
43134,note_off,0,0,0,,0,,,60,127
43134,note_off,0,0,0,,10,,,57,127
43135,note_on,1,0,0,,4,,,76,127
43135,note_on,0,0,0,,4,,,64,127
43135,note_on,0,0,0,,0,,,60,127
43135,note_on,0,0,0,,10,,,57,127
43244,note_off,109,0,0,,4,,,76,127
43245,note_on,1,0,0,,10,,,69,127
43354,note_off,109,0,0,,10,,,69,127
43354,note_off,0,0,0,,10,,,57,127
43354,note_off,0,0,0,,0,,,60,127
43354,note_off,0,0,0,,4,,,64,127
43355,note_on,1,0,0,,0,,,72,127
43355,note_on,0,0,0,,10,,,57,127
43355,note_on,0,0,0,,0,,,60,127
43355,note_on,0,0,0,,4,,,64,127
43464,note_off,109,0,0,,0,,,72,127
43465,note_on,1,0,0,,10,,,69,127
43574,note_off,109,0,0,,10,,,69,127
43574,note_off,0,0,0,,4,,,64,127
43574,note_off,0,0,0,,0,,,60,127
43574,note_off,0,0,0,,10,,,57,127
43575,note_on,1,0,0,,4,,,76,127
43575,note_on,0,0,0,,4,,,64,127
43575,note_on,0,0,0,,10,,,57,127
43575,note_on,0,0,0,,0,,,60,127
43684,note_off,109,0,0,,4,,,76,127
43685,note_on,1,0,0,,10,,,69,127
43794,note_off,109,0,0,,10,,,69,127
43794,note_off,0,0,0,,0,,,60,127
43794,note_off,0,0,0,,10,,,57,127
43794,note_off,0,0,0,,4,,,64,127
43795,note_on,1,0,0,,10,,,81,127
43795,note_on,0,0,0,,12,,,59,127
43795,note_on,0,0,0,,4,,,64,127
43795,note_on,0,0,0,,7,,,55,127
43905,note_on,110,0,0,,10,,,69,127
44012,note_off,107,0,0,,10,,,81,127
44013,note_off,1,0,0,,10,,,69,127
44013,note_off,0,0,0,,7,,,55,127
44013,note_off,0,0,0,,4,,,64,127
44013,note_off,0,0,0,,12,,,59,127
44014,note_on,1,0,0,,4,,,76,127
44014,note_on,0,0,0,,12,,,59,127
44014,note_on,0,0,0,,4,,,64,127
44014,note_on,0,0,0,,7,,,55,127
44123,note_off,109,0,0,,4,,,76,127
44124,note_on,1,0,0,,10,,,69,127
44233,note_off,109,0,0,,10,,,69,127
44233,note_off,0,0,0,,7,,,55,127
44233,note_off,0,0,0,,4,,,64,127
44233,note_off,0,0,0,,12,,,59,127
44234,note_on,1,0,0,,10,,,81,127
44234,note_on,0,0,0,,12,,,59,127
44234,note_on,0,0,0,,4,,,64,127
44234,note_on,0,0,0,,7,,,55,127
44344,note_on,110,0,0,,10,,,69,127
44451,note_off,107,0,0,,10,,,81,127
44452,note_off,1,0,0,,10,,,69,127
44452,note_off,0,0,0,,7,,,55,127
44452,note_off,0,0,0,,4,,,64,127
44452,note_off,0,0,0,,12,,,59,127
44453,note_on,1,0,0,,12,,,83,127
44453,note_on,0,0,0,,0,,,60,127
44453,note_on,0,0,0,,5,,,53,127
44453,note_on,0,0,0,,10,,,57,127
44507,note_off,54,0,0,,12,,,83,127
44508,note_on,1,0,0,,10,,,81,127
44562,note_off,54,0,0,,10,,,81,127
44563,note_on,1,0,0,,12,,,83,127
44617,note_off,54,0,0,,12,,,83,127
44618,note_on,1,0,0,,10,,,81,127
44672,note_off,54,0,0,,10,,,81,127
44672,note_off,0,0,0,,10,,,57,127
44672,note_off,0,0,0,,5,,,53,127
44672,note_off,0,0,0,,0,,,60,127
44673,note_on,1,0,0,,12,,,83,127
44673,note_on,0,0,0,,5,,,53,127
44673,note_on,0,0,0,,10,,,57,127
44673,note_on,0,0,0,,0,,,60,127
44727,note_off,54,0,0,,12,,,83,127
44728,note_on,1,0,0,,10,,,81,127
44782,note_off,54,0,0,,10,,,81,127
44783,note_on,1,0,0,,7,,,79,127
44892,note_off,109,0,0,,7,,,79,127
44892,note_off,0,0,0,,0,,,60,127
44892,note_off,0,0,0,,10,,,57,127
44892,note_off,0,0,0,,5,,,53,127
44893,note_on,1,0,0,,10,,,81,127
44893,note_on,0,0,0,,5,,,53,127
44893,note_on,0,0,0,,10,,,57,127
44893,note_on,0,0,0,,0,,,60,127
45111,note_off,218,0,0,,0,,,60,127
45111,note_off,0,0,0,,10,,,57,127
45111,note_off,0,0,0,,5,,,53,127
45118,note_on,7,0,0,,10,,,57,127
45118,note_on,0,0,0,,5,,,53,127
45118,note_on,0,0,0,,0,,,60,127
45221,note_off,103,0,0,,10,,,81,127
45228,note_on,7,0,0,,5,,,65,127
45337,note_off,109,0,0,,5,,,65,127
45337,note_off,0,0,0,,0,,,60,127
45337,note_off,0,0,0,,5,,,53,127
45337,note_off,0,0,0,,10,,,57,127
45338,note_on,1,0,0,,0,,,60,127
45338,note_on,0,0,0,,10,,,57,127
45338,note_on,0,0,0,,5,,,53,127
45338,note_on,0,0,0,,10,,,69,127
45447,note_off,109,0,0,,10,,,69,127
45448,note_on,1,0,0,,5,,,65,127
45557,note_off,109,0,0,,5,,,65,127
45557,note_off,0,0,0,,5,,,53,127
45557,note_off,0,0,0,,10,,,57,127
45557,note_off,0,0,0,,0,,,60,127
45558,note_on,1,0,0,,0,,,60,127
45558,note_on,0,0,0,,10,,,57,127
45558,note_on,0,0,0,,5,,,53,127
45558,note_on,0,0,0,,0,,,72,127
45667,note_off,109,0,0,,0,,,72,127
45668,note_on,1,0,0,,5,,,65,127
45777,note_off,109,0,0,,5,,,65,127
45777,note_off,0,0,0,,5,,,53,127
45777,note_off,0,0,0,,10,,,57,127
45777,note_off,0,0,0,,0,,,60,127
45778,note_on,1,0,0,,0,,,60,127
45778,note_on,0,0,0,,10,,,57,127
45778,note_on,0,0,0,,5,,,53,127
45778,note_on,0,0,0,,5,,,77,127
45888,note_on,110,0,0,,5,,,65,127
45995,note_off,107,0,0,,5,,,77,127
45996,note_off,1,0,0,,5,,,65,127
45996,note_off,0,0,0,,5,,,53,127
45996,note_off,0,0,0,,10,,,57,127
45996,note_off,0,0,0,,0,,,60,127
45997,note_on,1,0,0,,10,,,57,127
45997,note_on,0,0,0,,5,,,53,127
45997,note_on,0,0,0,,0,,,60,127
45997,note_on,0,0,0,,10,,,69,127
46106,note_off,109,0,0,,10,,,69,127
46107,note_on,1,0,0,,5,,,65,127
46216,note_off,109,0,0,,5,,,65,127
46216,note_off,0,0,0,,0,,,60,127
46216,note_off,0,0,0,,5,,,53,127
46216,note_off,0,0,0,,10,,,57,127
46217,note_on,1,0,0,,5,,,53,127
46217,note_on,0,0,0,,0,,,60,127
46217,note_on,0,0,0,,10,,,57,127
46217,note_on,0,0,0,,0,,,72,127
46326,note_off,109,0,0,,0,,,72,127
46327,note_on,1,0,0,,5,,,65,127
46436,note_off,109,0,0,,5,,,65,127
46436,note_off,0,0,0,,10,,,57,127
46436,note_off,0,0,0,,0,,,60,127
46436,note_off,0,0,0,,5,,,53,127
46437,note_on,1,0,0,,4,,,52,127
46437,note_on,0,0,0,,0,,,60,127
46437,note_on,0,0,0,,7,,,55,127
46437,note_on,0,0,0,,5,,,77,127
46547,note_on,110,0,0,,5,,,65,127
46654,note_off,107,0,0,,5,,,77,127
46655,note_off,1,0,0,,5,,,65,127
46655,note_off,0,0,0,,7,,,55,127
46655,note_off,0,0,0,,0,,,60,127
46655,note_off,0,0,0,,4,,,52,127
46656,note_on,1,0,0,,4,,,52,127
46656,note_on,0,0,0,,0,,,60,127
46656,note_on,0,0,0,,7,,,55,127
46656,note_on,0,0,0,,10,,,69,127
46765,note_off,109,0,0,,10,,,69,127
46766,note_on,1,0,0,,5,,,65,127
46875,note_off,109,0,0,,5,,,65,127
46875,note_off,0,0,0,,7,,,55,127
46875,note_off,0,0,0,,0,,,60,127
46875,note_off,0,0,0,,4,,,52,127
46876,note_on,1,0,0,,4,,,52,127
46876,note_on,0,0,0,,0,,,60,127
46876,note_on,0,0,0,,7,,,55,127
46876,note_on,0,0,0,,0,,,72,127
46985,note_off,109,0,0,,0,,,72,127
46986,note_on,1,0,0,,5,,,65,127
47095,note_off,109,0,0,,5,,,65,127
47095,note_off,0,0,0,,7,,,55,127
47095,note_off,0,0,0,,0,,,60,127
47095,note_off,0,0,0,,4,,,52,127
47096,note_on,1,0,0,,10,,,57,127
47096,note_on,0,0,0,,5,,,53,127
47096,note_on,0,0,0,,2,,,50,127
47096,note_on,0,0,0,,7,,,79,127
47150,note_off,54,0,0,,7,,,79,127
47151,note_on,1,0,0,,5,,,77,127
47205,note_off,54,0,0,,5,,,77,127
47206,note_on,1,0,0,,7,,,79,127
47260,note_off,54,0,0,,7,,,79,127
47261,note_on,1,0,0,,5,,,77,127
47315,note_off,54,0,0,,5,,,77,127
47315,note_off,0,0,0,,2,,,50,127
47315,note_off,0,0,0,,5,,,53,127
47315,note_off,0,0,0,,10,,,57,127
47316,note_on,1,0,0,,5,,,53,127
47316,note_on,0,0,0,,10,,,57,127
47316,note_on,0,0,0,,2,,,50,127
47316,note_on,0,0,0,,7,,,79,127
47370,note_off,54,0,0,,7,,,79,127
47371,note_on,1,0,0,,5,,,77,127
47425,note_off,54,0,0,,5,,,77,127
47426,note_on,1,0,0,,4,,,76,127
47535,note_off,109,0,0,,4,,,76,127
47535,note_off,0,0,0,,2,,,50,127
47535,note_off,0,0,0,,10,,,57,127
47535,note_off,0,0,0,,5,,,53,127
47536,note_on,1,0,0,,5,,,53,127
47536,note_on,0,0,0,,2,,,50,127
47536,note_on,0,0,0,,10,,,57,127
47536,note_on,0,0,0,,5,,,77,127
47754,note_off,218,0,0,,10,,,57,127
47754,note_off,0,0,0,,2,,,50,127
47754,note_off,0,0,0,,5,,,53,127
47762,note_on,8,0,0,,10,,,57,127
47762,note_on,0,0,0,,5,,,53,127
47762,note_on,0,0,0,,2,,,50,127
47864,note_off,102,0,0,,5,,,77,127
47872,note_on,8,0,0,,5,,,65,127
47981,note_off,109,0,0,,5,,,65,127
47981,note_off,0,0,0,,2,,,50,127
47981,note_off,0,0,0,,5,,,53,127
47981,note_off,0,0,0,,10,,,57,127
47982,note_on,1,0,0,,10,,,69,127
47982,note_on,0,0,0,,2,,,50,127
47982,note_on,0,0,0,,10,,,57,127
47982,note_on,0,0,0,,5,,,53,127
48091,note_off,109,0,0,,10,,,69,127
48092,note_on,1,0,0,,5,,,65,127
48201,note_off,109,0,0,,5,,,65,127
48201,note_off,0,0,0,,5,,,53,127
48201,note_off,0,0,0,,10,,,57,127
48201,note_off,0,0,0,,2,,,50,127
48202,note_on,1,0,0,,2,,,74,127
48202,note_on,0,0,0,,10,,,57,127
48202,note_on,0,0,0,,2,,,50,127
48202,note_on,0,0,0,,5,,,53,127
48311,note_off,109,0,0,,2,,,74,127
48312,note_on,1,0,0,,5,,,65,127
48421,note_off,109,0,0,,5,,,65,127
48421,note_off,0,0,0,,5,,,53,127
48421,note_off,0,0,0,,2,,,50,127
48421,note_off,0,0,0,,10,,,57,127
48422,note_on,1,0,0,,5,,,77,127
48422,note_on,0,0,0,,10,,,57,127
48422,note_on,0,0,0,,2,,,50,127
48422,note_on,0,0,0,,5,,,53,127
48532,note_on,110,0,0,,5,,,65,127
48639,note_off,107,0,0,,5,,,77,127
48640,note_off,1,0,0,,5,,,65,127
48640,note_off,0,0,0,,5,,,53,127
48640,note_off,0,0,0,,2,,,50,127
48640,note_off,0,0,0,,10,,,57,127
48641,note_on,1,0,0,,10,,,69,127
48641,note_on,0,0,0,,2,,,50,127
48641,note_on,0,0,0,,5,,,53,127
48641,note_on,0,0,0,,10,,,57,127
48750,note_off,109,0,0,,10,,,69,127
48751,note_on,1,0,0,,5,,,65,127
48860,note_off,109,0,0,,5,,,65,127
48860,note_off,0,0,0,,10,,,57,127
48860,note_off,0,0,0,,5,,,53,127
48860,note_off,0,0,0,,2,,,50,127
48861,note_on,1,0,0,,2,,,74,127
48861,note_on,0,0,0,,5,,,53,127
48861,note_on,0,0,0,,10,,,57,127
48861,note_on,0,0,0,,2,,,50,127
48970,note_off,109,0,0,,2,,,74,127
48971,note_on,1,0,0,,5,,,65,127
49080,note_off,109,0,0,,5,,,65,127
49080,note_off,0,0,0,,2,,,50,127
49080,note_off,0,0,0,,10,,,57,127
49080,note_off,0,0,0,,5,,,53,127
49081,note_on,1,0,0,,5,,,77,127
49081,note_on,0,0,0,,10,,,57,127
49081,note_on,0,0,0,,5,,,53,127
49081,note_on,0,0,0,,0,,,48,127
49191,note_on,110,0,0,,5,,,65,127
49298,note_off,107,0,0,,5,,,77,127
49299,note_off,1,0,0,,5,,,65,127
49299,note_off,0,0,0,,0,,,48,127
49299,note_off,0,0,0,,5,,,53,127
49299,note_off,0,0,0,,10,,,57,127
49300,note_on,1,0,0,,2,,,74,127
49300,note_on,0,0,0,,5,,,53,127
49300,note_on,0,0,0,,10,,,57,127
49300,note_on,0,0,0,,0,,,48,127
49409,note_off,109,0,0,,2,,,74,127
49410,note_on,1,0,0,,5,,,65,127
49519,note_off,109,0,0,,5,,,65,127
49519,note_off,0,0,0,,0,,,48,127
49519,note_off,0,0,0,,10,,,57,127
49519,note_off,0,0,0,,5,,,53,127
49520,note_on,1,0,0,,5,,,77,127
49520,note_on,0,0,0,,10,,,57,127
49520,note_on,0,0,0,,5,,,53,127
49520,note_on,0,0,0,,0,,,48,127
49630,note_on,110,0,0,,5,,,65,127
49737,note_off,107,0,0,,5,,,77,127
49738,note_off,1,0,0,,5,,,65,127
49738,note_off,0,0,0,,0,,,48,127
49738,note_off,0,0,0,,5,,,53,127
49738,note_off,0,0,0,,10,,,57,127
49739,note_on,1,0,0,,5,,,77,127
49739,note_on,0,0,0,,11,,,46,127
49739,note_on,0,0,0,,2,,,50,127
49739,note_on,0,0,0,,10,,,57,127
49849,note_on,110,0,0,,7,,,67,127
49876,note_off,27,0,0,,5,,,77,127
49957,note_off,81,0,0,,10,,,57,127
49957,note_off,0,0,0,,2,,,50,127
49957,note_off,0,0,0,,11,,,46,127
49958,note_on,1,0,0,,5,,,77,127
49958,note_on,0,0,0,,2,,,50,127
49958,note_on,0,0,0,,7,,,55,127
49958,note_on,0,0,0,,11,,,46,127
49985,note_off,27,0,0,,7,,,67,127
50067,note_on,82,0,0,,7,,,67,127
50094,note_off,27,0,0,,5,,,77,127
50175,note_off,81,0,0,,11,,,46,127
50175,note_off,0,0,0,,7,,,55,127
50175,note_off,0,0,0,,2,,,50,127
50176,note_on,1,0,0,,4,,,76,127
50176,note_on,0,0,0,,11,,,46,127
50176,note_on,0,0,0,,2,,,50,127
50176,note_on,0,0,0,,7,,,55,127
50203,note_off,27,0,0,,7,,,67,127
50285,note_on,82,0,0,,7,,,67,127
50312,note_off,27,0,0,,4,,,76,127
50393,note_off,81,0,0,,7,,,55,127
50393,note_off,0,0,0,,2,,,50,127
50393,note_off,0,0,0,,11,,,46,127
50394,note_on,1,0,0,,2,,,74,127
50394,note_on,0,0,0,,2,,,50,127
50394,note_on,0,0,0,,7,,,55,127
50394,note_on,0,0,0,,11,,,46,127
50421,note_off,27,0,0,,7,,,67,127
50503,note_on,82,0,0,,7,,,67,127
50530,note_off,27,0,0,,2,,,74,127
50611,note_off,81,0,0,,11,,,46,127
50611,note_off,0,0,0,,7,,,55,127
50611,note_off,0,0,0,,2,,,50,127
50612,note_on,1,0,0,,1,,,73,127
50612,note_on,0,0,0,,11,,,46,127
50612,note_on,0,0,0,,2,,,50,127
50612,note_on,0,0,0,,7,,,55,127
50639,note_off,27,0,0,,7,,,67,127
50721,note_on,82,0,0,,7,,,67,127
50748,note_off,27,0,0,,1,,,73,127
50829,note_off,81,0,0,,7,,,55,127
50829,note_off,0,0,0,,2,,,50,127
50829,note_off,0,0,0,,11,,,46,127
50830,note_on,1,0,0,,2,,,74,127
50830,note_on,0,0,0,,11,,,46,127
50830,note_on,0,0,0,,2,,,50,127
50830,note_on,0,0,0,,7,,,55,127
50857,note_off,27,0,0,,7,,,67,127
50939,note_on,82,0,0,,7,,,67,127
50966,note_off,27,0,0,,2,,,74,127
51047,note_off,81,0,0,,7,,,55,127
51047,note_off,0,0,0,,2,,,50,127
51047,note_off,0,0,0,,11,,,46,127
51048,note_on,1,0,0,,1,,,73,127
51048,note_on,0,0,0,,4,,,76,127
51048,note_on,0,0,0,,10,,,57,127
51048,note_on,0,0,0,,4,,,52,127
51048,note_on,0,0,0,,10,,,45,127
51075,note_off,27,0,0,,7,,,67,127
51156,note_off,81,0,0,,1,,,73,127
51157,note_on,1,0,0,,10,,,69,127
51212,note_off,55,0,0,,4,,,76,127
51266,note_off,54,0,0,,10,,,45,127
51266,note_off,0,0,0,,4,,,52,127
51266,note_off,0,0,0,,10,,,57,127
51267,note_on,1,0,0,,2,,,74,127
51267,note_on,0,0,0,,5,,,77,127
51267,note_on,0,0,0,,10,,,57,127
51267,note_on,0,0,0,,4,,,52,127
51267,note_on,0,0,0,,10,,,45,127
51294,note_off,27,0,0,,10,,,69,127
51375,note_off,81,0,0,,2,,,74,127
51376,note_on,1,0,0,,10,,,69,127
51431,note_off,55,0,0,,5,,,77,127
51485,note_off,54,0,0,,10,,,45,127
51485,note_off,0,0,0,,4,,,52,127
51485,note_off,0,0,0,,10,,,57,127
51486,note_on,1,0,0,,1,,,73,127
51486,note_on,0,0,0,,4,,,76,127
51486,note_on,0,0,0,,4,,,52,127
51486,note_on,0,0,0,,10,,,57,127
51486,note_on,0,0,0,,10,,,45,127
51513,note_off,27,0,0,,10,,,69,127
51594,note_off,81,0,0,,1,,,73,127
51595,note_on,1,0,0,,10,,,69,127
51650,note_off,55,0,0,,4,,,76,127
51704,note_off,54,0,0,,10,,,45,127
51704,note_off,0,0,0,,10,,,57,127
51704,note_off,0,0,0,,4,,,52,127
51705,note_on,1,0,0,,11,,,70,127
51705,note_on,0,0,0,,2,,,74,127
51705,note_on,0,0,0,,10,,,57,127
51705,note_on,0,0,0,,11,,,46,127
51705,note_on,0,0,0,,2,,,50,127
51705,note_on,0,0,0,,7,,,55,127
51732,note_off,27,0,0,,10,,,69,127
51813,note_off,81,0,0,,11,,,70,127
51814,note_on,1,0,0,,7,,,67,127
51869,note_off,55,0,0,,2,,,74,127
51923,note_off,54,0,0,,7,,,55,127
51923,note_off,0,0,0,,2,,,50,127
51923,note_off,0,0,0,,11,,,46,127
51923,note_off,0,0,0,,10,,,57,127
51924,note_on,1,0,0,,11,,,70,127
51924,note_on,0,0,0,,1,,,73,127
51924,note_on,0,0,0,,7,,,55,127
51924,note_on,0,0,0,,10,,,57,127
51924,note_on,0,0,0,,11,,,46,127
51924,note_on,0,0,0,,2,,,50,127
51951,note_off,27,0,0,,7,,,67,127
52032,note_off,81,0,0,,11,,,70,127
52033,note_on,1,0,0,,7,,,67,127
52088,note_off,55,0,0,,1,,,73,127
52142,note_off,54,0,0,,2,,,50,127
52142,note_off,0,0,0,,11,,,46,127
52142,note_off,0,0,0,,10,,,57,127
52142,note_off,0,0,0,,7,,,55,127
52143,note_on,1,0,0,,11,,,70,127
52143,note_on,0,0,0,,2,,,74,127
52143,note_on,0,0,0,,10,,,57,127
52143,note_on,0,0,0,,2,,,50,127
52143,note_on,0,0,0,,7,,,55,127
52143,note_on,0,0,0,,11,,,46,127
52170,note_off,27,0,0,,7,,,67,127
52251,note_off,81,0,0,,11,,,70,127
52252,note_on,1,0,0,,7,,,67,127
52307,note_off,55,0,0,,2,,,74,127
52361,note_off,54,0,0,,11,,,46,127
52361,note_off,0,0,0,,7,,,55,127
52361,note_off,0,0,0,,2,,,50,127
52361,note_off,0,0,0,,10,,,57,127
52362,note_on,1,0,0,,1,,,73,127
52362,note_on,0,0,0,,4,,,76,127
52362,note_on,0,0,0,,7,,,55,127
52362,note_on,0,0,0,,10,,,57,127
52362,note_on,0,0,0,,4,,,52,127
52362,note_on,0,0,0,,10,,,45,127
52389,note_off,27,0,0,,7,,,67,127
52471,note_on,82,0,0,,10,,,69,127
52526,note_off,55,0,0,,4,,,76,127
52526,note_off,0,0,0,,1,,,73,127
52580,note_off,54,0,0,,10,,,45,127
52580,note_off,0,0,0,,4,,,52,127
52580,note_off,0,0,0,,10,,,57,127
52580,note_off,0,0,0,,7,,,55,127
52581,note_on,1,0,0,,2,,,74,127
52581,note_on,0,0,0,,5,,,77,127
52581,note_on,0,0,0,,7,,,55,127
52581,note_on,0,0,0,,10,,,57,127
52581,note_on,0,0,0,,4,,,52,127
52581,note_on,0,0,0,,10,,,45,127
52636,note_off,55,0,0,,10,,,69,127
52691,note_on,55,0,0,,10,,,69,127
52746,note_off,55,0,0,,5,,,77,127
52746,note_off,0,0,0,,2,,,74,127
52800,note_off,54,0,0,,10,,,45,127
52800,note_off,0,0,0,,4,,,52,127
52800,note_off,0,0,0,,10,,,57,127
52800,note_off,0,0,0,,7,,,55,127
52801,note_on,1,0,0,,4,,,76,127
52801,note_on,0,0,0,,1,,,73,127
52801,note_on,0,0,0,,7,,,55,127
52801,note_on,0,0,0,,10,,,57,127
52801,note_on,0,0,0,,4,,,52,127
52801,note_on,0,0,0,,10,,,45,127
52856,note_off,55,0,0,,10,,,69,127
52911,note_on,55,0,0,,10,,,69,127
52966,note_off,55,0,0,,1,,,73,127
52966,note_off,0,0,0,,4,,,76,127
53020,note_off,54,0,0,,10,,,45,127
53020,note_off,0,0,0,,4,,,52,127
53020,note_off,0,0,0,,10,,,57,127
53020,note_off,0,0,0,,7,,,55,127
53021,note_on,1,0,0,,2,,,74,127
53021,note_on,0,0,0,,11,,,70,127
53021,note_on,0,0,0,,7,,,55,127
53021,note_on,0,0,0,,10,,,57,127
53021,note_on,0,0,0,,7,,,43,127
53021,note_on,0,0,0,,2,,,50,127
53076,note_off,55,0,0,,10,,,69,127
53131,note_on,55,0,0,,7,,,67,127
53186,note_off,55,0,0,,11,,,70,127
53186,note_off,0,0,0,,2,,,74,127
53240,note_off,54,0,0,,2,,,50,127
53240,note_off,0,0,0,,7,,,43,127
53240,note_off,0,0,0,,10,,,57,127
53240,note_off,0,0,0,,7,,,55,127
53241,note_on,1,0,0,,1,,,73,127
53241,note_on,0,0,0,,11,,,70,127
53241,note_on,0,0,0,,7,,,55,127
53241,note_on,0,0,0,,10,,,57,127
53241,note_on,0,0,0,,2,,,50,127
53241,note_on,0,0,0,,7,,,43,127
53296,note_off,55,0,0,,7,,,67,127
53351,note_on,55,0,0,,7,,,67,127
53406,note_off,55,0,0,,11,,,70,127
53406,note_off,0,0,0,,1,,,73,127
53460,note_off,54,0,0,,7,,,43,127
53460,note_off,0,0,0,,2,,,50,127
53460,note_off,0,0,0,,10,,,57,127
53460,note_off,0,0,0,,7,,,55,127
53461,note_on,1,0,0,,11,,,70,127
53461,note_on,0,0,0,,2,,,74,127
53461,note_on,0,0,0,,7,,,55,127
53461,note_on,0,0,0,,10,,,57,127
53461,note_on,0,0,0,,2,,,50,127
53461,note_on,0,0,0,,7,,,43,127
53516,note_off,55,0,0,,7,,,67,127
53571,note_on,55,0,0,,7,,,67,127
53626,note_off,55,0,0,,2,,,74,127
53626,note_off,0,0,0,,11,,,70,127
53680,note_off,54,0,0,,7,,,43,127
53680,note_off,0,0,0,,2,,,50,127
53680,note_off,0,0,0,,10,,,57,127
53680,note_off,0,0,0,,7,,,55,127
53686,note_on,6,0,0,,4,,,52,127
53686,note_on,0,0,0,,10,,,45,127
53686,note_on,0,0,0,,10,,,57,127
53686,note_on,0,0,0,,7,,,55,127
53686,note_on,0,0,0,,4,,,76,127
53686,note_on,0,0,0,,1,,,73,127
53736,note_off,50,0,0,,7,,,67,127
53794,note_off,58,0,0,,1,,,73,127
53794,note_off,0,0,0,,4,,,76,127
53795,note_on,1,0,0,,10,,,69,127
53904,note_off,109,0,0,,7,,,55,127
53904,note_off,0,0,0,,10,,,57,127
53904,note_off,0,0,0,,10,,,45,127
53904,note_off,0,0,0,,4,,,52,127
53905,note_on,1,0,0,,4,,,52,127
53905,note_on,0,0,0,,10,,,45,127
53905,note_on,0,0,0,,10,,,57,127
53905,note_on,0,0,0,,7,,,55,127
53905,note_on,0,0,0,,5,,,77,127
53905,note_on,0,0,0,,2,,,74,127
54012,note_off,107,0,0,,10,,,69,127
54013,note_off,1,0,0,,2,,,74,127
54013,note_off,0,0,0,,5,,,77,127
54014,note_on,1,0,0,,10,,,69,127
54123,note_off,109,0,0,,7,,,55,127
54123,note_off,0,0,0,,10,,,57,127
54123,note_off,0,0,0,,10,,,45,127
54123,note_off,0,0,0,,4,,,52,127
54124,note_on,1,0,0,,10,,,45,127
54124,note_on,0,0,0,,4,,,52,127
54124,note_on,0,0,0,,7,,,55,127
54124,note_on,0,0,0,,10,,,57,127
54124,note_on,0,0,0,,1,,,73,127
54124,note_on,0,0,0,,4,,,76,127
54231,note_off,107,0,0,,10,,,69,127
54232,note_off,1,0,0,,4,,,76,127
54232,note_off,0,0,0,,1,,,73,127
54233,note_on,1,0,0,,10,,,69,127
54342,note_off,109,0,0,,10,,,57,127
54342,note_off,0,0,0,,7,,,55,127
54342,note_off,0,0,0,,4,,,52,127
54342,note_off,0,0,0,,10,,,45,127
54343,note_on,1,0,0,,11,,,46,127
54343,note_on,0,0,0,,2,,,50,127
54343,note_on,0,0,0,,10,,,57,127
54343,note_on,0,0,0,,7,,,55,127
54343,note_on,0,0,0,,11,,,70,127
54343,note_on,0,0,0,,2,,,74,127
54398,note_off,55,0,0,,10,,,69,127
54452,note_off,54,0,0,,2,,,74,127
54452,note_off,0,0,0,,11,,,70,127
54453,note_on,1,0,0,,7,,,67,127
54562,note_off,109,0,0,,7,,,55,127
54562,note_off,0,0,0,,10,,,57,127
54562,note_off,0,0,0,,2,,,50,127
54562,note_off,0,0,0,,11,,,46,127
54563,note_on,1,0,0,,11,,,46,127
54563,note_on,0,0,0,,2,,,50,127
54563,note_on,0,0,0,,7,,,55,127
54563,note_on,0,0,0,,10,,,57,127
54563,note_on,0,0,0,,11,,,70,127
54563,note_on,0,0,0,,1,,,73,127
54670,note_off,107,0,0,,7,,,67,127
54671,note_off,1,0,0,,1,,,73,127
54671,note_off,0,0,0,,11,,,70,127
54672,note_on,1,0,0,,7,,,67,127
54781,note_off,109,0,0,,10,,,57,127
54781,note_off,0,0,0,,7,,,55,127
54781,note_off,0,0,0,,2,,,50,127
54781,note_off,0,0,0,,11,,,46,127
54782,note_on,1,0,0,,11,,,46,127
54782,note_on,0,0,0,,2,,,50,127
54782,note_on,0,0,0,,10,,,57,127
54782,note_on,0,0,0,,7,,,55,127
54782,note_on,0,0,0,,2,,,74,127
54782,note_on,0,0,0,,11,,,70,127
54889,note_off,107,0,0,,7,,,67,127
54890,note_off,1,0,0,,11,,,70,127
54890,note_off,0,0,0,,2,,,74,127
54891,note_on,1,0,0,,7,,,67,127
55000,note_off,109,0,0,,7,,,67,127
55000,note_off,0,0,0,,7,,,55,127
55000,note_off,0,0,0,,10,,,57,127
55000,note_off,0,0,0,,2,,,50,127
55000,note_off,0,0,0,,11,,,46,127
55001,note_on,1,0,0,,10,,,45,127
55001,note_on,0,0,0,,10,,,57,127
55001,note_on,0,0,0,,4,,,52,127
55001,note_on,0,0,0,,4,,,76,127
55110,note_off,109,0,0,,4,,,76,127
55111,note_on,1,0,0,,5,,,77,127
55220,note_off,109,0,0,,5,,,77,127
55221,note_on,1,0,0,,4,,,76,127
55330,note_off,109,0,0,,4,,,76,127
55331,note_on,1,0,0,,2,,,74,127
55440,note_off,109,0,0,,2,,,74,127
55441,note_on,1,0,0,,1,,,73,127
55550,note_off,109,0,0,,1,,,73,127
55551,note_on,1,0,0,,12,,,71,127
55660,note_off,109,0,0,,12,,,71,127
55660,note_off,0,0,0,,4,,,52,127
55660,note_off,0,0,0,,10,,,45,127
55661,note_on,1,0,0,,10,,,69,127
55723,note_off,62,0,0,,10,,,57,127
55770,note_off,47,0,0,,10,,,69,127
55771,note_on,1,0,0,,12,,,71,127
55880,note_off,109,0,0,,12,,,71,127
55881,note_on,1,0,0,,1,,,73,127
55990,note_off,109,0,0,,1,,,73,127
55991,note_on,1,0,0,,2,,,74,127
56100,note_off,109,0,0,,2,,,74,127
56101,note_on,1,0,0,,4,,,76,127
56210,note_off,109,0,0,,4,,,76,127
56211,note_on,1,0,0,,6,,,78,127
56320,note_off,109,0,0,,6,,,78,127
56321,note_on,1,0,0,,10,,,57,127
56321,note_on,0,0,0,,4,,,76,127
56430,note_off,109,0,0,,10,,,57,127
56431,note_on,1,0,0,,12,,,59,127
56540,note_off,109,0,0,,12,,,59,127
56541,note_on,1,0,0,,1,,,61,127
56650,note_off,109,0,0,,1,,,61,127
56651,note_on,1,0,0,,2,,,62,127
56760,note_off,109,0,0,,2,,,62,127
56761,note_on,1,0,0,,4,,,64,127
56870,note_off,109,0,0,,4,,,64,127
56871,note_on,1,0,0,,6,,,66,127
56980,note_off,109,0,0,,6,,,66,127
56981,note_on,1,0,0,,4,,,64,127
57054,note_off,73,0,0,,4,,,76,127
57091,note_on,37,0,0,,6,,,78,127
57200,note_off,109,0,0,,6,,,78,127
57200,note_off,0,0,0,,4,,,64,127
57201,note_on,1,0,0,,6,,,66,127
57201,note_on,0,0,0,,4,,,76,127
57310,note_off,109,0,0,,4,,,76,127
57311,note_on,1,0,0,,2,,,74,127
57420,note_off,109,0,0,,2,,,74,127
57420,note_off,0,0,0,,6,,,66,127
57421,note_on,1,0,0,,8,,,68,127
57421,note_on,0,0,0,,1,,,73,127
57530,note_off,109,0,0,,1,,,73,127
57531,note_on,1,0,0,,12,,,71,127
57640,note_off,109,0,0,,12,,,71,127
57640,note_off,0,0,0,,8,,,68,127
57641,note_on,1,0,0,,10,,,69,127
57641,note_on,0,0,0,,1,,,73,127
57750,note_off,109,0,0,,10,,,69,127
57751,note_on,1,0,0,,7,,,67,127
57860,note_off,109,0,0,,7,,,67,127
57860,note_off,0,0,0,,1,,,73,127
57861,note_on,1,0,0,,6,,,66,127
57861,note_on,0,0,0,,2,,,74,127
57970,note_off,109,0,0,,6,,,66,127
57971,note_on,1,0,0,,4,,,64,127
58080,note_off,109,0,0,,4,,,64,127
58080,note_off,0,0,0,,2,,,74,127
58081,note_on,1,0,0,,2,,,62,127
58081,note_on,0,0,0,,4,,,76,127
58190,note_off,109,0,0,,2,,,62,127
58191,note_on,1,0,0,,1,,,61,127
58264,note_off,73,0,0,,4,,,76,127
58299,note_off,35,0,0,,1,,,61,127
58305,note_on,6,0,0,,2,,,74,127
58305,note_on,0,0,0,,2,,,62,127
58414,note_off,109,0,0,,2,,,74,127
58415,note_on,1,0,0,,4,,,76,127
58524,note_off,109,0,0,,4,,,76,127
58525,note_on,1,0,0,,6,,,78,127
58634,note_off,109,0,0,,6,,,78,127
58635,note_on,1,0,0,,7,,,79,127
58744,note_off,109,0,0,,7,,,79,127
58745,note_on,1,0,0,,10,,,81,127
58854,note_off,109,0,0,,10,,,81,127
58855,note_on,1,0,0,,12,,,83,127
58964,note_off,109,0,0,,12,,,83,127
58965,note_on,1,0,0,,10,,,81,127
59074,note_off,109,0,0,,2,,,62,127
59075,note_on,1,0,0,,4,,,64,127
59184,note_off,109,0,0,,4,,,64,127
59185,note_on,1,0,0,,6,,,66,127
59294,note_off,109,0,0,,6,,,66,127
59295,note_on,1,0,0,,7,,,67,127
59404,note_off,109,0,0,,7,,,67,127
59405,note_on,1,0,0,,10,,,69,127
59514,note_off,109,0,0,,10,,,69,127
59515,note_on,1,0,0,,12,,,71,127
59624,note_off,109,0,0,,12,,,71,127
59625,note_on,1,0,0,,10,,,69,127
59698,note_off,73,0,0,,10,,,81,127
59735,note_on,37,0,0,,12,,,83,127
59844,note_off,109,0,0,,12,,,83,127
59844,note_off,0,0,0,,10,,,69,127
59845,note_on,1,0,0,,10,,,81,127
59845,note_on,0,0,0,,12,,,71,127
59954,note_off,109,0,0,,10,,,81,127
59955,note_on,1,0,0,,7,,,79,127
60064,note_off,109,0,0,,7,,,79,127
60064,note_off,0,0,0,,12,,,71,127
60065,note_on,1,0,0,,6,,,78,127
60065,note_on,0,0,0,,1,,,73,127
60174,note_off,109,0,0,,6,,,78,127
60175,note_on,1,0,0,,4,,,76,127
60260,note_off,85,0,0,,1,,,73,127
60284,note_off,24,0,0,,4,,,76,127
60285,note_on,1,0,0,,6,,,78,127
60285,note_on,0,0,0,,2,,,74,127
60395,note_on,110,0,0,,2,,,86,127
60422,note_off,27,0,0,,6,,,78,127
60503,note_off,81,0,0,,2,,,74,127
60504,note_on,1,0,0,,4,,,76,127
60504,note_on,0,0,0,,10,,,69,127
60554,note_off,50,0,0,,2,,,86,127
60613,note_on,59,0,0,,1,,,85,127
60640,note_off,27,0,0,,4,,,76,127
60721,note_off,81,0,0,,10,,,69,127
60722,note_on,1,0,0,,2,,,74,127
60722,note_on,0,0,0,,12,,,71,127
60772,note_off,50,0,0,,1,,,85,127
60831,note_on,59,0,0,,12,,,83,127
60858,note_off,27,0,0,,2,,,74,127
60939,note_off,81,0,0,,12,,,71,127
60940,note_on,1,0,0,,1,,,73,127
60940,note_on,0,0,0,,6,,,66,127
60990,note_off,50,0,0,,12,,,83,127
61049,note_on,59,0,0,,10,,,81,127
61076,note_off,27,0,0,,1,,,73,127
61157,note_off,81,0,0,,6,,,66,127
61158,note_on,1,0,0,,12,,,71,127
61158,note_on,0,0,0,,7,,,67,127
61208,note_off,50,0,0,,10,,,81,127
61267,note_on,59,0,0,,7,,,79,127
61294,note_off,27,0,0,,12,,,71,127
61375,note_off,81,0,0,,7,,,67,127
61376,note_on,1,0,0,,10,,,69,127
61376,note_on,0,0,0,,2,,,62,127
61426,note_off,50,0,0,,7,,,79,127
61485,note_on,59,0,0,,6,,,78,127
61512,note_off,27,0,0,,10,,,69,127
61593,note_off,81,0,0,,6,,,78,127
61593,note_off,0,0,0,,2,,,62,127
61594,note_on,1,0,0,,7,,,79,127
61594,note_on,0,0,0,,4,,,64,127
61703,note_off,109,0,0,,4,,,64,127
61704,note_on,1,0,0,,1,,,73,127
61813,note_off,109,0,0,,1,,,73,127
61813,note_off,0,0,0,,7,,,79,127
61814,note_on,1,0,0,,6,,,78,127
61814,note_on,0,0,0,,2,,,62,127
61923,note_off,109,0,0,,2,,,62,127
61924,note_on,1,0,0,,12,,,71,127
62033,note_off,109,0,0,,12,,,71,127
62033,note_off,0,0,0,,6,,,78,127
62034,note_on,1,0,0,,4,,,76,127
62034,note_on,0,0,0,,1,,,61,127
62143,note_off,109,0,0,,1,,,61,127
62144,note_on,1,0,0,,10,,,69,127
62253,note_off,109,0,0,,10,,,69,127
62253,note_off,0,0,0,,4,,,76,127
62254,note_on,1,0,0,,2,,,74,127
62254,note_on,0,0,0,,12,,,59,127
62363,note_off,109,0,0,,12,,,59,127
62364,note_on,1,0,0,,7,,,67,127
62473,note_off,109,0,0,,7,,,67,127
62473,note_off,0,0,0,,2,,,74,127
62474,note_on,1,0,0,,1,,,73,127
62474,note_on,0,0,0,,10,,,57,127
62583,note_off,109,0,0,,10,,,57,127
62584,note_on,1,0,0,,6,,,66,127
62693,note_off,109,0,0,,6,,,66,127
62693,note_off,0,0,0,,1,,,73,127
62694,note_on,1,0,0,,12,,,71,127
62694,note_on,0,0,0,,7,,,55,127
62803,note_off,109,0,0,,7,,,55,127
62804,note_on,1,0,0,,4,,,64,127
62913,note_off,109,0,0,,4,,,64,127
62913,note_off,0,0,0,,12,,,71,127
62914,note_on,1,0,0,,10,,,69,127
62914,note_on,0,0,0,,6,,,54,127
63023,note_off,109,0,0,,6,,,54,127
63024,note_on,1,0,0,,2,,,62,127
63133,note_off,109,0,0,,2,,,62,127
63133,note_off,0,0,0,,10,,,69,127
63134,note_on,1,0,0,,7,,,67,127
63134,note_on,0,0,0,,4,,,52,127
63243,note_off,109,0,0,,4,,,52,127
63244,note_on,1,0,0,,1,,,61,127
63353,note_off,109,0,0,,1,,,61,127
63353,note_off,0,0,0,,7,,,67,127
63354,note_on,1,0,0,,6,,,66,127
63354,note_on,0,0,0,,2,,,50,127
63463,note_off,109,0,0,,2,,,50,127
63464,note_on,1,0,0,,12,,,59,127
63573,note_off,109,0,0,,12,,,59,127
63573,note_off,0,0,0,,6,,,66,127
63574,note_on,1,0,0,,4,,,64,127
63574,note_on,0,0,0,,1,,,49,127
63683,note_off,109,0,0,,1,,,49,127
63684,note_on,1,0,0,,10,,,57,127
63793,note_off,109,0,0,,10,,,57,127
63793,note_off,0,0,0,,4,,,64,127
63794,note_on,1,0,0,,4,,,64,127
63794,note_on,0,0,0,,12,,,47,127
63848,note_off,54,0,0,,4,,,64,127
63849,note_on,1,0,0,,2,,,62,127
63903,note_off,54,0,0,,2,,,62,127
63904,note_on,1,0,0,,4,,,64,127
63958,note_off,54,0,0,,4,,,64,127
63959,note_on,1,0,0,,2,,,62,127
64013,note_off,54,0,0,,2,,,62,127
64013,note_off,0,0,0,,12,,,47,127
64014,note_on,1,0,0,,4,,,64,127
64014,note_on,0,0,0,,8,,,56,127
64068,note_off,54,0,0,,4,,,64,127
64069,note_on,1,0,0,,2,,,62,127
64123,note_off,54,0,0,,2,,,62,127
64124,note_on,1,0,0,,1,,,61,127
64178,note_off,54,0,0,,1,,,61,127
64179,note_on,1,0,0,,2,,,62,127
64233,note_off,54,0,0,,2,,,62,127
64233,note_off,0,0,0,,8,,,56,127
64234,note_on,1,0,0,,10,,,45,127
64235,note_on,1,0,0,,2,,,62,127
64518,note_on,283,0,0,,4,,,64,127
64532,note_off,14,0,0,,2,,,62,127
64838,note_off,306,0,0,,4,,,64,127
65056,note_off,218,0,0,,10,,,45,127
65074,note_on,18,0,0,,2,,,62,127
65074,note_on,0,0,0,,1,,,61,127
65074,note_on,0,0,0,,10,,,57,127
65074,note_on,0,0,0,,7,,,67,127
65128,note_off,54,0,0,,7,,,67,127
65129,note_on,1,0,0,,5,,,65,127
65183,note_off,54,0,0,,5,,,65,127
65184,note_on,1,0,0,,4,,,64,127
65293,note_off,109,0,0,,10,,,57,127
65293,note_off,0,0,0,,1,,,61,127
65293,note_off,0,0,0,,2,,,62,127
65294,note_on,1,0,0,,10,,,57,127
65294,note_on,0,0,0,,1,,,61,127
65294,note_on,0,0,0,,2,,,62,127
65512,note_off,218,0,0,,2,,,62,127
65512,note_off,0,0,0,,1,,,61,127
65512,note_off,0,0,0,,10,,,57,127
65513,note_on,1,0,0,,1,,,61,127
65513,note_on,0,0,0,,2,,,62,127
65513,note_on,0,0,0,,10,,,57,127
65731,note_off,218,0,0,,10,,,57,127
65731,note_off,0,0,0,,2,,,62,127
65731,note_off,0,0,0,,1,,,61,127
65731,note_off,0,0,0,,4,,,64,127
65732,note_on,1,0,0,,2,,,62,127
65732,note_on,0,0,0,,11,,,58,127
65732,note_on,0,0,0,,7,,,55,127
65732,note_on,0,0,0,,7,,,67,127
65786,note_off,54,0,0,,7,,,67,127
65787,note_on,1,0,0,,5,,,65,127
65841,note_off,54,0,0,,5,,,65,127
65842,note_on,1,0,0,,4,,,64,127
65951,note_off,109,0,0,,7,,,55,127
65951,note_off,0,0,0,,11,,,58,127
65951,note_off,0,0,0,,2,,,62,127
65952,note_on,1,0,0,,11,,,58,127
65952,note_on,0,0,0,,2,,,62,127
65952,note_on,0,0,0,,7,,,55,127
66170,note_off,218,0,0,,7,,,55,127
66170,note_off,0,0,0,,2,,,62,127
66170,note_off,0,0,0,,11,,,58,127
66171,note_on,1,0,0,,2,,,62,127
66171,note_on,0,0,0,,11,,,58,127
66171,note_on,0,0,0,,7,,,55,127
66389,note_off,218,0,0,,7,,,55,127
66389,note_off,0,0,0,,11,,,58,127
66389,note_off,0,0,0,,2,,,62,127
66389,note_off,0,0,0,,4,,,64,127
66390,note_on,1,0,0,,1,,,61,127
66390,note_on,0,0,0,,10,,,57,127
66390,note_on,0,0,0,,2,,,62,127
66390,note_on,0,0,0,,7,,,67,127
66444,note_off,54,0,0,,7,,,67,127
66445,note_on,1,0,0,,5,,,65,127
66499,note_off,54,0,0,,5,,,65,127
66500,note_on,1,0,0,,4,,,64,127
66609,note_off,109,0,0,,2,,,62,127
66609,note_off,0,0,0,,10,,,57,127
66609,note_off,0,0,0,,1,,,61,127
66610,note_on,1,0,0,,10,,,57,127
66610,note_on,0,0,0,,2,,,62,127
66610,note_on,0,0,0,,1,,,61,127
66828,note_off,218,0,0,,1,,,61,127
66828,note_off,0,0,0,,2,,,62,127
66828,note_off,0,0,0,,10,,,57,127
66829,note_on,1,0,0,,1,,,61,127
66829,note_on,0,0,0,,10,,,57,127
66829,note_on,0,0,0,,2,,,62,127
67047,note_off,218,0,0,,2,,,62,127
67047,note_off,0,0,0,,10,,,57,127
67047,note_off,0,0,0,,1,,,61,127
67047,note_off,0,0,0,,4,,,64,127
67048,note_on,1,0,0,,11,,,58,127
67048,note_on,0,0,0,,7,,,55,127
67048,note_on,0,0,0,,4,,,64,127
67048,note_on,0,0,0,,2,,,62,127
67048,note_on,0,0,0,,4,,,76,127
67266,note_off,218,0,0,,4,,,76,127
67266,note_off,0,0,0,,2,,,62,127
67266,note_off,0,0,0,,4,,,64,127
67266,note_off,0,0,0,,7,,,55,127
67266,note_off,0,0,0,,11,,,58,127
67267,note_on,1,0,0,,11,,,58,127
67267,note_on,0,0,0,,2,,,62,127
67267,note_on,0,0,0,,7,,,55,127
67267,note_on,0,0,0,,4,,,64,127
67267,note_on,0,0,0,,11,,,70,127
67485,note_off,218,0,0,,11,,,70,127
67485,note_off,0,0,0,,4,,,64,127
67485,note_off,0,0,0,,7,,,55,127
67485,note_off,0,0,0,,2,,,62,127
67485,note_off,0,0,0,,11,,,58,127
67486,note_on,1,0,0,,7,,,55,127
67486,note_on,0,0,0,,2,,,62,127
67486,note_on,0,0,0,,11,,,58,127
67486,note_on,0,0,0,,4,,,64,127
67486,note_on,0,0,0,,10,,,69,127
67704,note_off,218,0,0,,10,,,69,127
67704,note_off,0,0,0,,4,,,64,127
67704,note_off,0,0,0,,11,,,58,127
67704,note_off,0,0,0,,2,,,62,127
67704,note_off,0,0,0,,7,,,55,127
67705,note_on,1,0,0,,10,,,57,127
67705,note_on,0,0,0,,2,,,62,127
67705,note_on,0,0,0,,1,,,61,127
67705,note_on,0,0,0,,7,,,67,127
67923,note_off,218,0,0,,7,,,67,127
67923,note_off,0,0,0,,1,,,61,127
67923,note_off,0,0,0,,2,,,62,127
67923,note_off,0,0,0,,10,,,57,127
67924,note_on,1,0,0,,1,,,61,127
67924,note_on,0,0,0,,10,,,57,127
67924,note_on,0,0,0,,2,,,62,127
67924,note_on,0,0,0,,5,,,65,127
68142,note_off,218,0,0,,5,,,65,127
68142,note_off,0,0,0,,2,,,62,127
68142,note_off,0,0,0,,10,,,57,127
68142,note_off,0,0,0,,1,,,61,127
68143,note_on,1,0,0,,10,,,57,127
68143,note_on,0,0,0,,2,,,62,127
68143,note_on,0,0,0,,1,,,61,127
68143,note_on,0,0,0,,4,,,64,127
68361,note_off,218,0,0,,4,,,64,127
68361,note_off,0,0,0,,1,,,61,127
68361,note_off,0,0,0,,2,,,62,127
68361,note_off,0,0,0,,10,,,57,127
68362,note_on,1,0,0,,2,,,62,127
68362,note_on,0,0,0,,4,,,64,127
68580,note_off,218,0,0,,4,,,64,127
68581,note_on,1,0,0,,6,,,66,127
68704,note_off,123,0,0,,2,,,62,127
68799,note_off,95,0,0,,6,,,66,127
68800,note_on,1,0,0,,4,,,64,127
68800,note_on,0,0,0,,0,,,60,127
68800,note_on,0,0,0,,7,,,67,127
69006,note_off,206,0,0,,0,,,60,127
69006,note_off,0,0,0,,4,,,64,127
69019,note_off,13,0,0,,7,,,67,127
69027,note_on,8,0,0,,10,,,69,127
69027,note_on,0,0,0,,4,,,64,127
69027,note_on,0,0,0,,12,,,59,127
69027,note_on,0,0,0,,3,,,63,127
69081,note_off,54,0,0,,10,,,69,127
69082,note_on,1,0,0,,7,,,67,127
69136,note_off,54,0,0,,7,,,67,127
69137,note_on,1,0,0,,6,,,66,127
69246,note_off,109,0,0,,3,,,63,127
69246,note_off,0,0,0,,12,,,59,127
69246,note_off,0,0,0,,4,,,64,127
69247,note_on,1,0,0,,4,,,64,127
69247,note_on,0,0,0,,12,,,59,127
69247,note_on,0,0,0,,3,,,63,127
69465,note_off,218,0,0,,3,,,63,127
69465,note_off,0,0,0,,12,,,59,127
69465,note_off,0,0,0,,4,,,64,127
69466,note_on,1,0,0,,4,,,64,127
69466,note_on,0,0,0,,12,,,59,127
69466,note_on,0,0,0,,3,,,63,127
69684,note_off,218,0,0,,3,,,63,127
69684,note_off,0,0,0,,12,,,59,127
69684,note_off,0,0,0,,4,,,64,127
69684,note_off,0,0,0,,6,,,66,127
69685,note_on,1,0,0,,10,,,69,127
69685,note_on,0,0,0,,0,,,60,127
69685,note_on,0,0,0,,4,,,64,127
69685,note_on,0,0,0,,10,,,57,127
69739,note_off,54,0,0,,10,,,69,127
69740,note_on,1,0,0,,7,,,67,127
69794,note_off,54,0,0,,7,,,67,127
69795,note_on,1,0,0,,6,,,66,127
69904,note_off,109,0,0,,10,,,57,127
69904,note_off,0,0,0,,4,,,64,127
69904,note_off,0,0,0,,0,,,60,127
69905,note_on,1,0,0,,4,,,64,127
69905,note_on,0,0,0,,10,,,57,127
69905,note_on,0,0,0,,0,,,60,127
70123,note_off,218,0,0,,0,,,60,127
70123,note_off,0,0,0,,10,,,57,127
70123,note_off,0,0,0,,4,,,64,127
70124,note_on,1,0,0,,0,,,60,127
70124,note_on,0,0,0,,4,,,64,127
70124,note_on,0,0,0,,10,,,57,127
70342,note_off,218,0,0,,10,,,57,127
70342,note_off,0,0,0,,4,,,64,127
70342,note_off,0,0,0,,0,,,60,127
70342,note_off,0,0,0,,6,,,66,127
70343,note_on,1,0,0,,10,,,69,127
70343,note_on,0,0,0,,4,,,64,127
70343,note_on,0,0,0,,12,,,59,127
70343,note_on,0,0,0,,3,,,63,127
70397,note_off,54,0,0,,10,,,69,127
70398,note_on,1,0,0,,7,,,67,127
70452,note_off,54,0,0,,7,,,67,127
70453,note_on,1,0,0,,6,,,66,127
70562,note_off,109,0,0,,3,,,63,127
70562,note_off,0,0,0,,12,,,59,127
70562,note_off,0,0,0,,4,,,64,127
70563,note_on,1,0,0,,4,,,64,127
70563,note_on,0,0,0,,12,,,59,127
70563,note_on,0,0,0,,3,,,63,127
70781,note_off,218,0,0,,3,,,63,127
70781,note_off,0,0,0,,12,,,59,127
70781,note_off,0,0,0,,4,,,64,127
70782,note_on,1,0,0,,4,,,64,127
70782,note_on,0,0,0,,12,,,59,127
70782,note_on,0,0,0,,3,,,63,127
71000,note_off,218,0,0,,3,,,63,127
71000,note_off,0,0,0,,12,,,59,127
71000,note_off,0,0,0,,4,,,64,127
71000,note_off,0,0,0,,6,,,66,127
71001,note_on,1,0,0,,6,,,78,127
71001,note_on,0,0,0,,10,,,57,127
71001,note_on,0,0,0,,3,,,63,127
71001,note_on,0,0,0,,4,,,64,127
71219,note_off,218,0,0,,4,,,64,127
71219,note_off,0,0,0,,3,,,63,127
71219,note_off,0,0,0,,10,,,57,127
71219,note_off,0,0,0,,6,,,78,127
71220,note_on,1,0,0,,0,,,72,127
71220,note_on,0,0,0,,4,,,64,127
71220,note_on,0,0,0,,10,,,57,127
71220,note_on,0,0,0,,3,,,63,127
71438,note_off,218,0,0,,3,,,63,127
71438,note_off,0,0,0,,10,,,57,127
71438,note_off,0,0,0,,4,,,64,127
71438,note_off,0,0,0,,0,,,72,127
71439,note_on,1,0,0,,12,,,71,127
71439,note_on,0,0,0,,10,,,57,127
71439,note_on,0,0,0,,3,,,63,127
71439,note_on,0,0,0,,4,,,64,127
71657,note_off,218,0,0,,4,,,64,127
71657,note_off,0,0,0,,3,,,63,127
71657,note_off,0,0,0,,10,,,57,127
71657,note_off,0,0,0,,12,,,71,127
71658,note_on,1,0,0,,10,,,69,127
71658,note_on,0,0,0,,12,,,59,127
71658,note_on,0,0,0,,3,,,63,127
71658,note_on,0,0,0,,4,,,64,127
71876,note_off,218,0,0,,4,,,64,127
71876,note_off,0,0,0,,3,,,63,127
71876,note_off,0,0,0,,12,,,59,127
71876,note_off,0,0,0,,10,,,69,127
71877,note_on,1,0,0,,7,,,67,127
71877,note_on,0,0,0,,4,,,64,127
71877,note_on,0,0,0,,12,,,59,127
71877,note_on,0,0,0,,3,,,63,127
72095,note_off,218,0,0,,3,,,63,127
72095,note_off,0,0,0,,12,,,59,127
72095,note_off,0,0,0,,4,,,64,127
72095,note_off,0,0,0,,7,,,67,127
72096,note_on,1,0,0,,6,,,66,127
72096,note_on,0,0,0,,12,,,59,127
72096,note_on,0,0,0,,3,,,63,127
72314,note_off,218,0,0,,3,,,63,127
72314,note_off,0,0,0,,12,,,59,127
72314,note_off,0,0,0,,6,,,66,127
72315,note_on,1,0,0,,8,,,68,127
72315,note_on,0,0,0,,4,,,64,127
72533,note_off,218,0,0,,8,,,68,127
72534,note_on,1,0,0,,12,,,71,127
72534,note_on,0,0,0,,8,,,68,127
72657,note_off,123,0,0,,4,,,64,127
72752,note_off,95,0,0,,8,,,68,127
72752,note_off,0,0,0,,12,,,71,127
72753,note_on,1,0,0,,0,,,72,127
72753,note_on,0,0,0,,4,,,64,127
72753,note_on,0,0,0,,10,,,69,127
72947,note_off,194,0,0,,10,,,69,127
72947,note_off,0,0,0,,4,,,64,127
72971,note_off,24,0,0,,0,,,72,127
72978,note_on,7,0,0,,8,,,68,127
72978,note_on,0,0,0,,4,,,64,127
72978,note_on,0,0,0,,10,,,69,127
72978,note_on,0,0,0,,2,,,74,127
73032,note_off,54,0,0,,2,,,74,127
73033,note_on,1,0,0,,0,,,72,127
73087,note_off,54,0,0,,0,,,72,127
73088,note_on,1,0,0,,12,,,71,127
73197,note_off,109,0,0,,10,,,69,127
73197,note_off,0,0,0,,4,,,64,127
73197,note_off,0,0,0,,8,,,68,127
73198,note_on,1,0,0,,8,,,68,127
73198,note_on,0,0,0,,10,,,69,127
73198,note_on,0,0,0,,4,,,64,127
73416,note_off,218,0,0,,4,,,64,127
73416,note_off,0,0,0,,10,,,69,127
73416,note_off,0,0,0,,8,,,68,127
73417,note_on,1,0,0,,8,,,68,127
73417,note_on,0,0,0,,4,,,64,127
73417,note_on,0,0,0,,10,,,69,127
73635,note_off,218,0,0,,10,,,69,127
73635,note_off,0,0,0,,4,,,64,127
73635,note_off,0,0,0,,8,,,68,127
73635,note_off,0,0,0,,12,,,71,127
73636,note_on,1,0,0,,2,,,62,127
73636,note_on,0,0,0,,10,,,69,127
73636,note_on,0,0,0,,5,,,65,127
73636,note_on,0,0,0,,2,,,74,127
73690,note_off,54,0,0,,2,,,74,127
73691,note_on,1,0,0,,0,,,72,127
73745,note_off,54,0,0,,0,,,72,127
73746,note_on,1,0,0,,12,,,71,127
73855,note_off,109,0,0,,5,,,65,127
73855,note_off,0,0,0,,10,,,69,127
73855,note_off,0,0,0,,2,,,62,127
73856,note_on,1,0,0,,5,,,65,127
73856,note_on,0,0,0,,2,,,62,127
73856,note_on,0,0,0,,10,,,69,127
74074,note_off,218,0,0,,10,,,69,127
74074,note_off,0,0,0,,2,,,62,127
74074,note_off,0,0,0,,5,,,65,127
74075,note_on,1,0,0,,2,,,62,127
74075,note_on,0,0,0,,10,,,69,127
74075,note_on,0,0,0,,5,,,65,127
74293,note_off,218,0,0,,5,,,65,127
74293,note_off,0,0,0,,10,,,69,127
74293,note_off,0,0,0,,2,,,62,127
74293,note_off,0,0,0,,12,,,71,127
74294,note_on,1,0,0,,8,,,68,127
74294,note_on,0,0,0,,4,,,64,127
74294,note_on,0,0,0,,10,,,69,127
74294,note_on,0,0,0,,2,,,74,127
74348,note_off,54,0,0,,2,,,74,127
74349,note_on,1,0,0,,0,,,72,127
74403,note_off,54,0,0,,0,,,72,127
74404,note_on,1,0,0,,12,,,71,127
74513,note_off,109,0,0,,10,,,69,127
74513,note_off,0,0,0,,4,,,64,127
74513,note_off,0,0,0,,8,,,68,127
74514,note_on,1,0,0,,8,,,68,127
74514,note_on,0,0,0,,10,,,69,127
74514,note_on,0,0,0,,4,,,64,127
74732,note_off,218,0,0,,4,,,64,127
74732,note_off,0,0,0,,10,,,69,127
74732,note_off,0,0,0,,8,,,68,127
74733,note_on,1,0,0,,10,,,69,127
74733,note_on,0,0,0,,8,,,68,127
74733,note_on,0,0,0,,4,,,64,127
74951,note_off,218,0,0,,4,,,64,127
74951,note_off,0,0,0,,8,,,68,127
74951,note_off,0,0,0,,10,,,69,127
74951,note_off,0,0,0,,12,,,71,127
74952,note_on,1,0,0,,2,,,62,127
74952,note_on,0,0,0,,10,,,69,127
74952,note_on,0,0,0,,5,,,65,127
74952,note_on,0,0,0,,12,,,83,127
75170,note_off,218,0,0,,12,,,83,127
75170,note_off,0,0,0,,5,,,65,127
75170,note_off,0,0,0,,10,,,69,127
75170,note_off,0,0,0,,2,,,62,127
75171,note_on,1,0,0,,10,,,69,127
75171,note_on,0,0,0,,5,,,65,127
75171,note_on,0,0,0,,2,,,62,127
75171,note_on,0,0,0,,5,,,77,127
75389,note_off,218,0,0,,5,,,77,127
75389,note_off,0,0,0,,2,,,62,127
75389,note_off,0,0,0,,5,,,65,127
75389,note_off,0,0,0,,10,,,69,127
75390,note_on,1,0,0,,2,,,62,127
75390,note_on,0,0,0,,10,,,69,127
75390,note_on,0,0,0,,5,,,65,127
75390,note_on,0,0,0,,4,,,76,127
75608,note_off,218,0,0,,4,,,76,127
75608,note_off,0,0,0,,5,,,65,127
75608,note_off,0,0,0,,10,,,69,127
75608,note_off,0,0,0,,2,,,62,127
75609,note_on,1,0,0,,12,,,71,127
75609,note_on,0,0,0,,4,,,64,127
75609,note_on,0,0,0,,2,,,74,127
75827,note_off,218,0,0,,2,,,74,127
75827,note_off,0,0,0,,4,,,64,127
75827,note_off,0,0,0,,12,,,71,127
75828,note_on,1,0,0,,10,,,69,127
75828,note_on,0,0,0,,4,,,64,127
75828,note_on,0,0,0,,0,,,72,127
76046,note_off,218,0,0,,0,,,72,127
76046,note_off,0,0,0,,4,,,64,127
76046,note_off,0,0,0,,10,,,69,127
76047,note_on,1,0,0,,8,,,68,127
76047,note_on,0,0,0,,4,,,64,127
76047,note_on,0,0,0,,12,,,71,127
76265,note_off,218,0,0,,12,,,71,127
76265,note_off,0,0,0,,4,,,64,127
76265,note_off,0,0,0,,8,,,68,127
76266,note_on,1,0,0,,10,,,57,127
76266,note_on,0,0,0,,2,,,74,127
76320,note_off,54,0,0,,2,,,74,127
76321,note_on,1,0,0,,0,,,72,127
76375,note_off,54,0,0,,0,,,72,127
76376,note_on,1,0,0,,2,,,74,127
76430,note_off,54,0,0,,2,,,74,127
76431,note_on,1,0,0,,0,,,72,127
76485,note_off,54,0,0,,0,,,72,127
76486,note_on,1,0,0,,2,,,74,127
76540,note_off,54,0,0,,2,,,74,127
76541,note_on,1,0,0,,0,,,72,127
76595,note_off,54,0,0,,0,,,72,127
76596,note_on,1,0,0,,12,,,71,127
76705,note_off,109,0,0,,12,,,71,127
76706,note_on,1,0,0,,10,,,69,127
76924,note_off,218,0,0,,10,,,69,127
76924,note_off,0,0,0,,10,,,57,127
76953,note_on,29,0,0,,10,,,81,127
77063,note_on,110,0,0,,0,,,84,127
77172,note_off,109,0,0,,10,,,81,127
77173,note_on,1,0,0,,7,,,79,127
77228,note_off,55,0,0,,0,,,84,127
77283,note_on,55,0,0,,12,,,83,127
77392,note_off,109,0,0,,7,,,79,127
77393,note_on,1,0,0,,5,,,77,127
77448,note_off,55,0,0,,12,,,83,127
77503,note_on,55,0,0,,10,,,81,127
77612,note_off,109,0,0,,5,,,77,127
77613,note_on,1,0,0,,4,,,76,127
77668,note_off,55,0,0,,10,,,81,127
77723,note_on,55,0,0,,7,,,79,127
77832,note_off,109,0,0,,4,,,76,127
77833,note_on,1,0,0,,2,,,74,127
77888,note_off,55,0,0,,7,,,79,127
77943,note_on,55,0,0,,5,,,77,127
78052,note_off,109,0,0,,2,,,74,127
78053,note_on,1,0,0,,0,,,72,127
78108,note_off,55,0,0,,5,,,77,127
78163,note_on,55,0,0,,4,,,76,127
78272,note_off,109,0,0,,0,,,72,127
78273,note_on,1,0,0,,12,,,71,127
78328,note_off,55,0,0,,4,,,76,127
78383,note_on,55,0,0,,2,,,74,127
78383,note_on,0,0,0,,2,,,86,127
78492,note_off,109,0,0,,12,,,71,127
78493,note_on,1,0,0,,10,,,69,127
78548,note_off,55,0,0,,2,,,86,127
78548,note_off,0,0,0,,2,,,74,127
78603,note_on,55,0,0,,0,,,72,127
78603,note_on,0,0,0,,0,,,84,127
78712,note_off,109,0,0,,10,,,69,127
78713,note_on,1,0,0,,8,,,68,127
78768,note_off,55,0,0,,0,,,84,127
78768,note_off,0,0,0,,0,,,72,127
78823,note_on,55,0,0,,12,,,71,127
78823,note_on,0,0,0,,12,,,83,127
78932,note_off,109,0,0,,8,,,68,127
78933,note_on,1,0,0,,10,,,69,127
78988,note_off,55,0,0,,12,,,83,127
78988,note_off,0,0,0,,12,,,71,127
79043,note_on,55,0,0,,0,,,72,127
79043,note_on,0,0,0,,0,,,84,127
79152,note_off,109,0,0,,10,,,69,127
79153,note_on,1,0,0,,7,,,67,127
79208,note_off,55,0,0,,0,,,84,127
79208,note_off,0,0,0,,0,,,72,127
79263,note_on,55,0,0,,12,,,71,127
79263,note_on,0,0,0,,12,,,83,127
79372,note_off,109,0,0,,7,,,67,127
79373,note_on,1,0,0,,5,,,65,127
79428,note_off,55,0,0,,12,,,83,127
79428,note_off,0,0,0,,12,,,71,127
79483,note_on,55,0,0,,10,,,69,127
79483,note_on,0,0,0,,10,,,81,127
79592,note_off,109,0,0,,5,,,65,127
79593,note_on,1,0,0,,4,,,64,127
79702,note_off,109,0,0,,4,,,64,127
79703,note_on,1,0,0,,2,,,62,127
79812,note_off,109,0,0,,2,,,62,127
79812,note_off,0,0,0,,10,,,81,127
79812,note_off,0,0,0,,10,,,69,127
79813,note_on,1,0,0,,8,,,80,127
79813,note_on,0,0,0,,8,,,68,127
79813,note_on,0,0,0,,0,,,60,127
79922,note_off,109,0,0,,0,,,60,127
79923,note_on,1,0,0,,12,,,59,127
80032,note_off,109,0,0,,12,,,59,127
80032,note_off,0,0,0,,8,,,68,127
80032,note_off,0,0,0,,8,,,80,127
80033,note_on,1,0,0,,10,,,81,127
80033,note_on,0,0,0,,10,,,69,127
80033,note_on,0,0,0,,10,,,57,127
80251,note_off,218,0,0,,10,,,57,127
80251,note_off,0,0,0,,10,,,69,127
80251,note_off,0,0,0,,10,,,81,127
80252,note_on,1,0,0,,7,,,79,127
80252,note_on,0,0,0,,5,,,77,127
80252,note_on,0,0,0,,2,,,50,127
80252,note_on,0,0,0,,2,,,62,127
80361,note_off,109,0,0,,5,,,77,127
80361,note_off,0,0,0,,7,,,79,127
80362,note_on,1,0,0,,4,,,76,127
80471,note_off,109,0,0,,4,,,76,127
80471,note_off,0,0,0,,2,,,62,127
80471,note_off,0,0,0,,2,,,50,127
80472,note_on,1,0,0,,4,,,76,127
80472,note_on,0,0,0,,0,,,60,127
80472,note_on,0,0,0,,4,,,52,127
80581,note_off,109,0,0,,4,,,76,127
80582,note_on,1,0,0,,2,,,74,127
80691,note_off,109,0,0,,2,,,74,127
80691,note_off,0,0,0,,0,,,60,127
80692,note_on,1,0,0,,0,,,72,127
80692,note_on,0,0,0,,12,,,59,127
80801,note_off,109,0,0,,0,,,72,127
80802,note_on,1,0,0,,12,,,71,127
80861,note_off,59,0,0,,4,,,52,127
80893,note_off,32,0,0,,12,,,71,127
80919,note_off,26,0,0,,12,,,59,127
80943,note_on,24,0,0,,10,,,81,127
81053,note_on,110,0,0,,0,,,84,127
81162,note_off,109,0,0,,10,,,81,127
81163,note_on,1,0,0,,7,,,79,127
81218,note_off,55,0,0,,0,,,84,127
81273,note_on,55,0,0,,12,,,83,127
81382,note_off,109,0,0,,7,,,79,127
81383,note_on,1,0,0,,5,,,77,127
81438,note_off,55,0,0,,12,,,83,127
81493,note_on,55,0,0,,10,,,81,127
81602,note_off,109,0,0,,5,,,77,127
81603,note_on,1,0,0,,4,,,76,127
81658,note_off,55,0,0,,10,,,81,127
81713,note_on,55,0,0,,7,,,79,127
81822,note_off,109,0,0,,4,,,76,127
81823,note_on,1,0,0,,2,,,74,127
81878,note_off,55,0,0,,7,,,79,127
81933,note_on,55,0,0,,5,,,77,127
82042,note_off,109,0,0,,2,,,74,127
82043,note_on,1,0,0,,0,,,72,127
82098,note_off,55,0,0,,5,,,77,127
82153,note_on,55,0,0,,4,,,76,127
82262,note_off,109,0,0,,0,,,72,127
82263,note_on,1,0,0,,12,,,71,127
82318,note_off,55,0,0,,4,,,76,127
82373,note_on,55,0,0,,2,,,86,127
82373,note_on,0,0,0,,2,,,74,127
82482,note_off,109,0,0,,12,,,71,127
82483,note_on,1,0,0,,10,,,69,127
82538,note_off,55,0,0,,2,,,74,127
82538,note_off,0,0,0,,2,,,86,127
82593,note_on,55,0,0,,0,,,84,127
82593,note_on,0,0,0,,0,,,72,127
82702,note_off,109,0,0,,10,,,69,127
82703,note_on,1,0,0,,8,,,68,127
82758,note_off,55,0,0,,0,,,72,127
82758,note_off,0,0,0,,0,,,84,127
82813,note_on,55,0,0,,12,,,83,127
82813,note_on,0,0,0,,12,,,71,127
82922,note_off,109,0,0,,8,,,68,127
82923,note_on,1,0,0,,10,,,69,127
82978,note_off,55,0,0,,12,,,71,127
82978,note_off,0,0,0,,12,,,83,127
83033,note_on,55,0,0,,0,,,84,127
83033,note_on,0,0,0,,0,,,72,127
83142,note_off,109,0,0,,10,,,69,127
83143,note_on,1,0,0,,7,,,67,127
83198,note_off,55,0,0,,0,,,72,127
83198,note_off,0,0,0,,0,,,84,127
83253,note_on,55,0,0,,12,,,83,127
83253,note_on,0,0,0,,12,,,71,127
83362,note_off,109,0,0,,7,,,67,127
83363,note_on,1,0,0,,5,,,65,127
83418,note_off,55,0,0,,12,,,71,127
83418,note_off,0,0,0,,12,,,83,127
83473,note_on,55,0,0,,10,,,81,127
83473,note_on,0,0,0,,10,,,69,127
83582,note_off,109,0,0,,5,,,65,127
83583,note_on,1,0,0,,4,,,64,127
83692,note_off,109,0,0,,4,,,64,127
83693,note_on,1,0,0,,2,,,62,127
83802,note_off,109,0,0,,2,,,62,127
83802,note_off,0,0,0,,10,,,69,127
83802,note_off,0,0,0,,10,,,81,127
83803,note_on,1,0,0,,0,,,60,127
83803,note_on,0,0,0,,8,,,68,127
83803,note_on,0,0,0,,8,,,80,127
83912,note_off,109,0,0,,0,,,60,127
83913,note_on,1,0,0,,12,,,59,127
84022,note_off,109,0,0,,12,,,59,127
84022,note_off,0,0,0,,8,,,80,127
84022,note_off,0,0,0,,8,,,68,127
84023,note_on,1,0,0,,10,,,57,127
84023,note_on,0,0,0,,10,,,81,127
84023,note_on,0,0,0,,10,,,69,127
84241,note_off,218,0,0,,10,,,69,127
84241,note_off,0,0,0,,10,,,81,127
84241,note_off,0,0,0,,10,,,57,127
84242,note_on,1,0,0,,2,,,50,127
84242,note_on,0,0,0,,2,,,62,127
84242,note_on,0,0,0,,7,,,79,127
84351,note_off,109,0,0,,7,,,79,127
84352,note_on,1,0,0,,5,,,77,127
84461,note_off,109,0,0,,5,,,77,127
84461,note_off,0,0,0,,2,,,62,127
84461,note_off,0,0,0,,2,,,50,127
84462,note_on,1,0,0,,0,,,60,127
84462,note_on,0,0,0,,4,,,52,127
84462,note_on,0,0,0,,4,,,76,127
84571,note_off,109,0,0,,4,,,76,127
84572,note_on,1,0,0,,2,,,74,127
84681,note_off,109,0,0,,2,,,74,127
84681,note_off,0,0,0,,0,,,60,127
84682,note_on,1,0,0,,12,,,59,127
84682,note_on,0,0,0,,0,,,72,127
84791,note_off,109,0,0,,0,,,72,127
84792,note_on,1,0,0,,12,,,71,127
84897,note_off,105,0,0,,4,,,52,127
84900,note_off,3,0,0,,12,,,71,127
84900,note_off,0,0,0,,12,,,59,127
84901,note_on,1,0,0,,10,,,57,127
84901,note_on,0,0,0,,10,,,45,127
84901,note_on,0,0,0,,10,,,69,127
85029,note_on,128,0,0,,4,,,76,127
85038,note_off,9,0,0,,10,,,69,127
85139,note_on,101,0,0,,4,,,64,127
85194,note_off,55,0,0,,4,,,76,127
85249,note_on,55,0,0,,4,,,76,127
85304,note_off,55,0,0,,4,,,64,127
85339,note_off,35,0,0,,10,,,45,127
85339,note_off,0,0,0,,10,,,57,127
85358,note_on,19,0,0,,4,,,64,127
85358,note_on,0,0,0,,0,,,48,127
85358,note_on,0,0,0,,10,,,57,127
85413,note_off,55,0,0,,4,,,76,127
85468,note_on,55,0,0,,4,,,76,127
85523,note_off,55,0,0,,4,,,64,127
85577,note_off,54,0,0,,10,,,57,127
85577,note_off,0,0,0,,0,,,48,127
85578,note_on,1,0,0,,10,,,57,127
85578,note_on,0,0,0,,12,,,59,127
85578,note_on,0,0,0,,2,,,50,127
85687,note_off,109,0,0,,4,,,76,127
85688,note_on,1,0,0,,4,,,76,127
85797,note_off,109,0,0,,4,,,76,127
85798,note_on,1,0,0,,2,,,74,127
85907,note_off,109,0,0,,2,,,74,127
85908,note_on,1,0,0,,0,,,72,127
86017,note_off,109,0,0,,0,,,72,127
86017,note_off,0,0,0,,2,,,50,127
86017,note_off,0,0,0,,12,,,59,127
86017,note_off,0,0,0,,10,,,57,127
86018,note_on,1,0,0,,12,,,71,127
86018,note_on,0,0,0,,4,,,52,127
86018,note_on,0,0,0,,8,,,56,127
86018,note_on,0,0,0,,12,,,59,127
86127,note_off,109,0,0,,12,,,71,127
86128,note_on,1,0,0,,2,,,74,127
86237,note_off,109,0,0,,2,,,74,127
86237,note_off,0,0,0,,12,,,59,127
86237,note_off,0,0,0,,8,,,56,127
86237,note_off,0,0,0,,4,,,52,127
86238,note_on,1,0,0,,0,,,72,127
86238,note_on,0,0,0,,10,,,57,127
86238,note_on,0,0,0,,10,,,45,127
86347,note_off,109,0,0,,0,,,72,127
86348,note_on,1,0,0,,4,,,76,127
86458,note_on,110,0,0,,4,,,64,127
86513,note_off,55,0,0,,4,,,76,127
86568,note_on,55,0,0,,4,,,76,127
86623,note_off,55,0,0,,4,,,64,127
86677,note_off,54,0,0,,10,,,45,127
86677,note_off,0,0,0,,10,,,57,127
86678,note_on,1,0,0,,4,,,64,127
86678,note_on,0,0,0,,0,,,48,127
86678,note_on,0,0,0,,10,,,57,127
86733,note_off,55,0,0,,4,,,76,127
86788,note_on,55,0,0,,4,,,76,127
86843,note_off,55,0,0,,4,,,64,127
86897,note_off,54,0,0,,10,,,57,127
86897,note_off,0,0,0,,0,,,48,127
86898,note_on,1,0,0,,12,,,59,127
86898,note_on,0,0,0,,10,,,57,127
86898,note_on,0,0,0,,2,,,50,127
87007,note_off,109,0,0,,4,,,76,127
87008,note_on,1,0,0,,4,,,76,127
87117,note_off,109,0,0,,4,,,76,127
87118,note_on,1,0,0,,2,,,74,127
87227,note_off,109,0,0,,2,,,74,127
87228,note_on,1,0,0,,0,,,72,127
87337,note_off,109,0,0,,0,,,72,127
87337,note_off,0,0,0,,2,,,50,127
87337,note_off,0,0,0,,10,,,57,127
87337,note_off,0,0,0,,12,,,59,127
87338,note_on,1,0,0,,12,,,71,127
87338,note_on,0,0,0,,12,,,59,127
87338,note_on,0,0,0,,4,,,52,127
87338,note_on,0,0,0,,8,,,56,127
87447,note_off,109,0,0,,12,,,71,127
87448,note_on,1,0,0,,2,,,74,127
87557,note_off,109,0,0,,2,,,74,127
87557,note_off,0,0,0,,8,,,56,127
87557,note_off,0,0,0,,4,,,52,127
87557,note_off,0,0,0,,12,,,59,127
87558,note_on,1,0,0,,0,,,72,127
87558,note_on,0,0,0,,10,,,57,127
87558,note_on,0,0,0,,10,,,45,127
87667,note_off,109,0,0,,0,,,72,127
87668,note_on,1,0,0,,10,,,81,127
87778,note_on,110,0,0,,10,,,69,127
87833,note_off,55,0,0,,10,,,81,127
87888,note_on,55,0,0,,10,,,81,127
87943,note_off,55,0,0,,10,,,69,127
87997,note_off,54,0,0,,10,,,45,127
87997,note_off,0,0,0,,10,,,57,127
87998,note_on,1,0,0,,10,,,69,127
87998,note_on,0,0,0,,0,,,48,127
87998,note_on,0,0,0,,10,,,57,127
88053,note_off,55,0,0,,10,,,81,127
88108,note_on,55,0,0,,10,,,81,127
88163,note_off,55,0,0,,10,,,69,127
88217,note_off,54,0,0,,10,,,81,127
88217,note_off,0,0,0,,10,,,57,127
88217,note_off,0,0,0,,0,,,48,127
88218,note_on,1,0,0,,7,,,79,127
88218,note_on,0,0,0,,10,,,57,127
88218,note_on,0,0,0,,12,,,59,127
88218,note_on,0,0,0,,2,,,50,127
88327,note_off,109,0,0,,7,,,79,127
88328,note_on,1,0,0,,5,,,77,127
88437,note_off,109,0,0,,5,,,77,127
88438,note_on,1,0,0,,4,,,76,127
88547,note_off,109,0,0,,4,,,76,127
88548,note_on,1,0,0,,2,,,74,127
88657,note_off,109,0,0,,2,,,74,127
88657,note_off,0,0,0,,2,,,50,127
88657,note_off,0,0,0,,12,,,59,127
88657,note_off,0,0,0,,10,,,57,127
88658,note_on,1,0,0,,0,,,72,127
88658,note_on,0,0,0,,12,,,59,127
88658,note_on,0,0,0,,4,,,52,127
88658,note_on,0,0,0,,8,,,56,127
88767,note_off,109,0,0,,0,,,72,127
88768,note_on,1,0,0,,12,,,71,127
88877,note_off,109,0,0,,12,,,71,127
88877,note_off,0,0,0,,8,,,56,127
88877,note_off,0,0,0,,4,,,52,127
88877,note_off,0,0,0,,12,,,59,127
88883,note_on,6,0,0,,10,,,45,127
88883,note_on,0,0,0,,10,,,57,127
88883,note_on,0,0,0,,10,,,69,127
88992,note_off,109,0,0,,10,,,69,127
88993,note_on,1,0,0,,4,,,76,127
89102,note_off,109,0,0,,4,,,76,127
89103,note_on,1,0,0,,4,,,64,127
89212,note_off,109,0,0,,4,,,64,127
89213,note_on,1,0,0,,4,,,76,127
89322,note_off,109,0,0,,4,,,76,127
89322,note_off,0,0,0,,10,,,57,127
89322,note_off,0,0,0,,10,,,45,127
89323,note_on,1,0,0,,0,,,48,127
89323,note_on,0,0,0,,10,,,57,127
89323,note_on,0,0,0,,4,,,64,127
89432,note_off,109,0,0,,4,,,64,127
89433,note_on,1,0,0,,4,,,76,127
89542,note_off,109,0,0,,10,,,57,127
89542,note_off,0,0,0,,0,,,48,127
89543,note_on,1,0,0,,12,,,59,127
89543,note_on,0,0,0,,10,,,57,127
89543,note_on,0,0,0,,2,,,50,127
89652,note_off,109,0,0,,4,,,76,127
89653,note_on,1,0,0,,4,,,76,127
89762,note_off,109,0,0,,4,,,76,127
89763,note_on,1,0,0,,2,,,74,127
89872,note_off,109,0,0,,2,,,74,127
89873,note_on,1,0,0,,0,,,72,127
89982,note_off,109,0,0,,0,,,72,127
89982,note_off,0,0,0,,2,,,50,127
89982,note_off,0,0,0,,10,,,57,127
89982,note_off,0,0,0,,12,,,59,127
89983,note_on,1,0,0,,8,,,56,127
89983,note_on,0,0,0,,4,,,52,127
89983,note_on,0,0,0,,12,,,59,127
89983,note_on,0,0,0,,12,,,71,127
90092,note_off,109,0,0,,12,,,71,127
90093,note_on,1,0,0,,2,,,74,127
90202,note_off,109,0,0,,2,,,74,127
90202,note_off,0,0,0,,12,,,59,127
90202,note_off,0,0,0,,4,,,52,127
90202,note_off,0,0,0,,8,,,56,127
90208,note_on,6,0,0,,0,,,72,127
90208,note_on,0,0,0,,10,,,57,127
90208,note_on,0,0,0,,10,,,45,127
90317,note_off,109,0,0,,0,,,72,127
90318,note_on,1,0,0,,4,,,76,127
90427,note_off,109,0,0,,4,,,76,127
90428,note_on,1,0,0,,4,,,64,127
90537,note_off,109,0,0,,4,,,64,127
90538,note_on,1,0,0,,4,,,76,127
90647,note_off,109,0,0,,4,,,76,127
90647,note_off,0,0,0,,10,,,45,127
90647,note_off,0,0,0,,10,,,57,127
90648,note_on,1,0,0,,4,,,64,127
90648,note_on,0,0,0,,10,,,57,127
90648,note_on,0,0,0,,0,,,48,127
90757,note_off,109,0,0,,4,,,64,127
90758,note_on,1,0,0,,4,,,76,127
90867,note_off,109,0,0,,0,,,48,127
90867,note_off,0,0,0,,10,,,57,127
90868,note_on,1,0,0,,10,,,57,127
90868,note_on,0,0,0,,12,,,59,127
90868,note_on,0,0,0,,2,,,50,127
90977,note_off,109,0,0,,4,,,76,127
90978,note_on,1,0,0,,4,,,76,127
91087,note_off,109,0,0,,4,,,76,127
91088,note_on,1,0,0,,2,,,74,127
91197,note_off,109,0,0,,2,,,74,127
91198,note_on,1,0,0,,0,,,72,127
91307,note_off,109,0,0,,0,,,72,127
91307,note_off,0,0,0,,2,,,50,127
91307,note_off,0,0,0,,12,,,59,127
91307,note_off,0,0,0,,10,,,57,127
91308,note_on,1,0,0,,12,,,71,127
91308,note_on,0,0,0,,8,,,56,127
91308,note_on,0,0,0,,12,,,59,127
91308,note_on,0,0,0,,4,,,52,127
91417,note_off,109,0,0,,12,,,71,127
91418,note_on,1,0,0,,2,,,74,127
91527,note_off,109,0,0,,2,,,74,127
91527,note_off,0,0,0,,4,,,52,127
91527,note_off,0,0,0,,12,,,59,127
91527,note_off,0,0,0,,8,,,56,127
91533,note_on,6,0,0,,10,,,57,127
91533,note_on,0,0,0,,10,,,45,127
91533,note_on,0,0,0,,0,,,72,127
91642,note_off,109,0,0,,0,,,72,127
91643,note_on,1,0,0,,10,,,81,127
91752,note_off,109,0,0,,10,,,81,127
91753,note_on,1,0,0,,10,,,69,127
91862,note_off,109,0,0,,10,,,69,127
91863,note_on,1,0,0,,10,,,81,127
91972,note_off,109,0,0,,10,,,81,127
91972,note_off,0,0,0,,10,,,45,127
91972,note_off,0,0,0,,10,,,57,127
91973,note_on,1,0,0,,10,,,57,127
91973,note_on,0,0,0,,0,,,48,127
91973,note_on,0,0,0,,10,,,69,127
92082,note_off,109,0,0,,10,,,69,127
92083,note_on,1,0,0,,10,,,81,127
92192,note_off,109,0,0,,10,,,81,127
92192,note_off,0,0,0,,0,,,48,127
92192,note_off,0,0,0,,10,,,57,127
92193,note_on,1,0,0,,2,,,50,127
92193,note_on,0,0,0,,12,,,59,127
92193,note_on,0,0,0,,10,,,57,127
92193,note_on,0,0,0,,7,,,79,127
92302,note_off,109,0,0,,7,,,79,127
92303,note_on,1,0,0,,5,,,77,127
92412,note_off,109,0,0,,5,,,77,127
92413,note_on,1,0,0,,4,,,76,127
92522,note_off,109,0,0,,4,,,76,127
92523,note_on,1,0,0,,2,,,74,127
92632,note_off,109,0,0,,2,,,74,127
92632,note_off,0,0,0,,10,,,57,127
92632,note_off,0,0,0,,12,,,59,127
92632,note_off,0,0,0,,2,,,50,127
92633,note_on,1,0,0,,2,,,74,127
92633,note_on,0,0,0,,8,,,56,127
92633,note_on,0,0,0,,4,,,52,127
92633,note_on,0,0,0,,12,,,59,127
92706,note_on,73,0,0,,0,,,72,127
92741,note_off,35,0,0,,2,,,74,127
92797,note_on,56,0,0,,12,,,71,127
92814,note_off,17,0,0,,0,,,72,127
92851,note_off,37,0,0,,12,,,59,127
92851,note_off,0,0,0,,4,,,52,127
92851,note_off,0,0,0,,8,,,56,127
92866,note_off,15,0,0,,12,,,71,127
92871,note_on,5,0,0,,10,,,69,127
92871,note_on,0,0,0,,10,,,57,127
92871,note_on,0,0,0,,10,,,45,127
92981,note_on,110,0,0,,4,,,64,127
93036,note_off,55,0,0,,10,,,69,127
93090,note_off,54,0,0,,4,,,64,127
93091,note_on,1,0,0,,1,,,73,127
93201,note_on,110,0,0,,10,,,69,127
93256,note_off,55,0,0,,1,,,73,127
93310,note_off,54,0,0,,10,,,69,127
93310,note_off,0,0,0,,10,,,45,127
93310,note_off,0,0,0,,10,,,57,127
93311,note_on,1,0,0,,4,,,76,127
93311,note_on,0,0,0,,1,,,49,127
93311,note_on,0,0,0,,10,,,57,127
93421,note_on,110,0,0,,10,,,69,127
93476,note_off,55,0,0,,4,,,76,127
93530,note_off,54,0,0,,10,,,69,127
93530,note_off,0,0,0,,10,,,57,127
93530,note_off,0,0,0,,1,,,49,127
93531,note_on,1,0,0,,4,,,76,127
93531,note_on,0,0,0,,2,,,50,127
93640,note_off,109,0,0,,4,,,76,127
93641,note_on,1,0,0,,2,,,74,127
93750,note_off,109,0,0,,2,,,74,127
93750,note_off,0,0,0,,2,,,50,127
93751,note_on,1,0,0,,1,,,73,127
93751,note_on,0,0,0,,4,,,52,127
93860,note_off,109,0,0,,1,,,73,127
93861,note_on,1,0,0,,12,,,71,127
93970,note_off,109,0,0,,12,,,71,127
93971,note_on,1,0,0,,10,,,69,127
93971,note_on,0,0,0,,4,,,40,127
94080,note_off,109,0,0,,10,,,69,127
94081,note_on,1,0,0,,8,,,68,127
94190,note_off,109,0,0,,8,,,68,127
94190,note_off,0,0,0,,4,,,40,127
94190,note_off,0,0,0,,4,,,52,127
94191,note_on,1,0,0,,10,,,69,127
94191,note_on,0,0,0,,10,,,45,127
94300,note_off,109,0,0,,10,,,69,127
94301,note_on,1,0,0,,4,,,64,127
94410,note_off,109,0,0,,4,,,64,127
94411,note_on,1,0,0,,1,,,73,127
94520,note_off,109,0,0,,1,,,73,127
94521,note_on,1,0,0,,10,,,69,127
94630,note_off,109,0,0,,10,,,69,127
94630,note_off,0,0,0,,10,,,45,127
94631,note_on,1,0,0,,10,,,81,127
94631,note_on,0,0,0,,1,,,49,127
94741,note_on,110,0,0,,10,,,69,127
94848,note_off,107,0,0,,10,,,81,127
94849,note_off,1,0,0,,10,,,69,127
94849,note_off,0,0,0,,1,,,49,127
94850,note_on,1,0,0,,4,,,76,127
94850,note_on,0,0,0,,2,,,50,127
94959,note_off,109,0,0,,4,,,76,127
94960,note_on,1,0,0,,2,,,74,127
95069,note_off,109,0,0,,2,,,74,127
95069,note_off,0,0,0,,2,,,50,127
95070,note_on,1,0,0,,1,,,73,127
95070,note_on,0,0,0,,4,,,52,127
95179,note_off,109,0,0,,1,,,73,127
95180,note_on,1,0,0,,12,,,71,127
95289,note_off,109,0,0,,12,,,71,127
95290,note_on,1,0,0,,10,,,69,127
95290,note_on,0,0,0,,4,,,40,127
95399,note_off,109,0,0,,10,,,69,127
95400,note_on,1,0,0,,8,,,68,127
95509,note_off,109,0,0,,8,,,68,127
95509,note_off,0,0,0,,4,,,40,127
95509,note_off,0,0,0,,4,,,52,127
95510,note_on,1,0,0,,10,,,69,127
95510,note_on,0,0,0,,10,,,45,127
95619,note_off,109,0,0,,10,,,69,127
95621,note_on,2,0,0,,4,,,64,127
95730,note_off,109,0,0,,4,,,64,127
95733,note_on,3,0,0,,1,,,73,127
95842,note_off,109,0,0,,1,,,73,127
95845,note_on,3,0,0,,10,,,69,127
95948,note_off,103,0,0,,10,,,45,127
95954,note_off,6,0,0,,10,,,69,127
95957,note_on,3,0,0,,1,,,49,127
95957,note_on,0,0,0,,10,,,81,127
96069,note_on,112,0,0,,10,,,69,127
96175,note_off,106,0,0,,10,,,81,127
96176,note_off,1,0,0,,1,,,49,127
96177,note_off,1,0,0,,10,,,69,127
96180,note_on,3,0,0,,2,,,50,127
96180,note_on,0,0,0,,4,,,76,127
96289,note_off,109,0,0,,4,,,76,127
96292,note_on,3,0,0,,2,,,74,127
96399,note_off,107,0,0,,2,,,50,127
96400,note_off,1,0,0,,2,,,74,127
96402,note_on,2,0,0,,4,,,52,127
96402,note_on,0,0,0,,1,,,73,127
96511,note_off,109,0,0,,1,,,73,127
96514,note_on,3,0,0,,12,,,71,127
96623,note_off,109,0,0,,12,,,71,127
96626,note_on,3,0,0,,4,,,40,127
96626,note_on,0,0,0,,10,,,69,127
96735,note_off,109,0,0,,10,,,69,127
96738,note_on,3,0,0,,8,,,68,127
96843,note_off,105,0,0,,4,,,52,127
96845,note_off,2,0,0,,4,,,40,127
96846,note_off,1,0,0,,8,,,68,127
96849,note_on,3,0,0,,10,,,45,127
96849,note_on,0,0,0,,12,,,71,127
96904,note_off,55,0,0,,12,,,71,127
96905,note_on,1,0,0,,10,,,69,127
96960,note_off,55,0,0,,10,,,69,127
96961,note_on,1,0,0,,12,,,71,127
97016,note_off,55,0,0,,12,,,71,127
97017,note_on,1,0,0,,10,,,69,127
98820,note_off,1803,0,0,,10,,,69,127
98820,note_off,0,0,0,,10,,,45,127
102912,end_of_track,4092,1,0,,,,,,
