tick,type,time,meta,track,program,channel,pitch,tempo,note,velocity
0,copyright,0,1,0,,,,,,
0,program_change,0,0,0,6,0,,,,
0,pitchwheel,0,0,0,,0,0,,,
0,program_change,0,0,0,6,1,,,,
0,pitchwheel,0,0,0,,1,-590,,,
0,program_change,0,0,0,6,2,,,,
0,pitchwheel,0,0,0,,2,-272,,,
0,program_change,0,0,0,6,3,,,,
0,pitchwheel,0,0,0,,3,-353,,,
0,program_change,0,0,0,6,4,,,,
0,pitchwheel,0,0,0,,4,-560,,,
0,program_change,0,0,0,6,5,,,,
0,pitchwheel,0,0,0,,5,-80,,,
0,program_change,0,0,0,6,6,,,,
0,pitchwheel,0,0,0,,6,-625,,,
0,program_change,0,0,0,6,7,,,,
0,pitchwheel,0,0,0,,7,-130,,,
0,program_change,0,0,0,6,8,,,,
0,pitchwheel,0,0,0,,8,-512,,,
0,program_change,0,0,0,6,10,,,,
0,pitchwheel,0,0,0,,10,-464,,,
0,program_change,0,0,0,6,11,,,,
0,pitchwheel,0,0,0,,11,-208,,,
0,program_change,0,0,0,6,12,,,,
0,pitchwheel,0,0,0,,12,-553,,,
0,set_tempo,0,1,0,,,,500000,,
144,note_on,144,0,0,,2,,,74,127
718,note_off,574,0,0,,2,,,74,127
720,note_on,2,0,0,,5,,,77,127
1294,note_off,574,0,0,,5,,,77,127
1296,note_on,2,0,0,,10,,,81,127
1870,note_off,574,0,0,,10,,,81,127
1872,note_on,2,0,0,,2,,,86,127
2448,note_on,576,0,0,,7,,,67,127
2590,note_off,142,0,0,,2,,,86,127
2592,note_on,2,0,0,,0,,,84,127
2734,note_off,142,0,0,,0,,,84,127
2736,note_on,2,0,0,,11,,,82,127
3022,note_off,286,0,0,,7,,,67,127
3024,note_on,2,0,0,,1,,,73,127
3166,note_off,142,0,0,,11,,,82,127
3168,note_on,2,0,0,,10,,,81,127
3310,note_off,142,0,0,,10,,,81,127
3312,note_on,2,0,0,,7,,,79,127
3598,note_off,286,0,0,,1,,,73,127
3600,note_on,2,0,0,,2,,,74,127
3742,note_off,142,0,0,,7,,,79,127
3744,note_on,2,0,0,,4,,,76,127
3886,note_off,142,0,0,,4,,,76,127
3888,note_on,2,0,0,,5,,,77,127
4174,note_off,286,0,0,,2,,,74,127
4176,note_on,2,0,0,,11,,,70,127
4318,note_off,142,0,0,,5,,,77,127
4320,note_on,2,0,0,,4,,,76,127
4536,note_off,216,0,0,,4,,,76,127
4536,note_on,0,0,0,,5,,,77,127
4606,note_off,70,0,0,,5,,,77,127
4608,note_on,2,0,0,,7,,,79,127
4750,note_off,142,0,0,,11,,,70,127
4752,note_on,2,0,0,,7,,,67,127
4894,note_off,142,0,0,,7,,,79,127
4896,note_on,2,0,0,,5,,,77,127
5038,note_off,142,0,0,,5,,,77,127
5040,note_on,2,0,0,,4,,,76,127
5326,note_off,286,0,0,,7,,,67,127
5328,note_on,2,0,0,,10,,,69,127
5470,note_off,142,0,0,,4,,,76,127
5472,note_on,2,0,0,,4,,,76,127
5614,note_off,142,0,0,,4,,,76,127
5616,note_on,2,0,0,,2,,,74,127
5758,note_off,142,0,0,,2,,,74,127
5760,note_on,2,0,0,,1,,,73,127
5902,note_off,142,0,0,,1,,,73,127
5902,note_off,0,0,0,,10,,,69,127
5904,note_on,2,0,0,,2,,,62,127
5904,note_on,0,0,0,,2,,,74,127
6046,note_off,142,0,0,,2,,,74,127
6048,note_on,2,0,0,,5,,,77,127
6190,note_off,142,0,0,,5,,,77,127
6192,note_on,2,0,0,,10,,,81,127
6334,note_off,142,0,0,,10,,,81,127
6336,note_on,2,0,0,,1,,,85,127
6478,note_off,142,0,0,,1,,,85,127
6480,note_on,2,0,0,,2,,,86,127
7054,note_off,574,0,0,,2,,,62,127
7056,note_on,2,0,0,,7,,,67,127
7198,note_off,142,0,0,,2,,,86,127
7200,note_on,2,0,0,,0,,,84,127
7342,note_off,142,0,0,,0,,,84,127
7344,note_on,2,0,0,,0,,,84,127
7486,note_off,142,0,0,,0,,,84,127
7488,note_on,2,0,0,,11,,,82,127
7630,note_off,142,0,0,,11,,,82,127
7630,note_off,0,0,0,,7,,,67,127
7632,note_on,2,0,0,,1,,,73,127
7632,note_on,0,0,0,,11,,,82,127
7774,note_off,142,0,0,,11,,,82,127
7776,note_on,2,0,0,,10,,,81,127
7918,note_off,142,0,0,,10,,,81,127
7920,note_on,2,0,0,,10,,,81,127
8062,note_off,142,0,0,,10,,,81,127
8064,note_on,2,0,0,,7,,,79,127
8206,note_off,142,0,0,,7,,,79,127
8206,note_off,0,0,0,,1,,,73,127
8208,note_on,2,0,0,,2,,,74,127
8208,note_on,0,0,0,,7,,,79,127
8350,note_off,142,0,0,,7,,,79,127
8352,note_on,2,0,0,,5,,,77,127
8494,note_off,142,0,0,,5,,,77,127
8496,note_on,2,0,0,,5,,,77,127
8638,note_off,142,0,0,,5,,,77,127
8640,note_on,2,0,0,,4,,,76,127
8782,note_off,142,0,0,,4,,,76,127
8782,note_off,0,0,0,,2,,,74,127
8784,note_on,2,0,0,,11,,,70,127
8784,note_on,0,0,0,,4,,,76,127
8926,note_off,142,0,0,,4,,,76,127
8928,note_on,2,0,0,,5,,,77,127
9070,note_off,142,0,0,,5,,,77,127
9072,note_on,2,0,0,,5,,,77,127
9214,note_off,142,0,0,,5,,,77,127
9216,note_on,2,0,0,,7,,,79,127
9358,note_off,142,0,0,,7,,,79,127
9358,note_off,0,0,0,,11,,,70,127
9360,note_on,2,0,0,,7,,,67,127
9360,note_on,0,0,0,,7,,,79,127
9502,note_off,142,0,0,,7,,,79,127
9504,note_on,2,0,0,,5,,,77,127
9646,note_off,142,0,0,,5,,,77,127
9648,note_on,2,0,0,,5,,,77,127
9790,note_off,142,0,0,,5,,,77,127
9792,note_on,2,0,0,,4,,,76,127
9934,note_off,142,0,0,,4,,,76,127
9934,note_off,0,0,0,,7,,,67,127
9936,note_on,2,0,0,,10,,,69,127
9936,note_on,0,0,0,,4,,,76,127
10078,note_off,142,0,0,,4,,,76,127
10080,note_on,2,0,0,,2,,,74,127
10222,note_off,142,0,0,,2,,,74,127
10224,note_on,2,0,0,,2,,,74,127
10366,note_off,142,0,0,,2,,,74,127
10368,note_on,2,0,0,,1,,,73,127
10510,note_off,142,0,0,,1,,,73,127
10510,note_off,0,0,0,,10,,,69,127
10512,note_on,2,0,0,,2,,,62,127
10512,note_on,0,0,0,,1,,,73,127
11086,note_off,574,0,0,,1,,,73,127
11088,note_on,2,0,0,,2,,,74,127
11374,note_off,286,0,0,,2,,,62,127
11662,note_off,288,0,0,,2,,,74,127
11664,note_on,2,0,0,,12,,,59,127
11664,note_on,0,0,0,,2,,,86,127
11806,note_off,142,0,0,,2,,,86,127
11808,note_on,2,0,0,,12,,,83,127
11950,note_off,142,0,0,,12,,,83,127
11952,note_on,2,0,0,,8,,,80,127
12094,note_off,142,0,0,,8,,,80,127
12096,note_on,2,0,0,,5,,,77,127
12238,note_off,142,0,0,,5,,,77,127
12240,note_on,2,0,0,,2,,,74,127
12382,note_off,142,0,0,,2,,,74,127
12384,note_on,2,0,0,,12,,,71,127
12526,note_off,142,0,0,,12,,,71,127
12528,note_on,2,0,0,,8,,,68,127
12670,note_off,142,0,0,,8,,,68,127
12672,note_on,2,0,0,,2,,,74,127
12814,note_off,142,0,0,,12,,,59,127
12816,note_on,2,0,0,,10,,,57,127
12816,note_on,0,0,0,,5,,,65,127
13100,note_off,284,0,0,,2,,,74,127
13103,note_off,3,0,0,,5,,,65,127
13105,note_on,2,0,0,,0,,,72,127
13105,note_on,0,0,0,,4,,,64,127
13247,note_off,142,0,0,,4,,,64,127
13247,note_off,0,0,0,,0,,,72,127
13249,note_on,2,0,0,,2,,,62,127
13249,note_on,0,0,0,,12,,,71,127
13391,note_off,142,0,0,,12,,,71,127
13391,note_off,0,0,0,,2,,,62,127
13393,note_on,2,0,0,,10,,,45,127
13393,note_on,0,0,0,,12,,,71,127
13393,note_on,0,0,0,,2,,,62,127
13679,note_off,286,0,0,,2,,,62,127
13679,note_off,0,0,0,,12,,,71,127
13681,note_on,2,0,0,,0,,,72,127
13681,note_on,0,0,0,,4,,,64,127
13967,note_off,286,0,0,,4,,,64,127
13967,note_off,0,0,0,,0,,,72,127
13967,note_off,0,0,0,,10,,,45,127
13967,note_off,0,0,0,,10,,,57,127
13969,note_on,2,0,0,,10,,,57,127
13969,note_on,0,0,0,,0,,,84,127
14111,note_off,142,0,0,,0,,,84,127
14113,note_on,2,0,0,,10,,,81,127
14255,note_off,142,0,0,,10,,,81,127
14257,note_on,2,0,0,,6,,,78,127
14399,note_off,142,0,0,,6,,,78,127
14401,note_on,2,0,0,,3,,,75,127
14543,note_off,142,0,0,,3,,,75,127
14545,note_on,2,0,0,,0,,,72,127
14687,note_off,142,0,0,,0,,,72,127
14689,note_on,2,0,0,,10,,,69,127
14831,note_off,142,0,0,,10,,,69,127
14833,note_on,2,0,0,,6,,,66,127
14975,note_off,142,0,0,,6,,,66,127
14977,note_on,2,0,0,,0,,,72,127
15119,note_off,142,0,0,,10,,,57,127
15121,note_on,2,0,0,,7,,,55,127
15121,note_on,0,0,0,,3,,,63,127
15406,note_off,285,0,0,,0,,,72,127
15408,note_off,2,0,0,,3,,,63,127
15410,note_on,2,0,0,,11,,,70,127
15410,note_on,0,0,0,,2,,,62,127
15552,note_off,142,0,0,,2,,,62,127
15552,note_off,0,0,0,,11,,,70,127
15554,note_on,2,0,0,,0,,,60,127
15554,note_on,0,0,0,,10,,,69,127
15696,note_off,142,0,0,,10,,,69,127
15696,note_off,0,0,0,,0,,,60,127
15698,note_on,2,0,0,,7,,,43,127
15698,note_on,0,0,0,,0,,,60,127
15698,note_on,0,0,0,,10,,,69,127
15984,note_off,286,0,0,,10,,,69,127
15984,note_off,0,0,0,,0,,,60,127
15986,note_on,2,0,0,,2,,,62,127
15986,note_on,0,0,0,,11,,,70,127
16272,note_off,286,0,0,,11,,,70,127
16272,note_off,0,0,0,,2,,,62,127
16272,note_off,0,0,0,,7,,,43,127
16272,note_off,0,0,0,,7,,,55,127
16274,note_on,2,0,0,,7,,,55,127
16274,note_on,0,0,0,,11,,,82,127
16416,note_off,142,0,0,,11,,,82,127
16418,note_on,2,0,0,,7,,,79,127
16560,note_off,142,0,0,,7,,,79,127
16562,note_on,2,0,0,,4,,,76,127
16704,note_off,142,0,0,,4,,,76,127
16706,note_on,2,0,0,,1,,,73,127
16848,note_off,142,0,0,,1,,,73,127
16850,note_on,2,0,0,,11,,,70,127
16992,note_off,142,0,0,,11,,,70,127
16994,note_on,2,0,0,,7,,,67,127
17136,note_off,142,0,0,,7,,,67,127
17138,note_on,2,0,0,,1,,,61,127
17280,note_off,142,0,0,,1,,,61,127
17282,note_on,2,0,0,,7,,,67,127
17424,note_off,142,0,0,,7,,,55,127
17426,note_on,2,0,0,,2,,,50,127
17426,note_on,0,0,0,,4,,,64,127
17711,note_off,285,0,0,,7,,,67,127
17713,note_off,2,0,0,,4,,,64,127
17715,note_on,2,0,0,,5,,,65,127
17715,note_on,0,0,0,,2,,,62,127
17857,note_off,142,0,0,,2,,,62,127
17857,note_off,0,0,0,,5,,,65,127
17859,note_on,2,0,0,,4,,,64,127
17859,note_on,0,0,0,,1,,,61,127
18001,note_off,142,0,0,,1,,,61,127
18001,note_off,0,0,0,,4,,,64,127
18003,note_on,2,0,0,,2,,,38,127
18003,note_on,0,0,0,,1,,,61,127
18003,note_on,0,0,0,,4,,,64,127
18289,note_off,286,0,0,,4,,,64,127
18289,note_off,0,0,0,,1,,,61,127
18289,note_off,0,0,0,,2,,,50,127
18291,note_on,2,0,0,,5,,,65,127
18291,note_on,0,0,0,,2,,,62,127
18577,note_off,286,0,0,,2,,,62,127
18577,note_off,0,0,0,,5,,,65,127
18577,note_off,0,0,0,,2,,,38,127
18579,note_on,2,0,0,,2,,,50,127
18721,note_off,142,0,0,,2,,,50,127
18723,note_on,2,0,0,,5,,,53,127
18865,note_off,142,0,0,,5,,,53,127
18867,note_on,2,0,0,,8,,,56,127
19009,note_off,142,0,0,,8,,,56,127
19011,note_on,2,0,0,,12,,,59,127
19153,note_off,142,0,0,,12,,,59,127
19155,note_on,2,0,0,,2,,,62,127
19297,note_off,142,0,0,,2,,,62,127
19299,note_on,2,0,0,,5,,,65,127
19441,note_off,142,0,0,,5,,,65,127
19443,note_on,2,0,0,,8,,,68,127
19587,note_on,144,0,0,,2,,,86,127
19587,note_on,0,0,0,,5,,,77,127
19729,note_off,142,0,0,,5,,,77,127
19729,note_off,0,0,0,,2,,,86,127
19729,note_off,0,0,0,,8,,,68,127
19731,note_on,2,0,0,,10,,,69,127
19731,note_on,0,0,0,,2,,,86,127
19731,note_on,0,0,0,,5,,,77,127
20017,note_off,286,0,0,,5,,,77,127
20017,note_off,0,0,0,,2,,,86,127
20019,note_on,2,0,0,,1,,,85,127
20019,note_on,0,0,0,,4,,,76,127
20161,note_off,142,0,0,,4,,,76,127
20161,note_off,0,0,0,,1,,,85,127
20163,note_on,2,0,0,,2,,,74,127
20163,note_on,0,0,0,,12,,,83,127
20305,note_off,142,0,0,,12,,,83,127
20305,note_off,0,0,0,,2,,,74,127
20307,note_on,2,0,0,,10,,,57,127
20307,note_on,0,0,0,,2,,,74,127
20307,note_on,0,0,0,,12,,,83,127
20593,note_off,286,0,0,,12,,,83,127
20593,note_off,0,0,0,,2,,,74,127
20595,note_on,2,0,0,,1,,,85,127
20595,note_on,0,0,0,,4,,,76,127
20881,note_off,286,0,0,,4,,,76,127
20881,note_off,0,0,0,,1,,,85,127
20881,note_off,0,0,0,,10,,,57,127
20881,note_off,0,0,0,,10,,,69,127
20883,note_on,2,0,0,,2,,,50,127
21025,note_off,142,0,0,,2,,,50,127
21027,note_on,2,0,0,,5,,,53,127
21169,note_off,142,0,0,,5,,,53,127
21171,note_on,2,0,0,,8,,,56,127
21313,note_off,142,0,0,,8,,,56,127
21315,note_on,2,0,0,,12,,,59,127
21457,note_off,142,0,0,,12,,,59,127
21459,note_on,2,0,0,,2,,,62,127
21601,note_off,142,0,0,,2,,,62,127
21603,note_on,2,0,0,,5,,,65,127
21745,note_off,142,0,0,,5,,,65,127
21747,note_on,2,0,0,,8,,,68,127
21891,note_on,144,0,0,,2,,,86,127
21891,note_on,0,0,0,,5,,,77,127
22033,note_off,142,0,0,,5,,,77,127
22033,note_off,0,0,0,,2,,,86,127
22033,note_off,0,0,0,,8,,,68,127
22035,note_on,2,0,0,,10,,,69,127
22035,note_on,0,0,0,,2,,,86,127
22035,note_on,0,0,0,,5,,,77,127
22321,note_off,286,0,0,,5,,,77,127
22321,note_off,0,0,0,,2,,,86,127
22323,note_on,2,0,0,,4,,,76,127
22323,note_on,0,0,0,,1,,,85,127
22465,note_off,142,0,0,,1,,,85,127
22465,note_off,0,0,0,,4,,,76,127
22467,note_on,2,0,0,,2,,,74,127
22467,note_on,0,0,0,,12,,,83,127
22609,note_off,142,0,0,,12,,,83,127
22609,note_off,0,0,0,,2,,,74,127
22611,note_on,2,0,0,,10,,,57,127
22611,note_on,0,0,0,,12,,,83,127
22611,note_on,0,0,0,,2,,,74,127
22897,note_off,286,0,0,,2,,,74,127
22897,note_off,0,0,0,,12,,,83,127
22899,note_on,2,0,0,,1,,,85,127
22899,note_on,0,0,0,,4,,,76,127
23175,note_off,276,0,0,,10,,,69,127
23185,note_off,10,0,0,,4,,,76,127
23185,note_off,0,0,0,,1,,,85,127
23185,note_off,0,0,0,,10,,,57,127
23187,note_on,2,0,0,,10,,,69,127
23331,note_on,144,0,0,,1,,,73,127
23331,note_on,0,0,0,,4,,,76,127
23473,note_off,142,0,0,,4,,,76,127
23473,note_off,0,0,0,,1,,,73,127
23475,note_on,2,0,0,,2,,,74,127
23475,note_on,0,0,0,,5,,,77,127
23617,note_off,142,0,0,,5,,,77,127
23617,note_off,0,0,0,,2,,,74,127
23619,note_on,2,0,0,,1,,,73,127
23619,note_on,0,0,0,,4,,,76,127
23761,note_off,142,0,0,,4,,,76,127
23761,note_off,0,0,0,,1,,,73,127
23761,note_off,0,0,0,,10,,,69,127
23763,note_on,2,0,0,,7,,,67,127
23763,note_on,0,0,0,,10,,,81,127
23763,note_on,0,0,0,,7,,,79,127
23907,note_on,144,0,0,,11,,,70,127
24049,note_off,142,0,0,,11,,,70,127
24049,note_off,0,0,0,,10,,,81,127
24051,note_on,2,0,0,,4,,,76,127
24193,note_off,142,0,0,,4,,,76,127
24193,note_off,0,0,0,,7,,,79,127
24195,note_on,2,0,0,,2,,,74,127
24195,note_on,0,0,0,,5,,,77,127
24337,note_off,142,0,0,,7,,,67,127
24339,note_on,2,0,0,,10,,,69,127
24481,note_off,142,0,0,,5,,,77,127
24481,note_off,0,0,0,,2,,,74,127
24483,note_on,2,0,0,,1,,,73,127
24483,note_on,0,0,0,,4,,,76,127
24625,note_off,142,0,0,,4,,,76,127
24625,note_off,0,0,0,,1,,,73,127
24627,note_on,2,0,0,,2,,,74,127
24627,note_on,0,0,0,,5,,,77,127
24769,note_off,142,0,0,,5,,,77,127
24769,note_off,0,0,0,,2,,,74,127
24771,note_on,2,0,0,,1,,,73,127
24771,note_on,0,0,0,,4,,,76,127
24913,note_off,142,0,0,,4,,,76,127
24913,note_off,0,0,0,,1,,,73,127
24913,note_off,0,0,0,,10,,,69,127
24915,note_on,2,0,0,,7,,,67,127
24915,note_on,0,0,0,,7,,,79,127
24915,note_on,0,0,0,,10,,,81,127
25059,note_on,144,0,0,,11,,,70,127
25201,note_off,142,0,0,,11,,,70,127
25201,note_off,0,0,0,,10,,,81,127
25203,note_on,2,0,0,,4,,,76,127
25345,note_off,142,0,0,,4,,,76,127
25345,note_off,0,0,0,,7,,,79,127
25347,note_on,2,0,0,,2,,,74,127
25347,note_on,0,0,0,,5,,,77,127
25489,note_off,142,0,0,,5,,,77,127
25489,note_off,0,0,0,,2,,,74,127
25489,note_off,0,0,0,,7,,,67,127
25491,note_on,2,0,0,,10,,,69,127
25491,note_on,0,0,0,,1,,,73,127
25491,note_on,0,0,0,,4,,,76,127
25633,note_off,142,0,0,,4,,,76,127
25635,note_on,2,0,0,,11,,,82,127
25777,note_off,142,0,0,,1,,,73,127
25777,note_off,0,0,0,,10,,,69,127
25779,note_on,2,0,0,,1,,,73,127
25779,note_on,0,0,0,,7,,,67,127
25921,note_off,142,0,0,,11,,,82,127
25923,note_on,2,0,0,,10,,,81,127
26065,note_off,142,0,0,,7,,,67,127
26065,note_off,0,0,0,,1,,,73,127
26067,note_on,2,0,0,,5,,,65,127
26067,note_on,0,0,0,,2,,,74,127
26209,note_off,142,0,0,,10,,,81,127
26211,note_on,2,0,0,,7,,,79,127
26353,note_off,142,0,0,,2,,,74,127
26353,note_off,0,0,0,,5,,,65,127
26355,note_on,2,0,0,,4,,,64,127
26355,note_on,0,0,0,,1,,,73,127
26497,note_off,142,0,0,,7,,,79,127
26499,note_on,2,0,0,,5,,,77,127
26641,note_off,142,0,0,,1,,,73,127
26641,note_off,0,0,0,,4,,,64,127
26643,note_on,2,0,0,,2,,,62,127
26643,note_on,0,0,0,,2,,,74,127
26785,note_off,142,0,0,,5,,,77,127
26787,note_on,2,0,0,,4,,,76,127
26929,note_off,142,0,0,,2,,,74,127
26929,note_off,0,0,0,,2,,,62,127
26931,note_on,2,0,0,,8,,,68,127
26931,note_on,0,0,0,,12,,,71,127
26931,note_on,0,0,0,,4,,,64,127
27073,note_off,142,0,0,,4,,,76,127
27075,note_on,2,0,0,,2,,,74,127
27217,note_off,142,0,0,,4,,,64,127
27217,note_off,0,0,0,,12,,,71,127
27217,note_off,0,0,0,,8,,,68,127
27219,note_on,2,0,0,,10,,,69,127
27219,note_on,0,0,0,,5,,,65,127
27361,note_off,142,0,0,,2,,,74,127
27363,note_on,2,0,0,,0,,,72,127
27505,note_off,142,0,0,,0,,,72,127
27507,note_on,2,0,0,,12,,,71,127
27648,note_off,141,0,0,,10,,,69,127
27650,note_off,2,0,0,,12,,,71,127
27652,note_on,2,0,0,,10,,,69,127
27794,note_off,142,0,0,,5,,,65,127
27796,note_on,2,0,0,,4,,,64,127
27868,note_off,72,0,0,,10,,,69,127
27940,note_on,72,0,0,,8,,,68,127
27940,note_on,0,0,0,,12,,,71,127
28082,note_off,142,0,0,,12,,,71,127
28082,note_off,0,0,0,,8,,,68,127
28084,note_on,2,0,0,,10,,,69,127
28084,note_on,0,0,0,,0,,,72,127
28226,note_off,142,0,0,,0,,,72,127
28226,note_off,0,0,0,,10,,,69,127
28228,note_on,2,0,0,,8,,,68,127
28228,note_on,0,0,0,,12,,,71,127
28370,note_off,142,0,0,,12,,,71,127
28370,note_off,0,0,0,,8,,,68,127
28370,note_off,0,0,0,,4,,,64,127
28372,note_on,2,0,0,,2,,,62,127
28372,note_on,0,0,0,,2,,,74,127
28372,note_on,0,0,0,,4,,,76,127
28516,note_on,144,0,0,,5,,,65,127
28658,note_off,142,0,0,,5,,,65,127
28658,note_off,0,0,0,,4,,,76,127
28660,note_on,2,0,0,,12,,,71,127
28802,note_off,142,0,0,,12,,,71,127
28802,note_off,0,0,0,,2,,,74,127
28804,note_on,2,0,0,,10,,,69,127
28804,note_on,0,0,0,,0,,,72,127
28946,note_off,142,0,0,,2,,,62,127
28948,note_on,2,0,0,,4,,,64,127
29090,note_off,142,0,0,,0,,,72,127
29090,note_off,0,0,0,,10,,,69,127
29092,note_on,2,0,0,,8,,,68,127
29092,note_on,0,0,0,,12,,,71,127
29234,note_off,142,0,0,,12,,,71,127
29234,note_off,0,0,0,,8,,,68,127
29236,note_on,2,0,0,,10,,,69,127
29236,note_on,0,0,0,,0,,,72,127
29378,note_off,142,0,0,,0,,,72,127
29378,note_off,0,0,0,,10,,,69,127
29380,note_on,2,0,0,,8,,,68,127
29380,note_on,0,0,0,,12,,,71,127
29522,note_off,142,0,0,,12,,,71,127
29522,note_off,0,0,0,,8,,,68,127
29522,note_off,0,0,0,,4,,,64,127
29524,note_on,2,0,0,,2,,,62,127
29524,note_on,0,0,0,,4,,,76,127
29524,note_on,0,0,0,,2,,,74,127
29668,note_on,144,0,0,,5,,,65,127
29810,note_off,142,0,0,,5,,,65,127
29810,note_off,0,0,0,,4,,,76,127
29812,note_on,2,0,0,,12,,,71,127
29954,note_off,142,0,0,,12,,,71,127
29954,note_off,0,0,0,,2,,,74,127
29956,note_on,2,0,0,,10,,,69,127
29956,note_on,0,0,0,,0,,,72,127
30098,note_off,142,0,0,,0,,,72,127
30098,note_off,0,0,0,,10,,,69,127
30098,note_off,0,0,0,,2,,,62,127
30100,note_on,2,0,0,,8,,,68,127
30100,note_on,0,0,0,,4,,,64,127
30100,note_on,0,0,0,,12,,,71,127
30242,note_off,142,0,0,,12,,,71,127
30244,note_on,2,0,0,,4,,,76,127
30386,note_off,142,0,0,,4,,,76,127
30388,note_on,2,0,0,,5,,,77,127
30530,note_off,142,0,0,,5,,,77,127
30532,note_on,2,0,0,,4,,,76,127
30674,note_off,142,0,0,,4,,,76,127
30674,note_off,0,0,0,,4,,,64,127
30674,note_off,0,0,0,,8,,,68,127
30676,note_on,2,0,0,,2,,,62,127
30676,note_on,0,0,0,,8,,,68,127
30820,note_on,144,0,0,,4,,,76,127
30961,note_off,141,0,0,,8,,,68,127
30963,note_off,2,0,0,,4,,,76,127
30965,note_on,2,0,0,,5,,,77,127
31107,note_off,142,0,0,,5,,,77,127
31109,note_on,2,0,0,,4,,,76,127
31251,note_off,142,0,0,,4,,,76,127
31251,note_off,0,0,0,,2,,,62,127
31253,note_on,2,0,0,,0,,,60,127
31253,note_on,0,0,0,,10,,,69,127
31397,note_on,144,0,0,,4,,,76,127
31538,note_off,141,0,0,,10,,,69,127
31540,note_off,2,0,0,,4,,,76,127
31542,note_on,2,0,0,,5,,,77,127
31684,note_off,142,0,0,,5,,,77,127
31686,note_on,2,0,0,,4,,,76,127
31828,note_off,142,0,0,,4,,,76,127
31828,note_off,0,0,0,,0,,,60,127
31830,note_on,2,0,0,,12,,,59,127
31830,note_on,0,0,0,,2,,,62,127
31830,note_on,0,0,0,,12,,,71,127
31974,note_on,144,0,0,,4,,,76,127
32115,note_off,141,0,0,,12,,,71,127
32117,note_off,2,0,0,,4,,,76,127
32119,note_on,2,0,0,,5,,,77,127
32261,note_off,142,0,0,,5,,,77,127
32263,note_on,2,0,0,,4,,,76,127
32405,note_off,142,0,0,,4,,,76,127
32405,note_off,0,0,0,,2,,,62,127
32405,note_off,0,0,0,,12,,,59,127
32407,note_on,2,0,0,,10,,,57,127
32407,note_on,0,0,0,,0,,,72,127
32549,note_off,142,0,0,,10,,,57,127
32551,note_on,2,0,0,,4,,,64,127
32693,note_off,142,0,0,,4,,,64,127
32695,note_on,2,0,0,,5,,,65,127
32837,note_off,142,0,0,,5,,,65,127
32839,note_on,2,0,0,,4,,,64,127
32981,note_off,142,0,0,,4,,,64,127
32981,note_off,0,0,0,,0,,,72,127
32983,note_on,2,0,0,,7,,,55,127
32983,note_on,0,0,0,,10,,,81,127
32983,note_on,0,0,0,,0,,,72,127
33125,note_off,142,0,0,,7,,,55,127
33127,note_on,2,0,0,,4,,,64,127
33269,note_off,142,0,0,,4,,,64,127
33271,note_on,2,0,0,,5,,,65,127
33413,note_off,142,0,0,,5,,,65,127
33415,note_on,2,0,0,,4,,,64,127
33557,note_off,142,0,0,,4,,,64,127
33557,note_off,0,0,0,,0,,,72,127
33557,note_off,0,0,0,,10,,,81,127
33559,note_on,2,0,0,,5,,,53,127
33559,note_on,0,0,0,,10,,,81,127
33559,note_on,0,0,0,,2,,,74,127
33701,note_off,142,0,0,,5,,,53,127
33703,note_on,2,0,0,,2,,,62,127
33845,note_off,142,0,0,,2,,,62,127
33847,note_on,2,0,0,,4,,,64,127
33989,note_off,142,0,0,,4,,,64,127
33991,note_on,2,0,0,,2,,,62,127
34133,note_off,142,0,0,,2,,,62,127
34133,note_off,0,0,0,,2,,,74,127
34133,note_off,0,0,0,,10,,,81,127
34135,note_on,2,0,0,,4,,,52,127
34135,note_on,0,0,0,,10,,,81,127
34135,note_on,0,0,0,,4,,,76,127
34277,note_off,142,0,0,,4,,,52,127
34279,note_on,2,0,0,,0,,,60,127
34421,note_off,142,0,0,,0,,,60,127
34423,note_on,2,0,0,,2,,,62,127
34565,note_off,142,0,0,,2,,,62,127
34567,note_on,2,0,0,,0,,,60,127
34709,note_off,142,0,0,,0,,,60,127
34709,note_off,0,0,0,,4,,,76,127
34709,note_off,0,0,0,,10,,,81,127
34711,note_on,2,0,0,,2,,,50,127
34711,note_on,0,0,0,,5,,,77,127
34711,note_on,0,0,0,,10,,,81,127
34853,note_off,142,0,0,,2,,,50,127
34855,note_on,2,0,0,,12,,,59,127
34997,note_off,142,0,0,,12,,,59,127
34999,note_on,2,0,0,,0,,,60,127
35141,note_off,142,0,0,,0,,,60,127
35143,note_on,2,0,0,,12,,,59,127
35285,note_off,142,0,0,,12,,,59,127
35285,note_off,0,0,0,,10,,,81,127
35285,note_off,0,0,0,,5,,,77,127
35287,note_on,2,0,0,,0,,,48,127
35287,note_on,0,0,0,,10,,,81,127
35287,note_on,0,0,0,,4,,,76,127
35429,note_off,142,0,0,,0,,,48,127
35431,note_on,2,0,0,,10,,,57,127
35573,note_off,142,0,0,,10,,,57,127
35575,note_on,2,0,0,,12,,,59,127
35717,note_off,142,0,0,,12,,,59,127
35719,note_on,2,0,0,,10,,,57,127
35861,note_off,142,0,0,,10,,,57,127
35863,note_on,2,0,0,,2,,,50,127
35863,note_on,0,0,0,,12,,,59,127
36005,note_off,142,0,0,,10,,,81,127
36007,note_on,2,0,0,,12,,,83,127
36149,note_off,142,0,0,,12,,,83,127
36151,note_on,2,0,0,,0,,,84,127
36293,note_off,142,0,0,,0,,,84,127
36295,note_on,2,0,0,,2,,,86,127
36437,note_off,142,0,0,,2,,,86,127
36437,note_off,0,0,0,,12,,,59,127
36437,note_off,0,0,0,,2,,,50,127
36439,note_on,2,0,0,,12,,,59,127
36439,note_on,0,0,0,,4,,,52,127
36439,note_on,0,0,0,,0,,,84,127
36581,note_off,142,0,0,,0,,,84,127
36581,note_off,0,0,0,,4,,,76,127
36583,note_on,2,0,0,,2,,,74,127
36583,note_on,0,0,0,,12,,,83,127
36725,note_off,142,0,0,,12,,,83,127
36725,note_off,0,0,0,,2,,,74,127
36727,note_on,2,0,0,,0,,,72,127
36727,note_on,0,0,0,,10,,,81,127
36869,note_off,142,0,0,,10,,,81,127
36869,note_off,0,0,0,,0,,,72,127
36871,note_on,2,0,0,,8,,,80,127
36871,note_on,0,0,0,,12,,,71,127
37013,note_off,142,0,0,,12,,,71,127
37013,note_off,0,0,0,,8,,,80,127
37013,note_off,0,0,0,,4,,,52,127
37013,note_off,0,0,0,,12,,,59,127
37015,note_on,2,0,0,,10,,,57,127
37015,note_on,0,0,0,,10,,,81,127
37015,note_on,0,0,0,,0,,,72,127
37157,note_off,142,0,0,,10,,,57,127
37159,note_on,2,0,0,,4,,,64,127
37301,note_off,142,0,0,,4,,,64,127
37303,note_on,2,0,0,,5,,,65,127
37445,note_off,142,0,0,,5,,,65,127
37447,note_on,2,0,0,,4,,,64,127
37589,note_off,142,0,0,,4,,,64,127
37591,note_on,2,0,0,,7,,,55,127
37733,note_off,142,0,0,,7,,,55,127
37735,note_on,2,0,0,,4,,,64,127
37807,note_off,72,0,0,,0,,,72,127
37807,note_off,0,0,0,,10,,,81,127
37877,note_off,70,0,0,,4,,,64,127
37879,note_on,2,0,0,,5,,,65,127
37879,note_on,0,0,0,,0,,,72,127
37879,note_on,0,0,0,,10,,,81,127
38021,note_off,142,0,0,,5,,,65,127
38023,note_on,2,0,0,,4,,,64,127
38165,note_off,142,0,0,,4,,,64,127
38167,note_on,2,0,0,,5,,,53,127
38309,note_off,142,0,0,,5,,,53,127
38311,note_on,2,0,0,,2,,,62,127
38381,note_off,70,0,0,,10,,,81,127
38381,note_off,0,0,0,,0,,,72,127
38453,note_off,72,0,0,,2,,,62,127
38455,note_on,2,0,0,,4,,,64,127
38455,note_on,0,0,0,,10,,,81,127
38455,note_on,0,0,0,,2,,,74,127
38597,note_off,142,0,0,,4,,,64,127
38599,note_on,2,0,0,,2,,,62,127
38741,note_off,142,0,0,,2,,,62,127
38743,note_on,2,0,0,,4,,,52,127
38885,note_off,142,0,0,,4,,,52,127
38887,note_on,2,0,0,,0,,,60,127
38957,note_off,70,0,0,,2,,,74,127
38957,note_off,0,0,0,,10,,,81,127
39029,note_off,72,0,0,,0,,,60,127
39031,note_on,2,0,0,,2,,,62,127
39031,note_on,0,0,0,,10,,,81,127
39031,note_on,0,0,0,,4,,,76,127
39173,note_off,142,0,0,,2,,,62,127
39175,note_on,2,0,0,,0,,,60,127
39317,note_off,142,0,0,,0,,,60,127
39319,note_on,2,0,0,,2,,,50,127
39461,note_off,142,0,0,,2,,,50,127
39463,note_on,2,0,0,,12,,,59,127
39533,note_off,70,0,0,,4,,,76,127
39533,note_off,0,0,0,,10,,,81,127
39605,note_off,72,0,0,,12,,,59,127
39607,note_on,2,0,0,,0,,,60,127
39607,note_on,0,0,0,,10,,,81,127
39607,note_on,0,0,0,,5,,,77,127
39749,note_off,142,0,0,,0,,,60,127
39751,note_on,2,0,0,,12,,,59,127
39893,note_off,142,0,0,,12,,,59,127
39895,note_on,2,0,0,,0,,,48,127
40037,note_off,142,0,0,,0,,,48,127
40039,note_on,2,0,0,,10,,,57,127
40109,note_off,70,0,0,,5,,,77,127
40109,note_off,0,0,0,,10,,,81,127
40181,note_off,72,0,0,,10,,,57,127
40183,note_on,2,0,0,,12,,,59,127
40183,note_on,0,0,0,,10,,,81,127
40183,note_on,0,0,0,,4,,,76,127
40325,note_off,142,0,0,,12,,,59,127
40327,note_on,2,0,0,,10,,,57,127
40469,note_off,142,0,0,,10,,,57,127
40471,note_on,2,0,0,,12,,,59,127
40471,note_on,0,0,0,,2,,,50,127
40613,note_off,142,0,0,,10,,,81,127
40615,note_on,2,0,0,,12,,,83,127
40757,note_off,142,0,0,,12,,,83,127
40759,note_on,2,0,0,,0,,,84,127
40901,note_off,142,0,0,,0,,,84,127
40903,note_on,2,0,0,,2,,,86,127
41045,note_off,142,0,0,,2,,,86,127
41045,note_off,0,0,0,,2,,,50,127
41045,note_off,0,0,0,,12,,,59,127
41047,note_on,2,0,0,,12,,,59,127
41047,note_on,0,0,0,,4,,,52,127
41047,note_on,0,0,0,,0,,,84,127
41189,note_off,142,0,0,,0,,,84,127
41189,note_off,0,0,0,,4,,,76,127
41191,note_on,2,0,0,,12,,,83,127
41191,note_on,0,0,0,,2,,,74,127
41333,note_off,142,0,0,,2,,,74,127
41333,note_off,0,0,0,,12,,,83,127
41335,note_on,2,0,0,,10,,,81,127
41335,note_on,0,0,0,,0,,,72,127
41477,note_off,142,0,0,,0,,,72,127
41477,note_off,0,0,0,,10,,,81,127
41479,note_on,2,0,0,,8,,,80,127
41479,note_on,0,0,0,,12,,,71,127
41621,note_off,142,0,0,,12,,,71,127
41621,note_off,0,0,0,,8,,,80,127
41621,note_off,0,0,0,,4,,,52,127
41621,note_off,0,0,0,,12,,,59,127
41623,note_on,2,0,0,,10,,,57,127
41623,note_on,0,0,0,,10,,,45,127
41623,note_on,0,0,0,,10,,,81,127
41765,note_off,142,0,0,,10,,,81,127
41767,note_on,2,0,0,,0,,,84,127
41909,note_off,142,0,0,,0,,,84,127
41911,note_on,2,0,0,,8,,,80,127
42053,note_off,142,0,0,,8,,,80,127
42055,note_on,2,0,0,,10,,,81,127
42197,note_off,142,0,0,,10,,,45,127
42197,note_off,0,0,0,,10,,,57,127
42199,note_on,2,0,0,,10,,,57,127
42199,note_on,0,0,0,,4,,,52,127
42199,note_on,0,0,0,,0,,,48,127
42311,note_off,112,0,0,,10,,,81,127
42343,note_on,32,0,0,,12,,,83,127
42485,note_off,142,0,0,,12,,,83,127
42487,note_on,2,0,0,,3,,,75,127
42629,note_off,142,0,0,,3,,,75,127
42631,note_on,2,0,0,,4,,,76,127
42773,note_off,142,0,0,,0,,,48,127
42773,note_off,0,0,0,,4,,,52,127
42773,note_off,0,0,0,,10,,,57,127
42775,note_on,2,0,0,,10,,,57,127
42775,note_on,0,0,0,,2,,,50,127
42775,note_on,0,0,0,,12,,,59,127
42887,note_off,112,0,0,,4,,,76,127
42919,note_on,32,0,0,,5,,,77,127
43061,note_off,142,0,0,,5,,,77,127
43063,note_on,2,0,0,,4,,,76,127
43205,note_off,142,0,0,,4,,,76,127
43207,note_on,2,0,0,,2,,,74,127
43349,note_off,142,0,0,,2,,,74,127
43349,note_off,0,0,0,,12,,,59,127
43349,note_off,0,0,0,,2,,,50,127
43349,note_off,0,0,0,,10,,,57,127
43351,note_on,2,0,0,,4,,,52,127
43351,note_on,0,0,0,,12,,,59,127
43351,note_on,0,0,0,,0,,,72,127
43493,note_off,142,0,0,,0,,,72,127
43495,note_on,2,0,0,,12,,,71,127
43637,note_off,142,0,0,,12,,,71,127
43639,note_on,2,0,0,,10,,,69,127
43781,note_off,142,0,0,,10,,,69,127
43783,note_on,2,0,0,,12,,,71,127
43925,note_off,142,0,0,,12,,,71,127
43925,note_off,0,0,0,,12,,,59,127
43925,note_off,0,0,0,,4,,,52,127
43927,note_on,2,0,0,,0,,,72,127
44071,note_on,144,0,0,,10,,,69,127
44213,note_off,142,0,0,,10,,,69,127
44215,note_on,2,0,0,,3,,,63,127
44357,note_off,142,0,0,,0,,,72,127
44359,note_on,2,0,0,,10,,,69,127
44501,note_off,142,0,0,,10,,,69,127
44503,note_on,2,0,0,,12,,,71,127
44645,note_off,142,0,0,,3,,,63,127
44647,note_on,2,0,0,,4,,,64,127
44789,note_off,142,0,0,,4,,,64,127
44791,note_on,2,0,0,,8,,,56,127
44933,note_off,142,0,0,,12,,,71,127
44935,note_on,2,0,0,,0,,,72,127
45077,note_off,142,0,0,,0,,,72,127
45079,note_on,2,0,0,,12,,,71,127
45149,note_off,70,0,0,,12,,,71,127
45151,note_on,2,0,0,,0,,,72,127
45221,note_off,70,0,0,,0,,,72,127
45221,note_off,0,0,0,,8,,,56,127
45223,note_on,2,0,0,,10,,,57,127
45223,note_on,0,0,0,,2,,,74,127
45365,note_off,142,0,0,,10,,,57,127
45367,note_on,2,0,0,,3,,,51,127
45509,note_off,142,0,0,,2,,,74,127
45511,note_on,2,0,0,,0,,,72,127
45653,note_off,142,0,0,,0,,,72,127
45655,note_on,2,0,0,,12,,,71,127
45797,note_off,142,0,0,,3,,,51,127
45799,note_on,2,0,0,,4,,,52,127
45941,note_off,142,0,0,,4,,,52,127
45943,note_on,2,0,0,,8,,,44,127
46045,note_off,102,0,0,,12,,,71,127
46087,note_on,42,0,0,,2,,,74,127
46229,note_off,142,0,0,,2,,,74,127
46229,note_off,0,0,0,,8,,,44,127
46231,note_on,2,0,0,,10,,,45,127
46231,note_on,0,0,0,,0,,,72,127
46373,note_off,142,0,0,,0,,,72,127
46375,note_on,2,0,0,,12,,,71,127
46517,note_off,142,0,0,,12,,,71,127
46517,note_off,0,0,0,,10,,,45,127
46519,note_on,2,0,0,,0,,,48,127
46519,note_on,0,0,0,,10,,,69,127
46661,note_off,142,0,0,,10,,,69,127
46663,note_on,2,0,0,,4,,,76,127
46805,note_off,142,0,0,,4,,,76,127
46805,note_off,0,0,0,,0,,,48,127
46807,note_on,2,0,0,,2,,,50,127
46807,note_on,0,0,0,,0,,,72,127
46949,note_off,142,0,0,,0,,,72,127
46951,note_on,2,0,0,,12,,,71,127
47093,note_off,142,0,0,,12,,,71,127
47093,note_off,0,0,0,,2,,,50,127
47095,note_on,2,0,0,,4,,,52,127
47095,note_on,0,0,0,,10,,,69,127
47237,note_off,142,0,0,,10,,,69,127
47239,note_on,2,0,0,,12,,,71,127
47381,note_off,142,0,0,,12,,,71,127
47383,note_on,2,0,0,,0,,,72,127
47525,note_off,142,0,0,,4,,,52,127
47527,note_on,2,0,0,,10,,,69,127
47669,note_off,142,0,0,,10,,,69,127
47671,note_on,2,0,0,,3,,,63,127
47813,note_off,142,0,0,,0,,,72,127
47815,note_on,2,0,0,,10,,,69,127
47957,note_off,142,0,0,,10,,,69,127
47959,note_on,2,0,0,,12,,,71,127
48101,note_off,142,0,0,,3,,,63,127
48103,note_on,2,0,0,,4,,,64,127
48245,note_off,142,0,0,,4,,,64,127
48247,note_on,2,0,0,,8,,,56,127
48389,note_off,142,0,0,,12,,,71,127
48391,note_on,2,0,0,,0,,,72,127
48533,note_off,142,0,0,,0,,,72,127
48535,note_on,2,0,0,,12,,,71,127
48605,note_off,70,0,0,,12,,,71,127
48607,note_on,2,0,0,,0,,,72,127
48677,note_off,70,0,0,,0,,,72,127
48677,note_off,0,0,0,,8,,,56,127
48679,note_on,2,0,0,,10,,,57,127
48679,note_on,0,0,0,,2,,,74,127
48821,note_off,142,0,0,,10,,,57,127
48823,note_on,2,0,0,,3,,,51,127
48965,note_off,142,0,0,,2,,,74,127
48967,note_on,2,0,0,,0,,,72,127
49109,note_off,142,0,0,,0,,,72,127
49111,note_on,2,0,0,,12,,,71,127
49253,note_off,142,0,0,,3,,,51,127
49255,note_on,2,0,0,,4,,,52,127
49397,note_off,142,0,0,,4,,,52,127
49399,note_on,2,0,0,,8,,,44,127
49501,note_off,102,0,0,,12,,,71,127
49543,note_on,42,0,0,,2,,,74,127
49685,note_off,142,0,0,,2,,,74,127
49685,note_off,0,0,0,,8,,,44,127
49687,note_on,2,0,0,,10,,,45,127
49687,note_on,0,0,0,,0,,,72,127
49829,note_off,142,0,0,,0,,,72,127
49831,note_on,2,0,0,,12,,,71,127
49973,note_off,142,0,0,,12,,,71,127
49973,note_off,0,0,0,,10,,,45,127
49975,note_on,2,0,0,,0,,,48,127
49975,note_on,0,0,0,,10,,,69,127
50117,note_off,142,0,0,,10,,,69,127
50119,note_on,2,0,0,,4,,,76,127
50119,note_on,0,0,0,,0,,,72,127
50261,note_off,142,0,0,,0,,,72,127
50261,note_off,0,0,0,,4,,,76,127
50261,note_off,0,0,0,,0,,,48,127
50263,note_on,2,0,0,,2,,,50,127
50263,note_on,0,0,0,,2,,,74,127
50263,note_on,0,0,0,,12,,,71,127
50405,note_off,142,0,0,,12,,,71,127
50405,note_off,0,0,0,,2,,,74,127
50407,note_on,2,0,0,,0,,,72,127
50407,note_on,0,0,0,,10,,,69,127
50549,note_off,142,0,0,,10,,,69,127
50549,note_off,0,0,0,,0,,,72,127
50549,note_off,0,0,0,,2,,,50,127
50551,note_on,2,0,0,,4,,,52,127
50551,note_on,0,0,0,,12,,,71,127
50551,note_on,0,0,0,,8,,,68,127
50693,note_off,142,0,0,,8,,,68,127
50693,note_off,0,0,0,,12,,,71,127
50695,note_on,2,0,0,,2,,,74,127
50695,note_on,0,0,0,,12,,,71,127
50837,note_off,142,0,0,,12,,,71,127
50837,note_off,0,0,0,,2,,,74,127
50837,note_off,0,0,0,,4,,,52,127
50839,note_on,2,0,0,,4,,,52,127
50839,note_on,0,0,0,,10,,,45,127
50839,note_on,0,0,0,,10,,,57,127
50839,note_on,0,0,0,,4,,,76,127
50981,note_off,142,0,0,,4,,,76,127
50983,note_on,2,0,0,,0,,,84,127
51125,note_off,142,0,0,,0,,,84,127
51127,note_on,2,0,0,,8,,,80,127
51269,note_off,142,0,0,,8,,,80,127
51271,note_on,2,0,0,,10,,,81,127
51413,note_off,142,0,0,,10,,,57,127
51413,note_off,0,0,0,,10,,,45,127
51413,note_off,0,0,0,,4,,,52,127
51415,note_on,2,0,0,,4,,,52,127
51415,note_on,0,0,0,,0,,,48,127
51415,note_on,0,0,0,,10,,,57,127
51527,note_off,112,0,0,,10,,,81,127
51559,note_on,32,0,0,,12,,,83,127
51701,note_off,142,0,0,,12,,,83,127
51703,note_on,2,0,0,,4,,,76,127
51845,note_off,142,0,0,,4,,,76,127
51847,note_on,2,0,0,,5,,,77,127
51989,note_off,142,0,0,,10,,,57,127
51989,note_off,0,0,0,,0,,,48,127
51989,note_off,0,0,0,,4,,,52,127
51991,note_on,2,0,0,,2,,,50,127
51991,note_on,0,0,0,,10,,,57,127
51991,note_on,0,0,0,,12,,,59,127
52103,note_off,112,0,0,,5,,,77,127
52135,note_on,32,0,0,,7,,,79,127
52277,note_off,142,0,0,,7,,,79,127
52279,note_on,2,0,0,,12,,,71,127
52421,note_off,142,0,0,,12,,,71,127
52423,note_on,2,0,0,,0,,,72,127
52565,note_off,142,0,0,,12,,,59,127
52565,note_off,0,0,0,,10,,,57,127
52565,note_off,0,0,0,,2,,,50,127
52567,note_on,2,0,0,,12,,,59,127
52567,note_on,0,0,0,,4,,,52,127
52693,note_off,126,0,0,,0,,,72,127
52711,note_on,18,0,0,,2,,,74,127
52853,note_off,142,0,0,,2,,,74,127
52855,note_on,2,0,0,,10,,,69,127
52997,note_off,142,0,0,,10,,,69,127
52999,note_on,2,0,0,,8,,,68,127
53141,note_off,142,0,0,,4,,,52,127
53141,note_off,0,0,0,,12,,,59,127
53143,note_on,2,0,0,,4,,,52,127
53143,note_on,0,0,0,,10,,,45,127
53143,note_on,0,0,0,,10,,,57,127
53215,note_off,72,0,0,,8,,,68,127
53287,note_on,72,0,0,,0,,,84,127
53429,note_off,142,0,0,,0,,,84,127
53431,note_on,2,0,0,,8,,,80,127
53573,note_off,142,0,0,,8,,,80,127
53575,note_on,2,0,0,,10,,,81,127
53717,note_off,142,0,0,,10,,,57,127
53717,note_off,0,0,0,,10,,,45,127
53717,note_off,0,0,0,,4,,,52,127
53719,note_on,2,0,0,,4,,,52,127
53719,note_on,0,0,0,,0,,,48,127
53719,note_on,0,0,0,,10,,,57,127
53831,note_off,112,0,0,,10,,,81,127
53863,note_on,32,0,0,,12,,,83,127
54005,note_off,142,0,0,,12,,,83,127
54007,note_on,2,0,0,,4,,,76,127
54149,note_off,142,0,0,,4,,,76,127
54151,note_on,2,0,0,,5,,,77,127
54293,note_off,142,0,0,,10,,,57,127
54293,note_off,0,0,0,,0,,,48,127
54293,note_off,0,0,0,,4,,,52,127
54295,note_on,2,0,0,,2,,,50,127
54295,note_on,0,0,0,,10,,,57,127
54295,note_on,0,0,0,,12,,,59,127
54407,note_off,112,0,0,,5,,,77,127
54439,note_on,32,0,0,,7,,,79,127
54581,note_off,142,0,0,,7,,,79,127
54583,note_on,2,0,0,,12,,,71,127
54725,note_off,142,0,0,,12,,,71,127
54727,note_on,2,0,0,,0,,,72,127
54869,note_off,142,0,0,,12,,,59,127
54869,note_off,0,0,0,,10,,,57,127
54869,note_off,0,0,0,,2,,,50,127
54871,note_on,2,0,0,,4,,,52,127
54871,note_on,0,0,0,,12,,,59,127
54997,note_off,126,0,0,,0,,,72,127
55015,note_on,18,0,0,,2,,,74,127
55157,note_off,142,0,0,,2,,,74,127
55159,note_on,2,0,0,,10,,,69,127
55301,note_off,142,0,0,,10,,,69,127
55303,note_on,2,0,0,,8,,,68,127
55445,note_off,142,0,0,,8,,,68,127
55445,note_off,0,0,0,,12,,,59,127
55445,note_off,0,0,0,,4,,,52,127
55447,note_on,2,0,0,,10,,,45,127
55447,note_on,0,0,0,,10,,,57,127
55447,note_on,0,0,0,,10,,,69,127
55589,note_off,142,0,0,,10,,,69,127
55591,note_on,2,0,0,,12,,,71,127
55733,note_off,142,0,0,,12,,,71,127
55733,note_off,0,0,0,,10,,,45,127
55735,note_on,2,0,0,,0,,,48,127
55735,note_on,0,0,0,,0,,,72,127
55879,note_on,144,0,0,,4,,,64,127
56021,note_off,142,0,0,,4,,,64,127
56021,note_off,0,0,0,,0,,,48,127
56021,note_off,0,0,0,,10,,,57,127
56023,note_on,2,0,0,,2,,,50,127
56023,note_on,0,0,0,,5,,,65,127
56165,note_off,142,0,0,,5,,,65,127
56165,note_off,0,0,0,,0,,,72,127
56167,note_on,2,0,0,,12,,,71,127
56309,note_off,142,0,0,,12,,,71,127
56311,note_on,2,0,0,,12,,,59,127
56311,note_on,0,0,0,,10,,,69,127
56453,note_off,142,0,0,,10,,,69,127
56455,note_on,2,0,0,,8,,,68,127
56597,note_off,142,0,0,,8,,,68,127
56597,note_off,0,0,0,,12,,,59,127
56597,note_off,0,0,0,,2,,,50,127
56599,note_on,2,0,0,,0,,,48,127
56599,note_on,0,0,0,,10,,,69,127
56741,note_off,142,0,0,,10,,,69,127
56743,note_on,2,0,0,,4,,,64,127
56885,note_off,142,0,0,,4,,,64,127
56885,note_off,0,0,0,,0,,,48,127
56887,note_on,2,0,0,,2,,,50,127
56887,note_on,0,0,0,,5,,,65,127
57029,note_off,142,0,0,,5,,,65,127
57031,note_on,2,0,0,,2,,,62,127
57173,note_off,142,0,0,,2,,,62,127
57173,note_off,0,0,0,,2,,,50,127
57175,note_on,2,0,0,,4,,,52,127
57175,note_on,0,0,0,,0,,,60,127
57317,note_off,142,0,0,,0,,,60,127
57319,note_on,2,0,0,,10,,,69,127
57463,note_on,144,0,0,,4,,,40,127
57463,note_on,0,0,0,,12,,,59,127
57604,note_off,141,0,0,,10,,,69,127
57606,note_off,2,0,0,,12,,,59,127
57608,note_on,2,0,0,,8,,,68,127
57750,note_off,142,0,0,,8,,,68,127
57750,note_off,0,0,0,,4,,,40,127
57750,note_off,0,0,0,,4,,,52,127
57752,note_on,2,0,0,,10,,,45,127
57752,note_on,0,0,0,,10,,,57,127
57752,note_on,0,0,0,,8,,,68,127
58326,note_off,574,0,0,,8,,,68,127
58328,note_on,2,0,0,,10,,,69,127
58902,note_off,574,0,0,,10,,,69,127
58902,note_off,0,0,0,,10,,,57,127
58902,note_off,0,0,0,,10,,,45,127
58904,note_on,2,0,0,,4,,,64,127
58904,note_on,0,0,0,,10,,,57,127
59048,note_on,144,0,0,,4,,,76,127
59190,note_off,142,0,0,,4,,,76,127
59192,note_on,2,0,0,,6,,,78,127
59334,note_off,142,0,0,,6,,,78,127
59336,note_on,2,0,0,,4,,,76,127
59478,note_off,142,0,0,,4,,,76,127
59478,note_off,0,0,0,,10,,,57,127
59478,note_off,0,0,0,,4,,,64,127
59480,note_on,2,0,0,,4,,,64,127
59480,note_on,0,0,0,,8,,,56,127
59480,note_on,0,0,0,,12,,,83,127
59624,note_on,144,0,0,,2,,,74,127
59765,note_off,141,0,0,,12,,,83,127
59767,note_off,2,0,0,,2,,,74,127
59769,note_on,2,0,0,,4,,,76,127
59911,note_off,142,0,0,,4,,,76,127
59913,note_on,2,0,0,,2,,,74,127
60055,note_off,142,0,0,,2,,,74,127
60055,note_off,0,0,0,,8,,,56,127
60055,note_off,0,0,0,,4,,,64,127
60057,note_on,2,0,0,,10,,,57,127
60057,note_on,0,0,0,,4,,,64,127
60057,note_on,0,0,0,,1,,,73,127
60199,note_off,142,0,0,,1,,,73,127
60201,note_on,2,0,0,,4,,,76,127
60343,note_off,142,0,0,,4,,,76,127
60345,note_on,2,0,0,,6,,,78,127
60487,note_off,142,0,0,,6,,,78,127
60489,note_on,2,0,0,,4,,,76,127
60631,note_off,142,0,0,,4,,,76,127
60631,note_off,0,0,0,,4,,,64,127
60631,note_off,0,0,0,,10,,,57,127
60633,note_on,2,0,0,,4,,,64,127
60633,note_on,0,0,0,,8,,,56,127
60633,note_on,0,0,0,,12,,,83,127
60777,note_on,144,0,0,,2,,,74,127
60919,note_off,142,0,0,,2,,,74,127
60921,note_on,2,0,0,,4,,,76,127
61063,note_off,142,0,0,,4,,,76,127
61065,note_on,2,0,0,,2,,,74,127
61203,note_off,138,0,0,,12,,,83,127
61207,note_off,4,0,0,,2,,,74,127
61207,note_off,0,0,0,,8,,,56,127
61207,note_off,0,0,0,,4,,,64,127
61209,note_on,2,0,0,,10,,,57,127
61209,note_on,0,0,0,,4,,,64,127
61209,note_on,0,0,0,,1,,,73,127
61351,note_off,142,0,0,,1,,,73,127
61353,note_on,2,0,0,,10,,,81,127
61495,note_off,142,0,0,,10,,,81,127
61497,note_on,2,0,0,,12,,,83,127
61639,note_off,142,0,0,,12,,,83,127
61641,note_on,2,0,0,,10,,,81,127
61783,note_off,142,0,0,,4,,,64,127
61783,note_off,0,0,0,,10,,,57,127
61785,note_on,2,0,0,,7,,,67,127
61785,note_on,0,0,0,,10,,,69,127
61785,note_on,0,0,0,,1,,,73,127
61927,note_off,142,0,0,,1,,,73,127
61927,note_off,0,0,0,,10,,,81,127
61929,note_on,2,0,0,,10,,,81,127
62071,note_off,142,0,0,,10,,,81,127
62073,note_on,2,0,0,,12,,,83,127
62215,note_off,142,0,0,,12,,,83,127
62217,note_on,2,0,0,,10,,,81,127
62359,note_off,142,0,0,,10,,,69,127
62359,note_off,0,0,0,,7,,,67,127
62361,note_on,2,0,0,,6,,,66,127
62361,note_on,0,0,0,,10,,,69,127
62361,note_on,0,0,0,,2,,,74,127
62503,note_off,142,0,0,,2,,,74,127
62503,note_off,0,0,0,,10,,,81,127
62505,note_on,2,0,0,,10,,,81,127
62647,note_off,142,0,0,,10,,,81,127
62649,note_on,2,0,0,,12,,,83,127
62791,note_off,142,0,0,,12,,,83,127
62793,note_on,2,0,0,,10,,,81,127
62935,note_off,142,0,0,,10,,,69,127
62935,note_off,0,0,0,,6,,,66,127
62937,note_on,2,0,0,,1,,,61,127
62937,note_on,0,0,0,,4,,,64,127
62937,note_on,0,0,0,,4,,,76,127
63079,note_off,142,0,0,,4,,,76,127
63079,note_off,0,0,0,,10,,,81,127
63081,note_on,2,0,0,,10,,,81,127
63223,note_off,142,0,0,,10,,,81,127
63225,note_on,2,0,0,,12,,,83,127
63367,note_off,142,0,0,,12,,,83,127
63369,note_on,2,0,0,,10,,,81,127
63511,note_off,142,0,0,,10,,,81,127
63511,note_off,0,0,0,,4,,,64,127
63511,note_off,0,0,0,,1,,,61,127
63513,note_on,2,0,0,,2,,,62,127
63513,note_on,0,0,0,,6,,,78,127
63655,note_off,142,0,0,,2,,,62,127
63657,note_on,2,0,0,,10,,,69,127
63799,note_off,142,0,0,,10,,,69,127
63801,note_on,2,0,0,,12,,,71,127
63943,note_off,142,0,0,,12,,,71,127
63945,note_on,2,0,0,,10,,,69,127
64087,note_off,142,0,0,,10,,,69,127
64089,note_on,2,0,0,,0,,,60,127
64158,note_off,69,0,0,,6,,,78,127
64161,note_on,3,0,0,,4,,,76,127
64231,note_off,70,0,0,,4,,,76,127
64231,note_off,0,0,0,,0,,,60,127
64233,note_on,2,0,0,,10,,,69,127
64233,note_on,0,0,0,,6,,,78,127
64303,note_off,70,0,0,,6,,,78,127
64305,note_on,2,0,0,,4,,,76,127
64375,note_off,70,0,0,,4,,,76,127
64375,note_off,0,0,0,,10,,,69,127
64377,note_on,2,0,0,,12,,,71,127
64377,note_on,0,0,0,,6,,,78,127
64447,note_off,70,0,0,,6,,,78,127
64449,note_on,2,0,0,,4,,,76,127
64519,note_off,70,0,0,,4,,,76,127
64519,note_off,0,0,0,,12,,,71,127
64521,note_on,2,0,0,,10,,,69,127
64521,note_on,0,0,0,,6,,,78,127
64591,note_off,70,0,0,,6,,,78,127
64593,note_on,2,0,0,,4,,,76,127
64663,note_off,70,0,0,,4,,,76,127
64663,note_off,0,0,0,,10,,,69,127
64665,note_on,2,0,0,,12,,,59,127
64665,note_on,0,0,0,,2,,,74,127
64807,note_off,142,0,0,,12,,,59,127
64809,note_on,2,0,0,,7,,,67,127
64951,note_off,142,0,0,,7,,,67,127
64953,note_on,2,0,0,,10,,,69,127
65095,note_off,142,0,0,,10,,,69,127
65097,note_on,2,0,0,,7,,,67,127
65239,note_off,142,0,0,,7,,,67,127
65241,note_on,2,0,0,,10,,,57,127
65310,note_off,69,0,0,,2,,,74,127
65313,note_on,3,0,0,,0,,,72,127
65383,note_off,70,0,0,,0,,,72,127
65383,note_off,0,0,0,,10,,,57,127
65385,note_on,2,0,0,,6,,,66,127
65385,note_on,0,0,0,,2,,,74,127
65455,note_off,70,0,0,,2,,,74,127
65457,note_on,2,0,0,,0,,,72,127
65527,note_off,70,0,0,,0,,,72,127
65527,note_off,0,0,0,,6,,,66,127
65529,note_on,2,0,0,,7,,,67,127
65529,note_on,0,0,0,,2,,,74,127
65599,note_off,70,0,0,,2,,,74,127
65601,note_on,2,0,0,,0,,,72,127
65671,note_off,70,0,0,,0,,,72,127
65671,note_off,0,0,0,,7,,,67,127
65673,note_on,2,0,0,,6,,,66,127
65673,note_on,0,0,0,,2,,,74,127
65743,note_off,70,0,0,,2,,,74,127
65745,note_on,2,0,0,,0,,,72,127
65815,note_off,70,0,0,,0,,,72,127
65815,note_off,0,0,0,,6,,,66,127
65817,note_on,2,0,0,,7,,,55,127
65817,note_on,0,0,0,,12,,,71,127
65959,note_off,142,0,0,,7,,,55,127
65961,note_on,2,0,0,,4,,,64,127
66103,note_off,142,0,0,,4,,,64,127
66105,note_on,2,0,0,,5,,,65,127
66247,note_off,142,0,0,,5,,,65,127
66249,note_on,2,0,0,,4,,,64,127
66391,note_off,142,0,0,,4,,,64,127
66393,note_on,2,0,0,,5,,,53,127
66462,note_off,69,0,0,,12,,,71,127
66465,note_on,3,0,0,,10,,,69,127
66535,note_off,70,0,0,,10,,,69,127
66535,note_off,0,0,0,,5,,,53,127
66537,note_on,2,0,0,,2,,,62,127
66537,note_on,0,0,0,,12,,,71,127
66607,note_off,70,0,0,,12,,,71,127
66609,note_on,2,0,0,,10,,,69,127
66679,note_off,70,0,0,,10,,,69,127
66679,note_off,0,0,0,,2,,,62,127
66681,note_on,2,0,0,,4,,,64,127
66681,note_on,0,0,0,,12,,,71,127
66751,note_off,70,0,0,,12,,,71,127
66753,note_on,2,0,0,,10,,,69,127
66823,note_off,70,0,0,,10,,,69,127
66823,note_off,0,0,0,,4,,,64,127
66825,note_on,2,0,0,,2,,,62,127
66825,note_on,0,0,0,,12,,,71,127
66895,note_off,70,0,0,,12,,,71,127
66897,note_on,2,0,0,,10,,,69,127
66967,note_off,70,0,0,,10,,,69,127
66967,note_off,0,0,0,,2,,,62,127
66969,note_on,2,0,0,,4,,,52,127
66969,note_on,0,0,0,,2,,,86,127
67111,note_off,142,0,0,,2,,,86,127
67113,note_on,2,0,0,,12,,,83,127
67255,note_off,142,0,0,,12,,,83,127
67257,note_on,2,0,0,,8,,,80,127
67399,note_off,142,0,0,,8,,,80,127
67401,note_on,2,0,0,,5,,,77,127
67543,note_off,142,0,0,,5,,,77,127
67545,note_on,2,0,0,,2,,,74,127
67687,note_off,142,0,0,,2,,,74,127
67689,note_on,2,0,0,,12,,,71,127
67831,note_off,142,0,0,,12,,,71,127
67833,note_on,2,0,0,,8,,,68,127
67975,note_off,142,0,0,,8,,,68,127
67977,note_on,2,0,0,,2,,,74,127
68119,note_off,142,0,0,,4,,,52,127
68121,note_on,2,0,0,,10,,,57,127
68121,note_on,0,0,0,,5,,,65,127
68407,note_off,286,0,0,,5,,,65,127
68409,note_off,2,0,0,,2,,,74,127
68409,note_on,0,0,0,,0,,,72,127
68409,note_on,0,0,0,,4,,,64,127
68551,note_off,142,0,0,,4,,,64,127
68551,note_off,0,0,0,,0,,,72,127
68553,note_on,2,0,0,,12,,,71,127
68553,note_on,0,0,0,,2,,,62,127
68695,note_off,142,0,0,,2,,,62,127
68695,note_off,0,0,0,,12,,,71,127
68697,note_on,2,0,0,,10,,,45,127
68697,note_on,0,0,0,,12,,,71,127
68697,note_on,0,0,0,,2,,,62,127
68983,note_off,286,0,0,,2,,,62,127
68983,note_off,0,0,0,,12,,,71,127
68985,note_on,2,0,0,,4,,,64,127
68985,note_on,0,0,0,,0,,,72,127
69271,note_off,286,0,0,,0,,,72,127
69271,note_off,0,0,0,,4,,,64,127
69271,note_off,0,0,0,,10,,,45,127
69271,note_off,0,0,0,,10,,,57,127
69273,note_on,2,0,0,,10,,,57,127
69273,note_on,0,0,0,,0,,,84,127
69415,note_off,142,0,0,,0,,,84,127
69417,note_on,2,0,0,,10,,,81,127
69559,note_off,142,0,0,,10,,,81,127
69561,note_on,2,0,0,,6,,,78,127
69703,note_off,142,0,0,,6,,,78,127
69705,note_on,2,0,0,,3,,,75,127
69847,note_off,142,0,0,,3,,,75,127
69849,note_on,2,0,0,,0,,,72,127
69991,note_off,142,0,0,,0,,,72,127
69993,note_on,2,0,0,,10,,,69,127
70135,note_off,142,0,0,,10,,,69,127
70137,note_on,2,0,0,,6,,,66,127
70279,note_off,142,0,0,,6,,,66,127
70281,note_on,2,0,0,,0,,,72,127
70423,note_off,142,0,0,,10,,,57,127
70425,note_on,2,0,0,,7,,,55,127
70425,note_on,0,0,0,,3,,,63,127
70711,note_off,286,0,0,,3,,,63,127
70713,note_off,2,0,0,,0,,,72,127
70713,note_on,0,0,0,,2,,,62,127
70713,note_on,0,0,0,,11,,,70,127
70855,note_off,142,0,0,,11,,,70,127
70855,note_off,0,0,0,,2,,,62,127
70857,note_on,2,0,0,,10,,,69,127
70857,note_on,0,0,0,,1,,,61,127
70999,note_off,142,0,0,,1,,,61,127
70999,note_off,0,0,0,,10,,,69,127
71001,note_on,2,0,0,,7,,,43,127
71001,note_on,0,0,0,,10,,,69,127
71001,note_on,0,0,0,,1,,,61,127
71287,note_off,286,0,0,,1,,,61,127
71287,note_off,0,0,0,,10,,,69,127
71289,note_on,2,0,0,,11,,,70,127
71289,note_on,0,0,0,,2,,,62,127
71575,note_off,286,0,0,,2,,,62,127
71575,note_off,0,0,0,,11,,,70,127
71575,note_off,0,0,0,,7,,,43,127
71575,note_off,0,0,0,,7,,,55,127
71577,note_on,2,0,0,,7,,,55,127
71577,note_on,0,0,0,,11,,,82,127
71719,note_off,142,0,0,,11,,,82,127
71721,note_on,2,0,0,,7,,,79,127
71863,note_off,142,0,0,,7,,,79,127
71865,note_on,2,0,0,,4,,,76,127
72007,note_off,142,0,0,,4,,,76,127
72009,note_on,2,0,0,,0,,,72,127
72151,note_off,142,0,0,,0,,,72,127
72153,note_on,2,0,0,,11,,,70,127
72295,note_off,142,0,0,,11,,,70,127
72297,note_on,2,0,0,,7,,,67,127
72439,note_off,142,0,0,,7,,,67,127
72441,note_on,2,0,0,,4,,,64,127
72583,note_off,142,0,0,,4,,,64,127
72585,note_on,2,0,0,,11,,,70,127
72727,note_off,142,0,0,,7,,,55,127
72729,note_on,2,0,0,,0,,,60,127
72729,note_on,0,0,0,,0,,,72,127
73015,note_off,286,0,0,,0,,,72,127
73017,note_off,2,0,0,,11,,,70,127
73017,note_on,0,0,0,,10,,,69,127
73159,note_off,142,0,0,,10,,,69,127
73161,note_on,2,0,0,,7,,,67,127
73303,note_off,142,0,0,,7,,,67,127
73305,note_on,2,0,0,,7,,,67,127
73591,note_off,286,0,0,,7,,,67,127
73593,note_on,2,0,0,,10,,,69,127
73879,note_off,286,0,0,,10,,,69,127
73879,note_off,0,0,0,,0,,,60,127
73881,note_on,2,0,0,,5,,,41,127
74023,note_off,142,0,0,,5,,,41,127
74025,note_on,2,0,0,,11,,,46,127
74167,note_off,142,0,0,,11,,,46,127
74169,note_on,2,0,0,,2,,,50,127
74311,note_off,142,0,0,,2,,,50,127
74313,note_on,2,0,0,,5,,,53,127
74455,note_off,142,0,0,,5,,,53,127
74457,note_on,2,0,0,,11,,,58,127
74599,note_off,142,0,0,,11,,,58,127
74601,note_on,2,0,0,,2,,,62,127
74743,note_off,142,0,0,,2,,,62,127
74745,note_on,2,0,0,,4,,,64,127
74889,note_on,144,0,0,,7,,,79,127
74889,note_on,0,0,0,,11,,,70,127
75031,note_off,142,0,0,,11,,,70,127
75031,note_off,0,0,0,,7,,,79,127
75031,note_off,0,0,0,,4,,,64,127
75033,note_on,2,0,0,,5,,,65,127
75033,note_on,0,0,0,,11,,,70,127
75033,note_on,0,0,0,,7,,,79,127
75319,note_off,286,0,0,,7,,,79,127
75319,note_off,0,0,0,,11,,,70,127
75321,note_on,2,0,0,,5,,,77,127
75321,note_on,0,0,0,,10,,,69,127
75463,note_off,142,0,0,,10,,,69,127
75463,note_off,0,0,0,,5,,,77,127
75465,note_on,2,0,0,,4,,,76,127
75465,note_on,0,0,0,,7,,,67,127
75607,note_off,142,0,0,,7,,,67,127
75607,note_off,0,0,0,,4,,,76,127
75609,note_on,2,0,0,,5,,,53,127
75609,note_on,0,0,0,,7,,,67,127
75609,note_on,0,0,0,,4,,,76,127
75895,note_off,286,0,0,,4,,,76,127
75895,note_off,0,0,0,,7,,,67,127
75895,note_off,0,0,0,,5,,,65,127
75897,note_on,2,0,0,,10,,,69,127
75897,note_on,0,0,0,,5,,,77,127
76183,note_off,286,0,0,,5,,,77,127
76183,note_off,0,0,0,,10,,,69,127
76183,note_off,0,0,0,,5,,,53,127
76185,note_on,2,0,0,,5,,,41,127
76327,note_off,142,0,0,,5,,,41,127
76329,note_on,2,0,0,,11,,,46,127
76471,note_off,142,0,0,,11,,,46,127
76473,note_on,2,0,0,,2,,,50,127
76615,note_off,142,0,0,,2,,,50,127
76617,note_on,2,0,0,,5,,,53,127
76759,note_off,142,0,0,,5,,,53,127
76761,note_on,2,0,0,,11,,,58,127
76903,note_off,142,0,0,,11,,,58,127
76905,note_on,2,0,0,,2,,,62,127
77047,note_off,142,0,0,,2,,,62,127
77049,note_on,2,0,0,,4,,,64,127
77193,note_on,144,0,0,,7,,,79,127
77193,note_on,0,0,0,,11,,,70,127
77335,note_off,142,0,0,,11,,,70,127
77335,note_off,0,0,0,,7,,,79,127
77335,note_off,0,0,0,,4,,,64,127
77337,note_on,2,0,0,,5,,,65,127
77337,note_on,0,0,0,,11,,,70,127
77337,note_on,0,0,0,,7,,,79,127
77623,note_off,286,0,0,,7,,,79,127
77623,note_off,0,0,0,,11,,,70,127
77625,note_on,2,0,0,,10,,,69,127
77625,note_on,0,0,0,,5,,,77,127
77767,note_off,142,0,0,,5,,,77,127
77767,note_off,0,0,0,,10,,,69,127
77769,note_on,2,0,0,,4,,,76,127
77769,note_on,0,0,0,,7,,,67,127
77911,note_off,142,0,0,,7,,,67,127
77911,note_off,0,0,0,,4,,,76,127
77913,note_on,2,0,0,,5,,,53,127
77913,note_on,0,0,0,,4,,,76,127
77913,note_on,0,0,0,,7,,,67,127
78199,note_off,286,0,0,,7,,,67,127
78199,note_off,0,0,0,,4,,,76,127
78199,note_off,0,0,0,,5,,,65,127
78201,note_on,2,0,0,,10,,,69,127
78201,note_on,0,0,0,,5,,,77,127
78487,note_off,286,0,0,,5,,,77,127
78487,note_off,0,0,0,,10,,,69,127
78487,note_off,0,0,0,,5,,,53,127
78489,note_on,2,0,0,,7,,,43,127
78631,note_off,142,0,0,,7,,,43,127
78633,note_on,2,0,0,,12,,,47,127
78775,note_off,142,0,0,,12,,,47,127
78777,note_on,2,0,0,,2,,,50,127
78919,note_off,142,0,0,,2,,,50,127
78921,note_on,2,0,0,,7,,,55,127
79063,note_off,142,0,0,,7,,,55,127
79065,note_on,2,0,0,,12,,,59,127
79207,note_off,142,0,0,,12,,,59,127
79209,note_on,2,0,0,,2,,,62,127
79351,note_off,142,0,0,,2,,,62,127
79353,note_on,2,0,0,,5,,,65,127
79497,note_on,144,0,0,,2,,,74,127
79639,note_off,142,0,0,,2,,,74,127
79641,note_on,2,0,0,,12,,,71,127
79927,note_off,286,0,0,,12,,,71,127
79927,note_off,0,0,0,,5,,,65,127
79929,note_on,2,0,0,,5,,,65,127
79929,note_on,0,0,0,,2,,,74,127
79999,note_off,70,0,0,,2,,,74,127
79999,note_off,0,0,0,,5,,,65,127
80001,note_on,2,0,0,,4,,,64,127
80001,note_on,0,0,0,,0,,,72,127
80071,note_off,70,0,0,,0,,,72,127
80071,note_off,0,0,0,,4,,,64,127
80073,note_on,2,0,0,,2,,,62,127
80073,note_on,0,0,0,,12,,,71,127
80215,note_off,142,0,0,,12,,,71,127
80215,note_off,0,0,0,,2,,,62,127
80217,note_on,2,0,0,,2,,,62,127
80217,note_on,0,0,0,,12,,,71,127
80503,note_off,286,0,0,,12,,,71,127
80503,note_off,0,0,0,,2,,,62,127
80505,note_on,2,0,0,,4,,,64,127
80505,note_on,0,0,0,,0,,,72,127
80791,note_off,286,0,0,,0,,,72,127
80791,note_off,0,0,0,,4,,,64,127
80793,note_on,2,0,0,,7,,,43,127
80935,note_off,142,0,0,,7,,,43,127
80937,note_on,2,0,0,,12,,,47,127
81079,note_off,142,0,0,,12,,,47,127
81081,note_on,2,0,0,,2,,,50,127
81223,note_off,142,0,0,,2,,,50,127
81225,note_on,2,0,0,,7,,,55,127
81367,note_off,142,0,0,,7,,,55,127
81369,note_on,2,0,0,,12,,,59,127
81511,note_off,142,0,0,,12,,,59,127
81513,note_on,2,0,0,,2,,,62,127
81655,note_off,142,0,0,,2,,,62,127
81657,note_on,2,0,0,,5,,,65,127
81801,note_on,144,0,0,,2,,,74,127
81943,note_off,142,0,0,,2,,,74,127
81945,note_on,2,0,0,,12,,,71,127
82231,note_off,286,0,0,,12,,,71,127
82231,note_off,0,0,0,,5,,,65,127
82233,note_on,2,0,0,,5,,,65,127
82233,note_on,0,0,0,,2,,,74,127
82303,note_off,70,0,0,,2,,,74,127
82303,note_off,0,0,0,,5,,,65,127
82305,note_on,2,0,0,,4,,,64,127
82305,note_on,0,0,0,,0,,,72,127
82375,note_off,70,0,0,,0,,,72,127
82375,note_off,0,0,0,,4,,,64,127
82377,note_on,2,0,0,,2,,,62,127
82377,note_on,0,0,0,,12,,,71,127
82519,note_off,142,0,0,,12,,,71,127
82519,note_off,0,0,0,,2,,,62,127
82521,note_on,2,0,0,,2,,,62,127
82521,note_on,0,0,0,,12,,,71,127
82807,note_off,286,0,0,,12,,,71,127
82807,note_off,0,0,0,,2,,,62,127
82809,note_on,2,0,0,,4,,,64,127
82809,note_on,0,0,0,,0,,,72,127
83095,note_off,286,0,0,,0,,,72,127
83095,note_off,0,0,0,,4,,,64,127
83097,note_on,2,0,0,,7,,,43,127
83097,note_on,0,0,0,,10,,,81,127
83239,note_off,142,0,0,,7,,,43,127
83241,note_on,2,0,0,,11,,,46,127
83383,note_off,142,0,0,,11,,,46,127
83383,note_off,0,0,0,,10,,,81,127
83385,note_on,2,0,0,,1,,,49,127
83385,note_on,0,0,0,,7,,,79,127
83527,note_off,142,0,0,,1,,,49,127
83529,note_on,2,0,0,,4,,,52,127
83671,note_off,142,0,0,,4,,,52,127
83673,note_on,2,0,0,,7,,,55,127
83815,note_off,142,0,0,,7,,,55,127
83815,note_off,0,0,0,,7,,,79,127
83817,note_on,2,0,0,,11,,,58,127
83817,note_on,0,0,0,,5,,,77,127
83959,note_off,142,0,0,,5,,,77,127
83959,note_off,0,0,0,,11,,,58,127
83961,note_on,2,0,0,,1,,,61,127
83961,note_on,0,0,0,,4,,,76,127
84103,note_off,142,0,0,,4,,,76,127
84103,note_off,0,0,0,,1,,,61,127
84105,note_on,2,0,0,,4,,,64,127
84105,note_on,0,0,0,,2,,,74,127
84247,note_off,142,0,0,,2,,,74,127
84247,note_off,0,0,0,,4,,,64,127
84249,note_on,2,0,0,,7,,,67,127
84249,note_on,0,0,0,,1,,,73,127
84535,note_off,286,0,0,,1,,,73,127
84535,note_off,0,0,0,,7,,,67,127
84537,note_on,2,0,0,,7,,,67,127
84537,note_on,0,0,0,,4,,,76,127
84607,note_off,70,0,0,,4,,,76,127
84607,note_off,0,0,0,,7,,,67,127
84609,note_on,2,0,0,,5,,,65,127
84609,note_on,0,0,0,,2,,,74,127
84679,note_off,70,0,0,,2,,,74,127
84679,note_off,0,0,0,,5,,,65,127
84681,note_on,2,0,0,,4,,,64,127
84681,note_on,0,0,0,,1,,,73,127
84823,note_off,142,0,0,,1,,,73,127
84823,note_off,0,0,0,,4,,,64,127
84825,note_on,2,0,0,,4,,,64,127
84825,note_on,0,0,0,,1,,,73,127
85111,note_off,286,0,0,,1,,,73,127
85111,note_off,0,0,0,,4,,,64,127
85113,note_on,2,0,0,,5,,,65,127
85113,note_on,0,0,0,,2,,,74,127
85399,note_off,286,0,0,,2,,,74,127
85399,note_off,0,0,0,,5,,,65,127
85401,note_on,2,0,0,,7,,,43,127
85401,note_on,0,0,0,,10,,,81,127
85543,note_off,142,0,0,,7,,,43,127
85545,note_on,2,0,0,,11,,,46,127
85687,note_off,142,0,0,,11,,,46,127
85687,note_off,0,0,0,,10,,,81,127
85689,note_on,2,0,0,,1,,,49,127
85689,note_on,0,0,0,,7,,,79,127
85831,note_off,142,0,0,,1,,,49,127
85833,note_on,2,0,0,,4,,,52,127
85975,note_off,142,0,0,,4,,,52,127
85977,note_on,2,0,0,,7,,,55,127
86119,note_off,142,0,0,,7,,,55,127
86119,note_off,0,0,0,,7,,,79,127
86121,note_on,2,0,0,,11,,,58,127
86121,note_on,0,0,0,,5,,,77,127
86263,note_off,142,0,0,,5,,,77,127
86263,note_off,0,0,0,,11,,,58,127
86265,note_on,2,0,0,,1,,,61,127
86265,note_on,0,0,0,,4,,,76,127
86407,note_off,142,0,0,,4,,,76,127
86407,note_off,0,0,0,,1,,,61,127
86409,note_on,2,0,0,,4,,,64,127
86409,note_on,0,0,0,,2,,,74,127
86551,note_off,142,0,0,,2,,,74,127
86551,note_off,0,0,0,,4,,,64,127
86553,note_on,2,0,0,,7,,,67,127
86553,note_on,0,0,0,,1,,,73,127
86839,note_off,286,0,0,,1,,,73,127
86839,note_off,0,0,0,,7,,,67,127
86841,note_on,2,0,0,,7,,,67,127
86841,note_on,0,0,0,,4,,,76,127
86911,note_off,70,0,0,,4,,,76,127
86911,note_off,0,0,0,,7,,,67,127
86913,note_on,2,0,0,,5,,,65,127
86913,note_on,0,0,0,,2,,,74,127
86983,note_off,70,0,0,,2,,,74,127
86983,note_off,0,0,0,,5,,,65,127
86985,note_on,2,0,0,,4,,,64,127
86985,note_on,0,0,0,,1,,,73,127
87127,note_off,142,0,0,,1,,,73,127
87127,note_off,0,0,0,,4,,,64,127
87129,note_on,2,0,0,,4,,,64,127
87129,note_on,0,0,0,,1,,,73,127
87415,note_off,286,0,0,,1,,,73,127
87415,note_off,0,0,0,,4,,,64,127
87417,note_on,2,0,0,,5,,,65,127
87417,note_on,0,0,0,,2,,,74,127
87703,note_off,286,0,0,,5,,,65,127
87705,note_on,2,0,0,,10,,,57,127
87705,note_on,0,0,0,,2,,,62,127
87705,note_on,0,0,0,,5,,,53,127
87849,note_on,144,0,0,,2,,,86,127
87987,note_off,138,0,0,,2,,,74,127
87991,note_off,4,0,0,,2,,,86,127
87993,note_on,2,0,0,,8,,,80,127
88135,note_off,142,0,0,,8,,,80,127
88137,note_on,2,0,0,,10,,,81,127
88279,note_off,142,0,0,,5,,,53,127
88279,note_off,0,0,0,,2,,,62,127
88279,note_off,0,0,0,,10,,,57,127
88281,note_on,2,0,0,,10,,,57,127
88281,note_on,0,0,0,,2,,,62,127
88281,note_on,0,0,0,,5,,,53,127
88393,note_off,112,0,0,,10,,,81,127
88425,note_on,32,0,0,,11,,,82,127
88567,note_off,142,0,0,,11,,,82,127
88569,note_on,2,0,0,,1,,,73,127
88711,note_off,142,0,0,,1,,,73,127
88713,note_on,2,0,0,,2,,,74,127
88855,note_off,142,0,0,,5,,,53,127
88855,note_off,0,0,0,,2,,,62,127
88855,note_off,0,0,0,,10,,,57,127
88857,note_on,2,0,0,,11,,,58,127
88857,note_on,0,0,0,,4,,,64,127
88857,note_on,0,0,0,,7,,,55,127
88969,note_off,112,0,0,,2,,,74,127
89001,note_on,32,0,0,,4,,,76,127
89143,note_off,142,0,0,,4,,,76,127
89145,note_on,2,0,0,,5,,,77,127
89287,note_off,142,0,0,,5,,,77,127
89289,note_on,2,0,0,,7,,,79,127
89431,note_off,142,0,0,,7,,,55,127
89431,note_off,0,0,0,,4,,,64,127
89431,note_off,0,0,0,,11,,,58,127
89433,note_on,2,0,0,,2,,,62,127
89433,note_on,0,0,0,,4,,,64,127
89433,note_on,0,0,0,,8,,,56,127
89529,note_off,96,0,0,,7,,,79,127
89577,note_on,48,0,0,,5,,,77,127
89719,note_off,142,0,0,,5,,,77,127
89721,note_on,2,0,0,,4,,,76,127
89863,note_off,142,0,0,,4,,,76,127
89865,note_on,2,0,0,,2,,,74,127
90007,note_off,142,0,0,,2,,,74,127
90007,note_off,0,0,0,,8,,,56,127
90007,note_off,0,0,0,,4,,,64,127
90007,note_off,0,0,0,,2,,,62,127
90009,note_on,2,0,0,,10,,,57,127
90009,note_on,0,0,0,,4,,,64,127
90009,note_on,0,0,0,,1,,,73,127
90135,note_off,126,0,0,,1,,,73,127
90153,note_on,18,0,0,,2,,,86,127
90295,note_off,142,0,0,,2,,,86,127
90297,note_on,2,0,0,,8,,,80,127
90439,note_off,142,0,0,,8,,,80,127
90441,note_on,2,0,0,,10,,,81,127
90583,note_off,142,0,0,,4,,,64,127
90583,note_off,0,0,0,,10,,,57,127
90585,note_on,2,0,0,,10,,,57,127
90585,note_on,0,0,0,,2,,,62,127
90585,note_on,0,0,0,,5,,,53,127
90697,note_off,112,0,0,,10,,,81,127
90729,note_on,32,0,0,,11,,,82,127
90871,note_off,142,0,0,,11,,,82,127
90873,note_on,2,0,0,,1,,,73,127
91015,note_off,142,0,0,,1,,,73,127
91017,note_on,2,0,0,,2,,,74,127
91159,note_off,142,0,0,,5,,,53,127
91159,note_off,0,0,0,,2,,,62,127
91159,note_off,0,0,0,,10,,,57,127
91161,note_on,2,0,0,,11,,,58,127
91161,note_on,0,0,0,,4,,,64,127
91161,note_on,0,0,0,,7,,,55,127
91273,note_off,112,0,0,,2,,,74,127
91305,note_on,32,0,0,,4,,,76,127
91447,note_off,142,0,0,,4,,,76,127
91449,note_on,2,0,0,,5,,,77,127
91591,note_off,142,0,0,,5,,,77,127
91593,note_on,2,0,0,,7,,,79,127
91735,note_off,142,0,0,,7,,,55,127
91735,note_off,0,0,0,,4,,,64,127
91735,note_off,0,0,0,,11,,,58,127
91737,note_on,2,0,0,,8,,,56,127
91737,note_on,0,0,0,,2,,,62,127
91737,note_on,0,0,0,,4,,,64,127
91879,note_off,142,0,0,,7,,,79,127
91881,note_on,2,0,0,,5,,,77,127
92023,note_off,142,0,0,,5,,,77,127
92025,note_on,2,0,0,,4,,,76,127
92167,note_off,142,0,0,,4,,,76,127
92169,note_on,2,0,0,,2,,,74,127
92311,note_off,142,0,0,,2,,,74,127
92311,note_off,0,0,0,,4,,,64,127
92311,note_off,0,0,0,,2,,,62,127
92311,note_off,0,0,0,,8,,,56,127
92313,note_on,2,0,0,,10,,,57,127
92313,note_on,0,0,0,,4,,,76,127
92455,note_off,142,0,0,,10,,,57,127
92457,note_on,2,0,0,,10,,,69,127
92599,note_off,142,0,0,,10,,,69,127
92601,note_on,2,0,0,,1,,,73,127
92743,note_off,142,0,0,,1,,,73,127
92743,note_off,0,0,0,,4,,,76,127
92745,note_on,2,0,0,,2,,,74,127
92745,note_on,0,0,0,,5,,,77,127
92887,note_off,142,0,0,,5,,,77,127
92887,note_off,0,0,0,,2,,,74,127
92889,note_on,2,0,0,,7,,,67,127
92889,note_on,0,0,0,,10,,,81,127
92889,note_on,0,0,0,,7,,,79,127
93033,note_on,144,0,0,,11,,,70,127
93175,note_off,142,0,0,,11,,,70,127
93175,note_off,0,0,0,,10,,,81,127
93177,note_on,2,0,0,,4,,,76,127
93319,note_off,142,0,0,,4,,,76,127
93319,note_off,0,0,0,,7,,,79,127
93321,note_on,2,0,0,,2,,,74,127
93321,note_on,0,0,0,,5,,,77,127
93463,note_off,142,0,0,,7,,,67,127
93465,note_on,2,0,0,,10,,,69,127
93607,note_off,142,0,0,,5,,,77,127
93607,note_off,0,0,0,,2,,,74,127
93609,note_on,2,0,0,,1,,,73,127
93609,note_on,0,0,0,,4,,,76,127
93751,note_off,142,0,0,,4,,,76,127
93751,note_off,0,0,0,,1,,,73,127
93753,note_on,2,0,0,,2,,,74,127
93753,note_on,0,0,0,,5,,,77,127
93895,note_off,142,0,0,,5,,,77,127
93895,note_off,0,0,0,,2,,,74,127
93897,note_on,2,0,0,,1,,,73,127
93897,note_on,0,0,0,,4,,,76,127
94039,note_off,142,0,0,,4,,,76,127
94039,note_off,0,0,0,,1,,,73,127
94039,note_off,0,0,0,,10,,,69,127
94041,note_on,2,0,0,,7,,,67,127
94041,note_on,0,0,0,,7,,,79,127
94041,note_on,0,0,0,,10,,,81,127
94185,note_on,144,0,0,,11,,,70,127
94327,note_off,142,0,0,,11,,,70,127
94327,note_off,0,0,0,,10,,,81,127
94329,note_on,2,0,0,,4,,,76,127
94471,note_off,142,0,0,,4,,,76,127
94471,note_off,0,0,0,,7,,,79,127
94473,note_on,2,0,0,,2,,,74,127
94473,note_on,0,0,0,,5,,,77,127
94615,note_off,142,0,0,,7,,,67,127
94617,note_on,2,0,0,,10,,,69,127
94759,note_off,142,0,0,,5,,,77,127
94759,note_off,0,0,0,,2,,,74,127
94761,note_on,2,0,0,,1,,,73,127
94761,note_on,0,0,0,,4,,,76,127
94903,note_off,142,0,0,,4,,,76,127
94903,note_off,0,0,0,,1,,,73,127
94905,note_on,2,0,0,,2,,,74,127
94905,note_on,0,0,0,,5,,,77,127
95047,note_off,142,0,0,,5,,,77,127
95047,note_off,0,0,0,,2,,,74,127
95049,note_on,2,0,0,,1,,,73,127
95049,note_on,0,0,0,,4,,,76,127
95191,note_off,142,0,0,,4,,,76,127
95191,note_off,0,0,0,,1,,,73,127
95191,note_off,0,0,0,,10,,,69,127
95193,note_on,2,0,0,,7,,,67,127
95193,note_on,0,0,0,,7,,,79,127
95193,note_on,0,0,0,,10,,,81,127
95337,note_on,144,0,0,,11,,,70,127
95479,note_off,142,0,0,,11,,,70,127
95479,note_off,0,0,0,,10,,,81,127
95481,note_on,2,0,0,,4,,,76,127
95623,note_off,142,0,0,,4,,,76,127
95623,note_off,0,0,0,,7,,,79,127
95625,note_on,2,0,0,,2,,,74,127
95625,note_on,0,0,0,,5,,,77,127
95767,note_off,142,0,0,,5,,,77,127
95767,note_off,0,0,0,,2,,,74,127
95767,note_off,0,0,0,,7,,,67,127
95769,note_on,2,0,0,,10,,,69,127
95769,note_on,0,0,0,,1,,,73,127
95769,note_on,0,0,0,,4,,,76,127
95911,note_off,142,0,0,,4,,,76,127
95913,note_on,2,0,0,,11,,,82,127
96055,note_off,142,0,0,,1,,,73,127
96055,note_off,0,0,0,,10,,,69,127
96057,note_on,2,0,0,,1,,,73,127
96057,note_on,0,0,0,,7,,,67,127
96199,note_off,142,0,0,,11,,,82,127
96201,note_on,2,0,0,,10,,,81,127
96343,note_off,142,0,0,,7,,,67,127
96343,note_off,0,0,0,,1,,,73,127
96345,note_on,2,0,0,,2,,,74,127
96345,note_on,0,0,0,,5,,,65,127
96487,note_off,142,0,0,,10,,,81,127
96489,note_on,2,0,0,,7,,,79,127
96631,note_off,142,0,0,,5,,,65,127
96631,note_off,0,0,0,,2,,,74,127
96633,note_on,2,0,0,,1,,,73,127
96633,note_on,0,0,0,,4,,,64,127
96775,note_off,142,0,0,,7,,,79,127
96777,note_on,2,0,0,,5,,,77,127
96919,note_off,142,0,0,,4,,,64,127
96919,note_off,0,0,0,,1,,,73,127
96921,note_on,2,0,0,,2,,,62,127
97063,note_off,142,0,0,,2,,,62,127
97065,note_on,2,0,0,,2,,,74,127
97207,note_off,142,0,0,,2,,,74,127
97209,note_on,2,0,0,,8,,,68,127
97351,note_off,142,0,0,,5,,,77,127
97353,note_on,2,0,0,,2,,,74,127
97495,note_off,142,0,0,,2,,,74,127
97497,note_on,2,0,0,,4,,,76,127
97639,note_off,142,0,0,,8,,,68,127
97641,note_on,2,0,0,,10,,,69,127
97783,note_off,142,0,0,,10,,,69,127
97785,note_on,2,0,0,,1,,,61,127
97927,note_off,142,0,0,,4,,,76,127
97929,note_on,2,0,0,,5,,,77,127
98071,note_off,142,0,0,,5,,,77,127
98073,note_on,2,0,0,,4,,,76,127
98143,note_off,70,0,0,,4,,,76,127
98145,note_on,2,0,0,,5,,,77,127
98215,note_off,70,0,0,,5,,,77,127
98215,note_off,0,0,0,,1,,,61,127
98217,note_on,2,0,0,,2,,,62,127
98217,note_on,0,0,0,,7,,,79,127
98359,note_off,142,0,0,,2,,,62,127
98361,note_on,2,0,0,,8,,,56,127
98503,note_off,142,0,0,,7,,,79,127
98505,note_on,2,0,0,,5,,,77,127
98647,note_off,142,0,0,,5,,,77,127
98649,note_on,2,0,0,,4,,,76,127
98791,note_off,142,0,0,,8,,,56,127
98793,note_on,2,0,0,,10,,,57,127
98935,note_off,142,0,0,,10,,,57,127
98937,note_on,2,0,0,,1,,,49,127
99039,note_off,102,0,0,,4,,,76,127
99081,note_on,42,0,0,,7,,,79,127
99223,note_off,142,0,0,,7,,,79,127
99223,note_off,0,0,0,,1,,,49,127
99225,note_on,2,0,0,,2,,,50,127
99225,note_on,0,0,0,,5,,,77,127
99367,note_off,142,0,0,,5,,,77,127
99369,note_on,2,0,0,,4,,,76,127
99511,note_off,142,0,0,,4,,,76,127
99511,note_off,0,0,0,,2,,,50,127
99513,note_on,2,0,0,,5,,,53,127
99513,note_on,0,0,0,,2,,,74,127
99655,note_off,142,0,0,,2,,,74,127
99657,note_on,2,0,0,,10,,,81,127
99799,note_off,142,0,0,,10,,,81,127
99799,note_off,0,0,0,,5,,,53,127
99801,note_on,2,0,0,,7,,,55,127
99801,note_on,0,0,0,,5,,,77,127
99943,note_off,142,0,0,,5,,,77,127
99945,note_on,2,0,0,,4,,,76,127
100087,note_off,142,0,0,,4,,,76,127
100087,note_off,0,0,0,,7,,,55,127
100089,note_on,2,0,0,,10,,,57,127
100089,note_on,0,0,0,,2,,,74,127
100231,note_off,142,0,0,,2,,,74,127
100233,note_on,2,0,0,,4,,,76,127
100375,note_off,142,0,0,,4,,,76,127
100377,note_on,2,0,0,,5,,,77,127
100519,note_off,142,0,0,,10,,,57,127
100521,note_on,2,0,0,,2,,,74,127
100663,note_off,142,0,0,,2,,,74,127
100665,note_on,2,0,0,,8,,,68,127
100807,note_off,142,0,0,,5,,,77,127
100809,note_on,2,0,0,,2,,,74,127
100951,note_off,142,0,0,,2,,,74,127
100953,note_on,2,0,0,,4,,,76,127
101095,note_off,142,0,0,,8,,,68,127
101097,note_on,2,0,0,,10,,,69,127
101239,note_off,142,0,0,,10,,,69,127
101241,note_on,2,0,0,,1,,,61,127
101383,note_off,142,0,0,,4,,,76,127
101385,note_on,2,0,0,,5,,,77,127
101527,note_off,142,0,0,,5,,,77,127
101529,note_on,2,0,0,,4,,,76,127
101599,note_off,70,0,0,,4,,,76,127
101601,note_on,2,0,0,,5,,,77,127
101671,note_off,70,0,0,,5,,,77,127
101671,note_off,0,0,0,,1,,,61,127
101673,note_on,2,0,0,,2,,,62,127
101673,note_on,0,0,0,,7,,,79,127
101815,note_off,142,0,0,,2,,,62,127
101817,note_on,2,0,0,,8,,,56,127
101959,note_off,142,0,0,,7,,,79,127
101961,note_on,2,0,0,,5,,,77,127
102103,note_off,142,0,0,,5,,,77,127
102105,note_on,2,0,0,,4,,,76,127
102247,note_off,142,0,0,,8,,,56,127
102249,note_on,2,0,0,,10,,,57,127
102391,note_off,142,0,0,,10,,,57,127
102393,note_on,2,0,0,,1,,,49,127
102510,note_off,117,0,0,,4,,,76,127
102537,note_on,27,0,0,,7,,,79,127
102679,note_off,142,0,0,,7,,,79,127
102679,note_off,0,0,0,,1,,,49,127
102681,note_on,2,0,0,,2,,,50,127
102681,note_on,0,0,0,,5,,,77,127
102823,note_off,142,0,0,,5,,,77,127
102825,note_on,2,0,0,,4,,,76,127
102967,note_off,142,0,0,,4,,,76,127
102967,note_off,0,0,0,,2,,,50,127
102969,note_on,2,0,0,,5,,,53,127
102969,note_on,0,0,0,,2,,,74,127
103111,note_off,142,0,0,,2,,,74,127
103113,note_on,2,0,0,,10,,,81,127
103255,note_off,142,0,0,,10,,,81,127
103255,note_off,0,0,0,,5,,,53,127
103257,note_on,2,0,0,,7,,,55,127
103257,note_on,0,0,0,,5,,,77,127
103399,note_off,142,0,0,,5,,,77,127
103401,note_on,2,0,0,,4,,,76,127
103543,note_off,142,0,0,,4,,,76,127
103543,note_off,0,0,0,,7,,,55,127
103545,note_on,2,0,0,,10,,,57,127
103545,note_on,0,0,0,,2,,,74,127
103687,note_off,142,0,0,,2,,,74,127
103689,note_on,2,0,0,,1,,,73,127
103831,note_off,142,0,0,,1,,,73,127
103831,note_off,0,0,0,,10,,,57,127
103833,note_on,2,0,0,,2,,,62,127
103833,note_on,0,0,0,,10,,,57,127
103833,note_on,0,0,0,,2,,,50,127
103833,note_on,0,0,0,,2,,,74,127
103977,note_on,144,0,0,,2,,,86,127
104118,note_off,141,0,0,,2,,,74,127
104120,note_off,2,0,0,,2,,,86,127
104122,note_on,2,0,0,,8,,,80,127
104264,note_off,142,0,0,,8,,,80,127
104266,note_on,2,0,0,,10,,,81,127
104408,note_off,142,0,0,,2,,,50,127
104408,note_off,0,0,0,,10,,,57,127
104408,note_off,0,0,0,,2,,,62,127
104410,note_on,2,0,0,,5,,,53,127
104410,note_on,0,0,0,,10,,,57,127
104410,note_on,0,0,0,,2,,,62,127
104522,note_off,112,0,0,,10,,,81,127
104554,note_on,32,0,0,,11,,,82,127
104696,note_off,142,0,0,,11,,,82,127
104698,note_on,2,0,0,,1,,,73,127
104840,note_off,142,0,0,,1,,,73,127
104842,note_on,2,0,0,,2,,,74,127
104984,note_off,142,0,0,,2,,,62,127
104984,note_off,0,0,0,,10,,,57,127
104984,note_off,0,0,0,,5,,,53,127
104986,note_on,2,0,0,,4,,,64,127
104986,note_on,0,0,0,,7,,,55,127
104986,note_on,0,0,0,,2,,,62,127
105098,note_off,112,0,0,,2,,,74,127
105130,note_on,32,0,0,,4,,,76,127
105272,note_off,142,0,0,,4,,,76,127
105274,note_on,2,0,0,,5,,,77,127
105416,note_off,142,0,0,,5,,,77,127
105418,note_on,2,0,0,,7,,,79,127
105560,note_off,142,0,0,,7,,,79,127
105560,note_off,0,0,0,,2,,,62,127
105560,note_off,0,0,0,,7,,,55,127
105560,note_off,0,0,0,,4,,,64,127
105562,note_on,2,0,0,,10,,,57,127
105562,note_on,0,0,0,,4,,,64,127
105562,note_on,0,0,0,,5,,,77,127
105704,note_off,142,0,0,,5,,,77,127
105706,note_on,2,0,0,,4,,,76,127
105848,note_off,142,0,0,,4,,,76,127
105850,note_on,2,0,0,,2,,,74,127
105992,note_off,142,0,0,,2,,,74,127
105994,note_on,2,0,0,,1,,,73,127
106136,note_off,142,0,0,,1,,,73,127
106136,note_off,0,0,0,,4,,,64,127
106136,note_off,0,0,0,,10,,,57,127
106138,note_on,2,0,0,,10,,,57,127
106138,note_on,0,0,0,,2,,,62,127
106138,note_on,0,0,0,,2,,,50,127
106138,note_on,0,0,0,,2,,,74,127
106282,note_on,144,0,0,,2,,,86,127
106423,note_off,141,0,0,,2,,,74,127
106425,note_off,2,0,0,,2,,,86,127
106427,note_on,2,0,0,,8,,,80,127
106569,note_off,142,0,0,,8,,,80,127
106571,note_on,2,0,0,,10,,,81,127
106713,note_off,142,0,0,,2,,,50,127
106713,note_off,0,0,0,,2,,,62,127
106713,note_off,0,0,0,,10,,,57,127
106715,note_on,2,0,0,,2,,,62,127
106715,note_on,0,0,0,,5,,,53,127
106715,note_on,0,0,0,,10,,,57,127
106827,note_off,112,0,0,,10,,,81,127
106859,note_on,32,0,0,,11,,,82,127
107001,note_off,142,0,0,,11,,,82,127
107003,note_on,2,0,0,,1,,,73,127
107145,note_off,142,0,0,,1,,,73,127
107147,note_on,2,0,0,,2,,,74,127
107289,note_off,142,0,0,,10,,,57,127
107289,note_off,0,0,0,,5,,,53,127
107289,note_off,0,0,0,,2,,,62,127
107291,note_on,2,0,0,,4,,,64,127
107291,note_on,0,0,0,,7,,,55,127
107291,note_on,0,0,0,,2,,,62,127
107403,note_off,112,0,0,,2,,,74,127
107435,note_on,32,0,0,,4,,,76,127
107577,note_off,142,0,0,,4,,,76,127
107579,note_on,2,0,0,,5,,,77,127
107721,note_off,142,0,0,,5,,,77,127
107723,note_on,2,0,0,,7,,,79,127
107865,note_off,142,0,0,,7,,,79,127
107865,note_off,0,0,0,,2,,,62,127
107865,note_off,0,0,0,,7,,,55,127
107865,note_off,0,0,0,,4,,,64,127
107867,note_on,2,0,0,,4,,,64,127
107867,note_on,0,0,0,,10,,,57,127
107867,note_on,0,0,0,,5,,,77,127
108009,note_off,142,0,0,,5,,,77,127
108011,note_on,2,0,0,,4,,,76,127
108153,note_off,142,0,0,,4,,,76,127
108155,note_on,2,0,0,,2,,,74,127
108297,note_off,142,0,0,,2,,,74,127
108299,note_on,2,0,0,,1,,,73,127
108441,note_off,142,0,0,,1,,,73,127
108441,note_off,0,0,0,,10,,,57,127
108441,note_off,0,0,0,,4,,,64,127
108443,note_on,2,0,0,,2,,,62,127
108443,note_on,0,0,0,,2,,,50,127
108443,note_on,0,0,0,,2,,,74,127
108585,note_off,142,0,0,,2,,,74,127
108587,note_on,2,0,0,,11,,,70,127
108729,note_off,142,0,0,,2,,,50,127
108729,note_off,0,0,0,,2,,,62,127
108731,note_on,2,0,0,,7,,,55,127
108873,note_off,142,0,0,,11,,,70,127
108875,note_on,2,0,0,,10,,,69,127
109017,note_off,142,0,0,,7,,,55,127
109019,note_on,2,0,0,,5,,,53,127
109161,note_off,142,0,0,,10,,,69,127
109163,note_on,2,0,0,,7,,,67,127
109305,note_off,142,0,0,,5,,,53,127
109307,note_on,2,0,0,,4,,,52,127
109449,note_off,142,0,0,,7,,,67,127
109451,note_on,2,0,0,,5,,,65,127
109593,note_off,142,0,0,,4,,,52,127
109595,note_on,2,0,0,,2,,,50,127
109737,note_off,142,0,0,,5,,,65,127
109739,note_on,2,0,0,,4,,,64,127
109881,note_off,142,0,0,,2,,,50,127
109883,note_on,2,0,0,,7,,,55,127
110025,note_off,142,0,0,,4,,,64,127
110027,note_on,2,0,0,,2,,,62,127
110169,note_off,142,0,0,,7,,,55,127
110171,note_on,2,0,0,,10,,,57,127
110313,note_off,142,0,0,,2,,,62,127
110315,note_on,2,0,0,,1,,,61,127
110459,note_on,144,0,0,,10,,,45,127
110601,note_off,142,0,0,,1,,,61,127
110603,note_on,2,0,0,,2,,,62,127
110741,note_off,138,0,0,,10,,,57,127
110745,note_off,4,0,0,,10,,,45,127
110747,note_on,2,0,0,,2,,,50,127
110889,note_off,142,0,0,,2,,,62,127
110891,note_on,2,0,0,,11,,,82,127
110891,note_on,0,0,0,,11,,,70,127
111033,note_off,142,0,0,,2,,,50,127
111035,note_on,2,0,0,,7,,,55,127
111035,note_on,0,0,0,,7,,,43,127
111177,note_off,142,0,0,,11,,,70,127
111177,note_off,0,0,0,,11,,,82,127
111179,note_on,2,0,0,,10,,,69,127
111179,note_on,0,0,0,,10,,,81,127
111321,note_off,142,0,0,,7,,,43,127
111321,note_off,0,0,0,,7,,,55,127
111323,note_on,2,0,0,,5,,,53,127
111323,note_on,0,0,0,,5,,,41,127
111465,note_off,142,0,0,,10,,,81,127
111465,note_off,0,0,0,,10,,,69,127
111467,note_on,2,0,0,,7,,,67,127
111467,note_on,0,0,0,,7,,,79,127
111609,note_off,142,0,0,,5,,,41,127
111609,note_off,0,0,0,,5,,,53,127
111611,note_on,2,0,0,,4,,,52,127
111611,note_on,0,0,0,,4,,,40,127
111753,note_off,142,0,0,,7,,,79,127
111753,note_off,0,0,0,,7,,,67,127
111755,note_on,2,0,0,,5,,,65,127
111755,note_on,0,0,0,,5,,,77,127
111897,note_off,142,0,0,,4,,,40,127
111897,note_off,0,0,0,,4,,,52,127
111899,note_on,2,0,0,,2,,,50,127
111899,note_on,0,0,0,,2,,,38,127
112041,note_off,142,0,0,,5,,,77,127
112041,note_off,0,0,0,,5,,,65,127
112043,note_on,2,0,0,,4,,,64,127
112043,note_on,0,0,0,,4,,,76,127
112185,note_off,142,0,0,,2,,,38,127
112185,note_off,0,0,0,,2,,,50,127
112187,note_on,2,0,0,,7,,,55,127
112329,note_off,142,0,0,,4,,,76,127
112329,note_off,0,0,0,,4,,,64,127
112331,note_on,2,0,0,,2,,,62,127
112331,note_on,0,0,0,,2,,,74,127
112473,note_off,142,0,0,,7,,,55,127
112475,note_on,2,0,0,,10,,,57,127
112617,note_off,142,0,0,,2,,,62,127
112619,note_on,2,0,0,,10,,,69,127
112761,note_off,142,0,0,,10,,,69,127
112763,note_on,2,0,0,,10,,,45,127
112763,note_on,0,0,0,,4,,,64,127
112905,note_off,142,0,0,,4,,,64,127
112905,note_off,0,0,0,,2,,,74,127
112907,note_on,2,0,0,,7,,,67,127
112907,note_on,0,0,0,,1,,,73,127
113049,note_off,142,0,0,,1,,,73,127
113049,note_off,0,0,0,,7,,,67,127
113049,note_off,0,0,0,,10,,,45,127
113049,note_off,0,0,0,,10,,,57,127
113051,note_on,2,0,0,,10,,,45,127
113051,note_on,0,0,0,,2,,,50,127
113051,note_on,0,0,0,,2,,,38,127
113051,note_on,0,0,0,,4,,,64,127
113051,note_on,0,0,0,,1,,,73,127
113051,note_on,0,0,0,,7,,,67,127
113627,note_off,576,0,0,,7,,,67,127
113627,note_off,0,0,0,,1,,,73,127
113627,note_off,0,0,0,,4,,,64,127
113627,note_on,0,0,0,,10,,,69,127
113627,note_on,0,0,0,,2,,,74,127
113627,note_on,0,0,0,,5,,,65,127
115211,note_off,1584,0,0,,5,,,65,127
115211,note_off,0,0,0,,2,,,74,127
115211,note_off,0,0,0,,10,,,69,127
115211,note_off,0,0,0,,2,,,38,127
115211,note_off,0,0,0,,2,,,50,127
115211,note_off,0,0,0,,10,,,45,127
116736,end_of_track,1525,1,0,,,,,,
