tick,type,time,meta,track,program,channel,pitch,tempo,note,velocity
0,copyright,0,1,0,,,,,,
0,program_change,0,0,0,6,0,,,,
0,pitchwheel,0,0,0,,0,0,,,
0,program_change,0,0,0,6,1,,,,
0,pitchwheel,0,0,0,,1,-590,,,
0,program_change,0,0,0,6,2,,,,
0,pitchwheel,0,0,0,,2,-272,,,
0,program_change,0,0,0,6,3,,,,
0,pitchwheel,0,0,0,,3,-353,,,
0,program_change,0,0,0,6,4,,,,
0,pitchwheel,0,0,0,,4,-560,,,
0,program_change,0,0,0,6,5,,,,
0,pitchwheel,0,0,0,,5,-80,,,
0,program_change,0,0,0,6,6,,,,
0,pitchwheel,0,0,0,,6,-625,,,
0,program_change,0,0,0,6,7,,,,
0,pitchwheel,0,0,0,,7,-130,,,
0,program_change,0,0,0,6,8,,,,
0,pitchwheel,0,0,0,,8,-512,,,
0,program_change,0,0,0,6,10,,,,
0,pitchwheel,0,0,0,,10,-464,,,
0,program_change,0,0,0,6,11,,,,
0,pitchwheel,0,0,0,,11,-208,,,
0,program_change,0,0,0,6,12,,,,
0,pitchwheel,0,0,0,,12,-553,,,
0,set_tempo,0,1,0,,,,500000,,
55,note_on,55,0,0,,2,,,38,127
55,note_on,0,0,0,,2,,,50,127
201,note_on,146,0,0,,10,,,81,127
337,note_off,136,0,0,,10,,,81,127
347,note_on,10,0,0,,6,,,78,127
483,note_off,136,0,0,,6,,,78,127
493,note_on,10,0,0,,2,,,74,127
639,note_on,146,0,0,,10,,,69,127
640,note_off,1,0,0,,2,,,74,127
711,note_off,71,0,0,,2,,,50,127
711,note_off,0,0,0,,2,,,38,127
775,note_off,64,0,0,,10,,,69,127
785,note_on,10,0,0,,6,,,66,127
921,note_off,136,0,0,,6,,,66,127
931,note_on,10,0,0,,2,,,62,127
1077,note_on,146,0,0,,10,,,57,127
1078,note_off,1,0,0,,2,,,62,127
1213,note_off,135,0,0,,10,,,57,127
1223,note_on,10,0,0,,6,,,54,127
1359,note_off,136,0,0,,6,,,54,127
1369,note_on,10,0,0,,2,,,50,127
1515,note_on,146,0,0,,10,,,45,127
1516,note_off,1,0,0,,2,,,50,127
1651,note_off,135,0,0,,10,,,45,127
1661,note_on,10,0,0,,6,,,42,127
1797,note_off,136,0,0,,6,,,42,127
1807,note_on,10,0,0,,2,,,38,127
2100,note_on,293,0,0,,10,,,81,127
2244,note_off,144,0,0,,10,,,81,127
2244,note_off,0,0,0,,2,,,38,127
2246,note_on,2,0,0,,12,,,83,127
2246,note_on,0,0,0,,6,,,66,127
2317,note_off,71,0,0,,12,,,83,127
2319,note_on,2,0,0,,10,,,81,127
2390,note_off,71,0,0,,10,,,81,127
2392,note_on,2,0,0,,7,,,79,127
2536,note_off,144,0,0,,7,,,79,127
2538,note_on,2,0,0,,10,,,81,127
2682,note_off,144,0,0,,10,,,81,127
2682,note_off,0,0,0,,6,,,66,127
2684,note_on,2,0,0,,12,,,71,127
2684,note_on,0,0,0,,7,,,67,127
2974,note_off,290,0,0,,12,,,71,127
2976,note_on,2,0,0,,7,,,79,127
3120,note_off,144,0,0,,7,,,79,127
3120,note_off,0,0,0,,7,,,67,127
3122,note_on,2,0,0,,6,,,78,127
3122,note_on,0,0,0,,10,,,69,127
3193,note_off,71,0,0,,6,,,78,127
3195,note_on,2,0,0,,4,,,76,127
3266,note_off,71,0,0,,4,,,76,127
3268,note_on,2,0,0,,2,,,74,127
3412,note_off,144,0,0,,2,,,74,127
3414,note_on,2,0,0,,4,,,76,127
3558,note_off,144,0,0,,4,,,76,127
3558,note_off,0,0,0,,10,,,69,127
3560,note_on,2,0,0,,6,,,78,127
3560,note_on,0,0,0,,2,,,62,127
3834,note_off,274,0,0,,6,,,78,127
3852,note_on,18,0,0,,10,,,81,127
3996,note_off,144,0,0,,10,,,81,127
3996,note_off,0,0,0,,2,,,62,127
3998,note_on,2,0,0,,12,,,83,127
3998,note_on,0,0,0,,6,,,66,127
4069,note_off,71,0,0,,12,,,83,127
4071,note_on,2,0,0,,10,,,81,127
4142,note_off,71,0,0,,10,,,81,127
4144,note_on,2,0,0,,7,,,79,127
4288,note_off,144,0,0,,7,,,79,127
4290,note_on,2,0,0,,10,,,81,127
4434,note_off,144,0,0,,10,,,81,127
4434,note_off,0,0,0,,6,,,66,127
4436,note_on,2,0,0,,12,,,71,127
4436,note_on,0,0,0,,7,,,67,127
4726,note_off,290,0,0,,12,,,71,127
4728,note_on,2,0,0,,7,,,79,127
4872,note_off,144,0,0,,7,,,79,127
4872,note_off,0,0,0,,7,,,67,127
4874,note_on,2,0,0,,2,,,74,127
4874,note_on,0,0,0,,10,,,69,127
4945,note_off,71,0,0,,2,,,74,127
4947,note_on,2,0,0,,1,,,73,127
5018,note_off,71,0,0,,1,,,73,127
5020,note_on,2,0,0,,12,,,71,127
5164,note_off,144,0,0,,12,,,71,127
5166,note_on,2,0,0,,1,,,73,127
5310,note_off,144,0,0,,1,,,73,127
5310,note_off,0,0,0,,10,,,69,127
5312,note_on,2,0,0,,2,,,74,127
5312,note_on,0,0,0,,2,,,62,127
5586,note_off,274,0,0,,2,,,74,127
5604,note_on,18,0,0,,10,,,81,127
5748,note_off,144,0,0,,10,,,81,127
5748,note_off,0,0,0,,2,,,62,127
5750,note_on,2,0,0,,12,,,83,127
5750,note_on,0,0,0,,6,,,66,127
5821,note_off,71,0,0,,12,,,83,127
5823,note_on,2,0,0,,10,,,81,127
5894,note_off,71,0,0,,10,,,81,127
5896,note_on,2,0,0,,7,,,79,127
6040,note_off,144,0,0,,7,,,79,127
6042,note_on,2,0,0,,10,,,81,127
6186,note_off,144,0,0,,10,,,81,127
6186,note_off,0,0,0,,6,,,66,127
6188,note_on,2,0,0,,12,,,71,127
6188,note_on,0,0,0,,7,,,67,127
6478,note_off,290,0,0,,12,,,71,127
6480,note_on,2,0,0,,7,,,79,127
6624,note_off,144,0,0,,7,,,79,127
6624,note_off,0,0,0,,7,,,67,127
6626,note_on,2,0,0,,6,,,78,127
6626,note_on,0,0,0,,10,,,69,127
6697,note_off,71,0,0,,6,,,78,127
6699,note_on,2,0,0,,4,,,76,127
6770,note_off,71,0,0,,4,,,76,127
6772,note_on,2,0,0,,2,,,74,127
6916,note_off,144,0,0,,2,,,74,127
6918,note_on,2,0,0,,4,,,76,127
7062,note_off,144,0,0,,4,,,76,127
7062,note_off,0,0,0,,10,,,69,127
7064,note_on,2,0,0,,6,,,78,127
7064,note_on,0,0,0,,2,,,62,127
7357,note_on,293,0,0,,10,,,81,127
7499,note_off,142,0,0,,6,,,78,127
7501,note_off,2,0,0,,10,,,81,127
7501,note_off,0,0,0,,2,,,62,127
7503,note_on,2,0,0,,12,,,83,127
7503,note_on,0,0,0,,6,,,66,127
7574,note_off,71,0,0,,12,,,83,127
7576,note_on,2,0,0,,10,,,81,127
7647,note_off,71,0,0,,10,,,81,127
7649,note_on,2,0,0,,7,,,79,127
7793,note_off,144,0,0,,7,,,79,127
7795,note_on,2,0,0,,10,,,81,127
7939,note_off,144,0,0,,10,,,81,127
7939,note_off,0,0,0,,6,,,66,127
7941,note_on,2,0,0,,12,,,71,127
7941,note_on,0,0,0,,7,,,67,127
8234,note_on,293,0,0,,7,,,79,127
8376,note_off,142,0,0,,12,,,71,127
8378,note_off,2,0,0,,7,,,79,127
8378,note_off,0,0,0,,7,,,67,127
8380,note_on,2,0,0,,2,,,74,127
8380,note_on,0,0,0,,10,,,69,127
8451,note_off,71,0,0,,2,,,74,127
8453,note_on,2,0,0,,1,,,73,127
8524,note_off,71,0,0,,1,,,73,127
8526,note_on,2,0,0,,12,,,71,127
8670,note_off,144,0,0,,12,,,71,127
8672,note_on,2,0,0,,1,,,73,127
8816,note_off,144,0,0,,1,,,73,127
8816,note_off,0,0,0,,10,,,69,127
8818,note_on,2,0,0,,2,,,74,127
8818,note_on,0,0,0,,2,,,62,127
9108,note_off,290,0,0,,2,,,62,127
9108,note_off,0,0,0,,2,,,74,127
9110,note_on,2,0,0,,6,,,78,127
9110,note_on,0,0,0,,2,,,74,127
9254,note_off,144,0,0,,2,,,74,127
9254,note_off,0,0,0,,6,,,78,127
9256,note_on,2,0,0,,7,,,79,127
9256,note_on,0,0,0,,4,,,76,127
9327,note_off,71,0,0,,4,,,76,127
9327,note_off,0,0,0,,7,,,79,127
9329,note_on,2,0,0,,6,,,78,127
9329,note_on,0,0,0,,2,,,74,127
9400,note_off,71,0,0,,2,,,74,127
9400,note_off,0,0,0,,6,,,78,127
9402,note_on,2,0,0,,4,,,76,127
9402,note_on,0,0,0,,1,,,73,127
9546,note_off,144,0,0,,1,,,73,127
9546,note_off,0,0,0,,4,,,76,127
9548,note_on,2,0,0,,6,,,78,127
9548,note_on,0,0,0,,2,,,74,127
9694,note_on,146,0,0,,7,,,67,127
9877,note_off,183,0,0,,2,,,74,127
9877,note_off,0,0,0,,6,,,78,127
9987,note_on,110,0,0,,7,,,79,127
9987,note_on,0,0,0,,4,,,76,127
10129,note_off,142,0,0,,7,,,67,127
10131,note_off,2,0,0,,4,,,76,127
10131,note_off,0,0,0,,7,,,79,127
10133,note_on,2,0,0,,6,,,78,127
10133,note_on,0,0,0,,10,,,69,127
10133,note_on,0,0,0,,2,,,74,127
10204,note_off,71,0,0,,2,,,74,127
10204,note_off,0,0,0,,6,,,78,127
10206,note_on,2,0,0,,4,,,76,127
10206,note_on,0,0,0,,1,,,73,127
10277,note_off,71,0,0,,1,,,73,127
10277,note_off,0,0,0,,4,,,76,127
10279,note_on,2,0,0,,2,,,74,127
10279,note_on,0,0,0,,12,,,71,127
10423,note_off,144,0,0,,12,,,71,127
10423,note_off,0,0,0,,2,,,74,127
10425,note_on,2,0,0,,4,,,76,127
10425,note_on,0,0,0,,1,,,73,127
10567,note_off,142,0,0,,10,,,69,127
10572,note_on,5,0,0,,2,,,62,127
10755,note_off,183,0,0,,1,,,73,127
10755,note_off,0,0,0,,4,,,76,127
10865,note_on,110,0,0,,6,,,78,127
10865,note_on,0,0,0,,2,,,74,127
11007,note_off,142,0,0,,2,,,62,127
11009,note_off,2,0,0,,2,,,74,127
11009,note_off,0,0,0,,6,,,78,127
11011,note_on,2,0,0,,4,,,76,127
11011,note_on,0,0,0,,7,,,67,127
11082,note_off,71,0,0,,7,,,67,127
11082,note_off,0,0,0,,4,,,76,127
11084,note_on,2,0,0,,2,,,74,127
11084,note_on,0,0,0,,6,,,66,127
11155,note_off,71,0,0,,6,,,66,127
11155,note_off,0,0,0,,2,,,74,127
11157,note_on,2,0,0,,1,,,73,127
11157,note_on,0,0,0,,4,,,64,127
11301,note_off,144,0,0,,4,,,64,127
11301,note_off,0,0,0,,1,,,73,127
11303,note_on,2,0,0,,2,,,74,127
11303,note_on,0,0,0,,6,,,66,127
11449,note_on,146,0,0,,7,,,55,127
11632,note_off,183,0,0,,6,,,66,127
11632,note_off,0,0,0,,2,,,74,127
11742,note_on,110,0,0,,4,,,76,127
11742,note_on,0,0,0,,7,,,67,127
11884,note_off,142,0,0,,7,,,55,127
11886,note_off,2,0,0,,7,,,67,127
11886,note_off,0,0,0,,4,,,76,127
11888,note_on,2,0,0,,2,,,74,127
11888,note_on,0,0,0,,6,,,66,127
11888,note_on,0,0,0,,10,,,57,127
11959,note_off,71,0,0,,6,,,66,127
11959,note_off,0,0,0,,2,,,74,127
11961,note_on,2,0,0,,1,,,73,127
11961,note_on,0,0,0,,4,,,64,127
12032,note_off,71,0,0,,4,,,64,127
12032,note_off,0,0,0,,1,,,73,127
12034,note_on,2,0,0,,12,,,71,127
12034,note_on,0,0,0,,2,,,62,127
12178,note_off,144,0,0,,2,,,62,127
12178,note_off,0,0,0,,12,,,71,127
12180,note_on,2,0,0,,1,,,73,127
12180,note_on,0,0,0,,4,,,64,127
12322,note_off,142,0,0,,10,,,57,127
12324,note_off,2,0,0,,4,,,64,127
12324,note_off,0,0,0,,1,,,73,127
12326,note_on,2,0,0,,2,,,74,127
12326,note_on,0,0,0,,2,,,62,127
12616,note_off,290,0,0,,2,,,62,127
12616,note_off,0,0,0,,2,,,74,127
12618,note_on,2,0,0,,6,,,78,127
12618,note_on,0,0,0,,2,,,74,127
12762,note_off,144,0,0,,2,,,74,127
12762,note_off,0,0,0,,6,,,78,127
12764,note_on,2,0,0,,7,,,79,127
12764,note_on,0,0,0,,4,,,76,127
12835,note_off,71,0,0,,4,,,76,127
12835,note_off,0,0,0,,7,,,79,127
12837,note_on,2,0,0,,6,,,78,127
12837,note_on,0,0,0,,2,,,74,127
12908,note_off,71,0,0,,2,,,74,127
12908,note_off,0,0,0,,6,,,78,127
12910,note_on,2,0,0,,4,,,76,127
12910,note_on,0,0,0,,1,,,73,127
13054,note_off,144,0,0,,1,,,73,127
13054,note_off,0,0,0,,4,,,76,127
13056,note_on,2,0,0,,6,,,78,127
13056,note_on,0,0,0,,2,,,74,127
13202,note_on,146,0,0,,7,,,67,127
13456,note_off,254,0,0,,2,,,74,127
13456,note_off,0,0,0,,6,,,78,127
13495,note_on,39,0,0,,7,,,79,127
13495,note_on,0,0,0,,4,,,76,127
13637,note_off,142,0,0,,7,,,67,127
13639,note_off,2,0,0,,4,,,76,127
13639,note_off,0,0,0,,7,,,79,127
13641,note_on,2,0,0,,6,,,78,127
13641,note_on,0,0,0,,10,,,69,127
13641,note_on,0,0,0,,2,,,74,127
13712,note_off,71,0,0,,2,,,74,127
13712,note_off,0,0,0,,6,,,78,127
13714,note_on,2,0,0,,4,,,76,127
13714,note_on,0,0,0,,1,,,73,127
13785,note_off,71,0,0,,1,,,73,127
13785,note_off,0,0,0,,4,,,76,127
13787,note_on,2,0,0,,2,,,74,127
13787,note_on,0,0,0,,12,,,71,127
13931,note_off,144,0,0,,12,,,71,127
13931,note_off,0,0,0,,2,,,74,127
13933,note_on,2,0,0,,4,,,76,127
13933,note_on,0,0,0,,1,,,73,127
14075,note_off,142,0,0,,10,,,69,127
14080,note_on,5,0,0,,2,,,62,127
14334,note_off,254,0,0,,1,,,73,127
14334,note_off,0,0,0,,4,,,76,127
14373,note_on,39,0,0,,6,,,78,127
14373,note_on,0,0,0,,2,,,74,127
14515,note_off,142,0,0,,2,,,62,127
14517,note_off,2,0,0,,2,,,74,127
14517,note_off,0,0,0,,6,,,78,127
14519,note_on,2,0,0,,4,,,76,127
14519,note_on,0,0,0,,7,,,67,127
14590,note_off,71,0,0,,7,,,67,127
14590,note_off,0,0,0,,4,,,76,127
14592,note_on,2,0,0,,2,,,74,127
14592,note_on,0,0,0,,6,,,66,127
14663,note_off,71,0,0,,6,,,66,127
14663,note_off,0,0,0,,2,,,74,127
14665,note_on,2,0,0,,1,,,73,127
14665,note_on,0,0,0,,4,,,64,127
14809,note_off,144,0,0,,4,,,64,127
14809,note_off,0,0,0,,1,,,73,127
14811,note_on,2,0,0,,2,,,74,127
14811,note_on,0,0,0,,6,,,66,127
14957,note_on,146,0,0,,7,,,55,127
15211,note_off,254,0,0,,6,,,66,127
15211,note_off,0,0,0,,2,,,74,127
15250,note_on,39,0,0,,4,,,76,127
15250,note_on,0,0,0,,7,,,67,127
15392,note_off,142,0,0,,7,,,55,127
15394,note_off,2,0,0,,7,,,67,127
15394,note_off,0,0,0,,4,,,76,127
15396,note_on,2,0,0,,2,,,74,127
15396,note_on,0,0,0,,6,,,66,127
15396,note_on,0,0,0,,10,,,57,127
15467,note_off,71,0,0,,6,,,66,127
15467,note_off,0,0,0,,2,,,74,127
15469,note_on,2,0,0,,1,,,73,127
15469,note_on,0,0,0,,4,,,64,127
15540,note_off,71,0,0,,4,,,64,127
15540,note_off,0,0,0,,1,,,73,127
15542,note_on,2,0,0,,12,,,71,127
15542,note_on,0,0,0,,2,,,62,127
15686,note_off,144,0,0,,2,,,62,127
15686,note_off,0,0,0,,12,,,71,127
15688,note_on,2,0,0,,1,,,73,127
15688,note_on,0,0,0,,4,,,64,127
15830,note_off,142,0,0,,10,,,57,127
15832,note_off,2,0,0,,4,,,64,127
15832,note_off,0,0,0,,1,,,73,127
15834,note_on,2,0,0,,2,,,74,127
15834,note_on,0,0,0,,2,,,50,127
15978,note_off,144,0,0,,2,,,50,127
15980,note_on,2,0,0,,2,,,62,127
16124,note_off,144,0,0,,2,,,62,127
16126,note_on,2,0,0,,6,,,66,127
16270,note_off,144,0,0,,6,,,66,127
16272,note_on,2,0,0,,8,,,56,127
16272,note_on,0,0,0,,4,,,64,127
16272,note_on,0,0,0,,2,,,62,127
16416,note_off,144,0,0,,2,,,74,127
16418,note_on,2,0,0,,4,,,76,127
16418,note_on,0,0,0,,2,,,74,127
16562,note_off,144,0,0,,2,,,74,127
16562,note_off,0,0,0,,4,,,76,127
16564,note_on,2,0,0,,12,,,71,127
16708,note_off,144,0,0,,12,,,71,127
16708,note_off,0,0,0,,2,,,62,127
16708,note_off,0,0,0,,4,,,64,127
16708,note_off,0,0,0,,8,,,56,127
16710,note_on,2,0,0,,1,,,73,127
16710,note_on,0,0,0,,4,,,76,127
16710,note_on,0,0,0,,10,,,57,127
16854,note_off,144,0,0,,10,,,57,127
16856,note_on,2,0,0,,2,,,62,127
17000,note_off,144,0,0,,2,,,62,127
17002,note_on,2,0,0,,6,,,66,127
17146,note_off,144,0,0,,6,,,66,127
17148,note_on,2,0,0,,8,,,56,127
17148,note_on,0,0,0,,4,,,64,127
17148,note_on,0,0,0,,2,,,62,127
17292,note_off,144,0,0,,4,,,76,127
17292,note_off,0,0,0,,1,,,73,127
17294,note_on,2,0,0,,2,,,74,127
17294,note_on,0,0,0,,4,,,76,127
17438,note_off,144,0,0,,4,,,76,127
17438,note_off,0,0,0,,2,,,74,127
17440,note_on,2,0,0,,12,,,71,127
17584,note_off,144,0,0,,12,,,71,127
17584,note_off,0,0,0,,2,,,62,127
17584,note_off,0,0,0,,4,,,64,127
17584,note_off,0,0,0,,8,,,56,127
17586,note_on,2,0,0,,1,,,73,127
17586,note_on,0,0,0,,4,,,76,127
17586,note_on,0,0,0,,10,,,57,127
17730,note_off,144,0,0,,10,,,57,127
17732,note_on,2,0,0,,4,,,64,127
17876,note_off,144,0,0,,4,,,64,127
17878,note_on,2,0,0,,7,,,67,127
18022,note_off,144,0,0,,7,,,67,127
18024,note_on,2,0,0,,11,,,58,127
18024,note_on,0,0,0,,4,,,64,127
18168,note_off,144,0,0,,4,,,76,127
18168,note_off,0,0,0,,1,,,73,127
18170,note_on,2,0,0,,4,,,76,127
18170,note_on,0,0,0,,6,,,78,127
18314,note_off,144,0,0,,6,,,78,127
18314,note_off,0,0,0,,4,,,76,127
18316,note_on,2,0,0,,1,,,73,127
18460,note_off,144,0,0,,1,,,73,127
18460,note_off,0,0,0,,4,,,64,127
18460,note_off,0,0,0,,11,,,58,127
18462,note_on,2,0,0,,2,,,74,127
18462,note_on,0,0,0,,6,,,78,127
18462,note_on,0,0,0,,12,,,59,127
18606,note_off,144,0,0,,12,,,59,127
18608,note_on,2,0,0,,4,,,64,127
18752,note_off,144,0,0,,4,,,64,127
18754,note_on,2,0,0,,7,,,67,127
18898,note_off,144,0,0,,7,,,67,127
18900,note_on,2,0,0,,4,,,64,127
18900,note_on,0,0,0,,11,,,58,127
18900,note_on,0,0,0,,6,,,66,127
19044,note_off,144,0,0,,6,,,78,127
19044,note_off,0,0,0,,2,,,74,127
19046,note_on,2,0,0,,6,,,78,127
19046,note_on,0,0,0,,4,,,76,127
19190,note_off,144,0,0,,4,,,76,127
19190,note_off,0,0,0,,6,,,78,127
19192,note_on,2,0,0,,1,,,73,127
19336,note_off,144,0,0,,1,,,73,127
19336,note_off,0,0,0,,6,,,66,127
19336,note_off,0,0,0,,11,,,58,127
19336,note_off,0,0,0,,4,,,64,127
19338,note_on,2,0,0,,2,,,74,127
19338,note_on,0,0,0,,6,,,78,127
19338,note_on,0,0,0,,12,,,59,127
19482,note_off,144,0,0,,12,,,59,127
19484,note_on,2,0,0,,6,,,66,127
19628,note_off,144,0,0,,6,,,66,127
19630,note_on,2,0,0,,10,,,69,127
19774,note_off,144,0,0,,10,,,69,127
19776,note_on,2,0,0,,6,,,66,127
19776,note_on,0,0,0,,0,,,60,127
19776,note_on,0,0,0,,8,,,68,127
19920,note_off,144,0,0,,6,,,78,127
19920,note_off,0,0,0,,2,,,74,127
19922,note_on,2,0,0,,6,,,78,127
19922,note_on,0,0,0,,8,,,80,127
20066,note_off,144,0,0,,8,,,80,127
20066,note_off,0,0,0,,6,,,78,127
20068,note_on,2,0,0,,3,,,75,127
20212,note_off,144,0,0,,3,,,75,127
20212,note_off,0,0,0,,8,,,68,127
20212,note_off,0,0,0,,0,,,60,127
20212,note_off,0,0,0,,6,,,66,127
20214,note_on,2,0,0,,8,,,80,127
20214,note_on,0,0,0,,5,,,77,127
20214,note_on,0,0,0,,1,,,61,127
20358,note_off,144,0,0,,1,,,61,127
20360,note_on,2,0,0,,6,,,66,127
20504,note_off,144,0,0,,6,,,66,127
20506,note_on,2,0,0,,10,,,69,127
20650,note_off,144,0,0,,10,,,69,127
20652,note_on,2,0,0,,8,,,68,127
20652,note_on,0,0,0,,0,,,60,127
20652,note_on,0,0,0,,6,,,66,127
20796,note_off,144,0,0,,5,,,77,127
20796,note_off,0,0,0,,8,,,80,127
20798,note_on,2,0,0,,8,,,80,127
20798,note_on,0,0,0,,6,,,78,127
20942,note_off,144,0,0,,6,,,78,127
20942,note_off,0,0,0,,8,,,80,127
20944,note_on,2,0,0,,3,,,75,127
21088,note_off,144,0,0,,3,,,75,127
21088,note_off,0,0,0,,6,,,66,127
21088,note_off,0,0,0,,0,,,60,127
21088,note_off,0,0,0,,8,,,68,127
21090,note_on,2,0,0,,5,,,77,127
21090,note_on,0,0,0,,1,,,61,127
21380,note_off,290,0,0,,1,,,61,127
21380,note_off,0,0,0,,5,,,77,127
21382,note_on,2,0,0,,8,,,80,127
21382,note_on,0,0,0,,5,,,77,127
21382,note_on,0,0,0,,1,,,73,127
21526,note_off,144,0,0,,1,,,73,127
21526,note_off,0,0,0,,5,,,77,127
21526,note_off,0,0,0,,8,,,80,127
21528,note_on,2,0,0,,10,,,81,127
21528,note_on,0,0,0,,5,,,77,127
21528,note_on,0,0,0,,1,,,73,127
21599,note_off,71,0,0,,10,,,81,127
21601,note_on,2,0,0,,8,,,80,127
21672,note_off,71,0,0,,8,,,80,127
21674,note_on,2,0,0,,6,,,78,127
21818,note_off,144,0,0,,6,,,78,127
21818,note_off,0,0,0,,1,,,73,127
21818,note_off,0,0,0,,5,,,77,127
21820,note_on,2,0,0,,8,,,80,127
21820,note_on,0,0,0,,1,,,73,127
21820,note_on,0,0,0,,5,,,77,127
21964,note_off,144,0,0,,5,,,77,127
21964,note_off,0,0,0,,1,,,73,127
21964,note_off,0,0,0,,8,,,80,127
21966,note_on,2,0,0,,10,,,81,127
21966,note_on,0,0,0,,1,,,73,127
21966,note_on,0,0,0,,2,,,74,127
21966,note_on,0,0,0,,6,,,78,127
22110,note_off,144,0,0,,10,,,81,127
22112,note_on,2,0,0,,12,,,83,127
22256,note_off,144,0,0,,12,,,83,127
22256,note_off,0,0,0,,6,,,78,127
22256,note_off,0,0,0,,2,,,74,127
22256,note_off,0,0,0,,1,,,73,127
22258,note_on,2,0,0,,1,,,85,127
22258,note_on,0,0,0,,1,,,73,127
22258,note_on,0,0,0,,2,,,74,127
22258,note_on,0,0,0,,6,,,78,127
22402,note_off,144,0,0,,6,,,78,127
22402,note_off,0,0,0,,2,,,74,127
22402,note_off,0,0,0,,1,,,73,127
22402,note_off,0,0,0,,1,,,85,127
22404,note_on,2,0,0,,8,,,80,127
22404,note_on,0,0,0,,1,,,73,127
22404,note_on,0,0,0,,2,,,74,127
22475,note_off,71,0,0,,8,,,80,127
22477,note_on,2,0,0,,6,,,78,127
22548,note_off,71,0,0,,6,,,78,127
22550,note_on,2,0,0,,5,,,77,127
22694,note_off,144,0,0,,5,,,77,127
22694,note_off,0,0,0,,2,,,74,127
22694,note_off,0,0,0,,1,,,73,127
22696,note_on,2,0,0,,6,,,78,127
22696,note_on,0,0,0,,1,,,73,127
22696,note_on,0,0,0,,2,,,74,127
22840,note_off,144,0,0,,2,,,74,127
22840,note_off,0,0,0,,1,,,73,127
22840,note_off,0,0,0,,6,,,78,127
22842,note_on,2,0,0,,8,,,80,127
22842,note_on,0,0,0,,1,,,73,127
22842,note_on,0,0,0,,1,,,61,127
23132,note_off,290,0,0,,1,,,61,127
23132,note_off,0,0,0,,1,,,73,127
23132,note_off,0,0,0,,8,,,80,127
23134,note_on,2,0,0,,8,,,80,127
23134,note_on,0,0,0,,5,,,77,127
23134,note_on,0,0,0,,1,,,73,127
23278,note_off,144,0,0,,1,,,73,127
23278,note_off,0,0,0,,5,,,77,127
23278,note_off,0,0,0,,8,,,80,127
23280,note_on,2,0,0,,10,,,81,127
23280,note_on,0,0,0,,1,,,73,127
23280,note_on,0,0,0,,5,,,77,127
23351,note_off,71,0,0,,10,,,81,127
23353,note_on,2,0,0,,8,,,80,127
23424,note_off,71,0,0,,8,,,80,127
23426,note_on,2,0,0,,6,,,78,127
23570,note_off,144,0,0,,6,,,78,127
23570,note_off,0,0,0,,5,,,77,127
23570,note_off,0,0,0,,1,,,73,127
23572,note_on,2,0,0,,8,,,80,127
23572,note_on,0,0,0,,5,,,77,127
23572,note_on,0,0,0,,1,,,73,127
23716,note_off,144,0,0,,1,,,73,127
23716,note_off,0,0,0,,5,,,77,127
23716,note_off,0,0,0,,8,,,80,127
23718,note_on,2,0,0,,10,,,81,127
23718,note_on,0,0,0,,1,,,73,127
23718,note_on,0,0,0,,6,,,78,127
23718,note_on,0,0,0,,2,,,74,127
23862,note_off,144,0,0,,10,,,81,127
23864,note_on,2,0,0,,12,,,83,127
24008,note_off,144,0,0,,12,,,83,127
24008,note_off,0,0,0,,2,,,74,127
24008,note_off,0,0,0,,6,,,78,127
24008,note_off,0,0,0,,1,,,73,127
24010,note_on,2,0,0,,1,,,85,127
24010,note_on,0,0,0,,2,,,74,127
24010,note_on,0,0,0,,1,,,73,127
24010,note_on,0,0,0,,6,,,78,127
24154,note_off,144,0,0,,6,,,78,127
24154,note_off,0,0,0,,1,,,73,127
24154,note_off,0,0,0,,2,,,74,127
24154,note_off,0,0,0,,1,,,85,127
24156,note_on,2,0,0,,8,,,80,127
24156,note_on,0,0,0,,2,,,74,127
24156,note_on,0,0,0,,1,,,73,127
24227,note_off,71,0,0,,8,,,80,127
24229,note_on,2,0,0,,6,,,78,127
24300,note_off,71,0,0,,6,,,78,127
24302,note_on,2,0,0,,5,,,77,127
24446,note_off,144,0,0,,5,,,77,127
24446,note_off,0,0,0,,1,,,73,127
24446,note_off,0,0,0,,2,,,74,127
24448,note_on,2,0,0,,6,,,78,127
24448,note_on,0,0,0,,1,,,73,127
24448,note_on,0,0,0,,2,,,74,127
24592,note_off,144,0,0,,2,,,74,127
24592,note_off,0,0,0,,1,,,73,127
24592,note_off,0,0,0,,6,,,78,127
24594,note_on,2,0,0,,8,,,80,127
24594,note_on,0,0,0,,1,,,61,127
24594,note_on,0,0,0,,1,,,73,127
24880,note_off,286,0,0,,1,,,73,127
24885,note_off,5,0,0,,8,,,80,127
24887,note_on,2,0,0,,1,,,73,127
24887,note_on,0,0,0,,1,,,85,127
25029,note_off,142,0,0,,1,,,61,127
25031,note_off,2,0,0,,1,,,85,127
25031,note_off,0,0,0,,1,,,73,127
25033,note_on,2,0,0,,2,,,86,127
25033,note_on,0,0,0,,2,,,74,127
25326,note_on,293,0,0,,12,,,71,127
25470,note_off,144,0,0,,12,,,71,127
25472,note_on,2,0,0,,10,,,69,127
25616,note_off,144,0,0,,2,,,74,127
25616,note_off,0,0,0,,2,,,86,127
25618,note_on,2,0,0,,1,,,85,127
25762,note_off,144,0,0,,1,,,85,127
25762,note_off,0,0,0,,10,,,69,127
25764,note_on,2,0,0,,12,,,83,127
25764,note_on,0,0,0,,12,,,71,127
25908,note_off,144,0,0,,12,,,71,127
25908,note_off,0,0,0,,12,,,83,127
25910,note_on,2,0,0,,12,,,83,127
25910,note_on,0,0,0,,1,,,73,127
26054,note_off,144,0,0,,12,,,83,127
26056,note_on,2,0,0,,10,,,81,127
26200,note_off,144,0,0,,10,,,81,127
26200,note_off,0,0,0,,1,,,73,127
26202,note_on,2,0,0,,8,,,80,127
26202,note_on,0,0,0,,1,,,61,127
26346,note_off,144,0,0,,1,,,61,127
26346,note_off,0,0,0,,8,,,80,127
26348,note_on,2,0,0,,6,,,78,127
26348,note_on,0,0,0,,6,,,66,127
26638,note_off,290,0,0,,6,,,66,127
26638,note_off,0,0,0,,6,,,78,127
26640,note_on,2,0,0,,6,,,78,127
26640,note_on,0,0,0,,12,,,71,127
26640,note_on,0,0,0,,3,,,75,127
26784,note_off,144,0,0,,3,,,75,127
26784,note_off,0,0,0,,12,,,71,127
26784,note_off,0,0,0,,6,,,78,127
26786,note_on,2,0,0,,7,,,79,127
26786,note_on,0,0,0,,12,,,71,127
26786,note_on,0,0,0,,3,,,75,127
26857,note_off,71,0,0,,7,,,79,127
26859,note_on,2,0,0,,6,,,78,127
26930,note_off,71,0,0,,6,,,78,127
26932,note_on,2,0,0,,4,,,76,127
27076,note_off,144,0,0,,4,,,76,127
27076,note_off,0,0,0,,3,,,75,127
27076,note_off,0,0,0,,12,,,71,127
27078,note_on,2,0,0,,6,,,78,127
27078,note_on,0,0,0,,3,,,75,127
27078,note_on,0,0,0,,12,,,71,127
27222,note_off,144,0,0,,12,,,71,127
27222,note_off,0,0,0,,3,,,75,127
27222,note_off,0,0,0,,6,,,78,127
27224,note_on,2,0,0,,7,,,79,127
27224,note_on,0,0,0,,4,,,76,127
27224,note_on,0,0,0,,12,,,71,127
27224,note_on,0,0,0,,0,,,72,127
27368,note_off,144,0,0,,7,,,79,127
27370,note_on,2,0,0,,10,,,81,127
27514,note_off,144,0,0,,10,,,81,127
27514,note_off,0,0,0,,0,,,72,127
27514,note_off,0,0,0,,12,,,71,127
27514,note_off,0,0,0,,4,,,76,127
27516,note_on,2,0,0,,12,,,83,127
27516,note_on,0,0,0,,4,,,76,127
27516,note_on,0,0,0,,12,,,71,127
27516,note_on,0,0,0,,0,,,72,127
27660,note_off,144,0,0,,0,,,72,127
27660,note_off,0,0,0,,12,,,71,127
27660,note_off,0,0,0,,4,,,76,127
27660,note_off,0,0,0,,12,,,83,127
27662,note_on,2,0,0,,6,,,78,127
27662,note_on,0,0,0,,12,,,71,127
27662,note_on,0,0,0,,0,,,72,127
27733,note_off,71,0,0,,6,,,78,127
27735,note_on,2,0,0,,4,,,76,127
27806,note_off,71,0,0,,4,,,76,127
27808,note_on,2,0,0,,3,,,75,127
27952,note_off,144,0,0,,3,,,75,127
27952,note_off,0,0,0,,0,,,72,127
27952,note_off,0,0,0,,12,,,71,127
27954,note_on,2,0,0,,4,,,76,127
27954,note_on,0,0,0,,0,,,72,127
27954,note_on,0,0,0,,12,,,71,127
28098,note_off,144,0,0,,12,,,71,127
28098,note_off,0,0,0,,0,,,72,127
28098,note_off,0,0,0,,4,,,76,127
28100,note_on,2,0,0,,6,,,78,127
28100,note_on,0,0,0,,12,,,71,127
28100,note_on,0,0,0,,12,,,59,127
28390,note_off,290,0,0,,12,,,71,127
28390,note_off,0,0,0,,6,,,78,127
28392,note_on,2,0,0,,6,,,78,127
28392,note_on,0,0,0,,12,,,71,127
28392,note_on,0,0,0,,3,,,75,127
28534,note_off,142,0,0,,12,,,59,127
28536,note_off,2,0,0,,3,,,75,127
28536,note_off,0,0,0,,12,,,71,127
28536,note_off,0,0,0,,6,,,78,127
28538,note_on,2,0,0,,7,,,79,127
28538,note_on,0,0,0,,3,,,75,127
28538,note_on,0,0,0,,12,,,71,127
28609,note_off,71,0,0,,7,,,79,127
28611,note_on,2,0,0,,6,,,78,127
28682,note_off,71,0,0,,6,,,78,127
28684,note_on,2,0,0,,4,,,76,127
28828,note_off,144,0,0,,4,,,76,127
28828,note_off,0,0,0,,12,,,71,127
28828,note_off,0,0,0,,3,,,75,127
28830,note_on,2,0,0,,6,,,78,127
28830,note_on,0,0,0,,3,,,75,127
28830,note_on,0,0,0,,12,,,71,127
28974,note_off,144,0,0,,12,,,71,127
28974,note_off,0,0,0,,3,,,75,127
28974,note_off,0,0,0,,6,,,78,127
28976,note_on,2,0,0,,7,,,79,127
28976,note_on,0,0,0,,0,,,72,127
28976,note_on,0,0,0,,4,,,76,127
28976,note_on,0,0,0,,12,,,71,127
29120,note_off,144,0,0,,7,,,79,127
29122,note_on,2,0,0,,10,,,81,127
29266,note_off,144,0,0,,10,,,81,127
29266,note_off,0,0,0,,12,,,71,127
29266,note_off,0,0,0,,4,,,76,127
29266,note_off,0,0,0,,0,,,72,127
29268,note_on,2,0,0,,12,,,83,127
29268,note_on,0,0,0,,4,,,76,127
29268,note_on,0,0,0,,0,,,72,127
29268,note_on,0,0,0,,12,,,71,127
29412,note_off,144,0,0,,12,,,71,127
29412,note_off,0,0,0,,0,,,72,127
29412,note_off,0,0,0,,4,,,76,127
29412,note_off,0,0,0,,12,,,83,127
29414,note_on,2,0,0,,6,,,78,127
29414,note_on,0,0,0,,0,,,72,127
29414,note_on,0,0,0,,12,,,71,127
29485,note_off,71,0,0,,6,,,78,127
29487,note_on,2,0,0,,4,,,76,127
29558,note_off,71,0,0,,4,,,76,127
29560,note_on,2,0,0,,3,,,75,127
29704,note_off,144,0,0,,3,,,75,127
29704,note_off,0,0,0,,12,,,71,127
29704,note_off,0,0,0,,0,,,72,127
29706,note_on,2,0,0,,4,,,76,127
29706,note_on,0,0,0,,12,,,71,127
29706,note_on,0,0,0,,0,,,72,127
29850,note_off,144,0,0,,0,,,72,127
29850,note_off,0,0,0,,12,,,71,127
29850,note_off,0,0,0,,4,,,76,127
29852,note_on,2,0,0,,6,,,78,127
29852,note_on,0,0,0,,12,,,71,127
30138,note_off,286,0,0,,12,,,71,127
30143,note_off,5,0,0,,6,,,78,127
30145,note_on,2,0,0,,12,,,71,127
30145,note_on,0,0,0,,12,,,83,127
30289,note_off,144,0,0,,12,,,83,127
30289,note_off,0,0,0,,12,,,71,127
30291,note_on,2,0,0,,0,,,72,127
30291,note_on,0,0,0,,0,,,84,127
30584,note_on,293,0,0,,10,,,69,127
30728,note_off,144,0,0,,10,,,69,127
30730,note_on,2,0,0,,7,,,67,127
30874,note_off,144,0,0,,0,,,84,127
30874,note_off,0,0,0,,0,,,72,127
30876,note_on,2,0,0,,12,,,83,127
31020,note_off,144,0,0,,12,,,83,127
31020,note_off,0,0,0,,7,,,67,127
31022,note_on,2,0,0,,10,,,81,127
31022,note_on,0,0,0,,10,,,69,127
31166,note_off,144,0,0,,10,,,69,127
31166,note_off,0,0,0,,10,,,81,127
31168,note_on,2,0,0,,10,,,81,127
31168,note_on,0,0,0,,12,,,71,127
31312,note_off,144,0,0,,10,,,81,127
31314,note_on,2,0,0,,7,,,79,127
31458,note_off,144,0,0,,7,,,79,127
31458,note_off,0,0,0,,12,,,71,127
31460,note_on,2,0,0,,6,,,78,127
31460,note_on,0,0,0,,12,,,59,127
31604,note_off,144,0,0,,12,,,59,127
31604,note_off,0,0,0,,6,,,78,127
31606,note_on,2,0,0,,4,,,76,127
31606,note_on,0,0,0,,4,,,64,127
31896,note_off,290,0,0,,4,,,64,127
31896,note_off,0,0,0,,4,,,76,127
31898,note_on,2,0,0,,4,,,76,127
31898,note_on,0,0,0,,10,,,69,127
31898,note_on,0,0,0,,0,,,72,127
32042,note_off,144,0,0,,0,,,72,127
32042,note_off,0,0,0,,10,,,69,127
32042,note_off,0,0,0,,4,,,76,127
32044,note_on,2,0,0,,5,,,77,127
32044,note_on,0,0,0,,2,,,74,127
32044,note_on,0,0,0,,10,,,69,127
32115,note_off,71,0,0,,2,,,74,127
32115,note_off,0,0,0,,5,,,77,127
32117,note_on,2,0,0,,4,,,76,127
32117,note_on,0,0,0,,0,,,72,127
32188,note_off,71,0,0,,0,,,72,127
32188,note_off,0,0,0,,4,,,76,127
32190,note_on,2,0,0,,2,,,74,127
32190,note_on,0,0,0,,12,,,71,127
32334,note_off,144,0,0,,12,,,71,127
32334,note_off,0,0,0,,2,,,74,127
32336,note_on,2,0,0,,4,,,76,127
32336,note_on,0,0,0,,0,,,72,127
32478,note_off,142,0,0,,10,,,69,127
32480,note_off,2,0,0,,4,,,76,127
32482,note_on,2,0,0,,10,,,81,127
32482,note_on,0,0,0,,5,,,65,127
32772,note_off,290,0,0,,5,,,65,127
32772,note_off,0,0,0,,10,,,81,127
32774,note_on,2,0,0,,10,,,81,127
32774,note_on,0,0,0,,5,,,65,127
32918,note_off,144,0,0,,5,,,65,127
32918,note_off,0,0,0,,10,,,81,127
32918,note_off,0,0,0,,0,,,72,127
32920,note_on,2,0,0,,4,,,76,127
32920,note_on,0,0,0,,7,,,67,127
32920,note_on,0,0,0,,0,,,72,127
32991,note_off,71,0,0,,0,,,72,127
32991,note_off,0,0,0,,4,,,76,127
32993,note_on,2,0,0,,2,,,74,127
32993,note_on,0,0,0,,12,,,71,127
33064,note_off,71,0,0,,12,,,71,127
33064,note_off,0,0,0,,2,,,74,127
33066,note_on,2,0,0,,1,,,73,127
33066,note_on,0,0,0,,10,,,69,127
33210,note_off,144,0,0,,10,,,69,127
33210,note_off,0,0,0,,1,,,73,127
33212,note_on,2,0,0,,2,,,74,127
33212,note_on,0,0,0,,12,,,71,127
33354,note_off,142,0,0,,7,,,67,127
33356,note_off,2,0,0,,2,,,74,127
33358,note_on,2,0,0,,7,,,79,127
33358,note_on,0,0,0,,4,,,64,127
33648,note_off,290,0,0,,4,,,64,127
33648,note_off,0,0,0,,7,,,79,127
33650,note_on,2,0,0,,7,,,79,127
33650,note_on,0,0,0,,4,,,64,127
33794,note_off,144,0,0,,4,,,64,127
33794,note_off,0,0,0,,7,,,79,127
33794,note_off,0,0,0,,12,,,71,127
33796,note_on,2,0,0,,2,,,74,127
33796,note_on,0,0,0,,5,,,65,127
33796,note_on,0,0,0,,12,,,71,127
33867,note_off,71,0,0,,12,,,71,127
33867,note_off,0,0,0,,2,,,74,127
33869,note_on,2,0,0,,0,,,72,127
33869,note_on,0,0,0,,10,,,69,127
33940,note_off,71,0,0,,10,,,69,127
33940,note_off,0,0,0,,0,,,72,127
33942,note_on,2,0,0,,12,,,71,127
33942,note_on,0,0,0,,8,,,68,127
34086,note_off,144,0,0,,8,,,68,127
34086,note_off,0,0,0,,12,,,71,127
34088,note_on,2,0,0,,0,,,72,127
34088,note_on,0,0,0,,10,,,69,127
34230,note_off,142,0,0,,5,,,65,127
34232,note_off,2,0,0,,0,,,72,127
34234,note_on,2,0,0,,7,,,79,127
34234,note_on,0,0,0,,5,,,77,127
34234,note_on,0,0,0,,2,,,62,127
34524,note_off,290,0,0,,2,,,62,127
34524,note_off,0,0,0,,5,,,77,127
34524,note_off,0,0,0,,7,,,79,127
34526,note_on,2,0,0,,4,,,76,127
34526,note_on,0,0,0,,2,,,62,127
34670,note_off,144,0,0,,2,,,62,127
34670,note_off,0,0,0,,4,,,76,127
34672,note_on,2,0,0,,2,,,74,127
34672,note_on,0,0,0,,4,,,64,127
34816,note_off,144,0,0,,2,,,74,127
34818,note_on,2,0,0,,0,,,72,127
34955,note_off,137,0,0,,10,,,69,127
34962,note_off,7,0,0,,0,,,72,127
34964,note_on,2,0,0,,12,,,71,127
34964,note_on,0,0,0,,8,,,68,127
35106,note_off,142,0,0,,4,,,64,127
35108,note_off,2,0,0,,8,,,68,127
35108,note_off,0,0,0,,12,,,71,127
35110,note_on,2,0,0,,10,,,69,127
35110,note_on,0,0,0,,10,,,57,127
35400,note_off,290,0,0,,10,,,57,127
35400,note_off,0,0,0,,10,,,69,127
35402,note_on,2,0,0,,4,,,76,127
35402,note_on,0,0,0,,10,,,69,127
35402,note_on,0,0,0,,0,,,72,127
35546,note_off,144,0,0,,0,,,72,127
35546,note_off,0,0,0,,10,,,69,127
35546,note_off,0,0,0,,4,,,76,127
35548,note_on,2,0,0,,5,,,77,127
35548,note_on,0,0,0,,2,,,74,127
35548,note_on,0,0,0,,10,,,69,127
35619,note_off,71,0,0,,2,,,74,127
35619,note_off,0,0,0,,5,,,77,127
35621,note_on,2,0,0,,4,,,76,127
35621,note_on,0,0,0,,0,,,72,127
35692,note_off,71,0,0,,0,,,72,127
35692,note_off,0,0,0,,4,,,76,127
35694,note_on,2,0,0,,2,,,74,127
35694,note_on,0,0,0,,12,,,71,127
35838,note_off,144,0,0,,12,,,71,127
35838,note_off,0,0,0,,2,,,74,127
35840,note_on,2,0,0,,4,,,76,127
35840,note_on,0,0,0,,0,,,72,127
35982,note_off,142,0,0,,10,,,69,127
35984,note_off,2,0,0,,4,,,76,127
35986,note_on,2,0,0,,8,,,80,127
35986,note_on,0,0,0,,5,,,65,127
36276,note_off,290,0,0,,8,,,80,127
36278,note_on,2,0,0,,10,,,81,127
36422,note_off,144,0,0,,10,,,81,127
36422,note_off,0,0,0,,5,,,65,127
36422,note_off,0,0,0,,0,,,72,127
36424,note_on,2,0,0,,4,,,76,127
36424,note_on,0,0,0,,0,,,72,127
36424,note_on,0,0,0,,7,,,67,127
36495,note_off,71,0,0,,0,,,72,127
36495,note_off,0,0,0,,4,,,76,127
36497,note_on,2,0,0,,2,,,74,127
36497,note_on,0,0,0,,12,,,71,127
36568,note_off,71,0,0,,12,,,71,127
36568,note_off,0,0,0,,2,,,74,127
36570,note_on,2,0,0,,1,,,73,127
36570,note_on,0,0,0,,10,,,69,127
36714,note_off,144,0,0,,10,,,69,127
36714,note_off,0,0,0,,1,,,73,127
36716,note_on,2,0,0,,2,,,74,127
36716,note_on,0,0,0,,12,,,71,127
36858,note_off,142,0,0,,7,,,67,127
36860,note_off,2,0,0,,2,,,74,127
36862,note_on,2,0,0,,6,,,78,127
36862,note_on,0,0,0,,4,,,64,127
37152,note_off,290,0,0,,6,,,78,127
37154,note_on,2,0,0,,7,,,79,127
37298,note_off,144,0,0,,7,,,79,127
37298,note_off,0,0,0,,4,,,64,127
37298,note_off,0,0,0,,12,,,71,127
37300,note_on,2,0,0,,2,,,74,127
37300,note_on,0,0,0,,5,,,65,127
37300,note_on,0,0,0,,12,,,71,127
37371,note_off,71,0,0,,12,,,71,127
37371,note_off,0,0,0,,2,,,74,127
37373,note_on,2,0,0,,0,,,72,127
37373,note_on,0,0,0,,10,,,69,127
37444,note_off,71,0,0,,10,,,69,127
37444,note_off,0,0,0,,0,,,72,127
37446,note_on,2,0,0,,12,,,71,127
37446,note_on,0,0,0,,8,,,68,127
37590,note_off,144,0,0,,8,,,68,127
37590,note_off,0,0,0,,12,,,71,127
37592,note_on,2,0,0,,0,,,72,127
37592,note_on,0,0,0,,10,,,69,127
37734,note_off,142,0,0,,5,,,65,127
37736,note_off,2,0,0,,10,,,69,127
37736,note_off,0,0,0,,0,,,72,127
37738,note_on,2,0,0,,7,,,79,127
37738,note_on,0,0,0,,5,,,77,127
37738,note_on,0,0,0,,2,,,62,127
37738,note_on,0,0,0,,10,,,69,127
38028,note_off,290,0,0,,5,,,77,127
38028,note_off,0,0,0,,7,,,79,127
38030,note_on,2,0,0,,4,,,76,127
38174,note_off,144,0,0,,4,,,76,127
38174,note_off,0,0,0,,10,,,69,127
38174,note_off,0,0,0,,2,,,62,127
38176,note_on,2,0,0,,2,,,74,127
38176,note_on,0,0,0,,10,,,69,127
38176,note_on,0,0,0,,4,,,64,127
38320,note_off,144,0,0,,2,,,74,127
38322,note_on,2,0,0,,0,,,72,127
38466,note_off,144,0,0,,0,,,72,127
38466,note_off,0,0,0,,10,,,69,127
38468,note_on,2,0,0,,12,,,71,127
38468,note_on,0,0,0,,8,,,68,127
38610,note_off,142,0,0,,4,,,64,127
38612,note_off,2,0,0,,8,,,68,127
38612,note_off,0,0,0,,12,,,71,127
38614,note_on,2,0,0,,10,,,69,127
38614,note_on,0,0,0,,10,,,57,127
38904,note_off,290,0,0,,10,,,57,127
38904,note_off,0,0,0,,10,,,69,127
38906,note_on,2,0,0,,12,,,83,127
38906,note_on,0,0,0,,12,,,59,127
39050,note_off,144,0,0,,12,,,59,127
39050,note_off,0,0,0,,12,,,83,127
39052,note_on,2,0,0,,10,,,81,127
39052,note_on,0,0,0,,0,,,60,127
39342,note_off,290,0,0,,0,,,60,127
39342,note_off,0,0,0,,10,,,81,127
39344,note_on,2,0,0,,7,,,79,127
39344,note_on,0,0,0,,10,,,57,127
39488,note_off,144,0,0,,10,,,57,127
39488,note_off,0,0,0,,7,,,79,127
39490,note_on,2,0,0,,5,,,77,127
39490,note_on,0,0,0,,2,,,62,127
39634,note_off,144,0,0,,5,,,77,127
39636,note_on,2,0,0,,4,,,76,127
39780,note_off,144,0,0,,4,,,76,127
39780,note_off,0,0,0,,2,,,62,127
39782,note_on,2,0,0,,2,,,74,127
39782,note_on,0,0,0,,4,,,64,127
39926,note_off,144,0,0,,4,,,64,127
39926,note_off,0,0,0,,2,,,74,127
39928,note_on,2,0,0,,0,,,72,127
39928,note_on,0,0,0,,2,,,74,127
39928,note_on,0,0,0,,5,,,65,127
40072,note_off,144,0,0,,2,,,74,127
40072,note_off,0,0,0,,0,,,72,127
40074,note_on,2,0,0,,12,,,71,127
40218,note_off,144,0,0,,12,,,71,127
40220,note_on,2,0,0,,10,,,69,127
40364,note_off,144,0,0,,10,,,69,127
40364,note_off,0,0,0,,5,,,65,127
40366,note_on,2,0,0,,8,,,68,127
40366,note_on,0,0,0,,4,,,64,127
40652,note_off,286,0,0,,4,,,64,127
40657,note_off,5,0,0,,8,,,68,127
40659,note_on,2,0,0,,12,,,83,127
40803,note_off,144,0,0,,12,,,83,127
40805,note_on,2,0,0,,10,,,81,127
41095,note_off,290,0,0,,10,,,81,127
41097,note_on,2,0,0,,7,,,79,127
41097,note_on,0,0,0,,0,,,48,127
41241,note_off,144,0,0,,0,,,48,127
41241,note_off,0,0,0,,7,,,79,127
41243,note_on,2,0,0,,5,,,77,127
41243,note_on,0,0,0,,2,,,50,127
41387,note_off,144,0,0,,5,,,77,127
41389,note_on,2,0,0,,4,,,76,127
41533,note_off,144,0,0,,4,,,76,127
41533,note_off,0,0,0,,2,,,50,127
41535,note_on,2,0,0,,2,,,74,127
41535,note_on,0,0,0,,4,,,52,127
41679,note_off,144,0,0,,4,,,52,127
41679,note_off,0,0,0,,2,,,74,127
41681,note_on,2,0,0,,2,,,74,127
41681,note_on,0,0,0,,0,,,72,127
41681,note_on,0,0,0,,5,,,53,127
41825,note_off,144,0,0,,0,,,72,127
41825,note_off,0,0,0,,2,,,74,127
41827,note_on,2,0,0,,12,,,71,127
41971,note_off,144,0,0,,12,,,71,127
41973,note_on,2,0,0,,10,,,69,127
42117,note_off,144,0,0,,10,,,69,127
42117,note_off,0,0,0,,5,,,53,127
42119,note_on,2,0,0,,8,,,68,127
42119,note_on,0,0,0,,4,,,52,127
42409,note_off,290,0,0,,4,,,52,127
42409,note_off,0,0,0,,8,,,68,127
42411,note_on,2,0,0,,4,,,76,127
42411,note_on,0,0,0,,1,,,73,127
42555,note_off,144,0,0,,1,,,73,127
42555,note_off,0,0,0,,4,,,76,127
42557,note_on,2,0,0,,6,,,78,127
42557,note_on,0,0,0,,2,,,74,127
42628,note_off,71,0,0,,2,,,74,127
42628,note_off,0,0,0,,6,,,78,127
42630,note_on,2,0,0,,4,,,76,127
42630,note_on,0,0,0,,1,,,73,127
42701,note_off,71,0,0,,1,,,73,127
42701,note_off,0,0,0,,4,,,76,127
42703,note_on,2,0,0,,2,,,74,127
42703,note_on,0,0,0,,12,,,71,127
42847,note_off,144,0,0,,12,,,71,127
42847,note_off,0,0,0,,2,,,74,127
42849,note_on,2,0,0,,4,,,76,127
42849,note_on,0,0,0,,1,,,73,127
42993,note_off,144,0,0,,1,,,73,127
42993,note_off,0,0,0,,4,,,76,127
42995,note_on,2,0,0,,2,,,86,127
42995,note_on,0,0,0,,6,,,66,127
43285,note_off,290,0,0,,6,,,66,127
43285,note_off,0,0,0,,2,,,86,127
43287,note_on,2,0,0,,2,,,74,127
43287,note_on,0,0,0,,12,,,71,127
43431,note_off,144,0,0,,12,,,71,127
43431,note_off,0,0,0,,2,,,74,127
43433,note_on,2,0,0,,4,,,76,127
43433,note_on,0,0,0,,1,,,73,127
43504,note_off,71,0,0,,1,,,73,127
43504,note_off,0,0,0,,4,,,76,127
43506,note_on,2,0,0,,2,,,74,127
43506,note_on,0,0,0,,12,,,71,127
43577,note_off,71,0,0,,12,,,71,127
43577,note_off,0,0,0,,2,,,74,127
43579,note_on,2,0,0,,1,,,73,127
43579,note_on,0,0,0,,10,,,69,127
43723,note_off,144,0,0,,10,,,69,127
43723,note_off,0,0,0,,1,,,73,127
43725,note_on,2,0,0,,2,,,74,127
43725,note_on,0,0,0,,12,,,71,127
43869,note_off,144,0,0,,12,,,71,127
43869,note_off,0,0,0,,2,,,74,127
43871,note_on,2,0,0,,1,,,85,127
43871,note_on,0,0,0,,4,,,64,127
44161,note_off,290,0,0,,4,,,64,127
44161,note_off,0,0,0,,1,,,85,127
44163,note_on,2,0,0,,1,,,73,127
44163,note_on,0,0,0,,10,,,69,127
44307,note_off,144,0,0,,10,,,69,127
44307,note_off,0,0,0,,1,,,73,127
44309,note_on,2,0,0,,2,,,74,127
44309,note_on,0,0,0,,12,,,71,127
44380,note_off,71,0,0,,12,,,71,127
44380,note_off,0,0,0,,2,,,74,127
44382,note_on,2,0,0,,1,,,73,127
44382,note_on,0,0,0,,10,,,69,127
44453,note_off,71,0,0,,10,,,69,127
44453,note_off,0,0,0,,1,,,73,127
44455,note_on,2,0,0,,12,,,71,127
44455,note_on,0,0,0,,8,,,68,127
44599,note_off,144,0,0,,8,,,68,127
44599,note_off,0,0,0,,12,,,71,127
44601,note_on,2,0,0,,1,,,73,127
44601,note_on,0,0,0,,10,,,69,127
44745,note_off,144,0,0,,10,,,69,127
44745,note_off,0,0,0,,1,,,73,127
44747,note_on,2,0,0,,12,,,83,127
44747,note_on,0,0,0,,2,,,62,127
45037,note_off,290,0,0,,2,,,62,127
45037,note_off,0,0,0,,12,,,83,127
45039,note_on,2,0,0,,12,,,71,127
45039,note_on,0,0,0,,8,,,68,127
45183,note_off,144,0,0,,8,,,68,127
45183,note_off,0,0,0,,12,,,71,127
45185,note_on,2,0,0,,1,,,73,127
45185,note_on,0,0,0,,10,,,69,127
45256,note_off,71,0,0,,10,,,69,127
45256,note_off,0,0,0,,1,,,73,127
45258,note_on,2,0,0,,12,,,71,127
45258,note_on,0,0,0,,8,,,68,127
45329,note_off,71,0,0,,8,,,68,127
45329,note_off,0,0,0,,12,,,71,127
45331,note_on,2,0,0,,10,,,69,127
45331,note_on,0,0,0,,6,,,66,127
45475,note_off,144,0,0,,6,,,66,127
45475,note_off,0,0,0,,10,,,69,127
45477,note_on,2,0,0,,12,,,71,127
45477,note_on,0,0,0,,8,,,68,127
45621,note_off,144,0,0,,8,,,68,127
45621,note_off,0,0,0,,12,,,71,127
45623,note_on,2,0,0,,10,,,81,127
45623,note_on,0,0,0,,1,,,61,127
45913,note_off,290,0,0,,1,,,61,127
45913,note_off,0,0,0,,10,,,81,127
45915,note_on,2,0,0,,4,,,76,127
45915,note_on,0,0,0,,10,,,69,127
45915,note_on,0,0,0,,4,,,64,127
45915,note_on,0,0,0,,1,,,61,127
46059,note_off,144,0,0,,1,,,61,127
46059,note_off,0,0,0,,4,,,64,127
46059,note_off,0,0,0,,10,,,69,127
46059,note_off,0,0,0,,4,,,76,127
46061,note_on,2,0,0,,4,,,76,127
46061,note_on,0,0,0,,10,,,69,127
46061,note_on,0,0,0,,4,,,64,127
46061,note_on,0,0,0,,1,,,61,127
46205,note_off,144,0,0,,4,,,76,127
46207,note_on,2,0,0,,10,,,81,127
46351,note_off,144,0,0,,10,,,81,127
46351,note_off,0,0,0,,1,,,61,127
46351,note_off,0,0,0,,4,,,64,127
46351,note_off,0,0,0,,10,,,69,127
46353,note_on,2,0,0,,4,,,76,127
46353,note_on,0,0,0,,4,,,64,127
46353,note_on,0,0,0,,1,,,61,127
46353,note_on,0,0,0,,10,,,69,127
46497,note_off,144,0,0,,10,,,69,127
46497,note_off,0,0,0,,1,,,61,127
46497,note_off,0,0,0,,4,,,64,127
46497,note_off,0,0,0,,4,,,76,127
46499,note_on,2,0,0,,6,,,78,127
46499,note_on,0,0,0,,10,,,69,127
46499,note_on,0,0,0,,2,,,62,127
46643,note_off,144,0,0,,6,,,78,127
46645,note_on,2,0,0,,2,,,74,127
46789,note_off,144,0,0,,2,,,74,127
46789,note_off,0,0,0,,2,,,62,127
46789,note_off,0,0,0,,10,,,69,127
46791,note_on,2,0,0,,12,,,71,127
46791,note_on,0,0,0,,2,,,62,127
46935,note_off,144,0,0,,2,,,62,127
46935,note_off,0,0,0,,12,,,71,127
46937,note_on,2,0,0,,10,,,69,127
46937,note_on,0,0,0,,4,,,64,127
47081,note_off,144,0,0,,10,,,69,127
47083,note_on,2,0,0,,12,,,71,127
47227,note_off,144,0,0,,12,,,71,127
47227,note_off,0,0,0,,4,,,64,127
47229,note_on,2,0,0,,8,,,68,127
47229,note_on,0,0,0,,4,,,52,127
47373,note_off,144,0,0,,4,,,52,127
47373,note_off,0,0,0,,8,,,68,127
47375,note_on,2,0,0,,10,,,69,127
47375,note_on,0,0,0,,10,,,57,127
47665,note_off,290,0,0,,10,,,57,127
47665,note_off,0,0,0,,10,,,69,127
47667,note_on,2,0,0,,4,,,76,127
47667,note_on,0,0,0,,1,,,73,127
47811,note_off,144,0,0,,1,,,73,127
47811,note_off,0,0,0,,4,,,76,127
47813,note_on,2,0,0,,6,,,78,127
47813,note_on,0,0,0,,2,,,74,127
47884,note_off,71,0,0,,2,,,74,127
47884,note_off,0,0,0,,6,,,78,127
47886,note_on,2,0,0,,4,,,76,127
47886,note_on,0,0,0,,1,,,73,127
47957,note_off,71,0,0,,1,,,73,127
47957,note_off,0,0,0,,4,,,76,127
47959,note_on,2,0,0,,2,,,74,127
47959,note_on,0,0,0,,12,,,71,127
48103,note_off,144,0,0,,12,,,71,127
48103,note_off,0,0,0,,2,,,74,127
48105,note_on,2,0,0,,4,,,76,127
48105,note_on,0,0,0,,1,,,73,127
48249,note_off,144,0,0,,1,,,73,127
48249,note_off,0,0,0,,4,,,76,127
48251,note_on,2,0,0,,1,,,85,127
48251,note_on,0,0,0,,6,,,66,127
48541,note_off,290,0,0,,1,,,85,127
48543,note_on,2,0,0,,2,,,86,127
48687,note_off,144,0,0,,2,,,86,127
48687,note_off,0,0,0,,6,,,66,127
48689,note_on,2,0,0,,4,,,76,127
48689,note_on,0,0,0,,1,,,73,127
48760,note_off,71,0,0,,1,,,73,127
48760,note_off,0,0,0,,4,,,76,127
48762,note_on,2,0,0,,2,,,74,127
48762,note_on,0,0,0,,12,,,71,127
48833,note_off,71,0,0,,12,,,71,127
48833,note_off,0,0,0,,2,,,74,127
48835,note_on,2,0,0,,1,,,73,127
48835,note_on,0,0,0,,10,,,69,127
48979,note_off,144,0,0,,10,,,69,127
48979,note_off,0,0,0,,1,,,73,127
48981,note_on,2,0,0,,2,,,74,127
48981,note_on,0,0,0,,12,,,71,127
49125,note_off,144,0,0,,12,,,71,127
49125,note_off,0,0,0,,2,,,74,127
49127,note_on,2,0,0,,12,,,83,127
49127,note_on,0,0,0,,4,,,64,127
49417,note_off,290,0,0,,12,,,83,127
49419,note_on,2,0,0,,1,,,85,127
49563,note_off,144,0,0,,1,,,85,127
49563,note_off,0,0,0,,4,,,64,127
49565,note_on,2,0,0,,2,,,74,127
49565,note_on,0,0,0,,12,,,71,127
49636,note_off,71,0,0,,12,,,71,127
49636,note_off,0,0,0,,2,,,74,127
49638,note_on,2,0,0,,1,,,73,127
49638,note_on,0,0,0,,10,,,69,127
49709,note_off,71,0,0,,10,,,69,127
49709,note_off,0,0,0,,1,,,73,127
49711,note_on,2,0,0,,12,,,71,127
49711,note_on,0,0,0,,8,,,68,127
49855,note_off,144,0,0,,8,,,68,127
49855,note_off,0,0,0,,12,,,71,127
49857,note_on,2,0,0,,1,,,73,127
49857,note_on,0,0,0,,10,,,69,127
50001,note_off,144,0,0,,10,,,69,127
50001,note_off,0,0,0,,1,,,73,127
50003,note_on,2,0,0,,11,,,82,127
50003,note_on,0,0,0,,2,,,62,127
50293,note_off,290,0,0,,11,,,82,127
50295,note_on,2,0,0,,12,,,83,127
50439,note_off,144,0,0,,12,,,83,127
50439,note_off,0,0,0,,2,,,62,127
50441,note_on,2,0,0,,1,,,73,127
50441,note_on,0,0,0,,10,,,69,127
50512,note_off,71,0,0,,10,,,69,127
50512,note_off,0,0,0,,1,,,73,127
50514,note_on,2,0,0,,12,,,71,127
50514,note_on,0,0,0,,8,,,68,127
50585,note_off,71,0,0,,8,,,68,127
50585,note_off,0,0,0,,12,,,71,127
50587,note_on,2,0,0,,10,,,69,127
50587,note_on,0,0,0,,6,,,66,127
50731,note_off,144,0,0,,6,,,66,127
50731,note_off,0,0,0,,10,,,69,127
50733,note_on,2,0,0,,12,,,71,127
50733,note_on,0,0,0,,8,,,68,127
50877,note_off,144,0,0,,8,,,68,127
50877,note_off,0,0,0,,12,,,71,127
50879,note_on,2,0,0,,8,,,80,127
50879,note_on,0,0,0,,1,,,61,127
51169,note_off,290,0,0,,8,,,80,127
51171,note_on,2,0,0,,10,,,81,127
51315,note_off,144,0,0,,10,,,81,127
51315,note_off,0,0,0,,1,,,61,127
51317,note_on,2,0,0,,4,,,76,127
51317,note_on,0,0,0,,1,,,61,127
51317,note_on,0,0,0,,4,,,64,127
51317,note_on,0,0,0,,10,,,69,127
51461,note_off,144,0,0,,4,,,76,127
51463,note_on,2,0,0,,10,,,81,127
51607,note_off,144,0,0,,10,,,81,127
51607,note_off,0,0,0,,10,,,69,127
51607,note_off,0,0,0,,4,,,64,127
51607,note_off,0,0,0,,1,,,61,127
51609,note_on,2,0,0,,4,,,76,127
51609,note_on,0,0,0,,1,,,61,127
51609,note_on,0,0,0,,4,,,64,127
51609,note_on,0,0,0,,10,,,69,127
51753,note_off,144,0,0,,10,,,69,127
51753,note_off,0,0,0,,4,,,64,127
51753,note_off,0,0,0,,1,,,61,127
51753,note_off,0,0,0,,4,,,76,127
51755,note_on,2,0,0,,8,,,80,127
51755,note_on,0,0,0,,6,,,78,127
51755,note_on,0,0,0,,2,,,62,127
51755,note_on,0,0,0,,10,,,69,127
51899,note_off,144,0,0,,6,,,78,127
51899,note_off,0,0,0,,8,,,80,127
51901,note_on,2,0,0,,2,,,74,127
52045,note_off,144,0,0,,2,,,74,127
52045,note_off,0,0,0,,10,,,69,127
52045,note_off,0,0,0,,2,,,62,127
52047,note_on,2,0,0,,12,,,71,127
52047,note_on,0,0,0,,2,,,62,127
52191,note_off,144,0,0,,2,,,62,127
52191,note_off,0,0,0,,12,,,71,127
52193,note_on,2,0,0,,10,,,69,127
52193,note_on,0,0,0,,4,,,64,127
52337,note_off,144,0,0,,10,,,69,127
52339,note_on,2,0,0,,12,,,71,127
52483,note_off,144,0,0,,12,,,71,127
52483,note_off,0,0,0,,4,,,64,127
52485,note_on,2,0,0,,8,,,68,127
52485,note_on,0,0,0,,4,,,52,127
52629,note_off,144,0,0,,4,,,52,127
52629,note_off,0,0,0,,8,,,68,127
52631,note_on,2,0,0,,10,,,69,127
52631,note_on,0,0,0,,10,,,57,127
52921,note_off,290,0,0,,10,,,57,127
52921,note_off,0,0,0,,10,,,69,127
52923,note_on,2,0,0,,10,,,81,127
52923,note_on,0,0,0,,10,,,57,127
53067,note_off,144,0,0,,10,,,57,127
53067,note_off,0,0,0,,10,,,81,127
53069,note_on,2,0,0,,6,,,78,127
53069,note_on,0,0,0,,1,,,49,127
53213,note_off,144,0,0,,6,,,78,127
53215,note_on,2,0,0,,4,,,76,127
53359,note_off,144,0,0,,4,,,76,127
53359,note_off,0,0,0,,1,,,49,127
53361,note_on,2,0,0,,2,,,74,127
53361,note_on,0,0,0,,12,,,47,127
53505,note_off,144,0,0,,12,,,47,127
53505,note_off,0,0,0,,2,,,74,127
53507,note_on,2,0,0,,2,,,74,127
53507,note_on,0,0,0,,4,,,76,127
53507,note_on,0,0,0,,10,,,45,127
53651,note_off,144,0,0,,4,,,76,127
53651,note_off,0,0,0,,2,,,74,127
53653,note_on,2,0,0,,1,,,73,127
53797,note_off,144,0,0,,1,,,73,127
53797,note_off,0,0,0,,10,,,45,127
53799,note_on,2,0,0,,10,,,81,127
53799,note_on,0,0,0,,10,,,57,127
53943,note_off,144,0,0,,10,,,57,127
53943,note_off,0,0,0,,10,,,81,127
53945,note_on,2,0,0,,6,,,78,127
53945,note_on,0,0,0,,1,,,49,127
54089,note_off,144,0,0,,6,,,78,127
54091,note_on,2,0,0,,4,,,76,127
54235,note_off,144,0,0,,4,,,76,127
54235,note_off,0,0,0,,1,,,49,127
54237,note_on,2,0,0,,2,,,74,127
54237,note_on,0,0,0,,12,,,47,127
54381,note_off,144,0,0,,12,,,47,127
54381,note_off,0,0,0,,2,,,74,127
54383,note_on,2,0,0,,4,,,76,127
54383,note_on,0,0,0,,2,,,74,127
54383,note_on,0,0,0,,10,,,45,127
54527,note_off,144,0,0,,2,,,74,127
54527,note_off,0,0,0,,4,,,76,127
54529,note_on,2,0,0,,1,,,73,127
54673,note_off,144,0,0,,1,,,73,127
54673,note_off,0,0,0,,10,,,45,127
54675,note_on,2,0,0,,10,,,81,127
54675,note_on,0,0,0,,10,,,57,127
54819,note_off,144,0,0,,10,,,57,127
54819,note_off,0,0,0,,10,,,81,127
54821,note_on,2,0,0,,6,,,78,127
54821,note_on,0,0,0,,1,,,49,127
54965,note_off,144,0,0,,6,,,78,127
54967,note_on,2,0,0,,4,,,76,127
55111,note_off,144,0,0,,4,,,76,127
55111,note_off,0,0,0,,1,,,49,127
55113,note_on,2,0,0,,2,,,74,127
55113,note_on,0,0,0,,12,,,47,127
55257,note_off,144,0,0,,12,,,47,127
55257,note_off,0,0,0,,2,,,74,127
55259,note_on,2,0,0,,1,,,73,127
55259,note_on,0,0,0,,2,,,74,127
55259,note_on,0,0,0,,10,,,45,127
55403,note_off,144,0,0,,2,,,74,127
55403,note_off,0,0,0,,1,,,73,127
55405,note_on,2,0,0,,12,,,71,127
55549,note_off,144,0,0,,12,,,71,127
55549,note_off,0,0,0,,10,,,45,127
55551,note_on,2,0,0,,1,,,73,127
55551,note_on,0,0,0,,6,,,42,127
55695,note_off,144,0,0,,6,,,42,127
55695,note_off,0,0,0,,1,,,73,127
55697,note_on,2,0,0,,2,,,74,127
55697,note_on,0,0,0,,4,,,76,127
55697,note_on,0,0,0,,2,,,38,127
55841,note_off,144,0,0,,4,,,76,127
55841,note_off,0,0,0,,2,,,74,127
55843,note_on,2,0,0,,1,,,73,127
55987,note_off,144,0,0,,1,,,73,127
55987,note_off,0,0,0,,2,,,38,127
55989,note_on,2,0,0,,12,,,71,127
55989,note_on,0,0,0,,4,,,40,127
56133,note_off,144,0,0,,4,,,40,127
56133,note_off,0,0,0,,12,,,71,127
56135,note_on,2,0,0,,10,,,69,127
56135,note_on,0,0,0,,10,,,45,127
56425,note_off,290,0,0,,10,,,45,127
56427,note_on,2,0,0,,10,,,81,127
56427,note_on,0,0,0,,10,,,57,127
56569,note_off,142,0,0,,10,,,69,127
56571,note_off,2,0,0,,10,,,57,127
56571,note_off,0,0,0,,10,,,81,127
56573,note_on,2,0,0,,6,,,78,127
56573,note_on,0,0,0,,1,,,49,127
56717,note_off,144,0,0,,6,,,78,127
56719,note_on,2,0,0,,4,,,76,127
56863,note_off,144,0,0,,4,,,76,127
56863,note_off,0,0,0,,1,,,49,127
56865,note_on,2,0,0,,2,,,74,127
56865,note_on,0,0,0,,12,,,47,127
57009,note_off,144,0,0,,12,,,47,127
57009,note_off,0,0,0,,2,,,74,127
57011,note_on,2,0,0,,4,,,76,127
57011,note_on,0,0,0,,2,,,74,127
57011,note_on,0,0,0,,10,,,45,127
57155,note_off,144,0,0,,2,,,74,127
57155,note_off,0,0,0,,4,,,76,127
57157,note_on,2,0,0,,1,,,73,127
57301,note_off,144,0,0,,1,,,73,127
57301,note_off,0,0,0,,10,,,45,127
57303,note_on,2,0,0,,10,,,81,127
57303,note_on,0,0,0,,10,,,57,127
57447,note_off,144,0,0,,10,,,57,127
57447,note_off,0,0,0,,10,,,81,127
57449,note_on,2,0,0,,6,,,78,127
57449,note_on,0,0,0,,1,,,49,127
57593,note_off,144,0,0,,6,,,78,127
57595,note_on,2,0,0,,4,,,76,127
57739,note_off,144,0,0,,4,,,76,127
57739,note_off,0,0,0,,1,,,49,127
57741,note_on,2,0,0,,2,,,74,127
57741,note_on,0,0,0,,12,,,47,127
57885,note_off,144,0,0,,12,,,47,127
57885,note_off,0,0,0,,2,,,74,127
57887,note_on,2,0,0,,4,,,76,127
57887,note_on,0,0,0,,2,,,74,127
57887,note_on,0,0,0,,10,,,45,127
58031,note_off,144,0,0,,2,,,74,127
58031,note_off,0,0,0,,4,,,76,127
58033,note_on,2,0,0,,1,,,73,127
58177,note_off,144,0,0,,1,,,73,127
58177,note_off,0,0,0,,10,,,45,127
58179,note_on,2,0,0,,10,,,81,127
58179,note_on,0,0,0,,10,,,57,127
58323,note_off,144,0,0,,10,,,57,127
58323,note_off,0,0,0,,10,,,81,127
58325,note_on,2,0,0,,6,,,78,127
58325,note_on,0,0,0,,1,,,49,127
58469,note_off,144,0,0,,6,,,78,127
58471,note_on,2,0,0,,4,,,76,127
58615,note_off,144,0,0,,4,,,76,127
58615,note_off,0,0,0,,1,,,49,127
58617,note_on,2,0,0,,2,,,74,127
58617,note_on,0,0,0,,12,,,47,127
58761,note_off,144,0,0,,12,,,47,127
58761,note_off,0,0,0,,2,,,74,127
58763,note_on,2,0,0,,1,,,73,127
58763,note_on,0,0,0,,2,,,74,127
58763,note_on,0,0,0,,10,,,45,127
58907,note_off,144,0,0,,2,,,74,127
58907,note_off,0,0,0,,1,,,73,127
58909,note_on,2,0,0,,12,,,71,127
59053,note_off,144,0,0,,12,,,71,127
59053,note_off,0,0,0,,10,,,45,127
59055,note_on,2,0,0,,1,,,73,127
59055,note_on,0,0,0,,6,,,54,127
59199,note_off,144,0,0,,6,,,54,127
59199,note_off,0,0,0,,1,,,73,127
59201,note_on,2,0,0,,4,,,76,127
59201,note_on,0,0,0,,2,,,74,127
59201,note_on,0,0,0,,2,,,50,127
59345,note_off,144,0,0,,2,,,74,127
59345,note_off,0,0,0,,4,,,76,127
59347,note_on,2,0,0,,1,,,73,127
59491,note_off,144,0,0,,1,,,73,127
59491,note_off,0,0,0,,2,,,50,127
59493,note_on,2,0,0,,12,,,71,127
59493,note_on,0,0,0,,8,,,80,127
59493,note_on,0,0,0,,4,,,52,127
59637,note_off,144,0,0,,4,,,52,127
59637,note_off,0,0,0,,8,,,80,127
59637,note_off,0,0,0,,12,,,71,127
59639,note_on,2,0,0,,1,,,73,127
59639,note_on,0,0,0,,10,,,81,127
59639,note_on,0,0,0,,10,,,45,127
59783,note_off,144,0,0,,10,,,81,127
59783,note_off,0,0,0,,1,,,73,127
59785,note_on,2,0,0,,8,,,80,127
59785,note_on,0,0,0,,12,,,71,127
59929,note_off,144,0,0,,12,,,71,127
59929,note_off,0,0,0,,8,,,80,127
59929,note_off,0,0,0,,10,,,45,127
59931,note_on,2,0,0,,10,,,81,127
59931,note_on,0,0,0,,1,,,73,127
59931,note_on,0,0,0,,6,,,54,127
60075,note_off,144,0,0,,6,,,54,127
60075,note_off,0,0,0,,1,,,73,127
60075,note_off,0,0,0,,10,,,81,127
60077,note_on,2,0,0,,2,,,74,127
60077,note_on,0,0,0,,12,,,83,127
60077,note_on,0,0,0,,2,,,50,127
60221,note_off,144,0,0,,12,,,83,127
60221,note_off,0,0,0,,2,,,74,127
60223,note_on,2,0,0,,10,,,81,127
60223,note_on,0,0,0,,1,,,73,127
60367,note_off,144,0,0,,1,,,73,127
60367,note_off,0,0,0,,10,,,81,127
60367,note_off,0,0,0,,2,,,50,127
60369,note_on,2,0,0,,12,,,71,127
60369,note_on,0,0,0,,8,,,80,127
60369,note_on,0,0,0,,4,,,52,127
60513,note_off,144,0,0,,4,,,52,127
60513,note_off,0,0,0,,8,,,80,127
60513,note_off,0,0,0,,12,,,71,127
60515,note_on,2,0,0,,1,,,73,127
60515,note_on,0,0,0,,10,,,81,127
60515,note_on,0,0,0,,1,,,49,127
60659,note_off,144,0,0,,1,,,49,127
60659,note_off,0,0,0,,10,,,81,127
60659,note_off,0,0,0,,1,,,73,127
60661,note_on,2,0,0,,8,,,80,127
60661,note_on,0,0,0,,12,,,71,127
60661,note_on,0,0,0,,12,,,47,127
60805,note_off,144,0,0,,12,,,47,127
60805,note_off,0,0,0,,12,,,71,127
60805,note_off,0,0,0,,8,,,80,127
60807,note_on,2,0,0,,1,,,73,127
60807,note_on,0,0,0,,10,,,81,127
60807,note_on,0,0,0,,10,,,45,127
60951,note_off,144,0,0,,10,,,45,127
60951,note_off,0,0,0,,10,,,81,127
60951,note_off,0,0,0,,1,,,73,127
60953,note_on,2,0,0,,12,,,83,127
60953,note_on,0,0,0,,2,,,74,127
60953,note_on,0,0,0,,2,,,50,127
61097,note_off,144,0,0,,2,,,74,127
61097,note_off,0,0,0,,12,,,83,127
61099,note_on,2,0,0,,10,,,81,127
61099,note_on,0,0,0,,1,,,73,127
61243,note_off,144,0,0,,1,,,73,127
61243,note_off,0,0,0,,10,,,81,127
61243,note_off,0,0,0,,2,,,50,127
61245,note_on,2,0,0,,8,,,80,127
61245,note_on,0,0,0,,12,,,71,127
61245,note_on,0,0,0,,4,,,52,127
61389,note_off,144,0,0,,4,,,52,127
61389,note_off,0,0,0,,12,,,71,127
61389,note_off,0,0,0,,8,,,80,127
61391,note_on,2,0,0,,12,,,71,127
61391,note_on,0,0,0,,8,,,80,127
61391,note_on,0,0,0,,10,,,45,127
61681,note_off,290,0,0,,8,,,80,127
61681,note_off,0,0,0,,12,,,71,127
61683,note_on,2,0,0,,1,,,73,127
61683,note_on,0,0,0,,10,,,81,127
62117,note_off,434,0,0,,10,,,81,127
62117,note_off,0,0,0,,1,,,73,127
62266,note_off,149,0,0,,10,,,45,127
62268,note_on,2,0,0,,10,,,57,127
62268,note_on,0,0,0,,10,,,45,127
62558,note_off,290,0,0,,10,,,45,127
62558,note_off,0,0,0,,10,,,57,127
62560,note_on,2,0,0,,4,,,76,127
62560,note_on,0,0,0,,1,,,73,127
62560,note_on,0,0,0,,10,,,69,127
62704,note_off,144,0,0,,10,,,69,127
62704,note_off,0,0,0,,1,,,73,127
62704,note_off,0,0,0,,4,,,76,127
62706,note_on,2,0,0,,10,,,81,127
62706,note_on,0,0,0,,1,,,73,127
62706,note_on,0,0,0,,10,,,69,127
62996,note_off,290,0,0,,10,,,69,127
62996,note_off,0,0,0,,1,,,73,127
62996,note_off,0,0,0,,10,,,81,127
62998,note_on,2,0,0,,4,,,76,127
62998,note_on,0,0,0,,1,,,73,127
62998,note_on,0,0,0,,10,,,69,127
63142,note_off,144,0,0,,10,,,69,127
63142,note_off,0,0,0,,1,,,73,127
63142,note_off,0,0,0,,4,,,76,127
63144,note_on,2,0,0,,7,,,79,127
63144,note_on,0,0,0,,10,,,69,127
63144,note_on,0,0,0,,11,,,70,127
63144,note_on,0,0,0,,2,,,74,127
63215,note_off,71,0,0,,7,,,79,127
63217,note_on,2,0,0,,5,,,77,127
63288,note_off,71,0,0,,5,,,77,127
63290,note_on,2,0,0,,4,,,76,127
63434,note_off,144,0,0,,4,,,76,127
63434,note_off,0,0,0,,2,,,74,127
63434,note_off,0,0,0,,11,,,70,127
63434,note_off,0,0,0,,10,,,69,127
63436,note_on,2,0,0,,5,,,77,127
63436,note_on,0,0,0,,2,,,74,127
63436,note_on,0,0,0,,10,,,69,127
63436,note_on,0,0,0,,11,,,70,127
63580,note_off,144,0,0,,11,,,70,127
63580,note_off,0,0,0,,10,,,69,127
63580,note_off,0,0,0,,2,,,74,127
63580,note_off,0,0,0,,5,,,77,127
63582,note_on,2,0,0,,7,,,79,127
63582,note_on,0,0,0,,2,,,74,127
63582,note_on,0,0,0,,7,,,67,127
63582,note_on,0,0,0,,11,,,70,127
63872,note_off,290,0,0,,11,,,70,127
63872,note_off,0,0,0,,7,,,67,127
63872,note_off,0,0,0,,2,,,74,127
63872,note_off,0,0,0,,7,,,79,127
63874,note_on,2,0,0,,10,,,81,127
63874,note_on,0,0,0,,7,,,67,127
63874,note_on,0,0,0,,2,,,74,127
63874,note_on,0,0,0,,11,,,70,127
64018,note_off,144,0,0,,11,,,70,127
64018,note_off,0,0,0,,2,,,74,127
64018,note_off,0,0,0,,7,,,67,127
64018,note_off,0,0,0,,10,,,81,127
64020,note_on,2,0,0,,4,,,76,127
64020,note_on,0,0,0,,1,,,73,127
64020,note_on,0,0,0,,10,,,69,127
64310,note_off,290,0,0,,10,,,69,127
64310,note_off,0,0,0,,1,,,73,127
64310,note_off,0,0,0,,4,,,76,127
64312,note_on,2,0,0,,4,,,76,127
64312,note_on,0,0,0,,10,,,69,127
64312,note_on,0,0,0,,1,,,73,127
64456,note_off,144,0,0,,1,,,73,127
64456,note_off,0,0,0,,10,,,69,127
64456,note_off,0,0,0,,4,,,76,127
64458,note_on,2,0,0,,10,,,81,127
64458,note_on,0,0,0,,1,,,73,127
64458,note_on,0,0,0,,10,,,69,127
64748,note_off,290,0,0,,10,,,69,127
64748,note_off,0,0,0,,1,,,73,127
64748,note_off,0,0,0,,10,,,81,127
64750,note_on,2,0,0,,4,,,76,127
64750,note_on,0,0,0,,10,,,69,127
64750,note_on,0,0,0,,1,,,73,127
64894,note_off,144,0,0,,1,,,73,127
64894,note_off,0,0,0,,10,,,69,127
64894,note_off,0,0,0,,4,,,76,127
64896,note_on,2,0,0,,7,,,79,127
64896,note_on,0,0,0,,10,,,69,127
64896,note_on,0,0,0,,11,,,70,127
64896,note_on,0,0,0,,2,,,74,127
64967,note_off,71,0,0,,7,,,79,127
64969,note_on,2,0,0,,5,,,77,127
65040,note_off,71,0,0,,5,,,77,127
65042,note_on,2,0,0,,4,,,76,127
65186,note_off,144,0,0,,4,,,76,127
65186,note_off,0,0,0,,2,,,74,127
65186,note_off,0,0,0,,11,,,70,127
65186,note_off,0,0,0,,10,,,69,127
65188,note_on,2,0,0,,5,,,77,127
65188,note_on,0,0,0,,2,,,74,127
65188,note_on,0,0,0,,10,,,69,127
65188,note_on,0,0,0,,11,,,70,127
65332,note_off,144,0,0,,11,,,70,127
65332,note_off,0,0,0,,10,,,69,127
65332,note_off,0,0,0,,2,,,74,127
65332,note_off,0,0,0,,5,,,77,127
65334,note_on,2,0,0,,7,,,79,127
65334,note_on,0,0,0,,11,,,70,127
65334,note_on,0,0,0,,2,,,74,127
65334,note_on,0,0,0,,7,,,67,127
65624,note_off,290,0,0,,7,,,67,127
65624,note_off,0,0,0,,2,,,74,127
65624,note_off,0,0,0,,11,,,70,127
65624,note_off,0,0,0,,7,,,79,127
65626,note_on,2,0,0,,10,,,81,127
65626,note_on,0,0,0,,7,,,67,127
65626,note_on,0,0,0,,11,,,70,127
65626,note_on,0,0,0,,2,,,74,127
65770,note_off,144,0,0,,2,,,74,127
65770,note_off,0,0,0,,11,,,70,127
65770,note_off,0,0,0,,7,,,67,127
65770,note_off,0,0,0,,10,,,81,127
65772,note_on,2,0,0,,4,,,76,127
65772,note_on,0,0,0,,1,,,73,127
65772,note_on,0,0,0,,10,,,69,127
65989,note_off,217,0,0,,10,,,69,127
65989,note_off,0,0,0,,4,,,76,127
66062,note_off,73,0,0,,1,,,73,127
66064,note_on,2,0,0,,7,,,79,127
66064,note_on,0,0,0,,7,,,67,127
66064,note_on,0,0,0,,0,,,72,127
66208,note_off,144,0,0,,0,,,72,127
66208,note_off,0,0,0,,7,,,67,127
66208,note_off,0,0,0,,7,,,79,127
66210,note_on,2,0,0,,0,,,84,127
66210,note_on,0,0,0,,0,,,72,127
66210,note_on,0,0,0,,5,,,65,127
66500,note_off,290,0,0,,5,,,65,127
66500,note_off,0,0,0,,0,,,72,127
66500,note_off,0,0,0,,0,,,84,127
66502,note_on,2,0,0,,7,,,79,127
66502,note_on,0,0,0,,4,,,64,127
66502,note_on,0,0,0,,0,,,72,127
66646,note_off,144,0,0,,0,,,72,127
66646,note_off,0,0,0,,4,,,64,127
66646,note_off,0,0,0,,7,,,79,127
66648,note_on,2,0,0,,11,,,82,127
66648,note_on,0,0,0,,0,,,72,127
66648,note_on,0,0,0,,5,,,65,127
66719,note_off,71,0,0,,11,,,82,127
66721,note_on,2,0,0,,10,,,81,127
66792,note_off,71,0,0,,10,,,81,127
66794,note_on,2,0,0,,7,,,79,127
66938,note_off,144,0,0,,7,,,79,127
66938,note_off,0,0,0,,5,,,65,127
66938,note_off,0,0,0,,0,,,72,127
66940,note_on,2,0,0,,10,,,81,127
66940,note_on,0,0,0,,0,,,72,127
66940,note_on,0,0,0,,5,,,65,127
67084,note_off,144,0,0,,5,,,65,127
67084,note_off,0,0,0,,0,,,72,127
67084,note_off,0,0,0,,10,,,81,127
67086,note_on,2,0,0,,11,,,82,127
67086,note_on,0,0,0,,7,,,67,127
67086,note_on,0,0,0,,11,,,58,127
67086,note_on,0,0,0,,5,,,65,127
67376,note_off,290,0,0,,5,,,65,127
67376,note_off,0,0,0,,11,,,58,127
67376,note_off,0,0,0,,7,,,67,127
67376,note_off,0,0,0,,11,,,82,127
67378,note_on,2,0,0,,0,,,84,127
67378,note_on,0,0,0,,7,,,67,127
67378,note_on,0,0,0,,5,,,65,127
67378,note_on,0,0,0,,11,,,58,127
67522,note_off,144,0,0,,11,,,58,127
67522,note_off,0,0,0,,5,,,65,127
67522,note_off,0,0,0,,7,,,67,127
67522,note_off,0,0,0,,0,,,84,127
67524,note_on,2,0,0,,7,,,79,127
67524,note_on,0,0,0,,5,,,65,127
67524,note_on,0,0,0,,7,,,67,127
67524,note_on,0,0,0,,0,,,60,127
67814,note_off,290,0,0,,0,,,60,127
67814,note_off,0,0,0,,7,,,67,127
67814,note_off,0,0,0,,5,,,65,127
67814,note_off,0,0,0,,7,,,79,127
67816,note_on,2,0,0,,7,,,79,127
67816,note_on,0,0,0,,5,,,65,127
67816,note_on,0,0,0,,7,,,67,127
67816,note_on,0,0,0,,0,,,60,127
67960,note_off,144,0,0,,0,,,60,127
67960,note_off,0,0,0,,7,,,67,127
67960,note_off,0,0,0,,5,,,65,127
67960,note_off,0,0,0,,7,,,79,127
67962,note_on,2,0,0,,0,,,84,127
67962,note_on,0,0,0,,7,,,67,127
67962,note_on,0,0,0,,4,,,64,127
67962,note_on,0,0,0,,0,,,60,127
68252,note_off,290,0,0,,0,,,60,127
68252,note_off,0,0,0,,4,,,64,127
68252,note_off,0,0,0,,7,,,67,127
68252,note_off,0,0,0,,0,,,84,127
68254,note_on,2,0,0,,7,,,79,127
68254,note_on,0,0,0,,7,,,67,127
68254,note_on,0,0,0,,0,,,60,127
68254,note_on,0,0,0,,4,,,64,127
68398,note_off,144,0,0,,4,,,64,127
68398,note_off,0,0,0,,0,,,60,127
68398,note_off,0,0,0,,7,,,67,127
68398,note_off,0,0,0,,7,,,79,127
68400,note_on,2,0,0,,11,,,82,127
68400,note_on,0,0,0,,10,,,69,127
68400,note_on,0,0,0,,0,,,60,127
68400,note_on,0,0,0,,5,,,65,127
68471,note_off,71,0,0,,11,,,82,127
68473,note_on,2,0,0,,10,,,81,127
68544,note_off,71,0,0,,10,,,81,127
68546,note_on,2,0,0,,7,,,79,127
68690,note_off,144,0,0,,7,,,79,127
68690,note_off,0,0,0,,5,,,65,127
68690,note_off,0,0,0,,0,,,60,127
68690,note_off,0,0,0,,10,,,69,127
68692,note_on,2,0,0,,10,,,81,127
68692,note_on,0,0,0,,10,,,69,127
68692,note_on,0,0,0,,0,,,60,127
68692,note_on,0,0,0,,5,,,65,127
68836,note_off,144,0,0,,5,,,65,127
68836,note_off,0,0,0,,0,,,60,127
68836,note_off,0,0,0,,10,,,69,127
68836,note_off,0,0,0,,10,,,81,127
68838,note_on,2,0,0,,11,,,82,127
68838,note_on,0,0,0,,7,,,67,127
68838,note_on,0,0,0,,5,,,65,127
68838,note_on,0,0,0,,11,,,58,127
69128,note_off,290,0,0,,11,,,58,127
69128,note_off,0,0,0,,5,,,65,127
69128,note_off,0,0,0,,7,,,67,127
69128,note_off,0,0,0,,11,,,82,127
69130,note_on,2,0,0,,0,,,84,127
69130,note_on,0,0,0,,5,,,65,127
69130,note_on,0,0,0,,7,,,67,127
69130,note_on,0,0,0,,11,,,58,127
69274,note_off,144,0,0,,11,,,58,127
69274,note_off,0,0,0,,7,,,67,127
69274,note_off,0,0,0,,5,,,65,127
69274,note_off,0,0,0,,0,,,84,127
69276,note_on,2,0,0,,7,,,79,127
69276,note_on,0,0,0,,7,,,67,127
69276,note_on,0,0,0,,5,,,65,127
69276,note_on,0,0,0,,0,,,60,127
69566,note_off,290,0,0,,0,,,60,127
69566,note_off,0,0,0,,5,,,65,127
69566,note_off,0,0,0,,7,,,67,127
69568,note_on,2,0,0,,5,,,65,127
69568,note_on,0,0,0,,7,,,67,127
69568,note_on,0,0,0,,0,,,60,127
69712,note_off,144,0,0,,0,,,60,127
69712,note_off,0,0,0,,7,,,67,127
69712,note_off,0,0,0,,5,,,65,127
69714,note_on,2,0,0,,7,,,67,127
69714,note_on,0,0,0,,0,,,60,127
69714,note_on,0,0,0,,4,,,64,127
70004,note_off,290,0,0,,4,,,64,127
70004,note_off,0,0,0,,0,,,60,127
70004,note_off,0,0,0,,7,,,67,127
70004,note_off,0,0,0,,7,,,79,127
70006,note_on,2,0,0,,0,,,84,127
70006,note_on,0,0,0,,4,,,64,127
70006,note_on,0,0,0,,7,,,67,127
70006,note_on,0,0,0,,0,,,60,127
70150,note_off,144,0,0,,0,,,60,127
70150,note_off,0,0,0,,7,,,67,127
70150,note_off,0,0,0,,4,,,64,127
70150,note_off,0,0,0,,0,,,84,127
70152,note_on,2,0,0,,10,,,81,127
70152,note_on,0,0,0,,5,,,65,127
70152,note_on,0,0,0,,0,,,60,127
70152,note_on,0,0,0,,5,,,53,127
70442,note_off,290,0,0,,5,,,53,127
70442,note_off,0,0,0,,0,,,60,127
70442,note_off,0,0,0,,5,,,65,127
70442,note_off,0,0,0,,10,,,81,127
70444,note_on,2,0,0,,5,,,77,127
70444,note_on,0,0,0,,5,,,65,127
70444,note_on,0,0,0,,0,,,60,127
70444,note_on,0,0,0,,5,,,53,127
70588,note_off,144,0,0,,5,,,53,127
70588,note_off,0,0,0,,0,,,60,127
70588,note_off,0,0,0,,5,,,65,127
70588,note_off,0,0,0,,5,,,77,127
70590,note_on,2,0,0,,3,,,75,127
70590,note_on,0,0,0,,0,,,60,127
70590,note_on,0,0,0,,5,,,65,127
70590,note_on,0,0,0,,10,,,57,127
70880,note_off,290,0,0,,10,,,57,127
70880,note_off,0,0,0,,5,,,65,127
70880,note_off,0,0,0,,0,,,60,127
70880,note_off,0,0,0,,3,,,75,127
70882,note_on,2,0,0,,0,,,72,127
70882,note_on,0,0,0,,5,,,65,127
70882,note_on,0,0,0,,10,,,57,127
70882,note_on,0,0,0,,0,,,60,127
71026,note_off,144,0,0,,0,,,60,127
71026,note_off,0,0,0,,10,,,57,127
71026,note_off,0,0,0,,5,,,65,127
71026,note_off,0,0,0,,0,,,72,127
71028,note_on,2,0,0,,1,,,73,127
71028,note_on,0,0,0,,7,,,67,127
71028,note_on,0,0,0,,5,,,65,127
71028,note_on,0,0,0,,11,,,58,127
71318,note_off,290,0,0,,11,,,58,127
71318,note_off,0,0,0,,5,,,65,127
71318,note_off,0,0,0,,7,,,67,127
71320,note_on,2,0,0,,5,,,65,127
71320,note_on,0,0,0,,7,,,67,127
71320,note_on,0,0,0,,11,,,58,127
71464,note_off,144,0,0,,11,,,58,127
71464,note_off,0,0,0,,7,,,67,127
71464,note_off,0,0,0,,5,,,65,127
71464,note_off,0,0,0,,1,,,73,127
71466,note_on,2,0,0,,2,,,74,127
71466,note_on,0,0,0,,7,,,67,127
71466,note_on,0,0,0,,5,,,65,127
71466,note_on,0,0,0,,11,,,58,127
71756,note_off,290,0,0,,11,,,58,127
71756,note_off,0,0,0,,5,,,65,127
71756,note_off,0,0,0,,7,,,67,127
71756,note_off,0,0,0,,2,,,74,127
71758,note_on,2,0,0,,7,,,79,127
71758,note_on,0,0,0,,5,,,65,127
71758,note_on,0,0,0,,0,,,60,127
71758,note_on,0,0,0,,7,,,67,127
71902,note_off,144,0,0,,7,,,67,127
71902,note_off,0,0,0,,0,,,60,127
71902,note_off,0,0,0,,5,,,65,127
71902,note_off,0,0,0,,7,,,79,127
71904,note_on,2,0,0,,6,,,78,127
71904,note_on,0,0,0,,7,,,67,127
71904,note_on,0,0,0,,2,,,62,127
72194,note_off,290,0,0,,2,,,62,127
72194,note_off,0,0,0,,7,,,67,127
72194,note_off,0,0,0,,6,,,78,127
72196,note_on,2,0,0,,3,,,75,127
72196,note_on,0,0,0,,2,,,62,127
72196,note_on,0,0,0,,7,,,67,127
72340,note_off,144,0,0,,7,,,67,127
72340,note_off,0,0,0,,2,,,62,127
72340,note_off,0,0,0,,3,,,75,127
72342,note_on,2,0,0,,2,,,74,127
72342,note_on,0,0,0,,6,,,66,127
72342,note_on,0,0,0,,2,,,62,127
72632,note_off,290,0,0,,2,,,62,127
72632,note_off,0,0,0,,6,,,66,127
72632,note_off,0,0,0,,2,,,74,127
72634,note_on,2,0,0,,0,,,84,127
72634,note_on,0,0,0,,2,,,62,127
72634,note_on,0,0,0,,6,,,66,127
72778,note_off,144,0,0,,6,,,66,127
72778,note_off,0,0,0,,2,,,62,127
72778,note_off,0,0,0,,0,,,84,127
72780,note_on,2,0,0,,0,,,84,127
72780,note_on,0,0,0,,7,,,67,127
72780,note_on,0,0,0,,2,,,62,127
72780,note_on,0,0,0,,7,,,55,127
72851,note_off,71,0,0,,0,,,84,127
72853,note_on,2,0,0,,11,,,82,127
72924,note_off,71,0,0,,11,,,82,127
72926,note_on,2,0,0,,10,,,81,127
73070,note_off,144,0,0,,10,,,81,127
73070,note_off,0,0,0,,7,,,55,127
73070,note_off,0,0,0,,2,,,62,127
73070,note_off,0,0,0,,7,,,67,127
73072,note_on,2,0,0,,7,,,79,127
73072,note_on,0,0,0,,7,,,67,127
73072,note_on,0,0,0,,2,,,62,127
73072,note_on,0,0,0,,7,,,55,127
73216,note_off,144,0,0,,7,,,55,127
73216,note_off,0,0,0,,2,,,62,127
73216,note_off,0,0,0,,7,,,67,127
73218,note_on,2,0,0,,2,,,62,127
73218,note_on,0,0,0,,7,,,67,127
73218,note_on,0,0,0,,11,,,58,127
73483,note_off,265,0,0,,7,,,79,127
73508,note_off,25,0,0,,11,,,58,127
73508,note_off,0,0,0,,7,,,67,127
73508,note_off,0,0,0,,2,,,62,127
73510,note_on,2,0,0,,2,,,86,127
73510,note_on,0,0,0,,2,,,62,127
73510,note_on,0,0,0,,7,,,67,127
73510,note_on,0,0,0,,11,,,58,127
73654,note_off,144,0,0,,11,,,58,127
73654,note_off,0,0,0,,7,,,67,127
73654,note_off,0,0,0,,2,,,62,127
73654,note_off,0,0,0,,2,,,86,127
73656,note_on,2,0,0,,1,,,85,127
73656,note_on,0,0,0,,7,,,67,127
73656,note_on,0,0,0,,4,,,64,127
73656,note_on,0,0,0,,10,,,57,127
73946,note_off,290,0,0,,10,,,57,127
73946,note_off,0,0,0,,4,,,64,127
73946,note_off,0,0,0,,7,,,67,127
73946,note_off,0,0,0,,1,,,85,127
73948,note_on,2,0,0,,11,,,82,127
73948,note_on,0,0,0,,4,,,64,127
73948,note_on,0,0,0,,7,,,67,127
73948,note_on,0,0,0,,10,,,57,127
74092,note_off,144,0,0,,10,,,57,127
74092,note_off,0,0,0,,7,,,67,127
74092,note_off,0,0,0,,4,,,64,127
74092,note_off,0,0,0,,11,,,82,127
74094,note_on,2,0,0,,7,,,79,127
74094,note_on,0,0,0,,4,,,64,127
74094,note_on,0,0,0,,7,,,67,127
74094,note_on,0,0,0,,10,,,57,127
74384,note_off,290,0,0,,10,,,57,127
74384,note_off,0,0,0,,7,,,67,127
74384,note_off,0,0,0,,4,,,64,127
74384,note_off,0,0,0,,7,,,79,127
74386,note_on,2,0,0,,4,,,76,127
74386,note_on,0,0,0,,1,,,61,127
74386,note_on,0,0,0,,7,,,67,127
74386,note_on,0,0,0,,4,,,64,127
74386,note_on,0,0,0,,10,,,57,127
74530,note_off,144,0,0,,10,,,57,127
74530,note_off,0,0,0,,4,,,64,127
74530,note_off,0,0,0,,7,,,67,127
74530,note_off,0,0,0,,1,,,61,127
74530,note_off,0,0,0,,4,,,76,127
74532,note_on,2,0,0,,7,,,79,127
74532,note_on,0,0,0,,2,,,62,127
74603,note_off,71,0,0,,7,,,79,127
74605,note_on,2,0,0,,5,,,77,127
74676,note_off,71,0,0,,5,,,77,127
74678,note_on,2,0,0,,4,,,76,127
74822,note_off,144,0,0,,4,,,76,127
74822,note_off,0,0,0,,2,,,62,127
74824,note_on,2,0,0,,2,,,74,127
74824,note_on,0,0,0,,2,,,62,127
74968,note_off,144,0,0,,2,,,62,127
74970,note_on,2,0,0,,10,,,69,127
74970,note_on,0,0,0,,2,,,62,127
75260,note_off,290,0,0,,2,,,62,127
75260,note_off,0,0,0,,10,,,69,127
75260,note_off,0,0,0,,2,,,74,127
75262,note_on,2,0,0,,10,,,81,127
75262,note_on,0,0,0,,2,,,62,127
75262,note_on,0,0,0,,10,,,69,127
75406,note_off,144,0,0,,10,,,69,127
75406,note_off,0,0,0,,2,,,62,127
75406,note_off,0,0,0,,10,,,81,127
75408,note_on,2,0,0,,8,,,80,127
75408,note_on,0,0,0,,10,,,69,127
75408,note_on,0,0,0,,12,,,71,127
75408,note_on,0,0,0,,4,,,64,127
75698,note_off,290,0,0,,4,,,64,127
75698,note_off,0,0,0,,12,,,71,127
75698,note_off,0,0,0,,10,,,69,127
75698,note_off,0,0,0,,8,,,80,127
75700,note_on,2,0,0,,5,,,77,127
75700,note_on,0,0,0,,12,,,71,127
75700,note_on,0,0,0,,10,,,69,127
75700,note_on,0,0,0,,4,,,64,127
75844,note_off,144,0,0,,4,,,64,127
75844,note_off,0,0,0,,10,,,69,127
75844,note_off,0,0,0,,12,,,71,127
75844,note_off,0,0,0,,5,,,77,127
75846,note_on,2,0,0,,4,,,76,127
75846,note_on,0,0,0,,8,,,68,127
75846,note_on,0,0,0,,12,,,71,127
75846,note_on,0,0,0,,4,,,64,127
76136,note_off,290,0,0,,4,,,64,127
76136,note_off,0,0,0,,12,,,71,127
76136,note_off,0,0,0,,8,,,68,127
76136,note_off,0,0,0,,4,,,76,127
76138,note_on,2,0,0,,2,,,74,127
76138,note_on,0,0,0,,4,,,64,127
76138,note_on,0,0,0,,12,,,71,127
76138,note_on,0,0,0,,8,,,68,127
76282,note_off,144,0,0,,8,,,68,127
76282,note_off,0,0,0,,12,,,71,127
76282,note_off,0,0,0,,4,,,64,127
76282,note_off,0,0,0,,2,,,74,127
76284,note_on,2,0,0,,2,,,74,127
76284,note_on,0,0,0,,10,,,69,127
76284,note_on,0,0,0,,4,,,64,127
76284,note_on,0,0,0,,10,,,57,127
76355,note_off,71,0,0,,2,,,74,127
76357,note_on,2,0,0,,1,,,73,127
76428,note_off,71,0,0,,1,,,73,127
76430,note_on,2,0,0,,12,,,71,127
76574,note_off,144,0,0,,12,,,71,127
76574,note_off,0,0,0,,10,,,57,127
76574,note_off,0,0,0,,4,,,64,127
76574,note_off,0,0,0,,10,,,69,127
76576,note_on,2,0,0,,10,,,69,127
76576,note_on,0,0,0,,10,,,57,127
76720,note_off,144,0,0,,10,,,57,127
76722,note_on,2,0,0,,2,,,62,127
76722,note_on,0,0,0,,6,,,54,127
76861,note_off,139,0,0,,10,,,69,127
77012,note_off,151,0,0,,6,,,54,127
77012,note_off,0,0,0,,2,,,62,127
77014,note_on,2,0,0,,10,,,81,127
77014,note_on,0,0,0,,2,,,62,127
77014,note_on,0,0,0,,6,,,54,127
77158,note_off,144,0,0,,6,,,54,127
77158,note_off,0,0,0,,2,,,62,127
77158,note_off,0,0,0,,10,,,81,127
77160,note_on,2,0,0,,1,,,73,127
77160,note_on,0,0,0,,7,,,55,127
77160,note_on,0,0,0,,2,,,62,127
77231,note_off,71,0,0,,1,,,73,127
77233,note_on,2,0,0,,12,,,71,127
77304,note_off,71,0,0,,12,,,71,127
77306,note_on,2,0,0,,1,,,73,127
77377,note_off,71,0,0,,1,,,73,127
77379,note_on,2,0,0,,12,,,71,127
77450,note_off,71,0,0,,12,,,71,127
77450,note_off,0,0,0,,2,,,62,127
77450,note_off,0,0,0,,7,,,55,127
77452,note_on,2,0,0,,10,,,81,127
77452,note_on,0,0,0,,7,,,55,127
77452,note_on,0,0,0,,2,,,62,127
77596,note_off,144,0,0,,2,,,62,127
77596,note_off,0,0,0,,7,,,55,127
77596,note_off,0,0,0,,10,,,81,127
77598,note_on,2,0,0,,2,,,74,127
77598,note_on,0,0,0,,10,,,57,127
77598,note_on,0,0,0,,2,,,62,127
77669,note_off,71,0,0,,2,,,74,127
77671,note_on,2,0,0,,1,,,73,127
77742,note_off,71,0,0,,1,,,73,127
77744,note_on,2,0,0,,2,,,74,127
77815,note_off,71,0,0,,2,,,74,127
77817,note_on,2,0,0,,1,,,73,127
77888,note_off,71,0,0,,1,,,73,127
77888,note_off,0,0,0,,2,,,62,127
77888,note_off,0,0,0,,10,,,57,127
77890,note_on,2,0,0,,10,,,81,127
77890,note_on,0,0,0,,10,,,57,127
77890,note_on,0,0,0,,2,,,62,127
78034,note_off,144,0,0,,2,,,62,127
78034,note_off,0,0,0,,10,,,57,127
78034,note_off,0,0,0,,10,,,81,127
78036,note_on,2,0,0,,4,,,76,127
78036,note_on,0,0,0,,12,,,59,127
78036,note_on,0,0,0,,2,,,62,127
78107,note_off,71,0,0,,4,,,76,127
78109,note_on,2,0,0,,2,,,74,127
78180,note_off,71,0,0,,2,,,74,127
78182,note_on,2,0,0,,4,,,76,127
78253,note_off,71,0,0,,4,,,76,127
78255,note_on,2,0,0,,2,,,74,127
78326,note_off,71,0,0,,2,,,74,127
78326,note_off,0,0,0,,2,,,62,127
78326,note_off,0,0,0,,12,,,59,127
78328,note_on,2,0,0,,10,,,81,127
78328,note_on,0,0,0,,12,,,59,127
78328,note_on,0,0,0,,2,,,62,127
78472,note_off,144,0,0,,2,,,62,127
78472,note_off,0,0,0,,12,,,59,127
78472,note_off,0,0,0,,10,,,81,127
78474,note_on,2,0,0,,6,,,78,127
78474,note_on,0,0,0,,4,,,64,127
78474,note_on,0,0,0,,1,,,61,127
78545,note_off,71,0,0,,6,,,78,127
78547,note_on,2,0,0,,4,,,76,127
78618,note_off,71,0,0,,4,,,76,127
78620,note_on,2,0,0,,6,,,78,127
78691,note_off,71,0,0,,6,,,78,127
78693,note_on,2,0,0,,4,,,76,127
78764,note_off,71,0,0,,4,,,76,127
78764,note_off,0,0,0,,1,,,61,127
78764,note_off,0,0,0,,4,,,64,127
78766,note_on,2,0,0,,10,,,81,127
78766,note_on,0,0,0,,4,,,64,127
78766,note_on,0,0,0,,1,,,61,127
78910,note_off,144,0,0,,1,,,61,127
78910,note_off,0,0,0,,4,,,64,127
78910,note_off,0,0,0,,10,,,81,127
78912,note_on,2,0,0,,6,,,78,127
78912,note_on,0,0,0,,2,,,62,127
79056,note_off,144,0,0,,6,,,78,127
79058,note_on,2,0,0,,7,,,79,127
79202,note_off,144,0,0,,7,,,79,127
79202,note_off,0,0,0,,2,,,62,127
79204,note_on,2,0,0,,10,,,81,127
79204,note_on,0,0,0,,2,,,62,127
79348,note_off,144,0,0,,2,,,62,127
79348,note_off,0,0,0,,10,,,81,127
79350,note_on,2,0,0,,7,,,79,127
79350,note_on,0,0,0,,4,,,76,127
79350,note_on,0,0,0,,7,,,55,127
79640,note_off,290,0,0,,7,,,55,127
79640,note_off,0,0,0,,4,,,76,127
79640,note_off,0,0,0,,7,,,79,127
79642,note_on,2,0,0,,6,,,78,127
79642,note_on,0,0,0,,2,,,74,127
79642,note_on,0,0,0,,7,,,55,127
79786,note_off,144,0,0,,7,,,55,127
79786,note_off,0,0,0,,2,,,74,127
79786,note_off,0,0,0,,6,,,78,127
79788,note_on,2,0,0,,4,,,76,127
79788,note_on,0,0,0,,1,,,73,127
79788,note_on,0,0,0,,10,,,57,127
80078,note_off,290,0,0,,10,,,57,127
80078,note_off,0,0,0,,1,,,73,127
80078,note_off,0,0,0,,4,,,76,127
80080,note_on,2,0,0,,10,,,69,127
80080,note_on,0,0,0,,6,,,66,127
80224,note_off,144,0,0,,6,,,66,127
80224,note_off,0,0,0,,10,,,69,127
80226,note_on,2,0,0,,12,,,71,127
80226,note_on,0,0,0,,7,,,67,127
80297,note_off,71,0,0,,7,,,67,127
80297,note_off,0,0,0,,12,,,71,127
80299,note_on,2,0,0,,10,,,69,127
80299,note_on,0,0,0,,6,,,66,127
80370,note_off,71,0,0,,6,,,66,127
80370,note_off,0,0,0,,10,,,69,127
80372,note_on,2,0,0,,8,,,68,127
80372,note_on,0,0,0,,4,,,64,127
80516,note_off,144,0,0,,4,,,64,127
80516,note_off,0,0,0,,8,,,68,127
80518,note_on,2,0,0,,10,,,69,127
80518,note_on,0,0,0,,6,,,66,127
80662,note_off,144,0,0,,6,,,66,127
80662,note_off,0,0,0,,10,,,69,127
80664,note_on,2,0,0,,12,,,83,127
80664,note_on,0,0,0,,7,,,55,127
80954,note_off,290,0,0,,7,,,55,127
80954,note_off,0,0,0,,12,,,83,127
80956,note_on,2,0,0,,7,,,67,127
80956,note_on,0,0,0,,4,,,64,127
81100,note_off,144,0,0,,4,,,64,127
81100,note_off,0,0,0,,7,,,67,127
81102,note_on,2,0,0,,10,,,69,127
81102,note_on,0,0,0,,6,,,66,127
81173,note_off,71,0,0,,6,,,66,127
81173,note_off,0,0,0,,10,,,69,127
81175,note_on,2,0,0,,7,,,67,127
81175,note_on,0,0,0,,4,,,64,127
81246,note_off,71,0,0,,4,,,64,127
81246,note_off,0,0,0,,7,,,67,127
81248,note_on,2,0,0,,6,,,66,127
81248,note_on,0,0,0,,2,,,62,127
81392,note_off,144,0,0,,2,,,62,127
81392,note_off,0,0,0,,6,,,66,127
81394,note_on,2,0,0,,7,,,67,127
81394,note_on,0,0,0,,4,,,64,127
81538,note_off,144,0,0,,4,,,64,127
81538,note_off,0,0,0,,7,,,67,127
81540,note_on,2,0,0,,10,,,81,127
81540,note_on,0,0,0,,6,,,54,127
81830,note_off,290,0,0,,6,,,54,127
81830,note_off,0,0,0,,10,,,81,127
81832,note_on,2,0,0,,6,,,66,127
81832,note_on,0,0,0,,2,,,62,127
81976,note_off,144,0,0,,2,,,62,127
81976,note_off,0,0,0,,6,,,66,127
81978,note_on,2,0,0,,7,,,67,127
81978,note_on,0,0,0,,4,,,64,127
82049,note_off,71,0,0,,4,,,64,127
82049,note_off,0,0,0,,7,,,67,127
82051,note_on,2,0,0,,6,,,66,127
82051,note_on,0,0,0,,2,,,62,127
82122,note_off,71,0,0,,2,,,62,127
82122,note_off,0,0,0,,6,,,66,127
82124,note_on,2,0,0,,4,,,64,127
82124,note_on,0,0,0,,1,,,61,127
82268,note_off,144,0,0,,1,,,61,127
82268,note_off,0,0,0,,4,,,64,127
82270,note_on,2,0,0,,6,,,66,127
82270,note_on,0,0,0,,2,,,62,127
82414,note_off,144,0,0,,2,,,62,127
82414,note_off,0,0,0,,6,,,66,127
82416,note_on,2,0,0,,7,,,79,127
82416,note_on,0,0,0,,4,,,52,127
82706,note_off,290,0,0,,4,,,52,127
82706,note_off,0,0,0,,7,,,79,127
82708,note_on,2,0,0,,4,,,64,127
82708,note_on,0,0,0,,1,,,61,127
82852,note_off,144,0,0,,1,,,61,127
82852,note_off,0,0,0,,4,,,64,127
82854,note_on,2,0,0,,6,,,66,127
82854,note_on,0,0,0,,2,,,62,127
82925,note_off,71,0,0,,2,,,62,127
82925,note_off,0,0,0,,6,,,66,127
82927,note_on,2,0,0,,4,,,64,127
82927,note_on,0,0,0,,1,,,61,127
82998,note_off,71,0,0,,1,,,61,127
82998,note_off,0,0,0,,4,,,64,127
83000,note_on,2,0,0,,2,,,62,127
83000,note_on,0,0,0,,12,,,59,127
83144,note_off,144,0,0,,12,,,59,127
83144,note_off,0,0,0,,2,,,62,127
83146,note_on,2,0,0,,4,,,64,127
83146,note_on,0,0,0,,1,,,61,127
83290,note_off,144,0,0,,1,,,61,127
83290,note_off,0,0,0,,4,,,64,127
83292,note_on,2,0,0,,6,,,78,127
83292,note_on,0,0,0,,2,,,50,127
83582,note_off,290,0,0,,2,,,50,127
83582,note_off,0,0,0,,6,,,78,127
83584,note_on,2,0,0,,10,,,69,127
83584,note_on,0,0,0,,6,,,66,127
83728,note_off,144,0,0,,6,,,66,127
83728,note_off,0,0,0,,10,,,69,127
83730,note_on,2,0,0,,12,,,71,127
83730,note_on,0,0,0,,7,,,67,127
83801,note_off,71,0,0,,7,,,67,127
83801,note_off,0,0,0,,12,,,71,127
83803,note_on,2,0,0,,10,,,69,127
83803,note_on,0,0,0,,6,,,66,127
83874,note_off,71,0,0,,6,,,66,127
83874,note_off,0,0,0,,10,,,69,127
83876,note_on,2,0,0,,8,,,68,127
83876,note_on,0,0,0,,4,,,64,127
84020,note_off,144,0,0,,4,,,64,127
84020,note_off,0,0,0,,8,,,68,127
84022,note_on,2,0,0,,10,,,69,127
84022,note_on,0,0,0,,6,,,66,127
84166,note_off,144,0,0,,6,,,66,127
84166,note_off,0,0,0,,10,,,69,127
84168,note_on,2,0,0,,11,,,82,127
84168,note_on,0,0,0,,7,,,55,127
84458,note_off,290,0,0,,11,,,82,127
84460,note_on,2,0,0,,12,,,83,127
84604,note_off,144,0,0,,12,,,83,127
84604,note_off,0,0,0,,7,,,55,127
84606,note_on,2,0,0,,10,,,69,127
84606,note_on,0,0,0,,6,,,66,127
84677,note_off,71,0,0,,6,,,66,127
84677,note_off,0,0,0,,10,,,69,127
84679,note_on,2,0,0,,7,,,67,127
84679,note_on,0,0,0,,4,,,64,127
84750,note_off,71,0,0,,4,,,64,127
84750,note_off,0,0,0,,7,,,67,127
84752,note_on,2,0,0,,6,,,66,127
84752,note_on,0,0,0,,2,,,62,127
84896,note_off,144,0,0,,2,,,62,127
84896,note_off,0,0,0,,6,,,66,127
84898,note_on,2,0,0,,7,,,67,127
84898,note_on,0,0,0,,4,,,64,127
85042,note_off,144,0,0,,4,,,64,127
85042,note_off,0,0,0,,7,,,67,127
85044,note_on,2,0,0,,8,,,80,127
85044,note_on,0,0,0,,6,,,54,127
85334,note_off,290,0,0,,8,,,80,127
85336,note_on,2,0,0,,10,,,81,127
85480,note_off,144,0,0,,10,,,81,127
85480,note_off,0,0,0,,6,,,54,127
85482,note_on,2,0,0,,7,,,67,127
85482,note_on,0,0,0,,4,,,64,127
85553,note_off,71,0,0,,4,,,64,127
85553,note_off,0,0,0,,7,,,67,127
85555,note_on,2,0,0,,6,,,66,127
85555,note_on,0,0,0,,2,,,62,127
85626,note_off,71,0,0,,2,,,62,127
85626,note_off,0,0,0,,6,,,66,127
85628,note_on,2,0,0,,4,,,64,127
85628,note_on,0,0,0,,1,,,61,127
85772,note_off,144,0,0,,1,,,61,127
85772,note_off,0,0,0,,4,,,64,127
85774,note_on,2,0,0,,6,,,66,127
85774,note_on,0,0,0,,2,,,62,127
85918,note_off,144,0,0,,2,,,62,127
85918,note_off,0,0,0,,6,,,66,127
85920,note_on,2,0,0,,6,,,78,127
85920,note_on,0,0,0,,4,,,52,127
86210,note_off,290,0,0,,6,,,78,127
86212,note_on,2,0,0,,7,,,79,127
86356,note_off,144,0,0,,7,,,79,127
86356,note_off,0,0,0,,4,,,52,127
86358,note_on,2,0,0,,6,,,66,127
86358,note_on,0,0,0,,2,,,62,127
86429,note_off,71,0,0,,2,,,62,127
86429,note_off,0,0,0,,6,,,66,127
86431,note_on,2,0,0,,4,,,64,127
86431,note_on,0,0,0,,1,,,61,127
86502,note_off,71,0,0,,1,,,61,127
86502,note_off,0,0,0,,4,,,64,127
86504,note_on,2,0,0,,2,,,62,127
86504,note_on,0,0,0,,12,,,59,127
86648,note_off,144,0,0,,12,,,59,127
86648,note_off,0,0,0,,2,,,62,127
86650,note_on,2,0,0,,4,,,64,127
86650,note_on,0,0,0,,1,,,61,127
86794,note_off,144,0,0,,1,,,61,127
86794,note_off,0,0,0,,4,,,64,127
86796,note_on,2,0,0,,6,,,78,127
86796,note_on,0,0,0,,2,,,50,127
87086,note_off,290,0,0,,6,,,78,127
87088,note_on,2,0,0,,10,,,81,127
87232,note_off,144,0,0,,10,,,81,127
87232,note_off,0,0,0,,2,,,50,127
87234,note_on,2,0,0,,12,,,71,127
87234,note_on,0,0,0,,6,,,54,127
87234,note_on,0,0,0,,2,,,62,127
87305,note_off,71,0,0,,12,,,71,127
87307,note_on,2,0,0,,10,,,69,127
87378,note_off,71,0,0,,10,,,69,127
87380,note_on,2,0,0,,12,,,71,127
87451,note_off,71,0,0,,12,,,71,127
87453,note_on,2,0,0,,10,,,69,127
87524,note_off,71,0,0,,10,,,69,127
87524,note_off,0,0,0,,2,,,62,127
87524,note_off,0,0,0,,6,,,54,127
87526,note_on,2,0,0,,10,,,81,127
87526,note_on,0,0,0,,2,,,62,127
87526,note_on,0,0,0,,6,,,54,127
87670,note_off,144,0,0,,6,,,54,127
87670,note_off,0,0,0,,2,,,62,127
87670,note_off,0,0,0,,10,,,81,127
87672,note_on,2,0,0,,1,,,73,127
87672,note_on,0,0,0,,2,,,62,127
87672,note_on,0,0,0,,7,,,55,127
87743,note_off,71,0,0,,1,,,73,127
87745,note_on,2,0,0,,12,,,71,127
87816,note_off,71,0,0,,12,,,71,127
87818,note_on,2,0,0,,1,,,73,127
87889,note_off,71,0,0,,1,,,73,127
87891,note_on,2,0,0,,12,,,71,127
87962,note_off,71,0,0,,12,,,71,127
87962,note_off,0,0,0,,7,,,55,127
87962,note_off,0,0,0,,2,,,62,127
87964,note_on,2,0,0,,10,,,81,127
87964,note_on,0,0,0,,2,,,62,127
87964,note_on,0,0,0,,7,,,55,127
88108,note_off,144,0,0,,7,,,55,127
88108,note_off,0,0,0,,2,,,62,127
88108,note_off,0,0,0,,10,,,81,127
88110,note_on,2,0,0,,2,,,74,127
88110,note_on,0,0,0,,10,,,57,127
88110,note_on,0,0,0,,2,,,62,127
88181,note_off,71,0,0,,2,,,74,127
88183,note_on,2,0,0,,1,,,73,127
88254,note_off,71,0,0,,1,,,73,127
88256,note_on,2,0,0,,2,,,74,127
88327,note_off,71,0,0,,2,,,74,127
88329,note_on,2,0,0,,1,,,73,127
88400,note_off,71,0,0,,1,,,73,127
88400,note_off,0,0,0,,2,,,62,127
88400,note_off,0,0,0,,10,,,57,127
88402,note_on,2,0,0,,10,,,81,127
88402,note_on,0,0,0,,2,,,62,127
88402,note_on,0,0,0,,10,,,57,127
88546,note_off,144,0,0,,10,,,57,127
88546,note_off,0,0,0,,2,,,62,127
88546,note_off,0,0,0,,10,,,81,127
88548,note_on,2,0,0,,4,,,76,127
88548,note_on,0,0,0,,12,,,59,127
88548,note_on,0,0,0,,2,,,62,127
88619,note_off,71,0,0,,4,,,76,127
88621,note_on,2,0,0,,2,,,74,127
88692,note_off,71,0,0,,2,,,74,127
88694,note_on,2,0,0,,4,,,76,127
88765,note_off,71,0,0,,4,,,76,127
88767,note_on,2,0,0,,2,,,74,127
88838,note_off,71,0,0,,2,,,74,127
88838,note_off,0,0,0,,2,,,62,127
88838,note_off,0,0,0,,12,,,59,127
88840,note_on,2,0,0,,10,,,81,127
88840,note_on,0,0,0,,2,,,62,127
88840,note_on,0,0,0,,12,,,59,127
88984,note_off,144,0,0,,12,,,59,127
88984,note_off,0,0,0,,2,,,62,127
88984,note_off,0,0,0,,10,,,81,127
88986,note_on,2,0,0,,6,,,78,127
88986,note_on,0,0,0,,4,,,64,127
88986,note_on,0,0,0,,1,,,61,127
89057,note_off,71,0,0,,6,,,78,127
89059,note_on,2,0,0,,4,,,76,127
89130,note_off,71,0,0,,4,,,76,127
89132,note_on,2,0,0,,6,,,78,127
89203,note_off,71,0,0,,6,,,78,127
89205,note_on,2,0,0,,4,,,76,127
89276,note_off,71,0,0,,4,,,76,127
89276,note_off,0,0,0,,1,,,61,127
89276,note_off,0,0,0,,4,,,64,127
89278,note_on,2,0,0,,10,,,81,127
89278,note_on,0,0,0,,4,,,64,127
89278,note_on,0,0,0,,1,,,61,127
89422,note_off,144,0,0,,1,,,61,127
89422,note_off,0,0,0,,4,,,64,127
89422,note_off,0,0,0,,10,,,81,127
89424,note_on,2,0,0,,6,,,78,127
89424,note_on,0,0,0,,2,,,74,127
89424,note_on,0,0,0,,2,,,62,127
89568,note_off,144,0,0,,6,,,78,127
89570,note_on,2,0,0,,10,,,81,127
89714,note_off,144,0,0,,10,,,81,127
89714,note_off,0,0,0,,2,,,62,127
89716,note_on,2,0,0,,7,,,79,127
89716,note_on,0,0,0,,7,,,55,127
89860,note_off,144,0,0,,7,,,55,127
89860,note_off,0,0,0,,7,,,79,127
89862,note_on,2,0,0,,6,,,78,127
89862,note_on,0,0,0,,10,,,57,127
90152,note_off,290,0,0,,6,,,78,127
90152,note_off,0,0,0,,2,,,74,127
90154,note_on,2,0,0,,1,,,73,127
90154,note_on,0,0,0,,4,,,76,127
90154,note_on,0,0,0,,10,,,45,127
90296,note_off,142,0,0,,10,,,57,127
90298,note_off,2,0,0,,10,,,45,127
90298,note_off,0,0,0,,4,,,76,127
90298,note_off,0,0,0,,1,,,73,127
90300,note_on,2,0,0,,2,,,74,127
90300,note_on,0,0,0,,2,,,50,127
90590,note_off,290,0,0,,2,,,50,127
90592,note_on,2,0,0,,2,,,86,127
90592,note_on,0,0,0,,2,,,62,127
90734,note_off,142,0,0,,2,,,74,127
90736,note_off,2,0,0,,2,,,62,127
90736,note_off,0,0,0,,2,,,86,127
90738,note_on,2,0,0,,12,,,83,127
90738,note_on,0,0,0,,6,,,66,127
90738,note_on,0,0,0,,6,,,54,127
90882,note_off,144,0,0,,12,,,83,127
90884,note_on,2,0,0,,10,,,81,127
91028,note_off,144,0,0,,10,,,81,127
91028,note_off,0,0,0,,6,,,54,127
91028,note_off,0,0,0,,6,,,66,127
91030,note_on,2,0,0,,7,,,79,127
91030,note_on,0,0,0,,4,,,64,127
91030,note_on,0,0,0,,4,,,52,127
91174,note_off,144,0,0,,4,,,52,127
91174,note_off,0,0,0,,4,,,64,127
91174,note_off,0,0,0,,7,,,79,127
91176,note_on,2,0,0,,7,,,79,127
91176,note_on,0,0,0,,10,,,81,127
91176,note_on,0,0,0,,2,,,62,127
91176,note_on,0,0,0,,2,,,50,127
91320,note_off,144,0,0,,10,,,81,127
91320,note_off,0,0,0,,7,,,79,127
91322,note_on,2,0,0,,6,,,78,127
91466,note_off,144,0,0,,6,,,78,127
91466,note_off,0,0,0,,2,,,50,127
91466,note_off,0,0,0,,2,,,62,127
91468,note_on,2,0,0,,2,,,86,127
91468,note_on,0,0,0,,2,,,74,127
91468,note_on,0,0,0,,2,,,62,127
91612,note_off,144,0,0,,2,,,62,127
91612,note_off,0,0,0,,2,,,74,127
91612,note_off,0,0,0,,2,,,86,127
91614,note_on,2,0,0,,12,,,83,127
91614,note_on,0,0,0,,6,,,66,127
91614,note_on,0,0,0,,6,,,54,127
91758,note_off,144,0,0,,12,,,83,127
91760,note_on,2,0,0,,10,,,81,127
91904,note_off,144,0,0,,10,,,81,127
91904,note_off,0,0,0,,6,,,54,127
91904,note_off,0,0,0,,6,,,66,127
91906,note_on,2,0,0,,7,,,79,127
91906,note_on,0,0,0,,4,,,64,127
91906,note_on,0,0,0,,4,,,52,127
92050,note_off,144,0,0,,4,,,52,127
92050,note_off,0,0,0,,4,,,64,127
92050,note_off,0,0,0,,7,,,79,127
92052,note_on,2,0,0,,10,,,81,127
92052,note_on,0,0,0,,7,,,79,127
92052,note_on,0,0,0,,2,,,62,127
92052,note_on,0,0,0,,2,,,50,127
92196,note_off,144,0,0,,7,,,79,127
92196,note_off,0,0,0,,10,,,81,127
92198,note_on,2,0,0,,6,,,78,127
92342,note_off,144,0,0,,6,,,78,127
92342,note_off,0,0,0,,2,,,50,127
92342,note_off,0,0,0,,2,,,62,127
92344,note_on,2,0,0,,2,,,86,127
92344,note_on,0,0,0,,2,,,62,127
92344,note_on,0,0,0,,2,,,74,127
92488,note_off,144,0,0,,2,,,74,127
92488,note_off,0,0,0,,2,,,62,127
92488,note_off,0,0,0,,2,,,86,127
92490,note_on,2,0,0,,12,,,83,127
92490,note_on,0,0,0,,6,,,66,127
92490,note_on,0,0,0,,6,,,54,127
92634,note_off,144,0,0,,12,,,83,127
92636,note_on,2,0,0,,10,,,81,127
92780,note_off,144,0,0,,10,,,81,127
92780,note_off,0,0,0,,6,,,54,127
92780,note_off,0,0,0,,6,,,66,127
92782,note_on,2,0,0,,7,,,79,127
92782,note_on,0,0,0,,4,,,64,127
92782,note_on,0,0,0,,4,,,52,127
92926,note_off,144,0,0,,4,,,52,127
92926,note_off,0,0,0,,4,,,64,127
92926,note_off,0,0,0,,7,,,79,127
92928,note_on,2,0,0,,7,,,79,127
92928,note_on,0,0,0,,6,,,78,127
92928,note_on,0,0,0,,2,,,86,127
92928,note_on,0,0,0,,2,,,62,127
92928,note_on,0,0,0,,2,,,50,127
93072,note_off,144,0,0,,6,,,78,127
93072,note_off,0,0,0,,7,,,79,127
93074,note_on,2,0,0,,4,,,76,127
93218,note_off,144,0,0,,4,,,76,127
93218,note_off,0,0,0,,2,,,50,127
93218,note_off,0,0,0,,2,,,62,127
93220,note_on,2,0,0,,6,,,78,127
93220,note_on,0,0,0,,12,,,59,127
93220,note_on,0,0,0,,12,,,47,127
93364,note_off,144,0,0,,12,,,47,127
93364,note_off,0,0,0,,12,,,59,127
93364,note_off,0,0,0,,6,,,78,127
93366,note_on,2,0,0,,7,,,79,127
93366,note_on,0,0,0,,7,,,55,127
93366,note_on,0,0,0,,7,,,43,127
93510,note_off,144,0,0,,7,,,79,127
93512,note_on,2,0,0,,6,,,78,127
93656,note_off,144,0,0,,6,,,78,127
93656,note_off,0,0,0,,7,,,43,127
93656,note_off,0,0,0,,7,,,55,127
93656,note_off,0,0,0,,2,,,86,127
93658,note_on,2,0,0,,1,,,85,127
93658,note_on,0,0,0,,4,,,76,127
93658,note_on,0,0,0,,10,,,57,127
93658,note_on,0,0,0,,10,,,45,127
93802,note_off,144,0,0,,10,,,45,127
93802,note_off,0,0,0,,10,,,57,127
93802,note_off,0,0,0,,4,,,76,127
93802,note_off,0,0,0,,1,,,85,127
93804,note_on,2,0,0,,2,,,86,127
93804,note_on,0,0,0,,2,,,74,127
93804,note_on,0,0,0,,2,,,50,127
93804,note_on,0,0,0,,2,,,38,127
94094,note_off,290,0,0,,2,,,38,127
94094,note_off,0,0,0,,2,,,50,127
94094,note_off,0,0,0,,2,,,74,127
94094,note_off,0,0,0,,2,,,86,127
94096,note_on,2,0,0,,6,,,78,127
94096,note_on,0,0,0,,2,,,74,127
94096,note_on,0,0,0,,2,,,50,127
94240,note_off,144,0,0,,2,,,50,127
94240,note_off,0,0,0,,2,,,74,127
94240,note_off,0,0,0,,6,,,78,127
94242,note_on,2,0,0,,10,,,81,127
94242,note_on,0,0,0,,6,,,78,127
94242,note_on,0,0,0,,6,,,54,127
94386,note_off,144,0,0,,6,,,78,127
94386,note_off,0,0,0,,10,,,81,127
94388,note_on,2,0,0,,10,,,69,127
94532,note_off,144,0,0,,6,,,54,127
94534,note_on,2,0,0,,4,,,76,127
94534,note_on,0,0,0,,7,,,79,127
94534,note_on,0,0,0,,4,,,52,127
94605,note_off,71,0,0,,10,,,69,127
94678,note_off,73,0,0,,4,,,52,127
94678,note_off,0,0,0,,7,,,79,127
94678,note_off,0,0,0,,4,,,76,127
94680,note_on,2,0,0,,6,,,78,127
94680,note_on,0,0,0,,2,,,74,127
94680,note_on,0,0,0,,2,,,50,127
94824,note_off,144,0,0,,2,,,74,127
94824,note_off,0,0,0,,6,,,78,127
94826,note_on,2,0,0,,10,,,69,127
94970,note_off,144,0,0,,2,,,50,127
94972,note_on,2,0,0,,6,,,78,127
94972,note_on,0,0,0,,2,,,74,127
94972,note_on,0,0,0,,10,,,57,127
95043,note_off,71,0,0,,10,,,69,127
95116,note_off,73,0,0,,10,,,57,127
95116,note_off,0,0,0,,2,,,74,127
95116,note_off,0,0,0,,6,,,78,127
95118,note_on,2,0,0,,6,,,78,127
95118,note_on,0,0,0,,10,,,81,127
95118,note_on,0,0,0,,6,,,54,127
95262,note_off,144,0,0,,10,,,81,127
95262,note_off,0,0,0,,6,,,78,127
95264,note_on,2,0,0,,10,,,69,127
95408,note_off,144,0,0,,6,,,54,127
95410,note_on,2,0,0,,4,,,76,127
95410,note_on,0,0,0,,7,,,79,127
95410,note_on,0,0,0,,4,,,52,127
95481,note_off,71,0,0,,10,,,69,127
95554,note_off,73,0,0,,4,,,52,127
95554,note_off,0,0,0,,7,,,79,127
95554,note_off,0,0,0,,4,,,76,127
95556,note_on,2,0,0,,2,,,74,127
95556,note_on,0,0,0,,6,,,78,127
95556,note_on,0,0,0,,2,,,50,127
95700,note_off,144,0,0,,6,,,78,127
95700,note_off,0,0,0,,2,,,74,127
95702,note_on,2,0,0,,10,,,69,127
95846,note_off,144,0,0,,2,,,50,127
95848,note_on,2,0,0,,6,,,78,127
95848,note_on,0,0,0,,2,,,74,127
95848,note_on,0,0,0,,2,,,50,127
95919,note_off,71,0,0,,10,,,69,127
95992,note_off,73,0,0,,2,,,50,127
95992,note_off,0,0,0,,2,,,74,127
95992,note_off,0,0,0,,6,,,78,127
95994,note_on,2,0,0,,10,,,81,127
95994,note_on,0,0,0,,6,,,78,127
95994,note_on,0,0,0,,6,,,54,127
96138,note_off,144,0,0,,6,,,78,127
96138,note_off,0,0,0,,10,,,81,127
96140,note_on,2,0,0,,10,,,69,127
96284,note_off,144,0,0,,10,,,69,127
96284,note_off,0,0,0,,6,,,54,127
96286,note_on,2,0,0,,4,,,76,127
96286,note_on,0,0,0,,7,,,79,127
96286,note_on,0,0,0,,4,,,52,127
96430,note_off,144,0,0,,4,,,52,127
96430,note_off,0,0,0,,7,,,79,127
96430,note_off,0,0,0,,4,,,76,127
96432,note_on,2,0,0,,6,,,78,127
96432,note_on,0,0,0,,2,,,74,127
96432,note_on,0,0,0,,2,,,50,127
96576,note_off,144,0,0,,2,,,74,127
96576,note_off,0,0,0,,6,,,78,127
96578,note_on,2,0,0,,1,,,73,127
96578,note_on,0,0,0,,4,,,76,127
96722,note_off,144,0,0,,4,,,76,127
96722,note_off,0,0,0,,1,,,73,127
96722,note_off,0,0,0,,2,,,50,127
96724,note_on,2,0,0,,6,,,78,127
96724,note_on,0,0,0,,2,,,74,127
96724,note_on,0,0,0,,12,,,59,127
96868,note_off,144,0,0,,12,,,59,127
96868,note_off,0,0,0,,2,,,74,127
96868,note_off,0,0,0,,6,,,78,127
96870,note_on,2,0,0,,4,,,76,127
96870,note_on,0,0,0,,7,,,79,127
96870,note_on,0,0,0,,7,,,55,127
97014,note_off,144,0,0,,7,,,79,127
97014,note_off,0,0,0,,4,,,76,127
97016,note_on,2,0,0,,6,,,78,127
97016,note_on,0,0,0,,2,,,74,127
97160,note_off,144,0,0,,2,,,74,127
97160,note_off,0,0,0,,6,,,78,127
97160,note_off,0,0,0,,7,,,55,127
97162,note_on,2,0,0,,1,,,73,127
97162,note_on,0,0,0,,4,,,76,127
97162,note_on,0,0,0,,10,,,57,127
97306,note_off,144,0,0,,10,,,57,127
97306,note_off,0,0,0,,4,,,76,127
97306,note_off,0,0,0,,1,,,73,127
97308,note_on,2,0,0,,10,,,81,127
97308,note_on,0,0,0,,6,,,78,127
97308,note_on,0,0,0,,6,,,54,127
97452,note_off,144,0,0,,6,,,78,127
97452,note_off,0,0,0,,10,,,81,127
97454,note_on,2,0,0,,4,,,76,127
97454,note_on,0,0,0,,7,,,79,127
97598,note_off,144,0,0,,7,,,79,127
97598,note_off,0,0,0,,4,,,76,127
97598,note_off,0,0,0,,6,,,54,127
97600,note_on,2,0,0,,2,,,74,127
97600,note_on,0,0,0,,6,,,78,127
97600,note_on,0,0,0,,12,,,59,127
97744,note_off,144,0,0,,12,,,59,127
97744,note_off,0,0,0,,6,,,78,127
97744,note_off,0,0,0,,2,,,74,127
97746,note_on,2,0,0,,4,,,76,127
97746,note_on,0,0,0,,7,,,79,127
97746,note_on,0,0,0,,7,,,55,127
97890,note_off,144,0,0,,7,,,79,127
97890,note_off,0,0,0,,4,,,76,127
97892,note_on,2,0,0,,2,,,74,127
97892,note_on,0,0,0,,6,,,78,127
98036,note_off,144,0,0,,6,,,78,127
98036,note_off,0,0,0,,2,,,74,127
98036,note_off,0,0,0,,7,,,55,127
98038,note_on,2,0,0,,4,,,76,127
98038,note_on,0,0,0,,1,,,73,127
98038,note_on,0,0,0,,10,,,57,127
98182,note_off,144,0,0,,10,,,57,127
98182,note_off,0,0,0,,1,,,73,127
98182,note_off,0,0,0,,4,,,76,127
98184,note_on,2,0,0,,6,,,78,127
98184,note_on,0,0,0,,10,,,81,127
98184,note_on,0,0,0,,6,,,54,127
98328,note_off,144,0,0,,10,,,81,127
98328,note_off,0,0,0,,6,,,78,127
98330,note_on,2,0,0,,4,,,76,127
98330,note_on,0,0,0,,7,,,79,127
98474,note_off,144,0,0,,7,,,79,127
98474,note_off,0,0,0,,4,,,76,127
98474,note_off,0,0,0,,6,,,54,127
98476,note_on,2,0,0,,2,,,74,127
98476,note_on,0,0,0,,6,,,78,127
98476,note_on,0,0,0,,12,,,47,127
98476,note_on,0,0,0,,12,,,59,127
98620,note_off,144,0,0,,12,,,59,127
98620,note_off,0,0,0,,12,,,47,127
98620,note_off,0,0,0,,6,,,78,127
98620,note_off,0,0,0,,2,,,74,127
98622,note_on,2,0,0,,7,,,79,127
98622,note_on,0,0,0,,4,,,76,127
98622,note_on,0,0,0,,7,,,55,127
98622,note_on,0,0,0,,7,,,43,127
98766,note_off,144,0,0,,4,,,76,127
98766,note_off,0,0,0,,7,,,79,127
98768,note_on,2,0,0,,2,,,74,127
98768,note_on,0,0,0,,6,,,78,127
98912,note_off,144,0,0,,6,,,78,127
98912,note_off,0,0,0,,2,,,74,127
98912,note_off,0,0,0,,7,,,43,127
98912,note_off,0,0,0,,7,,,55,127
98914,note_on,2,0,0,,4,,,76,127
98914,note_on,0,0,0,,1,,,73,127
98914,note_on,0,0,0,,10,,,45,127
98914,note_on,0,0,0,,10,,,57,127
99058,note_off,144,0,0,,10,,,57,127
99058,note_off,0,0,0,,1,,,73,127
99058,note_off,0,0,0,,4,,,76,127
99060,note_on,2,0,0,,10,,,81,127
99060,note_on,0,0,0,,6,,,54,127
99204,note_off,144,0,0,,6,,,54,127
99204,note_off,0,0,0,,10,,,81,127
99206,note_on,2,0,0,,7,,,79,127
99206,note_on,0,0,0,,4,,,52,127
99350,note_off,144,0,0,,4,,,52,127
99350,note_off,0,0,0,,7,,,79,127
99352,note_on,2,0,0,,6,,,78,127
99352,note_on,0,0,0,,2,,,50,127
99496,note_off,144,0,0,,2,,,50,127
99496,note_off,0,0,0,,6,,,78,127
99496,note_off,0,0,0,,10,,,45,127
99498,note_on,2,0,0,,4,,,76,127
99498,note_on,0,0,0,,7,,,67,127
99498,note_on,0,0,0,,7,,,55,127
99498,note_on,0,0,0,,7,,,43,127
99642,note_off,144,0,0,,7,,,67,127
99642,note_off,0,0,0,,4,,,76,127
99644,note_on,2,0,0,,2,,,74,127
99644,note_on,0,0,0,,6,,,66,127
99788,note_off,144,0,0,,6,,,66,127
99788,note_off,0,0,0,,2,,,74,127
99788,note_off,0,0,0,,7,,,43,127
99788,note_off,0,0,0,,7,,,55,127
99790,note_on,2,0,0,,4,,,64,127
99790,note_on,0,0,0,,1,,,73,127
99790,note_on,0,0,0,,10,,,57,127
99790,note_on,0,0,0,,10,,,45,127
99934,note_off,144,0,0,,10,,,45,127
99934,note_off,0,0,0,,10,,,57,127
99934,note_off,0,0,0,,1,,,73,127
99934,note_off,0,0,0,,4,,,64,127
99936,note_on,2,0,0,,2,,,74,127
99936,note_on,0,0,0,,2,,,38,127
99936,note_on,0,0,0,,2,,,50,127
100080,note_off,144,0,0,,2,,,74,127
100082,note_on,2,0,0,,10,,,69,127
100226,note_off,144,0,0,,10,,,69,127
100228,note_on,2,0,0,,6,,,66,127
100372,note_off,144,0,0,,6,,,66,127
100374,note_on,2,0,0,,2,,,62,127
100518,note_off,144,0,0,,2,,,62,127
100520,note_on,2,0,0,,10,,,57,127
100664,note_off,144,0,0,,10,,,57,127
100666,note_on,2,0,0,,6,,,54,127
100810,note_off,144,0,0,,6,,,54,127
100810,note_off,0,0,0,,2,,,50,127
100810,note_off,0,0,0,,2,,,38,127
100812,note_on,2,0,0,,2,,,50,127
102564,note_off,1752,0,0,,2,,,50,127
107520,end_of_track,4956,1,0,,,,,,
