tick,type,time,meta,track,program,channel,pitch,tempo,note,velocity
0,copyright,0,1,0,,,,,,
0,program_change,0,0,0,6,0,,,,
0,pitchwheel,0,0,0,,0,0,,,
0,program_change,0,0,0,6,1,,,,
0,pitchwheel,0,0,0,,1,-590,,,
0,program_change,0,0,0,6,2,,,,
0,pitchwheel,0,0,0,,2,-272,,,
0,program_change,0,0,0,6,3,,,,
0,pitchwheel,0,0,0,,3,-353,,,
0,program_change,0,0,0,6,4,,,,
0,pitchwheel,0,0,0,,4,-560,,,
0,program_change,0,0,0,6,5,,,,
0,pitchwheel,0,0,0,,5,-80,,,
0,program_change,0,0,0,6,6,,,,
0,pitchwheel,0,0,0,,6,-625,,,
0,program_change,0,0,0,6,7,,,,
0,pitchwheel,0,0,0,,7,-130,,,
0,program_change,0,0,0,6,8,,,,
0,pitchwheel,0,0,0,,8,-512,,,
0,program_change,0,0,0,6,10,,,,
0,pitchwheel,0,0,0,,10,-464,,,
0,program_change,0,0,0,6,11,,,,
0,pitchwheel,0,0,0,,11,-208,,,
0,program_change,0,0,0,6,12,,,,
0,pitchwheel,0,0,0,,12,-553,,,
0,set_tempo,0,1,0,,,,500000,,
81,note_on,81,0,0,,4,,,40,127
81,note_on,0,0,0,,4,,,52,127
586,note_off,505,0,0,,4,,,52,127
586,note_off,0,0,0,,4,,,40,127
606,note_on,20,0,0,,8,,,80,127
667,note_on,61,0,0,,10,,,81,127
687,note_off,20,0,0,,8,,,80,127
727,note_off,40,0,0,,10,,,81,127
727,note_on,0,0,0,,12,,,83,127
1091,note_off,364,0,0,,12,,,83,127
1091,note_on,0,0,0,,10,,,81,127
1091,note_on,0,0,0,,8,,,80,127
1152,note_off,61,0,0,,10,,,81,127
1152,note_on,0,0,0,,6,,,78,127
1172,note_off,20,0,0,,8,,,80,127
1212,note_off,40,0,0,,6,,,78,127
1212,note_on,0,0,0,,4,,,76,127
1576,note_off,364,0,0,,4,,,76,127
1576,note_on,0,0,0,,4,,,76,127
1576,note_on,0,0,0,,3,,,75,127
1637,note_off,61,0,0,,4,,,76,127
1637,note_on,0,0,0,,1,,,73,127
1657,note_off,20,0,0,,3,,,75,127
1697,note_off,40,0,0,,1,,,73,127
1697,note_on,0,0,0,,12,,,71,127
2061,note_off,364,0,0,,12,,,71,127
2061,note_on,0,0,0,,12,,,71,127
2061,note_on,0,0,0,,10,,,69,127
2122,note_off,61,0,0,,12,,,71,127
2122,note_on,0,0,0,,8,,,68,127
2142,note_off,20,0,0,,10,,,69,127
2182,note_off,40,0,0,,8,,,68,127
2182,note_on,0,0,0,,6,,,66,127
2546,note_off,364,0,0,,6,,,66,127
2546,note_on,0,0,0,,8,,,68,127
2546,note_on,0,0,0,,4,,,64,127
2607,note_on,61,0,0,,10,,,69,127
2627,note_off,20,0,0,,8,,,68,127
2667,note_off,40,0,0,,10,,,69,127
2667,note_on,0,0,0,,12,,,71,127
3031,note_off,364,0,0,,12,,,71,127
3031,note_off,0,0,0,,4,,,64,127
3031,note_on,0,0,0,,10,,,69,127
3031,note_on,0,0,0,,8,,,68,127
3090,note_off,59,0,0,,10,,,69,127
3091,note_off,1,0,0,,8,,,68,127
3091,note_on,0,0,0,,6,,,66,127
3152,note_off,61,0,0,,6,,,66,127
3152,note_on,0,0,0,,4,,,64,127
3516,note_off,364,0,0,,4,,,64,127
3516,note_on,0,0,0,,4,,,64,127
3516,note_on,0,0,0,,3,,,63,127
3575,note_off,59,0,0,,4,,,64,127
3576,note_off,1,0,0,,3,,,63,127
3576,note_on,0,0,0,,1,,,61,127
3637,note_off,61,0,0,,1,,,61,127
3637,note_on,0,0,0,,12,,,59,127
4001,note_off,364,0,0,,12,,,59,127
4001,note_on,0,0,0,,12,,,59,127
4001,note_on,0,0,0,,4,,,76,127
4040,note_off,39,0,0,,4,,,76,127
4040,note_off,0,0,0,,12,,,59,127
4041,note_on,1,0,0,,10,,,57,127
4041,note_on,0,0,0,,3,,,75,127
4080,note_off,39,0,0,,3,,,75,127
4080,note_off,0,0,0,,10,,,57,127
4081,note_on,1,0,0,,12,,,59,127
4081,note_on,0,0,0,,4,,,76,127
4120,note_off,39,0,0,,4,,,76,127
4120,note_off,0,0,0,,12,,,59,127
4121,note_on,1,0,0,,10,,,57,127
4121,note_on,0,0,0,,3,,,75,127
4160,note_off,39,0,0,,3,,,75,127
4160,note_off,0,0,0,,10,,,57,127
4161,note_on,1,0,0,,12,,,59,127
4161,note_on,0,0,0,,4,,,76,127
4200,note_off,39,0,0,,4,,,76,127
4200,note_off,0,0,0,,12,,,59,127
4201,note_on,1,0,0,,10,,,57,127
4201,note_on,0,0,0,,3,,,75,127
4240,note_off,39,0,0,,3,,,75,127
4240,note_off,0,0,0,,10,,,57,127
4241,note_on,1,0,0,,12,,,59,127
4241,note_on,0,0,0,,4,,,76,127
4280,note_off,39,0,0,,4,,,76,127
4280,note_off,0,0,0,,12,,,59,127
4281,note_on,1,0,0,,10,,,57,127
4281,note_on,0,0,0,,3,,,75,127
4320,note_off,39,0,0,,3,,,75,127
4320,note_off,0,0,0,,10,,,57,127
4321,note_on,1,0,0,,12,,,59,127
4321,note_on,0,0,0,,4,,,76,127
4360,note_off,39,0,0,,4,,,76,127
4360,note_off,0,0,0,,12,,,59,127
4361,note_on,1,0,0,,10,,,57,127
4361,note_on,0,0,0,,3,,,75,127
4400,note_off,39,0,0,,3,,,75,127
4400,note_off,0,0,0,,10,,,57,127
4401,note_on,1,0,0,,8,,,56,127
4401,note_on,0,0,0,,1,,,73,127
4440,note_off,39,0,0,,1,,,73,127
4440,note_off,0,0,0,,8,,,56,127
4441,note_on,1,0,0,,6,,,54,127
4441,note_on,0,0,0,,3,,,75,127
4480,note_off,39,0,0,,6,,,54,127
4481,note_on,1,0,0,,4,,,52,127
4739,note_on,258,0,0,,4,,,76,127
4754,note_off,15,0,0,,3,,,75,127
5330,note_off,576,0,0,,4,,,52,127
5573,note_off,243,0,0,,4,,,76,127
5977,note_on,404,0,0,,8,,,80,127
5977,note_on,0,0,0,,4,,,64,127
6137,note_off,160,0,0,,8,,,80,127
6138,note_on,1,0,0,,4,,,76,127
6298,note_off,160,0,0,,4,,,76,127
6299,note_on,1,0,0,,12,,,71,127
6459,note_off,160,0,0,,12,,,71,127
6459,note_off,0,0,0,,4,,,64,127
6460,note_on,1,0,0,,10,,,81,127
6460,note_on,0,0,0,,6,,,66,127
6460,note_on,0,0,0,,3,,,63,127
6622,note_on,162,0,0,,6,,,78,127
6782,note_off,160,0,0,,6,,,78,127
6783,note_on,1,0,0,,12,,,71,127
6943,note_off,160,0,0,,3,,,63,127
6943,note_off,0,0,0,,6,,,66,127
6944,note_on,1,0,0,,8,,,68,127
6944,note_on,0,0,0,,4,,,64,127
7428,note_off,484,0,0,,4,,,64,127
7428,note_off,0,0,0,,8,,,68,127
7428,note_off,0,0,0,,12,,,71,127
7429,note_off,1,0,0,,10,,,81,127
7429,note_on,0,0,0,,8,,,80,127
7429,note_on,0,0,0,,8,,,68,127
7429,note_on,0,0,0,,4,,,64,127
7589,note_off,160,0,0,,8,,,80,127
7590,note_on,1,0,0,,4,,,76,127
7750,note_off,160,0,0,,4,,,76,127
7751,note_on,1,0,0,,12,,,71,127
7911,note_off,160,0,0,,12,,,71,127
7911,note_off,0,0,0,,4,,,64,127
7911,note_off,0,0,0,,8,,,68,127
7912,note_on,1,0,0,,10,,,81,127
7912,note_on,0,0,0,,6,,,66,127
7912,note_on,0,0,0,,3,,,63,127
8074,note_on,162,0,0,,6,,,78,127
8234,note_off,160,0,0,,6,,,78,127
8235,note_on,1,0,0,,12,,,71,127
8395,note_off,160,0,0,,3,,,63,127
8395,note_off,0,0,0,,6,,,66,127
8396,note_on,1,0,0,,8,,,68,127
8396,note_on,0,0,0,,4,,,64,127
8880,note_off,484,0,0,,4,,,64,127
8880,note_off,0,0,0,,8,,,68,127
8880,note_off,0,0,0,,12,,,71,127
8881,note_off,1,0,0,,10,,,81,127
8881,note_on,0,0,0,,8,,,80,127
8881,note_on,0,0,0,,8,,,68,127
8881,note_on,0,0,0,,4,,,64,127
9041,note_off,160,0,0,,8,,,80,127
9042,note_on,1,0,0,,4,,,76,127
9202,note_off,160,0,0,,4,,,76,127
9203,note_on,1,0,0,,12,,,71,127
9363,note_off,160,0,0,,12,,,71,127
9363,note_off,0,0,0,,4,,,64,127
9363,note_off,0,0,0,,8,,,68,127
9364,note_on,1,0,0,,11,,,70,127
9364,note_on,0,0,0,,4,,,64,127
9364,note_on,0,0,0,,1,,,61,127
9526,note_on,162,0,0,,1,,,73,127
9686,note_off,160,0,0,,1,,,73,127
9687,note_on,1,0,0,,4,,,76,127
9847,note_off,160,0,0,,1,,,61,127
9847,note_off,0,0,0,,4,,,64,127
9848,note_on,1,0,0,,4,,,64,127
9848,note_on,0,0,0,,12,,,59,127
9848,note_on,0,0,0,,6,,,66,127
10332,note_off,484,0,0,,6,,,66,127
10332,note_off,0,0,0,,12,,,59,127
10332,note_off,0,0,0,,4,,,64,127
10332,note_off,0,0,0,,4,,,76,127
10333,note_off,1,0,0,,11,,,70,127
10333,note_on,0,0,0,,3,,,75,127
10333,note_on,0,0,0,,4,,,64,127
10333,note_on,0,0,0,,12,,,59,127
10333,note_on,0,0,0,,6,,,66,127
10493,note_off,160,0,0,,3,,,75,127
10494,note_on,1,0,0,,12,,,71,127
10654,note_off,160,0,0,,12,,,71,127
10655,note_on,1,0,0,,6,,,78,127
10815,note_off,160,0,0,,6,,,78,127
10815,note_off,0,0,0,,6,,,66,127
10815,note_off,0,0,0,,12,,,59,127
10815,note_off,0,0,0,,4,,,64,127
10816,note_on,1,0,0,,4,,,76,127
10816,note_on,0,0,0,,1,,,61,127
10816,note_on,0,0,0,,4,,,64,127
10816,note_on,0,0,0,,6,,,66,127
10976,note_off,160,0,0,,4,,,76,127
10977,note_on,1,0,0,,1,,,73,127
11139,note_on,162,0,0,,11,,,82,127
11299,note_off,160,0,0,,6,,,66,127
11299,note_off,0,0,0,,4,,,64,127
11299,note_off,0,0,0,,1,,,61,127
11300,note_on,1,0,0,,4,,,64,127
11300,note_on,0,0,0,,12,,,59,127
11300,note_on,0,0,0,,6,,,66,127
11784,note_off,484,0,0,,6,,,66,127
11784,note_off,0,0,0,,12,,,59,127
11784,note_off,0,0,0,,4,,,64,127
11784,note_off,0,0,0,,11,,,82,127
11785,note_off,1,0,0,,1,,,73,127
11785,note_on,0,0,0,,12,,,83,127
11785,note_on,0,0,0,,4,,,64,127
11785,note_on,0,0,0,,6,,,66,127
11785,note_on,0,0,0,,12,,,59,127
11945,note_off,160,0,0,,12,,,83,127
11946,note_on,1,0,0,,3,,,75,127
12106,note_off,160,0,0,,3,,,75,127
12107,note_on,1,0,0,,6,,,78,127
12267,note_off,160,0,0,,6,,,78,127
12267,note_off,0,0,0,,12,,,59,127
12267,note_off,0,0,0,,6,,,66,127
12267,note_off,0,0,0,,4,,,64,127
12268,note_on,1,0,0,,4,,,76,127
12268,note_on,0,0,0,,1,,,61,127
12268,note_on,0,0,0,,6,,,66,127
12268,note_on,0,0,0,,4,,,64,127
12428,note_off,160,0,0,,4,,,76,127
12429,note_on,1,0,0,,1,,,73,127
12591,note_on,162,0,0,,11,,,82,127
12751,note_off,160,0,0,,4,,,64,127
12751,note_off,0,0,0,,6,,,66,127
12751,note_off,0,0,0,,1,,,61,127
12752,note_on,1,0,0,,12,,,59,127
12752,note_on,0,0,0,,6,,,66,127
12752,note_on,0,0,0,,4,,,64,127
13236,note_off,484,0,0,,4,,,64,127
13236,note_off,0,0,0,,6,,,66,127
13236,note_off,0,0,0,,12,,,59,127
13236,note_off,0,0,0,,11,,,82,127
13237,note_off,1,0,0,,1,,,73,127
13237,note_on,0,0,0,,12,,,83,127
13237,note_on,0,0,0,,12,,,59,127
13237,note_on,0,0,0,,4,,,64,127
13237,note_on,0,0,0,,6,,,66,127
13397,note_off,160,0,0,,12,,,83,127
13398,note_on,1,0,0,,6,,,78,127
13558,note_off,160,0,0,,6,,,78,127
13559,note_on,1,0,0,,3,,,75,127
13719,note_off,160,0,0,,3,,,75,127
13719,note_off,0,0,0,,6,,,66,127
13719,note_off,0,0,0,,4,,,64,127
13719,note_off,0,0,0,,12,,,59,127
13720,note_on,1,0,0,,12,,,71,127
13720,note_on,0,0,0,,12,,,59,127
13720,note_on,0,0,0,,8,,,56,127
13720,note_on,0,0,0,,1,,,61,127
13882,note_on,162,0,0,,5,,,77,127
14044,note_on,162,0,0,,12,,,83,127
14204,note_off,160,0,0,,1,,,61,127
14204,note_off,0,0,0,,8,,,56,127
14204,note_off,0,0,0,,12,,,59,127
14205,note_on,1,0,0,,12,,,59,127
14205,note_on,0,0,0,,6,,,54,127
14205,note_on,0,0,0,,1,,,61,127
14689,note_off,484,0,0,,1,,,61,127
14689,note_off,0,0,0,,6,,,54,127
14689,note_off,0,0,0,,12,,,59,127
14689,note_off,0,0,0,,12,,,83,127
14690,note_off,1,0,0,,5,,,77,127
14690,note_off,0,0,0,,12,,,71,127
14690,note_on,0,0,0,,11,,,82,127
14690,note_on,0,0,0,,6,,,54,127
14690,note_on,0,0,0,,1,,,61,127
14690,note_on,0,0,0,,12,,,59,127
14850,note_off,160,0,0,,11,,,82,127
14851,note_on,1,0,0,,6,,,78,127
15011,note_off,160,0,0,,6,,,78,127
15012,note_on,1,0,0,,1,,,73,127
15172,note_off,160,0,0,,1,,,73,127
15172,note_off,0,0,0,,12,,,59,127
15172,note_off,0,0,0,,1,,,61,127
15172,note_off,0,0,0,,6,,,54,127
15173,note_on,1,0,0,,12,,,71,127
15173,note_on,0,0,0,,12,,,59,127
15173,note_on,0,0,0,,8,,,56,127
15173,note_on,0,0,0,,1,,,61,127
15335,note_on,162,0,0,,5,,,77,127
15497,note_on,162,0,0,,12,,,83,127
15657,note_off,160,0,0,,1,,,61,127
15657,note_off,0,0,0,,8,,,56,127
15657,note_off,0,0,0,,12,,,59,127
15658,note_on,1,0,0,,1,,,61,127
15658,note_on,0,0,0,,12,,,59,127
15658,note_on,0,0,0,,6,,,54,127
16142,note_off,484,0,0,,6,,,54,127
16142,note_off,0,0,0,,12,,,59,127
16142,note_off,0,0,0,,1,,,61,127
16142,note_off,0,0,0,,12,,,83,127
16143,note_off,1,0,0,,5,,,77,127
16143,note_off,0,0,0,,12,,,71,127
16143,note_on,0,0,0,,11,,,82,127
16143,note_on,0,0,0,,6,,,54,127
16143,note_on,0,0,0,,1,,,61,127
16143,note_on,0,0,0,,12,,,59,127
16303,note_off,160,0,0,,11,,,82,127
16304,note_on,1,0,0,,6,,,78,127
16464,note_off,160,0,0,,6,,,78,127
16465,note_on,1,0,0,,1,,,73,127
16625,note_off,160,0,0,,1,,,73,127
16625,note_off,0,0,0,,12,,,59,127
16625,note_off,0,0,0,,1,,,61,127
16625,note_off,0,0,0,,6,,,54,127
16626,note_on,1,0,0,,12,,,71,127
16626,note_on,0,0,0,,8,,,56,127
16626,note_on,0,0,0,,1,,,61,127
16626,note_on,0,0,0,,12,,,59,127
16786,note_off,160,0,0,,12,,,71,127
16787,note_on,1,0,0,,5,,,77,127
16947,note_off,160,0,0,,5,,,77,127
16948,note_on,1,0,0,,12,,,83,127
17108,note_off,160,0,0,,12,,,83,127
17108,note_off,0,0,0,,12,,,59,127
17108,note_off,0,0,0,,1,,,61,127
17108,note_off,0,0,0,,8,,,56,127
17109,note_on,1,0,0,,11,,,82,127
17109,note_on,0,0,0,,6,,,54,127
17269,note_off,160,0,0,,11,,,82,127
17270,note_on,1,0,0,,6,,,78,127
17430,note_off,160,0,0,,6,,,78,127
17431,note_on,1,0,0,,1,,,73,127
17591,note_off,160,0,0,,1,,,73,127
17591,note_off,0,0,0,,6,,,54,127
17592,note_on,1,0,0,,6,,,78,127
17592,note_on,0,0,0,,6,,,54,127
17752,note_off,160,0,0,,6,,,78,127
17753,note_on,1,0,0,,1,,,73,127
17913,note_off,160,0,0,,1,,,73,127
17914,note_on,1,0,0,,11,,,70,127
18074,note_off,160,0,0,,11,,,70,127
18075,note_on,1,0,0,,6,,,66,127
18235,note_off,160,0,0,,6,,,66,127
18236,note_on,1,0,0,,1,,,61,127
18396,note_off,160,0,0,,6,,,54,127
18397,note_off,1,0,0,,1,,,61,127
18397,note_on,0,0,0,,11,,,58,127
18557,note_off,160,0,0,,11,,,58,127
18558,note_on,1,0,0,,6,,,42,127
19609,note_off,1051,0,0,,6,,,42,127
20013,note_on,404,0,0,,2,,,74,127
20074,note_off,61,0,0,,2,,,74,127
20074,note_on,0,0,0,,4,,,76,127
20135,note_off,61,0,0,,4,,,76,127
20135,note_on,0,0,0,,6,,,78,127
20499,note_off,364,0,0,,6,,,78,127
20499,note_on,0,0,0,,4,,,76,127
20499,note_on,0,0,0,,6,,,66,127
20659,note_off,160,0,0,,4,,,76,127
20660,note_on,1,0,0,,1,,,73,127
20820,note_off,160,0,0,,1,,,73,127
20821,note_on,1,0,0,,12,,,71,127
20981,note_off,160,0,0,,6,,,66,127
20982,note_on,1,0,0,,12,,,83,127
20982,note_on,0,0,0,,7,,,67,127
21466,note_off,484,0,0,,7,,,67,127
21467,note_off,1,0,0,,12,,,71,127
21467,note_on,0,0,0,,0,,,72,127
21467,note_on,0,0,0,,6,,,66,127
21467,note_on,0,0,0,,10,,,69,127
21952,note_off,485,0,0,,12,,,83,127
21952,note_on,0,0,0,,10,,,81,127
22111,note_off,159,0,0,,0,,,72,127
22112,note_off,1,0,0,,10,,,81,127
22113,note_on,1,0,0,,3,,,75,127
22273,note_off,160,0,0,,3,,,75,127
22274,note_on,1,0,0,,6,,,78,127
22434,note_off,160,0,0,,6,,,78,127
22434,note_off,0,0,0,,10,,,69,127
22434,note_off,0,0,0,,6,,,66,127
22435,note_on,1,0,0,,12,,,71,127
22435,note_on,0,0,0,,4,,,76,127
22435,note_on,0,0,0,,7,,,67,127
22919,note_off,484,0,0,,7,,,67,127
22919,note_off,0,0,0,,4,,,76,127
22919,note_off,0,0,0,,12,,,71,127
22920,note_on,1,0,0,,2,,,74,127
22920,note_on,0,0,0,,6,,,66,127
22981,note_off,61,0,0,,2,,,74,127
22981,note_on,0,0,0,,4,,,76,127
23042,note_off,61,0,0,,4,,,76,127
23042,note_on,0,0,0,,6,,,78,127
23406,note_off,364,0,0,,6,,,78,127
23406,note_on,0,0,0,,4,,,76,127
23566,note_off,160,0,0,,4,,,76,127
23567,note_on,1,0,0,,1,,,73,127
23727,note_off,160,0,0,,1,,,73,127
23728,note_on,1,0,0,,11,,,70,127
23888,note_off,160,0,0,,11,,,70,127
23888,note_off,0,0,0,,6,,,66,127
23889,note_on,1,0,0,,7,,,79,127
23889,note_on,0,0,0,,4,,,64,127
23889,note_on,0,0,0,,11,,,58,127
23889,note_on,0,0,0,,7,,,67,127
24373,note_off,484,0,0,,7,,,67,127
24373,note_off,0,0,0,,11,,,58,127
24373,note_off,0,0,0,,4,,,64,127
24374,note_on,1,0,0,,4,,,64,127
24374,note_on,0,0,0,,12,,,59,127
24374,note_on,0,0,0,,7,,,67,127
24858,note_off,484,0,0,,7,,,79,127
24859,note_on,1,0,0,,4,,,76,127
25019,note_off,160,0,0,,4,,,76,127
25020,note_on,1,0,0,,1,,,73,127
25180,note_off,160,0,0,,1,,,73,127
25181,note_on,1,0,0,,4,,,76,127
25341,note_off,160,0,0,,4,,,76,127
25341,note_off,0,0,0,,7,,,67,127
25341,note_off,0,0,0,,12,,,59,127
25341,note_off,0,0,0,,4,,,64,127
25342,note_on,1,0,0,,11,,,70,127
25342,note_on,0,0,0,,7,,,79,127
25342,note_on,0,0,0,,1,,,61,127
25342,note_on,0,0,0,,7,,,67,127
25826,note_off,484,0,0,,7,,,67,127
25826,note_off,0,0,0,,1,,,61,127
25827,note_off,1,0,0,,11,,,70,127
25827,note_on,0,0,0,,4,,,64,127
25827,note_on,0,0,0,,12,,,59,127
25827,note_on,0,0,0,,7,,,67,127
26311,note_off,484,0,0,,7,,,79,127
26312,note_on,1,0,0,,4,,,76,127
26472,note_off,160,0,0,,4,,,76,127
26473,note_on,1,0,0,,1,,,73,127
26633,note_off,160,0,0,,1,,,73,127
26634,note_on,1,0,0,,4,,,76,127
26794,note_off,160,0,0,,4,,,76,127
26794,note_off,0,0,0,,7,,,67,127
26794,note_off,0,0,0,,12,,,59,127
26794,note_off,0,0,0,,4,,,64,127
26795,note_on,1,0,0,,1,,,85,127
26795,note_on,0,0,0,,4,,,76,127
26795,note_on,0,0,0,,4,,,64,127
26795,note_on,0,0,0,,11,,,58,127
26795,note_on,0,0,0,,7,,,67,127
27279,note_off,484,0,0,,7,,,67,127
27279,note_off,0,0,0,,11,,,58,127
27279,note_off,0,0,0,,4,,,64,127
27280,note_on,1,0,0,,4,,,64,127
27280,note_on,0,0,0,,12,,,59,127
27280,note_on,0,0,0,,7,,,67,127
27764,note_off,484,0,0,,4,,,76,127
27764,note_off,0,0,0,,1,,,85,127
27765,note_on,1,0,0,,7,,,79,127
27925,note_off,160,0,0,,7,,,79,127
27926,note_on,1,0,0,,4,,,76,127
28086,note_off,160,0,0,,4,,,76,127
28087,note_on,1,0,0,,7,,,79,127
28247,note_off,160,0,0,,7,,,79,127
28247,note_off,0,0,0,,7,,,67,127
28247,note_off,0,0,0,,12,,,59,127
28247,note_off,0,0,0,,4,,,64,127
28248,note_on,1,0,0,,1,,,85,127
28248,note_on,0,0,0,,4,,,76,127
28248,note_on,0,0,0,,1,,,61,127
28248,note_on,0,0,0,,7,,,67,127
28248,note_on,0,0,0,,11,,,70,127
28732,note_off,484,0,0,,11,,,70,127
28732,note_off,0,0,0,,7,,,67,127
28732,note_off,0,0,0,,1,,,61,127
28733,note_on,1,0,0,,2,,,62,127
28733,note_on,0,0,0,,12,,,71,127
28733,note_on,0,0,0,,6,,,66,127
29217,note_off,484,0,0,,4,,,76,127
29217,note_off,0,0,0,,1,,,85,127
29218,note_on,1,0,0,,6,,,78,127
29378,note_off,160,0,0,,6,,,78,127
29379,note_on,1,0,0,,2,,,74,127
29539,note_off,160,0,0,,2,,,74,127
29540,note_on,1,0,0,,6,,,78,127
29700,note_off,160,0,0,,6,,,78,127
29700,note_off,0,0,0,,6,,,66,127
29700,note_off,0,0,0,,12,,,71,127
29700,note_off,0,0,0,,2,,,62,127
29701,note_on,1,0,0,,11,,,82,127
29701,note_on,0,0,0,,6,,,66,127
29701,note_on,0,0,0,,2,,,62,127
29701,note_on,0,0,0,,12,,,71,127
29861,note_off,160,0,0,,11,,,82,127
29862,note_on,1,0,0,,12,,,83,127
30022,note_off,160,0,0,,12,,,83,127
30023,note_on,1,0,0,,6,,,78,127
30183,note_off,160,0,0,,6,,,78,127
30183,note_off,0,0,0,,12,,,71,127
30183,note_off,0,0,0,,2,,,62,127
30183,note_off,0,0,0,,6,,,66,127
30184,note_on,1,0,0,,10,,,81,127
30184,note_on,0,0,0,,7,,,79,127
30184,note_on,0,0,0,,7,,,67,127
30184,note_on,0,0,0,,12,,,71,127
30184,note_on,0,0,0,,4,,,64,127
30344,note_off,160,0,0,,7,,,79,127
30344,note_off,0,0,0,,10,,,81,127
30345,note_on,1,0,0,,6,,,78,127
30505,note_off,160,0,0,,6,,,78,127
30506,note_on,1,0,0,,4,,,76,127
30666,note_off,160,0,0,,4,,,76,127
30666,note_off,0,0,0,,4,,,64,127
30666,note_off,0,0,0,,12,,,71,127
30666,note_off,0,0,0,,7,,,67,127
30667,note_on,1,0,0,,2,,,74,127
30667,note_on,0,0,0,,4,,,76,127
30667,note_on,0,0,0,,6,,,66,127
30667,note_on,0,0,0,,12,,,71,127
30827,note_off,160,0,0,,4,,,76,127
30827,note_off,0,0,0,,2,,,74,127
30828,note_on,1,0,0,,1,,,73,127
30988,note_off,160,0,0,,1,,,73,127
30989,note_on,1,0,0,,2,,,74,127
31149,note_off,160,0,0,,2,,,74,127
31149,note_off,0,0,0,,12,,,71,127
31149,note_off,0,0,0,,6,,,66,127
31150,note_on,1,0,0,,6,,,78,127
31150,note_on,0,0,0,,4,,,76,127
31150,note_on,0,0,0,,11,,,70,127
31150,note_on,0,0,0,,6,,,66,127
31310,note_off,160,0,0,,4,,,76,127
31310,note_off,0,0,0,,6,,,78,127
31311,note_on,1,0,0,,2,,,74,127
31471,note_off,160,0,0,,2,,,74,127
31472,note_on,1,0,0,,1,,,73,127
31632,note_off,160,0,0,,1,,,73,127
31632,note_off,0,0,0,,6,,,66,127
31632,note_off,0,0,0,,11,,,70,127
31633,note_on,1,0,0,,12,,,71,127
31633,note_on,0,0,0,,12,,,59,127
32037,note_off,404,0,0,,12,,,71,127
32168,note_on,131,0,0,,2,,,74,127
32328,note_off,160,0,0,,2,,,74,127
32329,note_on,1,0,0,,0,,,72,127
32601,note_off,272,0,0,,12,,,59,127
32653,note_on,52,0,0,,10,,,69,127
32653,note_on,0,0,0,,12,,,59,127
33137,note_off,484,0,0,,0,,,72,127
33138,note_on,1,0,0,,4,,,76,127
33138,note_on,0,0,0,,12,,,71,127
33298,note_off,160,0,0,,4,,,76,127
33299,note_on,1,0,0,,3,,,75,127
33621,note_off,322,0,0,,3,,,75,127
33621,note_off,0,0,0,,12,,,59,127
33621,note_off,0,0,0,,10,,,69,127
33622,note_on,1,0,0,,7,,,67,127
33622,note_on,0,0,0,,12,,,59,127
33622,note_on,0,0,0,,4,,,64,127
33622,note_on,0,0,0,,4,,,76,127
34106,note_off,484,0,0,,4,,,76,127
34106,note_off,0,0,0,,4,,,64,127
34106,note_off,0,0,0,,12,,,59,127
34106,note_off,0,0,0,,7,,,67,127
34107,note_off,1,0,0,,12,,,71,127
34107,note_on,0,0,0,,6,,,66,127
34107,note_on,0,0,0,,10,,,69,127
34107,note_on,0,0,0,,12,,,59,127
34107,note_on,0,0,0,,4,,,64,127
34107,note_on,0,0,0,,6,,,78,127
34267,note_off,160,0,0,,6,,,78,127
34268,note_on,1,0,0,,7,,,79,127
34428,note_off,160,0,0,,7,,,79,127
34429,note_on,1,0,0,,10,,,81,127
34589,note_off,160,0,0,,10,,,81,127
34589,note_off,0,0,0,,4,,,64,127
34589,note_off,0,0,0,,12,,,59,127
34589,note_off,0,0,0,,10,,,69,127
34589,note_off,0,0,0,,6,,,66,127
34590,note_on,1,0,0,,4,,,52,127
34590,note_on,0,0,0,,4,,,64,127
34590,note_on,0,0,0,,10,,,81,127
34670,note_off,80,0,0,,10,,,81,127
34671,note_on,1,0,0,,7,,,79,127
34751,note_off,80,0,0,,7,,,79,127
34752,note_on,1,0,0,,6,,,78,127
34912,note_off,160,0,0,,6,,,78,127
34913,note_on,1,0,0,,4,,,76,127
35073,note_off,160,0,0,,4,,,76,127
35074,note_on,1,0,0,,7,,,79,127
35234,note_off,160,0,0,,7,,,79,127
35235,note_on,1,0,0,,5,,,77,127
35557,note_off,322,0,0,,4,,,64,127
35557,note_off,0,0,0,,4,,,52,127
35558,note_on,1,0,0,,4,,,64,127
35558,note_on,0,0,0,,2,,,74,127
36042,note_off,484,0,0,,5,,,77,127
36043,note_on,1,0,0,,10,,,81,127
36043,note_on,0,0,0,,4,,,76,127
36203,note_off,160,0,0,,10,,,81,127
36204,note_on,1,0,0,,8,,,80,127
36526,note_off,322,0,0,,8,,,80,127
36526,note_off,0,0,0,,2,,,74,127
36526,note_off,0,0,0,,4,,,64,127
36527,note_on,1,0,0,,0,,,72,127
36527,note_on,0,0,0,,4,,,64,127
36527,note_on,0,0,0,,10,,,69,127
36527,note_on,0,0,0,,10,,,81,127
37011,note_off,484,0,0,,10,,,81,127
37011,note_off,0,0,0,,10,,,69,127
37011,note_off,0,0,0,,4,,,64,127
37011,note_off,0,0,0,,0,,,72,127
37012,note_off,1,0,0,,4,,,76,127
37012,note_on,0,0,0,,2,,,74,127
37012,note_on,0,0,0,,10,,,69,127
37012,note_on,0,0,0,,12,,,71,127
37012,note_on,0,0,0,,4,,,64,127
37012,note_on,0,0,0,,12,,,83,127
37172,note_off,160,0,0,,12,,,83,127
37173,note_on,1,0,0,,0,,,84,127
37333,note_off,160,0,0,,0,,,84,127
37334,note_on,1,0,0,,2,,,86,127
37494,note_off,160,0,0,,2,,,86,127
37494,note_off,0,0,0,,4,,,64,127
37494,note_off,0,0,0,,12,,,71,127
37494,note_off,0,0,0,,10,,,69,127
37494,note_off,0,0,0,,2,,,74,127
37495,note_on,1,0,0,,10,,,69,127
37495,note_on,0,0,0,,2,,,86,127
37655,note_off,160,0,0,,2,,,86,127
37656,note_on,1,0,0,,0,,,84,127
37978,note_off,322,0,0,,10,,,69,127
37979,note_on,1,0,0,,10,,,57,127
38139,note_off,160,0,0,,0,,,84,127
38140,note_on,1,0,0,,12,,,83,127
38300,note_off,160,0,0,,12,,,83,127
38301,note_on,1,0,0,,10,,,81,127
38461,note_off,160,0,0,,10,,,81,127
38461,note_off,0,0,0,,10,,,57,127
38462,note_on,1,0,0,,11,,,58,127
38462,note_on,0,0,0,,7,,,79,127
38622,note_off,160,0,0,,7,,,79,127
38623,note_on,1,0,0,,6,,,78,127
38783,note_off,160,0,0,,6,,,78,127
38784,note_on,1,0,0,,4,,,76,127
38944,note_off,160,0,0,,4,,,76,127
38944,note_off,0,0,0,,11,,,58,127
38945,note_on,1,0,0,,12,,,59,127
38945,note_on,0,0,0,,4,,,76,127
39105,note_off,160,0,0,,4,,,76,127
39106,note_on,1,0,0,,3,,,75,127
39428,note_off,322,0,0,,12,,,59,127
39429,note_on,1,0,0,,12,,,71,127
39589,note_off,160,0,0,,3,,,75,127
39590,note_on,1,0,0,,3,,,75,127
39750,note_off,160,0,0,,3,,,75,127
39751,note_on,1,0,0,,4,,,76,127
39911,note_off,160,0,0,,4,,,76,127
39911,note_off,0,0,0,,12,,,71,127
39912,note_on,1,0,0,,3,,,63,127
39912,note_on,0,0,0,,6,,,78,127
40072,note_off,160,0,0,,6,,,78,127
40073,note_on,1,0,0,,8,,,80,127
40233,note_off,160,0,0,,8,,,80,127
40234,note_on,1,0,0,,10,,,81,127
40394,note_off,160,0,0,,10,,,81,127
40394,note_off,0,0,0,,3,,,63,127
40395,note_on,1,0,0,,4,,,64,127
40395,note_on,0,0,0,,10,,,81,127
40879,note_off,484,0,0,,4,,,64,127
40880,note_on,1,0,0,,12,,,71,127
41040,note_off,160,0,0,,10,,,81,127
41041,note_on,1,0,0,,8,,,80,127
41201,note_off,160,0,0,,8,,,80,127
41202,note_on,1,0,0,,6,,,78,127
41362,note_off,160,0,0,,6,,,78,127
41362,note_off,0,0,0,,12,,,71,127
41363,note_on,1,0,0,,5,,,65,127
41363,note_on,0,0,0,,8,,,80,127
41523,note_off,160,0,0,,8,,,80,127
41524,note_on,1,0,0,,11,,,82,127
41684,note_off,160,0,0,,11,,,82,127
41685,note_on,1,0,0,,12,,,83,127
41845,note_off,160,0,0,,12,,,83,127
41845,note_off,0,0,0,,5,,,65,127
41846,note_on,1,0,0,,6,,,66,127
41846,note_on,0,0,0,,12,,,83,127
42168,note_off,322,0,0,,12,,,83,127
42169,note_on,1,0,0,,11,,,82,127
42491,note_off,322,0,0,,6,,,66,127
42492,note_on,1,0,0,,6,,,78,127
42652,note_off,160,0,0,,6,,,78,127
42653,note_on,1,0,0,,4,,,76,127
42813,note_off,160,0,0,,4,,,76,127
42814,note_on,1,0,0,,3,,,75,127
42974,note_off,160,0,0,,11,,,82,127
42975,note_on,1,0,0,,12,,,83,127
43135,note_off,160,0,0,,12,,,83,127
43135,note_off,0,0,0,,3,,,75,127
43136,note_on,1,0,0,,1,,,73,127
43136,note_on,0,0,0,,11,,,82,127
43296,note_off,160,0,0,,1,,,73,127
43297,note_on,1,0,0,,12,,,71,127
43457,note_off,160,0,0,,11,,,82,127
43458,note_on,1,0,0,,8,,,80,127
43618,note_off,160,0,0,,8,,,80,127
43618,note_off,0,0,0,,12,,,71,127
43619,note_on,1,0,0,,11,,,70,127
43619,note_on,0,0,0,,6,,,78,127
43779,note_off,160,0,0,,11,,,70,127
43780,note_on,1,0,0,,8,,,68,127
43940,note_off,160,0,0,,6,,,78,127
43941,note_on,1,0,0,,4,,,76,127
44101,note_off,160,0,0,,4,,,76,127
44101,note_off,0,0,0,,8,,,68,127
44102,note_on,1,0,0,,6,,,66,127
44102,note_on,0,0,0,,3,,,75,127
44262,note_off,160,0,0,,6,,,66,127
44263,note_on,1,0,0,,4,,,64,127
44423,note_off,160,0,0,,3,,,75,127
44424,note_on,1,0,0,,1,,,73,127
44584,note_off,160,0,0,,1,,,73,127
44584,note_off,0,0,0,,4,,,64,127
44585,note_on,1,0,0,,3,,,63,127
44585,note_on,0,0,0,,12,,,71,127
44745,note_off,160,0,0,,3,,,63,127
44746,note_on,1,0,0,,1,,,61,127
44906,note_off,160,0,0,,12,,,71,127
44907,note_on,1,0,0,,11,,,70,127
45067,note_off,160,0,0,,11,,,70,127
45067,note_off,0,0,0,,1,,,61,127
45068,note_on,1,0,0,,12,,,59,127
45068,note_on,0,0,0,,8,,,68,127
45228,note_off,160,0,0,,12,,,59,127
45229,note_on,1,0,0,,11,,,58,127
45389,note_off,160,0,0,,8,,,68,127
45390,note_on,1,0,0,,6,,,66,127
45550,note_off,160,0,0,,6,,,66,127
45550,note_off,0,0,0,,11,,,58,127
45551,note_on,1,0,0,,8,,,56,127
45551,note_on,0,0,0,,4,,,64,127
45711,note_off,160,0,0,,8,,,56,127
45712,note_on,1,0,0,,6,,,54,127
45872,note_off,160,0,0,,4,,,64,127
45873,note_on,1,0,0,,3,,,63,127
46033,note_off,160,0,0,,3,,,63,127
46033,note_off,0,0,0,,6,,,54,127
46034,note_on,1,0,0,,4,,,52,127
46034,note_on,0,0,0,,1,,,61,127
46194,note_off,160,0,0,,1,,,61,127
46194,note_off,0,0,0,,4,,,52,127
46195,note_on,1,0,0,,3,,,51,127
46195,note_on,0,0,0,,12,,,59,127
46357,note_on,162,0,0,,3,,,63,127
46517,note_off,160,0,0,,3,,,63,127
46518,note_on,1,0,0,,6,,,66,127
46678,note_off,160,0,0,,6,,,66,127
46678,note_off,0,0,0,,3,,,51,127
46679,note_off,1,0,0,,12,,,59,127
46679,note_on,0,0,0,,6,,,54,127
46679,note_on,0,0,0,,12,,,71,127
46839,note_off,160,0,0,,12,,,71,127
46840,note_on,1,0,0,,3,,,75,127
47000,note_off,160,0,0,,3,,,75,127
47001,note_on,1,0,0,,6,,,78,127
47161,note_off,160,0,0,,6,,,78,127
47161,note_off,0,0,0,,6,,,54,127
47162,note_on,1,0,0,,12,,,59,127
47162,note_on,0,0,0,,12,,,83,127
47322,note_off,160,0,0,,12,,,83,127
47323,note_on,1,0,0,,6,,,78,127
47483,note_off,160,0,0,,6,,,78,127
47484,note_on,1,0,0,,11,,,82,127
47646,note_on,162,0,0,,4,,,52,127
47762,note_off,116,0,0,,11,,,82,127
47807,note_on,45,0,0,,8,,,80,127
47967,note_off,160,0,0,,8,,,80,127
47968,note_on,1,0,0,,4,,,76,127
48128,note_off,160,0,0,,4,,,52,127
48129,note_off,1,0,0,,12,,,59,127
48129,note_on,0,0,0,,3,,,63,127
48129,note_on,0,0,0,,6,,,54,127
48129,note_on,0,0,0,,12,,,59,127
48245,note_off,116,0,0,,4,,,76,127
48290,note_on,45,0,0,,3,,,75,127
48450,note_off,160,0,0,,3,,,75,127
48451,note_on,1,0,0,,12,,,71,127
48611,note_off,160,0,0,,12,,,59,127
48611,note_off,0,0,0,,6,,,54,127
48611,note_off,0,0,0,,3,,,63,127
48612,note_on,1,0,0,,4,,,64,127
48612,note_on,0,0,0,,12,,,59,127
48612,note_on,0,0,0,,1,,,61,127
48612,note_on,0,0,0,,6,,,54,127
48772,note_off,160,0,0,,12,,,71,127
48773,note_on,1,0,0,,1,,,73,127
48933,note_off,160,0,0,,1,,,73,127
48934,note_on,1,0,0,,11,,,70,127
49094,note_off,160,0,0,,6,,,54,127
49094,note_off,0,0,0,,1,,,61,127
49094,note_off,0,0,0,,12,,,59,127
49094,note_off,0,0,0,,4,,,64,127
49095,note_off,1,0,0,,11,,,70,127
49095,note_on,0,0,0,,12,,,47,127
49257,note_on,162,0,0,,12,,,71,127
49419,note_on,162,0,0,,6,,,66,127
49579,note_off,160,0,0,,6,,,66,127
49580,note_on,1,0,0,,3,,,63,127
49740,note_off,160,0,0,,3,,,63,127
49741,note_on,1,0,0,,12,,,59,127
49901,note_off,160,0,0,,12,,,59,127
49902,note_on,1,0,0,,6,,,66,127
50062,note_off,160,0,0,,6,,,66,127
50062,note_off,0,0,0,,12,,,47,127
50063,note_on,1,0,0,,6,,,42,127
50063,note_on,0,0,0,,3,,,63,127
50223,note_off,160,0,0,,3,,,63,127
50224,note_on,1,0,0,,4,,,64,127
50384,note_off,160,0,0,,4,,,64,127
50385,note_off,1,0,0,,12,,,71,127
50385,note_on,0,0,0,,11,,,70,127
50545,note_off,160,0,0,,6,,,42,127
50546,note_off,1,0,0,,11,,,70,127
50546,note_on,0,0,0,,12,,,47,127
50708,note_on,162,0,0,,12,,,71,127
50870,note_on,162,0,0,,6,,,66,127
51030,note_off,160,0,0,,6,,,66,127
51031,note_on,1,0,0,,3,,,63,127
51191,note_off,160,0,0,,3,,,63,127
51192,note_on,1,0,0,,12,,,59,127
51352,note_off,160,0,0,,12,,,59,127
51353,note_on,1,0,0,,6,,,66,127
51513,note_off,160,0,0,,6,,,66,127
51513,note_off,0,0,0,,12,,,47,127
51514,note_on,1,0,0,,6,,,42,127
51514,note_on,0,0,0,,3,,,63,127
51674,note_off,160,0,0,,3,,,63,127
51675,note_on,1,0,0,,4,,,64,127
51835,note_off,160,0,0,,4,,,64,127
51836,note_off,1,0,0,,12,,,71,127
51836,note_on,0,0,0,,11,,,70,127
51996,note_off,160,0,0,,6,,,42,127
51997,note_off,1,0,0,,11,,,70,127
51997,note_on,0,0,0,,12,,,47,127
52159,note_on,162,0,0,,12,,,71,127
52321,note_on,162,0,0,,6,,,66,127
52481,note_off,160,0,0,,6,,,66,127
52482,note_on,1,0,0,,3,,,63,127
52642,note_off,160,0,0,,3,,,63,127
52643,note_on,1,0,0,,12,,,59,127
52803,note_off,160,0,0,,12,,,59,127
52803,note_off,0,0,0,,12,,,71,127
52804,note_on,1,0,0,,6,,,66,127
52964,note_off,160,0,0,,6,,,66,127
52964,note_off,0,0,0,,12,,,47,127
52965,note_on,1,0,0,,6,,,42,127
52965,note_on,0,0,0,,3,,,63,127
53125,note_off,160,0,0,,3,,,63,127
53126,note_on,1,0,0,,4,,,64,127
53286,note_off,160,0,0,,4,,,64,127
53287,note_on,1,0,0,,4,,,76,127
53447,note_off,160,0,0,,6,,,42,127
53448,note_on,1,0,0,,12,,,47,127
53608,note_off,160,0,0,,4,,,76,127
53609,note_on,1,0,0,,3,,,75,127
53769,note_off,160,0,0,,3,,,75,127
53770,note_on,1,0,0,,6,,,78,127
53930,note_off,160,0,0,,12,,,47,127
53931,note_on,1,0,0,,1,,,49,127
54085,note_off,154,0,0,,6,,,78,127
54093,note_on,8,0,0,,11,,,70,127
54253,note_off,160,0,0,,11,,,70,127
54254,note_on,1,0,0,,1,,,73,127
54414,note_off,160,0,0,,1,,,49,127
54415,note_on,1,0,0,,3,,,51,127
54569,note_off,154,0,0,,1,,,73,127
54577,note_on,8,0,0,,12,,,71,127
54737,note_off,160,0,0,,12,,,71,127
54738,note_on,1,0,0,,12,,,83,127
54898,note_off,160,0,0,,3,,,51,127
54899,note_on,1,0,0,,4,,,52,127
55059,note_off,160,0,0,,12,,,83,127
55060,note_on,1,0,0,,8,,,80,127
55220,note_off,160,0,0,,8,,,80,127
55221,note_on,1,0,0,,4,,,76,127
55381,note_off,160,0,0,,4,,,52,127
55382,note_on,1,0,0,,6,,,54,127
55542,note_off,160,0,0,,4,,,76,127
55543,note_on,1,0,0,,3,,,75,127
55703,note_off,160,0,0,,3,,,75,127
55704,note_on,1,0,0,,12,,,71,127
55864,note_off,160,0,0,,6,,,54,127
55865,note_on,1,0,0,,6,,,42,127
56025,note_off,160,0,0,,12,,,71,127
56026,note_on,1,0,0,,1,,,73,127
56186,note_off,160,0,0,,1,,,73,127
56187,note_on,1,0,0,,11,,,70,127
56347,note_off,160,0,0,,6,,,42,127
56348,note_on,1,0,0,,8,,,56,127
56508,note_off,160,0,0,,11,,,70,127
56509,note_on,1,0,0,,12,,,71,127
56669,note_off,160,0,0,,12,,,71,127
56670,note_on,1,0,0,,4,,,64,127
56830,note_off,160,0,0,,8,,,56,127
56831,note_on,1,0,0,,11,,,58,127
56991,note_off,160,0,0,,4,,,64,127
56992,note_on,1,0,0,,6,,,66,127
57152,note_off,160,0,0,,6,,,66,127
57153,note_on,1,0,0,,1,,,61,127
57313,note_off,160,0,0,,11,,,58,127
57314,note_on,1,0,0,,12,,,59,127
57474,note_off,160,0,0,,1,,,61,127
57475,note_on,1,0,0,,3,,,63,127
57635,note_off,160,0,0,,3,,,63,127
57636,note_on,1,0,0,,7,,,67,127
57796,note_off,160,0,0,,12,,,59,127
57797,note_on,1,0,0,,4,,,52,127
57957,note_off,160,0,0,,7,,,67,127
57958,note_on,1,0,0,,8,,,68,127
58118,note_off,160,0,0,,8,,,68,127
58119,note_on,1,0,0,,4,,,64,127
58279,note_off,160,0,0,,4,,,52,127
58280,note_on,1,0,0,,6,,,54,127
58440,note_off,160,0,0,,4,,,64,127
58441,note_on,1,0,0,,3,,,63,127
58601,note_off,160,0,0,,3,,,63,127
58602,note_on,1,0,0,,12,,,59,127
58762,note_off,160,0,0,,6,,,54,127
58763,note_on,1,0,0,,6,,,42,127
58923,note_off,160,0,0,,12,,,59,127
58924,note_on,1,0,0,,1,,,61,127
59084,note_off,160,0,0,,1,,,61,127
59085,note_on,1,0,0,,11,,,58,127
59245,note_off,160,0,0,,11,,,58,127
59245,note_off,0,0,0,,6,,,42,127
59246,note_on,1,0,0,,12,,,47,127
59246,note_on,0,0,0,,11,,,58,127
59761,note_off,515,0,0,,11,,,58,127
59761,note_on,0,0,0,,12,,,59,127
60610,note_off,849,0,0,,12,,,59,127
60610,note_off,0,0,0,,12,,,47,127
60943,note_on,333,0,0,,1,,,37,127
61427,note_off,484,0,0,,1,,,37,127
61428,note_on,1,0,0,,5,,,65,127
61428,note_on,0,0,0,,12,,,71,127
61428,note_on,0,0,0,,8,,,68,127
61428,note_on,0,0,0,,1,,,37,127
61428,note_on,0,0,0,,6,,,42,127
61428,note_on,0,0,0,,8,,,44,127
61428,note_on,0,0,0,,1,,,49,127
61912,note_off,484,0,0,,1,,,49,127
61912,note_off,0,0,0,,8,,,44,127
61912,note_off,0,0,0,,6,,,42,127
61912,note_off,0,0,0,,8,,,68,127
61912,note_off,0,0,0,,12,,,71,127
61912,note_off,0,0,0,,5,,,65,127
61913,note_on,1,0,0,,6,,,66,127
61913,note_on,0,0,0,,10,,,69,127
61913,note_on,0,0,0,,0,,,48,127
62073,note_off,160,0,0,,6,,,66,127
62074,note_on,1,0,0,,3,,,63,127
62234,note_off,160,0,0,,3,,,63,127
62235,note_on,1,0,0,,0,,,60,127
62395,note_off,160,0,0,,0,,,60,127
62395,note_off,0,0,0,,0,,,48,127
62396,note_off,1,0,0,,10,,,69,127
62396,note_off,0,0,0,,1,,,37,127
62396,note_on,0,0,0,,1,,,61,127
62396,note_on,0,0,0,,1,,,37,127
62426,note_on,30,0,0,,0,,,60,127
62436,note_off,10,0,0,,1,,,61,127
62456,note_on,20,0,0,,1,,,61,127
62466,note_off,10,0,0,,0,,,60,127
62879,note_off,413,0,0,,1,,,37,127
62880,note_off,1,0,0,,1,,,61,127
62880,note_on,0,0,0,,5,,,65,127
62880,note_on,0,0,0,,12,,,71,127
62880,note_on,0,0,0,,8,,,68,127
62880,note_on,0,0,0,,1,,,37,127
62880,note_on,0,0,0,,8,,,44,127
62880,note_on,0,0,0,,1,,,49,127
62880,note_on,0,0,0,,6,,,42,127
63364,note_off,484,0,0,,6,,,42,127
63364,note_off,0,0,0,,1,,,49,127
63364,note_off,0,0,0,,8,,,44,127
63364,note_off,0,0,0,,8,,,68,127
63364,note_off,0,0,0,,12,,,71,127
63364,note_off,0,0,0,,5,,,65,127
63365,note_on,1,0,0,,10,,,69,127
63365,note_on,0,0,0,,6,,,66,127
63365,note_on,0,0,0,,0,,,48,127
63525,note_off,160,0,0,,6,,,66,127
63526,note_on,1,0,0,,3,,,63,127
63686,note_off,160,0,0,,3,,,63,127
63687,note_on,1,0,0,,0,,,60,127
63847,note_off,160,0,0,,0,,,60,127
63847,note_off,0,0,0,,0,,,48,127
63848,note_off,1,0,0,,10,,,69,127
63848,note_off,0,0,0,,1,,,37,127
63848,note_on,0,0,0,,1,,,61,127
63848,note_on,0,0,0,,1,,,37,127
63878,note_on,30,0,0,,0,,,60,127
63888,note_off,10,0,0,,1,,,61,127
63908,note_on,20,0,0,,1,,,61,127
63918,note_off,10,0,0,,0,,,60,127
64331,note_off,413,0,0,,1,,,37,127
64332,note_off,1,0,0,,1,,,61,127
64332,note_on,0,0,0,,8,,,68,127
64332,note_on,0,0,0,,5,,,65,127
64332,note_on,0,0,0,,12,,,71,127
64332,note_on,0,0,0,,1,,,37,127
64332,note_on,0,0,0,,1,,,49,127
64332,note_on,0,0,0,,6,,,42,127
64332,note_on,0,0,0,,8,,,44,127
64816,note_off,484,0,0,,8,,,44,127
64816,note_off,0,0,0,,6,,,42,127
64816,note_off,0,0,0,,1,,,49,127
64816,note_off,0,0,0,,12,,,71,127
64816,note_off,0,0,0,,5,,,65,127
64816,note_off,0,0,0,,8,,,68,127
64817,note_on,1,0,0,,10,,,69,127
64817,note_on,0,0,0,,6,,,66,127
64817,note_on,0,0,0,,0,,,48,127
64977,note_off,160,0,0,,6,,,66,127
64978,note_on,1,0,0,,3,,,63,127
65138,note_off,160,0,0,,3,,,63,127
65139,note_on,1,0,0,,0,,,60,127
65299,note_off,160,0,0,,0,,,60,127
65299,note_off,0,0,0,,0,,,48,127
65300,note_off,1,0,0,,10,,,69,127
65300,note_off,0,0,0,,1,,,37,127
65300,note_on,0,0,0,,1,,,61,127
65300,note_on,0,0,0,,1,,,37,127
65330,note_on,30,0,0,,0,,,60,127
65340,note_off,10,0,0,,1,,,61,127
65360,note_on,20,0,0,,1,,,61,127
65370,note_off,10,0,0,,0,,,60,127
65784,note_off,414,0,0,,1,,,61,127
65784,note_on,0,0,0,,0,,,72,127
65784,note_on,0,0,0,,1,,,49,127
65814,note_on,30,0,0,,12,,,71,127
65824,note_off,10,0,0,,0,,,72,127
65844,note_on,20,0,0,,0,,,72,127
65854,note_off,10,0,0,,12,,,71,127
66267,note_off,413,0,0,,1,,,37,127
66268,note_off,1,0,0,,0,,,72,127
66268,note_on,0,0,0,,1,,,73,127
66752,note_off,484,0,0,,1,,,49,127
66753,note_off,1,0,0,,1,,,73,127
66763,note_on,10,0,0,,3,,,39,127
67247,note_off,484,0,0,,3,,,39,127
67248,note_on,1,0,0,,11,,,46,127
67248,note_on,0,0,0,,8,,,44,127
67248,note_on,0,0,0,,3,,,39,127
67248,note_on,0,0,0,,3,,,51,127
67248,note_on,0,0,0,,7,,,67,127
67248,note_on,0,0,0,,1,,,73,127
67248,note_on,0,0,0,,11,,,70,127
67732,note_off,484,0,0,,11,,,70,127
67732,note_off,0,0,0,,1,,,73,127
67732,note_off,0,0,0,,7,,,67,127
67732,note_off,0,0,0,,3,,,51,127
67732,note_off,0,0,0,,8,,,44,127
67732,note_off,0,0,0,,11,,,46,127
67733,note_on,1,0,0,,2,,,50,127
67733,note_on,0,0,0,,12,,,71,127
67733,note_on,0,0,0,,8,,,68,127
67893,note_off,160,0,0,,8,,,68,127
67894,note_on,1,0,0,,5,,,65,127
68054,note_off,160,0,0,,5,,,65,127
68055,note_on,1,0,0,,2,,,62,127
68215,note_off,160,0,0,,2,,,62,127
68215,note_off,0,0,0,,2,,,50,127
68216,note_off,1,0,0,,12,,,71,127
68216,note_off,0,0,0,,3,,,39,127
68216,note_on,0,0,0,,3,,,39,127
68216,note_on,0,0,0,,3,,,63,127
68246,note_on,30,0,0,,2,,,62,127
68256,note_off,10,0,0,,3,,,63,127
68276,note_on,20,0,0,,3,,,63,127
68286,note_off,10,0,0,,2,,,62,127
68699,note_off,413,0,0,,3,,,39,127
68700,note_off,1,0,0,,3,,,63,127
68700,note_on,0,0,0,,11,,,46,127
68700,note_on,0,0,0,,8,,,44,127
68700,note_on,0,0,0,,3,,,51,127
68700,note_on,0,0,0,,3,,,39,127
68700,note_on,0,0,0,,11,,,70,127
68700,note_on,0,0,0,,7,,,67,127
68700,note_on,0,0,0,,1,,,73,127
69184,note_off,484,0,0,,1,,,73,127
69184,note_off,0,0,0,,7,,,67,127
69184,note_off,0,0,0,,11,,,70,127
69184,note_off,0,0,0,,3,,,51,127
69184,note_off,0,0,0,,8,,,44,127
69184,note_off,0,0,0,,11,,,46,127
69185,note_on,1,0,0,,2,,,50,127
69185,note_on,0,0,0,,12,,,71,127
69185,note_on,0,0,0,,8,,,68,127
69345,note_off,160,0,0,,8,,,68,127
69346,note_on,1,0,0,,5,,,65,127
69506,note_off,160,0,0,,5,,,65,127
69507,note_on,1,0,0,,2,,,62,127
69667,note_off,160,0,0,,2,,,62,127
69667,note_off,0,0,0,,2,,,50,127
69668,note_off,1,0,0,,12,,,71,127
69668,note_off,0,0,0,,3,,,39,127
69668,note_on,0,0,0,,3,,,39,127
69668,note_on,0,0,0,,3,,,63,127
69698,note_on,30,0,0,,2,,,62,127
69708,note_off,10,0,0,,3,,,63,127
69728,note_on,20,0,0,,3,,,63,127
69738,note_off,10,0,0,,2,,,62,127
70151,note_off,413,0,0,,3,,,39,127
70152,note_off,1,0,0,,3,,,63,127
70152,note_on,0,0,0,,11,,,46,127
70152,note_on,0,0,0,,8,,,44,127
70152,note_on,0,0,0,,3,,,51,127
70152,note_on,0,0,0,,3,,,39,127
70152,note_on,0,0,0,,1,,,73,127
70152,note_on,0,0,0,,7,,,67,127
70152,note_on,0,0,0,,11,,,70,127
70636,note_off,484,0,0,,11,,,70,127
70636,note_off,0,0,0,,7,,,67,127
70636,note_off,0,0,0,,1,,,73,127
70636,note_off,0,0,0,,3,,,51,127
70636,note_off,0,0,0,,8,,,44,127
70636,note_off,0,0,0,,11,,,46,127
70637,note_on,1,0,0,,2,,,50,127
70637,note_on,0,0,0,,8,,,68,127
70637,note_on,0,0,0,,12,,,71,127
70797,note_off,160,0,0,,8,,,68,127
70798,note_on,1,0,0,,5,,,65,127
70958,note_off,160,0,0,,5,,,65,127
70959,note_on,1,0,0,,2,,,62,127
71119,note_off,160,0,0,,2,,,62,127
71119,note_off,0,0,0,,2,,,50,127
71120,note_off,1,0,0,,12,,,71,127
71120,note_off,0,0,0,,3,,,39,127
71120,note_on,0,0,0,,3,,,39,127
71120,note_on,0,0,0,,3,,,63,127
71150,note_on,30,0,0,,2,,,62,127
71160,note_off,10,0,0,,3,,,63,127
71180,note_on,20,0,0,,3,,,63,127
71190,note_off,10,0,0,,2,,,62,127
71604,note_off,414,0,0,,3,,,63,127
71604,note_on,0,0,0,,3,,,51,127
71604,note_on,0,0,0,,2,,,74,127
71634,note_on,30,0,0,,1,,,73,127
71644,note_off,10,0,0,,2,,,74,127
71664,note_on,20,0,0,,2,,,74,127
71674,note_off,10,0,0,,1,,,73,127
72087,note_off,413,0,0,,3,,,39,127
72088,note_off,1,0,0,,2,,,74,127
72088,note_on,0,0,0,,3,,,75,127
72674,note_off,586,0,0,,3,,,75,127
72674,note_off,0,0,0,,3,,,51,127
73058,note_on,384,0,0,,5,,,41,127
73542,note_off,484,0,0,,5,,,41,127
73543,note_on,1,0,0,,10,,,69,127
73543,note_on,0,0,0,,3,,,75,127
73543,note_on,0,0,0,,0,,,72,127
73543,note_on,0,0,0,,11,,,46,127
73543,note_on,0,0,0,,5,,,41,127
73543,note_on,0,0,0,,0,,,48,127
73543,note_on,0,0,0,,5,,,53,127
74027,note_off,484,0,0,,5,,,53,127
74027,note_off,0,0,0,,0,,,48,127
74027,note_off,0,0,0,,11,,,46,127
74027,note_off,0,0,0,,0,,,72,127
74027,note_off,0,0,0,,3,,,75,127
74027,note_off,0,0,0,,10,,,69,127
74028,note_on,1,0,0,,11,,,70,127
74028,note_on,0,0,0,,1,,,73,127
74028,note_on,0,0,0,,4,,,52,127
74188,note_off,160,0,0,,11,,,70,127
74189,note_on,1,0,0,,7,,,67,127
74349,note_off,160,0,0,,7,,,67,127
74350,note_on,1,0,0,,4,,,64,127
74510,note_off,160,0,0,,4,,,64,127
74510,note_off,0,0,0,,4,,,52,127
74511,note_off,1,0,0,,1,,,73,127
74511,note_off,0,0,0,,5,,,41,127
74511,note_on,0,0,0,,5,,,65,127
74511,note_on,0,0,0,,5,,,41,127
74541,note_on,30,0,0,,4,,,64,127
74551,note_off,10,0,0,,5,,,65,127
74571,note_on,20,0,0,,5,,,65,127
74581,note_off,10,0,0,,4,,,64,127
74994,note_off,413,0,0,,5,,,41,127
74995,note_off,1,0,0,,5,,,65,127
74995,note_on,0,0,0,,0,,,72,127
74995,note_on,0,0,0,,10,,,69,127
74995,note_on,0,0,0,,3,,,75,127
74995,note_on,0,0,0,,5,,,41,127
74995,note_on,0,0,0,,11,,,46,127
74995,note_on,0,0,0,,0,,,48,127
74995,note_on,0,0,0,,5,,,53,127
75479,note_off,484,0,0,,5,,,53,127
75479,note_off,0,0,0,,0,,,48,127
75479,note_off,0,0,0,,11,,,46,127
75479,note_off,0,0,0,,3,,,75,127
75479,note_off,0,0,0,,10,,,69,127
75479,note_off,0,0,0,,0,,,72,127
75480,note_on,1,0,0,,1,,,73,127
75480,note_on,0,0,0,,11,,,70,127
75480,note_on,0,0,0,,4,,,52,127
75640,note_off,160,0,0,,11,,,70,127
75641,note_on,1,0,0,,7,,,67,127
75801,note_off,160,0,0,,7,,,67,127
75802,note_on,1,0,0,,4,,,64,127
75962,note_off,160,0,0,,4,,,64,127
75962,note_off,0,0,0,,4,,,52,127
75963,note_off,1,0,0,,1,,,73,127
75963,note_off,0,0,0,,5,,,41,127
75963,note_on,0,0,0,,5,,,65,127
75963,note_on,0,0,0,,5,,,41,127
75993,note_on,30,0,0,,4,,,64,127
76003,note_off,10,0,0,,5,,,65,127
76023,note_on,20,0,0,,5,,,65,127
76033,note_off,10,0,0,,4,,,64,127
76446,note_off,413,0,0,,5,,,41,127
76447,note_off,1,0,0,,5,,,65,127
76447,note_on,0,0,0,,10,,,69,127
76447,note_on,0,0,0,,3,,,75,127
76447,note_on,0,0,0,,0,,,72,127
76447,note_on,0,0,0,,5,,,41,127
76447,note_on,0,0,0,,0,,,48,127
76447,note_on,0,0,0,,11,,,46,127
76447,note_on,0,0,0,,5,,,53,127
76931,note_off,484,0,0,,5,,,53,127
76931,note_off,0,0,0,,11,,,46,127
76931,note_off,0,0,0,,0,,,48,127
76931,note_off,0,0,0,,0,,,72,127
76931,note_off,0,0,0,,3,,,75,127
76931,note_off,0,0,0,,10,,,69,127
76932,note_on,1,0,0,,1,,,73,127
76932,note_on,0,0,0,,11,,,70,127
76932,note_on,0,0,0,,4,,,52,127
77092,note_off,160,0,0,,11,,,70,127
77093,note_on,1,0,0,,7,,,67,127
77253,note_off,160,0,0,,7,,,67,127
77254,note_on,1,0,0,,4,,,64,127
77414,note_off,160,0,0,,4,,,64,127
77414,note_off,0,0,0,,4,,,52,127
77415,note_off,1,0,0,,1,,,73,127
77415,note_off,0,0,0,,5,,,41,127
77415,note_on,0,0,0,,5,,,65,127
77415,note_on,0,0,0,,5,,,41,127
77445,note_on,30,0,0,,4,,,64,127
77455,note_off,10,0,0,,5,,,65,127
77475,note_on,20,0,0,,5,,,65,127
77485,note_off,10,0,0,,4,,,64,127
77899,note_off,414,0,0,,5,,,65,127
77899,note_on,0,0,0,,4,,,76,127
77899,note_on,0,0,0,,5,,,53,127
77929,note_on,30,0,0,,3,,,75,127
77939,note_off,10,0,0,,4,,,76,127
77959,note_on,20,0,0,,4,,,76,127
77969,note_off,10,0,0,,3,,,75,127
78382,note_off,413,0,0,,5,,,41,127
78383,note_off,1,0,0,,4,,,76,127
78383,note_on,0,0,0,,5,,,77,127
79090,note_off,707,0,0,,5,,,53,127
79211,note_off,121,0,0,,5,,,77,127
79999,note_on,788,0,0,,1,,,49,127
80483,note_off,484,0,0,,1,,,49,127
80484,note_on,1,0,0,,5,,,77,127
80484,note_on,0,0,0,,1,,,61,127
80644,note_off,160,0,0,,5,,,77,127
80645,note_on,1,0,0,,1,,,73,127
80805,note_off,160,0,0,,1,,,73,127
80806,note_on,1,0,0,,8,,,68,127
80966,note_off,160,0,0,,8,,,68,127
80966,note_off,0,0,0,,1,,,61,127
80967,note_on,1,0,0,,6,,,66,127
80967,note_on,0,0,0,,8,,,56,127
81129,note_on,162,0,0,,0,,,72,127
81289,note_off,160,0,0,,0,,,72,127
81290,note_on,1,0,0,,6,,,78,127
81450,note_off,160,0,0,,8,,,56,127
81451,note_on,1,0,0,,1,,,49,127
81935,note_off,484,0,0,,1,,,49,127
81935,note_off,0,0,0,,6,,,78,127
81936,note_off,1,0,0,,6,,,66,127
81936,note_on,0,0,0,,5,,,77,127
81936,note_on,0,0,0,,1,,,61,127
82096,note_off,160,0,0,,5,,,77,127
82097,note_on,1,0,0,,1,,,73,127
82257,note_off,160,0,0,,1,,,73,127
82258,note_on,1,0,0,,8,,,68,127
82418,note_off,160,0,0,,8,,,68,127
82418,note_off,0,0,0,,1,,,61,127
82419,note_on,1,0,0,,6,,,66,127
82419,note_on,0,0,0,,8,,,56,127
82581,note_on,162,0,0,,0,,,72,127
82741,note_off,160,0,0,,0,,,72,127
82742,note_on,1,0,0,,6,,,78,127
82902,note_off,160,0,0,,8,,,56,127
82903,note_on,1,0,0,,1,,,49,127
83387,note_off,484,0,0,,1,,,49,127
83387,note_off,0,0,0,,6,,,78,127
83388,note_off,1,0,0,,6,,,66,127
83388,note_on,0,0,0,,5,,,77,127
83388,note_on,0,0,0,,8,,,56,127
83548,note_off,160,0,0,,5,,,77,127
83549,note_on,1,0,0,,11,,,70,127
83709,note_off,160,0,0,,11,,,70,127
83710,note_on,1,0,0,,1,,,73,127
83870,note_off,160,0,0,,1,,,73,127
83870,note_off,0,0,0,,8,,,56,127
83871,note_on,1,0,0,,12,,,71,127
83871,note_on,0,0,0,,1,,,61,127
84031,note_off,160,0,0,,12,,,71,127
84032,note_on,1,0,0,,8,,,68,127
84194,note_on,162,0,0,,4,,,76,127
84354,note_off,160,0,0,,1,,,61,127
84355,note_on,1,0,0,,1,,,61,127
84355,note_on,0,0,0,,6,,,54,127
84355,note_on,0,0,0,,12,,,59,127
84839,note_off,484,0,0,,12,,,59,127
84839,note_off,0,0,0,,1,,,61,127
84839,note_off,0,0,0,,4,,,76,127
84840,note_off,1,0,0,,8,,,68,127
84840,note_on,0,0,0,,6,,,78,127
84840,note_on,0,0,0,,11,,,58,127
85000,note_off,160,0,0,,6,,,78,127
85001,note_on,1,0,0,,11,,,70,127
85161,note_off,160,0,0,,11,,,70,127
85162,note_on,1,0,0,,1,,,73,127
85322,note_off,160,0,0,,1,,,73,127
85322,note_off,0,0,0,,11,,,58,127
85322,note_off,0,0,0,,6,,,54,127
85323,note_on,1,0,0,,12,,,71,127
85323,note_on,0,0,0,,6,,,54,127
85323,note_on,0,0,0,,8,,,56,127
85323,note_on,0,0,0,,12,,,59,127
85323,note_on,0,0,0,,1,,,49,127
85483,note_off,160,0,0,,12,,,71,127
85484,note_on,1,0,0,,8,,,68,127
85646,note_on,162,0,0,,5,,,77,127
85806,note_off,160,0,0,,1,,,49,127
85806,note_off,0,0,0,,12,,,59,127
85806,note_off,0,0,0,,8,,,56,127
85806,note_off,0,0,0,,6,,,54,127
85807,note_on,1,0,0,,1,,,61,127
85807,note_on,0,0,0,,12,,,59,127
85807,note_on,0,0,0,,6,,,54,127
86291,note_off,484,0,0,,12,,,59,127
86291,note_off,0,0,0,,1,,,61,127
86291,note_off,0,0,0,,5,,,77,127
86292,note_off,1,0,0,,8,,,68,127
86292,note_on,0,0,0,,6,,,78,127
86292,note_on,0,0,0,,11,,,58,127
86452,note_off,160,0,0,,6,,,78,127
86453,note_on,1,0,0,,11,,,70,127
86613,note_off,160,0,0,,11,,,70,127
86614,note_on,1,0,0,,12,,,71,127
86774,note_off,160,0,0,,12,,,71,127
86774,note_off,0,0,0,,11,,,58,127
86774,note_off,0,0,0,,6,,,54,127
86775,note_on,1,0,0,,1,,,73,127
86775,note_on,0,0,0,,11,,,58,127
86775,note_on,0,0,0,,1,,,61,127
86775,note_on,0,0,0,,6,,,54,127
86935,note_off,160,0,0,,1,,,73,127
86936,note_on,1,0,0,,11,,,70,127
87098,note_on,162,0,0,,4,,,76,127
87258,note_off,160,0,0,,6,,,54,127
87258,note_off,0,0,0,,1,,,61,127
87258,note_off,0,0,0,,11,,,58,127
87259,note_on,1,0,0,,12,,,47,127
87743,note_off,484,0,0,,4,,,76,127
87744,note_off,1,0,0,,11,,,70,127
87744,note_on,0,0,0,,3,,,75,127
87744,note_on,0,0,0,,12,,,59,127
87904,note_off,160,0,0,,3,,,75,127
87905,note_on,1,0,0,,12,,,71,127
88065,note_off,160,0,0,,12,,,71,127
88066,note_on,1,0,0,,6,,,78,127
88226,note_off,160,0,0,,6,,,78,127
88226,note_off,0,0,0,,12,,,59,127
88226,note_off,0,0,0,,12,,,47,127
88227,note_on,1,0,0,,4,,,76,127
88227,note_on,0,0,0,,6,,,54,127
88387,note_off,160,0,0,,4,,,76,127
88388,note_on,1,0,0,,1,,,73,127
88550,note_on,162,0,0,,11,,,82,127
88710,note_off,160,0,0,,6,,,54,127
88711,note_on,1,0,0,,12,,,47,127
89195,note_off,484,0,0,,11,,,82,127
89196,note_off,1,0,0,,1,,,73,127
89196,note_on,0,0,0,,12,,,83,127
89196,note_on,0,0,0,,12,,,59,127
89356,note_off,160,0,0,,12,,,83,127
89357,note_on,1,0,0,,3,,,75,127
89517,note_off,160,0,0,,3,,,75,127
89518,note_on,1,0,0,,6,,,78,127
89678,note_off,160,0,0,,6,,,78,127
89678,note_off,0,0,0,,12,,,59,127
89678,note_off,0,0,0,,12,,,47,127
89679,note_on,1,0,0,,4,,,76,127
89679,note_on,0,0,0,,6,,,54,127
89839,note_off,160,0,0,,4,,,76,127
89840,note_on,1,0,0,,1,,,73,127
90002,note_on,162,0,0,,11,,,82,127
90162,note_off,160,0,0,,6,,,54,127
90163,note_on,1,0,0,,12,,,47,127
90647,note_off,484,0,0,,11,,,82,127
90648,note_off,1,0,0,,1,,,73,127
90648,note_on,0,0,0,,12,,,83,127
90648,note_on,0,0,0,,12,,,59,127
90808,note_off,160,0,0,,12,,,83,127
90809,note_on,1,0,0,,3,,,75,127
90969,note_off,160,0,0,,3,,,75,127
90970,note_on,1,0,0,,6,,,78,127
91130,note_off,160,0,0,,6,,,78,127
91130,note_off,0,0,0,,12,,,59,127
91130,note_off,0,0,0,,12,,,47,127
91131,note_on,1,0,0,,4,,,76,127
91131,note_on,0,0,0,,6,,,54,127
91291,note_off,160,0,0,,4,,,76,127
91292,note_on,1,0,0,,1,,,73,127
91452,note_off,160,0,0,,1,,,73,127
91453,note_on,1,0,0,,11,,,82,127
91613,note_off,160,0,0,,11,,,82,127
91613,note_off,0,0,0,,6,,,54,127
91614,note_on,1,0,0,,12,,,83,127
91614,note_on,0,0,0,,12,,,47,127
91774,note_off,160,0,0,,12,,,83,127
91775,note_on,1,0,0,,6,,,78,127
91935,note_off,160,0,0,,6,,,78,127
91936,note_on,1,0,0,,3,,,75,127
92096,note_off,160,0,0,,3,,,75,127
92097,note_on,1,0,0,,12,,,71,127
92257,note_off,160,0,0,,12,,,71,127
92258,note_on,1,0,0,,6,,,66,127
92418,note_off,160,0,0,,6,,,66,127
92419,note_on,1,0,0,,3,,,63,127
92579,note_off,160,0,0,,3,,,63,127
92580,note_on,1,0,0,,12,,,59,127
92740,note_off,160,0,0,,12,,,59,127
92741,note_on,1,0,0,,6,,,54,127
92832,note_off,91,0,0,,12,,,47,127
92903,note_off,71,0,0,,6,,,54,127
92903,note_on,0,0,0,,12,,,47,127
93063,note_off,160,0,0,,12,,,47,127
93064,note_on,1,0,0,,12,,,35,127
94337,note_off,1273,0,0,,12,,,35,127
94600,note_on,263,0,0,,12,,,59,127
95084,note_off,484,0,0,,12,,,59,127
95085,note_on,1,0,0,,2,,,62,127
95245,note_off,160,0,0,,2,,,62,127
95246,note_on,1,0,0,,0,,,60,127
95569,note_on,323,0,0,,10,,,57,127
95569,note_on,0,0,0,,12,,,47,127
96053,note_off,484,0,0,,0,,,60,127
96054,note_on,1,0,0,,12,,,59,127
96054,note_on,0,0,0,,4,,,64,127
96214,note_off,160,0,0,,4,,,64,127
96215,note_on,1,0,0,,3,,,63,127
96537,note_off,322,0,0,,3,,,63,127
96537,note_off,0,0,0,,12,,,47,127
96537,note_off,0,0,0,,10,,,57,127
96538,note_on,1,0,0,,4,,,64,127
96538,note_on,0,0,0,,7,,,55,127
96538,note_on,0,0,0,,4,,,52,127
96538,note_on,0,0,0,,12,,,47,127
97022,note_off,484,0,0,,4,,,52,127
97022,note_off,0,0,0,,7,,,55,127
97022,note_off,0,0,0,,4,,,64,127
97023,note_off,1,0,0,,12,,,59,127
97023,note_on,0,0,0,,6,,,66,127
97023,note_on,0,0,0,,10,,,57,127
97023,note_on,0,0,0,,6,,,54,127
97023,note_on,0,0,0,,4,,,52,127
97183,note_off,160,0,0,,6,,,66,127
97184,note_on,1,0,0,,7,,,67,127
97344,note_off,160,0,0,,7,,,67,127
97345,note_on,1,0,0,,10,,,69,127
97505,note_off,160,0,0,,10,,,69,127
97505,note_off,0,0,0,,4,,,52,127
97505,note_off,0,0,0,,6,,,54,127
97505,note_off,0,0,0,,10,,,57,127
97506,note_off,1,0,0,,12,,,47,127
97506,note_on,0,0,0,,10,,,69,127
97506,note_on,0,0,0,,4,,,52,127
97506,note_on,0,0,0,,4,,,40,127
97587,note_off,81,0,0,,10,,,69,127
97587,note_on,0,0,0,,7,,,67,127
97668,note_off,81,0,0,,7,,,67,127
97668,note_on,0,0,0,,6,,,66,127
97828,note_off,160,0,0,,6,,,66,127
97829,note_on,1,0,0,,4,,,64,127
97989,note_off,160,0,0,,4,,,64,127
97990,note_on,1,0,0,,7,,,67,127
98150,note_off,160,0,0,,7,,,67,127
98151,note_on,1,0,0,,5,,,65,127
98231,note_off,80,0,0,,4,,,40,127
98231,note_off,0,0,0,,4,,,52,127
98475,note_on,244,0,0,,2,,,62,127
98475,note_on,0,0,0,,4,,,52,127
98959,note_off,484,0,0,,5,,,65,127
98960,note_on,1,0,0,,4,,,64,127
98960,note_on,0,0,0,,10,,,69,127
99120,note_off,160,0,0,,10,,,69,127
99121,note_on,1,0,0,,8,,,68,127
99443,note_off,322,0,0,,8,,,68,127
99443,note_off,0,0,0,,4,,,52,127
99443,note_off,0,0,0,,2,,,62,127
99444,note_on,1,0,0,,10,,,69,127
99444,note_on,0,0,0,,0,,,60,127
99444,note_on,0,0,0,,10,,,57,127
99444,note_on,0,0,0,,4,,,52,127
99928,note_off,484,0,0,,4,,,52,127
99928,note_off,0,0,0,,10,,,57,127
99928,note_off,0,0,0,,0,,,60,127
99928,note_off,0,0,0,,10,,,69,127
99929,note_off,1,0,0,,4,,,64,127
99929,note_on,0,0,0,,12,,,71,127
99929,note_on,0,0,0,,2,,,62,127
99929,note_on,0,0,0,,12,,,59,127
99929,note_on,0,0,0,,4,,,52,127
99929,note_on,0,0,0,,10,,,57,127
100089,note_off,160,0,0,,12,,,71,127
100090,note_on,1,0,0,,0,,,72,127
100250,note_off,160,0,0,,0,,,72,127
100251,note_on,1,0,0,,2,,,74,127
100411,note_off,160,0,0,,2,,,74,127
100411,note_off,0,0,0,,10,,,57,127
100411,note_off,0,0,0,,4,,,52,127
100411,note_off,0,0,0,,12,,,59,127
100411,note_off,0,0,0,,2,,,62,127
100412,note_on,1,0,0,,2,,,74,127
100412,note_on,0,0,0,,10,,,45,127
100896,note_off,484,0,0,,10,,,45,127
100897,note_off,1,0,0,,2,,,74,127
100897,note_on,0,0,0,,2,,,74,127
100897,note_on,0,0,0,,0,,,72,127
100897,note_on,0,0,0,,10,,,33,127
101057,note_off,160,0,0,,0,,,72,127
101057,note_off,0,0,0,,2,,,74,127
101058,note_on,1,0,0,,12,,,71,127
101218,note_off,160,0,0,,12,,,71,127
101219,note_on,1,0,0,,10,,,69,127
101603,note_off,384,0,0,,10,,,69,127
101603,note_off,0,0,0,,10,,,33,127
102512,note_on,909,0,0,,10,,,45,127
102997,note_on,485,0,0,,5,,,65,127
102997,note_on,0,0,0,,10,,,69,127
102997,note_on,0,0,0,,0,,,72,127
102997,note_on,0,0,0,,10,,,57,127
102997,note_on,0,0,0,,5,,,53,127
103481,note_off,484,0,0,,0,,,72,127
103481,note_off,0,0,0,,10,,,69,127
103482,note_off,1,0,0,,10,,,45,127
103482,note_on,0,0,0,,12,,,71,127
103482,note_on,0,0,0,,12,,,47,127
103642,note_off,160,0,0,,12,,,71,127
103643,note_on,1,0,0,,10,,,69,127
103803,note_off,160,0,0,,10,,,69,127
103804,note_on,1,0,0,,8,,,68,127
103964,note_off,160,0,0,,8,,,68,127
103964,note_off,0,0,0,,12,,,47,127
103965,note_on,1,0,0,,10,,,69,127
103965,note_on,0,0,0,,0,,,48,127
104127,note_off,162,0,0,,5,,,65,127
104127,note_on,0,0,0,,4,,,64,127
104287,note_off,160,0,0,,4,,,64,127
104288,note_on,1,0,0,,3,,,63,127
104448,note_off,160,0,0,,3,,,63,127
104448,note_off,0,0,0,,0,,,48,127
104449,note_off,1,0,0,,5,,,53,127
104449,note_off,0,0,0,,10,,,57,127
104449,note_on,0,0,0,,4,,,64,127
104449,note_on,0,0,0,,6,,,54,127
104449,note_on,0,0,0,,4,,,52,127
104449,note_on,0,0,0,,10,,,57,127
104449,note_on,0,0,0,,0,,,48,127
104609,note_off,160,0,0,,4,,,64,127
104610,note_off,1,0,0,,10,,,69,127
104610,note_on,0,0,0,,7,,,67,127
104770,note_off,160,0,0,,7,,,67,127
104771,note_on,1,0,0,,10,,,69,127
104931,note_off,160,0,0,,10,,,69,127
104931,note_off,0,0,0,,0,,,48,127
104931,note_off,0,0,0,,10,,,57,127
104931,note_off,0,0,0,,4,,,52,127
104931,note_off,0,0,0,,6,,,54,127
104932,note_on,1,0,0,,12,,,71,127
104932,note_on,0,0,0,,3,,,63,127
104932,note_on,0,0,0,,12,,,47,127
104932,note_on,0,0,0,,12,,,59,127
105416,note_off,484,0,0,,12,,,59,127
105416,note_off,0,0,0,,12,,,47,127
105417,note_off,1,0,0,,3,,,63,127
105417,note_off,0,0,0,,12,,,71,127
105417,note_on,0,0,0,,10,,,45,127
105902,note_on,485,0,0,,0,,,72,127
105902,note_on,0,0,0,,5,,,65,127
105902,note_on,0,0,0,,10,,,69,127
105902,note_on,0,0,0,,5,,,53,127
105902,note_on,0,0,0,,10,,,57,127
106386,note_off,484,0,0,,10,,,69,127
106386,note_off,0,0,0,,0,,,72,127
106387,note_off,1,0,0,,10,,,45,127
106387,note_on,0,0,0,,12,,,71,127
106387,note_on,0,0,0,,12,,,47,127
106547,note_off,160,0,0,,12,,,71,127
106548,note_on,1,0,0,,10,,,69,127
106708,note_off,160,0,0,,10,,,69,127
106709,note_on,1,0,0,,8,,,68,127
106869,note_off,160,0,0,,8,,,68,127
106869,note_off,0,0,0,,12,,,47,127
106870,note_on,1,0,0,,10,,,69,127
106870,note_on,0,0,0,,0,,,48,127
107032,note_off,162,0,0,,5,,,65,127
107032,note_on,0,0,0,,4,,,64,127
107192,note_off,160,0,0,,4,,,64,127
107193,note_on,1,0,0,,3,,,63,127
107353,note_off,160,0,0,,3,,,63,127
107353,note_off,0,0,0,,0,,,48,127
107354,note_off,1,0,0,,10,,,57,127
107354,note_off,0,0,0,,5,,,53,127
107354,note_on,0,0,0,,4,,,64,127
107354,note_on,0,0,0,,10,,,57,127
107354,note_on,0,0,0,,0,,,48,127
107354,note_on,0,0,0,,4,,,52,127
107354,note_on,0,0,0,,6,,,54,127
107514,note_off,160,0,0,,4,,,64,127
107515,note_off,1,0,0,,10,,,69,127
107515,note_on,0,0,0,,7,,,67,127
107675,note_off,160,0,0,,7,,,67,127
107676,note_on,1,0,0,,10,,,69,127
107836,note_off,160,0,0,,10,,,69,127
107836,note_off,0,0,0,,6,,,54,127
107836,note_off,0,0,0,,4,,,52,127
107836,note_off,0,0,0,,0,,,48,127
107836,note_off,0,0,0,,10,,,57,127
107837,note_on,1,0,0,,3,,,63,127
107837,note_on,0,0,0,,12,,,71,127
107837,note_on,0,0,0,,12,,,59,127
107837,note_on,0,0,0,,12,,,47,127
108321,note_off,484,0,0,,12,,,47,127
108321,note_off,0,0,0,,12,,,59,127
108322,note_off,1,0,0,,12,,,71,127
108322,note_off,0,0,0,,3,,,63,127
108322,note_on,0,0,0,,10,,,45,127
108807,note_on,485,0,0,,0,,,72,127
108807,note_on,0,0,0,,5,,,65,127
108807,note_on,0,0,0,,10,,,69,127
108807,note_on,0,0,0,,10,,,57,127
108807,note_on,0,0,0,,5,,,53,127
109291,note_off,484,0,0,,10,,,69,127
109291,note_off,0,0,0,,0,,,72,127
109292,note_off,1,0,0,,10,,,45,127
109292,note_on,0,0,0,,12,,,71,127
109292,note_on,0,0,0,,12,,,47,127
109452,note_off,160,0,0,,12,,,71,127
109453,note_on,1,0,0,,10,,,69,127
109613,note_off,160,0,0,,10,,,69,127
109614,note_on,1,0,0,,8,,,68,127
109774,note_off,160,0,0,,8,,,68,127
109774,note_off,0,0,0,,12,,,47,127
109775,note_on,1,0,0,,10,,,69,127
109775,note_on,0,0,0,,0,,,48,127
109937,note_off,162,0,0,,5,,,65,127
109937,note_on,0,0,0,,4,,,64,127
110097,note_off,160,0,0,,4,,,64,127
110098,note_on,1,0,0,,3,,,63,127
110258,note_off,160,0,0,,3,,,63,127
110258,note_off,0,0,0,,0,,,48,127
110259,note_off,1,0,0,,5,,,53,127
110259,note_off,0,0,0,,10,,,57,127
110259,note_on,0,0,0,,4,,,64,127
110259,note_on,0,0,0,,10,,,57,127
110259,note_on,0,0,0,,4,,,52,127
110259,note_on,0,0,0,,6,,,54,127
110259,note_on,0,0,0,,0,,,48,127
110419,note_off,160,0,0,,4,,,64,127
110420,note_off,1,0,0,,10,,,69,127
110420,note_on,0,0,0,,7,,,67,127
110580,note_off,160,0,0,,7,,,67,127
110581,note_on,1,0,0,,10,,,69,127
110741,note_off,160,0,0,,10,,,69,127
110741,note_off,0,0,0,,0,,,48,127
110741,note_off,0,0,0,,6,,,54,127
110741,note_off,0,0,0,,4,,,52,127
110741,note_off,0,0,0,,10,,,57,127
110742,note_on,1,0,0,,3,,,63,127
110742,note_on,0,0,0,,12,,,71,127
110742,note_on,0,0,0,,12,,,59,127
110742,note_on,0,0,0,,12,,,47,127
111409,note_off,667,0,0,,12,,,47,127
111409,note_off,0,0,0,,12,,,59,127
111409,note_off,0,0,0,,12,,,71,127
111409,note_off,0,0,0,,3,,,63,127
112197,note_on,788,0,0,,12,,,71,127
112359,note_on,162,0,0,,6,,,78,127
112359,note_on,0,0,0,,3,,,75,127
112519,note_off,160,0,0,,12,,,71,127
112520,note_on,1,0,0,,10,,,69,127
112674,note_off,154,0,0,,3,,,75,127
112674,note_off,0,0,0,,6,,,78,127
112680,note_off,6,0,0,,10,,,69,127
112681,note_on,1,0,0,,8,,,68,127
112843,note_on,162,0,0,,8,,,80,127
112843,note_on,0,0,0,,4,,,76,127
113003,note_off,160,0,0,,8,,,68,127
113004,note_on,1,0,0,,6,,,66,127
113158,note_off,154,0,0,,4,,,76,127
113158,note_off,0,0,0,,8,,,80,127
113164,note_off,6,0,0,,6,,,66,127
113165,note_on,1,0,0,,4,,,64,127
113327,note_on,162,0,0,,8,,,80,127
113327,note_on,0,0,0,,12,,,83,127
113487,note_off,160,0,0,,4,,,64,127
113488,note_on,1,0,0,,3,,,63,127
113642,note_off,154,0,0,,12,,,83,127
113642,note_off,0,0,0,,8,,,80,127
113648,note_off,6,0,0,,3,,,63,127
113649,note_on,1,0,0,,1,,,61,127
113811,note_on,162,0,0,,10,,,81,127
113811,note_on,0,0,0,,1,,,85,127
113971,note_off,160,0,0,,1,,,61,127
113972,note_on,1,0,0,,12,,,59,127
114126,note_off,154,0,0,,1,,,85,127
114126,note_off,0,0,0,,10,,,81,127
114132,note_off,6,0,0,,12,,,59,127
114133,note_on,1,0,0,,10,,,57,127
114295,note_on,162,0,0,,1,,,73,127
114295,note_on,0,0,0,,10,,,69,127
114455,note_off,160,0,0,,10,,,57,127
114456,note_on,1,0,0,,8,,,56,127
114610,note_off,154,0,0,,10,,,69,127
114610,note_off,0,0,0,,1,,,73,127
114616,note_off,6,0,0,,8,,,56,127
114617,note_on,1,0,0,,6,,,54,127
114779,note_on,162,0,0,,3,,,75,127
114779,note_on,0,0,0,,10,,,69,127
114939,note_off,160,0,0,,6,,,54,127
114940,note_on,1,0,0,,4,,,52,127
115094,note_off,154,0,0,,10,,,69,127
115094,note_off,0,0,0,,3,,,75,127
115100,note_off,6,0,0,,4,,,52,127
115101,note_on,1,0,0,,3,,,51,127
115263,note_on,162,0,0,,10,,,69,127
115263,note_on,0,0,0,,6,,,78,127
115423,note_off,160,0,0,,3,,,51,127
115424,note_on,1,0,0,,1,,,49,127
115578,note_off,154,0,0,,6,,,78,127
115578,note_off,0,0,0,,10,,,69,127
115584,note_off,6,0,0,,1,,,49,127
115585,note_on,1,0,0,,12,,,47,127
115747,note_on,162,0,0,,3,,,75,127
115747,note_on,0,0,0,,6,,,78,127
115907,note_off,160,0,0,,12,,,47,127
115908,note_on,1,0,0,,10,,,45,127
116062,note_off,154,0,0,,6,,,78,127
116062,note_off,0,0,0,,3,,,75,127
116068,note_off,6,0,0,,10,,,45,127
116069,note_on,1,0,0,,8,,,44,127
116231,note_on,162,0,0,,8,,,80,127
116231,note_on,0,0,0,,12,,,83,127
116391,note_off,160,0,0,,8,,,44,127
116392,note_on,1,0,0,,6,,,42,127
116546,note_off,154,0,0,,12,,,83,127
116546,note_off,0,0,0,,8,,,80,127
116552,note_off,6,0,0,,6,,,42,127
116553,note_on,1,0,0,,4,,,40,127
116715,note_on,162,0,0,,12,,,83,127
116875,note_off,160,0,0,,12,,,83,127
116876,note_on,1,0,0,,10,,,81,127
117036,note_off,160,0,0,,4,,,40,127
117037,note_on,1,0,0,,6,,,42,127
117197,note_off,160,0,0,,10,,,81,127
117198,note_on,1,0,0,,8,,,80,127
117358,note_off,160,0,0,,8,,,80,127
117359,note_on,1,0,0,,6,,,78,127
117519,note_off,160,0,0,,6,,,42,127
117520,note_on,1,0,0,,8,,,44,127
117680,note_off,160,0,0,,6,,,78,127
117681,note_on,1,0,0,,4,,,76,127
117841,note_off,160,0,0,,4,,,76,127
117842,note_on,1,0,0,,3,,,75,127
118002,note_off,160,0,0,,8,,,44,127
118003,note_on,1,0,0,,10,,,45,127
118163,note_off,160,0,0,,3,,,75,127
118164,note_on,1,0,0,,1,,,73,127
118324,note_off,160,0,0,,1,,,73,127
118325,note_on,1,0,0,,12,,,71,127
118485,note_off,160,0,0,,10,,,45,127
118486,note_on,1,0,0,,12,,,47,127
118646,note_off,160,0,0,,12,,,71,127
118647,note_on,1,0,0,,10,,,69,127
118807,note_off,160,0,0,,10,,,69,127
118808,note_on,1,0,0,,8,,,68,127
118968,note_off,160,0,0,,12,,,47,127
118969,note_on,1,0,0,,1,,,49,127
119129,note_off,160,0,0,,8,,,68,127
119130,note_on,1,0,0,,6,,,66,127
119290,note_off,160,0,0,,6,,,66,127
119291,note_on,1,0,0,,4,,,64,127
119451,note_off,160,0,0,,4,,,64,127
119451,note_off,0,0,0,,1,,,49,127
119452,note_on,1,0,0,,12,,,47,127
119452,note_on,0,0,0,,4,,,64,127
119936,note_off,484,0,0,,12,,,47,127
119937,note_on,1,0,0,,12,,,59,127
120097,note_off,160,0,0,,4,,,64,127
120098,note_on,1,0,0,,3,,,63,127
120258,note_off,160,0,0,,3,,,63,127
120259,note_on,1,0,0,,6,,,66,127
120419,note_off,160,0,0,,6,,,66,127
120419,note_off,0,0,0,,12,,,59,127
120420,note_on,1,0,0,,8,,,56,127
120420,note_on,0,0,0,,4,,,64,127
120580,note_off,160,0,0,,4,,,64,127
120581,note_on,1,0,0,,8,,,68,127
120741,note_off,160,0,0,,8,,,68,127
120742,note_on,1,0,0,,12,,,71,127
120902,note_off,160,0,0,,12,,,71,127
120902,note_off,0,0,0,,8,,,56,127
120903,note_on,1,0,0,,10,,,57,127
120903,note_on,0,0,0,,1,,,73,127
121063,note_off,160,0,0,,1,,,73,127
121064,note_on,1,0,0,,6,,,66,127
121224,note_off,160,0,0,,6,,,66,127
121225,note_on,1,0,0,,10,,,69,127
121385,note_off,160,0,0,,10,,,69,127
121385,note_off,0,0,0,,10,,,57,127
121386,note_on,1,0,0,,12,,,59,127
121386,note_on,0,0,0,,8,,,68,127
121546,note_off,160,0,0,,8,,,68,127
121547,note_on,1,0,0,,12,,,71,127
121707,note_off,160,0,0,,12,,,71,127
121708,note_on,1,0,0,,4,,,64,127
121868,note_off,160,0,0,,4,,,64,127
121869,note_on,1,0,0,,12,,,47,127
121869,note_on,0,0,0,,8,,,68,127
121869,note_on,0,0,0,,6,,,66,127
122029,note_off,160,0,0,,6,,,66,127
122029,note_off,0,0,0,,8,,,68,127
122030,note_on,1,0,0,,4,,,64,127
122110,note_off,80,0,0,,12,,,59,127
122191,note_off,81,0,0,,4,,,64,127
122192,note_on,1,0,0,,3,,,63,127
122352,note_off,160,0,0,,12,,,47,127
122353,note_off,1,0,0,,3,,,63,127
122353,note_on,0,0,0,,4,,,40,127
122515,note_on,162,0,0,,4,,,76,127
122677,note_on,162,0,0,,12,,,71,127
122837,note_off,160,0,0,,12,,,71,127
122838,note_on,1,0,0,,8,,,68,127
122998,note_off,160,0,0,,8,,,68,127
122999,note_on,1,0,0,,4,,,64,127
123159,note_off,160,0,0,,4,,,64,127
123160,note_on,1,0,0,,12,,,71,127
123320,note_off,160,0,0,,12,,,71,127
123320,note_off,0,0,0,,4,,,40,127
123321,note_on,1,0,0,,12,,,47,127
123321,note_on,0,0,0,,8,,,68,127
123481,note_off,160,0,0,,8,,,68,127
123482,note_on,1,0,0,,10,,,69,127
123642,note_off,160,0,0,,10,,,69,127
123643,note_off,1,0,0,,4,,,76,127
123643,note_on,0,0,0,,3,,,75,127
123803,note_off,160,0,0,,12,,,47,127
123804,note_off,1,0,0,,3,,,75,127
123804,note_on,0,0,0,,4,,,40,127
123966,note_on,162,0,0,,4,,,76,127
124128,note_on,162,0,0,,12,,,71,127
124288,note_off,160,0,0,,12,,,71,127
124289,note_on,1,0,0,,8,,,68,127
124449,note_off,160,0,0,,8,,,68,127
124450,note_on,1,0,0,,4,,,64,127
124610,note_off,160,0,0,,4,,,64,127
124611,note_on,1,0,0,,12,,,71,127
124771,note_off,160,0,0,,12,,,71,127
124771,note_off,0,0,0,,4,,,40,127
124772,note_on,1,0,0,,12,,,47,127
124772,note_on,0,0,0,,8,,,68,127
124932,note_off,160,0,0,,8,,,68,127
124933,note_on,1,0,0,,10,,,69,127
125093,note_off,160,0,0,,10,,,69,127
125094,note_off,1,0,0,,4,,,76,127
125094,note_on,0,0,0,,3,,,75,127
125254,note_off,160,0,0,,12,,,47,127
125255,note_off,1,0,0,,3,,,75,127
125255,note_on,0,0,0,,4,,,40,127
125417,note_on,162,0,0,,4,,,76,127
125579,note_on,162,0,0,,12,,,71,127
125739,note_off,160,0,0,,12,,,71,127
125740,note_on,1,0,0,,8,,,68,127
125900,note_off,160,0,0,,8,,,68,127
125901,note_on,1,0,0,,4,,,64,127
126061,note_off,160,0,0,,4,,,64,127
126062,note_on,1,0,0,,12,,,71,127
126222,note_off,160,0,0,,12,,,71,127
126222,note_off,0,0,0,,4,,,40,127
126223,note_off,1,0,0,,4,,,76,127
126223,note_on,0,0,0,,12,,,47,127
126223,note_on,0,0,0,,8,,,68,127
126383,note_off,160,0,0,,8,,,68,127
126384,note_on,1,0,0,,10,,,69,127
126544,note_off,160,0,0,,10,,,69,127
126545,note_on,1,0,0,,10,,,81,127
126705,note_off,160,0,0,,12,,,47,127
126706,note_on,1,0,0,,4,,,52,127
126866,note_off,160,0,0,,10,,,81,127
126867,note_on,1,0,0,,8,,,80,127
127027,note_off,160,0,0,,8,,,80,127
127028,note_on,1,0,0,,12,,,83,127
127188,note_off,160,0,0,,4,,,52,127
127189,note_on,1,0,0,,6,,,54,127
127349,note_off,160,0,0,,12,,,83,127
127350,note_on,1,0,0,,3,,,75,127
127510,note_off,160,0,0,,3,,,75,127
127511,note_on,1,0,0,,6,,,78,127
127671,note_off,160,0,0,,6,,,54,127
127672,note_on,1,0,0,,8,,,56,127
127832,note_off,160,0,0,,6,,,78,127
127833,note_on,1,0,0,,4,,,76,127
127993,note_off,160,0,0,,4,,,76,127
127994,note_on,1,0,0,,0,,,72,127
128154,note_off,160,0,0,,8,,,56,127
128155,note_on,1,0,0,,10,,,57,127
128315,note_off,160,0,0,,0,,,72,127
128316,note_on,1,0,0,,1,,,73,127
128476,note_off,160,0,0,,1,,,73,127
128477,note_on,1,0,0,,10,,,69,127
128637,note_off,160,0,0,,10,,,57,127
128638,note_on,1,0,0,,12,,,59,127
128798,note_off,160,0,0,,10,,,69,127
128799,note_on,1,0,0,,8,,,68,127
128959,note_off,160,0,0,,8,,,68,127
128960,note_on,1,0,0,,4,,,64,127
129120,note_off,160,0,0,,12,,,59,127
129121,note_on,1,0,0,,12,,,47,127
129281,note_off,160,0,0,,4,,,64,127
129282,note_on,1,0,0,,6,,,66,127
129442,note_off,160,0,0,,6,,,66,127
129443,note_on,1,0,0,,3,,,63,127
129603,note_off,160,0,0,,12,,,47,127
129604,note_on,1,0,0,,1,,,49,127
129764,note_off,160,0,0,,3,,,63,127
129765,note_on,1,0,0,,4,,,64,127
129925,note_off,160,0,0,,4,,,64,127
129926,note_on,1,0,0,,10,,,57,127
130086,note_off,160,0,0,,1,,,49,127
130087,note_on,1,0,0,,3,,,51,127
130247,note_off,160,0,0,,10,,,57,127
130248,note_on,1,0,0,,12,,,59,127
130408,note_off,160,0,0,,12,,,59,127
130409,note_on,1,0,0,,6,,,54,127
130569,note_off,160,0,0,,3,,,51,127
130570,note_on,1,0,0,,4,,,52,127
130730,note_off,160,0,0,,6,,,54,127
130731,note_on,1,0,0,,8,,,56,127
130891,note_off,160,0,0,,8,,,56,127
130892,note_on,1,0,0,,0,,,60,127
131052,note_off,160,0,0,,4,,,52,127
131053,note_on,1,0,0,,10,,,45,127
131213,note_off,160,0,0,,0,,,60,127
131214,note_on,1,0,0,,1,,,61,127
131374,note_off,160,0,0,,1,,,61,127
131375,note_on,1,0,0,,10,,,57,127
131535,note_off,160,0,0,,10,,,45,127
131536,note_on,1,0,0,,12,,,47,127
131696,note_off,160,0,0,,10,,,57,127
131697,note_on,1,0,0,,8,,,56,127
131857,note_off,160,0,0,,8,,,56,127
131858,note_on,1,0,0,,4,,,64,127
132018,note_off,160,0,0,,12,,,47,127
132019,note_on,1,0,0,,12,,,35,127
132179,note_off,160,0,0,,4,,,64,127
132180,note_on,1,0,0,,6,,,54,127
132340,note_off,160,0,0,,6,,,54,127
132341,note_on,1,0,0,,3,,,63,127
132501,note_off,160,0,0,,3,,,63,127
132501,note_off,0,0,0,,12,,,35,127
132502,note_on,1,0,0,,4,,,40,127
132502,note_on,0,0,0,,3,,,63,127
133169,note_off,667,0,0,,3,,,63,127
133169,note_on,0,0,0,,4,,,64,127
134907,note_off,1738,0,0,,4,,,64,127
134907,note_off,0,0,0,,4,,,40,127
136704,end_of_track,1797,1,0,,,,,,
