tick,type,time,meta,track,program,channel,pitch,tempo,note,velocity
0,copyright,0,1,0,,,,,,
0,program_change,0,0,0,6,0,,,,
0,pitchwheel,0,0,0,,0,0,,,
0,program_change,0,0,0,6,1,,,,
0,pitchwheel,0,0,0,,1,-590,,,
0,program_change,0,0,0,6,2,,,,
0,pitchwheel,0,0,0,,2,-272,,,
0,program_change,0,0,0,6,3,,,,
0,pitchwheel,0,0,0,,3,-353,,,
0,program_change,0,0,0,6,4,,,,
0,pitchwheel,0,0,0,,4,-560,,,
0,program_change,0,0,0,6,5,,,,
0,pitchwheel,0,0,0,,5,-80,,,
0,program_change,0,0,0,6,6,,,,
0,pitchwheel,0,0,0,,6,-625,,,
0,program_change,0,0,0,6,7,,,,
0,pitchwheel,0,0,0,,7,-130,,,
0,program_change,0,0,0,6,8,,,,
0,pitchwheel,0,0,0,,8,-512,,,
0,program_change,0,0,0,6,10,,,,
0,pitchwheel,0,0,0,,10,-464,,,
0,program_change,0,0,0,6,11,,,,
0,pitchwheel,0,0,0,,11,-208,,,
0,program_change,0,0,0,6,12,,,,
0,pitchwheel,0,0,0,,12,-553,,,
0,set_tempo,0,1,0,,,,500000,,
96,note_on,96,0,0,,4,,,52,127
96,note_on,0,0,0,,4,,,40,127
480,note_on,384,0,0,,8,,,80,127
480,note_on,0,0,0,,12,,,83,127
863,note_off,383,0,0,,12,,,83,127
863,note_off,0,0,0,,8,,,80,127
864,note_on,1,0,0,,8,,,80,127
864,note_on,0,0,0,,4,,,76,127
1247,note_off,383,0,0,,4,,,76,127
1247,note_off,0,0,0,,8,,,80,127
1248,note_on,1,0,0,,8,,,80,127
1248,note_on,0,0,0,,12,,,83,127
1439,note_off,191,0,0,,4,,,40,127
1439,note_off,0,0,0,,4,,,52,127
1440,note_on,1,0,0,,4,,,64,127
1631,note_off,191,0,0,,4,,,64,127
1632,note_on,1,0,0,,8,,,68,127
1823,note_off,191,0,0,,8,,,68,127
1823,note_off,0,0,0,,12,,,83,127
1823,note_off,0,0,0,,8,,,80,127
1824,note_on,1,0,0,,12,,,83,127
1824,note_on,0,0,0,,4,,,64,127
2015,note_off,191,0,0,,4,,,64,127
2015,note_off,0,0,0,,12,,,83,127
2016,note_on,1,0,0,,6,,,78,127
2016,note_on,0,0,0,,3,,,75,127
2016,note_on,0,0,0,,12,,,71,127
2207,note_off,191,0,0,,12,,,71,127
2207,note_off,0,0,0,,6,,,78,127
2208,note_on,1,0,0,,10,,,81,127
2208,note_on,0,0,0,,12,,,59,127
2399,note_off,191,0,0,,10,,,81,127
2400,note_off,1,0,0,,3,,,75,127
2400,note_on,0,0,0,,10,,,81,127
2400,note_on,0,0,0,,4,,,76,127
2591,note_off,191,0,0,,10,,,81,127
2591,note_off,0,0,0,,12,,,59,127
2592,note_on,1,0,0,,8,,,80,127
2592,note_on,0,0,0,,4,,,64,127
2780,note_off,188,0,0,,4,,,76,127
2783,note_off,3,0,0,,4,,,64,127
2784,note_on,1,0,0,,8,,,68,127
2975,note_off,191,0,0,,8,,,68,127
2975,note_off,0,0,0,,8,,,80,127
2976,note_on,1,0,0,,12,,,83,127
2976,note_on,0,0,0,,4,,,64,127
3167,note_off,191,0,0,,4,,,64,127
3167,note_off,0,0,0,,12,,,83,127
3168,note_on,1,0,0,,3,,,75,127
3168,note_on,0,0,0,,6,,,78,127
3168,note_on,0,0,0,,12,,,71,127
3359,note_off,191,0,0,,12,,,71,127
3359,note_off,0,0,0,,6,,,78,127
3360,note_on,1,0,0,,10,,,81,127
3360,note_on,0,0,0,,12,,,59,127
3551,note_off,191,0,0,,10,,,81,127
3552,note_off,1,0,0,,3,,,75,127
3552,note_on,0,0,0,,10,,,81,127
3552,note_on,0,0,0,,4,,,76,127
3743,note_off,191,0,0,,10,,,81,127
3743,note_off,0,0,0,,12,,,59,127
3744,note_on,1,0,0,,8,,,80,127
3744,note_on,0,0,0,,4,,,52,127
3932,note_off,188,0,0,,4,,,76,127
3935,note_off,3,0,0,,4,,,52,127
3936,note_on,1,0,0,,8,,,56,127
4127,note_off,191,0,0,,8,,,56,127
4127,note_off,0,0,0,,8,,,80,127
4128,note_on,1,0,0,,12,,,71,127
4128,note_on,0,0,0,,4,,,52,127
4319,note_off,191,0,0,,4,,,52,127
4319,note_off,0,0,0,,12,,,71,127
4320,note_on,1,0,0,,3,,,63,127
4320,note_on,0,0,0,,6,,,66,127
4320,note_on,0,0,0,,12,,,59,127
4511,note_off,191,0,0,,12,,,59,127
4511,note_off,0,0,0,,6,,,66,127
4512,note_on,1,0,0,,10,,,69,127
4512,note_on,0,0,0,,12,,,47,127
4703,note_off,191,0,0,,10,,,69,127
4704,note_off,1,0,0,,3,,,63,127
4704,note_on,0,0,0,,10,,,69,127
4704,note_on,0,0,0,,4,,,64,127
4895,note_off,191,0,0,,10,,,69,127
4895,note_off,0,0,0,,12,,,47,127
4896,note_on,1,0,0,,8,,,68,127
4896,note_on,0,0,0,,4,,,52,127
5084,note_off,188,0,0,,4,,,64,127
5087,note_off,3,0,0,,4,,,52,127
5088,note_on,1,0,0,,8,,,56,127
5279,note_off,191,0,0,,8,,,56,127
5279,note_off,0,0,0,,8,,,68,127
5280,note_on,1,0,0,,12,,,71,127
5280,note_on,0,0,0,,4,,,52,127
5471,note_off,191,0,0,,4,,,52,127
5471,note_off,0,0,0,,12,,,71,127
5472,note_on,1,0,0,,6,,,66,127
5472,note_on,0,0,0,,3,,,63,127
5472,note_on,0,0,0,,12,,,59,127
5663,note_off,191,0,0,,12,,,59,127
5663,note_off,0,0,0,,6,,,66,127
5664,note_on,1,0,0,,10,,,69,127
5664,note_on,0,0,0,,12,,,47,127
5855,note_off,191,0,0,,12,,,47,127
5855,note_off,0,0,0,,10,,,69,127
5856,note_off,1,0,0,,3,,,63,127
5856,note_on,0,0,0,,8,,,68,127
5856,note_on,0,0,0,,4,,,52,127
6048,note_on,192,0,0,,4,,,64,127
6144,note_off,96,0,0,,8,,,68,127
6239,note_off,95,0,0,,4,,,64,127
6240,note_on,1,0,0,,8,,,68,127
6431,note_off,191,0,0,,8,,,68,127
6432,note_on,1,0,0,,12,,,71,127
6623,note_off,191,0,0,,12,,,71,127
6624,note_on,1,0,0,,8,,,80,127
6815,note_off,191,0,0,,4,,,52,127
6816,note_on,1,0,0,,4,,,64,127
7007,note_off,191,0,0,,4,,,64,127
7008,note_on,1,0,0,,10,,,57,127
7199,note_off,191,0,0,,8,,,80,127
7200,note_on,1,0,0,,6,,,78,127
7391,note_off,191,0,0,,6,,,78,127
7392,note_on,1,0,0,,1,,,73,127
7583,note_off,191,0,0,,1,,,73,127
7584,note_on,1,0,0,,4,,,76,127
7775,note_off,191,0,0,,10,,,57,127
7776,note_on,1,0,0,,10,,,69,127
7776,note_on,0,0,0,,12,,,59,127
7964,note_off,188,0,0,,4,,,76,127
7968,note_on,4,0,0,,3,,,75,127
8159,note_off,191,0,0,,3,,,75,127
8159,note_off,0,0,0,,12,,,59,127
8160,note_on,1,0,0,,4,,,76,127
8160,note_on,0,0,0,,4,,,52,127
8351,note_off,191,0,0,,4,,,76,127
8352,note_off,1,0,0,,10,,,69,127
8352,note_on,0,0,0,,12,,,71,127
8543,note_off,191,0,0,,12,,,71,127
8544,note_on,1,0,0,,8,,,68,127
8735,note_off,191,0,0,,8,,,68,127
8736,note_on,1,0,0,,4,,,64,127
8927,note_off,191,0,0,,4,,,64,127
8928,note_on,1,0,0,,8,,,80,127
9119,note_off,191,0,0,,4,,,52,127
9120,note_on,1,0,0,,4,,,64,127
9311,note_off,191,0,0,,4,,,64,127
9312,note_on,1,0,0,,10,,,57,127
9503,note_off,191,0,0,,8,,,80,127
9504,note_on,1,0,0,,6,,,78,127
9695,note_off,191,0,0,,6,,,78,127
9696,note_on,1,0,0,,1,,,73,127
9887,note_off,191,0,0,,1,,,73,127
9888,note_on,1,0,0,,4,,,76,127
10079,note_off,191,0,0,,10,,,57,127
10080,note_on,1,0,0,,10,,,69,127
10080,note_on,0,0,0,,12,,,59,127
10268,note_off,188,0,0,,4,,,76,127
10271,note_off,3,0,0,,10,,,69,127
10272,note_on,1,0,0,,3,,,75,127
10463,note_off,191,0,0,,3,,,75,127
10463,note_off,0,0,0,,12,,,59,127
10464,note_on,1,0,0,,4,,,76,127
10464,note_on,0,0,0,,4,,,52,127
10655,note_off,191,0,0,,4,,,76,127
10656,note_on,1,0,0,,12,,,71,127
10847,note_off,191,0,0,,12,,,71,127
10848,note_on,1,0,0,,8,,,68,127
11039,note_off,191,0,0,,8,,,68,127
11040,note_on,1,0,0,,4,,,64,127
11231,note_off,191,0,0,,4,,,64,127
11232,note_on,1,0,0,,12,,,59,127
11423,note_off,191,0,0,,12,,,59,127
11424,note_on,1,0,0,,8,,,56,127
11615,note_off,191,0,0,,4,,,52,127
11616,note_off,1,0,0,,8,,,56,127
11616,note_on,0,0,0,,4,,,52,127
11807,note_off,191,0,0,,4,,,52,127
11808,note_on,1,0,0,,4,,,64,127
11999,note_off,191,0,0,,4,,,64,127
12000,note_on,1,0,0,,3,,,63,127
12191,note_off,191,0,0,,3,,,63,127
12192,note_on,1,0,0,,4,,,76,127
12192,note_on,0,0,0,,1,,,61,127
12383,note_off,191,0,0,,1,,,61,127
12383,note_off,0,0,0,,4,,,76,127
12384,note_on,1,0,0,,3,,,75,127
12384,note_on,0,0,0,,0,,,60,127
12575,note_off,191,0,0,,0,,,60,127
12575,note_off,0,0,0,,3,,,75,127
12576,note_on,1,0,0,,1,,,73,127
12576,note_on,0,0,0,,1,,,61,127
12767,note_off,191,0,0,,1,,,61,127
12767,note_off,0,0,0,,1,,,73,127
12768,note_on,1,0,0,,0,,,72,127
12768,note_on,0,0,0,,8,,,56,127
12959,note_off,191,0,0,,8,,,56,127
12959,note_off,0,0,0,,0,,,72,127
12960,note_on,1,0,0,,1,,,73,127
12960,note_on,0,0,0,,4,,,64,127
13151,note_off,191,0,0,,4,,,64,127
13151,note_off,0,0,0,,1,,,73,127
13152,note_on,1,0,0,,8,,,68,127
13152,note_on,0,0,0,,3,,,63,127
13343,note_off,191,0,0,,3,,,63,127
13343,note_off,0,0,0,,8,,,68,127
13344,note_on,1,0,0,,4,,,76,127
13344,note_on,0,0,0,,1,,,61,127
13535,note_off,191,0,0,,1,,,61,127
13535,note_off,0,0,0,,4,,,76,127
13536,note_on,1,0,0,,3,,,75,127
13536,note_on,0,0,0,,0,,,60,127
13727,note_off,191,0,0,,0,,,60,127
13727,note_off,0,0,0,,3,,,75,127
13728,note_on,1,0,0,,1,,,73,127
13728,note_on,0,0,0,,1,,,61,127
13919,note_off,191,0,0,,1,,,61,127
13919,note_off,0,0,0,,1,,,73,127
13920,note_on,1,0,0,,0,,,72,127
13920,note_on,0,0,0,,8,,,56,127
14111,note_off,191,0,0,,8,,,56,127
14111,note_off,0,0,0,,0,,,72,127
14112,note_on,1,0,0,,1,,,73,127
14112,note_on,0,0,0,,4,,,64,127
14303,note_off,191,0,0,,4,,,64,127
14303,note_off,0,0,0,,1,,,73,127
14304,note_on,1,0,0,,8,,,68,127
14304,note_on,0,0,0,,3,,,63,127
14495,note_off,191,0,0,,3,,,63,127
14495,note_off,0,0,0,,8,,,68,127
14496,note_on,1,0,0,,6,,,78,127
14496,note_on,0,0,0,,1,,,61,127
14687,note_off,191,0,0,,1,,,61,127
14687,note_off,0,0,0,,6,,,78,127
14688,note_on,1,0,0,,4,,,76,127
14688,note_on,0,0,0,,0,,,60,127
14879,note_off,191,0,0,,0,,,60,127
14879,note_off,0,0,0,,4,,,76,127
14880,note_on,1,0,0,,3,,,75,127
14880,note_on,0,0,0,,8,,,56,127
15071,note_off,191,0,0,,8,,,56,127
15071,note_off,0,0,0,,3,,,75,127
15072,note_on,1,0,0,,6,,,78,127
15072,note_on,0,0,0,,1,,,61,127
15072,note_on,0,0,0,,1,,,49,127
15167,note_off,95,0,0,,6,,,78,127
15168,note_on,1,0,0,,4,,,76,127
15263,note_off,95,0,0,,4,,,76,127
15264,note_on,1,0,0,,3,,,75,127
15455,note_off,191,0,0,,3,,,75,127
15456,note_on,1,0,0,,1,,,73,127
15647,note_off,191,0,0,,1,,,49,127
15647,note_off,0,0,0,,1,,,61,127
15648,note_on,1,0,0,,3,,,63,127
15839,note_off,191,0,0,,3,,,63,127
15840,note_off,1,0,0,,1,,,73,127
15840,note_on,0,0,0,,1,,,61,127
16031,note_off,191,0,0,,1,,,61,127
16032,note_on,1,0,0,,3,,,75,127
16032,note_on,0,0,0,,12,,,59,127
16223,note_off,191,0,0,,12,,,59,127
16223,note_off,0,0,0,,3,,,75,127
16224,note_on,1,0,0,,1,,,73,127
16224,note_on,0,0,0,,11,,,58,127
16415,note_off,191,0,0,,11,,,58,127
16415,note_off,0,0,0,,1,,,73,127
16416,note_on,1,0,0,,12,,,71,127
16416,note_on,0,0,0,,12,,,59,127
16607,note_off,191,0,0,,12,,,59,127
16607,note_off,0,0,0,,12,,,71,127
16608,note_on,1,0,0,,11,,,70,127
16608,note_on,0,0,0,,6,,,54,127
16799,note_off,191,0,0,,6,,,54,127
16799,note_off,0,0,0,,11,,,70,127
16800,note_on,1,0,0,,12,,,71,127
16800,note_on,0,0,0,,3,,,63,127
16991,note_off,191,0,0,,3,,,63,127
16991,note_off,0,0,0,,12,,,71,127
16992,note_on,1,0,0,,6,,,66,127
16992,note_on,0,0,0,,1,,,61,127
17183,note_off,191,0,0,,1,,,61,127
17183,note_off,0,0,0,,6,,,66,127
17184,note_on,1,0,0,,3,,,75,127
17184,note_on,0,0,0,,12,,,59,127
17375,note_off,191,0,0,,12,,,59,127
17375,note_off,0,0,0,,3,,,75,127
17376,note_on,1,0,0,,1,,,73,127
17376,note_on,0,0,0,,11,,,58,127
17567,note_off,191,0,0,,11,,,58,127
17567,note_off,0,0,0,,1,,,73,127
17568,note_on,1,0,0,,12,,,71,127
17568,note_on,0,0,0,,12,,,59,127
17759,note_off,191,0,0,,12,,,59,127
17759,note_off,0,0,0,,12,,,71,127
17760,note_on,1,0,0,,11,,,70,127
17760,note_on,0,0,0,,6,,,54,127
17951,note_off,191,0,0,,6,,,54,127
17951,note_off,0,0,0,,11,,,70,127
17952,note_on,1,0,0,,12,,,71,127
17952,note_on,0,0,0,,4,,,64,127
18143,note_off,191,0,0,,4,,,64,127
18143,note_off,0,0,0,,12,,,71,127
18144,note_on,1,0,0,,6,,,66,127
18144,note_on,0,0,0,,3,,,63,127
18335,note_off,191,0,0,,3,,,63,127
18335,note_off,0,0,0,,6,,,66,127
18336,note_on,1,0,0,,4,,,76,127
18336,note_on,0,0,0,,1,,,61,127
18527,note_off,191,0,0,,1,,,61,127
18527,note_off,0,0,0,,4,,,76,127
18528,note_on,1,0,0,,4,,,76,127
18528,note_on,0,0,0,,12,,,59,127
18623,note_off,95,0,0,,4,,,76,127
18624,note_on,1,0,0,,3,,,75,127
18719,note_off,95,0,0,,3,,,75,127
18720,note_on,1,0,0,,1,,,73,127
18911,note_off,191,0,0,,1,,,73,127
18912,note_on,1,0,0,,3,,,75,127
19103,note_off,191,0,0,,3,,,75,127
19103,note_off,0,0,0,,12,,,59,127
19104,note_on,1,0,0,,4,,,76,127
19104,note_on,0,0,0,,1,,,61,127
19295,note_off,191,0,0,,1,,,61,127
19295,note_off,0,0,0,,4,,,76,127
19296,note_on,1,0,0,,6,,,78,127
19296,note_on,0,0,0,,3,,,63,127
19487,note_off,191,0,0,,6,,,78,127
19488,note_on,1,0,0,,6,,,66,127
19679,note_off,191,0,0,,6,,,66,127
19679,note_off,0,0,0,,3,,,63,127
19680,note_on,1,0,0,,8,,,68,127
19680,note_on,0,0,0,,4,,,64,127
19871,note_off,191,0,0,,8,,,68,127
19872,note_on,1,0,0,,6,,,78,127
20063,note_off,191,0,0,,6,,,78,127
20064,note_on,1,0,0,,4,,,76,127
20255,note_off,191,0,0,,4,,,76,127
20256,note_on,1,0,0,,3,,,75,127
20447,note_off,191,0,0,,3,,,75,127
20447,note_off,0,0,0,,4,,,64,127
20448,note_on,1,0,0,,1,,,73,127
20448,note_on,0,0,0,,5,,,65,127
20639,note_off,191,0,0,,1,,,73,127
20640,note_on,1,0,0,,12,,,71,127
20831,note_off,191,0,0,,12,,,71,127
20831,note_off,0,0,0,,5,,,65,127
20832,note_on,1,0,0,,1,,,73,127
20832,note_on,0,0,0,,6,,,66,127
20927,note_off,95,0,0,,1,,,73,127
20928,note_on,1,0,0,,12,,,71,127
21023,note_off,95,0,0,,12,,,71,127
21024,note_on,1,0,0,,11,,,70,127
21215,note_off,191,0,0,,6,,,66,127
21216,note_on,1,0,0,,8,,,68,127
21216,note_on,0,0,0,,5,,,65,127
21312,note_off,96,0,0,,11,,,70,127
21408,note_on,96,0,0,,12,,,71,127
21599,note_off,191,0,0,,12,,,71,127
21599,note_off,0,0,0,,5,,,65,127
21599,note_off,0,0,0,,8,,,68,127
21600,note_on,1,0,0,,1,,,73,127
21600,note_on,0,0,0,,1,,,61,127
21791,note_off,191,0,0,,1,,,73,127
21792,note_on,1,0,0,,12,,,71,127
21983,note_off,191,0,0,,12,,,71,127
21983,note_off,0,0,0,,1,,,61,127
21984,note_on,1,0,0,,1,,,73,127
21984,note_on,0,0,0,,6,,,66,127
22079,note_off,95,0,0,,1,,,73,127
22080,note_on,1,0,0,,12,,,71,127
22175,note_off,95,0,0,,12,,,71,127
22176,note_on,1,0,0,,11,,,70,127
22367,note_off,191,0,0,,6,,,66,127
22368,note_on,1,0,0,,8,,,68,127
22368,note_on,0,0,0,,5,,,65,127
22464,note_off,96,0,0,,11,,,70,127
22560,note_on,96,0,0,,12,,,71,127
22751,note_off,191,0,0,,12,,,71,127
22751,note_off,0,0,0,,5,,,65,127
22751,note_off,0,0,0,,8,,,68,127
22752,note_on,1,0,0,,1,,,73,127
22752,note_on,0,0,0,,1,,,61,127
22943,note_off,191,0,0,,1,,,73,127
22944,note_on,1,0,0,,12,,,71,127
23135,note_off,191,0,0,,12,,,71,127
23135,note_off,0,0,0,,1,,,61,127
23136,note_on,1,0,0,,11,,,70,127
23136,note_on,0,0,0,,6,,,66,127
23327,note_off,191,0,0,,11,,,70,127
23328,note_on,1,0,0,,8,,,68,127
23519,note_off,191,0,0,,8,,,68,127
23519,note_off,0,0,0,,6,,,66,127
23520,note_on,1,0,0,,6,,,66,127
23520,note_on,0,0,0,,6,,,54,127
24096,note_off,576,0,0,,6,,,54,127
24096,note_off,0,0,0,,6,,,66,127
24288,note_on,192,0,0,,1,,,73,127
24288,note_on,0,0,0,,11,,,70,127
24288,note_on,0,0,0,,6,,,66,127
24479,note_off,191,0,0,,1,,,73,127
24480,note_on,1,0,0,,2,,,74,127
24671,note_off,191,0,0,,2,,,74,127
24672,note_on,1,0,0,,4,,,76,127
24863,note_off,191,0,0,,6,,,66,127
24864,note_off,1,0,0,,11,,,70,127
24864,note_on,0,0,0,,11,,,70,127
24864,note_on,0,0,0,,6,,,66,127
25052,note_off,188,0,0,,4,,,76,127
25055,note_off,3,0,0,,6,,,66,127
25055,note_off,0,0,0,,11,,,70,127
25056,note_on,1,0,0,,12,,,71,127
25056,note_on,0,0,0,,10,,,69,127
25120,note_off,64,0,0,,10,,,69,127
25120,note_on,0,0,0,,7,,,67,127
25184,note_off,64,0,0,,7,,,67,127
25184,note_on,0,0,0,,10,,,69,127
25248,note_off,64,0,0,,10,,,69,127
25248,note_on,0,0,0,,4,,,76,127
25248,note_on,0,0,0,,7,,,67,127
25312,note_off,64,0,0,,7,,,67,127
25312,note_on,0,0,0,,6,,,66,127
25376,note_off,64,0,0,,6,,,66,127
25376,note_on,0,0,0,,7,,,67,127
25439,note_off,63,0,0,,4,,,76,127
25440,note_off,1,0,0,,7,,,67,127
25440,note_off,0,0,0,,12,,,71,127
25440,note_on,0,0,0,,0,,,72,127
25440,note_on,0,0,0,,3,,,75,127
25440,note_on,0,0,0,,10,,,69,127
25440,note_on,0,0,0,,6,,,66,127
25631,note_off,191,0,0,,3,,,75,127
25632,note_on,1,0,0,,4,,,76,127
25823,note_off,191,0,0,,4,,,76,127
25824,note_on,1,0,0,,6,,,78,127
26015,note_off,191,0,0,,6,,,66,127
26016,note_off,1,0,0,,10,,,69,127
26016,note_on,0,0,0,,10,,,69,127
26016,note_on,0,0,0,,6,,,66,127
26112,note_off,96,0,0,,6,,,78,127
26207,note_off,95,0,0,,6,,,66,127
26207,note_off,0,0,0,,10,,,69,127
26208,note_off,1,0,0,,0,,,72,127
26208,note_on,0,0,0,,12,,,71,127
26208,note_on,0,0,0,,10,,,69,127
26272,note_off,64,0,0,,10,,,69,127
26272,note_on,0,0,0,,7,,,67,127
26336,note_off,64,0,0,,7,,,67,127
26336,note_on,0,0,0,,10,,,69,127
26400,note_off,64,0,0,,10,,,69,127
26400,note_on,0,0,0,,4,,,76,127
26400,note_on,0,0,0,,7,,,67,127
26464,note_off,64,0,0,,7,,,67,127
26464,note_on,0,0,0,,6,,,66,127
26528,note_off,64,0,0,,6,,,66,127
26528,note_on,0,0,0,,7,,,67,127
26591,note_off,63,0,0,,4,,,76,127
26592,note_off,1,0,0,,7,,,67,127
26592,note_off,0,0,0,,12,,,71,127
26592,note_on,0,0,0,,11,,,70,127
26592,note_on,0,0,0,,1,,,73,127
26592,note_on,0,0,0,,6,,,66,127
26783,note_off,191,0,0,,1,,,73,127
26784,note_on,1,0,0,,2,,,74,127
26975,note_off,191,0,0,,2,,,74,127
26976,note_on,1,0,0,,4,,,76,127
27167,note_off,191,0,0,,6,,,66,127
27168,note_off,1,0,0,,11,,,70,127
27168,note_on,0,0,0,,11,,,70,127
27168,note_on,0,0,0,,6,,,66,127
27356,note_off,188,0,0,,4,,,76,127
27359,note_off,3,0,0,,6,,,66,127
27359,note_off,0,0,0,,11,,,70,127
27360,note_on,1,0,0,,12,,,71,127
27360,note_on,0,0,0,,10,,,69,127
27424,note_off,64,0,0,,10,,,69,127
27424,note_on,0,0,0,,7,,,67,127
27488,note_off,64,0,0,,7,,,67,127
27488,note_on,0,0,0,,10,,,69,127
27552,note_off,64,0,0,,10,,,69,127
27552,note_on,0,0,0,,4,,,76,127
27552,note_on,0,0,0,,7,,,67,127
27616,note_off,64,0,0,,7,,,67,127
27616,note_on,0,0,0,,6,,,66,127
27680,note_off,64,0,0,,6,,,66,127
27680,note_on,0,0,0,,7,,,67,127
27743,note_off,63,0,0,,4,,,76,127
27744,note_off,1,0,0,,7,,,67,127
27744,note_off,0,0,0,,12,,,71,127
27744,note_on,0,0,0,,10,,,69,127
27744,note_on,0,0,0,,0,,,72,127
27744,note_on,0,0,0,,3,,,75,127
27744,note_on,0,0,0,,6,,,66,127
27935,note_off,191,0,0,,3,,,75,127
27936,note_on,1,0,0,,4,,,76,127
28127,note_off,191,0,0,,4,,,76,127
28128,note_on,1,0,0,,6,,,78,127
28319,note_off,191,0,0,,6,,,66,127
28320,note_off,1,0,0,,10,,,69,127
28320,note_on,0,0,0,,10,,,69,127
28320,note_on,0,0,0,,6,,,66,127
28416,note_off,96,0,0,,6,,,78,127
28511,note_off,95,0,0,,6,,,66,127
28511,note_off,0,0,0,,10,,,69,127
28512,note_off,1,0,0,,0,,,72,127
28512,note_on,0,0,0,,12,,,71,127
28512,note_on,0,0,0,,10,,,69,127
28576,note_off,64,0,0,,10,,,69,127
28576,note_on,0,0,0,,7,,,67,127
28640,note_off,64,0,0,,7,,,67,127
28640,note_on,0,0,0,,10,,,69,127
28704,note_off,64,0,0,,10,,,69,127
28704,note_on,0,0,0,,4,,,76,127
28704,note_on,0,0,0,,7,,,67,127
28768,note_off,64,0,0,,7,,,67,127
28768,note_on,0,0,0,,6,,,66,127
28832,note_off,64,0,0,,6,,,66,127
28832,note_on,0,0,0,,7,,,67,127
28895,note_off,63,0,0,,4,,,76,127
28896,note_off,1,0,0,,7,,,67,127
28896,note_off,0,0,0,,12,,,71,127
28896,note_on,0,0,0,,1,,,73,127
28896,note_on,0,0,0,,11,,,70,127
28896,note_on,0,0,0,,6,,,66,127
29087,note_off,191,0,0,,1,,,73,127
29088,note_on,1,0,0,,2,,,74,127
29279,note_off,191,0,0,,2,,,74,127
29280,note_on,1,0,0,,4,,,76,127
29471,note_off,191,0,0,,6,,,66,127
29472,note_off,1,0,0,,11,,,70,127
29472,note_on,0,0,0,,11,,,70,127
29472,note_on,0,0,0,,6,,,66,127
29663,note_off,191,0,0,,6,,,66,127
29663,note_off,0,0,0,,11,,,70,127
29664,note_on,1,0,0,,12,,,71,127
29664,note_on,0,0,0,,10,,,69,127
29728,note_off,64,0,0,,10,,,69,127
29728,note_on,0,0,0,,7,,,67,127
29792,note_off,64,0,0,,7,,,67,127
29792,note_on,0,0,0,,10,,,69,127
29855,note_off,63,0,0,,4,,,76,127
29856,note_off,1,0,0,,10,,,69,127
29856,note_on,0,0,0,,4,,,76,127
29856,note_on,0,0,0,,7,,,67,127
29920,note_off,64,0,0,,7,,,67,127
29920,note_on,0,0,0,,6,,,66,127
29984,note_off,64,0,0,,6,,,66,127
29984,note_on,0,0,0,,7,,,67,127
30047,note_off,63,0,0,,4,,,76,127
30048,note_off,1,0,0,,7,,,67,127
30048,note_off,0,0,0,,12,,,71,127
30048,note_on,0,0,0,,0,,,72,127
30048,note_on,0,0,0,,10,,,69,127
30048,note_on,0,0,0,,3,,,75,127
30048,note_on,0,0,0,,6,,,66,127
30239,note_off,191,0,0,,3,,,75,127
30239,note_off,0,0,0,,0,,,72,127
30240,note_on,1,0,0,,4,,,76,127
30431,note_off,191,0,0,,4,,,76,127
30432,note_on,1,0,0,,6,,,78,127
30623,note_off,191,0,0,,6,,,78,127
30624,note_on,1,0,0,,7,,,79,127
30815,note_off,191,0,0,,7,,,79,127
30815,note_off,0,0,0,,6,,,66,127
30816,note_off,1,0,0,,10,,,69,127
30816,note_on,0,0,0,,10,,,81,127
30816,note_on,0,0,0,,10,,,69,127
30816,note_on,0,0,0,,4,,,64,127
31007,note_off,191,0,0,,10,,,69,127
31008,note_on,1,0,0,,12,,,71,127
31199,note_off,191,0,0,,12,,,71,127
31199,note_off,0,0,0,,4,,,64,127
31200,note_off,1,0,0,,10,,,81,127
31200,note_on,0,0,0,,0,,,72,127
31200,note_on,0,0,0,,10,,,81,127
31200,note_on,0,0,0,,3,,,63,127
31391,note_off,191,0,0,,0,,,72,127
31392,note_on,1,0,0,,10,,,69,127
31583,note_off,191,0,0,,10,,,69,127
31583,note_off,0,0,0,,3,,,63,127
31584,note_off,1,0,0,,10,,,81,127
31584,note_on,0,0,0,,10,,,81,127
31584,note_on,0,0,0,,10,,,69,127
31584,note_on,0,0,0,,6,,,66,127
31775,note_off,191,0,0,,10,,,69,127
31776,note_on,1,0,0,,12,,,71,127
31967,note_off,191,0,0,,12,,,71,127
31967,note_off,0,0,0,,6,,,66,127
31968,note_off,1,0,0,,10,,,81,127
31968,note_on,0,0,0,,10,,,81,127
31968,note_on,0,0,0,,0,,,72,127
31968,note_on,0,0,0,,4,,,64,127
32159,note_off,191,0,0,,0,,,72,127
32160,note_on,1,0,0,,10,,,69,127
32351,note_off,191,0,0,,10,,,69,127
32351,note_off,0,0,0,,4,,,64,127
32352,note_off,1,0,0,,10,,,81,127
32352,note_on,0,0,0,,10,,,81,127
32352,note_on,0,0,0,,10,,,69,127
32352,note_on,0,0,0,,3,,,63,127
32543,note_off,191,0,0,,10,,,69,127
32544,note_on,1,0,0,,12,,,71,127
32735,note_off,191,0,0,,12,,,71,127
32735,note_off,0,0,0,,3,,,63,127
32736,note_off,1,0,0,,10,,,81,127
32736,note_on,0,0,0,,10,,,81,127
32736,note_on,0,0,0,,0,,,72,127
32736,note_on,0,0,0,,6,,,66,127
32927,note_off,191,0,0,,0,,,72,127
32928,note_on,1,0,0,,10,,,69,127
33119,note_off,191,0,0,,10,,,69,127
33119,note_off,0,0,0,,6,,,66,127
33120,note_off,1,0,0,,10,,,81,127
33120,note_on,0,0,0,,12,,,71,127
33120,note_on,0,0,0,,10,,,81,127
33120,note_on,0,0,0,,5,,,65,127
33311,note_off,191,0,0,,12,,,71,127
33312,note_on,1,0,0,,1,,,73,127
33503,note_off,191,0,0,,1,,,73,127
33503,note_off,0,0,0,,5,,,65,127
33504,note_off,1,0,0,,10,,,81,127
33504,note_on,0,0,0,,12,,,83,127
33504,note_on,0,0,0,,2,,,74,127
33504,note_on,0,0,0,,8,,,68,127
33695,note_off,191,0,0,,2,,,74,127
33696,note_on,1,0,0,,12,,,71,127
33887,note_off,191,0,0,,12,,,71,127
33887,note_off,0,0,0,,8,,,68,127
33888,note_off,1,0,0,,12,,,83,127
33888,note_on,0,0,0,,12,,,83,127
33888,note_on,0,0,0,,12,,,71,127
33888,note_on,0,0,0,,6,,,66,127
34079,note_off,191,0,0,,12,,,71,127
34080,note_on,1,0,0,,1,,,73,127
34271,note_off,191,0,0,,1,,,73,127
34271,note_off,0,0,0,,6,,,66,127
34272,note_off,1,0,0,,12,,,83,127
34272,note_on,0,0,0,,2,,,74,127
34272,note_on,0,0,0,,12,,,83,127
34272,note_on,0,0,0,,5,,,65,127
34463,note_off,191,0,0,,2,,,74,127
34464,note_on,1,0,0,,12,,,71,127
34655,note_off,191,0,0,,12,,,71,127
34655,note_off,0,0,0,,5,,,65,127
34656,note_off,1,0,0,,12,,,83,127
34656,note_on,0,0,0,,12,,,71,127
34656,note_on,0,0,0,,12,,,83,127
34656,note_on,0,0,0,,8,,,68,127
34847,note_off,191,0,0,,12,,,71,127
34848,note_on,1,0,0,,1,,,73,127
35039,note_off,191,0,0,,1,,,73,127
35039,note_off,0,0,0,,8,,,68,127
35040,note_off,1,0,0,,12,,,83,127
35040,note_on,0,0,0,,12,,,83,127
35040,note_on,0,0,0,,2,,,74,127
35040,note_on,0,0,0,,6,,,66,127
35231,note_off,191,0,0,,2,,,74,127
35232,note_on,1,0,0,,12,,,71,127
35423,note_off,191,0,0,,12,,,71,127
35423,note_off,0,0,0,,6,,,66,127
35424,note_off,1,0,0,,12,,,83,127
35424,note_on,0,0,0,,12,,,83,127
35424,note_on,0,0,0,,12,,,71,127
35424,note_on,0,0,0,,5,,,65,127
35615,note_off,191,0,0,,12,,,71,127
35616,note_on,1,0,0,,1,,,73,127
35807,note_off,191,0,0,,1,,,73,127
35807,note_off,0,0,0,,5,,,65,127
35808,note_off,1,0,0,,12,,,83,127
35808,note_on,0,0,0,,2,,,74,127
35808,note_on,0,0,0,,12,,,83,127
35808,note_on,0,0,0,,8,,,68,127
35999,note_off,191,0,0,,2,,,74,127
36000,note_on,1,0,0,,12,,,71,127
36191,note_off,191,0,0,,12,,,71,127
36191,note_off,0,0,0,,8,,,68,127
36192,note_off,1,0,0,,12,,,83,127
36192,note_on,0,0,0,,12,,,83,127
36192,note_on,0,0,0,,12,,,71,127
36192,note_on,0,0,0,,6,,,66,127
36383,note_off,191,0,0,,12,,,71,127
36384,note_on,1,0,0,,1,,,73,127
36575,note_off,191,0,0,,1,,,73,127
36575,note_off,0,0,0,,6,,,66,127
36576,note_off,1,0,0,,12,,,83,127
36576,note_on,0,0,0,,12,,,83,127
36576,note_on,0,0,0,,2,,,74,127
36576,note_on,0,0,0,,5,,,65,127
36767,note_off,191,0,0,,2,,,74,127
36768,note_on,1,0,0,,12,,,71,127
36959,note_off,191,0,0,,12,,,71,127
36959,note_off,0,0,0,,5,,,65,127
36960,note_off,1,0,0,,12,,,83,127
36960,note_on,0,0,0,,11,,,82,127
36960,note_on,0,0,0,,6,,,66,127
37151,note_off,191,0,0,,11,,,82,127
37152,note_on,1,0,0,,8,,,80,127
37343,note_off,191,0,0,,8,,,80,127
37344,note_on,1,0,0,,6,,,78,127
37535,note_off,191,0,0,,6,,,66,127
37536,note_off,1,0,0,,6,,,78,127
37536,note_on,0,0,0,,4,,,64,127
37727,note_off,191,0,0,,4,,,64,127
37728,note_on,1,0,0,,2,,,62,127
37919,note_off,191,0,0,,2,,,62,127
37920,note_on,1,0,0,,1,,,61,127
38111,note_off,191,0,0,,1,,,61,127
38112,note_on,1,0,0,,6,,,66,127
38112,note_on,0,0,0,,12,,,59,127
38304,note_on,192,0,0,,6,,,78,127
38495,note_off,191,0,0,,6,,,78,127
38495,note_off,0,0,0,,12,,,59,127
38495,note_off,0,0,0,,6,,,66,127
38496,note_on,1,0,0,,2,,,86,127
38496,note_on,0,0,0,,12,,,71,127
38687,note_off,191,0,0,,12,,,71,127
38687,note_off,0,0,0,,2,,,86,127
38688,note_on,1,0,0,,1,,,85,127
38688,note_on,0,0,0,,10,,,69,127
38879,note_off,191,0,0,,10,,,69,127
38879,note_off,0,0,0,,1,,,85,127
38880,note_on,1,0,0,,12,,,83,127
38880,note_on,0,0,0,,7,,,67,127
39071,note_off,191,0,0,,7,,,67,127
39071,note_off,0,0,0,,12,,,83,127
39072,note_on,1,0,0,,10,,,81,127
39072,note_on,0,0,0,,6,,,66,127
39263,note_off,191,0,0,,6,,,66,127
39263,note_off,0,0,0,,10,,,81,127
39264,note_on,1,0,0,,7,,,79,127
39264,note_on,0,0,0,,4,,,64,127
39264,note_on,0,0,0,,12,,,71,127
39456,note_on,192,0,0,,4,,,76,127
39647,note_off,191,0,0,,4,,,76,127
39647,note_off,0,0,0,,12,,,71,127
39647,note_off,0,0,0,,4,,,64,127
39648,note_off,1,0,0,,7,,,79,127
39648,note_on,0,0,0,,6,,,78,127
39648,note_on,0,0,0,,2,,,74,127
39648,note_on,0,0,0,,6,,,66,127
39839,note_off,191,0,0,,2,,,74,127
39839,note_off,0,0,0,,6,,,78,127
39840,note_on,1,0,0,,1,,,73,127
39840,note_on,0,0,0,,4,,,76,127
40031,note_off,191,0,0,,4,,,76,127
40031,note_off,0,0,0,,1,,,73,127
40032,note_on,1,0,0,,12,,,71,127
40032,note_on,0,0,0,,2,,,74,127
40223,note_off,191,0,0,,2,,,74,127
40223,note_off,0,0,0,,12,,,71,127
40224,note_on,1,0,0,,11,,,70,127
40224,note_on,0,0,0,,1,,,73,127
40415,note_off,191,0,0,,6,,,66,127
40416,note_off,1,0,0,,1,,,73,127
40416,note_off,0,0,0,,11,,,70,127
40416,note_on,0,0,0,,12,,,59,127
40416,note_on,0,0,0,,6,,,66,127
40608,note_on,192,0,0,,6,,,78,127
40799,note_off,191,0,0,,6,,,78,127
40799,note_off,0,0,0,,6,,,66,127
40799,note_off,0,0,0,,12,,,59,127
40800,note_on,1,0,0,,2,,,86,127
40800,note_on,0,0,0,,12,,,71,127
40991,note_off,191,0,0,,12,,,71,127
40991,note_off,0,0,0,,2,,,86,127
40992,note_on,1,0,0,,1,,,85,127
40992,note_on,0,0,0,,10,,,69,127
41183,note_off,191,0,0,,10,,,69,127
41183,note_off,0,0,0,,1,,,85,127
41184,note_on,1,0,0,,12,,,83,127
41184,note_on,0,0,0,,7,,,67,127
41375,note_off,191,0,0,,7,,,67,127
41375,note_off,0,0,0,,12,,,83,127
41376,note_on,1,0,0,,10,,,81,127
41376,note_on,0,0,0,,6,,,66,127
41567,note_off,191,0,0,,6,,,66,127
41567,note_off,0,0,0,,10,,,81,127
41568,note_on,1,0,0,,7,,,79,127
41568,note_on,0,0,0,,12,,,71,127
41568,note_on,0,0,0,,4,,,64,127
41760,note_on,192,0,0,,4,,,76,127
41951,note_off,191,0,0,,4,,,76,127
41951,note_off,0,0,0,,4,,,64,127
41951,note_off,0,0,0,,12,,,71,127
41952,note_off,1,0,0,,7,,,79,127
41952,note_on,0,0,0,,6,,,78,127
41952,note_on,0,0,0,,2,,,74,127
41952,note_on,0,0,0,,6,,,66,127
42143,note_off,191,0,0,,2,,,74,127
42143,note_off,0,0,0,,6,,,78,127
42144,note_on,1,0,0,,4,,,76,127
42144,note_on,0,0,0,,1,,,73,127
42335,note_off,191,0,0,,1,,,73,127
42335,note_off,0,0,0,,4,,,76,127
42336,note_on,1,0,0,,2,,,74,127
42336,note_on,0,0,0,,12,,,71,127
42527,note_off,191,0,0,,12,,,71,127
42527,note_off,0,0,0,,2,,,74,127
42527,note_off,0,0,0,,6,,,66,127
42528,note_on,1,0,0,,11,,,70,127
42528,note_on,0,0,0,,1,,,73,127
42719,note_off,191,0,0,,1,,,73,127
42719,note_off,0,0,0,,11,,,70,127
42720,note_on,1,0,0,,1,,,73,127
42720,note_on,0,0,0,,4,,,64,127
42720,note_on,0,0,0,,1,,,61,127
42720,note_on,0,0,0,,12,,,59,127
42720,note_on,0,0,0,,7,,,55,127
42815,note_off,95,0,0,,1,,,73,127
42816,note_on,1,0,0,,12,,,71,127
42911,note_off,95,0,0,,12,,,71,127
42912,note_on,1,0,0,,11,,,70,127
43007,note_off,95,0,0,,11,,,70,127
43008,note_on,1,0,0,,12,,,71,127
43103,note_off,95,0,0,,12,,,71,127
43103,note_off,0,0,0,,7,,,55,127
43104,note_on,1,0,0,,1,,,73,127
43104,note_on,0,0,0,,4,,,52,127
43295,note_off,191,0,0,,1,,,73,127
43296,note_on,1,0,0,,4,,,76,127
43487,note_off,191,0,0,,4,,,76,127
43487,note_off,0,0,0,,4,,,52,127
43488,note_off,1,0,0,,12,,,59,127
43488,note_off,0,0,0,,1,,,61,127
43488,note_off,0,0,0,,4,,,64,127
43488,note_on,0,0,0,,2,,,74,127
43488,note_on,0,0,0,,6,,,54,127
43679,note_off,191,0,0,,2,,,74,127
43680,note_on,1,0,0,,1,,,73,127
43871,note_off,191,0,0,,1,,,73,127
43871,note_off,0,0,0,,6,,,54,127
43872,note_on,1,0,0,,1,,,73,127
43872,note_on,0,0,0,,1,,,61,127
43872,note_on,0,0,0,,4,,,64,127
43872,note_on,0,0,0,,12,,,59,127
43872,note_on,0,0,0,,7,,,55,127
43967,note_off,95,0,0,,1,,,73,127
43968,note_on,1,0,0,,12,,,71,127
44063,note_off,95,0,0,,12,,,71,127
44064,note_on,1,0,0,,11,,,70,127
44159,note_off,95,0,0,,11,,,70,127
44160,note_on,1,0,0,,12,,,71,127
44255,note_off,95,0,0,,12,,,71,127
44255,note_off,0,0,0,,7,,,55,127
44256,note_on,1,0,0,,1,,,73,127
44256,note_on,0,0,0,,4,,,52,127
44447,note_off,191,0,0,,1,,,73,127
44448,note_on,1,0,0,,4,,,76,127
44639,note_off,191,0,0,,4,,,76,127
44639,note_off,0,0,0,,4,,,52,127
44640,note_off,1,0,0,,12,,,59,127
44640,note_off,0,0,0,,4,,,64,127
44640,note_off,0,0,0,,1,,,61,127
44640,note_on,0,0,0,,2,,,74,127
44640,note_on,0,0,0,,6,,,54,127
44831,note_off,191,0,0,,2,,,74,127
44832,note_on,1,0,0,,1,,,73,127
45023,note_off,191,0,0,,1,,,73,127
45023,note_off,0,0,0,,6,,,54,127
45024,note_on,1,0,0,,4,,,76,127
45024,note_on,0,0,0,,12,,,71,127
45024,note_on,0,0,0,,12,,,59,127
45119,note_off,95,0,0,,4,,,76,127
45120,note_on,1,0,0,,2,,,74,127
45215,note_off,95,0,0,,2,,,74,127
45215,note_off,0,0,0,,12,,,59,127
45216,note_on,1,0,0,,1,,,73,127
45216,note_on,0,0,0,,11,,,58,127
45311,note_off,95,0,0,,11,,,58,127
45311,note_off,0,0,0,,1,,,73,127
45312,note_on,1,0,0,,2,,,74,127
45312,note_on,0,0,0,,12,,,59,127
45407,note_off,95,0,0,,12,,,59,127
45407,note_off,0,0,0,,2,,,74,127
45408,note_off,1,0,0,,12,,,71,127
45408,note_on,0,0,0,,4,,,76,127
45408,note_on,0,0,0,,1,,,61,127
45599,note_off,191,0,0,,1,,,61,127
45599,note_off,0,0,0,,4,,,76,127
45600,note_on,1,0,0,,11,,,70,127
45600,note_on,0,0,0,,4,,,64,127
45791,note_off,191,0,0,,4,,,64,127
45791,note_off,0,0,0,,11,,,70,127
45792,note_on,1,0,0,,12,,,71,127
45792,note_on,0,0,0,,2,,,62,127
45983,note_off,191,0,0,,2,,,62,127
45983,note_off,0,0,0,,12,,,71,127
45984,note_on,1,0,0,,1,,,73,127
45984,note_on,0,0,0,,1,,,61,127
46175,note_off,191,0,0,,1,,,61,127
46175,note_off,0,0,0,,1,,,73,127
46176,note_on,1,0,0,,4,,,76,127
46176,note_on,0,0,0,,12,,,71,127
46176,note_on,0,0,0,,12,,,59,127
46271,note_off,95,0,0,,4,,,76,127
46272,note_on,1,0,0,,2,,,74,127
46367,note_off,95,0,0,,2,,,74,127
46367,note_off,0,0,0,,12,,,59,127
46368,note_on,1,0,0,,1,,,73,127
46368,note_on,0,0,0,,11,,,58,127
46463,note_off,95,0,0,,11,,,58,127
46463,note_off,0,0,0,,1,,,73,127
46464,note_on,1,0,0,,2,,,74,127
46464,note_on,0,0,0,,12,,,59,127
46559,note_off,95,0,0,,12,,,59,127
46559,note_off,0,0,0,,2,,,74,127
46560,note_off,1,0,0,,12,,,71,127
46560,note_on,0,0,0,,4,,,76,127
46560,note_on,0,0,0,,1,,,61,127
46751,note_off,191,0,0,,1,,,61,127
46751,note_off,0,0,0,,4,,,76,127
46752,note_on,1,0,0,,11,,,70,127
46752,note_on,0,0,0,,4,,,64,127
46943,note_off,191,0,0,,4,,,64,127
46943,note_off,0,0,0,,11,,,70,127
46944,note_on,1,0,0,,12,,,71,127
46944,note_on,0,0,0,,2,,,62,127
47135,note_off,191,0,0,,2,,,62,127
47135,note_off,0,0,0,,12,,,71,127
47136,note_on,1,0,0,,1,,,73,127
47136,note_on,0,0,0,,1,,,61,127
47327,note_off,191,0,0,,1,,,61,127
47327,note_off,0,0,0,,1,,,73,127
47328,note_on,1,0,0,,4,,,76,127
47328,note_on,0,0,0,,12,,,59,127
47423,note_off,95,0,0,,4,,,76,127
47424,note_on,1,0,0,,2,,,74,127
47519,note_off,95,0,0,,2,,,74,127
47519,note_off,0,0,0,,12,,,59,127
47520,note_on,1,0,0,,1,,,73,127
47520,note_on,0,0,0,,10,,,57,127
47615,note_off,95,0,0,,1,,,73,127
47616,note_on,1,0,0,,12,,,71,127
47711,note_off,95,0,0,,12,,,71,127
47711,note_off,0,0,0,,10,,,57,127
47712,note_on,1,0,0,,12,,,83,127
47712,note_on,0,0,0,,7,,,55,127
47903,note_off,191,0,0,,7,,,55,127
47904,note_on,1,0,0,,6,,,54,127
48095,note_off,191,0,0,,6,,,54,127
48096,note_on,1,0,0,,4,,,52,127
48287,note_off,191,0,0,,4,,,52,127
48288,note_on,1,0,0,,2,,,50,127
48479,note_off,191,0,0,,2,,,50,127
48480,note_on,1,0,0,,4,,,52,127
48671,note_off,191,0,0,,12,,,83,127
48672,note_on,1,0,0,,4,,,76,127
48672,note_on,0,0,0,,7,,,79,127
48863,note_off,191,0,0,,7,,,79,127
48863,note_off,0,0,0,,4,,,76,127
48863,note_off,0,0,0,,4,,,52,127
48864,note_on,1,0,0,,2,,,74,127
48864,note_on,0,0,0,,6,,,78,127
48864,note_on,0,0,0,,6,,,54,127
49055,note_off,191,0,0,,6,,,78,127
49055,note_off,0,0,0,,2,,,74,127
49056,note_on,1,0,0,,4,,,76,127
49056,note_on,0,0,0,,1,,,73,127
49247,note_off,191,0,0,,1,,,73,127
49247,note_off,0,0,0,,4,,,76,127
49247,note_off,0,0,0,,6,,,54,127
49248,note_on,1,0,0,,12,,,71,127
49248,note_on,0,0,0,,2,,,74,127
49248,note_on,0,0,0,,11,,,58,127
49439,note_off,191,0,0,,2,,,74,127
49439,note_off,0,0,0,,12,,,71,127
49440,note_on,1,0,0,,1,,,73,127
49440,note_on,0,0,0,,11,,,70,127
49631,note_off,191,0,0,,11,,,70,127
49631,note_off,0,0,0,,1,,,73,127
49631,note_off,0,0,0,,11,,,58,127
49632,note_on,1,0,0,,4,,,76,127
49632,note_on,0,0,0,,12,,,59,127
49727,note_off,95,0,0,,4,,,76,127
49728,note_on,1,0,0,,2,,,74,127
49823,note_off,95,0,0,,2,,,74,127
49823,note_off,0,0,0,,12,,,59,127
49824,note_on,1,0,0,,1,,,73,127
49824,note_on,0,0,0,,10,,,57,127
49919,note_off,95,0,0,,1,,,73,127
49920,note_on,1,0,0,,12,,,71,127
50015,note_off,95,0,0,,12,,,71,127
50015,note_off,0,0,0,,10,,,57,127
50016,note_on,1,0,0,,12,,,83,127
50016,note_on,0,0,0,,7,,,55,127
50207,note_off,191,0,0,,7,,,55,127
50208,note_on,1,0,0,,6,,,54,127
50399,note_off,191,0,0,,6,,,54,127
50400,note_on,1,0,0,,4,,,52,127
50591,note_off,191,0,0,,4,,,52,127
50592,note_on,1,0,0,,2,,,50,127
50783,note_off,191,0,0,,2,,,50,127
50784,note_on,1,0,0,,4,,,52,127
50975,note_off,191,0,0,,12,,,83,127
50976,note_on,1,0,0,,7,,,79,127
50976,note_on,0,0,0,,4,,,76,127
51167,note_off,191,0,0,,4,,,76,127
51167,note_off,0,0,0,,7,,,79,127
51167,note_off,0,0,0,,4,,,52,127
51168,note_on,1,0,0,,2,,,74,127
51168,note_on,0,0,0,,6,,,78,127
51168,note_on,0,0,0,,6,,,54,127
51359,note_off,191,0,0,,6,,,78,127
51359,note_off,0,0,0,,2,,,74,127
51360,note_on,1,0,0,,4,,,76,127
51360,note_on,0,0,0,,1,,,73,127
51551,note_off,191,0,0,,1,,,73,127
51551,note_off,0,0,0,,4,,,76,127
51552,note_on,1,0,0,,12,,,71,127
51552,note_on,0,0,0,,2,,,74,127
51552,note_on,0,0,0,,11,,,58,127
51588,note_off,36,0,0,,6,,,54,127
51743,note_off,155,0,0,,2,,,74,127
51743,note_off,0,0,0,,12,,,71,127
51744,note_on,1,0,0,,11,,,70,127
51744,note_on,0,0,0,,1,,,73,127
51934,note_off,190,0,0,,1,,,73,127
51934,note_off,0,0,0,,11,,,70,127
51935,note_off,1,0,0,,11,,,58,127
51936,note_on,1,0,0,,12,,,59,127
51936,note_on,0,0,0,,12,,,47,127
52032,note_on,96,0,0,,12,,,83,127
52127,note_off,95,0,0,,12,,,83,127
52128,note_on,1,0,0,,11,,,82,127
52223,note_off,95,0,0,,11,,,82,127
52224,note_on,1,0,0,,8,,,80,127
52319,note_off,95,0,0,,8,,,80,127
52320,note_on,1,0,0,,6,,,78,127
52415,note_off,95,0,0,,12,,,47,127
52415,note_off,0,0,0,,12,,,59,127
52416,note_on,1,0,0,,1,,,61,127
52511,note_off,95,0,0,,1,,,61,127
52512,note_on,1,0,0,,3,,,63,127
52607,note_off,95,0,0,,3,,,63,127
52608,note_on,1,0,0,,4,,,64,127
52703,note_off,95,0,0,,4,,,64,127
52704,note_on,1,0,0,,6,,,66,127
52799,note_off,95,0,0,,6,,,66,127
52800,note_on,1,0,0,,8,,,68,127
52895,note_off,95,0,0,,8,,,68,127
52896,note_on,1,0,0,,11,,,70,127
52991,note_off,95,0,0,,11,,,70,127
52992,note_on,1,0,0,,12,,,71,127
53087,note_off,95,0,0,,12,,,71,127
53088,note_on,1,0,0,,12,,,59,127
53183,note_off,95,0,0,,6,,,78,127
53184,note_on,1,0,0,,12,,,83,127
53279,note_off,95,0,0,,12,,,83,127
53280,note_on,1,0,0,,11,,,82,127
53375,note_off,95,0,0,,11,,,82,127
53376,note_on,1,0,0,,8,,,80,127
53471,note_off,95,0,0,,8,,,80,127
53472,note_on,1,0,0,,6,,,78,127
53567,note_off,95,0,0,,12,,,59,127
53568,note_on,1,0,0,,12,,,71,127
53663,note_off,95,0,0,,12,,,71,127
53664,note_on,1,0,0,,11,,,70,127
53759,note_off,95,0,0,,11,,,70,127
53760,note_on,1,0,0,,8,,,68,127
53855,note_off,95,0,0,,8,,,68,127
53856,note_on,1,0,0,,6,,,66,127
53951,note_off,95,0,0,,6,,,66,127
53952,note_on,1,0,0,,4,,,64,127
54047,note_off,95,0,0,,4,,,64,127
54048,note_on,1,0,0,,3,,,63,127
54143,note_off,95,0,0,,3,,,63,127
54144,note_on,1,0,0,,1,,,61,127
54239,note_off,95,0,0,,1,,,61,127
54240,note_on,1,0,0,,12,,,59,127
54335,note_off,95,0,0,,6,,,78,127
54336,note_on,1,0,0,,12,,,83,127
54431,note_off,95,0,0,,12,,,83,127
54432,note_on,1,0,0,,11,,,82,127
54527,note_off,95,0,0,,11,,,82,127
54528,note_on,1,0,0,,8,,,80,127
54623,note_off,95,0,0,,8,,,80,127
54624,note_on,1,0,0,,6,,,78,127
54719,note_off,95,0,0,,6,,,78,127
54720,note_on,1,0,0,,4,,,76,127
54815,note_off,95,0,0,,4,,,76,127
54816,note_on,1,0,0,,3,,,75,127
54911,note_off,95,0,0,,3,,,75,127
54912,note_on,1,0,0,,1,,,73,127
55007,note_off,95,0,0,,1,,,73,127
55007,note_off,0,0,0,,12,,,59,127
55008,note_on,1,0,0,,12,,,71,127
55008,note_on,0,0,0,,3,,,51,127
55103,note_off,95,0,0,,12,,,71,127
55104,note_on,1,0,0,,11,,,70,127
55199,note_off,95,0,0,,11,,,70,127
55200,note_on,1,0,0,,8,,,68,127
55295,note_off,95,0,0,,8,,,68,127
55296,note_on,1,0,0,,6,,,66,127
55391,note_off,95,0,0,,6,,,66,127
55391,note_off,0,0,0,,3,,,51,127
55392,note_on,1,0,0,,4,,,76,127
55392,note_on,0,0,0,,4,,,52,127
55775,note_off,383,0,0,,4,,,52,127
55775,note_off,0,0,0,,4,,,76,127
55776,note_on,1,0,0,,3,,,75,127
55776,note_on,0,0,0,,6,,,54,127
55871,note_off,95,0,0,,3,,,75,127
55872,note_on,1,0,0,,1,,,73,127
55967,note_off,95,0,0,,1,,,73,127
55968,note_on,1,0,0,,3,,,75,127
56063,note_off,95,0,0,,3,,,75,127
56064,note_on,1,0,0,,1,,,73,127
56159,note_off,95,0,0,,1,,,73,127
56160,note_on,1,0,0,,3,,,75,127
56160,note_on,0,0,0,,6,,,42,127
56255,note_off,95,0,0,,3,,,75,127
56256,note_on,1,0,0,,1,,,73,127
56351,note_off,95,0,0,,1,,,73,127
56352,note_on,1,0,0,,12,,,71,127
56447,note_off,95,0,0,,12,,,71,127
56448,note_on,1,0,0,,11,,,70,127
56543,note_off,95,0,0,,6,,,42,127
56543,note_off,0,0,0,,6,,,54,127
56544,note_off,1,0,0,,11,,,70,127
56544,note_on,0,0,0,,12,,,47,127
56640,note_on,96,0,0,,12,,,71,127
56735,note_off,95,0,0,,12,,,71,127
56736,note_on,1,0,0,,11,,,70,127
56831,note_off,95,0,0,,11,,,70,127
56832,note_on,1,0,0,,8,,,68,127
56927,note_off,95,0,0,,8,,,68,127
56928,note_on,1,0,0,,6,,,66,127
57023,note_off,95,0,0,,12,,,47,127
57024,note_on,1,0,0,,1,,,49,127
57119,note_off,95,0,0,,1,,,49,127
57120,note_on,1,0,0,,3,,,51,127
57215,note_off,95,0,0,,3,,,51,127
57216,note_on,1,0,0,,4,,,52,127
57311,note_off,95,0,0,,4,,,52,127
57312,note_on,1,0,0,,6,,,54,127
57407,note_off,95,0,0,,6,,,54,127
57408,note_on,1,0,0,,8,,,56,127
57503,note_off,95,0,0,,8,,,56,127
57504,note_on,1,0,0,,11,,,58,127
57599,note_off,95,0,0,,11,,,58,127
57600,note_on,1,0,0,,12,,,59,127
57695,note_off,95,0,0,,12,,,59,127
57696,note_on,1,0,0,,12,,,47,127
57791,note_off,95,0,0,,6,,,66,127
57792,note_on,1,0,0,,12,,,71,127
57887,note_off,95,0,0,,12,,,71,127
57888,note_on,1,0,0,,11,,,70,127
57983,note_off,95,0,0,,11,,,70,127
57984,note_on,1,0,0,,8,,,68,127
58079,note_off,95,0,0,,8,,,68,127
58080,note_on,1,0,0,,6,,,66,127
58175,note_off,95,0,0,,12,,,47,127
58176,note_on,1,0,0,,12,,,59,127
58271,note_off,95,0,0,,12,,,59,127
58272,note_on,1,0,0,,11,,,58,127
58367,note_off,95,0,0,,11,,,58,127
58368,note_on,1,0,0,,8,,,56,127
58463,note_off,95,0,0,,8,,,56,127
58464,note_on,1,0,0,,6,,,54,127
58559,note_off,95,0,0,,6,,,54,127
58560,note_on,1,0,0,,4,,,52,127
58655,note_off,95,0,0,,4,,,52,127
58656,note_on,1,0,0,,3,,,51,127
58751,note_off,95,0,0,,3,,,51,127
58752,note_on,1,0,0,,1,,,49,127
58847,note_off,95,0,0,,1,,,49,127
58848,note_on,1,0,0,,12,,,47,127
58943,note_off,95,0,0,,6,,,66,127
58944,note_on,1,0,0,,12,,,71,127
59039,note_off,95,0,0,,12,,,71,127
59040,note_on,1,0,0,,11,,,70,127
59135,note_off,95,0,0,,11,,,70,127
59136,note_on,1,0,0,,8,,,68,127
59231,note_off,95,0,0,,8,,,68,127
59232,note_on,1,0,0,,6,,,66,127
59327,note_off,95,0,0,,6,,,66,127
59328,note_on,1,0,0,,4,,,64,127
59423,note_off,95,0,0,,4,,,64,127
59424,note_on,1,0,0,,3,,,63,127
59519,note_off,95,0,0,,3,,,63,127
59520,note_on,1,0,0,,1,,,61,127
59615,note_off,95,0,0,,1,,,61,127
59615,note_off,0,0,0,,12,,,47,127
59616,note_on,1,0,0,,12,,,59,127
59616,note_on,0,0,0,,3,,,51,127
59711,note_off,95,0,0,,12,,,59,127
59712,note_on,1,0,0,,11,,,58,127
59807,note_off,95,0,0,,11,,,58,127
59808,note_on,1,0,0,,8,,,56,127
59903,note_off,95,0,0,,8,,,56,127
59904,note_on,1,0,0,,6,,,54,127
59999,note_off,95,0,0,,6,,,54,127
59999,note_off,0,0,0,,3,,,51,127
60000,note_on,1,0,0,,8,,,68,127
60000,note_on,0,0,0,,4,,,52,127
60383,note_off,383,0,0,,4,,,52,127
60383,note_off,0,0,0,,8,,,68,127
60384,note_on,1,0,0,,6,,,66,127
60384,note_on,0,0,0,,6,,,54,127
60479,note_off,95,0,0,,6,,,66,127
60480,note_on,1,0,0,,4,,,64,127
60575,note_off,95,0,0,,4,,,64,127
60576,note_on,1,0,0,,6,,,66,127
60671,note_off,95,0,0,,6,,,66,127
60672,note_on,1,0,0,,4,,,64,127
60767,note_off,95,0,0,,4,,,64,127
60768,note_on,1,0,0,,6,,,66,127
60768,note_on,0,0,0,,6,,,42,127
60863,note_off,95,0,0,,6,,,66,127
60864,note_on,1,0,0,,4,,,64,127
60959,note_off,95,0,0,,4,,,64,127
60960,note_on,1,0,0,,3,,,63,127
61055,note_off,95,0,0,,3,,,63,127
61056,note_on,1,0,0,,4,,,64,127
61151,note_off,95,0,0,,4,,,64,127
61151,note_off,0,0,0,,6,,,42,127
61151,note_off,0,0,0,,6,,,54,127
61152,note_on,1,0,0,,3,,,63,127
61152,note_on,0,0,0,,12,,,47,127
61343,note_off,191,0,0,,3,,,63,127
61344,note_on,1,0,0,,3,,,75,127
61535,note_off,191,0,0,,3,,,75,127
61535,note_off,0,0,0,,12,,,47,127
61536,note_on,1,0,0,,3,,,63,127
61536,note_on,0,0,0,,12,,,59,127
61727,note_off,191,0,0,,3,,,63,127
61728,note_on,1,0,0,,3,,,75,127
61919,note_off,191,0,0,,3,,,75,127
61919,note_off,0,0,0,,12,,,59,127
61920,note_on,1,0,0,,3,,,63,127
61920,note_on,0,0,0,,11,,,58,127
62111,note_off,191,0,0,,3,,,63,127
62112,note_on,1,0,0,,3,,,75,127
62303,note_off,191,0,0,,3,,,75,127
62303,note_off,0,0,0,,11,,,58,127
62304,note_on,1,0,0,,4,,,64,127
62304,note_on,0,0,0,,8,,,56,127
62495,note_off,191,0,0,,4,,,64,127
62496,note_on,1,0,0,,4,,,76,127
62687,note_off,191,0,0,,4,,,76,127
62687,note_off,0,0,0,,8,,,56,127
62688,note_on,1,0,0,,5,,,65,127
62688,note_on,0,0,0,,6,,,54,127
62879,note_off,191,0,0,,5,,,65,127
62880,note_on,1,0,0,,5,,,77,127
63071,note_off,191,0,0,,5,,,77,127
63071,note_off,0,0,0,,6,,,54,127
63072,note_on,1,0,0,,6,,,66,127
63072,note_on,0,0,0,,4,,,52,127
63263,note_off,191,0,0,,6,,,66,127
63264,note_on,1,0,0,,6,,,78,127
63455,note_off,191,0,0,,6,,,78,127
63455,note_off,0,0,0,,4,,,52,127
63456,note_on,1,0,0,,8,,,68,127
63456,note_on,0,0,0,,3,,,51,127
63647,note_off,191,0,0,,8,,,68,127
63648,note_on,1,0,0,,8,,,80,127
63839,note_off,191,0,0,,8,,,80,127
63839,note_off,0,0,0,,3,,,51,127
63840,note_on,1,0,0,,11,,,70,127
63840,note_on,0,0,0,,1,,,49,127
64031,note_off,191,0,0,,11,,,70,127
64032,note_on,1,0,0,,11,,,82,127
64223,note_off,191,0,0,,11,,,82,127
64223,note_off,0,0,0,,1,,,49,127
64224,note_on,1,0,0,,12,,,71,127
64224,note_on,0,0,0,,12,,,47,127
64415,note_off,191,0,0,,12,,,71,127
64416,note_on,1,0,0,,12,,,83,127
64607,note_off,191,0,0,,12,,,47,127
64608,note_on,1,0,0,,4,,,52,127
64776,note_off,168,0,0,,12,,,83,127
64800,note_on,24,0,0,,8,,,80,127
64800,note_on,0,0,0,,4,,,76,127
64991,note_off,191,0,0,,4,,,76,127
64991,note_off,0,0,0,,8,,,80,127
64991,note_off,0,0,0,,4,,,52,127
64992,note_on,1,0,0,,3,,,75,127
64992,note_on,0,0,0,,6,,,78,127
64992,note_on,0,0,0,,6,,,54,127
65183,note_off,191,0,0,,6,,,78,127
65183,note_off,0,0,0,,3,,,75,127
65184,note_on,1,0,0,,1,,,73,127
65184,note_on,0,0,0,,4,,,76,127
65375,note_off,191,0,0,,4,,,76,127
65375,note_off,0,0,0,,1,,,73,127
65376,note_on,1,0,0,,3,,,75,127
65376,note_on,0,0,0,,12,,,71,127
65376,note_on,0,0,0,,6,,,42,127
65567,note_off,191,0,0,,12,,,71,127
65567,note_off,0,0,0,,3,,,75,127
65568,note_on,1,0,0,,1,,,73,127
65568,note_on,0,0,0,,11,,,70,127
65759,note_off,191,0,0,,11,,,70,127
65759,note_off,0,0,0,,1,,,73,127
65759,note_off,0,0,0,,6,,,42,127
65759,note_off,0,0,0,,6,,,54,127
65760,note_on,1,0,0,,3,,,63,127
65760,note_on,0,0,0,,12,,,47,127
65951,note_off,191,0,0,,3,,,63,127
65952,note_on,1,0,0,,3,,,75,127
66143,note_off,191,0,0,,3,,,75,127
66143,note_off,0,0,0,,12,,,47,127
66144,note_on,1,0,0,,3,,,63,127
66144,note_on,0,0,0,,12,,,59,127
66335,note_off,191,0,0,,3,,,63,127
66336,note_on,1,0,0,,3,,,75,127
66527,note_off,191,0,0,,3,,,75,127
66527,note_off,0,0,0,,12,,,59,127
66528,note_on,1,0,0,,3,,,63,127
66528,note_on,0,0,0,,11,,,58,127
66719,note_off,191,0,0,,3,,,63,127
66720,note_on,1,0,0,,3,,,75,127
66911,note_off,191,0,0,,3,,,75,127
66911,note_off,0,0,0,,11,,,58,127
66912,note_on,1,0,0,,4,,,64,127
66912,note_on,0,0,0,,8,,,56,127
67103,note_off,191,0,0,,4,,,64,127
67104,note_on,1,0,0,,4,,,76,127
67295,note_off,191,0,0,,4,,,76,127
67295,note_off,0,0,0,,8,,,56,127
67296,note_on,1,0,0,,5,,,65,127
67296,note_on,0,0,0,,6,,,54,127
67487,note_off,191,0,0,,5,,,65,127
67488,note_on,1,0,0,,5,,,77,127
67679,note_off,191,0,0,,5,,,77,127
67679,note_off,0,0,0,,6,,,54,127
67680,note_on,1,0,0,,6,,,66,127
67680,note_on,0,0,0,,4,,,52,127
67871,note_off,191,0,0,,6,,,66,127
67872,note_on,1,0,0,,6,,,78,127
68063,note_off,191,0,0,,6,,,78,127
68063,note_off,0,0,0,,4,,,52,127
68064,note_on,1,0,0,,8,,,68,127
68064,note_on,0,0,0,,3,,,51,127
68255,note_off,191,0,0,,8,,,68,127
68256,note_on,1,0,0,,8,,,80,127
68447,note_off,191,0,0,,8,,,80,127
68447,note_off,0,0,0,,3,,,51,127
68448,note_on,1,0,0,,11,,,70,127
68448,note_on,0,0,0,,1,,,49,127
68639,note_off,191,0,0,,11,,,70,127
68640,note_on,1,0,0,,11,,,82,127
68831,note_off,191,0,0,,11,,,82,127
68831,note_off,0,0,0,,1,,,49,127
68832,note_on,1,0,0,,12,,,71,127
68832,note_on,0,0,0,,12,,,47,127
69023,note_off,191,0,0,,12,,,71,127
69024,note_on,1,0,0,,12,,,83,127
69215,note_off,191,0,0,,12,,,47,127
69216,note_on,1,0,0,,4,,,52,127
69384,note_off,168,0,0,,12,,,83,127
69408,note_on,24,0,0,,4,,,76,127
69408,note_on,0,0,0,,8,,,80,127
69599,note_off,191,0,0,,8,,,80,127
69599,note_off,0,0,0,,4,,,76,127
69599,note_off,0,0,0,,4,,,52,127
69600,note_on,1,0,0,,3,,,75,127
69600,note_on,0,0,0,,6,,,78,127
69600,note_on,0,0,0,,6,,,54,127
69791,note_off,191,0,0,,6,,,78,127
69791,note_off,0,0,0,,3,,,75,127
69792,note_on,1,0,0,,4,,,76,127
69792,note_on,0,0,0,,1,,,73,127
69983,note_off,191,0,0,,1,,,73,127
69983,note_off,0,0,0,,4,,,76,127
69984,note_on,1,0,0,,12,,,71,127
69984,note_on,0,0,0,,3,,,75,127
69984,note_on,0,0,0,,6,,,42,127
70175,note_off,191,0,0,,3,,,75,127
70175,note_off,0,0,0,,12,,,71,127
70176,note_on,1,0,0,,11,,,70,127
70176,note_on,0,0,0,,1,,,73,127
70367,note_off,191,0,0,,6,,,42,127
70367,note_off,0,0,0,,6,,,54,127
70368,note_off,1,0,0,,1,,,73,127
70368,note_off,0,0,0,,11,,,70,127
70368,note_on,0,0,0,,12,,,59,127
70368,note_on,0,0,0,,12,,,47,127
70464,note_on,96,0,0,,12,,,83,127
70559,note_off,95,0,0,,12,,,83,127
70560,note_on,1,0,0,,11,,,82,127
70655,note_off,95,0,0,,11,,,82,127
70656,note_on,1,0,0,,8,,,80,127
70751,note_off,95,0,0,,8,,,80,127
70752,note_on,1,0,0,,6,,,78,127
70847,note_off,95,0,0,,6,,,78,127
70848,note_on,1,0,0,,4,,,76,127
70943,note_off,95,0,0,,4,,,76,127
70944,note_on,1,0,0,,3,,,75,127
71039,note_off,95,0,0,,3,,,75,127
71040,note_on,1,0,0,,1,,,73,127
71135,note_off,95,0,0,,1,,,73,127
71135,note_off,0,0,0,,12,,,47,127
71135,note_off,0,0,0,,12,,,59,127
71136,note_on,1,0,0,,12,,,71,127
71136,note_on,0,0,0,,12,,,59,127
71136,note_on,0,0,0,,3,,,51,127
71231,note_off,95,0,0,,12,,,71,127
71232,note_on,1,0,0,,11,,,70,127
71327,note_off,95,0,0,,11,,,70,127
71328,note_on,1,0,0,,8,,,68,127
71423,note_off,95,0,0,,8,,,68,127
71424,note_on,1,0,0,,6,,,66,127
71519,note_off,95,0,0,,6,,,66,127
71519,note_off,0,0,0,,3,,,51,127
71519,note_off,0,0,0,,12,,,59,127
71520,note_on,1,0,0,,4,,,76,127
71520,note_on,0,0,0,,4,,,52,127
71520,note_on,0,0,0,,12,,,59,127
71903,note_off,383,0,0,,4,,,52,127
71903,note_off,0,0,0,,4,,,76,127
71904,note_on,1,0,0,,3,,,75,127
71904,note_on,0,0,0,,6,,,54,127
71999,note_off,95,0,0,,3,,,75,127
72000,note_on,1,0,0,,1,,,73,127
72095,note_off,95,0,0,,1,,,73,127
72096,note_on,1,0,0,,3,,,75,127
72191,note_off,95,0,0,,3,,,75,127
72192,note_on,1,0,0,,1,,,73,127
72287,note_off,95,0,0,,1,,,73,127
72287,note_off,0,0,0,,12,,,59,127
72288,note_on,1,0,0,,3,,,75,127
72288,note_on,0,0,0,,11,,,58,127
72383,note_off,95,0,0,,3,,,75,127
72384,note_on,1,0,0,,1,,,73,127
72479,note_off,95,0,0,,1,,,73,127
72480,note_on,1,0,0,,12,,,71,127
72575,note_off,95,0,0,,12,,,71,127
72576,note_on,1,0,0,,1,,,73,127
72671,note_off,95,0,0,,1,,,73,127
72671,note_off,0,0,0,,11,,,58,127
72671,note_off,0,0,0,,6,,,54,127
72672,note_on,1,0,0,,3,,,75,127
72672,note_on,0,0,0,,12,,,59,127
72672,note_on,0,0,0,,12,,,47,127
72767,note_off,95,0,0,,3,,,75,127
72768,note_on,1,0,0,,12,,,83,127
72863,note_off,95,0,0,,12,,,83,127
72864,note_on,1,0,0,,11,,,82,127
72959,note_off,95,0,0,,11,,,82,127
72960,note_on,1,0,0,,8,,,80,127
73055,note_off,95,0,0,,8,,,80,127
73056,note_on,1,0,0,,6,,,78,127
73151,note_off,95,0,0,,6,,,78,127
73152,note_on,1,0,0,,4,,,76,127
73247,note_off,95,0,0,,4,,,76,127
73248,note_on,1,0,0,,3,,,75,127
73343,note_off,95,0,0,,3,,,75,127
73344,note_on,1,0,0,,1,,,73,127
73439,note_off,95,0,0,,1,,,73,127
73439,note_off,0,0,0,,12,,,47,127
73439,note_off,0,0,0,,12,,,59,127
73440,note_on,1,0,0,,12,,,71,127
73440,note_on,0,0,0,,12,,,59,127
73440,note_on,0,0,0,,3,,,51,127
73535,note_off,95,0,0,,12,,,71,127
73536,note_on,1,0,0,,11,,,70,127
73631,note_off,95,0,0,,11,,,70,127
73632,note_on,1,0,0,,8,,,68,127
73727,note_off,95,0,0,,8,,,68,127
73728,note_on,1,0,0,,6,,,66,127
73823,note_off,95,0,0,,6,,,66,127
73823,note_off,0,0,0,,3,,,51,127
73823,note_off,0,0,0,,12,,,59,127
73824,note_on,1,0,0,,8,,,80,127
73824,note_on,0,0,0,,12,,,59,127
73824,note_on,0,0,0,,4,,,52,127
74207,note_off,383,0,0,,4,,,52,127
74207,note_off,0,0,0,,8,,,80,127
74208,note_on,1,0,0,,3,,,75,127
74208,note_on,0,0,0,,6,,,54,127
74303,note_off,95,0,0,,3,,,75,127
74304,note_on,1,0,0,,1,,,73,127
74399,note_off,95,0,0,,1,,,73,127
74400,note_on,1,0,0,,3,,,75,127
74495,note_off,95,0,0,,3,,,75,127
74496,note_on,1,0,0,,1,,,73,127
74591,note_off,95,0,0,,1,,,73,127
74591,note_off,0,0,0,,12,,,59,127
74592,note_on,1,0,0,,3,,,75,127
74592,note_on,0,0,0,,11,,,58,127
74687,note_off,95,0,0,,3,,,75,127
74688,note_on,1,0,0,,1,,,73,127
74783,note_off,95,0,0,,1,,,73,127
74784,note_on,1,0,0,,12,,,71,127
74879,note_off,95,0,0,,12,,,71,127
74880,note_on,1,0,0,,11,,,70,127
74975,note_off,95,0,0,,11,,,70,127
74975,note_off,0,0,0,,11,,,58,127
74975,note_off,0,0,0,,6,,,54,127
74976,note_on,1,0,0,,12,,,71,127
74976,note_on,0,0,0,,12,,,59,127
74976,note_on,0,0,0,,12,,,47,127
75167,note_off,191,0,0,,12,,,71,127
75168,note_on,1,0,0,,6,,,66,127
75359,note_off,191,0,0,,6,,,66,127
75360,note_on,1,0,0,,3,,,63,127
75551,note_off,191,0,0,,12,,,47,127
75551,note_off,0,0,0,,12,,,59,127
75552,note_off,1,0,0,,3,,,63,127
75552,note_on,0,0,0,,12,,,59,127
75743,note_off,191,0,0,,12,,,59,127
75744,note_on,1,0,0,,6,,,54,127
75935,note_off,191,0,0,,6,,,54,127
75936,note_on,1,0,0,,3,,,51,127
76127,note_off,191,0,0,,3,,,51,127
76128,note_on,1,0,0,,12,,,47,127
77128,note_off,1000,0,0,,12,,,47,127
77280,note_on,152,0,0,,12,,,47,127
77664,note_on,384,0,0,,6,,,78,127
77664,note_on,0,0,0,,3,,,75,127
78047,note_off,383,0,0,,3,,,75,127
78047,note_off,0,0,0,,6,,,78,127
78048,note_on,1,0,0,,12,,,71,127
78048,note_on,0,0,0,,3,,,75,127
78431,note_off,383,0,0,,3,,,75,127
78431,note_off,0,0,0,,12,,,71,127
78432,note_on,1,0,0,,3,,,75,127
78432,note_on,0,0,0,,6,,,78,127
78623,note_off,191,0,0,,12,,,47,127
78624,note_on,1,0,0,,12,,,59,127
78816,note_on,192,0,0,,3,,,63,127
79007,note_off,191,0,0,,3,,,63,127
79008,note_on,1,0,0,,6,,,66,127
79199,note_off,191,0,0,,6,,,66,127
79200,note_off,1,0,0,,12,,,59,127
79200,note_on,0,0,0,,12,,,71,127
79391,note_off,191,0,0,,6,,,78,127
79391,note_off,0,0,0,,3,,,75,127
79392,note_on,1,0,0,,3,,,75,127
79583,note_off,191,0,0,,3,,,75,127
79584,note_on,1,0,0,,3,,,75,127
79775,note_off,191,0,0,,3,,,75,127
79775,note_off,0,0,0,,12,,,71,127
79776,note_on,1,0,0,,6,,,78,127
79776,note_on,0,0,0,,12,,,59,127
79968,note_on,192,0,0,,3,,,63,127
80159,note_off,191,0,0,,3,,,63,127
80160,note_on,1,0,0,,6,,,66,127
80351,note_off,191,0,0,,6,,,66,127
80352,note_off,1,0,0,,12,,,59,127
80352,note_on,0,0,0,,10,,,69,127
80543,note_off,191,0,0,,6,,,78,127
80544,note_on,1,0,0,,3,,,75,127
80735,note_off,191,0,0,,3,,,75,127
80736,note_on,1,0,0,,3,,,75,127
80927,note_off,191,0,0,,3,,,75,127
80927,note_off,0,0,0,,10,,,69,127
80928,note_on,1,0,0,,6,,,78,127
80928,note_on,0,0,0,,10,,,57,127
81120,note_on,192,0,0,,1,,,61,127
81311,note_off,191,0,0,,1,,,61,127
81312,note_on,1,0,0,,3,,,63,127
81503,note_off,191,0,0,,3,,,63,127
81504,note_off,1,0,0,,10,,,57,127
81504,note_on,0,0,0,,10,,,69,127
81695,note_off,191,0,0,,6,,,78,127
81696,note_on,1,0,0,,10,,,81,127
81887,note_off,191,0,0,,10,,,81,127
81888,note_on,1,0,0,,8,,,80,127
82079,note_off,191,0,0,,8,,,80,127
82079,note_off,0,0,0,,10,,,69,127
82080,note_on,1,0,0,,6,,,78,127
82080,note_on,0,0,0,,8,,,56,127
82272,note_on,192,0,0,,1,,,61,127
82463,note_off,191,0,0,,1,,,61,127
82464,note_on,1,0,0,,3,,,63,127
82655,note_off,191,0,0,,3,,,63,127
82656,note_off,1,0,0,,8,,,56,127
82656,note_on,0,0,0,,6,,,66,127
82847,note_off,191,0,0,,6,,,78,127
82848,note_on,1,0,0,,10,,,81,127
83039,note_off,191,0,0,,10,,,81,127
83040,note_on,1,0,0,,8,,,80,127
83040,note_on,0,0,0,,0,,,72,127
83231,note_off,191,0,0,,8,,,80,127
83231,note_off,0,0,0,,6,,,66,127
83232,note_on,1,0,0,,6,,,78,127
83232,note_on,0,0,0,,8,,,56,127
83424,note_on,192,0,0,,1,,,61,127
83615,note_off,191,0,0,,1,,,61,127
83616,note_on,1,0,0,,3,,,63,127
83807,note_off,191,0,0,,3,,,63,127
83808,note_off,1,0,0,,8,,,56,127
83808,note_off,0,0,0,,0,,,72,127
83808,note_on,0,0,0,,6,,,66,127
83999,note_off,191,0,0,,6,,,78,127
84000,note_on,1,0,0,,10,,,81,127
84191,note_off,191,0,0,,10,,,81,127
84192,note_on,1,0,0,,8,,,80,127
84192,note_on,0,0,0,,0,,,72,127
84383,note_off,191,0,0,,8,,,80,127
84383,note_off,0,0,0,,6,,,66,127
84384,note_on,1,0,0,,6,,,78,127
84384,note_on,0,0,0,,8,,,56,127
84576,note_on,192,0,0,,1,,,61,127
84767,note_off,191,0,0,,1,,,61,127
84768,note_on,1,0,0,,3,,,63,127
84959,note_off,191,0,0,,3,,,63,127
84960,note_off,1,0,0,,8,,,56,127
84960,note_off,0,0,0,,0,,,72,127
84960,note_on,0,0,0,,4,,,64,127
85151,note_off,191,0,0,,6,,,78,127
85152,note_on,1,0,0,,8,,,80,127
85343,note_off,191,0,0,,8,,,80,127
85344,note_on,1,0,0,,1,,,73,127
85344,note_on,0,0,0,,6,,,78,127
85535,note_off,191,0,0,,6,,,78,127
85535,note_off,0,0,0,,4,,,64,127
85536,note_on,1,0,0,,4,,,76,127
85536,note_on,0,0,0,,8,,,56,127
85728,note_on,192,0,0,,1,,,61,127
85919,note_off,191,0,0,,1,,,61,127
85920,note_on,1,0,0,,3,,,63,127
86111,note_off,191,0,0,,3,,,63,127
86112,note_off,1,0,0,,8,,,56,127
86112,note_on,0,0,0,,4,,,64,127
86303,note_off,191,0,0,,4,,,76,127
86304,note_off,1,0,0,,1,,,73,127
86304,note_on,0,0,0,,8,,,80,127
86495,note_off,191,0,0,,8,,,80,127
86496,note_on,1,0,0,,6,,,78,127
86496,note_on,0,0,0,,1,,,73,127
86687,note_off,191,0,0,,6,,,78,127
86687,note_off,0,0,0,,4,,,64,127
86688,note_on,1,0,0,,4,,,76,127
86688,note_on,0,0,0,,8,,,56,127
86880,note_on,192,0,0,,1,,,61,127
87071,note_off,191,0,0,,1,,,61,127
87072,note_on,1,0,0,,3,,,63,127
87263,note_off,191,0,0,,3,,,63,127
87264,note_off,1,0,0,,8,,,56,127
87264,note_on,0,0,0,,4,,,64,127
87455,note_off,191,0,0,,4,,,76,127
87456,note_off,1,0,0,,1,,,73,127
87456,note_on,0,0,0,,7,,,79,127
87647,note_off,191,0,0,,7,,,79,127
87648,note_on,1,0,0,,12,,,71,127
87648,note_on,0,0,0,,6,,,78,127
87839,note_off,191,0,0,,6,,,78,127
87839,note_off,0,0,0,,4,,,64,127
87840,note_on,1,0,0,,4,,,76,127
87840,note_on,0,0,0,,7,,,55,127
88032,note_on,192,0,0,,12,,,59,127
88223,note_off,191,0,0,,12,,,59,127
88224,note_on,1,0,0,,3,,,63,127
88415,note_off,191,0,0,,3,,,63,127
88416,note_off,1,0,0,,7,,,55,127
88416,note_on,0,0,0,,4,,,64,127
88607,note_off,191,0,0,,4,,,76,127
88608,note_off,1,0,0,,12,,,71,127
88608,note_on,0,0,0,,7,,,79,127
88799,note_off,191,0,0,,7,,,79,127
88800,note_on,1,0,0,,12,,,71,127
88800,note_on,0,0,0,,6,,,78,127
88991,note_off,191,0,0,,6,,,78,127
88991,note_off,0,0,0,,4,,,64,127
88992,note_on,1,0,0,,4,,,76,127
88992,note_on,0,0,0,,7,,,55,127
89184,note_on,192,0,0,,12,,,59,127
89375,note_off,191,0,0,,12,,,59,127
89376,note_on,1,0,0,,1,,,61,127
89567,note_off,191,0,0,,1,,,61,127
89568,note_off,1,0,0,,7,,,55,127
89568,note_on,0,0,0,,4,,,64,127
89759,note_off,191,0,0,,4,,,76,127
89760,note_off,1,0,0,,12,,,71,127
89760,note_on,0,0,0,,7,,,79,127
89951,note_off,191,0,0,,7,,,79,127
89952,note_on,1,0,0,,6,,,78,127
89952,note_on,0,0,0,,11,,,70,127
90143,note_off,191,0,0,,6,,,78,127
90143,note_off,0,0,0,,4,,,64,127
90144,note_on,1,0,0,,4,,,76,127
90144,note_on,0,0,0,,6,,,54,127
90336,note_on,192,0,0,,12,,,59,127
90527,note_off,191,0,0,,12,,,59,127
90528,note_on,1,0,0,,1,,,61,127
90719,note_off,191,0,0,,1,,,61,127
90720,note_off,1,0,0,,6,,,54,127
90720,note_on,0,0,0,,4,,,64,127
90911,note_off,191,0,0,,4,,,76,127
90912,note_off,1,0,0,,11,,,70,127
90912,note_on,0,0,0,,7,,,79,127
91103,note_off,191,0,0,,7,,,79,127
91104,note_on,1,0,0,,6,,,78,127
91104,note_on,0,0,0,,11,,,70,127
91295,note_off,191,0,0,,6,,,78,127
91295,note_off,0,0,0,,4,,,64,127
91296,note_on,1,0,0,,4,,,76,127
91296,note_on,0,0,0,,6,,,54,127
91488,note_on,192,0,0,,12,,,59,127
91679,note_off,191,0,0,,12,,,59,127
91680,note_on,1,0,0,,1,,,61,127
91871,note_off,191,0,0,,1,,,61,127
91872,note_off,1,0,0,,6,,,54,127
91872,note_on,0,0,0,,4,,,64,127
92063,note_off,191,0,0,,4,,,76,127
92064,note_off,1,0,0,,11,,,70,127
92064,note_on,0,0,0,,6,,,78,127
92255,note_off,191,0,0,,6,,,78,127
92256,note_on,1,0,0,,12,,,71,127
92256,note_on,0,0,0,,4,,,76,127
92447,note_off,191,0,0,,4,,,76,127
92447,note_off,0,0,0,,4,,,64,127
92448,note_on,1,0,0,,2,,,74,127
92448,note_on,0,0,0,,6,,,54,127
92640,note_on,192,0,0,,12,,,59,127
92831,note_off,191,0,0,,12,,,59,127
92832,note_on,1,0,0,,1,,,61,127
93023,note_off,191,0,0,,1,,,61,127
93024,note_off,1,0,0,,6,,,54,127
93024,note_on,0,0,0,,2,,,62,127
93215,note_off,191,0,0,,2,,,74,127
93216,note_off,1,0,0,,12,,,71,127
93216,note_on,0,0,0,,6,,,78,127
93407,note_off,191,0,0,,6,,,78,127
93408,note_on,1,0,0,,12,,,71,127
93408,note_on,0,0,0,,4,,,76,127
93599,note_off,191,0,0,,4,,,76,127
93599,note_off,0,0,0,,2,,,62,127
93600,note_on,1,0,0,,2,,,74,127
93600,note_on,0,0,0,,6,,,54,127
93792,note_on,192,0,0,,12,,,59,127
93983,note_off,191,0,0,,12,,,59,127
93984,note_on,1,0,0,,1,,,61,127
94175,note_off,191,0,0,,1,,,61,127
94176,note_off,1,0,0,,6,,,54,127
94176,note_on,0,0,0,,2,,,62,127
94367,note_off,191,0,0,,2,,,74,127
94368,note_off,1,0,0,,12,,,71,127
94368,note_on,0,0,0,,5,,,77,127
94559,note_off,191,0,0,,5,,,77,127
94560,note_on,1,0,0,,10,,,69,127
94560,note_on,0,0,0,,4,,,76,127
94751,note_off,191,0,0,,4,,,76,127
94751,note_off,0,0,0,,2,,,62,127
94752,note_on,1,0,0,,2,,,74,127
94752,note_on,0,0,0,,5,,,53,127
94944,note_on,192,0,0,,10,,,57,127
95135,note_off,191,0,0,,10,,,57,127
95136,note_on,1,0,0,,1,,,61,127
95327,note_off,191,0,0,,1,,,61,127
95328,note_off,1,0,0,,5,,,53,127
95328,note_on,0,0,0,,2,,,62,127
95519,note_off,191,0,0,,2,,,74,127
95520,note_off,1,0,0,,10,,,69,127
95520,note_on,0,0,0,,5,,,77,127
95711,note_off,191,0,0,,5,,,77,127
95712,note_on,1,0,0,,10,,,69,127
95712,note_on,0,0,0,,4,,,76,127
95903,note_off,191,0,0,,4,,,76,127
95903,note_off,0,0,0,,2,,,62,127
95904,note_on,1,0,0,,2,,,74,127
95904,note_on,0,0,0,,5,,,53,127
96096,note_on,192,0,0,,10,,,57,127
96287,note_off,191,0,0,,10,,,57,127
96288,note_on,1,0,0,,12,,,59,127
96479,note_off,191,0,0,,12,,,59,127
96480,note_off,1,0,0,,5,,,53,127
96480,note_on,0,0,0,,2,,,62,127
96671,note_off,191,0,0,,2,,,74,127
96672,note_off,1,0,0,,10,,,69,127
96672,note_on,0,0,0,,5,,,77,127
96863,note_off,191,0,0,,5,,,77,127
96864,note_on,1,0,0,,8,,,68,127
96864,note_on,0,0,0,,4,,,76,127
97055,note_off,191,0,0,,4,,,76,127
97055,note_off,0,0,0,,2,,,62,127
97056,note_on,1,0,0,,2,,,74,127
97056,note_on,0,0,0,,4,,,52,127
97248,note_on,192,0,0,,10,,,57,127
97439,note_off,191,0,0,,10,,,57,127
97440,note_on,1,0,0,,12,,,59,127
97631,note_off,191,0,0,,12,,,59,127
97632,note_off,1,0,0,,4,,,52,127
97632,note_on,0,0,0,,2,,,62,127
97823,note_off,191,0,0,,2,,,74,127
97824,note_on,1,0,0,,5,,,77,127
98014,note_off,190,0,0,,8,,,68,127
98015,note_off,1,0,0,,5,,,77,127
98016,note_on,1,0,0,,4,,,76,127
98016,note_on,0,0,0,,8,,,68,127
98207,note_off,191,0,0,,4,,,76,127
98207,note_off,0,0,0,,2,,,62,127
98208,note_on,1,0,0,,2,,,74,127
98208,note_on,0,0,0,,4,,,52,127
98400,note_on,192,0,0,,10,,,57,127
98591,note_off,191,0,0,,10,,,57,127
98592,note_on,1,0,0,,12,,,59,127
98783,note_off,191,0,0,,12,,,59,127
98784,note_off,1,0,0,,4,,,52,127
98784,note_on,0,0,0,,2,,,62,127
98975,note_off,191,0,0,,2,,,74,127
98976,note_on,1,0,0,,12,,,83,127
99166,note_off,190,0,0,,8,,,68,127
99167,note_off,1,0,0,,12,,,83,127
99168,note_on,1,0,0,,2,,,74,127
99168,note_on,0,0,0,,12,,,71,127
99359,note_off,191,0,0,,2,,,62,127
99360,note_on,1,0,0,,5,,,53,127
99552,note_on,192,0,0,,12,,,59,127
99743,note_off,191,0,0,,12,,,59,127
99744,note_on,1,0,0,,1,,,61,127
99935,note_off,191,0,0,,1,,,61,127
99936,note_off,1,0,0,,5,,,53,127
99936,note_on,0,0,0,,2,,,62,127
100127,note_off,191,0,0,,2,,,74,127
100128,note_on,1,0,0,,12,,,83,127
100318,note_off,190,0,0,,12,,,71,127
100319,note_off,1,0,0,,12,,,83,127
100320,note_on,1,0,0,,12,,,71,127
100320,note_on,0,0,0,,2,,,74,127
100511,note_off,191,0,0,,2,,,62,127
100512,note_on,1,0,0,,5,,,53,127
100704,note_on,192,0,0,,12,,,59,127
100895,note_off,191,0,0,,12,,,59,127
100896,note_on,1,0,0,,2,,,62,127
101087,note_off,191,0,0,,2,,,62,127
101088,note_off,1,0,0,,5,,,53,127
101088,note_on,0,0,0,,5,,,65,127
101279,note_off,191,0,0,,2,,,74,127
101280,note_on,1,0,0,,12,,,83,127
101470,note_off,190,0,0,,12,,,71,127
101471,note_off,1,0,0,,12,,,83,127
101471,note_off,0,0,0,,5,,,65,127
101472,note_on,1,0,0,,11,,,82,127
101472,note_on,0,0,0,,6,,,66,127
101472,note_on,0,0,0,,12,,,83,127
101663,note_off,191,0,0,,12,,,83,127
101663,note_off,0,0,0,,11,,,82,127
101664,note_on,1,0,0,,8,,,80,127
101855,note_off,191,0,0,,8,,,80,127
101856,note_on,1,0,0,,6,,,78,127
102047,note_off,191,0,0,,6,,,66,127
102048,note_on,1,0,0,,4,,,64,127
102239,note_off,191,0,0,,4,,,64,127
102240,note_on,1,0,0,,3,,,63,127
102336,note_off,96,0,0,,6,,,78,127
102431,note_off,95,0,0,,3,,,63,127
102432,note_on,1,0,0,,4,,,76,127
102432,note_on,0,0,0,,1,,,61,127
102623,note_off,191,0,0,,1,,,61,127
102623,note_off,0,0,0,,4,,,76,127
102624,note_on,1,0,0,,4,,,76,127
102624,note_on,0,0,0,,12,,,71,127
102624,note_on,0,0,0,,12,,,59,127
102719,note_off,95,0,0,,4,,,76,127
102720,note_on,1,0,0,,3,,,75,127
102815,note_off,95,0,0,,3,,,75,127
102816,note_on,1,0,0,,1,,,73,127
102911,note_off,95,0,0,,1,,,73,127
102912,note_on,1,0,0,,3,,,75,127
103007,note_off,95,0,0,,3,,,75,127
103007,note_off,0,0,0,,12,,,59,127
103007,note_off,0,0,0,,12,,,71,127
103008,note_on,1,0,0,,6,,,78,127
103008,note_on,0,0,0,,6,,,66,127
103008,note_on,0,0,0,,1,,,73,127
103008,note_on,0,0,0,,12,,,71,127
103103,note_off,95,0,0,,6,,,78,127
103104,note_on,1,0,0,,4,,,76,127
103199,note_off,95,0,0,,4,,,76,127
103200,note_on,1,0,0,,3,,,75,127
103295,note_off,95,0,0,,3,,,75,127
103296,note_on,1,0,0,,4,,,76,127
103391,note_off,95,0,0,,4,,,76,127
103391,note_off,0,0,0,,12,,,71,127
103391,note_off,0,0,0,,1,,,73,127
103391,note_off,0,0,0,,6,,,66,127
103392,note_on,1,0,0,,6,,,78,127
103392,note_on,0,0,0,,6,,,66,127
103392,note_on,0,0,0,,11,,,70,127
103583,note_off,191,0,0,,6,,,78,127
103584,note_on,1,0,0,,4,,,76,127
103775,note_off,191,0,0,,4,,,76,127
103775,note_off,0,0,0,,11,,,70,127
103775,note_off,0,0,0,,6,,,66,127
103776,note_on,1,0,0,,4,,,76,127
103776,note_on,0,0,0,,12,,,71,127
103776,note_on,0,0,0,,12,,,59,127
103871,note_off,95,0,0,,4,,,76,127
103872,note_on,1,0,0,,3,,,75,127
103967,note_off,95,0,0,,3,,,75,127
103968,note_on,1,0,0,,1,,,73,127
104063,note_off,95,0,0,,1,,,73,127
104064,note_on,1,0,0,,3,,,75,127
104159,note_off,95,0,0,,3,,,75,127
104159,note_off,0,0,0,,12,,,59,127
104159,note_off,0,0,0,,12,,,71,127
104160,note_on,1,0,0,,6,,,78,127
104160,note_on,0,0,0,,12,,,71,127
104160,note_on,0,0,0,,6,,,66,127
104160,note_on,0,0,0,,1,,,73,127
104255,note_off,95,0,0,,6,,,78,127
104256,note_on,1,0,0,,4,,,76,127
104351,note_off,95,0,0,,4,,,76,127
104352,note_on,1,0,0,,3,,,75,127
104447,note_off,95,0,0,,3,,,75,127
104448,note_on,1,0,0,,4,,,76,127
104543,note_off,95,0,0,,4,,,76,127
104543,note_off,0,0,0,,1,,,73,127
104543,note_off,0,0,0,,6,,,66,127
104543,note_off,0,0,0,,12,,,71,127
104544,note_on,1,0,0,,6,,,78,127
104544,note_on,0,0,0,,11,,,70,127
104544,note_on,0,0,0,,6,,,66,127
104735,note_off,191,0,0,,6,,,78,127
104736,note_on,1,0,0,,4,,,76,127
104927,note_off,191,0,0,,4,,,76,127
104927,note_off,0,0,0,,6,,,66,127
104927,note_off,0,0,0,,11,,,70,127
104928,note_on,1,0,0,,4,,,76,127
104928,note_on,0,0,0,,12,,,59,127
104928,note_on,0,0,0,,12,,,71,127
105023,note_off,95,0,0,,4,,,76,127
105024,note_on,1,0,0,,3,,,75,127
105119,note_off,95,0,0,,3,,,75,127
105120,note_on,1,0,0,,1,,,73,127
105215,note_off,95,0,0,,1,,,73,127
105216,note_on,1,0,0,,3,,,75,127
105311,note_off,95,0,0,,3,,,75,127
105311,note_off,0,0,0,,12,,,71,127
105311,note_off,0,0,0,,12,,,59,127
105312,note_on,1,0,0,,6,,,78,127
105312,note_on,0,0,0,,12,,,71,127
105312,note_on,0,0,0,,1,,,73,127
105312,note_on,0,0,0,,6,,,66,127
105407,note_off,95,0,0,,6,,,78,127
105408,note_on,1,0,0,,4,,,76,127
105503,note_off,95,0,0,,4,,,76,127
105504,note_on,1,0,0,,3,,,75,127
105599,note_off,95,0,0,,3,,,75,127
105600,note_on,1,0,0,,4,,,76,127
105695,note_off,95,0,0,,4,,,76,127
105695,note_off,0,0,0,,6,,,66,127
105695,note_off,0,0,0,,1,,,73,127
105695,note_off,0,0,0,,12,,,71,127
105696,note_on,1,0,0,,6,,,78,127
105696,note_on,0,0,0,,11,,,70,127
105696,note_on,0,0,0,,6,,,66,127
105887,note_off,191,0,0,,6,,,78,127
105888,note_on,1,0,0,,4,,,76,127
106079,note_off,191,0,0,,4,,,76,127
106079,note_off,0,0,0,,6,,,66,127
106079,note_off,0,0,0,,11,,,70,127
106080,note_on,1,0,0,,3,,,75,127
106080,note_on,0,0,0,,12,,,71,127
106080,note_on,0,0,0,,12,,,59,127
106176,note_on,96,0,0,,12,,,83,127
106270,note_off,94,0,0,,3,,,75,127
106271,note_off,1,0,0,,12,,,83,127
106272,note_on,1,0,0,,6,,,78,127
106367,note_off,95,0,0,,6,,,78,127
106368,note_on,1,0,0,,3,,,75,127
106460,note_off,92,0,0,,12,,,71,127
106463,note_off,3,0,0,,3,,,75,127
106464,note_on,1,0,0,,12,,,71,127
106560,note_on,96,0,0,,6,,,66,127
106655,note_off,95,0,0,,6,,,66,127
106655,note_off,0,0,0,,12,,,59,127
106656,note_on,1,0,0,,3,,,63,127
106751,note_off,95,0,0,,3,,,63,127
106752,note_on,1,0,0,,12,,,59,127
106844,note_off,92,0,0,,12,,,71,127
106847,note_off,3,0,0,,12,,,59,127
106848,note_on,1,0,0,,12,,,59,127
106944,note_on,96,0,0,,6,,,54,127
107039,note_off,95,0,0,,6,,,54,127
107040,note_on,1,0,0,,3,,,51,127
107135,note_off,95,0,0,,3,,,51,127
107136,note_on,1,0,0,,12,,,47,127
107228,note_off,92,0,0,,12,,,59,127
107231,note_off,3,0,0,,12,,,47,127
107232,note_on,1,0,0,,12,,,35,127
108383,note_off,1151,0,0,,12,,,35,127
108384,note_on,1,0,0,,6,,,66,127
108384,note_on,0,0,0,,3,,,63,127
108384,note_on,0,0,0,,12,,,59,127
108575,note_off,191,0,0,,6,,,66,127
108576,note_on,1,0,0,,7,,,67,127
108767,note_off,191,0,0,,7,,,67,127
108768,note_on,1,0,0,,10,,,69,127
108959,note_off,191,0,0,,12,,,59,127
108960,note_off,1,0,0,,3,,,63,127
108960,note_on,0,0,0,,3,,,63,127
108960,note_on,0,0,0,,12,,,59,127
109151,note_off,191,0,0,,12,,,59,127
109151,note_off,0,0,0,,3,,,63,127
109152,note_on,1,0,0,,4,,,64,127
109152,note_on,0,0,0,,2,,,62,127
109216,note_off,64,0,0,,2,,,62,127
109216,note_on,0,0,0,,0,,,60,127
109280,note_off,64,0,0,,0,,,60,127
109280,note_on,0,0,0,,2,,,62,127
109343,note_off,63,0,0,,4,,,64,127
109344,note_off,1,0,0,,2,,,62,127
109344,note_off,0,0,0,,10,,,69,127
109344,note_on,0,0,0,,10,,,69,127
109344,note_on,0,0,0,,0,,,60,127
109408,note_off,64,0,0,,0,,,60,127
109408,note_on,0,0,0,,12,,,59,127
109472,note_off,64,0,0,,12,,,59,127
109472,note_on,0,0,0,,0,,,60,127
109535,note_off,63,0,0,,10,,,69,127
109536,note_off,1,0,0,,0,,,60,127
109536,note_on,0,0,0,,5,,,65,127
109536,note_on,0,0,0,,2,,,62,127
109536,note_on,0,0,0,,8,,,68,127
109536,note_on,0,0,0,,12,,,59,127
109727,note_off,191,0,0,,8,,,68,127
109728,note_on,1,0,0,,10,,,69,127
109919,note_off,191,0,0,,10,,,69,127
109920,note_on,1,0,0,,12,,,71,127
110111,note_off,191,0,0,,12,,,59,127
110112,note_off,1,0,0,,2,,,62,127
110112,note_on,0,0,0,,2,,,62,127
110112,note_on,0,0,0,,12,,,59,127
110303,note_off,191,0,0,,12,,,59,127
110303,note_off,0,0,0,,2,,,62,127
110304,note_off,1,0,0,,5,,,65,127
110304,note_on,0,0,0,,4,,,64,127
110304,note_on,0,0,0,,2,,,62,127
110368,note_off,64,0,0,,2,,,62,127
110368,note_on,0,0,0,,0,,,60,127
110432,note_off,64,0,0,,0,,,60,127
110432,note_on,0,0,0,,2,,,62,127
110495,note_off,63,0,0,,4,,,64,127
110496,note_off,1,0,0,,2,,,62,127
110496,note_off,0,0,0,,12,,,71,127
110496,note_on,0,0,0,,10,,,69,127
110496,note_on,0,0,0,,0,,,60,127
110560,note_off,64,0,0,,0,,,60,127
110560,note_on,0,0,0,,12,,,59,127
110624,note_off,64,0,0,,12,,,59,127
110624,note_on,0,0,0,,0,,,60,127
110687,note_off,63,0,0,,10,,,69,127
110688,note_off,1,0,0,,0,,,60,127
110688,note_on,0,0,0,,3,,,63,127
110688,note_on,0,0,0,,6,,,66,127
110688,note_on,0,0,0,,12,,,59,127
110879,note_off,191,0,0,,6,,,66,127
110880,note_on,1,0,0,,7,,,67,127
111071,note_off,191,0,0,,7,,,67,127
111072,note_on,1,0,0,,10,,,69,127
111263,note_off,191,0,0,,12,,,59,127
111264,note_off,1,0,0,,3,,,63,127
111264,note_on,0,0,0,,3,,,63,127
111264,note_on,0,0,0,,12,,,59,127
111455,note_off,191,0,0,,12,,,59,127
111455,note_off,0,0,0,,3,,,63,127
111456,note_on,1,0,0,,4,,,64,127
111456,note_on,0,0,0,,2,,,62,127
111520,note_off,64,0,0,,2,,,62,127
111520,note_on,0,0,0,,0,,,60,127
111584,note_off,64,0,0,,0,,,60,127
111584,note_on,0,0,0,,2,,,62,127
111647,note_off,63,0,0,,4,,,64,127
111648,note_off,1,0,0,,2,,,62,127
111648,note_off,0,0,0,,10,,,69,127
111648,note_on,0,0,0,,10,,,69,127
111648,note_on,0,0,0,,0,,,60,127
111712,note_off,64,0,0,,0,,,60,127
111712,note_on,0,0,0,,12,,,59,127
111776,note_off,64,0,0,,12,,,59,127
111776,note_on,0,0,0,,0,,,60,127
111839,note_off,63,0,0,,10,,,69,127
111840,note_off,1,0,0,,0,,,60,127
111840,note_on,0,0,0,,5,,,65,127
111840,note_on,0,0,0,,2,,,62,127
111840,note_on,0,0,0,,8,,,68,127
111840,note_on,0,0,0,,12,,,59,127
112031,note_off,191,0,0,,8,,,68,127
112032,note_on,1,0,0,,10,,,69,127
112223,note_off,191,0,0,,10,,,69,127
112224,note_on,1,0,0,,12,,,71,127
112415,note_off,191,0,0,,12,,,71,127
112416,note_off,1,0,0,,2,,,62,127
112416,note_on,0,0,0,,0,,,72,127
112607,note_off,191,0,0,,0,,,72,127
112607,note_off,0,0,0,,12,,,59,127
112608,note_off,1,0,0,,5,,,65,127
112608,note_on,0,0,0,,2,,,74,127
112608,note_on,0,0,0,,2,,,62,127
112608,note_on,0,0,0,,10,,,57,127
112799,note_off,191,0,0,,2,,,62,127
112800,note_on,1,0,0,,4,,,64,127
112991,note_off,191,0,0,,4,,,64,127
112991,note_off,0,0,0,,10,,,57,127
112992,note_off,1,0,0,,2,,,74,127
112992,note_on,0,0,0,,5,,,65,127
112992,note_on,0,0,0,,2,,,74,127
112992,note_on,0,0,0,,8,,,56,127
113183,note_off,191,0,0,,5,,,65,127
113184,note_on,1,0,0,,2,,,62,127
113375,note_off,191,0,0,,2,,,62,127
113375,note_off,0,0,0,,8,,,56,127
113376,note_off,1,0,0,,2,,,74,127
113376,note_on,0,0,0,,2,,,62,127
113376,note_on,0,0,0,,2,,,74,127
113376,note_on,0,0,0,,12,,,59,127
113567,note_off,191,0,0,,2,,,62,127
113568,note_on,1,0,0,,4,,,64,127
113759,note_off,191,0,0,,4,,,64,127
113759,note_off,0,0,0,,12,,,59,127
113760,note_off,1,0,0,,2,,,74,127
113760,note_on,0,0,0,,5,,,65,127
113760,note_on,0,0,0,,2,,,74,127
113760,note_on,0,0,0,,10,,,57,127
113951,note_off,191,0,0,,5,,,65,127
113952,note_on,1,0,0,,2,,,62,127
114143,note_off,191,0,0,,2,,,62,127
114143,note_off,0,0,0,,10,,,57,127
114144,note_off,1,0,0,,2,,,74,127
114144,note_on,0,0,0,,2,,,62,127
114144,note_on,0,0,0,,2,,,74,127
114144,note_on,0,0,0,,8,,,56,127
114335,note_off,191,0,0,,2,,,62,127
114336,note_on,1,0,0,,4,,,64,127
114527,note_off,191,0,0,,4,,,64,127
114527,note_off,0,0,0,,8,,,56,127
114528,note_off,1,0,0,,2,,,74,127
114528,note_on,0,0,0,,5,,,65,127
114528,note_on,0,0,0,,2,,,74,127
114528,note_on,0,0,0,,12,,,59,127
114719,note_off,191,0,0,,5,,,65,127
114720,note_on,1,0,0,,2,,,62,127
114911,note_off,191,0,0,,2,,,62,127
114911,note_off,0,0,0,,12,,,59,127
114912,note_off,1,0,0,,2,,,74,127
114912,note_on,0,0,0,,4,,,76,127
114912,note_on,0,0,0,,4,,,64,127
114912,note_on,0,0,0,,11,,,58,127
115103,note_off,191,0,0,,4,,,64,127
115104,note_on,1,0,0,,6,,,66,127
115295,note_off,191,0,0,,6,,,66,127
115295,note_off,0,0,0,,11,,,58,127
115296,note_off,1,0,0,,4,,,76,127
115296,note_on,0,0,0,,7,,,67,127
115296,note_on,0,0,0,,4,,,76,127
115296,note_on,0,0,0,,1,,,61,127
115487,note_off,191,0,0,,7,,,67,127
115488,note_on,1,0,0,,4,,,64,127
115679,note_off,191,0,0,,4,,,64,127
115679,note_off,0,0,0,,1,,,61,127
115680,note_off,1,0,0,,4,,,76,127
115680,note_on,0,0,0,,4,,,76,127
115680,note_on,0,0,0,,4,,,64,127
115680,note_on,0,0,0,,12,,,59,127
115871,note_off,191,0,0,,4,,,64,127
115872,note_on,1,0,0,,6,,,66,127
116063,note_off,191,0,0,,6,,,66,127
116063,note_off,0,0,0,,12,,,59,127
116064,note_off,1,0,0,,4,,,76,127
116064,note_on,0,0,0,,7,,,67,127
116064,note_on,0,0,0,,4,,,76,127
116064,note_on,0,0,0,,11,,,58,127
116255,note_off,191,0,0,,7,,,67,127
116256,note_on,1,0,0,,4,,,64,127
116447,note_off,191,0,0,,4,,,64,127
116447,note_off,0,0,0,,11,,,58,127
116448,note_off,1,0,0,,4,,,76,127
116448,note_on,0,0,0,,4,,,76,127
116448,note_on,0,0,0,,4,,,64,127
116448,note_on,0,0,0,,1,,,61,127
116639,note_off,191,0,0,,4,,,64,127
116640,note_on,1,0,0,,6,,,66,127
116831,note_off,191,0,0,,6,,,66,127
116831,note_off,0,0,0,,1,,,61,127
116832,note_off,1,0,0,,4,,,76,127
116832,note_on,0,0,0,,4,,,76,127
116832,note_on,0,0,0,,7,,,67,127
116832,note_on,0,0,0,,12,,,59,127
117023,note_off,191,0,0,,7,,,67,127
117024,note_on,1,0,0,,4,,,64,127
117215,note_off,191,0,0,,4,,,64,127
117215,note_off,0,0,0,,12,,,59,127
117216,note_off,1,0,0,,4,,,76,127
117216,note_on,0,0,0,,4,,,76,127
117216,note_on,0,0,0,,4,,,64,127
117216,note_on,0,0,0,,11,,,58,127
117407,note_off,191,0,0,,4,,,64,127
117408,note_on,1,0,0,,6,,,66,127
117599,note_off,191,0,0,,6,,,66,127
117599,note_off,0,0,0,,11,,,58,127
117600,note_off,1,0,0,,4,,,76,127
117600,note_on,0,0,0,,7,,,67,127
117600,note_on,0,0,0,,4,,,76,127
117600,note_on,0,0,0,,1,,,61,127
117791,note_off,191,0,0,,7,,,67,127
117792,note_on,1,0,0,,4,,,64,127
117983,note_off,191,0,0,,4,,,64,127
117983,note_off,0,0,0,,1,,,61,127
117984,note_off,1,0,0,,4,,,76,127
117984,note_on,0,0,0,,4,,,76,127
117984,note_on,0,0,0,,4,,,64,127
117984,note_on,0,0,0,,12,,,59,127
118175,note_off,191,0,0,,4,,,64,127
118176,note_on,1,0,0,,6,,,66,127
118367,note_off,191,0,0,,6,,,66,127
118367,note_off,0,0,0,,12,,,59,127
118368,note_off,1,0,0,,4,,,76,127
118368,note_on,0,0,0,,7,,,67,127
118368,note_on,0,0,0,,4,,,76,127
118368,note_on,0,0,0,,11,,,58,127
118559,note_off,191,0,0,,7,,,67,127
118560,note_on,1,0,0,,4,,,64,127
118751,note_off,191,0,0,,4,,,64,127
118751,note_off,0,0,0,,11,,,58,127
118752,note_off,1,0,0,,4,,,76,127
118752,note_on,0,0,0,,6,,,66,127
118752,note_on,0,0,0,,3,,,75,127
118752,note_on,0,0,0,,12,,,59,127
118752,note_on,0,0,0,,4,,,76,127
118943,note_off,191,0,0,,4,,,76,127
118943,note_off,0,0,0,,3,,,75,127
118944,note_on,1,0,0,,1,,,73,127
119135,note_off,191,0,0,,1,,,73,127
119136,note_on,1,0,0,,12,,,71,127
119327,note_off,191,0,0,,12,,,59,127
119328,note_off,1,0,0,,6,,,66,127
119328,note_on,0,0,0,,10,,,69,127
119519,note_off,191,0,0,,10,,,69,127
119520,note_on,1,0,0,,7,,,67,127
119711,note_off,191,0,0,,7,,,67,127
119712,note_on,1,0,0,,6,,,66,127
119903,note_off,191,0,0,,6,,,66,127
119903,note_off,0,0,0,,12,,,71,127
119904,note_on,1,0,0,,4,,,64,127
120096,note_on,192,0,0,,12,,,71,127
120287,note_off,191,0,0,,12,,,71,127
120288,note_on,1,0,0,,7,,,79,127
120479,note_off,191,0,0,,7,,,79,127
120479,note_off,0,0,0,,4,,,64,127
120480,note_on,1,0,0,,6,,,78,127
120480,note_on,0,0,0,,2,,,62,127
120671,note_off,191,0,0,,2,,,62,127
120671,note_off,0,0,0,,6,,,78,127
120672,note_on,1,0,0,,4,,,76,127
120672,note_on,0,0,0,,0,,,60,127
120863,note_off,191,0,0,,0,,,60,127
120863,note_off,0,0,0,,4,,,76,127
120864,note_on,1,0,0,,2,,,74,127
120864,note_on,0,0,0,,12,,,59,127
121055,note_off,191,0,0,,12,,,59,127
121055,note_off,0,0,0,,2,,,74,127
121056,note_on,1,0,0,,0,,,72,127
121056,note_on,0,0,0,,4,,,64,127
121056,note_on,0,0,0,,10,,,57,127
121248,note_on,192,0,0,,10,,,69,127
121439,note_off,191,0,0,,10,,,69,127
121440,note_on,1,0,0,,12,,,71,127
121631,note_off,191,0,0,,12,,,71,127
121632,note_on,1,0,0,,10,,,69,127
121823,note_off,191,0,0,,10,,,69,127
121823,note_off,0,0,0,,10,,,57,127
121823,note_off,0,0,0,,4,,,64,127
121824,note_off,1,0,0,,0,,,72,127
121824,note_on,0,0,0,,7,,,67,127
121824,note_on,0,0,0,,3,,,75,127
121824,note_on,0,0,0,,12,,,59,127
121824,note_on,0,0,0,,3,,,63,127
122015,note_off,191,0,0,,7,,,67,127
122016,note_on,1,0,0,,6,,,66,127
122207,note_off,191,0,0,,3,,,63,127
122207,note_off,0,0,0,,12,,,59,127
122208,note_off,1,0,0,,6,,,66,127
122208,note_off,0,0,0,,3,,,75,127
122208,note_on,0,0,0,,4,,,64,127
122400,note_on,192,0,0,,12,,,71,127
122591,note_off,191,0,0,,12,,,71,127
122592,note_on,1,0,0,,7,,,79,127
122783,note_off,191,0,0,,7,,,79,127
122783,note_off,0,0,0,,4,,,64,127
122784,note_on,1,0,0,,6,,,78,127
122784,note_on,0,0,0,,2,,,62,127
122975,note_off,191,0,0,,2,,,62,127
122975,note_off,0,0,0,,6,,,78,127
122976,note_on,1,0,0,,4,,,76,127
122976,note_on,0,0,0,,0,,,60,127
123167,note_off,191,0,0,,0,,,60,127
123167,note_off,0,0,0,,4,,,76,127
123168,note_on,1,0,0,,2,,,74,127
123168,note_on,0,0,0,,12,,,59,127
123359,note_off,191,0,0,,12,,,59,127
123359,note_off,0,0,0,,2,,,74,127
123360,note_on,1,0,0,,0,,,72,127
123360,note_on,0,0,0,,4,,,64,127
123360,note_on,0,0,0,,10,,,57,127
123552,note_on,192,0,0,,10,,,69,127
123743,note_off,191,0,0,,10,,,69,127
123744,note_on,1,0,0,,12,,,71,127
123935,note_off,191,0,0,,12,,,71,127
123936,note_on,1,0,0,,10,,,69,127
124127,note_off,191,0,0,,10,,,69,127
124127,note_off,0,0,0,,10,,,57,127
124127,note_off,0,0,0,,4,,,64,127
124128,note_off,1,0,0,,0,,,72,127
124128,note_on,0,0,0,,7,,,67,127
124128,note_on,0,0,0,,3,,,75,127
124128,note_on,0,0,0,,12,,,59,127
124128,note_on,0,0,0,,3,,,63,127
124319,note_off,191,0,0,,7,,,67,127
124320,note_on,1,0,0,,6,,,66,127
124511,note_off,191,0,0,,6,,,66,127
124511,note_off,0,0,0,,3,,,63,127
124511,note_off,0,0,0,,12,,,59,127
124512,note_off,1,0,0,,3,,,75,127
124512,note_on,0,0,0,,6,,,78,127
124512,note_on,0,0,0,,0,,,60,127
124512,note_on,0,0,0,,4,,,64,127
124607,note_off,95,0,0,,6,,,78,127
124608,note_on,1,0,0,,4,,,76,127
124703,note_off,95,0,0,,4,,,76,127
124704,note_on,1,0,0,,3,,,75,127
124799,note_off,95,0,0,,3,,,75,127
124800,note_on,1,0,0,,4,,,76,127
124895,note_off,95,0,0,,4,,,76,127
124895,note_off,0,0,0,,4,,,64,127
124895,note_off,0,0,0,,0,,,60,127
124896,note_on,1,0,0,,6,,,78,127
124896,note_on,0,0,0,,10,,,57,127
125087,note_off,191,0,0,,6,,,78,127
125088,note_on,1,0,0,,10,,,81,127
125279,note_off,191,0,0,,10,,,81,127
125279,note_off,0,0,0,,10,,,57,127
125280,note_on,1,0,0,,7,,,79,127
125280,note_on,0,0,0,,12,,,59,127
125280,note_on,0,0,0,,3,,,63,127
125471,note_off,191,0,0,,7,,,79,127
125472,note_on,1,0,0,,6,,,78,127
125663,note_off,191,0,0,,6,,,78,127
125663,note_off,0,0,0,,3,,,63,127
125663,note_off,0,0,0,,12,,,59,127
125664,note_on,1,0,0,,6,,,78,127
125664,note_on,0,0,0,,4,,,64,127
125664,note_on,0,0,0,,0,,,60,127
125759,note_off,95,0,0,,6,,,78,127
125760,note_on,1,0,0,,4,,,76,127
125855,note_off,95,0,0,,4,,,76,127
125856,note_on,1,0,0,,3,,,75,127
125951,note_off,95,0,0,,3,,,75,127
125952,note_on,1,0,0,,4,,,76,127
126047,note_off,95,0,0,,4,,,76,127
126047,note_off,0,0,0,,0,,,60,127
126047,note_off,0,0,0,,4,,,64,127
126048,note_on,1,0,0,,6,,,78,127
126048,note_on,0,0,0,,10,,,57,127
126239,note_off,191,0,0,,6,,,78,127
126240,note_on,1,0,0,,10,,,81,127
126431,note_off,191,0,0,,10,,,81,127
126431,note_off,0,0,0,,10,,,57,127
126432,note_on,1,0,0,,7,,,79,127
126432,note_on,0,0,0,,3,,,63,127
126432,note_on,0,0,0,,12,,,59,127
126623,note_off,191,0,0,,7,,,79,127
126624,note_on,1,0,0,,6,,,78,127
126815,note_off,191,0,0,,6,,,78,127
126815,note_off,0,0,0,,12,,,59,127
126815,note_off,0,0,0,,3,,,63,127
126816,note_on,1,0,0,,10,,,81,127
126816,note_on,0,0,0,,4,,,64,127
126911,note_off,95,0,0,,10,,,81,127
126912,note_on,1,0,0,,7,,,79,127
127007,note_off,95,0,0,,7,,,79,127
127007,note_off,0,0,0,,4,,,64,127
127008,note_on,1,0,0,,6,,,78,127
127008,note_on,0,0,0,,3,,,63,127
127103,note_off,95,0,0,,3,,,63,127
127103,note_off,0,0,0,,6,,,78,127
127104,note_on,1,0,0,,7,,,79,127
127104,note_on,0,0,0,,4,,,64,127
127199,note_off,95,0,0,,4,,,64,127
127199,note_off,0,0,0,,7,,,79,127
127200,note_on,1,0,0,,10,,,81,127
127200,note_on,0,0,0,,6,,,66,127
127391,note_off,191,0,0,,6,,,66,127
127391,note_off,0,0,0,,10,,,81,127
127392,note_on,1,0,0,,3,,,75,127
127392,note_on,0,0,0,,10,,,69,127
127583,note_off,191,0,0,,10,,,69,127
127583,note_off,0,0,0,,3,,,75,127
127584,note_on,1,0,0,,4,,,76,127
127584,note_on,0,0,0,,7,,,67,127
127775,note_off,191,0,0,,7,,,67,127
127775,note_off,0,0,0,,4,,,76,127
127776,note_on,1,0,0,,6,,,78,127
127776,note_on,0,0,0,,6,,,66,127
127967,note_off,191,0,0,,6,,,66,127
127967,note_off,0,0,0,,6,,,78,127
127968,note_on,1,0,0,,7,,,79,127
127968,note_on,0,0,0,,4,,,64,127
127968,note_on,0,0,0,,4,,,52,127
128159,note_off,191,0,0,,4,,,52,127
128159,note_off,0,0,0,,4,,,64,127
128159,note_off,0,0,0,,7,,,79,127
128160,note_on,1,0,0,,6,,,78,127
128160,note_on,0,0,0,,2,,,62,127
128160,note_on,0,0,0,,2,,,50,127
128351,note_off,191,0,0,,2,,,50,127
128351,note_off,0,0,0,,2,,,62,127
128351,note_off,0,0,0,,6,,,78,127
128352,note_on,1,0,0,,4,,,76,127
128352,note_on,0,0,0,,0,,,60,127
128352,note_on,0,0,0,,0,,,48,127
128543,note_off,191,0,0,,0,,,48,127
128543,note_off,0,0,0,,0,,,60,127
128544,note_on,1,0,0,,12,,,47,127
128544,note_on,0,0,0,,12,,,59,127
128735,note_off,191,0,0,,12,,,59,127
128735,note_off,0,0,0,,12,,,47,127
128735,note_off,0,0,0,,4,,,76,127
128736,note_on,1,0,0,,0,,,84,127
128736,note_on,0,0,0,,10,,,57,127
128736,note_on,0,0,0,,10,,,45,127
128927,note_off,191,0,0,,10,,,45,127
128927,note_off,0,0,0,,10,,,57,127
128928,note_on,1,0,0,,7,,,55,127
128928,note_on,0,0,0,,7,,,43,127
129119,note_off,191,0,0,,7,,,43,127
129119,note_off,0,0,0,,7,,,55,127
129120,note_on,1,0,0,,10,,,57,127
129120,note_on,0,0,0,,10,,,45,127
129311,note_off,191,0,0,,0,,,84,127
129312,note_on,1,0,0,,10,,,81,127
129312,note_on,0,0,0,,0,,,84,127
129503,note_off,191,0,0,,0,,,84,127
129503,note_off,0,0,0,,10,,,81,127
129503,note_off,0,0,0,,10,,,45,127
129503,note_off,0,0,0,,10,,,57,127
129504,note_on,1,0,0,,7,,,79,127
129504,note_on,0,0,0,,12,,,83,127
129504,note_on,0,0,0,,12,,,59,127
129695,note_off,191,0,0,,12,,,83,127
129695,note_off,0,0,0,,7,,,79,127
129696,note_on,1,0,0,,10,,,81,127
129696,note_on,0,0,0,,6,,,78,127
129887,note_off,191,0,0,,6,,,78,127
129887,note_off,0,0,0,,10,,,81,127
129888,note_on,1,0,0,,7,,,79,127
129888,note_on,0,0,0,,4,,,76,127
129888,note_on,0,0,0,,12,,,47,127
130079,note_off,191,0,0,,4,,,76,127
130079,note_off,0,0,0,,7,,,79,127
130080,note_on,1,0,0,,3,,,75,127
130080,note_on,0,0,0,,6,,,78,127
130271,note_off,191,0,0,,6,,,78,127
130271,note_off,0,0,0,,3,,,75,127
130271,note_off,0,0,0,,12,,,47,127
130271,note_off,0,0,0,,12,,,59,127
130272,note_on,1,0,0,,10,,,81,127
130272,note_on,0,0,0,,4,,,64,127
130367,note_off,95,0,0,,10,,,81,127
130368,note_on,1,0,0,,7,,,79,127
130463,note_off,95,0,0,,7,,,79,127
130463,note_off,0,0,0,,4,,,64,127
130464,note_on,1,0,0,,6,,,78,127
130464,note_on,0,0,0,,3,,,63,127
130559,note_off,95,0,0,,3,,,63,127
130559,note_off,0,0,0,,6,,,78,127
130560,note_on,1,0,0,,7,,,79,127
130560,note_on,0,0,0,,4,,,64,127
130655,note_off,95,0,0,,4,,,64,127
130655,note_off,0,0,0,,7,,,79,127
130656,note_on,1,0,0,,10,,,81,127
130656,note_on,0,0,0,,6,,,66,127
130847,note_off,191,0,0,,6,,,66,127
130847,note_off,0,0,0,,10,,,81,127
130848,note_on,1,0,0,,3,,,75,127
130848,note_on,0,0,0,,10,,,69,127
131039,note_off,191,0,0,,10,,,69,127
131039,note_off,0,0,0,,3,,,75,127
131040,note_on,1,0,0,,4,,,76,127
131040,note_on,0,0,0,,7,,,67,127
131231,note_off,191,0,0,,7,,,67,127
131231,note_off,0,0,0,,4,,,76,127
131232,note_on,1,0,0,,6,,,78,127
131232,note_on,0,0,0,,6,,,66,127
131423,note_off,191,0,0,,6,,,66,127
131423,note_off,0,0,0,,6,,,78,127
131424,note_on,1,0,0,,7,,,79,127
131424,note_on,0,0,0,,4,,,52,127
131424,note_on,0,0,0,,4,,,64,127
131615,note_off,191,0,0,,4,,,64,127
131615,note_off,0,0,0,,4,,,52,127
131615,note_off,0,0,0,,7,,,79,127
131616,note_on,1,0,0,,6,,,78,127
131616,note_on,0,0,0,,2,,,62,127
131616,note_on,0,0,0,,2,,,50,127
131807,note_off,191,0,0,,2,,,50,127
131807,note_off,0,0,0,,2,,,62,127
131807,note_off,0,0,0,,6,,,78,127
131808,note_on,1,0,0,,4,,,76,127
131808,note_on,0,0,0,,0,,,60,127
131808,note_on,0,0,0,,0,,,48,127
131999,note_off,191,0,0,,0,,,48,127
131999,note_off,0,0,0,,0,,,60,127
132000,note_on,1,0,0,,12,,,59,127
132000,note_on,0,0,0,,12,,,47,127
132191,note_off,191,0,0,,12,,,47,127
132191,note_off,0,0,0,,12,,,59,127
132191,note_off,0,0,0,,4,,,76,127
132192,note_on,1,0,0,,0,,,84,127
132192,note_on,0,0,0,,10,,,57,127
132192,note_on,0,0,0,,10,,,45,127
132383,note_off,191,0,0,,10,,,45,127
132383,note_off,0,0,0,,10,,,57,127
132384,note_on,1,0,0,,7,,,55,127
132384,note_on,0,0,0,,7,,,43,127
132575,note_off,191,0,0,,7,,,43,127
132575,note_off,0,0,0,,7,,,55,127
132576,note_on,1,0,0,,10,,,57,127
132576,note_on,0,0,0,,10,,,45,127
132767,note_off,191,0,0,,0,,,84,127
132768,note_on,1,0,0,,0,,,84,127
132768,note_on,0,0,0,,10,,,81,127
132959,note_off,191,0,0,,10,,,81,127
132959,note_off,0,0,0,,0,,,84,127
132959,note_off,0,0,0,,10,,,45,127
132959,note_off,0,0,0,,10,,,57,127
132960,note_on,1,0,0,,7,,,79,127
132960,note_on,0,0,0,,12,,,83,127
132960,note_on,0,0,0,,12,,,59,127
133151,note_off,191,0,0,,12,,,83,127
133151,note_off,0,0,0,,7,,,79,127
133152,note_on,1,0,0,,10,,,81,127
133152,note_on,0,0,0,,6,,,78,127
133343,note_off,191,0,0,,6,,,78,127
133343,note_off,0,0,0,,10,,,81,127
133344,note_on,1,0,0,,7,,,79,127
133344,note_on,0,0,0,,4,,,76,127
133344,note_on,0,0,0,,12,,,47,127
133535,note_off,191,0,0,,4,,,76,127
133535,note_off,0,0,0,,7,,,79,127
133536,note_on,1,0,0,,6,,,78,127
133536,note_on,0,0,0,,3,,,75,127
133726,note_off,190,0,0,,3,,,75,127
133726,note_off,0,0,0,,6,,,78,127
133727,note_off,1,0,0,,12,,,47,127
133727,note_off,0,0,0,,12,,,59,127
133728,note_on,1,0,0,,4,,,52,127
133824,note_on,96,0,0,,4,,,76,127
133919,note_off,95,0,0,,4,,,76,127
133920,note_on,1,0,0,,3,,,75,127
134015,note_off,95,0,0,,3,,,75,127
134016,note_on,1,0,0,,1,,,73,127
134111,note_off,95,0,0,,1,,,73,127
134112,note_on,1,0,0,,12,,,71,127
134207,note_off,95,0,0,,4,,,52,127
134208,note_on,1,0,0,,6,,,54,127
134303,note_off,95,0,0,,6,,,54,127
134304,note_on,1,0,0,,8,,,56,127
134399,note_off,95,0,0,,8,,,56,127
134400,note_on,1,0,0,,10,,,57,127
134495,note_off,95,0,0,,10,,,57,127
134496,note_on,1,0,0,,12,,,59,127
134591,note_off,95,0,0,,12,,,59,127
134592,note_on,1,0,0,,1,,,61,127
134687,note_off,95,0,0,,1,,,61,127
134688,note_on,1,0,0,,3,,,63,127
134783,note_off,95,0,0,,3,,,63,127
134784,note_on,1,0,0,,4,,,64,127
134879,note_off,95,0,0,,4,,,64,127
134880,note_on,1,0,0,,4,,,52,127
134975,note_off,95,0,0,,12,,,71,127
134976,note_on,1,0,0,,4,,,76,127
135071,note_off,95,0,0,,4,,,76,127
135072,note_on,1,0,0,,3,,,75,127
135167,note_off,95,0,0,,3,,,75,127
135168,note_on,1,0,0,,1,,,73,127
135263,note_off,95,0,0,,1,,,73,127
135264,note_on,1,0,0,,12,,,71,127
135359,note_off,95,0,0,,4,,,52,127
135360,note_on,1,0,0,,4,,,64,127
135455,note_off,95,0,0,,4,,,64,127
135456,note_on,1,0,0,,3,,,63,127
135551,note_off,95,0,0,,3,,,63,127
135552,note_on,1,0,0,,1,,,61,127
135647,note_off,95,0,0,,1,,,61,127
135648,note_on,1,0,0,,12,,,59,127
135743,note_off,95,0,0,,12,,,59,127
135744,note_on,1,0,0,,10,,,57,127
135839,note_off,95,0,0,,10,,,57,127
135840,note_on,1,0,0,,8,,,56,127
135935,note_off,95,0,0,,8,,,56,127
135936,note_on,1,0,0,,6,,,54,127
136031,note_off,95,0,0,,6,,,54,127
136032,note_on,1,0,0,,4,,,52,127
136127,note_off,95,0,0,,12,,,71,127
136128,note_on,1,0,0,,4,,,76,127
136223,note_off,95,0,0,,4,,,76,127
136224,note_on,1,0,0,,3,,,75,127
136319,note_off,95,0,0,,3,,,75,127
136320,note_on,1,0,0,,1,,,73,127
136415,note_off,95,0,0,,1,,,73,127
136416,note_on,1,0,0,,12,,,71,127
136511,note_off,95,0,0,,12,,,71,127
136512,note_on,1,0,0,,10,,,69,127
136607,note_off,95,0,0,,10,,,69,127
136608,note_on,1,0,0,,8,,,68,127
136703,note_off,95,0,0,,8,,,68,127
136704,note_on,1,0,0,,6,,,66,127
136799,note_off,95,0,0,,6,,,66,127
136799,note_off,0,0,0,,4,,,52,127
136800,note_on,1,0,0,,4,,,64,127
136800,note_on,0,0,0,,8,,,56,127
136895,note_off,95,0,0,,4,,,64,127
136896,note_on,1,0,0,,3,,,63,127
136991,note_off,95,0,0,,3,,,63,127
136992,note_on,1,0,0,,1,,,61,127
137087,note_off,95,0,0,,1,,,61,127
137088,note_on,1,0,0,,12,,,59,127
137183,note_off,95,0,0,,12,,,59,127
137183,note_off,0,0,0,,8,,,56,127
137184,note_on,1,0,0,,1,,,73,127
137184,note_on,0,0,0,,10,,,57,127
137567,note_off,383,0,0,,10,,,57,127
137567,note_off,0,0,0,,1,,,73,127
137568,note_on,1,0,0,,12,,,71,127
137568,note_on,0,0,0,,12,,,59,127
137663,note_off,95,0,0,,12,,,71,127
137664,note_on,1,0,0,,10,,,69,127
137759,note_off,95,0,0,,10,,,69,127
137760,note_on,1,0,0,,12,,,71,127
137855,note_off,95,0,0,,12,,,71,127
137856,note_on,1,0,0,,10,,,69,127
137951,note_off,95,0,0,,10,,,69,127
137952,note_on,1,0,0,,12,,,71,127
137952,note_on,0,0,0,,12,,,47,127
138047,note_off,95,0,0,,12,,,71,127
138048,note_on,1,0,0,,10,,,69,127
138143,note_off,95,0,0,,10,,,69,127
138144,note_on,1,0,0,,8,,,68,127
138239,note_off,95,0,0,,8,,,68,127
138240,note_on,1,0,0,,10,,,69,127
138335,note_off,95,0,0,,10,,,69,127
138335,note_off,0,0,0,,12,,,47,127
138335,note_off,0,0,0,,12,,,59,127
138336,note_on,1,0,0,,8,,,68,127
138336,note_on,0,0,0,,4,,,52,127
138527,note_off,191,0,0,,8,,,68,127
138528,note_on,1,0,0,,8,,,80,127
138719,note_off,191,0,0,,8,,,80,127
138719,note_off,0,0,0,,4,,,52,127
138720,note_on,1,0,0,,8,,,68,127
138720,note_on,0,0,0,,4,,,64,127
138911,note_off,191,0,0,,8,,,68,127
138912,note_on,1,0,0,,8,,,80,127
139103,note_off,191,0,0,,8,,,80,127
139103,note_off,0,0,0,,4,,,64,127
139104,note_on,1,0,0,,8,,,68,127
139104,note_on,0,0,0,,3,,,63,127
139295,note_off,191,0,0,,8,,,68,127
139296,note_on,1,0,0,,8,,,80,127
139487,note_off,191,0,0,,8,,,80,127
139487,note_off,0,0,0,,3,,,63,127
139488,note_on,1,0,0,,10,,,69,127
139488,note_on,0,0,0,,1,,,61,127
139679,note_off,191,0,0,,10,,,69,127
139680,note_on,1,0,0,,10,,,81,127
139871,note_off,191,0,0,,10,,,81,127
139871,note_off,0,0,0,,1,,,61,127
139872,note_on,1,0,0,,10,,,69,127
139872,note_on,0,0,0,,12,,,59,127
140063,note_off,191,0,0,,10,,,69,127
140064,note_on,1,0,0,,10,,,81,127
140255,note_off,191,0,0,,10,,,81,127
140255,note_off,0,0,0,,12,,,59,127
140256,note_on,1,0,0,,11,,,70,127
140256,note_on,0,0,0,,10,,,57,127
140447,note_off,191,0,0,,11,,,70,127
140448,note_on,1,0,0,,11,,,82,127
140639,note_off,191,0,0,,11,,,82,127
140639,note_off,0,0,0,,10,,,57,127
140640,note_on,1,0,0,,12,,,71,127
140640,note_on,0,0,0,,8,,,56,127
140831,note_off,191,0,0,,12,,,71,127
140832,note_on,1,0,0,,12,,,83,127
141023,note_off,191,0,0,,12,,,83,127
141023,note_off,0,0,0,,8,,,56,127
141024,note_on,1,0,0,,10,,,69,127
141024,note_on,0,0,0,,6,,,54,127
141215,note_off,191,0,0,,10,,,69,127
141216,note_on,1,0,0,,10,,,81,127
141407,note_off,191,0,0,,10,,,81,127
141407,note_off,0,0,0,,6,,,54,127
141408,note_on,1,0,0,,8,,,68,127
141408,note_on,0,0,0,,4,,,52,127
141599,note_off,191,0,0,,8,,,68,127
141600,note_on,1,0,0,,8,,,80,127
141791,note_off,191,0,0,,8,,,80,127
141791,note_off,0,0,0,,4,,,52,127
141792,note_on,1,0,0,,6,,,66,127
141792,note_on,0,0,0,,10,,,57,127
141983,note_off,191,0,0,,6,,,66,127
141984,note_on,1,0,0,,6,,,78,127
142175,note_off,191,0,0,,6,,,78,127
142175,note_off,0,0,0,,10,,,57,127
142176,note_on,1,0,0,,4,,,64,127
142176,note_on,0,0,0,,12,,,59,127
142367,note_off,191,0,0,,4,,,64,127
142368,note_on,1,0,0,,4,,,76,127
142559,note_off,191,0,0,,4,,,76,127
142560,note_on,1,0,0,,3,,,63,127
142560,note_on,0,0,0,,12,,,47,127
142751,note_off,191,0,0,,3,,,63,127
142752,note_on,1,0,0,,3,,,75,127
142943,note_off,191,0,0,,3,,,75,127
142943,note_off,0,0,0,,12,,,47,127
142943,note_off,0,0,0,,12,,,59,127
142944,note_on,1,0,0,,8,,,68,127
142944,note_on,0,0,0,,4,,,52,127
143136,note_on,192,0,0,,8,,,80,127
143232,note_off,96,0,0,,8,,,68,127
143327,note_off,95,0,0,,8,,,80,127
143327,note_off,0,0,0,,4,,,52,127
143328,note_on,1,0,0,,8,,,68,127
143328,note_on,0,0,0,,4,,,64,127
143520,note_on,192,0,0,,8,,,80,127
143616,note_off,96,0,0,,8,,,68,127
143711,note_off,95,0,0,,8,,,80,127
143711,note_off,0,0,0,,4,,,64,127
143712,note_on,1,0,0,,8,,,68,127
143712,note_on,0,0,0,,3,,,63,127
143904,note_on,192,0,0,,8,,,80,127
144000,note_off,96,0,0,,8,,,68,127
144095,note_off,95,0,0,,8,,,80,127
144095,note_off,0,0,0,,3,,,63,127
144096,note_on,1,0,0,,10,,,69,127
144096,note_on,0,0,0,,1,,,61,127
144288,note_on,192,0,0,,10,,,81,127
144384,note_off,96,0,0,,10,,,69,127
144479,note_off,95,0,0,,10,,,81,127
144479,note_off,0,0,0,,1,,,61,127
144480,note_on,1,0,0,,10,,,69,127
144480,note_on,0,0,0,,12,,,59,127
144672,note_on,192,0,0,,10,,,81,127
144768,note_off,96,0,0,,10,,,69,127
144863,note_off,95,0,0,,10,,,81,127
144863,note_off,0,0,0,,12,,,59,127
144864,note_on,1,0,0,,11,,,70,127
144864,note_on,0,0,0,,10,,,57,127
145056,note_on,192,0,0,,11,,,82,127
145152,note_off,96,0,0,,11,,,70,127
145247,note_off,95,0,0,,11,,,82,127
145247,note_off,0,0,0,,10,,,57,127
145248,note_on,1,0,0,,12,,,71,127
145248,note_on,0,0,0,,8,,,56,127
145440,note_on,192,0,0,,12,,,83,127
145536,note_off,96,0,0,,12,,,71,127
145631,note_off,95,0,0,,12,,,83,127
145631,note_off,0,0,0,,8,,,56,127
145632,note_on,1,0,0,,10,,,69,127
145632,note_on,0,0,0,,6,,,54,127
145824,note_on,192,0,0,,10,,,81,127
145920,note_off,96,0,0,,10,,,69,127
146015,note_off,95,0,0,,10,,,81,127
146015,note_off,0,0,0,,6,,,54,127
146016,note_on,1,0,0,,8,,,68,127
146016,note_on,0,0,0,,4,,,52,127
146208,note_on,192,0,0,,8,,,80,127
146304,note_off,96,0,0,,8,,,68,127
146399,note_off,95,0,0,,8,,,80,127
146399,note_off,0,0,0,,4,,,52,127
146400,note_on,1,0,0,,6,,,66,127
146400,note_on,0,0,0,,10,,,57,127
146592,note_on,192,0,0,,6,,,78,127
146688,note_off,96,0,0,,6,,,66,127
146783,note_off,95,0,0,,6,,,78,127
146783,note_off,0,0,0,,10,,,57,127
146784,note_on,1,0,0,,4,,,64,127
146784,note_on,0,0,0,,12,,,59,127
146976,note_on,192,0,0,,4,,,76,127
147072,note_off,96,0,0,,4,,,64,127
147167,note_off,95,0,0,,4,,,76,127
147168,note_on,1,0,0,,3,,,63,127
147168,note_on,0,0,0,,12,,,47,127
147360,note_on,192,0,0,,3,,,75,127
147361,note_off,1,0,0,,3,,,63,127
147551,note_off,190,0,0,,3,,,75,127
147551,note_off,0,0,0,,12,,,47,127
147551,note_off,0,0,0,,12,,,59,127
147552,note_on,1,0,0,,4,,,76,127
147552,note_on,0,0,0,,4,,,52,127
147647,note_off,95,0,0,,4,,,52,127
147648,note_on,1,0,0,,6,,,54,127
147743,note_off,95,0,0,,6,,,54,127
147744,note_on,1,0,0,,8,,,56,127
147839,note_off,95,0,0,,8,,,56,127
147840,note_on,1,0,0,,10,,,57,127
147935,note_off,95,0,0,,10,,,57,127
147936,note_on,1,0,0,,12,,,59,127
148031,note_off,95,0,0,,12,,,59,127
148032,note_on,1,0,0,,1,,,61,127
148127,note_off,95,0,0,,1,,,61,127
148127,note_off,0,0,0,,4,,,76,127
148128,note_on,1,0,0,,8,,,80,127
148128,note_on,0,0,0,,3,,,63,127
148223,note_off,95,0,0,,3,,,63,127
148224,note_on,1,0,0,,4,,,64,127
148319,note_off,95,0,0,,4,,,64,127
148319,note_off,0,0,0,,8,,,80,127
148320,note_on,1,0,0,,6,,,78,127
148320,note_on,0,0,0,,12,,,47,127
148511,note_off,191,0,0,,6,,,78,127
148512,note_on,1,0,0,,12,,,71,127
148703,note_off,191,0,0,,12,,,71,127
148703,note_off,0,0,0,,12,,,47,127
148704,note_on,1,0,0,,12,,,83,127
148704,note_on,0,0,0,,4,,,52,127
148799,note_off,95,0,0,,4,,,52,127
148800,note_on,1,0,0,,6,,,54,127
148895,note_off,95,0,0,,6,,,54,127
148896,note_on,1,0,0,,8,,,56,127
148991,note_off,95,0,0,,8,,,56,127
148992,note_on,1,0,0,,10,,,57,127
149087,note_off,95,0,0,,10,,,57,127
149088,note_on,1,0,0,,12,,,59,127
149183,note_off,95,0,0,,12,,,59,127
149184,note_on,1,0,0,,1,,,61,127
149279,note_off,95,0,0,,1,,,61,127
149279,note_off,0,0,0,,12,,,83,127
149280,note_on,1,0,0,,8,,,80,127
149280,note_on,0,0,0,,3,,,63,127
149375,note_off,95,0,0,,3,,,63,127
149376,note_on,1,0,0,,4,,,64,127
149471,note_off,95,0,0,,4,,,64,127
149471,note_off,0,0,0,,8,,,80,127
149472,note_on,1,0,0,,6,,,78,127
149472,note_on,0,0,0,,12,,,47,127
149663,note_off,191,0,0,,6,,,78,127
149664,note_on,1,0,0,,12,,,71,127
149855,note_off,191,0,0,,12,,,71,127
149855,note_off,0,0,0,,12,,,47,127
149856,note_on,1,0,0,,12,,,83,127
149856,note_on,0,0,0,,4,,,52,127
149951,note_off,95,0,0,,4,,,52,127
149952,note_on,1,0,0,,6,,,54,127
150047,note_off,95,0,0,,6,,,54,127
150048,note_on,1,0,0,,8,,,56,127
150143,note_off,95,0,0,,8,,,56,127
150144,note_on,1,0,0,,10,,,57,127
150239,note_off,95,0,0,,10,,,57,127
150240,note_on,1,0,0,,12,,,59,127
150335,note_off,95,0,0,,12,,,59,127
150336,note_on,1,0,0,,1,,,61,127
150431,note_off,95,0,0,,1,,,61,127
150431,note_off,0,0,0,,12,,,83,127
150432,note_on,1,0,0,,8,,,80,127
150432,note_on,0,0,0,,3,,,63,127
150527,note_off,95,0,0,,3,,,63,127
150528,note_on,1,0,0,,4,,,64,127
150623,note_off,95,0,0,,4,,,64,127
150623,note_off,0,0,0,,8,,,80,127
150624,note_on,1,0,0,,6,,,78,127
150624,note_on,0,0,0,,12,,,35,127
150815,note_off,191,0,0,,6,,,78,127
150816,note_on,1,0,0,,12,,,71,127
151007,note_off,191,0,0,,12,,,71,127
151007,note_off,0,0,0,,12,,,35,127
151008,note_on,1,0,0,,12,,,83,127
151008,note_on,0,0,0,,4,,,52,127
151103,note_off,95,0,0,,12,,,83,127
151104,note_on,1,0,0,,10,,,81,127
151199,note_off,95,0,0,,10,,,81,127
151200,note_on,1,0,0,,8,,,80,127
151295,note_off,95,0,0,,8,,,80,127
151296,note_on,1,0,0,,6,,,78,127
151391,note_off,95,0,0,,6,,,78,127
151391,note_off,0,0,0,,4,,,52,127
151392,note_on,1,0,0,,4,,,76,127
151392,note_on,0,0,0,,6,,,54,127
151487,note_off,95,0,0,,4,,,76,127
151488,note_on,1,0,0,,3,,,75,127
151583,note_off,95,0,0,,3,,,75,127
151584,note_on,1,0,0,,1,,,73,127
151679,note_off,95,0,0,,1,,,73,127
151680,note_on,1,0,0,,12,,,71,127
151775,note_off,95,0,0,,12,,,71,127
151775,note_off,0,0,0,,6,,,54,127
151776,note_on,1,0,0,,10,,,69,127
151776,note_on,0,0,0,,8,,,56,127
151871,note_off,95,0,0,,10,,,69,127
151872,note_on,1,0,0,,8,,,68,127
151967,note_off,95,0,0,,8,,,68,127
151968,note_on,1,0,0,,6,,,66,127
152063,note_off,95,0,0,,6,,,66,127
152064,note_on,1,0,0,,4,,,64,127
152159,note_off,95,0,0,,4,,,64,127
152159,note_off,0,0,0,,8,,,56,127
152160,note_on,1,0,0,,1,,,73,127
152160,note_on,0,0,0,,10,,,57,127
152255,note_off,95,0,0,,1,,,73,127
152256,note_on,1,0,0,,10,,,69,127
152351,note_off,95,0,0,,10,,,69,127
152352,note_on,1,0,0,,12,,,71,127
152447,note_off,95,0,0,,12,,,71,127
152448,note_on,1,0,0,,1,,,73,127
152543,note_off,95,0,0,,1,,,73,127
152543,note_off,0,0,0,,10,,,57,127
152544,note_on,1,0,0,,12,,,71,127
152544,note_on,0,0,0,,12,,,59,127
152639,note_off,95,0,0,,12,,,71,127
152640,note_on,1,0,0,,8,,,68,127
152735,note_off,95,0,0,,8,,,68,127
152736,note_on,1,0,0,,10,,,69,127
152831,note_off,95,0,0,,10,,,69,127
152832,note_on,1,0,0,,6,,,66,127
152927,note_off,95,0,0,,6,,,66,127
152928,note_on,1,0,0,,8,,,68,127
152928,note_on,0,0,0,,12,,,47,127
153023,note_off,95,0,0,,8,,,68,127
153024,note_on,1,0,0,,4,,,64,127
153119,note_off,95,0,0,,4,,,64,127
153120,note_on,1,0,0,,6,,,66,127
153215,note_off,95,0,0,,6,,,66,127
153216,note_on,1,0,0,,3,,,63,127
153311,note_off,95,0,0,,3,,,63,127
153311,note_off,0,0,0,,12,,,47,127
153311,note_off,0,0,0,,12,,,59,127
153312,note_on,1,0,0,,4,,,64,127
153312,note_on,0,0,0,,4,,,52,127
153407,note_off,95,0,0,,4,,,52,127
153408,note_on,1,0,0,,6,,,54,127
153503,note_off,95,0,0,,6,,,54,127
153504,note_on,1,0,0,,8,,,56,127
153599,note_off,95,0,0,,8,,,56,127
153600,note_on,1,0,0,,10,,,57,127
153695,note_off,95,0,0,,10,,,57,127
153696,note_on,1,0,0,,12,,,59,127
153791,note_off,95,0,0,,12,,,59,127
153792,note_on,1,0,0,,1,,,61,127
153887,note_off,95,0,0,,1,,,61,127
153887,note_off,0,0,0,,4,,,64,127
153888,note_on,1,0,0,,8,,,80,127
153888,note_on,0,0,0,,3,,,63,127
153983,note_off,95,0,0,,3,,,63,127
153984,note_on,1,0,0,,4,,,64,127
154079,note_off,95,0,0,,4,,,64,127
154079,note_off,0,0,0,,8,,,80,127
154080,note_on,1,0,0,,6,,,78,127
154080,note_on,0,0,0,,12,,,47,127
154271,note_off,191,0,0,,6,,,78,127
154272,note_on,1,0,0,,12,,,71,127
154463,note_off,191,0,0,,12,,,71,127
154463,note_off,0,0,0,,12,,,47,127
154464,note_on,1,0,0,,12,,,83,127
154464,note_on,0,0,0,,4,,,52,127
154559,note_off,95,0,0,,4,,,52,127
154560,note_on,1,0,0,,6,,,54,127
154655,note_off,95,0,0,,6,,,54,127
154656,note_on,1,0,0,,8,,,56,127
154751,note_off,95,0,0,,8,,,56,127
154752,note_on,1,0,0,,10,,,57,127
154847,note_off,95,0,0,,10,,,57,127
154848,note_on,1,0,0,,12,,,59,127
154943,note_off,95,0,0,,12,,,59,127
154944,note_on,1,0,0,,1,,,61,127
155039,note_off,95,0,0,,1,,,61,127
155039,note_off,0,0,0,,12,,,83,127
155040,note_on,1,0,0,,8,,,80,127
155040,note_on,0,0,0,,3,,,63,127
155135,note_off,95,0,0,,3,,,63,127
155136,note_on,1,0,0,,4,,,64,127
155231,note_off,95,0,0,,4,,,64,127
155231,note_off,0,0,0,,8,,,80,127
155232,note_on,1,0,0,,6,,,78,127
155232,note_on,0,0,0,,12,,,47,127
155423,note_off,191,0,0,,6,,,78,127
155424,note_on,1,0,0,,12,,,71,127
155615,note_off,191,0,0,,12,,,71,127
155615,note_off,0,0,0,,12,,,47,127
155616,note_on,1,0,0,,12,,,83,127
155616,note_on,0,0,0,,4,,,52,127
155711,note_off,95,0,0,,4,,,52,127
155712,note_on,1,0,0,,6,,,54,127
155807,note_off,95,0,0,,6,,,54,127
155808,note_on,1,0,0,,8,,,56,127
155903,note_off,95,0,0,,8,,,56,127
155904,note_on,1,0,0,,10,,,57,127
155999,note_off,95,0,0,,10,,,57,127
156000,note_on,1,0,0,,12,,,59,127
156095,note_off,95,0,0,,12,,,59,127
156096,note_on,1,0,0,,1,,,61,127
156191,note_off,95,0,0,,1,,,61,127
156191,note_off,0,0,0,,12,,,83,127
156192,note_on,1,0,0,,8,,,80,127
156192,note_on,0,0,0,,3,,,63,127
156287,note_off,95,0,0,,3,,,63,127
156288,note_on,1,0,0,,4,,,64,127
156383,note_off,95,0,0,,4,,,64,127
156383,note_off,0,0,0,,8,,,80,127
156384,note_on,1,0,0,,6,,,78,127
156384,note_on,0,0,0,,12,,,35,127
156575,note_off,191,0,0,,6,,,78,127
156576,note_on,1,0,0,,12,,,71,127
156767,note_off,191,0,0,,12,,,71,127
156767,note_off,0,0,0,,12,,,35,127
156768,note_on,1,0,0,,12,,,83,127
156768,note_on,0,0,0,,4,,,40,127
156863,note_off,95,0,0,,12,,,83,127
156864,note_on,1,0,0,,10,,,81,127
156959,note_off,95,0,0,,10,,,81,127
156960,note_on,1,0,0,,8,,,80,127
157055,note_off,95,0,0,,8,,,80,127
157056,note_on,1,0,0,,6,,,78,127
157151,note_off,95,0,0,,6,,,78,127
157151,note_off,0,0,0,,4,,,40,127
157152,note_on,1,0,0,,4,,,76,127
157152,note_on,0,0,0,,6,,,42,127
157247,note_off,95,0,0,,4,,,76,127
157248,note_on,1,0,0,,3,,,75,127
157343,note_off,95,0,0,,3,,,75,127
157344,note_on,1,0,0,,1,,,73,127
157439,note_off,95,0,0,,1,,,73,127
157440,note_on,1,0,0,,12,,,71,127
157535,note_off,95,0,0,,12,,,71,127
157535,note_off,0,0,0,,6,,,42,127
157536,note_on,1,0,0,,10,,,69,127
157536,note_on,0,0,0,,8,,,44,127
157631,note_off,95,0,0,,10,,,69,127
157632,note_on,1,0,0,,8,,,68,127
157727,note_off,95,0,0,,8,,,68,127
157728,note_on,1,0,0,,6,,,66,127
157823,note_off,95,0,0,,6,,,66,127
157824,note_on,1,0,0,,4,,,64,127
157919,note_off,95,0,0,,4,,,64,127
157919,note_off,0,0,0,,8,,,44,127
157920,note_on,1,0,0,,1,,,73,127
157920,note_on,0,0,0,,10,,,45,127
158015,note_off,95,0,0,,1,,,73,127
158016,note_on,1,0,0,,10,,,69,127
158111,note_off,95,0,0,,10,,,69,127
158112,note_on,1,0,0,,12,,,71,127
158207,note_off,95,0,0,,12,,,71,127
158208,note_on,1,0,0,,1,,,73,127
158303,note_off,95,0,0,,1,,,73,127
158303,note_off,0,0,0,,10,,,45,127
158304,note_on,1,0,0,,12,,,71,127
158304,note_on,0,0,0,,12,,,47,127
158399,note_off,95,0,0,,12,,,71,127
158400,note_on,1,0,0,,8,,,68,127
158495,note_off,95,0,0,,8,,,68,127
158496,note_on,1,0,0,,10,,,69,127
158591,note_off,95,0,0,,10,,,69,127
158592,note_on,1,0,0,,6,,,66,127
158687,note_off,95,0,0,,6,,,66,127
158688,note_on,1,0,0,,8,,,68,127
158688,note_on,0,0,0,,12,,,35,127
158783,note_off,95,0,0,,8,,,68,127
158784,note_on,1,0,0,,4,,,64,127
158879,note_off,95,0,0,,4,,,64,127
158880,note_on,1,0,0,,6,,,66,127
158975,note_off,95,0,0,,6,,,66,127
158976,note_on,1,0,0,,3,,,63,127
159071,note_off,95,0,0,,3,,,63,127
159071,note_off,0,0,0,,12,,,35,127
159071,note_off,0,0,0,,12,,,47,127
159072,note_on,1,0,0,,12,,,71,127
159072,note_on,0,0,0,,4,,,40,127
159167,note_off,95,0,0,,12,,,71,127
159168,note_on,1,0,0,,10,,,69,127
159263,note_off,95,0,0,,10,,,69,127
159264,note_on,1,0,0,,8,,,68,127
159359,note_off,95,0,0,,8,,,68,127
159360,note_on,1,0,0,,6,,,66,127
159455,note_off,95,0,0,,6,,,66,127
159455,note_off,0,0,0,,4,,,40,127
159456,note_on,1,0,0,,4,,,64,127
159456,note_on,0,0,0,,6,,,42,127
159551,note_off,95,0,0,,4,,,64,127
159552,note_on,1,0,0,,3,,,63,127
159647,note_off,95,0,0,,3,,,63,127
159648,note_on,1,0,0,,1,,,61,127
159743,note_off,95,0,0,,1,,,61,127
159744,note_on,1,0,0,,12,,,59,127
159839,note_off,95,0,0,,12,,,59,127
159839,note_off,0,0,0,,6,,,42,127
159840,note_on,1,0,0,,10,,,57,127
159840,note_on,0,0,0,,8,,,44,127
159935,note_off,95,0,0,,10,,,57,127
159936,note_on,1,0,0,,8,,,56,127
160031,note_off,95,0,0,,8,,,56,127
160032,note_on,1,0,0,,6,,,54,127
160127,note_off,95,0,0,,6,,,54,127
160128,note_on,1,0,0,,4,,,52,127
160223,note_off,95,0,0,,4,,,52,127
160223,note_off,0,0,0,,8,,,44,127
160224,note_on,1,0,0,,1,,,61,127
160224,note_on,0,0,0,,10,,,45,127
160319,note_off,95,0,0,,1,,,61,127
160320,note_on,1,0,0,,10,,,57,127
160415,note_off,95,0,0,,10,,,57,127
160416,note_on,1,0,0,,12,,,59,127
160511,note_off,95,0,0,,12,,,59,127
160512,note_on,1,0,0,,1,,,61,127
160607,note_off,95,0,0,,1,,,61,127
160607,note_off,0,0,0,,10,,,45,127
160608,note_on,1,0,0,,12,,,59,127
160608,note_on,0,0,0,,12,,,47,127
160703,note_off,95,0,0,,12,,,59,127
160704,note_on,1,0,0,,8,,,56,127
160799,note_off,95,0,0,,8,,,56,127
160800,note_on,1,0,0,,10,,,57,127
160895,note_off,95,0,0,,10,,,57,127
160896,note_on,1,0,0,,6,,,54,127
160991,note_off,95,0,0,,6,,,54,127
160992,note_on,1,0,0,,8,,,56,127
160992,note_on,0,0,0,,12,,,35,127
161087,note_off,95,0,0,,8,,,56,127
161088,note_on,1,0,0,,4,,,52,127
161183,note_off,95,0,0,,4,,,52,127
161184,note_on,1,0,0,,6,,,54,127
161279,note_off,95,0,0,,6,,,54,127
161280,note_on,1,0,0,,3,,,51,127
161375,note_off,95,0,0,,3,,,51,127
161375,note_off,0,0,0,,12,,,35,127
161375,note_off,0,0,0,,12,,,47,127
161390,note_on,15,0,0,,4,,,40,127
161390,note_on,0,0,0,,4,,,52,127
163214,note_off,1824,0,0,,4,,,52,127
163214,note_off,0,0,0,,4,,,40,127
167424,end_of_track,4210,1,0,,,,,,
