tick,type,time,meta,track,program,channel,pitch,tempo,note,velocity
0,copyright,0,1,0,,,,,,
0,program_change,0,0,0,6,0,,,,
0,pitchwheel,0,0,0,,0,0,,,
0,program_change,0,0,0,6,1,,,,
0,pitchwheel,0,0,0,,1,-590,,,
0,program_change,0,0,0,6,2,,,,
0,pitchwheel,0,0,0,,2,-272,,,
0,program_change,0,0,0,6,3,,,,
0,pitchwheel,0,0,0,,3,-353,,,
0,program_change,0,0,0,6,4,,,,
0,pitchwheel,0,0,0,,4,-560,,,
0,program_change,0,0,0,6,5,,,,
0,pitchwheel,0,0,0,,5,-80,,,
0,program_change,0,0,0,6,6,,,,
0,pitchwheel,0,0,0,,6,-625,,,
0,program_change,0,0,0,6,7,,,,
0,pitchwheel,0,0,0,,7,-130,,,
0,program_change,0,0,0,6,8,,,,
0,pitchwheel,0,0,0,,8,-512,,,
0,program_change,0,0,0,6,10,,,,
0,pitchwheel,0,0,0,,10,-464,,,
0,program_change,0,0,0,6,11,,,,
0,pitchwheel,0,0,0,,11,-208,,,
0,program_change,0,0,0,6,12,,,,
0,pitchwheel,0,0,0,,12,-553,,,
0,set_tempo,0,1,0,,,,500000,,
121,note_on,121,0,0,,4,,,76,127
605,note_off,484,0,0,,4,,,76,127
606,note_on,1,0,0,,2,,,74,127
665,note_off,59,0,0,,2,,,74,127
666,note_on,1,0,0,,0,,,72,127
725,note_off,59,0,0,,0,,,72,127
726,note_on,1,0,0,,2,,,74,127
785,note_off,59,0,0,,2,,,74,127
786,note_on,1,0,0,,0,,,72,127
845,note_off,59,0,0,,0,,,72,127
846,note_on,1,0,0,,2,,,74,127
905,note_off,59,0,0,,2,,,74,127
906,note_on,1,0,0,,0,,,72,127
965,note_off,59,0,0,,0,,,72,127
966,note_on,1,0,0,,12,,,71,127
1025,note_off,59,0,0,,12,,,71,127
1026,note_on,1,0,0,,10,,,69,127
1085,note_off,59,0,0,,10,,,69,127
1086,note_on,1,0,0,,10,,,81,127
1145,note_off,59,0,0,,10,,,81,127
1146,note_on,1,0,0,,8,,,80,127
1205,note_off,59,0,0,,8,,,80,127
1206,note_on,1,0,0,,10,,,81,127
1265,note_off,59,0,0,,10,,,81,127
1266,note_on,1,0,0,,8,,,80,127
1325,note_off,59,0,0,,8,,,80,127
1326,note_on,1,0,0,,10,,,81,127
1385,note_off,59,0,0,,10,,,81,127
1386,note_on,1,0,0,,8,,,80,127
1445,note_off,59,0,0,,8,,,80,127
1446,note_on,1,0,0,,6,,,78,127
1505,note_off,59,0,0,,6,,,78,127
1506,note_on,1,0,0,,8,,,80,127
1565,note_off,59,0,0,,8,,,80,127
1566,note_on,1,0,0,,10,,,81,127
1807,note_off,241,0,0,,10,,,81,127
1869,note_on,62,0,0,,4,,,76,127
1928,note_off,59,0,0,,4,,,76,127
1929,note_on,1,0,0,,5,,,77,127
1988,note_off,59,0,0,,5,,,77,127
1989,note_on,1,0,0,,7,,,79,127
2048,note_off,59,0,0,,7,,,79,127
2049,note_on,1,0,0,,5,,,77,127
2290,note_off,241,0,0,,5,,,77,127
2352,note_on,62,0,0,,0,,,72,127
2411,note_off,59,0,0,,0,,,72,127
2412,note_on,1,0,0,,2,,,74,127
2471,note_off,59,0,0,,2,,,74,127
2472,note_on,1,0,0,,4,,,76,127
2531,note_off,59,0,0,,4,,,76,127
2532,note_on,1,0,0,,2,,,74,127
2773,note_off,241,0,0,,2,,,74,127
2835,note_on,62,0,0,,6,,,66,127
2894,note_off,59,0,0,,6,,,66,127
2895,note_on,1,0,0,,8,,,68,127
2954,note_off,59,0,0,,8,,,68,127
2955,note_on,1,0,0,,10,,,69,127
3014,note_off,59,0,0,,10,,,69,127
3015,note_on,1,0,0,,4,,,64,127
3015,note_on,0,0,0,,8,,,68,127
3135,note_off,120,0,0,,8,,,68,127
3136,note_on,1,0,0,,10,,,69,127
3195,note_off,59,0,0,,10,,,69,127
3196,note_on,1,0,0,,8,,,68,127
3255,note_off,59,0,0,,8,,,68,127
3256,note_on,1,0,0,,10,,,69,127
3315,note_off,59,0,0,,10,,,69,127
3316,note_on,1,0,0,,8,,,68,127
3375,note_off,59,0,0,,8,,,68,127
3376,note_on,1,0,0,,6,,,66,127
3435,note_off,59,0,0,,6,,,66,127
3436,note_on,1,0,0,,8,,,68,127
3495,note_off,59,0,0,,8,,,68,127
3495,note_off,0,0,0,,4,,,64,127
3496,note_on,1,0,0,,2,,,62,127
3496,note_on,0,0,0,,10,,,69,127
3555,note_off,59,0,0,,2,,,62,127
3556,note_on,1,0,0,,0,,,60,127
3615,note_off,59,0,0,,0,,,60,127
3616,note_on,1,0,0,,2,,,62,127
3675,note_off,59,0,0,,2,,,62,127
3676,note_on,1,0,0,,0,,,60,127
3735,note_off,59,0,0,,0,,,60,127
3736,note_on,1,0,0,,2,,,62,127
3795,note_off,59,0,0,,2,,,62,127
3796,note_on,1,0,0,,0,,,60,127
3855,note_off,59,0,0,,0,,,60,127
3856,note_on,1,0,0,,12,,,59,127
3915,note_off,59,0,0,,12,,,59,127
3916,note_on,1,0,0,,10,,,57,127
3975,note_off,59,0,0,,10,,,57,127
3975,note_off,0,0,0,,10,,,69,127
3976,note_on,1,0,0,,10,,,69,127
3976,note_on,0,0,0,,0,,,72,127
4035,note_off,59,0,0,,0,,,72,127
4035,note_off,0,0,0,,10,,,69,127
4036,note_on,1,0,0,,8,,,68,127
4036,note_on,0,0,0,,12,,,71,127
4095,note_off,59,0,0,,12,,,71,127
4095,note_off,0,0,0,,8,,,68,127
4096,note_on,1,0,0,,10,,,69,127
4096,note_on,0,0,0,,0,,,72,127
4155,note_off,59,0,0,,0,,,72,127
4155,note_off,0,0,0,,10,,,69,127
4156,note_on,1,0,0,,8,,,68,127
4156,note_on,0,0,0,,12,,,71,127
4215,note_off,59,0,0,,12,,,71,127
4215,note_off,0,0,0,,8,,,68,127
4216,note_on,1,0,0,,10,,,69,127
4216,note_on,0,0,0,,0,,,72,127
4275,note_off,59,0,0,,0,,,72,127
4275,note_off,0,0,0,,10,,,69,127
4276,note_on,1,0,0,,8,,,68,127
4276,note_on,0,0,0,,12,,,71,127
4335,note_off,59,0,0,,12,,,71,127
4335,note_off,0,0,0,,8,,,68,127
4336,note_on,1,0,0,,6,,,66,127
4336,note_on,0,0,0,,10,,,69,127
4395,note_off,59,0,0,,10,,,69,127
4395,note_off,0,0,0,,6,,,66,127
4396,note_on,1,0,0,,8,,,68,127
4396,note_on,0,0,0,,12,,,71,127
4455,note_off,59,0,0,,12,,,71,127
4455,note_off,0,0,0,,8,,,68,127
4456,note_on,1,0,0,,10,,,69,127
4456,note_on,0,0,0,,0,,,72,127
4697,note_off,241,0,0,,10,,,69,127
4759,note_on,62,0,0,,4,,,64,127
4818,note_off,59,0,0,,4,,,64,127
4819,note_on,1,0,0,,5,,,65,127
4878,note_off,59,0,0,,5,,,65,127
4879,note_on,1,0,0,,7,,,67,127
4938,note_off,59,0,0,,7,,,67,127
4938,note_off,0,0,0,,0,,,72,127
4939,note_on,1,0,0,,5,,,65,127
4939,note_on,0,0,0,,2,,,74,127
5180,note_off,241,0,0,,5,,,65,127
5242,note_on,62,0,0,,0,,,60,127
5301,note_off,59,0,0,,0,,,60,127
5302,note_on,1,0,0,,2,,,62,127
5361,note_off,59,0,0,,2,,,62,127
5362,note_on,1,0,0,,4,,,64,127
5421,note_off,59,0,0,,4,,,64,127
5421,note_off,0,0,0,,2,,,74,127
5422,note_on,1,0,0,,2,,,62,127
5422,note_on,0,0,0,,2,,,74,127
5663,note_off,241,0,0,,2,,,62,127
5725,note_on,62,0,0,,6,,,54,127
5784,note_off,59,0,0,,6,,,54,127
5785,note_on,1,0,0,,8,,,56,127
5844,note_off,59,0,0,,8,,,56,127
5845,note_on,1,0,0,,10,,,57,127
5904,note_off,59,0,0,,10,,,57,127
5904,note_off,0,0,0,,2,,,74,127
5905,note_on,1,0,0,,8,,,56,127
5905,note_on,0,0,0,,4,,,76,127
5964,note_off,59,0,0,,4,,,76,127
5965,note_on,1,0,0,,2,,,74,127
6024,note_off,59,0,0,,2,,,74,127
6025,note_on,1,0,0,,4,,,76,127
6084,note_off,59,0,0,,4,,,76,127
6085,note_on,1,0,0,,2,,,74,127
6144,note_off,59,0,0,,2,,,74,127
6145,note_on,1,0,0,,4,,,76,127
6204,note_off,59,0,0,,4,,,76,127
6205,note_on,1,0,0,,2,,,74,127
6264,note_off,59,0,0,,2,,,74,127
6265,note_on,1,0,0,,0,,,72,127
6324,note_off,59,0,0,,0,,,72,127
6325,note_on,1,0,0,,2,,,74,127
6384,note_off,59,0,0,,2,,,74,127
6384,note_off,0,0,0,,8,,,56,127
6385,note_on,1,0,0,,4,,,52,127
6385,note_on,0,0,0,,4,,,76,127
6626,note_off,241,0,0,,4,,,76,127
6627,note_on,1,0,0,,2,,,74,127
6868,note_off,241,0,0,,2,,,74,127
6868,note_off,0,0,0,,4,,,52,127
6869,note_on,1,0,0,,8,,,56,127
6869,note_on,0,0,0,,0,,,72,127
7110,note_off,241,0,0,,0,,,72,127
7111,note_on,1,0,0,,12,,,71,127
7352,note_off,241,0,0,,12,,,71,127
7352,note_off,0,0,0,,8,,,56,127
7353,note_on,1,0,0,,10,,,57,127
7353,note_on,0,0,0,,2,,,74,127
7406,note_on,53,0,0,,0,,,72,127
7412,note_off,6,0,0,,2,,,74,127
7459,note_on,47,0,0,,2,,,74,127
7465,note_off,6,0,0,,0,,,72,127
7512,note_on,47,0,0,,0,,,72,127
7518,note_off,6,0,0,,2,,,74,127
7565,note_on,47,0,0,,2,,,74,127
7571,note_off,6,0,0,,0,,,72,127
7618,note_on,47,0,0,,0,,,72,127
7624,note_off,6,0,0,,2,,,74,127
7671,note_on,47,0,0,,2,,,74,127
7677,note_off,6,0,0,,0,,,72,127
7724,note_on,47,0,0,,0,,,72,127
7730,note_off,6,0,0,,2,,,74,127
7777,note_on,47,0,0,,2,,,74,127
7783,note_off,6,0,0,,0,,,72,127
7830,note_on,47,0,0,,0,,,72,127
7836,note_off,6,0,0,,2,,,74,127
7836,note_off,0,0,0,,10,,,57,127
7837,note_on,1,0,0,,10,,,45,127
7882,note_on,45,0,0,,2,,,74,127
7888,note_off,6,0,0,,0,,,72,127
7935,note_on,47,0,0,,0,,,72,127
7941,note_off,6,0,0,,2,,,74,127
7988,note_on,47,0,0,,2,,,74,127
7994,note_off,6,0,0,,0,,,72,127
8041,note_on,47,0,0,,0,,,72,127
8047,note_off,6,0,0,,2,,,74,127
8094,note_on,47,0,0,,12,,,71,127
8100,note_off,6,0,0,,0,,,72,127
8321,note_on,221,0,0,,10,,,69,127
8335,note_off,14,0,0,,12,,,71,127
8788,note_off,453,0,0,,10,,,69,127
8804,note_off,16,0,0,,10,,,45,127
8805,note_on,1,0,0,,10,,,69,127
9048,note_on,243,0,0,,0,,,72,127
9168,note_off,120,0,0,,0,,,72,127
9169,note_on,1,0,0,,12,,,71,127
9289,note_off,120,0,0,,12,,,71,127
9290,note_on,1,0,0,,0,,,72,127
9410,note_off,120,0,0,,10,,,69,127
9411,note_on,1,0,0,,7,,,67,127
9531,note_off,120,0,0,,7,,,67,127
9532,note_on,1,0,0,,5,,,65,127
9652,note_off,120,0,0,,5,,,65,127
9653,note_on,1,0,0,,4,,,64,127
9773,note_off,120,0,0,,4,,,64,127
9773,note_off,0,0,0,,0,,,72,127
9774,note_on,1,0,0,,2,,,62,127
9774,note_on,0,0,0,,5,,,77,127
9894,note_off,120,0,0,,2,,,62,127
9895,note_on,1,0,0,,0,,,60,127
10015,note_off,120,0,0,,0,,,60,127
10016,note_on,1,0,0,,12,,,59,127
10136,note_off,120,0,0,,12,,,59,127
10137,note_on,1,0,0,,10,,,57,127
10257,note_off,120,0,0,,10,,,57,127
10258,note_on,1,0,0,,7,,,43,127
10378,note_off,120,0,0,,5,,,77,127
10379,note_on,1,0,0,,4,,,76,127
10499,note_off,120,0,0,,4,,,76,127
10500,note_on,1,0,0,,2,,,74,127
10620,note_off,120,0,0,,2,,,74,127
10621,note_on,1,0,0,,0,,,72,127
10741,note_off,120,0,0,,0,,,72,127
10741,note_off,0,0,0,,7,,,43,127
10742,note_on,1,0,0,,7,,,67,127
10742,note_on,0,0,0,,12,,,71,127
10862,note_off,120,0,0,,7,,,67,127
10863,note_on,1,0,0,,5,,,65,127
10983,note_off,120,0,0,,5,,,65,127
10983,note_off,0,0,0,,12,,,71,127
10984,note_on,1,0,0,,4,,,64,127
10984,note_on,0,0,0,,3,,,75,127
11104,note_off,120,0,0,,4,,,64,127
11105,note_on,1,0,0,,2,,,62,127
11225,note_off,120,0,0,,2,,,62,127
11226,note_on,1,0,0,,0,,,60,127
11346,note_off,120,0,0,,0,,,60,127
11347,note_on,1,0,0,,12,,,59,127
11467,note_off,120,0,0,,12,,,59,127
11467,note_off,0,0,0,,3,,,75,127
11468,note_on,1,0,0,,10,,,57,127
11468,note_on,0,0,0,,4,,,76,127
11588,note_off,120,0,0,,10,,,57,127
11589,note_on,1,0,0,,7,,,55,127
11709,note_off,120,0,0,,7,,,55,127
11710,note_on,1,0,0,,5,,,41,127
11830,note_off,120,0,0,,4,,,76,127
11831,note_on,1,0,0,,2,,,74,127
11951,note_off,120,0,0,,2,,,74,127
11952,note_on,1,0,0,,0,,,72,127
12072,note_off,120,0,0,,0,,,72,127
12073,note_on,1,0,0,,12,,,71,127
12193,note_off,120,0,0,,12,,,71,127
12193,note_off,0,0,0,,5,,,41,127
12194,note_on,1,0,0,,5,,,65,127
12194,note_on,0,0,0,,10,,,69,127
12314,note_off,120,0,0,,5,,,65,127
12315,note_on,1,0,0,,4,,,64,127
12435,note_off,120,0,0,,4,,,64,127
12435,note_off,0,0,0,,10,,,69,127
12436,note_on,1,0,0,,2,,,62,127
12436,note_on,0,0,0,,1,,,73,127
12556,note_off,120,0,0,,2,,,62,127
12557,note_on,1,0,0,,0,,,60,127
12677,note_off,120,0,0,,0,,,60,127
12678,note_on,1,0,0,,12,,,59,127
12798,note_off,120,0,0,,12,,,59,127
12799,note_on,1,0,0,,10,,,57,127
12919,note_off,120,0,0,,10,,,57,127
12919,note_off,0,0,0,,1,,,73,127
12920,note_on,1,0,0,,7,,,55,127
12920,note_on,0,0,0,,2,,,74,127
13040,note_off,120,0,0,,7,,,55,127
13041,note_on,1,0,0,,5,,,53,127
13161,note_off,120,0,0,,5,,,53,127
13162,note_on,1,0,0,,4,,,40,127
13282,note_off,120,0,0,,2,,,74,127
13283,note_on,1,0,0,,0,,,72,127
13403,note_off,120,0,0,,0,,,72,127
13404,note_on,1,0,0,,12,,,71,127
13524,note_off,120,0,0,,12,,,71,127
13525,note_on,1,0,0,,10,,,69,127
13645,note_off,120,0,0,,10,,,69,127
13645,note_off,0,0,0,,4,,,40,127
13646,note_on,1,0,0,,4,,,52,127
13646,note_on,0,0,0,,8,,,68,127
13766,note_off,120,0,0,,8,,,68,127
13767,note_on,1,0,0,,6,,,66,127
13887,note_off,120,0,0,,6,,,66,127
13888,note_on,1,0,0,,4,,,64,127
14008,note_off,120,0,0,,4,,,64,127
14009,note_on,1,0,0,,2,,,74,127
14129,note_off,120,0,0,,2,,,74,127
14130,note_on,1,0,0,,4,,,40,127
14130,note_on,0,0,0,,0,,,72,127
14371,note_off,241,0,0,,0,,,72,127
14372,note_on,1,0,0,,12,,,71,127
14613,note_off,241,0,0,,12,,,71,127
14613,note_off,0,0,0,,4,,,40,127
14613,note_off,0,0,0,,4,,,52,127
14614,note_on,1,0,0,,10,,,57,127
14614,note_on,0,0,0,,2,,,74,127
14667,note_on,53,0,0,,0,,,72,127
14673,note_off,6,0,0,,2,,,74,127
14720,note_on,47,0,0,,2,,,74,127
14726,note_off,6,0,0,,0,,,72,127
14773,note_on,47,0,0,,0,,,72,127
14779,note_off,6,0,0,,2,,,74,127
14826,note_on,47,0,0,,2,,,74,127
14832,note_off,6,0,0,,0,,,72,127
14879,note_on,47,0,0,,0,,,72,127
14885,note_off,6,0,0,,2,,,74,127
14932,note_on,47,0,0,,2,,,74,127
14938,note_off,6,0,0,,0,,,72,127
14985,note_on,47,0,0,,0,,,72,127
14991,note_off,6,0,0,,2,,,74,127
15038,note_on,47,0,0,,2,,,74,127
15044,note_off,6,0,0,,0,,,72,127
15091,note_on,47,0,0,,0,,,72,127
15097,note_off,6,0,0,,2,,,74,127
15098,note_on,1,0,0,,10,,,45,127
15143,note_on,45,0,0,,2,,,74,127
15149,note_off,6,0,0,,0,,,72,127
15196,note_on,47,0,0,,0,,,72,127
15202,note_off,6,0,0,,2,,,74,127
15249,note_on,47,0,0,,2,,,74,127
15255,note_off,6,0,0,,0,,,72,127
15302,note_on,47,0,0,,0,,,72,127
15308,note_off,6,0,0,,2,,,74,127
15355,note_on,47,0,0,,12,,,71,127
15361,note_off,6,0,0,,0,,,72,127
15582,note_on,221,0,0,,10,,,69,127
15596,note_off,14,0,0,,12,,,71,127
16065,note_off,469,0,0,,10,,,57,127
16066,note_off,1,0,0,,10,,,69,127
16066,note_off,0,0,0,,10,,,45,127
16067,note_on,1,0,0,,10,,,57,127
16067,note_on,0,0,0,,10,,,69,127
16067,note_on,0,0,0,,10,,,81,127
16308,note_off,241,0,0,,10,,,69,127
16309,note_on,1,0,0,,10,,,69,127
16430,note_on,121,0,0,,12,,,71,127
16550,note_off,120,0,0,,12,,,71,127
16550,note_off,0,0,0,,10,,,69,127
16550,note_off,0,0,0,,10,,,81,127
16550,note_off,0,0,0,,10,,,57,127
16551,note_on,1,0,0,,10,,,69,127
16551,note_on,0,0,0,,10,,,57,127
16551,note_on,0,0,0,,10,,,81,127
16551,note_on,0,0,0,,0,,,72,127
16792,note_off,241,0,0,,0,,,72,127
16792,note_off,0,0,0,,10,,,69,127
16793,note_on,1,0,0,,10,,,69,127
17034,note_off,241,0,0,,10,,,69,127
17034,note_off,0,0,0,,10,,,81,127
17034,note_off,0,0,0,,10,,,57,127
17035,note_on,1,0,0,,12,,,59,127
17035,note_on,0,0,0,,10,,,69,127
17035,note_on,0,0,0,,10,,,81,127
17035,note_on,0,0,0,,3,,,75,127
17276,note_off,241,0,0,,3,,,75,127
17277,note_on,1,0,0,,12,,,71,127
17518,note_off,241,0,0,,12,,,71,127
17518,note_off,0,0,0,,10,,,81,127
17518,note_off,0,0,0,,10,,,69,127
17518,note_off,0,0,0,,12,,,59,127
17519,note_on,1,0,0,,0,,,60,127
17519,note_on,0,0,0,,10,,,69,127
17519,note_on,0,0,0,,10,,,81,127
17639,note_off,120,0,0,,10,,,81,127
17640,note_on,1,0,0,,7,,,79,127
17760,note_off,120,0,0,,7,,,79,127
17761,note_on,1,0,0,,6,,,78,127
17881,note_off,120,0,0,,6,,,78,127
17882,note_on,1,0,0,,4,,,76,127
18002,note_off,120,0,0,,4,,,76,127
18002,note_off,0,0,0,,10,,,69,127
18002,note_off,0,0,0,,0,,,60,127
18003,note_on,1,0,0,,0,,,60,127
18003,note_on,0,0,0,,10,,,69,127
18003,note_on,0,0,0,,4,,,76,127
18244,note_off,241,0,0,,0,,,60,127
18245,note_on,1,0,0,,10,,,57,127
18486,note_off,241,0,0,,10,,,57,127
18486,note_off,0,0,0,,4,,,76,127
18486,note_off,0,0,0,,10,,,69,127
18487,note_on,1,0,0,,3,,,63,127
18487,note_on,0,0,0,,10,,,69,127
18487,note_on,0,0,0,,6,,,78,127
18728,note_off,241,0,0,,3,,,63,127
18729,note_on,1,0,0,,12,,,59,127
18970,note_off,241,0,0,,12,,,59,127
18970,note_off,0,0,0,,6,,,78,127
18970,note_off,0,0,0,,10,,,69,127
18971,note_on,1,0,0,,4,,,64,127
18971,note_on,0,0,0,,12,,,71,127
18971,note_on,0,0,0,,10,,,69,127
19091,note_off,120,0,0,,10,,,69,127
19092,note_on,1,0,0,,7,,,67,127
19212,note_off,120,0,0,,7,,,67,127
19213,note_on,1,0,0,,6,,,66,127
19333,note_off,120,0,0,,6,,,66,127
19333,note_off,0,0,0,,4,,,64,127
19334,note_on,1,0,0,,4,,,64,127
19454,note_off,120,0,0,,4,,,64,127
19454,note_off,0,0,0,,12,,,71,127
19455,note_on,1,0,0,,7,,,55,127
19455,note_on,0,0,0,,7,,,79,127
19455,note_on,0,0,0,,11,,,70,127
19696,note_off,241,0,0,,11,,,70,127
19697,note_on,1,0,0,,7,,,67,127
19938,note_off,241,0,0,,7,,,67,127
19938,note_off,0,0,0,,7,,,79,127
19938,note_off,0,0,0,,7,,,55,127
19939,note_on,1,0,0,,10,,,57,127
19939,note_on,0,0,0,,7,,,79,127
19939,note_on,0,0,0,,1,,,73,127
20180,note_off,241,0,0,,1,,,73,127
20181,note_on,1,0,0,,10,,,69,127
20422,note_off,241,0,0,,10,,,69,127
20422,note_off,0,0,0,,7,,,79,127
20422,note_off,0,0,0,,10,,,57,127
20423,note_on,1,0,0,,11,,,58,127
20423,note_on,0,0,0,,7,,,79,127
20423,note_on,0,0,0,,7,,,67,127
20543,note_off,120,0,0,,7,,,79,127
20544,note_on,1,0,0,,5,,,77,127
20664,note_off,120,0,0,,5,,,77,127
20665,note_on,1,0,0,,4,,,76,127
20785,note_off,120,0,0,,4,,,76,127
20786,note_on,1,0,0,,2,,,74,127
20906,note_off,120,0,0,,2,,,74,127
20906,note_off,0,0,0,,7,,,67,127
20906,note_off,0,0,0,,11,,,58,127
20907,note_on,1,0,0,,11,,,58,127
20907,note_on,0,0,0,,2,,,74,127
20907,note_on,0,0,0,,7,,,67,127
21148,note_off,241,0,0,,11,,,58,127
21149,note_on,1,0,0,,7,,,55,127
21390,note_off,241,0,0,,7,,,55,127
21390,note_off,0,0,0,,7,,,67,127
21390,note_off,0,0,0,,2,,,74,127
21391,note_on,1,0,0,,1,,,61,127
21391,note_on,0,0,0,,7,,,67,127
21391,note_on,0,0,0,,4,,,76,127
21632,note_off,241,0,0,,1,,,61,127
21633,note_on,1,0,0,,10,,,57,127
21874,note_off,241,0,0,,10,,,57,127
21874,note_off,0,0,0,,4,,,76,127
21874,note_off,0,0,0,,7,,,67,127
21875,note_on,1,0,0,,2,,,62,127
21875,note_on,0,0,0,,10,,,69,127
21875,note_on,0,0,0,,7,,,67,127
21995,note_off,120,0,0,,7,,,67,127
21996,note_on,1,0,0,,5,,,65,127
22116,note_off,120,0,0,,5,,,65,127
22117,note_on,1,0,0,,4,,,64,127
22237,note_off,120,0,0,,4,,,64,127
22237,note_off,0,0,0,,2,,,62,127
22238,note_on,1,0,0,,2,,,62,127
22358,note_off,120,0,0,,2,,,62,127
22358,note_off,0,0,0,,10,,,69,127
22359,note_on,1,0,0,,5,,,53,127
22359,note_on,0,0,0,,10,,,69,127
22359,note_on,0,0,0,,5,,,77,127
22600,note_off,241,0,0,,10,,,69,127
22601,note_on,1,0,0,,5,,,65,127
22842,note_off,241,0,0,,5,,,65,127
22842,note_off,0,0,0,,5,,,77,127
22842,note_off,0,0,0,,5,,,53,127
22843,note_on,1,0,0,,7,,,55,127
22843,note_on,0,0,0,,5,,,77,127
22843,note_on,0,0,0,,12,,,71,127
23084,note_off,241,0,0,,12,,,71,127
23085,note_on,1,0,0,,7,,,67,127
23326,note_off,241,0,0,,7,,,67,127
23326,note_off,0,0,0,,5,,,77,127
23326,note_off,0,0,0,,7,,,55,127
23327,note_on,1,0,0,,10,,,57,127
23327,note_on,0,0,0,,5,,,77,127
23327,note_on,0,0,0,,5,,,65,127
23447,note_off,120,0,0,,5,,,77,127
23448,note_on,1,0,0,,4,,,76,127
23568,note_off,120,0,0,,4,,,76,127
23569,note_on,1,0,0,,2,,,74,127
23689,note_off,120,0,0,,2,,,74,127
23690,note_on,1,0,0,,0,,,72,127
23810,note_off,120,0,0,,0,,,72,127
23810,note_off,0,0,0,,5,,,65,127
23810,note_off,0,0,0,,10,,,57,127
23811,note_on,1,0,0,,10,,,57,127
23811,note_on,0,0,0,,0,,,72,127
23811,note_on,0,0,0,,5,,,65,127
24052,note_off,241,0,0,,10,,,57,127
24053,note_on,1,0,0,,5,,,53,127
24294,note_off,241,0,0,,5,,,53,127
24294,note_off,0,0,0,,5,,,65,127
24294,note_off,0,0,0,,0,,,72,127
24295,note_on,1,0,0,,12,,,59,127
24295,note_on,0,0,0,,2,,,74,127
24295,note_on,0,0,0,,5,,,65,127
24536,note_off,241,0,0,,12,,,59,127
24537,note_on,1,0,0,,7,,,55,127
24778,note_off,241,0,0,,7,,,55,127
24778,note_off,0,0,0,,5,,,65,127
24778,note_off,0,0,0,,2,,,74,127
24779,note_on,1,0,0,,0,,,60,127
24779,note_on,0,0,0,,7,,,67,127
24779,note_on,0,0,0,,5,,,65,127
24899,note_off,120,0,0,,5,,,65,127
24900,note_on,1,0,0,,4,,,64,127
25020,note_off,120,0,0,,4,,,64,127
25021,note_on,1,0,0,,2,,,62,127
25141,note_off,120,0,0,,2,,,62,127
25141,note_off,0,0,0,,0,,,60,127
25142,note_on,1,0,0,,0,,,60,127
25262,note_off,120,0,0,,0,,,60,127
25263,note_on,1,0,0,,0,,,60,127
25383,note_off,120,0,0,,7,,,67,127
25384,note_on,1,0,0,,7,,,79,127
25504,note_off,120,0,0,,7,,,79,127
25505,note_on,1,0,0,,5,,,77,127
25625,note_off,120,0,0,,5,,,77,127
25626,note_on,1,0,0,,7,,,79,127
25746,note_off,120,0,0,,7,,,79,127
25746,note_off,0,0,0,,0,,,60,127
25747,note_on,1,0,0,,5,,,53,127
25747,note_on,0,0,0,,0,,,60,127
25747,note_on,0,0,0,,10,,,81,127
25867,note_off,120,0,0,,10,,,81,127
25868,note_on,1,0,0,,5,,,77,127
25988,note_off,120,0,0,,5,,,77,127
25989,note_on,1,0,0,,4,,,76,127
26109,note_off,120,0,0,,4,,,76,127
26110,note_on,1,0,0,,5,,,77,127
26230,note_off,120,0,0,,5,,,77,127
26230,note_off,0,0,0,,0,,,60,127
26230,note_off,0,0,0,,5,,,53,127
26231,note_on,1,0,0,,0,,,60,127
26231,note_on,0,0,0,,4,,,52,127
26231,note_on,0,0,0,,7,,,79,127
26351,note_off,120,0,0,,7,,,79,127
26352,note_on,1,0,0,,4,,,76,127
26472,note_off,120,0,0,,4,,,76,127
26473,note_on,1,0,0,,2,,,74,127
26593,note_off,120,0,0,,2,,,74,127
26594,note_on,1,0,0,,4,,,76,127
26714,note_off,120,0,0,,4,,,76,127
26714,note_off,0,0,0,,4,,,52,127
26714,note_off,0,0,0,,0,,,60,127
26715,note_on,1,0,0,,0,,,60,127
26715,note_on,0,0,0,,5,,,53,127
26715,note_on,0,0,0,,5,,,77,127
26835,note_off,120,0,0,,5,,,77,127
26836,note_on,1,0,0,,2,,,74,127
26956,note_off,120,0,0,,2,,,74,127
26957,note_on,1,0,0,,0,,,72,127
27077,note_off,120,0,0,,0,,,72,127
27078,note_on,1,0,0,,2,,,74,127
27198,note_off,120,0,0,,2,,,74,127
27198,note_off,0,0,0,,5,,,53,127
27198,note_off,0,0,0,,0,,,60,127
27199,note_on,1,0,0,,7,,,55,127
27199,note_on,0,0,0,,4,,,64,127
27199,note_on,0,0,0,,0,,,60,127
27199,note_on,0,0,0,,4,,,76,127
27319,note_off,120,0,0,,4,,,76,127
27320,note_on,1,0,0,,0,,,72,127
27440,note_off,120,0,0,,0,,,72,127
27440,note_off,0,0,0,,0,,,60,127
27440,note_off,0,0,0,,4,,,64,127
27440,note_off,0,0,0,,7,,,55,127
27441,note_on,1,0,0,,7,,,55,127
27441,note_on,0,0,0,,2,,,62,127
27441,note_on,0,0,0,,12,,,59,127
27441,note_on,0,0,0,,2,,,74,127
27561,note_off,120,0,0,,2,,,74,127
27562,note_on,1,0,0,,12,,,71,127
27682,note_off,120,0,0,,12,,,71,127
27682,note_off,0,0,0,,12,,,59,127
27682,note_off,0,0,0,,2,,,62,127
27682,note_off,0,0,0,,7,,,55,127
27683,note_on,1,0,0,,0,,,60,127
27683,note_on,0,0,0,,0,,,72,127
28167,note_off,484,0,0,,0,,,72,127
28167,note_off,0,0,0,,0,,,60,127
28168,note_on,1,0,0,,0,,,36,127
28168,note_on,0,0,0,,4,,,64,127
28168,note_on,0,0,0,,0,,,60,127
28168,note_on,0,0,0,,7,,,67,127
28168,note_on,0,0,0,,0,,,72,127
28288,note_off,120,0,0,,0,,,36,127
28289,note_on,1,0,0,,4,,,40,127
28409,note_off,120,0,0,,4,,,40,127
28410,note_on,1,0,0,,7,,,43,127
28530,note_off,120,0,0,,7,,,43,127
28531,note_on,1,0,0,,0,,,48,127
28651,note_off,120,0,0,,0,,,48,127
28651,note_off,0,0,0,,0,,,72,127
28651,note_off,0,0,0,,7,,,67,127
28651,note_off,0,0,0,,0,,,60,127
28651,note_off,0,0,0,,4,,,64,127
28652,note_on,1,0,0,,0,,,36,127
28652,note_on,0,0,0,,0,,,60,127
28652,note_on,0,0,0,,0,,,72,127
28652,note_on,0,0,0,,10,,,69,127
28652,note_on,0,0,0,,5,,,65,127
28772,note_off,120,0,0,,0,,,36,127
28773,note_on,1,0,0,,5,,,41,127
28893,note_off,120,0,0,,5,,,41,127
28894,note_on,1,0,0,,10,,,45,127
29014,note_off,120,0,0,,10,,,45,127
29015,note_on,1,0,0,,0,,,48,127
29135,note_off,120,0,0,,0,,,48,127
29135,note_off,0,0,0,,5,,,65,127
29135,note_off,0,0,0,,10,,,69,127
29135,note_off,0,0,0,,0,,,72,127
29135,note_off,0,0,0,,0,,,60,127
29136,note_on,1,0,0,,0,,,84,127
29136,note_on,0,0,0,,7,,,67,127
29136,note_on,0,0,0,,0,,,60,127
29136,note_on,0,0,0,,0,,,72,127
29136,note_on,0,0,0,,4,,,64,127
29620,note_off,484,0,0,,4,,,64,127
29620,note_off,0,0,0,,0,,,72,127
29620,note_off,0,0,0,,0,,,60,127
29620,note_off,0,0,0,,7,,,67,127
29620,note_off,0,0,0,,0,,,84,127
29621,note_on,1,0,0,,0,,,36,127
29621,note_on,0,0,0,,0,,,60,127
29621,note_on,0,0,0,,7,,,67,127
29621,note_on,0,0,0,,4,,,64,127
29621,note_on,0,0,0,,0,,,72,127
29741,note_off,120,0,0,,0,,,36,127
29742,note_on,1,0,0,,4,,,40,127
29862,note_off,120,0,0,,4,,,40,127
29863,note_on,1,0,0,,7,,,43,127
29983,note_off,120,0,0,,7,,,43,127
29984,note_on,1,0,0,,0,,,48,127
30104,note_off,120,0,0,,0,,,48,127
30104,note_off,0,0,0,,0,,,72,127
30104,note_off,0,0,0,,4,,,64,127
30104,note_off,0,0,0,,7,,,67,127
30104,note_off,0,0,0,,0,,,60,127
30105,note_on,1,0,0,,0,,,36,127
30105,note_on,0,0,0,,0,,,60,127
30105,note_on,0,0,0,,0,,,72,127
30105,note_on,0,0,0,,10,,,69,127
30105,note_on,0,0,0,,5,,,65,127
30225,note_off,120,0,0,,0,,,36,127
30226,note_on,1,0,0,,5,,,41,127
30346,note_off,120,0,0,,5,,,41,127
30347,note_on,1,0,0,,10,,,45,127
30467,note_off,120,0,0,,10,,,45,127
30468,note_on,1,0,0,,0,,,48,127
30588,note_off,120,0,0,,0,,,48,127
30588,note_off,0,0,0,,5,,,65,127
30588,note_off,0,0,0,,10,,,69,127
30588,note_off,0,0,0,,0,,,72,127
30588,note_off,0,0,0,,0,,,60,127
30589,note_on,1,0,0,,0,,,84,127
30589,note_on,0,0,0,,7,,,67,127
30589,note_on,0,0,0,,0,,,60,127
30589,note_on,0,0,0,,0,,,72,127
30589,note_on,0,0,0,,4,,,64,127
31073,note_off,484,0,0,,4,,,64,127
31073,note_off,0,0,0,,0,,,72,127
31073,note_off,0,0,0,,0,,,60,127
31073,note_off,0,0,0,,7,,,67,127
31073,note_off,0,0,0,,0,,,84,127
31074,note_on,1,0,0,,0,,,36,127
31074,note_on,0,0,0,,7,,,79,127
31074,note_on,0,0,0,,7,,,67,127
31194,note_off,120,0,0,,0,,,36,127
31195,note_on,1,0,0,,4,,,40,127
31315,note_off,120,0,0,,4,,,40,127
31315,note_off,0,0,0,,7,,,79,127
31316,note_on,1,0,0,,7,,,43,127
31316,note_on,0,0,0,,4,,,76,127
31436,note_off,120,0,0,,7,,,43,127
31437,note_on,1,0,0,,0,,,48,127
31557,note_off,120,0,0,,0,,,48,127
31557,note_off,0,0,0,,4,,,76,127
31557,note_off,0,0,0,,7,,,67,127
31558,note_on,1,0,0,,0,,,36,127
31558,note_on,0,0,0,,10,,,81,127
31558,note_on,0,0,0,,10,,,69,127
31678,note_off,120,0,0,,0,,,36,127
31679,note_on,1,0,0,,5,,,41,127
31799,note_off,120,0,0,,5,,,41,127
31799,note_off,0,0,0,,10,,,81,127
31800,note_on,1,0,0,,10,,,45,127
31800,note_on,0,0,0,,5,,,77,127
31920,note_off,120,0,0,,10,,,45,127
31921,note_on,1,0,0,,0,,,48,127
32041,note_off,120,0,0,,0,,,48,127
32041,note_off,0,0,0,,5,,,77,127
32041,note_off,0,0,0,,10,,,69,127
32042,note_on,1,0,0,,0,,,84,127
32042,note_on,0,0,0,,7,,,67,127
32042,note_on,0,0,0,,7,,,79,127
32283,note_off,241,0,0,,7,,,79,127
32284,note_on,1,0,0,,4,,,76,127
32525,note_off,241,0,0,,4,,,76,127
32525,note_off,0,0,0,,7,,,67,127
32525,note_off,0,0,0,,0,,,84,127
32526,note_on,1,0,0,,0,,,36,127
32526,note_on,0,0,0,,7,,,79,127
32526,note_on,0,0,0,,7,,,67,127
32646,note_off,120,0,0,,0,,,36,127
32647,note_on,1,0,0,,4,,,40,127
32767,note_off,120,0,0,,4,,,40,127
32767,note_off,0,0,0,,7,,,79,127
32768,note_on,1,0,0,,7,,,43,127
32768,note_on,0,0,0,,4,,,76,127
32888,note_off,120,0,0,,7,,,43,127
32889,note_on,1,0,0,,0,,,48,127
33009,note_off,120,0,0,,0,,,48,127
33009,note_off,0,0,0,,4,,,76,127
33009,note_off,0,0,0,,7,,,67,127
33010,note_on,1,0,0,,0,,,36,127
33010,note_on,0,0,0,,10,,,69,127
33010,note_on,0,0,0,,10,,,81,127
33130,note_off,120,0,0,,0,,,36,127
33131,note_on,1,0,0,,5,,,41,127
33251,note_off,120,0,0,,5,,,41,127
33251,note_off,0,0,0,,10,,,81,127
33252,note_on,1,0,0,,10,,,45,127
33252,note_on,0,0,0,,5,,,77,127
33372,note_off,120,0,0,,10,,,45,127
33373,note_on,1,0,0,,0,,,48,127
33493,note_off,120,0,0,,0,,,48,127
33493,note_off,0,0,0,,5,,,77,127
33493,note_off,0,0,0,,10,,,69,127
33494,note_on,1,0,0,,0,,,84,127
33494,note_on,0,0,0,,7,,,67,127
33494,note_on,0,0,0,,7,,,79,127
33735,note_off,241,0,0,,7,,,79,127
33736,note_on,1,0,0,,4,,,76,127
33977,note_off,241,0,0,,4,,,76,127
33977,note_off,0,0,0,,7,,,67,127
33978,note_on,1,0,0,,4,,,52,127
33978,note_on,0,0,0,,0,,,60,127
34099,note_off,121,0,0,,0,,,84,127
34099,note_on,0,0,0,,12,,,83,127
34219,note_off,120,0,0,,12,,,83,127
34220,note_on,1,0,0,,10,,,81,127
34340,note_off,120,0,0,,10,,,81,127
34341,note_on,1,0,0,,7,,,79,127
34461,note_off,120,0,0,,7,,,79,127
34461,note_off,0,0,0,,0,,,60,127
34461,note_off,0,0,0,,4,,,52,127
34462,note_on,1,0,0,,5,,,53,127
34462,note_on,0,0,0,,0,,,60,127
34462,note_on,0,0,0,,5,,,77,127
34582,note_off,120,0,0,,5,,,77,127
34583,note_on,1,0,0,,4,,,76,127
34703,note_off,120,0,0,,4,,,76,127
34704,note_on,1,0,0,,2,,,74,127
34824,note_off,120,0,0,,2,,,74,127
34825,note_on,1,0,0,,0,,,72,127
34942,note_off,117,0,0,,0,,,72,127
34945,note_off,3,0,0,,0,,,60,127
34945,note_off,0,0,0,,5,,,53,127
34946,note_on,1,0,0,,7,,,55,127
34946,note_on,0,0,0,,0,,,72,127
35430,note_off,484,0,0,,0,,,72,127
35430,note_off,0,0,0,,7,,,55,127
35431,note_on,1,0,0,,7,,,67,127
35431,note_on,0,0,0,,12,,,71,127
35551,note_off,120,0,0,,7,,,67,127
35552,note_on,1,0,0,,5,,,65,127
35672,note_off,120,0,0,,5,,,65,127
35673,note_on,1,0,0,,4,,,64,127
35793,note_off,120,0,0,,4,,,64,127
35794,note_on,1,0,0,,2,,,62,127
35914,note_off,120,0,0,,2,,,62,127
35914,note_off,0,0,0,,12,,,71,127
35915,note_on,1,0,0,,0,,,60,127
35915,note_on,0,0,0,,0,,,72,127
36035,note_off,120,0,0,,0,,,60,127
36036,note_on,1,0,0,,12,,,59,127
36156,note_off,120,0,0,,12,,,59,127
36157,note_on,1,0,0,,10,,,57,127
36277,note_off,120,0,0,,10,,,57,127
36278,note_on,1,0,0,,7,,,55,127
36398,note_off,120,0,0,,7,,,55,127
36399,note_on,1,0,0,,5,,,53,127
36444,note_off,45,0,0,,0,,,72,127
36520,note_on,76,0,0,,10,,,81,127
36640,note_off,120,0,0,,10,,,81,127
36641,note_on,1,0,0,,7,,,79,127
36761,note_off,120,0,0,,7,,,79,127
36762,note_on,1,0,0,,5,,,77,127
36882,note_off,120,0,0,,5,,,77,127
36882,note_off,0,0,0,,5,,,53,127
36883,note_on,1,0,0,,7,,,55,127
36883,note_on,0,0,0,,4,,,76,127
37003,note_off,120,0,0,,4,,,76,127
37004,note_on,1,0,0,,5,,,77,127
37124,note_off,120,0,0,,5,,,77,127
37125,note_on,1,0,0,,7,,,79,127
37245,note_off,120,0,0,,7,,,79,127
37246,note_on,1,0,0,,5,,,77,127
37366,note_off,120,0,0,,5,,,77,127
37366,note_off,0,0,0,,7,,,55,127
37367,note_on,1,0,0,,7,,,43,127
37367,note_on,0,0,0,,4,,,76,127
37487,note_off,120,0,0,,4,,,76,127
37488,note_on,1,0,0,,2,,,74,127
37608,note_off,120,0,0,,2,,,74,127
37609,note_on,1,0,0,,0,,,72,127
37729,note_off,120,0,0,,0,,,72,127
37730,note_on,1,0,0,,12,,,71,127
37850,note_off,120,0,0,,12,,,71,127
37850,note_off,0,0,0,,7,,,43,127
37851,note_on,1,0,0,,0,,,48,127
37851,note_on,0,0,0,,0,,,72,127
38092,note_off,241,0,0,,0,,,72,127
38093,note_on,1,0,0,,4,,,76,127
38334,note_off,241,0,0,,4,,,76,127
38334,note_off,0,0,0,,0,,,48,127
38335,note_on,1,0,0,,0,,,72,127
38335,note_on,0,0,0,,7,,,79,127
38415,note_off,80,0,0,,7,,,79,127
38416,note_on,1,0,0,,5,,,77,127
38496,note_off,80,0,0,,5,,,77,127
38497,note_on,1,0,0,,4,,,76,127
38574,note_off,77,0,0,,4,,,76,127
38578,note_on,4,0,0,,4,,,76,127
38819,note_off,241,0,0,,0,,,72,127
38820,note_on,1,0,0,,12,,,71,127
39061,note_off,241,0,0,,4,,,76,127
39062,note_on,1,0,0,,2,,,74,127
39222,note_off,160,0,0,,2,,,74,127
39223,note_on,1,0,0,,12,,,83,127
39303,note_off,80,0,0,,12,,,83,127
39303,note_off,0,0,0,,12,,,71,127
39304,note_on,1,0,0,,10,,,57,127
39304,note_on,0,0,0,,0,,,84,127
39545,note_off,241,0,0,,0,,,84,127
39546,note_on,1,0,0,,0,,,72,127
39787,note_off,241,0,0,,0,,,72,127
39787,note_off,0,0,0,,10,,,57,127
39788,note_on,1,0,0,,10,,,69,127
39788,note_on,0,0,0,,4,,,76,127
39868,note_off,80,0,0,,4,,,76,127
39869,note_on,1,0,0,,2,,,74,127
39949,note_off,80,0,0,,2,,,74,127
39950,note_on,1,0,0,,0,,,72,127
40027,note_off,77,0,0,,0,,,72,127
40031,note_on,4,0,0,,0,,,72,127
40272,note_off,241,0,0,,10,,,69,127
40273,note_on,1,0,0,,7,,,67,127
40514,note_off,241,0,0,,0,,,72,127
40515,note_on,1,0,0,,12,,,71,127
40675,note_off,160,0,0,,12,,,71,127
40676,note_on,1,0,0,,12,,,83,127
40756,note_off,80,0,0,,12,,,83,127
40756,note_off,0,0,0,,7,,,67,127
40757,note_on,1,0,0,,5,,,53,127
40757,note_on,0,0,0,,0,,,84,127
40998,note_off,241,0,0,,0,,,84,127
40999,note_on,1,0,0,,10,,,69,127
41240,note_off,241,0,0,,10,,,69,127
41240,note_off,0,0,0,,5,,,53,127
41241,note_on,1,0,0,,5,,,65,127
41241,note_on,0,0,0,,0,,,72,127
41321,note_off,80,0,0,,0,,,72,127
41322,note_on,1,0,0,,12,,,71,127
41402,note_off,80,0,0,,12,,,71,127
41403,note_on,1,0,0,,10,,,69,127
41480,note_off,77,0,0,,10,,,69,127
41484,note_on,4,0,0,,10,,,69,127
41725,note_off,241,0,0,,5,,,65,127
41726,note_on,1,0,0,,4,,,64,127
41843,note_off,117,0,0,,10,,,69,127
41847,note_on,4,0,0,,10,,,69,127
41964,note_off,117,0,0,,10,,,69,127
41968,note_on,4,0,0,,10,,,69,127
42088,note_off,120,0,0,,10,,,69,127
42089,note_on,1,0,0,,7,,,67,127
42209,note_off,120,0,0,,7,,,67,127
42209,note_off,0,0,0,,4,,,64,127
42210,note_on,1,0,0,,2,,,62,127
42210,note_on,0,0,0,,7,,,67,127
42330,note_off,120,0,0,,7,,,67,127
42331,note_on,1,0,0,,5,,,65,127
42451,note_off,120,0,0,,5,,,65,127
42452,note_on,1,0,0,,2,,,74,127
42572,note_off,120,0,0,,2,,,74,127
42573,note_on,1,0,0,,0,,,72,127
42693,note_off,120,0,0,,0,,,72,127
42693,note_off,0,0,0,,2,,,62,127
42694,note_on,1,0,0,,5,,,53,127
42694,note_on,0,0,0,,0,,,72,127
42814,note_off,120,0,0,,0,,,72,127
42815,note_on,1,0,0,,12,,,71,127
42935,note_off,120,0,0,,12,,,71,127
42936,note_on,1,0,0,,5,,,77,127
43056,note_off,120,0,0,,5,,,77,127
43057,note_on,1,0,0,,4,,,76,127
43177,note_off,120,0,0,,4,,,76,127
43177,note_off,0,0,0,,5,,,53,127
43178,note_on,1,0,0,,7,,,55,127
43178,note_on,0,0,0,,4,,,76,127
43298,note_off,120,0,0,,4,,,76,127
43299,note_on,1,0,0,,2,,,74,127
43419,note_off,120,0,0,,2,,,74,127
43420,note_on,1,0,0,,7,,,79,127
43540,note_off,120,0,0,,7,,,79,127
43541,note_on,1,0,0,,5,,,77,127
43661,note_off,120,0,0,,5,,,77,127
43661,note_off,0,0,0,,7,,,55,127
43662,note_on,1,0,0,,0,,,60,127
43662,note_on,0,0,0,,5,,,77,127
43782,note_off,120,0,0,,5,,,77,127
43783,note_on,1,0,0,,4,,,76,127
43903,note_off,120,0,0,,4,,,76,127
43904,note_on,1,0,0,,4,,,76,127
44024,note_off,120,0,0,,4,,,76,127
44025,note_on,1,0,0,,2,,,74,127
44145,note_off,120,0,0,,2,,,74,127
44145,note_off,0,0,0,,0,,,60,127
44146,note_on,1,0,0,,2,,,62,127
44146,note_on,0,0,0,,2,,,74,127
44266,note_off,120,0,0,,2,,,74,127
44267,note_on,1,0,0,,0,,,72,127
44387,note_off,120,0,0,,0,,,72,127
44388,note_on,1,0,0,,0,,,72,127
44508,note_off,120,0,0,,0,,,72,127
44509,note_on,1,0,0,,12,,,71,127
44629,note_off,120,0,0,,12,,,71,127
44629,note_off,0,0,0,,2,,,62,127
44630,note_on,1,0,0,,4,,,64,127
44630,note_on,0,0,0,,0,,,72,127
44750,note_off,120,0,0,,0,,,72,127
44751,note_on,1,0,0,,7,,,79,127
44871,note_off,120,0,0,,7,,,79,127
44872,note_on,1,0,0,,5,,,77,127
44992,note_off,120,0,0,,5,,,77,127
44993,note_on,1,0,0,,7,,,79,127
45113,note_off,120,0,0,,7,,,79,127
45113,note_off,0,0,0,,4,,,64,127
45114,note_on,1,0,0,,5,,,65,127
45114,note_on,0,0,0,,10,,,81,127
45234,note_off,120,0,0,,10,,,81,127
45235,note_on,1,0,0,,5,,,77,127
45355,note_off,120,0,0,,5,,,77,127
45356,note_on,1,0,0,,4,,,76,127
45476,note_off,120,0,0,,4,,,76,127
45477,note_on,1,0,0,,2,,,74,127
45597,note_off,120,0,0,,2,,,74,127
45597,note_off,0,0,0,,5,,,65,127
45598,note_on,1,0,0,,7,,,67,127
45598,note_on,0,0,0,,4,,,76,127
45718,note_off,120,0,0,,4,,,76,127
45719,note_on,1,0,0,,5,,,77,127
45839,note_off,120,0,0,,5,,,77,127
45840,note_on,1,0,0,,7,,,79,127
45960,note_off,120,0,0,,7,,,79,127
45961,note_on,1,0,0,,5,,,77,127
46081,note_off,120,0,0,,5,,,77,127
46082,note_on,1,0,0,,7,,,55,127
46082,note_on,0,0,0,,4,,,76,127
46202,note_off,120,0,0,,4,,,76,127
46203,note_on,1,0,0,,2,,,74,127
46323,note_off,120,0,0,,2,,,74,127
46324,note_on,1,0,0,,0,,,72,127
46444,note_off,120,0,0,,0,,,72,127
46445,note_on,1,0,0,,12,,,71,127
46565,note_off,120,0,0,,12,,,71,127
46565,note_off,0,0,0,,7,,,55,127
46565,note_off,0,0,0,,7,,,67,127
46566,note_on,1,0,0,,0,,,60,127
46566,note_on,0,0,0,,0,,,72,127
46807,note_off,241,0,0,,0,,,72,127
46808,note_on,1,0,0,,4,,,76,127
47049,note_off,241,0,0,,4,,,76,127
47049,note_off,0,0,0,,0,,,60,127
47050,note_on,1,0,0,,0,,,72,127
47050,note_on,0,0,0,,7,,,79,127
47130,note_off,80,0,0,,7,,,79,127
47131,note_on,1,0,0,,5,,,77,127
47211,note_off,80,0,0,,5,,,77,127
47212,note_on,1,0,0,,4,,,76,127
47289,note_off,77,0,0,,4,,,76,127
47293,note_on,4,0,0,,4,,,76,127
47534,note_off,241,0,0,,0,,,72,127
47535,note_on,1,0,0,,12,,,71,127
47776,note_off,241,0,0,,4,,,76,127
47777,note_on,1,0,0,,2,,,74,127
47937,note_off,160,0,0,,2,,,74,127
47938,note_on,1,0,0,,8,,,80,127
47938,note_on,0,0,0,,12,,,83,127
48018,note_off,80,0,0,,12,,,83,127
48018,note_off,0,0,0,,8,,,80,127
48018,note_off,0,0,0,,12,,,71,127
48019,note_on,1,0,0,,10,,,57,127
48019,note_on,0,0,0,,10,,,81,127
48019,note_on,0,0,0,,0,,,84,127
48260,note_off,241,0,0,,10,,,81,127
48261,note_on,1,0,0,,0,,,72,127
48502,note_off,241,0,0,,0,,,72,127
48502,note_off,0,0,0,,0,,,84,127
48502,note_off,0,0,0,,10,,,57,127
48503,note_on,1,0,0,,10,,,69,127
48503,note_on,0,0,0,,4,,,76,127
48583,note_off,80,0,0,,4,,,76,127
48584,note_on,1,0,0,,2,,,74,127
48664,note_off,80,0,0,,2,,,74,127
48665,note_on,1,0,0,,0,,,72,127
48742,note_off,77,0,0,,0,,,72,127
48746,note_on,4,0,0,,0,,,72,127
48987,note_off,241,0,0,,10,,,69,127
48988,note_on,1,0,0,,7,,,67,127
49229,note_off,241,0,0,,0,,,72,127
49230,note_on,1,0,0,,12,,,71,127
49390,note_off,160,0,0,,12,,,71,127
49391,note_on,1,0,0,,8,,,80,127
49391,note_on,0,0,0,,12,,,83,127
49471,note_off,80,0,0,,12,,,83,127
49471,note_off,0,0,0,,8,,,80,127
49471,note_off,0,0,0,,7,,,67,127
49472,note_on,1,0,0,,5,,,53,127
49472,note_on,0,0,0,,10,,,81,127
49472,note_on,0,0,0,,0,,,84,127
49713,note_off,241,0,0,,10,,,81,127
49714,note_on,1,0,0,,10,,,69,127
49955,note_off,241,0,0,,10,,,69,127
49955,note_off,0,0,0,,0,,,84,127
49955,note_off,0,0,0,,5,,,53,127
49956,note_on,1,0,0,,5,,,65,127
49956,note_on,0,0,0,,0,,,72,127
50036,note_off,80,0,0,,0,,,72,127
50037,note_on,1,0,0,,12,,,71,127
50117,note_off,80,0,0,,12,,,71,127
50118,note_on,1,0,0,,10,,,69,127
50195,note_off,77,0,0,,10,,,69,127
50199,note_on,4,0,0,,10,,,69,127
50440,note_off,241,0,0,,5,,,65,127
50441,note_on,1,0,0,,4,,,64,127
50558,note_off,117,0,0,,10,,,69,127
50562,note_on,4,0,0,,10,,,69,127
50679,note_off,117,0,0,,10,,,69,127
50683,note_on,4,0,0,,10,,,69,127
50803,note_off,120,0,0,,10,,,69,127
50804,note_on,1,0,0,,7,,,67,127
50924,note_off,120,0,0,,7,,,67,127
50924,note_off,0,0,0,,4,,,64,127
50925,note_on,1,0,0,,2,,,62,127
50925,note_on,0,0,0,,7,,,67,127
51045,note_off,120,0,0,,7,,,67,127
51046,note_on,1,0,0,,5,,,65,127
51166,note_off,120,0,0,,5,,,65,127
51167,note_on,1,0,0,,2,,,74,127
51287,note_off,120,0,0,,2,,,74,127
51288,note_on,1,0,0,,0,,,72,127
51408,note_off,120,0,0,,0,,,72,127
51408,note_off,0,0,0,,2,,,62,127
51409,note_on,1,0,0,,5,,,53,127
51409,note_on,0,0,0,,0,,,72,127
51529,note_off,120,0,0,,0,,,72,127
51530,note_on,1,0,0,,12,,,71,127
51650,note_off,120,0,0,,12,,,71,127
51651,note_on,1,0,0,,5,,,77,127
51771,note_off,120,0,0,,5,,,77,127
51772,note_on,1,0,0,,4,,,76,127
51892,note_off,120,0,0,,4,,,76,127
51892,note_off,0,0,0,,5,,,53,127
51893,note_on,1,0,0,,7,,,55,127
51893,note_on,0,0,0,,4,,,76,127
52013,note_off,120,0,0,,4,,,76,127
52014,note_on,1,0,0,,2,,,74,127
52134,note_off,120,0,0,,2,,,74,127
52135,note_on,1,0,0,,7,,,79,127
52255,note_off,120,0,0,,7,,,79,127
52256,note_on,1,0,0,,5,,,77,127
52376,note_off,120,0,0,,5,,,77,127
52376,note_off,0,0,0,,7,,,55,127
52377,note_on,1,0,0,,0,,,60,127
52377,note_on,0,0,0,,5,,,77,127
52497,note_off,120,0,0,,5,,,77,127
52498,note_on,1,0,0,,4,,,76,127
52618,note_off,120,0,0,,4,,,76,127
52619,note_on,1,0,0,,4,,,76,127
52739,note_off,120,0,0,,4,,,76,127
52740,note_on,1,0,0,,2,,,74,127
52860,note_off,120,0,0,,2,,,74,127
52860,note_off,0,0,0,,0,,,60,127
52861,note_on,1,0,0,,2,,,62,127
52861,note_on,0,0,0,,2,,,74,127
52981,note_off,120,0,0,,2,,,74,127
52982,note_on,1,0,0,,0,,,72,127
53102,note_off,120,0,0,,0,,,72,127
53103,note_on,1,0,0,,0,,,72,127
53223,note_off,120,0,0,,0,,,72,127
53224,note_on,1,0,0,,12,,,71,127
53344,note_off,120,0,0,,12,,,71,127
53344,note_off,0,0,0,,2,,,62,127
53345,note_on,1,0,0,,4,,,64,127
53345,note_on,0,0,0,,0,,,72,127
53465,note_off,120,0,0,,0,,,72,127
53466,note_on,1,0,0,,7,,,79,127
53586,note_off,120,0,0,,7,,,79,127
53587,note_on,1,0,0,,5,,,77,127
53707,note_off,120,0,0,,5,,,77,127
53708,note_on,1,0,0,,7,,,79,127
53828,note_off,120,0,0,,7,,,79,127
53828,note_off,0,0,0,,4,,,64,127
53829,note_on,1,0,0,,5,,,65,127
53829,note_on,0,0,0,,10,,,81,127
53949,note_off,120,0,0,,10,,,81,127
53950,note_on,1,0,0,,5,,,77,127
54070,note_off,120,0,0,,5,,,77,127
54071,note_on,1,0,0,,4,,,76,127
54191,note_off,120,0,0,,4,,,76,127
54192,note_on,1,0,0,,2,,,74,127
54312,note_off,120,0,0,,2,,,74,127
54312,note_off,0,0,0,,5,,,65,127
54313,note_on,1,0,0,,7,,,67,127
54313,note_on,0,0,0,,4,,,76,127
54433,note_off,120,0,0,,4,,,76,127
54434,note_on,1,0,0,,5,,,77,127
54554,note_off,120,0,0,,5,,,77,127
54555,note_on,1,0,0,,7,,,79,127
54675,note_off,120,0,0,,7,,,79,127
54676,note_on,1,0,0,,5,,,77,127
54796,note_off,120,0,0,,5,,,77,127
54797,note_on,1,0,0,,7,,,55,127
54797,note_on,0,0,0,,4,,,76,127
54917,note_off,120,0,0,,4,,,76,127
54918,note_on,1,0,0,,2,,,74,127
55038,note_off,120,0,0,,2,,,74,127
55038,note_off,0,0,0,,7,,,67,127
55039,note_on,1,0,0,,0,,,72,127
55159,note_off,120,0,0,,0,,,72,127
55160,note_on,1,0,0,,12,,,71,127
55280,note_off,120,0,0,,12,,,71,127
55280,note_off,0,0,0,,7,,,55,127
55281,note_on,1,0,0,,0,,,48,127
55281,note_on,0,0,0,,0,,,72,127
55401,note_off,120,0,0,,0,,,72,127
55402,note_on,1,0,0,,7,,,67,127
55522,note_off,120,0,0,,7,,,67,127
55523,note_on,1,0,0,,0,,,72,127
55643,note_off,120,0,0,,0,,,72,127
55644,note_on,1,0,0,,4,,,76,127
55764,note_off,120,0,0,,4,,,76,127
55764,note_off,0,0,0,,0,,,48,127
55765,note_on,1,0,0,,0,,,60,127
55765,note_on,0,0,0,,7,,,67,127
55765,note_on,0,0,0,,7,,,79,127
55885,note_off,120,0,0,,7,,,67,127
55886,note_on,1,0,0,,5,,,65,127
56006,note_off,120,0,0,,5,,,65,127
56007,note_on,1,0,0,,4,,,64,127
56127,note_off,120,0,0,,4,,,64,127
56128,note_on,1,0,0,,2,,,62,127
56248,note_off,120,0,0,,2,,,62,127
56249,note_on,1,0,0,,4,,,64,127
56369,note_off,120,0,0,,4,,,64,127
56369,note_off,0,0,0,,7,,,79,127
56370,note_on,1,0,0,,2,,,62,127
56370,note_on,0,0,0,,5,,,77,127
56490,note_off,120,0,0,,5,,,77,127
56490,note_off,0,0,0,,2,,,62,127
56490,note_off,0,0,0,,0,,,60,127
56491,note_on,1,0,0,,0,,,60,127
56491,note_on,0,0,0,,4,,,76,127
56611,note_off,120,0,0,,4,,,76,127
56611,note_off,0,0,0,,0,,,60,127
56612,note_on,1,0,0,,12,,,59,127
56612,note_on,0,0,0,,2,,,74,127
56732,note_off,120,0,0,,2,,,74,127
56732,note_off,0,0,0,,12,,,59,127
56733,note_on,1,0,0,,0,,,36,127
56733,note_on,0,0,0,,0,,,72,127
56853,note_off,120,0,0,,0,,,72,127
56854,note_on,1,0,0,,7,,,67,127
56974,note_off,120,0,0,,7,,,67,127
56975,note_on,1,0,0,,0,,,72,127
57095,note_off,120,0,0,,0,,,72,127
57096,note_on,1,0,0,,4,,,76,127
57216,note_off,120,0,0,,4,,,76,127
57216,note_off,0,0,0,,0,,,36,127
57217,note_on,1,0,0,,0,,,60,127
57217,note_on,0,0,0,,7,,,67,127
57217,note_on,0,0,0,,7,,,79,127
57337,note_off,120,0,0,,7,,,67,127
57338,note_on,1,0,0,,5,,,65,127
57458,note_off,120,0,0,,5,,,65,127
57459,note_on,1,0,0,,4,,,64,127
57579,note_off,120,0,0,,4,,,64,127
57580,note_on,1,0,0,,2,,,62,127
57700,note_off,120,0,0,,2,,,62,127
57701,note_on,1,0,0,,4,,,64,127
57821,note_off,120,0,0,,4,,,64,127
57821,note_off,0,0,0,,7,,,79,127
57822,note_on,1,0,0,,2,,,62,127
57822,note_on,0,0,0,,5,,,77,127
57942,note_off,120,0,0,,5,,,77,127
57942,note_off,0,0,0,,2,,,62,127
57942,note_off,0,0,0,,0,,,60,127
57943,note_on,1,0,0,,0,,,60,127
57943,note_on,0,0,0,,4,,,76,127
58063,note_off,120,0,0,,4,,,76,127
58063,note_off,0,0,0,,0,,,60,127
58064,note_on,1,0,0,,12,,,59,127
58064,note_on,0,0,0,,2,,,74,127
58184,note_off,120,0,0,,2,,,74,127
58184,note_off,0,0,0,,12,,,59,127
58185,note_on,1,0,0,,0,,,36,127
58185,note_on,0,0,0,,0,,,72,127
58305,note_off,120,0,0,,0,,,72,127
58306,note_on,1,0,0,,7,,,67,127
58426,note_off,120,0,0,,7,,,67,127
58427,note_on,1,0,0,,0,,,72,127
58547,note_off,120,0,0,,0,,,72,127
58548,note_on,1,0,0,,4,,,76,127
58668,note_off,120,0,0,,4,,,76,127
58668,note_off,0,0,0,,0,,,36,127
58669,note_on,1,0,0,,0,,,60,127
58669,note_on,0,0,0,,7,,,67,127
58669,note_on,0,0,0,,0,,,84,127
58789,note_off,120,0,0,,7,,,67,127
58790,note_on,1,0,0,,5,,,65,127
58910,note_off,120,0,0,,5,,,65,127
58911,note_on,1,0,0,,4,,,64,127
59031,note_off,120,0,0,,4,,,64,127
59032,note_on,1,0,0,,2,,,62,127
59152,note_off,120,0,0,,2,,,62,127
59153,note_on,1,0,0,,4,,,64,127
59273,note_off,120,0,0,,4,,,64,127
59273,note_off,0,0,0,,0,,,84,127
59274,note_on,1,0,0,,2,,,62,127
59274,note_on,0,0,0,,5,,,77,127
59394,note_off,120,0,0,,5,,,77,127
59394,note_off,0,0,0,,2,,,62,127
59394,note_off,0,0,0,,0,,,60,127
59395,note_on,1,0,0,,0,,,60,127
59395,note_on,0,0,0,,4,,,76,127
59515,note_off,120,0,0,,4,,,76,127
59515,note_off,0,0,0,,0,,,60,127
59516,note_on,1,0,0,,12,,,59,127
59516,note_on,0,0,0,,2,,,74,127
59636,note_off,120,0,0,,2,,,74,127
59636,note_off,0,0,0,,12,,,59,127
59637,note_on,1,0,0,,0,,,36,127
59637,note_on,0,0,0,,4,,,76,127
59757,note_off,120,0,0,,4,,,76,127
59758,note_on,1,0,0,,4,,,76,127
59878,note_off,120,0,0,,4,,,76,127
59879,note_on,1,0,0,,5,,,77,127
59999,note_off,120,0,0,,5,,,77,127
60000,note_on,1,0,0,,7,,,79,127
60120,note_off,120,0,0,,0,,,36,127
60121,note_on,1,0,0,,5,,,53,127
60121,note_on,0,0,0,,10,,,69,127
60240,note_off,119,0,0,,7,,,79,127
60243,note_on,3,0,0,,10,,,81,127
60362,note_off,119,0,0,,10,,,69,127
60363,note_off,1,0,0,,10,,,81,127
60364,note_on,1,0,0,,7,,,79,127
60484,note_off,120,0,0,,7,,,79,127
60485,note_on,1,0,0,,5,,,77,127
60605,note_off,120,0,0,,5,,,77,127
60605,note_off,0,0,0,,5,,,53,127
60606,note_on,1,0,0,,7,,,55,127
60606,note_on,0,0,0,,4,,,76,127
60726,note_off,120,0,0,,4,,,76,127
60727,note_on,1,0,0,,2,,,74,127
60847,note_off,120,0,0,,2,,,74,127
60848,note_on,1,0,0,,0,,,72,127
60968,note_off,120,0,0,,0,,,72,127
60969,note_on,1,0,0,,12,,,71,127
61089,note_off,120,0,0,,12,,,71,127
61089,note_off,0,0,0,,7,,,55,127
61090,note_on,1,0,0,,10,,,57,127
61090,note_on,0,0,0,,0,,,72,127
61210,note_off,120,0,0,,0,,,72,127
61211,note_on,1,0,0,,10,,,69,127
61331,note_off,120,0,0,,10,,,69,127
61332,note_on,1,0,0,,12,,,71,127
61452,note_off,120,0,0,,12,,,71,127
61453,note_on,1,0,0,,0,,,72,127
61573,note_off,120,0,0,,10,,,57,127
61574,note_on,1,0,0,,5,,,53,127
61574,note_on,0,0,0,,2,,,62,127
61693,note_off,119,0,0,,0,,,72,127
61694,note_off,1,0,0,,2,,,62,127
61695,note_on,1,0,0,,10,,,69,127
61815,note_off,120,0,0,,10,,,69,127
61816,note_on,1,0,0,,7,,,67,127
61936,note_off,120,0,0,,7,,,67,127
61937,note_on,1,0,0,,5,,,65,127
62057,note_off,120,0,0,,5,,,65,127
62057,note_off,0,0,0,,5,,,53,127
62058,note_on,1,0,0,,7,,,55,127
62058,note_on,0,0,0,,4,,,64,127
62178,note_off,120,0,0,,4,,,64,127
62179,note_on,1,0,0,,2,,,62,127
62299,note_off,120,0,0,,2,,,62,127
62300,note_on,1,0,0,,0,,,60,127
62420,note_off,120,0,0,,0,,,60,127
62421,note_on,1,0,0,,12,,,59,127
62541,note_off,120,0,0,,12,,,59,127
62541,note_off,0,0,0,,7,,,55,127
62542,note_on,1,0,0,,0,,,48,127
62542,note_on,0,0,0,,12,,,59,127
63026,note_off,484,0,0,,12,,,59,127
63027,note_on,1,0,0,,0,,,60,127
63785,note_off,758,0,0,,0,,,60,127
63996,note_off,211,0,0,,0,,,48,127
63997,note_on,1,0,0,,4,,,64,127
63997,note_on,0,0,0,,0,,,60,127
63997,note_on,0,0,0,,7,,,67,127
64481,note_off,484,0,0,,7,,,67,127
64481,note_off,0,0,0,,0,,,60,127
64481,note_off,0,0,0,,4,,,64,127
64482,note_on,1,0,0,,0,,,60,127
64482,note_on,0,0,0,,4,,,64,127
64482,note_on,0,0,0,,7,,,67,127
64966,note_off,484,0,0,,7,,,67,127
64966,note_off,0,0,0,,4,,,64,127
64966,note_off,0,0,0,,0,,,60,127
64967,note_on,1,0,0,,4,,,64,127
64967,note_on,0,0,0,,0,,,60,127
64967,note_on,0,0,0,,7,,,67,127
65451,note_off,484,0,0,,7,,,67,127
65451,note_off,0,0,0,,0,,,60,127
65451,note_off,0,0,0,,4,,,64,127
65452,note_on,1,0,0,,4,,,64,127
65452,note_on,0,0,0,,11,,,58,127
65452,note_on,0,0,0,,7,,,67,127
65936,note_off,484,0,0,,7,,,67,127
65936,note_off,0,0,0,,11,,,58,127
65936,note_off,0,0,0,,4,,,64,127
65937,note_on,1,0,0,,4,,,64,127
65937,note_on,0,0,0,,11,,,58,127
65937,note_on,0,0,0,,7,,,67,127
66421,note_off,484,0,0,,7,,,67,127
66421,note_off,0,0,0,,11,,,58,127
66421,note_off,0,0,0,,4,,,64,127
66422,note_on,1,0,0,,11,,,58,127
66422,note_on,0,0,0,,4,,,64,127
66422,note_on,0,0,0,,10,,,69,127
66663,note_off,241,0,0,,10,,,69,127
66664,note_on,1,0,0,,11,,,70,127
66905,note_off,241,0,0,,11,,,70,127
66905,note_off,0,0,0,,4,,,64,127
66905,note_off,0,0,0,,11,,,58,127
66906,note_on,1,0,0,,4,,,64,127
66906,note_on,0,0,0,,1,,,61,127
66906,note_on,0,0,0,,11,,,70,127
67147,note_off,241,0,0,,11,,,70,127
67148,note_on,1,0,0,,10,,,69,127
67389,note_off,241,0,0,,1,,,61,127
67389,note_off,0,0,0,,4,,,64,127
67390,note_on,1,0,0,,1,,,61,127
67631,note_off,241,0,0,,10,,,69,127
67632,note_on,1,0,0,,7,,,67,127
67873,note_off,241,0,0,,7,,,67,127
67873,note_off,0,0,0,,1,,,61,127
67874,note_on,1,0,0,,1,,,61,127
67874,note_on,0,0,0,,5,,,65,127
68115,note_off,241,0,0,,5,,,65,127
68116,note_on,1,0,0,,4,,,64,127
68357,note_off,241,0,0,,4,,,64,127
68357,note_off,0,0,0,,1,,,61,127
68358,note_on,1,0,0,,2,,,62,127
68358,note_on,0,0,0,,7,,,67,127
68417,note_off,59,0,0,,7,,,67,127
68418,note_on,1,0,0,,5,,,65,127
68477,note_off,59,0,0,,5,,,65,127
68478,note_on,1,0,0,,7,,,67,127
68537,note_off,59,0,0,,7,,,67,127
68538,note_on,1,0,0,,5,,,65,127
68597,note_off,59,0,0,,5,,,65,127
68598,note_on,1,0,0,,7,,,67,127
68657,note_off,59,0,0,,7,,,67,127
68658,note_on,1,0,0,,5,,,65,127
68717,note_off,59,0,0,,5,,,65,127
68718,note_on,1,0,0,,7,,,67,127
68777,note_off,59,0,0,,7,,,67,127
68778,note_on,1,0,0,,5,,,65,127
68837,note_off,59,0,0,,5,,,65,127
68838,note_on,1,0,0,,2,,,50,127
68838,note_on,0,0,0,,7,,,67,127
68897,note_off,59,0,0,,7,,,67,127
68898,note_on,1,0,0,,5,,,65,127
68957,note_off,59,0,0,,5,,,65,127
68958,note_on,1,0,0,,7,,,67,127
69017,note_off,59,0,0,,7,,,67,127
69018,note_on,1,0,0,,5,,,65,127
69077,note_off,59,0,0,,5,,,65,127
69077,note_off,0,0,0,,2,,,62,127
69078,note_on,1,0,0,,4,,,64,127
69319,note_off,241,0,0,,4,,,64,127
69320,note_on,1,0,0,,2,,,62,127
69804,note_off,484,0,0,,2,,,62,127
69804,note_off,0,0,0,,2,,,50,127
69805,note_on,1,0,0,,5,,,65,127
69805,note_on,0,0,0,,2,,,62,127
69805,note_on,0,0,0,,10,,,69,127
70289,note_off,484,0,0,,10,,,69,127
70289,note_off,0,0,0,,2,,,62,127
70289,note_off,0,0,0,,5,,,65,127
70290,note_on,1,0,0,,5,,,65,127
70290,note_on,0,0,0,,2,,,62,127
70290,note_on,0,0,0,,10,,,69,127
70774,note_off,484,0,0,,10,,,69,127
70774,note_off,0,0,0,,2,,,62,127
70774,note_off,0,0,0,,5,,,65,127
70775,note_on,1,0,0,,5,,,65,127
70775,note_on,0,0,0,,2,,,62,127
70775,note_on,0,0,0,,10,,,69,127
71259,note_off,484,0,0,,10,,,69,127
71259,note_off,0,0,0,,2,,,62,127
71259,note_off,0,0,0,,5,,,65,127
71260,note_on,1,0,0,,4,,,64,127
71260,note_on,0,0,0,,0,,,60,127
71260,note_on,0,0,0,,10,,,69,127
71744,note_off,484,0,0,,10,,,69,127
71744,note_off,0,0,0,,0,,,60,127
71744,note_off,0,0,0,,4,,,64,127
71745,note_on,1,0,0,,4,,,64,127
71745,note_on,0,0,0,,0,,,60,127
71745,note_on,0,0,0,,10,,,69,127
72229,note_off,484,0,0,,10,,,69,127
72229,note_off,0,0,0,,0,,,60,127
72229,note_off,0,0,0,,4,,,64,127
72230,note_on,1,0,0,,4,,,64,127
72230,note_on,0,0,0,,0,,,60,127
72230,note_on,0,0,0,,12,,,71,127
72471,note_off,241,0,0,,12,,,71,127
72472,note_on,1,0,0,,0,,,72,127
72713,note_off,241,0,0,,0,,,72,127
72713,note_off,0,0,0,,0,,,60,127
72713,note_off,0,0,0,,4,,,64,127
72714,note_on,1,0,0,,6,,,66,127
72714,note_on,0,0,0,,3,,,63,127
72714,note_on,0,0,0,,0,,,72,127
72955,note_off,241,0,0,,0,,,72,127
72956,note_on,1,0,0,,12,,,71,127
73197,note_off,241,0,0,,3,,,63,127
73197,note_off,0,0,0,,6,,,66,127
73198,note_on,1,0,0,,3,,,63,127
73439,note_off,241,0,0,,12,,,71,127
73440,note_on,1,0,0,,10,,,69,127
73681,note_off,241,0,0,,10,,,69,127
73681,note_off,0,0,0,,3,,,63,127
73682,note_on,1,0,0,,3,,,63,127
73682,note_on,0,0,0,,8,,,68,127
73923,note_off,241,0,0,,8,,,68,127
73924,note_on,1,0,0,,10,,,69,127
74165,note_off,241,0,0,,10,,,69,127
74165,note_off,0,0,0,,3,,,63,127
74166,note_on,1,0,0,,4,,,64,127
74166,note_on,0,0,0,,4,,,52,127
74166,note_on,0,0,0,,8,,,68,127
74286,note_off,120,0,0,,8,,,68,127
74287,note_on,1,0,0,,6,,,66,127
74407,note_off,120,0,0,,6,,,66,127
74407,note_off,0,0,0,,4,,,64,127
74408,note_on,1,0,0,,4,,,64,127
74529,note_on,121,0,0,,6,,,66,127
74649,note_off,120,0,0,,6,,,66,127
74649,note_off,0,0,0,,4,,,52,127
74650,note_on,1,0,0,,5,,,53,127
74650,note_on,0,0,0,,8,,,68,127
74770,note_off,120,0,0,,8,,,68,127
74771,note_on,1,0,0,,10,,,69,127
74891,note_off,120,0,0,,10,,,69,127
74892,note_on,1,0,0,,12,,,71,127
74951,note_off,59,0,0,,12,,,71,127
74952,note_on,1,0,0,,0,,,72,127
75011,note_off,59,0,0,,0,,,72,127
75012,note_on,1,0,0,,2,,,74,127
75071,note_off,59,0,0,,2,,,74,127
75072,note_on,1,0,0,,4,,,76,127
75131,note_off,59,0,0,,4,,,76,127
75131,note_off,0,0,0,,4,,,64,127
75132,note_on,1,0,0,,2,,,62,127
75132,note_on,0,0,0,,2,,,74,127
75191,note_off,59,0,0,,2,,,74,127
75192,note_on,1,0,0,,4,,,76,127
75251,note_off,59,0,0,,4,,,76,127
75252,note_on,1,0,0,,2,,,74,127
75311,note_off,59,0,0,,2,,,74,127
75312,note_on,1,0,0,,4,,,76,127
75371,note_off,59,0,0,,4,,,76,127
75372,note_on,1,0,0,,2,,,74,127
75431,note_off,59,0,0,,2,,,74,127
75432,note_on,1,0,0,,0,,,72,127
75491,note_off,59,0,0,,0,,,72,127
75492,note_on,1,0,0,,12,,,71,127
75551,note_off,59,0,0,,12,,,71,127
75552,note_on,1,0,0,,10,,,69,127
75611,note_off,59,0,0,,10,,,69,127
75611,note_off,0,0,0,,2,,,62,127
75611,note_off,0,0,0,,5,,,53,127
75612,note_on,1,0,0,,4,,,52,127
75612,note_on,0,0,0,,4,,,64,127
75612,note_on,0,0,0,,8,,,68,127
75732,note_off,120,0,0,,8,,,68,127
75733,note_on,1,0,0,,6,,,66,127
75853,note_off,120,0,0,,6,,,66,127
75853,note_off,0,0,0,,4,,,64,127
75854,note_on,1,0,0,,4,,,64,127
75975,note_on,121,0,0,,6,,,66,127
76095,note_off,120,0,0,,6,,,66,127
76095,note_off,0,0,0,,4,,,52,127
76096,note_on,1,0,0,,5,,,53,127
76096,note_on,0,0,0,,8,,,68,127
76216,note_off,120,0,0,,8,,,68,127
76217,note_on,1,0,0,,10,,,69,127
76337,note_off,120,0,0,,10,,,69,127
76338,note_on,1,0,0,,12,,,71,127
76397,note_off,59,0,0,,12,,,71,127
76398,note_on,1,0,0,,0,,,72,127
76457,note_off,59,0,0,,0,,,72,127
76458,note_on,1,0,0,,2,,,74,127
76517,note_off,59,0,0,,2,,,74,127
76518,note_on,1,0,0,,4,,,76,127
76577,note_off,59,0,0,,4,,,76,127
76577,note_off,0,0,0,,4,,,64,127
76578,note_on,1,0,0,,2,,,62,127
76578,note_on,0,0,0,,2,,,74,127
76637,note_off,59,0,0,,2,,,74,127
76638,note_on,1,0,0,,4,,,76,127
76697,note_off,59,0,0,,4,,,76,127
76698,note_on,1,0,0,,2,,,74,127
76757,note_off,59,0,0,,2,,,74,127
76758,note_on,1,0,0,,4,,,76,127
76817,note_off,59,0,0,,4,,,76,127
76818,note_on,1,0,0,,2,,,74,127
76877,note_off,59,0,0,,2,,,74,127
76878,note_on,1,0,0,,0,,,72,127
76937,note_off,59,0,0,,0,,,72,127
76938,note_on,1,0,0,,12,,,71,127
76997,note_off,59,0,0,,12,,,71,127
76998,note_on,1,0,0,,10,,,69,127
77057,note_off,59,0,0,,10,,,69,127
77057,note_off,0,0,0,,2,,,62,127
77057,note_off,0,0,0,,5,,,53,127
77058,note_on,1,0,0,,4,,,52,127
77058,note_on,0,0,0,,4,,,64,127
77058,note_on,0,0,0,,8,,,68,127
77178,note_off,120,0,0,,8,,,68,127
77179,note_on,1,0,0,,6,,,66,127
77299,note_off,120,0,0,,6,,,66,127
77299,note_off,0,0,0,,4,,,64,127
77300,note_on,1,0,0,,4,,,64,127
77421,note_on,121,0,0,,6,,,66,127
77541,note_off,120,0,0,,6,,,66,127
77541,note_off,0,0,0,,4,,,52,127
77542,note_on,1,0,0,,5,,,53,127
77542,note_on,0,0,0,,8,,,68,127
77662,note_off,120,0,0,,8,,,68,127
77663,note_on,1,0,0,,10,,,69,127
77783,note_off,120,0,0,,10,,,69,127
77784,note_on,1,0,0,,12,,,71,127
77843,note_off,59,0,0,,12,,,71,127
77844,note_on,1,0,0,,0,,,72,127
77903,note_off,59,0,0,,0,,,72,127
77904,note_on,1,0,0,,2,,,74,127
77963,note_off,59,0,0,,2,,,74,127
77964,note_on,1,0,0,,4,,,76,127
78023,note_off,59,0,0,,4,,,76,127
78023,note_off,0,0,0,,4,,,64,127
78024,note_on,1,0,0,,2,,,62,127
78024,note_on,0,0,0,,4,,,76,127
78083,note_off,59,0,0,,4,,,76,127
78084,note_on,1,0,0,,2,,,74,127
78143,note_off,59,0,0,,2,,,74,127
78144,note_on,1,0,0,,4,,,76,127
78203,note_off,59,0,0,,4,,,76,127
78204,note_on,1,0,0,,2,,,74,127
78263,note_off,59,0,0,,2,,,74,127
78264,note_on,1,0,0,,4,,,76,127
78323,note_off,59,0,0,,4,,,76,127
78324,note_on,1,0,0,,2,,,74,127
78383,note_off,59,0,0,,2,,,74,127
78384,note_on,1,0,0,,0,,,72,127
78443,note_off,59,0,0,,0,,,72,127
78444,note_on,1,0,0,,2,,,74,127
78503,note_off,59,0,0,,2,,,74,127
78503,note_off,0,0,0,,2,,,62,127
78503,note_off,0,0,0,,5,,,53,127
78504,note_on,1,0,0,,4,,,52,127
78504,note_on,0,0,0,,2,,,74,127
78988,note_off,484,0,0,,2,,,74,127
78988,note_off,0,0,0,,4,,,52,127
78989,note_on,1,0,0,,4,,,64,127
78989,note_on,0,0,0,,4,,,76,127
79109,note_off,120,0,0,,4,,,64,127
79110,note_on,1,0,0,,2,,,62,127
79230,note_off,120,0,0,,2,,,62,127
79231,note_on,1,0,0,,0,,,60,127
79351,note_off,120,0,0,,0,,,60,127
79352,note_on,1,0,0,,12,,,59,127
79472,note_off,120,0,0,,12,,,59,127
79472,note_off,0,0,0,,4,,,76,127
79473,note_on,1,0,0,,10,,,57,127
79473,note_on,0,0,0,,2,,,74,127
79532,note_off,59,0,0,,2,,,74,127
79533,note_on,1,0,0,,0,,,72,127
79592,note_off,59,0,0,,0,,,72,127
79593,note_on,1,0,0,,10,,,69,127
79593,note_on,0,0,0,,2,,,74,127
79652,note_off,59,0,0,,2,,,74,127
79653,note_on,1,0,0,,0,,,72,127
79711,note_off,58,0,0,,10,,,57,127
79712,note_off,1,0,0,,0,,,72,127
79712,note_off,0,0,0,,10,,,69,127
79713,note_on,1,0,0,,8,,,68,127
79713,note_on,0,0,0,,2,,,74,127
79772,note_off,59,0,0,,2,,,74,127
79773,note_on,1,0,0,,0,,,72,127
79832,note_off,59,0,0,,0,,,72,127
79832,note_off,0,0,0,,8,,,68,127
79833,note_on,1,0,0,,4,,,64,127
79833,note_on,0,0,0,,12,,,71,127
79892,note_off,59,0,0,,12,,,71,127
79893,note_on,1,0,0,,0,,,72,127
79952,note_off,59,0,0,,0,,,72,127
79952,note_off,0,0,0,,4,,,64,127
79953,note_on,1,0,0,,3,,,63,127
79953,note_on,0,0,0,,6,,,66,127
79953,note_on,0,0,0,,12,,,71,127
80073,note_off,120,0,0,,12,,,71,127
80074,note_on,1,0,0,,1,,,73,127
80194,note_off,120,0,0,,1,,,73,127
80195,note_on,1,0,0,,3,,,75,127
80315,note_off,120,0,0,,3,,,75,127
80316,note_on,1,0,0,,4,,,76,127
80436,note_off,120,0,0,,4,,,76,127
80436,note_off,0,0,0,,6,,,66,127
80436,note_off,0,0,0,,3,,,63,127
80437,note_on,1,0,0,,3,,,63,127
80437,note_on,0,0,0,,6,,,66,127
80437,note_on,0,0,0,,6,,,78,127
80557,note_off,120,0,0,,6,,,78,127
80558,note_on,1,0,0,,7,,,79,127
80678,note_off,120,0,0,,7,,,79,127
80679,note_on,1,0,0,,10,,,81,127
80799,note_off,120,0,0,,10,,,81,127
80800,note_on,1,0,0,,12,,,83,127
80920,note_off,120,0,0,,6,,,66,127
80920,note_off,0,0,0,,3,,,63,127
80921,note_on,1,0,0,,0,,,60,127
80921,note_on,0,0,0,,10,,,69,127
80921,note_on,0,0,0,,4,,,64,127
80993,note_off,72,0,0,,12,,,83,127
81002,note_on,9,0,0,,10,,,81,127
81082,note_off,80,0,0,,10,,,81,127
81083,note_on,1,0,0,,12,,,83,127
81163,note_off,80,0,0,,12,,,83,127
81164,note_on,1,0,0,,10,,,81,127
81223,note_off,59,0,0,,10,,,81,127
81224,note_on,1,0,0,,7,,,79,127
81283,note_off,59,0,0,,7,,,79,127
81284,note_on,1,0,0,,6,,,78,127
81343,note_off,59,0,0,,6,,,78,127
81344,note_on,1,0,0,,4,,,76,127
81403,note_off,59,0,0,,4,,,76,127
81403,note_off,0,0,0,,4,,,64,127
81403,note_off,0,0,0,,10,,,69,127
81403,note_off,0,0,0,,0,,,60,127
81404,note_on,1,0,0,,12,,,59,127
81404,note_on,0,0,0,,12,,,71,127
81404,note_on,0,0,0,,3,,,75,127
81524,note_off,120,0,0,,3,,,75,127
81525,note_on,1,0,0,,1,,,73,127
81645,note_off,120,0,0,,1,,,73,127
81645,note_off,0,0,0,,12,,,71,127
81646,note_on,1,0,0,,12,,,71,127
81767,note_on,121,0,0,,1,,,73,127
81887,note_off,120,0,0,,1,,,73,127
81887,note_off,0,0,0,,12,,,59,127
81888,note_on,1,0,0,,0,,,60,127
81888,note_on,0,0,0,,3,,,75,127
82008,note_off,120,0,0,,3,,,75,127
82009,note_on,1,0,0,,4,,,76,127
82129,note_off,120,0,0,,4,,,76,127
82130,note_on,1,0,0,,6,,,78,127
82189,note_off,59,0,0,,6,,,78,127
82190,note_on,1,0,0,,7,,,79,127
82249,note_off,59,0,0,,7,,,79,127
82250,note_on,1,0,0,,10,,,81,127
82309,note_off,59,0,0,,10,,,81,127
82310,note_on,1,0,0,,12,,,83,127
82369,note_off,59,0,0,,12,,,83,127
82369,note_off,0,0,0,,12,,,71,127
82370,note_on,1,0,0,,10,,,69,127
82370,note_on,0,0,0,,10,,,81,127
82429,note_off,59,0,0,,10,,,81,127
82430,note_on,1,0,0,,12,,,83,127
82489,note_off,59,0,0,,12,,,83,127
82490,note_on,1,0,0,,10,,,81,127
82549,note_off,59,0,0,,10,,,81,127
82550,note_on,1,0,0,,12,,,83,127
82609,note_off,59,0,0,,12,,,83,127
82610,note_on,1,0,0,,10,,,81,127
82669,note_off,59,0,0,,10,,,81,127
82670,note_on,1,0,0,,7,,,79,127
82729,note_off,59,0,0,,7,,,79,127
82730,note_on,1,0,0,,6,,,78,127
82789,note_off,59,0,0,,6,,,78,127
82790,note_on,1,0,0,,4,,,76,127
82849,note_off,59,0,0,,4,,,76,127
82849,note_off,0,0,0,,10,,,69,127
82849,note_off,0,0,0,,0,,,60,127
82850,note_on,1,0,0,,12,,,59,127
82850,note_on,0,0,0,,12,,,71,127
82850,note_on,0,0,0,,3,,,75,127
82970,note_off,120,0,0,,3,,,75,127
82971,note_on,1,0,0,,1,,,73,127
83091,note_off,120,0,0,,1,,,73,127
83091,note_off,0,0,0,,12,,,71,127
83092,note_on,1,0,0,,12,,,71,127
83213,note_on,121,0,0,,1,,,73,127
83333,note_off,120,0,0,,1,,,73,127
83333,note_off,0,0,0,,12,,,59,127
83334,note_on,1,0,0,,0,,,60,127
83334,note_on,0,0,0,,3,,,75,127
83454,note_off,120,0,0,,3,,,75,127
83455,note_on,1,0,0,,4,,,76,127
83575,note_off,120,0,0,,4,,,76,127
83576,note_on,1,0,0,,6,,,78,127
83635,note_off,59,0,0,,6,,,78,127
83636,note_on,1,0,0,,7,,,79,127
83695,note_off,59,0,0,,7,,,79,127
83696,note_on,1,0,0,,10,,,81,127
83755,note_off,59,0,0,,10,,,81,127
83756,note_on,1,0,0,,12,,,83,127
83815,note_off,59,0,0,,12,,,83,127
83815,note_off,0,0,0,,12,,,71,127
83816,note_on,1,0,0,,10,,,69,127
83816,note_on,0,0,0,,12,,,83,127
83875,note_off,59,0,0,,12,,,83,127
83876,note_on,1,0,0,,10,,,81,127
83935,note_off,59,0,0,,10,,,81,127
83936,note_on,1,0,0,,12,,,83,127
83995,note_off,59,0,0,,12,,,83,127
83996,note_on,1,0,0,,10,,,81,127
84055,note_off,59,0,0,,10,,,81,127
84056,note_on,1,0,0,,12,,,83,127
84115,note_off,59,0,0,,12,,,83,127
84116,note_on,1,0,0,,10,,,81,127
84175,note_off,59,0,0,,10,,,81,127
84176,note_on,1,0,0,,7,,,79,127
84235,note_off,59,0,0,,7,,,79,127
84236,note_on,1,0,0,,10,,,81,127
84295,note_off,59,0,0,,10,,,81,127
84295,note_off,0,0,0,,10,,,69,127
84295,note_off,0,0,0,,0,,,60,127
84296,note_on,1,0,0,,12,,,71,127
84296,note_on,0,0,0,,12,,,59,127
84296,note_on,0,0,0,,10,,,81,127
84537,note_off,241,0,0,,10,,,81,127
84538,note_on,1,0,0,,12,,,83,127
84779,note_off,241,0,0,,12,,,83,127
84779,note_off,0,0,0,,12,,,59,127
84779,note_off,0,0,0,,12,,,71,127
84780,note_on,1,0,0,,12,,,47,127
84780,note_on,0,0,0,,3,,,63,127
84780,note_on,0,0,0,,12,,,71,127
84780,note_on,0,0,0,,6,,,66,127
84900,note_off,120,0,0,,12,,,47,127
84901,note_on,1,0,0,,3,,,51,127
85021,note_off,120,0,0,,3,,,51,127
85022,note_on,1,0,0,,6,,,54,127
85142,note_off,120,0,0,,6,,,54,127
85143,note_on,1,0,0,,12,,,59,127
85263,note_off,120,0,0,,12,,,59,127
85263,note_off,0,0,0,,6,,,66,127
85263,note_off,0,0,0,,12,,,71,127
85263,note_off,0,0,0,,3,,,63,127
85264,note_on,1,0,0,,4,,,52,127
85264,note_on,0,0,0,,12,,,71,127
85264,note_on,0,0,0,,4,,,64,127
85264,note_on,0,0,0,,7,,,67,127
85384,note_off,120,0,0,,4,,,52,127
85385,note_on,1,0,0,,7,,,55,127
85505,note_off,120,0,0,,7,,,55,127
85506,note_on,1,0,0,,12,,,59,127
85626,note_off,120,0,0,,12,,,59,127
85626,note_off,0,0,0,,4,,,64,127
85627,note_on,1,0,0,,4,,,64,127
85747,note_off,120,0,0,,4,,,64,127
85747,note_off,0,0,0,,7,,,67,127
85747,note_off,0,0,0,,12,,,71,127
85748,note_on,1,0,0,,3,,,63,127
85748,note_on,0,0,0,,12,,,59,127
86232,note_off,484,0,0,,12,,,59,127
86232,note_off,0,0,0,,3,,,63,127
86233,note_on,1,0,0,,12,,,47,127
86233,note_on,0,0,0,,6,,,66,127
86233,note_on,0,0,0,,3,,,63,127
86233,note_on,0,0,0,,12,,,71,127
86353,note_off,120,0,0,,12,,,47,127
86354,note_on,1,0,0,,3,,,51,127
86474,note_off,120,0,0,,3,,,51,127
86475,note_on,1,0,0,,6,,,54,127
86595,note_off,120,0,0,,6,,,54,127
86596,note_on,1,0,0,,12,,,59,127
86716,note_off,120,0,0,,12,,,59,127
86716,note_off,0,0,0,,12,,,71,127
86716,note_off,0,0,0,,3,,,63,127
86716,note_off,0,0,0,,6,,,66,127
86717,note_on,1,0,0,,4,,,52,127
86717,note_on,0,0,0,,4,,,64,127
86717,note_on,0,0,0,,12,,,71,127
86717,note_on,0,0,0,,7,,,67,127
86837,note_off,120,0,0,,4,,,52,127
86838,note_on,1,0,0,,7,,,55,127
86958,note_off,120,0,0,,7,,,55,127
86959,note_on,1,0,0,,12,,,59,127
87079,note_off,120,0,0,,12,,,59,127
87079,note_off,0,0,0,,4,,,64,127
87080,note_on,1,0,0,,4,,,64,127
87200,note_off,120,0,0,,4,,,64,127
87200,note_off,0,0,0,,7,,,67,127
87200,note_off,0,0,0,,12,,,71,127
87201,note_on,1,0,0,,3,,,63,127
87201,note_on,0,0,0,,12,,,59,127
87685,note_off,484,0,0,,12,,,59,127
87685,note_off,0,0,0,,3,,,63,127
87686,note_on,1,0,0,,3,,,63,127
87686,note_on,0,0,0,,12,,,71,127
87686,note_on,0,0,0,,12,,,83,127
87806,note_off,120,0,0,,12,,,83,127
87807,note_on,1,0,0,,10,,,81,127
87927,note_off,120,0,0,,10,,,81,127
87928,note_on,1,0,0,,7,,,79,127
88048,note_off,120,0,0,,7,,,79,127
88049,note_on,1,0,0,,6,,,78,127
88169,note_off,120,0,0,,6,,,78,127
88169,note_off,0,0,0,,12,,,71,127
88169,note_off,0,0,0,,3,,,63,127
88170,note_on,1,0,0,,12,,,71,127
88170,note_on,0,0,0,,12,,,59,127
88170,note_on,0,0,0,,12,,,83,127
88290,note_off,120,0,0,,12,,,83,127
88291,note_on,1,0,0,,10,,,81,127
88411,note_off,120,0,0,,10,,,81,127
88412,note_on,1,0,0,,7,,,79,127
88532,note_off,120,0,0,,7,,,79,127
88533,note_on,1,0,0,,6,,,78,127
88653,note_off,120,0,0,,6,,,78,127
88653,note_off,0,0,0,,12,,,59,127
88653,note_off,0,0,0,,12,,,71,127
88654,note_on,1,0,0,,4,,,64,127
88654,note_on,0,0,0,,6,,,78,127
88774,note_off,120,0,0,,6,,,78,127
88775,note_on,1,0,0,,7,,,79,127
88895,note_off,120,0,0,,7,,,79,127
88896,note_on,1,0,0,,7,,,79,127
89016,note_off,120,0,0,,7,,,79,127
89017,note_on,1,0,0,,5,,,77,127
89137,note_off,120,0,0,,5,,,77,127
89137,note_off,0,0,0,,4,,,64,127
89138,note_on,1,0,0,,7,,,67,127
89138,note_on,0,0,0,,5,,,77,127
89258,note_off,120,0,0,,5,,,77,127
89259,note_on,1,0,0,,4,,,76,127
89379,note_off,120,0,0,,4,,,76,127
89380,note_on,1,0,0,,4,,,76,127
89500,note_off,120,0,0,,4,,,76,127
89501,note_on,1,0,0,,5,,,77,127
89621,note_off,120,0,0,,5,,,77,127
89621,note_off,0,0,0,,7,,,67,127
89622,note_on,1,0,0,,11,,,70,127
89622,note_on,0,0,0,,5,,,77,127
89742,note_off,120,0,0,,5,,,77,127
89743,note_on,1,0,0,,4,,,76,127
89863,note_off,120,0,0,,4,,,76,127
89864,note_on,1,0,0,,4,,,76,127
89984,note_off,120,0,0,,4,,,76,127
89985,note_on,1,0,0,,2,,,74,127
90105,note_off,120,0,0,,2,,,74,127
90105,note_off,0,0,0,,11,,,70,127
90106,note_on,1,0,0,,10,,,57,127
90106,note_on,0,0,0,,10,,,69,127
90106,note_on,0,0,0,,2,,,74,127
90226,note_off,120,0,0,,2,,,74,127
90227,note_on,1,0,0,,1,,,73,127
90347,note_off,120,0,0,,1,,,73,127
90348,note_on,1,0,0,,1,,,73,127
90468,note_off,120,0,0,,1,,,73,127
90469,note_on,1,0,0,,2,,,74,127
90589,note_off,120,0,0,,2,,,74,127
90589,note_off,0,0,0,,10,,,57,127
90590,note_on,1,0,0,,11,,,58,127
90590,note_on,0,0,0,,2,,,74,127
90710,note_off,120,0,0,,2,,,74,127
90711,note_on,1,0,0,,4,,,76,127
90831,note_off,120,0,0,,4,,,76,127
90832,note_on,1,0,0,,4,,,76,127
90952,note_off,120,0,0,,4,,,76,127
90953,note_on,1,0,0,,5,,,77,127
91073,note_off,120,0,0,,5,,,77,127
91073,note_off,0,0,0,,10,,,69,127
91074,note_on,1,0,0,,7,,,67,127
91074,note_on,0,0,0,,5,,,77,127
91194,note_off,120,0,0,,5,,,77,127
91195,note_on,1,0,0,,7,,,79,127
91315,note_off,120,0,0,,7,,,79,127
91316,note_on,1,0,0,,7,,,79,127
91436,note_off,120,0,0,,7,,,79,127
91437,note_on,1,0,0,,8,,,80,127
91557,note_off,120,0,0,,8,,,80,127
91557,note_off,0,0,0,,7,,,67,127
91557,note_off,0,0,0,,11,,,58,127
91558,note_on,1,0,0,,10,,,57,127
91558,note_on,0,0,0,,10,,,69,127
91558,note_on,0,0,0,,8,,,80,127
91799,note_off,241,0,0,,8,,,80,127
91800,note_on,1,0,0,,10,,,81,127
92041,note_off,241,0,0,,10,,,81,127
92041,note_off,0,0,0,,10,,,69,127
92041,note_off,0,0,0,,10,,,57,127
92042,note_on,1,0,0,,10,,,45,127
92042,note_on,0,0,0,,4,,,64,127
92042,note_on,0,0,0,,1,,,61,127
92042,note_on,0,0,0,,10,,,69,127
92162,note_off,120,0,0,,10,,,45,127
92163,note_on,1,0,0,,1,,,49,127
92283,note_off,120,0,0,,1,,,49,127
92284,note_on,1,0,0,,4,,,52,127
92404,note_off,120,0,0,,4,,,52,127
92405,note_on,1,0,0,,10,,,57,127
92525,note_off,120,0,0,,10,,,57,127
92525,note_off,0,0,0,,10,,,69,127
92525,note_off,0,0,0,,1,,,61,127
92525,note_off,0,0,0,,4,,,64,127
92526,note_on,1,0,0,,2,,,50,127
92526,note_on,0,0,0,,10,,,69,127
92526,note_on,0,0,0,,5,,,65,127
92526,note_on,0,0,0,,2,,,62,127
92646,note_off,120,0,0,,2,,,50,127
92647,note_on,1,0,0,,5,,,53,127
92767,note_off,120,0,0,,5,,,53,127
92768,note_on,1,0,0,,10,,,57,127
92888,note_off,120,0,0,,10,,,57,127
92888,note_off,0,0,0,,2,,,62,127
92889,note_on,1,0,0,,2,,,62,127
93009,note_off,120,0,0,,2,,,62,127
93009,note_off,0,0,0,,5,,,65,127
93009,note_off,0,0,0,,10,,,69,127
93010,note_on,1,0,0,,1,,,61,127
93010,note_on,0,0,0,,10,,,57,127
93494,note_off,484,0,0,,10,,,57,127
93494,note_off,0,0,0,,1,,,61,127
93495,note_on,1,0,0,,10,,,45,127
93495,note_on,0,0,0,,1,,,61,127
93495,note_on,0,0,0,,10,,,69,127
93495,note_on,0,0,0,,4,,,64,127
93615,note_off,120,0,0,,10,,,45,127
93616,note_on,1,0,0,,1,,,49,127
93736,note_off,120,0,0,,1,,,49,127
93737,note_on,1,0,0,,4,,,52,127
93857,note_off,120,0,0,,4,,,52,127
93858,note_on,1,0,0,,10,,,57,127
93978,note_off,120,0,0,,10,,,57,127
93978,note_off,0,0,0,,4,,,64,127
93978,note_off,0,0,0,,10,,,69,127
93978,note_off,0,0,0,,1,,,61,127
93979,note_on,1,0,0,,2,,,50,127
93979,note_on,0,0,0,,2,,,62,127
93979,note_on,0,0,0,,10,,,69,127
93979,note_on,0,0,0,,5,,,65,127
94099,note_off,120,0,0,,2,,,50,127
94100,note_on,1,0,0,,5,,,53,127
94220,note_off,120,0,0,,5,,,53,127
94221,note_on,1,0,0,,10,,,57,127
94341,note_off,120,0,0,,10,,,57,127
94341,note_off,0,0,0,,2,,,62,127
94342,note_on,1,0,0,,2,,,62,127
94462,note_off,120,0,0,,2,,,62,127
94462,note_off,0,0,0,,5,,,65,127
94462,note_off,0,0,0,,10,,,69,127
94463,note_on,1,0,0,,1,,,61,127
94463,note_on,0,0,0,,10,,,57,127
94947,note_off,484,0,0,,10,,,57,127
94947,note_off,0,0,0,,1,,,61,127
94948,note_on,1,0,0,,1,,,61,127
94948,note_on,0,0,0,,10,,,69,127
94948,note_on,0,0,0,,10,,,81,127
95068,note_off,120,0,0,,10,,,81,127
95069,note_on,1,0,0,,7,,,79,127
95189,note_off,120,0,0,,7,,,79,127
95190,note_on,1,0,0,,5,,,77,127
95310,note_off,120,0,0,,5,,,77,127
95311,note_on,1,0,0,,4,,,76,127
95431,note_off,120,0,0,,4,,,76,127
95431,note_off,0,0,0,,10,,,69,127
95431,note_off,0,0,0,,1,,,61,127
95432,note_on,1,0,0,,10,,,69,127
95432,note_on,0,0,0,,10,,,57,127
95432,note_on,0,0,0,,10,,,81,127
95552,note_off,120,0,0,,10,,,81,127
95553,note_on,1,0,0,,7,,,79,127
95673,note_off,120,0,0,,7,,,79,127
95674,note_on,1,0,0,,5,,,77,127
95794,note_off,120,0,0,,5,,,77,127
95795,note_on,1,0,0,,4,,,76,127
95915,note_off,120,0,0,,4,,,76,127
95915,note_off,0,0,0,,10,,,57,127
95915,note_off,0,0,0,,10,,,69,127
95916,note_on,1,0,0,,2,,,62,127
95916,note_on,0,0,0,,10,,,69,127
95916,note_on,0,0,0,,5,,,65,127
95916,note_on,0,0,0,,5,,,77,127
96036,note_off,120,0,0,,5,,,77,127
96037,note_on,1,0,0,,2,,,74,127
96157,note_off,120,0,0,,2,,,74,127
96158,note_on,1,0,0,,4,,,76,127
96217,note_off,59,0,0,,4,,,76,127
96218,note_on,1,0,0,,2,,,74,127
96277,note_off,59,0,0,,2,,,74,127
96278,note_on,1,0,0,,0,,,72,127
96337,note_off,59,0,0,,0,,,72,127
96338,note_on,1,0,0,,2,,,74,127
96397,note_off,59,0,0,,2,,,74,127
96397,note_off,0,0,0,,5,,,65,127
96397,note_off,0,0,0,,10,,,69,127
96397,note_off,0,0,0,,2,,,62,127
96398,note_on,1,0,0,,10,,,69,127
96398,note_on,0,0,0,,4,,,64,127
96398,note_on,0,0,0,,0,,,60,127
96398,note_on,0,0,0,,4,,,76,127
96518,note_off,120,0,0,,4,,,76,127
96519,note_on,1,0,0,,0,,,72,127
96639,note_off,120,0,0,,0,,,72,127
96640,note_on,1,0,0,,2,,,74,127
96699,note_off,59,0,0,,2,,,74,127
96700,note_on,1,0,0,,0,,,72,127
96759,note_off,59,0,0,,0,,,72,127
96760,note_on,1,0,0,,12,,,71,127
96819,note_off,59,0,0,,12,,,71,127
96820,note_on,1,0,0,,0,,,72,127
96879,note_off,59,0,0,,0,,,72,127
96879,note_off,0,0,0,,0,,,60,127
96879,note_off,0,0,0,,4,,,64,127
96879,note_off,0,0,0,,10,,,69,127
96880,note_on,1,0,0,,12,,,59,127
96880,note_on,0,0,0,,4,,,64,127
96880,note_on,0,0,0,,2,,,62,127
96880,note_on,0,0,0,,8,,,68,127
96880,note_on,0,0,0,,2,,,74,127
97000,note_off,120,0,0,,2,,,74,127
97001,note_on,1,0,0,,12,,,71,127
97121,note_off,120,0,0,,12,,,71,127
97122,note_on,1,0,0,,0,,,72,127
97181,note_off,59,0,0,,0,,,72,127
97182,note_on,1,0,0,,12,,,71,127
97241,note_off,59,0,0,,12,,,71,127
97242,note_on,1,0,0,,10,,,69,127
97301,note_off,59,0,0,,10,,,69,127
97302,note_on,1,0,0,,12,,,71,127
97361,note_off,59,0,0,,12,,,71,127
97361,note_off,0,0,0,,8,,,68,127
97361,note_off,0,0,0,,2,,,62,127
97361,note_off,0,0,0,,4,,,64,127
97361,note_off,0,0,0,,12,,,59,127
97362,note_on,1,0,0,,10,,,69,127
97362,note_on,0,0,0,,10,,,57,127
97362,note_on,0,0,0,,0,,,72,127
97482,note_off,120,0,0,,0,,,72,127
97483,note_on,1,0,0,,12,,,71,127
97603,note_off,120,0,0,,12,,,71,127
97603,note_off,0,0,0,,10,,,69,127
97604,note_on,1,0,0,,10,,,69,127
97724,note_off,120,0,0,,10,,,69,127
97725,note_on,1,0,0,,12,,,71,127
97845,note_off,120,0,0,,12,,,71,127
97845,note_off,0,0,0,,10,,,57,127
97846,note_on,1,0,0,,10,,,69,127
97846,note_on,0,0,0,,0,,,72,127
97966,note_off,120,0,0,,10,,,69,127
97967,note_on,1,0,0,,7,,,67,127
98087,note_off,120,0,0,,7,,,67,127
98088,note_on,1,0,0,,5,,,65,127
98208,note_off,120,0,0,,5,,,65,127
98209,note_on,1,0,0,,4,,,64,127
98329,note_off,120,0,0,,4,,,64,127
98329,note_off,0,0,0,,0,,,72,127
98330,note_on,1,0,0,,2,,,62,127
98330,note_on,0,0,0,,5,,,77,127
98450,note_off,120,0,0,,2,,,62,127
98451,note_on,1,0,0,,0,,,60,127
98571,note_off,120,0,0,,0,,,60,127
98572,note_on,1,0,0,,12,,,59,127
98692,note_off,120,0,0,,12,,,59,127
98693,note_on,1,0,0,,10,,,57,127
98813,note_off,120,0,0,,10,,,57,127
98814,note_on,1,0,0,,7,,,43,127
98934,note_off,120,0,0,,5,,,77,127
98935,note_on,1,0,0,,4,,,76,127
99055,note_off,120,0,0,,4,,,76,127
99056,note_on,1,0,0,,2,,,74,127
99176,note_off,120,0,0,,2,,,74,127
99177,note_on,1,0,0,,0,,,72,127
99297,note_off,120,0,0,,0,,,72,127
99297,note_off,0,0,0,,7,,,43,127
99298,note_on,1,0,0,,7,,,67,127
99298,note_on,0,0,0,,12,,,71,127
99418,note_off,120,0,0,,7,,,67,127
99419,note_on,1,0,0,,5,,,65,127
99539,note_off,120,0,0,,5,,,65,127
99539,note_off,0,0,0,,12,,,71,127
99540,note_on,1,0,0,,4,,,64,127
99540,note_on,0,0,0,,3,,,75,127
99660,note_off,120,0,0,,4,,,64,127
99661,note_on,1,0,0,,2,,,62,127
99781,note_off,120,0,0,,2,,,62,127
99782,note_on,1,0,0,,0,,,60,127
99902,note_off,120,0,0,,0,,,60,127
99903,note_on,1,0,0,,12,,,59,127
100023,note_off,120,0,0,,12,,,59,127
100023,note_off,0,0,0,,3,,,75,127
100024,note_on,1,0,0,,10,,,57,127
100024,note_on,0,0,0,,4,,,76,127
100144,note_off,120,0,0,,10,,,57,127
100145,note_on,1,0,0,,7,,,55,127
100265,note_off,120,0,0,,7,,,55,127
100266,note_on,1,0,0,,5,,,41,127
100386,note_off,120,0,0,,4,,,76,127
100387,note_on,1,0,0,,2,,,74,127
100507,note_off,120,0,0,,2,,,74,127
100508,note_on,1,0,0,,0,,,72,127
100628,note_off,120,0,0,,0,,,72,127
100629,note_on,1,0,0,,12,,,71,127
100749,note_off,120,0,0,,12,,,71,127
100749,note_off,0,0,0,,5,,,41,127
100750,note_on,1,0,0,,5,,,65,127
100750,note_on,0,0,0,,10,,,69,127
100870,note_off,120,0,0,,5,,,65,127
100871,note_on,1,0,0,,4,,,64,127
100991,note_off,120,0,0,,4,,,64,127
100991,note_off,0,0,0,,10,,,69,127
100992,note_on,1,0,0,,2,,,62,127
100992,note_on,0,0,0,,1,,,73,127
101112,note_off,120,0,0,,2,,,62,127
101113,note_on,1,0,0,,0,,,60,127
101233,note_off,120,0,0,,0,,,60,127
101234,note_on,1,0,0,,12,,,59,127
101354,note_off,120,0,0,,12,,,59,127
101355,note_on,1,0,0,,10,,,57,127
101475,note_off,120,0,0,,10,,,57,127
101475,note_off,0,0,0,,1,,,73,127
101476,note_on,1,0,0,,7,,,55,127
101476,note_on,0,0,0,,2,,,74,127
101596,note_off,120,0,0,,7,,,55,127
101597,note_on,1,0,0,,5,,,53,127
101717,note_off,120,0,0,,5,,,53,127
101718,note_on,1,0,0,,4,,,40,127
101838,note_off,120,0,0,,2,,,74,127
101839,note_on,1,0,0,,0,,,72,127
101959,note_off,120,0,0,,0,,,72,127
101960,note_on,1,0,0,,12,,,71,127
102080,note_off,120,0,0,,12,,,71,127
102081,note_on,1,0,0,,10,,,69,127
102201,note_off,120,0,0,,10,,,69,127
102201,note_off,0,0,0,,4,,,40,127
102202,note_on,1,0,0,,5,,,41,127
102202,note_on,0,0,0,,8,,,68,127
102443,note_off,241,0,0,,8,,,68,127
102444,note_on,1,0,0,,10,,,69,127
102564,note_off,120,0,0,,10,,,69,127
102565,note_on,1,0,0,,12,,,71,127
102685,note_off,120,0,0,,12,,,71,127
102686,note_on,1,0,0,,5,,,53,127
102686,note_on,0,0,0,,10,,,69,127
102806,note_off,120,0,0,,10,,,69,127
102807,note_on,1,0,0,,12,,,71,127
102866,note_off,59,0,0,,12,,,71,127
102867,note_on,1,0,0,,10,,,69,127
102926,note_off,59,0,0,,10,,,69,127
102927,note_on,1,0,0,,12,,,71,127
102986,note_off,59,0,0,,12,,,71,127
102987,note_on,1,0,0,,10,,,69,127
103046,note_off,59,0,0,,10,,,69,127
103047,note_on,1,0,0,,8,,,68,127
103106,note_off,59,0,0,,8,,,68,127
103107,note_on,1,0,0,,10,,,69,127
103166,note_off,59,0,0,,10,,,69,127
103166,note_off,0,0,0,,5,,,53,127
103166,note_off,0,0,0,,5,,,41,127
103167,note_on,1,0,0,,4,,,40,127
103167,note_on,0,0,0,,4,,,52,127
103167,note_on,0,0,0,,10,,,69,127
103408,note_off,241,0,0,,10,,,69,127
103409,note_on,1,0,0,,12,,,71,127
103650,note_off,241,0,0,,12,,,71,127
103650,note_off,0,0,0,,4,,,52,127
103650,note_off,0,0,0,,4,,,40,127
103651,note_on,1,0,0,,2,,,86,127
103651,note_on,0,0,0,,4,,,64,127
103651,note_on,0,0,0,,8,,,68,127
103771,note_off,120,0,0,,8,,,68,127
103772,note_on,1,0,0,,8,,,68,127
103892,note_off,120,0,0,,8,,,68,127
103892,note_off,0,0,0,,2,,,86,127
103893,note_on,1,0,0,,0,,,84,127
103893,note_on,0,0,0,,10,,,69,127
104013,note_off,120,0,0,,10,,,69,127
104013,note_off,0,0,0,,0,,,84,127
104014,note_on,1,0,0,,12,,,83,127
104014,note_on,0,0,0,,12,,,71,127
104134,note_off,120,0,0,,12,,,71,127
104134,note_off,0,0,0,,12,,,83,127
104135,note_on,1,0,0,,0,,,84,127
104135,note_on,0,0,0,,10,,,69,127
104255,note_off,120,0,0,,10,,,69,127
104256,note_on,1,0,0,,10,,,69,127
104376,note_off,120,0,0,,10,,,69,127
104376,note_off,0,0,0,,0,,,84,127
104377,note_on,1,0,0,,12,,,83,127
104377,note_on,0,0,0,,12,,,71,127
104497,note_off,120,0,0,,12,,,71,127
104497,note_off,0,0,0,,12,,,83,127
104498,note_on,1,0,0,,10,,,81,127
104498,note_on,0,0,0,,0,,,72,127
104618,note_off,120,0,0,,0,,,72,127
104618,note_off,0,0,0,,10,,,81,127
104618,note_off,0,0,0,,4,,,64,127
104619,note_on,1,0,0,,4,,,40,127
104619,note_on,0,0,0,,12,,,71,127
104619,note_on,0,0,0,,4,,,64,127
104739,note_off,120,0,0,,12,,,71,127
104740,note_on,1,0,0,,12,,,71,127
104860,note_off,120,0,0,,12,,,71,127
104861,note_on,1,0,0,,10,,,69,127
104981,note_off,120,0,0,,10,,,69,127
104982,note_on,1,0,0,,8,,,68,127
105102,note_off,120,0,0,,8,,,68,127
105102,note_off,0,0,0,,4,,,64,127
105102,note_off,0,0,0,,4,,,40,127
105103,note_on,1,0,0,,2,,,86,127
105103,note_on,0,0,0,,4,,,64,127
105103,note_on,0,0,0,,8,,,68,127
105223,note_off,120,0,0,,8,,,68,127
105224,note_on,1,0,0,,8,,,68,127
105344,note_off,120,0,0,,8,,,68,127
105344,note_off,0,0,0,,2,,,86,127
105345,note_on,1,0,0,,0,,,84,127
105345,note_on,0,0,0,,10,,,69,127
105465,note_off,120,0,0,,10,,,69,127
105465,note_off,0,0,0,,0,,,84,127
105466,note_on,1,0,0,,12,,,83,127
105466,note_on,0,0,0,,12,,,71,127
105586,note_off,120,0,0,,12,,,71,127
105586,note_off,0,0,0,,12,,,83,127
105587,note_on,1,0,0,,0,,,84,127
105587,note_on,0,0,0,,10,,,69,127
105707,note_off,120,0,0,,10,,,69,127
105708,note_on,1,0,0,,10,,,69,127
105828,note_off,120,0,0,,10,,,69,127
105828,note_off,0,0,0,,0,,,84,127
105829,note_on,1,0,0,,12,,,83,127
105829,note_on,0,0,0,,12,,,71,127
105949,note_off,120,0,0,,12,,,71,127
105949,note_off,0,0,0,,12,,,83,127
105950,note_on,1,0,0,,10,,,81,127
105950,note_on,0,0,0,,0,,,72,127
106070,note_off,120,0,0,,0,,,72,127
106070,note_off,0,0,0,,10,,,81,127
106070,note_off,0,0,0,,4,,,64,127
106071,note_on,1,0,0,,4,,,40,127
106071,note_on,0,0,0,,4,,,64,127
106071,note_on,0,0,0,,12,,,71,127
106191,note_off,120,0,0,,12,,,71,127
106192,note_on,1,0,0,,12,,,71,127
106312,note_off,120,0,0,,12,,,71,127
106313,note_on,1,0,0,,10,,,69,127
106433,note_off,120,0,0,,10,,,69,127
106434,note_on,1,0,0,,8,,,68,127
106554,note_off,120,0,0,,8,,,68,127
106554,note_off,0,0,0,,4,,,64,127
106554,note_off,0,0,0,,4,,,40,127
106555,note_on,1,0,0,,12,,,59,127
106555,note_on,0,0,0,,4,,,64,127
106555,note_on,0,0,0,,8,,,56,127
106555,note_on,0,0,0,,4,,,88,127
106675,note_off,120,0,0,,4,,,88,127
106676,note_on,1,0,0,,2,,,86,127
106796,note_off,120,0,0,,2,,,86,127
106797,note_on,1,0,0,,0,,,84,127
106917,note_off,120,0,0,,0,,,84,127
106918,note_on,1,0,0,,12,,,83,127
107038,note_off,120,0,0,,12,,,83,127
107038,note_off,0,0,0,,8,,,56,127
107038,note_off,0,0,0,,4,,,64,127
107038,note_off,0,0,0,,12,,,59,127
107039,note_on,1,0,0,,10,,,57,127
107039,note_on,0,0,0,,4,,,64,127
107039,note_on,0,0,0,,0,,,60,127
107039,note_on,0,0,0,,2,,,86,127
107159,note_off,120,0,0,,2,,,86,127
107160,note_on,1,0,0,,0,,,84,127
107280,note_off,120,0,0,,0,,,84,127
107281,note_on,1,0,0,,12,,,83,127
107401,note_off,120,0,0,,12,,,83,127
107402,note_on,1,0,0,,10,,,81,127
107522,note_off,120,0,0,,10,,,81,127
107522,note_off,0,0,0,,0,,,60,127
107522,note_off,0,0,0,,4,,,64,127
107522,note_off,0,0,0,,10,,,57,127
107523,note_on,1,0,0,,8,,,56,127
107523,note_on,0,0,0,,4,,,52,127
107523,note_on,0,0,0,,12,,,59,127
107523,note_on,0,0,0,,4,,,40,127
108007,note_off,484,0,0,,4,,,40,127
108007,note_off,0,0,0,,12,,,59,127
108007,note_off,0,0,0,,4,,,52,127
108007,note_off,0,0,0,,8,,,56,127
108008,note_on,1,0,0,,12,,,59,127
108008,note_on,0,0,0,,8,,,56,127
108008,note_on,0,0,0,,4,,,64,127
108008,note_on,0,0,0,,4,,,88,127
108128,note_off,120,0,0,,4,,,88,127
108129,note_on,1,0,0,,2,,,86,127
108249,note_off,120,0,0,,2,,,86,127
108250,note_on,1,0,0,,0,,,84,127
108370,note_off,120,0,0,,0,,,84,127
108371,note_on,1,0,0,,12,,,83,127
108491,note_off,120,0,0,,12,,,83,127
108491,note_off,0,0,0,,4,,,64,127
108491,note_off,0,0,0,,8,,,56,127
108491,note_off,0,0,0,,12,,,59,127
108492,note_on,1,0,0,,10,,,57,127
108492,note_on,0,0,0,,4,,,64,127
108492,note_on,0,0,0,,0,,,60,127
108492,note_on,0,0,0,,2,,,86,127
108612,note_off,120,0,0,,2,,,86,127
108613,note_on,1,0,0,,0,,,84,127
108733,note_off,120,0,0,,0,,,84,127
108734,note_on,1,0,0,,12,,,83,127
108854,note_off,120,0,0,,12,,,83,127
108855,note_on,1,0,0,,10,,,81,127
108975,note_off,120,0,0,,10,,,81,127
108975,note_off,0,0,0,,0,,,60,127
108975,note_off,0,0,0,,4,,,64,127
108975,note_off,0,0,0,,10,,,57,127
108976,note_on,1,0,0,,12,,,59,127
108976,note_on,0,0,0,,8,,,56,127
108976,note_on,0,0,0,,4,,,52,127
108976,note_on,0,0,0,,4,,,40,127
109460,note_off,484,0,0,,4,,,40,127
109460,note_off,0,0,0,,4,,,52,127
109460,note_off,0,0,0,,8,,,56,127
109460,note_off,0,0,0,,12,,,59,127
109461,note_on,1,0,0,,8,,,56,127
109461,note_on,0,0,0,,4,,,64,127
109461,note_on,0,0,0,,12,,,59,127
109461,note_on,0,0,0,,4,,,88,127
109581,note_off,120,0,0,,4,,,88,127
109582,note_on,1,0,0,,2,,,86,127
109702,note_off,120,0,0,,2,,,86,127
109703,note_on,1,0,0,,0,,,84,127
109823,note_off,120,0,0,,0,,,84,127
109824,note_on,1,0,0,,12,,,83,127
109944,note_off,120,0,0,,12,,,83,127
109944,note_off,0,0,0,,12,,,59,127
109944,note_off,0,0,0,,4,,,64,127
109944,note_off,0,0,0,,8,,,56,127
109945,note_on,1,0,0,,4,,,64,127
109945,note_on,0,0,0,,0,,,60,127
109945,note_on,0,0,0,,10,,,57,127
109945,note_on,0,0,0,,2,,,86,127
110065,note_off,120,0,0,,2,,,86,127
110066,note_on,1,0,0,,0,,,84,127
110186,note_off,120,0,0,,0,,,84,127
110187,note_on,1,0,0,,12,,,83,127
110307,note_off,120,0,0,,12,,,83,127
110308,note_on,1,0,0,,10,,,81,127
110428,note_off,120,0,0,,10,,,81,127
110428,note_off,0,0,0,,10,,,57,127
110428,note_off,0,0,0,,0,,,60,127
110428,note_off,0,0,0,,4,,,64,127
110429,note_on,1,0,0,,5,,,53,127
110429,note_on,0,0,0,,10,,,57,127
110429,note_on,0,0,0,,2,,,62,127
110429,note_on,0,0,0,,7,,,79,127
110549,note_off,120,0,0,,7,,,79,127
110550,note_on,1,0,0,,5,,,77,127
110670,note_off,120,0,0,,5,,,77,127
110671,note_on,1,0,0,,4,,,76,127
110791,note_off,120,0,0,,4,,,76,127
110792,note_on,1,0,0,,2,,,74,127
110912,note_off,120,0,0,,2,,,74,127
110912,note_off,0,0,0,,2,,,62,127
110912,note_off,0,0,0,,10,,,57,127
110912,note_off,0,0,0,,5,,,53,127
110913,note_on,1,0,0,,4,,,52,127
110913,note_on,0,0,0,,0,,,60,127
110913,note_on,0,0,0,,10,,,57,127
110913,note_on,0,0,0,,0,,,72,127
111033,note_off,120,0,0,,0,,,72,127
111034,note_on,1,0,0,,12,,,71,127
111154,note_off,120,0,0,,12,,,71,127
111155,note_on,1,0,0,,10,,,69,127
111275,note_off,120,0,0,,10,,,69,127
111276,note_on,1,0,0,,12,,,71,127
111396,note_off,120,0,0,,12,,,71,127
111396,note_off,0,0,0,,10,,,57,127
111396,note_off,0,0,0,,0,,,60,127
111396,note_off,0,0,0,,4,,,52,127
111397,note_on,1,0,0,,8,,,56,127
111397,note_on,0,0,0,,4,,,52,127
111397,note_on,0,0,0,,12,,,59,127
111397,note_on,0,0,0,,0,,,72,127
111456,note_off,59,0,0,,0,,,72,127
111457,note_on,1,0,0,,12,,,71,127
111516,note_off,59,0,0,,12,,,71,127
111517,note_on,1,0,0,,0,,,72,127
111576,note_off,59,0,0,,0,,,72,127
111577,note_on,1,0,0,,12,,,71,127
111636,note_off,59,0,0,,12,,,71,127
111637,note_on,1,0,0,,0,,,72,127
111696,note_off,59,0,0,,0,,,72,127
111697,note_on,1,0,0,,12,,,71,127
111756,note_off,59,0,0,,12,,,71,127
111757,note_on,1,0,0,,10,,,69,127
111877,note_off,120,0,0,,10,,,69,127
111877,note_off,0,0,0,,12,,,59,127
111877,note_off,0,0,0,,4,,,52,127
111877,note_off,0,0,0,,8,,,56,127
111878,note_on,1,0,0,,5,,,53,127
111878,note_on,0,0,0,,10,,,69,127
111998,note_off,120,0,0,,10,,,69,127
111999,note_on,1,0,0,,12,,,71,127
112119,note_off,120,0,0,,12,,,71,127
112120,note_on,1,0,0,,12,,,71,127
112240,note_off,120,0,0,,12,,,71,127
112241,note_on,1,0,0,,0,,,72,127
112361,note_off,120,0,0,,0,,,72,127
112362,note_on,1,0,0,,10,,,57,127
112362,note_on,0,0,0,,0,,,72,127
112482,note_off,120,0,0,,0,,,72,127
112483,note_on,1,0,0,,2,,,74,127
112603,note_off,120,0,0,,2,,,74,127
112604,note_on,1,0,0,,2,,,74,127
112724,note_off,120,0,0,,2,,,74,127
112725,note_on,1,0,0,,4,,,76,127
112845,note_off,120,0,0,,4,,,76,127
112845,note_off,0,0,0,,10,,,57,127
112846,note_on,1,0,0,,2,,,62,127
112846,note_on,0,0,0,,4,,,76,127
112966,note_off,120,0,0,,4,,,76,127
112967,note_on,1,0,0,,5,,,77,127
113087,note_off,120,0,0,,5,,,77,127
113088,note_on,1,0,0,,5,,,77,127
113208,note_off,120,0,0,,5,,,77,127
113209,note_on,1,0,0,,10,,,69,127
113329,note_off,120,0,0,,10,,,69,127
113329,note_off,0,0,0,,2,,,62,127
113329,note_off,0,0,0,,5,,,53,127
113330,note_on,1,0,0,,4,,,52,127
113330,note_on,0,0,0,,10,,,69,127
113571,note_off,241,0,0,,10,,,69,127
113572,note_on,1,0,0,,8,,,68,127
113813,note_off,241,0,0,,8,,,68,127
113813,note_off,0,0,0,,4,,,52,127
113814,note_on,1,0,0,,2,,,86,127
113814,note_on,0,0,0,,4,,,64,127
113814,note_on,0,0,0,,8,,,68,127
113934,note_off,120,0,0,,8,,,68,127
113935,note_on,1,0,0,,8,,,68,127
114055,note_off,120,0,0,,8,,,68,127
114055,note_off,0,0,0,,2,,,86,127
114056,note_on,1,0,0,,0,,,84,127
114056,note_on,0,0,0,,10,,,69,127
114176,note_off,120,0,0,,10,,,69,127
114176,note_off,0,0,0,,0,,,84,127
114177,note_on,1,0,0,,12,,,83,127
114177,note_on,0,0,0,,12,,,71,127
114297,note_off,120,0,0,,12,,,71,127
114297,note_off,0,0,0,,12,,,83,127
114298,note_on,1,0,0,,0,,,84,127
114298,note_on,0,0,0,,10,,,69,127
114418,note_off,120,0,0,,10,,,69,127
114419,note_on,1,0,0,,10,,,69,127
114539,note_off,120,0,0,,10,,,69,127
114539,note_off,0,0,0,,0,,,84,127
114540,note_on,1,0,0,,12,,,83,127
114540,note_on,0,0,0,,12,,,71,127
114660,note_off,120,0,0,,12,,,71,127
114660,note_off,0,0,0,,12,,,83,127
114661,note_on,1,0,0,,10,,,81,127
114661,note_on,0,0,0,,0,,,72,127
114781,note_off,120,0,0,,0,,,72,127
114781,note_off,0,0,0,,10,,,81,127
114781,note_off,0,0,0,,4,,,64,127
114782,note_on,1,0,0,,4,,,40,127
114782,note_on,0,0,0,,4,,,64,127
114782,note_on,0,0,0,,12,,,71,127
114902,note_off,120,0,0,,12,,,71,127
114903,note_on,1,0,0,,12,,,71,127
115023,note_off,120,0,0,,12,,,71,127
115024,note_on,1,0,0,,10,,,69,127
115144,note_off,120,0,0,,10,,,69,127
115145,note_on,1,0,0,,8,,,68,127
115265,note_off,120,0,0,,8,,,68,127
115265,note_off,0,0,0,,4,,,64,127
115265,note_off,0,0,0,,4,,,40,127
115266,note_on,1,0,0,,2,,,86,127
115266,note_on,0,0,0,,8,,,68,127
115266,note_on,0,0,0,,4,,,64,127
115386,note_off,120,0,0,,8,,,68,127
115387,note_on,1,0,0,,8,,,68,127
115507,note_off,120,0,0,,8,,,68,127
115507,note_off,0,0,0,,2,,,86,127
115508,note_on,1,0,0,,0,,,84,127
115508,note_on,0,0,0,,10,,,69,127
115628,note_off,120,0,0,,10,,,69,127
115628,note_off,0,0,0,,0,,,84,127
115629,note_on,1,0,0,,12,,,83,127
115629,note_on,0,0,0,,12,,,71,127
115749,note_off,120,0,0,,12,,,71,127
115749,note_off,0,0,0,,12,,,83,127
115750,note_on,1,0,0,,0,,,84,127
115750,note_on,0,0,0,,10,,,69,127
115870,note_off,120,0,0,,10,,,69,127
115871,note_on,1,0,0,,10,,,69,127
115991,note_off,120,0,0,,10,,,69,127
115991,note_off,0,0,0,,0,,,84,127
115992,note_on,1,0,0,,12,,,83,127
115992,note_on,0,0,0,,12,,,71,127
116112,note_off,120,0,0,,12,,,71,127
116112,note_off,0,0,0,,12,,,83,127
116113,note_on,1,0,0,,10,,,81,127
116113,note_on,0,0,0,,0,,,72,127
116233,note_off,120,0,0,,0,,,72,127
116233,note_off,0,0,0,,10,,,81,127
116233,note_off,0,0,0,,4,,,64,127
116234,note_on,1,0,0,,4,,,40,127
116234,note_on,0,0,0,,12,,,71,127
116234,note_on,0,0,0,,4,,,64,127
116354,note_off,120,0,0,,12,,,71,127
116355,note_on,1,0,0,,12,,,71,127
116475,note_off,120,0,0,,12,,,71,127
116476,note_on,1,0,0,,10,,,69,127
116596,note_off,120,0,0,,10,,,69,127
116597,note_on,1,0,0,,8,,,68,127
116717,note_off,120,0,0,,8,,,68,127
116717,note_off,0,0,0,,4,,,64,127
116717,note_off,0,0,0,,4,,,40,127
116718,note_on,1,0,0,,8,,,56,127
116718,note_on,0,0,0,,4,,,64,127
116718,note_on,0,0,0,,12,,,59,127
116718,note_on,0,0,0,,4,,,76,127
116838,note_off,120,0,0,,4,,,76,127
116839,note_on,1,0,0,,2,,,74,127
116959,note_off,120,0,0,,2,,,74,127
116960,note_on,1,0,0,,0,,,72,127
117080,note_off,120,0,0,,0,,,72,127
117081,note_on,1,0,0,,12,,,71,127
117201,note_off,120,0,0,,12,,,71,127
117201,note_off,0,0,0,,12,,,59,127
117201,note_off,0,0,0,,4,,,64,127
117201,note_off,0,0,0,,8,,,56,127
117202,note_on,1,0,0,,10,,,57,127
117202,note_on,0,0,0,,0,,,60,127
117202,note_on,0,0,0,,4,,,64,127
117202,note_on,0,0,0,,2,,,74,127
117322,note_off,120,0,0,,2,,,74,127
117323,note_on,1,0,0,,0,,,72,127
117443,note_off,120,0,0,,0,,,72,127
117444,note_on,1,0,0,,12,,,71,127
117564,note_off,120,0,0,,12,,,71,127
117565,note_on,1,0,0,,10,,,69,127
117685,note_off,120,0,0,,10,,,69,127
117685,note_off,0,0,0,,4,,,64,127
117685,note_off,0,0,0,,0,,,60,127
117685,note_off,0,0,0,,10,,,57,127
117686,note_on,1,0,0,,2,,,50,127
117686,note_on,0,0,0,,10,,,57,127
117686,note_on,0,0,0,,2,,,62,127
117686,note_on,0,0,0,,7,,,79,127
117806,note_off,120,0,0,,7,,,79,127
117807,note_on,1,0,0,,5,,,77,127
117927,note_off,120,0,0,,5,,,77,127
117928,note_on,1,0,0,,4,,,76,127
118048,note_off,120,0,0,,4,,,76,127
118049,note_on,1,0,0,,2,,,74,127
118169,note_off,120,0,0,,2,,,74,127
118169,note_off,0,0,0,,2,,,62,127
118169,note_off,0,0,0,,10,,,57,127
118169,note_off,0,0,0,,2,,,50,127
118170,note_on,1,0,0,,4,,,52,127
118170,note_on,0,0,0,,0,,,60,127
118170,note_on,0,0,0,,10,,,57,127
118170,note_on,0,0,0,,0,,,72,127
118411,note_off,241,0,0,,0,,,72,127
118412,note_on,1,0,0,,12,,,71,127
118532,note_off,120,0,0,,12,,,71,127
118533,note_on,1,0,0,,10,,,69,127
118653,note_off,120,0,0,,10,,,69,127
118653,note_off,0,0,0,,10,,,57,127
118653,note_off,0,0,0,,0,,,60,127
118653,note_off,0,0,0,,4,,,52,127
118654,note_on,1,0,0,,4,,,52,127
118654,note_on,0,0,0,,12,,,59,127
118654,note_on,0,0,0,,0,,,72,127
118713,note_off,59,0,0,,0,,,72,127
118714,note_on,1,0,0,,12,,,71,127
118773,note_off,59,0,0,,12,,,71,127
118774,note_on,1,0,0,,0,,,72,127
118833,note_off,59,0,0,,0,,,72,127
118834,note_on,1,0,0,,12,,,71,127
118893,note_off,59,0,0,,12,,,71,127
118894,note_on,1,0,0,,10,,,69,127
119014,note_off,120,0,0,,10,,,69,127
119015,note_on,1,0,0,,8,,,68,127
119135,note_off,120,0,0,,8,,,68,127
119135,note_off,0,0,0,,12,,,59,127
119135,note_off,0,0,0,,4,,,52,127
119136,note_on,1,0,0,,10,,,45,127
119136,note_on,0,0,0,,10,,,57,127
119136,note_on,0,0,0,,10,,,69,127
119377,note_off,241,0,0,,10,,,69,127
119378,note_on,1,0,0,,0,,,72,127
119619,note_off,241,0,0,,0,,,72,127
119619,note_off,0,0,0,,10,,,57,127
119619,note_off,0,0,0,,10,,,45,127
119620,note_on,1,0,0,,10,,,69,127
119620,note_on,0,0,0,,4,,,76,127
119700,note_off,80,0,0,,4,,,76,127
119701,note_on,1,0,0,,2,,,74,127
119781,note_off,80,0,0,,2,,,74,127
119782,note_on,1,0,0,,0,,,72,127
119859,note_off,77,0,0,,0,,,72,127
119863,note_on,4,0,0,,0,,,72,127
120104,note_off,241,0,0,,10,,,69,127
120105,note_on,1,0,0,,7,,,67,127
120346,note_off,241,0,0,,0,,,72,127
120347,note_on,1,0,0,,12,,,71,127
120507,note_off,160,0,0,,12,,,71,127
120508,note_on,1,0,0,,8,,,80,127
120588,note_off,80,0,0,,8,,,80,127
120588,note_off,0,0,0,,7,,,67,127
120589,note_on,1,0,0,,5,,,53,127
120589,note_on,0,0,0,,10,,,81,127
120830,note_off,241,0,0,,10,,,81,127
120831,note_on,1,0,0,,10,,,69,127
121072,note_off,241,0,0,,10,,,69,127
121072,note_off,0,0,0,,5,,,53,127
121073,note_on,1,0,0,,5,,,65,127
121073,note_on,0,0,0,,0,,,72,127
121153,note_off,80,0,0,,0,,,72,127
121154,note_on,1,0,0,,12,,,71,127
121234,note_off,80,0,0,,12,,,71,127
121235,note_on,1,0,0,,10,,,69,127
121312,note_off,77,0,0,,10,,,69,127
121316,note_on,4,0,0,,10,,,69,127
121557,note_off,241,0,0,,5,,,65,127
121558,note_on,1,0,0,,4,,,64,127
121799,note_off,241,0,0,,10,,,69,127
121800,note_on,1,0,0,,8,,,68,127
121960,note_off,160,0,0,,8,,,68,127
121961,note_on,1,0,0,,8,,,80,127
122041,note_off,80,0,0,,8,,,80,127
122041,note_off,0,0,0,,4,,,64,127
122042,note_on,1,0,0,,2,,,50,127
122042,note_on,0,0,0,,10,,,81,127
122283,note_off,241,0,0,,10,,,81,127
122284,note_on,1,0,0,,5,,,65,127
122525,note_off,241,0,0,,5,,,65,127
122525,note_off,0,0,0,,2,,,50,127
122526,note_on,1,0,0,,2,,,62,127
122526,note_on,0,0,0,,10,,,69,127
122606,note_off,80,0,0,,10,,,69,127
122607,note_on,1,0,0,,7,,,67,127
122687,note_off,80,0,0,,7,,,67,127
122688,note_on,1,0,0,,5,,,65,127
122765,note_off,77,0,0,,5,,,65,127
122769,note_on,4,0,0,,5,,,65,127
123010,note_off,241,0,0,,2,,,62,127
123011,note_on,1,0,0,,0,,,60,127
123128,note_off,117,0,0,,5,,,65,127
123132,note_on,4,0,0,,5,,,65,127
123249,note_off,117,0,0,,5,,,65,127
123253,note_on,4,0,0,,5,,,65,127
123373,note_off,120,0,0,,5,,,65,127
123374,note_on,1,0,0,,4,,,64,127
123494,note_off,120,0,0,,4,,,64,127
123494,note_off,0,0,0,,0,,,60,127
123495,note_on,1,0,0,,12,,,59,127
123495,note_on,0,0,0,,4,,,64,127
123615,note_off,120,0,0,,4,,,64,127
123616,note_on,1,0,0,,2,,,62,127
123736,note_off,120,0,0,,2,,,62,127
123737,note_on,1,0,0,,12,,,71,127
123857,note_off,120,0,0,,12,,,71,127
123858,note_on,1,0,0,,10,,,69,127
123978,note_off,120,0,0,,10,,,69,127
123979,note_on,1,0,0,,10,,,57,127
123979,note_on,0,0,0,,2,,,50,127
123979,note_on,0,0,0,,10,,,69,127
124099,note_off,120,0,0,,10,,,69,127
124100,note_on,1,0,0,,8,,,68,127
124220,note_off,120,0,0,,8,,,68,127
124221,note_on,1,0,0,,2,,,74,127
124341,note_off,120,0,0,,2,,,74,127
124342,note_on,1,0,0,,0,,,72,127
124462,note_off,120,0,0,,0,,,72,127
124462,note_off,0,0,0,,2,,,50,127
124462,note_off,0,0,0,,10,,,57,127
124462,note_off,0,0,0,,12,,,59,127
124463,note_on,1,0,0,,4,,,52,127
124463,note_on,0,0,0,,12,,,59,127
124463,note_on,0,0,0,,8,,,56,127
124463,note_on,0,0,0,,0,,,72,127
124583,note_off,120,0,0,,0,,,72,127
124584,note_on,1,0,0,,12,,,71,127
124704,note_off,120,0,0,,12,,,71,127
124705,note_on,1,0,0,,4,,,76,127
124825,note_off,120,0,0,,4,,,76,127
124826,note_on,1,0,0,,2,,,74,127
124946,note_off,120,0,0,,2,,,74,127
124946,note_off,0,0,0,,8,,,56,127
124946,note_off,0,0,0,,12,,,59,127
124946,note_off,0,0,0,,4,,,52,127
124947,note_on,1,0,0,,10,,,57,127
124947,note_on,0,0,0,,2,,,74,127
125067,note_off,120,0,0,,2,,,74,127
125068,note_on,1,0,0,,0,,,72,127
125188,note_off,120,0,0,,0,,,72,127
125189,note_on,1,0,0,,0,,,84,127
125309,note_off,120,0,0,,0,,,84,127
125310,note_on,1,0,0,,12,,,83,127
125430,note_off,120,0,0,,12,,,83,127
125430,note_off,0,0,0,,10,,,57,127
125431,note_on,1,0,0,,12,,,59,127
125431,note_on,0,0,0,,12,,,83,127
125551,note_off,120,0,0,,12,,,83,127
125552,note_on,1,0,0,,10,,,81,127
125672,note_off,120,0,0,,10,,,81,127
125673,note_on,1,0,0,,10,,,81,127
125793,note_off,120,0,0,,10,,,81,127
125794,note_on,1,0,0,,8,,,80,127
125914,note_off,120,0,0,,8,,,80,127
125914,note_off,0,0,0,,12,,,59,127
125915,note_on,1,0,0,,0,,,60,127
125915,note_on,0,0,0,,10,,,81,127
126035,note_off,120,0,0,,10,,,81,127
126036,note_on,1,0,0,,7,,,79,127
126156,note_off,120,0,0,,7,,,79,127
126157,note_on,1,0,0,,5,,,77,127
126277,note_off,120,0,0,,5,,,77,127
126278,note_on,1,0,0,,4,,,76,127
126398,note_off,120,0,0,,4,,,76,127
126398,note_off,0,0,0,,0,,,60,127
126399,note_on,1,0,0,,2,,,62,127
126399,note_on,0,0,0,,5,,,77,127
126519,note_off,120,0,0,,5,,,77,127
126520,note_on,1,0,0,,2,,,74,127
126640,note_off,120,0,0,,2,,,74,127
126641,note_on,1,0,0,,0,,,72,127
126761,note_off,120,0,0,,0,,,72,127
126762,note_on,1,0,0,,12,,,71,127
126882,note_off,120,0,0,,12,,,71,127
126882,note_off,0,0,0,,2,,,62,127
126883,note_on,1,0,0,,4,,,64,127
126883,note_on,0,0,0,,4,,,76,127
127003,note_off,120,0,0,,4,,,76,127
127004,note_on,1,0,0,,0,,,72,127
127124,note_off,120,0,0,,0,,,72,127
127125,note_on,1,0,0,,12,,,71,127
127245,note_off,120,0,0,,12,,,71,127
127246,note_on,1,0,0,,10,,,69,127
127366,note_off,120,0,0,,10,,,69,127
127367,note_on,1,0,0,,4,,,52,127
127367,note_on,0,0,0,,2,,,74,127
127487,note_off,120,0,0,,2,,,74,127
127488,note_on,1,0,0,,12,,,71,127
127608,note_off,120,0,0,,12,,,71,127
127609,note_on,1,0,0,,10,,,69,127
127729,note_off,120,0,0,,10,,,69,127
127730,note_on,1,0,0,,8,,,68,127
127850,note_off,120,0,0,,8,,,68,127
127850,note_off,0,0,0,,4,,,52,127
127850,note_off,0,0,0,,4,,,64,127
127851,note_on,1,0,0,,10,,,57,127
127851,note_on,0,0,0,,10,,,69,127
128092,note_off,241,0,0,,10,,,69,127
128093,note_on,1,0,0,,0,,,72,127
128334,note_off,241,0,0,,0,,,72,127
128334,note_off,0,0,0,,10,,,57,127
128335,note_on,1,0,0,,10,,,69,127
128335,note_on,0,0,0,,4,,,76,127
128415,note_off,80,0,0,,4,,,76,127
128416,note_on,1,0,0,,2,,,74,127
128496,note_off,80,0,0,,2,,,74,127
128497,note_on,1,0,0,,0,,,72,127
128574,note_off,77,0,0,,0,,,72,127
128578,note_on,4,0,0,,0,,,72,127
128819,note_off,241,0,0,,10,,,69,127
128820,note_on,1,0,0,,7,,,67,127
129061,note_off,241,0,0,,0,,,72,127
129062,note_on,1,0,0,,12,,,71,127
129222,note_off,160,0,0,,12,,,71,127
129223,note_on,1,0,0,,8,,,80,127
129223,note_on,0,0,0,,12,,,83,127
129303,note_off,80,0,0,,12,,,83,127
129303,note_off,0,0,0,,8,,,80,127
129303,note_off,0,0,0,,7,,,67,127
129304,note_on,1,0,0,,5,,,53,127
129304,note_on,0,0,0,,0,,,84,127
129304,note_on,0,0,0,,10,,,81,127
129545,note_off,241,0,0,,10,,,81,127
129545,note_off,0,0,0,,0,,,84,127
129546,note_on,1,0,0,,10,,,69,127
129787,note_off,241,0,0,,10,,,69,127
129787,note_off,0,0,0,,5,,,53,127
129788,note_on,1,0,0,,5,,,65,127
129788,note_on,0,0,0,,0,,,72,127
129868,note_off,80,0,0,,0,,,72,127
129869,note_on,1,0,0,,12,,,71,127
129949,note_off,80,0,0,,12,,,71,127
129950,note_on,1,0,0,,10,,,69,127
130027,note_off,77,0,0,,10,,,69,127
130031,note_on,4,0,0,,10,,,69,127
130272,note_off,241,0,0,,5,,,65,127
130273,note_on,1,0,0,,4,,,64,127
130514,note_off,241,0,0,,10,,,69,127
130515,note_on,1,0,0,,8,,,68,127
130675,note_off,160,0,0,,8,,,68,127
130676,note_on,1,0,0,,8,,,80,127
130676,note_on,0,0,0,,12,,,83,127
130756,note_off,80,0,0,,12,,,83,127
130756,note_off,0,0,0,,8,,,80,127
130756,note_off,0,0,0,,4,,,64,127
130757,note_on,1,0,0,,2,,,50,127
130757,note_on,0,0,0,,0,,,84,127
130757,note_on,0,0,0,,10,,,81,127
130998,note_off,241,0,0,,10,,,81,127
130998,note_off,0,0,0,,0,,,84,127
130999,note_on,1,0,0,,5,,,65,127
131240,note_off,241,0,0,,5,,,65,127
131240,note_off,0,0,0,,2,,,50,127
131241,note_on,1,0,0,,2,,,62,127
131241,note_on,0,0,0,,10,,,69,127
131321,note_off,80,0,0,,10,,,69,127
131322,note_on,1,0,0,,7,,,67,127
131402,note_off,80,0,0,,7,,,67,127
131403,note_on,1,0,0,,5,,,65,127
131480,note_off,77,0,0,,5,,,65,127
131484,note_on,4,0,0,,5,,,65,127
131725,note_off,241,0,0,,2,,,62,127
131726,note_on,1,0,0,,0,,,60,127
131843,note_off,117,0,0,,5,,,65,127
131847,note_on,4,0,0,,5,,,65,127
131964,note_off,117,0,0,,5,,,65,127
131968,note_on,4,0,0,,5,,,65,127
132088,note_off,120,0,0,,5,,,65,127
132089,note_on,1,0,0,,4,,,64,127
132209,note_off,120,0,0,,4,,,64,127
132209,note_off,0,0,0,,0,,,60,127
132210,note_on,1,0,0,,12,,,59,127
132210,note_on,0,0,0,,4,,,64,127
132330,note_off,120,0,0,,4,,,64,127
132331,note_on,1,0,0,,2,,,62,127
132451,note_off,120,0,0,,2,,,62,127
132452,note_on,1,0,0,,12,,,71,127
132572,note_off,120,0,0,,12,,,71,127
132573,note_on,1,0,0,,10,,,69,127
132693,note_off,120,0,0,,10,,,69,127
132694,note_on,1,0,0,,2,,,50,127
132694,note_on,0,0,0,,10,,,57,127
132694,note_on,0,0,0,,10,,,69,127
132814,note_off,120,0,0,,10,,,69,127
132815,note_on,1,0,0,,8,,,68,127
132935,note_off,120,0,0,,8,,,68,127
132936,note_on,1,0,0,,2,,,74,127
133056,note_off,120,0,0,,2,,,74,127
133057,note_on,1,0,0,,0,,,72,127
133177,note_off,120,0,0,,0,,,72,127
133177,note_off,0,0,0,,10,,,57,127
133177,note_off,0,0,0,,2,,,50,127
133177,note_off,0,0,0,,12,,,59,127
133178,note_on,1,0,0,,12,,,59,127
133178,note_on,0,0,0,,8,,,56,127
133178,note_on,0,0,0,,4,,,52,127
133178,note_on,0,0,0,,0,,,72,127
133298,note_off,120,0,0,,0,,,72,127
133299,note_on,1,0,0,,12,,,71,127
133419,note_off,120,0,0,,12,,,71,127
133420,note_on,1,0,0,,4,,,76,127
133540,note_off,120,0,0,,4,,,76,127
133541,note_on,1,0,0,,2,,,74,127
133661,note_off,120,0,0,,2,,,74,127
133661,note_off,0,0,0,,4,,,52,127
133661,note_off,0,0,0,,8,,,56,127
133661,note_off,0,0,0,,12,,,59,127
133662,note_on,1,0,0,,10,,,57,127
133662,note_on,0,0,0,,2,,,74,127
133782,note_off,120,0,0,,2,,,74,127
133783,note_on,1,0,0,,0,,,72,127
133903,note_off,120,0,0,,0,,,72,127
133904,note_on,1,0,0,,0,,,84,127
134024,note_off,120,0,0,,0,,,84,127
134025,note_on,1,0,0,,12,,,83,127
134145,note_off,120,0,0,,12,,,83,127
134145,note_off,0,0,0,,10,,,57,127
134146,note_on,1,0,0,,12,,,59,127
134146,note_on,0,0,0,,12,,,83,127
134266,note_off,120,0,0,,12,,,83,127
134267,note_on,1,0,0,,10,,,81,127
134387,note_off,120,0,0,,10,,,81,127
134388,note_on,1,0,0,,10,,,81,127
134508,note_off,120,0,0,,10,,,81,127
134509,note_on,1,0,0,,8,,,80,127
134629,note_off,120,0,0,,8,,,80,127
134629,note_off,0,0,0,,12,,,59,127
134630,note_on,1,0,0,,0,,,60,127
134630,note_on,0,0,0,,10,,,81,127
134750,note_off,120,0,0,,10,,,81,127
134751,note_on,1,0,0,,7,,,79,127
134871,note_off,120,0,0,,7,,,79,127
134872,note_on,1,0,0,,5,,,77,127
134992,note_off,120,0,0,,5,,,77,127
134993,note_on,1,0,0,,4,,,76,127
135113,note_off,120,0,0,,4,,,76,127
135113,note_off,0,0,0,,0,,,60,127
135114,note_on,1,0,0,,2,,,62,127
135114,note_on,0,0,0,,5,,,77,127
135234,note_off,120,0,0,,5,,,77,127
135235,note_on,1,0,0,,2,,,74,127
135355,note_off,120,0,0,,2,,,74,127
135356,note_on,1,0,0,,0,,,72,127
135476,note_off,120,0,0,,0,,,72,127
135477,note_on,1,0,0,,12,,,71,127
135597,note_off,120,0,0,,12,,,71,127
135597,note_off,0,0,0,,2,,,62,127
135598,note_on,1,0,0,,4,,,64,127
135598,note_on,0,0,0,,4,,,76,127
135718,note_off,120,0,0,,4,,,76,127
135719,note_on,1,0,0,,0,,,72,127
135839,note_off,120,0,0,,0,,,72,127
135840,note_on,1,0,0,,12,,,71,127
135960,note_off,120,0,0,,12,,,71,127
135961,note_on,1,0,0,,10,,,69,127
136081,note_off,120,0,0,,10,,,69,127
136082,note_on,1,0,0,,4,,,52,127
136082,note_on,0,0,0,,2,,,74,127
136202,note_off,120,0,0,,2,,,74,127
136203,note_on,1,0,0,,12,,,71,127
136323,note_off,120,0,0,,12,,,71,127
136324,note_on,1,0,0,,10,,,69,127
136444,note_off,120,0,0,,10,,,69,127
136445,note_on,1,0,0,,8,,,68,127
136565,note_off,120,0,0,,8,,,68,127
136565,note_off,0,0,0,,4,,,52,127
136565,note_off,0,0,0,,4,,,64,127
136566,note_on,1,0,0,,10,,,45,127
136566,note_on,0,0,0,,10,,,57,127
136566,note_on,0,0,0,,10,,,69,127
136686,note_off,120,0,0,,10,,,69,127
136687,note_on,1,0,0,,12,,,71,127
136807,note_off,120,0,0,,12,,,71,127
136808,note_on,1,0,0,,0,,,72,127
136928,note_off,120,0,0,,0,,,72,127
136929,note_on,1,0,0,,2,,,74,127
137049,note_off,120,0,0,,2,,,74,127
137049,note_off,0,0,0,,10,,,57,127
137049,note_off,0,0,0,,10,,,45,127
137050,note_on,1,0,0,,4,,,64,127
137050,note_on,0,0,0,,10,,,57,127
137050,note_on,0,0,0,,4,,,76,127
137170,note_off,120,0,0,,4,,,64,127
137171,note_on,1,0,0,,2,,,62,127
137291,note_off,120,0,0,,2,,,62,127
137292,note_on,1,0,0,,0,,,60,127
137412,note_off,120,0,0,,0,,,60,127
137413,note_on,1,0,0,,12,,,59,127
137533,note_off,120,0,0,,12,,,59,127
137534,note_on,1,0,0,,0,,,60,127
137654,note_off,120,0,0,,0,,,60,127
137654,note_off,0,0,0,,4,,,76,127
137655,note_on,1,0,0,,12,,,59,127
137655,note_on,0,0,0,,2,,,74,127
137775,note_off,120,0,0,,2,,,74,127
137775,note_off,0,0,0,,12,,,59,127
137775,note_off,0,0,0,,10,,,57,127
137776,note_on,1,0,0,,10,,,57,127
137776,note_on,0,0,0,,0,,,72,127
137896,note_off,120,0,0,,0,,,72,127
137896,note_off,0,0,0,,10,,,57,127
137897,note_on,1,0,0,,8,,,56,127
137897,note_on,0,0,0,,12,,,71,127
138017,note_off,120,0,0,,12,,,71,127
138017,note_off,0,0,0,,8,,,56,127
138018,note_on,1,0,0,,10,,,45,127
138018,note_on,0,0,0,,10,,,69,127
138138,note_off,120,0,0,,10,,,69,127
138139,note_on,1,0,0,,4,,,64,127
138259,note_off,120,0,0,,4,,,64,127
138260,note_on,1,0,0,,10,,,69,127
138380,note_off,120,0,0,,10,,,69,127
138381,note_on,1,0,0,,0,,,72,127
138501,note_off,120,0,0,,0,,,72,127
138501,note_off,0,0,0,,10,,,45,127
138502,note_on,1,0,0,,10,,,57,127
138502,note_on,0,0,0,,4,,,64,127
138502,note_on,0,0,0,,4,,,76,127
138622,note_off,120,0,0,,4,,,64,127
138623,note_on,1,0,0,,2,,,62,127
138743,note_off,120,0,0,,2,,,62,127
138744,note_on,1,0,0,,0,,,60,127
138864,note_off,120,0,0,,0,,,60,127
138865,note_on,1,0,0,,12,,,59,127
138985,note_off,120,0,0,,12,,,59,127
138986,note_on,1,0,0,,0,,,60,127
139106,note_off,120,0,0,,0,,,60,127
139106,note_off,0,0,0,,4,,,76,127
139107,note_on,1,0,0,,12,,,59,127
139107,note_on,0,0,0,,2,,,74,127
139227,note_off,120,0,0,,2,,,74,127
139227,note_off,0,0,0,,12,,,59,127
139227,note_off,0,0,0,,10,,,57,127
139228,note_on,1,0,0,,10,,,57,127
139228,note_on,0,0,0,,0,,,72,127
139348,note_off,120,0,0,,0,,,72,127
139348,note_off,0,0,0,,10,,,57,127
139349,note_on,1,0,0,,8,,,56,127
139349,note_on,0,0,0,,12,,,71,127
139469,note_off,120,0,0,,12,,,71,127
139469,note_off,0,0,0,,8,,,56,127
139470,note_on,1,0,0,,10,,,45,127
139470,note_on,0,0,0,,10,,,69,127
139590,note_off,120,0,0,,10,,,69,127
139591,note_on,1,0,0,,4,,,64,127
139711,note_off,120,0,0,,4,,,64,127
139712,note_on,1,0,0,,10,,,69,127
139832,note_off,120,0,0,,10,,,69,127
139833,note_on,1,0,0,,0,,,72,127
139953,note_off,120,0,0,,0,,,72,127
139953,note_off,0,0,0,,10,,,45,127
139954,note_on,1,0,0,,10,,,57,127
139954,note_on,0,0,0,,4,,,64,127
139954,note_on,0,0,0,,10,,,81,127
140074,note_off,120,0,0,,4,,,64,127
140075,note_on,1,0,0,,2,,,62,127
140195,note_off,120,0,0,,2,,,62,127
140196,note_on,1,0,0,,0,,,60,127
140316,note_off,120,0,0,,0,,,60,127
140317,note_on,1,0,0,,12,,,59,127
140437,note_off,120,0,0,,12,,,59,127
140438,note_on,1,0,0,,0,,,60,127
140558,note_off,120,0,0,,0,,,60,127
140558,note_off,0,0,0,,10,,,81,127
140559,note_on,1,0,0,,12,,,59,127
140559,note_on,0,0,0,,2,,,74,127
140679,note_off,120,0,0,,2,,,74,127
140679,note_off,0,0,0,,12,,,59,127
140679,note_off,0,0,0,,10,,,57,127
140680,note_on,1,0,0,,10,,,57,127
140680,note_on,0,0,0,,0,,,72,127
140800,note_off,120,0,0,,0,,,72,127
140800,note_off,0,0,0,,10,,,57,127
140801,note_on,1,0,0,,8,,,56,127
140801,note_on,0,0,0,,12,,,71,127
140921,note_off,120,0,0,,12,,,71,127
140921,note_off,0,0,0,,8,,,56,127
140922,note_on,1,0,0,,10,,,57,127
140922,note_on,0,0,0,,0,,,72,127
141042,note_off,120,0,0,,0,,,72,127
141043,note_on,1,0,0,,4,,,76,127
141163,note_off,120,0,0,,4,,,76,127
141164,note_on,1,0,0,,2,,,74,127
141284,note_off,120,0,0,,2,,,74,127
141285,note_on,1,0,0,,0,,,72,127
141405,note_off,120,0,0,,0,,,72,127
141405,note_off,0,0,0,,10,,,57,127
141406,note_on,1,0,0,,2,,,50,127
141406,note_on,0,0,0,,5,,,77,127
141526,note_off,120,0,0,,5,,,77,127
141527,note_on,1,0,0,,2,,,74,127
141647,note_off,120,0,0,,2,,,74,127
141648,note_on,1,0,0,,0,,,72,127
141768,note_off,120,0,0,,0,,,72,127
141769,note_on,1,0,0,,12,,,71,127
141889,note_off,120,0,0,,12,,,71,127
141889,note_off,0,0,0,,2,,,50,127
141890,note_on,1,0,0,,4,,,52,127
141890,note_on,0,0,0,,0,,,72,127
142010,note_off,120,0,0,,0,,,72,127
142011,note_on,1,0,0,,12,,,71,127
142131,note_off,120,0,0,,12,,,71,127
142132,note_on,1,0,0,,10,,,69,127
142252,note_off,120,0,0,,10,,,69,127
142253,note_on,1,0,0,,8,,,68,127
142373,note_off,120,0,0,,8,,,68,127
142373,note_off,0,0,0,,4,,,52,127
142374,note_on,1,0,0,,5,,,53,127
142374,note_on,0,0,0,,10,,,69,127
142494,note_off,120,0,0,,10,,,69,127
142495,note_on,1,0,0,,2,,,62,127
142615,note_off,120,0,0,,2,,,62,127
142616,note_on,1,0,0,,4,,,64,127
142736,note_off,120,0,0,,4,,,64,127
142737,note_on,1,0,0,,5,,,65,127
142857,note_off,120,0,0,,5,,,65,127
142857,note_off,0,0,0,,5,,,53,127
142858,note_on,1,0,0,,2,,,50,127
142858,note_on,0,0,0,,2,,,38,127
142858,note_on,0,0,0,,4,,,64,127
142978,note_off,120,0,0,,4,,,64,127
142979,note_on,1,0,0,,2,,,62,127
143099,note_off,120,0,0,,2,,,62,127
143100,note_on,1,0,0,,0,,,60,127
143220,note_off,120,0,0,,0,,,60,127
143221,note_on,1,0,0,,12,,,59,127
143341,note_off,120,0,0,,12,,,59,127
143341,note_off,0,0,0,,2,,,38,127
143341,note_off,0,0,0,,2,,,50,127
143342,note_on,1,0,0,,4,,,40,127
143342,note_on,0,0,0,,4,,,52,127
143342,note_on,0,0,0,,0,,,60,127
143462,note_off,120,0,0,,0,,,60,127
143463,note_on,1,0,0,,12,,,59,127
143583,note_off,120,0,0,,12,,,59,127
143584,note_on,1,0,0,,10,,,57,127
143704,note_off,120,0,0,,10,,,57,127
143705,note_on,1,0,0,,8,,,56,127
143825,note_off,120,0,0,,8,,,56,127
143825,note_off,0,0,0,,4,,,52,127
143825,note_off,0,0,0,,4,,,40,127
143826,note_on,1,0,0,,10,,,45,127
143826,note_on,0,0,0,,8,,,56,127
144310,note_off,484,0,0,,8,,,56,127
144311,note_on,1,0,0,,10,,,57,127
146494,note_off,2183,0,0,,10,,,57,127
146494,note_off,0,0,0,,10,,,45,127
147456,end_of_track,962,1,0,,,,,,
