tick,type,time,meta,track,program,channel,pitch,tempo,note,velocity
0,copyright,0,1,0,,,,,,
0,program_change,0,0,0,6,0,,,,
0,pitchwheel,0,0,0,,0,0,,,
0,program_change,0,0,0,6,1,,,,
0,pitchwheel,0,0,0,,1,-590,,,
0,program_change,0,0,0,6,2,,,,
0,pitchwheel,0,0,0,,2,-272,,,
0,program_change,0,0,0,6,3,,,,
0,pitchwheel,0,0,0,,3,-353,,,
0,program_change,0,0,0,6,4,,,,
0,pitchwheel,0,0,0,,4,-560,,,
0,program_change,0,0,0,6,5,,,,
0,pitchwheel,0,0,0,,5,-80,,,
0,program_change,0,0,0,6,6,,,,
0,pitchwheel,0,0,0,,6,-625,,,
0,program_change,0,0,0,6,7,,,,
0,pitchwheel,0,0,0,,7,-130,,,
0,program_change,0,0,0,6,8,,,,
0,pitchwheel,0,0,0,,8,-512,,,
0,program_change,0,0,0,6,10,,,,
0,pitchwheel,0,0,0,,10,-464,,,
0,program_change,0,0,0,6,11,,,,
0,pitchwheel,0,0,0,,11,-208,,,
0,program_change,0,0,0,6,12,,,,
0,pitchwheel,0,0,0,,12,-553,,,
0,set_tempo,0,1,0,,,,500000,,
82,note_on,82,0,0,,10,,,81,127
246,note_off,164,0,0,,10,,,81,127
247,note_on,1,0,0,,0,,,84,127
411,note_off,164,0,0,,0,,,84,127
412,note_on,1,0,0,,12,,,83,127
576,note_off,164,0,0,,12,,,83,127
577,note_on,1,0,0,,10,,,81,127
741,note_off,164,0,0,,10,,,81,127
742,note_on,1,0,0,,4,,,76,127
906,note_off,164,0,0,,4,,,76,127
907,note_on,1,0,0,,2,,,74,127
1071,note_off,164,0,0,,2,,,74,127
1072,note_on,1,0,0,,10,,,69,127
1072,note_on,0,0,0,,0,,,72,127
1236,note_off,164,0,0,,0,,,72,127
1236,note_off,0,0,0,,10,,,69,127
1237,note_on,1,0,0,,0,,,72,127
1402,note_on,165,0,0,,12,,,71,127
1566,note_off,164,0,0,,12,,,71,127
1567,note_on,1,0,0,,10,,,69,127
1731,note_off,164,0,0,,10,,,69,127
1732,note_on,1,0,0,,4,,,64,127
1896,note_off,164,0,0,,4,,,64,127
1896,note_off,0,0,0,,0,,,72,127
1897,note_on,1,0,0,,2,,,62,127
1897,note_on,0,0,0,,2,,,74,127
2061,note_off,164,0,0,,2,,,74,127
2061,note_off,0,0,0,,2,,,62,127
2062,note_on,1,0,0,,0,,,60,127
2062,note_on,0,0,0,,4,,,76,127
2226,note_off,164,0,0,,4,,,76,127
2227,note_on,1,0,0,,2,,,74,127
2391,note_off,164,0,0,,2,,,74,127
2392,note_on,1,0,0,,4,,,76,127
2556,note_off,164,0,0,,4,,,76,127
2556,note_off,0,0,0,,0,,,60,127
2557,note_on,1,0,0,,2,,,62,127
2557,note_on,0,0,0,,5,,,77,127
2721,note_off,164,0,0,,5,,,77,127
2722,note_on,1,0,0,,2,,,74,127
2886,note_off,164,0,0,,2,,,74,127
2887,note_on,1,0,0,,12,,,71,127
3051,note_off,164,0,0,,12,,,71,127
3051,note_off,0,0,0,,2,,,62,127
3052,note_on,1,0,0,,4,,,64,127
3052,note_on,0,0,0,,10,,,69,127
3216,note_off,164,0,0,,4,,,64,127
3217,note_on,1,0,0,,2,,,62,127
3381,note_off,164,0,0,,2,,,62,127
3381,note_off,0,0,0,,10,,,69,127
3382,note_on,1,0,0,,4,,,64,127
3382,note_on,0,0,0,,8,,,68,127
3546,note_off,164,0,0,,8,,,68,127
3546,note_off,0,0,0,,4,,,64,127
3547,note_on,1,0,0,,5,,,65,127
3547,note_on,0,0,0,,10,,,69,127
3711,note_off,164,0,0,,5,,,65,127
3712,note_on,1,0,0,,2,,,62,127
3876,note_off,164,0,0,,2,,,62,127
3877,note_on,1,0,0,,12,,,59,127
4041,note_off,164,0,0,,12,,,59,127
4041,note_off,0,0,0,,10,,,69,127
4042,note_on,1,0,0,,8,,,56,127
4042,note_on,0,0,0,,12,,,71,127
4206,note_off,164,0,0,,12,,,71,127
4207,note_on,1,0,0,,0,,,72,127
4371,note_off,164,0,0,,0,,,72,127
4372,note_on,1,0,0,,2,,,74,127
4536,note_off,164,0,0,,2,,,74,127
4536,note_off,0,0,0,,8,,,56,127
4537,note_on,1,0,0,,10,,,57,127
4537,note_on,0,0,0,,0,,,72,127
4701,note_off,164,0,0,,0,,,72,127
4701,note_off,0,0,0,,10,,,57,127
4702,note_on,1,0,0,,7,,,55,127
4702,note_on,0,0,0,,12,,,71,127
4866,note_off,164,0,0,,12,,,71,127
4866,note_off,0,0,0,,7,,,55,127
4867,note_on,1,0,0,,5,,,53,127
4867,note_on,0,0,0,,10,,,69,127
5031,note_off,164,0,0,,10,,,69,127
5031,note_off,0,0,0,,5,,,53,127
5032,note_on,1,0,0,,4,,,52,127
5032,note_on,0,0,0,,4,,,76,127
5196,note_off,164,0,0,,4,,,52,127
5197,note_on,1,0,0,,12,,,59,127
5361,note_off,164,0,0,,12,,,59,127
5362,note_on,1,0,0,,4,,,64,127
5526,note_off,164,0,0,,4,,,64,127
5527,note_on,1,0,0,,5,,,53,127
5633,note_off,106,0,0,,4,,,76,127
5690,note_off,57,0,0,,5,,,53,127
5691,note_on,1,0,0,,10,,,57,127
5691,note_on,0,0,0,,2,,,74,127
5855,note_off,164,0,0,,2,,,74,127
5855,note_off,0,0,0,,10,,,57,127
5856,note_on,1,0,0,,2,,,62,127
5856,note_on,0,0,0,,10,,,69,127
6020,note_off,164,0,0,,10,,,69,127
6020,note_off,0,0,0,,2,,,62,127
6021,note_on,1,0,0,,4,,,52,127
6021,note_on,0,0,0,,10,,,69,127
6185,note_off,164,0,0,,10,,,69,127
6185,note_off,0,0,0,,4,,,52,127
6186,note_on,1,0,0,,12,,,59,127
6186,note_on,0,0,0,,12,,,71,127
6350,note_off,164,0,0,,12,,,71,127
6350,note_off,0,0,0,,12,,,59,127
6351,note_on,1,0,0,,4,,,64,127
6351,note_on,0,0,0,,0,,,72,127
6515,note_off,164,0,0,,4,,,64,127
6516,note_on,1,0,0,,5,,,53,127
6609,note_off,93,0,0,,0,,,72,127
6680,note_off,71,0,0,,5,,,53,127
6681,note_on,1,0,0,,10,,,57,127
6681,note_on,0,0,0,,2,,,74,127
6845,note_off,164,0,0,,2,,,74,127
6845,note_off,0,0,0,,10,,,57,127
6846,note_on,1,0,0,,2,,,62,127
6846,note_on,0,0,0,,10,,,69,127
7010,note_off,164,0,0,,10,,,69,127
7010,note_off,0,0,0,,2,,,62,127
7011,note_on,1,0,0,,4,,,52,127
7011,note_on,0,0,0,,10,,,69,127
7175,note_off,164,0,0,,10,,,69,127
7175,note_off,0,0,0,,4,,,52,127
7176,note_on,1,0,0,,12,,,59,127
7176,note_on,0,0,0,,12,,,71,127
7340,note_off,164,0,0,,12,,,71,127
7340,note_off,0,0,0,,12,,,59,127
7341,note_on,1,0,0,,4,,,64,127
7341,note_on,0,0,0,,0,,,72,127
7505,note_off,164,0,0,,4,,,64,127
7506,note_on,1,0,0,,5,,,53,127
7588,note_off,82,0,0,,0,,,72,127
7669,note_off,81,0,0,,5,,,53,127
7670,note_on,1,0,0,,10,,,57,127
7670,note_on,0,0,0,,2,,,74,127
7834,note_off,164,0,0,,2,,,74,127
7834,note_off,0,0,0,,10,,,57,127
7835,note_on,1,0,0,,2,,,62,127
7835,note_on,0,0,0,,10,,,69,127
7999,note_off,164,0,0,,10,,,69,127
7999,note_off,0,0,0,,2,,,62,127
8000,note_on,1,0,0,,4,,,52,127
8000,note_on,0,0,0,,4,,,76,127
8164,note_off,164,0,0,,4,,,76,127
8165,note_on,1,0,0,,12,,,71,127
8329,note_off,164,0,0,,12,,,71,127
8330,note_on,1,0,0,,8,,,68,127
8494,note_off,164,0,0,,8,,,68,127
8495,note_on,1,0,0,,4,,,64,127
8659,note_off,164,0,0,,4,,,64,127
8660,note_on,1,0,0,,12,,,59,127
8824,note_off,164,0,0,,12,,,59,127
8825,note_on,1,0,0,,8,,,56,127
8989,note_off,164,0,0,,8,,,56,127
8989,note_off,0,0,0,,4,,,52,127
8990,note_on,1,0,0,,4,,,52,127
9154,note_off,164,0,0,,4,,,52,127
9155,note_on,1,0,0,,12,,,47,127
9319,note_off,164,0,0,,12,,,47,127
9320,note_on,1,0,0,,8,,,44,127
9484,note_off,164,0,0,,8,,,44,127
9485,note_on,1,0,0,,4,,,40,127
10142,note_off,657,0,0,,4,,,40,127
10307,note_on,165,0,0,,4,,,76,127
10471,note_off,164,0,0,,4,,,76,127
10472,note_on,1,0,0,,2,,,74,127
10636,note_off,164,0,0,,2,,,74,127
10637,note_on,1,0,0,,2,,,74,127
10637,note_on,0,0,0,,10,,,57,127
10637,note_on,0,0,0,,0,,,60,127
10718,note_off,81,0,0,,2,,,74,127
10719,note_on,1,0,0,,0,,,72,127
10800,note_off,81,0,0,,0,,,72,127
10801,note_on,1,0,0,,10,,,69,127
10965,note_off,164,0,0,,10,,,69,127
10966,note_on,1,0,0,,4,,,76,127
11130,note_off,164,0,0,,4,,,76,127
11130,note_off,0,0,0,,0,,,60,127
11130,note_off,0,0,0,,10,,,57,127
11131,note_on,1,0,0,,4,,,76,127
11131,note_on,0,0,0,,2,,,62,127
11131,note_on,0,0,0,,12,,,59,127
11212,note_off,81,0,0,,4,,,76,127
11213,note_on,1,0,0,,2,,,74,127
11294,note_off,81,0,0,,2,,,74,127
11295,note_on,1,0,0,,12,,,71,127
11459,note_off,164,0,0,,12,,,71,127
11460,note_on,1,0,0,,5,,,77,127
11624,note_off,164,0,0,,5,,,77,127
11624,note_off,0,0,0,,12,,,59,127
11624,note_off,0,0,0,,2,,,62,127
11625,note_on,1,0,0,,5,,,77,127
11625,note_on,0,0,0,,4,,,64,127
11625,note_on,0,0,0,,0,,,60,127
11706,note_off,81,0,0,,5,,,77,127
11707,note_on,1,0,0,,4,,,76,127
11788,note_off,81,0,0,,4,,,76,127
11789,note_on,1,0,0,,0,,,72,127
11953,note_off,164,0,0,,0,,,72,127
11954,note_on,1,0,0,,7,,,79,127
12118,note_off,164,0,0,,7,,,79,127
12118,note_off,0,0,0,,0,,,60,127
12118,note_off,0,0,0,,4,,,64,127
12119,note_on,1,0,0,,10,,,81,127
12119,note_on,0,0,0,,5,,,53,127
12283,note_off,164,0,0,,5,,,53,127
12283,note_off,0,0,0,,10,,,81,127
12284,note_on,1,0,0,,5,,,77,127
12284,note_on,0,0,0,,0,,,60,127
12448,note_off,164,0,0,,0,,,60,127
12448,note_off,0,0,0,,5,,,77,127
12449,note_on,1,0,0,,2,,,74,127
12449,note_on,0,0,0,,5,,,65,127
12613,note_off,164,0,0,,5,,,65,127
12613,note_off,0,0,0,,2,,,74,127
12614,note_on,1,0,0,,0,,,72,127
12614,note_on,0,0,0,,7,,,55,127
12778,note_off,164,0,0,,7,,,55,127
12779,note_on,1,0,0,,2,,,62,127
12943,note_off,164,0,0,,2,,,62,127
12943,note_off,0,0,0,,0,,,72,127
12944,note_on,1,0,0,,12,,,71,127
12944,note_on,0,0,0,,7,,,67,127
13108,note_off,164,0,0,,7,,,67,127
13108,note_off,0,0,0,,12,,,71,127
13109,note_on,1,0,0,,0,,,72,127
13109,note_on,0,0,0,,10,,,69,127
13273,note_off,164,0,0,,10,,,69,127
13274,note_on,1,0,0,,5,,,65,127
13438,note_off,164,0,0,,5,,,65,127
13439,note_on,1,0,0,,2,,,62,127
13603,note_off,164,0,0,,2,,,62,127
13603,note_off,0,0,0,,0,,,72,127
13604,note_on,1,0,0,,2,,,74,127
13604,note_on,0,0,0,,12,,,59,127
13768,note_off,164,0,0,,12,,,59,127
13768,note_off,0,0,0,,2,,,74,127
13769,note_on,1,0,0,,4,,,76,127
13769,note_on,0,0,0,,10,,,57,127
13933,note_off,164,0,0,,10,,,57,127
13933,note_off,0,0,0,,4,,,76,127
13934,note_on,1,0,0,,5,,,77,127
13934,note_on,0,0,0,,7,,,55,127
14098,note_off,164,0,0,,7,,,55,127
14098,note_off,0,0,0,,5,,,77,127
14099,note_on,1,0,0,,5,,,77,127
14099,note_on,0,0,0,,0,,,60,127
14180,note_off,81,0,0,,5,,,77,127
14181,note_on,1,0,0,,4,,,76,127
14262,note_off,81,0,0,,4,,,76,127
14262,note_off,0,0,0,,0,,,60,127
14263,note_on,1,0,0,,2,,,74,127
14263,note_on,0,0,0,,12,,,59,127
14427,note_off,164,0,0,,12,,,59,127
14427,note_off,0,0,0,,2,,,74,127
14428,note_on,1,0,0,,0,,,72,127
14428,note_on,0,0,0,,10,,,57,127
14572,note_off,144,0,0,,0,,,72,127
14592,note_off,20,0,0,,10,,,57,127
14593,note_on,1,0,0,,7,,,79,127
14593,note_on,0,0,0,,7,,,67,127
14758,note_on,165,0,0,,7,,,55,127
14922,note_off,164,0,0,,7,,,55,127
14923,note_on,1,0,0,,10,,,57,127
15087,note_off,164,0,0,,10,,,57,127
15087,note_off,0,0,0,,7,,,67,127
15087,note_off,0,0,0,,7,,,79,127
15088,note_on,1,0,0,,7,,,79,127
15088,note_on,0,0,0,,7,,,67,127
15088,note_on,0,0,0,,11,,,58,127
15252,note_off,164,0,0,,11,,,58,127
15253,note_on,1,0,0,,10,,,57,127
15417,note_off,164,0,0,,10,,,57,127
15418,note_on,1,0,0,,7,,,55,127
15582,note_off,164,0,0,,7,,,55,127
15583,note_on,1,0,0,,10,,,57,127
15747,note_off,164,0,0,,10,,,57,127
15748,note_on,1,0,0,,4,,,64,127
15912,note_off,164,0,0,,4,,,64,127
15912,note_off,0,0,0,,7,,,67,127
15912,note_off,0,0,0,,7,,,79,127
15913,note_on,1,0,0,,10,,,81,127
15913,note_on,0,0,0,,10,,,69,127
16077,note_off,164,0,0,,10,,,69,127
16077,note_off,0,0,0,,10,,,81,127
16078,note_on,1,0,0,,11,,,82,127
16078,note_on,0,0,0,,7,,,55,127
16242,note_off,164,0,0,,7,,,55,127
16242,note_off,0,0,0,,11,,,82,127
16243,note_on,1,0,0,,7,,,79,127
16243,note_on,0,0,0,,2,,,62,127
16407,note_off,164,0,0,,2,,,62,127
16407,note_off,0,0,0,,7,,,79,127
16408,note_on,1,0,0,,4,,,76,127
16408,note_on,0,0,0,,7,,,67,127
16572,note_off,164,0,0,,7,,,67,127
16572,note_off,0,0,0,,4,,,76,127
16573,note_on,1,0,0,,2,,,74,127
16573,note_on,0,0,0,,10,,,57,127
16737,note_off,164,0,0,,10,,,57,127
16738,note_on,1,0,0,,4,,,64,127
16902,note_off,164,0,0,,4,,,64,127
16902,note_off,0,0,0,,2,,,74,127
16903,note_on,1,0,0,,1,,,73,127
16903,note_on,0,0,0,,10,,,69,127
17067,note_off,164,0,0,,10,,,69,127
17067,note_off,0,0,0,,1,,,73,127
17068,note_on,1,0,0,,2,,,74,127
17068,note_on,0,0,0,,11,,,70,127
17232,note_off,164,0,0,,11,,,70,127
17233,note_on,1,0,0,,7,,,67,127
17397,note_off,164,0,0,,7,,,67,127
17398,note_on,1,0,0,,4,,,64,127
17562,note_off,164,0,0,,4,,,64,127
17562,note_off,0,0,0,,2,,,74,127
17563,note_on,1,0,0,,4,,,76,127
17563,note_on,0,0,0,,1,,,61,127
17727,note_off,164,0,0,,1,,,61,127
17727,note_off,0,0,0,,4,,,76,127
17728,note_on,1,0,0,,5,,,77,127
17728,note_on,0,0,0,,12,,,59,127
17892,note_off,164,0,0,,12,,,59,127
17892,note_off,0,0,0,,5,,,77,127
17893,note_on,1,0,0,,7,,,79,127
17893,note_on,0,0,0,,10,,,57,127
18057,note_off,164,0,0,,10,,,57,127
18057,note_off,0,0,0,,7,,,79,127
18058,note_on,1,0,0,,7,,,79,127
18058,note_on,0,0,0,,2,,,62,127
18139,note_off,81,0,0,,7,,,79,127
18140,note_on,1,0,0,,5,,,77,127
18221,note_off,81,0,0,,5,,,77,127
18221,note_off,0,0,0,,2,,,62,127
18222,note_on,1,0,0,,4,,,76,127
18222,note_on,0,0,0,,0,,,60,127
18386,note_off,164,0,0,,0,,,60,127
18386,note_off,0,0,0,,4,,,76,127
18387,note_on,1,0,0,,2,,,74,127
18387,note_on,0,0,0,,11,,,58,127
18551,note_off,164,0,0,,11,,,58,127
18551,note_off,0,0,0,,2,,,74,127
18552,note_on,1,0,0,,10,,,81,127
18552,note_on,0,0,0,,10,,,69,127
18717,note_on,165,0,0,,10,,,57,127
18881,note_off,164,0,0,,10,,,57,127
18882,note_on,1,0,0,,12,,,59,127
19046,note_off,164,0,0,,12,,,59,127
19046,note_off,0,0,0,,10,,,69,127
19046,note_off,0,0,0,,10,,,81,127
19047,note_on,1,0,0,,10,,,81,127
19047,note_on,0,0,0,,10,,,69,127
19047,note_on,0,0,0,,0,,,60,127
19211,note_off,164,0,0,,0,,,60,127
19212,note_on,1,0,0,,12,,,59,127
19376,note_off,164,0,0,,12,,,59,127
19377,note_on,1,0,0,,10,,,57,127
19541,note_off,164,0,0,,10,,,57,127
19542,note_on,1,0,0,,12,,,59,127
19706,note_off,164,0,0,,12,,,59,127
19707,note_on,1,0,0,,6,,,66,127
19871,note_off,164,0,0,,6,,,66,127
19871,note_off,0,0,0,,10,,,69,127
19871,note_off,0,0,0,,10,,,81,127
19872,note_on,1,0,0,,12,,,83,127
19872,note_on,0,0,0,,12,,,71,127
20036,note_off,164,0,0,,12,,,71,127
20036,note_off,0,0,0,,12,,,83,127
20037,note_on,1,0,0,,0,,,84,127
20037,note_on,0,0,0,,10,,,57,127
20201,note_off,164,0,0,,10,,,57,127
20201,note_off,0,0,0,,0,,,84,127
20202,note_on,1,0,0,,10,,,81,127
20202,note_on,0,0,0,,4,,,64,127
20366,note_off,164,0,0,,4,,,64,127
20366,note_off,0,0,0,,10,,,81,127
20367,note_on,1,0,0,,6,,,78,127
20367,note_on,0,0,0,,10,,,69,127
20531,note_off,164,0,0,,10,,,69,127
20531,note_off,0,0,0,,6,,,78,127
20532,note_on,1,0,0,,4,,,76,127
20532,note_on,0,0,0,,12,,,59,127
20696,note_off,164,0,0,,12,,,59,127
20697,note_on,1,0,0,,6,,,66,127
20861,note_off,164,0,0,,6,,,66,127
20861,note_off,0,0,0,,4,,,76,127
20862,note_on,1,0,0,,3,,,75,127
20862,note_on,0,0,0,,12,,,71,127
21026,note_off,164,0,0,,12,,,71,127
21026,note_off,0,0,0,,3,,,75,127
21027,note_on,1,0,0,,4,,,76,127
21027,note_on,0,0,0,,0,,,72,127
21191,note_off,164,0,0,,0,,,72,127
21192,note_on,1,0,0,,10,,,69,127
21356,note_off,164,0,0,,10,,,69,127
21357,note_on,1,0,0,,6,,,66,127
21521,note_off,164,0,0,,6,,,66,127
21521,note_off,0,0,0,,4,,,76,127
21522,note_on,1,0,0,,6,,,78,127
21522,note_on,0,0,0,,3,,,63,127
21686,note_off,164,0,0,,3,,,63,127
21686,note_off,0,0,0,,6,,,78,127
21687,note_on,1,0,0,,7,,,79,127
21687,note_on,0,0,0,,1,,,61,127
21851,note_off,164,0,0,,1,,,61,127
21851,note_off,0,0,0,,7,,,79,127
21852,note_on,1,0,0,,10,,,81,127
21852,note_on,0,0,0,,12,,,59,127
22016,note_off,164,0,0,,12,,,59,127
22016,note_off,0,0,0,,10,,,81,127
22017,note_on,1,0,0,,10,,,81,127
22017,note_on,0,0,0,,4,,,64,127
22098,note_off,81,0,0,,10,,,81,127
22099,note_on,1,0,0,,7,,,79,127
22180,note_off,81,0,0,,7,,,79,127
22180,note_off,0,0,0,,4,,,64,127
22181,note_on,1,0,0,,6,,,78,127
22181,note_on,0,0,0,,2,,,62,127
22345,note_off,164,0,0,,2,,,62,127
22345,note_off,0,0,0,,6,,,78,127
22346,note_on,1,0,0,,4,,,76,127
22346,note_on,0,0,0,,0,,,60,127
22510,note_off,164,0,0,,0,,,60,127
22510,note_off,0,0,0,,4,,,76,127
22511,note_on,1,0,0,,12,,,83,127
22511,note_on,0,0,0,,12,,,59,127
22675,note_off,164,0,0,,12,,,59,127
22676,note_on,1,0,0,,12,,,71,127
22840,note_off,164,0,0,,12,,,71,127
22841,note_on,1,0,0,,10,,,69,127
23005,note_off,164,0,0,,10,,,69,127
23006,note_on,1,0,0,,7,,,67,127
23170,note_off,164,0,0,,7,,,67,127
23170,note_off,0,0,0,,12,,,83,127
23171,note_on,1,0,0,,12,,,83,127
23171,note_on,0,0,0,,12,,,71,127
23335,note_off,164,0,0,,12,,,71,127
23335,note_off,0,0,0,,12,,,83,127
23336,note_on,1,0,0,,10,,,81,127
23336,note_on,0,0,0,,6,,,66,127
23500,note_off,164,0,0,,6,,,66,127
23500,note_off,0,0,0,,10,,,81,127
23501,note_on,1,0,0,,10,,,81,127
23501,note_on,0,0,0,,4,,,64,127
23665,note_off,164,0,0,,4,,,64,127
23665,note_off,0,0,0,,10,,,81,127
23666,note_on,1,0,0,,7,,,79,127
23666,note_on,0,0,0,,12,,,71,127
23830,note_off,164,0,0,,12,,,71,127
23830,note_off,0,0,0,,7,,,79,127
23831,note_on,1,0,0,,6,,,78,127
23831,note_on,0,0,0,,2,,,62,127
23995,note_off,164,0,0,,2,,,62,127
23995,note_off,0,0,0,,6,,,78,127
23996,note_on,1,0,0,,6,,,78,127
23996,note_on,0,0,0,,0,,,60,127
24160,note_off,164,0,0,,0,,,60,127
24160,note_off,0,0,0,,6,,,78,127
24161,note_on,1,0,0,,4,,,76,127
24161,note_on,0,0,0,,10,,,69,127
24325,note_off,164,0,0,,10,,,69,127
24325,note_off,0,0,0,,4,,,76,127
24326,note_on,1,0,0,,2,,,74,127
24326,note_on,0,0,0,,12,,,59,127
24490,note_off,164,0,0,,12,,,59,127
24490,note_off,0,0,0,,2,,,74,127
24491,note_on,1,0,0,,4,,,76,127
24491,note_on,0,0,0,,0,,,72,127
24491,note_on,0,0,0,,10,,,57,127
24655,note_off,164,0,0,,0,,,72,127
24656,note_on,1,0,0,,12,,,71,127
24820,note_off,164,0,0,,12,,,71,127
24821,note_on,1,0,0,,10,,,69,127
24985,note_off,164,0,0,,10,,,69,127
24985,note_off,0,0,0,,10,,,57,127
24986,note_on,1,0,0,,7,,,67,127
24986,note_on,0,0,0,,12,,,59,127
25150,note_off,164,0,0,,7,,,67,127
25151,note_on,1,0,0,,10,,,69,127
25314,note_off,163,0,0,,4,,,76,127
25315,note_off,1,0,0,,10,,,69,127
25316,note_on,1,0,0,,3,,,75,127
25316,note_on,0,0,0,,6,,,66,127
25480,note_off,164,0,0,,6,,,66,127
25480,note_off,0,0,0,,3,,,75,127
25480,note_off,0,0,0,,12,,,59,127
25481,note_on,1,0,0,,4,,,76,127
25481,note_on,0,0,0,,4,,,64,127
25645,note_off,164,0,0,,4,,,64,127
25646,note_on,1,0,0,,4,,,52,127
25810,note_off,164,0,0,,4,,,52,127
25810,note_off,0,0,0,,4,,,76,127
25811,note_on,1,0,0,,12,,,71,127
25811,note_on,0,0,0,,2,,,62,127
25975,note_off,164,0,0,,2,,,62,127
25975,note_off,0,0,0,,12,,,71,127
25976,note_on,1,0,0,,4,,,76,127
25976,note_on,0,0,0,,0,,,60,127
26140,note_off,164,0,0,,0,,,60,127
26141,note_on,1,0,0,,0,,,48,127
26305,note_off,164,0,0,,0,,,48,127
26305,note_off,0,0,0,,4,,,76,127
26306,note_on,1,0,0,,2,,,74,127
26306,note_on,0,0,0,,12,,,59,127
26470,note_off,164,0,0,,12,,,59,127
26470,note_off,0,0,0,,2,,,74,127
26471,note_on,1,0,0,,0,,,72,127
26471,note_on,0,0,0,,10,,,69,127
26635,note_off,164,0,0,,10,,,69,127
26636,note_on,1,0,0,,10,,,57,127
26800,note_off,164,0,0,,10,,,57,127
26800,note_off,0,0,0,,0,,,72,127
26801,note_on,1,0,0,,4,,,76,127
26801,note_on,0,0,0,,7,,,67,127
26965,note_off,164,0,0,,7,,,67,127
26965,note_off,0,0,0,,4,,,76,127
26966,note_on,1,0,0,,10,,,81,127
26966,note_on,0,0,0,,6,,,66,127
27130,note_off,164,0,0,,6,,,66,127
27131,note_on,1,0,0,,6,,,54,127
27295,note_off,164,0,0,,6,,,54,127
27295,note_off,0,0,0,,10,,,81,127
27296,note_on,1,0,0,,7,,,79,127
27296,note_on,0,0,0,,4,,,64,127
27460,note_off,164,0,0,,4,,,64,127
27460,note_off,0,0,0,,7,,,79,127
27461,note_on,1,0,0,,6,,,78,127
27461,note_on,0,0,0,,12,,,71,127
27625,note_off,164,0,0,,12,,,71,127
27626,note_on,1,0,0,,12,,,59,127
27790,note_off,164,0,0,,12,,,59,127
27790,note_off,0,0,0,,6,,,78,127
27791,note_on,1,0,0,,3,,,75,127
27791,note_on,0,0,0,,10,,,69,127
27955,note_off,164,0,0,,10,,,69,127
27955,note_off,0,0,0,,3,,,75,127
27956,note_on,1,0,0,,12,,,83,127
27956,note_on,0,0,0,,7,,,67,127
28120,note_off,164,0,0,,7,,,67,127
28121,note_on,1,0,0,,7,,,55,127
28285,note_off,164,0,0,,7,,,55,127
28285,note_off,0,0,0,,12,,,83,127
28286,note_on,1,0,0,,10,,,81,127
28286,note_on,0,0,0,,6,,,66,127
28450,note_off,164,0,0,,6,,,66,127
28450,note_off,0,0,0,,10,,,81,127
28451,note_on,1,0,0,,7,,,79,127
28451,note_on,0,0,0,,4,,,76,127
28451,note_on,0,0,0,,4,,,64,127
28615,note_off,164,0,0,,4,,,76,127
28615,note_off,0,0,0,,7,,,79,127
28616,note_on,1,0,0,,3,,,75,127
28616,note_on,0,0,0,,6,,,78,127
28780,note_off,164,0,0,,6,,,78,127
28780,note_off,0,0,0,,3,,,75,127
28780,note_off,0,0,0,,4,,,64,127
28781,note_on,1,0,0,,7,,,79,127
28781,note_on,0,0,0,,4,,,76,127
28781,note_on,0,0,0,,0,,,60,127
28945,note_off,164,0,0,,0,,,60,127
28945,note_off,0,0,0,,4,,,76,127
28945,note_off,0,0,0,,7,,,79,127
28946,note_on,1,0,0,,10,,,81,127
28946,note_on,0,0,0,,6,,,78,127
28946,note_on,0,0,0,,10,,,57,127
29110,note_off,164,0,0,,6,,,78,127
29110,note_off,0,0,0,,10,,,81,127
29111,note_on,1,0,0,,4,,,76,127
29111,note_on,0,0,0,,7,,,79,127
29275,note_off,164,0,0,,7,,,79,127
29275,note_off,0,0,0,,4,,,76,127
29275,note_off,0,0,0,,10,,,57,127
29276,note_on,1,0,0,,3,,,75,127
29276,note_on,0,0,0,,6,,,78,127
29276,note_on,0,0,0,,12,,,59,127
29440,note_off,164,0,0,,12,,,59,127
29440,note_off,0,0,0,,6,,,78,127
29440,note_off,0,0,0,,3,,,75,127
29441,note_on,1,0,0,,4,,,76,127
29441,note_on,0,0,0,,4,,,64,127
29605,note_off,164,0,0,,4,,,64,127
29606,note_on,1,0,0,,4,,,52,127
29770,note_off,164,0,0,,4,,,52,127
29770,note_off,0,0,0,,4,,,76,127
29771,note_on,1,0,0,,12,,,71,127
29771,note_on,0,0,0,,2,,,62,127
29935,note_off,164,0,0,,2,,,62,127
29935,note_off,0,0,0,,12,,,71,127
29936,note_on,1,0,0,,4,,,76,127
29936,note_on,0,0,0,,0,,,60,127
30099,note_off,163,0,0,,4,,,76,127
30101,note_on,2,0,0,,0,,,48,127
30101,note_on,0,0,0,,4,,,76,127
30262,note_off,161,0,0,,0,,,60,127
30264,note_off,2,0,0,,4,,,76,127
30265,note_off,1,0,0,,0,,,48,127
30266,note_on,1,0,0,,2,,,74,127
30266,note_on,0,0,0,,12,,,59,127
30430,note_off,164,0,0,,12,,,59,127
30430,note_off,0,0,0,,2,,,74,127
30431,note_on,1,0,0,,0,,,72,127
30431,note_on,0,0,0,,10,,,69,127
30594,note_off,163,0,0,,0,,,72,127
30596,note_on,2,0,0,,10,,,57,127
30596,note_on,0,0,0,,0,,,72,127
30757,note_off,161,0,0,,10,,,69,127
30759,note_off,2,0,0,,0,,,72,127
30760,note_off,1,0,0,,10,,,57,127
30761,note_on,1,0,0,,4,,,76,127
30761,note_on,0,0,0,,7,,,67,127
30925,note_off,164,0,0,,7,,,67,127
30925,note_off,0,0,0,,4,,,76,127
30926,note_on,1,0,0,,10,,,81,127
30926,note_on,0,0,0,,6,,,66,127
31089,note_off,163,0,0,,10,,,81,127
31091,note_on,2,0,0,,6,,,54,127
31091,note_on,0,0,0,,10,,,81,127
31252,note_off,161,0,0,,6,,,66,127
31254,note_off,2,0,0,,10,,,81,127
31255,note_off,1,0,0,,6,,,54,127
31256,note_on,1,0,0,,7,,,79,127
31256,note_on,0,0,0,,4,,,64,127
31420,note_off,164,0,0,,4,,,64,127
31420,note_off,0,0,0,,7,,,79,127
31421,note_on,1,0,0,,6,,,78,127
31421,note_on,0,0,0,,12,,,71,127
31584,note_off,163,0,0,,6,,,78,127
31586,note_on,2,0,0,,12,,,59,127
31586,note_on,0,0,0,,6,,,78,127
31747,note_off,161,0,0,,12,,,71,127
31749,note_off,2,0,0,,6,,,78,127
31750,note_off,1,0,0,,12,,,59,127
31751,note_on,1,0,0,,3,,,75,127
31751,note_on,0,0,0,,10,,,69,127
31915,note_off,164,0,0,,10,,,69,127
31915,note_off,0,0,0,,3,,,75,127
31916,note_on,1,0,0,,12,,,83,127
31916,note_on,0,0,0,,7,,,67,127
32079,note_off,163,0,0,,12,,,83,127
32081,note_on,2,0,0,,7,,,55,127
32081,note_on,0,0,0,,12,,,83,127
32242,note_off,161,0,0,,7,,,67,127
32244,note_off,2,0,0,,12,,,83,127
32245,note_off,1,0,0,,7,,,55,127
32246,note_on,1,0,0,,10,,,81,127
32246,note_on,0,0,0,,6,,,66,127
32410,note_off,164,0,0,,6,,,66,127
32410,note_off,0,0,0,,10,,,81,127
32411,note_on,1,0,0,,4,,,76,127
32411,note_on,0,0,0,,7,,,79,127
32411,note_on,0,0,0,,4,,,64,127
32575,note_off,164,0,0,,7,,,79,127
32575,note_off,0,0,0,,4,,,76,127
32576,note_on,1,0,0,,3,,,75,127
32576,note_on,0,0,0,,6,,,78,127
32740,note_off,164,0,0,,6,,,78,127
32740,note_off,0,0,0,,3,,,75,127
32740,note_off,0,0,0,,4,,,64,127
32741,note_on,1,0,0,,7,,,79,127
32741,note_on,0,0,0,,4,,,76,127
32741,note_on,0,0,0,,0,,,60,127
32905,note_off,164,0,0,,0,,,60,127
32905,note_off,0,0,0,,4,,,76,127
32905,note_off,0,0,0,,7,,,79,127
32906,note_on,1,0,0,,10,,,81,127
32906,note_on,0,0,0,,6,,,78,127
32906,note_on,0,0,0,,10,,,57,127
33070,note_off,164,0,0,,6,,,78,127
33070,note_off,0,0,0,,10,,,81,127
33071,note_on,1,0,0,,7,,,79,127
33071,note_on,0,0,0,,4,,,76,127
33235,note_off,164,0,0,,4,,,76,127
33235,note_off,0,0,0,,7,,,79,127
33235,note_off,0,0,0,,10,,,57,127
33236,note_on,1,0,0,,3,,,75,127
33236,note_on,0,0,0,,6,,,78,127
33236,note_on,0,0,0,,12,,,59,127
33400,note_off,164,0,0,,12,,,59,127
33400,note_off,0,0,0,,6,,,78,127
33400,note_off,0,0,0,,3,,,75,127
33401,note_on,1,0,0,,4,,,76,127
33401,note_on,0,0,0,,4,,,52,127
33565,note_off,164,0,0,,4,,,52,127
33565,note_off,0,0,0,,4,,,76,127
33566,note_on,1,0,0,,12,,,71,127
33566,note_on,0,0,0,,12,,,59,127
33730,note_off,164,0,0,,12,,,59,127
33730,note_off,0,0,0,,12,,,71,127
33731,note_on,1,0,0,,7,,,79,127
33731,note_on,0,0,0,,4,,,64,127
33895,note_off,164,0,0,,4,,,64,127
33896,note_on,1,0,0,,12,,,47,127
34060,note_off,164,0,0,,12,,,47,127
34060,note_off,0,0,0,,7,,,79,127
34061,note_on,1,0,0,,6,,,78,127
34061,note_on,0,0,0,,6,,,54,127
34225,note_off,164,0,0,,6,,,54,127
34225,note_off,0,0,0,,6,,,78,127
34226,note_on,1,0,0,,3,,,75,127
34226,note_on,0,0,0,,12,,,59,127
34390,note_off,164,0,0,,12,,,59,127
34390,note_off,0,0,0,,3,,,75,127
34391,note_on,1,0,0,,4,,,76,127
34391,note_on,0,0,0,,10,,,45,127
34555,note_off,164,0,0,,10,,,45,127
34555,note_off,0,0,0,,4,,,76,127
34556,note_on,1,0,0,,4,,,64,127
34556,note_on,0,0,0,,4,,,52,127
34720,note_off,164,0,0,,4,,,52,127
34720,note_off,0,0,0,,4,,,64,127
34721,note_on,1,0,0,,0,,,72,127
34721,note_on,0,0,0,,10,,,57,127
34885,note_off,164,0,0,,10,,,57,127
34886,note_on,1,0,0,,12,,,47,127
35050,note_off,164,0,0,,12,,,47,127
35050,note_off,0,0,0,,0,,,72,127
35051,note_on,1,0,0,,12,,,71,127
35051,note_on,0,0,0,,6,,,54,127
35215,note_off,164,0,0,,6,,,54,127
35215,note_off,0,0,0,,12,,,71,127
35216,note_on,1,0,0,,3,,,63,127
35216,note_on,0,0,0,,6,,,66,127
35216,note_on,0,0,0,,12,,,59,127
35380,note_off,164,0,0,,12,,,59,127
35380,note_off,0,0,0,,6,,,66,127
35380,note_off,0,0,0,,3,,,63,127
35381,note_on,1,0,0,,7,,,67,127
35381,note_on,0,0,0,,4,,,52,127
35545,note_off,164,0,0,,4,,,52,127
35545,note_off,0,0,0,,7,,,67,127
35546,note_on,1,0,0,,4,,,64,127
35546,note_on,0,0,0,,12,,,59,127
35710,note_off,164,0,0,,12,,,59,127
35710,note_off,0,0,0,,4,,,64,127
35711,note_on,1,0,0,,7,,,79,127
35711,note_on,0,0,0,,4,,,64,127
35875,note_off,164,0,0,,4,,,64,127
35876,note_on,1,0,0,,12,,,47,127
36040,note_off,164,0,0,,12,,,47,127
36040,note_off,0,0,0,,7,,,79,127
36041,note_on,1,0,0,,6,,,78,127
36041,note_on,0,0,0,,6,,,54,127
36205,note_off,164,0,0,,6,,,54,127
36205,note_off,0,0,0,,6,,,78,127
36206,note_on,1,0,0,,3,,,75,127
36206,note_on,0,0,0,,12,,,59,127
36370,note_off,164,0,0,,12,,,59,127
36370,note_off,0,0,0,,3,,,75,127
36371,note_on,1,0,0,,4,,,76,127
36371,note_on,0,0,0,,10,,,45,127
36535,note_off,164,0,0,,10,,,45,127
36535,note_off,0,0,0,,4,,,76,127
36536,note_on,1,0,0,,4,,,64,127
36536,note_on,0,0,0,,4,,,52,127
36700,note_off,164,0,0,,4,,,52,127
36700,note_off,0,0,0,,4,,,64,127
36701,note_on,1,0,0,,0,,,72,127
36701,note_on,0,0,0,,10,,,57,127
36865,note_off,164,0,0,,10,,,57,127
36866,note_on,1,0,0,,12,,,47,127
37030,note_off,164,0,0,,12,,,47,127
37030,note_off,0,0,0,,0,,,72,127
37031,note_on,1,0,0,,12,,,71,127
37031,note_on,0,0,0,,6,,,54,127
37195,note_off,164,0,0,,6,,,54,127
37195,note_off,0,0,0,,12,,,71,127
37196,note_on,1,0,0,,3,,,63,127
37196,note_on,0,0,0,,6,,,66,127
37196,note_on,0,0,0,,12,,,59,127
37360,note_off,164,0,0,,12,,,59,127
37360,note_off,0,0,0,,6,,,66,127
37360,note_off,0,0,0,,3,,,63,127
37361,note_on,1,0,0,,0,,,72,127
37361,note_on,0,0,0,,10,,,45,127
37525,note_off,164,0,0,,10,,,45,127
37526,note_on,1,0,0,,10,,,57,127
37690,note_off,164,0,0,,10,,,57,127
37691,note_on,1,0,0,,0,,,60,127
37855,note_off,164,0,0,,0,,,60,127
37855,note_off,0,0,0,,0,,,72,127
37856,note_on,1,0,0,,10,,,69,127
37856,note_on,0,0,0,,6,,,42,127
38020,note_off,164,0,0,,6,,,42,127
38021,note_on,1,0,0,,6,,,54,127
38185,note_off,164,0,0,,6,,,54,127
38186,note_on,1,0,0,,10,,,57,127
38350,note_off,164,0,0,,10,,,57,127
38350,note_off,0,0,0,,10,,,69,127
38351,note_on,1,0,0,,6,,,66,127
38351,note_on,0,0,0,,3,,,39,127
38515,note_off,164,0,0,,3,,,39,127
38516,note_on,1,0,0,,3,,,51,127
38680,note_off,164,0,0,,3,,,51,127
38681,note_on,1,0,0,,6,,,54,127
38845,note_off,164,0,0,,6,,,54,127
38845,note_off,0,0,0,,6,,,66,127
38846,note_on,1,0,0,,3,,,63,127
38846,note_on,0,0,0,,12,,,35,127
39010,note_off,164,0,0,,12,,,35,127
39011,note_on,1,0,0,,12,,,47,127
39175,note_off,164,0,0,,12,,,47,127
39175,note_off,0,0,0,,3,,,63,127
39176,note_on,1,0,0,,12,,,71,127
39176,note_on,0,0,0,,3,,,51,127
39340,note_off,164,0,0,,3,,,51,127
39340,note_off,0,0,0,,12,,,71,127
39341,note_on,1,0,0,,7,,,67,127
39341,note_on,0,0,0,,4,,,64,127
39341,note_on,0,0,0,,4,,,52,127
39505,note_off,164,0,0,,4,,,64,127
39505,note_off,0,0,0,,7,,,67,127
39506,note_on,1,0,0,,3,,,63,127
39506,note_on,0,0,0,,6,,,66,127
39670,note_off,164,0,0,,6,,,66,127
39670,note_off,0,0,0,,3,,,63,127
39670,note_off,0,0,0,,4,,,52,127
39671,note_on,1,0,0,,7,,,67,127
39671,note_on,0,0,0,,4,,,64,127
39671,note_on,0,0,0,,0,,,48,127
39835,note_off,164,0,0,,0,,,48,127
39835,note_off,0,0,0,,4,,,64,127
39835,note_off,0,0,0,,7,,,67,127
39836,note_on,1,0,0,,10,,,69,127
39836,note_on,0,0,0,,6,,,66,127
39836,note_on,0,0,0,,10,,,45,127
40000,note_off,164,0,0,,6,,,66,127
40000,note_off,0,0,0,,10,,,69,127
40001,note_on,1,0,0,,7,,,67,127
40001,note_on,0,0,0,,4,,,64,127
40165,note_off,164,0,0,,4,,,64,127
40165,note_off,0,0,0,,7,,,67,127
40165,note_off,0,0,0,,10,,,45,127
40166,note_on,1,0,0,,3,,,63,127
40166,note_on,0,0,0,,6,,,66,127
40166,note_on,0,0,0,,12,,,47,127
40330,note_off,164,0,0,,12,,,47,127
40330,note_off,0,0,0,,6,,,66,127
40330,note_off,0,0,0,,3,,,63,127
40331,note_on,1,0,0,,4,,,64,127
40331,note_on,0,0,0,,4,,,40,127
40495,note_off,164,0,0,,4,,,40,127
40496,note_on,1,0,0,,4,,,52,127
40660,note_off,164,0,0,,4,,,52,127
40661,note_on,1,0,0,,6,,,54,127
40825,note_off,164,0,0,,6,,,54,127
40826,note_on,1,0,0,,7,,,55,127
40990,note_off,164,0,0,,7,,,55,127
40990,note_off,0,0,0,,4,,,64,127
40991,note_on,1,0,0,,12,,,59,127
41155,note_off,164,0,0,,12,,,59,127
41156,note_on,1,0,0,,12,,,71,127
41156,note_on,0,0,0,,4,,,52,127
41320,note_off,164,0,0,,4,,,52,127
41320,note_off,0,0,0,,12,,,71,127
41321,note_on,1,0,0,,0,,,72,127
41321,note_on,0,0,0,,10,,,45,127
41485,note_off,164,0,0,,10,,,45,127
41486,note_on,1,0,0,,10,,,57,127
41650,note_off,164,0,0,,10,,,57,127
41651,note_on,1,0,0,,0,,,60,127
41802,note_off,151,0,0,,0,,,72,127
41815,note_off,13,0,0,,0,,,60,127
41816,note_on,1,0,0,,10,,,69,127
41816,note_on,0,0,0,,6,,,42,127
41980,note_off,164,0,0,,6,,,42,127
41981,note_on,1,0,0,,6,,,54,127
42145,note_off,164,0,0,,6,,,54,127
42146,note_on,1,0,0,,10,,,57,127
42297,note_off,151,0,0,,10,,,69,127
42310,note_off,13,0,0,,10,,,57,127
42311,note_on,1,0,0,,6,,,66,127
42311,note_on,0,0,0,,3,,,39,127
42475,note_off,164,0,0,,3,,,39,127
42476,note_on,1,0,0,,3,,,51,127
42640,note_off,164,0,0,,3,,,51,127
42641,note_on,1,0,0,,6,,,54,127
42792,note_off,151,0,0,,6,,,66,127
42805,note_off,13,0,0,,6,,,54,127
42806,note_on,1,0,0,,3,,,63,127
42806,note_on,0,0,0,,12,,,35,127
42970,note_off,164,0,0,,12,,,35,127
42971,note_on,1,0,0,,12,,,47,127
43135,note_off,164,0,0,,12,,,47,127
43135,note_off,0,0,0,,3,,,63,127
43136,note_on,1,0,0,,12,,,71,127
43136,note_on,0,0,0,,3,,,51,127
43300,note_off,164,0,0,,3,,,51,127
43300,note_off,0,0,0,,12,,,71,127
43301,note_on,1,0,0,,7,,,67,127
43301,note_on,0,0,0,,4,,,64,127
43301,note_on,0,0,0,,4,,,52,127
43465,note_off,164,0,0,,4,,,64,127
43465,note_off,0,0,0,,7,,,67,127
43466,note_on,1,0,0,,3,,,63,127
43466,note_on,0,0,0,,6,,,66,127
43630,note_off,164,0,0,,6,,,66,127
43630,note_off,0,0,0,,3,,,63,127
43630,note_off,0,0,0,,4,,,52,127
43631,note_on,1,0,0,,7,,,67,127
43631,note_on,0,0,0,,4,,,64,127
43631,note_on,0,0,0,,0,,,48,127
43795,note_off,164,0,0,,0,,,48,127
43795,note_off,0,0,0,,4,,,64,127
43795,note_off,0,0,0,,7,,,67,127
43796,note_on,1,0,0,,6,,,66,127
43796,note_on,0,0,0,,10,,,69,127
43796,note_on,0,0,0,,10,,,45,127
43960,note_off,164,0,0,,10,,,69,127
43960,note_off,0,0,0,,6,,,66,127
43961,note_on,1,0,0,,4,,,64,127
43961,note_on,0,0,0,,7,,,67,127
44125,note_off,164,0,0,,7,,,67,127
44125,note_off,0,0,0,,4,,,64,127
44125,note_off,0,0,0,,10,,,45,127
44126,note_on,1,0,0,,3,,,63,127
44126,note_on,0,0,0,,6,,,66,127
44126,note_on,0,0,0,,12,,,47,127
44290,note_off,164,0,0,,12,,,47,127
44290,note_off,0,0,0,,6,,,66,127
44290,note_off,0,0,0,,3,,,63,127
44291,note_on,1,0,0,,4,,,64,127
44291,note_on,0,0,0,,4,,,40,127
44455,note_off,164,0,0,,4,,,40,127
44456,note_on,1,0,0,,12,,,47,127
44620,note_off,164,0,0,,12,,,47,127
44620,note_off,0,0,0,,4,,,64,127
44621,note_on,1,0,0,,7,,,79,127
44621,note_on,0,0,0,,4,,,52,127
44785,note_off,164,0,0,,4,,,52,127
44786,note_on,1,0,0,,12,,,47,127
44950,note_off,164,0,0,,12,,,47,127
44950,note_off,0,0,0,,7,,,79,127
44951,note_on,1,0,0,,6,,,78,127
44951,note_on,0,0,0,,6,,,54,127
45115,note_off,164,0,0,,6,,,54,127
45115,note_off,0,0,0,,6,,,78,127
45116,note_on,1,0,0,,3,,,75,127
45116,note_on,0,0,0,,12,,,59,127
45280,note_off,164,0,0,,12,,,59,127
45280,note_off,0,0,0,,3,,,75,127
45281,note_on,1,0,0,,4,,,76,127
45281,note_on,0,0,0,,10,,,45,127
45445,note_off,164,0,0,,10,,,45,127
45446,note_on,1,0,0,,4,,,64,127
45446,note_on,0,0,0,,4,,,52,127
45607,note_off,161,0,0,,4,,,76,127
45610,note_off,3,0,0,,4,,,52,127
45610,note_off,0,0,0,,4,,,64,127
45611,note_on,1,0,0,,0,,,72,127
45611,note_on,0,0,0,,10,,,57,127
45775,note_off,164,0,0,,10,,,57,127
45776,note_on,1,0,0,,12,,,47,127
45940,note_off,164,0,0,,12,,,47,127
45940,note_off,0,0,0,,0,,,72,127
45941,note_on,1,0,0,,12,,,71,127
45941,note_on,0,0,0,,6,,,54,127
46105,note_off,164,0,0,,6,,,54,127
46105,note_off,0,0,0,,12,,,71,127
46106,note_on,1,0,0,,6,,,66,127
46106,note_on,0,0,0,,3,,,63,127
46106,note_on,0,0,0,,12,,,59,127
46270,note_off,164,0,0,,12,,,59,127
46270,note_off,0,0,0,,3,,,63,127
46270,note_off,0,0,0,,6,,,66,127
46271,note_on,1,0,0,,7,,,67,127
46271,note_on,0,0,0,,4,,,52,127
46435,note_off,164,0,0,,4,,,52,127
46435,note_off,0,0,0,,7,,,67,127
46436,note_on,1,0,0,,4,,,64,127
46436,note_on,0,0,0,,12,,,59,127
46600,note_off,164,0,0,,12,,,59,127
46600,note_off,0,0,0,,4,,,64,127
46601,note_on,1,0,0,,7,,,79,127
46601,note_on,0,0,0,,4,,,64,127
46765,note_off,164,0,0,,4,,,64,127
46766,note_on,1,0,0,,12,,,47,127
46930,note_off,164,0,0,,12,,,47,127
46930,note_off,0,0,0,,7,,,79,127
46931,note_on,1,0,0,,6,,,78,127
46931,note_on,0,0,0,,6,,,54,127
47095,note_off,164,0,0,,6,,,54,127
47095,note_off,0,0,0,,6,,,78,127
47096,note_on,1,0,0,,3,,,75,127
47096,note_on,0,0,0,,12,,,59,127
47260,note_off,164,0,0,,12,,,59,127
47260,note_off,0,0,0,,3,,,75,127
47261,note_on,1,0,0,,4,,,76,127
47261,note_on,0,0,0,,10,,,45,127
47425,note_off,164,0,0,,10,,,45,127
47426,note_on,1,0,0,,4,,,64,127
47426,note_on,0,0,0,,4,,,52,127
47587,note_off,161,0,0,,4,,,76,127
47590,note_off,3,0,0,,4,,,52,127
47590,note_off,0,0,0,,4,,,64,127
47591,note_on,1,0,0,,0,,,72,127
47591,note_on,0,0,0,,10,,,57,127
47755,note_off,164,0,0,,10,,,57,127
47756,note_on,1,0,0,,12,,,47,127
47920,note_off,164,0,0,,12,,,47,127
47920,note_off,0,0,0,,0,,,72,127
47921,note_on,1,0,0,,12,,,71,127
47921,note_on,0,0,0,,6,,,54,127
48085,note_off,164,0,0,,6,,,54,127
48085,note_off,0,0,0,,12,,,71,127
48086,note_on,1,0,0,,3,,,63,127
48086,note_on,0,0,0,,6,,,66,127
48086,note_on,0,0,0,,12,,,59,127
48250,note_off,164,0,0,,12,,,59,127
48250,note_off,0,0,0,,6,,,66,127
48250,note_off,0,0,0,,3,,,63,127
48251,note_on,1,0,0,,7,,,67,127
48251,note_on,0,0,0,,4,,,64,127
48251,note_on,0,0,0,,0,,,60,127
48415,note_off,164,0,0,,4,,,64,127
48415,note_off,0,0,0,,7,,,67,127
48416,note_on,1,0,0,,6,,,66,127
48416,note_on,0,0,0,,3,,,63,127
48580,note_off,164,0,0,,3,,,63,127
48580,note_off,0,0,0,,6,,,66,127
48580,note_off,0,0,0,,0,,,60,127
48581,note_on,1,0,0,,4,,,64,127
48581,note_on,0,0,0,,7,,,67,127
48581,note_on,0,0,0,,12,,,59,127
48745,note_off,164,0,0,,12,,,59,127
48745,note_off,0,0,0,,7,,,67,127
48745,note_off,0,0,0,,4,,,64,127
48746,note_on,1,0,0,,10,,,69,127
48746,note_on,0,0,0,,6,,,66,127
48746,note_on,0,0,0,,10,,,57,127
48910,note_off,164,0,0,,6,,,66,127
48910,note_off,0,0,0,,10,,,69,127
48911,note_on,1,0,0,,7,,,67,127
48911,note_on,0,0,0,,4,,,64,127
49075,note_off,164,0,0,,4,,,64,127
49075,note_off,0,0,0,,7,,,67,127
49075,note_off,0,0,0,,10,,,57,127
49076,note_on,1,0,0,,6,,,66,127
49076,note_on,0,0,0,,3,,,63,127
49076,note_on,0,0,0,,12,,,59,127
49240,note_off,164,0,0,,12,,,59,127
49240,note_off,0,0,0,,3,,,63,127
49240,note_off,0,0,0,,6,,,66,127
49241,note_on,1,0,0,,7,,,67,127
49241,note_on,0,0,0,,12,,,71,127
49241,note_on,0,0,0,,7,,,55,127
49405,note_off,164,0,0,,12,,,71,127
49405,note_off,0,0,0,,7,,,67,127
49406,note_on,1,0,0,,10,,,69,127
49406,note_on,0,0,0,,6,,,66,127
49570,note_off,164,0,0,,6,,,66,127
49570,note_off,0,0,0,,10,,,69,127
49570,note_off,0,0,0,,7,,,55,127
49571,note_on,1,0,0,,7,,,67,127
49571,note_on,0,0,0,,4,,,64,127
49571,note_on,0,0,0,,0,,,60,127
49735,note_off,164,0,0,,0,,,60,127
49735,note_off,0,0,0,,4,,,64,127
49735,note_off,0,0,0,,7,,,67,127
49736,note_on,1,0,0,,6,,,66,127
49736,note_on,0,0,0,,10,,,69,127
49736,note_on,0,0,0,,10,,,57,127
49900,note_off,164,0,0,,10,,,69,127
49900,note_off,0,0,0,,6,,,66,127
49901,note_on,1,0,0,,4,,,64,127
49901,note_on,0,0,0,,7,,,67,127
50065,note_off,164,0,0,,7,,,67,127
50065,note_off,0,0,0,,4,,,64,127
50065,note_off,0,0,0,,10,,,57,127
50066,note_on,1,0,0,,3,,,63,127
50066,note_on,0,0,0,,6,,,66,127
50066,note_on,0,0,0,,12,,,59,127
50230,note_off,164,0,0,,12,,,59,127
50230,note_off,0,0,0,,6,,,66,127
50230,note_off,0,0,0,,3,,,63,127
50231,note_on,1,0,0,,12,,,71,127
50231,note_on,0,0,0,,7,,,67,127
50231,note_on,0,0,0,,7,,,55,127
50395,note_off,164,0,0,,7,,,67,127
50395,note_off,0,0,0,,12,,,71,127
50396,note_on,1,0,0,,10,,,69,127
50396,note_on,0,0,0,,6,,,66,127
50560,note_off,164,0,0,,6,,,66,127
50560,note_off,0,0,0,,10,,,69,127
50560,note_off,0,0,0,,7,,,55,127
50561,note_on,1,0,0,,4,,,64,127
50561,note_on,0,0,0,,7,,,67,127
50561,note_on,0,0,0,,0,,,60,127
50725,note_off,164,0,0,,0,,,60,127
50725,note_off,0,0,0,,7,,,67,127
50725,note_off,0,0,0,,4,,,64,127
50726,note_on,1,0,0,,10,,,69,127
50726,note_on,0,0,0,,6,,,66,127
50726,note_on,0,0,0,,10,,,57,127
50890,note_off,164,0,0,,6,,,66,127
50890,note_off,0,0,0,,10,,,69,127
50891,note_on,1,0,0,,7,,,67,127
50891,note_on,0,0,0,,4,,,64,127
51055,note_off,164,0,0,,4,,,64,127
51055,note_off,0,0,0,,7,,,67,127
51055,note_off,0,0,0,,10,,,57,127
51056,note_on,1,0,0,,3,,,63,127
51056,note_on,0,0,0,,6,,,66,127
51056,note_on,0,0,0,,12,,,59,127
51220,note_off,164,0,0,,12,,,59,127
51220,note_off,0,0,0,,6,,,66,127
51220,note_off,0,0,0,,3,,,63,127
51221,note_on,1,0,0,,12,,,71,127
51221,note_on,0,0,0,,7,,,55,127
51385,note_off,164,0,0,,7,,,55,127
51385,note_off,0,0,0,,12,,,71,127
51386,note_on,1,0,0,,10,,,69,127
51386,note_on,0,0,0,,6,,,54,127
51550,note_off,164,0,0,,6,,,54,127
51550,note_off,0,0,0,,10,,,69,127
51551,note_on,1,0,0,,7,,,67,127
51551,note_on,0,0,0,,4,,,52,127
51715,note_off,164,0,0,,4,,,52,127
51715,note_off,0,0,0,,7,,,67,127
51716,note_on,1,0,0,,10,,,45,127
51716,note_on,0,0,0,,7,,,67,127
51757,note_off,41,0,0,,7,,,67,127
51757,note_on,0,0,0,,6,,,66,127
51798,note_off,41,0,0,,6,,,66,127
51798,note_on,0,0,0,,7,,,67,127
51839,note_off,41,0,0,,7,,,67,127
51839,note_on,0,0,0,,6,,,66,127
51879,note_off,40,0,0,,10,,,45,127
51880,note_off,1,0,0,,6,,,66,127
51880,note_on,0,0,0,,4,,,64,127
51880,note_on,0,0,0,,12,,,47,127
52044,note_off,164,0,0,,4,,,64,127
52045,note_on,1,0,0,,3,,,63,127
52209,note_off,164,0,0,,3,,,63,127
52209,note_off,0,0,0,,12,,,47,127
52210,note_on,1,0,0,,4,,,64,127
52210,note_on,0,0,0,,4,,,52,127
52538,note_off,328,0,0,,4,,,64,127
52539,note_on,1,0,0,,4,,,76,127
52703,note_off,164,0,0,,4,,,76,127
52704,note_on,1,0,0,,5,,,77,127
52868,note_off,164,0,0,,5,,,77,127
52868,note_off,0,0,0,,4,,,52,127
52869,note_on,1,0,0,,2,,,74,127
53033,note_off,164,0,0,,2,,,74,127
53034,note_on,1,0,0,,12,,,71,127
53198,note_off,164,0,0,,12,,,71,127
53199,note_on,1,0,0,,10,,,69,127
53527,note_off,328,0,0,,10,,,69,127
53528,note_on,1,0,0,,8,,,68,127
53528,note_on,0,0,0,,4,,,64,127
53692,note_off,164,0,0,,4,,,64,127
53692,note_off,0,0,0,,8,,,68,127
53693,note_on,1,0,0,,10,,,69,127
53693,note_on,0,0,0,,5,,,65,127
53857,note_off,164,0,0,,5,,,65,127
53858,note_on,1,0,0,,2,,,62,127
54022,note_off,164,0,0,,2,,,62,127
54023,note_on,1,0,0,,12,,,59,127
54187,note_off,164,0,0,,12,,,59,127
54187,note_off,0,0,0,,10,,,69,127
54188,note_on,1,0,0,,12,,,71,127
54188,note_on,0,0,0,,8,,,56,127
54352,note_off,164,0,0,,8,,,56,127
54352,note_off,0,0,0,,12,,,71,127
54353,note_on,1,0,0,,0,,,72,127
54353,note_on,0,0,0,,6,,,54,127
54517,note_off,164,0,0,,6,,,54,127
54517,note_off,0,0,0,,0,,,72,127
54518,note_on,1,0,0,,2,,,74,127
54518,note_on,0,0,0,,4,,,52,127
54682,note_off,164,0,0,,4,,,52,127
54682,note_off,0,0,0,,2,,,74,127
54683,note_on,1,0,0,,2,,,74,127
54683,note_on,0,0,0,,0,,,72,127
54683,note_on,0,0,0,,10,,,57,127
54847,note_off,164,0,0,,10,,,57,127
54847,note_off,0,0,0,,0,,,72,127
54847,note_off,0,0,0,,2,,,74,127
54848,note_on,1,0,0,,12,,,71,127
54848,note_on,0,0,0,,7,,,55,127
55012,note_off,164,0,0,,7,,,55,127
55012,note_off,0,0,0,,12,,,71,127
55013,note_on,1,0,0,,10,,,69,127
55013,note_on,0,0,0,,5,,,53,127
55177,note_off,164,0,0,,5,,,53,127
55177,note_off,0,0,0,,10,,,69,127
55178,note_on,1,0,0,,4,,,76,127
55178,note_on,0,0,0,,4,,,52,127
55342,note_off,164,0,0,,4,,,52,127
55343,note_on,1,0,0,,4,,,64,127
55507,note_off,164,0,0,,4,,,64,127
55508,note_on,1,0,0,,2,,,62,127
55672,note_off,164,0,0,,2,,,62,127
55673,note_on,1,0,0,,1,,,61,127
55837,note_off,164,0,0,,4,,,76,127
55838,note_on,1,0,0,,4,,,76,127
56002,note_off,164,0,0,,4,,,76,127
56002,note_off,0,0,0,,1,,,61,127
56003,note_on,1,0,0,,2,,,74,127
56003,note_on,0,0,0,,11,,,58,127
56167,note_off,164,0,0,,11,,,58,127
56167,note_off,0,0,0,,2,,,74,127
56168,note_on,1,0,0,,2,,,74,127
56168,note_on,0,0,0,,10,,,57,127
56332,note_off,164,0,0,,2,,,74,127
56333,note_on,1,0,0,,1,,,73,127
56497,note_off,164,0,0,,1,,,73,127
56497,note_off,0,0,0,,10,,,57,127
56498,note_on,1,0,0,,11,,,70,127
56498,note_on,0,0,0,,7,,,67,127
56662,note_off,164,0,0,,7,,,67,127
56662,note_off,0,0,0,,11,,,70,127
56663,note_on,1,0,0,,11,,,70,127
56663,note_on,0,0,0,,5,,,65,127
56827,note_off,164,0,0,,11,,,70,127
56828,note_on,1,0,0,,10,,,69,127
56992,note_off,164,0,0,,10,,,69,127
56992,note_off,0,0,0,,5,,,65,127
56993,note_on,1,0,0,,7,,,67,127
56993,note_on,0,0,0,,4,,,64,127
57157,note_off,164,0,0,,4,,,64,127
57157,note_off,0,0,0,,7,,,67,127
57158,note_on,1,0,0,,7,,,67,127
57158,note_on,0,0,0,,2,,,62,127
57322,note_off,164,0,0,,7,,,67,127
57323,note_on,1,0,0,,5,,,65,127
57487,note_off,164,0,0,,5,,,65,127
57487,note_off,0,0,0,,2,,,62,127
57488,note_on,1,0,0,,4,,,76,127
57488,note_on,0,0,0,,0,,,60,127
57652,note_off,164,0,0,,0,,,60,127
57652,note_off,0,0,0,,4,,,76,127
57653,note_on,1,0,0,,4,,,76,127
57653,note_on,0,0,0,,12,,,59,127
57817,note_off,164,0,0,,4,,,76,127
57818,note_on,1,0,0,,2,,,74,127
57982,note_off,164,0,0,,2,,,74,127
57982,note_off,0,0,0,,12,,,59,127
57983,note_on,1,0,0,,0,,,72,127
57983,note_on,0,0,0,,10,,,57,127
58147,note_off,164,0,0,,10,,,57,127
58147,note_off,0,0,0,,0,,,72,127
58148,note_on,1,0,0,,0,,,72,127
58148,note_on,0,0,0,,7,,,55,127
58312,note_off,164,0,0,,0,,,72,127
58313,note_on,1,0,0,,12,,,71,127
58477,note_off,164,0,0,,12,,,71,127
58477,note_off,0,0,0,,7,,,55,127
58478,note_on,1,0,0,,10,,,81,127
58478,note_on,0,0,0,,5,,,65,127
58642,note_off,164,0,0,,5,,,65,127
58642,note_off,0,0,0,,10,,,81,127
58643,note_on,1,0,0,,10,,,81,127
58643,note_on,0,0,0,,4,,,64,127
58807,note_off,164,0,0,,10,,,81,127
58808,note_on,1,0,0,,7,,,79,127
58972,note_off,164,0,0,,7,,,79,127
58972,note_off,0,0,0,,4,,,64,127
58973,note_on,1,0,0,,5,,,77,127
58973,note_on,0,0,0,,2,,,62,127
59137,note_off,164,0,0,,2,,,62,127
59137,note_off,0,0,0,,5,,,77,127
59138,note_on,1,0,0,,5,,,77,127
59138,note_on,0,0,0,,0,,,60,127
59302,note_off,164,0,0,,5,,,77,127
59303,note_on,1,0,0,,4,,,76,127
59467,note_off,164,0,0,,4,,,76,127
59467,note_off,0,0,0,,0,,,60,127
59468,note_on,1,0,0,,2,,,86,127
59468,note_on,0,0,0,,12,,,59,127
59632,note_off,164,0,0,,12,,,59,127
59632,note_off,0,0,0,,2,,,86,127
59633,note_on,1,0,0,,2,,,86,127
59633,note_on,0,0,0,,10,,,57,127
59797,note_off,164,0,0,,2,,,86,127
59798,note_on,1,0,0,,0,,,84,127
59962,note_off,164,0,0,,0,,,84,127
59962,note_off,0,0,0,,10,,,57,127
59963,note_on,1,0,0,,12,,,83,127
59963,note_on,0,0,0,,7,,,55,127
60127,note_off,164,0,0,,7,,,55,127
60127,note_off,0,0,0,,12,,,83,127
60128,note_on,1,0,0,,12,,,83,127
60128,note_on,0,0,0,,5,,,53,127
60292,note_off,164,0,0,,12,,,83,127
60293,note_on,1,0,0,,8,,,80,127
60457,note_off,164,0,0,,8,,,80,127
60458,note_on,1,0,0,,10,,,81,127
60622,note_off,164,0,0,,10,,,81,127
60622,note_off,0,0,0,,5,,,53,127
60623,note_on,1,0,0,,12,,,83,127
60623,note_on,0,0,0,,2,,,62,127
60623,note_on,0,0,0,,10,,,57,127
60623,note_on,0,0,0,,5,,,53,127
60704,note_off,81,0,0,,12,,,83,127
60705,note_on,1,0,0,,10,,,81,127
60786,note_off,81,0,0,,10,,,81,127
60787,note_on,1,0,0,,8,,,80,127
60951,note_off,164,0,0,,8,,,80,127
60952,note_on,1,0,0,,10,,,81,127
61116,note_off,164,0,0,,10,,,81,127
61116,note_off,0,0,0,,5,,,53,127
61116,note_off,0,0,0,,10,,,57,127
61116,note_off,0,0,0,,2,,,62,127
61117,note_on,1,0,0,,12,,,83,127
61117,note_on,0,0,0,,4,,,52,127
61281,note_off,164,0,0,,4,,,52,127
61282,note_on,1,0,0,,12,,,59,127
61364,note_off,82,0,0,,12,,,83,127
61445,note_off,81,0,0,,12,,,59,127
61446,note_on,1,0,0,,4,,,76,127
61446,note_on,0,0,0,,4,,,64,127
61610,note_off,164,0,0,,4,,,64,127
61610,note_off,0,0,0,,4,,,76,127
61611,note_on,1,0,0,,5,,,77,127
61611,note_on,0,0,0,,2,,,50,127
61775,note_off,164,0,0,,2,,,50,127
61775,note_off,0,0,0,,5,,,77,127
61776,note_on,1,0,0,,2,,,74,127
61776,note_on,0,0,0,,10,,,57,127
61940,note_off,164,0,0,,10,,,57,127
61940,note_off,0,0,0,,2,,,74,127
61941,note_on,1,0,0,,12,,,71,127
61941,note_on,0,0,0,,2,,,62,127
62105,note_off,164,0,0,,2,,,62,127
62105,note_off,0,0,0,,12,,,71,127
62106,note_on,1,0,0,,10,,,69,127
62106,note_on,0,0,0,,4,,,52,127
62270,note_off,164,0,0,,4,,,52,127
62271,note_on,1,0,0,,12,,,59,127
62435,note_off,164,0,0,,12,,,59,127
62435,note_off,0,0,0,,10,,,69,127
62436,note_on,1,0,0,,8,,,68,127
62436,note_on,0,0,0,,4,,,64,127
62600,note_off,164,0,0,,4,,,64,127
62600,note_off,0,0,0,,8,,,68,127
62601,note_on,1,0,0,,10,,,69,127
62601,note_on,0,0,0,,5,,,65,127
62765,note_off,164,0,0,,5,,,65,127
62766,note_on,1,0,0,,2,,,62,127
62930,note_off,164,0,0,,2,,,62,127
62931,note_on,1,0,0,,12,,,59,127
63095,note_off,164,0,0,,12,,,59,127
63095,note_off,0,0,0,,10,,,69,127
63096,note_on,1,0,0,,12,,,71,127
63096,note_on,0,0,0,,8,,,56,127
63260,note_off,164,0,0,,8,,,56,127
63260,note_off,0,0,0,,12,,,71,127
63261,note_on,1,0,0,,0,,,72,127
63261,note_on,0,0,0,,6,,,54,127
63425,note_off,164,0,0,,6,,,54,127
63425,note_off,0,0,0,,0,,,72,127
63426,note_on,1,0,0,,2,,,74,127
63426,note_on,0,0,0,,4,,,52,127
63590,note_off,164,0,0,,4,,,52,127
63590,note_off,0,0,0,,2,,,74,127
63591,note_on,1,0,0,,0,,,72,127
63591,note_on,0,0,0,,2,,,74,127
63591,note_on,0,0,0,,10,,,57,127
63755,note_off,164,0,0,,10,,,57,127
63755,note_off,0,0,0,,2,,,74,127
63755,note_off,0,0,0,,0,,,72,127
63756,note_on,1,0,0,,12,,,71,127
63756,note_on,0,0,0,,7,,,55,127
63920,note_off,164,0,0,,7,,,55,127
63920,note_off,0,0,0,,12,,,71,127
63921,note_on,1,0,0,,10,,,69,127
63921,note_on,0,0,0,,5,,,53,127
64085,note_off,164,0,0,,5,,,53,127
64085,note_off,0,0,0,,10,,,69,127
64086,note_on,1,0,0,,4,,,76,127
64086,note_on,0,0,0,,4,,,64,127
64250,note_off,164,0,0,,4,,,64,127
64251,note_on,1,0,0,,4,,,52,127
64415,note_off,164,0,0,,4,,,52,127
64415,note_off,0,0,0,,4,,,76,127
64416,note_on,1,0,0,,12,,,71,127
64416,note_on,0,0,0,,2,,,62,127
64580,note_off,164,0,0,,2,,,62,127
64580,note_off,0,0,0,,12,,,71,127
64581,note_on,1,0,0,,4,,,76,127
64581,note_on,0,0,0,,0,,,60,127
64745,note_off,164,0,0,,0,,,60,127
64746,note_on,1,0,0,,0,,,48,127
64910,note_off,164,0,0,,0,,,48,127
64910,note_off,0,0,0,,4,,,76,127
64911,note_on,1,0,0,,2,,,74,127
64911,note_on,0,0,0,,12,,,59,127
65075,note_off,164,0,0,,12,,,59,127
65075,note_off,0,0,0,,2,,,74,127
65076,note_on,1,0,0,,0,,,72,127
65076,note_on,0,0,0,,10,,,69,127
65240,note_off,164,0,0,,10,,,69,127
65241,note_on,1,0,0,,10,,,57,127
65405,note_off,164,0,0,,10,,,57,127
65405,note_off,0,0,0,,0,,,72,127
65406,note_on,1,0,0,,4,,,76,127
65406,note_on,0,0,0,,7,,,67,127
65570,note_off,164,0,0,,7,,,67,127
65570,note_off,0,0,0,,4,,,76,127
65571,note_on,1,0,0,,10,,,81,127
65571,note_on,0,0,0,,5,,,65,127
65735,note_off,164,0,0,,5,,,65,127
65736,note_on,1,0,0,,5,,,53,127
65900,note_off,164,0,0,,5,,,53,127
65900,note_off,0,0,0,,10,,,81,127
65901,note_on,1,0,0,,7,,,79,127
65901,note_on,0,0,0,,4,,,64,127
66065,note_off,164,0,0,,4,,,64,127
66065,note_off,0,0,0,,7,,,79,127
66066,note_on,1,0,0,,5,,,77,127
66066,note_on,0,0,0,,2,,,62,127
66230,note_off,164,0,0,,2,,,62,127
66231,note_on,1,0,0,,2,,,50,127
66395,note_off,164,0,0,,2,,,50,127
66395,note_off,0,0,0,,5,,,77,127
66396,note_on,1,0,0,,10,,,81,127
66396,note_on,0,0,0,,0,,,60,127
66560,note_off,164,0,0,,0,,,60,127
66560,note_off,0,0,0,,10,,,81,127
66561,note_on,1,0,0,,2,,,86,127
66561,note_on,0,0,0,,12,,,59,127
66725,note_off,164,0,0,,12,,,59,127
66726,note_on,1,0,0,,12,,,47,127
66890,note_off,164,0,0,,12,,,47,127
66890,note_off,0,0,0,,2,,,86,127
66891,note_on,1,0,0,,0,,,84,127
66891,note_on,0,0,0,,10,,,57,127
67055,note_off,164,0,0,,10,,,57,127
67055,note_off,0,0,0,,0,,,84,127
67056,note_on,1,0,0,,0,,,84,127
67056,note_on,0,0,0,,12,,,83,127
67056,note_on,0,0,0,,8,,,56,127
67220,note_off,164,0,0,,8,,,56,127
67221,note_on,1,0,0,,8,,,44,127
67385,note_off,164,0,0,,8,,,44,127
67385,note_off,0,0,0,,12,,,83,127
67385,note_off,0,0,0,,0,,,84,127
67386,note_on,1,0,0,,10,,,81,127
67386,note_on,0,0,0,,6,,,54,127
67550,note_off,164,0,0,,6,,,54,127
67550,note_off,0,0,0,,10,,,81,127
67551,note_on,1,0,0,,8,,,80,127
67551,note_on,0,0,0,,10,,,81,127
67551,note_on,0,0,0,,4,,,52,127
67715,note_off,164,0,0,,4,,,52,127
67716,note_on,1,0,0,,4,,,40,127
67880,note_off,164,0,0,,4,,,40,127
67881,note_on,1,0,0,,2,,,50,127
68045,note_off,164,0,0,,2,,,50,127
68045,note_off,0,0,0,,10,,,81,127
68045,note_off,0,0,0,,8,,,80,127
68046,note_on,1,0,0,,10,,,81,127
68046,note_on,0,0,0,,0,,,48,127
68046,note_on,0,0,0,,0,,,36,127
68211,note_on,165,0,0,,4,,,76,127
68375,note_off,164,0,0,,4,,,76,127
68375,note_off,0,0,0,,0,,,36,127
68375,note_off,0,0,0,,0,,,48,127
68376,note_on,1,0,0,,2,,,74,127
68376,note_on,0,0,0,,2,,,38,127
68376,note_on,0,0,0,,2,,,50,127
68540,note_off,164,0,0,,2,,,50,127
68540,note_off,0,0,0,,2,,,38,127
68540,note_off,0,0,0,,2,,,74,127
68540,note_off,0,0,0,,10,,,81,127
68541,note_on,1,0,0,,2,,,74,127
68541,note_on,0,0,0,,12,,,71,127
68541,note_on,0,0,0,,4,,,52,127
68705,note_off,164,0,0,,12,,,71,127
68705,note_off,0,0,0,,2,,,74,127
68706,note_on,1,0,0,,0,,,72,127
68706,note_on,0,0,0,,10,,,69,127
68870,note_off,164,0,0,,10,,,69,127
68870,note_off,0,0,0,,0,,,72,127
68870,note_off,0,0,0,,4,,,52,127
68871,note_on,1,0,0,,12,,,71,127
68871,note_on,0,0,0,,8,,,68,127
68871,note_on,0,0,0,,4,,,40,127
69035,note_off,164,0,0,,4,,,40,127
69035,note_off,0,0,0,,8,,,68,127
69035,note_off,0,0,0,,12,,,71,127
69036,note_on,1,0,0,,10,,,69,127
69201,note_on,165,0,0,,10,,,57,127
69365,note_off,164,0,0,,10,,,57,127
69365,note_off,0,0,0,,10,,,69,127
69366,note_on,1,0,0,,4,,,76,127
69366,note_on,0,0,0,,7,,,67,127
69530,note_off,164,0,0,,7,,,67,127
69530,note_off,0,0,0,,4,,,76,127
69531,note_on,1,0,0,,10,,,81,127
69531,note_on,0,0,0,,5,,,65,127
69694,note_off,163,0,0,,10,,,81,127
69696,note_on,2,0,0,,5,,,53,127
69696,note_on,0,0,0,,10,,,81,127
69857,note_off,161,0,0,,5,,,65,127
69859,note_off,2,0,0,,10,,,81,127
69860,note_off,1,0,0,,5,,,53,127
69861,note_on,1,0,0,,7,,,79,127
69861,note_on,0,0,0,,4,,,64,127
70025,note_off,164,0,0,,4,,,64,127
70025,note_off,0,0,0,,7,,,79,127
70026,note_on,1,0,0,,5,,,77,127
70026,note_on,0,0,0,,2,,,62,127
70189,note_off,163,0,0,,5,,,77,127
70191,note_on,2,0,0,,2,,,50,127
70191,note_on,0,0,0,,5,,,77,127
70352,note_off,161,0,0,,2,,,62,127
70354,note_off,2,0,0,,5,,,77,127
70355,note_off,1,0,0,,2,,,50,127
70356,note_on,1,0,0,,10,,,81,127
70356,note_on,0,0,0,,0,,,60,127
70520,note_off,164,0,0,,0,,,60,127
70520,note_off,0,0,0,,10,,,81,127
70521,note_on,1,0,0,,2,,,86,127
70521,note_on,0,0,0,,12,,,59,127
70684,note_off,163,0,0,,2,,,86,127
70686,note_on,2,0,0,,12,,,47,127
70686,note_on,0,0,0,,2,,,86,127
70847,note_off,161,0,0,,12,,,59,127
70849,note_off,2,0,0,,2,,,86,127
70850,note_off,1,0,0,,12,,,47,127
70851,note_on,1,0,0,,0,,,84,127
70851,note_on,0,0,0,,10,,,57,127
71015,note_off,164,0,0,,10,,,57,127
71015,note_off,0,0,0,,0,,,84,127
71016,note_on,1,0,0,,12,,,83,127
71016,note_on,0,0,0,,8,,,56,127
71179,note_off,163,0,0,,12,,,83,127
71181,note_on,2,0,0,,8,,,44,127
71181,note_on,0,0,0,,12,,,83,127
71342,note_off,161,0,0,,8,,,56,127
71344,note_off,2,0,0,,12,,,83,127
71345,note_off,1,0,0,,8,,,44,127
71346,note_on,1,0,0,,10,,,81,127
71346,note_on,0,0,0,,6,,,54,127
71510,note_off,164,0,0,,6,,,54,127
71510,note_off,0,0,0,,10,,,81,127
71511,note_on,1,0,0,,10,,,81,127
71511,note_on,0,0,0,,4,,,52,127
71566,note_off,55,0,0,,10,,,81,127
71566,note_on,0,0,0,,8,,,80,127
71621,note_off,55,0,0,,8,,,80,127
71621,note_on,0,0,0,,10,,,81,127
71676,note_off,55,0,0,,10,,,81,127
71676,note_on,0,0,0,,4,,,40,127
71676,note_on,0,0,0,,8,,,80,127
71837,note_off,161,0,0,,4,,,52,127
71840,note_off,3,0,0,,4,,,40,127
71841,note_on,1,0,0,,2,,,50,127
72002,note_off,161,0,0,,8,,,80,127
72005,note_off,3,0,0,,2,,,50,127
72006,note_on,1,0,0,,10,,,81,127
72006,note_on,0,0,0,,0,,,36,127
72006,note_on,0,0,0,,0,,,48,127
72171,note_on,165,0,0,,4,,,76,127
72335,note_off,164,0,0,,4,,,76,127
72335,note_off,0,0,0,,0,,,48,127
72335,note_off,0,0,0,,0,,,36,127
72336,note_on,1,0,0,,2,,,74,127
72336,note_on,0,0,0,,2,,,50,127
72336,note_on,0,0,0,,2,,,38,127
72500,note_off,164,0,0,,2,,,38,127
72500,note_off,0,0,0,,2,,,50,127
72500,note_off,0,0,0,,10,,,81,127
72501,note_on,1,0,0,,12,,,71,127
72501,note_on,0,0,0,,4,,,52,127
72662,note_off,161,0,0,,2,,,74,127
72665,note_off,3,0,0,,12,,,71,127
72666,note_on,1,0,0,,10,,,69,127
72666,note_on,0,0,0,,0,,,72,127
72830,note_off,164,0,0,,0,,,72,127
72830,note_off,0,0,0,,10,,,69,127
72831,note_on,1,0,0,,12,,,71,127
72831,note_on,0,0,0,,8,,,68,127
72831,note_on,0,0,0,,4,,,40,127
72995,note_off,164,0,0,,4,,,40,127
72995,note_off,0,0,0,,8,,,68,127
72995,note_off,0,0,0,,12,,,71,127
72995,note_off,0,0,0,,4,,,52,127
72996,note_on,1,0,0,,10,,,69,127
72996,note_on,0,0,0,,10,,,45,127
73160,note_off,164,0,0,,10,,,45,127
73161,note_on,1,0,0,,4,,,52,127
73325,note_off,164,0,0,,4,,,52,127
73325,note_off,0,0,0,,10,,,69,127
73326,note_on,1,0,0,,0,,,84,127
73326,note_on,0,0,0,,10,,,57,127
73490,note_off,164,0,0,,10,,,57,127
73491,note_on,1,0,0,,4,,,52,127
73655,note_off,164,0,0,,4,,,52,127
73655,note_off,0,0,0,,0,,,84,127
73656,note_on,1,0,0,,12,,,83,127
73656,note_on,0,0,0,,12,,,59,127
73820,note_off,164,0,0,,12,,,59,127
73820,note_off,0,0,0,,12,,,83,127
73821,note_on,1,0,0,,8,,,80,127
73821,note_on,0,0,0,,4,,,64,127
73985,note_off,164,0,0,,4,,,64,127
73985,note_off,0,0,0,,8,,,80,127
73986,note_on,1,0,0,,10,,,81,127
73986,note_on,0,0,0,,2,,,50,127
74150,note_off,164,0,0,,2,,,50,127
74150,note_off,0,0,0,,10,,,81,127
74151,note_on,1,0,0,,10,,,69,127
74151,note_on,0,0,0,,10,,,57,127
74315,note_off,164,0,0,,10,,,57,127
74315,note_off,0,0,0,,10,,,69,127
74316,note_on,1,0,0,,5,,,77,127
74316,note_on,0,0,0,,2,,,62,127
74480,note_off,164,0,0,,2,,,62,127
74481,note_on,1,0,0,,4,,,52,127
74645,note_off,164,0,0,,4,,,52,127
74645,note_off,0,0,0,,5,,,77,127
74646,note_on,1,0,0,,4,,,76,127
74646,note_on,0,0,0,,12,,,59,127
74810,note_off,164,0,0,,12,,,59,127
74810,note_off,0,0,0,,4,,,76,127
74811,note_on,1,0,0,,8,,,68,127
74811,note_on,0,0,0,,12,,,71,127
74811,note_on,0,0,0,,4,,,64,127
74975,note_off,164,0,0,,4,,,64,127
74975,note_off,0,0,0,,12,,,71,127
74975,note_off,0,0,0,,8,,,68,127
74976,note_on,1,0,0,,0,,,72,127
74976,note_on,0,0,0,,10,,,45,127
75140,note_off,164,0,0,,10,,,45,127
75140,note_off,0,0,0,,0,,,72,127
75141,note_on,1,0,0,,10,,,69,127
75141,note_on,0,0,0,,4,,,52,127
75305,note_off,164,0,0,,4,,,52,127
75305,note_off,0,0,0,,10,,,69,127
75306,note_on,1,0,0,,0,,,84,127
75306,note_on,0,0,0,,10,,,57,127
75470,note_off,164,0,0,,10,,,57,127
75471,note_on,1,0,0,,4,,,52,127
75635,note_off,164,0,0,,4,,,52,127
75635,note_off,0,0,0,,0,,,84,127
75636,note_on,1,0,0,,12,,,83,127
75636,note_on,0,0,0,,12,,,59,127
75800,note_off,164,0,0,,12,,,59,127
75800,note_off,0,0,0,,12,,,83,127
75801,note_on,1,0,0,,8,,,80,127
75801,note_on,0,0,0,,4,,,64,127
75965,note_off,164,0,0,,4,,,64,127
75965,note_off,0,0,0,,8,,,80,127
75966,note_on,1,0,0,,10,,,81,127
75966,note_on,0,0,0,,2,,,50,127
76130,note_off,164,0,0,,2,,,50,127
76130,note_off,0,0,0,,10,,,81,127
76131,note_on,1,0,0,,10,,,69,127
76131,note_on,0,0,0,,10,,,57,127
76295,note_off,164,0,0,,10,,,57,127
76295,note_off,0,0,0,,10,,,69,127
76296,note_on,1,0,0,,5,,,77,127
76296,note_on,0,0,0,,2,,,62,127
76460,note_off,164,0,0,,2,,,62,127
76461,note_on,1,0,0,,4,,,52,127
76625,note_off,164,0,0,,4,,,52,127
76625,note_off,0,0,0,,5,,,77,127
76626,note_on,1,0,0,,4,,,76,127
76626,note_on,0,0,0,,12,,,59,127
76790,note_off,164,0,0,,12,,,59,127
76790,note_off,0,0,0,,4,,,76,127
76791,note_on,1,0,0,,8,,,68,127
76791,note_on,0,0,0,,12,,,71,127
76791,note_on,0,0,0,,4,,,64,127
76955,note_off,164,0,0,,4,,,64,127
76955,note_off,0,0,0,,12,,,71,127
76955,note_off,0,0,0,,8,,,68,127
76956,note_on,1,0,0,,10,,,69,127
76956,note_on,0,0,0,,5,,,77,127
76956,note_on,0,0,0,,2,,,38,127
77120,note_off,164,0,0,,2,,,38,127
77121,note_on,1,0,0,,10,,,45,127
77285,note_off,164,0,0,,10,,,45,127
77286,note_on,1,0,0,,2,,,50,127
77450,note_off,164,0,0,,2,,,50,127
77450,note_off,0,0,0,,5,,,77,127
77450,note_off,0,0,0,,10,,,69,127
77451,note_on,1,0,0,,8,,,68,127
77451,note_on,0,0,0,,4,,,76,127
77451,note_on,0,0,0,,4,,,40,127
77615,note_off,164,0,0,,4,,,40,127
77616,note_on,1,0,0,,4,,,52,127
77780,note_off,164,0,0,,4,,,52,127
77781,note_on,1,0,0,,8,,,56,127
77945,note_off,164,0,0,,8,,,56,127
77945,note_off,0,0,0,,4,,,76,127
77945,note_off,0,0,0,,8,,,68,127
77946,note_on,1,0,0,,2,,,74,127
77946,note_on,0,0,0,,10,,,69,127
77946,note_on,0,0,0,,5,,,41,127
78110,note_off,164,0,0,,5,,,41,127
78111,note_on,1,0,0,,5,,,53,127
78275,note_off,164,0,0,,5,,,53,127
78276,note_on,1,0,0,,10,,,57,127
78440,note_off,164,0,0,,10,,,57,127
78440,note_off,0,0,0,,10,,,69,127
78440,note_off,0,0,0,,2,,,74,127
78441,note_on,1,0,0,,4,,,76,127
78441,note_on,0,0,0,,8,,,68,127
78441,note_on,0,0,0,,4,,,40,127
78605,note_off,164,0,0,,4,,,40,127
78606,note_on,1,0,0,,4,,,52,127
78770,note_off,164,0,0,,4,,,52,127
78771,note_on,1,0,0,,8,,,56,127
78935,note_off,164,0,0,,8,,,56,127
78935,note_off,0,0,0,,8,,,68,127
78935,note_off,0,0,0,,4,,,76,127
78936,note_on,1,0,0,,10,,,69,127
78936,note_on,0,0,0,,5,,,77,127
78936,note_on,0,0,0,,2,,,38,127
79100,note_off,164,0,0,,2,,,38,127
79101,note_on,1,0,0,,2,,,50,127
79265,note_off,164,0,0,,2,,,50,127
79266,note_on,1,0,0,,5,,,53,127
79430,note_off,164,0,0,,5,,,53,127
79430,note_off,0,0,0,,5,,,77,127
79430,note_off,0,0,0,,10,,,69,127
79431,note_on,1,0,0,,8,,,68,127
79431,note_on,0,0,0,,4,,,76,127
79431,note_on,0,0,0,,4,,,40,127
79595,note_off,164,0,0,,4,,,40,127
79596,note_on,1,0,0,,4,,,52,127
79760,note_off,164,0,0,,4,,,52,127
79761,note_on,1,0,0,,8,,,56,127
79925,note_off,164,0,0,,8,,,56,127
79925,note_off,0,0,0,,4,,,76,127
79925,note_off,0,0,0,,8,,,68,127
79926,note_on,1,0,0,,2,,,74,127
79926,note_on,0,0,0,,10,,,69,127
79926,note_on,0,0,0,,5,,,41,127
80090,note_off,164,0,0,,5,,,41,127
80091,note_on,1,0,0,,5,,,53,127
80255,note_off,164,0,0,,5,,,53,127
80256,note_on,1,0,0,,10,,,57,127
80420,note_off,164,0,0,,10,,,57,127
80420,note_off,0,0,0,,10,,,69,127
80420,note_off,0,0,0,,2,,,74,127
80421,note_on,1,0,0,,4,,,76,127
80421,note_on,0,0,0,,8,,,68,127
80421,note_on,0,0,0,,4,,,40,127
80585,note_off,164,0,0,,4,,,40,127
80586,note_on,1,0,0,,4,,,52,127
80750,note_off,164,0,0,,4,,,52,127
80751,note_on,1,0,0,,8,,,56,127
80915,note_off,164,0,0,,8,,,56,127
80915,note_off,0,0,0,,8,,,68,127
80915,note_off,0,0,0,,4,,,76,127
80916,note_on,1,0,0,,5,,,77,127
80916,note_on,0,0,0,,10,,,69,127
80916,note_on,0,0,0,,2,,,38,127
81080,note_off,164,0,0,,2,,,38,127
81081,note_on,1,0,0,,2,,,50,127
81245,note_off,164,0,0,,2,,,50,127
81246,note_on,1,0,0,,5,,,53,127
81410,note_off,164,0,0,,5,,,53,127
81410,note_off,0,0,0,,10,,,69,127
81411,note_on,1,0,0,,4,,,40,127
81575,note_off,164,0,0,,4,,,40,127
81575,note_off,0,0,0,,5,,,77,127
81576,note_on,1,0,0,,4,,,76,127
81576,note_on,0,0,0,,4,,,52,127
81740,note_off,164,0,0,,4,,,52,127
81740,note_off,0,0,0,,4,,,76,127
81741,note_on,1,0,0,,12,,,71,127
81741,note_on,0,0,0,,8,,,68,127
81741,note_on,0,0,0,,8,,,56,127
81905,note_off,164,0,0,,8,,,56,127
81905,note_off,0,0,0,,8,,,68,127
81905,note_off,0,0,0,,12,,,71,127
81906,note_on,1,0,0,,0,,,72,127
81906,note_on,0,0,0,,10,,,69,127
81906,note_on,0,0,0,,10,,,57,127
82070,note_off,164,0,0,,10,,,69,127
82070,note_off,0,0,0,,0,,,72,127
82071,note_on,1,0,0,,12,,,71,127
82071,note_on,0,0,0,,8,,,68,127
82235,note_off,164,0,0,,8,,,68,127
82235,note_off,0,0,0,,12,,,71,127
82235,note_off,0,0,0,,10,,,57,127
82236,note_on,1,0,0,,0,,,72,127
82236,note_on,0,0,0,,10,,,69,127
82236,note_on,0,0,0,,5,,,53,127
82400,note_off,164,0,0,,5,,,53,127
82400,note_off,0,0,0,,10,,,69,127
82400,note_off,0,0,0,,0,,,72,127
82401,note_on,1,0,0,,12,,,71,127
82401,note_on,0,0,0,,2,,,74,127
82401,note_on,0,0,0,,2,,,50,127
82565,note_off,164,0,0,,2,,,74,127
82565,note_off,0,0,0,,12,,,71,127
82566,note_on,1,0,0,,0,,,72,127
82566,note_on,0,0,0,,10,,,69,127
82730,note_off,164,0,0,,10,,,69,127
82730,note_off,0,0,0,,0,,,72,127
82730,note_off,0,0,0,,2,,,50,127
82731,note_on,1,0,0,,8,,,68,127
82731,note_on,0,0,0,,12,,,71,127
82731,note_on,0,0,0,,4,,,52,127
82895,note_off,164,0,0,,4,,,52,127
82895,note_off,0,0,0,,12,,,71,127
82895,note_off,0,0,0,,8,,,68,127
82896,note_on,1,0,0,,4,,,76,127
82896,note_on,0,0,0,,0,,,72,127
82896,note_on,0,0,0,,0,,,48,127
83060,note_off,164,0,0,,0,,,72,127
83060,note_off,0,0,0,,4,,,76,127
83061,note_on,1,0,0,,12,,,71,127
83061,note_on,0,0,0,,2,,,74,127
83225,note_off,164,0,0,,2,,,74,127
83225,note_off,0,0,0,,12,,,71,127
83225,note_off,0,0,0,,0,,,48,127
83226,note_on,1,0,0,,0,,,72,127
83226,note_on,0,0,0,,10,,,69,127
83226,note_on,0,0,0,,5,,,53,127
83390,note_off,164,0,0,,5,,,53,127
83390,note_off,0,0,0,,10,,,69,127
83390,note_off,0,0,0,,0,,,72,127
83391,note_on,1,0,0,,2,,,74,127
83391,note_on,0,0,0,,12,,,71,127
83391,note_on,0,0,0,,2,,,50,127
83555,note_off,164,0,0,,12,,,71,127
83555,note_off,0,0,0,,2,,,74,127
83556,note_on,1,0,0,,0,,,72,127
83556,note_on,0,0,0,,10,,,69,127
83720,note_off,164,0,0,,10,,,69,127
83720,note_off,0,0,0,,0,,,72,127
83720,note_off,0,0,0,,2,,,50,127
83721,note_on,1,0,0,,12,,,71,127
83721,note_on,0,0,0,,8,,,68,127
83721,note_on,0,0,0,,4,,,52,127
83885,note_off,164,0,0,,4,,,52,127
83885,note_off,0,0,0,,8,,,68,127
83885,note_off,0,0,0,,12,,,71,127
83886,note_on,1,0,0,,4,,,76,127
83886,note_on,0,0,0,,0,,,72,127
83886,note_on,0,0,0,,0,,,48,127
84050,note_off,164,0,0,,0,,,72,127
84050,note_off,0,0,0,,4,,,76,127
84051,note_on,1,0,0,,12,,,71,127
84051,note_on,0,0,0,,2,,,74,127
84215,note_off,164,0,0,,2,,,74,127
84215,note_off,0,0,0,,12,,,71,127
84215,note_off,0,0,0,,0,,,48,127
84216,note_on,1,0,0,,10,,,69,127
84216,note_on,0,0,0,,0,,,72,127
84216,note_on,0,0,0,,5,,,53,127
84380,note_off,164,0,0,,5,,,53,127
84380,note_off,0,0,0,,0,,,72,127
84380,note_off,0,0,0,,10,,,69,127
84381,note_on,1,0,0,,12,,,71,127
84381,note_on,0,0,0,,2,,,74,127
84381,note_on,0,0,0,,2,,,50,127
84545,note_off,164,0,0,,2,,,74,127
84545,note_off,0,0,0,,12,,,71,127
84546,note_on,1,0,0,,0,,,72,127
84546,note_on,0,0,0,,10,,,69,127
84710,note_off,164,0,0,,10,,,69,127
84710,note_off,0,0,0,,0,,,72,127
84710,note_off,0,0,0,,2,,,50,127
84711,note_on,1,0,0,,12,,,71,127
84711,note_on,0,0,0,,8,,,68,127
84711,note_on,0,0,0,,4,,,52,127
84875,note_off,164,0,0,,4,,,52,127
84875,note_off,0,0,0,,8,,,68,127
84875,note_off,0,0,0,,12,,,71,127
84878,note_on,3,0,0,,0,,,48,127
84878,note_on,0,0,0,,4,,,76,127
85043,note_off,165,0,0,,4,,,76,127
85043,note_off,0,0,0,,0,,,48,127
85050,note_on,7,0,0,,12,,,47,127
85050,note_on,0,0,0,,2,,,74,127
85215,note_off,165,0,0,,2,,,74,127
85215,note_off,0,0,0,,12,,,47,127
85222,note_on,7,0,0,,10,,,45,127
85222,note_on,0,0,0,,0,,,72,127
85387,note_off,165,0,0,,0,,,72,127
85387,note_off,0,0,0,,10,,,45,127
85393,note_on,6,0,0,,2,,,50,127
85393,note_on,0,0,0,,2,,,62,127
85393,note_on,0,0,0,,12,,,71,127
85558,note_off,165,0,0,,12,,,71,127
85558,note_off,0,0,0,,2,,,62,127
85565,note_on,7,0,0,,0,,,60,127
85565,note_on,0,0,0,,10,,,69,127
85722,note_off,157,0,0,,2,,,50,127
85730,note_off,8,0,0,,10,,,69,127
85730,note_off,0,0,0,,0,,,60,127
85737,note_on,7,0,0,,4,,,52,127
85737,note_on,0,0,0,,12,,,59,127
85737,note_on,0,0,0,,8,,,68,127
85902,note_off,165,0,0,,8,,,68,127
85902,note_off,0,0,0,,12,,,59,127
85902,note_off,0,0,0,,4,,,52,127
85908,note_on,6,0,0,,10,,,45,127
85908,note_on,0,0,0,,12,,,59,127
85908,note_on,0,0,0,,8,,,68,127
86346,note_off,438,0,0,,8,,,68,127
86346,note_off,0,0,0,,12,,,59,127
86365,note_on,19,0,0,,10,,,69,127
86365,note_on,0,0,0,,10,,,57,127
88068,note_off,1703,0,0,,10,,,45,127
88082,note_off,14,0,0,,10,,,57,127
88082,note_off,0,0,0,,10,,,69,127
92160,end_of_track,4078,1,0,,,,,,
