tick,type,time,meta,track,program,channel,pitch,tempo,note,velocity
0,copyright,0,1,0,,,,,,
0,program_change,0,0,0,6,0,,,,
0,pitchwheel,0,0,0,,0,0,,,
0,program_change,0,0,0,6,1,,,,
0,pitchwheel,0,0,0,,1,-590,,,
0,program_change,0,0,0,6,2,,,,
0,pitchwheel,0,0,0,,2,-272,,,
0,program_change,0,0,0,6,3,,,,
0,pitchwheel,0,0,0,,3,-353,,,
0,program_change,0,0,0,6,4,,,,
0,pitchwheel,0,0,0,,4,-560,,,
0,program_change,0,0,0,6,5,,,,
0,pitchwheel,0,0,0,,5,-80,,,
0,program_change,0,0,0,6,6,,,,
0,pitchwheel,0,0,0,,6,-625,,,
0,program_change,0,0,0,6,7,,,,
0,pitchwheel,0,0,0,,7,-130,,,
0,program_change,0,0,0,6,8,,,,
0,pitchwheel,0,0,0,,8,-512,,,
0,program_change,0,0,0,6,10,,,,
0,pitchwheel,0,0,0,,10,-464,,,
0,program_change,0,0,0,6,11,,,,
0,pitchwheel,0,0,0,,11,-208,,,
0,program_change,0,0,0,6,12,,,,
0,pitchwheel,0,0,0,,12,-553,,,
0,set_tempo,0,1,0,,,,500000,,
100,note_on,100,0,0,,10,,,45,127
501,note_on,401,0,0,,10,,,81,127
900,note_off,399,0,0,,10,,,81,127
902,note_on,2,0,0,,2,,,74,127
1000,note_off,98,0,0,,2,,,74,127
1002,note_on,2,0,0,,1,,,73,127
1100,note_off,98,0,0,,1,,,73,127
1102,note_on,2,0,0,,2,,,74,127
1196,note_off,94,0,0,,10,,,45,127
1200,note_off,4,0,0,,2,,,74,127
1202,note_on,2,0,0,,1,,,73,127
1300,note_off,98,0,0,,1,,,73,127
1302,note_on,2,0,0,,10,,,57,127
1302,note_on,0,0,0,,2,,,74,127
1400,note_off,98,0,0,,2,,,74,127
1402,note_on,2,0,0,,1,,,73,127
1500,note_off,98,0,0,,1,,,73,127
1502,note_on,2,0,0,,2,,,74,127
1600,note_off,98,0,0,,2,,,74,127
1602,note_on,2,0,0,,4,,,76,127
1700,note_off,98,0,0,,4,,,76,127
1700,note_off,0,0,0,,10,,,57,127
1702,note_on,2,0,0,,2,,,50,127
1702,note_on,0,0,0,,12,,,71,127
2101,note_off,399,0,0,,12,,,71,127
2103,note_on,2,0,0,,6,,,78,127
2502,note_off,399,0,0,,6,,,78,127
2504,note_on,2,0,0,,8,,,68,127
2602,note_off,98,0,0,,8,,,68,127
2604,note_on,2,0,0,,6,,,66,127
2702,note_off,98,0,0,,6,,,66,127
2704,note_on,2,0,0,,8,,,68,127
2798,note_off,94,0,0,,2,,,50,127
2802,note_off,4,0,0,,8,,,68,127
2804,note_on,2,0,0,,6,,,66,127
2902,note_off,98,0,0,,6,,,66,127
2904,note_on,2,0,0,,2,,,62,127
2904,note_on,0,0,0,,8,,,68,127
3002,note_off,98,0,0,,8,,,68,127
3004,note_on,2,0,0,,6,,,66,127
3102,note_off,98,0,0,,6,,,66,127
3104,note_on,2,0,0,,8,,,68,127
3202,note_off,98,0,0,,8,,,68,127
3204,note_on,2,0,0,,10,,,69,127
3302,note_off,98,0,0,,10,,,69,127
3302,note_off,0,0,0,,2,,,62,127
3304,note_on,2,0,0,,1,,,61,127
3304,note_on,0,0,0,,4,,,64,127
3703,note_off,399,0,0,,4,,,64,127
3705,note_on,2,0,0,,4,,,76,127
3903,note_off,198,0,0,,4,,,76,127
3905,note_on,2,0,0,,8,,,68,127
4103,note_off,198,0,0,,8,,,68,127
4105,note_on,2,0,0,,8,,,68,127
4504,note_off,399,0,0,,8,,,68,127
4504,note_off,0,0,0,,1,,,61,127
4506,note_on,2,0,0,,1,,,61,127
4506,note_on,0,0,0,,10,,,69,127
4905,note_off,399,0,0,,1,,,61,127
4907,note_on,2,0,0,,2,,,62,127
5080,note_off,173,0,0,,10,,,69,127
5301,note_off,221,0,0,,2,,,62,127
5307,note_on,6,0,0,,2,,,50,127
5307,note_on,0,0,0,,1,,,73,127
5372,note_off,65,0,0,,1,,,73,127
5374,note_on,2,0,0,,12,,,71,127
5439,note_off,65,0,0,,12,,,71,127
5441,note_on,2,0,0,,10,,,69,127
5706,note_off,265,0,0,,10,,,69,127
5706,note_off,0,0,0,,2,,,50,127
5708,note_on,2,0,0,,4,,,52,127
5708,note_on,0,0,0,,8,,,68,127
5773,note_off,65,0,0,,8,,,68,127
5775,note_on,2,0,0,,6,,,66,127
5840,note_off,65,0,0,,6,,,66,127
5842,note_on,2,0,0,,4,,,64,127
6107,note_off,265,0,0,,4,,,64,127
6107,note_off,0,0,0,,4,,,52,127
6109,note_on,2,0,0,,4,,,40,127
6109,note_on,0,0,0,,2,,,62,127
6174,note_off,65,0,0,,2,,,62,127
6176,note_on,2,0,0,,1,,,61,127
6241,note_off,65,0,0,,1,,,61,127
6243,note_on,2,0,0,,12,,,59,127
6508,note_off,265,0,0,,12,,,59,127
6508,note_off,0,0,0,,4,,,40,127
6510,note_on,2,0,0,,10,,,45,127
6510,note_on,0,0,0,,1,,,61,127
6909,note_off,399,0,0,,1,,,61,127
6909,note_off,0,0,0,,10,,,45,127
6911,note_on,2,0,0,,1,,,61,127
6976,note_off,65,0,0,,1,,,61,127
6978,note_on,2,0,0,,12,,,59,127
7043,note_off,65,0,0,,12,,,59,127
7045,note_on,2,0,0,,10,,,57,127
7310,note_off,265,0,0,,10,,,57,127
7312,note_on,2,0,0,,8,,,56,127
7377,note_off,65,0,0,,8,,,56,127
7379,note_on,2,0,0,,6,,,54,127
7444,note_off,65,0,0,,6,,,54,127
7446,note_on,2,0,0,,4,,,52,127
7711,note_off,265,0,0,,4,,,52,127
7713,note_on,2,0,0,,2,,,50,127
7713,note_on,0,0,0,,4,,,64,127
7713,note_on,0,0,0,,8,,,68,127
7713,note_on,0,0,0,,12,,,71,127
7713,note_on,0,0,0,,2,,,74,127
7778,note_off,65,0,0,,2,,,50,127
7780,note_on,2,0,0,,1,,,49,127
7845,note_off,65,0,0,,1,,,49,127
7847,note_on,2,0,0,,12,,,47,127
8112,note_off,265,0,0,,12,,,47,127
8112,note_off,0,0,0,,2,,,74,127
8112,note_off,0,0,0,,12,,,71,127
8112,note_off,0,0,0,,8,,,68,127
8112,note_off,0,0,0,,4,,,64,127
8114,note_on,2,0,0,,10,,,45,127
8114,note_on,0,0,0,,4,,,64,127
8114,note_on,0,0,0,,1,,,73,127
8114,note_on,0,0,0,,10,,,69,127
8513,note_off,399,0,0,,10,,,69,127
8513,note_off,0,0,0,,1,,,73,127
8513,note_off,0,0,0,,4,,,64,127
8513,note_off,0,0,0,,10,,,45,127
8515,note_on,2,0,0,,1,,,61,127
8580,note_off,65,0,0,,1,,,61,127
8582,note_on,2,0,0,,12,,,59,127
8647,note_off,65,0,0,,12,,,59,127
8649,note_on,2,0,0,,10,,,57,127
8914,note_off,265,0,0,,10,,,57,127
8916,note_on,2,0,0,,8,,,56,127
8981,note_off,65,0,0,,8,,,56,127
8983,note_on,2,0,0,,6,,,54,127
9048,note_off,65,0,0,,6,,,54,127
9050,note_on,2,0,0,,4,,,52,127
9315,note_off,265,0,0,,4,,,52,127
9317,note_on,2,0,0,,2,,,50,127
9317,note_on,0,0,0,,12,,,71,127
9317,note_on,0,0,0,,4,,,76,127
9317,note_on,0,0,0,,8,,,80,127
9382,note_off,65,0,0,,2,,,50,127
9384,note_on,2,0,0,,1,,,49,127
9449,note_off,65,0,0,,1,,,49,127
9451,note_on,2,0,0,,12,,,47,127
9716,note_off,265,0,0,,12,,,47,127
9716,note_off,0,0,0,,8,,,80,127
9716,note_off,0,0,0,,4,,,76,127
9716,note_off,0,0,0,,12,,,71,127
9718,note_on,2,0,0,,10,,,45,127
9718,note_on,0,0,0,,4,,,76,127
9718,note_on,0,0,0,,1,,,73,127
9718,note_on,0,0,0,,10,,,81,127
10104,note_off,386,0,0,,1,,,73,127
10104,note_off,0,0,0,,4,,,76,127
10135,note_off,31,0,0,,10,,,81,127
10135,note_on,0,0,0,,1,,,73,127
10135,note_on,0,0,0,,1,,,61,127
10135,note_on,0,0,0,,10,,,57,127
10166,note_off,31,0,0,,10,,,45,127
10266,note_off,100,0,0,,1,,,73,127
10268,note_on,2,0,0,,10,,,69,127
10399,note_off,131,0,0,,10,,,69,127
10401,note_on,2,0,0,,4,,,64,127
10532,note_off,131,0,0,,4,,,64,127
10532,note_off,0,0,0,,1,,,61,127
10534,note_on,2,0,0,,2,,,62,127
10534,note_on,0,0,0,,12,,,59,127
10934,note_off,400,0,0,,10,,,57,127
10935,note_on,1,0,0,,2,,,74,127
10935,note_on,0,0,0,,8,,,56,127
11108,note_off,173,0,0,,2,,,62,127
11333,note_off,225,0,0,,8,,,56,127
11334,note_off,1,0,0,,12,,,59,127
11335,note_on,1,0,0,,10,,,57,127
11335,note_on,0,0,0,,1,,,61,127
11435,note_off,100,0,0,,2,,,74,127
11733,note_off,298,0,0,,1,,,61,127
11733,note_off,0,0,0,,10,,,57,127
11735,note_on,2,0,0,,1,,,73,127
11735,note_on,0,0,0,,1,,,61,127
11735,note_on,0,0,0,,10,,,57,127
11866,note_off,131,0,0,,1,,,73,127
11868,note_on,2,0,0,,10,,,69,127
11999,note_off,131,0,0,,10,,,69,127
12001,note_on,2,0,0,,4,,,64,127
12132,note_off,131,0,0,,4,,,64,127
12132,note_off,0,0,0,,1,,,61,127
12134,note_on,2,0,0,,2,,,62,127
12134,note_on,0,0,0,,12,,,59,127
12533,note_off,399,0,0,,2,,,62,127
12534,note_off,1,0,0,,10,,,57,127
12535,note_on,1,0,0,,2,,,74,127
12535,note_on,0,0,0,,8,,,56,127
12934,note_off,399,0,0,,8,,,56,127
12935,note_off,1,0,0,,12,,,59,127
12936,note_on,1,0,0,,1,,,61,127
12936,note_on,0,0,0,,10,,,57,127
13036,note_off,100,0,0,,2,,,74,127
13334,note_off,298,0,0,,10,,,57,127
13334,note_off,0,0,0,,1,,,61,127
13336,note_on,2,0,0,,1,,,73,127
13336,note_on,0,0,0,,10,,,57,127
13336,note_on,0,0,0,,1,,,61,127
13467,note_off,131,0,0,,1,,,73,127
13469,note_on,2,0,0,,10,,,69,127
13600,note_off,131,0,0,,10,,,69,127
13602,note_on,2,0,0,,4,,,64,127
13733,note_off,131,0,0,,4,,,64,127
13733,note_off,0,0,0,,1,,,61,127
13733,note_off,0,0,0,,10,,,57,127
13735,note_on,2,0,0,,2,,,62,127
13735,note_on,0,0,0,,7,,,55,127
13735,note_on,0,0,0,,12,,,59,127
14134,note_off,399,0,0,,12,,,59,127
14134,note_off,0,0,0,,7,,,55,127
14134,note_off,0,0,0,,2,,,62,127
14136,note_on,2,0,0,,12,,,71,127
14136,note_on,0,0,0,,4,,,64,127
14136,note_on,0,0,0,,7,,,55,127
14136,note_on,0,0,0,,12,,,59,127
14535,note_off,399,0,0,,12,,,59,127
14535,note_off,0,0,0,,7,,,55,127
14537,note_on,2,0,0,,1,,,61,127
14537,note_on,0,0,0,,12,,,59,127
14537,note_on,0,0,0,,6,,,54,127
14637,note_off,100,0,0,,4,,,64,127
14637,note_off,0,0,0,,12,,,71,127
14935,note_off,298,0,0,,6,,,54,127
14935,note_off,0,0,0,,12,,,59,127
14935,note_off,0,0,0,,1,,,61,127
14937,note_on,2,0,0,,1,,,73,127
14937,note_on,0,0,0,,1,,,61,127
14937,note_on,0,0,0,,6,,,54,127
14937,note_on,0,0,0,,12,,,59,127
15068,note_off,131,0,0,,1,,,73,127
15070,note_on,2,0,0,,11,,,70,127
15201,note_off,131,0,0,,11,,,70,127
15203,note_on,2,0,0,,6,,,66,127
15334,note_off,131,0,0,,6,,,66,127
15334,note_off,0,0,0,,12,,,59,127
15334,note_off,0,0,0,,6,,,54,127
15334,note_off,0,0,0,,1,,,61,127
15336,note_on,2,0,0,,4,,,64,127
15336,note_on,0,0,0,,1,,,61,127
15336,note_on,0,0,0,,12,,,59,127
15336,note_on,0,0,0,,7,,,55,127
15735,note_off,399,0,0,,7,,,55,127
15735,note_off,0,0,0,,12,,,59,127
15735,note_off,0,0,0,,1,,,61,127
15735,note_off,0,0,0,,4,,,64,127
15737,note_on,2,0,0,,12,,,71,127
15737,note_on,0,0,0,,1,,,61,127
15737,note_on,0,0,0,,12,,,59,127
15737,note_on,0,0,0,,7,,,55,127
16136,note_off,399,0,0,,7,,,55,127
16136,note_off,0,0,0,,12,,,59,127
16136,note_off,0,0,0,,1,,,61,127
16138,note_on,2,0,0,,1,,,61,127
16138,note_on,0,0,0,,12,,,59,127
16138,note_on,0,0,0,,6,,,54,127
16238,note_off,100,0,0,,12,,,71,127
16536,note_off,298,0,0,,6,,,54,127
16536,note_off,0,0,0,,12,,,59,127
16536,note_off,0,0,0,,1,,,61,127
16538,note_on,2,0,0,,1,,,73,127
16538,note_on,0,0,0,,1,,,61,127
16538,note_on,0,0,0,,12,,,59,127
16538,note_on,0,0,0,,6,,,54,127
16669,note_off,131,0,0,,1,,,73,127
16671,note_on,2,0,0,,11,,,70,127
16802,note_off,131,0,0,,11,,,70,127
16804,note_on,2,0,0,,6,,,66,127
16935,note_off,131,0,0,,6,,,66,127
16935,note_off,0,0,0,,6,,,54,127
16935,note_off,0,0,0,,12,,,59,127
16935,note_off,0,0,0,,1,,,61,127
16937,note_on,2,0,0,,4,,,64,127
16937,note_on,0,0,0,,1,,,61,127
16937,note_on,0,0,0,,12,,,59,127
16937,note_on,0,0,0,,7,,,55,127
17336,note_off,399,0,0,,7,,,55,127
17336,note_off,0,0,0,,12,,,59,127
17336,note_off,0,0,0,,1,,,61,127
17336,note_off,0,0,0,,4,,,64,127
17338,note_on,2,0,0,,12,,,71,127
17338,note_on,0,0,0,,1,,,61,127
17338,note_on,0,0,0,,12,,,59,127
17338,note_on,0,0,0,,7,,,55,127
17737,note_off,399,0,0,,7,,,55,127
17737,note_off,0,0,0,,12,,,59,127
17737,note_off,0,0,0,,1,,,61,127
17739,note_on,2,0,0,,1,,,61,127
17739,note_on,0,0,0,,12,,,59,127
17739,note_on,0,0,0,,6,,,54,127
17902,note_off,163,0,0,,12,,,71,127
18138,note_off,236,0,0,,6,,,54,127
18138,note_off,0,0,0,,12,,,59,127
18138,note_off,0,0,0,,1,,,61,127
18140,note_on,2,0,0,,1,,,73,127
18140,note_on,0,0,0,,1,,,61,127
18140,note_on,0,0,0,,12,,,59,127
18140,note_on,0,0,0,,6,,,54,127
18271,note_off,131,0,0,,1,,,73,127
18273,note_on,2,0,0,,11,,,70,127
18404,note_off,131,0,0,,11,,,70,127
18406,note_on,2,0,0,,6,,,66,127
18537,note_off,131,0,0,,6,,,66,127
18537,note_off,0,0,0,,6,,,54,127
18537,note_off,0,0,0,,12,,,59,127
18537,note_off,0,0,0,,1,,,61,127
18539,note_on,2,0,0,,5,,,65,127
18539,note_on,0,0,0,,8,,,56,127
18539,note_on,0,0,0,,12,,,59,127
18938,note_off,399,0,0,,12,,,59,127
18938,note_off,0,0,0,,8,,,56,127
18940,note_on,2,0,0,,2,,,74,127
18940,note_on,0,0,0,,12,,,59,127
18940,note_on,0,0,0,,8,,,56,127
19009,note_off,69,0,0,,5,,,65,127
19339,note_off,330,0,0,,8,,,56,127
19339,note_off,0,0,0,,12,,,59,127
19341,note_on,2,0,0,,1,,,61,127
19341,note_on,0,0,0,,11,,,58,127
19441,note_off,100,0,0,,2,,,74,127
19739,note_off,298,0,0,,11,,,58,127
19739,note_off,0,0,0,,1,,,61,127
19741,note_on,2,0,0,,1,,,73,127
19741,note_on,0,0,0,,1,,,61,127
19741,note_on,0,0,0,,11,,,58,127
19872,note_off,131,0,0,,1,,,73,127
19874,note_on,2,0,0,,11,,,70,127
20005,note_off,131,0,0,,11,,,70,127
20007,note_on,2,0,0,,6,,,66,127
20138,note_off,131,0,0,,6,,,66,127
20138,note_off,0,0,0,,11,,,58,127
20138,note_off,0,0,0,,1,,,61,127
20140,note_on,2,0,0,,5,,,65,127
20140,note_on,0,0,0,,12,,,59,127
20140,note_on,0,0,0,,8,,,56,127
20539,note_off,399,0,0,,8,,,56,127
20539,note_off,0,0,0,,12,,,59,127
20541,note_on,2,0,0,,2,,,74,127
20541,note_on,0,0,0,,12,,,59,127
20541,note_on,0,0,0,,8,,,56,127
20740,note_off,199,0,0,,5,,,65,127
20939,note_off,199,0,0,,8,,,56,127
20939,note_off,0,0,0,,12,,,59,127
20941,note_on,2,0,0,,1,,,61,127
20941,note_on,0,0,0,,11,,,58,127
21083,note_off,142,0,0,,2,,,74,127
21340,note_off,257,0,0,,11,,,58,127
21350,note_off,10,0,0,,1,,,61,127
21350,note_on,0,0,0,,1,,,73,127
21350,note_on,0,0,0,,11,,,58,127
21350,note_on,0,0,0,,1,,,61,127
21481,note_off,131,0,0,,1,,,73,127
21483,note_on,2,0,0,,6,,,66,127
21614,note_off,131,0,0,,6,,,66,127
21616,note_on,2,0,0,,2,,,74,127
21747,note_off,131,0,0,,2,,,74,127
21747,note_off,0,0,0,,1,,,61,127
21747,note_off,0,0,0,,11,,,58,127
21749,note_on,2,0,0,,4,,,76,127
21749,note_on,0,0,0,,7,,,55,127
21749,note_on,0,0,0,,12,,,59,127
22148,note_off,399,0,0,,12,,,59,127
22148,note_off,0,0,0,,7,,,55,127
22150,note_on,2,0,0,,12,,,71,127
22150,note_on,0,0,0,,12,,,59,127
22150,note_on,0,0,0,,7,,,55,127
22549,note_off,399,0,0,,7,,,55,127
22549,note_off,0,0,0,,12,,,59,127
22549,note_off,0,0,0,,12,,,71,127
22551,note_on,2,0,0,,11,,,70,127
22551,note_on,0,0,0,,1,,,61,127
22551,note_on,0,0,0,,6,,,54,127
22950,note_off,399,0,0,,6,,,54,127
22950,note_off,0,0,0,,1,,,61,127
22950,note_off,0,0,0,,11,,,70,127
22959,note_off,9,0,0,,4,,,76,127
22960,note_on,1,0,0,,1,,,73,127
22960,note_on,0,0,0,,1,,,61,127
22960,note_on,0,0,0,,6,,,54,127
23091,note_off,131,0,0,,1,,,73,127
23093,note_on,2,0,0,,6,,,66,127
23224,note_off,131,0,0,,6,,,66,127
23226,note_on,2,0,0,,2,,,74,127
23357,note_off,131,0,0,,2,,,74,127
23357,note_off,0,0,0,,6,,,54,127
23357,note_off,0,0,0,,1,,,61,127
23359,note_on,2,0,0,,4,,,76,127
23359,note_on,0,0,0,,7,,,55,127
23359,note_on,0,0,0,,12,,,59,127
23758,note_off,399,0,0,,12,,,59,127
23758,note_off,0,0,0,,7,,,55,127
23760,note_on,2,0,0,,12,,,71,127
23760,note_on,0,0,0,,7,,,55,127
23760,note_on,0,0,0,,12,,,59,127
24159,note_off,399,0,0,,12,,,59,127
24159,note_off,0,0,0,,7,,,55,127
24159,note_off,0,0,0,,12,,,71,127
24161,note_on,2,0,0,,11,,,70,127
24161,note_on,0,0,0,,1,,,61,127
24161,note_on,0,0,0,,6,,,54,127
24560,note_off,399,0,0,,6,,,54,127
24560,note_off,0,0,0,,1,,,61,127
24560,note_off,0,0,0,,11,,,70,127
24570,note_on,10,0,0,,1,,,73,127
24570,note_on,0,0,0,,1,,,61,127
24570,note_on,0,0,0,,6,,,54,127
24585,note_off,15,0,0,,4,,,76,127
24702,note_off,117,0,0,,1,,,73,127
24704,note_on,2,0,0,,6,,,66,127
24835,note_off,131,0,0,,6,,,66,127
24837,note_on,2,0,0,,3,,,75,127
24968,note_off,131,0,0,,3,,,75,127
24968,note_off,0,0,0,,6,,,54,127
24968,note_off,0,0,0,,1,,,61,127
24970,note_on,2,0,0,,4,,,76,127
24970,note_on,0,0,0,,4,,,64,127
24970,note_on,0,0,0,,1,,,61,127
24970,note_on,0,0,0,,7,,,55,127
25369,note_off,399,0,0,,7,,,55,127
25369,note_off,0,0,0,,1,,,61,127
25369,note_off,0,0,0,,4,,,64,127
25371,note_on,2,0,0,,1,,,73,127
25371,note_on,0,0,0,,4,,,64,127
25371,note_on,0,0,0,,1,,,61,127
25371,note_on,0,0,0,,7,,,55,127
25471,note_off,100,0,0,,4,,,76,127
25769,note_off,298,0,0,,7,,,55,127
25769,note_off,0,0,0,,1,,,61,127
25769,note_off,0,0,0,,4,,,64,127
25771,note_on,2,0,0,,4,,,76,127
25771,note_on,0,0,0,,4,,,64,127
25771,note_on,0,0,0,,1,,,61,127
25771,note_on,0,0,0,,7,,,55,127
25871,note_off,100,0,0,,1,,,73,127
26169,note_off,298,0,0,,7,,,55,127
26169,note_off,0,0,0,,1,,,61,127
26169,note_off,0,0,0,,4,,,64,127
26171,note_on,2,0,0,,1,,,73,127
26171,note_on,0,0,0,,4,,,64,127
26171,note_on,0,0,0,,7,,,55,127
26171,note_on,0,0,0,,1,,,61,127
26271,note_off,100,0,0,,4,,,76,127
26569,note_off,298,0,0,,1,,,61,127
26569,note_off,0,0,0,,7,,,55,127
26569,note_off,0,0,0,,4,,,64,127
26569,note_off,0,0,0,,1,,,73,127
26571,note_on,2,0,0,,4,,,76,127
26571,note_on,0,0,0,,4,,,64,127
26571,note_on,0,0,0,,7,,,55,127
26571,note_on,0,0,0,,1,,,61,127
26702,note_off,131,0,0,,4,,,76,127
26704,note_on,2,0,0,,1,,,73,127
26835,note_off,131,0,0,,1,,,73,127
26837,note_on,2,0,0,,3,,,75,127
26968,note_off,131,0,0,,3,,,75,127
26968,note_off,0,0,0,,1,,,61,127
26968,note_off,0,0,0,,7,,,55,127
26968,note_off,0,0,0,,4,,,64,127
26970,note_on,2,0,0,,4,,,76,127
26970,note_on,0,0,0,,4,,,64,127
26970,note_on,0,0,0,,1,,,61,127
26970,note_on,0,0,0,,7,,,55,127
27101,note_off,131,0,0,,4,,,76,127
27103,note_on,2,0,0,,6,,,78,127
27234,note_off,131,0,0,,6,,,78,127
27236,note_on,2,0,0,,8,,,80,127
27367,note_off,131,0,0,,8,,,80,127
27367,note_off,0,0,0,,7,,,55,127
27367,note_off,0,0,0,,1,,,61,127
27367,note_off,0,0,0,,4,,,64,127
27369,note_on,2,0,0,,4,,,76,127
27369,note_on,0,0,0,,1,,,73,127
27369,note_on,0,0,0,,8,,,56,127
27768,note_off,399,0,0,,1,,,73,127
27768,note_off,0,0,0,,4,,,76,127
27770,note_on,2,0,0,,0,,,72,127
27770,note_on,0,0,0,,3,,,75,127
27770,note_on,0,0,0,,8,,,68,127
28100,note_off,330,0,0,,8,,,56,127
28135,note_off,35,0,0,,8,,,68,127
28135,note_off,0,0,0,,0,,,72,127
28175,note_off,40,0,0,,3,,,75,127
28179,note_on,4,0,0,,1,,,73,127
28179,note_on,0,0,0,,10,,,69,127
28310,note_off,131,0,0,,1,,,73,127
28312,note_on,2,0,0,,3,,,75,127
28443,note_off,131,0,0,,3,,,75,127
28445,note_on,2,0,0,,4,,,76,127
28576,note_off,131,0,0,,4,,,76,127
28576,note_off,0,0,0,,10,,,69,127
28578,note_on,2,0,0,,6,,,78,127
28578,note_on,0,0,0,,6,,,66,127
28709,note_off,131,0,0,,6,,,78,127
28711,note_on,2,0,0,,8,,,80,127
28842,note_off,131,0,0,,8,,,80,127
28844,note_on,2,0,0,,10,,,81,127
28975,note_off,131,0,0,,10,,,81,127
28975,note_off,0,0,0,,6,,,66,127
28977,note_on,2,0,0,,4,,,76,127
28977,note_on,0,0,0,,1,,,73,127
28977,note_on,0,0,0,,8,,,56,127
29376,note_off,399,0,0,,8,,,56,127
29376,note_off,0,0,0,,1,,,73,127
29376,note_off,0,0,0,,4,,,76,127
29378,note_on,2,0,0,,3,,,75,127
29378,note_on,0,0,0,,0,,,72,127
29378,note_on,0,0,0,,8,,,68,127
29777,note_off,399,0,0,,8,,,68,127
29777,note_off,0,0,0,,0,,,72,127
29787,note_on,10,0,0,,1,,,73,127
29787,note_on,0,0,0,,10,,,69,127
29802,note_off,15,0,0,,3,,,75,127
29919,note_off,117,0,0,,1,,,73,127
29921,note_on,2,0,0,,3,,,75,127
30052,note_off,131,0,0,,3,,,75,127
30054,note_on,2,0,0,,4,,,76,127
30185,note_off,131,0,0,,4,,,76,127
30185,note_off,0,0,0,,10,,,69,127
30187,note_on,2,0,0,,6,,,78,127
30187,note_on,0,0,0,,6,,,66,127
30318,note_off,131,0,0,,6,,,78,127
30320,note_on,2,0,0,,8,,,80,127
30451,note_off,131,0,0,,8,,,80,127
30453,note_on,2,0,0,,10,,,81,127
30584,note_off,131,0,0,,10,,,81,127
30584,note_off,0,0,0,,6,,,66,127
30586,note_on,2,0,0,,4,,,76,127
30586,note_on,0,0,0,,1,,,73,127
30586,note_on,0,0,0,,8,,,68,127
30941,note_off,355,0,0,,4,,,76,127
30985,note_off,44,0,0,,8,,,68,127
30985,note_off,0,0,0,,1,,,73,127
30987,note_on,2,0,0,,2,,,74,127
30987,note_on,0,0,0,,12,,,71,127
30987,note_on,0,0,0,,6,,,66,127
31386,note_off,399,0,0,,6,,,66,127
31386,note_off,0,0,0,,12,,,71,127
31386,note_off,0,0,0,,2,,,74,127
31388,note_on,2,0,0,,12,,,71,127
31388,note_on,0,0,0,,1,,,73,127
31388,note_on,0,0,0,,8,,,68,127
31388,note_on,0,0,0,,5,,,65,127
31787,note_off,399,0,0,,5,,,65,127
31787,note_off,0,0,0,,8,,,68,127
31787,note_off,0,0,0,,1,,,73,127
31789,note_on,2,0,0,,8,,,80,127
31789,note_on,0,0,0,,8,,,68,127
31789,note_on,0,0,0,,5,,,65,127
32188,note_off,399,0,0,,5,,,65,127
32188,note_off,0,0,0,,8,,,68,127
32189,note_off,1,0,0,,12,,,71,127
32190,note_on,1,0,0,,10,,,69,127
32190,note_on,0,0,0,,6,,,66,127
32520,note_off,330,0,0,,8,,,80,127
32589,note_off,69,0,0,,6,,,66,127
32589,note_off,0,0,0,,10,,,69,127
32591,note_on,2,0,0,,10,,,81,127
32591,note_on,0,0,0,,6,,,66,127
32591,note_on,0,0,0,,10,,,69,127
32722,note_off,131,0,0,,10,,,81,127
32724,note_on,2,0,0,,2,,,74,127
32855,note_off,131,0,0,,2,,,74,127
32857,note_on,2,0,0,,12,,,71,127
32988,note_off,131,0,0,,12,,,71,127
32988,note_off,0,0,0,,10,,,69,127
32988,note_off,0,0,0,,6,,,66,127
32990,note_on,2,0,0,,1,,,73,127
32990,note_on,0,0,0,,8,,,68,127
32990,note_on,0,0,0,,5,,,65,127
33389,note_off,399,0,0,,5,,,65,127
33389,note_off,0,0,0,,8,,,68,127
33389,note_off,0,0,0,,1,,,73,127
33391,note_on,2,0,0,,8,,,80,127
33391,note_on,0,0,0,,5,,,65,127
33391,note_on,0,0,0,,8,,,68,127
33790,note_off,399,0,0,,8,,,68,127
33790,note_off,0,0,0,,5,,,65,127
33792,note_on,2,0,0,,6,,,66,127
33792,note_on,0,0,0,,10,,,69,127
34191,note_off,399,0,0,,10,,,69,127
34191,note_off,0,0,0,,6,,,66,127
34191,note_off,0,0,0,,8,,,80,127
34193,note_on,2,0,0,,10,,,81,127
34193,note_on,0,0,0,,6,,,66,127
34193,note_on,0,0,0,,10,,,69,127
34324,note_off,131,0,0,,10,,,81,127
34326,note_on,2,0,0,,2,,,74,127
34457,note_off,131,0,0,,2,,,74,127
34459,note_on,2,0,0,,12,,,71,127
34590,note_off,131,0,0,,12,,,71,127
34590,note_off,0,0,0,,10,,,69,127
34590,note_off,0,0,0,,6,,,66,127
34592,note_on,2,0,0,,1,,,73,127
34592,note_on,0,0,0,,8,,,68,127
34592,note_on,0,0,0,,5,,,65,127
34991,note_off,399,0,0,,5,,,65,127
34991,note_off,0,0,0,,8,,,68,127
34991,note_off,0,0,0,,1,,,73,127
34993,note_on,2,0,0,,10,,,81,127
34993,note_on,0,0,0,,10,,,69,127
34993,note_on,0,0,0,,6,,,66,127
35127,note_on,134,0,0,,1,,,73,127
35254,note_off,127,0,0,,10,,,69,127
35258,note_off,4,0,0,,1,,,73,127
35260,note_on,2,0,0,,10,,,69,127
35389,note_off,129,0,0,,10,,,81,127
35391,note_off,2,0,0,,10,,,69,127
35391,note_off,0,0,0,,6,,,66,127
35393,note_on,2,0,0,,12,,,71,127
35393,note_on,0,0,0,,6,,,66,127
35393,note_on,0,0,0,,3,,,63,127
35792,note_off,399,0,0,,3,,,63,127
35792,note_off,0,0,0,,6,,,66,127
35792,note_off,0,0,0,,12,,,71,127
35794,note_on,2,0,0,,8,,,80,127
35794,note_on,0,0,0,,8,,,68,127
35794,note_on,0,0,0,,4,,,64,127
35928,note_on,134,0,0,,12,,,71,127
36055,note_off,127,0,0,,8,,,68,127
36059,note_off,4,0,0,,12,,,71,127
36061,note_on,2,0,0,,8,,,68,127
36190,note_off,129,0,0,,8,,,80,127
36192,note_off,2,0,0,,8,,,68,127
36192,note_off,0,0,0,,4,,,64,127
36194,note_on,2,0,0,,10,,,69,127
36194,note_on,0,0,0,,4,,,64,127
36194,note_on,0,0,0,,1,,,61,127
36593,note_off,399,0,0,,1,,,61,127
36593,note_off,0,0,0,,4,,,64,127
36593,note_off,0,0,0,,10,,,69,127
36595,note_on,2,0,0,,6,,,78,127
36595,note_on,0,0,0,,6,,,66,127
36595,note_on,0,0,0,,3,,,63,127
36729,note_on,134,0,0,,10,,,69,127
36856,note_off,127,0,0,,6,,,66,127
36860,note_off,4,0,0,,10,,,69,127
36862,note_on,2,0,0,,6,,,66,127
36950,note_off,88,0,0,,6,,,78,127
36994,note_off,44,0,0,,6,,,66,127
36994,note_off,0,0,0,,3,,,63,127
36996,note_on,2,0,0,,8,,,68,127
36996,note_on,0,0,0,,3,,,63,127
36996,note_on,0,0,0,,0,,,60,127
37395,note_off,399,0,0,,0,,,60,127
37395,note_off,0,0,0,,3,,,63,127
37395,note_off,0,0,0,,8,,,68,127
37397,note_on,2,0,0,,4,,,76,127
37397,note_on,0,0,0,,4,,,64,127
37397,note_on,0,0,0,,1,,,61,127
37531,note_on,134,0,0,,8,,,68,127
37658,note_off,127,0,0,,4,,,64,127
37662,note_off,4,0,0,,8,,,68,127
37664,note_on,2,0,0,,4,,,64,127
37795,note_off,131,0,0,,4,,,64,127
37795,note_off,0,0,0,,1,,,61,127
37797,note_on,2,0,0,,6,,,66,127
37797,note_on,0,0,0,,1,,,61,127
37797,note_on,0,0,0,,10,,,57,127
37995,note_off,198,0,0,,4,,,76,127
38195,note_off,200,0,0,,10,,,57,127
38195,note_off,0,0,0,,1,,,61,127
38195,note_off,0,0,0,,6,,,66,127
38197,note_on,2,0,0,,3,,,75,127
38197,note_on,0,0,0,,3,,,63,127
38197,note_on,0,0,0,,10,,,57,127
38197,note_on,0,0,0,,12,,,59,127
38596,note_off,399,0,0,,12,,,59,127
38596,note_off,0,0,0,,10,,,57,127
38596,note_off,0,0,0,,3,,,63,127
38596,note_off,0,0,0,,3,,,75,127
38598,note_on,2,0,0,,4,,,76,127
38598,note_on,0,0,0,,4,,,64,127
38598,note_on,0,0,0,,8,,,56,127
38598,note_on,0,0,0,,12,,,59,127
38997,note_off,399,0,0,,12,,,59,127
38997,note_off,0,0,0,,8,,,56,127
38997,note_off,0,0,0,,4,,,64,127
38997,note_off,0,0,0,,4,,,76,127
38999,note_on,2,0,0,,8,,,80,127
38999,note_on,0,0,0,,3,,,63,127
38999,note_on,0,0,0,,12,,,59,127
38999,note_on,0,0,0,,10,,,57,127
38999,note_on,0,0,0,,6,,,54,127
39064,note_off,65,0,0,,8,,,80,127
39066,note_on,2,0,0,,6,,,78,127
39131,note_off,65,0,0,,6,,,78,127
39133,note_on,2,0,0,,8,,,80,127
39198,note_off,65,0,0,,8,,,80,127
39200,note_on,2,0,0,,6,,,78,127
39265,note_off,65,0,0,,6,,,78,127
39267,note_on,2,0,0,,4,,,76,127
39332,note_off,65,0,0,,4,,,76,127
39334,note_on,2,0,0,,6,,,78,127
39399,note_off,65,0,0,,6,,,78,127
39399,note_off,0,0,0,,6,,,54,127
39399,note_off,0,0,0,,10,,,57,127
39399,note_off,0,0,0,,12,,,59,127
39399,note_off,0,0,0,,3,,,63,127
39401,note_on,2,0,0,,10,,,81,127
39401,note_on,0,0,0,,12,,,59,127
39401,note_on,0,0,0,,8,,,56,127
39401,note_on,0,0,0,,4,,,52,127
39466,note_off,65,0,0,,10,,,81,127
39468,note_on,2,0,0,,8,,,80,127
39533,note_off,65,0,0,,8,,,80,127
39535,note_on,2,0,0,,10,,,81,127
39600,note_off,65,0,0,,10,,,81,127
39602,note_on,2,0,0,,8,,,80,127
39667,note_off,65,0,0,,8,,,80,127
39669,note_on,2,0,0,,6,,,78,127
39734,note_off,65,0,0,,6,,,78,127
39736,note_on,2,0,0,,8,,,80,127
39801,note_off,65,0,0,,8,,,80,127
39801,note_off,0,0,0,,4,,,52,127
39801,note_off,0,0,0,,8,,,56,127
39801,note_off,0,0,0,,12,,,59,127
39803,note_on,2,0,0,,12,,,83,127
39803,note_on,0,0,0,,1,,,49,127
39803,note_on,0,0,0,,4,,,52,127
39868,note_off,65,0,0,,12,,,83,127
39870,note_on,2,0,0,,11,,,82,127
39935,note_off,65,0,0,,11,,,82,127
39937,note_on,2,0,0,,12,,,83,127
40002,note_off,65,0,0,,12,,,83,127
40004,note_on,2,0,0,,11,,,82,127
40069,note_off,65,0,0,,11,,,82,127
40071,note_on,2,0,0,,8,,,80,127
40136,note_off,65,0,0,,8,,,80,127
40138,note_on,2,0,0,,11,,,82,127
40203,note_off,65,0,0,,11,,,82,127
40203,note_off,0,0,0,,4,,,52,127
40203,note_off,0,0,0,,1,,,49,127
40205,note_on,2,0,0,,12,,,83,127
40205,note_on,0,0,0,,12,,,47,127
40560,note_off,355,0,0,,12,,,47,127
40605,note_off,45,0,0,,12,,,83,127
40614,note_on,9,0,0,,12,,,83,127
40614,note_on,0,0,0,,4,,,76,127
40745,note_off,131,0,0,,4,,,76,127
40747,note_on,2,0,0,,12,,,71,127
40878,note_off,131,0,0,,12,,,71,127
40880,note_on,2,0,0,,8,,,68,127
41011,note_off,131,0,0,,8,,,68,127
41011,note_off,0,0,0,,12,,,83,127
41013,note_on,2,0,0,,12,,,83,127
41013,note_on,0,0,0,,4,,,64,127
41144,note_off,131,0,0,,4,,,64,127
41146,note_on,2,0,0,,12,,,59,127
41277,note_off,131,0,0,,12,,,59,127
41279,note_on,2,0,0,,8,,,56,127
41410,note_off,131,0,0,,8,,,56,127
41410,note_off,0,0,0,,12,,,83,127
41412,note_on,2,0,0,,8,,,80,127
41412,note_on,0,0,0,,10,,,81,127
41412,note_on,0,0,0,,4,,,52,127
41543,note_off,131,0,0,,4,,,52,127
41543,note_off,0,0,0,,10,,,81,127
41543,note_off,0,0,0,,8,,,80,127
41545,note_on,2,0,0,,6,,,78,127
41545,note_on,0,0,0,,12,,,47,127
41676,note_off,131,0,0,,12,,,47,127
41676,note_off,0,0,0,,6,,,78,127
41678,note_on,2,0,0,,4,,,76,127
41678,note_on,0,0,0,,8,,,44,127
41809,note_off,131,0,0,,8,,,44,127
41809,note_off,0,0,0,,4,,,76,127
41811,note_on,2,0,0,,6,,,78,127
41811,note_on,0,0,0,,12,,,35,127
42166,note_off,355,0,0,,12,,,35,127
42210,note_off,44,0,0,,6,,,78,127
42212,note_on,2,0,0,,12,,,83,127
42212,note_on,0,0,0,,4,,,76,127
42343,note_off,131,0,0,,4,,,76,127
42345,note_on,2,0,0,,12,,,71,127
42476,note_off,131,0,0,,12,,,71,127
42478,note_on,2,0,0,,8,,,68,127
42609,note_off,131,0,0,,8,,,68,127
42609,note_off,0,0,0,,12,,,83,127
42611,note_on,2,0,0,,12,,,83,127
42611,note_on,0,0,0,,4,,,64,127
42742,note_off,131,0,0,,4,,,64,127
42744,note_on,2,0,0,,12,,,59,127
42875,note_off,131,0,0,,12,,,59,127
42877,note_on,2,0,0,,8,,,56,127
43008,note_off,131,0,0,,8,,,56,127
43008,note_off,0,0,0,,12,,,83,127
43010,note_on,2,0,0,,8,,,80,127
43010,note_on,0,0,0,,10,,,81,127
43010,note_on,0,0,0,,4,,,52,127
43141,note_off,131,0,0,,4,,,52,127
43141,note_off,0,0,0,,10,,,81,127
43141,note_off,0,0,0,,8,,,80,127
43143,note_on,2,0,0,,6,,,78,127
43143,note_on,0,0,0,,12,,,47,127
43274,note_off,131,0,0,,12,,,47,127
43274,note_off,0,0,0,,6,,,78,127
43276,note_on,2,0,0,,4,,,76,127
43276,note_on,0,0,0,,8,,,44,127
43407,note_off,131,0,0,,8,,,44,127
43407,note_off,0,0,0,,4,,,76,127
43409,note_on,2,0,0,,6,,,78,127
43409,note_on,0,0,0,,12,,,35,127
43808,note_off,399,0,0,,12,,,35,127
43808,note_off,0,0,0,,6,,,78,127
43810,note_on,2,0,0,,12,,,59,127
43810,note_on,0,0,0,,12,,,47,127
43941,note_off,131,0,0,,12,,,59,127
43943,note_on,2,0,0,,3,,,63,127
44074,note_off,131,0,0,,3,,,63,127
44076,note_on,2,0,0,,6,,,66,127
44207,note_off,131,0,0,,6,,,66,127
44207,note_off,0,0,0,,12,,,47,127
44209,note_on,2,0,0,,12,,,71,127
44209,note_on,0,0,0,,12,,,47,127
44340,note_off,131,0,0,,12,,,71,127
44342,note_on,2,0,0,,3,,,75,127
44473,note_off,131,0,0,,3,,,75,127
44475,note_on,2,0,0,,6,,,78,127
44606,note_off,131,0,0,,6,,,78,127
44606,note_off,0,0,0,,12,,,47,127
44608,note_on,2,0,0,,12,,,71,127
44608,note_on,0,0,0,,6,,,78,127
44608,note_on,0,0,0,,10,,,81,127
44608,note_on,0,0,0,,3,,,75,127
44608,note_on,0,0,0,,12,,,47,127
45007,note_off,399,0,0,,12,,,47,127
45007,note_off,0,0,0,,3,,,75,127
45007,note_off,0,0,0,,10,,,81,127
45007,note_off,0,0,0,,6,,,78,127
45007,note_off,0,0,0,,12,,,71,127
45009,note_on,2,0,0,,12,,,71,127
45009,note_on,0,0,0,,4,,,76,127
45009,note_on,0,0,0,,8,,,80,127
45009,note_on,0,0,0,,4,,,52,127
45009,note_on,0,0,0,,4,,,40,127
45408,note_off,399,0,0,,4,,,40,127
45408,note_off,0,0,0,,4,,,52,127
45408,note_off,0,0,0,,8,,,80,127
45408,note_off,0,0,0,,4,,,76,127
45408,note_off,0,0,0,,12,,,71,127
45410,note_on,2,0,0,,12,,,59,127
45410,note_on,0,0,0,,12,,,47,127
45541,note_off,131,0,0,,12,,,59,127
45543,note_on,2,0,0,,3,,,63,127
45674,note_off,131,0,0,,3,,,63,127
45676,note_on,2,0,0,,6,,,66,127
45807,note_off,131,0,0,,6,,,66,127
45807,note_off,0,0,0,,12,,,47,127
45809,note_on,2,0,0,,12,,,71,127
45809,note_on,0,0,0,,12,,,47,127
45940,note_off,131,0,0,,12,,,71,127
45942,note_on,2,0,0,,3,,,75,127
46073,note_off,131,0,0,,3,,,75,127
46075,note_on,2,0,0,,6,,,78,127
46206,note_off,131,0,0,,6,,,78,127
46206,note_off,0,0,0,,12,,,47,127
46208,note_on,2,0,0,,12,,,71,127
46208,note_on,0,0,0,,10,,,81,127
46208,note_on,0,0,0,,3,,,75,127
46208,note_on,0,0,0,,6,,,78,127
46208,note_on,0,0,0,,12,,,47,127
46597,note_off,389,0,0,,12,,,47,127
46606,note_off,9,0,0,,6,,,78,127
46606,note_off,0,0,0,,3,,,75,127
46606,note_off,0,0,0,,10,,,81,127
46606,note_off,0,0,0,,12,,,71,127
46608,note_on,2,0,0,,8,,,80,127
46608,note_on,0,0,0,,12,,,71,127
46608,note_on,0,0,0,,4,,,52,127
46608,note_on,0,0,0,,4,,,40,127
46739,note_off,131,0,0,,8,,,80,127
46741,note_on,2,0,0,,6,,,78,127
46872,note_off,131,0,0,,6,,,78,127
46874,note_on,2,0,0,,8,,,80,127
47003,note_off,129,0,0,,12,,,71,127
47005,note_off,2,0,0,,8,,,80,127
47005,note_off,0,0,0,,4,,,40,127
47005,note_off,0,0,0,,4,,,52,127
47007,note_on,2,0,0,,1,,,73,127
47007,note_on,0,0,0,,12,,,83,127
47007,note_on,0,0,0,,10,,,81,127
47007,note_on,0,0,0,,10,,,57,127
47007,note_on,0,0,0,,10,,,45,127
47138,note_off,131,0,0,,10,,,81,127
47138,note_off,0,0,0,,12,,,83,127
47140,note_on,2,0,0,,8,,,80,127
47271,note_off,131,0,0,,8,,,80,127
47273,note_on,2,0,0,,6,,,78,127
47402,note_off,129,0,0,,1,,,73,127
47404,note_off,2,0,0,,6,,,78,127
47404,note_off,0,0,0,,10,,,45,127
47404,note_off,0,0,0,,10,,,57,127
47406,note_on,2,0,0,,12,,,71,127
47406,note_on,0,0,0,,4,,,76,127
47406,note_on,0,0,0,,12,,,47,127
47406,note_on,0,0,0,,12,,,59,127
47554,note_off,148,0,0,,4,,,76,127
47556,note_on,2,0,0,,6,,,78,127
47604,note_off,48,0,0,,6,,,78,127
47606,note_on,2,0,0,,4,,,76,127
47654,note_off,48,0,0,,4,,,76,127
47656,note_on,2,0,0,,3,,,75,127
47704,note_off,48,0,0,,3,,,75,127
47706,note_on,2,0,0,,4,,,76,127
47754,note_off,48,0,0,,4,,,76,127
47756,note_on,2,0,0,,6,,,78,127
47802,note_off,46,0,0,,12,,,71,127
47804,note_off,2,0,0,,6,,,78,127
47804,note_off,0,0,0,,12,,,47,127
47806,note_on,2,0,0,,8,,,80,127
47806,note_on,0,0,0,,12,,,47,127
47871,note_off,65,0,0,,8,,,80,127
47873,note_on,2,0,0,,6,,,78,127
47938,note_off,65,0,0,,6,,,78,127
47940,note_on,2,0,0,,8,,,80,127
48005,note_off,65,0,0,,8,,,80,127
48007,note_on,2,0,0,,6,,,78,127
48072,note_off,65,0,0,,6,,,78,127
48074,note_on,2,0,0,,8,,,80,127
48139,note_off,65,0,0,,8,,,80,127
48141,note_on,2,0,0,,6,,,78,127
48206,note_off,65,0,0,,6,,,78,127
48206,note_off,0,0,0,,12,,,47,127
48207,note_off,1,0,0,,12,,,59,127
48208,note_on,1,0,0,,4,,,76,127
48208,note_on,0,0,0,,4,,,52,127
48208,note_on,0,0,0,,4,,,40,127
48584,note_off,376,0,0,,4,,,40,127
48584,note_off,0,0,0,,4,,,52,127
48609,note_off,25,0,0,,4,,,76,127
48626,note_on,17,0,0,,8,,,80,127
48626,note_on,0,0,0,,4,,,76,127
48757,note_off,131,0,0,,4,,,76,127
48757,note_off,0,0,0,,8,,,80,127
48759,note_on,2,0,0,,10,,,81,127
48759,note_on,0,0,0,,12,,,71,127
48890,note_off,131,0,0,,12,,,71,127
48890,note_off,0,0,0,,10,,,81,127
48892,note_on,2,0,0,,12,,,83,127
48892,note_on,0,0,0,,8,,,68,127
49023,note_off,131,0,0,,8,,,68,127
49023,note_off,0,0,0,,12,,,83,127
49025,note_on,2,0,0,,12,,,83,127
49025,note_on,0,0,0,,4,,,64,127
49156,note_off,131,0,0,,4,,,64,127
49156,note_off,0,0,0,,12,,,83,127
49158,note_on,2,0,0,,10,,,81,127
49158,note_on,0,0,0,,12,,,59,127
49289,note_off,131,0,0,,12,,,59,127
49289,note_off,0,0,0,,10,,,81,127
49291,note_on,2,0,0,,8,,,80,127
49291,note_on,0,0,0,,8,,,56,127
49422,note_off,131,0,0,,8,,,56,127
49422,note_off,0,0,0,,8,,,80,127
49424,note_on,2,0,0,,8,,,80,127
49424,note_on,0,0,0,,4,,,52,127
49555,note_off,131,0,0,,4,,,52,127
49555,note_off,0,0,0,,8,,,80,127
49557,note_on,2,0,0,,6,,,78,127
49557,note_on,0,0,0,,12,,,47,127
49688,note_off,131,0,0,,12,,,47,127
49688,note_off,0,0,0,,6,,,78,127
49690,note_on,2,0,0,,4,,,76,127
49690,note_on,0,0,0,,8,,,44,127
49821,note_off,131,0,0,,8,,,44,127
49821,note_off,0,0,0,,4,,,76,127
49823,note_on,2,0,0,,6,,,78,127
49823,note_on,0,0,0,,12,,,35,127
50178,note_off,355,0,0,,12,,,35,127
50222,note_off,44,0,0,,6,,,78,127
50224,note_on,2,0,0,,8,,,80,127
50224,note_on,0,0,0,,4,,,76,127
50355,note_off,131,0,0,,4,,,76,127
50355,note_off,0,0,0,,8,,,80,127
50357,note_on,2,0,0,,10,,,81,127
50357,note_on,0,0,0,,12,,,71,127
50488,note_off,131,0,0,,12,,,71,127
50488,note_off,0,0,0,,10,,,81,127
50490,note_on,2,0,0,,12,,,83,127
50490,note_on,0,0,0,,8,,,68,127
50621,note_off,131,0,0,,8,,,68,127
50621,note_off,0,0,0,,12,,,83,127
50623,note_on,2,0,0,,12,,,83,127
50623,note_on,0,0,0,,4,,,64,127
50754,note_off,131,0,0,,4,,,64,127
50754,note_off,0,0,0,,12,,,83,127
50756,note_on,2,0,0,,10,,,81,127
50756,note_on,0,0,0,,12,,,59,127
50887,note_off,131,0,0,,12,,,59,127
50887,note_off,0,0,0,,10,,,81,127
50889,note_on,2,0,0,,8,,,80,127
50889,note_on,0,0,0,,8,,,56,127
51020,note_off,131,0,0,,8,,,56,127
51020,note_off,0,0,0,,8,,,80,127
51022,note_on,2,0,0,,8,,,80,127
51022,note_on,0,0,0,,4,,,52,127
51153,note_off,131,0,0,,4,,,52,127
51153,note_off,0,0,0,,8,,,80,127
51155,note_on,2,0,0,,6,,,78,127
51155,note_on,0,0,0,,12,,,47,127
51286,note_off,131,0,0,,12,,,47,127
51286,note_off,0,0,0,,6,,,78,127
51288,note_on,2,0,0,,4,,,76,127
51288,note_on,0,0,0,,8,,,44,127
51419,note_off,131,0,0,,8,,,44,127
51419,note_off,0,0,0,,4,,,76,127
51421,note_on,2,0,0,,6,,,78,127
51421,note_on,0,0,0,,12,,,35,127
51820,note_off,399,0,0,,12,,,35,127
51820,note_off,0,0,0,,6,,,78,127
51822,note_on,2,0,0,,12,,,59,127
51822,note_on,0,0,0,,12,,,47,127
51956,note_on,134,0,0,,3,,,63,127
52087,note_off,131,0,0,,3,,,63,127
52089,note_on,2,0,0,,6,,,66,127
52218,note_off,129,0,0,,12,,,59,127
52220,note_off,2,0,0,,6,,,66,127
52220,note_off,0,0,0,,12,,,47,127
52222,note_on,2,0,0,,12,,,71,127
52222,note_on,0,0,0,,12,,,47,127
52353,note_off,131,0,0,,12,,,71,127
52355,note_on,2,0,0,,3,,,75,127
52486,note_off,131,0,0,,3,,,75,127
52488,note_on,2,0,0,,6,,,78,127
52619,note_off,131,0,0,,6,,,78,127
52619,note_off,0,0,0,,12,,,47,127
52621,note_on,2,0,0,,3,,,75,127
52621,note_on,0,0,0,,12,,,71,127
52621,note_on,0,0,0,,10,,,81,127
52621,note_on,0,0,0,,6,,,78,127
52621,note_on,0,0,0,,12,,,47,127
53020,note_off,399,0,0,,12,,,47,127
53020,note_off,0,0,0,,6,,,78,127
53020,note_off,0,0,0,,10,,,81,127
53020,note_off,0,0,0,,12,,,71,127
53020,note_off,0,0,0,,3,,,75,127
53022,note_on,2,0,0,,4,,,76,127
53022,note_on,0,0,0,,8,,,80,127
53022,note_on,0,0,0,,12,,,71,127
53022,note_on,0,0,0,,4,,,40,127
53022,note_on,0,0,0,,4,,,52,127
53421,note_off,399,0,0,,4,,,52,127
53421,note_off,0,0,0,,4,,,40,127
53421,note_off,0,0,0,,12,,,71,127
53421,note_off,0,0,0,,8,,,80,127
53421,note_off,0,0,0,,4,,,76,127
53423,note_on,2,0,0,,12,,,59,127
53423,note_on,0,0,0,,12,,,47,127
53554,note_off,131,0,0,,12,,,59,127
53556,note_on,2,0,0,,3,,,63,127
53687,note_off,131,0,0,,3,,,63,127
53689,note_on,2,0,0,,6,,,66,127
53820,note_off,131,0,0,,6,,,66,127
53820,note_off,0,0,0,,12,,,47,127
53822,note_on,2,0,0,,12,,,71,127
53822,note_on,0,0,0,,12,,,47,127
53953,note_off,131,0,0,,12,,,71,127
53955,note_on,2,0,0,,3,,,75,127
54086,note_off,131,0,0,,3,,,75,127
54088,note_on,2,0,0,,6,,,78,127
54219,note_off,131,0,0,,6,,,78,127
54219,note_off,0,0,0,,12,,,47,127
54221,note_on,2,0,0,,12,,,71,127
54221,note_on,0,0,0,,3,,,75,127
54221,note_on,0,0,0,,10,,,81,127
54221,note_on,0,0,0,,6,,,78,127
54221,note_on,0,0,0,,12,,,47,127
54620,note_off,399,0,0,,12,,,47,127
54620,note_off,0,0,0,,6,,,78,127
54620,note_off,0,0,0,,10,,,81,127
54620,note_off,0,0,0,,3,,,75,127
54620,note_off,0,0,0,,12,,,71,127
54622,note_on,2,0,0,,12,,,71,127
54622,note_on,0,0,0,,8,,,80,127
54622,note_on,0,0,0,,10,,,81,127
54622,note_on,0,0,0,,4,,,52,127
54622,note_on,0,0,0,,4,,,40,127
54753,note_off,131,0,0,,10,,,81,127
54753,note_off,0,0,0,,8,,,80,127
54755,note_on,2,0,0,,6,,,78,127
54886,note_off,131,0,0,,6,,,78,127
54888,note_on,2,0,0,,8,,,80,127
55017,note_off,129,0,0,,12,,,71,127
55019,note_off,2,0,0,,8,,,80,127
55019,note_off,0,0,0,,4,,,40,127
55019,note_off,0,0,0,,4,,,52,127
55021,note_on,2,0,0,,10,,,81,127
55021,note_on,0,0,0,,1,,,73,127
55021,note_on,0,0,0,,12,,,83,127
55021,note_on,0,0,0,,10,,,57,127
55152,note_off,131,0,0,,12,,,83,127
55152,note_off,0,0,0,,10,,,81,127
55154,note_on,2,0,0,,8,,,80,127
55285,note_off,131,0,0,,8,,,80,127
55287,note_on,2,0,0,,6,,,78,127
55416,note_off,129,0,0,,1,,,73,127
55418,note_off,2,0,0,,6,,,78,127
55418,note_off,0,0,0,,10,,,57,127
55420,note_on,2,0,0,,12,,,71,127
55420,note_on,0,0,0,,4,,,76,127
55420,note_on,0,0,0,,12,,,59,127
55568,note_off,148,0,0,,4,,,76,127
55570,note_on,2,0,0,,6,,,78,127
55618,note_off,48,0,0,,6,,,78,127
55620,note_on,2,0,0,,4,,,76,127
55668,note_off,48,0,0,,4,,,76,127
55670,note_on,2,0,0,,3,,,75,127
55718,note_off,48,0,0,,3,,,75,127
55720,note_on,2,0,0,,4,,,76,127
55768,note_off,48,0,0,,4,,,76,127
55770,note_on,2,0,0,,6,,,78,127
55816,note_off,46,0,0,,12,,,71,127
55818,note_off,2,0,0,,6,,,78,127
55818,note_off,0,0,0,,12,,,59,127
55820,note_on,2,0,0,,8,,,80,127
55820,note_on,0,0,0,,12,,,59,127
55885,note_off,65,0,0,,8,,,80,127
55887,note_on,2,0,0,,6,,,78,127
55952,note_off,65,0,0,,6,,,78,127
55954,note_on,2,0,0,,8,,,80,127
56019,note_off,65,0,0,,8,,,80,127
56021,note_on,2,0,0,,6,,,78,127
56086,note_off,65,0,0,,6,,,78,127
56088,note_on,2,0,0,,8,,,80,127
56153,note_off,65,0,0,,8,,,80,127
56155,note_on,2,0,0,,6,,,78,127
56220,note_off,65,0,0,,6,,,78,127
56236,note_off,16,0,0,,12,,,59,127
56239,note_on,3,0,0,,1,,,61,127
56239,note_on,0,0,0,,3,,,75,127
56370,note_off,131,0,0,,3,,,75,127
56372,note_on,2,0,0,,4,,,76,127
56503,note_off,131,0,0,,4,,,76,127
56505,note_on,2,0,0,,12,,,71,127
56636,note_off,131,0,0,,12,,,71,127
56636,note_off,0,0,0,,1,,,61,127
56638,note_on,2,0,0,,10,,,57,127
56638,note_on,0,0,0,,1,,,73,127
56769,note_off,131,0,0,,1,,,73,127
56771,note_on,2,0,0,,10,,,69,127
56902,note_off,131,0,0,,10,,,69,127
56904,note_on,2,0,0,,6,,,66,127
57035,note_off,131,0,0,,6,,,66,127
57035,note_off,0,0,0,,10,,,57,127
57037,note_on,2,0,0,,12,,,59,127
57037,note_on,0,0,0,,4,,,64,127
57185,note_off,148,0,0,,4,,,64,127
57187,note_on,2,0,0,,6,,,66,127
57235,note_off,48,0,0,,6,,,66,127
57237,note_on,2,0,0,,4,,,64,127
57285,note_off,48,0,0,,4,,,64,127
57287,note_on,2,0,0,,3,,,63,127
57335,note_off,48,0,0,,3,,,63,127
57337,note_on,2,0,0,,4,,,64,127
57385,note_off,48,0,0,,4,,,64,127
57387,note_on,2,0,0,,6,,,66,127
57435,note_off,48,0,0,,6,,,66,127
57437,note_on,2,0,0,,12,,,47,127
57437,note_on,0,0,0,,8,,,68,127
57502,note_off,65,0,0,,8,,,68,127
57504,note_on,2,0,0,,6,,,66,127
57569,note_off,65,0,0,,6,,,66,127
57571,note_on,2,0,0,,8,,,68,127
57636,note_off,65,0,0,,8,,,68,127
57638,note_on,2,0,0,,6,,,66,127
57703,note_off,65,0,0,,6,,,66,127
57705,note_on,2,0,0,,4,,,64,127
57836,note_off,131,0,0,,4,,,64,127
57836,note_off,0,0,0,,12,,,47,127
57837,note_off,1,0,0,,12,,,59,127
57838,note_on,1,0,0,,4,,,52,127
57838,note_on,0,0,0,,4,,,64,127
58239,note_on,401,0,0,,4,,,76,127
58569,note_off,330,0,0,,4,,,64,127
58638,note_off,69,0,0,,4,,,76,127
58640,note_on,2,0,0,,10,,,69,127
58738,note_off,98,0,0,,10,,,69,127
58740,note_on,2,0,0,,8,,,68,127
58838,note_off,98,0,0,,8,,,68,127
58840,note_on,2,0,0,,10,,,69,127
58938,note_off,98,0,0,,10,,,69,127
58940,note_on,2,0,0,,8,,,68,127
59038,note_off,98,0,0,,8,,,68,127
59038,note_off,0,0,0,,4,,,52,127
59040,note_on,2,0,0,,4,,,64,127
59040,note_on,0,0,0,,10,,,69,127
59138,note_off,98,0,0,,10,,,69,127
59140,note_on,2,0,0,,8,,,68,127
59238,note_off,98,0,0,,8,,,68,127
59240,note_on,2,0,0,,10,,,69,127
59338,note_off,98,0,0,,10,,,69,127
59340,note_on,2,0,0,,12,,,71,127
59438,note_off,98,0,0,,12,,,71,127
59440,note_on,2,0,0,,6,,,66,127
59839,note_off,399,0,0,,6,,,66,127
59841,note_on,2,0,0,,6,,,78,127
60039,note_off,198,0,0,,4,,,64,127
60041,note_on,2,0,0,,2,,,62,127
60139,note_off,98,0,0,,2,,,62,127
60141,note_on,2,0,0,,1,,,61,127
60239,note_off,98,0,0,,1,,,61,127
60239,note_off,0,0,0,,6,,,78,127
60241,note_on,2,0,0,,2,,,62,127
60241,note_on,0,0,0,,1,,,73,127
60339,note_off,98,0,0,,1,,,73,127
60341,note_on,2,0,0,,12,,,71,127
60439,note_off,98,0,0,,12,,,71,127
60441,note_on,2,0,0,,1,,,73,127
60539,note_off,98,0,0,,1,,,73,127
60541,note_on,2,0,0,,12,,,71,127
60639,note_off,98,0,0,,12,,,71,127
60641,note_on,2,0,0,,1,,,73,127
60739,note_off,98,0,0,,1,,,73,127
60741,note_on,2,0,0,,12,,,71,127
60839,note_off,98,0,0,,12,,,71,127
60841,note_on,2,0,0,,1,,,73,127
60939,note_off,98,0,0,,1,,,73,127
60941,note_on,2,0,0,,2,,,74,127
61039,note_off,98,0,0,,2,,,74,127
61041,note_on,2,0,0,,4,,,64,127
61440,note_off,399,0,0,,4,,,64,127
61440,note_off,0,0,0,,2,,,62,127
61442,note_on,2,0,0,,1,,,61,127
61442,note_on,0,0,0,,4,,,76,127
61640,note_off,198,0,0,,4,,,76,127
61642,note_on,2,0,0,,8,,,68,127
61840,note_off,198,0,0,,8,,,68,127
61842,note_on,2,0,0,,8,,,68,127
62241,note_off,399,0,0,,8,,,68,127
62241,note_off,0,0,0,,1,,,61,127
62243,note_on,2,0,0,,1,,,49,127
62243,note_on,0,0,0,,10,,,69,127
62642,note_off,399,0,0,,1,,,49,127
62644,note_on,2,0,0,,2,,,50,127
62953,note_off,309,0,0,,10,,,69,127
63045,note_on,92,0,0,,2,,,38,127
63045,note_on,0,0,0,,1,,,73,127
63110,note_off,65,0,0,,1,,,73,127
63112,note_on,2,0,0,,12,,,71,127
63177,note_off,65,0,0,,12,,,71,127
63179,note_on,2,0,0,,10,,,69,127
63444,note_off,265,0,0,,10,,,69,127
63444,note_off,0,0,0,,2,,,38,127
63445,note_off,1,0,0,,2,,,50,127
63446,note_on,1,0,0,,4,,,52,127
63446,note_on,0,0,0,,8,,,68,127
63511,note_off,65,0,0,,8,,,68,127
63513,note_on,2,0,0,,6,,,66,127
63578,note_off,65,0,0,,6,,,66,127
63580,note_on,2,0,0,,4,,,64,127
63845,note_off,265,0,0,,4,,,64,127
63847,note_on,2,0,0,,4,,,40,127
63847,note_on,0,0,0,,2,,,62,127
63912,note_off,65,0,0,,2,,,62,127
63914,note_on,2,0,0,,1,,,61,127
63979,note_off,65,0,0,,1,,,61,127
63981,note_on,2,0,0,,12,,,59,127
64246,note_off,265,0,0,,12,,,59,127
64246,note_off,0,0,0,,4,,,40,127
64247,note_off,1,0,0,,4,,,52,127
64248,note_on,1,0,0,,10,,,45,127
64248,note_on,0,0,0,,1,,,61,127
64645,note_off,397,0,0,,1,,,61,127
64647,note_off,2,0,0,,10,,,45,127
64649,note_on,2,0,0,,1,,,61,127
64714,note_off,65,0,0,,1,,,61,127
64716,note_on,2,0,0,,12,,,59,127
64781,note_off,65,0,0,,12,,,59,127
64783,note_on,2,0,0,,10,,,57,127
65048,note_off,265,0,0,,10,,,57,127
65050,note_on,2,0,0,,8,,,56,127
65115,note_off,65,0,0,,8,,,56,127
65117,note_on,2,0,0,,6,,,54,127
65182,note_off,65,0,0,,6,,,54,127
65184,note_on,2,0,0,,4,,,52,127
65449,note_off,265,0,0,,4,,,52,127
65451,note_on,2,0,0,,2,,,50,127
65451,note_on,0,0,0,,4,,,64,127
65451,note_on,0,0,0,,12,,,71,127
65451,note_on,0,0,0,,8,,,68,127
65451,note_on,0,0,0,,2,,,74,127
65516,note_off,65,0,0,,2,,,50,127
65518,note_on,2,0,0,,1,,,49,127
65583,note_off,65,0,0,,1,,,49,127
65585,note_on,2,0,0,,12,,,47,127
65850,note_off,265,0,0,,12,,,47,127
65850,note_off,0,0,0,,2,,,74,127
65850,note_off,0,0,0,,8,,,68,127
65850,note_off,0,0,0,,12,,,71,127
65850,note_off,0,0,0,,4,,,64,127
65852,note_on,2,0,0,,10,,,45,127
65852,note_on,0,0,0,,4,,,64,127
65852,note_on,0,0,0,,1,,,73,127
65852,note_on,0,0,0,,10,,,69,127
66249,note_off,397,0,0,,10,,,69,127
66249,note_off,0,0,0,,1,,,73,127
66249,note_off,0,0,0,,4,,,64,127
66251,note_off,2,0,0,,10,,,45,127
66253,note_on,2,0,0,,1,,,61,127
66318,note_off,65,0,0,,1,,,61,127
66320,note_on,2,0,0,,12,,,59,127
66385,note_off,65,0,0,,12,,,59,127
66387,note_on,2,0,0,,10,,,57,127
66652,note_off,265,0,0,,10,,,57,127
66654,note_on,2,0,0,,8,,,56,127
66719,note_off,65,0,0,,8,,,56,127
66721,note_on,2,0,0,,6,,,54,127
66786,note_off,65,0,0,,6,,,54,127
66788,note_on,2,0,0,,4,,,52,127
67053,note_off,265,0,0,,4,,,52,127
67055,note_on,2,0,0,,2,,,50,127
67055,note_on,0,0,0,,4,,,76,127
67055,note_on,0,0,0,,12,,,71,127
67055,note_on,0,0,0,,8,,,80,127
67120,note_off,65,0,0,,2,,,50,127
67122,note_on,2,0,0,,1,,,49,127
67187,note_off,65,0,0,,1,,,49,127
67189,note_on,2,0,0,,12,,,47,127
67454,note_off,265,0,0,,12,,,47,127
67454,note_off,0,0,0,,8,,,80,127
67454,note_off,0,0,0,,12,,,71,127
67454,note_off,0,0,0,,4,,,76,127
67456,note_on,2,0,0,,10,,,45,127
67456,note_on,0,0,0,,4,,,76,127
67456,note_on,0,0,0,,1,,,73,127
67456,note_on,0,0,0,,10,,,81,127
67855,note_off,399,0,0,,10,,,81,127
67855,note_off,0,0,0,,1,,,73,127
67855,note_off,0,0,0,,4,,,76,127
67868,note_on,13,0,0,,4,,,76,127
68256,note_off,388,0,0,,4,,,76,127
68257,note_off,1,0,0,,10,,,45,127
68258,note_on,1,0,0,,2,,,74,127
68456,note_off,198,0,0,,2,,,74,127
68458,note_on,2,0,0,,1,,,73,127
68656,note_off,198,0,0,,1,,,73,127
68658,note_on,2,0,0,,4,,,52,127
68658,note_on,0,0,0,,4,,,64,127
68658,note_on,0,0,0,,12,,,71,127
68658,note_on,0,0,0,,7,,,79,127
69057,note_off,399,0,0,,12,,,71,127
69057,note_off,0,0,0,,4,,,64,127
69057,note_off,0,0,0,,4,,,52,127
69059,note_on,2,0,0,,6,,,54,127
69059,note_on,0,0,0,,4,,,64,127
69059,note_on,0,0,0,,11,,,70,127
69458,note_off,399,0,0,,11,,,70,127
69458,note_off,0,0,0,,4,,,64,127
69458,note_off,0,0,0,,6,,,54,127
69459,note_off,1,0,0,,7,,,79,127
69460,note_on,1,0,0,,6,,,54,127
69460,note_on,0,0,0,,12,,,59,127
69460,note_on,0,0,0,,2,,,62,127
69460,note_on,0,0,0,,6,,,78,127
69460,note_on,0,0,0,,12,,,71,127
69859,note_off,399,0,0,,12,,,71,127
69859,note_off,0,0,0,,6,,,78,127
69859,note_off,0,0,0,,2,,,62,127
69859,note_off,0,0,0,,12,,,59,127
69859,note_off,0,0,0,,6,,,54,127
69861,note_on,2,0,0,,6,,,54,127
69861,note_on,0,0,0,,12,,,59,127
69861,note_on,0,0,0,,1,,,61,127
69861,note_on,0,0,0,,6,,,78,127
69959,note_off,98,0,0,,6,,,78,127
69961,note_on,2,0,0,,4,,,76,127
70059,note_off,98,0,0,,4,,,76,127
70061,note_on,2,0,0,,6,,,78,127
70159,note_off,98,0,0,,6,,,78,127
70161,note_on,2,0,0,,4,,,76,127
70259,note_off,98,0,0,,4,,,76,127
70259,note_off,0,0,0,,1,,,61,127
70259,note_off,0,0,0,,12,,,59,127
70259,note_off,0,0,0,,6,,,54,127
70261,note_on,2,0,0,,6,,,54,127
70261,note_on,0,0,0,,1,,,61,127
70261,note_on,0,0,0,,11,,,58,127
70261,note_on,0,0,0,,6,,,78,127
70359,note_off,98,0,0,,6,,,78,127
70361,note_on,2,0,0,,4,,,76,127
70459,note_off,98,0,0,,4,,,76,127
70461,note_on,2,0,0,,2,,,74,127
70559,note_off,98,0,0,,2,,,74,127
70561,note_on,2,0,0,,1,,,73,127
70659,note_off,98,0,0,,1,,,73,127
70659,note_off,0,0,0,,11,,,58,127
70659,note_off,0,0,0,,1,,,61,127
70659,note_off,0,0,0,,6,,,54,127
70661,note_on,2,0,0,,12,,,59,127
70661,note_on,0,0,0,,2,,,74,127
70792,note_off,131,0,0,,2,,,74,127
70794,note_on,2,0,0,,1,,,73,127
70925,note_off,131,0,0,,1,,,73,127
70927,note_on,2,0,0,,12,,,71,127
71058,note_off,131,0,0,,12,,,71,127
71060,note_on,2,0,0,,12,,,47,127
71060,note_on,0,0,0,,2,,,74,127
71191,note_off,131,0,0,,2,,,74,127
71193,note_on,2,0,0,,4,,,76,127
71324,note_off,131,0,0,,4,,,76,127
71326,note_on,2,0,0,,6,,,78,127
71457,note_off,131,0,0,,6,,,78,127
71458,note_off,1,0,0,,12,,,59,127
71459,note_on,1,0,0,,2,,,74,127
71459,note_on,0,0,0,,4,,,76,127
71658,note_off,199,0,0,,12,,,47,127
71857,note_off,199,0,0,,4,,,76,127
71857,note_off,0,0,0,,2,,,74,127
71859,note_on,2,0,0,,10,,,57,127
71859,note_on,0,0,0,,6,,,66,127
71859,note_on,0,0,0,,1,,,73,127
71859,note_on,0,0,0,,10,,,81,127
72258,note_off,399,0,0,,1,,,73,127
72258,note_off,0,0,0,,6,,,66,127
72258,note_off,0,0,0,,10,,,57,127
72260,note_on,2,0,0,,8,,,56,127
72260,note_on,0,0,0,,6,,,66,127
72260,note_on,0,0,0,,0,,,72,127
72659,note_off,399,0,0,,0,,,72,127
72659,note_off,0,0,0,,6,,,66,127
72659,note_off,0,0,0,,8,,,56,127
72660,note_off,1,0,0,,10,,,81,127
72661,note_on,1,0,0,,1,,,61,127
72661,note_on,0,0,0,,8,,,56,127
72661,note_on,0,0,0,,4,,,64,127
72661,note_on,0,0,0,,8,,,80,127
72661,note_on,0,0,0,,1,,,73,127
73060,note_off,399,0,0,,1,,,73,127
73060,note_off,0,0,0,,8,,,80,127
73060,note_off,0,0,0,,4,,,64,127
73060,note_off,0,0,0,,8,,,56,127
73060,note_off,0,0,0,,1,,,61,127
73062,note_on,2,0,0,,8,,,56,127
73062,note_on,0,0,0,,3,,,63,127
73062,note_on,0,0,0,,1,,,61,127
73062,note_on,0,0,0,,8,,,80,127
73160,note_off,98,0,0,,8,,,80,127
73162,note_on,2,0,0,,6,,,78,127
73260,note_off,98,0,0,,6,,,78,127
73262,note_on,2,0,0,,8,,,80,127
73360,note_off,98,0,0,,8,,,80,127
73362,note_on,2,0,0,,6,,,78,127
73460,note_off,98,0,0,,6,,,78,127
73460,note_off,0,0,0,,1,,,61,127
73460,note_off,0,0,0,,3,,,63,127
73460,note_off,0,0,0,,8,,,56,127
73462,note_on,2,0,0,,8,,,56,127
73462,note_on,0,0,0,,3,,,63,127
73462,note_on,0,0,0,,0,,,60,127
73462,note_on,0,0,0,,8,,,80,127
73560,note_off,98,0,0,,8,,,80,127
73562,note_on,2,0,0,,6,,,78,127
73660,note_off,98,0,0,,6,,,78,127
73662,note_on,2,0,0,,4,,,76,127
73760,note_off,98,0,0,,4,,,76,127
73762,note_on,2,0,0,,3,,,75,127
73860,note_off,98,0,0,,3,,,75,127
73860,note_off,0,0,0,,0,,,60,127
73860,note_off,0,0,0,,3,,,63,127
73860,note_off,0,0,0,,8,,,56,127
73862,note_on,2,0,0,,1,,,61,127
73862,note_on,0,0,0,,4,,,76,127
73993,note_off,131,0,0,,4,,,76,127
73995,note_on,2,0,0,,3,,,75,127
74126,note_off,131,0,0,,3,,,75,127
74128,note_on,2,0,0,,1,,,73,127
74259,note_off,131,0,0,,1,,,73,127
74261,note_on,2,0,0,,1,,,49,127
74261,note_on,0,0,0,,4,,,76,127
74392,note_off,131,0,0,,4,,,76,127
74394,note_on,2,0,0,,6,,,78,127
74525,note_off,131,0,0,,6,,,78,127
74527,note_on,2,0,0,,8,,,80,127
74658,note_off,131,0,0,,8,,,80,127
74659,note_off,1,0,0,,1,,,61,127
74660,note_on,1,0,0,,6,,,78,127
74858,note_off,198,0,0,,6,,,78,127
74859,note_off,1,0,0,,1,,,49,127
74860,note_on,1,0,0,,4,,,76,127
75058,note_off,198,0,0,,4,,,76,127
75060,note_on,2,0,0,,12,,,59,127
75060,note_on,0,0,0,,8,,,68,127
75060,note_on,0,0,0,,12,,,83,127
75060,note_on,0,0,0,,3,,,75,127
75459,note_off,399,0,0,,3,,,75,127
75459,note_off,0,0,0,,8,,,68,127
75459,note_off,0,0,0,,12,,,59,127
75461,note_on,2,0,0,,11,,,58,127
75461,note_on,0,0,0,,8,,,68,127
75461,note_on,0,0,0,,2,,,74,127
75853,note_off,392,0,0,,12,,,83,127
75859,note_off,6,0,0,,2,,,74,127
75859,note_off,0,0,0,,8,,,68,127
75859,note_off,0,0,0,,11,,,58,127
75861,note_on,2,0,0,,3,,,63,127
75861,note_on,0,0,0,,11,,,58,127
75861,note_on,0,0,0,,6,,,66,127
75861,note_on,0,0,0,,11,,,82,127
75861,note_on,0,0,0,,3,,,75,127
76260,note_off,399,0,0,,3,,,75,127
76260,note_off,0,0,0,,11,,,82,127
76260,note_off,0,0,0,,6,,,66,127
76260,note_off,0,0,0,,11,,,58,127
76260,note_off,0,0,0,,3,,,63,127
76262,note_on,2,0,0,,11,,,58,127
76262,note_on,0,0,0,,3,,,63,127
76262,note_on,0,0,0,,5,,,65,127
76262,note_on,0,0,0,,11,,,82,127
76360,note_off,98,0,0,,11,,,82,127
76362,note_on,2,0,0,,8,,,80,127
76460,note_off,98,0,0,,8,,,80,127
76462,note_on,2,0,0,,11,,,82,127
76560,note_off,98,0,0,,11,,,82,127
76562,note_on,2,0,0,,8,,,80,127
76660,note_off,98,0,0,,8,,,80,127
76660,note_off,0,0,0,,5,,,65,127
76660,note_off,0,0,0,,3,,,63,127
76660,note_off,0,0,0,,11,,,58,127
76662,note_on,2,0,0,,2,,,62,127
76662,note_on,0,0,0,,11,,,58,127
76662,note_on,0,0,0,,5,,,65,127
76662,note_on,0,0,0,,11,,,82,127
76760,note_off,98,0,0,,11,,,82,127
76762,note_on,2,0,0,,8,,,80,127
76860,note_off,98,0,0,,8,,,80,127
76862,note_on,2,0,0,,6,,,78,127
76960,note_off,98,0,0,,6,,,78,127
76962,note_on,2,0,0,,5,,,77,127
77060,note_off,98,0,0,,5,,,77,127
77060,note_off,0,0,0,,5,,,65,127
77060,note_off,0,0,0,,11,,,58,127
77060,note_off,0,0,0,,2,,,62,127
77062,note_on,2,0,0,,3,,,63,127
77062,note_on,0,0,0,,6,,,78,127
77193,note_off,131,0,0,,6,,,78,127
77195,note_on,2,0,0,,5,,,77,127
77326,note_off,131,0,0,,5,,,77,127
77328,note_on,2,0,0,,3,,,75,127
77459,note_off,131,0,0,,3,,,75,127
77461,note_on,2,0,0,,3,,,51,127
77461,note_on,0,0,0,,2,,,74,127
77592,note_off,131,0,0,,2,,,74,127
77594,note_on,2,0,0,,3,,,75,127
77725,note_off,131,0,0,,3,,,75,127
77727,note_on,2,0,0,,5,,,77,127
77858,note_off,131,0,0,,5,,,77,127
77859,note_off,1,0,0,,3,,,63,127
77860,note_on,1,0,0,,6,,,78,127
77898,note_off,38,0,0,,3,,,51,127
78261,note_on,363,0,0,,1,,,61,127
78261,note_on,0,0,0,,6,,,66,127
78261,note_on,0,0,0,,10,,,69,127
78660,note_off,399,0,0,,10,,,69,127
78660,note_off,0,0,0,,6,,,66,127
78660,note_off,0,0,0,,1,,,61,127
78662,note_on,2,0,0,,0,,,60,127
78662,note_on,0,0,0,,6,,,66,127
78662,note_on,0,0,0,,8,,,68,127
79061,note_off,399,0,0,,8,,,68,127
79061,note_off,0,0,0,,6,,,66,127
79061,note_off,0,0,0,,0,,,60,127
79061,note_off,0,0,0,,6,,,78,127
79063,note_on,2,0,0,,1,,,61,127
79063,note_on,0,0,0,,4,,,64,127
79063,note_on,0,0,0,,4,,,76,127
79063,note_on,0,0,0,,1,,,73,127
79462,note_off,399,0,0,,1,,,73,127
79462,note_off,0,0,0,,4,,,76,127
79462,note_off,0,0,0,,4,,,64,127
79462,note_off,0,0,0,,1,,,61,127
79464,note_on,2,0,0,,6,,,54,127
79464,note_on,0,0,0,,1,,,61,127
79464,note_on,0,0,0,,3,,,63,127
79464,note_on,0,0,0,,3,,,75,127
79863,note_off,399,0,0,,3,,,75,127
79863,note_off,0,0,0,,3,,,63,127
79863,note_off,0,0,0,,1,,,61,127
79863,note_off,0,0,0,,6,,,54,127
79865,note_on,2,0,0,,3,,,63,127
79865,note_on,0,0,0,,8,,,56,127
79865,note_on,0,0,0,,0,,,72,127
79865,note_on,0,0,0,,3,,,75,127
79996,note_off,131,0,0,,3,,,75,127
79998,note_on,2,0,0,,4,,,76,127
80129,note_off,131,0,0,,4,,,76,127
80131,note_on,2,0,0,,6,,,78,127
80260,note_off,129,0,0,,0,,,72,127
80262,note_off,2,0,0,,6,,,78,127
80262,note_off,0,0,0,,8,,,56,127
80262,note_off,0,0,0,,3,,,63,127
80264,note_on,2,0,0,,1,,,61,127
80264,note_on,0,0,0,,4,,,76,127
80264,note_on,0,0,0,,1,,,73,127
80395,note_off,131,0,0,,4,,,76,127
80397,note_on,2,0,0,,3,,,75,127
80524,note_off,127,0,0,,1,,,73,127
80528,note_off,4,0,0,,3,,,75,127
80530,note_on,2,0,0,,1,,,73,127
80661,note_off,131,0,0,,1,,,73,127
80663,note_on,2,0,0,,1,,,49,127
80663,note_on,0,0,0,,1,,,73,127
80794,note_off,131,0,0,,1,,,73,127
80796,note_on,2,0,0,,3,,,75,127
80927,note_off,131,0,0,,3,,,75,127
80929,note_on,2,0,0,,4,,,76,127
81060,note_off,131,0,0,,4,,,76,127
81061,note_off,1,0,0,,1,,,61,127
81062,note_on,1,0,0,,4,,,76,127
81261,note_off,199,0,0,,1,,,49,127
81462,note_on,201,0,0,,12,,,59,127
81462,note_on,0,0,0,,4,,,64,127
81462,note_on,0,0,0,,7,,,67,127
81861,note_off,399,0,0,,7,,,67,127
81861,note_off,0,0,0,,4,,,64,127
81861,note_off,0,0,0,,12,,,59,127
81863,note_on,2,0,0,,11,,,58,127
81863,note_on,0,0,0,,4,,,64,127
81863,note_on,0,0,0,,6,,,66,127
82262,note_off,399,0,0,,6,,,66,127
82262,note_off,0,0,0,,4,,,64,127
82262,note_off,0,0,0,,11,,,58,127
82262,note_off,0,0,0,,4,,,76,127
82264,note_on,2,0,0,,2,,,62,127
82264,note_on,0,0,0,,12,,,59,127
82264,note_on,0,0,0,,2,,,74,127
82264,note_on,0,0,0,,12,,,71,127
82663,note_off,399,0,0,,2,,,74,127
82663,note_off,0,0,0,,12,,,59,127
82663,note_off,0,0,0,,2,,,62,127
82665,note_on,2,0,0,,12,,,59,127
82665,note_on,0,0,0,,4,,,52,127
82665,note_on,0,0,0,,1,,,61,127
82665,note_on,0,0,0,,1,,,73,127
83064,note_off,399,0,0,,1,,,73,127
83064,note_off,0,0,0,,1,,,61,127
83064,note_off,0,0,0,,4,,,52,127
83064,note_off,0,0,0,,12,,,59,127
83065,note_off,1,0,0,,12,,,71,127
83066,note_on,1,0,0,,1,,,61,127
83066,note_on,0,0,0,,6,,,54,127
83066,note_on,0,0,0,,11,,,70,127
83066,note_on,0,0,0,,1,,,73,127
83197,note_off,131,0,0,,1,,,73,127
83199,note_on,2,0,0,,2,,,74,127
83330,note_off,131,0,0,,2,,,74,127
83332,note_on,2,0,0,,4,,,76,127
83461,note_off,129,0,0,,11,,,70,127
83463,note_off,2,0,0,,4,,,76,127
83463,note_off,0,0,0,,6,,,54,127
83463,note_off,0,0,0,,1,,,61,127
83465,note_on,2,0,0,,12,,,59,127
83465,note_on,0,0,0,,2,,,74,127
83465,note_on,0,0,0,,12,,,71,127
83596,note_off,131,0,0,,2,,,74,127
83598,note_on,2,0,0,,1,,,73,127
83725,note_off,127,0,0,,12,,,71,127
83729,note_off,4,0,0,,1,,,73,127
83731,note_on,2,0,0,,12,,,71,127
83862,note_off,131,0,0,,12,,,71,127
83864,note_on,2,0,0,,12,,,47,127
83864,note_on,0,0,0,,12,,,71,127
83995,note_off,131,0,0,,12,,,71,127
83997,note_on,2,0,0,,1,,,73,127
84128,note_off,131,0,0,,1,,,73,127
84130,note_on,2,0,0,,2,,,74,127
84261,note_off,131,0,0,,2,,,74,127
84262,note_off,1,0,0,,12,,,59,127
84263,note_on,1,0,0,,2,,,74,127
84462,note_off,199,0,0,,12,,,47,127
84663,note_on,201,0,0,,12,,,59,127
84663,note_on,0,0,0,,2,,,62,127
84663,note_on,0,0,0,,6,,,66,127
85062,note_off,399,0,0,,6,,,66,127
85062,note_off,0,0,0,,2,,,62,127
85062,note_off,0,0,0,,12,,,59,127
85064,note_on,2,0,0,,2,,,62,127
85064,note_on,0,0,0,,8,,,56,127
85064,note_on,0,0,0,,4,,,64,127
85463,note_off,399,0,0,,4,,,64,127
85463,note_off,0,0,0,,8,,,56,127
85463,note_off,0,0,0,,2,,,62,127
85465,note_off,2,0,0,,2,,,74,127
85465,note_on,0,0,0,,10,,,57,127
85465,note_on,0,0,0,,1,,,73,127
85596,note_off,131,0,0,,1,,,73,127
85598,note_on,2,0,0,,2,,,74,127
85729,note_off,131,0,0,,2,,,74,127
85731,note_on,2,0,0,,4,,,76,127
85862,note_off,131,0,0,,4,,,76,127
85862,note_off,0,0,0,,10,,,57,127
85864,note_on,2,0,0,,2,,,50,127
85864,note_on,0,0,0,,6,,,78,127
85995,note_off,131,0,0,,6,,,78,127
85997,note_on,2,0,0,,4,,,76,127
86128,note_off,131,0,0,,4,,,76,127
86130,note_on,2,0,0,,2,,,74,127
86261,note_off,131,0,0,,2,,,74,127
86261,note_off,0,0,0,,2,,,50,127
86263,note_on,2,0,0,,6,,,54,127
86263,note_on,0,0,0,,1,,,73,127
86394,note_off,131,0,0,,1,,,73,127
86396,note_on,2,0,0,,12,,,71,127
86527,note_off,131,0,0,,12,,,71,127
86529,note_on,2,0,0,,10,,,69,127
86660,note_off,131,0,0,,10,,,69,127
86660,note_off,0,0,0,,6,,,54,127
86662,note_on,2,0,0,,4,,,52,127
86662,note_on,0,0,0,,8,,,68,127
86793,note_off,131,0,0,,8,,,68,127
86795,note_on,2,0,0,,6,,,66,127
86926,note_off,131,0,0,,6,,,66,127
86928,note_on,2,0,0,,4,,,64,127
87059,note_off,131,0,0,,4,,,52,127
87067,note_off,8,0,0,,4,,,64,127
87069,note_on,2,0,0,,10,,,69,127
87069,note_on,0,0,0,,4,,,76,127
87200,note_off,131,0,0,,10,,,69,127
87202,note_on,2,0,0,,4,,,64,127
87333,note_off,131,0,0,,4,,,64,127
87335,note_on,2,0,0,,1,,,61,127
87466,note_off,131,0,0,,1,,,61,127
87466,note_off,0,0,0,,4,,,76,127
87468,note_on,2,0,0,,10,,,57,127
87468,note_on,0,0,0,,4,,,76,127
87599,note_off,131,0,0,,10,,,57,127
87601,note_on,2,0,0,,4,,,52,127
87732,note_off,131,0,0,,4,,,52,127
87734,note_on,2,0,0,,1,,,49,127
87865,note_off,131,0,0,,1,,,49,127
87865,note_off,0,0,0,,4,,,76,127
87867,note_on,2,0,0,,10,,,45,127
87867,note_on,0,0,0,,2,,,74,127
87867,note_on,0,0,0,,1,,,73,127
87998,note_off,131,0,0,,1,,,73,127
87998,note_off,0,0,0,,2,,,74,127
87998,note_off,0,0,0,,10,,,45,127
88000,note_on,2,0,0,,4,,,40,127
88000,note_on,0,0,0,,12,,,71,127
88131,note_off,131,0,0,,12,,,71,127
88131,note_off,0,0,0,,4,,,40,127
88133,note_on,2,0,0,,1,,,37,127
88133,note_on,0,0,0,,10,,,69,127
88264,note_off,131,0,0,,10,,,69,127
88264,note_off,0,0,0,,1,,,37,127
88266,note_on,2,0,0,,4,,,40,127
88266,note_on,0,0,0,,12,,,71,127
88621,note_off,355,0,0,,4,,,40,127
88665,note_off,44,0,0,,12,,,71,127
88667,note_on,2,0,0,,10,,,69,127
88667,note_on,0,0,0,,4,,,76,127
88798,note_off,131,0,0,,10,,,69,127
88800,note_on,2,0,0,,4,,,64,127
88931,note_off,131,0,0,,4,,,64,127
88933,note_on,2,0,0,,1,,,61,127
89064,note_off,131,0,0,,1,,,61,127
89064,note_off,0,0,0,,4,,,76,127
89066,note_on,2,0,0,,10,,,57,127
89066,note_on,0,0,0,,4,,,76,127
89197,note_off,131,0,0,,10,,,57,127
89199,note_on,2,0,0,,4,,,52,127
89330,note_off,131,0,0,,4,,,52,127
89332,note_on,2,0,0,,1,,,49,127
89463,note_off,131,0,0,,1,,,49,127
89463,note_off,0,0,0,,4,,,76,127
89465,note_on,2,0,0,,10,,,45,127
89465,note_on,0,0,0,,2,,,74,127
89465,note_on,0,0,0,,1,,,73,127
89596,note_off,131,0,0,,1,,,73,127
89596,note_off,0,0,0,,2,,,74,127
89596,note_off,0,0,0,,10,,,45,127
89598,note_on,2,0,0,,4,,,40,127
89598,note_on,0,0,0,,12,,,71,127
89729,note_off,131,0,0,,12,,,71,127
89729,note_off,0,0,0,,4,,,40,127
89731,note_on,2,0,0,,1,,,37,127
89731,note_on,0,0,0,,10,,,69,127
89862,note_off,131,0,0,,10,,,69,127
89862,note_off,0,0,0,,1,,,37,127
89864,note_on,2,0,0,,4,,,40,127
89864,note_on,0,0,0,,12,,,71,127
90263,note_off,399,0,0,,4,,,40,127
90270,note_off,7,0,0,,12,,,71,127
90273,note_on,3,0,0,,4,,,40,127
90273,note_on,0,0,0,,4,,,52,127
90273,note_on,0,0,0,,4,,,64,127
90404,note_off,131,0,0,,4,,,64,127
90406,note_on,2,0,0,,8,,,68,127
90537,note_off,131,0,0,,8,,,68,127
90539,note_on,2,0,0,,12,,,71,127
90670,note_off,131,0,0,,12,,,71,127
90670,note_off,0,0,0,,4,,,52,127
90670,note_off,0,0,0,,4,,,40,127
90672,note_on,2,0,0,,4,,,40,127
90672,note_on,0,0,0,,4,,,52,127
90672,note_on,0,0,0,,2,,,74,127
90803,note_off,131,0,0,,2,,,74,127
90805,note_on,2,0,0,,8,,,80,127
90936,note_off,131,0,0,,8,,,80,127
90938,note_on,2,0,0,,12,,,83,127
91069,note_off,131,0,0,,12,,,83,127
91069,note_off,0,0,0,,4,,,52,127
91069,note_off,0,0,0,,4,,,40,127
91071,note_on,2,0,0,,4,,,40,127
91071,note_on,0,0,0,,4,,,52,127
91071,note_on,0,0,0,,2,,,86,127
91071,note_on,0,0,0,,8,,,80,127
91071,note_on,0,0,0,,4,,,76,127
91071,note_on,0,0,0,,12,,,83,127
91470,note_off,399,0,0,,12,,,83,127
91470,note_off,0,0,0,,4,,,76,127
91470,note_off,0,0,0,,8,,,80,127
91470,note_off,0,0,0,,2,,,86,127
91470,note_off,0,0,0,,4,,,52,127
91470,note_off,0,0,0,,4,,,40,127
91472,note_on,2,0,0,,10,,,45,127
91472,note_on,0,0,0,,10,,,57,127
91472,note_on,0,0,0,,10,,,81,127
91472,note_on,0,0,0,,4,,,76,127
91472,note_on,0,0,0,,1,,,85,127
91871,note_off,399,0,0,,1,,,85,127
91871,note_off,0,0,0,,4,,,76,127
91871,note_off,0,0,0,,10,,,81,127
91871,note_off,0,0,0,,10,,,57,127
91871,note_off,0,0,0,,10,,,45,127
91873,note_on,2,0,0,,4,,,52,127
91873,note_on,0,0,0,,4,,,40,127
91873,note_on,0,0,0,,4,,,64,127
92004,note_off,131,0,0,,4,,,64,127
92006,note_on,2,0,0,,8,,,68,127
92137,note_off,131,0,0,,8,,,68,127
92139,note_on,2,0,0,,12,,,71,127
92270,note_off,131,0,0,,12,,,71,127
92270,note_off,0,0,0,,4,,,40,127
92270,note_off,0,0,0,,4,,,52,127
92272,note_on,2,0,0,,4,,,52,127
92272,note_on,0,0,0,,4,,,40,127
92272,note_on,0,0,0,,4,,,76,127
92403,note_off,131,0,0,,4,,,76,127
92405,note_on,2,0,0,,8,,,80,127
92536,note_off,131,0,0,,8,,,80,127
92538,note_on,2,0,0,,12,,,83,127
92669,note_off,131,0,0,,12,,,83,127
92669,note_off,0,0,0,,4,,,40,127
92669,note_off,0,0,0,,4,,,52,127
92671,note_on,2,0,0,,4,,,40,127
92671,note_on,0,0,0,,4,,,52,127
92671,note_on,0,0,0,,8,,,80,127
92671,note_on,0,0,0,,4,,,76,127
92671,note_on,0,0,0,,12,,,83,127
92671,note_on,0,0,0,,2,,,86,127
93070,note_off,399,0,0,,2,,,86,127
93070,note_off,0,0,0,,12,,,83,127
93070,note_off,0,0,0,,4,,,76,127
93070,note_off,0,0,0,,8,,,80,127
93070,note_off,0,0,0,,4,,,52,127
93070,note_off,0,0,0,,4,,,40,127
93072,note_on,2,0,0,,10,,,57,127
93072,note_on,0,0,0,,10,,,45,127
93072,note_on,0,0,0,,1,,,85,127
93072,note_on,0,0,0,,4,,,76,127
93072,note_on,0,0,0,,2,,,86,127
93203,note_off,131,0,0,,2,,,86,127
93203,note_off,0,0,0,,1,,,85,127
93205,note_on,2,0,0,,12,,,83,127
93336,note_off,131,0,0,,12,,,83,127
93338,note_on,2,0,0,,1,,,85,127
93467,note_off,129,0,0,,4,,,76,127
93469,note_off,2,0,0,,1,,,85,127
93469,note_off,0,0,0,,10,,,45,127
93469,note_off,0,0,0,,10,,,57,127
93471,note_on,2,0,0,,2,,,50,127
93471,note_on,0,0,0,,2,,,62,127
93471,note_on,0,0,0,,6,,,78,127
93471,note_on,0,0,0,,2,,,86,127
93471,note_on,0,0,0,,4,,,88,127
93602,note_off,131,0,0,,4,,,88,127
93602,note_off,0,0,0,,2,,,86,127
93604,note_on,2,0,0,,1,,,85,127
93735,note_off,131,0,0,,1,,,85,127
93737,note_on,2,0,0,,12,,,83,127
93866,note_off,129,0,0,,6,,,78,127
93868,note_off,2,0,0,,12,,,83,127
93868,note_off,0,0,0,,2,,,62,127
93868,note_off,0,0,0,,2,,,50,127
93870,note_on,2,0,0,,4,,,52,127
93870,note_on,0,0,0,,10,,,57,127
93870,note_on,0,0,0,,1,,,61,127
93870,note_on,0,0,0,,10,,,81,127
93870,note_on,0,0,0,,4,,,76,127
94018,note_off,148,0,0,,10,,,81,127
94020,note_on,2,0,0,,12,,,83,127
94068,note_off,48,0,0,,12,,,83,127
94070,note_on,2,0,0,,10,,,81,127
94118,note_off,48,0,0,,10,,,81,127
94120,note_on,2,0,0,,8,,,80,127
94168,note_off,48,0,0,,8,,,80,127
94170,note_on,2,0,0,,10,,,81,127
94218,note_off,48,0,0,,10,,,81,127
94220,note_on,2,0,0,,12,,,83,127
94266,note_off,46,0,0,,4,,,76,127
94268,note_off,2,0,0,,12,,,83,127
94268,note_off,0,0,0,,1,,,61,127
94268,note_off,0,0,0,,10,,,57,127
94268,note_off,0,0,0,,4,,,52,127
94270,note_on,2,0,0,,4,,,52,127
94270,note_on,0,0,0,,12,,,59,127
94270,note_on,0,0,0,,1,,,85,127
94335,note_off,65,0,0,,1,,,85,127
94337,note_on,2,0,0,,12,,,83,127
94402,note_off,65,0,0,,12,,,83,127
94404,note_on,2,0,0,,1,,,85,127
94469,note_off,65,0,0,,1,,,85,127
94471,note_on,2,0,0,,12,,,83,127
94536,note_off,65,0,0,,12,,,83,127
94538,note_on,2,0,0,,10,,,81,127
94603,note_off,65,0,0,,10,,,81,127
94605,note_on,2,0,0,,12,,,83,127
94670,note_off,65,0,0,,12,,,83,127
94670,note_off,0,0,0,,12,,,59,127
94670,note_off,0,0,0,,4,,,52,127
94672,note_on,2,0,0,,10,,,45,127
94672,note_on,0,0,0,,10,,,57,127
94672,note_on,0,0,0,,10,,,81,127
95027,note_off,355,0,0,,10,,,81,127
95048,note_off,21,0,0,,10,,,57,127
95048,note_off,0,0,0,,10,,,45,127
95073,note_on,25,0,0,,10,,,69,127
95073,note_on,0,0,0,,4,,,76,127
95204,note_off,131,0,0,,4,,,76,127
95204,note_off,0,0,0,,10,,,69,127
95206,note_on,2,0,0,,4,,,64,127
95206,note_on,0,0,0,,10,,,81,127
95337,note_off,131,0,0,,10,,,81,127
95337,note_off,0,0,0,,4,,,64,127
95339,note_on,2,0,0,,1,,,61,127
95339,note_on,0,0,0,,4,,,76,127
95470,note_off,131,0,0,,4,,,76,127
95470,note_off,0,0,0,,1,,,61,127
95472,note_on,2,0,0,,10,,,57,127
95472,note_on,0,0,0,,4,,,76,127
95603,note_off,131,0,0,,4,,,76,127
95603,note_off,0,0,0,,10,,,57,127
95605,note_on,2,0,0,,4,,,52,127
95605,note_on,0,0,0,,6,,,78,127
95736,note_off,131,0,0,,6,,,78,127
95736,note_off,0,0,0,,4,,,52,127
95738,note_on,2,0,0,,1,,,49,127
95738,note_on,0,0,0,,4,,,76,127
95869,note_off,131,0,0,,4,,,76,127
95869,note_off,0,0,0,,1,,,49,127
95871,note_on,2,0,0,,10,,,45,127
95871,note_on,0,0,0,,4,,,76,127
96002,note_off,131,0,0,,4,,,76,127
96002,note_off,0,0,0,,10,,,45,127
96004,note_on,2,0,0,,4,,,40,127
96004,note_on,0,0,0,,2,,,74,127
96135,note_off,131,0,0,,2,,,74,127
96135,note_off,0,0,0,,4,,,40,127
96137,note_on,2,0,0,,1,,,37,127
96137,note_on,0,0,0,,1,,,73,127
96268,note_off,131,0,0,,1,,,73,127
96268,note_off,0,0,0,,1,,,37,127
96270,note_on,2,0,0,,4,,,40,127
96270,note_on,0,0,0,,12,,,71,127
96625,note_off,355,0,0,,4,,,40,127
96669,note_off,44,0,0,,12,,,71,127
96671,note_on,2,0,0,,10,,,69,127
96671,note_on,0,0,0,,4,,,76,127
96802,note_off,131,0,0,,4,,,76,127
96802,note_off,0,0,0,,10,,,69,127
96804,note_on,2,0,0,,4,,,64,127
96804,note_on,0,0,0,,10,,,81,127
96935,note_off,131,0,0,,10,,,81,127
96935,note_off,0,0,0,,4,,,64,127
96937,note_on,2,0,0,,1,,,61,127
96937,note_on,0,0,0,,4,,,76,127
97068,note_off,131,0,0,,4,,,76,127
97068,note_off,0,0,0,,1,,,61,127
97070,note_on,2,0,0,,10,,,57,127
97070,note_on,0,0,0,,4,,,76,127
97201,note_off,131,0,0,,4,,,76,127
97201,note_off,0,0,0,,10,,,57,127
97203,note_on,2,0,0,,4,,,52,127
97203,note_on,0,0,0,,6,,,78,127
97334,note_off,131,0,0,,6,,,78,127
97334,note_off,0,0,0,,4,,,52,127
97336,note_on,2,0,0,,1,,,49,127
97336,note_on,0,0,0,,4,,,76,127
97467,note_off,131,0,0,,4,,,76,127
97467,note_off,0,0,0,,1,,,49,127
97469,note_on,2,0,0,,10,,,45,127
97469,note_on,0,0,0,,4,,,76,127
97600,note_off,131,0,0,,4,,,76,127
97600,note_off,0,0,0,,10,,,45,127
97602,note_on,2,0,0,,4,,,40,127
97602,note_on,0,0,0,,2,,,74,127
97733,note_off,131,0,0,,2,,,74,127
97733,note_off,0,0,0,,4,,,40,127
97735,note_on,2,0,0,,1,,,37,127
97735,note_on,0,0,0,,1,,,73,127
97866,note_off,131,0,0,,1,,,73,127
97866,note_off,0,0,0,,1,,,37,127
97868,note_on,2,0,0,,4,,,40,127
97868,note_on,0,0,0,,12,,,71,127
98267,note_off,399,0,0,,12,,,71,127
98267,note_off,0,0,0,,4,,,40,127
98269,note_on,2,0,0,,4,,,40,127
98269,note_on,0,0,0,,4,,,52,127
98269,note_on,0,0,0,,4,,,64,127
98400,note_off,131,0,0,,4,,,64,127
98402,note_on,2,0,0,,8,,,68,127
98533,note_off,131,0,0,,8,,,68,127
98535,note_on,2,0,0,,12,,,71,127
98666,note_off,131,0,0,,12,,,71,127
98666,note_off,0,0,0,,4,,,52,127
98666,note_off,0,0,0,,4,,,40,127
98668,note_on,2,0,0,,4,,,40,127
98668,note_on,0,0,0,,4,,,52,127
98668,note_on,0,0,0,,4,,,76,127
98799,note_off,131,0,0,,4,,,76,127
98801,note_on,2,0,0,,8,,,80,127
98932,note_off,131,0,0,,8,,,80,127
98934,note_on,2,0,0,,12,,,83,127
99065,note_off,131,0,0,,12,,,83,127
99065,note_off,0,0,0,,4,,,52,127
99065,note_off,0,0,0,,4,,,40,127
99067,note_on,2,0,0,,4,,,52,127
99067,note_on,0,0,0,,4,,,40,127
99067,note_on,0,0,0,,8,,,80,127
99067,note_on,0,0,0,,12,,,83,127
99067,note_on,0,0,0,,2,,,86,127
99067,note_on,0,0,0,,4,,,76,127
99466,note_off,399,0,0,,4,,,76,127
99466,note_off,0,0,0,,2,,,86,127
99466,note_off,0,0,0,,12,,,83,127
99466,note_off,0,0,0,,8,,,80,127
99466,note_off,0,0,0,,4,,,40,127
99466,note_off,0,0,0,,4,,,52,127
99468,note_on,2,0,0,,10,,,45,127
99468,note_on,0,0,0,,10,,,57,127
99468,note_on,0,0,0,,4,,,76,127
99468,note_on,0,0,0,,1,,,85,127
99468,note_on,0,0,0,,10,,,81,127
99867,note_off,399,0,0,,10,,,81,127
99867,note_off,0,0,0,,1,,,85,127
99867,note_off,0,0,0,,4,,,76,127
99867,note_off,0,0,0,,10,,,57,127
99867,note_off,0,0,0,,10,,,45,127
99869,note_on,2,0,0,,4,,,40,127
99869,note_on,0,0,0,,4,,,52,127
99869,note_on,0,0,0,,4,,,64,127
100000,note_off,131,0,0,,4,,,64,127
100002,note_on,2,0,0,,8,,,68,127
100133,note_off,131,0,0,,8,,,68,127
100135,note_on,2,0,0,,12,,,71,127
100266,note_off,131,0,0,,12,,,71,127
100266,note_off,0,0,0,,4,,,52,127
100266,note_off,0,0,0,,4,,,40,127
100268,note_on,2,0,0,,4,,,40,127
100268,note_on,0,0,0,,4,,,52,127
100268,note_on,0,0,0,,4,,,76,127
100399,note_off,131,0,0,,4,,,76,127
100401,note_on,2,0,0,,8,,,80,127
100532,note_off,131,0,0,,8,,,80,127
100534,note_on,2,0,0,,12,,,83,127
100665,note_off,131,0,0,,12,,,83,127
100665,note_off,0,0,0,,4,,,52,127
100665,note_off,0,0,0,,4,,,40,127
100667,note_on,2,0,0,,4,,,52,127
100667,note_on,0,0,0,,4,,,40,127
100667,note_on,0,0,0,,4,,,76,127
100667,note_on,0,0,0,,12,,,83,127
100667,note_on,0,0,0,,8,,,80,127
100667,note_on,0,0,0,,2,,,86,127
101066,note_off,399,0,0,,2,,,86,127
101066,note_off,0,0,0,,8,,,80,127
101066,note_off,0,0,0,,12,,,83,127
101066,note_off,0,0,0,,4,,,76,127
101066,note_off,0,0,0,,4,,,40,127
101066,note_off,0,0,0,,4,,,52,127
101068,note_on,2,0,0,,10,,,45,127
101068,note_on,0,0,0,,10,,,57,127
101068,note_on,0,0,0,,1,,,85,127
101068,note_on,0,0,0,,4,,,76,127
101068,note_on,0,0,0,,2,,,86,127
101199,note_off,131,0,0,,2,,,86,127
101199,note_off,0,0,0,,1,,,85,127
101201,note_on,2,0,0,,12,,,83,127
101332,note_off,131,0,0,,12,,,83,127
101334,note_on,2,0,0,,1,,,85,127
101463,note_off,129,0,0,,4,,,76,127
101465,note_off,2,0,0,,1,,,85,127
101465,note_off,0,0,0,,10,,,57,127
101465,note_off,0,0,0,,10,,,45,127
101467,note_on,2,0,0,,2,,,50,127
101467,note_on,0,0,0,,2,,,62,127
101467,note_on,0,0,0,,4,,,88,127
101467,note_on,0,0,0,,2,,,86,127
101467,note_on,0,0,0,,6,,,78,127
101598,note_off,131,0,0,,2,,,86,127
101598,note_off,0,0,0,,4,,,88,127
101600,note_on,2,0,0,,1,,,85,127
101731,note_off,131,0,0,,1,,,85,127
101733,note_on,2,0,0,,12,,,83,127
101862,note_off,129,0,0,,6,,,78,127
101864,note_off,2,0,0,,12,,,83,127
101864,note_off,0,0,0,,2,,,62,127
101864,note_off,0,0,0,,2,,,50,127
101866,note_on,2,0,0,,4,,,52,127
101866,note_on,0,0,0,,10,,,57,127
101866,note_on,0,0,0,,1,,,61,127
101866,note_on,0,0,0,,10,,,81,127
101866,note_on,0,0,0,,4,,,76,127
102014,note_off,148,0,0,,10,,,81,127
102016,note_on,2,0,0,,12,,,83,127
102064,note_off,48,0,0,,12,,,83,127
102066,note_on,2,0,0,,10,,,81,127
102114,note_off,48,0,0,,10,,,81,127
102116,note_on,2,0,0,,8,,,80,127
102164,note_off,48,0,0,,8,,,80,127
102166,note_on,2,0,0,,10,,,81,127
102214,note_off,48,0,0,,10,,,81,127
102216,note_on,2,0,0,,12,,,83,127
102262,note_off,46,0,0,,4,,,76,127
102264,note_off,2,0,0,,12,,,83,127
102264,note_off,0,0,0,,1,,,61,127
102264,note_off,0,0,0,,10,,,57,127
102264,note_off,0,0,0,,4,,,52,127
102266,note_on,2,0,0,,4,,,52,127
102266,note_on,0,0,0,,12,,,59,127
102266,note_on,0,0,0,,1,,,85,127
102331,note_off,65,0,0,,1,,,85,127
102333,note_on,2,0,0,,12,,,83,127
102398,note_off,65,0,0,,12,,,83,127
102400,note_on,2,0,0,,1,,,85,127
102465,note_off,65,0,0,,1,,,85,127
102467,note_on,2,0,0,,12,,,83,127
102532,note_off,65,0,0,,12,,,83,127
102534,note_on,2,0,0,,10,,,81,127
102599,note_off,65,0,0,,10,,,81,127
102601,note_on,2,0,0,,12,,,83,127
102666,note_off,65,0,0,,12,,,83,127
102666,note_off,0,0,0,,12,,,59,127
102666,note_off,0,0,0,,4,,,52,127
102685,note_on,19,0,0,,10,,,57,127
102685,note_on,0,0,0,,8,,,80,127
102816,note_off,131,0,0,,8,,,80,127
102818,note_on,2,0,0,,10,,,81,127
102949,note_off,131,0,0,,10,,,81,127
102951,note_on,2,0,0,,4,,,76,127
103082,note_off,131,0,0,,4,,,76,127
103082,note_off,0,0,0,,10,,,57,127
103084,note_on,2,0,0,,2,,,50,127
103084,note_on,0,0,0,,6,,,78,127
103215,note_off,131,0,0,,6,,,78,127
103217,note_on,2,0,0,,2,,,74,127
103348,note_off,131,0,0,,2,,,74,127
103350,note_on,2,0,0,,12,,,71,127
103481,note_off,131,0,0,,12,,,71,127
103481,note_off,0,0,0,,2,,,50,127
103483,note_on,2,0,0,,4,,,52,127
103483,note_on,0,0,0,,10,,,69,127
103631,note_off,148,0,0,,10,,,69,127
103633,note_on,2,0,0,,12,,,71,127
103681,note_off,48,0,0,,12,,,71,127
103683,note_on,2,0,0,,10,,,69,127
103731,note_off,48,0,0,,10,,,69,127
103733,note_on,2,0,0,,8,,,68,127
103781,note_off,48,0,0,,8,,,68,127
103783,note_on,2,0,0,,10,,,69,127
103831,note_off,48,0,0,,10,,,69,127
103833,note_on,2,0,0,,12,,,71,127
103881,note_off,48,0,0,,12,,,71,127
103883,note_on,2,0,0,,4,,,40,127
103883,note_on,0,0,0,,1,,,73,127
103948,note_off,65,0,0,,1,,,73,127
103950,note_on,2,0,0,,12,,,71,127
104015,note_off,65,0,0,,12,,,71,127
104017,note_on,2,0,0,,1,,,73,127
104082,note_off,65,0,0,,1,,,73,127
104084,note_on,2,0,0,,12,,,71,127
104149,note_off,65,0,0,,12,,,71,127
104151,note_on,2,0,0,,1,,,73,127
104216,note_off,65,0,0,,1,,,73,127
104218,note_on,2,0,0,,12,,,71,127
104283,note_off,65,0,0,,12,,,71,127
104283,note_off,0,0,0,,4,,,40,127
104284,note_off,1,0,0,,4,,,52,127
104302,note_on,18,0,0,,8,,,68,127
104302,note_on,0,0,0,,6,,,54,127
104433,note_off,131,0,0,,8,,,68,127
104435,note_on,2,0,0,,10,,,69,127
104566,note_off,131,0,0,,10,,,69,127
104568,note_on,2,0,0,,4,,,64,127
104699,note_off,131,0,0,,4,,,64,127
104699,note_off,0,0,0,,6,,,54,127
104701,note_on,2,0,0,,6,,,66,127
104701,note_on,0,0,0,,2,,,50,127
104832,note_off,131,0,0,,6,,,66,127
104834,note_on,2,0,0,,2,,,62,127
104965,note_off,131,0,0,,2,,,62,127
104967,note_on,2,0,0,,12,,,59,127
105098,note_off,131,0,0,,12,,,59,127
105098,note_off,0,0,0,,2,,,50,127
105100,note_on,2,0,0,,10,,,57,127
105100,note_on,0,0,0,,4,,,52,127
105248,note_off,148,0,0,,10,,,57,127
105250,note_on,2,0,0,,12,,,59,127
105298,note_off,48,0,0,,12,,,59,127
105300,note_on,2,0,0,,10,,,57,127
105348,note_off,48,0,0,,10,,,57,127
105350,note_on,2,0,0,,8,,,56,127
105398,note_off,48,0,0,,8,,,56,127
105400,note_on,2,0,0,,10,,,57,127
105448,note_off,48,0,0,,10,,,57,127
105450,note_on,2,0,0,,12,,,59,127
105498,note_off,48,0,0,,12,,,59,127
105500,note_on,2,0,0,,1,,,61,127
105500,note_on,0,0,0,,4,,,40,127
105565,note_off,65,0,0,,1,,,61,127
105567,note_on,2,0,0,,12,,,59,127
105632,note_off,65,0,0,,12,,,59,127
105634,note_on,2,0,0,,1,,,61,127
105699,note_off,65,0,0,,1,,,61,127
105701,note_on,2,0,0,,12,,,59,127
105766,note_off,65,0,0,,12,,,59,127
105768,note_on,2,0,0,,10,,,57,127
105833,note_off,65,0,0,,10,,,57,127
105841,note_on,8,0,0,,12,,,59,127
105899,note_off,58,0,0,,4,,,40,127
105900,note_off,1,0,0,,4,,,52,127
105910,note_off,10,0,0,,12,,,59,127
105934,note_on,24,0,0,,10,,,45,127
105934,note_on,0,0,0,,10,,,57,127
107812,note_off,1878,0,0,,10,,,57,127
107812,note_off,0,0,0,,10,,,45,127
110592,end_of_track,2780,1,0,,,,,,
