tick,type,time,meta,track,program,channel,pitch,tempo,note,velocity
0,copyright,0,1,0,,,,,,
0,program_change,0,0,0,6,0,,,,
0,pitchwheel,0,0,0,,0,0,,,
0,program_change,0,0,0,6,1,,,,
0,pitchwheel,0,0,0,,1,-590,,,
0,program_change,0,0,0,6,2,,,,
0,pitchwheel,0,0,0,,2,-272,,,
0,program_change,0,0,0,6,3,,,,
0,pitchwheel,0,0,0,,3,-353,,,
0,program_change,0,0,0,6,4,,,,
0,pitchwheel,0,0,0,,4,-560,,,
0,program_change,0,0,0,6,5,,,,
0,pitchwheel,0,0,0,,5,-80,,,
0,program_change,0,0,0,6,6,,,,
0,pitchwheel,0,0,0,,6,-625,,,
0,program_change,0,0,0,6,7,,,,
0,pitchwheel,0,0,0,,7,-130,,,
0,program_change,0,0,0,6,8,,,,
0,pitchwheel,0,0,0,,8,-512,,,
0,program_change,0,0,0,6,10,,,,
0,pitchwheel,0,0,0,,10,-464,,,
0,program_change,0,0,0,6,11,,,,
0,pitchwheel,0,0,0,,11,-208,,,
0,program_change,0,0,0,6,12,,,,
0,pitchwheel,0,0,0,,12,-553,,,
0,set_tempo,0,1,0,,,,500000,,
105,note_on,105,0,0,,10,,,45,127
314,note_on,209,0,0,,10,,,81,127
521,note_off,207,0,0,,10,,,81,127
523,note_on,2,0,0,,4,,,76,127
523,note_on,0,0,0,,1,,,73,127
730,note_off,207,0,0,,1,,,73,127
730,note_off,0,0,0,,4,,,76,127
731,note_off,1,0,0,,10,,,45,127
732,note_on,1,0,0,,4,,,76,127
732,note_on,0,0,0,,1,,,73,127
939,note_off,207,0,0,,1,,,73,127
939,note_off,0,0,0,,4,,,76,127
941,note_on,2,0,0,,2,,,74,127
941,note_on,0,0,0,,6,,,78,127
1148,note_off,207,0,0,,6,,,78,127
1148,note_off,0,0,0,,2,,,74,127
1150,note_on,2,0,0,,2,,,74,127
1150,note_on,0,0,0,,12,,,71,127
1357,note_off,207,0,0,,12,,,71,127
1357,note_off,0,0,0,,2,,,74,127
1359,note_on,2,0,0,,12,,,71,127
1359,note_on,0,0,0,,2,,,74,127
1566,note_off,207,0,0,,2,,,74,127
1566,note_off,0,0,0,,12,,,71,127
1568,note_on,2,0,0,,4,,,76,127
1568,note_on,0,0,0,,1,,,73,127
1775,note_off,207,0,0,,1,,,73,127
1775,note_off,0,0,0,,4,,,76,127
1777,note_on,2,0,0,,10,,,69,127
1777,note_on,0,0,0,,1,,,73,127
1984,note_off,207,0,0,,1,,,73,127
1984,note_off,0,0,0,,10,,,69,127
1986,note_on,2,0,0,,10,,,69,127
1986,note_on,0,0,0,,1,,,73,127
2193,note_off,207,0,0,,1,,,73,127
2193,note_off,0,0,0,,10,,,69,127
2195,note_on,2,0,0,,2,,,74,127
2195,note_on,0,0,0,,12,,,71,127
2402,note_off,207,0,0,,12,,,71,127
2402,note_off,0,0,0,,2,,,74,127
2404,note_on,2,0,0,,12,,,71,127
2404,note_on,0,0,0,,4,,,64,127
2611,note_off,207,0,0,,12,,,71,127
2613,note_on,2,0,0,,1,,,73,127
2644,note_off,31,0,0,,4,,,64,127
2823,note_on,179,0,0,,10,,,69,127
3030,note_off,207,0,0,,10,,,69,127
3032,note_on,2,0,0,,4,,,64,127
3032,note_on,0,0,0,,1,,,61,127
3239,note_off,207,0,0,,1,,,61,127
3239,note_off,0,0,0,,4,,,64,127
3241,note_on,2,0,0,,4,,,64,127
3241,note_on,0,0,0,,1,,,61,127
3448,note_off,207,0,0,,1,,,61,127
3448,note_off,0,0,0,,4,,,64,127
3449,note_off,1,0,0,,1,,,73,127
3450,note_on,1,0,0,,2,,,62,127
3450,note_on,0,0,0,,6,,,66,127
3657,note_off,207,0,0,,6,,,66,127
3657,note_off,0,0,0,,2,,,62,127
3659,note_on,2,0,0,,12,,,59,127
3659,note_on,0,0,0,,2,,,62,127
3659,note_on,0,0,0,,6,,,78,127
3866,note_off,207,0,0,,2,,,62,127
3866,note_off,0,0,0,,12,,,59,127
3868,note_on,2,0,0,,12,,,59,127
3868,note_on,0,0,0,,2,,,62,127
4075,note_off,207,0,0,,2,,,62,127
4075,note_off,0,0,0,,12,,,59,127
4075,note_off,0,0,0,,6,,,78,127
4077,note_on,2,0,0,,1,,,61,127
4077,note_on,0,0,0,,4,,,64,127
4077,note_on,0,0,0,,4,,,76,127
4284,note_off,207,0,0,,4,,,64,127
4284,note_off,0,0,0,,1,,,61,127
4286,note_on,2,0,0,,1,,,61,127
4286,note_on,0,0,0,,10,,,57,127
4493,note_off,207,0,0,,10,,,57,127
4493,note_off,0,0,0,,1,,,61,127
4495,note_on,2,0,0,,10,,,57,127
4495,note_on,0,0,0,,1,,,61,127
4702,note_off,207,0,0,,1,,,61,127
4702,note_off,0,0,0,,10,,,57,127
4704,note_on,2,0,0,,12,,,59,127
4704,note_on,0,0,0,,2,,,62,127
4774,note_off,70,0,0,,4,,,76,127
4774,note_on,0,0,0,,2,,,74,127
4842,note_off,68,0,0,,2,,,74,127
4844,note_on,2,0,0,,4,,,76,127
4912,note_off,68,0,0,,4,,,76,127
4912,note_off,0,0,0,,2,,,62,127
4912,note_off,0,0,0,,12,,,59,127
4914,note_on,2,0,0,,12,,,59,127
4914,note_on,0,0,0,,4,,,52,127
4914,note_on,0,0,0,,2,,,74,127
4982,note_off,68,0,0,,2,,,74,127
4984,note_on,2,0,0,,1,,,73,127
5052,note_off,68,0,0,,1,,,73,127
5054,note_on,2,0,0,,2,,,74,127
5122,note_off,68,0,0,,2,,,74,127
5122,note_off,0,0,0,,4,,,52,127
5122,note_off,0,0,0,,12,,,59,127
5124,note_on,2,0,0,,10,,,45,127
5124,note_on,0,0,0,,10,,,57,127
5124,note_on,0,0,0,,1,,,73,127
5333,note_on,209,0,0,,10,,,81,127
5538,note_off,205,0,0,,1,,,73,127
5540,note_off,2,0,0,,10,,,81,127
5540,note_off,0,0,0,,10,,,57,127
5540,note_off,0,0,0,,10,,,45,127
5542,note_on,2,0,0,,2,,,50,127
5542,note_on,0,0,0,,2,,,62,127
5542,note_on,0,0,0,,2,,,74,127
5542,note_on,0,0,0,,6,,,78,127
5749,note_off,207,0,0,,6,,,78,127
5749,note_off,0,0,0,,2,,,74,127
5751,note_on,2,0,0,,12,,,71,127
5751,note_on,0,0,0,,2,,,74,127
5958,note_off,207,0,0,,2,,,74,127
5958,note_off,0,0,0,,12,,,71,127
5958,note_off,0,0,0,,2,,,62,127
5958,note_off,0,0,0,,2,,,50,127
5960,note_on,2,0,0,,4,,,52,127
5960,note_on,0,0,0,,4,,,64,127
5960,note_on,0,0,0,,8,,,68,127
5960,note_on,0,0,0,,12,,,71,127
6167,note_off,207,0,0,,12,,,71,127
6169,note_on,2,0,0,,4,,,76,127
6374,note_off,205,0,0,,8,,,68,127
6376,note_off,2,0,0,,4,,,76,127
6376,note_off,0,0,0,,4,,,64,127
6376,note_off,0,0,0,,4,,,52,127
6378,note_on,2,0,0,,10,,,45,127
6378,note_on,0,0,0,,10,,,57,127
6378,note_on,0,0,0,,1,,,73,127
6587,note_on,209,0,0,,10,,,81,127
6792,note_off,205,0,0,,1,,,73,127
6794,note_off,2,0,0,,10,,,81,127
6794,note_off,0,0,0,,10,,,57,127
6794,note_off,0,0,0,,10,,,45,127
6796,note_on,2,0,0,,2,,,50,127
6796,note_on,0,0,0,,2,,,62,127
6796,note_on,0,0,0,,6,,,78,127
6796,note_on,0,0,0,,2,,,74,127
7003,note_off,207,0,0,,2,,,74,127
7003,note_off,0,0,0,,6,,,78,127
7005,note_on,2,0,0,,2,,,74,127
7005,note_on,0,0,0,,12,,,71,127
7212,note_off,207,0,0,,12,,,71,127
7212,note_off,0,0,0,,2,,,74,127
7212,note_off,0,0,0,,2,,,62,127
7212,note_off,0,0,0,,2,,,50,127
7214,note_on,2,0,0,,4,,,52,127
7214,note_on,0,0,0,,4,,,64,127
7214,note_on,0,0,0,,8,,,68,127
7214,note_on,0,0,0,,12,,,71,127
7421,note_off,207,0,0,,12,,,71,127
7423,note_on,2,0,0,,4,,,76,127
7628,note_off,205,0,0,,8,,,68,127
7628,note_off,0,0,0,,4,,,64,127
7628,note_off,0,0,0,,4,,,52,127
7630,note_off,2,0,0,,4,,,76,127
7632,note_on,2,0,0,,1,,,73,127
7841,note_on,209,0,0,,10,,,69,127
8048,note_off,207,0,0,,10,,,69,127
8050,note_on,2,0,0,,2,,,62,127
8050,note_on,0,0,0,,6,,,66,127
8155,note_off,105,0,0,,1,,,73,127
8258,note_off,103,0,0,,6,,,66,127
8258,note_off,0,0,0,,2,,,62,127
8260,note_on,2,0,0,,12,,,59,127
8260,note_on,0,0,0,,2,,,62,127
8260,note_on,0,0,0,,2,,,74,127
8467,note_off,207,0,0,,2,,,74,127
8467,note_off,0,0,0,,2,,,62,127
8467,note_off,0,0,0,,12,,,59,127
8469,note_on,2,0,0,,8,,,56,127
8469,note_on,0,0,0,,12,,,59,127
8469,note_on,0,0,0,,4,,,76,127
8537,note_off,68,0,0,,4,,,76,127
8539,note_on,2,0,0,,2,,,74,127
8607,note_off,68,0,0,,2,,,74,127
8609,note_on,2,0,0,,4,,,76,127
8677,note_off,68,0,0,,4,,,76,127
8677,note_off,0,0,0,,8,,,56,127
8679,note_on,2,0,0,,4,,,52,127
8679,note_on,0,0,0,,2,,,74,127
8747,note_off,68,0,0,,2,,,74,127
8749,note_on,2,0,0,,1,,,73,127
8817,note_off,68,0,0,,1,,,73,127
8819,note_on,2,0,0,,2,,,74,127
8884,note_off,65,0,0,,12,,,59,127
8886,note_off,2,0,0,,2,,,74,127
8886,note_off,0,0,0,,4,,,52,127
8888,note_on,2,0,0,,10,,,57,127
8888,note_on,0,0,0,,1,,,73,127
9097,note_on,209,0,0,,10,,,69,127
9302,note_off,205,0,0,,1,,,73,127
9304,note_off,2,0,0,,10,,,69,127
9306,note_on,2,0,0,,6,,,66,127
9513,note_off,207,0,0,,6,,,66,127
9513,note_off,0,0,0,,10,,,57,127
9515,note_on,2,0,0,,2,,,62,127
9515,note_on,0,0,0,,2,,,74,127
9722,note_off,207,0,0,,2,,,74,127
9722,note_off,0,0,0,,2,,,62,127
9724,note_on,2,0,0,,12,,,59,127
9724,note_on,0,0,0,,8,,,56,127
9724,note_on,0,0,0,,4,,,76,127
9792,note_off,68,0,0,,4,,,76,127
9794,note_on,2,0,0,,2,,,74,127
9862,note_off,68,0,0,,2,,,74,127
9864,note_on,2,0,0,,4,,,76,127
9932,note_off,68,0,0,,4,,,76,127
9932,note_off,0,0,0,,8,,,56,127
9934,note_on,2,0,0,,4,,,52,127
9934,note_on,0,0,0,,2,,,74,127
10002,note_off,68,0,0,,2,,,74,127
10004,note_on,2,0,0,,1,,,73,127
10072,note_off,68,0,0,,1,,,73,127
10074,note_on,2,0,0,,2,,,74,127
10139,note_off,65,0,0,,12,,,59,127
10141,note_off,2,0,0,,2,,,74,127
10141,note_off,0,0,0,,4,,,52,127
10143,note_on,2,0,0,,10,,,57,127
10143,note_on,0,0,0,,1,,,73,127
10350,note_off,207,0,0,,10,,,57,127
10352,note_on,2,0,0,,12,,,59,127
10513,note_off,161,0,0,,1,,,73,127
10559,note_off,46,0,0,,12,,,59,127
10561,note_on,2,0,0,,1,,,61,127
10561,note_on,0,0,0,,10,,,81,127
10768,note_off,207,0,0,,10,,,81,127
10768,note_off,0,0,0,,1,,,61,127
10770,note_on,2,0,0,,2,,,62,127
10770,note_on,0,0,0,,8,,,80,127
10873,note_off,103,0,0,,8,,,80,127
10875,note_on,2,0,0,,6,,,78,127
10978,note_off,103,0,0,,6,,,78,127
10978,note_off,0,0,0,,2,,,62,127
10980,note_on,2,0,0,,4,,,64,127
10980,note_on,0,0,0,,4,,,76,127
11083,note_off,103,0,0,,4,,,76,127
11085,note_on,2,0,0,,2,,,74,127
11188,note_off,103,0,0,,2,,,74,127
11188,note_off,0,0,0,,4,,,64,127
11190,note_on,2,0,0,,4,,,52,127
11190,note_on,0,0,0,,1,,,73,127
11293,note_off,103,0,0,,1,,,73,127
11295,note_on,2,0,0,,12,,,71,127
11398,note_off,103,0,0,,12,,,71,127
11398,note_off,0,0,0,,4,,,52,127
11400,note_on,2,0,0,,10,,,45,127
11400,note_on,0,0,0,,10,,,57,127
11400,note_on,0,0,0,,1,,,73,127
11607,note_off,207,0,0,,1,,,73,127
11607,note_off,0,0,0,,10,,,57,127
11607,note_off,0,0,0,,10,,,45,127
11609,note_on,2,0,0,,12,,,47,127
11609,note_on,0,0,0,,2,,,74,127
11816,note_off,207,0,0,,2,,,74,127
11816,note_off,0,0,0,,12,,,47,127
11818,note_on,2,0,0,,1,,,49,127
11818,note_on,0,0,0,,4,,,76,127
12025,note_off,207,0,0,,4,,,76,127
12025,note_off,0,0,0,,1,,,49,127
12027,note_on,2,0,0,,2,,,50,127
12027,note_on,0,0,0,,2,,,74,127
12130,note_off,103,0,0,,2,,,74,127
12132,note_on,2,0,0,,1,,,73,127
12235,note_off,103,0,0,,1,,,73,127
12235,note_off,0,0,0,,2,,,50,127
12237,note_on,2,0,0,,2,,,50,127
12237,note_on,0,0,0,,12,,,71,127
12340,note_off,103,0,0,,12,,,71,127
12342,note_on,2,0,0,,10,,,69,127
12445,note_off,103,0,0,,10,,,69,127
12445,note_off,0,0,0,,2,,,50,127
12447,note_on,2,0,0,,3,,,51,127
12447,note_on,0,0,0,,8,,,68,127
12550,note_off,103,0,0,,8,,,68,127
12552,note_on,2,0,0,,6,,,66,127
12655,note_off,103,0,0,,6,,,66,127
12655,note_off,0,0,0,,3,,,51,127
12657,note_on,2,0,0,,4,,,52,127
12657,note_on,0,0,0,,6,,,66,127
12707,note_off,50,0,0,,6,,,66,127
12709,note_on,2,0,0,,4,,,64,127
12759,note_off,50,0,0,,4,,,64,127
12761,note_on,2,0,0,,6,,,66,127
12811,note_off,50,0,0,,6,,,66,127
12813,note_on,2,0,0,,4,,,64,127
13590,note_off,777,0,0,,4,,,52,127
13594,note_off,4,0,0,,4,,,64,127
13790,note_on,196,0,0,,4,,,52,127
13997,note_off,207,0,0,,4,,,52,127
13999,note_on,2,0,0,,4,,,52,127
13999,note_on,0,0,0,,4,,,64,127
14206,note_off,207,0,0,,4,,,64,127
14206,note_off,0,0,0,,4,,,52,127
14208,note_on,2,0,0,,4,,,64,127
14208,note_on,0,0,0,,4,,,52,127
14415,note_off,207,0,0,,4,,,52,127
14415,note_off,0,0,0,,4,,,64,127
14417,note_on,2,0,0,,5,,,53,127
14417,note_on,0,0,0,,4,,,64,127
14624,note_off,207,0,0,,4,,,64,127
14624,note_off,0,0,0,,5,,,53,127
14626,note_on,2,0,0,,5,,,53,127
14626,note_on,0,0,0,,2,,,62,127
14626,note_on,0,0,0,,5,,,77,127
14694,note_off,68,0,0,,5,,,77,127
14696,note_on,2,0,0,,7,,,79,127
14764,note_off,68,0,0,,7,,,79,127
14766,note_on,2,0,0,,10,,,81,127
14834,note_off,68,0,0,,2,,,62,127
14834,note_off,0,0,0,,5,,,53,127
14836,note_on,2,0,0,,0,,,60,127
14836,note_on,0,0,0,,5,,,53,127
15043,note_off,207,0,0,,5,,,53,127
15043,note_off,0,0,0,,0,,,60,127
15045,note_on,2,0,0,,0,,,60,127
15045,note_on,0,0,0,,7,,,55,127
15252,note_off,207,0,0,,7,,,55,127
15252,note_off,0,0,0,,0,,,60,127
15252,note_off,0,0,0,,10,,,81,127
15254,note_on,2,0,0,,0,,,60,127
15254,note_on,0,0,0,,7,,,55,127
15254,note_on,0,0,0,,7,,,79,127
15322,note_off,68,0,0,,7,,,79,127
15324,note_on,2,0,0,,5,,,77,127
15392,note_off,68,0,0,,5,,,77,127
15394,note_on,2,0,0,,4,,,76,127
15462,note_off,68,0,0,,4,,,76,127
15462,note_off,0,0,0,,7,,,55,127
15462,note_off,0,0,0,,0,,,60,127
15464,note_on,2,0,0,,12,,,59,127
15464,note_on,0,0,0,,7,,,55,127
15464,note_on,0,0,0,,5,,,77,127
15532,note_off,68,0,0,,5,,,77,127
15534,note_on,2,0,0,,4,,,76,127
15602,note_off,68,0,0,,4,,,76,127
15604,note_on,2,0,0,,2,,,74,127
15672,note_off,68,0,0,,2,,,74,127
15672,note_off,0,0,0,,7,,,55,127
15672,note_off,0,0,0,,12,,,59,127
15674,note_on,2,0,0,,0,,,48,127
15674,note_on,0,0,0,,0,,,60,127
15674,note_on,0,0,0,,4,,,76,127
15881,note_off,207,0,0,,4,,,76,127
15881,note_off,0,0,0,,0,,,60,127
15881,note_off,0,0,0,,0,,,48,127
15901,note_on,20,0,0,,5,,,65,127
15901,note_on,0,0,0,,5,,,53,127
16108,note_off,207,0,0,,5,,,53,127
16108,note_off,0,0,0,,5,,,65,127
16110,note_on,2,0,0,,5,,,53,127
16110,note_on,0,0,0,,5,,,65,127
16317,note_off,207,0,0,,5,,,65,127
16317,note_off,0,0,0,,5,,,53,127
16319,note_on,2,0,0,,7,,,55,127
16319,note_on,0,0,0,,5,,,65,127
16526,note_off,207,0,0,,5,,,65,127
16526,note_off,0,0,0,,7,,,55,127
16528,note_on,2,0,0,,7,,,79,127
16528,note_on,0,0,0,,4,,,64,127
16528,note_on,0,0,0,,7,,,55,127
16596,note_off,68,0,0,,7,,,79,127
16598,note_on,2,0,0,,10,,,81,127
16666,note_off,68,0,0,,10,,,81,127
16668,note_on,2,0,0,,11,,,82,127
16736,note_off,68,0,0,,7,,,55,127
16736,note_off,0,0,0,,4,,,64,127
16738,note_on,2,0,0,,2,,,62,127
16738,note_on,0,0,0,,7,,,55,127
16945,note_off,207,0,0,,7,,,55,127
16945,note_off,0,0,0,,2,,,62,127
16947,note_on,2,0,0,,10,,,57,127
16947,note_on,0,0,0,,2,,,62,127
17154,note_off,207,0,0,,2,,,62,127
17154,note_off,0,0,0,,10,,,57,127
17154,note_off,0,0,0,,11,,,82,127
17156,note_on,2,0,0,,10,,,81,127
17156,note_on,0,0,0,,10,,,57,127
17156,note_on,0,0,0,,2,,,62,127
17224,note_off,68,0,0,,10,,,81,127
17226,note_on,2,0,0,,7,,,79,127
17294,note_off,68,0,0,,7,,,79,127
17296,note_on,2,0,0,,5,,,77,127
17364,note_off,68,0,0,,5,,,77,127
17364,note_off,0,0,0,,2,,,62,127
17364,note_off,0,0,0,,10,,,57,127
17366,note_on,2,0,0,,7,,,79,127
17366,note_on,0,0,0,,10,,,57,127
17366,note_on,0,0,0,,1,,,61,127
17434,note_off,68,0,0,,7,,,79,127
17436,note_on,2,0,0,,5,,,77,127
17504,note_off,68,0,0,,5,,,77,127
17506,note_on,2,0,0,,4,,,76,127
17574,note_off,68,0,0,,4,,,76,127
17574,note_off,0,0,0,,1,,,61,127
17574,note_off,0,0,0,,10,,,57,127
17576,note_on,2,0,0,,5,,,77,127
17576,note_on,0,0,0,,2,,,50,127
17576,note_on,0,0,0,,2,,,62,127
17783,note_off,207,0,0,,2,,,62,127
17783,note_off,0,0,0,,2,,,50,127
17783,note_off,0,0,0,,5,,,77,127
17803,note_on,20,0,0,,7,,,55,127
17803,note_on,0,0,0,,7,,,67,127
18010,note_off,207,0,0,,7,,,67,127
18010,note_off,0,0,0,,7,,,55,127
18012,note_on,2,0,0,,7,,,55,127
18012,note_on,0,0,0,,7,,,67,127
18219,note_off,207,0,0,,7,,,67,127
18219,note_off,0,0,0,,7,,,55,127
18221,note_on,2,0,0,,7,,,67,127
18221,note_on,0,0,0,,10,,,57,127
18428,note_off,207,0,0,,10,,,57,127
18428,note_off,0,0,0,,7,,,67,127
18430,note_on,2,0,0,,6,,,66,127
18430,note_on,0,0,0,,10,,,57,127
18430,note_on,0,0,0,,10,,,81,127
18498,note_off,68,0,0,,10,,,81,127
18500,note_on,2,0,0,,12,,,83,127
18568,note_off,68,0,0,,12,,,83,127
18570,note_on,2,0,0,,0,,,84,127
18638,note_off,68,0,0,,10,,,57,127
18638,note_off,0,0,0,,6,,,66,127
18640,note_on,2,0,0,,10,,,57,127
18640,note_on,0,0,0,,4,,,64,127
18847,note_off,207,0,0,,4,,,64,127
18847,note_off,0,0,0,,10,,,57,127
18849,note_on,2,0,0,,12,,,59,127
18849,note_on,0,0,0,,4,,,64,127
19056,note_off,207,0,0,,4,,,64,127
19056,note_off,0,0,0,,12,,,59,127
19056,note_off,0,0,0,,0,,,84,127
19058,note_on,2,0,0,,12,,,59,127
19058,note_on,0,0,0,,4,,,64,127
19058,note_on,0,0,0,,12,,,83,127
19126,note_off,68,0,0,,12,,,83,127
19128,note_on,2,0,0,,10,,,81,127
19196,note_off,68,0,0,,10,,,81,127
19198,note_on,2,0,0,,8,,,80,127
19266,note_off,68,0,0,,8,,,80,127
19266,note_off,0,0,0,,4,,,64,127
19266,note_off,0,0,0,,12,,,59,127
19268,note_on,2,0,0,,3,,,63,127
19268,note_on,0,0,0,,12,,,59,127
19268,note_on,0,0,0,,10,,,81,127
19336,note_off,68,0,0,,10,,,81,127
19338,note_on,2,0,0,,8,,,80,127
19406,note_off,68,0,0,,8,,,80,127
19408,note_on,2,0,0,,6,,,78,127
19476,note_off,68,0,0,,6,,,78,127
19476,note_off,0,0,0,,12,,,59,127
19476,note_off,0,0,0,,3,,,63,127
19478,note_on,2,0,0,,4,,,52,127
19478,note_on,0,0,0,,8,,,80,127
19581,note_off,103,0,0,,8,,,80,127
19583,note_on,2,0,0,,10,,,81,127
19686,note_off,103,0,0,,10,,,81,127
19688,note_on,2,0,0,,12,,,83,127
19791,note_off,103,0,0,,12,,,83,127
19793,note_on,2,0,0,,10,,,81,127
19896,note_off,103,0,0,,10,,,81,127
19898,note_on,2,0,0,,4,,,64,127
19898,note_on,0,0,0,,12,,,83,127
20001,note_off,103,0,0,,12,,,83,127
20003,note_on,2,0,0,,4,,,76,127
20106,note_off,103,0,0,,4,,,76,127
20107,note_off,1,0,0,,4,,,52,127
20108,note_on,1,0,0,,5,,,53,127
20108,note_on,0,0,0,,2,,,74,127
20211,note_off,103,0,0,,2,,,74,127
20213,note_on,2,0,0,,4,,,76,127
20313,note_off,100,0,0,,4,,,64,127
20315,note_off,2,0,0,,4,,,76,127
20317,note_on,2,0,0,,2,,,62,127
20317,note_on,0,0,0,,5,,,77,127
20420,note_off,103,0,0,,5,,,77,127
20422,note_on,2,0,0,,4,,,76,127
20525,note_off,103,0,0,,4,,,76,127
20527,note_on,2,0,0,,5,,,77,127
20630,note_off,103,0,0,,5,,,77,127
20632,note_on,2,0,0,,10,,,69,127
20735,note_off,103,0,0,,2,,,62,127
20736,note_off,1,0,0,,5,,,53,127
20746,note_on,10,0,0,,4,,,40,127
20746,note_on,0,0,0,,8,,,68,127
20751,note_off,5,0,0,,10,,,69,127
20848,note_off,97,0,0,,8,,,68,127
20850,note_on,2,0,0,,10,,,69,127
20953,note_off,103,0,0,,10,,,69,127
20955,note_on,2,0,0,,12,,,71,127
21058,note_off,103,0,0,,12,,,71,127
21060,note_on,2,0,0,,10,,,69,127
21163,note_off,103,0,0,,10,,,69,127
21165,note_on,2,0,0,,4,,,52,127
21165,note_on,0,0,0,,12,,,71,127
21268,note_off,103,0,0,,12,,,71,127
21270,note_on,2,0,0,,4,,,64,127
21373,note_off,103,0,0,,4,,,64,127
21374,note_off,1,0,0,,4,,,40,127
21375,note_on,1,0,0,,5,,,41,127
21375,note_on,0,0,0,,2,,,62,127
21478,note_off,103,0,0,,2,,,62,127
21480,note_on,2,0,0,,4,,,64,127
21580,note_off,100,0,0,,4,,,52,127
21582,note_off,2,0,0,,4,,,64,127
21584,note_on,2,0,0,,2,,,50,127
21584,note_on,0,0,0,,5,,,65,127
21687,note_off,103,0,0,,5,,,65,127
21689,note_on,2,0,0,,4,,,64,127
21792,note_off,103,0,0,,4,,,64,127
21794,note_on,2,0,0,,5,,,65,127
21897,note_off,103,0,0,,5,,,65,127
21899,note_on,2,0,0,,10,,,57,127
22002,note_off,103,0,0,,10,,,57,127
22002,note_off,0,0,0,,2,,,50,127
22003,note_off,1,0,0,,5,,,41,127
22004,note_on,1,0,0,,4,,,40,127
22004,note_on,0,0,0,,10,,,57,127
22072,note_off,68,0,0,,10,,,57,127
22074,note_on,2,0,0,,8,,,56,127
22142,note_off,68,0,0,,8,,,56,127
22144,note_on,2,0,0,,10,,,57,127
22212,note_off,68,0,0,,10,,,57,127
22214,note_on,2,0,0,,8,,,56,127
22317,note_off,103,0,0,,8,,,56,127
22319,note_on,2,0,0,,6,,,54,127
22422,note_off,103,0,0,,6,,,54,127
22424,note_on,2,0,0,,4,,,52,127
22631,note_off,207,0,0,,4,,,52,127
22655,note_off,24,0,0,,4,,,40,127
22659,note_on,4,0,0,,4,,,52,127
22762,note_off,103,0,0,,4,,,52,127
22764,note_on,2,0,0,,6,,,54,127
22867,note_off,103,0,0,,6,,,54,127
22869,note_on,2,0,0,,4,,,76,127
22869,note_on,0,0,0,,8,,,56,127
22972,note_off,103,0,0,,8,,,56,127
22974,note_on,2,0,0,,10,,,57,127
23077,note_off,103,0,0,,10,,,57,127
23077,note_off,0,0,0,,4,,,76,127
23079,note_on,2,0,0,,0,,,72,127
23079,note_on,0,0,0,,12,,,59,127
23182,note_off,103,0,0,,12,,,59,127
23184,note_on,2,0,0,,0,,,60,127
23287,note_off,103,0,0,,0,,,60,127
23287,note_off,0,0,0,,0,,,72,127
23289,note_on,2,0,0,,12,,,71,127
23289,note_on,0,0,0,,2,,,62,127
23392,note_off,103,0,0,,2,,,62,127
23394,note_on,2,0,0,,4,,,64,127
23497,note_off,103,0,0,,4,,,64,127
23497,note_off,0,0,0,,12,,,71,127
23499,note_on,2,0,0,,2,,,74,127
23499,note_on,0,0,0,,5,,,65,127
23602,note_off,103,0,0,,5,,,65,127
23604,note_on,2,0,0,,4,,,64,127
23707,note_off,103,0,0,,4,,,64,127
23707,note_off,0,0,0,,2,,,74,127
23709,note_on,2,0,0,,0,,,72,127
23709,note_on,0,0,0,,2,,,62,127
23812,note_off,103,0,0,,2,,,62,127
23814,note_on,2,0,0,,0,,,60,127
23917,note_off,103,0,0,,0,,,60,127
23917,note_off,0,0,0,,0,,,72,127
23919,note_on,2,0,0,,12,,,71,127
23919,note_on,0,0,0,,12,,,59,127
24022,note_off,103,0,0,,12,,,59,127
24024,note_on,2,0,0,,10,,,57,127
24127,note_off,103,0,0,,10,,,57,127
24127,note_off,0,0,0,,12,,,71,127
24129,note_on,2,0,0,,2,,,74,127
24129,note_on,0,0,0,,8,,,56,127
24197,note_off,68,0,0,,2,,,74,127
24199,note_on,2,0,0,,0,,,72,127
24232,note_off,33,0,0,,8,,,56,127
24234,note_on,2,0,0,,6,,,54,127
24267,note_off,33,0,0,,0,,,72,127
24269,note_on,2,0,0,,2,,,74,127
24337,note_off,68,0,0,,2,,,74,127
24337,note_off,0,0,0,,6,,,54,127
24339,note_on,2,0,0,,0,,,72,127
24339,note_on,0,0,0,,4,,,52,127
24407,note_off,68,0,0,,0,,,72,127
24409,note_on,2,0,0,,12,,,71,127
24442,note_off,33,0,0,,4,,,52,127
24444,note_on,2,0,0,,2,,,50,127
24477,note_off,33,0,0,,12,,,71,127
24479,note_on,2,0,0,,0,,,72,127
24547,note_off,68,0,0,,0,,,72,127
24547,note_off,0,0,0,,2,,,50,127
24549,note_on,2,0,0,,12,,,71,127
24549,note_on,0,0,0,,0,,,48,127
24652,note_off,103,0,0,,0,,,48,127
24654,note_on,2,0,0,,2,,,50,127
24757,note_off,103,0,0,,2,,,50,127
24757,note_off,0,0,0,,12,,,71,127
24759,note_on,2,0,0,,4,,,76,127
24759,note_on,0,0,0,,8,,,56,127
24862,note_off,103,0,0,,8,,,56,127
24864,note_on,2,0,0,,11,,,58,127
24967,note_off,103,0,0,,11,,,58,127
24967,note_off,0,0,0,,4,,,76,127
24969,note_on,2,0,0,,0,,,72,127
24969,note_on,0,0,0,,12,,,59,127
25072,note_off,103,0,0,,12,,,59,127
25074,note_on,2,0,0,,0,,,60,127
25177,note_off,103,0,0,,0,,,60,127
25177,note_off,0,0,0,,0,,,72,127
25179,note_on,2,0,0,,12,,,71,127
25179,note_on,0,0,0,,2,,,62,127
25282,note_off,103,0,0,,2,,,62,127
25284,note_on,2,0,0,,4,,,64,127
25387,note_off,103,0,0,,4,,,64,127
25387,note_off,0,0,0,,12,,,71,127
25389,note_on,2,0,0,,2,,,74,127
25389,note_on,0,0,0,,5,,,65,127
25492,note_off,103,0,0,,5,,,65,127
25494,note_on,2,0,0,,4,,,64,127
25597,note_off,103,0,0,,4,,,64,127
25597,note_off,0,0,0,,2,,,74,127
25599,note_on,2,0,0,,0,,,72,127
25599,note_on,0,0,0,,2,,,62,127
25702,note_off,103,0,0,,2,,,62,127
25704,note_on,2,0,0,,0,,,60,127
25807,note_off,103,0,0,,0,,,60,127
25807,note_off,0,0,0,,0,,,72,127
25809,note_on,2,0,0,,12,,,71,127
25809,note_on,0,0,0,,12,,,59,127
25912,note_off,103,0,0,,12,,,59,127
25914,note_on,2,0,0,,10,,,57,127
26017,note_off,103,0,0,,10,,,57,127
26017,note_off,0,0,0,,12,,,71,127
26019,note_on,2,0,0,,2,,,74,127
26019,note_on,0,0,0,,8,,,56,127
26087,note_off,68,0,0,,2,,,74,127
26089,note_on,2,0,0,,0,,,72,127
26122,note_off,33,0,0,,8,,,56,127
26124,note_on,2,0,0,,6,,,54,127
26157,note_off,33,0,0,,0,,,72,127
26159,note_on,2,0,0,,2,,,74,127
26227,note_off,68,0,0,,2,,,74,127
26227,note_off,0,0,0,,6,,,54,127
26229,note_on,2,0,0,,0,,,72,127
26229,note_on,0,0,0,,4,,,52,127
26297,note_off,68,0,0,,0,,,72,127
26299,note_on,2,0,0,,12,,,71,127
26332,note_off,33,0,0,,4,,,52,127
26334,note_on,2,0,0,,2,,,50,127
26367,note_off,33,0,0,,12,,,71,127
26369,note_on,2,0,0,,0,,,72,127
26421,note_off,52,0,0,,0,,,72,127
26436,note_off,15,0,0,,2,,,50,127
26438,note_on,2,0,0,,12,,,71,127
26438,note_on,0,0,0,,12,,,59,127
26438,note_on,0,0,0,,4,,,52,127
26438,note_on,0,0,0,,8,,,56,127
26543,note_on,105,0,0,,10,,,69,127
26555,note_off,12,0,0,,12,,,71,127
26646,note_off,91,0,0,,10,,,69,127
26646,note_off,0,0,0,,8,,,56,127
26646,note_off,0,0,0,,4,,,52,127
26646,note_off,0,0,0,,12,,,59,127
26648,note_on,2,0,0,,8,,,68,127
26648,note_on,0,0,0,,8,,,56,127
26648,note_on,0,0,0,,12,,,59,127
26648,note_on,0,0,0,,4,,,52,127
26751,note_off,103,0,0,,8,,,68,127
26753,note_on,2,0,0,,10,,,69,127
26856,note_off,103,0,0,,10,,,69,127
26856,note_off,0,0,0,,4,,,52,127
26856,note_off,0,0,0,,12,,,59,127
26856,note_off,0,0,0,,8,,,56,127
26858,note_on,2,0,0,,12,,,71,127
26858,note_on,0,0,0,,12,,,59,127
26858,note_on,0,0,0,,4,,,52,127
26858,note_on,0,0,0,,8,,,56,127
26961,note_off,103,0,0,,12,,,71,127
26963,note_on,2,0,0,,0,,,72,127
27066,note_off,103,0,0,,0,,,72,127
27066,note_off,0,0,0,,8,,,56,127
27066,note_off,0,0,0,,4,,,52,127
27066,note_off,0,0,0,,12,,,59,127
27068,note_on,2,0,0,,2,,,74,127
27068,note_on,0,0,0,,12,,,59,127
27068,note_on,0,0,0,,10,,,57,127
27068,note_on,0,0,0,,2,,,50,127
27171,note_off,103,0,0,,2,,,74,127
27173,note_on,2,0,0,,4,,,76,127
27276,note_off,103,0,0,,4,,,76,127
27276,note_off,0,0,0,,2,,,50,127
27276,note_off,0,0,0,,10,,,57,127
27276,note_off,0,0,0,,12,,,59,127
27278,note_on,2,0,0,,5,,,77,127
27278,note_on,0,0,0,,12,,,59,127
27278,note_on,0,0,0,,10,,,57,127
27278,note_on,0,0,0,,2,,,50,127
27381,note_off,103,0,0,,5,,,77,127
27383,note_on,2,0,0,,4,,,76,127
27486,note_off,103,0,0,,4,,,76,127
27486,note_off,0,0,0,,2,,,50,127
27486,note_off,0,0,0,,10,,,57,127
27486,note_off,0,0,0,,12,,,59,127
27488,note_on,2,0,0,,2,,,74,127
27488,note_on,0,0,0,,2,,,50,127
27488,note_on,0,0,0,,10,,,57,127
27488,note_on,0,0,0,,12,,,59,127
27591,note_off,103,0,0,,2,,,74,127
27593,note_on,2,0,0,,0,,,72,127
27696,note_off,103,0,0,,0,,,72,127
27696,note_off,0,0,0,,12,,,59,127
27696,note_off,0,0,0,,10,,,57,127
27696,note_off,0,0,0,,2,,,50,127
27698,note_on,2,0,0,,12,,,71,127
27698,note_on,0,0,0,,12,,,59,127
27698,note_on,0,0,0,,2,,,50,127
27698,note_on,0,0,0,,10,,,57,127
27801,note_off,103,0,0,,12,,,71,127
27803,note_on,2,0,0,,10,,,69,127
27906,note_off,103,0,0,,10,,,69,127
27906,note_off,0,0,0,,10,,,57,127
27906,note_off,0,0,0,,2,,,50,127
27906,note_off,0,0,0,,12,,,59,127
27908,note_on,2,0,0,,8,,,68,127
27908,note_on,0,0,0,,12,,,59,127
27908,note_on,0,0,0,,2,,,50,127
27908,note_on,0,0,0,,10,,,57,127
28011,note_off,103,0,0,,8,,,68,127
28013,note_on,2,0,0,,6,,,66,127
28116,note_off,103,0,0,,6,,,66,127
28116,note_off,0,0,0,,10,,,57,127
28116,note_off,0,0,0,,2,,,50,127
28116,note_off,0,0,0,,12,,,59,127
28118,note_on,2,0,0,,4,,,64,127
28118,note_on,0,0,0,,10,,,57,127
28118,note_on,0,0,0,,12,,,59,127
28118,note_on,0,0,0,,2,,,50,127
28221,note_off,103,0,0,,4,,,64,127
28223,note_on,2,0,0,,3,,,63,127
28299,note_off,76,0,0,,3,,,63,127
28325,note_off,26,0,0,,2,,,50,127
28325,note_off,0,0,0,,12,,,59,127
28325,note_off,0,0,0,,10,,,57,127
28327,note_on,2,0,0,,4,,,64,127
28327,note_on,0,0,0,,8,,,56,127
28327,note_on,0,0,0,,12,,,59,127
28327,note_on,0,0,0,,4,,,52,127
28432,note_on,105,0,0,,6,,,66,127
28447,note_off,15,0,0,,4,,,64,127
28534,note_off,87,0,0,,6,,,66,127
28534,note_off,0,0,0,,4,,,52,127
28534,note_off,0,0,0,,12,,,59,127
28534,note_off,0,0,0,,8,,,56,127
28536,note_on,2,0,0,,8,,,68,127
28536,note_on,0,0,0,,4,,,52,127
28536,note_on,0,0,0,,12,,,59,127
28536,note_on,0,0,0,,8,,,56,127
28639,note_off,103,0,0,,8,,,68,127
28641,note_on,2,0,0,,10,,,69,127
28744,note_off,103,0,0,,10,,,69,127
28744,note_off,0,0,0,,8,,,56,127
28744,note_off,0,0,0,,12,,,59,127
28744,note_off,0,0,0,,4,,,52,127
28746,note_on,2,0,0,,12,,,71,127
28746,note_on,0,0,0,,12,,,59,127
28746,note_on,0,0,0,,4,,,52,127
28746,note_on,0,0,0,,8,,,56,127
28849,note_off,103,0,0,,12,,,71,127
28851,note_on,2,0,0,,0,,,72,127
28954,note_off,103,0,0,,0,,,72,127
28954,note_off,0,0,0,,8,,,56,127
28954,note_off,0,0,0,,4,,,52,127
28954,note_off,0,0,0,,12,,,59,127
28956,note_on,2,0,0,,2,,,74,127
28956,note_on,0,0,0,,12,,,59,127
28956,note_on,0,0,0,,10,,,57,127
28956,note_on,0,0,0,,2,,,50,127
29059,note_off,103,0,0,,2,,,74,127
29061,note_on,2,0,0,,4,,,76,127
29164,note_off,103,0,0,,4,,,76,127
29164,note_off,0,0,0,,2,,,50,127
29164,note_off,0,0,0,,10,,,57,127
29164,note_off,0,0,0,,12,,,59,127
29166,note_on,2,0,0,,5,,,77,127
29166,note_on,0,0,0,,10,,,57,127
29166,note_on,0,0,0,,12,,,59,127
29166,note_on,0,0,0,,2,,,50,127
29269,note_off,103,0,0,,5,,,77,127
29271,note_on,2,0,0,,4,,,76,127
29374,note_off,103,0,0,,4,,,76,127
29374,note_off,0,0,0,,2,,,50,127
29374,note_off,0,0,0,,12,,,59,127
29374,note_off,0,0,0,,10,,,57,127
29376,note_on,2,0,0,,2,,,74,127
29376,note_on,0,0,0,,2,,,50,127
29376,note_on,0,0,0,,10,,,57,127
29376,note_on,0,0,0,,12,,,59,127
29479,note_off,103,0,0,,2,,,74,127
29481,note_on,2,0,0,,0,,,72,127
29584,note_off,103,0,0,,0,,,72,127
29584,note_off,0,0,0,,12,,,59,127
29584,note_off,0,0,0,,10,,,57,127
29584,note_off,0,0,0,,2,,,50,127
29586,note_on,2,0,0,,12,,,71,127
29586,note_on,0,0,0,,12,,,59,127
29586,note_on,0,0,0,,10,,,57,127
29586,note_on,0,0,0,,2,,,50,127
29689,note_off,103,0,0,,12,,,71,127
29691,note_on,2,0,0,,10,,,69,127
29794,note_off,103,0,0,,10,,,69,127
29794,note_off,0,0,0,,2,,,50,127
29794,note_off,0,0,0,,10,,,57,127
29794,note_off,0,0,0,,12,,,59,127
29796,note_on,2,0,0,,8,,,68,127
29796,note_on,0,0,0,,12,,,59,127
29796,note_on,0,0,0,,2,,,50,127
29796,note_on,0,0,0,,10,,,57,127
29899,note_off,103,0,0,,8,,,68,127
29901,note_on,2,0,0,,6,,,66,127
30004,note_off,103,0,0,,6,,,66,127
30004,note_off,0,0,0,,10,,,57,127
30004,note_off,0,0,0,,2,,,50,127
30004,note_off,0,0,0,,12,,,59,127
30006,note_on,2,0,0,,4,,,64,127
30006,note_on,0,0,0,,12,,,59,127
30006,note_on,0,0,0,,2,,,50,127
30006,note_on,0,0,0,,10,,,57,127
30109,note_off,103,0,0,,4,,,64,127
30111,note_on,2,0,0,,3,,,63,127
30187,note_off,76,0,0,,3,,,63,127
30213,note_off,26,0,0,,10,,,57,127
30213,note_off,0,0,0,,2,,,50,127
30213,note_off,0,0,0,,12,,,59,127
30215,note_on,2,0,0,,4,,,64,127
30215,note_on,0,0,0,,12,,,59,127
30215,note_on,0,0,0,,4,,,52,127
30215,note_on,0,0,0,,8,,,56,127
30320,note_on,105,0,0,,6,,,66,127
30335,note_off,15,0,0,,4,,,64,127
30422,note_off,87,0,0,,6,,,66,127
30422,note_off,0,0,0,,8,,,56,127
30422,note_off,0,0,0,,4,,,52,127
30422,note_off,0,0,0,,12,,,59,127
30424,note_on,2,0,0,,8,,,68,127
30424,note_on,0,0,0,,12,,,59,127
30424,note_on,0,0,0,,8,,,56,127
30424,note_on,0,0,0,,4,,,52,127
30527,note_off,103,0,0,,8,,,68,127
30529,note_on,2,0,0,,10,,,69,127
30632,note_off,103,0,0,,10,,,69,127
30632,note_off,0,0,0,,4,,,52,127
30632,note_off,0,0,0,,8,,,56,127
30632,note_off,0,0,0,,12,,,59,127
30634,note_on,2,0,0,,12,,,71,127
30634,note_on,0,0,0,,12,,,59,127
30634,note_on,0,0,0,,8,,,56,127
30634,note_on,0,0,0,,4,,,52,127
30737,note_off,103,0,0,,12,,,71,127
30739,note_on,2,0,0,,0,,,72,127
30842,note_off,103,0,0,,0,,,72,127
30842,note_off,0,0,0,,4,,,52,127
30842,note_off,0,0,0,,8,,,56,127
30842,note_off,0,0,0,,12,,,59,127
30844,note_on,2,0,0,,2,,,74,127
30844,note_on,0,0,0,,7,,,55,127
30844,note_on,0,0,0,,12,,,59,127
30844,note_on,0,0,0,,5,,,53,127
30844,note_on,0,0,0,,2,,,50,127
30947,note_off,103,0,0,,2,,,74,127
30949,note_on,2,0,0,,4,,,76,127
31052,note_off,103,0,0,,4,,,76,127
31052,note_off,0,0,0,,2,,,50,127
31052,note_off,0,0,0,,5,,,53,127
31052,note_off,0,0,0,,12,,,59,127
31052,note_off,0,0,0,,7,,,55,127
31054,note_on,2,0,0,,5,,,77,127
31054,note_on,0,0,0,,7,,,55,127
31054,note_on,0,0,0,,12,,,59,127
31054,note_on,0,0,0,,5,,,53,127
31054,note_on,0,0,0,,2,,,50,127
31157,note_off,103,0,0,,5,,,77,127
31159,note_on,2,0,0,,7,,,79,127
31262,note_off,103,0,0,,7,,,79,127
31262,note_off,0,0,0,,2,,,50,127
31262,note_off,0,0,0,,5,,,53,127
31262,note_off,0,0,0,,12,,,59,127
31262,note_off,0,0,0,,7,,,55,127
31264,note_on,2,0,0,,10,,,81,127
31264,note_on,0,0,0,,7,,,55,127
31264,note_on,0,0,0,,12,,,59,127
31264,note_on,0,0,0,,5,,,53,127
31264,note_on,0,0,0,,2,,,50,127
31367,note_off,103,0,0,,10,,,81,127
31369,note_on,2,0,0,,12,,,83,127
31472,note_off,103,0,0,,12,,,83,127
31472,note_off,0,0,0,,2,,,50,127
31472,note_off,0,0,0,,5,,,53,127
31472,note_off,0,0,0,,12,,,59,127
31472,note_off,0,0,0,,7,,,55,127
31474,note_on,2,0,0,,0,,,84,127
31474,note_on,0,0,0,,0,,,48,127
31577,note_off,103,0,0,,0,,,84,127
31579,note_on,2,0,0,,12,,,83,127
31682,note_off,103,0,0,,12,,,83,127
31682,note_off,0,0,0,,0,,,48,127
31684,note_on,2,0,0,,10,,,81,127
31684,note_on,0,0,0,,2,,,50,127
31787,note_off,103,0,0,,10,,,81,127
31789,note_on,2,0,0,,7,,,79,127
31892,note_off,103,0,0,,7,,,79,127
31892,note_off,0,0,0,,2,,,50,127
31894,note_on,2,0,0,,5,,,77,127
31894,note_on,0,0,0,,4,,,52,127
31997,note_off,103,0,0,,5,,,77,127
31999,note_on,2,0,0,,4,,,76,127
32102,note_off,103,0,0,,4,,,76,127
32102,note_off,0,0,0,,4,,,52,127
32104,note_on,2,0,0,,2,,,74,127
32104,note_on,0,0,0,,5,,,53,127
32207,note_off,103,0,0,,2,,,74,127
32209,note_on,2,0,0,,0,,,72,127
32312,note_off,103,0,0,,0,,,72,127
32312,note_off,0,0,0,,5,,,53,127
32314,note_on,2,0,0,,12,,,71,127
32314,note_on,0,0,0,,7,,,55,127
32417,note_off,103,0,0,,12,,,71,127
32419,note_on,2,0,0,,10,,,69,127
32522,note_off,103,0,0,,10,,,69,127
32524,note_on,2,0,0,,7,,,67,127
32524,note_on,0,0,0,,7,,,43,127
32627,note_off,103,0,0,,7,,,67,127
32629,note_on,2,0,0,,5,,,65,127
32729,note_off,100,0,0,,7,,,55,127
32731,note_off,2,0,0,,5,,,65,127
32731,note_off,0,0,0,,7,,,43,127
32733,note_on,2,0,0,,4,,,64,127
32733,note_on,0,0,0,,0,,,48,127
32951,note_off,218,0,0,,0,,,48,127
32960,note_on,9,0,0,,0,,,48,127
32960,note_on,0,0,0,,0,,,60,127
33167,note_off,207,0,0,,0,,,60,127
33167,note_off,0,0,0,,0,,,48,127
33169,note_on,2,0,0,,0,,,48,127
33169,note_on,0,0,0,,0,,,60,127
33360,note_off,191,0,0,,4,,,64,127
33376,note_off,16,0,0,,0,,,60,127
33376,note_off,0,0,0,,0,,,48,127
33378,note_on,2,0,0,,2,,,50,127
33378,note_on,0,0,0,,0,,,60,127
33585,note_off,207,0,0,,0,,,60,127
33585,note_off,0,0,0,,2,,,50,127
33587,note_on,2,0,0,,12,,,59,127
33587,note_on,0,0,0,,2,,,50,127
33587,note_on,0,0,0,,7,,,79,127
33655,note_off,68,0,0,,7,,,79,127
33657,note_on,2,0,0,,6,,,78,127
33725,note_off,68,0,0,,6,,,78,127
33727,note_on,2,0,0,,7,,,79,127
33795,note_off,68,0,0,,7,,,79,127
33795,note_off,0,0,0,,2,,,50,127
33795,note_off,0,0,0,,12,,,59,127
33797,note_on,2,0,0,,10,,,57,127
33797,note_on,0,0,0,,2,,,50,127
33797,note_on,0,0,0,,6,,,78,127
33865,note_off,68,0,0,,6,,,78,127
33867,note_on,2,0,0,,4,,,76,127
33935,note_off,68,0,0,,4,,,76,127
33937,note_on,2,0,0,,6,,,78,127
34005,note_off,68,0,0,,6,,,78,127
34005,note_off,0,0,0,,2,,,50,127
34005,note_off,0,0,0,,10,,,57,127
34007,note_on,2,0,0,,7,,,55,127
34007,note_on,0,0,0,,7,,,79,127
34214,note_off,207,0,0,,7,,,79,127
34214,note_off,0,0,0,,7,,,55,127
34216,note_on,2,0,0,,2,,,50,127
34216,note_on,0,0,0,,2,,,62,127
34423,note_off,207,0,0,,2,,,62,127
34423,note_off,0,0,0,,2,,,50,127
34425,note_on,2,0,0,,2,,,50,127
34425,note_on,0,0,0,,2,,,62,127
34632,note_off,207,0,0,,2,,,62,127
34632,note_off,0,0,0,,2,,,50,127
34634,note_on,2,0,0,,4,,,52,127
34634,note_on,0,0,0,,2,,,62,127
34841,note_off,207,0,0,,2,,,62,127
34841,note_off,0,0,0,,4,,,52,127
34843,note_on,2,0,0,,0,,,60,127
34843,note_on,0,0,0,,4,,,52,127
34843,note_on,0,0,0,,10,,,81,127
34911,note_off,68,0,0,,10,,,81,127
34913,note_on,2,0,0,,8,,,80,127
34981,note_off,68,0,0,,8,,,80,127
34983,note_on,2,0,0,,10,,,81,127
35051,note_off,68,0,0,,10,,,81,127
35051,note_off,0,0,0,,4,,,52,127
35051,note_off,0,0,0,,0,,,60,127
35053,note_on,2,0,0,,4,,,52,127
35053,note_on,0,0,0,,12,,,59,127
35053,note_on,0,0,0,,8,,,80,127
35121,note_off,68,0,0,,8,,,80,127
35123,note_on,2,0,0,,6,,,78,127
35191,note_off,68,0,0,,6,,,78,127
35193,note_on,2,0,0,,8,,,80,127
35261,note_off,68,0,0,,8,,,80,127
35261,note_off,0,0,0,,12,,,59,127
35261,note_off,0,0,0,,4,,,52,127
35263,note_on,2,0,0,,10,,,57,127
35263,note_on,0,0,0,,10,,,81,127
35470,note_off,207,0,0,,10,,,81,127
35470,note_off,0,0,0,,10,,,57,127
35472,note_on,2,0,0,,4,,,52,127
35472,note_on,0,0,0,,4,,,64,127
35679,note_off,207,0,0,,4,,,64,127
35679,note_off,0,0,0,,4,,,52,127
35681,note_on,2,0,0,,4,,,52,127
35681,note_on,0,0,0,,4,,,64,127
35888,note_off,207,0,0,,4,,,64,127
35888,note_off,0,0,0,,4,,,52,127
35890,note_on,2,0,0,,4,,,64,127
35890,note_on,0,0,0,,6,,,54,127
36097,note_off,207,0,0,,6,,,54,127
36097,note_off,0,0,0,,4,,,64,127
36099,note_on,2,0,0,,6,,,54,127
36099,note_on,0,0,0,,3,,,63,127
36099,note_on,0,0,0,,12,,,83,127
36167,note_off,68,0,0,,12,,,83,127
36169,note_on,2,0,0,,11,,,82,127
36237,note_off,68,0,0,,11,,,82,127
36239,note_on,2,0,0,,12,,,83,127
36307,note_off,68,0,0,,12,,,83,127
36307,note_off,0,0,0,,3,,,63,127
36307,note_off,0,0,0,,6,,,54,127
36309,note_on,2,0,0,,1,,,61,127
36309,note_on,0,0,0,,6,,,54,127
36309,note_on,0,0,0,,11,,,82,127
36377,note_off,68,0,0,,11,,,82,127
36379,note_on,2,0,0,,8,,,80,127
36447,note_off,68,0,0,,8,,,80,127
36449,note_on,2,0,0,,11,,,82,127
36517,note_off,68,0,0,,11,,,82,127
36517,note_off,0,0,0,,6,,,54,127
36517,note_off,0,0,0,,1,,,61,127
36519,note_on,2,0,0,,12,,,59,127
36519,note_on,0,0,0,,3,,,63,127
36519,note_on,0,0,0,,12,,,83,127
36622,note_off,103,0,0,,12,,,83,127
36624,note_on,2,0,0,,10,,,81,127
36727,note_off,103,0,0,,10,,,81,127
36727,note_off,0,0,0,,12,,,59,127
36729,note_on,2,0,0,,12,,,59,127
36729,note_on,0,0,0,,7,,,79,127
36832,note_off,103,0,0,,7,,,79,127
36834,note_on,2,0,0,,6,,,78,127
36937,note_off,103,0,0,,6,,,78,127
36937,note_off,0,0,0,,12,,,59,127
36939,note_on,2,0,0,,12,,,59,127
36939,note_on,0,0,0,,4,,,76,127
37042,note_off,103,0,0,,4,,,76,127
37044,note_on,2,0,0,,3,,,75,127
37147,note_off,103,0,0,,3,,,75,127
37147,note_off,0,0,0,,12,,,59,127
37148,note_off,1,0,0,,3,,,63,127
37149,note_on,1,0,0,,0,,,60,127
37149,note_on,0,0,0,,12,,,59,127
37149,note_on,0,0,0,,0,,,72,127
37252,note_off,103,0,0,,0,,,72,127
37254,note_on,2,0,0,,12,,,71,127
37357,note_off,103,0,0,,12,,,71,127
37357,note_off,0,0,0,,12,,,59,127
37359,note_on,2,0,0,,12,,,59,127
37359,note_on,0,0,0,,10,,,69,127
37462,note_off,103,0,0,,10,,,69,127
37464,note_on,2,0,0,,7,,,67,127
37567,note_off,103,0,0,,7,,,67,127
37567,note_off,0,0,0,,12,,,59,127
37569,note_on,2,0,0,,12,,,59,127
37569,note_on,0,0,0,,6,,,66,127
37672,note_off,103,0,0,,6,,,66,127
37674,note_on,2,0,0,,4,,,64,127
37777,note_off,103,0,0,,4,,,64,127
37777,note_off,0,0,0,,12,,,59,127
37778,note_off,1,0,0,,0,,,60,127
37779,note_on,1,0,0,,12,,,59,127
37779,note_on,0,0,0,,3,,,63,127
37882,note_off,103,0,0,,12,,,59,127
37884,note_on,2,0,0,,10,,,57,127
37987,note_off,103,0,0,,10,,,57,127
37987,note_off,0,0,0,,3,,,63,127
37989,note_on,2,0,0,,7,,,55,127
37989,note_on,0,0,0,,4,,,64,127
38092,note_off,103,0,0,,7,,,55,127
38094,note_on,2,0,0,,6,,,54,127
38197,note_off,103,0,0,,6,,,54,127
38197,note_off,0,0,0,,4,,,64,127
38199,note_on,2,0,0,,4,,,52,127
38199,note_on,0,0,0,,6,,,66,127
38302,note_off,103,0,0,,4,,,52,127
38304,note_on,2,0,0,,2,,,50,127
38407,note_off,103,0,0,,2,,,50,127
38407,note_off,0,0,0,,6,,,66,127
38409,note_on,2,0,0,,0,,,48,127
38409,note_on,0,0,0,,7,,,67,127
38512,note_off,103,0,0,,0,,,48,127
38514,note_on,2,0,0,,12,,,47,127
38617,note_off,103,0,0,,12,,,47,127
38619,note_on,2,0,0,,10,,,45,127
38722,note_off,103,0,0,,10,,,45,127
38724,note_on,2,0,0,,7,,,43,127
38827,note_off,103,0,0,,7,,,43,127
38827,note_off,0,0,0,,7,,,67,127
38829,note_on,2,0,0,,6,,,42,127
38829,note_on,0,0,0,,10,,,69,127
38932,note_off,103,0,0,,6,,,42,127
38934,note_on,2,0,0,,4,,,40,127
39037,note_off,103,0,0,,4,,,40,127
39037,note_off,0,0,0,,10,,,69,127
39039,note_on,2,0,0,,12,,,35,127
39039,note_on,0,0,0,,10,,,69,127
39279,note_off,240,0,0,,10,,,69,127
39292,note_on,13,0,0,,12,,,71,127
39665,note_off,373,0,0,,12,,,35,127
39848,note_off,183,0,0,,12,,,71,127
40077,note_on,229,0,0,,12,,,59,127
40284,note_off,207,0,0,,12,,,59,127
40286,note_on,2,0,0,,1,,,61,127
40286,note_on,0,0,0,,8,,,68,127
40354,note_off,68,0,0,,8,,,68,127
40356,note_on,2,0,0,,6,,,66,127
40424,note_off,68,0,0,,6,,,66,127
40426,note_on,2,0,0,,8,,,68,127
40494,note_off,68,0,0,,8,,,68,127
40494,note_off,0,0,0,,1,,,61,127
40496,note_on,2,0,0,,3,,,63,127
40496,note_on,0,0,0,,6,,,66,127
40564,note_off,68,0,0,,6,,,66,127
40566,note_on,2,0,0,,4,,,64,127
40634,note_off,68,0,0,,4,,,64,127
40636,note_on,2,0,0,,6,,,66,127
40704,note_off,68,0,0,,6,,,66,127
40704,note_off,0,0,0,,3,,,63,127
40706,note_on,2,0,0,,4,,,64,127
40706,note_on,0,0,0,,8,,,68,127
40774,note_off,68,0,0,,8,,,68,127
40776,note_on,2,0,0,,6,,,66,127
40844,note_off,68,0,0,,6,,,66,127
40846,note_on,2,0,0,,8,,,68,127
40914,note_off,68,0,0,,8,,,68,127
40914,note_off,0,0,0,,4,,,64,127
40916,note_on,2,0,0,,6,,,66,127
40916,note_on,0,0,0,,10,,,69,127
40984,note_off,68,0,0,,10,,,69,127
40986,note_on,2,0,0,,8,,,68,127
41054,note_off,68,0,0,,8,,,68,127
41056,note_on,2,0,0,,10,,,69,127
41124,note_off,68,0,0,,10,,,69,127
41124,note_off,0,0,0,,6,,,66,127
41126,note_on,2,0,0,,12,,,71,127
41126,note_on,0,0,0,,8,,,68,127
41333,note_off,207,0,0,,8,,,68,127
41333,note_off,0,0,0,,12,,,71,127
41344,note_on,11,0,0,,12,,,59,127
41551,note_off,207,0,0,,12,,,59,127
41553,note_on,2,0,0,,8,,,68,127
41553,note_on,0,0,0,,1,,,61,127
41621,note_off,68,0,0,,8,,,68,127
41623,note_on,2,0,0,,6,,,66,127
41691,note_off,68,0,0,,6,,,66,127
41693,note_on,2,0,0,,8,,,68,127
41761,note_off,68,0,0,,8,,,68,127
41761,note_off,0,0,0,,1,,,61,127
41763,note_on,2,0,0,,6,,,66,127
41763,note_on,0,0,0,,3,,,63,127
41831,note_off,68,0,0,,6,,,66,127
41833,note_on,2,0,0,,4,,,64,127
41901,note_off,68,0,0,,4,,,64,127
41903,note_on,2,0,0,,6,,,66,127
41971,note_off,68,0,0,,6,,,66,127
41971,note_off,0,0,0,,3,,,63,127
41973,note_on,2,0,0,,8,,,68,127
41973,note_on,0,0,0,,4,,,64,127
42041,note_off,68,0,0,,8,,,68,127
42043,note_on,2,0,0,,6,,,66,127
42111,note_off,68,0,0,,6,,,66,127
42113,note_on,2,0,0,,8,,,68,127
42181,note_off,68,0,0,,8,,,68,127
42181,note_off,0,0,0,,4,,,64,127
42183,note_on,2,0,0,,10,,,69,127
42183,note_on,0,0,0,,6,,,66,127
42251,note_off,68,0,0,,10,,,69,127
42253,note_on,2,0,0,,8,,,68,127
42321,note_off,68,0,0,,8,,,68,127
42323,note_on,2,0,0,,10,,,69,127
42391,note_off,68,0,0,,10,,,69,127
42391,note_off,0,0,0,,6,,,66,127
42393,note_on,2,0,0,,12,,,71,127
42393,note_on,0,0,0,,8,,,68,127
42461,note_off,68,0,0,,12,,,71,127
42463,note_on,2,0,0,,10,,,69,127
42531,note_off,68,0,0,,10,,,69,127
42533,note_on,2,0,0,,12,,,71,127
42601,note_off,68,0,0,,12,,,71,127
42601,note_off,0,0,0,,8,,,68,127
42603,note_on,2,0,0,,1,,,73,127
42603,note_on,0,0,0,,10,,,69,127
42671,note_off,68,0,0,,1,,,73,127
42673,note_on,2,0,0,,12,,,71,127
42741,note_off,68,0,0,,12,,,71,127
42743,note_on,2,0,0,,1,,,73,127
42811,note_off,68,0,0,,1,,,73,127
42811,note_off,0,0,0,,10,,,69,127
42813,note_on,2,0,0,,3,,,75,127
42813,note_on,0,0,0,,12,,,71,127
42881,note_off,68,0,0,,3,,,75,127
42883,note_on,2,0,0,,1,,,73,127
42951,note_off,68,0,0,,1,,,73,127
42953,note_on,2,0,0,,3,,,75,127
43021,note_off,68,0,0,,3,,,75,127
43021,note_off,0,0,0,,12,,,71,127
43023,note_on,2,0,0,,4,,,76,127
43023,note_on,0,0,0,,1,,,73,127
43091,note_off,68,0,0,,4,,,76,127
43093,note_on,2,0,0,,3,,,75,127
43161,note_off,68,0,0,,3,,,75,127
43163,note_on,2,0,0,,4,,,76,127
43231,note_off,68,0,0,,4,,,76,127
43231,note_off,0,0,0,,1,,,73,127
43233,note_on,2,0,0,,6,,,78,127
43233,note_on,0,0,0,,3,,,75,127
43301,note_off,68,0,0,,6,,,78,127
43303,note_on,2,0,0,,10,,,81,127
43371,note_off,68,0,0,,10,,,81,127
43373,note_on,2,0,0,,8,,,80,127
43441,note_off,68,0,0,,8,,,80,127
43441,note_off,0,0,0,,3,,,75,127
43443,note_on,2,0,0,,10,,,81,127
43443,note_on,0,0,0,,12,,,71,127
43511,note_off,68,0,0,,10,,,81,127
43513,note_on,2,0,0,,8,,,80,127
43581,note_off,68,0,0,,8,,,80,127
43583,note_on,2,0,0,,6,,,78,127
43651,note_off,68,0,0,,6,,,78,127
43651,note_off,0,0,0,,12,,,71,127
43653,note_on,2,0,0,,8,,,80,127
43653,note_on,0,0,0,,4,,,76,127
43721,note_off,68,0,0,,8,,,80,127
43723,note_on,2,0,0,,6,,,78,127
43784,note_off,61,0,0,,4,,,76,127
43791,note_off,7,0,0,,6,,,78,127
43793,note_on,2,0,0,,4,,,76,127
43861,note_off,68,0,0,,4,,,76,127
43863,note_on,2,0,0,,10,,,81,127
43863,note_on,0,0,0,,10,,,69,127
43931,note_off,68,0,0,,10,,,81,127
43933,note_on,2,0,0,,8,,,80,127
44001,note_off,68,0,0,,8,,,80,127
44003,note_on,2,0,0,,6,,,78,127
44071,note_off,68,0,0,,6,,,78,127
44071,note_off,0,0,0,,10,,,69,127
44073,note_on,2,0,0,,8,,,80,127
44073,note_on,0,0,0,,12,,,71,127
44141,note_off,68,0,0,,8,,,80,127
44143,note_on,2,0,0,,6,,,78,127
44211,note_off,68,0,0,,6,,,78,127
44213,note_on,2,0,0,,4,,,76,127
44281,note_off,68,0,0,,4,,,76,127
44283,note_on,2,0,0,,6,,,78,127
44283,note_on,0,0,0,,12,,,59,127
44351,note_off,68,0,0,,6,,,78,127
44353,note_on,2,0,0,,4,,,76,127
44388,note_off,35,0,0,,12,,,71,127
44421,note_off,33,0,0,,4,,,76,127
44423,note_on,2,0,0,,3,,,75,127
44491,note_off,68,0,0,,3,,,75,127
44491,note_off,0,0,0,,12,,,59,127
44493,note_on,2,0,0,,3,,,75,127
44493,note_on,0,0,0,,4,,,52,127
44750,note_on,257,0,0,,4,,,76,127
44762,note_off,12,0,0,,3,,,75,127
45141,note_off,379,0,0,,4,,,52,127
45156,note_on,15,0,0,,12,,,59,127
45165,note_off,9,0,0,,4,,,76,127
45364,note_off,199,0,0,,12,,,59,127
45366,note_on,2,0,0,,8,,,68,127
45366,note_on,0,0,0,,1,,,61,127
45434,note_off,68,0,0,,8,,,68,127
45436,note_on,2,0,0,,6,,,66,127
45504,note_off,68,0,0,,6,,,66,127
45506,note_on,2,0,0,,8,,,68,127
45574,note_off,68,0,0,,8,,,68,127
45574,note_off,0,0,0,,1,,,61,127
45576,note_on,2,0,0,,6,,,66,127
45576,note_on,0,0,0,,3,,,63,127
45644,note_off,68,0,0,,6,,,66,127
45646,note_on,2,0,0,,4,,,64,127
45714,note_off,68,0,0,,4,,,64,127
45716,note_on,2,0,0,,6,,,66,127
45784,note_off,68,0,0,,6,,,66,127
45784,note_off,0,0,0,,3,,,63,127
45786,note_on,2,0,0,,8,,,68,127
45786,note_on,0,0,0,,4,,,64,127
45854,note_off,68,0,0,,8,,,68,127
45856,note_on,2,0,0,,6,,,66,127
45924,note_off,68,0,0,,6,,,66,127
45926,note_on,2,0,0,,8,,,68,127
45994,note_off,68,0,0,,8,,,68,127
45994,note_off,0,0,0,,4,,,64,127
45996,note_on,2,0,0,,10,,,69,127
45996,note_on,0,0,0,,6,,,66,127
46064,note_off,68,0,0,,10,,,69,127
46066,note_on,2,0,0,,8,,,68,127
46134,note_off,68,0,0,,8,,,68,127
46136,note_on,2,0,0,,10,,,69,127
46204,note_off,68,0,0,,10,,,69,127
46204,note_off,0,0,0,,6,,,66,127
46206,note_on,2,0,0,,12,,,71,127
46206,note_on,0,0,0,,8,,,68,127
46413,note_off,207,0,0,,8,,,68,127
46413,note_off,0,0,0,,12,,,71,127
46415,note_on,2,0,0,,12,,,59,127
46622,note_off,207,0,0,,12,,,59,127
46624,note_on,2,0,0,,8,,,68,127
46624,note_on,0,0,0,,1,,,61,127
46692,note_off,68,0,0,,8,,,68,127
46694,note_on,2,0,0,,6,,,66,127
46762,note_off,68,0,0,,6,,,66,127
46764,note_on,2,0,0,,8,,,68,127
46832,note_off,68,0,0,,8,,,68,127
46832,note_off,0,0,0,,1,,,61,127
46834,note_on,2,0,0,,6,,,66,127
46834,note_on,0,0,0,,3,,,63,127
46902,note_off,68,0,0,,6,,,66,127
46904,note_on,2,0,0,,4,,,64,127
46972,note_off,68,0,0,,4,,,64,127
46974,note_on,2,0,0,,6,,,66,127
47042,note_off,68,0,0,,6,,,66,127
47042,note_off,0,0,0,,3,,,63,127
47044,note_on,2,0,0,,8,,,68,127
47044,note_on,0,0,0,,4,,,64,127
47112,note_off,68,0,0,,8,,,68,127
47114,note_on,2,0,0,,6,,,66,127
47182,note_off,68,0,0,,6,,,66,127
47184,note_on,2,0,0,,8,,,68,127
47252,note_off,68,0,0,,8,,,68,127
47252,note_off,0,0,0,,4,,,64,127
47254,note_on,2,0,0,,10,,,69,127
47254,note_on,0,0,0,,6,,,66,127
47322,note_off,68,0,0,,10,,,69,127
47324,note_on,2,0,0,,8,,,68,127
47392,note_off,68,0,0,,8,,,68,127
47394,note_on,2,0,0,,10,,,69,127
47462,note_off,68,0,0,,10,,,69,127
47462,note_off,0,0,0,,6,,,66,127
47464,note_on,2,0,0,,12,,,71,127
47464,note_on,0,0,0,,8,,,68,127
47532,note_off,68,0,0,,12,,,71,127
47534,note_on,2,0,0,,10,,,69,127
47602,note_off,68,0,0,,10,,,69,127
47604,note_on,2,0,0,,12,,,71,127
47672,note_off,68,0,0,,12,,,71,127
47672,note_off,0,0,0,,8,,,68,127
47674,note_on,2,0,0,,1,,,73,127
47674,note_on,0,0,0,,10,,,69,127
47742,note_off,68,0,0,,1,,,73,127
47744,note_on,2,0,0,,12,,,71,127
47812,note_off,68,0,0,,12,,,71,127
47814,note_on,2,0,0,,1,,,73,127
47882,note_off,68,0,0,,1,,,73,127
47882,note_off,0,0,0,,10,,,69,127
47884,note_on,2,0,0,,3,,,75,127
47884,note_on,0,0,0,,12,,,71,127
47952,note_off,68,0,0,,3,,,75,127
47954,note_on,2,0,0,,1,,,73,127
48022,note_off,68,0,0,,1,,,73,127
48024,note_on,2,0,0,,3,,,75,127
48092,note_off,68,0,0,,3,,,75,127
48092,note_off,0,0,0,,12,,,71,127
48094,note_on,2,0,0,,4,,,76,127
48094,note_on,0,0,0,,1,,,73,127
48162,note_off,68,0,0,,4,,,76,127
48164,note_on,2,0,0,,3,,,75,127
48232,note_off,68,0,0,,3,,,75,127
48234,note_on,2,0,0,,4,,,76,127
48302,note_off,68,0,0,,4,,,76,127
48302,note_off,0,0,0,,1,,,73,127
48304,note_on,2,0,0,,6,,,78,127
48304,note_on,0,0,0,,3,,,75,127
48372,note_off,68,0,0,,6,,,78,127
48374,note_on,2,0,0,,10,,,81,127
48442,note_off,68,0,0,,10,,,81,127
48444,note_on,2,0,0,,8,,,80,127
48512,note_off,68,0,0,,8,,,80,127
48512,note_off,0,0,0,,3,,,75,127
48514,note_on,2,0,0,,10,,,81,127
48514,note_on,0,0,0,,12,,,71,127
48582,note_off,68,0,0,,10,,,81,127
48584,note_on,2,0,0,,8,,,80,127
48652,note_off,68,0,0,,8,,,80,127
48654,note_on,2,0,0,,6,,,78,127
48722,note_off,68,0,0,,6,,,78,127
48722,note_off,0,0,0,,12,,,71,127
48724,note_on,2,0,0,,8,,,80,127
48724,note_on,0,0,0,,4,,,76,127
48792,note_off,68,0,0,,8,,,80,127
48794,note_on,2,0,0,,6,,,78,127
48855,note_off,61,0,0,,4,,,76,127
48862,note_off,7,0,0,,6,,,78,127
48864,note_on,2,0,0,,4,,,76,127
48932,note_off,68,0,0,,4,,,76,127
48934,note_on,2,0,0,,10,,,81,127
48934,note_on,0,0,0,,10,,,69,127
49002,note_off,68,0,0,,10,,,81,127
49004,note_on,2,0,0,,8,,,80,127
49072,note_off,68,0,0,,8,,,80,127
49074,note_on,2,0,0,,6,,,78,127
49142,note_off,68,0,0,,6,,,78,127
49142,note_off,0,0,0,,10,,,69,127
49144,note_on,2,0,0,,8,,,80,127
49144,note_on,0,0,0,,12,,,71,127
49212,note_off,68,0,0,,8,,,80,127
49214,note_on,2,0,0,,6,,,78,127
49282,note_off,68,0,0,,6,,,78,127
49284,note_on,2,0,0,,4,,,76,127
49352,note_off,68,0,0,,4,,,76,127
49354,note_on,2,0,0,,6,,,78,127
49354,note_on,0,0,0,,12,,,59,127
49422,note_off,68,0,0,,6,,,78,127
49424,note_on,2,0,0,,4,,,76,127
49459,note_off,35,0,0,,12,,,71,127
49492,note_off,33,0,0,,4,,,76,127
49494,note_on,2,0,0,,3,,,75,127
49562,note_off,68,0,0,,3,,,75,127
49562,note_off,0,0,0,,12,,,59,127
49571,note_on,9,0,0,,4,,,52,127
49571,note_on,0,0,0,,4,,,76,127
49791,note_on,220,0,0,,12,,,83,127
49885,note_off,94,0,0,,4,,,76,127
49974,note_off,89,0,0,,4,,,52,127
49998,note_off,24,0,0,,12,,,83,127
50000,note_on,2,0,0,,8,,,56,127
50000,note_on,0,0,0,,12,,,71,127
50207,note_off,207,0,0,,12,,,71,127
50207,note_off,0,0,0,,8,,,56,127
50209,note_on,2,0,0,,10,,,57,127
50209,note_on,0,0,0,,1,,,73,127
50418,note_on,209,0,0,,4,,,76,127
50523,note_off,105,0,0,,1,,,73,127
50612,note_off,89,0,0,,10,,,57,127
50625,note_off,13,0,0,,4,,,76,127
50627,note_on,2,0,0,,12,,,59,127
50627,note_on,0,0,0,,6,,,66,127
50834,note_off,207,0,0,,6,,,66,127
50834,note_off,0,0,0,,12,,,59,127
50836,note_on,2,0,0,,4,,,52,127
50836,note_on,0,0,0,,8,,,68,127
51045,note_on,209,0,0,,12,,,71,127
51150,note_off,105,0,0,,8,,,68,127
51239,note_off,89,0,0,,4,,,52,127
51252,note_off,13,0,0,,12,,,71,127
51254,note_on,2,0,0,,8,,,56,127
51254,note_on,0,0,0,,12,,,59,127
51461,note_off,207,0,0,,12,,,59,127
51461,note_off,0,0,0,,8,,,56,127
51463,note_on,2,0,0,,10,,,57,127
51463,note_on,0,0,0,,1,,,73,127
51670,note_off,207,0,0,,1,,,73,127
51670,note_off,0,0,0,,10,,,57,127
51672,note_on,2,0,0,,12,,,59,127
51672,note_on,0,0,0,,4,,,64,127
51879,note_off,207,0,0,,4,,,64,127
51881,note_on,2,0,0,,12,,,47,127
51881,note_on,0,0,0,,3,,,63,127
52086,note_off,205,0,0,,12,,,59,127
52088,note_off,2,0,0,,3,,,63,127
52088,note_off,0,0,0,,12,,,47,127
52090,note_on,2,0,0,,4,,,52,127
52090,note_on,0,0,0,,4,,,64,127
52286,note_off,196,0,0,,4,,,64,127
52299,note_on,13,0,0,,12,,,83,127
52506,note_off,207,0,0,,12,,,83,127
52506,note_off,0,0,0,,4,,,52,127
52508,note_on,2,0,0,,8,,,56,127
52508,note_on,0,0,0,,12,,,71,127
52715,note_off,207,0,0,,12,,,71,127
52715,note_off,0,0,0,,8,,,56,127
52717,note_on,2,0,0,,10,,,57,127
52717,note_on,0,0,0,,1,,,73,127
52913,note_off,196,0,0,,1,,,73,127
52926,note_on,13,0,0,,4,,,76,127
53133,note_off,207,0,0,,4,,,76,127
53133,note_off,0,0,0,,10,,,57,127
53135,note_on,2,0,0,,12,,,59,127
53135,note_on,0,0,0,,6,,,66,127
53342,note_off,207,0,0,,6,,,66,127
53342,note_off,0,0,0,,12,,,59,127
53344,note_on,2,0,0,,4,,,52,127
53344,note_on,0,0,0,,8,,,68,127
53540,note_off,196,0,0,,8,,,68,127
53553,note_on,13,0,0,,12,,,71,127
53760,note_off,207,0,0,,12,,,71,127
53760,note_off,0,0,0,,4,,,52,127
53762,note_on,2,0,0,,8,,,56,127
53762,note_on,0,0,0,,12,,,59,127
53969,note_off,207,0,0,,12,,,59,127
53969,note_off,0,0,0,,8,,,56,127
53971,note_on,2,0,0,,10,,,57,127
53971,note_on,0,0,0,,1,,,73,127
54178,note_off,207,0,0,,1,,,73,127
54178,note_off,0,0,0,,10,,,57,127
54180,note_on,2,0,0,,12,,,59,127
54180,note_on,0,0,0,,4,,,64,127
54387,note_off,207,0,0,,4,,,64,127
54389,note_on,2,0,0,,12,,,47,127
54389,note_on,0,0,0,,3,,,63,127
54594,note_off,205,0,0,,12,,,59,127
54596,note_off,2,0,0,,12,,,47,127
54611,note_on,15,0,0,,4,,,52,127
54611,note_on,0,0,0,,4,,,64,127
54618,note_off,7,0,0,,3,,,63,127
55430,note_off,812,0,0,,4,,,64,127
55430,note_off,0,0,0,,4,,,52,127
55671,note_on,241,0,0,,4,,,52,127
55878,note_off,207,0,0,,4,,,52,127
55881,note_on,3,0,0,,4,,,64,127
55881,note_on,0,0,0,,4,,,52,127
56088,note_off,207,0,0,,4,,,52,127
56088,note_off,0,0,0,,4,,,64,127
56090,note_on,2,0,0,,4,,,64,127
56090,note_on,0,0,0,,4,,,52,127
56297,note_off,207,0,0,,4,,,52,127
56297,note_off,0,0,0,,4,,,64,127
56299,note_on,2,0,0,,5,,,53,127
56299,note_on,0,0,0,,4,,,64,127
56506,note_off,207,0,0,,4,,,64,127
56506,note_off,0,0,0,,5,,,53,127
56508,note_on,2,0,0,,5,,,65,127
56508,note_on,0,0,0,,2,,,62,127
56508,note_on,0,0,0,,5,,,53,127
56576,note_off,68,0,0,,5,,,65,127
56578,note_on,2,0,0,,7,,,67,127
56646,note_off,68,0,0,,7,,,67,127
56648,note_on,2,0,0,,10,,,69,127
56716,note_off,68,0,0,,5,,,53,127
56716,note_off,0,0,0,,2,,,62,127
56718,note_on,2,0,0,,0,,,60,127
56718,note_on,0,0,0,,5,,,53,127
56925,note_off,207,0,0,,5,,,53,127
56925,note_off,0,0,0,,0,,,60,127
56927,note_on,2,0,0,,0,,,60,127
56927,note_on,0,0,0,,7,,,55,127
57134,note_off,207,0,0,,7,,,55,127
57134,note_off,0,0,0,,0,,,60,127
57134,note_off,0,0,0,,10,,,69,127
57136,note_on,2,0,0,,7,,,67,127
57136,note_on,0,0,0,,0,,,60,127
57136,note_on,0,0,0,,7,,,55,127
57204,note_off,68,0,0,,7,,,67,127
57206,note_on,2,0,0,,5,,,65,127
57274,note_off,68,0,0,,5,,,65,127
57276,note_on,2,0,0,,4,,,64,127
57344,note_off,68,0,0,,4,,,64,127
57344,note_off,0,0,0,,7,,,55,127
57344,note_off,0,0,0,,0,,,60,127
57346,note_on,2,0,0,,5,,,65,127
57346,note_on,0,0,0,,7,,,55,127
57346,note_on,0,0,0,,12,,,59,127
57414,note_off,68,0,0,,5,,,65,127
57416,note_on,2,0,0,,4,,,64,127
57484,note_off,68,0,0,,4,,,64,127
57486,note_on,2,0,0,,2,,,62,127
57554,note_off,68,0,0,,2,,,62,127
57554,note_off,0,0,0,,12,,,59,127
57554,note_off,0,0,0,,7,,,55,127
57556,note_on,2,0,0,,4,,,64,127
57556,note_on,0,0,0,,0,,,60,127
57763,note_off,207,0,0,,0,,,60,127
57763,note_off,0,0,0,,4,,,64,127
57783,note_on,20,0,0,,5,,,53,127
57783,note_on,0,0,0,,5,,,65,127
57990,note_off,207,0,0,,5,,,65,127
57990,note_off,0,0,0,,5,,,53,127
57992,note_on,2,0,0,,5,,,65,127
57992,note_on,0,0,0,,5,,,53,127
58199,note_off,207,0,0,,5,,,53,127
58199,note_off,0,0,0,,5,,,65,127
58201,note_on,2,0,0,,7,,,55,127
58201,note_on,0,0,0,,5,,,65,127
58408,note_off,207,0,0,,5,,,65,127
58408,note_off,0,0,0,,7,,,55,127
58410,note_on,2,0,0,,4,,,64,127
58410,note_on,0,0,0,,7,,,55,127
58410,note_on,0,0,0,,7,,,67,127
58478,note_off,68,0,0,,7,,,67,127
58480,note_on,2,0,0,,10,,,69,127
58548,note_off,68,0,0,,10,,,69,127
58550,note_on,2,0,0,,11,,,70,127
58618,note_off,68,0,0,,7,,,55,127
58618,note_off,0,0,0,,4,,,64,127
58620,note_on,2,0,0,,7,,,55,127
58620,note_on,0,0,0,,2,,,62,127
58827,note_off,207,0,0,,2,,,62,127
58827,note_off,0,0,0,,7,,,55,127
58829,note_on,2,0,0,,10,,,57,127
58829,note_on,0,0,0,,2,,,62,127
59036,note_off,207,0,0,,2,,,62,127
59036,note_off,0,0,0,,10,,,57,127
59036,note_off,0,0,0,,11,,,70,127
59038,note_on,2,0,0,,2,,,62,127
59038,note_on,0,0,0,,10,,,57,127
59038,note_on,0,0,0,,10,,,69,127
59106,note_off,68,0,0,,10,,,69,127
59108,note_on,2,0,0,,7,,,67,127
59176,note_off,68,0,0,,7,,,67,127
59178,note_on,2,0,0,,5,,,65,127
59246,note_off,68,0,0,,5,,,65,127
59246,note_off,0,0,0,,10,,,57,127
59246,note_off,0,0,0,,2,,,62,127
59248,note_on,2,0,0,,1,,,61,127
59248,note_on,0,0,0,,10,,,57,127
59248,note_on,0,0,0,,7,,,67,127
59316,note_off,68,0,0,,7,,,67,127
59318,note_on,2,0,0,,5,,,65,127
59386,note_off,68,0,0,,5,,,65,127
59388,note_on,2,0,0,,4,,,64,127
59456,note_off,68,0,0,,4,,,64,127
59456,note_off,0,0,0,,10,,,57,127
59456,note_off,0,0,0,,1,,,61,127
59458,note_on,2,0,0,,2,,,50,127
59458,note_on,0,0,0,,2,,,62,127
59458,note_on,0,0,0,,5,,,65,127
59654,note_off,196,0,0,,5,,,65,127
59665,note_off,11,0,0,,2,,,62,127
59665,note_off,0,0,0,,2,,,50,127
59667,note_on,2,0,0,,2,,,62,127
59667,note_on,0,0,0,,10,,,81,127
59874,note_off,207,0,0,,10,,,81,127
59874,note_off,0,0,0,,2,,,62,127
59876,note_on,2,0,0,,2,,,62,127
59876,note_on,0,0,0,,2,,,74,127
59876,note_on,0,0,0,,5,,,77,127
60083,note_off,207,0,0,,5,,,77,127
60083,note_off,0,0,0,,2,,,74,127
60083,note_off,0,0,0,,2,,,62,127
60085,note_on,2,0,0,,11,,,58,127
60085,note_on,0,0,0,,2,,,62,127
60085,note_on,0,0,0,,2,,,74,127
60085,note_on,0,0,0,,11,,,70,127
60292,note_off,207,0,0,,11,,,70,127
60292,note_off,0,0,0,,11,,,58,127
60294,note_on,2,0,0,,7,,,55,127
60294,note_on,0,0,0,,7,,,67,127
60499,note_off,205,0,0,,2,,,74,127
60499,note_off,0,0,0,,2,,,62,127
60501,note_off,2,0,0,,7,,,67,127
60501,note_off,0,0,0,,7,,,55,127
60503,note_on,2,0,0,,10,,,57,127
60503,note_on,0,0,0,,4,,,76,127
60503,note_on,0,0,0,,1,,,73,127
60710,note_off,207,0,0,,1,,,73,127
60710,note_off,0,0,0,,4,,,76,127
60710,note_off,0,0,0,,10,,,57,127
60712,note_on,2,0,0,,2,,,50,127
60712,note_on,0,0,0,,2,,,62,127
60712,note_on,0,0,0,,2,,,74,127
60712,note_on,0,0,0,,5,,,77,127
60919,note_off,207,0,0,,5,,,77,127
60919,note_off,0,0,0,,2,,,74,127
60921,note_on,2,0,0,,10,,,81,127
61128,note_off,207,0,0,,10,,,81,127
61128,note_off,0,0,0,,2,,,62,127
61128,note_off,0,0,0,,2,,,50,127
61130,note_on,2,0,0,,2,,,62,127
61130,note_on,0,0,0,,2,,,74,127
61130,note_on,0,0,0,,5,,,77,127
61337,note_off,207,0,0,,5,,,77,127
61337,note_off,0,0,0,,2,,,74,127
61337,note_off,0,0,0,,2,,,62,127
61339,note_on,2,0,0,,11,,,58,127
61339,note_on,0,0,0,,2,,,62,127
61339,note_on,0,0,0,,2,,,74,127
61339,note_on,0,0,0,,11,,,70,127
61546,note_off,207,0,0,,11,,,70,127
61546,note_off,0,0,0,,11,,,58,127
61548,note_on,2,0,0,,7,,,55,127
61548,note_on,0,0,0,,7,,,67,127
61753,note_off,205,0,0,,2,,,74,127
61753,note_off,0,0,0,,2,,,62,127
61755,note_off,2,0,0,,7,,,67,127
61755,note_off,0,0,0,,7,,,55,127
61757,note_on,2,0,0,,10,,,57,127
61757,note_on,0,0,0,,4,,,76,127
61757,note_on,0,0,0,,1,,,73,127
61964,note_off,207,0,0,,1,,,73,127
61964,note_off,0,0,0,,4,,,76,127
61964,note_off,0,0,0,,10,,,57,127
61966,note_on,2,0,0,,2,,,50,127
61966,note_on,0,0,0,,5,,,77,127
61966,note_on,0,0,0,,2,,,74,127
62173,note_off,207,0,0,,2,,,50,127
62175,note_on,2,0,0,,10,,,69,127
62382,note_off,207,0,0,,10,,,69,127
62382,note_off,0,0,0,,2,,,74,127
62382,note_off,0,0,0,,5,,,77,127
62384,note_on,2,0,0,,2,,,62,127
62384,note_on,0,0,0,,5,,,65,127
62384,note_on,0,0,0,,2,,,74,127
62591,note_off,207,0,0,,5,,,65,127
62591,note_off,0,0,0,,2,,,62,127
62593,note_on,2,0,0,,2,,,62,127
62593,note_on,0,0,0,,11,,,58,127
62800,note_off,207,0,0,,11,,,58,127
62802,note_on,2,0,0,,7,,,55,127
63007,note_off,205,0,0,,2,,,62,127
63009,note_off,2,0,0,,7,,,55,127
63009,note_off,0,0,0,,2,,,74,127
63011,note_on,2,0,0,,10,,,57,127
63011,note_on,0,0,0,,1,,,61,127
63011,note_on,0,0,0,,4,,,76,127
63079,note_off,68,0,0,,4,,,76,127
63081,note_on,2,0,0,,5,,,77,127
63149,note_off,68,0,0,,5,,,77,127
63151,note_on,2,0,0,,7,,,79,127
63219,note_off,68,0,0,,7,,,79,127
63219,note_off,0,0,0,,1,,,61,127
63219,note_off,0,0,0,,10,,,57,127
63221,note_on,2,0,0,,2,,,50,127
63221,note_on,0,0,0,,5,,,77,127
63289,note_off,68,0,0,,5,,,77,127
63291,note_on,2,0,0,,4,,,76,127
63359,note_off,68,0,0,,4,,,76,127
63361,note_on,2,0,0,,2,,,74,127
63429,note_off,68,0,0,,2,,,74,127
63429,note_off,0,0,0,,2,,,50,127
63431,note_on,2,0,0,,10,,,69,127
63431,note_on,0,0,0,,2,,,74,127
63638,note_off,207,0,0,,10,,,69,127
63640,note_on,2,0,0,,2,,,62,127
63640,note_on,0,0,0,,5,,,65,127
63847,note_off,207,0,0,,5,,,65,127
63847,note_off,0,0,0,,2,,,62,127
63849,note_on,2,0,0,,11,,,58,127
63849,note_on,0,0,0,,2,,,62,127
64056,note_off,207,0,0,,11,,,58,127
64058,note_on,2,0,0,,7,,,55,127
64263,note_off,205,0,0,,2,,,62,127
64265,note_off,2,0,0,,7,,,55,127
64265,note_off,0,0,0,,2,,,74,127
64267,note_on,2,0,0,,1,,,61,127
64267,note_on,0,0,0,,10,,,57,127
64267,note_on,0,0,0,,4,,,76,127
64335,note_off,68,0,0,,4,,,76,127
64337,note_on,2,0,0,,5,,,77,127
64405,note_off,68,0,0,,5,,,77,127
64407,note_on,2,0,0,,7,,,79,127
64475,note_off,68,0,0,,7,,,79,127
64475,note_off,0,0,0,,10,,,57,127
64475,note_off,0,0,0,,1,,,61,127
64477,note_on,2,0,0,,2,,,50,127
64477,note_on,0,0,0,,5,,,77,127
64545,note_off,68,0,0,,5,,,77,127
64547,note_on,2,0,0,,4,,,76,127
64615,note_off,68,0,0,,4,,,76,127
64617,note_on,2,0,0,,2,,,74,127
64685,note_off,68,0,0,,2,,,74,127
64685,note_off,0,0,0,,2,,,50,127
64687,note_on,2,0,0,,2,,,62,127
64687,note_on,0,0,0,,5,,,77,127
64894,note_off,207,0,0,,2,,,62,127
64896,note_on,2,0,0,,0,,,60,127
64896,note_on,0,0,0,,8,,,68,127
65103,note_off,207,0,0,,8,,,68,127
65103,note_off,0,0,0,,0,,,60,127
65105,note_on,2,0,0,,12,,,59,127
65105,note_on,0,0,0,,7,,,67,127
65313,note_off,208,0,0,,5,,,77,127
65314,note_on,1,0,0,,3,,,75,127
65417,note_off,103,0,0,,3,,,75,127
65419,note_off,2,0,0,,7,,,67,127
65419,note_on,0,0,0,,2,,,74,127
65522,note_off,103,0,0,,2,,,74,127
65522,note_off,0,0,0,,12,,,59,127
65524,note_on,2,0,0,,7,,,55,127
65524,note_on,0,0,0,,0,,,72,127
65627,note_off,103,0,0,,0,,,72,127
65629,note_on,2,0,0,,12,,,71,127
65732,note_off,103,0,0,,12,,,71,127
65740,note_off,8,0,0,,7,,,55,127
65745,note_on,5,0,0,,0,,,72,127
65745,note_on,0,0,0,,0,,,60,127
65745,note_on,0,0,0,,8,,,56,127
65952,note_off,207,0,0,,0,,,72,127
65961,note_on,9,0,0,,7,,,79,127
66168,note_off,207,0,0,,7,,,79,127
66170,note_on,2,0,0,,3,,,75,127
66170,note_on,0,0,0,,0,,,72,127
66371,note_off,201,0,0,,8,,,56,127
66371,note_off,0,0,0,,0,,,60,127
66378,note_off,7,0,0,,0,,,72,127
66378,note_off,0,0,0,,3,,,75,127
66380,note_on,2,0,0,,0,,,72,127
66380,note_on,0,0,0,,8,,,68,127
66380,note_on,0,0,0,,0,,,60,127
66380,note_on,0,0,0,,8,,,56,127
66587,note_off,207,0,0,,8,,,56,127
66587,note_off,0,0,0,,8,,,68,127
66589,note_on,2,0,0,,5,,,65,127
66589,note_on,0,0,0,,5,,,53,127
66794,note_off,205,0,0,,0,,,60,127
66794,note_off,0,0,0,,0,,,72,127
66796,note_off,2,0,0,,5,,,53,127
66796,note_off,0,0,0,,5,,,65,127
66798,note_on,2,0,0,,2,,,74,127
66798,note_on,0,0,0,,12,,,71,127
66798,note_on,0,0,0,,7,,,55,127
67005,note_off,207,0,0,,7,,,55,127
67005,note_off,0,0,0,,12,,,71,127
67005,note_off,0,0,0,,2,,,74,127
67007,note_on,2,0,0,,3,,,75,127
67007,note_on,0,0,0,,0,,,72,127
67007,note_on,0,0,0,,0,,,48,127
67214,note_off,207,0,0,,3,,,75,127
67216,note_on,2,0,0,,7,,,79,127
67421,note_off,205,0,0,,0,,,72,127
67423,note_off,2,0,0,,7,,,79,127
67425,note_on,2,0,0,,0,,,72,127
67425,note_on,0,0,0,,3,,,75,127
67632,note_off,207,0,0,,3,,,75,127
67632,note_off,0,0,0,,0,,,72,127
67632,note_off,0,0,0,,0,,,48,127
67634,note_on,2,0,0,,8,,,68,127
67634,note_on,0,0,0,,0,,,72,127
67634,note_on,0,0,0,,0,,,60,127
67634,note_on,0,0,0,,8,,,56,127
67841,note_off,207,0,0,,8,,,56,127
67841,note_off,0,0,0,,8,,,68,127
67843,note_on,2,0,0,,5,,,65,127
67843,note_on,0,0,0,,5,,,53,127
68048,note_off,205,0,0,,0,,,60,127
68048,note_off,0,0,0,,0,,,72,127
68050,note_off,2,0,0,,5,,,53,127
68050,note_off,0,0,0,,5,,,65,127
68052,note_on,2,0,0,,12,,,71,127
68052,note_on,0,0,0,,2,,,74,127
68052,note_on,0,0,0,,7,,,55,127
68259,note_off,207,0,0,,7,,,55,127
68259,note_off,0,0,0,,2,,,74,127
68259,note_off,0,0,0,,12,,,71,127
68261,note_on,2,0,0,,3,,,75,127
68261,note_on,0,0,0,,0,,,72,127
68261,note_on,0,0,0,,0,,,48,127
68468,note_off,207,0,0,,0,,,48,127
68470,note_on,2,0,0,,7,,,67,127
68677,note_off,207,0,0,,7,,,67,127
68677,note_off,0,0,0,,0,,,72,127
68677,note_off,0,0,0,,3,,,75,127
68679,note_on,2,0,0,,0,,,72,127
68679,note_on,0,0,0,,3,,,63,127
68679,note_on,0,0,0,,0,,,60,127
68886,note_off,207,0,0,,0,,,60,127
68886,note_off,0,0,0,,3,,,63,127
68888,note_on,2,0,0,,8,,,56,127
68888,note_on,0,0,0,,0,,,60,127
69095,note_off,207,0,0,,8,,,56,127
69097,note_on,2,0,0,,5,,,53,127
69302,note_off,205,0,0,,0,,,60,127
69304,note_off,2,0,0,,5,,,53,127
69304,note_off,0,0,0,,0,,,72,127
69306,note_on,2,0,0,,2,,,74,127
69306,note_on,0,0,0,,7,,,55,127
69306,note_on,0,0,0,,12,,,59,127
69374,note_off,68,0,0,,2,,,74,127
69376,note_on,2,0,0,,3,,,75,127
69444,note_off,68,0,0,,3,,,75,127
69446,note_on,2,0,0,,5,,,77,127
69514,note_off,68,0,0,,5,,,77,127
69514,note_off,0,0,0,,12,,,59,127
69514,note_off,0,0,0,,7,,,55,127
69516,note_on,2,0,0,,3,,,75,127
69516,note_on,0,0,0,,0,,,60,127
69516,note_on,0,0,0,,0,,,48,127
69584,note_off,68,0,0,,3,,,75,127
69586,note_on,2,0,0,,2,,,74,127
69654,note_off,68,0,0,,2,,,74,127
69656,note_on,2,0,0,,0,,,72,127
69724,note_off,68,0,0,,0,,,72,127
69724,note_off,0,0,0,,0,,,48,127
69724,note_off,0,0,0,,0,,,60,127
69726,note_on,2,0,0,,0,,,72,127
69726,note_on,0,0,0,,7,,,67,127
69933,note_off,207,0,0,,7,,,67,127
69935,note_on,2,0,0,,3,,,63,127
69935,note_on,0,0,0,,0,,,60,127
70142,note_off,207,0,0,,0,,,60,127
70142,note_off,0,0,0,,3,,,63,127
70144,note_on,2,0,0,,8,,,56,127
70144,note_on,0,0,0,,0,,,60,127
70351,note_off,207,0,0,,8,,,56,127
70353,note_on,2,0,0,,5,,,53,127
70558,note_off,205,0,0,,0,,,60,127
70560,note_off,2,0,0,,5,,,53,127
70560,note_off,0,0,0,,0,,,72,127
70562,note_on,2,0,0,,2,,,74,127
70562,note_on,0,0,0,,7,,,55,127
70562,note_on,0,0,0,,12,,,59,127
70630,note_off,68,0,0,,2,,,74,127
70632,note_on,2,0,0,,3,,,75,127
70700,note_off,68,0,0,,3,,,75,127
70702,note_on,2,0,0,,5,,,77,127
70770,note_off,68,0,0,,5,,,77,127
70770,note_off,0,0,0,,12,,,59,127
70770,note_off,0,0,0,,7,,,55,127
70772,note_on,2,0,0,,0,,,72,127
70772,note_on,0,0,0,,3,,,75,127
70772,note_on,0,0,0,,0,,,60,127
70772,note_on,0,0,0,,0,,,48,127
70979,note_off,207,0,0,,0,,,48,127
70979,note_off,0,0,0,,3,,,75,127
70981,note_on,2,0,0,,5,,,77,127
70981,note_on,0,0,0,,2,,,50,127
71186,note_off,205,0,0,,0,,,72,127
71188,note_off,2,0,0,,2,,,50,127
71188,note_off,0,0,0,,5,,,77,127
71190,note_on,2,0,0,,7,,,79,127
71190,note_on,0,0,0,,11,,,70,127
71190,note_on,0,0,0,,3,,,51,127
71397,note_off,207,0,0,,3,,,51,127
71397,note_off,0,0,0,,11,,,70,127
71398,note_off,1,0,0,,0,,,60,127
71399,note_on,1,0,0,,10,,,69,127
71399,note_on,0,0,0,,5,,,53,127
71604,note_off,205,0,0,,7,,,79,127
71606,note_off,2,0,0,,5,,,53,127
71608,note_on,2,0,0,,5,,,77,127
71608,note_on,0,0,0,,7,,,55,127
71711,note_off,103,0,0,,5,,,77,127
71713,note_on,2,0,0,,3,,,75,127
71816,note_off,103,0,0,,3,,,75,127
71816,note_off,0,0,0,,7,,,55,127
71818,note_on,2,0,0,,2,,,74,127
71818,note_on,0,0,0,,10,,,57,127
71921,note_off,103,0,0,,2,,,74,127
71923,note_on,2,0,0,,0,,,72,127
72026,note_off,103,0,0,,0,,,72,127
72026,note_off,0,0,0,,10,,,57,127
72027,note_off,1,0,0,,10,,,69,127
72028,note_on,1,0,0,,2,,,74,127
72028,note_on,0,0,0,,11,,,58,127
72028,note_on,0,0,0,,11,,,46,127
72133,note_on,105,0,0,,0,,,72,127
72236,note_off,103,0,0,,0,,,72,127
72236,note_off,0,0,0,,11,,,46,127
72238,note_on,2,0,0,,11,,,70,127
72238,note_on,0,0,0,,0,,,48,127
72341,note_off,103,0,0,,11,,,70,127
72343,note_on,2,0,0,,10,,,69,127
72443,note_off,100,0,0,,2,,,74,127
72445,note_off,2,0,0,,10,,,69,127
72445,note_off,0,0,0,,0,,,48,127
72447,note_on,2,0,0,,5,,,77,127
72447,note_on,0,0,0,,7,,,67,127
72447,note_on,0,0,0,,2,,,50,127
72550,note_off,103,0,0,,7,,,67,127
72552,note_on,2,0,0,,5,,,65,127
72655,note_off,103,0,0,,5,,,65,127
72655,note_off,0,0,0,,2,,,50,127
72656,note_off,1,0,0,,11,,,58,127
72657,note_on,1,0,0,,7,,,67,127
72657,note_on,0,0,0,,4,,,52,127
72862,note_off,205,0,0,,5,,,77,127
72864,note_off,2,0,0,,4,,,52,127
72866,note_on,2,0,0,,4,,,76,127
72866,note_on,0,0,0,,5,,,53,127
72969,note_off,103,0,0,,4,,,76,127
72971,note_on,2,0,0,,2,,,74,127
73074,note_off,103,0,0,,2,,,74,127
73074,note_off,0,0,0,,5,,,53,127
73076,note_on,2,0,0,,0,,,72,127
73076,note_on,0,0,0,,7,,,55,127
73179,note_off,103,0,0,,0,,,72,127
73181,note_on,2,0,0,,11,,,70,127
73284,note_off,103,0,0,,11,,,70,127
73284,note_off,0,0,0,,7,,,55,127
73285,note_off,1,0,0,,7,,,67,127
73286,note_on,1,0,0,,0,,,72,127
73286,note_on,0,0,0,,10,,,57,127
73286,note_on,0,0,0,,10,,,45,127
73391,note_on,105,0,0,,11,,,70,127
73494,note_off,103,0,0,,11,,,70,127
73494,note_off,0,0,0,,10,,,45,127
73496,note_on,2,0,0,,10,,,69,127
73496,note_on,0,0,0,,11,,,46,127
73599,note_off,103,0,0,,10,,,69,127
73601,note_on,2,0,0,,7,,,67,127
73701,note_off,100,0,0,,0,,,72,127
73703,note_off,2,0,0,,7,,,67,127
73703,note_off,0,0,0,,11,,,46,127
73705,note_on,2,0,0,,4,,,76,127
73705,note_on,0,0,0,,5,,,65,127
73705,note_on,0,0,0,,0,,,48,127
73808,note_off,103,0,0,,5,,,65,127
73810,note_on,2,0,0,,4,,,64,127
73913,note_off,103,0,0,,4,,,64,127
73913,note_off,0,0,0,,0,,,48,127
73914,note_off,1,0,0,,10,,,57,127
73915,note_on,1,0,0,,5,,,65,127
73915,note_on,0,0,0,,2,,,50,127
74120,note_off,205,0,0,,4,,,76,127
74122,note_off,2,0,0,,2,,,50,127
74124,note_on,2,0,0,,2,,,74,127
74124,note_on,0,0,0,,4,,,52,127
74227,note_off,103,0,0,,2,,,74,127
74229,note_on,2,0,0,,0,,,72,127
74332,note_off,103,0,0,,0,,,72,127
74332,note_off,0,0,0,,4,,,52,127
74334,note_on,2,0,0,,11,,,70,127
74334,note_on,0,0,0,,5,,,53,127
74437,note_off,103,0,0,,11,,,70,127
74439,note_on,2,0,0,,10,,,69,127
74542,note_off,103,0,0,,10,,,69,127
74542,note_off,0,0,0,,5,,,53,127
74543,note_off,1,0,0,,5,,,65,127
74544,note_on,1,0,0,,11,,,70,127
74544,note_on,0,0,0,,7,,,55,127
74544,note_on,0,0,0,,7,,,43,127
74649,note_on,105,0,0,,10,,,69,127
74752,note_off,103,0,0,,10,,,69,127
74752,note_off,0,0,0,,7,,,43,127
74754,note_on,2,0,0,,7,,,67,127
74754,note_on,0,0,0,,10,,,45,127
74857,note_off,103,0,0,,7,,,67,127
74859,note_on,2,0,0,,5,,,65,127
74959,note_off,100,0,0,,11,,,70,127
74961,note_off,2,0,0,,5,,,65,127
74961,note_off,0,0,0,,10,,,45,127
74963,note_on,2,0,0,,4,,,64,127
74963,note_on,0,0,0,,2,,,74,127
74963,note_on,0,0,0,,11,,,46,127
75066,note_off,103,0,0,,4,,,64,127
75068,note_on,2,0,0,,2,,,62,127
75171,note_off,103,0,0,,2,,,62,127
75171,note_off,0,0,0,,11,,,46,127
75172,note_off,1,0,0,,7,,,55,127
75173,note_on,1,0,0,,4,,,64,127
75173,note_on,0,0,0,,0,,,48,127
75378,note_off,205,0,0,,2,,,74,127
75380,note_off,2,0,0,,0,,,48,127
75382,note_on,2,0,0,,0,,,72,127
75382,note_on,0,0,0,,2,,,50,127
75485,note_off,103,0,0,,0,,,72,127
75487,note_on,2,0,0,,11,,,70,127
75590,note_off,103,0,0,,11,,,70,127
75590,note_off,0,0,0,,2,,,50,127
75592,note_on,2,0,0,,10,,,69,127
75592,note_on,0,0,0,,4,,,52,127
75695,note_off,103,0,0,,10,,,69,127
75697,note_on,2,0,0,,7,,,67,127
75800,note_off,103,0,0,,7,,,67,127
75800,note_off,0,0,0,,4,,,52,127
75801,note_off,1,0,0,,4,,,64,127
75802,note_on,1,0,0,,10,,,69,127
75802,note_on,0,0,0,,5,,,53,127
75802,note_on,0,0,0,,5,,,41,127
75905,note_off,103,0,0,,10,,,69,127
75907,note_on,2,0,0,,7,,,67,127
76010,note_off,103,0,0,,7,,,67,127
76010,note_off,0,0,0,,5,,,41,127
76012,note_on,2,0,0,,5,,,65,127
76012,note_on,0,0,0,,7,,,43,127
76115,note_off,103,0,0,,5,,,65,127
76117,note_on,2,0,0,,4,,,64,127
76220,note_off,103,0,0,,4,,,64,127
76220,note_off,0,0,0,,7,,,43,127
76222,note_on,2,0,0,,2,,,62,127
76222,note_on,0,0,0,,10,,,45,127
76325,note_off,103,0,0,,2,,,62,127
76327,note_on,2,0,0,,0,,,60,127
76430,note_off,103,0,0,,0,,,60,127
76430,note_off,0,0,0,,10,,,45,127
76431,note_off,1,0,0,,5,,,53,127
76432,note_on,1,0,0,,11,,,58,127
76432,note_on,0,0,0,,11,,,46,127
76535,note_off,103,0,0,,11,,,58,127
76537,note_on,2,0,0,,10,,,57,127
76640,note_off,103,0,0,,10,,,57,127
76642,note_on,2,0,0,,7,,,55,127
76745,note_off,103,0,0,,7,,,55,127
76747,note_on,2,0,0,,5,,,53,127
76850,note_off,103,0,0,,5,,,53,127
76852,note_on,2,0,0,,4,,,52,127
76955,note_off,103,0,0,,4,,,52,127
76957,note_on,2,0,0,,2,,,50,127
77060,note_off,103,0,0,,2,,,50,127
77060,note_off,0,0,0,,11,,,46,127
77062,note_on,2,0,0,,2,,,50,127
77062,note_on,0,0,0,,0,,,36,127
77112,note_off,50,0,0,,2,,,50,127
77114,note_on,2,0,0,,0,,,48,127
77164,note_off,50,0,0,,0,,,48,127
77166,note_on,2,0,0,,2,,,50,127
77216,note_off,50,0,0,,2,,,50,127
77218,note_on,2,0,0,,0,,,48,127
77960,note_off,742,0,0,,0,,,48,127
78116,note_off,156,0,0,,0,,,36,127
78344,note_on,228,0,0,,0,,,48,127
78551,note_off,207,0,0,,0,,,48,127
78553,note_on,2,0,0,,0,,,48,127
78553,note_on,0,0,0,,0,,,60,127
78760,note_off,207,0,0,,0,,,60,127
78760,note_off,0,0,0,,0,,,48,127
78762,note_on,2,0,0,,0,,,48,127
78762,note_on,0,0,0,,0,,,60,127
78969,note_off,207,0,0,,0,,,60,127
78969,note_off,0,0,0,,0,,,48,127
78971,note_on,2,0,0,,2,,,50,127
78971,note_on,0,0,0,,0,,,60,127
79178,note_off,207,0,0,,0,,,60,127
79178,note_off,0,0,0,,2,,,50,127
79180,note_on,2,0,0,,11,,,58,127
79180,note_on,0,0,0,,2,,,50,127
79180,note_on,0,0,0,,7,,,67,127
79248,note_off,68,0,0,,7,,,67,127
79250,note_on,2,0,0,,6,,,66,127
79318,note_off,68,0,0,,6,,,66,127
79320,note_on,2,0,0,,7,,,67,127
79388,note_off,68,0,0,,7,,,67,127
79388,note_off,0,0,0,,2,,,50,127
79388,note_off,0,0,0,,11,,,58,127
79390,note_on,2,0,0,,2,,,50,127
79390,note_on,0,0,0,,10,,,57,127
79390,note_on,0,0,0,,6,,,66,127
79458,note_off,68,0,0,,6,,,66,127
79460,note_on,2,0,0,,4,,,64,127
79528,note_off,68,0,0,,4,,,64,127
79530,note_on,2,0,0,,6,,,66,127
79598,note_off,68,0,0,,6,,,66,127
79598,note_off,0,0,0,,10,,,57,127
79598,note_off,0,0,0,,2,,,50,127
79600,note_on,2,0,0,,7,,,55,127
79600,note_on,0,0,0,,7,,,67,127
79809,note_on,209,0,0,,2,,,50,127
79809,note_on,0,0,0,,2,,,62,127
79905,note_off,96,0,0,,7,,,67,127
79905,note_off,0,0,0,,7,,,55,127
80016,note_off,111,0,0,,2,,,62,127
80016,note_off,0,0,0,,2,,,50,127
80018,note_on,2,0,0,,2,,,50,127
80018,note_on,0,0,0,,2,,,62,127
80225,note_off,207,0,0,,2,,,62,127
80225,note_off,0,0,0,,2,,,50,127
80227,note_on,2,0,0,,4,,,52,127
80227,note_on,0,0,0,,2,,,62,127
80434,note_off,207,0,0,,2,,,62,127
80434,note_off,0,0,0,,4,,,52,127
80436,note_on,2,0,0,,4,,,52,127
80436,note_on,0,0,0,,0,,,60,127
80436,note_on,0,0,0,,10,,,69,127
80504,note_off,68,0,0,,10,,,69,127
80506,note_on,2,0,0,,8,,,68,127
80574,note_off,68,0,0,,8,,,68,127
80576,note_on,2,0,0,,10,,,69,127
80644,note_off,68,0,0,,10,,,69,127
80644,note_off,0,0,0,,0,,,60,127
80644,note_off,0,0,0,,4,,,52,127
80646,note_on,2,0,0,,4,,,52,127
80646,note_on,0,0,0,,12,,,59,127
80646,note_on,0,0,0,,8,,,68,127
80714,note_off,68,0,0,,8,,,68,127
80716,note_on,2,0,0,,6,,,66,127
80784,note_off,68,0,0,,6,,,66,127
80786,note_on,2,0,0,,8,,,68,127
80854,note_off,68,0,0,,8,,,68,127
80854,note_off,0,0,0,,12,,,59,127
80854,note_off,0,0,0,,4,,,52,127
80856,note_on,2,0,0,,10,,,57,127
80856,note_on,0,0,0,,10,,,69,127
81065,note_on,209,0,0,,5,,,53,127
81065,note_on,0,0,0,,5,,,65,127
81085,note_off,20,0,0,,10,,,69,127
81085,note_off,0,0,0,,10,,,57,127
81273,note_off,188,0,0,,5,,,65,127
81273,note_off,0,0,0,,5,,,53,127
81275,note_on,2,0,0,,5,,,53,127
81275,note_on,0,0,0,,5,,,65,127
81482,note_off,207,0,0,,5,,,65,127
81482,note_off,0,0,0,,5,,,53,127
81484,note_on,2,0,0,,7,,,55,127
81484,note_on,0,0,0,,5,,,65,127
81691,note_off,207,0,0,,5,,,65,127
81691,note_off,0,0,0,,7,,,55,127
81693,note_on,2,0,0,,7,,,55,127
81693,note_on,0,0,0,,4,,,64,127
81693,note_on,0,0,0,,0,,,72,127
81761,note_off,68,0,0,,0,,,72,127
81763,note_on,2,0,0,,12,,,71,127
81831,note_off,68,0,0,,12,,,71,127
81833,note_on,2,0,0,,0,,,72,127
81901,note_off,68,0,0,,0,,,72,127
81901,note_off,0,0,0,,4,,,64,127
81901,note_off,0,0,0,,7,,,55,127
81903,note_on,2,0,0,,7,,,55,127
81903,note_on,0,0,0,,2,,,62,127
81903,note_on,0,0,0,,12,,,71,127
81971,note_off,68,0,0,,12,,,71,127
81973,note_on,2,0,0,,10,,,69,127
82041,note_off,68,0,0,,10,,,69,127
82043,note_on,2,0,0,,12,,,71,127
82111,note_off,68,0,0,,12,,,71,127
82111,note_off,0,0,0,,2,,,62,127
82111,note_off,0,0,0,,7,,,55,127
82113,note_on,2,0,0,,0,,,60,127
82113,note_on,0,0,0,,0,,,72,127
82322,note_on,209,0,0,,7,,,67,127
82322,note_on,0,0,0,,7,,,55,127
82353,note_off,31,0,0,,0,,,72,127
82353,note_off,0,0,0,,0,,,60,127
82530,note_off,177,0,0,,7,,,55,127
82530,note_off,0,0,0,,7,,,67,127
82532,note_on,2,0,0,,7,,,67,127
82532,note_on,0,0,0,,7,,,55,127
82739,note_off,207,0,0,,7,,,55,127
82739,note_off,0,0,0,,7,,,67,127
82741,note_on,2,0,0,,7,,,67,127
82741,note_on,0,0,0,,10,,,57,127
82948,note_off,207,0,0,,10,,,57,127
82948,note_off,0,0,0,,7,,,67,127
82950,note_on,2,0,0,,5,,,65,127
82950,note_on,0,0,0,,10,,,57,127
82950,note_on,0,0,0,,2,,,74,127
83018,note_off,68,0,0,,2,,,74,127
83020,note_on,2,0,0,,1,,,73,127
83088,note_off,68,0,0,,1,,,73,127
83090,note_on,2,0,0,,2,,,74,127
83158,note_off,68,0,0,,2,,,74,127
83158,note_off,0,0,0,,10,,,57,127
83158,note_off,0,0,0,,5,,,65,127
83160,note_on,2,0,0,,4,,,64,127
83160,note_on,0,0,0,,10,,,57,127
83160,note_on,0,0,0,,1,,,73,127
83228,note_off,68,0,0,,1,,,73,127
83230,note_on,2,0,0,,12,,,71,127
83298,note_off,68,0,0,,12,,,71,127
83300,note_on,2,0,0,,1,,,73,127
83368,note_off,68,0,0,,1,,,73,127
83368,note_off,0,0,0,,10,,,57,127
83368,note_off,0,0,0,,4,,,64,127
83370,note_on,2,0,0,,2,,,62,127
83370,note_on,0,0,0,,2,,,74,127
83579,note_on,209,0,0,,10,,,69,127
83579,note_on,0,0,0,,10,,,57,127
83653,note_off,74,0,0,,2,,,74,127
83653,note_off,0,0,0,,2,,,62,127
83786,note_off,133,0,0,,10,,,57,127
83786,note_off,0,0,0,,10,,,69,127
83788,note_on,2,0,0,,10,,,69,127
83788,note_on,0,0,0,,10,,,57,127
83995,note_off,207,0,0,,10,,,57,127
83995,note_off,0,0,0,,10,,,69,127
83997,note_on,2,0,0,,12,,,59,127
83997,note_on,0,0,0,,10,,,69,127
84204,note_off,207,0,0,,10,,,69,127
84204,note_off,0,0,0,,12,,,59,127
84206,note_on,2,0,0,,8,,,68,127
84206,note_on,0,0,0,,12,,,59,127
84206,note_on,0,0,0,,4,,,76,127
84274,note_off,68,0,0,,4,,,76,127
84276,note_on,2,0,0,,3,,,75,127
84344,note_off,68,0,0,,3,,,75,127
84346,note_on,2,0,0,,4,,,76,127
84414,note_off,68,0,0,,4,,,76,127
84414,note_off,0,0,0,,12,,,59,127
84414,note_off,0,0,0,,8,,,68,127
84416,note_on,2,0,0,,12,,,59,127
84416,note_on,0,0,0,,6,,,66,127
84416,note_on,0,0,0,,3,,,75,127
84484,note_off,68,0,0,,3,,,75,127
84486,note_on,2,0,0,,1,,,73,127
84554,note_off,68,0,0,,1,,,73,127
84556,note_on,2,0,0,,3,,,75,127
84624,note_off,68,0,0,,3,,,75,127
84624,note_off,0,0,0,,6,,,66,127
84624,note_off,0,0,0,,12,,,59,127
84626,note_on,2,0,0,,4,,,64,127
84626,note_on,0,0,0,,4,,,76,127
84729,note_off,103,0,0,,4,,,76,127
84731,note_on,2,0,0,,2,,,74,127
84834,note_off,103,0,0,,2,,,74,127
84834,note_off,0,0,0,,4,,,64,127
84836,note_on,2,0,0,,4,,,64,127
84836,note_on,0,0,0,,0,,,72,127
84939,note_off,103,0,0,,0,,,72,127
84941,note_on,2,0,0,,12,,,71,127
85044,note_off,103,0,0,,12,,,71,127
85044,note_off,0,0,0,,4,,,64,127
85046,note_on,2,0,0,,4,,,64,127
85046,note_on,0,0,0,,10,,,69,127
85149,note_off,103,0,0,,10,,,69,127
85151,note_on,2,0,0,,8,,,68,127
85254,note_off,103,0,0,,8,,,68,127
85254,note_off,0,0,0,,4,,,64,127
85256,note_on,2,0,0,,4,,,64,127
85256,note_on,0,0,0,,5,,,65,127
85256,note_on,0,0,0,,5,,,77,127
85359,note_off,103,0,0,,5,,,77,127
85361,note_on,2,0,0,,4,,,76,127
85464,note_off,103,0,0,,4,,,76,127
85464,note_off,0,0,0,,4,,,64,127
85466,note_on,2,0,0,,4,,,64,127
85466,note_on,0,0,0,,2,,,74,127
85569,note_off,103,0,0,,2,,,74,127
85571,note_on,2,0,0,,0,,,72,127
85671,note_off,100,0,0,,5,,,65,127
85673,note_off,2,0,0,,0,,,72,127
85673,note_off,0,0,0,,4,,,64,127
85675,note_on,2,0,0,,4,,,64,127
85675,note_on,0,0,0,,12,,,71,127
85778,note_off,103,0,0,,12,,,71,127
85780,note_on,2,0,0,,10,,,69,127
85883,note_off,103,0,0,,10,,,69,127
85883,note_off,0,0,0,,4,,,64,127
85885,note_on,2,0,0,,4,,,64,127
85885,note_on,0,0,0,,8,,,68,127
85988,note_off,103,0,0,,4,,,64,127
85990,note_on,2,0,0,,2,,,62,127
86093,note_off,103,0,0,,2,,,62,127
86093,note_off,0,0,0,,8,,,68,127
86095,note_on,2,0,0,,0,,,60,127
86095,note_on,0,0,0,,10,,,69,127
86198,note_off,103,0,0,,0,,,60,127
86200,note_on,2,0,0,,12,,,59,127
86303,note_off,103,0,0,,12,,,59,127
86303,note_off,0,0,0,,10,,,69,127
86305,note_on,2,0,0,,10,,,57,127
86305,note_on,0,0,0,,12,,,71,127
86408,note_off,103,0,0,,10,,,57,127
86410,note_on,2,0,0,,8,,,56,127
86513,note_off,103,0,0,,8,,,56,127
86513,note_off,0,0,0,,12,,,71,127
86515,note_on,2,0,0,,10,,,57,127
86515,note_on,0,0,0,,0,,,72,127
86618,note_off,103,0,0,,10,,,57,127
86620,note_on,2,0,0,,7,,,55,127
86723,note_off,103,0,0,,7,,,55,127
86725,note_on,2,0,0,,5,,,53,127
86828,note_off,103,0,0,,5,,,53,127
86830,note_on,2,0,0,,4,,,52,127
86933,note_off,103,0,0,,4,,,52,127
86933,note_off,0,0,0,,0,,,72,127
86935,note_on,2,0,0,,2,,,50,127
86935,note_on,0,0,0,,2,,,74,127
87038,note_off,103,0,0,,2,,,50,127
87040,note_on,2,0,0,,0,,,48,127
87143,note_off,103,0,0,,0,,,48,127
87143,note_off,0,0,0,,2,,,74,127
87154,note_on,11,0,0,,2,,,74,127
87154,note_on,0,0,0,,4,,,40,127
87411,note_off,257,0,0,,2,,,74,127
87420,note_on,9,0,0,,4,,,76,127
87917,note_off,497,0,0,,4,,,40,127
87987,note_off,70,0,0,,4,,,76,127
88393,note_on,406,0,0,,4,,,52,127
88600,note_off,207,0,0,,4,,,52,127
88602,note_on,2,0,0,,6,,,54,127
88602,note_on,0,0,0,,1,,,61,127
88670,note_off,68,0,0,,1,,,61,127
88672,note_on,2,0,0,,12,,,59,127
88740,note_off,68,0,0,,12,,,59,127
88742,note_on,2,0,0,,1,,,61,127
88810,note_off,68,0,0,,1,,,61,127
88810,note_off,0,0,0,,6,,,54,127
88812,note_on,2,0,0,,8,,,56,127
88812,note_on,0,0,0,,12,,,59,127
88880,note_off,68,0,0,,12,,,59,127
88882,note_on,2,0,0,,10,,,57,127
88950,note_off,68,0,0,,10,,,57,127
88952,note_on,2,0,0,,12,,,59,127
89020,note_off,68,0,0,,12,,,59,127
89020,note_off,0,0,0,,8,,,56,127
89022,note_on,2,0,0,,10,,,57,127
89022,note_on,0,0,0,,1,,,61,127
89090,note_off,68,0,0,,1,,,61,127
89092,note_on,2,0,0,,12,,,59,127
89160,note_off,68,0,0,,12,,,59,127
89162,note_on,2,0,0,,1,,,61,127
89230,note_off,68,0,0,,1,,,61,127
89230,note_off,0,0,0,,10,,,57,127
89232,note_on,2,0,0,,12,,,59,127
89232,note_on,0,0,0,,2,,,62,127
89300,note_off,68,0,0,,2,,,62,127
89302,note_on,2,0,0,,1,,,61,127
89370,note_off,68,0,0,,1,,,61,127
89372,note_on,2,0,0,,2,,,62,127
89440,note_off,68,0,0,,2,,,62,127
89440,note_off,0,0,0,,12,,,59,127
89442,note_on,2,0,0,,1,,,61,127
89442,note_on,0,0,0,,4,,,64,127
89649,note_off,207,0,0,,1,,,61,127
89651,note_on,2,0,0,,4,,,52,127
89756,note_off,105,0,0,,4,,,64,127
89859,note_off,103,0,0,,4,,,52,127
89861,note_on,2,0,0,,6,,,54,127
89861,note_on,0,0,0,,1,,,61,127
89929,note_off,68,0,0,,1,,,61,127
89931,note_on,2,0,0,,12,,,59,127
89999,note_off,68,0,0,,12,,,59,127
90001,note_on,2,0,0,,1,,,61,127
90069,note_off,68,0,0,,1,,,61,127
90069,note_off,0,0,0,,6,,,54,127
90071,note_on,2,0,0,,8,,,56,127
90071,note_on,0,0,0,,12,,,59,127
90139,note_off,68,0,0,,12,,,59,127
90141,note_on,2,0,0,,10,,,57,127
90209,note_off,68,0,0,,10,,,57,127
90211,note_on,2,0,0,,12,,,59,127
90279,note_off,68,0,0,,12,,,59,127
90279,note_off,0,0,0,,8,,,56,127
90281,note_on,2,0,0,,10,,,57,127
90281,note_on,0,0,0,,1,,,61,127
90349,note_off,68,0,0,,1,,,61,127
90351,note_on,2,0,0,,12,,,59,127
90419,note_off,68,0,0,,12,,,59,127
90421,note_on,2,0,0,,1,,,61,127
90489,note_off,68,0,0,,1,,,61,127
90489,note_off,0,0,0,,10,,,57,127
90491,note_on,2,0,0,,12,,,59,127
90491,note_on,0,0,0,,2,,,62,127
90559,note_off,68,0,0,,2,,,62,127
90561,note_on,2,0,0,,1,,,61,127
90629,note_off,68,0,0,,1,,,61,127
90631,note_on,2,0,0,,2,,,62,127
90699,note_off,68,0,0,,2,,,62,127
90699,note_off,0,0,0,,12,,,59,127
90701,note_on,2,0,0,,1,,,61,127
90701,note_on,0,0,0,,4,,,64,127
90769,note_off,68,0,0,,4,,,64,127
90771,note_on,2,0,0,,2,,,62,127
90839,note_off,68,0,0,,2,,,62,127
90841,note_on,2,0,0,,4,,,64,127
90909,note_off,68,0,0,,4,,,64,127
90909,note_off,0,0,0,,1,,,61,127
90911,note_on,2,0,0,,2,,,62,127
90911,note_on,0,0,0,,6,,,66,127
90979,note_off,68,0,0,,6,,,66,127
90981,note_on,2,0,0,,4,,,64,127
91049,note_off,68,0,0,,4,,,64,127
91051,note_on,2,0,0,,6,,,66,127
91119,note_off,68,0,0,,6,,,66,127
91119,note_off,0,0,0,,2,,,62,127
91121,note_on,2,0,0,,4,,,64,127
91121,note_on,0,0,0,,8,,,68,127
91189,note_off,68,0,0,,8,,,68,127
91191,note_on,2,0,0,,6,,,66,127
91259,note_off,68,0,0,,6,,,66,127
91261,note_on,2,0,0,,8,,,68,127
91329,note_off,68,0,0,,8,,,68,127
91329,note_off,0,0,0,,4,,,64,127
91331,note_on,2,0,0,,6,,,66,127
91331,note_on,0,0,0,,10,,,69,127
91399,note_off,68,0,0,,10,,,69,127
91401,note_on,2,0,0,,8,,,68,127
91469,note_off,68,0,0,,8,,,68,127
91471,note_on,2,0,0,,10,,,69,127
91539,note_off,68,0,0,,10,,,69,127
91539,note_off,0,0,0,,6,,,66,127
91541,note_on,2,0,0,,8,,,68,127
91541,note_on,0,0,0,,12,,,71,127
91609,note_off,68,0,0,,12,,,71,127
91611,note_on,2,0,0,,10,,,69,127
91679,note_off,68,0,0,,10,,,69,127
91681,note_on,2,0,0,,12,,,71,127
91749,note_off,68,0,0,,12,,,71,127
91749,note_off,0,0,0,,8,,,68,127
91751,note_on,2,0,0,,10,,,69,127
91751,note_on,0,0,0,,1,,,73,127
91819,note_off,68,0,0,,1,,,73,127
91821,note_on,2,0,0,,12,,,71,127
91889,note_off,68,0,0,,12,,,71,127
91891,note_on,2,0,0,,1,,,73,127
91959,note_off,68,0,0,,1,,,73,127
91959,note_off,0,0,0,,10,,,69,127
91961,note_on,2,0,0,,12,,,71,127
91961,note_on,0,0,0,,2,,,74,127
92029,note_off,68,0,0,,2,,,74,127
92031,note_on,2,0,0,,1,,,73,127
92099,note_off,68,0,0,,1,,,73,127
92101,note_on,2,0,0,,2,,,74,127
92169,note_off,68,0,0,,2,,,74,127
92169,note_off,0,0,0,,12,,,71,127
92171,note_on,2,0,0,,1,,,73,127
92171,note_on,0,0,0,,4,,,76,127
92239,note_off,68,0,0,,4,,,76,127
92241,note_on,2,0,0,,2,,,74,127
92309,note_off,68,0,0,,2,,,74,127
92311,note_on,2,0,0,,4,,,76,127
92379,note_off,68,0,0,,4,,,76,127
92379,note_off,0,0,0,,1,,,73,127
92381,note_on,2,0,0,,2,,,74,127
92381,note_on,0,0,0,,6,,,78,127
92449,note_off,68,0,0,,6,,,78,127
92451,note_on,2,0,0,,4,,,76,127
92519,note_off,68,0,0,,4,,,76,127
92521,note_on,2,0,0,,6,,,78,127
92589,note_off,68,0,0,,6,,,78,127
92589,note_off,0,0,0,,2,,,74,127
92591,note_on,2,0,0,,4,,,76,127
92591,note_on,0,0,0,,8,,,80,127
92659,note_off,68,0,0,,8,,,80,127
92661,note_on,2,0,0,,6,,,78,127
92729,note_off,68,0,0,,6,,,78,127
92731,note_on,2,0,0,,8,,,80,127
92799,note_off,68,0,0,,8,,,80,127
92799,note_off,0,0,0,,4,,,76,127
92801,note_on,2,0,0,,6,,,78,127
92801,note_on,0,0,0,,10,,,81,127
93008,note_off,207,0,0,,10,,,81,127
93008,note_off,0,0,0,,6,,,78,127
93010,note_on,2,0,0,,2,,,74,127
93010,note_on,0,0,0,,6,,,78,127
93217,note_off,207,0,0,,6,,,78,127
93217,note_off,0,0,0,,2,,,74,127
93219,note_on,2,0,0,,12,,,71,127
93219,note_on,0,0,0,,2,,,74,127
93426,note_off,207,0,0,,2,,,74,127
93426,note_off,0,0,0,,12,,,71,127
93428,note_on,2,0,0,,8,,,68,127
93428,note_on,0,0,0,,12,,,71,127
93635,note_off,207,0,0,,12,,,71,127
93635,note_off,0,0,0,,8,,,68,127
93637,note_on,2,0,0,,10,,,69,127
93637,note_on,0,0,0,,1,,,73,127
93844,note_off,207,0,0,,1,,,73,127
93844,note_off,0,0,0,,10,,,69,127
93846,note_on,2,0,0,,6,,,66,127
93846,note_on,0,0,0,,10,,,69,127
94053,note_off,207,0,0,,10,,,69,127
94053,note_off,0,0,0,,6,,,66,127
94055,note_on,2,0,0,,2,,,62,127
94055,note_on,0,0,0,,6,,,66,127
94262,note_off,207,0,0,,6,,,66,127
94262,note_off,0,0,0,,2,,,62,127
94264,note_on,2,0,0,,12,,,59,127
94264,note_on,0,0,0,,2,,,62,127
94471,note_off,207,0,0,,2,,,62,127
94471,note_off,0,0,0,,12,,,59,127
94473,note_on,2,0,0,,8,,,56,127
94473,note_on,0,0,0,,12,,,59,127
94680,note_off,207,0,0,,12,,,59,127
94680,note_off,0,0,0,,8,,,56,127
94682,note_on,2,0,0,,10,,,57,127
94682,note_on,0,0,0,,1,,,61,127
94750,note_off,68,0,0,,1,,,61,127
94752,note_on,2,0,0,,12,,,59,127
94820,note_off,68,0,0,,12,,,59,127
94822,note_on,2,0,0,,1,,,61,127
94890,note_off,68,0,0,,1,,,61,127
94890,note_off,0,0,0,,10,,,57,127
94892,note_on,2,0,0,,12,,,59,127
94892,note_on,0,0,0,,2,,,62,127
94960,note_off,68,0,0,,2,,,62,127
94962,note_on,2,0,0,,1,,,61,127
95030,note_off,68,0,0,,1,,,61,127
95032,note_on,2,0,0,,2,,,62,127
95100,note_off,68,0,0,,2,,,62,127
95100,note_off,0,0,0,,12,,,59,127
95102,note_on,2,0,0,,1,,,61,127
95102,note_on,0,0,0,,4,,,64,127
95309,note_off,207,0,0,,4,,,64,127
95309,note_off,0,0,0,,1,,,61,127
95311,note_on,2,0,0,,2,,,50,127
95311,note_on,0,0,0,,2,,,62,127
95311,note_on,0,0,0,,12,,,59,127
95518,note_off,207,0,0,,12,,,59,127
95518,note_off,0,0,0,,2,,,62,127
95518,note_off,0,0,0,,2,,,50,127
95520,note_on,2,0,0,,4,,,52,127
95520,note_on,0,0,0,,1,,,61,127
95520,note_on,0,0,0,,10,,,57,127
95727,note_off,207,0,0,,10,,,57,127
95727,note_off,0,0,0,,1,,,61,127
95727,note_off,0,0,0,,4,,,52,127
95729,note_on,2,0,0,,4,,,40,127
95729,note_on,0,0,0,,8,,,56,127
95729,note_on,0,0,0,,12,,,59,127
95936,note_off,207,0,0,,12,,,59,127
95936,note_off,0,0,0,,8,,,56,127
95936,note_off,0,0,0,,4,,,40,127
95938,note_on,2,0,0,,10,,,45,127
95938,note_on,0,0,0,,12,,,59,127
96145,note_off,207,0,0,,12,,,59,127
96156,note_on,11,0,0,,10,,,57,127
96575,note_off,419,0,0,,10,,,45,127
96584,note_on,9,0,0,,4,,,52,127
96593,note_off,9,0,0,,10,,,57,127
96792,note_off,199,0,0,,4,,,52,127
96794,note_on,2,0,0,,1,,,61,127
96794,note_on,0,0,0,,6,,,54,127
96862,note_off,68,0,0,,1,,,61,127
96864,note_on,2,0,0,,12,,,59,127
96932,note_off,68,0,0,,12,,,59,127
96934,note_on,2,0,0,,1,,,61,127
97002,note_off,68,0,0,,1,,,61,127
97002,note_off,0,0,0,,6,,,54,127
97004,note_on,2,0,0,,12,,,59,127
97004,note_on,0,0,0,,8,,,56,127
97072,note_off,68,0,0,,12,,,59,127
97074,note_on,2,0,0,,10,,,57,127
97142,note_off,68,0,0,,10,,,57,127
97144,note_on,2,0,0,,12,,,59,127
97212,note_off,68,0,0,,12,,,59,127
97212,note_off,0,0,0,,8,,,56,127
97214,note_on,2,0,0,,1,,,61,127
97214,note_on,0,0,0,,10,,,57,127
97282,note_off,68,0,0,,1,,,61,127
97284,note_on,2,0,0,,12,,,59,127
97352,note_off,68,0,0,,12,,,59,127
97354,note_on,2,0,0,,1,,,61,127
97422,note_off,68,0,0,,1,,,61,127
97422,note_off,0,0,0,,10,,,57,127
97424,note_on,2,0,0,,2,,,62,127
97424,note_on,0,0,0,,12,,,59,127
97492,note_off,68,0,0,,2,,,62,127
97494,note_on,2,0,0,,1,,,61,127
97562,note_off,68,0,0,,1,,,61,127
97564,note_on,2,0,0,,2,,,62,127
97632,note_off,68,0,0,,2,,,62,127
97632,note_off,0,0,0,,12,,,59,127
97634,note_on,2,0,0,,4,,,64,127
97634,note_on,0,0,0,,1,,,61,127
97841,note_off,207,0,0,,1,,,61,127
97843,note_on,2,0,0,,4,,,52,127
97948,note_off,105,0,0,,4,,,64,127
98051,note_off,103,0,0,,4,,,52,127
98053,note_on,2,0,0,,1,,,61,127
98053,note_on,0,0,0,,6,,,54,127
98121,note_off,68,0,0,,1,,,61,127
98123,note_on,2,0,0,,12,,,59,127
98191,note_off,68,0,0,,12,,,59,127
98193,note_on,2,0,0,,1,,,61,127
98261,note_off,68,0,0,,1,,,61,127
98261,note_off,0,0,0,,6,,,54,127
98263,note_on,2,0,0,,12,,,59,127
98263,note_on,0,0,0,,8,,,56,127
98331,note_off,68,0,0,,12,,,59,127
98333,note_on,2,0,0,,10,,,57,127
98401,note_off,68,0,0,,10,,,57,127
98403,note_on,2,0,0,,12,,,59,127
98471,note_off,68,0,0,,12,,,59,127
98471,note_off,0,0,0,,8,,,56,127
98473,note_on,2,0,0,,1,,,61,127
98473,note_on,0,0,0,,10,,,57,127
98541,note_off,68,0,0,,1,,,61,127
98543,note_on,2,0,0,,12,,,59,127
98611,note_off,68,0,0,,12,,,59,127
98613,note_on,2,0,0,,1,,,61,127
98681,note_off,68,0,0,,1,,,61,127
98681,note_off,0,0,0,,10,,,57,127
98683,note_on,2,0,0,,2,,,62,127
98683,note_on,0,0,0,,12,,,59,127
98751,note_off,68,0,0,,2,,,62,127
98753,note_on,2,0,0,,1,,,61,127
98821,note_off,68,0,0,,1,,,61,127
98823,note_on,2,0,0,,2,,,62,127
98891,note_off,68,0,0,,2,,,62,127
98891,note_off,0,0,0,,12,,,59,127
98893,note_on,2,0,0,,4,,,64,127
98893,note_on,0,0,0,,1,,,61,127
98961,note_off,68,0,0,,4,,,64,127
98963,note_on,2,0,0,,2,,,62,127
99031,note_off,68,0,0,,2,,,62,127
99033,note_on,2,0,0,,4,,,64,127
99101,note_off,68,0,0,,4,,,64,127
99101,note_off,0,0,0,,1,,,61,127
99103,note_on,2,0,0,,6,,,66,127
99103,note_on,0,0,0,,2,,,62,127
99171,note_off,68,0,0,,6,,,66,127
99173,note_on,2,0,0,,4,,,64,127
99241,note_off,68,0,0,,4,,,64,127
99243,note_on,2,0,0,,6,,,66,127
99311,note_off,68,0,0,,6,,,66,127
99311,note_off,0,0,0,,2,,,62,127
99313,note_on,2,0,0,,8,,,68,127
99313,note_on,0,0,0,,4,,,64,127
99381,note_off,68,0,0,,8,,,68,127
99383,note_on,2,0,0,,6,,,66,127
99451,note_off,68,0,0,,6,,,66,127
99453,note_on,2,0,0,,8,,,68,127
99521,note_off,68,0,0,,8,,,68,127
99521,note_off,0,0,0,,4,,,64,127
99523,note_on,2,0,0,,10,,,69,127
99523,note_on,0,0,0,,6,,,66,127
99591,note_off,68,0,0,,10,,,69,127
99593,note_on,2,0,0,,8,,,68,127
99661,note_off,68,0,0,,8,,,68,127
99663,note_on,2,0,0,,10,,,69,127
99731,note_off,68,0,0,,10,,,69,127
99731,note_off,0,0,0,,6,,,66,127
99733,note_on,2,0,0,,12,,,71,127
99733,note_on,0,0,0,,8,,,68,127
99801,note_off,68,0,0,,12,,,71,127
99803,note_on,2,0,0,,10,,,69,127
99871,note_off,68,0,0,,10,,,69,127
99873,note_on,2,0,0,,12,,,71,127
99941,note_off,68,0,0,,12,,,71,127
99941,note_off,0,0,0,,8,,,68,127
99943,note_on,2,0,0,,1,,,73,127
99943,note_on,0,0,0,,10,,,69,127
100011,note_off,68,0,0,,1,,,73,127
100013,note_on,2,0,0,,12,,,71,127
100081,note_off,68,0,0,,12,,,71,127
100083,note_on,2,0,0,,1,,,73,127
100151,note_off,68,0,0,,1,,,73,127
100151,note_off,0,0,0,,10,,,69,127
100153,note_on,2,0,0,,2,,,74,127
100153,note_on,0,0,0,,12,,,71,127
100221,note_off,68,0,0,,2,,,74,127
100223,note_on,2,0,0,,1,,,73,127
100291,note_off,68,0,0,,1,,,73,127
100293,note_on,2,0,0,,2,,,74,127
100361,note_off,68,0,0,,2,,,74,127
100361,note_off,0,0,0,,12,,,71,127
100363,note_on,2,0,0,,4,,,76,127
100363,note_on,0,0,0,,1,,,73,127
100431,note_off,68,0,0,,4,,,76,127
100433,note_on,2,0,0,,2,,,74,127
100501,note_off,68,0,0,,2,,,74,127
100503,note_on,2,0,0,,4,,,76,127
100571,note_off,68,0,0,,4,,,76,127
100571,note_off,0,0,0,,1,,,73,127
100573,note_on,2,0,0,,6,,,78,127
100573,note_on,0,0,0,,2,,,74,127
100641,note_off,68,0,0,,6,,,78,127
100643,note_on,2,0,0,,4,,,76,127
100711,note_off,68,0,0,,4,,,76,127
100713,note_on,2,0,0,,6,,,78,127
100781,note_off,68,0,0,,6,,,78,127
100781,note_off,0,0,0,,2,,,74,127
100783,note_on,2,0,0,,8,,,80,127
100783,note_on,0,0,0,,4,,,76,127
100851,note_off,68,0,0,,8,,,80,127
100853,note_on,2,0,0,,6,,,78,127
100921,note_off,68,0,0,,6,,,78,127
100923,note_on,2,0,0,,8,,,80,127
100991,note_off,68,0,0,,8,,,80,127
100991,note_off,0,0,0,,4,,,76,127
100993,note_on,2,0,0,,10,,,81,127
100993,note_on,0,0,0,,6,,,78,127
101200,note_off,207,0,0,,6,,,78,127
101200,note_off,0,0,0,,10,,,81,127
101202,note_on,2,0,0,,6,,,78,127
101202,note_on,0,0,0,,2,,,74,127
101409,note_off,207,0,0,,2,,,74,127
101409,note_off,0,0,0,,6,,,78,127
101411,note_on,2,0,0,,2,,,74,127
101411,note_on,0,0,0,,12,,,71,127
101618,note_off,207,0,0,,12,,,71,127
101618,note_off,0,0,0,,2,,,74,127
101620,note_on,2,0,0,,12,,,71,127
101620,note_on,0,0,0,,8,,,68,127
101827,note_off,207,0,0,,8,,,68,127
101827,note_off,0,0,0,,12,,,71,127
101829,note_on,2,0,0,,1,,,73,127
101829,note_on,0,0,0,,10,,,69,127
102036,note_off,207,0,0,,10,,,69,127
102036,note_off,0,0,0,,1,,,73,127
102038,note_on,2,0,0,,10,,,69,127
102038,note_on,0,0,0,,6,,,66,127
102245,note_off,207,0,0,,6,,,66,127
102245,note_off,0,0,0,,10,,,69,127
102247,note_on,2,0,0,,6,,,66,127
102247,note_on,0,0,0,,2,,,62,127
102454,note_off,207,0,0,,2,,,62,127
102454,note_off,0,0,0,,6,,,66,127
102456,note_on,2,0,0,,2,,,62,127
102456,note_on,0,0,0,,12,,,59,127
102663,note_off,207,0,0,,12,,,59,127
102663,note_off,0,0,0,,2,,,62,127
102665,note_on,2,0,0,,12,,,59,127
102665,note_on,0,0,0,,8,,,56,127
102872,note_off,207,0,0,,8,,,56,127
102872,note_off,0,0,0,,12,,,59,127
102874,note_on,2,0,0,,1,,,61,127
102874,note_on,0,0,0,,10,,,57,127
102942,note_off,68,0,0,,1,,,61,127
102944,note_on,2,0,0,,12,,,59,127
103012,note_off,68,0,0,,12,,,59,127
103014,note_on,2,0,0,,1,,,61,127
103082,note_off,68,0,0,,1,,,61,127
103082,note_off,0,0,0,,10,,,57,127
103084,note_on,2,0,0,,2,,,62,127
103084,note_on,0,0,0,,12,,,59,127
103152,note_off,68,0,0,,2,,,62,127
103154,note_on,2,0,0,,1,,,61,127
103222,note_off,68,0,0,,1,,,61,127
103224,note_on,2,0,0,,2,,,62,127
103292,note_off,68,0,0,,2,,,62,127
103292,note_off,0,0,0,,12,,,59,127
103294,note_on,2,0,0,,4,,,64,127
103294,note_on,0,0,0,,1,,,61,127
103501,note_off,207,0,0,,1,,,61,127
103501,note_off,0,0,0,,4,,,64,127
103503,note_on,2,0,0,,12,,,59,127
103503,note_on,0,0,0,,2,,,62,127
103503,note_on,0,0,0,,2,,,50,127
103710,note_off,207,0,0,,2,,,50,127
103710,note_off,0,0,0,,2,,,62,127
103710,note_off,0,0,0,,12,,,59,127
103712,note_on,2,0,0,,1,,,61,127
103712,note_on,0,0,0,,10,,,57,127
103712,note_on,0,0,0,,4,,,52,127
103919,note_off,207,0,0,,4,,,52,127
103919,note_off,0,0,0,,10,,,57,127
103919,note_off,0,0,0,,1,,,61,127
103921,note_on,2,0,0,,8,,,56,127
103921,note_on,0,0,0,,12,,,59,127
103921,note_on,0,0,0,,4,,,40,127
104096,note_off,175,0,0,,12,,,59,127
104129,note_off,33,0,0,,4,,,40,127
104140,note_off,11,0,0,,8,,,56,127
104149,note_on,9,0,0,,10,,,45,127
104149,note_on,0,0,0,,4,,,64,127
104356,note_off,207,0,0,,10,,,45,127
104358,note_on,2,0,0,,12,,,47,127
104358,note_on,0,0,0,,4,,,76,127
104563,note_off,205,0,0,,4,,,64,127
104565,note_off,2,0,0,,12,,,47,127
104567,note_on,2,0,0,,1,,,49,127
104567,note_on,0,0,0,,4,,,64,127
104772,note_off,205,0,0,,4,,,76,127
104774,note_off,2,0,0,,4,,,64,127
104774,note_off,0,0,0,,1,,,49,127
104776,note_on,2,0,0,,2,,,50,127
104776,note_on,0,0,0,,2,,,74,127
104776,note_on,0,0,0,,6,,,66,127
104983,note_off,207,0,0,,2,,,50,127
104985,note_on,2,0,0,,4,,,52,127
105192,note_off,207,0,0,,6,,,66,127
105192,note_off,0,0,0,,2,,,74,127
105194,note_on,2,0,0,,4,,,40,127
105194,note_on,0,0,0,,12,,,71,127
105194,note_on,0,0,0,,8,,,68,127
105379,note_off,185,0,0,,8,,,68,127
105379,note_off,0,0,0,,12,,,71,127
105399,note_off,20,0,0,,4,,,52,127
105401,note_off,2,0,0,,4,,,40,127
105403,note_on,2,0,0,,10,,,45,127
105403,note_on,0,0,0,,10,,,69,127
105403,note_on,0,0,0,,1,,,73,127
105610,note_off,207,0,0,,1,,,73,127
105610,note_off,0,0,0,,10,,,69,127
105610,note_off,0,0,0,,10,,,45,127
105612,note_on,2,0,0,,12,,,47,127
105612,note_on,0,0,0,,10,,,81,127
105819,note_off,207,0,0,,10,,,81,127
105819,note_off,0,0,0,,12,,,47,127
105821,note_on,2,0,0,,1,,,49,127
105821,note_on,0,0,0,,4,,,64,127
106028,note_off,207,0,0,,4,,,64,127
106028,note_off,0,0,0,,1,,,49,127
106030,note_on,2,0,0,,2,,,50,127
106030,note_on,0,0,0,,2,,,74,127
106030,note_on,0,0,0,,6,,,66,127
106237,note_off,207,0,0,,2,,,50,127
106239,note_on,2,0,0,,4,,,52,127
106446,note_off,207,0,0,,6,,,66,127
106446,note_off,0,0,0,,2,,,74,127
106448,note_on,2,0,0,,4,,,40,127
106448,note_on,0,0,0,,12,,,71,127
106448,note_on,0,0,0,,8,,,68,127
106655,note_off,207,0,0,,4,,,40,127
106657,note_off,2,0,0,,8,,,68,127
106657,note_off,0,0,0,,12,,,71,127
106665,note_off,8,0,0,,4,,,52,127
106666,note_on,1,0,0,,10,,,45,127
106666,note_on,0,0,0,,1,,,73,127
106666,note_on,0,0,0,,10,,,69,127
106873,note_off,207,0,0,,10,,,69,127
106873,note_off,0,0,0,,1,,,73,127
106873,note_off,0,0,0,,10,,,45,127
106875,note_on,2,0,0,,12,,,47,127
106875,note_on,0,0,0,,1,,,85,127
107082,note_off,207,0,0,,1,,,85,127
107082,note_off,0,0,0,,12,,,47,127
107084,note_on,2,0,0,,1,,,49,127
107084,note_on,0,0,0,,4,,,64,127
107291,note_off,207,0,0,,4,,,64,127
107291,note_off,0,0,0,,1,,,49,127
107293,note_on,2,0,0,,2,,,50,127
107293,note_on,0,0,0,,2,,,74,127
107293,note_on,0,0,0,,6,,,66,127
107500,note_off,207,0,0,,2,,,50,127
107502,note_on,2,0,0,,4,,,52,127
107709,note_off,207,0,0,,6,,,66,127
107709,note_off,0,0,0,,2,,,74,127
107711,note_on,2,0,0,,4,,,40,127
107711,note_on,0,0,0,,12,,,71,127
107711,note_on,0,0,0,,8,,,68,127
107916,note_off,205,0,0,,4,,,52,127
107918,note_off,2,0,0,,8,,,68,127
107918,note_off,0,0,0,,12,,,71,127
107918,note_off,0,0,0,,4,,,40,127
107938,note_on,20,0,0,,1,,,73,127
107938,note_on,0,0,0,,10,,,57,127
108006,note_off,68,0,0,,1,,,73,127
108008,note_on,2,0,0,,12,,,71,127
108076,note_off,68,0,0,,12,,,71,127
108078,note_on,2,0,0,,1,,,73,127
108146,note_off,68,0,0,,1,,,73,127
108146,note_off,0,0,0,,10,,,57,127
108148,note_on,2,0,0,,2,,,74,127
108148,note_on,0,0,0,,12,,,59,127
108216,note_off,68,0,0,,2,,,74,127
108218,note_on,2,0,0,,1,,,73,127
108286,note_off,68,0,0,,1,,,73,127
108288,note_on,2,0,0,,2,,,74,127
108356,note_off,68,0,0,,2,,,74,127
108356,note_off,0,0,0,,12,,,59,127
108358,note_on,2,0,0,,4,,,76,127
108358,note_on,0,0,0,,1,,,61,127
108565,note_off,207,0,0,,1,,,61,127
108565,note_off,0,0,0,,4,,,76,127
108567,note_on,2,0,0,,12,,,71,127
108567,note_on,0,0,0,,2,,,74,127
108567,note_on,0,0,0,,2,,,62,127
108774,note_off,207,0,0,,2,,,62,127
108774,note_off,0,0,0,,2,,,74,127
108774,note_off,0,0,0,,12,,,71,127
108776,note_on,2,0,0,,10,,,69,127
108776,note_on,0,0,0,,1,,,73,127
108776,note_on,0,0,0,,4,,,64,127
108983,note_off,207,0,0,,1,,,73,127
108983,note_off,0,0,0,,10,,,69,127
108985,note_on,2,0,0,,8,,,68,127
108985,note_on,0,0,0,,12,,,71,127
108985,note_on,0,0,0,,4,,,52,127
109090,note_off,105,0,0,,4,,,64,127
109193,note_off,103,0,0,,4,,,52,127
109193,note_off,0,0,0,,12,,,71,127
109193,note_off,0,0,0,,8,,,68,127
109213,note_on,20,0,0,,10,,,45,127
109213,note_on,0,0,0,,1,,,61,127
109281,note_off,68,0,0,,1,,,61,127
109283,note_on,2,0,0,,12,,,59,127
109351,note_off,68,0,0,,12,,,59,127
109353,note_on,2,0,0,,1,,,61,127
109421,note_off,68,0,0,,1,,,61,127
109421,note_off,0,0,0,,10,,,45,127
109423,note_on,2,0,0,,12,,,47,127
109423,note_on,0,0,0,,2,,,62,127
109491,note_off,68,0,0,,2,,,62,127
109493,note_on,2,0,0,,1,,,61,127
109561,note_off,68,0,0,,1,,,61,127
109563,note_on,2,0,0,,2,,,62,127
109631,note_off,68,0,0,,2,,,62,127
109631,note_off,0,0,0,,12,,,47,127
109633,note_on,2,0,0,,1,,,49,127
109633,note_on,0,0,0,,4,,,64,127
109840,note_off,207,0,0,,4,,,64,127
109840,note_off,0,0,0,,1,,,49,127
109842,note_on,2,0,0,,2,,,50,127
109842,note_on,0,0,0,,12,,,59,127
109842,note_on,0,0,0,,4,,,64,127
109842,note_on,0,0,0,,2,,,62,127
110049,note_off,207,0,0,,2,,,62,127
110049,note_off,0,0,0,,4,,,64,127
110049,note_off,0,0,0,,12,,,59,127
110049,note_off,0,0,0,,2,,,50,127
110051,note_on,2,0,0,,4,,,52,127
110051,note_on,0,0,0,,1,,,61,127
110051,note_on,0,0,0,,10,,,57,127
110258,note_off,207,0,0,,10,,,57,127
110258,note_off,0,0,0,,1,,,61,127
110260,note_on,2,0,0,,4,,,40,127
110260,note_on,0,0,0,,12,,,59,127
110260,note_on,0,0,0,,8,,,56,127
110465,note_off,205,0,0,,4,,,52,127
110467,note_off,2,0,0,,4,,,40,127
110478,note_off,11,0,0,,8,,,56,127
110478,note_off,0,0,0,,12,,,59,127
110491,note_on,13,0,0,,10,,,57,127
110491,note_on,0,0,0,,10,,,45,127
112913,note_off,2422,0,0,,10,,,45,127
112913,note_off,0,0,0,,10,,,57,127
115200,end_of_track,2287,1,0,,,,,,
