tick,type,time,meta,track,program,channel,pitch,tempo,note,velocity
0,copyright,0,1,0,,,,,,
0,program_change,0,0,0,6,0,,,,
0,pitchwheel,0,0,0,,0,0,,,
0,program_change,0,0,0,6,1,,,,
0,pitchwheel,0,0,0,,1,-590,,,
0,program_change,0,0,0,6,2,,,,
0,pitchwheel,0,0,0,,2,-272,,,
0,program_change,0,0,0,6,3,,,,
0,pitchwheel,0,0,0,,3,-353,,,
0,program_change,0,0,0,6,4,,,,
0,pitchwheel,0,0,0,,4,-560,,,
0,program_change,0,0,0,6,5,,,,
0,pitchwheel,0,0,0,,5,-80,,,
0,program_change,0,0,0,6,6,,,,
0,pitchwheel,0,0,0,,6,-625,,,
0,program_change,0,0,0,6,7,,,,
0,pitchwheel,0,0,0,,7,-130,,,
0,program_change,0,0,0,6,8,,,,
0,pitchwheel,0,0,0,,8,-512,,,
0,program_change,0,0,0,6,10,,,,
0,pitchwheel,0,0,0,,10,-464,,,
0,program_change,0,0,0,6,11,,,,
0,pitchwheel,0,0,0,,11,-208,,,
0,program_change,0,0,0,6,12,,,,
0,pitchwheel,0,0,0,,12,-553,,,
0,set_tempo,0,1,0,,,,500000,,
110,note_on,110,0,0,,10,,,81,127
329,note_on,219,0,0,,10,,,69,127
329,note_on,0,0,0,,1,,,73,127
546,note_off,217,0,0,,1,,,73,127
546,note_off,0,0,0,,10,,,69,127
548,note_on,2,0,0,,12,,,71,127
548,note_on,0,0,0,,2,,,74,127
766,note_off,218,0,0,,10,,,81,127
767,note_on,1,0,0,,8,,,80,127
767,note_on,0,0,0,,12,,,83,127
767,note_on,0,0,0,,8,,,68,127
984,note_off,217,0,0,,8,,,68,127
986,note_on,2,0,0,,4,,,64,127
1201,note_off,215,0,0,,12,,,83,127
1201,note_off,0,0,0,,8,,,80,127
1203,note_off,2,0,0,,4,,,64,127
1204,note_off,1,0,0,,2,,,74,127
1204,note_off,0,0,0,,12,,,71,127
1205,note_on,1,0,0,,10,,,45,127
1424,note_on,219,0,0,,10,,,81,127
1643,note_on,219,0,0,,10,,,69,127
1643,note_on,0,0,0,,1,,,73,127
1753,note_off,110,0,0,,10,,,45,127
1860,note_off,107,0,0,,1,,,73,127
1860,note_off,0,0,0,,10,,,69,127
1862,note_on,2,0,0,,12,,,71,127
1862,note_on,0,0,0,,2,,,74,127
2080,note_off,218,0,0,,10,,,81,127
2081,note_on,1,0,0,,8,,,80,127
2081,note_on,0,0,0,,12,,,83,127
2081,note_on,0,0,0,,8,,,68,127
2298,note_off,217,0,0,,8,,,68,127
2300,note_on,2,0,0,,4,,,64,127
2515,note_off,215,0,0,,12,,,83,127
2515,note_off,0,0,0,,8,,,80,127
2517,note_off,2,0,0,,4,,,64,127
2518,note_off,1,0,0,,2,,,74,127
2518,note_off,0,0,0,,12,,,71,127
2519,note_on,1,0,0,,10,,,45,127
2738,note_on,219,0,0,,10,,,81,127
2957,note_on,219,0,0,,1,,,73,127
2957,note_on,0,0,0,,10,,,69,127
3174,note_off,217,0,0,,10,,,69,127
3174,note_off,0,0,0,,1,,,73,127
3175,note_off,1,0,0,,10,,,45,127
3176,note_on,1,0,0,,12,,,71,127
3394,note_off,218,0,0,,10,,,81,127
3395,note_on,1,0,0,,5,,,77,127
3395,note_on,0,0,0,,8,,,80,127
3395,note_on,0,0,0,,12,,,83,127
3395,note_on,0,0,0,,8,,,68,127
3612,note_off,217,0,0,,8,,,68,127
3614,note_on,2,0,0,,5,,,65,127
3829,note_off,215,0,0,,12,,,83,127
3829,note_off,0,0,0,,8,,,80,127
3829,note_off,0,0,0,,5,,,77,127
3831,note_off,2,0,0,,5,,,65,127
3832,note_off,1,0,0,,12,,,71,127
3833,note_on,1,0,0,,6,,,42,127
4052,note_on,219,0,0,,6,,,78,127
4052,note_on,0,0,0,,10,,,81,127
4052,note_on,0,0,0,,1,,,73,127
4269,note_off,217,0,0,,1,,,73,127
4271,note_on,2,0,0,,10,,,69,127
4488,note_off,217,0,0,,10,,,69,127
4489,note_off,1,0,0,,6,,,42,127
4490,note_on,1,0,0,,12,,,71,127
4708,note_off,218,0,0,,10,,,81,127
4708,note_off,0,0,0,,6,,,78,127
4709,note_on,1,0,0,,8,,,80,127
4709,note_on,0,0,0,,5,,,77,127
4709,note_on,0,0,0,,12,,,83,127
4709,note_on,0,0,0,,8,,,68,127
4926,note_off,217,0,0,,8,,,68,127
4928,note_on,2,0,0,,5,,,65,127
5143,note_off,215,0,0,,12,,,83,127
5143,note_off,0,0,0,,5,,,77,127
5143,note_off,0,0,0,,8,,,80,127
5145,note_off,2,0,0,,5,,,65,127
5146,note_off,1,0,0,,12,,,71,127
5147,note_on,1,0,0,,6,,,42,127
5366,note_on,219,0,0,,10,,,81,127
5366,note_on,0,0,0,,1,,,73,127
5366,note_on,0,0,0,,6,,,78,127
5583,note_off,217,0,0,,1,,,73,127
5585,note_on,2,0,0,,10,,,69,127
5802,note_off,217,0,0,,10,,,69,127
5803,note_off,1,0,0,,6,,,42,127
5804,note_on,1,0,0,,12,,,71,127
6022,note_off,218,0,0,,6,,,78,127
6022,note_off,0,0,0,,10,,,81,127
6023,note_on,1,0,0,,7,,,79,127
6023,note_on,0,0,0,,4,,,76,127
6023,note_on,0,0,0,,4,,,64,127
6240,note_off,217,0,0,,4,,,64,127
6242,note_on,2,0,0,,1,,,61,127
6457,note_off,215,0,0,,4,,,76,127
6457,note_off,0,0,0,,7,,,79,127
6459,note_off,2,0,0,,1,,,61,127
6460,note_off,1,0,0,,12,,,71,127
6461,note_on,1,0,0,,2,,,38,127
6680,note_on,219,0,0,,6,,,78,127
6680,note_on,0,0,0,,10,,,69,127
6680,note_on,0,0,0,,2,,,74,127
6897,note_off,217,0,0,,10,,,69,127
6899,note_on,2,0,0,,6,,,66,127
7116,note_off,217,0,0,,6,,,66,127
7117,note_off,1,0,0,,2,,,38,127
7118,note_on,1,0,0,,7,,,67,127
7336,note_off,218,0,0,,2,,,74,127
7336,note_off,0,0,0,,6,,,78,127
7337,note_on,1,0,0,,1,,,73,127
7337,note_on,0,0,0,,4,,,76,127
7337,note_on,0,0,0,,7,,,79,127
7337,note_on,0,0,0,,4,,,64,127
7554,note_off,217,0,0,,4,,,64,127
7556,note_on,2,0,0,,1,,,61,127
7771,note_off,215,0,0,,7,,,79,127
7771,note_off,0,0,0,,4,,,76,127
7771,note_off,0,0,0,,1,,,73,127
7773,note_off,2,0,0,,1,,,61,127
7774,note_off,1,0,0,,7,,,67,127
7775,note_on,1,0,0,,2,,,38,127
7994,note_on,219,0,0,,10,,,69,127
7994,note_on,0,0,0,,2,,,74,127
7994,note_on,0,0,0,,6,,,78,127
8211,note_off,217,0,0,,10,,,69,127
8213,note_on,2,0,0,,6,,,66,127
8430,note_off,217,0,0,,6,,,66,127
8431,note_off,1,0,0,,2,,,38,127
8432,note_on,1,0,0,,7,,,67,127
8650,note_off,218,0,0,,6,,,78,127
8650,note_off,0,0,0,,2,,,74,127
8651,note_on,1,0,0,,4,,,76,127
8651,note_on,0,0,0,,7,,,79,127
8651,note_on,0,0,0,,1,,,73,127
8651,note_on,0,0,0,,4,,,64,127
8868,note_off,217,0,0,,4,,,64,127
8870,note_on,2,0,0,,1,,,61,127
9087,note_off,217,0,0,,1,,,61,127
9087,note_off,0,0,0,,1,,,73,127
9087,note_off,0,0,0,,4,,,76,127
9088,note_off,1,0,0,,7,,,67,127
9098,note_on,10,0,0,,6,,,78,127
9098,note_on,0,0,0,,2,,,38,127
9104,note_off,6,0,0,,7,,,79,127
9206,note_off,102,0,0,,6,,,78,127
9208,note_on,2,0,0,,2,,,74,127
9315,note_off,107,0,0,,2,,,74,127
9317,note_on,2,0,0,,10,,,69,127
9424,note_off,107,0,0,,10,,,69,127
9426,note_on,2,0,0,,6,,,66,127
9531,note_off,105,0,0,,2,,,38,127
9533,note_off,2,0,0,,6,,,66,127
9535,note_on,2,0,0,,6,,,78,127
9535,note_on,0,0,0,,2,,,62,127
9642,note_off,107,0,0,,6,,,78,127
9644,note_on,2,0,0,,8,,,80,127
9751,note_off,107,0,0,,8,,,80,127
9751,note_off,0,0,0,,2,,,62,127
9753,note_on,2,0,0,,10,,,81,127
9753,note_on,0,0,0,,1,,,61,127
9860,note_off,107,0,0,,1,,,61,127
9862,note_on,2,0,0,,10,,,57,127
9969,note_off,107,0,0,,10,,,57,127
9971,note_on,2,0,0,,4,,,52,127
10078,note_off,107,0,0,,4,,,52,127
10080,note_on,2,0,0,,1,,,49,127
10187,note_off,107,0,0,,1,,,49,127
10187,note_off,0,0,0,,10,,,81,127
10189,note_on,2,0,0,,10,,,81,127
10189,note_on,0,0,0,,1,,,61,127
10296,note_off,107,0,0,,1,,,61,127
10298,note_on,2,0,0,,3,,,63,127
10405,note_off,107,0,0,,3,,,63,127
10405,note_off,0,0,0,,10,,,81,127
10407,note_on,2,0,0,,8,,,80,127
10407,note_on,0,0,0,,4,,,64,127
10514,note_off,107,0,0,,8,,,80,127
10516,note_on,2,0,0,,12,,,83,127
10623,note_off,107,0,0,,12,,,83,127
10623,note_off,0,0,0,,4,,,64,127
10625,note_on,2,0,0,,4,,,76,127
10625,note_on,0,0,0,,6,,,66,127
10732,note_off,107,0,0,,4,,,76,127
10734,note_on,2,0,0,,8,,,80,127
10841,note_off,107,0,0,,8,,,80,127
10841,note_off,0,0,0,,6,,,66,127
10843,note_on,2,0,0,,12,,,71,127
10843,note_on,0,0,0,,8,,,68,127
10950,note_off,107,0,0,,12,,,71,127
10952,note_on,2,0,0,,2,,,74,127
11059,note_off,107,0,0,,2,,,74,127
11059,note_off,0,0,0,,8,,,68,127
11061,note_on,2,0,0,,1,,,73,127
11061,note_on,0,0,0,,10,,,69,127
11168,note_off,107,0,0,,10,,,69,127
11168,note_off,0,0,0,,1,,,73,127
11170,note_on,2,0,0,,1,,,73,127
11277,note_off,107,0,0,,1,,,73,127
11279,note_on,2,0,0,,10,,,81,127
11279,note_on,0,0,0,,6,,,66,127
11386,note_off,107,0,0,,6,,,66,127
11388,note_on,2,0,0,,10,,,69,127
11495,note_off,107,0,0,,10,,,69,127
11495,note_off,0,0,0,,10,,,81,127
11497,note_on,2,0,0,,6,,,78,127
11497,note_on,0,0,0,,2,,,62,127
11604,note_off,107,0,0,,2,,,62,127
11606,note_on,2,0,0,,6,,,66,127
11713,note_off,107,0,0,,6,,,66,127
11713,note_off,0,0,0,,6,,,78,127
11715,note_on,2,0,0,,2,,,74,127
11715,note_on,0,0,0,,12,,,59,127
11822,note_off,107,0,0,,12,,,59,127
11824,note_on,2,0,0,,2,,,62,127
11931,note_off,107,0,0,,2,,,62,127
11931,note_off,0,0,0,,2,,,74,127
11933,note_on,2,0,0,,12,,,71,127
11933,note_on,0,0,0,,8,,,56,127
12040,note_off,107,0,0,,8,,,56,127
12042,note_on,2,0,0,,12,,,59,127
12149,note_off,107,0,0,,12,,,59,127
12149,note_off,0,0,0,,12,,,71,127
12151,note_on,2,0,0,,4,,,76,127
12151,note_on,0,0,0,,4,,,52,127
12258,note_off,107,0,0,,4,,,52,127
12260,note_on,2,0,0,,8,,,56,127
12367,note_off,107,0,0,,8,,,56,127
12367,note_off,0,0,0,,4,,,76,127
12369,note_on,2,0,0,,1,,,73,127
12369,note_on,0,0,0,,10,,,57,127
12476,note_off,107,0,0,,10,,,57,127
12478,note_on,2,0,0,,1,,,61,127
12585,note_off,107,0,0,,1,,,61,127
12585,note_off,0,0,0,,1,,,73,127
12587,note_on,2,0,0,,10,,,69,127
12587,note_on,0,0,0,,6,,,54,127
12694,note_off,107,0,0,,6,,,54,127
12696,note_on,2,0,0,,10,,,57,127
12803,note_off,107,0,0,,10,,,57,127
12803,note_off,0,0,0,,10,,,69,127
12805,note_on,2,0,0,,1,,,73,127
12805,note_on,0,0,0,,3,,,51,127
12912,note_off,107,0,0,,3,,,51,127
12914,note_on,2,0,0,,6,,,54,127
13021,note_off,107,0,0,,6,,,54,127
13023,note_on,2,0,0,,12,,,47,127
13130,note_off,107,0,0,,12,,,47,127
13132,note_on,2,0,0,,3,,,51,127
13239,note_off,107,0,0,,3,,,51,127
13239,note_off,0,0,0,,1,,,73,127
13241,note_on,2,0,0,,12,,,71,127
13241,note_on,0,0,0,,1,,,49,127
13348,note_off,107,0,0,,1,,,49,127
13350,note_on,2,0,0,,4,,,52,127
13457,note_off,107,0,0,,4,,,52,127
13457,note_off,0,0,0,,12,,,71,127
13459,note_on,2,0,0,,10,,,69,127
13459,note_on,0,0,0,,3,,,51,127
13566,note_off,107,0,0,,3,,,51,127
13568,note_on,2,0,0,,6,,,54,127
13675,note_off,107,0,0,,6,,,54,127
13675,note_off,0,0,0,,10,,,69,127
13677,note_on,2,0,0,,8,,,68,127
13677,note_on,0,0,0,,4,,,52,127
13784,note_off,107,0,0,,4,,,52,127
13786,note_on,2,0,0,,8,,,56,127
13893,note_off,107,0,0,,8,,,56,127
13893,note_off,0,0,0,,8,,,68,127
13895,note_on,2,0,0,,10,,,69,127
13895,note_on,0,0,0,,6,,,54,127
14002,note_off,107,0,0,,6,,,54,127
14004,note_on,2,0,0,,10,,,57,127
14111,note_off,107,0,0,,10,,,57,127
14111,note_off,0,0,0,,10,,,69,127
14113,note_on,2,0,0,,12,,,71,127
14113,note_on,0,0,0,,8,,,56,127
14220,note_off,107,0,0,,8,,,56,127
14222,note_on,2,0,0,,12,,,59,127
14329,note_off,107,0,0,,12,,,59,127
14329,note_off,0,0,0,,12,,,71,127
14331,note_on,2,0,0,,1,,,73,127
14331,note_on,0,0,0,,10,,,57,127
14438,note_off,107,0,0,,1,,,73,127
14440,note_on,2,0,0,,12,,,71,127
14547,note_off,107,0,0,,12,,,71,127
14547,note_off,0,0,0,,10,,,57,127
14549,note_on,2,0,0,,10,,,69,127
14549,note_on,0,0,0,,12,,,59,127
14656,note_off,107,0,0,,10,,,69,127
14658,note_on,2,0,0,,8,,,68,127
14765,note_off,107,0,0,,8,,,68,127
14765,note_off,0,0,0,,12,,,59,127
14767,note_on,2,0,0,,6,,,66,127
14767,note_on,0,0,0,,1,,,61,127
14874,note_off,107,0,0,,6,,,66,127
14876,note_on,2,0,0,,4,,,64,127
14956,note_off,80,0,0,,4,,,64,127
14983,note_off,27,0,0,,1,,,61,127
14991,note_on,8,0,0,,12,,,59,127
15215,note_on,224,0,0,,12,,,71,127
15442,note_on,227,0,0,,10,,,69,127
15442,note_on,0,0,0,,6,,,78,127
15455,note_off,13,0,0,,12,,,71,127
15648,note_off,193,0,0,,12,,,59,127
15659,note_off,11,0,0,,6,,,78,127
15659,note_off,0,0,0,,10,,,69,127
15661,note_on,2,0,0,,12,,,59,127
15661,note_on,0,0,0,,7,,,67,127
15661,note_on,0,0,0,,12,,,83,127
15878,note_off,217,0,0,,12,,,83,127
15878,note_off,0,0,0,,7,,,67,127
15880,note_on,2,0,0,,6,,,66,127
15880,note_on,0,0,0,,10,,,81,127
16097,note_off,217,0,0,,10,,,81,127
16097,note_off,0,0,0,,6,,,66,127
16099,note_on,2,0,0,,4,,,64,127
16099,note_on,0,0,0,,7,,,79,127
16316,note_off,217,0,0,,7,,,79,127
16316,note_off,0,0,0,,4,,,64,127
16317,note_off,1,0,0,,12,,,59,127
16318,note_on,1,0,0,,0,,,60,127
16318,note_on,0,0,0,,7,,,79,127
16318,note_on,0,0,0,,10,,,81,127
16535,note_off,217,0,0,,10,,,81,127
16535,note_off,0,0,0,,7,,,79,127
16537,note_on,2,0,0,,0,,,72,127
16537,note_on,0,0,0,,6,,,78,127
16754,note_off,217,0,0,,6,,,78,127
16754,note_off,0,0,0,,0,,,72,127
16756,note_on,2,0,0,,10,,,69,127
16756,note_on,0,0,0,,0,,,84,127
16973,note_off,217,0,0,,0,,,84,127
16973,note_off,0,0,0,,10,,,69,127
16974,note_off,1,0,0,,0,,,60,127
16975,note_on,1,0,0,,7,,,67,127
16975,note_on,0,0,0,,12,,,59,127
16975,note_on,0,0,0,,4,,,76,127
16975,note_on,0,0,0,,6,,,78,127
17192,note_off,217,0,0,,7,,,67,127
17194,note_on,2,0,0,,6,,,66,127
17301,note_off,107,0,0,,6,,,66,127
17303,note_on,2,0,0,,4,,,64,127
17410,note_off,107,0,0,,4,,,64,127
17410,note_off,0,0,0,,6,,,78,127
17410,note_off,0,0,0,,4,,,76,127
17412,note_on,2,0,0,,6,,,66,127
17412,note_on,0,0,0,,3,,,75,127
17629,note_off,217,0,0,,6,,,66,127
17630,note_off,1,0,0,,12,,,59,127
17631,note_on,1,0,0,,12,,,59,127
17741,note_off,110,0,0,,3,,,75,127
17851,note_on,110,0,0,,12,,,71,127
18068,note_off,217,0,0,,12,,,71,127
18070,note_on,2,0,0,,10,,,69,127
18070,note_on,0,0,0,,6,,,78,127
18287,note_off,217,0,0,,6,,,78,127
18287,note_off,0,0,0,,10,,,69,127
18288,note_off,1,0,0,,12,,,59,127
18289,note_on,1,0,0,,7,,,67,127
18289,note_on,0,0,0,,12,,,59,127
18289,note_on,0,0,0,,12,,,83,127
18506,note_off,217,0,0,,12,,,83,127
18506,note_off,0,0,0,,7,,,67,127
18508,note_on,2,0,0,,6,,,66,127
18508,note_on,0,0,0,,10,,,81,127
18725,note_off,217,0,0,,10,,,81,127
18725,note_off,0,0,0,,6,,,66,127
18727,note_on,2,0,0,,4,,,64,127
18727,note_on,0,0,0,,7,,,79,127
18944,note_off,217,0,0,,7,,,79,127
18944,note_off,0,0,0,,4,,,64,127
18945,note_off,1,0,0,,12,,,59,127
18946,note_on,1,0,0,,0,,,60,127
18946,note_on,0,0,0,,7,,,79,127
18946,note_on,0,0,0,,10,,,81,127
19163,note_off,217,0,0,,10,,,81,127
19163,note_off,0,0,0,,7,,,79,127
19165,note_on,2,0,0,,0,,,72,127
19165,note_on,0,0,0,,6,,,78,127
19382,note_off,217,0,0,,6,,,78,127
19382,note_off,0,0,0,,0,,,72,127
19384,note_on,2,0,0,,10,,,69,127
19384,note_on,0,0,0,,0,,,84,127
19601,note_off,217,0,0,,0,,,84,127
19601,note_off,0,0,0,,10,,,69,127
19602,note_off,1,0,0,,0,,,60,127
19603,note_on,1,0,0,,7,,,67,127
19603,note_on,0,0,0,,12,,,59,127
19603,note_on,0,0,0,,6,,,78,127
19603,note_on,0,0,0,,4,,,76,127
19820,note_off,217,0,0,,7,,,67,127
19822,note_on,2,0,0,,6,,,66,127
19929,note_off,107,0,0,,6,,,66,127
19931,note_on,2,0,0,,4,,,64,127
20038,note_off,107,0,0,,4,,,64,127
20038,note_off,0,0,0,,4,,,76,127
20038,note_off,0,0,0,,6,,,78,127
20040,note_on,2,0,0,,6,,,66,127
20040,note_on,0,0,0,,3,,,75,127
20257,note_off,217,0,0,,6,,,66,127
20258,note_off,1,0,0,,12,,,59,127
20259,note_on,1,0,0,,12,,,59,127
20476,note_off,217,0,0,,3,,,75,127
20478,note_on,2,0,0,,12,,,71,127
20478,note_on,0,0,0,,12,,,83,127
20695,note_off,217,0,0,,12,,,71,127
20697,note_on,2,0,0,,8,,,68,127
20697,note_on,0,0,0,,2,,,74,127
20915,note_off,218,0,0,,12,,,59,127
20916,note_on,1,0,0,,12,,,59,127
21131,note_off,215,0,0,,8,,,68,127
21133,note_off,2,0,0,,2,,,74,127
21134,note_off,1,0,0,,12,,,83,127
21135,note_on,1,0,0,,10,,,69,127
21135,note_on,0,0,0,,0,,,84,127
21135,note_on,0,0,0,,4,,,76,127
21352,note_off,217,0,0,,4,,,76,127
21352,note_off,0,0,0,,0,,,84,127
21352,note_off,0,0,0,,10,,,69,127
21354,note_on,2,0,0,,8,,,68,127
21354,note_on,0,0,0,,2,,,86,127
21354,note_on,0,0,0,,5,,,77,127
21572,note_off,218,0,0,,12,,,59,127
21573,note_on,1,0,0,,10,,,57,127
21788,note_off,215,0,0,,8,,,68,127
21790,note_off,2,0,0,,5,,,77,127
21790,note_off,0,0,0,,2,,,86,127
21792,note_on,2,0,0,,10,,,69,127
21792,note_on,0,0,0,,0,,,84,127
21792,note_on,0,0,0,,4,,,76,127
22007,note_off,215,0,0,,10,,,57,127
22009,note_off,2,0,0,,4,,,76,127
22009,note_off,0,0,0,,0,,,84,127
22011,note_on,2,0,0,,12,,,59,127
22011,note_on,0,0,0,,12,,,83,127
22011,note_on,0,0,0,,3,,,75,127
22228,note_off,217,0,0,,12,,,59,127
22230,note_on,2,0,0,,0,,,60,127
22447,note_off,217,0,0,,3,,,75,127
22448,note_off,1,0,0,,10,,,69,127
22449,note_on,1,0,0,,10,,,69,127
22449,note_on,0,0,0,,4,,,76,127
22664,note_off,215,0,0,,0,,,60,127
22667,note_off,3,0,0,,12,,,83,127
22668,note_on,1,0,0,,4,,,64,127
22668,note_on,0,0,0,,1,,,61,127
22668,note_on,0,0,0,,11,,,82,127
22883,note_off,215,0,0,,4,,,76,127
22883,note_off,0,0,0,,10,,,69,127
22885,note_off,2,0,0,,11,,,82,127
22885,note_off,0,0,0,,1,,,61,127
22885,note_off,0,0,0,,4,,,64,127
22887,note_on,2,0,0,,3,,,63,127
22887,note_on,0,0,0,,6,,,66,127
22887,note_on,0,0,0,,12,,,83,127
22994,note_off,107,0,0,,12,,,83,127
22996,note_on,2,0,0,,7,,,79,127
23103,note_off,107,0,0,,7,,,79,127
23103,note_off,0,0,0,,3,,,63,127
23105,note_on,2,0,0,,12,,,59,127
23105,note_on,0,0,0,,10,,,81,127
23212,note_off,107,0,0,,10,,,81,127
23214,note_on,2,0,0,,6,,,78,127
23319,note_off,105,0,0,,6,,,66,127
23321,note_off,2,0,0,,6,,,78,127
23321,note_off,0,0,0,,12,,,59,127
23323,note_on,2,0,0,,4,,,64,127
23323,note_on,0,0,0,,7,,,79,127
23430,note_off,107,0,0,,7,,,79,127
23432,note_on,2,0,0,,4,,,76,127
23539,note_off,107,0,0,,4,,,76,127
23539,note_off,0,0,0,,4,,,64,127
23541,note_on,2,0,0,,10,,,57,127
23541,note_on,0,0,0,,10,,,69,127
23541,note_on,0,0,0,,10,,,81,127
23648,note_off,107,0,0,,10,,,81,127
23650,note_on,2,0,0,,6,,,78,127
23757,note_off,107,0,0,,6,,,78,127
23757,note_off,0,0,0,,10,,,69,127
23757,note_off,0,0,0,,10,,,57,127
23759,note_on,2,0,0,,12,,,59,127
23759,note_on,0,0,0,,7,,,67,127
23759,note_on,0,0,0,,7,,,79,127
23866,note_off,107,0,0,,7,,,79,127
23868,note_on,2,0,0,,4,,,76,127
23975,note_off,107,0,0,,4,,,76,127
23975,note_off,0,0,0,,7,,,67,127
23975,note_off,0,0,0,,12,,,59,127
23977,note_on,2,0,0,,12,,,59,127
23977,note_on,0,0,0,,10,,,69,127
23977,note_on,0,0,0,,6,,,66,127
23977,note_on,0,0,0,,6,,,78,127
24084,note_off,107,0,0,,6,,,78,127
24086,note_on,2,0,0,,3,,,75,127
24193,note_off,107,0,0,,3,,,75,127
24193,note_off,0,0,0,,6,,,66,127
24193,note_off,0,0,0,,10,,,69,127
24193,note_off,0,0,0,,12,,,59,127
24195,note_on,2,0,0,,8,,,68,127
24195,note_on,0,0,0,,4,,,76,127
24302,note_off,107,0,0,,8,,,68,127
24304,note_on,2,0,0,,12,,,71,127
24411,note_off,107,0,0,,12,,,71,127
24411,note_off,0,0,0,,4,,,76,127
24413,note_on,2,0,0,,4,,,64,127
24413,note_on,0,0,0,,8,,,80,127
24520,note_off,107,0,0,,4,,,64,127
24522,note_on,2,0,0,,8,,,68,127
24629,note_off,107,0,0,,8,,,68,127
24629,note_off,0,0,0,,8,,,80,127
24631,note_on,2,0,0,,1,,,61,127
24631,note_on,0,0,0,,12,,,83,127
24738,note_off,107,0,0,,1,,,61,127
24740,note_on,2,0,0,,4,,,64,127
24847,note_off,107,0,0,,4,,,64,127
24847,note_off,0,0,0,,12,,,83,127
24849,note_on,2,0,0,,10,,,57,127
24849,note_on,0,0,0,,4,,,76,127
24956,note_off,107,0,0,,10,,,57,127
24958,note_on,2,0,0,,1,,,61,127
25065,note_off,107,0,0,,1,,,61,127
25065,note_off,0,0,0,,4,,,76,127
25067,note_on,2,0,0,,6,,,54,127
25067,note_on,0,0,0,,10,,,81,127
25174,note_off,107,0,0,,6,,,54,127
25176,note_on,2,0,0,,10,,,57,127
25283,note_off,107,0,0,,10,,,57,127
25283,note_off,0,0,0,,10,,,81,127
25285,note_on,2,0,0,,3,,,51,127
25285,note_on,0,0,0,,1,,,85,127
25392,note_off,107,0,0,,3,,,51,127
25394,note_on,2,0,0,,6,,,54,127
25501,note_off,107,0,0,,6,,,54,127
25501,note_off,0,0,0,,1,,,85,127
25503,note_on,2,0,0,,12,,,47,127
25503,note_on,0,0,0,,3,,,75,127
25610,note_off,107,0,0,,3,,,75,127
25612,note_on,2,0,0,,12,,,83,127
25719,note_off,107,0,0,,12,,,83,127
25719,note_off,0,0,0,,12,,,47,127
25721,note_on,2,0,0,,3,,,51,127
25721,note_on,0,0,0,,10,,,81,127
25828,note_off,107,0,0,,10,,,81,127
25830,note_on,2,0,0,,6,,,78,127
25937,note_off,107,0,0,,6,,,78,127
25937,note_off,0,0,0,,3,,,51,127
25939,note_on,2,0,0,,4,,,52,127
25939,note_on,0,0,0,,8,,,80,127
26046,note_off,107,0,0,,8,,,80,127
26048,note_on,2,0,0,,4,,,76,127
26155,note_off,107,0,0,,4,,,76,127
26155,note_off,0,0,0,,4,,,52,127
26157,note_on,2,0,0,,10,,,57,127
26157,note_on,0,0,0,,10,,,81,127
26264,note_off,107,0,0,,10,,,81,127
26266,note_on,2,0,0,,6,,,78,127
26373,note_off,107,0,0,,6,,,78,127
26373,note_off,0,0,0,,10,,,57,127
26375,note_on,2,0,0,,12,,,59,127
26375,note_on,0,0,0,,8,,,80,127
26482,note_off,107,0,0,,8,,,80,127
26484,note_on,2,0,0,,4,,,76,127
26591,note_off,107,0,0,,4,,,76,127
26591,note_off,0,0,0,,12,,,59,127
26593,note_on,2,0,0,,12,,,47,127
26593,note_on,0,0,0,,6,,,78,127
26700,note_off,107,0,0,,6,,,78,127
26702,note_on,2,0,0,,3,,,75,127
26809,note_off,107,0,0,,3,,,75,127
26809,note_off,0,0,0,,12,,,47,127
26816,note_on,7,0,0,,4,,,52,127
26816,note_on,0,0,0,,4,,,76,127
27033,note_off,217,0,0,,4,,,76,127
27033,note_off,0,0,0,,4,,,52,127
27049,note_on,16,0,0,,8,,,80,127
27049,note_on,0,0,0,,8,,,68,127
27156,note_off,107,0,0,,8,,,68,127
27158,note_on,2,0,0,,12,,,71,127
27265,note_off,107,0,0,,12,,,71,127
27265,note_off,0,0,0,,8,,,80,127
27267,note_on,2,0,0,,12,,,83,127
27267,note_on,0,0,0,,8,,,68,127
27374,note_off,107,0,0,,8,,,68,127
27376,note_on,2,0,0,,4,,,64,127
27483,note_off,107,0,0,,4,,,64,127
27483,note_off,0,0,0,,12,,,83,127
27485,note_on,2,0,0,,4,,,76,127
27485,note_on,0,0,0,,10,,,45,127
27702,note_off,217,0,0,,10,,,45,127
27702,note_off,0,0,0,,4,,,76,127
27704,note_on,2,0,0,,10,,,81,127
27704,note_on,0,0,0,,10,,,69,127
27811,note_off,107,0,0,,10,,,69,127
27813,note_on,2,0,0,,1,,,73,127
27920,note_off,107,0,0,,1,,,73,127
27920,note_off,0,0,0,,10,,,81,127
27922,note_on,2,0,0,,1,,,85,127
27922,note_on,0,0,0,,10,,,69,127
28029,note_off,107,0,0,,10,,,69,127
28031,note_on,2,0,0,,6,,,66,127
28138,note_off,107,0,0,,6,,,66,127
28138,note_off,0,0,0,,1,,,85,127
28140,note_on,2,0,0,,4,,,76,127
28140,note_on,0,0,0,,8,,,44,127
28357,note_off,217,0,0,,8,,,44,127
28357,note_off,0,0,0,,4,,,76,127
28359,note_on,2,0,0,,8,,,80,127
28359,note_on,0,0,0,,8,,,68,127
28466,note_off,107,0,0,,8,,,68,127
28468,note_on,2,0,0,,12,,,71,127
28575,note_off,107,0,0,,12,,,71,127
28575,note_off,0,0,0,,8,,,80,127
28577,note_on,2,0,0,,12,,,83,127
28577,note_on,0,0,0,,8,,,68,127
28684,note_off,107,0,0,,8,,,68,127
28686,note_on,2,0,0,,4,,,64,127
28793,note_off,107,0,0,,4,,,64,127
28793,note_off,0,0,0,,12,,,83,127
28795,note_on,2,0,0,,4,,,76,127
28795,note_on,0,0,0,,10,,,45,127
29012,note_off,217,0,0,,10,,,45,127
29012,note_off,0,0,0,,4,,,76,127
29014,note_on,2,0,0,,10,,,81,127
29014,note_on,0,0,0,,10,,,69,127
29121,note_off,107,0,0,,10,,,69,127
29123,note_on,2,0,0,,1,,,73,127
29230,note_off,107,0,0,,1,,,73,127
29230,note_off,0,0,0,,10,,,81,127
29232,note_on,2,0,0,,1,,,85,127
29232,note_on,0,0,0,,10,,,69,127
29339,note_off,107,0,0,,10,,,69,127
29341,note_on,2,0,0,,6,,,66,127
29448,note_off,107,0,0,,6,,,66,127
29448,note_off,0,0,0,,1,,,85,127
29450,note_on,2,0,0,,4,,,76,127
29450,note_on,0,0,0,,8,,,44,127
29667,note_off,217,0,0,,8,,,44,127
29667,note_off,0,0,0,,4,,,76,127
29669,note_on,2,0,0,,8,,,80,127
29669,note_on,0,0,0,,8,,,68,127
29776,note_off,107,0,0,,8,,,68,127
29778,note_on,2,0,0,,12,,,71,127
29885,note_off,107,0,0,,12,,,71,127
29885,note_off,0,0,0,,8,,,80,127
29887,note_on,2,0,0,,12,,,83,127
29887,note_on,0,0,0,,8,,,68,127
29994,note_off,107,0,0,,8,,,68,127
29996,note_on,2,0,0,,4,,,64,127
30103,note_off,107,0,0,,4,,,64,127
30105,note_on,2,0,0,,10,,,45,127
30212,note_off,107,0,0,,12,,,83,127
30214,note_on,2,0,0,,10,,,81,127
30321,note_off,107,0,0,,10,,,81,127
30321,note_off,0,0,0,,10,,,45,127
30323,note_on,2,0,0,,8,,,80,127
30323,note_on,0,0,0,,12,,,47,127
30430,note_off,107,0,0,,8,,,80,127
30432,note_on,2,0,0,,6,,,78,127
30539,note_off,107,0,0,,6,,,78,127
30539,note_off,0,0,0,,12,,,47,127
30541,note_on,2,0,0,,4,,,76,127
30541,note_on,0,0,0,,12,,,35,127
30648,note_off,107,0,0,,4,,,76,127
30650,note_on,2,0,0,,3,,,75,127
30757,note_off,107,0,0,,3,,,75,127
30757,note_off,0,0,0,,12,,,35,127
30759,note_on,2,0,0,,4,,,76,127
30759,note_on,0,0,0,,4,,,40,127
30976,note_off,217,0,0,,4,,,40,127
30976,note_off,0,0,0,,4,,,76,127
30978,note_on,2,0,0,,8,,,80,127
30978,note_on,0,0,0,,8,,,68,127
31085,note_off,107,0,0,,8,,,68,127
31087,note_on,2,0,0,,12,,,71,127
31194,note_off,107,0,0,,12,,,71,127
31194,note_off,0,0,0,,8,,,80,127
31196,note_on,2,0,0,,12,,,83,127
31196,note_on,0,0,0,,8,,,68,127
31303,note_off,107,0,0,,8,,,68,127
31305,note_on,2,0,0,,4,,,64,127
31412,note_off,107,0,0,,4,,,64,127
31412,note_off,0,0,0,,12,,,83,127
31414,note_on,2,0,0,,4,,,76,127
31414,note_on,0,0,0,,10,,,45,127
31631,note_off,217,0,0,,10,,,45,127
31631,note_off,0,0,0,,4,,,76,127
31633,note_on,2,0,0,,10,,,81,127
31633,note_on,0,0,0,,10,,,69,127
31740,note_off,107,0,0,,10,,,69,127
31742,note_on,2,0,0,,1,,,73,127
31849,note_off,107,0,0,,1,,,73,127
31849,note_off,0,0,0,,10,,,81,127
31851,note_on,2,0,0,,1,,,85,127
31851,note_on,0,0,0,,10,,,69,127
31958,note_off,107,0,0,,10,,,69,127
31960,note_on,2,0,0,,6,,,66,127
32067,note_off,107,0,0,,6,,,66,127
32067,note_off,0,0,0,,1,,,85,127
32069,note_on,2,0,0,,4,,,76,127
32069,note_on,0,0,0,,8,,,44,127
32286,note_off,217,0,0,,8,,,44,127
32286,note_off,0,0,0,,4,,,76,127
32288,note_on,2,0,0,,8,,,80,127
32288,note_on,0,0,0,,8,,,68,127
32395,note_off,107,0,0,,8,,,68,127
32397,note_on,2,0,0,,12,,,71,127
32504,note_off,107,0,0,,12,,,71,127
32504,note_off,0,0,0,,8,,,80,127
32506,note_on,2,0,0,,12,,,83,127
32506,note_on,0,0,0,,8,,,68,127
32613,note_off,107,0,0,,8,,,68,127
32615,note_on,2,0,0,,4,,,64,127
32722,note_off,107,0,0,,4,,,64,127
32722,note_off,0,0,0,,12,,,83,127
32724,note_on,2,0,0,,4,,,76,127
32724,note_on,0,0,0,,10,,,45,127
32941,note_off,217,0,0,,10,,,45,127
32941,note_off,0,0,0,,4,,,76,127
32943,note_on,2,0,0,,10,,,81,127
32943,note_on,0,0,0,,10,,,69,127
33050,note_off,107,0,0,,10,,,69,127
33052,note_on,2,0,0,,1,,,73,127
33159,note_off,107,0,0,,1,,,73,127
33159,note_off,0,0,0,,10,,,81,127
33161,note_on,2,0,0,,1,,,85,127
33161,note_on,0,0,0,,10,,,69,127
33268,note_off,107,0,0,,10,,,69,127
33270,note_on,2,0,0,,6,,,66,127
33377,note_off,107,0,0,,6,,,66,127
33377,note_off,0,0,0,,1,,,85,127
33379,note_on,2,0,0,,4,,,76,127
33379,note_on,0,0,0,,8,,,44,127
33596,note_off,217,0,0,,8,,,44,127
33596,note_off,0,0,0,,4,,,76,127
33598,note_on,2,0,0,,8,,,80,127
33598,note_on,0,0,0,,8,,,68,127
33705,note_off,107,0,0,,8,,,68,127
33707,note_on,2,0,0,,12,,,71,127
33814,note_off,107,0,0,,12,,,71,127
33814,note_off,0,0,0,,8,,,80,127
33816,note_on,2,0,0,,12,,,83,127
33816,note_on,0,0,0,,8,,,68,127
33923,note_off,107,0,0,,8,,,68,127
33925,note_on,2,0,0,,4,,,64,127
34032,note_off,107,0,0,,4,,,64,127
34034,note_on,2,0,0,,10,,,45,127
34141,note_off,107,0,0,,12,,,83,127
34143,note_on,2,0,0,,10,,,81,127
34250,note_off,107,0,0,,10,,,81,127
34250,note_off,0,0,0,,10,,,45,127
34252,note_on,2,0,0,,8,,,80,127
34252,note_on,0,0,0,,12,,,47,127
34359,note_off,107,0,0,,8,,,80,127
34361,note_on,2,0,0,,6,,,78,127
34468,note_off,107,0,0,,6,,,78,127
34470,note_on,2,0,0,,4,,,76,127
34470,note_on,0,0,0,,12,,,35,127
34577,note_off,107,0,0,,4,,,76,127
34584,note_on,7,0,0,,3,,,75,127
34675,note_off,91,0,0,,3,,,75,127
34686,note_off,11,0,0,,12,,,35,127
34707,note_off,21,0,0,,12,,,47,127
34707,note_on,0,0,0,,4,,,52,127
34707,note_on,0,0,0,,11,,,82,127
34814,note_off,107,0,0,,11,,,82,127
34816,note_on,2,0,0,,1,,,85,127
34923,note_off,107,0,0,,1,,,85,127
34923,note_off,0,0,0,,4,,,52,127
34925,note_on,2,0,0,,6,,,54,127
34925,note_on,0,0,0,,12,,,83,127
35142,note_off,217,0,0,,6,,,54,127
35144,note_on,2,0,0,,8,,,56,127
35361,note_off,217,0,0,,8,,,56,127
35363,note_on,2,0,0,,10,,,57,127
35470,note_off,107,0,0,,12,,,83,127
35472,note_on,2,0,0,,10,,,81,127
35579,note_off,107,0,0,,10,,,81,127
35579,note_off,0,0,0,,10,,,57,127
35581,note_on,2,0,0,,12,,,59,127
35581,note_on,0,0,0,,8,,,80,127
35688,note_off,107,0,0,,8,,,80,127
35690,note_on,2,0,0,,6,,,78,127
35797,note_off,107,0,0,,6,,,78,127
35799,note_on,2,0,0,,12,,,47,127
35799,note_on,0,0,0,,4,,,76,127
35906,note_off,107,0,0,,4,,,76,127
35908,note_on,2,0,0,,3,,,75,127
36013,note_off,105,0,0,,12,,,59,127
36015,note_off,2,0,0,,3,,,75,127
36015,note_off,0,0,0,,12,,,47,127
36017,note_on,2,0,0,,4,,,52,127
36017,note_on,0,0,0,,3,,,75,127
36124,note_off,107,0,0,,3,,,75,127
36126,note_on,2,0,0,,6,,,78,127
36233,note_off,107,0,0,,6,,,78,127
36233,note_off,0,0,0,,4,,,52,127
36235,note_on,2,0,0,,6,,,54,127
36235,note_on,0,0,0,,4,,,76,127
36452,note_off,217,0,0,,6,,,54,127
36454,note_on,2,0,0,,8,,,56,127
36671,note_off,217,0,0,,8,,,56,127
36673,note_on,2,0,0,,10,,,57,127
36780,note_off,107,0,0,,4,,,76,127
36782,note_on,2,0,0,,1,,,73,127
36889,note_off,107,0,0,,1,,,73,127
36889,note_off,0,0,0,,10,,,57,127
36891,note_on,2,0,0,,12,,,59,127
36891,note_on,0,0,0,,12,,,71,127
36998,note_off,107,0,0,,12,,,71,127
37000,note_on,2,0,0,,10,,,69,127
37107,note_off,107,0,0,,10,,,69,127
37109,note_on,2,0,0,,12,,,47,127
37109,note_on,0,0,0,,8,,,68,127
37216,note_off,107,0,0,,8,,,68,127
37218,note_on,2,0,0,,6,,,66,127
37323,note_off,105,0,0,,12,,,59,127
37325,note_off,2,0,0,,12,,,47,127
37336,note_on,11,0,0,,4,,,52,127
37336,note_on,0,0,0,,8,,,80,127
37347,note_off,11,0,0,,6,,,66,127
37443,note_off,96,0,0,,8,,,80,127
37445,note_on,2,0,0,,1,,,85,127
37552,note_off,107,0,0,,1,,,85,127
37552,note_off,0,0,0,,4,,,52,127
37554,note_on,2,0,0,,6,,,54,127
37554,note_on,0,0,0,,12,,,83,127
37771,note_off,217,0,0,,6,,,54,127
37773,note_on,2,0,0,,8,,,56,127
37990,note_off,217,0,0,,8,,,56,127
37992,note_on,2,0,0,,10,,,57,127
38099,note_off,107,0,0,,12,,,83,127
38101,note_on,2,0,0,,10,,,81,127
38208,note_off,107,0,0,,10,,,81,127
38208,note_off,0,0,0,,10,,,57,127
38210,note_on,2,0,0,,12,,,59,127
38210,note_on,0,0,0,,8,,,80,127
38317,note_off,107,0,0,,8,,,80,127
38319,note_on,2,0,0,,6,,,78,127
38426,note_off,107,0,0,,6,,,78,127
38428,note_on,2,0,0,,12,,,47,127
38428,note_on,0,0,0,,4,,,76,127
38535,note_off,107,0,0,,4,,,76,127
38537,note_on,2,0,0,,3,,,75,127
38642,note_off,105,0,0,,12,,,59,127
38644,note_off,2,0,0,,12,,,47,127
38655,note_on,11,0,0,,4,,,52,127
38655,note_on,0,0,0,,8,,,80,127
38657,note_off,2,0,0,,3,,,75,127
38762,note_off,105,0,0,,8,,,80,127
38764,note_on,2,0,0,,12,,,83,127
38871,note_off,107,0,0,,12,,,83,127
38871,note_off,0,0,0,,4,,,52,127
38873,note_on,2,0,0,,6,,,54,127
38873,note_on,0,0,0,,4,,,76,127
38980,note_off,107,0,0,,4,,,76,127
38982,note_on,2,0,0,,8,,,80,127
39089,note_off,107,0,0,,8,,,80,127
39089,note_off,0,0,0,,6,,,54,127
39091,note_on,2,0,0,,8,,,56,127
39091,note_on,0,0,0,,12,,,71,127
39198,note_off,107,0,0,,12,,,71,127
39200,note_on,2,0,0,,4,,,76,127
39307,note_off,107,0,0,,4,,,76,127
39307,note_off,0,0,0,,8,,,56,127
39309,note_on,2,0,0,,10,,,57,127
39309,note_on,0,0,0,,1,,,73,127
39416,note_off,107,0,0,,1,,,73,127
39418,note_on,2,0,0,,4,,,76,127
39525,note_off,107,0,0,,4,,,76,127
39525,note_off,0,0,0,,10,,,57,127
39527,note_on,2,0,0,,12,,,59,127
39527,note_on,0,0,0,,8,,,68,127
39580,note_off,53,0,0,,8,,,68,127
39582,note_on,2,0,0,,6,,,66,127
39635,note_off,53,0,0,,6,,,66,127
39637,note_on,2,0,0,,8,,,68,127
39690,note_off,53,0,0,,8,,,68,127
39692,note_on,2,0,0,,6,,,66,127
39747,note_on,55,0,0,,12,,,47,127
39962,note_off,215,0,0,,12,,,59,127
39964,note_off,2,0,0,,12,,,47,127
39964,note_off,0,0,0,,6,,,66,127
39966,note_on,2,0,0,,4,,,52,127
39966,note_on,0,0,0,,8,,,80,127
40073,note_off,107,0,0,,8,,,80,127
40075,note_on,2,0,0,,12,,,83,127
40182,note_off,107,0,0,,12,,,83,127
40182,note_off,0,0,0,,4,,,52,127
40184,note_on,2,0,0,,6,,,54,127
40184,note_on,0,0,0,,4,,,76,127
40291,note_off,107,0,0,,4,,,76,127
40293,note_on,2,0,0,,8,,,80,127
40400,note_off,107,0,0,,8,,,80,127
40400,note_off,0,0,0,,6,,,54,127
40402,note_on,2,0,0,,8,,,56,127
40402,note_on,0,0,0,,12,,,71,127
40509,note_off,107,0,0,,12,,,71,127
40511,note_on,2,0,0,,4,,,76,127
40618,note_off,107,0,0,,4,,,76,127
40618,note_off,0,0,0,,8,,,56,127
40620,note_on,2,0,0,,10,,,57,127
40620,note_on,0,0,0,,1,,,73,127
40727,note_off,107,0,0,,1,,,73,127
40729,note_on,2,0,0,,4,,,76,127
40836,note_off,107,0,0,,4,,,76,127
40836,note_off,0,0,0,,10,,,57,127
40838,note_on,2,0,0,,12,,,59,127
40838,note_on,0,0,0,,8,,,68,127
40909,note_off,71,0,0,,8,,,68,127
40911,note_on,2,0,0,,6,,,66,127
40982,note_off,71,0,0,,6,,,66,127
40984,note_on,2,0,0,,8,,,68,127
41055,note_off,71,0,0,,8,,,68,127
41057,note_on,2,0,0,,12,,,47,127
41057,note_on,0,0,0,,6,,,66,127
41128,note_off,71,0,0,,6,,,66,127
41130,note_on,2,0,0,,4,,,64,127
41201,note_off,71,0,0,,4,,,64,127
41203,note_on,2,0,0,,6,,,66,127
41272,note_off,69,0,0,,12,,,59,127
41274,note_off,2,0,0,,6,,,66,127
41274,note_off,0,0,0,,12,,,47,127
41276,note_on,2,0,0,,4,,,52,127
41276,note_on,0,0,0,,4,,,64,127
41493,note_off,217,0,0,,4,,,64,127
41500,note_on,7,0,0,,4,,,64,127
41733,note_off,233,0,0,,4,,,64,127
41733,note_on,0,0,0,,12,,,71,127
41733,note_on,0,0,0,,2,,,62,127
41933,note_off,200,0,0,,4,,,52,127
41950,note_off,17,0,0,,2,,,62,127
41950,note_off,0,0,0,,12,,,71,127
41952,note_on,2,0,0,,4,,,76,127
41952,note_on,0,0,0,,0,,,60,127
41952,note_on,0,0,0,,4,,,52,127
42169,note_off,217,0,0,,0,,,60,127
42169,note_off,0,0,0,,4,,,76,127
42171,note_on,2,0,0,,2,,,74,127
42171,note_on,0,0,0,,12,,,59,127
42388,note_off,217,0,0,,12,,,59,127
42388,note_off,0,0,0,,2,,,74,127
42390,note_on,2,0,0,,0,,,72,127
42390,note_on,0,0,0,,10,,,57,127
42607,note_off,217,0,0,,10,,,57,127
42607,note_off,0,0,0,,0,,,72,127
42608,note_off,1,0,0,,4,,,52,127
42609,note_on,1,0,0,,0,,,72,127
42609,note_on,0,0,0,,2,,,74,127
42609,note_on,0,0,0,,5,,,53,127
42826,note_off,217,0,0,,2,,,74,127
42826,note_off,0,0,0,,0,,,72,127
42828,note_on,2,0,0,,12,,,71,127
42828,note_on,0,0,0,,5,,,65,127
43045,note_off,217,0,0,,5,,,65,127
43045,note_off,0,0,0,,12,,,71,127
43047,note_on,2,0,0,,5,,,77,127
43047,note_on,0,0,0,,2,,,62,127
43264,note_off,217,0,0,,2,,,62,127
43264,note_off,0,0,0,,5,,,77,127
43265,note_off,1,0,0,,5,,,53,127
43266,note_on,1,0,0,,10,,,69,127
43266,note_on,0,0,0,,12,,,71,127
43266,note_on,0,0,0,,0,,,60,127
43266,note_on,0,0,0,,4,,,52,127
43483,note_off,217,0,0,,0,,,60,127
43485,note_on,2,0,0,,12,,,59,127
43592,note_off,107,0,0,,12,,,59,127
43594,note_on,2,0,0,,10,,,57,127
43701,note_off,107,0,0,,10,,,57,127
43701,note_off,0,0,0,,12,,,71,127
43701,note_off,0,0,0,,10,,,69,127
43703,note_on,2,0,0,,8,,,68,127
43703,note_on,0,0,0,,12,,,59,127
43920,note_off,217,0,0,,12,,,59,127
43921,note_off,1,0,0,,4,,,52,127
43922,note_on,1,0,0,,4,,,52,127
44032,note_off,110,0,0,,8,,,68,127
44142,note_on,110,0,0,,4,,,64,127
44359,note_off,217,0,0,,4,,,64,127
44361,note_on,2,0,0,,12,,,71,127
44361,note_on,0,0,0,,2,,,62,127
44578,note_off,217,0,0,,2,,,62,127
44578,note_off,0,0,0,,12,,,71,127
44579,note_off,1,0,0,,4,,,52,127
44580,note_on,1,0,0,,4,,,76,127
44580,note_on,0,0,0,,4,,,52,127
44580,note_on,0,0,0,,0,,,60,127
44797,note_off,217,0,0,,0,,,60,127
44797,note_off,0,0,0,,4,,,76,127
44799,note_on,2,0,0,,2,,,74,127
44799,note_on,0,0,0,,12,,,59,127
45016,note_off,217,0,0,,12,,,59,127
45016,note_off,0,0,0,,2,,,74,127
45018,note_on,2,0,0,,0,,,72,127
45018,note_on,0,0,0,,10,,,57,127
45235,note_off,217,0,0,,10,,,57,127
45235,note_off,0,0,0,,0,,,72,127
45236,note_off,1,0,0,,4,,,52,127
45237,note_on,1,0,0,,2,,,74,127
45237,note_on,0,0,0,,0,,,72,127
45237,note_on,0,0,0,,5,,,53,127
45454,note_off,217,0,0,,0,,,72,127
45454,note_off,0,0,0,,2,,,74,127
45456,note_on,2,0,0,,12,,,71,127
45456,note_on,0,0,0,,5,,,65,127
45673,note_off,217,0,0,,5,,,65,127
45673,note_off,0,0,0,,12,,,71,127
45675,note_on,2,0,0,,5,,,77,127
45675,note_on,0,0,0,,2,,,62,127
45892,note_off,217,0,0,,2,,,62,127
45892,note_off,0,0,0,,5,,,77,127
45893,note_off,1,0,0,,5,,,53,127
45894,note_on,1,0,0,,10,,,69,127
45894,note_on,0,0,0,,12,,,71,127
45894,note_on,0,0,0,,0,,,60,127
45894,note_on,0,0,0,,4,,,52,127
46111,note_off,217,0,0,,0,,,60,127
46113,note_on,2,0,0,,12,,,59,127
46220,note_off,107,0,0,,12,,,59,127
46222,note_on,2,0,0,,10,,,57,127
46329,note_off,107,0,0,,10,,,57,127
46329,note_off,0,0,0,,12,,,71,127
46329,note_off,0,0,0,,10,,,69,127
46331,note_on,2,0,0,,12,,,59,127
46336,note_on,5,0,0,,8,,,68,127
46549,note_off,213,0,0,,12,,,59,127
46554,note_off,5,0,0,,8,,,68,127
46561,note_off,7,0,0,,4,,,52,127
46570,note_on,9,0,0,,4,,,52,127
46570,note_on,0,0,0,,4,,,64,127
46570,note_on,0,0,0,,4,,,76,127
46787,note_off,217,0,0,,4,,,52,127
46789,note_on,2,0,0,,6,,,54,127
46789,note_on,0,0,0,,11,,,70,127
47006,note_off,217,0,0,,11,,,70,127
47006,note_off,0,0,0,,6,,,54,127
47008,note_on,2,0,0,,7,,,55,127
47008,note_on,0,0,0,,12,,,71,127
47225,note_off,217,0,0,,12,,,71,127
47225,note_off,0,0,0,,7,,,55,127
47226,note_off,1,0,0,,4,,,64,127
47227,note_on,1,0,0,,6,,,54,127
47227,note_on,0,0,0,,11,,,70,127
47446,note_on,219,0,0,,6,,,66,127
47663,note_off,217,0,0,,6,,,66,127
47663,note_off,0,0,0,,11,,,70,127
47665,note_off,2,0,0,,4,,,76,127
47665,note_on,0,0,0,,4,,,64,127
47665,note_on,0,0,0,,1,,,73,127
47882,note_off,217,0,0,,1,,,73,127
47882,note_off,0,0,0,,4,,,64,127
47883,note_off,1,0,0,,6,,,54,127
47884,note_on,1,0,0,,2,,,62,127
47884,note_on,0,0,0,,6,,,54,127
47884,note_on,0,0,0,,6,,,78,127
48101,note_off,217,0,0,,6,,,78,127
48101,note_off,0,0,0,,2,,,62,127
48103,note_on,2,0,0,,1,,,61,127
48103,note_on,0,0,0,,4,,,76,127
48320,note_off,217,0,0,,4,,,76,127
48320,note_off,0,0,0,,1,,,61,127
48322,note_on,2,0,0,,12,,,59,127
48322,note_on,0,0,0,,2,,,74,127
48539,note_off,217,0,0,,2,,,74,127
48539,note_off,0,0,0,,12,,,59,127
48540,note_off,1,0,0,,6,,,54,127
48541,note_on,1,0,0,,7,,,55,127
48541,note_on,0,0,0,,4,,,76,127
48541,note_on,0,0,0,,2,,,74,127
48758,note_off,217,0,0,,2,,,74,127
48758,note_off,0,0,0,,4,,,76,127
48760,note_on,2,0,0,,7,,,67,127
48760,note_on,0,0,0,,1,,,73,127
48977,note_off,217,0,0,,1,,,73,127
48977,note_off,0,0,0,,7,,,67,127
48979,note_on,2,0,0,,4,,,64,127
48979,note_on,0,0,0,,7,,,79,127
49196,note_off,217,0,0,,7,,,79,127
49196,note_off,0,0,0,,4,,,64,127
49197,note_off,1,0,0,,7,,,55,127
49198,note_on,1,0,0,,6,,,54,127
49198,note_on,0,0,0,,2,,,62,127
49198,note_on,0,0,0,,12,,,71,127
49198,note_on,0,0,0,,1,,,73,127
49415,note_off,217,0,0,,2,,,62,127
49417,note_on,2,0,0,,1,,,61,127
49524,note_off,107,0,0,,1,,,61,127
49526,note_on,2,0,0,,12,,,59,127
49633,note_off,107,0,0,,12,,,59,127
49633,note_off,0,0,0,,1,,,73,127
49633,note_off,0,0,0,,12,,,71,127
49635,note_on,2,0,0,,1,,,61,127
49635,note_on,0,0,0,,11,,,70,127
49852,note_off,217,0,0,,1,,,61,127
49853,note_off,1,0,0,,6,,,54,127
49854,note_on,1,0,0,,6,,,54,127
49964,note_off,110,0,0,,11,,,70,127
50074,note_on,110,0,0,,6,,,66,127
50291,note_off,217,0,0,,6,,,66,127
50293,note_on,2,0,0,,4,,,64,127
50293,note_on,0,0,0,,1,,,73,127
50510,note_off,217,0,0,,1,,,73,127
50510,note_off,0,0,0,,4,,,64,127
50511,note_off,1,0,0,,6,,,54,127
50512,note_on,1,0,0,,6,,,54,127
50512,note_on,0,0,0,,2,,,62,127
50512,note_on,0,0,0,,6,,,78,127
50729,note_off,217,0,0,,6,,,78,127
50729,note_off,0,0,0,,2,,,62,127
50731,note_on,2,0,0,,1,,,61,127
50731,note_on,0,0,0,,4,,,76,127
50948,note_off,217,0,0,,4,,,76,127
50948,note_off,0,0,0,,1,,,61,127
50950,note_on,2,0,0,,12,,,59,127
50950,note_on,0,0,0,,2,,,74,127
51167,note_off,217,0,0,,2,,,74,127
51167,note_off,0,0,0,,12,,,59,127
51168,note_off,1,0,0,,6,,,54,127
51169,note_on,1,0,0,,7,,,55,127
51169,note_on,0,0,0,,4,,,76,127
51169,note_on,0,0,0,,2,,,74,127
51386,note_off,217,0,0,,2,,,74,127
51386,note_off,0,0,0,,4,,,76,127
51388,note_on,2,0,0,,7,,,67,127
51388,note_on,0,0,0,,1,,,73,127
51605,note_off,217,0,0,,1,,,73,127
51605,note_off,0,0,0,,7,,,67,127
51607,note_on,2,0,0,,4,,,64,127
51607,note_on,0,0,0,,7,,,79,127
51824,note_off,217,0,0,,7,,,79,127
51824,note_off,0,0,0,,4,,,64,127
51825,note_off,1,0,0,,7,,,55,127
51826,note_on,1,0,0,,2,,,62,127
51826,note_on,0,0,0,,6,,,54,127
51826,note_on,0,0,0,,1,,,73,127
51826,note_on,0,0,0,,12,,,71,127
52043,note_off,217,0,0,,12,,,71,127
52043,note_off,0,0,0,,1,,,73,127
52043,note_off,0,0,0,,2,,,62,127
52045,note_on,2,0,0,,1,,,61,127
52045,note_on,0,0,0,,11,,,70,127
52260,note_off,215,0,0,,6,,,54,127
52265,note_on,5,0,0,,8,,,56,127
52480,note_off,215,0,0,,1,,,61,127
52482,note_off,2,0,0,,8,,,56,127
52482,note_off,0,0,0,,11,,,70,127
52484,note_on,2,0,0,,11,,,58,127
52484,note_on,0,0,0,,6,,,66,127
52591,note_off,107,0,0,,6,,,66,127
52593,note_on,2,0,0,,1,,,73,127
52700,note_off,107,0,0,,1,,,73,127
52700,note_off,0,0,0,,11,,,58,127
52702,note_on,2,0,0,,6,,,54,127
52702,note_on,0,0,0,,11,,,70,127
52809,note_off,107,0,0,,11,,,70,127
52811,note_on,2,0,0,,1,,,73,127
52918,note_off,107,0,0,,1,,,73,127
52918,note_off,0,0,0,,6,,,54,127
52920,note_on,2,0,0,,11,,,58,127
52920,note_on,0,0,0,,6,,,66,127
53027,note_off,107,0,0,,6,,,66,127
53029,note_on,2,0,0,,4,,,76,127
53136,note_off,107,0,0,,4,,,76,127
53136,note_off,0,0,0,,11,,,58,127
53138,note_on,2,0,0,,12,,,59,127
53138,note_on,0,0,0,,3,,,75,127
53245,note_off,107,0,0,,12,,,59,127
53247,note_on,2,0,0,,6,,,66,127
53354,note_off,107,0,0,,6,,,66,127
53354,note_off,0,0,0,,3,,,75,127
53356,note_on,2,0,0,,3,,,63,127
53356,note_on,0,0,0,,6,,,78,127
53463,note_off,107,0,0,,3,,,63,127
53465,note_on,2,0,0,,6,,,66,127
53572,note_off,107,0,0,,6,,,66,127
53572,note_off,0,0,0,,6,,,78,127
53574,note_on,2,0,0,,12,,,59,127
53574,note_on,0,0,0,,3,,,75,127
53681,note_off,107,0,0,,12,,,59,127
53683,note_on,2,0,0,,3,,,63,127
53790,note_off,107,0,0,,3,,,63,127
53790,note_off,0,0,0,,3,,,75,127
53792,note_on,2,0,0,,8,,,56,127
53792,note_on,0,0,0,,12,,,71,127
53899,note_off,107,0,0,,8,,,56,127
53901,note_on,2,0,0,,12,,,59,127
54008,note_off,107,0,0,,12,,,59,127
54008,note_off,0,0,0,,12,,,71,127
54010,note_on,2,0,0,,4,,,52,127
54010,note_on,0,0,0,,8,,,80,127
54117,note_off,107,0,0,,4,,,52,127
54119,note_on,2,0,0,,8,,,56,127
54226,note_off,107,0,0,,8,,,56,127
54226,note_off,0,0,0,,8,,,80,127
54228,note_on,2,0,0,,1,,,49,127
54228,note_on,0,0,0,,11,,,82,127
54335,note_off,107,0,0,,1,,,49,127
54337,note_on,2,0,0,,4,,,52,127
54444,note_off,107,0,0,,4,,,52,127
54444,note_off,0,0,0,,11,,,82,127
54446,note_on,2,0,0,,3,,,51,127
54446,note_on,0,0,0,,12,,,83,127
54553,note_off,107,0,0,,3,,,51,127
54555,note_on,2,0,0,,6,,,54,127
54662,note_off,107,0,0,,6,,,54,127
54662,note_off,0,0,0,,12,,,83,127
54664,note_on,2,0,0,,1,,,49,127
54664,note_on,0,0,0,,4,,,76,127
54771,note_off,107,0,0,,1,,,49,127
54773,note_on,2,0,0,,4,,,52,127
54880,note_off,107,0,0,,4,,,52,127
54880,note_off,0,0,0,,4,,,76,127
54882,note_on,2,0,0,,12,,,47,127
54882,note_on,0,0,0,,3,,,75,127
54989,note_off,107,0,0,,12,,,47,127
54991,note_on,2,0,0,,3,,,51,127
55098,note_off,107,0,0,,3,,,51,127
55098,note_off,0,0,0,,3,,,75,127
55100,note_on,2,0,0,,4,,,52,127
55100,note_on,0,0,0,,8,,,80,127
55207,note_off,107,0,0,,4,,,52,127
55209,note_on,2,0,0,,8,,,56,127
55316,note_off,107,0,0,,8,,,56,127
55316,note_off,0,0,0,,8,,,80,127
55318,note_on,2,0,0,,6,,,54,127
55318,note_on,0,0,0,,6,,,78,127
55425,note_off,107,0,0,,6,,,54,127
55427,note_on,2,0,0,,11,,,58,127
55534,note_off,107,0,0,,11,,,58,127
55534,note_off,0,0,0,,6,,,78,127
55536,note_on,2,0,0,,8,,,56,127
55536,note_on,0,0,0,,5,,,77,127
55643,note_off,107,0,0,,8,,,56,127
55645,note_on,2,0,0,,12,,,59,127
55752,note_off,107,0,0,,12,,,59,127
55752,note_off,0,0,0,,5,,,77,127
55754,note_on,2,0,0,,6,,,54,127
55754,note_on,0,0,0,,6,,,78,127
55981,note_on,227,0,0,,6,,,66,127
56198,note_off,217,0,0,,6,,,66,127
56211,note_on,13,0,0,,6,,,66,127
56211,note_on,0,0,0,,4,,,64,127
56411,note_off,200,0,0,,6,,,78,127
56411,note_off,0,0,0,,6,,,54,127
56428,note_off,17,0,0,,4,,,64,127
56428,note_off,0,0,0,,6,,,66,127
56430,note_on,2,0,0,,6,,,78,127
56430,note_on,0,0,0,,2,,,62,127
56430,note_on,0,0,0,,6,,,54,127
56647,note_off,217,0,0,,2,,,62,127
56647,note_off,0,0,0,,6,,,78,127
56649,note_on,2,0,0,,4,,,76,127
56649,note_on,0,0,0,,1,,,61,127
56866,note_off,217,0,0,,1,,,61,127
56866,note_off,0,0,0,,4,,,76,127
56868,note_on,2,0,0,,2,,,74,127
56868,note_on,0,0,0,,12,,,59,127
57085,note_off,217,0,0,,12,,,59,127
57085,note_off,0,0,0,,2,,,74,127
57086,note_off,1,0,0,,6,,,54,127
57087,note_on,1,0,0,,2,,,74,127
57087,note_on,0,0,0,,4,,,76,127
57087,note_on,0,0,0,,7,,,55,127
57304,note_off,217,0,0,,4,,,76,127
57304,note_off,0,0,0,,2,,,74,127
57306,note_on,2,0,0,,1,,,73,127
57306,note_on,0,0,0,,7,,,67,127
57523,note_off,217,0,0,,7,,,67,127
57523,note_off,0,0,0,,1,,,73,127
57525,note_on,2,0,0,,12,,,71,127
57525,note_on,0,0,0,,6,,,66,127
57742,note_off,217,0,0,,6,,,66,127
57742,note_off,0,0,0,,12,,,71,127
57743,note_off,1,0,0,,7,,,55,127
57744,note_on,1,0,0,,7,,,67,127
57744,note_on,0,0,0,,7,,,79,127
57744,note_on,0,0,0,,7,,,55,127
57744,note_on,0,0,0,,4,,,64,127
57961,note_off,217,0,0,,4,,,64,127
57961,note_off,0,0,0,,7,,,79,127
57963,note_on,2,0,0,,6,,,78,127
57963,note_on,0,0,0,,2,,,62,127
58180,note_off,217,0,0,,2,,,62,127
58180,note_off,0,0,0,,6,,,78,127
58182,note_on,2,0,0,,4,,,76,127
58182,note_on,0,0,0,,1,,,61,127
58399,note_off,217,0,0,,1,,,61,127
58399,note_off,0,0,0,,4,,,76,127
58400,note_off,1,0,0,,7,,,55,127
58400,note_off,0,0,0,,7,,,67,127
58401,note_on,1,0,0,,4,,,76,127
58401,note_on,0,0,0,,6,,,78,127
58401,note_on,0,0,0,,10,,,57,127
58618,note_off,217,0,0,,6,,,78,127
58618,note_off,0,0,0,,4,,,76,127
58620,note_on,2,0,0,,2,,,74,127
58620,note_on,0,0,0,,10,,,69,127
58837,note_off,217,0,0,,10,,,69,127
58837,note_off,0,0,0,,2,,,74,127
58839,note_on,2,0,0,,1,,,73,127
58839,note_on,0,0,0,,7,,,67,127
59056,note_off,217,0,0,,7,,,67,127
59056,note_off,0,0,0,,1,,,73,127
59057,note_off,1,0,0,,10,,,57,127
59058,note_on,1,0,0,,10,,,69,127
59058,note_on,0,0,0,,10,,,81,127
59058,note_on,0,0,0,,10,,,57,127
59058,note_on,0,0,0,,6,,,66,127
59275,note_off,217,0,0,,6,,,66,127
59275,note_off,0,0,0,,10,,,81,127
59277,note_on,2,0,0,,7,,,79,127
59277,note_on,0,0,0,,4,,,64,127
59494,note_off,217,0,0,,4,,,64,127
59494,note_off,0,0,0,,7,,,79,127
59496,note_on,2,0,0,,6,,,78,127
59496,note_on,0,0,0,,3,,,63,127
59713,note_off,217,0,0,,3,,,63,127
59713,note_off,0,0,0,,6,,,78,127
59714,note_off,1,0,0,,10,,,57,127
59714,note_off,0,0,0,,10,,,69,127
59715,note_on,1,0,0,,7,,,79,127
59715,note_on,0,0,0,,6,,,78,127
59715,note_on,0,0,0,,12,,,59,127
59932,note_off,217,0,0,,6,,,78,127
59932,note_off,0,0,0,,7,,,79,127
59934,note_on,2,0,0,,4,,,76,127
59934,note_on,0,0,0,,12,,,71,127
60151,note_off,217,0,0,,12,,,71,127
60151,note_off,0,0,0,,4,,,76,127
60153,note_on,2,0,0,,3,,,75,127
60153,note_on,0,0,0,,10,,,69,127
60370,note_off,217,0,0,,10,,,69,127
60370,note_off,0,0,0,,3,,,75,127
60371,note_off,1,0,0,,12,,,59,127
60372,note_on,1,0,0,,12,,,71,127
60372,note_on,0,0,0,,12,,,83,127
60372,note_on,0,0,0,,12,,,59,127
60372,note_on,0,0,0,,8,,,68,127
60589,note_off,217,0,0,,8,,,68,127
60589,note_off,0,0,0,,12,,,83,127
60591,note_on,2,0,0,,10,,,81,127
60591,note_on,0,0,0,,6,,,66,127
60808,note_off,217,0,0,,6,,,66,127
60808,note_off,0,0,0,,10,,,81,127
60810,note_on,2,0,0,,8,,,80,127
60810,note_on,0,0,0,,5,,,65,127
61027,note_off,217,0,0,,5,,,65,127
61027,note_off,0,0,0,,8,,,80,127
61028,note_off,1,0,0,,12,,,59,127
61028,note_off,0,0,0,,12,,,71,127
61029,note_on,1,0,0,,8,,,80,127
61029,note_on,0,0,0,,10,,,81,127
61029,note_on,0,0,0,,1,,,61,127
61246,note_off,217,0,0,,10,,,81,127
61246,note_off,0,0,0,,8,,,80,127
61248,note_on,2,0,0,,6,,,78,127
61248,note_on,0,0,0,,1,,,73,127
61465,note_off,217,0,0,,1,,,73,127
61465,note_off,0,0,0,,6,,,78,127
61467,note_on,2,0,0,,5,,,77,127
61467,note_on,0,0,0,,12,,,71,127
61684,note_off,217,0,0,,12,,,71,127
61684,note_off,0,0,0,,5,,,77,127
61685,note_off,1,0,0,,1,,,61,127
61686,note_on,1,0,0,,1,,,73,127
61686,note_on,0,0,0,,1,,,85,127
61686,note_on,0,0,0,,1,,,61,127
61686,note_on,0,0,0,,10,,,69,127
61903,note_off,217,0,0,,10,,,69,127
61903,note_off,0,0,0,,1,,,85,127
61905,note_on,2,0,0,,12,,,83,127
61905,note_on,0,0,0,,8,,,68,127
62122,note_off,217,0,0,,8,,,68,127
62122,note_off,0,0,0,,12,,,83,127
62124,note_on,2,0,0,,10,,,81,127
62124,note_on,0,0,0,,6,,,66,127
62341,note_off,217,0,0,,6,,,66,127
62342,note_off,1,0,0,,1,,,61,127
62342,note_off,0,0,0,,1,,,73,127
62351,note_off,9,0,0,,10,,,81,127
62352,note_on,1,0,0,,8,,,80,127
62352,note_on,0,0,0,,5,,,65,127
62459,note_off,107,0,0,,8,,,80,127
62461,note_on,2,0,0,,12,,,83,127
62568,note_off,107,0,0,,12,,,83,127
62568,note_off,0,0,0,,5,,,65,127
62570,note_on,2,0,0,,5,,,77,127
62570,note_on,0,0,0,,1,,,61,127
62677,note_off,107,0,0,,5,,,77,127
62679,note_on,2,0,0,,12,,,83,127
62786,note_off,107,0,0,,12,,,83,127
62786,note_off,0,0,0,,1,,,61,127
62788,note_on,2,0,0,,1,,,73,127
62788,note_on,0,0,0,,5,,,65,127
62895,note_off,107,0,0,,1,,,73,127
62897,note_on,2,0,0,,12,,,83,127
63004,note_off,107,0,0,,12,,,83,127
63004,note_off,0,0,0,,5,,,65,127
63006,note_on,2,0,0,,10,,,81,127
63006,note_on,0,0,0,,6,,,66,127
63113,note_off,107,0,0,,6,,,66,127
63115,note_on,2,0,0,,10,,,69,127
63222,note_off,107,0,0,,10,,,69,127
63224,note_on,2,0,0,,1,,,73,127
63331,note_off,107,0,0,,1,,,73,127
63333,note_on,2,0,0,,10,,,69,127
63440,note_off,107,0,0,,10,,,69,127
63442,note_on,2,0,0,,6,,,66,127
63549,note_off,107,0,0,,6,,,66,127
63551,note_on,2,0,0,,10,,,69,127
63658,note_off,107,0,0,,10,,,69,127
63660,note_on,2,0,0,,2,,,62,127
63767,note_off,107,0,0,,2,,,62,127
63769,note_on,2,0,0,,6,,,66,127
63876,note_off,107,0,0,,6,,,66,127
63876,note_off,0,0,0,,10,,,81,127
63878,note_on,2,0,0,,6,,,78,127
63878,note_on,0,0,0,,12,,,59,127
63985,note_off,107,0,0,,12,,,59,127
63987,note_on,2,0,0,,2,,,62,127
64094,note_off,107,0,0,,2,,,62,127
64094,note_off,0,0,0,,6,,,78,127
64096,note_on,2,0,0,,12,,,83,127
64096,note_on,0,0,0,,8,,,56,127
64203,note_off,107,0,0,,8,,,56,127
64205,note_on,2,0,0,,12,,,59,127
64312,note_off,107,0,0,,12,,,59,127
64314,note_on,2,0,0,,1,,,49,127
64421,note_off,107,0,0,,12,,,83,127
64423,note_on,2,0,0,,8,,,80,127
64530,note_off,107,0,0,,8,,,80,127
64532,note_on,2,0,0,,6,,,78,127
64639,note_off,107,0,0,,6,,,78,127
64641,note_on,2,0,0,,5,,,77,127
64748,note_off,107,0,0,,5,,,77,127
64748,note_off,0,0,0,,1,,,49,127
64750,note_on,2,0,0,,6,,,78,127
64750,note_on,0,0,0,,1,,,49,127
64857,note_off,107,0,0,,6,,,78,127
64859,note_on,2,0,0,,10,,,81,127
64966,note_off,107,0,0,,10,,,81,127
64966,note_off,0,0,0,,1,,,49,127
64968,note_on,2,0,0,,8,,,80,127
64968,note_on,0,0,0,,12,,,47,127
64968,note_on,0,0,0,,12,,,59,127
65075,note_off,107,0,0,,8,,,80,127
65077,note_on,2,0,0,,12,,,83,127
65184,note_off,107,0,0,,12,,,83,127
65184,note_off,0,0,0,,12,,,59,127
65184,note_off,0,0,0,,12,,,47,127
65186,note_on,2,0,0,,10,,,81,127
65186,note_on,0,0,0,,6,,,54,127
65186,note_on,0,0,0,,10,,,57,127
65186,note_on,0,0,0,,1,,,49,127
65293,note_off,107,0,0,,10,,,81,127
65295,note_on,2,0,0,,8,,,80,127
65402,note_off,107,0,0,,8,,,80,127
65402,note_off,0,0,0,,10,,,57,127
65402,note_off,0,0,0,,6,,,54,127
65404,note_on,2,0,0,,6,,,78,127
65404,note_on,0,0,0,,8,,,56,127
65511,note_off,107,0,0,,6,,,78,127
65513,note_on,2,0,0,,5,,,77,127
65618,note_off,105,0,0,,1,,,49,127
65620,note_off,2,0,0,,8,,,56,127
65631,note_on,11,0,0,,6,,,78,127
65631,note_on,0,0,0,,6,,,54,127
65638,note_off,7,0,0,,5,,,77,127
65739,note_off,101,0,0,,6,,,78,127
65741,note_on,2,0,0,,10,,,81,127
65848,note_off,107,0,0,,10,,,81,127
65848,note_off,0,0,0,,6,,,54,127
65850,note_on,2,0,0,,3,,,75,127
65850,note_on,0,0,0,,10,,,57,127
65957,note_off,107,0,0,,3,,,75,127
65959,note_on,2,0,0,,6,,,78,127
66066,note_off,107,0,0,,6,,,78,127
66066,note_off,0,0,0,,10,,,57,127
66068,note_on,2,0,0,,0,,,72,127
66068,note_on,0,0,0,,6,,,54,127
66175,note_off,107,0,0,,0,,,72,127
66177,note_on,2,0,0,,3,,,75,127
66284,note_off,107,0,0,,3,,,75,127
66284,note_off,0,0,0,,6,,,54,127
66286,note_on,2,0,0,,6,,,66,127
66286,note_on,0,0,0,,8,,,56,127
66393,note_off,107,0,0,,6,,,66,127
66395,note_on,2,0,0,,10,,,69,127
66502,note_off,107,0,0,,10,,,69,127
66502,note_off,0,0,0,,8,,,56,127
66504,note_on,2,0,0,,8,,,68,127
66504,note_on,0,0,0,,11,,,58,127
66611,note_off,107,0,0,,8,,,68,127
66613,note_on,2,0,0,,6,,,66,127
66720,note_off,107,0,0,,6,,,66,127
66720,note_off,0,0,0,,11,,,58,127
66722,note_on,2,0,0,,4,,,64,127
66722,note_on,0,0,0,,0,,,60,127
66829,note_off,107,0,0,,4,,,64,127
66831,note_on,2,0,0,,3,,,63,127
66938,note_off,107,0,0,,3,,,63,127
66938,note_off,0,0,0,,0,,,60,127
66940,note_on,2,0,0,,4,,,64,127
66940,note_on,0,0,0,,1,,,61,127
67047,note_off,107,0,0,,4,,,64,127
67049,note_on,2,0,0,,8,,,68,127
67156,note_off,107,0,0,,8,,,68,127
67158,note_on,2,0,0,,1,,,73,127
67265,note_off,107,0,0,,1,,,61,127
67267,note_on,2,0,0,,4,,,64,127
67374,note_off,107,0,0,,4,,,64,127
67376,note_on,2,0,0,,1,,,61,127
67483,note_off,107,0,0,,1,,,61,127
67485,note_on,2,0,0,,4,,,64,127
67592,note_off,107,0,0,,4,,,64,127
67594,note_on,2,0,0,,10,,,57,127
67701,note_off,107,0,0,,10,,,57,127
67703,note_on,2,0,0,,1,,,61,127
67810,note_off,107,0,0,,1,,,61,127
67810,note_off,0,0,0,,1,,,73,127
67812,note_on,2,0,0,,1,,,61,127
67812,note_on,0,0,0,,6,,,54,127
67919,note_off,107,0,0,,6,,,54,127
67921,note_on,2,0,0,,10,,,57,127
68028,note_off,107,0,0,,10,,,57,127
68028,note_off,0,0,0,,1,,,61,127
68030,note_on,2,0,0,,6,,,66,127
68030,note_on,0,0,0,,3,,,51,127
68137,note_off,107,0,0,,3,,,51,127
68139,note_on,2,0,0,,6,,,54,127
68246,note_off,107,0,0,,6,,,54,127
68248,note_on,2,0,0,,8,,,44,127
68355,note_off,107,0,0,,6,,,66,127
68357,note_on,2,0,0,,10,,,69,127
68464,note_off,107,0,0,,10,,,69,127
68464,note_off,0,0,0,,8,,,44,127
68466,note_on,2,0,0,,8,,,68,127
68466,note_on,0,0,0,,11,,,46,127
68573,note_off,107,0,0,,8,,,68,127
68575,note_on,2,0,0,,6,,,66,127
68682,note_off,107,0,0,,6,,,66,127
68682,note_off,0,0,0,,11,,,46,127
68684,note_on,2,0,0,,4,,,64,127
68684,note_on,0,0,0,,0,,,48,127
68791,note_off,107,0,0,,4,,,64,127
68793,note_on,2,0,0,,3,,,63,127
68900,note_off,107,0,0,,3,,,63,127
68900,note_off,0,0,0,,0,,,48,127
68902,note_on,2,0,0,,4,,,64,127
68902,note_on,0,0,0,,1,,,49,127
69119,note_off,217,0,0,,1,,,49,127
69119,note_off,0,0,0,,4,,,64,127
69121,note_on,2,0,0,,6,,,66,127
69121,note_on,0,0,0,,3,,,51,127
69338,note_off,217,0,0,,3,,,51,127
69338,note_off,0,0,0,,6,,,66,127
69340,note_on,2,0,0,,8,,,68,127
69340,note_on,0,0,0,,4,,,52,127
69557,note_off,217,0,0,,4,,,52,127
69557,note_off,0,0,0,,8,,,68,127
69559,note_on,2,0,0,,10,,,69,127
69559,note_on,0,0,0,,6,,,54,127
69666,note_off,107,0,0,,10,,,69,127
69668,note_on,2,0,0,,8,,,68,127
69775,note_off,107,0,0,,8,,,68,127
69775,note_off,0,0,0,,6,,,54,127
69777,note_on,2,0,0,,6,,,66,127
69777,note_on,0,0,0,,8,,,56,127
69884,note_off,107,0,0,,6,,,66,127
69886,note_on,2,0,0,,4,,,64,127
69993,note_off,107,0,0,,4,,,64,127
69993,note_off,0,0,0,,8,,,56,127
69995,note_on,2,0,0,,3,,,63,127
69995,note_on,0,0,0,,10,,,57,127
70102,note_off,107,0,0,,3,,,63,127
70104,note_on,2,0,0,,1,,,61,127
70211,note_off,107,0,0,,1,,,61,127
70211,note_off,0,0,0,,10,,,57,127
70213,note_on,2,0,0,,1,,,61,127
70213,note_on,0,0,0,,8,,,44,127
70430,note_off,217,0,0,,8,,,44,127
70432,note_on,2,0,0,,8,,,56,127
70475,note_off,43,0,0,,1,,,61,127
70514,note_on,39,0,0,,0,,,60,127
70585,note_off,71,0,0,,0,,,60,127
70587,note_on,2,0,0,,1,,,61,127
70649,note_off,62,0,0,,8,,,56,127
70658,note_off,9,0,0,,1,,,61,127
70660,note_on,2,0,0,,3,,,63,127
70660,note_on,0,0,0,,6,,,54,127
70731,note_off,71,0,0,,3,,,63,127
70733,note_on,2,0,0,,4,,,64,127
70804,note_off,71,0,0,,4,,,64,127
70806,note_on,2,0,0,,6,,,66,127
70877,note_off,71,0,0,,6,,,66,127
70877,note_off,0,0,0,,6,,,54,127
70879,note_on,2,0,0,,8,,,68,127
70879,note_on,0,0,0,,8,,,56,127
70879,note_on,0,0,0,,4,,,52,127
70879,note_on,0,0,0,,8,,,44,127
71096,note_off,217,0,0,,4,,,52,127
71096,note_off,0,0,0,,8,,,68,127
71098,note_on,2,0,0,,6,,,66,127
71098,note_on,0,0,0,,3,,,51,127
71315,note_off,217,0,0,,3,,,51,127
71315,note_off,0,0,0,,6,,,66,127
71317,note_on,2,0,0,,4,,,64,127
71317,note_on,0,0,0,,1,,,49,127
71534,note_off,217,0,0,,1,,,49,127
71534,note_off,0,0,0,,4,,,64,127
71535,note_off,1,0,0,,8,,,44,127
71535,note_off,0,0,0,,8,,,56,127
71536,note_on,1,0,0,,4,,,64,127
71536,note_on,0,0,0,,8,,,44,127
71753,note_off,217,0,0,,4,,,64,127
71755,note_on,2,0,0,,3,,,63,127
71755,note_on,0,0,0,,8,,,56,127
71972,note_off,217,0,0,,8,,,56,127
71972,note_off,0,0,0,,3,,,63,127
71974,note_on,2,0,0,,1,,,61,127
71974,note_on,0,0,0,,6,,,54,127
72168,note_off,194,0,0,,1,,,61,127
72191,note_off,23,0,0,,6,,,54,127
72192,note_off,1,0,0,,8,,,44,127
72193,note_on,1,0,0,,10,,,57,127
72193,note_on,0,0,0,,10,,,69,127
72193,note_on,0,0,0,,6,,,54,127
72193,note_on,0,0,0,,10,,,45,127
72410,note_off,217,0,0,,6,,,54,127
72410,note_off,0,0,0,,10,,,69,127
72412,note_on,2,0,0,,8,,,68,127
72412,note_on,0,0,0,,4,,,52,127
72629,note_off,217,0,0,,4,,,52,127
72629,note_off,0,0,0,,8,,,68,127
72631,note_on,2,0,0,,6,,,66,127
72631,note_on,0,0,0,,3,,,51,127
72848,note_off,217,0,0,,3,,,51,127
72848,note_off,0,0,0,,6,,,66,127
72849,note_off,1,0,0,,10,,,45,127
72849,note_off,0,0,0,,10,,,57,127
72850,note_on,1,0,0,,6,,,66,127
72850,note_on,0,0,0,,12,,,47,127
73067,note_off,217,0,0,,6,,,66,127
73069,note_on,2,0,0,,4,,,64,127
73069,note_on,0,0,0,,12,,,59,127
73286,note_off,217,0,0,,12,,,59,127
73286,note_off,0,0,0,,4,,,64,127
73288,note_on,2,0,0,,3,,,63,127
73288,note_on,0,0,0,,10,,,57,127
73488,note_off,200,0,0,,3,,,63,127
73505,note_off,17,0,0,,10,,,57,127
73506,note_off,1,0,0,,12,,,47,127
73507,note_on,1,0,0,,12,,,59,127
73507,note_on,0,0,0,,12,,,71,127
73507,note_on,0,0,0,,8,,,56,127
73507,note_on,0,0,0,,12,,,47,127
73724,note_off,217,0,0,,8,,,56,127
73724,note_off,0,0,0,,12,,,71,127
73726,note_on,2,0,0,,10,,,69,127
73726,note_on,0,0,0,,6,,,54,127
73943,note_off,217,0,0,,6,,,54,127
73943,note_off,0,0,0,,10,,,69,127
73945,note_on,2,0,0,,8,,,68,127
73945,note_on,0,0,0,,4,,,52,127
74162,note_off,217,0,0,,4,,,52,127
74162,note_off,0,0,0,,8,,,68,127
74163,note_off,1,0,0,,12,,,47,127
74163,note_off,0,0,0,,12,,,59,127
74164,note_on,1,0,0,,8,,,68,127
74164,note_on,0,0,0,,1,,,49,127
74381,note_off,217,0,0,,8,,,68,127
74383,note_on,2,0,0,,6,,,66,127
74383,note_on,0,0,0,,1,,,61,127
74600,note_off,217,0,0,,1,,,61,127
74600,note_off,0,0,0,,6,,,66,127
74602,note_on,2,0,0,,5,,,65,127
74602,note_on,0,0,0,,12,,,59,127
74808,note_off,206,0,0,,5,,,65,127
74819,note_off,11,0,0,,12,,,59,127
74820,note_off,1,0,0,,1,,,49,127
74821,note_on,1,0,0,,1,,,73,127
74821,note_on,0,0,0,,1,,,61,127
74821,note_on,0,0,0,,1,,,49,127
74821,note_on,0,0,0,,10,,,57,127
75038,note_off,217,0,0,,10,,,57,127
75038,note_off,0,0,0,,1,,,73,127
75040,note_on,2,0,0,,12,,,71,127
75040,note_on,0,0,0,,8,,,56,127
75257,note_off,217,0,0,,8,,,56,127
75257,note_off,0,0,0,,12,,,71,127
75259,note_on,2,0,0,,10,,,69,127
75259,note_on,0,0,0,,6,,,54,127
75476,note_off,217,0,0,,6,,,54,127
75476,note_off,0,0,0,,10,,,69,127
75477,note_off,1,0,0,,1,,,49,127
75477,note_off,0,0,0,,1,,,61,127
75478,note_on,1,0,0,,10,,,69,127
75478,note_on,0,0,0,,2,,,50,127
75695,note_off,217,0,0,,10,,,69,127
75697,note_on,2,0,0,,8,,,68,127
75697,note_on,0,0,0,,2,,,62,127
75914,note_off,217,0,0,,2,,,62,127
75914,note_off,0,0,0,,8,,,68,127
75916,note_on,2,0,0,,6,,,66,127
75916,note_on,0,0,0,,1,,,61,127
76127,note_off,211,0,0,,6,,,66,127
76133,note_off,6,0,0,,1,,,61,127
76134,note_off,1,0,0,,2,,,50,127
76135,note_on,1,0,0,,2,,,74,127
76135,note_on,0,0,0,,2,,,62,127
76135,note_on,0,0,0,,12,,,59,127
76135,note_on,0,0,0,,2,,,50,127
76352,note_off,217,0,0,,12,,,59,127
76352,note_off,0,0,0,,2,,,74,127
76354,note_on,2,0,0,,1,,,73,127
76354,note_on,0,0,0,,10,,,57,127
76571,note_off,217,0,0,,10,,,57,127
76571,note_off,0,0,0,,1,,,73,127
76573,note_on,2,0,0,,2,,,74,127
76573,note_on,0,0,0,,8,,,56,127
76790,note_off,217,0,0,,8,,,56,127
76790,note_off,0,0,0,,2,,,74,127
76791,note_off,1,0,0,,2,,,50,127
76791,note_off,0,0,0,,2,,,62,127
76792,note_on,1,0,0,,8,,,80,127
76792,note_on,0,0,0,,4,,,52,127
76899,note_off,107,0,0,,8,,,80,127
76901,note_on,2,0,0,,12,,,83,127
77008,note_off,107,0,0,,12,,,83,127
77008,note_off,0,0,0,,4,,,52,127
77010,note_on,2,0,0,,4,,,76,127
77010,note_on,0,0,0,,8,,,56,127
77117,note_off,107,0,0,,4,,,76,127
77119,note_on,2,0,0,,8,,,80,127
77226,note_off,107,0,0,,8,,,80,127
77226,note_off,0,0,0,,8,,,56,127
77228,note_on,2,0,0,,12,,,71,127
77228,note_on,0,0,0,,4,,,52,127
77335,note_off,107,0,0,,12,,,71,127
77337,note_on,2,0,0,,2,,,74,127
77444,note_off,107,0,0,,2,,,74,127
77444,note_off,0,0,0,,4,,,52,127
77446,note_on,2,0,0,,1,,,73,127
77446,note_on,0,0,0,,10,,,57,127
77553,note_off,107,0,0,,1,,,73,127
77555,note_on,2,0,0,,4,,,76,127
77662,note_off,107,0,0,,4,,,76,127
77662,note_off,0,0,0,,10,,,57,127
77664,note_on,2,0,0,,10,,,69,127
77664,note_on,0,0,0,,1,,,61,127
77771,note_off,107,0,0,,10,,,69,127
77773,note_on,2,0,0,,1,,,73,127
77880,note_off,107,0,0,,1,,,73,127
77880,note_off,0,0,0,,1,,,61,127
77882,note_on,2,0,0,,4,,,64,127
77882,note_on,0,0,0,,10,,,57,127
77989,note_off,107,0,0,,4,,,64,127
77991,note_on,2,0,0,,8,,,68,127
78098,note_off,107,0,0,,8,,,68,127
78098,note_off,0,0,0,,10,,,57,127
78100,note_on,2,0,0,,6,,,66,127
78100,note_on,0,0,0,,2,,,62,127
78207,note_off,107,0,0,,2,,,62,127
78207,note_off,0,0,0,,6,,,66,127
78209,note_on,2,0,0,,6,,,66,127
78319,note_on,110,0,0,,12,,,59,127
78426,note_off,107,0,0,,12,,,59,127
78428,note_on,2,0,0,,2,,,62,127
78529,note_off,101,0,0,,6,,,66,127
78536,note_off,7,0,0,,2,,,62,127
78538,note_on,2,0,0,,2,,,74,127
78538,note_on,0,0,0,,8,,,56,127
78645,note_off,107,0,0,,8,,,56,127
78647,note_on,2,0,0,,12,,,59,127
78754,note_off,107,0,0,,12,,,59,127
78756,note_on,2,0,0,,2,,,50,127
78863,note_off,107,0,0,,2,,,50,127
78865,note_on,2,0,0,,6,,,54,127
78972,note_off,107,0,0,,6,,,54,127
78974,note_on,2,0,0,,12,,,47,127
79081,note_off,107,0,0,,12,,,47,127
79083,note_on,2,0,0,,2,,,50,127
79190,note_off,107,0,0,,2,,,50,127
79192,note_on,2,0,0,,8,,,44,127
79299,note_off,107,0,0,,8,,,44,127
79301,note_on,2,0,0,,12,,,47,127
79408,note_off,107,0,0,,12,,,47,127
79410,note_on,2,0,0,,4,,,40,127
79517,note_off,107,0,0,,2,,,74,127
79519,note_on,2,0,0,,1,,,73,127
79626,note_off,107,0,0,,1,,,73,127
79628,note_on,2,0,0,,12,,,71,127
79735,note_off,107,0,0,,12,,,71,127
79737,note_on,2,0,0,,10,,,69,127
79844,note_off,107,0,0,,10,,,69,127
79844,note_off,0,0,0,,4,,,40,127
79846,note_on,2,0,0,,8,,,68,127
79846,note_on,0,0,0,,4,,,52,127
79953,note_off,107,0,0,,8,,,68,127
79955,note_on,2,0,0,,2,,,74,127
80062,note_off,107,0,0,,2,,,74,127
80062,note_off,0,0,0,,4,,,52,127
80064,note_on,2,0,0,,1,,,73,127
80064,note_on,0,0,0,,10,,,45,127
80171,note_off,107,0,0,,1,,,73,127
80173,note_on,2,0,0,,12,,,71,127
80280,note_off,107,0,0,,12,,,71,127
80280,note_off,0,0,0,,10,,,45,127
80282,note_on,2,0,0,,10,,,69,127
80282,note_on,0,0,0,,12,,,47,127
80389,note_off,107,0,0,,10,,,69,127
80391,note_on,2,0,0,,8,,,68,127
80498,note_off,107,0,0,,8,,,68,127
80498,note_off,0,0,0,,12,,,47,127
80500,note_on,2,0,0,,6,,,66,127
80500,note_on,0,0,0,,1,,,49,127
80607,note_off,107,0,0,,6,,,66,127
80609,note_on,2,0,0,,4,,,64,127
80716,note_off,107,0,0,,4,,,64,127
80716,note_off,0,0,0,,1,,,49,127
80718,note_on,2,0,0,,6,,,78,127
80718,note_on,0,0,0,,2,,,50,127
80825,note_off,107,0,0,,6,,,78,127
80827,note_on,2,0,0,,4,,,76,127
80934,note_off,107,0,0,,4,,,76,127
80934,note_off,0,0,0,,2,,,50,127
80936,note_on,2,0,0,,2,,,74,127
80936,note_on,0,0,0,,4,,,52,127
81043,note_off,107,0,0,,2,,,74,127
81045,note_on,2,0,0,,1,,,73,127
81152,note_off,107,0,0,,1,,,73,127
81152,note_off,0,0,0,,4,,,52,127
81154,note_on,2,0,0,,12,,,71,127
81154,note_on,0,0,0,,6,,,54,127
81261,note_off,107,0,0,,12,,,71,127
81263,note_on,2,0,0,,10,,,69,127
81370,note_off,107,0,0,,10,,,69,127
81370,note_off,0,0,0,,6,,,54,127
81375,note_on,5,0,0,,4,,,52,127
81375,note_on,0,0,0,,4,,,64,127
81592,note_off,217,0,0,,4,,,64,127
81599,note_on,7,0,0,,4,,,64,127
81830,note_on,231,0,0,,2,,,62,127
81830,note_on,0,0,0,,12,,,71,127
81833,note_off,3,0,0,,4,,,64,127
82032,note_off,199,0,0,,4,,,52,127
82047,note_off,15,0,0,,12,,,71,127
82047,note_off,0,0,0,,2,,,62,127
82049,note_on,2,0,0,,4,,,52,127
82049,note_on,0,0,0,,0,,,60,127
82049,note_on,0,0,0,,4,,,76,127
82266,note_off,217,0,0,,4,,,76,127
82266,note_off,0,0,0,,0,,,60,127
82268,note_on,2,0,0,,12,,,59,127
82268,note_on,0,0,0,,2,,,74,127
82485,note_off,217,0,0,,2,,,74,127
82485,note_off,0,0,0,,12,,,59,127
82487,note_on,2,0,0,,10,,,57,127
82487,note_on,0,0,0,,0,,,72,127
82704,note_off,217,0,0,,0,,,72,127
82704,note_off,0,0,0,,10,,,57,127
82705,note_off,1,0,0,,4,,,52,127
82706,note_on,1,0,0,,5,,,53,127
82706,note_on,0,0,0,,0,,,72,127
82706,note_on,0,0,0,,2,,,74,127
82923,note_off,217,0,0,,2,,,74,127
82923,note_off,0,0,0,,0,,,72,127
82925,note_on,2,0,0,,5,,,65,127
82925,note_on,0,0,0,,12,,,71,127
83142,note_off,217,0,0,,12,,,71,127
83142,note_off,0,0,0,,5,,,65,127
83144,note_on,2,0,0,,2,,,62,127
83144,note_on,0,0,0,,5,,,77,127
83361,note_off,217,0,0,,5,,,77,127
83361,note_off,0,0,0,,2,,,62,127
83362,note_off,1,0,0,,5,,,53,127
83363,note_on,1,0,0,,4,,,52,127
83363,note_on,0,0,0,,0,,,60,127
83363,note_on,0,0,0,,10,,,69,127
83363,note_on,0,0,0,,12,,,71,127
83580,note_off,217,0,0,,0,,,60,127
83582,note_on,2,0,0,,12,,,59,127
83689,note_off,107,0,0,,12,,,59,127
83691,note_on,2,0,0,,10,,,57,127
83798,note_off,107,0,0,,10,,,57,127
83798,note_off,0,0,0,,12,,,71,127
83798,note_off,0,0,0,,10,,,69,127
83800,note_on,2,0,0,,12,,,59,127
83800,note_on,0,0,0,,8,,,68,127
84017,note_off,217,0,0,,8,,,68,127
84017,note_off,0,0,0,,12,,,59,127
84018,note_off,1,0,0,,4,,,52,127
84019,note_on,1,0,0,,4,,,52,127
84238,note_on,219,0,0,,4,,,64,127
84455,note_off,217,0,0,,4,,,64,127
84457,note_on,2,0,0,,2,,,62,127
84457,note_on,0,0,0,,12,,,71,127
84674,note_off,217,0,0,,12,,,71,127
84674,note_off,0,0,0,,2,,,62,127
84675,note_off,1,0,0,,4,,,52,127
84676,note_on,1,0,0,,4,,,52,127
84676,note_on,0,0,0,,0,,,60,127
84676,note_on,0,0,0,,4,,,76,127
84893,note_off,217,0,0,,4,,,76,127
84893,note_off,0,0,0,,0,,,60,127
84895,note_on,2,0,0,,12,,,59,127
84895,note_on,0,0,0,,2,,,74,127
85112,note_off,217,0,0,,2,,,74,127
85112,note_off,0,0,0,,12,,,59,127
85114,note_on,2,0,0,,10,,,57,127
85114,note_on,0,0,0,,0,,,72,127
85331,note_off,217,0,0,,0,,,72,127
85331,note_off,0,0,0,,10,,,57,127
85332,note_off,1,0,0,,4,,,52,127
85333,note_on,1,0,0,,5,,,53,127
85333,note_on,0,0,0,,2,,,74,127
85333,note_on,0,0,0,,0,,,72,127
85550,note_off,217,0,0,,0,,,72,127
85550,note_off,0,0,0,,2,,,74,127
85552,note_on,2,0,0,,5,,,65,127
85552,note_on,0,0,0,,12,,,71,127
85769,note_off,217,0,0,,12,,,71,127
85769,note_off,0,0,0,,5,,,65,127
85771,note_on,2,0,0,,2,,,62,127
85771,note_on,0,0,0,,5,,,77,127
85988,note_off,217,0,0,,5,,,77,127
85988,note_off,0,0,0,,2,,,62,127
85989,note_off,1,0,0,,5,,,53,127
85990,note_on,1,0,0,,4,,,52,127
85990,note_on,0,0,0,,0,,,60,127
85990,note_on,0,0,0,,10,,,69,127
85990,note_on,0,0,0,,12,,,71,127
86207,note_off,217,0,0,,0,,,60,127
86209,note_on,2,0,0,,12,,,59,127
86316,note_off,107,0,0,,12,,,59,127
86318,note_on,2,0,0,,10,,,57,127
86425,note_off,107,0,0,,10,,,57,127
86425,note_off,0,0,0,,12,,,71,127
86425,note_off,0,0,0,,10,,,69,127
86427,note_on,2,0,0,,12,,,59,127
86427,note_on,0,0,0,,8,,,68,127
86644,note_off,217,0,0,,8,,,68,127
86644,note_off,0,0,0,,12,,,59,127
86645,note_off,1,0,0,,4,,,52,127
86646,note_on,1,0,0,,4,,,52,127
86865,note_on,219,0,0,,4,,,64,127
86865,note_on,0,0,0,,4,,,76,127
87082,note_off,217,0,0,,4,,,64,127
87084,note_on,2,0,0,,2,,,62,127
87084,note_on,0,0,0,,7,,,67,127
87301,note_off,217,0,0,,2,,,62,127
87302,note_off,1,0,0,,4,,,52,127
87303,note_on,1,0,0,,4,,,52,127
87303,note_on,0,0,0,,1,,,61,127
87520,note_off,217,0,0,,1,,,61,127
87520,note_off,0,0,0,,7,,,67,127
87521,note_off,1,0,0,,4,,,76,127
87522,note_on,1,0,0,,2,,,62,127
87522,note_on,0,0,0,,5,,,77,127
87522,note_on,0,0,0,,10,,,69,127
87739,note_off,217,0,0,,10,,,69,127
87739,note_off,0,0,0,,5,,,77,127
87739,note_off,0,0,0,,2,,,62,127
87741,note_on,2,0,0,,1,,,61,127
87741,note_on,0,0,0,,11,,,70,127
87741,note_on,0,0,0,,7,,,79,127
87958,note_off,217,0,0,,1,,,61,127
87959,note_off,1,0,0,,4,,,52,127
87960,note_on,1,0,0,,2,,,50,127
88177,note_off,217,0,0,,7,,,79,127
88177,note_off,0,0,0,,11,,,70,127
88179,note_on,2,0,0,,2,,,62,127
88179,note_on,0,0,0,,10,,,69,127
88179,note_on,0,0,0,,5,,,77,127
88394,note_off,215,0,0,,2,,,50,127
88396,note_off,2,0,0,,5,,,77,127
88396,note_off,0,0,0,,10,,,69,127
88396,note_off,0,0,0,,2,,,62,127
88398,note_on,2,0,0,,4,,,52,127
88398,note_on,0,0,0,,4,,,76,127
88398,note_on,0,0,0,,8,,,68,127
88615,note_off,217,0,0,,4,,,52,127
88617,note_on,2,0,0,,5,,,53,127
88834,note_off,217,0,0,,8,,,68,127
88836,note_on,2,0,0,,2,,,62,127
88836,note_on,0,0,0,,10,,,69,127
89051,note_off,215,0,0,,5,,,53,127
89053,note_off,2,0,0,,2,,,62,127
89054,note_off,1,0,0,,4,,,76,127
89055,note_on,1,0,0,,6,,,54,127
89055,note_on,0,0,0,,3,,,75,127
89270,note_off,215,0,0,,10,,,69,127
89272,note_off,2,0,0,,3,,,75,127
89272,note_off,0,0,0,,6,,,54,127
89274,note_on,2,0,0,,8,,,56,127
89274,note_on,0,0,0,,12,,,59,127
89274,note_on,0,0,0,,4,,,76,127
89381,note_off,107,0,0,,4,,,76,127
89383,note_on,2,0,0,,1,,,73,127
89490,note_off,107,0,0,,1,,,73,127
89490,note_off,0,0,0,,8,,,56,127
89492,note_on,2,0,0,,4,,,52,127
89492,note_on,0,0,0,,2,,,74,127
89599,note_off,107,0,0,,2,,,74,127
89601,note_on,2,0,0,,12,,,71,127
89706,note_off,105,0,0,,12,,,59,127
89708,note_off,2,0,0,,12,,,71,127
89708,note_off,0,0,0,,4,,,52,127
89710,note_on,2,0,0,,10,,,57,127
89710,note_on,0,0,0,,1,,,73,127
89817,note_off,107,0,0,,1,,,73,127
89819,note_on,2,0,0,,10,,,69,127
89926,note_off,107,0,0,,10,,,69,127
89926,note_off,0,0,0,,10,,,57,127
89928,note_on,2,0,0,,2,,,50,127
89928,note_on,0,0,0,,2,,,62,127
89928,note_on,0,0,0,,2,,,74,127
90035,note_off,107,0,0,,2,,,74,127
90037,note_on,2,0,0,,12,,,71,127
90144,note_off,107,0,0,,12,,,71,127
90144,note_off,0,0,0,,2,,,62,127
90144,note_off,0,0,0,,2,,,50,127
90146,note_on,2,0,0,,1,,,61,127
90146,note_on,0,0,0,,4,,,52,127
90146,note_on,0,0,0,,1,,,73,127
90253,note_off,107,0,0,,1,,,73,127
90255,note_on,2,0,0,,10,,,69,127
90362,note_off,107,0,0,,10,,,69,127
90362,note_off,0,0,0,,1,,,61,127
90364,note_on,2,0,0,,12,,,59,127
90364,note_on,0,0,0,,12,,,71,127
90471,note_off,107,0,0,,12,,,71,127
90473,note_on,2,0,0,,8,,,68,127
90578,note_off,105,0,0,,4,,,52,127
90580,note_off,2,0,0,,12,,,59,127
90591,note_on,11,0,0,,1,,,61,127
90591,note_on,0,0,0,,10,,,69,127
90598,note_off,7,0,0,,8,,,68,127
90699,note_off,101,0,0,,1,,,61,127
90701,note_on,2,0,0,,4,,,64,127
90808,note_off,107,0,0,,4,,,64,127
90808,note_off,0,0,0,,10,,,69,127
90810,note_on,2,0,0,,10,,,57,127
90810,note_on,0,0,0,,1,,,73,127
90917,note_off,107,0,0,,10,,,57,127
90919,note_on,2,0,0,,1,,,61,127
91026,note_off,107,0,0,,1,,,61,127
91026,note_off,0,0,0,,1,,,73,127
91028,note_on,2,0,0,,6,,,54,127
91028,note_on,0,0,0,,4,,,76,127
91135,note_off,107,0,0,,6,,,54,127
91137,note_on,2,0,0,,10,,,57,127
91244,note_off,107,0,0,,10,,,57,127
91244,note_off,0,0,0,,4,,,76,127
91246,note_on,2,0,0,,2,,,50,127
91246,note_on,0,0,0,,10,,,69,127
91353,note_off,107,0,0,,2,,,50,127
91355,note_on,2,0,0,,6,,,54,127
91462,note_off,107,0,0,,6,,,54,127
91462,note_off,0,0,0,,10,,,69,127
91464,note_on,2,0,0,,12,,,47,127
91464,note_on,0,0,0,,2,,,74,127
91571,note_off,107,0,0,,12,,,47,127
91573,note_on,2,0,0,,2,,,50,127
91680,note_off,107,0,0,,2,,,50,127
91680,note_off,0,0,0,,2,,,74,127
91682,note_on,2,0,0,,8,,,44,127
91682,note_on,0,0,0,,6,,,78,127
91789,note_off,107,0,0,,8,,,44,127
91791,note_on,2,0,0,,12,,,47,127
91898,note_off,107,0,0,,12,,,47,127
91900,note_on,2,0,0,,4,,,40,127
91900,note_on,0,0,0,,8,,,68,127
92010,note_off,110,0,0,,6,,,78,127
92010,note_on,0,0,0,,4,,,76,127
92117,note_off,107,0,0,,4,,,76,127
92117,note_off,0,0,0,,8,,,68,127
92117,note_off,0,0,0,,4,,,40,127
92119,note_on,2,0,0,,8,,,44,127
92119,note_on,0,0,0,,2,,,74,127
92226,note_off,107,0,0,,2,,,74,127
92228,note_on,2,0,0,,12,,,71,127
92335,note_off,107,0,0,,12,,,71,127
92335,note_off,0,0,0,,8,,,44,127
92337,note_on,2,0,0,,10,,,45,127
92337,note_on,0,0,0,,1,,,73,127
92444,note_off,107,0,0,,1,,,73,127
92446,note_on,2,0,0,,10,,,69,127
92553,note_off,107,0,0,,10,,,69,127
92553,note_off,0,0,0,,10,,,45,127
92555,note_on,2,0,0,,2,,,50,127
92555,note_on,0,0,0,,2,,,74,127
92662,note_off,107,0,0,,2,,,74,127
92664,note_on,2,0,0,,12,,,71,127
92771,note_off,107,0,0,,12,,,71,127
92771,note_off,0,0,0,,2,,,50,127
92773,note_on,2,0,0,,4,,,52,127
92773,note_on,0,0,0,,1,,,73,127
92880,note_off,107,0,0,,1,,,73,127
92882,note_on,2,0,0,,10,,,69,127
92989,note_off,107,0,0,,10,,,69,127
92989,note_off,0,0,0,,4,,,52,127
92991,note_on,2,0,0,,4,,,40,127
92991,note_on,0,0,0,,12,,,71,127
93098,note_off,107,0,0,,12,,,71,127
93100,note_on,2,0,0,,8,,,68,127
93207,note_off,107,0,0,,8,,,68,127
93207,note_off,0,0,0,,4,,,40,127
93209,note_on,2,0,0,,10,,,45,127
93209,note_on,0,0,0,,10,,,69,127
93426,note_off,217,0,0,,10,,,45,127
93447,note_on,21,0,0,,4,,,76,127
93447,note_on,0,0,0,,1,,,73,127
93455,note_off,8,0,0,,10,,,69,127
93554,note_off,99,0,0,,1,,,73,127
93554,note_off,0,0,0,,4,,,76,127
93556,note_on,2,0,0,,4,,,76,127
93663,note_off,107,0,0,,4,,,76,127
93665,note_on,2,0,0,,10,,,81,127
93665,note_on,0,0,0,,1,,,73,127
93772,note_off,107,0,0,,1,,,73,127
93774,note_on,2,0,0,,10,,,69,127
93881,note_off,107,0,0,,10,,,69,127
93881,note_off,0,0,0,,10,,,81,127
93883,note_on,2,0,0,,6,,,78,127
93883,note_on,0,0,0,,2,,,50,127
94100,note_off,217,0,0,,2,,,50,127
94100,note_off,0,0,0,,6,,,78,127
94102,note_on,2,0,0,,8,,,80,127
94102,note_on,0,0,0,,12,,,71,127
94209,note_off,107,0,0,,12,,,71,127
94211,note_on,2,0,0,,2,,,74,127
94318,note_off,107,0,0,,2,,,74,127
94318,note_off,0,0,0,,8,,,80,127
94320,note_on,2,0,0,,12,,,83,127
94320,note_on,0,0,0,,12,,,71,127
94427,note_off,107,0,0,,12,,,71,127
94429,note_on,2,0,0,,8,,,68,127
94536,note_off,107,0,0,,8,,,68,127
94536,note_off,0,0,0,,12,,,83,127
94538,note_on,2,0,0,,4,,,76,127
94538,note_on,0,0,0,,1,,,49,127
94755,note_off,217,0,0,,1,,,49,127
94755,note_off,0,0,0,,4,,,76,127
94757,note_on,2,0,0,,10,,,81,127
94757,note_on,0,0,0,,1,,,73,127
94864,note_off,107,0,0,,1,,,73,127
94866,note_on,2,0,0,,4,,,76,127
94973,note_off,107,0,0,,4,,,76,127
94973,note_off,0,0,0,,10,,,81,127
94975,note_on,2,0,0,,1,,,85,127
94975,note_on,0,0,0,,1,,,73,127
95082,note_off,107,0,0,,1,,,73,127
95084,note_on,2,0,0,,10,,,69,127
95191,note_off,107,0,0,,10,,,69,127
95191,note_off,0,0,0,,1,,,85,127
95193,note_on,2,0,0,,6,,,78,127
95193,note_on,0,0,0,,2,,,50,127
95410,note_off,217,0,0,,2,,,50,127
95410,note_off,0,0,0,,6,,,78,127
95412,note_on,2,0,0,,8,,,80,127
95412,note_on,0,0,0,,12,,,71,127
95519,note_off,107,0,0,,12,,,71,127
95521,note_on,2,0,0,,2,,,74,127
95628,note_off,107,0,0,,2,,,74,127
95628,note_off,0,0,0,,8,,,80,127
95630,note_on,2,0,0,,12,,,83,127
95630,note_on,0,0,0,,12,,,71,127
95737,note_off,107,0,0,,12,,,71,127
95739,note_on,2,0,0,,8,,,68,127
95846,note_off,107,0,0,,8,,,68,127
95846,note_off,0,0,0,,12,,,83,127
95848,note_on,2,0,0,,4,,,76,127
95848,note_on,0,0,0,,1,,,49,127
96065,note_off,217,0,0,,1,,,49,127
96065,note_off,0,0,0,,4,,,76,127
96067,note_on,2,0,0,,10,,,81,127
96067,note_on,0,0,0,,1,,,73,127
96174,note_off,107,0,0,,1,,,73,127
96176,note_on,2,0,0,,4,,,76,127
96283,note_off,107,0,0,,4,,,76,127
96283,note_off,0,0,0,,10,,,81,127
96285,note_on,2,0,0,,1,,,85,127
96285,note_on,0,0,0,,1,,,73,127
96392,note_off,107,0,0,,1,,,73,127
96394,note_on,2,0,0,,10,,,69,127
96501,note_off,107,0,0,,10,,,69,127
96501,note_off,0,0,0,,1,,,85,127
96503,note_on,2,0,0,,12,,,83,127
96503,note_on,0,0,0,,2,,,50,127
96610,note_off,107,0,0,,12,,,83,127
96612,note_on,2,0,0,,10,,,81,127
96719,note_off,107,0,0,,10,,,81,127
96719,note_off,0,0,0,,2,,,50,127
96721,note_on,2,0,0,,8,,,80,127
96721,note_on,0,0,0,,4,,,52,127
96828,note_off,107,0,0,,8,,,80,127
96830,note_on,2,0,0,,6,,,78,127
96937,note_off,107,0,0,,6,,,78,127
96937,note_off,0,0,0,,4,,,52,127
96939,note_on,2,0,0,,4,,,76,127
96939,note_on,0,0,0,,4,,,40,127
97046,note_off,107,0,0,,4,,,76,127
97048,note_on,2,0,0,,2,,,74,127
97155,note_off,107,0,0,,2,,,74,127
97155,note_off,0,0,0,,4,,,40,127
97157,note_on,2,0,0,,1,,,73,127
97157,note_on,0,0,0,,10,,,45,127
97374,note_off,217,0,0,,10,,,45,127
97374,note_off,0,0,0,,1,,,73,127
97376,note_on,2,0,0,,4,,,76,127
97376,note_on,0,0,0,,1,,,73,127
97483,note_off,107,0,0,,1,,,73,127
97483,note_off,0,0,0,,4,,,76,127
97485,note_on,2,0,0,,4,,,76,127
97592,note_off,107,0,0,,4,,,76,127
97594,note_on,2,0,0,,10,,,81,127
97594,note_on,0,0,0,,1,,,73,127
97701,note_off,107,0,0,,1,,,73,127
97703,note_on,2,0,0,,10,,,69,127
97810,note_off,107,0,0,,10,,,69,127
97810,note_off,0,0,0,,10,,,81,127
97812,note_on,2,0,0,,6,,,78,127
97812,note_on,0,0,0,,2,,,50,127
98029,note_off,217,0,0,,2,,,50,127
98029,note_off,0,0,0,,6,,,78,127
98031,note_on,2,0,0,,8,,,80,127
98031,note_on,0,0,0,,12,,,71,127
98138,note_off,107,0,0,,12,,,71,127
98140,note_on,2,0,0,,2,,,74,127
98247,note_off,107,0,0,,2,,,74,127
98247,note_off,0,0,0,,8,,,80,127
98249,note_on,2,0,0,,12,,,83,127
98249,note_on,0,0,0,,12,,,71,127
98356,note_off,107,0,0,,12,,,71,127
98358,note_on,2,0,0,,8,,,68,127
98465,note_off,107,0,0,,8,,,68,127
98465,note_off,0,0,0,,12,,,83,127
98467,note_on,2,0,0,,4,,,76,127
98467,note_on,0,0,0,,1,,,49,127
98684,note_off,217,0,0,,1,,,49,127
98684,note_off,0,0,0,,4,,,76,127
98686,note_on,2,0,0,,10,,,81,127
98686,note_on,0,0,0,,1,,,73,127
98793,note_off,107,0,0,,1,,,73,127
98795,note_on,2,0,0,,4,,,76,127
98902,note_off,107,0,0,,4,,,76,127
98902,note_off,0,0,0,,10,,,81,127
98904,note_on,2,0,0,,1,,,85,127
98904,note_on,0,0,0,,1,,,73,127
99011,note_off,107,0,0,,1,,,73,127
99013,note_on,2,0,0,,10,,,69,127
99120,note_off,107,0,0,,10,,,69,127
99120,note_off,0,0,0,,1,,,85,127
99122,note_on,2,0,0,,6,,,78,127
99122,note_on,0,0,0,,2,,,50,127
99339,note_off,217,0,0,,2,,,50,127
99339,note_off,0,0,0,,6,,,78,127
99341,note_on,2,0,0,,8,,,80,127
99341,note_on,0,0,0,,12,,,71,127
99448,note_off,107,0,0,,12,,,71,127
99450,note_on,2,0,0,,2,,,74,127
99557,note_off,107,0,0,,2,,,74,127
99557,note_off,0,0,0,,8,,,80,127
99559,note_on,2,0,0,,12,,,83,127
99559,note_on,0,0,0,,12,,,71,127
99666,note_off,107,0,0,,12,,,71,127
99668,note_on,2,0,0,,8,,,68,127
99775,note_off,107,0,0,,8,,,68,127
99775,note_off,0,0,0,,12,,,83,127
99777,note_on,2,0,0,,4,,,76,127
99777,note_on,0,0,0,,1,,,49,127
99994,note_off,217,0,0,,1,,,49,127
99994,note_off,0,0,0,,4,,,76,127
99996,note_on,2,0,0,,10,,,81,127
99996,note_on,0,0,0,,1,,,73,127
100103,note_off,107,0,0,,1,,,73,127
100105,note_on,2,0,0,,4,,,76,127
100212,note_off,107,0,0,,4,,,76,127
100212,note_off,0,0,0,,10,,,81,127
100214,note_on,2,0,0,,1,,,85,127
100214,note_on,0,0,0,,1,,,73,127
100321,note_off,107,0,0,,1,,,73,127
100323,note_on,2,0,0,,10,,,69,127
100430,note_off,107,0,0,,10,,,69,127
100430,note_off,0,0,0,,1,,,85,127
100432,note_on,2,0,0,,12,,,83,127
100432,note_on,0,0,0,,2,,,50,127
100539,note_off,107,0,0,,12,,,83,127
100541,note_on,2,0,0,,10,,,81,127
100648,note_off,107,0,0,,10,,,81,127
100648,note_off,0,0,0,,2,,,50,127
100650,note_on,2,0,0,,8,,,80,127
100650,note_on,0,0,0,,4,,,52,127
100757,note_off,107,0,0,,8,,,80,127
100759,note_on,2,0,0,,6,,,78,127
100866,note_off,107,0,0,,6,,,78,127
100871,note_on,5,0,0,,4,,,40,127
100871,note_on,0,0,0,,4,,,76,127
100978,note_off,107,0,0,,4,,,76,127
100985,note_on,7,0,0,,2,,,74,127
101088,note_off,103,0,0,,2,,,74,127
101093,note_off,5,0,0,,4,,,52,127
101099,note_off,6,0,0,,4,,,40,127
101107,note_on,8,0,0,,10,,,45,127
101107,note_on,0,0,0,,10,,,57,127
101107,note_on,0,0,0,,8,,,80,127
101214,note_off,107,0,0,,8,,,80,127
101216,note_on,2,0,0,,12,,,83,127
101323,note_off,107,0,0,,12,,,83,127
101323,note_off,0,0,0,,10,,,45,127
101325,note_on,2,0,0,,12,,,47,127
101325,note_on,0,0,0,,10,,,81,127
101542,note_off,217,0,0,,12,,,47,127
101544,note_on,2,0,0,,1,,,49,127
101761,note_off,217,0,0,,1,,,49,127
101762,note_off,1,0,0,,10,,,57,127
101763,note_on,1,0,0,,2,,,50,127
101870,note_off,107,0,0,,10,,,81,127
101872,note_on,2,0,0,,6,,,78,127
101979,note_off,107,0,0,,6,,,78,127
101979,note_off,0,0,0,,2,,,50,127
101981,note_on,2,0,0,,4,,,52,127
101981,note_on,0,0,0,,4,,,76,127
102088,note_off,107,0,0,,4,,,76,127
102090,note_on,2,0,0,,2,,,74,127
102197,note_off,107,0,0,,2,,,74,127
102199,note_on,2,0,0,,4,,,40,127
102199,note_on,0,0,0,,1,,,73,127
102306,note_off,107,0,0,,1,,,73,127
102308,note_on,2,0,0,,12,,,71,127
102413,note_off,105,0,0,,4,,,52,127
102415,note_off,2,0,0,,4,,,40,127
102424,note_off,9,0,0,,12,,,71,127
102426,note_on,2,0,0,,10,,,45,127
102426,note_on,0,0,0,,3,,,75,127
102533,note_off,107,0,0,,3,,,75,127
102535,note_on,2,0,0,,6,,,78,127
102642,note_off,107,0,0,,6,,,78,127
102642,note_off,0,0,0,,10,,,45,127
102644,note_on,2,0,0,,12,,,47,127
102644,note_on,0,0,0,,4,,,76,127
102861,note_off,217,0,0,,12,,,47,127
102863,note_on,2,0,0,,1,,,49,127
103080,note_off,217,0,0,,1,,,49,127
103082,note_on,2,0,0,,2,,,50,127
103189,note_off,107,0,0,,4,,,76,127
103191,note_on,2,0,0,,2,,,74,127
103298,note_off,107,0,0,,2,,,74,127
103298,note_off,0,0,0,,2,,,50,127
103300,note_on,2,0,0,,4,,,52,127
103300,note_on,0,0,0,,1,,,73,127
103407,note_off,107,0,0,,1,,,73,127
103409,note_on,2,0,0,,12,,,71,127
103516,note_off,107,0,0,,12,,,71,127
103518,note_on,2,0,0,,4,,,40,127
103518,note_on,0,0,0,,10,,,69,127
103625,note_off,107,0,0,,10,,,69,127
103627,note_on,2,0,0,,8,,,68,127
103732,note_off,105,0,0,,4,,,52,127
103734,note_off,2,0,0,,4,,,40,127
103744,note_off,10,0,0,,8,,,68,127
103745,note_on,1,0,0,,10,,,45,127
103745,note_on,0,0,0,,8,,,80,127
103852,note_off,107,0,0,,8,,,80,127
103854,note_on,2,0,0,,12,,,83,127
103961,note_off,107,0,0,,12,,,83,127
103961,note_off,0,0,0,,10,,,45,127
103963,note_on,2,0,0,,12,,,47,127
103963,note_on,0,0,0,,10,,,81,127
104180,note_off,217,0,0,,12,,,47,127
104182,note_on,2,0,0,,1,,,49,127
104399,note_off,217,0,0,,1,,,49,127
104401,note_on,2,0,0,,2,,,50,127
104508,note_off,107,0,0,,10,,,81,127
104510,note_on,2,0,0,,6,,,78,127
104617,note_off,107,0,0,,6,,,78,127
104617,note_off,0,0,0,,2,,,50,127
104619,note_on,2,0,0,,4,,,52,127
104619,note_on,0,0,0,,4,,,76,127
104726,note_off,107,0,0,,4,,,76,127
104728,note_on,2,0,0,,2,,,74,127
104835,note_off,107,0,0,,2,,,74,127
104837,note_on,2,0,0,,4,,,40,127
104837,note_on,0,0,0,,1,,,73,127
104944,note_off,107,0,0,,1,,,73,127
104946,note_on,2,0,0,,12,,,71,127
105051,note_off,105,0,0,,4,,,52,127
105053,note_off,2,0,0,,12,,,71,127
105053,note_off,0,0,0,,4,,,40,127
105074,note_on,21,0,0,,1,,,85,127
105074,note_on,0,0,0,,10,,,57,127
105074,note_on,0,0,0,,10,,,45,127
105181,note_off,107,0,0,,1,,,85,127
105183,note_on,2,0,0,,10,,,81,127
105290,note_off,107,0,0,,10,,,81,127
105292,note_on,2,0,0,,4,,,76,127
105399,note_off,107,0,0,,4,,,76,127
105401,note_on,2,0,0,,1,,,73,127
105508,note_off,107,0,0,,1,,,73,127
105510,note_on,2,0,0,,10,,,69,127
105617,note_off,107,0,0,,10,,,69,127
105619,note_on,2,0,0,,4,,,64,127
105726,note_off,107,0,0,,4,,,64,127
105726,note_off,0,0,0,,10,,,45,127
105726,note_off,0,0,0,,10,,,57,127
105728,note_on,2,0,0,,10,,,57,127
105728,note_on,0,0,0,,10,,,45,127
105945,note_off,217,0,0,,10,,,45,127
105945,note_off,0,0,0,,10,,,57,127
105947,note_on,2,0,0,,1,,,85,127
105947,note_on,0,0,0,,4,,,52,127
106018,note_off,71,0,0,,1,,,85,127
106020,note_on,2,0,0,,12,,,83,127
106091,note_off,71,0,0,,12,,,83,127
106093,note_on,2,0,0,,1,,,85,127
106164,note_off,71,0,0,,1,,,85,127
106166,note_on,2,0,0,,12,,,83,127
106166,note_on,0,0,0,,4,,,40,127
106237,note_off,71,0,0,,12,,,83,127
106239,note_on,2,0,0,,10,,,81,127
106310,note_off,71,0,0,,10,,,81,127
106312,note_on,2,0,0,,12,,,83,127
106381,note_off,69,0,0,,4,,,52,127
106383,note_off,2,0,0,,12,,,83,127
106383,note_off,0,0,0,,4,,,40,127
106385,note_on,2,0,0,,1,,,85,127
106385,note_on,0,0,0,,10,,,57,127
106385,note_on,0,0,0,,10,,,45,127
106492,note_off,107,0,0,,1,,,85,127
106494,note_on,2,0,0,,10,,,81,127
106601,note_off,107,0,0,,10,,,81,127
106603,note_on,2,0,0,,4,,,76,127
106710,note_off,107,0,0,,4,,,76,127
106712,note_on,2,0,0,,1,,,73,127
106819,note_off,107,0,0,,1,,,73,127
106821,note_on,2,0,0,,10,,,69,127
106928,note_off,107,0,0,,10,,,69,127
106930,note_on,2,0,0,,4,,,64,127
107037,note_off,107,0,0,,4,,,64,127
107037,note_off,0,0,0,,10,,,45,127
107037,note_off,0,0,0,,10,,,57,127
107039,note_on,2,0,0,,10,,,57,127
107039,note_on,0,0,0,,10,,,45,127
107256,note_off,217,0,0,,10,,,45,127
107256,note_off,0,0,0,,10,,,57,127
107258,note_on,2,0,0,,1,,,85,127
107258,note_on,0,0,0,,4,,,52,127
107329,note_off,71,0,0,,1,,,85,127
107331,note_on,2,0,0,,12,,,83,127
107402,note_off,71,0,0,,12,,,83,127
107404,note_on,2,0,0,,1,,,85,127
107475,note_off,71,0,0,,1,,,85,127
107477,note_on,2,0,0,,12,,,83,127
107477,note_on,0,0,0,,4,,,40,127
107548,note_off,71,0,0,,12,,,83,127
107550,note_on,2,0,0,,10,,,81,127
107621,note_off,71,0,0,,10,,,81,127
107623,note_on,2,0,0,,12,,,83,127
107692,note_off,69,0,0,,4,,,52,127
107694,note_off,2,0,0,,12,,,83,127
107694,note_off,0,0,0,,4,,,40,127
107715,note_on,21,0,0,,10,,,81,127
107715,note_on,0,0,0,,10,,,45,127
109032,note_off,1317,0,0,,10,,,45,127
109736,note_off,704,0,0,,10,,,81,127
110592,end_of_track,856,1,0,,,,,,
