tick,type,time,meta,track,program,channel,pitch,tempo,note,velocity
0,copyright,0,1,0,,,,,,
0,program_change,0,0,0,6,0,,,,
0,pitchwheel,0,0,0,,0,0,,,
0,program_change,0,0,0,6,1,,,,
0,pitchwheel,0,0,0,,1,-590,,,
0,program_change,0,0,0,6,2,,,,
0,pitchwheel,0,0,0,,2,-272,,,
0,program_change,0,0,0,6,3,,,,
0,pitchwheel,0,0,0,,3,-353,,,
0,program_change,0,0,0,6,4,,,,
0,pitchwheel,0,0,0,,4,-560,,,
0,program_change,0,0,0,6,5,,,,
0,pitchwheel,0,0,0,,5,-80,,,
0,program_change,0,0,0,6,6,,,,
0,pitchwheel,0,0,0,,6,-625,,,
0,program_change,0,0,0,6,7,,,,
0,pitchwheel,0,0,0,,7,-130,,,
0,program_change,0,0,0,6,8,,,,
0,pitchwheel,0,0,0,,8,-512,,,
0,program_change,0,0,0,6,10,,,,
0,pitchwheel,0,0,0,,10,-464,,,
0,program_change,0,0,0,6,11,,,,
0,pitchwheel,0,0,0,,11,-208,,,
0,program_change,0,0,0,6,12,,,,
0,pitchwheel,0,0,0,,12,-553,,,
0,set_tempo,0,1,0,,,,500000,,
53,note_on,53,0,0,,10,,,81,127
210,note_off,157,0,0,,10,,,81,127
212,note_on,2,0,0,,1,,,73,127
369,note_off,157,0,0,,1,,,73,127
371,note_on,2,0,0,,2,,,74,127
528,note_off,157,0,0,,2,,,74,127
530,note_on,2,0,0,,4,,,76,127
687,note_off,157,0,0,,4,,,76,127
689,note_on,2,0,0,,10,,,69,127
846,note_off,157,0,0,,10,,,69,127
848,note_on,2,0,0,,12,,,71,127
1005,note_off,157,0,0,,12,,,71,127
1007,note_on,2,0,0,,1,,,73,127
1164,note_off,157,0,0,,1,,,73,127
1166,note_on,2,0,0,,6,,,66,127
1323,note_off,157,0,0,,6,,,66,127
1325,note_on,2,0,0,,8,,,68,127
1482,note_off,157,0,0,,8,,,68,127
1484,note_on,2,0,0,,10,,,69,127
1641,note_off,157,0,0,,10,,,69,127
1643,note_on,2,0,0,,1,,,61,127
1800,note_off,157,0,0,,1,,,61,127
1802,note_on,2,0,0,,2,,,62,127
1955,note_off,153,0,0,,2,,,62,127
1961,note_on,6,0,0,,4,,,76,127
1961,note_on,0,0,0,,4,,,64,127
2118,note_off,157,0,0,,4,,,64,127
2120,note_on,2,0,0,,8,,,68,127
2277,note_off,157,0,0,,8,,,68,127
2279,note_on,2,0,0,,10,,,69,127
2436,note_off,157,0,0,,10,,,69,127
2436,note_off,0,0,0,,4,,,76,127
2438,note_on,2,0,0,,2,,,74,127
2438,note_on,0,0,0,,12,,,71,127
2595,note_off,157,0,0,,12,,,71,127
2597,note_on,2,0,0,,6,,,66,127
2754,note_off,157,0,0,,6,,,66,127
2756,note_on,2,0,0,,8,,,68,127
2913,note_off,157,0,0,,8,,,68,127
2913,note_off,0,0,0,,2,,,74,127
2915,note_on,2,0,0,,1,,,73,127
2915,note_on,0,0,0,,10,,,69,127
3072,note_off,157,0,0,,10,,,69,127
3074,note_on,2,0,0,,1,,,61,127
3231,note_off,157,0,0,,1,,,61,127
3233,note_on,2,0,0,,2,,,62,127
3390,note_off,157,0,0,,2,,,62,127
3390,note_off,0,0,0,,1,,,73,127
3392,note_on,2,0,0,,12,,,71,127
3392,note_on,0,0,0,,4,,,64,127
3549,note_off,157,0,0,,4,,,64,127
3551,note_on,2,0,0,,2,,,62,127
3708,note_off,157,0,0,,2,,,62,127
3710,note_on,2,0,0,,4,,,64,127
3823,note_off,113,0,0,,12,,,71,127
3868,note_off,45,0,0,,4,,,64,127
3870,note_on,2,0,0,,1,,,73,127
3870,note_on,0,0,0,,10,,,69,127
3870,note_on,0,0,0,,10,,,57,127
4027,note_off,157,0,0,,10,,,57,127
4029,note_on,2,0,0,,1,,,49,127
4186,note_off,157,0,0,,1,,,49,127
4188,note_on,2,0,0,,2,,,50,127
4345,note_off,157,0,0,,2,,,50,127
4345,note_off,0,0,0,,10,,,69,127
4345,note_off,0,0,0,,1,,,73,127
4347,note_on,2,0,0,,12,,,71,127
4347,note_on,0,0,0,,8,,,68,127
4347,note_on,0,0,0,,4,,,52,127
4504,note_off,157,0,0,,4,,,52,127
4506,note_on,2,0,0,,8,,,56,127
4663,note_off,157,0,0,,8,,,56,127
4665,note_on,2,0,0,,10,,,57,127
4802,note_off,137,0,0,,8,,,68,127
4802,note_off,0,0,0,,12,,,71,127
4822,note_off,20,0,0,,10,,,57,127
4824,note_on,2,0,0,,12,,,71,127
4824,note_on,0,0,0,,2,,,74,127
4824,note_on,0,0,0,,12,,,59,127
4981,note_off,157,0,0,,12,,,59,127
4983,note_on,2,0,0,,2,,,50,127
5140,note_off,157,0,0,,2,,,50,127
5142,note_on,2,0,0,,4,,,52,127
5299,note_off,157,0,0,,4,,,52,127
5299,note_off,0,0,0,,2,,,74,127
5299,note_off,0,0,0,,12,,,71,127
5301,note_on,2,0,0,,1,,,73,127
5301,note_on,0,0,0,,10,,,69,127
5301,note_on,0,0,0,,6,,,54,127
5458,note_off,157,0,0,,6,,,54,127
5460,note_on,2,0,0,,1,,,61,127
5617,note_off,157,0,0,,1,,,61,127
5619,note_on,2,0,0,,3,,,63,127
5773,note_off,154,0,0,,10,,,69,127
5776,note_off,3,0,0,,3,,,63,127
5784,note_on,8,0,0,,12,,,71,127
5784,note_on,0,0,0,,4,,,64,127
5790,note_off,6,0,0,,1,,,73,127
5941,note_off,151,0,0,,4,,,64,127
5941,note_off,0,0,0,,12,,,71,127
5943,note_on,2,0,0,,3,,,75,127
5943,note_on,0,0,0,,6,,,66,127
6100,note_off,157,0,0,,6,,,66,127
6100,note_off,0,0,0,,3,,,75,127
6102,note_on,2,0,0,,4,,,76,127
6102,note_on,0,0,0,,8,,,68,127
6259,note_off,157,0,0,,8,,,68,127
6259,note_off,0,0,0,,4,,,76,127
6261,note_on,2,0,0,,1,,,73,127
6261,note_on,0,0,0,,10,,,69,127
6418,note_off,157,0,0,,10,,,69,127
6418,note_off,0,0,0,,1,,,73,127
6420,note_on,2,0,0,,8,,,80,127
6420,note_on,0,0,0,,8,,,68,127
6577,note_off,157,0,0,,8,,,68,127
6577,note_off,0,0,0,,8,,,80,127
6579,note_on,2,0,0,,10,,,81,127
6579,note_on,0,0,0,,6,,,66,127
6736,note_off,157,0,0,,6,,,66,127
6736,note_off,0,0,0,,10,,,81,127
6738,note_on,2,0,0,,12,,,71,127
6738,note_on,0,0,0,,8,,,68,127
6895,note_off,157,0,0,,8,,,68,127
6895,note_off,0,0,0,,12,,,71,127
6897,note_on,2,0,0,,11,,,82,127
6897,note_on,0,0,0,,6,,,66,127
7054,note_off,157,0,0,,6,,,66,127
7054,note_off,0,0,0,,11,,,82,127
7056,note_on,2,0,0,,12,,,83,127
7056,note_on,0,0,0,,4,,,64,127
7213,note_off,157,0,0,,4,,,64,127
7213,note_off,0,0,0,,12,,,83,127
7215,note_on,2,0,0,,12,,,71,127
7215,note_on,0,0,0,,6,,,66,127
7293,note_off,78,0,0,,12,,,71,127
7295,note_on,2,0,0,,10,,,69,127
7373,note_off,78,0,0,,10,,,69,127
7373,note_off,0,0,0,,6,,,66,127
7375,note_on,2,0,0,,12,,,71,127
7375,note_on,0,0,0,,4,,,64,127
7453,note_off,78,0,0,,12,,,71,127
7455,note_on,2,0,0,,10,,,69,127
7533,note_off,78,0,0,,10,,,69,127
7533,note_off,0,0,0,,4,,,64,127
7535,note_on,2,0,0,,12,,,71,127
7535,note_on,0,0,0,,3,,,63,127
7613,note_off,78,0,0,,12,,,71,127
7615,note_on,2,0,0,,10,,,69,127
7684,note_off,69,0,0,,10,,,69,127
7693,note_off,9,0,0,,3,,,63,127
7695,note_on,2,0,0,,8,,,68,127
7695,note_on,0,0,0,,4,,,64,127
7852,note_off,157,0,0,,4,,,64,127
7852,note_off,0,0,0,,8,,,68,127
7854,note_on,2,0,0,,3,,,75,127
7854,note_on,0,0,0,,6,,,66,127
8011,note_off,157,0,0,,6,,,66,127
8011,note_off,0,0,0,,3,,,75,127
8013,note_on,2,0,0,,4,,,76,127
8013,note_on,0,0,0,,8,,,68,127
8170,note_off,157,0,0,,8,,,68,127
8170,note_off,0,0,0,,4,,,76,127
8172,note_on,2,0,0,,1,,,73,127
8172,note_on,0,0,0,,10,,,69,127
8329,note_off,157,0,0,,10,,,69,127
8329,note_off,0,0,0,,1,,,73,127
8331,note_on,2,0,0,,8,,,80,127
8331,note_on,0,0,0,,8,,,68,127
8488,note_off,157,0,0,,8,,,68,127
8488,note_off,0,0,0,,8,,,80,127
8490,note_on,2,0,0,,10,,,81,127
8490,note_on,0,0,0,,6,,,66,127
8647,note_off,157,0,0,,6,,,66,127
8647,note_off,0,0,0,,10,,,81,127
8649,note_on,2,0,0,,12,,,71,127
8649,note_on,0,0,0,,8,,,68,127
8806,note_off,157,0,0,,8,,,68,127
8806,note_off,0,0,0,,12,,,71,127
8808,note_on,2,0,0,,11,,,82,127
8808,note_on,0,0,0,,6,,,66,127
8965,note_off,157,0,0,,6,,,66,127
8965,note_off,0,0,0,,11,,,82,127
8967,note_on,2,0,0,,12,,,83,127
8967,note_on,0,0,0,,4,,,64,127
9124,note_off,157,0,0,,4,,,64,127
9124,note_off,0,0,0,,12,,,83,127
9126,note_on,2,0,0,,12,,,71,127
9126,note_on,0,0,0,,6,,,66,127
9204,note_off,78,0,0,,12,,,71,127
9206,note_on,2,0,0,,10,,,69,127
9284,note_off,78,0,0,,10,,,69,127
9284,note_off,0,0,0,,6,,,66,127
9286,note_on,2,0,0,,12,,,71,127
9286,note_on,0,0,0,,4,,,64,127
9364,note_off,78,0,0,,12,,,71,127
9366,note_on,2,0,0,,10,,,69,127
9444,note_off,78,0,0,,10,,,69,127
9444,note_off,0,0,0,,4,,,64,127
9446,note_on,2,0,0,,12,,,71,127
9446,note_on,0,0,0,,3,,,63,127
9524,note_off,78,0,0,,12,,,71,127
9526,note_on,2,0,0,,10,,,69,127
9604,note_off,78,0,0,,10,,,69,127
9604,note_off,0,0,0,,3,,,63,127
9606,note_on,2,0,0,,8,,,68,127
9606,note_on,0,0,0,,4,,,64,127
9763,note_off,157,0,0,,4,,,64,127
9765,note_on,2,0,0,,8,,,56,127
9922,note_off,157,0,0,,8,,,56,127
9922,note_off,0,0,0,,8,,,68,127
9924,note_on,2,0,0,,4,,,76,127
9924,note_on,0,0,0,,10,,,57,127
10081,note_off,157,0,0,,10,,,57,127
10083,note_on,2,0,0,,6,,,66,127
10083,note_on,0,0,0,,12,,,59,127
10239,note_off,156,0,0,,4,,,76,127
10241,note_off,2,0,0,,12,,,59,127
10243,note_on,2,0,0,,3,,,75,127
10243,note_on,0,0,0,,6,,,54,127
10400,note_off,157,0,0,,6,,,54,127
10400,note_off,0,0,0,,3,,,75,127
10402,note_on,2,0,0,,4,,,76,127
10402,note_on,0,0,0,,8,,,56,127
10559,note_off,157,0,0,,8,,,56,127
10559,note_off,0,0,0,,4,,,76,127
10560,note_off,1,0,0,,6,,,66,127
10561,note_on,1,0,0,,3,,,75,127
10561,note_on,0,0,0,,4,,,64,127
10561,note_on,0,0,0,,10,,,57,127
10718,note_off,157,0,0,,10,,,57,127
10718,note_off,0,0,0,,3,,,75,127
10720,note_on,2,0,0,,1,,,73,127
10720,note_on,0,0,0,,4,,,52,127
10877,note_off,157,0,0,,4,,,52,127
10877,note_off,0,0,0,,1,,,73,127
10879,note_on,2,0,0,,1,,,73,127
10879,note_on,0,0,0,,6,,,54,127
11036,note_off,157,0,0,,6,,,54,127
11036,note_off,0,0,0,,1,,,73,127
11037,note_off,1,0,0,,4,,,64,127
11038,note_on,1,0,0,,1,,,73,127
11038,note_on,0,0,0,,3,,,63,127
11038,note_on,0,0,0,,8,,,56,127
11195,note_off,157,0,0,,8,,,56,127
11195,note_off,0,0,0,,1,,,73,127
11197,note_on,2,0,0,,12,,,71,127
11197,note_on,0,0,0,,3,,,51,127
11354,note_off,157,0,0,,3,,,51,127
11354,note_off,0,0,0,,12,,,71,127
11356,note_on,2,0,0,,12,,,71,127
11356,note_on,0,0,0,,4,,,52,127
11513,note_off,157,0,0,,4,,,52,127
11513,note_off,0,0,0,,12,,,71,127
11514,note_off,1,0,0,,3,,,63,127
11515,note_on,1,0,0,,12,,,71,127
11515,note_on,0,0,0,,1,,,61,127
11515,note_on,0,0,0,,6,,,54,127
11672,note_off,157,0,0,,6,,,54,127
11672,note_off,0,0,0,,12,,,71,127
11674,note_on,2,0,0,,10,,,69,127
11674,note_on,0,0,0,,1,,,49,127
11831,note_off,157,0,0,,1,,,49,127
11831,note_off,0,0,0,,10,,,69,127
11833,note_on,2,0,0,,10,,,69,127
11833,note_on,0,0,0,,3,,,51,127
11990,note_off,157,0,0,,3,,,51,127
11990,note_off,0,0,0,,10,,,69,127
11991,note_off,1,0,0,,1,,,61,127
11992,note_on,1,0,0,,8,,,68,127
11992,note_on,0,0,0,,12,,,59,127
11992,note_on,0,0,0,,4,,,52,127
12149,note_off,157,0,0,,4,,,52,127
12149,note_off,0,0,0,,8,,,68,127
12151,note_on,2,0,0,,10,,,69,127
12151,note_on,0,0,0,,6,,,54,127
12308,note_off,157,0,0,,6,,,54,127
12308,note_off,0,0,0,,10,,,69,127
12310,note_on,2,0,0,,12,,,71,127
12310,note_on,0,0,0,,8,,,56,127
12467,note_off,157,0,0,,8,,,56,127
12467,note_off,0,0,0,,12,,,71,127
12468,note_off,1,0,0,,12,,,59,127
12469,note_on,1,0,0,,6,,,66,127
12469,note_on,0,0,0,,10,,,57,127
12626,note_off,157,0,0,,10,,,57,127
12628,note_on,2,0,0,,12,,,59,127
12706,note_off,78,0,0,,6,,,66,127
12708,note_on,2,0,0,,4,,,64,127
12786,note_off,78,0,0,,4,,,64,127
12786,note_off,0,0,0,,12,,,59,127
12788,note_on,2,0,0,,6,,,66,127
12788,note_on,0,0,0,,1,,,61,127
12866,note_off,78,0,0,,6,,,66,127
12868,note_on,2,0,0,,4,,,64,127
12946,note_off,78,0,0,,4,,,64,127
12946,note_off,0,0,0,,1,,,61,127
12948,note_on,2,0,0,,3,,,63,127
12948,note_on,0,0,0,,12,,,59,127
13097,note_off,149,0,0,,3,,,63,127
13114,note_on,17,0,0,,11,,,70,127
13114,note_on,0,0,0,,1,,,61,127
13115,note_off,1,0,0,,12,,,59,127
13271,note_off,156,0,0,,1,,,61,127
13271,note_off,0,0,0,,11,,,70,127
13273,note_on,2,0,0,,12,,,71,127
13273,note_on,0,0,0,,3,,,63,127
13430,note_off,157,0,0,,3,,,63,127
13430,note_off,0,0,0,,12,,,71,127
13432,note_on,2,0,0,,8,,,68,127
13432,note_on,0,0,0,,4,,,64,127
13589,note_off,157,0,0,,4,,,64,127
13591,note_on,2,0,0,,3,,,75,127
13591,note_on,0,0,0,,3,,,63,127
13747,note_off,156,0,0,,8,,,68,127
13749,note_off,2,0,0,,3,,,63,127
13749,note_off,0,0,0,,3,,,75,127
13751,note_on,2,0,0,,4,,,76,127
13751,note_on,0,0,0,,1,,,61,127
13908,note_off,157,0,0,,1,,,61,127
13908,note_off,0,0,0,,4,,,76,127
13910,note_on,2,0,0,,6,,,66,127
13910,note_on,0,0,0,,3,,,63,127
14067,note_off,157,0,0,,3,,,63,127
14069,note_on,2,0,0,,1,,,73,127
14069,note_on,0,0,0,,1,,,61,127
14225,note_off,156,0,0,,6,,,66,127
14227,note_off,2,0,0,,1,,,61,127
14227,note_off,0,0,0,,1,,,73,127
14229,note_on,2,0,0,,3,,,75,127
14229,note_on,0,0,0,,12,,,59,127
14386,note_off,157,0,0,,12,,,59,127
14386,note_off,0,0,0,,3,,,75,127
14388,note_on,2,0,0,,4,,,64,127
14388,note_on,0,0,0,,1,,,61,127
14545,note_off,157,0,0,,1,,,61,127
14547,note_on,2,0,0,,12,,,59,127
14704,note_off,157,0,0,,12,,,59,127
14706,note_on,2,0,0,,11,,,58,127
14863,note_off,157,0,0,,11,,,58,127
14863,note_off,0,0,0,,4,,,64,127
14865,note_on,2,0,0,,3,,,63,127
14865,note_on,0,0,0,,12,,,59,127
15014,note_off,149,0,0,,3,,,63,127
15022,note_off,8,0,0,,12,,,59,127
15024,note_on,2,0,0,,11,,,70,127
15024,note_on,0,0,0,,1,,,61,127
15181,note_off,157,0,0,,1,,,61,127
15181,note_off,0,0,0,,11,,,70,127
15183,note_on,2,0,0,,12,,,71,127
15183,note_on,0,0,0,,3,,,63,127
15340,note_off,157,0,0,,3,,,63,127
15340,note_off,0,0,0,,12,,,71,127
15342,note_on,2,0,0,,8,,,68,127
15342,note_on,0,0,0,,4,,,64,127
15499,note_off,157,0,0,,4,,,64,127
15501,note_on,2,0,0,,3,,,75,127
15501,note_on,0,0,0,,3,,,63,127
15657,note_off,156,0,0,,8,,,68,127
15659,note_off,2,0,0,,3,,,63,127
15659,note_off,0,0,0,,3,,,75,127
15661,note_on,2,0,0,,4,,,76,127
15661,note_on,0,0,0,,1,,,61,127
15818,note_off,157,0,0,,1,,,61,127
15818,note_off,0,0,0,,4,,,76,127
15820,note_on,2,0,0,,6,,,66,127
15820,note_on,0,0,0,,3,,,63,127
15977,note_off,157,0,0,,3,,,63,127
15979,note_on,2,0,0,,1,,,73,127
15979,note_on,0,0,0,,1,,,61,127
16135,note_off,156,0,0,,6,,,66,127
16137,note_off,2,0,0,,1,,,61,127
16137,note_off,0,0,0,,1,,,73,127
16139,note_on,2,0,0,,3,,,75,127
16139,note_on,0,0,0,,12,,,59,127
16296,note_off,157,0,0,,12,,,59,127
16296,note_off,0,0,0,,3,,,75,127
16298,note_on,2,0,0,,4,,,64,127
16298,note_on,0,0,0,,1,,,61,127
16455,note_off,157,0,0,,1,,,61,127
16457,note_on,2,0,0,,12,,,59,127
16614,note_off,157,0,0,,12,,,59,127
16616,note_on,2,0,0,,11,,,58,127
16773,note_off,157,0,0,,11,,,58,127
16773,note_off,0,0,0,,4,,,64,127
16775,note_on,2,0,0,,3,,,63,127
16775,note_on,0,0,0,,12,,,59,127
16931,note_off,156,0,0,,3,,,63,127
16933,note_off,2,0,0,,12,,,59,127
16935,note_on,2,0,0,,3,,,63,127
17101,note_on,166,0,0,,12,,,71,127
17101,note_on,0,0,0,,10,,,69,127
17101,note_on,0,0,0,,12,,,59,127
17103,note_off,2,0,0,,3,,,63,127
17258,note_off,155,0,0,,12,,,59,127
17260,note_on,2,0,0,,4,,,64,127
17417,note_off,157,0,0,,4,,,64,127
17419,note_on,2,0,0,,8,,,56,127
17576,note_off,157,0,0,,8,,,56,127
17576,note_off,0,0,0,,10,,,69,127
17578,note_on,2,0,0,,8,,,68,127
17578,note_on,0,0,0,,4,,,52,127
17735,note_off,157,0,0,,4,,,52,127
17735,note_off,0,0,0,,8,,,68,127
17736,note_off,1,0,0,,12,,,71,127
17737,note_on,1,0,0,,12,,,59,127
17894,note_off,157,0,0,,12,,,59,127
17896,note_on,2,0,0,,3,,,63,127
18053,note_off,157,0,0,,3,,,63,127
18055,note_on,2,0,0,,10,,,69,127
18055,note_on,0,0,0,,12,,,71,127
18055,note_on,0,0,0,,12,,,59,127
18212,note_off,157,0,0,,12,,,59,127
18214,note_on,2,0,0,,4,,,64,127
18371,note_off,157,0,0,,4,,,64,127
18373,note_on,2,0,0,,8,,,56,127
18530,note_off,157,0,0,,8,,,56,127
18530,note_off,0,0,0,,10,,,69,127
18532,note_on,2,0,0,,8,,,68,127
18532,note_on,0,0,0,,4,,,52,127
18689,note_off,157,0,0,,4,,,52,127
18689,note_off,0,0,0,,8,,,68,127
18690,note_off,1,0,0,,12,,,71,127
18691,note_on,1,0,0,,12,,,59,127
18848,note_off,157,0,0,,12,,,59,127
18850,note_on,2,0,0,,3,,,63,127
19007,note_off,157,0,0,,3,,,63,127
19009,note_on,2,0,0,,12,,,71,127
19009,note_on,0,0,0,,10,,,69,127
19009,note_on,0,0,0,,12,,,59,127
19166,note_off,157,0,0,,12,,,59,127
19168,note_on,2,0,0,,4,,,64,127
19325,note_off,157,0,0,,4,,,64,127
19327,note_on,2,0,0,,7,,,55,127
19484,note_off,157,0,0,,7,,,55,127
19484,note_off,0,0,0,,10,,,69,127
19486,note_on,2,0,0,,7,,,67,127
19486,note_on,0,0,0,,4,,,52,127
19643,note_off,157,0,0,,4,,,52,127
19644,note_off,1,0,0,,12,,,71,127
19645,note_on,1,0,0,,12,,,59,127
19668,note_off,23,0,0,,7,,,67,127
19802,note_off,134,0,0,,12,,,59,127
19804,note_on,2,0,0,,3,,,63,127
19961,note_off,157,0,0,,3,,,63,127
19963,note_on,2,0,0,,10,,,69,127
19963,note_on,0,0,0,,12,,,71,127
19963,note_on,0,0,0,,12,,,59,127
20120,note_off,157,0,0,,12,,,59,127
20122,note_on,2,0,0,,4,,,64,127
20279,note_off,157,0,0,,4,,,64,127
20281,note_on,2,0,0,,7,,,55,127
20438,note_off,157,0,0,,7,,,55,127
20438,note_off,0,0,0,,10,,,69,127
20440,note_on,2,0,0,,7,,,67,127
20440,note_on,0,0,0,,4,,,52,127
20597,note_off,157,0,0,,4,,,52,127
20598,note_off,1,0,0,,12,,,71,127
20599,note_on,1,0,0,,12,,,59,127
20622,note_off,23,0,0,,7,,,67,127
20756,note_off,134,0,0,,12,,,59,127
20758,note_on,2,0,0,,3,,,63,127
20915,note_off,157,0,0,,3,,,63,127
20917,note_on,2,0,0,,12,,,71,127
20917,note_on,0,0,0,,10,,,69,127
20917,note_on,0,0,0,,12,,,59,127
21074,note_off,157,0,0,,12,,,59,127
21076,note_on,2,0,0,,4,,,64,127
21233,note_off,157,0,0,,4,,,64,127
21233,note_off,0,0,0,,10,,,69,127
21233,note_off,0,0,0,,12,,,71,127
21235,note_on,2,0,0,,8,,,68,127
21235,note_on,0,0,0,,4,,,52,127
21392,note_off,157,0,0,,4,,,52,127
21392,note_off,0,0,0,,8,,,68,127
21394,note_on,2,0,0,,10,,,69,127
21394,note_on,0,0,0,,6,,,54,127
21551,note_off,157,0,0,,6,,,54,127
21551,note_off,0,0,0,,10,,,69,127
21553,note_on,2,0,0,,12,,,71,127
21553,note_on,0,0,0,,8,,,56,127
21710,note_off,157,0,0,,8,,,56,127
21710,note_off,0,0,0,,12,,,71,127
21712,note_on,2,0,0,,10,,,69,127
21712,note_on,0,0,0,,6,,,54,127
21869,note_off,157,0,0,,6,,,54,127
21869,note_off,0,0,0,,10,,,69,127
21871,note_on,2,0,0,,12,,,71,127
21871,note_on,0,0,0,,8,,,56,127
22028,note_off,157,0,0,,8,,,56,127
22028,note_off,0,0,0,,12,,,71,127
22030,note_on,2,0,0,,1,,,73,127
22030,note_on,0,0,0,,10,,,57,127
22187,note_off,157,0,0,,10,,,57,127
22187,note_off,0,0,0,,1,,,73,127
22189,note_on,2,0,0,,3,,,75,127
22189,note_on,0,0,0,,12,,,59,127
22346,note_off,157,0,0,,12,,,59,127
22346,note_off,0,0,0,,3,,,75,127
22348,note_on,2,0,0,,4,,,76,127
22348,note_on,0,0,0,,1,,,61,127
22505,note_off,157,0,0,,1,,,61,127
22505,note_off,0,0,0,,4,,,76,127
22507,note_on,2,0,0,,8,,,68,127
22507,note_on,0,0,0,,12,,,59,127
22664,note_off,157,0,0,,12,,,59,127
22664,note_off,0,0,0,,8,,,68,127
22666,note_on,2,0,0,,10,,,69,127
22666,note_on,0,0,0,,10,,,57,127
22823,note_off,157,0,0,,10,,,57,127
22823,note_off,0,0,0,,10,,,69,127
22825,note_on,2,0,0,,6,,,66,127
22825,note_on,0,0,0,,12,,,59,127
22982,note_off,157,0,0,,12,,,59,127
22982,note_off,0,0,0,,6,,,66,127
22984,note_on,2,0,0,,4,,,64,127
22984,note_on,0,0,0,,4,,,52,127
23141,note_off,157,0,0,,4,,,52,127
23143,note_on,2,0,0,,8,,,56,127
23265,note_off,122,0,0,,4,,,64,127
23300,note_off,35,0,0,,8,,,56,127
23302,note_on,2,0,0,,4,,,52,127
23459,note_off,157,0,0,,4,,,52,127
23461,note_on,2,0,0,,12,,,59,127
23618,note_off,157,0,0,,12,,,59,127
23620,note_on,2,0,0,,3,,,63,127
23777,note_off,157,0,0,,3,,,63,127
23779,note_on,2,0,0,,12,,,71,127
23779,note_on,0,0,0,,10,,,69,127
23779,note_on,0,0,0,,12,,,59,127
23936,note_off,157,0,0,,12,,,59,127
23938,note_on,2,0,0,,4,,,64,127
24095,note_off,157,0,0,,4,,,64,127
24097,note_on,2,0,0,,8,,,56,127
24254,note_off,157,0,0,,8,,,56,127
24254,note_off,0,0,0,,10,,,69,127
24256,note_on,2,0,0,,8,,,68,127
24256,note_on,0,0,0,,4,,,52,127
24413,note_off,157,0,0,,4,,,52,127
24413,note_off,0,0,0,,8,,,68,127
24414,note_off,1,0,0,,12,,,71,127
24415,note_on,1,0,0,,12,,,59,127
24572,note_off,157,0,0,,12,,,59,127
24574,note_on,2,0,0,,3,,,63,127
24731,note_off,157,0,0,,3,,,63,127
24733,note_on,2,0,0,,10,,,69,127
24733,note_on,0,0,0,,12,,,71,127
24733,note_on,0,0,0,,12,,,59,127
24890,note_off,157,0,0,,12,,,59,127
24892,note_on,2,0,0,,4,,,64,127
25049,note_off,157,0,0,,4,,,64,127
25051,note_on,2,0,0,,8,,,56,127
25208,note_off,157,0,0,,8,,,56,127
25208,note_off,0,0,0,,10,,,69,127
25210,note_on,2,0,0,,8,,,68,127
25210,note_on,0,0,0,,4,,,52,127
25367,note_off,157,0,0,,4,,,52,127
25367,note_off,0,0,0,,8,,,68,127
25368,note_off,1,0,0,,12,,,71,127
25369,note_on,1,0,0,,12,,,59,127
25526,note_off,157,0,0,,12,,,59,127
25528,note_on,2,0,0,,3,,,63,127
25685,note_off,157,0,0,,3,,,63,127
25687,note_on,2,0,0,,12,,,71,127
25687,note_on,0,0,0,,10,,,69,127
25687,note_on,0,0,0,,12,,,59,127
25844,note_off,157,0,0,,12,,,59,127
25846,note_on,2,0,0,,4,,,64,127
26003,note_off,157,0,0,,4,,,64,127
26005,note_on,2,0,0,,7,,,55,127
26162,note_off,157,0,0,,7,,,55,127
26162,note_off,0,0,0,,10,,,69,127
26164,note_on,2,0,0,,7,,,67,127
26164,note_on,0,0,0,,4,,,52,127
26321,note_off,157,0,0,,4,,,52,127
26322,note_off,1,0,0,,12,,,71,127
26323,note_on,1,0,0,,12,,,59,127
26346,note_off,23,0,0,,7,,,67,127
26480,note_off,134,0,0,,12,,,59,127
26482,note_on,2,0,0,,3,,,63,127
26639,note_off,157,0,0,,3,,,63,127
26641,note_on,2,0,0,,10,,,69,127
26641,note_on,0,0,0,,12,,,71,127
26641,note_on,0,0,0,,12,,,59,127
26798,note_off,157,0,0,,12,,,59,127
26800,note_on,2,0,0,,4,,,64,127
26957,note_off,157,0,0,,4,,,64,127
26959,note_on,2,0,0,,7,,,55,127
27116,note_off,157,0,0,,7,,,55,127
27116,note_off,0,0,0,,10,,,69,127
27118,note_on,2,0,0,,7,,,67,127
27118,note_on,0,0,0,,4,,,52,127
27275,note_off,157,0,0,,4,,,52,127
27276,note_off,1,0,0,,12,,,71,127
27277,note_on,1,0,0,,12,,,59,127
27300,note_off,23,0,0,,7,,,67,127
27434,note_off,134,0,0,,12,,,59,127
27436,note_on,2,0,0,,3,,,63,127
27593,note_off,157,0,0,,3,,,63,127
27595,note_on,2,0,0,,10,,,69,127
27595,note_on,0,0,0,,12,,,71,127
27595,note_on,0,0,0,,12,,,59,127
27752,note_off,157,0,0,,12,,,59,127
27754,note_on,2,0,0,,4,,,64,127
27911,note_off,157,0,0,,4,,,64,127
27911,note_off,0,0,0,,12,,,71,127
27911,note_off,0,0,0,,10,,,69,127
27913,note_on,2,0,0,,8,,,68,127
27913,note_on,0,0,0,,4,,,52,127
28070,note_off,157,0,0,,4,,,52,127
28070,note_off,0,0,0,,8,,,68,127
28072,note_on,2,0,0,,10,,,69,127
28072,note_on,0,0,0,,6,,,54,127
28229,note_off,157,0,0,,6,,,54,127
28229,note_off,0,0,0,,10,,,69,127
28231,note_on,2,0,0,,12,,,71,127
28231,note_on,0,0,0,,8,,,56,127
28388,note_off,157,0,0,,8,,,56,127
28388,note_off,0,0,0,,12,,,71,127
28390,note_on,2,0,0,,10,,,69,127
28390,note_on,0,0,0,,6,,,54,127
28547,note_off,157,0,0,,6,,,54,127
28547,note_off,0,0,0,,10,,,69,127
28549,note_on,2,0,0,,12,,,71,127
28549,note_on,0,0,0,,8,,,56,127
28706,note_off,157,0,0,,8,,,56,127
28706,note_off,0,0,0,,12,,,71,127
28708,note_on,2,0,0,,1,,,73,127
28708,note_on,0,0,0,,10,,,57,127
28865,note_off,157,0,0,,10,,,57,127
28865,note_off,0,0,0,,1,,,73,127
28867,note_on,2,0,0,,3,,,75,127
28867,note_on,0,0,0,,12,,,59,127
29024,note_off,157,0,0,,12,,,59,127
29024,note_off,0,0,0,,3,,,75,127
29026,note_on,2,0,0,,4,,,76,127
29026,note_on,0,0,0,,1,,,61,127
29183,note_off,157,0,0,,1,,,61,127
29183,note_off,0,0,0,,4,,,76,127
29185,note_on,2,0,0,,8,,,68,127
29185,note_on,0,0,0,,12,,,59,127
29342,note_off,157,0,0,,12,,,59,127
29342,note_off,0,0,0,,8,,,68,127
29344,note_on,2,0,0,,10,,,69,127
29344,note_on,0,0,0,,10,,,57,127
29501,note_off,157,0,0,,10,,,57,127
29501,note_off,0,0,0,,10,,,69,127
29503,note_on,2,0,0,,6,,,66,127
29503,note_on,0,0,0,,12,,,59,127
29660,note_off,157,0,0,,12,,,59,127
29660,note_off,0,0,0,,6,,,66,127
29662,note_on,2,0,0,,4,,,64,127
29662,note_on,0,0,0,,4,,,52,127
29819,note_off,157,0,0,,4,,,52,127
29827,note_on,8,0,0,,3,,,75,127
29827,note_on,0,0,0,,6,,,54,127
29844,note_off,17,0,0,,4,,,64,127
29985,note_off,141,0,0,,6,,,54,127
29985,note_off,0,0,0,,3,,,75,127
29987,note_on,2,0,0,,4,,,76,127
29987,note_on,0,0,0,,8,,,56,127
30144,note_off,157,0,0,,8,,,56,127
30144,note_off,0,0,0,,4,,,76,127
30146,note_on,2,0,0,,12,,,71,127
30146,note_on,0,0,0,,8,,,56,127
30303,note_off,157,0,0,,8,,,56,127
30303,note_off,0,0,0,,12,,,71,127
30305,note_on,2,0,0,,8,,,80,127
30305,note_on,0,0,0,,6,,,54,127
30462,note_off,157,0,0,,6,,,54,127
30462,note_off,0,0,0,,8,,,80,127
30464,note_on,2,0,0,,10,,,81,127
30464,note_on,0,0,0,,4,,,52,127
30621,note_off,157,0,0,,4,,,52,127
30621,note_off,0,0,0,,10,,,81,127
30623,note_on,2,0,0,,1,,,73,127
30623,note_on,0,0,0,,10,,,57,127
30780,note_off,157,0,0,,10,,,57,127
30780,note_off,0,0,0,,1,,,73,127
30782,note_on,2,0,0,,11,,,82,127
30782,note_on,0,0,0,,12,,,59,127
30939,note_off,157,0,0,,12,,,59,127
30939,note_off,0,0,0,,11,,,82,127
30941,note_on,2,0,0,,12,,,83,127
30941,note_on,0,0,0,,1,,,61,127
31098,note_off,157,0,0,,1,,,61,127
31098,note_off,0,0,0,,12,,,83,127
31100,note_on,2,0,0,,12,,,83,127
31100,note_on,0,0,0,,10,,,81,127
31100,note_on,0,0,0,,12,,,59,127
31257,note_off,157,0,0,,12,,,59,127
31257,note_off,0,0,0,,10,,,81,127
31257,note_off,0,0,0,,12,,,83,127
31259,note_on,2,0,0,,8,,,80,127
31259,note_on,0,0,0,,10,,,57,127
31416,note_off,157,0,0,,10,,,57,127
31416,note_off,0,0,0,,8,,,80,127
31418,note_on,2,0,0,,6,,,78,127
31418,note_on,0,0,0,,12,,,59,127
31575,note_off,157,0,0,,12,,,59,127
31575,note_off,0,0,0,,6,,,78,127
31577,note_on,2,0,0,,4,,,76,127
31577,note_on,0,0,0,,4,,,52,127
31734,note_off,157,0,0,,4,,,52,127
31742,note_on,8,0,0,,3,,,75,127
31742,note_on,0,0,0,,6,,,54,127
31748,note_off,6,0,0,,4,,,76,127
31899,note_off,151,0,0,,6,,,54,127
31899,note_off,0,0,0,,3,,,75,127
31901,note_on,2,0,0,,4,,,76,127
31901,note_on,0,0,0,,8,,,56,127
32058,note_off,157,0,0,,8,,,56,127
32058,note_off,0,0,0,,4,,,76,127
32060,note_on,2,0,0,,12,,,71,127
32060,note_on,0,0,0,,8,,,56,127
32217,note_off,157,0,0,,8,,,56,127
32217,note_off,0,0,0,,12,,,71,127
32219,note_on,2,0,0,,8,,,80,127
32219,note_on,0,0,0,,6,,,54,127
32376,note_off,157,0,0,,6,,,54,127
32376,note_off,0,0,0,,8,,,80,127
32378,note_on,2,0,0,,10,,,81,127
32378,note_on,0,0,0,,4,,,52,127
32535,note_off,157,0,0,,4,,,52,127
32535,note_off,0,0,0,,10,,,81,127
32537,note_on,2,0,0,,1,,,73,127
32537,note_on,0,0,0,,10,,,57,127
32694,note_off,157,0,0,,10,,,57,127
32694,note_off,0,0,0,,1,,,73,127
32696,note_on,2,0,0,,11,,,82,127
32696,note_on,0,0,0,,12,,,59,127
32853,note_off,157,0,0,,12,,,59,127
32853,note_off,0,0,0,,11,,,82,127
32855,note_on,2,0,0,,12,,,83,127
32855,note_on,0,0,0,,1,,,61,127
33012,note_off,157,0,0,,1,,,61,127
33012,note_off,0,0,0,,12,,,83,127
33014,note_on,2,0,0,,12,,,83,127
33014,note_on,0,0,0,,10,,,81,127
33014,note_on,0,0,0,,12,,,59,127
33171,note_off,157,0,0,,12,,,59,127
33171,note_off,0,0,0,,10,,,81,127
33171,note_off,0,0,0,,12,,,83,127
33173,note_on,2,0,0,,8,,,80,127
33173,note_on,0,0,0,,10,,,57,127
33330,note_off,157,0,0,,10,,,57,127
33330,note_off,0,0,0,,8,,,80,127
33332,note_on,2,0,0,,6,,,78,127
33332,note_on,0,0,0,,12,,,59,127
33489,note_off,157,0,0,,12,,,59,127
33489,note_off,0,0,0,,6,,,78,127
33491,note_on,2,0,0,,4,,,76,127
33491,note_on,0,0,0,,4,,,52,127
33648,note_off,157,0,0,,4,,,52,127
33650,note_on,2,0,0,,6,,,54,127
33781,note_off,131,0,0,,4,,,76,127
33807,note_off,26,0,0,,6,,,54,127
33809,note_on,2,0,0,,12,,,71,127
33809,note_on,0,0,0,,8,,,56,127
33966,note_off,157,0,0,,8,,,56,127
33966,note_off,0,0,0,,12,,,71,127
33968,note_on,2,0,0,,0,,,72,127
33968,note_on,0,0,0,,10,,,57,127
34125,note_off,157,0,0,,10,,,57,127
34125,note_off,0,0,0,,0,,,72,127
34127,note_on,2,0,0,,1,,,73,127
34127,note_on,0,0,0,,8,,,56,127
34284,note_off,157,0,0,,8,,,56,127
34284,note_off,0,0,0,,1,,,73,127
34286,note_on,2,0,0,,3,,,75,127
34286,note_on,0,0,0,,6,,,54,127
34443,note_off,157,0,0,,6,,,54,127
34443,note_off,0,0,0,,3,,,75,127
34445,note_on,2,0,0,,4,,,76,127
34445,note_on,0,0,0,,8,,,56,127
34602,note_off,157,0,0,,8,,,56,127
34602,note_off,0,0,0,,4,,,76,127
34604,note_on,2,0,0,,12,,,71,127
34604,note_on,0,0,0,,6,,,54,127
34761,note_off,157,0,0,,6,,,54,127
34761,note_off,0,0,0,,12,,,71,127
34763,note_on,2,0,0,,10,,,69,127
34763,note_on,0,0,0,,4,,,52,127
34920,note_off,157,0,0,,4,,,52,127
34920,note_off,0,0,0,,10,,,69,127
34922,note_on,2,0,0,,12,,,71,127
34922,note_on,0,0,0,,10,,,69,127
34922,note_on,0,0,0,,12,,,59,127
35079,note_off,157,0,0,,12,,,59,127
35079,note_off,0,0,0,,10,,,69,127
35079,note_off,0,0,0,,12,,,71,127
35081,note_on,2,0,0,,8,,,68,127
35081,note_on,0,0,0,,10,,,57,127
35238,note_off,157,0,0,,10,,,57,127
35238,note_off,0,0,0,,8,,,68,127
35240,note_on,2,0,0,,6,,,66,127
35240,note_on,0,0,0,,12,,,59,127
35397,note_off,157,0,0,,12,,,59,127
35397,note_off,0,0,0,,6,,,66,127
35399,note_on,2,0,0,,4,,,64,127
35399,note_on,0,0,0,,4,,,52,127
35556,note_off,157,0,0,,4,,,52,127
35558,note_on,2,0,0,,6,,,54,127
35689,note_off,131,0,0,,4,,,64,127
35715,note_off,26,0,0,,6,,,54,127
35717,note_on,2,0,0,,12,,,59,127
35717,note_on,0,0,0,,8,,,56,127
35874,note_off,157,0,0,,8,,,56,127
35874,note_off,0,0,0,,12,,,59,127
35876,note_on,2,0,0,,0,,,60,127
35876,note_on,0,0,0,,10,,,57,127
36033,note_off,157,0,0,,10,,,57,127
36033,note_off,0,0,0,,0,,,60,127
36035,note_on,2,0,0,,1,,,61,127
36035,note_on,0,0,0,,8,,,56,127
36192,note_off,157,0,0,,8,,,56,127
36192,note_off,0,0,0,,1,,,61,127
36194,note_on,2,0,0,,3,,,63,127
36194,note_on,0,0,0,,6,,,54,127
36351,note_off,157,0,0,,6,,,54,127
36351,note_off,0,0,0,,3,,,63,127
36353,note_on,2,0,0,,4,,,64,127
36353,note_on,0,0,0,,8,,,56,127
36510,note_off,157,0,0,,8,,,56,127
36510,note_off,0,0,0,,4,,,64,127
36512,note_on,2,0,0,,12,,,59,127
36512,note_on,0,0,0,,6,,,54,127
36669,note_off,157,0,0,,6,,,54,127
36669,note_off,0,0,0,,12,,,59,127
36671,note_on,2,0,0,,10,,,57,127
36671,note_on,0,0,0,,4,,,64,127
36671,note_on,0,0,0,,4,,,52,127
36828,note_off,157,0,0,,4,,,52,127
36830,note_on,2,0,0,,12,,,35,127
36987,note_off,157,0,0,,10,,,57,127
36989,note_on,2,0,0,,8,,,56,127
37146,note_off,157,0,0,,8,,,56,127
37147,note_off,1,0,0,,4,,,64,127
37148,note_on,1,0,0,,6,,,54,127
37148,note_on,0,0,0,,3,,,63,127
37305,note_off,157,0,0,,3,,,63,127
37305,note_off,0,0,0,,6,,,54,127
37305,note_off,0,0,0,,12,,,35,127
37307,note_on,2,0,0,,4,,,52,127
37307,note_on,0,0,0,,4,,,64,127
37307,note_on,0,0,0,,4,,,40,127
37782,note_off,475,0,0,,4,,,40,127
37783,note_off,1,0,0,,4,,,64,127
37810,note_on,27,0,0,,4,,,64,127
37870,note_off,60,0,0,,4,,,52,127
37969,note_on,99,0,0,,12,,,59,127
38126,note_off,157,0,0,,12,,,59,127
38128,note_on,2,0,0,,1,,,61,127
38285,note_off,157,0,0,,1,,,61,127
38286,note_off,1,0,0,,4,,,64,127
38287,note_on,1,0,0,,2,,,62,127
38446,note_on,159,0,0,,10,,,57,127
38603,note_off,157,0,0,,10,,,57,127
38605,note_on,2,0,0,,12,,,59,127
38762,note_off,157,0,0,,12,,,59,127
38763,note_off,1,0,0,,2,,,62,127
38764,note_on,1,0,0,,1,,,61,127
38923,note_on,159,0,0,,1,,,49,127
39080,note_off,157,0,0,,1,,,49,127
39082,note_on,2,0,0,,2,,,50,127
39239,note_off,157,0,0,,2,,,50,127
39240,note_off,1,0,0,,1,,,61,127
39241,note_on,1,0,0,,4,,,76,127
39241,note_on,0,0,0,,4,,,64,127
39241,note_on,0,0,0,,4,,,52,127
39398,note_off,157,0,0,,4,,,64,127
39398,note_off,0,0,0,,4,,,76,127
39400,note_on,2,0,0,,12,,,71,127
39557,note_off,157,0,0,,12,,,71,127
39559,note_on,2,0,0,,1,,,73,127
39716,note_off,157,0,0,,1,,,73,127
39716,note_off,0,0,0,,4,,,52,127
39718,note_on,2,0,0,,2,,,74,127
39718,note_on,0,0,0,,6,,,54,127
39875,note_off,157,0,0,,2,,,74,127
39877,note_on,2,0,0,,10,,,69,127
40034,note_off,157,0,0,,10,,,69,127
40034,note_off,0,0,0,,6,,,54,127
40036,note_on,2,0,0,,12,,,71,127
40036,note_on,0,0,0,,8,,,56,127
40193,note_off,157,0,0,,8,,,56,127
40193,note_off,0,0,0,,12,,,71,127
40195,note_on,2,0,0,,1,,,73,127
40195,note_on,0,0,0,,10,,,69,127
40195,note_on,0,0,0,,10,,,57,127
40354,note_on,159,0,0,,1,,,61,127
40511,note_off,157,0,0,,1,,,61,127
40513,note_on,2,0,0,,2,,,62,127
40670,note_off,157,0,0,,2,,,62,127
40670,note_off,0,0,0,,10,,,69,127
40670,note_off,0,0,0,,1,,,73,127
40671,note_off,1,0,0,,10,,,57,127
40672,note_on,1,0,0,,8,,,68,127
40672,note_on,0,0,0,,12,,,71,127
40672,note_on,0,0,0,,4,,,64,127
40829,note_off,157,0,0,,4,,,64,127
40831,note_on,2,0,0,,8,,,56,127
40988,note_off,157,0,0,,8,,,56,127
40990,note_on,2,0,0,,10,,,57,127
41147,note_off,157,0,0,,10,,,57,127
41147,note_off,0,0,0,,12,,,71,127
41147,note_off,0,0,0,,8,,,68,127
41149,note_on,2,0,0,,2,,,74,127
41149,note_on,0,0,0,,12,,,71,127
41149,note_on,0,0,0,,12,,,59,127
41308,note_on,159,0,0,,2,,,62,127
41465,note_off,157,0,0,,2,,,62,127
41467,note_on,2,0,0,,4,,,64,127
41621,note_off,154,0,0,,12,,,59,127
41624,note_off,3,0,0,,4,,,64,127
41624,note_off,0,0,0,,12,,,71,127
41624,note_off,0,0,0,,2,,,74,127
41626,note_on,2,0,0,,1,,,73,127
41626,note_on,0,0,0,,10,,,69,127
41626,note_on,0,0,0,,6,,,66,127
41783,note_off,157,0,0,,6,,,66,127
41785,note_on,2,0,0,,10,,,57,127
41942,note_off,157,0,0,,10,,,57,127
41944,note_on,2,0,0,,12,,,59,127
42101,note_off,157,0,0,,12,,,59,127
42101,note_off,0,0,0,,10,,,69,127
42101,note_off,0,0,0,,1,,,73,127
42103,note_on,2,0,0,,1,,,73,127
42103,note_on,0,0,0,,4,,,76,127
42103,note_on,0,0,0,,1,,,61,127
42260,note_off,157,0,0,,1,,,61,127
42262,note_on,2,0,0,,4,,,64,127
42419,note_off,157,0,0,,4,,,64,127
42421,note_on,2,0,0,,6,,,66,127
42578,note_off,157,0,0,,6,,,66,127
42578,note_off,0,0,0,,4,,,76,127
42578,note_off,0,0,0,,1,,,73,127
42580,note_on,2,0,0,,0,,,72,127
42580,note_on,0,0,0,,3,,,75,127
42580,note_on,0,0,0,,8,,,68,127
42737,note_off,157,0,0,,8,,,68,127
42739,note_on,2,0,0,,6,,,66,127
42896,note_off,157,0,0,,6,,,66,127
42896,note_off,0,0,0,,3,,,75,127
42898,note_on,2,0,0,,8,,,80,127
42898,note_on,0,0,0,,4,,,64,127
43055,note_off,157,0,0,,4,,,64,127
43056,note_off,1,0,0,,0,,,72,127
43057,note_on,1,0,0,,10,,,69,127
43057,note_on,0,0,0,,6,,,66,127
43213,note_off,156,0,0,,8,,,80,127
43215,note_off,2,0,0,,6,,,66,127
43217,note_on,2,0,0,,6,,,78,127
43217,note_on,0,0,0,,4,,,64,127
43374,note_off,157,0,0,,4,,,64,127
43374,note_off,0,0,0,,6,,,78,127
43376,note_on,2,0,0,,6,,,78,127
43376,note_on,0,0,0,,3,,,63,127
43533,note_off,157,0,0,,3,,,63,127
43533,note_off,0,0,0,,6,,,78,127
43534,note_off,1,0,0,,10,,,69,127
43535,note_on,1,0,0,,8,,,68,127
43535,note_on,0,0,0,,6,,,78,127
43535,note_on,0,0,0,,4,,,64,127
43692,note_off,157,0,0,,4,,,64,127
43692,note_off,0,0,0,,6,,,78,127
43694,note_on,2,0,0,,4,,,76,127
43694,note_on,0,0,0,,3,,,63,127
43851,note_off,157,0,0,,3,,,63,127
43851,note_off,0,0,0,,4,,,76,127
43853,note_on,2,0,0,,4,,,76,127
43853,note_on,0,0,0,,1,,,61,127
44010,note_off,157,0,0,,1,,,61,127
44010,note_off,0,0,0,,4,,,76,127
44011,note_off,1,0,0,,8,,,68,127
44012,note_on,1,0,0,,4,,,76,127
44012,note_on,0,0,0,,6,,,66,127
44012,note_on,0,0,0,,3,,,63,127
44169,note_off,157,0,0,,3,,,63,127
44169,note_off,0,0,0,,4,,,76,127
44171,note_on,2,0,0,,3,,,75,127
44171,note_on,0,0,0,,1,,,61,127
44328,note_off,157,0,0,,1,,,61,127
44328,note_off,0,0,0,,3,,,75,127
44330,note_on,2,0,0,,3,,,75,127
44330,note_on,0,0,0,,0,,,60,127
44487,note_off,157,0,0,,0,,,60,127
44487,note_off,0,0,0,,3,,,75,127
44488,note_off,1,0,0,,6,,,66,127
44489,note_on,1,0,0,,4,,,76,127
44489,note_on,0,0,0,,6,,,78,127
44489,note_on,0,0,0,,1,,,61,127
44646,note_off,157,0,0,,1,,,61,127
44646,note_off,0,0,0,,6,,,78,127
44646,note_off,0,0,0,,4,,,76,127
44648,note_on,2,0,0,,3,,,75,127
44648,note_on,0,0,0,,3,,,63,127
44805,note_off,157,0,0,,3,,,63,127
44805,note_off,0,0,0,,3,,,75,127
44807,note_on,2,0,0,,1,,,73,127
44807,note_on,0,0,0,,4,,,64,127
44964,note_off,157,0,0,,4,,,64,127
44964,note_off,0,0,0,,1,,,73,127
44966,note_on,2,0,0,,1,,,73,127
44966,note_on,0,0,0,,6,,,66,127
45123,note_off,157,0,0,,6,,,66,127
45123,note_off,0,0,0,,1,,,73,127
45125,note_on,2,0,0,,3,,,75,127
45125,note_on,0,0,0,,3,,,63,127
45282,note_off,157,0,0,,3,,,63,127
45282,note_off,0,0,0,,3,,,75,127
45284,note_on,2,0,0,,0,,,72,127
45284,note_on,0,0,0,,8,,,68,127
45441,note_off,157,0,0,,8,,,68,127
45441,note_off,0,0,0,,0,,,72,127
45443,note_on,2,0,0,,8,,,68,127
45443,note_on,0,0,0,,1,,,73,127
45443,note_on,0,0,0,,4,,,64,127
45600,note_off,157,0,0,,4,,,64,127
45600,note_off,0,0,0,,1,,,73,127
45602,note_on,2,0,0,,3,,,75,127
45602,note_on,0,0,0,,3,,,63,127
45759,note_off,157,0,0,,3,,,63,127
45759,note_off,0,0,0,,3,,,75,127
45761,note_on,2,0,0,,4,,,76,127
45761,note_on,0,0,0,,1,,,61,127
45918,note_off,157,0,0,,1,,,61,127
45919,note_off,1,0,0,,8,,,68,127
45920,note_on,1,0,0,,6,,,66,127
45920,note_on,0,0,0,,11,,,58,127
46076,note_off,156,0,0,,4,,,76,127
46078,note_off,2,0,0,,11,,,58,127
46080,note_on,2,0,0,,2,,,74,127
46080,note_on,0,0,0,,12,,,59,127
46237,note_off,157,0,0,,12,,,59,127
46237,note_off,0,0,0,,2,,,74,127
46239,note_on,2,0,0,,1,,,73,127
46239,note_on,0,0,0,,11,,,58,127
46396,note_off,157,0,0,,11,,,58,127
46396,note_off,0,0,0,,1,,,73,127
46397,note_off,1,0,0,,6,,,66,127
46398,note_on,1,0,0,,2,,,74,127
46398,note_on,0,0,0,,6,,,66,127
46398,note_on,0,0,0,,12,,,59,127
46555,note_off,157,0,0,,12,,,59,127
46555,note_off,0,0,0,,2,,,74,127
46557,note_on,2,0,0,,12,,,71,127
46557,note_on,0,0,0,,1,,,61,127
46714,note_off,157,0,0,,1,,,61,127
46714,note_off,0,0,0,,12,,,71,127
46716,note_on,2,0,0,,6,,,78,127
46716,note_on,0,0,0,,2,,,62,127
46873,note_off,157,0,0,,2,,,62,127
46874,note_off,1,0,0,,6,,,66,127
46875,note_on,1,0,0,,7,,,67,127
46875,note_on,0,0,0,,4,,,64,127
47031,note_off,156,0,0,,6,,,78,127
47033,note_off,2,0,0,,4,,,64,127
47035,note_on,2,0,0,,4,,,76,127
47035,note_on,0,0,0,,2,,,62,127
47192,note_off,157,0,0,,2,,,62,127
47192,note_off,0,0,0,,4,,,76,127
47194,note_on,2,0,0,,4,,,76,127
47194,note_on,0,0,0,,1,,,61,127
47351,note_off,157,0,0,,1,,,61,127
47351,note_off,0,0,0,,4,,,76,127
47352,note_off,1,0,0,,7,,,67,127
47353,note_on,1,0,0,,4,,,76,127
47353,note_on,0,0,0,,6,,,66,127
47353,note_on,0,0,0,,2,,,62,127
47510,note_off,157,0,0,,2,,,62,127
47510,note_off,0,0,0,,4,,,76,127
47512,note_on,2,0,0,,2,,,74,127
47512,note_on,0,0,0,,1,,,61,127
47669,note_off,157,0,0,,1,,,61,127
47669,note_off,0,0,0,,2,,,74,127
47671,note_on,2,0,0,,2,,,74,127
47671,note_on,0,0,0,,12,,,59,127
47828,note_off,157,0,0,,12,,,59,127
47828,note_off,0,0,0,,2,,,74,127
47829,note_off,1,0,0,,6,,,66,127
47830,note_on,1,0,0,,2,,,74,127
47830,note_on,0,0,0,,4,,,64,127
47830,note_on,0,0,0,,1,,,61,127
47987,note_off,157,0,0,,1,,,61,127
47987,note_off,0,0,0,,2,,,74,127
47989,note_on,2,0,0,,1,,,73,127
47989,note_on,0,0,0,,12,,,59,127
48146,note_off,157,0,0,,12,,,59,127
48146,note_off,0,0,0,,1,,,73,127
48148,note_on,2,0,0,,1,,,73,127
48148,note_on,0,0,0,,11,,,58,127
48305,note_off,157,0,0,,11,,,58,127
48305,note_off,0,0,0,,1,,,73,127
48306,note_off,1,0,0,,4,,,64,127
48307,note_on,1,0,0,,4,,,76,127
48307,note_on,0,0,0,,2,,,74,127
48307,note_on,0,0,0,,12,,,59,127
48464,note_off,157,0,0,,12,,,59,127
48464,note_off,0,0,0,,2,,,74,127
48464,note_off,0,0,0,,4,,,76,127
48466,note_on,2,0,0,,1,,,73,127
48466,note_on,0,0,0,,1,,,61,127
48623,note_off,157,0,0,,1,,,61,127
48623,note_off,0,0,0,,1,,,73,127
48625,note_on,2,0,0,,12,,,71,127
48625,note_on,0,0,0,,2,,,62,127
48782,note_off,157,0,0,,2,,,62,127
48782,note_off,0,0,0,,12,,,71,127
48784,note_on,2,0,0,,12,,,71,127
48784,note_on,0,0,0,,4,,,64,127
48941,note_off,157,0,0,,4,,,64,127
48941,note_off,0,0,0,,12,,,71,127
48943,note_on,2,0,0,,1,,,73,127
48943,note_on,0,0,0,,1,,,61,127
49100,note_off,157,0,0,,1,,,61,127
49100,note_off,0,0,0,,1,,,73,127
49102,note_on,2,0,0,,11,,,70,127
49102,note_on,0,0,0,,6,,,66,127
49259,note_off,157,0,0,,6,,,66,127
49259,note_off,0,0,0,,11,,,70,127
49261,note_on,2,0,0,,6,,,66,127
49261,note_on,0,0,0,,12,,,71,127
49261,note_on,0,0,0,,2,,,62,127
49418,note_off,157,0,0,,2,,,62,127
49418,note_off,0,0,0,,12,,,71,127
49420,note_on,2,0,0,,1,,,73,127
49420,note_on,0,0,0,,1,,,61,127
49577,note_off,157,0,0,,1,,,61,127
49577,note_off,0,0,0,,1,,,73,127
49579,note_on,2,0,0,,2,,,74,127
49579,note_on,0,0,0,,12,,,59,127
49736,note_off,157,0,0,,12,,,59,127
49737,note_off,1,0,0,,6,,,66,127
49738,note_on,1,0,0,,4,,,64,127
49738,note_on,0,0,0,,8,,,56,127
49894,note_off,156,0,0,,2,,,74,127
49896,note_off,2,0,0,,8,,,56,127
49898,note_on,2,0,0,,1,,,73,127
49898,note_on,0,0,0,,10,,,57,127
50055,note_off,157,0,0,,10,,,57,127
50055,note_off,0,0,0,,1,,,73,127
50057,note_on,2,0,0,,12,,,71,127
50057,note_on,0,0,0,,8,,,56,127
50214,note_off,157,0,0,,8,,,56,127
50214,note_off,0,0,0,,12,,,71,127
50215,note_off,1,0,0,,4,,,64,127
50216,note_on,1,0,0,,1,,,73,127
50216,note_on,0,0,0,,4,,,64,127
50216,note_on,0,0,0,,10,,,57,127
50373,note_off,157,0,0,,10,,,57,127
50373,note_off,0,0,0,,1,,,73,127
50375,note_on,2,0,0,,2,,,74,127
50375,note_on,0,0,0,,12,,,59,127
50532,note_off,157,0,0,,12,,,59,127
50532,note_off,0,0,0,,2,,,74,127
50534,note_on,2,0,0,,4,,,76,127
50534,note_on,0,0,0,,1,,,61,127
50691,note_off,157,0,0,,1,,,61,127
50691,note_off,0,0,0,,4,,,76,127
50692,note_off,1,0,0,,4,,,64,127
50693,note_on,1,0,0,,12,,,71,127
50693,note_on,0,0,0,,2,,,62,127
50850,note_off,157,0,0,,2,,,62,127
50852,note_on,2,0,0,,4,,,64,127
50930,note_off,78,0,0,,12,,,71,127
50932,note_on,2,0,0,,10,,,69,127
51010,note_off,78,0,0,,10,,,69,127
51010,note_off,0,0,0,,4,,,64,127
51012,note_on,2,0,0,,12,,,71,127
51012,note_on,0,0,0,,6,,,66,127
51090,note_off,78,0,0,,12,,,71,127
51092,note_on,2,0,0,,10,,,69,127
51170,note_off,78,0,0,,10,,,69,127
51170,note_off,0,0,0,,6,,,66,127
51172,note_on,2,0,0,,8,,,68,127
51172,note_on,0,0,0,,4,,,64,127
51327,note_off,155,0,0,,8,,,68,127
51329,note_off,2,0,0,,4,,,64,127
51331,note_on,2,0,0,,8,,,68,127
51488,note_off,157,0,0,,8,,,68,127
51496,note_on,8,0,0,,2,,,74,127
51496,note_on,0,0,0,,4,,,76,127
51496,note_on,0,0,0,,4,,,64,127
51653,note_off,157,0,0,,4,,,64,127
51655,note_on,2,0,0,,10,,,69,127
51812,note_off,157,0,0,,10,,,69,127
51814,note_on,2,0,0,,1,,,61,127
51971,note_off,157,0,0,,1,,,61,127
51971,note_off,0,0,0,,2,,,74,127
51973,note_on,2,0,0,,1,,,73,127
51973,note_on,0,0,0,,10,,,57,127
52130,note_off,157,0,0,,10,,,57,127
52130,note_off,0,0,0,,1,,,73,127
52131,note_off,1,0,0,,4,,,76,127
52132,note_on,1,0,0,,4,,,64,127
52289,note_off,157,0,0,,4,,,64,127
52291,note_on,2,0,0,,8,,,68,127
52448,note_off,157,0,0,,8,,,68,127
52450,note_on,2,0,0,,4,,,76,127
52450,note_on,0,0,0,,2,,,74,127
52450,note_on,0,0,0,,4,,,64,127
52607,note_off,157,0,0,,4,,,64,127
52609,note_on,2,0,0,,10,,,69,127
52766,note_off,157,0,0,,10,,,69,127
52768,note_on,2,0,0,,1,,,61,127
52925,note_off,157,0,0,,1,,,61,127
52925,note_off,0,0,0,,2,,,74,127
52927,note_on,2,0,0,,1,,,73,127
52927,note_on,0,0,0,,10,,,57,127
53084,note_off,157,0,0,,10,,,57,127
53084,note_off,0,0,0,,1,,,73,127
53085,note_off,1,0,0,,4,,,76,127
53086,note_on,1,0,0,,4,,,64,127
53243,note_off,157,0,0,,4,,,64,127
53245,note_on,2,0,0,,8,,,68,127
53402,note_off,157,0,0,,8,,,68,127
53404,note_on,2,0,0,,2,,,74,127
53404,note_on,0,0,0,,4,,,76,127
53404,note_on,0,0,0,,4,,,64,127
53561,note_off,157,0,0,,4,,,64,127
53563,note_on,2,0,0,,10,,,69,127
53720,note_off,157,0,0,,10,,,69,127
53722,note_on,2,0,0,,0,,,60,127
53879,note_off,157,0,0,,0,,,60,127
53879,note_off,0,0,0,,2,,,74,127
53881,note_on,2,0,0,,0,,,72,127
53881,note_on,0,0,0,,10,,,57,127
54038,note_off,157,0,0,,10,,,57,127
54038,note_off,0,0,0,,0,,,72,127
54039,note_off,1,0,0,,4,,,76,127
54040,note_on,1,0,0,,4,,,64,127
54197,note_off,157,0,0,,4,,,64,127
54199,note_on,2,0,0,,8,,,68,127
54356,note_off,157,0,0,,8,,,68,127
54358,note_on,2,0,0,,4,,,76,127
54358,note_on,0,0,0,,2,,,74,127
54358,note_on,0,0,0,,4,,,64,127
54515,note_off,157,0,0,,4,,,64,127
54517,note_on,2,0,0,,10,,,69,127
54674,note_off,157,0,0,,10,,,69,127
54676,note_on,2,0,0,,0,,,60,127
54833,note_off,157,0,0,,0,,,60,127
54833,note_off,0,0,0,,2,,,74,127
54835,note_on,2,0,0,,0,,,72,127
54835,note_on,0,0,0,,10,,,57,127
54992,note_off,157,0,0,,10,,,57,127
54992,note_off,0,0,0,,0,,,72,127
54993,note_off,1,0,0,,4,,,76,127
54994,note_on,1,0,0,,4,,,64,127
55151,note_off,157,0,0,,4,,,64,127
55153,note_on,2,0,0,,8,,,68,127
55319,note_on,166,0,0,,2,,,74,127
55319,note_on,0,0,0,,4,,,76,127
55319,note_on,0,0,0,,4,,,64,127
55322,note_off,3,0,0,,8,,,68,127
55476,note_off,154,0,0,,4,,,64,127
55478,note_on,2,0,0,,10,,,69,127
55635,note_off,157,0,0,,10,,,69,127
55635,note_off,0,0,0,,4,,,76,127
55635,note_off,0,0,0,,2,,,74,127
55637,note_on,2,0,0,,1,,,73,127
55637,note_on,0,0,0,,10,,,57,127
55794,note_off,157,0,0,,10,,,57,127
55794,note_off,0,0,0,,1,,,73,127
55796,note_on,2,0,0,,2,,,74,127
55796,note_on,0,0,0,,12,,,59,127
55953,note_off,157,0,0,,12,,,59,127
55953,note_off,0,0,0,,2,,,74,127
55955,note_on,2,0,0,,4,,,76,127
55955,note_on,0,0,0,,1,,,61,127
56112,note_off,157,0,0,,1,,,61,127
56112,note_off,0,0,0,,4,,,76,127
56114,note_on,2,0,0,,2,,,74,127
56114,note_on,0,0,0,,12,,,59,127
56271,note_off,157,0,0,,12,,,59,127
56271,note_off,0,0,0,,2,,,74,127
56273,note_on,2,0,0,,4,,,76,127
56273,note_on,0,0,0,,1,,,61,127
56430,note_off,157,0,0,,1,,,61,127
56430,note_off,0,0,0,,4,,,76,127
56432,note_on,2,0,0,,6,,,78,127
56432,note_on,0,0,0,,2,,,62,127
56589,note_off,157,0,0,,2,,,62,127
56589,note_off,0,0,0,,6,,,78,127
56591,note_on,2,0,0,,8,,,80,127
56591,note_on,0,0,0,,4,,,64,127
56748,note_off,157,0,0,,4,,,64,127
56748,note_off,0,0,0,,8,,,80,127
56750,note_on,2,0,0,,10,,,81,127
56750,note_on,0,0,0,,6,,,66,127
56907,note_off,157,0,0,,6,,,66,127
56907,note_off,0,0,0,,10,,,81,127
56909,note_on,2,0,0,,1,,,73,127
56909,note_on,0,0,0,,4,,,64,127
57066,note_off,157,0,0,,4,,,64,127
57066,note_off,0,0,0,,1,,,73,127
57068,note_on,2,0,0,,2,,,74,127
57068,note_on,0,0,0,,2,,,62,127
57225,note_off,157,0,0,,2,,,62,127
57225,note_off,0,0,0,,2,,,74,127
57227,note_on,2,0,0,,12,,,71,127
57227,note_on,0,0,0,,4,,,64,127
57384,note_off,157,0,0,,4,,,64,127
57384,note_off,0,0,0,,12,,,71,127
57386,note_on,2,0,0,,10,,,69,127
57386,note_on,0,0,0,,10,,,57,127
57558,note_on,172,0,0,,1,,,49,127
57560,note_off,2,0,0,,10,,,57,127
57716,note_off,156,0,0,,1,,,49,127
57718,note_on,2,0,0,,10,,,45,127
57863,note_off,145,0,0,,10,,,69,127
57875,note_off,12,0,0,,10,,,45,127
57877,note_on,2,0,0,,4,,,52,127
58034,note_off,157,0,0,,4,,,52,127
58036,note_on,2,0,0,,8,,,56,127
58193,note_off,157,0,0,,8,,,56,127
58195,note_on,2,0,0,,4,,,64,127
58195,note_on,0,0,0,,2,,,62,127
58195,note_on,0,0,0,,4,,,52,127
58352,note_off,157,0,0,,4,,,52,127
58354,note_on,2,0,0,,10,,,57,127
58511,note_off,157,0,0,,10,,,57,127
58513,note_on,2,0,0,,1,,,49,127
58670,note_off,157,0,0,,1,,,49,127
58670,note_off,0,0,0,,2,,,62,127
58672,note_on,2,0,0,,1,,,61,127
58672,note_on,0,0,0,,10,,,45,127
58829,note_off,157,0,0,,10,,,45,127
58829,note_off,0,0,0,,1,,,61,127
58830,note_off,1,0,0,,4,,,64,127
58831,note_on,1,0,0,,4,,,52,127
58988,note_off,157,0,0,,4,,,52,127
58990,note_on,2,0,0,,8,,,56,127
59147,note_off,157,0,0,,8,,,56,127
59149,note_on,2,0,0,,2,,,62,127
59149,note_on,0,0,0,,4,,,64,127
59149,note_on,0,0,0,,4,,,52,127
59306,note_off,157,0,0,,4,,,52,127
59308,note_on,2,0,0,,10,,,57,127
59465,note_off,157,0,0,,10,,,57,127
59467,note_on,2,0,0,,1,,,49,127
59624,note_off,157,0,0,,1,,,49,127
59624,note_off,0,0,0,,2,,,62,127
59626,note_on,2,0,0,,1,,,61,127
59626,note_on,0,0,0,,10,,,45,127
59783,note_off,157,0,0,,10,,,45,127
59783,note_off,0,0,0,,1,,,61,127
59784,note_off,1,0,0,,4,,,64,127
59785,note_on,1,0,0,,4,,,52,127
59942,note_off,157,0,0,,4,,,52,127
59944,note_on,2,0,0,,8,,,56,127
60101,note_off,157,0,0,,8,,,56,127
60103,note_on,2,0,0,,4,,,64,127
60103,note_on,0,0,0,,2,,,62,127
60103,note_on,0,0,0,,4,,,52,127
60260,note_off,157,0,0,,4,,,52,127
60262,note_on,2,0,0,,10,,,57,127
60419,note_off,157,0,0,,10,,,57,127
60421,note_on,2,0,0,,0,,,48,127
60578,note_off,157,0,0,,0,,,48,127
60578,note_off,0,0,0,,2,,,62,127
60580,note_on,2,0,0,,0,,,60,127
60580,note_on,0,0,0,,10,,,45,127
60737,note_off,157,0,0,,10,,,45,127
60738,note_off,1,0,0,,4,,,64,127
60739,note_on,1,0,0,,4,,,52,127
60762,note_off,23,0,0,,0,,,60,127
60896,note_off,134,0,0,,4,,,52,127
60898,note_on,2,0,0,,8,,,56,127
61055,note_off,157,0,0,,8,,,56,127
61057,note_on,2,0,0,,2,,,62,127
61057,note_on,0,0,0,,4,,,64,127
61057,note_on,0,0,0,,4,,,52,127
61214,note_off,157,0,0,,4,,,52,127
61216,note_on,2,0,0,,10,,,57,127
61373,note_off,157,0,0,,10,,,57,127
61375,note_on,2,0,0,,0,,,48,127
61532,note_off,157,0,0,,0,,,48,127
61532,note_off,0,0,0,,2,,,62,127
61534,note_on,2,0,0,,0,,,60,127
61534,note_on,0,0,0,,10,,,45,127
61691,note_off,157,0,0,,10,,,45,127
61692,note_off,1,0,0,,4,,,64,127
61693,note_on,1,0,0,,4,,,52,127
61716,note_off,23,0,0,,0,,,60,127
61850,note_off,134,0,0,,4,,,52,127
61852,note_on,2,0,0,,8,,,56,127
62009,note_off,157,0,0,,8,,,56,127
62011,note_on,2,0,0,,4,,,64,127
62011,note_on,0,0,0,,2,,,62,127
62011,note_on,0,0,0,,4,,,52,127
62168,note_off,157,0,0,,4,,,52,127
62170,note_on,2,0,0,,10,,,57,127
62327,note_off,157,0,0,,10,,,57,127
62327,note_off,0,0,0,,2,,,62,127
62327,note_off,0,0,0,,4,,,64,127
62329,note_on,2,0,0,,1,,,61,127
62329,note_on,0,0,0,,10,,,45,127
62486,note_off,157,0,0,,10,,,45,127
62486,note_off,0,0,0,,1,,,61,127
62488,note_on,2,0,0,,2,,,62,127
62488,note_on,0,0,0,,12,,,47,127
62645,note_off,157,0,0,,12,,,47,127
62645,note_off,0,0,0,,2,,,62,127
62647,note_on,2,0,0,,4,,,64,127
62647,note_on,0,0,0,,1,,,49,127
62804,note_off,157,0,0,,1,,,49,127
62804,note_off,0,0,0,,4,,,64,127
62806,note_on,2,0,0,,2,,,62,127
62806,note_on,0,0,0,,12,,,47,127
62963,note_off,157,0,0,,12,,,47,127
62963,note_off,0,0,0,,2,,,62,127
62965,note_on,2,0,0,,4,,,64,127
62965,note_on,0,0,0,,1,,,49,127
63122,note_off,157,0,0,,1,,,49,127
63122,note_off,0,0,0,,4,,,64,127
63124,note_on,2,0,0,,6,,,66,127
63124,note_on,0,0,0,,2,,,50,127
63281,note_off,157,0,0,,2,,,50,127
63281,note_off,0,0,0,,6,,,66,127
63283,note_on,2,0,0,,8,,,68,127
63283,note_on,0,0,0,,4,,,52,127
63440,note_off,157,0,0,,4,,,52,127
63440,note_off,0,0,0,,8,,,68,127
63442,note_on,2,0,0,,10,,,69,127
63442,note_on,0,0,0,,6,,,54,127
63599,note_off,157,0,0,,6,,,54,127
63599,note_off,0,0,0,,10,,,69,127
63601,note_on,2,0,0,,1,,,61,127
63601,note_on,0,0,0,,4,,,52,127
63758,note_off,157,0,0,,4,,,52,127
63758,note_off,0,0,0,,1,,,61,127
63760,note_on,2,0,0,,2,,,62,127
63760,note_on,0,0,0,,2,,,50,127
63917,note_off,157,0,0,,2,,,50,127
63917,note_off,0,0,0,,2,,,62,127
63919,note_on,2,0,0,,12,,,59,127
63919,note_on,0,0,0,,4,,,52,127
64076,note_off,157,0,0,,4,,,52,127
64076,note_off,0,0,0,,12,,,59,127
64078,note_on,2,0,0,,10,,,57,127
64078,note_on,0,0,0,,10,,,45,127
64235,note_off,157,0,0,,10,,,57,127
64243,note_on,8,0,0,,8,,,68,127
64394,note_off,151,0,0,,10,,,45,127
64401,note_off,7,0,0,,8,,,68,127
64403,note_on,2,0,0,,10,,,69,127
64403,note_on,0,0,0,,12,,,47,127
64560,note_off,157,0,0,,12,,,47,127
64560,note_off,0,0,0,,10,,,69,127
64562,note_on,2,0,0,,4,,,64,127
64562,note_on,0,0,0,,1,,,49,127
64719,note_off,157,0,0,,1,,,49,127
64719,note_off,0,0,0,,4,,,64,127
64721,note_on,2,0,0,,11,,,70,127
64721,note_on,0,0,0,,12,,,47,127
64878,note_off,157,0,0,,12,,,47,127
64878,note_off,0,0,0,,11,,,70,127
64880,note_on,2,0,0,,12,,,71,127
64880,note_on,0,0,0,,10,,,45,127
65037,note_off,157,0,0,,10,,,45,127
65037,note_off,0,0,0,,12,,,71,127
65039,note_on,2,0,0,,6,,,66,127
65039,note_on,0,0,0,,2,,,50,127
65196,note_off,157,0,0,,2,,,50,127
65196,note_off,0,0,0,,6,,,66,127
65198,note_on,2,0,0,,1,,,73,127
65198,note_on,0,0,0,,4,,,52,127
65355,note_off,157,0,0,,4,,,52,127
65355,note_off,0,0,0,,1,,,73,127
65357,note_on,2,0,0,,4,,,76,127
65357,note_on,0,0,0,,6,,,54,127
65514,note_off,157,0,0,,6,,,54,127
65514,note_off,0,0,0,,4,,,76,127
65516,note_on,2,0,0,,4,,,76,127
65516,note_on,0,0,0,,12,,,71,127
65516,note_on,0,0,0,,2,,,74,127
65516,note_on,0,0,0,,4,,,52,127
65673,note_off,157,0,0,,4,,,52,127
65673,note_off,0,0,0,,2,,,74,127
65673,note_off,0,0,0,,12,,,71,127
65673,note_off,0,0,0,,4,,,76,127
65675,note_on,2,0,0,,10,,,69,127
65675,note_on,0,0,0,,1,,,73,127
65675,note_on,0,0,0,,2,,,50,127
65832,note_off,157,0,0,,2,,,50,127
65832,note_off,0,0,0,,1,,,73,127
65832,note_off,0,0,0,,10,,,69,127
65834,note_on,2,0,0,,8,,,68,127
65834,note_on,0,0,0,,12,,,71,127
65834,note_on,0,0,0,,4,,,52,127
65991,note_off,157,0,0,,4,,,52,127
65991,note_off,0,0,0,,12,,,71,127
65991,note_off,0,0,0,,8,,,68,127
65993,note_on,2,0,0,,10,,,69,127
65993,note_on,0,0,0,,10,,,45,127
66150,note_off,157,0,0,,10,,,69,127
66152,note_on,2,0,0,,8,,,68,127
66309,note_off,157,0,0,,8,,,68,127
66309,note_off,0,0,0,,10,,,45,127
66311,note_on,2,0,0,,10,,,69,127
66311,note_on,0,0,0,,12,,,47,127
66468,note_off,157,0,0,,12,,,47,127
66468,note_off,0,0,0,,10,,,69,127
66470,note_on,2,0,0,,4,,,64,127
66470,note_on,0,0,0,,1,,,49,127
66627,note_off,157,0,0,,1,,,49,127
66627,note_off,0,0,0,,4,,,64,127
66629,note_on,2,0,0,,11,,,70,127
66629,note_on,0,0,0,,12,,,47,127
66786,note_off,157,0,0,,12,,,47,127
66786,note_off,0,0,0,,11,,,70,127
66788,note_on,2,0,0,,12,,,71,127
66788,note_on,0,0,0,,10,,,45,127
66945,note_off,157,0,0,,10,,,45,127
66945,note_off,0,0,0,,12,,,71,127
66947,note_on,2,0,0,,6,,,66,127
66947,note_on,0,0,0,,2,,,50,127
67104,note_off,157,0,0,,2,,,50,127
67104,note_off,0,0,0,,6,,,66,127
67106,note_on,2,0,0,,1,,,73,127
67106,note_on,0,0,0,,4,,,52,127
67263,note_off,157,0,0,,4,,,52,127
67263,note_off,0,0,0,,1,,,73,127
67265,note_on,2,0,0,,4,,,76,127
67265,note_on,0,0,0,,6,,,54,127
67422,note_off,157,0,0,,6,,,54,127
67422,note_off,0,0,0,,4,,,76,127
67424,note_on,2,0,0,,2,,,74,127
67424,note_on,0,0,0,,4,,,76,127
67424,note_on,0,0,0,,12,,,71,127
67424,note_on,0,0,0,,4,,,52,127
67581,note_off,157,0,0,,4,,,52,127
67581,note_off,0,0,0,,12,,,71,127
67581,note_off,0,0,0,,4,,,76,127
67581,note_off,0,0,0,,2,,,74,127
67583,note_on,2,0,0,,10,,,69,127
67583,note_on,0,0,0,,1,,,73,127
67583,note_on,0,0,0,,2,,,50,127
67740,note_off,157,0,0,,2,,,50,127
67740,note_off,0,0,0,,1,,,73,127
67740,note_off,0,0,0,,10,,,69,127
67742,note_on,2,0,0,,12,,,71,127
67742,note_on,0,0,0,,8,,,68,127
67742,note_on,0,0,0,,4,,,52,127
67899,note_off,157,0,0,,4,,,52,127
67899,note_off,0,0,0,,8,,,68,127
67899,note_off,0,0,0,,12,,,71,127
67901,note_on,2,0,0,,10,,,69,127
67901,note_on,0,0,0,,10,,,57,127
68067,note_off,166,0,0,,10,,,57,127
68067,note_on,0,0,0,,12,,,59,127
68218,note_off,151,0,0,,10,,,69,127
68225,note_off,7,0,0,,12,,,59,127
68227,note_on,2,0,0,,4,,,76,127
68227,note_on,0,0,0,,1,,,61,127
68384,note_off,157,0,0,,1,,,61,127
68384,note_off,0,0,0,,4,,,76,127
68386,note_on,2,0,0,,5,,,77,127
68386,note_on,0,0,0,,2,,,62,127
68543,note_off,157,0,0,,2,,,62,127
68543,note_off,0,0,0,,5,,,77,127
68545,note_on,2,0,0,,6,,,78,127
68545,note_on,0,0,0,,1,,,61,127
68702,note_off,157,0,0,,1,,,61,127
68702,note_off,0,0,0,,6,,,78,127
68704,note_on,2,0,0,,8,,,80,127
68704,note_on,0,0,0,,12,,,59,127
68861,note_off,157,0,0,,12,,,59,127
68861,note_off,0,0,0,,8,,,80,127
68863,note_on,2,0,0,,10,,,81,127
68863,note_on,0,0,0,,1,,,61,127
69020,note_off,157,0,0,,1,,,61,127
69020,note_off,0,0,0,,10,,,81,127
69022,note_on,2,0,0,,4,,,76,127
69022,note_on,0,0,0,,12,,,59,127
69179,note_off,157,0,0,,12,,,59,127
69179,note_off,0,0,0,,4,,,76,127
69181,note_on,2,0,0,,1,,,73,127
69181,note_on,0,0,0,,10,,,57,127
69338,note_off,157,0,0,,10,,,57,127
69338,note_off,0,0,0,,1,,,73,127
69340,note_on,2,0,0,,2,,,74,127
69340,note_on,0,0,0,,4,,,76,127
69340,note_on,0,0,0,,4,,,52,127
69497,note_off,157,0,0,,4,,,52,127
69497,note_off,0,0,0,,4,,,76,127
69497,note_off,0,0,0,,2,,,74,127
69499,note_on,2,0,0,,1,,,73,127
69499,note_on,0,0,0,,2,,,50,127
69656,note_off,157,0,0,,2,,,50,127
69656,note_off,0,0,0,,1,,,73,127
69658,note_on,2,0,0,,12,,,71,127
69658,note_on,0,0,0,,4,,,52,127
69815,note_off,157,0,0,,4,,,52,127
69815,note_off,0,0,0,,12,,,71,127
69819,note_on,4,0,0,,10,,,57,127
69819,note_on,0,0,0,,10,,,69,127
69982,note_off,163,0,0,,10,,,57,127
69988,note_on,6,0,0,,12,,,59,127
70138,note_off,150,0,0,,10,,,69,127
70146,note_off,8,0,0,,12,,,59,127
70150,note_on,4,0,0,,1,,,61,127
70150,note_on,0,0,0,,4,,,64,127
70308,note_off,158,0,0,,4,,,64,127
70308,note_off,0,0,0,,1,,,61,127
70312,note_on,4,0,0,,2,,,62,127
70312,note_on,0,0,0,,5,,,65,127
70470,note_off,158,0,0,,5,,,65,127
70470,note_off,0,0,0,,2,,,62,127
70474,note_on,4,0,0,,1,,,61,127
70474,note_on,0,0,0,,6,,,66,127
70632,note_off,158,0,0,,6,,,66,127
70632,note_off,0,0,0,,1,,,61,127
70636,note_on,4,0,0,,12,,,59,127
70636,note_on,0,0,0,,8,,,68,127
70794,note_off,158,0,0,,8,,,68,127
70794,note_off,0,0,0,,12,,,59,127
70797,note_on,3,0,0,,1,,,61,127
70797,note_on,0,0,0,,10,,,69,127
70955,note_off,158,0,0,,10,,,69,127
70955,note_off,0,0,0,,1,,,61,127
70959,note_on,4,0,0,,12,,,59,127
70959,note_on,0,0,0,,4,,,64,127
71117,note_off,158,0,0,,4,,,64,127
71117,note_off,0,0,0,,12,,,59,127
71121,note_on,4,0,0,,10,,,57,127
71121,note_on,0,0,0,,10,,,69,127
71121,note_on,0,0,0,,2,,,62,127
71279,note_off,158,0,0,,10,,,57,127
71283,note_on,4,0,0,,4,,,40,127
71439,note_off,156,0,0,,2,,,62,127
71445,note_on,6,0,0,,1,,,61,127
71601,note_off,156,0,0,,10,,,69,127
71603,note_off,2,0,0,,1,,,61,127
71610,note_on,7,0,0,,8,,,68,127
71610,note_on,0,0,0,,12,,,59,127
71761,note_off,151,0,0,,4,,,40,127
71794,note_off,33,0,0,,12,,,59,127
71794,note_off,0,0,0,,8,,,68,127
71810,note_on,16,0,0,,10,,,69,127
71810,note_on,0,0,0,,10,,,45,127
71810,note_on,0,0,0,,10,,,57,127
73475,note_off,1665,0,0,,10,,,57,127
73475,note_off,0,0,0,,10,,,45,127
73475,note_off,0,0,0,,10,,,69,127
79872,end_of_track,6397,1,0,,,,,,
