tick,type,time,meta,track,program,channel,pitch,tempo,note,velocity
0,copyright,0,1,0,,,,,,
0,program_change,0,0,0,6,0,,,,
0,pitchwheel,0,0,0,,0,0,,,
0,program_change,0,0,0,6,1,,,,
0,pitchwheel,0,0,0,,1,-590,,,
0,program_change,0,0,0,6,2,,,,
0,pitchwheel,0,0,0,,2,-272,,,
0,program_change,0,0,0,6,3,,,,
0,pitchwheel,0,0,0,,3,-353,,,
0,program_change,0,0,0,6,4,,,,
0,pitchwheel,0,0,0,,4,-560,,,
0,program_change,0,0,0,6,5,,,,
0,pitchwheel,0,0,0,,5,-80,,,
0,program_change,0,0,0,6,6,,,,
0,pitchwheel,0,0,0,,6,-625,,,
0,program_change,0,0,0,6,7,,,,
0,pitchwheel,0,0,0,,7,-130,,,
0,program_change,0,0,0,6,8,,,,
0,pitchwheel,0,0,0,,8,-512,,,
0,program_change,0,0,0,6,10,,,,
0,pitchwheel,0,0,0,,10,-464,,,
0,program_change,0,0,0,6,11,,,,
0,pitchwheel,0,0,0,,11,-208,,,
0,program_change,0,0,0,6,12,,,,
0,pitchwheel,0,0,0,,12,-553,,,
0,set_tempo,0,1,0,,,,500000,,
115,note_on,115,0,0,,2,,,74,127
344,note_off,229,0,0,,2,,,74,127
345,note_on,1,0,0,,2,,,74,127
574,note_off,229,0,0,,2,,,74,127
575,note_on,1,0,0,,10,,,81,127
804,note_off,229,0,0,,10,,,81,127
805,note_on,1,0,0,,7,,,79,127
1034,note_off,229,0,0,,7,,,79,127
1035,note_on,1,0,0,,7,,,79,127
1091,note_off,56,0,0,,7,,,79,127
1092,note_on,1,0,0,,6,,,78,127
1148,note_off,56,0,0,,6,,,78,127
1149,note_on,1,0,0,,7,,,79,127
1205,note_off,56,0,0,,7,,,79,127
1206,note_on,1,0,0,,6,,,78,127
1262,note_off,56,0,0,,6,,,78,127
1263,note_on,1,0,0,,4,,,76,127
1377,note_off,114,0,0,,4,,,76,127
1378,note_on,1,0,0,,6,,,78,127
1492,note_off,114,0,0,,6,,,78,127
1493,note_on,1,0,0,,7,,,79,127
1607,note_off,114,0,0,,7,,,79,127
1608,note_on,1,0,0,,4,,,76,127
1722,note_off,114,0,0,,4,,,76,127
1723,note_on,1,0,0,,1,,,73,127
1837,note_off,114,0,0,,1,,,73,127
1838,note_on,1,0,0,,10,,,69,127
1952,note_off,114,0,0,,10,,,69,127
1953,note_on,1,0,0,,2,,,62,127
1953,note_on,0,0,0,,6,,,78,127
2182,note_off,229,0,0,,2,,,62,127
2183,note_on,1,0,0,,2,,,62,127
2412,note_off,229,0,0,,2,,,62,127
2412,note_off,0,0,0,,6,,,78,127
2413,note_on,1,0,0,,10,,,69,127
2413,note_on,0,0,0,,6,,,78,127
2469,note_off,56,0,0,,6,,,78,127
2470,note_on,1,0,0,,4,,,76,127
2526,note_off,56,0,0,,4,,,76,127
2527,note_on,1,0,0,,6,,,78,127
2583,note_off,56,0,0,,6,,,78,127
2584,note_on,1,0,0,,4,,,76,127
2640,note_off,56,0,0,,4,,,76,127
2640,note_off,0,0,0,,10,,,69,127
2641,note_on,1,0,0,,7,,,67,127
2641,note_on,0,0,0,,6,,,78,127
2697,note_off,56,0,0,,6,,,78,127
2698,note_on,1,0,0,,4,,,76,127
2754,note_off,56,0,0,,4,,,76,127
2755,note_on,1,0,0,,6,,,78,127
2811,note_off,56,0,0,,6,,,78,127
2812,note_on,1,0,0,,4,,,76,127
2868,note_off,56,0,0,,7,,,67,127
2869,note_on,1,0,0,,7,,,67,127
2925,note_off,56,0,0,,7,,,67,127
2925,note_off,0,0,0,,4,,,76,127
2926,note_on,1,0,0,,6,,,66,127
2926,note_on,0,0,0,,2,,,74,127
2982,note_off,56,0,0,,2,,,74,127
2982,note_off,0,0,0,,6,,,66,127
2983,note_on,1,0,0,,7,,,67,127
2983,note_on,0,0,0,,4,,,76,127
3039,note_off,56,0,0,,4,,,76,127
3039,note_off,0,0,0,,7,,,67,127
3040,note_on,1,0,0,,6,,,66,127
3040,note_on,0,0,0,,2,,,74,127
3096,note_off,56,0,0,,2,,,74,127
3096,note_off,0,0,0,,6,,,66,127
3097,note_on,1,0,0,,4,,,64,127
3097,note_on,0,0,0,,4,,,76,127
3153,note_off,56,0,0,,4,,,76,127
3154,note_on,1,0,0,,2,,,74,127
3210,note_off,56,0,0,,2,,,74,127
3210,note_off,0,0,0,,4,,,64,127
3211,note_on,1,0,0,,6,,,66,127
3211,note_on,0,0,0,,1,,,73,127
3267,note_off,56,0,0,,1,,,73,127
3268,note_on,1,0,0,,2,,,74,127
3324,note_off,56,0,0,,2,,,74,127
3324,note_off,0,0,0,,6,,,66,127
3325,note_on,1,0,0,,7,,,67,127
3325,note_on,0,0,0,,4,,,76,127
3439,note_off,114,0,0,,7,,,67,127
3440,note_on,1,0,0,,4,,,64,127
3554,note_off,114,0,0,,4,,,64,127
3555,note_on,1,0,0,,1,,,61,127
3669,note_off,114,0,0,,1,,,61,127
3670,note_on,1,0,0,,10,,,57,127
3784,note_off,114,0,0,,10,,,57,127
3785,note_on,1,0,0,,2,,,50,127
4014,note_off,229,0,0,,4,,,76,127
4015,note_on,1,0,0,,6,,,78,127
4220,note_off,205,0,0,,6,,,78,127
4244,note_off,24,0,0,,2,,,50,127
4245,note_on,1,0,0,,2,,,62,127
4245,note_on,0,0,0,,6,,,54,127
4245,note_on,0,0,0,,10,,,81,127
4359,note_off,114,0,0,,10,,,81,127
4360,note_on,1,0,0,,6,,,78,127
4474,note_off,114,0,0,,6,,,78,127
4474,note_off,0,0,0,,6,,,54,127
4474,note_off,0,0,0,,2,,,62,127
4475,note_on,1,0,0,,6,,,54,127
4475,note_on,0,0,0,,2,,,62,127
4475,note_on,0,0,0,,2,,,74,127
4589,note_off,114,0,0,,2,,,74,127
4590,note_on,1,0,0,,10,,,69,127
4704,note_off,114,0,0,,10,,,69,127
4704,note_off,0,0,0,,2,,,62,127
4704,note_off,0,0,0,,6,,,54,127
4705,note_on,1,0,0,,7,,,55,127
4705,note_on,0,0,0,,2,,,62,127
4705,note_on,0,0,0,,11,,,70,127
4934,note_off,229,0,0,,11,,,70,127
4934,note_off,0,0,0,,2,,,62,127
4934,note_off,0,0,0,,7,,,55,127
4935,note_on,1,0,0,,7,,,55,127
4935,note_on,0,0,0,,2,,,62,127
4935,note_on,0,0,0,,12,,,71,127
5164,note_off,229,0,0,,12,,,71,127
5164,note_off,0,0,0,,2,,,62,127
5164,note_off,0,0,0,,7,,,55,127
5165,note_on,1,0,0,,10,,,57,127
5165,note_on,0,0,0,,4,,,64,127
5165,note_on,0,0,0,,10,,,81,127
5279,note_off,114,0,0,,10,,,81,127
5280,note_on,1,0,0,,6,,,78,127
5394,note_off,114,0,0,,6,,,78,127
5394,note_off,0,0,0,,4,,,64,127
5394,note_off,0,0,0,,10,,,57,127
5395,note_on,1,0,0,,10,,,57,127
5395,note_on,0,0,0,,4,,,64,127
5395,note_on,0,0,0,,2,,,74,127
5509,note_off,114,0,0,,2,,,74,127
5510,note_on,1,0,0,,1,,,73,127
5624,note_off,114,0,0,,1,,,73,127
5624,note_off,0,0,0,,4,,,64,127
5624,note_off,0,0,0,,10,,,57,127
5625,note_on,1,0,0,,12,,,59,127
5625,note_on,0,0,0,,2,,,62,127
5625,note_on,0,0,0,,1,,,73,127
5854,note_off,229,0,0,,1,,,73,127
5854,note_off,0,0,0,,2,,,62,127
5854,note_off,0,0,0,,12,,,59,127
5855,note_on,1,0,0,,2,,,62,127
5855,note_on,0,0,0,,12,,,59,127
5855,note_on,0,0,0,,2,,,74,127
6084,note_off,229,0,0,,2,,,74,127
6084,note_off,0,0,0,,12,,,59,127
6084,note_off,0,0,0,,2,,,62,127
6085,note_on,1,0,0,,1,,,61,127
6085,note_on,0,0,0,,4,,,64,127
6085,note_on,0,0,0,,10,,,81,127
6199,note_off,114,0,0,,10,,,81,127
6200,note_on,1,0,0,,7,,,79,127
6314,note_off,114,0,0,,7,,,79,127
6314,note_off,0,0,0,,1,,,61,127
6315,note_on,1,0,0,,10,,,57,127
6315,note_on,0,0,0,,6,,,78,127
6429,note_off,114,0,0,,6,,,78,127
6430,note_on,1,0,0,,4,,,76,127
6544,note_off,114,0,0,,4,,,76,127
6544,note_off,0,0,0,,10,,,57,127
6544,note_off,0,0,0,,4,,,64,127
6545,note_on,1,0,0,,2,,,62,127
6545,note_on,0,0,0,,6,,,78,127
6659,note_off,114,0,0,,6,,,78,127
6660,note_on,1,0,0,,2,,,74,127
6774,note_off,114,0,0,,2,,,74,127
6774,note_off,0,0,0,,2,,,62,127
6775,note_on,1,0,0,,7,,,55,127
6775,note_on,0,0,0,,4,,,64,127
6775,note_on,0,0,0,,4,,,76,127
6889,note_off,114,0,0,,4,,,76,127
6890,note_on,1,0,0,,12,,,71,127
7004,note_off,114,0,0,,12,,,71,127
7004,note_off,0,0,0,,4,,,64,127
7004,note_off,0,0,0,,7,,,55,127
7005,note_on,1,0,0,,6,,,66,127
7005,note_on,0,0,0,,10,,,57,127
7005,note_on,0,0,0,,2,,,74,127
7234,note_off,229,0,0,,6,,,66,127
7235,note_on,1,0,0,,4,,,64,127
7293,note_off,58,0,0,,2,,,74,127
7293,note_on,0,0,0,,1,,,73,127
7349,note_off,56,0,0,,1,,,73,127
7350,note_on,1,0,0,,12,,,71,127
7406,note_off,56,0,0,,12,,,71,127
7407,note_on,1,0,0,,1,,,73,127
7463,note_off,56,0,0,,1,,,73,127
7463,note_off,0,0,0,,4,,,64,127
7463,note_off,0,0,0,,10,,,57,127
7464,note_on,1,0,0,,2,,,50,127
7464,note_on,0,0,0,,2,,,62,127
7464,note_on,0,0,0,,2,,,74,127
7693,note_off,229,0,0,,2,,,74,127
7694,note_on,1,0,0,,2,,,86,127
7808,note_off,114,0,0,,2,,,86,127
7809,note_on,1,0,0,,10,,,81,127
7923,note_off,114,0,0,,10,,,81,127
7924,note_on,1,0,0,,6,,,78,127
8038,note_off,114,0,0,,6,,,78,127
8039,note_on,1,0,0,,2,,,74,127
8153,note_off,114,0,0,,2,,,74,127
8153,note_off,0,0,0,,2,,,62,127
8153,note_off,0,0,0,,2,,,50,127
8154,note_on,1,0,0,,10,,,69,127
8268,note_off,114,0,0,,10,,,69,127
8269,note_on,1,0,0,,6,,,66,127
8383,note_off,114,0,0,,6,,,66,127
8384,note_on,1,0,0,,10,,,45,127
8384,note_on,0,0,0,,10,,,57,127
8384,note_on,0,0,0,,10,,,69,127
8384,note_on,0,0,0,,7,,,67,127
8384,note_on,0,0,0,,1,,,73,127
8613,note_off,229,0,0,,1,,,73,127
8613,note_off,0,0,0,,7,,,67,127
8613,note_off,0,0,0,,10,,,69,127
8614,note_on,1,0,0,,7,,,79,127
8728,note_off,114,0,0,,7,,,79,127
8729,note_on,1,0,0,,4,,,76,127
8843,note_off,114,0,0,,4,,,76,127
8844,note_on,1,0,0,,1,,,73,127
8958,note_off,114,0,0,,1,,,73,127
8959,note_on,1,0,0,,7,,,67,127
9073,note_off,114,0,0,,7,,,67,127
9073,note_off,0,0,0,,10,,,57,127
9073,note_off,0,0,0,,10,,,45,127
9074,note_on,1,0,0,,4,,,64,127
9188,note_off,114,0,0,,4,,,64,127
9189,note_on,1,0,0,,1,,,61,127
9303,note_off,114,0,0,,1,,,61,127
9304,note_on,1,0,0,,2,,,38,127
9304,note_on,0,0,0,,2,,,50,127
9304,note_on,0,0,0,,6,,,66,127
9304,note_on,0,0,0,,10,,,69,127
9304,note_on,0,0,0,,2,,,62,127
9533,note_off,229,0,0,,2,,,62,127
9533,note_off,0,0,0,,10,,,69,127
9533,note_off,0,0,0,,6,,,66,127
9534,note_on,1,0,0,,2,,,86,127
9648,note_off,114,0,0,,2,,,86,127
9649,note_on,1,0,0,,10,,,81,127
9763,note_off,114,0,0,,10,,,81,127
9764,note_on,1,0,0,,6,,,78,127
9878,note_off,114,0,0,,6,,,78,127
9879,note_on,1,0,0,,2,,,74,127
9993,note_off,114,0,0,,2,,,74,127
9993,note_off,0,0,0,,2,,,50,127
9993,note_off,0,0,0,,2,,,38,127
9994,note_on,1,0,0,,10,,,69,127
10108,note_off,114,0,0,,10,,,69,127
10109,note_on,1,0,0,,6,,,66,127
10223,note_off,114,0,0,,6,,,66,127
10224,note_on,1,0,0,,10,,,45,127
10224,note_on,0,0,0,,10,,,57,127
10224,note_on,0,0,0,,1,,,73,127
10224,note_on,0,0,0,,10,,,69,127
10224,note_on,0,0,0,,7,,,67,127
10453,note_off,229,0,0,,7,,,67,127
10453,note_off,0,0,0,,10,,,69,127
10453,note_off,0,0,0,,1,,,73,127
10454,note_on,1,0,0,,7,,,79,127
10568,note_off,114,0,0,,7,,,79,127
10569,note_on,1,0,0,,4,,,76,127
10683,note_off,114,0,0,,4,,,76,127
10684,note_on,1,0,0,,1,,,73,127
10798,note_off,114,0,0,,1,,,73,127
10799,note_on,1,0,0,,7,,,67,127
10913,note_off,114,0,0,,7,,,67,127
10913,note_off,0,0,0,,10,,,57,127
10913,note_off,0,0,0,,10,,,45,127
10914,note_on,1,0,0,,4,,,64,127
11028,note_off,114,0,0,,4,,,64,127
11029,note_on,1,0,0,,1,,,61,127
11143,note_off,114,0,0,,1,,,61,127
11144,note_on,1,0,0,,2,,,38,127
11144,note_on,0,0,0,,2,,,50,127
11144,note_on,0,0,0,,6,,,66,127
11144,note_on,0,0,0,,10,,,69,127
11144,note_on,0,0,0,,2,,,62,127
11373,note_off,229,0,0,,2,,,62,127
11373,note_off,0,0,0,,10,,,69,127
11373,note_off,0,0,0,,6,,,66,127
11373,note_off,0,0,0,,2,,,50,127
11373,note_off,0,0,0,,2,,,38,127
11374,note_on,1,0,0,,2,,,74,127
11374,note_on,0,0,0,,10,,,81,127
11488,note_off,114,0,0,,2,,,74,127
11489,note_on,1,0,0,,10,,,69,127
11603,note_off,114,0,0,,10,,,69,127
11604,note_on,1,0,0,,6,,,66,127
11718,note_off,114,0,0,,6,,,66,127
11719,note_on,1,0,0,,2,,,62,127
11833,note_off,114,0,0,,2,,,62,127
11833,note_off,0,0,0,,10,,,81,127
11834,note_on,1,0,0,,10,,,57,127
11834,note_on,0,0,0,,6,,,78,127
11948,note_off,114,0,0,,10,,,57,127
11949,note_on,1,0,0,,2,,,50,127
12063,note_off,114,0,0,,2,,,50,127
12063,note_off,0,0,0,,6,,,78,127
12064,note_on,1,0,0,,1,,,49,127
12064,note_on,0,0,0,,4,,,76,127
12293,note_off,229,0,0,,4,,,76,127
12293,note_off,0,0,0,,1,,,49,127
12294,note_on,1,0,0,,1,,,73,127
12294,note_on,0,0,0,,10,,,81,127
12408,note_off,114,0,0,,1,,,73,127
12409,note_on,1,0,0,,10,,,69,127
12523,note_off,114,0,0,,10,,,69,127
12524,note_on,1,0,0,,4,,,64,127
12638,note_off,114,0,0,,4,,,64,127
12639,note_on,1,0,0,,1,,,61,127
12753,note_off,114,0,0,,1,,,61,127
12753,note_off,0,0,0,,10,,,81,127
12754,note_on,1,0,0,,10,,,57,127
12754,note_on,0,0,0,,4,,,76,127
12868,note_off,114,0,0,,10,,,57,127
12869,note_on,1,0,0,,1,,,49,127
12983,note_off,114,0,0,,1,,,49,127
12983,note_off,0,0,0,,4,,,76,127
12984,note_on,1,0,0,,12,,,47,127
12984,note_on,0,0,0,,2,,,74,127
13213,note_off,229,0,0,,2,,,74,127
13213,note_off,0,0,0,,12,,,47,127
13214,note_on,1,0,0,,12,,,71,127
13214,note_on,0,0,0,,12,,,83,127
13328,note_off,114,0,0,,12,,,71,127
13329,note_on,1,0,0,,8,,,68,127
13443,note_off,114,0,0,,8,,,68,127
13444,note_on,1,0,0,,2,,,62,127
13558,note_off,114,0,0,,2,,,62,127
13559,note_on,1,0,0,,12,,,59,127
13673,note_off,114,0,0,,12,,,59,127
13673,note_off,0,0,0,,12,,,83,127
13674,note_on,1,0,0,,8,,,56,127
13674,note_on,0,0,0,,2,,,74,127
13788,note_off,114,0,0,,8,,,56,127
13789,note_on,1,0,0,,12,,,47,127
13903,note_off,114,0,0,,12,,,47,127
13903,note_off,0,0,0,,2,,,74,127
13904,note_on,1,0,0,,10,,,45,127
13904,note_on,0,0,0,,1,,,73,127
14133,note_off,229,0,0,,1,,,73,127
14133,note_off,0,0,0,,10,,,45,127
14134,note_on,1,0,0,,10,,,69,127
14134,note_on,0,0,0,,10,,,81,127
14248,note_off,114,0,0,,10,,,69,127
14249,note_on,1,0,0,,4,,,64,127
14363,note_off,114,0,0,,4,,,64,127
14364,note_on,1,0,0,,1,,,61,127
14478,note_off,114,0,0,,1,,,61,127
14479,note_on,1,0,0,,10,,,57,127
14593,note_off,114,0,0,,10,,,57,127
14593,note_off,0,0,0,,10,,,81,127
14594,note_on,1,0,0,,4,,,52,127
14594,note_on,0,0,0,,4,,,76,127
14708,note_off,114,0,0,,4,,,52,127
14709,note_on,1,0,0,,10,,,45,127
14823,note_off,114,0,0,,10,,,45,127
14823,note_off,0,0,0,,4,,,76,127
14824,note_on,1,0,0,,2,,,38,127
14824,note_on,0,0,0,,6,,,78,127
15053,note_off,229,0,0,,6,,,78,127
15053,note_off,0,0,0,,2,,,38,127
15054,note_on,1,0,0,,2,,,62,127
15054,note_on,0,0,0,,10,,,81,127
15168,note_off,114,0,0,,2,,,62,127
15169,note_on,1,0,0,,10,,,57,127
15283,note_off,114,0,0,,10,,,57,127
15284,note_on,1,0,0,,6,,,54,127
15398,note_off,114,0,0,,6,,,54,127
15399,note_on,1,0,0,,2,,,50,127
15513,note_off,114,0,0,,2,,,50,127
15513,note_off,0,0,0,,10,,,81,127
15514,note_on,1,0,0,,10,,,45,127
15514,note_on,0,0,0,,6,,,78,127
15628,note_off,114,0,0,,10,,,45,127
15629,note_on,1,0,0,,6,,,42,127
15743,note_off,114,0,0,,6,,,42,127
15743,note_off,0,0,0,,6,,,78,127
15744,note_on,1,0,0,,1,,,49,127
15744,note_on,0,0,0,,4,,,76,127
15973,note_off,229,0,0,,4,,,76,127
15973,note_off,0,0,0,,1,,,49,127
15974,note_on,1,0,0,,10,,,69,127
15974,note_on,0,0,0,,10,,,81,127
16088,note_off,114,0,0,,10,,,69,127
16089,note_on,1,0,0,,4,,,64,127
16203,note_off,114,0,0,,4,,,64,127
16204,note_on,1,0,0,,1,,,61,127
16318,note_off,114,0,0,,1,,,61,127
16319,note_on,1,0,0,,10,,,57,127
16433,note_off,114,0,0,,10,,,57,127
16433,note_off,0,0,0,,10,,,81,127
16434,note_on,1,0,0,,4,,,52,127
16434,note_on,0,0,0,,4,,,76,127
16548,note_off,114,0,0,,4,,,52,127
16549,note_on,1,0,0,,1,,,49,127
16663,note_off,114,0,0,,1,,,49,127
16664,note_on,1,0,0,,2,,,50,127
16779,note_off,115,0,0,,4,,,76,127
16779,note_on,0,0,0,,6,,,78,127
16893,note_off,114,0,0,,6,,,78,127
16893,note_off,0,0,0,,2,,,50,127
16894,note_on,1,0,0,,6,,,54,127
16894,note_on,0,0,0,,4,,,76,127
17008,note_off,114,0,0,,4,,,76,127
17009,note_on,1,0,0,,2,,,74,127
17123,note_off,114,0,0,,2,,,74,127
17123,note_off,0,0,0,,6,,,54,127
17124,note_on,1,0,0,,4,,,52,127
17124,note_on,0,0,0,,1,,,73,127
17238,note_off,114,0,0,,1,,,73,127
17239,note_on,1,0,0,,12,,,71,127
17353,note_off,114,0,0,,12,,,71,127
17354,note_on,1,0,0,,4,,,40,127
17354,note_on,0,0,0,,10,,,69,127
17468,note_off,114,0,0,,10,,,69,127
17469,note_on,1,0,0,,8,,,68,127
17583,note_off,114,0,0,,8,,,68,127
17583,note_off,0,0,0,,4,,,40,127
17583,note_off,0,0,0,,4,,,52,127
17584,note_on,1,0,0,,10,,,45,127
17584,note_on,0,0,0,,10,,,57,127
17584,note_on,0,0,0,,10,,,69,127
17813,note_off,229,0,0,,10,,,69,127
17814,note_on,1,0,0,,10,,,81,127
17928,note_off,114,0,0,,10,,,81,127
17929,note_on,1,0,0,,4,,,76,127
18043,note_off,114,0,0,,4,,,76,127
18044,note_on,1,0,0,,1,,,73,127
18158,note_off,114,0,0,,1,,,73,127
18159,note_on,1,0,0,,10,,,69,127
18273,note_off,114,0,0,,10,,,69,127
18273,note_off,0,0,0,,10,,,57,127
18273,note_off,0,0,0,,10,,,45,127
18274,note_on,1,0,0,,4,,,64,127
18388,note_off,114,0,0,,4,,,64,127
18389,note_on,1,0,0,,1,,,61,127
18503,note_off,114,0,0,,1,,,61,127
18504,note_on,1,0,0,,2,,,50,127
18504,note_on,0,0,0,,2,,,38,127
18504,note_on,0,0,0,,6,,,66,127
18504,note_on,0,0,0,,10,,,69,127
18504,note_on,0,0,0,,2,,,62,127
18733,note_off,229,0,0,,2,,,62,127
18733,note_off,0,0,0,,10,,,69,127
18733,note_off,0,0,0,,6,,,66,127
18734,note_on,1,0,0,,10,,,81,127
18848,note_off,114,0,0,,10,,,81,127
18849,note_on,1,0,0,,6,,,78,127
18963,note_off,114,0,0,,6,,,78,127
18964,note_on,1,0,0,,2,,,74,127
19078,note_off,114,0,0,,2,,,74,127
19079,note_on,1,0,0,,10,,,69,127
19193,note_off,114,0,0,,10,,,69,127
19193,note_off,0,0,0,,2,,,38,127
19193,note_off,0,0,0,,2,,,50,127
19194,note_on,1,0,0,,6,,,66,127
19308,note_off,114,0,0,,6,,,66,127
19309,note_on,1,0,0,,2,,,62,127
19423,note_off,114,0,0,,2,,,62,127
19424,note_on,1,0,0,,10,,,45,127
19424,note_on,0,0,0,,10,,,57,127
19424,note_on,0,0,0,,1,,,61,127
19424,note_on,0,0,0,,10,,,69,127
19424,note_on,0,0,0,,4,,,64,127
19653,note_off,229,0,0,,4,,,64,127
19653,note_off,0,0,0,,10,,,69,127
19653,note_off,0,0,0,,1,,,61,127
19654,note_on,1,0,0,,10,,,81,127
19768,note_off,114,0,0,,10,,,81,127
19769,note_on,1,0,0,,4,,,76,127
19883,note_off,114,0,0,,4,,,76,127
19884,note_on,1,0,0,,1,,,73,127
19998,note_off,114,0,0,,1,,,73,127
19999,note_on,1,0,0,,10,,,69,127
20113,note_off,114,0,0,,10,,,69,127
20113,note_off,0,0,0,,10,,,57,127
20113,note_off,0,0,0,,10,,,45,127
20114,note_on,1,0,0,,4,,,64,127
20228,note_off,114,0,0,,4,,,64,127
20229,note_on,1,0,0,,1,,,61,127
20343,note_off,114,0,0,,1,,,61,127
20344,note_on,1,0,0,,2,,,50,127
20344,note_on,0,0,0,,6,,,66,127
20458,note_off,114,0,0,,6,,,66,127
20459,note_on,1,0,0,,2,,,62,127
20573,note_off,114,0,0,,2,,,62,127
20574,note_on,1,0,0,,2,,,62,127
20574,note_on,0,0,0,,2,,,74,127
20688,note_off,114,0,0,,2,,,74,127
20689,note_on,1,0,0,,12,,,71,127
20803,note_off,114,0,0,,12,,,71,127
20803,note_off,0,0,0,,2,,,62,127
20803,note_off,0,0,0,,2,,,50,127
20804,note_on,1,0,0,,10,,,57,127
20804,note_on,0,0,0,,4,,,52,127
20804,note_on,0,0,0,,1,,,61,127
20804,note_on,0,0,0,,1,,,73,127
21033,note_off,229,0,0,,1,,,61,127
21033,note_off,0,0,0,,10,,,57,127
21034,note_on,1,0,0,,12,,,59,127
21034,note_on,0,0,0,,8,,,56,127
21092,note_off,58,0,0,,1,,,73,127
21092,note_on,0,0,0,,12,,,71,127
21148,note_off,56,0,0,,12,,,71,127
21149,note_on,1,0,0,,10,,,69,127
21205,note_off,56,0,0,,10,,,69,127
21206,note_on,1,0,0,,12,,,71,127
21262,note_off,56,0,0,,12,,,71,127
21262,note_off,0,0,0,,8,,,56,127
21262,note_off,0,0,0,,12,,,59,127
21262,note_off,0,0,0,,4,,,52,127
21263,note_on,1,0,0,,10,,,45,127
21263,note_on,0,0,0,,10,,,57,127
21263,note_on,0,0,0,,10,,,69,127
21492,note_off,229,0,0,,10,,,69,127
21492,note_off,0,0,0,,10,,,57,127
21492,note_off,0,0,0,,10,,,45,127
21493,note_on,1,0,0,,4,,,64,127
21493,note_on,0,0,0,,10,,,57,127
21493,note_on,0,0,0,,10,,,81,127
21722,note_off,229,0,0,,10,,,57,127
21722,note_off,0,0,0,,4,,,64,127
21723,note_on,1,0,0,,5,,,65,127
21723,note_on,0,0,0,,10,,,57,127
21837,note_off,114,0,0,,10,,,81,127
21838,note_on,1,0,0,,8,,,80,127
21952,note_off,114,0,0,,8,,,80,127
21952,note_off,0,0,0,,10,,,57,127
21952,note_off,0,0,0,,5,,,65,127
21953,note_on,1,0,0,,8,,,68,127
21953,note_on,0,0,0,,10,,,57,127
21953,note_on,0,0,0,,12,,,83,127
22067,note_off,114,0,0,,12,,,83,127
22068,note_on,1,0,0,,2,,,74,127
22182,note_off,114,0,0,,2,,,74,127
22182,note_off,0,0,0,,10,,,57,127
22182,note_off,0,0,0,,8,,,68,127
22183,note_on,1,0,0,,10,,,57,127
22183,note_on,0,0,0,,10,,,69,127
22183,note_on,0,0,0,,2,,,74,127
22297,note_off,114,0,0,,2,,,74,127
22298,note_on,1,0,0,,0,,,72,127
22412,note_off,114,0,0,,0,,,72,127
22412,note_off,0,0,0,,10,,,69,127
22412,note_off,0,0,0,,10,,,57,127
22413,note_on,1,0,0,,10,,,57,127
22413,note_on,0,0,0,,4,,,64,127
22413,note_on,0,0,0,,10,,,81,127
22642,note_off,229,0,0,,4,,,64,127
22642,note_off,0,0,0,,10,,,57,127
22643,note_on,1,0,0,,10,,,57,127
22643,note_on,0,0,0,,5,,,65,127
22757,note_off,114,0,0,,10,,,81,127
22758,note_on,1,0,0,,8,,,80,127
22872,note_off,114,0,0,,8,,,80,127
22872,note_off,0,0,0,,5,,,65,127
22872,note_off,0,0,0,,10,,,57,127
22873,note_on,1,0,0,,10,,,57,127
22873,note_on,0,0,0,,8,,,68,127
22873,note_on,0,0,0,,12,,,83,127
22987,note_off,114,0,0,,12,,,83,127
22988,note_on,1,0,0,,2,,,74,127
23102,note_off,114,0,0,,2,,,74,127
23102,note_off,0,0,0,,8,,,68,127
23102,note_off,0,0,0,,10,,,57,127
23103,note_on,1,0,0,,10,,,69,127
23103,note_on,0,0,0,,2,,,74,127
23217,note_off,114,0,0,,2,,,74,127
23218,note_on,1,0,0,,0,,,72,127
23332,note_off,114,0,0,,0,,,72,127
23333,note_on,1,0,0,,5,,,77,127
23333,note_on,0,0,0,,0,,,84,127
23562,note_off,229,0,0,,10,,,69,127
23563,note_on,1,0,0,,7,,,67,127
23677,note_off,114,0,0,,0,,,84,127
23678,note_on,1,0,0,,12,,,83,127
23792,note_off,114,0,0,,12,,,83,127
23792,note_off,0,0,0,,5,,,77,127
23793,note_on,1,0,0,,4,,,76,127
23793,note_on,0,0,0,,10,,,81,127
23907,note_off,114,0,0,,10,,,81,127
23908,note_on,1,0,0,,12,,,83,127
24022,note_off,114,0,0,,7,,,67,127
24023,note_on,1,0,0,,5,,,65,127
24137,note_off,114,0,0,,12,,,83,127
24138,note_on,1,0,0,,10,,,81,127
24252,note_off,114,0,0,,10,,,81,127
24252,note_off,0,0,0,,4,,,76,127
24253,note_on,1,0,0,,2,,,74,127
24253,note_on,0,0,0,,8,,,80,127
24367,note_off,114,0,0,,8,,,80,127
24368,note_on,1,0,0,,10,,,81,127
24482,note_off,114,0,0,,5,,,65,127
24483,note_on,1,0,0,,4,,,64,127
24597,note_off,114,0,0,,10,,,81,127
24598,note_on,1,0,0,,7,,,79,127
24712,note_off,114,0,0,,7,,,79,127
24712,note_off,0,0,0,,2,,,74,127
24713,note_on,1,0,0,,0,,,72,127
24713,note_on,0,0,0,,6,,,78,127
24827,note_off,114,0,0,,6,,,78,127
24828,note_on,1,0,0,,7,,,79,127
24942,note_off,114,0,0,,4,,,64,127
24943,note_on,1,0,0,,2,,,62,127
25057,note_off,114,0,0,,7,,,79,127
25058,note_on,1,0,0,,5,,,77,127
25172,note_off,114,0,0,,5,,,77,127
25172,note_off,0,0,0,,0,,,72,127
25173,note_on,1,0,0,,12,,,71,127
25173,note_on,0,0,0,,4,,,76,127
25287,note_off,114,0,0,,4,,,76,127
25288,note_on,1,0,0,,5,,,77,127
25402,note_off,114,0,0,,2,,,62,127
25403,note_on,1,0,0,,0,,,60,127
25517,note_off,114,0,0,,5,,,77,127
25518,note_on,1,0,0,,4,,,76,127
25632,note_off,114,0,0,,4,,,76,127
25632,note_off,0,0,0,,12,,,71,127
25633,note_on,1,0,0,,10,,,69,127
25633,note_on,0,0,0,,3,,,75,127
25747,note_off,114,0,0,,3,,,75,127
25748,note_on,1,0,0,,4,,,76,127
25862,note_off,114,0,0,,0,,,60,127
25863,note_on,1,0,0,,12,,,59,127
25977,note_off,114,0,0,,4,,,76,127
25978,note_on,1,0,0,,2,,,74,127
26092,note_off,114,0,0,,2,,,74,127
26092,note_off,0,0,0,,10,,,69,127
26093,note_on,1,0,0,,7,,,67,127
26093,note_on,0,0,0,,1,,,73,127
26207,note_off,114,0,0,,1,,,73,127
26208,note_on,1,0,0,,2,,,74,127
26322,note_off,114,0,0,,12,,,59,127
26323,note_on,1,0,0,,10,,,57,127
26437,note_off,114,0,0,,2,,,74,127
26438,note_on,1,0,0,,0,,,72,127
26552,note_off,114,0,0,,0,,,72,127
26552,note_off,0,0,0,,7,,,67,127
26553,note_on,1,0,0,,5,,,65,127
26553,note_on,0,0,0,,12,,,71,127
26667,note_off,114,0,0,,12,,,71,127
26668,note_on,1,0,0,,0,,,72,127
26782,note_off,114,0,0,,0,,,72,127
26782,note_off,0,0,0,,10,,,57,127
26783,note_on,1,0,0,,7,,,55,127
26783,note_on,0,0,0,,12,,,71,127
26897,note_off,114,0,0,,12,,,71,127
26898,note_on,1,0,0,,0,,,72,127
27012,note_off,114,0,0,,0,,,72,127
27012,note_off,0,0,0,,5,,,65,127
27013,note_on,1,0,0,,4,,,64,127
27013,note_on,0,0,0,,2,,,74,127
27127,note_off,114,0,0,,2,,,74,127
27128,note_on,1,0,0,,4,,,76,127
27242,note_off,114,0,0,,4,,,76,127
27242,note_off,0,0,0,,7,,,55,127
27243,note_on,1,0,0,,5,,,53,127
27243,note_on,0,0,0,,2,,,74,127
27357,note_off,114,0,0,,2,,,74,127
27358,note_on,1,0,0,,0,,,72,127
27472,note_off,114,0,0,,0,,,72,127
27472,note_off,0,0,0,,4,,,64,127
27473,note_on,1,0,0,,2,,,62,127
27473,note_on,0,0,0,,12,,,71,127
27473,note_on,0,0,0,,10,,,81,127
27587,note_off,114,0,0,,12,,,71,127
27588,note_on,1,0,0,,10,,,69,127
27702,note_off,114,0,0,,10,,,69,127
27702,note_off,0,0,0,,10,,,81,127
27702,note_off,0,0,0,,2,,,62,127
27702,note_off,0,0,0,,5,,,53,127
27703,note_on,1,0,0,,12,,,59,127
27703,note_on,0,0,0,,4,,,52,127
27703,note_on,0,0,0,,4,,,64,127
27703,note_on,0,0,0,,12,,,71,127
27703,note_on,0,0,0,,8,,,80,127
27932,note_off,229,0,0,,8,,,80,127
27932,note_off,0,0,0,,12,,,71,127
27933,note_on,1,0,0,,12,,,83,127
28047,note_off,114,0,0,,12,,,83,127
28048,note_on,1,0,0,,8,,,80,127
28162,note_off,114,0,0,,8,,,80,127
28163,note_on,1,0,0,,4,,,76,127
28277,note_off,114,0,0,,4,,,76,127
28278,note_on,1,0,0,,12,,,71,127
28392,note_off,114,0,0,,12,,,71,127
28392,note_off,0,0,0,,4,,,64,127
28392,note_off,0,0,0,,4,,,52,127
28392,note_off,0,0,0,,12,,,59,127
28393,note_on,1,0,0,,8,,,68,127
28507,note_off,114,0,0,,8,,,68,127
28508,note_on,1,0,0,,4,,,64,127
28622,note_off,114,0,0,,4,,,64,127
28623,note_on,1,0,0,,10,,,45,127
28623,note_on,0,0,0,,10,,,57,127
28623,note_on,0,0,0,,1,,,73,127
28623,note_on,0,0,0,,10,,,69,127
28623,note_on,0,0,0,,4,,,64,127
28852,note_off,229,0,0,,4,,,64,127
28852,note_off,0,0,0,,10,,,69,127
28852,note_off,0,0,0,,1,,,73,127
28853,note_on,1,0,0,,1,,,85,127
28967,note_off,114,0,0,,1,,,85,127
28968,note_on,1,0,0,,10,,,81,127
29082,note_off,114,0,0,,10,,,81,127
29083,note_on,1,0,0,,4,,,76,127
29197,note_off,114,0,0,,4,,,76,127
29198,note_on,1,0,0,,1,,,73,127
29312,note_off,114,0,0,,1,,,73,127
29312,note_off,0,0,0,,10,,,57,127
29312,note_off,0,0,0,,10,,,45,127
29313,note_on,1,0,0,,10,,,69,127
29427,note_off,114,0,0,,10,,,69,127
29428,note_on,1,0,0,,4,,,64,127
29542,note_off,114,0,0,,4,,,64,127
29543,note_on,1,0,0,,4,,,52,127
29543,note_on,0,0,0,,4,,,40,127
29543,note_on,0,0,0,,4,,,64,127
29543,note_on,0,0,0,,2,,,74,127
29543,note_on,0,0,0,,12,,,71,127
29543,note_on,0,0,0,,8,,,68,127
29772,note_off,229,0,0,,8,,,68,127
29772,note_off,0,0,0,,12,,,71,127
29772,note_off,0,0,0,,2,,,74,127
29772,note_off,0,0,0,,4,,,64,127
29773,note_on,1,0,0,,12,,,83,127
29887,note_off,114,0,0,,12,,,83,127
29888,note_on,1,0,0,,8,,,80,127
30002,note_off,114,0,0,,8,,,80,127
30003,note_on,1,0,0,,4,,,76,127
30117,note_off,114,0,0,,4,,,76,127
30118,note_on,1,0,0,,12,,,71,127
30232,note_off,114,0,0,,12,,,71,127
30232,note_off,0,0,0,,4,,,40,127
30232,note_off,0,0,0,,4,,,52,127
30233,note_on,1,0,0,,8,,,68,127
30347,note_off,114,0,0,,8,,,68,127
30348,note_on,1,0,0,,4,,,64,127
30462,note_off,114,0,0,,4,,,64,127
30463,note_on,1,0,0,,10,,,45,127
30463,note_on,0,0,0,,10,,,57,127
30463,note_on,0,0,0,,10,,,69,127
30463,note_on,0,0,0,,4,,,64,127
30463,note_on,0,0,0,,1,,,73,127
30692,note_off,229,0,0,,1,,,73,127
30692,note_off,0,0,0,,4,,,64,127
30692,note_off,0,0,0,,10,,,69,127
30693,note_on,1,0,0,,1,,,85,127
30807,note_off,114,0,0,,1,,,85,127
30808,note_on,1,0,0,,10,,,81,127
30922,note_off,114,0,0,,10,,,81,127
30923,note_on,1,0,0,,4,,,76,127
31037,note_off,114,0,0,,4,,,76,127
31038,note_on,1,0,0,,1,,,73,127
31152,note_off,114,0,0,,1,,,73,127
31152,note_off,0,0,0,,10,,,57,127
31152,note_off,0,0,0,,10,,,45,127
31153,note_on,1,0,0,,10,,,69,127
31267,note_off,114,0,0,,10,,,69,127
31268,note_on,1,0,0,,4,,,64,127
31382,note_off,114,0,0,,4,,,64,127
31383,note_on,1,0,0,,4,,,40,127
31383,note_on,0,0,0,,4,,,52,127
31383,note_on,0,0,0,,8,,,68,127
31383,note_on,0,0,0,,2,,,74,127
31383,note_on,0,0,0,,12,,,71,127
31383,note_on,0,0,0,,4,,,64,127
31612,note_off,229,0,0,,4,,,64,127
31612,note_off,0,0,0,,12,,,71,127
31612,note_off,0,0,0,,2,,,74,127
31612,note_off,0,0,0,,8,,,68,127
31613,note_on,1,0,0,,12,,,83,127
31727,note_off,114,0,0,,12,,,83,127
31728,note_on,1,0,0,,8,,,80,127
31842,note_off,114,0,0,,8,,,80,127
31843,note_on,1,0,0,,4,,,76,127
31957,note_off,114,0,0,,4,,,76,127
31958,note_on,1,0,0,,12,,,71,127
32072,note_off,114,0,0,,12,,,71,127
32072,note_off,0,0,0,,4,,,52,127
32072,note_off,0,0,0,,4,,,40,127
32073,note_on,1,0,0,,8,,,68,127
32187,note_off,114,0,0,,8,,,68,127
32188,note_on,1,0,0,,4,,,64,127
32302,note_off,114,0,0,,4,,,64,127
32303,note_on,1,0,0,,10,,,57,127
32303,note_on,0,0,0,,1,,,73,127
32417,note_off,114,0,0,,1,,,73,127
32418,note_on,1,0,0,,10,,,69,127
32532,note_off,114,0,0,,10,,,69,127
32532,note_off,0,0,0,,10,,,57,127
32533,note_on,1,0,0,,2,,,50,127
32533,note_on,0,0,0,,2,,,74,127
32647,note_off,114,0,0,,2,,,74,127
32648,note_on,1,0,0,,12,,,71,127
32762,note_off,114,0,0,,12,,,71,127
32762,note_off,0,0,0,,2,,,50,127
32763,note_on,1,0,0,,4,,,52,127
32763,note_on,0,0,0,,1,,,73,127
32993,note_on,230,0,0,,4,,,40,127
33051,note_off,58,0,0,,1,,,73,127
33051,note_on,0,0,0,,12,,,71,127
33107,note_off,56,0,0,,12,,,71,127
33108,note_on,1,0,0,,10,,,69,127
33164,note_off,56,0,0,,10,,,69,127
33165,note_on,1,0,0,,12,,,71,127
33221,note_off,56,0,0,,12,,,71,127
33221,note_off,0,0,0,,4,,,40,127
33221,note_off,0,0,0,,4,,,52,127
33222,note_on,1,0,0,,10,,,45,127
33222,note_on,0,0,0,,10,,,69,127
33451,note_off,229,0,0,,10,,,69,127
33451,note_off,0,0,0,,10,,,45,127
33452,note_on,1,0,0,,10,,,69,127
33452,note_on,0,0,0,,10,,,81,127
33566,note_off,114,0,0,,10,,,69,127
33567,note_on,1,0,0,,4,,,64,127
33681,note_off,114,0,0,,4,,,64,127
33682,note_on,1,0,0,,1,,,61,127
33796,note_off,114,0,0,,1,,,61,127
33797,note_on,1,0,0,,10,,,57,127
33911,note_off,114,0,0,,10,,,57,127
33911,note_off,0,0,0,,10,,,81,127
33912,note_on,1,0,0,,4,,,52,127
33912,note_on,0,0,0,,4,,,76,127
34026,note_off,114,0,0,,4,,,52,127
34027,note_on,1,0,0,,10,,,45,127
34141,note_off,114,0,0,,10,,,45,127
34141,note_off,0,0,0,,4,,,76,127
34142,note_on,1,0,0,,2,,,38,127
34142,note_on,0,0,0,,6,,,78,127
34371,note_off,229,0,0,,6,,,78,127
34371,note_off,0,0,0,,2,,,38,127
34372,note_on,1,0,0,,2,,,62,127
34372,note_on,0,0,0,,10,,,81,127
34486,note_off,114,0,0,,2,,,62,127
34487,note_on,1,0,0,,10,,,57,127
34601,note_off,114,0,0,,10,,,57,127
34602,note_on,1,0,0,,6,,,54,127
34716,note_off,114,0,0,,6,,,54,127
34717,note_on,1,0,0,,2,,,50,127
34831,note_off,114,0,0,,2,,,50,127
34831,note_off,0,0,0,,10,,,81,127
34832,note_on,1,0,0,,10,,,45,127
34832,note_on,0,0,0,,6,,,78,127
34946,note_off,114,0,0,,10,,,45,127
34947,note_on,1,0,0,,6,,,42,127
35061,note_off,114,0,0,,6,,,42,127
35061,note_off,0,0,0,,6,,,78,127
35062,note_on,1,0,0,,1,,,49,127
35062,note_on,0,0,0,,4,,,76,127
35291,note_off,229,0,0,,4,,,76,127
35291,note_off,0,0,0,,1,,,49,127
35292,note_on,1,0,0,,10,,,69,127
35292,note_on,0,0,0,,10,,,81,127
35406,note_off,114,0,0,,10,,,69,127
35407,note_on,1,0,0,,4,,,64,127
35521,note_off,114,0,0,,4,,,64,127
35522,note_on,1,0,0,,1,,,61,127
35636,note_off,114,0,0,,1,,,61,127
35637,note_on,1,0,0,,10,,,57,127
35751,note_off,114,0,0,,10,,,57,127
35751,note_off,0,0,0,,10,,,81,127
35752,note_on,1,0,0,,4,,,52,127
35752,note_on,0,0,0,,4,,,76,127
35866,note_off,114,0,0,,4,,,52,127
35867,note_on,1,0,0,,1,,,49,127
35981,note_off,114,0,0,,1,,,49,127
35982,note_on,1,0,0,,2,,,50,127
36097,note_off,115,0,0,,4,,,76,127
36097,note_on,0,0,0,,6,,,78,127
36211,note_off,114,0,0,,6,,,78,127
36211,note_off,0,0,0,,2,,,50,127
36212,note_on,1,0,0,,6,,,54,127
36212,note_on,0,0,0,,4,,,76,127
36326,note_off,114,0,0,,4,,,76,127
36327,note_on,1,0,0,,2,,,74,127
36441,note_off,114,0,0,,2,,,74,127
36441,note_off,0,0,0,,6,,,54,127
36442,note_on,1,0,0,,4,,,52,127
36442,note_on,0,0,0,,1,,,73,127
36556,note_off,114,0,0,,1,,,73,127
36557,note_on,1,0,0,,12,,,71,127
36671,note_off,114,0,0,,12,,,71,127
36672,note_on,1,0,0,,4,,,40,127
36672,note_on,0,0,0,,10,,,69,127
36786,note_off,114,0,0,,10,,,69,127
36787,note_on,1,0,0,,8,,,68,127
36901,note_off,114,0,0,,8,,,68,127
36901,note_off,0,0,0,,4,,,40,127
36901,note_off,0,0,0,,4,,,52,127
36902,note_on,1,0,0,,10,,,45,127
36902,note_on,0,0,0,,10,,,69,127
37131,note_off,229,0,0,,10,,,69,127
37131,note_off,0,0,0,,10,,,45,127
37132,note_on,1,0,0,,10,,,69,127
37132,note_on,0,0,0,,10,,,81,127
37246,note_off,114,0,0,,10,,,69,127
37247,note_on,1,0,0,,4,,,64,127
37361,note_off,114,0,0,,4,,,64,127
37362,note_on,1,0,0,,1,,,61,127
37476,note_off,114,0,0,,1,,,61,127
37477,note_on,1,0,0,,10,,,57,127
37591,note_off,114,0,0,,10,,,57,127
37591,note_off,0,0,0,,10,,,81,127
37592,note_on,1,0,0,,4,,,52,127
37592,note_on,0,0,0,,4,,,76,127
37706,note_off,114,0,0,,4,,,52,127
37707,note_on,1,0,0,,10,,,45,127
37821,note_off,114,0,0,,10,,,45,127
37821,note_off,0,0,0,,4,,,76,127
37822,note_on,1,0,0,,2,,,38,127
37822,note_on,0,0,0,,6,,,78,127
38051,note_off,229,0,0,,6,,,78,127
38051,note_off,0,0,0,,2,,,38,127
38052,note_on,1,0,0,,2,,,62,127
38052,note_on,0,0,0,,10,,,81,127
38166,note_off,114,0,0,,2,,,62,127
38167,note_on,1,0,0,,10,,,57,127
38281,note_off,114,0,0,,10,,,57,127
38282,note_on,1,0,0,,6,,,54,127
38396,note_off,114,0,0,,6,,,54,127
38397,note_on,1,0,0,,2,,,50,127
38511,note_off,114,0,0,,2,,,50,127
38511,note_off,0,0,0,,10,,,81,127
38512,note_on,1,0,0,,10,,,45,127
38512,note_on,0,0,0,,6,,,78,127
38626,note_off,114,0,0,,10,,,45,127
38627,note_on,1,0,0,,6,,,42,127
38741,note_off,114,0,0,,6,,,42,127
38741,note_off,0,0,0,,6,,,78,127
38742,note_on,1,0,0,,1,,,49,127
38742,note_on,0,0,0,,4,,,76,127
38971,note_off,229,0,0,,4,,,76,127
38971,note_off,0,0,0,,1,,,49,127
38972,note_on,1,0,0,,10,,,69,127
38972,note_on,0,0,0,,10,,,81,127
39086,note_off,114,0,0,,10,,,69,127
39087,note_on,1,0,0,,4,,,64,127
39201,note_off,114,0,0,,4,,,64,127
39202,note_on,1,0,0,,1,,,61,127
39316,note_off,114,0,0,,1,,,61,127
39317,note_on,1,0,0,,10,,,57,127
39431,note_off,114,0,0,,10,,,57,127
39431,note_off,0,0,0,,10,,,81,127
39432,note_on,1,0,0,,4,,,52,127
39432,note_on,0,0,0,,4,,,76,127
39546,note_off,114,0,0,,4,,,52,127
39547,note_on,1,0,0,,1,,,49,127
39661,note_off,114,0,0,,1,,,49,127
39662,note_on,1,0,0,,2,,,50,127
39777,note_off,115,0,0,,4,,,76,127
39777,note_on,0,0,0,,6,,,78,127
39891,note_off,114,0,0,,6,,,78,127
39891,note_off,0,0,0,,2,,,50,127
39892,note_on,1,0,0,,6,,,54,127
39892,note_on,0,0,0,,4,,,76,127
40006,note_off,114,0,0,,4,,,76,127
40007,note_on,1,0,0,,2,,,74,127
40121,note_off,114,0,0,,2,,,74,127
40121,note_off,0,0,0,,6,,,54,127
40122,note_on,1,0,0,,4,,,52,127
40122,note_on,0,0,0,,1,,,73,127
40236,note_off,114,0,0,,1,,,73,127
40237,note_on,1,0,0,,12,,,71,127
40351,note_off,114,0,0,,12,,,71,127
40352,note_on,1,0,0,,4,,,40,127
40352,note_on,0,0,0,,10,,,69,127
40466,note_off,114,0,0,,10,,,69,127
40467,note_on,1,0,0,,8,,,68,127
40581,note_off,114,0,0,,8,,,68,127
40581,note_off,0,0,0,,4,,,40,127
40581,note_off,0,0,0,,4,,,52,127
40582,note_on,1,0,0,,10,,,45,127
40582,note_on,0,0,0,,10,,,69,127
40811,note_off,229,0,0,,10,,,69,127
40811,note_off,0,0,0,,10,,,45,127
40812,note_on,1,0,0,,1,,,61,127
40812,note_on,0,0,0,,10,,,81,127
40926,note_off,114,0,0,,10,,,81,127
40927,note_on,1,0,0,,4,,,76,127
41041,note_off,114,0,0,,4,,,76,127
41041,note_off,0,0,0,,1,,,61,127
41042,note_on,1,0,0,,2,,,62,127
41042,note_on,0,0,0,,6,,,78,127
41156,note_off,114,0,0,,6,,,78,127
41157,note_on,1,0,0,,2,,,74,127
41271,note_off,114,0,0,,2,,,74,127
41271,note_off,0,0,0,,2,,,62,127
41272,note_on,1,0,0,,8,,,56,127
41272,note_on,0,0,0,,4,,,76,127
41386,note_off,114,0,0,,4,,,76,127
41387,note_on,1,0,0,,12,,,71,127
41501,note_off,114,0,0,,12,,,71,127
41501,note_off,0,0,0,,8,,,56,127
41502,note_on,1,0,0,,10,,,57,127
41502,note_on,0,0,0,,1,,,73,127
41616,note_off,114,0,0,,1,,,73,127
41617,note_on,1,0,0,,8,,,68,127
41731,note_off,114,0,0,,8,,,68,127
41731,note_off,0,0,0,,10,,,57,127
41732,note_on,1,0,0,,1,,,49,127
41732,note_on,0,0,0,,10,,,69,127
41846,note_off,114,0,0,,10,,,69,127
41847,note_on,1,0,0,,4,,,64,127
41961,note_off,114,0,0,,4,,,64,127
41961,note_off,0,0,0,,1,,,49,127
41962,note_on,1,0,0,,2,,,50,127
41962,note_on,0,0,0,,1,,,73,127
42018,note_off,56,0,0,,1,,,73,127
42019,note_on,1,0,0,,12,,,71,127
42075,note_off,56,0,0,,12,,,71,127
42076,note_on,1,0,0,,1,,,73,127
42132,note_off,56,0,0,,1,,,73,127
42133,note_on,1,0,0,,12,,,71,127
42189,note_off,56,0,0,,12,,,71,127
42189,note_off,0,0,0,,2,,,50,127
42190,note_on,1,0,0,,4,,,52,127
42190,note_on,0,0,0,,1,,,73,127
42246,note_off,56,0,0,,1,,,73,127
42247,note_on,1,0,0,,12,,,71,127
42303,note_off,56,0,0,,12,,,71,127
42304,note_on,1,0,0,,10,,,69,127
42360,note_off,56,0,0,,10,,,69,127
42361,note_on,1,0,0,,12,,,71,127
42417,note_off,56,0,0,,12,,,71,127
42417,note_off,0,0,0,,4,,,52,127
42418,note_on,1,0,0,,10,,,45,127
42418,note_on,0,0,0,,10,,,69,127
42647,note_off,229,0,0,,10,,,69,127
42647,note_off,0,0,0,,10,,,45,127
42648,note_on,1,0,0,,1,,,49,127
42648,note_on,0,0,0,,10,,,69,127
42762,note_off,114,0,0,,10,,,69,127
42763,note_on,1,0,0,,4,,,64,127
42877,note_off,114,0,0,,4,,,64,127
42877,note_off,0,0,0,,1,,,49,127
42878,note_on,1,0,0,,2,,,50,127
42878,note_on,0,0,0,,6,,,66,127
42992,note_off,114,0,0,,6,,,66,127
42993,note_on,1,0,0,,2,,,62,127
43107,note_off,114,0,0,,2,,,62,127
43107,note_off,0,0,0,,2,,,50,127
43108,note_on,1,0,0,,8,,,44,127
43108,note_on,0,0,0,,4,,,64,127
43222,note_off,114,0,0,,4,,,64,127
43223,note_on,1,0,0,,12,,,59,127
43337,note_off,114,0,0,,12,,,59,127
43337,note_off,0,0,0,,8,,,44,127
43338,note_on,1,0,0,,10,,,45,127
43338,note_on,0,0,0,,1,,,61,127
43452,note_off,114,0,0,,1,,,61,127
43453,note_on,1,0,0,,10,,,57,127
43567,note_off,114,0,0,,10,,,57,127
43567,note_off,0,0,0,,10,,,45,127
43568,note_on,1,0,0,,1,,,37,127
43568,note_on,0,0,0,,10,,,69,127
43682,note_off,114,0,0,,10,,,69,127
43683,note_on,1,0,0,,4,,,64,127
43797,note_off,114,0,0,,4,,,64,127
43797,note_off,0,0,0,,1,,,37,127
43798,note_on,1,0,0,,2,,,38,127
43798,note_on,0,0,0,,1,,,73,127
43854,note_off,56,0,0,,1,,,73,127
43855,note_on,1,0,0,,12,,,71,127
43911,note_off,56,0,0,,12,,,71,127
43912,note_on,1,0,0,,1,,,73,127
43968,note_off,56,0,0,,1,,,73,127
43969,note_on,1,0,0,,12,,,71,127
44025,note_off,56,0,0,,12,,,71,127
44025,note_off,0,0,0,,2,,,38,127
44026,note_on,1,0,0,,4,,,40,127
44026,note_on,0,0,0,,1,,,73,127
44082,note_off,56,0,0,,1,,,73,127
44083,note_on,1,0,0,,12,,,71,127
44139,note_off,56,0,0,,12,,,71,127
44140,note_on,1,0,0,,10,,,69,127
44196,note_off,56,0,0,,10,,,69,127
44197,note_on,1,0,0,,12,,,71,127
44253,note_off,56,0,0,,12,,,71,127
44253,note_off,0,0,0,,4,,,40,127
44254,note_on,1,0,0,,10,,,45,127
44254,note_on,0,0,0,,10,,,57,127
44254,note_on,0,0,0,,10,,,69,127
44483,note_off,229,0,0,,10,,,69,127
44484,note_on,1,0,0,,10,,,81,127
44598,note_off,114,0,0,,10,,,81,127
44599,note_on,1,0,0,,4,,,76,127
44713,note_off,114,0,0,,4,,,76,127
44714,note_on,1,0,0,,1,,,73,127
44828,note_off,114,0,0,,1,,,73,127
44829,note_on,1,0,0,,10,,,69,127
44943,note_off,114,0,0,,10,,,69,127
44943,note_off,0,0,0,,10,,,57,127
44943,note_off,0,0,0,,10,,,45,127
44944,note_on,1,0,0,,4,,,64,127
45058,note_off,114,0,0,,4,,,64,127
45059,note_on,1,0,0,,1,,,61,127
45173,note_off,114,0,0,,1,,,61,127
45174,note_on,1,0,0,,4,,,52,127
45174,note_on,0,0,0,,7,,,43,127
45174,note_on,0,0,0,,7,,,55,127
45174,note_on,0,0,0,,7,,,67,127
45174,note_on,0,0,0,,4,,,64,127
45174,note_on,0,0,0,,1,,,61,127
45403,note_off,229,0,0,,1,,,61,127
45403,note_off,0,0,0,,4,,,64,127
45403,note_off,0,0,0,,7,,,67,127
45404,note_on,1,0,0,,7,,,79,127
45518,note_off,114,0,0,,7,,,79,127
45519,note_on,1,0,0,,4,,,76,127
45633,note_off,114,0,0,,4,,,76,127
45634,note_on,1,0,0,,1,,,73,127
45748,note_off,114,0,0,,1,,,73,127
45749,note_on,1,0,0,,7,,,67,127
45863,note_off,114,0,0,,7,,,67,127
45864,note_on,1,0,0,,4,,,64,127
45978,note_off,114,0,0,,4,,,64,127
45979,note_on,1,0,0,,1,,,61,127
46093,note_off,114,0,0,,1,,,61,127
46093,note_off,0,0,0,,7,,,55,127
46093,note_off,0,0,0,,7,,,43,127
46093,note_off,0,0,0,,4,,,52,127
46094,note_on,1,0,0,,6,,,42,127
46094,note_on,0,0,0,,2,,,50,127
46094,note_on,0,0,0,,6,,,54,127
46094,note_on,0,0,0,,6,,,66,127
46094,note_on,0,0,0,,2,,,62,127
46094,note_on,0,0,0,,10,,,69,127
46323,note_off,229,0,0,,10,,,69,127
46323,note_off,0,0,0,,2,,,62,127
46323,note_off,0,0,0,,6,,,66,127
46324,note_on,1,0,0,,10,,,81,127
46438,note_off,114,0,0,,10,,,81,127
46439,note_on,1,0,0,,6,,,78,127
46553,note_off,114,0,0,,6,,,78,127
46554,note_on,1,0,0,,2,,,74,127
46668,note_off,114,0,0,,2,,,74,127
46669,note_on,1,0,0,,10,,,69,127
46783,note_off,114,0,0,,10,,,69,127
46784,note_on,1,0,0,,6,,,66,127
46898,note_off,114,0,0,,6,,,66,127
46899,note_on,1,0,0,,2,,,62,127
47013,note_off,114,0,0,,2,,,62,127
47013,note_off,0,0,0,,6,,,54,127
47013,note_off,0,0,0,,2,,,50,127
47013,note_off,0,0,0,,6,,,42,127
47014,note_on,1,0,0,,4,,,40,127
47014,note_on,0,0,0,,4,,,52,127
47014,note_on,0,0,0,,0,,,48,127
47014,note_on,0,0,0,,0,,,72,127
47014,note_on,0,0,0,,4,,,64,127
47014,note_on,0,0,0,,7,,,67,127
47243,note_off,229,0,0,,7,,,67,127
47243,note_off,0,0,0,,4,,,64,127
47243,note_off,0,0,0,,0,,,72,127
47244,note_on,1,0,0,,0,,,84,127
47358,note_off,114,0,0,,0,,,84,127
47359,note_on,1,0,0,,7,,,79,127
47473,note_off,114,0,0,,7,,,79,127
47474,note_on,1,0,0,,4,,,76,127
47588,note_off,114,0,0,,4,,,76,127
47589,note_on,1,0,0,,0,,,72,127
47703,note_off,114,0,0,,0,,,72,127
47704,note_on,1,0,0,,7,,,67,127
47818,note_off,114,0,0,,7,,,67,127
47819,note_on,1,0,0,,4,,,64,127
47933,note_off,114,0,0,,4,,,64,127
47933,note_off,0,0,0,,0,,,48,127
47933,note_off,0,0,0,,4,,,52,127
47933,note_off,0,0,0,,4,,,40,127
47934,note_on,1,0,0,,2,,,38,127
47934,note_on,0,0,0,,2,,,50,127
47934,note_on,0,0,0,,10,,,45,127
47934,note_on,0,0,0,,10,,,69,127
47934,note_on,0,0,0,,2,,,74,127
47934,note_on,0,0,0,,6,,,78,127
48163,note_off,229,0,0,,6,,,78,127
48163,note_off,0,0,0,,2,,,74,127
48163,note_off,0,0,0,,10,,,69,127
48164,note_on,1,0,0,,10,,,81,127
48278,note_off,114,0,0,,10,,,81,127
48279,note_on,1,0,0,,6,,,78,127
48393,note_off,114,0,0,,6,,,78,127
48394,note_on,1,0,0,,0,,,72,127
48508,note_off,114,0,0,,0,,,72,127
48509,note_on,1,0,0,,10,,,69,127
48623,note_off,114,0,0,,10,,,69,127
48624,note_on,1,0,0,,6,,,66,127
48738,note_off,114,0,0,,6,,,66,127
48739,note_on,1,0,0,,2,,,62,127
48853,note_off,114,0,0,,2,,,62,127
48853,note_off,0,0,0,,10,,,45,127
48853,note_off,0,0,0,,2,,,50,127
48853,note_off,0,0,0,,2,,,38,127
48854,note_on,1,0,0,,7,,,43,127
48854,note_on,0,0,0,,7,,,55,127
48854,note_on,0,0,0,,7,,,67,127
48854,note_on,0,0,0,,2,,,62,127
48854,note_on,0,0,0,,12,,,71,127
49083,note_off,229,0,0,,12,,,71,127
49083,note_off,0,0,0,,2,,,62,127
49083,note_off,0,0,0,,7,,,67,127
49083,note_off,0,0,0,,7,,,55,127
49083,note_off,0,0,0,,7,,,43,127
49084,note_on,1,0,0,,7,,,67,127
49084,note_on,0,0,0,,12,,,83,127
49198,note_off,114,0,0,,7,,,67,127
49199,note_on,1,0,0,,2,,,62,127
49313,note_off,114,0,0,,2,,,62,127
49314,note_on,1,0,0,,12,,,59,127
49428,note_off,114,0,0,,12,,,59,127
49429,note_on,1,0,0,,7,,,55,127
49543,note_off,114,0,0,,7,,,55,127
49543,note_off,0,0,0,,12,,,83,127
49544,note_on,1,0,0,,2,,,50,127
49544,note_on,0,0,0,,7,,,79,127
49658,note_off,114,0,0,,2,,,50,127
49659,note_on,1,0,0,,7,,,43,127
49773,note_off,114,0,0,,7,,,43,127
49773,note_off,0,0,0,,7,,,79,127
49774,note_on,1,0,0,,6,,,42,127
49774,note_on,0,0,0,,10,,,81,127
50003,note_off,229,0,0,,10,,,81,127
50003,note_off,0,0,0,,6,,,42,127
50004,note_on,1,0,0,,6,,,66,127
50004,note_on,0,0,0,,10,,,81,127
50118,note_off,114,0,0,,6,,,66,127
50119,note_on,1,0,0,,2,,,62,127
50233,note_off,114,0,0,,2,,,62,127
50234,note_on,1,0,0,,10,,,57,127
50348,note_off,114,0,0,,10,,,57,127
50349,note_on,1,0,0,,6,,,54,127
50463,note_off,114,0,0,,6,,,54,127
50463,note_off,0,0,0,,10,,,81,127
50464,note_on,1,0,0,,2,,,50,127
50464,note_on,0,0,0,,6,,,78,127
50578,note_off,114,0,0,,2,,,50,127
50579,note_on,1,0,0,,6,,,42,127
50693,note_off,114,0,0,,6,,,42,127
50693,note_off,0,0,0,,6,,,78,127
50694,note_on,1,0,0,,4,,,40,127
50694,note_on,0,0,0,,7,,,79,127
50923,note_off,229,0,0,,7,,,79,127
50923,note_off,0,0,0,,4,,,40,127
50924,note_on,1,0,0,,4,,,64,127
50924,note_on,0,0,0,,7,,,79,127
51038,note_off,114,0,0,,4,,,64,127
51039,note_on,1,0,0,,0,,,60,127
51153,note_off,114,0,0,,0,,,60,127
51154,note_on,1,0,0,,7,,,55,127
51268,note_off,114,0,0,,7,,,55,127
51269,note_on,1,0,0,,4,,,52,127
51383,note_off,114,0,0,,4,,,52,127
51383,note_off,0,0,0,,7,,,79,127
51384,note_on,1,0,0,,0,,,48,127
51384,note_on,0,0,0,,4,,,76,127
51498,note_off,114,0,0,,0,,,48,127
51499,note_on,1,0,0,,4,,,40,127
51613,note_off,114,0,0,,4,,,40,127
51613,note_off,0,0,0,,4,,,76,127
51614,note_on,1,0,0,,2,,,38,127
51614,note_on,0,0,0,,6,,,78,127
51843,note_off,229,0,0,,6,,,78,127
51843,note_off,0,0,0,,2,,,38,127
51844,note_on,1,0,0,,2,,,62,127
51844,note_on,0,0,0,,6,,,78,127
51958,note_off,114,0,0,,2,,,62,127
51959,note_on,1,0,0,,12,,,59,127
52073,note_off,114,0,0,,12,,,59,127
52074,note_on,1,0,0,,6,,,54,127
52188,note_off,114,0,0,,6,,,54,127
52189,note_on,1,0,0,,2,,,50,127
52303,note_off,114,0,0,,2,,,50,127
52303,note_off,0,0,0,,6,,,78,127
52304,note_on,1,0,0,,12,,,47,127
52304,note_on,0,0,0,,2,,,74,127
52418,note_off,114,0,0,,12,,,47,127
52419,note_on,1,0,0,,2,,,38,127
52533,note_off,114,0,0,,2,,,38,127
52533,note_off,0,0,0,,2,,,74,127
52534,note_on,1,0,0,,0,,,36,127
52534,note_on,0,0,0,,4,,,76,127
52763,note_off,229,0,0,,4,,,76,127
52763,note_off,0,0,0,,0,,,36,127
52764,note_on,1,0,0,,0,,,60,127
52764,note_on,0,0,0,,4,,,76,127
52878,note_off,114,0,0,,0,,,60,127
52879,note_on,1,0,0,,10,,,57,127
52993,note_off,114,0,0,,10,,,57,127
52994,note_on,1,0,0,,4,,,52,127
53108,note_off,114,0,0,,4,,,52,127
53109,note_on,1,0,0,,0,,,48,127
53223,note_off,114,0,0,,0,,,48,127
53223,note_off,0,0,0,,4,,,76,127
53224,note_on,1,0,0,,10,,,45,127
53224,note_on,0,0,0,,10,,,69,127
53338,note_off,114,0,0,,10,,,45,127
53339,note_on,1,0,0,,0,,,36,127
53453,note_off,114,0,0,,0,,,36,127
53453,note_off,0,0,0,,10,,,69,127
53454,note_on,1,0,0,,12,,,35,127
53454,note_on,0,0,0,,12,,,71,127
53683,note_off,229,0,0,,12,,,71,127
53684,note_on,1,0,0,,12,,,83,127
53798,note_off,114,0,0,,12,,,83,127
53799,note_on,1,0,0,,6,,,78,127
53913,note_off,114,0,0,,6,,,78,127
53914,note_on,1,0,0,,3,,,75,127
54028,note_off,114,0,0,,3,,,75,127
54029,note_on,1,0,0,,12,,,71,127
54143,note_off,114,0,0,,12,,,71,127
54144,note_on,1,0,0,,6,,,66,127
54258,note_off,114,0,0,,6,,,66,127
54259,note_on,1,0,0,,3,,,63,127
54373,note_off,114,0,0,,3,,,63,127
54373,note_off,0,0,0,,12,,,35,127
54374,note_on,1,0,0,,12,,,35,127
54374,note_on,0,0,0,,4,,,40,127
54374,note_on,0,0,0,,7,,,43,127
54374,note_on,0,0,0,,12,,,47,127
54374,note_on,0,0,0,,12,,,59,127
54374,note_on,0,0,0,,7,,,67,127
54374,note_on,0,0,0,,4,,,64,127
54603,note_off,229,0,0,,4,,,64,127
54603,note_off,0,0,0,,7,,,67,127
54603,note_off,0,0,0,,12,,,59,127
54604,note_on,1,0,0,,12,,,83,127
54718,note_off,114,0,0,,12,,,83,127
54719,note_on,1,0,0,,7,,,79,127
54833,note_off,114,0,0,,7,,,79,127
54834,note_on,1,0,0,,4,,,76,127
54948,note_off,114,0,0,,4,,,76,127
54949,note_on,1,0,0,,12,,,71,127
55063,note_off,114,0,0,,12,,,71,127
55064,note_on,1,0,0,,7,,,67,127
55178,note_off,114,0,0,,7,,,67,127
55179,note_on,1,0,0,,4,,,64,127
55293,note_off,114,0,0,,4,,,64,127
55293,note_off,0,0,0,,12,,,47,127
55293,note_off,0,0,0,,7,,,43,127
55293,note_off,0,0,0,,4,,,40,127
55293,note_off,0,0,0,,12,,,35,127
55294,note_on,1,0,0,,12,,,35,127
55294,note_on,0,0,0,,6,,,42,127
55294,note_on,0,0,0,,12,,,47,127
55294,note_on,0,0,0,,3,,,63,127
55294,note_on,0,0,0,,12,,,59,127
55294,note_on,0,0,0,,6,,,66,127
55523,note_off,229,0,0,,6,,,66,127
55523,note_off,0,0,0,,12,,,59,127
55523,note_off,0,0,0,,3,,,63,127
55524,note_on,1,0,0,,12,,,83,127
55638,note_off,114,0,0,,12,,,83,127
55639,note_on,1,0,0,,6,,,78,127
55753,note_off,114,0,0,,6,,,78,127
55754,note_on,1,0,0,,3,,,75,127
55868,note_off,114,0,0,,3,,,75,127
55869,note_on,1,0,0,,12,,,71,127
55983,note_off,114,0,0,,12,,,71,127
55984,note_on,1,0,0,,6,,,66,127
56098,note_off,114,0,0,,6,,,66,127
56099,note_on,1,0,0,,3,,,63,127
56213,note_off,114,0,0,,3,,,63,127
56213,note_off,0,0,0,,12,,,47,127
56213,note_off,0,0,0,,6,,,42,127
56213,note_off,0,0,0,,12,,,35,127
56214,note_on,1,0,0,,12,,,47,127
56214,note_on,0,0,0,,7,,,43,127
56214,note_on,0,0,0,,4,,,40,127
56214,note_on,0,0,0,,12,,,35,127
56214,note_on,0,0,0,,7,,,67,127
56214,note_on,0,0,0,,12,,,59,127
56214,note_on,0,0,0,,4,,,64,127
56443,note_off,229,0,0,,4,,,64,127
56443,note_off,0,0,0,,12,,,59,127
56443,note_off,0,0,0,,7,,,67,127
56444,note_on,1,0,0,,12,,,83,127
56558,note_off,114,0,0,,12,,,83,127
56559,note_on,1,0,0,,7,,,79,127
56673,note_off,114,0,0,,7,,,79,127
56674,note_on,1,0,0,,4,,,76,127
56788,note_off,114,0,0,,4,,,76,127
56789,note_on,1,0,0,,12,,,71,127
56903,note_off,114,0,0,,12,,,71,127
56904,note_on,1,0,0,,7,,,67,127
57018,note_off,114,0,0,,7,,,67,127
57019,note_on,1,0,0,,4,,,64,127
57133,note_off,114,0,0,,4,,,64,127
57133,note_off,0,0,0,,12,,,35,127
57133,note_off,0,0,0,,4,,,40,127
57133,note_off,0,0,0,,7,,,43,127
57133,note_off,0,0,0,,12,,,47,127
57134,note_on,1,0,0,,6,,,42,127
57134,note_on,0,0,0,,12,,,47,127
57134,note_on,0,0,0,,12,,,35,127
57134,note_on,0,0,0,,12,,,59,127
57134,note_on,0,0,0,,6,,,66,127
57134,note_on,0,0,0,,3,,,63,127
57363,note_off,229,0,0,,3,,,63,127
57363,note_off,0,0,0,,6,,,66,127
57363,note_off,0,0,0,,12,,,59,127
57363,note_off,0,0,0,,12,,,35,127
57363,note_off,0,0,0,,12,,,47,127
57363,note_off,0,0,0,,6,,,42,127
57364,note_on,1,0,0,,12,,,71,127
57364,note_on,0,0,0,,12,,,83,127
57478,note_off,114,0,0,,12,,,71,127
57479,note_on,1,0,0,,6,,,66,127
57593,note_off,114,0,0,,6,,,66,127
57594,note_on,1,0,0,,3,,,63,127
57708,note_off,114,0,0,,3,,,63,127
57709,note_on,1,0,0,,12,,,59,127
57823,note_off,114,0,0,,12,,,59,127
57823,note_off,0,0,0,,12,,,83,127
57824,note_on,1,0,0,,6,,,54,127
57824,note_on,0,0,0,,6,,,78,127
57938,note_off,114,0,0,,6,,,54,127
57939,note_on,1,0,0,,12,,,47,127
58053,note_off,114,0,0,,12,,,47,127
58053,note_off,0,0,0,,6,,,78,127
58054,note_on,1,0,0,,4,,,40,127
58054,note_on,0,0,0,,7,,,79,127
58283,note_off,229,0,0,,7,,,79,127
58283,note_off,0,0,0,,4,,,40,127
58284,note_on,1,0,0,,4,,,64,127
58284,note_on,0,0,0,,12,,,83,127
58398,note_off,114,0,0,,4,,,64,127
58399,note_on,1,0,0,,12,,,59,127
58513,note_off,114,0,0,,12,,,59,127
58514,note_on,1,0,0,,7,,,55,127
58628,note_off,114,0,0,,7,,,55,127
58629,note_on,1,0,0,,4,,,52,127
58743,note_off,114,0,0,,4,,,52,127
58743,note_off,0,0,0,,12,,,83,127
58744,note_on,1,0,0,,12,,,47,127
58744,note_on,0,0,0,,4,,,76,127
58858,note_off,114,0,0,,12,,,47,127
58859,note_on,1,0,0,,4,,,40,127
58973,note_off,114,0,0,,4,,,40,127
58973,note_off,0,0,0,,4,,,76,127
58974,note_on,1,0,0,,10,,,45,127
58974,note_on,0,0,0,,0,,,84,127
59203,note_off,229,0,0,,0,,,84,127
59203,note_off,0,0,0,,10,,,45,127
59204,note_on,1,0,0,,10,,,69,127
59204,note_on,0,0,0,,0,,,84,127
59318,note_off,114,0,0,,10,,,69,127
59319,note_on,1,0,0,,4,,,64,127
59433,note_off,114,0,0,,4,,,64,127
59434,note_on,1,0,0,,0,,,60,127
59548,note_off,114,0,0,,0,,,60,127
59549,note_on,1,0,0,,10,,,57,127
59663,note_off,114,0,0,,10,,,57,127
59663,note_off,0,0,0,,0,,,84,127
59664,note_on,1,0,0,,4,,,52,127
59664,note_on,0,0,0,,10,,,81,127
59778,note_off,114,0,0,,4,,,52,127
59779,note_on,1,0,0,,10,,,45,127
59893,note_off,114,0,0,,10,,,45,127
59893,note_off,0,0,0,,10,,,81,127
59894,note_on,1,0,0,,7,,,43,127
59894,note_on,0,0,0,,12,,,83,127
60123,note_off,229,0,0,,12,,,83,127
60123,note_off,0,0,0,,7,,,43,127
60124,note_on,1,0,0,,7,,,67,127
60124,note_on,0,0,0,,12,,,83,127
60238,note_off,114,0,0,,7,,,67,127
60239,note_on,1,0,0,,4,,,64,127
60353,note_off,114,0,0,,4,,,64,127
60354,note_on,1,0,0,,12,,,59,127
60468,note_off,114,0,0,,12,,,59,127
60469,note_on,1,0,0,,7,,,55,127
60583,note_off,114,0,0,,7,,,55,127
60583,note_off,0,0,0,,12,,,83,127
60584,note_on,1,0,0,,4,,,52,127
60584,note_on,0,0,0,,12,,,83,127
60698,note_off,114,0,0,,4,,,52,127
60699,note_on,1,0,0,,7,,,43,127
60813,note_off,114,0,0,,7,,,43,127
60814,note_on,1,0,0,,10,,,45,127
60928,note_off,114,0,0,,12,,,83,127
60929,note_on,1,0,0,,10,,,81,127
61043,note_off,114,0,0,,10,,,81,127
61043,note_off,0,0,0,,10,,,45,127
61044,note_on,1,0,0,,0,,,48,127
61044,note_on,0,0,0,,7,,,79,127
61158,note_off,114,0,0,,7,,,79,127
61159,note_on,1,0,0,,6,,,78,127
61273,note_off,114,0,0,,6,,,78,127
61273,note_off,0,0,0,,0,,,48,127
61274,note_on,1,0,0,,12,,,47,127
61274,note_on,0,0,0,,7,,,79,127
61388,note_off,114,0,0,,7,,,79,127
61389,note_on,1,0,0,,4,,,76,127
61503,note_off,114,0,0,,4,,,76,127
61504,note_on,1,0,0,,12,,,35,127
61504,note_on,0,0,0,,6,,,78,127
61618,note_off,114,0,0,,6,,,78,127
61619,note_on,1,0,0,,3,,,75,127
61733,note_off,114,0,0,,3,,,75,127
61733,note_off,0,0,0,,12,,,35,127
61733,note_off,0,0,0,,12,,,47,127
61734,note_on,1,0,0,,4,,,52,127
61734,note_on,0,0,0,,4,,,76,127
61963,note_off,229,0,0,,4,,,76,127
61963,note_off,0,0,0,,4,,,52,127
61964,note_on,1,0,0,,4,,,52,127
61964,note_on,0,0,0,,12,,,59,127
61964,note_on,0,0,0,,4,,,76,127
62193,note_off,229,0,0,,12,,,59,127
62193,note_off,0,0,0,,4,,,52,127
62194,note_on,1,0,0,,4,,,52,127
62194,note_on,0,0,0,,0,,,60,127
62308,note_off,114,0,0,,4,,,76,127
62309,note_on,1,0,0,,3,,,75,127
62423,note_off,114,0,0,,3,,,75,127
62423,note_off,0,0,0,,0,,,60,127
62423,note_off,0,0,0,,4,,,52,127
62424,note_on,1,0,0,,4,,,52,127
62424,note_on,0,0,0,,3,,,63,127
62424,note_on,0,0,0,,6,,,78,127
62538,note_off,114,0,0,,6,,,78,127
62539,note_on,1,0,0,,10,,,69,127
62653,note_off,114,0,0,,10,,,69,127
62653,note_off,0,0,0,,3,,,63,127
62653,note_off,0,0,0,,4,,,52,127
62654,note_on,1,0,0,,4,,,52,127
62654,note_on,0,0,0,,4,,,64,127
62654,note_on,0,0,0,,10,,,69,127
62768,note_off,114,0,0,,10,,,69,127
62769,note_on,1,0,0,,7,,,67,127
62883,note_off,114,0,0,,7,,,67,127
62883,note_off,0,0,0,,4,,,64,127
62883,note_off,0,0,0,,4,,,52,127
62884,note_on,1,0,0,,4,,,52,127
62884,note_on,0,0,0,,12,,,59,127
62884,note_on,0,0,0,,4,,,76,127
63113,note_off,229,0,0,,12,,,59,127
63113,note_off,0,0,0,,4,,,52,127
63114,note_on,1,0,0,,4,,,52,127
63114,note_on,0,0,0,,0,,,60,127
63228,note_off,114,0,0,,4,,,76,127
63229,note_on,1,0,0,,3,,,75,127
63343,note_off,114,0,0,,3,,,75,127
63343,note_off,0,0,0,,0,,,60,127
63343,note_off,0,0,0,,4,,,52,127
63344,note_on,1,0,0,,3,,,63,127
63344,note_on,0,0,0,,4,,,52,127
63344,note_on,0,0,0,,6,,,78,127
63458,note_off,114,0,0,,6,,,78,127
63459,note_on,1,0,0,,10,,,69,127
63573,note_off,114,0,0,,10,,,69,127
63573,note_off,0,0,0,,4,,,52,127
63573,note_off,0,0,0,,3,,,63,127
63574,note_on,1,0,0,,4,,,64,127
63574,note_on,0,0,0,,4,,,52,127
63574,note_on,0,0,0,,10,,,69,127
63688,note_off,114,0,0,,10,,,69,127
63689,note_on,1,0,0,,7,,,67,127
63803,note_off,114,0,0,,7,,,67,127
63803,note_off,0,0,0,,4,,,52,127
63803,note_off,0,0,0,,4,,,64,127
63804,note_on,1,0,0,,4,,,52,127
63804,note_on,0,0,0,,7,,,79,127
63804,note_on,0,0,0,,12,,,71,127
63918,note_off,114,0,0,,12,,,71,127
63919,note_on,1,0,0,,1,,,73,127
64033,note_off,114,0,0,,1,,,73,127
64033,note_off,0,0,0,,4,,,52,127
64034,note_on,1,0,0,,2,,,50,127
64034,note_on,0,0,0,,2,,,74,127
64148,note_off,114,0,0,,7,,,79,127
64149,note_on,1,0,0,,6,,,78,127
64263,note_off,114,0,0,,6,,,78,127
64264,note_on,1,0,0,,10,,,57,127
64264,note_on,0,0,0,,0,,,60,127
64264,note_on,0,0,0,,10,,,81,127
64378,note_off,114,0,0,,10,,,81,127
64378,note_off,0,0,0,,2,,,74,127
64379,note_on,1,0,0,,0,,,72,127
64493,note_off,114,0,0,,0,,,72,127
64493,note_off,0,0,0,,0,,,60,127
64493,note_off,0,0,0,,10,,,57,127
64493,note_off,0,0,0,,2,,,50,127
64494,note_on,1,0,0,,2,,,50,127
64494,note_on,0,0,0,,0,,,72,127
64608,note_off,114,0,0,,0,,,72,127
64609,note_on,1,0,0,,12,,,71,127
64723,note_off,114,0,0,,12,,,71,127
64724,note_on,1,0,0,,12,,,59,127
64724,note_on,0,0,0,,7,,,55,127
64724,note_on,0,0,0,,7,,,79,127
64953,note_off,229,0,0,,7,,,55,127
64953,note_off,0,0,0,,12,,,59,127
64953,note_off,0,0,0,,2,,,50,127
64954,note_on,1,0,0,,2,,,50,127
65068,note_off,114,0,0,,7,,,79,127
65069,note_on,1,0,0,,6,,,78,127
65183,note_off,114,0,0,,6,,,78,127
65184,note_on,1,0,0,,10,,,57,127
65184,note_on,0,0,0,,0,,,60,127
65184,note_on,0,0,0,,10,,,81,127
65298,note_off,114,0,0,,10,,,81,127
65299,note_on,1,0,0,,0,,,72,127
65413,note_off,114,0,0,,0,,,72,127
65413,note_off,0,0,0,,0,,,60,127
65413,note_off,0,0,0,,10,,,57,127
65413,note_off,0,0,0,,2,,,50,127
65414,note_on,1,0,0,,7,,,55,127
65414,note_on,0,0,0,,0,,,72,127
65528,note_off,114,0,0,,0,,,72,127
65529,note_on,1,0,0,,12,,,71,127
65643,note_off,114,0,0,,12,,,71,127
65644,note_on,1,0,0,,4,,,64,127
65644,note_on,0,0,0,,0,,,60,127
65644,note_on,0,0,0,,0,,,84,127
65873,note_off,229,0,0,,0,,,60,127
65873,note_off,0,0,0,,4,,,64,127
65873,note_off,0,0,0,,7,,,55,127
65874,note_on,1,0,0,,7,,,55,127
65988,note_off,114,0,0,,0,,,84,127
65989,note_on,1,0,0,,12,,,83,127
66103,note_off,114,0,0,,12,,,83,127
66104,note_on,1,0,0,,2,,,62,127
66104,note_on,0,0,0,,5,,,65,127
66104,note_on,0,0,0,,2,,,86,127
66218,note_off,114,0,0,,2,,,86,127
66219,note_on,1,0,0,,5,,,77,127
66333,note_off,114,0,0,,5,,,77,127
66333,note_off,0,0,0,,5,,,65,127
66333,note_off,0,0,0,,2,,,62,127
66333,note_off,0,0,0,,7,,,55,127
66334,note_on,1,0,0,,7,,,55,127
66334,note_on,0,0,0,,5,,,77,127
66448,note_off,114,0,0,,5,,,77,127
66449,note_on,1,0,0,,4,,,76,127
66563,note_off,114,0,0,,4,,,76,127
66564,note_on,1,0,0,,4,,,64,127
66564,note_on,0,0,0,,0,,,60,127
66564,note_on,0,0,0,,0,,,84,127
66793,note_off,229,0,0,,0,,,60,127
66793,note_off,0,0,0,,4,,,64,127
66793,note_off,0,0,0,,7,,,55,127
66794,note_on,1,0,0,,7,,,55,127
66908,note_off,114,0,0,,0,,,84,127
66909,note_on,1,0,0,,12,,,83,127
67023,note_off,114,0,0,,12,,,83,127
67024,note_on,1,0,0,,2,,,62,127
67024,note_on,0,0,0,,5,,,65,127
67024,note_on,0,0,0,,2,,,86,127
67138,note_off,114,0,0,,2,,,86,127
67139,note_on,1,0,0,,5,,,77,127
67253,note_off,114,0,0,,5,,,77,127
67253,note_off,0,0,0,,5,,,65,127
67253,note_off,0,0,0,,2,,,62,127
67253,note_off,0,0,0,,7,,,55,127
67254,note_on,1,0,0,,0,,,48,127
67254,note_on,0,0,0,,5,,,77,127
67368,note_off,114,0,0,,5,,,77,127
67369,note_on,1,0,0,,4,,,76,127
67483,note_off,114,0,0,,4,,,76,127
67483,note_off,0,0,0,,0,,,48,127
67484,note_on,1,0,0,,0,,,48,127
67484,note_on,0,0,0,,10,,,57,127
67484,note_on,0,0,0,,10,,,81,127
67713,note_off,229,0,0,,10,,,57,127
67713,note_off,0,0,0,,0,,,48,127
67714,note_on,1,0,0,,10,,,57,127
67714,note_on,0,0,0,,2,,,50,127
67714,note_on,0,0,0,,12,,,59,127
67828,note_off,114,0,0,,10,,,81,127
67829,note_on,1,0,0,,8,,,80,127
67943,note_off,114,0,0,,8,,,80,127
67943,note_off,0,0,0,,12,,,59,127
67943,note_off,0,0,0,,2,,,50,127
67943,note_off,0,0,0,,10,,,57,127
67944,note_on,1,0,0,,8,,,56,127
67944,note_on,0,0,0,,4,,,52,127
67944,note_on,0,0,0,,12,,,59,127
67944,note_on,0,0,0,,12,,,83,127
68058,note_off,114,0,0,,12,,,83,127
68059,note_on,1,0,0,,2,,,74,127
68173,note_off,114,0,0,,2,,,74,127
68173,note_off,0,0,0,,12,,,59,127
68173,note_off,0,0,0,,4,,,52,127
68173,note_off,0,0,0,,8,,,56,127
68174,note_on,1,0,0,,10,,,45,127
68174,note_on,0,0,0,,10,,,57,127
68174,note_on,0,0,0,,2,,,74,127
68288,note_off,114,0,0,,2,,,74,127
68289,note_on,1,0,0,,0,,,72,127
68403,note_off,114,0,0,,0,,,72,127
68403,note_off,0,0,0,,10,,,57,127
68403,note_off,0,0,0,,10,,,45,127
68404,note_on,1,0,0,,0,,,48,127
68404,note_on,0,0,0,,10,,,57,127
68404,note_on,0,0,0,,10,,,81,127
68633,note_off,229,0,0,,10,,,57,127
68633,note_off,0,0,0,,0,,,48,127
68634,note_on,1,0,0,,2,,,50,127
68634,note_on,0,0,0,,12,,,59,127
68634,note_on,0,0,0,,10,,,57,127
68748,note_off,114,0,0,,10,,,81,127
68749,note_on,1,0,0,,8,,,80,127
68863,note_off,114,0,0,,8,,,80,127
68863,note_off,0,0,0,,10,,,57,127
68863,note_off,0,0,0,,12,,,59,127
68863,note_off,0,0,0,,2,,,50,127
68864,note_on,1,0,0,,4,,,52,127
68864,note_on,0,0,0,,8,,,56,127
68864,note_on,0,0,0,,12,,,59,127
68864,note_on,0,0,0,,12,,,83,127
68978,note_off,114,0,0,,12,,,83,127
68979,note_on,1,0,0,,2,,,74,127
69093,note_off,114,0,0,,2,,,74,127
69093,note_off,0,0,0,,12,,,59,127
69093,note_off,0,0,0,,8,,,56,127
69093,note_off,0,0,0,,4,,,52,127
69094,note_on,1,0,0,,10,,,45,127
69094,note_on,0,0,0,,10,,,57,127
69094,note_on,0,0,0,,2,,,74,127
69208,note_off,114,0,0,,2,,,74,127
69209,note_on,1,0,0,,1,,,73,127
69323,note_off,114,0,0,,1,,,73,127
69323,note_off,0,0,0,,10,,,57,127
69323,note_off,0,0,0,,10,,,45,127
69324,note_on,1,0,0,,10,,,57,127
69324,note_on,0,0,0,,5,,,53,127
69324,note_on,0,0,0,,2,,,62,127
69324,note_on,0,0,0,,2,,,74,127
69553,note_off,229,0,0,,5,,,53,127
69553,note_off,0,0,0,,10,,,57,127
69554,note_on,1,0,0,,7,,,55,127
69554,note_on,0,0,0,,4,,,52,127
69668,note_off,114,0,0,,2,,,74,127
69668,note_off,0,0,0,,2,,,62,127
69669,note_on,1,0,0,,1,,,73,127
69783,note_off,114,0,0,,1,,,73,127
69783,note_off,0,0,0,,4,,,52,127
69783,note_off,0,0,0,,7,,,55,127
69784,note_on,1,0,0,,1,,,49,127
69784,note_on,0,0,0,,10,,,57,127
69784,note_on,0,0,0,,7,,,55,127
69784,note_on,0,0,0,,4,,,76,127
69898,note_off,114,0,0,,4,,,76,127
69899,note_on,1,0,0,,7,,,67,127
70013,note_off,114,0,0,,7,,,67,127
70013,note_off,0,0,0,,7,,,55,127
70013,note_off,0,0,0,,10,,,57,127
70013,note_off,0,0,0,,1,,,49,127
70014,note_on,1,0,0,,10,,,57,127
70014,note_on,0,0,0,,2,,,50,127
70014,note_on,0,0,0,,7,,,67,127
70128,note_off,114,0,0,,7,,,67,127
70129,note_on,1,0,0,,5,,,65,127
70243,note_off,114,0,0,,5,,,65,127
70243,note_off,0,0,0,,2,,,50,127
70243,note_off,0,0,0,,10,,,57,127
70244,note_on,1,0,0,,10,,,57,127
70244,note_on,0,0,0,,5,,,53,127
70244,note_on,0,0,0,,2,,,74,127
70244,note_on,0,0,0,,2,,,62,127
70473,note_off,229,0,0,,5,,,53,127
70473,note_off,0,0,0,,10,,,57,127
70474,note_on,1,0,0,,7,,,55,127
70474,note_on,0,0,0,,4,,,52,127
70588,note_off,114,0,0,,2,,,62,127
70588,note_off,0,0,0,,2,,,74,127
70589,note_on,1,0,0,,1,,,73,127
70703,note_off,114,0,0,,1,,,73,127
70703,note_off,0,0,0,,4,,,52,127
70703,note_off,0,0,0,,7,,,55,127
70704,note_on,1,0,0,,7,,,55,127
70704,note_on,0,0,0,,1,,,49,127
70704,note_on,0,0,0,,10,,,57,127
70704,note_on,0,0,0,,4,,,76,127
70818,note_off,114,0,0,,4,,,76,127
70819,note_on,1,0,0,,7,,,79,127
70933,note_off,114,0,0,,10,,,57,127
70933,note_off,0,0,0,,1,,,49,127
70933,note_off,0,0,0,,7,,,55,127
70934,note_on,1,0,0,,2,,,62,127
71048,note_off,114,0,0,,7,,,79,127
71049,note_on,1,0,0,,5,,,77,127
71163,note_off,114,0,0,,5,,,77,127
71164,note_on,1,0,0,,11,,,70,127
71164,note_on,0,0,0,,4,,,76,127
71278,note_off,114,0,0,,4,,,76,127
71279,note_on,1,0,0,,5,,,77,127
71393,note_off,114,0,0,,2,,,62,127
71394,note_on,1,0,0,,0,,,60,127
71508,note_off,114,0,0,,5,,,77,127
71509,note_on,1,0,0,,4,,,76,127
71623,note_off,114,0,0,,4,,,76,127
71623,note_off,0,0,0,,11,,,70,127
71624,note_on,1,0,0,,10,,,69,127
71624,note_on,0,0,0,,3,,,75,127
71738,note_off,114,0,0,,3,,,75,127
71739,note_on,1,0,0,,4,,,76,127
71853,note_off,114,0,0,,0,,,60,127
71854,note_on,1,0,0,,11,,,58,127
71968,note_off,114,0,0,,4,,,76,127
71969,note_on,1,0,0,,2,,,74,127
72083,note_off,114,0,0,,2,,,74,127
72083,note_off,0,0,0,,10,,,69,127
72084,note_on,1,0,0,,7,,,67,127
72084,note_on,0,0,0,,1,,,73,127
72198,note_off,114,0,0,,1,,,73,127
72199,note_on,1,0,0,,2,,,74,127
72313,note_off,114,0,0,,11,,,58,127
72314,note_on,1,0,0,,10,,,57,127
72428,note_off,114,0,0,,2,,,74,127
72429,note_on,1,0,0,,0,,,72,127
72543,note_off,114,0,0,,0,,,72,127
72543,note_off,0,0,0,,7,,,67,127
72544,note_on,1,0,0,,5,,,65,127
72544,note_on,0,0,0,,12,,,71,127
72658,note_off,114,0,0,,12,,,71,127
72659,note_on,1,0,0,,0,,,72,127
72773,note_off,114,0,0,,10,,,57,127
72774,note_on,1,0,0,,7,,,55,127
72888,note_off,114,0,0,,0,,,72,127
72889,note_on,1,0,0,,11,,,70,127
73003,note_off,114,0,0,,11,,,70,127
73003,note_off,0,0,0,,5,,,65,127
73004,note_on,1,0,0,,4,,,64,127
73004,note_on,0,0,0,,10,,,69,127
73118,note_off,114,0,0,,10,,,69,127
73119,note_on,1,0,0,,11,,,70,127
73233,note_off,114,0,0,,7,,,55,127
73234,note_on,1,0,0,,5,,,53,127
73348,note_off,114,0,0,,11,,,70,127
73349,note_on,1,0,0,,10,,,69,127
73463,note_off,114,0,0,,10,,,69,127
73463,note_off,0,0,0,,4,,,64,127
73464,note_on,1,0,0,,2,,,62,127
73464,note_on,0,0,0,,8,,,68,127
73578,note_off,114,0,0,,8,,,68,127
73579,note_on,1,0,0,,10,,,69,127
73693,note_off,114,0,0,,5,,,53,127
73694,note_on,1,0,0,,4,,,52,127
73808,note_off,114,0,0,,10,,,69,127
73809,note_on,1,0,0,,7,,,67,127
73923,note_off,114,0,0,,7,,,67,127
73923,note_off,0,0,0,,2,,,62,127
73924,note_on,1,0,0,,0,,,60,127
73924,note_on,0,0,0,,6,,,66,127
74038,note_off,114,0,0,,6,,,66,127
74039,note_on,1,0,0,,7,,,67,127
74153,note_off,114,0,0,,4,,,52,127
74154,note_on,1,0,0,,2,,,50,127
74268,note_off,114,0,0,,7,,,67,127
74269,note_on,1,0,0,,5,,,65,127
74383,note_off,114,0,0,,5,,,65,127
74383,note_off,0,0,0,,0,,,60,127
74384,note_on,1,0,0,,11,,,58,127
74384,note_on,0,0,0,,4,,,64,127
74498,note_off,114,0,0,,4,,,64,127
74499,note_on,1,0,0,,5,,,65,127
74613,note_off,114,0,0,,5,,,65,127
74613,note_off,0,0,0,,2,,,50,127
74614,note_on,1,0,0,,0,,,48,127
74614,note_on,0,0,0,,4,,,64,127
74728,note_off,114,0,0,,4,,,64,127
74729,note_on,1,0,0,,5,,,65,127
74843,note_off,114,0,0,,5,,,65,127
74843,note_off,0,0,0,,11,,,58,127
74844,note_on,1,0,0,,10,,,57,127
74844,note_on,0,0,0,,7,,,67,127
74958,note_off,114,0,0,,7,,,67,127
74959,note_on,1,0,0,,10,,,69,127
75073,note_off,114,0,0,,10,,,69,127
75073,note_off,0,0,0,,0,,,48,127
75074,note_on,1,0,0,,11,,,46,127
75074,note_on,0,0,0,,7,,,67,127
75188,note_off,114,0,0,,7,,,67,127
75189,note_on,1,0,0,,5,,,65,127
75303,note_off,114,0,0,,5,,,65,127
75303,note_off,0,0,0,,10,,,57,127
75304,note_on,1,0,0,,7,,,55,127
75304,note_on,0,0,0,,2,,,74,127
75304,note_on,0,0,0,,4,,,64,127
75418,note_off,114,0,0,,4,,,64,127
75419,note_on,1,0,0,,2,,,62,127
75533,note_off,114,0,0,,2,,,62,127
75533,note_off,0,0,0,,2,,,74,127
75533,note_off,0,0,0,,7,,,55,127
75533,note_off,0,0,0,,11,,,46,127
75534,note_on,1,0,0,,10,,,45,127
75534,note_on,0,0,0,,10,,,57,127
75534,note_on,0,0,0,,1,,,73,127
75534,note_on,0,0,0,,4,,,64,127
75763,note_off,229,0,0,,4,,,64,127
75763,note_off,0,0,0,,1,,,73,127
75764,note_on,1,0,0,,7,,,79,127
75878,note_off,114,0,0,,7,,,79,127
75879,note_on,1,0,0,,4,,,76,127
75993,note_off,114,0,0,,4,,,76,127
75994,note_on,1,0,0,,1,,,73,127
76108,note_off,114,0,0,,1,,,73,127
76109,note_on,1,0,0,,7,,,67,127
76223,note_off,114,0,0,,7,,,67,127
76223,note_off,0,0,0,,10,,,57,127
76223,note_off,0,0,0,,10,,,45,127
76224,note_on,1,0,0,,4,,,64,127
76338,note_off,114,0,0,,4,,,64,127
76339,note_on,1,0,0,,1,,,61,127
76453,note_off,114,0,0,,1,,,61,127
76454,note_on,1,0,0,,2,,,38,127
76454,note_on,0,0,0,,2,,,50,127
76454,note_on,0,0,0,,6,,,66,127
76454,note_on,0,0,0,,10,,,69,127
76454,note_on,0,0,0,,2,,,62,127
76683,note_off,229,0,0,,2,,,62,127
76683,note_off,0,0,0,,10,,,69,127
76683,note_off,0,0,0,,6,,,66,127
76684,note_on,1,0,0,,2,,,86,127
76798,note_off,114,0,0,,2,,,86,127
76799,note_on,1,0,0,,10,,,81,127
76913,note_off,114,0,0,,10,,,81,127
76914,note_on,1,0,0,,6,,,78,127
77028,note_off,114,0,0,,6,,,78,127
77029,note_on,1,0,0,,2,,,74,127
77143,note_off,114,0,0,,2,,,74,127
77143,note_off,0,0,0,,2,,,50,127
77143,note_off,0,0,0,,2,,,38,127
77144,note_on,1,0,0,,10,,,69,127
77258,note_off,114,0,0,,10,,,69,127
77259,note_on,1,0,0,,6,,,66,127
77373,note_off,114,0,0,,6,,,66,127
77374,note_on,1,0,0,,10,,,45,127
77374,note_on,0,0,0,,10,,,57,127
77374,note_on,0,0,0,,10,,,69,127
77374,note_on,0,0,0,,7,,,67,127
77374,note_on,0,0,0,,4,,,64,127
77374,note_on,0,0,0,,1,,,73,127
77603,note_off,229,0,0,,1,,,73,127
77603,note_off,0,0,0,,4,,,64,127
77603,note_off,0,0,0,,7,,,67,127
77603,note_off,0,0,0,,10,,,69,127
77604,note_on,1,0,0,,7,,,79,127
77718,note_off,114,0,0,,7,,,79,127
77719,note_on,1,0,0,,4,,,76,127
77833,note_off,114,0,0,,4,,,76,127
77834,note_on,1,0,0,,1,,,73,127
77948,note_off,114,0,0,,1,,,73,127
77949,note_on,1,0,0,,7,,,67,127
78063,note_off,114,0,0,,7,,,67,127
78063,note_off,0,0,0,,10,,,57,127
78063,note_off,0,0,0,,10,,,45,127
78064,note_on,1,0,0,,4,,,64,127
78178,note_off,114,0,0,,4,,,64,127
78179,note_on,1,0,0,,1,,,61,127
78293,note_off,114,0,0,,1,,,61,127
78294,note_on,1,0,0,,2,,,38,127
78294,note_on,0,0,0,,2,,,50,127
78294,note_on,0,0,0,,10,,,69,127
78294,note_on,0,0,0,,6,,,66,127
78294,note_on,0,0,0,,2,,,62,127
78523,note_off,229,0,0,,2,,,62,127
78523,note_off,0,0,0,,6,,,66,127
78523,note_off,0,0,0,,10,,,69,127
78524,note_on,1,0,0,,2,,,86,127
78638,note_off,114,0,0,,2,,,86,127
78639,note_on,1,0,0,,10,,,81,127
78753,note_off,114,0,0,,10,,,81,127
78754,note_on,1,0,0,,6,,,78,127
78868,note_off,114,0,0,,6,,,78,127
78869,note_on,1,0,0,,2,,,74,127
78983,note_off,114,0,0,,2,,,74,127
78983,note_off,0,0,0,,2,,,50,127
78983,note_off,0,0,0,,2,,,38,127
78984,note_on,1,0,0,,10,,,69,127
79098,note_off,114,0,0,,10,,,69,127
79099,note_on,1,0,0,,6,,,66,127
79213,note_off,114,0,0,,6,,,66,127
79214,note_on,1,0,0,,10,,,45,127
79214,note_on,0,0,0,,10,,,57,127
79214,note_on,0,0,0,,7,,,67,127
79214,note_on,0,0,0,,4,,,64,127
79214,note_on,0,0,0,,1,,,73,127
79214,note_on,0,0,0,,10,,,69,127
79443,note_off,229,0,0,,10,,,69,127
79443,note_off,0,0,0,,1,,,73,127
79443,note_off,0,0,0,,4,,,64,127
79443,note_off,0,0,0,,7,,,67,127
79444,note_on,1,0,0,,7,,,79,127
79558,note_off,114,0,0,,7,,,79,127
79559,note_on,1,0,0,,4,,,76,127
79673,note_off,114,0,0,,4,,,76,127
79674,note_on,1,0,0,,1,,,73,127
79788,note_off,114,0,0,,1,,,73,127
79789,note_on,1,0,0,,7,,,67,127
79903,note_off,114,0,0,,7,,,67,127
79903,note_off,0,0,0,,10,,,57,127
79903,note_off,0,0,0,,10,,,45,127
79904,note_on,1,0,0,,4,,,64,127
80018,note_off,114,0,0,,4,,,64,127
80019,note_on,1,0,0,,1,,,61,127
80133,note_off,114,0,0,,1,,,61,127
80134,note_on,1,0,0,,2,,,50,127
80134,note_on,0,0,0,,6,,,66,127
80248,note_off,114,0,0,,6,,,66,127
80249,note_on,1,0,0,,2,,,74,127
80363,note_off,114,0,0,,2,,,74,127
80363,note_off,0,0,0,,2,,,50,127
80364,note_on,1,0,0,,7,,,55,127
80364,note_on,0,0,0,,12,,,71,127
80478,note_off,114,0,0,,12,,,71,127
80479,note_on,1,0,0,,7,,,79,127
80593,note_off,114,0,0,,7,,,79,127
80593,note_off,0,0,0,,7,,,55,127
80594,note_on,1,0,0,,10,,,57,127
80594,note_on,0,0,0,,2,,,74,127
80824,note_on,230,0,0,,10,,,45,127
80882,note_off,58,0,0,,2,,,74,127
80882,note_on,0,0,0,,1,,,73,127
80938,note_off,56,0,0,,1,,,73,127
80939,note_on,1,0,0,,12,,,71,127
80995,note_off,56,0,0,,12,,,71,127
80996,note_on,1,0,0,,1,,,73,127
81052,note_off,56,0,0,,1,,,73,127
81052,note_off,0,0,0,,10,,,45,127
81052,note_off,0,0,0,,10,,,57,127
81053,note_on,1,0,0,,2,,,50,127
81053,note_on,0,0,0,,2,,,74,127
81282,note_off,229,0,0,,2,,,74,127
81282,note_off,0,0,0,,2,,,50,127
81283,note_on,1,0,0,,2,,,74,127
81283,note_on,0,0,0,,10,,,81,127
81397,note_off,114,0,0,,2,,,74,127
81398,note_on,1,0,0,,10,,,69,127
81512,note_off,114,0,0,,10,,,69,127
81513,note_on,1,0,0,,6,,,66,127
81627,note_off,114,0,0,,6,,,66,127
81628,note_on,1,0,0,,2,,,62,127
81742,note_off,114,0,0,,2,,,62,127
81742,note_off,0,0,0,,10,,,81,127
81743,note_on,1,0,0,,10,,,57,127
81743,note_on,0,0,0,,6,,,78,127
81857,note_off,114,0,0,,10,,,57,127
81858,note_on,1,0,0,,2,,,50,127
81972,note_off,114,0,0,,2,,,50,127
81972,note_off,0,0,0,,6,,,78,127
81973,note_on,1,0,0,,7,,,43,127
81973,note_on,0,0,0,,12,,,83,127
82202,note_off,229,0,0,,12,,,83,127
82202,note_off,0,0,0,,7,,,43,127
82203,note_on,1,0,0,,7,,,67,127
82203,note_on,0,0,0,,12,,,83,127
82317,note_off,114,0,0,,7,,,67,127
82318,note_on,1,0,0,,2,,,62,127
82432,note_off,114,0,0,,2,,,62,127
82433,note_on,1,0,0,,12,,,59,127
82547,note_off,114,0,0,,12,,,59,127
82548,note_on,1,0,0,,7,,,55,127
82662,note_off,114,0,0,,7,,,55,127
82662,note_off,0,0,0,,12,,,83,127
82663,note_on,1,0,0,,2,,,50,127
82663,note_on,0,0,0,,7,,,79,127
82777,note_off,114,0,0,,2,,,50,127
82778,note_on,1,0,0,,7,,,43,127
82892,note_off,114,0,0,,7,,,43,127
82892,note_off,0,0,0,,7,,,79,127
82893,note_on,1,0,0,,6,,,42,127
82893,note_on,0,0,0,,10,,,81,127
83122,note_off,229,0,0,,10,,,81,127
83122,note_off,0,0,0,,6,,,42,127
83123,note_on,1,0,0,,6,,,66,127
83123,note_on,0,0,0,,10,,,81,127
83237,note_off,114,0,0,,6,,,66,127
83238,note_on,1,0,0,,2,,,62,127
83352,note_off,114,0,0,,2,,,62,127
83353,note_on,1,0,0,,10,,,57,127
83467,note_off,114,0,0,,10,,,57,127
83468,note_on,1,0,0,,6,,,54,127
83582,note_off,114,0,0,,6,,,54,127
83582,note_off,0,0,0,,10,,,81,127
83583,note_on,1,0,0,,2,,,50,127
83583,note_on,0,0,0,,6,,,78,127
83697,note_off,114,0,0,,2,,,50,127
83698,note_on,1,0,0,,6,,,42,127
83812,note_off,114,0,0,,6,,,42,127
83812,note_off,0,0,0,,6,,,78,127
83813,note_on,1,0,0,,4,,,40,127
83813,note_on,0,0,0,,7,,,79,127
84042,note_off,229,0,0,,7,,,79,127
84042,note_off,0,0,0,,4,,,40,127
84043,note_on,1,0,0,,4,,,64,127
84043,note_on,0,0,0,,7,,,79,127
84157,note_off,114,0,0,,4,,,64,127
84158,note_on,1,0,0,,1,,,61,127
84272,note_off,114,0,0,,1,,,61,127
84273,note_on,1,0,0,,7,,,55,127
84387,note_off,114,0,0,,7,,,55,127
84388,note_on,1,0,0,,4,,,52,127
84502,note_off,114,0,0,,4,,,52,127
84502,note_off,0,0,0,,7,,,79,127
84503,note_on,1,0,0,,1,,,49,127
84503,note_on,0,0,0,,4,,,76,127
84617,note_off,114,0,0,,1,,,49,127
84618,note_on,1,0,0,,4,,,40,127
84732,note_off,114,0,0,,4,,,40,127
84732,note_off,0,0,0,,4,,,76,127
84733,note_on,1,0,0,,2,,,38,127
84733,note_on,0,0,0,,2,,,74,127
84962,note_off,229,0,0,,2,,,74,127
84962,note_off,0,0,0,,2,,,38,127
84963,note_on,1,0,0,,2,,,74,127
84963,note_on,0,0,0,,10,,,81,127
85077,note_off,114,0,0,,2,,,74,127
85078,note_on,1,0,0,,10,,,69,127
85192,note_off,114,0,0,,10,,,69,127
85193,note_on,1,0,0,,6,,,66,127
85307,note_off,114,0,0,,6,,,66,127
85308,note_on,1,0,0,,2,,,62,127
85422,note_off,114,0,0,,2,,,62,127
85422,note_off,0,0,0,,10,,,81,127
85423,note_on,1,0,0,,10,,,57,127
85423,note_on,0,0,0,,6,,,78,127
85537,note_off,114,0,0,,10,,,57,127
85538,note_on,1,0,0,,2,,,50,127
85652,note_off,114,0,0,,2,,,50,127
85652,note_off,0,0,0,,6,,,78,127
85653,note_on,1,0,0,,7,,,43,127
85653,note_on,0,0,0,,12,,,83,127
85882,note_off,229,0,0,,12,,,83,127
85882,note_off,0,0,0,,7,,,43,127
85883,note_on,1,0,0,,7,,,67,127
85883,note_on,0,0,0,,12,,,83,127
85997,note_off,114,0,0,,7,,,67,127
85998,note_on,1,0,0,,2,,,62,127
86112,note_off,114,0,0,,2,,,62,127
86113,note_on,1,0,0,,12,,,59,127
86227,note_off,114,0,0,,12,,,59,127
86228,note_on,1,0,0,,7,,,55,127
86342,note_off,114,0,0,,7,,,55,127
86342,note_off,0,0,0,,12,,,83,127
86343,note_on,1,0,0,,2,,,50,127
86343,note_on,0,0,0,,7,,,79,127
86457,note_off,114,0,0,,2,,,50,127
86458,note_on,1,0,0,,7,,,43,127
86572,note_off,114,0,0,,7,,,43,127
86572,note_off,0,0,0,,7,,,79,127
86573,note_on,1,0,0,,6,,,42,127
86573,note_on,0,0,0,,10,,,81,127
86802,note_off,229,0,0,,10,,,81,127
86802,note_off,0,0,0,,6,,,42,127
86803,note_on,1,0,0,,2,,,62,127
86803,note_on,0,0,0,,10,,,81,127
86917,note_off,114,0,0,,2,,,62,127
86918,note_on,1,0,0,,10,,,57,127
87032,note_off,114,0,0,,10,,,57,127
87033,note_on,1,0,0,,6,,,54,127
87147,note_off,114,0,0,,6,,,54,127
87148,note_on,1,0,0,,2,,,50,127
87262,note_off,114,0,0,,2,,,50,127
87262,note_off,0,0,0,,10,,,81,127
87263,note_on,1,0,0,,10,,,45,127
87263,note_on,0,0,0,,6,,,78,127
87377,note_off,114,0,0,,10,,,45,127
87378,note_on,1,0,0,,6,,,42,127
87492,note_off,114,0,0,,6,,,42,127
87493,note_on,1,0,0,,7,,,43,127
87493,note_on,0,0,0,,12,,,71,127
87608,note_off,115,0,0,,6,,,78,127
87608,note_on,0,0,0,,7,,,79,127
87721,note_off,113,0,0,,12,,,71,127
87722,note_off,1,0,0,,7,,,79,127
87723,note_on,1,0,0,,7,,,55,127
87723,note_on,0,0,0,,6,,,78,127
87837,note_off,114,0,0,,6,,,78,127
87838,note_on,1,0,0,,4,,,76,127
87952,note_off,114,0,0,,4,,,76,127
87952,note_off,0,0,0,,7,,,55,127
87952,note_off,0,0,0,,7,,,43,127
87953,note_on,1,0,0,,10,,,45,127
87953,note_on,0,0,0,,2,,,50,127
87953,note_on,0,0,0,,6,,,54,127
87953,note_on,0,0,0,,6,,,78,127
88067,note_off,114,0,0,,6,,,78,127
88068,note_on,1,0,0,,2,,,74,127
88182,note_off,114,0,0,,2,,,74,127
88182,note_off,0,0,0,,6,,,54,127
88182,note_off,0,0,0,,2,,,50,127
88183,note_on,1,0,0,,1,,,49,127
88183,note_on,0,0,0,,4,,,52,127
88183,note_on,0,0,0,,4,,,76,127
88297,note_off,114,0,0,,4,,,76,127
88298,note_on,1,0,0,,1,,,73,127
88412,note_off,114,0,0,,1,,,73,127
88412,note_off,0,0,0,,4,,,52,127
88412,note_off,0,0,0,,1,,,49,127
88412,note_off,0,0,0,,10,,,45,127
88413,note_on,1,0,0,,2,,,50,127
88413,note_on,0,0,0,,2,,,74,127
88642,note_off,229,0,0,,2,,,74,127
88642,note_off,0,0,0,,2,,,50,127
88643,note_on,1,0,0,,2,,,74,127
88643,note_on,0,0,0,,10,,,81,127
88757,note_off,114,0,0,,2,,,74,127
88758,note_on,1,0,0,,10,,,69,127
88872,note_off,114,0,0,,10,,,69,127
88873,note_on,1,0,0,,6,,,66,127
88987,note_off,114,0,0,,6,,,66,127
88988,note_on,1,0,0,,2,,,62,127
89102,note_off,114,0,0,,2,,,62,127
89102,note_off,0,0,0,,10,,,81,127
89103,note_on,1,0,0,,10,,,57,127
89103,note_on,0,0,0,,6,,,78,127
89217,note_off,114,0,0,,10,,,57,127
89218,note_on,1,0,0,,2,,,50,127
89332,note_off,114,0,0,,2,,,50,127
89332,note_off,0,0,0,,6,,,78,127
89333,note_on,1,0,0,,7,,,43,127
89333,note_on,0,0,0,,12,,,83,127
89562,note_off,229,0,0,,12,,,83,127
89562,note_off,0,0,0,,7,,,43,127
89563,note_on,1,0,0,,7,,,67,127
89563,note_on,0,0,0,,12,,,83,127
89677,note_off,114,0,0,,7,,,67,127
89678,note_on,1,0,0,,2,,,62,127
89792,note_off,114,0,0,,2,,,62,127
89793,note_on,1,0,0,,12,,,59,127
89907,note_off,114,0,0,,12,,,59,127
89908,note_on,1,0,0,,7,,,55,127
90022,note_off,114,0,0,,7,,,55,127
90022,note_off,0,0,0,,12,,,83,127
90023,note_on,1,0,0,,2,,,50,127
90023,note_on,0,0,0,,7,,,79,127
90137,note_off,114,0,0,,2,,,50,127
90138,note_on,1,0,0,,7,,,43,127
90252,note_off,114,0,0,,7,,,43,127
90252,note_off,0,0,0,,7,,,79,127
90253,note_on,1,0,0,,6,,,42,127
90253,note_on,0,0,0,,10,,,81,127
90482,note_off,229,0,0,,10,,,81,127
90482,note_off,0,0,0,,6,,,42,127
90483,note_on,1,0,0,,6,,,66,127
90483,note_on,0,0,0,,10,,,81,127
90597,note_off,114,0,0,,6,,,66,127
90598,note_on,1,0,0,,2,,,62,127
90712,note_off,114,0,0,,2,,,62,127
90713,note_on,1,0,0,,10,,,57,127
90827,note_off,114,0,0,,10,,,57,127
90828,note_on,1,0,0,,6,,,54,127
90942,note_off,114,0,0,,6,,,54,127
90942,note_off,0,0,0,,10,,,81,127
90943,note_on,1,0,0,,2,,,50,127
90943,note_on,0,0,0,,6,,,78,127
91057,note_off,114,0,0,,2,,,50,127
91058,note_on,1,0,0,,6,,,42,127
91172,note_off,114,0,0,,6,,,42,127
91172,note_off,0,0,0,,6,,,78,127
91173,note_on,1,0,0,,4,,,40,127
91173,note_on,0,0,0,,7,,,79,127
91402,note_off,229,0,0,,7,,,79,127
91402,note_off,0,0,0,,4,,,40,127
91403,note_on,1,0,0,,4,,,64,127
91403,note_on,0,0,0,,7,,,79,127
91517,note_off,114,0,0,,4,,,64,127
91518,note_on,1,0,0,,1,,,61,127
91632,note_off,114,0,0,,1,,,61,127
91633,note_on,1,0,0,,7,,,55,127
91747,note_off,114,0,0,,7,,,55,127
91748,note_on,1,0,0,,4,,,52,127
91862,note_off,114,0,0,,4,,,52,127
91862,note_off,0,0,0,,7,,,79,127
91863,note_on,1,0,0,,1,,,49,127
91863,note_on,0,0,0,,4,,,76,127
91977,note_off,114,0,0,,1,,,49,127
91978,note_on,1,0,0,,4,,,40,127
92092,note_off,114,0,0,,4,,,40,127
92092,note_off,0,0,0,,4,,,76,127
92093,note_on,1,0,0,,2,,,38,127
92093,note_on,0,0,0,,6,,,78,127
92322,note_off,229,0,0,,6,,,78,127
92322,note_off,0,0,0,,2,,,38,127
92323,note_on,1,0,0,,2,,,74,127
92323,note_on,0,0,0,,10,,,81,127
92437,note_off,114,0,0,,2,,,74,127
92438,note_on,1,0,0,,10,,,69,127
92552,note_off,114,0,0,,10,,,69,127
92553,note_on,1,0,0,,6,,,66,127
92667,note_off,114,0,0,,6,,,66,127
92668,note_on,1,0,0,,2,,,62,127
92782,note_off,114,0,0,,2,,,62,127
92782,note_off,0,0,0,,10,,,81,127
92783,note_on,1,0,0,,10,,,57,127
92783,note_on,0,0,0,,6,,,78,127
92897,note_off,114,0,0,,10,,,57,127
92898,note_on,1,0,0,,2,,,50,127
93012,note_off,114,0,0,,2,,,50,127
93012,note_off,0,0,0,,6,,,78,127
93013,note_on,1,0,0,,7,,,43,127
93013,note_on,0,0,0,,12,,,83,127
93242,note_off,229,0,0,,12,,,83,127
93242,note_off,0,0,0,,7,,,43,127
93243,note_on,1,0,0,,7,,,67,127
93243,note_on,0,0,0,,12,,,83,127
93357,note_off,114,0,0,,7,,,67,127
93358,note_on,1,0,0,,2,,,62,127
93472,note_off,114,0,0,,2,,,62,127
93473,note_on,1,0,0,,12,,,59,127
93587,note_off,114,0,0,,12,,,59,127
93588,note_on,1,0,0,,7,,,55,127
93702,note_off,114,0,0,,7,,,55,127
93702,note_off,0,0,0,,12,,,83,127
93703,note_on,1,0,0,,2,,,50,127
93703,note_on,0,0,0,,7,,,79,127
93817,note_off,114,0,0,,2,,,50,127
93818,note_on,1,0,0,,7,,,43,127
93932,note_off,114,0,0,,7,,,43,127
93932,note_off,0,0,0,,7,,,79,127
93933,note_on,1,0,0,,6,,,42,127
93933,note_on,0,0,0,,10,,,81,127
94162,note_off,229,0,0,,10,,,81,127
94162,note_off,0,0,0,,6,,,42,127
94163,note_on,1,0,0,,2,,,62,127
94163,note_on,0,0,0,,10,,,81,127
94277,note_off,114,0,0,,2,,,62,127
94278,note_on,1,0,0,,10,,,57,127
94392,note_off,114,0,0,,10,,,57,127
94393,note_on,1,0,0,,6,,,54,127
94507,note_off,114,0,0,,6,,,54,127
94508,note_on,1,0,0,,2,,,50,127
94622,note_off,114,0,0,,2,,,50,127
94623,note_on,1,0,0,,10,,,45,127
94623,note_on,0,0,0,,6,,,78,127
94737,note_off,114,0,0,,10,,,45,127
94738,note_on,1,0,0,,6,,,42,127
94852,note_off,114,0,0,,6,,,42,127
94852,note_off,0,0,0,,6,,,78,127
94853,note_on,1,0,0,,7,,,43,127
94853,note_on,0,0,0,,12,,,71,127
94966,note_off,113,0,0,,10,,,81,127
94968,note_on,2,0,0,,7,,,79,127
95081,note_off,113,0,0,,12,,,71,127
95082,note_off,1,0,0,,7,,,79,127
95083,note_on,1,0,0,,7,,,55,127
95083,note_on,0,0,0,,6,,,78,127
95197,note_off,114,0,0,,6,,,78,127
95198,note_on,1,0,0,,4,,,76,127
95312,note_off,114,0,0,,4,,,76,127
95312,note_off,0,0,0,,7,,,55,127
95312,note_off,0,0,0,,7,,,43,127
95313,note_on,1,0,0,,10,,,45,127
95313,note_on,0,0,0,,2,,,50,127
95313,note_on,0,0,0,,6,,,54,127
95313,note_on,0,0,0,,6,,,78,127
95427,note_off,114,0,0,,6,,,78,127
95428,note_on,1,0,0,,2,,,74,127
95542,note_off,114,0,0,,2,,,74,127
95542,note_off,0,0,0,,6,,,54,127
95542,note_off,0,0,0,,2,,,50,127
95543,note_on,1,0,0,,1,,,49,127
95543,note_on,0,0,0,,4,,,52,127
95543,note_on,0,0,0,,4,,,76,127
95657,note_off,114,0,0,,4,,,76,127
95658,note_on,1,0,0,,1,,,73,127
95772,note_off,114,0,0,,1,,,73,127
95772,note_off,0,0,0,,4,,,52,127
95772,note_off,0,0,0,,1,,,49,127
95772,note_off,0,0,0,,10,,,45,127
95773,note_on,1,0,0,,6,,,54,127
95773,note_on,0,0,0,,2,,,74,127
96002,note_off,229,0,0,,2,,,74,127
96002,note_off,0,0,0,,6,,,54,127
96003,note_on,1,0,0,,6,,,66,127
96003,note_on,0,0,0,,2,,,86,127
96117,note_off,114,0,0,,2,,,86,127
96118,note_on,1,0,0,,10,,,81,127
96232,note_off,114,0,0,,10,,,81,127
96232,note_off,0,0,0,,6,,,66,127
96233,note_on,1,0,0,,7,,,67,127
96233,note_on,0,0,0,,12,,,83,127
96347,note_off,114,0,0,,12,,,83,127
96348,note_on,1,0,0,,7,,,79,127
96462,note_off,114,0,0,,7,,,79,127
96462,note_off,0,0,0,,7,,,67,127
96463,note_on,1,0,0,,1,,,61,127
96463,note_on,0,0,0,,10,,,81,127
96577,note_off,114,0,0,,10,,,81,127
96578,note_on,1,0,0,,4,,,76,127
96692,note_off,114,0,0,,4,,,76,127
96692,note_off,0,0,0,,1,,,61,127
96693,note_on,1,0,0,,2,,,62,127
96693,note_on,0,0,0,,6,,,78,127
96807,note_off,114,0,0,,6,,,78,127
96808,note_on,1,0,0,,1,,,73,127
96922,note_off,114,0,0,,1,,,73,127
96922,note_off,0,0,0,,2,,,62,127
96923,note_on,1,0,0,,6,,,54,127
96923,note_on,0,0,0,,2,,,74,127
97037,note_off,114,0,0,,2,,,74,127
97038,note_on,1,0,0,,10,,,69,127
97152,note_off,114,0,0,,10,,,69,127
97152,note_off,0,0,0,,6,,,54,127
97153,note_on,1,0,0,,7,,,55,127
97153,note_on,0,0,0,,6,,,78,127
97209,note_off,56,0,0,,6,,,78,127
97210,note_on,1,0,0,,4,,,76,127
97266,note_off,56,0,0,,4,,,76,127
97267,note_on,1,0,0,,6,,,78,127
97323,note_off,56,0,0,,6,,,78,127
97324,note_on,1,0,0,,4,,,76,127
97380,note_off,56,0,0,,4,,,76,127
97380,note_off,0,0,0,,7,,,55,127
97381,note_on,1,0,0,,10,,,57,127
97381,note_on,0,0,0,,6,,,78,127
97437,note_off,56,0,0,,6,,,78,127
97438,note_on,1,0,0,,4,,,76,127
97494,note_off,56,0,0,,4,,,76,127
97495,note_on,1,0,0,,2,,,74,127
97551,note_off,56,0,0,,2,,,74,127
97552,note_on,1,0,0,,4,,,76,127
97608,note_off,56,0,0,,4,,,76,127
97608,note_off,0,0,0,,10,,,57,127
97609,note_on,1,0,0,,2,,,74,127
97609,note_on,0,0,0,,2,,,50,127
97838,note_off,229,0,0,,2,,,50,127
97842,note_on,4,0,0,,6,,,54,127
97955,note_off,113,0,0,,2,,,74,127
97959,note_on,4,0,0,,10,,,69,127
98072,note_off,113,0,0,,6,,,54,127
98073,note_off,1,0,0,,10,,,69,127
98075,note_on,2,0,0,,12,,,71,127
98075,note_on,0,0,0,,7,,,55,127
98189,note_off,114,0,0,,12,,,71,127
98191,note_on,2,0,0,,7,,,67,127
98304,note_off,113,0,0,,7,,,55,127
98305,note_off,1,0,0,,7,,,67,127
98307,note_on,2,0,0,,10,,,69,127
98307,note_on,0,0,0,,1,,,49,127
98421,note_off,114,0,0,,10,,,69,127
98423,note_on,2,0,0,,4,,,64,127
98536,note_off,113,0,0,,1,,,49,127
98537,note_off,1,0,0,,4,,,64,127
98539,note_on,2,0,0,,6,,,66,127
98539,note_on,0,0,0,,2,,,50,127
98653,note_off,114,0,0,,6,,,66,127
98655,note_on,2,0,0,,1,,,61,127
98768,note_off,113,0,0,,2,,,50,127
98769,note_off,1,0,0,,1,,,61,127
98771,note_on,2,0,0,,2,,,62,127
98771,note_on,0,0,0,,6,,,42,127
98885,note_off,114,0,0,,2,,,62,127
98887,note_on,2,0,0,,10,,,57,127
99000,note_off,113,0,0,,6,,,42,127
99001,note_off,1,0,0,,10,,,57,127
99003,note_on,2,0,0,,6,,,66,127
99003,note_on,0,0,0,,7,,,43,127
99059,note_off,56,0,0,,6,,,66,127
99060,note_on,1,0,0,,4,,,64,127
99116,note_off,56,0,0,,4,,,64,127
99118,note_on,2,0,0,,6,,,66,127
99174,note_off,56,0,0,,6,,,66,127
99175,note_on,1,0,0,,4,,,64,127
99230,note_off,55,0,0,,7,,,43,127
99231,note_off,1,0,0,,4,,,64,127
99233,note_on,2,0,0,,6,,,66,127
99233,note_on,0,0,0,,10,,,45,127
99289,note_off,56,0,0,,6,,,66,127
99290,note_on,1,0,0,,4,,,64,127
99346,note_off,56,0,0,,4,,,64,127
99348,note_on,2,0,0,,2,,,62,127
99404,note_off,56,0,0,,2,,,62,127
99405,note_on,1,0,0,,4,,,64,127
99460,note_off,55,0,0,,10,,,45,127
99461,note_off,1,0,0,,4,,,64,127
99479,note_on,18,0,0,,2,,,62,127
99479,note_on,0,0,0,,2,,,50,127
99479,note_on,0,0,0,,2,,,38,127
101437,note_off,1958,0,0,,2,,,38,127
101437,note_off,0,0,0,,2,,,50,127
101437,note_off,0,0,0,,2,,,62,127
102912,end_of_track,1475,1,0,,,,,,
