tick,type,time,meta,track,program,channel,pitch,tempo,note,velocity
0,copyright,0,1,0,,,,,,
0,program_change,0,0,0,6,0,,,,
0,pitchwheel,0,0,0,,0,0,,,
0,program_change,0,0,0,6,1,,,,
0,pitchwheel,0,0,0,,1,-590,,,
0,program_change,0,0,0,6,2,,,,
0,pitchwheel,0,0,0,,2,-272,,,
0,program_change,0,0,0,6,3,,,,
0,pitchwheel,0,0,0,,3,-353,,,
0,program_change,0,0,0,6,4,,,,
0,pitchwheel,0,0,0,,4,-560,,,
0,program_change,0,0,0,6,5,,,,
0,pitchwheel,0,0,0,,5,-80,,,
0,program_change,0,0,0,6,6,,,,
0,pitchwheel,0,0,0,,6,-625,,,
0,program_change,0,0,0,6,7,,,,
0,pitchwheel,0,0,0,,7,-130,,,
0,program_change,0,0,0,6,8,,,,
0,pitchwheel,0,0,0,,8,-512,,,
0,program_change,0,0,0,6,10,,,,
0,pitchwheel,0,0,0,,10,-464,,,
0,program_change,0,0,0,6,11,,,,
0,pitchwheel,0,0,0,,11,-208,,,
0,program_change,0,0,0,6,12,,,,
0,pitchwheel,0,0,0,,12,-553,,,
0,set_tempo,0,1,0,,,,500000,,
113,note_on,113,0,0,,6,,,78,127
224,note_off,111,0,0,,6,,,78,127
226,note_on,2,0,0,,7,,,79,127
337,note_off,111,0,0,,7,,,79,127
339,note_on,2,0,0,,10,,,81,127
450,note_off,111,0,0,,10,,,81,127
452,note_on,2,0,0,,7,,,79,127
563,note_off,111,0,0,,7,,,79,127
565,note_on,2,0,0,,6,,,78,127
676,note_off,111,0,0,,6,,,78,127
678,note_on,2,0,0,,4,,,76,127
789,note_off,111,0,0,,4,,,76,127
791,note_on,2,0,0,,2,,,74,127
902,note_off,111,0,0,,2,,,74,127
904,note_on,2,0,0,,4,,,76,127
1015,note_off,111,0,0,,4,,,76,127
1017,note_on,2,0,0,,6,,,78,127
1128,note_off,111,0,0,,6,,,78,127
1130,note_on,2,0,0,,4,,,76,127
1241,note_off,111,0,0,,4,,,76,127
1243,note_on,2,0,0,,2,,,74,127
1354,note_off,111,0,0,,2,,,74,127
1356,note_on,2,0,0,,1,,,73,127
1467,note_off,111,0,0,,1,,,73,127
1469,note_on,2,0,0,,12,,,71,127
1580,note_off,111,0,0,,12,,,71,127
1582,note_on,2,0,0,,1,,,73,127
1693,note_off,111,0,0,,1,,,73,127
1695,note_on,2,0,0,,2,,,74,127
1806,note_off,111,0,0,,2,,,74,127
1808,note_on,2,0,0,,1,,,73,127
1919,note_off,111,0,0,,1,,,73,127
1921,note_on,2,0,0,,12,,,71,127
2032,note_off,111,0,0,,12,,,71,127
2034,note_on,2,0,0,,10,,,69,127
2145,note_off,111,0,0,,10,,,69,127
2147,note_on,2,0,0,,10,,,69,127
2201,note_off,54,0,0,,10,,,69,127
2203,note_on,2,0,0,,7,,,67,127
2257,note_off,54,0,0,,7,,,67,127
2259,note_on,2,0,0,,10,,,69,127
2313,note_off,54,0,0,,10,,,69,127
2315,note_on,2,0,0,,7,,,67,127
2369,note_off,54,0,0,,7,,,67,127
2371,note_on,2,0,0,,10,,,69,127
2425,note_off,54,0,0,,10,,,69,127
2427,note_on,2,0,0,,7,,,67,127
2481,note_off,54,0,0,,7,,,67,127
2483,note_on,2,0,0,,10,,,69,127
2537,note_off,54,0,0,,10,,,69,127
2539,note_on,2,0,0,,7,,,67,127
2593,note_off,54,0,0,,7,,,67,127
2595,note_on,2,0,0,,6,,,66,127
2821,note_on,226,0,0,,2,,,62,127
2932,note_off,111,0,0,,2,,,62,127
2934,note_off,2,0,0,,6,,,66,127
2934,note_on,0,0,0,,4,,,64,127
3045,note_off,111,0,0,,4,,,64,127
3047,note_on,2,0,0,,6,,,66,127
3047,note_on,0,0,0,,10,,,81,127
3158,note_off,111,0,0,,6,,,66,127
3160,note_on,2,0,0,,4,,,64,127
3271,note_off,111,0,0,,4,,,64,127
3271,note_off,0,0,0,,10,,,81,127
3273,note_on,2,0,0,,2,,,62,127
3273,note_on,0,0,0,,6,,,78,127
3384,note_off,111,0,0,,2,,,62,127
3386,note_on,2,0,0,,1,,,61,127
3497,note_off,111,0,0,,1,,,61,127
3497,note_off,0,0,0,,6,,,78,127
3499,note_on,2,0,0,,12,,,59,127
3499,note_on,0,0,0,,2,,,74,127
3610,note_off,111,0,0,,12,,,59,127
3612,note_on,2,0,0,,1,,,61,127
3723,note_off,111,0,0,,1,,,61,127
3723,note_off,0,0,0,,2,,,74,127
3725,note_on,2,0,0,,2,,,62,127
3725,note_on,0,0,0,,6,,,78,127
3836,note_off,111,0,0,,2,,,62,127
3838,note_on,2,0,0,,1,,,61,127
3949,note_off,111,0,0,,1,,,61,127
3949,note_off,0,0,0,,6,,,78,127
3951,note_on,2,0,0,,12,,,59,127
3951,note_on,0,0,0,,2,,,74,127
4062,note_off,111,0,0,,12,,,59,127
4064,note_on,2,0,0,,10,,,57,127
4175,note_off,111,0,0,,10,,,57,127
4175,note_off,0,0,0,,2,,,74,127
4177,note_on,2,0,0,,7,,,55,127
4177,note_on,0,0,0,,12,,,71,127
4288,note_off,111,0,0,,7,,,55,127
4290,note_on,2,0,0,,10,,,57,127
4401,note_off,111,0,0,,10,,,57,127
4401,note_off,0,0,0,,12,,,71,127
4403,note_on,2,0,0,,12,,,59,127
4403,note_on,0,0,0,,2,,,74,127
4514,note_off,111,0,0,,12,,,59,127
4516,note_on,2,0,0,,10,,,57,127
4627,note_off,111,0,0,,10,,,57,127
4627,note_off,0,0,0,,2,,,74,127
4629,note_on,2,0,0,,7,,,55,127
4629,note_on,0,0,0,,12,,,71,127
4740,note_off,111,0,0,,7,,,55,127
4742,note_on,2,0,0,,6,,,54,127
4853,note_off,111,0,0,,6,,,54,127
4853,note_off,0,0,0,,12,,,71,127
4855,note_on,2,0,0,,4,,,52,127
4855,note_on,0,0,0,,7,,,67,127
4966,note_off,111,0,0,,4,,,52,127
4968,note_on,2,0,0,,6,,,54,127
5079,note_off,111,0,0,,6,,,54,127
5079,note_off,0,0,0,,7,,,67,127
5081,note_on,2,0,0,,7,,,55,127
5081,note_on,0,0,0,,12,,,71,127
5192,note_off,111,0,0,,7,,,55,127
5194,note_on,2,0,0,,6,,,54,127
5305,note_off,111,0,0,,6,,,54,127
5305,note_off,0,0,0,,12,,,71,127
5307,note_on,2,0,0,,4,,,52,127
5307,note_on,0,0,0,,7,,,67,127
5418,note_off,111,0,0,,4,,,52,127
5420,note_on,2,0,0,,2,,,50,127
5531,note_off,111,0,0,,2,,,50,127
5531,note_off,0,0,0,,7,,,67,127
5533,note_on,2,0,0,,1,,,49,127
5533,note_on,0,0,0,,4,,,64,127
5644,note_off,111,0,0,,1,,,49,127
5646,note_on,2,0,0,,2,,,50,127
5757,note_off,111,0,0,,2,,,50,127
5757,note_off,0,0,0,,4,,,64,127
5759,note_on,2,0,0,,4,,,52,127
5759,note_on,0,0,0,,7,,,67,127
5870,note_off,111,0,0,,4,,,52,127
5872,note_on,2,0,0,,2,,,50,127
5983,note_off,111,0,0,,2,,,50,127
5983,note_off,0,0,0,,7,,,67,127
5985,note_on,2,0,0,,1,,,49,127
5985,note_on,0,0,0,,4,,,64,127
6096,note_off,111,0,0,,1,,,49,127
6098,note_on,2,0,0,,12,,,47,127
6209,note_off,111,0,0,,12,,,47,127
6209,note_off,0,0,0,,4,,,64,127
6211,note_on,2,0,0,,10,,,45,127
6211,note_on,0,0,0,,1,,,61,127
6322,note_off,111,0,0,,1,,,61,127
6324,note_on,2,0,0,,2,,,62,127
6435,note_off,111,0,0,,2,,,62,127
6437,note_on,2,0,0,,4,,,64,127
6548,note_off,111,0,0,,4,,,64,127
6550,note_on,2,0,0,,6,,,66,127
6661,note_off,111,0,0,,6,,,66,127
6663,note_on,2,0,0,,7,,,67,127
6774,note_off,111,0,0,,7,,,67,127
6776,note_on,2,0,0,,10,,,69,127
6887,note_off,111,0,0,,10,,,69,127
6887,note_off,0,0,0,,10,,,45,127
6889,note_on,2,0,0,,7,,,43,127
6889,note_on,0,0,0,,12,,,71,127
7000,note_off,111,0,0,,12,,,71,127
7002,note_on,2,0,0,,1,,,73,127
7113,note_off,111,0,0,,1,,,73,127
7115,note_on,2,0,0,,2,,,74,127
7226,note_off,111,0,0,,2,,,74,127
7228,note_off,2,0,0,,7,,,43,127
7228,note_on,0,0,0,,4,,,76,127
7339,note_off,111,0,0,,4,,,76,127
7341,note_on,2,0,0,,6,,,78,127
7452,note_off,111,0,0,,6,,,78,127
7454,note_on,2,0,0,,7,,,79,127
7565,note_off,111,0,0,,7,,,79,127
7567,note_on,2,0,0,,6,,,54,127
7567,note_on,0,0,0,,10,,,81,127
7678,note_off,111,0,0,,6,,,54,127
7680,note_on,2,0,0,,7,,,55,127
7791,note_off,111,0,0,,7,,,55,127
7793,note_on,2,0,0,,10,,,57,127
7904,note_off,111,0,0,,10,,,57,127
7906,note_on,2,0,0,,12,,,59,127
8017,note_off,111,0,0,,12,,,59,127
8019,note_on,2,0,0,,1,,,61,127
8130,note_off,111,0,0,,1,,,61,127
8132,note_on,2,0,0,,2,,,62,127
8243,note_off,111,0,0,,2,,,62,127
8245,note_on,2,0,0,,4,,,64,127
8356,note_off,111,0,0,,4,,,64,127
8358,note_on,2,0,0,,6,,,66,127
8469,note_off,111,0,0,,6,,,66,127
8469,note_off,0,0,0,,10,,,81,127
8471,note_on,2,0,0,,7,,,67,127
8471,note_on,0,0,0,,7,,,79,127
8582,note_off,111,0,0,,7,,,67,127
8584,note_on,2,0,0,,10,,,69,127
8695,note_off,111,0,0,,10,,,69,127
8697,note_on,2,0,0,,12,,,71,127
8808,note_off,111,0,0,,12,,,71,127
8810,note_on,2,0,0,,1,,,73,127
8921,note_off,111,0,0,,1,,,73,127
8921,note_off,0,0,0,,7,,,79,127
8923,note_on,2,0,0,,2,,,74,127
8923,note_on,0,0,0,,6,,,78,127
9034,note_off,111,0,0,,6,,,78,127
9036,note_on,2,0,0,,7,,,79,127
9147,note_off,111,0,0,,7,,,79,127
9149,note_on,2,0,0,,10,,,81,127
9260,note_off,111,0,0,,10,,,81,127
9262,note_on,2,0,0,,7,,,79,127
9373,note_off,111,0,0,,7,,,79,127
9373,note_off,0,0,0,,2,,,74,127
9375,note_on,2,0,0,,1,,,73,127
9375,note_on,0,0,0,,6,,,78,127
9486,note_off,111,0,0,,6,,,78,127
9488,note_on,2,0,0,,4,,,76,127
9599,note_off,111,0,0,,4,,,76,127
9599,note_off,0,0,0,,1,,,73,127
9601,note_on,2,0,0,,12,,,71,127
9601,note_on,0,0,0,,2,,,74,127
9712,note_off,111,0,0,,2,,,74,127
9712,note_off,0,0,0,,12,,,71,127
9714,note_on,2,0,0,,10,,,69,127
9714,note_on,0,0,0,,1,,,73,127
9825,note_off,111,0,0,,1,,,73,127
9825,note_off,0,0,0,,10,,,69,127
9827,note_on,2,0,0,,7,,,67,127
9827,note_on,0,0,0,,12,,,71,127
9938,note_off,111,0,0,,12,,,71,127
9938,note_off,0,0,0,,7,,,67,127
9940,note_on,2,0,0,,6,,,66,127
9940,note_on,0,0,0,,10,,,69,127
10051,note_off,111,0,0,,10,,,69,127
10051,note_off,0,0,0,,6,,,66,127
10053,note_on,2,0,0,,4,,,64,127
10053,note_on,0,0,0,,7,,,67,127
10164,note_off,111,0,0,,7,,,67,127
10164,note_off,0,0,0,,4,,,64,127
10166,note_on,2,0,0,,2,,,62,127
10166,note_on,0,0,0,,6,,,66,127
10277,note_off,111,0,0,,6,,,66,127
10277,note_off,0,0,0,,2,,,62,127
10279,note_on,2,0,0,,1,,,61,127
10279,note_on,0,0,0,,4,,,64,127
10390,note_off,111,0,0,,4,,,64,127
10390,note_off,0,0,0,,1,,,61,127
10392,note_on,2,0,0,,12,,,59,127
10392,note_on,0,0,0,,2,,,62,127
10503,note_off,111,0,0,,2,,,62,127
10503,note_off,0,0,0,,12,,,59,127
10505,note_on,2,0,0,,10,,,57,127
10505,note_on,0,0,0,,1,,,61,127
10616,note_off,111,0,0,,1,,,61,127
10616,note_off,0,0,0,,10,,,57,127
10618,note_on,2,0,0,,7,,,55,127
10618,note_on,0,0,0,,12,,,59,127
10729,note_off,111,0,0,,12,,,59,127
10729,note_off,0,0,0,,7,,,55,127
10731,note_on,2,0,0,,6,,,54,127
10731,note_on,0,0,0,,10,,,57,127
10842,note_off,111,0,0,,10,,,57,127
10842,note_off,0,0,0,,6,,,54,127
10844,note_on,2,0,0,,4,,,52,127
10844,note_on,0,0,0,,7,,,55,127
10955,note_off,111,0,0,,7,,,55,127
10955,note_off,0,0,0,,4,,,52,127
10957,note_on,2,0,0,,2,,,50,127
10957,note_on,0,0,0,,6,,,54,127
11181,note_off,224,0,0,,6,,,54,127
11183,note_on,2,0,0,,10,,,57,127
11407,note_off,224,0,0,,10,,,57,127
11407,note_off,0,0,0,,2,,,50,127
11409,note_on,2,0,0,,2,,,50,127
11409,note_on,0,0,0,,2,,,62,127
11633,note_off,224,0,0,,2,,,50,127
11635,note_on,2,0,0,,10,,,45,127
11635,note_on,0,0,0,,4,,,64,127
11856,note_off,221,0,0,,2,,,62,127
11861,note_on,5,0,0,,0,,,60,127
11972,note_off,111,0,0,,0,,,60,127
11974,note_on,2,0,0,,12,,,59,127
12085,note_off,111,0,0,,12,,,59,127
12087,note_on,2,0,0,,10,,,57,127
12087,note_on,0,0,0,,0,,,60,127
12311,note_off,224,0,0,,0,,,60,127
12312,note_off,1,0,0,,4,,,64,127
12312,note_off,0,0,0,,10,,,45,127
12313,note_on,1,0,0,,4,,,52,127
12313,note_on,0,0,0,,12,,,59,127
12534,note_off,221,0,0,,10,,,57,127
12539,note_on,5,0,0,,7,,,55,127
12650,note_off,111,0,0,,7,,,55,127
12652,note_on,2,0,0,,6,,,54,127
12760,note_off,108,0,0,,4,,,52,127
12762,note_off,2,0,0,,6,,,54,127
12762,note_off,0,0,0,,12,,,59,127
12764,note_on,2,0,0,,4,,,52,127
12764,note_on,0,0,0,,7,,,55,127
12764,note_on,0,0,0,,4,,,64,127
12988,note_off,224,0,0,,7,,,55,127
12988,note_off,0,0,0,,4,,,52,127
12990,note_on,2,0,0,,12,,,47,127
12990,note_on,0,0,0,,6,,,66,127
13211,note_off,221,0,0,,4,,,64,127
13216,note_on,5,0,0,,2,,,62,127
13327,note_off,111,0,0,,2,,,62,127
13329,note_on,2,0,0,,1,,,61,127
13440,note_off,111,0,0,,1,,,61,127
13442,note_on,2,0,0,,12,,,59,127
13442,note_on,0,0,0,,2,,,62,127
13666,note_off,224,0,0,,2,,,62,127
13667,note_off,1,0,0,,6,,,66,127
13667,note_off,0,0,0,,12,,,47,127
13668,note_on,1,0,0,,6,,,54,127
13668,note_on,0,0,0,,1,,,61,127
13889,note_off,221,0,0,,12,,,59,127
13894,note_on,5,0,0,,10,,,57,127
14005,note_off,111,0,0,,10,,,57,127
14007,note_on,2,0,0,,7,,,55,127
14115,note_off,108,0,0,,6,,,54,127
14117,note_off,2,0,0,,7,,,55,127
14117,note_off,0,0,0,,1,,,61,127
14119,note_on,2,0,0,,6,,,54,127
14119,note_on,0,0,0,,10,,,57,127
14119,note_on,0,0,0,,6,,,66,127
14343,note_off,224,0,0,,10,,,57,127
14343,note_off,0,0,0,,6,,,54,127
14345,note_on,2,0,0,,12,,,59,127
14345,note_on,0,0,0,,7,,,55,127
14569,note_off,224,0,0,,6,,,66,127
14571,note_on,2,0,0,,2,,,62,127
14795,note_off,224,0,0,,2,,,62,127
14795,note_off,0,0,0,,7,,,55,127
14795,note_off,0,0,0,,12,,,59,127
14797,note_on,2,0,0,,4,,,52,127
14797,note_on,0,0,0,,0,,,60,127
14797,note_on,0,0,0,,7,,,55,127
14797,note_on,0,0,0,,7,,,67,127
15021,note_off,224,0,0,,7,,,55,127
15021,note_off,0,0,0,,0,,,60,127
15021,note_off,0,0,0,,4,,,52,127
15023,note_on,2,0,0,,10,,,57,127
15023,note_on,0,0,0,,2,,,50,127
15023,note_on,0,0,0,,10,,,69,127
15244,note_off,221,0,0,,7,,,67,127
15249,note_on,5,0,0,,5,,,65,127
15360,note_off,111,0,0,,5,,,65,127
15362,note_on,2,0,0,,4,,,64,127
15473,note_off,111,0,0,,4,,,64,127
15473,note_off,0,0,0,,2,,,50,127
15473,note_off,0,0,0,,10,,,57,127
15475,note_on,2,0,0,,8,,,56,127
15475,note_on,0,0,0,,2,,,62,127
15475,note_on,0,0,0,,5,,,65,127
15699,note_off,224,0,0,,5,,,65,127
15699,note_off,0,0,0,,8,,,56,127
15700,note_off,1,0,0,,10,,,69,127
15701,note_on,1,0,0,,10,,,57,127
15701,note_on,0,0,0,,4,,,64,127
15922,note_off,221,0,0,,2,,,62,127
15927,note_on,5,0,0,,0,,,60,127
16038,note_off,111,0,0,,0,,,60,127
16040,note_on,2,0,0,,12,,,59,127
16148,note_off,108,0,0,,10,,,57,127
16150,note_off,2,0,0,,12,,,59,127
16150,note_off,0,0,0,,4,,,64,127
16152,note_on,2,0,0,,10,,,57,127
16152,note_on,0,0,0,,0,,,60,127
16152,note_on,0,0,0,,3,,,63,127
16152,note_on,0,0,0,,10,,,69,127
16376,note_off,224,0,0,,3,,,63,127
16376,note_off,0,0,0,,0,,,60,127
16376,note_off,0,0,0,,10,,,57,127
16378,note_on,2,0,0,,4,,,52,127
16378,note_on,0,0,0,,12,,,59,127
16378,note_on,0,0,0,,12,,,71,127
16599,note_off,221,0,0,,10,,,69,127
16604,note_on,5,0,0,,7,,,67,127
16715,note_off,111,0,0,,7,,,67,127
16717,note_on,2,0,0,,6,,,66,127
16828,note_off,111,0,0,,6,,,66,127
16828,note_off,0,0,0,,12,,,59,127
16830,note_on,2,0,0,,4,,,64,127
16830,note_on,0,0,0,,7,,,67,127
17054,note_off,224,0,0,,7,,,67,127
17055,note_off,1,0,0,,12,,,71,127
17055,note_off,0,0,0,,4,,,52,127
17056,note_on,1,0,0,,12,,,59,127
17056,note_on,0,0,0,,6,,,66,127
17277,note_off,221,0,0,,4,,,64,127
17282,note_on,5,0,0,,2,,,62,127
17393,note_off,111,0,0,,2,,,62,127
17395,note_on,2,0,0,,1,,,61,127
17506,note_off,111,0,0,,1,,,61,127
17506,note_off,0,0,0,,6,,,66,127
17508,note_on,2,0,0,,2,,,62,127
17508,note_on,0,0,0,,12,,,71,127
17732,note_off,224,0,0,,2,,,62,127
17733,note_off,1,0,0,,12,,,59,127
17734,note_on,1,0,0,,4,,,64,127
17734,note_on,0,0,0,,0,,,60,127
17958,note_off,224,0,0,,12,,,71,127
17960,note_on,2,0,0,,7,,,67,127
18184,note_off,224,0,0,,7,,,67,127
18184,note_off,0,0,0,,0,,,60,127
18184,note_off,0,0,0,,4,,,64,127
18186,note_on,2,0,0,,0,,,60,127
18186,note_on,0,0,0,,6,,,66,127
18186,note_on,0,0,0,,10,,,57,127
18186,note_on,0,0,0,,0,,,72,127
18410,note_off,224,0,0,,10,,,57,127
18410,note_off,0,0,0,,6,,,66,127
18410,note_off,0,0,0,,0,,,60,127
18412,note_on,2,0,0,,7,,,55,127
18412,note_on,0,0,0,,2,,,62,127
18412,note_on,0,0,0,,2,,,74,127
18633,note_off,221,0,0,,0,,,72,127
18638,note_on,5,0,0,,12,,,71,127
18749,note_off,111,0,0,,12,,,71,127
18751,note_on,2,0,0,,10,,,69,127
18859,note_off,108,0,0,,2,,,74,127
18861,note_off,2,0,0,,10,,,69,127
18863,note_on,2,0,0,,12,,,71,127
18863,note_on,0,0,0,,7,,,67,127
19087,note_off,224,0,0,,12,,,71,127
19087,note_off,0,0,0,,2,,,62,127
19087,note_off,0,0,0,,7,,,55,127
19089,note_on,2,0,0,,2,,,50,127
19089,note_on,0,0,0,,2,,,62,127
19089,note_on,0,0,0,,10,,,69,127
19310,note_off,221,0,0,,7,,,67,127
19315,note_on,5,0,0,,5,,,65,127
19426,note_off,111,0,0,,5,,,65,127
19428,note_on,2,0,0,,4,,,64,127
19536,note_off,108,0,0,,10,,,69,127
19538,note_off,2,0,0,,4,,,64,127
19538,note_off,0,0,0,,2,,,62,127
19538,note_off,0,0,0,,2,,,50,127
19540,note_on,2,0,0,,2,,,62,127
19540,note_on,0,0,0,,5,,,65,127
19540,note_on,0,0,0,,2,,,74,127
19764,note_off,224,0,0,,5,,,65,127
19764,note_off,0,0,0,,2,,,62,127
19766,note_on,2,0,0,,10,,,57,127
19766,note_on,0,0,0,,4,,,64,127
19766,note_on,0,0,0,,4,,,76,127
19987,note_off,221,0,0,,2,,,74,127
19992,note_on,5,0,0,,0,,,72,127
20103,note_off,111,0,0,,0,,,72,127
20105,note_on,2,0,0,,12,,,71,127
20213,note_off,108,0,0,,4,,,76,127
20215,note_off,2,0,0,,12,,,71,127
20215,note_off,0,0,0,,4,,,64,127
20215,note_off,0,0,0,,10,,,57,127
20217,note_on,2,0,0,,3,,,63,127
20217,note_on,0,0,0,,0,,,72,127
20217,note_on,0,0,0,,10,,,69,127
20441,note_off,224,0,0,,0,,,72,127
20441,note_off,0,0,0,,3,,,63,127
20443,note_on,2,0,0,,4,,,64,127
20443,note_on,0,0,0,,12,,,71,127
20664,note_off,221,0,0,,10,,,69,127
20669,note_on,5,0,0,,8,,,68,127
20780,note_off,111,0,0,,8,,,68,127
20782,note_on,2,0,0,,6,,,66,127
20890,note_off,108,0,0,,12,,,71,127
20892,note_off,2,0,0,,6,,,66,127
20894,note_on,2,0,0,,4,,,76,127
20894,note_on,0,0,0,,8,,,68,127
21118,note_off,224,0,0,,8,,,68,127
21118,note_off,0,0,0,,4,,,64,127
21120,note_on,2,0,0,,10,,,69,127
21120,note_on,0,0,0,,5,,,65,127
21231,note_off,111,0,0,,4,,,76,127
21233,note_on,2,0,0,,2,,,74,127
21344,note_off,111,0,0,,2,,,74,127
21346,note_on,2,0,0,,0,,,72,127
21457,note_off,111,0,0,,0,,,72,127
21459,note_on,2,0,0,,12,,,71,127
21570,note_off,111,0,0,,12,,,71,127
21570,note_off,0,0,0,,5,,,65,127
21570,note_off,0,0,0,,10,,,69,127
21572,note_on,2,0,0,,5,,,65,127
21572,note_on,0,0,0,,10,,,81,127
21572,note_on,0,0,0,,12,,,71,127
21683,note_off,111,0,0,,12,,,71,127
21685,note_on,2,0,0,,10,,,69,127
21796,note_off,111,0,0,,10,,,69,127
21796,note_off,0,0,0,,5,,,65,127
21798,note_on,2,0,0,,4,,,64,127
21798,note_on,0,0,0,,12,,,71,127
22019,note_off,221,0,0,,10,,,81,127
22021,note_off,2,0,0,,12,,,71,127
22023,note_on,2,0,0,,12,,,71,127
22023,note_on,0,0,0,,7,,,79,127
22134,note_off,111,0,0,,12,,,71,127
22136,note_on,2,0,0,,1,,,73,127
22247,note_off,111,0,0,,1,,,73,127
22247,note_off,0,0,0,,4,,,64,127
22249,note_on,2,0,0,,4,,,64,127
22249,note_on,0,0,0,,2,,,74,127
22360,note_off,111,0,0,,2,,,74,127
22362,note_on,2,0,0,,4,,,76,127
22473,note_off,111,0,0,,4,,,64,127
22475,note_on,2,0,0,,2,,,62,127
22475,note_on,0,0,0,,10,,,69,127
22699,note_off,224,0,0,,10,,,69,127
22699,note_off,0,0,0,,2,,,62,127
22699,note_off,0,0,0,,4,,,76,127
22700,note_off,1,0,0,,7,,,79,127
22701,note_on,1,0,0,,2,,,74,127
22701,note_on,0,0,0,,5,,,77,127
22812,note_off,111,0,0,,2,,,74,127
22814,note_on,2,0,0,,0,,,72,127
22925,note_off,111,0,0,,0,,,72,127
22925,note_off,0,0,0,,5,,,77,127
22927,note_on,2,0,0,,12,,,71,127
22927,note_on,0,0,0,,2,,,86,127
23038,note_off,111,0,0,,12,,,71,127
23040,note_on,2,0,0,,10,,,69,127
23151,note_off,111,0,0,,10,,,69,127
23153,note_on,2,0,0,,8,,,68,127
23153,note_on,0,0,0,,4,,,76,127
23377,note_off,224,0,0,,8,,,68,127
23377,note_off,0,0,0,,2,,,86,127
23379,note_on,2,0,0,,10,,,69,127
23379,note_on,0,0,0,,0,,,84,127
23490,note_off,111,0,0,,0,,,84,127
23492,note_on,2,0,0,,12,,,83,127
23603,note_off,111,0,0,,12,,,83,127
23603,note_off,0,0,0,,10,,,69,127
23605,note_on,2,0,0,,5,,,65,127
23605,note_on,0,0,0,,0,,,84,127
23711,note_off,106,0,0,,0,,,84,127
23718,note_on,7,0,0,,10,,,81,127
23824,note_off,106,0,0,,10,,,81,127
23829,note_off,5,0,0,,5,,,65,127
23830,note_off,1,0,0,,4,,,76,127
23831,note_on,1,0,0,,12,,,71,127
23831,note_on,0,0,0,,10,,,81,127
23831,note_on,0,0,0,,4,,,64,127
23942,note_off,111,0,0,,10,,,81,127
23944,note_on,2,0,0,,8,,,80,127
24168,note_off,224,0,0,,8,,,80,127
24168,note_off,0,0,0,,12,,,71,127
24170,note_on,2,0,0,,2,,,74,127
24170,note_on,0,0,0,,6,,,78,127
24281,note_off,111,0,0,,6,,,78,127
24281,note_off,0,0,0,,2,,,74,127
24283,note_on,2,0,0,,1,,,73,127
24283,note_on,0,0,0,,4,,,76,127
24394,note_off,111,0,0,,4,,,76,127
24394,note_off,0,0,0,,1,,,73,127
24396,note_on,2,0,0,,12,,,71,127
24396,note_on,0,0,0,,2,,,74,127
24507,note_off,111,0,0,,2,,,74,127
24507,note_off,0,0,0,,12,,,71,127
24508,note_off,1,0,0,,4,,,64,127
24509,note_on,1,0,0,,10,,,69,127
24509,note_on,0,0,0,,1,,,73,127
24620,note_off,111,0,0,,1,,,73,127
24622,note_on,2,0,0,,2,,,74,127
24733,note_off,111,0,0,,2,,,74,127
24735,note_on,2,0,0,,4,,,76,127
24846,note_off,111,0,0,,4,,,76,127
24848,note_on,2,0,0,,6,,,78,127
24959,note_off,111,0,0,,6,,,78,127
24959,note_off,0,0,0,,10,,,69,127
24961,note_on,2,0,0,,8,,,68,127
24961,note_on,0,0,0,,1,,,73,127
25072,note_off,111,0,0,,1,,,73,127
25074,note_on,2,0,0,,12,,,71,127
25185,note_off,111,0,0,,12,,,71,127
25185,note_off,0,0,0,,8,,,68,127
25187,note_on,2,0,0,,6,,,66,127
25187,note_on,0,0,0,,10,,,69,127
25298,note_off,111,0,0,,10,,,69,127
25300,note_on,2,0,0,,12,,,71,127
25411,note_off,111,0,0,,12,,,71,127
25413,note_on,2,0,0,,1,,,73,127
25524,note_off,111,0,0,,1,,,73,127
25526,note_on,2,0,0,,2,,,74,127
25637,note_off,111,0,0,,2,,,74,127
25637,note_off,0,0,0,,6,,,66,127
25639,note_on,2,0,0,,4,,,64,127
25639,note_on,0,0,0,,10,,,69,127
25750,note_off,111,0,0,,10,,,69,127
25752,note_on,2,0,0,,8,,,68,127
25863,note_off,111,0,0,,8,,,68,127
25863,note_off,0,0,0,,4,,,64,127
25865,note_on,2,0,0,,2,,,62,127
25865,note_on,0,0,0,,6,,,66,127
25976,note_off,111,0,0,,6,,,66,127
25978,note_on,2,0,0,,8,,,68,127
26089,note_off,111,0,0,,8,,,68,127
26091,note_on,2,0,0,,10,,,69,127
26202,note_off,111,0,0,,10,,,69,127
26204,note_on,2,0,0,,12,,,71,127
26315,note_off,111,0,0,,12,,,71,127
26315,note_off,0,0,0,,2,,,62,127
26317,note_on,2,0,0,,1,,,61,127
26317,note_on,0,0,0,,6,,,66,127
26428,note_off,111,0,0,,6,,,66,127
26430,note_on,2,0,0,,4,,,64,127
26541,note_off,111,0,0,,4,,,64,127
26541,note_off,0,0,0,,1,,,61,127
26543,note_on,2,0,0,,12,,,59,127
26543,note_on,0,0,0,,2,,,62,127
26654,note_off,111,0,0,,2,,,62,127
26656,note_on,2,0,0,,4,,,64,127
26767,note_off,111,0,0,,4,,,64,127
26769,note_on,2,0,0,,6,,,66,127
26880,note_off,111,0,0,,6,,,66,127
26882,note_on,2,0,0,,8,,,68,127
26993,note_off,111,0,0,,8,,,68,127
26993,note_off,0,0,0,,12,,,59,127
26995,note_on,2,0,0,,10,,,57,127
26995,note_on,0,0,0,,2,,,62,127
27106,note_off,111,0,0,,2,,,62,127
27108,note_on,2,0,0,,1,,,61,127
27219,note_off,111,0,0,,1,,,61,127
27219,note_off,0,0,0,,10,,,57,127
27221,note_on,2,0,0,,8,,,56,127
27221,note_on,0,0,0,,12,,,59,127
27332,note_off,111,0,0,,12,,,59,127
27334,note_on,2,0,0,,1,,,61,127
27445,note_off,111,0,0,,1,,,61,127
27447,note_on,2,0,0,,2,,,62,127
27558,note_off,111,0,0,,2,,,62,127
27560,note_on,2,0,0,,4,,,64,127
27671,note_off,111,0,0,,4,,,64,127
27671,note_off,0,0,0,,8,,,56,127
27673,note_on,2,0,0,,6,,,54,127
27673,note_on,0,0,0,,12,,,59,127
27784,note_off,111,0,0,,12,,,59,127
27786,note_on,2,0,0,,10,,,57,127
27897,note_off,111,0,0,,10,,,57,127
27897,note_off,0,0,0,,6,,,54,127
27899,note_on,2,0,0,,4,,,52,127
27899,note_on,0,0,0,,8,,,56,127
28010,note_off,111,0,0,,8,,,56,127
28010,note_off,0,0,0,,4,,,52,127
28012,note_on,2,0,0,,6,,,54,127
28012,note_on,0,0,0,,10,,,57,127
28123,note_off,111,0,0,,10,,,57,127
28123,note_off,0,0,0,,6,,,54,127
28125,note_on,2,0,0,,8,,,56,127
28125,note_on,0,0,0,,12,,,59,127
28236,note_off,111,0,0,,12,,,59,127
28236,note_off,0,0,0,,8,,,56,127
28238,note_on,2,0,0,,10,,,57,127
28238,note_on,0,0,0,,1,,,61,127
28349,note_off,111,0,0,,1,,,61,127
28349,note_off,0,0,0,,10,,,57,127
28351,note_on,2,0,0,,12,,,59,127
28351,note_on,0,0,0,,2,,,62,127
28462,note_off,111,0,0,,2,,,62,127
28462,note_off,0,0,0,,12,,,59,127
28464,note_on,2,0,0,,1,,,61,127
28464,note_on,0,0,0,,4,,,64,127
28575,note_off,111,0,0,,4,,,64,127
28575,note_off,0,0,0,,1,,,61,127
28577,note_on,2,0,0,,2,,,62,127
28577,note_on,0,0,0,,6,,,66,127
28688,note_off,111,0,0,,6,,,66,127
28690,note_on,2,0,0,,8,,,68,127
28801,note_off,111,0,0,,8,,,68,127
28801,note_off,0,0,0,,2,,,62,127
28803,note_on,2,0,0,,1,,,61,127
28803,note_on,0,0,0,,10,,,69,127
28914,note_off,111,0,0,,10,,,69,127
28916,note_on,2,0,0,,12,,,71,127
29027,note_off,111,0,0,,12,,,71,127
29027,note_off,0,0,0,,1,,,61,127
29029,note_on,2,0,0,,12,,,59,127
29029,note_on,0,0,0,,1,,,73,127
29140,note_off,111,0,0,,1,,,73,127
29142,note_on,2,0,0,,2,,,74,127
29253,note_off,111,0,0,,2,,,74,127
29253,note_off,0,0,0,,12,,,59,127
29255,note_on,2,0,0,,10,,,57,127
29255,note_on,0,0,0,,1,,,73,127
29479,note_off,224,0,0,,10,,,57,127
29481,note_on,2,0,0,,4,,,52,127
29554,note_off,73,0,0,,1,,,73,127
29556,note_on,2,0,0,,2,,,74,127
29629,note_off,73,0,0,,2,,,74,127
29631,note_on,2,0,0,,4,,,76,127
29704,note_off,73,0,0,,4,,,76,127
29706,note_on,2,0,0,,12,,,71,127
29930,note_off,224,0,0,,12,,,71,127
29930,note_off,0,0,0,,4,,,52,127
29932,note_on,2,0,0,,4,,,52,127
29932,note_on,0,0,0,,8,,,56,127
30043,note_off,111,0,0,,8,,,56,127
30043,note_off,0,0,0,,4,,,52,127
30045,note_on,2,0,0,,6,,,54,127
30045,note_on,0,0,0,,10,,,57,127
30156,note_off,111,0,0,,10,,,57,127
30156,note_off,0,0,0,,6,,,54,127
30158,note_on,2,0,0,,8,,,56,127
30158,note_on,0,0,0,,12,,,59,127
30269,note_off,111,0,0,,12,,,59,127
30269,note_off,0,0,0,,8,,,56,127
30271,note_on,2,0,0,,10,,,57,127
30271,note_on,0,0,0,,1,,,61,127
30382,note_off,111,0,0,,1,,,61,127
30382,note_off,0,0,0,,10,,,57,127
30384,note_on,2,0,0,,12,,,59,127
30384,note_on,0,0,0,,2,,,62,127
30495,note_off,111,0,0,,2,,,62,127
30495,note_off,0,0,0,,12,,,59,127
30497,note_on,2,0,0,,1,,,61,127
30497,note_on,0,0,0,,4,,,64,127
30608,note_off,111,0,0,,4,,,64,127
30608,note_off,0,0,0,,1,,,61,127
30610,note_on,2,0,0,,2,,,62,127
30610,note_on,0,0,0,,6,,,66,127
30721,note_off,111,0,0,,6,,,66,127
30723,note_on,2,0,0,,8,,,68,127
30834,note_off,111,0,0,,8,,,68,127
30834,note_off,0,0,0,,2,,,62,127
30836,note_on,2,0,0,,1,,,61,127
30836,note_on,0,0,0,,10,,,69,127
30947,note_off,111,0,0,,10,,,69,127
30949,note_on,2,0,0,,12,,,71,127
31060,note_off,111,0,0,,12,,,71,127
31060,note_off,0,0,0,,1,,,61,127
31062,note_on,2,0,0,,12,,,59,127
31062,note_on,0,0,0,,1,,,73,127
31173,note_off,111,0,0,,1,,,73,127
31175,note_on,2,0,0,,2,,,74,127
31286,note_off,111,0,0,,2,,,74,127
31286,note_off,0,0,0,,12,,,59,127
31288,note_on,2,0,0,,10,,,57,127
31288,note_on,0,0,0,,1,,,73,127
31512,note_off,224,0,0,,10,,,57,127
31514,note_on,2,0,0,,4,,,52,127
31587,note_off,73,0,0,,1,,,73,127
31589,note_on,2,0,0,,2,,,74,127
31662,note_off,73,0,0,,2,,,74,127
31664,note_on,2,0,0,,4,,,76,127
31737,note_off,73,0,0,,4,,,76,127
31739,note_on,2,0,0,,12,,,71,127
31963,note_off,224,0,0,,12,,,71,127
31963,note_off,0,0,0,,4,,,52,127
31965,note_on,2,0,0,,4,,,52,127
31965,note_on,0,0,0,,8,,,56,127
32076,note_off,111,0,0,,8,,,56,127
32076,note_off,0,0,0,,4,,,52,127
32078,note_on,2,0,0,,6,,,54,127
32078,note_on,0,0,0,,10,,,57,127
32189,note_off,111,0,0,,10,,,57,127
32189,note_off,0,0,0,,6,,,54,127
32191,note_on,2,0,0,,8,,,56,127
32191,note_on,0,0,0,,12,,,59,127
32302,note_off,111,0,0,,12,,,59,127
32302,note_off,0,0,0,,8,,,56,127
32304,note_on,2,0,0,,10,,,57,127
32304,note_on,0,0,0,,1,,,61,127
32415,note_off,111,0,0,,1,,,61,127
32415,note_off,0,0,0,,10,,,57,127
32417,note_on,2,0,0,,12,,,59,127
32417,note_on,0,0,0,,2,,,62,127
32528,note_off,111,0,0,,2,,,62,127
32528,note_off,0,0,0,,12,,,59,127
32530,note_on,2,0,0,,1,,,61,127
32530,note_on,0,0,0,,4,,,64,127
32641,note_off,111,0,0,,4,,,64,127
32641,note_off,0,0,0,,1,,,61,127
32643,note_on,2,0,0,,2,,,62,127
32643,note_on,0,0,0,,6,,,66,127
32754,note_off,111,0,0,,6,,,66,127
32754,note_off,0,0,0,,2,,,62,127
32756,note_on,2,0,0,,4,,,64,127
32756,note_on,0,0,0,,8,,,68,127
32867,note_off,111,0,0,,8,,,68,127
32867,note_off,0,0,0,,4,,,64,127
32869,note_on,2,0,0,,6,,,66,127
32869,note_on,0,0,0,,10,,,69,127
32980,note_off,111,0,0,,10,,,69,127
32980,note_off,0,0,0,,6,,,66,127
32982,note_on,2,0,0,,8,,,68,127
32982,note_on,0,0,0,,12,,,71,127
33093,note_off,111,0,0,,12,,,71,127
33093,note_off,0,0,0,,8,,,68,127
33095,note_on,2,0,0,,10,,,69,127
33095,note_on,0,0,0,,1,,,73,127
33206,note_off,111,0,0,,1,,,73,127
33206,note_off,0,0,0,,10,,,69,127
33208,note_on,2,0,0,,12,,,71,127
33208,note_on,0,0,0,,2,,,74,127
33319,note_off,111,0,0,,2,,,74,127
33319,note_off,0,0,0,,12,,,71,127
33321,note_on,2,0,0,,10,,,69,127
33321,note_on,0,0,0,,1,,,73,127
33432,note_off,111,0,0,,1,,,73,127
33434,note_on,2,0,0,,4,,,76,127
33545,note_off,111,0,0,,4,,,76,127
33545,note_off,0,0,0,,10,,,69,127
33547,note_on,2,0,0,,10,,,69,127
33547,note_on,0,0,0,,1,,,73,127
33658,note_off,111,0,0,,1,,,73,127
33660,note_on,2,0,0,,4,,,76,127
33771,note_off,111,0,0,,4,,,76,127
33771,note_off,0,0,0,,10,,,69,127
33773,note_on,2,0,0,,8,,,68,127
33773,note_on,0,0,0,,1,,,73,127
33884,note_off,111,0,0,,1,,,73,127
33886,note_on,2,0,0,,4,,,76,127
33997,note_off,111,0,0,,4,,,76,127
33997,note_off,0,0,0,,8,,,68,127
33999,note_on,2,0,0,,6,,,66,127
33999,note_on,0,0,0,,6,,,78,127
33999,note_on,0,0,0,,10,,,81,127
34110,note_off,111,0,0,,6,,,78,127
34112,note_on,2,0,0,,4,,,76,127
34223,note_off,111,0,0,,4,,,76,127
34223,note_off,0,0,0,,10,,,81,127
34223,note_off,0,0,0,,6,,,66,127
34225,note_on,2,0,0,,4,,,64,127
34225,note_on,0,0,0,,8,,,80,127
34225,note_on,0,0,0,,12,,,83,127
34336,note_off,111,0,0,,8,,,80,127
34338,note_on,2,0,0,,4,,,76,127
34449,note_off,111,0,0,,4,,,76,127
34449,note_off,0,0,0,,12,,,83,127
34449,note_off,0,0,0,,4,,,64,127
34451,note_on,2,0,0,,2,,,62,127
34451,note_on,0,0,0,,1,,,85,127
34451,note_on,0,0,0,,10,,,81,127
34562,note_off,111,0,0,,10,,,81,127
34564,note_on,2,0,0,,4,,,76,127
34675,note_off,111,0,0,,4,,,76,127
34675,note_off,0,0,0,,2,,,62,127
34677,note_on,2,0,0,,1,,,61,127
34677,note_on,0,0,0,,1,,,73,127
34788,note_off,111,0,0,,1,,,73,127
34790,note_off,2,0,0,,1,,,85,127
34790,note_on,0,0,0,,4,,,76,127
34901,note_off,111,0,0,,4,,,76,127
34901,note_off,0,0,0,,1,,,61,127
34903,note_on,2,0,0,,10,,,57,127
34903,note_on,0,0,0,,10,,,69,127
34903,note_on,0,0,0,,1,,,73,127
35014,note_off,111,0,0,,1,,,73,127
35016,note_on,2,0,0,,4,,,76,127
35127,note_off,111,0,0,,4,,,76,127
35127,note_off,0,0,0,,10,,,69,127
35127,note_off,0,0,0,,10,,,57,127
35129,note_on,2,0,0,,8,,,56,127
35129,note_on,0,0,0,,8,,,68,127
35129,note_on,0,0,0,,1,,,73,127
35240,note_off,111,0,0,,1,,,73,127
35242,note_on,2,0,0,,4,,,76,127
35353,note_off,111,0,0,,4,,,76,127
35353,note_off,0,0,0,,8,,,68,127
35353,note_off,0,0,0,,8,,,56,127
35355,note_on,2,0,0,,6,,,54,127
35355,note_on,0,0,0,,6,,,66,127
35355,note_on,0,0,0,,6,,,78,127
35355,note_on,0,0,0,,10,,,81,127
35466,note_off,111,0,0,,6,,,78,127
35468,note_on,2,0,0,,4,,,76,127
35543,note_off,75,0,0,,10,,,81,127
35578,note_off,35,0,0,,4,,,76,127
35578,note_off,0,0,0,,6,,,66,127
35578,note_off,0,0,0,,6,,,54,127
35580,note_on,2,0,0,,4,,,64,127
35580,note_on,0,0,0,,4,,,52,127
35580,note_on,0,0,0,,12,,,83,127
35580,note_on,0,0,0,,8,,,80,127
35691,note_off,111,0,0,,8,,,80,127
35693,note_on,2,0,0,,4,,,76,127
35768,note_off,75,0,0,,12,,,83,127
35803,note_off,35,0,0,,4,,,76,127
35803,note_off,0,0,0,,4,,,52,127
35803,note_off,0,0,0,,4,,,64,127
35805,note_on,2,0,0,,2,,,62,127
35805,note_on,0,0,0,,2,,,50,127
35805,note_on,0,0,0,,10,,,81,127
35805,note_on,0,0,0,,1,,,85,127
35916,note_off,111,0,0,,10,,,81,127
35918,note_on,2,0,0,,4,,,76,127
35993,note_off,75,0,0,,1,,,85,127
36028,note_off,35,0,0,,4,,,76,127
36028,note_off,0,0,0,,2,,,50,127
36028,note_off,0,0,0,,2,,,62,127
36030,note_on,2,0,0,,1,,,49,127
36030,note_on,0,0,0,,1,,,61,127
36030,note_on,0,0,0,,1,,,85,127
36143,note_on,113,0,0,,4,,,76,127
36199,note_off,56,0,0,,1,,,85,127
36253,note_off,54,0,0,,4,,,76,127
36255,note_on,2,0,0,,12,,,83,127
36368,note_on,113,0,0,,2,,,74,127
36424,note_off,56,0,0,,12,,,83,127
36478,note_off,54,0,0,,2,,,74,127
36478,note_off,0,0,0,,1,,,61,127
36478,note_off,0,0,0,,1,,,49,127
36480,note_on,2,0,0,,6,,,66,127
36480,note_on,0,0,0,,10,,,81,127
36593,note_on,113,0,0,,1,,,73,127
36649,note_off,56,0,0,,10,,,81,127
36703,note_off,54,0,0,,1,,,73,127
36703,note_off,0,0,0,,6,,,66,127
36705,note_on,2,0,0,,2,,,62,127
36705,note_on,0,0,0,,12,,,83,127
36818,note_on,113,0,0,,2,,,74,127
36874,note_off,56,0,0,,12,,,83,127
36928,note_off,54,0,0,,2,,,74,127
36928,note_off,0,0,0,,2,,,62,127
36930,note_on,2,0,0,,4,,,64,127
36930,note_on,0,0,0,,10,,,81,127
37043,note_on,113,0,0,,1,,,73,127
37099,note_off,56,0,0,,10,,,81,127
37153,note_off,54,0,0,,1,,,73,127
37153,note_off,0,0,0,,4,,,64,127
37155,note_on,2,0,0,,4,,,52,127
37155,note_on,0,0,0,,8,,,80,127
37266,note_off,111,0,0,,8,,,80,127
37268,note_on,2,0,0,,12,,,71,127
37379,note_off,111,0,0,,12,,,71,127
37379,note_off,0,0,0,,4,,,52,127
37381,note_on,2,0,0,,10,,,45,127
37381,note_on,0,0,0,,1,,,61,127
37492,note_off,111,0,0,,1,,,61,127
37494,note_on,2,0,0,,4,,,64,127
37605,note_off,111,0,0,,4,,,64,127
37605,note_off,0,0,0,,10,,,45,127
37607,note_on,2,0,0,,10,,,57,127
37607,note_on,0,0,0,,1,,,61,127
37718,note_off,111,0,0,,1,,,61,127
37720,note_on,2,0,0,,4,,,64,127
37831,note_off,111,0,0,,4,,,64,127
37831,note_off,0,0,0,,10,,,57,127
37833,note_on,2,0,0,,8,,,56,127
37833,note_on,0,0,0,,1,,,61,127
37944,note_off,111,0,0,,1,,,61,127
37946,note_on,2,0,0,,4,,,64,127
38057,note_off,111,0,0,,4,,,64,127
38057,note_off,0,0,0,,8,,,56,127
38059,note_on,2,0,0,,6,,,54,127
38059,note_on,0,0,0,,6,,,66,127
38059,note_on,0,0,0,,10,,,69,127
38170,note_off,111,0,0,,6,,,66,127
38172,note_on,2,0,0,,4,,,64,127
38283,note_off,111,0,0,,4,,,64,127
38283,note_off,0,0,0,,10,,,69,127
38283,note_off,0,0,0,,6,,,54,127
38285,note_on,2,0,0,,4,,,52,127
38285,note_on,0,0,0,,12,,,71,127
38285,note_on,0,0,0,,8,,,68,127
38396,note_off,111,0,0,,8,,,68,127
38398,note_on,2,0,0,,4,,,64,127
38509,note_off,111,0,0,,4,,,64,127
38509,note_off,0,0,0,,12,,,71,127
38509,note_off,0,0,0,,4,,,52,127
38511,note_on,2,0,0,,2,,,50,127
38511,note_on,0,0,0,,10,,,69,127
38511,note_on,0,0,0,,1,,,73,127
38622,note_off,111,0,0,,10,,,69,127
38624,note_on,2,0,0,,4,,,64,127
38735,note_off,111,0,0,,4,,,64,127
38735,note_off,0,0,0,,1,,,73,127
38735,note_off,0,0,0,,2,,,50,127
38737,note_on,2,0,0,,1,,,49,127
38737,note_on,0,0,0,,1,,,61,127
38848,note_off,111,0,0,,1,,,61,127
38850,note_on,2,0,0,,4,,,64,127
38961,note_off,111,0,0,,4,,,64,127
38961,note_off,0,0,0,,1,,,49,127
38963,note_on,2,0,0,,10,,,57,127
38963,note_on,0,0,0,,1,,,61,127
39074,note_off,111,0,0,,1,,,61,127
39076,note_on,2,0,0,,4,,,64,127
39187,note_off,111,0,0,,4,,,64,127
39187,note_off,0,0,0,,10,,,57,127
39189,note_on,2,0,0,,8,,,56,127
39189,note_on,0,0,0,,1,,,61,127
39300,note_off,111,0,0,,1,,,61,127
39302,note_on,2,0,0,,4,,,64,127
39413,note_off,111,0,0,,4,,,64,127
39413,note_off,0,0,0,,8,,,56,127
39415,note_on,2,0,0,,6,,,54,127
39415,note_on,0,0,0,,10,,,69,127
39415,note_on,0,0,0,,6,,,66,127
39526,note_off,111,0,0,,6,,,66,127
39528,note_on,2,0,0,,4,,,64,127
39615,note_off,87,0,0,,10,,,69,127
39639,note_off,24,0,0,,4,,,64,127
39639,note_off,0,0,0,,6,,,54,127
39641,note_on,2,0,0,,4,,,52,127
39641,note_on,0,0,0,,8,,,68,127
39641,note_on,0,0,0,,12,,,71,127
39752,note_off,111,0,0,,8,,,68,127
39754,note_on,2,0,0,,4,,,64,127
39841,note_off,87,0,0,,12,,,71,127
39865,note_off,24,0,0,,4,,,64,127
39865,note_off,0,0,0,,4,,,52,127
39867,note_on,2,0,0,,2,,,50,127
39867,note_on,0,0,0,,1,,,73,127
39867,note_on,0,0,0,,10,,,69,127
39978,note_off,111,0,0,,10,,,69,127
39980,note_on,2,0,0,,4,,,64,127
40067,note_off,87,0,0,,1,,,73,127
40091,note_off,24,0,0,,4,,,64,127
40091,note_off,0,0,0,,2,,,50,127
40093,note_on,2,0,0,,1,,,49,127
40093,note_on,0,0,0,,1,,,61,127
40204,note_off,111,0,0,,1,,,61,127
40206,note_on,2,0,0,,4,,,64,127
40317,note_off,111,0,0,,4,,,64,127
40317,note_off,0,0,0,,1,,,49,127
40319,note_on,2,0,0,,10,,,57,127
40319,note_on,0,0,0,,10,,,45,127
40319,note_on,0,0,0,,1,,,61,127
40430,note_off,111,0,0,,1,,,61,127
40432,note_on,2,0,0,,4,,,64,127
40543,note_off,111,0,0,,4,,,64,127
40543,note_off,0,0,0,,10,,,45,127
40543,note_off,0,0,0,,10,,,57,127
40545,note_on,2,0,0,,8,,,44,127
40545,note_on,0,0,0,,8,,,56,127
40545,note_on,0,0,0,,1,,,61,127
40656,note_off,111,0,0,,1,,,61,127
40658,note_on,2,0,0,,4,,,64,127
40769,note_off,111,0,0,,4,,,64,127
40769,note_off,0,0,0,,8,,,56,127
40769,note_off,0,0,0,,8,,,44,127
40771,note_on,2,0,0,,6,,,42,127
40771,note_on,0,0,0,,6,,,54,127
40771,note_on,0,0,0,,6,,,66,127
40771,note_on,0,0,0,,10,,,69,127
40882,note_off,111,0,0,,6,,,66,127
40884,note_on,2,0,0,,4,,,64,127
40940,note_off,56,0,0,,10,,,69,127
40994,note_off,54,0,0,,4,,,64,127
40994,note_off,0,0,0,,6,,,54,127
40994,note_off,0,0,0,,6,,,42,127
40996,note_on,2,0,0,,4,,,40,127
40996,note_on,0,0,0,,4,,,52,127
40996,note_on,0,0,0,,8,,,68,127
40996,note_on,0,0,0,,12,,,71,127
41107,note_off,111,0,0,,8,,,68,127
41109,note_on,2,0,0,,4,,,64,127
41165,note_off,56,0,0,,12,,,71,127
41219,note_off,54,0,0,,4,,,64,127
41219,note_off,0,0,0,,4,,,52,127
41219,note_off,0,0,0,,4,,,40,127
41221,note_on,2,0,0,,2,,,50,127
41221,note_on,0,0,0,,2,,,38,127
41221,note_on,0,0,0,,1,,,73,127
41221,note_on,0,0,0,,10,,,69,127
41332,note_off,111,0,0,,10,,,69,127
41334,note_on,2,0,0,,4,,,64,127
41390,note_off,56,0,0,,1,,,73,127
41444,note_off,54,0,0,,4,,,64,127
41444,note_off,0,0,0,,2,,,38,127
41444,note_off,0,0,0,,2,,,50,127
41446,note_on,2,0,0,,1,,,37,127
41446,note_on,0,0,0,,1,,,49,127
41446,note_on,0,0,0,,10,,,69,127
41446,note_on,0,0,0,,1,,,73,127
41557,note_off,111,0,0,,10,,,69,127
41559,note_on,2,0,0,,4,,,64,127
41615,note_off,56,0,0,,1,,,73,127
41669,note_off,54,0,0,,4,,,64,127
41669,note_off,0,0,0,,1,,,49,127
41669,note_off,0,0,0,,1,,,37,127
41671,note_on,2,0,0,,12,,,47,127
41671,note_on,0,0,0,,2,,,74,127
41671,note_on,0,0,0,,12,,,71,127
41782,note_off,111,0,0,,12,,,71,127
41784,note_on,2,0,0,,4,,,64,127
41840,note_off,56,0,0,,2,,,74,127
41894,note_off,54,0,0,,4,,,64,127
41894,note_off,0,0,0,,12,,,47,127
41896,note_on,2,0,0,,10,,,45,127
41896,note_on,0,0,0,,1,,,73,127
41896,note_on,0,0,0,,4,,,76,127
42007,note_off,111,0,0,,1,,,73,127
42009,note_on,2,0,0,,4,,,64,127
42065,note_off,56,0,0,,4,,,76,127
42119,note_off,54,0,0,,4,,,64,127
42119,note_off,0,0,0,,10,,,45,127
42121,note_on,2,0,0,,2,,,50,127
42121,note_on,0,0,0,,2,,,74,127
42232,note_off,111,0,0,,2,,,74,127
42234,note_on,2,0,0,,12,,,71,127
42345,note_off,111,0,0,,12,,,71,127
42345,note_off,0,0,0,,2,,,50,127
42347,note_on,2,0,0,,4,,,52,127
42347,note_on,0,0,0,,1,,,73,127
42458,note_off,111,0,0,,1,,,73,127
42460,note_on,2,0,0,,10,,,69,127
42571,note_off,111,0,0,,10,,,69,127
42571,note_off,0,0,0,,4,,,52,127
42573,note_on,2,0,0,,4,,,40,127
42573,note_on,0,0,0,,12,,,71,127
42684,note_off,111,0,0,,12,,,71,127
42686,note_on,2,0,0,,8,,,68,127
42797,note_off,111,0,0,,8,,,68,127
42797,note_off,0,0,0,,4,,,40,127
42799,note_on,2,0,0,,10,,,45,127
42799,note_on,0,0,0,,10,,,69,127
42912,note_on,113,0,0,,10,,,81,127
43023,note_off,111,0,0,,10,,,81,127
43023,note_off,0,0,0,,10,,,69,127
43023,note_off,0,0,0,,10,,,45,127
43025,note_on,2,0,0,,12,,,47,127
43025,note_on,0,0,0,,8,,,80,127
43136,note_off,111,0,0,,8,,,80,127
43138,note_on,2,0,0,,2,,,74,127
43249,note_off,111,0,0,,2,,,74,127
43249,note_off,0,0,0,,12,,,47,127
43251,note_on,2,0,0,,1,,,49,127
43251,note_on,0,0,0,,1,,,73,127
43362,note_off,111,0,0,,1,,,73,127
43364,note_on,2,0,0,,6,,,78,127
43475,note_off,111,0,0,,6,,,78,127
43475,note_off,0,0,0,,1,,,49,127
43477,note_on,2,0,0,,2,,,50,127
43477,note_on,0,0,0,,4,,,76,127
43588,note_off,111,0,0,,4,,,76,127
43590,note_on,2,0,0,,2,,,74,127
43701,note_off,111,0,0,,2,,,74,127
43701,note_off,0,0,0,,2,,,50,127
43703,note_on,2,0,0,,4,,,52,127
43703,note_on,0,0,0,,1,,,73,127
43814,note_off,111,0,0,,1,,,73,127
43816,note_on,2,0,0,,12,,,71,127
43927,note_off,111,0,0,,12,,,71,127
43927,note_off,0,0,0,,4,,,52,127
43929,note_on,2,0,0,,4,,,40,127
43929,note_on,0,0,0,,10,,,69,127
44040,note_off,111,0,0,,10,,,69,127
44042,note_on,2,0,0,,8,,,68,127
44153,note_off,111,0,0,,8,,,68,127
44153,note_off,0,0,0,,4,,,40,127
44155,note_on,2,0,0,,10,,,45,127
44155,note_on,0,0,0,,8,,,68,127
44266,note_off,111,0,0,,8,,,68,127
44268,note_on,2,0,0,,10,,,69,127
44379,note_off,111,0,0,,10,,,69,127
44379,note_off,0,0,0,,10,,,45,127
44381,note_on,2,0,0,,12,,,47,127
44381,note_on,0,0,0,,8,,,68,127
44492,note_off,111,0,0,,8,,,68,127
44494,note_on,2,0,0,,2,,,62,127
44605,note_off,111,0,0,,2,,,62,127
44605,note_off,0,0,0,,12,,,47,127
44607,note_on,2,0,0,,1,,,49,127
44607,note_on,0,0,0,,1,,,61,127
44718,note_off,111,0,0,,1,,,61,127
44720,note_on,2,0,0,,6,,,66,127
44831,note_off,111,0,0,,6,,,66,127
44831,note_off,0,0,0,,1,,,49,127
44833,note_on,2,0,0,,2,,,50,127
44833,note_on,0,0,0,,4,,,64,127
44944,note_off,111,0,0,,4,,,64,127
44946,note_on,2,0,0,,2,,,62,127
45057,note_off,111,0,0,,2,,,62,127
45057,note_off,0,0,0,,2,,,50,127
45059,note_on,2,0,0,,4,,,52,127
45059,note_on,0,0,0,,1,,,61,127
45170,note_off,111,0,0,,1,,,61,127
45172,note_on,2,0,0,,12,,,59,127
45283,note_off,111,0,0,,12,,,59,127
45283,note_off,0,0,0,,4,,,52,127
45285,note_on,2,0,0,,4,,,40,127
45285,note_on,0,0,0,,10,,,57,127
45396,note_off,111,0,0,,10,,,57,127
45398,note_on,2,0,0,,8,,,56,127
45509,note_off,111,0,0,,8,,,56,127
45509,note_off,0,0,0,,4,,,40,127
45511,note_on,2,0,0,,10,,,45,127
45511,note_on,0,0,0,,8,,,56,127
45960,note_off,449,0,0,,8,,,56,127
45962,note_on,2,0,0,,10,,,57,127
46186,note_off,224,0,0,,10,,,57,127
46186,note_off,0,0,0,,10,,,45,127
46188,note_on,2,0,0,,10,,,45,127
46188,note_on,0,0,0,,10,,,57,127
46301,note_on,113,0,0,,4,,,76,127
46412,note_off,111,0,0,,4,,,76,127
46414,note_on,2,0,0,,0,,,84,127
46525,note_off,111,0,0,,0,,,84,127
46527,note_on,2,0,0,,4,,,76,127
46638,note_off,111,0,0,,4,,,76,127
46640,note_on,2,0,0,,2,,,74,127
46751,note_off,111,0,0,,2,,,74,127
46753,note_on,2,0,0,,12,,,83,127
46864,note_off,111,0,0,,12,,,83,127
46864,note_off,0,0,0,,10,,,57,127
46864,note_off,0,0,0,,10,,,45,127
46866,note_on,2,0,0,,10,,,45,127
46866,note_on,0,0,0,,10,,,57,127
46866,note_on,0,0,0,,10,,,81,127
46977,note_off,111,0,0,,10,,,81,127
46979,note_on,2,0,0,,0,,,72,127
47090,note_off,111,0,0,,0,,,72,127
47092,note_on,2,0,0,,0,,,72,127
47203,note_off,111,0,0,,0,,,72,127
47205,note_on,2,0,0,,10,,,81,127
47316,note_off,111,0,0,,10,,,81,127
47318,note_on,2,0,0,,7,,,79,127
47429,note_off,111,0,0,,7,,,79,127
47431,note_on,2,0,0,,12,,,71,127
47542,note_off,111,0,0,,12,,,71,127
47542,note_off,0,0,0,,10,,,57,127
47542,note_off,0,0,0,,10,,,45,127
47544,note_on,2,0,0,,10,,,57,127
47544,note_on,0,0,0,,10,,,45,127
47544,note_on,0,0,0,,5,,,77,127
47655,note_off,111,0,0,,5,,,77,127
47657,note_on,2,0,0,,10,,,69,127
47768,note_off,111,0,0,,10,,,69,127
47770,note_on,2,0,0,,10,,,69,127
47881,note_off,111,0,0,,10,,,69,127
47883,note_on,2,0,0,,5,,,77,127
47994,note_off,111,0,0,,5,,,77,127
47996,note_on,2,0,0,,4,,,76,127
48107,note_off,111,0,0,,4,,,76,127
48109,note_on,2,0,0,,7,,,67,127
48220,note_off,111,0,0,,7,,,67,127
48220,note_off,0,0,0,,10,,,45,127
48220,note_off,0,0,0,,10,,,57,127
48222,note_on,2,0,0,,6,,,66,127
48222,note_on,0,0,0,,12,,,59,127
48222,note_on,0,0,0,,4,,,76,127
48446,note_off,224,0,0,,4,,,76,127
48448,note_on,2,0,0,,3,,,75,127
48559,note_off,111,0,0,,3,,,75,127
48561,note_on,2,0,0,,12,,,71,127
48672,note_off,111,0,0,,12,,,71,127
48672,note_off,0,0,0,,12,,,59,127
48672,note_off,0,0,0,,6,,,66,127
48674,note_on,2,0,0,,4,,,64,127
48674,note_on,0,0,0,,10,,,57,127
48674,note_on,0,0,0,,0,,,72,127
48785,note_off,111,0,0,,0,,,72,127
48787,note_on,2,0,0,,4,,,76,127
48898,note_off,111,0,0,,4,,,76,127
48898,note_off,0,0,0,,10,,,57,127
48898,note_off,0,0,0,,4,,,64,127
48900,note_on,2,0,0,,12,,,59,127
48900,note_on,0,0,0,,6,,,66,127
48900,note_on,0,0,0,,4,,,76,127
49124,note_off,224,0,0,,4,,,76,127
49126,note_on,2,0,0,,3,,,75,127
49237,note_off,111,0,0,,3,,,75,127
49239,note_on,2,0,0,,12,,,71,127
49350,note_off,111,0,0,,12,,,71,127
49350,note_off,0,0,0,,6,,,66,127
49350,note_off,0,0,0,,12,,,59,127
49352,note_on,2,0,0,,4,,,64,127
49352,note_on,0,0,0,,10,,,57,127
49352,note_on,0,0,0,,0,,,72,127
49463,note_off,111,0,0,,0,,,72,127
49465,note_on,2,0,0,,4,,,76,127
49576,note_off,111,0,0,,4,,,76,127
49576,note_off,0,0,0,,10,,,57,127
49576,note_off,0,0,0,,4,,,64,127
49578,note_on,2,0,0,,12,,,59,127
49578,note_on,0,0,0,,12,,,47,127
49578,note_on,0,0,0,,3,,,75,127
49691,note_on,113,0,0,,0,,,72,127
49802,note_off,111,0,0,,0,,,72,127
49804,note_on,2,0,0,,12,,,71,127
49915,note_off,111,0,0,,12,,,71,127
49917,note_on,2,0,0,,10,,,69,127
50025,note_off,108,0,0,,3,,,75,127
50027,note_off,2,0,0,,10,,,69,127
50027,note_off,0,0,0,,12,,,47,127
50027,note_off,0,0,0,,12,,,59,127
50029,note_on,2,0,0,,12,,,47,127
50029,note_on,0,0,0,,12,,,59,127
50029,note_on,0,0,0,,3,,,75,127
50029,note_on,0,0,0,,7,,,67,127
50140,note_off,111,0,0,,7,,,67,127
50142,note_on,2,0,0,,6,,,66,127
50253,note_off,111,0,0,,6,,,66,127
50253,note_off,0,0,0,,3,,,75,127
50253,note_off,0,0,0,,12,,,59,127
50253,note_off,0,0,0,,12,,,47,127
50255,note_on,2,0,0,,4,,,52,127
50255,note_on,0,0,0,,4,,,40,127
50255,note_on,0,0,0,,7,,,67,127
50255,note_on,0,0,0,,4,,,76,127
50366,note_off,111,0,0,,4,,,76,127
50366,note_off,0,0,0,,7,,,67,127
50368,note_on,2,0,0,,12,,,71,127
50479,note_off,111,0,0,,12,,,71,127
50481,note_on,2,0,0,,7,,,79,127
50592,note_off,111,0,0,,7,,,79,127
50594,note_on,2,0,0,,0,,,72,127
50705,note_off,111,0,0,,0,,,72,127
50705,note_off,0,0,0,,4,,,40,127
50705,note_off,0,0,0,,4,,,52,127
50707,note_on,2,0,0,,5,,,41,127
50707,note_on,0,0,0,,5,,,53,127
50707,note_on,0,0,0,,10,,,69,127
50818,note_off,111,0,0,,10,,,69,127
50820,note_on,2,0,0,,5,,,77,127
50931,note_off,111,0,0,,5,,,77,127
50931,note_off,0,0,0,,5,,,53,127
50931,note_off,0,0,0,,5,,,41,127
50933,note_on,2,0,0,,7,,,43,127
50933,note_on,0,0,0,,7,,,55,127
50933,note_on,0,0,0,,4,,,76,127
51044,note_off,111,0,0,,4,,,76,127
51046,note_on,2,0,0,,7,,,67,127
51157,note_off,111,0,0,,7,,,67,127
51159,note_on,2,0,0,,7,,,67,127
51270,note_off,111,0,0,,7,,,67,127
51272,note_on,2,0,0,,4,,,76,127
51383,note_off,111,0,0,,4,,,76,127
51383,note_off,0,0,0,,7,,,55,127
51383,note_off,0,0,0,,7,,,43,127
51385,note_on,2,0,0,,7,,,43,127
51385,note_on,0,0,0,,7,,,55,127
51385,note_on,0,0,0,,2,,,74,127
51496,note_off,111,0,0,,2,,,74,127
51498,note_on,2,0,0,,5,,,65,127
51609,note_off,111,0,0,,5,,,65,127
51609,note_off,0,0,0,,7,,,55,127
51609,note_off,0,0,0,,7,,,43,127
51611,note_on,2,0,0,,10,,,57,127
51611,note_on,0,0,0,,4,,,64,127
51611,note_on,0,0,0,,2,,,74,127
51835,note_off,224,0,0,,2,,,74,127
51837,note_on,2,0,0,,1,,,73,127
51948,note_off,111,0,0,,1,,,73,127
51950,note_on,2,0,0,,10,,,69,127
52061,note_off,111,0,0,,10,,,69,127
52061,note_off,0,0,0,,4,,,64,127
52061,note_off,0,0,0,,10,,,57,127
52063,note_on,2,0,0,,2,,,62,127
52063,note_on,0,0,0,,7,,,55,127
52063,note_on,0,0,0,,11,,,70,127
52174,note_off,111,0,0,,11,,,70,127
52176,note_on,2,0,0,,2,,,74,127
52287,note_off,111,0,0,,2,,,74,127
52287,note_off,0,0,0,,7,,,55,127
52287,note_off,0,0,0,,2,,,62,127
52289,note_on,2,0,0,,10,,,57,127
52289,note_on,0,0,0,,4,,,64,127
52289,note_on,0,0,0,,2,,,74,127
52513,note_off,224,0,0,,2,,,74,127
52515,note_on,2,0,0,,1,,,73,127
52626,note_off,111,0,0,,1,,,73,127
52628,note_on,2,0,0,,10,,,69,127
52739,note_off,111,0,0,,10,,,69,127
52739,note_off,0,0,0,,4,,,64,127
52739,note_off,0,0,0,,10,,,57,127
52741,note_on,2,0,0,,7,,,55,127
52741,note_on,0,0,0,,2,,,62,127
52741,note_on,0,0,0,,11,,,70,127
52852,note_off,111,0,0,,11,,,70,127
52854,note_on,2,0,0,,2,,,74,127
52965,note_off,111,0,0,,2,,,74,127
52965,note_off,0,0,0,,2,,,62,127
52965,note_off,0,0,0,,7,,,55,127
52967,note_on,2,0,0,,10,,,45,127
52967,note_on,0,0,0,,10,,,57,127
52967,note_on,0,0,0,,1,,,73,127
53080,note_on,113,0,0,,11,,,70,127
53191,note_off,111,0,0,,11,,,70,127
53193,note_on,2,0,0,,10,,,69,127
53304,note_off,111,0,0,,10,,,69,127
53306,note_on,2,0,0,,7,,,67,127
53414,note_off,108,0,0,,1,,,73,127
53416,note_off,2,0,0,,7,,,67,127
53416,note_off,0,0,0,,10,,,57,127
53416,note_off,0,0,0,,10,,,45,127
53418,note_on,2,0,0,,10,,,45,127
53418,note_on,0,0,0,,10,,,57,127
53418,note_on,0,0,0,,5,,,65,127
53418,note_on,0,0,0,,1,,,73,127
53529,note_off,111,0,0,,5,,,65,127
53531,note_on,2,0,0,,4,,,64,127
53642,note_off,111,0,0,,4,,,64,127
53642,note_off,0,0,0,,1,,,73,127
53642,note_off,0,0,0,,10,,,57,127
53642,note_off,0,0,0,,10,,,45,127
53644,note_on,2,0,0,,2,,,38,127
53644,note_on,0,0,0,,2,,,50,127
53644,note_on,0,0,0,,2,,,74,127
53644,note_on,0,0,0,,5,,,65,127
53755,note_off,111,0,0,,5,,,65,127
53755,note_off,0,0,0,,2,,,74,127
53757,note_on,2,0,0,,10,,,69,127
53868,note_off,111,0,0,,10,,,69,127
53870,note_on,2,0,0,,5,,,77,127
53981,note_off,111,0,0,,5,,,77,127
53983,note_on,2,0,0,,10,,,69,127
54094,note_off,111,0,0,,10,,,69,127
54094,note_off,0,0,0,,2,,,50,127
54094,note_off,0,0,0,,2,,,38,127
54096,note_on,2,0,0,,4,,,52,127
54096,note_on,0,0,0,,4,,,40,127
54096,note_on,0,0,0,,7,,,67,127
54207,note_off,111,0,0,,7,,,67,127
54209,note_on,2,0,0,,4,,,76,127
54320,note_off,111,0,0,,4,,,76,127
54320,note_off,0,0,0,,4,,,40,127
54320,note_off,0,0,0,,4,,,52,127
54322,note_on,2,0,0,,5,,,41,127
54322,note_on,0,0,0,,5,,,53,127
54322,note_on,0,0,0,,2,,,74,127
54433,note_off,111,0,0,,2,,,74,127
54435,note_on,2,0,0,,5,,,65,127
54546,note_off,111,0,0,,5,,,65,127
54548,note_on,2,0,0,,5,,,65,127
54659,note_off,111,0,0,,5,,,65,127
54661,note_on,2,0,0,,2,,,74,127
54772,note_off,111,0,0,,2,,,74,127
54772,note_off,0,0,0,,5,,,53,127
54772,note_off,0,0,0,,5,,,41,127
54774,note_on,2,0,0,,5,,,53,127
54774,note_on,0,0,0,,0,,,72,127
54885,note_off,111,0,0,,0,,,72,127
54887,note_on,2,0,0,,4,,,64,127
54998,note_off,111,0,0,,4,,,64,127
54998,note_off,0,0,0,,5,,,53,127
55000,note_on,2,0,0,,7,,,55,127
55000,note_on,0,0,0,,2,,,62,127
55000,note_on,0,0,0,,0,,,72,127
55224,note_off,224,0,0,,0,,,72,127
55226,note_on,2,0,0,,12,,,71,127
55337,note_off,111,0,0,,12,,,71,127
55339,note_on,2,0,0,,7,,,67,127
55450,note_off,111,0,0,,7,,,67,127
55450,note_off,0,0,0,,2,,,62,127
55450,note_off,0,0,0,,7,,,55,127
55452,note_on,2,0,0,,5,,,53,127
55452,note_on,0,0,0,,0,,,60,127
55452,note_on,0,0,0,,10,,,69,127
55563,note_off,111,0,0,,10,,,69,127
55565,note_on,2,0,0,,0,,,72,127
55676,note_off,111,0,0,,0,,,72,127
55676,note_off,0,0,0,,0,,,60,127
55676,note_off,0,0,0,,5,,,53,127
55678,note_on,2,0,0,,7,,,55,127
55678,note_on,0,0,0,,2,,,62,127
55678,note_on,0,0,0,,0,,,72,127
55902,note_off,224,0,0,,0,,,72,127
55904,note_on,2,0,0,,12,,,71,127
56015,note_off,111,0,0,,12,,,71,127
56017,note_on,2,0,0,,7,,,67,127
56128,note_off,111,0,0,,7,,,67,127
56128,note_off,0,0,0,,2,,,62,127
56128,note_off,0,0,0,,7,,,55,127
56130,note_on,2,0,0,,5,,,53,127
56130,note_on,0,0,0,,0,,,60,127
56130,note_on,0,0,0,,10,,,69,127
56241,note_off,111,0,0,,10,,,69,127
56243,note_on,2,0,0,,0,,,72,127
56354,note_off,111,0,0,,0,,,72,127
56354,note_off,0,0,0,,0,,,60,127
56354,note_off,0,0,0,,5,,,53,127
56356,note_on,2,0,0,,7,,,55,127
56356,note_on,0,0,0,,12,,,71,127
56467,note_off,111,0,0,,12,,,71,127
56469,note_on,2,0,0,,10,,,69,127
56580,note_off,111,0,0,,10,,,69,127
56580,note_off,0,0,0,,7,,,55,127
56582,note_on,2,0,0,,10,,,57,127
56582,note_on,0,0,0,,7,,,67,127
56693,note_off,111,0,0,,7,,,67,127
56695,note_on,2,0,0,,5,,,65,127
56806,note_off,111,0,0,,5,,,65,127
56806,note_off,0,0,0,,10,,,57,127
56808,note_on,2,0,0,,12,,,59,127
56808,note_on,0,0,0,,4,,,64,127
56919,note_off,111,0,0,,4,,,64,127
56921,note_on,2,0,0,,2,,,62,127
57032,note_off,111,0,0,,2,,,62,127
57032,note_off,0,0,0,,12,,,59,127
57034,note_on,2,0,0,,0,,,48,127
57034,note_on,0,0,0,,4,,,64,127
57145,note_off,111,0,0,,4,,,64,127
57147,note_on,2,0,0,,7,,,67,127
57258,note_off,111,0,0,,7,,,67,127
57258,note_off,0,0,0,,0,,,48,127
57260,note_on,2,0,0,,0,,,60,127
57260,note_on,0,0,0,,4,,,64,127
57371,note_off,111,0,0,,4,,,64,127
57373,note_on,2,0,0,,7,,,67,127
57484,note_off,111,0,0,,7,,,67,127
57484,note_off,0,0,0,,0,,,60,127
57486,note_on,2,0,0,,12,,,59,127
57486,note_on,0,0,0,,4,,,64,127
57597,note_off,111,0,0,,4,,,64,127
57599,note_on,2,0,0,,7,,,67,127
57710,note_off,111,0,0,,7,,,67,127
57710,note_off,0,0,0,,12,,,59,127
57712,note_on,2,0,0,,10,,,57,127
57712,note_on,0,0,0,,4,,,64,127
57823,note_off,111,0,0,,4,,,64,127
57825,note_on,2,0,0,,0,,,72,127
57936,note_off,111,0,0,,10,,,57,127
57938,note_on,2,0,0,,7,,,55,127
57938,note_on,0,0,0,,4,,,64,127
58037,note_off,99,0,0,,0,,,72,127
58049,note_off,12,0,0,,4,,,64,127
58051,note_on,2,0,0,,2,,,74,127
58162,note_off,111,0,0,,7,,,55,127
58164,note_on,2,0,0,,5,,,53,127
58164,note_on,0,0,0,,4,,,64,127
58263,note_off,99,0,0,,2,,,74,127
58275,note_off,12,0,0,,4,,,64,127
58277,note_on,2,0,0,,4,,,76,127
58388,note_off,111,0,0,,5,,,53,127
58390,note_on,2,0,0,,4,,,52,127
58390,note_on,0,0,0,,4,,,64,127
58501,note_off,111,0,0,,4,,,64,127
58501,note_off,0,0,0,,4,,,76,127
58503,note_on,2,0,0,,7,,,67,127
58614,note_off,111,0,0,,7,,,67,127
58614,note_off,0,0,0,,4,,,52,127
58616,note_on,2,0,0,,0,,,60,127
58616,note_on,0,0,0,,4,,,64,127
58727,note_off,111,0,0,,4,,,64,127
58729,note_on,2,0,0,,7,,,67,127
58840,note_off,111,0,0,,7,,,67,127
58840,note_off,0,0,0,,0,,,60,127
58842,note_on,2,0,0,,12,,,59,127
58842,note_on,0,0,0,,4,,,64,127
58953,note_off,111,0,0,,4,,,64,127
58955,note_on,2,0,0,,7,,,67,127
59066,note_off,111,0,0,,7,,,67,127
59066,note_off,0,0,0,,12,,,59,127
59068,note_on,2,0,0,,10,,,57,127
59068,note_on,0,0,0,,4,,,64,127
59179,note_off,111,0,0,,4,,,64,127
59181,note_on,2,0,0,,0,,,72,127
59292,note_off,111,0,0,,10,,,57,127
59294,note_on,2,0,0,,7,,,55,127
59294,note_on,0,0,0,,4,,,64,127
59369,note_off,75,0,0,,0,,,72,127
59404,note_off,35,0,0,,4,,,64,127
59406,note_on,2,0,0,,2,,,74,127
59517,note_off,111,0,0,,7,,,55,127
59519,note_on,2,0,0,,5,,,53,127
59519,note_on,0,0,0,,4,,,64,127
59594,note_off,75,0,0,,2,,,74,127
59629,note_off,35,0,0,,4,,,64,127
59631,note_on,2,0,0,,4,,,76,127
59742,note_off,111,0,0,,5,,,53,127
59744,note_on,2,0,0,,4,,,52,127
59744,note_on,0,0,0,,4,,,64,127
59855,note_off,111,0,0,,4,,,64,127
59855,note_off,0,0,0,,4,,,76,127
59857,note_on,2,0,0,,7,,,67,127
59968,note_off,111,0,0,,7,,,67,127
59968,note_off,0,0,0,,4,,,52,127
59970,note_on,2,0,0,,0,,,48,127
59970,note_on,0,0,0,,0,,,60,127
59970,note_on,0,0,0,,4,,,64,127
60081,note_off,111,0,0,,4,,,64,127
60083,note_on,2,0,0,,7,,,67,127
60194,note_off,111,0,0,,7,,,67,127
60194,note_off,0,0,0,,0,,,60,127
60194,note_off,0,0,0,,0,,,48,127
60196,note_on,2,0,0,,12,,,59,127
60196,note_on,0,0,0,,12,,,47,127
60196,note_on,0,0,0,,4,,,64,127
60307,note_off,111,0,0,,4,,,64,127
60309,note_on,2,0,0,,7,,,67,127
60420,note_off,111,0,0,,7,,,67,127
60420,note_off,0,0,0,,12,,,47,127
60420,note_off,0,0,0,,12,,,59,127
60422,note_on,2,0,0,,10,,,45,127
60422,note_on,0,0,0,,10,,,57,127
60422,note_on,0,0,0,,4,,,64,127
60533,note_off,111,0,0,,4,,,64,127
60535,note_on,2,0,0,,0,,,72,127
60646,note_off,111,0,0,,10,,,57,127
60646,note_off,0,0,0,,10,,,45,127
60648,note_on,2,0,0,,7,,,55,127
60648,note_on,0,0,0,,7,,,43,127
60648,note_on,0,0,0,,4,,,64,127
60704,note_off,56,0,0,,0,,,72,127
60758,note_off,54,0,0,,4,,,64,127
60760,note_on,2,0,0,,2,,,74,127
60871,note_off,111,0,0,,7,,,43,127
60871,note_off,0,0,0,,7,,,55,127
60873,note_on,2,0,0,,5,,,41,127
60873,note_on,0,0,0,,5,,,53,127
60873,note_on,0,0,0,,4,,,64,127
60929,note_off,56,0,0,,2,,,74,127
60983,note_off,54,0,0,,4,,,64,127
60985,note_on,2,0,0,,4,,,76,127
61096,note_off,111,0,0,,5,,,53,127
61096,note_off,0,0,0,,5,,,41,127
61098,note_on,2,0,0,,4,,,52,127
61098,note_on,0,0,0,,4,,,40,127
61098,note_on,0,0,0,,4,,,64,127
61209,note_off,111,0,0,,4,,,76,127
61211,note_on,2,0,0,,12,,,71,127
61211,note_on,0,0,0,,8,,,68,127
61267,note_off,56,0,0,,4,,,64,127
61321,note_off,54,0,0,,8,,,68,127
61321,note_off,0,0,0,,12,,,71,127
61323,note_on,2,0,0,,4,,,64,127
61436,note_on,113,0,0,,12,,,71,127
61436,note_on,0,0,0,,8,,,68,127
61492,note_off,56,0,0,,4,,,64,127
61546,note_off,54,0,0,,8,,,68,127
61546,note_off,0,0,0,,12,,,71,127
61548,note_on,2,0,0,,4,,,64,127
61661,note_on,113,0,0,,12,,,71,127
61661,note_on,0,0,0,,8,,,68,127
61717,note_off,56,0,0,,4,,,64,127
61771,note_off,54,0,0,,8,,,68,127
61771,note_off,0,0,0,,12,,,71,127
61771,note_off,0,0,0,,4,,,40,127
61771,note_off,0,0,0,,4,,,52,127
61773,note_on,2,0,0,,4,,,52,127
61773,note_on,0,0,0,,4,,,40,127
61773,note_on,0,0,0,,5,,,65,127
61886,note_on,113,0,0,,0,,,72,127
61886,note_on,0,0,0,,12,,,71,127
61942,note_off,56,0,0,,5,,,65,127
61996,note_off,54,0,0,,12,,,71,127
61996,note_off,0,0,0,,0,,,72,127
61998,note_on,2,0,0,,5,,,65,127
62111,note_on,113,0,0,,0,,,72,127
62111,note_on,0,0,0,,10,,,69,127
62167,note_off,56,0,0,,5,,,65,127
62221,note_off,54,0,0,,10,,,69,127
62221,note_off,0,0,0,,0,,,72,127
62223,note_on,2,0,0,,5,,,65,127
62336,note_on,113,0,0,,10,,,69,127
62336,note_on,0,0,0,,0,,,72,127
62392,note_off,56,0,0,,5,,,65,127
62446,note_off,54,0,0,,0,,,72,127
62446,note_off,0,0,0,,10,,,69,127
62446,note_off,0,0,0,,4,,,40,127
62446,note_off,0,0,0,,4,,,52,127
62448,note_on,2,0,0,,4,,,52,127
62448,note_on,0,0,0,,4,,,40,127
62448,note_on,0,0,0,,4,,,64,127
62561,note_on,113,0,0,,12,,,71,127
62561,note_on,0,0,0,,10,,,69,127
62660,note_off,99,0,0,,4,,,64,127
62672,note_off,12,0,0,,10,,,69,127
62672,note_off,0,0,0,,12,,,71,127
62674,note_on,2,0,0,,4,,,64,127
62787,note_on,113,0,0,,8,,,68,127
62787,note_on,0,0,0,,12,,,71,127
62886,note_off,99,0,0,,4,,,64,127
62898,note_off,12,0,0,,12,,,71,127
62898,note_off,0,0,0,,8,,,68,127
62900,note_on,2,0,0,,4,,,64,127
63013,note_on,113,0,0,,8,,,68,127
63013,note_on,0,0,0,,12,,,71,127
63112,note_off,99,0,0,,4,,,64,127
63124,note_off,12,0,0,,12,,,71,127
63124,note_off,0,0,0,,8,,,68,127
63124,note_off,0,0,0,,4,,,40,127
63124,note_off,0,0,0,,4,,,52,127
63126,note_on,2,0,0,,4,,,40,127
63126,note_on,0,0,0,,4,,,52,127
63126,note_on,0,0,0,,5,,,65,127
63239,note_on,113,0,0,,12,,,71,127
63239,note_on,0,0,0,,0,,,72,127
63338,note_off,99,0,0,,5,,,65,127
63350,note_off,12,0,0,,0,,,72,127
63350,note_off,0,0,0,,12,,,71,127
63352,note_on,2,0,0,,5,,,65,127
63465,note_on,113,0,0,,0,,,72,127
63465,note_on,0,0,0,,10,,,69,127
63564,note_off,99,0,0,,5,,,65,127
63576,note_off,12,0,0,,10,,,69,127
63576,note_off,0,0,0,,0,,,72,127
63578,note_on,2,0,0,,5,,,65,127
63691,note_on,113,0,0,,10,,,69,127
63691,note_on,0,0,0,,0,,,72,127
63790,note_off,99,0,0,,5,,,65,127
63802,note_off,12,0,0,,0,,,72,127
63802,note_off,0,0,0,,10,,,69,127
63802,note_off,0,0,0,,4,,,52,127
63802,note_off,0,0,0,,4,,,40,127
63804,note_on,2,0,0,,4,,,52,127
63804,note_on,0,0,0,,4,,,64,127
63804,note_on,0,0,0,,12,,,71,127
63915,note_off,111,0,0,,12,,,71,127
63915,note_off,0,0,0,,4,,,64,127
63917,note_on,2,0,0,,5,,,65,127
64028,note_off,111,0,0,,5,,,65,127
64028,note_off,0,0,0,,4,,,52,127
64030,note_on,2,0,0,,8,,,56,127
64030,note_on,0,0,0,,4,,,64,127
64141,note_off,111,0,0,,4,,,64,127
64143,note_on,2,0,0,,2,,,62,127
64254,note_off,111,0,0,,2,,,62,127
64254,note_off,0,0,0,,8,,,56,127
64256,note_on,2,0,0,,4,,,52,127
64256,note_on,0,0,0,,0,,,60,127
64367,note_off,111,0,0,,0,,,60,127
64369,note_on,2,0,0,,12,,,59,127
64480,note_off,111,0,0,,12,,,59,127
64480,note_off,0,0,0,,4,,,52,127
64482,note_on,2,0,0,,10,,,45,127
64482,note_on,0,0,0,,10,,,57,127
64482,note_on,0,0,0,,0,,,60,127
64706,note_off,224,0,0,,0,,,60,127
64708,note_on,2,0,0,,4,,,64,127
64932,note_off,224,0,0,,4,,,64,127
64932,note_off,0,0,0,,10,,,57,127
64932,note_off,0,0,0,,10,,,45,127
64934,note_on,2,0,0,,10,,,57,127
64934,note_on,0,0,0,,3,,,51,127
64934,note_on,0,0,0,,10,,,69,127
64934,note_on,0,0,0,,0,,,60,127
65158,note_off,224,0,0,,0,,,60,127
65158,note_off,0,0,0,,3,,,51,127
65160,note_on,2,0,0,,4,,,52,127
65160,note_on,0,0,0,,12,,,59,127
65381,note_off,221,0,0,,10,,,57,127
65386,note_on,5,0,0,,7,,,55,127
65497,note_off,111,0,0,,7,,,55,127
65499,note_on,2,0,0,,6,,,54,127
65610,note_off,111,0,0,,6,,,54,127
65610,note_off,0,0,0,,12,,,59,127
65611,note_off,1,0,0,,10,,,69,127
65612,note_on,1,0,0,,7,,,55,127
65612,note_on,0,0,0,,7,,,67,127
65612,note_on,0,0,0,,4,,,64,127
65836,note_off,224,0,0,,7,,,67,127
65836,note_off,0,0,0,,7,,,55,127
65837,note_off,1,0,0,,4,,,52,127
65838,note_on,1,0,0,,12,,,47,127
65838,note_on,0,0,0,,6,,,66,127
66059,note_off,221,0,0,,4,,,64,127
66061,note_off,2,0,0,,6,,,66,127
66063,note_on,2,0,0,,2,,,62,127
66174,note_off,111,0,0,,2,,,62,127
66176,note_on,2,0,0,,1,,,61,127
66287,note_off,111,0,0,,1,,,61,127
66287,note_off,0,0,0,,12,,,47,127
66289,note_on,2,0,0,,12,,,59,127
66289,note_on,0,0,0,,2,,,62,127
66289,note_on,0,0,0,,12,,,71,127
66513,note_off,224,0,0,,2,,,62,127
66513,note_off,0,0,0,,12,,,59,127
66515,note_on,2,0,0,,0,,,60,127
66515,note_on,0,0,0,,4,,,64,127
66736,note_off,221,0,0,,12,,,71,127
66741,note_on,5,0,0,,7,,,67,127
66962,note_off,221,0,0,,4,,,64,127
66964,note_off,2,0,0,,7,,,67,127
66964,note_off,0,0,0,,0,,,60,127
66966,note_on,2,0,0,,10,,,57,127
66966,note_on,0,0,0,,6,,,66,127
66966,note_on,0,0,0,,0,,,60,127
66966,note_on,0,0,0,,0,,,72,127
67190,note_off,224,0,0,,0,,,60,127
67190,note_off,0,0,0,,6,,,66,127
67190,note_off,0,0,0,,10,,,57,127
67192,note_on,2,0,0,,7,,,55,127
67192,note_on,0,0,0,,2,,,62,127
67192,note_on,0,0,0,,2,,,74,127
67413,note_off,221,0,0,,0,,,72,127
67418,note_on,5,0,0,,12,,,71,127
67529,note_off,111,0,0,,12,,,71,127
67531,note_on,2,0,0,,10,,,69,127
67639,note_off,108,0,0,,2,,,74,127
67641,note_off,2,0,0,,10,,,69,127
67643,note_on,2,0,0,,12,,,71,127
67643,note_on,0,0,0,,7,,,67,127
67867,note_off,224,0,0,,12,,,71,127
67867,note_off,0,0,0,,2,,,62,127
67867,note_off,0,0,0,,7,,,55,127
67869,note_on,2,0,0,,2,,,62,127
67869,note_on,0,0,0,,10,,,69,127
68090,note_off,221,0,0,,7,,,67,127
68095,note_on,5,0,0,,5,,,65,127
68206,note_off,111,0,0,,5,,,65,127
68208,note_on,2,0,0,,4,,,64,127
68316,note_off,108,0,0,,10,,,69,127
68318,note_off,2,0,0,,4,,,64,127
68320,note_on,2,0,0,,2,,,74,127
68320,note_on,0,0,0,,8,,,68,127
68320,note_on,0,0,0,,5,,,65,127
68544,note_off,224,0,0,,5,,,65,127
68544,note_off,0,0,0,,8,,,68,127
68544,note_off,0,0,0,,2,,,62,127
68546,note_on,2,0,0,,10,,,57,127
68546,note_on,0,0,0,,4,,,64,127
68546,note_on,0,0,0,,4,,,76,127
68767,note_off,221,0,0,,2,,,74,127
68769,note_off,2,0,0,,4,,,76,127
68771,note_on,2,0,0,,1,,,73,127
68882,note_off,111,0,0,,1,,,73,127
68882,note_off,0,0,0,,4,,,64,127
68884,note_on,2,0,0,,7,,,67,127
68884,note_on,0,0,0,,12,,,71,127
68995,note_off,111,0,0,,12,,,71,127
68995,note_off,0,0,0,,7,,,67,127
68997,note_on,2,0,0,,6,,,66,127
68997,note_on,0,0,0,,10,,,69,127
69108,note_off,111,0,0,,10,,,69,127
69108,note_off,0,0,0,,6,,,66,127
69110,note_on,2,0,0,,4,,,64,127
69110,note_on,0,0,0,,7,,,67,127
69221,note_off,111,0,0,,7,,,67,127
69221,note_off,0,0,0,,4,,,64,127
69222,note_off,1,0,0,,10,,,57,127
69223,note_on,1,0,0,,2,,,62,127
69223,note_on,0,0,0,,6,,,66,127
69334,note_off,111,0,0,,6,,,66,127
69336,note_on,2,0,0,,10,,,69,127
69447,note_off,111,0,0,,10,,,69,127
69447,note_off,0,0,0,,2,,,62,127
69449,note_on,2,0,0,,12,,,59,127
69449,note_on,0,0,0,,7,,,67,127
69560,note_off,111,0,0,,7,,,67,127
69562,note_on,2,0,0,,6,,,66,127
69673,note_off,111,0,0,,6,,,66,127
69673,note_off,0,0,0,,12,,,59,127
69675,note_on,2,0,0,,7,,,55,127
69675,note_on,0,0,0,,4,,,64,127
69786,note_off,111,0,0,,4,,,64,127
69788,note_on,2,0,0,,2,,,62,127
69899,note_off,111,0,0,,2,,,62,127
69899,note_off,0,0,0,,7,,,55,127
69901,note_on,2,0,0,,10,,,57,127
69901,note_on,0,0,0,,1,,,61,127
70012,note_off,111,0,0,,1,,,61,127
70012,note_off,0,0,0,,10,,,57,127
70014,note_on,2,0,0,,12,,,59,127
70014,note_on,0,0,0,,2,,,62,127
70125,note_off,111,0,0,,2,,,62,127
70125,note_off,0,0,0,,12,,,59,127
70127,note_on,2,0,0,,1,,,61,127
70127,note_on,0,0,0,,4,,,64,127
70238,note_off,111,0,0,,4,,,64,127
70238,note_off,0,0,0,,1,,,61,127
70240,note_on,2,0,0,,2,,,62,127
70240,note_on,0,0,0,,6,,,66,127
70351,note_off,111,0,0,,6,,,66,127
70351,note_off,0,0,0,,2,,,62,127
70353,note_on,2,0,0,,4,,,64,127
70353,note_on,0,0,0,,7,,,67,127
70464,note_off,111,0,0,,7,,,67,127
70464,note_off,0,0,0,,4,,,64,127
70466,note_on,2,0,0,,6,,,66,127
70466,note_on,0,0,0,,10,,,69,127
70577,note_off,111,0,0,,10,,,69,127
70577,note_off,0,0,0,,6,,,66,127
70579,note_on,2,0,0,,7,,,67,127
70579,note_on,0,0,0,,12,,,71,127
70690,note_off,111,0,0,,12,,,71,127
70692,note_on,2,0,0,,1,,,73,127
70803,note_off,111,0,0,,1,,,73,127
70803,note_off,0,0,0,,7,,,67,127
70805,note_on,2,0,0,,6,,,66,127
70805,note_on,0,0,0,,2,,,74,127
70916,note_off,111,0,0,,2,,,74,127
70918,note_on,2,0,0,,4,,,76,127
71029,note_off,111,0,0,,4,,,76,127
71029,note_off,0,0,0,,6,,,66,127
71031,note_on,2,0,0,,4,,,64,127
71031,note_on,0,0,0,,6,,,78,127
71142,note_off,111,0,0,,6,,,78,127
71144,note_on,2,0,0,,7,,,79,127
71255,note_off,111,0,0,,7,,,79,127
71255,note_off,0,0,0,,4,,,64,127
71257,note_on,2,0,0,,2,,,62,127
71257,note_on,0,0,0,,6,,,78,127
71481,note_off,224,0,0,,2,,,62,127
71483,note_on,2,0,0,,10,,,57,127
71556,note_off,73,0,0,,6,,,78,127
71558,note_on,2,0,0,,7,,,79,127
71631,note_off,73,0,0,,7,,,79,127
71633,note_on,2,0,0,,10,,,81,127
71706,note_off,73,0,0,,10,,,81,127
71708,note_on,2,0,0,,4,,,76,127
71908,note_off,200,0,0,,4,,,76,127
71932,note_off,24,0,0,,10,,,57,127
71934,note_on,2,0,0,,10,,,57,127
71934,note_on,0,0,0,,1,,,61,127
72045,note_off,111,0,0,,1,,,61,127
72045,note_off,0,0,0,,10,,,57,127
72047,note_on,2,0,0,,12,,,59,127
72047,note_on,0,0,0,,2,,,62,127
72158,note_off,111,0,0,,2,,,62,127
72158,note_off,0,0,0,,12,,,59,127
72160,note_on,2,0,0,,1,,,61,127
72160,note_on,0,0,0,,4,,,64,127
72271,note_off,111,0,0,,4,,,64,127
72271,note_off,0,0,0,,1,,,61,127
72273,note_on,2,0,0,,2,,,62,127
72273,note_on,0,0,0,,6,,,66,127
72384,note_off,111,0,0,,6,,,66,127
72384,note_off,0,0,0,,2,,,62,127
72386,note_on,2,0,0,,4,,,64,127
72386,note_on,0,0,0,,7,,,67,127
72497,note_off,111,0,0,,7,,,67,127
72497,note_off,0,0,0,,4,,,64,127
72499,note_on,2,0,0,,6,,,66,127
72499,note_on,0,0,0,,10,,,69,127
72610,note_off,111,0,0,,10,,,69,127
72610,note_off,0,0,0,,6,,,66,127
72612,note_on,2,0,0,,7,,,67,127
72612,note_on,0,0,0,,12,,,71,127
72723,note_off,111,0,0,,12,,,71,127
72725,note_on,2,0,0,,1,,,73,127
72836,note_off,111,0,0,,1,,,73,127
72836,note_off,0,0,0,,7,,,67,127
72838,note_on,2,0,0,,6,,,66,127
72838,note_on,0,0,0,,2,,,74,127
72949,note_off,111,0,0,,2,,,74,127
72951,note_on,2,0,0,,4,,,76,127
73062,note_off,111,0,0,,4,,,76,127
73062,note_off,0,0,0,,6,,,66,127
73064,note_on,2,0,0,,4,,,64,127
73064,note_on,0,0,0,,6,,,78,127
73175,note_off,111,0,0,,6,,,78,127
73177,note_on,2,0,0,,7,,,79,127
73288,note_off,111,0,0,,7,,,79,127
73288,note_off,0,0,0,,4,,,64,127
73290,note_on,2,0,0,,2,,,62,127
73290,note_on,0,0,0,,6,,,78,127
73514,note_off,224,0,0,,2,,,62,127
73516,note_on,2,0,0,,10,,,57,127
73589,note_off,73,0,0,,6,,,78,127
73591,note_on,2,0,0,,7,,,79,127
73664,note_off,73,0,0,,7,,,79,127
73666,note_on,2,0,0,,10,,,81,127
73739,note_off,73,0,0,,10,,,81,127
73741,note_on,2,0,0,,4,,,76,127
73927,note_off,186,0,0,,10,,,57,127
73965,note_off,38,0,0,,4,,,76,127
73967,note_on,2,0,0,,10,,,57,127
73967,note_on,0,0,0,,1,,,61,127
74078,note_off,111,0,0,,1,,,61,127
74078,note_off,0,0,0,,10,,,57,127
74080,note_on,2,0,0,,12,,,59,127
74080,note_on,0,0,0,,2,,,62,127
74191,note_off,111,0,0,,2,,,62,127
74191,note_off,0,0,0,,12,,,59,127
74193,note_on,2,0,0,,1,,,61,127
74193,note_on,0,0,0,,4,,,64,127
74304,note_off,111,0,0,,4,,,64,127
74304,note_off,0,0,0,,1,,,61,127
74306,note_on,2,0,0,,2,,,62,127
74306,note_on,0,0,0,,6,,,66,127
74417,note_off,111,0,0,,6,,,66,127
74417,note_off,0,0,0,,2,,,62,127
74419,note_on,2,0,0,,4,,,64,127
74419,note_on,0,0,0,,7,,,67,127
74530,note_off,111,0,0,,7,,,67,127
74530,note_off,0,0,0,,4,,,64,127
74532,note_on,2,0,0,,6,,,66,127
74532,note_on,0,0,0,,10,,,69,127
74643,note_off,111,0,0,,10,,,69,127
74643,note_off,0,0,0,,6,,,66,127
74645,note_on,2,0,0,,7,,,67,127
74645,note_on,0,0,0,,12,,,71,127
74756,note_off,111,0,0,,12,,,71,127
74756,note_off,0,0,0,,7,,,67,127
74758,note_on,2,0,0,,10,,,69,127
74758,note_on,0,0,0,,1,,,73,127
74869,note_off,111,0,0,,1,,,73,127
74869,note_off,0,0,0,,10,,,69,127
74871,note_on,2,0,0,,12,,,71,127
74871,note_on,0,0,0,,2,,,74,127
74982,note_off,111,0,0,,2,,,74,127
74982,note_off,0,0,0,,12,,,71,127
74984,note_on,2,0,0,,1,,,73,127
74984,note_on,0,0,0,,4,,,76,127
75095,note_off,111,0,0,,4,,,76,127
75095,note_off,0,0,0,,1,,,73,127
75097,note_on,2,0,0,,2,,,74,127
75097,note_on,0,0,0,,6,,,78,127
75208,note_off,111,0,0,,6,,,78,127
75208,note_off,0,0,0,,2,,,74,127
75210,note_on,2,0,0,,4,,,76,127
75210,note_on,0,0,0,,7,,,79,127
75321,note_off,111,0,0,,7,,,79,127
75321,note_off,0,0,0,,4,,,76,127
75323,note_on,2,0,0,,2,,,74,127
75323,note_on,0,0,0,,6,,,78,127
75434,note_off,111,0,0,,6,,,78,127
75436,note_on,2,0,0,,10,,,81,127
75547,note_off,111,0,0,,10,,,81,127
75547,note_off,0,0,0,,2,,,74,127
75549,note_on,2,0,0,,2,,,74,127
75549,note_on,0,0,0,,6,,,78,127
75660,note_off,111,0,0,,6,,,78,127
75662,note_on,2,0,0,,10,,,81,127
75773,note_off,111,0,0,,10,,,81,127
75773,note_off,0,0,0,,2,,,74,127
75775,note_on,2,0,0,,1,,,73,127
75775,note_on,0,0,0,,2,,,74,127
75775,note_on,0,0,0,,6,,,78,127
75886,note_off,111,0,0,,6,,,78,127
75888,note_on,2,0,0,,10,,,81,127
75999,note_off,111,0,0,,10,,,81,127
75999,note_off,0,0,0,,2,,,74,127
75999,note_off,0,0,0,,1,,,73,127
76001,note_on,2,0,0,,12,,,71,127
76001,note_on,0,0,0,,2,,,74,127
76001,note_on,0,0,0,,7,,,79,127
76112,note_off,111,0,0,,7,,,79,127
76114,note_on,2,0,0,,12,,,83,127
76225,note_off,111,0,0,,12,,,83,127
76225,note_off,0,0,0,,2,,,74,127
76225,note_off,0,0,0,,12,,,71,127
76227,note_on,2,0,0,,10,,,69,127
76227,note_on,0,0,0,,2,,,74,127
76227,note_on,0,0,0,,10,,,81,127
76338,note_off,111,0,0,,10,,,81,127
76340,note_on,2,0,0,,1,,,85,127
76451,note_off,111,0,0,,1,,,85,127
76451,note_off,0,0,0,,2,,,74,127
76451,note_off,0,0,0,,10,,,69,127
76453,note_on,2,0,0,,7,,,67,127
76453,note_on,0,0,0,,2,,,74,127
76453,note_on,0,0,0,,12,,,83,127
76564,note_off,111,0,0,,12,,,83,127
76566,note_on,2,0,0,,2,,,86,127
76677,note_off,111,0,0,,2,,,86,127
76677,note_off,0,0,0,,2,,,74,127
76677,note_off,0,0,0,,7,,,67,127
76679,note_on,2,0,0,,6,,,66,127
76679,note_on,0,0,0,,2,,,74,127
76679,note_on,0,0,0,,6,,,78,127
76790,note_off,111,0,0,,6,,,78,127
76792,note_on,2,0,0,,10,,,81,127
76903,note_off,111,0,0,,10,,,81,127
76903,note_off,0,0,0,,2,,,74,127
76903,note_off,0,0,0,,6,,,66,127
76905,note_on,2,0,0,,2,,,74,127
76905,note_on,0,0,0,,6,,,78,127
77016,note_off,111,0,0,,6,,,78,127
77018,note_on,2,0,0,,10,,,81,127
77129,note_off,111,0,0,,10,,,81,127
77129,note_off,0,0,0,,2,,,74,127
77131,note_on,2,0,0,,1,,,73,127
77131,note_on,0,0,0,,2,,,74,127
77131,note_on,0,0,0,,6,,,78,127
77242,note_off,111,0,0,,6,,,78,127
77244,note_on,2,0,0,,10,,,81,127
77355,note_off,111,0,0,,10,,,81,127
77355,note_off,0,0,0,,2,,,74,127
77355,note_off,0,0,0,,1,,,73,127
77357,note_on,2,0,0,,2,,,74,127
77357,note_on,0,0,0,,12,,,71,127
77357,note_on,0,0,0,,7,,,79,127
77470,note_on,113,0,0,,12,,,83,127
77498,note_off,28,0,0,,7,,,79,127
77580,note_off,82,0,0,,12,,,83,127
77580,note_off,0,0,0,,12,,,71,127
77580,note_off,0,0,0,,2,,,74,127
77582,note_on,2,0,0,,2,,,74,127
77582,note_on,0,0,0,,10,,,69,127
77582,note_on,0,0,0,,10,,,81,127
77695,note_on,113,0,0,,1,,,85,127
77723,note_off,28,0,0,,10,,,81,127
77805,note_off,82,0,0,,1,,,85,127
77805,note_off,0,0,0,,10,,,69,127
77805,note_off,0,0,0,,2,,,74,127
77807,note_on,2,0,0,,7,,,67,127
77807,note_on,0,0,0,,2,,,74,127
77807,note_on,0,0,0,,12,,,83,127
77920,note_on,113,0,0,,2,,,86,127
77948,note_off,28,0,0,,12,,,83,127
78030,note_off,82,0,0,,2,,,86,127
78030,note_off,0,0,0,,2,,,74,127
78030,note_off,0,0,0,,7,,,67,127
78032,note_on,2,0,0,,2,,,74,127
78032,note_on,0,0,0,,6,,,66,127
78032,note_on,0,0,0,,6,,,78,127
78143,note_off,111,0,0,,6,,,78,127
78145,note_on,2,0,0,,10,,,81,127
78256,note_off,111,0,0,,10,,,81,127
78256,note_off,0,0,0,,6,,,66,127
78256,note_off,0,0,0,,2,,,74,127
78258,note_on,2,0,0,,2,,,74,127
78258,note_on,0,0,0,,2,,,62,127
78258,note_on,0,0,0,,6,,,78,127
78369,note_off,111,0,0,,6,,,78,127
78371,note_on,2,0,0,,10,,,81,127
78482,note_off,111,0,0,,10,,,81,127
78482,note_off,0,0,0,,2,,,62,127
78482,note_off,0,0,0,,2,,,74,127
78484,note_on,2,0,0,,1,,,61,127
78484,note_on,0,0,0,,1,,,73,127
78484,note_on,0,0,0,,6,,,78,127
78484,note_on,0,0,0,,2,,,74,127
78595,note_off,111,0,0,,2,,,74,127
78595,note_off,0,0,0,,6,,,78,127
78597,note_on,2,0,0,,10,,,81,127
78708,note_off,111,0,0,,10,,,81,127
78708,note_off,0,0,0,,1,,,73,127
78708,note_off,0,0,0,,1,,,61,127
78710,note_on,2,0,0,,12,,,59,127
78710,note_on,0,0,0,,12,,,71,127
78710,note_on,0,0,0,,2,,,74,127
78710,note_on,0,0,0,,7,,,79,127
78821,note_off,111,0,0,,2,,,74,127
78823,note_on,2,0,0,,12,,,83,127
78934,note_off,111,0,0,,12,,,83,127
78934,note_off,0,0,0,,7,,,79,127
78934,note_off,0,0,0,,12,,,71,127
78934,note_off,0,0,0,,12,,,59,127
78936,note_on,2,0,0,,10,,,69,127
78936,note_on,0,0,0,,10,,,57,127
78936,note_on,0,0,0,,2,,,74,127
78936,note_on,0,0,0,,10,,,81,127
79047,note_off,111,0,0,,2,,,74,127
79049,note_on,2,0,0,,1,,,85,127
79160,note_off,111,0,0,,1,,,85,127
79160,note_off,0,0,0,,10,,,81,127
79160,note_off,0,0,0,,10,,,57,127
79160,note_off,0,0,0,,10,,,69,127
79162,note_on,2,0,0,,7,,,55,127
79162,note_on,0,0,0,,7,,,67,127
79162,note_on,0,0,0,,12,,,83,127
79162,note_on,0,0,0,,2,,,74,127
79273,note_off,111,0,0,,2,,,74,127
79275,note_on,2,0,0,,2,,,86,127
79386,note_off,111,0,0,,2,,,86,127
79386,note_off,0,0,0,,12,,,83,127
79386,note_off,0,0,0,,7,,,67,127
79386,note_off,0,0,0,,7,,,55,127
79388,note_on,2,0,0,,6,,,66,127
79388,note_on,0,0,0,,6,,,54,127
79388,note_on,0,0,0,,10,,,81,127
79499,note_off,111,0,0,,10,,,81,127
79501,note_on,2,0,0,,6,,,78,127
79612,note_off,111,0,0,,6,,,78,127
79612,note_off,0,0,0,,6,,,54,127
79612,note_off,0,0,0,,6,,,66,127
79614,note_on,2,0,0,,4,,,52,127
79614,note_on,0,0,0,,4,,,64,127
79614,note_on,0,0,0,,7,,,79,127
79725,note_off,111,0,0,,7,,,79,127
79727,note_on,2,0,0,,4,,,76,127
79838,note_off,111,0,0,,4,,,76,127
79838,note_off,0,0,0,,4,,,64,127
79838,note_off,0,0,0,,4,,,52,127
79840,note_on,2,0,0,,2,,,50,127
79840,note_on,0,0,0,,2,,,62,127
79840,note_on,0,0,0,,6,,,78,127
79951,note_off,111,0,0,,6,,,78,127
79953,note_on,2,0,0,,2,,,74,127
80064,note_off,111,0,0,,2,,,74,127
80064,note_off,0,0,0,,2,,,62,127
80064,note_off,0,0,0,,2,,,50,127
80066,note_on,2,0,0,,7,,,67,127
80066,note_on,0,0,0,,4,,,76,127
80177,note_off,111,0,0,,4,,,76,127
80179,note_on,2,0,0,,7,,,79,127
80290,note_off,111,0,0,,7,,,79,127
80290,note_off,0,0,0,,7,,,67,127
80292,note_on,2,0,0,,10,,,69,127
80292,note_on,0,0,0,,6,,,78,127
80403,note_off,111,0,0,,6,,,78,127
80405,note_on,2,0,0,,2,,,74,127
80516,note_off,111,0,0,,2,,,74,127
80516,note_off,0,0,0,,10,,,69,127
80518,note_on,2,0,0,,10,,,57,127
80518,note_on,0,0,0,,4,,,76,127
80629,note_off,111,0,0,,4,,,76,127
80631,note_on,2,0,0,,1,,,73,127
80742,note_off,111,0,0,,1,,,73,127
80742,note_off,0,0,0,,10,,,57,127
80744,note_on,2,0,0,,2,,,50,127
80744,note_on,0,0,0,,6,,,66,127
80855,note_off,111,0,0,,6,,,66,127
80857,note_on,2,0,0,,10,,,69,127
80968,note_off,111,0,0,,10,,,69,127
80968,note_off,0,0,0,,2,,,50,127
80970,note_on,2,0,0,,2,,,62,127
80970,note_on,0,0,0,,6,,,66,127
81081,note_off,111,0,0,,6,,,66,127
81083,note_on,2,0,0,,10,,,69,127
81194,note_off,111,0,0,,10,,,69,127
81194,note_off,0,0,0,,2,,,62,127
81196,note_on,2,0,0,,1,,,61,127
81196,note_on,0,0,0,,6,,,66,127
81307,note_off,111,0,0,,6,,,66,127
81309,note_on,2,0,0,,10,,,69,127
81420,note_off,111,0,0,,10,,,69,127
81420,note_off,0,0,0,,1,,,61,127
81422,note_on,2,0,0,,12,,,59,127
81422,note_on,0,0,0,,12,,,71,127
81422,note_on,0,0,0,,2,,,74,127
81533,note_off,111,0,0,,12,,,71,127
81535,note_on,2,0,0,,10,,,69,127
81646,note_off,111,0,0,,10,,,69,127
81646,note_off,0,0,0,,2,,,74,127
81646,note_off,0,0,0,,12,,,59,127
81648,note_on,2,0,0,,10,,,57,127
81648,note_on,0,0,0,,1,,,73,127
81648,note_on,0,0,0,,4,,,76,127
81759,note_off,111,0,0,,1,,,73,127
81761,note_on,2,0,0,,10,,,69,127
81872,note_off,111,0,0,,10,,,69,127
81872,note_off,0,0,0,,4,,,76,127
81872,note_off,0,0,0,,10,,,57,127
81874,note_on,2,0,0,,7,,,55,127
81874,note_on,0,0,0,,2,,,74,127
81874,note_on,0,0,0,,6,,,78,127
81985,note_off,111,0,0,,2,,,74,127
81987,note_on,2,0,0,,10,,,69,127
82098,note_off,111,0,0,,10,,,69,127
82098,note_off,0,0,0,,6,,,78,127
82098,note_off,0,0,0,,7,,,55,127
82100,note_on,2,0,0,,6,,,54,127
82100,note_on,0,0,0,,6,,,66,127
82211,note_off,111,0,0,,6,,,66,127
82213,note_on,2,0,0,,10,,,69,127
82324,note_off,111,0,0,,10,,,69,127
82324,note_off,0,0,0,,6,,,54,127
82326,note_on,2,0,0,,2,,,62,127
82326,note_on,0,0,0,,6,,,66,127
82437,note_off,111,0,0,,6,,,66,127
82439,note_on,2,0,0,,10,,,69,127
82550,note_off,111,0,0,,10,,,69,127
82550,note_off,0,0,0,,2,,,62,127
82552,note_on,2,0,0,,1,,,61,127
82552,note_on,0,0,0,,6,,,66,127
82663,note_off,111,0,0,,6,,,66,127
82665,note_on,2,0,0,,10,,,69,127
82776,note_off,111,0,0,,10,,,69,127
82776,note_off,0,0,0,,1,,,61,127
82778,note_on,2,0,0,,12,,,59,127
82778,note_on,0,0,0,,2,,,74,127
82778,note_on,0,0,0,,12,,,71,127
82889,note_off,111,0,0,,12,,,71,127
82891,note_on,2,0,0,,10,,,69,127
82966,note_off,75,0,0,,2,,,74,127
83001,note_off,35,0,0,,10,,,69,127
83001,note_off,0,0,0,,12,,,59,127
83003,note_on,2,0,0,,10,,,57,127
83003,note_on,0,0,0,,1,,,73,127
83003,note_on,0,0,0,,4,,,76,127
83114,note_off,111,0,0,,1,,,73,127
83116,note_on,2,0,0,,10,,,69,127
83191,note_off,75,0,0,,4,,,76,127
83226,note_off,35,0,0,,10,,,69,127
83226,note_off,0,0,0,,10,,,57,127
83228,note_on,2,0,0,,7,,,55,127
83228,note_on,0,0,0,,2,,,74,127
83228,note_on,0,0,0,,6,,,78,127
83339,note_off,111,0,0,,2,,,74,127
83341,note_on,2,0,0,,10,,,69,127
83416,note_off,75,0,0,,6,,,78,127
83451,note_off,35,0,0,,10,,,69,127
83451,note_off,0,0,0,,7,,,55,127
83453,note_on,2,0,0,,6,,,54,127
83453,note_on,0,0,0,,6,,,66,127
83564,note_off,111,0,0,,6,,,66,127
83566,note_on,2,0,0,,10,,,69,127
83677,note_off,111,0,0,,10,,,69,127
83677,note_off,0,0,0,,6,,,54,127
83679,note_on,2,0,0,,2,,,50,127
83679,note_on,0,0,0,,2,,,62,127
83679,note_on,0,0,0,,6,,,66,127
83790,note_off,111,0,0,,6,,,66,127
83792,note_on,2,0,0,,10,,,69,127
83903,note_off,111,0,0,,10,,,69,127
83903,note_off,0,0,0,,2,,,62,127
83903,note_off,0,0,0,,2,,,50,127
83905,note_on,2,0,0,,1,,,49,127
83905,note_on,0,0,0,,1,,,61,127
83905,note_on,0,0,0,,6,,,66,127
84016,note_off,111,0,0,,6,,,66,127
84018,note_on,2,0,0,,10,,,69,127
84129,note_off,111,0,0,,10,,,69,127
84129,note_off,0,0,0,,1,,,61,127
84129,note_off,0,0,0,,1,,,49,127
84131,note_on,2,0,0,,12,,,59,127
84131,note_on,0,0,0,,12,,,47,127
84131,note_on,0,0,0,,2,,,74,127
84131,note_on,0,0,0,,12,,,71,127
84242,note_off,111,0,0,,12,,,71,127
84244,note_on,2,0,0,,10,,,69,127
84300,note_off,56,0,0,,2,,,74,127
84354,note_off,54,0,0,,10,,,69,127
84354,note_off,0,0,0,,12,,,47,127
84354,note_off,0,0,0,,12,,,59,127
84356,note_on,2,0,0,,10,,,45,127
84356,note_on,0,0,0,,10,,,57,127
84356,note_on,0,0,0,,4,,,76,127
84356,note_on,0,0,0,,1,,,73,127
84467,note_off,111,0,0,,1,,,73,127
84469,note_on,2,0,0,,10,,,69,127
84525,note_off,56,0,0,,4,,,76,127
84579,note_off,54,0,0,,10,,,69,127
84579,note_off,0,0,0,,10,,,57,127
84579,note_off,0,0,0,,10,,,45,127
84581,note_on,2,0,0,,7,,,55,127
84581,note_on,0,0,0,,7,,,43,127
84581,note_on,0,0,0,,6,,,78,127
84581,note_on,0,0,0,,2,,,74,127
84692,note_off,111,0,0,,2,,,74,127
84694,note_on,2,0,0,,10,,,69,127
84750,note_off,56,0,0,,6,,,78,127
84804,note_off,54,0,0,,10,,,69,127
84804,note_off,0,0,0,,7,,,43,127
84804,note_off,0,0,0,,7,,,55,127
84806,note_on,2,0,0,,6,,,54,127
84806,note_on,0,0,0,,6,,,42,127
84806,note_on,0,0,0,,6,,,78,127
84806,note_on,0,0,0,,2,,,74,127
84917,note_off,111,0,0,,2,,,74,127
84919,note_on,2,0,0,,10,,,69,127
84975,note_off,56,0,0,,6,,,78,127
85029,note_off,54,0,0,,10,,,69,127
85029,note_off,0,0,0,,6,,,42,127
85029,note_off,0,0,0,,6,,,54,127
85031,note_on,2,0,0,,4,,,40,127
85031,note_on,0,0,0,,4,,,52,127
85031,note_on,0,0,0,,4,,,76,127
85031,note_on,0,0,0,,7,,,79,127
85142,note_off,111,0,0,,4,,,76,127
85144,note_on,2,0,0,,10,,,69,127
85200,note_off,56,0,0,,7,,,79,127
85254,note_off,54,0,0,,10,,,69,127
85254,note_off,0,0,0,,4,,,52,127
85254,note_off,0,0,0,,4,,,40,127
85256,note_on,2,0,0,,2,,,38,127
85256,note_on,0,0,0,,2,,,50,127
85256,note_on,0,0,0,,6,,,78,127
85256,note_on,0,0,0,,10,,,81,127
85367,note_off,111,0,0,,6,,,78,127
85369,note_on,2,0,0,,10,,,69,127
85425,note_off,56,0,0,,10,,,81,127
85479,note_off,54,0,0,,10,,,69,127
85479,note_off,0,0,0,,2,,,50,127
85479,note_off,0,0,0,,2,,,38,127
85481,note_on,2,0,0,,7,,,55,127
85481,note_on,0,0,0,,7,,,79,127
85592,note_off,111,0,0,,7,,,79,127
85594,note_on,2,0,0,,4,,,76,127
85705,note_off,111,0,0,,4,,,76,127
85705,note_off,0,0,0,,7,,,55,127
85707,note_on,2,0,0,,10,,,57,127
85707,note_on,0,0,0,,6,,,78,127
85818,note_off,111,0,0,,6,,,78,127
85820,note_on,2,0,0,,2,,,74,127
85931,note_off,111,0,0,,2,,,74,127
85933,note_on,2,0,0,,10,,,45,127
85933,note_on,0,0,0,,4,,,76,127
86044,note_off,111,0,0,,4,,,76,127
86046,note_on,2,0,0,,1,,,73,127
86154,note_off,108,0,0,,10,,,57,127
86155,note_off,1,0,0,,1,,,73,127
86156,note_off,1,0,0,,10,,,45,127
86157,note_on,1,0,0,,2,,,50,127
86157,note_on,0,0,0,,2,,,74,127
86270,note_on,113,0,0,,2,,,86,127
86378,note_off,108,0,0,,2,,,74,127
86378,note_off,0,0,0,,2,,,50,127
86379,note_off,1,0,0,,2,,,86,127
86383,note_on,4,0,0,,4,,,52,127
86383,note_on,0,0,0,,1,,,85,127
86492,note_off,109,0,0,,1,,,85,127
86496,note_on,4,0,0,,7,,,79,127
86604,note_off,108,0,0,,4,,,52,127
86605,note_off,1,0,0,,7,,,79,127
86609,note_on,4,0,0,,6,,,54,127
86609,note_on,0,0,0,,6,,,78,127
86718,note_off,109,0,0,,6,,,78,127
86722,note_on,4,0,0,,12,,,83,127
86830,note_off,108,0,0,,6,,,54,127
86831,note_off,1,0,0,,12,,,83,127
86835,note_on,4,0,0,,7,,,55,127
86835,note_on,0,0,0,,10,,,81,127
86944,note_off,109,0,0,,10,,,81,127
86948,note_on,4,0,0,,7,,,79,127
87056,note_off,108,0,0,,7,,,55,127
87057,note_off,1,0,0,,7,,,79,127
87061,note_on,4,0,0,,10,,,57,127
87061,note_on,0,0,0,,6,,,78,127
87170,note_off,109,0,0,,6,,,78,127
87174,note_on,4,0,0,,4,,,76,127
87283,note_off,109,0,0,,4,,,76,127
87287,note_on,4,0,0,,10,,,45,127
87287,note_on,0,0,0,,2,,,74,127
87396,note_off,109,0,0,,2,,,74,127
87396,note_off,0,0,0,,10,,,57,127
87400,note_on,4,0,0,,1,,,73,127
87508,note_off,108,0,0,,10,,,45,127
87512,note_off,4,0,0,,1,,,73,127
87516,note_on,4,0,0,,1,,,73,127
87516,note_on,0,0,0,,2,,,50,127
87628,note_off,112,0,0,,1,,,73,127
87633,note_on,5,0,0,,2,,,74,127
87744,note_off,111,0,0,,2,,,50,127
87745,note_off,1,0,0,,2,,,74,127
87750,note_on,5,0,0,,1,,,73,127
87750,note_on,0,0,0,,4,,,52,127
87862,note_off,112,0,0,,1,,,73,127
87867,note_on,5,0,0,,7,,,67,127
87978,note_off,111,0,0,,4,,,52,127
87979,note_off,1,0,0,,7,,,67,127
87984,note_on,5,0,0,,6,,,66,127
87984,note_on,0,0,0,,6,,,54,127
88096,note_off,112,0,0,,6,,,66,127
88101,note_on,5,0,0,,12,,,71,127
88212,note_off,111,0,0,,6,,,54,127
88213,note_off,1,0,0,,12,,,71,127
88218,note_on,5,0,0,,10,,,69,127
88218,note_on,0,0,0,,7,,,55,127
88330,note_off,112,0,0,,10,,,69,127
88335,note_on,5,0,0,,7,,,67,127
88446,note_off,111,0,0,,7,,,55,127
88447,note_off,1,0,0,,7,,,67,127
88451,note_on,4,0,0,,6,,,66,127
88451,note_on,0,0,0,,10,,,57,127
88563,note_off,112,0,0,,6,,,66,127
88568,note_on,5,0,0,,4,,,64,127
88680,note_off,112,0,0,,4,,,64,127
88685,note_on,5,0,0,,2,,,62,127
88685,note_on,0,0,0,,10,,,45,127
88797,note_off,112,0,0,,2,,,62,127
88797,note_off,0,0,0,,10,,,57,127
88802,note_on,5,0,0,,1,,,61,127
88913,note_off,111,0,0,,10,,,45,127
88914,note_off,1,0,0,,1,,,61,127
88919,note_on,5,0,0,,2,,,38,127
88919,note_on,0,0,0,,1,,,61,127
89031,note_off,112,0,0,,1,,,61,127
89037,note_on,6,0,0,,2,,,62,127
89146,note_off,109,0,0,,2,,,38,127
89148,note_off,2,0,0,,2,,,62,127
89154,note_on,6,0,0,,4,,,40,127
89154,note_on,0,0,0,,1,,,61,127
89266,note_off,112,0,0,,1,,,61,127
89272,note_on,6,0,0,,7,,,55,127
89381,note_off,109,0,0,,4,,,40,127
89383,note_off,2,0,0,,7,,,55,127
89388,note_on,5,0,0,,6,,,42,127
89388,note_on,0,0,0,,6,,,54,127
89500,note_off,112,0,0,,6,,,54,127
89506,note_on,6,0,0,,12,,,59,127
89615,note_off,109,0,0,,6,,,42,127
89617,note_off,2,0,0,,12,,,59,127
89622,note_on,5,0,0,,7,,,43,127
89622,note_on,0,0,0,,10,,,57,127
89734,note_off,112,0,0,,10,,,57,127
89740,note_on,6,0,0,,7,,,55,127
89849,note_off,109,0,0,,7,,,43,127
89851,note_off,2,0,0,,7,,,55,127
89857,note_on,6,0,0,,10,,,45,127
89857,note_on,0,0,0,,6,,,54,127
89969,note_off,112,0,0,,6,,,54,127
89975,note_on,6,0,0,,4,,,52,127
90087,note_off,112,0,0,,4,,,52,127
90093,note_on,6,0,0,,10,,,33,127
90093,note_on,0,0,0,,2,,,50,127
90205,note_off,112,0,0,,2,,,50,127
90211,note_on,6,0,0,,1,,,49,127
90313,note_off,102,0,0,,10,,,45,127
90320,note_off,7,0,0,,10,,,33,127
90322,note_off,2,0,0,,1,,,49,127
90350,note_on,28,0,0,,2,,,38,127
90350,note_on,0,0,0,,1,,,49,127
90895,note_off,545,0,0,,1,,,49,127
90895,note_on,0,0,0,,2,,,50,127
92829,note_off,1934,0,0,,2,,,50,127
92829,note_off,0,0,0,,2,,,38,127
98304,end_of_track,5475,1,0,,,,,,
