tick,type,time,meta,track,program,channel,pitch,tempo,note,velocity
0,copyright,0,1,0,,,,,,
0,program_change,0,0,0,6,0,,,,
0,pitchwheel,0,0,0,,0,0,,,
0,program_change,0,0,0,6,1,,,,
0,pitchwheel,0,0,0,,1,-590,,,
0,program_change,0,0,0,6,2,,,,
0,pitchwheel,0,0,0,,2,-272,,,
0,program_change,0,0,0,6,3,,,,
0,pitchwheel,0,0,0,,3,-353,,,
0,program_change,0,0,0,6,4,,,,
0,pitchwheel,0,0,0,,4,-560,,,
0,program_change,0,0,0,6,5,,,,
0,pitchwheel,0,0,0,,5,-80,,,
0,program_change,0,0,0,6,6,,,,
0,pitchwheel,0,0,0,,6,-625,,,
0,program_change,0,0,0,6,7,,,,
0,pitchwheel,0,0,0,,7,-130,,,
0,program_change,0,0,0,6,8,,,,
0,pitchwheel,0,0,0,,8,-512,,,
0,program_change,0,0,0,6,10,,,,
0,pitchwheel,0,0,0,,10,-464,,,
0,program_change,0,0,0,6,11,,,,
0,pitchwheel,0,0,0,,11,-208,,,
0,program_change,0,0,0,6,12,,,,
0,pitchwheel,0,0,0,,12,-553,,,
0,set_tempo,0,1,0,,,,500000,,
109,note_on,109,0,0,,0,,,72,127
324,note_off,215,0,0,,0,,,72,127
326,note_on,2,0,0,,4,,,76,127
432,note_off,106,0,0,,4,,,76,127
434,note_on,2,0,0,,2,,,74,127
540,note_off,106,0,0,,2,,,74,127
542,note_on,2,0,0,,4,,,76,127
757,note_off,215,0,0,,4,,,76,127
759,note_on,2,0,0,,7,,,79,127
865,note_off,106,0,0,,7,,,79,127
867,note_on,2,0,0,,5,,,77,127
973,note_off,106,0,0,,5,,,77,127
975,note_on,2,0,0,,7,,,79,127
1190,note_off,215,0,0,,7,,,79,127
1192,note_on,2,0,0,,0,,,84,127
1298,note_off,106,0,0,,0,,,84,127
1300,note_on,2,0,0,,12,,,83,127
1406,note_off,106,0,0,,12,,,83,127
1408,note_on,2,0,0,,0,,,48,127
1408,note_on,0,0,0,,0,,,84,127
1623,note_off,215,0,0,,0,,,48,127
1625,note_on,2,0,0,,4,,,52,127
1731,note_off,106,0,0,,4,,,52,127
1733,note_on,2,0,0,,2,,,50,127
1839,note_off,106,0,0,,2,,,50,127
1841,note_on,2,0,0,,4,,,52,127
2056,note_off,215,0,0,,4,,,52,127
2058,note_on,2,0,0,,7,,,55,127
2164,note_off,106,0,0,,7,,,55,127
2166,note_on,2,0,0,,5,,,53,127
2272,note_off,106,0,0,,5,,,53,127
2272,note_off,0,0,0,,0,,,84,127
2274,note_on,2,0,0,,7,,,55,127
2274,note_on,0,0,0,,7,,,79,127
2489,note_off,215,0,0,,7,,,55,127
2491,note_on,2,0,0,,0,,,60,127
2597,note_off,106,0,0,,0,,,60,127
2599,note_on,2,0,0,,12,,,59,127
2647,note_off,48,0,0,,7,,,79,127
2706,note_off,59,0,0,,12,,,59,127
2717,note_on,11,0,0,,0,,,60,127
2717,note_on,0,0,0,,10,,,81,127
2823,note_off,106,0,0,,10,,,81,127
2825,note_on,2,0,0,,7,,,79,127
2931,note_off,106,0,0,,7,,,79,127
2933,note_on,2,0,0,,5,,,77,127
3039,note_off,106,0,0,,5,,,77,127
3041,note_off,2,0,0,,0,,,60,127
3041,note_on,0,0,0,,4,,,76,127
3147,note_off,106,0,0,,4,,,76,127
3149,note_on,2,0,0,,2,,,74,127
3255,note_off,106,0,0,,2,,,74,127
3257,note_on,2,0,0,,0,,,72,127
3363,note_off,106,0,0,,0,,,72,127
3365,note_on,2,0,0,,12,,,71,127
3471,note_off,106,0,0,,12,,,71,127
3473,note_on,2,0,0,,10,,,69,127
3579,note_off,106,0,0,,10,,,69,127
3581,note_on,2,0,0,,7,,,67,127
3687,note_off,106,0,0,,7,,,67,127
3689,note_on,2,0,0,,5,,,65,127
3795,note_off,106,0,0,,5,,,65,127
3797,note_on,2,0,0,,4,,,64,127
3903,note_off,106,0,0,,4,,,64,127
3905,note_on,2,0,0,,2,,,62,127
4011,note_off,106,0,0,,2,,,62,127
4013,note_on,2,0,0,,0,,,60,127
4122,note_on,109,0,0,,10,,,57,127
4138,note_off,16,0,0,,0,,,60,127
4229,note_off,91,0,0,,10,,,57,127
4232,note_on,3,0,0,,7,,,55,127
4338,note_off,106,0,0,,7,,,55,127
4344,note_on,6,0,0,,5,,,53,127
4461,note_off,117,0,0,,5,,,53,127
4467,note_on,6,0,0,,4,,,52,127
4467,note_on,0,0,0,,0,,,60,127
4467,note_on,0,0,0,,7,,,79,127
4682,note_off,215,0,0,,7,,,79,127
4684,note_on,2,0,0,,5,,,77,127
4790,note_off,106,0,0,,5,,,77,127
4792,note_on,2,0,0,,4,,,76,127
4898,note_off,106,0,0,,4,,,76,127
4898,note_off,0,0,0,,0,,,60,127
4898,note_off,0,0,0,,4,,,52,127
4900,note_on,2,0,0,,5,,,53,127
4900,note_on,0,0,0,,2,,,62,127
4900,note_on,0,0,0,,12,,,59,127
4900,note_on,0,0,0,,2,,,74,127
5115,note_off,215,0,0,,2,,,74,127
5117,note_on,2,0,0,,0,,,72,127
5332,note_off,215,0,0,,0,,,72,127
5332,note_off,0,0,0,,12,,,59,127
5332,note_off,0,0,0,,2,,,62,127
5332,note_off,0,0,0,,5,,,53,127
5334,note_on,2,0,0,,2,,,62,127
5334,note_on,0,0,0,,5,,,53,127
5334,note_on,0,0,0,,12,,,59,127
5334,note_on,0,0,0,,0,,,72,127
5440,note_off,106,0,0,,0,,,72,127
5442,note_on,2,0,0,,12,,,71,127
5548,note_off,106,0,0,,12,,,71,127
5550,note_on,2,0,0,,10,,,69,127
5656,note_off,106,0,0,,10,,,69,127
5658,note_on,2,0,0,,7,,,67,127
5764,note_off,106,0,0,,7,,,67,127
5764,note_off,0,0,0,,12,,,59,127
5764,note_off,0,0,0,,5,,,53,127
5764,note_off,0,0,0,,2,,,62,127
5775,note_on,11,0,0,,4,,,52,127
5775,note_on,0,0,0,,0,,,60,127
5775,note_on,0,0,0,,7,,,79,127
5990,note_off,215,0,0,,7,,,79,127
5992,note_on,2,0,0,,5,,,77,127
6098,note_off,106,0,0,,5,,,77,127
6100,note_on,2,0,0,,4,,,76,127
6206,note_off,106,0,0,,4,,,76,127
6206,note_off,0,0,0,,0,,,60,127
6206,note_off,0,0,0,,4,,,52,127
6208,note_on,2,0,0,,5,,,53,127
6208,note_on,0,0,0,,2,,,62,127
6208,note_on,0,0,0,,12,,,59,127
6208,note_on,0,0,0,,2,,,74,127
6423,note_off,215,0,0,,2,,,74,127
6425,note_on,2,0,0,,0,,,72,127
6640,note_off,215,0,0,,0,,,72,127
6640,note_off,0,0,0,,12,,,59,127
6640,note_off,0,0,0,,2,,,62,127
6640,note_off,0,0,0,,5,,,53,127
6642,note_on,2,0,0,,5,,,53,127
6642,note_on,0,0,0,,12,,,59,127
6642,note_on,0,0,0,,2,,,62,127
6642,note_on,0,0,0,,0,,,72,127
6748,note_off,106,0,0,,0,,,72,127
6750,note_on,2,0,0,,12,,,71,127
6856,note_off,106,0,0,,12,,,71,127
6858,note_on,2,0,0,,10,,,69,127
6964,note_off,106,0,0,,10,,,69,127
6966,note_on,2,0,0,,7,,,67,127
7072,note_off,106,0,0,,2,,,62,127
7083,note_off,11,0,0,,7,,,67,127
7083,note_off,0,0,0,,12,,,59,127
7083,note_off,0,0,0,,5,,,53,127
7092,note_on,9,0,0,,4,,,52,127
7092,note_on,0,0,0,,0,,,60,127
7092,note_on,0,0,0,,7,,,79,127
7307,note_off,215,0,0,,7,,,79,127
7309,note_on,2,0,0,,5,,,77,127
7415,note_off,106,0,0,,5,,,77,127
7417,note_on,2,0,0,,4,,,76,127
7523,note_off,106,0,0,,4,,,76,127
7523,note_off,0,0,0,,0,,,60,127
7523,note_off,0,0,0,,4,,,52,127
7525,note_on,2,0,0,,5,,,53,127
7525,note_on,0,0,0,,2,,,62,127
7525,note_on,0,0,0,,12,,,59,127
7525,note_on,0,0,0,,2,,,74,127
7631,note_off,106,0,0,,2,,,74,127
7633,note_on,2,0,0,,0,,,72,127
7739,note_off,106,0,0,,0,,,72,127
7741,note_on,2,0,0,,12,,,71,127
7847,note_off,106,0,0,,12,,,71,127
7849,note_on,2,0,0,,10,,,69,127
7955,note_off,106,0,0,,10,,,69,127
7955,note_off,0,0,0,,12,,,59,127
7955,note_off,0,0,0,,2,,,62,127
7955,note_off,0,0,0,,5,,,53,127
7957,note_on,2,0,0,,7,,,43,127
7957,note_on,0,0,0,,7,,,55,127
7957,note_on,0,0,0,,7,,,67,127
8066,note_on,109,0,0,,6,,,78,127
8172,note_off,106,0,0,,6,,,78,127
8174,note_on,2,0,0,,7,,,79,127
8274,note_off,100,0,0,,7,,,67,127
8283,note_on,9,0,0,,2,,,74,127
8389,note_off,106,0,0,,2,,,74,127
8391,note_on,2,0,0,,4,,,76,127
8497,note_off,106,0,0,,4,,,76,127
8499,note_on,2,0,0,,0,,,72,127
8603,note_off,104,0,0,,7,,,79,127
8605,note_off,2,0,0,,0,,,72,127
8607,note_on,2,0,0,,2,,,74,127
8713,note_off,106,0,0,,2,,,74,127
8715,note_on,2,0,0,,12,,,71,127
8821,note_off,106,0,0,,12,,,71,127
8823,note_on,2,0,0,,0,,,72,127
8929,note_off,106,0,0,,0,,,72,127
8931,note_on,2,0,0,,10,,,69,127
9037,note_off,106,0,0,,10,,,69,127
9039,note_on,2,0,0,,2,,,74,127
9148,note_on,109,0,0,,6,,,66,127
9198,note_off,50,0,0,,2,,,74,127
9255,note_off,57,0,0,,6,,,66,127
9257,note_off,2,0,0,,7,,,55,127
9257,note_off,0,0,0,,7,,,43,127
9257,note_on,0,0,0,,7,,,67,127
9363,note_off,106,0,0,,7,,,67,127
9365,note_on,2,0,0,,6,,,66,127
9471,note_off,106,0,0,,6,,,66,127
9473,note_on,2,0,0,,7,,,67,127
9582,note_on,109,0,0,,2,,,62,127
9688,note_off,106,0,0,,2,,,62,127
9690,note_on,2,0,0,,4,,,64,127
9796,note_off,106,0,0,,4,,,64,127
9798,note_on,2,0,0,,0,,,60,127
9904,note_off,106,0,0,,0,,,60,127
9906,note_on,2,0,0,,2,,,62,127
10012,note_off,106,0,0,,2,,,62,127
10014,note_on,2,0,0,,12,,,59,127
10120,note_off,106,0,0,,12,,,59,127
10122,note_on,2,0,0,,0,,,60,127
10228,note_off,106,0,0,,0,,,60,127
10230,note_on,2,0,0,,10,,,57,127
10336,note_off,106,0,0,,10,,,57,127
10338,note_on,2,0,0,,2,,,62,127
10444,note_off,106,0,0,,2,,,62,127
10446,note_on,2,0,0,,6,,,54,127
10552,note_off,106,0,0,,6,,,54,127
10554,note_off,2,0,0,,7,,,67,127
10554,note_on,0,0,0,,7,,,55,127
10660,note_off,106,0,0,,7,,,55,127
10662,note_on,2,0,0,,6,,,54,127
10768,note_off,106,0,0,,6,,,54,127
10770,note_on,2,0,0,,7,,,55,127
10879,note_on,109,0,0,,2,,,50,127
10985,note_off,106,0,0,,2,,,50,127
10987,note_on,2,0,0,,4,,,52,127
11093,note_off,106,0,0,,4,,,52,127
11095,note_on,2,0,0,,0,,,48,127
11201,note_off,106,0,0,,0,,,48,127
11203,note_on,2,0,0,,2,,,50,127
11309,note_off,106,0,0,,2,,,50,127
11311,note_on,2,0,0,,12,,,47,127
11417,note_off,106,0,0,,12,,,47,127
11419,note_on,2,0,0,,0,,,48,127
11525,note_off,106,0,0,,0,,,48,127
11527,note_on,2,0,0,,10,,,45,127
11633,note_off,106,0,0,,10,,,45,127
11635,note_on,2,0,0,,2,,,50,127
11741,note_off,106,0,0,,2,,,50,127
11743,note_on,2,0,0,,6,,,42,127
11849,note_off,106,0,0,,6,,,42,127
11851,note_off,2,0,0,,7,,,55,127
11858,note_on,7,0,0,,7,,,43,127
12098,note_on,240,0,0,,2,,,74,127
12306,note_off,208,0,0,,2,,,74,127
12313,note_on,7,0,0,,2,,,74,127
12313,note_on,0,0,0,,7,,,55,127
12528,note_off,215,0,0,,2,,,74,127
12530,note_on,2,0,0,,2,,,74,127
12726,note_off,196,0,0,,7,,,43,127
12745,note_off,19,0,0,,2,,,74,127
12745,note_off,0,0,0,,7,,,55,127
12747,note_on,2,0,0,,4,,,76,127
12747,note_on,0,0,0,,7,,,55,127
12817,note_off,70,0,0,,4,,,76,127
12819,note_on,2,0,0,,2,,,74,127
12889,note_off,70,0,0,,2,,,74,127
12891,note_on,2,0,0,,4,,,76,127
12961,note_off,70,0,0,,4,,,76,127
12963,note_on,2,0,0,,2,,,74,127
13033,note_off,70,0,0,,2,,,74,127
13035,note_on,2,0,0,,1,,,73,127
13105,note_off,70,0,0,,1,,,73,127
13107,note_on,2,0,0,,2,,,74,127
13177,note_off,70,0,0,,2,,,74,127
13177,note_off,0,0,0,,7,,,55,127
13179,note_on,2,0,0,,10,,,81,127
13179,note_on,0,0,0,,2,,,62,127
13179,note_on,0,0,0,,0,,,60,127
13179,note_on,0,0,0,,6,,,54,127
13394,note_off,215,0,0,,10,,,81,127
13396,note_on,2,0,0,,6,,,78,127
13611,note_off,215,0,0,,6,,,78,127
13611,note_off,0,0,0,,6,,,54,127
13611,note_off,0,0,0,,0,,,60,127
13611,note_off,0,0,0,,2,,,62,127
13613,note_on,2,0,0,,4,,,76,127
13613,note_on,0,0,0,,2,,,62,127
13613,note_on,0,0,0,,0,,,60,127
13613,note_on,0,0,0,,6,,,54,127
13828,note_off,215,0,0,,4,,,76,127
13830,note_on,2,0,0,,2,,,74,127
14045,note_off,215,0,0,,6,,,54,127
14045,note_off,0,0,0,,0,,,60,127
14045,note_off,0,0,0,,2,,,62,127
14047,note_on,2,0,0,,2,,,62,127
14047,note_on,0,0,0,,6,,,54,127
14047,note_on,0,0,0,,0,,,60,127
14262,note_off,215,0,0,,2,,,74,127
14264,note_on,2,0,0,,0,,,72,127
14479,note_off,215,0,0,,0,,,72,127
14479,note_off,0,0,0,,0,,,60,127
14479,note_off,0,0,0,,6,,,54,127
14479,note_off,0,0,0,,2,,,62,127
14481,note_on,2,0,0,,7,,,55,127
14481,note_on,0,0,0,,2,,,62,127
14481,note_on,0,0,0,,12,,,71,127
14697,note_off,216,0,0,,12,,,71,127
14707,note_on,10,0,0,,2,,,74,127
14911,note_off,204,0,0,,2,,,62,127
14913,note_off,2,0,0,,7,,,55,127
14922,note_off,9,0,0,,2,,,74,127
14924,note_on,2,0,0,,2,,,62,127
14924,note_on,0,0,0,,7,,,55,127
14924,note_on,0,0,0,,2,,,74,127
15139,note_off,215,0,0,,2,,,74,127
15141,note_on,2,0,0,,2,,,74,127
15356,note_off,215,0,0,,2,,,74,127
15356,note_off,0,0,0,,7,,,55,127
15356,note_off,0,0,0,,2,,,62,127
15358,note_on,2,0,0,,7,,,55,127
15358,note_on,0,0,0,,2,,,62,127
15358,note_on,0,0,0,,4,,,76,127
15428,note_off,70,0,0,,4,,,76,127
15430,note_on,2,0,0,,2,,,74,127
15500,note_off,70,0,0,,2,,,74,127
15502,note_on,2,0,0,,4,,,76,127
15572,note_off,70,0,0,,4,,,76,127
15574,note_on,2,0,0,,2,,,74,127
15644,note_off,70,0,0,,2,,,74,127
15646,note_on,2,0,0,,1,,,73,127
15716,note_off,70,0,0,,1,,,73,127
15718,note_on,2,0,0,,2,,,74,127
15788,note_off,70,0,0,,2,,,74,127
15788,note_off,0,0,0,,2,,,62,127
15788,note_off,0,0,0,,7,,,55,127
15790,note_on,2,0,0,,6,,,54,127
15790,note_on,0,0,0,,0,,,60,127
15790,note_on,0,0,0,,2,,,62,127
15790,note_on,0,0,0,,10,,,81,127
16005,note_off,215,0,0,,10,,,81,127
16007,note_on,2,0,0,,6,,,78,127
16222,note_off,215,0,0,,6,,,78,127
16222,note_off,0,0,0,,2,,,62,127
16222,note_off,0,0,0,,0,,,60,127
16222,note_off,0,0,0,,6,,,54,127
16224,note_on,2,0,0,,6,,,54,127
16224,note_on,0,0,0,,0,,,60,127
16224,note_on,0,0,0,,2,,,62,127
16224,note_on,0,0,0,,4,,,76,127
16439,note_off,215,0,0,,4,,,76,127
16441,note_on,2,0,0,,2,,,74,127
16656,note_off,215,0,0,,2,,,62,127
16656,note_off,0,0,0,,0,,,60,127
16656,note_off,0,0,0,,6,,,54,127
16658,note_on,2,0,0,,6,,,54,127
16658,note_on,0,0,0,,0,,,60,127
16658,note_on,0,0,0,,2,,,62,127
16873,note_off,215,0,0,,2,,,74,127
16875,note_on,2,0,0,,0,,,72,127
17090,note_off,215,0,0,,0,,,72,127
17090,note_off,0,0,0,,2,,,62,127
17090,note_off,0,0,0,,0,,,60,127
17090,note_off,0,0,0,,6,,,54,127
17092,note_on,2,0,0,,7,,,55,127
17092,note_on,0,0,0,,2,,,62,127
17092,note_on,0,0,0,,12,,,71,127
17307,note_off,215,0,0,,12,,,71,127
17309,note_on,2,0,0,,2,,,74,127
17524,note_off,215,0,0,,2,,,74,127
17524,note_off,0,0,0,,2,,,62,127
17524,note_off,0,0,0,,7,,,55,127
17526,note_on,2,0,0,,2,,,62,127
17526,note_on,0,0,0,,7,,,55,127
17526,note_on,0,0,0,,2,,,74,127
17741,note_off,215,0,0,,2,,,74,127
17741,note_off,0,0,0,,7,,,55,127
17743,note_on,2,0,0,,2,,,74,127
17852,note_off,109,0,0,,2,,,62,127
17958,note_off,106,0,0,,2,,,74,127
17960,note_on,2,0,0,,7,,,55,127
17960,note_on,0,0,0,,2,,,62,127
17960,note_on,0,0,0,,5,,,77,127
18175,note_off,215,0,0,,5,,,77,127
18177,note_on,2,0,0,,3,,,75,127
18390,note_off,213,0,0,,2,,,62,127
18390,note_off,0,0,0,,7,,,55,127
18392,note_off,2,0,0,,3,,,75,127
18394,note_on,2,0,0,,8,,,56,127
18394,note_on,0,0,0,,5,,,65,127
18394,note_on,0,0,0,,5,,,77,127
18500,note_off,106,0,0,,5,,,77,127
18502,note_on,2,0,0,,3,,,75,127
18608,note_off,106,0,0,,3,,,75,127
18610,note_on,2,0,0,,2,,,74,127
18716,note_off,106,0,0,,2,,,74,127
18718,note_on,2,0,0,,0,,,72,127
18824,note_off,106,0,0,,0,,,72,127
18824,note_off,0,0,0,,5,,,65,127
18824,note_off,0,0,0,,8,,,56,127
18826,note_on,2,0,0,,8,,,56,127
18826,note_on,0,0,0,,5,,,65,127
18826,note_on,0,0,0,,3,,,75,127
19041,note_off,215,0,0,,3,,,75,127
19041,note_off,0,0,0,,8,,,56,127
19043,note_on,2,0,0,,3,,,75,127
19152,note_off,109,0,0,,5,,,65,127
19258,note_off,106,0,0,,3,,,75,127
19260,note_on,2,0,0,,10,,,57,127
19260,note_on,0,0,0,,5,,,65,127
19260,note_on,0,0,0,,7,,,79,127
19475,note_off,215,0,0,,7,,,79,127
19477,note_on,2,0,0,,5,,,77,127
19690,note_off,213,0,0,,5,,,65,127
19690,note_off,0,0,0,,10,,,57,127
19692,note_off,2,0,0,,5,,,77,127
19694,note_on,2,0,0,,11,,,58,127
19694,note_on,0,0,0,,5,,,65,127
19694,note_on,0,0,0,,7,,,79,127
19800,note_off,106,0,0,,7,,,79,127
19802,note_on,2,0,0,,5,,,77,127
19908,note_off,106,0,0,,5,,,77,127
19910,note_on,2,0,0,,3,,,75,127
20016,note_off,106,0,0,,3,,,75,127
20018,note_on,2,0,0,,2,,,74,127
20124,note_off,106,0,0,,2,,,74,127
20124,note_off,0,0,0,,5,,,65,127
20124,note_off,0,0,0,,11,,,58,127
20126,note_on,2,0,0,,5,,,65,127
20126,note_on,0,0,0,,11,,,58,127
20126,note_on,0,0,0,,5,,,77,127
20341,note_off,215,0,0,,5,,,77,127
20341,note_off,0,0,0,,11,,,58,127
20343,note_on,2,0,0,,5,,,77,127
20452,note_off,109,0,0,,5,,,65,127
20558,note_off,106,0,0,,5,,,77,127
20560,note_on,2,0,0,,12,,,59,127
20560,note_on,0,0,0,,7,,,67,127
20560,note_on,0,0,0,,8,,,80,127
20775,note_off,215,0,0,,8,,,80,127
20777,note_on,2,0,0,,7,,,79,127
20992,note_off,215,0,0,,7,,,79,127
20992,note_off,0,0,0,,7,,,67,127
20992,note_off,0,0,0,,12,,,59,127
20994,note_on,2,0,0,,7,,,67,127
20994,note_on,0,0,0,,0,,,60,127
20994,note_on,0,0,0,,8,,,80,127
21100,note_off,106,0,0,,8,,,80,127
21102,note_on,2,0,0,,7,,,79,127
21208,note_off,106,0,0,,7,,,79,127
21210,note_on,2,0,0,,5,,,77,127
21316,note_off,106,0,0,,5,,,77,127
21318,note_on,2,0,0,,3,,,75,127
21424,note_off,106,0,0,,3,,,75,127
21424,note_off,0,0,0,,0,,,60,127
21424,note_off,0,0,0,,7,,,67,127
21426,note_on,2,0,0,,7,,,67,127
21426,note_on,0,0,0,,0,,,60,127
21426,note_on,0,0,0,,7,,,79,127
21641,note_off,215,0,0,,7,,,79,127
21643,note_on,2,0,0,,10,,,81,127
21749,note_off,106,0,0,,10,,,81,127
21751,note_on,2,0,0,,11,,,82,127
21857,note_off,106,0,0,,11,,,82,127
21857,note_off,0,0,0,,0,,,60,127
21857,note_off,0,0,0,,7,,,67,127
21859,note_on,2,0,0,,1,,,61,127
21859,note_on,0,0,0,,7,,,67,127
21859,note_on,0,0,0,,10,,,81,127
22074,note_off,215,0,0,,10,,,81,127
22076,note_on,2,0,0,,7,,,79,127
22291,note_off,215,0,0,,7,,,79,127
22291,note_off,0,0,0,,7,,,67,127
22291,note_off,0,0,0,,1,,,61,127
22293,note_on,2,0,0,,2,,,62,127
22293,note_on,0,0,0,,6,,,78,127
22399,note_off,106,0,0,,6,,,78,127
22401,note_on,2,0,0,,7,,,79,127
22507,note_off,106,0,0,,7,,,79,127
22509,note_on,2,0,0,,10,,,81,127
22615,note_off,106,0,0,,10,,,81,127
22617,note_on,2,0,0,,2,,,74,127
22723,note_off,106,0,0,,2,,,74,127
22725,note_on,2,0,0,,3,,,75,127
22831,note_off,106,0,0,,3,,,75,127
22833,note_on,2,0,0,,5,,,77,127
22939,note_off,106,0,0,,5,,,77,127
22941,note_on,2,0,0,,7,,,79,127
23047,note_off,106,0,0,,7,,,79,127
23049,note_on,2,0,0,,10,,,69,127
23155,note_off,106,0,0,,10,,,69,127
23156,note_off,1,0,0,,2,,,62,127
23157,note_on,1,0,0,,11,,,70,127
23263,note_off,106,0,0,,11,,,70,127
23265,note_on,2,0,0,,0,,,72,127
23371,note_off,106,0,0,,0,,,72,127
23373,note_on,2,0,0,,2,,,74,127
23479,note_off,106,0,0,,2,,,74,127
23481,note_on,2,0,0,,7,,,67,127
23587,note_off,106,0,0,,7,,,67,127
23589,note_on,2,0,0,,6,,,66,127
23698,note_on,109,0,0,,2,,,62,127
23725,note_off,27,0,0,,6,,,66,127
23804,note_off,79,0,0,,2,,,62,127
23806,note_on,2,0,0,,3,,,63,127
23912,note_off,106,0,0,,3,,,63,127
23914,note_on,2,0,0,,1,,,61,127
24020,note_off,106,0,0,,1,,,61,127
24022,note_on,2,0,0,,2,,,62,127
24128,note_off,106,0,0,,2,,,62,127
24130,note_on,2,0,0,,10,,,57,127
24236,note_off,106,0,0,,10,,,57,127
24238,note_on,2,0,0,,11,,,58,127
24344,note_off,106,0,0,,11,,,58,127
24346,note_on,2,0,0,,6,,,54,127
24452,note_off,106,0,0,,6,,,54,127
24454,note_on,2,0,0,,7,,,55,127
24560,note_off,106,0,0,,7,,,55,127
24562,note_on,2,0,0,,2,,,50,127
24668,note_off,106,0,0,,2,,,50,127
24670,note_on,2,0,0,,3,,,51,127
24776,note_off,106,0,0,,3,,,51,127
24778,note_on,2,0,0,,1,,,49,127
24884,note_off,106,0,0,,1,,,49,127
24886,note_on,2,0,0,,2,,,50,127
24995,note_on,109,0,0,,10,,,45,127
25017,note_off,22,0,0,,2,,,50,127
25102,note_off,85,0,0,,10,,,45,127
25104,note_on,2,0,0,,11,,,46,127
25210,note_off,106,0,0,,11,,,46,127
25212,note_on,2,0,0,,6,,,42,127
25318,note_off,106,0,0,,6,,,42,127
25320,note_on,2,0,0,,7,,,43,127
25535,note_off,215,0,0,,7,,,43,127
25537,note_on,2,0,0,,5,,,41,127
25752,note_off,215,0,0,,5,,,41,127
25754,note_on,2,0,0,,5,,,41,127
25824,note_off,70,0,0,,5,,,41,127
25826,note_on,2,0,0,,3,,,39,127
25896,note_off,70,0,0,,3,,,39,127
25898,note_on,2,0,0,,5,,,41,127
25968,note_off,70,0,0,,5,,,41,127
25970,note_on,2,0,0,,3,,,39,127
26040,note_off,70,0,0,,3,,,39,127
26042,note_on,2,0,0,,2,,,38,127
26112,note_off,70,0,0,,2,,,38,127
26114,note_on,2,0,0,,3,,,39,127
26184,note_off,70,0,0,,3,,,39,127
26193,note_on,9,0,0,,2,,,38,127
26442,note_on,249,0,0,,2,,,74,127
26664,note_off,222,0,0,,2,,,74,127
26675,note_on,11,0,0,,2,,,50,127
26675,note_on,0,0,0,,2,,,74,127
26713,note_off,38,0,0,,2,,,38,127
26890,note_off,177,0,0,,2,,,74,127
26892,note_on,2,0,0,,2,,,74,127
27107,note_off,215,0,0,,2,,,74,127
27109,note_on,2,0,0,,2,,,62,127
27109,note_on,0,0,0,,2,,,74,127
27324,note_off,215,0,0,,2,,,74,127
27326,note_on,2,0,0,,2,,,74,127
27541,note_off,215,0,0,,2,,,74,127
27541,note_off,0,0,0,,2,,,62,127
27542,note_off,1,0,0,,2,,,50,127
27543,note_on,1,0,0,,2,,,50,127
27543,note_on,0,0,0,,2,,,62,127
27543,note_on,0,0,0,,5,,,77,127
27613,note_off,70,0,0,,5,,,77,127
27615,note_on,2,0,0,,3,,,75,127
27685,note_off,70,0,0,,3,,,75,127
27687,note_on,2,0,0,,5,,,77,127
27757,note_off,70,0,0,,5,,,77,127
27759,note_on,2,0,0,,3,,,75,127
27829,note_off,70,0,0,,3,,,75,127
27831,note_on,2,0,0,,5,,,77,127
27901,note_off,70,0,0,,5,,,77,127
27903,note_on,2,0,0,,3,,,75,127
27973,note_off,70,0,0,,3,,,75,127
27973,note_off,0,0,0,,2,,,62,127
27975,note_on,2,0,0,,0,,,60,127
27975,note_on,0,0,0,,5,,,77,127
28045,note_off,70,0,0,,5,,,77,127
28047,note_on,2,0,0,,3,,,75,127
28117,note_off,70,0,0,,3,,,75,127
28119,note_on,2,0,0,,5,,,77,127
28189,note_off,70,0,0,,5,,,77,127
28189,note_off,0,0,0,,0,,,60,127
28191,note_on,2,0,0,,11,,,58,127
28191,note_on,0,0,0,,3,,,75,127
28261,note_off,70,0,0,,3,,,75,127
28263,note_on,2,0,0,,2,,,74,127
28333,note_off,70,0,0,,2,,,74,127
28335,note_on,2,0,0,,3,,,75,127
28405,note_off,70,0,0,,11,,,58,127
28406,note_off,1,0,0,,2,,,50,127
28407,note_on,1,0,0,,0,,,60,127
28407,note_on,0,0,0,,2,,,50,127
28407,note_on,0,0,0,,0,,,84,127
28622,note_off,215,0,0,,0,,,84,127
28624,note_on,2,0,0,,11,,,82,127
28730,note_off,106,0,0,,11,,,82,127
28732,note_on,2,0,0,,10,,,81,127
28838,note_off,106,0,0,,10,,,81,127
28838,note_off,0,0,0,,2,,,50,127
28838,note_off,0,0,0,,0,,,60,127
28840,note_on,2,0,0,,0,,,60,127
28840,note_on,0,0,0,,2,,,50,127
28840,note_on,0,0,0,,7,,,79,127
29272,note_off,432,0,0,,7,,,79,127
29272,note_off,0,0,0,,0,,,60,127
29274,note_on,2,0,0,,11,,,58,127
29274,note_on,0,0,0,,6,,,78,127
29489,note_off,215,0,0,,11,,,58,127
29491,note_on,2,0,0,,10,,,57,127
29699,note_off,208,0,0,,3,,,75,127
29706,note_off,7,0,0,,10,,,57,127
29706,note_off,0,0,0,,6,,,78,127
29707,note_off,1,0,0,,2,,,50,127
29708,note_on,1,0,0,,2,,,50,127
29708,note_on,0,0,0,,11,,,58,127
29708,note_on,0,0,0,,2,,,74,127
29708,note_on,0,0,0,,7,,,79,127
30138,note_off,430,0,0,,2,,,50,127
30140,note_off,2,0,0,,11,,,58,127
30165,note_on,25,0,0,,11,,,58,127
30165,note_on,0,0,0,,1,,,49,127
30251,note_off,86,0,0,,7,,,79,127
30251,note_off,0,0,0,,2,,,74,127
30391,note_on,140,0,0,,10,,,81,127
30497,note_off,106,0,0,,10,,,81,127
30499,note_on,2,0,0,,11,,,82,127
30596,note_off,97,0,0,,1,,,49,127
30596,note_off,0,0,0,,11,,,58,127
30605,note_off,9,0,0,,11,,,82,127
30607,note_on,2,0,0,,1,,,49,127
30607,note_on,0,0,0,,11,,,58,127
30607,note_on,0,0,0,,0,,,84,127
30677,note_off,70,0,0,,0,,,84,127
30679,note_on,2,0,0,,11,,,82,127
30749,note_off,70,0,0,,11,,,82,127
30751,note_on,2,0,0,,0,,,84,127
30821,note_off,70,0,0,,0,,,84,127
30823,note_on,2,0,0,,11,,,82,127
30893,note_off,70,0,0,,11,,,82,127
30895,note_on,2,0,0,,0,,,84,127
30965,note_off,70,0,0,,0,,,84,127
30967,note_on,2,0,0,,11,,,82,127
31037,note_off,70,0,0,,11,,,82,127
31037,note_off,0,0,0,,11,,,58,127
31037,note_off,0,0,0,,1,,,49,127
31039,note_on,2,0,0,,1,,,49,127
31039,note_on,0,0,0,,11,,,58,127
31039,note_on,0,0,0,,0,,,84,127
31109,note_off,70,0,0,,0,,,84,127
31111,note_on,2,0,0,,11,,,82,127
31181,note_off,70,0,0,,11,,,82,127
31183,note_on,2,0,0,,0,,,84,127
31253,note_off,70,0,0,,0,,,84,127
31255,note_on,2,0,0,,11,,,82,127
31325,note_off,70,0,0,,11,,,82,127
31327,note_on,2,0,0,,10,,,81,127
31397,note_off,70,0,0,,10,,,81,127
31399,note_on,2,0,0,,7,,,79,127
31469,note_off,70,0,0,,7,,,79,127
31469,note_off,0,0,0,,11,,,58,127
31469,note_off,0,0,0,,1,,,49,127
31471,note_on,2,0,0,,2,,,50,127
31471,note_on,0,0,0,,7,,,79,127
31577,note_off,106,0,0,,7,,,79,127
31579,note_on,2,0,0,,6,,,78,127
31685,note_off,106,0,0,,6,,,78,127
31687,note_on,2,0,0,,4,,,76,127
31793,note_off,106,0,0,,4,,,76,127
31795,note_on,2,0,0,,2,,,74,127
31901,note_off,106,0,0,,2,,,74,127
31901,note_off,0,0,0,,2,,,50,127
31912,note_on,11,0,0,,2,,,62,127
31912,note_on,0,0,0,,2,,,86,127
31912,note_on,0,0,0,,2,,,74,127
32018,note_off,106,0,0,,2,,,62,127
32020,note_on,2,0,0,,0,,,60,127
32126,note_off,106,0,0,,0,,,60,127
32128,note_on,2,0,0,,11,,,58,127
32234,note_off,106,0,0,,11,,,58,127
32236,note_on,2,0,0,,10,,,57,127
32342,note_off,106,0,0,,10,,,57,127
32342,note_off,0,0,0,,2,,,74,127
32342,note_off,0,0,0,,2,,,86,127
32344,note_on,2,0,0,,7,,,55,127
32344,note_on,0,0,0,,2,,,74,127
32344,note_on,0,0,0,,2,,,86,127
32450,note_off,106,0,0,,7,,,55,127
32452,note_on,2,0,0,,5,,,53,127
32558,note_off,106,0,0,,5,,,53,127
32560,note_on,2,0,0,,3,,,51,127
32666,note_off,106,0,0,,3,,,51,127
32668,note_on,2,0,0,,2,,,50,127
32774,note_off,106,0,0,,2,,,50,127
32774,note_off,0,0,0,,2,,,86,127
32774,note_off,0,0,0,,2,,,74,127
32776,note_on,2,0,0,,0,,,48,127
32776,note_on,0,0,0,,2,,,86,127
32776,note_on,0,0,0,,3,,,75,127
32991,note_off,215,0,0,,2,,,86,127
32993,note_on,2,0,0,,0,,,84,127
33206,note_off,213,0,0,,3,,,75,127
33208,note_off,2,0,0,,0,,,84,127
33208,note_off,0,0,0,,0,,,48,127
33210,note_on,2,0,0,,0,,,60,127
33210,note_on,0,0,0,,0,,,48,127
33210,note_on,0,0,0,,3,,,75,127
33210,note_on,0,0,0,,0,,,84,127
33316,note_off,106,0,0,,0,,,84,127
33318,note_on,2,0,0,,11,,,82,127
33424,note_off,106,0,0,,11,,,82,127
33426,note_on,2,0,0,,11,,,82,127
33532,note_off,106,0,0,,11,,,82,127
33534,note_on,2,0,0,,10,,,81,127
33638,note_off,104,0,0,,3,,,75,127
33640,note_off,2,0,0,,10,,,81,127
33640,note_off,0,0,0,,0,,,48,127
33640,note_off,0,0,0,,0,,,60,127
33642,note_on,2,0,0,,0,,,48,127
33642,note_on,0,0,0,,0,,,60,127
33642,note_on,0,0,0,,0,,,72,127
33642,note_on,0,0,0,,10,,,81,127
33748,note_off,106,0,0,,10,,,81,127
33750,note_on,2,0,0,,7,,,79,127
33856,note_off,106,0,0,,7,,,79,127
33858,note_on,2,0,0,,6,,,78,127
33964,note_off,106,0,0,,6,,,78,127
33966,note_on,2,0,0,,7,,,79,127
34070,note_off,104,0,0,,0,,,72,127
34072,note_off,2,0,0,,7,,,79,127
34072,note_off,0,0,0,,0,,,60,127
34072,note_off,0,0,0,,0,,,48,127
34074,note_on,2,0,0,,0,,,60,127
34074,note_on,0,0,0,,2,,,50,127
34074,note_on,0,0,0,,0,,,72,127
34074,note_on,0,0,0,,7,,,79,127
34289,note_off,215,0,0,,7,,,79,127
34291,note_on,2,0,0,,6,,,78,127
34504,note_off,213,0,0,,0,,,72,127
34506,note_off,2,0,0,,6,,,78,127
34506,note_off,0,0,0,,2,,,50,127
34506,note_off,0,0,0,,0,,,60,127
34508,note_on,2,0,0,,2,,,50,127
34508,note_on,0,0,0,,0,,,60,127
34508,note_on,0,0,0,,3,,,75,127
34508,note_on,0,0,0,,6,,,78,127
34614,note_off,106,0,0,,3,,,75,127
34616,note_on,2,0,0,,2,,,74,127
34722,note_off,106,0,0,,2,,,74,127
34724,note_on,2,0,0,,2,,,74,127
34830,note_off,106,0,0,,2,,,74,127
34832,note_on,2,0,0,,0,,,72,127
34936,note_off,104,0,0,,6,,,78,127
34938,note_off,2,0,0,,0,,,72,127
34938,note_off,0,0,0,,0,,,60,127
34938,note_off,0,0,0,,2,,,50,127
34940,note_on,2,0,0,,3,,,51,127
34940,note_on,0,0,0,,0,,,72,127
34940,note_on,0,0,0,,7,,,79,127
35046,note_off,106,0,0,,0,,,72,127
35048,note_on,2,0,0,,11,,,70,127
35154,note_off,106,0,0,,11,,,70,127
35156,note_on,2,0,0,,10,,,69,127
35262,note_off,106,0,0,,10,,,69,127
35264,note_on,2,0,0,,7,,,67,127
35368,note_off,104,0,0,,7,,,79,127
35370,note_off,2,0,0,,7,,,67,127
35370,note_off,0,0,0,,3,,,51,127
35372,note_on,2,0,0,,0,,,48,127
35372,note_on,0,0,0,,0,,,60,127
35372,note_on,0,0,0,,7,,,55,127
35372,note_on,0,0,0,,7,,,67,127
35478,note_off,106,0,0,,7,,,67,127
35480,note_on,2,0,0,,10,,,69,127
35586,note_off,106,0,0,,10,,,69,127
35588,note_on,2,0,0,,11,,,70,127
35694,note_off,106,0,0,,11,,,70,127
35696,note_on,2,0,0,,0,,,72,127
35802,note_off,106,0,0,,0,,,72,127
35802,note_off,0,0,0,,7,,,55,127
35802,note_off,0,0,0,,0,,,60,127
35802,note_off,0,0,0,,0,,,48,127
35804,note_on,2,0,0,,11,,,58,127
35804,note_on,0,0,0,,7,,,55,127
35804,note_on,0,0,0,,2,,,50,127
35804,note_on,0,0,0,,0,,,72,127
35910,note_off,106,0,0,,0,,,72,127
35912,note_on,2,0,0,,11,,,70,127
36018,note_off,106,0,0,,11,,,70,127
36020,note_on,2,0,0,,10,,,69,127
36126,note_off,106,0,0,,10,,,69,127
36128,note_on,2,0,0,,7,,,67,127
36234,note_off,106,0,0,,7,,,67,127
36234,note_off,0,0,0,,2,,,50,127
36234,note_off,0,0,0,,7,,,55,127
36234,note_off,0,0,0,,11,,,58,127
36236,note_on,2,0,0,,2,,,50,127
36236,note_on,0,0,0,,10,,,57,127
36236,note_on,0,0,0,,11,,,70,127
36342,note_off,106,0,0,,11,,,70,127
36344,note_on,2,0,0,,10,,,69,127
36450,note_off,106,0,0,,10,,,69,127
36452,note_on,2,0,0,,7,,,67,127
36558,note_off,106,0,0,,7,,,67,127
36560,note_on,2,0,0,,6,,,66,127
36666,note_off,106,0,0,,6,,,66,127
36666,note_off,0,0,0,,10,,,57,127
36666,note_off,0,0,0,,2,,,50,127
36668,note_on,2,0,0,,7,,,55,127
36668,note_on,0,0,0,,7,,,67,127
36913,note_on,245,0,0,,2,,,74,127
36919,note_off,6,0,0,,7,,,67,127
37101,note_off,182,0,0,,7,,,55,127
37128,note_off,27,0,0,,2,,,74,127
37130,note_on,2,0,0,,2,,,74,127
37130,note_on,0,0,0,,2,,,50,127
37345,note_off,215,0,0,,2,,,74,127
37347,note_on,2,0,0,,2,,,74,127
37562,note_off,215,0,0,,2,,,74,127
37564,note_on,2,0,0,,2,,,74,127
37564,note_on,0,0,0,,2,,,62,127
37779,note_off,215,0,0,,2,,,74,127
37781,note_on,2,0,0,,2,,,74,127
37996,note_off,215,0,0,,2,,,74,127
37996,note_off,0,0,0,,2,,,62,127
37997,note_off,1,0,0,,2,,,50,127
37998,note_on,1,0,0,,5,,,77,127
37998,note_on,0,0,0,,2,,,50,127
37998,note_on,0,0,0,,2,,,62,127
38068,note_off,70,0,0,,5,,,77,127
38070,note_on,2,0,0,,3,,,75,127
38140,note_off,70,0,0,,3,,,75,127
38142,note_on,2,0,0,,5,,,77,127
38212,note_off,70,0,0,,5,,,77,127
38214,note_on,2,0,0,,3,,,75,127
38284,note_off,70,0,0,,3,,,75,127
38286,note_on,2,0,0,,5,,,77,127
38356,note_off,70,0,0,,5,,,77,127
38358,note_on,2,0,0,,3,,,75,127
38428,note_off,70,0,0,,3,,,75,127
38428,note_off,0,0,0,,2,,,62,127
38430,note_on,2,0,0,,5,,,77,127
38430,note_on,0,0,0,,0,,,60,127
38500,note_off,70,0,0,,5,,,77,127
38502,note_on,2,0,0,,3,,,75,127
38572,note_off,70,0,0,,3,,,75,127
38574,note_on,2,0,0,,5,,,77,127
38644,note_off,70,0,0,,5,,,77,127
38644,note_off,0,0,0,,0,,,60,127
38646,note_on,2,0,0,,3,,,75,127
38646,note_on,0,0,0,,11,,,58,127
38716,note_off,70,0,0,,3,,,75,127
38718,note_on,2,0,0,,2,,,74,127
38788,note_off,70,0,0,,2,,,74,127
38790,note_on,2,0,0,,3,,,75,127
38860,note_off,70,0,0,,11,,,58,127
38861,note_off,1,0,0,,2,,,50,127
38862,note_on,1,0,0,,0,,,84,127
38862,note_on,0,0,0,,0,,,60,127
38862,note_on,0,0,0,,2,,,50,127
39077,note_off,215,0,0,,0,,,84,127
39079,note_on,2,0,0,,11,,,82,127
39185,note_off,106,0,0,,11,,,82,127
39187,note_on,2,0,0,,10,,,81,127
39293,note_off,106,0,0,,10,,,81,127
39293,note_off,0,0,0,,2,,,50,127
39293,note_off,0,0,0,,0,,,60,127
39295,note_on,2,0,0,,7,,,79,127
39295,note_on,0,0,0,,0,,,60,127
39295,note_on,0,0,0,,2,,,50,127
39727,note_off,432,0,0,,0,,,60,127
39727,note_off,0,0,0,,7,,,79,127
39729,note_on,2,0,0,,6,,,78,127
39729,note_on,0,0,0,,11,,,58,127
39944,note_off,215,0,0,,11,,,58,127
39946,note_on,2,0,0,,10,,,57,127
40154,note_off,208,0,0,,3,,,75,127
40161,note_off,7,0,0,,10,,,57,127
40161,note_off,0,0,0,,6,,,78,127
40162,note_off,1,0,0,,2,,,50,127
40163,note_on,1,0,0,,7,,,79,127
40163,note_on,0,0,0,,2,,,74,127
40163,note_on,0,0,0,,11,,,58,127
40163,note_on,0,0,0,,2,,,50,127
40593,note_off,430,0,0,,7,,,79,127
40595,note_off,2,0,0,,2,,,50,127
40595,note_off,0,0,0,,11,,,58,127
40604,note_off,9,0,0,,2,,,74,127
40619,note_on,15,0,0,,11,,,58,127
40619,note_on,0,0,0,,1,,,49,127
40836,note_on,217,0,0,,10,,,81,127
40942,note_off,106,0,0,,10,,,81,127
40944,note_on,2,0,0,,11,,,82,127
41050,note_off,106,0,0,,11,,,82,127
41050,note_off,0,0,0,,1,,,49,127
41050,note_off,0,0,0,,11,,,58,127
41052,note_on,2,0,0,,0,,,84,127
41052,note_on,0,0,0,,11,,,58,127
41052,note_on,0,0,0,,1,,,49,127
41122,note_off,70,0,0,,0,,,84,127
41124,note_on,2,0,0,,11,,,82,127
41194,note_off,70,0,0,,11,,,82,127
41196,note_on,2,0,0,,0,,,84,127
41266,note_off,70,0,0,,0,,,84,127
41268,note_on,2,0,0,,11,,,82,127
41338,note_off,70,0,0,,11,,,82,127
41340,note_on,2,0,0,,0,,,84,127
41410,note_off,70,0,0,,0,,,84,127
41412,note_on,2,0,0,,11,,,82,127
41482,note_off,70,0,0,,11,,,82,127
41482,note_off,0,0,0,,1,,,49,127
41482,note_off,0,0,0,,11,,,58,127
41484,note_on,2,0,0,,0,,,84,127
41484,note_on,0,0,0,,1,,,49,127
41484,note_on,0,0,0,,11,,,58,127
41554,note_off,70,0,0,,0,,,84,127
41556,note_on,2,0,0,,11,,,82,127
41626,note_off,70,0,0,,11,,,82,127
41628,note_on,2,0,0,,0,,,84,127
41698,note_off,70,0,0,,0,,,84,127
41700,note_on,2,0,0,,11,,,82,127
41770,note_off,70,0,0,,11,,,82,127
41772,note_on,2,0,0,,10,,,81,127
41842,note_off,70,0,0,,10,,,81,127
41844,note_on,2,0,0,,7,,,79,127
41914,note_off,70,0,0,,7,,,79,127
41914,note_off,0,0,0,,11,,,58,127
41914,note_off,0,0,0,,1,,,49,127
41916,note_on,2,0,0,,7,,,79,127
41916,note_on,0,0,0,,2,,,50,127
42022,note_off,106,0,0,,7,,,79,127
42024,note_on,2,0,0,,6,,,78,127
42130,note_off,106,0,0,,6,,,78,127
42132,note_on,2,0,0,,4,,,76,127
42238,note_off,106,0,0,,4,,,76,127
42240,note_on,2,0,0,,2,,,74,127
42343,note_off,103,0,0,,2,,,74,127
42346,note_off,3,0,0,,2,,,50,127
42357,note_on,11,0,0,,2,,,74,127
42357,note_on,0,0,0,,2,,,86,127
42357,note_on,0,0,0,,2,,,62,127
42463,note_off,106,0,0,,2,,,62,127
42465,note_on,2,0,0,,0,,,60,127
42571,note_off,106,0,0,,0,,,60,127
42573,note_on,2,0,0,,11,,,58,127
42679,note_off,106,0,0,,11,,,58,127
42681,note_on,2,0,0,,10,,,57,127
42787,note_off,106,0,0,,10,,,57,127
42787,note_off,0,0,0,,2,,,86,127
42787,note_off,0,0,0,,2,,,74,127
42789,note_on,2,0,0,,2,,,74,127
42789,note_on,0,0,0,,2,,,86,127
42789,note_on,0,0,0,,7,,,55,127
42895,note_off,106,0,0,,7,,,55,127
42897,note_on,2,0,0,,5,,,53,127
43003,note_off,106,0,0,,5,,,53,127
43005,note_on,2,0,0,,3,,,51,127
43111,note_off,106,0,0,,3,,,51,127
43113,note_on,2,0,0,,2,,,50,127
43195,note_off,82,0,0,,2,,,86,127
43195,note_off,0,0,0,,2,,,74,127
43220,note_off,25,0,0,,2,,,50,127
43222,note_on,2,0,0,,3,,,75,127
43222,note_on,0,0,0,,2,,,86,127
43222,note_on,0,0,0,,0,,,48,127
43437,note_off,215,0,0,,2,,,86,127
43439,note_on,2,0,0,,0,,,84,127
43652,note_off,213,0,0,,3,,,75,127
43654,note_off,2,0,0,,0,,,84,127
43654,note_off,0,0,0,,0,,,48,127
43656,note_on,2,0,0,,0,,,84,127
43656,note_on,0,0,0,,3,,,75,127
43656,note_on,0,0,0,,0,,,60,127
43656,note_on,0,0,0,,0,,,48,127
43762,note_off,106,0,0,,0,,,84,127
43764,note_on,2,0,0,,11,,,82,127
43870,note_off,106,0,0,,11,,,82,127
43872,note_on,2,0,0,,11,,,82,127
43978,note_off,106,0,0,,11,,,82,127
43980,note_on,2,0,0,,10,,,81,127
44084,note_off,104,0,0,,3,,,75,127
44086,note_off,2,0,0,,10,,,81,127
44086,note_off,0,0,0,,0,,,48,127
44086,note_off,0,0,0,,0,,,60,127
44088,note_on,2,0,0,,0,,,72,127
44088,note_on,0,0,0,,10,,,81,127
44088,note_on,0,0,0,,0,,,60,127
44088,note_on,0,0,0,,0,,,48,127
44194,note_off,106,0,0,,10,,,81,127
44196,note_on,2,0,0,,7,,,79,127
44302,note_off,106,0,0,,7,,,79,127
44304,note_on,2,0,0,,6,,,78,127
44410,note_off,106,0,0,,6,,,78,127
44412,note_on,2,0,0,,7,,,79,127
44516,note_off,104,0,0,,0,,,72,127
44518,note_off,2,0,0,,7,,,79,127
44518,note_off,0,0,0,,0,,,48,127
44518,note_off,0,0,0,,0,,,60,127
44520,note_on,2,0,0,,0,,,72,127
44520,note_on,0,0,0,,7,,,79,127
44520,note_on,0,0,0,,0,,,60,127
44520,note_on,0,0,0,,2,,,50,127
44735,note_off,215,0,0,,7,,,79,127
44737,note_on,2,0,0,,6,,,78,127
44950,note_off,213,0,0,,0,,,72,127
44952,note_off,2,0,0,,2,,,50,127
44952,note_off,0,0,0,,0,,,60,127
44954,note_on,2,0,0,,3,,,75,127
44954,note_on,0,0,0,,2,,,50,127
44954,note_on,0,0,0,,0,,,60,127
45060,note_off,106,0,0,,3,,,75,127
45062,note_on,2,0,0,,2,,,74,127
45168,note_off,106,0,0,,2,,,74,127
45170,note_on,2,0,0,,2,,,74,127
45276,note_off,106,0,0,,2,,,74,127
45278,note_on,2,0,0,,0,,,72,127
45380,note_off,102,0,0,,6,,,78,127
45385,note_off,5,0,0,,0,,,72,127
45385,note_off,0,0,0,,0,,,60,127
45385,note_off,0,0,0,,2,,,50,127
45387,note_on,2,0,0,,7,,,79,127
45387,note_on,0,0,0,,0,,,72,127
45387,note_on,0,0,0,,3,,,51,127
45493,note_off,106,0,0,,0,,,72,127
45495,note_on,2,0,0,,11,,,70,127
45601,note_off,106,0,0,,11,,,70,127
45603,note_on,2,0,0,,10,,,69,127
45709,note_off,106,0,0,,10,,,69,127
45711,note_on,2,0,0,,7,,,67,127
45815,note_off,104,0,0,,7,,,79,127
45817,note_off,2,0,0,,7,,,67,127
45817,note_off,0,0,0,,3,,,51,127
45819,note_on,2,0,0,,7,,,67,127
45819,note_on,0,0,0,,0,,,60,127
45819,note_on,0,0,0,,0,,,48,127
45819,note_on,0,0,0,,7,,,55,127
45925,note_off,106,0,0,,7,,,67,127
45927,note_on,2,0,0,,10,,,69,127
46033,note_off,106,0,0,,10,,,69,127
46035,note_on,2,0,0,,11,,,70,127
46141,note_off,106,0,0,,11,,,70,127
46143,note_on,2,0,0,,0,,,72,127
46249,note_off,106,0,0,,0,,,72,127
46249,note_off,0,0,0,,7,,,55,127
46249,note_off,0,0,0,,0,,,48,127
46249,note_off,0,0,0,,0,,,60,127
46251,note_on,2,0,0,,0,,,72,127
46251,note_on,0,0,0,,2,,,50,127
46251,note_on,0,0,0,,7,,,55,127
46251,note_on,0,0,0,,11,,,58,127
46357,note_off,106,0,0,,0,,,72,127
46359,note_on,2,0,0,,11,,,70,127
46465,note_off,106,0,0,,11,,,70,127
46467,note_on,2,0,0,,10,,,69,127
46573,note_off,106,0,0,,10,,,69,127
46575,note_on,2,0,0,,7,,,67,127
46681,note_off,106,0,0,,7,,,67,127
46681,note_off,0,0,0,,11,,,58,127
46681,note_off,0,0,0,,7,,,55,127
46681,note_off,0,0,0,,2,,,50,127
46683,note_on,2,0,0,,11,,,70,127
46683,note_on,0,0,0,,10,,,57,127
46683,note_on,0,0,0,,2,,,50,127
46789,note_off,106,0,0,,11,,,70,127
46791,note_on,2,0,0,,10,,,69,127
46897,note_off,106,0,0,,10,,,69,127
46899,note_on,2,0,0,,7,,,67,127
47005,note_off,106,0,0,,7,,,67,127
47007,note_on,2,0,0,,6,,,66,127
47113,note_off,106,0,0,,6,,,66,127
47113,note_off,0,0,0,,2,,,50,127
47113,note_off,0,0,0,,10,,,57,127
47115,note_on,2,0,0,,7,,,67,127
47115,note_on,0,0,0,,7,,,43,127
47224,note_on,109,0,0,,7,,,79,127
47330,note_off,106,0,0,,7,,,79,127
47332,note_on,2,0,0,,12,,,71,127
47432,note_off,100,0,0,,7,,,67,127
47439,note_off,7,0,0,,12,,,71,127
47441,note_on,2,0,0,,0,,,72,127
47547,note_off,106,0,0,,0,,,72,127
47547,note_off,0,0,0,,7,,,43,127
47549,note_on,2,0,0,,2,,,74,127
47549,note_on,0,0,0,,2,,,50,127
47655,note_off,106,0,0,,2,,,74,127
47657,note_on,2,0,0,,12,,,71,127
47763,note_off,106,0,0,,12,,,71,127
47765,note_on,2,0,0,,0,,,72,127
47871,note_off,106,0,0,,0,,,72,127
47873,note_on,2,0,0,,10,,,69,127
47979,note_off,106,0,0,,10,,,69,127
47979,note_off,0,0,0,,2,,,50,127
47981,note_on,2,0,0,,12,,,71,127
47981,note_on,0,0,0,,2,,,38,127
48087,note_off,106,0,0,,12,,,71,127
48089,note_on,2,0,0,,7,,,67,127
48195,note_off,106,0,0,,7,,,67,127
48197,note_on,2,0,0,,2,,,74,127
48303,note_off,106,0,0,,2,,,74,127
48305,note_on,2,0,0,,6,,,66,127
48411,note_off,106,0,0,,6,,,66,127
48411,note_off,0,0,0,,2,,,38,127
48413,note_on,2,0,0,,7,,,67,127
48413,note_on,0,0,0,,7,,,43,127
48519,note_off,106,0,0,,7,,,67,127
48521,note_on,2,0,0,,7,,,67,127
48627,note_off,106,0,0,,7,,,67,127
48629,note_on,2,0,0,,12,,,59,127
48735,note_off,106,0,0,,12,,,59,127
48737,note_on,2,0,0,,0,,,60,127
48843,note_off,106,0,0,,0,,,60,127
48843,note_off,0,0,0,,7,,,43,127
48845,note_on,2,0,0,,2,,,62,127
48845,note_on,0,0,0,,2,,,50,127
48951,note_off,106,0,0,,2,,,62,127
48953,note_on,2,0,0,,12,,,59,127
49059,note_off,106,0,0,,12,,,59,127
49061,note_on,2,0,0,,0,,,60,127
49167,note_off,106,0,0,,0,,,60,127
49169,note_on,2,0,0,,10,,,57,127
49275,note_off,106,0,0,,10,,,57,127
49275,note_off,0,0,0,,2,,,50,127
49277,note_on,2,0,0,,12,,,59,127
49277,note_on,0,0,0,,2,,,38,127
49383,note_off,106,0,0,,12,,,59,127
49385,note_on,2,0,0,,7,,,55,127
49491,note_off,106,0,0,,7,,,55,127
49493,note_on,2,0,0,,2,,,62,127
49599,note_off,106,0,0,,2,,,62,127
49601,note_on,2,0,0,,6,,,54,127
49707,note_off,106,0,0,,6,,,54,127
49709,note_on,2,0,0,,7,,,55,127
49815,note_off,106,0,0,,7,,,55,127
49815,note_off,0,0,0,,2,,,38,127
49817,note_on,2,0,0,,7,,,55,127
49923,note_off,106,0,0,,7,,,55,127
49925,note_on,2,0,0,,12,,,47,127
50031,note_off,106,0,0,,12,,,47,127
50033,note_on,2,0,0,,0,,,48,127
50139,note_off,106,0,0,,0,,,48,127
50141,note_on,2,0,0,,2,,,50,127
50247,note_off,106,0,0,,2,,,50,127
50249,note_on,2,0,0,,12,,,47,127
50355,note_off,106,0,0,,12,,,47,127
50357,note_on,2,0,0,,0,,,48,127
50463,note_off,106,0,0,,0,,,48,127
50465,note_on,2,0,0,,10,,,45,127
50571,note_off,106,0,0,,10,,,45,127
50573,note_on,2,0,0,,12,,,47,127
50679,note_off,106,0,0,,12,,,47,127
50681,note_on,2,0,0,,7,,,43,127
50787,note_off,106,0,0,,7,,,43,127
50789,note_on,2,0,0,,2,,,50,127
50895,note_off,106,0,0,,2,,,50,127
50897,note_on,2,0,0,,6,,,42,127
51003,note_off,106,0,0,,6,,,42,127
51014,note_on,11,0,0,,7,,,55,127
51014,note_on,0,0,0,,7,,,43,127
51265,note_on,251,0,0,,7,,,79,127
51446,note_off,181,0,0,,7,,,43,127
51480,note_off,34,0,0,,7,,,79,127
51482,note_on,2,0,0,,12,,,47,127
51482,note_on,0,0,0,,2,,,74,127
51697,note_off,215,0,0,,2,,,74,127
51699,note_on,2,0,0,,2,,,74,127
51914,note_off,215,0,0,,2,,,74,127
51914,note_off,0,0,0,,12,,,47,127
51916,note_on,2,0,0,,7,,,43,127
51916,note_on,0,0,0,,4,,,76,127
52022,note_off,106,0,0,,4,,,76,127
52024,note_on,2,0,0,,2,,,74,127
52130,note_off,106,0,0,,2,,,74,127
52132,note_on,2,0,0,,0,,,72,127
52238,note_off,106,0,0,,0,,,72,127
52240,note_on,2,0,0,,12,,,71,127
52315,note_off,75,0,0,,7,,,55,127
52347,note_off,32,0,0,,12,,,71,127
52347,note_off,0,0,0,,7,,,43,127
52349,note_on,2,0,0,,0,,,48,127
52349,note_on,0,0,0,,0,,,60,127
52349,note_on,0,0,0,,10,,,69,127
52564,note_off,215,0,0,,10,,,69,127
52566,note_on,2,0,0,,10,,,81,127
52781,note_off,215,0,0,,10,,,81,127
52781,note_off,0,0,0,,0,,,48,127
52783,note_on,2,0,0,,2,,,50,127
52783,note_on,0,0,0,,6,,,78,127
52998,note_off,215,0,0,,6,,,78,127
53000,note_on,2,0,0,,0,,,72,127
53215,note_off,215,0,0,,0,,,72,127
53216,note_off,1,0,0,,0,,,60,127
53217,note_on,1,0,0,,2,,,62,127
53217,note_on,0,0,0,,2,,,74,127
53287,note_off,70,0,0,,2,,,74,127
53289,note_on,2,0,0,,0,,,72,127
53359,note_off,70,0,0,,0,,,72,127
53361,note_on,2,0,0,,2,,,74,127
53431,note_off,70,0,0,,2,,,74,127
53433,note_on,2,0,0,,0,,,72,127
53503,note_off,70,0,0,,0,,,72,127
53505,note_on,2,0,0,,12,,,71,127
53575,note_off,70,0,0,,12,,,71,127
53577,note_on,2,0,0,,0,,,72,127
53647,note_off,70,0,0,,0,,,72,127
53647,note_off,0,0,0,,2,,,62,127
53648,note_off,1,0,0,,2,,,50,127
53649,note_on,1,0,0,,7,,,55,127
53649,note_on,0,0,0,,2,,,62,127
53649,note_on,0,0,0,,12,,,71,127
53864,note_off,215,0,0,,12,,,71,127
53866,note_on,2,0,0,,12,,,83,127
54081,note_off,215,0,0,,12,,,83,127
54081,note_off,0,0,0,,7,,,55,127
54083,note_on,2,0,0,,12,,,59,127
54083,note_on,0,0,0,,7,,,79,127
54298,note_off,215,0,0,,7,,,79,127
54300,note_on,2,0,0,,2,,,74,127
54515,note_off,215,0,0,,2,,,74,127
54515,note_off,0,0,0,,12,,,59,127
54517,note_on,2,0,0,,7,,,55,127
54517,note_on,0,0,0,,4,,,76,127
54587,note_off,70,0,0,,4,,,76,127
54589,note_on,2,0,0,,2,,,74,127
54659,note_off,70,0,0,,2,,,74,127
54661,note_on,2,0,0,,4,,,76,127
54731,note_off,70,0,0,,4,,,76,127
54733,note_on,2,0,0,,2,,,74,127
54803,note_off,70,0,0,,2,,,74,127
54805,note_on,2,0,0,,0,,,72,127
54875,note_off,70,0,0,,0,,,72,127
54877,note_on,2,0,0,,12,,,71,127
54947,note_off,70,0,0,,12,,,71,127
54947,note_off,0,0,0,,7,,,55,127
54949,note_off,2,0,0,,2,,,62,127
54949,note_on,0,0,0,,0,,,48,127
54949,note_on,0,0,0,,10,,,69,127
55164,note_off,215,0,0,,10,,,69,127
55166,note_on,2,0,0,,4,,,64,127
55381,note_off,215,0,0,,0,,,48,127
55383,note_on,2,0,0,,2,,,50,127
55460,note_off,77,0,0,,4,,,64,127
55492,note_on,32,0,0,,6,,,66,127
55598,note_off,106,0,0,,6,,,66,127
55600,note_on,2,0,0,,7,,,67,127
55706,note_off,106,0,0,,7,,,67,127
55708,note_on,2,0,0,,10,,,69,127
55814,note_off,106,0,0,,10,,,69,127
55816,note_on,2,0,0,,2,,,38,127
55816,note_on,0,0,0,,12,,,71,127
55886,note_off,70,0,0,,12,,,71,127
55888,note_on,2,0,0,,10,,,69,127
55958,note_off,70,0,0,,10,,,69,127
55960,note_on,2,0,0,,12,,,71,127
56030,note_off,70,0,0,,12,,,71,127
56032,note_on,2,0,0,,10,,,69,127
56102,note_off,70,0,0,,10,,,69,127
56104,note_on,2,0,0,,7,,,67,127
56174,note_off,70,0,0,,7,,,67,127
56176,note_on,2,0,0,,10,,,69,127
56246,note_off,70,0,0,,10,,,69,127
56246,note_off,0,0,0,,2,,,38,127
56247,note_off,1,0,0,,2,,,50,127
56248,note_on,1,0,0,,7,,,43,127
56248,note_on,0,0,0,,7,,,55,127
56248,note_on,0,0,0,,7,,,67,127
56465,note_on,217,0,0,,7,,,79,127
56680,note_off,215,0,0,,7,,,79,127
56680,note_off,0,0,0,,7,,,43,127
56695,note_on,15,0,0,,12,,,47,127
56695,note_on,0,0,0,,2,,,74,127
56910,note_off,215,0,0,,2,,,74,127
56912,note_on,2,0,0,,2,,,74,127
57127,note_off,215,0,0,,2,,,74,127
57127,note_off,0,0,0,,12,,,47,127
57129,note_on,2,0,0,,7,,,43,127
57129,note_on,0,0,0,,4,,,76,127
57235,note_off,106,0,0,,4,,,76,127
57237,note_on,2,0,0,,2,,,74,127
57343,note_off,106,0,0,,2,,,74,127
57345,note_on,2,0,0,,0,,,72,127
57451,note_off,106,0,0,,0,,,72,127
57453,note_on,2,0,0,,12,,,71,127
57536,note_off,83,0,0,,7,,,67,127
57550,note_off,14,0,0,,7,,,55,127
57560,note_off,10,0,0,,12,,,71,127
57560,note_off,0,0,0,,7,,,43,127
57562,note_on,2,0,0,,0,,,48,127
57562,note_on,0,0,0,,0,,,60,127
57562,note_on,0,0,0,,10,,,69,127
57779,note_on,217,0,0,,10,,,81,127
57994,note_off,215,0,0,,10,,,81,127
57994,note_off,0,0,0,,0,,,48,127
57996,note_on,2,0,0,,2,,,50,127
57996,note_on,0,0,0,,6,,,78,127
58211,note_off,215,0,0,,6,,,78,127
58213,note_on,2,0,0,,0,,,72,127
58428,note_off,215,0,0,,0,,,72,127
58429,note_off,1,0,0,,0,,,60,127
58430,note_on,1,0,0,,2,,,62,127
58430,note_on,0,0,0,,2,,,74,127
58500,note_off,70,0,0,,2,,,74,127
58502,note_on,2,0,0,,0,,,72,127
58572,note_off,70,0,0,,0,,,72,127
58574,note_on,2,0,0,,2,,,74,127
58644,note_off,70,0,0,,2,,,74,127
58646,note_on,2,0,0,,0,,,72,127
58716,note_off,70,0,0,,0,,,72,127
58718,note_on,2,0,0,,12,,,71,127
58788,note_off,70,0,0,,12,,,71,127
58790,note_on,2,0,0,,0,,,72,127
58849,note_off,59,0,0,,10,,,69,127
58860,note_off,11,0,0,,0,,,72,127
58860,note_off,0,0,0,,2,,,62,127
58861,note_off,1,0,0,,2,,,50,127
58862,note_on,1,0,0,,7,,,55,127
58862,note_on,0,0,0,,2,,,62,127
58862,note_on,0,0,0,,12,,,71,127
59079,note_on,217,0,0,,12,,,83,127
59294,note_off,215,0,0,,12,,,83,127
59294,note_off,0,0,0,,7,,,55,127
59296,note_on,2,0,0,,12,,,59,127
59296,note_on,0,0,0,,7,,,79,127
59511,note_off,215,0,0,,7,,,79,127
59513,note_on,2,0,0,,2,,,74,127
59725,note_off,212,0,0,,12,,,71,127
59728,note_off,3,0,0,,2,,,74,127
59728,note_off,0,0,0,,12,,,59,127
59730,note_on,2,0,0,,7,,,55,127
59730,note_on,0,0,0,,4,,,76,127
59800,note_off,70,0,0,,4,,,76,127
59802,note_on,2,0,0,,2,,,74,127
59872,note_off,70,0,0,,2,,,74,127
59874,note_on,2,0,0,,4,,,76,127
59944,note_off,70,0,0,,4,,,76,127
59946,note_on,2,0,0,,2,,,74,127
60016,note_off,70,0,0,,2,,,74,127
60018,note_on,2,0,0,,0,,,72,127
60088,note_off,70,0,0,,0,,,72,127
60090,note_on,2,0,0,,12,,,71,127
60160,note_off,70,0,0,,12,,,71,127
60160,note_off,0,0,0,,7,,,55,127
60162,note_off,2,0,0,,2,,,62,127
60162,note_on,0,0,0,,0,,,48,127
60162,note_on,0,0,0,,10,,,69,127
60377,note_off,215,0,0,,10,,,69,127
60379,note_on,2,0,0,,4,,,64,127
60594,note_off,215,0,0,,0,,,48,127
60596,note_on,2,0,0,,2,,,50,127
60690,note_off,94,0,0,,4,,,64,127
60705,note_on,15,0,0,,6,,,66,127
60811,note_off,106,0,0,,6,,,66,127
60813,note_on,2,0,0,,7,,,67,127
60919,note_off,106,0,0,,7,,,67,127
60921,note_on,2,0,0,,10,,,69,127
61027,note_off,106,0,0,,10,,,69,127
61029,note_on,2,0,0,,2,,,38,127
61029,note_on,0,0,0,,12,,,71,127
61099,note_off,70,0,0,,12,,,71,127
61101,note_on,2,0,0,,10,,,69,127
61171,note_off,70,0,0,,10,,,69,127
61173,note_on,2,0,0,,12,,,71,127
61243,note_off,70,0,0,,12,,,71,127
61245,note_on,2,0,0,,10,,,69,127
61315,note_off,70,0,0,,10,,,69,127
61317,note_on,2,0,0,,7,,,67,127
61387,note_off,70,0,0,,7,,,67,127
61389,note_on,2,0,0,,10,,,69,127
61459,note_off,70,0,0,,10,,,69,127
61459,note_off,0,0,0,,2,,,38,127
61460,note_off,1,0,0,,2,,,50,127
61461,note_on,1,0,0,,7,,,43,127
61466,note_on,5,0,0,,7,,,67,127
61697,note_on,231,0,0,,12,,,71,127
61715,note_off,18,0,0,,7,,,67,127
61803,note_off,88,0,0,,12,,,71,127
61805,note_on,2,0,0,,10,,,69,127
61911,note_off,106,0,0,,10,,,69,127
61913,note_on,2,0,0,,12,,,71,127
62128,note_off,215,0,0,,12,,,71,127
62130,note_on,2,0,0,,2,,,74,127
62236,note_off,106,0,0,,2,,,74,127
62238,note_on,2,0,0,,0,,,72,127
62344,note_off,106,0,0,,0,,,72,127
62346,note_on,2,0,0,,2,,,74,127
62455,note_off,109,0,0,,7,,,43,127
62561,note_off,106,0,0,,2,,,74,127
62563,note_on,2,0,0,,7,,,79,127
62669,note_off,106,0,0,,7,,,79,127
62671,note_on,2,0,0,,6,,,78,127
62777,note_off,106,0,0,,6,,,78,127
62779,note_on,2,0,0,,7,,,79,127
62779,note_on,0,0,0,,7,,,43,127
62994,note_off,215,0,0,,7,,,43,127
62996,note_on,2,0,0,,12,,,47,127
63102,note_off,106,0,0,,12,,,47,127
63104,note_on,2,0,0,,10,,,45,127
63210,note_off,106,0,0,,10,,,45,127
63212,note_on,2,0,0,,12,,,47,127
63427,note_off,215,0,0,,12,,,47,127
63429,note_on,2,0,0,,2,,,50,127
63535,note_off,106,0,0,,2,,,50,127
63537,note_on,2,0,0,,0,,,48,127
63546,note_off,9,0,0,,7,,,79,127
63643,note_off,97,0,0,,0,,,48,127
63645,note_on,2,0,0,,5,,,77,127
63645,note_on,0,0,0,,2,,,50,127
63860,note_off,215,0,0,,2,,,50,127
63862,note_on,2,0,0,,5,,,53,127
63968,note_off,106,0,0,,5,,,53,127
63970,note_on,2,0,0,,4,,,52,127
64076,note_off,106,0,0,,4,,,52,127
64078,note_on,2,0,0,,5,,,53,127
64293,note_off,215,0,0,,5,,,53,127
64295,note_on,2,0,0,,10,,,57,127
64401,note_off,106,0,0,,10,,,57,127
64403,note_on,2,0,0,,8,,,56,127
64509,note_off,106,0,0,,8,,,56,127
64511,note_on,2,0,0,,10,,,57,127
64726,note_off,215,0,0,,10,,,57,127
64728,note_on,2,0,0,,0,,,60,127
64834,note_off,106,0,0,,0,,,60,127
64836,note_on,2,0,0,,12,,,59,127
64886,note_off,50,0,0,,5,,,77,127
64943,note_off,57,0,0,,12,,,59,127
64945,note_on,2,0,0,,4,,,76,127
64945,note_on,0,0,0,,0,,,60,127
65160,note_off,215,0,0,,0,,,60,127
65162,note_on,2,0,0,,4,,,64,127
65268,note_off,106,0,0,,4,,,64,127
65270,note_on,2,0,0,,2,,,62,127
65376,note_off,106,0,0,,2,,,62,127
65378,note_on,2,0,0,,4,,,64,127
65593,note_off,215,0,0,,4,,,64,127
65595,note_on,2,0,0,,10,,,69,127
65701,note_off,106,0,0,,10,,,69,127
65703,note_on,2,0,0,,8,,,68,127
65809,note_off,106,0,0,,8,,,68,127
65811,note_on,2,0,0,,10,,,69,127
66026,note_off,215,0,0,,10,,,69,127
66028,note_on,2,0,0,,0,,,72,127
66134,note_off,106,0,0,,0,,,72,127
66136,note_on,2,0,0,,12,,,71,127
66186,note_off,50,0,0,,4,,,76,127
66243,note_off,57,0,0,,12,,,71,127
66245,note_on,2,0,0,,10,,,81,127
66245,note_on,0,0,0,,0,,,72,127
66351,note_off,106,0,0,,10,,,81,127
66353,note_on,2,0,0,,7,,,79,127
66459,note_off,106,0,0,,7,,,79,127
66461,note_on,2,0,0,,5,,,77,127
66567,note_off,106,0,0,,5,,,77,127
66569,note_on,2,0,0,,4,,,76,127
66675,note_off,106,0,0,,4,,,76,127
66675,note_off,0,0,0,,0,,,72,127
66686,note_on,11,0,0,,5,,,77,127
66686,note_on,0,0,0,,2,,,62,127
66792,note_off,106,0,0,,5,,,77,127
66794,note_on,2,0,0,,7,,,79,127
66900,note_off,106,0,0,,7,,,79,127
66902,note_on,2,0,0,,5,,,77,127
67008,note_off,106,0,0,,5,,,77,127
67010,note_on,2,0,0,,4,,,76,127
67116,note_off,106,0,0,,4,,,76,127
67116,note_off,0,0,0,,2,,,62,127
67118,note_on,2,0,0,,5,,,77,127
67118,note_on,0,0,0,,4,,,64,127
67224,note_off,106,0,0,,5,,,77,127
67226,note_on,2,0,0,,4,,,76,127
67332,note_off,106,0,0,,4,,,76,127
67334,note_on,2,0,0,,2,,,74,127
67440,note_off,106,0,0,,2,,,74,127
67442,note_on,2,0,0,,0,,,72,127
67548,note_off,106,0,0,,0,,,72,127
67548,note_off,0,0,0,,4,,,64,127
67550,note_on,2,0,0,,2,,,74,127
67550,note_on,0,0,0,,5,,,65,127
67656,note_off,106,0,0,,2,,,74,127
67658,note_on,2,0,0,,0,,,72,127
67764,note_off,106,0,0,,0,,,72,127
67766,note_on,2,0,0,,12,,,71,127
67872,note_off,106,0,0,,12,,,71,127
67874,note_on,2,0,0,,10,,,69,127
67980,note_off,106,0,0,,5,,,65,127
67986,note_off,6,0,0,,10,,,69,127
67987,note_on,1,0,0,,4,,,64,127
67987,note_on,0,0,0,,8,,,68,127
68093,note_off,106,0,0,,8,,,68,127
68095,note_on,2,0,0,,3,,,75,127
68201,note_off,106,0,0,,3,,,75,127
68203,note_on,2,0,0,,4,,,76,127
68309,note_off,106,0,0,,4,,,76,127
68311,note_on,2,0,0,,12,,,71,127
68417,note_off,106,0,0,,12,,,71,127
68419,note_on,2,0,0,,0,,,72,127
68525,note_off,106,0,0,,0,,,72,127
68527,note_on,2,0,0,,8,,,68,127
68633,note_off,106,0,0,,8,,,68,127
68634,note_off,1,0,0,,4,,,64,127
68635,note_on,1,0,0,,10,,,69,127
68741,note_off,106,0,0,,10,,,69,127
68743,note_on,2,0,0,,3,,,63,127
68849,note_off,106,0,0,,3,,,63,127
68851,note_on,2,0,0,,4,,,64,127
68957,note_off,106,0,0,,4,,,64,127
68959,note_on,2,0,0,,12,,,59,127
69065,note_off,106,0,0,,12,,,59,127
69067,note_on,2,0,0,,0,,,60,127
69173,note_off,106,0,0,,0,,,60,127
69175,note_on,2,0,0,,8,,,56,127
69281,note_off,106,0,0,,8,,,56,127
69283,note_on,2,0,0,,10,,,57,127
69389,note_off,106,0,0,,10,,,57,127
69391,note_on,2,0,0,,3,,,51,127
69497,note_off,106,0,0,,3,,,51,127
69499,note_on,2,0,0,,4,,,52,127
69605,note_off,106,0,0,,4,,,52,127
69607,note_on,2,0,0,,12,,,47,127
69713,note_off,106,0,0,,12,,,47,127
69715,note_on,2,0,0,,0,,,48,127
69821,note_off,106,0,0,,0,,,48,127
69823,note_on,2,0,0,,8,,,44,127
69929,note_off,106,0,0,,8,,,44,127
69931,note_on,2,0,0,,10,,,45,127
70037,note_off,106,0,0,,10,,,45,127
70042,note_on,5,0,0,,3,,,39,127
70154,note_off,112,0,0,,3,,,39,127
70160,note_on,6,0,0,,4,,,40,127
70423,note_on,263,0,0,,12,,,71,127
70654,note_on,231,0,0,,2,,,50,127
70654,note_on,0,0,0,,12,,,59,127
70654,note_on,0,0,0,,8,,,56,127
70659,note_off,5,0,0,,4,,,40,127
70872,note_on,213,0,0,,5,,,77,127
70894,note_off,22,0,0,,12,,,71,127
71088,note_off,194,0,0,,8,,,56,127
71088,note_off,0,0,0,,12,,,59,127
71088,note_off,0,0,0,,2,,,50,127
71090,note_on,2,0,0,,12,,,59,127
71090,note_on,0,0,0,,8,,,56,127
71090,note_on,0,0,0,,2,,,50,127
71305,note_off,215,0,0,,5,,,77,127
71307,note_on,2,0,0,,4,,,76,127
71413,note_off,106,0,0,,4,,,76,127
71415,note_on,2,0,0,,2,,,74,127
71521,note_off,106,0,0,,2,,,74,127
71521,note_off,0,0,0,,2,,,50,127
71521,note_off,0,0,0,,8,,,56,127
71521,note_off,0,0,0,,12,,,59,127
71523,note_on,2,0,0,,0,,,72,127
71523,note_on,0,0,0,,8,,,56,127
71523,note_on,0,0,0,,12,,,59,127
71523,note_on,0,0,0,,2,,,50,127
71629,note_off,106,0,0,,0,,,72,127
71631,note_on,2,0,0,,12,,,71,127
71737,note_off,106,0,0,,12,,,71,127
71739,note_on,2,0,0,,10,,,69,127
71845,note_off,106,0,0,,10,,,69,127
71847,note_on,2,0,0,,8,,,68,127
71953,note_off,106,0,0,,8,,,68,127
71953,note_off,0,0,0,,2,,,50,127
71953,note_off,0,0,0,,12,,,59,127
71953,note_off,0,0,0,,8,,,56,127
71955,note_on,2,0,0,,10,,,69,127
71955,note_on,0,0,0,,10,,,57,127
71955,note_on,0,0,0,,0,,,48,127
71955,note_on,0,0,0,,4,,,52,127
72169,note_off,214,0,0,,10,,,69,127
72172,note_on,3,0,0,,10,,,69,127
72387,note_off,215,0,0,,4,,,52,127
72387,note_off,0,0,0,,0,,,48,127
72387,note_off,0,0,0,,10,,,57,127
72398,note_on,11,0,0,,10,,,57,127
72398,note_on,0,0,0,,4,,,52,127
72398,note_on,0,0,0,,0,,,48,127
72507,note_off,109,0,0,,10,,,69,127
72516,note_on,9,0,0,,12,,,71,127
72622,note_off,106,0,0,,12,,,71,127
72624,note_on,2,0,0,,0,,,72,127
72730,note_off,106,0,0,,0,,,72,127
72732,note_on,2,0,0,,2,,,74,127
72829,note_off,97,0,0,,0,,,48,127
72829,note_off,0,0,0,,4,,,52,127
72829,note_off,0,0,0,,10,,,57,127
72838,note_off,9,0,0,,2,,,74,127
72840,note_on,2,0,0,,2,,,74,127
72840,note_on,0,0,0,,10,,,57,127
72840,note_on,0,0,0,,4,,,52,127
72840,note_on,0,0,0,,0,,,48,127
72946,note_off,106,0,0,,2,,,74,127
72948,note_on,2,0,0,,0,,,72,127
73054,note_off,106,0,0,,0,,,72,127
73056,note_on,2,0,0,,12,,,71,127
73162,note_off,106,0,0,,12,,,71,127
73164,note_on,2,0,0,,10,,,69,127
73270,note_off,106,0,0,,10,,,69,127
73270,note_off,0,0,0,,0,,,48,127
73270,note_off,0,0,0,,4,,,52,127
73270,note_off,0,0,0,,10,,,57,127
73272,note_on,2,0,0,,10,,,69,127
73272,note_on,0,0,0,,12,,,59,127
73272,note_on,0,0,0,,10,,,57,127
73272,note_on,0,0,0,,2,,,50,127
73489,note_on,217,0,0,,10,,,81,127
73704,note_off,215,0,0,,2,,,50,127
73704,note_off,0,0,0,,10,,,57,127
73704,note_off,0,0,0,,12,,,59,127
73706,note_on,2,0,0,,10,,,57,127
73706,note_on,0,0,0,,12,,,59,127
73706,note_on,0,0,0,,2,,,50,127
73792,note_off,86,0,0,,10,,,69,127
73812,note_off,20,0,0,,10,,,81,127
73823,note_on,11,0,0,,12,,,71,127
73929,note_off,106,0,0,,12,,,71,127
73931,note_on,2,0,0,,0,,,72,127
74037,note_off,106,0,0,,0,,,72,127
74039,note_on,2,0,0,,2,,,74,127
74136,note_off,97,0,0,,2,,,50,127
74136,note_off,0,0,0,,12,,,59,127
74136,note_off,0,0,0,,10,,,57,127
74145,note_off,9,0,0,,2,,,74,127
74147,note_on,2,0,0,,2,,,74,127
74147,note_on,0,0,0,,12,,,59,127
74147,note_on,0,0,0,,10,,,57,127
74147,note_on,0,0,0,,2,,,50,127
74253,note_off,106,0,0,,2,,,74,127
74255,note_on,2,0,0,,0,,,72,127
74361,note_off,106,0,0,,0,,,72,127
74363,note_on,2,0,0,,12,,,71,127
74469,note_off,106,0,0,,12,,,71,127
74471,note_on,2,0,0,,10,,,69,127
74577,note_off,106,0,0,,10,,,69,127
74577,note_off,0,0,0,,2,,,50,127
74577,note_off,0,0,0,,10,,,57,127
74577,note_off,0,0,0,,12,,,59,127
74579,note_on,2,0,0,,10,,,69,127
74579,note_on,0,0,0,,0,,,60,127
74579,note_on,0,0,0,,4,,,52,127
74579,note_on,0,0,0,,10,,,57,127
74796,note_on,217,0,0,,10,,,81,127
75011,note_off,215,0,0,,10,,,57,127
75011,note_off,0,0,0,,4,,,52,127
75011,note_off,0,0,0,,0,,,60,127
75013,note_on,2,0,0,,0,,,60,127
75013,note_on,0,0,0,,4,,,52,127
75013,note_on,0,0,0,,10,,,57,127
75099,note_off,86,0,0,,10,,,69,127
75119,note_off,20,0,0,,10,,,81,127
75130,note_on,11,0,0,,12,,,71,127
75236,note_off,106,0,0,,12,,,71,127
75238,note_on,2,0,0,,0,,,72,127
75344,note_off,106,0,0,,0,,,72,127
75346,note_on,2,0,0,,2,,,74,127
75441,note_off,95,0,0,,0,,,60,127
75443,note_off,2,0,0,,10,,,57,127
75443,note_off,0,0,0,,4,,,52,127
75452,note_off,9,0,0,,2,,,74,127
75454,note_on,2,0,0,,2,,,74,127
75454,note_on,0,0,0,,0,,,60,127
75454,note_on,0,0,0,,4,,,52,127
75454,note_on,0,0,0,,10,,,57,127
75560,note_off,106,0,0,,2,,,74,127
75562,note_on,2,0,0,,0,,,72,127
75668,note_off,106,0,0,,0,,,72,127
75670,note_on,2,0,0,,12,,,71,127
75776,note_off,106,0,0,,12,,,71,127
75778,note_on,2,0,0,,10,,,69,127
75884,note_off,106,0,0,,10,,,69,127
75884,note_off,0,0,0,,10,,,57,127
75884,note_off,0,0,0,,4,,,52,127
75884,note_off,0,0,0,,0,,,60,127
75886,note_on,2,0,0,,10,,,69,127
75886,note_on,0,0,0,,2,,,62,127
75886,note_on,0,0,0,,5,,,53,127
75886,note_on,0,0,0,,0,,,60,127
76103,note_on,217,0,0,,10,,,81,127
76316,note_off,213,0,0,,0,,,60,127
76318,note_off,2,0,0,,5,,,53,127
76318,note_off,0,0,0,,2,,,62,127
76320,note_on,2,0,0,,2,,,62,127
76320,note_on,0,0,0,,5,,,53,127
76320,note_on,0,0,0,,0,,,60,127
76383,note_off,63,0,0,,10,,,69,127
76426,note_off,43,0,0,,10,,,81,127
76437,note_on,11,0,0,,12,,,71,127
76543,note_off,106,0,0,,12,,,71,127
76545,note_on,2,0,0,,0,,,72,127
76651,note_off,106,0,0,,0,,,72,127
76653,note_on,2,0,0,,2,,,74,127
76748,note_off,95,0,0,,0,,,60,127
76748,note_off,0,0,0,,2,,,62,127
76750,note_off,2,0,0,,5,,,53,127
76759,note_off,9,0,0,,2,,,74,127
76761,note_on,2,0,0,,2,,,74,127
76761,note_on,0,0,0,,2,,,62,127
76761,note_on,0,0,0,,0,,,60,127
76761,note_on,0,0,0,,5,,,53,127
76831,note_off,70,0,0,,2,,,74,127
76833,note_on,2,0,0,,0,,,72,127
76903,note_off,70,0,0,,0,,,72,127
76905,note_on,2,0,0,,2,,,74,127
76975,note_off,70,0,0,,2,,,74,127
76977,note_on,2,0,0,,0,,,72,127
77047,note_off,70,0,0,,0,,,72,127
77049,note_on,2,0,0,,12,,,71,127
77119,note_off,70,0,0,,12,,,71,127
77121,note_on,2,0,0,,0,,,72,127
77191,note_off,70,0,0,,0,,,72,127
77191,note_off,0,0,0,,5,,,53,127
77191,note_off,0,0,0,,0,,,60,127
77191,note_off,0,0,0,,2,,,62,127
77193,note_on,2,0,0,,12,,,71,127
77193,note_on,0,0,0,,7,,,55,127
77193,note_on,0,0,0,,2,,,62,127
77410,note_on,217,0,0,,12,,,83,127
77625,note_off,215,0,0,,2,,,62,127
77625,note_off,0,0,0,,7,,,55,127
77627,note_on,2,0,0,,2,,,62,127
77627,note_on,0,0,0,,7,,,55,127
77690,note_off,63,0,0,,12,,,71,127
77733,note_off,43,0,0,,12,,,83,127
77744,note_on,11,0,0,,0,,,72,127
77850,note_off,106,0,0,,0,,,72,127
77852,note_on,2,0,0,,2,,,74,127
77958,note_off,106,0,0,,2,,,74,127
77960,note_on,2,0,0,,4,,,76,127
78055,note_off,95,0,0,,2,,,62,127
78057,note_off,2,0,0,,7,,,55,127
78066,note_off,9,0,0,,4,,,76,127
78068,note_on,2,0,0,,4,,,76,127
78068,note_on,0,0,0,,2,,,62,127
78068,note_on,0,0,0,,7,,,55,127
78138,note_off,70,0,0,,4,,,76,127
78140,note_on,2,0,0,,2,,,74,127
78210,note_off,70,0,0,,2,,,74,127
78212,note_on,2,0,0,,4,,,76,127
78282,note_off,70,0,0,,4,,,76,127
78284,note_on,2,0,0,,2,,,74,127
78354,note_off,70,0,0,,2,,,74,127
78356,note_on,2,0,0,,0,,,72,127
78426,note_off,70,0,0,,0,,,72,127
78428,note_on,2,0,0,,2,,,74,127
78498,note_off,70,0,0,,2,,,74,127
78498,note_off,0,0,0,,7,,,55,127
78498,note_off,0,0,0,,2,,,62,127
78500,note_on,2,0,0,,0,,,72,127
78500,note_on,0,0,0,,10,,,57,127
78500,note_on,0,0,0,,6,,,66,127
78500,note_on,0,0,0,,0,,,60,127
78717,note_on,217,0,0,,0,,,84,127
78930,note_off,213,0,0,,0,,,72,127
78932,note_off,2,0,0,,0,,,60,127
78932,note_off,0,0,0,,6,,,66,127
78932,note_off,0,0,0,,10,,,57,127
78934,note_on,2,0,0,,10,,,57,127
78934,note_on,0,0,0,,0,,,60,127
78934,note_on,0,0,0,,6,,,66,127
79040,note_off,106,0,0,,0,,,84,127
79045,note_on,5,0,0,,0,,,72,127
79151,note_off,106,0,0,,0,,,72,127
79153,note_on,2,0,0,,2,,,74,127
79259,note_off,106,0,0,,2,,,74,127
79261,note_on,2,0,0,,4,,,76,127
79363,note_off,102,0,0,,6,,,66,127
79363,note_off,0,0,0,,0,,,60,127
79363,note_off,0,0,0,,10,,,57,127
79368,note_off,5,0,0,,4,,,76,127
79370,note_on,2,0,0,,0,,,60,127
79370,note_on,0,0,0,,4,,,76,127
79370,note_on,0,0,0,,6,,,66,127
79370,note_on,0,0,0,,10,,,57,127
79476,note_off,106,0,0,,4,,,76,127
79478,note_on,2,0,0,,2,,,74,127
79584,note_off,106,0,0,,2,,,74,127
79586,note_on,2,0,0,,0,,,72,127
79776,note_off,190,0,0,,6,,,66,127
79776,note_off,0,0,0,,0,,,60,127
79799,note_off,23,0,0,,10,,,57,127
79804,note_on,5,0,0,,12,,,59,127
79804,note_on,0,0,0,,2,,,74,127
79811,note_off,7,0,0,,0,,,72,127
79983,note_off,172,0,0,,2,,,74,127
80021,note_on,38,0,0,,7,,,79,127
80236,note_off,215,0,0,,12,,,59,127
80238,note_on,2,0,0,,0,,,60,127
80453,note_off,215,0,0,,7,,,79,127
80455,note_on,2,0,0,,5,,,77,127
80561,note_off,106,0,0,,5,,,77,127
80563,note_on,2,0,0,,4,,,76,127
80669,note_off,106,0,0,,4,,,76,127
80669,note_off,0,0,0,,0,,,60,127
80671,note_on,2,0,0,,5,,,53,127
80671,note_on,0,0,0,,0,,,60,127
80671,note_on,0,0,0,,2,,,74,127
80886,note_off,215,0,0,,2,,,74,127
80888,note_on,2,0,0,,0,,,72,127
81103,note_off,215,0,0,,0,,,72,127
81103,note_off,0,0,0,,0,,,60,127
81103,note_off,0,0,0,,5,,,53,127
81105,note_on,2,0,0,,5,,,53,127
81105,note_on,0,0,0,,12,,,59,127
81105,note_on,0,0,0,,0,,,72,127
81211,note_off,106,0,0,,0,,,72,127
81213,note_on,2,0,0,,12,,,71,127
81319,note_off,106,0,0,,12,,,71,127
81321,note_on,2,0,0,,10,,,69,127
81427,note_off,106,0,0,,10,,,69,127
81429,note_on,2,0,0,,7,,,67,127
81535,note_off,106,0,0,,7,,,67,127
81535,note_off,0,0,0,,12,,,59,127
81535,note_off,0,0,0,,5,,,53,127
81537,note_on,2,0,0,,0,,,60,127
81537,note_on,0,0,0,,4,,,52,127
81537,note_on,0,0,0,,7,,,79,127
81752,note_off,215,0,0,,7,,,79,127
81754,note_on,2,0,0,,5,,,77,127
81860,note_off,106,0,0,,5,,,77,127
81862,note_on,2,0,0,,4,,,76,127
81968,note_off,106,0,0,,4,,,76,127
81968,note_off,0,0,0,,4,,,52,127
81968,note_off,0,0,0,,0,,,60,127
81970,note_on,2,0,0,,5,,,53,127
81970,note_on,0,0,0,,0,,,60,127
81970,note_on,0,0,0,,2,,,74,127
82185,note_off,215,0,0,,2,,,74,127
82187,note_on,2,0,0,,0,,,72,127
82402,note_off,215,0,0,,0,,,72,127
82402,note_off,0,0,0,,0,,,60,127
82402,note_off,0,0,0,,5,,,53,127
82404,note_on,2,0,0,,5,,,53,127
82404,note_on,0,0,0,,12,,,59,127
82404,note_on,0,0,0,,0,,,72,127
82510,note_off,106,0,0,,0,,,72,127
82512,note_on,2,0,0,,12,,,71,127
82618,note_off,106,0,0,,12,,,71,127
82620,note_on,2,0,0,,10,,,69,127
82726,note_off,106,0,0,,10,,,69,127
82728,note_on,2,0,0,,7,,,67,127
82834,note_off,106,0,0,,7,,,67,127
82834,note_off,0,0,0,,12,,,59,127
82834,note_off,0,0,0,,5,,,53,127
82836,note_on,2,0,0,,4,,,52,127
82836,note_on,0,0,0,,0,,,60,127
82836,note_on,0,0,0,,7,,,79,127
83051,note_off,215,0,0,,7,,,79,127
83053,note_on,2,0,0,,5,,,77,127
83159,note_off,106,0,0,,5,,,77,127
83161,note_on,2,0,0,,4,,,76,127
83267,note_off,106,0,0,,4,,,76,127
83267,note_off,0,0,0,,0,,,60,127
83267,note_off,0,0,0,,4,,,52,127
83269,note_on,2,0,0,,5,,,53,127
83269,note_on,0,0,0,,0,,,60,127
83269,note_on,0,0,0,,2,,,74,127
83484,note_off,215,0,0,,2,,,74,127
83486,note_on,2,0,0,,0,,,72,127
83701,note_off,215,0,0,,0,,,72,127
83701,note_off,0,0,0,,0,,,60,127
83712,note_off,11,0,0,,5,,,53,127
83712,note_on,0,0,0,,7,,,55,127
83712,note_on,0,0,0,,12,,,71,127
83818,note_off,106,0,0,,12,,,71,127
83820,note_on,2,0,0,,6,,,78,127
83926,note_off,106,0,0,,6,,,78,127
83928,note_on,2,0,0,,7,,,79,127
84034,note_off,106,0,0,,7,,,79,127
84036,note_on,2,0,0,,2,,,74,127
84142,note_off,106,0,0,,2,,,74,127
84144,note_on,2,0,0,,4,,,76,127
84250,note_off,106,0,0,,4,,,76,127
84252,note_on,2,0,0,,0,,,72,127
84358,note_off,106,0,0,,0,,,72,127
84360,note_on,2,0,0,,2,,,74,127
84466,note_off,106,0,0,,2,,,74,127
84468,note_on,2,0,0,,12,,,71,127
84574,note_off,106,0,0,,12,,,71,127
84575,note_off,1,0,0,,7,,,55,127
84576,note_on,1,0,0,,0,,,72,127
84682,note_off,106,0,0,,0,,,72,127
84684,note_on,2,0,0,,10,,,69,127
84790,note_off,106,0,0,,10,,,69,127
84792,note_on,2,0,0,,2,,,74,127
84898,note_off,106,0,0,,2,,,74,127
84900,note_on,2,0,0,,6,,,66,127
85006,note_off,106,0,0,,6,,,66,127
85008,note_on,2,0,0,,7,,,67,127
85114,note_off,106,0,0,,7,,,67,127
85116,note_on,2,0,0,,6,,,66,127
85222,note_off,106,0,0,,6,,,66,127
85224,note_on,2,0,0,,7,,,67,127
85333,note_on,109,0,0,,2,,,62,127
85439,note_off,106,0,0,,2,,,62,127
85441,note_on,2,0,0,,4,,,64,127
85547,note_off,106,0,0,,4,,,64,127
85549,note_on,2,0,0,,0,,,60,127
85655,note_off,106,0,0,,0,,,60,127
85657,note_on,2,0,0,,2,,,62,127
85763,note_off,106,0,0,,2,,,62,127
85765,note_on,2,0,0,,12,,,59,127
85871,note_off,106,0,0,,12,,,59,127
85873,note_on,2,0,0,,0,,,60,127
85979,note_off,106,0,0,,0,,,60,127
85981,note_on,2,0,0,,10,,,57,127
86087,note_off,106,0,0,,10,,,57,127
86089,note_on,2,0,0,,2,,,62,127
86195,note_off,106,0,0,,2,,,62,127
86197,note_on,2,0,0,,6,,,54,127
86303,note_off,106,0,0,,6,,,54,127
86305,note_off,2,0,0,,7,,,67,127
86305,note_on,0,0,0,,7,,,55,127
86411,note_off,106,0,0,,7,,,55,127
86413,note_on,2,0,0,,6,,,54,127
86519,note_off,106,0,0,,6,,,54,127
86521,note_on,2,0,0,,7,,,55,127
86630,note_on,109,0,0,,2,,,50,127
86736,note_off,106,0,0,,2,,,50,127
86738,note_on,2,0,0,,4,,,52,127
86844,note_off,106,0,0,,4,,,52,127
86846,note_on,2,0,0,,0,,,48,127
86952,note_off,106,0,0,,0,,,48,127
86954,note_on,2,0,0,,2,,,50,127
87060,note_off,106,0,0,,2,,,50,127
87062,note_on,2,0,0,,12,,,47,127
87168,note_off,106,0,0,,12,,,47,127
87170,note_on,2,0,0,,0,,,48,127
87276,note_off,106,0,0,,0,,,48,127
87278,note_on,2,0,0,,10,,,45,127
87384,note_off,106,0,0,,10,,,45,127
87386,note_on,2,0,0,,2,,,50,127
87492,note_off,106,0,0,,2,,,50,127
87494,note_on,2,0,0,,6,,,42,127
87600,note_off,106,0,0,,6,,,42,127
87602,note_off,2,0,0,,7,,,55,127
87602,note_on,0,0,0,,7,,,43,127
87868,note_on,266,0,0,,7,,,79,127
88091,note_off,223,0,0,,7,,,79,127
88091,note_on,0,0,0,,7,,,55,127
88091,note_on,0,0,0,,7,,,79,127
88100,note_off,9,0,0,,7,,,43,127
88306,note_off,206,0,0,,7,,,79,127
88308,note_on,2,0,0,,7,,,79,127
88523,note_off,215,0,0,,7,,,79,127
88525,note_on,2,0,0,,7,,,67,127
88525,note_on,0,0,0,,7,,,79,127
88740,note_off,215,0,0,,7,,,79,127
88742,note_on,2,0,0,,7,,,79,127
88957,note_off,215,0,0,,7,,,79,127
88957,note_off,0,0,0,,7,,,67,127
88958,note_off,1,0,0,,7,,,55,127
88959,note_on,1,0,0,,7,,,55,127
88959,note_on,0,0,0,,7,,,67,127
88959,note_on,0,0,0,,11,,,82,127
89029,note_off,70,0,0,,11,,,82,127
89031,note_on,2,0,0,,8,,,80,127
89101,note_off,70,0,0,,8,,,80,127
89103,note_on,2,0,0,,11,,,82,127
89173,note_off,70,0,0,,11,,,82,127
89175,note_on,2,0,0,,8,,,80,127
89245,note_off,70,0,0,,8,,,80,127
89247,note_on,2,0,0,,11,,,82,127
89317,note_off,70,0,0,,11,,,82,127
89319,note_on,2,0,0,,8,,,80,127
89389,note_off,70,0,0,,8,,,80,127
89389,note_off,0,0,0,,7,,,67,127
89391,note_on,2,0,0,,5,,,65,127
89391,note_on,0,0,0,,11,,,82,127
89461,note_off,70,0,0,,11,,,82,127
89463,note_on,2,0,0,,8,,,80,127
89533,note_off,70,0,0,,8,,,80,127
89535,note_on,2,0,0,,11,,,82,127
89605,note_off,70,0,0,,11,,,82,127
89605,note_off,0,0,0,,5,,,65,127
89607,note_on,2,0,0,,3,,,63,127
89607,note_on,0,0,0,,8,,,80,127
89677,note_off,70,0,0,,8,,,80,127
89679,note_on,2,0,0,,7,,,79,127
89749,note_off,70,0,0,,7,,,79,127
89751,note_on,2,0,0,,8,,,80,127
89821,note_off,70,0,0,,3,,,63,127
89822,note_off,1,0,0,,7,,,55,127
89823,note_on,1,0,0,,7,,,55,127
89823,note_on,0,0,0,,5,,,65,127
89823,note_on,0,0,0,,2,,,86,127
90038,note_off,215,0,0,,2,,,86,127
90040,note_on,2,0,0,,0,,,84,127
90255,note_off,215,0,0,,0,,,84,127
90255,note_off,0,0,0,,5,,,65,127
90255,note_off,0,0,0,,7,,,55,127
90257,note_on,2,0,0,,7,,,55,127
90257,note_on,0,0,0,,5,,,65,127
90257,note_on,0,0,0,,12,,,83,127
90689,note_off,432,0,0,,5,,,65,127
90691,note_on,2,0,0,,3,,,63,127
90906,note_off,215,0,0,,3,,,63,127
90908,note_on,2,0,0,,2,,,62,127
91116,note_off,208,0,0,,8,,,80,127
91123,note_off,7,0,0,,2,,,62,127
91124,note_off,1,0,0,,12,,,83,127
91124,note_off,0,0,0,,7,,,55,127
91125,note_on,1,0,0,,3,,,63,127
91125,note_on,0,0,0,,7,,,55,127
91125,note_on,0,0,0,,7,,,79,127
91125,note_on,0,0,0,,0,,,84,127
91557,note_off,432,0,0,,3,,,63,127
91563,note_off,6,0,0,,7,,,55,127
91569,note_on,6,0,0,,6,,,54,127
91569,note_on,0,0,0,,3,,,63,127
91666,note_off,97,0,0,,0,,,84,127
91666,note_off,0,0,0,,7,,,79,127
91677,note_on,11,0,0,,0,,,72,127
91783,note_off,106,0,0,,0,,,72,127
91785,note_on,2,0,0,,2,,,74,127
91891,note_off,106,0,0,,2,,,74,127
91893,note_on,2,0,0,,3,,,75,127
91999,note_off,106,0,0,,3,,,75,127
91999,note_off,0,0,0,,3,,,63,127
91999,note_off,0,0,0,,6,,,54,127
92001,note_on,2,0,0,,3,,,63,127
92001,note_on,0,0,0,,6,,,54,127
92001,note_on,0,0,0,,5,,,77,127
92071,note_off,70,0,0,,5,,,77,127
92073,note_on,2,0,0,,3,,,75,127
92143,note_off,70,0,0,,3,,,75,127
92145,note_on,2,0,0,,5,,,77,127
92215,note_off,70,0,0,,5,,,77,127
92217,note_on,2,0,0,,3,,,75,127
92287,note_off,70,0,0,,3,,,75,127
92289,note_on,2,0,0,,5,,,77,127
92359,note_off,70,0,0,,5,,,77,127
92361,note_on,2,0,0,,3,,,75,127
92431,note_off,70,0,0,,3,,,75,127
92431,note_off,0,0,0,,6,,,54,127
92431,note_off,0,0,0,,3,,,63,127
92433,note_on,2,0,0,,3,,,63,127
92433,note_on,0,0,0,,6,,,54,127
92433,note_on,0,0,0,,5,,,77,127
92503,note_off,70,0,0,,5,,,77,127
92505,note_on,2,0,0,,3,,,75,127
92575,note_off,70,0,0,,3,,,75,127
92577,note_on,2,0,0,,5,,,77,127
92647,note_off,70,0,0,,5,,,77,127
92649,note_on,2,0,0,,3,,,75,127
92719,note_off,70,0,0,,3,,,75,127
92721,note_on,2,0,0,,2,,,74,127
92791,note_off,70,0,0,,2,,,74,127
92793,note_on,2,0,0,,0,,,72,127
92863,note_off,70,0,0,,0,,,72,127
92863,note_off,0,0,0,,6,,,54,127
92863,note_off,0,0,0,,3,,,63,127
92865,note_on,2,0,0,,7,,,55,127
92865,note_on,0,0,0,,0,,,72,127
92971,note_off,106,0,0,,0,,,72,127
92973,note_on,2,0,0,,12,,,71,127
93079,note_off,106,0,0,,12,,,71,127
93081,note_on,2,0,0,,10,,,69,127
93187,note_off,106,0,0,,10,,,69,127
93189,note_on,2,0,0,,7,,,67,127
93295,note_off,106,0,0,,7,,,67,127
93295,note_off,0,0,0,,7,,,55,127
93297,note_on,2,0,0,,7,,,67,127
93297,note_on,0,0,0,,7,,,79,127
93403,note_off,106,0,0,,7,,,67,127
93405,note_on,2,0,0,,5,,,65,127
93511,note_off,106,0,0,,5,,,65,127
93513,note_on,2,0,0,,3,,,63,127
93619,note_off,106,0,0,,3,,,63,127
93621,note_on,2,0,0,,2,,,62,127
93727,note_off,106,0,0,,2,,,62,127
93727,note_off,0,0,0,,7,,,79,127
93729,note_on,2,0,0,,0,,,60,127
93729,note_on,0,0,0,,7,,,79,127
93835,note_off,106,0,0,,0,,,60,127
93837,note_on,2,0,0,,11,,,58,127
93943,note_off,106,0,0,,11,,,58,127
93945,note_on,2,0,0,,8,,,56,127
94051,note_off,106,0,0,,8,,,56,127
94053,note_on,2,0,0,,7,,,55,127
94159,note_off,106,0,0,,7,,,55,127
94159,note_off,0,0,0,,7,,,79,127
94161,note_on,2,0,0,,5,,,53,127
94161,note_on,0,0,0,,7,,,79,127
94161,note_on,0,0,0,,8,,,80,127
94376,note_off,215,0,0,,7,,,79,127
94378,note_on,2,0,0,,5,,,77,127
94593,note_off,215,0,0,,5,,,77,127
94593,note_off,0,0,0,,5,,,53,127
94595,note_on,2,0,0,,5,,,65,127
94595,note_on,0,0,0,,5,,,53,127
94595,note_on,0,0,0,,5,,,77,127
94701,note_off,106,0,0,,5,,,77,127
94703,note_on,2,0,0,,3,,,75,127
94809,note_off,106,0,0,,3,,,75,127
94811,note_on,2,0,0,,3,,,75,127
94917,note_off,106,0,0,,3,,,75,127
94919,note_on,2,0,0,,2,,,74,127
95025,note_off,106,0,0,,2,,,74,127
95025,note_off,0,0,0,,5,,,53,127
95025,note_off,0,0,0,,5,,,65,127
95027,note_on,2,0,0,,5,,,53,127
95027,note_on,0,0,0,,5,,,65,127
95027,note_on,0,0,0,,2,,,74,127
95133,note_off,106,0,0,,2,,,74,127
95135,note_on,2,0,0,,0,,,72,127
95241,note_off,106,0,0,,0,,,72,127
95243,note_on,2,0,0,,12,,,71,127
95266,note_off,23,0,0,,8,,,80,127
95350,note_off,84,0,0,,12,,,71,127
95352,note_on,2,0,0,,0,,,72,127
95458,note_off,106,0,0,,0,,,72,127
95458,note_off,0,0,0,,5,,,65,127
95458,note_off,0,0,0,,5,,,53,127
95460,note_on,2,0,0,,7,,,55,127
95460,note_on,0,0,0,,5,,,65,127
95460,note_on,0,0,0,,0,,,72,127
95675,note_off,215,0,0,,0,,,72,127
95677,note_on,2,0,0,,12,,,71,127
95892,note_off,215,0,0,,5,,,65,127
95892,note_off,0,0,0,,7,,,55,127
95894,note_on,2,0,0,,7,,,55,127
95894,note_on,0,0,0,,5,,,65,127
96000,note_off,106,0,0,,12,,,71,127
96002,note_on,2,0,0,,12,,,83,127
96108,note_off,106,0,0,,12,,,83,127
96110,note_on,2,0,0,,10,,,81,127
96216,note_off,106,0,0,,10,,,81,127
96218,note_on,2,0,0,,12,,,83,127
96324,note_off,106,0,0,,12,,,83,127
96324,note_off,0,0,0,,5,,,65,127
96324,note_off,0,0,0,,7,,,55,127
96326,note_on,2,0,0,,0,,,60,127
96326,note_on,0,0,0,,0,,,84,127
96432,note_off,106,0,0,,0,,,84,127
96434,note_on,2,0,0,,7,,,79,127
96540,note_off,106,0,0,,7,,,79,127
96542,note_on,2,0,0,,5,,,77,127
96648,note_off,106,0,0,,5,,,77,127
96650,note_on,2,0,0,,7,,,79,127
96756,note_off,106,0,0,,7,,,79,127
96756,note_off,0,0,0,,0,,,60,127
96758,note_on,2,0,0,,5,,,53,127
96758,note_on,0,0,0,,11,,,82,127
96864,note_off,106,0,0,,11,,,82,127
96866,note_on,2,0,0,,8,,,80,127
96972,note_off,106,0,0,,8,,,80,127
96974,note_on,2,0,0,,7,,,79,127
97080,note_off,106,0,0,,7,,,79,127
97082,note_on,2,0,0,,5,,,77,127
97188,note_off,106,0,0,,5,,,77,127
97188,note_off,0,0,0,,5,,,53,127
97190,note_on,2,0,0,,7,,,55,127
97190,note_on,0,0,0,,5,,,77,127
97296,note_off,106,0,0,,5,,,77,127
97298,note_on,2,0,0,,3,,,75,127
97404,note_off,106,0,0,,3,,,75,127
97406,note_on,2,0,0,,2,,,74,127
97512,note_off,106,0,0,,2,,,74,127
97514,note_on,2,0,0,,0,,,72,127
97620,note_off,106,0,0,,0,,,72,127
97620,note_off,0,0,0,,7,,,55,127
97622,note_on,2,0,0,,7,,,43,127
97622,note_on,0,0,0,,3,,,75,127
97728,note_off,106,0,0,,3,,,75,127
97730,note_on,2,0,0,,2,,,74,127
97836,note_off,106,0,0,,2,,,74,127
97838,note_on,2,0,0,,0,,,72,127
97944,note_off,106,0,0,,0,,,72,127
97946,note_on,2,0,0,,12,,,71,127
98052,note_off,106,0,0,,12,,,71,127
98052,note_off,0,0,0,,7,,,43,127
98054,note_on,2,0,0,,0,,,48,127
98054,note_on,0,0,0,,0,,,72,127
98314,note_on,260,0,0,,7,,,79,127
98321,note_off,7,0,0,,0,,,72,127
98486,note_off,165,0,0,,0,,,48,127
98529,note_off,43,0,0,,7,,,79,127
98531,note_on,2,0,0,,7,,,79,127
98531,note_on,0,0,0,,7,,,55,127
98746,note_off,215,0,0,,7,,,79,127
98748,note_on,2,0,0,,7,,,79,127
98963,note_off,215,0,0,,7,,,79,127
98965,note_on,2,0,0,,7,,,79,127
98965,note_on,0,0,0,,7,,,67,127
99180,note_off,215,0,0,,7,,,79,127
99182,note_on,2,0,0,,7,,,79,127
99397,note_off,215,0,0,,7,,,79,127
99397,note_off,0,0,0,,7,,,67,127
99398,note_off,1,0,0,,7,,,55,127
99399,note_on,1,0,0,,11,,,82,127
99399,note_on,0,0,0,,7,,,55,127
99399,note_on,0,0,0,,7,,,67,127
99469,note_off,70,0,0,,11,,,82,127
99471,note_on,2,0,0,,8,,,80,127
99541,note_off,70,0,0,,8,,,80,127
99543,note_on,2,0,0,,11,,,82,127
99613,note_off,70,0,0,,11,,,82,127
99615,note_on,2,0,0,,8,,,80,127
99685,note_off,70,0,0,,8,,,80,127
99687,note_on,2,0,0,,11,,,82,127
99757,note_off,70,0,0,,11,,,82,127
99759,note_on,2,0,0,,8,,,80,127
99829,note_off,70,0,0,,8,,,80,127
99829,note_off,0,0,0,,7,,,67,127
99831,note_on,2,0,0,,11,,,82,127
99831,note_on,0,0,0,,5,,,65,127
99901,note_off,70,0,0,,11,,,82,127
99903,note_on,2,0,0,,8,,,80,127
99973,note_off,70,0,0,,8,,,80,127
99975,note_on,2,0,0,,11,,,82,127
100045,note_off,70,0,0,,11,,,82,127
100045,note_off,0,0,0,,5,,,65,127
100047,note_on,2,0,0,,8,,,80,127
100047,note_on,0,0,0,,3,,,63,127
100117,note_off,70,0,0,,8,,,80,127
100119,note_on,2,0,0,,7,,,79,127
100189,note_off,70,0,0,,7,,,79,127
100191,note_on,2,0,0,,8,,,80,127
100261,note_off,70,0,0,,3,,,63,127
100262,note_off,1,0,0,,7,,,55,127
100263,note_on,1,0,0,,2,,,86,127
100263,note_on,0,0,0,,5,,,65,127
100263,note_on,0,0,0,,7,,,55,127
100478,note_off,215,0,0,,2,,,86,127
100480,note_on,2,0,0,,0,,,84,127
100695,note_off,215,0,0,,0,,,84,127
100695,note_off,0,0,0,,7,,,55,127
100695,note_off,0,0,0,,5,,,65,127
100697,note_on,2,0,0,,12,,,83,127
100697,note_on,0,0,0,,5,,,65,127
100697,note_on,0,0,0,,7,,,55,127
101129,note_off,432,0,0,,5,,,65,127
101131,note_on,2,0,0,,3,,,63,127
101346,note_off,215,0,0,,3,,,63,127
101348,note_on,2,0,0,,2,,,62,127
101556,note_off,208,0,0,,8,,,80,127
101563,note_off,7,0,0,,2,,,62,127
101564,note_off,1,0,0,,7,,,55,127
101564,note_off,0,0,0,,12,,,83,127
101565,note_on,1,0,0,,7,,,79,127
101565,note_on,0,0,0,,0,,,84,127
101565,note_on,0,0,0,,3,,,63,127
101565,note_on,0,0,0,,7,,,55,127
101997,note_off,432,0,0,,7,,,55,127
101997,note_off,0,0,0,,3,,,63,127
102008,note_on,11,0,0,,6,,,54,127
102008,note_on,0,0,0,,3,,,63,127
102062,note_off,54,0,0,,7,,,79,127
102073,note_off,11,0,0,,0,,,84,127
102116,note_on,43,0,0,,0,,,72,127
102222,note_off,106,0,0,,0,,,72,127
102224,note_on,2,0,0,,2,,,74,127
102330,note_off,106,0,0,,2,,,74,127
102332,note_on,2,0,0,,3,,,75,127
102438,note_off,106,0,0,,3,,,75,127
102438,note_off,0,0,0,,3,,,63,127
102438,note_off,0,0,0,,6,,,54,127
102440,note_on,2,0,0,,5,,,77,127
102440,note_on,0,0,0,,6,,,54,127
102440,note_on,0,0,0,,3,,,63,127
102510,note_off,70,0,0,,5,,,77,127
102512,note_on,2,0,0,,3,,,75,127
102582,note_off,70,0,0,,3,,,75,127
102584,note_on,2,0,0,,5,,,77,127
102654,note_off,70,0,0,,5,,,77,127
102656,note_on,2,0,0,,3,,,75,127
102726,note_off,70,0,0,,3,,,75,127
102728,note_on,2,0,0,,5,,,77,127
102798,note_off,70,0,0,,5,,,77,127
102800,note_on,2,0,0,,3,,,75,127
102870,note_off,70,0,0,,3,,,75,127
102870,note_off,0,0,0,,3,,,63,127
102870,note_off,0,0,0,,6,,,54,127
102872,note_on,2,0,0,,5,,,77,127
102872,note_on,0,0,0,,6,,,54,127
102872,note_on,0,0,0,,3,,,63,127
102942,note_off,70,0,0,,5,,,77,127
102944,note_on,2,0,0,,3,,,75,127
103014,note_off,70,0,0,,3,,,75,127
103016,note_on,2,0,0,,5,,,77,127
103086,note_off,70,0,0,,5,,,77,127
103088,note_on,2,0,0,,3,,,75,127
103158,note_off,70,0,0,,3,,,75,127
103160,note_on,2,0,0,,2,,,74,127
103230,note_off,70,0,0,,2,,,74,127
103232,note_on,2,0,0,,0,,,72,127
103302,note_off,70,0,0,,0,,,72,127
103302,note_off,0,0,0,,3,,,63,127
103302,note_off,0,0,0,,6,,,54,127
103304,note_on,2,0,0,,0,,,72,127
103304,note_on,0,0,0,,7,,,55,127
103410,note_off,106,0,0,,0,,,72,127
103412,note_on,2,0,0,,12,,,71,127
103518,note_off,106,0,0,,12,,,71,127
103520,note_on,2,0,0,,10,,,69,127
103626,note_off,106,0,0,,10,,,69,127
103628,note_on,2,0,0,,7,,,67,127
103734,note_off,106,0,0,,7,,,67,127
103734,note_off,0,0,0,,7,,,55,127
103736,note_on,2,0,0,,7,,,79,127
103736,note_on,0,0,0,,7,,,67,127
103842,note_off,106,0,0,,7,,,67,127
103844,note_on,2,0,0,,5,,,65,127
103950,note_off,106,0,0,,5,,,65,127
103952,note_on,2,0,0,,3,,,63,127
104058,note_off,106,0,0,,3,,,63,127
104060,note_on,2,0,0,,2,,,62,127
104166,note_off,106,0,0,,2,,,62,127
104166,note_off,0,0,0,,7,,,79,127
104168,note_on,2,0,0,,7,,,79,127
104168,note_on,0,0,0,,0,,,60,127
104274,note_off,106,0,0,,0,,,60,127
104276,note_on,2,0,0,,11,,,58,127
104382,note_off,106,0,0,,11,,,58,127
104384,note_on,2,0,0,,8,,,56,127
104490,note_off,106,0,0,,8,,,56,127
104492,note_on,2,0,0,,7,,,55,127
104598,note_off,106,0,0,,7,,,55,127
104598,note_off,0,0,0,,7,,,79,127
104600,note_on,2,0,0,,7,,,79,127
104600,note_on,0,0,0,,8,,,80,127
104600,note_on,0,0,0,,5,,,53,127
104815,note_off,215,0,0,,7,,,79,127
104817,note_on,2,0,0,,5,,,77,127
105030,note_off,213,0,0,,8,,,80,127
105032,note_off,2,0,0,,5,,,77,127
105032,note_off,0,0,0,,5,,,53,127
105034,note_on,2,0,0,,5,,,77,127
105034,note_on,0,0,0,,5,,,65,127
105034,note_on,0,0,0,,5,,,53,127
105143,note_on,109,0,0,,3,,,75,127
105249,note_off,106,0,0,,3,,,75,127
105251,note_on,2,0,0,,3,,,75,127
105357,note_off,106,0,0,,3,,,75,127
105359,note_on,2,0,0,,2,,,74,127
105463,note_off,104,0,0,,5,,,77,127
105465,note_off,2,0,0,,2,,,74,127
105465,note_off,0,0,0,,5,,,53,127
105465,note_off,0,0,0,,5,,,65,127
105467,note_on,2,0,0,,2,,,74,127
105467,note_on,0,0,0,,5,,,53,127
105467,note_on,0,0,0,,5,,,65,127
105573,note_off,106,0,0,,2,,,74,127
105575,note_on,2,0,0,,0,,,72,127
105681,note_off,106,0,0,,0,,,72,127
105683,note_on,2,0,0,,12,,,71,127
105789,note_off,106,0,0,,12,,,71,127
105791,note_on,2,0,0,,0,,,72,127
105897,note_off,106,0,0,,0,,,72,127
105897,note_off,0,0,0,,5,,,65,127
105897,note_off,0,0,0,,5,,,53,127
105899,note_on,2,0,0,,0,,,72,127
105899,note_on,0,0,0,,5,,,65,127
105899,note_on,0,0,0,,7,,,55,127
106114,note_off,215,0,0,,0,,,72,127
106116,note_on,2,0,0,,12,,,71,127
106331,note_off,215,0,0,,7,,,55,127
106331,note_off,0,0,0,,5,,,65,127
106333,note_on,2,0,0,,7,,,55,127
106333,note_on,0,0,0,,5,,,65,127
106439,note_off,106,0,0,,12,,,71,127
106441,note_on,2,0,0,,12,,,83,127
106547,note_off,106,0,0,,12,,,83,127
106549,note_on,2,0,0,,10,,,81,127
106655,note_off,106,0,0,,10,,,81,127
106657,note_on,2,0,0,,12,,,83,127
106763,note_off,106,0,0,,12,,,83,127
106763,note_off,0,0,0,,5,,,65,127
106763,note_off,0,0,0,,7,,,55,127
106765,note_on,2,0,0,,0,,,84,127
106765,note_on,0,0,0,,0,,,60,127
106871,note_off,106,0,0,,0,,,84,127
106873,note_on,2,0,0,,7,,,79,127
106979,note_off,106,0,0,,7,,,79,127
106981,note_on,2,0,0,,5,,,77,127
107087,note_off,106,0,0,,5,,,77,127
107089,note_on,2,0,0,,7,,,79,127
107195,note_off,106,0,0,,7,,,79,127
107195,note_off,0,0,0,,0,,,60,127
107197,note_on,2,0,0,,11,,,82,127
107197,note_on,0,0,0,,5,,,53,127
107303,note_off,106,0,0,,11,,,82,127
107305,note_on,2,0,0,,8,,,80,127
107411,note_off,106,0,0,,8,,,80,127
107413,note_on,2,0,0,,7,,,79,127
107519,note_off,106,0,0,,7,,,79,127
107521,note_on,2,0,0,,5,,,77,127
107627,note_off,106,0,0,,5,,,77,127
107627,note_off,0,0,0,,5,,,53,127
107629,note_on,2,0,0,,5,,,77,127
107629,note_on,0,0,0,,7,,,55,127
107735,note_off,106,0,0,,5,,,77,127
107737,note_on,2,0,0,,3,,,75,127
107843,note_off,106,0,0,,3,,,75,127
107845,note_on,2,0,0,,2,,,74,127
107951,note_off,106,0,0,,2,,,74,127
107953,note_on,2,0,0,,0,,,72,127
108059,note_off,106,0,0,,0,,,72,127
108059,note_off,0,0,0,,7,,,55,127
108061,note_on,2,0,0,,3,,,75,127
108061,note_on,0,0,0,,7,,,43,127
108167,note_off,106,0,0,,3,,,75,127
108169,note_on,2,0,0,,2,,,74,127
108275,note_off,106,0,0,,2,,,74,127
108277,note_on,2,0,0,,0,,,72,127
108383,note_off,106,0,0,,0,,,72,127
108385,note_on,2,0,0,,12,,,71,127
108491,note_off,106,0,0,,7,,,43,127
108493,note_off,2,0,0,,12,,,71,127
108502,note_on,9,0,0,,0,,,72,127
108502,note_on,0,0,0,,0,,,48,127
108611,note_on,109,0,0,,0,,,84,127
108717,note_off,106,0,0,,0,,,84,127
108717,note_off,0,0,0,,0,,,72,127
108719,note_on,2,0,0,,4,,,76,127
108825,note_off,106,0,0,,4,,,76,127
108827,note_on,2,0,0,,5,,,77,127
108933,note_off,106,0,0,,5,,,77,127
108933,note_off,0,0,0,,0,,,48,127
108935,note_on,2,0,0,,7,,,79,127
108935,note_on,0,0,0,,7,,,55,127
109041,note_off,106,0,0,,7,,,79,127
109043,note_on,2,0,0,,4,,,76,127
109149,note_off,106,0,0,,4,,,76,127
109151,note_on,2,0,0,,5,,,77,127
109257,note_off,106,0,0,,5,,,77,127
109259,note_on,2,0,0,,2,,,74,127
109365,note_off,106,0,0,,2,,,74,127
109365,note_off,0,0,0,,7,,,55,127
109367,note_on,2,0,0,,4,,,76,127
109367,note_on,0,0,0,,7,,,79,127
109367,note_on,0,0,0,,7,,,43,127
109473,note_off,106,0,0,,4,,,76,127
109475,note_on,2,0,0,,0,,,72,127
109581,note_off,106,0,0,,0,,,72,127
109583,note_on,2,0,0,,2,,,74,127
109689,note_off,106,0,0,,2,,,74,127
109691,note_on,2,0,0,,12,,,71,127
109795,note_off,104,0,0,,7,,,79,127
109797,note_off,2,0,0,,12,,,71,127
109797,note_off,0,0,0,,7,,,43,127
109799,note_on,2,0,0,,0,,,72,127
109799,note_on,0,0,0,,0,,,48,127
109905,note_off,106,0,0,,0,,,72,127
109907,note_on,2,0,0,,4,,,76,127
110013,note_off,106,0,0,,4,,,76,127
110015,note_on,2,0,0,,4,,,64,127
110121,note_off,106,0,0,,4,,,64,127
110123,note_on,2,0,0,,5,,,65,127
110229,note_off,106,0,0,,5,,,65,127
110229,note_off,0,0,0,,0,,,48,127
110231,note_on,2,0,0,,7,,,67,127
110231,note_on,0,0,0,,7,,,55,127
110337,note_off,106,0,0,,7,,,67,127
110339,note_on,2,0,0,,4,,,64,127
110445,note_off,106,0,0,,4,,,64,127
110447,note_on,2,0,0,,5,,,65,127
110553,note_off,106,0,0,,5,,,65,127
110555,note_on,2,0,0,,2,,,62,127
110661,note_off,106,0,0,,2,,,62,127
110661,note_off,0,0,0,,7,,,55,127
110663,note_on,2,0,0,,4,,,64,127
110663,note_on,0,0,0,,7,,,67,127
110663,note_on,0,0,0,,7,,,43,127
110769,note_off,106,0,0,,4,,,64,127
110771,note_on,2,0,0,,0,,,60,127
110877,note_off,106,0,0,,0,,,60,127
110879,note_on,2,0,0,,2,,,62,127
110985,note_off,106,0,0,,2,,,62,127
110987,note_on,2,0,0,,12,,,59,127
111091,note_off,104,0,0,,7,,,67,127
111093,note_off,2,0,0,,12,,,59,127
111095,note_on,2,0,0,,0,,,60,127
111201,note_off,106,0,0,,0,,,60,127
111201,note_off,0,0,0,,7,,,43,127
111203,note_on,2,0,0,,0,,,60,127
111309,note_off,106,0,0,,0,,,60,127
111311,note_on,2,0,0,,4,,,52,127
111417,note_off,106,0,0,,4,,,52,127
111419,note_on,2,0,0,,5,,,53,127
111525,note_off,106,0,0,,5,,,53,127
111527,note_on,2,0,0,,7,,,55,127
111633,note_off,106,0,0,,7,,,55,127
111635,note_on,2,0,0,,4,,,52,127
111741,note_off,106,0,0,,4,,,52,127
111743,note_on,2,0,0,,5,,,53,127
111849,note_off,106,0,0,,5,,,53,127
111851,note_on,2,0,0,,2,,,50,127
111957,note_off,106,0,0,,2,,,50,127
111959,note_on,2,0,0,,4,,,52,127
112065,note_off,106,0,0,,4,,,52,127
112067,note_on,2,0,0,,0,,,48,127
112173,note_off,106,0,0,,0,,,48,127
112175,note_on,2,0,0,,7,,,55,127
112281,note_off,106,0,0,,7,,,55,127
112283,note_on,2,0,0,,12,,,47,127
112389,note_off,106,0,0,,12,,,47,127
112391,note_on,2,0,0,,0,,,48,127
112497,note_off,106,0,0,,0,,,48,127
112499,note_on,2,0,0,,7,,,43,127
112605,note_off,106,0,0,,7,,,43,127
112607,note_on,2,0,0,,10,,,45,127
112713,note_off,106,0,0,,10,,,45,127
112715,note_on,2,0,0,,12,,,47,127
112821,note_off,106,0,0,,12,,,47,127
112823,note_on,2,0,0,,0,,,48,127
112929,note_off,106,0,0,,0,,,48,127
112931,note_on,2,0,0,,4,,,40,127
113037,note_off,106,0,0,,4,,,40,127
113039,note_on,2,0,0,,5,,,41,127
113145,note_off,106,0,0,,5,,,41,127
113147,note_on,2,0,0,,7,,,43,127
113266,note_off,119,0,0,,7,,,43,127
113274,note_on,8,0,0,,0,,,36,127
113274,note_on,0,0,0,,0,,,84,127
113380,note_off,106,0,0,,0,,,84,127
113382,note_on,2,0,0,,7,,,79,127
113488,note_off,106,0,0,,7,,,79,127
113490,note_on,2,0,0,,4,,,76,127
113596,note_off,106,0,0,,4,,,76,127
113598,note_on,2,0,0,,0,,,72,127
113704,note_off,106,0,0,,0,,,72,127
113704,note_off,0,0,0,,0,,,36,127
113706,note_on,2,0,0,,5,,,41,127
113706,note_on,0,0,0,,10,,,81,127
113812,note_off,106,0,0,,10,,,81,127
113814,note_on,2,0,0,,5,,,77,127
113920,note_off,106,0,0,,5,,,77,127
113922,note_on,2,0,0,,0,,,72,127
114028,note_off,106,0,0,,0,,,72,127
114030,note_on,2,0,0,,10,,,69,127
114136,note_off,106,0,0,,5,,,41,127
114138,note_on,2,0,0,,5,,,41,127
114244,note_off,106,0,0,,10,,,69,127
114246,note_on,2,0,0,,12,,,71,127
114352,note_off,106,0,0,,12,,,71,127
114354,note_on,2,0,0,,0,,,72,127
114460,note_off,106,0,0,,0,,,72,127
114462,note_on,2,0,0,,2,,,74,127
114568,note_off,106,0,0,,2,,,74,127
114568,note_off,0,0,0,,5,,,41,127
114570,note_on,2,0,0,,7,,,43,127
114570,note_on,0,0,0,,4,,,76,127
114640,note_off,70,0,0,,4,,,76,127
114642,note_on,2,0,0,,2,,,74,127
114712,note_off,70,0,0,,2,,,74,127
114714,note_on,2,0,0,,4,,,76,127
114784,note_off,70,0,0,,4,,,76,127
114786,note_on,2,0,0,,2,,,74,127
114856,note_off,70,0,0,,2,,,74,127
114858,note_on,2,0,0,,0,,,72,127
114928,note_off,70,0,0,,0,,,72,127
114930,note_on,2,0,0,,2,,,74,127
115015,note_off,85,0,0,,2,,,74,127
115027,note_off,12,0,0,,7,,,43,127
115038,note_on,11,0,0,,0,,,48,127
115038,note_on,0,0,0,,0,,,84,127
115144,note_off,106,0,0,,0,,,84,127
115146,note_on,2,0,0,,7,,,79,127
115252,note_off,106,0,0,,7,,,79,127
115254,note_on,2,0,0,,4,,,76,127
115360,note_off,106,0,0,,4,,,76,127
115362,note_on,2,0,0,,0,,,72,127
115468,note_off,106,0,0,,0,,,72,127
115468,note_off,0,0,0,,0,,,48,127
115470,note_on,2,0,0,,5,,,41,127
115470,note_on,0,0,0,,5,,,53,127
115470,note_on,0,0,0,,10,,,81,127
115576,note_off,106,0,0,,10,,,81,127
115578,note_on,2,0,0,,5,,,77,127
115684,note_off,106,0,0,,5,,,77,127
115686,note_on,2,0,0,,10,,,69,127
115738,note_off,52,0,0,,10,,,69,127
115740,note_on,2,0,0,,12,,,71,127
115792,note_off,52,0,0,,12,,,71,127
115794,note_on,2,0,0,,0,,,72,127
115846,note_off,52,0,0,,0,,,72,127
115848,note_on,2,0,0,,2,,,74,127
115900,note_off,52,0,0,,2,,,74,127
115900,note_off,0,0,0,,5,,,53,127
115900,note_off,0,0,0,,5,,,41,127
115902,note_on,2,0,0,,4,,,76,127
115902,note_on,0,0,0,,7,,,55,127
115902,note_on,0,0,0,,7,,,43,127
115972,note_off,70,0,0,,4,,,76,127
115974,note_on,2,0,0,,2,,,74,127
116044,note_off,70,0,0,,2,,,74,127
116046,note_on,2,0,0,,4,,,76,127
116116,note_off,70,0,0,,4,,,76,127
116118,note_on,2,0,0,,2,,,74,127
116188,note_off,70,0,0,,2,,,74,127
116190,note_on,2,0,0,,0,,,72,127
116260,note_off,70,0,0,,0,,,72,127
116262,note_on,2,0,0,,2,,,74,127
116348,note_off,86,0,0,,2,,,74,127
116349,note_off,1,0,0,,7,,,43,127
116349,note_off,0,0,0,,7,,,55,127
116380,note_on,31,0,0,,0,,,84,127
116380,note_on,0,0,0,,0,,,48,127
116486,note_off,106,0,0,,0,,,84,127
116488,note_on,2,0,0,,7,,,79,127
116594,note_off,106,0,0,,7,,,79,127
116596,note_on,2,0,0,,4,,,76,127
116702,note_off,106,0,0,,4,,,76,127
116704,note_on,2,0,0,,0,,,72,127
116810,note_off,106,0,0,,0,,,72,127
116810,note_off,0,0,0,,0,,,48,127
116812,note_on,2,0,0,,10,,,81,127
116812,note_on,0,0,0,,5,,,41,127
116918,note_off,106,0,0,,10,,,81,127
116920,note_on,2,0,0,,5,,,77,127
117026,note_off,106,0,0,,5,,,77,127
117028,note_on,2,0,0,,10,,,69,127
117080,note_off,52,0,0,,10,,,69,127
117085,note_on,5,0,0,,12,,,71,127
117137,note_off,52,0,0,,12,,,71,127
117143,note_on,6,0,0,,0,,,72,127
117202,note_on,59,0,0,,2,,,74,127
117207,note_off,5,0,0,,0,,,72,127
117273,note_off,66,0,0,,2,,,74,127
117293,note_off,20,0,0,,5,,,41,127
117303,note_on,10,0,0,,4,,,64,127
117303,note_on,0,0,0,,7,,,43,127
117373,note_off,70,0,0,,4,,,64,127
117373,note_on,0,0,0,,2,,,62,127
117443,note_off,70,0,0,,2,,,62,127
117443,note_on,0,0,0,,4,,,64,127
117513,note_off,70,0,0,,4,,,64,127
117513,note_on,0,0,0,,2,,,62,127
117583,note_off,70,0,0,,2,,,62,127
117583,note_on,0,0,0,,4,,,64,127
117653,note_off,70,0,0,,4,,,64,127
117653,note_on,0,0,0,,2,,,62,127
117729,note_on,76,0,0,,0,,,60,127
117741,note_off,12,0,0,,2,,,62,127
117804,note_on,63,0,0,,2,,,62,127
117816,note_off,12,0,0,,0,,,60,127
117856,note_off,40,0,0,,7,,,43,127
117898,note_off,42,0,0,,2,,,62,127
117904,note_on,6,0,0,,0,,,36,127
117904,note_on,0,0,0,,0,,,48,127
117904,note_on,0,0,0,,0,,,60,127
119942,note_off,2038,0,0,,0,,,60,127
119942,note_off,0,0,0,,0,,,48,127
119942,note_off,0,0,0,,0,,,36,127
125952,end_of_track,6010,1,0,,,,,,
