tick,type,time,meta,track,program,channel,pitch,tempo,note,velocity
0,copyright,0,1,0,,,,,,
0,program_change,0,0,0,6,0,,,,
0,pitchwheel,0,0,0,,0,0,,,
0,program_change,0,0,0,6,1,,,,
0,pitchwheel,0,0,0,,1,-590,,,
0,program_change,0,0,0,6,2,,,,
0,pitchwheel,0,0,0,,2,-272,,,
0,program_change,0,0,0,6,3,,,,
0,pitchwheel,0,0,0,,3,-353,,,
0,program_change,0,0,0,6,4,,,,
0,pitchwheel,0,0,0,,4,-560,,,
0,program_change,0,0,0,6,5,,,,
0,pitchwheel,0,0,0,,5,-80,,,
0,program_change,0,0,0,6,6,,,,
0,pitchwheel,0,0,0,,6,-625,,,
0,program_change,0,0,0,6,7,,,,
0,pitchwheel,0,0,0,,7,-130,,,
0,program_change,0,0,0,6,8,,,,
0,pitchwheel,0,0,0,,8,-512,,,
0,program_change,0,0,0,6,10,,,,
0,pitchwheel,0,0,0,,10,-464,,,
0,program_change,0,0,0,6,11,,,,
0,pitchwheel,0,0,0,,11,-208,,,
0,program_change,0,0,0,6,12,,,,
0,pitchwheel,0,0,0,,12,-553,,,
0,set_tempo,0,1,0,,,,500000,,
125,note_on,125,0,0,,7,,,79,127
375,note_on,250,0,0,,3,,,75,127
624,note_off,249,0,0,,3,,,75,127
624,note_off,0,0,0,,7,,,79,127
625,note_on,1,0,0,,2,,,74,127
625,note_on,0,0,0,,5,,,77,127
874,note_off,249,0,0,,2,,,74,127
875,note_on,1,0,0,,0,,,72,127
1124,note_off,249,0,0,,5,,,77,127
1125,note_on,1,0,0,,5,,,77,127
1186,note_off,61,0,0,,5,,,77,127
1187,note_on,1,0,0,,3,,,75,127
1248,note_off,61,0,0,,3,,,75,127
1249,note_on,1,0,0,,5,,,77,127
1310,note_off,61,0,0,,5,,,77,127
1311,note_on,1,0,0,,3,,,75,127
1372,note_off,61,0,0,,3,,,75,127
1372,note_off,0,0,0,,0,,,72,127
1373,note_on,1,0,0,,11,,,70,127
1373,note_on,0,0,0,,2,,,74,127
1622,note_off,249,0,0,,11,,,70,127
1623,note_on,1,0,0,,8,,,68,127
1686,note_off,63,0,0,,2,,,74,127
1686,note_on,0,0,0,,0,,,72,127
1747,note_off,61,0,0,,0,,,72,127
1748,note_on,1,0,0,,2,,,74,127
1809,note_off,61,0,0,,2,,,74,127
1810,note_on,1,0,0,,0,,,72,127
1871,note_off,61,0,0,,0,,,72,127
1871,note_off,0,0,0,,8,,,68,127
1872,note_on,1,0,0,,7,,,67,127
1872,note_on,0,0,0,,12,,,71,127
2121,note_off,249,0,0,,12,,,71,127
2121,note_off,0,0,0,,7,,,67,127
2122,note_on,1,0,0,,5,,,65,127
2122,note_on,0,0,0,,0,,,72,127
2371,note_off,249,0,0,,5,,,65,127
2372,note_on,1,0,0,,3,,,63,127
2569,note_off,197,0,0,,0,,,72,127
2622,note_on,53,0,0,,7,,,67,127
2871,note_off,249,0,0,,7,,,67,127
2871,note_off,0,0,0,,3,,,63,127
2872,note_on,1,0,0,,2,,,62,127
2872,note_on,0,0,0,,5,,,65,127
3121,note_off,249,0,0,,2,,,62,127
3122,note_on,1,0,0,,0,,,60,127
3371,note_off,249,0,0,,5,,,65,127
3372,note_on,1,0,0,,5,,,65,127
3433,note_off,61,0,0,,5,,,65,127
3434,note_on,1,0,0,,3,,,63,127
3495,note_off,61,0,0,,3,,,63,127
3496,note_on,1,0,0,,5,,,65,127
3557,note_off,61,0,0,,5,,,65,127
3558,note_on,1,0,0,,3,,,63,127
3619,note_off,61,0,0,,3,,,63,127
3619,note_off,0,0,0,,0,,,60,127
3620,note_on,1,0,0,,11,,,58,127
3620,note_on,0,0,0,,2,,,62,127
3869,note_off,249,0,0,,11,,,58,127
3870,note_on,1,0,0,,8,,,56,127
3933,note_off,63,0,0,,2,,,62,127
3933,note_on,0,0,0,,0,,,60,127
3994,note_off,61,0,0,,0,,,60,127
3995,note_on,1,0,0,,2,,,62,127
4056,note_off,61,0,0,,2,,,62,127
4057,note_on,1,0,0,,0,,,60,127
4118,note_off,61,0,0,,0,,,60,127
4118,note_off,0,0,0,,8,,,56,127
4119,note_on,1,0,0,,7,,,55,127
4119,note_on,0,0,0,,12,,,59,127
4368,note_off,249,0,0,,12,,,59,127
4368,note_off,0,0,0,,7,,,55,127
4369,note_on,1,0,0,,5,,,53,127
4369,note_on,0,0,0,,0,,,60,127
4618,note_off,249,0,0,,0,,,60,127
4618,note_off,0,0,0,,5,,,53,127
4619,note_on,1,0,0,,3,,,51,127
4619,note_on,0,0,0,,7,,,55,127
4869,note_on,250,0,0,,7,,,67,127
5114,note_off,245,0,0,,7,,,55,127
5118,note_off,4,0,0,,7,,,67,127
5118,note_off,0,0,0,,3,,,51,127
5119,note_on,1,0,0,,3,,,51,127
5119,note_on,0,0,0,,7,,,55,127
5119,note_on,0,0,0,,0,,,60,127
5368,note_off,249,0,0,,7,,,55,127
5368,note_off,0,0,0,,3,,,51,127
5369,note_on,1,0,0,,5,,,53,127
5369,note_on,0,0,0,,2,,,50,127
5618,note_off,249,0,0,,0,,,60,127
5619,note_on,1,0,0,,12,,,59,127
5868,note_off,249,0,0,,12,,,59,127
5868,note_off,0,0,0,,2,,,50,127
5868,note_off,0,0,0,,5,,,53,127
5869,note_on,1,0,0,,3,,,51,127
5869,note_on,0,0,0,,7,,,55,127
5869,note_on,0,0,0,,0,,,60,127
6118,note_off,249,0,0,,7,,,55,127
6118,note_off,0,0,0,,3,,,51,127
6119,note_on,1,0,0,,5,,,53,127
6119,note_on,0,0,0,,12,,,47,127
6244,note_off,125,0,0,,0,,,60,127
6369,note_on,125,0,0,,2,,,62,127
6618,note_off,249,0,0,,2,,,62,127
6618,note_off,0,0,0,,12,,,47,127
6618,note_off,0,0,0,,5,,,53,127
6619,note_on,1,0,0,,0,,,48,127
6619,note_on,0,0,0,,3,,,63,127
6868,note_off,249,0,0,,0,,,48,127
6869,note_on,1,0,0,,2,,,50,127
6869,note_on,0,0,0,,12,,,59,127
7066,note_off,197,0,0,,3,,,63,127
7119,note_on,53,0,0,,5,,,65,127
7368,note_off,249,0,0,,5,,,65,127
7368,note_off,0,0,0,,12,,,59,127
7368,note_off,0,0,0,,2,,,50,127
7369,note_on,1,0,0,,3,,,51,127
7369,note_on,0,0,0,,0,,,60,127
7369,note_on,0,0,0,,7,,,67,127
7618,note_off,249,0,0,,0,,,60,127
7618,note_off,0,0,0,,3,,,51,127
7619,note_on,1,0,0,,0,,,60,127
7619,note_on,0,0,0,,5,,,53,127
7816,note_off,197,0,0,,7,,,67,127
7869,note_on,53,0,0,,10,,,69,127
8118,note_off,249,0,0,,10,,,69,127
8118,note_off,0,0,0,,5,,,53,127
8118,note_off,0,0,0,,0,,,60,127
8119,note_on,1,0,0,,7,,,55,127
8119,note_on,0,0,0,,12,,,71,127
8368,note_off,249,0,0,,7,,,55,127
8369,note_on,1,0,0,,5,,,65,127
8369,note_on,0,0,0,,10,,,57,127
8566,note_off,197,0,0,,12,,,71,127
8619,note_on,53,0,0,,0,,,72,127
8868,note_off,249,0,0,,0,,,72,127
8868,note_off,0,0,0,,10,,,57,127
8869,note_on,1,0,0,,12,,,59,127
8869,note_on,0,0,0,,2,,,74,127
9118,note_off,249,0,0,,12,,,59,127
9118,note_off,0,0,0,,5,,,65,127
9119,note_on,1,0,0,,0,,,60,127
9119,note_on,0,0,0,,7,,,67,127
9316,note_off,197,0,0,,2,,,74,127
9369,note_on,53,0,0,,3,,,75,127
9618,note_off,249,0,0,,3,,,75,127
9618,note_off,0,0,0,,7,,,67,127
9618,note_off,0,0,0,,0,,,60,127
9619,note_on,1,0,0,,2,,,62,127
9619,note_on,0,0,0,,12,,,71,127
9619,note_on,0,0,0,,5,,,77,127
9868,note_off,249,0,0,,12,,,71,127
9868,note_off,0,0,0,,2,,,62,127
9869,note_on,1,0,0,,0,,,72,127
9869,note_on,0,0,0,,3,,,63,127
10066,note_off,197,0,0,,5,,,77,127
10119,note_on,53,0,0,,7,,,79,127
10368,note_off,249,0,0,,7,,,79,127
10368,note_off,0,0,0,,3,,,63,127
10368,note_off,0,0,0,,0,,,72,127
10369,note_on,1,0,0,,5,,,65,127
10369,note_on,0,0,0,,10,,,81,127
10618,note_off,249,0,0,,10,,,81,127
10618,note_off,0,0,0,,5,,,65,127
10619,note_on,1,0,0,,7,,,67,127
10619,note_on,0,0,0,,0,,,84,127
10680,note_off,61,0,0,,0,,,84,127
10681,note_on,1,0,0,,12,,,83,127
10742,note_off,61,0,0,,12,,,83,127
10743,note_on,1,0,0,,0,,,84,127
10804,note_off,61,0,0,,0,,,84,127
10805,note_on,1,0,0,,12,,,83,127
10866,note_off,61,0,0,,12,,,83,127
10866,note_off,0,0,0,,7,,,67,127
10867,note_on,1,0,0,,5,,,65,127
10867,note_on,0,0,0,,0,,,84,127
10928,note_off,61,0,0,,0,,,84,127
10929,note_on,1,0,0,,12,,,83,127
10990,note_off,61,0,0,,12,,,83,127
10991,note_on,1,0,0,,10,,,81,127
11052,note_off,61,0,0,,10,,,81,127
11053,note_on,1,0,0,,12,,,83,127
11114,note_off,61,0,0,,12,,,83,127
11114,note_off,0,0,0,,5,,,65,127
11115,note_on,1,0,0,,3,,,63,127
11115,note_on,0,0,0,,0,,,84,127
11364,note_off,249,0,0,,0,,,84,127
11364,note_off,0,0,0,,3,,,63,127
11365,note_on,1,0,0,,5,,,65,127
11365,note_on,0,0,0,,11,,,82,127
11426,note_off,61,0,0,,11,,,82,127
11427,note_on,1,0,0,,8,,,80,127
11488,note_off,61,0,0,,8,,,80,127
11489,note_on,1,0,0,,11,,,82,127
11550,note_off,61,0,0,,11,,,82,127
11551,note_on,1,0,0,,8,,,80,127
11612,note_off,61,0,0,,8,,,80,127
11613,note_on,1,0,0,,0,,,72,127
11613,note_on,0,0,0,,11,,,82,127
11674,note_off,61,0,0,,11,,,82,127
11675,note_on,1,0,0,,8,,,80,127
11736,note_off,61,0,0,,8,,,80,127
11737,note_on,1,0,0,,11,,,82,127
11798,note_off,61,0,0,,11,,,82,127
11799,note_on,1,0,0,,8,,,80,127
11860,note_off,61,0,0,,8,,,80,127
11860,note_off,0,0,0,,5,,,65,127
11861,note_on,1,0,0,,3,,,63,127
11861,note_on,0,0,0,,7,,,79,127
12110,note_off,249,0,0,,3,,,63,127
12110,note_off,0,0,0,,0,,,72,127
12111,note_on,1,0,0,,5,,,65,127
12111,note_on,0,0,0,,2,,,62,127
12111,note_on,0,0,0,,12,,,71,127
12360,note_off,249,0,0,,7,,,79,127
12361,note_on,1,0,0,,7,,,79,127
12422,note_off,61,0,0,,7,,,79,127
12423,note_on,1,0,0,,5,,,77,127
12484,note_off,61,0,0,,5,,,77,127
12485,note_on,1,0,0,,7,,,79,127
12546,note_off,61,0,0,,7,,,79,127
12547,note_on,1,0,0,,5,,,77,127
12608,note_off,61,0,0,,5,,,77,127
12608,note_off,0,0,0,,12,,,71,127
12608,note_off,0,0,0,,2,,,62,127
12608,note_off,0,0,0,,5,,,65,127
12609,note_on,1,0,0,,0,,,72,127
12609,note_on,0,0,0,,0,,,60,127
12609,note_on,0,0,0,,3,,,75,127
12858,note_off,249,0,0,,0,,,60,127
12858,note_off,0,0,0,,0,,,72,127
12859,note_on,1,0,0,,11,,,58,127
13108,note_off,249,0,0,,3,,,75,127
13109,note_on,1,0,0,,7,,,67,127
13109,note_on,0,0,0,,3,,,75,127
13170,note_off,61,0,0,,3,,,75,127
13171,note_on,1,0,0,,2,,,74,127
13232,note_off,61,0,0,,2,,,74,127
13233,note_on,1,0,0,,3,,,75,127
13294,note_off,61,0,0,,3,,,75,127
13295,note_on,1,0,0,,2,,,74,127
13356,note_off,61,0,0,,2,,,74,127
13356,note_off,0,0,0,,7,,,67,127
13356,note_off,0,0,0,,11,,,58,127
13357,note_on,1,0,0,,5,,,65,127
13357,note_on,0,0,0,,8,,,56,127
13357,note_on,0,0,0,,0,,,72,127
13606,note_off,249,0,0,,0,,,72,127
13606,note_off,0,0,0,,8,,,56,127
13607,note_on,1,0,0,,7,,,55,127
13607,note_on,0,0,0,,12,,,71,127
13857,note_on,250,0,0,,5,,,77,127
13894,note_off,37,0,0,,12,,,71,127
14107,note_off,213,0,0,,5,,,77,127
14107,note_off,0,0,0,,5,,,65,127
14108,note_on,1,0,0,,3,,,63,127
14108,note_on,0,0,0,,0,,,72,127
14357,note_off,249,0,0,,0,,,72,127
14357,note_off,0,0,0,,3,,,63,127
14357,note_off,0,0,0,,7,,,55,127
14358,note_on,1,0,0,,2,,,62,127
14358,note_on,0,0,0,,7,,,55,127
14358,note_on,0,0,0,,12,,,71,127
14607,note_off,249,0,0,,12,,,71,127
14607,note_off,0,0,0,,2,,,62,127
14608,note_on,1,0,0,,3,,,63,127
14608,note_on,0,0,0,,2,,,74,127
14669,note_off,61,0,0,,2,,,74,127
14670,note_on,1,0,0,,0,,,72,127
14731,note_off,61,0,0,,0,,,72,127
14732,note_on,1,0,0,,2,,,74,127
14793,note_off,61,0,0,,2,,,74,127
14794,note_on,1,0,0,,0,,,72,127
14855,note_off,61,0,0,,0,,,72,127
14855,note_off,0,0,0,,3,,,63,127
14856,note_on,1,0,0,,0,,,60,127
14856,note_on,0,0,0,,2,,,74,127
14917,note_off,61,0,0,,2,,,74,127
14918,note_on,1,0,0,,0,,,72,127
14979,note_off,61,0,0,,0,,,72,127
14980,note_on,1,0,0,,12,,,71,127
15041,note_off,61,0,0,,12,,,71,127
15042,note_on,1,0,0,,0,,,72,127
15103,note_off,61,0,0,,0,,,72,127
15103,note_off,0,0,0,,0,,,60,127
15103,note_off,0,0,0,,7,,,55,127
15104,note_on,1,0,0,,12,,,59,127
15104,note_on,0,0,0,,7,,,55,127
15104,note_on,0,0,0,,2,,,74,127
15353,note_off,249,0,0,,2,,,74,127
15353,note_off,0,0,0,,12,,,59,127
15354,note_on,1,0,0,,5,,,65,127
15354,note_on,0,0,0,,8,,,80,127
15603,note_off,249,0,0,,8,,,80,127
15603,note_off,0,0,0,,5,,,65,127
15604,note_on,1,0,0,,3,,,63,127
15604,note_on,0,0,0,,7,,,79,127
15853,note_off,249,0,0,,7,,,79,127
15853,note_off,0,0,0,,3,,,63,127
15853,note_off,0,0,0,,7,,,55,127
15854,note_on,1,0,0,,2,,,62,127
15854,note_on,0,0,0,,7,,,55,127
15854,note_on,0,0,0,,5,,,77,127
16103,note_off,249,0,0,,2,,,62,127
16104,note_on,1,0,0,,0,,,60,127
16167,note_off,63,0,0,,5,,,77,127
16167,note_on,0,0,0,,3,,,75,127
16228,note_off,61,0,0,,3,,,75,127
16229,note_on,1,0,0,,5,,,77,127
16290,note_off,61,0,0,,5,,,77,127
16291,note_on,1,0,0,,3,,,75,127
16352,note_off,61,0,0,,3,,,75,127
16352,note_off,0,0,0,,0,,,60,127
16353,note_on,1,0,0,,6,,,66,127
16353,note_on,0,0,0,,5,,,77,127
16414,note_off,61,0,0,,5,,,77,127
16415,note_on,1,0,0,,3,,,75,127
16476,note_off,61,0,0,,3,,,75,127
16477,note_on,1,0,0,,2,,,74,127
16538,note_off,61,0,0,,2,,,74,127
16539,note_on,1,0,0,,3,,,75,127
16600,note_off,61,0,0,,3,,,75,127
16600,note_off,0,0,0,,6,,,66,127
16600,note_off,0,0,0,,7,,,55,127
16601,note_on,1,0,0,,7,,,55,127
16601,note_on,0,0,0,,7,,,67,127
16601,note_on,0,0,0,,2,,,74,127
16850,note_off,249,0,0,,2,,,74,127
16850,note_off,0,0,0,,7,,,67,127
16851,note_on,1,0,0,,5,,,65,127
16851,note_on,0,0,0,,8,,,80,127
17100,note_off,249,0,0,,8,,,80,127
17100,note_off,0,0,0,,5,,,65,127
17101,note_on,1,0,0,,3,,,63,127
17101,note_on,0,0,0,,7,,,79,127
17350,note_off,249,0,0,,7,,,79,127
17350,note_off,0,0,0,,3,,,63,127
17350,note_off,0,0,0,,7,,,55,127
17351,note_on,1,0,0,,2,,,62,127
17351,note_on,0,0,0,,7,,,55,127
17351,note_on,0,0,0,,5,,,77,127
17600,note_off,249,0,0,,2,,,62,127
17601,note_on,1,0,0,,0,,,60,127
17664,note_off,63,0,0,,5,,,77,127
17664,note_on,0,0,0,,3,,,75,127
17725,note_off,61,0,0,,3,,,75,127
17726,note_on,1,0,0,,5,,,77,127
17787,note_off,61,0,0,,5,,,77,127
17788,note_on,1,0,0,,3,,,75,127
17849,note_off,61,0,0,,3,,,75,127
17849,note_off,0,0,0,,0,,,60,127
17850,note_on,1,0,0,,6,,,66,127
17850,note_on,0,0,0,,5,,,77,127
17911,note_off,61,0,0,,5,,,77,127
17912,note_on,1,0,0,,3,,,75,127
17973,note_off,61,0,0,,3,,,75,127
17974,note_on,1,0,0,,2,,,74,127
18035,note_off,61,0,0,,2,,,74,127
18036,note_on,1,0,0,,3,,,75,127
18097,note_off,61,0,0,,3,,,75,127
18097,note_off,0,0,0,,6,,,66,127
18097,note_off,0,0,0,,7,,,55,127
18098,note_on,1,0,0,,7,,,67,127
18098,note_on,0,0,0,,7,,,55,127
18098,note_on,0,0,0,,2,,,74,127
18347,note_off,249,0,0,,2,,,74,127
18347,note_off,0,0,0,,7,,,67,127
18348,note_on,1,0,0,,5,,,65,127
18348,note_on,0,0,0,,8,,,80,127
18597,note_off,249,0,0,,8,,,80,127
18597,note_off,0,0,0,,5,,,65,127
18598,note_on,1,0,0,,3,,,63,127
18598,note_on,0,0,0,,7,,,79,127
18847,note_off,249,0,0,,7,,,79,127
18847,note_off,0,0,0,,3,,,63,127
18847,note_off,0,0,0,,7,,,55,127
18848,note_on,1,0,0,,7,,,55,127
18848,note_on,0,0,0,,2,,,62,127
18848,note_on,0,0,0,,5,,,77,127
19097,note_off,249,0,0,,5,,,77,127
19097,note_off,0,0,0,,2,,,62,127
19097,note_off,0,0,0,,7,,,55,127
19098,note_on,1,0,0,,0,,,60,127
19098,note_on,0,0,0,,5,,,77,127
19159,note_off,61,0,0,,5,,,77,127
19160,note_on,1,0,0,,3,,,75,127
19221,note_off,61,0,0,,3,,,75,127
19222,note_on,1,0,0,,5,,,77,127
19283,note_off,61,0,0,,5,,,77,127
19284,note_on,1,0,0,,3,,,75,127
19345,note_off,61,0,0,,3,,,75,127
19346,note_on,1,0,0,,0,,,48,127
19346,note_on,0,0,0,,5,,,77,127
19407,note_off,61,0,0,,5,,,77,127
19408,note_on,1,0,0,,3,,,75,127
19469,note_off,61,0,0,,3,,,75,127
19470,note_on,1,0,0,,2,,,74,127
19531,note_off,61,0,0,,2,,,74,127
19532,note_on,1,0,0,,3,,,75,127
19593,note_off,61,0,0,,3,,,75,127
19593,note_off,0,0,0,,0,,,48,127
19593,note_off,0,0,0,,0,,,60,127
19594,note_on,1,0,0,,7,,,55,127
19594,note_on,0,0,0,,3,,,75,127
19844,note_on,250,0,0,,7,,,43,127
20093,note_off,249,0,0,,3,,,75,127
20093,note_off,0,0,0,,7,,,55,127
20094,note_on,1,0,0,,2,,,74,127
20334,note_off,240,0,0,,7,,,43,127
20355,note_off,21,0,0,,2,,,74,127
20365,note_on,10,0,0,,0,,,84,127
20365,note_on,0,0,0,,2,,,74,127
20365,note_on,0,0,0,,7,,,67,127
20426,note_off,61,0,0,,0,,,84,127
20427,note_on,1,0,0,,11,,,82,127
20488,note_off,61,0,0,,11,,,82,127
20489,note_on,1,0,0,,0,,,84,127
20550,note_off,61,0,0,,0,,,84,127
20551,note_on,1,0,0,,11,,,82,127
20612,note_off,61,0,0,,11,,,82,127
20613,note_on,1,0,0,,0,,,84,127
20674,note_off,61,0,0,,0,,,84,127
20675,note_on,1,0,0,,11,,,82,127
20736,note_off,61,0,0,,11,,,82,127
20737,note_on,1,0,0,,0,,,84,127
20798,note_off,61,0,0,,0,,,84,127
20799,note_on,1,0,0,,11,,,82,127
20860,note_off,61,0,0,,11,,,82,127
20860,note_off,0,0,0,,7,,,67,127
20861,note_on,1,0,0,,10,,,81,127
20861,note_on,0,0,0,,5,,,65,127
21110,note_off,249,0,0,,5,,,65,127
21110,note_off,0,0,0,,10,,,81,127
21111,note_on,1,0,0,,6,,,78,127
21111,note_on,0,0,0,,3,,,63,127
21360,note_off,249,0,0,,6,,,78,127
21360,note_off,0,0,0,,2,,,74,127
21361,note_on,1,0,0,,7,,,79,127
21361,note_on,0,0,0,,0,,,72,127
21610,note_off,249,0,0,,0,,,72,127
21610,note_off,0,0,0,,7,,,79,127
21610,note_off,0,0,0,,3,,,63,127
21611,note_on,1,0,0,,5,,,77,127
21611,note_on,0,0,0,,2,,,62,127
21611,note_on,0,0,0,,11,,,70,127
21860,note_off,249,0,0,,2,,,62,127
21861,note_on,1,0,0,,0,,,60,127
22110,note_off,249,0,0,,11,,,70,127
22110,note_off,0,0,0,,5,,,77,127
22111,note_on,1,0,0,,5,,,77,127
22111,note_on,0,0,0,,10,,,69,127
22172,note_off,61,0,0,,5,,,77,127
22173,note_on,1,0,0,,3,,,75,127
22234,note_off,61,0,0,,3,,,75,127
22235,note_on,1,0,0,,5,,,77,127
22296,note_off,61,0,0,,5,,,77,127
22297,note_on,1,0,0,,3,,,75,127
22358,note_off,61,0,0,,3,,,75,127
22358,note_off,0,0,0,,10,,,69,127
22358,note_off,0,0,0,,0,,,60,127
22359,note_on,1,0,0,,2,,,74,127
22359,note_on,0,0,0,,7,,,67,127
22359,note_on,0,0,0,,11,,,58,127
22608,note_off,249,0,0,,11,,,58,127
22608,note_off,0,0,0,,7,,,67,127
22609,note_on,1,0,0,,2,,,62,127
22609,note_on,0,0,0,,6,,,66,127
22609,note_on,0,0,0,,10,,,57,127
22609,note_on,0,0,0,,0,,,60,127
22858,note_off,249,0,0,,2,,,74,127
22859,note_on,1,0,0,,2,,,74,127
22920,note_off,61,0,0,,2,,,74,127
22921,note_on,1,0,0,,0,,,72,127
22982,note_off,61,0,0,,0,,,72,127
22983,note_on,1,0,0,,2,,,74,127
23044,note_off,61,0,0,,2,,,74,127
23045,note_on,1,0,0,,0,,,72,127
23106,note_off,61,0,0,,0,,,72,127
23106,note_off,0,0,0,,0,,,60,127
23106,note_off,0,0,0,,10,,,57,127
23106,note_off,0,0,0,,6,,,66,127
23106,note_off,0,0,0,,2,,,62,127
23107,note_on,1,0,0,,11,,,70,127
23107,note_on,0,0,0,,7,,,67,127
23107,note_on,0,0,0,,7,,,55,127
23356,note_off,249,0,0,,7,,,55,127
23356,note_off,0,0,0,,7,,,67,127
23357,note_on,1,0,0,,5,,,53,127
23606,note_off,249,0,0,,11,,,70,127
23607,note_on,1,0,0,,11,,,70,127
23607,note_on,0,0,0,,2,,,62,127
23668,note_off,61,0,0,,11,,,70,127
23669,note_on,1,0,0,,10,,,69,127
23730,note_off,61,0,0,,10,,,69,127
23731,note_on,1,0,0,,11,,,70,127
23792,note_off,61,0,0,,11,,,70,127
23793,note_on,1,0,0,,10,,,69,127
23854,note_off,61,0,0,,10,,,69,127
23854,note_off,0,0,0,,2,,,62,127
23854,note_off,0,0,0,,5,,,53,127
23855,note_on,1,0,0,,7,,,67,127
23855,note_on,0,0,0,,0,,,60,127
23855,note_on,0,0,0,,3,,,51,127
24104,note_off,249,0,0,,3,,,51,127
24104,note_off,0,0,0,,7,,,67,127
24105,note_on,1,0,0,,6,,,66,127
24105,note_on,0,0,0,,2,,,50,127
24355,note_on,250,0,0,,2,,,74,127
24418,note_off,63,0,0,,6,,,66,127
24605,note_off,187,0,0,,2,,,74,127
24605,note_off,0,0,0,,0,,,60,127
24606,note_on,1,0,0,,7,,,67,127
24606,note_on,0,0,0,,11,,,58,127
24855,note_off,249,0,0,,11,,,58,127
24855,note_off,0,0,0,,7,,,67,127
24855,note_off,0,0,0,,2,,,50,127
24856,note_on,1,0,0,,6,,,66,127
24856,note_on,0,0,0,,10,,,57,127
24856,note_on,0,0,0,,2,,,50,127
25105,note_off,249,0,0,,10,,,57,127
25105,note_off,0,0,0,,6,,,66,127
25106,note_on,1,0,0,,10,,,69,127
25106,note_on,0,0,0,,11,,,58,127
25167,note_off,61,0,0,,10,,,69,127
25168,note_on,1,0,0,,7,,,67,127
25229,note_off,61,0,0,,7,,,67,127
25230,note_on,1,0,0,,10,,,69,127
25291,note_off,61,0,0,,10,,,69,127
25292,note_on,1,0,0,,7,,,67,127
25353,note_off,61,0,0,,7,,,67,127
25353,note_off,0,0,0,,11,,,58,127
25354,note_on,1,0,0,,10,,,69,127
25354,note_on,0,0,0,,7,,,55,127
25415,note_off,61,0,0,,10,,,69,127
25416,note_on,1,0,0,,7,,,67,127
25477,note_off,61,0,0,,7,,,67,127
25478,note_on,1,0,0,,6,,,66,127
25539,note_off,61,0,0,,6,,,66,127
25540,note_on,1,0,0,,7,,,67,127
25601,note_off,61,0,0,,7,,,67,127
25601,note_off,0,0,0,,7,,,55,127
25601,note_off,0,0,0,,2,,,50,127
25602,note_on,1,0,0,,10,,,69,127
25602,note_on,0,0,0,,2,,,50,127
25602,note_on,0,0,0,,6,,,54,127
25851,note_off,249,0,0,,6,,,54,127
25851,note_off,0,0,0,,10,,,69,127
25852,note_on,1,0,0,,3,,,75,127
25852,note_on,0,0,0,,0,,,60,127
26101,note_off,249,0,0,,0,,,60,127
26101,note_off,0,0,0,,3,,,75,127
26102,note_on,1,0,0,,2,,,74,127
26102,note_on,0,0,0,,11,,,58,127
26351,note_off,249,0,0,,11,,,58,127
26351,note_off,0,0,0,,2,,,74,127
26351,note_off,0,0,0,,2,,,50,127
26352,note_on,1,0,0,,0,,,72,127
26352,note_on,0,0,0,,10,,,57,127
26352,note_on,0,0,0,,2,,,50,127
26601,note_off,249,0,0,,10,,,57,127
26602,note_on,1,0,0,,7,,,55,127
26665,note_off,63,0,0,,0,,,72,127
26665,note_on,0,0,0,,11,,,70,127
26726,note_off,61,0,0,,11,,,70,127
26727,note_on,1,0,0,,0,,,72,127
26788,note_off,61,0,0,,0,,,72,127
26789,note_on,1,0,0,,11,,,70,127
26850,note_off,61,0,0,,11,,,70,127
26850,note_off,0,0,0,,7,,,55,127
26851,note_on,1,0,0,,0,,,72,127
26851,note_on,0,0,0,,1,,,61,127
26912,note_off,61,0,0,,0,,,72,127
26913,note_on,1,0,0,,11,,,70,127
26974,note_off,61,0,0,,11,,,70,127
26975,note_on,1,0,0,,10,,,69,127
27036,note_off,61,0,0,,10,,,69,127
27037,note_on,1,0,0,,11,,,70,127
27098,note_off,61,0,0,,11,,,70,127
27098,note_off,0,0,0,,1,,,61,127
27098,note_off,0,0,0,,2,,,50,127
27099,note_on,1,0,0,,10,,,69,127
27099,note_on,0,0,0,,2,,,62,127
27099,note_on,0,0,0,,2,,,50,127
27348,note_off,249,0,0,,2,,,62,127
27348,note_off,0,0,0,,10,,,69,127
27349,note_on,1,0,0,,3,,,75,127
27349,note_on,0,0,0,,0,,,60,127
27598,note_off,249,0,0,,0,,,60,127
27598,note_off,0,0,0,,3,,,75,127
27599,note_on,1,0,0,,2,,,74,127
27599,note_on,0,0,0,,11,,,58,127
27848,note_off,249,0,0,,11,,,58,127
27848,note_off,0,0,0,,2,,,74,127
27848,note_off,0,0,0,,2,,,50,127
27849,note_on,1,0,0,,0,,,72,127
27849,note_on,0,0,0,,2,,,50,127
27849,note_on,0,0,0,,10,,,57,127
28098,note_off,249,0,0,,10,,,57,127
28099,note_on,1,0,0,,7,,,55,127
28162,note_off,63,0,0,,0,,,72,127
28162,note_on,0,0,0,,11,,,70,127
28223,note_off,61,0,0,,11,,,70,127
28224,note_on,1,0,0,,0,,,72,127
28285,note_off,61,0,0,,0,,,72,127
28286,note_on,1,0,0,,11,,,70,127
28347,note_off,61,0,0,,11,,,70,127
28347,note_off,0,0,0,,7,,,55,127
28348,note_on,1,0,0,,0,,,72,127
28348,note_on,0,0,0,,1,,,61,127
28409,note_off,61,0,0,,0,,,72,127
28410,note_on,1,0,0,,11,,,70,127
28471,note_off,61,0,0,,11,,,70,127
28472,note_on,1,0,0,,10,,,69,127
28533,note_off,61,0,0,,10,,,69,127
28534,note_on,1,0,0,,11,,,70,127
28595,note_off,61,0,0,,11,,,70,127
28595,note_off,0,0,0,,1,,,61,127
28595,note_off,0,0,0,,2,,,50,127
28596,note_on,1,0,0,,10,,,69,127
28596,note_on,0,0,0,,2,,,50,127
28596,note_on,0,0,0,,2,,,62,127
28845,note_off,249,0,0,,2,,,62,127
28845,note_off,0,0,0,,10,,,69,127
28846,note_on,1,0,0,,3,,,75,127
28846,note_on,0,0,0,,0,,,60,127
29095,note_off,249,0,0,,0,,,60,127
29095,note_off,0,0,0,,3,,,75,127
29096,note_on,1,0,0,,2,,,74,127
29096,note_on,0,0,0,,11,,,58,127
29345,note_off,249,0,0,,11,,,58,127
29345,note_off,0,0,0,,2,,,74,127
29345,note_off,0,0,0,,2,,,50,127
29346,note_on,1,0,0,,0,,,72,127
29346,note_on,0,0,0,,2,,,50,127
29346,note_on,0,0,0,,10,,,57,127
29595,note_off,249,0,0,,10,,,57,127
29595,note_off,0,0,0,,2,,,50,127
29595,note_off,0,0,0,,0,,,72,127
29596,note_on,1,0,0,,0,,,72,127
29596,note_on,0,0,0,,7,,,55,127
29657,note_off,61,0,0,,0,,,72,127
29658,note_on,1,0,0,,11,,,70,127
29719,note_off,61,0,0,,11,,,70,127
29720,note_on,1,0,0,,0,,,72,127
29781,note_off,61,0,0,,0,,,72,127
29782,note_on,1,0,0,,11,,,70,127
29843,note_off,61,0,0,,11,,,70,127
29844,note_on,1,0,0,,0,,,72,127
29844,note_on,0,0,0,,7,,,43,127
29905,note_off,61,0,0,,0,,,72,127
29906,note_on,1,0,0,,11,,,70,127
29967,note_off,61,0,0,,11,,,70,127
29968,note_on,1,0,0,,10,,,69,127
30029,note_off,61,0,0,,10,,,69,127
30030,note_on,1,0,0,,11,,,70,127
30091,note_off,61,0,0,,11,,,70,127
30091,note_off,0,0,0,,7,,,43,127
30091,note_off,0,0,0,,7,,,55,127
30092,note_on,1,0,0,,11,,,70,127
30092,note_on,0,0,0,,2,,,50,127
30342,note_on,250,0,0,,2,,,38,127
30591,note_off,249,0,0,,2,,,50,127
30591,note_off,0,0,0,,11,,,70,127
30592,note_on,1,0,0,,10,,,69,127
30780,note_off,188,0,0,,10,,,69,127
30863,note_on,83,0,0,,6,,,78,127
30866,note_off,3,0,0,,2,,,38,127
30987,note_off,121,0,0,,6,,,78,127
30988,note_on,1,0,0,,7,,,79,127
31112,note_off,124,0,0,,7,,,79,127
31113,note_on,1,0,0,,10,,,81,127
31237,note_off,124,0,0,,10,,,81,127
31238,note_on,1,0,0,,11,,,82,127
31362,note_off,124,0,0,,11,,,82,127
31363,note_on,1,0,0,,0,,,84,127
31487,note_off,124,0,0,,0,,,84,127
31488,note_on,1,0,0,,2,,,74,127
31612,note_off,124,0,0,,2,,,74,127
31613,note_on,1,0,0,,6,,,66,127
31613,note_on,0,0,0,,2,,,74,127
31737,note_off,124,0,0,,6,,,66,127
31738,note_on,1,0,0,,7,,,67,127
31862,note_off,124,0,0,,7,,,67,127
31863,note_on,1,0,0,,10,,,69,127
31987,note_off,124,0,0,,10,,,69,127
31988,note_on,1,0,0,,11,,,70,127
32112,note_off,124,0,0,,11,,,70,127
32112,note_off,0,0,0,,2,,,74,127
32113,note_on,1,0,0,,0,,,72,127
32113,note_on,0,0,0,,3,,,75,127
32237,note_off,124,0,0,,0,,,72,127
32238,note_on,1,0,0,,3,,,63,127
32362,note_off,124,0,0,,3,,,63,127
32362,note_off,0,0,0,,3,,,75,127
32363,note_on,1,0,0,,2,,,62,127
32363,note_on,0,0,0,,6,,,78,127
32487,note_off,124,0,0,,6,,,78,127
32488,note_on,1,0,0,,7,,,79,127
32612,note_off,124,0,0,,7,,,79,127
32613,note_on,1,0,0,,10,,,81,127
32737,note_off,124,0,0,,10,,,81,127
32738,note_on,1,0,0,,11,,,82,127
32862,note_off,124,0,0,,11,,,82,127
32863,note_on,1,0,0,,0,,,84,127
32987,note_off,124,0,0,,0,,,84,127
32988,note_on,1,0,0,,2,,,74,127
33112,note_off,124,0,0,,2,,,74,127
33112,note_off,0,0,0,,2,,,62,127
33113,note_on,1,0,0,,6,,,66,127
33113,note_on,0,0,0,,2,,,74,127
33237,note_off,124,0,0,,6,,,66,127
33238,note_on,1,0,0,,7,,,67,127
33362,note_off,124,0,0,,7,,,67,127
33363,note_on,1,0,0,,10,,,69,127
33487,note_off,124,0,0,,10,,,69,127
33488,note_on,1,0,0,,11,,,70,127
33612,note_off,124,0,0,,11,,,70,127
33612,note_off,0,0,0,,2,,,74,127
33613,note_on,1,0,0,,0,,,72,127
33613,note_on,0,0,0,,3,,,75,127
33737,note_off,124,0,0,,0,,,72,127
33738,note_on,1,0,0,,3,,,63,127
33861,note_off,123,0,0,,3,,,75,127
33862,note_off,1,0,0,,3,,,63,127
33863,note_on,1,0,0,,2,,,62,127
33988,note_on,125,0,0,,0,,,84,127
34112,note_off,124,0,0,,0,,,84,127
34113,note_on,1,0,0,,11,,,82,127
34237,note_off,124,0,0,,11,,,82,127
34238,note_on,1,0,0,,10,,,81,127
34362,note_off,124,0,0,,10,,,81,127
34363,note_on,1,0,0,,7,,,79,127
34487,note_off,124,0,0,,7,,,79,127
34488,note_on,1,0,0,,6,,,78,127
34612,note_off,124,0,0,,6,,,78,127
34612,note_off,0,0,0,,2,,,62,127
34613,note_on,1,0,0,,7,,,79,127
34738,note_on,125,0,0,,0,,,72,127
34862,note_off,124,0,0,,0,,,72,127
34863,note_on,1,0,0,,11,,,70,127
34987,note_off,124,0,0,,11,,,70,127
34988,note_on,1,0,0,,10,,,69,127
35112,note_off,124,0,0,,10,,,69,127
35113,note_on,1,0,0,,7,,,67,127
35237,note_off,124,0,0,,7,,,67,127
35238,note_on,1,0,0,,6,,,66,127
35362,note_off,124,0,0,,6,,,66,127
35363,note_on,1,0,0,,7,,,67,127
35487,note_off,124,0,0,,7,,,79,127
35488,note_on,1,0,0,,11,,,82,127
35612,note_off,124,0,0,,11,,,82,127
35613,note_on,1,0,0,,7,,,79,127
35737,note_off,124,0,0,,7,,,79,127
35738,note_on,1,0,0,,5,,,77,127
35862,note_off,124,0,0,,5,,,77,127
35863,note_on,1,0,0,,3,,,75,127
35987,note_off,124,0,0,,3,,,75,127
35988,note_on,1,0,0,,2,,,74,127
36112,note_off,124,0,0,,2,,,74,127
36112,note_off,0,0,0,,7,,,67,127
36113,note_on,1,0,0,,1,,,73,127
36238,note_on,125,0,0,,11,,,70,127
36362,note_off,124,0,0,,11,,,70,127
36363,note_on,1,0,0,,10,,,69,127
36487,note_off,124,0,0,,10,,,69,127
36488,note_on,1,0,0,,7,,,67,127
36612,note_off,124,0,0,,7,,,67,127
36613,note_on,1,0,0,,6,,,66,127
36737,note_off,124,0,0,,6,,,66,127
36738,note_on,1,0,0,,4,,,64,127
36862,note_off,124,0,0,,4,,,64,127
36862,note_off,0,0,0,,1,,,73,127
36863,note_on,1,0,0,,2,,,62,127
36863,note_on,0,0,0,,2,,,74,127
36987,note_off,124,0,0,,2,,,74,127
36988,note_on,1,0,0,,3,,,75,127
37112,note_off,124,0,0,,3,,,75,127
37112,note_off,0,0,0,,2,,,62,127
37113,note_on,1,0,0,,6,,,66,127
37113,note_on,0,0,0,,2,,,74,127
37237,note_off,124,0,0,,2,,,74,127
37238,note_on,1,0,0,,0,,,72,127
37362,note_off,124,0,0,,0,,,72,127
37362,note_off,0,0,0,,6,,,66,127
37363,note_on,1,0,0,,2,,,62,127
37363,note_on,0,0,0,,11,,,70,127
37487,note_off,124,0,0,,11,,,70,127
37488,note_on,1,0,0,,10,,,69,127
37612,note_off,124,0,0,,10,,,69,127
37612,note_off,0,0,0,,2,,,62,127
37613,note_on,1,0,0,,7,,,67,127
37613,note_on,0,0,0,,11,,,70,127
37737,note_off,124,0,0,,7,,,67,127
37738,note_on,1,0,0,,11,,,58,127
37738,note_on,0,0,0,,7,,,79,127
37862,note_off,124,0,0,,7,,,79,127
37862,note_off,0,0,0,,11,,,58,127
37863,note_on,1,0,0,,0,,,60,127
37863,note_on,0,0,0,,3,,,75,127
37987,note_off,124,0,0,,0,,,60,127
37987,note_off,0,0,0,,11,,,70,127
37988,note_on,1,0,0,,3,,,63,127
37988,note_on,0,0,0,,0,,,72,127
38112,note_off,124,0,0,,0,,,72,127
38112,note_off,0,0,0,,3,,,63,127
38113,note_on,1,0,0,,2,,,62,127
38113,note_on,0,0,0,,10,,,69,127
38237,note_off,124,0,0,,2,,,62,127
38237,note_off,0,0,0,,3,,,75,127
38238,note_on,1,0,0,,6,,,66,127
38238,note_on,0,0,0,,10,,,81,127
38362,note_off,124,0,0,,10,,,81,127
38362,note_off,0,0,0,,6,,,66,127
38362,note_off,0,0,0,,10,,,69,127
38363,note_on,1,0,0,,7,,,67,127
38363,note_on,0,0,0,,11,,,70,127
38487,note_off,124,0,0,,7,,,67,127
38488,note_on,1,0,0,,11,,,58,127
38488,note_on,0,0,0,,7,,,79,127
38612,note_off,124,0,0,,7,,,79,127
38612,note_off,0,0,0,,11,,,58,127
38613,note_on,1,0,0,,0,,,60,127
38613,note_on,0,0,0,,3,,,75,127
38737,note_off,124,0,0,,0,,,60,127
38737,note_off,0,0,0,,11,,,70,127
38738,note_on,1,0,0,,3,,,63,127
38738,note_on,0,0,0,,0,,,72,127
38862,note_off,124,0,0,,0,,,72,127
38862,note_off,0,0,0,,3,,,63,127
38863,note_on,1,0,0,,2,,,62,127
38863,note_on,0,0,0,,10,,,69,127
38987,note_off,124,0,0,,2,,,62,127
38987,note_off,0,0,0,,3,,,75,127
38988,note_on,1,0,0,,6,,,66,127
38988,note_on,0,0,0,,10,,,81,127
39112,note_off,124,0,0,,10,,,81,127
39112,note_off,0,0,0,,6,,,66,127
39112,note_off,0,0,0,,10,,,69,127
39113,note_on,1,0,0,,7,,,67,127
39113,note_on,0,0,0,,7,,,55,127
39113,note_on,0,0,0,,11,,,70,127
39237,note_off,124,0,0,,11,,,70,127
39238,note_on,1,0,0,,10,,,69,127
39362,note_off,124,0,0,,10,,,69,127
39363,note_on,1,0,0,,11,,,70,127
39487,note_off,124,0,0,,11,,,70,127
39487,note_off,0,0,0,,7,,,55,127
39488,note_on,1,0,0,,10,,,57,127
39488,note_on,0,0,0,,0,,,72,127
39612,note_off,124,0,0,,0,,,72,127
39612,note_off,0,0,0,,10,,,57,127
39613,note_on,1,0,0,,11,,,58,127
39613,note_on,0,0,0,,2,,,74,127
39736,note_off,123,0,0,,7,,,67,127
39737,note_off,1,0,0,,2,,,74,127
39738,note_on,1,0,0,,7,,,67,127
39862,note_off,124,0,0,,7,,,67,127
39862,note_off,0,0,0,,11,,,58,127
39863,note_on,1,0,0,,0,,,60,127
39863,note_on,0,0,0,,10,,,69,127
39987,note_off,124,0,0,,10,,,69,127
39988,note_on,1,0,0,,0,,,72,127
40112,note_off,124,0,0,,0,,,72,127
40112,note_off,0,0,0,,0,,,60,127
40113,note_on,1,0,0,,2,,,62,127
40113,note_on,0,0,0,,11,,,70,127
40237,note_off,124,0,0,,11,,,70,127
40238,note_on,1,0,0,,10,,,69,127
40362,note_off,124,0,0,,10,,,69,127
40363,note_on,1,0,0,,2,,,50,127
40363,note_on,0,0,0,,7,,,67,127
40487,note_off,124,0,0,,7,,,67,127
40488,note_on,1,0,0,,10,,,69,127
40608,note_off,120,0,0,,10,,,69,127
40612,note_off,4,0,0,,2,,,50,127
40612,note_off,0,0,0,,2,,,62,127
40624,note_on,12,0,0,,7,,,67,127
40624,note_on,0,0,0,,11,,,70,127
40748,note_off,124,0,0,,7,,,67,127
40749,note_on,1,0,0,,11,,,58,127
40749,note_on,0,0,0,,7,,,79,127
40873,note_off,124,0,0,,7,,,79,127
40873,note_off,0,0,0,,11,,,58,127
40874,note_on,1,0,0,,0,,,60,127
40874,note_on,0,0,0,,3,,,75,127
40998,note_off,124,0,0,,0,,,60,127
40998,note_off,0,0,0,,11,,,70,127
40999,note_on,1,0,0,,3,,,63,127
40999,note_on,0,0,0,,0,,,72,127
41123,note_off,124,0,0,,0,,,72,127
41123,note_off,0,0,0,,3,,,63,127
41124,note_on,1,0,0,,2,,,62,127
41124,note_on,0,0,0,,10,,,69,127
41248,note_off,124,0,0,,2,,,62,127
41248,note_off,0,0,0,,3,,,75,127
41249,note_on,1,0,0,,6,,,66,127
41249,note_on,0,0,0,,10,,,81,127
41373,note_off,124,0,0,,10,,,81,127
41373,note_off,0,0,0,,6,,,66,127
41373,note_off,0,0,0,,10,,,69,127
41374,note_on,1,0,0,,7,,,67,127
41374,note_on,0,0,0,,11,,,70,127
41498,note_off,124,0,0,,7,,,67,127
41499,note_on,1,0,0,,11,,,58,127
41499,note_on,0,0,0,,7,,,79,127
41623,note_off,124,0,0,,7,,,79,127
41623,note_off,0,0,0,,11,,,58,127
41624,note_on,1,0,0,,0,,,60,127
41624,note_on,0,0,0,,3,,,75,127
41748,note_off,124,0,0,,0,,,60,127
41748,note_off,0,0,0,,11,,,70,127
41749,note_on,1,0,0,,3,,,63,127
41749,note_on,0,0,0,,0,,,72,127
41873,note_off,124,0,0,,0,,,72,127
41873,note_off,0,0,0,,3,,,63,127
41874,note_on,1,0,0,,2,,,62,127
41874,note_on,0,0,0,,10,,,69,127
41998,note_off,124,0,0,,2,,,62,127
41998,note_off,0,0,0,,3,,,75,127
41999,note_on,1,0,0,,6,,,66,127
41999,note_on,0,0,0,,10,,,81,127
42123,note_off,124,0,0,,10,,,81,127
42123,note_off,0,0,0,,6,,,66,127
42123,note_off,0,0,0,,10,,,69,127
42124,note_on,1,0,0,,7,,,67,127
42124,note_on,0,0,0,,7,,,55,127
42124,note_on,0,0,0,,11,,,70,127
42248,note_off,124,0,0,,11,,,70,127
42249,note_on,1,0,0,,10,,,69,127
42373,note_off,124,0,0,,10,,,69,127
42374,note_on,1,0,0,,11,,,70,127
42498,note_off,124,0,0,,11,,,70,127
42498,note_off,0,0,0,,7,,,55,127
42499,note_on,1,0,0,,10,,,57,127
42499,note_on,0,0,0,,0,,,72,127
42623,note_off,124,0,0,,0,,,72,127
42623,note_off,0,0,0,,10,,,57,127
42624,note_on,1,0,0,,11,,,58,127
42624,note_on,0,0,0,,2,,,74,127
42747,note_off,123,0,0,,7,,,67,127
42748,note_off,1,0,0,,2,,,74,127
42749,note_on,1,0,0,,7,,,67,127
42873,note_off,124,0,0,,7,,,67,127
42873,note_off,0,0,0,,11,,,58,127
42874,note_on,1,0,0,,0,,,60,127
42874,note_on,0,0,0,,10,,,69,127
42998,note_off,124,0,0,,10,,,69,127
42999,note_on,1,0,0,,0,,,72,127
43123,note_off,124,0,0,,0,,,72,127
43123,note_off,0,0,0,,0,,,60,127
43124,note_on,1,0,0,,2,,,62,127
43124,note_on,0,0,0,,11,,,70,127
43248,note_off,124,0,0,,11,,,70,127
43249,note_on,1,0,0,,10,,,69,127
43373,note_off,124,0,0,,10,,,69,127
43374,note_on,1,0,0,,2,,,50,127
43374,note_on,0,0,0,,7,,,67,127
43498,note_off,124,0,0,,7,,,67,127
43499,note_on,1,0,0,,6,,,66,127
43603,note_off,104,0,0,,6,,,66,127
43623,note_off,20,0,0,,2,,,50,127
43623,note_off,0,0,0,,2,,,62,127
43656,note_on,33,0,0,,2,,,86,127
43656,note_on,0,0,0,,7,,,55,127
43905,note_off,249,0,0,,7,,,55,127
43906,note_on,1,0,0,,10,,,57,127
44155,note_off,249,0,0,,10,,,57,127
44156,note_on,1,0,0,,11,,,58,127
44405,note_off,249,0,0,,11,,,58,127
44406,note_on,1,0,0,,0,,,60,127
44530,note_off,124,0,0,,2,,,86,127
44531,note_on,1,0,0,,11,,,82,127
44655,note_off,124,0,0,,11,,,82,127
44655,note_off,0,0,0,,0,,,60,127
44656,note_on,1,0,0,,11,,,82,127
44656,note_on,0,0,0,,2,,,62,127
44717,note_off,61,0,0,,11,,,82,127
44718,note_on,1,0,0,,10,,,81,127
44779,note_off,61,0,0,,10,,,81,127
44780,note_on,1,0,0,,11,,,82,127
44841,note_off,61,0,0,,11,,,82,127
44842,note_on,1,0,0,,10,,,81,127
44903,note_off,61,0,0,,10,,,81,127
44904,note_on,1,0,0,,7,,,79,127
44904,note_on,0,0,0,,2,,,50,127
45028,note_off,124,0,0,,7,,,79,127
45029,note_off,1,0,0,,2,,,62,127
45029,note_on,0,0,0,,6,,,78,127
45153,note_off,124,0,0,,6,,,78,127
45153,note_off,0,0,0,,2,,,50,127
45154,note_on,1,0,0,,6,,,78,127
45154,note_on,0,0,0,,7,,,43,127
45403,note_off,249,0,0,,7,,,43,127
45404,note_on,1,0,0,,10,,,45,127
45528,note_off,124,0,0,,6,,,78,127
45529,note_on,1,0,0,,7,,,79,127
45653,note_off,124,0,0,,7,,,79,127
45653,note_off,0,0,0,,10,,,45,127
45654,note_on,1,0,0,,2,,,74,127
45654,note_on,0,0,0,,11,,,46,127
45903,note_off,249,0,0,,11,,,46,127
45904,note_on,1,0,0,,0,,,48,127
45971,note_off,67,0,0,,2,,,74,127
46030,note_on,59,0,0,,11,,,70,127
46154,note_off,124,0,0,,11,,,70,127
46154,note_off,0,0,0,,0,,,48,127
46155,note_on,1,0,0,,11,,,70,127
46155,note_on,0,0,0,,2,,,50,127
46216,note_off,61,0,0,,11,,,70,127
46217,note_on,1,0,0,,10,,,69,127
46278,note_off,61,0,0,,10,,,69,127
46279,note_on,1,0,0,,11,,,70,127
46340,note_off,61,0,0,,11,,,70,127
46341,note_on,1,0,0,,10,,,69,127
46402,note_off,61,0,0,,10,,,69,127
46403,note_on,1,0,0,,7,,,67,127
46403,note_on,0,0,0,,2,,,38,127
46527,note_off,124,0,0,,7,,,67,127
46528,note_on,1,0,0,,6,,,66,127
46648,note_off,120,0,0,,2,,,50,127
46652,note_off,4,0,0,,6,,,66,127
46652,note_off,0,0,0,,2,,,38,127
46653,note_on,1,0,0,,6,,,66,127
46653,note_on,0,0,0,,7,,,43,127
46902,note_off,249,0,0,,7,,,43,127
46903,note_on,1,0,0,,10,,,45,127
47027,note_off,124,0,0,,6,,,66,127
47028,note_on,1,0,0,,7,,,67,127
47152,note_off,124,0,0,,7,,,67,127
47152,note_off,0,0,0,,10,,,45,127
47153,note_on,1,0,0,,2,,,62,127
47153,note_on,0,0,0,,11,,,46,127
47402,note_off,249,0,0,,11,,,46,127
47403,note_on,1,0,0,,0,,,48,127
47470,note_off,67,0,0,,2,,,62,127
47529,note_on,59,0,0,,11,,,58,127
47653,note_off,124,0,0,,11,,,58,127
47653,note_off,0,0,0,,0,,,48,127
47654,note_on,1,0,0,,11,,,58,127
47654,note_on,0,0,0,,2,,,50,127
47778,note_off,124,0,0,,11,,,58,127
47779,note_on,1,0,0,,10,,,57,127
47903,note_off,124,0,0,,10,,,57,127
47904,note_on,1,0,0,,7,,,55,127
47904,note_on,0,0,0,,2,,,38,127
48028,note_off,124,0,0,,7,,,55,127
48029,note_on,1,0,0,,6,,,54,127
48149,note_off,120,0,0,,2,,,50,127
48153,note_off,4,0,0,,6,,,54,127
48153,note_off,0,0,0,,2,,,38,127
48154,note_on,1,0,0,,6,,,54,127
48154,note_on,0,0,0,,7,,,43,127
48654,note_off,500,0,0,,6,,,54,127
48655,note_on,1,0,0,,7,,,55,127
48937,note_off,282,0,0,,7,,,43,127
48937,note_on,0,0,0,,12,,,71,127
48968,note_off,31,0,0,,7,,,55,127
49061,note_off,93,0,0,,12,,,71,127
49062,note_on,1,0,0,,0,,,72,127
49186,note_off,124,0,0,,0,,,72,127
49187,note_on,1,0,0,,2,,,74,127
49311,note_off,124,0,0,,2,,,74,127
49312,note_on,1,0,0,,12,,,71,127
49436,note_off,124,0,0,,12,,,71,127
49437,note_on,1,0,0,,0,,,72,127
49561,note_off,124,0,0,,0,,,72,127
49562,note_on,1,0,0,,10,,,69,127
49686,note_off,124,0,0,,10,,,69,127
49687,note_on,1,0,0,,12,,,71,127
49687,note_on,0,0,0,,7,,,79,127
49811,note_off,124,0,0,,12,,,71,127
49812,note_on,1,0,0,,0,,,72,127
49936,note_off,124,0,0,,0,,,72,127
49937,note_on,1,0,0,,2,,,74,127
50061,note_off,124,0,0,,2,,,74,127
50062,note_on,1,0,0,,12,,,71,127
50186,note_off,124,0,0,,12,,,71,127
50186,note_off,0,0,0,,7,,,79,127
50187,note_on,1,0,0,,0,,,72,127
50187,note_on,0,0,0,,6,,,78,127
50311,note_off,124,0,0,,0,,,72,127
50312,note_on,1,0,0,,10,,,69,127
50436,note_off,124,0,0,,10,,,69,127
50436,note_off,0,0,0,,6,,,78,127
50437,note_on,1,0,0,,12,,,59,127
50437,note_on,0,0,0,,7,,,79,127
50437,note_on,0,0,0,,12,,,71,127
50561,note_off,124,0,0,,12,,,59,127
50562,note_on,1,0,0,,0,,,60,127
50686,note_off,124,0,0,,0,,,60,127
50687,note_on,1,0,0,,2,,,62,127
50811,note_off,124,0,0,,2,,,62,127
50812,note_on,1,0,0,,12,,,59,127
50936,note_off,124,0,0,,12,,,59,127
50936,note_off,0,0,0,,12,,,71,127
50936,note_off,0,0,0,,7,,,79,127
50937,note_on,1,0,0,,0,,,60,127
50937,note_on,0,0,0,,10,,,81,127
50937,note_on,0,0,0,,0,,,72,127
51061,note_off,124,0,0,,0,,,60,127
51062,note_on,1,0,0,,10,,,57,127
51186,note_off,124,0,0,,10,,,57,127
51186,note_off,0,0,0,,0,,,72,127
51186,note_off,0,0,0,,10,,,81,127
51187,note_on,1,0,0,,7,,,55,127
51187,note_on,0,0,0,,2,,,74,127
51187,note_on,0,0,0,,12,,,83,127
51311,note_off,124,0,0,,12,,,83,127
51312,note_on,1,0,0,,10,,,81,127
51436,note_off,124,0,0,,10,,,81,127
51437,note_on,1,0,0,,7,,,79,127
51561,note_off,124,0,0,,7,,,79,127
51562,note_on,1,0,0,,6,,,78,127
51686,note_off,124,0,0,,6,,,78,127
51686,note_off,0,0,0,,2,,,74,127
51687,note_on,1,0,0,,7,,,79,127
51936,note_off,249,0,0,,7,,,79,127
51936,note_off,0,0,0,,7,,,55,127
51948,note_on,12,0,0,,4,,,76,127
52072,note_off,124,0,0,,4,,,76,127
52073,note_on,1,0,0,,5,,,77,127
52197,note_off,124,0,0,,5,,,77,127
52198,note_on,1,0,0,,7,,,79,127
52322,note_off,124,0,0,,7,,,79,127
52323,note_on,1,0,0,,4,,,76,127
52447,note_off,124,0,0,,4,,,76,127
52448,note_on,1,0,0,,5,,,77,127
52572,note_off,124,0,0,,5,,,77,127
52573,note_on,1,0,0,,2,,,74,127
52697,note_off,124,0,0,,2,,,74,127
52698,note_on,1,0,0,,4,,,76,127
52698,note_on,0,0,0,,0,,,84,127
52822,note_off,124,0,0,,4,,,76,127
52823,note_on,1,0,0,,5,,,77,127
52947,note_off,124,0,0,,5,,,77,127
52948,note_on,1,0,0,,7,,,79,127
53072,note_off,124,0,0,,7,,,79,127
53073,note_on,1,0,0,,4,,,76,127
53197,note_off,124,0,0,,4,,,76,127
53197,note_off,0,0,0,,0,,,84,127
53198,note_on,1,0,0,,5,,,77,127
53198,note_on,0,0,0,,12,,,83,127
53322,note_off,124,0,0,,5,,,77,127
53323,note_on,1,0,0,,2,,,74,127
53447,note_off,124,0,0,,2,,,74,127
53447,note_off,0,0,0,,12,,,83,127
53448,note_on,1,0,0,,4,,,64,127
53448,note_on,0,0,0,,4,,,76,127
53448,note_on,0,0,0,,0,,,84,127
53572,note_off,124,0,0,,4,,,64,127
53573,note_on,1,0,0,,5,,,65,127
53697,note_off,124,0,0,,5,,,65,127
53698,note_on,1,0,0,,7,,,67,127
53822,note_off,124,0,0,,7,,,67,127
53823,note_on,1,0,0,,4,,,64,127
53947,note_off,124,0,0,,4,,,64,127
53947,note_off,0,0,0,,0,,,84,127
53947,note_off,0,0,0,,4,,,76,127
53948,note_on,1,0,0,,5,,,65,127
53948,note_on,0,0,0,,12,,,83,127
53948,note_on,0,0,0,,5,,,77,127
54072,note_off,124,0,0,,5,,,65,127
54073,note_on,1,0,0,,2,,,62,127
54197,note_off,124,0,0,,2,,,62,127
54197,note_off,0,0,0,,5,,,77,127
54197,note_off,0,0,0,,12,,,83,127
54198,note_on,1,0,0,,0,,,60,127
54198,note_on,0,0,0,,0,,,84,127
54322,note_off,124,0,0,,0,,,84,127
54323,note_on,1,0,0,,7,,,79,127
54447,note_off,124,0,0,,7,,,79,127
54448,note_on,1,0,0,,4,,,76,127
54572,note_off,124,0,0,,4,,,76,127
54573,note_on,1,0,0,,0,,,72,127
54697,note_off,124,0,0,,0,,,60,127
54709,note_off,12,0,0,,0,,,72,127
54709,note_on,0,0,0,,0,,,60,127
54709,note_on,0,0,0,,0,,,48,127
54958,note_off,249,0,0,,0,,,60,127
54962,note_off,4,0,0,,0,,,48,127
54980,note_on,18,0,0,,0,,,48,127
55043,note_on,63,0,0,,4,,,76,127
55104,note_off,61,0,0,,4,,,76,127
55105,note_on,1,0,0,,6,,,78,127
55166,note_off,61,0,0,,6,,,78,127
55167,note_on,1,0,0,,8,,,80,127
55228,note_off,61,0,0,,8,,,80,127
55229,note_on,1,0,0,,4,,,52,127
55229,note_on,0,0,0,,10,,,81,127
55290,note_off,61,0,0,,10,,,81,127
55291,note_on,1,0,0,,12,,,83,127
55352,note_off,61,0,0,,12,,,83,127
55353,note_on,1,0,0,,0,,,84,127
55414,note_off,61,0,0,,0,,,84,127
55415,note_on,1,0,0,,2,,,86,127
55476,note_off,61,0,0,,2,,,86,127
55476,note_off,0,0,0,,4,,,52,127
55477,note_on,1,0,0,,10,,,57,127
55477,note_on,0,0,0,,0,,,84,127
55726,note_off,249,0,0,,10,,,57,127
55726,note_off,0,0,0,,0,,,48,127
55727,note_on,1,0,0,,2,,,50,127
55727,note_on,0,0,0,,5,,,77,127
55976,note_off,249,0,0,,0,,,84,127
55977,note_on,1,0,0,,10,,,57,127
55977,note_on,0,0,0,,12,,,83,127
56226,note_off,249,0,0,,12,,,83,127
56226,note_off,0,0,0,,10,,,57,127
56227,note_on,1,0,0,,2,,,62,127
56227,note_on,0,0,0,,10,,,81,127
56476,note_off,249,0,0,,10,,,81,127
56476,note_off,0,0,0,,2,,,62,127
56476,note_off,0,0,0,,5,,,77,127
56476,note_off,0,0,0,,2,,,50,127
56477,note_on,1,0,0,,4,,,52,127
56477,note_on,0,0,0,,4,,,64,127
56477,note_on,0,0,0,,8,,,80,127
56477,note_on,0,0,0,,4,,,76,127
56726,note_off,249,0,0,,8,,,80,127
56726,note_off,0,0,0,,4,,,52,127
56727,note_on,1,0,0,,5,,,53,127
56727,note_on,0,0,0,,12,,,83,127
56788,note_off,61,0,0,,12,,,83,127
56789,note_on,1,0,0,,10,,,81,127
56850,note_off,61,0,0,,10,,,81,127
56851,note_on,1,0,0,,12,,,83,127
56912,note_off,61,0,0,,12,,,83,127
56913,note_on,1,0,0,,10,,,81,127
56974,note_off,61,0,0,,10,,,81,127
56974,note_off,0,0,0,,4,,,76,127
56974,note_off,0,0,0,,4,,,64,127
56975,note_on,1,0,0,,2,,,62,127
56975,note_on,0,0,0,,2,,,74,127
56975,note_on,0,0,0,,12,,,83,127
57036,note_off,61,0,0,,12,,,83,127
57037,note_on,1,0,0,,10,,,81,127
57098,note_off,61,0,0,,10,,,81,127
57099,note_on,1,0,0,,8,,,80,127
57160,note_off,61,0,0,,8,,,80,127
57161,note_on,1,0,0,,10,,,81,127
57222,note_off,61,0,0,,10,,,81,127
57222,note_off,0,0,0,,2,,,74,127
57222,note_off,0,0,0,,2,,,62,127
57222,note_off,0,0,0,,5,,,53,127
57223,note_on,1,0,0,,4,,,52,127
57223,note_on,0,0,0,,4,,,76,127
57223,note_on,0,0,0,,10,,,81,127
57473,note_on,250,0,0,,12,,,59,127
57722,note_off,249,0,0,,12,,,59,127
57722,note_off,0,0,0,,10,,,81,127
57722,note_off,0,0,0,,4,,,52,127
57723,note_on,1,0,0,,4,,,64,127
57723,note_on,0,0,0,,12,,,83,127
57972,note_off,249,0,0,,12,,,83,127
57972,note_off,0,0,0,,4,,,64,127
57972,note_off,0,0,0,,4,,,76,127
57973,note_on,1,0,0,,0,,,48,127
57973,note_on,0,0,0,,10,,,57,127
58223,note_on,250,0,0,,10,,,69,127
58223,note_on,0,0,0,,4,,,76,127
58472,note_off,249,0,0,,4,,,76,127
58473,note_on,1,0,0,,10,,,81,127
58722,note_off,249,0,0,,10,,,81,127
58722,note_off,0,0,0,,10,,,57,127
58722,note_off,0,0,0,,0,,,48,127
58723,note_on,1,0,0,,2,,,50,127
58723,note_on,0,0,0,,2,,,62,127
58723,note_on,0,0,0,,7,,,79,127
58972,note_off,249,0,0,,7,,,79,127
58973,note_on,1,0,0,,5,,,77,127
59222,note_off,249,0,0,,5,,,77,127
59222,note_off,0,0,0,,2,,,62,127
59222,note_off,0,0,0,,2,,,50,127
59222,note_off,0,0,0,,10,,,69,127
59223,note_on,1,0,0,,4,,,52,127
59223,note_on,0,0,0,,4,,,64,127
59223,note_on,0,0,0,,8,,,68,127
59223,note_on,0,0,0,,4,,,76,127
59472,note_off,249,0,0,,8,,,68,127
59472,note_off,0,0,0,,4,,,64,127
59472,note_off,0,0,0,,4,,,52,127
59473,note_on,1,0,0,,5,,,53,127
59473,note_on,0,0,0,,4,,,64,127
59473,note_on,0,0,0,,10,,,69,127
59718,note_off,245,0,0,,4,,,76,127
59723,note_on,5,0,0,,4,,,76,127
59784,note_off,61,0,0,,4,,,76,127
59785,note_on,1,0,0,,2,,,74,127
59846,note_off,61,0,0,,2,,,74,127
59847,note_on,1,0,0,,4,,,76,127
59908,note_off,61,0,0,,4,,,76,127
59909,note_on,1,0,0,,2,,,74,127
59970,note_off,61,0,0,,2,,,74,127
59970,note_off,0,0,0,,10,,,69,127
59970,note_off,0,0,0,,4,,,64,127
59971,note_on,1,0,0,,2,,,62,127
59971,note_on,0,0,0,,4,,,76,127
60032,note_off,61,0,0,,4,,,76,127
60033,note_on,1,0,0,,2,,,74,127
60094,note_off,61,0,0,,2,,,74,127
60095,note_on,1,0,0,,0,,,72,127
60156,note_off,61,0,0,,0,,,72,127
60157,note_on,1,0,0,,2,,,74,127
60218,note_off,61,0,0,,2,,,74,127
60218,note_off,0,0,0,,2,,,62,127
60218,note_off,0,0,0,,5,,,53,127
60219,note_on,1,0,0,,4,,,52,127
60219,note_on,0,0,0,,3,,,75,127
60469,note_on,250,0,0,,4,,,40,127
60718,note_off,249,0,0,,3,,,75,127
60718,note_off,0,0,0,,4,,,52,127
60719,note_on,1,0,0,,4,,,76,127
60952,note_off,233,0,0,,4,,,76,127
60968,note_off,16,0,0,,4,,,40,127
60990,note_on,22,0,0,,7,,,43,127
61053,note_on,63,0,0,,2,,,74,127
61114,note_off,61,0,0,,2,,,74,127
61115,note_on,1,0,0,,4,,,76,127
61176,note_off,61,0,0,,4,,,76,127
61177,note_on,1,0,0,,6,,,78,127
61238,note_off,61,0,0,,6,,,78,127
61239,note_on,1,0,0,,7,,,79,127
61300,note_off,61,0,0,,7,,,79,127
61301,note_on,1,0,0,,10,,,81,127
61362,note_off,61,0,0,,10,,,81,127
61363,note_on,1,0,0,,11,,,82,127
61424,note_off,61,0,0,,11,,,82,127
61425,note_on,1,0,0,,0,,,84,127
61486,note_off,61,0,0,,0,,,84,127
61486,note_off,0,0,0,,7,,,43,127
61487,note_on,1,0,0,,11,,,82,127
61487,note_on,0,0,0,,7,,,55,127
61736,note_off,249,0,0,,7,,,55,127
61737,note_on,1,0,0,,3,,,75,127
61737,note_on,0,0,0,,0,,,48,127
61986,note_off,249,0,0,,11,,,82,127
61987,note_on,1,0,0,,10,,,81,127
61987,note_on,0,0,0,,7,,,55,127
62236,note_off,249,0,0,,7,,,55,127
62236,note_off,0,0,0,,10,,,81,127
62237,note_on,1,0,0,,7,,,79,127
62237,note_on,0,0,0,,0,,,60,127
62486,note_off,249,0,0,,0,,,60,127
62486,note_off,0,0,0,,7,,,79,127
62486,note_off,0,0,0,,0,,,48,127
62486,note_off,0,0,0,,3,,,75,127
62487,note_on,1,0,0,,2,,,74,127
62487,note_on,0,0,0,,6,,,78,127
62487,note_on,0,0,0,,2,,,62,127
62487,note_on,0,0,0,,2,,,50,127
62736,note_off,249,0,0,,2,,,50,127
62736,note_off,0,0,0,,6,,,78,127
62737,note_on,1,0,0,,10,,,81,127
62737,note_on,0,0,0,,3,,,51,127
62798,note_off,61,0,0,,10,,,81,127
62799,note_on,1,0,0,,7,,,79,127
62860,note_off,61,0,0,,7,,,79,127
62861,note_on,1,0,0,,10,,,81,127
62922,note_off,61,0,0,,10,,,81,127
62923,note_on,1,0,0,,7,,,79,127
62984,note_off,61,0,0,,7,,,79,127
62984,note_off,0,0,0,,2,,,62,127
62984,note_off,0,0,0,,2,,,74,127
62985,note_on,1,0,0,,10,,,81,127
62985,note_on,0,0,0,,0,,,72,127
62985,note_on,0,0,0,,0,,,60,127
63046,note_off,61,0,0,,10,,,81,127
63047,note_on,1,0,0,,7,,,79,127
63108,note_off,61,0,0,,7,,,79,127
63109,note_on,1,0,0,,6,,,78,127
63170,note_off,61,0,0,,6,,,78,127
63171,note_on,1,0,0,,7,,,79,127
63232,note_off,61,0,0,,7,,,79,127
63232,note_off,0,0,0,,0,,,60,127
63232,note_off,0,0,0,,0,,,72,127
63232,note_off,0,0,0,,3,,,51,127
63233,note_on,1,0,0,,2,,,74,127
63233,note_on,0,0,0,,7,,,79,127
63233,note_on,0,0,0,,2,,,50,127
63483,note_on,250,0,0,,10,,,57,127
63732,note_off,249,0,0,,10,,,57,127
63732,note_off,0,0,0,,7,,,79,127
63733,note_on,1,0,0,,10,,,81,127
63733,note_on,0,0,0,,2,,,62,127
63982,note_off,249,0,0,,2,,,62,127
63982,note_off,0,0,0,,10,,,81,127
63982,note_off,0,0,0,,2,,,50,127
63982,note_off,0,0,0,,2,,,74,127
63983,note_on,1,0,0,,11,,,46,127
63983,note_on,0,0,0,,7,,,55,127
64233,note_on,250,0,0,,7,,,67,127
64233,note_on,0,0,0,,2,,,74,127
64482,note_off,249,0,0,,2,,,74,127
64483,note_on,1,0,0,,7,,,79,127
64732,note_off,249,0,0,,7,,,79,127
64732,note_off,0,0,0,,7,,,55,127
64732,note_off,0,0,0,,11,,,46,127
64733,note_on,1,0,0,,5,,,77,127
64733,note_on,0,0,0,,0,,,60,127
64733,note_on,0,0,0,,0,,,48,127
64982,note_off,249,0,0,,5,,,77,127
64983,note_on,1,0,0,,3,,,75,127
65232,note_off,249,0,0,,3,,,75,127
65232,note_off,0,0,0,,0,,,48,127
65232,note_off,0,0,0,,0,,,60,127
65232,note_off,0,0,0,,7,,,67,127
65233,note_on,1,0,0,,6,,,66,127
65233,note_on,0,0,0,,2,,,74,127
65233,note_on,0,0,0,,2,,,62,127
65233,note_on,0,0,0,,2,,,50,127
65482,note_off,249,0,0,,2,,,50,127
65482,note_off,0,0,0,,2,,,62,127
65482,note_off,0,0,0,,6,,,66,127
65483,note_on,1,0,0,,7,,,67,127
65483,note_on,0,0,0,,2,,,62,127
65483,note_on,0,0,0,,3,,,51,127
65728,note_off,245,0,0,,2,,,74,127
65733,note_on,5,0,0,,2,,,74,127
65794,note_off,61,0,0,,2,,,74,127
65795,note_on,1,0,0,,0,,,72,127
65856,note_off,61,0,0,,0,,,72,127
65857,note_on,1,0,0,,2,,,74,127
65918,note_off,61,0,0,,2,,,74,127
65919,note_on,1,0,0,,0,,,72,127
65980,note_off,61,0,0,,0,,,72,127
65980,note_off,0,0,0,,2,,,62,127
65980,note_off,0,0,0,,7,,,67,127
65981,note_on,1,0,0,,2,,,74,127
65981,note_on,0,0,0,,0,,,60,127
66042,note_off,61,0,0,,2,,,74,127
66043,note_on,1,0,0,,0,,,72,127
66104,note_off,61,0,0,,0,,,72,127
66105,note_on,1,0,0,,11,,,70,127
66166,note_off,61,0,0,,11,,,70,127
66167,note_on,1,0,0,,0,,,72,127
66228,note_off,61,0,0,,0,,,72,127
66228,note_off,0,0,0,,0,,,60,127
66228,note_off,0,0,0,,3,,,51,127
66229,note_on,1,0,0,,1,,,73,127
66229,note_on,0,0,0,,2,,,50,127
66479,note_on,250,0,0,,2,,,38,127
66728,note_off,249,0,0,,2,,,50,127
66728,note_off,0,0,0,,1,,,73,127
66729,note_on,1,0,0,,2,,,74,127
66995,note_off,266,0,0,,2,,,74,127
67000,note_on,5,0,0,,5,,,41,127
67005,note_off,5,0,0,,2,,,38,127
67062,note_on,57,0,0,,0,,,72,127
67123,note_off,61,0,0,,0,,,72,127
67124,note_on,1,0,0,,2,,,74,127
67185,note_off,61,0,0,,2,,,74,127
67186,note_on,1,0,0,,4,,,76,127
67247,note_off,61,0,0,,4,,,76,127
67248,note_on,1,0,0,,5,,,77,127
67309,note_off,61,0,0,,5,,,77,127
67310,note_on,1,0,0,,7,,,79,127
67371,note_off,61,0,0,,7,,,79,127
67372,note_on,1,0,0,,8,,,80,127
67433,note_off,61,0,0,,8,,,80,127
67434,note_on,1,0,0,,11,,,82,127
67495,note_off,61,0,0,,11,,,82,127
67495,note_off,0,0,0,,5,,,41,127
67496,note_on,1,0,0,,5,,,53,127
67496,note_on,0,0,0,,8,,,80,127
67745,note_off,249,0,0,,5,,,53,127
67746,note_on,1,0,0,,11,,,46,127
67746,note_on,0,0,0,,1,,,73,127
67995,note_off,249,0,0,,8,,,80,127
67996,note_on,1,0,0,,5,,,53,127
67996,note_on,0,0,0,,7,,,79,127
68245,note_off,249,0,0,,7,,,79,127
68245,note_off,0,0,0,,5,,,53,127
68246,note_on,1,0,0,,11,,,58,127
68246,note_on,0,0,0,,5,,,77,127
68495,note_off,249,0,0,,5,,,77,127
68495,note_off,0,0,0,,11,,,58,127
68495,note_off,0,0,0,,1,,,73,127
68495,note_off,0,0,0,,11,,,46,127
68496,note_on,1,0,0,,0,,,48,127
68496,note_on,0,0,0,,0,,,60,127
68496,note_on,0,0,0,,4,,,76,127
68496,note_on,0,0,0,,0,,,72,127
68745,note_off,249,0,0,,4,,,76,127
68745,note_off,0,0,0,,0,,,48,127
68746,note_on,1,0,0,,1,,,49,127
68746,note_on,0,0,0,,7,,,79,127
68807,note_off,61,0,0,,7,,,79,127
68808,note_on,1,0,0,,5,,,77,127
68869,note_off,61,0,0,,5,,,77,127
68870,note_on,1,0,0,,7,,,79,127
68931,note_off,61,0,0,,7,,,79,127
68932,note_on,1,0,0,,5,,,77,127
68993,note_off,61,0,0,,5,,,77,127
68993,note_off,0,0,0,,0,,,72,127
68993,note_off,0,0,0,,0,,,60,127
68994,note_on,1,0,0,,11,,,58,127
68994,note_on,0,0,0,,7,,,79,127
69055,note_off,61,0,0,,7,,,79,127
69056,note_on,1,0,0,,5,,,77,127
69117,note_off,61,0,0,,5,,,77,127
69118,note_on,1,0,0,,4,,,76,127
69179,note_off,61,0,0,,4,,,76,127
69180,note_on,1,0,0,,5,,,77,127
69241,note_off,61,0,0,,5,,,77,127
69241,note_off,0,0,0,,11,,,58,127
69241,note_off,0,0,0,,1,,,49,127
69242,note_on,1,0,0,,0,,,60,127
69242,note_on,0,0,0,,0,,,48,127
69242,note_on,0,0,0,,7,,,79,127
69366,note_off,124,0,0,,7,,,79,127
69367,note_on,1,0,0,,5,,,77,127
69491,note_off,124,0,0,,5,,,77,127
69492,note_on,1,0,0,,4,,,76,127
69616,note_off,124,0,0,,4,,,76,127
69617,note_on,1,0,0,,1,,,73,127
69741,note_off,124,0,0,,1,,,73,127
69741,note_off,0,0,0,,0,,,48,127
69741,note_off,0,0,0,,0,,,60,127
69742,note_on,1,0,0,,0,,,60,127
69742,note_on,0,0,0,,4,,,52,127
69742,note_on,0,0,0,,7,,,79,127
69742,note_on,0,0,0,,0,,,72,127
69866,note_off,124,0,0,,0,,,72,127
69867,note_on,1,0,0,,11,,,70,127
69991,note_off,124,0,0,,11,,,70,127
69991,note_off,0,0,0,,4,,,52,127
69991,note_off,0,0,0,,0,,,60,127
69992,note_on,1,0,0,,5,,,53,127
69992,note_on,0,0,0,,0,,,60,127
69992,note_on,0,0,0,,8,,,68,127
70116,note_off,124,0,0,,7,,,79,127
70117,note_on,1,0,0,,7,,,79,127
70241,note_off,124,0,0,,7,,,79,127
70242,note_on,1,0,0,,5,,,77,127
70366,note_off,124,0,0,,5,,,77,127
70367,note_on,1,0,0,,3,,,75,127
70491,note_off,124,0,0,,3,,,75,127
70491,note_off,0,0,0,,0,,,60,127
70491,note_off,0,0,0,,5,,,53,127
70492,note_on,1,0,0,,8,,,56,127
70492,note_on,0,0,0,,2,,,74,127
70616,note_off,124,0,0,,2,,,74,127
70617,note_on,1,0,0,,0,,,72,127
70741,note_off,124,0,0,,0,,,72,127
70741,note_off,0,0,0,,8,,,56,127
70741,note_off,0,0,0,,8,,,68,127
70742,note_on,1,0,0,,7,,,55,127
70742,note_on,0,0,0,,12,,,71,127
70866,note_off,124,0,0,,12,,,71,127
70867,note_on,1,0,0,,0,,,72,127
70991,note_off,124,0,0,,0,,,72,127
70992,note_on,1,0,0,,2,,,74,127
71116,note_off,124,0,0,,2,,,74,127
71117,note_on,1,0,0,,3,,,75,127
71241,note_off,124,0,0,,3,,,75,127
71242,note_on,1,0,0,,5,,,77,127
71366,note_off,124,0,0,,5,,,77,127
71367,note_on,1,0,0,,7,,,67,127
71491,note_off,124,0,0,,7,,,67,127
71491,note_off,0,0,0,,7,,,55,127
71492,note_on,1,0,0,,12,,,59,127
71492,note_on,0,0,0,,7,,,67,127
71616,note_off,124,0,0,,12,,,59,127
71617,note_on,1,0,0,,0,,,60,127
71741,note_off,124,0,0,,0,,,60,127
71742,note_on,1,0,0,,2,,,62,127
71866,note_off,124,0,0,,2,,,62,127
71867,note_on,1,0,0,,3,,,63,127
71991,note_off,124,0,0,,3,,,63,127
71991,note_off,0,0,0,,7,,,67,127
71992,note_on,1,0,0,,5,,,65,127
71992,note_on,0,0,0,,8,,,68,127
72116,note_off,124,0,0,,5,,,65,127
72117,note_on,1,0,0,,8,,,56,127
72241,note_off,124,0,0,,8,,,56,127
72241,note_off,0,0,0,,8,,,68,127
72242,note_on,1,0,0,,7,,,55,127
72242,note_on,0,0,0,,12,,,71,127
72366,note_off,124,0,0,,12,,,71,127
72367,note_on,1,0,0,,0,,,72,127
72491,note_off,124,0,0,,0,,,72,127
72492,note_on,1,0,0,,2,,,74,127
72616,note_off,124,0,0,,2,,,74,127
72617,note_on,1,0,0,,3,,,75,127
72741,note_off,124,0,0,,3,,,75,127
72742,note_on,1,0,0,,5,,,77,127
72866,note_off,124,0,0,,5,,,77,127
72867,note_on,1,0,0,,7,,,67,127
72991,note_off,124,0,0,,7,,,67,127
72991,note_off,0,0,0,,7,,,55,127
72992,note_on,1,0,0,,12,,,59,127
72992,note_on,0,0,0,,7,,,67,127
73116,note_off,124,0,0,,12,,,59,127
73117,note_on,1,0,0,,0,,,60,127
73241,note_off,124,0,0,,0,,,60,127
73242,note_on,1,0,0,,2,,,62,127
73366,note_off,124,0,0,,2,,,62,127
73367,note_on,1,0,0,,3,,,63,127
73491,note_off,124,0,0,,3,,,63,127
73491,note_off,0,0,0,,7,,,67,127
73492,note_on,1,0,0,,5,,,65,127
73492,note_on,0,0,0,,8,,,68,127
73616,note_off,124,0,0,,5,,,65,127
73617,note_on,1,0,0,,8,,,56,127
73727,note_off,110,0,0,,8,,,68,127
73741,note_off,14,0,0,,8,,,56,127
73742,note_on,1,0,0,,7,,,55,127
73867,note_on,125,0,0,,5,,,77,127
73991,note_off,124,0,0,,5,,,77,127
73992,note_on,1,0,0,,3,,,75,127
74116,note_off,124,0,0,,3,,,75,127
74117,note_on,1,0,0,,2,,,74,127
74241,note_off,124,0,0,,2,,,74,127
74242,note_on,1,0,0,,0,,,72,127
74366,note_off,124,0,0,,0,,,72,127
74367,note_on,1,0,0,,12,,,71,127
74491,note_off,124,0,0,,12,,,71,127
74492,note_on,1,0,0,,0,,,72,127
74616,note_off,124,0,0,,7,,,55,127
74617,note_on,1,0,0,,5,,,65,127
74741,note_off,124,0,0,,5,,,65,127
74742,note_on,1,0,0,,3,,,63,127
74866,note_off,124,0,0,,3,,,63,127
74867,note_on,1,0,0,,2,,,62,127
74991,note_off,124,0,0,,2,,,62,127
74992,note_on,1,0,0,,0,,,60,127
75116,note_off,124,0,0,,0,,,60,127
75117,note_on,1,0,0,,12,,,59,127
75241,note_off,124,0,0,,12,,,59,127
75242,note_on,1,0,0,,0,,,60,127
75325,note_off,83,0,0,,0,,,72,127
75367,note_on,42,0,0,,3,,,75,127
75491,note_off,124,0,0,,3,,,75,127
75492,note_on,1,0,0,,0,,,72,127
75616,note_off,124,0,0,,0,,,72,127
75617,note_on,1,0,0,,11,,,70,127
75741,note_off,124,0,0,,11,,,70,127
75742,note_on,1,0,0,,10,,,69,127
75866,note_off,124,0,0,,10,,,69,127
75867,note_on,1,0,0,,7,,,67,127
75991,note_off,124,0,0,,7,,,67,127
75992,note_on,1,0,0,,6,,,66,127
76116,note_off,124,0,0,,0,,,60,127
76117,note_on,1,0,0,,3,,,63,127
76241,note_off,124,0,0,,3,,,63,127
76242,note_on,1,0,0,,2,,,62,127
76366,note_off,124,0,0,,2,,,62,127
76367,note_on,1,0,0,,0,,,60,127
76491,note_off,124,0,0,,0,,,60,127
76492,note_on,1,0,0,,11,,,58,127
76616,note_off,124,0,0,,11,,,58,127
76617,note_on,1,0,0,,10,,,57,127
76741,note_off,124,0,0,,10,,,57,127
76741,note_off,0,0,0,,6,,,66,127
76742,note_on,1,0,0,,7,,,55,127
76742,note_on,0,0,0,,7,,,67,127
76866,note_off,124,0,0,,7,,,67,127
76867,note_on,1,0,0,,8,,,68,127
76991,note_off,124,0,0,,8,,,68,127
76991,note_off,0,0,0,,7,,,55,127
76992,note_on,1,0,0,,12,,,59,127
76992,note_on,0,0,0,,7,,,67,127
77116,note_off,124,0,0,,7,,,67,127
77117,note_on,1,0,0,,5,,,65,127
77241,note_off,124,0,0,,5,,,65,127
77241,note_off,0,0,0,,12,,,59,127
77242,note_on,1,0,0,,7,,,55,127
77242,note_on,0,0,0,,3,,,63,127
77366,note_off,124,0,0,,3,,,63,127
77367,note_on,1,0,0,,2,,,62,127
77491,note_off,124,0,0,,2,,,62,127
77491,note_off,0,0,0,,7,,,55,127
77503,note_on,12,0,0,,0,,,60,127
77503,note_on,0,0,0,,3,,,63,127
77627,note_off,124,0,0,,0,,,60,127
77628,note_on,1,0,0,,3,,,51,127
77628,note_on,0,0,0,,0,,,72,127
77752,note_off,124,0,0,,0,,,72,127
77752,note_off,0,0,0,,3,,,51,127
77753,note_on,1,0,0,,5,,,53,127
77753,note_on,0,0,0,,8,,,68,127
77877,note_off,124,0,0,,5,,,53,127
77877,note_off,0,0,0,,3,,,63,127
77878,note_on,1,0,0,,8,,,56,127
77878,note_on,0,0,0,,5,,,65,127
78002,note_off,124,0,0,,5,,,65,127
78002,note_off,0,0,0,,8,,,56,127
78003,note_on,1,0,0,,7,,,55,127
78003,note_on,0,0,0,,2,,,62,127
78127,note_off,124,0,0,,7,,,55,127
78127,note_off,0,0,0,,8,,,68,127
78128,note_on,1,0,0,,12,,,59,127
78128,note_on,0,0,0,,2,,,74,127
78252,note_off,124,0,0,,2,,,74,127
78252,note_off,0,0,0,,12,,,59,127
78252,note_off,0,0,0,,2,,,62,127
78253,note_on,1,0,0,,0,,,60,127
78253,note_on,0,0,0,,3,,,63,127
78377,note_off,124,0,0,,0,,,60,127
78378,note_on,1,0,0,,3,,,51,127
78378,note_on,0,0,0,,0,,,72,127
78502,note_off,124,0,0,,0,,,72,127
78502,note_off,0,0,0,,3,,,51,127
78503,note_on,1,0,0,,5,,,53,127
78503,note_on,0,0,0,,8,,,68,127
78627,note_off,124,0,0,,5,,,53,127
78627,note_off,0,0,0,,3,,,63,127
78628,note_on,1,0,0,,8,,,56,127
78628,note_on,0,0,0,,5,,,65,127
78752,note_off,124,0,0,,5,,,65,127
78752,note_off,0,0,0,,8,,,56,127
78753,note_on,1,0,0,,7,,,55,127
78753,note_on,0,0,0,,2,,,62,127
78877,note_off,124,0,0,,7,,,55,127
78877,note_off,0,0,0,,8,,,68,127
78878,note_on,1,0,0,,12,,,59,127
78878,note_on,0,0,0,,2,,,74,127
79002,note_off,124,0,0,,2,,,74,127
79002,note_off,0,0,0,,12,,,59,127
79002,note_off,0,0,0,,2,,,62,127
79003,note_on,1,0,0,,0,,,48,127
79003,note_on,0,0,0,,0,,,60,127
79003,note_on,0,0,0,,3,,,63,127
79127,note_off,124,0,0,,3,,,63,127
79128,note_on,1,0,0,,2,,,62,127
79252,note_off,124,0,0,,2,,,62,127
79253,note_on,1,0,0,,3,,,63,127
79377,note_off,124,0,0,,3,,,63,127
79377,note_off,0,0,0,,0,,,48,127
79378,note_on,1,0,0,,2,,,50,127
79378,note_on,0,0,0,,5,,,65,127
79502,note_off,124,0,0,,5,,,65,127
79502,note_off,0,0,0,,2,,,50,127
79503,note_on,1,0,0,,3,,,51,127
79503,note_on,0,0,0,,7,,,67,127
79626,note_off,123,0,0,,0,,,60,127
79627,note_off,1,0,0,,7,,,67,127
79628,note_on,1,0,0,,0,,,60,127
79752,note_off,124,0,0,,0,,,60,127
79752,note_off,0,0,0,,3,,,51,127
79753,note_on,1,0,0,,5,,,65,127
79753,note_on,0,0,0,,5,,,53,127
79753,note_on,0,0,0,,8,,,68,127
79877,note_off,124,0,0,,8,,,68,127
79878,note_on,1,0,0,,0,,,72,127
80002,note_off,124,0,0,,0,,,72,127
80002,note_off,0,0,0,,5,,,53,127
80002,note_off,0,0,0,,5,,,65,127
80003,note_on,1,0,0,,3,,,63,127
80003,note_on,0,0,0,,7,,,55,127
80003,note_on,0,0,0,,7,,,67,127
80127,note_off,124,0,0,,7,,,67,127
80128,note_on,1,0,0,,0,,,72,127
80252,note_off,124,0,0,,0,,,72,127
80252,note_off,0,0,0,,3,,,63,127
80253,note_on,1,0,0,,2,,,62,127
80253,note_on,0,0,0,,5,,,65,127
80377,note_off,124,0,0,,5,,,65,127
80378,note_on,1,0,0,,12,,,71,127
80502,note_off,124,0,0,,2,,,62,127
80502,note_off,0,0,0,,7,,,55,127
80514,note_on,12,0,0,,0,,,60,127
80514,note_on,0,0,0,,0,,,72,127
80515,note_off,1,0,0,,12,,,71,127
80638,note_off,123,0,0,,0,,,60,127
80639,note_on,1,0,0,,3,,,63,127
80639,note_on,0,0,0,,0,,,84,127
80763,note_off,124,0,0,,0,,,84,127
80763,note_off,0,0,0,,3,,,63,127
80764,note_on,1,0,0,,5,,,65,127
80764,note_on,0,0,0,,8,,,80,127
80888,note_off,124,0,0,,5,,,65,127
80888,note_off,0,0,0,,0,,,72,127
80889,note_on,1,0,0,,8,,,68,127
80889,note_on,0,0,0,,5,,,77,127
81013,note_off,124,0,0,,5,,,77,127
81013,note_off,0,0,0,,8,,,68,127
81014,note_on,1,0,0,,7,,,67,127
81014,note_on,0,0,0,,2,,,74,127
81138,note_off,124,0,0,,7,,,67,127
81138,note_off,0,0,0,,8,,,80,127
81139,note_on,1,0,0,,12,,,71,127
81139,note_on,0,0,0,,2,,,86,127
81263,note_off,124,0,0,,2,,,86,127
81263,note_off,0,0,0,,12,,,71,127
81263,note_off,0,0,0,,2,,,74,127
81264,note_on,1,0,0,,3,,,75,127
81264,note_on,0,0,0,,0,,,60,127
81264,note_on,0,0,0,,0,,,72,127
81388,note_off,124,0,0,,3,,,75,127
81389,note_on,1,0,0,,2,,,74,127
81513,note_off,124,0,0,,2,,,74,127
81514,note_on,1,0,0,,3,,,75,127
81638,note_off,124,0,0,,3,,,75,127
81638,note_off,0,0,0,,0,,,60,127
81639,note_on,1,0,0,,5,,,77,127
81639,note_on,0,0,0,,2,,,62,127
81763,note_off,124,0,0,,2,,,62,127
81763,note_off,0,0,0,,5,,,77,127
81764,note_on,1,0,0,,7,,,79,127
81764,note_on,0,0,0,,3,,,63,127
81887,note_off,123,0,0,,0,,,72,127
81888,note_off,1,0,0,,7,,,79,127
81889,note_on,1,0,0,,0,,,72,127
82013,note_off,124,0,0,,0,,,72,127
82013,note_off,0,0,0,,3,,,63,127
82014,note_on,1,0,0,,2,,,74,127
82014,note_on,0,0,0,,5,,,65,127
82138,note_off,124,0,0,,2,,,74,127
82139,note_on,1,0,0,,5,,,77,127
82263,note_off,124,0,0,,5,,,77,127
82263,note_off,0,0,0,,5,,,65,127
82264,note_on,1,0,0,,3,,,75,127
82264,note_on,0,0,0,,7,,,67,127
82388,note_off,124,0,0,,3,,,75,127
82389,note_on,1,0,0,,2,,,74,127
82513,note_off,124,0,0,,2,,,74,127
82514,note_on,1,0,0,,0,,,72,127
82514,note_on,0,0,0,,7,,,55,127
82638,note_off,124,0,0,,0,,,72,127
82639,note_on,1,0,0,,12,,,71,127
82763,note_off,124,0,0,,7,,,67,127
82790,note_off,27,0,0,,7,,,55,127
82795,note_on,5,0,0,,0,,,48,127
82888,note_off,93,0,0,,12,,,71,127
83045,note_off,157,0,0,,0,,,48,127
83046,note_on,1,0,0,,2,,,50,127
83046,note_on,0,0,0,,2,,,86,127
83107,note_off,61,0,0,,2,,,86,127
83108,note_on,1,0,0,,0,,,84,127
83169,note_off,61,0,0,,0,,,84,127
83170,note_on,1,0,0,,2,,,86,127
83231,note_off,61,0,0,,2,,,86,127
83232,note_on,1,0,0,,0,,,84,127
83293,note_off,61,0,0,,0,,,84,127
83293,note_off,0,0,0,,2,,,50,127
83294,note_on,1,0,0,,3,,,51,127
83294,note_on,0,0,0,,2,,,86,127
83355,note_off,61,0,0,,2,,,86,127
83356,note_on,1,0,0,,0,,,84,127
83417,note_off,61,0,0,,0,,,84,127
83418,note_on,1,0,0,,12,,,83,127
83479,note_off,61,0,0,,12,,,83,127
83480,note_on,1,0,0,,0,,,84,127
83541,note_off,61,0,0,,3,,,51,127
83542,note_on,1,0,0,,5,,,53,127
83603,note_off,61,0,0,,0,,,84,127
83791,note_off,188,0,0,,5,,,53,127
83792,note_on,1,0,0,,7,,,55,127
83792,note_on,0,0,0,,2,,,74,127
83853,note_off,61,0,0,,2,,,74,127
83854,note_on,1,0,0,,0,,,72,127
83915,note_off,61,0,0,,0,,,72,127
83916,note_on,1,0,0,,2,,,74,127
83977,note_off,61,0,0,,2,,,74,127
83978,note_on,1,0,0,,0,,,72,127
84039,note_off,61,0,0,,0,,,72,127
84040,note_on,1,0,0,,7,,,43,127
84040,note_on,0,0,0,,2,,,74,127
84101,note_off,61,0,0,,2,,,74,127
84102,note_on,1,0,0,,0,,,72,127
84163,note_off,61,0,0,,0,,,72,127
84164,note_on,1,0,0,,12,,,71,127
84225,note_off,61,0,0,,12,,,71,127
84226,note_on,1,0,0,,0,,,72,127
84287,note_off,61,0,0,,7,,,43,127
84287,note_off,0,0,0,,7,,,55,127
84288,note_on,1,0,0,,0,,,48,127
84349,note_off,61,0,0,,0,,,72,127
84537,note_off,188,0,0,,0,,,48,127
84538,note_on,1,0,0,,2,,,50,127
84538,note_on,0,0,0,,2,,,62,127
84599,note_off,61,0,0,,2,,,62,127
84600,note_on,1,0,0,,0,,,60,127
84661,note_off,61,0,0,,0,,,60,127
84662,note_on,1,0,0,,2,,,62,127
84723,note_off,61,0,0,,2,,,62,127
84724,note_on,1,0,0,,0,,,60,127
84785,note_off,61,0,0,,0,,,60,127
84785,note_off,0,0,0,,2,,,50,127
84786,note_on,1,0,0,,3,,,51,127
84786,note_on,0,0,0,,2,,,62,127
84847,note_off,61,0,0,,2,,,62,127
84848,note_on,1,0,0,,0,,,60,127
84909,note_off,61,0,0,,0,,,60,127
84910,note_on,1,0,0,,12,,,59,127
84971,note_off,61,0,0,,12,,,59,127
84972,note_on,1,0,0,,0,,,60,127
85033,note_off,61,0,0,,3,,,51,127
85034,note_on,1,0,0,,5,,,53,127
85095,note_off,61,0,0,,0,,,60,127
85283,note_off,188,0,0,,5,,,53,127
85284,note_on,1,0,0,,7,,,55,127
85284,note_on,0,0,0,,2,,,74,127
85345,note_off,61,0,0,,2,,,74,127
85346,note_on,1,0,0,,0,,,72,127
85407,note_off,61,0,0,,0,,,72,127
85408,note_on,1,0,0,,2,,,74,127
85469,note_off,61,0,0,,2,,,74,127
85470,note_on,1,0,0,,0,,,72,127
85531,note_off,61,0,0,,0,,,72,127
85532,note_on,1,0,0,,7,,,43,127
85532,note_on,0,0,0,,2,,,74,127
85593,note_off,61,0,0,,2,,,74,127
85594,note_on,1,0,0,,0,,,72,127
85655,note_off,61,0,0,,0,,,72,127
85656,note_on,1,0,0,,12,,,71,127
85717,note_off,61,0,0,,12,,,71,127
85718,note_on,1,0,0,,0,,,72,127
85779,note_off,61,0,0,,7,,,43,127
85779,note_off,0,0,0,,7,,,55,127
85780,note_on,1,0,0,,0,,,48,127
85841,note_off,61,0,0,,0,,,72,127
86029,note_off,188,0,0,,0,,,48,127
86030,note_on,1,0,0,,2,,,50,127
86030,note_on,0,0,0,,2,,,86,127
86091,note_off,61,0,0,,2,,,86,127
86092,note_on,1,0,0,,0,,,84,127
86153,note_off,61,0,0,,0,,,84,127
86154,note_on,1,0,0,,2,,,86,127
86215,note_off,61,0,0,,2,,,86,127
86216,note_on,1,0,0,,0,,,84,127
86277,note_off,61,0,0,,0,,,84,127
86277,note_off,0,0,0,,2,,,50,127
86278,note_on,1,0,0,,3,,,51,127
86278,note_on,0,0,0,,2,,,86,127
86339,note_off,61,0,0,,2,,,86,127
86340,note_on,1,0,0,,0,,,84,127
86401,note_off,61,0,0,,0,,,84,127
86402,note_on,1,0,0,,12,,,83,127
86463,note_off,61,0,0,,12,,,83,127
86464,note_on,1,0,0,,0,,,84,127
86525,note_off,61,0,0,,3,,,51,127
86526,note_on,1,0,0,,5,,,53,127
86587,note_off,61,0,0,,0,,,84,127
86775,note_off,188,0,0,,5,,,53,127
86793,note_on,18,0,0,,2,,,74,127
86793,note_on,0,0,0,,7,,,55,127
86857,note_off,64,0,0,,2,,,74,127
86862,note_on,5,0,0,,0,,,72,127
86926,note_off,64,0,0,,0,,,72,127
86930,note_on,4,0,0,,2,,,74,127
86994,note_off,64,0,0,,2,,,74,127
86999,note_on,5,0,0,,0,,,72,127
87063,note_off,64,0,0,,0,,,72,127
87068,note_on,5,0,0,,2,,,74,127
87068,note_on,0,0,0,,7,,,43,127
87132,note_off,64,0,0,,2,,,74,127
87137,note_on,5,0,0,,0,,,72,127
87201,note_off,64,0,0,,0,,,72,127
87206,note_on,5,0,0,,12,,,71,127
87317,note_off,111,0,0,,7,,,55,127
87329,note_off,12,0,0,,7,,,43,127
87347,note_off,18,0,0,,12,,,71,127
87373,note_on,26,0,0,,12,,,71,127
87373,note_on,0,0,0,,0,,,48,127
87373,note_on,0,0,0,,0,,,36,127
88030,note_off,657,0,0,,12,,,71,127
88048,note_on,18,0,0,,0,,,72,127
89738,note_off,1690,0,0,,0,,,36,127
89738,note_off,0,0,0,,0,,,48,127
89756,note_off,18,0,0,,0,,,72,127
95232,end_of_track,5476,1,0,,,,,,
