tick,type,time,meta,track,program,channel,pitch,tempo,note,velocity
0,copyright,0,1,0,,,,,,
0,program_change,0,0,0,6,0,,,,
0,pitchwheel,0,0,0,,0,0,,,
0,program_change,0,0,0,6,1,,,,
0,pitchwheel,0,0,0,,1,-590,,,
0,program_change,0,0,0,6,2,,,,
0,pitchwheel,0,0,0,,2,-272,,,
0,program_change,0,0,0,6,3,,,,
0,pitchwheel,0,0,0,,3,-353,,,
0,program_change,0,0,0,6,4,,,,
0,pitchwheel,0,0,0,,4,-560,,,
0,program_change,0,0,0,6,5,,,,
0,pitchwheel,0,0,0,,5,-80,,,
0,program_change,0,0,0,6,6,,,,
0,pitchwheel,0,0,0,,6,-625,,,
0,program_change,0,0,0,6,7,,,,
0,pitchwheel,0,0,0,,7,-130,,,
0,program_change,0,0,0,6,8,,,,
0,pitchwheel,0,0,0,,8,-512,,,
0,program_change,0,0,0,6,10,,,,
0,pitchwheel,0,0,0,,10,-464,,,
0,program_change,0,0,0,6,11,,,,
0,pitchwheel,0,0,0,,11,-208,,,
0,program_change,0,0,0,6,12,,,,
0,pitchwheel,0,0,0,,12,-553,,,
0,set_tempo,0,1,0,,,,500000,,
230,note_on,230,0,0,,6,,,78,127
458,note_off,228,0,0,,6,,,78,127
460,note_on,2,0,0,,2,,,74,127
688,note_off,228,0,0,,2,,,74,127
690,note_on,2,0,0,,12,,,71,127
918,note_off,228,0,0,,12,,,71,127
920,note_on,2,0,0,,7,,,79,127
978,note_on,58,0,0,,6,,,78,127
995,note_off,17,0,0,,7,,,79,127
1036,note_on,41,0,0,,7,,,79,127
1053,note_off,17,0,0,,6,,,78,127
1094,note_on,41,0,0,,6,,,78,127
1111,note_off,17,0,0,,7,,,79,127
1152,note_on,41,0,0,,7,,,79,127
1169,note_off,17,0,0,,6,,,78,127
1210,note_on,41,0,0,,6,,,78,127
1227,note_off,17,0,0,,7,,,79,127
1268,note_on,41,0,0,,4,,,76,127
1285,note_off,17,0,0,,6,,,78,127
1326,note_on,41,0,0,,6,,,78,127
1343,note_off,17,0,0,,4,,,76,127
1383,note_off,40,0,0,,6,,,78,127
1384,note_on,1,0,0,,7,,,79,127
1612,note_off,228,0,0,,7,,,79,127
1614,note_on,2,0,0,,6,,,78,127
1842,note_off,228,0,0,,6,,,78,127
1844,note_on,2,0,0,,11,,,82,127
2074,note_on,230,0,0,,6,,,66,127
2302,note_off,228,0,0,,6,,,66,127
2302,note_off,0,0,0,,11,,,82,127
2304,note_on,2,0,0,,12,,,83,127
2304,note_on,0,0,0,,2,,,62,127
2532,note_off,228,0,0,,2,,,62,127
2534,note_on,2,0,0,,12,,,59,127
2649,note_off,115,0,0,,12,,,83,127
2762,note_off,113,0,0,,12,,,59,127
2764,note_on,2,0,0,,7,,,67,127
2838,note_off,74,0,0,,7,,,67,127
2840,note_on,2,0,0,,6,,,66,127
2914,note_off,74,0,0,,6,,,66,127
2916,note_on,2,0,0,,7,,,67,127
2990,note_off,74,0,0,,7,,,67,127
2992,note_on,2,0,0,,6,,,78,127
2992,note_on,0,0,0,,6,,,66,127
3066,note_off,74,0,0,,6,,,66,127
3068,note_on,2,0,0,,4,,,64,127
3142,note_off,74,0,0,,4,,,64,127
3144,note_on,2,0,0,,6,,,66,127
3218,note_off,74,0,0,,6,,,66,127
3218,note_off,0,0,0,,6,,,78,127
3220,note_on,2,0,0,,4,,,76,127
3220,note_on,0,0,0,,7,,,67,127
3448,note_off,228,0,0,,7,,,67,127
3448,note_off,0,0,0,,4,,,76,127
3450,note_on,2,0,0,,7,,,79,127
3450,note_on,0,0,0,,4,,,64,127
3678,note_off,228,0,0,,4,,,64,127
3678,note_off,0,0,0,,7,,,79,127
3680,note_on,2,0,0,,10,,,81,127
3680,note_on,0,0,0,,11,,,70,127
3793,note_off,113,0,0,,10,,,81,127
3795,note_on,2,0,0,,7,,,79,127
3908,note_off,113,0,0,,7,,,79,127
3910,note_on,2,0,0,,6,,,78,127
4023,note_off,113,0,0,,6,,,78,127
4025,note_on,2,0,0,,4,,,76,127
4138,note_off,113,0,0,,4,,,76,127
4138,note_off,0,0,0,,11,,,70,127
4140,note_on,2,0,0,,2,,,74,127
4140,note_on,0,0,0,,12,,,71,127
4368,note_off,228,0,0,,2,,,74,127
4370,note_on,2,0,0,,7,,,79,127
4485,note_off,115,0,0,,12,,,71,127
4598,note_off,113,0,0,,7,,,79,127
4600,note_on,2,0,0,,10,,,81,127
4600,note_on,0,0,0,,11,,,70,127
4713,note_off,113,0,0,,10,,,81,127
4715,note_on,2,0,0,,7,,,79,127
4828,note_off,113,0,0,,7,,,79,127
4830,note_on,2,0,0,,6,,,78,127
4943,note_off,113,0,0,,6,,,78,127
4945,note_on,2,0,0,,4,,,76,127
5058,note_off,113,0,0,,4,,,76,127
5058,note_off,0,0,0,,11,,,70,127
5060,note_on,2,0,0,,2,,,74,127
5060,note_on,0,0,0,,12,,,71,127
5173,note_off,113,0,0,,12,,,71,127
5175,note_on,2,0,0,,12,,,71,127
5288,note_off,113,0,0,,12,,,71,127
5288,note_off,0,0,0,,2,,,74,127
5290,note_on,2,0,0,,4,,,76,127
5290,note_on,0,0,0,,10,,,69,127
5403,note_off,113,0,0,,10,,,69,127
5405,note_on,2,0,0,,7,,,67,127
5518,note_off,113,0,0,,7,,,67,127
5518,note_off,0,0,0,,4,,,76,127
5520,note_on,2,0,0,,6,,,78,127
5520,note_on,0,0,0,,6,,,66,127
5633,note_off,113,0,0,,6,,,66,127
5635,note_on,2,0,0,,6,,,66,127
5748,note_off,113,0,0,,6,,,66,127
5748,note_off,0,0,0,,6,,,78,127
5750,note_on,2,0,0,,12,,,71,127
5750,note_on,0,0,0,,4,,,64,127
5863,note_off,113,0,0,,4,,,64,127
5865,note_on,2,0,0,,2,,,62,127
5978,note_off,113,0,0,,2,,,62,127
5978,note_off,0,0,0,,12,,,71,127
5980,note_on,2,0,0,,11,,,70,127
5980,note_on,0,0,0,,1,,,61,127
6093,note_off,113,0,0,,1,,,61,127
6095,note_on,2,0,0,,1,,,61,127
6208,note_off,113,0,0,,1,,,61,127
6208,note_off,0,0,0,,11,,,70,127
6210,note_on,2,0,0,,1,,,73,127
6210,note_on,0,0,0,,12,,,59,127
6323,note_off,113,0,0,,12,,,59,127
6325,note_on,2,0,0,,11,,,58,127
6438,note_off,113,0,0,,11,,,58,127
6438,note_off,0,0,0,,1,,,73,127
6440,note_on,2,0,0,,2,,,74,127
6440,note_on,0,0,0,,12,,,59,127
6553,note_off,113,0,0,,12,,,59,127
6555,note_on,2,0,0,,12,,,59,127
6668,note_off,113,0,0,,12,,,59,127
6668,note_off,0,0,0,,2,,,74,127
6670,note_on,2,0,0,,4,,,76,127
6670,note_on,0,0,0,,10,,,57,127
6783,note_off,113,0,0,,10,,,57,127
6785,note_on,2,0,0,,7,,,55,127
6898,note_off,113,0,0,,7,,,55,127
6898,note_off,0,0,0,,4,,,76,127
6900,note_on,2,0,0,,6,,,78,127
6900,note_on,0,0,0,,6,,,54,127
7013,note_off,113,0,0,,6,,,78,127
7015,note_on,2,0,0,,7,,,79,127
7128,note_off,113,0,0,,7,,,79,127
7130,note_on,2,0,0,,4,,,76,127
7243,note_off,113,0,0,,4,,,76,127
7245,note_on,2,0,0,,2,,,74,127
7358,note_off,113,0,0,,2,,,74,127
7360,note_on,2,0,0,,1,,,73,127
7360,note_on,0,0,0,,6,,,42,127
7473,note_off,113,0,0,,1,,,73,127
7475,note_on,2,0,0,,1,,,73,127
7588,note_off,113,0,0,,1,,,73,127
7590,note_on,2,0,0,,12,,,71,127
7703,note_off,113,0,0,,12,,,71,127
7705,note_on,2,0,0,,11,,,70,127
7818,note_off,113,0,0,,11,,,70,127
7819,note_off,1,0,0,,6,,,54,127
7820,note_on,1,0,0,,12,,,71,127
7820,note_on,0,0,0,,6,,,54,127
7933,note_off,113,0,0,,12,,,71,127
7935,note_on,2,0,0,,12,,,71,127
8048,note_off,113,0,0,,12,,,71,127
8050,note_on,2,0,0,,10,,,69,127
8163,note_off,113,0,0,,10,,,69,127
8165,note_on,2,0,0,,7,,,67,127
8278,note_off,113,0,0,,7,,,67,127
8279,note_off,1,0,0,,6,,,42,127
8280,note_on,1,0,0,,6,,,66,127
8280,note_on,0,0,0,,6,,,42,127
8393,note_off,113,0,0,,6,,,66,127
8395,note_on,2,0,0,,6,,,66,127
8508,note_off,113,0,0,,6,,,66,127
8510,note_on,2,0,0,,4,,,64,127
8623,note_off,113,0,0,,4,,,64,127
8625,note_on,2,0,0,,2,,,62,127
8738,note_off,113,0,0,,2,,,62,127
8739,note_off,1,0,0,,6,,,54,127
8740,note_on,1,0,0,,1,,,61,127
8740,note_on,0,0,0,,6,,,54,127
8853,note_off,113,0,0,,1,,,61,127
8855,note_on,2,0,0,,1,,,61,127
8968,note_off,113,0,0,,1,,,61,127
8970,note_on,2,0,0,,12,,,59,127
9083,note_off,113,0,0,,12,,,59,127
9085,note_on,2,0,0,,11,,,58,127
9198,note_off,113,0,0,,11,,,58,127
9198,note_off,0,0,0,,6,,,54,127
9199,note_off,1,0,0,,6,,,42,127
9200,note_on,1,0,0,,12,,,59,127
9200,note_on,0,0,0,,6,,,42,127
9313,note_off,113,0,0,,12,,,59,127
9315,note_on,2,0,0,,12,,,59,127
9428,note_off,113,0,0,,12,,,59,127
9430,note_on,2,0,0,,10,,,57,127
9543,note_off,113,0,0,,10,,,57,127
9545,note_on,2,0,0,,7,,,55,127
9658,note_off,113,0,0,,7,,,55,127
9660,note_on,2,0,0,,6,,,54,127
9775,note_on,115,0,0,,12,,,59,127
9888,note_off,113,0,0,,12,,,59,127
9888,note_off,0,0,0,,6,,,54,127
9889,note_off,1,0,0,,6,,,42,127
9890,note_on,1,0,0,,2,,,50,127
10003,note_off,113,0,0,,2,,,50,127
10005,note_on,2,0,0,,4,,,52,127
10118,note_off,113,0,0,,4,,,52,127
10120,note_on,2,0,0,,6,,,54,127
10120,note_on,0,0,0,,11,,,58,127
10350,note_on,230,0,0,,1,,,73,127
10578,note_off,228,0,0,,1,,,73,127
10580,note_on,2,0,0,,11,,,70,127
10808,note_off,228,0,0,,11,,,70,127
10808,note_off,0,0,0,,11,,,58,127
10808,note_off,0,0,0,,6,,,54,127
10810,note_on,2,0,0,,6,,,78,127
10810,note_on,0,0,0,,6,,,66,127
11038,note_off,228,0,0,,6,,,66,127
11038,note_off,0,0,0,,6,,,78,127
11040,note_on,2,0,0,,6,,,78,127
11040,note_on,0,0,0,,12,,,71,127
11153,note_off,113,0,0,,6,,,78,127
11155,note_on,2,0,0,,6,,,78,127
11268,note_off,113,0,0,,6,,,78,127
11270,note_on,2,0,0,,4,,,76,127
11383,note_off,113,0,0,,4,,,76,127
11385,note_on,2,0,0,,3,,,75,127
11498,note_off,113,0,0,,3,,,75,127
11498,note_off,0,0,0,,12,,,71,127
11500,note_on,2,0,0,,6,,,78,127
11500,note_on,0,0,0,,10,,,69,127
11613,note_off,113,0,0,,6,,,78,127
11615,note_on,2,0,0,,6,,,78,127
11728,note_off,113,0,0,,6,,,78,127
11730,note_on,2,0,0,,4,,,76,127
11843,note_off,113,0,0,,4,,,76,127
11845,note_on,2,0,0,,3,,,75,127
11958,note_off,113,0,0,,3,,,75,127
11958,note_off,0,0,0,,10,,,69,127
11960,note_on,2,0,0,,12,,,83,127
11960,note_on,0,0,0,,7,,,67,127
12073,note_off,113,0,0,,7,,,67,127
12075,note_on,2,0,0,,7,,,67,127
12188,note_off,113,0,0,,7,,,67,127
12190,note_on,2,0,0,,6,,,66,127
12303,note_off,113,0,0,,6,,,66,127
12305,note_on,2,0,0,,4,,,64,127
12418,note_off,113,0,0,,4,,,64,127
12418,note_off,0,0,0,,12,,,83,127
12420,note_on,2,0,0,,12,,,83,127
12420,note_on,0,0,0,,7,,,67,127
12533,note_off,113,0,0,,7,,,67,127
12535,note_on,2,0,0,,7,,,67,127
12648,note_off,113,0,0,,7,,,67,127
12650,note_on,2,0,0,,6,,,66,127
12763,note_off,113,0,0,,6,,,66,127
12765,note_on,2,0,0,,4,,,64,127
12878,note_off,113,0,0,,4,,,64,127
12878,note_off,0,0,0,,12,,,83,127
12880,note_on,2,0,0,,4,,,76,127
12880,note_on,0,0,0,,10,,,69,127
12993,note_off,113,0,0,,4,,,76,127
12995,note_on,2,0,0,,4,,,76,127
13108,note_off,113,0,0,,4,,,76,127
13110,note_on,2,0,0,,2,,,74,127
13223,note_off,113,0,0,,2,,,74,127
13225,note_on,2,0,0,,1,,,73,127
13338,note_off,113,0,0,,1,,,73,127
13338,note_off,0,0,0,,10,,,69,127
13340,note_on,2,0,0,,4,,,76,127
13340,note_on,0,0,0,,7,,,67,127
13453,note_off,113,0,0,,4,,,76,127
13455,note_on,2,0,0,,4,,,76,127
13568,note_off,113,0,0,,4,,,76,127
13570,note_on,2,0,0,,2,,,74,127
13683,note_off,113,0,0,,2,,,74,127
13685,note_on,2,0,0,,1,,,73,127
13798,note_off,113,0,0,,1,,,73,127
13798,note_off,0,0,0,,7,,,67,127
13800,note_on,2,0,0,,10,,,81,127
13800,note_on,0,0,0,,6,,,66,127
13913,note_off,113,0,0,,6,,,66,127
13915,note_on,2,0,0,,6,,,66,127
14028,note_off,113,0,0,,6,,,66,127
14030,note_on,2,0,0,,4,,,64,127
14143,note_off,113,0,0,,4,,,64,127
14145,note_on,2,0,0,,2,,,62,127
14258,note_off,113,0,0,,2,,,62,127
14258,note_off,0,0,0,,10,,,81,127
14260,note_on,2,0,0,,10,,,81,127
14260,note_on,0,0,0,,6,,,66,127
14373,note_off,113,0,0,,6,,,66,127
14375,note_on,2,0,0,,6,,,66,127
14488,note_off,113,0,0,,6,,,66,127
14490,note_on,2,0,0,,4,,,64,127
14603,note_off,113,0,0,,4,,,64,127
14605,note_on,2,0,0,,2,,,62,127
14718,note_off,113,0,0,,2,,,62,127
14718,note_off,0,0,0,,10,,,81,127
14720,note_on,2,0,0,,12,,,71,127
14720,note_on,0,0,0,,7,,,67,127
14833,note_off,113,0,0,,12,,,71,127
14835,note_on,2,0,0,,12,,,71,127
14948,note_off,113,0,0,,12,,,71,127
14950,note_on,2,0,0,,1,,,73,127
15063,note_off,113,0,0,,1,,,73,127
15065,note_on,2,0,0,,2,,,74,127
15178,note_off,113,0,0,,2,,,74,127
15178,note_off,0,0,0,,7,,,67,127
15180,note_on,2,0,0,,1,,,73,127
15180,note_on,0,0,0,,4,,,64,127
15293,note_off,113,0,0,,1,,,73,127
15295,note_on,2,0,0,,1,,,73,127
15408,note_off,113,0,0,,1,,,73,127
15410,note_on,2,0,0,,2,,,74,127
15523,note_off,113,0,0,,2,,,74,127
15525,note_on,2,0,0,,4,,,76,127
15638,note_off,113,0,0,,4,,,76,127
15638,note_off,0,0,0,,4,,,64,127
15640,note_on,2,0,0,,2,,,74,127
15640,note_on,0,0,0,,6,,,66,127
15753,note_off,113,0,0,,2,,,74,127
15755,note_on,2,0,0,,2,,,74,127
15868,note_off,113,0,0,,2,,,74,127
15870,note_on,2,0,0,,4,,,76,127
15983,note_off,113,0,0,,4,,,76,127
15985,note_on,2,0,0,,6,,,78,127
16098,note_off,113,0,0,,6,,,78,127
16098,note_off,0,0,0,,6,,,66,127
16100,note_on,2,0,0,,4,,,76,127
16100,note_on,0,0,0,,1,,,61,127
16213,note_off,113,0,0,,4,,,76,127
16215,note_on,2,0,0,,4,,,76,127
16328,note_off,113,0,0,,4,,,76,127
16330,note_on,2,0,0,,6,,,78,127
16443,note_off,113,0,0,,6,,,78,127
16445,note_on,2,0,0,,7,,,79,127
16558,note_off,113,0,0,,7,,,79,127
16558,note_off,0,0,0,,1,,,61,127
16560,note_on,2,0,0,,6,,,78,127
16560,note_on,0,0,0,,2,,,62,127
16673,note_off,113,0,0,,2,,,62,127
16675,note_on,2,0,0,,2,,,62,127
16788,note_off,113,0,0,,2,,,62,127
16790,note_on,2,0,0,,4,,,64,127
16903,note_off,113,0,0,,4,,,64,127
16905,note_on,2,0,0,,6,,,66,127
17018,note_off,113,0,0,,6,,,66,127
17018,note_off,0,0,0,,6,,,78,127
17020,note_on,2,0,0,,7,,,79,127
17020,note_on,0,0,0,,4,,,64,127
17133,note_off,113,0,0,,4,,,64,127
17135,note_on,2,0,0,,4,,,64,127
17248,note_off,113,0,0,,4,,,64,127
17250,note_on,2,0,0,,6,,,66,127
17363,note_off,113,0,0,,6,,,66,127
17365,note_on,2,0,0,,7,,,67,127
17478,note_off,113,0,0,,7,,,67,127
17478,note_off,0,0,0,,7,,,79,127
17480,note_on,2,0,0,,10,,,81,127
17480,note_on,0,0,0,,6,,,66,127
17593,note_off,113,0,0,,6,,,66,127
17595,note_on,2,0,0,,6,,,66,127
17708,note_off,113,0,0,,6,,,66,127
17710,note_on,2,0,0,,7,,,67,127
17823,note_off,113,0,0,,7,,,67,127
17825,note_on,2,0,0,,10,,,69,127
17938,note_off,113,0,0,,10,,,69,127
17938,note_off,0,0,0,,10,,,81,127
17940,note_on,2,0,0,,12,,,83,127
17940,note_on,0,0,0,,7,,,67,127
18053,note_off,113,0,0,,7,,,67,127
18055,note_on,2,0,0,,7,,,67,127
18168,note_off,113,0,0,,7,,,67,127
18168,note_off,0,0,0,,12,,,83,127
18170,note_on,2,0,0,,2,,,74,127
18170,note_on,0,0,0,,10,,,69,127
18283,note_off,113,0,0,,10,,,69,127
18285,note_on,2,0,0,,12,,,71,127
18398,note_off,113,0,0,,12,,,71,127
18398,note_off,0,0,0,,2,,,74,127
18400,note_on,2,0,0,,1,,,73,127
18400,note_on,0,0,0,,10,,,69,127
18513,note_off,113,0,0,,1,,,73,127
18515,note_on,2,0,0,,10,,,81,127
18628,note_off,113,0,0,,10,,,81,127
18630,note_on,2,0,0,,4,,,76,127
18743,note_off,113,0,0,,4,,,76,127
18745,note_on,2,0,0,,6,,,78,127
18858,note_off,113,0,0,,6,,,78,127
18860,note_on,2,0,0,,1,,,73,127
18973,note_off,113,0,0,,1,,,73,127
18975,note_on,2,0,0,,2,,,74,127
18985,note_off,10,0,0,,10,,,69,127
19088,note_off,103,0,0,,2,,,74,127
19090,note_on,2,0,0,,10,,,69,127
19203,note_off,113,0,0,,10,,,69,127
19205,note_on,2,0,0,,12,,,71,127
19318,note_off,113,0,0,,12,,,71,127
19320,note_on,2,0,0,,1,,,73,127
19435,note_on,115,0,0,,10,,,69,127
19548,note_off,113,0,0,,10,,,69,127
19550,note_on,2,0,0,,4,,,64,127
19663,note_off,113,0,0,,4,,,64,127
19665,note_on,2,0,0,,6,,,66,127
19778,note_off,113,0,0,,6,,,66,127
19780,note_on,2,0,0,,1,,,61,127
19893,note_off,113,0,0,,1,,,61,127
19895,note_on,2,0,0,,2,,,62,127
20008,note_off,113,0,0,,2,,,62,127
20008,note_off,0,0,0,,1,,,73,127
20010,note_on,2,0,0,,2,,,74,127
20010,note_on,0,0,0,,10,,,57,127
20123,note_off,113,0,0,,10,,,57,127
20125,note_on,2,0,0,,12,,,59,127
20238,note_off,113,0,0,,12,,,59,127
20238,note_off,0,0,0,,2,,,74,127
20240,note_on,2,0,0,,4,,,76,127
20240,note_on,0,0,0,,1,,,61,127
20353,note_off,113,0,0,,4,,,76,127
20355,note_on,2,0,0,,2,,,74,127
20468,note_off,113,0,0,,2,,,74,127
20470,note_on,2,0,0,,1,,,73,127
20583,note_off,113,0,0,,1,,,73,127
20585,note_on,2,0,0,,12,,,71,127
20698,note_off,113,0,0,,12,,,71,127
20700,note_on,2,0,0,,10,,,69,127
20813,note_off,113,0,0,,10,,,69,127
20815,note_on,2,0,0,,7,,,67,127
20928,note_off,113,0,0,,7,,,67,127
20928,note_off,0,0,0,,1,,,61,127
20930,note_on,2,0,0,,6,,,66,127
20930,note_on,0,0,0,,10,,,57,127
21043,note_off,113,0,0,,6,,,66,127
21045,note_on,2,0,0,,4,,,64,127
21158,note_off,113,0,0,,4,,,64,127
21158,note_off,0,0,0,,10,,,57,127
21160,note_on,2,0,0,,6,,,66,127
21160,note_on,0,0,0,,2,,,50,127
21160,note_on,0,0,0,,2,,,62,127
21388,note_off,228,0,0,,6,,,66,127
21390,note_on,2,0,0,,2,,,74,127
21618,note_off,228,0,0,,2,,,74,127
21620,note_on,2,0,0,,6,,,78,127
21694,note_off,74,0,0,,6,,,78,127
21696,note_on,2,0,0,,4,,,76,127
21734,note_off,38,0,0,,2,,,62,127
21734,note_off,0,0,0,,2,,,50,127
21770,note_off,36,0,0,,4,,,76,127
21772,note_on,2,0,0,,2,,,74,127
21846,note_off,74,0,0,,2,,,74,127
21848,note_on,2,0,0,,1,,,73,127
21848,note_on,0,0,0,,2,,,62,127
21848,note_on,0,0,0,,6,,,54,127
21922,note_off,74,0,0,,1,,,73,127
21924,note_on,2,0,0,,12,,,71,127
21998,note_off,74,0,0,,12,,,71,127
22000,note_on,2,0,0,,10,,,69,127
22074,note_off,74,0,0,,10,,,69,127
22074,note_off,0,0,0,,6,,,54,127
22074,note_off,0,0,0,,2,,,62,127
22076,note_on,2,0,0,,12,,,71,127
22076,note_on,0,0,0,,2,,,62,127
22076,note_on,0,0,0,,7,,,55,127
22304,note_off,228,0,0,,12,,,71,127
22306,note_on,2,0,0,,10,,,81,127
22534,note_off,228,0,0,,10,,,81,127
22536,note_on,2,0,0,,7,,,79,127
22610,note_off,74,0,0,,7,,,79,127
22612,note_on,2,0,0,,6,,,78,127
22650,note_off,38,0,0,,7,,,55,127
22650,note_off,0,0,0,,2,,,62,127
22686,note_off,36,0,0,,6,,,78,127
22688,note_on,2,0,0,,4,,,76,127
22762,note_off,74,0,0,,4,,,76,127
22764,note_on,2,0,0,,2,,,74,127
22764,note_on,0,0,0,,4,,,64,127
22764,note_on,0,0,0,,7,,,55,127
22838,note_off,74,0,0,,2,,,74,127
22840,note_on,2,0,0,,1,,,73,127
22914,note_off,74,0,0,,1,,,73,127
22916,note_on,2,0,0,,12,,,71,127
22990,note_off,74,0,0,,12,,,71,127
22990,note_off,0,0,0,,7,,,55,127
22990,note_off,0,0,0,,4,,,64,127
22992,note_on,2,0,0,,10,,,69,127
22992,note_on,0,0,0,,4,,,64,127
22992,note_on,0,0,0,,6,,,54,127
23220,note_off,228,0,0,,10,,,69,127
23222,note_on,2,0,0,,7,,,79,127
23450,note_off,228,0,0,,7,,,79,127
23452,note_on,2,0,0,,6,,,78,127
23526,note_off,74,0,0,,6,,,78,127
23528,note_on,2,0,0,,4,,,76,127
23566,note_off,38,0,0,,6,,,54,127
23566,note_off,0,0,0,,4,,,64,127
23602,note_off,36,0,0,,4,,,76,127
23604,note_on,2,0,0,,2,,,74,127
23678,note_off,74,0,0,,2,,,74,127
23680,note_on,2,0,0,,1,,,73,127
23680,note_on,0,0,0,,6,,,54,127
23680,note_on,0,0,0,,2,,,62,127
23754,note_off,74,0,0,,1,,,73,127
23756,note_on,2,0,0,,12,,,71,127
23830,note_off,74,0,0,,12,,,71,127
23832,note_on,2,0,0,,10,,,69,127
23906,note_off,74,0,0,,10,,,69,127
23906,note_off,0,0,0,,2,,,62,127
23906,note_off,0,0,0,,6,,,54,127
23908,note_on,2,0,0,,7,,,67,127
23908,note_on,0,0,0,,2,,,62,127
23908,note_on,0,0,0,,4,,,52,127
24136,note_off,228,0,0,,7,,,67,127
24138,note_on,2,0,0,,6,,,78,127
24366,note_off,228,0,0,,6,,,78,127
24368,note_on,2,0,0,,4,,,76,127
24442,note_off,74,0,0,,4,,,76,127
24444,note_on,2,0,0,,2,,,74,127
24482,note_off,38,0,0,,4,,,52,127
24482,note_off,0,0,0,,2,,,62,127
24518,note_off,36,0,0,,2,,,74,127
24520,note_on,2,0,0,,1,,,73,127
24594,note_off,74,0,0,,1,,,73,127
24596,note_on,2,0,0,,12,,,71,127
24596,note_on,0,0,0,,4,,,52,127
24596,note_on,0,0,0,,1,,,61,127
24670,note_off,74,0,0,,12,,,71,127
24672,note_on,2,0,0,,10,,,69,127
24746,note_off,74,0,0,,10,,,69,127
24748,note_on,2,0,0,,7,,,67,127
24822,note_off,74,0,0,,7,,,67,127
24822,note_off,0,0,0,,1,,,61,127
24822,note_off,0,0,0,,4,,,52,127
24824,note_on,2,0,0,,6,,,66,127
24824,note_on,0,0,0,,2,,,62,127
24824,note_on,0,0,0,,2,,,50,127
25052,note_off,228,0,0,,2,,,62,127
25054,note_on,2,0,0,,2,,,62,127
25280,note_off,226,0,0,,2,,,50,127
25280,note_off,0,0,0,,6,,,66,127
25282,note_off,2,0,0,,2,,,62,127
25284,note_on,2,0,0,,6,,,66,127
25358,note_off,74,0,0,,6,,,66,127
25360,note_on,2,0,0,,4,,,64,127
25434,note_off,74,0,0,,4,,,64,127
25436,note_on,2,0,0,,2,,,62,127
25510,note_off,74,0,0,,2,,,62,127
25512,note_on,2,0,0,,6,,,78,127
25512,note_on,0,0,0,,1,,,61,127
25586,note_off,74,0,0,,1,,,61,127
25588,note_on,2,0,0,,12,,,59,127
25662,note_off,74,0,0,,12,,,59,127
25664,note_on,2,0,0,,10,,,57,127
25738,note_off,74,0,0,,10,,,57,127
25738,note_off,0,0,0,,6,,,78,127
25740,note_on,2,0,0,,12,,,71,127
25740,note_on,0,0,0,,7,,,55,127
25968,note_off,228,0,0,,7,,,55,127
25970,note_on,2,0,0,,6,,,66,127
26198,note_off,228,0,0,,6,,,66,127
26200,note_on,2,0,0,,4,,,64,127
26274,note_off,74,0,0,,4,,,64,127
26276,note_on,2,0,0,,2,,,62,127
26314,note_off,38,0,0,,12,,,71,127
26350,note_off,36,0,0,,2,,,62,127
26352,note_on,2,0,0,,1,,,61,127
26426,note_off,74,0,0,,1,,,61,127
26428,note_on,2,0,0,,7,,,79,127
26428,note_on,0,0,0,,12,,,59,127
26502,note_off,74,0,0,,12,,,59,127
26504,note_on,2,0,0,,10,,,57,127
26578,note_off,74,0,0,,10,,,57,127
26580,note_on,2,0,0,,7,,,55,127
26654,note_off,74,0,0,,7,,,55,127
26654,note_off,0,0,0,,7,,,79,127
26656,note_on,2,0,0,,10,,,69,127
26656,note_on,0,0,0,,6,,,54,127
26884,note_off,228,0,0,,6,,,54,127
26886,note_on,2,0,0,,4,,,64,127
27114,note_off,228,0,0,,4,,,64,127
27116,note_on,2,0,0,,2,,,62,127
27190,note_off,74,0,0,,2,,,62,127
27192,note_on,2,0,0,,1,,,61,127
27230,note_off,38,0,0,,10,,,69,127
27266,note_off,36,0,0,,1,,,61,127
27268,note_on,2,0,0,,12,,,59,127
27342,note_off,74,0,0,,12,,,59,127
27344,note_on,2,0,0,,6,,,78,127
27344,note_on,0,0,0,,10,,,57,127
27418,note_off,74,0,0,,10,,,57,127
27420,note_on,2,0,0,,7,,,55,127
27494,note_off,74,0,0,,7,,,55,127
27496,note_on,2,0,0,,6,,,54,127
27570,note_off,74,0,0,,6,,,54,127
27570,note_off,0,0,0,,6,,,78,127
27572,note_on,2,0,0,,7,,,67,127
27572,note_on,0,0,0,,4,,,52,127
27800,note_off,228,0,0,,4,,,52,127
27802,note_on,2,0,0,,2,,,62,127
28030,note_off,228,0,0,,2,,,62,127
28032,note_on,2,0,0,,1,,,61,127
28106,note_off,74,0,0,,1,,,61,127
28108,note_on,2,0,0,,12,,,59,127
28146,note_off,38,0,0,,7,,,67,127
28182,note_off,36,0,0,,12,,,59,127
28184,note_on,2,0,0,,10,,,57,127
28258,note_off,74,0,0,,10,,,57,127
28260,note_on,2,0,0,,4,,,76,127
28260,note_on,0,0,0,,7,,,55,127
28334,note_off,74,0,0,,7,,,55,127
28336,note_on,2,0,0,,6,,,54,127
28410,note_off,74,0,0,,6,,,54,127
28412,note_on,2,0,0,,4,,,52,127
28486,note_off,74,0,0,,4,,,52,127
28486,note_off,0,0,0,,4,,,76,127
28488,note_on,2,0,0,,6,,,66,127
28488,note_on,0,0,0,,2,,,50,127
28716,note_off,228,0,0,,6,,,66,127
28718,note_on,2,0,0,,2,,,74,127
28946,note_off,228,0,0,,2,,,74,127
28946,note_off,0,0,0,,2,,,50,127
28948,note_on,2,0,0,,6,,,78,127
28948,note_on,0,0,0,,6,,,54,127
29022,note_off,74,0,0,,6,,,78,127
29024,note_on,2,0,0,,4,,,76,127
29098,note_off,74,0,0,,4,,,76,127
29100,note_on,2,0,0,,2,,,74,127
29174,note_off,74,0,0,,2,,,74,127
29176,note_on,2,0,0,,2,,,74,127
29404,note_off,228,0,0,,2,,,74,127
29404,note_off,0,0,0,,6,,,54,127
29406,note_on,2,0,0,,12,,,71,127
29406,note_on,0,0,0,,7,,,55,127
29480,note_off,74,0,0,,12,,,71,127
29482,note_on,2,0,0,,1,,,73,127
29556,note_off,74,0,0,,1,,,73,127
29558,note_on,2,0,0,,2,,,74,127
29632,note_off,74,0,0,,2,,,74,127
29634,note_on,2,0,0,,6,,,78,127
29862,note_off,228,0,0,,6,,,78,127
29862,note_off,0,0,0,,7,,,55,127
29864,note_on,2,0,0,,10,,,81,127
29864,note_on,0,0,0,,10,,,57,127
29938,note_off,74,0,0,,10,,,81,127
29940,note_on,2,0,0,,7,,,79,127
30014,note_off,74,0,0,,7,,,79,127
30016,note_on,2,0,0,,6,,,78,127
30090,note_off,74,0,0,,6,,,78,127
30092,note_on,2,0,0,,6,,,78,127
30320,note_off,228,0,0,,6,,,78,127
30320,note_off,0,0,0,,10,,,57,127
30322,note_on,2,0,0,,2,,,74,127
30322,note_on,0,0,0,,12,,,59,127
30396,note_off,74,0,0,,2,,,74,127
30398,note_on,2,0,0,,4,,,76,127
30472,note_off,74,0,0,,4,,,76,127
30474,note_on,2,0,0,,6,,,78,127
30548,note_off,74,0,0,,6,,,78,127
30550,note_on,2,0,0,,2,,,86,127
30778,note_off,228,0,0,,2,,,86,127
30778,note_off,0,0,0,,12,,,59,127
30780,note_on,2,0,0,,10,,,81,127
30780,note_on,0,0,0,,1,,,61,127
31008,note_off,228,0,0,,1,,,61,127
31008,note_off,0,0,0,,10,,,81,127
31010,note_on,2,0,0,,7,,,79,127
31010,note_on,0,0,0,,10,,,57,127
31238,note_off,228,0,0,,10,,,57,127
31238,note_off,0,0,0,,7,,,79,127
31240,note_on,2,0,0,,6,,,78,127
31240,note_on,0,0,0,,2,,,62,127
31314,note_off,74,0,0,,6,,,78,127
31316,note_on,2,0,0,,4,,,76,127
31390,note_off,74,0,0,,4,,,76,127
31392,note_on,2,0,0,,6,,,78,127
31466,note_off,74,0,0,,6,,,78,127
31466,note_off,0,0,0,,2,,,62,127
31468,note_on,2,0,0,,10,,,81,127
31468,note_on,0,0,0,,7,,,79,127
31468,note_on,0,0,0,,7,,,55,127
31542,note_off,74,0,0,,7,,,79,127
31542,note_off,0,0,0,,10,,,81,127
31544,note_on,2,0,0,,6,,,78,127
31618,note_off,74,0,0,,6,,,78,127
31620,note_on,2,0,0,,4,,,76,127
31694,note_off,74,0,0,,4,,,76,127
31694,note_off,0,0,0,,7,,,55,127
31696,note_on,2,0,0,,6,,,78,127
31696,note_on,0,0,0,,10,,,57,127
31924,note_off,228,0,0,,6,,,78,127
31926,note_on,2,0,0,,4,,,76,127
31926,note_on,0,0,0,,10,,,45,127
32152,note_off,226,0,0,,10,,,57,127
32154,note_off,2,0,0,,10,,,45,127
32154,note_off,0,0,0,,4,,,76,127
32156,note_on,2,0,0,,2,,,74,127
32156,note_on,0,0,0,,2,,,50,127
32384,note_off,228,0,0,,2,,,74,127
32386,note_on,2,0,0,,2,,,74,127
32614,note_off,228,0,0,,2,,,74,127
32614,note_off,0,0,0,,2,,,50,127
32616,note_on,2,0,0,,6,,,78,127
32616,note_on,0,0,0,,6,,,54,127
32690,note_off,74,0,0,,6,,,78,127
32692,note_on,2,0,0,,4,,,76,127
32766,note_off,74,0,0,,4,,,76,127
32768,note_on,2,0,0,,2,,,74,127
32842,note_off,74,0,0,,2,,,74,127
32844,note_on,2,0,0,,2,,,74,127
33072,note_off,228,0,0,,2,,,74,127
33072,note_off,0,0,0,,6,,,54,127
33074,note_on,2,0,0,,12,,,71,127
33074,note_on,0,0,0,,7,,,55,127
33148,note_off,74,0,0,,12,,,71,127
33150,note_on,2,0,0,,1,,,73,127
33224,note_off,74,0,0,,1,,,73,127
33226,note_on,2,0,0,,2,,,74,127
33300,note_off,74,0,0,,2,,,74,127
33302,note_on,2,0,0,,6,,,78,127
33530,note_off,228,0,0,,6,,,78,127
33530,note_off,0,0,0,,7,,,55,127
33532,note_on,2,0,0,,10,,,81,127
33532,note_on,0,0,0,,10,,,57,127
33606,note_off,74,0,0,,10,,,81,127
33608,note_on,2,0,0,,7,,,79,127
33682,note_off,74,0,0,,7,,,79,127
33684,note_on,2,0,0,,6,,,78,127
33758,note_off,74,0,0,,6,,,78,127
33760,note_on,2,0,0,,6,,,78,127
33988,note_off,228,0,0,,6,,,78,127
33988,note_off,0,0,0,,10,,,57,127
33990,note_on,2,0,0,,2,,,74,127
33990,note_on,0,0,0,,12,,,59,127
34064,note_off,74,0,0,,2,,,74,127
34066,note_on,2,0,0,,4,,,76,127
34140,note_off,74,0,0,,4,,,76,127
34142,note_on,2,0,0,,6,,,78,127
34216,note_off,74,0,0,,6,,,78,127
34218,note_on,2,0,0,,2,,,86,127
34446,note_off,228,0,0,,2,,,86,127
34446,note_off,0,0,0,,12,,,59,127
34448,note_on,2,0,0,,10,,,81,127
34448,note_on,0,0,0,,1,,,61,127
34676,note_off,228,0,0,,1,,,61,127
34676,note_off,0,0,0,,10,,,81,127
34678,note_on,2,0,0,,7,,,79,127
34678,note_on,0,0,0,,10,,,57,127
34906,note_off,228,0,0,,10,,,57,127
34906,note_off,0,0,0,,7,,,79,127
34908,note_on,2,0,0,,6,,,78,127
34908,note_on,0,0,0,,2,,,62,127
34982,note_off,74,0,0,,6,,,78,127
34984,note_on,2,0,0,,4,,,76,127
35058,note_off,74,0,0,,4,,,76,127
35060,note_on,2,0,0,,6,,,78,127
35134,note_off,74,0,0,,6,,,78,127
35134,note_off,0,0,0,,2,,,62,127
35136,note_on,2,0,0,,7,,,79,127
35136,note_on,0,0,0,,10,,,81,127
35136,note_on,0,0,0,,7,,,55,127
35210,note_off,74,0,0,,10,,,81,127
35210,note_off,0,0,0,,7,,,79,127
35212,note_on,2,0,0,,6,,,78,127
35286,note_off,74,0,0,,6,,,78,127
35288,note_on,2,0,0,,4,,,76,127
35362,note_off,74,0,0,,4,,,76,127
35362,note_off,0,0,0,,7,,,55,127
35364,note_on,2,0,0,,6,,,78,127
35364,note_on,0,0,0,,10,,,57,127
35592,note_off,228,0,0,,6,,,78,127
35594,note_on,2,0,0,,4,,,76,127
35594,note_on,0,0,0,,10,,,45,127
35709,note_off,115,0,0,,10,,,57,127
35822,note_off,113,0,0,,10,,,45,127
35822,note_off,0,0,0,,4,,,76,127
35824,note_on,2,0,0,,2,,,74,127
35824,note_on,0,0,0,,2,,,50,127
35824,note_on,0,0,0,,2,,,38,127
36052,note_off,228,0,0,,2,,,74,127
36054,note_on,2,0,0,,6,,,78,127
36282,note_off,228,0,0,,6,,,78,127
36282,note_off,0,0,0,,2,,,38,127
36282,note_off,0,0,0,,2,,,50,127
36284,note_on,2,0,0,,10,,,81,127
36284,note_on,0,0,0,,0,,,72,127
36284,note_on,0,0,0,,2,,,62,127
36358,note_off,74,0,0,,10,,,81,127
36360,note_on,2,0,0,,7,,,79,127
36434,note_off,74,0,0,,7,,,79,127
36436,note_on,2,0,0,,6,,,78,127
36510,note_off,74,0,0,,6,,,78,127
36510,note_off,0,0,0,,2,,,62,127
36510,note_off,0,0,0,,0,,,72,127
36512,note_on,2,0,0,,6,,,78,127
36512,note_on,0,0,0,,0,,,72,127
36512,note_on,0,0,0,,2,,,62,127
36740,note_off,228,0,0,,2,,,62,127
36740,note_off,0,0,0,,0,,,72,127
36740,note_off,0,0,0,,6,,,78,127
36742,note_on,2,0,0,,10,,,81,127
36742,note_on,0,0,0,,0,,,72,127
36742,note_on,0,0,0,,2,,,62,127
36816,note_off,74,0,0,,10,,,81,127
36818,note_on,2,0,0,,7,,,79,127
36892,note_off,74,0,0,,7,,,79,127
36894,note_on,2,0,0,,6,,,78,127
36968,note_off,74,0,0,,6,,,78,127
36968,note_off,0,0,0,,2,,,62,127
36968,note_off,0,0,0,,0,,,72,127
36970,note_on,2,0,0,,6,,,78,127
36970,note_on,0,0,0,,0,,,72,127
36970,note_on,0,0,0,,2,,,62,127
37198,note_off,228,0,0,,2,,,62,127
37198,note_off,0,0,0,,0,,,72,127
37198,note_off,0,0,0,,6,,,78,127
37200,note_on,2,0,0,,10,,,81,127
37200,note_on,0,0,0,,0,,,72,127
37200,note_on,0,0,0,,2,,,62,127
37274,note_off,74,0,0,,10,,,81,127
37276,note_on,2,0,0,,7,,,79,127
37350,note_off,74,0,0,,7,,,79,127
37352,note_on,2,0,0,,6,,,78,127
37426,note_off,74,0,0,,6,,,78,127
37426,note_off,0,0,0,,2,,,62,127
37426,note_off,0,0,0,,0,,,72,127
37428,note_on,2,0,0,,6,,,78,127
37428,note_on,0,0,0,,0,,,72,127
37428,note_on,0,0,0,,2,,,62,127
37656,note_off,228,0,0,,2,,,62,127
37656,note_off,0,0,0,,0,,,72,127
37656,note_off,0,0,0,,6,,,78,127
37658,note_on,2,0,0,,2,,,74,127
37658,note_on,0,0,0,,12,,,83,127
37658,note_on,0,0,0,,12,,,71,127
37658,note_on,0,0,0,,4,,,64,127
37732,note_off,74,0,0,,12,,,83,127
37734,note_on,2,0,0,,10,,,81,127
37808,note_off,74,0,0,,10,,,81,127
37810,note_on,2,0,0,,8,,,80,127
37884,note_off,74,0,0,,8,,,80,127
37884,note_off,0,0,0,,4,,,64,127
37884,note_off,0,0,0,,12,,,71,127
37886,note_on,2,0,0,,8,,,80,127
37886,note_on,0,0,0,,4,,,64,127
37886,note_on,0,0,0,,12,,,71,127
38112,note_off,226,0,0,,2,,,74,127
38114,note_off,2,0,0,,12,,,71,127
38114,note_off,0,0,0,,4,,,64,127
38114,note_off,0,0,0,,8,,,80,127
38116,note_on,2,0,0,,2,,,74,127
38116,note_on,0,0,0,,12,,,83,127
38116,note_on,0,0,0,,4,,,64,127
38116,note_on,0,0,0,,12,,,71,127
38190,note_off,74,0,0,,12,,,83,127
38192,note_on,2,0,0,,10,,,81,127
38266,note_off,74,0,0,,10,,,81,127
38268,note_on,2,0,0,,8,,,80,127
38342,note_off,74,0,0,,8,,,80,127
38342,note_off,0,0,0,,12,,,71,127
38342,note_off,0,0,0,,4,,,64,127
38344,note_on,2,0,0,,8,,,80,127
38344,note_on,0,0,0,,12,,,71,127
38344,note_on,0,0,0,,2,,,62,127
38570,note_off,226,0,0,,2,,,74,127
38572,note_off,2,0,0,,2,,,62,127
38572,note_off,0,0,0,,12,,,71,127
38572,note_off,0,0,0,,8,,,80,127
38574,note_on,2,0,0,,8,,,80,127
38574,note_on,0,0,0,,12,,,83,127
38574,note_on,0,0,0,,2,,,74,127
38574,note_on,0,0,0,,12,,,71,127
38574,note_on,0,0,0,,2,,,62,127
38802,note_off,228,0,0,,2,,,62,127
38802,note_off,0,0,0,,12,,,71,127
38802,note_off,0,0,0,,12,,,83,127
38804,note_on,2,0,0,,1,,,85,127
38804,note_on,0,0,0,,12,,,71,127
38804,note_on,0,0,0,,2,,,62,127
38919,note_off,115,0,0,,8,,,80,127
39032,note_off,113,0,0,,2,,,62,127
39032,note_off,0,0,0,,12,,,71,127
39032,note_off,0,0,0,,1,,,85,127
39034,note_on,2,0,0,,2,,,86,127
39034,note_on,0,0,0,,2,,,62,127
39034,note_on,0,0,0,,12,,,71,127
39262,note_off,228,0,0,,12,,,71,127
39262,note_off,0,0,0,,2,,,62,127
39262,note_off,0,0,0,,2,,,86,127
39264,note_on,2,0,0,,1,,,85,127
39264,note_on,0,0,0,,12,,,71,127
39264,note_on,0,0,0,,2,,,62,127
39492,note_off,228,0,0,,2,,,62,127
39492,note_off,0,0,0,,12,,,71,127
39492,note_off,0,0,0,,1,,,85,127
39493,note_off,1,0,0,,2,,,74,127
39494,note_on,1,0,0,,12,,,83,127
39494,note_on,0,0,0,,2,,,62,127
39494,note_on,0,0,0,,12,,,71,127
39722,note_off,228,0,0,,12,,,71,127
39722,note_off,0,0,0,,2,,,62,127
39722,note_off,0,0,0,,12,,,83,127
39724,note_on,2,0,0,,10,,,81,127
39724,note_on,0,0,0,,12,,,71,127
39724,note_on,0,0,0,,2,,,62,127
39952,note_off,228,0,0,,2,,,62,127
39952,note_off,0,0,0,,12,,,71,127
39952,note_off,0,0,0,,10,,,81,127
39954,note_on,2,0,0,,8,,,80,127
39954,note_on,0,0,0,,12,,,71,127
39954,note_on,0,0,0,,2,,,62,127
40182,note_off,228,0,0,,2,,,62,127
40182,note_off,0,0,0,,12,,,71,127
40182,note_off,0,0,0,,8,,,80,127
40184,note_on,2,0,0,,6,,,78,127
40184,note_on,0,0,0,,12,,,71,127
40184,note_on,0,0,0,,2,,,62,127
40412,note_off,228,0,0,,2,,,62,127
40412,note_off,0,0,0,,12,,,71,127
40412,note_off,0,0,0,,6,,,78,127
40414,note_on,2,0,0,,8,,,80,127
40414,note_on,0,0,0,,12,,,83,127
40414,note_on,0,0,0,,1,,,61,127
40642,note_off,228,0,0,,12,,,83,127
40642,note_off,0,0,0,,8,,,80,127
40644,note_on,2,0,0,,6,,,78,127
40644,note_on,0,0,0,,10,,,81,127
40872,note_off,228,0,0,,10,,,81,127
40872,note_off,0,0,0,,6,,,78,127
40874,note_on,2,0,0,,10,,,81,127
40874,note_on,0,0,0,,6,,,78,127
40874,note_on,0,0,0,,1,,,49,127
41102,note_off,228,0,0,,6,,,78,127
41102,note_off,0,0,0,,10,,,81,127
41103,note_off,1,0,0,,1,,,61,127
41104,note_on,1,0,0,,8,,,80,127
41104,note_on,0,0,0,,5,,,77,127
41332,note_off,228,0,0,,5,,,77,127
41332,note_off,0,0,0,,8,,,80,127
41332,note_off,0,0,0,,1,,,49,127
41334,note_on,2,0,0,,8,,,80,127
41334,note_on,0,0,0,,5,,,77,127
41334,note_on,0,0,0,,6,,,54,127
41334,note_on,0,0,0,,6,,,42,127
41562,note_off,228,0,0,,5,,,77,127
41562,note_off,0,0,0,,8,,,80,127
41564,note_on,2,0,0,,6,,,78,127
41792,note_off,228,0,0,,6,,,42,127
41792,note_off,0,0,0,,6,,,54,127
41794,note_on,2,0,0,,10,,,57,127
42022,note_off,228,0,0,,10,,,57,127
42022,note_off,0,0,0,,6,,,78,127
42024,note_on,2,0,0,,10,,,81,127
42024,note_on,0,0,0,,1,,,73,127
42024,note_on,0,0,0,,6,,,66,127
42252,note_off,228,0,0,,6,,,66,127
42252,note_off,0,0,0,,1,,,73,127
42252,note_off,0,0,0,,10,,,81,127
42254,note_on,2,0,0,,8,,,80,127
42254,note_on,0,0,0,,2,,,74,127
42254,note_on,0,0,0,,12,,,59,127
42328,note_off,74,0,0,,8,,,80,127
42330,note_on,2,0,0,,6,,,78,127
42404,note_off,74,0,0,,6,,,78,127
42406,note_on,2,0,0,,5,,,77,127
42480,note_off,74,0,0,,5,,,77,127
42480,note_off,0,0,0,,12,,,59,127
42482,note_on,2,0,0,,5,,,77,127
42482,note_on,0,0,0,,8,,,68,127
42708,note_off,226,0,0,,2,,,74,127
42710,note_off,2,0,0,,8,,,68,127
42710,note_off,0,0,0,,5,,,77,127
42712,note_on,2,0,0,,1,,,73,127
42712,note_on,0,0,0,,6,,,78,127
42712,note_on,0,0,0,,10,,,57,127
42940,note_off,228,0,0,,10,,,57,127
42940,note_off,0,0,0,,6,,,78,127
42942,note_on,2,0,0,,10,,,81,127
42942,note_on,0,0,0,,6,,,66,127
43168,note_off,226,0,0,,1,,,73,127
43170,note_off,2,0,0,,6,,,66,127
43170,note_off,0,0,0,,10,,,81,127
43172,note_on,2,0,0,,2,,,74,127
43172,note_on,0,0,0,,8,,,80,127
43172,note_on,0,0,0,,12,,,59,127
43246,note_off,74,0,0,,8,,,80,127
43248,note_on,2,0,0,,6,,,78,127
43322,note_off,74,0,0,,6,,,78,127
43324,note_on,2,0,0,,5,,,77,127
43398,note_off,74,0,0,,5,,,77,127
43398,note_off,0,0,0,,12,,,59,127
43400,note_on,2,0,0,,5,,,77,127
43400,note_on,0,0,0,,8,,,68,127
43626,note_off,226,0,0,,2,,,74,127
43628,note_off,2,0,0,,8,,,68,127
43628,note_off,0,0,0,,5,,,77,127
43630,note_on,2,0,0,,6,,,78,127
43630,note_on,0,0,0,,1,,,73,127
43630,note_on,0,0,0,,10,,,57,127
43858,note_off,228,0,0,,10,,,57,127
43858,note_off,0,0,0,,6,,,78,127
43860,note_on,2,0,0,,1,,,85,127
43860,note_on,0,0,0,,6,,,66,127
44086,note_off,226,0,0,,1,,,73,127
44088,note_off,2,0,0,,6,,,66,127
44088,note_off,0,0,0,,1,,,85,127
44090,note_on,2,0,0,,5,,,77,127
44090,note_on,0,0,0,,12,,,83,127
44090,note_on,0,0,0,,8,,,56,127
44164,note_off,74,0,0,,12,,,83,127
44166,note_on,2,0,0,,10,,,81,127
44240,note_off,74,0,0,,10,,,81,127
44242,note_on,2,0,0,,8,,,80,127
44316,note_off,74,0,0,,8,,,80,127
44316,note_off,0,0,0,,8,,,56,127
44318,note_on,2,0,0,,8,,,80,127
44318,note_on,0,0,0,,5,,,65,127
44544,note_off,226,0,0,,5,,,77,127
44546,note_off,2,0,0,,5,,,65,127
44546,note_off,0,0,0,,8,,,80,127
44548,note_on,2,0,0,,10,,,81,127
44548,note_on,0,0,0,,6,,,78,127
44548,note_on,0,0,0,,6,,,54,127
44776,note_off,228,0,0,,6,,,54,127
44776,note_off,0,0,0,,10,,,81,127
44778,note_on,2,0,0,,1,,,85,127
44778,note_on,0,0,0,,6,,,66,127
45004,note_off,226,0,0,,6,,,78,127
45006,note_off,2,0,0,,6,,,66,127
45006,note_off,0,0,0,,1,,,85,127
45008,note_on,2,0,0,,5,,,77,127
45008,note_on,0,0,0,,12,,,83,127
45008,note_on,0,0,0,,8,,,56,127
45082,note_off,74,0,0,,12,,,83,127
45084,note_on,2,0,0,,10,,,81,127
45158,note_off,74,0,0,,10,,,81,127
45160,note_on,2,0,0,,8,,,80,127
45234,note_off,74,0,0,,8,,,80,127
45234,note_off,0,0,0,,8,,,56,127
45236,note_on,2,0,0,,8,,,80,127
45236,note_on,0,0,0,,5,,,65,127
45462,note_off,226,0,0,,5,,,77,127
45464,note_off,2,0,0,,5,,,65,127
45464,note_off,0,0,0,,8,,,80,127
45466,note_on,2,0,0,,6,,,78,127
45466,note_on,0,0,0,,10,,,81,127
45466,note_on,0,0,0,,6,,,54,127
45694,note_off,228,0,0,,6,,,54,127
45694,note_off,0,0,0,,10,,,81,127
45696,note_on,2,0,0,,1,,,85,127
45696,note_on,0,0,0,,6,,,66,127
45922,note_off,226,0,0,,6,,,78,127
45924,note_off,2,0,0,,6,,,66,127
45924,note_off,0,0,0,,1,,,85,127
45926,note_on,2,0,0,,8,,,80,127
45926,note_on,0,0,0,,12,,,59,127
46000,note_off,74,0,0,,8,,,80,127
46002,note_on,2,0,0,,10,,,81,127
46076,note_off,74,0,0,,10,,,81,127
46078,note_on,2,0,0,,12,,,83,127
46152,note_off,74,0,0,,12,,,83,127
46152,note_off,0,0,0,,12,,,59,127
46154,note_on,2,0,0,,12,,,83,127
46154,note_on,0,0,0,,2,,,62,127
46382,note_off,228,0,0,,2,,,62,127
46382,note_off,0,0,0,,12,,,83,127
46384,note_on,2,0,0,,10,,,81,127
46384,note_on,0,0,0,,1,,,61,127
46458,note_off,74,0,0,,10,,,81,127
46460,note_on,2,0,0,,8,,,80,127
46534,note_off,74,0,0,,8,,,80,127
46536,note_on,2,0,0,,6,,,78,127
46610,note_off,74,0,0,,6,,,78,127
46612,note_on,2,0,0,,8,,,80,127
46612,note_on,0,0,0,,1,,,49,127
46686,note_off,74,0,0,,8,,,80,127
46688,note_on,2,0,0,,6,,,78,127
46726,note_off,38,0,0,,1,,,61,127
46762,note_off,36,0,0,,6,,,78,127
46764,note_on,2,0,0,,5,,,77,127
46838,note_off,74,0,0,,5,,,77,127
46838,note_off,0,0,0,,1,,,49,127
46840,note_on,2,0,0,,5,,,77,127
46840,note_on,0,0,0,,6,,,54,127
46840,note_on,0,0,0,,6,,,42,127
47068,note_off,228,0,0,,5,,,77,127
47070,note_on,2,0,0,,6,,,78,127
47298,note_off,228,0,0,,6,,,42,127
47298,note_off,0,0,0,,6,,,54,127
47300,note_on,2,0,0,,10,,,57,127
47528,note_off,228,0,0,,10,,,57,127
47528,note_off,0,0,0,,6,,,78,127
47530,note_on,2,0,0,,1,,,73,127
47530,note_on,0,0,0,,10,,,81,127
47530,note_on,0,0,0,,6,,,66,127
47758,note_off,228,0,0,,6,,,66,127
47758,note_off,0,0,0,,10,,,81,127
47758,note_off,0,0,0,,1,,,73,127
47760,note_on,2,0,0,,8,,,80,127
47760,note_on,0,0,0,,2,,,74,127
47760,note_on,0,0,0,,12,,,59,127
47834,note_off,74,0,0,,8,,,80,127
47836,note_on,2,0,0,,6,,,78,127
47910,note_off,74,0,0,,6,,,78,127
47912,note_on,2,0,0,,5,,,77,127
47986,note_off,74,0,0,,5,,,77,127
47986,note_off,0,0,0,,12,,,59,127
47988,note_on,2,0,0,,5,,,77,127
47988,note_on,0,0,0,,8,,,68,127
48214,note_off,226,0,0,,2,,,74,127
48216,note_off,2,0,0,,8,,,68,127
48216,note_off,0,0,0,,5,,,77,127
48218,note_on,2,0,0,,6,,,78,127
48218,note_on,0,0,0,,1,,,73,127
48218,note_on,0,0,0,,10,,,57,127
48446,note_off,228,0,0,,10,,,57,127
48446,note_off,0,0,0,,6,,,78,127
48448,note_on,2,0,0,,10,,,81,127
48448,note_on,0,0,0,,6,,,66,127
48674,note_off,226,0,0,,1,,,73,127
48676,note_off,2,0,0,,6,,,66,127
48676,note_off,0,0,0,,10,,,81,127
48678,note_on,2,0,0,,8,,,80,127
48678,note_on,0,0,0,,2,,,74,127
48678,note_on,0,0,0,,12,,,59,127
48752,note_off,74,0,0,,8,,,80,127
48754,note_on,2,0,0,,6,,,78,127
48828,note_off,74,0,0,,6,,,78,127
48830,note_on,2,0,0,,5,,,77,127
48904,note_off,74,0,0,,5,,,77,127
48904,note_off,0,0,0,,12,,,59,127
48906,note_on,2,0,0,,5,,,77,127
48906,note_on,0,0,0,,8,,,68,127
49132,note_off,226,0,0,,2,,,74,127
49134,note_off,2,0,0,,8,,,68,127
49134,note_off,0,0,0,,5,,,77,127
49136,note_on,2,0,0,,6,,,78,127
49136,note_on,0,0,0,,1,,,73,127
49136,note_on,0,0,0,,10,,,57,127
49364,note_off,228,0,0,,10,,,57,127
49364,note_off,0,0,0,,6,,,78,127
49366,note_on,2,0,0,,1,,,85,127
49366,note_on,0,0,0,,6,,,66,127
49592,note_off,226,0,0,,1,,,73,127
49594,note_off,2,0,0,,6,,,66,127
49594,note_off,0,0,0,,1,,,85,127
49596,note_on,2,0,0,,5,,,77,127
49596,note_on,0,0,0,,12,,,83,127
49596,note_on,0,0,0,,8,,,56,127
49670,note_off,74,0,0,,12,,,83,127
49672,note_on,2,0,0,,10,,,81,127
49746,note_off,74,0,0,,10,,,81,127
49748,note_on,2,0,0,,8,,,80,127
49822,note_off,74,0,0,,8,,,80,127
49822,note_off,0,0,0,,8,,,56,127
49824,note_on,2,0,0,,8,,,80,127
49824,note_on,0,0,0,,5,,,65,127
50050,note_off,226,0,0,,5,,,77,127
50052,note_off,2,0,0,,5,,,65,127
50052,note_off,0,0,0,,8,,,80,127
50054,note_on,2,0,0,,6,,,78,127
50054,note_on,0,0,0,,10,,,81,127
50054,note_on,0,0,0,,6,,,54,127
50282,note_off,228,0,0,,10,,,81,127
50284,note_on,2,0,0,,1,,,85,127
50284,note_on,0,0,0,,6,,,66,127
50342,note_off,58,0,0,,6,,,54,127
50510,note_off,168,0,0,,6,,,78,127
50512,note_off,2,0,0,,6,,,66,127
50512,note_off,0,0,0,,1,,,85,127
50514,note_on,2,0,0,,5,,,77,127
50514,note_on,0,0,0,,12,,,83,127
50514,note_on,0,0,0,,8,,,56,127
50588,note_off,74,0,0,,12,,,83,127
50590,note_on,2,0,0,,10,,,81,127
50664,note_off,74,0,0,,10,,,81,127
50666,note_on,2,0,0,,8,,,80,127
50740,note_off,74,0,0,,8,,,80,127
50740,note_off,0,0,0,,8,,,56,127
50742,note_on,2,0,0,,8,,,80,127
50742,note_on,0,0,0,,5,,,65,127
50968,note_off,226,0,0,,5,,,77,127
50970,note_off,2,0,0,,5,,,65,127
50970,note_off,0,0,0,,8,,,80,127
50972,note_on,2,0,0,,10,,,81,127
50972,note_on,0,0,0,,6,,,78,127
50972,note_on,0,0,0,,6,,,54,127
51200,note_off,228,0,0,,10,,,81,127
51202,note_on,2,0,0,,1,,,85,127
51202,note_on,0,0,0,,6,,,66,127
51260,note_off,58,0,0,,6,,,54,127
51428,note_off,168,0,0,,6,,,78,127
51430,note_off,2,0,0,,6,,,66,127
51430,note_off,0,0,0,,1,,,85,127
51432,note_on,2,0,0,,8,,,80,127
51432,note_on,0,0,0,,12,,,59,127
51506,note_off,74,0,0,,8,,,80,127
51508,note_on,2,0,0,,10,,,81,127
51582,note_off,74,0,0,,10,,,81,127
51584,note_on,2,0,0,,12,,,83,127
51658,note_off,74,0,0,,12,,,83,127
51658,note_off,0,0,0,,12,,,59,127
51660,note_on,2,0,0,,12,,,83,127
51660,note_on,0,0,0,,2,,,62,127
51888,note_off,228,0,0,,2,,,62,127
51888,note_off,0,0,0,,12,,,83,127
51890,note_on,2,0,0,,10,,,81,127
51890,note_on,0,0,0,,1,,,61,127
51964,note_off,74,0,0,,10,,,81,127
51966,note_on,2,0,0,,8,,,80,127
52040,note_off,74,0,0,,8,,,80,127
52042,note_on,2,0,0,,6,,,78,127
52116,note_off,74,0,0,,6,,,78,127
52118,note_on,2,0,0,,8,,,80,127
52118,note_on,0,0,0,,1,,,49,127
52192,note_off,74,0,0,,8,,,80,127
52194,note_on,2,0,0,,6,,,78,127
52232,note_off,38,0,0,,1,,,61,127
52268,note_off,36,0,0,,6,,,78,127
52270,note_on,2,0,0,,5,,,77,127
52344,note_off,74,0,0,,5,,,77,127
52344,note_off,0,0,0,,1,,,49,127
52346,note_on,2,0,0,,6,,,78,127
52346,note_on,0,0,0,,6,,,54,127
52346,note_on,0,0,0,,6,,,42,127
52574,note_off,228,0,0,,6,,,78,127
52576,note_on,2,0,0,,2,,,86,127
52804,note_off,228,0,0,,2,,,86,127
52806,note_on,2,0,0,,1,,,85,127
52880,note_off,74,0,0,,1,,,85,127
52882,note_on,2,0,0,,12,,,83,127
52920,note_off,38,0,0,,6,,,42,127
52920,note_off,0,0,0,,6,,,54,127
52956,note_off,36,0,0,,12,,,83,127
52958,note_on,2,0,0,,10,,,81,127
53032,note_off,74,0,0,,10,,,81,127
53034,note_on,2,0,0,,8,,,80,127
53034,note_on,0,0,0,,10,,,57,127
53108,note_off,74,0,0,,8,,,80,127
53110,note_on,2,0,0,,6,,,78,127
53184,note_off,74,0,0,,6,,,78,127
53186,note_on,2,0,0,,4,,,76,127
53260,note_off,74,0,0,,4,,,76,127
53260,note_off,0,0,0,,10,,,57,127
53262,note_on,2,0,0,,2,,,74,127
53262,note_on,0,0,0,,12,,,59,127
53490,note_off,228,0,0,,12,,,59,127
53490,note_off,0,0,0,,2,,,74,127
53492,note_on,2,0,0,,1,,,85,127
53492,note_on,0,0,0,,10,,,57,127
53720,note_off,228,0,0,,10,,,57,127
53720,note_off,0,0,0,,1,,,85,127
53722,note_on,2,0,0,,12,,,83,127
53722,note_on,0,0,0,,8,,,56,127
53796,note_off,74,0,0,,12,,,83,127
53798,note_on,2,0,0,,10,,,81,127
53872,note_off,74,0,0,,10,,,81,127
53874,note_on,2,0,0,,8,,,80,127
53948,note_off,74,0,0,,8,,,80,127
53948,note_off,0,0,0,,8,,,56,127
53950,note_on,2,0,0,,6,,,78,127
53950,note_on,0,0,0,,4,,,52,127
54024,note_off,74,0,0,,6,,,78,127
54026,note_on,2,0,0,,4,,,76,127
54100,note_off,74,0,0,,4,,,76,127
54102,note_on,2,0,0,,2,,,74,127
54176,note_off,74,0,0,,2,,,74,127
54176,note_off,0,0,0,,4,,,52,127
54178,note_on,2,0,0,,1,,,73,127
54178,note_on,0,0,0,,10,,,57,127
54406,note_off,228,0,0,,10,,,57,127
54406,note_off,0,0,0,,1,,,73,127
54408,note_on,2,0,0,,12,,,83,127
54408,note_on,0,0,0,,8,,,56,127
54636,note_off,228,0,0,,8,,,56,127
54636,note_off,0,0,0,,12,,,83,127
54638,note_on,2,0,0,,10,,,81,127
54638,note_on,0,0,0,,6,,,54,127
54712,note_off,74,0,0,,10,,,81,127
54714,note_on,2,0,0,,8,,,80,127
54788,note_off,74,0,0,,8,,,80,127
54790,note_on,2,0,0,,6,,,78,127
54864,note_off,74,0,0,,6,,,78,127
54864,note_off,0,0,0,,6,,,54,127
54866,note_on,2,0,0,,4,,,76,127
54866,note_on,0,0,0,,2,,,50,127
54940,note_off,74,0,0,,4,,,76,127
54942,note_on,2,0,0,,2,,,74,127
55016,note_off,74,0,0,,2,,,74,127
55018,note_on,2,0,0,,1,,,73,127
55092,note_off,74,0,0,,1,,,73,127
55092,note_off,0,0,0,,2,,,50,127
55094,note_on,2,0,0,,12,,,71,127
55094,note_on,0,0,0,,8,,,56,127
55322,note_off,228,0,0,,8,,,56,127
55322,note_off,0,0,0,,12,,,71,127
55324,note_on,2,0,0,,10,,,81,127
55324,note_on,0,0,0,,6,,,54,127
55552,note_off,228,0,0,,6,,,54,127
55552,note_off,0,0,0,,10,,,81,127
55554,note_on,2,0,0,,8,,,80,127
55554,note_on,0,0,0,,5,,,53,127
55628,note_off,74,0,0,,8,,,80,127
55630,note_on,2,0,0,,6,,,78,127
55704,note_off,74,0,0,,6,,,78,127
55706,note_on,2,0,0,,5,,,77,127
55780,note_off,74,0,0,,5,,,77,127
55780,note_off,0,0,0,,5,,,53,127
55782,note_on,2,0,0,,2,,,74,127
55782,note_on,0,0,0,,1,,,49,127
55856,note_off,74,0,0,,2,,,74,127
55858,note_on,2,0,0,,1,,,73,127
55932,note_off,74,0,0,,1,,,73,127
55934,note_on,2,0,0,,12,,,71,127
56008,note_off,74,0,0,,12,,,71,127
56008,note_off,0,0,0,,1,,,49,127
56010,note_on,2,0,0,,10,,,69,127
56010,note_on,0,0,0,,6,,,54,127
56084,note_off,74,0,0,,10,,,69,127
56086,note_on,2,0,0,,12,,,71,127
56160,note_off,74,0,0,,12,,,71,127
56162,note_on,2,0,0,,1,,,73,127
56236,note_off,74,0,0,,1,,,73,127
56236,note_off,0,0,0,,6,,,54,127
56238,note_on,2,0,0,,12,,,71,127
56238,note_on,0,0,0,,12,,,59,127
56312,note_off,74,0,0,,12,,,71,127
56314,note_on,2,0,0,,1,,,73,127
56388,note_off,74,0,0,,1,,,73,127
56390,note_on,2,0,0,,2,,,74,127
56464,note_off,74,0,0,,2,,,74,127
56464,note_off,0,0,0,,12,,,59,127
56466,note_on,2,0,0,,1,,,73,127
56466,note_on,0,0,0,,1,,,61,127
56540,note_off,74,0,0,,1,,,73,127
56542,note_on,2,0,0,,12,,,71,127
56616,note_off,74,0,0,,12,,,71,127
56618,note_on,2,0,0,,10,,,69,127
56692,note_off,74,0,0,,10,,,69,127
56694,note_on,2,0,0,,8,,,68,127
56694,note_on,0,0,0,,1,,,49,127
56768,note_off,74,0,0,,8,,,68,127
56770,note_on,2,0,0,,6,,,66,127
56844,note_off,74,0,0,,6,,,66,127
56846,note_on,2,0,0,,5,,,65,127
56918,note_off,72,0,0,,1,,,61,127
56920,note_off,2,0,0,,5,,,65,127
56920,note_off,0,0,0,,1,,,49,127
56922,note_on,2,0,0,,6,,,66,127
56922,note_on,0,0,0,,2,,,62,127
56996,note_off,74,0,0,,6,,,66,127
56998,note_on,2,0,0,,8,,,68,127
57072,note_off,74,0,0,,8,,,68,127
57074,note_on,2,0,0,,10,,,69,127
57148,note_off,74,0,0,,10,,,69,127
57148,note_off,0,0,0,,2,,,62,127
57150,note_on,2,0,0,,12,,,71,127
57150,note_on,0,0,0,,12,,,59,127
57224,note_off,74,0,0,,12,,,71,127
57226,note_on,2,0,0,,1,,,73,127
57300,note_off,74,0,0,,1,,,73,127
57302,note_on,2,0,0,,2,,,74,127
57376,note_off,74,0,0,,2,,,74,127
57376,note_off,0,0,0,,12,,,59,127
57378,note_on,2,0,0,,1,,,73,127
57378,note_on,0,0,0,,1,,,61,127
57452,note_off,74,0,0,,1,,,73,127
57454,note_on,2,0,0,,12,,,71,127
57528,note_off,74,0,0,,12,,,71,127
57530,note_on,2,0,0,,10,,,69,127
57604,note_off,74,0,0,,10,,,69,127
57606,note_on,2,0,0,,8,,,68,127
57606,note_on,0,0,0,,1,,,49,127
57680,note_off,74,0,0,,8,,,68,127
57682,note_on,2,0,0,,6,,,66,127
57756,note_off,74,0,0,,6,,,66,127
57758,note_on,2,0,0,,5,,,65,127
57830,note_off,72,0,0,,1,,,61,127
57832,note_off,2,0,0,,5,,,65,127
57832,note_off,0,0,0,,1,,,49,127
57834,note_on,2,0,0,,6,,,66,127
57834,note_on,0,0,0,,2,,,62,127
57908,note_off,74,0,0,,6,,,66,127
57910,note_on,2,0,0,,8,,,68,127
57984,note_off,74,0,0,,8,,,68,127
57986,note_on,2,0,0,,10,,,69,127
58060,note_off,74,0,0,,10,,,69,127
58060,note_off,0,0,0,,2,,,62,127
58062,note_on,2,0,0,,12,,,71,127
58062,note_on,0,0,0,,12,,,59,127
58136,note_off,74,0,0,,12,,,71,127
58138,note_on,2,0,0,,1,,,73,127
58212,note_off,74,0,0,,1,,,73,127
58214,note_on,2,0,0,,2,,,74,127
58288,note_off,74,0,0,,2,,,74,127
58288,note_off,0,0,0,,12,,,59,127
58290,note_on,2,0,0,,1,,,73,127
58290,note_on,0,0,0,,1,,,61,127
58364,note_off,74,0,0,,1,,,73,127
58366,note_on,2,0,0,,12,,,71,127
58440,note_off,74,0,0,,12,,,71,127
58442,note_on,2,0,0,,10,,,69,127
58516,note_off,74,0,0,,10,,,69,127
58518,note_on,2,0,0,,8,,,68,127
58518,note_on,0,0,0,,1,,,49,127
58592,note_off,74,0,0,,8,,,68,127
58594,note_on,2,0,0,,6,,,66,127
58632,note_off,38,0,0,,1,,,61,127
58668,note_off,36,0,0,,6,,,66,127
58670,note_on,2,0,0,,5,,,65,127
58744,note_off,74,0,0,,5,,,65,127
58744,note_off,0,0,0,,1,,,49,127
58746,note_on,2,0,0,,6,,,66,127
58746,note_on,0,0,0,,6,,,54,127
58820,note_off,74,0,0,,6,,,54,127
58822,note_on,2,0,0,,8,,,56,127
58896,note_off,74,0,0,,8,,,56,127
58898,note_on,2,0,0,,10,,,57,127
58972,note_off,74,0,0,,10,,,57,127
58974,note_on,2,0,0,,12,,,59,127
59048,note_off,74,0,0,,12,,,59,127
59050,note_on,2,0,0,,1,,,61,127
59124,note_off,74,0,0,,1,,,61,127
59126,note_on,2,0,0,,2,,,62,127
59200,note_off,74,0,0,,2,,,62,127
59200,note_off,0,0,0,,6,,,66,127
59202,note_on,2,0,0,,8,,,68,127
59202,note_on,0,0,0,,1,,,61,127
59276,note_off,74,0,0,,1,,,61,127
59278,note_on,2,0,0,,12,,,59,127
59352,note_off,74,0,0,,12,,,59,127
59354,note_on,2,0,0,,10,,,57,127
59428,note_off,74,0,0,,10,,,57,127
59428,note_off,0,0,0,,8,,,68,127
59430,note_on,2,0,0,,12,,,71,127
59430,note_on,0,0,0,,8,,,56,127
59504,note_off,74,0,0,,8,,,56,127
59506,note_on,2,0,0,,6,,,54,127
59580,note_off,74,0,0,,6,,,54,127
59582,note_on,2,0,0,,5,,,53,127
59656,note_off,74,0,0,,5,,,53,127
59656,note_off,0,0,0,,12,,,71,127
59658,note_on,2,0,0,,10,,,69,127
59658,note_on,0,0,0,,6,,,54,127
59732,note_off,74,0,0,,6,,,54,127
59734,note_on,2,0,0,,8,,,56,127
59808,note_off,74,0,0,,8,,,56,127
59810,note_on,2,0,0,,10,,,57,127
59884,note_off,74,0,0,,10,,,57,127
59884,note_off,0,0,0,,10,,,69,127
59886,note_on,2,0,0,,6,,,66,127
59886,note_on,0,0,0,,12,,,59,127
59960,note_off,74,0,0,,12,,,59,127
59962,note_on,2,0,0,,1,,,61,127
60036,note_off,74,0,0,,1,,,61,127
60038,note_on,2,0,0,,2,,,62,127
60112,note_off,74,0,0,,2,,,62,127
60112,note_off,0,0,0,,6,,,66,127
60114,note_on,2,0,0,,8,,,68,127
60114,note_on,0,0,0,,1,,,61,127
60188,note_off,74,0,0,,1,,,61,127
60190,note_on,2,0,0,,12,,,59,127
60264,note_off,74,0,0,,12,,,59,127
60266,note_on,2,0,0,,10,,,57,127
60340,note_off,74,0,0,,10,,,57,127
60340,note_off,0,0,0,,8,,,68,127
60342,note_on,2,0,0,,12,,,71,127
60342,note_on,0,0,0,,8,,,56,127
60416,note_off,74,0,0,,8,,,56,127
60418,note_on,2,0,0,,6,,,54,127
60492,note_off,74,0,0,,6,,,54,127
60494,note_on,2,0,0,,5,,,53,127
60568,note_off,74,0,0,,5,,,53,127
60568,note_off,0,0,0,,12,,,71,127
60570,note_on,2,0,0,,10,,,69,127
60570,note_on,0,0,0,,6,,,54,127
60644,note_off,74,0,0,,6,,,54,127
60646,note_on,2,0,0,,8,,,56,127
60720,note_off,74,0,0,,8,,,56,127
60722,note_on,2,0,0,,10,,,57,127
60796,note_off,74,0,0,,10,,,57,127
60796,note_off,0,0,0,,10,,,69,127
60798,note_on,2,0,0,,6,,,66,127
60798,note_on,0,0,0,,12,,,59,127
60872,note_off,74,0,0,,12,,,59,127
60874,note_on,2,0,0,,1,,,61,127
60948,note_off,74,0,0,,1,,,61,127
60950,note_on,2,0,0,,2,,,62,127
61024,note_off,74,0,0,,2,,,62,127
61024,note_off,0,0,0,,6,,,66,127
61026,note_on,2,0,0,,8,,,68,127
61026,note_on,0,0,0,,1,,,61,127
61100,note_off,74,0,0,,1,,,61,127
61102,note_on,2,0,0,,12,,,59,127
61176,note_off,74,0,0,,12,,,59,127
61178,note_on,2,0,0,,10,,,57,127
61252,note_off,74,0,0,,10,,,57,127
61252,note_off,0,0,0,,8,,,68,127
61254,note_on,2,0,0,,12,,,71,127
61254,note_on,0,0,0,,8,,,56,127
61328,note_off,74,0,0,,8,,,56,127
61330,note_on,2,0,0,,6,,,54,127
61404,note_off,74,0,0,,6,,,54,127
61406,note_on,2,0,0,,5,,,53,127
61480,note_off,74,0,0,,5,,,53,127
61480,note_off,0,0,0,,12,,,71,127
61482,note_on,2,0,0,,6,,,66,127
61482,note_on,0,0,0,,6,,,54,127
61556,note_off,74,0,0,,6,,,66,127
61558,note_on,2,0,0,,8,,,68,127
61632,note_off,74,0,0,,8,,,68,127
61634,note_on,2,0,0,,10,,,69,127
61708,note_off,74,0,0,,10,,,69,127
61708,note_off,0,0,0,,6,,,54,127
61710,note_on,2,0,0,,12,,,71,127
61710,note_on,0,0,0,,12,,,59,127
61784,note_off,74,0,0,,12,,,71,127
61786,note_on,2,0,0,,1,,,73,127
61860,note_off,74,0,0,,1,,,73,127
61862,note_on,2,0,0,,2,,,74,127
61936,note_off,74,0,0,,2,,,74,127
61936,note_off,0,0,0,,12,,,59,127
61938,note_on,2,0,0,,1,,,73,127
61938,note_on,0,0,0,,1,,,61,127
62012,note_off,74,0,0,,1,,,73,127
62014,note_on,2,0,0,,12,,,71,127
62088,note_off,74,0,0,,12,,,71,127
62090,note_on,2,0,0,,10,,,69,127
62164,note_off,74,0,0,,10,,,69,127
62166,note_on,2,0,0,,8,,,68,127
62166,note_on,0,0,0,,1,,,49,127
62240,note_off,74,0,0,,8,,,68,127
62242,note_on,2,0,0,,6,,,66,127
62316,note_off,74,0,0,,6,,,66,127
62318,note_on,2,0,0,,5,,,65,127
62390,note_off,72,0,0,,1,,,61,127
62392,note_off,2,0,0,,5,,,65,127
62392,note_off,0,0,0,,1,,,49,127
62394,note_on,2,0,0,,6,,,66,127
62394,note_on,0,0,0,,6,,,54,127
62468,note_off,74,0,0,,6,,,66,127
62470,note_on,2,0,0,,8,,,68,127
62544,note_off,74,0,0,,8,,,68,127
62546,note_on,2,0,0,,10,,,69,127
62620,note_off,74,0,0,,10,,,69,127
62620,note_off,0,0,0,,6,,,54,127
62622,note_on,2,0,0,,12,,,71,127
62622,note_on,0,0,0,,12,,,59,127
62696,note_off,74,0,0,,12,,,71,127
62698,note_on,2,0,0,,1,,,73,127
62772,note_off,74,0,0,,1,,,73,127
62774,note_on,2,0,0,,2,,,74,127
62848,note_off,74,0,0,,2,,,74,127
62848,note_off,0,0,0,,12,,,59,127
62850,note_on,2,0,0,,1,,,73,127
62850,note_on,0,0,0,,1,,,61,127
63078,note_off,228,0,0,,1,,,73,127
63080,note_on,2,0,0,,8,,,68,127
63080,note_on,0,0,0,,5,,,77,127
63080,note_on,0,0,0,,1,,,49,127
63195,note_off,115,0,0,,1,,,61,127
63308,note_off,113,0,0,,1,,,49,127
63308,note_off,0,0,0,,5,,,77,127
63308,note_off,0,0,0,,8,,,68,127
63310,note_on,2,0,0,,5,,,77,127
63310,note_on,0,0,0,,8,,,68,127
63310,note_on,0,0,0,,6,,,54,127
63310,note_on,0,0,0,,6,,,42,127
63538,note_off,228,0,0,,8,,,68,127
63538,note_off,0,0,0,,5,,,77,127
63540,note_on,2,0,0,,6,,,66,127
63540,note_on,0,0,0,,6,,,78,127
64000,note_off,460,0,0,,6,,,42,127
64000,note_off,0,0,0,,6,,,54,127
64229,note_off,229,0,0,,6,,,78,127
64229,note_off,0,0,0,,6,,,66,127
64231,note_on,2,0,0,,6,,,78,127
64338,note_off,107,0,0,,6,,,78,127
64340,note_on,2,0,0,,6,,,78,127
64447,note_off,107,0,0,,6,,,78,127
64449,note_on,2,0,0,,6,,,78,127
64556,note_off,107,0,0,,6,,,78,127
64560,note_on,4,0,0,,6,,,78,127
64667,note_off,107,0,0,,6,,,78,127
64669,note_on,2,0,0,,6,,,78,127
64776,note_off,107,0,0,,6,,,78,127
64780,note_on,4,0,0,,6,,,78,127
64887,note_off,107,0,0,,6,,,78,127
64889,note_on,2,0,0,,7,,,79,127
64996,note_off,107,0,0,,7,,,79,127
65000,note_on,4,0,0,,6,,,78,127
65107,note_off,107,0,0,,6,,,78,127
65109,note_on,2,0,0,,4,,,76,127
65216,note_off,107,0,0,,4,,,76,127
65218,note_on,2,0,0,,2,,,74,127
65325,note_off,107,0,0,,2,,,74,127
65329,note_on,4,0,0,,1,,,73,127
65436,note_off,107,0,0,,1,,,73,127
65438,note_on,2,0,0,,12,,,71,127
65545,note_off,107,0,0,,12,,,71,127
65549,note_on,4,0,0,,6,,,66,127
65549,note_on,0,0,0,,11,,,70,127
65656,note_off,107,0,0,,6,,,66,127
65658,note_on,2,0,0,,6,,,66,127
65765,note_off,107,0,0,,6,,,66,127
65769,note_on,4,0,0,,6,,,66,127
65876,note_off,107,0,0,,6,,,66,127
65878,note_on,2,0,0,,6,,,66,127
65985,note_off,107,0,0,,6,,,66,127
65985,note_off,0,0,0,,11,,,70,127
65987,note_on,2,0,0,,6,,,66,127
65987,note_on,0,0,0,,11,,,70,127
66094,note_off,107,0,0,,6,,,66,127
66098,note_on,4,0,0,,6,,,66,127
66204,note_off,106,0,0,,11,,,70,127
66205,note_off,1,0,0,,6,,,66,127
66207,note_on,2,0,0,,7,,,67,127
66207,note_on,0,0,0,,12,,,71,127
66314,note_off,107,0,0,,7,,,67,127
66318,note_on,4,0,0,,6,,,66,127
66425,note_off,107,0,0,,6,,,66,127
66427,note_on,2,0,0,,4,,,64,127
66534,note_off,107,0,0,,4,,,64,127
66538,note_on,4,0,0,,2,,,62,127
66644,note_off,106,0,0,,12,,,71,127
66645,note_off,1,0,0,,2,,,62,127
66647,note_on,2,0,0,,1,,,61,127
66647,note_on,0,0,0,,12,,,71,127
66754,note_off,107,0,0,,1,,,61,127
66756,note_on,2,0,0,,12,,,59,127
66863,note_off,107,0,0,,12,,,59,127
66863,note_off,0,0,0,,12,,,71,127
66867,note_on,4,0,0,,11,,,58,127
66867,note_on,0,0,0,,1,,,73,127
66974,note_off,107,0,0,,1,,,73,127
66976,note_on,2,0,0,,2,,,74,127
67083,note_off,107,0,0,,2,,,74,127
67083,note_off,0,0,0,,11,,,58,127
67087,note_on,4,0,0,,6,,,54,127
67087,note_on,0,0,0,,4,,,76,127
67194,note_off,107,0,0,,4,,,76,127
67196,note_on,2,0,0,,1,,,73,127
67303,note_off,107,0,0,,1,,,73,127
67303,note_off,0,0,0,,6,,,54,127
67307,note_on,4,0,0,,11,,,58,127
67307,note_on,0,0,0,,6,,,78,127
67414,note_off,107,0,0,,6,,,78,127
67416,note_on,2,0,0,,4,,,76,127
67523,note_off,107,0,0,,4,,,76,127
67523,note_off,0,0,0,,11,,,58,127
67525,note_on,2,0,0,,12,,,59,127
67525,note_on,0,0,0,,2,,,74,127
67632,note_off,107,0,0,,2,,,74,127
67636,note_on,4,0,0,,6,,,78,127
67742,note_off,106,0,0,,12,,,59,127
67743,note_off,1,0,0,,6,,,78,127
67745,note_on,2,0,0,,7,,,55,127
67745,note_on,0,0,0,,4,,,76,127
67852,note_off,107,0,0,,4,,,76,127
67856,note_on,4,0,0,,2,,,74,127
67962,note_off,106,0,0,,7,,,55,127
67963,note_off,1,0,0,,2,,,74,127
67965,note_on,2,0,0,,4,,,52,127
67965,note_on,0,0,0,,1,,,73,127
68072,note_off,107,0,0,,1,,,73,127
68076,note_on,4,0,0,,12,,,71,127
68182,note_off,106,0,0,,4,,,52,127
68183,note_off,1,0,0,,12,,,71,127
68185,note_on,2,0,0,,6,,,54,127
68185,note_on,0,0,0,,11,,,70,127
68292,note_off,107,0,0,,11,,,70,127
68294,note_on,2,0,0,,7,,,79,127
68401,note_off,107,0,0,,7,,,79,127
68401,note_off,0,0,0,,6,,,54,127
68405,note_on,4,0,0,,8,,,56,127
68405,note_on,0,0,0,,6,,,78,127
68512,note_off,107,0,0,,6,,,78,127
68514,note_on,2,0,0,,4,,,76,127
68621,note_off,107,0,0,,4,,,76,127
68621,note_off,0,0,0,,8,,,56,127
68625,note_on,4,0,0,,11,,,58,127
68625,note_on,0,0,0,,2,,,74,127
68732,note_off,107,0,0,,2,,,74,127
68734,note_on,2,0,0,,1,,,73,127
68841,note_off,107,0,0,,1,,,73,127
68841,note_off,0,0,0,,11,,,58,127
68845,note_on,4,0,0,,12,,,47,127
68845,note_on,0,0,0,,12,,,59,127
68845,note_on,0,0,0,,2,,,74,127
68952,note_off,107,0,0,,2,,,74,127
68954,note_on,2,0,0,,1,,,73,127
69061,note_off,107,0,0,,1,,,73,127
69061,note_off,0,0,0,,12,,,59,127
69061,note_off,0,0,0,,12,,,47,127
69063,note_on,2,0,0,,1,,,49,127
69063,note_on,0,0,0,,12,,,71,127
69170,note_off,107,0,0,,12,,,71,127
69174,note_on,4,0,0,,10,,,69,127
69280,note_off,106,0,0,,1,,,49,127
69281,note_off,1,0,0,,10,,,69,127
69283,note_on,2,0,0,,2,,,50,127
69283,note_on,0,0,0,,7,,,67,127
69390,note_off,107,0,0,,7,,,67,127
69394,note_on,4,0,0,,6,,,66,127
69500,note_off,106,0,0,,2,,,50,127
69501,note_off,1,0,0,,6,,,66,127
69503,note_on,2,0,0,,4,,,52,127
69503,note_on,0,0,0,,7,,,67,127
69610,note_off,107,0,0,,7,,,67,127
69614,note_on,4,0,0,,6,,,78,127
69720,note_off,106,0,0,,4,,,52,127
69721,note_off,1,0,0,,6,,,78,127
69723,note_on,2,0,0,,6,,,54,127
69723,note_on,0,0,0,,4,,,76,127
69830,note_off,107,0,0,,4,,,76,127
69832,note_on,2,0,0,,2,,,74,127
69939,note_off,107,0,0,,2,,,74,127
69939,note_off,0,0,0,,6,,,54,127
69943,note_on,4,0,0,,7,,,55,127
69943,note_on,0,0,0,,1,,,73,127
70050,note_off,107,0,0,,1,,,73,127
70052,note_on,2,0,0,,12,,,71,127
70159,note_off,107,0,0,,12,,,71,127
70159,note_off,0,0,0,,7,,,55,127
70163,note_on,4,0,0,,10,,,45,127
70163,note_on,0,0,0,,10,,,57,127
70163,note_on,0,0,0,,1,,,73,127
70270,note_off,107,0,0,,1,,,73,127
70272,note_on,2,0,0,,12,,,71,127
70379,note_off,107,0,0,,12,,,71,127
70379,note_off,0,0,0,,10,,,57,127
70379,note_off,0,0,0,,10,,,45,127
70383,note_on,4,0,0,,12,,,47,127
70383,note_on,0,0,0,,10,,,69,127
70490,note_off,107,0,0,,10,,,69,127
70492,note_on,2,0,0,,7,,,67,127
70599,note_off,107,0,0,,7,,,67,127
70599,note_off,0,0,0,,12,,,47,127
70601,note_on,2,0,0,,1,,,49,127
70601,note_on,0,0,0,,6,,,66,127
70708,note_off,107,0,0,,6,,,66,127
70712,note_on,4,0,0,,4,,,64,127
70818,note_off,106,0,0,,1,,,49,127
70819,note_off,1,0,0,,4,,,64,127
70821,note_on,2,0,0,,2,,,50,127
70821,note_on,0,0,0,,6,,,66,127
70928,note_off,107,0,0,,6,,,66,127
70932,note_on,4,0,0,,4,,,76,127
71038,note_off,106,0,0,,2,,,50,127
71039,note_off,1,0,0,,4,,,76,127
71041,note_on,2,0,0,,4,,,52,127
71041,note_on,0,0,0,,2,,,74,127
71148,note_off,107,0,0,,2,,,74,127
71152,note_on,4,0,0,,1,,,73,127
71258,note_off,106,0,0,,4,,,52,127
71259,note_off,1,0,0,,1,,,73,127
71261,note_on,2,0,0,,6,,,54,127
71261,note_on,0,0,0,,12,,,71,127
71368,note_off,107,0,0,,12,,,71,127
71370,note_on,2,0,0,,10,,,69,127
71477,note_off,107,0,0,,10,,,69,127
71477,note_off,0,0,0,,6,,,54,127
71481,note_on,4,0,0,,7,,,55,127
71481,note_on,0,0,0,,12,,,71,127
71588,note_off,107,0,0,,12,,,71,127
71590,note_on,2,0,0,,10,,,69,127
71697,note_off,107,0,0,,10,,,69,127
71697,note_off,0,0,0,,7,,,55,127
71701,note_on,4,0,0,,10,,,57,127
71701,note_on,0,0,0,,7,,,67,127
71808,note_off,107,0,0,,7,,,67,127
71810,note_on,2,0,0,,6,,,66,127
71917,note_off,107,0,0,,6,,,66,127
71917,note_off,0,0,0,,10,,,57,127
71921,note_on,4,0,0,,12,,,59,127
71921,note_on,0,0,0,,4,,,64,127
72028,note_off,107,0,0,,4,,,64,127
72030,note_on,2,0,0,,2,,,62,127
72137,note_off,107,0,0,,2,,,62,127
72137,note_off,0,0,0,,12,,,59,127
72139,note_on,2,0,0,,10,,,45,127
72139,note_on,0,0,0,,1,,,61,127
72246,note_off,107,0,0,,10,,,45,127
72250,note_on,4,0,0,,10,,,57,127
72356,note_off,106,0,0,,1,,,61,127
72357,note_off,1,0,0,,10,,,57,127
72359,note_on,2,0,0,,1,,,49,127
72359,note_on,0,0,0,,4,,,64,127
72466,note_off,107,0,0,,1,,,49,127
72470,note_on,4,0,0,,10,,,57,127
72576,note_off,106,0,0,,4,,,64,127
72577,note_off,1,0,0,,10,,,57,127
72579,note_on,2,0,0,,10,,,45,127
72579,note_on,0,0,0,,10,,,69,127
72686,note_off,107,0,0,,10,,,45,127
72690,note_on,4,0,0,,10,,,57,127
72796,note_off,106,0,0,,10,,,69,127
72797,note_off,1,0,0,,10,,,57,127
72799,note_on,2,0,0,,2,,,50,127
72799,note_on,0,0,0,,6,,,66,127
72906,note_off,107,0,0,,2,,,50,127
72908,note_on,2,0,0,,10,,,57,127
73015,note_off,107,0,0,,10,,,57,127
73015,note_off,0,0,0,,6,,,66,127
73019,note_on,4,0,0,,6,,,54,127
73019,note_on,0,0,0,,2,,,74,127
73126,note_off,107,0,0,,6,,,54,127
73128,note_on,2,0,0,,10,,,57,127
73235,note_off,107,0,0,,10,,,57,127
73235,note_off,0,0,0,,2,,,74,127
73239,note_on,4,0,0,,2,,,50,127
73239,note_on,0,0,0,,6,,,78,127
73346,note_off,107,0,0,,2,,,50,127
73348,note_on,2,0,0,,10,,,57,127
73455,note_off,107,0,0,,10,,,57,127
73459,note_on,4,0,0,,10,,,45,127
73566,note_off,107,0,0,,10,,,45,127
73568,note_on,2,0,0,,10,,,57,127
73662,note_off,94,0,0,,6,,,78,127
73675,note_off,13,0,0,,10,,,57,127
73677,note_on,2,0,0,,1,,,49,127
73677,note_on,0,0,0,,4,,,76,127
73784,note_off,107,0,0,,1,,,49,127
73788,note_on,4,0,0,,10,,,57,127
73894,note_off,106,0,0,,4,,,76,127
73895,note_off,1,0,0,,10,,,57,127
73897,note_on,2,0,0,,10,,,45,127
73897,note_on,0,0,0,,7,,,67,127
74004,note_off,107,0,0,,10,,,45,127
74008,note_on,4,0,0,,10,,,57,127
74114,note_off,106,0,0,,7,,,67,127
74115,note_off,1,0,0,,10,,,57,127
74117,note_on,2,0,0,,2,,,50,127
74117,note_on,0,0,0,,6,,,66,127
74224,note_off,107,0,0,,2,,,50,127
74228,note_on,4,0,0,,10,,,57,127
74334,note_off,106,0,0,,6,,,66,127
74335,note_off,1,0,0,,10,,,57,127
74337,note_on,2,0,0,,6,,,54,127
74337,note_on,0,0,0,,2,,,74,127
74444,note_off,107,0,0,,6,,,54,127
74446,note_on,2,0,0,,10,,,57,127
74553,note_off,107,0,0,,10,,,57,127
74553,note_off,0,0,0,,2,,,74,127
74557,note_on,4,0,0,,2,,,50,127
74557,note_on,0,0,0,,6,,,78,127
74664,note_off,107,0,0,,2,,,50,127
74666,note_on,2,0,0,,10,,,57,127
74773,note_off,107,0,0,,10,,,57,127
74777,note_on,4,0,0,,10,,,45,127
74884,note_off,107,0,0,,10,,,45,127
74886,note_on,2,0,0,,10,,,57,127
74980,note_off,94,0,0,,6,,,78,127
74993,note_off,13,0,0,,10,,,57,127
74997,note_on,4,0,0,,1,,,49,127
74997,note_on,0,0,0,,4,,,76,127
75104,note_off,107,0,0,,1,,,49,127
75106,note_on,2,0,0,,10,,,57,127
75213,note_off,107,0,0,,10,,,57,127
75213,note_off,0,0,0,,4,,,76,127
75215,note_on,2,0,0,,10,,,45,127
75215,note_on,0,0,0,,7,,,67,127
75322,note_off,107,0,0,,10,,,45,127
75326,note_on,4,0,0,,10,,,57,127
75432,note_off,106,0,0,,7,,,67,127
75433,note_off,1,0,0,,10,,,57,127
75435,note_on,2,0,0,,2,,,50,127
75435,note_on,0,0,0,,6,,,66,127
75542,note_off,107,0,0,,2,,,50,127
75546,note_on,4,0,0,,10,,,57,127
75652,note_off,106,0,0,,6,,,66,127
75653,note_off,1,0,0,,10,,,57,127
75655,note_on,2,0,0,,6,,,54,127
75655,note_on,0,0,0,,10,,,69,127
75762,note_off,107,0,0,,6,,,54,127
75766,note_on,4,0,0,,10,,,57,127
75872,note_off,106,0,0,,10,,,69,127
75873,note_off,1,0,0,,10,,,57,127
75875,note_on,2,0,0,,0,,,48,127
75875,note_on,0,0,0,,0,,,72,127
75982,note_off,107,0,0,,0,,,48,127
75984,note_on,2,0,0,,10,,,57,127
76091,note_off,107,0,0,,10,,,57,127
76095,note_on,4,0,0,,12,,,47,127
76202,note_off,107,0,0,,12,,,47,127
76204,note_on,2,0,0,,12,,,59,127
76298,note_off,94,0,0,,0,,,72,127
76311,note_off,13,0,0,,12,,,59,127
76315,note_on,4,0,0,,3,,,51,127
76315,note_on,0,0,0,,12,,,71,127
76422,note_off,107,0,0,,3,,,51,127
76424,note_on,2,0,0,,12,,,59,127
76531,note_off,107,0,0,,12,,,59,127
76531,note_off,0,0,0,,12,,,71,127
76535,note_on,4,0,0,,12,,,47,127
76535,note_on,0,0,0,,6,,,66,127
76642,note_off,107,0,0,,12,,,47,127
76644,note_on,2,0,0,,12,,,59,127
76751,note_off,107,0,0,,12,,,59,127
76751,note_off,0,0,0,,6,,,66,127
76753,note_on,2,0,0,,4,,,52,127
76753,note_on,0,0,0,,7,,,67,127
76860,note_off,107,0,0,,4,,,52,127
76864,note_on,4,0,0,,12,,,59,127
76970,note_off,106,0,0,,7,,,67,127
76971,note_off,1,0,0,,12,,,59,127
76973,note_on,2,0,0,,7,,,55,127
76973,note_on,0,0,0,,4,,,76,127
77080,note_off,107,0,0,,7,,,55,127
77084,note_on,4,0,0,,12,,,59,127
77190,note_off,106,0,0,,4,,,76,127
77191,note_off,1,0,0,,12,,,59,127
77193,note_on,2,0,0,,4,,,52,127
77193,note_on,0,0,0,,7,,,79,127
77300,note_off,107,0,0,,4,,,52,127
77304,note_on,4,0,0,,12,,,59,127
77411,note_off,107,0,0,,12,,,59,127
77413,note_on,2,0,0,,12,,,47,127
77520,note_off,107,0,0,,12,,,47,127
77522,note_on,2,0,0,,12,,,59,127
77616,note_off,94,0,0,,7,,,79,127
77629,note_off,13,0,0,,12,,,59,127
77633,note_on,4,0,0,,3,,,51,127
77633,note_on,0,0,0,,6,,,78,127
77740,note_off,107,0,0,,3,,,51,127
77742,note_on,2,0,0,,12,,,59,127
77849,note_off,107,0,0,,12,,,59,127
77849,note_off,0,0,0,,6,,,78,127
77853,note_on,4,0,0,,12,,,47,127
77853,note_on,0,0,0,,10,,,69,127
77960,note_off,107,0,0,,12,,,47,127
77962,note_on,2,0,0,,12,,,59,127
78069,note_off,107,0,0,,12,,,59,127
78069,note_off,0,0,0,,10,,,69,127
78073,note_on,4,0,0,,4,,,52,127
78073,note_on,0,0,0,,7,,,67,127
78180,note_off,107,0,0,,4,,,52,127
78182,note_on,2,0,0,,12,,,59,127
78289,note_off,107,0,0,,12,,,59,127
78289,note_off,0,0,0,,7,,,67,127
78291,note_on,2,0,0,,7,,,55,127
78291,note_on,0,0,0,,4,,,76,127
78398,note_off,107,0,0,,7,,,55,127
78402,note_on,4,0,0,,12,,,59,127
78508,note_off,106,0,0,,4,,,76,127
78509,note_off,1,0,0,,12,,,59,127
78511,note_on,2,0,0,,4,,,52,127
78511,note_on,0,0,0,,7,,,79,127
78618,note_off,107,0,0,,4,,,52,127
78622,note_on,4,0,0,,12,,,59,127
78729,note_off,107,0,0,,12,,,59,127
78731,note_on,2,0,0,,12,,,47,127
78838,note_off,107,0,0,,12,,,47,127
78842,note_on,4,0,0,,12,,,59,127
78934,note_off,92,0,0,,7,,,79,127
78948,note_off,14,0,0,,12,,,59,127
78950,note_on,2,0,0,,3,,,51,127
78950,note_on,0,0,0,,6,,,78,127
79057,note_off,107,0,0,,3,,,51,127
79059,note_on,2,0,0,,12,,,59,127
79166,note_off,107,0,0,,12,,,59,127
79166,note_off,0,0,0,,6,,,78,127
79170,note_on,4,0,0,,12,,,47,127
79170,note_on,0,0,0,,10,,,69,127
79277,note_off,107,0,0,,12,,,47,127
79279,note_on,2,0,0,,12,,,59,127
79386,note_off,107,0,0,,12,,,59,127
79386,note_off,0,0,0,,10,,,69,127
79390,note_on,4,0,0,,4,,,52,127
79390,note_on,0,0,0,,7,,,67,127
79497,note_off,107,0,0,,4,,,52,127
79499,note_on,2,0,0,,12,,,59,127
79606,note_off,107,0,0,,12,,,59,127
79606,note_off,0,0,0,,7,,,67,127
79610,note_on,4,0,0,,7,,,55,127
79610,note_on,0,0,0,,12,,,71,127
79717,note_off,107,0,0,,7,,,55,127
79719,note_on,2,0,0,,12,,,59,127
79826,note_off,107,0,0,,12,,,59,127
79826,note_off,0,0,0,,12,,,71,127
79828,note_on,2,0,0,,2,,,50,127
79828,note_on,0,0,0,,2,,,74,127
79935,note_off,107,0,0,,2,,,50,127
79939,note_on,4,0,0,,12,,,59,127
80046,note_off,107,0,0,,12,,,59,127
80048,note_on,2,0,0,,1,,,49,127
80155,note_off,107,0,0,,1,,,49,127
80159,note_on,4,0,0,,1,,,61,127
80265,note_off,106,0,0,,2,,,74,127
80266,note_off,1,0,0,,1,,,61,127
80268,note_on,2,0,0,,5,,,53,127
80268,note_on,0,0,0,,1,,,73,127
80375,note_off,107,0,0,,5,,,53,127
80379,note_on,4,0,0,,1,,,61,127
80485,note_off,106,0,0,,1,,,73,127
80486,note_off,1,0,0,,1,,,61,127
80488,note_on,2,0,0,,1,,,49,127
80488,note_on,0,0,0,,8,,,68,127
80595,note_off,107,0,0,,1,,,49,127
80597,note_on,2,0,0,,1,,,61,127
80704,note_off,107,0,0,,1,,,61,127
80704,note_off,0,0,0,,8,,,68,127
80708,note_on,4,0,0,,6,,,54,127
80708,note_on,0,0,0,,10,,,69,127
80815,note_off,107,0,0,,6,,,54,127
80817,note_on,2,0,0,,1,,,61,127
80924,note_off,107,0,0,,1,,,61,127
80924,note_off,0,0,0,,10,,,69,127
80928,note_on,4,0,0,,10,,,57,127
80928,note_on,0,0,0,,6,,,78,127
81035,note_off,107,0,0,,10,,,57,127
81037,note_on,2,0,0,,1,,,61,127
81144,note_off,107,0,0,,1,,,61,127
81144,note_off,0,0,0,,6,,,78,127
81148,note_on,4,0,0,,6,,,54,127
81148,note_on,0,0,0,,10,,,81,127
81255,note_off,107,0,0,,6,,,54,127
81257,note_on,2,0,0,,1,,,61,127
81364,note_off,107,0,0,,1,,,61,127
81366,note_on,2,0,0,,1,,,49,127
81473,note_off,107,0,0,,1,,,49,127
81477,note_on,4,0,0,,1,,,61,127
81584,note_off,107,0,0,,1,,,61,127
81584,note_off,0,0,0,,10,,,81,127
81586,note_on,2,0,0,,5,,,53,127
81586,note_on,0,0,0,,8,,,80,127
81693,note_off,107,0,0,,5,,,53,127
81697,note_on,4,0,0,,1,,,61,127
81803,note_off,106,0,0,,8,,,80,127
81804,note_off,1,0,0,,1,,,61,127
81806,note_on,2,0,0,,1,,,49,127
81806,note_on,0,0,0,,12,,,71,127
81913,note_off,107,0,0,,1,,,49,127
81917,note_on,4,0,0,,1,,,61,127
82023,note_off,106,0,0,,12,,,71,127
82024,note_off,1,0,0,,1,,,61,127
82026,note_on,2,0,0,,6,,,54,127
82026,note_on,0,0,0,,10,,,69,127
82133,note_off,107,0,0,,6,,,54,127
82135,note_on,2,0,0,,1,,,61,127
82242,note_off,107,0,0,,1,,,61,127
82242,note_off,0,0,0,,10,,,69,127
82246,note_on,4,0,0,,10,,,57,127
82246,note_on,0,0,0,,6,,,78,127
82353,note_off,107,0,0,,10,,,57,127
82355,note_on,2,0,0,,1,,,61,127
82462,note_off,107,0,0,,1,,,61,127
82462,note_off,0,0,0,,6,,,78,127
82466,note_on,4,0,0,,6,,,54,127
82466,note_on,0,0,0,,10,,,81,127
82573,note_off,107,0,0,,6,,,54,127
82575,note_on,2,0,0,,1,,,61,127
82682,note_off,107,0,0,,1,,,61,127
82686,note_on,4,0,0,,1,,,49,127
82793,note_off,107,0,0,,1,,,49,127
82795,note_on,2,0,0,,1,,,61,127
82902,note_off,107,0,0,,1,,,61,127
82902,note_off,0,0,0,,10,,,81,127
82904,note_on,2,0,0,,5,,,53,127
82904,note_on,0,0,0,,8,,,80,127
83011,note_off,107,0,0,,5,,,53,127
83015,note_on,4,0,0,,1,,,61,127
83121,note_off,106,0,0,,8,,,80,127
83122,note_off,1,0,0,,1,,,61,127
83124,note_on,2,0,0,,1,,,49,127
83124,note_on,0,0,0,,12,,,71,127
83231,note_off,107,0,0,,1,,,49,127
83235,note_on,4,0,0,,1,,,61,127
83341,note_off,106,0,0,,12,,,71,127
83342,note_off,1,0,0,,1,,,61,127
83344,note_on,2,0,0,,6,,,54,127
83344,note_on,0,0,0,,11,,,70,127
83451,note_off,107,0,0,,6,,,54,127
83455,note_on,4,0,0,,6,,,66,127
83561,note_off,106,0,0,,11,,,70,127
83562,note_off,1,0,0,,6,,,66,127
83564,note_on,2,0,0,,11,,,58,127
83564,note_on,0,0,0,,1,,,73,127
83671,note_off,107,0,0,,11,,,58,127
83673,note_on,2,0,0,,6,,,66,127
83780,note_off,107,0,0,,6,,,66,127
83780,note_off,0,0,0,,1,,,73,127
83784,note_on,4,0,0,,6,,,54,127
83784,note_on,0,0,0,,6,,,78,127
83891,note_off,107,0,0,,6,,,54,127
83893,note_on,2,0,0,,6,,,66,127
84000,note_off,107,0,0,,6,,,66,127
84000,note_off,0,0,0,,6,,,78,127
84004,note_on,4,0,0,,12,,,59,127
84004,note_on,0,0,0,,2,,,74,127
84111,note_off,107,0,0,,12,,,59,127
84113,note_on,2,0,0,,6,,,66,127
84220,note_off,107,0,0,,6,,,66,127
84220,note_off,0,0,0,,2,,,74,127
84224,note_on,4,0,0,,2,,,62,127
84224,note_on,0,0,0,,12,,,83,127
84331,note_off,107,0,0,,2,,,62,127
84333,note_on,2,0,0,,6,,,66,127
84440,note_off,107,0,0,,6,,,66,127
84440,note_off,0,0,0,,12,,,83,127
84442,note_on,2,0,0,,12,,,59,127
84442,note_on,0,0,0,,2,,,86,127
84549,note_off,107,0,0,,12,,,59,127
84553,note_on,4,0,0,,2,,,62,127
84660,note_off,107,0,0,,2,,,62,127
84662,note_on,2,0,0,,6,,,54,127
84769,note_off,107,0,0,,6,,,54,127
84773,note_on,4,0,0,,6,,,66,127
84879,note_off,106,0,0,,2,,,86,127
84880,note_off,1,0,0,,6,,,66,127
84882,note_on,2,0,0,,11,,,58,127
84882,note_on,0,0,0,,1,,,85,127
84989,note_off,107,0,0,,11,,,58,127
84993,note_on,4,0,0,,6,,,66,127
85099,note_off,106,0,0,,1,,,85,127
85100,note_off,1,0,0,,6,,,66,127
85102,note_on,2,0,0,,6,,,54,127
85102,note_on,0,0,0,,4,,,76,127
85209,note_off,107,0,0,,6,,,54,127
85211,note_on,2,0,0,,6,,,66,127
85318,note_off,107,0,0,,6,,,66,127
85318,note_off,0,0,0,,4,,,76,127
85322,note_on,4,0,0,,12,,,59,127
85322,note_on,0,0,0,,2,,,74,127
85429,note_off,107,0,0,,12,,,59,127
85431,note_on,2,0,0,,6,,,66,127
85538,note_off,107,0,0,,6,,,66,127
85538,note_off,0,0,0,,2,,,74,127
85542,note_on,4,0,0,,2,,,62,127
85542,note_on,0,0,0,,12,,,83,127
85649,note_off,107,0,0,,2,,,62,127
85651,note_on,2,0,0,,6,,,66,127
85758,note_off,107,0,0,,6,,,66,127
85758,note_off,0,0,0,,12,,,83,127
85762,note_on,4,0,0,,12,,,59,127
85762,note_on,0,0,0,,2,,,86,127
85869,note_off,107,0,0,,12,,,59,127
85871,note_on,2,0,0,,6,,,66,127
85978,note_off,107,0,0,,6,,,66,127
85980,note_on,2,0,0,,6,,,54,127
86087,note_off,107,0,0,,6,,,54,127
86091,note_on,4,0,0,,6,,,66,127
86198,note_off,107,0,0,,6,,,66,127
86198,note_off,0,0,0,,2,,,86,127
86200,note_on,2,0,0,,11,,,58,127
86200,note_on,0,0,0,,1,,,85,127
86307,note_off,107,0,0,,11,,,58,127
86311,note_on,4,0,0,,6,,,66,127
86417,note_off,106,0,0,,1,,,85,127
86418,note_off,1,0,0,,6,,,66,127
86420,note_on,2,0,0,,6,,,54,127
86420,note_on,0,0,0,,4,,,76,127
86527,note_off,107,0,0,,6,,,54,127
86531,note_on,4,0,0,,6,,,66,127
86637,note_off,106,0,0,,4,,,76,127
86638,note_off,1,0,0,,6,,,66,127
86640,note_on,2,0,0,,12,,,59,127
86640,note_on,0,0,0,,2,,,74,127
86747,note_off,107,0,0,,12,,,59,127
86749,note_on,2,0,0,,6,,,66,127
86856,note_off,107,0,0,,6,,,66,127
86856,note_off,0,0,0,,2,,,74,127
86860,note_on,4,0,0,,2,,,62,127
86860,note_on,0,0,0,,6,,,78,127
86967,note_off,107,0,0,,2,,,62,127
86969,note_on,2,0,0,,6,,,66,127
87076,note_off,107,0,0,,6,,,66,127
87076,note_off,0,0,0,,6,,,78,127
87080,note_on,4,0,0,,12,,,59,127
87080,note_on,0,0,0,,12,,,83,127
87187,note_off,107,0,0,,12,,,59,127
87189,note_on,2,0,0,,6,,,66,127
87296,note_off,107,0,0,,6,,,66,127
87296,note_off,0,0,0,,12,,,83,127
87300,note_on,4,0,0,,4,,,52,127
87300,note_on,0,0,0,,7,,,79,127
87407,note_off,107,0,0,,4,,,52,127
87409,note_on,2,0,0,,4,,,64,127
87516,note_off,107,0,0,,4,,,64,127
87516,note_off,0,0,0,,7,,,79,127
87518,note_on,2,0,0,,1,,,61,127
87518,note_on,0,0,0,,4,,,76,127
87625,note_off,107,0,0,,1,,,61,127
87629,note_on,4,0,0,,4,,,64,127
87735,note_off,106,0,0,,4,,,76,127
87736,note_off,1,0,0,,4,,,64,127
87738,note_on,2,0,0,,10,,,57,127
87738,note_on,0,0,0,,10,,,81,127
87845,note_off,107,0,0,,10,,,57,127
87849,note_on,4,0,0,,1,,,61,127
87955,note_off,106,0,0,,10,,,81,127
87956,note_off,1,0,0,,1,,,61,127
87958,note_on,2,0,0,,2,,,50,127
87958,note_on,0,0,0,,6,,,78,127
88065,note_off,107,0,0,,2,,,50,127
88069,note_on,4,0,0,,2,,,62,127
88175,note_off,106,0,0,,6,,,78,127
88176,note_off,1,0,0,,2,,,62,127
88178,note_on,2,0,0,,12,,,59,127
88178,note_on,0,0,0,,2,,,74,127
88285,note_off,107,0,0,,12,,,59,127
88287,note_on,2,0,0,,2,,,62,127
88394,note_off,107,0,0,,2,,,62,127
88394,note_off,0,0,0,,2,,,74,127
88398,note_on,4,0,0,,7,,,55,127
88398,note_on,0,0,0,,7,,,79,127
88505,note_off,107,0,0,,7,,,55,127
88507,note_on,2,0,0,,12,,,59,127
88614,note_off,107,0,0,,12,,,59,127
88614,note_off,0,0,0,,7,,,79,127
88618,note_on,4,0,0,,1,,,49,127
88618,note_on,0,0,0,,4,,,76,127
88725,note_off,107,0,0,,1,,,49,127
88727,note_on,2,0,0,,1,,,61,127
88834,note_off,107,0,0,,1,,,61,127
88834,note_off,0,0,0,,4,,,76,127
88838,note_on,4,0,0,,11,,,58,127
88838,note_on,0,0,0,,1,,,73,127
88945,note_off,107,0,0,,11,,,58,127
88947,note_on,2,0,0,,1,,,61,127
89054,note_off,107,0,0,,1,,,61,127
89054,note_off,0,0,0,,1,,,73,127
89056,note_on,2,0,0,,6,,,54,127
89056,note_on,0,0,0,,6,,,78,127
89163,note_off,107,0,0,,6,,,54,127
89167,note_on,4,0,0,,11,,,58,127
89273,note_off,106,0,0,,6,,,78,127
89274,note_off,1,0,0,,11,,,58,127
89276,note_on,2,0,0,,12,,,47,127
89276,note_on,0,0,0,,2,,,74,127
89383,note_off,107,0,0,,12,,,47,127
89387,note_on,4,0,0,,12,,,59,127
89493,note_off,106,0,0,,2,,,74,127
89494,note_off,1,0,0,,12,,,59,127
89496,note_on,2,0,0,,7,,,55,127
89496,note_on,0,0,0,,7,,,79,127
89603,note_off,107,0,0,,7,,,55,127
89607,note_on,4,0,0,,12,,,59,127
89713,note_off,106,0,0,,7,,,79,127
89714,note_off,1,0,0,,12,,,59,127
89716,note_on,2,0,0,,4,,,52,127
89716,note_on,0,0,0,,4,,,76,127
89823,note_off,107,0,0,,4,,,52,127
89825,note_on,2,0,0,,7,,,55,127
89932,note_off,107,0,0,,7,,,55,127
89932,note_off,0,0,0,,4,,,76,127
89936,note_on,4,0,0,,10,,,45,127
89936,note_on,0,0,0,,1,,,73,127
90043,note_off,107,0,0,,10,,,45,127
90045,note_on,2,0,0,,10,,,57,127
90152,note_off,107,0,0,,10,,,57,127
90152,note_off,0,0,0,,1,,,73,127
90156,note_on,4,0,0,,6,,,54,127
90156,note_on,0,0,0,,6,,,78,127
90263,note_off,107,0,0,,6,,,54,127
90265,note_on,2,0,0,,10,,,57,127
90372,note_off,107,0,0,,10,,,57,127
90372,note_off,0,0,0,,6,,,78,127
90376,note_on,4,0,0,,2,,,50,127
90376,note_on,0,0,0,,2,,,74,127
90483,note_off,107,0,0,,2,,,50,127
90485,note_on,2,0,0,,6,,,54,127
90592,note_off,107,0,0,,6,,,54,127
90592,note_off,0,0,0,,2,,,74,127
90594,note_on,2,0,0,,7,,,43,127
90594,note_on,0,0,0,,12,,,71,127
90701,note_off,107,0,0,,7,,,43,127
90705,note_on,4,0,0,,7,,,55,127
90811,note_off,106,0,0,,12,,,71,127
90812,note_off,1,0,0,,7,,,55,127
90814,note_on,2,0,0,,4,,,52,127
90814,note_on,0,0,0,,4,,,76,127
90921,note_off,107,0,0,,4,,,52,127
90925,note_on,4,0,0,,7,,,55,127
91031,note_off,106,0,0,,4,,,76,127
91032,note_off,1,0,0,,7,,,55,127
91034,note_on,2,0,0,,1,,,49,127
91034,note_on,0,0,0,,1,,,73,127
91141,note_off,107,0,0,,1,,,49,127
91145,note_on,4,0,0,,4,,,52,127
91251,note_off,106,0,0,,1,,,73,127
91252,note_off,1,0,0,,4,,,52,127
91254,note_on,2,0,0,,6,,,42,127
91254,note_on,0,0,0,,11,,,70,127
91361,note_off,107,0,0,,6,,,42,127
91363,note_on,2,0,0,,6,,,54,127
91470,note_off,107,0,0,,6,,,54,127
91470,note_off,0,0,0,,11,,,70,127
91474,note_on,4,0,0,,11,,,46,127
91474,note_on,0,0,0,,1,,,73,127
91581,note_off,107,0,0,,11,,,46,127
91583,note_on,2,0,0,,6,,,54,127
91690,note_off,107,0,0,,6,,,54,127
91690,note_off,0,0,0,,1,,,73,127
91694,note_on,4,0,0,,6,,,42,127
91694,note_on,0,0,0,,1,,,61,127
91801,note_off,107,0,0,,6,,,42,127
91803,note_on,2,0,0,,6,,,54,127
91910,note_off,107,0,0,,6,,,54,127
91910,note_off,0,0,0,,1,,,61,127
91914,note_on,4,0,0,,12,,,47,127
91914,note_on,0,0,0,,2,,,62,127
92021,note_off,107,0,0,,12,,,47,127
92023,note_on,2,0,0,,6,,,54,127
92130,note_off,107,0,0,,6,,,54,127
92132,note_on,2,0,0,,2,,,50,127
92132,note_on,0,0,0,,12,,,71,127
92239,note_off,107,0,0,,2,,,50,127
92243,note_off,4,0,0,,2,,,62,127
92243,note_on,0,0,0,,6,,,54,127
92349,note_off,106,0,0,,12,,,71,127
92350,note_off,1,0,0,,6,,,54,127
92352,note_on,2,0,0,,12,,,47,127
92352,note_on,0,0,0,,4,,,64,127
92459,note_off,107,0,0,,12,,,47,127
92463,note_on,4,0,0,,6,,,54,127
92569,note_off,106,0,0,,4,,,64,127
92570,note_off,1,0,0,,6,,,54,127
92572,note_on,2,0,0,,6,,,42,127
92572,note_on,0,0,0,,6,,,66,127
92679,note_off,107,0,0,,6,,,42,127
92683,note_on,4,0,0,,6,,,54,127
92790,note_off,107,0,0,,6,,,54,127
92792,note_on,2,0,0,,11,,,46,127
92792,note_on,0,0,0,,1,,,73,127
92899,note_off,107,0,0,,11,,,46,127
92901,note_off,2,0,0,,6,,,66,127
92901,note_on,0,0,0,,6,,,54,127
93008,note_off,107,0,0,,6,,,54,127
93008,note_off,0,0,0,,1,,,73,127
93012,note_on,4,0,0,,6,,,42,127
93012,note_on,0,0,0,,1,,,61,127
93119,note_off,107,0,0,,6,,,42,127
93121,note_on,2,0,0,,6,,,54,127
93228,note_off,107,0,0,,6,,,54,127
93228,note_off,0,0,0,,1,,,61,127
93232,note_on,4,0,0,,12,,,47,127
93232,note_on,0,0,0,,2,,,62,127
93339,note_off,107,0,0,,12,,,47,127
93341,note_on,2,0,0,,6,,,54,127
93448,note_off,107,0,0,,6,,,54,127
93452,note_on,4,0,0,,2,,,50,127
93452,note_on,0,0,0,,12,,,71,127
93559,note_off,107,0,0,,2,,,50,127
93561,note_off,2,0,0,,2,,,62,127
93561,note_on,0,0,0,,6,,,54,127
93668,note_off,107,0,0,,6,,,54,127
93668,note_off,0,0,0,,12,,,71,127
93670,note_on,2,0,0,,12,,,47,127
93670,note_on,0,0,0,,4,,,64,127
93777,note_off,107,0,0,,12,,,47,127
93781,note_on,4,0,0,,6,,,54,127
93887,note_off,106,0,0,,4,,,64,127
93888,note_off,1,0,0,,6,,,54,127
93890,note_on,2,0,0,,6,,,42,127
93890,note_on,0,0,0,,6,,,66,127
93997,note_off,107,0,0,,6,,,42,127
94001,note_on,4,0,0,,6,,,54,127
94108,note_off,107,0,0,,6,,,54,127
94110,note_on,2,0,0,,4,,,40,127
94110,note_on,0,0,0,,11,,,70,127
94110,note_on,0,0,0,,1,,,73,127
94217,note_off,107,0,0,,4,,,40,127
94221,note_on,4,0,0,,4,,,52,127
94324,note_off,103,0,0,,6,,,66,127
94326,note_off,2,0,0,,1,,,73,127
94326,note_off,0,0,0,,11,,,70,127
94327,note_off,1,0,0,,4,,,52,127
94329,note_on,2,0,0,,2,,,50,127
94329,note_on,0,0,0,,12,,,71,127
94329,note_on,0,0,0,,2,,,74,127
94436,note_off,107,0,0,,2,,,50,127
94438,note_on,2,0,0,,12,,,59,127
94545,note_off,107,0,0,,12,,,59,127
94545,note_off,0,0,0,,2,,,74,127
94545,note_off,0,0,0,,12,,,71,127
94549,note_on,4,0,0,,4,,,52,127
94549,note_on,0,0,0,,12,,,59,127
94549,note_on,0,0,0,,1,,,73,127
94620,note_off,71,0,0,,1,,,73,127
94622,note_on,2,0,0,,2,,,74,127
94693,note_off,71,0,0,,2,,,74,127
94695,note_on,2,0,0,,4,,,76,127
94765,note_off,70,0,0,,12,,,59,127
94765,note_off,0,0,0,,4,,,52,127
94766,note_off,1,0,0,,4,,,76,127
94768,note_on,2,0,0,,6,,,54,127
94768,note_on,0,0,0,,12,,,59,127
94768,note_on,0,0,0,,2,,,62,127
94768,note_on,0,0,0,,2,,,74,127
94875,note_off,107,0,0,,2,,,74,127
94877,note_on,2,0,0,,12,,,71,127
94984,note_off,107,0,0,,12,,,71,127
94984,note_off,0,0,0,,2,,,62,127
94984,note_off,0,0,0,,12,,,59,127
94988,note_on,4,0,0,,1,,,61,127
94988,note_on,0,0,0,,1,,,73,127
95095,note_off,107,0,0,,1,,,73,127
95097,note_on,2,0,0,,11,,,70,127
95201,note_off,104,0,0,,6,,,54,127
95203,note_off,2,0,0,,11,,,70,127
95203,note_off,0,0,0,,1,,,61,127
95205,note_on,2,0,0,,12,,,47,127
95205,note_on,0,0,0,,2,,,74,127
95312,note_off,107,0,0,,12,,,47,127
95316,note_on,4,0,0,,12,,,59,127
95422,note_off,106,0,0,,2,,,74,127
95423,note_off,1,0,0,,12,,,59,127
95425,note_on,2,0,0,,10,,,45,127
95425,note_on,0,0,0,,1,,,73,127
95532,note_off,107,0,0,,10,,,45,127
95536,note_on,4,0,0,,10,,,57,127
95642,note_off,106,0,0,,1,,,73,127
95643,note_off,1,0,0,,10,,,57,127
95645,note_on,2,0,0,,7,,,43,127
95645,note_on,0,0,0,,12,,,71,127
95752,note_off,107,0,0,,7,,,43,127
95756,note_on,4,0,0,,7,,,55,127
95862,note_off,106,0,0,,12,,,71,127
95863,note_off,1,0,0,,7,,,55,127
95865,note_on,2,0,0,,6,,,42,127
95865,note_on,0,0,0,,11,,,70,127
95972,note_off,107,0,0,,6,,,42,127
95974,note_on,2,0,0,,6,,,54,127
96081,note_off,107,0,0,,6,,,54,127
96085,note_on,4,0,0,,11,,,46,127
96085,note_on,0,0,0,,1,,,73,127
96192,note_off,107,0,0,,11,,,46,127
96194,note_off,2,0,0,,11,,,70,127
96194,note_on,0,0,0,,6,,,54,127
96301,note_off,107,0,0,,6,,,54,127
96301,note_off,0,0,0,,1,,,73,127
96305,note_on,4,0,0,,6,,,42,127
96305,note_on,0,0,0,,1,,,61,127
96412,note_off,107,0,0,,6,,,42,127
96414,note_on,2,0,0,,6,,,54,127
96521,note_off,107,0,0,,6,,,54,127
96521,note_off,0,0,0,,1,,,61,127
96525,note_on,4,0,0,,12,,,47,127
96525,note_on,0,0,0,,2,,,62,127
96632,note_off,107,0,0,,12,,,47,127
96634,note_on,2,0,0,,6,,,54,127
96741,note_off,107,0,0,,6,,,54,127
96743,note_on,2,0,0,,2,,,50,127
96743,note_on,0,0,0,,12,,,71,127
96850,note_off,107,0,0,,2,,,50,127
96854,note_on,4,0,0,,6,,,54,127
96958,note_off,104,0,0,,2,,,62,127
96959,note_off,1,0,0,,12,,,71,127
96960,note_off,1,0,0,,6,,,54,127
96962,note_on,2,0,0,,12,,,47,127
96962,note_on,0,0,0,,4,,,64,127
97069,note_off,107,0,0,,12,,,47,127
97073,note_on,4,0,0,,6,,,54,127
97179,note_off,106,0,0,,4,,,64,127
97180,note_off,1,0,0,,6,,,54,127
97182,note_on,2,0,0,,6,,,42,127
97182,note_on,0,0,0,,6,,,66,127
97289,note_off,107,0,0,,6,,,42,127
97293,note_on,4,0,0,,6,,,54,127
97400,note_off,107,0,0,,6,,,54,127
97402,note_on,2,0,0,,11,,,46,127
97402,note_on,0,0,0,,1,,,73,127
97509,note_off,107,0,0,,11,,,46,127
97511,note_on,2,0,0,,6,,,54,127
97615,note_off,104,0,0,,6,,,66,127
97617,note_off,2,0,0,,6,,,54,127
97617,note_off,0,0,0,,1,,,73,127
97621,note_on,4,0,0,,6,,,42,127
97621,note_on,0,0,0,,1,,,61,127
97728,note_off,107,0,0,,6,,,42,127
97730,note_on,2,0,0,,6,,,54,127
97837,note_off,107,0,0,,6,,,54,127
97837,note_off,0,0,0,,1,,,61,127
97841,note_on,4,0,0,,12,,,47,127
97841,note_on,0,0,0,,2,,,62,127
97948,note_off,107,0,0,,12,,,47,127
97950,note_on,2,0,0,,6,,,54,127
98057,note_off,107,0,0,,6,,,54,127
98061,note_on,4,0,0,,2,,,50,127
98061,note_on,0,0,0,,12,,,71,127
98168,note_off,107,0,0,,2,,,50,127
98170,note_on,2,0,0,,6,,,54,127
98274,note_off,104,0,0,,2,,,62,127
98276,note_off,2,0,0,,6,,,54,127
98276,note_off,0,0,0,,12,,,71,127
98278,note_on,2,0,0,,12,,,47,127
98278,note_on,0,0,0,,4,,,64,127
98385,note_off,107,0,0,,12,,,47,127
98389,note_on,4,0,0,,6,,,54,127
98495,note_off,106,0,0,,4,,,64,127
98496,note_off,1,0,0,,6,,,54,127
98498,note_on,2,0,0,,6,,,42,127
98498,note_on,0,0,0,,6,,,66,127
98605,note_off,107,0,0,,6,,,42,127
98609,note_on,4,0,0,,6,,,54,127
98716,note_off,107,0,0,,6,,,54,127
98718,note_on,2,0,0,,4,,,40,127
98718,note_on,0,0,0,,11,,,70,127
98718,note_on,0,0,0,,1,,,73,127
98825,note_off,107,0,0,,4,,,40,127
98829,note_on,4,0,0,,4,,,52,127
98935,note_off,106,0,0,,1,,,73,127
98935,note_off,0,0,0,,11,,,70,127
98936,note_off,1,0,0,,4,,,52,127
98938,note_on,2,0,0,,2,,,50,127
98938,note_on,0,0,0,,2,,,74,127
98938,note_on,0,0,0,,12,,,71,127
99045,note_off,107,0,0,,2,,,50,127
99047,note_on,2,0,0,,12,,,59,127
99154,note_off,107,0,0,,12,,,59,127
99154,note_off,0,0,0,,12,,,71,127
99154,note_off,0,0,0,,2,,,74,127
99155,note_off,1,0,0,,6,,,66,127
99157,note_on,2,0,0,,12,,,59,127
99157,note_on,0,0,0,,4,,,52,127
99157,note_on,0,0,0,,1,,,73,127
99228,note_off,71,0,0,,1,,,73,127
99230,note_on,2,0,0,,2,,,74,127
99301,note_off,71,0,0,,2,,,74,127
99303,note_on,2,0,0,,4,,,76,127
99373,note_off,70,0,0,,4,,,52,127
99373,note_off,0,0,0,,12,,,59,127
99374,note_off,1,0,0,,4,,,76,127
99376,note_on,2,0,0,,12,,,59,127
99376,note_on,0,0,0,,6,,,54,127
99376,note_on,0,0,0,,2,,,62,127
99376,note_on,0,0,0,,2,,,74,127
99483,note_off,107,0,0,,2,,,74,127
99485,note_on,2,0,0,,12,,,71,127
99592,note_off,107,0,0,,12,,,71,127
99592,note_off,0,0,0,,2,,,62,127
99592,note_off,0,0,0,,12,,,59,127
99596,note_on,4,0,0,,1,,,61,127
99596,note_on,0,0,0,,1,,,73,127
99703,note_off,107,0,0,,1,,,73,127
99705,note_on,2,0,0,,11,,,70,127
99809,note_off,104,0,0,,6,,,54,127
99811,note_off,2,0,0,,11,,,70,127
99811,note_off,0,0,0,,1,,,61,127
99813,note_on,2,0,0,,12,,,59,127
99813,note_on,0,0,0,,12,,,47,127
99813,note_on,0,0,0,,12,,,71,127
100029,note_off,216,0,0,,12,,,71,127
100029,note_off,0,0,0,,12,,,47,127
100033,note_on,4,0,0,,1,,,49,127
100033,note_on,0,0,0,,12,,,83,127
100033,note_on,0,0,0,,12,,,71,127
100249,note_off,216,0,0,,1,,,49,127
100253,note_on,4,0,0,,2,,,50,127
100469,note_off,216,0,0,,2,,,50,127
100473,note_on,4,0,0,,4,,,52,127
100689,note_off,216,0,0,,12,,,71,127
100689,note_off,0,0,0,,12,,,83,127
100693,note_on,4,0,0,,10,,,81,127
100693,note_on,0,0,0,,7,,,79,127
100909,note_off,216,0,0,,7,,,79,127
100909,note_off,0,0,0,,10,,,81,127
100909,note_off,0,0,0,,4,,,52,127
100913,note_on,4,0,0,,6,,,54,127
100913,note_on,0,0,0,,6,,,78,127
101129,note_off,216,0,0,,6,,,78,127
101129,note_off,0,0,0,,6,,,54,127
101129,note_off,0,0,0,,12,,,59,127
101133,note_on,4,0,0,,7,,,55,127
101133,note_on,0,0,0,,12,,,59,127
101133,note_on,0,0,0,,2,,,74,127
101133,note_on,0,0,0,,12,,,71,127
101133,note_on,0,0,0,,4,,,76,127
101349,note_off,216,0,0,,4,,,76,127
101349,note_off,0,0,0,,12,,,71,127
101349,note_off,0,0,0,,2,,,74,127
101351,note_on,2,0,0,,1,,,73,127
101567,note_off,216,0,0,,1,,,73,127
101568,note_off,1,0,0,,7,,,55,127
101570,note_on,2,0,0,,2,,,50,127
101570,note_on,0,0,0,,12,,,71,127
101570,note_on,0,0,0,,12,,,83,127
101786,note_off,216,0,0,,2,,,50,127
101788,note_off,2,0,0,,12,,,59,127
101789,note_on,1,0,0,,4,,,52,127
101789,note_on,0,0,0,,12,,,59,127
102005,note_off,216,0,0,,12,,,83,127
102005,note_off,0,0,0,,12,,,71,127
102009,note_on,4,0,0,,7,,,79,127
102009,note_on,0,0,0,,10,,,81,127
102225,note_off,216,0,0,,10,,,81,127
102225,note_off,0,0,0,,7,,,79,127
102225,note_off,0,0,0,,4,,,52,127
102229,note_on,4,0,0,,6,,,54,127
102229,note_on,0,0,0,,6,,,78,127
102445,note_off,216,0,0,,6,,,78,127
102445,note_off,0,0,0,,6,,,54,127
102446,note_off,1,0,0,,12,,,59,127
102448,note_on,2,0,0,,7,,,55,127
102448,note_on,0,0,0,,12,,,59,127
102448,note_on,0,0,0,,12,,,71,127
102448,note_on,0,0,0,,4,,,76,127
102448,note_on,0,0,0,,2,,,74,127
102664,note_off,216,0,0,,2,,,74,127
102664,note_off,0,0,0,,4,,,76,127
102664,note_off,0,0,0,,12,,,71,127
102668,note_on,4,0,0,,1,,,73,127
102884,note_off,216,0,0,,1,,,73,127
102884,note_off,0,0,0,,7,,,55,127
102886,note_on,2,0,0,,6,,,54,127
102886,note_on,0,0,0,,2,,,74,127
102886,note_on,0,0,0,,12,,,71,127
103102,note_off,216,0,0,,12,,,71,127
103102,note_off,0,0,0,,2,,,74,127
103102,note_off,0,0,0,,6,,,54,127
103106,note_on,4,0,0,,4,,,52,127
103106,note_on,0,0,0,,12,,,71,127
103106,note_on,0,0,0,,4,,,76,127
103177,note_off,71,0,0,,4,,,76,127
103179,note_on,2,0,0,,2,,,74,127
103250,note_off,71,0,0,,2,,,74,127
103252,note_on,2,0,0,,1,,,73,127
103322,note_off,70,0,0,,4,,,52,127
103323,note_off,1,0,0,,1,,,73,127
103324,note_off,1,0,0,,12,,,59,127
103325,note_on,1,0,0,,6,,,54,127
103325,note_on,0,0,0,,12,,,59,127
103325,note_on,0,0,0,,2,,,62,127
103325,note_on,0,0,0,,2,,,74,127
103539,note_off,214,0,0,,12,,,71,127
103541,note_off,2,0,0,,2,,,74,127
103541,note_off,0,0,0,,2,,,62,127
103541,note_off,0,0,0,,12,,,59,127
103545,note_on,4,0,0,,4,,,64,127
103545,note_on,0,0,0,,1,,,61,127
103545,note_on,0,0,0,,11,,,70,127
103545,note_on,0,0,0,,1,,,73,127
103759,note_off,214,0,0,,6,,,54,127
103761,note_off,2,0,0,,1,,,73,127
103761,note_off,0,0,0,,11,,,70,127
103761,note_off,0,0,0,,1,,,61,127
103761,note_off,0,0,0,,4,,,64,127
103765,note_on,4,0,0,,12,,,47,127
103765,note_on,0,0,0,,12,,,59,127
103765,note_on,0,0,0,,12,,,71,127
103981,note_off,216,0,0,,12,,,71,127
103981,note_off,0,0,0,,12,,,47,127
103985,note_on,4,0,0,,1,,,49,127
103985,note_on,0,0,0,,12,,,83,127
103985,note_on,0,0,0,,12,,,71,127
104201,note_off,216,0,0,,1,,,49,127
104205,note_on,4,0,0,,2,,,50,127
104421,note_off,216,0,0,,2,,,50,127
104423,note_on,2,0,0,,4,,,52,127
104640,note_off,217,0,0,,12,,,71,127
104640,note_off,0,0,0,,12,,,83,127
104642,note_on,2,0,0,,10,,,81,127
104642,note_on,0,0,0,,7,,,79,127
104858,note_off,216,0,0,,7,,,79,127
104858,note_off,0,0,0,,10,,,81,127
104858,note_off,0,0,0,,4,,,52,127
104862,note_on,4,0,0,,6,,,54,127
104862,note_on,0,0,0,,6,,,78,127
105078,note_off,216,0,0,,6,,,78,127
105078,note_off,0,0,0,,6,,,54,127
105079,note_off,1,0,0,,12,,,59,127
105081,note_on,2,0,0,,7,,,55,127
105081,note_on,0,0,0,,12,,,59,127
105081,note_on,0,0,0,,2,,,74,127
105081,note_on,0,0,0,,12,,,71,127
105081,note_on,0,0,0,,4,,,76,127
105297,note_off,216,0,0,,4,,,76,127
105297,note_off,0,0,0,,12,,,71,127
105297,note_off,0,0,0,,2,,,74,127
105301,note_on,4,0,0,,1,,,73,127
105517,note_off,216,0,0,,1,,,73,127
105517,note_off,0,0,0,,7,,,55,127
105521,note_on,4,0,0,,2,,,50,127
105521,note_on,0,0,0,,12,,,83,127
105521,note_on,0,0,0,,12,,,71,127
105737,note_off,216,0,0,,2,,,50,127
105738,note_off,1,0,0,,12,,,59,127
105740,note_on,2,0,0,,4,,,52,127
105740,note_on,0,0,0,,12,,,59,127
105956,note_off,216,0,0,,12,,,71,127
105956,note_off,0,0,0,,12,,,83,127
105958,note_on,2,0,0,,10,,,81,127
105958,note_on,0,0,0,,7,,,79,127
106174,note_off,216,0,0,,7,,,79,127
106174,note_off,0,0,0,,10,,,81,127
106175,note_off,1,0,0,,4,,,52,127
106177,note_on,2,0,0,,6,,,54,127
106177,note_on,0,0,0,,6,,,78,127
106393,note_off,216,0,0,,6,,,78,127
106393,note_off,0,0,0,,6,,,54,127
106395,note_off,2,0,0,,12,,,59,127
106396,note_on,1,0,0,,7,,,55,127
106396,note_on,0,0,0,,12,,,59,127
106396,note_on,0,0,0,,12,,,71,127
106396,note_on,0,0,0,,4,,,76,127
106396,note_on,0,0,0,,2,,,74,127
106612,note_off,216,0,0,,2,,,74,127
106612,note_off,0,0,0,,4,,,76,127
106612,note_off,0,0,0,,12,,,71,127
106616,note_on,4,0,0,,1,,,73,127
106832,note_off,216,0,0,,1,,,73,127
106832,note_off,0,0,0,,7,,,55,127
106836,note_on,4,0,0,,6,,,54,127
106836,note_on,0,0,0,,2,,,74,127
106836,note_on,0,0,0,,12,,,71,127
107052,note_off,216,0,0,,12,,,71,127
107052,note_off,0,0,0,,2,,,74,127
107052,note_off,0,0,0,,6,,,54,127
107056,note_on,4,0,0,,4,,,52,127
107056,note_on,0,0,0,,12,,,71,127
107056,note_on,0,0,0,,4,,,76,127
107127,note_off,71,0,0,,4,,,76,127
107129,note_on,2,0,0,,2,,,74,127
107200,note_off,71,0,0,,2,,,74,127
107202,note_on,2,0,0,,1,,,73,127
107272,note_off,70,0,0,,4,,,52,127
107273,note_off,1,0,0,,1,,,73,127
107273,note_off,0,0,0,,12,,,59,127
107275,note_on,2,0,0,,6,,,54,127
107275,note_on,0,0,0,,12,,,59,127
107275,note_on,0,0,0,,2,,,62,127
107275,note_on,0,0,0,,2,,,74,127
107489,note_off,214,0,0,,12,,,71,127
107491,note_off,2,0,0,,2,,,74,127
107491,note_off,0,0,0,,2,,,62,127
107491,note_off,0,0,0,,12,,,59,127
107493,note_on,2,0,0,,1,,,61,127
107493,note_on,0,0,0,,4,,,64,127
107493,note_on,0,0,0,,1,,,73,127
107493,note_on,0,0,0,,11,,,70,127
107708,note_off,215,0,0,,6,,,54,127
107709,note_off,1,0,0,,11,,,70,127
107709,note_off,0,0,0,,1,,,73,127
107709,note_off,0,0,0,,4,,,64,127
107709,note_off,0,0,0,,1,,,61,127
107713,note_on,4,0,0,,12,,,59,127
107713,note_on,0,0,0,,12,,,47,127
107713,note_on,0,0,0,,12,,,71,127
107823,note_on,110,0,0,,12,,,83,127
107929,note_off,106,0,0,,12,,,71,127
107929,note_off,0,0,0,,12,,,47,127
107930,note_off,1,0,0,,12,,,83,127
107932,note_on,2,0,0,,1,,,49,127
107932,note_on,0,0,0,,6,,,78,127
108039,note_off,107,0,0,,6,,,78,127
108043,note_on,4,0,0,,2,,,74,127
108149,note_off,106,0,0,,1,,,49,127
108150,note_off,1,0,0,,2,,,74,127
108152,note_on,2,0,0,,2,,,50,127
108152,note_on,0,0,0,,12,,,71,127
108259,note_off,107,0,0,,12,,,71,127
108261,note_on,2,0,0,,6,,,78,127
108368,note_off,107,0,0,,6,,,78,127
108368,note_off,0,0,0,,2,,,50,127
108369,note_off,1,0,0,,12,,,59,127
108371,note_on,2,0,0,,4,,,52,127
108371,note_on,0,0,0,,7,,,79,127
108478,note_off,107,0,0,,7,,,79,127
108480,note_on,2,0,0,,7,,,79,127
108587,note_off,107,0,0,,7,,,79,127
108587,note_off,0,0,0,,4,,,52,127
108591,note_on,4,0,0,,6,,,54,127
108591,note_on,0,0,0,,6,,,78,127
108698,note_off,107,0,0,,6,,,78,127
108700,note_on,2,0,0,,4,,,76,127
108807,note_off,107,0,0,,4,,,76,127
108811,note_on,4,0,0,,6,,,42,127
108811,note_on,0,0,0,,2,,,74,127
108918,note_off,107,0,0,,2,,,74,127
108920,note_on,2,0,0,,1,,,73,127
109024,note_off,104,0,0,,6,,,54,127
109026,note_off,2,0,0,,1,,,73,127
109026,note_off,0,0,0,,6,,,42,127
109028,note_on,2,0,0,,12,,,47,127
109138,note_on,110,0,0,,12,,,71,127
109244,note_off,106,0,0,,12,,,47,127
109245,note_off,1,0,0,,12,,,71,127
109247,note_on,2,0,0,,1,,,49,127
109247,note_on,0,0,0,,6,,,66,127
109354,note_off,107,0,0,,6,,,66,127
109358,note_on,4,0,0,,2,,,62,127
109464,note_off,106,0,0,,1,,,49,127
109465,note_off,1,0,0,,2,,,62,127
109467,note_on,2,0,0,,2,,,50,127
109467,note_on,0,0,0,,12,,,59,127
109574,note_off,107,0,0,,12,,,59,127
109578,note_on,4,0,0,,6,,,66,127
109684,note_off,106,0,0,,2,,,50,127
109685,note_off,1,0,0,,6,,,66,127
109687,note_on,2,0,0,,4,,,52,127
109687,note_on,0,0,0,,7,,,67,127
109794,note_off,107,0,0,,7,,,67,127
109796,note_on,2,0,0,,7,,,67,127
109903,note_off,107,0,0,,7,,,67,127
109903,note_off,0,0,0,,4,,,52,127
109907,note_on,4,0,0,,6,,,54,127
109907,note_on,0,0,0,,6,,,66,127
110014,note_off,107,0,0,,6,,,66,127
110016,note_on,2,0,0,,4,,,64,127
110123,note_off,107,0,0,,4,,,64,127
110127,note_on,4,0,0,,6,,,42,127
110127,note_on,0,0,0,,2,,,62,127
110234,note_off,107,0,0,,2,,,62,127
110236,note_on,2,0,0,,1,,,61,127
110340,note_off,104,0,0,,6,,,54,127
110342,note_off,2,0,0,,1,,,61,127
110342,note_off,0,0,0,,6,,,42,127
110346,note_on,4,0,0,,12,,,47,127
110346,note_on,0,0,0,,12,,,59,127
110562,note_off,216,0,0,,12,,,59,127
110564,note_on,2,0,0,,2,,,62,127
110672,note_off,108,0,0,,12,,,47,127
110674,note_on,2,0,0,,12,,,47,127
110780,note_off,106,0,0,,2,,,62,127
110781,note_off,1,0,0,,12,,,47,127
110783,note_on,2,0,0,,2,,,50,127
110783,note_on,0,0,0,,6,,,66,127
110890,note_off,107,0,0,,2,,,50,127
110894,note_on,4,0,0,,6,,,54,127
111001,note_off,107,0,0,,6,,,54,127
111003,note_on,2,0,0,,12,,,59,127
111110,note_off,107,0,0,,6,,,66,127
111114,note_on,4,0,0,,2,,,62,127
111221,note_off,107,0,0,,2,,,62,127
111223,note_on,2,0,0,,6,,,66,127
111330,note_off,107,0,0,,6,,,66,127
111330,note_off,0,0,0,,12,,,59,127
111332,note_on,2,0,0,,6,,,54,127
111332,note_on,0,0,0,,12,,,71,127
111439,note_off,107,0,0,,12,,,71,127
111439,note_off,0,0,0,,6,,,54,127
111443,note_on,4,0,0,,2,,,50,127
111443,note_on,0,0,0,,2,,,74,127
111550,note_off,107,0,0,,2,,,74,127
111550,note_off,0,0,0,,2,,,50,127
111552,note_on,2,0,0,,12,,,47,127
111552,note_on,0,0,0,,6,,,78,127
111659,note_off,107,0,0,,6,,,78,127
111659,note_off,0,0,0,,12,,,47,127
111681,note_on,22,0,0,,12,,,83,127
111681,note_on,0,0,0,,12,,,35,127
113326,note_off,1645,0,0,,12,,,35,127
113326,note_off,0,0,0,,12,,,83,127
118272,end_of_track,4946,1,0,,,,,,
