tick,type,time,meta,track,program,channel,pitch,tempo,note,velocity
0,copyright,0,1,0,,,,,,
0,program_change,0,0,0,6,0,,,,
0,pitchwheel,0,0,0,,0,0,,,
0,program_change,0,0,0,6,1,,,,
0,pitchwheel,0,0,0,,1,-590,,,
0,program_change,0,0,0,6,2,,,,
0,pitchwheel,0,0,0,,2,-272,,,
0,program_change,0,0,0,6,3,,,,
0,pitchwheel,0,0,0,,3,-353,,,
0,program_change,0,0,0,6,4,,,,
0,pitchwheel,0,0,0,,4,-560,,,
0,program_change,0,0,0,6,5,,,,
0,pitchwheel,0,0,0,,5,-80,,,
0,program_change,0,0,0,6,6,,,,
0,pitchwheel,0,0,0,,6,-625,,,
0,program_change,0,0,0,6,7,,,,
0,pitchwheel,0,0,0,,7,-130,,,
0,program_change,0,0,0,6,8,,,,
0,pitchwheel,0,0,0,,8,-512,,,
0,program_change,0,0,0,6,10,,,,
0,pitchwheel,0,0,0,,10,-464,,,
0,program_change,0,0,0,6,11,,,,
0,pitchwheel,0,0,0,,11,-208,,,
0,program_change,0,0,0,6,12,,,,
0,pitchwheel,0,0,0,,12,-553,,,
0,set_tempo,0,1,0,,,,500000,,
103,note_on,103,0,0,,11,,,70,127
103,note_on,0,0,0,,3,,,75,127
154,note_on,51,0,0,,2,,,74,127
158,note_off,4,0,0,,3,,,75,127
205,note_on,47,0,0,,3,,,75,127
209,note_off,4,0,0,,2,,,74,127
256,note_on,47,0,0,,2,,,74,127
260,note_off,4,0,0,,3,,,75,127
305,note_off,45,0,0,,11,,,70,127
307,note_on,2,0,0,,10,,,69,127
307,note_on,0,0,0,,0,,,72,127
311,note_off,4,0,0,,2,,,74,127
510,note_off,199,0,0,,0,,,72,127
510,note_off,0,0,0,,10,,,69,127
512,note_on,2,0,0,,11,,,70,127
512,note_on,0,0,0,,2,,,74,127
698,note_off,186,0,0,,2,,,74,127
698,note_off,0,0,0,,11,,,70,127
717,note_on,19,0,0,,7,,,67,127
717,note_on,0,0,0,,5,,,77,127
768,note_on,51,0,0,,3,,,75,127
772,note_off,4,0,0,,5,,,77,127
819,note_on,47,0,0,,5,,,77,127
823,note_off,4,0,0,,3,,,75,127
870,note_on,47,0,0,,3,,,75,127
874,note_off,4,0,0,,5,,,77,127
919,note_off,45,0,0,,7,,,67,127
921,note_on,2,0,0,,5,,,65,127
921,note_on,0,0,0,,2,,,74,127
925,note_off,4,0,0,,3,,,75,127
1124,note_off,199,0,0,,2,,,74,127
1124,note_off,0,0,0,,5,,,65,127
1126,note_on,2,0,0,,7,,,67,127
1126,note_on,0,0,0,,3,,,75,127
1312,note_off,186,0,0,,3,,,75,127
1312,note_off,0,0,0,,7,,,67,127
1331,note_on,19,0,0,,2,,,62,127
1331,note_on,0,0,0,,5,,,77,127
1535,note_off,204,0,0,,5,,,77,127
1535,note_off,0,0,0,,2,,,62,127
1537,note_on,2,0,0,,3,,,63,127
1537,note_on,0,0,0,,7,,,79,127
1741,note_off,204,0,0,,7,,,79,127
1743,note_on,2,0,0,,11,,,58,127
1743,note_on,0,0,0,,11,,,70,127
1750,note_off,7,0,0,,3,,,63,127
1946,note_off,196,0,0,,11,,,70,127
1946,note_off,0,0,0,,11,,,58,127
1948,note_on,2,0,0,,5,,,65,127
1948,note_on,0,0,0,,11,,,70,127
2152,note_off,204,0,0,,11,,,70,127
2154,note_on,2,0,0,,10,,,69,127
2358,note_off,204,0,0,,10,,,69,127
2358,note_off,0,0,0,,5,,,65,127
2360,note_on,2,0,0,,11,,,58,127
2360,note_on,0,0,0,,11,,,70,127
2564,note_off,204,0,0,,11,,,70,127
2564,note_off,0,0,0,,11,,,58,127
2566,note_on,2,0,0,,11,,,70,127
2566,note_on,0,0,0,,3,,,75,127
2617,note_on,51,0,0,,2,,,74,127
2621,note_off,4,0,0,,3,,,75,127
2668,note_on,47,0,0,,3,,,75,127
2672,note_off,4,0,0,,2,,,74,127
2719,note_on,47,0,0,,2,,,74,127
2723,note_off,4,0,0,,3,,,75,127
2768,note_off,45,0,0,,11,,,70,127
2770,note_on,2,0,0,,10,,,69,127
2770,note_on,0,0,0,,0,,,72,127
2774,note_off,4,0,0,,2,,,74,127
2973,note_off,199,0,0,,0,,,72,127
2973,note_off,0,0,0,,10,,,69,127
2975,note_on,2,0,0,,11,,,70,127
2975,note_on,0,0,0,,2,,,74,127
3157,note_off,182,0,0,,2,,,74,127
3157,note_off,0,0,0,,11,,,70,127
3181,note_on,24,0,0,,7,,,67,127
3181,note_on,0,0,0,,5,,,77,127
3232,note_on,51,0,0,,3,,,75,127
3236,note_off,4,0,0,,5,,,77,127
3283,note_on,47,0,0,,5,,,77,127
3287,note_off,4,0,0,,3,,,75,127
3334,note_on,47,0,0,,3,,,75,127
3338,note_off,4,0,0,,5,,,77,127
3383,note_off,45,0,0,,7,,,67,127
3385,note_on,2,0,0,,5,,,65,127
3385,note_on,0,0,0,,2,,,74,127
3389,note_off,4,0,0,,3,,,75,127
3588,note_off,199,0,0,,2,,,74,127
3588,note_off,0,0,0,,5,,,65,127
3590,note_on,2,0,0,,7,,,67,127
3590,note_on,0,0,0,,3,,,75,127
3772,note_off,182,0,0,,3,,,75,127
3772,note_off,0,0,0,,7,,,67,127
3796,note_on,24,0,0,,2,,,62,127
3796,note_on,0,0,0,,5,,,77,127
4000,note_off,204,0,0,,5,,,77,127
4000,note_off,0,0,0,,2,,,62,127
4002,note_on,2,0,0,,3,,,63,127
4002,note_on,0,0,0,,7,,,79,127
4103,note_off,101,0,0,,7,,,79,127
4105,note_on,2,0,0,,10,,,81,127
4206,note_off,101,0,0,,10,,,81,127
4208,note_on,2,0,0,,11,,,58,127
4208,note_on,0,0,0,,11,,,82,127
4215,note_off,7,0,0,,3,,,63,127
4411,note_off,196,0,0,,11,,,82,127
4411,note_off,0,0,0,,11,,,58,127
4413,note_on,2,0,0,,5,,,65,127
4413,note_on,0,0,0,,11,,,82,127
4617,note_off,204,0,0,,11,,,82,127
4619,note_on,2,0,0,,10,,,81,127
4823,note_off,204,0,0,,10,,,81,127
4823,note_off,0,0,0,,5,,,65,127
4825,note_on,2,0,0,,11,,,58,127
4825,note_on,0,0,0,,11,,,82,127
5029,note_off,204,0,0,,11,,,82,127
5029,note_off,0,0,0,,11,,,58,127
5031,note_on,2,0,0,,2,,,62,127
5134,note_on,103,0,0,,5,,,77,127
5235,note_off,101,0,0,,5,,,77,127
5237,note_on,2,0,0,,3,,,75,127
5338,note_off,101,0,0,,3,,,75,127
5340,note_on,2,0,0,,2,,,74,127
5441,note_off,101,0,0,,2,,,74,127
5443,note_on,2,0,0,,3,,,75,127
5544,note_off,101,0,0,,3,,,75,127
5546,note_on,2,0,0,,5,,,77,127
5647,note_off,101,0,0,,5,,,77,127
5647,note_off,0,0,0,,2,,,62,127
5649,note_on,2,0,0,,3,,,63,127
5649,note_on,0,0,0,,6,,,78,127
5853,note_off,204,0,0,,6,,,78,127
5855,note_on,2,0,0,,7,,,79,127
6059,note_off,204,0,0,,7,,,79,127
6061,note_on,2,0,0,,3,,,75,127
6265,note_off,204,0,0,,3,,,75,127
6265,note_off,0,0,0,,3,,,63,127
6267,note_on,2,0,0,,4,,,64,127
6267,note_on,0,0,0,,2,,,74,127
6368,note_off,101,0,0,,2,,,74,127
6370,note_on,2,0,0,,0,,,72,127
6471,note_off,101,0,0,,0,,,72,127
6473,note_on,2,0,0,,0,,,72,127
6524,note_on,51,0,0,,11,,,70,127
6528,note_off,4,0,0,,0,,,72,127
6575,note_on,47,0,0,,0,,,72,127
6579,note_off,4,0,0,,11,,,70,127
6626,note_on,47,0,0,,11,,,70,127
6630,note_off,4,0,0,,0,,,72,127
6677,note_on,47,0,0,,0,,,72,127
6681,note_off,4,0,0,,11,,,70,127
6728,note_on,47,0,0,,11,,,70,127
6732,note_off,4,0,0,,0,,,72,127
6779,note_on,47,0,0,,10,,,69,127
6783,note_off,4,0,0,,11,,,70,127
6830,note_on,47,0,0,,11,,,70,127
6834,note_off,4,0,0,,10,,,69,127
6878,note_off,44,0,0,,11,,,70,127
6879,note_off,1,0,0,,4,,,64,127
6881,note_on,2,0,0,,5,,,65,127
6881,note_on,0,0,0,,11,,,70,127
7085,note_off,204,0,0,,5,,,65,127
7087,note_on,2,0,0,,0,,,60,127
7291,note_off,204,0,0,,0,,,60,127
7291,note_off,0,0,0,,11,,,70,127
7293,note_on,2,0,0,,5,,,53,127
7293,note_on,0,0,0,,10,,,69,127
7494,note_off,201,0,0,,10,,,69,127
7496,note_off,2,0,0,,5,,,53,127
7507,note_on,11,0,0,,0,,,72,127
7507,note_on,0,0,0,,5,,,65,127
7507,note_on,0,0,0,,10,,,81,127
7711,note_off,204,0,0,,10,,,81,127
7711,note_off,0,0,0,,5,,,65,127
7711,note_off,0,0,0,,0,,,72,127
7713,note_on,2,0,0,,7,,,67,127
7713,note_on,0,0,0,,11,,,70,127
7713,note_on,0,0,0,,7,,,79,127
7917,note_off,204,0,0,,7,,,67,127
7919,note_on,2,0,0,,0,,,60,127
8120,note_off,201,0,0,,11,,,70,127
8122,note_off,2,0,0,,0,,,60,127
8124,note_on,2,0,0,,10,,,69,127
8124,note_on,0,0,0,,5,,,65,127
8328,note_off,204,0,0,,7,,,79,127
8330,note_on,2,0,0,,4,,,76,127
8534,note_off,204,0,0,,4,,,76,127
8536,note_on,2,0,0,,5,,,77,127
8740,note_off,204,0,0,,5,,,77,127
8740,note_off,0,0,0,,5,,,65,127
8740,note_off,0,0,0,,10,,,69,127
8742,note_on,2,0,0,,5,,,65,127
8742,note_on,0,0,0,,0,,,72,127
8742,note_on,0,0,0,,10,,,81,127
8946,note_off,204,0,0,,10,,,81,127
8946,note_off,0,0,0,,0,,,72,127
8946,note_off,0,0,0,,5,,,65,127
8948,note_on,2,0,0,,11,,,70,127
8948,note_on,0,0,0,,7,,,67,127
8948,note_on,0,0,0,,7,,,79,127
9152,note_off,204,0,0,,7,,,67,127
9154,note_on,2,0,0,,0,,,60,127
9355,note_off,201,0,0,,11,,,70,127
9357,note_off,2,0,0,,0,,,60,127
9359,note_on,2,0,0,,10,,,69,127
9359,note_on,0,0,0,,5,,,65,127
9563,note_off,204,0,0,,7,,,79,127
9565,note_on,2,0,0,,4,,,76,127
9769,note_off,204,0,0,,4,,,76,127
9771,note_on,2,0,0,,5,,,77,127
9975,note_off,204,0,0,,5,,,77,127
9975,note_off,0,0,0,,5,,,65,127
9975,note_off,0,0,0,,10,,,69,127
9977,note_on,2,0,0,,5,,,65,127
9977,note_on,0,0,0,,1,,,73,127
9977,note_on,0,0,0,,5,,,77,127
10181,note_off,204,0,0,,5,,,77,127
10181,note_off,0,0,0,,1,,,73,127
10183,note_on,2,0,0,,0,,,72,127
10183,note_on,0,0,0,,3,,,75,127
10387,note_off,204,0,0,,3,,,75,127
10387,note_off,0,0,0,,0,,,72,127
10389,note_on,2,0,0,,10,,,69,127
10389,note_on,0,0,0,,0,,,84,127
10593,note_off,204,0,0,,10,,,69,127
10594,note_off,1,0,0,,5,,,65,127
10595,note_on,1,0,0,,5,,,65,127
10595,note_on,0,0,0,,11,,,70,127
10595,note_on,0,0,0,,1,,,73,127
10799,note_off,204,0,0,,0,,,84,127
10801,note_on,2,0,0,,10,,,81,127
11005,note_off,204,0,0,,10,,,81,127
11007,note_on,2,0,0,,11,,,82,127
11211,note_off,204,0,0,,11,,,82,127
11211,note_off,0,0,0,,1,,,73,127
11211,note_off,0,0,0,,11,,,70,127
11211,note_off,0,0,0,,5,,,65,127
11213,note_on,2,0,0,,5,,,65,127
11213,note_on,0,0,0,,1,,,73,127
11213,note_on,0,0,0,,5,,,77,127
11417,note_off,204,0,0,,5,,,77,127
11417,note_off,0,0,0,,1,,,73,127
11419,note_on,2,0,0,,0,,,72,127
11419,note_on,0,0,0,,3,,,75,127
11623,note_off,204,0,0,,3,,,75,127
11623,note_off,0,0,0,,0,,,72,127
11625,note_on,2,0,0,,10,,,69,127
11625,note_on,0,0,0,,0,,,84,127
11829,note_off,204,0,0,,10,,,69,127
11830,note_off,1,0,0,,5,,,65,127
11831,note_on,1,0,0,,5,,,65,127
11831,note_on,0,0,0,,1,,,73,127
11831,note_on,0,0,0,,11,,,70,127
12035,note_off,204,0,0,,0,,,84,127
12037,note_on,2,0,0,,10,,,81,127
12241,note_off,204,0,0,,10,,,81,127
12243,note_on,2,0,0,,11,,,82,127
12447,note_off,204,0,0,,11,,,70,127
12447,note_off,0,0,0,,1,,,73,127
12447,note_off,0,0,0,,5,,,65,127
12449,note_on,2,0,0,,1,,,73,127
12449,note_on,0,0,0,,11,,,70,127
12449,note_on,0,0,0,,4,,,64,127
12449,note_on,0,0,0,,7,,,67,127
12653,note_off,204,0,0,,11,,,82,127
12655,note_on,2,0,0,,10,,,81,127
12859,note_off,204,0,0,,10,,,81,127
12861,note_on,2,0,0,,11,,,82,127
13065,note_off,204,0,0,,7,,,67,127
13065,note_off,0,0,0,,4,,,64,127
13065,note_off,0,0,0,,11,,,70,127
13065,note_off,0,0,0,,1,,,73,127
13067,note_on,2,0,0,,2,,,62,127
13067,note_on,0,0,0,,7,,,67,127
13067,note_on,0,0,0,,11,,,70,127
13271,note_off,204,0,0,,11,,,82,127
13273,note_on,2,0,0,,10,,,81,127
13273,note_on,0,0,0,,6,,,78,127
13477,note_off,204,0,0,,6,,,78,127
13477,note_off,0,0,0,,10,,,81,127
13479,note_on,2,0,0,,11,,,82,127
13479,note_on,0,0,0,,7,,,79,127
13683,note_off,204,0,0,,11,,,70,127
13683,note_off,0,0,0,,7,,,67,127
13683,note_off,0,0,0,,2,,,62,127
13685,note_on,2,0,0,,3,,,63,127
13685,note_on,0,0,0,,11,,,70,127
13685,note_on,0,0,0,,7,,,67,127
13889,note_off,204,0,0,,7,,,79,127
13889,note_off,0,0,0,,11,,,82,127
13891,note_on,2,0,0,,10,,,81,127
13891,note_on,0,0,0,,6,,,78,127
14095,note_off,204,0,0,,6,,,78,127
14095,note_off,0,0,0,,10,,,81,127
14097,note_on,2,0,0,,7,,,79,127
14097,note_on,0,0,0,,11,,,82,127
14301,note_off,204,0,0,,7,,,67,127
14301,note_off,0,0,0,,11,,,70,127
14301,note_off,0,0,0,,3,,,63,127
14303,note_on,2,0,0,,7,,,67,127
14303,note_on,0,0,0,,2,,,62,127
14303,note_on,0,0,0,,11,,,70,127
14507,note_off,204,0,0,,11,,,82,127
14507,note_off,0,0,0,,7,,,79,127
14509,note_on,2,0,0,,6,,,78,127
14509,note_on,0,0,0,,10,,,81,127
14713,note_off,204,0,0,,10,,,81,127
14713,note_off,0,0,0,,6,,,78,127
14715,note_on,2,0,0,,11,,,82,127
14715,note_on,0,0,0,,7,,,79,127
14919,note_off,204,0,0,,11,,,70,127
14919,note_off,0,0,0,,2,,,62,127
14919,note_off,0,0,0,,7,,,67,127
14921,note_on,2,0,0,,1,,,61,127
14921,note_on,0,0,0,,11,,,70,127
14921,note_on,0,0,0,,7,,,67,127
15125,note_off,204,0,0,,7,,,79,127
15125,note_off,0,0,0,,11,,,82,127
15127,note_on,2,0,0,,10,,,81,127
15127,note_on,0,0,0,,6,,,78,127
15331,note_off,204,0,0,,6,,,78,127
15331,note_off,0,0,0,,10,,,81,127
15333,note_on,2,0,0,,7,,,79,127
15333,note_on,0,0,0,,11,,,82,127
15534,note_off,201,0,0,,11,,,82,127
15536,note_off,2,0,0,,7,,,79,127
15536,note_off,0,0,0,,7,,,67,127
15536,note_off,0,0,0,,11,,,70,127
15536,note_off,0,0,0,,1,,,61,127
15547,note_on,11,0,0,,2,,,74,127
15547,note_on,0,0,0,,2,,,62,127
15547,note_on,0,0,0,,10,,,69,127
15547,note_on,0,0,0,,6,,,78,127
15547,note_on,0,0,0,,10,,,81,127
15751,note_off,204,0,0,,10,,,81,127
15751,note_off,0,0,0,,6,,,78,127
15753,note_on,2,0,0,,10,,,81,127
15753,note_on,0,0,0,,0,,,84,127
15957,note_off,204,0,0,,0,,,84,127
15957,note_off,0,0,0,,10,,,81,127
15959,note_on,2,0,0,,7,,,79,127
15959,note_on,0,0,0,,11,,,82,127
16163,note_off,204,0,0,,11,,,82,127
16163,note_off,0,0,0,,7,,,79,127
16163,note_off,0,0,0,,10,,,69,127
16163,note_off,0,0,0,,2,,,62,127
16163,note_off,0,0,0,,2,,,74,127
16165,note_on,2,0,0,,2,,,62,127
16165,note_on,0,0,0,,2,,,74,127
16165,note_on,0,0,0,,10,,,81,127
16165,note_on,0,0,0,,6,,,78,127
16369,note_off,204,0,0,,6,,,78,127
16369,note_off,0,0,0,,10,,,81,127
16369,note_off,0,0,0,,2,,,62,127
16371,note_on,2,0,0,,3,,,63,127
16371,note_on,0,0,0,,10,,,81,127
16422,note_on,51,0,0,,7,,,79,127
16426,note_off,4,0,0,,10,,,81,127
16473,note_on,47,0,0,,10,,,81,127
16477,note_off,4,0,0,,7,,,79,127
16524,note_on,47,0,0,,7,,,79,127
16528,note_off,4,0,0,,10,,,81,127
16571,note_off,43,0,0,,2,,,74,127
16575,note_on,4,0,0,,0,,,72,127
16575,note_on,0,0,0,,10,,,81,127
16579,note_off,4,0,0,,7,,,79,127
16626,note_on,47,0,0,,7,,,79,127
16630,note_off,4,0,0,,10,,,81,127
16677,note_on,47,0,0,,6,,,78,127
16681,note_off,4,0,0,,7,,,79,127
16728,note_on,47,0,0,,7,,,79,127
16732,note_off,4,0,0,,6,,,78,127
16775,note_off,43,0,0,,3,,,63,127
16777,note_off,2,0,0,,0,,,72,127
16779,note_on,2,0,0,,2,,,62,127
16779,note_on,0,0,0,,2,,,74,127
16779,note_on,0,0,0,,10,,,69,127
16779,note_on,0,0,0,,10,,,81,127
16779,note_on,0,0,0,,6,,,78,127
16783,note_off,4,0,0,,7,,,79,127
16982,note_off,199,0,0,,6,,,78,127
16982,note_off,0,0,0,,10,,,81,127
16984,note_on,2,0,0,,0,,,84,127
16984,note_on,0,0,0,,10,,,81,127
17188,note_off,204,0,0,,10,,,81,127
17188,note_off,0,0,0,,0,,,84,127
17190,note_on,2,0,0,,11,,,82,127
17190,note_on,0,0,0,,7,,,79,127
17394,note_off,204,0,0,,7,,,79,127
17394,note_off,0,0,0,,11,,,82,127
17394,note_off,0,0,0,,10,,,69,127
17394,note_off,0,0,0,,2,,,74,127
17394,note_off,0,0,0,,2,,,62,127
17396,note_on,2,0,0,,2,,,74,127
17396,note_on,0,0,0,,2,,,62,127
17396,note_on,0,0,0,,10,,,81,127
17396,note_on,0,0,0,,6,,,78,127
17600,note_off,204,0,0,,6,,,78,127
17600,note_off,0,0,0,,10,,,81,127
17600,note_off,0,0,0,,2,,,62,127
17602,note_on,2,0,0,,3,,,63,127
17602,note_on,0,0,0,,10,,,81,127
17653,note_on,51,0,0,,7,,,79,127
17657,note_off,4,0,0,,10,,,81,127
17704,note_on,47,0,0,,10,,,81,127
17708,note_off,4,0,0,,7,,,79,127
17755,note_on,47,0,0,,7,,,79,127
17759,note_off,4,0,0,,10,,,81,127
17802,note_off,43,0,0,,2,,,74,127
17806,note_on,4,0,0,,0,,,72,127
17806,note_on,0,0,0,,10,,,81,127
17810,note_off,4,0,0,,7,,,79,127
17857,note_on,47,0,0,,7,,,79,127
17861,note_off,4,0,0,,10,,,81,127
17908,note_on,47,0,0,,6,,,78,127
17912,note_off,4,0,0,,7,,,79,127
17959,note_on,47,0,0,,7,,,79,127
17963,note_off,4,0,0,,6,,,78,127
18006,note_off,43,0,0,,3,,,63,127
18008,note_off,2,0,0,,0,,,72,127
18010,note_on,2,0,0,,2,,,62,127
18010,note_on,0,0,0,,2,,,74,127
18010,note_on,0,0,0,,10,,,81,127
18014,note_off,4,0,0,,7,,,79,127
18210,note_off,196,0,0,,10,,,81,127
18213,note_off,3,0,0,,2,,,62,127
18224,note_on,11,0,0,,6,,,66,127
18224,note_on,0,0,0,,0,,,84,127
18428,note_off,204,0,0,,0,,,84,127
18428,note_off,0,0,0,,6,,,66,127
18430,note_on,2,0,0,,7,,,67,127
18430,note_on,0,0,0,,11,,,82,127
18621,note_off,191,0,0,,2,,,74,127
18634,note_off,13,0,0,,11,,,82,127
18634,note_off,0,0,0,,7,,,67,127
18636,note_on,2,0,0,,10,,,69,127
18636,note_on,0,0,0,,10,,,81,127
18840,note_off,204,0,0,,10,,,81,127
18840,note_off,0,0,0,,10,,,69,127
18842,note_on,2,0,0,,11,,,70,127
18842,note_on,0,0,0,,7,,,79,127
19046,note_off,204,0,0,,7,,,79,127
19046,note_off,0,0,0,,11,,,70,127
19048,note_on,2,0,0,,10,,,69,127
19048,note_on,0,0,0,,5,,,77,127
19252,note_off,204,0,0,,5,,,77,127
19252,note_off,0,0,0,,10,,,69,127
19254,note_on,2,0,0,,7,,,67,127
19254,note_on,0,0,0,,3,,,75,127
19458,note_off,204,0,0,,3,,,75,127
19458,note_off,0,0,0,,7,,,67,127
19460,note_on,2,0,0,,11,,,70,127
19460,note_on,0,0,0,,2,,,74,127
19664,note_off,204,0,0,,2,,,74,127
19664,note_off,0,0,0,,11,,,70,127
19666,note_on,2,0,0,,10,,,69,127
19666,note_on,0,0,0,,1,,,73,127
19870,note_off,204,0,0,,1,,,73,127
19870,note_off,0,0,0,,10,,,69,127
19872,note_on,2,0,0,,7,,,67,127
19872,note_on,0,0,0,,3,,,75,127
20076,note_off,204,0,0,,3,,,75,127
20076,note_off,0,0,0,,7,,,67,127
20078,note_on,2,0,0,,6,,,66,127
20078,note_on,0,0,0,,2,,,74,127
20282,note_off,204,0,0,,2,,,74,127
20282,note_off,0,0,0,,6,,,66,127
20284,note_on,2,0,0,,2,,,62,127
20284,note_on,0,0,0,,0,,,72,127
20488,note_off,204,0,0,,0,,,72,127
20488,note_off,0,0,0,,2,,,62,127
20490,note_on,2,0,0,,7,,,67,127
20490,note_on,0,0,0,,11,,,70,127
20694,note_off,204,0,0,,11,,,70,127
20694,note_off,0,0,0,,7,,,67,127
20696,note_on,2,0,0,,5,,,65,127
20696,note_on,0,0,0,,10,,,69,127
20900,note_off,204,0,0,,10,,,69,127
20900,note_off,0,0,0,,5,,,65,127
20902,note_on,2,0,0,,3,,,63,127
20902,note_on,0,0,0,,7,,,67,127
21106,note_off,204,0,0,,7,,,67,127
21106,note_off,0,0,0,,3,,,63,127
21108,note_on,2,0,0,,2,,,62,127
21108,note_on,0,0,0,,6,,,66,127
21312,note_off,204,0,0,,6,,,66,127
21312,note_off,0,0,0,,2,,,62,127
21314,note_on,2,0,0,,3,,,63,127
21314,note_on,0,0,0,,7,,,67,127
21518,note_off,204,0,0,,7,,,67,127
21518,note_off,0,0,0,,3,,,63,127
21520,note_on,2,0,0,,0,,,60,127
21520,note_on,0,0,0,,10,,,69,127
21724,note_off,204,0,0,,10,,,69,127
21724,note_off,0,0,0,,0,,,60,127
21726,note_on,2,0,0,,2,,,62,127
21726,note_on,0,0,0,,6,,,66,127
21930,note_off,204,0,0,,6,,,66,127
21930,note_off,0,0,0,,2,,,62,127
21932,note_on,2,0,0,,6,,,66,127
21932,note_on,0,0,0,,10,,,69,127
22136,note_off,204,0,0,,10,,,69,127
22136,note_off,0,0,0,,6,,,66,127
22138,note_on,2,0,0,,7,,,67,127
22138,note_on,0,0,0,,11,,,70,127
22342,note_off,204,0,0,,11,,,70,127
22342,note_off,0,0,0,,7,,,67,127
22344,note_on,2,0,0,,3,,,63,127
22344,note_on,0,0,0,,0,,,72,127
22548,note_off,204,0,0,,0,,,72,127
22548,note_off,0,0,0,,3,,,63,127
22550,note_on,2,0,0,,2,,,62,127
22550,note_on,0,0,0,,1,,,73,127
22754,note_off,204,0,0,,1,,,73,127
22756,note_on,2,0,0,,2,,,74,127
22960,note_off,204,0,0,,2,,,74,127
22962,note_on,2,0,0,,10,,,69,127
23166,note_off,204,0,0,,10,,,69,127
23166,note_off,0,0,0,,2,,,62,127
23168,note_on,2,0,0,,6,,,66,127
23168,note_on,0,0,0,,10,,,69,127
23372,note_off,204,0,0,,10,,,69,127
23372,note_off,0,0,0,,6,,,66,127
23374,note_on,2,0,0,,7,,,67,127
23374,note_on,0,0,0,,11,,,70,127
23578,note_off,204,0,0,,11,,,70,127
23578,note_off,0,0,0,,7,,,67,127
23580,note_on,2,0,0,,3,,,63,127
23580,note_on,0,0,0,,0,,,72,127
23784,note_off,204,0,0,,0,,,72,127
23784,note_off,0,0,0,,3,,,63,127
23786,note_on,2,0,0,,2,,,62,127
23786,note_on,0,0,0,,1,,,73,127
23990,note_off,204,0,0,,1,,,73,127
23992,note_on,2,0,0,,2,,,74,127
24196,note_off,204,0,0,,2,,,74,127
24198,note_on,2,0,0,,10,,,69,127
24402,note_off,204,0,0,,10,,,69,127
24402,note_off,0,0,0,,2,,,62,127
24404,note_on,2,0,0,,4,,,64,127
24404,note_on,0,0,0,,7,,,67,127
24608,note_off,204,0,0,,7,,,67,127
24608,note_off,0,0,0,,4,,,64,127
24610,note_on,2,0,0,,6,,,66,127
24610,note_on,0,0,0,,10,,,69,127
24814,note_off,204,0,0,,10,,,69,127
24814,note_off,0,0,0,,6,,,66,127
24816,note_on,2,0,0,,2,,,62,127
24816,note_on,0,0,0,,11,,,70,127
25020,note_off,204,0,0,,11,,,70,127
25020,note_off,0,0,0,,2,,,62,127
25022,note_on,2,0,0,,0,,,60,127
25022,note_on,0,0,0,,12,,,71,127
25226,note_off,204,0,0,,12,,,71,127
25228,note_on,2,0,0,,0,,,72,127
25432,note_off,204,0,0,,0,,,72,127
25434,note_on,2,0,0,,7,,,67,127
25638,note_off,204,0,0,,7,,,67,127
25638,note_off,0,0,0,,0,,,60,127
25640,note_on,2,0,0,,4,,,64,127
25640,note_on,0,0,0,,7,,,67,127
25844,note_off,204,0,0,,7,,,67,127
25844,note_off,0,0,0,,4,,,64,127
25846,note_on,2,0,0,,5,,,65,127
25846,note_on,0,0,0,,10,,,69,127
26050,note_off,204,0,0,,10,,,69,127
26050,note_off,0,0,0,,5,,,65,127
26052,note_on,2,0,0,,2,,,62,127
26052,note_on,0,0,0,,11,,,70,127
26256,note_off,204,0,0,,11,,,70,127
26256,note_off,0,0,0,,2,,,62,127
26258,note_on,2,0,0,,0,,,60,127
26258,note_on,0,0,0,,12,,,71,127
26462,note_off,204,0,0,,12,,,71,127
26464,note_on,2,0,0,,0,,,72,127
26668,note_off,204,0,0,,0,,,72,127
26670,note_on,2,0,0,,7,,,67,127
26874,note_off,204,0,0,,7,,,67,127
26874,note_off,0,0,0,,0,,,60,127
26876,note_on,2,0,0,,4,,,64,127
26876,note_on,0,0,0,,7,,,67,127
27080,note_off,204,0,0,,7,,,67,127
27080,note_off,0,0,0,,4,,,64,127
27082,note_on,2,0,0,,5,,,65,127
27082,note_on,0,0,0,,10,,,69,127
27286,note_off,204,0,0,,10,,,69,127
27286,note_off,0,0,0,,5,,,65,127
27288,note_on,2,0,0,,2,,,62,127
27288,note_on,0,0,0,,12,,,71,127
27492,note_off,204,0,0,,12,,,71,127
27492,note_off,0,0,0,,2,,,62,127
27494,note_on,2,0,0,,0,,,60,127
27494,note_on,0,0,0,,0,,,72,127
27698,note_off,204,0,0,,0,,,72,127
27698,note_off,0,0,0,,0,,,60,127
27700,note_on,2,0,0,,0,,,60,127
27700,note_on,0,0,0,,4,,,64,127
27700,note_on,0,0,0,,7,,,67,127
27700,note_on,0,0,0,,7,,,79,127
27904,note_off,204,0,0,,7,,,79,127
27904,note_off,0,0,0,,7,,,67,127
27904,note_off,0,0,0,,4,,,64,127
27904,note_off,0,0,0,,0,,,60,127
27906,note_on,2,0,0,,0,,,60,127
27906,note_on,0,0,0,,5,,,65,127
27906,note_on,0,0,0,,5,,,77,127
27906,note_on,0,0,0,,10,,,69,127
28110,note_off,204,0,0,,10,,,69,127
28110,note_off,0,0,0,,5,,,77,127
28110,note_off,0,0,0,,5,,,65,127
28110,note_off,0,0,0,,0,,,60,127
28112,note_on,2,0,0,,0,,,60,127
28112,note_on,0,0,0,,7,,,67,127
28112,note_on,0,0,0,,11,,,70,127
28112,note_on,0,0,0,,4,,,76,127
28316,note_off,204,0,0,,4,,,76,127
28316,note_off,0,0,0,,11,,,70,127
28316,note_off,0,0,0,,7,,,67,127
28316,note_off,0,0,0,,0,,,60,127
28318,note_on,2,0,0,,0,,,60,127
28318,note_on,0,0,0,,10,,,69,127
28318,note_on,0,0,0,,0,,,72,127
28318,note_on,0,0,0,,5,,,77,127
28522,note_off,204,0,0,,5,,,77,127
28522,note_off,0,0,0,,0,,,72,127
28522,note_off,0,0,0,,10,,,69,127
28522,note_off,0,0,0,,0,,,60,127
28524,note_on,2,0,0,,0,,,60,127
28524,note_on,0,0,0,,11,,,70,127
28524,note_on,0,0,0,,2,,,74,127
28728,note_off,204,0,0,,2,,,74,127
28728,note_off,0,0,0,,11,,,70,127
28728,note_off,0,0,0,,0,,,60,127
28730,note_on,2,0,0,,0,,,60,127
28730,note_on,0,0,0,,10,,,69,127
28730,note_on,0,0,0,,0,,,72,127
28934,note_off,204,0,0,,0,,,72,127
28934,note_off,0,0,0,,10,,,69,127
28934,note_off,0,0,0,,0,,,60,127
28936,note_on,2,0,0,,0,,,60,127
28936,note_on,0,0,0,,7,,,67,127
28936,note_on,0,0,0,,11,,,70,127
29140,note_off,204,0,0,,11,,,70,127
29140,note_off,0,0,0,,7,,,67,127
29140,note_off,0,0,0,,0,,,60,127
29142,note_on,2,0,0,,5,,,65,127
29142,note_on,0,0,0,,0,,,60,127
29142,note_on,0,0,0,,10,,,69,127
29346,note_off,204,0,0,,10,,,69,127
29346,note_off,0,0,0,,0,,,60,127
29346,note_off,0,0,0,,5,,,65,127
29348,note_on,2,0,0,,4,,,64,127
29348,note_on,0,0,0,,0,,,60,127
29348,note_on,0,0,0,,7,,,67,127
29348,note_on,0,0,0,,7,,,79,127
29552,note_off,204,0,0,,7,,,79,127
29552,note_off,0,0,0,,7,,,67,127
29552,note_off,0,0,0,,0,,,60,127
29552,note_off,0,0,0,,4,,,64,127
29554,note_on,2,0,0,,0,,,60,127
29554,note_on,0,0,0,,5,,,65,127
29554,note_on,0,0,0,,10,,,69,127
29554,note_on,0,0,0,,5,,,77,127
29758,note_off,204,0,0,,5,,,77,127
29758,note_off,0,0,0,,10,,,69,127
29758,note_off,0,0,0,,5,,,65,127
29758,note_off,0,0,0,,0,,,60,127
29760,note_on,2,0,0,,7,,,67,127
29760,note_on,0,0,0,,0,,,60,127
29760,note_on,0,0,0,,4,,,76,127
29760,note_on,0,0,0,,11,,,70,127
29964,note_off,204,0,0,,11,,,70,127
29964,note_off,0,0,0,,4,,,76,127
29964,note_off,0,0,0,,0,,,60,127
29964,note_off,0,0,0,,7,,,67,127
29966,note_on,2,0,0,,0,,,60,127
29966,note_on,0,0,0,,10,,,69,127
29966,note_on,0,0,0,,0,,,72,127
29966,note_on,0,0,0,,5,,,77,127
30170,note_off,204,0,0,,5,,,77,127
30170,note_off,0,0,0,,0,,,72,127
30170,note_off,0,0,0,,10,,,69,127
30170,note_off,0,0,0,,0,,,60,127
30172,note_on,2,0,0,,11,,,70,127
30172,note_on,0,0,0,,0,,,60,127
30172,note_on,0,0,0,,2,,,74,127
30376,note_off,204,0,0,,2,,,74,127
30376,note_off,0,0,0,,0,,,60,127
30376,note_off,0,0,0,,11,,,70,127
30378,note_on,2,0,0,,0,,,60,127
30378,note_on,0,0,0,,10,,,69,127
30378,note_on,0,0,0,,0,,,72,127
30582,note_off,204,0,0,,0,,,72,127
30582,note_off,0,0,0,,10,,,69,127
30582,note_off,0,0,0,,0,,,60,127
30584,note_on,2,0,0,,0,,,60,127
30584,note_on,0,0,0,,7,,,67,127
30584,note_on,0,0,0,,11,,,70,127
30788,note_off,204,0,0,,11,,,70,127
30788,note_off,0,0,0,,7,,,67,127
30788,note_off,0,0,0,,0,,,60,127
30790,note_on,2,0,0,,0,,,60,127
30790,note_on,0,0,0,,5,,,65,127
30790,note_on,0,0,0,,10,,,69,127
30994,note_off,204,0,0,,10,,,69,127
30994,note_off,0,0,0,,5,,,65,127
30994,note_off,0,0,0,,0,,,60,127
30996,note_on,2,0,0,,0,,,60,127
30996,note_on,0,0,0,,4,,,64,127
30996,note_on,0,0,0,,7,,,67,127
31193,note_off,197,0,0,,7,,,67,127
31199,note_off,6,0,0,,4,,,64,127
31199,note_off,0,0,0,,0,,,60,127
31210,note_on,11,0,0,,5,,,65,127
31210,note_on,0,0,0,,10,,,69,127
31311,note_off,101,0,0,,10,,,69,127
31311,note_off,0,0,0,,5,,,65,127
31313,note_on,2,0,0,,0,,,60,127
31313,note_on,0,0,0,,0,,,72,127
31414,note_off,101,0,0,,0,,,72,127
31414,note_off,0,0,0,,0,,,60,127
31416,note_on,2,0,0,,10,,,57,127
31416,note_on,0,0,0,,5,,,77,127
31517,note_off,101,0,0,,5,,,77,127
31517,note_off,0,0,0,,10,,,57,127
31519,note_on,2,0,0,,7,,,55,127
31519,note_on,0,0,0,,7,,,79,127
31620,note_off,101,0,0,,7,,,79,127
31620,note_off,0,0,0,,7,,,55,127
31622,note_on,2,0,0,,5,,,53,127
31622,note_on,0,0,0,,10,,,81,127
31826,note_off,204,0,0,,10,,,81,127
31826,note_off,0,0,0,,5,,,53,127
31828,note_on,2,0,0,,11,,,58,127
31828,note_on,0,0,0,,11,,,82,127
31828,note_on,0,0,0,,2,,,74,127
32032,note_off,204,0,0,,2,,,74,127
32032,note_off,0,0,0,,11,,,58,127
32034,note_on,2,0,0,,0,,,60,127
32034,note_on,0,0,0,,4,,,76,127
32235,note_off,201,0,0,,11,,,82,127
32238,note_off,3,0,0,,0,,,60,127
32239,note_on,1,0,0,,0,,,48,127
32239,note_on,0,0,0,,7,,,79,127
32410,note_off,171,0,0,,7,,,79,127
32440,note_off,30,0,0,,4,,,76,127
32442,note_off,2,0,0,,0,,,48,127
32444,note_on,2,0,0,,5,,,65,127
32444,note_on,0,0,0,,10,,,69,127
32545,note_off,101,0,0,,10,,,69,127
32545,note_off,0,0,0,,5,,,65,127
32547,note_on,2,0,0,,0,,,60,127
32547,note_on,0,0,0,,0,,,72,127
32648,note_off,101,0,0,,0,,,72,127
32648,note_off,0,0,0,,0,,,60,127
32650,note_on,2,0,0,,10,,,57,127
32650,note_on,0,0,0,,5,,,77,127
32751,note_off,101,0,0,,5,,,77,127
32751,note_off,0,0,0,,10,,,57,127
32753,note_on,2,0,0,,7,,,55,127
32753,note_on,0,0,0,,7,,,79,127
32854,note_off,101,0,0,,7,,,79,127
32854,note_off,0,0,0,,7,,,55,127
32856,note_on,2,0,0,,5,,,53,127
32856,note_on,0,0,0,,10,,,81,127
33060,note_off,204,0,0,,10,,,81,127
33060,note_off,0,0,0,,5,,,53,127
33062,note_on,2,0,0,,11,,,58,127
33062,note_on,0,0,0,,11,,,82,127
33062,note_on,0,0,0,,2,,,74,127
33266,note_off,204,0,0,,2,,,74,127
33266,note_off,0,0,0,,11,,,58,127
33268,note_on,2,0,0,,0,,,60,127
33268,note_on,0,0,0,,4,,,76,127
33469,note_off,201,0,0,,11,,,82,127
33471,note_off,2,0,0,,0,,,60,127
33473,note_on,2,0,0,,0,,,48,127
33473,note_on,0,0,0,,7,,,79,127
33655,note_off,182,0,0,,7,,,79,127
33674,note_off,19,0,0,,4,,,76,127
33676,note_off,2,0,0,,0,,,48,127
33678,note_on,2,0,0,,5,,,53,127
33678,note_on,0,0,0,,10,,,81,127
33779,note_off,101,0,0,,10,,,81,127
33781,note_on,2,0,0,,5,,,77,127
33882,note_off,101,0,0,,5,,,77,127
33882,note_off,0,0,0,,5,,,53,127
33884,note_on,2,0,0,,7,,,55,127
33884,note_on,0,0,0,,11,,,82,127
33985,note_off,101,0,0,,11,,,82,127
33987,note_on,2,0,0,,7,,,79,127
34088,note_off,101,0,0,,7,,,79,127
34088,note_off,0,0,0,,7,,,55,127
34090,note_on,2,0,0,,10,,,57,127
34090,note_on,0,0,0,,0,,,84,127
34090,note_on,0,0,0,,10,,,81,127
34294,note_off,204,0,0,,10,,,81,127
34294,note_off,0,0,0,,0,,,84,127
34294,note_off,0,0,0,,10,,,57,127
34296,note_on,2,0,0,,11,,,58,127
34296,note_on,0,0,0,,11,,,82,127
34296,note_on,0,0,0,,7,,,79,127
34500,note_off,204,0,0,,7,,,79,127
34500,note_off,0,0,0,,11,,,82,127
34500,note_off,0,0,0,,11,,,58,127
34502,note_on,2,0,0,,0,,,60,127
34502,note_on,0,0,0,,5,,,77,127
34502,note_on,0,0,0,,10,,,81,127
34706,note_off,204,0,0,,10,,,81,127
34706,note_off,0,0,0,,5,,,77,127
34706,note_off,0,0,0,,0,,,60,127
34717,note_on,11,0,0,,5,,,65,127
34717,note_on,0,0,0,,10,,,69,127
34818,note_off,101,0,0,,10,,,69,127
34818,note_off,0,0,0,,5,,,65,127
34820,note_on,2,0,0,,0,,,60,127
34820,note_on,0,0,0,,0,,,72,127
34921,note_off,101,0,0,,0,,,72,127
34921,note_off,0,0,0,,0,,,60,127
34923,note_on,2,0,0,,10,,,57,127
34923,note_on,0,0,0,,5,,,77,127
35024,note_off,101,0,0,,5,,,77,127
35024,note_off,0,0,0,,10,,,57,127
35026,note_on,2,0,0,,7,,,55,127
35026,note_on,0,0,0,,7,,,79,127
35127,note_off,101,0,0,,7,,,79,127
35127,note_off,0,0,0,,7,,,55,127
35129,note_on,2,0,0,,5,,,53,127
35129,note_on,0,0,0,,10,,,81,127
35333,note_off,204,0,0,,10,,,81,127
35333,note_off,0,0,0,,5,,,53,127
35335,note_on,2,0,0,,5,,,65,127
35335,note_on,0,0,0,,10,,,69,127
35436,note_off,101,0,0,,10,,,69,127
35436,note_off,0,0,0,,5,,,65,127
35438,note_on,2,0,0,,0,,,60,127
35438,note_on,0,0,0,,0,,,72,127
35539,note_off,101,0,0,,0,,,72,127
35539,note_off,0,0,0,,0,,,60,127
35541,note_on,2,0,0,,10,,,57,127
35541,note_on,0,0,0,,5,,,77,127
35642,note_off,101,0,0,,5,,,77,127
35642,note_off,0,0,0,,10,,,57,127
35644,note_on,2,0,0,,7,,,55,127
35644,note_on,0,0,0,,7,,,79,127
35745,note_off,101,0,0,,7,,,79,127
35745,note_off,0,0,0,,7,,,55,127
35747,note_on,2,0,0,,5,,,53,127
35747,note_on,0,0,0,,10,,,81,127
35951,note_off,204,0,0,,10,,,81,127
35951,note_off,0,0,0,,5,,,53,127
35953,note_on,2,0,0,,5,,,65,127
35953,note_on,0,0,0,,10,,,69,127
36054,note_off,101,0,0,,10,,,69,127
36054,note_off,0,0,0,,5,,,65,127
36056,note_on,2,0,0,,0,,,60,127
36056,note_on,0,0,0,,0,,,72,127
36157,note_off,101,0,0,,0,,,72,127
36157,note_off,0,0,0,,0,,,60,127
36159,note_on,2,0,0,,10,,,57,127
36159,note_on,0,0,0,,5,,,77,127
36260,note_off,101,0,0,,5,,,77,127
36260,note_off,0,0,0,,10,,,57,127
36262,note_on,2,0,0,,7,,,55,127
36262,note_on,0,0,0,,7,,,79,127
36363,note_off,101,0,0,,7,,,79,127
36363,note_off,0,0,0,,7,,,55,127
36365,note_on,2,0,0,,5,,,53,127
36365,note_on,0,0,0,,10,,,81,127
36569,note_off,204,0,0,,10,,,81,127
36569,note_off,0,0,0,,5,,,53,127
36580,note_on,11,0,0,,11,,,58,127
36580,note_on,0,0,0,,2,,,86,127
36784,note_off,204,0,0,,2,,,86,127
36784,note_off,0,0,0,,11,,,58,127
36786,note_on,2,0,0,,0,,,60,127
36786,note_on,0,0,0,,0,,,84,127
36887,note_off,101,0,0,,0,,,84,127
36889,note_on,2,0,0,,11,,,82,127
36990,note_off,101,0,0,,11,,,82,127
36990,note_off,0,0,0,,0,,,60,127
36992,note_on,2,0,0,,0,,,48,127
36992,note_on,0,0,0,,10,,,81,127
37093,note_off,101,0,0,,10,,,81,127
37095,note_on,2,0,0,,7,,,79,127
37196,note_off,101,0,0,,7,,,79,127
37196,note_off,0,0,0,,0,,,48,127
37198,note_on,2,0,0,,5,,,53,127
37198,note_on,0,0,0,,5,,,77,127
37299,note_off,101,0,0,,5,,,77,127
37301,note_on,2,0,0,,10,,,81,127
37402,note_off,101,0,0,,10,,,81,127
37402,note_off,0,0,0,,5,,,53,127
37404,note_on,2,0,0,,7,,,55,127
37404,note_on,0,0,0,,7,,,79,127
37505,note_off,101,0,0,,7,,,79,127
37507,note_on,2,0,0,,5,,,77,127
37608,note_off,101,0,0,,5,,,77,127
37608,note_off,0,0,0,,7,,,55,127
37610,note_on,2,0,0,,10,,,57,127
37610,note_on,0,0,0,,4,,,76,127
37711,note_off,101,0,0,,4,,,76,127
37713,note_on,2,0,0,,2,,,74,127
37814,note_off,101,0,0,,2,,,74,127
37814,note_off,0,0,0,,10,,,57,127
37816,note_on,2,0,0,,11,,,58,127
37816,note_on,0,0,0,,0,,,72,127
37917,note_off,101,0,0,,0,,,72,127
37919,note_on,2,0,0,,11,,,70,127
38020,note_off,101,0,0,,11,,,70,127
38020,note_off,0,0,0,,11,,,58,127
38022,note_on,2,0,0,,0,,,60,127
38022,note_on,0,0,0,,10,,,69,127
38123,note_off,101,0,0,,10,,,69,127
38125,note_on,2,0,0,,7,,,67,127
38226,note_off,101,0,0,,7,,,67,127
38228,note_on,2,0,0,,0,,,48,127
38228,note_on,0,0,0,,5,,,65,127
38329,note_off,101,0,0,,5,,,65,127
38331,note_off,2,0,0,,0,,,60,127
38331,note_on,0,0,0,,4,,,64,127
38432,note_off,101,0,0,,4,,,64,127
38432,note_off,0,0,0,,0,,,48,127
38434,note_on,2,0,0,,5,,,41,127
38434,note_on,0,0,0,,5,,,65,127
38535,note_off,101,0,0,,5,,,65,127
38537,note_on,2,0,0,,10,,,69,127
38638,note_off,101,0,0,,10,,,69,127
38638,note_off,0,0,0,,5,,,41,127
38640,note_on,2,0,0,,7,,,43,127
38640,note_on,0,0,0,,7,,,67,127
38741,note_off,101,0,0,,7,,,67,127
38743,note_on,2,0,0,,5,,,65,127
38844,note_off,101,0,0,,5,,,65,127
38844,note_off,0,0,0,,7,,,43,127
38846,note_on,2,0,0,,10,,,45,127
38846,note_on,0,0,0,,4,,,64,127
38947,note_off,101,0,0,,4,,,64,127
38949,note_on,2,0,0,,2,,,62,127
39050,note_off,101,0,0,,2,,,62,127
39050,note_off,0,0,0,,10,,,45,127
39052,note_on,2,0,0,,11,,,46,127
39052,note_on,0,0,0,,0,,,60,127
39153,note_off,101,0,0,,0,,,60,127
39155,note_on,2,0,0,,11,,,58,127
39256,note_off,101,0,0,,11,,,58,127
39256,note_off,0,0,0,,11,,,46,127
39258,note_on,2,0,0,,0,,,48,127
39258,note_on,0,0,0,,10,,,57,127
39359,note_off,101,0,0,,10,,,57,127
39361,note_on,2,0,0,,7,,,55,127
39462,note_off,101,0,0,,7,,,55,127
39464,note_on,2,0,0,,0,,,36,127
39464,note_on,0,0,0,,5,,,53,127
39565,note_off,101,0,0,,5,,,53,127
39567,note_on,2,0,0,,4,,,52,127
39666,note_off,99,0,0,,0,,,48,127
39668,note_off,2,0,0,,4,,,52,127
39668,note_off,0,0,0,,0,,,36,127
39670,note_on,2,0,0,,5,,,41,127
39670,note_on,0,0,0,,5,,,53,127
40184,note_off,514,0,0,,5,,,41,127
40285,note_off,101,0,0,,5,,,53,127
40304,note_on,19,0,0,,8,,,80,127
40304,note_on,0,0,0,,0,,,72,127
40304,note_on,0,0,0,,5,,,65,127
40508,note_off,204,0,0,,5,,,65,127
40508,note_off,0,0,0,,0,,,72,127
40508,note_off,0,0,0,,8,,,80,127
40510,note_on,2,0,0,,7,,,79,127
40510,note_on,0,0,0,,7,,,67,127
40510,note_on,0,0,0,,11,,,70,127
40714,note_off,204,0,0,,7,,,67,127
40716,note_on,2,0,0,,0,,,60,127
40917,note_off,201,0,0,,11,,,70,127
40919,note_off,2,0,0,,0,,,60,127
40921,note_on,2,0,0,,5,,,65,127
40921,note_on,0,0,0,,8,,,68,127
41125,note_off,204,0,0,,7,,,79,127
41127,note_on,2,0,0,,4,,,76,127
41331,note_off,204,0,0,,4,,,76,127
41333,note_on,2,0,0,,5,,,77,127
41537,note_off,204,0,0,,5,,,77,127
41537,note_off,0,0,0,,8,,,68,127
41537,note_off,0,0,0,,5,,,65,127
41539,note_on,2,0,0,,8,,,80,127
41539,note_on,0,0,0,,0,,,72,127
41539,note_on,0,0,0,,5,,,65,127
41743,note_off,204,0,0,,5,,,65,127
41743,note_off,0,0,0,,0,,,72,127
41743,note_off,0,0,0,,8,,,80,127
41745,note_on,2,0,0,,7,,,79,127
41745,note_on,0,0,0,,11,,,70,127
41745,note_on,0,0,0,,7,,,67,127
41949,note_off,204,0,0,,7,,,67,127
41951,note_on,2,0,0,,0,,,60,127
42152,note_off,201,0,0,,11,,,70,127
42154,note_off,2,0,0,,0,,,60,127
42156,note_on,2,0,0,,5,,,65,127
42156,note_on,0,0,0,,8,,,68,127
42360,note_off,204,0,0,,7,,,79,127
42362,note_on,2,0,0,,4,,,76,127
42566,note_off,204,0,0,,4,,,76,127
42568,note_on,2,0,0,,5,,,77,127
42772,note_off,204,0,0,,5,,,77,127
42772,note_off,0,0,0,,8,,,68,127
42772,note_off,0,0,0,,5,,,65,127
42774,note_on,2,0,0,,0,,,72,127
42774,note_on,0,0,0,,7,,,67,127
42774,note_on,0,0,0,,3,,,63,127
42978,note_off,204,0,0,,3,,,63,127
42978,note_off,0,0,0,,7,,,67,127
42978,note_off,0,0,0,,0,,,72,127
42980,note_on,2,0,0,,12,,,71,127
42980,note_on,0,0,0,,2,,,62,127
42980,note_on,0,0,0,,5,,,65,127
43184,note_off,204,0,0,,12,,,71,127
43186,note_on,2,0,0,,5,,,77,127
43390,note_off,204,0,0,,5,,,65,127
43390,note_off,0,0,0,,2,,,62,127
43392,note_on,2,0,0,,7,,,67,127
43392,note_on,0,0,0,,0,,,60,127
43596,note_off,204,0,0,,5,,,77,127
43598,note_on,2,0,0,,3,,,75,127
43802,note_off,204,0,0,,3,,,75,127
43804,note_on,2,0,0,,7,,,79,127
44008,note_off,204,0,0,,7,,,79,127
44008,note_off,0,0,0,,0,,,60,127
44008,note_off,0,0,0,,7,,,67,127
44010,note_on,2,0,0,,0,,,72,127
44010,note_on,0,0,0,,7,,,67,127
44010,note_on,0,0,0,,3,,,63,127
44214,note_off,204,0,0,,3,,,63,127
44214,note_off,0,0,0,,7,,,67,127
44214,note_off,0,0,0,,0,,,72,127
44216,note_on,2,0,0,,12,,,71,127
44216,note_on,0,0,0,,2,,,62,127
44216,note_on,0,0,0,,5,,,65,127
44420,note_off,204,0,0,,12,,,71,127
44422,note_on,2,0,0,,5,,,77,127
44626,note_off,204,0,0,,5,,,65,127
44626,note_off,0,0,0,,2,,,62,127
44628,note_on,2,0,0,,0,,,60,127
44628,note_on,0,0,0,,7,,,67,127
44832,note_off,204,0,0,,5,,,77,127
44834,note_on,2,0,0,,3,,,75,127
44935,note_off,101,0,0,,3,,,75,127
44937,note_on,2,0,0,,2,,,74,127
45038,note_off,101,0,0,,2,,,74,127
45040,note_on,2,0,0,,3,,,75,127
45244,note_off,204,0,0,,3,,,75,127
45244,note_off,0,0,0,,7,,,67,127
45244,note_off,0,0,0,,0,,,60,127
45246,note_on,2,0,0,,2,,,74,127
45246,note_on,0,0,0,,11,,,58,127
45450,note_off,204,0,0,,2,,,74,127
45452,note_on,2,0,0,,2,,,74,127
45452,note_on,0,0,0,,3,,,63,127
45503,note_on,51,0,0,,0,,,72,127
45507,note_off,4,0,0,,2,,,74,127
45554,note_on,47,0,0,,2,,,74,127
45558,note_off,4,0,0,,0,,,72,127
45605,note_on,47,0,0,,0,,,72,127
45609,note_off,4,0,0,,2,,,74,127
45652,note_off,43,0,0,,11,,,58,127
45656,note_on,4,0,0,,2,,,74,127
45656,note_on,0,0,0,,8,,,56,127
45660,note_off,4,0,0,,0,,,72,127
45707,note_on,47,0,0,,0,,,72,127
45711,note_off,4,0,0,,2,,,74,127
45758,note_on,47,0,0,,2,,,74,127
45762,note_off,4,0,0,,0,,,72,127
45809,note_on,47,0,0,,0,,,72,127
45813,note_off,4,0,0,,2,,,74,127
45856,note_off,43,0,0,,3,,,63,127
45858,note_off,2,0,0,,8,,,56,127
45860,note_on,2,0,0,,11,,,70,127
45860,note_on,0,0,0,,3,,,63,127
45860,note_on,0,0,0,,7,,,55,127
45864,note_off,4,0,0,,0,,,72,127
46063,note_off,199,0,0,,11,,,70,127
46065,note_on,2,0,0,,3,,,75,127
46269,note_off,204,0,0,,3,,,75,127
46269,note_off,0,0,0,,7,,,55,127
46269,note_off,0,0,0,,3,,,63,127
46271,note_on,2,0,0,,0,,,72,127
46271,note_on,0,0,0,,8,,,56,127
46271,note_on,0,0,0,,3,,,63,127
46475,note_off,204,0,0,,3,,,63,127
46475,note_off,0,0,0,,8,,,56,127
46475,note_off,0,0,0,,0,,,72,127
46477,note_on,2,0,0,,11,,,70,127
46477,note_on,0,0,0,,3,,,63,127
46477,note_on,0,0,0,,7,,,55,127
46681,note_off,204,0,0,,7,,,55,127
46681,note_off,0,0,0,,11,,,70,127
46683,note_on,2,0,0,,11,,,70,127
46683,note_on,0,0,0,,5,,,53,127
46734,note_on,51,0,0,,8,,,68,127
46738,note_off,4,0,0,,11,,,70,127
46785,note_on,47,0,0,,11,,,70,127
46789,note_off,4,0,0,,8,,,68,127
46836,note_on,47,0,0,,8,,,68,127
46840,note_off,4,0,0,,11,,,70,127
46883,note_off,43,0,0,,3,,,63,127
46887,note_on,4,0,0,,11,,,70,127
46887,note_on,0,0,0,,2,,,62,127
46891,note_off,4,0,0,,8,,,68,127
46938,note_on,47,0,0,,8,,,68,127
46942,note_off,4,0,0,,11,,,70,127
46989,note_on,47,0,0,,11,,,70,127
46993,note_off,4,0,0,,8,,,68,127
47040,note_on,47,0,0,,8,,,68,127
47044,note_off,4,0,0,,11,,,70,127
47087,note_off,43,0,0,,5,,,53,127
47089,note_off,2,0,0,,8,,,68,127
47089,note_off,0,0,0,,2,,,62,127
47100,note_on,11,0,0,,7,,,67,127
47100,note_on,0,0,0,,7,,,79,127
47100,note_on,0,0,0,,11,,,58,127
47100,note_on,0,0,0,,3,,,51,127
47100,note_on,0,0,0,,3,,,63,127
47304,note_off,204,0,0,,7,,,79,127
47304,note_off,0,0,0,,7,,,67,127
47306,note_on,2,0,0,,3,,,75,127
47510,note_off,204,0,0,,3,,,75,127
47510,note_off,0,0,0,,3,,,63,127
47510,note_off,0,0,0,,3,,,51,127
47510,note_off,0,0,0,,11,,,58,127
47512,note_on,2,0,0,,0,,,72,127
47512,note_on,0,0,0,,8,,,56,127
47512,note_on,0,0,0,,3,,,63,127
47716,note_off,204,0,0,,3,,,63,127
47716,note_off,0,0,0,,8,,,56,127
47716,note_off,0,0,0,,0,,,72,127
47718,note_on,2,0,0,,11,,,70,127
47718,note_on,0,0,0,,7,,,55,127
47718,note_on,0,0,0,,3,,,63,127
47922,note_off,204,0,0,,7,,,55,127
47922,note_off,0,0,0,,11,,,70,127
47924,note_on,2,0,0,,11,,,70,127
47924,note_on,0,0,0,,5,,,53,127
47975,note_on,51,0,0,,8,,,68,127
47979,note_off,4,0,0,,11,,,70,127
48026,note_on,47,0,0,,11,,,70,127
48030,note_off,4,0,0,,8,,,68,127
48077,note_on,47,0,0,,8,,,68,127
48081,note_off,4,0,0,,11,,,70,127
48124,note_off,43,0,0,,3,,,63,127
48128,note_on,4,0,0,,11,,,70,127
48128,note_on,0,0,0,,2,,,62,127
48132,note_off,4,0,0,,8,,,68,127
48179,note_on,47,0,0,,8,,,68,127
48183,note_off,4,0,0,,11,,,70,127
48230,note_on,47,0,0,,11,,,70,127
48234,note_off,4,0,0,,8,,,68,127
48281,note_on,47,0,0,,8,,,68,127
48285,note_off,4,0,0,,11,,,70,127
48328,note_off,43,0,0,,5,,,53,127
48329,note_off,1,0,0,,8,,,68,127
48330,note_off,1,0,0,,2,,,62,127
48341,note_on,11,0,0,,7,,,79,127
48341,note_on,0,0,0,,7,,,67,127
48341,note_on,0,0,0,,3,,,51,127
48341,note_on,0,0,0,,3,,,63,127
48341,note_on,0,0,0,,11,,,58,127
48545,note_off,204,0,0,,7,,,67,127
48545,note_off,0,0,0,,7,,,79,127
48547,note_on,2,0,0,,3,,,75,127
48751,note_off,204,0,0,,3,,,75,127
48751,note_off,0,0,0,,11,,,58,127
48751,note_off,0,0,0,,3,,,63,127
48751,note_off,0,0,0,,3,,,51,127
48753,note_on,2,0,0,,0,,,72,127
48753,note_on,0,0,0,,8,,,56,127
48753,note_on,0,0,0,,3,,,63,127
48957,note_off,204,0,0,,8,,,56,127
48957,note_off,0,0,0,,0,,,72,127
48959,note_on,2,0,0,,11,,,70,127
48959,note_on,0,0,0,,7,,,55,127
49163,note_off,204,0,0,,7,,,55,127
49163,note_off,0,0,0,,11,,,70,127
49165,note_on,2,0,0,,11,,,70,127
49165,note_on,0,0,0,,5,,,53,127
49216,note_on,51,0,0,,8,,,68,127
49220,note_off,4,0,0,,11,,,70,127
49267,note_on,47,0,0,,11,,,70,127
49271,note_off,4,0,0,,8,,,68,127
49318,note_on,47,0,0,,8,,,68,127
49322,note_off,4,0,0,,11,,,70,127
49368,note_off,46,0,0,,3,,,63,127
49369,note_on,1,0,0,,11,,,70,127
49369,note_on,0,0,0,,2,,,62,127
49373,note_off,4,0,0,,8,,,68,127
49420,note_on,47,0,0,,8,,,68,127
49424,note_off,4,0,0,,11,,,70,127
49471,note_on,47,0,0,,11,,,70,127
49475,note_off,4,0,0,,8,,,68,127
49522,note_on,47,0,0,,8,,,68,127
49526,note_off,4,0,0,,11,,,70,127
49569,note_off,43,0,0,,5,,,53,127
49571,note_off,2,0,0,,2,,,62,127
49573,note_on,2,0,0,,7,,,67,127
49573,note_on,0,0,0,,3,,,51,127
49577,note_off,4,0,0,,8,,,68,127
49773,note_off,196,0,0,,7,,,67,127
49776,note_off,3,0,0,,3,,,51,127
49787,note_on,11,0,0,,11,,,70,127
49787,note_on,0,0,0,,7,,,79,127
49787,note_on,0,0,0,,3,,,63,127
49991,note_off,204,0,0,,3,,,63,127
49993,note_on,2,0,0,,2,,,62,127
50197,note_off,204,0,0,,2,,,62,127
50197,note_off,0,0,0,,7,,,79,127
50197,note_off,0,0,0,,11,,,70,127
50199,note_on,2,0,0,,10,,,69,127
50199,note_on,0,0,0,,6,,,78,127
50199,note_on,0,0,0,,0,,,60,127
50403,note_off,204,0,0,,0,,,60,127
50403,note_off,0,0,0,,6,,,78,127
50403,note_off,0,0,0,,10,,,69,127
50405,note_on,2,0,0,,11,,,70,127
50405,note_on,0,0,0,,7,,,79,127
50405,note_on,0,0,0,,11,,,58,127
50609,note_off,204,0,0,,11,,,58,127
50609,note_off,0,0,0,,7,,,79,127
50609,note_off,0,0,0,,11,,,70,127
50611,note_on,2,0,0,,0,,,72,127
50611,note_on,0,0,0,,10,,,81,127
50611,note_on,0,0,0,,10,,,57,127
50815,note_off,204,0,0,,10,,,57,127
50815,note_off,0,0,0,,10,,,81,127
50815,note_off,0,0,0,,0,,,72,127
50817,note_on,2,0,0,,11,,,82,127
50817,note_on,0,0,0,,2,,,74,127
50817,note_on,0,0,0,,7,,,55,127
51021,note_off,204,0,0,,2,,,74,127
51021,note_off,0,0,0,,11,,,82,127
51023,note_on,2,0,0,,10,,,81,127
51124,note_off,101,0,0,,10,,,81,127
51126,note_on,2,0,0,,7,,,79,127
51227,note_off,101,0,0,,7,,,79,127
51229,note_on,2,0,0,,5,,,77,127
51330,note_off,101,0,0,,5,,,77,127
51332,note_on,2,0,0,,4,,,76,127
51433,note_off,101,0,0,,4,,,76,127
51433,note_off,0,0,0,,7,,,55,127
51435,note_on,2,0,0,,2,,,74,127
51435,note_on,0,0,0,,7,,,67,127
51435,note_on,0,0,0,,11,,,58,127
51639,note_off,204,0,0,,11,,,58,127
51639,note_off,0,0,0,,7,,,67,127
51641,note_on,2,0,0,,10,,,57,127
51641,note_on,0,0,0,,5,,,65,127
51845,note_off,204,0,0,,5,,,65,127
51845,note_off,0,0,0,,2,,,74,127
51847,note_on,2,0,0,,1,,,73,127
51847,note_on,0,0,0,,4,,,64,127
52048,note_off,201,0,0,,10,,,57,127
52050,note_off,2,0,0,,4,,,64,127
52050,note_off,0,0,0,,1,,,73,127
52052,note_on,2,0,0,,2,,,74,127
52052,note_on,0,0,0,,5,,,65,127
52052,note_on,0,0,0,,2,,,62,127
52256,note_off,204,0,0,,5,,,65,127
52256,note_off,0,0,0,,2,,,74,127
52258,note_on,2,0,0,,4,,,76,127
52258,note_on,0,0,0,,4,,,64,127
52459,note_off,201,0,0,,2,,,62,127
52461,note_off,2,0,0,,4,,,64,127
52461,note_off,0,0,0,,4,,,76,127
52463,note_on,2,0,0,,5,,,77,127
52463,note_on,0,0,0,,2,,,62,127
52463,note_on,0,0,0,,5,,,65,127
52667,note_off,204,0,0,,5,,,65,127
52667,note_off,0,0,0,,2,,,62,127
52667,note_off,0,0,0,,5,,,77,127
52669,note_on,2,0,0,,7,,,79,127
52669,note_on,0,0,0,,4,,,64,127
52669,note_on,0,0,0,,0,,,60,127
52873,note_off,204,0,0,,0,,,60,127
52873,note_off,0,0,0,,4,,,64,127
52875,note_on,2,0,0,,12,,,59,127
52875,note_on,0,0,0,,2,,,62,127
53079,note_off,204,0,0,,2,,,62,127
53079,note_off,0,0,0,,12,,,59,127
53079,note_off,0,0,0,,7,,,79,127
53081,note_on,2,0,0,,7,,,79,127
53081,note_on,0,0,0,,0,,,60,127
53081,note_on,0,0,0,,4,,,64,127
53259,note_off,178,0,0,,4,,,64,127
53274,note_off,15,0,0,,7,,,79,127
53285,note_off,11,0,0,,0,,,60,127
53287,note_on,2,0,0,,11,,,82,127
53287,note_on,0,0,0,,5,,,65,127
53287,note_on,0,0,0,,5,,,53,127
53388,note_off,101,0,0,,11,,,82,127
53390,note_on,2,0,0,,8,,,80,127
53491,note_off,101,0,0,,8,,,80,127
53493,note_on,2,0,0,,7,,,79,127
53594,note_off,101,0,0,,7,,,79,127
53596,note_on,2,0,0,,5,,,77,127
53697,note_off,101,0,0,,5,,,77,127
53699,note_on,2,0,0,,3,,,75,127
53800,note_off,101,0,0,,3,,,75,127
53802,note_on,2,0,0,,2,,,74,127
53903,note_off,101,0,0,,2,,,74,127
53903,note_off,0,0,0,,5,,,53,127
53903,note_off,0,0,0,,5,,,65,127
53905,note_on,2,0,0,,0,,,72,127
53905,note_on,0,0,0,,5,,,65,127
53905,note_on,0,0,0,,8,,,56,127
54109,note_off,204,0,0,,8,,,56,127
54109,note_off,0,0,0,,5,,,65,127
54111,note_on,2,0,0,,3,,,63,127
54111,note_on,0,0,0,,7,,,55,127
54315,note_off,204,0,0,,3,,,63,127
54315,note_off,0,0,0,,0,,,72,127
54317,note_on,2,0,0,,12,,,71,127
54317,note_on,0,0,0,,2,,,62,127
54518,note_off,201,0,0,,7,,,55,127
54520,note_off,2,0,0,,2,,,62,127
54520,note_off,0,0,0,,12,,,71,127
54522,note_on,2,0,0,,0,,,72,127
54522,note_on,0,0,0,,0,,,60,127
54522,note_on,0,0,0,,3,,,63,127
54726,note_off,204,0,0,,3,,,63,127
54726,note_off,0,0,0,,0,,,72,127
54728,note_on,2,0,0,,2,,,74,127
54728,note_on,0,0,0,,2,,,62,127
54929,note_off,201,0,0,,0,,,60,127
54931,note_off,2,0,0,,2,,,62,127
54931,note_off,0,0,0,,2,,,74,127
54933,note_on,2,0,0,,3,,,75,127
54933,note_on,0,0,0,,3,,,63,127
54933,note_on,0,0,0,,0,,,60,127
55137,note_off,204,0,0,,0,,,60,127
55137,note_off,0,0,0,,3,,,63,127
55137,note_off,0,0,0,,3,,,75,127
55139,note_on,2,0,0,,4,,,76,127
55139,note_on,0,0,0,,2,,,62,127
55139,note_on,0,0,0,,11,,,58,127
55343,note_off,204,0,0,,11,,,58,127
55343,note_off,0,0,0,,2,,,62,127
55343,note_off,0,0,0,,4,,,76,127
55345,note_on,2,0,0,,5,,,77,127
55345,note_on,0,0,0,,0,,,60,127
55345,note_on,0,0,0,,10,,,57,127
55549,note_off,204,0,0,,10,,,57,127
55549,note_off,0,0,0,,0,,,60,127
55551,note_on,2,0,0,,2,,,62,127
55551,note_on,0,0,0,,11,,,58,127
55755,note_off,204,0,0,,11,,,58,127
55755,note_off,0,0,0,,2,,,62,127
55755,note_off,0,0,0,,5,,,77,127
55757,note_on,2,0,0,,7,,,79,127
55757,note_on,0,0,0,,3,,,51,127
55757,note_on,0,0,0,,3,,,63,127
55961,note_off,204,0,0,,7,,,79,127
55963,note_on,2,0,0,,5,,,77,127
56064,note_off,101,0,0,,5,,,77,127
56066,note_on,2,0,0,,3,,,75,127
56167,note_off,101,0,0,,3,,,75,127
56169,note_on,2,0,0,,2,,,74,127
56270,note_off,101,0,0,,2,,,74,127
56272,note_on,2,0,0,,0,,,72,127
56373,note_off,101,0,0,,0,,,72,127
56373,note_off,0,0,0,,3,,,63,127
56373,note_off,0,0,0,,3,,,51,127
56375,note_on,2,0,0,,11,,,70,127
56375,note_on,0,0,0,,7,,,55,127
56375,note_on,0,0,0,,3,,,63,127
56579,note_off,204,0,0,,3,,,63,127
56579,note_off,0,0,0,,7,,,55,127
56581,note_on,2,0,0,,2,,,62,127
56581,note_on,0,0,0,,5,,,53,127
56785,note_off,204,0,0,,2,,,62,127
56785,note_off,0,0,0,,11,,,70,127
56787,note_on,2,0,0,,10,,,69,127
56787,note_on,0,0,0,,0,,,60,127
56988,note_off,201,0,0,,5,,,53,127
56990,note_off,2,0,0,,0,,,60,127
56990,note_off,0,0,0,,10,,,69,127
56992,note_on,2,0,0,,11,,,70,127
56992,note_on,0,0,0,,11,,,58,127
56992,note_on,0,0,0,,2,,,62,127
57196,note_off,204,0,0,,2,,,62,127
57196,note_off,0,0,0,,11,,,70,127
57198,note_on,2,0,0,,0,,,72,127
57198,note_on,0,0,0,,0,,,60,127
57301,note_off,103,0,0,,11,,,58,127
57402,note_off,101,0,0,,0,,,60,127
57402,note_off,0,0,0,,0,,,72,127
57404,note_on,2,0,0,,2,,,74,127
57404,note_on,0,0,0,,11,,,58,127
57505,note_off,101,0,0,,2,,,74,127
57507,note_on,2,0,0,,5,,,77,127
57608,note_off,101,0,0,,5,,,77,127
57610,note_on,2,0,0,,3,,,75,127
57610,note_on,0,0,0,,7,,,55,127
57711,note_off,101,0,0,,3,,,75,127
57713,note_on,2,0,0,,2,,,74,127
57812,note_off,99,0,0,,11,,,58,127
57814,note_off,2,0,0,,2,,,74,127
57814,note_off,0,0,0,,7,,,55,127
57816,note_on,2,0,0,,0,,,72,127
57816,note_on,0,0,0,,3,,,51,127
57816,note_on,0,0,0,,0,,,60,127
57917,note_off,101,0,0,,0,,,72,127
57919,note_on,2,0,0,,11,,,70,127
58020,note_off,101,0,0,,11,,,70,127
58020,note_off,0,0,0,,3,,,51,127
58022,note_on,2,0,0,,10,,,69,127
58022,note_on,0,0,0,,4,,,52,127
58123,note_off,101,0,0,,10,,,69,127
58125,note_on,2,0,0,,7,,,67,127
58224,note_off,99,0,0,,0,,,60,127
58226,note_off,2,0,0,,7,,,67,127
58226,note_off,0,0,0,,4,,,52,127
58228,note_on,2,0,0,,5,,,65,127
58228,note_on,0,0,0,,5,,,53,127
58432,note_off,204,0,0,,5,,,53,127
58434,note_on,2,0,0,,0,,,60,127
58434,note_on,0,0,0,,10,,,57,127
58635,note_off,201,0,0,,5,,,65,127
58637,note_off,2,0,0,,10,,,57,127
58637,note_off,0,0,0,,0,,,60,127
58639,note_on,2,0,0,,2,,,62,127
58639,note_on,0,0,0,,11,,,58,127
58843,note_off,204,0,0,,11,,,58,127
58843,note_off,0,0,0,,2,,,62,127
58845,note_on,2,0,0,,3,,,63,127
58845,note_on,0,0,0,,7,,,55,127
59049,note_off,204,0,0,,7,,,55,127
59049,note_off,0,0,0,,3,,,63,127
59051,note_on,2,0,0,,4,,,64,127
59051,note_on,0,0,0,,5,,,53,127
59255,note_off,204,0,0,,4,,,64,127
59257,note_on,2,0,0,,5,,,65,127
59461,note_off,204,0,0,,5,,,65,127
59463,note_on,2,0,0,,0,,,60,127
59667,note_off,204,0,0,,0,,,60,127
59667,note_off,0,0,0,,5,,,53,127
59669,note_on,2,0,0,,0,,,60,127
59669,note_on,0,0,0,,10,,,57,127
59873,note_off,204,0,0,,10,,,57,127
59873,note_off,0,0,0,,0,,,60,127
59875,note_on,2,0,0,,2,,,62,127
59875,note_on,0,0,0,,11,,,58,127
60079,note_off,204,0,0,,11,,,58,127
60079,note_off,0,0,0,,2,,,62,127
60081,note_on,2,0,0,,3,,,63,127
60081,note_on,0,0,0,,7,,,55,127
60285,note_off,204,0,0,,7,,,55,127
60285,note_off,0,0,0,,3,,,63,127
60287,note_on,2,0,0,,4,,,64,127
60287,note_on,0,0,0,,5,,,53,127
60491,note_off,204,0,0,,4,,,64,127
60493,note_on,2,0,0,,5,,,65,127
60697,note_off,204,0,0,,5,,,65,127
60699,note_on,2,0,0,,0,,,60,127
60903,note_off,204,0,0,,0,,,60,127
60903,note_off,0,0,0,,5,,,53,127
60905,note_on,2,0,0,,0,,,60,127
60905,note_on,0,0,0,,10,,,57,127
61109,note_off,204,0,0,,10,,,57,127
61109,note_off,0,0,0,,0,,,60,127
61111,note_on,2,0,0,,2,,,62,127
61111,note_on,0,0,0,,11,,,58,127
61315,note_off,204,0,0,,11,,,58,127
61315,note_off,0,0,0,,2,,,62,127
61317,note_on,2,0,0,,4,,,64,127
61317,note_on,0,0,0,,7,,,55,127
61521,note_off,204,0,0,,7,,,55,127
61521,note_off,0,0,0,,4,,,64,127
61523,note_on,2,0,0,,5,,,65,127
61523,note_on,0,0,0,,5,,,53,127
61727,note_off,204,0,0,,5,,,53,127
61727,note_off,0,0,0,,5,,,65,127
61729,note_on,2,0,0,,0,,,60,127
61729,note_on,0,0,0,,0,,,72,127
61729,note_on,0,0,0,,5,,,53,127
61729,note_on,0,0,0,,10,,,57,127
61933,note_off,204,0,0,,10,,,57,127
61933,note_off,0,0,0,,5,,,53,127
61933,note_off,0,0,0,,0,,,72,127
61933,note_off,0,0,0,,0,,,60,127
61935,note_on,2,0,0,,2,,,62,127
61935,note_on,0,0,0,,11,,,70,127
61935,note_on,0,0,0,,5,,,53,127
61935,note_on,0,0,0,,11,,,58,127
62139,note_off,204,0,0,,11,,,58,127
62139,note_off,0,0,0,,5,,,53,127
62139,note_off,0,0,0,,11,,,70,127
62139,note_off,0,0,0,,2,,,62,127
62141,note_on,2,0,0,,3,,,63,127
62141,note_on,0,0,0,,10,,,69,127
62141,note_on,0,0,0,,5,,,53,127
62141,note_on,0,0,0,,0,,,60,127
62345,note_off,204,0,0,,0,,,60,127
62345,note_off,0,0,0,,5,,,53,127
62345,note_off,0,0,0,,10,,,69,127
62345,note_off,0,0,0,,3,,,63,127
62347,note_on,2,0,0,,11,,,70,127
62347,note_on,0,0,0,,5,,,65,127
62347,note_on,0,0,0,,2,,,62,127
62347,note_on,0,0,0,,5,,,53,127
62551,note_off,204,0,0,,5,,,53,127
62551,note_off,0,0,0,,2,,,62,127
62551,note_off,0,0,0,,5,,,65,127
62551,note_off,0,0,0,,11,,,70,127
62553,note_on,2,0,0,,7,,,67,127
62553,note_on,0,0,0,,5,,,53,127
62553,note_on,0,0,0,,3,,,63,127
62757,note_off,204,0,0,,3,,,63,127
62757,note_off,0,0,0,,5,,,53,127
62757,note_off,0,0,0,,7,,,67,127
62759,note_on,2,0,0,,5,,,65,127
62759,note_on,0,0,0,,5,,,53,127
62759,note_on,0,0,0,,2,,,62,127
62963,note_off,204,0,0,,2,,,62,127
62963,note_off,0,0,0,,5,,,53,127
62963,note_off,0,0,0,,5,,,65,127
62965,note_on,2,0,0,,3,,,63,127
62965,note_on,0,0,0,,5,,,53,127
62965,note_on,0,0,0,,0,,,60,127
63169,note_off,204,0,0,,0,,,60,127
63169,note_off,0,0,0,,5,,,53,127
63169,note_off,0,0,0,,3,,,63,127
63171,note_on,2,0,0,,2,,,62,127
63171,note_on,0,0,0,,11,,,58,127
63171,note_on,0,0,0,,5,,,53,127
63375,note_off,204,0,0,,5,,,53,127
63375,note_off,0,0,0,,11,,,58,127
63375,note_off,0,0,0,,2,,,62,127
63377,note_on,2,0,0,,0,,,72,127
63377,note_on,0,0,0,,0,,,60,127
63377,note_on,0,0,0,,10,,,57,127
63377,note_on,0,0,0,,5,,,53,127
63581,note_off,204,0,0,,5,,,53,127
63581,note_off,0,0,0,,10,,,57,127
63581,note_off,0,0,0,,0,,,60,127
63581,note_off,0,0,0,,0,,,72,127
63583,note_on,2,0,0,,2,,,62,127
63583,note_on,0,0,0,,11,,,70,127
63583,note_on,0,0,0,,11,,,58,127
63583,note_on,0,0,0,,5,,,53,127
63787,note_off,204,0,0,,5,,,53,127
63787,note_off,0,0,0,,11,,,58,127
63787,note_off,0,0,0,,11,,,70,127
63787,note_off,0,0,0,,2,,,62,127
63789,note_on,2,0,0,,3,,,63,127
63789,note_on,0,0,0,,10,,,69,127
63789,note_on,0,0,0,,5,,,53,127
63789,note_on,0,0,0,,0,,,60,127
63993,note_off,204,0,0,,0,,,60,127
63993,note_off,0,0,0,,5,,,53,127
63993,note_off,0,0,0,,10,,,69,127
63993,note_off,0,0,0,,3,,,63,127
63995,note_on,2,0,0,,5,,,65,127
63995,note_on,0,0,0,,11,,,70,127
63995,note_on,0,0,0,,5,,,53,127
63995,note_on,0,0,0,,2,,,62,127
64199,note_off,204,0,0,,2,,,62,127
64199,note_off,0,0,0,,5,,,53,127
64199,note_off,0,0,0,,11,,,70,127
64199,note_off,0,0,0,,5,,,65,127
64201,note_on,2,0,0,,7,,,67,127
64201,note_on,0,0,0,,3,,,63,127
64201,note_on,0,0,0,,5,,,53,127
64405,note_off,204,0,0,,5,,,53,127
64405,note_off,0,0,0,,3,,,63,127
64405,note_off,0,0,0,,7,,,67,127
64407,note_on,2,0,0,,5,,,65,127
64407,note_on,0,0,0,,2,,,62,127
64407,note_on,0,0,0,,5,,,53,127
64611,note_off,204,0,0,,5,,,53,127
64611,note_off,0,0,0,,2,,,62,127
64611,note_off,0,0,0,,5,,,65,127
64613,note_on,2,0,0,,3,,,63,127
64613,note_on,0,0,0,,0,,,60,127
64613,note_on,0,0,0,,5,,,53,127
64817,note_off,204,0,0,,5,,,53,127
64817,note_off,0,0,0,,0,,,60,127
64817,note_off,0,0,0,,3,,,63,127
64819,note_on,2,0,0,,2,,,62,127
64819,note_on,0,0,0,,11,,,58,127
64819,note_on,0,0,0,,5,,,53,127
65023,note_off,204,0,0,,5,,,53,127
65023,note_off,0,0,0,,11,,,58,127
65023,note_off,0,0,0,,2,,,62,127
65025,note_on,2,0,0,,0,,,60,127
65025,note_on,0,0,0,,5,,,53,127
65025,note_on,0,0,0,,10,,,57,127
65229,note_off,204,0,0,,10,,,57,127
65229,note_off,0,0,0,,5,,,53,127
65229,note_off,0,0,0,,0,,,60,127
65231,note_on,2,0,0,,2,,,62,127
65231,note_on,0,0,0,,11,,,58,127
65332,note_off,101,0,0,,11,,,58,127
65332,note_off,0,0,0,,2,,,62,127
65334,note_on,2,0,0,,5,,,65,127
65334,note_on,0,0,0,,5,,,53,127
65435,note_off,101,0,0,,5,,,53,127
65435,note_off,0,0,0,,5,,,65,127
65437,note_on,2,0,0,,11,,,70,127
65437,note_on,0,0,0,,2,,,50,127
65538,note_off,101,0,0,,2,,,50,127
65538,note_off,0,0,0,,11,,,70,127
65540,note_on,2,0,0,,0,,,72,127
65540,note_on,0,0,0,,0,,,48,127
65641,note_off,101,0,0,,0,,,48,127
65641,note_off,0,0,0,,0,,,72,127
65643,note_on,2,0,0,,2,,,74,127
65643,note_on,0,0,0,,11,,,46,127
65847,note_off,204,0,0,,11,,,46,127
65847,note_off,0,0,0,,2,,,74,127
65849,note_on,2,0,0,,7,,,67,127
65849,note_on,0,0,0,,3,,,75,127
65849,note_on,0,0,0,,3,,,51,127
66053,note_off,204,0,0,,3,,,51,127
66053,note_off,0,0,0,,7,,,67,127
66055,note_on,2,0,0,,10,,,69,127
66055,note_on,0,0,0,,5,,,53,127
66256,note_off,201,0,0,,3,,,75,127
66258,note_off,2,0,0,,5,,,53,127
66260,note_on,2,0,0,,0,,,72,127
66260,note_on,0,0,0,,5,,,41,127
66431,note_off,171,0,0,,0,,,72,127
66461,note_off,30,0,0,,10,,,69,127
66463,note_off,2,0,0,,5,,,41,127
66465,note_on,2,0,0,,2,,,62,127
66465,note_on,0,0,0,,11,,,58,127
66566,note_off,101,0,0,,11,,,58,127
66566,note_off,0,0,0,,2,,,62,127
66568,note_on,2,0,0,,5,,,65,127
66568,note_on,0,0,0,,5,,,53,127
66669,note_off,101,0,0,,5,,,53,127
66669,note_off,0,0,0,,5,,,65,127
66671,note_on,2,0,0,,11,,,70,127
66671,note_on,0,0,0,,2,,,50,127
66772,note_off,101,0,0,,2,,,50,127
66772,note_off,0,0,0,,11,,,70,127
66774,note_on,2,0,0,,0,,,72,127
66774,note_on,0,0,0,,0,,,48,127
66875,note_off,101,0,0,,0,,,48,127
66875,note_off,0,0,0,,0,,,72,127
66877,note_on,2,0,0,,2,,,74,127
66877,note_on,0,0,0,,11,,,46,127
67081,note_off,204,0,0,,11,,,46,127
67081,note_off,0,0,0,,2,,,74,127
67083,note_on,2,0,0,,7,,,67,127
67083,note_on,0,0,0,,3,,,75,127
67083,note_on,0,0,0,,3,,,51,127
67287,note_off,204,0,0,,3,,,51,127
67287,note_off,0,0,0,,7,,,67,127
67289,note_on,2,0,0,,10,,,69,127
67289,note_on,0,0,0,,5,,,53,127
67490,note_off,201,0,0,,3,,,75,127
67492,note_off,2,0,0,,5,,,53,127
67494,note_on,2,0,0,,0,,,72,127
67494,note_on,0,0,0,,5,,,41,127
67676,note_off,182,0,0,,0,,,72,127
67695,note_off,19,0,0,,10,,,69,127
67697,note_off,2,0,0,,5,,,41,127
67699,note_on,2,0,0,,2,,,74,127
67699,note_on,0,0,0,,11,,,46,127
67800,note_off,101,0,0,,2,,,74,127
67802,note_on,2,0,0,,11,,,70,127
67903,note_off,101,0,0,,11,,,70,127
67903,note_off,0,0,0,,11,,,46,127
67905,note_on,2,0,0,,3,,,75,127
67905,note_on,0,0,0,,0,,,48,127
68006,note_off,101,0,0,,3,,,75,127
68008,note_on,2,0,0,,0,,,72,127
68109,note_off,101,0,0,,0,,,72,127
68109,note_off,0,0,0,,0,,,48,127
68111,note_on,2,0,0,,5,,,77,127
68111,note_on,0,0,0,,2,,,50,127
68212,note_off,101,0,0,,5,,,77,127
68214,note_on,2,0,0,,7,,,79,127
68315,note_off,101,0,0,,7,,,79,127
68315,note_off,0,0,0,,2,,,50,127
68317,note_on,2,0,0,,5,,,77,127
68317,note_on,0,0,0,,3,,,51,127
68418,note_off,101,0,0,,5,,,77,127
68420,note_on,2,0,0,,3,,,75,127
68521,note_off,101,0,0,,3,,,75,127
68521,note_off,0,0,0,,3,,,51,127
68523,note_on,2,0,0,,2,,,74,127
68523,note_on,0,0,0,,5,,,53,127
68624,note_off,101,0,0,,2,,,74,127
68626,note_on,2,0,0,,0,,,72,127
68718,note_off,92,0,0,,0,,,72,127
68727,note_off,9,0,0,,5,,,53,127
68738,note_on,11,0,0,,5,,,65,127
68738,note_on,0,0,0,,2,,,62,127
68839,note_off,101,0,0,,2,,,62,127
68839,note_off,0,0,0,,5,,,65,127
68841,note_on,2,0,0,,11,,,70,127
68841,note_on,0,0,0,,11,,,58,127
68942,note_off,101,0,0,,11,,,58,127
68942,note_off,0,0,0,,11,,,70,127
68944,note_on,2,0,0,,2,,,74,127
68944,note_on,0,0,0,,5,,,53,127
69045,note_off,101,0,0,,5,,,53,127
69045,note_off,0,0,0,,2,,,74,127
69047,note_on,2,0,0,,3,,,75,127
69047,note_on,0,0,0,,3,,,51,127
69148,note_off,101,0,0,,3,,,51,127
69148,note_off,0,0,0,,3,,,75,127
69150,note_on,2,0,0,,5,,,77,127
69150,note_on,0,0,0,,2,,,50,127
69354,note_off,204,0,0,,2,,,50,127
69354,note_off,0,0,0,,5,,,77,127
69356,note_on,2,0,0,,5,,,65,127
69356,note_on,0,0,0,,2,,,62,127
69457,note_off,101,0,0,,2,,,62,127
69457,note_off,0,0,0,,5,,,65,127
69459,note_on,2,0,0,,11,,,70,127
69459,note_on,0,0,0,,11,,,58,127
69560,note_off,101,0,0,,11,,,58,127
69560,note_off,0,0,0,,11,,,70,127
69562,note_on,2,0,0,,2,,,74,127
69562,note_on,0,0,0,,5,,,53,127
69663,note_off,101,0,0,,5,,,53,127
69663,note_off,0,0,0,,2,,,74,127
69665,note_on,2,0,0,,3,,,75,127
69665,note_on,0,0,0,,3,,,51,127
69766,note_off,101,0,0,,3,,,51,127
69766,note_off,0,0,0,,3,,,75,127
69768,note_on,2,0,0,,5,,,77,127
69768,note_on,0,0,0,,2,,,50,127
69972,note_off,204,0,0,,2,,,50,127
69972,note_off,0,0,0,,5,,,77,127
69974,note_on,2,0,0,,2,,,62,127
69974,note_on,0,0,0,,11,,,58,127
70075,note_off,101,0,0,,11,,,58,127
70075,note_off,0,0,0,,2,,,62,127
70077,note_on,2,0,0,,5,,,65,127
70077,note_on,0,0,0,,5,,,53,127
70178,note_off,101,0,0,,5,,,53,127
70178,note_off,0,0,0,,5,,,65,127
70180,note_on,2,0,0,,11,,,70,127
70180,note_on,0,0,0,,2,,,50,127
70281,note_off,101,0,0,,2,,,50,127
70281,note_off,0,0,0,,11,,,70,127
70283,note_on,2,0,0,,0,,,72,127
70283,note_on,0,0,0,,0,,,48,127
70384,note_off,101,0,0,,0,,,48,127
70384,note_off,0,0,0,,0,,,72,127
70386,note_on,2,0,0,,2,,,74,127
70386,note_on,0,0,0,,11,,,46,127
70590,note_off,204,0,0,,11,,,46,127
70590,note_off,0,0,0,,2,,,74,127
70592,note_on,2,0,0,,2,,,62,127
70592,note_on,0,0,0,,11,,,58,127
70693,note_off,101,0,0,,11,,,58,127
70693,note_off,0,0,0,,2,,,62,127
70695,note_on,2,0,0,,5,,,65,127
70695,note_on,0,0,0,,5,,,53,127
70796,note_off,101,0,0,,5,,,53,127
70796,note_off,0,0,0,,5,,,65,127
70798,note_on,2,0,0,,11,,,70,127
70798,note_on,0,0,0,,2,,,50,127
70899,note_off,101,0,0,,2,,,50,127
70899,note_off,0,0,0,,11,,,70,127
70901,note_on,2,0,0,,0,,,72,127
70901,note_on,0,0,0,,0,,,48,127
71002,note_off,101,0,0,,0,,,48,127
71002,note_off,0,0,0,,0,,,72,127
71004,note_on,2,0,0,,2,,,74,127
71004,note_on,0,0,0,,11,,,46,127
71196,note_off,192,0,0,,2,,,74,127
71208,note_off,12,0,0,,11,,,46,127
71219,note_on,11,0,0,,7,,,79,127
71219,note_on,0,0,0,,3,,,51,127
71423,note_off,204,0,0,,3,,,51,127
71423,note_off,0,0,0,,7,,,79,127
71425,note_on,2,0,0,,5,,,77,127
71425,note_on,0,0,0,,5,,,53,127
71526,note_off,101,0,0,,5,,,77,127
71528,note_on,2,0,0,,3,,,75,127
71629,note_off,101,0,0,,3,,,75,127
71631,note_on,2,0,0,,2,,,74,127
71631,note_on,0,0,0,,5,,,41,127
71732,note_off,101,0,0,,2,,,74,127
71734,note_on,2,0,0,,0,,,72,127
71820,note_off,86,0,0,,5,,,41,127
71829,note_off,9,0,0,,0,,,72,127
71833,note_off,4,0,0,,5,,,53,127
71854,note_on,21,0,0,,11,,,46,127
71854,note_on,0,0,0,,2,,,86,127
72058,note_off,204,0,0,,11,,,46,127
72060,note_on,2,0,0,,0,,,48,127
72264,note_off,204,0,0,,0,,,48,127
72266,note_on,2,0,0,,2,,,50,127
72470,note_off,204,0,0,,2,,,50,127
72472,note_on,2,0,0,,3,,,51,127
72676,note_off,204,0,0,,3,,,51,127
72676,note_off,0,0,0,,2,,,86,127
72678,note_on,2,0,0,,5,,,53,127
72678,note_on,0,0,0,,0,,,84,127
72779,note_off,101,0,0,,0,,,84,127
72781,note_on,2,0,0,,11,,,82,127
72882,note_off,101,0,0,,11,,,82,127
72882,note_off,0,0,0,,5,,,53,127
72884,note_on,2,0,0,,7,,,55,127
72884,note_on,0,0,0,,10,,,81,127
72985,note_off,101,0,0,,10,,,81,127
72987,note_on,2,0,0,,7,,,79,127
73088,note_off,101,0,0,,7,,,79,127
73088,note_off,0,0,0,,7,,,55,127
73090,note_on,2,0,0,,10,,,57,127
73090,note_on,0,0,0,,5,,,77,127
73191,note_off,101,0,0,,5,,,77,127
73193,note_on,2,0,0,,3,,,75,127
73294,note_off,101,0,0,,3,,,75,127
73294,note_off,0,0,0,,10,,,57,127
73296,note_on,2,0,0,,5,,,53,127
73296,note_on,0,0,0,,2,,,74,127
73397,note_off,101,0,0,,2,,,74,127
73399,note_on,2,0,0,,0,,,72,127
73500,note_off,101,0,0,,0,,,72,127
73500,note_off,0,0,0,,5,,,53,127
73502,note_on,2,0,0,,11,,,58,127
73502,note_on,0,0,0,,2,,,74,127
73603,note_off,101,0,0,,2,,,74,127
73605,note_on,2,0,0,,3,,,75,127
73706,note_off,101,0,0,,3,,,75,127
73706,note_off,0,0,0,,11,,,58,127
73708,note_on,2,0,0,,3,,,51,127
73708,note_on,0,0,0,,5,,,77,127
73809,note_off,101,0,0,,5,,,77,127
73811,note_on,2,0,0,,3,,,75,127
73912,note_off,101,0,0,,3,,,75,127
73912,note_off,0,0,0,,3,,,51,127
73914,note_on,2,0,0,,5,,,53,127
73914,note_on,0,0,0,,2,,,74,127
74015,note_off,101,0,0,,2,,,74,127
74017,note_on,2,0,0,,0,,,72,127
74118,note_off,101,0,0,,0,,,72,127
74120,note_on,2,0,0,,5,,,41,127
74120,note_on,0,0,0,,11,,,70,127
74221,note_off,101,0,0,,11,,,70,127
74223,note_on,2,0,0,,10,,,69,127
74317,note_off,94,0,0,,10,,,69,127
74321,note_off,4,0,0,,5,,,53,127
74323,note_off,2,0,0,,5,,,41,127
74334,note_on,11,0,0,,2,,,74,127
74334,note_on,0,0,0,,11,,,46,127
74538,note_off,204,0,0,,11,,,46,127
74542,note_on,4,0,0,,0,,,48,127
74746,note_off,204,0,0,,0,,,48,127
74750,note_on,4,0,0,,2,,,50,127
74954,note_off,204,0,0,,2,,,50,127
74958,note_on,4,0,0,,3,,,51,127
75155,note_off,197,0,0,,2,,,74,127
75161,note_off,6,0,0,,3,,,51,127
75165,note_on,4,0,0,,0,,,72,127
75165,note_on,0,0,0,,5,,,53,127
75266,note_off,101,0,0,,0,,,72,127
75269,note_on,3,0,0,,11,,,70,127
75369,note_off,100,0,0,,5,,,53,127
75370,note_off,1,0,0,,11,,,70,127
75373,note_on,3,0,0,,10,,,69,127
75373,note_on,0,0,0,,7,,,55,127
75474,note_off,101,0,0,,10,,,69,127
75477,note_on,3,0,0,,7,,,67,127
75577,note_off,100,0,0,,7,,,55,127
75578,note_off,1,0,0,,7,,,67,127
75581,note_on,3,0,0,,5,,,65,127
75581,note_on,0,0,0,,10,,,57,127
75682,note_off,101,0,0,,5,,,65,127
75685,note_on,3,0,0,,3,,,63,127
75785,note_off,100,0,0,,10,,,57,127
75786,note_off,1,0,0,,3,,,63,127
75789,note_on,3,0,0,,2,,,62,127
75789,note_on,0,0,0,,5,,,53,127
75890,note_off,101,0,0,,2,,,62,127
75893,note_on,3,0,0,,0,,,60,127
75993,note_off,100,0,0,,5,,,53,127
75994,note_off,1,0,0,,0,,,60,127
75997,note_on,3,0,0,,2,,,62,127
75997,note_on,0,0,0,,11,,,58,127
76098,note_off,101,0,0,,2,,,62,127
76101,note_on,3,0,0,,3,,,63,127
76201,note_off,100,0,0,,11,,,58,127
76202,note_off,1,0,0,,3,,,63,127
76205,note_on,3,0,0,,5,,,65,127
76205,note_on,0,0,0,,3,,,51,127
76306,note_off,101,0,0,,5,,,65,127
76309,note_on,3,0,0,,3,,,63,127
76409,note_off,100,0,0,,3,,,51,127
76410,note_off,1,0,0,,3,,,63,127
76413,note_on,3,0,0,,2,,,62,127
76413,note_on,0,0,0,,5,,,53,127
76514,note_off,101,0,0,,2,,,62,127
76517,note_on,3,0,0,,0,,,60,127
76618,note_off,101,0,0,,0,,,60,127
76621,note_on,3,0,0,,11,,,58,127
76621,note_on,0,0,0,,5,,,41,127
76722,note_off,101,0,0,,11,,,58,127
76725,note_on,3,0,0,,10,,,57,127
76820,note_off,95,0,0,,5,,,53,127
76824,note_off,4,0,0,,5,,,41,127
76825,note_off,1,0,0,,10,,,57,127
76828,note_on,3,0,0,,11,,,58,127
76828,note_on,0,0,0,,11,,,46,127
78971,note_off,2143,0,0,,11,,,46,127
78971,note_off,0,0,0,,11,,,58,127
79872,end_of_track,901,1,0,,,,,,
