tick,type,time,meta,track,program,channel,pitch,tempo,note,velocity
0,copyright,0,1,0,,,,,,
0,program_change,0,0,0,6,0,,,,
0,pitchwheel,0,0,0,,0,0,,,
0,program_change,0,0,0,6,1,,,,
0,pitchwheel,0,0,0,,1,-590,,,
0,program_change,0,0,0,6,2,,,,
0,pitchwheel,0,0,0,,2,-272,,,
0,program_change,0,0,0,6,3,,,,
0,pitchwheel,0,0,0,,3,-353,,,
0,program_change,0,0,0,6,4,,,,
0,pitchwheel,0,0,0,,4,-560,,,
0,program_change,0,0,0,6,5,,,,
0,pitchwheel,0,0,0,,5,-80,,,
0,program_change,0,0,0,6,6,,,,
0,pitchwheel,0,0,0,,6,-625,,,
0,program_change,0,0,0,6,7,,,,
0,pitchwheel,0,0,0,,7,-130,,,
0,program_change,0,0,0,6,8,,,,
0,pitchwheel,0,0,0,,8,-512,,,
0,program_change,0,0,0,6,10,,,,
0,pitchwheel,0,0,0,,10,-464,,,
0,program_change,0,0,0,6,11,,,,
0,pitchwheel,0,0,0,,11,-208,,,
0,program_change,0,0,0,6,12,,,,
0,pitchwheel,0,0,0,,12,-553,,,
0,set_tempo,0,1,0,,,,500000,,
110,note_on,110,0,0,,11,,,70,127
110,note_on,0,0,0,,0,,,72,127
217,note_off,107,0,0,,0,,,72,127
217,note_off,0,0,0,,11,,,70,127
219,note_on,2,0,0,,10,,,69,127
326,note_off,107,0,0,,10,,,69,127
328,note_on,2,0,0,,11,,,70,127
435,note_off,107,0,0,,11,,,70,127
437,note_on,2,0,0,,0,,,72,127
544,note_off,107,0,0,,0,,,72,127
546,note_on,2,0,0,,2,,,74,127
763,note_off,217,0,0,,2,,,74,127
765,note_on,2,0,0,,3,,,75,127
982,note_off,217,0,0,,3,,,75,127
984,note_on,2,0,0,,11,,,58,127
984,note_on,0,0,0,,0,,,60,127
984,note_on,0,0,0,,2,,,74,127
1091,note_off,107,0,0,,0,,,60,127
1091,note_off,0,0,0,,11,,,58,127
1093,note_on,2,0,0,,10,,,57,127
1200,note_off,107,0,0,,10,,,57,127
1200,note_off,0,0,0,,2,,,74,127
1202,note_on,2,0,0,,11,,,58,127
1202,note_on,0,0,0,,0,,,72,127
1309,note_off,107,0,0,,11,,,58,127
1311,note_on,2,0,0,,0,,,60,127
1418,note_off,107,0,0,,0,,,60,127
1418,note_off,0,0,0,,0,,,72,127
1420,note_on,2,0,0,,2,,,62,127
1420,note_on,0,0,0,,11,,,70,127
1637,note_off,217,0,0,,11,,,70,127
1637,note_off,0,0,0,,2,,,62,127
1639,note_on,2,0,0,,3,,,63,127
1639,note_on,0,0,0,,10,,,69,127
1845,note_off,206,0,0,,10,,,69,127
1856,note_off,11,0,0,,3,,,63,127
1858,note_on,2,0,0,,2,,,62,127
1858,note_on,0,0,0,,11,,,70,127
1858,note_on,0,0,0,,0,,,72,127
1965,note_off,107,0,0,,0,,,72,127
1965,note_off,0,0,0,,11,,,70,127
1967,note_on,2,0,0,,10,,,69,127
2074,note_off,107,0,0,,10,,,69,127
2074,note_off,0,0,0,,2,,,62,127
2076,note_on,2,0,0,,0,,,60,127
2076,note_on,0,0,0,,11,,,70,127
2183,note_off,107,0,0,,11,,,70,127
2185,note_on,2,0,0,,0,,,72,127
2292,note_off,107,0,0,,0,,,72,127
2292,note_off,0,0,0,,0,,,60,127
2294,note_on,2,0,0,,11,,,58,127
2294,note_on,0,0,0,,2,,,74,127
2511,note_off,217,0,0,,2,,,74,127
2511,note_off,0,0,0,,11,,,58,127
2513,note_on,2,0,0,,10,,,57,127
2513,note_on,0,0,0,,3,,,75,127
2719,note_off,206,0,0,,10,,,57,127
2730,note_off,11,0,0,,3,,,75,127
2732,note_on,2,0,0,,11,,,58,127
2732,note_on,0,0,0,,0,,,60,127
2732,note_on,0,0,0,,2,,,74,127
2839,note_off,107,0,0,,0,,,60,127
2839,note_off,0,0,0,,11,,,58,127
2841,note_on,2,0,0,,10,,,57,127
2948,note_off,107,0,0,,10,,,57,127
2948,note_off,0,0,0,,2,,,74,127
2950,note_on,2,0,0,,11,,,58,127
2950,note_on,0,0,0,,0,,,72,127
3057,note_off,107,0,0,,11,,,58,127
3059,note_on,2,0,0,,0,,,60,127
3166,note_off,107,0,0,,0,,,60,127
3166,note_off,0,0,0,,0,,,72,127
3168,note_on,2,0,0,,2,,,62,127
3168,note_on,0,0,0,,11,,,70,127
3385,note_off,217,0,0,,11,,,70,127
3385,note_off,0,0,0,,2,,,62,127
3387,note_on,2,0,0,,3,,,63,127
3387,note_on,0,0,0,,10,,,69,127
3593,note_off,206,0,0,,10,,,69,127
3604,note_off,11,0,0,,3,,,63,127
3606,note_on,2,0,0,,2,,,62,127
3606,note_on,0,0,0,,11,,,70,127
3606,note_on,0,0,0,,0,,,72,127
3713,note_off,107,0,0,,0,,,72,127
3713,note_off,0,0,0,,11,,,70,127
3715,note_on,2,0,0,,10,,,69,127
3822,note_off,107,0,0,,10,,,69,127
3822,note_off,0,0,0,,2,,,62,127
3824,note_on,2,0,0,,0,,,60,127
3824,note_on,0,0,0,,11,,,70,127
3931,note_off,107,0,0,,11,,,70,127
3933,note_on,2,0,0,,0,,,72,127
4040,note_off,107,0,0,,0,,,72,127
4040,note_off,0,0,0,,0,,,60,127
4042,note_on,2,0,0,,11,,,58,127
4042,note_on,0,0,0,,2,,,74,127
4259,note_off,217,0,0,,2,,,74,127
4259,note_off,0,0,0,,11,,,58,127
4261,note_on,2,0,0,,10,,,57,127
4261,note_on,0,0,0,,3,,,75,127
4474,note_off,213,0,0,,10,,,57,127
4479,note_off,5,0,0,,3,,,75,127
4481,note_on,2,0,0,,11,,,58,127
4481,note_on,0,0,0,,2,,,74,127
4588,note_off,107,0,0,,2,,,74,127
4590,note_on,2,0,0,,0,,,72,127
4697,note_off,107,0,0,,0,,,72,127
4697,note_off,0,0,0,,11,,,58,127
4699,note_on,2,0,0,,5,,,53,127
4699,note_on,0,0,0,,11,,,70,127
4806,note_off,107,0,0,,11,,,70,127
4808,note_on,2,0,0,,10,,,69,127
4915,note_off,107,0,0,,10,,,69,127
4915,note_off,0,0,0,,5,,,53,127
4917,note_on,2,0,0,,11,,,46,127
4917,note_on,0,0,0,,11,,,70,127
5340,note_off,423,0,0,,11,,,70,127
5351,note_off,11,0,0,,11,,,46,127
5356,note_on,5,0,0,,5,,,65,127
5463,note_off,107,0,0,,5,,,65,127
5465,note_on,2,0,0,,7,,,67,127
5518,note_off,53,0,0,,7,,,67,127
5520,note_on,2,0,0,,10,,,69,127
5573,note_off,53,0,0,,10,,,69,127
5575,note_on,2,0,0,,11,,,70,127
5628,note_off,53,0,0,,11,,,70,127
5630,note_on,2,0,0,,0,,,72,127
5683,note_off,53,0,0,,0,,,72,127
5685,note_on,2,0,0,,2,,,74,127
5738,note_off,53,0,0,,2,,,74,127
5740,note_on,2,0,0,,3,,,75,127
5793,note_off,53,0,0,,3,,,75,127
5795,note_on,2,0,0,,5,,,53,127
5795,note_on,0,0,0,,5,,,77,127
5902,note_off,107,0,0,,5,,,53,127
5904,note_on,2,0,0,,7,,,55,127
5957,note_off,53,0,0,,7,,,55,127
5959,note_on,2,0,0,,10,,,57,127
6012,note_off,53,0,0,,10,,,57,127
6014,note_on,2,0,0,,11,,,58,127
6067,note_off,53,0,0,,11,,,58,127
6069,note_on,2,0,0,,0,,,60,127
6122,note_off,53,0,0,,0,,,60,127
6124,note_on,2,0,0,,2,,,62,127
6177,note_off,53,0,0,,2,,,62,127
6179,note_on,2,0,0,,3,,,63,127
6232,note_off,53,0,0,,3,,,63,127
6234,note_on,2,0,0,,5,,,65,127
6435,note_off,201,0,0,,5,,,77,127
6451,note_off,16,0,0,,5,,,65,127
6453,note_on,2,0,0,,2,,,62,127
6453,note_on,0,0,0,,11,,,70,127
6670,note_off,217,0,0,,11,,,70,127
6670,note_off,0,0,0,,2,,,62,127
6672,note_on,2,0,0,,0,,,60,127
6672,note_on,0,0,0,,10,,,69,127
6889,note_off,217,0,0,,10,,,69,127
6889,note_off,0,0,0,,0,,,60,127
6891,note_on,2,0,0,,11,,,58,127
6891,note_on,0,0,0,,11,,,70,127
7108,note_off,217,0,0,,11,,,70,127
7108,note_off,0,0,0,,11,,,58,127
7110,note_on,2,0,0,,10,,,57,127
7110,note_on,0,0,0,,0,,,72,127
7327,note_off,217,0,0,,10,,,57,127
7329,note_on,2,0,0,,5,,,53,127
7400,note_off,71,0,0,,0,,,72,127
7402,note_on,2,0,0,,2,,,74,127
7473,note_off,71,0,0,,2,,,74,127
7475,note_on,2,0,0,,3,,,75,127
7546,note_off,71,0,0,,3,,,75,127
7546,note_off,0,0,0,,5,,,53,127
7548,note_on,2,0,0,,11,,,46,127
7548,note_on,0,0,0,,2,,,74,127
7971,note_off,423,0,0,,2,,,74,127
7982,note_off,11,0,0,,11,,,46,127
7987,note_on,5,0,0,,5,,,65,127
8094,note_off,107,0,0,,5,,,65,127
8096,note_on,2,0,0,,7,,,67,127
8149,note_off,53,0,0,,7,,,67,127
8151,note_on,2,0,0,,10,,,69,127
8204,note_off,53,0,0,,10,,,69,127
8206,note_on,2,0,0,,11,,,70,127
8259,note_off,53,0,0,,11,,,70,127
8261,note_on,2,0,0,,0,,,72,127
8314,note_off,53,0,0,,0,,,72,127
8316,note_on,2,0,0,,2,,,74,127
8369,note_off,53,0,0,,2,,,74,127
8371,note_on,2,0,0,,3,,,75,127
8424,note_off,53,0,0,,3,,,75,127
8426,note_on,2,0,0,,5,,,53,127
8426,note_on,0,0,0,,5,,,77,127
8533,note_off,107,0,0,,5,,,53,127
8535,note_on,2,0,0,,7,,,55,127
8588,note_off,53,0,0,,7,,,55,127
8590,note_on,2,0,0,,10,,,57,127
8643,note_off,53,0,0,,10,,,57,127
8645,note_on,2,0,0,,11,,,58,127
8698,note_off,53,0,0,,11,,,58,127
8700,note_on,2,0,0,,0,,,60,127
8753,note_off,53,0,0,,0,,,60,127
8755,note_on,2,0,0,,2,,,62,127
8808,note_off,53,0,0,,2,,,62,127
8810,note_on,2,0,0,,3,,,63,127
8863,note_off,53,0,0,,3,,,63,127
8865,note_on,2,0,0,,5,,,65,127
9066,note_off,201,0,0,,5,,,77,127
9082,note_off,16,0,0,,5,,,65,127
9084,note_on,2,0,0,,2,,,62,127
9084,note_on,0,0,0,,11,,,70,127
9301,note_off,217,0,0,,11,,,70,127
9301,note_off,0,0,0,,2,,,62,127
9303,note_on,2,0,0,,0,,,60,127
9303,note_on,0,0,0,,10,,,69,127
9520,note_off,217,0,0,,10,,,69,127
9520,note_off,0,0,0,,0,,,60,127
9522,note_on,2,0,0,,11,,,58,127
9522,note_on,0,0,0,,11,,,70,127
9739,note_off,217,0,0,,11,,,70,127
9739,note_off,0,0,0,,11,,,58,127
9741,note_on,2,0,0,,10,,,57,127
9741,note_on,0,0,0,,0,,,72,127
9958,note_off,217,0,0,,10,,,57,127
9960,note_on,2,0,0,,7,,,55,127
10031,note_off,71,0,0,,0,,,72,127
10033,note_on,2,0,0,,2,,,74,127
10104,note_off,71,0,0,,2,,,74,127
10106,note_on,2,0,0,,3,,,75,127
10177,note_off,71,0,0,,3,,,75,127
10177,note_off,0,0,0,,7,,,55,127
10179,note_on,2,0,0,,6,,,54,127
10179,note_on,0,0,0,,2,,,74,127
10396,note_off,217,0,0,,2,,,74,127
10396,note_off,0,0,0,,6,,,54,127
10398,note_on,2,0,0,,2,,,50,127
10398,note_on,0,0,0,,0,,,72,127
10615,note_off,217,0,0,,0,,,72,127
10615,note_off,0,0,0,,2,,,50,127
10617,note_on,2,0,0,,7,,,55,127
10617,note_on,0,0,0,,7,,,43,127
10617,note_on,0,0,0,,0,,,72,127
10617,note_on,0,0,0,,11,,,70,127
10688,note_off,71,0,0,,11,,,70,127
10688,note_off,0,0,0,,0,,,72,127
10690,note_on,2,0,0,,10,,,69,127
10761,note_off,71,0,0,,10,,,69,127
10763,note_on,2,0,0,,7,,,67,127
10834,note_off,71,0,0,,7,,,67,127
10836,note_on,2,0,0,,3,,,75,127
10836,note_on,0,0,0,,7,,,79,127
11053,note_off,217,0,0,,7,,,79,127
11053,note_off,0,0,0,,3,,,75,127
11055,note_on,2,0,0,,2,,,74,127
11055,note_on,0,0,0,,6,,,78,127
11272,note_off,217,0,0,,6,,,78,127
11272,note_off,0,0,0,,2,,,74,127
11274,note_on,2,0,0,,3,,,75,127
11274,note_on,0,0,0,,7,,,79,127
11491,note_off,217,0,0,,7,,,43,127
11491,note_off,0,0,0,,7,,,55,127
11493,note_on,2,0,0,,7,,,43,127
11493,note_on,0,0,0,,7,,,55,127
11603,note_off,110,0,0,,7,,,79,127
11603,note_off,0,0,0,,3,,,75,127
11713,note_on,110,0,0,,3,,,75,127
11713,note_on,0,0,0,,0,,,72,127
11930,note_off,217,0,0,,0,,,72,127
11930,note_off,0,0,0,,3,,,75,127
11932,note_on,2,0,0,,2,,,74,127
11932,note_on,0,0,0,,12,,,71,127
12149,note_off,217,0,0,,12,,,71,127
12149,note_off,0,0,0,,2,,,74,127
12151,note_on,2,0,0,,0,,,72,127
12151,note_on,0,0,0,,3,,,75,127
12368,note_off,217,0,0,,7,,,55,127
12368,note_off,0,0,0,,7,,,43,127
12370,note_on,2,0,0,,7,,,43,127
12370,note_on,0,0,0,,7,,,55,127
12480,note_off,110,0,0,,3,,,75,127
12480,note_off,0,0,0,,0,,,72,127
12590,note_on,110,0,0,,2,,,74,127
12590,note_on,0,0,0,,11,,,70,127
12807,note_off,217,0,0,,11,,,70,127
12807,note_off,0,0,0,,2,,,74,127
12809,note_on,2,0,0,,1,,,73,127
12809,note_on,0,0,0,,10,,,69,127
13026,note_off,217,0,0,,10,,,69,127
13026,note_off,0,0,0,,1,,,73,127
13028,note_on,2,0,0,,11,,,70,127
13028,note_on,0,0,0,,2,,,74,127
13245,note_off,217,0,0,,2,,,74,127
13245,note_off,0,0,0,,11,,,70,127
13245,note_off,0,0,0,,7,,,55,127
13245,note_off,0,0,0,,7,,,43,127
13247,note_on,2,0,0,,5,,,41,127
13247,note_on,0,0,0,,5,,,53,127
13466,note_on,219,0,0,,10,,,81,127
13466,note_on,0,0,0,,5,,,77,127
13683,note_off,217,0,0,,5,,,77,127
13683,note_off,0,0,0,,10,,,81,127
13685,note_on,2,0,0,,4,,,76,127
13685,note_on,0,0,0,,7,,,79,127
13902,note_off,217,0,0,,7,,,79,127
13902,note_off,0,0,0,,4,,,76,127
13904,note_on,2,0,0,,10,,,81,127
13904,note_on,0,0,0,,5,,,77,127
14121,note_off,217,0,0,,5,,,77,127
14121,note_off,0,0,0,,5,,,53,127
14121,note_off,0,0,0,,5,,,41,127
14123,note_on,2,0,0,,11,,,58,127
14230,note_off,107,0,0,,10,,,81,127
14232,note_on,2,0,0,,0,,,84,127
14339,note_off,107,0,0,,0,,,84,127
14341,note_on,2,0,0,,11,,,82,127
14448,note_off,107,0,0,,11,,,82,127
14450,note_on,2,0,0,,10,,,81,127
14557,note_off,107,0,0,,10,,,81,127
14559,note_on,2,0,0,,7,,,79,127
14666,note_off,107,0,0,,7,,,79,127
14668,note_on,2,0,0,,5,,,77,127
14775,note_off,107,0,0,,5,,,77,127
14775,note_off,0,0,0,,11,,,58,127
14777,note_on,2,0,0,,7,,,55,127
14777,note_on,0,0,0,,4,,,76,127
14884,note_off,107,0,0,,4,,,76,127
14886,note_on,2,0,0,,5,,,77,127
14993,note_off,107,0,0,,5,,,77,127
14993,note_off,0,0,0,,7,,,55,127
14995,note_on,2,0,0,,10,,,57,127
14995,note_on,0,0,0,,2,,,74,127
15048,note_off,53,0,0,,2,,,74,127
15050,note_on,2,0,0,,1,,,73,127
15103,note_off,53,0,0,,1,,,73,127
15105,note_on,2,0,0,,2,,,74,127
15158,note_off,53,0,0,,2,,,74,127
15160,note_on,2,0,0,,1,,,73,127
15213,note_off,53,0,0,,1,,,73,127
15215,note_on,2,0,0,,2,,,74,127
15268,note_off,53,0,0,,2,,,74,127
15270,note_on,2,0,0,,1,,,73,127
15323,note_off,53,0,0,,1,,,73,127
15325,note_on,2,0,0,,12,,,71,127
15432,note_off,107,0,0,,12,,,71,127
15434,note_on,2,0,0,,10,,,45,127
15434,note_on,0,0,0,,10,,,69,127
15823,note_off,389,0,0,,10,,,69,127
15871,note_off,48,0,0,,10,,,45,127
15872,note_off,1,0,0,,10,,,57,127
15873,note_on,1,0,0,,10,,,57,127
15873,note_on,0,0,0,,4,,,76,127
15983,note_on,110,0,0,,4,,,64,127
15983,note_on,0,0,0,,7,,,67,127
16090,note_off,107,0,0,,7,,,67,127
16090,note_off,0,0,0,,4,,,64,127
16092,note_on,2,0,0,,2,,,62,127
16092,note_on,0,0,0,,5,,,65,127
16199,note_off,107,0,0,,5,,,65,127
16199,note_off,0,0,0,,2,,,62,127
16201,note_on,2,0,0,,4,,,64,127
16201,note_on,0,0,0,,7,,,67,127
16306,note_off,105,0,0,,4,,,76,127
16308,note_off,2,0,0,,7,,,67,127
16308,note_off,0,0,0,,4,,,64,127
16310,note_on,2,0,0,,5,,,65,127
16310,note_on,0,0,0,,2,,,74,127
16527,note_off,217,0,0,,2,,,74,127
16527,note_off,0,0,0,,5,,,65,127
16529,note_on,2,0,0,,4,,,64,127
16529,note_on,0,0,0,,1,,,73,127
16746,note_off,217,0,0,,1,,,73,127
16746,note_off,0,0,0,,4,,,64,127
16747,note_off,1,0,0,,10,,,57,127
16748,note_on,1,0,0,,10,,,57,127
16748,note_on,0,0,0,,5,,,77,127
16858,note_on,110,0,0,,5,,,65,127
16858,note_on,0,0,0,,10,,,69,127
16965,note_off,107,0,0,,10,,,69,127
16965,note_off,0,0,0,,5,,,65,127
16967,note_on,2,0,0,,4,,,64,127
16967,note_on,0,0,0,,7,,,67,127
17074,note_off,107,0,0,,7,,,67,127
17074,note_off,0,0,0,,4,,,64,127
17076,note_on,2,0,0,,5,,,65,127
17076,note_on,0,0,0,,10,,,69,127
17181,note_off,105,0,0,,5,,,77,127
17183,note_off,2,0,0,,10,,,69,127
17183,note_off,0,0,0,,5,,,65,127
17185,note_on,2,0,0,,7,,,67,127
17185,note_on,0,0,0,,4,,,76,127
17402,note_off,217,0,0,,4,,,76,127
17402,note_off,0,0,0,,7,,,67,127
17404,note_on,2,0,0,,5,,,65,127
17404,note_on,0,0,0,,2,,,74,127
17621,note_off,217,0,0,,2,,,74,127
17621,note_off,0,0,0,,5,,,65,127
17622,note_off,1,0,0,,10,,,57,127
17623,note_on,1,0,0,,10,,,57,127
17623,note_on,0,0,0,,7,,,79,127
17733,note_on,110,0,0,,7,,,67,127
17733,note_on,0,0,0,,12,,,71,127
17840,note_off,107,0,0,,12,,,71,127
17840,note_off,0,0,0,,7,,,67,127
17842,note_on,2,0,0,,5,,,65,127
17842,note_on,0,0,0,,10,,,69,127
17949,note_off,107,0,0,,10,,,69,127
17949,note_off,0,0,0,,5,,,65,127
17951,note_on,2,0,0,,7,,,67,127
17951,note_on,0,0,0,,12,,,71,127
18056,note_off,105,0,0,,7,,,79,127
18058,note_off,2,0,0,,12,,,71,127
18058,note_off,0,0,0,,7,,,67,127
18060,note_on,2,0,0,,10,,,69,127
18060,note_on,0,0,0,,1,,,73,127
18277,note_off,217,0,0,,1,,,73,127
18277,note_off,0,0,0,,10,,,69,127
18279,note_on,2,0,0,,11,,,70,127
18279,note_on,0,0,0,,2,,,74,127
18496,note_off,217,0,0,,2,,,74,127
18496,note_off,0,0,0,,11,,,70,127
18497,note_off,1,0,0,,10,,,57,127
18498,note_on,1,0,0,,10,,,69,127
18498,note_on,0,0,0,,4,,,76,127
18715,note_off,217,0,0,,4,,,76,127
18717,note_on,2,0,0,,8,,,80,127
18936,note_on,219,0,0,,10,,,57,127
19153,note_off,217,0,0,,8,,,80,127
19155,note_on,2,0,0,,10,,,81,127
19372,note_off,217,0,0,,10,,,81,127
19372,note_off,0,0,0,,10,,,57,127
19373,note_off,1,0,0,,10,,,69,127
19374,note_on,1,0,0,,10,,,57,127
19374,note_on,0,0,0,,4,,,76,127
19484,note_on,110,0,0,,4,,,64,127
19484,note_on,0,0,0,,7,,,67,127
19591,note_off,107,0,0,,7,,,67,127
19591,note_off,0,0,0,,4,,,64,127
19593,note_on,2,0,0,,2,,,62,127
19593,note_on,0,0,0,,5,,,65,127
19700,note_off,107,0,0,,5,,,65,127
19700,note_off,0,0,0,,2,,,62,127
19702,note_on,2,0,0,,4,,,64,127
19702,note_on,0,0,0,,7,,,67,127
19807,note_off,105,0,0,,4,,,76,127
19809,note_off,2,0,0,,7,,,67,127
19809,note_off,0,0,0,,4,,,64,127
19811,note_on,2,0,0,,5,,,65,127
19811,note_on,0,0,0,,2,,,74,127
20028,note_off,217,0,0,,2,,,74,127
20028,note_off,0,0,0,,5,,,65,127
20030,note_on,2,0,0,,4,,,64,127
20030,note_on,0,0,0,,1,,,73,127
20247,note_off,217,0,0,,1,,,73,127
20247,note_off,0,0,0,,4,,,64,127
20248,note_off,1,0,0,,10,,,57,127
20249,note_on,1,0,0,,10,,,57,127
20249,note_on,0,0,0,,5,,,77,127
20359,note_on,110,0,0,,5,,,65,127
20359,note_on,0,0,0,,10,,,69,127
20466,note_off,107,0,0,,10,,,69,127
20466,note_off,0,0,0,,5,,,65,127
20468,note_on,2,0,0,,4,,,64,127
20468,note_on,0,0,0,,7,,,67,127
20575,note_off,107,0,0,,7,,,67,127
20575,note_off,0,0,0,,4,,,64,127
20577,note_on,2,0,0,,5,,,65,127
20577,note_on,0,0,0,,10,,,69,127
20682,note_off,105,0,0,,5,,,77,127
20684,note_off,2,0,0,,10,,,69,127
20684,note_off,0,0,0,,5,,,65,127
20686,note_on,2,0,0,,7,,,67,127
20686,note_on,0,0,0,,4,,,76,127
20903,note_off,217,0,0,,4,,,76,127
20903,note_off,0,0,0,,7,,,67,127
20905,note_on,2,0,0,,5,,,65,127
20905,note_on,0,0,0,,2,,,74,127
21122,note_off,217,0,0,,2,,,74,127
21122,note_off,0,0,0,,5,,,65,127
21123,note_off,1,0,0,,10,,,57,127
21124,note_on,1,0,0,,10,,,57,127
21124,note_on,0,0,0,,7,,,79,127
21234,note_on,110,0,0,,7,,,67,127
21234,note_on,0,0,0,,12,,,71,127
21341,note_off,107,0,0,,12,,,71,127
21341,note_off,0,0,0,,7,,,67,127
21343,note_on,2,0,0,,5,,,65,127
21343,note_on,0,0,0,,10,,,69,127
21450,note_off,107,0,0,,10,,,69,127
21450,note_off,0,0,0,,5,,,65,127
21452,note_on,2,0,0,,7,,,67,127
21452,note_on,0,0,0,,12,,,71,127
21557,note_off,105,0,0,,7,,,79,127
21559,note_off,2,0,0,,12,,,71,127
21559,note_off,0,0,0,,7,,,67,127
21561,note_on,2,0,0,,10,,,69,127
21561,note_on,0,0,0,,1,,,73,127
21778,note_off,217,0,0,,1,,,73,127
21778,note_off,0,0,0,,10,,,69,127
21780,note_on,2,0,0,,11,,,70,127
21780,note_on,0,0,0,,2,,,74,127
21997,note_off,217,0,0,,2,,,74,127
21997,note_off,0,0,0,,11,,,70,127
21998,note_off,1,0,0,,10,,,57,127
21999,note_on,1,0,0,,10,,,69,127
21999,note_on,0,0,0,,4,,,76,127
22216,note_off,217,0,0,,4,,,76,127
22218,note_on,2,0,0,,8,,,80,127
22435,note_off,217,0,0,,10,,,69,127
22437,note_on,2,0,0,,10,,,57,127
22654,note_off,217,0,0,,8,,,80,127
22656,note_on,2,0,0,,10,,,81,127
22845,note_off,189,0,0,,10,,,57,127
22874,note_off,29,0,0,,10,,,81,127
22885,note_on,11,0,0,,2,,,38,127
22885,note_on,0,0,0,,2,,,50,127
22992,note_off,107,0,0,,2,,,38,127
22994,note_on,2,0,0,,4,,,40,127
23047,note_off,53,0,0,,4,,,40,127
23049,note_on,2,0,0,,5,,,41,127
23102,note_off,53,0,0,,5,,,41,127
23104,note_on,2,0,0,,7,,,43,127
23157,note_off,53,0,0,,7,,,43,127
23159,note_on,2,0,0,,10,,,45,127
23212,note_off,53,0,0,,10,,,45,127
23214,note_on,2,0,0,,12,,,47,127
23267,note_off,53,0,0,,12,,,47,127
23269,note_on,2,0,0,,1,,,49,127
23319,note_off,50,0,0,,2,,,50,127
23321,note_off,2,0,0,,1,,,49,127
23323,note_on,2,0,0,,2,,,50,127
23433,note_on,110,0,0,,4,,,52,127
23486,note_off,53,0,0,,4,,,52,127
23488,note_on,2,0,0,,5,,,53,127
23541,note_off,53,0,0,,5,,,53,127
23543,note_on,2,0,0,,7,,,55,127
23596,note_off,53,0,0,,7,,,55,127
23598,note_on,2,0,0,,10,,,57,127
23651,note_off,53,0,0,,10,,,57,127
23653,note_on,2,0,0,,12,,,59,127
23706,note_off,53,0,0,,12,,,59,127
23708,note_on,2,0,0,,1,,,61,127
23761,note_off,53,0,0,,1,,,61,127
23763,note_on,2,0,0,,2,,,62,127
23870,note_off,107,0,0,,2,,,50,127
23872,note_on,2,0,0,,4,,,52,127
23925,note_off,53,0,0,,4,,,52,127
23927,note_on,2,0,0,,5,,,53,127
23980,note_off,53,0,0,,5,,,53,127
23982,note_on,2,0,0,,7,,,55,127
24035,note_off,53,0,0,,7,,,55,127
24037,note_on,2,0,0,,10,,,57,127
24090,note_off,53,0,0,,10,,,57,127
24092,note_on,2,0,0,,12,,,59,127
24145,note_off,53,0,0,,12,,,59,127
24147,note_on,2,0,0,,1,,,61,127
24197,note_off,50,0,0,,2,,,62,127
24199,note_off,2,0,0,,1,,,61,127
24201,note_on,2,0,0,,2,,,62,127
24311,note_on,110,0,0,,4,,,64,127
24364,note_off,53,0,0,,4,,,64,127
24366,note_on,2,0,0,,5,,,65,127
24419,note_off,53,0,0,,5,,,65,127
24421,note_on,2,0,0,,7,,,67,127
24474,note_off,53,0,0,,7,,,67,127
24476,note_on,2,0,0,,10,,,69,127
24529,note_off,53,0,0,,10,,,69,127
24531,note_on,2,0,0,,12,,,71,127
24584,note_off,53,0,0,,12,,,71,127
24586,note_on,2,0,0,,1,,,73,127
24639,note_off,53,0,0,,1,,,73,127
24641,note_on,2,0,0,,2,,,74,127
24748,note_off,107,0,0,,2,,,62,127
24750,note_on,2,0,0,,4,,,64,127
24803,note_off,53,0,0,,4,,,64,127
24805,note_on,2,0,0,,5,,,65,127
24858,note_off,53,0,0,,5,,,65,127
24860,note_on,2,0,0,,7,,,67,127
24913,note_off,53,0,0,,7,,,67,127
24915,note_on,2,0,0,,10,,,69,127
24968,note_off,53,0,0,,10,,,69,127
24970,note_on,2,0,0,,12,,,71,127
25023,note_off,53,0,0,,12,,,71,127
25025,note_on,2,0,0,,1,,,73,127
25075,note_off,50,0,0,,2,,,74,127
25077,note_off,2,0,0,,1,,,73,127
25079,note_on,2,0,0,,2,,,74,127
25189,note_on,110,0,0,,4,,,76,127
25242,note_off,53,0,0,,4,,,76,127
25244,note_on,2,0,0,,5,,,77,127
25297,note_off,53,0,0,,5,,,77,127
25299,note_on,2,0,0,,7,,,79,127
25352,note_off,53,0,0,,7,,,79,127
25354,note_on,2,0,0,,10,,,81,127
25407,note_off,53,0,0,,10,,,81,127
25409,note_on,2,0,0,,12,,,83,127
25462,note_off,53,0,0,,12,,,83,127
25464,note_on,2,0,0,,1,,,85,127
25517,note_off,53,0,0,,1,,,85,127
25519,note_on,2,0,0,,2,,,86,127
25626,note_off,107,0,0,,2,,,74,127
25628,note_on,2,0,0,,0,,,72,127
25735,note_off,107,0,0,,0,,,72,127
25737,note_on,2,0,0,,11,,,70,127
25844,note_off,107,0,0,,11,,,70,127
25846,note_on,2,0,0,,10,,,69,127
25953,note_off,107,0,0,,10,,,69,127
25955,note_on,2,0,0,,7,,,67,127
26062,note_off,107,0,0,,2,,,86,127
26064,note_on,2,0,0,,0,,,84,127
26171,note_off,107,0,0,,0,,,84,127
26173,note_on,2,0,0,,11,,,82,127
26244,note_off,71,0,0,,11,,,82,127
26246,note_on,2,0,0,,10,,,81,127
26317,note_off,71,0,0,,10,,,81,127
26319,note_on,2,0,0,,7,,,79,127
26390,note_off,71,0,0,,7,,,79,127
26390,note_off,0,0,0,,7,,,67,127
26392,note_on,2,0,0,,5,,,65,127
26392,note_on,0,0,0,,10,,,81,127
26463,note_off,71,0,0,,10,,,81,127
26465,note_on,2,0,0,,7,,,79,127
26536,note_off,71,0,0,,7,,,79,127
26538,note_on,2,0,0,,10,,,81,127
26609,note_off,71,0,0,,10,,,81,127
26609,note_off,0,0,0,,5,,,65,127
26611,note_on,2,0,0,,7,,,67,127
26611,note_on,0,0,0,,11,,,82,127
26682,note_off,71,0,0,,11,,,82,127
26684,note_on,2,0,0,,10,,,81,127
26755,note_off,71,0,0,,10,,,81,127
26757,note_on,2,0,0,,7,,,79,127
26828,note_off,71,0,0,,7,,,79,127
26828,note_off,0,0,0,,7,,,67,127
26830,note_on,2,0,0,,10,,,69,127
26830,note_on,0,0,0,,5,,,77,127
27047,note_off,217,0,0,,5,,,77,127
27047,note_off,0,0,0,,10,,,69,127
27049,note_on,2,0,0,,10,,,57,127
27049,note_on,0,0,0,,4,,,76,127
27186,note_off,137,0,0,,4,,,76,127
27252,note_off,66,0,0,,10,,,57,127
27268,note_on,16,0,0,,2,,,38,127
27268,note_on,0,0,0,,2,,,50,127
27375,note_off,107,0,0,,2,,,38,127
27377,note_on,2,0,0,,4,,,40,127
27430,note_off,53,0,0,,4,,,40,127
27432,note_on,2,0,0,,5,,,41,127
27485,note_off,53,0,0,,5,,,41,127
27487,note_on,2,0,0,,7,,,43,127
27540,note_off,53,0,0,,7,,,43,127
27542,note_on,2,0,0,,10,,,45,127
27595,note_off,53,0,0,,10,,,45,127
27597,note_on,2,0,0,,12,,,47,127
27650,note_off,53,0,0,,12,,,47,127
27652,note_on,2,0,0,,1,,,49,127
27702,note_off,50,0,0,,2,,,50,127
27704,note_off,2,0,0,,1,,,49,127
27706,note_on,2,0,0,,2,,,50,127
27816,note_on,110,0,0,,4,,,52,127
27869,note_off,53,0,0,,4,,,52,127
27871,note_on,2,0,0,,5,,,53,127
27924,note_off,53,0,0,,5,,,53,127
27926,note_on,2,0,0,,7,,,55,127
27979,note_off,53,0,0,,7,,,55,127
27981,note_on,2,0,0,,10,,,57,127
28034,note_off,53,0,0,,10,,,57,127
28036,note_on,2,0,0,,12,,,59,127
28089,note_off,53,0,0,,12,,,59,127
28091,note_on,2,0,0,,1,,,61,127
28144,note_off,53,0,0,,1,,,61,127
28146,note_on,2,0,0,,2,,,62,127
28253,note_off,107,0,0,,2,,,50,127
28255,note_on,2,0,0,,4,,,52,127
28308,note_off,53,0,0,,4,,,52,127
28310,note_on,2,0,0,,5,,,53,127
28363,note_off,53,0,0,,5,,,53,127
28365,note_on,2,0,0,,7,,,55,127
28418,note_off,53,0,0,,7,,,55,127
28420,note_on,2,0,0,,10,,,57,127
28473,note_off,53,0,0,,10,,,57,127
28475,note_on,2,0,0,,12,,,59,127
28528,note_off,53,0,0,,12,,,59,127
28530,note_on,2,0,0,,1,,,61,127
28580,note_off,50,0,0,,2,,,62,127
28582,note_off,2,0,0,,1,,,61,127
28584,note_on,2,0,0,,2,,,62,127
28694,note_on,110,0,0,,4,,,64,127
28747,note_off,53,0,0,,4,,,64,127
28749,note_on,2,0,0,,5,,,65,127
28802,note_off,53,0,0,,5,,,65,127
28804,note_on,2,0,0,,7,,,67,127
28857,note_off,53,0,0,,7,,,67,127
28859,note_on,2,0,0,,10,,,69,127
28912,note_off,53,0,0,,10,,,69,127
28914,note_on,2,0,0,,12,,,71,127
28967,note_off,53,0,0,,12,,,71,127
28969,note_on,2,0,0,,1,,,73,127
29022,note_off,53,0,0,,1,,,73,127
29024,note_on,2,0,0,,2,,,74,127
29131,note_off,107,0,0,,2,,,62,127
29133,note_on,2,0,0,,4,,,64,127
29186,note_off,53,0,0,,4,,,64,127
29188,note_on,2,0,0,,5,,,65,127
29241,note_off,53,0,0,,5,,,65,127
29243,note_on,2,0,0,,7,,,67,127
29296,note_off,53,0,0,,7,,,67,127
29298,note_on,2,0,0,,10,,,69,127
29351,note_off,53,0,0,,10,,,69,127
29353,note_on,2,0,0,,12,,,71,127
29406,note_off,53,0,0,,12,,,71,127
29408,note_on,2,0,0,,1,,,73,127
29458,note_off,50,0,0,,2,,,74,127
29460,note_off,2,0,0,,1,,,73,127
29462,note_on,2,0,0,,2,,,74,127
29572,note_on,110,0,0,,4,,,76,127
29625,note_off,53,0,0,,4,,,76,127
29627,note_on,2,0,0,,5,,,77,127
29680,note_off,53,0,0,,5,,,77,127
29682,note_on,2,0,0,,7,,,79,127
29735,note_off,53,0,0,,7,,,79,127
29737,note_on,2,0,0,,10,,,81,127
29790,note_off,53,0,0,,10,,,81,127
29792,note_on,2,0,0,,12,,,83,127
29845,note_off,53,0,0,,12,,,83,127
29847,note_on,2,0,0,,1,,,85,127
29900,note_off,53,0,0,,1,,,85,127
29902,note_on,2,0,0,,2,,,86,127
30009,note_off,107,0,0,,2,,,74,127
30011,note_on,2,0,0,,0,,,72,127
30118,note_off,107,0,0,,0,,,72,127
30120,note_on,2,0,0,,11,,,70,127
30227,note_off,107,0,0,,11,,,70,127
30229,note_on,2,0,0,,10,,,69,127
30336,note_off,107,0,0,,10,,,69,127
30338,note_on,2,0,0,,7,,,67,127
30445,note_off,107,0,0,,2,,,86,127
30447,note_on,2,0,0,,0,,,84,127
30554,note_off,107,0,0,,0,,,84,127
30556,note_on,2,0,0,,11,,,82,127
30627,note_off,71,0,0,,11,,,82,127
30629,note_on,2,0,0,,10,,,81,127
30700,note_off,71,0,0,,10,,,81,127
30702,note_on,2,0,0,,7,,,79,127
30773,note_off,71,0,0,,7,,,79,127
30773,note_off,0,0,0,,7,,,67,127
30775,note_on,2,0,0,,5,,,65,127
30775,note_on,0,0,0,,10,,,81,127
30846,note_off,71,0,0,,10,,,81,127
30848,note_on,2,0,0,,7,,,79,127
30919,note_off,71,0,0,,7,,,79,127
30921,note_on,2,0,0,,10,,,81,127
30992,note_off,71,0,0,,10,,,81,127
30992,note_off,0,0,0,,5,,,65,127
30994,note_on,2,0,0,,7,,,67,127
30994,note_on,0,0,0,,11,,,82,127
31065,note_off,71,0,0,,11,,,82,127
31067,note_on,2,0,0,,10,,,81,127
31138,note_off,71,0,0,,10,,,81,127
31140,note_on,2,0,0,,7,,,79,127
31211,note_off,71,0,0,,7,,,79,127
31211,note_off,0,0,0,,7,,,67,127
31213,note_on,2,0,0,,10,,,69,127
31213,note_on,0,0,0,,5,,,77,127
31430,note_off,217,0,0,,5,,,77,127
31432,note_on,2,0,0,,10,,,57,127
31432,note_on,0,0,0,,4,,,76,127
31647,note_off,215,0,0,,10,,,69,127
31649,note_off,2,0,0,,4,,,76,127
31649,note_off,0,0,0,,10,,,57,127
31660,note_on,11,0,0,,2,,,86,127
31767,note_off,107,0,0,,2,,,86,127
31769,note_on,2,0,0,,10,,,81,127
31876,note_off,107,0,0,,10,,,81,127
31878,note_on,2,0,0,,7,,,67,127
31878,note_on,0,0,0,,11,,,82,127
31985,note_off,107,0,0,,11,,,82,127
31987,note_on,2,0,0,,4,,,76,127
32094,note_off,107,0,0,,4,,,76,127
32094,note_off,0,0,0,,7,,,67,127
32096,note_on,2,0,0,,10,,,69,127
32096,note_on,0,0,0,,10,,,81,127
32203,note_off,107,0,0,,10,,,81,127
32205,note_on,2,0,0,,2,,,74,127
32312,note_off,107,0,0,,2,,,74,127
32314,note_on,2,0,0,,10,,,57,127
32314,note_on,0,0,0,,7,,,79,127
32421,note_off,107,0,0,,7,,,79,127
32423,note_on,2,0,0,,1,,,73,127
32528,note_off,105,0,0,,10,,,69,127
32530,note_off,2,0,0,,1,,,73,127
32530,note_off,0,0,0,,10,,,57,127
32532,note_on,2,0,0,,2,,,74,127
32639,note_off,107,0,0,,2,,,74,127
32641,note_on,2,0,0,,10,,,69,127
32748,note_off,107,0,0,,10,,,69,127
32750,note_on,2,0,0,,7,,,55,127
32750,note_on,0,0,0,,11,,,70,127
32857,note_off,107,0,0,,11,,,70,127
32859,note_on,2,0,0,,4,,,64,127
32966,note_off,107,0,0,,4,,,64,127
32966,note_off,0,0,0,,7,,,55,127
32968,note_on,2,0,0,,10,,,57,127
32968,note_on,0,0,0,,10,,,69,127
33075,note_off,107,0,0,,10,,,69,127
33077,note_on,2,0,0,,2,,,62,127
33184,note_off,107,0,0,,2,,,62,127
33186,note_on,2,0,0,,10,,,45,127
33186,note_on,0,0,0,,7,,,67,127
33293,note_off,107,0,0,,7,,,67,127
33295,note_on,2,0,0,,1,,,61,127
33400,note_off,105,0,0,,10,,,57,127
33402,note_off,2,0,0,,1,,,61,127
33402,note_off,0,0,0,,10,,,45,127
33404,note_on,2,0,0,,2,,,62,127
33511,note_off,107,0,0,,2,,,62,127
33513,note_on,2,0,0,,10,,,57,127
33620,note_off,107,0,0,,10,,,57,127
33622,note_on,2,0,0,,7,,,43,127
33622,note_on,0,0,0,,11,,,58,127
33729,note_off,107,0,0,,11,,,58,127
33731,note_on,2,0,0,,4,,,52,127
33838,note_off,107,0,0,,4,,,52,127
33838,note_off,0,0,0,,7,,,43,127
33840,note_on,2,0,0,,10,,,45,127
33840,note_on,0,0,0,,10,,,57,127
33947,note_off,107,0,0,,10,,,57,127
33949,note_on,2,0,0,,2,,,50,127
34056,note_off,107,0,0,,2,,,50,127
34056,note_off,0,0,0,,10,,,45,127
34058,note_on,2,0,0,,10,,,33,127
34058,note_on,0,0,0,,7,,,55,127
34165,note_off,107,0,0,,7,,,55,127
34167,note_on,2,0,0,,1,,,49,127
34274,note_off,107,0,0,,1,,,49,127
34274,note_off,0,0,0,,10,,,33,127
34276,note_on,2,0,0,,2,,,38,127
34276,note_on,0,0,0,,2,,,50,127
35076,note_off,800,0,0,,2,,,50,127
35150,note_off,74,0,0,,2,,,38,127
35153,note_on,3,0,0,,2,,,38,127
35153,note_on,0,0,0,,2,,,62,127
35260,note_off,107,0,0,,2,,,62,127
35262,note_on,2,0,0,,4,,,64,127
35315,note_off,53,0,0,,4,,,64,127
35317,note_on,2,0,0,,6,,,66,127
35370,note_off,53,0,0,,6,,,66,127
35372,note_on,2,0,0,,7,,,67,127
35425,note_off,53,0,0,,7,,,67,127
35427,note_on,2,0,0,,10,,,69,127
35480,note_off,53,0,0,,10,,,69,127
35482,note_on,2,0,0,,11,,,70,127
35535,note_off,53,0,0,,11,,,70,127
35537,note_on,2,0,0,,0,,,72,127
35590,note_off,53,0,0,,0,,,72,127
35592,note_on,2,0,0,,2,,,74,127
35699,note_off,107,0,0,,2,,,38,127
35701,note_on,2,0,0,,4,,,52,127
35754,note_off,53,0,0,,4,,,52,127
35756,note_on,2,0,0,,6,,,54,127
35809,note_off,53,0,0,,6,,,54,127
35811,note_on,2,0,0,,7,,,55,127
35864,note_off,53,0,0,,7,,,55,127
35866,note_on,2,0,0,,10,,,57,127
35919,note_off,53,0,0,,10,,,57,127
35921,note_on,2,0,0,,11,,,58,127
35974,note_off,53,0,0,,11,,,58,127
35976,note_on,2,0,0,,0,,,60,127
36029,note_off,53,0,0,,0,,,60,127
36031,note_on,2,0,0,,2,,,62,127
36248,note_off,217,0,0,,2,,,62,127
36248,note_off,0,0,0,,2,,,74,127
36250,note_on,2,0,0,,11,,,58,127
36250,note_on,0,0,0,,7,,,67,127
36467,note_off,217,0,0,,7,,,67,127
36467,note_off,0,0,0,,11,,,58,127
36469,note_on,2,0,0,,10,,,57,127
36469,note_on,0,0,0,,6,,,66,127
36686,note_off,217,0,0,,6,,,66,127
36686,note_off,0,0,0,,10,,,57,127
36688,note_on,2,0,0,,7,,,55,127
36688,note_on,0,0,0,,7,,,67,127
36905,note_off,217,0,0,,7,,,67,127
36905,note_off,0,0,0,,7,,,55,127
36907,note_on,2,0,0,,6,,,54,127
36907,note_on,0,0,0,,10,,,69,127
37124,note_off,217,0,0,,6,,,54,127
37126,note_on,2,0,0,,2,,,50,127
37197,note_off,71,0,0,,10,,,69,127
37199,note_on,2,0,0,,11,,,70,127
37270,note_off,71,0,0,,11,,,70,127
37272,note_on,2,0,0,,0,,,72,127
37343,note_off,71,0,0,,0,,,72,127
37343,note_off,0,0,0,,2,,,50,127
37345,note_on,2,0,0,,7,,,43,127
37345,note_on,0,0,0,,11,,,70,127
37734,note_off,389,0,0,,11,,,70,127
37784,note_on,50,0,0,,7,,,67,127
37802,note_off,18,0,0,,7,,,43,127
37891,note_off,89,0,0,,7,,,67,127
37893,note_on,2,0,0,,10,,,69,127
37946,note_off,53,0,0,,10,,,69,127
37948,note_on,2,0,0,,12,,,71,127
38001,note_off,53,0,0,,12,,,71,127
38003,note_on,2,0,0,,0,,,72,127
38056,note_off,53,0,0,,0,,,72,127
38058,note_on,2,0,0,,2,,,74,127
38111,note_off,53,0,0,,2,,,74,127
38113,note_on,2,0,0,,3,,,75,127
38166,note_off,53,0,0,,3,,,75,127
38168,note_on,2,0,0,,5,,,77,127
38221,note_off,53,0,0,,5,,,77,127
38223,note_on,2,0,0,,7,,,79,127
38278,note_on,55,0,0,,7,,,55,127
38331,note_off,53,0,0,,7,,,55,127
38333,note_on,2,0,0,,10,,,57,127
38386,note_off,53,0,0,,10,,,57,127
38388,note_on,2,0,0,,12,,,59,127
38441,note_off,53,0,0,,12,,,59,127
38443,note_on,2,0,0,,0,,,60,127
38496,note_off,53,0,0,,0,,,60,127
38498,note_on,2,0,0,,2,,,62,127
38551,note_off,53,0,0,,2,,,62,127
38553,note_on,2,0,0,,4,,,64,127
38606,note_off,53,0,0,,4,,,64,127
38608,note_on,2,0,0,,6,,,66,127
38661,note_off,53,0,0,,6,,,66,127
38663,note_on,2,0,0,,7,,,67,127
38880,note_off,217,0,0,,7,,,67,127
38880,note_off,0,0,0,,7,,,79,127
38882,note_on,2,0,0,,3,,,63,127
38882,note_on,0,0,0,,0,,,72,127
39099,note_off,217,0,0,,0,,,72,127
39099,note_off,0,0,0,,3,,,63,127
39101,note_on,2,0,0,,2,,,62,127
39101,note_on,0,0,0,,12,,,71,127
39318,note_off,217,0,0,,12,,,71,127
39318,note_off,0,0,0,,2,,,62,127
39320,note_on,2,0,0,,0,,,60,127
39320,note_on,0,0,0,,0,,,72,127
39537,note_off,217,0,0,,0,,,72,127
39537,note_off,0,0,0,,0,,,60,127
39539,note_on,2,0,0,,12,,,59,127
39539,note_on,0,0,0,,2,,,74,127
39756,note_off,217,0,0,,12,,,59,127
39758,note_on,2,0,0,,7,,,55,127
39829,note_off,71,0,0,,2,,,74,127
39831,note_on,2,0,0,,3,,,75,127
39902,note_off,71,0,0,,3,,,75,127
39904,note_on,2,0,0,,5,,,77,127
39975,note_off,71,0,0,,5,,,77,127
39975,note_off,0,0,0,,7,,,55,127
39977,note_on,2,0,0,,0,,,60,127
39977,note_on,0,0,0,,3,,,75,127
40194,note_off,217,0,0,,3,,,75,127
40194,note_off,0,0,0,,0,,,60,127
40196,note_on,2,0,0,,2,,,62,127
40196,note_on,0,0,0,,2,,,74,127
40413,note_off,217,0,0,,2,,,74,127
40413,note_off,0,0,0,,2,,,62,127
40415,note_on,2,0,0,,0,,,60,127
40415,note_on,0,0,0,,3,,,63,127
40415,note_on,0,0,0,,0,,,72,127
40522,note_off,107,0,0,,0,,,72,127
40522,note_off,0,0,0,,3,,,63,127
40524,note_on,2,0,0,,8,,,68,127
40524,note_on,0,0,0,,5,,,77,127
40631,note_off,107,0,0,,5,,,77,127
40631,note_off,0,0,0,,8,,,68,127
40633,note_on,2,0,0,,7,,,67,127
40633,note_on,0,0,0,,3,,,75,127
40740,note_off,107,0,0,,3,,,75,127
40740,note_off,0,0,0,,7,,,67,127
40742,note_on,2,0,0,,5,,,65,127
40742,note_on,0,0,0,,2,,,74,127
40847,note_off,105,0,0,,0,,,60,127
40849,note_off,2,0,0,,2,,,74,127
40849,note_off,0,0,0,,5,,,65,127
40851,note_on,2,0,0,,7,,,67,127
40851,note_on,0,0,0,,3,,,63,127
40851,note_on,0,0,0,,0,,,72,127
41068,note_off,217,0,0,,0,,,72,127
41068,note_off,0,0,0,,3,,,63,127
41068,note_off,0,0,0,,7,,,67,127
41070,note_on,2,0,0,,5,,,65,127
41070,note_on,0,0,0,,2,,,62,127
41070,note_on,0,0,0,,12,,,71,127
41287,note_off,217,0,0,,12,,,71,127
41287,note_off,0,0,0,,2,,,62,127
41287,note_off,0,0,0,,5,,,65,127
41289,note_on,2,0,0,,0,,,60,127
41289,note_on,0,0,0,,3,,,63,127
41289,note_on,0,0,0,,0,,,72,127
41396,note_off,107,0,0,,0,,,72,127
41396,note_off,0,0,0,,3,,,63,127
41398,note_on,2,0,0,,8,,,68,127
41398,note_on,0,0,0,,5,,,77,127
41505,note_off,107,0,0,,5,,,77,127
41505,note_off,0,0,0,,8,,,68,127
41507,note_on,2,0,0,,7,,,67,127
41507,note_on,0,0,0,,3,,,75,127
41614,note_off,107,0,0,,3,,,75,127
41614,note_off,0,0,0,,7,,,67,127
41616,note_on,2,0,0,,5,,,65,127
41616,note_on,0,0,0,,2,,,74,127
41721,note_off,105,0,0,,0,,,60,127
41723,note_off,2,0,0,,2,,,74,127
41723,note_off,0,0,0,,5,,,65,127
41725,note_on,2,0,0,,3,,,63,127
41725,note_on,0,0,0,,7,,,67,127
41725,note_on,0,0,0,,0,,,72,127
41942,note_off,217,0,0,,0,,,72,127
41942,note_off,0,0,0,,7,,,67,127
41942,note_off,0,0,0,,3,,,63,127
41944,note_on,2,0,0,,5,,,65,127
41944,note_on,0,0,0,,2,,,62,127
41944,note_on,0,0,0,,12,,,71,127
42161,note_off,217,0,0,,12,,,71,127
42161,note_off,0,0,0,,2,,,62,127
42161,note_off,0,0,0,,5,,,65,127
42163,note_on,2,0,0,,3,,,63,127
42163,note_on,0,0,0,,0,,,60,127
42163,note_on,0,0,0,,0,,,72,127
42270,note_off,107,0,0,,0,,,72,127
42272,note_on,2,0,0,,7,,,79,127
42379,note_off,107,0,0,,7,,,79,127
42381,note_on,2,0,0,,5,,,77,127
42488,note_off,107,0,0,,5,,,77,127
42490,note_on,2,0,0,,3,,,75,127
42597,note_off,107,0,0,,3,,,75,127
42597,note_off,0,0,0,,0,,,60,127
42597,note_off,0,0,0,,3,,,63,127
42599,note_on,2,0,0,,5,,,53,127
42599,note_on,0,0,0,,2,,,74,127
42706,note_off,107,0,0,,2,,,74,127
42708,note_on,2,0,0,,0,,,72,127
42815,note_off,107,0,0,,0,,,72,127
42815,note_off,0,0,0,,5,,,53,127
42817,note_on,2,0,0,,8,,,56,127
42817,note_on,0,0,0,,12,,,71,127
42924,note_off,107,0,0,,12,,,71,127
42926,note_on,2,0,0,,0,,,72,127
43033,note_off,107,0,0,,0,,,72,127
43033,note_off,0,0,0,,8,,,56,127
43035,note_on,2,0,0,,7,,,55,127
43035,note_on,0,0,0,,2,,,74,127
43106,note_off,71,0,0,,2,,,74,127
43108,note_on,2,0,0,,0,,,72,127
43179,note_off,71,0,0,,0,,,72,127
43181,note_on,2,0,0,,2,,,74,127
43252,note_off,71,0,0,,2,,,74,127
43254,note_on,2,0,0,,0,,,72,127
43325,note_off,71,0,0,,0,,,72,127
43327,note_on,2,0,0,,12,,,71,127
43398,note_off,71,0,0,,12,,,71,127
43400,note_on,2,0,0,,0,,,72,127
43471,note_off,71,0,0,,0,,,72,127
43473,note_on,2,0,0,,7,,,43,127
43473,note_on,0,0,0,,12,,,71,127
43905,note_off,432,0,0,,12,,,71,127
43910,note_off,5,0,0,,7,,,43,127
43911,note_off,1,0,0,,7,,,55,127
43921,note_on,10,0,0,,7,,,55,127
43921,note_on,0,0,0,,2,,,74,127
44031,note_on,110,0,0,,2,,,62,127
44031,note_on,0,0,0,,5,,,65,127
44138,note_off,107,0,0,,5,,,65,127
44138,note_off,0,0,0,,2,,,62,127
44140,note_on,2,0,0,,0,,,60,127
44140,note_on,0,0,0,,3,,,63,127
44247,note_off,107,0,0,,3,,,63,127
44247,note_off,0,0,0,,0,,,60,127
44249,note_on,2,0,0,,2,,,62,127
44249,note_on,0,0,0,,5,,,65,127
44354,note_off,105,0,0,,2,,,74,127
44356,note_off,2,0,0,,5,,,65,127
44356,note_off,0,0,0,,2,,,62,127
44358,note_on,2,0,0,,3,,,63,127
44358,note_on,0,0,0,,0,,,72,127
44575,note_off,217,0,0,,0,,,72,127
44575,note_off,0,0,0,,3,,,63,127
44577,note_on,2,0,0,,2,,,62,127
44577,note_on,0,0,0,,12,,,71,127
44794,note_off,217,0,0,,12,,,71,127
44794,note_off,0,0,0,,2,,,62,127
44795,note_off,1,0,0,,7,,,55,127
44796,note_on,1,0,0,,7,,,55,127
44796,note_on,0,0,0,,3,,,75,127
44906,note_on,110,0,0,,3,,,63,127
44906,note_on,0,0,0,,7,,,67,127
45013,note_off,107,0,0,,7,,,67,127
45013,note_off,0,0,0,,3,,,63,127
45015,note_on,2,0,0,,2,,,62,127
45015,note_on,0,0,0,,5,,,65,127
45122,note_off,107,0,0,,5,,,65,127
45122,note_off,0,0,0,,2,,,62,127
45124,note_on,2,0,0,,3,,,63,127
45124,note_on,0,0,0,,7,,,67,127
45229,note_off,105,0,0,,3,,,75,127
45231,note_off,2,0,0,,7,,,67,127
45231,note_off,0,0,0,,3,,,63,127
45233,note_on,2,0,0,,5,,,65,127
45233,note_on,0,0,0,,2,,,74,127
45450,note_off,217,0,0,,2,,,74,127
45450,note_off,0,0,0,,5,,,65,127
45452,note_on,2,0,0,,3,,,63,127
45452,note_on,0,0,0,,0,,,72,127
45669,note_off,217,0,0,,0,,,72,127
45669,note_off,0,0,0,,3,,,63,127
45670,note_off,1,0,0,,7,,,55,127
45671,note_on,1,0,0,,7,,,55,127
45671,note_on,0,0,0,,5,,,77,127
45781,note_on,110,0,0,,5,,,65,127
45781,note_on,0,0,0,,8,,,68,127
45888,note_off,107,0,0,,8,,,68,127
45888,note_off,0,0,0,,5,,,65,127
45890,note_on,2,0,0,,3,,,63,127
45890,note_on,0,0,0,,7,,,67,127
45997,note_off,107,0,0,,7,,,67,127
45997,note_off,0,0,0,,3,,,63,127
45999,note_on,2,0,0,,5,,,65,127
45999,note_on,0,0,0,,8,,,68,127
46104,note_off,105,0,0,,5,,,77,127
46106,note_off,2,0,0,,8,,,68,127
46106,note_off,0,0,0,,5,,,65,127
46108,note_on,2,0,0,,7,,,67,127
46108,note_on,0,0,0,,12,,,71,127
46325,note_off,217,0,0,,12,,,71,127
46325,note_off,0,0,0,,7,,,67,127
46327,note_on,2,0,0,,8,,,68,127
46327,note_on,0,0,0,,0,,,72,127
46544,note_off,217,0,0,,0,,,72,127
46544,note_off,0,0,0,,8,,,68,127
46545,note_off,1,0,0,,7,,,55,127
46546,note_on,1,0,0,,7,,,67,127
46546,note_on,0,0,0,,2,,,74,127
46763,note_off,217,0,0,,2,,,74,127
46765,note_on,2,0,0,,6,,,78,127
46984,note_on,219,0,0,,7,,,55,127
47201,note_off,217,0,0,,6,,,78,127
47203,note_on,2,0,0,,7,,,79,127
47406,note_off,203,0,0,,7,,,79,127
47406,note_off,0,0,0,,7,,,67,127
47420,note_off,14,0,0,,7,,,55,127
47431,note_on,11,0,0,,0,,,48,127
47431,note_on,0,0,0,,0,,,60,127
47538,note_off,107,0,0,,0,,,48,127
47540,note_on,2,0,0,,2,,,50,127
47593,note_off,53,0,0,,2,,,50,127
47595,note_on,2,0,0,,3,,,51,127
47648,note_off,53,0,0,,3,,,51,127
47650,note_on,2,0,0,,5,,,53,127
47703,note_off,53,0,0,,5,,,53,127
47705,note_on,2,0,0,,7,,,55,127
47758,note_off,53,0,0,,7,,,55,127
47760,note_on,2,0,0,,10,,,57,127
47813,note_off,53,0,0,,10,,,57,127
47815,note_on,2,0,0,,12,,,59,127
47865,note_off,50,0,0,,0,,,60,127
47867,note_off,2,0,0,,12,,,59,127
47869,note_on,2,0,0,,0,,,60,127
47979,note_on,110,0,0,,2,,,62,127
48032,note_off,53,0,0,,2,,,62,127
48034,note_on,2,0,0,,3,,,63,127
48087,note_off,53,0,0,,3,,,63,127
48089,note_on,2,0,0,,5,,,65,127
48142,note_off,53,0,0,,5,,,65,127
48144,note_on,2,0,0,,7,,,67,127
48197,note_off,53,0,0,,7,,,67,127
48199,note_on,2,0,0,,10,,,69,127
48252,note_off,53,0,0,,10,,,69,127
48254,note_on,2,0,0,,12,,,71,127
48307,note_off,53,0,0,,12,,,71,127
48309,note_on,2,0,0,,0,,,72,127
48416,note_off,107,0,0,,0,,,60,127
48418,note_on,2,0,0,,2,,,62,127
48471,note_off,53,0,0,,2,,,62,127
48473,note_on,2,0,0,,3,,,63,127
48526,note_off,53,0,0,,3,,,63,127
48528,note_on,2,0,0,,5,,,65,127
48581,note_off,53,0,0,,5,,,65,127
48583,note_on,2,0,0,,7,,,67,127
48636,note_off,53,0,0,,7,,,67,127
48638,note_on,2,0,0,,10,,,69,127
48691,note_off,53,0,0,,10,,,69,127
48693,note_on,2,0,0,,12,,,71,127
48743,note_off,50,0,0,,0,,,72,127
48745,note_off,2,0,0,,12,,,71,127
48747,note_on,2,0,0,,0,,,72,127
48857,note_on,110,0,0,,2,,,74,127
48910,note_off,53,0,0,,2,,,74,127
48912,note_on,2,0,0,,3,,,75,127
48965,note_off,53,0,0,,3,,,75,127
48967,note_on,2,0,0,,5,,,77,127
49020,note_off,53,0,0,,5,,,77,127
49022,note_on,2,0,0,,7,,,79,127
49075,note_off,53,0,0,,7,,,79,127
49077,note_on,2,0,0,,10,,,81,127
49130,note_off,53,0,0,,10,,,81,127
49132,note_on,2,0,0,,12,,,83,127
49185,note_off,53,0,0,,12,,,83,127
49187,note_on,2,0,0,,0,,,84,127
49294,note_off,107,0,0,,0,,,72,127
49296,note_on,2,0,0,,11,,,70,127
49403,note_off,107,0,0,,11,,,70,127
49405,note_on,2,0,0,,8,,,68,127
49512,note_off,107,0,0,,8,,,68,127
49514,note_on,2,0,0,,7,,,67,127
49621,note_off,107,0,0,,7,,,67,127
49623,note_on,2,0,0,,5,,,65,127
49730,note_off,107,0,0,,0,,,84,127
49732,note_on,2,0,0,,11,,,82,127
49839,note_off,107,0,0,,11,,,82,127
49841,note_on,2,0,0,,8,,,80,127
49912,note_off,71,0,0,,8,,,80,127
49914,note_on,2,0,0,,7,,,79,127
49985,note_off,71,0,0,,7,,,79,127
49987,note_on,2,0,0,,5,,,77,127
50058,note_off,71,0,0,,5,,,77,127
50058,note_off,0,0,0,,5,,,65,127
50060,note_on,2,0,0,,3,,,63,127
50060,note_on,0,0,0,,7,,,79,127
50131,note_off,71,0,0,,7,,,79,127
50133,note_on,2,0,0,,5,,,77,127
50204,note_off,71,0,0,,5,,,77,127
50206,note_on,2,0,0,,7,,,79,127
50277,note_off,71,0,0,,7,,,79,127
50277,note_off,0,0,0,,3,,,63,127
50279,note_on,2,0,0,,5,,,65,127
50279,note_on,0,0,0,,8,,,80,127
50350,note_off,71,0,0,,8,,,80,127
50352,note_on,2,0,0,,7,,,79,127
50423,note_off,71,0,0,,7,,,79,127
50425,note_on,2,0,0,,5,,,77,127
50496,note_off,71,0,0,,5,,,77,127
50496,note_off,0,0,0,,5,,,65,127
50498,note_on,2,0,0,,7,,,67,127
50498,note_on,0,0,0,,0,,,72,127
50498,note_on,0,0,0,,3,,,75,127
50715,note_off,217,0,0,,3,,,75,127
50715,note_off,0,0,0,,0,,,72,127
50715,note_off,0,0,0,,7,,,67,127
50717,note_on,2,0,0,,5,,,65,127
50717,note_on,0,0,0,,1,,,73,127
50717,note_on,0,0,0,,11,,,70,127
50934,note_off,217,0,0,,11,,,70,127
50934,note_off,0,0,0,,1,,,73,127
50934,note_off,0,0,0,,5,,,65,127
50936,note_on,2,0,0,,4,,,64,127
50936,note_on,0,0,0,,0,,,72,127
50936,note_on,0,0,0,,11,,,70,127
51007,note_off,71,0,0,,0,,,72,127
51009,note_on,2,0,0,,1,,,73,127
51080,note_off,71,0,0,,1,,,73,127
51082,note_on,2,0,0,,3,,,75,127
51153,note_off,71,0,0,,3,,,75,127
51153,note_off,0,0,0,,4,,,64,127
51155,note_on,2,0,0,,5,,,65,127
51155,note_on,0,0,0,,1,,,73,127
51226,note_off,71,0,0,,1,,,73,127
51228,note_on,2,0,0,,0,,,72,127
51265,note_off,37,0,0,,11,,,70,127
51299,note_off,34,0,0,,0,,,72,127
51301,note_on,2,0,0,,11,,,70,127
51372,note_off,71,0,0,,11,,,70,127
51372,note_off,0,0,0,,5,,,65,127
51374,note_on,2,0,0,,5,,,65,127
51374,note_on,0,0,0,,8,,,68,127
51374,note_on,0,0,0,,0,,,72,127
51591,note_off,217,0,0,,0,,,72,127
51591,note_off,0,0,0,,5,,,65,127
51593,note_on,2,0,0,,3,,,63,127
51593,note_on,0,0,0,,0,,,72,127
51808,note_off,215,0,0,,8,,,68,127
51810,note_off,2,0,0,,0,,,72,127
51810,note_off,0,0,0,,3,,,63,127
51812,note_on,2,0,0,,1,,,61,127
51812,note_on,0,0,0,,11,,,70,127
51885,note_on,73,0,0,,0,,,72,127
51956,note_off,71,0,0,,0,,,72,127
51958,note_on,2,0,0,,1,,,73,127
52029,note_off,71,0,0,,1,,,73,127
52029,note_off,0,0,0,,11,,,70,127
52029,note_off,0,0,0,,1,,,61,127
52031,note_on,2,0,0,,3,,,63,127
52031,note_on,0,0,0,,0,,,72,127
52102,note_off,71,0,0,,0,,,72,127
52104,note_on,2,0,0,,11,,,70,127
52175,note_off,71,0,0,,11,,,70,127
52177,note_on,2,0,0,,8,,,68,127
52248,note_off,71,0,0,,8,,,68,127
52248,note_off,0,0,0,,3,,,63,127
52250,note_on,2,0,0,,3,,,63,127
52250,note_on,0,0,0,,0,,,72,127
52467,note_off,217,0,0,,0,,,72,127
52467,note_off,0,0,0,,3,,,63,127
52469,note_on,2,0,0,,1,,,61,127
52469,note_on,0,0,0,,7,,,67,127
52469,note_on,0,0,0,,11,,,70,127
52686,note_off,217,0,0,,11,,,70,127
52686,note_off,0,0,0,,7,,,67,127
52686,note_off,0,0,0,,1,,,61,127
52688,note_on,2,0,0,,0,,,60,127
52688,note_on,0,0,0,,8,,,68,127
52761,note_on,73,0,0,,11,,,70,127
52832,note_off,71,0,0,,11,,,70,127
52834,note_on,2,0,0,,0,,,72,127
52905,note_off,71,0,0,,0,,,72,127
52905,note_off,0,0,0,,8,,,68,127
52905,note_off,0,0,0,,0,,,60,127
52907,note_on,2,0,0,,1,,,61,127
52907,note_on,0,0,0,,11,,,70,127
52978,note_off,71,0,0,,11,,,70,127
52980,note_on,2,0,0,,8,,,68,127
53051,note_off,71,0,0,,8,,,68,127
53053,note_on,2,0,0,,7,,,67,127
53124,note_off,71,0,0,,1,,,61,127
53126,note_on,2,0,0,,1,,,61,127
53126,note_on,0,0,0,,11,,,70,127
53129,note_off,3,0,0,,7,,,67,127
53343,note_off,214,0,0,,11,,,70,127
53343,note_off,0,0,0,,1,,,61,127
53345,note_on,2,0,0,,0,,,60,127
53345,note_on,0,0,0,,8,,,68,127
53345,note_on,0,0,0,,5,,,65,127
53562,note_off,217,0,0,,5,,,65,127
53562,note_off,0,0,0,,8,,,68,127
53562,note_off,0,0,0,,0,,,60,127
53564,note_on,2,0,0,,11,,,58,127
53564,note_on,0,0,0,,7,,,67,127
53635,note_off,71,0,0,,7,,,67,127
53637,note_on,2,0,0,,8,,,68,127
53708,note_off,71,0,0,,8,,,68,127
53710,note_on,2,0,0,,11,,,70,127
53781,note_off,71,0,0,,11,,,70,127
53781,note_off,0,0,0,,11,,,58,127
53783,note_on,2,0,0,,0,,,60,127
53783,note_on,0,0,0,,8,,,68,127
53854,note_off,71,0,0,,8,,,68,127
53856,note_on,2,0,0,,7,,,67,127
53927,note_off,71,0,0,,7,,,67,127
53929,note_on,2,0,0,,5,,,65,127
54000,note_off,71,0,0,,5,,,65,127
54000,note_off,0,0,0,,0,,,60,127
54002,note_on,2,0,0,,0,,,60,127
54002,note_on,0,0,0,,8,,,68,127
54219,note_off,217,0,0,,8,,,68,127
54219,note_off,0,0,0,,0,,,60,127
54221,note_on,2,0,0,,11,,,58,127
54221,note_on,0,0,0,,3,,,63,127
54221,note_on,0,0,0,,6,,,66,127
54438,note_off,217,0,0,,6,,,66,127
54438,note_off,0,0,0,,3,,,63,127
54438,note_off,0,0,0,,11,,,58,127
54440,note_on,2,0,0,,0,,,60,127
54440,note_on,0,0,0,,10,,,57,127
54440,note_on,0,0,0,,5,,,65,127
54657,note_off,217,0,0,,5,,,65,127
54657,note_off,0,0,0,,10,,,57,127
54668,note_on,11,0,0,,5,,,53,127
54668,note_on,0,0,0,,0,,,72,127
54874,note_off,206,0,0,,0,,,60,127
54885,note_off,11,0,0,,5,,,53,127
54887,note_on,2,0,0,,6,,,54,127
54958,note_off,71,0,0,,0,,,72,127
54960,note_on,2,0,0,,1,,,73,127
55031,note_off,71,0,0,,1,,,73,127
55033,note_on,2,0,0,,3,,,75,127
55104,note_off,71,0,0,,3,,,75,127
55106,note_on,2,0,0,,3,,,63,127
55106,note_on,0,0,0,,1,,,73,127
55177,note_off,71,0,0,,1,,,73,127
55179,note_on,2,0,0,,0,,,72,127
55250,note_off,71,0,0,,0,,,72,127
55252,note_on,2,0,0,,11,,,70,127
55321,note_off,69,0,0,,6,,,54,127
55323,note_off,2,0,0,,11,,,70,127
55323,note_off,0,0,0,,3,,,63,127
55325,note_on,2,0,0,,5,,,53,127
55325,note_on,0,0,0,,3,,,63,127
55325,note_on,0,0,0,,10,,,69,127
55542,note_off,217,0,0,,10,,,69,127
55542,note_off,0,0,0,,3,,,63,127
55542,note_off,0,0,0,,5,,,53,127
55544,note_on,2,0,0,,1,,,61,127
55544,note_on,0,0,0,,5,,,53,127
55544,note_on,0,0,0,,11,,,70,127
55761,note_off,217,0,0,,11,,,70,127
55761,note_off,0,0,0,,5,,,53,127
55761,note_off,0,0,0,,1,,,61,127
55763,note_on,2,0,0,,0,,,60,127
55763,note_on,0,0,0,,5,,,53,127
55763,note_on,0,0,0,,0,,,72,127
55834,note_off,71,0,0,,0,,,72,127
55836,note_on,2,0,0,,1,,,73,127
55907,note_off,71,0,0,,1,,,73,127
55909,note_on,2,0,0,,3,,,75,127
55980,note_off,71,0,0,,3,,,75,127
55980,note_off,0,0,0,,0,,,60,127
55982,note_on,2,0,0,,11,,,58,127
55982,note_on,0,0,0,,1,,,73,127
56053,note_off,71,0,0,,1,,,73,127
56055,note_on,2,0,0,,0,,,72,127
56126,note_off,71,0,0,,0,,,72,127
56128,note_on,2,0,0,,11,,,70,127
56197,note_off,69,0,0,,5,,,53,127
56199,note_off,2,0,0,,11,,,70,127
56199,note_off,0,0,0,,11,,,58,127
56201,note_on,2,0,0,,5,,,53,127
56201,note_on,0,0,0,,0,,,72,127
56254,note_off,53,0,0,,0,,,72,127
56256,note_on,2,0,0,,11,,,70,127
56309,note_off,53,0,0,,11,,,70,127
56311,note_on,2,0,0,,0,,,72,127
56364,note_off,53,0,0,,0,,,72,127
56366,note_on,2,0,0,,11,,,70,127
56419,note_off,53,0,0,,11,,,70,127
56421,note_on,2,0,0,,0,,,72,127
56474,note_off,53,0,0,,0,,,72,127
56476,note_on,2,0,0,,11,,,70,127
56529,note_off,53,0,0,,11,,,70,127
56531,note_on,2,0,0,,10,,,69,127
56584,note_off,53,0,0,,10,,,69,127
56586,note_on,2,0,0,,11,,,70,127
56639,note_off,53,0,0,,11,,,70,127
56641,note_on,2,0,0,,5,,,41,127
56641,note_on,0,0,0,,10,,,69,127
57030,note_off,389,0,0,,10,,,69,127
57078,note_off,48,0,0,,5,,,41,127
57079,note_off,1,0,0,,5,,,53,127
57089,note_on,10,0,0,,5,,,53,127
57089,note_on,0,0,0,,0,,,72,127
57199,note_on,110,0,0,,0,,,60,127
57199,note_on,0,0,0,,3,,,63,127
57306,note_off,107,0,0,,3,,,63,127
57306,note_off,0,0,0,,0,,,60,127
57308,note_on,2,0,0,,11,,,58,127
57308,note_on,0,0,0,,1,,,61,127
57415,note_off,107,0,0,,1,,,61,127
57415,note_off,0,0,0,,11,,,58,127
57417,note_on,2,0,0,,0,,,60,127
57417,note_on,0,0,0,,3,,,63,127
57522,note_off,105,0,0,,0,,,72,127
57524,note_off,2,0,0,,3,,,63,127
57524,note_off,0,0,0,,0,,,60,127
57526,note_on,2,0,0,,1,,,61,127
57526,note_on,0,0,0,,11,,,70,127
57743,note_off,217,0,0,,11,,,70,127
57743,note_off,0,0,0,,1,,,61,127
57745,note_on,2,0,0,,0,,,60,127
57745,note_on,0,0,0,,10,,,69,127
57962,note_off,217,0,0,,10,,,69,127
57962,note_off,0,0,0,,0,,,60,127
57963,note_off,1,0,0,,5,,,53,127
57964,note_on,1,0,0,,5,,,53,127
57964,note_on,0,0,0,,1,,,73,127
58074,note_on,110,0,0,,1,,,61,127
58074,note_on,0,0,0,,5,,,65,127
58181,note_off,107,0,0,,5,,,65,127
58181,note_off,0,0,0,,1,,,61,127
58183,note_on,2,0,0,,0,,,60,127
58183,note_on,0,0,0,,3,,,63,127
58290,note_off,107,0,0,,3,,,63,127
58290,note_off,0,0,0,,0,,,60,127
58292,note_on,2,0,0,,1,,,61,127
58292,note_on,0,0,0,,5,,,65,127
58397,note_off,105,0,0,,1,,,73,127
58399,note_off,2,0,0,,5,,,65,127
58399,note_off,0,0,0,,1,,,61,127
58401,note_on,2,0,0,,3,,,63,127
58401,note_on,0,0,0,,0,,,72,127
58618,note_off,217,0,0,,0,,,72,127
58618,note_off,0,0,0,,3,,,63,127
58620,note_on,2,0,0,,1,,,61,127
58620,note_on,0,0,0,,11,,,70,127
58837,note_off,217,0,0,,11,,,70,127
58837,note_off,0,0,0,,1,,,61,127
58838,note_off,1,0,0,,5,,,53,127
58839,note_on,1,0,0,,5,,,53,127
58839,note_on,0,0,0,,3,,,75,127
58949,note_on,110,0,0,,3,,,63,127
58949,note_on,0,0,0,,7,,,67,127
59056,note_off,107,0,0,,7,,,67,127
59056,note_off,0,0,0,,3,,,63,127
59058,note_on,2,0,0,,1,,,61,127
59058,note_on,0,0,0,,5,,,65,127
59165,note_off,107,0,0,,5,,,65,127
59165,note_off,0,0,0,,1,,,61,127
59167,note_on,2,0,0,,3,,,63,127
59167,note_on,0,0,0,,7,,,67,127
59272,note_off,105,0,0,,3,,,75,127
59274,note_off,2,0,0,,7,,,67,127
59274,note_off,0,0,0,,3,,,63,127
59276,note_on,2,0,0,,5,,,65,127
59276,note_on,0,0,0,,10,,,69,127
59493,note_off,217,0,0,,10,,,69,127
59493,note_off,0,0,0,,5,,,65,127
59495,note_on,2,0,0,,6,,,66,127
59495,note_on,0,0,0,,11,,,70,127
59712,note_off,217,0,0,,11,,,70,127
59712,note_off,0,0,0,,6,,,66,127
59713,note_off,1,0,0,,5,,,53,127
59714,note_on,1,0,0,,5,,,65,127
59714,note_on,0,0,0,,0,,,72,127
59931,note_off,217,0,0,,0,,,72,127
59933,note_on,2,0,0,,4,,,76,127
60152,note_on,219,0,0,,5,,,53,127
60369,note_off,217,0,0,,4,,,76,127
60371,note_on,2,0,0,,5,,,77,127
60588,note_off,217,0,0,,5,,,77,127
60588,note_off,0,0,0,,5,,,53,127
60589,note_off,1,0,0,,5,,,65,127
60590,note_on,1,0,0,,5,,,53,127
60590,note_on,0,0,0,,0,,,72,127
60700,note_on,110,0,0,,0,,,60,127
60700,note_on,0,0,0,,3,,,63,127
60807,note_off,107,0,0,,3,,,63,127
60807,note_off,0,0,0,,0,,,60,127
60809,note_on,2,0,0,,11,,,58,127
60809,note_on,0,0,0,,1,,,61,127
60916,note_off,107,0,0,,1,,,61,127
60916,note_off,0,0,0,,11,,,58,127
60918,note_on,2,0,0,,0,,,60,127
60918,note_on,0,0,0,,3,,,63,127
61023,note_off,105,0,0,,0,,,72,127
61025,note_off,2,0,0,,3,,,63,127
61025,note_off,0,0,0,,0,,,60,127
61027,note_on,2,0,0,,1,,,61,127
61027,note_on,0,0,0,,11,,,70,127
61244,note_off,217,0,0,,11,,,70,127
61244,note_off,0,0,0,,1,,,61,127
61246,note_on,2,0,0,,0,,,60,127
61246,note_on,0,0,0,,10,,,69,127
61463,note_off,217,0,0,,10,,,69,127
61463,note_off,0,0,0,,0,,,60,127
61464,note_off,1,0,0,,5,,,53,127
61465,note_on,1,0,0,,5,,,53,127
61465,note_on,0,0,0,,1,,,73,127
61575,note_on,110,0,0,,1,,,61,127
61575,note_on,0,0,0,,5,,,65,127
61682,note_off,107,0,0,,5,,,65,127
61682,note_off,0,0,0,,1,,,61,127
61684,note_on,2,0,0,,0,,,60,127
61684,note_on,0,0,0,,3,,,63,127
61791,note_off,107,0,0,,3,,,63,127
61791,note_off,0,0,0,,0,,,60,127
61793,note_on,2,0,0,,1,,,61,127
61793,note_on,0,0,0,,5,,,65,127
61898,note_off,105,0,0,,1,,,73,127
61900,note_off,2,0,0,,5,,,65,127
61900,note_off,0,0,0,,1,,,61,127
61902,note_on,2,0,0,,3,,,63,127
61902,note_on,0,0,0,,0,,,72,127
62119,note_off,217,0,0,,0,,,72,127
62119,note_off,0,0,0,,3,,,63,127
62121,note_on,2,0,0,,1,,,61,127
62121,note_on,0,0,0,,11,,,70,127
62338,note_off,217,0,0,,11,,,70,127
62338,note_off,0,0,0,,1,,,61,127
62339,note_off,1,0,0,,5,,,53,127
62340,note_on,1,0,0,,5,,,53,127
62340,note_on,0,0,0,,3,,,75,127
62450,note_on,110,0,0,,3,,,63,127
62450,note_on,0,0,0,,7,,,67,127
62557,note_off,107,0,0,,7,,,67,127
62557,note_off,0,0,0,,3,,,63,127
62559,note_on,2,0,0,,1,,,61,127
62559,note_on,0,0,0,,5,,,65,127
62666,note_off,107,0,0,,5,,,65,127
62666,note_off,0,0,0,,1,,,61,127
62668,note_on,2,0,0,,3,,,63,127
62668,note_on,0,0,0,,7,,,67,127
62773,note_off,105,0,0,,3,,,75,127
62775,note_off,2,0,0,,7,,,67,127
62775,note_off,0,0,0,,3,,,63,127
62777,note_on,2,0,0,,5,,,65,127
62777,note_on,0,0,0,,10,,,69,127
62994,note_off,217,0,0,,10,,,69,127
62994,note_off,0,0,0,,5,,,65,127
62996,note_on,2,0,0,,6,,,66,127
62996,note_on,0,0,0,,11,,,70,127
63213,note_off,217,0,0,,11,,,70,127
63213,note_off,0,0,0,,6,,,66,127
63214,note_off,1,0,0,,5,,,53,127
63215,note_on,1,0,0,,5,,,65,127
63215,note_on,0,0,0,,0,,,72,127
63432,note_off,217,0,0,,0,,,72,127
63434,note_on,2,0,0,,4,,,76,127
63653,note_on,219,0,0,,5,,,53,127
63870,note_off,217,0,0,,4,,,76,127
63871,note_off,1,0,0,,5,,,65,127
63872,note_on,1,0,0,,5,,,77,127
64081,note_off,209,0,0,,5,,,53,127
64089,note_off,8,0,0,,5,,,77,127
64100,note_on,11,0,0,,11,,,46,127
64100,note_on,0,0,0,,11,,,58,127
64207,note_off,107,0,0,,11,,,46,127
64209,note_on,2,0,0,,0,,,48,127
64262,note_off,53,0,0,,0,,,48,127
64264,note_on,2,0,0,,2,,,50,127
64317,note_off,53,0,0,,2,,,50,127
64319,note_on,2,0,0,,3,,,51,127
64372,note_off,53,0,0,,3,,,51,127
64374,note_on,2,0,0,,5,,,53,127
64427,note_off,53,0,0,,5,,,53,127
64429,note_on,2,0,0,,7,,,55,127
64482,note_off,53,0,0,,7,,,55,127
64484,note_on,2,0,0,,10,,,57,127
64534,note_off,50,0,0,,11,,,58,127
64536,note_off,2,0,0,,10,,,57,127
64538,note_on,2,0,0,,11,,,58,127
64648,note_on,110,0,0,,0,,,60,127
64701,note_off,53,0,0,,0,,,60,127
64703,note_on,2,0,0,,2,,,62,127
64756,note_off,53,0,0,,2,,,62,127
64758,note_on,2,0,0,,3,,,63,127
64811,note_off,53,0,0,,3,,,63,127
64813,note_on,2,0,0,,5,,,65,127
64866,note_off,53,0,0,,5,,,65,127
64868,note_on,2,0,0,,7,,,67,127
64921,note_off,53,0,0,,7,,,67,127
64923,note_on,2,0,0,,10,,,69,127
64976,note_off,53,0,0,,10,,,69,127
64978,note_on,2,0,0,,11,,,70,127
65085,note_off,107,0,0,,11,,,58,127
65087,note_on,2,0,0,,0,,,60,127
65140,note_off,53,0,0,,0,,,60,127
65142,note_on,2,0,0,,2,,,62,127
65195,note_off,53,0,0,,2,,,62,127
65197,note_on,2,0,0,,3,,,63,127
65250,note_off,53,0,0,,3,,,63,127
65252,note_on,2,0,0,,5,,,65,127
65305,note_off,53,0,0,,5,,,65,127
65307,note_on,2,0,0,,7,,,67,127
65360,note_off,53,0,0,,7,,,67,127
65362,note_on,2,0,0,,10,,,69,127
65412,note_off,50,0,0,,11,,,70,127
65414,note_off,2,0,0,,10,,,69,127
65416,note_on,2,0,0,,11,,,70,127
65526,note_on,110,0,0,,0,,,72,127
65579,note_off,53,0,0,,0,,,72,127
65581,note_on,2,0,0,,2,,,74,127
65634,note_off,53,0,0,,2,,,74,127
65636,note_on,2,0,0,,3,,,75,127
65689,note_off,53,0,0,,3,,,75,127
65691,note_on,2,0,0,,5,,,77,127
65744,note_off,53,0,0,,5,,,77,127
65746,note_on,2,0,0,,7,,,79,127
65799,note_off,53,0,0,,7,,,79,127
65801,note_on,2,0,0,,10,,,81,127
65854,note_off,53,0,0,,10,,,81,127
65856,note_on,2,0,0,,11,,,82,127
65963,note_off,107,0,0,,11,,,70,127
65965,note_on,2,0,0,,10,,,69,127
66072,note_off,107,0,0,,10,,,69,127
66074,note_on,2,0,0,,7,,,67,127
66181,note_off,107,0,0,,7,,,67,127
66183,note_on,2,0,0,,5,,,65,127
66290,note_off,107,0,0,,5,,,65,127
66292,note_on,2,0,0,,3,,,63,127
66399,note_off,107,0,0,,11,,,82,127
66401,note_on,2,0,0,,10,,,81,127
66508,note_off,107,0,0,,10,,,81,127
66510,note_on,2,0,0,,7,,,79,127
66581,note_off,71,0,0,,7,,,79,127
66583,note_on,2,0,0,,5,,,77,127
66654,note_off,71,0,0,,5,,,77,127
66656,note_on,2,0,0,,3,,,75,127
66727,note_off,71,0,0,,3,,,75,127
66727,note_off,0,0,0,,3,,,63,127
66729,note_on,2,0,0,,2,,,62,127
66729,note_on,0,0,0,,5,,,77,127
66800,note_off,71,0,0,,5,,,77,127
66802,note_on,2,0,0,,3,,,75,127
66873,note_off,71,0,0,,3,,,75,127
66875,note_on,2,0,0,,5,,,77,127
66946,note_off,71,0,0,,5,,,77,127
66946,note_off,0,0,0,,2,,,62,127
66948,note_on,2,0,0,,3,,,63,127
66948,note_on,0,0,0,,7,,,79,127
67019,note_off,71,0,0,,7,,,79,127
67021,note_on,2,0,0,,5,,,77,127
67092,note_off,71,0,0,,5,,,77,127
67094,note_on,2,0,0,,3,,,75,127
67165,note_off,71,0,0,,3,,,75,127
67165,note_off,0,0,0,,3,,,63,127
67167,note_on,2,0,0,,5,,,65,127
67167,note_on,0,0,0,,2,,,74,127
67384,note_off,217,0,0,,2,,,74,127
67384,note_off,0,0,0,,5,,,65,127
67386,note_on,2,0,0,,5,,,53,127
67386,note_on,0,0,0,,0,,,72,127
67523,note_off,137,0,0,,0,,,72,127
67603,note_off,80,0,0,,5,,,53,127
67605,note_on,2,0,0,,11,,,46,127
67605,note_on,0,0,0,,11,,,58,127
67712,note_off,107,0,0,,11,,,46,127
67714,note_on,2,0,0,,0,,,48,127
67767,note_off,53,0,0,,0,,,48,127
67769,note_on,2,0,0,,2,,,50,127
67822,note_off,53,0,0,,2,,,50,127
67824,note_on,2,0,0,,3,,,51,127
67877,note_off,53,0,0,,3,,,51,127
67879,note_on,2,0,0,,5,,,53,127
67932,note_off,53,0,0,,5,,,53,127
67934,note_on,2,0,0,,7,,,55,127
67987,note_off,53,0,0,,7,,,55,127
67989,note_on,2,0,0,,10,,,57,127
68039,note_off,50,0,0,,11,,,58,127
68041,note_off,2,0,0,,10,,,57,127
68043,note_on,2,0,0,,11,,,58,127
68153,note_on,110,0,0,,0,,,60,127
68206,note_off,53,0,0,,0,,,60,127
68208,note_on,2,0,0,,2,,,62,127
68261,note_off,53,0,0,,2,,,62,127
68263,note_on,2,0,0,,3,,,63,127
68316,note_off,53,0,0,,3,,,63,127
68318,note_on,2,0,0,,5,,,65,127
68371,note_off,53,0,0,,5,,,65,127
68373,note_on,2,0,0,,7,,,67,127
68426,note_off,53,0,0,,7,,,67,127
68428,note_on,2,0,0,,10,,,69,127
68481,note_off,53,0,0,,10,,,69,127
68483,note_on,2,0,0,,11,,,70,127
68590,note_off,107,0,0,,11,,,58,127
68592,note_on,2,0,0,,0,,,60,127
68645,note_off,53,0,0,,0,,,60,127
68647,note_on,2,0,0,,2,,,62,127
68700,note_off,53,0,0,,2,,,62,127
68702,note_on,2,0,0,,3,,,63,127
68755,note_off,53,0,0,,3,,,63,127
68757,note_on,2,0,0,,5,,,65,127
68810,note_off,53,0,0,,5,,,65,127
68812,note_on,2,0,0,,7,,,67,127
68865,note_off,53,0,0,,7,,,67,127
68867,note_on,2,0,0,,10,,,69,127
68917,note_off,50,0,0,,11,,,70,127
68919,note_off,2,0,0,,10,,,69,127
68921,note_on,2,0,0,,11,,,70,127
69031,note_on,110,0,0,,0,,,72,127
69084,note_off,53,0,0,,0,,,72,127
69086,note_on,2,0,0,,2,,,74,127
69139,note_off,53,0,0,,2,,,74,127
69141,note_on,2,0,0,,3,,,75,127
69194,note_off,53,0,0,,3,,,75,127
69196,note_on,2,0,0,,5,,,77,127
69249,note_off,53,0,0,,5,,,77,127
69251,note_on,2,0,0,,7,,,79,127
69304,note_off,53,0,0,,7,,,79,127
69306,note_on,2,0,0,,10,,,81,127
69359,note_off,53,0,0,,10,,,81,127
69361,note_on,2,0,0,,11,,,82,127
69468,note_off,107,0,0,,11,,,70,127
69470,note_on,2,0,0,,10,,,69,127
69577,note_off,107,0,0,,10,,,69,127
69579,note_on,2,0,0,,7,,,67,127
69686,note_off,107,0,0,,7,,,67,127
69688,note_on,2,0,0,,5,,,65,127
69795,note_off,107,0,0,,5,,,65,127
69797,note_on,2,0,0,,3,,,63,127
69904,note_off,107,0,0,,11,,,82,127
69906,note_on,2,0,0,,10,,,81,127
70013,note_off,107,0,0,,10,,,81,127
70015,note_on,2,0,0,,7,,,79,127
70086,note_off,71,0,0,,7,,,79,127
70088,note_on,2,0,0,,5,,,77,127
70159,note_off,71,0,0,,5,,,77,127
70161,note_on,2,0,0,,3,,,75,127
70232,note_off,71,0,0,,3,,,75,127
70232,note_off,0,0,0,,3,,,63,127
70234,note_on,2,0,0,,2,,,62,127
70234,note_on,0,0,0,,5,,,77,127
70305,note_off,71,0,0,,5,,,77,127
70307,note_on,2,0,0,,3,,,75,127
70378,note_off,71,0,0,,3,,,75,127
70380,note_on,2,0,0,,5,,,77,127
70451,note_off,71,0,0,,5,,,77,127
70451,note_off,0,0,0,,2,,,62,127
70453,note_on,2,0,0,,3,,,63,127
70453,note_on,0,0,0,,7,,,79,127
70524,note_off,71,0,0,,7,,,79,127
70526,note_on,2,0,0,,5,,,77,127
70597,note_off,71,0,0,,5,,,77,127
70599,note_on,2,0,0,,3,,,75,127
70670,note_off,71,0,0,,3,,,75,127
70670,note_off,0,0,0,,3,,,63,127
70672,note_on,2,0,0,,5,,,65,127
70672,note_on,0,0,0,,2,,,74,127
70889,note_off,217,0,0,,2,,,74,127
70891,note_on,2,0,0,,5,,,53,127
70891,note_on,0,0,0,,0,,,72,127
71077,note_off,186,0,0,,0,,,72,127
71111,note_off,34,0,0,,5,,,65,127
71119,note_off,8,0,0,,5,,,53,127
71128,note_on,9,0,0,,11,,,82,127
71128,note_on,0,0,0,,2,,,50,127
71235,note_off,107,0,0,,11,,,82,127
71237,note_on,2,0,0,,5,,,77,127
71344,note_off,107,0,0,,5,,,77,127
71344,note_off,0,0,0,,2,,,50,127
71346,note_on,2,0,0,,7,,,79,127
71346,note_on,0,0,0,,3,,,51,127
71453,note_off,107,0,0,,7,,,79,127
71455,note_on,2,0,0,,0,,,72,127
71562,note_off,107,0,0,,0,,,72,127
71562,note_off,0,0,0,,3,,,51,127
71564,note_on,2,0,0,,5,,,77,127
71564,note_on,0,0,0,,5,,,53,127
71671,note_off,107,0,0,,5,,,77,127
71673,note_on,2,0,0,,11,,,70,127
71780,note_off,107,0,0,,11,,,70,127
71780,note_off,0,0,0,,5,,,53,127
71782,note_on,2,0,0,,3,,,75,127
71782,note_on,0,0,0,,3,,,51,127
71889,note_off,107,0,0,,3,,,75,127
71891,note_on,2,0,0,,10,,,69,127
71998,note_off,107,0,0,,10,,,69,127
71998,note_off,0,0,0,,3,,,51,127
72000,note_on,2,0,0,,11,,,70,127
72000,note_on,0,0,0,,2,,,50,127
72107,note_off,107,0,0,,11,,,70,127
72109,note_on,2,0,0,,5,,,65,127
72216,note_off,107,0,0,,5,,,65,127
72216,note_off,0,0,0,,2,,,50,127
72218,note_on,2,0,0,,7,,,67,127
72218,note_on,0,0,0,,3,,,51,127
72325,note_off,107,0,0,,7,,,67,127
72327,note_on,2,0,0,,0,,,60,127
72434,note_off,107,0,0,,0,,,60,127
72434,note_off,0,0,0,,3,,,51,127
72436,note_on,2,0,0,,5,,,65,127
72436,note_on,0,0,0,,5,,,53,127
72543,note_off,107,0,0,,5,,,65,127
72545,note_on,2,0,0,,11,,,58,127
72652,note_off,107,0,0,,11,,,58,127
72652,note_off,0,0,0,,5,,,53,127
72654,note_on,2,0,0,,3,,,63,127
72654,note_on,0,0,0,,3,,,51,127
72761,note_off,107,0,0,,3,,,63,127
72763,note_on,2,0,0,,10,,,57,127
72870,note_off,107,0,0,,10,,,57,127
72870,note_off,0,0,0,,3,,,51,127
72872,note_on,2,0,0,,2,,,50,127
72872,note_on,0,0,0,,11,,,58,127
72943,note_off,71,0,0,,11,,,58,127
72946,note_on,3,0,0,,0,,,60,127
73017,note_off,71,0,0,,0,,,60,127
73019,note_on,2,0,0,,2,,,62,127
73089,note_off,70,0,0,,2,,,50,127
73090,note_off,1,0,0,,2,,,62,127
73093,note_on,3,0,0,,3,,,51,127
73093,note_on,0,0,0,,0,,,60,127
73164,note_off,71,0,0,,0,,,60,127
73167,note_on,3,0,0,,2,,,62,127
73238,note_off,71,0,0,,2,,,62,127
73240,note_on,2,0,0,,3,,,63,127
73310,note_off,70,0,0,,3,,,51,127
73311,note_off,1,0,0,,3,,,63,127
73314,note_on,3,0,0,,5,,,53,127
73314,note_on,0,0,0,,2,,,62,127
73314,note_on,0,0,0,,11,,,58,127
73531,note_off,217,0,0,,11,,,58,127
73531,note_off,0,0,0,,2,,,62,127
73536,note_on,5,0,0,,5,,,41,127
73536,note_on,0,0,0,,0,,,60,127
73536,note_on,0,0,0,,10,,,57,127
73749,note_off,213,0,0,,5,,,53,127
73754,note_off,5,0,0,,10,,,57,127
73754,note_off,0,0,0,,0,,,60,127
73754,note_off,0,0,0,,5,,,41,127
73772,note_on,18,0,0,,11,,,46,127
73772,note_on,0,0,0,,0,,,60,127
73825,note_off,53,0,0,,0,,,60,127
73827,note_on,2,0,0,,11,,,58,127
73880,note_off,53,0,0,,11,,,58,127
73883,note_on,3,0,0,,0,,,60,127
73936,note_off,53,0,0,,0,,,60,127
73938,note_on,2,0,0,,11,,,58,127
75861,note_off,1923,0,0,,11,,,58,127
75861,note_off,0,0,0,,11,,,46,127
79872,end_of_track,4011,1,0,,,,,,
