tick,type,time,meta,track,program,channel,pitch,tempo,note,velocity
0,copyright,0,1,0,,,,,,
0,program_change,0,0,0,6,0,,,,
0,pitchwheel,0,0,0,,0,0,,,
0,program_change,0,0,0,6,1,,,,
0,pitchwheel,0,0,0,,1,-590,,,
0,program_change,0,0,0,6,2,,,,
0,pitchwheel,0,0,0,,2,-272,,,
0,program_change,0,0,0,6,3,,,,
0,pitchwheel,0,0,0,,3,-353,,,
0,program_change,0,0,0,6,4,,,,
0,pitchwheel,0,0,0,,4,-560,,,
0,program_change,0,0,0,6,5,,,,
0,pitchwheel,0,0,0,,5,-80,,,
0,program_change,0,0,0,6,6,,,,
0,pitchwheel,0,0,0,,6,-625,,,
0,program_change,0,0,0,6,7,,,,
0,pitchwheel,0,0,0,,7,-130,,,
0,program_change,0,0,0,6,8,,,,
0,pitchwheel,0,0,0,,8,-512,,,
0,program_change,0,0,0,6,10,,,,
0,pitchwheel,0,0,0,,10,-464,,,
0,program_change,0,0,0,6,11,,,,
0,pitchwheel,0,0,0,,11,-208,,,
0,program_change,0,0,0,6,12,,,,
0,pitchwheel,0,0,0,,12,-553,,,
0,set_tempo,0,1,0,,,,500000,,
262,note_on,262,0,0,,7,,,79,127
390,note_off,128,0,0,,7,,,79,127
393,note_on,3,0,0,,3,,,75,127
521,note_off,128,0,0,,3,,,75,127
524,note_on,3,0,0,,0,,,72,127
783,note_off,259,0,0,,0,,,72,127
786,note_on,3,0,0,,7,,,67,127
1045,note_off,259,0,0,,7,,,67,127
1048,note_on,3,0,0,,0,,,72,127
1310,note_on,262,0,0,,0,,,60,127
1438,note_off,128,0,0,,0,,,60,127
1441,note_on,3,0,0,,8,,,56,127
1569,note_off,128,0,0,,8,,,56,127
1572,note_on,3,0,0,,5,,,53,127
1831,note_off,259,0,0,,5,,,53,127
1832,note_off,1,0,0,,0,,,72,127
1833,note_on,1,0,0,,12,,,59,127
1833,note_on,0,0,0,,2,,,74,127
1898,note_on,65,0,0,,3,,,75,127
1920,note_off,22,0,0,,2,,,74,127
1964,note_on,44,0,0,,5,,,77,127
1986,note_off,22,0,0,,3,,,75,127
2092,note_off,106,0,0,,12,,,59,127
2095,note_off,3,0,0,,5,,,77,127
2095,note_on,0,0,0,,0,,,60,127
2095,note_on,0,0,0,,3,,,75,127
2160,note_on,65,0,0,,2,,,74,127
2182,note_off,22,0,0,,3,,,75,127
2226,note_on,44,0,0,,0,,,72,127
2248,note_off,22,0,0,,2,,,74,127
2354,note_off,106,0,0,,0,,,60,127
2357,note_on,3,0,0,,7,,,67,127
2485,note_off,128,0,0,,7,,,67,127
2488,note_on,3,0,0,,3,,,63,127
2616,note_off,128,0,0,,3,,,63,127
2619,note_on,3,0,0,,0,,,60,127
2744,note_off,125,0,0,,0,,,72,127
2878,note_off,134,0,0,,0,,,60,127
2881,note_on,3,0,0,,7,,,79,127
2881,note_on,0,0,0,,11,,,58,127
3009,note_off,128,0,0,,7,,,79,127
3012,note_on,3,0,0,,3,,,75,127
3140,note_off,128,0,0,,3,,,75,127
3140,note_off,0,0,0,,11,,,58,127
3143,note_on,3,0,0,,8,,,56,127
3143,note_on,0,0,0,,0,,,72,127
3405,note_on,262,0,0,,8,,,68,127
3533,note_off,128,0,0,,8,,,68,127
3536,note_on,3,0,0,,5,,,65,127
3661,note_off,125,0,0,,8,,,56,127
3664,note_off,3,0,0,,5,,,65,127
3667,note_on,3,0,0,,3,,,63,127
3667,note_on,0,0,0,,7,,,55,127
3926,note_off,259,0,0,,3,,,63,127
3927,note_off,1,0,0,,0,,,72,127
3928,note_on,1,0,0,,2,,,62,127
3928,note_on,0,0,0,,12,,,71,127
4184,note_off,256,0,0,,7,,,55,127
4187,note_off,3,0,0,,2,,,62,127
4190,note_on,3,0,0,,8,,,56,127
4201,note_off,11,0,0,,12,,,71,127
4452,note_on,251,0,0,,8,,,68,127
4452,note_on,0,0,0,,0,,,72,127
4580,note_off,128,0,0,,8,,,68,127
4583,note_on,3,0,0,,5,,,65,127
4708,note_off,125,0,0,,8,,,56,127
4711,note_off,3,0,0,,5,,,65,127
4714,note_on,3,0,0,,7,,,55,127
4714,note_on,0,0,0,,3,,,63,127
4970,note_off,256,0,0,,0,,,72,127
4973,note_off,3,0,0,,3,,,63,127
4976,note_on,3,0,0,,2,,,62,127
4976,note_on,0,0,0,,12,,,71,127
5232,note_off,256,0,0,,7,,,55,127
5235,note_off,3,0,0,,12,,,71,127
5235,note_off,0,0,0,,2,,,62,127
5238,note_on,3,0,0,,0,,,60,127
5238,note_on,0,0,0,,0,,,48,127
5238,note_on,0,0,0,,0,,,72,127
5497,note_off,259,0,0,,0,,,72,127
5500,note_on,3,0,0,,3,,,75,127
5628,note_off,128,0,0,,3,,,75,127
5631,note_on,3,0,0,,0,,,72,127
5756,note_off,125,0,0,,0,,,48,127
5756,note_off,0,0,0,,0,,,60,127
5759,note_off,3,0,0,,0,,,72,127
5762,note_on,3,0,0,,7,,,67,127
6021,note_off,259,0,0,,7,,,67,127
6024,note_on,3,0,0,,5,,,77,127
6024,note_on,0,0,0,,8,,,68,127
6024,note_on,0,0,0,,0,,,60,127
6152,note_off,128,0,0,,8,,,68,127
6155,note_on,3,0,0,,5,,,65,127
6283,note_off,128,0,0,,5,,,65,127
6283,note_off,0,0,0,,0,,,60,127
6286,note_on,3,0,0,,12,,,59,127
6286,note_on,0,0,0,,7,,,67,127
6542,note_off,256,0,0,,5,,,77,127
6545,note_off,3,0,0,,7,,,67,127
6545,note_off,0,0,0,,12,,,59,127
6548,note_on,3,0,0,,3,,,75,127
6548,note_on,0,0,0,,0,,,60,127
6676,note_off,128,0,0,,3,,,75,127
6679,note_on,3,0,0,,0,,,72,127
6807,note_off,128,0,0,,0,,,72,127
6810,note_on,3,0,0,,7,,,67,127
7069,note_off,259,0,0,,7,,,67,127
7072,note_on,3,0,0,,5,,,77,127
7072,note_on,0,0,0,,8,,,68,127
7200,note_off,128,0,0,,8,,,68,127
7203,note_off,3,0,0,,0,,,60,127
7203,note_on,0,0,0,,5,,,65,127
7331,note_off,128,0,0,,5,,,65,127
7334,note_on,3,0,0,,12,,,59,127
7334,note_on,0,0,0,,7,,,67,127
7590,note_off,256,0,0,,5,,,77,127
7593,note_off,3,0,0,,12,,,59,127
7596,note_on,3,0,0,,0,,,60,127
7596,note_on,0,0,0,,3,,,75,127
7724,note_off,128,0,0,,3,,,75,127
7727,note_on,3,0,0,,2,,,74,127
7852,note_off,125,0,0,,7,,,67,127
7855,note_off,3,0,0,,2,,,74,127
7858,note_on,3,0,0,,0,,,72,127
7945,note_off,87,0,0,,0,,,72,127
7945,note_on,0,0,0,,2,,,74,127
8032,note_off,87,0,0,,2,,,74,127
8032,note_on,0,0,0,,0,,,72,127
8114,note_off,82,0,0,,0,,,60,127
8119,note_off,5,0,0,,0,,,72,127
8119,note_on,0,0,0,,0,,,84,127
8119,note_on,0,0,0,,3,,,75,127
8119,note_on,0,0,0,,7,,,67,127
8247,note_off,128,0,0,,3,,,75,127
8250,note_on,3,0,0,,0,,,72,127
8378,note_off,128,0,0,,0,,,72,127
8378,note_off,0,0,0,,7,,,67,127
8381,note_on,3,0,0,,2,,,74,127
8381,note_on,0,0,0,,6,,,66,127
8637,note_off,256,0,0,,0,,,84,127
8640,note_off,3,0,0,,6,,,66,127
8640,note_off,0,0,0,,2,,,74,127
8643,note_on,3,0,0,,11,,,82,127
8643,note_on,0,0,0,,7,,,67,127
8771,note_off,128,0,0,,11,,,82,127
8774,note_on,3,0,0,,7,,,79,127
8902,note_off,128,0,0,,7,,,79,127
8905,note_on,3,0,0,,2,,,74,127
9164,note_off,259,0,0,,2,,,74,127
9167,note_on,3,0,0,,0,,,84,127
9167,note_on,0,0,0,,3,,,75,127
9295,note_off,128,0,0,,3,,,75,127
9298,note_off,3,0,0,,7,,,67,127
9298,note_on,0,0,0,,0,,,72,127
9426,note_off,128,0,0,,0,,,72,127
9429,note_on,3,0,0,,2,,,74,127
9429,note_on,0,0,0,,6,,,66,127
9685,note_off,256,0,0,,0,,,84,127
9688,note_off,3,0,0,,6,,,66,127
9688,note_off,0,0,0,,2,,,74,127
9691,note_on,3,0,0,,7,,,67,127
9691,note_on,0,0,0,,11,,,82,127
9819,note_off,128,0,0,,11,,,82,127
9822,note_on,3,0,0,,10,,,81,127
9950,note_off,128,0,0,,10,,,81,127
9953,note_on,3,0,0,,7,,,79,127
10018,note_on,65,0,0,,10,,,81,127
10040,note_off,22,0,0,,7,,,79,127
10084,note_on,44,0,0,,7,,,79,127
10106,note_off,22,0,0,,10,,,81,127
10210,note_off,104,0,0,,7,,,67,127
10215,note_on,5,0,0,,11,,,70,127
10343,note_off,128,0,0,,11,,,70,127
10346,note_on,3,0,0,,7,,,67,127
10474,note_off,128,0,0,,7,,,67,127
10477,note_on,3,0,0,,3,,,63,127
10602,note_off,125,0,0,,7,,,79,127
10736,note_off,134,0,0,,3,,,63,127
10739,note_on,3,0,0,,0,,,72,127
10739,note_on,0,0,0,,10,,,81,127
10867,note_off,128,0,0,,0,,,72,127
10870,note_on,3,0,0,,10,,,69,127
10998,note_off,128,0,0,,10,,,69,127
11001,note_on,3,0,0,,2,,,62,127
11203,note_off,202,0,0,,10,,,81,127
11260,note_off,57,0,0,,2,,,62,127
11263,note_on,3,0,0,,11,,,70,127
11263,note_on,0,0,0,,7,,,79,127
11391,note_off,128,0,0,,11,,,70,127
11394,note_on,3,0,0,,7,,,67,127
11522,note_off,128,0,0,,7,,,67,127
11525,note_on,3,0,0,,3,,,63,127
11727,note_off,202,0,0,,7,,,79,127
11784,note_off,57,0,0,,3,,,63,127
11787,note_on,3,0,0,,0,,,72,127
11787,note_on,0,0,0,,10,,,81,127
11915,note_off,128,0,0,,0,,,72,127
11918,note_on,3,0,0,,10,,,69,127
12046,note_off,128,0,0,,10,,,69,127
12049,note_on,3,0,0,,2,,,62,127
12278,note_off,229,0,0,,10,,,81,127
12308,note_off,30,0,0,,2,,,62,127
12311,note_on,3,0,0,,2,,,86,127
12311,note_on,0,0,0,,7,,,67,127
12311,note_on,0,0,0,,2,,,62,127
12311,note_on,0,0,0,,11,,,70,127
12570,note_off,259,0,0,,11,,,70,127
12570,note_off,0,0,0,,2,,,62,127
12570,note_off,0,0,0,,7,,,67,127
12570,note_off,0,0,0,,2,,,86,127
12573,note_on,3,0,0,,2,,,62,127
12573,note_on,0,0,0,,10,,,69,127
12573,note_on,0,0,0,,0,,,72,127
12573,note_on,0,0,0,,6,,,78,127
12832,note_off,259,0,0,,6,,,78,127
12832,note_off,0,0,0,,0,,,72,127
12832,note_off,0,0,0,,10,,,69,127
12832,note_off,0,0,0,,2,,,62,127
12835,note_on,3,0,0,,7,,,67,127
12835,note_on,0,0,0,,2,,,62,127
12835,note_on,0,0,0,,0,,,84,127
12963,note_off,128,0,0,,0,,,84,127
12966,note_on,3,0,0,,3,,,75,127
13094,note_off,128,0,0,,3,,,75,127
13094,note_off,0,0,0,,2,,,62,127
13094,note_off,0,0,0,,7,,,67,127
13097,note_on,3,0,0,,6,,,66,127
13097,note_on,0,0,0,,2,,,62,127
13097,note_on,0,0,0,,2,,,74,127
13356,note_off,259,0,0,,2,,,74,127
13356,note_off,0,0,0,,2,,,62,127
13356,note_off,0,0,0,,6,,,66,127
13359,note_on,3,0,0,,10,,,81,127
13359,note_on,0,0,0,,6,,,66,127
13359,note_on,0,0,0,,10,,,69,127
13487,note_off,128,0,0,,10,,,81,127
13490,note_on,3,0,0,,0,,,72,127
13618,note_off,128,0,0,,0,,,72,127
13618,note_off,0,0,0,,10,,,69,127
13618,note_off,0,0,0,,6,,,66,127
13621,note_on,3,0,0,,7,,,67,127
13621,note_on,0,0,0,,11,,,70,127
13880,note_off,259,0,0,,11,,,70,127
13880,note_off,0,0,0,,7,,,67,127
13883,note_on,3,0,0,,0,,,60,127
13883,note_on,0,0,0,,3,,,75,127
14011,note_off,128,0,0,,3,,,75,127
14014,note_on,3,0,0,,7,,,67,127
14142,note_off,128,0,0,,7,,,67,127
14142,note_off,0,0,0,,0,,,60,127
14145,note_on,3,0,0,,2,,,62,127
14145,note_on,0,0,0,,6,,,66,127
14404,note_off,259,0,0,,6,,,66,127
14404,note_off,0,0,0,,2,,,62,127
14407,note_on,3,0,0,,3,,,63,127
14407,note_on,0,0,0,,7,,,67,127
14535,note_off,128,0,0,,3,,,63,127
14538,note_on,3,0,0,,7,,,55,127
14666,note_off,128,0,0,,7,,,55,127
14666,note_off,0,0,0,,7,,,67,127
14669,note_on,3,0,0,,6,,,54,127
14669,note_on,0,0,0,,10,,,69,127
14928,note_off,259,0,0,,10,,,69,127
14928,note_off,0,0,0,,6,,,54,127
14931,note_on,3,0,0,,0,,,60,127
14931,note_on,0,0,0,,0,,,72,127
15059,note_off,128,0,0,,0,,,60,127
15062,note_on,3,0,0,,3,,,51,127
15190,note_off,128,0,0,,3,,,51,127
15190,note_off,0,0,0,,0,,,72,127
15193,note_on,3,0,0,,2,,,74,127
15193,note_on,0,0,0,,2,,,50,127
15452,note_off,259,0,0,,2,,,50,127
15452,note_off,0,0,0,,2,,,74,127
15455,note_on,3,0,0,,10,,,57,127
15455,note_on,0,0,0,,3,,,75,127
15583,note_off,128,0,0,,10,,,57,127
15586,note_on,3,0,0,,0,,,48,127
15714,note_off,128,0,0,,0,,,48,127
15714,note_off,0,0,0,,3,,,75,127
15717,note_on,3,0,0,,11,,,46,127
15717,note_on,0,0,0,,2,,,74,127
15976,note_off,259,0,0,,2,,,74,127
15976,note_off,0,0,0,,11,,,46,127
15979,note_on,3,0,0,,0,,,72,127
15979,note_on,0,0,0,,7,,,55,127
16107,note_off,128,0,0,,7,,,55,127
16110,note_on,3,0,0,,10,,,45,127
16238,note_off,128,0,0,,10,,,45,127
16238,note_off,0,0,0,,0,,,72,127
16241,note_on,3,0,0,,11,,,70,127
16241,note_on,0,0,0,,7,,,43,127
16500,note_off,259,0,0,,7,,,43,127
16500,note_off,0,0,0,,11,,,70,127
16503,note_on,3,0,0,,2,,,50,127
16503,note_on,0,0,0,,10,,,69,127
16631,note_off,128,0,0,,2,,,50,127
16634,note_on,3,0,0,,5,,,41,127
16762,note_off,128,0,0,,5,,,41,127
16762,note_off,0,0,0,,10,,,69,127
16765,note_on,3,0,0,,7,,,67,127
16765,note_on,0,0,0,,3,,,39,127
17024,note_off,259,0,0,,3,,,39,127
17024,note_off,0,0,0,,7,,,67,127
17027,note_on,3,0,0,,0,,,72,127
17027,note_on,0,0,0,,7,,,43,127
17155,note_off,128,0,0,,0,,,72,127
17158,note_on,3,0,0,,10,,,69,127
17286,note_off,128,0,0,,10,,,69,127
17286,note_off,0,0,0,,7,,,43,127
17289,note_on,3,0,0,,0,,,48,127
17289,note_on,0,0,0,,10,,,69,127
17376,note_off,87,0,0,,10,,,69,127
17376,note_on,0,0,0,,7,,,67,127
17463,note_off,87,0,0,,7,,,67,127
17463,note_on,0,0,0,,10,,,69,127
17548,note_off,85,0,0,,0,,,48,127
17551,note_off,3,0,0,,10,,,69,127
17551,note_on,0,0,0,,7,,,67,127
17551,note_on,0,0,0,,3,,,39,127
17638,note_off,87,0,0,,7,,,67,127
17638,note_on,0,0,0,,6,,,66,127
17725,note_off,87,0,0,,6,,,66,127
17725,note_on,0,0,0,,7,,,67,127
17810,note_off,85,0,0,,3,,,39,127
17813,note_off,3,0,0,,7,,,67,127
17813,note_on,0,0,0,,10,,,69,127
17813,note_on,0,0,0,,2,,,38,127
18072,note_off,259,0,0,,10,,,69,127
18075,note_on,3,0,0,,2,,,62,127
18331,note_off,256,0,0,,2,,,38,127
18334,note_off,3,0,0,,2,,,62,127
18337,note_on,3,0,0,,2,,,62,127
18468,note_on,131,0,0,,0,,,60,127
18596,note_off,128,0,0,,0,,,60,127
18596,note_off,0,0,0,,2,,,62,127
18599,note_on,3,0,0,,2,,,62,127
18599,note_on,0,0,0,,11,,,58,127
18727,note_off,128,0,0,,11,,,58,127
18730,note_on,3,0,0,,10,,,57,127
18858,note_off,128,0,0,,10,,,57,127
18858,note_off,0,0,0,,2,,,62,127
18861,note_on,3,0,0,,2,,,62,127
18861,note_on,0,0,0,,11,,,58,127
18989,note_off,128,0,0,,11,,,58,127
18992,note_on,3,0,0,,0,,,60,127
19120,note_off,128,0,0,,0,,,60,127
19120,note_off,0,0,0,,2,,,62,127
19123,note_on,3,0,0,,11,,,58,127
19123,note_on,0,0,0,,2,,,62,127
19251,note_off,128,0,0,,11,,,58,127
19254,note_on,3,0,0,,10,,,57,127
19382,note_off,128,0,0,,10,,,57,127
19382,note_off,0,0,0,,2,,,62,127
19385,note_on,3,0,0,,2,,,62,127
19385,note_on,0,0,0,,11,,,58,127
19513,note_off,128,0,0,,11,,,58,127
19516,note_on,3,0,0,,0,,,60,127
19644,note_off,128,0,0,,0,,,60,127
19644,note_off,0,0,0,,2,,,62,127
19647,note_on,3,0,0,,2,,,62,127
19647,note_on,0,0,0,,11,,,58,127
19775,note_off,128,0,0,,11,,,58,127
19778,note_on,3,0,0,,10,,,57,127
19906,note_off,128,0,0,,10,,,57,127
19906,note_off,0,0,0,,2,,,62,127
19909,note_on,3,0,0,,11,,,58,127
19909,note_on,0,0,0,,2,,,62,127
20037,note_off,128,0,0,,11,,,58,127
20040,note_on,3,0,0,,10,,,57,127
20168,note_off,128,0,0,,10,,,57,127
20168,note_off,0,0,0,,2,,,62,127
20171,note_on,3,0,0,,7,,,67,127
20171,note_on,0,0,0,,7,,,55,127
20299,note_off,128,0,0,,7,,,55,127
20302,note_on,3,0,0,,6,,,54,127
20430,note_off,128,0,0,,6,,,54,127
20430,note_off,0,0,0,,7,,,67,127
20433,note_on,3,0,0,,7,,,67,127
20433,note_on,0,0,0,,7,,,55,127
20561,note_off,128,0,0,,7,,,55,127
20564,note_on,3,0,0,,5,,,65,127
20692,note_off,128,0,0,,5,,,65,127
20692,note_off,0,0,0,,7,,,67,127
20695,note_on,3,0,0,,7,,,67,127
20695,note_on,0,0,0,,3,,,63,127
20823,note_off,128,0,0,,3,,,63,127
20826,note_on,3,0,0,,2,,,62,127
20954,note_off,128,0,0,,2,,,62,127
20954,note_off,0,0,0,,7,,,67,127
20957,note_on,3,0,0,,7,,,67,127
20957,note_on,0,0,0,,3,,,63,127
21085,note_off,128,0,0,,3,,,63,127
21088,note_on,3,0,0,,5,,,65,127
21216,note_off,128,0,0,,5,,,65,127
21216,note_off,0,0,0,,7,,,67,127
21219,note_on,3,0,0,,3,,,63,127
21219,note_on,0,0,0,,7,,,67,127
21347,note_off,128,0,0,,3,,,63,127
21350,note_on,3,0,0,,2,,,62,127
21478,note_off,128,0,0,,2,,,62,127
21478,note_off,0,0,0,,7,,,67,127
21481,note_on,3,0,0,,3,,,63,127
21481,note_on,0,0,0,,7,,,67,127
21609,note_off,128,0,0,,3,,,63,127
21612,note_on,3,0,0,,5,,,65,127
21740,note_off,128,0,0,,5,,,65,127
21740,note_off,0,0,0,,7,,,67,127
21743,note_on,3,0,0,,7,,,67,127
21743,note_on,0,0,0,,3,,,63,127
21871,note_off,128,0,0,,3,,,63,127
21874,note_on,3,0,0,,2,,,62,127
22002,note_off,128,0,0,,2,,,62,127
22002,note_off,0,0,0,,7,,,67,127
22005,note_on,3,0,0,,7,,,67,127
22005,note_on,0,0,0,,3,,,63,127
22133,note_off,128,0,0,,3,,,63,127
22136,note_on,3,0,0,,2,,,62,127
22264,note_off,128,0,0,,2,,,62,127
22264,note_off,0,0,0,,7,,,67,127
22267,note_on,3,0,0,,0,,,60,127
22267,note_on,0,0,0,,0,,,72,127
22395,note_off,128,0,0,,0,,,60,127
22398,note_on,3,0,0,,12,,,59,127
22526,note_off,128,0,0,,12,,,59,127
22526,note_off,0,0,0,,0,,,72,127
22529,note_on,3,0,0,,0,,,72,127
22529,note_on,0,0,0,,0,,,60,127
22657,note_off,128,0,0,,0,,,60,127
22660,note_on,3,0,0,,11,,,70,127
22788,note_off,128,0,0,,11,,,70,127
22788,note_off,0,0,0,,0,,,72,127
22791,note_on,3,0,0,,0,,,72,127
22791,note_on,0,0,0,,8,,,68,127
22919,note_off,128,0,0,,8,,,68,127
22922,note_on,3,0,0,,7,,,67,127
23050,note_off,128,0,0,,7,,,67,127
23050,note_off,0,0,0,,0,,,72,127
23053,note_on,3,0,0,,0,,,72,127
23053,note_on,0,0,0,,8,,,68,127
23181,note_off,128,0,0,,8,,,68,127
23184,note_on,3,0,0,,11,,,70,127
23312,note_off,128,0,0,,11,,,70,127
23312,note_off,0,0,0,,0,,,72,127
23315,note_on,3,0,0,,0,,,72,127
23315,note_on,0,0,0,,8,,,68,127
23443,note_off,128,0,0,,8,,,68,127
23446,note_on,3,0,0,,7,,,67,127
23574,note_off,128,0,0,,7,,,67,127
23574,note_off,0,0,0,,0,,,72,127
23577,note_on,3,0,0,,0,,,72,127
23577,note_on,0,0,0,,8,,,68,127
23705,note_off,128,0,0,,8,,,68,127
23708,note_on,3,0,0,,11,,,70,127
23836,note_off,128,0,0,,11,,,70,127
23836,note_off,0,0,0,,0,,,72,127
23839,note_on,3,0,0,,0,,,72,127
23839,note_on,0,0,0,,8,,,68,127
23967,note_off,128,0,0,,8,,,68,127
23970,note_on,3,0,0,,7,,,67,127
24098,note_off,128,0,0,,7,,,67,127
24098,note_off,0,0,0,,0,,,72,127
24101,note_on,3,0,0,,0,,,72,127
24101,note_on,0,0,0,,8,,,68,127
24229,note_off,128,0,0,,8,,,68,127
24232,note_on,3,0,0,,7,,,67,127
24360,note_off,128,0,0,,7,,,67,127
24360,note_off,0,0,0,,0,,,72,127
24363,note_on,3,0,0,,5,,,77,127
24363,note_on,0,0,0,,5,,,65,127
24491,note_off,128,0,0,,5,,,65,127
24494,note_on,3,0,0,,4,,,64,127
24622,note_off,128,0,0,,4,,,64,127
24622,note_off,0,0,0,,5,,,77,127
24625,note_on,3,0,0,,5,,,65,127
24625,note_on,0,0,0,,5,,,77,127
24753,note_off,128,0,0,,5,,,65,127
24756,note_on,3,0,0,,3,,,75,127
24884,note_off,128,0,0,,3,,,75,127
24884,note_off,0,0,0,,5,,,77,127
24887,note_on,3,0,0,,2,,,74,127
24887,note_on,0,0,0,,5,,,77,127
25015,note_off,128,0,0,,2,,,74,127
25018,note_on,3,0,0,,0,,,72,127
25146,note_off,128,0,0,,0,,,72,127
25146,note_off,0,0,0,,5,,,77,127
25149,note_on,3,0,0,,5,,,77,127
25149,note_on,0,0,0,,2,,,74,127
25277,note_off,128,0,0,,2,,,74,127
25280,note_on,3,0,0,,3,,,75,127
25408,note_off,128,0,0,,3,,,75,127
25408,note_off,0,0,0,,5,,,77,127
25411,note_on,3,0,0,,5,,,77,127
25411,note_on,0,0,0,,2,,,74,127
25539,note_off,128,0,0,,2,,,74,127
25542,note_on,3,0,0,,0,,,72,127
25670,note_off,128,0,0,,0,,,72,127
25670,note_off,0,0,0,,5,,,77,127
25673,note_on,3,0,0,,2,,,74,127
25673,note_on,0,0,0,,5,,,77,127
25801,note_off,128,0,0,,2,,,74,127
25804,note_on,3,0,0,,3,,,75,127
25932,note_off,128,0,0,,3,,,75,127
25932,note_off,0,0,0,,5,,,77,127
25935,note_on,3,0,0,,5,,,77,127
25935,note_on,0,0,0,,2,,,74,127
26063,note_off,128,0,0,,2,,,74,127
26066,note_on,3,0,0,,0,,,72,127
26194,note_off,128,0,0,,0,,,72,127
26194,note_off,0,0,0,,5,,,77,127
26197,note_on,3,0,0,,5,,,77,127
26197,note_on,0,0,0,,2,,,74,127
26325,note_off,128,0,0,,2,,,74,127
26328,note_on,3,0,0,,0,,,72,127
26456,note_off,128,0,0,,0,,,72,127
26456,note_off,0,0,0,,5,,,77,127
26459,note_on,3,0,0,,11,,,82,127
26459,note_on,0,0,0,,11,,,70,127
26587,note_off,128,0,0,,11,,,70,127
26590,note_on,3,0,0,,10,,,69,127
26718,note_off,128,0,0,,10,,,69,127
26718,note_off,0,0,0,,11,,,82,127
26721,note_on,3,0,0,,11,,,82,127
26721,note_on,0,0,0,,11,,,70,127
26849,note_off,128,0,0,,11,,,70,127
26852,note_on,3,0,0,,8,,,80,127
26980,note_off,128,0,0,,8,,,80,127
26980,note_off,0,0,0,,11,,,82,127
26983,note_on,3,0,0,,7,,,79,127
26983,note_on,0,0,0,,11,,,82,127
27111,note_off,128,0,0,,7,,,79,127
27114,note_on,3,0,0,,5,,,77,127
27242,note_off,128,0,0,,5,,,77,127
27242,note_off,0,0,0,,11,,,82,127
27245,note_on,3,0,0,,11,,,82,127
27245,note_on,0,0,0,,7,,,79,127
27373,note_off,128,0,0,,7,,,79,127
27376,note_on,3,0,0,,8,,,80,127
27504,note_off,128,0,0,,8,,,80,127
27504,note_off,0,0,0,,11,,,82,127
27507,note_on,3,0,0,,11,,,82,127
27507,note_on,0,0,0,,7,,,79,127
27635,note_off,128,0,0,,7,,,79,127
27638,note_on,3,0,0,,5,,,77,127
27766,note_off,128,0,0,,5,,,77,127
27766,note_off,0,0,0,,11,,,82,127
27769,note_on,3,0,0,,11,,,82,127
27769,note_on,0,0,0,,7,,,79,127
27897,note_off,128,0,0,,7,,,79,127
27900,note_on,3,0,0,,8,,,80,127
28028,note_off,128,0,0,,8,,,80,127
28028,note_off,0,0,0,,11,,,82,127
28031,note_on,3,0,0,,11,,,82,127
28031,note_on,0,0,0,,7,,,79,127
28159,note_off,128,0,0,,7,,,79,127
28162,note_on,3,0,0,,5,,,77,127
28290,note_off,128,0,0,,5,,,77,127
28290,note_off,0,0,0,,11,,,82,127
28293,note_on,3,0,0,,11,,,82,127
28293,note_on,0,0,0,,7,,,79,127
28421,note_off,128,0,0,,7,,,79,127
28424,note_on,3,0,0,,5,,,77,127
28552,note_off,128,0,0,,5,,,77,127
28552,note_off,0,0,0,,11,,,82,127
28555,note_on,3,0,0,,3,,,75,127
28555,note_on,0,0,0,,11,,,82,127
28683,note_off,128,0,0,,3,,,75,127
28686,note_on,3,0,0,,2,,,74,127
28814,note_off,128,0,0,,2,,,74,127
28814,note_off,0,0,0,,11,,,82,127
28817,note_on,3,0,0,,3,,,75,127
28948,note_on,131,0,0,,11,,,82,127
29076,note_off,128,0,0,,11,,,82,127
29076,note_off,0,0,0,,3,,,75,127
29079,note_on,3,0,0,,2,,,74,127
29079,note_on,0,0,0,,5,,,77,127
29210,note_on,131,0,0,,11,,,82,127
29338,note_off,128,0,0,,11,,,82,127
29338,note_off,0,0,0,,5,,,77,127
29338,note_off,0,0,0,,2,,,74,127
29341,note_on,3,0,0,,11,,,82,127
29341,note_on,0,0,0,,3,,,75,127
29341,note_on,0,0,0,,0,,,72,127
29469,note_off,128,0,0,,11,,,82,127
29472,note_on,3,0,0,,10,,,81,127
29600,note_off,128,0,0,,10,,,81,127
29600,note_off,0,0,0,,0,,,72,127
29600,note_off,0,0,0,,3,,,75,127
29603,note_on,3,0,0,,2,,,74,127
29603,note_on,0,0,0,,11,,,70,127
29734,note_on,131,0,0,,7,,,79,127
29862,note_off,128,0,0,,7,,,79,127
29862,note_off,0,0,0,,11,,,70,127
29862,note_off,0,0,0,,2,,,74,127
29865,note_on,3,0,0,,7,,,79,127
29865,note_on,0,0,0,,0,,,72,127
29865,note_on,0,0,0,,10,,,69,127
29993,note_off,128,0,0,,7,,,79,127
29996,note_on,3,0,0,,6,,,78,127
30124,note_off,128,0,0,,6,,,78,127
30124,note_off,0,0,0,,10,,,69,127
30124,note_off,0,0,0,,0,,,72,127
30127,note_on,3,0,0,,7,,,67,127
30127,note_on,0,0,0,,0,,,72,127
30258,note_on,131,0,0,,3,,,75,127
30386,note_off,128,0,0,,3,,,75,127
30386,note_off,0,0,0,,0,,,72,127
30386,note_off,0,0,0,,7,,,67,127
30389,note_on,3,0,0,,6,,,66,127
30389,note_on,0,0,0,,0,,,72,127
30389,note_on,0,0,0,,3,,,75,127
30517,note_off,128,0,0,,3,,,75,127
30520,note_on,3,0,0,,2,,,74,127
30648,note_off,128,0,0,,2,,,74,127
30648,note_off,0,0,0,,0,,,72,127
30648,note_off,0,0,0,,6,,,66,127
30651,note_on,3,0,0,,3,,,63,127
30651,note_on,0,0,0,,7,,,67,127
30782,note_on,131,0,0,,0,,,72,127
30910,note_off,128,0,0,,0,,,72,127
30910,note_off,0,0,0,,7,,,67,127
30910,note_off,0,0,0,,3,,,63,127
30913,note_on,3,0,0,,0,,,72,127
30913,note_on,0,0,0,,2,,,62,127
30913,note_on,0,0,0,,7,,,67,127
31041,note_off,128,0,0,,0,,,72,127
31044,note_on,3,0,0,,11,,,70,127
31172,note_off,128,0,0,,11,,,70,127
31172,note_off,0,0,0,,7,,,67,127
31172,note_off,0,0,0,,2,,,62,127
31175,note_on,3,0,0,,0,,,60,127
31175,note_on,0,0,0,,6,,,66,127
31306,note_on,131,0,0,,10,,,69,127
31434,note_off,128,0,0,,10,,,69,127
31434,note_off,0,0,0,,6,,,66,127
31434,note_off,0,0,0,,0,,,60,127
31437,note_on,3,0,0,,10,,,69,127
31437,note_on,0,0,0,,2,,,62,127
31437,note_on,0,0,0,,11,,,58,127
31565,note_off,128,0,0,,10,,,69,127
31568,note_on,3,0,0,,7,,,67,127
31696,note_off,128,0,0,,7,,,67,127
31696,note_off,0,0,0,,11,,,58,127
31696,note_off,0,0,0,,2,,,62,127
31699,note_on,3,0,0,,0,,,60,127
31699,note_on,0,0,0,,10,,,57,127
31830,note_on,131,0,0,,5,,,65,127
31958,note_off,128,0,0,,5,,,65,127
31958,note_off,0,0,0,,10,,,57,127
31958,note_off,0,0,0,,0,,,60,127
31961,note_on,3,0,0,,11,,,58,127
31961,note_on,0,0,0,,7,,,55,127
31961,note_on,0,0,0,,5,,,65,127
32089,note_off,128,0,0,,5,,,65,127
32092,note_on,3,0,0,,3,,,63,127
32220,note_off,128,0,0,,3,,,63,127
32220,note_off,0,0,0,,7,,,55,127
32220,note_off,0,0,0,,11,,,58,127
32223,note_on,3,0,0,,5,,,53,127
32223,note_on,0,0,0,,10,,,57,127
32354,note_on,131,0,0,,2,,,62,127
32482,note_off,128,0,0,,2,,,62,127
32482,note_off,0,0,0,,10,,,57,127
32482,note_off,0,0,0,,5,,,53,127
32485,note_on,3,0,0,,3,,,51,127
32485,note_on,0,0,0,,7,,,55,127
32485,note_on,0,0,0,,2,,,62,127
32613,note_off,128,0,0,,2,,,62,127
32616,note_on,3,0,0,,0,,,60,127
32744,note_off,128,0,0,,0,,,60,127
32747,note_on,3,0,0,,3,,,63,127
32875,note_off,128,0,0,,3,,,63,127
32878,note_on,3,0,0,,2,,,62,127
33003,note_off,125,0,0,,7,,,55,127
33003,note_off,0,0,0,,3,,,51,127
33006,note_off,3,0,0,,2,,,62,127
33009,note_on,3,0,0,,7,,,55,127
33009,note_on,0,0,0,,3,,,51,127
33009,note_on,0,0,0,,0,,,60,127
33137,note_off,128,0,0,,0,,,60,127
33140,note_on,3,0,0,,11,,,58,127
33268,note_off,128,0,0,,11,,,58,127
33271,note_on,3,0,0,,7,,,67,127
33271,note_on,0,0,0,,10,,,57,127
33391,note_off,120,0,0,,7,,,55,127
33399,note_off,8,0,0,,10,,,57,127
33402,note_on,3,0,0,,7,,,55,127
33527,note_off,125,0,0,,3,,,51,127
33530,note_off,3,0,0,,7,,,55,127
33530,note_off,0,0,0,,7,,,67,127
33533,note_on,3,0,0,,2,,,38,127
33533,note_on,0,0,0,,10,,,57,127
33533,note_on,0,0,0,,2,,,50,127
33533,note_on,0,0,0,,7,,,67,127
33661,note_off,128,0,0,,7,,,67,127
33661,note_off,0,0,0,,10,,,57,127
33664,note_on,3,0,0,,6,,,66,127
33792,note_off,128,0,0,,2,,,50,127
33792,note_off,0,0,0,,2,,,38,127
33923,note_off,131,0,0,,6,,,66,127
33926,note_on,3,0,0,,10,,,57,127
33993,note_on,67,0,0,,6,,,54,127
34015,note_off,22,0,0,,10,,,57,127
34060,note_on,45,0,0,,11,,,58,127
34082,note_off,22,0,0,,6,,,54,127
34128,note_on,46,0,0,,7,,,55,127
34148,note_off,20,0,0,,11,,,58,127
34194,note_on,46,0,0,,0,,,60,127
34216,note_off,22,0,0,,7,,,55,127
34262,note_on,46,0,0,,10,,,57,127
34282,note_off,20,0,0,,0,,,60,127
34328,note_on,46,0,0,,2,,,62,127
34350,note_off,22,0,0,,10,,,57,127
34396,note_on,46,0,0,,11,,,58,127
34416,note_off,20,0,0,,2,,,62,127
34462,note_on,46,0,0,,4,,,64,127
34484,note_off,22,0,0,,11,,,58,127
34529,note_on,45,0,0,,0,,,60,127
34551,note_off,22,0,0,,4,,,64,127
34597,note_on,46,0,0,,6,,,66,127
34617,note_off,20,0,0,,0,,,60,127
34663,note_on,46,0,0,,2,,,62,127
34685,note_off,22,0,0,,6,,,66,127
34731,note_on,46,0,0,,7,,,67,127
34751,note_off,20,0,0,,2,,,62,127
34797,note_on,46,0,0,,4,,,64,127
34819,note_off,22,0,0,,7,,,67,127
34865,note_on,46,0,0,,10,,,69,127
34885,note_off,20,0,0,,4,,,64,127
34931,note_on,46,0,0,,6,,,66,127
34953,note_off,22,0,0,,10,,,69,127
34999,note_on,46,0,0,,11,,,70,127
35019,note_off,20,0,0,,6,,,66,127
35065,note_on,46,0,0,,7,,,67,127
35087,note_off,22,0,0,,11,,,70,127
35132,note_on,45,0,0,,0,,,72,127
35154,note_off,22,0,0,,7,,,67,127
35200,note_on,46,0,0,,10,,,69,127
35220,note_off,20,0,0,,0,,,72,127
35264,note_off,44,0,0,,10,,,69,127
35267,note_on,3,0,0,,10,,,69,127
35335,note_on,68,0,0,,6,,,66,127
35355,note_off,20,0,0,,10,,,69,127
35401,note_on,46,0,0,,11,,,70,127
35423,note_off,22,0,0,,6,,,66,127
35469,note_on,46,0,0,,7,,,67,127
35489,note_off,20,0,0,,11,,,70,127
35535,note_on,46,0,0,,0,,,72,127
35557,note_off,22,0,0,,7,,,67,127
35603,note_on,46,0,0,,10,,,69,127
35623,note_off,20,0,0,,0,,,72,127
35669,note_on,46,0,0,,2,,,62,127
35669,note_on,0,0,0,,0,,,72,127
35691,note_off,22,0,0,,10,,,69,127
35800,note_off,109,0,0,,0,,,72,127
35804,note_on,4,0,0,,2,,,74,127
35935,note_off,131,0,0,,2,,,62,127
36070,note_off,135,0,0,,2,,,74,127
36074,note_on,4,0,0,,10,,,57,127
36141,note_on,67,0,0,,6,,,54,127
36163,note_off,22,0,0,,10,,,57,127
36208,note_on,45,0,0,,11,,,58,127
36230,note_off,22,0,0,,6,,,54,127
36276,note_on,46,0,0,,7,,,55,127
36296,note_off,20,0,0,,11,,,58,127
36342,note_on,46,0,0,,0,,,60,127
36364,note_off,22,0,0,,7,,,55,127
36410,note_on,46,0,0,,10,,,57,127
36430,note_off,20,0,0,,0,,,60,127
36476,note_on,46,0,0,,2,,,62,127
36498,note_off,22,0,0,,10,,,57,127
36544,note_on,46,0,0,,11,,,58,127
36564,note_off,20,0,0,,2,,,62,127
36610,note_on,46,0,0,,4,,,64,127
36632,note_off,22,0,0,,11,,,58,127
36678,note_on,46,0,0,,0,,,60,127
36698,note_off,20,0,0,,4,,,64,127
36744,note_on,46,0,0,,6,,,66,127
36766,note_off,22,0,0,,0,,,60,127
36811,note_on,45,0,0,,2,,,62,127
36833,note_off,22,0,0,,6,,,66,127
36879,note_on,46,0,0,,7,,,67,127
36899,note_off,20,0,0,,2,,,62,127
36945,note_on,46,0,0,,4,,,64,127
36967,note_off,22,0,0,,7,,,67,127
37013,note_on,46,0,0,,10,,,69,127
37033,note_off,20,0,0,,4,,,64,127
37079,note_on,46,0,0,,6,,,66,127
37101,note_off,22,0,0,,10,,,69,127
37147,note_on,46,0,0,,11,,,70,127
37167,note_off,20,0,0,,6,,,66,127
37213,note_on,46,0,0,,7,,,67,127
37235,note_off,22,0,0,,11,,,70,127
37281,note_on,46,0,0,,0,,,72,127
37301,note_off,20,0,0,,7,,,67,127
37347,note_on,46,0,0,,10,,,69,127
37369,note_off,22,0,0,,0,,,72,127
37411,note_off,42,0,0,,10,,,69,127
37414,note_on,3,0,0,,10,,,69,127
37482,note_on,68,0,0,,6,,,66,127
37502,note_off,20,0,0,,10,,,69,127
37548,note_on,46,0,0,,11,,,70,127
37570,note_off,22,0,0,,6,,,66,127
37616,note_on,46,0,0,,7,,,67,127
37636,note_off,20,0,0,,11,,,70,127
37682,note_on,46,0,0,,0,,,72,127
37704,note_off,22,0,0,,7,,,67,127
37750,note_on,46,0,0,,10,,,69,127
37770,note_off,20,0,0,,0,,,72,127
37816,note_on,46,0,0,,2,,,74,127
37838,note_off,22,0,0,,10,,,69,127
37883,note_on,45,0,0,,2,,,62,127
37905,note_off,22,0,0,,2,,,74,127
37951,note_on,46,0,0,,6,,,78,127
37971,note_off,20,0,0,,2,,,62,127
38017,note_on,46,0,0,,10,,,69,127
38039,note_off,22,0,0,,6,,,78,127
38085,note_on,46,0,0,,7,,,79,127
38105,note_off,20,0,0,,10,,,69,127
38151,note_on,46,0,0,,11,,,70,127
38173,note_off,22,0,0,,7,,,79,127
38219,note_on,46,0,0,,2,,,74,127
38239,note_off,20,0,0,,11,,,70,127
38285,note_on,46,0,0,,7,,,67,127
38307,note_off,22,0,0,,2,,,74,127
38353,note_on,46,0,0,,3,,,75,127
38373,note_off,20,0,0,,7,,,67,127
38419,note_on,46,0,0,,0,,,72,127
38441,note_off,22,0,0,,3,,,75,127
38483,note_off,42,0,0,,0,,,72,127
38486,note_on,3,0,0,,0,,,72,127
38554,note_on,68,0,0,,10,,,69,127
38574,note_off,20,0,0,,0,,,72,127
38620,note_on,46,0,0,,2,,,74,127
38642,note_off,22,0,0,,10,,,69,127
38688,note_on,46,0,0,,6,,,66,127
38708,note_off,20,0,0,,2,,,74,127
38754,note_on,46,0,0,,10,,,69,127
38776,note_off,22,0,0,,6,,,66,127
38822,note_on,46,0,0,,2,,,62,127
38842,note_off,20,0,0,,10,,,69,127
38888,note_on,46,0,0,,11,,,70,127
38910,note_off,22,0,0,,2,,,62,127
38956,note_on,46,0,0,,7,,,67,127
38976,note_off,20,0,0,,11,,,70,127
39022,note_on,46,0,0,,6,,,66,127
39044,note_off,22,0,0,,7,,,67,127
39089,note_on,45,0,0,,2,,,62,127
39111,note_off,22,0,0,,6,,,66,127
39157,note_on,46,0,0,,7,,,67,127
39177,note_off,20,0,0,,2,,,62,127
39223,note_on,46,0,0,,11,,,58,127
39245,note_off,22,0,0,,7,,,67,127
39291,note_on,46,0,0,,2,,,62,127
39311,note_off,20,0,0,,11,,,58,127
39357,note_on,46,0,0,,7,,,55,127
39379,note_off,22,0,0,,2,,,62,127
39425,note_on,46,0,0,,3,,,63,127
39445,note_off,20,0,0,,7,,,55,127
39491,note_on,46,0,0,,0,,,60,127
39513,note_off,22,0,0,,3,,,63,127
39555,note_off,42,0,0,,0,,,60,127
39558,note_on,3,0,0,,0,,,60,127
39626,note_on,68,0,0,,10,,,57,127
39646,note_off,20,0,0,,0,,,60,127
39692,note_on,46,0,0,,2,,,62,127
39714,note_off,22,0,0,,10,,,57,127
39760,note_on,46,0,0,,6,,,54,127
39780,note_off,20,0,0,,2,,,62,127
39826,note_on,46,0,0,,10,,,57,127
39848,note_off,22,0,0,,6,,,54,127
39894,note_on,46,0,0,,2,,,50,127
39914,note_off,20,0,0,,10,,,57,127
39960,note_on,46,0,0,,7,,,55,127
39960,note_on,0,0,0,,7,,,43,127
39960,note_on,0,0,0,,11,,,58,127
39982,note_off,22,0,0,,2,,,50,127
40218,note_off,236,0,0,,11,,,58,127
40222,note_on,4,0,0,,2,,,74,127
40349,note_off,127,0,0,,2,,,74,127
40352,note_on,3,0,0,,11,,,70,127
40479,note_off,127,0,0,,11,,,70,127
40483,note_on,4,0,0,,10,,,69,127
40610,note_off,127,0,0,,10,,,69,127
40615,note_on,5,0,0,,7,,,67,127
40742,note_off,127,0,0,,7,,,67,127
40743,note_off,1,0,0,,7,,,43,127
40743,note_off,0,0,0,,7,,,55,127
40746,note_on,3,0,0,,11,,,46,127
40746,note_on,0,0,0,,7,,,55,127
40746,note_on,0,0,0,,2,,,74,127
41004,note_off,258,0,0,,2,,,74,127
41004,note_off,0,0,0,,7,,,55,127
41004,note_off,0,0,0,,11,,,46,127
41007,note_on,3,0,0,,3,,,75,127
41007,note_on,0,0,0,,0,,,48,127
41007,note_on,0,0,0,,7,,,55,127
41134,note_off,127,0,0,,3,,,75,127
41138,note_on,4,0,0,,0,,,72,127
41265,note_off,127,0,0,,0,,,72,127
41265,note_off,0,0,0,,0,,,48,127
41270,note_on,5,0,0,,3,,,51,127
41270,note_on,0,0,0,,11,,,70,127
41397,note_off,127,0,0,,11,,,70,127
41401,note_on,4,0,0,,10,,,69,127
41524,note_off,123,0,0,,7,,,55,127
41528,note_off,4,0,0,,10,,,69,127
41528,note_off,0,0,0,,3,,,51,127
41532,note_on,4,0,0,,2,,,50,127
41532,note_on,0,0,0,,11,,,58,127
41532,note_on,0,0,0,,7,,,67,127
41790,note_off,258,0,0,,7,,,67,127
41790,note_off,0,0,0,,11,,,58,127
41793,note_on,3,0,0,,10,,,57,127
41793,note_on,0,0,0,,6,,,66,127
42049,note_off,256,0,0,,2,,,50,127
42050,note_off,1,0,0,,6,,,66,127
42050,note_off,0,0,0,,10,,,57,127
42055,note_on,5,0,0,,7,,,55,127
42055,note_on,0,0,0,,6,,,66,127
42182,note_off,127,0,0,,6,,,66,127
42186,note_on,4,0,0,,7,,,67,127
42313,note_off,127,0,0,,7,,,55,127
42444,note_off,131,0,0,,7,,,67,127
42447,note_on,3,0,0,,10,,,57,127
42515,note_on,68,0,0,,6,,,54,127
42534,note_off,19,0,0,,10,,,57,127
42582,note_on,48,0,0,,11,,,58,127
42602,note_off,20,0,0,,6,,,54,127
42650,note_on,48,0,0,,7,,,55,127
42669,note_off,19,0,0,,11,,,58,127
42717,note_on,48,0,0,,0,,,60,127
42737,note_off,20,0,0,,7,,,55,127
42783,note_on,46,0,0,,10,,,57,127
42803,note_off,20,0,0,,0,,,60,127
42851,note_on,48,0,0,,2,,,62,127
42870,note_off,19,0,0,,10,,,57,127
42918,note_on,48,0,0,,11,,,58,127
42938,note_off,20,0,0,,2,,,62,127
42986,note_on,48,0,0,,4,,,64,127
43005,note_off,19,0,0,,11,,,58,127
43051,note_on,46,0,0,,0,,,60,127
43073,note_off,22,0,0,,4,,,64,127
43121,note_on,48,0,0,,6,,,66,127
43139,note_off,18,0,0,,0,,,60,127
43188,note_on,49,0,0,,2,,,62,127
43208,note_off,20,0,0,,6,,,66,127
43254,note_on,46,0,0,,7,,,67,127
43274,note_off,20,0,0,,2,,,62,127
43322,note_on,48,0,0,,4,,,64,127
43341,note_off,19,0,0,,7,,,67,127
43389,note_on,48,0,0,,10,,,69,127
43409,note_off,20,0,0,,4,,,64,127
43457,note_on,48,0,0,,6,,,66,127
43476,note_off,19,0,0,,10,,,69,127
43524,note_on,48,0,0,,11,,,70,127
43544,note_off,20,0,0,,6,,,66,127
43592,note_on,48,0,0,,7,,,67,127
43611,note_off,19,0,0,,11,,,70,127
43657,note_on,46,0,0,,0,,,72,127
43679,note_off,22,0,0,,7,,,67,127
43727,note_on,48,0,0,,10,,,69,127
43745,note_off,18,0,0,,0,,,72,127
43790,note_off,45,0,0,,10,,,69,127
43794,note_on,4,0,0,,10,,,69,127
43861,note_on,67,0,0,,6,,,66,127
43881,note_off,20,0,0,,10,,,69,127
43929,note_on,48,0,0,,11,,,70,127
43948,note_off,19,0,0,,6,,,66,127
43996,note_on,48,0,0,,7,,,67,127
44016,note_off,20,0,0,,11,,,70,127
44064,note_on,48,0,0,,0,,,72,127
44083,note_off,19,0,0,,7,,,67,127
44131,note_on,48,0,0,,10,,,69,127
44151,note_off,20,0,0,,0,,,72,127
44199,note_on,48,0,0,,2,,,74,127
44218,note_off,19,0,0,,10,,,69,127
44266,note_on,48,0,0,,2,,,62,127
44286,note_off,20,0,0,,2,,,74,127
44334,note_on,48,0,0,,6,,,78,127
44353,note_off,19,0,0,,2,,,62,127
44401,note_on,48,0,0,,10,,,69,127
44421,note_off,20,0,0,,6,,,78,127
44467,note_on,46,0,0,,7,,,79,127
44487,note_off,20,0,0,,10,,,69,127
44535,note_on,48,0,0,,11,,,70,127
44554,note_off,19,0,0,,7,,,79,127
44602,note_on,48,0,0,,2,,,74,127
44622,note_off,20,0,0,,11,,,70,127
44670,note_on,48,0,0,,7,,,67,127
44689,note_off,19,0,0,,2,,,74,127
44735,note_on,46,0,0,,3,,,75,127
44757,note_off,22,0,0,,7,,,67,127
44805,note_on,48,0,0,,0,,,72,127
44823,note_off,18,0,0,,3,,,75,127
44868,note_off,45,0,0,,0,,,72,127
44872,note_on,4,0,0,,0,,,72,127
44939,note_on,67,0,0,,10,,,69,127
44959,note_off,20,0,0,,0,,,72,127
45007,note_on,48,0,0,,2,,,74,127
45026,note_off,19,0,0,,10,,,69,127
45074,note_on,48,0,0,,6,,,66,127
45094,note_off,20,0,0,,2,,,74,127
45142,note_on,48,0,0,,10,,,69,127
45161,note_off,19,0,0,,6,,,66,127
45209,note_on,48,0,0,,2,,,62,127
45229,note_off,20,0,0,,10,,,69,127
45277,note_on,48,0,0,,11,,,70,127
45296,note_off,19,0,0,,2,,,62,127
45342,note_on,46,0,0,,7,,,67,127
45364,note_off,22,0,0,,11,,,70,127
45412,note_on,48,0,0,,6,,,66,127
45430,note_off,18,0,0,,7,,,67,127
45479,note_on,49,0,0,,2,,,62,127
45499,note_off,20,0,0,,6,,,66,127
45545,note_on,46,0,0,,7,,,67,127
45565,note_off,20,0,0,,2,,,62,127
45613,note_on,48,0,0,,11,,,58,127
45632,note_off,19,0,0,,7,,,67,127
45680,note_on,48,0,0,,2,,,62,127
45700,note_off,20,0,0,,11,,,58,127
45748,note_on,48,0,0,,7,,,55,127
45767,note_off,19,0,0,,2,,,62,127
45815,note_on,48,0,0,,3,,,63,127
45835,note_off,20,0,0,,7,,,55,127
45883,note_on,48,0,0,,0,,,60,127
45902,note_off,19,0,0,,3,,,63,127
45946,note_off,44,0,0,,0,,,60,127
45950,note_on,4,0,0,,0,,,60,127
46018,note_on,68,0,0,,10,,,57,127
46037,note_off,19,0,0,,0,,,60,127
46085,note_on,48,0,0,,2,,,62,127
46105,note_off,20,0,0,,10,,,57,127
46151,note_on,46,0,0,,6,,,54,127
46171,note_off,20,0,0,,2,,,62,127
46219,note_on,48,0,0,,10,,,57,127
46238,note_off,19,0,0,,6,,,54,127
46286,note_on,48,0,0,,2,,,50,127
46306,note_off,20,0,0,,10,,,57,127
46354,note_on,48,0,0,,11,,,58,127
46354,note_on,0,0,0,,7,,,43,127
46354,note_on,0,0,0,,7,,,55,127
46373,note_off,19,0,0,,2,,,50,127
46610,note_off,237,0,0,,11,,,58,127
46614,note_on,4,0,0,,2,,,74,127
46739,note_off,125,0,0,,2,,,74,127
46744,note_on,5,0,0,,11,,,70,127
46869,note_off,125,0,0,,11,,,70,127
46874,note_on,5,0,0,,10,,,69,127
46999,note_off,125,0,0,,10,,,69,127
47006,note_on,7,0,0,,7,,,67,127
47126,note_off,120,0,0,,7,,,55,127
47126,note_off,0,0,0,,7,,,43,127
47131,note_off,5,0,0,,7,,,67,127
47135,note_on,4,0,0,,7,,,55,127
47135,note_on,0,0,0,,11,,,46,127
47135,note_on,0,0,0,,2,,,74,127
47391,note_off,256,0,0,,2,,,74,127
47391,note_off,0,0,0,,11,,,46,127
47391,note_off,0,0,0,,7,,,55,127
47396,note_on,5,0,0,,3,,,75,127
47396,note_on,0,0,0,,0,,,48,127
47396,note_on,0,0,0,,7,,,55,127
47521,note_off,125,0,0,,3,,,75,127
47526,note_on,5,0,0,,0,,,72,127
47651,note_off,125,0,0,,0,,,72,127
47651,note_off,0,0,0,,0,,,48,127
47658,note_on,7,0,0,,11,,,70,127
47658,note_on,0,0,0,,3,,,51,127
47783,note_off,125,0,0,,11,,,70,127
47787,note_on,4,0,0,,10,,,69,127
47910,note_off,123,0,0,,7,,,55,127
47913,note_off,3,0,0,,10,,,69,127
47914,note_off,1,0,0,,3,,,51,127
47918,note_on,4,0,0,,2,,,50,127
47918,note_on,0,0,0,,11,,,58,127
47918,note_on,0,0,0,,7,,,67,127
48174,note_off,256,0,0,,7,,,67,127
48174,note_off,0,0,0,,11,,,58,127
48179,note_on,5,0,0,,10,,,57,127
48179,note_on,0,0,0,,6,,,66,127
48433,note_off,254,0,0,,2,,,50,127
48436,note_off,3,0,0,,6,,,66,127
48436,note_off,0,0,0,,10,,,57,127
48441,note_on,5,0,0,,7,,,67,127
48441,note_on,0,0,0,,3,,,51,127
48441,note_on,0,0,0,,7,,,55,127
48572,note_on,131,0,0,,0,,,60,127
48697,note_off,125,0,0,,0,,,60,127
48697,note_off,0,0,0,,3,,,51,127
48702,note_on,5,0,0,,2,,,62,127
48702,note_on,0,0,0,,0,,,48,127
48827,note_off,125,0,0,,2,,,62,127
48832,note_on,5,0,0,,3,,,63,127
48955,note_off,123,0,0,,7,,,55,127
48958,note_off,3,0,0,,3,,,63,127
48958,note_off,0,0,0,,0,,,48,127
48965,note_on,7,0,0,,11,,,58,127
48965,note_on,0,0,0,,2,,,50,127
49220,note_off,255,0,0,,2,,,50,127
49221,note_off,1,0,0,,11,,,58,127
49221,note_off,0,0,0,,7,,,67,127
49225,note_on,4,0,0,,10,,,57,127
49225,note_on,0,0,0,,6,,,66,127
49225,note_on,0,0,0,,2,,,38,127
49481,note_off,256,0,0,,2,,,38,127
49481,note_off,0,0,0,,6,,,66,127
49481,note_off,0,0,0,,10,,,57,127
49486,note_on,5,0,0,,7,,,67,127
49486,note_on,0,0,0,,7,,,43,127
49486,note_on,0,0,0,,7,,,55,127
49742,note_off,256,0,0,,7,,,67,127
49747,note_on,5,0,0,,2,,,74,127
49872,note_off,125,0,0,,2,,,74,127
49877,note_on,5,0,0,,12,,,71,127
50002,note_off,125,0,0,,12,,,71,127
50007,note_on,5,0,0,,5,,,65,127
50132,note_off,125,0,0,,5,,,65,127
50137,note_on,5,0,0,,2,,,62,127
50262,note_off,125,0,0,,2,,,62,127
50269,note_on,7,0,0,,12,,,59,127
50394,note_off,125,0,0,,12,,,59,127
50398,note_on,4,0,0,,2,,,62,127
50523,note_off,125,0,0,,2,,,62,127
50524,note_off,1,0,0,,7,,,55,127
50524,note_off,0,0,0,,7,,,43,127
50527,note_on,3,0,0,,7,,,43,127
50527,note_on,0,0,0,,7,,,55,127
50790,note_on,263,0,0,,3,,,75,127
50915,note_off,125,0,0,,3,,,75,127
50922,note_on,7,0,0,,0,,,72,127
51047,note_off,125,0,0,,0,,,72,127
51051,note_on,4,0,0,,7,,,67,127
51176,note_off,125,0,0,,7,,,67,127
51180,note_on,4,0,0,,3,,,63,127
51305,note_off,125,0,0,,3,,,63,127
51312,note_on,7,0,0,,0,,,60,127
51437,note_off,125,0,0,,0,,,60,127
51442,note_on,5,0,0,,7,,,67,127
51567,note_off,125,0,0,,7,,,67,127
51567,note_off,0,0,0,,7,,,55,127
51567,note_off,0,0,0,,7,,,43,127
51574,note_on,7,0,0,,7,,,43,127
51574,note_on,0,0,0,,7,,,55,127
51833,note_on,259,0,0,,5,,,77,127
51958,note_off,125,0,0,,5,,,77,127
51965,note_on,7,0,0,,2,,,74,127
52090,note_off,125,0,0,,2,,,74,127
52095,note_on,5,0,0,,12,,,71,127
52220,note_off,125,0,0,,12,,,71,127
52227,note_on,7,0,0,,5,,,65,127
52352,note_off,125,0,0,,5,,,65,127
52356,note_on,4,0,0,,2,,,62,127
52481,note_off,125,0,0,,2,,,62,127
52485,note_on,4,0,0,,12,,,71,127
52610,note_off,125,0,0,,12,,,71,127
52614,note_off,4,0,0,,7,,,55,127
52614,note_off,0,0,0,,7,,,43,127
52617,note_on,3,0,0,,7,,,55,127
52617,note_on,0,0,0,,7,,,43,127
52880,note_on,263,0,0,,7,,,79,127
53005,note_off,125,0,0,,7,,,79,127
53009,note_on,4,0,0,,3,,,75,127
53134,note_off,125,0,0,,3,,,75,127
53139,note_on,5,0,0,,0,,,72,127
53264,note_off,125,0,0,,0,,,72,127
53269,note_on,5,0,0,,7,,,67,127
53394,note_off,125,0,0,,7,,,67,127
53401,note_on,7,0,0,,3,,,63,127
53526,note_off,125,0,0,,3,,,63,127
53531,note_on,5,0,0,,7,,,67,127
53656,note_off,125,0,0,,7,,,67,127
53656,note_off,0,0,0,,7,,,43,127
53656,note_off,0,0,0,,7,,,55,127
53660,note_on,4,0,0,,7,,,79,127
53660,note_on,0,0,0,,3,,,75,127
53660,note_on,0,0,0,,7,,,55,127
53660,note_on,0,0,0,,7,,,43,127
53785,note_off,125,0,0,,3,,,75,127
53785,note_off,0,0,0,,7,,,79,127
53790,note_on,5,0,0,,2,,,74,127
53790,note_on,0,0,0,,5,,,77,127
53915,note_off,125,0,0,,5,,,77,127
53915,note_off,0,0,0,,2,,,74,127
53920,note_on,5,0,0,,2,,,74,127
53920,note_on,0,0,0,,5,,,77,127
54045,note_off,125,0,0,,5,,,77,127
54045,note_off,0,0,0,,2,,,74,127
54052,note_on,7,0,0,,0,,,72,127
54052,note_on,0,0,0,,3,,,75,127
54177,note_off,125,0,0,,3,,,75,127
54177,note_off,0,0,0,,0,,,72,127
54181,note_on,4,0,0,,3,,,75,127
54181,note_on,0,0,0,,0,,,72,127
54306,note_off,125,0,0,,0,,,72,127
54306,note_off,0,0,0,,3,,,75,127
54311,note_on,5,0,0,,12,,,71,127
54311,note_on,0,0,0,,2,,,74,127
54436,note_off,125,0,0,,2,,,74,127
54436,note_off,0,0,0,,12,,,71,127
54441,note_on,5,0,0,,2,,,74,127
54441,note_on,0,0,0,,12,,,71,127
54566,note_off,125,0,0,,12,,,71,127
54566,note_off,0,0,0,,2,,,74,127
54571,note_on,5,0,0,,0,,,72,127
54571,note_on,0,0,0,,10,,,69,127
54696,note_off,125,0,0,,10,,,69,127
54696,note_off,0,0,0,,0,,,72,127
54697,note_off,1,0,0,,7,,,43,127
54697,note_off,0,0,0,,7,,,55,127
54702,note_on,5,0,0,,12,,,71,127
54702,note_on,0,0,0,,2,,,74,127
54962,note_on,260,0,0,,2,,,62,127
55087,note_off,125,0,0,,2,,,62,127
55092,note_on,5,0,0,,12,,,59,127
55217,note_off,125,0,0,,12,,,59,127
55222,note_on,5,0,0,,7,,,55,127
55478,note_off,256,0,0,,7,,,55,127
55481,note_off,3,0,0,,2,,,74,127
55481,note_off,0,0,0,,12,,,71,127
55484,note_on,3,0,0,,5,,,53,127
55484,note_on,0,0,0,,2,,,74,127
55740,note_off,256,0,0,,2,,,74,127
55740,note_off,0,0,0,,5,,,53,127
55745,note_on,5,0,0,,3,,,51,127
55745,note_on,0,0,0,,2,,,74,127
55745,note_on,0,0,0,,3,,,75,127
56001,note_off,256,0,0,,2,,,74,127
56001,note_off,0,0,0,,3,,,51,127
56008,note_on,7,0,0,,3,,,63,127
56008,note_on,0,0,0,,0,,,72,127
56133,note_off,125,0,0,,3,,,63,127
56137,note_on,4,0,0,,0,,,60,127
56262,note_off,125,0,0,,0,,,60,127
56263,note_off,1,0,0,,0,,,72,127
56267,note_on,4,0,0,,8,,,56,127
56523,note_off,256,0,0,,8,,,56,127
56524,note_off,1,0,0,,3,,,75,127
56528,note_on,4,0,0,,7,,,55,127
56528,note_on,0,0,0,,3,,,75,127
56784,note_off,256,0,0,,3,,,75,127
56784,note_off,0,0,0,,7,,,55,127
56789,note_on,5,0,0,,5,,,53,127
56789,note_on,0,0,0,,3,,,75,127
56789,note_on,0,0,0,,5,,,77,127
57045,note_off,256,0,0,,3,,,75,127
57045,note_off,0,0,0,,5,,,53,127
57050,note_on,5,0,0,,5,,,65,127
57050,note_on,0,0,0,,2,,,74,127
57175,note_off,125,0,0,,5,,,65,127
57180,note_on,5,0,0,,2,,,62,127
57305,note_off,125,0,0,,2,,,62,127
57305,note_off,0,0,0,,2,,,74,127
57312,note_on,7,0,0,,12,,,59,127
57568,note_off,256,0,0,,12,,,59,127
57568,note_off,0,0,0,,5,,,77,127
57571,note_on,3,0,0,,8,,,56,127
57827,note_off,256,0,0,,8,,,56,127
57834,note_on,7,0,0,,7,,,55,127
57834,note_on,0,0,0,,5,,,77,127
57959,note_off,125,0,0,,5,,,77,127
57966,note_on,7,0,0,,2,,,74,127
58091,note_off,125,0,0,,2,,,74,127
58095,note_on,4,0,0,,12,,,71,127
58220,note_off,125,0,0,,12,,,71,127
58224,note_on,4,0,0,,7,,,67,127
58349,note_off,125,0,0,,7,,,67,127
58356,note_on,7,0,0,,7,,,43,127
58356,note_on,0,0,0,,5,,,77,127
58481,note_off,125,0,0,,5,,,77,127
58486,note_on,5,0,0,,3,,,75,127
58611,note_off,125,0,0,,3,,,75,127
58618,note_on,7,0,0,,3,,,75,127
58743,note_off,125,0,0,,3,,,75,127
58747,note_on,4,0,0,,2,,,74,127
58870,note_off,123,0,0,,7,,,43,127
58873,note_off,3,0,0,,2,,,74,127
58874,note_off,1,0,0,,7,,,55,127
58877,note_on,3,0,0,,0,,,48,127
58877,note_on,0,0,0,,3,,,75,127
59133,note_off,256,0,0,,3,,,75,127
59140,note_on,7,0,0,,0,,,60,127
59392,note_off,252,0,0,,0,,,48,127
59396,note_off,4,0,0,,0,,,60,127
59401,note_on,5,0,0,,0,,,60,127
59531,note_on,130,0,0,,11,,,58,127
59656,note_off,125,0,0,,11,,,58,127
59657,note_off,1,0,0,,0,,,60,127
59662,note_on,5,0,0,,8,,,56,127
59662,note_on,0,0,0,,0,,,60,127
59787,note_off,125,0,0,,8,,,56,127
59794,note_on,7,0,0,,7,,,55,127
59918,note_off,124,0,0,,0,,,60,127
59919,note_off,1,0,0,,7,,,55,127
59924,note_on,5,0,0,,8,,,56,127
59924,note_on,0,0,0,,0,,,60,127
60049,note_off,125,0,0,,8,,,56,127
60053,note_on,4,0,0,,11,,,58,127
60178,note_off,125,0,0,,11,,,58,127
60179,note_off,1,0,0,,0,,,60,127
60183,note_on,4,0,0,,8,,,56,127
60183,note_on,0,0,0,,0,,,60,127
60308,note_off,125,0,0,,8,,,56,127
60313,note_on,5,0,0,,7,,,55,127
60438,note_off,125,0,0,,7,,,55,127
60438,note_off,0,0,0,,0,,,60,127
60445,note_on,7,0,0,,8,,,56,127
60445,note_on,0,0,0,,0,,,60,127
60570,note_off,125,0,0,,8,,,56,127
60574,note_on,4,0,0,,11,,,58,127
60699,note_off,125,0,0,,11,,,58,127
60700,note_off,1,0,0,,0,,,60,127
60704,note_on,4,0,0,,8,,,56,127
60704,note_on,0,0,0,,0,,,60,127
60829,note_off,125,0,0,,8,,,56,127
60834,note_on,5,0,0,,7,,,55,127
60959,note_off,125,0,0,,7,,,55,127
60959,note_off,0,0,0,,0,,,60,127
60964,note_on,5,0,0,,0,,,60,127
60964,note_on,0,0,0,,8,,,56,127
61089,note_off,125,0,0,,8,,,56,127
61096,note_on,7,0,0,,7,,,55,127
61220,note_off,124,0,0,,0,,,60,127
61221,note_off,1,0,0,,7,,,55,127
61225,note_on,4,0,0,,5,,,53,127
61225,note_on,0,0,0,,5,,,65,127
61350,note_off,125,0,0,,5,,,53,127
61355,note_on,5,0,0,,4,,,52,127
61480,note_off,125,0,0,,4,,,52,127
61480,note_off,0,0,0,,5,,,65,127
61485,note_on,5,0,0,,5,,,53,127
61485,note_on,0,0,0,,5,,,65,127
61610,note_off,125,0,0,,5,,,53,127
61615,note_on,5,0,0,,3,,,63,127
61740,note_off,125,0,0,,3,,,63,127
61740,note_off,0,0,0,,5,,,65,127
61747,note_on,7,0,0,,2,,,62,127
61747,note_on,0,0,0,,5,,,65,127
61872,note_off,125,0,0,,2,,,62,127
61876,note_on,4,0,0,,0,,,60,127
62001,note_off,125,0,0,,0,,,60,127
62002,note_off,1,0,0,,5,,,65,127
62006,note_on,4,0,0,,2,,,62,127
62006,note_on,0,0,0,,5,,,65,127
62131,note_off,125,0,0,,2,,,62,127
62136,note_on,5,0,0,,3,,,63,127
62261,note_off,125,0,0,,3,,,63,127
62261,note_off,0,0,0,,5,,,65,127
62266,note_on,5,0,0,,2,,,62,127
62266,note_on,0,0,0,,5,,,65,127
62391,note_off,125,0,0,,2,,,62,127
62398,note_on,7,0,0,,0,,,60,127
62522,note_off,124,0,0,,5,,,65,127
62523,note_off,1,0,0,,0,,,60,127
62527,note_on,4,0,0,,5,,,65,127
62527,note_on,0,0,0,,2,,,62,127
62652,note_off,125,0,0,,2,,,62,127
62657,note_on,5,0,0,,3,,,63,127
62782,note_off,125,0,0,,3,,,63,127
62782,note_off,0,0,0,,5,,,65,127
62787,note_on,5,0,0,,5,,,65,127
62787,note_on,0,0,0,,2,,,62,127
62912,note_off,125,0,0,,2,,,62,127
62917,note_on,5,0,0,,0,,,60,127
63042,note_off,125,0,0,,0,,,60,127
63042,note_off,0,0,0,,5,,,65,127
63049,note_on,7,0,0,,2,,,62,127
63049,note_on,0,0,0,,5,,,65,127
63174,note_off,125,0,0,,2,,,62,127
63178,note_on,4,0,0,,0,,,60,127
63303,note_off,125,0,0,,0,,,60,127
63304,note_off,1,0,0,,5,,,65,127
63308,note_on,4,0,0,,11,,,58,127
63308,note_on,0,0,0,,11,,,70,127
63433,note_off,125,0,0,,11,,,58,127
63438,note_on,5,0,0,,10,,,57,127
63563,note_off,125,0,0,,10,,,57,127
63563,note_off,0,0,0,,11,,,70,127
63568,note_on,5,0,0,,11,,,58,127
63568,note_on,0,0,0,,11,,,70,127
63693,note_off,125,0,0,,11,,,58,127
63700,note_on,7,0,0,,8,,,68,127
63824,note_off,124,0,0,,11,,,70,127
63825,note_off,1,0,0,,8,,,68,127
63829,note_on,4,0,0,,7,,,67,127
63829,note_on,0,0,0,,11,,,70,127
63954,note_off,125,0,0,,7,,,67,127
63958,note_on,4,0,0,,5,,,65,127
64083,note_off,125,0,0,,5,,,65,127
64084,note_off,1,0,0,,11,,,70,127
64089,note_on,5,0,0,,7,,,67,127
64089,note_on,0,0,0,,11,,,70,127
64214,note_off,125,0,0,,7,,,67,127
64219,note_on,5,0,0,,8,,,68,127
64344,note_off,125,0,0,,8,,,68,127
64344,note_off,0,0,0,,11,,,70,127
64351,note_on,7,0,0,,7,,,67,127
64351,note_on,0,0,0,,11,,,70,127
64476,note_off,125,0,0,,7,,,67,127
64480,note_on,4,0,0,,5,,,65,127
64605,note_off,125,0,0,,5,,,65,127
64606,note_off,1,0,0,,11,,,70,127
64609,note_on,3,0,0,,11,,,70,127
64609,note_on,0,0,0,,7,,,67,127
64734,note_off,125,0,0,,7,,,67,127
64741,note_on,7,0,0,,8,,,68,127
64865,note_off,124,0,0,,11,,,70,127
64866,note_off,1,0,0,,8,,,68,127
64871,note_on,5,0,0,,7,,,67,127
64871,note_on,0,0,0,,11,,,70,127
64996,note_off,125,0,0,,7,,,67,127
65003,note_on,7,0,0,,5,,,65,127
65127,note_off,124,0,0,,11,,,70,127
65128,note_off,1,0,0,,5,,,65,127
65132,note_on,4,0,0,,7,,,67,127
65132,note_on,0,0,0,,11,,,70,127
65257,note_off,125,0,0,,7,,,67,127
65261,note_on,4,0,0,,5,,,65,127
65386,note_off,125,0,0,,5,,,65,127
65387,note_off,1,0,0,,11,,,70,127
65392,note_on,5,0,0,,3,,,63,127
65392,note_on,0,0,0,,3,,,75,127
65517,note_off,125,0,0,,3,,,63,127
65522,note_on,5,0,0,,2,,,62,127
65647,note_off,125,0,0,,2,,,62,127
65647,note_off,0,0,0,,3,,,75,127
65654,note_on,7,0,0,,3,,,63,127
65654,note_on,0,0,0,,3,,,75,127
65779,note_off,125,0,0,,3,,,63,127
65783,note_on,4,0,0,,1,,,73,127
65908,note_off,125,0,0,,1,,,73,127
65909,note_off,1,0,0,,3,,,75,127
65912,note_on,3,0,0,,0,,,72,127
65912,note_on,0,0,0,,3,,,75,127
66037,note_off,125,0,0,,0,,,72,127
66044,note_on,7,0,0,,11,,,70,127
66168,note_off,124,0,0,,3,,,75,127
66169,note_off,1,0,0,,11,,,70,127
66174,note_on,5,0,0,,0,,,72,127
66174,note_on,0,0,0,,3,,,75,127
66299,note_off,125,0,0,,0,,,72,127
66306,note_on,7,0,0,,1,,,73,127
66430,note_off,124,0,0,,3,,,75,127
66431,note_off,1,0,0,,1,,,73,127
66435,note_on,4,0,0,,0,,,72,127
66435,note_on,0,0,0,,3,,,75,127
66560,note_off,125,0,0,,0,,,72,127
66565,note_on,5,0,0,,11,,,70,127
66690,note_off,125,0,0,,11,,,70,127
66690,note_off,0,0,0,,3,,,75,127
66695,note_on,5,0,0,,0,,,72,127
66695,note_on,0,0,0,,3,,,75,127
66820,note_off,125,0,0,,0,,,72,127
66827,note_on,7,0,0,,1,,,73,127
66951,note_off,124,0,0,,3,,,75,127
66952,note_off,1,0,0,,1,,,73,127
66957,note_on,5,0,0,,3,,,75,127
66957,note_on,0,0,0,,0,,,72,127
67082,note_off,125,0,0,,0,,,72,127
67086,note_on,4,0,0,,11,,,70,127
67211,note_off,125,0,0,,11,,,70,127
67212,note_off,1,0,0,,3,,,75,127
67216,note_on,4,0,0,,0,,,72,127
67216,note_on,0,0,0,,3,,,75,127
67341,note_off,125,0,0,,0,,,72,127
67346,note_on,5,0,0,,11,,,70,127
67471,note_off,125,0,0,,11,,,70,127
67471,note_off,0,0,0,,3,,,75,127
67478,note_on,7,0,0,,8,,,68,127
67478,note_on,0,0,0,,3,,,75,127
67603,note_off,125,0,0,,8,,,68,127
67607,note_on,4,0,0,,7,,,67,127
67732,note_off,125,0,0,,7,,,67,127
67733,note_off,1,0,0,,3,,,75,127
67737,note_on,4,0,0,,0,,,72,127
67737,note_on,0,0,0,,8,,,68,127
67868,note_on,131,0,0,,3,,,75,127
67993,note_off,125,0,0,,3,,,75,127
67993,note_off,0,0,0,,8,,,68,127
67993,note_off,0,0,0,,0,,,72,127
67998,note_on,5,0,0,,7,,,67,127
67998,note_on,0,0,0,,11,,,70,127
68130,note_on,132,0,0,,3,,,75,127
68254,note_off,124,0,0,,11,,,70,127
68254,note_off,0,0,0,,7,,,67,127
68255,note_off,1,0,0,,3,,,75,127
68259,note_on,4,0,0,,8,,,68,127
68259,note_on,0,0,0,,5,,,65,127
68259,note_on,0,0,0,,3,,,75,127
68384,note_off,125,0,0,,3,,,75,127
68389,note_on,5,0,0,,2,,,74,127
68514,note_off,125,0,0,,2,,,74,127
68514,note_off,0,0,0,,5,,,65,127
68514,note_off,0,0,0,,8,,,68,127
68519,note_on,5,0,0,,7,,,67,127
68519,note_on,0,0,0,,3,,,63,127
68650,note_on,131,0,0,,0,,,72,127
68775,note_off,125,0,0,,0,,,72,127
68775,note_off,0,0,0,,3,,,63,127
68775,note_off,0,0,0,,7,,,67,127
68782,note_on,7,0,0,,0,,,72,127
68782,note_on,0,0,0,,2,,,62,127
68782,note_on,0,0,0,,5,,,65,127
68907,note_off,125,0,0,,0,,,72,127
68911,note_on,4,0,0,,12,,,71,127
69036,note_off,125,0,0,,12,,,71,127
69037,note_off,1,0,0,,5,,,65,127
69037,note_off,0,0,0,,2,,,62,127
69041,note_on,4,0,0,,5,,,65,127
69041,note_on,0,0,0,,0,,,60,127
69172,note_on,131,0,0,,8,,,68,127
69297,note_off,125,0,0,,8,,,68,127
69297,note_off,0,0,0,,0,,,60,127
69297,note_off,0,0,0,,5,,,65,127
69302,note_on,5,0,0,,12,,,59,127
69302,note_on,0,0,0,,8,,,68,127
69302,note_on,0,0,0,,5,,,65,127
69427,note_off,125,0,0,,8,,,68,127
69434,note_on,7,0,0,,7,,,67,127
69558,note_off,124,0,0,,5,,,65,127
69558,note_off,0,0,0,,12,,,59,127
69559,note_off,1,0,0,,7,,,67,127
69563,note_on,4,0,0,,8,,,56,127
69563,note_on,0,0,0,,0,,,60,127
69694,note_on,131,0,0,,5,,,65,127
69819,note_off,125,0,0,,5,,,65,127
69819,note_off,0,0,0,,0,,,60,127
69819,note_off,0,0,0,,8,,,56,127
69824,note_on,5,0,0,,5,,,65,127
69824,note_on,0,0,0,,7,,,55,127
69824,note_on,0,0,0,,0,,,60,127
69949,note_off,125,0,0,,5,,,65,127
69954,note_on,5,0,0,,3,,,63,127
70079,note_off,125,0,0,,3,,,63,127
70079,note_off,0,0,0,,0,,,60,127
70079,note_off,0,0,0,,7,,,55,127
70086,note_on,7,0,0,,5,,,53,127
70086,note_on,0,0,0,,12,,,59,127
70216,note_on,130,0,0,,2,,,62,127
70341,note_off,125,0,0,,2,,,62,127
70342,note_off,1,0,0,,12,,,59,127
70342,note_off,0,0,0,,5,,,53,127
70345,note_on,3,0,0,,3,,,51,127
70345,note_on,0,0,0,,7,,,55,127
70345,note_on,0,0,0,,2,,,62,127
70470,note_off,125,0,0,,2,,,62,127
70477,note_on,7,0,0,,0,,,60,127
70601,note_off,124,0,0,,7,,,55,127
70601,note_off,0,0,0,,3,,,51,127
70602,note_off,1,0,0,,0,,,60,127
70607,note_on,5,0,0,,5,,,53,127
70607,note_on,0,0,0,,2,,,50,127
70739,note_on,132,0,0,,11,,,58,127
70863,note_off,124,0,0,,2,,,50,127
70863,note_off,0,0,0,,5,,,53,127
70864,note_off,1,0,0,,11,,,58,127
70868,note_on,4,0,0,,3,,,51,127
70868,note_on,0,0,0,,0,,,48,127
70868,note_on,0,0,0,,11,,,58,127
70993,note_off,125,0,0,,11,,,58,127
70997,note_on,4,0,0,,8,,,56,127
71122,note_off,125,0,0,,8,,,56,127
71123,note_off,1,0,0,,0,,,48,127
71123,note_off,0,0,0,,3,,,51,127
71128,note_on,5,0,0,,11,,,46,127
71128,note_on,0,0,0,,2,,,50,127
71259,note_on,131,0,0,,7,,,55,127
71384,note_off,125,0,0,,7,,,55,127
71384,note_off,0,0,0,,2,,,50,127
71384,note_off,0,0,0,,11,,,46,127
71391,note_on,7,0,0,,0,,,48,127
71391,note_on,0,0,0,,8,,,44,127
71391,note_on,0,0,0,,0,,,60,127
71516,note_off,125,0,0,,0,,,60,127
71520,note_on,4,0,0,,2,,,62,127
71645,note_off,125,0,0,,2,,,62,127
71649,note_on,4,0,0,,3,,,63,127
71774,note_off,125,0,0,,3,,,63,127
71781,note_on,7,0,0,,5,,,65,127
71905,note_off,124,0,0,,8,,,44,127
71905,note_off,0,0,0,,0,,,48,127
71906,note_off,1,0,0,,5,,,65,127
71911,note_on,5,0,0,,8,,,44,127
71911,note_on,0,0,0,,0,,,48,127
71911,note_on,0,0,0,,5,,,65,127
72036,note_off,125,0,0,,5,,,65,127
72043,note_on,7,0,0,,3,,,63,127
72168,note_off,125,0,0,,3,,,63,127
72172,note_on,4,0,0,,2,,,62,127
72172,note_on,0,0,0,,6,,,66,127
72297,note_off,125,0,0,,2,,,62,127
72301,note_on,4,0,0,,0,,,60,127
72425,note_off,124,0,0,,0,,,48,127
72425,note_off,0,0,0,,8,,,44,127
72428,note_off,3,0,0,,6,,,66,127
72433,note_on,5,0,0,,7,,,43,127
72433,note_on,0,0,0,,7,,,67,127
72557,note_off,124,0,0,,0,,,60,127
72564,note_on,7,0,0,,12,,,59,127
72684,note_off,120,0,0,,12,,,59,127
72689,note_off,5,0,0,,7,,,67,127
72689,note_off,0,0,0,,7,,,43,127
72825,note_on,136,0,0,,2,,,62,127
72892,note_on,67,0,0,,12,,,59,127
72911,note_off,19,0,0,,2,,,62,127
72957,note_on,46,0,0,,3,,,63,127
72977,note_off,20,0,0,,12,,,59,127
73027,note_on,50,0,0,,0,,,60,127
73042,note_off,15,0,0,,3,,,63,127
73092,note_on,50,0,0,,5,,,65,127
73112,note_off,20,0,0,,0,,,60,127
73161,note_on,49,0,0,,2,,,62,127
73177,note_off,16,0,0,,5,,,65,127
73226,note_on,49,0,0,,7,,,67,127
73246,note_off,20,0,0,,2,,,62,127
73294,note_on,48,0,0,,3,,,63,127
73312,note_off,18,0,0,,7,,,67,127
73361,note_on,49,0,0,,10,,,69,127
73380,note_off,19,0,0,,3,,,63,127
73428,note_on,48,0,0,,5,,,65,127
73447,note_off,19,0,0,,10,,,69,127
73497,note_on,50,0,0,,12,,,71,127
73513,note_off,16,0,0,,5,,,65,127
73561,note_on,48,0,0,,7,,,67,127
73583,note_off,22,0,0,,12,,,71,127
73632,note_on,49,0,0,,0,,,72,127
73647,note_off,15,0,0,,7,,,67,127
73697,note_on,50,0,0,,10,,,69,127
73717,note_off,20,0,0,,0,,,72,127
73765,note_on,48,0,0,,2,,,74,127
73783,note_off,18,0,0,,10,,,69,127
73832,note_on,49,0,0,,12,,,71,127
73851,note_off,19,0,0,,2,,,74,127
73900,note_on,49,0,0,,3,,,75,127
73918,note_off,18,0,0,,12,,,71,127
73967,note_on,49,0,0,,0,,,72,127
73986,note_off,19,0,0,,3,,,75,127
74034,note_on,48,0,0,,5,,,77,127
74053,note_off,19,0,0,,0,,,72,127
74103,note_on,50,0,0,,2,,,74,127
74119,note_off,16,0,0,,5,,,77,127
74164,note_off,45,0,0,,2,,,74,127
74168,note_on,4,0,0,,2,,,74,127
74238,note_on,70,0,0,,12,,,71,127
74254,note_off,16,0,0,,2,,,74,127
74303,note_on,49,0,0,,3,,,75,127
74323,note_off,20,0,0,,12,,,71,127
74371,note_on,48,0,0,,0,,,72,127
74389,note_off,18,0,0,,3,,,75,127
74438,note_on,49,0,0,,5,,,77,127
74457,note_off,19,0,0,,0,,,72,127
74506,note_on,49,0,0,,8,,,68,127
74524,note_off,18,0,0,,5,,,77,127
74573,note_on,49,0,0,,5,,,77,127
74573,note_on,0,0,0,,7,,,67,127
74592,note_off,19,0,0,,8,,,68,127
74701,note_off,109,0,0,,5,,,77,127
74709,note_on,8,0,0,,7,,,79,127
74836,note_off,127,0,0,,7,,,67,127
74972,note_off,136,0,0,,7,,,79,127
74977,note_on,5,0,0,,2,,,62,127
75044,note_on,67,0,0,,12,,,59,127
75063,note_off,19,0,0,,2,,,62,127
75111,note_on,48,0,0,,3,,,63,127
75130,note_off,19,0,0,,12,,,59,127
75180,note_on,50,0,0,,0,,,60,127
75196,note_off,16,0,0,,3,,,63,127
75244,note_on,48,0,0,,5,,,65,127
75266,note_off,22,0,0,,0,,,60,127
75315,note_on,49,0,0,,2,,,62,127
75330,note_off,15,0,0,,5,,,65,127
75380,note_on,50,0,0,,7,,,67,127
75400,note_off,20,0,0,,2,,,62,127
75448,note_on,48,0,0,,3,,,63,127
75466,note_off,18,0,0,,7,,,67,127
75515,note_on,49,0,0,,10,,,69,127
75534,note_off,19,0,0,,3,,,63,127
75583,note_on,49,0,0,,5,,,65,127
75601,note_off,18,0,0,,10,,,69,127
75650,note_on,49,0,0,,12,,,71,127
75669,note_off,19,0,0,,5,,,65,127
75717,note_on,48,0,0,,7,,,67,127
75736,note_off,19,0,0,,12,,,71,127
75786,note_on,50,0,0,,0,,,72,127
75802,note_off,16,0,0,,7,,,67,127
75851,note_on,49,0,0,,10,,,69,127
75871,note_off,20,0,0,,0,,,72,127
75920,note_on,49,0,0,,2,,,74,127
75936,note_off,16,0,0,,10,,,69,127
75985,note_on,49,0,0,,12,,,71,127
76005,note_off,20,0,0,,2,,,74,127
76053,note_on,48,0,0,,3,,,75,127
76071,note_off,18,0,0,,12,,,71,127
76120,note_on,49,0,0,,0,,,72,127
76139,note_off,19,0,0,,3,,,75,127
76188,note_on,49,0,0,,5,,,77,127
76206,note_off,18,0,0,,0,,,72,127
76255,note_on,49,0,0,,2,,,74,127
76274,note_off,19,0,0,,5,,,77,127
76316,note_off,42,0,0,,2,,,74,127
76320,note_on,4,0,0,,2,,,74,127
76391,note_on,71,0,0,,12,,,71,127
76406,note_off,15,0,0,,2,,,74,127
76456,note_on,50,0,0,,3,,,75,127
76476,note_off,20,0,0,,12,,,71,127
76525,note_on,49,0,0,,0,,,72,127
76541,note_off,16,0,0,,3,,,75,127
76590,note_on,49,0,0,,5,,,77,127
76610,note_off,20,0,0,,0,,,72,127
76658,note_on,48,0,0,,8,,,68,127
76676,note_off,18,0,0,,5,,,77,127
76725,note_on,49,0,0,,7,,,79,127
76744,note_off,19,0,0,,8,,,68,127
76792,note_on,48,0,0,,7,,,67,127
76811,note_off,19,0,0,,7,,,79,127
76861,note_on,50,0,0,,12,,,83,127
76877,note_off,16,0,0,,7,,,67,127
76925,note_on,48,0,0,,2,,,74,127
76947,note_off,22,0,0,,12,,,83,127
76996,note_on,49,0,0,,0,,,84,127
77011,note_off,15,0,0,,2,,,74,127
77061,note_on,50,0,0,,3,,,75,127
77081,note_off,20,0,0,,0,,,84,127
77129,note_on,48,0,0,,7,,,79,127
77147,note_off,18,0,0,,3,,,75,127
77196,note_on,49,0,0,,0,,,72,127
77215,note_off,19,0,0,,7,,,79,127
77264,note_on,49,0,0,,8,,,80,127
77282,note_off,18,0,0,,0,,,72,127
77331,note_on,49,0,0,,5,,,77,127
77350,note_off,19,0,0,,8,,,80,127
77392,note_off,42,0,0,,5,,,77,127
77397,note_on,5,0,0,,5,,,77,127
77467,note_on,70,0,0,,2,,,74,127
77483,note_off,16,0,0,,5,,,77,127
77532,note_on,49,0,0,,7,,,79,127
77552,note_off,20,0,0,,2,,,74,127
77601,note_on,49,0,0,,12,,,71,127
77617,note_off,16,0,0,,7,,,79,127
77666,note_on,49,0,0,,2,,,74,127
77686,note_off,20,0,0,,12,,,71,127
77734,note_on,48,0,0,,7,,,67,127
77752,note_off,18,0,0,,2,,,74,127
77801,note_on,49,0,0,,3,,,75,127
77820,note_off,19,0,0,,7,,,67,127
77869,note_on,49,0,0,,0,,,72,127
77887,note_off,18,0,0,,3,,,75,127
77936,note_on,49,0,0,,12,,,71,127
77955,note_off,19,0,0,,0,,,72,127
78001,note_on,46,0,0,,7,,,67,127
78021,note_off,20,0,0,,12,,,71,127
78071,note_on,50,0,0,,0,,,72,127
78086,note_off,15,0,0,,7,,,67,127
78136,note_on,50,0,0,,3,,,63,127
78156,note_off,20,0,0,,0,,,72,127
78205,note_on,49,0,0,,7,,,67,127
78221,note_off,16,0,0,,3,,,63,127
78270,note_on,49,0,0,,0,,,60,127
78290,note_off,20,0,0,,7,,,67,127
78338,note_on,48,0,0,,8,,,68,127
78356,note_off,18,0,0,,0,,,60,127
78405,note_on,49,0,0,,5,,,65,127
78424,note_off,19,0,0,,8,,,68,127
78466,note_off,42,0,0,,5,,,65,127
78471,note_on,5,0,0,,5,,,65,127
78541,note_on,70,0,0,,2,,,62,127
78557,note_off,16,0,0,,5,,,65,127
78605,note_on,48,0,0,,7,,,67,127
78627,note_off,22,0,0,,2,,,62,127
78676,note_on,49,0,0,,12,,,59,127
78691,note_off,15,0,0,,7,,,67,127
78741,note_on,50,0,0,,2,,,62,127
78761,note_off,20,0,0,,12,,,59,127
78809,note_on,48,0,0,,7,,,55,127
78827,note_off,18,0,0,,2,,,62,127
78876,note_on,49,0,0,,3,,,63,127
78876,note_on,0,0,0,,0,,,48,127
78876,note_on,0,0,0,,0,,,60,127
78895,note_off,19,0,0,,7,,,55,127
79131,note_off,236,0,0,,3,,,63,127
79139,note_on,8,0,0,,7,,,79,127
79263,note_off,124,0,0,,7,,,79,127
79267,note_on,4,0,0,,3,,,75,127
79391,note_off,124,0,0,,3,,,75,127
79398,note_on,7,0,0,,2,,,74,127
79522,note_off,124,0,0,,2,,,74,127
79530,note_on,8,0,0,,0,,,72,127
79654,note_off,124,0,0,,0,,,72,127
79655,note_off,1,0,0,,0,,,60,127
79655,note_off,0,0,0,,0,,,48,127
79662,note_on,7,0,0,,7,,,79,127
79662,note_on,0,0,0,,3,,,51,127
79662,note_on,0,0,0,,0,,,60,127
79917,note_off,255,0,0,,0,,,60,127
79917,note_off,0,0,0,,3,,,51,127
79917,note_off,0,0,0,,7,,,79,127
79921,note_on,4,0,0,,5,,,53,127
79921,note_on,0,0,0,,0,,,60,127
79921,note_on,0,0,0,,8,,,80,127
80045,note_off,124,0,0,,8,,,80,127
80052,note_on,7,0,0,,5,,,77,127
80176,note_off,124,0,0,,5,,,77,127
80176,note_off,0,0,0,,5,,,53,127
80184,note_on,8,0,0,,3,,,75,127
80184,note_on,0,0,0,,8,,,56,127
80308,note_off,124,0,0,,3,,,75,127
80316,note_on,8,0,0,,2,,,74,127
80433,note_off,117,0,0,,0,,,60,127
80438,note_off,5,0,0,,8,,,56,127
80439,note_off,1,0,0,,2,,,74,127
80444,note_on,5,0,0,,3,,,63,127
80444,note_on,0,0,0,,7,,,55,127
80444,note_on,0,0,0,,0,,,72,127
80699,note_off,255,0,0,,0,,,72,127
80699,note_off,0,0,0,,3,,,63,127
80704,note_on,5,0,0,,12,,,71,127
80704,note_on,0,0,0,,2,,,62,127
80956,note_off,252,0,0,,7,,,55,127
80959,note_off,3,0,0,,2,,,62,127
80959,note_off,0,0,0,,12,,,71,127
80969,note_on,10,0,0,,0,,,60,127
80969,note_on,0,0,0,,12,,,71,127
81093,note_off,124,0,0,,12,,,71,127
81098,note_on,5,0,0,,0,,,72,127
81223,note_off,125,0,0,,0,,,60,127
81353,note_off,130,0,0,,0,,,72,127
81358,note_on,5,0,0,,2,,,62,127
81423,note_off,65,0,0,,2,,,62,127
81427,note_on,4,0,0,,12,,,59,127
81492,note_off,65,0,0,,12,,,59,127
81493,note_on,1,0,0,,3,,,63,127
81558,note_off,65,0,0,,3,,,63,127
81563,note_on,5,0,0,,0,,,60,127
81628,note_off,65,0,0,,0,,,60,127
81631,note_on,3,0,0,,5,,,65,127
81696,note_off,65,0,0,,5,,,65,127
81700,note_on,4,0,0,,2,,,62,127
81765,note_off,65,0,0,,2,,,62,127
81768,note_on,3,0,0,,7,,,67,127
81833,note_off,65,0,0,,7,,,67,127
81834,note_on,1,0,0,,3,,,63,127
81899,note_off,65,0,0,,3,,,63,127
81904,note_on,5,0,0,,10,,,69,127
81969,note_off,65,0,0,,10,,,69,127
81969,note_on,0,0,0,,5,,,65,127
82034,note_off,65,0,0,,5,,,65,127
82042,note_on,8,0,0,,12,,,71,127
82106,note_on,64,0,0,,7,,,67,127
82107,note_off,1,0,0,,12,,,71,127
82171,note_off,64,0,0,,7,,,67,127
82178,note_on,7,0,0,,0,,,72,127
82243,note_off,65,0,0,,0,,,72,127
82244,note_on,1,0,0,,10,,,69,127
82309,note_off,65,0,0,,10,,,69,127
82314,note_on,5,0,0,,2,,,74,127
82379,note_off,65,0,0,,2,,,74,127
82380,note_on,1,0,0,,12,,,71,127
82445,note_off,65,0,0,,12,,,71,127
82450,note_on,5,0,0,,3,,,75,127
82515,note_off,65,0,0,,3,,,75,127
82515,note_on,0,0,0,,0,,,72,127
82580,note_off,65,0,0,,0,,,72,127
82585,note_on,5,0,0,,5,,,77,127
82650,note_off,65,0,0,,5,,,77,127
82653,note_on,3,0,0,,2,,,74,127
82703,note_off,50,0,0,,2,,,74,127
82722,note_on,19,0,0,,2,,,74,127
82787,note_off,65,0,0,,2,,,74,127
82790,note_on,3,0,0,,12,,,71,127
82855,note_off,65,0,0,,12,,,71,127
82856,note_on,1,0,0,,3,,,75,127
82921,note_off,65,0,0,,3,,,75,127
82926,note_on,5,0,0,,0,,,72,127
82991,note_off,65,0,0,,0,,,72,127
82992,note_on,1,0,0,,5,,,77,127
83057,note_off,65,0,0,,5,,,77,127
83062,note_on,5,0,0,,8,,,68,127
83127,note_off,65,0,0,,8,,,68,127
83127,note_on,0,0,0,,7,,,79,127
83192,note_off,65,0,0,,7,,,79,127
83199,note_on,7,0,0,,7,,,67,127
83264,note_off,65,0,0,,7,,,67,127
83265,note_on,1,0,0,,12,,,83,127
83330,note_off,65,0,0,,12,,,83,127
83335,note_on,5,0,0,,2,,,74,127
83400,note_off,65,0,0,,2,,,74,127
83401,note_on,1,0,0,,0,,,84,127
83466,note_off,65,0,0,,0,,,84,127
83471,note_on,5,0,0,,3,,,75,127
83536,note_off,65,0,0,,3,,,75,127
83536,note_on,0,0,0,,7,,,79,127
83601,note_off,65,0,0,,7,,,79,127
83606,note_on,5,0,0,,0,,,72,127
83671,note_off,65,0,0,,0,,,72,127
83672,note_on,1,0,0,,8,,,80,127
83737,note_off,65,0,0,,8,,,80,127
83742,note_on,5,0,0,,5,,,77,127
83792,note_off,50,0,0,,5,,,77,127
83810,note_on,18,0,0,,5,,,77,127
83875,note_off,65,0,0,,5,,,77,127
83878,note_on,3,0,0,,2,,,74,127
83943,note_off,65,0,0,,2,,,74,127
83947,note_on,4,0,0,,7,,,79,127
84012,note_off,65,0,0,,7,,,79,127
84013,note_on,1,0,0,,12,,,71,127
84078,note_off,65,0,0,,12,,,71,127
84083,note_on,5,0,0,,2,,,74,127
84148,note_off,65,0,0,,2,,,74,127
84148,note_on,0,0,0,,7,,,67,127
84213,note_off,65,0,0,,7,,,67,127
84220,note_on,7,0,0,,3,,,75,127
84285,note_off,65,0,0,,3,,,75,127
84285,note_on,0,0,0,,0,,,72,127
84350,note_off,65,0,0,,0,,,72,127
84357,note_on,7,0,0,,12,,,71,127
84422,note_off,65,0,0,,12,,,71,127
84423,note_on,1,0,0,,7,,,67,127
84488,note_off,65,0,0,,7,,,67,127
84493,note_on,5,0,0,,0,,,72,127
84558,note_off,65,0,0,,0,,,72,127
84558,note_on,0,0,0,,3,,,63,127
84623,note_off,65,0,0,,3,,,63,127
84628,note_on,5,0,0,,7,,,67,127
84693,note_off,65,0,0,,7,,,67,127
84694,note_on,1,0,0,,0,,,60,127
84759,note_off,65,0,0,,0,,,60,127
84764,note_on,5,0,0,,8,,,68,127
84829,note_off,65,0,0,,8,,,68,127
84832,note_on,3,0,0,,5,,,65,127
84882,note_off,50,0,0,,5,,,65,127
84900,note_on,18,0,0,,5,,,65,127
84965,note_off,65,0,0,,5,,,65,127
84969,note_on,4,0,0,,2,,,62,127
85034,note_off,65,0,0,,2,,,62,127
85035,note_on,1,0,0,,7,,,67,127
85100,note_off,65,0,0,,7,,,67,127
85105,note_on,5,0,0,,12,,,59,127
85170,note_off,65,0,0,,12,,,59,127
85170,note_on,0,0,0,,2,,,62,127
85235,note_off,65,0,0,,2,,,62,127
85242,note_on,7,0,0,,7,,,55,127
85307,note_off,65,0,0,,7,,,55,127
85307,note_on,0,0,0,,0,,,48,127
85307,note_on,0,0,0,,3,,,63,127
85307,note_on,0,0,0,,0,,,60,127
85561,note_off,254,0,0,,3,,,63,127
85636,note_on,75,0,0,,7,,,79,127
85759,note_off,123,0,0,,7,,,79,127
85769,note_on,10,0,0,,3,,,75,127
85892,note_off,123,0,0,,3,,,75,127
85899,note_on,7,0,0,,2,,,74,127
86022,note_off,123,0,0,,2,,,74,127
86029,note_on,7,0,0,,0,,,72,127
86088,note_off,59,0,0,,0,,,60,127
86088,note_off,0,0,0,,0,,,48,127
86152,note_off,64,0,0,,0,,,72,127
86160,note_on,8,0,0,,7,,,79,127
86160,note_on,0,0,0,,0,,,60,127
86160,note_on,0,0,0,,3,,,51,127
86414,note_off,254,0,0,,3,,,51,127
86414,note_off,0,0,0,,0,,,60,127
86414,note_off,0,0,0,,7,,,79,127
86425,note_on,11,0,0,,0,,,60,127
86425,note_on,0,0,0,,5,,,53,127
86425,note_on,0,0,0,,8,,,80,127
86548,note_off,123,0,0,,8,,,80,127
86553,note_on,5,0,0,,5,,,77,127
86676,note_off,123,0,0,,5,,,77,127
86679,note_off,3,0,0,,5,,,53,127
86684,note_on,5,0,0,,8,,,56,127
86684,note_on,0,0,0,,3,,,75,127
86807,note_off,123,0,0,,3,,,75,127
86817,note_on,10,0,0,,2,,,74,127
86937,note_off,120,0,0,,0,,,60,127
86938,note_off,1,0,0,,8,,,56,127
86939,note_off,1,0,0,,2,,,74,127
86949,note_on,10,0,0,,3,,,63,127
86949,note_on,0,0,0,,7,,,55,127
86949,note_on,0,0,0,,0,,,72,127
87203,note_off,254,0,0,,0,,,72,127
87203,note_off,0,0,0,,3,,,63,127
87210,note_on,7,0,0,,2,,,62,127
87210,note_on,0,0,0,,12,,,71,127
87461,note_off,251,0,0,,7,,,55,127
87464,note_off,3,0,0,,12,,,71,127
87464,note_off,0,0,0,,2,,,62,127
87472,note_on,8,0,0,,0,,,60,127
87472,note_on,0,0,0,,0,,,72,127
87472,note_on,0,0,0,,5,,,53,127
87604,note_on,132,0,0,,5,,,65,127
87725,note_off,121,0,0,,5,,,53,127
87726,note_off,1,0,0,,5,,,65,127
87733,note_on,7,0,0,,7,,,67,127
87733,note_on,0,0,0,,8,,,56,127
87856,note_off,123,0,0,,7,,,67,127
87864,note_on,8,0,0,,8,,,68,127
87983,note_off,119,0,0,,0,,,60,127
87987,note_off,4,0,0,,8,,,68,127
87987,note_off,0,0,0,,8,,,56,127
87994,note_on,7,0,0,,7,,,55,127
87994,note_on,0,0,0,,3,,,63,127
88248,note_off,254,0,0,,3,,,63,127
88251,note_off,3,0,0,,0,,,72,127
88263,note_on,12,0,0,,7,,,43,127
88263,note_on,0,0,0,,2,,,62,127
88263,note_on,0,0,0,,12,,,71,127
88506,note_off,243,0,0,,7,,,55,127
88517,note_off,11,0,0,,12,,,71,127
88517,note_off,0,0,0,,2,,,62,127
88517,note_off,0,0,0,,7,,,43,127
88540,note_on,23,0,0,,0,,,48,127
88540,note_on,0,0,0,,12,,,71,127
88540,note_on,0,0,0,,0,,,60,127
88540,note_on,0,0,0,,0,,,36,127
89046,note_off,506,0,0,,12,,,71,127
89046,note_on,0,0,0,,0,,,72,127
90944,note_off,1898,0,0,,0,,,72,127
90944,note_off,0,0,0,,0,,,36,127
90944,note_off,0,0,0,,0,,,60,127
90944,note_off,0,0,0,,0,,,48,127
95232,end_of_track,4288,1,0,,,,,,
