tick,type,time,meta,track,program,channel,pitch,tempo,note,velocity
0,copyright,0,1,0,,,,,,
0,program_change,0,0,0,6,0,,,,
0,pitchwheel,0,0,0,,0,0,,,
0,program_change,0,0,0,6,1,,,,
0,pitchwheel,0,0,0,,1,-590,,,
0,program_change,0,0,0,6,2,,,,
0,pitchwheel,0,0,0,,2,-272,,,
0,program_change,0,0,0,6,3,,,,
0,pitchwheel,0,0,0,,3,-353,,,
0,program_change,0,0,0,6,4,,,,
0,pitchwheel,0,0,0,,4,-560,,,
0,program_change,0,0,0,6,5,,,,
0,pitchwheel,0,0,0,,5,-80,,,
0,program_change,0,0,0,6,6,,,,
0,pitchwheel,0,0,0,,6,-625,,,
0,program_change,0,0,0,6,7,,,,
0,pitchwheel,0,0,0,,7,-130,,,
0,program_change,0,0,0,6,8,,,,
0,pitchwheel,0,0,0,,8,-512,,,
0,program_change,0,0,0,6,10,,,,
0,pitchwheel,0,0,0,,10,-464,,,
0,program_change,0,0,0,6,11,,,,
0,pitchwheel,0,0,0,,11,-208,,,
0,program_change,0,0,0,6,12,,,,
0,pitchwheel,0,0,0,,12,-553,,,
0,set_tempo,0,1,0,,,,500000,,
110,note_on,110,0,0,,0,,,72,127
110,note_on,0,0,0,,4,,,76,127
327,note_off,217,0,0,,4,,,76,127
329,note_on,2,0,0,,0,,,60,127
329,note_on,0,0,0,,7,,,79,127
544,note_off,215,0,0,,0,,,72,127
546,note_off,2,0,0,,7,,,79,127
546,note_off,0,0,0,,0,,,60,127
548,note_on,2,0,0,,0,,,72,127
548,note_on,0,0,0,,4,,,76,127
765,note_off,217,0,0,,4,,,76,127
765,note_off,0,0,0,,0,,,72,127
767,note_on,2,0,0,,0,,,72,127
767,note_on,0,0,0,,4,,,76,127
984,note_off,217,0,0,,4,,,76,127
986,note_on,2,0,0,,0,,,60,127
986,note_on,0,0,0,,0,,,84,127
1201,note_off,215,0,0,,0,,,72,127
1203,note_off,2,0,0,,0,,,84,127
1203,note_off,0,0,0,,0,,,60,127
1205,note_on,2,0,0,,0,,,72,127
1205,note_on,0,0,0,,4,,,76,127
1411,note_off,206,0,0,,4,,,76,127
1411,note_off,0,0,0,,0,,,72,127
1425,note_on,14,0,0,,10,,,69,127
1425,note_on,0,0,0,,0,,,72,127
1642,note_off,217,0,0,,0,,,72,127
1642,note_off,0,0,0,,10,,,69,127
1644,note_on,2,0,0,,5,,,65,127
1644,note_on,0,0,0,,4,,,76,127
1715,note_off,71,0,0,,4,,,76,127
1717,note_on,2,0,0,,2,,,74,127
1788,note_off,71,0,0,,2,,,74,127
1790,note_on,2,0,0,,4,,,76,127
1861,note_off,71,0,0,,4,,,76,127
1861,note_off,0,0,0,,5,,,65,127
1863,note_on,2,0,0,,7,,,67,127
1863,note_on,0,0,0,,2,,,74,127
1934,note_off,71,0,0,,2,,,74,127
1936,note_on,2,0,0,,0,,,72,127
2007,note_off,71,0,0,,0,,,72,127
2009,note_on,2,0,0,,2,,,74,127
2080,note_off,71,0,0,,2,,,74,127
2080,note_off,0,0,0,,7,,,67,127
2082,note_on,2,0,0,,0,,,60,127
2082,note_on,0,0,0,,4,,,76,127
2153,note_off,71,0,0,,4,,,76,127
2155,note_on,2,0,0,,2,,,74,127
2226,note_off,71,0,0,,2,,,74,127
2228,note_on,2,0,0,,0,,,72,127
2299,note_off,71,0,0,,0,,,72,127
2301,note_on,2,0,0,,2,,,74,127
2372,note_off,71,0,0,,2,,,74,127
2374,note_on,2,0,0,,0,,,72,127
2445,note_off,71,0,0,,0,,,72,127
2447,note_on,2,0,0,,12,,,71,127
2518,note_off,71,0,0,,12,,,71,127
2520,note_on,2,0,0,,0,,,72,127
2714,note_off,194,0,0,,0,,,72,127
2715,note_off,1,0,0,,0,,,60,127
2744,note_on,29,0,0,,4,,,64,127
2744,note_on,0,0,0,,0,,,60,127
2961,note_off,217,0,0,,4,,,64,127
2963,note_on,2,0,0,,7,,,67,127
2963,note_on,0,0,0,,0,,,48,127
3178,note_off,215,0,0,,0,,,60,127
3180,note_off,2,0,0,,0,,,48,127
3180,note_off,0,0,0,,7,,,67,127
3182,note_on,2,0,0,,4,,,64,127
3182,note_on,0,0,0,,0,,,60,127
3399,note_off,217,0,0,,0,,,60,127
3399,note_off,0,0,0,,4,,,64,127
3401,note_on,2,0,0,,4,,,64,127
3401,note_on,0,0,0,,0,,,60,127
3618,note_off,217,0,0,,4,,,64,127
3620,note_on,2,0,0,,0,,,72,127
3620,note_on,0,0,0,,0,,,48,127
3835,note_off,215,0,0,,0,,,60,127
3837,note_off,2,0,0,,0,,,48,127
3837,note_off,0,0,0,,0,,,72,127
3839,note_on,2,0,0,,4,,,64,127
3839,note_on,0,0,0,,0,,,60,127
4045,note_off,206,0,0,,0,,,60,127
4045,note_off,0,0,0,,4,,,64,127
4059,note_on,14,0,0,,0,,,60,127
4059,note_on,0,0,0,,10,,,57,127
4276,note_off,217,0,0,,10,,,57,127
4276,note_off,0,0,0,,0,,,60,127
4278,note_on,2,0,0,,4,,,64,127
4278,note_on,0,0,0,,5,,,53,127
4349,note_off,71,0,0,,4,,,64,127
4351,note_on,2,0,0,,2,,,62,127
4422,note_off,71,0,0,,2,,,62,127
4424,note_on,2,0,0,,4,,,64,127
4495,note_off,71,0,0,,4,,,64,127
4495,note_off,0,0,0,,5,,,53,127
4497,note_on,2,0,0,,2,,,62,127
4497,note_on,0,0,0,,7,,,55,127
4568,note_off,71,0,0,,2,,,62,127
4570,note_on,2,0,0,,0,,,60,127
4641,note_off,71,0,0,,0,,,60,127
4643,note_on,2,0,0,,2,,,62,127
4714,note_off,71,0,0,,2,,,62,127
4714,note_off,0,0,0,,7,,,55,127
4716,note_on,2,0,0,,4,,,64,127
4716,note_on,0,0,0,,0,,,48,127
4787,note_off,71,0,0,,4,,,64,127
4789,note_on,2,0,0,,2,,,62,127
4860,note_off,71,0,0,,2,,,62,127
4862,note_on,2,0,0,,0,,,60,127
4933,note_off,71,0,0,,0,,,60,127
4935,note_on,2,0,0,,2,,,62,127
5006,note_off,71,0,0,,2,,,62,127
5008,note_on,2,0,0,,0,,,60,127
5079,note_off,71,0,0,,0,,,60,127
5081,note_on,2,0,0,,12,,,59,127
5152,note_off,71,0,0,,12,,,59,127
5154,note_on,2,0,0,,0,,,60,127
5371,note_off,217,0,0,,0,,,60,127
5371,note_off,0,0,0,,0,,,48,127
5392,note_on,21,0,0,,0,,,60,127
5392,note_on,0,0,0,,0,,,48,127
5392,note_on,0,0,0,,0,,,72,127
5609,note_off,217,0,0,,0,,,72,127
5609,note_off,0,0,0,,0,,,48,127
5611,note_on,2,0,0,,2,,,50,127
5611,note_on,0,0,0,,0,,,72,127
5828,note_off,217,0,0,,0,,,72,127
5828,note_off,0,0,0,,2,,,50,127
5830,note_on,2,0,0,,4,,,52,127
5830,note_on,0,0,0,,0,,,72,127
6047,note_off,217,0,0,,0,,,72,127
6047,note_off,0,0,0,,4,,,52,127
6048,note_off,1,0,0,,0,,,60,127
6049,note_on,1,0,0,,5,,,53,127
6049,note_on,0,0,0,,0,,,60,127
6049,note_on,0,0,0,,0,,,72,127
6266,note_off,217,0,0,,5,,,53,127
6268,note_on,2,0,0,,7,,,55,127
6268,note_on,0,0,0,,0,,,84,127
6483,note_off,215,0,0,,0,,,72,127
6485,note_off,2,0,0,,0,,,84,127
6485,note_off,0,0,0,,7,,,55,127
6487,note_on,2,0,0,,10,,,57,127
6487,note_on,0,0,0,,0,,,72,127
6704,note_off,217,0,0,,0,,,72,127
6704,note_off,0,0,0,,10,,,57,127
6705,note_off,1,0,0,,0,,,60,127
6706,note_on,1,0,0,,4,,,52,127
6706,note_on,0,0,0,,0,,,60,127
6706,note_on,0,0,0,,0,,,72,127
6923,note_off,217,0,0,,0,,,72,127
6923,note_off,0,0,0,,4,,,52,127
6925,note_on,2,0,0,,2,,,50,127
6925,note_on,0,0,0,,0,,,72,127
7142,note_off,217,0,0,,0,,,72,127
7142,note_off,0,0,0,,2,,,50,127
7144,note_on,2,0,0,,0,,,48,127
7144,note_on,0,0,0,,0,,,72,127
7361,note_off,217,0,0,,0,,,72,127
7361,note_off,0,0,0,,0,,,48,127
7362,note_off,1,0,0,,0,,,60,127
7363,note_on,1,0,0,,5,,,53,127
7363,note_on,0,0,0,,0,,,72,127
7580,note_off,217,0,0,,0,,,72,127
7582,note_on,2,0,0,,11,,,70,127
7653,note_off,71,0,0,,11,,,70,127
7655,note_on,2,0,0,,0,,,72,127
7726,note_off,71,0,0,,0,,,72,127
7728,note_on,2,0,0,,11,,,70,127
7799,note_off,71,0,0,,11,,,70,127
7801,note_on,2,0,0,,10,,,69,127
8018,note_off,217,0,0,,5,,,53,127
8039,note_on,21,0,0,,4,,,64,127
8039,note_on,0,0,0,,2,,,62,127
8076,note_off,37,0,0,,10,,,69,127
8110,note_off,34,0,0,,2,,,62,127
8110,note_off,0,0,0,,4,,,64,127
8112,note_on,2,0,0,,1,,,61,127
8183,note_off,71,0,0,,1,,,61,127
8185,note_on,2,0,0,,2,,,62,127
8256,note_off,71,0,0,,2,,,62,127
8258,note_on,2,0,0,,2,,,74,127
8258,note_on,0,0,0,,2,,,62,127
8475,note_off,217,0,0,,2,,,62,127
8475,note_off,0,0,0,,2,,,74,127
8477,note_on,2,0,0,,10,,,69,127
8477,note_on,0,0,0,,2,,,62,127
8694,note_off,217,0,0,,2,,,62,127
8694,note_off,0,0,0,,10,,,69,127
8696,note_on,2,0,0,,2,,,74,127
8696,note_on,0,0,0,,4,,,64,127
8696,note_on,0,0,0,,2,,,62,127
8767,note_off,71,0,0,,2,,,62,127
8767,note_off,0,0,0,,4,,,64,127
8769,note_on,2,0,0,,1,,,61,127
8840,note_off,71,0,0,,1,,,61,127
8842,note_on,2,0,0,,2,,,62,127
8913,note_off,71,0,0,,2,,,62,127
8913,note_off,0,0,0,,2,,,74,127
8915,note_on,2,0,0,,6,,,78,127
8915,note_on,0,0,0,,10,,,69,127
8915,note_on,0,0,0,,2,,,62,127
9132,note_off,217,0,0,,2,,,62,127
9132,note_off,0,0,0,,10,,,69,127
9132,note_off,0,0,0,,6,,,78,127
9134,note_on,2,0,0,,4,,,76,127
9134,note_on,0,0,0,,7,,,67,127
9134,note_on,0,0,0,,2,,,62,127
9351,note_off,217,0,0,,2,,,62,127
9351,note_off,0,0,0,,7,,,67,127
9351,note_off,0,0,0,,4,,,76,127
9353,note_on,2,0,0,,2,,,74,127
9353,note_on,0,0,0,,6,,,66,127
9353,note_on,0,0,0,,2,,,62,127
9353,note_on,0,0,0,,4,,,64,127
9424,note_off,71,0,0,,4,,,64,127
9424,note_off,0,0,0,,2,,,62,127
9426,note_on,2,0,0,,1,,,61,127
9497,note_off,71,0,0,,1,,,61,127
9499,note_on,2,0,0,,2,,,62,127
9570,note_off,71,0,0,,2,,,62,127
9570,note_off,0,0,0,,6,,,66,127
9570,note_off,0,0,0,,2,,,74,127
9572,note_on,2,0,0,,10,,,81,127
9572,note_on,0,0,0,,10,,,69,127
9572,note_on,0,0,0,,2,,,62,127
9789,note_off,217,0,0,,2,,,62,127
9789,note_off,0,0,0,,10,,,81,127
9791,note_on,2,0,0,,7,,,79,127
9791,note_on,0,0,0,,2,,,62,127
10006,note_off,215,0,0,,10,,,69,127
10008,note_off,2,0,0,,2,,,62,127
10008,note_off,0,0,0,,7,,,79,127
10010,note_on,2,0,0,,6,,,78,127
10010,note_on,0,0,0,,2,,,62,127
10010,note_on,0,0,0,,2,,,50,127
10227,note_off,217,0,0,,6,,,78,127
10229,note_on,2,0,0,,4,,,76,127
10300,note_off,71,0,0,,4,,,76,127
10302,note_on,2,0,0,,6,,,78,127
10373,note_off,71,0,0,,6,,,78,127
10375,note_on,2,0,0,,4,,,76,127
10446,note_off,71,0,0,,4,,,76,127
10448,note_on,2,0,0,,2,,,74,127
10665,note_off,217,0,0,,2,,,74,127
10665,note_off,0,0,0,,2,,,50,127
10665,note_off,0,0,0,,2,,,62,127
10676,note_on,11,0,0,,2,,,74,127
10676,note_on,0,0,0,,2,,,50,127
10676,note_on,0,0,0,,2,,,62,127
10893,note_off,217,0,0,,2,,,50,127
10893,note_off,0,0,0,,2,,,74,127
10895,note_on,2,0,0,,2,,,74,127
10895,note_on,0,0,0,,4,,,52,127
11112,note_off,217,0,0,,4,,,52,127
11112,note_off,0,0,0,,2,,,74,127
11114,note_on,2,0,0,,2,,,74,127
11114,note_on,0,0,0,,6,,,54,127
11327,note_off,213,0,0,,2,,,62,127
11332,note_off,5,0,0,,6,,,54,127
11332,note_off,0,0,0,,2,,,74,127
11334,note_on,2,0,0,,2,,,74,127
11334,note_on,0,0,0,,2,,,62,127
11334,note_on,0,0,0,,7,,,55,127
11551,note_off,217,0,0,,7,,,55,127
11553,note_on,2,0,0,,2,,,86,127
11553,note_on,0,0,0,,10,,,57,127
11768,note_off,215,0,0,,2,,,74,127
11770,note_off,2,0,0,,10,,,57,127
11770,note_off,0,0,0,,2,,,86,127
11772,note_on,2,0,0,,2,,,74,127
11772,note_on,0,0,0,,12,,,59,127
11985,note_off,213,0,0,,2,,,62,127
11990,note_off,5,0,0,,12,,,59,127
11990,note_off,0,0,0,,2,,,74,127
11992,note_on,2,0,0,,2,,,74,127
11992,note_on,0,0,0,,6,,,54,127
11992,note_on,0,0,0,,2,,,62,127
12209,note_off,217,0,0,,6,,,54,127
12209,note_off,0,0,0,,2,,,74,127
12211,note_on,2,0,0,,2,,,74,127
12211,note_on,0,0,0,,4,,,52,127
12428,note_off,217,0,0,,4,,,52,127
12428,note_off,0,0,0,,2,,,74,127
12430,note_on,2,0,0,,2,,,74,127
12430,note_on,0,0,0,,2,,,50,127
12643,note_off,213,0,0,,2,,,62,127
12648,note_off,5,0,0,,2,,,50,127
12648,note_off,0,0,0,,2,,,74,127
12650,note_on,2,0,0,,2,,,74,127
12650,note_on,0,0,0,,7,,,43,127
12650,note_on,0,0,0,,7,,,55,127
12867,note_off,217,0,0,,2,,,74,127
12869,note_on,2,0,0,,0,,,72,127
12940,note_off,71,0,0,,0,,,72,127
12942,note_on,2,0,0,,2,,,74,127
13013,note_off,71,0,0,,2,,,74,127
13015,note_on,2,0,0,,0,,,72,127
13086,note_off,71,0,0,,0,,,72,127
13088,note_on,2,0,0,,12,,,71,127
13305,note_off,217,0,0,,7,,,55,127
13305,note_off,0,0,0,,7,,,43,127
13326,note_on,21,0,0,,4,,,64,127
13326,note_on,0,0,0,,6,,,66,127
13363,note_off,37,0,0,,12,,,71,127
13397,note_off,34,0,0,,6,,,66,127
13397,note_off,0,0,0,,4,,,64,127
13399,note_on,2,0,0,,3,,,63,127
13470,note_off,71,0,0,,3,,,63,127
13472,note_on,2,0,0,,4,,,64,127
13543,note_off,71,0,0,,4,,,64,127
13545,note_on,2,0,0,,4,,,64,127
13545,note_on,0,0,0,,4,,,76,127
13762,note_off,217,0,0,,4,,,76,127
13762,note_off,0,0,0,,4,,,64,127
13764,note_on,2,0,0,,4,,,64,127
13764,note_on,0,0,0,,12,,,71,127
13981,note_off,217,0,0,,12,,,71,127
13981,note_off,0,0,0,,4,,,64,127
13983,note_on,2,0,0,,4,,,64,127
13983,note_on,0,0,0,,6,,,66,127
13983,note_on,0,0,0,,4,,,76,127
14054,note_off,71,0,0,,6,,,66,127
14054,note_off,0,0,0,,4,,,64,127
14056,note_on,2,0,0,,3,,,63,127
14127,note_off,71,0,0,,3,,,63,127
14129,note_on,2,0,0,,4,,,64,127
14200,note_off,71,0,0,,4,,,64,127
14200,note_off,0,0,0,,4,,,76,127
14202,note_on,2,0,0,,4,,,64,127
14202,note_on,0,0,0,,7,,,79,127
14202,note_on,0,0,0,,12,,,71,127
14419,note_off,217,0,0,,12,,,71,127
14419,note_off,0,0,0,,7,,,79,127
14419,note_off,0,0,0,,4,,,64,127
14421,note_on,2,0,0,,4,,,64,127
14421,note_on,0,0,0,,10,,,69,127
14421,note_on,0,0,0,,6,,,78,127
14638,note_off,217,0,0,,6,,,78,127
14638,note_off,0,0,0,,10,,,69,127
14638,note_off,0,0,0,,4,,,64,127
14640,note_on,2,0,0,,4,,,64,127
14640,note_on,0,0,0,,6,,,66,127
14640,note_on,0,0,0,,4,,,76,127
14640,note_on,0,0,0,,7,,,67,127
14711,note_off,71,0,0,,6,,,66,127
14711,note_off,0,0,0,,4,,,64,127
14713,note_on,2,0,0,,3,,,63,127
14784,note_off,71,0,0,,3,,,63,127
14786,note_on,2,0,0,,4,,,64,127
14857,note_off,71,0,0,,4,,,64,127
14857,note_off,0,0,0,,7,,,67,127
14857,note_off,0,0,0,,4,,,76,127
14859,note_on,2,0,0,,4,,,64,127
14859,note_on,0,0,0,,12,,,83,127
14859,note_on,0,0,0,,12,,,71,127
15076,note_off,217,0,0,,12,,,83,127
15076,note_off,0,0,0,,4,,,64,127
15078,note_on,2,0,0,,4,,,64,127
15078,note_on,0,0,0,,10,,,81,127
15293,note_off,215,0,0,,12,,,71,127
15295,note_off,2,0,0,,10,,,81,127
15295,note_off,0,0,0,,4,,,64,127
15297,note_on,2,0,0,,4,,,64,127
15297,note_on,0,0,0,,4,,,52,127
15297,note_on,0,0,0,,7,,,79,127
15514,note_off,217,0,0,,7,,,79,127
15516,note_on,2,0,0,,6,,,78,127
15587,note_off,71,0,0,,6,,,78,127
15589,note_on,2,0,0,,7,,,79,127
15660,note_off,71,0,0,,7,,,79,127
15662,note_on,2,0,0,,6,,,78,127
15733,note_off,71,0,0,,6,,,78,127
15735,note_on,2,0,0,,4,,,76,127
15952,note_off,217,0,0,,4,,,76,127
15952,note_off,0,0,0,,4,,,52,127
15952,note_off,0,0,0,,4,,,64,127
15973,note_on,21,0,0,,8,,,68,127
15973,note_on,0,0,0,,4,,,76,127
15973,note_on,0,0,0,,4,,,64,127
16190,note_off,217,0,0,,4,,,64,127
16190,note_off,0,0,0,,8,,,68,127
16192,note_on,2,0,0,,10,,,69,127
16192,note_on,0,0,0,,6,,,66,127
16409,note_off,217,0,0,,6,,,66,127
16409,note_off,0,0,0,,10,,,69,127
16411,note_on,2,0,0,,12,,,71,127
16411,note_on,0,0,0,,8,,,68,127
16624,note_off,213,0,0,,4,,,76,127
16629,note_off,5,0,0,,8,,,68,127
16629,note_off,0,0,0,,12,,,71,127
16631,note_on,2,0,0,,0,,,72,127
16631,note_on,0,0,0,,10,,,69,127
16631,note_on,0,0,0,,4,,,64,127
16848,note_off,217,0,0,,10,,,69,127
16848,note_off,0,0,0,,0,,,72,127
16850,note_on,2,0,0,,12,,,71,127
16850,note_on,0,0,0,,2,,,74,127
17067,note_off,217,0,0,,2,,,74,127
17067,note_off,0,0,0,,12,,,71,127
17069,note_on,2,0,0,,0,,,72,127
17069,note_on,0,0,0,,10,,,81,127
17286,note_off,217,0,0,,10,,,81,127
17286,note_off,0,0,0,,0,,,72,127
17286,note_off,0,0,0,,4,,,64,127
17288,note_on,2,0,0,,2,,,74,127
17288,note_on,0,0,0,,12,,,71,127
17288,note_on,0,0,0,,4,,,64,127
17505,note_off,217,0,0,,12,,,71,127
17505,note_off,0,0,0,,2,,,74,127
17507,note_on,2,0,0,,10,,,69,127
17507,note_on,0,0,0,,0,,,72,127
17724,note_off,217,0,0,,0,,,72,127
17724,note_off,0,0,0,,10,,,69,127
17726,note_on,2,0,0,,12,,,71,127
17726,note_on,0,0,0,,8,,,68,127
17943,note_off,217,0,0,,8,,,68,127
17943,note_off,0,0,0,,12,,,71,127
17943,note_off,0,0,0,,4,,,64,127
17945,note_on,2,0,0,,2,,,74,127
17945,note_on,0,0,0,,10,,,69,127
17945,note_on,0,0,0,,10,,,57,127
18016,note_off,71,0,0,,2,,,74,127
18018,note_on,2,0,0,,0,,,72,127
18089,note_off,71,0,0,,0,,,72,127
18091,note_on,2,0,0,,12,,,71,127
18162,note_off,71,0,0,,12,,,71,127
18164,note_on,2,0,0,,0,,,72,127
18271,note_off,107,0,0,,0,,,72,127
18273,note_on,2,0,0,,2,,,74,127
18380,note_off,107,0,0,,2,,,74,127
18382,note_on,2,0,0,,4,,,76,127
18595,note_off,213,0,0,,10,,,69,127
18606,note_off,11,0,0,,10,,,57,127
18620,note_on,14,0,0,,2,,,62,127
18620,note_on,0,0,0,,2,,,74,127
18620,note_on,0,0,0,,6,,,66,127
18622,note_off,2,0,0,,4,,,76,127
18837,note_off,215,0,0,,6,,,66,127
18837,note_off,0,0,0,,2,,,62,127
18839,note_on,2,0,0,,4,,,64,127
18839,note_on,0,0,0,,7,,,67,127
19056,note_off,217,0,0,,7,,,67,127
19056,note_off,0,0,0,,4,,,64,127
19058,note_on,2,0,0,,6,,,66,127
19058,note_on,0,0,0,,10,,,69,127
19271,note_off,213,0,0,,2,,,74,127
19276,note_off,5,0,0,,10,,,69,127
19276,note_off,0,0,0,,6,,,66,127
19278,note_on,2,0,0,,2,,,62,127
19278,note_on,0,0,0,,12,,,71,127
19278,note_on,0,0,0,,7,,,67,127
19495,note_off,217,0,0,,7,,,67,127
19495,note_off,0,0,0,,12,,,71,127
19497,note_on,2,0,0,,0,,,72,127
19497,note_on,0,0,0,,10,,,69,127
19714,note_off,217,0,0,,10,,,69,127
19714,note_off,0,0,0,,0,,,72,127
19716,note_on,2,0,0,,7,,,79,127
19716,note_on,0,0,0,,12,,,71,127
19933,note_off,217,0,0,,12,,,71,127
19933,note_off,0,0,0,,7,,,79,127
19933,note_off,0,0,0,,2,,,62,127
19935,note_on,2,0,0,,2,,,62,127
19935,note_on,0,0,0,,0,,,72,127
19935,note_on,0,0,0,,10,,,69,127
20152,note_off,217,0,0,,10,,,69,127
20152,note_off,0,0,0,,0,,,72,127
20154,note_on,2,0,0,,7,,,67,127
20154,note_on,0,0,0,,12,,,71,127
20371,note_off,217,0,0,,12,,,71,127
20371,note_off,0,0,0,,7,,,67,127
20373,note_on,2,0,0,,6,,,66,127
20373,note_on,0,0,0,,10,,,69,127
20590,note_off,217,0,0,,10,,,69,127
20590,note_off,0,0,0,,6,,,66,127
20590,note_off,0,0,0,,2,,,62,127
20592,note_on,2,0,0,,7,,,55,127
20592,note_on,0,0,0,,7,,,67,127
20592,note_on,0,0,0,,0,,,72,127
20663,note_off,71,0,0,,0,,,72,127
20665,note_on,2,0,0,,12,,,71,127
20736,note_off,71,0,0,,12,,,71,127
20738,note_on,2,0,0,,10,,,69,127
20809,note_off,71,0,0,,10,,,69,127
20811,note_on,2,0,0,,12,,,71,127
20918,note_off,107,0,0,,12,,,71,127
20920,note_on,2,0,0,,0,,,72,127
21027,note_off,107,0,0,,0,,,72,127
21029,note_on,2,0,0,,2,,,74,127
21235,note_off,206,0,0,,2,,,74,127
21236,note_off,1,0,0,,7,,,67,127
21246,note_off,10,0,0,,7,,,55,127
21264,note_on,18,0,0,,10,,,69,127
21264,note_on,0,0,0,,7,,,67,127
21264,note_on,0,0,0,,7,,,55,127
21335,note_off,71,0,0,,7,,,67,127
21335,note_off,0,0,0,,10,,,69,127
21337,note_on,2,0,0,,6,,,66,127
21408,note_off,71,0,0,,6,,,66,127
21410,note_on,2,0,0,,7,,,67,127
21481,note_off,71,0,0,,7,,,67,127
21483,note_on,2,0,0,,12,,,71,127
21483,note_on,0,0,0,,2,,,62,127
21700,note_off,217,0,0,,2,,,62,127
21700,note_off,0,0,0,,12,,,71,127
21702,note_on,2,0,0,,0,,,72,127
21702,note_on,0,0,0,,4,,,64,127
21915,note_off,213,0,0,,7,,,55,127
21920,note_off,5,0,0,,4,,,64,127
21920,note_off,0,0,0,,0,,,72,127
21922,note_on,2,0,0,,7,,,67,127
21922,note_on,0,0,0,,10,,,69,127
21922,note_on,0,0,0,,7,,,55,127
21993,note_off,71,0,0,,10,,,69,127
21993,note_off,0,0,0,,7,,,67,127
21995,note_on,2,0,0,,6,,,66,127
22066,note_off,71,0,0,,6,,,66,127
22068,note_on,2,0,0,,7,,,67,127
22139,note_off,71,0,0,,7,,,67,127
22141,note_on,2,0,0,,2,,,74,127
22141,note_on,0,0,0,,12,,,59,127
22358,note_off,217,0,0,,12,,,59,127
22358,note_off,0,0,0,,2,,,74,127
22360,note_on,2,0,0,,4,,,76,127
22360,note_on,0,0,0,,0,,,60,127
22573,note_off,213,0,0,,7,,,55,127
22578,note_off,5,0,0,,0,,,60,127
22578,note_off,0,0,0,,4,,,76,127
22580,note_on,2,0,0,,7,,,67,127
22580,note_on,0,0,0,,10,,,69,127
22580,note_on,0,0,0,,7,,,55,127
22651,note_off,71,0,0,,10,,,69,127
22651,note_off,0,0,0,,7,,,67,127
22653,note_on,2,0,0,,6,,,66,127
22724,note_off,71,0,0,,6,,,66,127
22726,note_on,2,0,0,,7,,,67,127
22797,note_off,71,0,0,,7,,,67,127
22799,note_on,2,0,0,,12,,,71,127
22799,note_on,0,0,0,,2,,,62,127
23016,note_off,217,0,0,,2,,,62,127
23016,note_off,0,0,0,,12,,,71,127
23018,note_on,2,0,0,,0,,,72,127
23018,note_on,0,0,0,,4,,,64,127
23231,note_off,213,0,0,,7,,,55,127
23236,note_off,5,0,0,,4,,,64,127
23236,note_off,0,0,0,,0,,,72,127
23238,note_on,2,0,0,,7,,,67,127
23238,note_on,0,0,0,,10,,,69,127
23238,note_on,0,0,0,,7,,,55,127
23309,note_off,71,0,0,,10,,,69,127
23309,note_off,0,0,0,,7,,,67,127
23311,note_on,2,0,0,,6,,,66,127
23382,note_off,71,0,0,,6,,,66,127
23384,note_on,2,0,0,,7,,,67,127
23455,note_off,71,0,0,,7,,,67,127
23457,note_on,2,0,0,,2,,,74,127
23457,note_on,0,0,0,,12,,,59,127
23674,note_off,217,0,0,,12,,,59,127
23674,note_off,0,0,0,,2,,,74,127
23676,note_on,2,0,0,,4,,,76,127
23676,note_on,0,0,0,,0,,,60,127
23882,note_off,206,0,0,,4,,,76,127
23888,note_off,6,0,0,,0,,,60,127
23889,note_off,1,0,0,,7,,,55,127
23900,note_on,11,0,0,,12,,,59,127
23900,note_on,0,0,0,,2,,,74,127
24117,note_off,217,0,0,,2,,,74,127
24117,note_off,0,0,0,,12,,,59,127
24119,note_on,2,0,0,,10,,,57,127
24119,note_on,0,0,0,,6,,,66,127
24336,note_off,217,0,0,,6,,,66,127
24336,note_off,0,0,0,,10,,,57,127
24338,note_on,2,0,0,,7,,,55,127
24338,note_on,0,0,0,,7,,,67,127
24555,note_off,217,0,0,,7,,,67,127
24555,note_off,0,0,0,,7,,,55,127
24557,note_on,2,0,0,,0,,,60,127
24557,note_on,0,0,0,,2,,,74,127
24557,note_on,0,0,0,,0,,,72,127
24628,note_off,71,0,0,,0,,,72,127
24628,note_off,0,0,0,,2,,,74,127
24630,note_on,2,0,0,,12,,,71,127
24701,note_off,71,0,0,,12,,,71,127
24703,note_on,2,0,0,,10,,,69,127
24774,note_off,71,0,0,,10,,,69,127
24774,note_off,0,0,0,,0,,,60,127
24776,note_on,2,0,0,,2,,,62,127
24776,note_on,0,0,0,,12,,,71,127
24776,note_on,0,0,0,,7,,,67,127
24993,note_off,217,0,0,,7,,,67,127
24993,note_off,0,0,0,,12,,,71,127
24995,note_on,2,0,0,,2,,,50,127
24995,note_on,0,0,0,,6,,,66,127
24995,note_on,0,0,0,,10,,,69,127
25210,note_off,215,0,0,,2,,,62,127
25212,note_off,2,0,0,,10,,,69,127
25212,note_off,0,0,0,,6,,,66,127
25212,note_off,0,0,0,,2,,,50,127
25214,note_on,2,0,0,,7,,,55,127
25214,note_on,0,0,0,,7,,,43,127
25214,note_on,0,0,0,,6,,,66,127
25214,note_on,0,0,0,,10,,,69,127
25648,note_off,434,0,0,,10,,,69,127
25648,note_off,0,0,0,,6,,,66,127
25680,note_on,32,0,0,,7,,,67,127
25870,note_off,190,0,0,,7,,,43,127
25872,note_off,2,0,0,,7,,,55,127
25881,note_on,9,0,0,,7,,,55,127
25881,note_on,0,0,0,,10,,,57,127
25952,note_off,71,0,0,,10,,,57,127
25952,note_off,0,0,0,,7,,,55,127
25954,note_off,2,0,0,,7,,,67,127
25954,note_on,0,0,0,,6,,,54,127
26025,note_off,71,0,0,,6,,,54,127
26027,note_on,2,0,0,,7,,,55,127
26100,note_on,73,0,0,,12,,,59,127
26100,note_on,0,0,0,,2,,,74,127
26317,note_off,217,0,0,,2,,,74,127
26317,note_off,0,0,0,,12,,,59,127
26319,note_on,2,0,0,,0,,,60,127
26319,note_on,0,0,0,,4,,,76,127
26461,note_off,142,0,0,,7,,,55,127
26536,note_off,75,0,0,,4,,,76,127
26536,note_off,0,0,0,,0,,,60,127
26538,note_on,2,0,0,,7,,,55,127
26538,note_on,0,0,0,,10,,,57,127
26538,note_on,0,0,0,,7,,,67,127
26609,note_off,71,0,0,,10,,,57,127
26609,note_off,0,0,0,,7,,,55,127
26611,note_on,2,0,0,,6,,,54,127
26682,note_off,71,0,0,,6,,,54,127
26684,note_on,2,0,0,,7,,,55,127
26755,note_off,71,0,0,,7,,,67,127
26757,note_on,2,0,0,,2,,,62,127
26757,note_on,0,0,0,,12,,,71,127
26974,note_off,217,0,0,,12,,,71,127
26974,note_off,0,0,0,,2,,,62,127
26976,note_on,2,0,0,,4,,,64,127
26976,note_on,0,0,0,,0,,,72,127
27118,note_off,142,0,0,,7,,,55,127
27193,note_off,75,0,0,,0,,,72,127
27193,note_off,0,0,0,,4,,,64,127
27195,note_on,2,0,0,,7,,,55,127
27195,note_on,0,0,0,,10,,,57,127
27195,note_on,0,0,0,,7,,,67,127
27266,note_off,71,0,0,,10,,,57,127
27266,note_off,0,0,0,,7,,,55,127
27268,note_on,2,0,0,,6,,,54,127
27339,note_off,71,0,0,,6,,,54,127
27341,note_on,2,0,0,,7,,,55,127
27412,note_off,71,0,0,,7,,,67,127
27414,note_on,2,0,0,,12,,,59,127
27414,note_on,0,0,0,,2,,,74,127
27631,note_off,217,0,0,,2,,,74,127
27631,note_off,0,0,0,,12,,,59,127
27633,note_on,2,0,0,,0,,,60,127
27633,note_on,0,0,0,,4,,,76,127
27775,note_off,142,0,0,,7,,,55,127
27850,note_off,75,0,0,,4,,,76,127
27850,note_off,0,0,0,,0,,,60,127
27852,note_on,2,0,0,,10,,,57,127
27852,note_on,0,0,0,,7,,,55,127
27852,note_on,0,0,0,,7,,,67,127
27923,note_off,71,0,0,,7,,,55,127
27923,note_off,0,0,0,,10,,,57,127
27925,note_on,2,0,0,,6,,,54,127
27996,note_off,71,0,0,,6,,,54,127
27998,note_on,2,0,0,,7,,,55,127
28069,note_off,71,0,0,,7,,,67,127
28071,note_on,2,0,0,,2,,,62,127
28071,note_on,0,0,0,,12,,,71,127
28288,note_off,217,0,0,,12,,,71,127
28288,note_off,0,0,0,,2,,,62,127
28290,note_on,2,0,0,,4,,,64,127
28290,note_on,0,0,0,,0,,,72,127
28432,note_off,142,0,0,,7,,,55,127
28507,note_off,75,0,0,,0,,,72,127
28507,note_off,0,0,0,,4,,,64,127
28514,note_on,7,0,0,,10,,,69,127
28514,note_on,0,0,0,,2,,,62,127
28731,note_off,217,0,0,,2,,,62,127
28733,note_on,2,0,0,,2,,,74,127
28733,note_on,0,0,0,,6,,,54,127
28948,note_off,215,0,0,,10,,,69,127
28950,note_off,2,0,0,,6,,,54,127
28950,note_off,0,0,0,,2,,,74,127
28952,note_on,2,0,0,,12,,,71,127
28952,note_on,0,0,0,,7,,,55,127
29169,note_off,217,0,0,,7,,,55,127
29169,note_off,0,0,0,,12,,,71,127
29171,note_on,2,0,0,,0,,,72,127
29171,note_on,0,0,0,,2,,,74,127
29171,note_on,0,0,0,,0,,,48,127
29242,note_off,71,0,0,,2,,,74,127
29242,note_off,0,0,0,,0,,,72,127
29244,note_on,2,0,0,,12,,,71,127
29315,note_off,71,0,0,,12,,,71,127
29317,note_on,2,0,0,,10,,,69,127
29388,note_off,71,0,0,,10,,,69,127
29388,note_off,0,0,0,,0,,,48,127
29390,note_on,2,0,0,,12,,,71,127
29390,note_on,0,0,0,,7,,,67,127
29390,note_on,0,0,0,,2,,,50,127
29607,note_off,217,0,0,,7,,,67,127
29607,note_off,0,0,0,,12,,,71,127
29609,note_on,2,0,0,,6,,,66,127
29609,note_on,0,0,0,,10,,,69,127
29609,note_on,0,0,0,,2,,,38,127
29818,note_off,209,0,0,,2,,,50,127
29820,note_off,2,0,0,,2,,,38,127
29826,note_off,6,0,0,,10,,,69,127
29826,note_off,0,0,0,,6,,,66,127
29828,note_on,2,0,0,,7,,,67,127
29828,note_on,0,0,0,,7,,,55,127
29828,note_on,0,0,0,,7,,,43,127
30075,note_on,247,0,0,,7,,,79,127
30262,note_off,187,0,0,,7,,,67,127
30292,note_off,30,0,0,,7,,,79,127
30303,note_on,11,0,0,,8,,,68,127
30303,note_on,0,0,0,,0,,,72,127
30422,note_off,119,0,0,,7,,,43,127
30484,note_off,62,0,0,,7,,,55,127
30521,note_off,37,0,0,,0,,,72,127
30521,note_off,0,0,0,,8,,,68,127
30523,note_on,2,0,0,,7,,,67,127
30523,note_on,0,0,0,,12,,,71,127
30523,note_on,0,0,0,,7,,,55,127
30523,note_on,0,0,0,,5,,,65,127
30740,note_off,217,0,0,,5,,,65,127
30740,note_off,0,0,0,,12,,,71,127
30742,note_on,2,0,0,,0,,,72,127
30742,note_on,0,0,0,,3,,,63,127
30959,note_off,217,0,0,,3,,,63,127
30959,note_off,0,0,0,,0,,,72,127
30961,note_on,2,0,0,,2,,,74,127
30961,note_on,0,0,0,,2,,,62,127
31174,note_off,213,0,0,,7,,,55,127
31174,note_off,0,0,0,,7,,,67,127
31179,note_off,5,0,0,,2,,,62,127
31179,note_off,0,0,0,,2,,,74,127
31181,note_on,2,0,0,,7,,,55,127
31181,note_on,0,0,0,,3,,,75,127
31181,note_on,0,0,0,,7,,,67,127
31181,note_on,0,0,0,,0,,,60,127
31398,note_off,217,0,0,,3,,,75,127
31400,note_on,2,0,0,,7,,,79,127
31615,note_off,215,0,0,,7,,,67,127
31617,note_off,2,0,0,,7,,,79,127
31619,note_on,2,0,0,,8,,,68,127
31619,note_on,0,0,0,,0,,,72,127
31836,note_off,217,0,0,,0,,,72,127
31836,note_off,0,0,0,,8,,,68,127
31836,note_off,0,0,0,,0,,,60,127
31836,note_off,0,0,0,,7,,,55,127
31838,note_on,2,0,0,,7,,,67,127
31838,note_on,0,0,0,,12,,,71,127
31838,note_on,0,0,0,,5,,,65,127
31838,note_on,0,0,0,,7,,,55,127
32055,note_off,217,0,0,,5,,,65,127
32055,note_off,0,0,0,,12,,,71,127
32057,note_on,2,0,0,,0,,,72,127
32057,note_on,0,0,0,,3,,,63,127
32274,note_off,217,0,0,,3,,,63,127
32274,note_off,0,0,0,,0,,,72,127
32276,note_on,2,0,0,,2,,,74,127
32276,note_on,0,0,0,,2,,,62,127
32489,note_off,213,0,0,,7,,,55,127
32494,note_off,5,0,0,,2,,,62,127
32494,note_off,0,0,0,,2,,,74,127
32496,note_on,2,0,0,,3,,,75,127
32496,note_on,0,0,0,,7,,,55,127
32496,note_on,0,0,0,,0,,,60,127
32713,note_off,217,0,0,,3,,,75,127
32724,note_on,11,0,0,,7,,,79,127
32930,note_off,206,0,0,,0,,,60,127
32932,note_off,2,0,0,,7,,,67,127
32941,note_off,9,0,0,,7,,,79,127
32952,note_on,11,0,0,,2,,,74,127
32952,note_on,0,0,0,,11,,,70,127
33032,note_off,80,0,0,,7,,,55,127
33169,note_off,137,0,0,,11,,,70,127
33169,note_off,0,0,0,,2,,,74,127
33171,note_on,2,0,0,,10,,,57,127
33171,note_on,0,0,0,,7,,,67,127
33171,note_on,0,0,0,,1,,,73,127
33171,note_on,0,0,0,,10,,,69,127
33388,note_off,217,0,0,,1,,,73,127
33388,note_off,0,0,0,,7,,,67,127
33390,note_on,2,0,0,,5,,,65,127
33390,note_on,0,0,0,,2,,,74,127
33607,note_off,217,0,0,,2,,,74,127
33607,note_off,0,0,0,,5,,,65,127
33609,note_on,2,0,0,,4,,,64,127
33609,note_on,0,0,0,,4,,,76,127
33822,note_off,213,0,0,,10,,,69,127
33822,note_off,0,0,0,,10,,,57,127
33827,note_off,5,0,0,,4,,,76,127
33827,note_off,0,0,0,,4,,,64,127
33829,note_on,2,0,0,,2,,,62,127
33829,note_on,0,0,0,,10,,,57,127
33829,note_on,0,0,0,,5,,,77,127
33829,note_on,0,0,0,,10,,,69,127
34046,note_off,217,0,0,,5,,,77,127
34048,note_on,2,0,0,,10,,,81,127
34263,note_off,215,0,0,,10,,,69,127
34265,note_off,2,0,0,,10,,,81,127
34267,note_on,2,0,0,,2,,,74,127
34267,note_on,0,0,0,,11,,,70,127
34484,note_off,217,0,0,,11,,,70,127
34484,note_off,0,0,0,,2,,,74,127
34484,note_off,0,0,0,,10,,,57,127
34484,note_off,0,0,0,,2,,,62,127
34486,note_on,2,0,0,,10,,,57,127
34486,note_on,0,0,0,,7,,,67,127
34486,note_on,0,0,0,,1,,,73,127
34486,note_on,0,0,0,,10,,,69,127
34703,note_off,217,0,0,,1,,,73,127
34703,note_off,0,0,0,,7,,,67,127
34705,note_on,2,0,0,,5,,,65,127
34705,note_on,0,0,0,,2,,,74,127
34922,note_off,217,0,0,,2,,,74,127
34922,note_off,0,0,0,,5,,,65,127
34924,note_on,2,0,0,,4,,,64,127
34924,note_on,0,0,0,,4,,,76,127
35137,note_off,213,0,0,,10,,,69,127
35137,note_off,0,0,0,,10,,,57,127
35142,note_off,5,0,0,,4,,,64,127
35153,note_off,11,0,0,,4,,,76,127
35162,note_on,9,0,0,,2,,,62,127
35162,note_on,0,0,0,,6,,,78,127
35379,note_off,217,0,0,,6,,,78,127
35379,note_off,0,0,0,,2,,,62,127
35381,note_on,2,0,0,,0,,,60,127
35381,note_on,0,0,0,,7,,,79,127
35598,note_off,217,0,0,,7,,,79,127
35598,note_off,0,0,0,,0,,,60,127
35600,note_on,2,0,0,,12,,,59,127
35600,note_on,0,0,0,,2,,,74,127
35817,note_off,217,0,0,,2,,,74,127
35817,note_off,0,0,0,,12,,,59,127
35819,note_on,2,0,0,,10,,,57,127
35819,note_on,0,0,0,,0,,,72,127
36036,note_off,217,0,0,,0,,,72,127
36036,note_off,0,0,0,,10,,,57,127
36038,note_on,2,0,0,,7,,,55,127
36038,note_on,0,0,0,,12,,,71,127
36255,note_off,217,0,0,,12,,,71,127
36255,note_off,0,0,0,,7,,,55,127
36257,note_on,2,0,0,,6,,,54,127
36257,note_on,0,0,0,,10,,,69,127
36474,note_off,217,0,0,,10,,,69,127
36474,note_off,0,0,0,,6,,,54,127
36476,note_on,2,0,0,,7,,,55,127
36476,note_on,0,0,0,,0,,,72,127
36547,note_off,71,0,0,,0,,,72,127
36549,note_on,2,0,0,,12,,,71,127
36620,note_off,71,0,0,,12,,,71,127
36622,note_on,2,0,0,,10,,,69,127
36693,note_off,71,0,0,,10,,,69,127
36695,note_on,2,0,0,,12,,,71,127
36802,note_off,107,0,0,,12,,,71,127
36804,note_on,2,0,0,,0,,,72,127
36911,note_off,107,0,0,,0,,,72,127
36913,note_on,2,0,0,,2,,,74,127
37130,note_off,217,0,0,,7,,,55,127
37160,note_on,30,0,0,,7,,,43,127
37160,note_on,0,0,0,,10,,,69,127
37160,note_on,0,0,0,,7,,,67,127
37165,note_off,5,0,0,,2,,,74,127
37231,note_off,66,0,0,,7,,,67,127
37231,note_off,0,0,0,,10,,,69,127
37233,note_on,2,0,0,,6,,,66,127
37304,note_off,71,0,0,,6,,,66,127
37306,note_on,2,0,0,,7,,,67,127
37377,note_off,71,0,0,,7,,,43,127
37379,note_on,2,0,0,,2,,,62,127
37379,note_on,0,0,0,,12,,,71,127
37596,note_off,217,0,0,,12,,,71,127
37596,note_off,0,0,0,,2,,,62,127
37598,note_on,2,0,0,,4,,,64,127
37598,note_on,0,0,0,,0,,,72,127
37635,note_off,37,0,0,,7,,,67,127
37816,note_off,181,0,0,,0,,,72,127
37816,note_off,0,0,0,,4,,,64,127
37818,note_on,2,0,0,,7,,,43,127
37818,note_on,0,0,0,,10,,,69,127
37818,note_on,0,0,0,,7,,,67,127
37889,note_off,71,0,0,,7,,,67,127
37889,note_off,0,0,0,,10,,,69,127
37891,note_on,2,0,0,,6,,,66,127
37962,note_off,71,0,0,,6,,,66,127
37964,note_on,2,0,0,,7,,,67,127
38035,note_off,71,0,0,,7,,,43,127
38037,note_on,2,0,0,,12,,,59,127
38037,note_on,0,0,0,,2,,,74,127
38254,note_off,217,0,0,,2,,,74,127
38254,note_off,0,0,0,,12,,,59,127
38256,note_on,2,0,0,,0,,,60,127
38256,note_on,0,0,0,,4,,,76,127
38293,note_off,37,0,0,,7,,,67,127
38474,note_off,181,0,0,,4,,,76,127
38474,note_off,0,0,0,,0,,,60,127
38476,note_on,2,0,0,,7,,,43,127
38476,note_on,0,0,0,,10,,,69,127
38476,note_on,0,0,0,,7,,,67,127
38547,note_off,71,0,0,,7,,,67,127
38547,note_off,0,0,0,,10,,,69,127
38549,note_on,2,0,0,,6,,,66,127
38620,note_off,71,0,0,,6,,,66,127
38622,note_on,2,0,0,,7,,,67,127
38693,note_off,71,0,0,,7,,,43,127
38695,note_on,2,0,0,,2,,,62,127
38695,note_on,0,0,0,,12,,,71,127
38912,note_off,217,0,0,,12,,,71,127
38912,note_off,0,0,0,,2,,,62,127
38914,note_on,2,0,0,,4,,,64,127
38914,note_on,0,0,0,,0,,,72,127
38951,note_off,37,0,0,,7,,,67,127
39132,note_off,181,0,0,,0,,,72,127
39132,note_off,0,0,0,,4,,,64,127
39134,note_on,2,0,0,,7,,,43,127
39134,note_on,0,0,0,,7,,,67,127
39134,note_on,0,0,0,,10,,,69,127
39205,note_off,71,0,0,,10,,,69,127
39205,note_off,0,0,0,,7,,,67,127
39207,note_on,2,0,0,,6,,,66,127
39278,note_off,71,0,0,,6,,,66,127
39280,note_on,2,0,0,,7,,,67,127
39351,note_off,71,0,0,,7,,,43,127
39353,note_on,2,0,0,,12,,,59,127
39353,note_on,0,0,0,,2,,,74,127
39570,note_off,217,0,0,,2,,,74,127
39570,note_off,0,0,0,,12,,,59,127
39572,note_on,2,0,0,,0,,,60,127
39572,note_on,0,0,0,,4,,,76,127
39609,note_off,37,0,0,,7,,,67,127
39790,note_off,181,0,0,,4,,,76,127
39790,note_off,0,0,0,,0,,,60,127
39801,note_on,11,0,0,,2,,,50,127
39801,note_on,0,0,0,,2,,,74,127
40018,note_off,217,0,0,,2,,,74,127
40018,note_off,0,0,0,,2,,,50,127
40020,note_on,2,0,0,,0,,,48,127
40020,note_on,0,0,0,,6,,,66,127
40237,note_off,217,0,0,,6,,,66,127
40237,note_off,0,0,0,,0,,,48,127
40239,note_on,2,0,0,,12,,,47,127
40239,note_on,0,0,0,,7,,,67,127
40456,note_off,217,0,0,,7,,,67,127
40456,note_off,0,0,0,,12,,,47,127
40458,note_on,2,0,0,,0,,,48,127
40458,note_on,0,0,0,,2,,,74,127
40458,note_on,0,0,0,,0,,,72,127
40529,note_off,71,0,0,,0,,,72,127
40529,note_off,0,0,0,,2,,,74,127
40531,note_on,2,0,0,,12,,,71,127
40602,note_off,71,0,0,,12,,,71,127
40604,note_on,2,0,0,,10,,,69,127
40675,note_off,71,0,0,,10,,,69,127
40675,note_off,0,0,0,,0,,,48,127
40677,note_on,2,0,0,,2,,,50,127
40677,note_on,0,0,0,,7,,,67,127
40677,note_on,0,0,0,,12,,,71,127
40894,note_off,217,0,0,,12,,,71,127
40894,note_off,0,0,0,,7,,,67,127
40896,note_on,2,0,0,,2,,,38,127
40896,note_on,0,0,0,,10,,,69,127
40896,note_on,0,0,0,,6,,,66,127
41113,note_off,217,0,0,,6,,,66,127
41113,note_off,0,0,0,,10,,,69,127
41134,note_off,21,0,0,,2,,,50,127
41136,note_off,2,0,0,,2,,,38,127
41143,note_on,7,0,0,,7,,,79,127
41143,note_on,0,0,0,,7,,,43,127
41214,note_off,71,0,0,,7,,,79,127
41216,note_on,2,0,0,,10,,,81,127
41287,note_off,71,0,0,,10,,,81,127
41289,note_on,2,0,0,,4,,,76,127
41360,note_off,71,0,0,,4,,,76,127
41360,note_off,0,0,0,,7,,,43,127
41362,note_on,2,0,0,,4,,,76,127
41362,note_on,0,0,0,,10,,,45,127
41433,note_off,71,0,0,,4,,,76,127
41435,note_on,2,0,0,,2,,,74,127
41506,note_off,71,0,0,,2,,,74,127
41508,note_on,2,0,0,,4,,,76,127
41579,note_off,71,0,0,,4,,,76,127
41579,note_off,0,0,0,,10,,,45,127
41581,note_on,2,0,0,,2,,,74,127
41581,note_on,0,0,0,,12,,,47,127
41798,note_off,217,0,0,,12,,,47,127
41798,note_off,0,0,0,,2,,,74,127
41800,note_on,2,0,0,,0,,,72,127
41800,note_on,0,0,0,,0,,,48,127
41871,note_off,71,0,0,,0,,,72,127
41873,note_on,2,0,0,,2,,,74,127
41944,note_off,71,0,0,,2,,,74,127
41946,note_on,2,0,0,,12,,,71,127
42017,note_off,71,0,0,,12,,,71,127
42017,note_off,0,0,0,,0,,,48,127
42019,note_on,2,0,0,,12,,,71,127
42019,note_on,0,0,0,,2,,,50,127
42090,note_off,71,0,0,,12,,,71,127
42092,note_on,2,0,0,,10,,,69,127
42163,note_off,71,0,0,,10,,,69,127
42165,note_on,2,0,0,,12,,,71,127
42236,note_off,71,0,0,,12,,,71,127
42238,note_on,2,0,0,,10,,,69,127
42238,note_on,0,0,0,,2,,,38,127
42453,note_off,215,0,0,,2,,,50,127
42455,note_off,2,0,0,,2,,,38,127
42455,note_off,0,0,0,,10,,,69,127
42457,note_on,2,0,0,,12,,,71,127
42457,note_on,0,0,0,,7,,,43,127
42528,note_off,71,0,0,,12,,,71,127
42530,note_on,2,0,0,,0,,,72,127
42601,note_off,71,0,0,,0,,,72,127
42603,note_on,2,0,0,,10,,,69,127
42674,note_off,71,0,0,,10,,,69,127
42674,note_off,0,0,0,,7,,,43,127
42676,note_on,2,0,0,,7,,,67,127
42676,note_on,0,0,0,,10,,,45,127
42893,note_off,217,0,0,,10,,,45,127
42893,note_off,0,0,0,,7,,,67,127
42895,note_on,2,0,0,,2,,,62,127
42895,note_on,0,0,0,,12,,,47,127
43112,note_off,217,0,0,,12,,,47,127
43112,note_off,0,0,0,,2,,,62,127
43114,note_on,2,0,0,,4,,,64,127
43114,note_on,0,0,0,,0,,,48,127
43331,note_off,217,0,0,,0,,,48,127
43331,note_off,0,0,0,,4,,,64,127
43333,note_on,2,0,0,,7,,,67,127
43333,note_on,0,0,0,,2,,,50,127
43404,note_off,71,0,0,,7,,,67,127
43406,note_on,2,0,0,,6,,,66,127
43477,note_off,71,0,0,,6,,,66,127
43479,note_on,2,0,0,,7,,,67,127
43550,note_off,71,0,0,,7,,,67,127
43552,note_on,2,0,0,,6,,,66,127
43552,note_on,0,0,0,,2,,,38,127
43623,note_off,71,0,0,,6,,,66,127
43625,note_on,2,0,0,,4,,,64,127
43696,note_off,71,0,0,,4,,,64,127
43698,note_on,2,0,0,,6,,,66,127
43767,note_off,69,0,0,,2,,,50,127
43769,note_off,2,0,0,,6,,,66,127
43769,note_off,0,0,0,,2,,,38,127
43790,note_on,21,0,0,,0,,,48,127
43790,note_on,0,0,0,,0,,,72,127
43790,note_on,0,0,0,,4,,,64,127
44007,note_off,217,0,0,,4,,,64,127
44007,note_off,0,0,0,,0,,,72,127
44007,note_off,0,0,0,,0,,,48,127
44009,note_on,2,0,0,,2,,,50,127
44009,note_on,0,0,0,,12,,,71,127
44009,note_on,0,0,0,,6,,,66,127
44080,note_off,71,0,0,,12,,,71,127
44082,note_on,2,0,0,,10,,,69,127
44153,note_off,71,0,0,,10,,,69,127
44155,note_on,2,0,0,,12,,,71,127
44226,note_off,71,0,0,,12,,,71,127
44228,note_on,2,0,0,,2,,,38,127
44228,note_on,0,0,0,,10,,,69,127
44299,note_off,71,0,0,,10,,,69,127
44301,note_on,2,0,0,,12,,,71,127
44372,note_off,71,0,0,,12,,,71,127
44374,note_on,2,0,0,,10,,,69,127
44443,note_off,69,0,0,,6,,,66,127
44443,note_off,0,0,0,,2,,,50,127
44445,note_off,2,0,0,,10,,,69,127
44445,note_off,0,0,0,,2,,,38,127
44466,note_on,21,0,0,,4,,,64,127
44466,note_on,0,0,0,,4,,,76,127
44466,note_on,0,0,0,,0,,,48,127
44683,note_off,217,0,0,,0,,,48,127
44683,note_off,0,0,0,,4,,,76,127
44683,note_off,0,0,0,,4,,,64,127
44685,note_on,2,0,0,,6,,,66,127
44685,note_on,0,0,0,,12,,,71,127
44685,note_on,0,0,0,,2,,,50,127
44756,note_off,71,0,0,,12,,,71,127
44758,note_on,2,0,0,,10,,,69,127
44829,note_off,71,0,0,,10,,,69,127
44831,note_on,2,0,0,,12,,,71,127
44902,note_off,71,0,0,,12,,,71,127
44904,note_on,2,0,0,,10,,,69,127
44904,note_on,0,0,0,,2,,,38,127
44975,note_off,71,0,0,,10,,,69,127
44977,note_on,2,0,0,,12,,,71,127
45048,note_off,71,0,0,,12,,,71,127
45050,note_on,2,0,0,,10,,,69,127
45119,note_off,69,0,0,,2,,,50,127
45119,note_off,0,0,0,,6,,,66,127
45121,note_off,2,0,0,,10,,,69,127
45121,note_off,0,0,0,,2,,,38,127
45123,note_on,2,0,0,,4,,,64,127
45123,note_on,0,0,0,,0,,,72,127
45123,note_on,0,0,0,,0,,,48,127
45340,note_off,217,0,0,,0,,,48,127
45340,note_off,0,0,0,,0,,,72,127
45340,note_off,0,0,0,,4,,,64,127
45342,note_on,2,0,0,,6,,,66,127
45342,note_on,0,0,0,,12,,,71,127
45342,note_on,0,0,0,,2,,,50,127
45413,note_off,71,0,0,,12,,,71,127
45415,note_on,2,0,0,,10,,,69,127
45486,note_off,71,0,0,,10,,,69,127
45488,note_on,2,0,0,,12,,,71,127
45559,note_off,71,0,0,,12,,,71,127
45561,note_on,2,0,0,,10,,,69,127
45561,note_on,0,0,0,,2,,,38,127
45632,note_off,71,0,0,,10,,,69,127
45634,note_on,2,0,0,,12,,,71,127
45705,note_off,71,0,0,,12,,,71,127
45707,note_on,2,0,0,,10,,,69,127
45776,note_off,69,0,0,,2,,,50,127
45776,note_off,0,0,0,,6,,,66,127
45778,note_off,2,0,0,,10,,,69,127
45778,note_off,0,0,0,,2,,,38,127
45780,note_on,2,0,0,,7,,,67,127
45780,note_on,0,0,0,,7,,,43,127
46436,note_off,656,0,0,,7,,,43,127
46484,note_on,48,0,0,,7,,,55,127
46657,note_off,173,0,0,,7,,,67,127
46722,note_on,65,0,0,,7,,,67,127
46939,note_off,217,0,0,,7,,,67,127
46941,note_on,2,0,0,,6,,,66,127
47141,note_off,200,0,0,,7,,,55,127
47158,note_off,17,0,0,,6,,,66,127
47160,note_on,2,0,0,,6,,,66,127
47160,note_on,0,0,0,,10,,,69,127
47213,note_off,53,0,0,,10,,,69,127
47213,note_off,0,0,0,,6,,,66,127
47215,note_on,2,0,0,,4,,,64,127
47215,note_on,0,0,0,,7,,,67,127
47268,note_off,53,0,0,,7,,,67,127
47268,note_off,0,0,0,,4,,,64,127
47270,note_on,2,0,0,,6,,,66,127
47270,note_on,0,0,0,,10,,,69,127
47323,note_off,53,0,0,,10,,,69,127
47323,note_off,0,0,0,,6,,,66,127
47325,note_on,2,0,0,,4,,,64,127
47325,note_on,0,0,0,,7,,,67,127
47378,note_off,53,0,0,,7,,,67,127
47378,note_off,0,0,0,,4,,,64,127
47380,note_on,2,0,0,,3,,,63,127
47380,note_on,0,0,0,,6,,,66,127
47597,note_off,217,0,0,,6,,,66,127
47597,note_off,0,0,0,,3,,,63,127
47599,note_on,2,0,0,,4,,,64,127
47599,note_on,0,0,0,,7,,,67,127
47805,note_off,206,0,0,,7,,,67,127
47805,note_off,0,0,0,,4,,,64,127
47826,note_on,21,0,0,,12,,,71,127
47826,note_on,0,0,0,,12,,,59,127
48045,note_on,219,0,0,,7,,,79,127
48260,note_off,215,0,0,,12,,,71,127
48262,note_off,2,0,0,,7,,,79,127
48264,note_on,2,0,0,,6,,,78,127
48264,note_on,0,0,0,,10,,,69,127
48264,note_on,0,0,0,,12,,,47,127
48477,note_off,213,0,0,,12,,,59,127
48482,note_off,5,0,0,,12,,,47,127
48482,note_off,0,0,0,,10,,,69,127
48482,note_off,0,0,0,,6,,,78,127
48484,note_on,2,0,0,,6,,,78,127
48484,note_on,0,0,0,,7,,,67,127
48484,note_on,0,0,0,,4,,,52,127
48484,note_on,0,0,0,,4,,,40,127
48591,note_off,107,0,0,,6,,,78,127
48593,note_on,2,0,0,,4,,,76,127
48700,note_off,107,0,0,,4,,,76,127
48700,note_off,0,0,0,,7,,,67,127
48702,note_on,2,0,0,,6,,,66,127
48702,note_on,0,0,0,,3,,,75,127
48919,note_off,217,0,0,,3,,,75,127
48919,note_off,0,0,0,,6,,,66,127
48921,note_on,2,0,0,,7,,,67,127
48921,note_on,0,0,0,,4,,,76,127
49076,note_off,155,0,0,,4,,,40,127
49156,note_off,80,0,0,,4,,,52,127
49167,note_on,11,0,0,,10,,,57,127
49172,note_off,5,0,0,,4,,,76,127
49172,note_off,0,0,0,,7,,,67,127
49387,note_on,215,0,0,,5,,,65,127
49604,note_off,217,0,0,,5,,,65,127
49606,note_on,2,0,0,,4,,,64,127
49823,note_off,217,0,0,,4,,,64,127
49824,note_off,1,0,0,,10,,,57,127
49825,note_on,1,0,0,,4,,,64,127
49825,note_on,0,0,0,,7,,,67,127
49878,note_off,53,0,0,,7,,,67,127
49878,note_off,0,0,0,,4,,,64,127
49880,note_on,2,0,0,,2,,,62,127
49880,note_on,0,0,0,,5,,,65,127
49933,note_off,53,0,0,,5,,,65,127
49933,note_off,0,0,0,,2,,,62,127
49935,note_on,2,0,0,,4,,,64,127
49935,note_on,0,0,0,,7,,,67,127
49988,note_off,53,0,0,,7,,,67,127
49988,note_off,0,0,0,,4,,,64,127
49990,note_on,2,0,0,,2,,,62,127
49990,note_on,0,0,0,,5,,,65,127
50043,note_off,53,0,0,,5,,,65,127
50043,note_off,0,0,0,,2,,,62,127
50045,note_on,2,0,0,,1,,,61,127
50045,note_on,0,0,0,,4,,,64,127
50262,note_off,217,0,0,,4,,,64,127
50262,note_off,0,0,0,,1,,,61,127
50264,note_on,2,0,0,,2,,,62,127
50264,note_on,0,0,0,,5,,,65,127
50470,note_off,206,0,0,,5,,,65,127
50470,note_off,0,0,0,,2,,,62,127
50488,note_on,18,0,0,,10,,,69,127
50488,note_on,0,0,0,,10,,,57,127
50707,note_on,219,0,0,,5,,,77,127
50922,note_off,215,0,0,,10,,,69,127
50924,note_off,2,0,0,,5,,,77,127
50926,note_on,2,0,0,,4,,,76,127
50926,note_on,0,0,0,,7,,,67,127
50926,note_on,0,0,0,,10,,,45,127
51139,note_off,213,0,0,,10,,,57,127
51144,note_off,5,0,0,,10,,,45,127
51144,note_off,0,0,0,,7,,,67,127
51144,note_off,0,0,0,,4,,,76,127
51146,note_on,2,0,0,,4,,,76,127
51146,note_on,0,0,0,,5,,,65,127
51146,note_on,0,0,0,,2,,,50,127
51146,note_on,0,0,0,,2,,,38,127
51253,note_off,107,0,0,,4,,,76,127
51255,note_on,2,0,0,,2,,,74,127
51362,note_off,107,0,0,,2,,,74,127
51362,note_off,0,0,0,,5,,,65,127
51371,note_on,9,0,0,,1,,,73,127
51371,note_on,0,0,0,,4,,,64,127
51600,note_off,229,0,0,,4,,,64,127
51600,note_off,0,0,0,,1,,,73,127
51603,note_on,3,0,0,,5,,,65,127
51603,note_on,0,0,0,,2,,,74,127
51739,note_off,136,0,0,,2,,,38,127
51801,note_off,62,0,0,,2,,,50,127
51883,note_on,82,0,0,,11,,,58,127
51900,note_off,17,0,0,,2,,,74,127
51900,note_off,0,0,0,,5,,,65,127
52111,note_off,211,0,0,,11,,,58,127
52113,note_on,2,0,0,,11,,,58,127
52330,note_off,217,0,0,,11,,,58,127
52332,note_on,2,0,0,,11,,,58,127
52549,note_off,217,0,0,,11,,,58,127
52551,note_on,2,0,0,,11,,,70,127
52551,note_on,0,0,0,,11,,,82,127
52551,note_on,0,0,0,,11,,,58,127
52768,note_off,217,0,0,,11,,,82,127
52768,note_off,0,0,0,,11,,,70,127
52770,note_on,2,0,0,,11,,,70,127
52770,note_on,0,0,0,,11,,,82,127
52987,note_off,217,0,0,,11,,,82,127
52987,note_off,0,0,0,,11,,,70,127
52989,note_on,2,0,0,,11,,,70,127
52989,note_on,0,0,0,,11,,,82,127
53206,note_off,217,0,0,,11,,,82,127
53206,note_off,0,0,0,,11,,,70,127
53206,note_off,0,0,0,,11,,,58,127
53208,note_on,2,0,0,,11,,,70,127
53208,note_on,0,0,0,,11,,,82,127
53208,note_on,0,0,0,,11,,,58,127
53208,note_on,0,0,0,,2,,,50,127
53425,note_off,217,0,0,,11,,,58,127
53427,note_on,2,0,0,,8,,,56,127
53644,note_off,217,0,0,,8,,,56,127
53646,note_on,2,0,0,,5,,,53,127
53859,note_off,213,0,0,,2,,,50,127
53864,note_off,5,0,0,,5,,,53,127
53864,note_off,0,0,0,,11,,,82,127
53864,note_off,0,0,0,,11,,,70,127
53866,note_on,2,0,0,,11,,,70,127
53866,note_on,0,0,0,,11,,,82,127
53866,note_on,0,0,0,,3,,,51,127
53866,note_on,0,0,0,,7,,,55,127
54083,note_off,217,0,0,,7,,,55,127
54085,note_on,2,0,0,,8,,,56,127
54302,note_off,217,0,0,,8,,,56,127
54304,note_on,2,0,0,,11,,,58,127
54517,note_off,213,0,0,,3,,,51,127
54522,note_off,5,0,0,,11,,,58,127
54522,note_off,0,0,0,,11,,,82,127
54522,note_off,0,0,0,,11,,,70,127
54524,note_on,2,0,0,,11,,,82,127
54524,note_on,0,0,0,,11,,,70,127
54524,note_on,0,0,0,,11,,,58,127
54524,note_on,0,0,0,,2,,,50,127
54741,note_off,217,0,0,,11,,,58,127
54743,note_on,2,0,0,,8,,,56,127
54960,note_off,217,0,0,,8,,,56,127
54962,note_on,2,0,0,,5,,,53,127
55175,note_off,213,0,0,,2,,,50,127
55180,note_off,5,0,0,,5,,,53,127
55180,note_off,0,0,0,,11,,,70,127
55180,note_off,0,0,0,,11,,,82,127
55182,note_on,2,0,0,,11,,,70,127
55182,note_on,0,0,0,,11,,,82,127
55182,note_on,0,0,0,,11,,,58,127
55182,note_on,0,0,0,,7,,,55,127
55182,note_on,0,0,0,,3,,,51,127
55399,note_off,217,0,0,,11,,,58,127
55401,note_on,2,0,0,,0,,,60,127
55511,note_off,110,0,0,,7,,,55,127
55618,note_off,107,0,0,,0,,,60,127
55620,note_on,2,0,0,,1,,,61,127
55833,note_off,213,0,0,,3,,,51,127
55838,note_off,5,0,0,,1,,,61,127
55838,note_off,0,0,0,,11,,,82,127
55838,note_off,0,0,0,,11,,,70,127
55840,note_on,2,0,0,,11,,,70,127
55840,note_on,0,0,0,,11,,,82,127
55840,note_on,0,0,0,,1,,,61,127
55840,note_on,0,0,0,,4,,,52,127
56057,note_off,217,0,0,,1,,,61,127
56059,note_on,2,0,0,,0,,,60,127
56276,note_off,217,0,0,,0,,,60,127
56278,note_on,2,0,0,,11,,,58,127
56491,note_off,213,0,0,,4,,,52,127
56496,note_off,5,0,0,,11,,,58,127
56496,note_off,0,0,0,,11,,,82,127
56496,note_off,0,0,0,,11,,,70,127
56507,note_on,11,0,0,,0,,,84,127
56507,note_on,0,0,0,,0,,,72,127
56507,note_on,0,0,0,,8,,,56,127
56507,note_on,0,0,0,,5,,,53,127
56724,note_off,217,0,0,,8,,,56,127
56726,note_on,2,0,0,,11,,,58,127
56943,note_off,217,0,0,,11,,,58,127
56945,note_on,2,0,0,,0,,,60,127
57158,note_off,213,0,0,,5,,,53,127
57163,note_off,5,0,0,,0,,,60,127
57163,note_off,0,0,0,,0,,,72,127
57163,note_off,0,0,0,,0,,,84,127
57165,note_on,2,0,0,,0,,,84,127
57165,note_on,0,0,0,,0,,,72,127
57165,note_on,0,0,0,,0,,,60,127
57165,note_on,0,0,0,,4,,,52,127
57382,note_off,217,0,0,,0,,,60,127
57384,note_on,2,0,0,,11,,,58,127
57601,note_off,217,0,0,,11,,,58,127
57603,note_on,2,0,0,,7,,,55,127
57816,note_off,213,0,0,,4,,,52,127
57821,note_off,5,0,0,,7,,,55,127
57821,note_off,0,0,0,,0,,,72,127
57821,note_off,0,0,0,,0,,,84,127
57823,note_on,2,0,0,,0,,,72,127
57823,note_on,0,0,0,,0,,,84,127
57823,note_on,0,0,0,,5,,,53,127
57823,note_on,0,0,0,,8,,,56,127
58040,note_off,217,0,0,,8,,,56,127
58042,note_on,2,0,0,,11,,,58,127
58259,note_off,217,0,0,,11,,,58,127
58261,note_on,2,0,0,,0,,,60,127
58474,note_off,213,0,0,,5,,,53,127
58479,note_off,5,0,0,,0,,,60,127
58479,note_off,0,0,0,,0,,,84,127
58479,note_off,0,0,0,,0,,,72,127
58481,note_on,2,0,0,,0,,,72,127
58481,note_on,0,0,0,,0,,,84,127
58481,note_on,0,0,0,,4,,,52,127
58481,note_on,0,0,0,,0,,,60,127
58698,note_off,217,0,0,,0,,,60,127
58700,note_on,2,0,0,,11,,,58,127
58917,note_off,217,0,0,,11,,,58,127
58919,note_on,2,0,0,,7,,,55,127
59132,note_off,213,0,0,,4,,,52,127
59137,note_off,5,0,0,,7,,,55,127
59137,note_off,0,0,0,,0,,,84,127
59137,note_off,0,0,0,,0,,,72,127
59139,note_on,2,0,0,,0,,,84,127
59139,note_on,0,0,0,,0,,,72,127
59139,note_on,0,0,0,,8,,,56,127
59139,note_on,0,0,0,,0,,,60,127
59139,note_on,0,0,0,,5,,,53,127
59356,note_off,217,0,0,,0,,,60,127
59358,note_on,2,0,0,,2,,,62,127
59413,note_off,55,0,0,,8,,,56,127
59575,note_off,162,0,0,,2,,,62,127
59577,note_on,2,0,0,,3,,,63,127
59790,note_off,213,0,0,,5,,,53,127
59795,note_off,5,0,0,,3,,,63,127
59795,note_off,0,0,0,,0,,,72,127
59795,note_off,0,0,0,,0,,,84,127
59797,note_on,2,0,0,,0,,,72,127
59797,note_on,0,0,0,,0,,,84,127
59797,note_on,0,0,0,,3,,,63,127
59797,note_on,0,0,0,,6,,,54,127
60014,note_off,217,0,0,,3,,,63,127
60016,note_on,2,0,0,,2,,,62,127
60233,note_off,217,0,0,,2,,,62,127
60235,note_on,2,0,0,,0,,,60,127
60448,note_off,213,0,0,,6,,,54,127
60453,note_off,5,0,0,,0,,,60,127
60453,note_off,0,0,0,,0,,,84,127
60453,note_off,0,0,0,,0,,,72,127
60464,note_on,11,0,0,,2,,,74,127
60464,note_on,0,0,0,,2,,,86,127
60464,note_on,0,0,0,,7,,,55,127
60464,note_on,0,0,0,,12,,,59,127
60681,note_off,217,0,0,,12,,,59,127
60683,note_on,2,0,0,,0,,,60,127
60900,note_off,217,0,0,,0,,,60,127
60902,note_on,2,0,0,,2,,,62,127
61115,note_off,213,0,0,,7,,,55,127
61120,note_off,5,0,0,,2,,,62,127
61120,note_off,0,0,0,,2,,,86,127
61120,note_off,0,0,0,,2,,,74,127
61122,note_on,2,0,0,,2,,,86,127
61122,note_on,0,0,0,,2,,,74,127
61122,note_on,0,0,0,,2,,,62,127
61122,note_on,0,0,0,,6,,,54,127
61339,note_off,217,0,0,,2,,,62,127
61341,note_on,2,0,0,,0,,,60,127
61558,note_off,217,0,0,,0,,,60,127
61560,note_on,2,0,0,,10,,,57,127
61773,note_off,213,0,0,,6,,,54,127
61778,note_off,5,0,0,,10,,,57,127
61778,note_off,0,0,0,,2,,,74,127
61778,note_off,0,0,0,,2,,,86,127
61780,note_on,2,0,0,,2,,,86,127
61780,note_on,0,0,0,,2,,,74,127
61780,note_on,0,0,0,,7,,,55,127
61780,note_on,0,0,0,,12,,,59,127
61997,note_off,217,0,0,,12,,,59,127
61999,note_on,2,0,0,,0,,,60,127
62216,note_off,217,0,0,,0,,,60,127
62218,note_on,2,0,0,,2,,,62,127
62431,note_off,213,0,0,,7,,,55,127
62436,note_off,5,0,0,,2,,,62,127
62436,note_off,0,0,0,,2,,,74,127
62436,note_off,0,0,0,,2,,,86,127
62438,note_on,2,0,0,,2,,,74,127
62438,note_on,0,0,0,,2,,,86,127
62438,note_on,0,0,0,,2,,,62,127
62438,note_on,0,0,0,,6,,,54,127
62655,note_off,217,0,0,,2,,,62,127
62657,note_on,2,0,0,,0,,,60,127
62874,note_off,217,0,0,,0,,,60,127
62876,note_on,2,0,0,,10,,,57,127
63089,note_off,213,0,0,,6,,,54,127
63094,note_off,5,0,0,,10,,,57,127
63094,note_off,0,0,0,,2,,,86,127
63094,note_off,0,0,0,,2,,,74,127
63105,note_on,11,0,0,,2,,,74,127
63105,note_on,0,0,0,,2,,,86,127
63105,note_on,0,0,0,,2,,,62,127
63105,note_on,0,0,0,,7,,,55,127
63322,note_off,217,0,0,,2,,,62,127
63322,note_off,0,0,0,,2,,,86,127
63324,note_on,2,0,0,,0,,,84,127
63324,note_on,0,0,0,,4,,,64,127
63541,note_off,217,0,0,,4,,,64,127
63541,note_off,0,0,0,,0,,,84,127
63543,note_on,2,0,0,,12,,,83,127
63543,note_on,0,0,0,,5,,,65,127
63756,note_off,213,0,0,,7,,,55,127
63756,note_off,0,0,0,,2,,,74,127
63761,note_off,5,0,0,,5,,,65,127
63761,note_off,0,0,0,,12,,,83,127
63763,note_on,2,0,0,,12,,,71,127
63763,note_on,0,0,0,,2,,,74,127
63763,note_on,0,0,0,,5,,,65,127
63763,note_on,0,0,0,,7,,,55,127
63980,note_off,217,0,0,,5,,,65,127
63980,note_off,0,0,0,,2,,,74,127
63980,note_off,0,0,0,,12,,,71,127
63982,note_on,2,0,0,,4,,,76,127
63982,note_on,0,0,0,,0,,,72,127
63982,note_on,0,0,0,,4,,,64,127
64199,note_off,217,0,0,,4,,,64,127
64199,note_off,0,0,0,,0,,,72,127
64199,note_off,0,0,0,,4,,,76,127
64201,note_on,2,0,0,,2,,,74,127
64201,note_on,0,0,0,,5,,,77,127
64201,note_on,0,0,0,,2,,,62,127
64414,note_off,213,0,0,,7,,,55,127
64419,note_off,5,0,0,,2,,,62,127
64419,note_off,0,0,0,,5,,,77,127
64419,note_off,0,0,0,,2,,,74,127
64421,note_on,2,0,0,,4,,,76,127
64421,note_on,0,0,0,,0,,,72,127
64421,note_on,0,0,0,,4,,,64,127
64421,note_on,0,0,0,,7,,,55,127
64638,note_off,217,0,0,,4,,,64,127
64638,note_off,0,0,0,,0,,,72,127
64638,note_off,0,0,0,,4,,,76,127
64640,note_on,2,0,0,,5,,,77,127
64640,note_on,0,0,0,,2,,,74,127
64640,note_on,0,0,0,,2,,,62,127
64857,note_off,217,0,0,,2,,,62,127
64857,note_off,0,0,0,,2,,,74,127
64857,note_off,0,0,0,,5,,,77,127
64859,note_on,2,0,0,,7,,,79,127
64859,note_on,0,0,0,,4,,,76,127
64859,note_on,0,0,0,,0,,,60,127
65072,note_off,213,0,0,,7,,,55,127
65077,note_off,5,0,0,,0,,,60,127
65077,note_off,0,0,0,,4,,,76,127
65077,note_off,0,0,0,,7,,,79,127
65084,note_on,7,0,0,,2,,,62,127
65084,note_on,0,0,0,,7,,,55,127
65084,note_on,0,0,0,,12,,,71,127
65084,note_on,0,0,0,,2,,,74,127
65301,note_off,217,0,0,,2,,,74,127
65301,note_off,0,0,0,,12,,,71,127
65301,note_off,0,0,0,,2,,,62,127
65303,note_on,2,0,0,,0,,,60,127
65303,note_on,0,0,0,,0,,,72,127
65303,note_on,0,0,0,,4,,,76,127
65520,note_off,217,0,0,,4,,,76,127
65520,note_off,0,0,0,,0,,,72,127
65520,note_off,0,0,0,,0,,,60,127
65522,note_on,2,0,0,,12,,,59,127
65522,note_on,0,0,0,,5,,,77,127
65522,note_on,0,0,0,,2,,,74,127
65735,note_off,213,0,0,,7,,,55,127
65740,note_off,5,0,0,,2,,,74,127
65740,note_off,0,0,0,,5,,,77,127
65740,note_off,0,0,0,,12,,,59,127
65742,note_on,2,0,0,,0,,,48,127
65742,note_on,0,0,0,,5,,,77,127
65813,note_off,71,0,0,,5,,,77,127
65815,note_on,2,0,0,,4,,,76,127
65886,note_off,71,0,0,,4,,,76,127
65888,note_on,2,0,0,,2,,,74,127
65959,note_off,71,0,0,,2,,,74,127
65961,note_on,2,0,0,,4,,,76,127
66068,note_off,107,0,0,,4,,,76,127
66074,note_on,6,0,0,,5,,,77,127
66181,note_off,107,0,0,,5,,,77,127
66189,note_on,8,0,0,,7,,,79,127
66397,note_off,208,0,0,,0,,,48,127
66406,note_off,9,0,0,,7,,,79,127
66427,note_on,21,0,0,,0,,,72,127
66427,note_on,0,0,0,,2,,,74,127
66427,note_on,0,0,0,,0,,,60,127
66498,note_off,71,0,0,,2,,,74,127
66498,note_off,0,0,0,,0,,,72,127
66500,note_on,2,0,0,,12,,,71,127
66571,note_off,71,0,0,,12,,,71,127
66573,note_on,2,0,0,,0,,,72,127
66644,note_off,71,0,0,,0,,,72,127
66646,note_on,2,0,0,,4,,,76,127
66646,note_on,0,0,0,,7,,,67,127
66863,note_off,217,0,0,,7,,,67,127
66863,note_off,0,0,0,,4,,,76,127
66865,note_on,2,0,0,,5,,,77,127
66865,note_on,0,0,0,,10,,,69,127
67078,note_off,213,0,0,,0,,,60,127
67083,note_off,5,0,0,,10,,,69,127
67083,note_off,0,0,0,,5,,,77,127
67085,note_on,2,0,0,,0,,,72,127
67085,note_on,0,0,0,,2,,,74,127
67085,note_on,0,0,0,,0,,,60,127
67156,note_off,71,0,0,,2,,,74,127
67156,note_off,0,0,0,,0,,,72,127
67158,note_on,2,0,0,,12,,,71,127
67229,note_off,71,0,0,,12,,,71,127
67231,note_on,2,0,0,,0,,,72,127
67302,note_off,71,0,0,,0,,,72,127
67304,note_on,2,0,0,,7,,,79,127
67304,note_on,0,0,0,,4,,,64,127
67521,note_off,217,0,0,,4,,,64,127
67521,note_off,0,0,0,,7,,,79,127
67523,note_on,2,0,0,,10,,,81,127
67523,note_on,0,0,0,,5,,,65,127
67736,note_off,213,0,0,,0,,,60,127
67741,note_off,5,0,0,,5,,,65,127
67741,note_off,0,0,0,,10,,,81,127
67752,note_on,11,0,0,,2,,,74,127
67752,note_on,0,0,0,,0,,,72,127
67752,note_on,0,0,0,,0,,,60,127
67823,note_off,71,0,0,,0,,,72,127
67823,note_off,0,0,0,,2,,,74,127
67825,note_on,2,0,0,,12,,,71,127
67896,note_off,71,0,0,,12,,,71,127
67898,note_on,2,0,0,,0,,,72,127
67969,note_off,71,0,0,,0,,,72,127
67971,note_on,2,0,0,,4,,,76,127
67971,note_on,0,0,0,,7,,,67,127
68188,note_off,217,0,0,,7,,,67,127
68188,note_off,0,0,0,,4,,,76,127
68190,note_on,2,0,0,,5,,,77,127
68190,note_on,0,0,0,,10,,,69,127
68403,note_off,213,0,0,,0,,,60,127
68408,note_off,5,0,0,,10,,,69,127
68408,note_off,0,0,0,,5,,,77,127
68410,note_on,2,0,0,,0,,,72,127
68410,note_on,0,0,0,,2,,,74,127
68410,note_on,0,0,0,,0,,,60,127
68481,note_off,71,0,0,,2,,,74,127
68481,note_off,0,0,0,,0,,,72,127
68483,note_on,2,0,0,,12,,,71,127
68554,note_off,71,0,0,,12,,,71,127
68556,note_on,2,0,0,,0,,,72,127
68627,note_off,71,0,0,,0,,,72,127
68629,note_on,2,0,0,,7,,,79,127
68629,note_on,0,0,0,,4,,,64,127
68846,note_off,217,0,0,,4,,,64,127
68846,note_off,0,0,0,,7,,,79,127
68848,note_on,2,0,0,,10,,,81,127
68848,note_on,0,0,0,,5,,,65,127
69061,note_off,213,0,0,,0,,,60,127
69066,note_off,5,0,0,,5,,,65,127
69067,note_off,1,0,0,,10,,,81,127
69077,note_on,10,0,0,,7,,,79,127
69077,note_on,0,0,0,,7,,,67,127
69294,note_off,217,0,0,,7,,,67,127
69296,note_on,2,0,0,,12,,,71,127
69296,note_on,0,0,0,,5,,,65,127
69351,note_off,55,0,0,,7,,,79,127
69513,note_off,162,0,0,,5,,,65,127
69513,note_off,0,0,0,,12,,,71,127
69515,note_on,2,0,0,,0,,,72,127
69515,note_on,0,0,0,,4,,,64,127
69732,note_off,217,0,0,,4,,,64,127
69732,note_off,0,0,0,,0,,,72,127
69734,note_on,2,0,0,,5,,,77,127
69734,note_on,0,0,0,,5,,,53,127
69805,note_off,71,0,0,,5,,,77,127
69807,note_on,2,0,0,,4,,,76,127
69878,note_off,71,0,0,,4,,,76,127
69880,note_on,2,0,0,,2,,,74,127
69951,note_off,71,0,0,,2,,,74,127
69951,note_off,0,0,0,,5,,,53,127
69953,note_on,2,0,0,,0,,,72,127
69953,note_on,0,0,0,,4,,,76,127
69953,note_on,0,0,0,,7,,,55,127
70170,note_off,217,0,0,,4,,,76,127
70170,note_off,0,0,0,,0,,,72,127
70172,note_on,2,0,0,,2,,,74,127
70172,note_on,0,0,0,,12,,,71,127
70172,note_on,0,0,0,,7,,,43,127
70387,note_off,215,0,0,,7,,,55,127
70389,note_off,2,0,0,,7,,,43,127
70389,note_off,0,0,0,,12,,,71,127
70389,note_off,0,0,0,,2,,,74,127
70391,note_on,2,0,0,,2,,,74,127
70391,note_on,0,0,0,,12,,,71,127
70391,note_on,0,0,0,,0,,,36,127
70825,note_off,434,0,0,,12,,,71,127
70825,note_off,0,0,0,,2,,,74,127
70830,note_on,5,0,0,,0,,,72,127
71047,note_off,217,0,0,,0,,,36,127
71068,note_on,21,0,0,,2,,,62,127
71068,note_on,0,0,0,,0,,,60,127
71105,note_off,37,0,0,,0,,,72,127
71139,note_off,34,0,0,,0,,,60,127
71139,note_off,0,0,0,,2,,,62,127
71141,note_on,2,0,0,,12,,,59,127
71212,note_off,71,0,0,,12,,,59,127
71214,note_on,2,0,0,,0,,,60,127
71287,note_on,73,0,0,,4,,,64,127
71287,note_on,0,0,0,,7,,,79,127
71504,note_off,217,0,0,,7,,,79,127
71504,note_off,0,0,0,,4,,,64,127
71506,note_on,2,0,0,,5,,,65,127
71506,note_on,0,0,0,,10,,,81,127
71648,note_off,142,0,0,,0,,,60,127
71723,note_off,75,0,0,,10,,,81,127
71723,note_off,0,0,0,,5,,,65,127
71725,note_on,2,0,0,,0,,,60,127
71725,note_on,0,0,0,,2,,,62,127
71725,note_on,0,0,0,,0,,,72,127
71796,note_off,71,0,0,,2,,,62,127
71796,note_off,0,0,0,,0,,,60,127
71798,note_on,2,0,0,,12,,,59,127
71869,note_off,71,0,0,,12,,,59,127
71871,note_on,2,0,0,,0,,,60,127
71942,note_off,71,0,0,,0,,,72,127
71944,note_on,2,0,0,,7,,,67,127
71944,note_on,0,0,0,,4,,,76,127
72161,note_off,217,0,0,,4,,,76,127
72161,note_off,0,0,0,,7,,,67,127
72163,note_on,2,0,0,,10,,,69,127
72163,note_on,0,0,0,,5,,,77,127
72305,note_off,142,0,0,,0,,,60,127
72380,note_off,75,0,0,,5,,,77,127
72380,note_off,0,0,0,,10,,,69,127
72382,note_on,2,0,0,,0,,,60,127
72382,note_on,0,0,0,,2,,,62,127
72382,note_on,0,0,0,,4,,,76,127
72453,note_off,71,0,0,,2,,,62,127
72453,note_off,0,0,0,,0,,,60,127
72455,note_on,2,0,0,,12,,,59,127
72526,note_off,71,0,0,,12,,,59,127
72528,note_on,2,0,0,,0,,,60,127
72599,note_off,71,0,0,,4,,,76,127
72601,note_on,2,0,0,,4,,,64,127
72601,note_on,0,0,0,,7,,,79,127
72818,note_off,217,0,0,,7,,,79,127
72818,note_off,0,0,0,,4,,,64,127
72820,note_on,2,0,0,,5,,,65,127
72820,note_on,0,0,0,,10,,,81,127
72962,note_off,142,0,0,,0,,,60,127
73037,note_off,75,0,0,,10,,,81,127
73037,note_off,0,0,0,,5,,,65,127
73039,note_on,2,0,0,,0,,,60,127
73039,note_on,0,0,0,,2,,,62,127
73039,note_on,0,0,0,,0,,,72,127
73110,note_off,71,0,0,,2,,,62,127
73110,note_off,0,0,0,,0,,,60,127
73112,note_on,2,0,0,,12,,,59,127
73183,note_off,71,0,0,,12,,,59,127
73185,note_on,2,0,0,,0,,,60,127
73256,note_off,71,0,0,,0,,,72,127
73258,note_on,2,0,0,,7,,,67,127
73258,note_on,0,0,0,,4,,,76,127
73475,note_off,217,0,0,,4,,,76,127
73475,note_off,0,0,0,,7,,,67,127
73477,note_on,2,0,0,,10,,,69,127
73477,note_on,0,0,0,,5,,,77,127
73619,note_off,142,0,0,,0,,,60,127
73694,note_off,75,0,0,,5,,,77,127
73694,note_off,0,0,0,,10,,,69,127
73705,note_on,11,0,0,,7,,,67,127
73705,note_on,0,0,0,,2,,,74,127
73922,note_off,217,0,0,,2,,,74,127
73924,note_on,2,0,0,,12,,,59,127
73924,note_on,0,0,0,,7,,,79,127
74139,note_off,215,0,0,,7,,,67,127
74141,note_off,2,0,0,,7,,,79,127
74141,note_off,0,0,0,,12,,,59,127
74143,note_on,2,0,0,,0,,,60,127
74143,note_on,0,0,0,,4,,,76,127
74360,note_off,217,0,0,,4,,,76,127
74360,note_off,0,0,0,,0,,,60,127
74362,note_on,2,0,0,,5,,,53,127
74362,note_on,0,0,0,,7,,,79,127
74362,note_on,0,0,0,,5,,,77,127
74433,note_off,71,0,0,,5,,,77,127
74433,note_off,0,0,0,,7,,,79,127
74435,note_on,2,0,0,,4,,,76,127
74506,note_off,71,0,0,,4,,,76,127
74508,note_on,2,0,0,,2,,,74,127
74579,note_off,71,0,0,,2,,,74,127
74579,note_off,0,0,0,,5,,,53,127
74581,note_on,2,0,0,,7,,,55,127
74581,note_on,0,0,0,,4,,,76,127
74581,note_on,0,0,0,,0,,,72,127
74798,note_off,217,0,0,,0,,,72,127
74798,note_off,0,0,0,,4,,,76,127
74800,note_on,2,0,0,,7,,,43,127
74800,note_on,0,0,0,,2,,,74,127
74800,note_on,0,0,0,,12,,,71,127
75015,note_off,215,0,0,,7,,,55,127
75017,note_off,2,0,0,,12,,,71,127
75017,note_off,0,0,0,,2,,,74,127
75017,note_off,0,0,0,,7,,,43,127
75019,note_on,2,0,0,,0,,,48,127
75019,note_on,0,0,0,,0,,,72,127
75248,note_on,229,0,0,,0,,,84,127
75465,note_off,217,0,0,,0,,,72,127
75476,note_on,11,0,0,,1,,,73,127
75476,note_on,0,0,0,,5,,,77,127
75499,note_off,23,0,0,,0,,,84,127
75675,note_off,176,0,0,,0,,,48,127
75693,note_off,18,0,0,,5,,,77,127
75693,note_off,0,0,0,,1,,,73,127
75695,note_on,2,0,0,,0,,,72,127
75695,note_on,0,0,0,,4,,,76,127
75695,note_on,0,0,0,,11,,,70,127
75695,note_on,0,0,0,,0,,,60,127
75912,note_off,217,0,0,,11,,,70,127
75912,note_off,0,0,0,,4,,,76,127
75914,note_on,2,0,0,,5,,,77,127
75914,note_on,0,0,0,,8,,,68,127
76131,note_off,217,0,0,,8,,,68,127
76131,note_off,0,0,0,,5,,,77,127
76133,note_on,2,0,0,,7,,,79,127
76133,note_on,0,0,0,,7,,,67,127
76346,note_off,213,0,0,,0,,,60,127
76346,note_off,0,0,0,,0,,,72,127
76351,note_off,5,0,0,,7,,,67,127
76351,note_off,0,0,0,,7,,,79,127
76353,note_on,2,0,0,,0,,,72,127
76353,note_on,0,0,0,,8,,,80,127
76353,note_on,0,0,0,,0,,,60,127
76353,note_on,0,0,0,,5,,,65,127
76570,note_off,217,0,0,,8,,,80,127
76572,note_on,2,0,0,,0,,,84,127
76787,note_off,215,0,0,,0,,,72,127
76789,note_off,2,0,0,,0,,,84,127
76796,note_on,7,0,0,,5,,,77,127
76796,note_on,0,0,0,,1,,,73,127
77009,note_off,213,0,0,,5,,,65,127
77009,note_off,0,0,0,,0,,,60,127
77014,note_off,5,0,0,,1,,,73,127
77014,note_off,0,0,0,,5,,,77,127
77016,note_on,2,0,0,,0,,,60,127
77016,note_on,0,0,0,,11,,,70,127
77016,note_on,0,0,0,,4,,,76,127
77016,note_on,0,0,0,,0,,,72,127
77233,note_off,217,0,0,,4,,,76,127
77233,note_off,0,0,0,,11,,,70,127
77235,note_on,2,0,0,,8,,,68,127
77235,note_on,0,0,0,,5,,,77,127
77452,note_off,217,0,0,,5,,,77,127
77452,note_off,0,0,0,,8,,,68,127
77454,note_on,2,0,0,,7,,,67,127
77454,note_on,0,0,0,,7,,,79,127
77667,note_off,213,0,0,,0,,,72,127
77667,note_off,0,0,0,,0,,,60,127
77672,note_off,5,0,0,,7,,,79,127
77672,note_off,0,0,0,,7,,,67,127
77674,note_on,2,0,0,,0,,,60,127
77674,note_on,0,0,0,,5,,,65,127
77674,note_on,0,0,0,,8,,,80,127
77891,note_off,217,0,0,,8,,,80,127
77893,note_on,2,0,0,,0,,,84,127
78108,note_off,215,0,0,,5,,,65,127
78122,note_off,14,0,0,,0,,,84,127
78122,note_on,0,0,0,,3,,,75,127
78122,note_on,0,0,0,,7,,,79,127
78223,note_off,101,0,0,,0,,,60,127
78340,note_off,117,0,0,,7,,,79,127
78340,note_off,0,0,0,,3,,,75,127
78342,note_on,2,0,0,,2,,,62,127
78342,note_on,0,0,0,,0,,,72,127
78342,note_on,0,0,0,,2,,,74,127
78342,note_on,0,0,0,,6,,,78,127
78559,note_off,217,0,0,,6,,,78,127
78559,note_off,0,0,0,,0,,,72,127
78561,note_on,2,0,0,,11,,,70,127
78561,note_on,0,0,0,,7,,,79,127
78778,note_off,217,0,0,,7,,,79,127
78778,note_off,0,0,0,,11,,,70,127
78780,note_on,2,0,0,,10,,,69,127
78780,note_on,0,0,0,,10,,,81,127
78993,note_off,213,0,0,,2,,,74,127
78993,note_off,0,0,0,,2,,,62,127
78998,note_off,5,0,0,,10,,,81,127
78998,note_off,0,0,0,,10,,,69,127
79000,note_on,2,0,0,,2,,,62,127
79000,note_on,0,0,0,,7,,,67,127
79000,note_on,0,0,0,,2,,,74,127
79000,note_on,0,0,0,,11,,,82,127
79217,note_off,217,0,0,,11,,,82,127
79219,note_on,2,0,0,,2,,,86,127
79434,note_off,215,0,0,,2,,,74,127
79436,note_off,2,0,0,,2,,,86,127
79445,note_on,9,0,0,,3,,,75,127
79445,note_on,0,0,0,,7,,,79,127
79655,note_off,210,0,0,,7,,,67,127
79655,note_off,0,0,0,,2,,,62,127
79662,note_off,7,0,0,,7,,,79,127
79662,note_off,0,0,0,,3,,,75,127
79664,note_on,2,0,0,,2,,,74,127
79664,note_on,0,0,0,,6,,,78,127
79664,note_on,0,0,0,,0,,,72,127
79664,note_on,0,0,0,,2,,,62,127
79881,note_off,217,0,0,,0,,,72,127
79881,note_off,0,0,0,,6,,,78,127
79883,note_on,2,0,0,,7,,,79,127
79883,note_on,0,0,0,,11,,,70,127
80100,note_off,217,0,0,,11,,,70,127
80100,note_off,0,0,0,,7,,,79,127
80102,note_on,2,0,0,,10,,,81,127
80102,note_on,0,0,0,,10,,,69,127
80308,note_off,206,0,0,,10,,,69,127
80308,note_off,0,0,0,,10,,,81,127
80309,note_off,1,0,0,,2,,,62,127
80309,note_off,0,0,0,,2,,,74,127
80331,note_on,22,0,0,,12,,,83,127
80331,note_on,0,0,0,,7,,,67,127
80548,note_off,217,0,0,,7,,,67,127
80548,note_off,0,0,0,,12,,,83,127
80550,note_on,2,0,0,,0,,,84,127
80550,note_on,0,0,0,,5,,,65,127
80767,note_off,217,0,0,,5,,,65,127
80767,note_off,0,0,0,,0,,,84,127
80769,note_on,2,0,0,,7,,,79,127
80769,note_on,0,0,0,,4,,,64,127
80986,note_off,217,0,0,,4,,,64,127
80986,note_off,0,0,0,,7,,,79,127
80988,note_on,2,0,0,,5,,,77,127
80988,note_on,0,0,0,,2,,,62,127
81205,note_off,217,0,0,,2,,,62,127
81205,note_off,0,0,0,,5,,,77,127
81207,note_on,2,0,0,,4,,,76,127
81207,note_on,0,0,0,,0,,,60,127
81424,note_off,217,0,0,,0,,,60,127
81424,note_off,0,0,0,,4,,,76,127
81426,note_on,2,0,0,,2,,,74,127
81426,note_on,0,0,0,,12,,,59,127
81643,note_off,217,0,0,,12,,,59,127
81643,note_off,0,0,0,,2,,,74,127
81645,note_on,2,0,0,,5,,,77,127
81645,note_on,0,0,0,,0,,,60,127
81716,note_off,71,0,0,,5,,,77,127
81718,note_on,2,0,0,,4,,,76,127
81789,note_off,71,0,0,,4,,,76,127
81791,note_on,2,0,0,,2,,,74,127
81862,note_off,71,0,0,,2,,,74,127
81864,note_on,2,0,0,,4,,,76,127
81971,note_off,107,0,0,,4,,,76,127
81978,note_on,7,0,0,,5,,,77,127
82085,note_off,107,0,0,,5,,,77,127
82094,note_on,9,0,0,,7,,,79,127
82310,note_off,216,0,0,,0,,,60,127
82348,note_on,38,0,0,,0,,,48,127
82348,note_on,0,0,0,,2,,,74,127
82348,note_on,0,0,0,,0,,,72,127
82350,note_off,2,0,0,,7,,,79,127
82419,note_off,69,0,0,,0,,,72,127
82419,note_off,0,0,0,,2,,,74,127
82421,note_on,2,0,0,,12,,,71,127
82492,note_off,71,0,0,,12,,,71,127
82494,note_on,2,0,0,,0,,,72,127
82565,note_off,71,0,0,,0,,,48,127
82567,note_on,2,0,0,,7,,,67,127
82567,note_on,0,0,0,,4,,,76,127
82711,note_off,144,0,0,,0,,,72,127
82784,note_off,73,0,0,,4,,,76,127
82784,note_off,0,0,0,,7,,,67,127
82786,note_on,2,0,0,,10,,,69,127
82786,note_on,0,0,0,,5,,,77,127
83003,note_off,217,0,0,,5,,,77,127
83003,note_off,0,0,0,,10,,,69,127
83005,note_on,2,0,0,,0,,,48,127
83005,note_on,0,0,0,,2,,,74,127
83005,note_on,0,0,0,,0,,,72,127
83076,note_off,71,0,0,,0,,,72,127
83076,note_off,0,0,0,,2,,,74,127
83078,note_on,2,0,0,,12,,,71,127
83149,note_off,71,0,0,,12,,,71,127
83151,note_on,2,0,0,,0,,,72,127
83222,note_off,71,0,0,,0,,,48,127
83224,note_on,2,0,0,,4,,,64,127
83224,note_on,0,0,0,,7,,,79,127
83368,note_off,144,0,0,,0,,,72,127
83441,note_off,73,0,0,,7,,,79,127
83441,note_off,0,0,0,,4,,,64,127
83443,note_on,2,0,0,,5,,,65,127
83443,note_on,0,0,0,,10,,,81,127
83660,note_off,217,0,0,,10,,,81,127
83660,note_off,0,0,0,,5,,,65,127
83662,note_on,2,0,0,,0,,,48,127
83662,note_on,0,0,0,,2,,,74,127
83662,note_on,0,0,0,,0,,,72,127
83733,note_off,71,0,0,,0,,,72,127
83733,note_off,0,0,0,,2,,,74,127
83735,note_on,2,0,0,,12,,,71,127
83806,note_off,71,0,0,,12,,,71,127
83808,note_on,2,0,0,,0,,,72,127
83879,note_off,71,0,0,,0,,,48,127
83881,note_on,2,0,0,,7,,,67,127
83881,note_on,0,0,0,,4,,,76,127
84025,note_off,144,0,0,,0,,,72,127
84098,note_off,73,0,0,,4,,,76,127
84098,note_off,0,0,0,,7,,,67,127
84100,note_on,2,0,0,,10,,,69,127
84100,note_on,0,0,0,,5,,,77,127
84317,note_off,217,0,0,,5,,,77,127
84317,note_off,0,0,0,,10,,,69,127
84319,note_on,2,0,0,,0,,,48,127
84319,note_on,0,0,0,,0,,,72,127
84319,note_on,0,0,0,,2,,,74,127
84390,note_off,71,0,0,,2,,,74,127
84390,note_off,0,0,0,,0,,,72,127
84392,note_on,2,0,0,,12,,,71,127
84463,note_off,71,0,0,,12,,,71,127
84465,note_on,2,0,0,,0,,,72,127
84536,note_off,71,0,0,,0,,,48,127
84538,note_on,2,0,0,,4,,,64,127
84538,note_on,0,0,0,,7,,,79,127
84682,note_off,144,0,0,,0,,,72,127
84755,note_off,73,0,0,,7,,,79,127
84755,note_off,0,0,0,,4,,,64,127
84757,note_on,2,0,0,,5,,,65,127
84757,note_on,0,0,0,,10,,,81,127
84963,note_off,206,0,0,,10,,,81,127
84963,note_off,0,0,0,,5,,,65,127
84981,note_on,18,0,0,,7,,,79,127
84981,note_on,0,0,0,,7,,,55,127
85198,note_off,217,0,0,,7,,,55,127
85200,note_on,2,0,0,,12,,,71,127
85200,note_on,0,0,0,,5,,,53,127
85278,note_off,78,0,0,,7,,,79,127
85417,note_off,139,0,0,,5,,,53,127
85417,note_off,0,0,0,,12,,,71,127
85419,note_on,2,0,0,,0,,,72,127
85419,note_on,0,0,0,,4,,,52,127
85636,note_off,217,0,0,,4,,,52,127
85636,note_off,0,0,0,,0,,,72,127
85638,note_on,2,0,0,,7,,,79,127
85638,note_on,0,0,0,,5,,,77,127
85638,note_on,0,0,0,,5,,,53,127
85709,note_off,71,0,0,,5,,,77,127
85709,note_off,0,0,0,,7,,,79,127
85711,note_on,2,0,0,,4,,,76,127
85782,note_off,71,0,0,,4,,,76,127
85784,note_on,2,0,0,,2,,,74,127
85855,note_off,71,0,0,,2,,,74,127
85855,note_off,0,0,0,,5,,,53,127
85857,note_on,2,0,0,,4,,,76,127
85857,note_on,0,0,0,,0,,,72,127
85857,note_on,0,0,0,,7,,,55,127
86074,note_off,217,0,0,,0,,,72,127
86074,note_off,0,0,0,,4,,,76,127
86076,note_on,2,0,0,,2,,,74,127
86076,note_on,0,0,0,,12,,,71,127
86076,note_on,0,0,0,,7,,,43,127
86291,note_off,215,0,0,,7,,,55,127
86293,note_off,2,0,0,,7,,,43,127
86293,note_off,0,0,0,,12,,,71,127
86293,note_off,0,0,0,,2,,,74,127
86314,note_on,21,0,0,,0,,,36,127
86314,note_on,0,0,0,,2,,,74,127
86314,note_on,0,0,0,,0,,,72,127
86385,note_off,71,0,0,,0,,,72,127
86385,note_off,0,0,0,,2,,,74,127
86387,note_on,2,0,0,,12,,,71,127
86458,note_off,71,0,0,,12,,,71,127
86460,note_on,2,0,0,,0,,,72,127
86531,note_off,71,0,0,,0,,,36,127
86533,note_on,2,0,0,,7,,,67,127
86533,note_on,0,0,0,,4,,,76,127
86711,note_off,178,0,0,,0,,,72,127
86750,note_off,39,0,0,,4,,,76,127
86750,note_off,0,0,0,,7,,,67,127
86752,note_on,2,0,0,,10,,,69,127
86752,note_on,0,0,0,,5,,,77,127
86969,note_off,217,0,0,,5,,,77,127
86969,note_off,0,0,0,,10,,,69,127
86971,note_on,2,0,0,,0,,,36,127
86971,note_on,0,0,0,,2,,,74,127
86971,note_on,0,0,0,,0,,,72,127
87042,note_off,71,0,0,,0,,,72,127
87042,note_off,0,0,0,,2,,,74,127
87044,note_on,2,0,0,,12,,,71,127
87115,note_off,71,0,0,,12,,,71,127
87117,note_on,2,0,0,,0,,,72,127
87188,note_off,71,0,0,,0,,,36,127
87190,note_on,2,0,0,,4,,,64,127
87190,note_on,0,0,0,,7,,,79,127
87368,note_off,178,0,0,,0,,,72,127
87407,note_off,39,0,0,,7,,,79,127
87407,note_off,0,0,0,,4,,,64,127
87409,note_on,2,0,0,,5,,,65,127
87409,note_on,0,0,0,,10,,,81,127
87626,note_off,217,0,0,,10,,,81,127
87626,note_off,0,0,0,,5,,,65,127
87628,note_on,2,0,0,,0,,,36,127
87628,note_on,0,0,0,,0,,,72,127
87628,note_on,0,0,0,,2,,,74,127
87699,note_off,71,0,0,,2,,,74,127
87699,note_off,0,0,0,,0,,,72,127
87701,note_on,2,0,0,,12,,,71,127
87772,note_off,71,0,0,,12,,,71,127
87774,note_on,2,0,0,,0,,,72,127
87845,note_off,71,0,0,,0,,,36,127
87847,note_on,2,0,0,,7,,,67,127
87847,note_on,0,0,0,,4,,,76,127
88025,note_off,178,0,0,,0,,,72,127
88064,note_off,39,0,0,,4,,,76,127
88064,note_off,0,0,0,,7,,,67,127
88066,note_on,2,0,0,,10,,,69,127
88066,note_on,0,0,0,,5,,,77,127
88283,note_off,217,0,0,,5,,,77,127
88283,note_off,0,0,0,,10,,,69,127
88285,note_on,2,0,0,,0,,,36,127
88285,note_on,0,0,0,,0,,,72,127
88285,note_on,0,0,0,,2,,,74,127
88356,note_off,71,0,0,,2,,,74,127
88356,note_off,0,0,0,,0,,,72,127
88358,note_on,2,0,0,,12,,,71,127
88429,note_off,71,0,0,,12,,,71,127
88431,note_on,2,0,0,,0,,,72,127
88502,note_off,71,0,0,,0,,,36,127
88504,note_on,2,0,0,,4,,,64,127
88504,note_on,0,0,0,,7,,,79,127
88682,note_off,178,0,0,,0,,,72,127
88721,note_off,39,0,0,,7,,,79,127
88721,note_off,0,0,0,,4,,,64,127
88723,note_on,2,0,0,,5,,,65,127
88723,note_on,0,0,0,,10,,,81,127
88929,note_off,206,0,0,,10,,,81,127
88929,note_off,0,0,0,,5,,,65,127
88947,note_on,18,0,0,,7,,,79,127
88947,note_on,0,0,0,,7,,,43,127
89164,note_off,217,0,0,,7,,,43,127
89164,note_off,0,0,0,,7,,,79,127
89166,note_on,2,0,0,,12,,,71,127
89166,note_on,0,0,0,,5,,,41,127
89383,note_off,217,0,0,,5,,,41,127
89383,note_off,0,0,0,,12,,,71,127
89385,note_on,2,0,0,,0,,,72,127
89385,note_on,0,0,0,,4,,,40,127
89602,note_off,217,0,0,,4,,,40,127
89602,note_off,0,0,0,,0,,,72,127
89604,note_on,2,0,0,,7,,,79,127
89604,note_on,0,0,0,,5,,,77,127
89604,note_on,0,0,0,,5,,,41,127
89675,note_off,71,0,0,,5,,,77,127
89675,note_off,0,0,0,,7,,,79,127
89677,note_on,2,0,0,,4,,,76,127
89748,note_off,71,0,0,,4,,,76,127
89750,note_on,2,0,0,,2,,,74,127
89821,note_off,71,0,0,,2,,,74,127
89821,note_off,0,0,0,,5,,,41,127
89823,note_on,2,0,0,,4,,,76,127
89823,note_on,0,0,0,,0,,,72,127
89823,note_on,0,0,0,,7,,,43,127
90040,note_off,217,0,0,,0,,,72,127
90040,note_off,0,0,0,,4,,,76,127
90042,note_on,2,0,0,,2,,,74,127
90042,note_on,0,0,0,,12,,,71,127
90259,note_off,217,0,0,,12,,,71,127
90259,note_off,0,0,0,,2,,,74,127
90291,note_off,32,0,0,,7,,,43,127
90298,note_on,7,0,0,,0,,,84,127
90298,note_on,0,0,0,,0,,,48,127
90369,note_off,71,0,0,,0,,,84,127
90371,note_on,2,0,0,,12,,,83,127
90442,note_off,71,0,0,,12,,,83,127
90444,note_on,2,0,0,,10,,,81,127
90515,note_off,71,0,0,,10,,,81,127
90515,note_off,0,0,0,,0,,,48,127
90517,note_on,2,0,0,,10,,,81,127
90517,note_on,0,0,0,,2,,,50,127
90588,note_off,71,0,0,,10,,,81,127
90590,note_on,2,0,0,,7,,,79,127
90661,note_off,71,0,0,,7,,,79,127
90663,note_on,2,0,0,,10,,,81,127
90734,note_off,71,0,0,,10,,,81,127
90734,note_off,0,0,0,,2,,,50,127
90736,note_on,2,0,0,,7,,,79,127
90736,note_on,0,0,0,,4,,,52,127
90942,note_off,206,0,0,,7,,,79,127
90953,note_off,11,0,0,,4,,,52,127
90960,note_on,7,0,0,,5,,,53,127
90960,note_on,0,0,0,,5,,,77,127
91031,note_off,71,0,0,,5,,,77,127
91033,note_on,2,0,0,,7,,,79,127
91104,note_off,71,0,0,,7,,,79,127
91106,note_on,2,0,0,,4,,,76,127
91177,note_off,71,0,0,,4,,,76,127
91177,note_off,0,0,0,,5,,,53,127
91179,note_on,2,0,0,,7,,,55,127
91179,note_on,0,0,0,,4,,,76,127
91250,note_off,71,0,0,,4,,,76,127
91252,note_on,2,0,0,,2,,,74,127
91323,note_off,71,0,0,,2,,,74,127
91325,note_on,2,0,0,,4,,,76,127
91396,note_off,71,0,0,,4,,,76,127
91398,note_on,2,0,0,,7,,,43,127
91398,note_on,0,0,0,,2,,,74,127
91604,note_off,206,0,0,,2,,,74,127
91613,note_off,9,0,0,,7,,,55,127
91615,note_off,2,0,0,,7,,,43,127
91622,note_on,7,0,0,,4,,,76,127
91622,note_on,0,0,0,,0,,,48,127
91693,note_off,71,0,0,,4,,,76,127
91695,note_on,2,0,0,,5,,,77,127
91766,note_off,71,0,0,,5,,,77,127
91768,note_on,2,0,0,,2,,,74,127
91839,note_off,71,0,0,,2,,,74,127
91839,note_off,0,0,0,,0,,,48,127
91841,note_on,2,0,0,,2,,,74,127
91841,note_on,0,0,0,,2,,,50,127
91912,note_off,71,0,0,,2,,,74,127
91914,note_on,2,0,0,,0,,,72,127
91985,note_off,71,0,0,,0,,,72,127
91987,note_on,2,0,0,,2,,,74,127
92058,note_off,71,0,0,,2,,,74,127
92058,note_off,0,0,0,,2,,,50,127
92060,note_on,2,0,0,,0,,,72,127
92060,note_on,0,0,0,,4,,,52,127
92266,note_off,206,0,0,,0,,,72,127
92277,note_off,11,0,0,,4,,,52,127
92286,note_on,9,0,0,,5,,,53,127
92286,note_on,0,0,0,,10,,,69,127
92503,note_off,217,0,0,,10,,,69,127
92503,note_off,0,0,0,,5,,,53,127
92505,note_on,2,0,0,,7,,,55,127
92505,note_on,0,0,0,,0,,,72,127
92576,note_off,71,0,0,,0,,,72,127
92578,note_on,2,0,0,,12,,,71,127
92649,note_off,71,0,0,,12,,,71,127
92651,note_on,2,0,0,,0,,,72,127
92722,note_off,71,0,0,,0,,,72,127
92724,note_on,2,0,0,,7,,,43,127
92724,note_on,0,0,0,,12,,,71,127
92795,note_off,71,0,0,,12,,,71,127
92797,note_on,2,0,0,,10,,,69,127
92868,note_off,71,0,0,,10,,,69,127
92870,note_on,2,0,0,,12,,,71,127
92939,note_off,69,0,0,,7,,,55,127
92941,note_off,2,0,0,,12,,,71,127
92941,note_off,0,0,0,,7,,,43,127
92962,note_on,21,0,0,,0,,,84,127
92962,note_on,0,0,0,,0,,,72,127
92962,note_on,0,0,0,,5,,,53,127
93179,note_off,217,0,0,,5,,,53,127
93179,note_off,0,0,0,,0,,,72,127
93179,note_off,0,0,0,,0,,,84,127
93181,note_on,2,0,0,,12,,,71,127
93181,note_on,0,0,0,,4,,,76,127
93181,note_on,0,0,0,,7,,,55,127
93252,note_off,71,0,0,,4,,,76,127
93254,note_on,2,0,0,,2,,,74,127
93325,note_off,71,0,0,,2,,,74,127
93327,note_on,2,0,0,,4,,,76,127
93398,note_off,71,0,0,,4,,,76,127
93400,note_on,2,0,0,,2,,,74,127
93400,note_on,0,0,0,,7,,,43,127
93471,note_off,71,0,0,,2,,,74,127
93473,note_on,2,0,0,,4,,,76,127
93544,note_off,71,0,0,,4,,,76,127
93546,note_on,2,0,0,,2,,,74,127
93615,note_off,69,0,0,,7,,,55,127
93615,note_off,0,0,0,,12,,,71,127
93617,note_off,2,0,0,,7,,,43,127
93631,note_off,14,0,0,,2,,,74,127
93638,note_on,7,0,0,,5,,,53,127
93638,note_on,0,0,0,,7,,,79,127
93638,note_on,0,0,0,,10,,,69,127
93855,note_off,217,0,0,,10,,,69,127
93855,note_off,0,0,0,,7,,,79,127
93855,note_off,0,0,0,,5,,,53,127
93857,note_on,2,0,0,,7,,,55,127
93857,note_on,0,0,0,,4,,,76,127
93857,note_on,0,0,0,,12,,,71,127
93928,note_off,71,0,0,,4,,,76,127
93930,note_on,2,0,0,,2,,,74,127
94001,note_off,71,0,0,,2,,,74,127
94003,note_on,2,0,0,,4,,,76,127
94074,note_off,71,0,0,,4,,,76,127
94076,note_on,2,0,0,,7,,,43,127
94076,note_on,0,0,0,,2,,,74,127
94147,note_off,71,0,0,,2,,,74,127
94149,note_on,2,0,0,,4,,,76,127
94220,note_off,71,0,0,,4,,,76,127
94222,note_on,2,0,0,,2,,,74,127
94291,note_off,69,0,0,,12,,,71,127
94291,note_off,0,0,0,,7,,,55,127
94293,note_off,2,0,0,,7,,,43,127
94314,note_on,21,0,0,,5,,,53,127
94314,note_on,0,0,0,,10,,,81,127
94314,note_on,0,0,0,,10,,,69,127
94317,note_off,3,0,0,,2,,,74,127
94531,note_off,214,0,0,,10,,,69,127
94531,note_off,0,0,0,,10,,,81,127
94531,note_off,0,0,0,,5,,,53,127
94533,note_on,2,0,0,,7,,,55,127
94533,note_on,0,0,0,,4,,,76,127
94533,note_on,0,0,0,,12,,,71,127
94604,note_off,71,0,0,,4,,,76,127
94606,note_on,2,0,0,,2,,,74,127
94677,note_off,71,0,0,,2,,,74,127
94679,note_on,2,0,0,,4,,,76,127
94750,note_off,71,0,0,,4,,,76,127
94752,note_on,2,0,0,,7,,,43,127
94752,note_on,0,0,0,,2,,,74,127
94823,note_off,71,0,0,,2,,,74,127
94825,note_on,2,0,0,,4,,,76,127
94896,note_off,71,0,0,,4,,,76,127
94898,note_on,2,0,0,,2,,,74,127
94969,note_off,71,0,0,,7,,,43,127
94978,note_off,9,0,0,,12,,,71,127
94989,note_off,11,0,0,,7,,,55,127
95016,note_off,27,0,0,,2,,,74,127
95016,note_on,0,0,0,,5,,,77,127
95016,note_on,0,0,0,,5,,,53,127
95233,note_off,217,0,0,,5,,,53,127
95233,note_off,0,0,0,,5,,,77,127
95235,note_on,2,0,0,,4,,,76,127
95235,note_on,0,0,0,,7,,,55,127
95342,note_off,107,0,0,,4,,,76,127
95344,note_on,2,0,0,,2,,,74,127
95451,note_off,107,0,0,,2,,,74,127
95451,note_off,0,0,0,,7,,,55,127
95459,note_on,8,0,0,,5,,,53,127
95459,note_on,0,0,0,,5,,,77,127
95676,note_off,217,0,0,,5,,,77,127
95676,note_off,0,0,0,,5,,,53,127
95678,note_on,2,0,0,,7,,,55,127
95678,note_on,0,0,0,,4,,,76,127
95785,note_off,107,0,0,,4,,,76,127
95787,note_on,2,0,0,,2,,,74,127
95894,note_off,107,0,0,,2,,,74,127
95894,note_off,0,0,0,,7,,,55,127
95896,note_on,2,0,0,,5,,,53,127
95896,note_on,0,0,0,,5,,,77,127
96113,note_off,217,0,0,,5,,,77,127
96113,note_off,0,0,0,,5,,,53,127
96120,note_on,7,0,0,,4,,,76,127
96120,note_on,0,0,0,,7,,,55,127
96227,note_off,107,0,0,,4,,,76,127
96229,note_on,2,0,0,,2,,,74,127
96336,note_off,107,0,0,,2,,,74,127
96336,note_off,0,0,0,,7,,,55,127
96343,note_on,7,0,0,,5,,,77,127
96343,note_on,0,0,0,,5,,,53,127
96589,note_off,246,0,0,,5,,,53,127
96589,note_off,0,0,0,,5,,,77,127
96596,note_on,7,0,0,,4,,,76,127
96596,note_on,0,0,0,,7,,,55,127
96668,note_off,72,0,0,,4,,,76,127
96673,note_on,5,0,0,,2,,,74,127
96745,note_off,72,0,0,,2,,,74,127
96748,note_on,3,0,0,,4,,,76,127
96820,note_off,72,0,0,,4,,,76,127
96825,note_on,5,0,0,,2,,,74,127
96825,note_on,0,0,0,,7,,,43,127
96897,note_off,72,0,0,,2,,,74,127
96903,note_on,6,0,0,,0,,,72,127
96975,note_off,72,0,0,,0,,,72,127
96984,note_on,9,0,0,,2,,,74,127
97055,note_off,71,0,0,,7,,,55,127
97056,note_off,1,0,0,,2,,,74,127
97058,note_off,2,0,0,,7,,,43,127
97072,note_on,14,0,0,,0,,,36,127
97072,note_on,0,0,0,,0,,,48,127
97072,note_on,0,0,0,,0,,,72,127
98720,note_off,1648,0,0,,0,,,72,127
98720,note_off,0,0,0,,0,,,48,127
98720,note_off,0,0,0,,0,,,36,127
102912,end_of_track,4192,1,0,,,,,,
