tick,type,time,meta,track,program,channel,pitch,tempo,note,velocity
0,copyright,0,1,0,,,,,,
0,program_change,0,0,0,6,0,,,,
0,pitchwheel,0,0,0,,0,0,,,
0,program_change,0,0,0,6,1,,,,
0,pitchwheel,0,0,0,,1,-590,,,
0,program_change,0,0,0,6,2,,,,
0,pitchwheel,0,0,0,,2,-272,,,
0,program_change,0,0,0,6,3,,,,
0,pitchwheel,0,0,0,,3,-353,,,
0,program_change,0,0,0,6,4,,,,
0,pitchwheel,0,0,0,,4,-560,,,
0,program_change,0,0,0,6,5,,,,
0,pitchwheel,0,0,0,,5,-80,,,
0,program_change,0,0,0,6,6,,,,
0,pitchwheel,0,0,0,,6,-625,,,
0,program_change,0,0,0,6,7,,,,
0,pitchwheel,0,0,0,,7,-130,,,
0,program_change,0,0,0,6,8,,,,
0,pitchwheel,0,0,0,,8,-512,,,
0,program_change,0,0,0,6,10,,,,
0,pitchwheel,0,0,0,,10,-464,,,
0,program_change,0,0,0,6,11,,,,
0,pitchwheel,0,0,0,,11,-208,,,
0,program_change,0,0,0,6,12,,,,
0,pitchwheel,0,0,0,,12,-553,,,
0,set_tempo,0,1,0,,,,500000,,
169,note_on,169,0,0,,4,,,40,127
169,note_on,0,0,0,,4,,,52,127
508,note_on,339,0,0,,12,,,83,127
845,note_off,337,0,0,,12,,,83,127
847,note_on,2,0,0,,7,,,79,127
1184,note_off,337,0,0,,7,,,79,127
1184,note_off,0,0,0,,4,,,52,127
1184,note_off,0,0,0,,4,,,40,127
1186,note_on,2,0,0,,4,,,76,127
1523,note_off,337,0,0,,4,,,76,127
1525,note_on,2,0,0,,12,,,71,127
1862,note_off,337,0,0,,12,,,71,127
1864,note_on,2,0,0,,7,,,67,127
2201,note_off,337,0,0,,7,,,67,127
2203,note_on,2,0,0,,4,,,64,127
2372,note_on,169,0,0,,12,,,83,127
2538,note_off,166,0,0,,4,,,64,127
2540,note_off,2,0,0,,12,,,83,127
2542,note_on,2,0,0,,10,,,81,127
2710,note_off,168,0,0,,10,,,81,127
2712,note_on,2,0,0,,8,,,80,127
2880,note_off,168,0,0,,8,,,80,127
2882,note_on,2,0,0,,8,,,80,127
3219,note_off,337,0,0,,8,,,80,127
3221,note_on,2,0,0,,0,,,72,127
3221,note_on,0,0,0,,10,,,81,127
3389,note_off,168,0,0,,0,,,72,127
3391,note_on,2,0,0,,12,,,71,127
3559,note_off,168,0,0,,12,,,71,127
3561,note_on,2,0,0,,10,,,69,127
3729,note_off,168,0,0,,10,,,69,127
3731,note_on,2,0,0,,7,,,67,127
3858,note_off,127,0,0,,10,,,81,127
3899,note_off,41,0,0,,7,,,67,127
3901,note_on,2,0,0,,6,,,66,127
3901,note_on,0,0,0,,6,,,78,127
4069,note_off,168,0,0,,6,,,66,127
4071,note_on,2,0,0,,4,,,64,127
4239,note_off,168,0,0,,4,,,64,127
4239,note_off,0,0,0,,6,,,78,127
4241,note_on,2,0,0,,3,,,63,127
4241,note_on,0,0,0,,6,,,78,127
4324,note_off,83,0,0,,6,,,78,127
4326,note_on,2,0,0,,7,,,79,127
4409,note_off,83,0,0,,7,,,79,127
4411,note_on,2,0,0,,10,,,81,127
4579,note_off,168,0,0,,3,,,63,127
4581,note_on,2,0,0,,0,,,72,127
4749,note_off,168,0,0,,0,,,72,127
4751,note_on,2,0,0,,12,,,71,127
4919,note_off,168,0,0,,12,,,71,127
4921,note_on,2,0,0,,10,,,69,127
5089,note_off,168,0,0,,10,,,69,127
5091,note_on,2,0,0,,7,,,67,127
5190,note_off,99,0,0,,10,,,81,127
5259,note_off,69,0,0,,7,,,67,127
5261,note_on,2,0,0,,6,,,66,127
5261,note_on,0,0,0,,6,,,78,127
5429,note_off,168,0,0,,6,,,66,127
5431,note_on,2,0,0,,4,,,64,127
5599,note_off,168,0,0,,4,,,64,127
5599,note_off,0,0,0,,6,,,78,127
5601,note_on,2,0,0,,3,,,63,127
5601,note_on,0,0,0,,6,,,78,127
5684,note_off,83,0,0,,6,,,78,127
5686,note_on,2,0,0,,7,,,79,127
5769,note_off,83,0,0,,7,,,79,127
5771,note_on,2,0,0,,10,,,81,127
5939,note_off,168,0,0,,3,,,63,127
5941,note_on,2,0,0,,10,,,69,127
6109,note_off,168,0,0,,10,,,69,127
6111,note_on,2,0,0,,7,,,67,127
6279,note_off,168,0,0,,7,,,67,127
6281,note_on,2,0,0,,6,,,66,127
6449,note_off,168,0,0,,6,,,66,127
6451,note_on,2,0,0,,4,,,64,127
6550,note_off,99,0,0,,10,,,81,127
6619,note_off,69,0,0,,4,,,64,127
6621,note_on,2,0,0,,3,,,63,127
6621,note_on,0,0,0,,6,,,78,127
6789,note_off,168,0,0,,3,,,63,127
6791,note_on,2,0,0,,1,,,61,127
6959,note_off,168,0,0,,1,,,61,127
6959,note_off,0,0,0,,6,,,78,127
6961,note_on,2,0,0,,12,,,59,127
6961,note_on,0,0,0,,6,,,78,127
7044,note_off,83,0,0,,6,,,78,127
7046,note_on,2,0,0,,7,,,79,127
7129,note_off,83,0,0,,7,,,79,127
7131,note_on,2,0,0,,10,,,81,127
7299,note_off,168,0,0,,12,,,59,127
7301,note_on,2,0,0,,10,,,69,127
7469,note_off,168,0,0,,10,,,69,127
7471,note_on,2,0,0,,7,,,67,127
7639,note_off,168,0,0,,7,,,67,127
7641,note_on,2,0,0,,6,,,66,127
7809,note_off,168,0,0,,6,,,66,127
7811,note_on,2,0,0,,4,,,64,127
7910,note_off,99,0,0,,10,,,81,127
7979,note_off,69,0,0,,4,,,64,127
7981,note_on,2,0,0,,3,,,63,127
7981,note_on,0,0,0,,6,,,78,127
8149,note_off,168,0,0,,3,,,63,127
8151,note_on,2,0,0,,1,,,61,127
8319,note_off,168,0,0,,1,,,61,127
8319,note_off,0,0,0,,6,,,78,127
8321,note_on,2,0,0,,12,,,59,127
8321,note_on,0,0,0,,10,,,81,127
8489,note_off,168,0,0,,10,,,81,127
8491,note_on,2,0,0,,7,,,79,127
8659,note_off,168,0,0,,7,,,79,127
8661,note_on,2,0,0,,7,,,79,127
8829,note_off,168,0,0,,7,,,79,127
8831,note_on,2,0,0,,6,,,78,127
8999,note_off,168,0,0,,6,,,78,127
9001,note_on,2,0,0,,12,,,47,127
9001,note_on,0,0,0,,6,,,78,127
9169,note_off,168,0,0,,6,,,78,127
9171,note_on,2,0,0,,4,,,76,127
9339,note_off,168,0,0,,4,,,76,127
9341,note_on,2,0,0,,4,,,76,127
9509,note_off,168,0,0,,4,,,76,127
9511,note_on,2,0,0,,6,,,78,127
9679,note_off,168,0,0,,6,,,78,127
9679,note_off,0,0,0,,12,,,47,127
9679,note_off,0,0,0,,12,,,59,127
9681,note_on,2,0,0,,4,,,52,127
9681,note_on,0,0,0,,7,,,79,127
10018,note_off,337,0,0,,7,,,79,127
10018,note_off,0,0,0,,4,,,52,127
10020,note_on,2,0,0,,4,,,64,127
10020,note_on,0,0,0,,7,,,67,127
10188,note_off,168,0,0,,4,,,64,127
10190,note_on,2,0,0,,2,,,62,127
10358,note_off,168,0,0,,2,,,62,127
10360,note_on,2,0,0,,0,,,60,127
10528,note_off,168,0,0,,0,,,60,127
10530,note_on,2,0,0,,12,,,59,127
10698,note_off,168,0,0,,12,,,59,127
10698,note_off,0,0,0,,7,,,67,127
10700,note_on,2,0,0,,10,,,57,127
10700,note_on,0,0,0,,10,,,69,127
10868,note_off,168,0,0,,10,,,57,127
10870,note_on,2,0,0,,7,,,55,127
11038,note_off,168,0,0,,7,,,55,127
11038,note_off,0,0,0,,10,,,69,127
11040,note_on,2,0,0,,6,,,54,127
11040,note_on,0,0,0,,10,,,69,127
11123,note_off,83,0,0,,10,,,69,127
11125,note_on,2,0,0,,12,,,71,127
11208,note_off,83,0,0,,12,,,71,127
11210,note_on,2,0,0,,0,,,72,127
11378,note_off,168,0,0,,6,,,54,127
11380,note_on,2,0,0,,4,,,64,127
11548,note_off,168,0,0,,4,,,64,127
11550,note_on,2,0,0,,2,,,62,127
11718,note_off,168,0,0,,2,,,62,127
11720,note_on,2,0,0,,0,,,60,127
11888,note_off,168,0,0,,0,,,60,127
11890,note_on,2,0,0,,12,,,59,127
12024,note_off,134,0,0,,0,,,72,127
12058,note_off,34,0,0,,12,,,59,127
12060,note_on,2,0,0,,10,,,57,127
12060,note_on,0,0,0,,10,,,69,127
12228,note_off,168,0,0,,10,,,57,127
12230,note_on,2,0,0,,7,,,55,127
12398,note_off,168,0,0,,7,,,55,127
12398,note_off,0,0,0,,10,,,69,127
12400,note_on,2,0,0,,6,,,54,127
12400,note_on,0,0,0,,10,,,69,127
12483,note_off,83,0,0,,10,,,69,127
12485,note_on,2,0,0,,12,,,71,127
12568,note_off,83,0,0,,12,,,71,127
12570,note_on,2,0,0,,0,,,72,127
12738,note_off,168,0,0,,6,,,54,127
12740,note_on,2,0,0,,0,,,60,127
12908,note_off,168,0,0,,0,,,60,127
12910,note_on,2,0,0,,12,,,59,127
13078,note_off,168,0,0,,12,,,59,127
13080,note_on,2,0,0,,10,,,57,127
13248,note_off,168,0,0,,10,,,57,127
13250,note_on,2,0,0,,7,,,55,127
13366,note_off,116,0,0,,0,,,72,127
13417,note_off,51,0,0,,7,,,55,127
13419,note_on,2,0,0,,6,,,54,127
13419,note_on,0,0,0,,10,,,69,127
13587,note_off,168,0,0,,6,,,54,127
13589,note_on,2,0,0,,4,,,52,127
13757,note_off,168,0,0,,4,,,52,127
13757,note_off,0,0,0,,10,,,69,127
13759,note_on,2,0,0,,2,,,50,127
13759,note_on,0,0,0,,4,,,76,127
13927,note_off,168,0,0,,4,,,76,127
13929,note_on,2,0,0,,2,,,74,127
14097,note_off,168,0,0,,2,,,74,127
14099,note_on,2,0,0,,2,,,74,127
14267,note_off,168,0,0,,2,,,74,127
14269,note_on,2,0,0,,0,,,72,127
14437,note_off,168,0,0,,0,,,72,127
14439,note_on,2,0,0,,2,,,38,127
14439,note_on,0,0,0,,0,,,72,127
14607,note_off,168,0,0,,0,,,72,127
14609,note_on,2,0,0,,12,,,71,127
14777,note_off,168,0,0,,12,,,71,127
14779,note_on,2,0,0,,12,,,71,127
14947,note_off,168,0,0,,12,,,71,127
14949,note_on,2,0,0,,10,,,69,127
15117,note_off,168,0,0,,10,,,69,127
15117,note_off,0,0,0,,2,,,38,127
15117,note_off,0,0,0,,2,,,50,127
15119,note_on,2,0,0,,12,,,71,127
15288,note_on,169,0,0,,7,,,55,127
15456,note_off,168,0,0,,7,,,55,127
15458,note_on,2,0,0,,12,,,59,127
15626,note_off,168,0,0,,12,,,59,127
15628,note_on,2,0,0,,2,,,62,127
15796,note_off,168,0,0,,2,,,62,127
15798,note_on,2,0,0,,7,,,67,127
15966,note_off,168,0,0,,12,,,71,127
15968,note_on,2,0,0,,7,,,79,127
16136,note_off,168,0,0,,7,,,79,127
16138,note_on,2,0,0,,2,,,74,127
16306,note_off,168,0,0,,2,,,74,127
16308,note_on,2,0,0,,12,,,71,127
16476,note_off,168,0,0,,12,,,71,127
16476,note_off,0,0,0,,7,,,67,127
16478,note_on,2,0,0,,12,,,71,127
16647,note_on,169,0,0,,10,,,57,127
16815,note_off,168,0,0,,10,,,57,127
16815,note_off,0,0,0,,12,,,71,127
16817,note_on,2,0,0,,0,,,60,127
16817,note_on,0,0,0,,0,,,72,127
16985,note_off,168,0,0,,0,,,60,127
16987,note_on,2,0,0,,6,,,66,127
17155,note_off,168,0,0,,6,,,66,127
17157,note_on,2,0,0,,10,,,69,127
17325,note_off,168,0,0,,0,,,72,127
17327,note_on,2,0,0,,10,,,81,127
17495,note_off,168,0,0,,10,,,81,127
17497,note_on,2,0,0,,6,,,78,127
17665,note_off,168,0,0,,6,,,78,127
17667,note_on,2,0,0,,0,,,72,127
17835,note_off,168,0,0,,0,,,72,127
17835,note_off,0,0,0,,10,,,69,127
17837,note_on,2,0,0,,0,,,72,127
18006,note_on,169,0,0,,12,,,59,127
18174,note_off,168,0,0,,12,,,59,127
18174,note_off,0,0,0,,0,,,72,127
18176,note_on,2,0,0,,2,,,62,127
18176,note_on,0,0,0,,2,,,74,127
18344,note_off,168,0,0,,2,,,62,127
18346,note_on,2,0,0,,7,,,67,127
18514,note_off,168,0,0,,7,,,67,127
18516,note_on,2,0,0,,12,,,71,127
18684,note_off,168,0,0,,2,,,74,127
18686,note_on,2,0,0,,12,,,83,127
18854,note_off,168,0,0,,12,,,83,127
18856,note_on,2,0,0,,7,,,79,127
19024,note_off,168,0,0,,7,,,79,127
19026,note_on,2,0,0,,2,,,74,127
19194,note_off,168,0,0,,2,,,74,127
19194,note_off,0,0,0,,12,,,71,127
19196,note_on,2,0,0,,2,,,74,127
19365,note_on,169,0,0,,0,,,60,127
19533,note_off,168,0,0,,0,,,60,127
19533,note_off,0,0,0,,2,,,74,127
19535,note_on,2,0,0,,4,,,64,127
19535,note_on,0,0,0,,4,,,76,127
19703,note_off,168,0,0,,4,,,64,127
19705,note_on,2,0,0,,10,,,69,127
19873,note_off,168,0,0,,10,,,69,127
19875,note_on,2,0,0,,0,,,72,127
20043,note_off,168,0,0,,4,,,76,127
20045,note_on,2,0,0,,0,,,84,127
20213,note_off,168,0,0,,0,,,84,127
20215,note_on,2,0,0,,10,,,81,127
20383,note_off,168,0,0,,10,,,81,127
20385,note_on,2,0,0,,4,,,76,127
20553,note_off,168,0,0,,4,,,76,127
20553,note_off,0,0,0,,0,,,72,127
20555,note_on,2,0,0,,2,,,62,127
20555,note_on,0,0,0,,6,,,78,127
20723,note_off,168,0,0,,6,,,78,127
20725,note_on,2,0,0,,7,,,79,127
20893,note_off,168,0,0,,7,,,79,127
20895,note_on,2,0,0,,10,,,81,127
21063,note_off,168,0,0,,10,,,81,127
21065,note_on,2,0,0,,12,,,83,127
21233,note_off,168,0,0,,12,,,83,127
21235,note_on,2,0,0,,2,,,74,127
21235,note_on,0,0,0,,0,,,84,127
21403,note_off,168,0,0,,0,,,84,127
21405,note_on,2,0,0,,12,,,83,127
21573,note_off,168,0,0,,12,,,83,127
21575,note_on,2,0,0,,12,,,83,127
21743,note_off,168,0,0,,12,,,83,127
21745,note_on,2,0,0,,10,,,81,127
21913,note_off,168,0,0,,10,,,81,127
21913,note_off,0,0,0,,2,,,74,127
21913,note_off,0,0,0,,2,,,62,127
21915,note_on,2,0,0,,7,,,67,127
21915,note_on,0,0,0,,12,,,83,127
22084,note_on,169,0,0,,12,,,71,127
22084,note_on,0,0,0,,2,,,74,127
22126,note_off,42,0,0,,12,,,83,127
22250,note_off,124,0,0,,7,,,67,127
22252,note_off,2,0,0,,2,,,74,127
22252,note_off,0,0,0,,12,,,71,127
22254,note_on,2,0,0,,0,,,72,127
22254,note_on,0,0,0,,4,,,76,127
22422,note_off,168,0,0,,4,,,76,127
22422,note_off,0,0,0,,0,,,72,127
22424,note_on,2,0,0,,10,,,69,127
22424,note_on,0,0,0,,6,,,78,127
22592,note_off,168,0,0,,6,,,78,127
22592,note_off,0,0,0,,10,,,69,127
22594,note_on,2,0,0,,12,,,71,127
22594,note_on,0,0,0,,7,,,79,127
22762,note_off,168,0,0,,7,,,79,127
22764,note_on,2,0,0,,6,,,66,127
22764,note_on,0,0,0,,0,,,84,127
22849,note_off,85,0,0,,12,,,71,127
22932,note_off,83,0,0,,0,,,84,127
22932,note_off,0,0,0,,6,,,66,127
22934,note_on,2,0,0,,7,,,67,127
22934,note_on,0,0,0,,12,,,83,127
23102,note_off,168,0,0,,12,,,83,127
23104,note_on,2,0,0,,2,,,62,127
23104,note_on,0,0,0,,10,,,81,127
23189,note_off,85,0,0,,7,,,67,127
23272,note_off,83,0,0,,10,,,81,127
23272,note_off,0,0,0,,2,,,62,127
23274,note_on,2,0,0,,7,,,67,127
23274,note_on,0,0,0,,12,,,83,127
23443,note_on,169,0,0,,12,,,71,127
23443,note_on,0,0,0,,2,,,74,127
23485,note_off,42,0,0,,12,,,83,127
23610,note_off,125,0,0,,2,,,74,127
23610,note_off,0,0,0,,12,,,71,127
23612,note_on,2,0,0,,0,,,72,127
23612,note_on,0,0,0,,4,,,76,127
23780,note_off,168,0,0,,4,,,76,127
23780,note_off,0,0,0,,0,,,72,127
23782,note_off,2,0,0,,7,,,67,127
23782,note_on,0,0,0,,10,,,69,127
23782,note_on,0,0,0,,6,,,78,127
23950,note_off,168,0,0,,6,,,78,127
23950,note_off,0,0,0,,10,,,69,127
23952,note_on,2,0,0,,12,,,71,127
23952,note_on,0,0,0,,7,,,79,127
24120,note_off,168,0,0,,7,,,79,127
24122,note_on,2,0,0,,6,,,66,127
24122,note_on,0,0,0,,0,,,84,127
24207,note_off,85,0,0,,12,,,71,127
24290,note_off,83,0,0,,0,,,84,127
24290,note_off,0,0,0,,6,,,66,127
24292,note_on,2,0,0,,7,,,67,127
24292,note_on,0,0,0,,12,,,83,127
24460,note_off,168,0,0,,12,,,83,127
24462,note_on,2,0,0,,2,,,62,127
24462,note_on,0,0,0,,10,,,81,127
24547,note_off,85,0,0,,7,,,67,127
24630,note_off,83,0,0,,10,,,81,127
24630,note_off,0,0,0,,2,,,62,127
24632,note_on,2,0,0,,7,,,67,127
24632,note_on,0,0,0,,7,,,55,127
24632,note_on,0,0,0,,12,,,83,127
24800,note_off,168,0,0,,12,,,83,127
24802,note_on,2,0,0,,10,,,81,127
24970,note_off,168,0,0,,10,,,81,127
24972,note_on,2,0,0,,10,,,81,127
25140,note_off,168,0,0,,10,,,81,127
25142,note_on,2,0,0,,7,,,79,127
25310,note_off,168,0,0,,7,,,79,127
25310,note_off,0,0,0,,7,,,55,127
25310,note_off,0,0,0,,7,,,67,127
25312,note_on,2,0,0,,7,,,67,127
25312,note_on,0,0,0,,7,,,55,127
25312,note_on,0,0,0,,7,,,79,127
25480,note_off,168,0,0,,7,,,79,127
25482,note_on,2,0,0,,6,,,78,127
25650,note_off,168,0,0,,6,,,78,127
25652,note_on,2,0,0,,6,,,78,127
25820,note_off,168,0,0,,6,,,78,127
25822,note_on,2,0,0,,4,,,76,127
25990,note_off,168,0,0,,4,,,76,127
25990,note_off,0,0,0,,7,,,55,127
25990,note_off,0,0,0,,7,,,67,127
25992,note_on,2,0,0,,10,,,57,127
25992,note_on,0,0,0,,7,,,67,127
25992,note_on,0,0,0,,4,,,76,127
26160,note_off,168,0,0,,4,,,76,127
26162,note_on,2,0,0,,2,,,74,127
26330,note_off,168,0,0,,2,,,74,127
26332,note_on,2,0,0,,1,,,73,127
26500,note_off,168,0,0,,1,,,73,127
26502,note_on,2,0,0,,2,,,74,127
26670,note_off,168,0,0,,2,,,74,127
26670,note_off,0,0,0,,7,,,67,127
26670,note_off,0,0,0,,10,,,57,127
26672,note_on,2,0,0,,10,,,57,127
26672,note_on,0,0,0,,6,,,66,127
26672,note_on,0,0,0,,4,,,76,127
26840,note_off,168,0,0,,4,,,76,127
26842,note_on,2,0,0,,2,,,74,127
27010,note_off,168,0,0,,2,,,74,127
27012,note_on,2,0,0,,1,,,73,127
27180,note_off,168,0,0,,1,,,73,127
27182,note_on,2,0,0,,2,,,74,127
27350,note_off,168,0,0,,2,,,74,127
27350,note_off,0,0,0,,6,,,66,127
27350,note_off,0,0,0,,10,,,57,127
27352,note_on,2,0,0,,10,,,57,127
27352,note_on,0,0,0,,10,,,69,127
27352,note_on,0,0,0,,0,,,84,127
27520,note_off,168,0,0,,0,,,84,127
27522,note_on,2,0,0,,12,,,83,127
27690,note_off,168,0,0,,12,,,83,127
27692,note_on,2,0,0,,12,,,83,127
27860,note_off,168,0,0,,12,,,83,127
27862,note_on,2,0,0,,10,,,81,127
28030,note_off,168,0,0,,10,,,81,127
28030,note_off,0,0,0,,10,,,69,127
28030,note_off,0,0,0,,10,,,57,127
28032,note_on,2,0,0,,10,,,57,127
28032,note_on,0,0,0,,10,,,69,127
28032,note_on,0,0,0,,10,,,81,127
28200,note_off,168,0,0,,10,,,81,127
28202,note_on,2,0,0,,7,,,79,127
28370,note_off,168,0,0,,7,,,79,127
28372,note_on,2,0,0,,7,,,79,127
28540,note_off,168,0,0,,7,,,79,127
28542,note_on,2,0,0,,6,,,78,127
28710,note_off,168,0,0,,6,,,78,127
28710,note_off,0,0,0,,10,,,69,127
28710,note_off,0,0,0,,10,,,57,127
28712,note_on,2,0,0,,10,,,69,127
28712,note_on,0,0,0,,12,,,59,127
28712,note_on,0,0,0,,6,,,78,127
28880,note_off,168,0,0,,6,,,78,127
28882,note_on,2,0,0,,4,,,76,127
29050,note_off,168,0,0,,4,,,76,127
29052,note_on,2,0,0,,3,,,75,127
29220,note_off,168,0,0,,3,,,75,127
29222,note_on,2,0,0,,4,,,76,127
29390,note_off,168,0,0,,4,,,76,127
29390,note_off,0,0,0,,12,,,59,127
29390,note_off,0,0,0,,10,,,69,127
29392,note_on,2,0,0,,7,,,67,127
29392,note_on,0,0,0,,12,,,59,127
29392,note_on,0,0,0,,6,,,78,127
29560,note_off,168,0,0,,6,,,78,127
29562,note_on,2,0,0,,4,,,76,127
29730,note_off,168,0,0,,4,,,76,127
29732,note_on,2,0,0,,3,,,75,127
29900,note_off,168,0,0,,3,,,75,127
29902,note_on,2,0,0,,4,,,76,127
30070,note_off,168,0,0,,4,,,76,127
30070,note_off,0,0,0,,12,,,59,127
30070,note_off,0,0,0,,7,,,67,127
30072,note_on,2,0,0,,7,,,67,127
30072,note_on,0,0,0,,12,,,59,127
30072,note_on,0,0,0,,12,,,83,127
30240,note_off,168,0,0,,12,,,83,127
30242,note_on,2,0,0,,10,,,81,127
30410,note_off,168,0,0,,10,,,81,127
30412,note_on,2,0,0,,10,,,81,127
30580,note_off,168,0,0,,10,,,81,127
30582,note_on,2,0,0,,7,,,79,127
30750,note_off,168,0,0,,7,,,79,127
30750,note_off,0,0,0,,12,,,59,127
30750,note_off,0,0,0,,7,,,67,127
30752,note_on,2,0,0,,6,,,66,127
30752,note_on,0,0,0,,12,,,59,127
30752,note_on,0,0,0,,7,,,79,127
30920,note_off,168,0,0,,7,,,79,127
30922,note_on,2,0,0,,6,,,78,127
31090,note_off,168,0,0,,6,,,78,127
31092,note_on,2,0,0,,6,,,78,127
31260,note_off,168,0,0,,6,,,78,127
31262,note_on,2,0,0,,7,,,79,127
31430,note_off,168,0,0,,7,,,79,127
31430,note_off,0,0,0,,12,,,59,127
31430,note_off,0,0,0,,6,,,66,127
31432,note_on,2,0,0,,4,,,52,127
31432,note_on,0,0,0,,7,,,79,127
31601,note_on,169,0,0,,4,,,64,127
31601,note_on,0,0,0,,12,,,71,127
31643,note_off,42,0,0,,7,,,79,127
31767,note_off,124,0,0,,4,,,52,127
31769,note_off,2,0,0,,12,,,71,127
31769,note_off,0,0,0,,4,,,64,127
31771,note_on,2,0,0,,7,,,67,127
31771,note_on,0,0,0,,11,,,70,127
31939,note_off,168,0,0,,11,,,70,127
31939,note_off,0,0,0,,7,,,67,127
31941,note_on,2,0,0,,6,,,66,127
31941,note_on,0,0,0,,12,,,71,127
32109,note_off,168,0,0,,12,,,71,127
32109,note_off,0,0,0,,6,,,66,127
32111,note_on,2,0,0,,4,,,64,127
32111,note_on,0,0,0,,1,,,73,127
32279,note_off,168,0,0,,1,,,73,127
32279,note_off,0,0,0,,4,,,64,127
32281,note_on,2,0,0,,2,,,62,127
32281,note_on,0,0,0,,2,,,74,127
32449,note_off,168,0,0,,2,,,74,127
32449,note_off,0,0,0,,2,,,62,127
32451,note_on,2,0,0,,1,,,61,127
32451,note_on,0,0,0,,4,,,76,127
32619,note_off,168,0,0,,4,,,76,127
32619,note_off,0,0,0,,1,,,61,127
32621,note_on,2,0,0,,12,,,59,127
32621,note_on,0,0,0,,6,,,78,127
32789,note_off,168,0,0,,6,,,78,127
32789,note_off,0,0,0,,12,,,59,127
32791,note_on,2,0,0,,4,,,52,127
32791,note_on,0,0,0,,7,,,79,127
32960,note_on,169,0,0,,4,,,64,127
32960,note_on,0,0,0,,12,,,71,127
33002,note_off,42,0,0,,7,,,79,127
33126,note_off,124,0,0,,4,,,52,127
33128,note_off,2,0,0,,12,,,71,127
33128,note_off,0,0,0,,4,,,64,127
33130,note_on,2,0,0,,7,,,67,127
33130,note_on,0,0,0,,11,,,70,127
33298,note_off,168,0,0,,11,,,70,127
33298,note_off,0,0,0,,7,,,67,127
33300,note_on,2,0,0,,6,,,66,127
33300,note_on,0,0,0,,12,,,71,127
33468,note_off,168,0,0,,12,,,71,127
33468,note_off,0,0,0,,6,,,66,127
33470,note_on,2,0,0,,4,,,64,127
33470,note_on,0,0,0,,1,,,73,127
33638,note_off,168,0,0,,1,,,73,127
33638,note_off,0,0,0,,4,,,64,127
33640,note_on,2,0,0,,2,,,62,127
33640,note_on,0,0,0,,2,,,74,127
33808,note_off,168,0,0,,2,,,74,127
33808,note_off,0,0,0,,2,,,62,127
33810,note_on,2,0,0,,1,,,61,127
33810,note_on,0,0,0,,4,,,76,127
33978,note_off,168,0,0,,4,,,76,127
33978,note_off,0,0,0,,1,,,61,127
33980,note_on,2,0,0,,12,,,59,127
33980,note_on,0,0,0,,6,,,78,127
34148,note_off,168,0,0,,6,,,78,127
34148,note_off,0,0,0,,12,,,59,127
34150,note_on,2,0,0,,11,,,58,127
34150,note_on,0,0,0,,7,,,79,127
34318,note_off,168,0,0,,7,,,79,127
34320,note_on,2,0,0,,6,,,78,127
34488,note_off,168,0,0,,6,,,78,127
34490,note_on,2,0,0,,6,,,78,127
34658,note_off,168,0,0,,6,,,78,127
34660,note_on,2,0,0,,4,,,76,127
34828,note_off,168,0,0,,4,,,76,127
34828,note_off,0,0,0,,11,,,58,127
34830,note_on,2,0,0,,6,,,54,127
34830,note_on,0,0,0,,4,,,76,127
34998,note_off,168,0,0,,4,,,76,127
35000,note_on,2,0,0,,2,,,74,127
35168,note_off,168,0,0,,2,,,74,127
35170,note_on,2,0,0,,2,,,74,127
35338,note_off,168,0,0,,2,,,74,127
35340,note_on,2,0,0,,1,,,73,127
35508,note_off,168,0,0,,1,,,73,127
35508,note_off,0,0,0,,6,,,54,127
35510,note_on,2,0,0,,12,,,59,127
35510,note_on,0,0,0,,2,,,74,127
35678,note_off,168,0,0,,2,,,74,127
35680,note_on,2,0,0,,3,,,63,127
35680,note_on,0,0,0,,12,,,71,127
35765,note_off,85,0,0,,12,,,59,127
35848,note_off,83,0,0,,12,,,71,127
35848,note_off,0,0,0,,3,,,63,127
35850,note_on,2,0,0,,4,,,64,127
35850,note_on,0,0,0,,0,,,72,127
36018,note_off,168,0,0,,0,,,72,127
36018,note_off,0,0,0,,4,,,64,127
36020,note_on,2,0,0,,6,,,66,127
36020,note_on,0,0,0,,3,,,75,127
36188,note_off,168,0,0,,3,,,75,127
36188,note_off,0,0,0,,6,,,66,127
36190,note_on,2,0,0,,7,,,67,127
36190,note_on,0,0,0,,4,,,76,127
36358,note_off,168,0,0,,4,,,76,127
36358,note_off,0,0,0,,7,,,67,127
36360,note_on,2,0,0,,11,,,70,127
36360,note_on,0,0,0,,6,,,78,127
36528,note_off,168,0,0,,6,,,78,127
36528,note_off,0,0,0,,11,,,70,127
36530,note_on,2,0,0,,12,,,71,127
36530,note_on,0,0,0,,7,,,79,127
36698,note_off,168,0,0,,7,,,79,127
36698,note_off,0,0,0,,12,,,71,127
36700,note_on,2,0,0,,1,,,73,127
36700,note_on,0,0,0,,11,,,82,127
36868,note_off,168,0,0,,11,,,82,127
36868,note_off,0,0,0,,1,,,73,127
36870,note_on,2,0,0,,2,,,74,127
36870,note_on,0,0,0,,12,,,83,127
37038,note_off,168,0,0,,12,,,83,127
37038,note_off,0,0,0,,2,,,74,127
37040,note_on,2,0,0,,3,,,63,127
37040,note_on,0,0,0,,12,,,71,127
37208,note_off,168,0,0,,12,,,71,127
37208,note_off,0,0,0,,3,,,63,127
37210,note_on,2,0,0,,4,,,64,127
37210,note_on,0,0,0,,0,,,72,127
37378,note_off,168,0,0,,0,,,72,127
37378,note_off,0,0,0,,4,,,64,127
37380,note_on,2,0,0,,6,,,66,127
37380,note_on,0,0,0,,3,,,75,127
37548,note_off,168,0,0,,3,,,75,127
37548,note_off,0,0,0,,6,,,66,127
37550,note_on,2,0,0,,7,,,67,127
37550,note_on,0,0,0,,4,,,76,127
37718,note_off,168,0,0,,4,,,76,127
37718,note_off,0,0,0,,7,,,67,127
37720,note_on,2,0,0,,11,,,70,127
37720,note_on,0,0,0,,6,,,78,127
37888,note_off,168,0,0,,6,,,78,127
37888,note_off,0,0,0,,11,,,70,127
37890,note_on,2,0,0,,12,,,71,127
37890,note_on,0,0,0,,7,,,79,127
38058,note_off,168,0,0,,7,,,79,127
38058,note_off,0,0,0,,12,,,71,127
38060,note_on,2,0,0,,1,,,73,127
38060,note_on,0,0,0,,11,,,82,127
38228,note_off,168,0,0,,11,,,82,127
38228,note_off,0,0,0,,1,,,73,127
38230,note_on,2,0,0,,2,,,74,127
38230,note_on,0,0,0,,12,,,83,127
38398,note_off,168,0,0,,12,,,83,127
38400,note_on,2,0,0,,10,,,81,127
38568,note_off,168,0,0,,10,,,81,127
38568,note_off,0,0,0,,2,,,74,127
38570,note_on,2,0,0,,2,,,74,127
38570,note_on,0,0,0,,10,,,81,127
38738,note_off,168,0,0,,10,,,81,127
38740,note_on,2,0,0,,7,,,79,127
38908,note_off,168,0,0,,7,,,79,127
38908,note_off,0,0,0,,2,,,74,127
38910,note_on,2,0,0,,2,,,62,127
38910,note_on,0,0,0,,7,,,79,127
39078,note_off,168,0,0,,7,,,79,127
39080,note_on,2,0,0,,6,,,78,127
39248,note_off,168,0,0,,6,,,78,127
39248,note_off,0,0,0,,2,,,62,127
39250,note_on,2,0,0,,2,,,62,127
39250,note_on,0,0,0,,6,,,78,127
39418,note_off,168,0,0,,6,,,78,127
39420,note_on,2,0,0,,4,,,76,127
39588,note_off,168,0,0,,4,,,76,127
39588,note_off,0,0,0,,2,,,62,127
39590,note_on,2,0,0,,4,,,64,127
39590,note_on,0,0,0,,4,,,76,127
39758,note_off,168,0,0,,4,,,76,127
39760,note_on,2,0,0,,2,,,74,127
39928,note_off,168,0,0,,2,,,74,127
39928,note_off,0,0,0,,4,,,64,127
39930,note_on,2,0,0,,4,,,64,127
39930,note_on,0,0,0,,2,,,74,127
40098,note_off,168,0,0,,2,,,74,127
40100,note_on,2,0,0,,1,,,73,127
40268,note_off,168,0,0,,1,,,73,127
40268,note_off,0,0,0,,4,,,64,127
40270,note_on,2,0,0,,6,,,66,127
40270,note_on,0,0,0,,1,,,73,127
40438,note_off,168,0,0,,1,,,73,127
40440,note_on,2,0,0,,12,,,71,127
40608,note_off,168,0,0,,12,,,71,127
40610,note_on,2,0,0,,6,,,54,127
40610,note_on,0,0,0,,12,,,71,127
40778,note_off,168,0,0,,12,,,71,127
40780,note_on,2,0,0,,11,,,70,127
40948,note_off,168,0,0,,11,,,70,127
40948,note_off,0,0,0,,6,,,54,127
40948,note_off,0,0,0,,6,,,66,127
40950,note_on,2,0,0,,12,,,59,127
41119,note_on,169,0,0,,3,,,63,127
41119,note_on,0,0,0,,12,,,71,127
41285,note_off,166,0,0,,12,,,59,127
41287,note_off,2,0,0,,12,,,71,127
41287,note_off,0,0,0,,3,,,63,127
41289,note_on,2,0,0,,4,,,64,127
41289,note_on,0,0,0,,0,,,72,127
41457,note_off,168,0,0,,0,,,72,127
41457,note_off,0,0,0,,4,,,64,127
41459,note_on,2,0,0,,6,,,66,127
41459,note_on,0,0,0,,3,,,75,127
41627,note_off,168,0,0,,3,,,75,127
41627,note_off,0,0,0,,6,,,66,127
41629,note_on,2,0,0,,7,,,67,127
41629,note_on,0,0,0,,4,,,76,127
41797,note_off,168,0,0,,4,,,76,127
41797,note_off,0,0,0,,7,,,67,127
41799,note_on,2,0,0,,11,,,70,127
41799,note_on,0,0,0,,6,,,78,127
41967,note_off,168,0,0,,6,,,78,127
41967,note_off,0,0,0,,11,,,70,127
41969,note_on,2,0,0,,12,,,71,127
41969,note_on,0,0,0,,7,,,79,127
42137,note_off,168,0,0,,7,,,79,127
42137,note_off,0,0,0,,12,,,71,127
42139,note_on,2,0,0,,1,,,73,127
42139,note_on,0,0,0,,11,,,82,127
42307,note_off,168,0,0,,11,,,82,127
42307,note_off,0,0,0,,1,,,73,127
42309,note_on,2,0,0,,2,,,74,127
42309,note_on,0,0,0,,12,,,83,127
42477,note_off,168,0,0,,12,,,83,127
42477,note_off,0,0,0,,2,,,74,127
42479,note_on,2,0,0,,3,,,63,127
42479,note_on,0,0,0,,12,,,71,127
42647,note_off,168,0,0,,12,,,71,127
42647,note_off,0,0,0,,3,,,63,127
42649,note_on,2,0,0,,4,,,64,127
42649,note_on,0,0,0,,0,,,72,127
42817,note_off,168,0,0,,0,,,72,127
42817,note_off,0,0,0,,4,,,64,127
42819,note_on,2,0,0,,6,,,66,127
42819,note_on,0,0,0,,3,,,75,127
42987,note_off,168,0,0,,3,,,75,127
42987,note_off,0,0,0,,6,,,66,127
42989,note_on,2,0,0,,7,,,67,127
42989,note_on,0,0,0,,4,,,76,127
43157,note_off,168,0,0,,4,,,76,127
43157,note_off,0,0,0,,7,,,67,127
43159,note_on,2,0,0,,11,,,70,127
43159,note_on,0,0,0,,6,,,78,127
43327,note_off,168,0,0,,6,,,78,127
43327,note_off,0,0,0,,11,,,70,127
43329,note_on,2,0,0,,12,,,71,127
43329,note_on,0,0,0,,7,,,79,127
43497,note_off,168,0,0,,7,,,79,127
43497,note_off,0,0,0,,12,,,71,127
43499,note_on,2,0,0,,1,,,73,127
43499,note_on,0,0,0,,11,,,82,127
43667,note_off,168,0,0,,11,,,82,127
43667,note_off,0,0,0,,1,,,73,127
43669,note_on,2,0,0,,2,,,74,127
43669,note_on,0,0,0,,12,,,83,127
43837,note_off,168,0,0,,12,,,83,127
43839,note_on,2,0,0,,10,,,81,127
44007,note_off,168,0,0,,10,,,81,127
44007,note_off,0,0,0,,2,,,74,127
44009,note_on,2,0,0,,2,,,74,127
44009,note_on,0,0,0,,10,,,81,127
44177,note_off,168,0,0,,10,,,81,127
44179,note_on,2,0,0,,7,,,79,127
44347,note_off,168,0,0,,7,,,79,127
44347,note_off,0,0,0,,2,,,74,127
44349,note_on,2,0,0,,2,,,62,127
44349,note_on,0,0,0,,7,,,79,127
44517,note_off,168,0,0,,7,,,79,127
44519,note_on,2,0,0,,6,,,78,127
44687,note_off,168,0,0,,6,,,78,127
44687,note_off,0,0,0,,2,,,62,127
44689,note_on,2,0,0,,2,,,62,127
44689,note_on,0,0,0,,6,,,78,127
44857,note_off,168,0,0,,6,,,78,127
44859,note_on,2,0,0,,4,,,76,127
45027,note_off,168,0,0,,4,,,76,127
45027,note_off,0,0,0,,2,,,62,127
45029,note_on,2,0,0,,4,,,64,127
45029,note_on,0,0,0,,4,,,76,127
45197,note_off,168,0,0,,4,,,76,127
45199,note_on,2,0,0,,2,,,74,127
45367,note_off,168,0,0,,2,,,74,127
45367,note_off,0,0,0,,4,,,64,127
45369,note_on,2,0,0,,4,,,64,127
45369,note_on,0,0,0,,2,,,74,127
45537,note_off,168,0,0,,2,,,74,127
45539,note_on,2,0,0,,1,,,73,127
45707,note_off,168,0,0,,1,,,73,127
45707,note_off,0,0,0,,4,,,64,127
45709,note_on,2,0,0,,6,,,66,127
45709,note_on,0,0,0,,1,,,73,127
45877,note_off,168,0,0,,1,,,73,127
45879,note_on,2,0,0,,12,,,71,127
46047,note_off,168,0,0,,12,,,71,127
46049,note_on,2,0,0,,6,,,54,127
46049,note_on,0,0,0,,12,,,71,127
46217,note_off,168,0,0,,12,,,71,127
46219,note_on,2,0,0,,11,,,70,127
46387,note_off,168,0,0,,11,,,70,127
46387,note_off,0,0,0,,6,,,54,127
46387,note_off,0,0,0,,6,,,66,127
46389,note_on,2,0,0,,12,,,71,127
46557,note_off,168,0,0,,12,,,71,127
46559,note_on,2,0,0,,2,,,74,127
46728,note_on,169,0,0,,12,,,47,127
46728,note_on,0,0,0,,12,,,59,127
46728,note_on,0,0,0,,2,,,62,127
46896,note_off,168,0,0,,2,,,62,127
46898,note_on,2,0,0,,4,,,64,127
47066,note_off,168,0,0,,4,,,64,127
47066,note_off,0,0,0,,2,,,74,127
47068,note_on,2,0,0,,6,,,66,127
47236,note_off,168,0,0,,6,,,66,127
47238,note_on,2,0,0,,1,,,73,127
47406,note_off,168,0,0,,12,,,59,127
47406,note_off,0,0,0,,12,,,47,127
47408,note_on,2,0,0,,10,,,45,127
47408,note_on,0,0,0,,10,,,57,127
47408,note_on,0,0,0,,1,,,61,127
47576,note_off,168,0,0,,1,,,61,127
47578,note_on,2,0,0,,2,,,62,127
47746,note_off,168,0,0,,2,,,62,127
47746,note_off,0,0,0,,1,,,73,127
47748,note_on,2,0,0,,4,,,64,127
47916,note_off,168,0,0,,4,,,64,127
47918,note_on,2,0,0,,12,,,71,127
48086,note_off,168,0,0,,10,,,57,127
48086,note_off,0,0,0,,10,,,45,127
48088,note_on,2,0,0,,7,,,43,127
48088,note_on,0,0,0,,7,,,55,127
48088,note_on,0,0,0,,12,,,59,127
48256,note_off,168,0,0,,12,,,59,127
48258,note_on,2,0,0,,1,,,61,127
48426,note_off,168,0,0,,1,,,61,127
48426,note_off,0,0,0,,12,,,71,127
48428,note_on,2,0,0,,2,,,62,127
48596,note_off,168,0,0,,2,,,62,127
48598,note_on,2,0,0,,4,,,64,127
48766,note_off,168,0,0,,4,,,64,127
48766,note_off,0,0,0,,7,,,55,127
48766,note_off,0,0,0,,7,,,43,127
48768,note_on,2,0,0,,6,,,42,127
48768,note_on,0,0,0,,6,,,54,127
48768,note_on,0,0,0,,6,,,66,127
48768,note_on,0,0,0,,11,,,70,127
48936,note_off,168,0,0,,6,,,66,127
48938,note_on,2,0,0,,1,,,61,127
49106,note_off,168,0,0,,1,,,61,127
49106,note_off,0,0,0,,11,,,70,127
49108,note_on,2,0,0,,12,,,71,127
49276,note_off,168,0,0,,12,,,71,127
49276,note_off,0,0,0,,6,,,54,127
49276,note_off,0,0,0,,6,,,42,127
49278,note_on,2,0,0,,2,,,74,127
49447,note_on,169,0,0,,12,,,59,127
49447,note_on,0,0,0,,12,,,47,127
49447,note_on,0,0,0,,2,,,62,127
49615,note_off,168,0,0,,2,,,62,127
49617,note_on,2,0,0,,4,,,64,127
49785,note_off,168,0,0,,4,,,64,127
49785,note_off,0,0,0,,2,,,74,127
49787,note_on,2,0,0,,6,,,66,127
49955,note_off,168,0,0,,6,,,66,127
49957,note_on,2,0,0,,1,,,73,127
50125,note_off,168,0,0,,12,,,47,127
50125,note_off,0,0,0,,12,,,59,127
50127,note_on,2,0,0,,10,,,57,127
50127,note_on,0,0,0,,10,,,45,127
50127,note_on,0,0,0,,1,,,61,127
50295,note_off,168,0,0,,1,,,61,127
50297,note_on,2,0,0,,2,,,62,127
50465,note_off,168,0,0,,2,,,62,127
50465,note_off,0,0,0,,1,,,73,127
50467,note_on,2,0,0,,4,,,64,127
50635,note_off,168,0,0,,4,,,64,127
50637,note_on,2,0,0,,12,,,71,127
50805,note_off,168,0,0,,10,,,45,127
50805,note_off,0,0,0,,10,,,57,127
50807,note_on,2,0,0,,7,,,55,127
50807,note_on,0,0,0,,7,,,43,127
50807,note_on,0,0,0,,12,,,59,127
50975,note_off,168,0,0,,12,,,59,127
50977,note_on,2,0,0,,1,,,61,127
51145,note_off,168,0,0,,1,,,61,127
51145,note_off,0,0,0,,12,,,71,127
51147,note_on,2,0,0,,3,,,63,127
51315,note_off,168,0,0,,3,,,63,127
51317,note_on,2,0,0,,4,,,64,127
51485,note_off,168,0,0,,4,,,64,127
51485,note_off,0,0,0,,7,,,43,127
51485,note_off,0,0,0,,7,,,55,127
51487,note_on,2,0,0,,6,,,42,127
51487,note_on,0,0,0,,6,,,54,127
51487,note_on,0,0,0,,6,,,66,127
51487,note_on,0,0,0,,10,,,69,127
51655,note_off,168,0,0,,6,,,66,127
51657,note_on,2,0,0,,3,,,63,127
51825,note_off,168,0,0,,3,,,63,127
51825,note_off,0,0,0,,10,,,69,127
51827,note_on,2,0,0,,7,,,67,127
51876,note_off,49,0,0,,6,,,54,127
51876,note_off,0,0,0,,6,,,42,127
51994,note_off,118,0,0,,7,,,67,127
51996,note_on,2,0,0,,4,,,64,127
52164,note_off,168,0,0,,4,,,64,127
52166,note_on,2,0,0,,7,,,67,127
52166,note_on,0,0,0,,11,,,70,127
52334,note_off,168,0,0,,7,,,67,127
52336,note_on,2,0,0,,6,,,66,127
52504,note_off,168,0,0,,6,,,66,127
52506,note_on,2,0,0,,4,,,64,127
52674,note_off,168,0,0,,4,,,64,127
52674,note_off,0,0,0,,11,,,70,127
52676,note_on,2,0,0,,2,,,62,127
52676,note_on,0,0,0,,12,,,71,127
52844,note_off,168,0,0,,12,,,71,127
52844,note_off,0,0,0,,2,,,62,127
52846,note_on,2,0,0,,1,,,61,127
52846,note_on,0,0,0,,11,,,70,127
53014,note_off,168,0,0,,11,,,70,127
53014,note_off,0,0,0,,1,,,61,127
53016,note_on,2,0,0,,12,,,59,127
53016,note_on,0,0,0,,12,,,71,127
53184,note_off,168,0,0,,12,,,71,127
53184,note_off,0,0,0,,12,,,59,127
53186,note_on,2,0,0,,11,,,58,127
53186,note_on,0,0,0,,1,,,73,127
53354,note_off,168,0,0,,1,,,73,127
53354,note_off,0,0,0,,11,,,58,127
53356,note_on,2,0,0,,4,,,64,127
53356,note_on,0,0,0,,12,,,71,127
53524,note_off,168,0,0,,12,,,71,127
53524,note_off,0,0,0,,4,,,64,127
53526,note_on,2,0,0,,7,,,67,127
53526,note_on,0,0,0,,11,,,70,127
53694,note_off,168,0,0,,7,,,67,127
53696,note_on,2,0,0,,6,,,66,127
53864,note_off,168,0,0,,6,,,66,127
53866,note_on,2,0,0,,4,,,64,127
54004,note_off,138,0,0,,11,,,70,127
54034,note_off,30,0,0,,4,,,64,127
54036,note_on,2,0,0,,2,,,62,127
54036,note_on,0,0,0,,12,,,71,127
54204,note_off,168,0,0,,12,,,71,127
54204,note_off,0,0,0,,2,,,62,127
54206,note_on,2,0,0,,1,,,61,127
54206,note_on,0,0,0,,11,,,70,127
54374,note_off,168,0,0,,11,,,70,127
54374,note_off,0,0,0,,1,,,61,127
54376,note_on,2,0,0,,12,,,59,127
54376,note_on,0,0,0,,12,,,71,127
54544,note_off,168,0,0,,12,,,71,127
54544,note_off,0,0,0,,12,,,59,127
54546,note_on,2,0,0,,11,,,58,127
54546,note_on,0,0,0,,1,,,73,127
54714,note_off,168,0,0,,1,,,73,127
54716,note_on,2,0,0,,12,,,71,127
54884,note_off,168,0,0,,12,,,71,127
54884,note_off,0,0,0,,11,,,58,127
54886,note_on,2,0,0,,4,,,64,127
54886,note_on,0,0,0,,11,,,70,127
55054,note_off,168,0,0,,4,,,64,127
55056,note_on,2,0,0,,2,,,62,127
55224,note_off,168,0,0,,2,,,62,127
55226,note_on,2,0,0,,1,,,61,127
55364,note_off,138,0,0,,11,,,70,127
55394,note_off,30,0,0,,1,,,61,127
55396,note_on,2,0,0,,12,,,59,127
55396,note_on,0,0,0,,2,,,74,127
55564,note_off,168,0,0,,2,,,74,127
55564,note_off,0,0,0,,12,,,59,127
55566,note_on,2,0,0,,11,,,58,127
55566,note_on,0,0,0,,1,,,73,127
55734,note_off,168,0,0,,1,,,73,127
55734,note_off,0,0,0,,11,,,58,127
55736,note_on,2,0,0,,8,,,56,127
55736,note_on,0,0,0,,2,,,74,127
55904,note_off,168,0,0,,2,,,74,127
55904,note_off,0,0,0,,8,,,56,127
55906,note_on,2,0,0,,6,,,54,127
55906,note_on,0,0,0,,4,,,76,127
56074,note_off,168,0,0,,4,,,76,127
56076,note_on,2,0,0,,2,,,74,127
56244,note_off,168,0,0,,2,,,74,127
56244,note_off,0,0,0,,6,,,54,127
56246,note_on,2,0,0,,4,,,64,127
56246,note_on,0,0,0,,1,,,73,127
56414,note_off,168,0,0,,4,,,64,127
56416,note_on,2,0,0,,2,,,62,127
56584,note_off,168,0,0,,2,,,62,127
56586,note_on,2,0,0,,1,,,61,127
56754,note_off,168,0,0,,1,,,61,127
56754,note_off,0,0,0,,1,,,73,127
56756,note_on,2,0,0,,12,,,59,127
56756,note_on,0,0,0,,2,,,74,127
56924,note_off,168,0,0,,2,,,74,127
56924,note_off,0,0,0,,12,,,59,127
56926,note_on,2,0,0,,11,,,58,127
56926,note_on,0,0,0,,1,,,73,127
57094,note_off,168,0,0,,1,,,73,127
57094,note_off,0,0,0,,11,,,58,127
57096,note_on,2,0,0,,8,,,56,127
57096,note_on,0,0,0,,2,,,74,127
57264,note_off,168,0,0,,2,,,74,127
57264,note_off,0,0,0,,8,,,56,127
57266,note_on,2,0,0,,6,,,54,127
57266,note_on,0,0,0,,4,,,76,127
57434,note_off,168,0,0,,4,,,76,127
57436,note_on,2,0,0,,7,,,79,127
57604,note_off,168,0,0,,7,,,79,127
57606,note_on,2,0,0,,6,,,78,127
57774,note_off,168,0,0,,6,,,78,127
57776,note_on,2,0,0,,4,,,76,127
57944,note_off,168,0,0,,4,,,76,127
57944,note_off,0,0,0,,6,,,54,127
57946,note_on,2,0,0,,6,,,54,127
57946,note_on,0,0,0,,2,,,74,127
58114,note_off,168,0,0,,2,,,74,127
58116,note_on,2,0,0,,1,,,73,127
58284,note_off,168,0,0,,1,,,73,127
58284,note_off,0,0,0,,6,,,54,127
58286,note_on,2,0,0,,4,,,52,127
58286,note_on,0,0,0,,12,,,71,127
58454,note_off,168,0,0,,12,,,71,127
58456,note_on,2,0,0,,11,,,70,127
58624,note_off,168,0,0,,11,,,70,127
58624,note_off,0,0,0,,4,,,52,127
58626,note_on,2,0,0,,2,,,50,127
58626,note_on,0,0,0,,12,,,71,127
58795,note_on,169,0,0,,12,,,83,127
58961,note_off,166,0,0,,12,,,71,127
58963,note_off,2,0,0,,12,,,83,127
58963,note_off,0,0,0,,2,,,50,127
58965,note_on,2,0,0,,4,,,52,127
58965,note_on,0,0,0,,4,,,76,127
59133,note_off,168,0,0,,4,,,76,127
59135,note_on,2,0,0,,2,,,74,127
59303,note_off,168,0,0,,2,,,74,127
59303,note_off,0,0,0,,4,,,52,127
59305,note_on,2,0,0,,6,,,54,127
59305,note_on,0,0,0,,2,,,74,127
59473,note_off,168,0,0,,2,,,74,127
59475,note_on,2,0,0,,1,,,73,127
59643,note_off,168,0,0,,1,,,73,127
59645,note_on,2,0,0,,6,,,42,127
59645,note_on,0,0,0,,12,,,71,127
59813,note_off,168,0,0,,12,,,71,127
59815,note_on,2,0,0,,11,,,70,127
59983,note_off,168,0,0,,11,,,70,127
59983,note_off,0,0,0,,6,,,42,127
59983,note_off,0,0,0,,6,,,54,127
59985,note_on,2,0,0,,7,,,55,127
59985,note_on,0,0,0,,12,,,71,127
60154,note_on,169,0,0,,12,,,83,127
60320,note_off,166,0,0,,12,,,71,127
60322,note_off,2,0,0,,12,,,83,127
60322,note_off,0,0,0,,7,,,55,127
60324,note_on,2,0,0,,4,,,52,127
60324,note_on,0,0,0,,4,,,76,127
60492,note_off,168,0,0,,4,,,76,127
60494,note_on,2,0,0,,2,,,74,127
60662,note_off,168,0,0,,4,,,52,127
60664,note_on,2,0,0,,6,,,54,127
60832,note_off,168,0,0,,2,,,74,127
60834,note_on,2,0,0,,1,,,73,127
61002,note_off,168,0,0,,1,,,73,127
61004,note_on,2,0,0,,6,,,42,127
61004,note_on,0,0,0,,12,,,71,127
61172,note_off,168,0,0,,12,,,71,127
61174,note_on,2,0,0,,11,,,70,127
61342,note_off,168,0,0,,11,,,70,127
61342,note_off,0,0,0,,6,,,42,127
61342,note_off,0,0,0,,6,,,54,127
61344,note_on,2,0,0,,7,,,55,127
61344,note_on,0,0,0,,12,,,71,127
61513,note_on,169,0,0,,4,,,64,127
61555,note_off,42,0,0,,12,,,71,127
61680,note_off,125,0,0,,4,,,64,127
61680,note_off,0,0,0,,7,,,55,127
61682,note_on,2,0,0,,4,,,52,127
61682,note_on,0,0,0,,6,,,66,127
61850,note_off,168,0,0,,6,,,66,127
61852,note_on,2,0,0,,7,,,67,127
62020,note_off,168,0,0,,4,,,52,127
62022,note_on,2,0,0,,6,,,54,127
62022,note_on,0,0,0,,2,,,62,127
62064,note_off,42,0,0,,7,,,67,127
62191,note_on,127,0,0,,12,,,71,127
62276,note_off,85,0,0,,2,,,62,127
62361,note_on,85,0,0,,6,,,42,127
62361,note_on,0,0,0,,1,,,61,127
62446,note_off,85,0,0,,12,,,71,127
62531,note_on,85,0,0,,11,,,70,127
62616,note_off,85,0,0,,1,,,61,127
62699,note_off,83,0,0,,11,,,70,127
62699,note_off,0,0,0,,6,,,42,127
62699,note_off,0,0,0,,6,,,54,127
62701,note_on,2,0,0,,12,,,47,127
62701,note_on,0,0,0,,11,,,70,127
63038,note_off,337,0,0,,11,,,70,127
63040,note_on,2,0,0,,12,,,71,127
64055,note_off,1015,0,0,,12,,,71,127
64226,note_on,171,0,0,,12,,,71,127
64395,note_on,169,0,0,,3,,,63,127
64437,note_off,42,0,0,,12,,,71,127
64562,note_off,125,0,0,,3,,,63,127
64564,note_on,2,0,0,,4,,,64,127
64730,note_off,166,0,0,,12,,,47,127
64732,note_off,2,0,0,,4,,,64,127
64734,note_on,2,0,0,,6,,,66,127
64902,note_off,168,0,0,,6,,,66,127
64904,note_on,2,0,0,,7,,,67,127
65072,note_off,168,0,0,,7,,,67,127
65074,note_on,2,0,0,,10,,,69,127
65242,note_off,168,0,0,,10,,,69,127
65244,note_on,2,0,0,,7,,,67,127
65412,note_off,168,0,0,,7,,,67,127
65414,note_on,2,0,0,,6,,,66,127
65583,note_on,169,0,0,,12,,,59,127
65752,note_on,169,0,0,,3,,,51,127
65918,note_off,166,0,0,,12,,,59,127
65920,note_off,2,0,0,,3,,,51,127
65922,note_on,2,0,0,,4,,,52,127
66090,note_off,168,0,0,,4,,,52,127
66092,note_on,2,0,0,,6,,,54,127
66260,note_off,168,0,0,,6,,,54,127
66260,note_off,0,0,0,,6,,,66,127
66262,note_on,2,0,0,,7,,,55,127
66262,note_on,0,0,0,,4,,,64,127
66430,note_off,168,0,0,,4,,,64,127
66430,note_off,0,0,0,,7,,,55,127
66432,note_on,2,0,0,,10,,,57,127
66432,note_on,0,0,0,,3,,,63,127
66600,note_off,168,0,0,,3,,,63,127
66600,note_off,0,0,0,,10,,,57,127
66602,note_on,2,0,0,,7,,,55,127
66602,note_on,0,0,0,,4,,,64,127
66770,note_off,168,0,0,,4,,,64,127
66770,note_off,0,0,0,,7,,,55,127
66772,note_on,2,0,0,,6,,,54,127
66772,note_on,0,0,0,,6,,,66,127
66940,note_off,168,0,0,,6,,,66,127
66940,note_off,0,0,0,,6,,,54,127
66942,note_on,2,0,0,,4,,,52,127
66942,note_on,0,0,0,,7,,,67,127
67110,note_off,168,0,0,,7,,,67,127
67110,note_off,0,0,0,,4,,,52,127
67112,note_on,2,0,0,,3,,,51,127
67112,note_on,0,0,0,,10,,,69,127
67280,note_off,168,0,0,,10,,,69,127
67280,note_off,0,0,0,,3,,,51,127
67282,note_on,2,0,0,,1,,,49,127
67282,note_on,0,0,0,,12,,,71,127
67450,note_off,168,0,0,,12,,,71,127
67450,note_off,0,0,0,,1,,,49,127
67452,note_on,2,0,0,,12,,,47,127
67452,note_on,0,0,0,,0,,,72,127
67620,note_off,168,0,0,,0,,,72,127
67622,note_on,2,0,0,,10,,,69,127
67790,note_off,168,0,0,,10,,,69,127
67792,note_on,2,0,0,,7,,,67,127
67960,note_off,168,0,0,,7,,,67,127
67962,note_on,2,0,0,,6,,,66,127
68130,note_off,168,0,0,,12,,,47,127
68132,note_on,2,0,0,,4,,,52,127
68300,note_off,168,0,0,,6,,,66,127
68302,note_on,2,0,0,,7,,,67,127
68470,note_off,168,0,0,,7,,,67,127
68472,note_on,2,0,0,,6,,,66,127
68472,note_on,0,0,0,,4,,,64,127
68640,note_off,168,0,0,,4,,,64,127
68640,note_off,0,0,0,,6,,,66,127
68642,note_off,2,0,0,,4,,,52,127
68642,note_on,0,0,0,,2,,,62,127
68642,note_on,0,0,0,,7,,,67,127
68810,note_off,168,0,0,,7,,,67,127
68810,note_off,0,0,0,,2,,,62,127
68812,note_on,2,0,0,,0,,,60,127
68812,note_on,0,0,0,,6,,,66,127
68980,note_off,168,0,0,,6,,,66,127
68980,note_off,0,0,0,,0,,,60,127
68982,note_on,2,0,0,,12,,,59,127
68982,note_on,0,0,0,,7,,,67,127
69150,note_off,168,0,0,,7,,,67,127
69150,note_off,0,0,0,,12,,,59,127
69152,note_on,2,0,0,,10,,,57,127
69152,note_on,0,0,0,,6,,,66,127
69320,note_off,168,0,0,,6,,,66,127
69320,note_off,0,0,0,,10,,,57,127
69322,note_on,2,0,0,,7,,,55,127
69322,note_on,0,0,0,,7,,,67,127
69490,note_off,168,0,0,,7,,,67,127
69490,note_off,0,0,0,,7,,,55,127
69492,note_on,2,0,0,,6,,,54,127
69492,note_on,0,0,0,,8,,,68,127
69660,note_off,168,0,0,,8,,,68,127
69662,note_on,2,0,0,,10,,,69,127
69830,note_off,168,0,0,,10,,,69,127
69832,note_on,2,0,0,,6,,,66,127
69832,note_on,0,0,0,,8,,,68,127
70000,note_off,168,0,0,,8,,,68,127
70000,note_off,0,0,0,,6,,,66,127
70002,note_off,2,0,0,,6,,,54,127
70002,note_on,0,0,0,,4,,,64,127
70002,note_on,0,0,0,,10,,,69,127
70170,note_off,168,0,0,,10,,,69,127
70170,note_off,0,0,0,,4,,,64,127
70172,note_on,2,0,0,,2,,,62,127
70172,note_on,0,0,0,,8,,,68,127
70340,note_off,168,0,0,,8,,,68,127
70340,note_off,0,0,0,,2,,,62,127
70342,note_on,2,0,0,,0,,,60,127
70342,note_on,0,0,0,,10,,,69,127
70510,note_off,168,0,0,,10,,,69,127
70510,note_off,0,0,0,,0,,,60,127
70512,note_on,2,0,0,,12,,,59,127
70512,note_on,0,0,0,,8,,,68,127
70680,note_off,168,0,0,,8,,,68,127
70680,note_off,0,0,0,,12,,,59,127
70682,note_on,2,0,0,,10,,,57,127
70682,note_on,0,0,0,,10,,,69,127
70850,note_off,168,0,0,,10,,,69,127
70850,note_off,0,0,0,,10,,,57,127
70852,note_on,2,0,0,,7,,,55,127
70852,note_on,0,0,0,,11,,,70,127
71020,note_off,168,0,0,,11,,,70,127
71022,note_on,2,0,0,,12,,,71,127
71190,note_off,168,0,0,,12,,,71,127
71192,note_on,2,0,0,,7,,,67,127
71192,note_on,0,0,0,,11,,,70,127
71360,note_off,168,0,0,,11,,,70,127
71360,note_off,0,0,0,,7,,,67,127
71362,note_off,2,0,0,,7,,,55,127
71362,note_on,0,0,0,,6,,,66,127
71362,note_on,0,0,0,,12,,,71,127
71530,note_off,168,0,0,,12,,,71,127
71530,note_off,0,0,0,,6,,,66,127
71532,note_on,2,0,0,,4,,,64,127
71532,note_on,0,0,0,,11,,,70,127
71700,note_off,168,0,0,,11,,,70,127
71700,note_off,0,0,0,,4,,,64,127
71702,note_on,2,0,0,,2,,,62,127
71702,note_on,0,0,0,,12,,,71,127
71870,note_off,168,0,0,,12,,,71,127
71870,note_off,0,0,0,,2,,,62,127
71872,note_on,2,0,0,,1,,,61,127
71872,note_on,0,0,0,,11,,,70,127
72040,note_off,168,0,0,,11,,,70,127
72040,note_off,0,0,0,,1,,,61,127
72042,note_on,2,0,0,,12,,,59,127
72042,note_on,0,0,0,,12,,,71,127
72210,note_off,168,0,0,,12,,,59,127
72212,note_on,2,0,0,,10,,,57,127
72380,note_off,168,0,0,,12,,,71,127
72382,note_on,2,0,0,,1,,,73,127
72550,note_off,168,0,0,,1,,,73,127
72552,note_on,2,0,0,,10,,,69,127
72552,note_on,0,0,0,,12,,,71,127
72720,note_off,168,0,0,,12,,,71,127
72720,note_off,0,0,0,,10,,,69,127
72722,note_off,2,0,0,,10,,,57,127
72722,note_on,0,0,0,,7,,,67,127
72722,note_on,0,0,0,,1,,,73,127
72890,note_off,168,0,0,,1,,,73,127
72890,note_off,0,0,0,,7,,,67,127
72892,note_on,2,0,0,,6,,,66,127
72892,note_on,0,0,0,,12,,,71,127
73060,note_off,168,0,0,,12,,,71,127
73060,note_off,0,0,0,,6,,,66,127
73062,note_on,2,0,0,,4,,,64,127
73062,note_on,0,0,0,,1,,,73,127
73230,note_off,168,0,0,,1,,,73,127
73230,note_off,0,0,0,,4,,,64,127
73232,note_on,2,0,0,,2,,,62,127
73232,note_on,0,0,0,,12,,,71,127
73400,note_off,168,0,0,,12,,,71,127
73400,note_off,0,0,0,,2,,,62,127
73402,note_on,2,0,0,,10,,,57,127
73402,note_on,0,0,0,,1,,,73,127
73570,note_off,168,0,0,,1,,,73,127
73570,note_off,0,0,0,,10,,,57,127
73572,note_on,2,0,0,,2,,,62,127
73572,note_on,0,0,0,,2,,,74,127
73741,note_on,169,0,0,,6,,,66,127
73741,note_on,0,0,0,,10,,,69,127
73783,note_off,42,0,0,,2,,,74,127
73907,note_off,124,0,0,,2,,,62,127
73909,note_off,2,0,0,,10,,,69,127
73909,note_off,0,0,0,,6,,,66,127
73911,note_on,2,0,0,,7,,,67,127
73911,note_on,0,0,0,,12,,,71,127
74079,note_off,168,0,0,,12,,,71,127
74079,note_off,0,0,0,,7,,,67,127
74081,note_on,2,0,0,,4,,,64,127
74081,note_on,0,0,0,,1,,,73,127
74249,note_off,168,0,0,,1,,,73,127
74249,note_off,0,0,0,,4,,,64,127
74251,note_on,2,0,0,,6,,,66,127
74251,note_on,0,0,0,,2,,,74,127
74419,note_off,168,0,0,,2,,,74,127
74421,note_on,2,0,0,,1,,,61,127
74421,note_on,0,0,0,,7,,,79,127
74506,note_off,85,0,0,,6,,,66,127
74589,note_off,83,0,0,,7,,,79,127
74589,note_off,0,0,0,,1,,,61,127
74591,note_on,2,0,0,,2,,,62,127
74591,note_on,0,0,0,,6,,,78,127
74759,note_off,168,0,0,,6,,,78,127
74761,note_on,2,0,0,,10,,,57,127
74761,note_on,0,0,0,,4,,,76,127
74846,note_off,85,0,0,,2,,,62,127
74929,note_off,83,0,0,,4,,,76,127
74929,note_off,0,0,0,,10,,,57,127
74931,note_on,2,0,0,,2,,,62,127
74931,note_on,0,0,0,,2,,,74,127
75100,note_on,169,0,0,,6,,,66,127
75100,note_on,0,0,0,,10,,,69,127
75142,note_off,42,0,0,,2,,,74,127
75267,note_off,125,0,0,,10,,,69,127
75267,note_off,0,0,0,,6,,,66,127
75269,note_on,2,0,0,,7,,,67,127
75269,note_on,0,0,0,,12,,,71,127
75437,note_off,168,0,0,,12,,,71,127
75437,note_off,0,0,0,,7,,,67,127
75439,note_off,2,0,0,,2,,,62,127
75439,note_on,0,0,0,,4,,,64,127
75439,note_on,0,0,0,,1,,,73,127
75607,note_off,168,0,0,,1,,,73,127
75607,note_off,0,0,0,,4,,,64,127
75609,note_on,2,0,0,,6,,,66,127
75609,note_on,0,0,0,,2,,,74,127
75777,note_off,168,0,0,,2,,,74,127
75779,note_on,2,0,0,,1,,,61,127
75779,note_on,0,0,0,,7,,,79,127
75864,note_off,85,0,0,,6,,,66,127
75947,note_off,83,0,0,,7,,,79,127
75947,note_off,0,0,0,,1,,,61,127
75949,note_on,2,0,0,,2,,,62,127
75949,note_on,0,0,0,,6,,,78,127
76117,note_off,168,0,0,,6,,,78,127
76119,note_on,2,0,0,,10,,,57,127
76119,note_on,0,0,0,,4,,,76,127
76204,note_off,85,0,0,,2,,,62,127
76287,note_off,83,0,0,,4,,,76,127
76287,note_off,0,0,0,,10,,,57,127
76289,note_on,2,0,0,,2,,,62,127
76289,note_on,0,0,0,,2,,,74,127
76457,note_off,168,0,0,,2,,,74,127
76459,note_on,2,0,0,,0,,,72,127
76627,note_off,168,0,0,,0,,,72,127
76627,note_off,0,0,0,,2,,,62,127
76629,note_on,2,0,0,,2,,,62,127
76629,note_on,0,0,0,,0,,,72,127
76797,note_off,168,0,0,,0,,,72,127
76799,note_on,2,0,0,,12,,,71,127
76967,note_off,168,0,0,,12,,,71,127
76967,note_off,0,0,0,,2,,,62,127
76969,note_on,2,0,0,,2,,,62,127
76969,note_on,0,0,0,,2,,,50,127
76969,note_on,0,0,0,,12,,,71,127
76969,note_on,0,0,0,,5,,,77,127
77137,note_off,168,0,0,,12,,,71,127
77139,note_on,2,0,0,,10,,,69,127
77307,note_off,168,0,0,,10,,,69,127
77307,note_off,0,0,0,,2,,,50,127
77307,note_off,0,0,0,,2,,,62,127
77309,note_on,2,0,0,,2,,,62,127
77309,note_on,0,0,0,,2,,,50,127
77309,note_on,0,0,0,,10,,,69,127
77477,note_off,168,0,0,,10,,,69,127
77479,note_on,2,0,0,,8,,,68,127
77647,note_off,168,0,0,,8,,,68,127
77647,note_off,0,0,0,,2,,,50,127
77647,note_off,0,0,0,,2,,,62,127
77649,note_on,2,0,0,,2,,,62,127
77649,note_on,0,0,0,,4,,,52,127
77649,note_on,0,0,0,,8,,,68,127
77817,note_off,168,0,0,,5,,,77,127
77819,note_on,2,0,0,,4,,,76,127
77987,note_off,168,0,0,,4,,,76,127
77987,note_off,0,0,0,,4,,,52,127
77987,note_off,0,0,0,,2,,,62,127
77989,note_on,2,0,0,,2,,,62,127
77989,note_on,0,0,0,,4,,,52,127
77989,note_on,0,0,0,,4,,,76,127
78157,note_off,168,0,0,,4,,,76,127
78159,note_on,2,0,0,,2,,,74,127
78327,note_off,168,0,0,,2,,,74,127
78327,note_off,0,0,0,,4,,,52,127
78327,note_off,0,0,0,,2,,,62,127
78329,note_on,2,0,0,,4,,,52,127
78329,note_on,0,0,0,,2,,,62,127
78329,note_on,0,0,0,,2,,,74,127
78497,note_off,168,0,0,,2,,,74,127
78499,note_on,2,0,0,,0,,,72,127
78667,note_off,168,0,0,,0,,,72,127
78667,note_off,0,0,0,,2,,,62,127
78667,note_off,0,0,0,,4,,,52,127
78669,note_on,2,0,0,,4,,,52,127
78669,note_on,0,0,0,,2,,,62,127
78669,note_on,0,0,0,,0,,,72,127
78837,note_off,168,0,0,,0,,,72,127
78839,note_on,2,0,0,,12,,,71,127
79007,note_off,168,0,0,,12,,,71,127
79007,note_off,0,0,0,,2,,,62,127
79007,note_off,0,0,0,,4,,,52,127
79007,note_off,0,0,0,,8,,,68,127
79009,note_on,2,0,0,,4,,,52,127
79009,note_on,0,0,0,,0,,,60,127
79009,note_on,0,0,0,,0,,,72,127
79177,note_off,168,0,0,,0,,,72,127
79179,note_on,2,0,0,,12,,,71,127
79347,note_off,168,0,0,,12,,,71,127
79347,note_off,0,0,0,,0,,,60,127
79347,note_off,0,0,0,,4,,,52,127
79349,note_on,2,0,0,,4,,,52,127
79349,note_on,0,0,0,,0,,,60,127
79349,note_on,0,0,0,,12,,,71,127
79517,note_off,168,0,0,,12,,,71,127
79519,note_on,2,0,0,,10,,,69,127
79687,note_off,168,0,0,,10,,,69,127
79687,note_off,0,0,0,,0,,,60,127
79687,note_off,0,0,0,,4,,,52,127
79689,note_on,2,0,0,,0,,,60,127
79689,note_on,0,0,0,,4,,,52,127
79689,note_on,0,0,0,,4,,,76,127
79689,note_on,0,0,0,,10,,,69,127
79857,note_off,168,0,0,,10,,,69,127
79859,note_on,2,0,0,,7,,,67,127
80027,note_off,168,0,0,,7,,,67,127
80027,note_off,0,0,0,,4,,,52,127
80027,note_off,0,0,0,,0,,,60,127
80029,note_on,2,0,0,,0,,,60,127
80029,note_on,0,0,0,,4,,,52,127
80029,note_on,0,0,0,,7,,,67,127
80197,note_off,168,0,0,,7,,,67,127
80199,note_on,2,0,0,,6,,,66,127
80367,note_off,168,0,0,,6,,,66,127
80367,note_off,0,0,0,,4,,,52,127
80367,note_off,0,0,0,,0,,,60,127
80369,note_on,2,0,0,,2,,,50,127
80369,note_on,0,0,0,,0,,,60,127
80369,note_on,0,0,0,,6,,,66,127
80537,note_off,168,0,0,,4,,,76,127
80539,note_on,2,0,0,,2,,,74,127
80707,note_off,168,0,0,,2,,,74,127
80707,note_off,0,0,0,,0,,,60,127
80707,note_off,0,0,0,,2,,,50,127
80709,note_on,2,0,0,,0,,,60,127
80709,note_on,0,0,0,,2,,,50,127
80709,note_on,0,0,0,,2,,,74,127
80877,note_off,168,0,0,,2,,,74,127
80879,note_on,2,0,0,,0,,,72,127
81047,note_off,168,0,0,,0,,,72,127
81047,note_off,0,0,0,,2,,,50,127
81047,note_off,0,0,0,,0,,,60,127
81049,note_on,2,0,0,,2,,,50,127
81049,note_on,0,0,0,,0,,,60,127
81049,note_on,0,0,0,,0,,,72,127
81217,note_off,168,0,0,,0,,,72,127
81219,note_on,2,0,0,,12,,,71,127
81387,note_off,168,0,0,,12,,,71,127
81387,note_off,0,0,0,,0,,,60,127
81387,note_off,0,0,0,,2,,,50,127
81389,note_on,2,0,0,,0,,,60,127
81389,note_on,0,0,0,,2,,,50,127
81389,note_on,0,0,0,,12,,,71,127
81557,note_off,168,0,0,,12,,,71,127
81559,note_on,2,0,0,,10,,,69,127
81727,note_off,168,0,0,,10,,,69,127
81727,note_off,0,0,0,,2,,,50,127
81727,note_off,0,0,0,,0,,,60,127
81727,note_off,0,0,0,,6,,,66,127
81729,note_on,2,0,0,,2,,,50,127
81729,note_on,0,0,0,,12,,,59,127
81729,note_on,0,0,0,,12,,,71,127
81897,note_off,168,0,0,,12,,,71,127
81899,note_on,2,0,0,,10,,,69,127
82067,note_off,168,0,0,,10,,,69,127
82067,note_off,0,0,0,,12,,,59,127
82067,note_off,0,0,0,,2,,,50,127
82069,note_on,2,0,0,,2,,,50,127
82069,note_on,0,0,0,,12,,,59,127
82069,note_on,0,0,0,,10,,,69,127
82237,note_off,168,0,0,,10,,,69,127
82239,note_on,2,0,0,,7,,,67,127
82407,note_off,168,0,0,,7,,,67,127
82407,note_off,0,0,0,,12,,,59,127
82407,note_off,0,0,0,,2,,,50,127
82409,note_on,2,0,0,,2,,,50,127
82409,note_on,0,0,0,,12,,,59,127
82409,note_on,0,0,0,,7,,,67,127
82409,note_on,0,0,0,,2,,,74,127
82577,note_off,168,0,0,,7,,,67,127
82579,note_on,2,0,0,,6,,,66,127
82747,note_off,168,0,0,,6,,,66,127
82747,note_off,0,0,0,,12,,,59,127
82747,note_off,0,0,0,,2,,,50,127
82749,note_on,2,0,0,,2,,,50,127
82749,note_on,0,0,0,,12,,,59,127
82749,note_on,0,0,0,,6,,,66,127
82917,note_off,168,0,0,,6,,,66,127
82919,note_on,2,0,0,,4,,,64,127
83087,note_off,168,0,0,,4,,,64,127
83087,note_off,0,0,0,,12,,,59,127
83087,note_off,0,0,0,,2,,,50,127
83089,note_on,2,0,0,,0,,,48,127
83089,note_on,0,0,0,,12,,,59,127
83089,note_on,0,0,0,,4,,,64,127
83257,note_off,168,0,0,,2,,,74,127
83259,note_on,2,0,0,,0,,,72,127
83427,note_off,168,0,0,,0,,,72,127
83427,note_off,0,0,0,,12,,,59,127
83427,note_off,0,0,0,,0,,,48,127
83429,note_on,2,0,0,,12,,,59,127
83429,note_on,0,0,0,,0,,,48,127
83429,note_on,0,0,0,,0,,,72,127
83597,note_off,168,0,0,,0,,,72,127
83599,note_on,2,0,0,,12,,,71,127
83767,note_off,168,0,0,,12,,,71,127
83767,note_off,0,0,0,,0,,,48,127
83767,note_off,0,0,0,,12,,,59,127
83769,note_on,2,0,0,,0,,,48,127
83769,note_on,0,0,0,,12,,,59,127
83769,note_on,0,0,0,,12,,,71,127
83937,note_off,168,0,0,,12,,,71,127
83939,note_on,2,0,0,,10,,,69,127
84107,note_off,168,0,0,,10,,,69,127
84107,note_off,0,0,0,,12,,,59,127
84107,note_off,0,0,0,,0,,,48,127
84109,note_on,2,0,0,,0,,,48,127
84109,note_on,0,0,0,,12,,,59,127
84109,note_on,0,0,0,,10,,,69,127
84277,note_off,168,0,0,,10,,,69,127
84279,note_on,2,0,0,,8,,,68,127
84447,note_off,168,0,0,,8,,,68,127
84447,note_off,0,0,0,,12,,,59,127
84447,note_off,0,0,0,,0,,,48,127
84447,note_off,0,0,0,,4,,,64,127
84449,note_on,2,0,0,,10,,,57,127
84449,note_on,0,0,0,,0,,,48,127
84449,note_on,0,0,0,,10,,,69,127
84617,note_off,168,0,0,,10,,,69,127
84619,note_on,2,0,0,,7,,,67,127
84787,note_off,168,0,0,,7,,,67,127
84787,note_off,0,0,0,,0,,,48,127
84787,note_off,0,0,0,,10,,,57,127
84789,note_on,2,0,0,,10,,,57,127
84789,note_on,0,0,0,,0,,,48,127
84789,note_on,0,0,0,,7,,,67,127
84957,note_off,168,0,0,,7,,,67,127
84959,note_on,2,0,0,,6,,,66,127
85127,note_off,168,0,0,,6,,,66,127
85127,note_off,0,0,0,,0,,,48,127
85127,note_off,0,0,0,,10,,,57,127
85129,note_on,2,0,0,,0,,,48,127
85129,note_on,0,0,0,,10,,,57,127
85129,note_on,0,0,0,,0,,,72,127
85129,note_on,0,0,0,,6,,,66,127
85297,note_off,168,0,0,,6,,,66,127
85299,note_on,2,0,0,,4,,,64,127
85467,note_off,168,0,0,,4,,,64,127
85467,note_off,0,0,0,,10,,,57,127
85467,note_off,0,0,0,,0,,,48,127
85469,note_on,2,0,0,,0,,,48,127
85469,note_on,0,0,0,,10,,,57,127
85469,note_on,0,0,0,,4,,,64,127
85637,note_off,168,0,0,,4,,,64,127
85639,note_on,2,0,0,,3,,,63,127
85807,note_off,168,0,0,,3,,,63,127
85807,note_off,0,0,0,,10,,,57,127
85807,note_off,0,0,0,,0,,,48,127
85807,note_off,0,0,0,,0,,,72,127
85809,note_on,2,0,0,,12,,,47,127
85809,note_on,0,0,0,,3,,,63,127
85977,note_off,168,0,0,,12,,,47,127
85979,note_on,2,0,0,,10,,,57,127
86147,note_off,168,0,0,,10,,,57,127
86149,note_on,2,0,0,,0,,,60,127
86317,note_off,168,0,0,,0,,,60,127
86317,note_off,0,0,0,,3,,,63,127
86319,note_on,2,0,0,,12,,,59,127
86319,note_on,0,0,0,,4,,,64,127
86487,note_off,168,0,0,,4,,,64,127
86487,note_off,0,0,0,,12,,,59,127
86489,note_on,2,0,0,,10,,,57,127
86489,note_on,0,0,0,,6,,,66,127
86657,note_off,168,0,0,,6,,,66,127
86657,note_off,0,0,0,,10,,,57,127
86659,note_on,2,0,0,,7,,,55,127
86659,note_on,0,0,0,,7,,,67,127
86827,note_off,168,0,0,,7,,,67,127
86827,note_off,0,0,0,,7,,,55,127
86829,note_on,2,0,0,,6,,,54,127
86829,note_on,0,0,0,,10,,,69,127
86997,note_off,168,0,0,,10,,,69,127
86997,note_off,0,0,0,,6,,,54,127
86999,note_on,2,0,0,,4,,,52,127
86999,note_on,0,0,0,,12,,,71,127
87167,note_off,168,0,0,,12,,,71,127
87167,note_off,0,0,0,,4,,,52,127
87169,note_on,2,0,0,,3,,,51,127
87169,note_on,0,0,0,,0,,,72,127
87337,note_off,168,0,0,,0,,,72,127
87337,note_off,0,0,0,,3,,,51,127
87339,note_on,2,0,0,,10,,,57,127
87339,note_on,0,0,0,,4,,,64,127
87507,note_off,168,0,0,,4,,,64,127
87507,note_off,0,0,0,,10,,,57,127
87509,note_on,2,0,0,,0,,,60,127
87509,note_on,0,0,0,,3,,,63,127
87677,note_off,168,0,0,,3,,,63,127
87677,note_off,0,0,0,,0,,,60,127
87679,note_on,2,0,0,,12,,,59,127
87679,note_on,0,0,0,,4,,,64,127
87847,note_off,168,0,0,,4,,,64,127
87847,note_off,0,0,0,,12,,,59,127
87849,note_on,2,0,0,,10,,,57,127
87849,note_on,0,0,0,,6,,,66,127
88017,note_off,168,0,0,,6,,,66,127
88017,note_off,0,0,0,,10,,,57,127
88019,note_on,2,0,0,,7,,,55,127
88019,note_on,0,0,0,,7,,,67,127
88187,note_off,168,0,0,,7,,,67,127
88187,note_off,0,0,0,,7,,,55,127
88189,note_on,2,0,0,,6,,,54,127
88189,note_on,0,0,0,,10,,,69,127
88357,note_off,168,0,0,,10,,,69,127
88357,note_off,0,0,0,,6,,,54,127
88359,note_on,2,0,0,,4,,,52,127
88359,note_on,0,0,0,,12,,,71,127
88527,note_off,168,0,0,,12,,,71,127
88527,note_off,0,0,0,,4,,,52,127
88529,note_on,2,0,0,,3,,,51,127
88529,note_on,0,0,0,,0,,,72,127
88697,note_off,168,0,0,,0,,,72,127
88699,note_on,2,0,0,,12,,,71,127
88867,note_off,168,0,0,,12,,,71,127
88867,note_off,0,0,0,,3,,,51,127
88869,note_on,2,0,0,,3,,,51,127
88869,note_on,0,0,0,,12,,,71,127
89037,note_off,168,0,0,,12,,,71,127
89039,note_on,2,0,0,,10,,,69,127
89207,note_off,168,0,0,,10,,,69,127
89207,note_off,0,0,0,,3,,,51,127
89209,note_on,2,0,0,,12,,,47,127
89209,note_on,0,0,0,,10,,,69,127
89377,note_off,168,0,0,,10,,,69,127
89379,note_on,2,0,0,,7,,,67,127
89547,note_off,168,0,0,,7,,,67,127
89547,note_off,0,0,0,,12,,,47,127
89549,note_on,2,0,0,,12,,,47,127
89549,note_on,0,0,0,,7,,,67,127
89717,note_off,168,0,0,,7,,,67,127
89719,note_on,2,0,0,,6,,,66,127
89887,note_off,168,0,0,,6,,,66,127
89887,note_off,0,0,0,,12,,,47,127
89889,note_on,2,0,0,,4,,,52,127
89889,note_on,0,0,0,,7,,,67,127
90057,note_off,168,0,0,,7,,,67,127
90059,note_on,2,0,0,,8,,,56,127
90059,note_on,0,0,0,,4,,,64,127
90144,note_off,85,0,0,,4,,,52,127
90227,note_off,83,0,0,,4,,,64,127
90227,note_off,0,0,0,,8,,,56,127
90229,note_on,2,0,0,,10,,,57,127
90229,note_on,0,0,0,,5,,,65,127
90397,note_off,168,0,0,,5,,,65,127
90397,note_off,0,0,0,,10,,,57,127
90399,note_on,2,0,0,,12,,,59,127
90399,note_on,0,0,0,,8,,,68,127
90567,note_off,168,0,0,,8,,,68,127
90567,note_off,0,0,0,,12,,,59,127
90569,note_on,2,0,0,,0,,,60,127
90569,note_on,0,0,0,,10,,,69,127
90737,note_off,168,0,0,,10,,,69,127
90737,note_off,0,0,0,,0,,,60,127
90739,note_on,2,0,0,,3,,,63,127
90739,note_on,0,0,0,,12,,,71,127
90907,note_off,168,0,0,,12,,,71,127
90907,note_off,0,0,0,,3,,,63,127
90909,note_on,2,0,0,,4,,,64,127
90909,note_on,0,0,0,,0,,,72,127
91077,note_off,168,0,0,,0,,,72,127
91077,note_off,0,0,0,,4,,,64,127
91079,note_on,2,0,0,,6,,,66,127
91079,note_on,0,0,0,,3,,,75,127
91247,note_off,168,0,0,,3,,,75,127
91247,note_off,0,0,0,,6,,,66,127
91249,note_on,2,0,0,,7,,,67,127
91249,note_on,0,0,0,,4,,,76,127
91417,note_off,168,0,0,,7,,,67,127
91419,note_on,2,0,0,,8,,,56,127
91419,note_on,0,0,0,,4,,,64,127
91585,note_off,166,0,0,,4,,,76,127
91587,note_off,2,0,0,,4,,,64,127
91587,note_off,0,0,0,,8,,,56,127
91589,note_on,2,0,0,,10,,,57,127
91589,note_on,0,0,0,,5,,,65,127
91757,note_off,168,0,0,,5,,,65,127
91757,note_off,0,0,0,,10,,,57,127
91759,note_on,2,0,0,,12,,,59,127
91759,note_on,0,0,0,,8,,,68,127
91927,note_off,168,0,0,,8,,,68,127
91927,note_off,0,0,0,,12,,,59,127
91929,note_on,2,0,0,,0,,,60,127
91929,note_on,0,0,0,,10,,,69,127
92097,note_off,168,0,0,,10,,,69,127
92097,note_off,0,0,0,,0,,,60,127
92099,note_on,2,0,0,,3,,,63,127
92099,note_on,0,0,0,,12,,,71,127
92267,note_off,168,0,0,,12,,,71,127
92267,note_off,0,0,0,,3,,,63,127
92269,note_on,2,0,0,,4,,,64,127
92269,note_on,0,0,0,,0,,,72,127
92437,note_off,168,0,0,,0,,,72,127
92437,note_off,0,0,0,,4,,,64,127
92439,note_on,2,0,0,,6,,,66,127
92439,note_on,0,0,0,,3,,,75,127
92607,note_off,168,0,0,,3,,,75,127
92607,note_off,0,0,0,,6,,,66,127
92609,note_on,2,0,0,,7,,,67,127
92609,note_on,0,0,0,,4,,,76,127
92777,note_off,168,0,0,,4,,,76,127
92779,note_on,2,0,0,,2,,,74,127
92947,note_off,168,0,0,,2,,,74,127
92947,note_off,0,0,0,,7,,,67,127
92949,note_on,2,0,0,,7,,,67,127
92949,note_on,0,0,0,,0,,,72,127
93117,note_off,168,0,0,,0,,,72,127
93119,note_on,2,0,0,,12,,,71,127
93287,note_off,168,0,0,,12,,,71,127
93287,note_off,0,0,0,,7,,,67,127
93289,note_on,2,0,0,,7,,,55,127
93289,note_on,0,0,0,,12,,,83,127
93457,note_off,168,0,0,,12,,,83,127
93459,note_on,2,0,0,,10,,,81,127
93627,note_off,168,0,0,,10,,,81,127
93627,note_off,0,0,0,,7,,,55,127
93629,note_on,2,0,0,,7,,,55,127
93629,note_on,0,0,0,,10,,,81,127
93797,note_off,168,0,0,,10,,,81,127
93799,note_on,2,0,0,,7,,,79,127
93967,note_off,168,0,0,,7,,,79,127
93967,note_off,0,0,0,,7,,,55,127
93969,note_on,2,0,0,,4,,,64,127
93969,note_on,0,0,0,,6,,,66,127
93969,note_on,0,0,0,,10,,,57,127
93969,note_on,0,0,0,,7,,,79,127
94137,note_off,168,0,0,,7,,,79,127
94139,note_on,2,0,0,,6,,,78,127
94307,note_off,168,0,0,,6,,,78,127
94307,note_off,0,0,0,,10,,,57,127
94307,note_off,0,0,0,,6,,,66,127
94307,note_off,0,0,0,,4,,,64,127
94309,note_on,2,0,0,,4,,,64,127
94309,note_on,0,0,0,,6,,,66,127
94309,note_on,0,0,0,,10,,,57,127
94309,note_on,0,0,0,,6,,,78,127
94477,note_off,168,0,0,,6,,,78,127
94479,note_on,2,0,0,,4,,,76,127
94647,note_off,168,0,0,,4,,,76,127
94647,note_off,0,0,0,,10,,,57,127
94647,note_off,0,0,0,,6,,,66,127
94647,note_off,0,0,0,,4,,,64,127
94649,note_on,2,0,0,,6,,,66,127
94649,note_on,0,0,0,,12,,,59,127
94649,note_on,0,0,0,,4,,,76,127
94817,note_off,168,0,0,,4,,,76,127
94819,note_on,2,0,0,,6,,,78,127
94987,note_off,168,0,0,,6,,,78,127
94987,note_off,0,0,0,,12,,,59,127
94987,note_off,0,0,0,,6,,,66,127
94989,note_on,2,0,0,,12,,,59,127
94989,note_on,0,0,0,,6,,,66,127
94989,note_on,0,0,0,,4,,,76,127
95157,note_off,168,0,0,,4,,,76,127
95159,note_on,2,0,0,,3,,,75,127
95327,note_off,168,0,0,,3,,,75,127
95327,note_off,0,0,0,,6,,,66,127
95327,note_off,0,0,0,,12,,,59,127
95329,note_on,2,0,0,,4,,,52,127
95329,note_on,0,0,0,,4,,,76,127
95498,note_on,169,0,0,,8,,,56,127
95498,note_on,0,0,0,,4,,,64,127
95664,note_off,166,0,0,,4,,,76,127
95664,note_off,0,0,0,,4,,,52,127
95666,note_off,2,0,0,,4,,,64,127
95666,note_off,0,0,0,,8,,,56,127
95668,note_on,2,0,0,,10,,,57,127
95668,note_on,0,0,0,,5,,,65,127
95836,note_off,168,0,0,,5,,,65,127
95836,note_off,0,0,0,,10,,,57,127
95838,note_on,2,0,0,,12,,,59,127
95838,note_on,0,0,0,,8,,,68,127
96006,note_off,168,0,0,,8,,,68,127
96006,note_off,0,0,0,,12,,,59,127
96008,note_on,2,0,0,,0,,,60,127
96008,note_on,0,0,0,,10,,,69,127
96176,note_off,168,0,0,,10,,,69,127
96176,note_off,0,0,0,,0,,,60,127
96178,note_on,2,0,0,,3,,,63,127
96178,note_on,0,0,0,,12,,,71,127
96346,note_off,168,0,0,,12,,,71,127
96346,note_off,0,0,0,,3,,,63,127
96348,note_on,2,0,0,,4,,,64,127
96348,note_on,0,0,0,,0,,,72,127
96516,note_off,168,0,0,,0,,,72,127
96516,note_off,0,0,0,,4,,,64,127
96518,note_on,2,0,0,,6,,,66,127
96518,note_on,0,0,0,,3,,,75,127
96686,note_off,168,0,0,,3,,,75,127
96686,note_off,0,0,0,,6,,,66,127
96688,note_on,2,0,0,,7,,,67,127
96688,note_on,0,0,0,,4,,,76,127
96856,note_off,168,0,0,,7,,,67,127
96858,note_on,2,0,0,,8,,,56,127
96858,note_on,0,0,0,,4,,,64,127
97024,note_off,166,0,0,,4,,,76,127
97026,note_off,2,0,0,,4,,,64,127
97026,note_off,0,0,0,,8,,,56,127
97028,note_on,2,0,0,,10,,,57,127
97028,note_on,0,0,0,,5,,,65,127
97196,note_off,168,0,0,,5,,,65,127
97196,note_off,0,0,0,,10,,,57,127
97198,note_on,2,0,0,,12,,,59,127
97198,note_on,0,0,0,,8,,,68,127
97366,note_off,168,0,0,,8,,,68,127
97366,note_off,0,0,0,,12,,,59,127
97368,note_on,2,0,0,,0,,,60,127
97368,note_on,0,0,0,,10,,,69,127
97536,note_off,168,0,0,,10,,,69,127
97536,note_off,0,0,0,,0,,,60,127
97538,note_on,2,0,0,,3,,,63,127
97538,note_on,0,0,0,,12,,,71,127
97706,note_off,168,0,0,,12,,,71,127
97706,note_off,0,0,0,,3,,,63,127
97708,note_on,2,0,0,,4,,,64,127
97708,note_on,0,0,0,,0,,,72,127
97876,note_off,168,0,0,,0,,,72,127
97876,note_off,0,0,0,,4,,,64,127
97878,note_on,2,0,0,,6,,,66,127
97878,note_on,0,0,0,,3,,,75,127
98046,note_off,168,0,0,,3,,,75,127
98046,note_off,0,0,0,,6,,,66,127
98048,note_on,2,0,0,,7,,,67,127
98048,note_on,0,0,0,,4,,,76,127
98216,note_off,168,0,0,,4,,,76,127
98218,note_on,2,0,0,,2,,,74,127
98386,note_off,168,0,0,,2,,,74,127
98386,note_off,0,0,0,,7,,,67,127
98388,note_on,2,0,0,,7,,,67,127
98388,note_on,0,0,0,,0,,,72,127
98556,note_off,168,0,0,,0,,,72,127
98558,note_on,2,0,0,,12,,,71,127
98726,note_off,168,0,0,,12,,,71,127
98726,note_off,0,0,0,,7,,,67,127
98728,note_on,2,0,0,,7,,,55,127
98728,note_on,0,0,0,,12,,,83,127
98896,note_off,168,0,0,,12,,,83,127
98898,note_on,2,0,0,,10,,,81,127
99066,note_off,168,0,0,,10,,,81,127
99066,note_off,0,0,0,,7,,,55,127
99068,note_on,2,0,0,,7,,,55,127
99068,note_on,0,0,0,,10,,,81,127
99236,note_off,168,0,0,,10,,,81,127
99238,note_on,2,0,0,,7,,,79,127
99406,note_off,168,0,0,,7,,,79,127
99406,note_off,0,0,0,,7,,,55,127
99408,note_on,2,0,0,,10,,,57,127
99408,note_on,0,0,0,,4,,,64,127
99408,note_on,0,0,0,,6,,,66,127
99408,note_on,0,0,0,,7,,,79,127
99576,note_off,168,0,0,,7,,,79,127
99578,note_on,2,0,0,,6,,,78,127
99746,note_off,168,0,0,,6,,,78,127
99746,note_off,0,0,0,,6,,,66,127
99746,note_off,0,0,0,,4,,,64,127
99746,note_off,0,0,0,,10,,,57,127
99748,note_on,2,0,0,,6,,,66,127
99748,note_on,0,0,0,,4,,,64,127
99748,note_on,0,0,0,,10,,,57,127
99748,note_on,0,0,0,,6,,,78,127
99916,note_off,168,0,0,,6,,,78,127
99918,note_on,2,0,0,,4,,,76,127
100086,note_off,168,0,0,,4,,,76,127
100086,note_off,0,0,0,,10,,,57,127
100086,note_off,0,0,0,,4,,,64,127
100086,note_off,0,0,0,,6,,,66,127
100088,note_on,2,0,0,,12,,,59,127
100088,note_on,0,0,0,,6,,,66,127
100088,note_on,0,0,0,,4,,,76,127
100256,note_off,168,0,0,,4,,,76,127
100258,note_on,2,0,0,,6,,,78,127
100426,note_off,168,0,0,,6,,,78,127
100426,note_off,0,0,0,,6,,,66,127
100426,note_off,0,0,0,,12,,,59,127
100428,note_on,2,0,0,,6,,,66,127
100428,note_on,0,0,0,,12,,,59,127
100428,note_on,0,0,0,,4,,,76,127
100596,note_off,168,0,0,,4,,,76,127
100598,note_on,2,0,0,,3,,,75,127
100766,note_off,168,0,0,,3,,,75,127
100766,note_off,0,0,0,,12,,,59,127
100766,note_off,0,0,0,,6,,,66,127
100768,note_on,2,0,0,,4,,,76,127
100936,note_off,168,0,0,,4,,,76,127
100938,note_on,2,0,0,,7,,,79,127
101107,note_on,169,0,0,,4,,,64,127
101107,note_on,0,0,0,,4,,,52,127
101107,note_on,0,0,0,,7,,,67,127
101275,note_off,168,0,0,,7,,,67,127
101277,note_on,2,0,0,,10,,,69,127
101445,note_off,168,0,0,,10,,,69,127
101445,note_off,0,0,0,,7,,,79,127
101447,note_on,2,0,0,,12,,,71,127
101615,note_off,168,0,0,,12,,,71,127
101617,note_on,2,0,0,,6,,,78,127
101785,note_off,168,0,0,,4,,,52,127
101785,note_off,0,0,0,,4,,,64,127
101787,note_on,2,0,0,,2,,,62,127
101787,note_on,0,0,0,,2,,,50,127
101787,note_on,0,0,0,,6,,,66,127
101955,note_off,168,0,0,,6,,,66,127
101957,note_on,2,0,0,,7,,,67,127
102125,note_off,168,0,0,,7,,,67,127
102125,note_off,0,0,0,,6,,,78,127
102127,note_on,2,0,0,,10,,,69,127
102295,note_off,168,0,0,,10,,,69,127
102297,note_on,2,0,0,,4,,,76,127
102465,note_off,168,0,0,,2,,,50,127
102465,note_off,0,0,0,,2,,,62,127
102467,note_on,2,0,0,,0,,,60,127
102467,note_on,0,0,0,,0,,,48,127
102467,note_on,0,0,0,,4,,,64,127
102635,note_off,168,0,0,,4,,,64,127
102637,note_on,2,0,0,,6,,,66,127
102805,note_off,168,0,0,,6,,,66,127
102805,note_off,0,0,0,,4,,,76,127
102807,note_on,2,0,0,,7,,,67,127
102975,note_off,168,0,0,,7,,,67,127
102977,note_on,2,0,0,,10,,,69,127
103145,note_off,168,0,0,,10,,,69,127
103145,note_off,0,0,0,,0,,,48,127
103145,note_off,0,0,0,,0,,,60,127
103147,note_on,2,0,0,,12,,,59,127
103147,note_on,0,0,0,,12,,,47,127
103147,note_on,0,0,0,,3,,,75,127
103147,note_on,0,0,0,,12,,,71,127
103315,note_off,168,0,0,,12,,,71,127
103317,note_on,2,0,0,,6,,,66,127
103485,note_off,168,0,0,,6,,,66,127
103485,note_off,0,0,0,,3,,,75,127
103487,note_on,2,0,0,,4,,,76,127
103655,note_off,168,0,0,,4,,,76,127
103655,note_off,0,0,0,,12,,,47,127
103655,note_off,0,0,0,,12,,,59,127
103657,note_on,2,0,0,,7,,,79,127
103826,note_on,169,0,0,,4,,,64,127
103826,note_on,0,0,0,,4,,,52,127
103826,note_on,0,0,0,,7,,,67,127
103994,note_off,168,0,0,,7,,,67,127
103996,note_on,2,0,0,,10,,,69,127
104164,note_off,168,0,0,,10,,,69,127
104164,note_off,0,0,0,,7,,,79,127
104166,note_on,2,0,0,,12,,,71,127
104334,note_off,168,0,0,,12,,,71,127
104336,note_on,2,0,0,,6,,,78,127
104504,note_off,168,0,0,,4,,,52,127
104504,note_off,0,0,0,,4,,,64,127
104506,note_on,2,0,0,,2,,,62,127
104506,note_on,0,0,0,,2,,,50,127
104506,note_on,0,0,0,,6,,,66,127
104674,note_off,168,0,0,,6,,,66,127
104676,note_on,2,0,0,,7,,,67,127
104844,note_off,168,0,0,,7,,,67,127
104844,note_off,0,0,0,,6,,,78,127
104846,note_on,2,0,0,,10,,,69,127
105014,note_off,168,0,0,,10,,,69,127
105016,note_on,2,0,0,,4,,,76,127
105184,note_off,168,0,0,,2,,,50,127
105184,note_off,0,0,0,,2,,,62,127
105186,note_on,2,0,0,,0,,,60,127
105186,note_on,0,0,0,,0,,,48,127
105186,note_on,0,0,0,,4,,,64,127
105354,note_off,168,0,0,,4,,,64,127
105356,note_on,2,0,0,,6,,,66,127
105524,note_off,168,0,0,,6,,,66,127
105524,note_off,0,0,0,,4,,,76,127
105526,note_on,2,0,0,,8,,,68,127
105694,note_off,168,0,0,,8,,,68,127
105696,note_on,2,0,0,,10,,,69,127
105864,note_off,168,0,0,,10,,,69,127
105864,note_off,0,0,0,,0,,,48,127
105864,note_off,0,0,0,,0,,,60,127
105866,note_on,2,0,0,,12,,,59,127
105866,note_on,0,0,0,,12,,,47,127
105866,note_on,0,0,0,,2,,,74,127
105866,note_on,0,0,0,,12,,,71,127
106034,note_off,168,0,0,,12,,,71,127
106036,note_on,2,0,0,,8,,,68,127
106204,note_off,168,0,0,,8,,,68,127
106204,note_off,0,0,0,,2,,,74,127
106204,note_off,0,0,0,,12,,,47,127
106204,note_off,0,0,0,,12,,,59,127
106206,note_on,2,0,0,,10,,,57,127
106206,note_on,0,0,0,,10,,,45,127
106206,note_on,0,0,0,,0,,,72,127
106374,note_off,168,0,0,,0,,,72,127
106376,note_on,2,0,0,,10,,,69,127
106544,note_off,168,0,0,,10,,,69,127
106544,note_off,0,0,0,,10,,,45,127
106544,note_off,0,0,0,,10,,,57,127
106546,note_on,2,0,0,,0,,,60,127
106546,note_on,0,0,0,,3,,,75,127
106714,note_off,168,0,0,,0,,,60,127
106716,note_on,2,0,0,,12,,,59,127
106884,note_off,168,0,0,,12,,,59,127
106886,note_on,2,0,0,,10,,,57,127
107020,note_off,134,0,0,,3,,,75,127
107054,note_off,34,0,0,,10,,,57,127
107056,note_on,2,0,0,,7,,,55,127
107056,note_on,0,0,0,,4,,,76,127
107224,note_off,168,0,0,,4,,,76,127
107224,note_off,0,0,0,,7,,,55,127
107226,note_on,2,0,0,,6,,,54,127
107226,note_on,0,0,0,,3,,,75,127
107394,note_off,168,0,0,,3,,,75,127
107394,note_off,0,0,0,,6,,,54,127
107396,note_on,2,0,0,,4,,,52,127
107396,note_on,0,0,0,,4,,,76,127
107564,note_off,168,0,0,,4,,,76,127
107564,note_off,0,0,0,,4,,,52,127
107566,note_on,2,0,0,,3,,,51,127
107566,note_on,0,0,0,,6,,,78,127
107734,note_off,168,0,0,,6,,,78,127
107736,note_on,2,0,0,,4,,,76,127
107904,note_off,168,0,0,,4,,,76,127
107904,note_off,0,0,0,,3,,,51,127
107906,note_on,2,0,0,,0,,,60,127
107906,note_on,0,0,0,,3,,,75,127
108074,note_off,168,0,0,,0,,,60,127
108076,note_on,2,0,0,,12,,,59,127
108244,note_off,168,0,0,,12,,,59,127
108246,note_on,2,0,0,,10,,,57,127
108380,note_off,134,0,0,,3,,,75,127
108414,note_off,34,0,0,,10,,,57,127
108416,note_on,2,0,0,,7,,,55,127
108416,note_on,0,0,0,,4,,,76,127
108584,note_off,168,0,0,,4,,,76,127
108584,note_off,0,0,0,,7,,,55,127
108586,note_on,2,0,0,,6,,,54,127
108586,note_on,0,0,0,,3,,,75,127
108754,note_off,168,0,0,,3,,,75,127
108754,note_off,0,0,0,,6,,,54,127
108756,note_on,2,0,0,,4,,,52,127
108756,note_on,0,0,0,,4,,,76,127
108924,note_off,168,0,0,,4,,,76,127
108924,note_off,0,0,0,,4,,,52,127
108926,note_on,2,0,0,,3,,,51,127
108926,note_on,0,0,0,,6,,,78,127
109094,note_off,168,0,0,,6,,,78,127
109096,note_on,2,0,0,,4,,,76,127
109264,note_off,168,0,0,,4,,,76,127
109264,note_off,0,0,0,,3,,,51,127
109266,note_on,2,0,0,,10,,,57,127
109266,note_on,0,0,0,,3,,,75,127
109434,note_off,168,0,0,,10,,,57,127
109436,note_on,2,0,0,,7,,,55,127
109604,note_off,168,0,0,,7,,,55,127
109606,note_on,2,0,0,,6,,,54,127
109740,note_off,134,0,0,,3,,,75,127
109774,note_off,34,0,0,,6,,,54,127
109776,note_on,2,0,0,,4,,,52,127
109776,note_on,0,0,0,,4,,,76,127
109944,note_off,168,0,0,,4,,,76,127
109944,note_off,0,0,0,,4,,,52,127
109946,note_on,2,0,0,,3,,,51,127
109946,note_on,0,0,0,,6,,,78,127
110114,note_off,168,0,0,,6,,,78,127
110114,note_off,0,0,0,,3,,,51,127
110116,note_on,2,0,0,,1,,,49,127
110116,note_on,0,0,0,,7,,,79,127
110284,note_off,168,0,0,,7,,,79,127
110284,note_off,0,0,0,,1,,,49,127
110286,note_on,2,0,0,,12,,,47,127
110286,note_on,0,0,0,,10,,,81,127
110454,note_off,168,0,0,,10,,,81,127
110456,note_on,2,0,0,,7,,,79,127
110624,note_off,168,0,0,,7,,,79,127
110624,note_off,0,0,0,,12,,,47,127
110626,note_on,2,0,0,,10,,,57,127
110626,note_on,0,0,0,,6,,,78,127
110794,note_off,168,0,0,,10,,,57,127
110796,note_on,2,0,0,,7,,,55,127
110964,note_off,168,0,0,,7,,,55,127
110966,note_on,2,0,0,,6,,,54,127
111100,note_off,134,0,0,,6,,,78,127
111134,note_off,34,0,0,,6,,,54,127
111136,note_on,2,0,0,,4,,,52,127
111136,note_on,0,0,0,,7,,,79,127
111304,note_off,168,0,0,,7,,,79,127
111304,note_off,0,0,0,,4,,,52,127
111306,note_on,2,0,0,,3,,,51,127
111306,note_on,0,0,0,,6,,,78,127
111474,note_off,168,0,0,,6,,,78,127
111474,note_off,0,0,0,,3,,,51,127
111476,note_on,2,0,0,,1,,,49,127
111476,note_on,0,0,0,,7,,,79,127
111644,note_off,168,0,0,,7,,,79,127
111644,note_off,0,0,0,,1,,,49,127
111646,note_on,2,0,0,,12,,,47,127
111646,note_on,0,0,0,,10,,,81,127
111814,note_off,168,0,0,,10,,,81,127
111816,note_on,2,0,0,,0,,,84,127
111984,note_off,168,0,0,,0,,,84,127
111986,note_on,2,0,0,,12,,,83,127
112154,note_off,168,0,0,,12,,,83,127
112156,note_on,2,0,0,,10,,,81,127
112324,note_off,168,0,0,,10,,,81,127
112324,note_off,0,0,0,,12,,,47,127
112326,note_on,2,0,0,,12,,,59,127
112326,note_on,0,0,0,,7,,,79,127
112494,note_off,168,0,0,,7,,,79,127
112496,note_on,2,0,0,,6,,,78,127
112664,note_off,168,0,0,,6,,,78,127
112664,note_off,0,0,0,,12,,,59,127
112666,note_on,2,0,0,,10,,,57,127
112666,note_on,0,0,0,,4,,,76,127
112834,note_off,168,0,0,,4,,,76,127
112836,note_on,2,0,0,,3,,,75,127
113004,note_off,168,0,0,,3,,,75,127
113004,note_off,0,0,0,,10,,,57,127
113006,note_on,2,0,0,,7,,,55,127
113006,note_on,0,0,0,,4,,,76,127
113174,note_off,168,0,0,,4,,,76,127
113176,note_on,2,0,0,,12,,,83,127
113344,note_off,168,0,0,,12,,,83,127
113344,note_off,0,0,0,,7,,,55,127
113346,note_on,2,0,0,,10,,,57,127
113346,note_on,0,0,0,,0,,,84,127
113514,note_off,168,0,0,,0,,,84,127
113516,note_on,2,0,0,,7,,,79,127
113684,note_off,168,0,0,,7,,,79,127
113684,note_off,0,0,0,,10,,,57,127
113686,note_on,2,0,0,,12,,,59,127
113686,note_on,0,0,0,,6,,,78,127
113854,note_off,168,0,0,,6,,,78,127
113856,note_on,2,0,0,,4,,,76,127
114024,note_off,168,0,0,,4,,,76,127
114024,note_off,0,0,0,,12,,,59,127
114026,note_on,2,0,0,,10,,,57,127
114026,note_on,0,0,0,,4,,,76,127
114194,note_off,168,0,0,,4,,,76,127
114196,note_on,2,0,0,,3,,,75,127
114364,note_off,168,0,0,,3,,,75,127
114364,note_off,0,0,0,,10,,,57,127
114366,note_on,2,0,0,,7,,,55,127
114366,note_on,0,0,0,,4,,,76,127
114534,note_off,168,0,0,,4,,,76,127
114536,note_on,2,0,0,,12,,,71,127
114704,note_off,168,0,0,,12,,,71,127
114704,note_off,0,0,0,,7,,,55,127
114706,note_on,2,0,0,,10,,,57,127
114706,note_on,0,0,0,,0,,,72,127
114874,note_off,168,0,0,,0,,,72,127
114876,note_on,2,0,0,,7,,,67,127
115044,note_off,168,0,0,,7,,,67,127
115044,note_off,0,0,0,,10,,,57,127
115046,note_on,2,0,0,,12,,,59,127
115046,note_on,0,0,0,,6,,,66,127
115214,note_off,168,0,0,,6,,,66,127
115216,note_on,2,0,0,,4,,,64,127
115384,note_off,168,0,0,,4,,,64,127
115384,note_off,0,0,0,,12,,,59,127
115386,note_on,2,0,0,,10,,,57,127
115386,note_on,0,0,0,,4,,,64,127
115554,note_off,168,0,0,,4,,,64,127
115556,note_on,2,0,0,,3,,,63,127
115724,note_off,168,0,0,,3,,,63,127
115724,note_off,0,0,0,,10,,,57,127
115726,note_on,2,0,0,,7,,,55,127
115726,note_on,0,0,0,,4,,,64,127
115894,note_off,168,0,0,,4,,,64,127
115896,note_on,2,0,0,,12,,,59,127
116064,note_off,168,0,0,,12,,,59,127
116066,note_on,2,0,0,,10,,,45,127
116066,note_on,0,0,0,,0,,,60,127
116234,note_off,168,0,0,,0,,,60,127
116236,note_on,2,0,0,,10,,,57,127
116404,note_off,168,0,0,,10,,,57,127
116404,note_off,0,0,0,,10,,,45,127
116404,note_off,0,0,0,,7,,,55,127
116406,note_on,2,0,0,,12,,,47,127
116406,note_on,0,0,0,,7,,,55,127
116574,note_off,168,0,0,,7,,,55,127
116576,note_on,2,0,0,,4,,,64,127
116744,note_off,168,0,0,,4,,,64,127
116744,note_off,0,0,0,,12,,,47,127
116746,note_on,2,0,0,,12,,,47,127
116746,note_on,0,0,0,,6,,,54,127
116914,note_off,168,0,0,,6,,,54,127
116916,note_on,2,0,0,,3,,,63,127
117084,note_off,168,0,0,,3,,,63,127
117084,note_off,0,0,0,,12,,,47,127
117086,note_on,2,0,0,,4,,,52,127
117086,note_on,0,0,0,,4,,,40,127
117086,note_on,0,0,0,,3,,,63,127
117594,note_off,508,0,0,,3,,,63,127
117594,note_on,0,0,0,,4,,,64,127
120474,note_off,2880,0,0,,4,,,64,127
120474,note_off,0,0,0,,4,,,40,127
120474,note_off,0,0,0,,4,,,52,127
121344,end_of_track,870,1,0,,,,,,
