tick,type,time,meta,track,program,channel,pitch,tempo,note,velocity
0,copyright,0,1,0,,,,,,
0,program_change,0,0,0,6,0,,,,
0,pitchwheel,0,0,0,,0,0,,,
0,program_change,0,0,0,6,1,,,,
0,pitchwheel,0,0,0,,1,-590,,,
0,program_change,0,0,0,6,2,,,,
0,pitchwheel,0,0,0,,2,-272,,,
0,program_change,0,0,0,6,3,,,,
0,pitchwheel,0,0,0,,3,-353,,,
0,program_change,0,0,0,6,4,,,,
0,pitchwheel,0,0,0,,4,-560,,,
0,program_change,0,0,0,6,5,,,,
0,pitchwheel,0,0,0,,5,-80,,,
0,program_change,0,0,0,6,6,,,,
0,pitchwheel,0,0,0,,6,-625,,,
0,program_change,0,0,0,6,7,,,,
0,pitchwheel,0,0,0,,7,-130,,,
0,program_change,0,0,0,6,8,,,,
0,pitchwheel,0,0,0,,8,-512,,,
0,program_change,0,0,0,6,10,,,,
0,pitchwheel,0,0,0,,10,-464,,,
0,program_change,0,0,0,6,11,,,,
0,pitchwheel,0,0,0,,11,-208,,,
0,program_change,0,0,0,6,12,,,,
0,pitchwheel,0,0,0,,12,-553,,,
0,set_tempo,0,1,0,,,,500000,,
100,note_on,100,0,0,,4,,,76,127
298,note_off,198,0,0,,4,,,76,127
300,note_on,2,0,0,,4,,,76,127
498,note_off,198,0,0,,4,,,76,127
500,note_on,2,0,0,,4,,,76,127
698,note_off,198,0,0,,4,,,76,127
700,note_on,2,0,0,,10,,,81,127
798,note_off,98,0,0,,10,,,81,127
800,note_on,2,0,0,,7,,,79,127
898,note_off,98,0,0,,7,,,79,127
900,note_on,2,0,0,,6,,,78,127
998,note_off,98,0,0,,6,,,78,127
1000,note_on,2,0,0,,4,,,76,127
1098,note_off,98,0,0,,4,,,76,127
1100,note_on,2,0,0,,3,,,75,127
1198,note_off,98,0,0,,3,,,75,127
1200,note_on,2,0,0,,4,,,76,127
1298,note_off,98,0,0,,4,,,76,127
1300,note_on,2,0,0,,12,,,71,127
1300,note_on,0,0,0,,6,,,78,127
1498,note_off,198,0,0,,12,,,71,127
1500,note_on,2,0,0,,12,,,71,127
1698,note_off,198,0,0,,12,,,71,127
1698,note_off,0,0,0,,6,,,78,127
1700,note_on,2,0,0,,12,,,71,127
1700,note_on,0,0,0,,7,,,79,127
1898,note_off,198,0,0,,7,,,79,127
1898,note_off,0,0,0,,12,,,71,127
1900,note_on,2,0,0,,0,,,72,127
1900,note_on,0,0,0,,6,,,78,127
2098,note_off,198,0,0,,0,,,72,127
2100,note_on,2,0,0,,12,,,71,127
2198,note_off,98,0,0,,12,,,71,127
2200,note_off,2,0,0,,6,,,78,127
2200,note_on,0,0,0,,10,,,69,127
2298,note_off,98,0,0,,10,,,69,127
2300,note_on,2,0,0,,7,,,67,127
2300,note_on,0,0,0,,4,,,76,127
2398,note_off,98,0,0,,7,,,67,127
2400,note_on,2,0,0,,10,,,69,127
2498,note_off,98,0,0,,10,,,69,127
2500,note_on,2,0,0,,12,,,71,127
2598,note_off,98,0,0,,4,,,76,127
2600,note_on,2,0,0,,3,,,75,127
2698,note_off,98,0,0,,3,,,75,127
2700,note_on,2,0,0,,4,,,76,127
2798,note_off,98,0,0,,4,,,76,127
2800,note_on,2,0,0,,6,,,78,127
2898,note_off,98,0,0,,6,,,78,127
2900,note_on,2,0,0,,7,,,79,127
3098,note_off,198,0,0,,7,,,79,127
3100,note_on,2,0,0,,0,,,72,127
3298,note_off,198,0,0,,12,,,71,127
3300,note_on,2,0,0,,10,,,69,127
3398,note_off,98,0,0,,10,,,69,127
3400,note_on,2,0,0,,7,,,67,127
3498,note_off,98,0,0,,7,,,67,127
3498,note_off,0,0,0,,0,,,72,127
3500,note_on,2,0,0,,6,,,66,127
3500,note_on,0,0,0,,10,,,81,127
3598,note_off,98,0,0,,6,,,66,127
3600,note_on,2,0,0,,4,,,64,127
3698,note_off,98,0,0,,4,,,64,127
3700,note_on,2,0,0,,3,,,63,127
3700,note_on,0,0,0,,12,,,71,127
3896,note_off,196,0,0,,10,,,81,127
3900,note_on,4,0,0,,10,,,81,127
3998,note_off,98,0,0,,3,,,63,127
4000,note_on,2,0,0,,6,,,66,127
4098,note_off,98,0,0,,6,,,66,127
4098,note_off,0,0,0,,10,,,81,127
4100,note_on,2,0,0,,4,,,64,127
4100,note_on,0,0,0,,7,,,79,127
4200,note_off,100,0,0,,12,,,71,127
4298,note_off,98,0,0,,4,,,64,127
4300,note_on,2,0,0,,10,,,57,127
4356,note_off,56,0,0,,7,,,79,127
4400,note_on,44,0,0,,6,,,78,127
4498,note_off,98,0,0,,10,,,57,127
4500,note_on,2,0,0,,12,,,59,127
4567,note_off,67,0,0,,6,,,78,127
4600,note_on,33,0,0,,4,,,76,127
4700,note_on,100,0,0,,12,,,47,127
4767,note_off,67,0,0,,4,,,76,127
4800,note_on,33,0,0,,3,,,75,127
4896,note_off,96,0,0,,12,,,59,127
4898,note_off,2,0,0,,3,,,75,127
4898,note_off,0,0,0,,12,,,47,127
4900,note_on,2,0,0,,4,,,52,127
4900,note_on,0,0,0,,4,,,76,127
5098,note_off,198,0,0,,4,,,52,127
5100,note_on,2,0,0,,4,,,52,127
5298,note_off,198,0,0,,4,,,52,127
5300,note_on,2,0,0,,4,,,52,127
5400,note_off,100,0,0,,4,,,76,127
5498,note_off,98,0,0,,4,,,52,127
5500,note_on,2,0,0,,0,,,60,127
5500,note_on,0,0,0,,4,,,64,127
5698,note_off,198,0,0,,4,,,64,127
5700,note_on,2,0,0,,4,,,64,127
5898,note_off,198,0,0,,4,,,64,127
5900,note_on,2,0,0,,4,,,64,127
6098,note_off,198,0,0,,4,,,64,127
6098,note_off,0,0,0,,0,,,60,127
6100,note_on,2,0,0,,10,,,57,127
6100,note_on,0,0,0,,0,,,72,127
6298,note_off,198,0,0,,10,,,57,127
6300,note_on,2,0,0,,10,,,57,127
6498,note_off,198,0,0,,10,,,57,127
6500,note_on,2,0,0,,10,,,57,127
6698,note_off,198,0,0,,10,,,57,127
6698,note_off,0,0,0,,0,,,72,127
6700,note_on,2,0,0,,6,,,66,127
6700,note_on,0,0,0,,10,,,69,127
6898,note_off,198,0,0,,10,,,69,127
6900,note_on,2,0,0,,10,,,69,127
7098,note_off,198,0,0,,10,,,69,127
7100,note_on,2,0,0,,10,,,69,127
7298,note_off,198,0,0,,10,,,69,127
7298,note_off,0,0,0,,6,,,66,127
7300,note_on,2,0,0,,2,,,62,127
7300,note_on,0,0,0,,6,,,78,127
7498,note_off,198,0,0,,2,,,62,127
7500,note_on,2,0,0,,2,,,62,127
7698,note_off,198,0,0,,2,,,62,127
7700,note_on,2,0,0,,2,,,62,127
7898,note_off,198,0,0,,2,,,62,127
7898,note_off,0,0,0,,6,,,78,127
7900,note_on,2,0,0,,12,,,71,127
7900,note_on,0,0,0,,2,,,74,127
8098,note_off,198,0,0,,2,,,74,127
8100,note_on,2,0,0,,2,,,74,127
8298,note_off,198,0,0,,2,,,74,127
8300,note_on,2,0,0,,2,,,74,127
8498,note_off,198,0,0,,2,,,74,127
8498,note_off,0,0,0,,12,,,71,127
8500,note_on,2,0,0,,7,,,67,127
8500,note_on,0,0,0,,12,,,83,127
8698,note_off,198,0,0,,7,,,67,127
8700,note_on,2,0,0,,7,,,67,127
8898,note_off,198,0,0,,7,,,67,127
8900,note_on,2,0,0,,7,,,67,127
9098,note_off,198,0,0,,7,,,67,127
9100,note_on,2,0,0,,4,,,76,127
9198,note_off,98,0,0,,12,,,83,127
9200,note_on,2,0,0,,10,,,81,127
9298,note_off,98,0,0,,10,,,81,127
9300,note_on,2,0,0,,7,,,79,127
9398,note_off,98,0,0,,7,,,79,127
9398,note_off,0,0,0,,4,,,76,127
9400,note_on,2,0,0,,2,,,74,127
9400,note_on,0,0,0,,6,,,78,127
9498,note_off,98,0,0,,6,,,78,127
9498,note_off,0,0,0,,2,,,74,127
9500,note_on,2,0,0,,0,,,72,127
9500,note_on,0,0,0,,4,,,76,127
9598,note_off,98,0,0,,4,,,76,127
9598,note_off,0,0,0,,0,,,72,127
9600,note_on,2,0,0,,12,,,71,127
9600,note_on,0,0,0,,2,,,74,127
9698,note_off,98,0,0,,2,,,74,127
9698,note_off,0,0,0,,12,,,71,127
9700,note_on,2,0,0,,10,,,69,127
9700,note_on,0,0,0,,0,,,72,127
9798,note_off,98,0,0,,0,,,72,127
9800,note_on,2,0,0,,12,,,71,127
9898,note_off,98,0,0,,12,,,71,127
9898,note_off,0,0,0,,10,,,69,127
9900,note_on,2,0,0,,10,,,69,127
9998,note_off,98,0,0,,10,,,69,127
10000,note_on,2,0,0,,7,,,67,127
10098,note_off,98,0,0,,7,,,67,127
10100,note_on,2,0,0,,6,,,66,127
10198,note_off,98,0,0,,6,,,66,127
10200,note_on,2,0,0,,4,,,64,127
10298,note_off,98,0,0,,4,,,64,127
10300,note_on,2,0,0,,2,,,62,127
10398,note_off,98,0,0,,2,,,62,127
10400,note_on,2,0,0,,0,,,60,127
10498,note_off,98,0,0,,0,,,60,127
10500,note_on,2,0,0,,12,,,59,127
10598,note_off,98,0,0,,12,,,59,127
10600,note_on,2,0,0,,10,,,57,127
10698,note_off,98,0,0,,10,,,57,127
10700,note_on,2,0,0,,7,,,55,127
10798,note_off,98,0,0,,7,,,55,127
10800,note_on,2,0,0,,6,,,54,127
10898,note_off,98,0,0,,6,,,54,127
10900,note_on,2,0,0,,7,,,55,127
10998,note_off,98,0,0,,7,,,55,127
11000,note_on,2,0,0,,12,,,59,127
11098,note_off,98,0,0,,12,,,59,127
11100,note_on,2,0,0,,10,,,57,127
11198,note_off,98,0,0,,10,,,57,127
11200,note_on,2,0,0,,7,,,55,127
11298,note_off,98,0,0,,7,,,55,127
11300,note_on,2,0,0,,6,,,54,127
11398,note_off,98,0,0,,6,,,54,127
11400,note_on,2,0,0,,4,,,52,127
11498,note_off,98,0,0,,4,,,52,127
11500,note_on,2,0,0,,2,,,50,127
11598,note_off,98,0,0,,2,,,50,127
11600,note_on,2,0,0,,4,,,52,127
11698,note_off,98,0,0,,4,,,52,127
11700,note_on,2,0,0,,2,,,50,127
11798,note_off,98,0,0,,2,,,50,127
11800,note_on,2,0,0,,0,,,48,127
11898,note_off,98,0,0,,0,,,48,127
11900,note_on,2,0,0,,12,,,47,127
11998,note_off,98,0,0,,12,,,47,127
12000,note_on,2,0,0,,10,,,45,127
12098,note_off,98,0,0,,10,,,45,127
12100,note_on,2,0,0,,7,,,43,127
12198,note_off,98,0,0,,7,,,43,127
12200,note_on,2,0,0,,12,,,47,127
12298,note_off,98,0,0,,12,,,47,127
12300,note_on,2,0,0,,10,,,45,127
12398,note_off,98,0,0,,10,,,45,127
12400,note_on,2,0,0,,7,,,43,127
12498,note_off,98,0,0,,7,,,43,127
12500,note_on,2,0,0,,6,,,42,127
12598,note_off,98,0,0,,6,,,42,127
12600,note_on,2,0,0,,4,,,40,127
12698,note_off,98,0,0,,4,,,40,127
12700,note_on,2,0,0,,2,,,38,127
12700,note_on,0,0,0,,2,,,62,127
12798,note_off,98,0,0,,2,,,62,127
12800,note_on,2,0,0,,4,,,64,127
12898,note_off,98,0,0,,4,,,64,127
12900,note_on,2,0,0,,6,,,66,127
12998,note_off,98,0,0,,6,,,66,127
13000,note_on,2,0,0,,7,,,67,127
13098,note_off,98,0,0,,7,,,67,127
13100,note_on,2,0,0,,10,,,69,127
13198,note_off,98,0,0,,10,,,69,127
13200,note_on,2,0,0,,12,,,71,127
13298,note_off,98,0,0,,12,,,71,127
13298,note_off,0,0,0,,2,,,38,127
13300,note_on,2,0,0,,2,,,50,127
13300,note_on,0,0,0,,0,,,72,127
13398,note_off,98,0,0,,2,,,50,127
13400,note_on,2,0,0,,4,,,52,127
13498,note_off,98,0,0,,4,,,52,127
13500,note_on,2,0,0,,6,,,54,127
13598,note_off,98,0,0,,6,,,54,127
13600,note_on,2,0,0,,7,,,55,127
13698,note_off,98,0,0,,7,,,55,127
13700,note_on,2,0,0,,10,,,57,127
13798,note_off,98,0,0,,10,,,57,127
13800,note_on,2,0,0,,12,,,59,127
13898,note_off,98,0,0,,12,,,59,127
13898,note_off,0,0,0,,0,,,72,127
13900,note_on,2,0,0,,0,,,60,127
13900,note_on,0,0,0,,6,,,66,127
13998,note_off,98,0,0,,6,,,66,127
14000,note_on,2,0,0,,7,,,67,127
14098,note_off,98,0,0,,7,,,67,127
14100,note_on,2,0,0,,10,,,69,127
14198,note_off,98,0,0,,10,,,69,127
14200,note_on,2,0,0,,12,,,71,127
14298,note_off,98,0,0,,12,,,71,127
14300,note_on,2,0,0,,0,,,72,127
14398,note_off,98,0,0,,0,,,72,127
14400,note_on,2,0,0,,2,,,74,127
14498,note_off,98,0,0,,2,,,74,127
14498,note_off,0,0,0,,0,,,60,127
14500,note_on,2,0,0,,6,,,54,127
14500,note_on,0,0,0,,4,,,76,127
14598,note_off,98,0,0,,6,,,54,127
14600,note_on,2,0,0,,7,,,55,127
14698,note_off,98,0,0,,7,,,55,127
14700,note_on,2,0,0,,10,,,57,127
14798,note_off,98,0,0,,10,,,57,127
14800,note_on,2,0,0,,12,,,59,127
14898,note_off,98,0,0,,12,,,59,127
14900,note_on,2,0,0,,0,,,60,127
14998,note_off,98,0,0,,0,,,60,127
15000,note_on,2,0,0,,2,,,62,127
15098,note_off,98,0,0,,2,,,62,127
15100,note_on,2,0,0,,4,,,64,127
15298,note_off,198,0,0,,4,,,76,127
15300,note_on,2,0,0,,2,,,74,127
15498,note_off,198,0,0,,2,,,74,127
15500,note_on,2,0,0,,1,,,73,127
15698,note_off,198,0,0,,1,,,73,127
15698,note_off,0,0,0,,4,,,64,127
15700,note_on,2,0,0,,4,,,64,127
15700,note_on,0,0,0,,6,,,54,127
15700,note_on,0,0,0,,7,,,79,127
15898,note_off,198,0,0,,7,,,79,127
15898,note_off,0,0,0,,6,,,54,127
15898,note_off,0,0,0,,4,,,64,127
15900,note_on,2,0,0,,6,,,54,127
15900,note_on,0,0,0,,4,,,64,127
15900,note_on,0,0,0,,12,,,71,127
16098,note_off,198,0,0,,12,,,71,127
16098,note_off,0,0,0,,4,,,64,127
16098,note_off,0,0,0,,6,,,54,127
16100,note_on,2,0,0,,6,,,54,127
16100,note_on,0,0,0,,4,,,64,127
16100,note_on,0,0,0,,11,,,70,127
16298,note_off,198,0,0,,11,,,70,127
16298,note_off,0,0,0,,4,,,64,127
16298,note_off,0,0,0,,6,,,54,127
16300,note_on,2,0,0,,4,,,64,127
16300,note_on,0,0,0,,7,,,55,127
16300,note_on,0,0,0,,12,,,71,127
16498,note_off,198,0,0,,12,,,71,127
16498,note_off,0,0,0,,7,,,55,127
16498,note_off,0,0,0,,4,,,64,127
16500,note_on,2,0,0,,4,,,64,127
16500,note_on,0,0,0,,7,,,55,127
16500,note_on,0,0,0,,7,,,79,127
16698,note_off,198,0,0,,7,,,79,127
16698,note_off,0,0,0,,7,,,55,127
16698,note_off,0,0,0,,4,,,64,127
16700,note_on,2,0,0,,4,,,64,127
16700,note_on,0,0,0,,7,,,55,127
16700,note_on,0,0,0,,4,,,76,127
16898,note_off,198,0,0,,7,,,55,127
16898,note_off,0,0,0,,4,,,64,127
16900,note_on,2,0,0,,6,,,54,127
16900,note_on,0,0,0,,4,,,64,127
17098,note_off,198,0,0,,4,,,64,127
17098,note_off,0,0,0,,6,,,54,127
17098,note_off,0,0,0,,4,,,76,127
17100,note_on,2,0,0,,4,,,64,127
17100,note_on,0,0,0,,6,,,54,127
17100,note_on,0,0,0,,1,,,73,127
17298,note_off,198,0,0,,1,,,73,127
17298,note_off,0,0,0,,6,,,54,127
17298,note_off,0,0,0,,4,,,64,127
17300,note_on,2,0,0,,6,,,54,127
17300,note_on,0,0,0,,4,,,64,127
17300,note_on,0,0,0,,11,,,70,127
17498,note_off,198,0,0,,11,,,70,127
17498,note_off,0,0,0,,4,,,64,127
17498,note_off,0,0,0,,6,,,54,127
17500,note_on,2,0,0,,4,,,64,127
17500,note_on,0,0,0,,7,,,55,127
17500,note_on,0,0,0,,12,,,71,127
17698,note_off,198,0,0,,12,,,71,127
17698,note_off,0,0,0,,7,,,55,127
17698,note_off,0,0,0,,4,,,64,127
17700,note_on,2,0,0,,4,,,64,127
17700,note_on,0,0,0,,7,,,55,127
17700,note_on,0,0,0,,7,,,79,127
17898,note_off,198,0,0,,7,,,79,127
17898,note_off,0,0,0,,7,,,55,127
17898,note_off,0,0,0,,4,,,64,127
17900,note_on,2,0,0,,4,,,64,127
17900,note_on,0,0,0,,7,,,55,127
17900,note_on,0,0,0,,4,,,76,127
18098,note_off,198,0,0,,7,,,55,127
18098,note_off,0,0,0,,4,,,64,127
18100,note_on,2,0,0,,6,,,54,127
18100,note_on,0,0,0,,4,,,64,127
18298,note_off,198,0,0,,4,,,64,127
18298,note_off,0,0,0,,6,,,54,127
18298,note_off,0,0,0,,4,,,76,127
18300,note_on,2,0,0,,4,,,64,127
18300,note_on,0,0,0,,6,,,54,127
18300,note_on,0,0,0,,1,,,73,127
18498,note_off,198,0,0,,1,,,73,127
18498,note_off,0,0,0,,6,,,54,127
18498,note_off,0,0,0,,4,,,64,127
18500,note_on,2,0,0,,4,,,64,127
18500,note_on,0,0,0,,6,,,54,127
18500,note_on,0,0,0,,11,,,70,127
18698,note_off,198,0,0,,11,,,70,127
18698,note_off,0,0,0,,6,,,54,127
18698,note_off,0,0,0,,4,,,64,127
18700,note_on,2,0,0,,4,,,64,127
18700,note_on,0,0,0,,7,,,55,127
18700,note_on,0,0,0,,12,,,71,127
18898,note_off,198,0,0,,7,,,55,127
18898,note_off,0,0,0,,4,,,64,127
18900,note_on,2,0,0,,7,,,55,127
18900,note_on,0,0,0,,2,,,62,127
18998,note_off,98,0,0,,2,,,62,127
19000,note_on,2,0,0,,1,,,61,127
19098,note_off,98,0,0,,1,,,61,127
19098,note_off,0,0,0,,7,,,55,127
19100,note_on,2,0,0,,7,,,55,127
19100,note_on,0,0,0,,2,,,62,127
19198,note_off,98,0,0,,2,,,62,127
19200,note_on,2,0,0,,4,,,64,127
19298,note_off,98,0,0,,4,,,64,127
19298,note_off,0,0,0,,7,,,55,127
19300,note_on,2,0,0,,6,,,66,127
19300,note_on,0,0,0,,6,,,54,127
19498,note_off,198,0,0,,12,,,71,127
19500,note_on,2,0,0,,11,,,70,127
19598,note_off,98,0,0,,11,,,70,127
19600,note_on,2,0,0,,8,,,68,127
19698,note_off,98,0,0,,8,,,68,127
19700,note_on,2,0,0,,11,,,70,127
19798,note_off,98,0,0,,11,,,70,127
19800,note_on,2,0,0,,12,,,71,127
19898,note_off,98,0,0,,12,,,71,127
19898,note_off,0,0,0,,6,,,54,127
19898,note_off,0,0,0,,6,,,66,127
19900,note_on,2,0,0,,6,,,54,127
19900,note_on,0,0,0,,6,,,66,127
19900,note_on,0,0,0,,1,,,73,127
20098,note_off,198,0,0,,1,,,73,127
20100,note_on,2,0,0,,2,,,74,127
20198,note_off,98,0,0,,2,,,74,127
20200,note_on,2,0,0,,1,,,73,127
20298,note_off,98,0,0,,1,,,73,127
20300,note_on,2,0,0,,2,,,74,127
20398,note_off,98,0,0,,2,,,74,127
20400,note_on,2,0,0,,4,,,76,127
20498,note_off,98,0,0,,4,,,76,127
20498,note_off,0,0,0,,6,,,66,127
20498,note_off,0,0,0,,6,,,54,127
20500,note_on,2,0,0,,6,,,54,127
20500,note_on,0,0,0,,6,,,66,127
20500,note_on,0,0,0,,6,,,78,127
20598,note_off,98,0,0,,6,,,78,127
20600,note_on,2,0,0,,1,,,73,127
20698,note_off,98,0,0,,1,,,73,127
20700,note_on,2,0,0,,11,,,70,127
20792,note_off,92,0,0,,6,,,66,127
20798,note_off,6,0,0,,11,,,70,127
20800,note_on,2,0,0,,6,,,66,127
20900,note_on,100,0,0,,1,,,73,127
20998,note_off,98,0,0,,1,,,73,127
21000,note_on,2,0,0,,11,,,70,127
21092,note_off,92,0,0,,6,,,66,127
21098,note_off,6,0,0,,11,,,70,127
21098,note_off,0,0,0,,6,,,54,127
21100,note_on,2,0,0,,6,,,66,127
21198,note_off,98,0,0,,6,,,66,127
21200,note_on,2,0,0,,1,,,61,127
21298,note_off,98,0,0,,1,,,61,127
21300,note_on,2,0,0,,11,,,58,127
21398,note_off,98,0,0,,11,,,58,127
21400,note_on,2,0,0,,6,,,54,127
21498,note_off,98,0,0,,6,,,54,127
21500,note_on,2,0,0,,1,,,49,127
21598,note_off,98,0,0,,1,,,49,127
21600,note_on,2,0,0,,11,,,46,127
21698,note_off,98,0,0,,11,,,46,127
21700,note_on,2,0,0,,6,,,42,127
22299,note_off,599,0,0,,6,,,42,127
22301,note_on,2,0,0,,6,,,54,127
22501,note_on,200,0,0,,12,,,59,127
22699,note_off,198,0,0,,12,,,59,127
22701,note_on,2,0,0,,2,,,62,127
22801,note_on,100,0,0,,6,,,78,127
22899,note_off,98,0,0,,6,,,78,127
22901,note_on,2,0,0,,12,,,71,127
23099,note_off,198,0,0,,12,,,71,127
23099,note_off,0,0,0,,2,,,62,127
23101,note_on,2,0,0,,1,,,61,127
23101,note_on,0,0,0,,11,,,70,127
23299,note_off,198,0,0,,11,,,70,127
23299,note_off,0,0,0,,1,,,61,127
23301,note_on,2,0,0,,12,,,59,127
23301,note_on,0,0,0,,12,,,71,127
23499,note_off,198,0,0,,12,,,59,127
23499,note_off,0,0,0,,6,,,54,127
23501,note_on,2,0,0,,6,,,54,127
23601,note_off,100,0,0,,12,,,71,127
23701,note_on,100,0,0,,1,,,61,127
23899,note_off,198,0,0,,1,,,61,127
23901,note_on,2,0,0,,4,,,64,127
24001,note_on,100,0,0,,7,,,79,127
24099,note_off,98,0,0,,7,,,79,127
24101,note_on,2,0,0,,11,,,70,127
24299,note_off,198,0,0,,11,,,70,127
24299,note_off,0,0,0,,4,,,64,127
24301,note_on,2,0,0,,2,,,62,127
24301,note_on,0,0,0,,12,,,71,127
24499,note_off,198,0,0,,12,,,71,127
24499,note_off,0,0,0,,2,,,62,127
24501,note_on,2,0,0,,1,,,61,127
24501,note_on,0,0,0,,1,,,73,127
24699,note_off,198,0,0,,1,,,61,127
24699,note_off,0,0,0,,6,,,54,127
24701,note_on,2,0,0,,6,,,54,127
24801,note_off,100,0,0,,1,,,73,127
24901,note_on,100,0,0,,12,,,59,127
25099,note_off,198,0,0,,12,,,59,127
25101,note_on,2,0,0,,2,,,62,127
25201,note_on,100,0,0,,12,,,83,127
25299,note_off,98,0,0,,12,,,83,127
25301,note_on,2,0,0,,12,,,71,127
25499,note_off,198,0,0,,12,,,71,127
25499,note_off,0,0,0,,2,,,62,127
25501,note_on,2,0,0,,1,,,61,127
25501,note_on,0,0,0,,1,,,73,127
25699,note_off,198,0,0,,1,,,73,127
25699,note_off,0,0,0,,1,,,61,127
25701,note_on,2,0,0,,12,,,59,127
25701,note_on,0,0,0,,2,,,74,127
25899,note_off,198,0,0,,12,,,59,127
25899,note_off,0,0,0,,6,,,54,127
25901,note_on,2,0,0,,7,,,55,127
26001,note_off,100,0,0,,2,,,74,127
26101,note_on,100,0,0,,4,,,64,127
26299,note_off,198,0,0,,4,,,64,127
26301,note_on,2,0,0,,7,,,67,127
26401,note_on,100,0,0,,12,,,83,127
26499,note_off,98,0,0,,12,,,83,127
26501,note_on,2,0,0,,4,,,76,127
26699,note_off,198,0,0,,4,,,76,127
26699,note_off,0,0,0,,7,,,67,127
26701,note_on,2,0,0,,10,,,69,127
26701,note_on,0,0,0,,6,,,78,127
26899,note_off,198,0,0,,6,,,78,127
26899,note_off,0,0,0,,10,,,69,127
26901,note_on,2,0,0,,7,,,67,127
26901,note_on,0,0,0,,7,,,79,127
27099,note_off,198,0,0,,7,,,79,127
27099,note_off,0,0,0,,7,,,67,127
27099,note_off,0,0,0,,7,,,55,127
27101,note_on,2,0,0,,11,,,70,127
27101,note_on,0,0,0,,10,,,81,127
27199,note_off,98,0,0,,10,,,81,127
27201,note_on,2,0,0,,7,,,79,127
27299,note_off,98,0,0,,7,,,79,127
27299,note_off,0,0,0,,11,,,70,127
27301,note_on,2,0,0,,6,,,66,127
27301,note_on,0,0,0,,6,,,78,127
27399,note_off,98,0,0,,6,,,78,127
27401,note_on,2,0,0,,4,,,76,127
27499,note_off,98,0,0,,4,,,76,127
27499,note_off,0,0,0,,6,,,66,127
27501,note_on,2,0,0,,12,,,71,127
27501,note_on,0,0,0,,4,,,76,127
27599,note_off,98,0,0,,4,,,76,127
27601,note_on,2,0,0,,2,,,74,127
27699,note_off,98,0,0,,2,,,74,127
27699,note_off,0,0,0,,12,,,71,127
27701,note_on,2,0,0,,4,,,64,127
27701,note_on,0,0,0,,1,,,73,127
27799,note_off,98,0,0,,1,,,73,127
27801,note_on,2,0,0,,12,,,71,127
27899,note_off,98,0,0,,12,,,71,127
27899,note_off,0,0,0,,4,,,64,127
27901,note_on,2,0,0,,6,,,66,127
27901,note_on,0,0,0,,12,,,71,127
28099,note_off,198,0,0,,12,,,71,127
28101,note_on,2,0,0,,6,,,54,127
28101,note_on,0,0,0,,11,,,70,127
28297,note_off,196,0,0,,6,,,66,127
28299,note_off,2,0,0,,11,,,70,127
28299,note_off,0,0,0,,6,,,54,127
28301,note_on,2,0,0,,12,,,47,127
28301,note_on,0,0,0,,12,,,59,127
28301,note_on,0,0,0,,11,,,70,127
28700,note_off,399,0,0,,11,,,70,127
28702,note_on,2,0,0,,12,,,71,127
28900,note_off,198,0,0,,12,,,59,127
28900,note_off,0,0,0,,12,,,47,127
28902,note_on,2,0,0,,6,,,54,127
29002,note_off,100,0,0,,12,,,71,127
29102,note_on,100,0,0,,12,,,59,127
29300,note_off,198,0,0,,12,,,59,127
29302,note_on,2,0,0,,2,,,62,127
29402,note_on,100,0,0,,6,,,78,127
29500,note_off,98,0,0,,6,,,78,127
29502,note_on,2,0,0,,12,,,71,127
29600,note_off,98,0,0,,12,,,71,127
29602,note_on,2,0,0,,11,,,70,127
29700,note_off,98,0,0,,11,,,70,127
29700,note_off,0,0,0,,2,,,62,127
29702,note_on,2,0,0,,1,,,61,127
29702,note_on,0,0,0,,11,,,70,127
29800,note_off,98,0,0,,11,,,70,127
29802,note_on,2,0,0,,12,,,71,127
29900,note_off,98,0,0,,12,,,71,127
29900,note_off,0,0,0,,1,,,61,127
29902,note_on,2,0,0,,12,,,59,127
29902,note_on,0,0,0,,12,,,71,127
30000,note_off,98,0,0,,12,,,71,127
30002,note_on,2,0,0,,1,,,73,127
30100,note_off,98,0,0,,12,,,59,127
30100,note_off,0,0,0,,6,,,54,127
30102,note_on,2,0,0,,6,,,54,127
30152,note_off,50,0,0,,1,,,73,127
30302,note_on,150,0,0,,1,,,61,127
30500,note_off,198,0,0,,1,,,61,127
30502,note_on,2,0,0,,4,,,64,127
30602,note_on,100,0,0,,7,,,79,127
30700,note_off,98,0,0,,7,,,79,127
30702,note_on,2,0,0,,11,,,70,127
30800,note_off,98,0,0,,11,,,70,127
30802,note_on,2,0,0,,12,,,71,127
30900,note_off,98,0,0,,12,,,71,127
30900,note_off,0,0,0,,4,,,64,127
30902,note_on,2,0,0,,2,,,62,127
30902,note_on,0,0,0,,12,,,71,127
31000,note_off,98,0,0,,12,,,71,127
31002,note_on,2,0,0,,1,,,73,127
31100,note_off,98,0,0,,1,,,73,127
31100,note_off,0,0,0,,2,,,62,127
31102,note_on,2,0,0,,1,,,61,127
31102,note_on,0,0,0,,1,,,73,127
31200,note_off,98,0,0,,1,,,73,127
31202,note_on,2,0,0,,2,,,74,127
31300,note_off,98,0,0,,1,,,61,127
31300,note_off,0,0,0,,6,,,54,127
31302,note_on,2,0,0,,6,,,54,127
31352,note_off,50,0,0,,2,,,74,127
31502,note_on,150,0,0,,12,,,59,127
31700,note_off,198,0,0,,12,,,59,127
31702,note_on,2,0,0,,2,,,62,127
31802,note_on,100,0,0,,12,,,83,127
31900,note_off,98,0,0,,12,,,83,127
31902,note_on,2,0,0,,12,,,71,127
32000,note_off,98,0,0,,12,,,71,127
32002,note_on,2,0,0,,1,,,73,127
32100,note_off,98,0,0,,1,,,73,127
32100,note_off,0,0,0,,2,,,62,127
32102,note_on,2,0,0,,1,,,61,127
32102,note_on,0,0,0,,1,,,73,127
32200,note_off,98,0,0,,1,,,73,127
32202,note_on,2,0,0,,2,,,74,127
32300,note_off,98,0,0,,2,,,74,127
32300,note_off,0,0,0,,1,,,61,127
32302,note_on,2,0,0,,12,,,59,127
32302,note_on,0,0,0,,2,,,74,127
32400,note_off,98,0,0,,2,,,74,127
32402,note_on,2,0,0,,4,,,76,127
32500,note_off,98,0,0,,12,,,59,127
32500,note_off,0,0,0,,6,,,54,127
32502,note_on,2,0,0,,7,,,55,127
32552,note_off,50,0,0,,4,,,76,127
32702,note_on,150,0,0,,4,,,64,127
32900,note_off,198,0,0,,4,,,64,127
32902,note_on,2,0,0,,7,,,67,127
33002,note_on,100,0,0,,12,,,83,127
33100,note_off,98,0,0,,12,,,83,127
33102,note_on,2,0,0,,3,,,75,127
33200,note_off,98,0,0,,3,,,75,127
33202,note_on,2,0,0,,4,,,76,127
33300,note_off,98,0,0,,4,,,76,127
33300,note_off,0,0,0,,7,,,67,127
33302,note_on,2,0,0,,6,,,66,127
33302,note_on,0,0,0,,4,,,76,127
33400,note_off,98,0,0,,4,,,76,127
33402,note_on,2,0,0,,6,,,78,127
33500,note_off,98,0,0,,6,,,78,127
33500,note_off,0,0,0,,6,,,66,127
33502,note_on,2,0,0,,4,,,64,127
33502,note_on,0,0,0,,6,,,78,127
33600,note_off,98,0,0,,6,,,78,127
33602,note_on,2,0,0,,7,,,79,127
33700,note_off,98,0,0,,7,,,79,127
33700,note_off,0,0,0,,4,,,64,127
33700,note_off,0,0,0,,7,,,55,127
33702,note_on,2,0,0,,11,,,70,127
33702,note_on,0,0,0,,10,,,81,127
33800,note_off,98,0,0,,10,,,81,127
33802,note_on,2,0,0,,7,,,79,127
33900,note_off,98,0,0,,7,,,79,127
33900,note_off,0,0,0,,11,,,70,127
33902,note_on,2,0,0,,6,,,66,127
33902,note_on,0,0,0,,6,,,78,127
34000,note_off,98,0,0,,6,,,78,127
34002,note_on,2,0,0,,4,,,76,127
34100,note_off,98,0,0,,4,,,76,127
34100,note_off,0,0,0,,6,,,66,127
34102,note_on,2,0,0,,12,,,71,127
34102,note_on,0,0,0,,4,,,76,127
34200,note_off,98,0,0,,4,,,76,127
34202,note_on,2,0,0,,2,,,74,127
34300,note_off,98,0,0,,2,,,74,127
34300,note_off,0,0,0,,12,,,71,127
34302,note_on,2,0,0,,4,,,64,127
34302,note_on,0,0,0,,1,,,73,127
34400,note_off,98,0,0,,1,,,73,127
34402,note_on,2,0,0,,12,,,71,127
34500,note_off,98,0,0,,12,,,71,127
34500,note_off,0,0,0,,4,,,64,127
34502,note_on,2,0,0,,6,,,66,127
34502,note_on,0,0,0,,12,,,71,127
34700,note_off,198,0,0,,12,,,71,127
34702,note_on,2,0,0,,6,,,54,127
34702,note_on,0,0,0,,1,,,73,127
34852,note_off,150,0,0,,1,,,73,127
34856,note_off,4,0,0,,6,,,66,127
34900,note_off,44,0,0,,6,,,54,127
34902,note_on,2,0,0,,4,,,52,127
34902,note_on,0,0,0,,10,,,81,127
35000,note_off,98,0,0,,10,,,81,127
35002,note_on,2,0,0,,7,,,79,127
35102,note_on,100,0,0,,4,,,64,127
35102,note_on,0,0,0,,0,,,60,127
35200,note_off,98,0,0,,7,,,79,127
35202,note_off,2,0,0,,4,,,52,127
35202,note_on,0,0,0,,7,,,79,127
35300,note_off,98,0,0,,7,,,79,127
35300,note_off,0,0,0,,0,,,60,127
35300,note_off,0,0,0,,4,,,64,127
35302,note_on,2,0,0,,2,,,50,127
35302,note_on,0,0,0,,6,,,78,127
35502,note_on,200,0,0,,12,,,59,127
35502,note_on,0,0,0,,2,,,62,127
35600,note_off,98,0,0,,6,,,78,127
35602,note_off,2,0,0,,2,,,50,127
35602,note_on,0,0,0,,6,,,78,127
35700,note_off,98,0,0,,6,,,78,127
35700,note_off,0,0,0,,2,,,62,127
35700,note_off,0,0,0,,12,,,59,127
35702,note_on,2,0,0,,1,,,49,127
35702,note_on,0,0,0,,4,,,76,127
35902,note_on,200,0,0,,11,,,58,127
35902,note_on,0,0,0,,1,,,61,127
36000,note_off,98,0,0,,4,,,76,127
36002,note_off,2,0,0,,1,,,49,127
36002,note_on,0,0,0,,4,,,76,127
36100,note_off,98,0,0,,4,,,76,127
36100,note_off,0,0,0,,1,,,61,127
36100,note_off,0,0,0,,11,,,58,127
36102,note_on,2,0,0,,2,,,50,127
36102,note_on,0,0,0,,6,,,78,127
36302,note_on,200,0,0,,12,,,59,127
36302,note_on,0,0,0,,2,,,62,127
36400,note_off,98,0,0,,6,,,78,127
36402,note_off,2,0,0,,2,,,50,127
36402,note_on,0,0,0,,6,,,78,127
36500,note_off,98,0,0,,6,,,78,127
36500,note_off,0,0,0,,2,,,62,127
36500,note_off,0,0,0,,12,,,59,127
36502,note_on,2,0,0,,4,,,52,127
36502,note_on,0,0,0,,7,,,79,127
36702,note_on,200,0,0,,0,,,60,127
36702,note_on,0,0,0,,4,,,64,127
36800,note_off,98,0,0,,7,,,79,127
36802,note_off,2,0,0,,4,,,52,127
36802,note_on,0,0,0,,7,,,79,127
36900,note_off,98,0,0,,7,,,79,127
36900,note_off,0,0,0,,4,,,64,127
36900,note_off,0,0,0,,0,,,60,127
36902,note_on,2,0,0,,2,,,50,127
36902,note_on,0,0,0,,7,,,79,127
37000,note_off,98,0,0,,7,,,79,127
37002,note_on,2,0,0,,6,,,78,127
37102,note_on,100,0,0,,12,,,59,127
37102,note_on,0,0,0,,2,,,62,127
37200,note_off,98,0,0,,6,,,78,127
37202,note_off,2,0,0,,2,,,50,127
37202,note_on,0,0,0,,6,,,78,127
37300,note_off,98,0,0,,2,,,62,127
37300,note_off,0,0,0,,12,,,59,127
37302,note_on,2,0,0,,1,,,49,127
37400,note_off,98,0,0,,6,,,78,127
37402,note_on,2,0,0,,4,,,76,127
37502,note_on,100,0,0,,11,,,58,127
37502,note_on,0,0,0,,1,,,61,127
37600,note_off,98,0,0,,4,,,76,127
37602,note_off,2,0,0,,1,,,49,127
37602,note_on,0,0,0,,4,,,76,127
37700,note_off,98,0,0,,4,,,76,127
37700,note_off,0,0,0,,1,,,61,127
37700,note_off,0,0,0,,11,,,58,127
37702,note_on,2,0,0,,2,,,50,127
37702,note_on,0,0,0,,6,,,78,127
37800,note_off,98,0,0,,6,,,78,127
37802,note_on,2,0,0,,4,,,76,127
37900,note_off,98,0,0,,4,,,76,127
37902,note_on,2,0,0,,2,,,74,127
38000,note_off,98,0,0,,2,,,74,127
38002,note_on,2,0,0,,1,,,73,127
38100,note_off,98,0,0,,1,,,73,127
38100,note_off,0,0,0,,2,,,50,127
38102,note_on,2,0,0,,7,,,55,127
38102,note_on,0,0,0,,12,,,71,127
38200,note_off,98,0,0,,12,,,71,127
38202,note_on,2,0,0,,4,,,76,127
38300,note_off,98,0,0,,4,,,76,127
38300,note_off,0,0,0,,7,,,55,127
38302,note_on,2,0,0,,4,,,52,127
38302,note_on,0,0,0,,2,,,74,127
38400,note_off,98,0,0,,2,,,74,127
38402,note_on,2,0,0,,1,,,73,127
38500,note_off,98,0,0,,1,,,73,127
38500,note_off,0,0,0,,4,,,52,127
38502,note_on,2,0,0,,6,,,54,127
38502,note_on,0,0,0,,2,,,74,127
38600,note_off,98,0,0,,2,,,74,127
38602,note_on,2,0,0,,1,,,73,127
38700,note_off,98,0,0,,1,,,73,127
38700,note_off,0,0,0,,6,,,54,127
38702,note_on,2,0,0,,4,,,52,127
38702,note_on,0,0,0,,2,,,74,127
38800,note_off,98,0,0,,2,,,74,127
38802,note_on,2,0,0,,12,,,71,127
38900,note_off,98,0,0,,12,,,71,127
38900,note_off,0,0,0,,4,,,52,127
38902,note_on,2,0,0,,6,,,54,127
38902,note_on,0,0,0,,1,,,73,127
39000,note_off,98,0,0,,1,,,73,127
39002,note_on,2,0,0,,11,,,70,127
39100,note_off,98,0,0,,11,,,70,127
39100,note_off,0,0,0,,6,,,54,127
39102,note_on,2,0,0,,12,,,59,127
39102,note_on,0,0,0,,12,,,71,127
39200,note_off,98,0,0,,12,,,71,127
39202,note_on,2,0,0,,1,,,73,127
39300,note_off,98,0,0,,1,,,73,127
39300,note_off,0,0,0,,12,,,59,127
39302,note_on,2,0,0,,1,,,61,127
39302,note_on,0,0,0,,2,,,74,127
39400,note_off,98,0,0,,2,,,74,127
39402,note_on,2,0,0,,4,,,76,127
39500,note_off,98,0,0,,4,,,76,127
39500,note_off,0,0,0,,1,,,61,127
39502,note_on,2,0,0,,2,,,62,127
39502,note_on,0,0,0,,6,,,78,127
39600,note_off,98,0,0,,6,,,78,127
39602,note_on,2,0,0,,7,,,79,127
39700,note_off,98,0,0,,7,,,79,127
39700,note_off,0,0,0,,2,,,62,127
39702,note_on,2,0,0,,4,,,64,127
39702,note_on,0,0,0,,11,,,82,127
39800,note_off,98,0,0,,11,,,82,127
39802,note_on,2,0,0,,12,,,83,127
39900,note_off,98,0,0,,12,,,83,127
39902,note_on,2,0,0,,12,,,71,127
40000,note_off,98,0,0,,12,,,71,127
40002,note_on,2,0,0,,1,,,73,127
40100,note_off,98,0,0,,1,,,73,127
40100,note_off,0,0,0,,4,,,64,127
40102,note_on,2,0,0,,2,,,62,127
40102,note_on,0,0,0,,2,,,74,127
40200,note_off,98,0,0,,2,,,74,127
40202,note_on,2,0,0,,4,,,76,127
40300,note_off,98,0,0,,4,,,76,127
40300,note_off,0,0,0,,2,,,62,127
40302,note_on,2,0,0,,4,,,64,127
40302,note_on,0,0,0,,6,,,78,127
40400,note_off,98,0,0,,6,,,78,127
40402,note_on,2,0,0,,7,,,79,127
40500,note_off,98,0,0,,7,,,79,127
40502,note_on,2,0,0,,11,,,82,127
40600,note_off,98,0,0,,11,,,82,127
40602,note_on,2,0,0,,12,,,83,127
40700,note_off,98,0,0,,12,,,83,127
40700,note_off,0,0,0,,4,,,64,127
40702,note_on,2,0,0,,2,,,62,127
40702,note_on,0,0,0,,12,,,71,127
40800,note_off,98,0,0,,12,,,71,127
40802,note_on,2,0,0,,1,,,73,127
40900,note_off,98,0,0,,1,,,73,127
40900,note_off,0,0,0,,2,,,62,127
40902,note_on,2,0,0,,4,,,64,127
40902,note_on,0,0,0,,2,,,74,127
41000,note_off,98,0,0,,2,,,74,127
41002,note_on,2,0,0,,4,,,76,127
41100,note_off,98,0,0,,4,,,76,127
41102,note_on,2,0,0,,6,,,78,127
41200,note_off,98,0,0,,6,,,78,127
41202,note_on,2,0,0,,7,,,79,127
41300,note_off,98,0,0,,7,,,79,127
41300,note_off,0,0,0,,4,,,64,127
41302,note_on,2,0,0,,2,,,62,127
41302,note_on,0,0,0,,11,,,82,127
41400,note_off,98,0,0,,11,,,82,127
41402,note_on,2,0,0,,12,,,83,127
41500,note_off,98,0,0,,12,,,83,127
41500,note_off,0,0,0,,2,,,62,127
41502,note_on,2,0,0,,4,,,64,127
41502,note_on,0,0,0,,6,,,78,127
41600,note_off,98,0,0,,6,,,78,127
41602,note_on,2,0,0,,4,,,76,127
41700,note_off,98,0,0,,4,,,76,127
41700,note_off,0,0,0,,4,,,64,127
41702,note_on,2,0,0,,6,,,66,127
41702,note_on,0,0,0,,2,,,74,127
41800,note_off,98,0,0,,2,,,74,127
41802,note_on,2,0,0,,1,,,73,127
41900,note_off,98,0,0,,1,,,73,127
41902,note_on,2,0,0,,6,,,54,127
41902,note_on,0,0,0,,12,,,71,127
42000,note_off,98,0,0,,12,,,71,127
42002,note_on,2,0,0,,11,,,70,127
42098,note_off,96,0,0,,6,,,66,127
42100,note_off,2,0,0,,11,,,70,127
42100,note_off,0,0,0,,6,,,54,127
42102,note_on,2,0,0,,12,,,47,127
42102,note_on,0,0,0,,12,,,59,127
42200,note_off,98,0,0,,12,,,59,127
42202,note_on,2,0,0,,1,,,61,127
42300,note_off,98,0,0,,1,,,61,127
42300,note_off,0,0,0,,12,,,47,127
42302,note_on,2,0,0,,1,,,49,127
42302,note_on,0,0,0,,2,,,62,127
42400,note_off,98,0,0,,2,,,62,127
42402,note_on,2,0,0,,4,,,64,127
42500,note_off,98,0,0,,4,,,64,127
42500,note_off,0,0,0,,1,,,49,127
42502,note_on,2,0,0,,2,,,50,127
42502,note_on,0,0,0,,6,,,66,127
42600,note_off,98,0,0,,6,,,66,127
42602,note_on,2,0,0,,7,,,67,127
42700,note_off,98,0,0,,7,,,67,127
42700,note_off,0,0,0,,2,,,50,127
42702,note_on,2,0,0,,4,,,52,127
42702,note_on,0,0,0,,11,,,70,127
42800,note_off,98,0,0,,11,,,70,127
42802,note_on,2,0,0,,12,,,71,127
42900,note_off,98,0,0,,12,,,71,127
42902,note_on,2,0,0,,12,,,59,127
43000,note_off,98,0,0,,12,,,59,127
43002,note_on,2,0,0,,1,,,61,127
43100,note_off,98,0,0,,1,,,61,127
43100,note_off,0,0,0,,4,,,52,127
43102,note_on,2,0,0,,2,,,50,127
43102,note_on,0,0,0,,2,,,62,127
43200,note_off,98,0,0,,2,,,62,127
43202,note_on,2,0,0,,4,,,64,127
43300,note_off,98,0,0,,4,,,64,127
43300,note_off,0,0,0,,2,,,50,127
43302,note_on,2,0,0,,4,,,52,127
43302,note_on,0,0,0,,6,,,66,127
43400,note_off,98,0,0,,6,,,66,127
43402,note_on,2,0,0,,7,,,67,127
43500,note_off,98,0,0,,7,,,67,127
43502,note_on,2,0,0,,11,,,70,127
43600,note_off,98,0,0,,11,,,70,127
43602,note_on,2,0,0,,12,,,71,127
43700,note_off,98,0,0,,12,,,71,127
43700,note_off,0,0,0,,4,,,52,127
43702,note_on,2,0,0,,2,,,50,127
43702,note_on,0,0,0,,12,,,59,127
43800,note_off,98,0,0,,12,,,59,127
43802,note_on,2,0,0,,1,,,61,127
43900,note_off,98,0,0,,1,,,61,127
43900,note_off,0,0,0,,2,,,50,127
43902,note_on,2,0,0,,4,,,52,127
43902,note_on,0,0,0,,2,,,62,127
44000,note_off,98,0,0,,2,,,62,127
44002,note_on,2,0,0,,4,,,64,127
44100,note_off,98,0,0,,4,,,64,127
44102,note_on,2,0,0,,6,,,66,127
44200,note_off,98,0,0,,6,,,66,127
44202,note_on,2,0,0,,7,,,67,127
44300,note_off,98,0,0,,7,,,67,127
44300,note_off,0,0,0,,4,,,52,127
44302,note_on,2,0,0,,2,,,50,127
44302,note_on,0,0,0,,11,,,70,127
44400,note_off,98,0,0,,11,,,70,127
44402,note_on,2,0,0,,12,,,71,127
44500,note_off,98,0,0,,12,,,71,127
44500,note_off,0,0,0,,2,,,50,127
44502,note_on,2,0,0,,4,,,52,127
44502,note_on,0,0,0,,6,,,66,127
44600,note_off,98,0,0,,6,,,66,127
44602,note_on,2,0,0,,4,,,64,127
44700,note_off,98,0,0,,4,,,64,127
44700,note_off,0,0,0,,4,,,52,127
44702,note_on,2,0,0,,6,,,54,127
44702,note_on,0,0,0,,2,,,62,127
44800,note_off,98,0,0,,2,,,62,127
44802,note_on,2,0,0,,1,,,61,127
44900,note_off,98,0,0,,1,,,61,127
44902,note_on,2,0,0,,6,,,42,127
44902,note_on,0,0,0,,12,,,59,127
45000,note_off,98,0,0,,12,,,59,127
45002,note_on,2,0,0,,11,,,58,127
45085,note_off,83,0,0,,11,,,58,127
45098,note_off,13,0,0,,6,,,54,127
45100,note_off,2,0,0,,6,,,42,127
45102,note_on,2,0,0,,12,,,47,127
45202,note_on,100,0,0,,6,,,66,127
45300,note_off,98,0,0,,6,,,66,127
45300,note_off,0,0,0,,12,,,47,127
45302,note_on,2,0,0,,1,,,49,127
45302,note_on,0,0,0,,2,,,74,127
45500,note_off,198,0,0,,1,,,49,127
45502,note_on,2,0,0,,2,,,50,127
45700,note_off,198,0,0,,2,,,50,127
45700,note_off,0,0,0,,2,,,74,127
45702,note_on,2,0,0,,4,,,52,127
45702,note_on,0,0,0,,4,,,64,127
45800,note_off,98,0,0,,4,,,64,127
45802,note_on,2,0,0,,1,,,73,127
45900,note_off,98,0,0,,1,,,73,127
45900,note_off,0,0,0,,4,,,52,127
45902,note_on,2,0,0,,6,,,54,127
45902,note_on,0,0,0,,2,,,62,127
46000,note_off,98,0,0,,2,,,62,127
46002,note_on,2,0,0,,12,,,71,127
46100,note_off,98,0,0,,12,,,71,127
46102,note_on,2,0,0,,6,,,42,127
46102,note_on,0,0,0,,1,,,61,127
46200,note_off,98,0,0,,1,,,61,127
46202,note_on,2,0,0,,11,,,70,127
46298,note_off,96,0,0,,6,,,54,127
46300,note_off,2,0,0,,11,,,70,127
46300,note_off,0,0,0,,6,,,42,127
46302,note_on,2,0,0,,12,,,47,127
46402,note_on,100,0,0,,6,,,78,127
46500,note_off,98,0,0,,6,,,78,127
46500,note_off,0,0,0,,12,,,47,127
46502,note_on,2,0,0,,1,,,49,127
46502,note_on,0,0,0,,2,,,86,127
46700,note_off,198,0,0,,1,,,49,127
46702,note_on,2,0,0,,2,,,50,127
46900,note_off,198,0,0,,2,,,50,127
46900,note_off,0,0,0,,2,,,86,127
46902,note_on,2,0,0,,4,,,52,127
46902,note_on,0,0,0,,4,,,76,127
47000,note_off,98,0,0,,4,,,76,127
47002,note_on,2,0,0,,1,,,85,127
47100,note_off,98,0,0,,1,,,85,127
47100,note_off,0,0,0,,4,,,52,127
47102,note_on,2,0,0,,6,,,54,127
47102,note_on,0,0,0,,2,,,74,127
47200,note_off,98,0,0,,2,,,74,127
47202,note_on,2,0,0,,12,,,83,127
47300,note_off,98,0,0,,12,,,83,127
47302,note_on,2,0,0,,6,,,42,127
47302,note_on,0,0,0,,1,,,73,127
47400,note_off,98,0,0,,1,,,73,127
47402,note_on,2,0,0,,11,,,82,127
47498,note_off,96,0,0,,6,,,54,127
47500,note_off,2,0,0,,11,,,82,127
47500,note_off,0,0,0,,6,,,42,127
47502,note_on,2,0,0,,12,,,47,127
47602,note_on,100,0,0,,6,,,66,127
47700,note_off,98,0,0,,6,,,66,127
47700,note_off,0,0,0,,12,,,47,127
47702,note_on,2,0,0,,1,,,49,127
47702,note_on,0,0,0,,2,,,74,127
47900,note_off,198,0,0,,1,,,49,127
47902,note_on,2,0,0,,2,,,50,127
48100,note_off,198,0,0,,2,,,50,127
48100,note_off,0,0,0,,2,,,74,127
48102,note_on,2,0,0,,4,,,52,127
48102,note_on,0,0,0,,1,,,73,127
48200,note_off,98,0,0,,1,,,73,127
48202,note_on,2,0,0,,4,,,76,127
48300,note_off,98,0,0,,4,,,76,127
48300,note_off,0,0,0,,4,,,52,127
48302,note_on,2,0,0,,6,,,54,127
48302,note_on,0,0,0,,12,,,71,127
48500,note_off,198,0,0,,12,,,71,127
48502,note_on,2,0,0,,6,,,42,127
48502,note_on,0,0,0,,11,,,70,127
48698,note_off,196,0,0,,6,,,54,127
48700,note_off,2,0,0,,11,,,70,127
48700,note_off,0,0,0,,6,,,42,127
48702,note_on,2,0,0,,12,,,47,127
48702,note_on,0,0,0,,11,,,70,127
49101,note_off,399,0,0,,11,,,70,127
49103,note_on,2,0,0,,12,,,71,127
49301,note_off,198,0,0,,12,,,47,127
49303,note_on,2,0,0,,12,,,59,127
49501,note_off,198,0,0,,12,,,59,127
49503,note_on,2,0,0,,12,,,59,127
49701,note_off,198,0,0,,12,,,59,127
49702,note_off,1,0,0,,12,,,71,127
49703,note_on,1,0,0,,12,,,59,127
49901,note_off,198,0,0,,12,,,59,127
49903,note_on,2,0,0,,0,,,60,127
49903,note_on,0,0,0,,4,,,64,127
50101,note_off,198,0,0,,4,,,64,127
50101,note_off,0,0,0,,0,,,60,127
50103,note_on,2,0,0,,12,,,59,127
50103,note_on,0,0,0,,4,,,64,127
50201,note_off,98,0,0,,12,,,59,127
50203,note_on,2,0,0,,10,,,57,127
50301,note_off,98,0,0,,10,,,57,127
50301,note_off,0,0,0,,4,,,64,127
50303,note_on,2,0,0,,7,,,55,127
50303,note_on,0,0,0,,4,,,64,127
50401,note_off,98,0,0,,7,,,55,127
50403,note_on,2,0,0,,10,,,57,127
50501,note_off,98,0,0,,10,,,57,127
50501,note_off,0,0,0,,4,,,64,127
50503,note_on,2,0,0,,12,,,59,127
50503,note_on,0,0,0,,7,,,67,127
50701,note_off,198,0,0,,7,,,67,127
50701,note_off,0,0,0,,12,,,59,127
50703,note_on,2,0,0,,12,,,59,127
50703,note_on,0,0,0,,6,,,66,127
50801,note_off,98,0,0,,6,,,66,127
50803,note_on,2,0,0,,4,,,64,127
50901,note_off,98,0,0,,4,,,64,127
50901,note_off,0,0,0,,12,,,59,127
50903,note_on,2,0,0,,12,,,59,127
50903,note_on,0,0,0,,3,,,63,127
51001,note_off,98,0,0,,3,,,63,127
51003,note_on,2,0,0,,4,,,64,127
51101,note_off,98,0,0,,4,,,64,127
51101,note_off,0,0,0,,12,,,59,127
51103,note_on,2,0,0,,12,,,59,127
51103,note_on,0,0,0,,12,,,71,127
51301,note_off,198,0,0,,12,,,71,127
51301,note_off,0,0,0,,12,,,59,127
51303,note_on,2,0,0,,8,,,56,127
51303,note_on,0,0,0,,12,,,71,127
51501,note_off,198,0,0,,12,,,71,127
51501,note_off,0,0,0,,8,,,56,127
51503,note_on,2,0,0,,4,,,52,127
51503,note_on,0,0,0,,12,,,71,127
51701,note_off,198,0,0,,12,,,71,127
51701,note_off,0,0,0,,4,,,52,127
51703,note_on,2,0,0,,10,,,57,127
51703,note_on,0,0,0,,0,,,72,127
51901,note_off,198,0,0,,0,,,72,127
51903,note_on,2,0,0,,12,,,71,127
52001,note_off,98,0,0,,12,,,71,127
52003,note_on,2,0,0,,10,,,69,127
52101,note_off,98,0,0,,10,,,69,127
52103,note_on,2,0,0,,8,,,68,127
52201,note_off,98,0,0,,8,,,68,127
52203,note_on,2,0,0,,10,,,69,127
52301,note_off,98,0,0,,10,,,69,127
52301,note_off,0,0,0,,10,,,57,127
52303,note_on,2,0,0,,4,,,52,127
52303,note_on,0,0,0,,12,,,71,127
52501,note_off,198,0,0,,4,,,52,127
52503,note_on,2,0,0,,4,,,52,127
52701,note_off,198,0,0,,4,,,52,127
52701,note_off,0,0,0,,12,,,71,127
52703,note_on,2,0,0,,4,,,52,127
52703,note_on,0,0,0,,0,,,72,127
52901,note_off,198,0,0,,0,,,72,127
52901,note_off,0,0,0,,4,,,52,127
52903,note_on,2,0,0,,5,,,53,127
52903,note_on,0,0,0,,10,,,69,127
53101,note_off,198,0,0,,5,,,53,127
53103,note_on,2,0,0,,4,,,52,127
53201,note_off,98,0,0,,4,,,52,127
53203,note_on,2,0,0,,2,,,50,127
53301,note_off,98,0,0,,2,,,50,127
53303,note_on,2,0,0,,0,,,48,127
53401,note_off,98,0,0,,0,,,48,127
53403,note_off,2,0,0,,10,,,69,127
53403,note_on,0,0,0,,2,,,50,127
53501,note_off,98,0,0,,2,,,50,127
53503,note_on,2,0,0,,4,,,52,127
53503,note_on,0,0,0,,4,,,76,127
53701,note_off,198,0,0,,4,,,76,127
53701,note_off,0,0,0,,4,,,52,127
53703,note_on,2,0,0,,0,,,48,127
53703,note_on,0,0,0,,4,,,76,127
53901,note_off,198,0,0,,4,,,76,127
53901,note_off,0,0,0,,0,,,48,127
53903,note_on,2,0,0,,10,,,45,127
53903,note_on,0,0,0,,4,,,76,127
54101,note_off,198,0,0,,4,,,76,127
54101,note_off,0,0,0,,10,,,45,127
54103,note_on,2,0,0,,2,,,50,127
54103,note_on,0,0,0,,7,,,79,127
54201,note_off,98,0,0,,7,,,79,127
54203,note_on,2,0,0,,5,,,77,127
54301,note_off,98,0,0,,5,,,77,127
54303,note_on,2,0,0,,4,,,76,127
54401,note_off,98,0,0,,4,,,76,127
54403,note_on,2,0,0,,2,,,74,127
54501,note_off,98,0,0,,2,,,74,127
54501,note_off,0,0,0,,2,,,50,127
54503,note_on,2,0,0,,5,,,53,127
54503,note_on,0,0,0,,0,,,72,127
54601,note_off,98,0,0,,0,,,72,127
54603,note_on,2,0,0,,2,,,74,127
54701,note_off,98,0,0,,2,,,74,127
54701,note_off,0,0,0,,5,,,53,127
54703,note_on,2,0,0,,4,,,52,127
54703,note_on,0,0,0,,4,,,76,127
54801,note_off,98,0,0,,4,,,52,127
54803,note_on,2,0,0,,6,,,54,127
54901,note_off,98,0,0,,6,,,54,127
54903,note_on,2,0,0,,8,,,56,127
55001,note_off,98,0,0,,8,,,56,127
55003,note_off,2,0,0,,4,,,76,127
55003,note_on,0,0,0,,10,,,57,127
55101,note_off,98,0,0,,10,,,57,127
55103,note_on,2,0,0,,12,,,59,127
55201,note_off,98,0,0,,12,,,59,127
55203,note_on,2,0,0,,0,,,60,127
55301,note_off,98,0,0,,0,,,60,127
55303,note_on,2,0,0,,2,,,62,127
55303,note_on,0,0,0,,8,,,68,127
55401,note_off,98,0,0,,8,,,68,127
55403,note_on,2,0,0,,10,,,69,127
55501,note_off,98,0,0,,10,,,69,127
55503,note_on,2,0,0,,12,,,71,127
55601,note_off,98,0,0,,12,,,71,127
55603,note_on,2,0,0,,0,,,72,127
55701,note_off,98,0,0,,0,,,72,127
55703,note_on,2,0,0,,2,,,74,127
55801,note_off,98,0,0,,2,,,74,127
55803,note_on,2,0,0,,4,,,76,127
55901,note_off,98,0,0,,4,,,76,127
55901,note_off,0,0,0,,2,,,62,127
55903,note_on,2,0,0,,8,,,56,127
55903,note_on,0,0,0,,5,,,77,127
56001,note_off,98,0,0,,8,,,56,127
56003,note_on,2,0,0,,10,,,57,127
56101,note_off,98,0,0,,10,,,57,127
56103,note_on,2,0,0,,12,,,59,127
56201,note_off,98,0,0,,12,,,59,127
56203,note_on,2,0,0,,0,,,60,127
56301,note_off,98,0,0,,0,,,60,127
56303,note_on,2,0,0,,2,,,62,127
56401,note_off,98,0,0,,2,,,62,127
56403,note_on,2,0,0,,4,,,64,127
56501,note_off,98,0,0,,4,,,64,127
56503,note_on,2,0,0,,5,,,65,127
56601,note_off,98,0,0,,5,,,77,127
56603,note_on,2,0,0,,4,,,76,127
56701,note_off,98,0,0,,4,,,76,127
56703,note_on,2,0,0,,2,,,74,127
56801,note_off,98,0,0,,2,,,74,127
56803,note_on,2,0,0,,0,,,72,127
56901,note_off,98,0,0,,0,,,72,127
56903,note_on,2,0,0,,12,,,71,127
57001,note_off,98,0,0,,12,,,71,127
57003,note_on,2,0,0,,10,,,69,127
57101,note_off,98,0,0,,10,,,69,127
57101,note_off,0,0,0,,5,,,65,127
57103,note_on,2,0,0,,7,,,55,127
57103,note_on,0,0,0,,7,,,67,127
57201,note_off,98,0,0,,7,,,67,127
57203,note_on,2,0,0,,5,,,65,127
57301,note_off,98,0,0,,5,,,65,127
57303,note_on,2,0,0,,4,,,64,127
57401,note_off,98,0,0,,4,,,64,127
57403,note_on,2,0,0,,2,,,62,127
57501,note_off,98,0,0,,2,,,62,127
57503,note_on,2,0,0,,0,,,60,127
57601,note_off,98,0,0,,0,,,60,127
57603,note_on,2,0,0,,12,,,59,127
57701,note_off,98,0,0,,12,,,59,127
57701,note_off,0,0,0,,7,,,55,127
57703,note_on,2,0,0,,7,,,55,127
57703,note_on,0,0,0,,0,,,60,127
57901,note_off,198,0,0,,7,,,55,127
57903,note_on,2,0,0,,7,,,55,127
57903,note_on,0,0,0,,0,,,72,127
58099,note_off,196,0,0,,0,,,60,127
58101,note_off,2,0,0,,7,,,55,127
58103,note_on,2,0,0,,7,,,55,127
58103,note_on,0,0,0,,2,,,62,127
58299,note_off,196,0,0,,0,,,72,127
58301,note_off,2,0,0,,2,,,62,127
58301,note_off,0,0,0,,7,,,55,127
58303,note_on,2,0,0,,0,,,60,127
58303,note_on,0,0,0,,7,,,55,127
58303,note_on,0,0,0,,0,,,72,127
58303,note_on,0,0,0,,3,,,63,127
58501,note_off,198,0,0,,7,,,55,127
58501,note_off,0,0,0,,0,,,60,127
58503,note_on,2,0,0,,0,,,60,127
58503,note_on,0,0,0,,7,,,55,127
58701,note_off,198,0,0,,7,,,55,127
58701,note_off,0,0,0,,0,,,60,127
58703,note_on,2,0,0,,0,,,60,127
58703,note_on,0,0,0,,7,,,55,127
58901,note_off,198,0,0,,7,,,55,127
58901,note_off,0,0,0,,0,,,60,127
58901,note_off,0,0,0,,3,,,63,127
58901,note_off,0,0,0,,0,,,72,127
58903,note_on,2,0,0,,6,,,54,127
58903,note_on,0,0,0,,0,,,60,127
58903,note_on,0,0,0,,0,,,72,127
58903,note_on,0,0,0,,2,,,62,127
59101,note_off,198,0,0,,0,,,60,127
59101,note_off,0,0,0,,6,,,54,127
59103,note_on,2,0,0,,0,,,60,127
59103,note_on,0,0,0,,6,,,54,127
59301,note_off,198,0,0,,6,,,54,127
59301,note_off,0,0,0,,0,,,60,127
59303,note_on,2,0,0,,6,,,54,127
59303,note_on,0,0,0,,0,,,60,127
59501,note_off,198,0,0,,0,,,60,127
59501,note_off,0,0,0,,6,,,54,127
59501,note_off,0,0,0,,2,,,62,127
59503,note_on,2,0,0,,6,,,54,127
59503,note_on,0,0,0,,0,,,60,127
59503,note_on,0,0,0,,2,,,62,127
59701,note_off,198,0,0,,0,,,60,127
59701,note_off,0,0,0,,6,,,54,127
59702,note_off,1,0,0,,0,,,72,127
59703,note_on,1,0,0,,6,,,54,127
59703,note_on,0,0,0,,0,,,60,127
59703,note_on,0,0,0,,2,,,74,127
59901,note_off,198,0,0,,2,,,74,127
59901,note_off,0,0,0,,0,,,60,127
59901,note_off,0,0,0,,6,,,54,127
59903,note_on,2,0,0,,0,,,60,127
59903,note_on,0,0,0,,6,,,54,127
59903,note_on,0,0,0,,11,,,70,127
60101,note_off,198,0,0,,11,,,70,127
60101,note_off,0,0,0,,6,,,54,127
60101,note_off,0,0,0,,0,,,60,127
60103,note_on,2,0,0,,12,,,59,127
60103,note_on,0,0,0,,6,,,54,127
60103,note_on,0,0,0,,12,,,71,127
60301,note_off,198,0,0,,6,,,54,127
60301,note_off,0,0,0,,12,,,59,127
60302,note_off,1,0,0,,2,,,62,127
60303,note_on,1,0,0,,6,,,54,127
60303,note_on,0,0,0,,12,,,59,127
60303,note_on,0,0,0,,4,,,64,127
60501,note_off,198,0,0,,4,,,64,127
60501,note_off,0,0,0,,12,,,59,127
60501,note_off,0,0,0,,6,,,54,127
60503,note_on,2,0,0,,6,,,54,127
60503,note_on,0,0,0,,12,,,59,127
60701,note_off,198,0,0,,12,,,59,127
60701,note_off,0,0,0,,6,,,54,127
60703,note_on,2,0,0,,12,,,59,127
60703,note_on,0,0,0,,4,,,52,127
60703,note_on,0,0,0,,0,,,60,127
60901,note_off,198,0,0,,4,,,52,127
60901,note_off,0,0,0,,12,,,59,127
60902,note_off,1,0,0,,12,,,71,127
60903,note_on,1,0,0,,4,,,52,127
60903,note_on,0,0,0,,12,,,59,127
60903,note_on,0,0,0,,0,,,72,127
61101,note_off,198,0,0,,0,,,72,127
61101,note_off,0,0,0,,12,,,59,127
61101,note_off,0,0,0,,4,,,52,127
61103,note_on,2,0,0,,4,,,52,127
61103,note_on,0,0,0,,12,,,59,127
61103,note_on,0,0,0,,8,,,68,127
61301,note_off,198,0,0,,8,,,68,127
61301,note_off,0,0,0,,12,,,59,127
61301,note_off,0,0,0,,4,,,52,127
61303,note_on,2,0,0,,10,,,57,127
61303,note_on,0,0,0,,4,,,52,127
61303,note_on,0,0,0,,10,,,69,127
61501,note_off,198,0,0,,4,,,52,127
61501,note_off,0,0,0,,10,,,57,127
61502,note_off,1,0,0,,0,,,60,127
61503,note_on,1,0,0,,10,,,57,127
61503,note_on,0,0,0,,4,,,52,127
61503,note_on,0,0,0,,2,,,62,127
61701,note_off,198,0,0,,2,,,62,127
61701,note_off,0,0,0,,4,,,52,127
61701,note_off,0,0,0,,10,,,57,127
61703,note_on,2,0,0,,4,,,52,127
61703,note_on,0,0,0,,10,,,57,127
61901,note_off,198,0,0,,10,,,57,127
61901,note_off,0,0,0,,4,,,52,127
61903,note_on,2,0,0,,10,,,57,127
61903,note_on,0,0,0,,3,,,51,127
61903,note_on,0,0,0,,12,,,59,127
62101,note_off,198,0,0,,3,,,51,127
62101,note_off,0,0,0,,10,,,57,127
62102,note_off,1,0,0,,10,,,69,127
62103,note_on,1,0,0,,3,,,51,127
62103,note_on,0,0,0,,10,,,57,127
62103,note_on,0,0,0,,12,,,71,127
62301,note_off,198,0,0,,12,,,71,127
62301,note_off,0,0,0,,10,,,57,127
62301,note_off,0,0,0,,3,,,51,127
62303,note_on,2,0,0,,3,,,51,127
62303,note_on,0,0,0,,10,,,57,127
62303,note_on,0,0,0,,6,,,66,127
62501,note_off,198,0,0,,6,,,66,127
62501,note_off,0,0,0,,10,,,57,127
62501,note_off,0,0,0,,3,,,51,127
62502,note_off,1,0,0,,12,,,59,127
62503,note_on,1,0,0,,12,,,59,127
62503,note_on,0,0,0,,7,,,55,127
62503,note_on,0,0,0,,4,,,52,127
62503,note_on,0,0,0,,7,,,67,127
62701,note_off,198,0,0,,7,,,67,127
62701,note_off,0,0,0,,4,,,52,127
62701,note_off,0,0,0,,7,,,55,127
62701,note_off,0,0,0,,12,,,59,127
62703,note_on,2,0,0,,12,,,59,127
62703,note_on,0,0,0,,7,,,55,127
62703,note_on,0,0,0,,4,,,52,127
62703,note_on,0,0,0,,10,,,69,127
62901,note_off,198,0,0,,10,,,69,127
62901,note_off,0,0,0,,4,,,52,127
62901,note_off,0,0,0,,7,,,55,127
62901,note_off,0,0,0,,12,,,59,127
62903,note_on,2,0,0,,4,,,52,127
62903,note_on,0,0,0,,12,,,59,127
62903,note_on,0,0,0,,7,,,55,127
62903,note_on,0,0,0,,12,,,71,127
63101,note_off,198,0,0,,7,,,55,127
63101,note_off,0,0,0,,12,,,59,127
63101,note_off,0,0,0,,4,,,52,127
63103,note_on,2,0,0,,4,,,52,127
63103,note_on,0,0,0,,0,,,48,127
63103,note_on,0,0,0,,7,,,55,127
63301,note_off,198,0,0,,7,,,55,127
63301,note_off,0,0,0,,0,,,48,127
63301,note_off,0,0,0,,4,,,52,127
63301,note_off,0,0,0,,12,,,71,127
63303,note_on,2,0,0,,4,,,52,127
63303,note_on,0,0,0,,0,,,48,127
63303,note_on,0,0,0,,7,,,55,127
63303,note_on,0,0,0,,10,,,69,127
63501,note_off,198,0,0,,10,,,69,127
63501,note_off,0,0,0,,7,,,55,127
63501,note_off,0,0,0,,0,,,48,127
63501,note_off,0,0,0,,4,,,52,127
63503,note_on,2,0,0,,0,,,48,127
63503,note_on,0,0,0,,4,,,52,127
63503,note_on,0,0,0,,7,,,55,127
63503,note_on,0,0,0,,7,,,67,127
63701,note_off,198,0,0,,7,,,55,127
63701,note_off,0,0,0,,4,,,52,127
63701,note_off,0,0,0,,0,,,48,127
63703,note_on,2,0,0,,0,,,48,127
63703,note_on,0,0,0,,7,,,55,127
63703,note_on,0,0,0,,10,,,45,127
63901,note_off,198,0,0,,10,,,45,127
63901,note_off,0,0,0,,7,,,55,127
63901,note_off,0,0,0,,0,,,48,127
63901,note_off,0,0,0,,7,,,67,127
63903,note_on,2,0,0,,10,,,45,127
63903,note_on,0,0,0,,0,,,48,127
63903,note_on,0,0,0,,7,,,55,127
63903,note_on,0,0,0,,10,,,69,127
64001,note_off,98,0,0,,10,,,69,127
64003,note_on,2,0,0,,7,,,67,127
64101,note_off,98,0,0,,7,,,67,127
64101,note_off,0,0,0,,7,,,55,127
64101,note_off,0,0,0,,0,,,48,127
64101,note_off,0,0,0,,10,,,45,127
64103,note_on,2,0,0,,0,,,48,127
64103,note_on,0,0,0,,10,,,45,127
64103,note_on,0,0,0,,6,,,66,127
64201,note_off,98,0,0,,6,,,66,127
64203,note_on,2,0,0,,4,,,64,127
64301,note_off,98,0,0,,4,,,64,127
64301,note_off,0,0,0,,10,,,45,127
64301,note_off,0,0,0,,0,,,48,127
64303,note_on,2,0,0,,12,,,47,127
64303,note_on,0,0,0,,12,,,59,127
64401,note_off,98,0,0,,12,,,59,127
64403,note_on,2,0,0,,1,,,61,127
64501,note_off,98,0,0,,1,,,61,127
64503,note_on,2,0,0,,3,,,63,127
64601,note_off,98,0,0,,3,,,63,127
64603,note_on,2,0,0,,4,,,64,127
64701,note_off,98,0,0,,4,,,64,127
64703,note_on,2,0,0,,6,,,66,127
64801,note_off,98,0,0,,6,,,66,127
64803,note_on,2,0,0,,7,,,67,127
64901,note_off,98,0,0,,7,,,67,127
64901,note_off,0,0,0,,12,,,47,127
64903,note_on,2,0,0,,12,,,47,127
64903,note_on,0,0,0,,10,,,69,127
65001,note_off,98,0,0,,12,,,47,127
65003,note_on,2,0,0,,1,,,49,127
65101,note_off,98,0,0,,1,,,49,127
65103,note_on,2,0,0,,3,,,51,127
65201,note_off,98,0,0,,3,,,51,127
65203,note_on,2,0,0,,4,,,52,127
65301,note_off,98,0,0,,4,,,52,127
65303,note_on,2,0,0,,6,,,54,127
65401,note_off,98,0,0,,6,,,54,127
65403,note_on,2,0,0,,7,,,55,127
65501,note_off,98,0,0,,7,,,55,127
65501,note_off,0,0,0,,10,,,69,127
65503,note_on,2,0,0,,10,,,57,127
65503,note_on,0,0,0,,3,,,63,127
65601,note_off,98,0,0,,3,,,63,127
65603,note_on,2,0,0,,4,,,64,127
65701,note_off,98,0,0,,4,,,64,127
65703,note_on,2,0,0,,6,,,66,127
65801,note_off,98,0,0,,6,,,66,127
65803,note_on,2,0,0,,7,,,67,127
65901,note_off,98,0,0,,7,,,67,127
65903,note_on,2,0,0,,10,,,69,127
66001,note_off,98,0,0,,10,,,69,127
66003,note_on,2,0,0,,12,,,71,127
66101,note_off,98,0,0,,12,,,71,127
66101,note_off,0,0,0,,10,,,57,127
66103,note_on,2,0,0,,3,,,51,127
66103,note_on,0,0,0,,0,,,72,127
66201,note_off,98,0,0,,3,,,51,127
66203,note_on,2,0,0,,4,,,52,127
66301,note_off,98,0,0,,4,,,52,127
66303,note_on,2,0,0,,6,,,54,127
66401,note_off,98,0,0,,6,,,54,127
66403,note_on,2,0,0,,7,,,55,127
66501,note_off,98,0,0,,7,,,55,127
66503,note_on,2,0,0,,10,,,57,127
66601,note_off,98,0,0,,10,,,57,127
66603,note_on,2,0,0,,12,,,59,127
66701,note_off,98,0,0,,12,,,59,127
66703,note_on,2,0,0,,0,,,60,127
66801,note_off,98,0,0,,0,,,72,127
66803,note_on,2,0,0,,12,,,71,127
66901,note_off,98,0,0,,12,,,71,127
66903,note_on,2,0,0,,10,,,69,127
67001,note_off,98,0,0,,10,,,69,127
67003,note_on,2,0,0,,7,,,67,127
67101,note_off,98,0,0,,7,,,67,127
67103,note_on,2,0,0,,6,,,66,127
67201,note_off,98,0,0,,6,,,66,127
67203,note_on,2,0,0,,4,,,64,127
67301,note_off,98,0,0,,4,,,64,127
67303,note_on,2,0,0,,3,,,63,127
67401,note_off,98,0,0,,0,,,60,127
67403,note_on,2,0,0,,12,,,59,127
67501,note_off,98,0,0,,12,,,59,127
67503,note_on,2,0,0,,10,,,57,127
67601,note_off,98,0,0,,10,,,57,127
67603,note_on,2,0,0,,7,,,55,127
67701,note_off,98,0,0,,7,,,55,127
67703,note_on,2,0,0,,6,,,54,127
67801,note_off,98,0,0,,6,,,54,127
67803,note_on,2,0,0,,4,,,52,127
67901,note_off,98,0,0,,4,,,52,127
67903,note_on,2,0,0,,3,,,51,127
68001,note_off,98,0,0,,3,,,51,127
68003,note_on,2,0,0,,0,,,48,127
68101,note_off,98,0,0,,0,,,48,127
68101,note_off,0,0,0,,3,,,63,127
68103,note_on,2,0,0,,12,,,47,127
68103,note_on,0,0,0,,4,,,64,127
68201,note_off,98,0,0,,12,,,47,127
68203,note_on,2,0,0,,10,,,45,127
68301,note_off,98,0,0,,10,,,45,127
68301,note_off,0,0,0,,4,,,64,127
68303,note_on,2,0,0,,7,,,43,127
68303,note_on,0,0,0,,6,,,66,127
68401,note_off,98,0,0,,7,,,43,127
68403,note_on,2,0,0,,6,,,42,127
68501,note_off,98,0,0,,6,,,42,127
68501,note_off,0,0,0,,6,,,66,127
68503,note_on,2,0,0,,7,,,43,127
68503,note_on,0,0,0,,12,,,71,127
68601,note_off,98,0,0,,7,,,43,127
68603,note_on,2,0,0,,6,,,42,127
68701,note_off,98,0,0,,6,,,42,127
68701,note_off,0,0,0,,12,,,71,127
68703,note_on,2,0,0,,4,,,40,127
68703,note_on,0,0,0,,7,,,67,127
68801,note_off,98,0,0,,4,,,40,127
68803,note_on,2,0,0,,6,,,42,127
68901,note_off,98,0,0,,6,,,42,127
68901,note_off,0,0,0,,7,,,67,127
68903,note_on,2,0,0,,7,,,43,127
68903,note_on,0,0,0,,4,,,64,127
69001,note_off,98,0,0,,7,,,43,127
69003,note_on,2,0,0,,10,,,45,127
69101,note_off,98,0,0,,10,,,45,127
69101,note_off,0,0,0,,4,,,64,127
69103,note_on,2,0,0,,12,,,47,127
69103,note_on,0,0,0,,0,,,60,127
69168,note_off,65,0,0,,0,,,60,127
69170,note_on,2,0,0,,12,,,59,127
69235,note_off,65,0,0,,12,,,59,127
69237,note_on,2,0,0,,0,,,60,127
69302,note_off,65,0,0,,0,,,60,127
69304,note_on,2,0,0,,12,,,59,127
69703,note_off,399,0,0,,12,,,47,127
69705,note_on,2,0,0,,12,,,47,127
69805,note_off,100,0,0,,12,,,59,127
69905,note_on,100,0,0,,4,,,52,127
70103,note_off,198,0,0,,4,,,52,127
70105,note_on,2,0,0,,7,,,55,127
70205,note_on,100,0,0,,12,,,71,127
70303,note_off,98,0,0,,12,,,71,127
70305,note_on,2,0,0,,4,,,64,127
70503,note_off,198,0,0,,4,,,64,127
70503,note_off,0,0,0,,7,,,55,127
70505,note_on,2,0,0,,6,,,54,127
70505,note_on,0,0,0,,3,,,63,127
70703,note_off,198,0,0,,3,,,63,127
70703,note_off,0,0,0,,6,,,54,127
70705,note_on,2,0,0,,4,,,52,127
70705,note_on,0,0,0,,4,,,64,127
70903,note_off,198,0,0,,4,,,52,127
70903,note_off,0,0,0,,12,,,47,127
70905,note_on,2,0,0,,12,,,47,127
71005,note_off,100,0,0,,4,,,64,127
71105,note_on,100,0,0,,6,,,54,127
71303,note_off,198,0,0,,6,,,54,127
71305,note_on,2,0,0,,10,,,57,127
71405,note_on,100,0,0,,0,,,72,127
71503,note_off,98,0,0,,0,,,72,127
71505,note_on,2,0,0,,3,,,63,127
71703,note_off,198,0,0,,3,,,63,127
71703,note_off,0,0,0,,10,,,57,127
71705,note_on,2,0,0,,7,,,55,127
71705,note_on,0,0,0,,4,,,64,127
71903,note_off,198,0,0,,4,,,64,127
71903,note_off,0,0,0,,7,,,55,127
71905,note_on,2,0,0,,6,,,54,127
71905,note_on,0,0,0,,6,,,66,127
72103,note_off,198,0,0,,6,,,54,127
72103,note_off,0,0,0,,12,,,47,127
72105,note_on,2,0,0,,12,,,47,127
72205,note_off,100,0,0,,6,,,66,127
72305,note_on,100,0,0,,4,,,52,127
72503,note_off,198,0,0,,4,,,52,127
72505,note_on,2,0,0,,7,,,55,127
72605,note_on,100,0,0,,4,,,76,127
72703,note_off,98,0,0,,4,,,76,127
72705,note_on,2,0,0,,4,,,64,127
72903,note_off,198,0,0,,4,,,64,127
72903,note_off,0,0,0,,7,,,55,127
72905,note_on,2,0,0,,6,,,54,127
72905,note_on,0,0,0,,6,,,66,127
73103,note_off,198,0,0,,6,,,66,127
73103,note_off,0,0,0,,6,,,54,127
73105,note_on,2,0,0,,4,,,52,127
73105,note_on,0,0,0,,7,,,67,127
73303,note_off,198,0,0,,4,,,52,127
73303,note_off,0,0,0,,12,,,47,127
73305,note_on,2,0,0,,0,,,48,127
73405,note_off,100,0,0,,7,,,67,127
73505,note_on,100,0,0,,10,,,57,127
73703,note_off,198,0,0,,10,,,57,127
73705,note_on,2,0,0,,0,,,60,127
73805,note_on,100,0,0,,4,,,76,127
73903,note_off,98,0,0,,4,,,76,127
73905,note_on,2,0,0,,10,,,69,127
74103,note_off,198,0,0,,10,,,69,127
74103,note_off,0,0,0,,0,,,60,127
74105,note_on,2,0,0,,12,,,59,127
74105,note_on,0,0,0,,12,,,71,127
74303,note_off,198,0,0,,12,,,71,127
74303,note_off,0,0,0,,12,,,59,127
74305,note_on,2,0,0,,10,,,57,127
74305,note_on,0,0,0,,0,,,72,127
74503,note_off,198,0,0,,0,,,72,127
74503,note_off,0,0,0,,10,,,57,127
74503,note_off,0,0,0,,0,,,48,127
74505,note_on,2,0,0,,3,,,63,127
74505,note_on,0,0,0,,2,,,74,127
74603,note_off,98,0,0,,2,,,74,127
74605,note_on,2,0,0,,0,,,72,127
74703,note_off,98,0,0,,0,,,72,127
74703,note_off,0,0,0,,3,,,63,127
74705,note_on,2,0,0,,12,,,59,127
74705,note_on,0,0,0,,12,,,71,127
74803,note_off,98,0,0,,12,,,71,127
74805,note_on,2,0,0,,10,,,69,127
74903,note_off,98,0,0,,10,,,69,127
74903,note_off,0,0,0,,12,,,59,127
74905,note_on,2,0,0,,4,,,64,127
74905,note_on,0,0,0,,10,,,69,127
75003,note_off,98,0,0,,10,,,69,127
75005,note_on,2,0,0,,7,,,67,127
75103,note_off,98,0,0,,7,,,67,127
75103,note_off,0,0,0,,4,,,64,127
75105,note_on,2,0,0,,10,,,57,127
75105,note_on,0,0,0,,6,,,66,127
75203,note_off,98,0,0,,6,,,66,127
75205,note_on,2,0,0,,4,,,64,127
75303,note_off,98,0,0,,4,,,64,127
75303,note_off,0,0,0,,10,,,57,127
75305,note_on,2,0,0,,12,,,59,127
75305,note_on,0,0,0,,4,,,64,127
75503,note_off,198,0,0,,4,,,64,127
75505,note_on,2,0,0,,12,,,47,127
75505,note_on,0,0,0,,3,,,63,127
75701,note_off,196,0,0,,12,,,59,127
75703,note_off,2,0,0,,3,,,63,127
75703,note_off,0,0,0,,12,,,47,127
75705,note_on,2,0,0,,4,,,52,127
75705,note_on,0,0,0,,3,,,63,127
76104,note_off,399,0,0,,3,,,63,127
76106,note_on,2,0,0,,4,,,64,127
76304,note_off,198,0,0,,4,,,64,127
76304,note_off,0,0,0,,4,,,52,127
76306,note_on,2,0,0,,12,,,59,127
76506,note_on,200,0,0,,4,,,64,127
76704,note_off,198,0,0,,4,,,64,127
76706,note_on,2,0,0,,7,,,67,127
76806,note_on,100,0,0,,12,,,83,127
76904,note_off,98,0,0,,12,,,83,127
76906,note_on,2,0,0,,4,,,76,127
77004,note_off,98,0,0,,4,,,76,127
77006,note_on,2,0,0,,3,,,75,127
77104,note_off,98,0,0,,3,,,75,127
77104,note_off,0,0,0,,7,,,67,127
77106,note_on,2,0,0,,6,,,66,127
77106,note_on,0,0,0,,3,,,75,127
77204,note_off,98,0,0,,3,,,75,127
77206,note_on,2,0,0,,4,,,76,127
77304,note_off,98,0,0,,4,,,76,127
77304,note_off,0,0,0,,6,,,66,127
77306,note_on,2,0,0,,4,,,64,127
77306,note_on,0,0,0,,4,,,76,127
77404,note_off,98,0,0,,4,,,76,127
77406,note_on,2,0,0,,6,,,78,127
77504,note_off,98,0,0,,4,,,64,127
77504,note_off,0,0,0,,12,,,59,127
77506,note_on,2,0,0,,12,,,59,127
77556,note_off,50,0,0,,6,,,78,127
77706,note_on,150,0,0,,6,,,66,127
77904,note_off,198,0,0,,6,,,66,127
77906,note_on,2,0,0,,10,,,69,127
78006,note_on,100,0,0,,0,,,84,127
78104,note_off,98,0,0,,0,,,84,127
78106,note_on,2,0,0,,3,,,75,127
78204,note_off,98,0,0,,3,,,75,127
78206,note_on,2,0,0,,4,,,76,127
78304,note_off,98,0,0,,4,,,76,127
78304,note_off,0,0,0,,10,,,69,127
78306,note_on,2,0,0,,7,,,67,127
78306,note_on,0,0,0,,4,,,76,127
78404,note_off,98,0,0,,4,,,76,127
78406,note_on,2,0,0,,6,,,78,127
78504,note_off,98,0,0,,6,,,78,127
78504,note_off,0,0,0,,7,,,67,127
78506,note_on,2,0,0,,6,,,66,127
78506,note_on,0,0,0,,6,,,78,127
78604,note_off,98,0,0,,6,,,78,127
78606,note_on,2,0,0,,7,,,79,127
78704,note_off,98,0,0,,6,,,66,127
78704,note_off,0,0,0,,12,,,59,127
78706,note_on,2,0,0,,12,,,59,127
78756,note_off,50,0,0,,7,,,79,127
78906,note_on,150,0,0,,4,,,64,127
79104,note_off,198,0,0,,4,,,64,127
79106,note_on,2,0,0,,7,,,67,127
79206,note_on,100,0,0,,12,,,83,127
79304,note_off,98,0,0,,12,,,83,127
79306,note_on,2,0,0,,4,,,76,127
79404,note_off,98,0,0,,4,,,76,127
79406,note_on,2,0,0,,6,,,78,127
79504,note_off,98,0,0,,6,,,78,127
79504,note_off,0,0,0,,7,,,67,127
79506,note_on,2,0,0,,6,,,66,127
79506,note_on,0,0,0,,6,,,78,127
79604,note_off,98,0,0,,6,,,78,127
79606,note_on,2,0,0,,7,,,79,127
79704,note_off,98,0,0,,7,,,79,127
79704,note_off,0,0,0,,6,,,66,127
79706,note_on,2,0,0,,4,,,64,127
79706,note_on,0,0,0,,7,,,79,127
79804,note_off,98,0,0,,7,,,79,127
79806,note_on,2,0,0,,10,,,81,127
79904,note_off,98,0,0,,4,,,64,127
79904,note_off,0,0,0,,12,,,59,127
79906,note_on,2,0,0,,0,,,60,127
79956,note_off,50,0,0,,10,,,81,127
80106,note_on,150,0,0,,10,,,69,127
80304,note_off,198,0,0,,10,,,69,127
80306,note_on,2,0,0,,0,,,72,127
80406,note_on,100,0,0,,0,,,84,127
80504,note_off,98,0,0,,0,,,84,127
80506,note_on,2,0,0,,8,,,80,127
80604,note_off,98,0,0,,8,,,80,127
80606,note_on,2,0,0,,10,,,81,127
80704,note_off,98,0,0,,10,,,81,127
80704,note_off,0,0,0,,0,,,72,127
80706,note_on,2,0,0,,12,,,71,127
80706,note_on,0,0,0,,10,,,81,127
80804,note_off,98,0,0,,10,,,81,127
80806,note_on,2,0,0,,12,,,83,127
80904,note_off,98,0,0,,12,,,83,127
80904,note_off,0,0,0,,12,,,71,127
80906,note_on,2,0,0,,10,,,69,127
80906,note_on,0,0,0,,12,,,83,127
81004,note_off,98,0,0,,12,,,83,127
81006,note_on,2,0,0,,0,,,84,127
81104,note_off,98,0,0,,0,,,84,127
81104,note_off,0,0,0,,10,,,69,127
81104,note_off,0,0,0,,0,,,60,127
81106,note_on,2,0,0,,3,,,63,127
81106,note_on,0,0,0,,2,,,86,127
81204,note_off,98,0,0,,2,,,86,127
81206,note_on,2,0,0,,0,,,84,127
81304,note_off,98,0,0,,0,,,84,127
81304,note_off,0,0,0,,3,,,63,127
81306,note_on,2,0,0,,12,,,59,127
81306,note_on,0,0,0,,12,,,83,127
81404,note_off,98,0,0,,12,,,83,127
81406,note_on,2,0,0,,10,,,81,127
81504,note_off,98,0,0,,10,,,81,127
81504,note_off,0,0,0,,12,,,59,127
81506,note_on,2,0,0,,4,,,64,127
81506,note_on,0,0,0,,10,,,81,127
81604,note_off,98,0,0,,10,,,81,127
81606,note_on,2,0,0,,7,,,79,127
81704,note_off,98,0,0,,7,,,79,127
81704,note_off,0,0,0,,4,,,64,127
81706,note_on,2,0,0,,10,,,69,127
81706,note_on,0,0,0,,6,,,78,127
81804,note_off,98,0,0,,6,,,78,127
81806,note_on,2,0,0,,4,,,76,127
81904,note_off,98,0,0,,4,,,76,127
81904,note_off,0,0,0,,10,,,69,127
81906,note_on,2,0,0,,12,,,71,127
81906,note_on,0,0,0,,4,,,76,127
82073,note_off,167,0,0,,4,,,76,127
82106,note_on,33,0,0,,12,,,59,127
82106,note_on,0,0,0,,5,,,77,127
82283,note_off,177,0,0,,5,,,77,127
82302,note_off,19,0,0,,12,,,71,127
82304,note_off,2,0,0,,12,,,59,127
82306,note_on,2,0,0,,10,,,57,127
82306,note_on,0,0,0,,0,,,84,127
82506,note_on,200,0,0,,5,,,65,127
82506,note_on,0,0,0,,10,,,69,127
82604,note_off,98,0,0,,0,,,84,127
82606,note_off,2,0,0,,10,,,57,127
82606,note_on,0,0,0,,0,,,84,127
82704,note_off,98,0,0,,0,,,84,127
82704,note_off,0,0,0,,10,,,69,127
82704,note_off,0,0,0,,5,,,65,127
82706,note_on,2,0,0,,7,,,55,127
82706,note_on,0,0,0,,0,,,84,127
82804,note_off,98,0,0,,0,,,84,127
82806,note_on,2,0,0,,12,,,83,127
82906,note_on,100,0,0,,7,,,67,127
82906,note_on,0,0,0,,4,,,64,127
83004,note_off,98,0,0,,12,,,83,127
83006,note_off,2,0,0,,7,,,55,127
83006,note_on,0,0,0,,12,,,83,127
83104,note_off,98,0,0,,12,,,83,127
83104,note_off,0,0,0,,4,,,64,127
83104,note_off,0,0,0,,7,,,67,127
83106,note_on,2,0,0,,6,,,54,127
83106,note_on,0,0,0,,12,,,83,127
83204,note_off,98,0,0,,12,,,83,127
83206,note_on,2,0,0,,10,,,81,127
83306,note_on,100,0,0,,3,,,63,127
83306,note_on,0,0,0,,6,,,66,127
83404,note_off,98,0,0,,10,,,81,127
83406,note_off,2,0,0,,6,,,54,127
83406,note_on,0,0,0,,10,,,81,127
83504,note_off,98,0,0,,10,,,81,127
83504,note_off,0,0,0,,6,,,66,127
83504,note_off,0,0,0,,3,,,63,127
83506,note_on,2,0,0,,7,,,55,127
83506,note_on,0,0,0,,12,,,83,127
83706,note_on,200,0,0,,4,,,64,127
83706,note_on,0,0,0,,7,,,67,127
83804,note_off,98,0,0,,12,,,83,127
83806,note_off,2,0,0,,7,,,55,127
83806,note_on,0,0,0,,12,,,83,127
83904,note_off,98,0,0,,12,,,83,127
83904,note_off,0,0,0,,7,,,67,127
83904,note_off,0,0,0,,4,,,64,127
83906,note_on,2,0,0,,10,,,57,127
83906,note_on,0,0,0,,0,,,84,127
84106,note_on,200,0,0,,5,,,65,127
84106,note_on,0,0,0,,10,,,69,127
84204,note_off,98,0,0,,0,,,84,127
84206,note_off,2,0,0,,10,,,57,127
84206,note_on,0,0,0,,0,,,84,127
84304,note_off,98,0,0,,0,,,84,127
84304,note_off,0,0,0,,10,,,69,127
84304,note_off,0,0,0,,5,,,65,127
84306,note_on,2,0,0,,7,,,55,127
84306,note_on,0,0,0,,0,,,84,127
84404,note_off,98,0,0,,0,,,84,127
84406,note_on,2,0,0,,12,,,83,127
84506,note_on,100,0,0,,4,,,64,127
84506,note_on,0,0,0,,7,,,67,127
84604,note_off,98,0,0,,12,,,83,127
84606,note_off,2,0,0,,7,,,55,127
84606,note_on,0,0,0,,12,,,83,127
84704,note_off,98,0,0,,12,,,83,127
84704,note_off,0,0,0,,7,,,67,127
84704,note_off,0,0,0,,4,,,64,127
84706,note_on,2,0,0,,6,,,54,127
84706,note_on,0,0,0,,12,,,83,127
84904,note_off,198,0,0,,12,,,83,127
84906,note_on,2,0,0,,3,,,63,127
84906,note_on,0,0,0,,6,,,66,127
84906,note_on,0,0,0,,10,,,81,127
85004,note_off,98,0,0,,10,,,81,127
85006,note_off,2,0,0,,6,,,54,127
85006,note_on,0,0,0,,10,,,81,127
85104,note_off,98,0,0,,10,,,81,127
85104,note_off,0,0,0,,6,,,66,127
85104,note_off,0,0,0,,3,,,63,127
85106,note_on,2,0,0,,7,,,55,127
85106,note_on,0,0,0,,12,,,83,127
85204,note_off,98,0,0,,12,,,83,127
85206,note_on,2,0,0,,10,,,81,127
85304,note_off,98,0,0,,10,,,81,127
85306,note_on,2,0,0,,7,,,79,127
85404,note_off,98,0,0,,7,,,79,127
85406,note_on,2,0,0,,6,,,78,127
85504,note_off,98,0,0,,6,,,78,127
85504,note_off,0,0,0,,7,,,55,127
85506,note_on,2,0,0,,0,,,60,127
85506,note_on,0,0,0,,4,,,76,127
85604,note_off,98,0,0,,4,,,76,127
85606,note_on,2,0,0,,10,,,81,127
85704,note_off,98,0,0,,10,,,81,127
85704,note_off,0,0,0,,0,,,60,127
85706,note_on,2,0,0,,10,,,57,127
85706,note_on,0,0,0,,7,,,79,127
85804,note_off,98,0,0,,7,,,79,127
85806,note_on,2,0,0,,6,,,78,127
85904,note_off,98,0,0,,6,,,78,127
85904,note_off,0,0,0,,10,,,57,127
85906,note_on,2,0,0,,12,,,59,127
85906,note_on,0,0,0,,7,,,79,127
86004,note_off,98,0,0,,7,,,79,127
86006,note_on,2,0,0,,6,,,78,127
86104,note_off,98,0,0,,6,,,78,127
86104,note_off,0,0,0,,12,,,59,127
86106,note_on,2,0,0,,10,,,57,127
86106,note_on,0,0,0,,7,,,79,127
86204,note_off,98,0,0,,7,,,79,127
86206,note_on,2,0,0,,4,,,76,127
86304,note_off,98,0,0,,4,,,76,127
86304,note_off,0,0,0,,10,,,57,127
86306,note_on,2,0,0,,12,,,59,127
86306,note_on,0,0,0,,6,,,78,127
86404,note_off,98,0,0,,6,,,78,127
86406,note_on,2,0,0,,3,,,75,127
86489,note_off,83,0,0,,3,,,75,127
86504,note_off,15,0,0,,12,,,59,127
86506,note_on,2,0,0,,4,,,52,127
86506,note_on,0,0,0,,4,,,64,127
86604,note_off,98,0,0,,4,,,64,127
86606,note_on,2,0,0,,6,,,66,127
86704,note_off,98,0,0,,6,,,66,127
86704,note_off,0,0,0,,4,,,52,127
86706,note_on,2,0,0,,6,,,54,127
86706,note_on,0,0,0,,7,,,67,127
86804,note_off,98,0,0,,7,,,67,127
86806,note_on,2,0,0,,10,,,69,127
86904,note_off,98,0,0,,10,,,69,127
86904,note_off,0,0,0,,6,,,54,127
86906,note_on,2,0,0,,7,,,55,127
86906,note_on,0,0,0,,12,,,71,127
87004,note_off,98,0,0,,12,,,71,127
87006,note_on,2,0,0,,0,,,72,127
87104,note_off,98,0,0,,0,,,72,127
87104,note_off,0,0,0,,7,,,55,127
87106,note_on,2,0,0,,10,,,57,127
87106,note_on,0,0,0,,3,,,75,127
87204,note_off,98,0,0,,3,,,75,127
87206,note_on,2,0,0,,4,,,76,127
87304,note_off,98,0,0,,4,,,76,127
87306,note_on,2,0,0,,4,,,64,127
87404,note_off,98,0,0,,4,,,64,127
87406,note_on,2,0,0,,6,,,66,127
87504,note_off,98,0,0,,6,,,66,127
87504,note_off,0,0,0,,10,,,57,127
87506,note_on,2,0,0,,7,,,55,127
87506,note_on,0,0,0,,7,,,67,127
87604,note_off,98,0,0,,7,,,67,127
87606,note_on,2,0,0,,10,,,69,127
87704,note_off,98,0,0,,10,,,69,127
87704,note_off,0,0,0,,7,,,55,127
87706,note_on,2,0,0,,10,,,57,127
87706,note_on,0,0,0,,12,,,71,127
87804,note_off,98,0,0,,12,,,71,127
87806,note_on,2,0,0,,0,,,72,127
87904,note_off,98,0,0,,0,,,72,127
87906,note_on,2,0,0,,3,,,75,127
88004,note_off,98,0,0,,3,,,75,127
88006,note_on,2,0,0,,4,,,76,127
88104,note_off,98,0,0,,4,,,76,127
88104,note_off,0,0,0,,10,,,57,127
88106,note_on,2,0,0,,7,,,55,127
88106,note_on,0,0,0,,4,,,64,127
88204,note_off,98,0,0,,4,,,64,127
88206,note_on,2,0,0,,6,,,66,127
88304,note_off,98,0,0,,6,,,66,127
88304,note_off,0,0,0,,7,,,55,127
88306,note_on,2,0,0,,10,,,57,127
88306,note_on,0,0,0,,7,,,67,127
88404,note_off,98,0,0,,7,,,67,127
88406,note_on,2,0,0,,10,,,69,127
88504,note_off,98,0,0,,10,,,69,127
88506,note_on,2,0,0,,12,,,71,127
88604,note_off,98,0,0,,12,,,71,127
88606,note_on,2,0,0,,0,,,72,127
88704,note_off,98,0,0,,0,,,72,127
88704,note_off,0,0,0,,10,,,57,127
88706,note_on,2,0,0,,7,,,55,127
88706,note_on,0,0,0,,3,,,75,127
88804,note_off,98,0,0,,3,,,75,127
88806,note_on,2,0,0,,4,,,76,127
88904,note_off,98,0,0,,4,,,76,127
88904,note_off,0,0,0,,7,,,55,127
88906,note_on,2,0,0,,10,,,57,127
88906,note_on,0,0,0,,12,,,71,127
89004,note_off,98,0,0,,12,,,71,127
89006,note_on,2,0,0,,10,,,69,127
89104,note_off,98,0,0,,10,,,69,127
89104,note_off,0,0,0,,10,,,57,127
89106,note_on,2,0,0,,12,,,59,127
89106,note_on,0,0,0,,7,,,67,127
89204,note_off,98,0,0,,7,,,67,127
89206,note_on,2,0,0,,6,,,66,127
89304,note_off,98,0,0,,6,,,66,127
89306,note_on,2,0,0,,12,,,47,127
89306,note_on,0,0,0,,4,,,64,127
89404,note_off,98,0,0,,4,,,64,127
89406,note_on,2,0,0,,3,,,63,127
89502,note_off,96,0,0,,12,,,59,127
89504,note_off,2,0,0,,3,,,63,127
89504,note_off,0,0,0,,12,,,47,127
89506,note_on,2,0,0,,4,,,52,127
89606,note_on,100,0,0,,12,,,71,127
89704,note_off,98,0,0,,12,,,71,127
89704,note_off,0,0,0,,4,,,52,127
89706,note_on,2,0,0,,6,,,54,127
89706,note_on,0,0,0,,7,,,79,127
89904,note_off,198,0,0,,6,,,54,127
89906,note_on,2,0,0,,7,,,55,127
90104,note_off,198,0,0,,7,,,55,127
90104,note_off,0,0,0,,7,,,79,127
90106,note_on,2,0,0,,10,,,57,127
90106,note_on,0,0,0,,10,,,69,127
90204,note_off,98,0,0,,10,,,69,127
90206,note_on,2,0,0,,6,,,78,127
90304,note_off,98,0,0,,6,,,78,127
90304,note_off,0,0,0,,10,,,57,127
90306,note_on,2,0,0,,12,,,59,127
90306,note_on,0,0,0,,7,,,67,127
90404,note_off,98,0,0,,7,,,67,127
90406,note_on,2,0,0,,4,,,76,127
90504,note_off,98,0,0,,4,,,76,127
90506,note_on,2,0,0,,12,,,47,127
90506,note_on,0,0,0,,6,,,66,127
90604,note_off,98,0,0,,6,,,66,127
90606,note_on,2,0,0,,3,,,75,127
90702,note_off,96,0,0,,12,,,59,127
90704,note_off,2,0,0,,3,,,75,127
90704,note_off,0,0,0,,12,,,47,127
90706,note_on,2,0,0,,4,,,52,127
90706,note_on,0,0,0,,4,,,76,127
90804,note_off,98,0,0,,4,,,76,127
90806,note_on,2,0,0,,12,,,71,127
90904,note_off,98,0,0,,12,,,71,127
90904,note_off,0,0,0,,4,,,52,127
90906,note_on,2,0,0,,6,,,54,127
90906,note_on,0,0,0,,12,,,83,127
91104,note_off,198,0,0,,6,,,54,127
91106,note_on,2,0,0,,7,,,55,127
91304,note_off,198,0,0,,7,,,55,127
91304,note_off,0,0,0,,12,,,83,127
91306,note_on,2,0,0,,10,,,57,127
91306,note_on,0,0,0,,0,,,72,127
91404,note_off,98,0,0,,0,,,72,127
91406,note_on,2,0,0,,10,,,81,127
91504,note_off,98,0,0,,10,,,81,127
91504,note_off,0,0,0,,10,,,57,127
91506,note_on,2,0,0,,12,,,59,127
91506,note_on,0,0,0,,12,,,71,127
91604,note_off,98,0,0,,12,,,71,127
91606,note_on,2,0,0,,7,,,79,127
91704,note_off,98,0,0,,7,,,79,127
91706,note_on,2,0,0,,12,,,47,127
91706,note_on,0,0,0,,10,,,69,127
91804,note_off,98,0,0,,10,,,69,127
91806,note_on,2,0,0,,6,,,78,127
91902,note_off,96,0,0,,12,,,59,127
91904,note_off,2,0,0,,6,,,78,127
91904,note_off,0,0,0,,12,,,47,127
91906,note_on,2,0,0,,4,,,52,127
91906,note_on,0,0,0,,7,,,79,127
92004,note_off,98,0,0,,7,,,79,127
92006,note_on,2,0,0,,12,,,71,127
92104,note_off,98,0,0,,12,,,71,127
92104,note_off,0,0,0,,4,,,52,127
92106,note_on,2,0,0,,6,,,54,127
92106,note_on,0,0,0,,7,,,79,127
92304,note_off,198,0,0,,6,,,54,127
92306,note_on,2,0,0,,7,,,55,127
92504,note_off,198,0,0,,7,,,55,127
92504,note_off,0,0,0,,7,,,79,127
92506,note_on,2,0,0,,10,,,57,127
92506,note_on,0,0,0,,6,,,78,127
92604,note_off,98,0,0,,6,,,78,127
92606,note_on,2,0,0,,10,,,81,127
92704,note_off,98,0,0,,10,,,81,127
92704,note_off,0,0,0,,10,,,57,127
92706,note_on,2,0,0,,12,,,59,127
92706,note_on,0,0,0,,4,,,76,127
92904,note_off,198,0,0,,4,,,76,127
92906,note_on,2,0,0,,12,,,47,127
92906,note_on,0,0,0,,3,,,75,127
93102,note_off,196,0,0,,12,,,59,127
93104,note_off,2,0,0,,3,,,75,127
93104,note_off,0,0,0,,12,,,47,127
93110,note_on,6,0,0,,4,,,52,127
93110,note_on,0,0,0,,4,,,76,127
93210,note_off,100,0,0,,4,,,76,127
93216,note_on,6,0,0,,7,,,79,127
93314,note_off,98,0,0,,4,,,52,127
93316,note_off,2,0,0,,7,,,79,127
93322,note_on,6,0,0,,6,,,54,127
93322,note_on,0,0,0,,12,,,71,127
93422,note_off,100,0,0,,12,,,71,127
93428,note_on,6,0,0,,4,,,76,127
93526,note_off,98,0,0,,6,,,54,127
93528,note_off,2,0,0,,4,,,76,127
93534,note_on,6,0,0,,7,,,55,127
93534,note_on,0,0,0,,7,,,67,127
93634,note_off,100,0,0,,7,,,67,127
93640,note_on,6,0,0,,12,,,71,127
93738,note_off,98,0,0,,7,,,55,127
93740,note_off,2,0,0,,12,,,71,127
93745,note_on,5,0,0,,10,,,57,127
93745,note_on,0,0,0,,10,,,45,127
93745,note_on,0,0,0,,0,,,60,127
93845,note_off,100,0,0,,0,,,60,127
93853,note_on,8,0,0,,6,,,66,127
93949,note_off,96,0,0,,10,,,45,127
93949,note_off,0,0,0,,10,,,57,127
93956,note_off,7,0,0,,6,,,66,127
93964,note_on,8,0,0,,12,,,59,127
93964,note_on,0,0,0,,12,,,47,127
93964,note_on,0,0,0,,7,,,55,127
94067,note_off,103,0,0,,12,,,59,127
94075,note_on,8,0,0,,4,,,64,127
94175,note_off,100,0,0,,7,,,55,127
94178,note_off,3,0,0,,4,,,64,127
94186,note_on,8,0,0,,10,,,57,127
94186,note_on,0,0,0,,6,,,54,127
94289,note_off,103,0,0,,10,,,57,127
94308,note_on,19,0,0,,3,,,63,127
94389,note_off,81,0,0,,12,,,47,127
94397,note_off,8,0,0,,6,,,54,127
94425,note_off,28,0,0,,3,,,63,127
94431,note_on,6,0,0,,4,,,52,127
94431,note_on,0,0,0,,3,,,63,127
94431,note_on,0,0,0,,4,,,40,127
95203,note_off,772,0,0,,3,,,63,127
95203,note_on,0,0,0,,4,,,64,127
97206,note_off,2003,0,0,,4,,,64,127
97206,note_off,0,0,0,,4,,,40,127
97206,note_off,0,0,0,,4,,,52,127
101376,end_of_track,4170,1,0,,,,,,
