tick,type,time,meta,track,program,channel,pitch,tempo,note,velocity
0,copyright,0,1,0,,,,,,
0,program_change,0,0,0,6,0,,,,
0,pitchwheel,0,0,0,,0,0,,,
0,program_change,0,0,0,6,1,,,,
0,pitchwheel,0,0,0,,1,-590,,,
0,program_change,0,0,0,6,2,,,,
0,pitchwheel,0,0,0,,2,-272,,,
0,program_change,0,0,0,6,3,,,,
0,pitchwheel,0,0,0,,3,-353,,,
0,program_change,0,0,0,6,4,,,,
0,pitchwheel,0,0,0,,4,-560,,,
0,program_change,0,0,0,6,5,,,,
0,pitchwheel,0,0,0,,5,-80,,,
0,program_change,0,0,0,6,6,,,,
0,pitchwheel,0,0,0,,6,-625,,,
0,program_change,0,0,0,6,7,,,,
0,pitchwheel,0,0,0,,7,-130,,,
0,program_change,0,0,0,6,8,,,,
0,pitchwheel,0,0,0,,8,-512,,,
0,program_change,0,0,0,6,10,,,,
0,pitchwheel,0,0,0,,10,-464,,,
0,program_change,0,0,0,6,11,,,,
0,pitchwheel,0,0,0,,11,-208,,,
0,program_change,0,0,0,6,12,,,,
0,pitchwheel,0,0,0,,12,-553,,,
0,set_tempo,0,1,0,,,,500000,,
115,note_on,115,0,0,,2,,,74,127
344,note_off,229,0,0,,2,,,74,127
345,note_on,1,0,0,,11,,,70,127
574,note_off,229,0,0,,11,,,70,127
575,note_on,1,0,0,,7,,,67,127
804,note_off,229,0,0,,7,,,67,127
805,note_on,1,0,0,,2,,,62,127
1034,note_off,229,0,0,,2,,,62,127
1035,note_on,1,0,0,,10,,,69,127
1264,note_off,229,0,0,,10,,,69,127
1265,note_on,1,0,0,,0,,,72,127
1494,note_off,229,0,0,,0,,,72,127
1495,note_on,1,0,0,,7,,,55,127
1495,note_on,0,0,0,,0,,,72,127
1724,note_off,229,0,0,,7,,,55,127
1725,note_on,1,0,0,,2,,,50,127
1954,note_off,229,0,0,,2,,,50,127
1954,note_off,0,0,0,,0,,,72,127
1955,note_on,1,0,0,,11,,,46,127
1955,note_on,0,0,0,,11,,,70,127
2184,note_off,229,0,0,,11,,,46,127
2185,note_on,1,0,0,,7,,,43,127
2414,note_off,229,0,0,,7,,,43,127
2414,note_off,0,0,0,,11,,,70,127
2415,note_on,1,0,0,,0,,,48,127
2415,note_on,0,0,0,,10,,,69,127
2644,note_off,229,0,0,,0,,,48,127
2645,note_on,1,0,0,,10,,,57,127
2835,note_off,190,0,0,,10,,,69,127
2875,note_off,40,0,0,,10,,,57,127
2876,note_on,1,0,0,,11,,,46,127
2876,note_on,0,0,0,,3,,,75,127
3105,note_off,229,0,0,,3,,,75,127
3105,note_off,0,0,0,,11,,,46,127
3106,note_on,1,0,0,,7,,,55,127
3106,note_on,0,0,0,,2,,,74,127
3335,note_off,229,0,0,,7,,,55,127
3336,note_on,1,0,0,,10,,,45,127
3565,note_off,229,0,0,,10,,,45,127
3565,note_off,0,0,0,,2,,,74,127
3566,note_on,1,0,0,,6,,,54,127
3566,note_on,0,0,0,,0,,,72,127
3795,note_off,229,0,0,,0,,,72,127
3795,note_off,0,0,0,,6,,,54,127
3796,note_on,1,0,0,,7,,,43,127
3796,note_on,0,0,0,,11,,,70,127
4025,note_off,229,0,0,,7,,,43,127
4026,note_on,1,0,0,,7,,,55,127
4255,note_off,229,0,0,,7,,,55,127
4255,note_off,0,0,0,,11,,,70,127
4256,note_on,1,0,0,,2,,,38,127
4256,note_on,0,0,0,,10,,,69,127
4370,note_off,114,0,0,,10,,,69,127
4371,note_on,1,0,0,,2,,,74,127
4485,note_off,114,0,0,,2,,,74,127
4486,note_on,1,0,0,,0,,,72,127
4600,note_off,114,0,0,,0,,,72,127
4601,note_on,1,0,0,,11,,,70,127
4715,note_off,114,0,0,,11,,,70,127
4716,note_on,1,0,0,,10,,,69,127
4830,note_off,114,0,0,,10,,,69,127
4831,note_on,1,0,0,,7,,,67,127
4945,note_off,114,0,0,,7,,,67,127
4946,note_on,1,0,0,,6,,,66,127
5060,note_off,114,0,0,,6,,,66,127
5061,note_on,1,0,0,,4,,,64,127
5175,note_off,114,0,0,,4,,,64,127
5175,note_off,0,0,0,,2,,,38,127
5176,note_on,1,0,0,,2,,,62,127
5291,note_on,115,0,0,,0,,,60,127
5405,note_off,114,0,0,,0,,,60,127
5406,note_on,1,0,0,,11,,,58,127
5520,note_off,114,0,0,,11,,,58,127
5521,note_on,1,0,0,,10,,,57,127
5635,note_off,114,0,0,,10,,,57,127
5636,note_on,1,0,0,,11,,,58,127
5636,note_on,0,0,0,,2,,,74,127
5865,note_off,229,0,0,,2,,,74,127
5865,note_off,0,0,0,,2,,,62,127
5866,note_on,1,0,0,,11,,,70,127
6095,note_off,229,0,0,,11,,,70,127
6096,note_on,1,0,0,,7,,,67,127
6325,note_off,229,0,0,,7,,,67,127
6326,note_on,1,0,0,,2,,,62,127
6555,note_off,229,0,0,,2,,,62,127
6555,note_off,0,0,0,,11,,,58,127
6556,note_on,1,0,0,,10,,,57,127
6556,note_on,0,0,0,,10,,,69,127
6785,note_off,229,0,0,,10,,,69,127
6786,note_on,1,0,0,,0,,,72,127
7015,note_off,229,0,0,,0,,,72,127
7015,note_off,0,0,0,,10,,,57,127
7016,note_on,1,0,0,,7,,,55,127
7016,note_on,0,0,0,,0,,,72,127
7245,note_off,229,0,0,,7,,,55,127
7246,note_on,1,0,0,,2,,,50,127
7475,note_off,229,0,0,,2,,,50,127
7475,note_off,0,0,0,,0,,,72,127
7476,note_on,1,0,0,,11,,,46,127
7476,note_on,0,0,0,,11,,,70,127
7705,note_off,229,0,0,,11,,,46,127
7706,note_on,1,0,0,,7,,,43,127
7935,note_off,229,0,0,,7,,,43,127
7935,note_off,0,0,0,,11,,,70,127
7936,note_on,1,0,0,,0,,,48,127
7936,note_on,0,0,0,,10,,,69,127
8165,note_off,229,0,0,,0,,,48,127
8166,note_on,1,0,0,,10,,,57,127
8356,note_off,190,0,0,,10,,,69,127
8396,note_off,40,0,0,,10,,,57,127
8397,note_on,1,0,0,,11,,,46,127
8397,note_on,0,0,0,,3,,,75,127
8626,note_off,229,0,0,,3,,,75,127
8626,note_off,0,0,0,,11,,,46,127
8627,note_on,1,0,0,,7,,,55,127
8627,note_on,0,0,0,,2,,,74,127
8856,note_off,229,0,0,,7,,,55,127
8857,note_on,1,0,0,,0,,,48,127
9086,note_off,229,0,0,,0,,,48,127
9086,note_off,0,0,0,,2,,,74,127
9087,note_on,1,0,0,,0,,,60,127
9087,note_on,0,0,0,,7,,,67,127
9316,note_off,229,0,0,,7,,,67,127
9316,note_off,0,0,0,,0,,,60,127
9317,note_on,1,0,0,,2,,,50,127
9317,note_on,0,0,0,,11,,,70,127
9431,note_off,114,0,0,,11,,,70,127
9432,note_on,1,0,0,,10,,,69,127
9546,note_off,114,0,0,,10,,,69,127
9546,note_off,0,0,0,,2,,,50,127
9547,note_on,1,0,0,,2,,,62,127
9547,note_on,0,0,0,,7,,,67,127
9661,note_off,114,0,0,,7,,,67,127
9662,note_on,1,0,0,,6,,,66,127
9776,note_off,114,0,0,,6,,,66,127
9776,note_off,0,0,0,,2,,,62,127
9777,note_on,1,0,0,,7,,,55,127
9777,note_on,0,0,0,,6,,,66,127
10238,note_on,461,0,0,,7,,,43,127
10698,note_off,460,0,0,,6,,,66,127
10699,note_on,1,0,0,,7,,,67,127
11045,note_off,346,0,0,,7,,,67,127
11159,note_off,114,0,0,,7,,,43,127
11159,note_off,0,0,0,,7,,,55,127
11160,note_on,1,0,0,,11,,,58,127
11160,note_on,0,0,0,,7,,,55,127
11160,note_on,0,0,0,,3,,,63,127
11274,note_off,114,0,0,,3,,,63,127
11275,note_on,1,0,0,,2,,,62,127
11389,note_off,114,0,0,,2,,,62,127
11390,note_on,1,0,0,,7,,,67,127
11504,note_off,114,0,0,,7,,,67,127
11505,note_on,1,0,0,,6,,,66,127
11619,note_off,114,0,0,,6,,,66,127
11619,note_off,0,0,0,,7,,,55,127
11619,note_off,0,0,0,,11,,,58,127
11620,note_on,1,0,0,,7,,,55,127
11620,note_on,0,0,0,,11,,,58,127
11620,note_on,0,0,0,,11,,,70,127
11734,note_off,114,0,0,,11,,,70,127
11735,note_on,1,0,0,,10,,,69,127
11849,note_off,114,0,0,,10,,,69,127
11850,note_on,1,0,0,,3,,,75,127
11964,note_off,114,0,0,,3,,,75,127
11965,note_on,1,0,0,,2,,,74,127
12079,note_off,114,0,0,,2,,,74,127
12079,note_off,0,0,0,,11,,,58,127
12079,note_off,0,0,0,,7,,,55,127
12080,note_on,1,0,0,,11,,,58,127
12080,note_on,0,0,0,,7,,,55,127
12080,note_on,0,0,0,,7,,,79,127
12194,note_off,114,0,0,,7,,,79,127
12195,note_on,1,0,0,,6,,,78,127
12309,note_off,114,0,0,,6,,,78,127
12310,note_on,1,0,0,,11,,,82,127
12424,note_off,114,0,0,,11,,,82,127
12425,note_on,1,0,0,,7,,,79,127
12539,note_off,114,0,0,,7,,,79,127
12539,note_off,0,0,0,,7,,,55,127
12539,note_off,0,0,0,,11,,,58,127
12540,note_on,1,0,0,,6,,,54,127
12540,note_on,0,0,0,,2,,,62,127
12540,note_on,0,0,0,,10,,,57,127
12540,note_on,0,0,0,,10,,,81,127
12769,note_off,229,0,0,,10,,,81,127
12770,note_on,1,0,0,,3,,,75,127
12999,note_off,229,0,0,,3,,,75,127
12999,note_off,0,0,0,,10,,,57,127
12999,note_off,0,0,0,,2,,,62,127
12999,note_off,0,0,0,,6,,,54,127
13000,note_on,1,0,0,,6,,,54,127
13000,note_on,0,0,0,,10,,,57,127
13000,note_on,0,0,0,,2,,,62,127
13000,note_on,0,0,0,,2,,,74,127
13229,note_off,229,0,0,,2,,,74,127
13230,note_on,1,0,0,,0,,,72,127
13459,note_off,229,0,0,,0,,,72,127
13459,note_off,0,0,0,,2,,,62,127
13459,note_off,0,0,0,,10,,,57,127
13459,note_off,0,0,0,,6,,,54,127
13460,note_on,1,0,0,,2,,,62,127
13460,note_on,0,0,0,,10,,,57,127
13460,note_on,0,0,0,,6,,,54,127
13460,note_on,0,0,0,,0,,,72,127
13518,note_on,58,0,0,,11,,,70,127
13537,note_off,19,0,0,,0,,,72,127
13575,note_on,38,0,0,,0,,,72,127
13594,note_off,19,0,0,,11,,,70,127
13632,note_on,38,0,0,,11,,,70,127
13651,note_off,19,0,0,,0,,,72,127
13689,note_on,38,0,0,,10,,,69,127
13708,note_off,19,0,0,,11,,,70,127
13918,note_off,210,0,0,,10,,,69,127
13918,note_off,0,0,0,,6,,,54,127
13918,note_off,0,0,0,,10,,,57,127
13918,note_off,0,0,0,,2,,,62,127
13919,note_on,1,0,0,,7,,,55,127
13919,note_on,0,0,0,,11,,,58,127
13919,note_on,0,0,0,,3,,,63,127
14033,note_off,114,0,0,,3,,,63,127
14034,note_on,1,0,0,,2,,,62,127
14148,note_off,114,0,0,,2,,,62,127
14149,note_on,1,0,0,,7,,,67,127
14263,note_off,114,0,0,,7,,,67,127
14264,note_on,1,0,0,,6,,,66,127
14378,note_off,114,0,0,,6,,,66,127
14378,note_off,0,0,0,,11,,,58,127
14378,note_off,0,0,0,,7,,,55,127
14379,note_on,1,0,0,,11,,,58,127
14379,note_on,0,0,0,,7,,,55,127
14379,note_on,0,0,0,,11,,,70,127
14493,note_off,114,0,0,,11,,,70,127
14494,note_on,1,0,0,,10,,,69,127
14608,note_off,114,0,0,,10,,,69,127
14609,note_on,1,0,0,,3,,,75,127
14723,note_off,114,0,0,,3,,,75,127
14724,note_on,1,0,0,,2,,,74,127
14838,note_off,114,0,0,,2,,,74,127
14838,note_off,0,0,0,,7,,,55,127
14838,note_off,0,0,0,,11,,,58,127
14839,note_on,1,0,0,,7,,,55,127
14839,note_on,0,0,0,,11,,,58,127
14839,note_on,0,0,0,,7,,,79,127
14953,note_off,114,0,0,,7,,,79,127
14954,note_on,1,0,0,,6,,,78,127
15068,note_off,114,0,0,,6,,,78,127
15069,note_on,1,0,0,,11,,,82,127
15183,note_off,114,0,0,,11,,,82,127
15184,note_on,1,0,0,,7,,,79,127
15298,note_off,114,0,0,,7,,,79,127
15298,note_off,0,0,0,,11,,,58,127
15298,note_off,0,0,0,,7,,,55,127
15299,note_on,1,0,0,,6,,,54,127
15299,note_on,0,0,0,,2,,,62,127
15299,note_on,0,0,0,,10,,,57,127
15299,note_on,0,0,0,,10,,,81,127
15528,note_off,229,0,0,,10,,,81,127
15529,note_on,1,0,0,,3,,,75,127
15758,note_off,229,0,0,,3,,,75,127
15758,note_off,0,0,0,,10,,,57,127
15758,note_off,0,0,0,,2,,,62,127
15758,note_off,0,0,0,,6,,,54,127
15759,note_on,1,0,0,,2,,,62,127
15759,note_on,0,0,0,,10,,,57,127
15759,note_on,0,0,0,,6,,,54,127
15759,note_on,0,0,0,,2,,,74,127
15988,note_off,229,0,0,,2,,,74,127
15989,note_on,1,0,0,,0,,,72,127
16218,note_off,229,0,0,,0,,,72,127
16218,note_off,0,0,0,,6,,,54,127
16218,note_off,0,0,0,,10,,,57,127
16218,note_off,0,0,0,,2,,,62,127
16219,note_on,1,0,0,,6,,,54,127
16219,note_on,0,0,0,,10,,,57,127
16219,note_on,0,0,0,,2,,,62,127
16219,note_on,0,0,0,,0,,,72,127
16277,note_on,58,0,0,,11,,,70,127
16296,note_off,19,0,0,,0,,,72,127
16334,note_on,38,0,0,,0,,,72,127
16353,note_off,19,0,0,,11,,,70,127
16391,note_on,38,0,0,,11,,,70,127
16410,note_off,19,0,0,,0,,,72,127
16448,note_on,38,0,0,,10,,,69,127
16467,note_off,19,0,0,,11,,,70,127
16677,note_off,210,0,0,,10,,,69,127
16677,note_off,0,0,0,,2,,,62,127
16677,note_off,0,0,0,,10,,,57,127
16677,note_off,0,0,0,,6,,,54,127
16678,note_on,1,0,0,,7,,,55,127
16678,note_on,0,0,0,,11,,,70,127
16792,note_off,114,0,0,,7,,,55,127
16793,note_on,1,0,0,,6,,,54,127
16907,note_off,114,0,0,,6,,,54,127
16908,note_on,1,0,0,,11,,,58,127
17022,note_off,114,0,0,,11,,,58,127
17023,note_on,1,0,0,,10,,,57,127
17137,note_off,114,0,0,,10,,,57,127
17138,note_on,1,0,0,,2,,,62,127
17252,note_off,114,0,0,,2,,,62,127
17253,note_on,1,0,0,,1,,,61,127
17367,note_off,114,0,0,,1,,,61,127
17367,note_off,0,0,0,,11,,,70,127
17368,note_on,1,0,0,,5,,,65,127
17482,note_off,114,0,0,,5,,,65,127
17483,note_on,1,0,0,,4,,,64,127
17597,note_off,114,0,0,,4,,,64,127
17598,note_on,1,0,0,,10,,,69,127
17598,note_on,0,0,0,,1,,,73,127
17827,note_off,229,0,0,,10,,,69,127
17828,note_on,1,0,0,,7,,,67,127
18057,note_off,229,0,0,,7,,,67,127
18057,note_off,0,0,0,,1,,,73,127
18058,note_on,1,0,0,,5,,,65,127
18058,note_on,0,0,0,,2,,,74,127
18287,note_off,229,0,0,,2,,,74,127
18288,note_on,1,0,0,,4,,,76,127
18517,note_off,229,0,0,,4,,,76,127
18518,note_on,1,0,0,,5,,,77,127
18632,note_off,114,0,0,,5,,,65,127
18633,note_on,1,0,0,,4,,,64,127
18747,note_off,114,0,0,,4,,,64,127
18747,note_off,0,0,0,,5,,,77,127
18748,note_on,1,0,0,,7,,,79,127
18748,note_on,0,0,0,,2,,,62,127
18862,note_off,114,0,0,,2,,,62,127
18863,note_on,1,0,0,,4,,,64,127
18977,note_off,114,0,0,,4,,,64,127
18977,note_off,0,0,0,,7,,,79,127
18978,note_on,1,0,0,,2,,,62,127
18978,note_on,0,0,0,,10,,,81,127
19207,note_off,229,0,0,,10,,,81,127
19208,note_on,1,0,0,,10,,,69,127
19437,note_off,229,0,0,,10,,,69,127
19437,note_off,0,0,0,,2,,,62,127
19438,note_on,1,0,0,,7,,,55,127
19438,note_on,0,0,0,,11,,,70,127
19552,note_off,114,0,0,,7,,,55,127
19553,note_on,1,0,0,,6,,,54,127
19667,note_off,114,0,0,,6,,,54,127
19668,note_on,1,0,0,,11,,,58,127
19782,note_off,114,0,0,,11,,,58,127
19783,note_on,1,0,0,,10,,,57,127
19897,note_off,114,0,0,,10,,,57,127
19898,note_on,1,0,0,,2,,,62,127
20012,note_off,114,0,0,,2,,,62,127
20013,note_on,1,0,0,,1,,,61,127
20127,note_off,114,0,0,,1,,,61,127
20128,note_on,1,0,0,,5,,,65,127
20242,note_off,114,0,0,,5,,,65,127
20243,note_on,1,0,0,,4,,,64,127
20253,note_off,10,0,0,,11,,,70,127
20357,note_off,104,0,0,,4,,,64,127
20358,note_on,1,0,0,,10,,,69,127
20358,note_on,0,0,0,,1,,,73,127
20587,note_off,229,0,0,,10,,,69,127
20588,note_on,1,0,0,,7,,,67,127
20817,note_off,229,0,0,,7,,,67,127
20817,note_off,0,0,0,,1,,,73,127
20818,note_on,1,0,0,,5,,,65,127
20818,note_on,0,0,0,,2,,,74,127
21047,note_off,229,0,0,,2,,,74,127
21048,note_on,1,0,0,,4,,,76,127
21277,note_off,229,0,0,,4,,,76,127
21278,note_on,1,0,0,,5,,,77,127
21392,note_off,114,0,0,,5,,,65,127
21393,note_on,1,0,0,,4,,,64,127
21507,note_off,114,0,0,,4,,,64,127
21507,note_off,0,0,0,,5,,,77,127
21508,note_on,1,0,0,,7,,,79,127
21508,note_on,0,0,0,,2,,,62,127
21622,note_off,114,0,0,,2,,,62,127
21623,note_on,1,0,0,,4,,,64,127
21737,note_off,114,0,0,,4,,,64,127
21737,note_off,0,0,0,,7,,,79,127
21738,note_on,1,0,0,,2,,,62,127
21738,note_on,0,0,0,,10,,,81,127
21968,note_on,230,0,0,,10,,,69,127
22194,note_off,226,0,0,,10,,,81,127
22198,note_off,4,0,0,,10,,,69,127
22198,note_off,0,0,0,,2,,,62,127
22199,note_on,1,0,0,,7,,,55,127
22199,note_on,0,0,0,,11,,,70,127
22313,note_off,114,0,0,,11,,,70,127
22314,note_on,1,0,0,,10,,,69,127
22428,note_off,114,0,0,,10,,,69,127
22429,note_on,1,0,0,,2,,,74,127
22543,note_off,114,0,0,,2,,,74,127
22544,note_on,1,0,0,,1,,,73,127
22658,note_off,114,0,0,,1,,,73,127
22659,note_on,1,0,0,,4,,,76,127
22773,note_off,114,0,0,,4,,,76,127
22774,note_on,1,0,0,,2,,,74,127
22888,note_off,114,0,0,,2,,,74,127
22889,note_on,1,0,0,,5,,,77,127
23003,note_off,114,0,0,,5,,,77,127
23004,note_on,1,0,0,,4,,,76,127
23118,note_off,114,0,0,,4,,,76,127
23118,note_off,0,0,0,,7,,,55,127
23119,note_on,1,0,0,,11,,,58,127
23119,note_on,0,0,0,,10,,,81,127
23233,note_off,114,0,0,,10,,,81,127
23234,note_on,1,0,0,,7,,,79,127
23348,note_off,114,0,0,,7,,,79,127
23349,note_on,1,0,0,,5,,,77,127
23463,note_off,114,0,0,,5,,,77,127
23464,note_on,1,0,0,,4,,,76,127
23578,note_off,114,0,0,,4,,,76,127
23578,note_off,0,0,0,,11,,,58,127
23579,note_on,1,0,0,,10,,,57,127
23579,note_on,0,0,0,,2,,,74,127
24040,note_on,461,0,0,,10,,,45,127
24500,note_off,460,0,0,,2,,,74,127
24501,note_on,1,0,0,,1,,,73,127
24847,note_off,346,0,0,,1,,,73,127
24961,note_off,114,0,0,,10,,,45,127
24961,note_off,0,0,0,,10,,,57,127
24962,note_on,1,0,0,,10,,,45,127
24962,note_on,0,0,0,,4,,,52,127
24962,note_on,0,0,0,,10,,,57,127
24962,note_on,0,0,0,,10,,,81,127
25191,note_off,229,0,0,,10,,,81,127
25192,note_on,1,0,0,,4,,,76,127
25421,note_off,229,0,0,,4,,,76,127
25422,note_on,1,0,0,,10,,,69,127
25651,note_off,229,0,0,,10,,,69,127
25652,note_on,1,0,0,,7,,,79,127
25881,note_off,229,0,0,,7,,,79,127
25881,note_off,0,0,0,,10,,,57,127
25881,note_off,0,0,0,,4,,,52,127
25881,note_off,0,0,0,,10,,,45,127
25882,note_on,1,0,0,,7,,,79,127
25996,note_off,114,0,0,,7,,,79,127
25997,note_on,1,0,0,,5,,,77,127
26111,note_off,114,0,0,,5,,,77,127
26112,note_on,1,0,0,,4,,,76,127
26226,note_off,114,0,0,,4,,,76,127
26227,note_on,1,0,0,,2,,,74,127
26341,note_off,114,0,0,,2,,,74,127
26342,note_on,1,0,0,,10,,,57,127
26342,note_on,0,0,0,,2,,,74,127
26571,note_off,229,0,0,,10,,,57,127
26572,note_on,1,0,0,,4,,,52,127
26801,note_off,229,0,0,,4,,,52,127
26801,note_off,0,0,0,,2,,,74,127
26802,note_on,1,0,0,,10,,,45,127
26802,note_on,0,0,0,,4,,,76,127
27031,note_off,229,0,0,,10,,,45,127
27032,note_on,1,0,0,,7,,,55,127
27261,note_off,229,0,0,,7,,,55,127
27262,note_on,1,0,0,,7,,,55,127
27376,note_off,114,0,0,,7,,,55,127
27377,note_on,1,0,0,,5,,,53,127
27491,note_off,114,0,0,,5,,,53,127
27491,note_off,0,0,0,,4,,,76,127
27492,note_on,1,0,0,,4,,,52,127
27606,note_off,114,0,0,,4,,,52,127
27607,note_on,1,0,0,,2,,,50,127
27721,note_off,114,0,0,,2,,,50,127
27722,note_on,1,0,0,,10,,,57,127
27722,note_on,0,0,0,,5,,,77,127
27951,note_off,229,0,0,,5,,,77,127
27952,note_on,1,0,0,,10,,,45,127
27952,note_on,0,0,0,,4,,,76,127
28178,note_off,226,0,0,,10,,,57,127
28182,note_off,4,0,0,,10,,,45,127
28183,note_on,1,0,0,,7,,,55,127
28297,note_off,114,0,0,,7,,,55,127
28298,note_on,1,0,0,,5,,,53,127
28412,note_off,114,0,0,,5,,,53,127
28412,note_off,0,0,0,,4,,,76,127
28413,note_on,1,0,0,,4,,,52,127
28413,note_on,0,0,0,,10,,,69,127
28413,note_on,0,0,0,,5,,,77,127
28413,note_on,0,0,0,,2,,,74,127
28527,note_off,114,0,0,,4,,,52,127
28528,note_on,1,0,0,,2,,,50,127
28642,note_off,114,0,0,,2,,,50,127
28643,note_on,1,0,0,,10,,,57,127
28757,note_off,114,0,0,,2,,,74,127
28757,note_off,0,0,0,,5,,,77,127
28757,note_off,0,0,0,,10,,,69,127
28873,note_on,116,0,0,,10,,,45,127
28873,note_on,0,0,0,,4,,,76,127
28873,note_on,0,0,0,,1,,,73,127
28873,note_on,0,0,0,,10,,,69,127
29102,note_off,229,0,0,,10,,,69,127
29102,note_off,0,0,0,,1,,,73,127
29102,note_off,0,0,0,,4,,,76,127
29102,note_off,0,0,0,,10,,,45,127
29102,note_off,0,0,0,,10,,,57,127
29103,note_on,1,0,0,,2,,,50,127
29333,note_on,230,0,0,,5,,,77,127
29447,note_off,114,0,0,,5,,,77,127
29448,note_on,1,0,0,,4,,,76,127
29562,note_off,114,0,0,,4,,,76,127
29563,note_on,1,0,0,,2,,,74,127
29677,note_off,114,0,0,,2,,,74,127
29678,note_on,1,0,0,,4,,,76,127
29792,note_off,114,0,0,,4,,,76,127
29793,note_on,1,0,0,,5,,,77,127
29907,note_off,114,0,0,,5,,,77,127
29908,note_on,1,0,0,,7,,,79,127
30022,note_off,114,0,0,,7,,,79,127
30022,note_off,0,0,0,,2,,,50,127
30023,note_on,1,0,0,,5,,,53,127
30023,note_on,0,0,0,,11,,,82,127
30137,note_off,114,0,0,,11,,,82,127
30138,note_on,1,0,0,,10,,,81,127
30252,note_off,114,0,0,,10,,,81,127
30253,note_on,1,0,0,,7,,,79,127
30367,note_off,114,0,0,,7,,,79,127
30368,note_on,1,0,0,,5,,,77,127
30482,note_off,114,0,0,,5,,,77,127
30482,note_off,0,0,0,,5,,,53,127
30483,note_on,1,0,0,,7,,,55,127
30483,note_on,0,0,0,,4,,,76,127
30712,note_off,229,0,0,,4,,,76,127
30713,note_on,1,0,0,,2,,,74,127
30942,note_off,229,0,0,,2,,,74,127
30942,note_off,0,0,0,,7,,,55,127
30943,note_on,1,0,0,,10,,,57,127
30943,note_on,0,0,0,,2,,,74,127
31404,note_on,461,0,0,,10,,,45,127
31519,note_off,115,0,0,,2,,,74,127
31519,note_on,0,0,0,,1,,,73,127
31633,note_off,114,0,0,,1,,,73,127
31634,note_on,1,0,0,,12,,,71,127
31748,note_off,114,0,0,,12,,,71,127
31749,note_on,1,0,0,,1,,,73,127
31863,note_off,114,0,0,,1,,,73,127
31863,note_off,0,0,0,,10,,,45,127
31863,note_off,0,0,0,,10,,,57,127
31864,note_on,1,0,0,,8,,,56,127
31864,note_on,0,0,0,,5,,,65,127
32094,note_on,230,0,0,,2,,,74,127
32323,note_off,229,0,0,,5,,,65,127
32323,note_off,0,0,0,,8,,,56,127
32324,note_on,1,0,0,,8,,,56,127
32324,note_on,0,0,0,,5,,,65,127
32553,note_off,229,0,0,,2,,,74,127
32554,note_on,1,0,0,,2,,,74,127
32783,note_off,229,0,0,,5,,,65,127
32783,note_off,0,0,0,,8,,,56,127
32784,note_on,1,0,0,,8,,,56,127
32784,note_on,0,0,0,,5,,,65,127
33013,note_off,229,0,0,,2,,,74,127
33014,note_on,1,0,0,,2,,,74,127
33243,note_off,229,0,0,,5,,,65,127
33243,note_off,0,0,0,,8,,,56,127
33244,note_on,1,0,0,,5,,,65,127
33244,note_on,0,0,0,,2,,,62,127
33244,note_on,0,0,0,,0,,,60,127
33244,note_on,0,0,0,,7,,,55,127
33473,note_off,229,0,0,,2,,,74,127
33474,note_on,1,0,0,,8,,,80,127
33703,note_off,229,0,0,,7,,,55,127
33703,note_off,0,0,0,,0,,,60,127
33703,note_off,0,0,0,,2,,,62,127
33703,note_off,0,0,0,,5,,,65,127
33704,note_on,1,0,0,,2,,,62,127
33704,note_on,0,0,0,,7,,,55,127
33704,note_on,0,0,0,,5,,,65,127
33704,note_on,0,0,0,,0,,,60,127
33933,note_off,229,0,0,,8,,,80,127
33934,note_on,1,0,0,,7,,,79,127
34048,note_off,114,0,0,,7,,,79,127
34049,note_on,1,0,0,,5,,,77,127
34163,note_off,114,0,0,,5,,,77,127
34163,note_off,0,0,0,,0,,,60,127
34163,note_off,0,0,0,,5,,,65,127
34163,note_off,0,0,0,,7,,,55,127
34163,note_off,0,0,0,,2,,,62,127
34164,note_on,1,0,0,,5,,,65,127
34164,note_on,0,0,0,,2,,,62,127
34164,note_on,0,0,0,,7,,,55,127
34164,note_on,0,0,0,,3,,,75,127
34278,note_off,114,0,0,,3,,,75,127
34279,note_on,1,0,0,,2,,,74,127
34393,note_off,114,0,0,,2,,,74,127
34394,note_on,1,0,0,,0,,,72,127
34508,note_off,114,0,0,,0,,,72,127
34509,note_on,1,0,0,,12,,,71,127
34617,note_off,108,0,0,,12,,,71,127
34623,note_off,6,0,0,,7,,,55,127
34623,note_off,0,0,0,,2,,,62,127
34623,note_off,0,0,0,,5,,,65,127
34624,note_on,1,0,0,,7,,,55,127
34624,note_on,0,0,0,,3,,,63,127
34624,note_on,0,0,0,,0,,,60,127
34854,note_on,230,0,0,,0,,,72,127
35083,note_off,229,0,0,,0,,,60,127
35083,note_off,0,0,0,,3,,,63,127
35083,note_off,0,0,0,,7,,,55,127
35084,note_on,1,0,0,,0,,,60,127
35084,note_on,0,0,0,,7,,,55,127
35084,note_on,0,0,0,,3,,,63,127
35313,note_off,229,0,0,,0,,,72,127
35314,note_on,1,0,0,,0,,,72,127
35543,note_off,229,0,0,,3,,,63,127
35543,note_off,0,0,0,,7,,,55,127
35543,note_off,0,0,0,,0,,,60,127
35544,note_on,1,0,0,,3,,,63,127
35544,note_on,0,0,0,,0,,,60,127
35544,note_on,0,0,0,,7,,,55,127
35773,note_off,229,0,0,,0,,,72,127
35774,note_on,1,0,0,,0,,,72,127
36003,note_off,229,0,0,,0,,,72,127
36003,note_off,0,0,0,,7,,,55,127
36003,note_off,0,0,0,,0,,,60,127
36003,note_off,0,0,0,,3,,,63,127
36004,note_on,1,0,0,,6,,,54,127
36004,note_on,0,0,0,,2,,,62,127
36004,note_on,0,0,0,,10,,,57,127
36004,note_on,0,0,0,,10,,,81,127
36233,note_off,229,0,0,,10,,,81,127
36234,note_on,1,0,0,,6,,,78,127
36463,note_off,229,0,0,,10,,,57,127
36463,note_off,0,0,0,,2,,,62,127
36463,note_off,0,0,0,,6,,,54,127
36464,note_on,1,0,0,,10,,,57,127
36464,note_on,0,0,0,,6,,,54,127
36464,note_on,0,0,0,,2,,,62,127
36666,note_off,202,0,0,,6,,,78,127
36695,note_on,29,0,0,,3,,,75,127
36924,note_off,229,0,0,,2,,,62,127
36924,note_off,0,0,0,,6,,,54,127
36924,note_off,0,0,0,,10,,,57,127
36925,note_on,1,0,0,,10,,,57,127
36925,note_on,0,0,0,,6,,,54,127
36925,note_on,0,0,0,,2,,,62,127
37127,note_off,202,0,0,,3,,,75,127
37156,note_on,29,0,0,,2,,,74,127
37270,note_off,114,0,0,,2,,,74,127
37271,note_on,1,0,0,,0,,,72,127
37385,note_off,114,0,0,,2,,,62,127
37385,note_off,0,0,0,,6,,,54,127
37385,note_off,0,0,0,,10,,,57,127
37386,note_on,1,0,0,,11,,,58,127
37386,note_on,0,0,0,,2,,,62,127
37386,note_on,0,0,0,,7,,,55,127
37559,note_off,173,0,0,,0,,,72,127
37617,note_on,58,0,0,,11,,,70,127
37731,note_off,114,0,0,,11,,,70,127
37732,note_on,1,0,0,,10,,,69,127
37846,note_off,114,0,0,,10,,,69,127
37846,note_off,0,0,0,,7,,,55,127
37846,note_off,0,0,0,,2,,,62,127
37846,note_off,0,0,0,,11,,,58,127
37847,note_on,1,0,0,,7,,,55,127
37847,note_on,0,0,0,,11,,,58,127
37847,note_on,0,0,0,,2,,,62,127
37847,note_on,0,0,0,,11,,,70,127
38076,note_off,229,0,0,,11,,,70,127
38077,note_on,1,0,0,,1,,,73,127
38306,note_off,229,0,0,,2,,,62,127
38306,note_off,0,0,0,,11,,,58,127
38306,note_off,0,0,0,,7,,,55,127
38307,note_on,1,0,0,,7,,,55,127
38307,note_on,0,0,0,,2,,,62,127
38307,note_on,0,0,0,,11,,,58,127
38509,note_off,202,0,0,,1,,,73,127
38538,note_on,29,0,0,,2,,,74,127
38767,note_off,229,0,0,,11,,,58,127
38767,note_off,0,0,0,,2,,,62,127
38767,note_off,0,0,0,,7,,,55,127
38768,note_on,1,0,0,,8,,,56,127
38768,note_on,0,0,0,,2,,,62,127
38768,note_on,0,0,0,,5,,,65,127
38970,note_off,202,0,0,,2,,,74,127
38999,note_on,29,0,0,,4,,,76,127
39228,note_off,229,0,0,,5,,,65,127
39228,note_off,0,0,0,,2,,,62,127
39228,note_off,0,0,0,,8,,,56,127
39229,note_on,1,0,0,,8,,,56,127
39229,note_on,0,0,0,,5,,,65,127
39229,note_on,0,0,0,,2,,,62,127
39458,note_off,229,0,0,,4,,,76,127
39459,note_on,1,0,0,,5,,,77,127
39688,note_off,229,0,0,,5,,,77,127
39688,note_off,0,0,0,,2,,,62,127
39688,note_off,0,0,0,,5,,,65,127
39688,note_off,0,0,0,,8,,,56,127
39689,note_on,1,0,0,,8,,,56,127
39689,note_on,0,0,0,,5,,,65,127
39689,note_on,0,0,0,,2,,,62,127
39689,note_on,0,0,0,,7,,,79,127
39803,note_off,114,0,0,,7,,,79,127
39804,note_on,1,0,0,,5,,,77,127
39918,note_off,114,0,0,,5,,,77,127
39919,note_on,1,0,0,,4,,,76,127
40033,note_off,114,0,0,,4,,,76,127
40034,note_on,1,0,0,,2,,,74,127
40130,note_off,96,0,0,,2,,,74,127
40148,note_off,18,0,0,,2,,,62,127
40148,note_off,0,0,0,,5,,,65,127
40148,note_off,0,0,0,,8,,,56,127
40149,note_on,1,0,0,,10,,,45,127
40149,note_on,0,0,0,,10,,,57,127
40149,note_on,0,0,0,,10,,,81,127
40378,note_off,229,0,0,,10,,,81,127
40379,note_on,1,0,0,,4,,,76,127
40608,note_off,229,0,0,,4,,,76,127
40609,note_on,1,0,0,,10,,,69,127
40838,note_off,229,0,0,,10,,,69,127
40839,note_on,1,0,0,,7,,,79,127
41068,note_off,229,0,0,,7,,,79,127
41068,note_off,0,0,0,,10,,,57,127
41068,note_off,0,0,0,,10,,,45,127
41069,note_on,1,0,0,,7,,,79,127
41183,note_off,114,0,0,,7,,,79,127
41184,note_on,1,0,0,,5,,,77,127
41298,note_off,114,0,0,,5,,,77,127
41299,note_on,1,0,0,,4,,,76,127
41413,note_off,114,0,0,,4,,,76,127
41414,note_on,1,0,0,,2,,,74,127
41528,note_off,114,0,0,,2,,,74,127
41529,note_on,1,0,0,,10,,,69,127
41529,note_on,0,0,0,,2,,,74,127
41758,note_off,229,0,0,,2,,,74,127
41758,note_off,0,0,0,,10,,,69,127
41759,note_on,1,0,0,,4,,,64,127
41759,note_on,0,0,0,,4,,,76,127
41988,note_off,229,0,0,,4,,,64,127
41989,note_on,1,0,0,,10,,,57,127
42218,note_off,229,0,0,,10,,,57,127
42218,note_off,0,0,0,,4,,,76,127
42219,note_on,1,0,0,,7,,,67,127
42219,note_on,0,0,0,,10,,,69,127
42448,note_off,229,0,0,,10,,,69,127
42448,note_off,0,0,0,,7,,,67,127
42449,note_on,1,0,0,,7,,,67,127
42449,note_on,0,0,0,,2,,,74,127
42563,note_off,114,0,0,,7,,,67,127
42564,note_on,1,0,0,,5,,,65,127
42678,note_off,114,0,0,,5,,,65,127
42678,note_off,0,0,0,,2,,,74,127
42679,note_on,1,0,0,,4,,,64,127
42679,note_on,0,0,0,,4,,,76,127
42793,note_off,114,0,0,,4,,,76,127
42793,note_off,0,0,0,,4,,,64,127
42794,note_on,1,0,0,,2,,,62,127
42794,note_on,0,0,0,,5,,,77,127
42908,note_off,114,0,0,,5,,,77,127
42908,note_off,0,0,0,,2,,,62,127
42909,note_on,1,0,0,,10,,,57,127
42909,note_on,0,0,0,,5,,,77,127
43138,note_off,229,0,0,,5,,,77,127
43138,note_off,0,0,0,,10,,,57,127
43139,note_on,1,0,0,,4,,,52,127
43139,note_on,0,0,0,,4,,,76,127
43368,note_off,229,0,0,,4,,,52,127
43369,note_on,1,0,0,,10,,,45,127
43598,note_off,229,0,0,,10,,,45,127
43598,note_off,0,0,0,,4,,,76,127
43599,note_on,1,0,0,,7,,,55,127
43599,note_on,0,0,0,,10,,,69,127
43828,note_off,229,0,0,,10,,,69,127
43828,note_off,0,0,0,,7,,,55,127
43829,note_on,1,0,0,,7,,,55,127
43829,note_on,0,0,0,,2,,,74,127
43943,note_off,114,0,0,,7,,,55,127
43944,note_on,1,0,0,,5,,,53,127
44058,note_off,114,0,0,,5,,,53,127
44058,note_off,0,0,0,,2,,,74,127
44059,note_on,1,0,0,,4,,,52,127
44059,note_on,0,0,0,,4,,,76,127
44173,note_off,114,0,0,,4,,,76,127
44173,note_off,0,0,0,,4,,,52,127
44174,note_on,1,0,0,,2,,,50,127
44174,note_on,0,0,0,,5,,,77,127
44288,note_off,114,0,0,,5,,,77,127
44288,note_off,0,0,0,,2,,,50,127
44289,note_on,1,0,0,,10,,,57,127
44289,note_on,0,0,0,,5,,,77,127
44518,note_off,229,0,0,,5,,,77,127
44518,note_off,0,0,0,,10,,,57,127
44519,note_on,1,0,0,,10,,,45,127
44519,note_on,0,0,0,,4,,,76,127
44748,note_off,229,0,0,,10,,,45,127
44749,note_on,1,0,0,,7,,,55,127
44863,note_off,114,0,0,,7,,,55,127
44864,note_on,1,0,0,,5,,,53,127
44866,note_off,2,0,0,,4,,,76,127
44978,note_off,112,0,0,,5,,,53,127
44979,note_on,1,0,0,,4,,,52,127
44979,note_on,0,0,0,,5,,,77,127
44979,note_on,0,0,0,,2,,,74,127
44979,note_on,0,0,0,,10,,,69,127
45093,note_off,114,0,0,,4,,,52,127
45094,note_on,1,0,0,,2,,,50,127
45208,note_off,114,0,0,,2,,,50,127
45209,note_on,1,0,0,,10,,,57,127
45323,note_off,114,0,0,,10,,,69,127
45323,note_off,0,0,0,,2,,,74,127
45323,note_off,0,0,0,,5,,,77,127
45439,note_on,116,0,0,,10,,,45,127
45439,note_on,0,0,0,,10,,,69,127
45439,note_on,0,0,0,,1,,,73,127
45439,note_on,0,0,0,,4,,,76,127
45668,note_off,229,0,0,,4,,,76,127
45668,note_off,0,0,0,,1,,,73,127
45668,note_off,0,0,0,,10,,,69,127
45668,note_off,0,0,0,,10,,,45,127
45668,note_off,0,0,0,,10,,,57,127
45669,note_on,1,0,0,,2,,,50,127
45899,note_on,230,0,0,,5,,,77,127
46013,note_off,114,0,0,,5,,,77,127
46014,note_on,1,0,0,,4,,,76,127
46128,note_off,114,0,0,,4,,,76,127
46128,note_off,0,0,0,,2,,,50,127
46129,note_on,1,0,0,,4,,,52,127
46129,note_on,0,0,0,,2,,,74,127
46243,note_off,114,0,0,,2,,,74,127
46244,note_on,1,0,0,,4,,,76,127
46358,note_off,114,0,0,,4,,,76,127
46359,note_on,1,0,0,,5,,,77,127
46473,note_off,114,0,0,,5,,,77,127
46474,note_on,1,0,0,,7,,,79,127
46588,note_off,114,0,0,,7,,,79,127
46588,note_off,0,0,0,,4,,,52,127
46589,note_on,1,0,0,,5,,,53,127
46589,note_on,0,0,0,,11,,,82,127
46703,note_off,114,0,0,,11,,,82,127
46704,note_on,1,0,0,,10,,,81,127
46818,note_off,114,0,0,,10,,,81,127
46819,note_on,1,0,0,,7,,,79,127
46933,note_off,114,0,0,,7,,,79,127
46934,note_on,1,0,0,,5,,,77,127
47048,note_off,114,0,0,,5,,,77,127
47048,note_off,0,0,0,,5,,,53,127
47049,note_on,1,0,0,,7,,,55,127
47049,note_on,0,0,0,,4,,,76,127
47278,note_off,229,0,0,,4,,,76,127
47279,note_on,1,0,0,,2,,,74,127
47508,note_off,229,0,0,,2,,,74,127
47508,note_off,0,0,0,,7,,,55,127
47509,note_on,1,0,0,,10,,,57,127
47509,note_on,0,0,0,,2,,,74,127
47970,note_on,461,0,0,,10,,,45,127
48085,note_off,115,0,0,,2,,,74,127
48085,note_on,0,0,0,,1,,,73,127
48199,note_off,114,0,0,,1,,,73,127
48200,note_on,1,0,0,,12,,,71,127
48314,note_off,114,0,0,,12,,,71,127
48315,note_on,1,0,0,,1,,,73,127
48429,note_off,114,0,0,,1,,,73,127
48429,note_off,0,0,0,,10,,,45,127
48429,note_off,0,0,0,,10,,,57,127
48430,note_on,1,0,0,,11,,,58,127
48430,note_on,0,0,0,,2,,,74,127
48660,note_on,230,0,0,,2,,,86,127
48886,note_off,226,0,0,,2,,,74,127
48890,note_off,4,0,0,,2,,,86,127
48891,note_on,1,0,0,,11,,,82,127
49120,note_off,229,0,0,,11,,,82,127
49121,note_on,1,0,0,,7,,,79,127
49350,note_off,229,0,0,,7,,,79,127
49350,note_off,0,0,0,,11,,,58,127
49351,note_on,1,0,0,,7,,,55,127
49351,note_on,0,0,0,,5,,,77,127
49465,note_off,114,0,0,,5,,,77,127
49466,note_on,1,0,0,,4,,,76,127
49580,note_off,114,0,0,,4,,,76,127
49581,note_on,1,0,0,,2,,,74,127
49695,note_off,114,0,0,,2,,,74,127
49696,note_on,1,0,0,,1,,,73,127
49810,note_off,114,0,0,,1,,,73,127
49810,note_off,0,0,0,,7,,,55,127
49811,note_on,1,0,0,,5,,,53,127
49811,note_on,0,0,0,,2,,,74,127
50040,note_off,229,0,0,,2,,,74,127
50040,note_off,0,0,0,,5,,,53,127
50041,note_on,1,0,0,,7,,,55,127
50041,note_on,0,0,0,,7,,,67,127
50270,note_off,229,0,0,,7,,,67,127
50270,note_off,0,0,0,,7,,,55,127
50271,note_on,1,0,0,,10,,,57,127
50271,note_on,0,0,0,,7,,,67,127
50385,note_off,114,0,0,,7,,,67,127
50386,note_on,1,0,0,,5,,,65,127
50500,note_off,114,0,0,,5,,,65,127
50501,note_on,1,0,0,,4,,,64,127
50615,note_off,114,0,0,,4,,,64,127
50616,note_on,1,0,0,,2,,,62,127
50730,note_off,114,0,0,,2,,,62,127
50731,note_on,1,0,0,,10,,,45,127
50731,note_on,0,0,0,,5,,,65,127
50845,note_off,114,0,0,,5,,,65,127
50846,note_on,1,0,0,,4,,,64,127
50960,note_off,114,0,0,,4,,,64,127
50961,note_on,1,0,0,,2,,,62,127
51075,note_off,114,0,0,,2,,,62,127
51076,note_on,1,0,0,,1,,,61,127
51190,note_off,114,0,0,,1,,,61,127
51190,note_off,0,0,0,,10,,,45,127
51190,note_off,0,0,0,,10,,,57,127
51191,note_on,1,0,0,,2,,,38,127
51191,note_on,0,0,0,,2,,,50,127
51191,note_on,0,0,0,,2,,,62,127
52235,note_off,1044,0,0,,2,,,62,127
52572,note_off,337,0,0,,2,,,50,127
52572,note_off,0,0,0,,2,,,38,127
52573,note_on,1,0,0,,2,,,74,127
52802,note_off,229,0,0,,2,,,74,127
52803,note_on,1,0,0,,10,,,69,127
53032,note_off,229,0,0,,10,,,69,127
53033,note_on,1,0,0,,2,,,62,127
53262,note_off,229,0,0,,2,,,62,127
53263,note_on,1,0,0,,0,,,72,127
53492,note_off,229,0,0,,0,,,72,127
53493,note_on,1,0,0,,0,,,72,127
53607,note_off,114,0,0,,0,,,72,127
53608,note_on,1,0,0,,11,,,70,127
53722,note_off,114,0,0,,11,,,70,127
53723,note_on,1,0,0,,10,,,69,127
53837,note_off,114,0,0,,10,,,69,127
53838,note_on,1,0,0,,7,,,67,127
53952,note_off,114,0,0,,7,,,67,127
53953,note_on,1,0,0,,2,,,62,127
53953,note_on,0,0,0,,7,,,67,127
54182,note_off,229,0,0,,7,,,67,127
54182,note_off,0,0,0,,2,,,62,127
54183,note_on,1,0,0,,10,,,57,127
54183,note_on,0,0,0,,10,,,69,127
54412,note_off,229,0,0,,10,,,57,127
54413,note_on,1,0,0,,2,,,50,127
54642,note_off,229,0,0,,2,,,50,127
54642,note_off,0,0,0,,10,,,69,127
54643,note_on,1,0,0,,0,,,60,127
54643,note_on,0,0,0,,2,,,62,127
54872,note_off,229,0,0,,2,,,62,127
54872,note_off,0,0,0,,0,,,60,127
54873,note_on,1,0,0,,0,,,60,127
54873,note_on,0,0,0,,7,,,67,127
54987,note_off,114,0,0,,0,,,60,127
54988,note_on,1,0,0,,11,,,58,127
55102,note_off,114,0,0,,11,,,58,127
55102,note_off,0,0,0,,7,,,67,127
55103,note_on,1,0,0,,10,,,57,127
55103,note_on,0,0,0,,10,,,69,127
55217,note_off,114,0,0,,10,,,69,127
55217,note_off,0,0,0,,10,,,57,127
55218,note_on,1,0,0,,7,,,55,127
55218,note_on,0,0,0,,11,,,70,127
55332,note_off,114,0,0,,11,,,70,127
55332,note_off,0,0,0,,7,,,55,127
55333,note_on,1,0,0,,2,,,62,127
55333,note_on,0,0,0,,11,,,70,127
55562,note_off,229,0,0,,11,,,70,127
55562,note_off,0,0,0,,2,,,62,127
55563,note_on,1,0,0,,2,,,50,127
55563,note_on,0,0,0,,10,,,69,127
55792,note_off,229,0,0,,2,,,50,127
55793,note_on,1,0,0,,0,,,60,127
55907,note_off,114,0,0,,0,,,60,127
55908,note_on,1,0,0,,11,,,58,127
55994,note_off,86,0,0,,10,,,69,127
56022,note_off,28,0,0,,11,,,58,127
56023,note_on,1,0,0,,10,,,57,127
56023,note_on,0,0,0,,11,,,70,127
56023,note_on,0,0,0,,7,,,67,127
56023,note_on,0,0,0,,2,,,62,127
56137,note_off,114,0,0,,10,,,57,127
56138,note_on,1,0,0,,7,,,55,127
56252,note_off,114,0,0,,7,,,55,127
56252,note_off,0,0,0,,2,,,62,127
56253,note_on,1,0,0,,2,,,62,127
56367,note_off,114,0,0,,7,,,67,127
56367,note_off,0,0,0,,11,,,70,127
56482,note_off,115,0,0,,2,,,62,127
56483,note_on,1,0,0,,2,,,50,127
56483,note_on,0,0,0,,6,,,66,127
56483,note_on,0,0,0,,10,,,69,127
56483,note_on,0,0,0,,2,,,62,127
56712,note_off,229,0,0,,2,,,62,127
56712,note_off,0,0,0,,10,,,69,127
56712,note_off,0,0,0,,6,,,66,127
56712,note_off,0,0,0,,2,,,50,127
56713,note_on,1,0,0,,7,,,43,127
56713,note_on,0,0,0,,7,,,55,127
56713,note_on,0,0,0,,10,,,69,127
56827,note_off,114,0,0,,10,,,69,127
56828,note_on,1,0,0,,7,,,67,127
56942,note_off,114,0,0,,7,,,67,127
56943,note_on,1,0,0,,12,,,71,127
57057,note_off,114,0,0,,12,,,71,127
57058,note_on,1,0,0,,10,,,69,127
57172,note_off,114,0,0,,10,,,69,127
57173,note_on,1,0,0,,0,,,72,127
57287,note_off,114,0,0,,0,,,72,127
57288,note_on,1,0,0,,12,,,71,127
57402,note_off,114,0,0,,12,,,71,127
57403,note_on,1,0,0,,2,,,74,127
57517,note_off,114,0,0,,2,,,74,127
57518,note_on,1,0,0,,0,,,72,127
57632,note_off,114,0,0,,0,,,72,127
57633,note_on,1,0,0,,3,,,75,127
57747,note_off,114,0,0,,3,,,75,127
57748,note_on,1,0,0,,2,,,74,127
57862,note_off,114,0,0,,2,,,74,127
57863,note_on,1,0,0,,5,,,77,127
57977,note_off,114,0,0,,5,,,77,127
57978,note_on,1,0,0,,3,,,75,127
58092,note_off,114,0,0,,3,,,75,127
58092,note_off,0,0,0,,7,,,55,127
58092,note_off,0,0,0,,7,,,43,127
58093,note_on,1,0,0,,7,,,79,127
58322,note_off,229,0,0,,7,,,79,127
58323,note_on,1,0,0,,2,,,74,127
58552,note_off,229,0,0,,2,,,74,127
58553,note_on,1,0,0,,7,,,67,127
58782,note_off,229,0,0,,7,,,67,127
58783,note_on,1,0,0,,5,,,77,127
59012,note_off,229,0,0,,5,,,77,127
59013,note_on,1,0,0,,5,,,77,127
59127,note_off,114,0,0,,5,,,77,127
59128,note_on,1,0,0,,3,,,75,127
59242,note_off,114,0,0,,3,,,75,127
59243,note_on,1,0,0,,2,,,74,127
59357,note_off,114,0,0,,2,,,74,127
59358,note_on,1,0,0,,0,,,72,127
59472,note_off,114,0,0,,0,,,72,127
59473,note_on,1,0,0,,7,,,67,127
59473,note_on,0,0,0,,0,,,72,127
59702,note_off,229,0,0,,0,,,72,127
59702,note_off,0,0,0,,7,,,67,127
59703,note_on,1,0,0,,2,,,62,127
59703,note_on,0,0,0,,2,,,74,127
59932,note_off,229,0,0,,2,,,62,127
59933,note_on,1,0,0,,7,,,55,127
60162,note_off,229,0,0,,7,,,55,127
60162,note_off,0,0,0,,2,,,74,127
60163,note_on,1,0,0,,5,,,65,127
60163,note_on,0,0,0,,7,,,67,127
60392,note_off,229,0,0,,7,,,67,127
60392,note_off,0,0,0,,5,,,65,127
60393,note_on,1,0,0,,5,,,65,127
60393,note_on,0,0,0,,0,,,72,127
60507,note_off,114,0,0,,5,,,65,127
60508,note_on,1,0,0,,3,,,63,127
60622,note_off,114,0,0,,3,,,63,127
60622,note_off,0,0,0,,0,,,72,127
60623,note_on,1,0,0,,2,,,62,127
60623,note_on,0,0,0,,2,,,74,127
60737,note_off,114,0,0,,2,,,74,127
60737,note_off,0,0,0,,2,,,62,127
60738,note_on,1,0,0,,0,,,60,127
60738,note_on,0,0,0,,3,,,75,127
60852,note_off,114,0,0,,3,,,75,127
60852,note_off,0,0,0,,0,,,60,127
60853,note_on,1,0,0,,7,,,67,127
60853,note_on,0,0,0,,3,,,75,127
61082,note_off,229,0,0,,3,,,75,127
61082,note_off,0,0,0,,7,,,67,127
61083,note_on,1,0,0,,7,,,55,127
61083,note_on,0,0,0,,2,,,74,127
61312,note_off,229,0,0,,7,,,55,127
61313,note_on,1,0,0,,5,,,65,127
61427,note_off,114,0,0,,5,,,65,127
61428,note_on,1,0,0,,3,,,63,127
61502,note_off,74,0,0,,2,,,74,127
61542,note_off,40,0,0,,3,,,63,127
61543,note_on,1,0,0,,2,,,62,127
61543,note_on,0,0,0,,3,,,75,127
61543,note_on,0,0,0,,0,,,72,127
61543,note_on,0,0,0,,7,,,67,127
61657,note_off,114,0,0,,2,,,62,127
61658,note_on,1,0,0,,0,,,60,127
61772,note_off,114,0,0,,0,,,60,127
61772,note_off,0,0,0,,7,,,67,127
61773,note_on,1,0,0,,7,,,67,127
61887,note_off,114,0,0,,0,,,72,127
61887,note_off,0,0,0,,3,,,75,127
62002,note_off,115,0,0,,7,,,67,127
62003,note_on,1,0,0,,7,,,55,127
62003,note_on,0,0,0,,2,,,74,127
62003,note_on,0,0,0,,12,,,71,127
62003,note_on,0,0,0,,7,,,67,127
62232,note_off,229,0,0,,7,,,67,127
62232,note_off,0,0,0,,12,,,71,127
62232,note_off,0,0,0,,2,,,74,127
62232,note_off,0,0,0,,7,,,55,127
62233,note_on,1,0,0,,0,,,60,127
62233,note_on,0,0,0,,7,,,79,127
62347,note_off,114,0,0,,7,,,79,127
62348,note_on,1,0,0,,3,,,75,127
62462,note_off,114,0,0,,3,,,75,127
62463,note_on,1,0,0,,5,,,77,127
62577,note_off,114,0,0,,5,,,77,127
62578,note_on,1,0,0,,2,,,74,127
62692,note_off,114,0,0,,2,,,74,127
62692,note_off,0,0,0,,0,,,60,127
62693,note_on,1,0,0,,0,,,48,127
62693,note_on,0,0,0,,3,,,75,127
62807,note_off,114,0,0,,3,,,75,127
62808,note_on,1,0,0,,0,,,72,127
62922,note_off,114,0,0,,0,,,72,127
62923,note_on,1,0,0,,2,,,74,127
63037,note_off,114,0,0,,2,,,74,127
63038,note_on,1,0,0,,12,,,71,127
63152,note_off,114,0,0,,12,,,71,127
63153,note_on,1,0,0,,0,,,36,127
63153,note_on,0,0,0,,0,,,72,127
63613,note_off,460,0,0,,0,,,72,127
63613,note_off,0,0,0,,0,,,36,127
63613,note_off,0,0,0,,0,,,48,127
63614,note_on,1,0,0,,0,,,48,127
63614,note_on,0,0,0,,0,,,60,127
63728,note_off,114,0,0,,0,,,60,127
63729,note_on,1,0,0,,12,,,59,127
63843,note_off,114,0,0,,12,,,59,127
63844,note_on,1,0,0,,3,,,63,127
63958,note_off,114,0,0,,3,,,63,127
63959,note_on,1,0,0,,2,,,62,127
64073,note_off,114,0,0,,2,,,62,127
64073,note_off,0,0,0,,0,,,48,127
64074,note_on,1,0,0,,0,,,48,127
64074,note_on,0,0,0,,8,,,68,127
64188,note_off,114,0,0,,8,,,68,127
64189,note_on,1,0,0,,7,,,67,127
64303,note_off,114,0,0,,7,,,67,127
64304,note_on,1,0,0,,0,,,72,127
64418,note_off,114,0,0,,0,,,72,127
64419,note_on,1,0,0,,12,,,71,127
64533,note_off,114,0,0,,12,,,71,127
64533,note_off,0,0,0,,0,,,48,127
64534,note_on,1,0,0,,0,,,48,127
64534,note_on,0,0,0,,3,,,75,127
64648,note_off,114,0,0,,3,,,75,127
64649,note_on,1,0,0,,2,,,74,127
64763,note_off,114,0,0,,2,,,74,127
64764,note_on,1,0,0,,8,,,80,127
64878,note_off,114,0,0,,8,,,80,127
64879,note_on,1,0,0,,7,,,79,127
64993,note_off,114,0,0,,7,,,79,127
64993,note_off,0,0,0,,0,,,48,127
64994,note_on,1,0,0,,7,,,55,127
64994,note_on,0,0,0,,12,,,47,127
64994,note_on,0,0,0,,2,,,86,127
65223,note_off,229,0,0,,2,,,86,127
65224,note_on,1,0,0,,8,,,80,127
65453,note_off,229,0,0,,8,,,80,127
65453,note_off,0,0,0,,12,,,47,127
65453,note_off,0,0,0,,7,,,55,127
65454,note_on,1,0,0,,7,,,55,127
65454,note_on,0,0,0,,12,,,47,127
65454,note_on,0,0,0,,7,,,79,127
65683,note_off,229,0,0,,7,,,79,127
65684,note_on,1,0,0,,5,,,77,127
65913,note_off,229,0,0,,5,,,77,127
65913,note_off,0,0,0,,12,,,47,127
65913,note_off,0,0,0,,7,,,55,127
65914,note_on,1,0,0,,7,,,55,127
65914,note_on,0,0,0,,12,,,47,127
65914,note_on,0,0,0,,5,,,77,127
65972,note_on,58,0,0,,3,,,75,127
65991,note_off,19,0,0,,5,,,77,127
66029,note_on,38,0,0,,5,,,77,127
66048,note_off,19,0,0,,3,,,75,127
66086,note_on,38,0,0,,3,,,75,127
66105,note_off,19,0,0,,5,,,77,127
66143,note_on,38,0,0,,2,,,74,127
66162,note_off,19,0,0,,3,,,75,127
66372,note_off,210,0,0,,2,,,74,127
66372,note_off,0,0,0,,12,,,47,127
66372,note_off,0,0,0,,7,,,55,127
66373,note_on,1,0,0,,0,,,48,127
66373,note_on,0,0,0,,0,,,60,127
66487,note_off,114,0,0,,0,,,60,127
66488,note_on,1,0,0,,12,,,59,127
66602,note_off,114,0,0,,12,,,59,127
66603,note_on,1,0,0,,3,,,63,127
66717,note_off,114,0,0,,3,,,63,127
66718,note_on,1,0,0,,2,,,62,127
66832,note_off,114,0,0,,2,,,62,127
66832,note_off,0,0,0,,0,,,48,127
66833,note_on,1,0,0,,0,,,48,127
66833,note_on,0,0,0,,8,,,68,127
66947,note_off,114,0,0,,8,,,68,127
66948,note_on,1,0,0,,7,,,67,127
67062,note_off,114,0,0,,7,,,67,127
67063,note_on,1,0,0,,0,,,72,127
67177,note_off,114,0,0,,0,,,72,127
67178,note_on,1,0,0,,12,,,71,127
67292,note_off,114,0,0,,12,,,71,127
67292,note_off,0,0,0,,0,,,48,127
67293,note_on,1,0,0,,0,,,48,127
67293,note_on,0,0,0,,3,,,75,127
67407,note_off,114,0,0,,3,,,75,127
67408,note_on,1,0,0,,2,,,74,127
67522,note_off,114,0,0,,2,,,74,127
67523,note_on,1,0,0,,8,,,80,127
67637,note_off,114,0,0,,8,,,80,127
67638,note_on,1,0,0,,7,,,79,127
67752,note_off,114,0,0,,7,,,79,127
67752,note_off,0,0,0,,0,,,48,127
67753,note_on,1,0,0,,7,,,55,127
67753,note_on,0,0,0,,12,,,47,127
67753,note_on,0,0,0,,2,,,86,127
67982,note_off,229,0,0,,2,,,86,127
67983,note_on,1,0,0,,8,,,80,127
68212,note_off,229,0,0,,8,,,80,127
68212,note_off,0,0,0,,12,,,47,127
68212,note_off,0,0,0,,7,,,55,127
68213,note_on,1,0,0,,7,,,55,127
68213,note_on,0,0,0,,12,,,47,127
68213,note_on,0,0,0,,7,,,79,127
68442,note_off,229,0,0,,7,,,79,127
68443,note_on,1,0,0,,5,,,77,127
68672,note_off,229,0,0,,5,,,77,127
68672,note_off,0,0,0,,12,,,47,127
68672,note_off,0,0,0,,7,,,55,127
68673,note_on,1,0,0,,12,,,47,127
68673,note_on,0,0,0,,7,,,55,127
68673,note_on,0,0,0,,5,,,77,127
68731,note_on,58,0,0,,3,,,75,127
68750,note_off,19,0,0,,5,,,77,127
68788,note_on,38,0,0,,5,,,77,127
68807,note_off,19,0,0,,3,,,75,127
68845,note_on,38,0,0,,3,,,75,127
68864,note_off,19,0,0,,5,,,77,127
68902,note_on,38,0,0,,2,,,74,127
68921,note_off,19,0,0,,3,,,75,127
69131,note_off,210,0,0,,2,,,74,127
69131,note_off,0,0,0,,7,,,55,127
69131,note_off,0,0,0,,12,,,47,127
69132,note_on,1,0,0,,0,,,48,127
69132,note_on,0,0,0,,3,,,75,127
69246,note_off,114,0,0,,0,,,48,127
69247,note_on,1,0,0,,12,,,47,127
69361,note_off,114,0,0,,12,,,47,127
69362,note_on,1,0,0,,3,,,51,127
69476,note_off,114,0,0,,3,,,51,127
69477,note_on,1,0,0,,2,,,50,127
69591,note_off,114,0,0,,2,,,50,127
69592,note_on,1,0,0,,7,,,55,127
69706,note_off,114,0,0,,7,,,55,127
69707,note_on,1,0,0,,6,,,54,127
69821,note_off,114,0,0,,6,,,54,127
69821,note_off,0,0,0,,3,,,75,127
69822,note_on,1,0,0,,11,,,58,127
69936,note_off,114,0,0,,11,,,58,127
69937,note_on,1,0,0,,10,,,57,127
70051,note_off,114,0,0,,10,,,57,127
70052,note_on,1,0,0,,2,,,62,127
70052,note_on,0,0,0,,6,,,66,127
70281,note_off,229,0,0,,2,,,62,127
70282,note_on,1,0,0,,0,,,60,127
70511,note_off,229,0,0,,0,,,60,127
70511,note_off,0,0,0,,6,,,66,127
70512,note_on,1,0,0,,11,,,58,127
70512,note_on,0,0,0,,7,,,67,127
70741,note_off,229,0,0,,7,,,67,127
70742,note_on,1,0,0,,10,,,69,127
70971,note_off,229,0,0,,10,,,69,127
70972,note_on,1,0,0,,11,,,70,127
71086,note_off,114,0,0,,11,,,58,127
71087,note_on,1,0,0,,10,,,57,127
71201,note_off,114,0,0,,10,,,57,127
71201,note_off,0,0,0,,11,,,70,127
71202,note_on,1,0,0,,0,,,72,127
71202,note_on,0,0,0,,7,,,55,127
71316,note_off,114,0,0,,7,,,55,127
71317,note_on,1,0,0,,10,,,57,127
71431,note_off,114,0,0,,10,,,57,127
71431,note_off,0,0,0,,0,,,72,127
71432,note_on,1,0,0,,7,,,55,127
71432,note_on,0,0,0,,2,,,74,127
71662,note_on,230,0,0,,2,,,62,127
71888,note_off,226,0,0,,2,,,74,127
71892,note_off,4,0,0,,2,,,62,127
71892,note_off,0,0,0,,7,,,55,127
71893,note_on,1,0,0,,0,,,48,127
71893,note_on,0,0,0,,3,,,75,127
72007,note_off,114,0,0,,0,,,48,127
72008,note_on,1,0,0,,12,,,47,127
72122,note_off,114,0,0,,12,,,47,127
72123,note_on,1,0,0,,3,,,51,127
72237,note_off,114,0,0,,3,,,51,127
72238,note_on,1,0,0,,2,,,50,127
72352,note_off,114,0,0,,2,,,50,127
72353,note_on,1,0,0,,7,,,55,127
72467,note_off,114,0,0,,7,,,55,127
72468,note_on,1,0,0,,6,,,54,127
72582,note_off,114,0,0,,6,,,54,127
72582,note_off,0,0,0,,3,,,75,127
72583,note_on,1,0,0,,11,,,58,127
72697,note_off,114,0,0,,11,,,58,127
72698,note_on,1,0,0,,10,,,57,127
72812,note_off,114,0,0,,10,,,57,127
72813,note_on,1,0,0,,2,,,62,127
72813,note_on,0,0,0,,6,,,66,127
73042,note_off,229,0,0,,2,,,62,127
73043,note_on,1,0,0,,0,,,60,127
73272,note_off,229,0,0,,0,,,60,127
73272,note_off,0,0,0,,6,,,66,127
73273,note_on,1,0,0,,7,,,67,127
73273,note_on,0,0,0,,11,,,58,127
73502,note_off,229,0,0,,7,,,67,127
73503,note_on,1,0,0,,10,,,69,127
73732,note_off,229,0,0,,10,,,69,127
73733,note_on,1,0,0,,11,,,70,127
73847,note_off,114,0,0,,11,,,58,127
73848,note_on,1,0,0,,10,,,57,127
73962,note_off,114,0,0,,10,,,57,127
73962,note_off,0,0,0,,11,,,70,127
73963,note_on,1,0,0,,0,,,72,127
73963,note_on,0,0,0,,7,,,55,127
74077,note_off,114,0,0,,7,,,55,127
74078,note_on,1,0,0,,10,,,57,127
74192,note_off,114,0,0,,10,,,57,127
74192,note_off,0,0,0,,0,,,72,127
74193,note_on,1,0,0,,7,,,55,127
74193,note_on,0,0,0,,2,,,74,127
74422,note_off,229,0,0,,2,,,74,127
74423,note_on,1,0,0,,2,,,62,127
74652,note_off,229,0,0,,2,,,62,127
74652,note_off,0,0,0,,7,,,55,127
74653,note_on,1,0,0,,0,,,60,127
74653,note_on,0,0,0,,3,,,63,127
74767,note_off,114,0,0,,3,,,63,127
74768,note_on,1,0,0,,2,,,62,127
74882,note_off,114,0,0,,2,,,62,127
74883,note_on,1,0,0,,7,,,67,127
74997,note_off,114,0,0,,7,,,67,127
74998,note_on,1,0,0,,6,,,66,127
75112,note_off,114,0,0,,6,,,66,127
75112,note_off,0,0,0,,0,,,60,127
75113,note_on,1,0,0,,0,,,48,127
75113,note_on,0,0,0,,10,,,69,127
75227,note_off,114,0,0,,10,,,69,127
75228,note_on,1,0,0,,7,,,67,127
75342,note_off,114,0,0,,7,,,67,127
75343,note_on,1,0,0,,11,,,70,127
75457,note_off,114,0,0,,11,,,70,127
75458,note_on,1,0,0,,10,,,69,127
75572,note_off,114,0,0,,10,,,69,127
75572,note_off,0,0,0,,0,,,48,127
75573,note_on,1,0,0,,3,,,51,127
75573,note_on,0,0,0,,2,,,74,127
75687,note_off,114,0,0,,2,,,74,127
75688,note_on,1,0,0,,0,,,72,127
75802,note_off,114,0,0,,0,,,72,127
75803,note_on,1,0,0,,11,,,70,127
75917,note_off,114,0,0,,11,,,70,127
75918,note_on,1,0,0,,10,,,69,127
76032,note_off,114,0,0,,10,,,69,127
76032,note_off,0,0,0,,3,,,51,127
76033,note_on,1,0,0,,2,,,50,127
76033,note_on,0,0,0,,7,,,67,127
76494,note_on,461,0,0,,2,,,38,127
76954,note_off,460,0,0,,7,,,67,127
76955,note_on,1,0,0,,6,,,66,127
77301,note_off,346,0,0,,6,,,66,127
77415,note_off,114,0,0,,2,,,38,127
77415,note_off,0,0,0,,2,,,50,127
77416,note_on,1,0,0,,2,,,50,127
77416,note_on,0,0,0,,2,,,62,127
77416,note_on,0,0,0,,2,,,86,127
77645,note_off,229,0,0,,2,,,86,127
77646,note_on,1,0,0,,10,,,81,127
77875,note_off,229,0,0,,10,,,81,127
77876,note_on,1,0,0,,2,,,74,127
78105,note_off,229,0,0,,2,,,74,127
78106,note_on,1,0,0,,0,,,84,127
78335,note_off,229,0,0,,0,,,84,127
78336,note_on,1,0,0,,0,,,84,127
78450,note_off,114,0,0,,0,,,84,127
78451,note_on,1,0,0,,11,,,82,127
78565,note_off,114,0,0,,11,,,82,127
78566,note_on,1,0,0,,10,,,81,127
78680,note_off,114,0,0,,10,,,81,127
78681,note_on,1,0,0,,7,,,79,127
78795,note_off,114,0,0,,7,,,79,127
78795,note_off,0,0,0,,2,,,62,127
78795,note_off,0,0,0,,2,,,50,127
78796,note_on,1,0,0,,2,,,74,127
78796,note_on,0,0,0,,7,,,79,127
79025,note_off,229,0,0,,7,,,79,127
79025,note_off,0,0,0,,2,,,74,127
79026,note_on,1,0,0,,10,,,69,127
79026,note_on,0,0,0,,10,,,81,127
79255,note_off,229,0,0,,10,,,69,127
79256,note_on,1,0,0,,2,,,62,127
79485,note_off,229,0,0,,2,,,62,127
79485,note_off,0,0,0,,10,,,81,127
79486,note_on,1,0,0,,0,,,72,127
79486,note_on,0,0,0,,2,,,74,127
79715,note_off,229,0,0,,2,,,74,127
79715,note_off,0,0,0,,0,,,72,127
79716,note_on,1,0,0,,0,,,72,127
79716,note_on,0,0,0,,7,,,79,127
79830,note_off,114,0,0,,0,,,72,127
79831,note_on,1,0,0,,11,,,70,127
79945,note_off,114,0,0,,11,,,70,127
79945,note_off,0,0,0,,7,,,79,127
79946,note_on,1,0,0,,10,,,69,127
79946,note_on,0,0,0,,10,,,81,127
80060,note_off,114,0,0,,10,,,81,127
80060,note_off,0,0,0,,10,,,69,127
80061,note_on,1,0,0,,7,,,67,127
80061,note_on,0,0,0,,11,,,82,127
80175,note_off,114,0,0,,11,,,82,127
80175,note_off,0,0,0,,7,,,67,127
80176,note_on,1,0,0,,2,,,74,127
80176,note_on,0,0,0,,11,,,82,127
80405,note_off,229,0,0,,11,,,82,127
80405,note_off,0,0,0,,2,,,74,127
80406,note_on,1,0,0,,2,,,62,127
80406,note_on,0,0,0,,10,,,81,127
80635,note_off,229,0,0,,2,,,62,127
80636,note_on,1,0,0,,0,,,72,127
80750,note_off,114,0,0,,0,,,72,127
80751,note_on,1,0,0,,11,,,70,127
80837,note_off,86,0,0,,10,,,81,127
80865,note_off,28,0,0,,11,,,70,127
80866,note_on,1,0,0,,10,,,69,127
80866,note_on,0,0,0,,7,,,79,127
80866,note_on,0,0,0,,2,,,74,127
80866,note_on,0,0,0,,11,,,82,127
80980,note_off,114,0,0,,10,,,69,127
80981,note_on,1,0,0,,7,,,67,127
81095,note_off,114,0,0,,7,,,67,127
81095,note_off,0,0,0,,2,,,74,127
81096,note_on,1,0,0,,2,,,74,127
81210,note_off,114,0,0,,11,,,82,127
81210,note_off,0,0,0,,7,,,79,127
81325,note_off,115,0,0,,2,,,74,127
81326,note_on,1,0,0,,2,,,62,127
81326,note_on,0,0,0,,2,,,74,127
81326,note_on,0,0,0,,6,,,78,127
81326,note_on,0,0,0,,10,,,81,127
81555,note_off,229,0,0,,10,,,81,127
81555,note_off,0,0,0,,6,,,78,127
81555,note_off,0,0,0,,2,,,74,127
81555,note_off,0,0,0,,2,,,62,127
81556,note_on,1,0,0,,7,,,67,127
81786,note_on,230,0,0,,11,,,82,127
81900,note_off,114,0,0,,11,,,82,127
81901,note_on,1,0,0,,10,,,81,127
82015,note_off,114,0,0,,10,,,81,127
82016,note_on,1,0,0,,7,,,55,127
82016,note_on,0,0,0,,7,,,79,127
82130,note_off,114,0,0,,7,,,79,127
82131,note_on,1,0,0,,10,,,81,127
82245,note_off,114,0,0,,10,,,81,127
82245,note_off,0,0,0,,7,,,67,127
82246,note_on,1,0,0,,11,,,82,127
82360,note_off,114,0,0,,11,,,82,127
82361,note_on,1,0,0,,0,,,84,127
82475,note_off,114,0,0,,0,,,84,127
82475,note_off,0,0,0,,7,,,55,127
82476,note_on,1,0,0,,11,,,58,127
82476,note_on,0,0,0,,3,,,87,127
82590,note_off,114,0,0,,3,,,87,127
82591,note_on,1,0,0,,2,,,86,127
82705,note_off,114,0,0,,2,,,86,127
82706,note_on,1,0,0,,0,,,84,127
82820,note_off,114,0,0,,0,,,84,127
82821,note_on,1,0,0,,11,,,82,127
82935,note_off,114,0,0,,11,,,82,127
82935,note_off,0,0,0,,11,,,58,127
82936,note_on,1,0,0,,0,,,60,127
82936,note_on,0,0,0,,10,,,81,127
83165,note_off,229,0,0,,10,,,81,127
83166,note_on,1,0,0,,7,,,79,127
83395,note_off,229,0,0,,7,,,79,127
83395,note_off,0,0,0,,0,,,60,127
83396,note_on,1,0,0,,2,,,62,127
83396,note_on,0,0,0,,7,,,79,127
83857,note_on,461,0,0,,2,,,50,127
83972,note_off,115,0,0,,7,,,79,127
83972,note_on,0,0,0,,6,,,78,127
84086,note_off,114,0,0,,6,,,78,127
84087,note_on,1,0,0,,4,,,76,127
84201,note_off,114,0,0,,4,,,76,127
84202,note_on,1,0,0,,6,,,78,127
84316,note_off,114,0,0,,6,,,78,127
84316,note_off,0,0,0,,2,,,50,127
84316,note_off,0,0,0,,2,,,62,127
84317,note_on,1,0,0,,11,,,70,127
84317,note_on,0,0,0,,1,,,61,127
84317,note_on,0,0,0,,6,,,78,127
84546,note_off,229,0,0,,6,,,78,127
84547,note_on,1,0,0,,7,,,79,127
84776,note_off,229,0,0,,1,,,61,127
84776,note_off,0,0,0,,11,,,70,127
84777,note_on,1,0,0,,1,,,61,127
84777,note_on,0,0,0,,11,,,70,127
85006,note_off,229,0,0,,7,,,79,127
85007,note_on,1,0,0,,7,,,79,127
85236,note_off,229,0,0,,11,,,70,127
85236,note_off,0,0,0,,1,,,61,127
85237,note_on,1,0,0,,11,,,70,127
85237,note_on,0,0,0,,1,,,61,127
85466,note_off,229,0,0,,7,,,79,127
85467,note_on,1,0,0,,7,,,79,127
85696,note_off,229,0,0,,1,,,61,127
85696,note_off,0,0,0,,11,,,70,127
85697,note_on,1,0,0,,0,,,60,127
85697,note_on,0,0,0,,11,,,70,127
85926,note_off,229,0,0,,7,,,79,127
85927,note_on,1,0,0,,1,,,73,127
86156,note_off,229,0,0,,11,,,70,127
86156,note_off,0,0,0,,0,,,60,127
86157,note_on,1,0,0,,8,,,68,127
86157,note_on,0,0,0,,0,,,60,127
86386,note_off,229,0,0,,1,,,73,127
86387,note_on,1,0,0,,0,,,72,127
86616,note_off,229,0,0,,0,,,60,127
86616,note_off,0,0,0,,8,,,68,127
86617,note_on,1,0,0,,0,,,60,127
86617,note_on,0,0,0,,7,,,67,127
86846,note_off,229,0,0,,0,,,72,127
86847,note_on,1,0,0,,12,,,71,127
87076,note_off,229,0,0,,12,,,71,127
87076,note_off,0,0,0,,7,,,67,127
87076,note_off,0,0,0,,0,,,60,127
87077,note_on,1,0,0,,0,,,60,127
87077,note_on,0,0,0,,5,,,65,127
87307,note_on,230,0,0,,0,,,72,127
87536,note_off,229,0,0,,5,,,65,127
87536,note_off,0,0,0,,0,,,60,127
87537,note_on,1,0,0,,0,,,60,127
87537,note_on,0,0,0,,5,,,65,127
87766,note_off,229,0,0,,0,,,72,127
87767,note_on,1,0,0,,5,,,77,127
87996,note_off,229,0,0,,5,,,65,127
87996,note_off,0,0,0,,0,,,60,127
87997,note_on,1,0,0,,5,,,65,127
87997,note_on,0,0,0,,0,,,60,127
88226,note_off,229,0,0,,5,,,77,127
88227,note_on,1,0,0,,7,,,79,127
88456,note_off,229,0,0,,0,,,60,127
88456,note_off,0,0,0,,5,,,65,127
88457,note_on,1,0,0,,5,,,65,127
88457,note_on,0,0,0,,12,,,59,127
88457,note_on,0,0,0,,7,,,67,127
88659,note_off,202,0,0,,7,,,79,127
88688,note_on,29,0,0,,8,,,80,127
88917,note_off,229,0,0,,7,,,67,127
88917,note_off,0,0,0,,12,,,59,127
88917,note_off,0,0,0,,5,,,65,127
88918,note_on,1,0,0,,7,,,67,127
88918,note_on,0,0,0,,5,,,65,127
88918,note_on,0,0,0,,12,,,59,127
89147,note_off,229,0,0,,8,,,80,127
89148,note_on,1,0,0,,8,,,80,127
89377,note_off,229,0,0,,8,,,80,127
89377,note_off,0,0,0,,12,,,59,127
89377,note_off,0,0,0,,5,,,65,127
89377,note_off,0,0,0,,7,,,67,127
89378,note_on,1,0,0,,12,,,59,127
89378,note_on,0,0,0,,7,,,67,127
89378,note_on,0,0,0,,5,,,65,127
89378,note_on,0,0,0,,11,,,82,127
89492,note_off,114,0,0,,11,,,82,127
89493,note_on,1,0,0,,8,,,80,127
89607,note_off,114,0,0,,8,,,80,127
89608,note_on,1,0,0,,7,,,79,127
89722,note_off,114,0,0,,7,,,79,127
89723,note_on,1,0,0,,5,,,77,127
89837,note_off,114,0,0,,5,,,65,127
89837,note_off,0,0,0,,7,,,67,127
89837,note_off,0,0,0,,12,,,59,127
89838,note_on,1,0,0,,0,,,60,127
89838,note_on,0,0,0,,7,,,67,127
90011,note_off,173,0,0,,5,,,77,127
90069,note_on,58,0,0,,3,,,75,127
90183,note_off,114,0,0,,3,,,75,127
90184,note_on,1,0,0,,2,,,74,127
90298,note_off,114,0,0,,2,,,74,127
90298,note_off,0,0,0,,7,,,67,127
90298,note_off,0,0,0,,0,,,60,127
90299,note_on,1,0,0,,0,,,60,127
90299,note_on,0,0,0,,7,,,67,127
90299,note_on,0,0,0,,3,,,75,127
90528,note_off,229,0,0,,3,,,75,127
90529,note_on,1,0,0,,6,,,78,127
90758,note_off,229,0,0,,7,,,67,127
90758,note_off,0,0,0,,0,,,60,127
90759,note_on,1,0,0,,0,,,60,127
90759,note_on,0,0,0,,7,,,67,127
90988,note_off,229,0,0,,6,,,78,127
90989,note_on,1,0,0,,7,,,79,127
91218,note_off,229,0,0,,7,,,67,127
91218,note_off,0,0,0,,0,,,60,127
91219,note_on,1,0,0,,1,,,61,127
91219,note_on,0,0,0,,10,,,69,127
91219,note_on,0,0,0,,7,,,67,127
91421,note_off,202,0,0,,7,,,79,127
91450,note_on,29,0,0,,10,,,81,127
91679,note_off,229,0,0,,7,,,67,127
91679,note_off,0,0,0,,10,,,69,127
91679,note_off,0,0,0,,1,,,61,127
91680,note_on,1,0,0,,1,,,61,127
91680,note_on,0,0,0,,7,,,67,127
91680,note_on,0,0,0,,10,,,69,127
91909,note_off,229,0,0,,10,,,81,127
91910,note_on,1,0,0,,11,,,82,127
92139,note_off,229,0,0,,11,,,82,127
92139,note_off,0,0,0,,10,,,69,127
92139,note_off,0,0,0,,7,,,67,127
92139,note_off,0,0,0,,1,,,61,127
92140,note_on,1,0,0,,7,,,67,127
92140,note_on,0,0,0,,1,,,61,127
92140,note_on,0,0,0,,10,,,69,127
92140,note_on,0,0,0,,0,,,84,127
92254,note_off,114,0,0,,0,,,84,127
92255,note_on,1,0,0,,11,,,82,127
92369,note_off,114,0,0,,11,,,82,127
92370,note_on,1,0,0,,10,,,81,127
92484,note_off,114,0,0,,10,,,81,127
92485,note_on,1,0,0,,7,,,79,127
92571,note_off,86,0,0,,10,,,69,127
92571,note_off,0,0,0,,7,,,67,127
92589,note_off,18,0,0,,1,,,61,127
92597,note_off,8,0,0,,7,,,79,127
92599,note_on,2,0,0,,2,,,50,127
92599,note_on,0,0,0,,2,,,62,127
92599,note_on,0,0,0,,2,,,86,127
92828,note_off,229,0,0,,2,,,86,127
92829,note_on,1,0,0,,10,,,81,127
93058,note_off,229,0,0,,10,,,81,127
93059,note_on,1,0,0,,2,,,74,127
93288,note_off,229,0,0,,2,,,74,127
93289,note_on,1,0,0,,0,,,84,127
93518,note_off,229,0,0,,0,,,84,127
93519,note_on,1,0,0,,0,,,84,127
93633,note_off,114,0,0,,0,,,84,127
93634,note_on,1,0,0,,11,,,82,127
93748,note_off,114,0,0,,11,,,82,127
93749,note_on,1,0,0,,10,,,81,127
93863,note_off,114,0,0,,10,,,81,127
93864,note_on,1,0,0,,7,,,79,127
93978,note_off,114,0,0,,7,,,79,127
93978,note_off,0,0,0,,2,,,62,127
93978,note_off,0,0,0,,2,,,50,127
93979,note_on,1,0,0,,2,,,74,127
93979,note_on,0,0,0,,7,,,79,127
94208,note_off,229,0,0,,7,,,79,127
94208,note_off,0,0,0,,2,,,74,127
94209,note_on,1,0,0,,10,,,69,127
94209,note_on,0,0,0,,10,,,81,127
94438,note_off,229,0,0,,10,,,69,127
94439,note_on,1,0,0,,2,,,62,127
94668,note_off,229,0,0,,2,,,62,127
94668,note_off,0,0,0,,10,,,81,127
94669,note_on,1,0,0,,0,,,72,127
94669,note_on,0,0,0,,2,,,74,127
94898,note_off,229,0,0,,2,,,74,127
94898,note_off,0,0,0,,0,,,72,127
94899,note_on,1,0,0,,0,,,72,127
94899,note_on,0,0,0,,7,,,79,127
95013,note_off,114,0,0,,0,,,72,127
95014,note_on,1,0,0,,11,,,70,127
95128,note_off,114,0,0,,11,,,70,127
95128,note_off,0,0,0,,7,,,79,127
95129,note_on,1,0,0,,10,,,69,127
95129,note_on,0,0,0,,10,,,81,127
95243,note_off,114,0,0,,10,,,81,127
95243,note_off,0,0,0,,10,,,69,127
95244,note_on,1,0,0,,7,,,67,127
95244,note_on,0,0,0,,11,,,82,127
95358,note_off,114,0,0,,11,,,82,127
95358,note_off,0,0,0,,7,,,67,127
95359,note_on,1,0,0,,2,,,62,127
95359,note_on,0,0,0,,11,,,82,127
95588,note_off,229,0,0,,11,,,82,127
95588,note_off,0,0,0,,2,,,62,127
95589,note_on,1,0,0,,10,,,57,127
95589,note_on,0,0,0,,10,,,81,127
95818,note_off,229,0,0,,10,,,57,127
95819,note_on,1,0,0,,2,,,50,127
96048,note_off,229,0,0,,2,,,50,127
96048,note_off,0,0,0,,10,,,81,127
96049,note_on,1,0,0,,0,,,60,127
96049,note_on,0,0,0,,2,,,62,127
96278,note_off,229,0,0,,2,,,62,127
96278,note_off,0,0,0,,0,,,60,127
96279,note_on,1,0,0,,0,,,60,127
96279,note_on,0,0,0,,7,,,67,127
96393,note_off,114,0,0,,0,,,60,127
96394,note_on,1,0,0,,11,,,58,127
96508,note_off,114,0,0,,11,,,58,127
96508,note_off,0,0,0,,7,,,67,127
96509,note_on,1,0,0,,10,,,57,127
96509,note_on,0,0,0,,10,,,69,127
96623,note_off,114,0,0,,10,,,69,127
96623,note_off,0,0,0,,10,,,57,127
96624,note_on,1,0,0,,7,,,55,127
96624,note_on,0,0,0,,11,,,70,127
96738,note_off,114,0,0,,11,,,70,127
96738,note_off,0,0,0,,7,,,55,127
96739,note_on,1,0,0,,2,,,62,127
96739,note_on,0,0,0,,11,,,70,127
96968,note_off,229,0,0,,11,,,70,127
96968,note_off,0,0,0,,2,,,62,127
96969,note_on,1,0,0,,2,,,50,127
96969,note_on,0,0,0,,10,,,69,127
97198,note_off,229,0,0,,2,,,50,127
97199,note_on,1,0,0,,0,,,60,127
97313,note_off,114,0,0,,0,,,60,127
97314,note_on,1,0,0,,11,,,58,127
97352,note_off,38,0,0,,10,,,69,127
97428,note_off,76,0,0,,11,,,58,127
97429,note_on,1,0,0,,10,,,57,127
97429,note_on,0,0,0,,11,,,70,127
97429,note_on,0,0,0,,2,,,62,127
97429,note_on,0,0,0,,7,,,67,127
97543,note_off,114,0,0,,10,,,57,127
97544,note_on,1,0,0,,7,,,55,127
97658,note_off,114,0,0,,7,,,55,127
97658,note_off,0,0,0,,2,,,62,127
97659,note_on,1,0,0,,2,,,62,127
97773,note_off,114,0,0,,7,,,67,127
97773,note_off,0,0,0,,11,,,70,127
97888,note_off,115,0,0,,2,,,62,127
97889,note_on,1,0,0,,2,,,50,127
97889,note_on,0,0,0,,10,,,69,127
97889,note_on,0,0,0,,6,,,66,127
97889,note_on,0,0,0,,2,,,62,127
98118,note_off,229,0,0,,2,,,62,127
98118,note_off,0,0,0,,6,,,66,127
98118,note_off,0,0,0,,10,,,69,127
98118,note_off,0,0,0,,2,,,50,127
98119,note_on,1,0,0,,7,,,55,127
98349,note_on,230,0,0,,11,,,70,127
98463,note_off,114,0,0,,11,,,70,127
98464,note_on,1,0,0,,10,,,69,127
98578,note_off,114,0,0,,10,,,69,127
98578,note_off,0,0,0,,7,,,55,127
98579,note_on,1,0,0,,7,,,43,127
98579,note_on,0,0,0,,7,,,67,127
98693,note_off,114,0,0,,7,,,67,127
98694,note_on,1,0,0,,10,,,69,127
98808,note_off,114,0,0,,10,,,69,127
98809,note_on,1,0,0,,11,,,70,127
98923,note_off,114,0,0,,11,,,70,127
98924,note_on,1,0,0,,0,,,72,127
99038,note_off,114,0,0,,0,,,72,127
99038,note_off,0,0,0,,7,,,43,127
99039,note_on,1,0,0,,11,,,46,127
99039,note_on,0,0,0,,3,,,75,127
99153,note_off,114,0,0,,3,,,75,127
99154,note_on,1,0,0,,2,,,74,127
99268,note_off,114,0,0,,2,,,74,127
99269,note_on,1,0,0,,0,,,72,127
99383,note_off,114,0,0,,0,,,72,127
99384,note_on,1,0,0,,11,,,70,127
99498,note_off,114,0,0,,11,,,70,127
99498,note_off,0,0,0,,11,,,46,127
99499,note_on,1,0,0,,0,,,48,127
99499,note_on,0,0,0,,10,,,69,127
99728,note_off,229,0,0,,10,,,69,127
99729,note_on,1,0,0,,7,,,67,127
99958,note_off,229,0,0,,7,,,67,127
99958,note_off,0,0,0,,0,,,48,127
99959,note_on,1,0,0,,2,,,50,127
99959,note_on,0,0,0,,7,,,67,127
100420,note_on,461,0,0,,2,,,38,127
100535,note_off,115,0,0,,7,,,67,127
100535,note_on,0,0,0,,6,,,66,127
100649,note_off,114,0,0,,6,,,66,127
100650,note_on,1,0,0,,4,,,64,127
100764,note_off,114,0,0,,4,,,64,127
100765,note_on,1,0,0,,6,,,66,127
100879,note_off,114,0,0,,6,,,66,127
100879,note_off,0,0,0,,2,,,38,127
100879,note_off,0,0,0,,2,,,50,127
100880,note_on,1,0,0,,7,,,55,127
101110,note_on,230,0,0,,2,,,86,127
101224,note_off,114,0,0,,2,,,86,127
101225,note_on,1,0,0,,0,,,84,127
101339,note_off,114,0,0,,0,,,84,127
101339,note_off,0,0,0,,7,,,55,127
101340,note_on,1,0,0,,10,,,57,127
101340,note_on,0,0,0,,11,,,82,127
101454,note_off,114,0,0,,11,,,82,127
101455,note_on,1,0,0,,10,,,81,127
101569,note_off,114,0,0,,10,,,81,127
101570,note_on,1,0,0,,7,,,79,127
101684,note_off,114,0,0,,7,,,79,127
101685,note_on,1,0,0,,6,,,78,127
101799,note_off,114,0,0,,6,,,78,127
101799,note_off,0,0,0,,10,,,57,127
101800,note_on,1,0,0,,11,,,58,127
101800,note_on,0,0,0,,6,,,78,127
101914,note_off,114,0,0,,6,,,78,127
101915,note_on,1,0,0,,7,,,79,127
102029,note_off,114,0,0,,7,,,79,127
102030,note_on,1,0,0,,5,,,77,127
102144,note_off,114,0,0,,5,,,77,127
102145,note_on,1,0,0,,3,,,75,127
102259,note_off,114,0,0,,3,,,75,127
102259,note_off,0,0,0,,11,,,58,127
102260,note_on,1,0,0,,0,,,60,127
102260,note_on,0,0,0,,2,,,74,127
102374,note_off,114,0,0,,2,,,74,127
102375,note_on,1,0,0,,0,,,72,127
102489,note_off,114,0,0,,0,,,72,127
102490,note_on,1,0,0,,11,,,70,127
102604,note_off,114,0,0,,11,,,70,127
102605,note_on,1,0,0,,10,,,69,127
102719,note_off,114,0,0,,10,,,69,127
102719,note_off,0,0,0,,0,,,60,127
102720,note_on,1,0,0,,2,,,62,127
102720,note_on,0,0,0,,7,,,67,127
103181,note_on,461,0,0,,2,,,50,127
103296,note_off,115,0,0,,7,,,67,127
103296,note_on,0,0,0,,6,,,66,127
103410,note_off,114,0,0,,6,,,66,127
103411,note_on,1,0,0,,4,,,64,127
103525,note_off,114,0,0,,4,,,64,127
103526,note_on,1,0,0,,6,,,66,127
103640,note_off,114,0,0,,6,,,66,127
103640,note_off,0,0,0,,2,,,50,127
103640,note_off,0,0,0,,2,,,62,127
103641,note_on,1,0,0,,7,,,43,127
103871,note_on,230,0,0,,2,,,74,127
103985,note_off,114,0,0,,2,,,74,127
103986,note_on,1,0,0,,0,,,72,127
104100,note_off,114,0,0,,0,,,72,127
104100,note_off,0,0,0,,7,,,43,127
104101,note_on,1,0,0,,10,,,45,127
104101,note_on,0,0,0,,11,,,70,127
104215,note_off,114,0,0,,11,,,70,127
104216,note_on,1,0,0,,10,,,69,127
104330,note_off,114,0,0,,10,,,69,127
104331,note_on,1,0,0,,7,,,67,127
104445,note_off,114,0,0,,7,,,67,127
104446,note_on,1,0,0,,6,,,66,127
104560,note_off,114,0,0,,6,,,66,127
104560,note_off,0,0,0,,10,,,45,127
104561,note_on,1,0,0,,11,,,46,127
104561,note_on,0,0,0,,6,,,66,127
104675,note_off,114,0,0,,6,,,66,127
104676,note_on,1,0,0,,7,,,67,127
104790,note_off,114,0,0,,7,,,67,127
104791,note_on,1,0,0,,5,,,65,127
104905,note_off,114,0,0,,5,,,65,127
104906,note_on,1,0,0,,3,,,63,127
105020,note_off,114,0,0,,3,,,63,127
105020,note_off,0,0,0,,11,,,46,127
105021,note_on,1,0,0,,0,,,48,127
105021,note_on,0,0,0,,2,,,62,127
105135,note_off,114,0,0,,2,,,62,127
105136,note_on,1,0,0,,0,,,60,127
105250,note_off,114,0,0,,0,,,60,127
105251,note_on,1,0,0,,11,,,58,127
105365,note_off,114,0,0,,11,,,58,127
105366,note_on,1,0,0,,10,,,57,127
105480,note_off,114,0,0,,10,,,57,127
105480,note_off,0,0,0,,0,,,48,127
105481,note_on,1,0,0,,2,,,50,127
105481,note_on,0,0,0,,7,,,55,127
105942,note_on,461,0,0,,2,,,38,127
106056,note_off,114,0,0,,7,,,55,127
106057,note_on,1,0,0,,6,,,54,127
106171,note_off,114,0,0,,6,,,54,127
106172,note_on,1,0,0,,4,,,52,127
106286,note_off,114,0,0,,4,,,52,127
106287,note_on,1,0,0,,6,,,54,127
106401,note_off,114,0,0,,6,,,54,127
106401,note_off,0,0,0,,2,,,38,127
106401,note_off,0,0,0,,2,,,50,127
106402,note_on,1,0,0,,7,,,43,127
106402,note_on,0,0,0,,6,,,54,127
106862,note_off,460,0,0,,6,,,54,127
106863,note_on,1,0,0,,7,,,55,127
109167,note_off,2304,0,0,,7,,,55,127
109167,note_off,0,0,0,,7,,,43,127
110592,end_of_track,1425,1,0,,,,,,
