tick,type,time,meta,track,program,channel,pitch,tempo,note,velocity
0,copyright,0,1,0,,,,,,
0,program_change,0,0,0,6,0,,,,
0,pitchwheel,0,0,0,,0,0,,,
0,program_change,0,0,0,6,1,,,,
0,pitchwheel,0,0,0,,1,-590,,,
0,program_change,0,0,0,6,2,,,,
0,pitchwheel,0,0,0,,2,-272,,,
0,program_change,0,0,0,6,3,,,,
0,pitchwheel,0,0,0,,3,-353,,,
0,program_change,0,0,0,6,4,,,,
0,pitchwheel,0,0,0,,4,-560,,,
0,program_change,0,0,0,6,5,,,,
0,pitchwheel,0,0,0,,5,-80,,,
0,program_change,0,0,0,6,6,,,,
0,pitchwheel,0,0,0,,6,-625,,,
0,program_change,0,0,0,6,7,,,,
0,pitchwheel,0,0,0,,7,-130,,,
0,program_change,0,0,0,6,8,,,,
0,pitchwheel,0,0,0,,8,-512,,,
0,program_change,0,0,0,6,10,,,,
0,pitchwheel,0,0,0,,10,-464,,,
0,program_change,0,0,0,6,11,,,,
0,pitchwheel,0,0,0,,11,-208,,,
0,program_change,0,0,0,6,12,,,,
0,pitchwheel,0,0,0,,12,-553,,,
0,set_tempo,0,1,0,,,,500000,,
105,note_on,105,0,0,,7,,,55,127
105,note_on,0,0,0,,7,,,79,127
312,note_off,207,0,0,,7,,,55,127
314,note_on,2,0,0,,10,,,57,127
521,note_off,207,0,0,,10,,,57,127
523,note_on,2,0,0,,12,,,59,127
730,note_off,207,0,0,,12,,,59,127
730,note_off,0,0,0,,7,,,79,127
732,note_on,2,0,0,,0,,,60,127
732,note_on,0,0,0,,6,,,78,127
939,note_off,207,0,0,,0,,,60,127
941,note_on,2,0,0,,2,,,62,127
1044,note_off,103,0,0,,6,,,78,127
1046,note_on,2,0,0,,4,,,76,127
1149,note_off,103,0,0,,2,,,62,127
1151,note_on,2,0,0,,4,,,64,127
1330,note_off,179,0,0,,4,,,76,127
1358,note_off,28,0,0,,4,,,64,127
1360,note_on,2,0,0,,2,,,62,127
1360,note_on,0,0,0,,2,,,74,127
1567,note_off,207,0,0,,2,,,62,127
1569,note_on,2,0,0,,4,,,64,127
1672,note_off,103,0,0,,2,,,74,127
1674,note_on,2,0,0,,0,,,72,127
1777,note_off,103,0,0,,4,,,64,127
1779,note_on,2,0,0,,6,,,66,127
1958,note_off,179,0,0,,0,,,72,127
1986,note_off,28,0,0,,6,,,66,127
1988,note_on,2,0,0,,7,,,67,127
1988,note_on,0,0,0,,12,,,71,127
2195,note_off,207,0,0,,7,,,67,127
2197,note_on,2,0,0,,2,,,62,127
2404,note_off,207,0,0,,2,,,62,127
2406,note_on,2,0,0,,7,,,55,127
2613,note_off,207,0,0,,7,,,55,127
2613,note_off,0,0,0,,12,,,71,127
2615,note_on,2,0,0,,7,,,55,127
2615,note_on,0,0,0,,2,,,74,127
2822,note_off,207,0,0,,7,,,55,127
2824,note_on,2,0,0,,10,,,57,127
3031,note_off,207,0,0,,10,,,57,127
3033,note_on,2,0,0,,12,,,59,127
3240,note_off,207,0,0,,12,,,59,127
3240,note_off,0,0,0,,2,,,74,127
3242,note_on,2,0,0,,0,,,60,127
3242,note_on,0,0,0,,4,,,76,127
3449,note_off,207,0,0,,0,,,60,127
3451,note_on,2,0,0,,2,,,62,127
3658,note_off,207,0,0,,2,,,62,127
3660,note_on,2,0,0,,4,,,64,127
3867,note_off,207,0,0,,4,,,64,127
3867,note_off,0,0,0,,4,,,76,127
3869,note_on,2,0,0,,2,,,62,127
3869,note_on,0,0,0,,12,,,71,127
3939,note_on,70,0,0,,10,,,69,127
3972,note_off,33,0,0,,12,,,71,127
4009,note_on,37,0,0,,12,,,71,127
4042,note_off,33,0,0,,10,,,69,127
4077,note_off,35,0,0,,2,,,62,127
4079,note_on,2,0,0,,4,,,64,127
4079,note_on,0,0,0,,10,,,69,127
4112,note_off,33,0,0,,12,,,71,127
4149,note_on,37,0,0,,12,,,71,127
4182,note_off,33,0,0,,10,,,69,127
4219,note_on,37,0,0,,10,,,69,127
4252,note_off,33,0,0,,12,,,71,127
4287,note_off,35,0,0,,4,,,64,127
4289,note_on,2,0,0,,6,,,66,127
4490,note_off,201,0,0,,10,,,69,127
4497,note_off,7,0,0,,6,,,66,127
4499,note_on,2,0,0,,7,,,67,127
4708,note_on,209,0,0,,2,,,62,127
4915,note_off,207,0,0,,2,,,62,127
4917,note_on,2,0,0,,7,,,55,127
5124,note_off,207,0,0,,7,,,55,127
5124,note_off,0,0,0,,7,,,67,127
5126,note_on,2,0,0,,7,,,55,127
5126,note_on,0,0,0,,6,,,78,127
5333,note_off,207,0,0,,7,,,55,127
5335,note_on,2,0,0,,10,,,57,127
5438,note_off,103,0,0,,6,,,78,127
5440,note_on,2,0,0,,7,,,79,127
5543,note_off,103,0,0,,10,,,57,127
5545,note_on,2,0,0,,12,,,59,127
5724,note_off,179,0,0,,7,,,79,127
5752,note_off,28,0,0,,12,,,59,127
5754,note_on,2,0,0,,0,,,60,127
5754,note_on,0,0,0,,3,,,75,127
5961,note_off,207,0,0,,0,,,60,127
5963,note_on,2,0,0,,2,,,62,127
6066,note_off,103,0,0,,3,,,75,127
6068,note_on,2,0,0,,4,,,76,127
6171,note_off,103,0,0,,2,,,62,127
6173,note_on,2,0,0,,4,,,64,127
6352,note_off,179,0,0,,4,,,76,127
6380,note_off,28,0,0,,4,,,64,127
6382,note_on,2,0,0,,2,,,62,127
6382,note_on,0,0,0,,12,,,71,127
6589,note_off,207,0,0,,2,,,62,127
6591,note_on,2,0,0,,4,,,64,127
6694,note_off,103,0,0,,12,,,71,127
6696,note_on,2,0,0,,0,,,72,127
6799,note_off,103,0,0,,4,,,64,127
6801,note_on,2,0,0,,6,,,66,127
6980,note_off,179,0,0,,0,,,72,127
7008,note_off,28,0,0,,6,,,66,127
7010,note_on,2,0,0,,7,,,67,127
7010,note_on,0,0,0,,11,,,70,127
7217,note_off,207,0,0,,7,,,67,127
7219,note_on,2,0,0,,2,,,62,127
7322,note_off,103,0,0,,11,,,70,127
7324,note_on,2,0,0,,12,,,71,127
7427,note_off,103,0,0,,2,,,62,127
7429,note_on,2,0,0,,7,,,55,127
7608,note_off,179,0,0,,12,,,71,127
7636,note_off,28,0,0,,7,,,55,127
7638,note_on,2,0,0,,7,,,55,127
7638,note_on,0,0,0,,1,,,73,127
7845,note_off,207,0,0,,7,,,55,127
7847,note_on,2,0,0,,10,,,57,127
7950,note_off,103,0,0,,1,,,73,127
7952,note_on,2,0,0,,2,,,74,127
8055,note_off,103,0,0,,10,,,57,127
8057,note_on,2,0,0,,12,,,59,127
8264,note_off,207,0,0,,12,,,59,127
8264,note_off,0,0,0,,2,,,74,127
8266,note_on,2,0,0,,0,,,60,127
8266,note_on,0,0,0,,3,,,75,127
8473,note_off,207,0,0,,0,,,60,127
8475,note_on,2,0,0,,2,,,62,127
8578,note_off,103,0,0,,3,,,75,127
8580,note_on,2,0,0,,4,,,76,127
8683,note_off,103,0,0,,2,,,62,127
8685,note_on,2,0,0,,4,,,64,127
8892,note_off,207,0,0,,4,,,64,127
8892,note_off,0,0,0,,4,,,76,127
8894,note_on,2,0,0,,2,,,62,127
8894,note_on,0,0,0,,12,,,71,127
8964,note_on,70,0,0,,10,,,69,127
8997,note_off,33,0,0,,12,,,71,127
9034,note_on,37,0,0,,12,,,71,127
9067,note_off,33,0,0,,10,,,69,127
9102,note_off,35,0,0,,2,,,62,127
9104,note_on,2,0,0,,4,,,64,127
9104,note_on,0,0,0,,10,,,69,127
9137,note_off,33,0,0,,12,,,71,127
9174,note_on,37,0,0,,12,,,71,127
9207,note_off,33,0,0,,10,,,69,127
9244,note_on,37,0,0,,10,,,69,127
9277,note_off,33,0,0,,12,,,71,127
9312,note_off,35,0,0,,4,,,64,127
9314,note_on,2,0,0,,6,,,66,127
9515,note_off,201,0,0,,10,,,69,127
9522,note_off,7,0,0,,6,,,66,127
9524,note_on,2,0,0,,7,,,67,127
9733,note_on,209,0,0,,2,,,62,127
9940,note_off,207,0,0,,2,,,62,127
9942,note_on,2,0,0,,7,,,55,127
10047,note_off,105,0,0,,7,,,67,127
10150,note_off,103,0,0,,7,,,55,127
10152,note_on,2,0,0,,2,,,62,127
10255,note_off,103,0,0,,2,,,62,127
10257,note_on,2,0,0,,4,,,64,127
10360,note_off,103,0,0,,4,,,64,127
10362,note_on,2,0,0,,6,,,66,127
10465,note_off,103,0,0,,6,,,66,127
10467,note_on,2,0,0,,7,,,67,127
10570,note_off,103,0,0,,7,,,67,127
10572,note_on,2,0,0,,10,,,69,127
10675,note_off,103,0,0,,10,,,69,127
10677,note_on,2,0,0,,12,,,71,127
10780,note_off,103,0,0,,12,,,71,127
10782,note_on,2,0,0,,0,,,72,127
10885,note_off,103,0,0,,0,,,72,127
10887,note_on,2,0,0,,2,,,74,127
10990,note_off,103,0,0,,2,,,74,127
10992,note_on,2,0,0,,4,,,76,127
11095,note_off,103,0,0,,4,,,76,127
11097,note_on,2,0,0,,6,,,78,127
11200,note_off,103,0,0,,6,,,78,127
11202,note_on,2,0,0,,7,,,79,127
11305,note_off,103,0,0,,7,,,79,127
11307,note_on,2,0,0,,10,,,81,127
11410,note_off,103,0,0,,10,,,81,127
11412,note_on,2,0,0,,7,,,55,127
11412,note_on,0,0,0,,2,,,62,127
11412,note_on,0,0,0,,12,,,83,127
11517,note_on,105,0,0,,2,,,74,127
11620,note_off,103,0,0,,2,,,74,127
11620,note_off,0,0,0,,2,,,62,127
11620,note_off,0,0,0,,7,,,55,127
11622,note_on,2,0,0,,6,,,54,127
11622,note_on,0,0,0,,2,,,62,127
11622,note_on,0,0,0,,0,,,72,127
11725,note_off,103,0,0,,12,,,83,127
11727,note_on,2,0,0,,10,,,81,127
11830,note_off,103,0,0,,10,,,81,127
11830,note_off,0,0,0,,2,,,62,127
11830,note_off,0,0,0,,6,,,54,127
11832,note_on,2,0,0,,2,,,62,127
11832,note_on,0,0,0,,7,,,55,127
11832,note_on,0,0,0,,7,,,79,127
11935,note_off,103,0,0,,0,,,72,127
11937,note_on,2,0,0,,12,,,71,127
12040,note_off,103,0,0,,12,,,71,127
12040,note_off,0,0,0,,7,,,55,127
12040,note_off,0,0,0,,2,,,62,127
12042,note_on,2,0,0,,2,,,50,127
12042,note_on,0,0,0,,10,,,69,127
12247,note_off,205,0,0,,7,,,79,127
12251,note_on,4,0,0,,6,,,78,127
12354,note_off,103,0,0,,6,,,78,127
12356,note_on,2,0,0,,4,,,76,127
12459,note_off,103,0,0,,4,,,76,127
12461,note_on,2,0,0,,6,,,78,127
12668,note_off,207,0,0,,6,,,78,127
12668,note_off,0,0,0,,2,,,50,127
12669,note_off,1,0,0,,10,,,69,127
12670,note_on,1,0,0,,2,,,50,127
12773,note_off,103,0,0,,2,,,50,127
12775,note_on,2,0,0,,4,,,52,127
12878,note_off,103,0,0,,4,,,52,127
12880,note_on,2,0,0,,6,,,54,127
12983,note_off,103,0,0,,6,,,54,127
12985,note_on,2,0,0,,7,,,55,127
13088,note_off,103,0,0,,7,,,55,127
13090,note_on,2,0,0,,10,,,57,127
13193,note_off,103,0,0,,10,,,57,127
13195,note_on,2,0,0,,12,,,59,127
13298,note_off,103,0,0,,12,,,59,127
13300,note_on,2,0,0,,0,,,60,127
13403,note_off,103,0,0,,0,,,60,127
13405,note_on,2,0,0,,2,,,62,127
13508,note_off,103,0,0,,2,,,62,127
13510,note_on,2,0,0,,4,,,64,127
13613,note_off,103,0,0,,4,,,64,127
13615,note_on,2,0,0,,6,,,66,127
13718,note_off,103,0,0,,6,,,66,127
13720,note_on,2,0,0,,7,,,67,127
13823,note_off,103,0,0,,7,,,67,127
13825,note_on,2,0,0,,10,,,69,127
13928,note_off,103,0,0,,10,,,69,127
13930,note_on,2,0,0,,12,,,71,127
14035,note_on,105,0,0,,7,,,79,127
14138,note_off,103,0,0,,12,,,71,127
14140,note_on,2,0,0,,10,,,69,127
14243,note_off,103,0,0,,7,,,79,127
14245,note_on,2,0,0,,6,,,78,127
14348,note_off,103,0,0,,10,,,69,127
14350,note_on,2,0,0,,7,,,67,127
14453,note_off,103,0,0,,6,,,78,127
14455,note_on,2,0,0,,7,,,79,127
14558,note_off,103,0,0,,7,,,79,127
14558,note_off,0,0,0,,7,,,67,127
14560,note_on,2,0,0,,2,,,62,127
14560,note_on,0,0,0,,7,,,79,127
14977,note_off,417,0,0,,7,,,79,127
14979,note_on,2,0,0,,10,,,81,127
15174,note_off,195,0,0,,10,,,81,127
15186,note_off,12,0,0,,2,,,62,127
15188,note_on,2,0,0,,2,,,62,127
15188,note_on,0,0,0,,6,,,54,127
15188,note_on,0,0,0,,10,,,81,127
15291,note_off,103,0,0,,10,,,81,127
15293,note_on,2,0,0,,2,,,86,127
15396,note_off,103,0,0,,2,,,86,127
15398,note_on,2,0,0,,6,,,78,127
15501,note_off,103,0,0,,6,,,78,127
15503,note_on,2,0,0,,10,,,81,127
15606,note_off,103,0,0,,10,,,81,127
15608,note_on,2,0,0,,2,,,74,127
15711,note_off,103,0,0,,2,,,74,127
15713,note_on,2,0,0,,6,,,78,127
15816,note_off,103,0,0,,6,,,78,127
15816,note_off,0,0,0,,6,,,54,127
15816,note_off,0,0,0,,2,,,62,127
15818,note_on,2,0,0,,7,,,55,127
15818,note_on,0,0,0,,2,,,62,127
15818,note_on,0,0,0,,12,,,71,127
15921,note_off,103,0,0,,12,,,71,127
15923,note_on,2,0,0,,2,,,74,127
16026,note_off,103,0,0,,2,,,74,127
16028,note_on,2,0,0,,7,,,67,127
16131,note_off,103,0,0,,7,,,67,127
16133,note_on,2,0,0,,12,,,71,127
16236,note_off,103,0,0,,12,,,71,127
16238,note_on,2,0,0,,4,,,64,127
16341,note_off,103,0,0,,4,,,64,127
16343,note_on,2,0,0,,7,,,67,127
16446,note_off,103,0,0,,7,,,67,127
16446,note_off,0,0,0,,2,,,62,127
16446,note_off,0,0,0,,7,,,55,127
16448,note_on,2,0,0,,10,,,45,127
16448,note_on,0,0,0,,10,,,57,127
16448,note_on,0,0,0,,1,,,61,127
16551,note_off,103,0,0,,1,,,61,127
16553,note_on,2,0,0,,12,,,71,127
16656,note_off,103,0,0,,12,,,71,127
16658,note_on,2,0,0,,10,,,69,127
16761,note_off,103,0,0,,10,,,69,127
16763,note_on,2,0,0,,7,,,67,127
16866,note_off,103,0,0,,7,,,67,127
16868,note_on,2,0,0,,6,,,66,127
16971,note_off,103,0,0,,6,,,66,127
16973,note_on,2,0,0,,4,,,64,127
17076,note_off,103,0,0,,4,,,64,127
17076,note_off,0,0,0,,10,,,57,127
17076,note_off,0,0,0,,10,,,45,127
17078,note_on,2,0,0,,2,,,38,127
17078,note_on,0,0,0,,2,,,50,127
17078,note_on,0,0,0,,7,,,67,127
17181,note_off,103,0,0,,7,,,67,127
17183,note_on,2,0,0,,6,,,66,127
17286,note_off,103,0,0,,6,,,66,127
17288,note_on,2,0,0,,4,,,64,127
17495,note_off,207,0,0,,4,,,64,127
17497,note_on,2,0,0,,6,,,66,127
17672,note_off,175,0,0,,6,,,66,127
17705,note_off,33,0,0,,2,,,50,127
17705,note_off,0,0,0,,2,,,38,127
17707,note_on,2,0,0,,6,,,54,127
17707,note_on,0,0,0,,2,,,62,127
17707,note_on,0,0,0,,10,,,81,127
17810,note_off,103,0,0,,10,,,81,127
17812,note_on,2,0,0,,2,,,86,127
17915,note_off,103,0,0,,2,,,86,127
17917,note_on,2,0,0,,6,,,78,127
18020,note_off,103,0,0,,6,,,78,127
18022,note_on,2,0,0,,10,,,81,127
18125,note_off,103,0,0,,10,,,81,127
18127,note_on,2,0,0,,2,,,74,127
18230,note_off,103,0,0,,2,,,74,127
18232,note_on,2,0,0,,6,,,78,127
18335,note_off,103,0,0,,6,,,78,127
18335,note_off,0,0,0,,2,,,62,127
18335,note_off,0,0,0,,6,,,54,127
18337,note_on,2,0,0,,7,,,55,127
18337,note_on,0,0,0,,2,,,62,127
18337,note_on,0,0,0,,12,,,71,127
18440,note_off,103,0,0,,12,,,71,127
18442,note_on,2,0,0,,2,,,74,127
18545,note_off,103,0,0,,2,,,74,127
18547,note_on,2,0,0,,7,,,67,127
18650,note_off,103,0,0,,7,,,67,127
18652,note_on,2,0,0,,12,,,71,127
18755,note_off,103,0,0,,12,,,71,127
18757,note_on,2,0,0,,4,,,64,127
18860,note_off,103,0,0,,4,,,64,127
18862,note_on,2,0,0,,7,,,67,127
18965,note_off,103,0,0,,7,,,67,127
18965,note_off,0,0,0,,2,,,62,127
18965,note_off,0,0,0,,7,,,55,127
18967,note_on,2,0,0,,10,,,45,127
18967,note_on,0,0,0,,10,,,57,127
18967,note_on,0,0,0,,1,,,61,127
19070,note_off,103,0,0,,1,,,61,127
19072,note_on,2,0,0,,12,,,71,127
19175,note_off,103,0,0,,12,,,71,127
19177,note_on,2,0,0,,10,,,69,127
19280,note_off,103,0,0,,10,,,69,127
19282,note_on,2,0,0,,7,,,67,127
19385,note_off,103,0,0,,7,,,67,127
19387,note_on,2,0,0,,6,,,66,127
19490,note_off,103,0,0,,6,,,66,127
19492,note_on,2,0,0,,4,,,64,127
19595,note_off,103,0,0,,4,,,64,127
19595,note_off,0,0,0,,10,,,57,127
19595,note_off,0,0,0,,10,,,45,127
19597,note_on,2,0,0,,2,,,38,127
19597,note_on,0,0,0,,2,,,50,127
19597,note_on,0,0,0,,4,,,64,127
19665,note_off,68,0,0,,4,,,64,127
19667,note_on,2,0,0,,2,,,62,127
19735,note_off,68,0,0,,2,,,62,127
19737,note_on,2,0,0,,4,,,64,127
19805,note_off,68,0,0,,4,,,64,127
19807,note_on,2,0,0,,2,,,62,127
20200,note_off,393,0,0,,2,,,62,127
20224,note_off,24,0,0,,2,,,50,127
20224,note_off,0,0,0,,2,,,38,127
20226,note_on,2,0,0,,10,,,69,127
20329,note_off,103,0,0,,10,,,69,127
20331,note_on,2,0,0,,2,,,74,127
20434,note_off,103,0,0,,2,,,74,127
20436,note_on,2,0,0,,6,,,66,127
20539,note_off,103,0,0,,6,,,66,127
20541,note_on,2,0,0,,10,,,69,127
20644,note_off,103,0,0,,10,,,69,127
20646,note_on,2,0,0,,2,,,62,127
20646,note_on,0,0,0,,10,,,81,127
20749,note_off,103,0,0,,2,,,62,127
20751,note_on,2,0,0,,6,,,66,127
20854,note_off,103,0,0,,6,,,66,127
20856,note_on,2,0,0,,12,,,59,127
20959,note_off,103,0,0,,12,,,59,127
20961,note_on,2,0,0,,2,,,62,127
21064,note_off,103,0,0,,2,,,62,127
21066,note_on,2,0,0,,7,,,55,127
21169,note_off,103,0,0,,7,,,55,127
21171,note_on,2,0,0,,12,,,59,127
21274,note_off,103,0,0,,12,,,59,127
21274,note_off,0,0,0,,10,,,81,127
21276,note_on,2,0,0,,4,,,52,127
21276,note_on,0,0,0,,12,,,83,127
21379,note_off,103,0,0,,4,,,52,127
21381,note_on,2,0,0,,7,,,55,127
21484,note_off,103,0,0,,7,,,55,127
21486,note_on,2,0,0,,1,,,49,127
21589,note_off,103,0,0,,1,,,49,127
21591,note_on,2,0,0,,12,,,59,127
21694,note_off,103,0,0,,12,,,59,127
21694,note_off,0,0,0,,12,,,83,127
21696,note_on,2,0,0,,10,,,57,127
21696,note_on,0,0,0,,12,,,83,127
21799,note_off,103,0,0,,10,,,57,127
21801,note_on,2,0,0,,7,,,55,127
21904,note_off,103,0,0,,7,,,55,127
21906,note_on,2,0,0,,6,,,54,127
22009,note_off,103,0,0,,6,,,54,127
22011,note_on,2,0,0,,4,,,52,127
22114,note_off,103,0,0,,4,,,52,127
22116,note_on,2,0,0,,6,,,54,127
22219,note_off,103,0,0,,12,,,83,127
22221,note_on,2,0,0,,12,,,83,127
22324,note_off,103,0,0,,12,,,83,127
22326,note_on,2,0,0,,10,,,81,127
22429,note_off,103,0,0,,10,,,81,127
22431,note_on,2,0,0,,7,,,79,127
22534,note_off,103,0,0,,7,,,79,127
22536,note_on,2,0,0,,10,,,81,127
22743,note_off,207,0,0,,10,,,81,127
22743,note_off,0,0,0,,6,,,54,127
22745,note_on,2,0,0,,10,,,69,127
22848,note_off,103,0,0,,10,,,69,127
22850,note_on,2,0,0,,2,,,74,127
22953,note_off,103,0,0,,2,,,74,127
22955,note_on,2,0,0,,6,,,66,127
23058,note_off,103,0,0,,6,,,66,127
23060,note_on,2,0,0,,10,,,69,127
23163,note_off,103,0,0,,10,,,69,127
23165,note_on,2,0,0,,2,,,62,127
23165,note_on,0,0,0,,10,,,81,127
23268,note_off,103,0,0,,2,,,62,127
23270,note_on,2,0,0,,6,,,66,127
23373,note_off,103,0,0,,6,,,66,127
23375,note_on,2,0,0,,12,,,59,127
23478,note_off,103,0,0,,12,,,59,127
23480,note_on,2,0,0,,2,,,62,127
23583,note_off,103,0,0,,2,,,62,127
23585,note_on,2,0,0,,7,,,55,127
23688,note_off,103,0,0,,7,,,55,127
23690,note_on,2,0,0,,12,,,59,127
23793,note_off,103,0,0,,12,,,59,127
23793,note_off,0,0,0,,10,,,81,127
23795,note_on,2,0,0,,7,,,43,127
23795,note_on,0,0,0,,12,,,83,127
24002,note_off,207,0,0,,7,,,43,127
24004,note_on,2,0,0,,10,,,45,127
24107,note_off,103,0,0,,12,,,83,127
24109,note_on,2,0,0,,12,,,83,127
24212,note_off,103,0,0,,12,,,83,127
24214,note_on,2,0,0,,10,,,81,127
24317,note_off,103,0,0,,10,,,81,127
24319,note_on,2,0,0,,7,,,79,127
24422,note_off,103,0,0,,7,,,79,127
24424,note_on,2,0,0,,6,,,78,127
24527,note_off,103,0,0,,6,,,78,127
24529,note_on,2,0,0,,4,,,76,127
24632,note_off,103,0,0,,4,,,76,127
24632,note_off,0,0,0,,10,,,45,127
24634,note_on,2,0,0,,2,,,38,127
24634,note_on,0,0,0,,2,,,50,127
24634,note_on,0,0,0,,4,,,76,127
24702,note_off,68,0,0,,4,,,76,127
24704,note_on,2,0,0,,2,,,74,127
24772,note_off,68,0,0,,2,,,74,127
24774,note_on,2,0,0,,4,,,76,127
24842,note_off,68,0,0,,4,,,76,127
24844,note_on,2,0,0,,2,,,74,127
25158,note_off,314,0,0,,2,,,74,127
25261,note_off,103,0,0,,2,,,50,127
25261,note_off,0,0,0,,2,,,38,127
25263,note_on,2,0,0,,2,,,38,127
25263,note_on,0,0,0,,2,,,50,127
25263,note_on,0,0,0,,2,,,86,127
25366,note_off,103,0,0,,2,,,86,127
25368,note_on,2,0,0,,10,,,81,127
25471,note_off,103,0,0,,10,,,81,127
25473,note_on,2,0,0,,5,,,77,127
25576,note_off,103,0,0,,5,,,77,127
25578,note_on,2,0,0,,2,,,74,127
25681,note_off,103,0,0,,2,,,74,127
25683,note_on,2,0,0,,10,,,69,127
25786,note_off,103,0,0,,10,,,69,127
25788,note_on,2,0,0,,5,,,65,127
25891,note_off,103,0,0,,5,,,65,127
25891,note_off,0,0,0,,2,,,50,127
25891,note_off,0,0,0,,2,,,38,127
25893,note_on,2,0,0,,2,,,62,127
25996,note_off,103,0,0,,2,,,62,127
25998,note_on,2,0,0,,10,,,57,127
26101,note_off,103,0,0,,10,,,57,127
26103,note_on,2,0,0,,5,,,53,127
26206,note_off,103,0,0,,5,,,53,127
26208,note_on,2,0,0,,2,,,50,127
26311,note_off,103,0,0,,2,,,50,127
26313,note_on,2,0,0,,10,,,45,127
26313,note_on,0,0,0,,5,,,77,127
26416,note_off,103,0,0,,10,,,45,127
26418,note_on,2,0,0,,2,,,38,127
26521,note_off,103,0,0,,2,,,38,127
26523,note_on,2,0,0,,11,,,46,127
26730,note_off,207,0,0,,5,,,77,127
26732,note_on,2,0,0,,4,,,76,127
26835,note_off,103,0,0,,4,,,76,127
26837,note_on,2,0,0,,2,,,74,127
26940,note_off,103,0,0,,2,,,74,127
26942,note_on,2,0,0,,1,,,73,127
27045,note_off,103,0,0,,1,,,73,127
27047,note_on,2,0,0,,2,,,74,127
27150,note_off,103,0,0,,2,,,74,127
27150,note_off,0,0,0,,11,,,46,127
27152,note_on,2,0,0,,10,,,45,127
27152,note_on,0,0,0,,2,,,74,127
27569,note_off,417,0,0,,2,,,74,127
27571,note_on,2,0,0,,4,,,76,127
27766,note_off,195,0,0,,4,,,76,127
27778,note_off,12,0,0,,10,,,45,127
27780,note_on,2,0,0,,2,,,38,127
27780,note_on,0,0,0,,2,,,50,127
27780,note_on,0,0,0,,2,,,86,127
27883,note_off,103,0,0,,2,,,86,127
27885,note_on,2,0,0,,10,,,81,127
27988,note_off,103,0,0,,10,,,81,127
27990,note_on,2,0,0,,5,,,77,127
28093,note_off,103,0,0,,5,,,77,127
28095,note_on,2,0,0,,2,,,74,127
28198,note_off,103,0,0,,2,,,74,127
28200,note_on,2,0,0,,10,,,69,127
28303,note_off,103,0,0,,10,,,69,127
28305,note_on,2,0,0,,5,,,65,127
28408,note_off,103,0,0,,5,,,65,127
28408,note_off,0,0,0,,2,,,50,127
28408,note_off,0,0,0,,2,,,38,127
28410,note_on,2,0,0,,2,,,62,127
28513,note_off,103,0,0,,2,,,62,127
28515,note_on,2,0,0,,10,,,57,127
28618,note_off,103,0,0,,10,,,57,127
28620,note_on,2,0,0,,5,,,53,127
28723,note_off,103,0,0,,5,,,53,127
28725,note_on,2,0,0,,2,,,50,127
28828,note_off,103,0,0,,2,,,50,127
28830,note_on,2,0,0,,10,,,45,127
28830,note_on,0,0,0,,5,,,77,127
28933,note_off,103,0,0,,10,,,45,127
28935,note_on,2,0,0,,2,,,38,127
29038,note_off,103,0,0,,2,,,38,127
29040,note_on,2,0,0,,11,,,46,127
29247,note_off,207,0,0,,5,,,77,127
29249,note_on,2,0,0,,4,,,76,127
29352,note_off,103,0,0,,4,,,76,127
29354,note_on,2,0,0,,2,,,74,127
29457,note_off,103,0,0,,2,,,74,127
29459,note_on,2,0,0,,1,,,73,127
29562,note_off,103,0,0,,1,,,73,127
29564,note_on,2,0,0,,2,,,74,127
29667,note_off,103,0,0,,2,,,74,127
29667,note_off,0,0,0,,11,,,46,127
29669,note_on,2,0,0,,10,,,45,127
29669,note_on,0,0,0,,2,,,74,127
30086,note_off,417,0,0,,2,,,74,127
30088,note_on,2,0,0,,4,,,76,127
30283,note_off,195,0,0,,4,,,76,127
30295,note_off,12,0,0,,10,,,45,127
30297,note_on,2,0,0,,5,,,53,127
30297,note_on,0,0,0,,2,,,62,127
30297,note_on,0,0,0,,2,,,86,127
30402,note_on,105,0,0,,5,,,77,127
30505,note_off,103,0,0,,5,,,77,127
30507,note_on,2,0,0,,4,,,76,127
30610,note_off,103,0,0,,2,,,86,127
30612,note_on,2,0,0,,0,,,84,127
30715,note_off,103,0,0,,0,,,84,127
30717,note_on,2,0,0,,11,,,82,127
30820,note_off,103,0,0,,4,,,76,127
30822,note_on,2,0,0,,2,,,74,127
30925,note_off,103,0,0,,2,,,74,127
30925,note_off,0,0,0,,2,,,62,127
30925,note_off,0,0,0,,5,,,53,127
30927,note_on,2,0,0,,2,,,62,127
30927,note_on,0,0,0,,7,,,55,127
30927,note_on,0,0,0,,0,,,72,127
31030,note_off,103,0,0,,11,,,82,127
31032,note_on,2,0,0,,10,,,81,127
31135,note_off,103,0,0,,10,,,81,127
31137,note_on,2,0,0,,7,,,79,127
31240,note_off,103,0,0,,0,,,72,127
31242,note_on,2,0,0,,11,,,70,127
31345,note_off,103,0,0,,11,,,70,127
31347,note_on,2,0,0,,10,,,69,127
31450,note_off,103,0,0,,7,,,79,127
31452,note_on,2,0,0,,5,,,77,127
31555,note_off,103,0,0,,5,,,77,127
31555,note_off,0,0,0,,7,,,55,127
31555,note_off,0,0,0,,2,,,62,127
31557,note_on,2,0,0,,10,,,45,127
31557,note_on,0,0,0,,10,,,57,127
31557,note_on,0,0,0,,4,,,76,127
31660,note_off,103,0,0,,10,,,69,127
31662,note_on,2,0,0,,7,,,67,127
31765,note_off,103,0,0,,7,,,67,127
31767,note_on,2,0,0,,5,,,65,127
31870,note_off,103,0,0,,4,,,76,127
31872,note_on,2,0,0,,2,,,74,127
31975,note_off,103,0,0,,5,,,65,127
31977,note_on,2,0,0,,4,,,64,127
32080,note_off,103,0,0,,2,,,74,127
32082,note_on,2,0,0,,1,,,73,127
32185,note_off,103,0,0,,1,,,73,127
32185,note_off,0,0,0,,4,,,64,127
32185,note_off,0,0,0,,10,,,57,127
32185,note_off,0,0,0,,10,,,45,127
32187,note_on,2,0,0,,2,,,38,127
32187,note_on,0,0,0,,2,,,50,127
32187,note_on,0,0,0,,2,,,74,127
32813,note_off,626,0,0,,2,,,50,127
32813,note_off,0,0,0,,2,,,38,127
32815,note_on,2,0,0,,5,,,53,127
32815,note_on,0,0,0,,2,,,62,127
32815,note_on,0,0,0,,2,,,86,127
32918,note_off,103,0,0,,2,,,74,127
32920,note_on,2,0,0,,5,,,77,127
33023,note_off,103,0,0,,5,,,77,127
33025,note_on,2,0,0,,4,,,76,127
33128,note_off,103,0,0,,2,,,86,127
33130,note_on,2,0,0,,0,,,84,127
33233,note_off,103,0,0,,0,,,84,127
33235,note_on,2,0,0,,11,,,82,127
33338,note_off,103,0,0,,4,,,76,127
33340,note_on,2,0,0,,2,,,74,127
33443,note_off,103,0,0,,2,,,74,127
33443,note_off,0,0,0,,2,,,62,127
33443,note_off,0,0,0,,5,,,53,127
33445,note_on,2,0,0,,2,,,62,127
33445,note_on,0,0,0,,7,,,55,127
33445,note_on,0,0,0,,0,,,72,127
33548,note_off,103,0,0,,11,,,82,127
33550,note_on,2,0,0,,10,,,81,127
33653,note_off,103,0,0,,10,,,81,127
33655,note_on,2,0,0,,7,,,79,127
33758,note_off,103,0,0,,0,,,72,127
33760,note_on,2,0,0,,11,,,70,127
33863,note_off,103,0,0,,11,,,70,127
33865,note_on,2,0,0,,10,,,69,127
33968,note_off,103,0,0,,7,,,79,127
33970,note_on,2,0,0,,5,,,77,127
34073,note_off,103,0,0,,5,,,77,127
34073,note_off,0,0,0,,7,,,55,127
34073,note_off,0,0,0,,2,,,62,127
34075,note_on,2,0,0,,10,,,45,127
34075,note_on,0,0,0,,10,,,57,127
34075,note_on,0,0,0,,4,,,76,127
34178,note_off,103,0,0,,10,,,69,127
34180,note_on,2,0,0,,7,,,67,127
34283,note_off,103,0,0,,7,,,67,127
34285,note_on,2,0,0,,5,,,65,127
34388,note_off,103,0,0,,4,,,76,127
34390,note_on,2,0,0,,2,,,74,127
34493,note_off,103,0,0,,5,,,65,127
34495,note_on,2,0,0,,4,,,64,127
34598,note_off,103,0,0,,2,,,74,127
34600,note_on,2,0,0,,1,,,73,127
34703,note_off,103,0,0,,1,,,73,127
34703,note_off,0,0,0,,4,,,64,127
34703,note_off,0,0,0,,10,,,57,127
34703,note_off,0,0,0,,10,,,45,127
34705,note_on,2,0,0,,2,,,38,127
34705,note_on,0,0,0,,2,,,50,127
34705,note_on,0,0,0,,2,,,74,127
34914,note_on,209,0,0,,10,,,81,127
35119,note_off,205,0,0,,2,,,74,127
35119,note_off,0,0,0,,2,,,50,127
35119,note_off,0,0,0,,2,,,38,127
35333,note_on,214,0,0,,10,,,45,127
35394,note_off,61,0,0,,10,,,81,127
35435,note_off,41,0,0,,10,,,45,127
35437,note_on,2,0,0,,12,,,47,127
35540,note_off,103,0,0,,12,,,47,127
35542,note_on,2,0,0,,1,,,49,127
35542,note_on,0,0,0,,12,,,83,127
35592,note_off,50,0,0,,12,,,83,127
35594,note_on,2,0,0,,10,,,81,127
35644,note_off,50,0,0,,10,,,81,127
35644,note_off,0,0,0,,1,,,49,127
35646,note_on,2,0,0,,2,,,50,127
35646,note_on,0,0,0,,12,,,83,127
35696,note_off,50,0,0,,12,,,83,127
35698,note_on,2,0,0,,10,,,81,127
35748,note_off,50,0,0,,10,,,81,127
35748,note_off,0,0,0,,2,,,50,127
35750,note_on,2,0,0,,4,,,52,127
35750,note_on,0,0,0,,12,,,83,127
35800,note_off,50,0,0,,12,,,83,127
35802,note_on,2,0,0,,10,,,81,127
35852,note_off,50,0,0,,4,,,52,127
35854,note_on,2,0,0,,6,,,54,127
35957,note_off,103,0,0,,6,,,54,127
35959,note_on,2,0,0,,7,,,55,127
36062,note_off,103,0,0,,7,,,55,127
36064,note_on,2,0,0,,10,,,57,127
36116,note_off,52,0,0,,10,,,81,127
36166,note_off,50,0,0,,10,,,57,127
36168,note_on,2,0,0,,12,,,59,127
36168,note_on,0,0,0,,12,,,83,127
36218,note_off,50,0,0,,12,,,83,127
36220,note_on,2,0,0,,10,,,81,127
36270,note_off,50,0,0,,10,,,81,127
36270,note_off,0,0,0,,12,,,59,127
36272,note_on,2,0,0,,1,,,61,127
36272,note_on,0,0,0,,12,,,83,127
36322,note_off,50,0,0,,12,,,83,127
36324,note_on,2,0,0,,10,,,81,127
36374,note_off,50,0,0,,10,,,81,127
36374,note_off,0,0,0,,1,,,61,127
36376,note_on,2,0,0,,2,,,62,127
36376,note_on,0,0,0,,12,,,83,127
36426,note_off,50,0,0,,12,,,83,127
36428,note_on,2,0,0,,10,,,81,127
36478,note_off,50,0,0,,2,,,62,127
36480,note_on,2,0,0,,4,,,64,127
36583,note_off,103,0,0,,4,,,64,127
36585,note_on,2,0,0,,6,,,66,127
36667,note_off,82,0,0,,10,,,81,127
36690,note_on,23,0,0,,10,,,81,127
36793,note_off,103,0,0,,6,,,66,127
36795,note_on,2,0,0,,4,,,64,127
36898,note_off,103,0,0,,10,,,81,127
36900,note_on,2,0,0,,7,,,79,127
37003,note_off,103,0,0,,4,,,64,127
37005,note_on,2,0,0,,2,,,62,127
37108,note_off,103,0,0,,7,,,79,127
37110,note_on,2,0,0,,6,,,78,127
37213,note_off,103,0,0,,6,,,78,127
37213,note_off,0,0,0,,2,,,62,127
37215,note_on,2,0,0,,10,,,57,127
37215,note_on,0,0,0,,6,,,78,127
37632,note_off,417,0,0,,6,,,78,127
37634,note_on,2,0,0,,4,,,76,127
37841,note_off,207,0,0,,4,,,76,127
37841,note_off,0,0,0,,10,,,57,127
37843,note_on,2,0,0,,10,,,45,127
37946,note_off,103,0,0,,10,,,45,127
37948,note_on,2,0,0,,12,,,47,127
38051,note_off,103,0,0,,12,,,47,127
38053,note_on,2,0,0,,1,,,49,127
38053,note_on,0,0,0,,12,,,83,127
38103,note_off,50,0,0,,12,,,83,127
38105,note_on,2,0,0,,10,,,81,127
38155,note_off,50,0,0,,10,,,81,127
38155,note_off,0,0,0,,1,,,49,127
38157,note_on,2,0,0,,2,,,50,127
38157,note_on,0,0,0,,12,,,83,127
38207,note_off,50,0,0,,12,,,83,127
38209,note_on,2,0,0,,10,,,81,127
38259,note_off,50,0,0,,10,,,81,127
38259,note_off,0,0,0,,2,,,50,127
38261,note_on,2,0,0,,4,,,52,127
38261,note_on,0,0,0,,12,,,83,127
38311,note_off,50,0,0,,12,,,83,127
38313,note_on,2,0,0,,10,,,81,127
38363,note_off,50,0,0,,4,,,52,127
38365,note_on,2,0,0,,6,,,54,127
38468,note_off,103,0,0,,6,,,54,127
38470,note_on,2,0,0,,7,,,55,127
38573,note_off,103,0,0,,7,,,55,127
38575,note_on,2,0,0,,10,,,57,127
38627,note_off,52,0,0,,10,,,81,127
38677,note_off,50,0,0,,10,,,57,127
38679,note_on,2,0,0,,12,,,59,127
38679,note_on,0,0,0,,12,,,83,127
38729,note_off,50,0,0,,12,,,83,127
38731,note_on,2,0,0,,10,,,81,127
38781,note_off,50,0,0,,10,,,81,127
38781,note_off,0,0,0,,12,,,59,127
38783,note_on,2,0,0,,1,,,61,127
38783,note_on,0,0,0,,12,,,83,127
38833,note_off,50,0,0,,12,,,83,127
38835,note_on,2,0,0,,10,,,81,127
38885,note_off,50,0,0,,10,,,81,127
38885,note_off,0,0,0,,1,,,61,127
38887,note_on,2,0,0,,2,,,62,127
38887,note_on,0,0,0,,12,,,83,127
38937,note_off,50,0,0,,12,,,83,127
38939,note_on,2,0,0,,10,,,81,127
38989,note_off,50,0,0,,2,,,62,127
38991,note_on,2,0,0,,4,,,64,127
39094,note_off,103,0,0,,4,,,64,127
39096,note_on,2,0,0,,6,,,66,127
39179,note_off,83,0,0,,10,,,81,127
39201,note_on,22,0,0,,10,,,81,127
39304,note_off,103,0,0,,6,,,66,127
39306,note_on,2,0,0,,4,,,64,127
39409,note_off,103,0,0,,10,,,81,127
39411,note_on,2,0,0,,7,,,79,127
39514,note_off,103,0,0,,4,,,64,127
39516,note_on,2,0,0,,2,,,62,127
39619,note_off,103,0,0,,7,,,79,127
39621,note_on,2,0,0,,6,,,78,127
39724,note_off,103,0,0,,6,,,78,127
39724,note_off,0,0,0,,2,,,62,127
39726,note_on,2,0,0,,10,,,57,127
39726,note_on,0,0,0,,6,,,78,127
40143,note_off,417,0,0,,6,,,78,127
40145,note_on,2,0,0,,4,,,76,127
40341,note_off,196,0,0,,4,,,76,127
40352,note_off,11,0,0,,10,,,57,127
40354,note_on,2,0,0,,10,,,45,127
40354,note_on,0,0,0,,10,,,57,127
40354,note_on,0,0,0,,4,,,52,127
40354,note_on,0,0,0,,1,,,85,127
40459,note_on,105,0,0,,4,,,76,127
40562,note_off,103,0,0,,4,,,76,127
40564,note_on,2,0,0,,6,,,78,127
40667,note_off,103,0,0,,1,,,85,127
40669,note_on,2,0,0,,2,,,86,127
40772,note_off,103,0,0,,6,,,78,127
40774,note_on,2,0,0,,4,,,76,127
40877,note_off,103,0,0,,2,,,86,127
40879,note_on,2,0,0,,1,,,85,127
40982,note_off,103,0,0,,1,,,85,127
40982,note_off,0,0,0,,4,,,76,127
40982,note_off,0,0,0,,4,,,52,127
40982,note_off,0,0,0,,10,,,57,127
40982,note_off,0,0,0,,10,,,45,127
40984,note_on,2,0,0,,10,,,57,127
40984,note_on,0,0,0,,6,,,54,127
40984,note_on,0,0,0,,2,,,50,127
40984,note_on,0,0,0,,2,,,86,127
41089,note_on,105,0,0,,6,,,78,127
41192,note_off,103,0,0,,6,,,78,127
41194,note_on,2,0,0,,4,,,76,127
41297,note_off,103,0,0,,2,,,86,127
41299,note_on,2,0,0,,1,,,85,127
41402,note_off,103,0,0,,1,,,85,127
41402,note_off,0,0,0,,4,,,76,127
41404,note_on,2,0,0,,1,,,85,127
41507,note_off,103,0,0,,1,,,85,127
41509,note_on,2,0,0,,2,,,86,127
41612,note_off,103,0,0,,2,,,86,127
41612,note_off,0,0,0,,2,,,50,127
41612,note_off,0,0,0,,6,,,54,127
41612,note_off,0,0,0,,10,,,57,127
41614,note_on,2,0,0,,10,,,45,127
41614,note_on,0,0,0,,10,,,57,127
41614,note_on,0,0,0,,4,,,52,127
41614,note_on,0,0,0,,1,,,73,127
41719,note_on,105,0,0,,4,,,64,127
41822,note_off,103,0,0,,4,,,64,127
41824,note_on,2,0,0,,6,,,66,127
41927,note_off,103,0,0,,1,,,73,127
41929,note_on,2,0,0,,2,,,74,127
42032,note_off,103,0,0,,6,,,66,127
42034,note_on,2,0,0,,4,,,64,127
42137,note_off,103,0,0,,2,,,74,127
42139,note_on,2,0,0,,1,,,73,127
42242,note_off,103,0,0,,1,,,73,127
42242,note_off,0,0,0,,4,,,64,127
42242,note_off,0,0,0,,4,,,52,127
42242,note_off,0,0,0,,10,,,57,127
42242,note_off,0,0,0,,10,,,45,127
42244,note_on,2,0,0,,2,,,50,127
42244,note_on,0,0,0,,10,,,57,127
42244,note_on,0,0,0,,6,,,54,127
42244,note_on,0,0,0,,2,,,74,127
42349,note_on,105,0,0,,6,,,66,127
42452,note_off,103,0,0,,6,,,66,127
42454,note_on,2,0,0,,4,,,64,127
42557,note_off,103,0,0,,2,,,74,127
42559,note_on,2,0,0,,1,,,73,127
42662,note_off,103,0,0,,1,,,73,127
42662,note_off,0,0,0,,4,,,64,127
42664,note_on,2,0,0,,1,,,73,127
42767,note_off,103,0,0,,1,,,73,127
42769,note_on,2,0,0,,2,,,74,127
42872,note_off,103,0,0,,2,,,74,127
42872,note_off,0,0,0,,6,,,54,127
42872,note_off,0,0,0,,10,,,57,127
42872,note_off,0,0,0,,2,,,50,127
42874,note_on,2,0,0,,1,,,61,127
42874,note_on,0,0,0,,4,,,76,127
42979,note_on,105,0,0,,4,,,52,127
43082,note_off,103,0,0,,4,,,52,127
43082,note_off,0,0,0,,4,,,76,127
43082,note_off,0,0,0,,1,,,61,127
43084,note_on,2,0,0,,6,,,54,127
43084,note_on,0,0,0,,6,,,78,127
43189,note_on,105,0,0,,2,,,62,127
43241,note_off,52,0,0,,6,,,54,127
43291,note_off,50,0,0,,6,,,78,127
43293,note_on,2,0,0,,4,,,52,127
43293,note_on,0,0,0,,7,,,79,127
43345,note_off,52,0,0,,2,,,62,127
43397,note_on,52,0,0,,1,,,61,127
43449,note_off,52,0,0,,4,,,52,127
43499,note_off,50,0,0,,7,,,79,127
43501,note_on,2,0,0,,2,,,50,127
43501,note_on,0,0,0,,10,,,81,127
43553,note_off,52,0,0,,1,,,61,127
43605,note_on,52,0,0,,2,,,62,127
43657,note_off,52,0,0,,2,,,50,127
43707,note_off,50,0,0,,10,,,81,127
43709,note_on,2,0,0,,4,,,52,127
43709,note_on,0,0,0,,7,,,79,127
43761,note_off,52,0,0,,2,,,62,127
43813,note_on,52,0,0,,1,,,61,127
43865,note_off,52,0,0,,4,,,52,127
43915,note_off,50,0,0,,7,,,79,127
43917,note_on,2,0,0,,2,,,50,127
43917,note_on,0,0,0,,6,,,78,127
43969,note_off,52,0,0,,1,,,61,127
44021,note_on,52,0,0,,2,,,62,127
44073,note_off,52,0,0,,2,,,50,127
44123,note_off,50,0,0,,2,,,62,127
44123,note_off,0,0,0,,6,,,78,127
44125,note_on,2,0,0,,7,,,55,127
44125,note_on,0,0,0,,4,,,76,127
44228,note_off,103,0,0,,4,,,76,127
44230,note_on,2,0,0,,7,,,79,127
44333,note_off,103,0,0,,7,,,79,127
44333,note_off,0,0,0,,7,,,55,127
44335,note_on,2,0,0,,10,,,57,127
44335,note_on,0,0,0,,6,,,78,127
44438,note_off,103,0,0,,6,,,78,127
44440,note_on,2,0,0,,4,,,76,127
44543,note_off,103,0,0,,4,,,76,127
44545,note_on,2,0,0,,10,,,45,127
44545,note_on,0,0,0,,2,,,74,127
44648,note_off,103,0,0,,2,,,74,127
44650,note_on,2,0,0,,1,,,73,127
44750,note_off,100,0,0,,10,,,57,127
44752,note_off,2,0,0,,1,,,73,127
44752,note_off,0,0,0,,10,,,45,127
44754,note_on,2,0,0,,2,,,50,127
44754,note_on,0,0,0,,6,,,78,127
44859,note_on,105,0,0,,10,,,69,127
44962,note_off,103,0,0,,10,,,69,127
44962,note_off,0,0,0,,2,,,50,127
44964,note_on,2,0,0,,4,,,52,127
44964,note_on,0,0,0,,7,,,67,127
45067,note_off,103,0,0,,6,,,78,127
45069,note_on,2,0,0,,4,,,76,127
45172,note_off,103,0,0,,4,,,76,127
45172,note_off,0,0,0,,4,,,52,127
45174,note_on,2,0,0,,6,,,54,127
45174,note_on,0,0,0,,2,,,74,127
45277,note_off,103,0,0,,7,,,67,127
45279,note_on,2,0,0,,6,,,66,127
45382,note_off,103,0,0,,6,,,66,127
45382,note_off,0,0,0,,6,,,54,127
45384,note_on,2,0,0,,7,,,55,127
45384,note_on,0,0,0,,7,,,67,127
45487,note_off,103,0,0,,2,,,74,127
45489,note_on,2,0,0,,4,,,76,127
45592,note_off,103,0,0,,4,,,76,127
45592,note_off,0,0,0,,7,,,55,127
45594,note_on,2,0,0,,10,,,57,127
45594,note_on,0,0,0,,2,,,74,127
45697,note_off,103,0,0,,7,,,67,127
45699,note_on,2,0,0,,6,,,66,127
45802,note_off,103,0,0,,6,,,66,127
45804,note_on,2,0,0,,10,,,45,127
45804,note_on,0,0,0,,4,,,64,127
45907,note_off,103,0,0,,2,,,74,127
45909,note_on,2,0,0,,1,,,73,127
46009,note_off,100,0,0,,10,,,57,127
46011,note_off,2,0,0,,1,,,73,127
46011,note_off,0,0,0,,4,,,64,127
46011,note_off,0,0,0,,10,,,45,127
46013,note_on,2,0,0,,2,,,50,127
46013,note_on,0,0,0,,6,,,78,127
46118,note_on,105,0,0,,10,,,69,127
46221,note_off,103,0,0,,10,,,69,127
46221,note_off,0,0,0,,2,,,50,127
46223,note_on,2,0,0,,4,,,52,127
46223,note_on,0,0,0,,7,,,67,127
46326,note_off,103,0,0,,6,,,78,127
46328,note_on,2,0,0,,4,,,76,127
46431,note_off,103,0,0,,4,,,76,127
46431,note_off,0,0,0,,4,,,52,127
46433,note_on,2,0,0,,6,,,54,127
46433,note_on,0,0,0,,2,,,74,127
46536,note_off,103,0,0,,7,,,67,127
46538,note_on,2,0,0,,6,,,66,127
46641,note_off,103,0,0,,6,,,66,127
46641,note_off,0,0,0,,6,,,54,127
46643,note_on,2,0,0,,7,,,55,127
46643,note_on,0,0,0,,7,,,67,127
46746,note_off,103,0,0,,2,,,74,127
46748,note_on,2,0,0,,4,,,76,127
46851,note_off,103,0,0,,4,,,76,127
46851,note_off,0,0,0,,7,,,55,127
46853,note_on,2,0,0,,10,,,57,127
46853,note_on,0,0,0,,2,,,74,127
46956,note_off,103,0,0,,7,,,67,127
46958,note_on,2,0,0,,6,,,66,127
47061,note_off,103,0,0,,6,,,66,127
47063,note_on,2,0,0,,10,,,45,127
47063,note_on,0,0,0,,4,,,64,127
47166,note_off,103,0,0,,2,,,74,127
47168,note_off,2,0,0,,10,,,57,127
47168,note_on,0,0,0,,1,,,73,127
47271,note_off,103,0,0,,1,,,73,127
47271,note_off,0,0,0,,4,,,64,127
47271,note_off,0,0,0,,10,,,45,127
47273,note_on,2,0,0,,2,,,38,127
47273,note_on,0,0,0,,2,,,50,127
47273,note_on,0,0,0,,1,,,73,127
47480,note_off,207,0,0,,1,,,73,127
47482,note_on,2,0,0,,2,,,74,127
47689,note_off,207,0,0,,2,,,74,127
47898,note_off,209,0,0,,2,,,50,127
47898,note_off,0,0,0,,2,,,38,127
47900,note_on,2,0,0,,2,,,38,127
47900,note_on,0,0,0,,2,,,50,127
47900,note_on,0,0,0,,2,,,74,127
48317,note_off,417,0,0,,2,,,74,127
48319,note_on,2,0,0,,2,,,74,127
48526,note_off,207,0,0,,2,,,74,127
48526,note_off,0,0,0,,2,,,50,127
48526,note_off,0,0,0,,2,,,38,127
48528,note_on,2,0,0,,2,,,62,127
48528,note_on,0,0,0,,7,,,67,127
48528,note_on,0,0,0,,4,,,76,127
48596,note_off,68,0,0,,4,,,76,127
48598,note_on,2,0,0,,2,,,74,127
48666,note_off,68,0,0,,2,,,74,127
48668,note_on,2,0,0,,4,,,76,127
48736,note_off,68,0,0,,4,,,76,127
48738,note_on,2,0,0,,2,,,74,127
48841,note_off,103,0,0,,2,,,74,127
48843,note_on,2,0,0,,0,,,72,127
48946,note_off,103,0,0,,0,,,72,127
48946,note_off,0,0,0,,7,,,67,127
48946,note_off,0,0,0,,2,,,62,127
48948,note_on,2,0,0,,7,,,67,127
48948,note_on,0,0,0,,2,,,62,127
48948,note_on,0,0,0,,12,,,71,127
48948,note_on,0,0,0,,2,,,74,127
49155,note_off,207,0,0,,2,,,74,127
49155,note_off,0,0,0,,12,,,71,127
49155,note_off,0,0,0,,2,,,62,127
49155,note_off,0,0,0,,7,,,67,127
49157,note_on,2,0,0,,7,,,67,127
49157,note_on,0,0,0,,2,,,62,127
49157,note_on,0,0,0,,12,,,71,127
49157,note_on,0,0,0,,2,,,74,127
49225,note_off,68,0,0,,2,,,74,127
49227,note_on,2,0,0,,0,,,72,127
49295,note_off,68,0,0,,0,,,72,127
49297,note_on,2,0,0,,2,,,74,127
49365,note_off,68,0,0,,2,,,74,127
49367,note_on,2,0,0,,0,,,72,127
49463,note_off,96,0,0,,12,,,71,127
49470,note_off,7,0,0,,0,,,72,127
49472,note_on,2,0,0,,12,,,71,127
49575,note_off,103,0,0,,12,,,71,127
49575,note_off,0,0,0,,2,,,62,127
49575,note_off,0,0,0,,7,,,67,127
49577,note_on,2,0,0,,6,,,66,127
49577,note_on,0,0,0,,10,,,69,127
49577,note_on,0,0,0,,2,,,62,127
49577,note_on,0,0,0,,0,,,72,127
49784,note_off,207,0,0,,0,,,72,127
49784,note_off,0,0,0,,2,,,62,127
49784,note_off,0,0,0,,10,,,69,127
49784,note_off,0,0,0,,6,,,66,127
49786,note_on,2,0,0,,7,,,67,127
49786,note_on,0,0,0,,2,,,62,127
49786,note_on,0,0,0,,0,,,72,127
49854,note_off,68,0,0,,0,,,72,127
49856,note_on,2,0,0,,12,,,71,127
49924,note_off,68,0,0,,12,,,71,127
49926,note_on,2,0,0,,0,,,72,127
49994,note_off,68,0,0,,0,,,72,127
49996,note_on,2,0,0,,12,,,71,127
50099,note_off,103,0,0,,12,,,71,127
50101,note_on,2,0,0,,10,,,69,127
50204,note_off,103,0,0,,10,,,69,127
50204,note_off,0,0,0,,2,,,62,127
50204,note_off,0,0,0,,7,,,67,127
50206,note_on,2,0,0,,7,,,67,127
50206,note_on,0,0,0,,2,,,62,127
50206,note_on,0,0,0,,12,,,71,127
50413,note_off,207,0,0,,12,,,71,127
50413,note_off,0,0,0,,2,,,62,127
50413,note_off,0,0,0,,7,,,67,127
50415,note_on,2,0,0,,6,,,66,127
50415,note_on,0,0,0,,2,,,62,127
50415,note_on,0,0,0,,10,,,69,127
50415,note_on,0,0,0,,0,,,72,127
50764,note_off,349,0,0,,0,,,72,127
50786,note_off,22,0,0,,10,,,69,127
50832,note_off,46,0,0,,2,,,62,127
50832,note_off,0,0,0,,6,,,66,127
50834,note_on,2,0,0,,2,,,62,127
50834,note_on,0,0,0,,7,,,67,127
50834,note_on,0,0,0,,12,,,71,127
51041,note_off,207,0,0,,12,,,71,127
51041,note_off,0,0,0,,7,,,67,127
51041,note_off,0,0,0,,2,,,62,127
51043,note_on,2,0,0,,6,,,66,127
51043,note_on,0,0,0,,2,,,62,127
51043,note_on,0,0,0,,12,,,71,127
51043,note_on,0,0,0,,4,,,76,127
51111,note_off,68,0,0,,4,,,76,127
51113,note_on,2,0,0,,2,,,74,127
51181,note_off,68,0,0,,2,,,74,127
51183,note_on,2,0,0,,4,,,76,127
51251,note_off,68,0,0,,4,,,76,127
51253,note_on,2,0,0,,2,,,74,127
51356,note_off,103,0,0,,2,,,74,127
51358,note_on,2,0,0,,1,,,73,127
51461,note_off,103,0,0,,1,,,73,127
51461,note_off,0,0,0,,12,,,71,127
51461,note_off,0,0,0,,2,,,62,127
51461,note_off,0,0,0,,6,,,66,127
51463,note_on,2,0,0,,6,,,66,127
51463,note_on,0,0,0,,12,,,71,127
51463,note_on,0,0,0,,2,,,62,127
51463,note_on,0,0,0,,2,,,74,127
51659,note_off,196,0,0,,2,,,74,127
51659,note_off,0,0,0,,12,,,71,127
51670,note_off,11,0,0,,2,,,62,127
51670,note_off,0,0,0,,6,,,66,127
51672,note_on,2,0,0,,1,,,61,127
51672,note_on,0,0,0,,7,,,67,127
51672,note_on,0,0,0,,10,,,69,127
51672,note_on,0,0,0,,6,,,78,127
52089,note_off,417,0,0,,6,,,78,127
52089,note_off,0,0,0,,10,,,69,127
52089,note_off,0,0,0,,7,,,67,127
52089,note_off,0,0,0,,1,,,61,127
52091,note_on,2,0,0,,1,,,61,127
52091,note_on,0,0,0,,10,,,69,127
52091,note_on,0,0,0,,7,,,67,127
52091,note_on,0,0,0,,4,,,76,127
52298,note_off,207,0,0,,4,,,76,127
52298,note_off,0,0,0,,7,,,67,127
52298,note_off,0,0,0,,10,,,69,127
52298,note_off,0,0,0,,1,,,61,127
52300,note_on,2,0,0,,2,,,62,127
52300,note_on,0,0,0,,12,,,71,127
52300,note_on,0,0,0,,6,,,66,127
52300,note_on,0,0,0,,4,,,76,127
52368,note_off,68,0,0,,4,,,76,127
52370,note_on,2,0,0,,2,,,74,127
52438,note_off,68,0,0,,2,,,74,127
52440,note_on,2,0,0,,4,,,76,127
52508,note_off,68,0,0,,4,,,76,127
52510,note_on,2,0,0,,2,,,74,127
52613,note_off,103,0,0,,2,,,74,127
52615,note_on,2,0,0,,1,,,73,127
52718,note_off,103,0,0,,1,,,73,127
52718,note_off,0,0,0,,6,,,66,127
52718,note_off,0,0,0,,12,,,71,127
52718,note_off,0,0,0,,2,,,62,127
52720,note_on,2,0,0,,2,,,62,127
52720,note_on,0,0,0,,12,,,71,127
52720,note_on,0,0,0,,6,,,66,127
52720,note_on,0,0,0,,2,,,74,127
52916,note_off,196,0,0,,2,,,74,127
52916,note_off,0,0,0,,12,,,71,127
52927,note_off,11,0,0,,6,,,66,127
52927,note_off,0,0,0,,2,,,62,127
52929,note_on,2,0,0,,7,,,67,127
52929,note_on,0,0,0,,1,,,61,127
52929,note_on,0,0,0,,10,,,69,127
52929,note_on,0,0,0,,6,,,78,127
53346,note_off,417,0,0,,6,,,78,127
53346,note_off,0,0,0,,10,,,69,127
53346,note_off,0,0,0,,1,,,61,127
53346,note_off,0,0,0,,7,,,67,127
53348,note_on,2,0,0,,1,,,61,127
53348,note_on,0,0,0,,7,,,67,127
53348,note_on,0,0,0,,10,,,69,127
53348,note_on,0,0,0,,4,,,76,127
53555,note_off,207,0,0,,4,,,76,127
53555,note_off,0,0,0,,10,,,69,127
53555,note_off,0,0,0,,7,,,67,127
53555,note_off,0,0,0,,1,,,61,127
53557,note_on,2,0,0,,12,,,59,127
53557,note_on,0,0,0,,4,,,64,127
53557,note_on,0,0,0,,12,,,71,127
53557,note_on,0,0,0,,7,,,67,127
53557,note_on,0,0,0,,4,,,76,127
53625,note_off,68,0,0,,4,,,76,127
53627,note_on,2,0,0,,2,,,74,127
53695,note_off,68,0,0,,2,,,74,127
53697,note_on,2,0,0,,4,,,76,127
53765,note_off,68,0,0,,4,,,76,127
53767,note_on,2,0,0,,2,,,74,127
53870,note_off,103,0,0,,2,,,74,127
53872,note_on,2,0,0,,1,,,73,127
53975,note_off,103,0,0,,1,,,73,127
53975,note_off,0,0,0,,7,,,67,127
53975,note_off,0,0,0,,12,,,71,127
53975,note_off,0,0,0,,4,,,64,127
53975,note_off,0,0,0,,12,,,59,127
53977,note_on,2,0,0,,4,,,64,127
53977,note_on,0,0,0,,12,,,59,127
53977,note_on,0,0,0,,12,,,71,127
53977,note_on,0,0,0,,7,,,67,127
53977,note_on,0,0,0,,2,,,74,127
54152,note_off,175,0,0,,2,,,74,127
54179,note_off,27,0,0,,12,,,71,127
54184,note_off,5,0,0,,7,,,67,127
54184,note_off,0,0,0,,12,,,59,127
54184,note_off,0,0,0,,4,,,64,127
54186,note_on,2,0,0,,11,,,58,127
54186,note_on,0,0,0,,6,,,66,127
54186,note_on,0,0,0,,4,,,64,127
54186,note_on,0,0,0,,6,,,78,127
54603,note_off,417,0,0,,6,,,78,127
54603,note_off,0,0,0,,4,,,64,127
54603,note_off,0,0,0,,6,,,66,127
54603,note_off,0,0,0,,11,,,58,127
54605,note_on,2,0,0,,6,,,66,127
54605,note_on,0,0,0,,4,,,64,127
54605,note_on,0,0,0,,11,,,58,127
54605,note_on,0,0,0,,4,,,76,127
54812,note_off,207,0,0,,4,,,76,127
54812,note_off,0,0,0,,11,,,58,127
54812,note_off,0,0,0,,4,,,64,127
54812,note_off,0,0,0,,6,,,66,127
54814,note_on,2,0,0,,12,,,59,127
54814,note_on,0,0,0,,4,,,64,127
54814,note_on,0,0,0,,12,,,71,127
54814,note_on,0,0,0,,7,,,67,127
54814,note_on,0,0,0,,4,,,76,127
54882,note_off,68,0,0,,4,,,76,127
54884,note_on,2,0,0,,2,,,74,127
54952,note_off,68,0,0,,2,,,74,127
54954,note_on,2,0,0,,4,,,76,127
55022,note_off,68,0,0,,4,,,76,127
55024,note_on,2,0,0,,2,,,74,127
55127,note_off,103,0,0,,2,,,74,127
55129,note_on,2,0,0,,1,,,73,127
55232,note_off,103,0,0,,1,,,73,127
55232,note_off,0,0,0,,7,,,67,127
55232,note_off,0,0,0,,12,,,71,127
55232,note_off,0,0,0,,4,,,64,127
55232,note_off,0,0,0,,12,,,59,127
55234,note_on,2,0,0,,4,,,64,127
55234,note_on,0,0,0,,12,,,59,127
55234,note_on,0,0,0,,7,,,67,127
55234,note_on,0,0,0,,12,,,71,127
55234,note_on,0,0,0,,2,,,74,127
55409,note_off,175,0,0,,2,,,74,127
55436,note_off,27,0,0,,12,,,71,127
55441,note_off,5,0,0,,7,,,67,127
55441,note_off,0,0,0,,12,,,59,127
55441,note_off,0,0,0,,4,,,64,127
55443,note_on,2,0,0,,11,,,58,127
55443,note_on,0,0,0,,4,,,64,127
55443,note_on,0,0,0,,6,,,66,127
55443,note_on,0,0,0,,6,,,78,127
55860,note_off,417,0,0,,6,,,78,127
55860,note_off,0,0,0,,6,,,66,127
55860,note_off,0,0,0,,4,,,64,127
55860,note_off,0,0,0,,11,,,58,127
55862,note_on,2,0,0,,11,,,58,127
55862,note_on,0,0,0,,6,,,66,127
55862,note_on,0,0,0,,4,,,64,127
55862,note_on,0,0,0,,4,,,76,127
56069,note_off,207,0,0,,4,,,76,127
56069,note_off,0,0,0,,4,,,64,127
56069,note_off,0,0,0,,6,,,66,127
56069,note_off,0,0,0,,11,,,58,127
56071,note_on,2,0,0,,7,,,67,127
56071,note_on,0,0,0,,2,,,62,127
56071,note_on,0,0,0,,11,,,58,127
56071,note_on,0,0,0,,4,,,76,127
56139,note_off,68,0,0,,4,,,76,127
56141,note_on,2,0,0,,2,,,74,127
56209,note_off,68,0,0,,2,,,74,127
56211,note_on,2,0,0,,4,,,76,127
56279,note_off,68,0,0,,4,,,76,127
56281,note_on,2,0,0,,2,,,74,127
56384,note_off,103,0,0,,2,,,74,127
56386,note_on,2,0,0,,1,,,73,127
56489,note_off,103,0,0,,1,,,73,127
56489,note_off,0,0,0,,11,,,58,127
56489,note_off,0,0,0,,2,,,62,127
56489,note_off,0,0,0,,7,,,67,127
56491,note_on,2,0,0,,11,,,58,127
56491,note_on,0,0,0,,2,,,62,127
56491,note_on,0,0,0,,7,,,67,127
56491,note_on,0,0,0,,2,,,74,127
56682,note_off,191,0,0,,2,,,74,127
56693,note_off,11,0,0,,7,,,67,127
56693,note_off,0,0,0,,2,,,62,127
56693,note_off,0,0,0,,11,,,58,127
56701,note_on,8,0,0,,10,,,57,127
56701,note_on,0,0,0,,10,,,69,127
56701,note_on,0,0,0,,5,,,65,127
56701,note_on,0,0,0,,5,,,77,127
57118,note_off,417,0,0,,5,,,77,127
57118,note_off,0,0,0,,5,,,65,127
57118,note_off,0,0,0,,10,,,69,127
57118,note_off,0,0,0,,10,,,57,127
57120,note_on,2,0,0,,5,,,65,127
57120,note_on,0,0,0,,10,,,57,127
57120,note_on,0,0,0,,10,,,69,127
57120,note_on,0,0,0,,4,,,76,127
57327,note_off,207,0,0,,4,,,76,127
57327,note_off,0,0,0,,10,,,69,127
57327,note_off,0,0,0,,10,,,57,127
57327,note_off,0,0,0,,5,,,65,127
57329,note_on,2,0,0,,2,,,62,127
57329,note_on,0,0,0,,11,,,58,127
57329,note_on,0,0,0,,7,,,67,127
57329,note_on,0,0,0,,4,,,76,127
57397,note_off,68,0,0,,4,,,76,127
57399,note_on,2,0,0,,2,,,74,127
57467,note_off,68,0,0,,2,,,74,127
57469,note_on,2,0,0,,4,,,76,127
57537,note_off,68,0,0,,4,,,76,127
57539,note_on,2,0,0,,2,,,74,127
57642,note_off,103,0,0,,2,,,74,127
57644,note_on,2,0,0,,1,,,73,127
57747,note_off,103,0,0,,1,,,73,127
57747,note_off,0,0,0,,7,,,67,127
57747,note_off,0,0,0,,11,,,58,127
57747,note_off,0,0,0,,2,,,62,127
57749,note_on,2,0,0,,11,,,58,127
57749,note_on,0,0,0,,2,,,62,127
57749,note_on,0,0,0,,7,,,67,127
57749,note_on,0,0,0,,2,,,74,127
57940,note_off,191,0,0,,2,,,74,127
57951,note_off,11,0,0,,7,,,67,127
57951,note_off,0,0,0,,2,,,62,127
57951,note_off,0,0,0,,11,,,58,127
57959,note_on,8,0,0,,5,,,65,127
57959,note_on,0,0,0,,10,,,57,127
57959,note_on,0,0,0,,10,,,69,127
57959,note_on,0,0,0,,5,,,77,127
58376,note_off,417,0,0,,5,,,77,127
58376,note_off,0,0,0,,10,,,69,127
58376,note_off,0,0,0,,10,,,57,127
58376,note_off,0,0,0,,5,,,65,127
58378,note_on,2,0,0,,10,,,69,127
58378,note_on,0,0,0,,5,,,65,127
58378,note_on,0,0,0,,10,,,57,127
58378,note_on,0,0,0,,4,,,76,127
58585,note_off,207,0,0,,4,,,76,127
58585,note_off,0,0,0,,10,,,57,127
58585,note_off,0,0,0,,5,,,65,127
58585,note_off,0,0,0,,10,,,69,127
58587,note_on,2,0,0,,2,,,62,127
58587,note_on,0,0,0,,10,,,57,127
58587,note_on,0,0,0,,10,,,69,127
58587,note_on,0,0,0,,5,,,65,127
58587,note_on,0,0,0,,4,,,76,127
58655,note_off,68,0,0,,4,,,76,127
58657,note_on,2,0,0,,2,,,74,127
58725,note_off,68,0,0,,2,,,74,127
58727,note_on,2,0,0,,4,,,76,127
58795,note_off,68,0,0,,4,,,76,127
58797,note_on,2,0,0,,2,,,74,127
58900,note_off,103,0,0,,2,,,74,127
58902,note_on,2,0,0,,1,,,73,127
59005,note_off,103,0,0,,1,,,73,127
59005,note_off,0,0,0,,5,,,65,127
59005,note_off,0,0,0,,10,,,69,127
59005,note_off,0,0,0,,10,,,57,127
59005,note_off,0,0,0,,2,,,62,127
59007,note_on,2,0,0,,2,,,62,127
59007,note_on,0,0,0,,10,,,57,127
59007,note_on,0,0,0,,10,,,69,127
59007,note_on,0,0,0,,5,,,65,127
59007,note_on,0,0,0,,2,,,74,127
59192,note_off,185,0,0,,10,,,57,127
59203,note_off,11,0,0,,5,,,65,127
59203,note_off,0,0,0,,10,,,69,127
59214,note_off,11,0,0,,2,,,74,127
59214,note_off,0,0,0,,2,,,62,127
59216,note_on,2,0,0,,8,,,56,127
59216,note_on,0,0,0,,2,,,62,127
59216,note_on,0,0,0,,4,,,64,127
59216,note_on,0,0,0,,5,,,77,127
59633,note_off,417,0,0,,5,,,77,127
59633,note_off,0,0,0,,4,,,64,127
59633,note_off,0,0,0,,2,,,62,127
59633,note_off,0,0,0,,8,,,56,127
59635,note_on,2,0,0,,8,,,56,127
59635,note_on,0,0,0,,4,,,64,127
59635,note_on,0,0,0,,2,,,62,127
59635,note_on,0,0,0,,4,,,76,127
59842,note_off,207,0,0,,4,,,76,127
59842,note_off,0,0,0,,2,,,62,127
59842,note_off,0,0,0,,4,,,64,127
59842,note_off,0,0,0,,8,,,56,127
59844,note_on,2,0,0,,10,,,57,127
59844,note_on,0,0,0,,5,,,65,127
59844,note_on,0,0,0,,2,,,62,127
59844,note_on,0,0,0,,4,,,76,127
59912,note_off,68,0,0,,4,,,76,127
59914,note_on,2,0,0,,2,,,74,127
59982,note_off,68,0,0,,2,,,74,127
59984,note_on,2,0,0,,4,,,76,127
60052,note_off,68,0,0,,4,,,76,127
60054,note_on,2,0,0,,2,,,74,127
60157,note_off,103,0,0,,2,,,74,127
60159,note_on,2,0,0,,1,,,73,127
60262,note_off,103,0,0,,1,,,73,127
60262,note_off,0,0,0,,2,,,62,127
60262,note_off,0,0,0,,5,,,65,127
60262,note_off,0,0,0,,10,,,57,127
60264,note_on,2,0,0,,10,,,57,127
60264,note_on,0,0,0,,5,,,65,127
60264,note_on,0,0,0,,2,,,62,127
60264,note_on,0,0,0,,2,,,74,127
60449,note_off,185,0,0,,10,,,57,127
60460,note_off,11,0,0,,5,,,65,127
60471,note_off,11,0,0,,2,,,74,127
60471,note_off,0,0,0,,2,,,62,127
60473,note_on,2,0,0,,8,,,56,127
60473,note_on,0,0,0,,2,,,62,127
60473,note_on,0,0,0,,4,,,64,127
60473,note_on,0,0,0,,5,,,77,127
60890,note_off,417,0,0,,5,,,77,127
60890,note_off,0,0,0,,4,,,64,127
60890,note_off,0,0,0,,2,,,62,127
60890,note_off,0,0,0,,8,,,56,127
60892,note_on,2,0,0,,8,,,56,127
60892,note_on,0,0,0,,4,,,64,127
60892,note_on,0,0,0,,2,,,62,127
60892,note_on,0,0,0,,4,,,76,127
61099,note_off,207,0,0,,4,,,76,127
61099,note_off,0,0,0,,2,,,62,127
61099,note_off,0,0,0,,4,,,64,127
61099,note_off,0,0,0,,8,,,56,127
61101,note_on,2,0,0,,7,,,55,127
61101,note_on,0,0,0,,5,,,65,127
61101,note_on,0,0,0,,2,,,62,127
61101,note_on,0,0,0,,0,,,60,127
61101,note_on,0,0,0,,4,,,76,127
61169,note_off,68,0,0,,4,,,76,127
61171,note_on,2,0,0,,2,,,74,127
61239,note_off,68,0,0,,2,,,74,127
61241,note_on,2,0,0,,4,,,76,127
61309,note_off,68,0,0,,4,,,76,127
61311,note_on,2,0,0,,2,,,74,127
61414,note_off,103,0,0,,2,,,74,127
61416,note_on,2,0,0,,0,,,72,127
61519,note_off,103,0,0,,0,,,72,127
61519,note_off,0,0,0,,0,,,60,127
61519,note_off,0,0,0,,2,,,62,127
61519,note_off,0,0,0,,5,,,65,127
61519,note_off,0,0,0,,7,,,55,127
61521,note_on,2,0,0,,7,,,55,127
61521,note_on,0,0,0,,2,,,62,127
61521,note_on,0,0,0,,0,,,60,127
61521,note_on,0,0,0,,5,,,65,127
61521,note_on,0,0,0,,2,,,74,127
61706,note_off,185,0,0,,5,,,65,127
61706,note_off,0,0,0,,2,,,62,127
61706,note_off,0,0,0,,7,,,55,127
61711,note_off,5,0,0,,2,,,74,127
61727,note_off,16,0,0,,0,,,60,127
61729,note_on,2,0,0,,0,,,60,127
61729,note_on,0,0,0,,4,,,64,127
61729,note_on,0,0,0,,7,,,55,127
61729,note_on,0,0,0,,5,,,77,127
62146,note_off,417,0,0,,5,,,77,127
62146,note_off,0,0,0,,7,,,55,127
62146,note_off,0,0,0,,4,,,64,127
62146,note_off,0,0,0,,0,,,60,127
62148,note_on,2,0,0,,0,,,60,127
62148,note_on,0,0,0,,7,,,55,127
62148,note_on,0,0,0,,4,,,64,127
62148,note_on,0,0,0,,4,,,76,127
62355,note_off,207,0,0,,4,,,76,127
62355,note_off,0,0,0,,4,,,64,127
62355,note_off,0,0,0,,7,,,55,127
62355,note_off,0,0,0,,0,,,60,127
62357,note_on,2,0,0,,7,,,55,127
62357,note_on,0,0,0,,2,,,62,127
62357,note_on,0,0,0,,0,,,60,127
62357,note_on,0,0,0,,5,,,65,127
62357,note_on,0,0,0,,4,,,76,127
62425,note_off,68,0,0,,4,,,76,127
62427,note_on,2,0,0,,2,,,74,127
62495,note_off,68,0,0,,2,,,74,127
62497,note_on,2,0,0,,4,,,76,127
62565,note_off,68,0,0,,4,,,76,127
62567,note_on,2,0,0,,2,,,74,127
62670,note_off,103,0,0,,2,,,74,127
62672,note_on,2,0,0,,0,,,72,127
62775,note_off,103,0,0,,0,,,72,127
62775,note_off,0,0,0,,5,,,65,127
62775,note_off,0,0,0,,0,,,60,127
62775,note_off,0,0,0,,2,,,62,127
62775,note_off,0,0,0,,7,,,55,127
62777,note_on,2,0,0,,7,,,55,127
62777,note_on,0,0,0,,2,,,62,127
62777,note_on,0,0,0,,0,,,60,127
62777,note_on,0,0,0,,5,,,65,127
62777,note_on,0,0,0,,2,,,74,127
62957,note_off,180,0,0,,5,,,65,127
62957,note_off,0,0,0,,2,,,62,127
62957,note_off,0,0,0,,7,,,55,127
62968,note_off,11,0,0,,2,,,74,127
62984,note_off,16,0,0,,0,,,60,127
62986,note_on,2,0,0,,0,,,48,127
62986,note_on,0,0,0,,5,,,77,127
63403,note_off,417,0,0,,5,,,77,127
63405,note_on,2,0,0,,4,,,76,127
63562,note_off,157,0,0,,4,,,76,127
63612,note_off,50,0,0,,0,,,48,127
63614,note_on,2,0,0,,10,,,57,127
63614,note_on,0,0,0,,0,,,48,127
63614,note_on,0,0,0,,10,,,81,127
63614,note_on,0,0,0,,7,,,79,127
63682,note_off,68,0,0,,7,,,79,127
63684,note_on,2,0,0,,6,,,78,127
63752,note_off,68,0,0,,6,,,78,127
63754,note_on,2,0,0,,7,,,79,127
63822,note_off,68,0,0,,7,,,79,127
63824,note_on,2,0,0,,6,,,78,127
63927,note_off,103,0,0,,6,,,78,127
63929,note_on,2,0,0,,4,,,76,127
64029,note_off,100,0,0,,10,,,81,127
64031,note_off,2,0,0,,4,,,76,127
64031,note_off,0,0,0,,0,,,48,127
64031,note_off,0,0,0,,10,,,57,127
64033,note_on,2,0,0,,10,,,57,127
64033,note_on,0,0,0,,0,,,48,127
64033,note_on,0,0,0,,10,,,81,127
64033,note_on,0,0,0,,6,,,78,127
64240,note_off,207,0,0,,6,,,78,127
64240,note_off,0,0,0,,10,,,81,127
64240,note_off,0,0,0,,0,,,48,127
64240,note_off,0,0,0,,10,,,57,127
64242,note_on,2,0,0,,7,,,55,127
64242,note_on,0,0,0,,12,,,47,127
64242,note_on,0,0,0,,7,,,79,127
64242,note_on,0,0,0,,0,,,84,127
64310,note_off,68,0,0,,0,,,84,127
64312,note_on,2,0,0,,12,,,83,127
64380,note_off,68,0,0,,12,,,83,127
64382,note_on,2,0,0,,0,,,84,127
64450,note_off,68,0,0,,0,,,84,127
64452,note_on,2,0,0,,12,,,83,127
64548,note_off,96,0,0,,7,,,79,127
64555,note_off,7,0,0,,12,,,83,127
64557,note_on,2,0,0,,10,,,81,127
64557,note_on,0,0,0,,6,,,78,127
64660,note_off,103,0,0,,6,,,78,127
64660,note_off,0,0,0,,10,,,81,127
64660,note_off,0,0,0,,12,,,47,127
64660,note_off,0,0,0,,7,,,55,127
64662,note_on,2,0,0,,7,,,55,127
64662,note_on,0,0,0,,12,,,47,127
64662,note_on,0,0,0,,12,,,83,127
64662,note_on,0,0,0,,7,,,79,127
64869,note_off,207,0,0,,7,,,79,127
64869,note_off,0,0,0,,12,,,83,127
64869,note_off,0,0,0,,12,,,47,127
64869,note_off,0,0,0,,7,,,55,127
64871,note_on,2,0,0,,10,,,45,127
64871,note_on,0,0,0,,6,,,54,127
64871,note_on,0,0,0,,10,,,81,127
64871,note_on,0,0,0,,2,,,86,127
64939,note_off,68,0,0,,2,,,86,127
64941,note_on,2,0,0,,0,,,84,127
65009,note_off,68,0,0,,0,,,84,127
65011,note_on,2,0,0,,2,,,86,127
65079,note_off,68,0,0,,2,,,86,127
65081,note_on,2,0,0,,0,,,84,127
65177,note_off,96,0,0,,10,,,81,127
65184,note_off,7,0,0,,0,,,84,127
65186,note_on,2,0,0,,12,,,83,127
65186,note_on,0,0,0,,7,,,79,127
65289,note_off,103,0,0,,7,,,79,127
65289,note_off,0,0,0,,12,,,83,127
65289,note_off,0,0,0,,6,,,54,127
65289,note_off,0,0,0,,10,,,45,127
65291,note_on,2,0,0,,6,,,54,127
65291,note_on,0,0,0,,10,,,45,127
65291,note_on,0,0,0,,0,,,84,127
65291,note_on,0,0,0,,10,,,81,127
65498,note_off,207,0,0,,10,,,81,127
65498,note_off,0,0,0,,0,,,84,127
65498,note_off,0,0,0,,10,,,45,127
65498,note_off,0,0,0,,6,,,54,127
65500,note_on,2,0,0,,7,,,55,127
65500,note_on,0,0,0,,7,,,43,127
65500,note_on,0,0,0,,12,,,83,127
65500,note_on,0,0,0,,2,,,86,127
65917,note_off,417,0,0,,2,,,86,127
65917,note_off,0,0,0,,12,,,83,127
65917,note_off,0,0,0,,7,,,43,127
65917,note_off,0,0,0,,7,,,55,127
65919,note_on,2,0,0,,7,,,55,127
65919,note_on,0,0,0,,7,,,43,127
65919,note_on,0,0,0,,12,,,83,127
65919,note_on,0,0,0,,7,,,79,127
66126,note_off,207,0,0,,7,,,79,127
66126,note_off,0,0,0,,12,,,83,127
66126,note_off,0,0,0,,7,,,43,127
66126,note_off,0,0,0,,7,,,55,127
66128,note_on,2,0,0,,7,,,55,127
66128,note_on,0,0,0,,12,,,47,127
66128,note_on,0,0,0,,12,,,83,127
66128,note_on,0,0,0,,7,,,79,127
66440,note_off,312,0,0,,12,,,83,127
66442,note_on,2,0,0,,0,,,84,127
66542,note_off,100,0,0,,7,,,79,127
66544,note_off,2,0,0,,0,,,84,127
66544,note_off,0,0,0,,12,,,47,127
66544,note_off,0,0,0,,7,,,55,127
66546,note_on,2,0,0,,7,,,55,127
66546,note_on,0,0,0,,12,,,47,127
66546,note_on,0,0,0,,2,,,86,127
66546,note_on,0,0,0,,2,,,74,127
66753,note_off,207,0,0,,2,,,74,127
66753,note_off,0,0,0,,12,,,47,127
66753,note_off,0,0,0,,7,,,55,127
66755,note_on,2,0,0,,0,,,48,127
66755,note_on,0,0,0,,4,,,76,127
67067,note_off,312,0,0,,4,,,76,127
67069,note_off,2,0,0,,2,,,86,127
67069,note_on,0,0,0,,0,,,84,127
67069,note_on,0,0,0,,6,,,78,127
67172,note_off,103,0,0,,6,,,78,127
67172,note_off,0,0,0,,0,,,84,127
67172,note_off,0,0,0,,0,,,48,127
67174,note_on,2,0,0,,0,,,48,127
67174,note_on,0,0,0,,12,,,83,127
67174,note_on,0,0,0,,7,,,79,127
67381,note_off,207,0,0,,7,,,79,127
67381,note_off,0,0,0,,12,,,83,127
67381,note_off,0,0,0,,0,,,48,127
67383,note_on,2,0,0,,4,,,52,127
67383,note_on,0,0,0,,12,,,83,127
67383,note_on,0,0,0,,7,,,79,127
67695,note_off,312,0,0,,7,,,79,127
67695,note_off,0,0,0,,12,,,83,127
67697,note_on,2,0,0,,10,,,81,127
67697,note_on,0,0,0,,6,,,78,127
67800,note_off,103,0,0,,6,,,78,127
67800,note_off,0,0,0,,10,,,81,127
67800,note_off,0,0,0,,4,,,52,127
67802,note_on,2,0,0,,4,,,52,127
67802,note_on,0,0,0,,4,,,76,127
67802,note_on,0,0,0,,7,,,79,127
68009,note_off,207,0,0,,7,,,79,127
68009,note_off,0,0,0,,4,,,76,127
68009,note_off,0,0,0,,4,,,52,127
68011,note_on,2,0,0,,2,,,50,127
68011,note_on,0,0,0,,7,,,79,127
68011,note_on,0,0,0,,4,,,76,127
68218,note_off,207,0,0,,4,,,76,127
68218,note_off,0,0,0,,7,,,79,127
68220,note_on,2,0,0,,6,,,78,127
68220,note_on,0,0,0,,10,,,81,127
68427,note_off,207,0,0,,2,,,50,127
68429,note_on,2,0,0,,2,,,50,127
68636,note_off,207,0,0,,10,,,81,127
68636,note_off,0,0,0,,6,,,78,127
68638,note_on,2,0,0,,7,,,79,127
68743,note_off,105,0,0,,2,,,50,127
68848,note_on,105,0,0,,12,,,47,127
69055,note_off,207,0,0,,7,,,79,127
69057,note_on,2,0,0,,12,,,83,127
69057,note_on,0,0,0,,2,,,74,127
69264,note_off,207,0,0,,2,,,74,127
69264,note_off,0,0,0,,12,,,83,127
69266,note_on,2,0,0,,12,,,71,127
69266,note_on,0,0,0,,7,,,79,127
69371,note_off,105,0,0,,12,,,47,127
69476,note_on,105,0,0,,0,,,48,127
69683,note_off,207,0,0,,7,,,79,127
69683,note_off,0,0,0,,12,,,71,127
69685,note_on,2,0,0,,2,,,74,127
69685,note_on,0,0,0,,12,,,83,127
69892,note_off,207,0,0,,12,,,83,127
69892,note_off,0,0,0,,2,,,74,127
69894,note_on,2,0,0,,12,,,71,127
69894,note_on,0,0,0,,7,,,79,127
69999,note_off,105,0,0,,0,,,48,127
70104,note_on,105,0,0,,2,,,50,127
70311,note_off,207,0,0,,7,,,79,127
70311,note_off,0,0,0,,12,,,71,127
70313,note_on,2,0,0,,2,,,74,127
70313,note_on,0,0,0,,12,,,83,127
70520,note_off,207,0,0,,12,,,83,127
70520,note_off,0,0,0,,2,,,74,127
70522,note_on,2,0,0,,12,,,71,127
70522,note_on,0,0,0,,7,,,79,127
70627,note_off,105,0,0,,2,,,50,127
70732,note_on,105,0,0,,4,,,52,127
70939,note_off,207,0,0,,7,,,79,127
70939,note_off,0,0,0,,12,,,71,127
70941,note_on,2,0,0,,2,,,74,127
70941,note_on,0,0,0,,12,,,83,127
71148,note_off,207,0,0,,12,,,83,127
71148,note_off,0,0,0,,2,,,74,127
71150,note_on,2,0,0,,7,,,79,127
71150,note_on,0,0,0,,12,,,71,127
71255,note_off,105,0,0,,4,,,52,127
71360,note_on,105,0,0,,12,,,47,127
71567,note_off,207,0,0,,12,,,71,127
71567,note_off,0,0,0,,7,,,79,127
71569,note_on,2,0,0,,2,,,74,127
71569,note_on,0,0,0,,2,,,86,127
71776,note_off,207,0,0,,2,,,74,127
71776,note_off,0,0,0,,12,,,47,127
71778,note_on,2,0,0,,0,,,48,127
71778,note_on,0,0,0,,4,,,76,127
72090,note_off,312,0,0,,4,,,76,127
72092,note_off,2,0,0,,2,,,86,127
72092,note_on,0,0,0,,0,,,84,127
72092,note_on,0,0,0,,6,,,78,127
72195,note_off,103,0,0,,6,,,78,127
72195,note_off,0,0,0,,0,,,84,127
72195,note_off,0,0,0,,0,,,48,127
72197,note_on,2,0,0,,4,,,52,127
72197,note_on,0,0,0,,7,,,79,127
72197,note_on,0,0,0,,12,,,83,127
72404,note_off,207,0,0,,12,,,83,127
72404,note_off,0,0,0,,7,,,79,127
72404,note_off,0,0,0,,4,,,52,127
72406,note_on,2,0,0,,2,,,50,127
72406,note_on,0,0,0,,12,,,83,127
72406,note_on,0,0,0,,7,,,79,127
72718,note_off,312,0,0,,7,,,79,127
72718,note_off,0,0,0,,12,,,83,127
72720,note_on,2,0,0,,0,,,84,127
72720,note_on,0,0,0,,10,,,81,127
72823,note_off,103,0,0,,10,,,81,127
72823,note_off,0,0,0,,0,,,84,127
72825,note_on,2,0,0,,2,,,38,127
72825,note_on,0,0,0,,10,,,81,127
72825,note_on,0,0,0,,6,,,78,127
73028,note_off,203,0,0,,2,,,50,127
73032,note_off,4,0,0,,6,,,78,127
73032,note_off,0,0,0,,10,,,81,127
73032,note_off,0,0,0,,2,,,38,127
73034,note_on,2,0,0,,7,,,43,127
73034,note_on,0,0,0,,7,,,55,127
73034,note_on,0,0,0,,10,,,81,127
73451,note_off,417,0,0,,10,,,81,127
73453,note_on,2,0,0,,7,,,79,127
73610,note_off,157,0,0,,7,,,79,127
73660,note_off,50,0,0,,7,,,55,127
73660,note_off,0,0,0,,7,,,43,127
73662,note_on,2,0,0,,12,,,47,127
73662,note_on,0,0,0,,7,,,79,127
74079,note_off,417,0,0,,7,,,79,127
74081,note_on,2,0,0,,12,,,83,127
74081,note_on,0,0,0,,2,,,74,127
74288,note_off,207,0,0,,2,,,74,127
74288,note_off,0,0,0,,12,,,83,127
74288,note_off,0,0,0,,12,,,47,127
74290,note_on,2,0,0,,0,,,48,127
74290,note_on,0,0,0,,10,,,81,127
74290,note_on,0,0,0,,7,,,79,127
74290,note_on,0,0,0,,12,,,71,127
74707,note_off,417,0,0,,12,,,71,127
74707,note_off,0,0,0,,7,,,79,127
74707,note_off,0,0,0,,10,,,81,127
74709,note_on,2,0,0,,2,,,74,127
74709,note_on,0,0,0,,12,,,83,127
74916,note_off,207,0,0,,12,,,83,127
74916,note_off,0,0,0,,2,,,74,127
74916,note_off,0,0,0,,0,,,48,127
74918,note_on,2,0,0,,2,,,50,127
74918,note_on,0,0,0,,7,,,79,127
74918,note_on,0,0,0,,10,,,81,127
74918,note_on,0,0,0,,12,,,71,127
75335,note_off,417,0,0,,12,,,71,127
75335,note_off,0,0,0,,10,,,81,127
75335,note_off,0,0,0,,7,,,79,127
75337,note_on,2,0,0,,12,,,83,127
75337,note_on,0,0,0,,2,,,74,127
75544,note_off,207,0,0,,2,,,74,127
75544,note_off,0,0,0,,12,,,83,127
75544,note_off,0,0,0,,2,,,50,127
75546,note_on,2,0,0,,4,,,52,127
75546,note_on,0,0,0,,12,,,71,127
75546,note_on,0,0,0,,10,,,81,127
75546,note_on,0,0,0,,7,,,79,127
75963,note_off,417,0,0,,7,,,79,127
75963,note_off,0,0,0,,10,,,81,127
75963,note_off,0,0,0,,12,,,71,127
75965,note_on,2,0,0,,12,,,83,127
75965,note_on,0,0,0,,2,,,74,127
76172,note_off,207,0,0,,2,,,74,127
76172,note_off,0,0,0,,12,,,83,127
76172,note_off,0,0,0,,4,,,52,127
76174,note_on,2,0,0,,12,,,47,127
76174,note_on,0,0,0,,7,,,79,127
76174,note_on,0,0,0,,12,,,71,127
76174,note_on,0,0,0,,10,,,81,127
76591,note_off,417,0,0,,10,,,81,127
76591,note_off,0,0,0,,12,,,71,127
76591,note_off,0,0,0,,7,,,79,127
76593,note_on,2,0,0,,2,,,74,127
76593,note_on,0,0,0,,2,,,86,127
76800,note_off,207,0,0,,12,,,47,127
76802,note_on,2,0,0,,0,,,48,127
77009,note_off,207,0,0,,2,,,86,127
77009,note_off,0,0,0,,2,,,74,127
77011,note_on,2,0,0,,0,,,84,127
77114,note_off,103,0,0,,0,,,84,127
77116,note_on,2,0,0,,12,,,83,127
77219,note_off,103,0,0,,12,,,83,127
77219,note_off,0,0,0,,0,,,48,127
77221,note_on,2,0,0,,4,,,52,127
77221,note_on,0,0,0,,10,,,81,127
77324,note_off,103,0,0,,10,,,81,127
77326,note_on,2,0,0,,7,,,79,127
77429,note_off,103,0,0,,7,,,79,127
77429,note_off,0,0,0,,4,,,52,127
77431,note_on,2,0,0,,2,,,50,127
77431,note_on,0,0,0,,12,,,83,127
77499,note_off,68,0,0,,12,,,83,127
77501,note_on,2,0,0,,10,,,81,127
77569,note_off,68,0,0,,10,,,81,127
77571,note_on,2,0,0,,12,,,83,127
77639,note_off,68,0,0,,12,,,83,127
77641,note_on,2,0,0,,10,,,81,127
77709,note_off,68,0,0,,10,,,81,127
77711,note_on,2,0,0,,12,,,83,127
77779,note_off,68,0,0,,12,,,83,127
77781,note_on,2,0,0,,10,,,81,127
77849,note_off,68,0,0,,10,,,81,127
77851,note_on,2,0,0,,2,,,38,127
77851,note_on,0,0,0,,7,,,79,127
77954,note_off,103,0,0,,7,,,79,127
77956,note_on,2,0,0,,10,,,81,127
78059,note_off,103,0,0,,10,,,81,127
78059,note_off,0,0,0,,2,,,38,127
78060,note_off,1,0,0,,2,,,50,127
78061,note_on,1,0,0,,7,,,43,127
78061,note_on,0,0,0,,7,,,55,127
78061,note_on,0,0,0,,12,,,83,127
78164,note_off,103,0,0,,12,,,83,127
78166,note_on,2,0,0,,2,,,86,127
78269,note_off,103,0,0,,2,,,86,127
78271,note_on,2,0,0,,7,,,79,127
78374,note_off,103,0,0,,7,,,79,127
78376,note_on,2,0,0,,12,,,83,127
78479,note_off,103,0,0,,12,,,83,127
78481,note_on,2,0,0,,4,,,76,127
78584,note_off,103,0,0,,4,,,76,127
78586,note_on,2,0,0,,7,,,79,127
78689,note_off,103,0,0,,7,,,79,127
78689,note_off,0,0,0,,7,,,55,127
78689,note_off,0,0,0,,7,,,43,127
78691,note_on,2,0,0,,0,,,48,127
78691,note_on,0,0,0,,7,,,55,127
78691,note_on,0,0,0,,0,,,72,127
78794,note_off,103,0,0,,0,,,72,127
78796,note_on,2,0,0,,4,,,76,127
78899,note_off,103,0,0,,4,,,76,127
78901,note_on,2,0,0,,10,,,69,127
79004,note_off,103,0,0,,10,,,69,127
79006,note_on,2,0,0,,0,,,72,127
79109,note_off,103,0,0,,0,,,72,127
79111,note_on,2,0,0,,6,,,66,127
79214,note_off,103,0,0,,6,,,66,127
79216,note_on,2,0,0,,10,,,69,127
79319,note_off,103,0,0,,10,,,69,127
79319,note_off,0,0,0,,7,,,55,127
79319,note_off,0,0,0,,0,,,48,127
79321,note_on,2,0,0,,2,,,50,127
79321,note_on,0,0,0,,2,,,62,127
79424,note_off,103,0,0,,2,,,62,127
79426,note_on,2,0,0,,4,,,76,127
79529,note_off,103,0,0,,4,,,76,127
79531,note_on,2,0,0,,2,,,74,127
79634,note_off,103,0,0,,2,,,74,127
79636,note_on,2,0,0,,0,,,72,127
79739,note_off,103,0,0,,0,,,72,127
79741,note_on,2,0,0,,12,,,71,127
79844,note_off,103,0,0,,12,,,71,127
79846,note_on,2,0,0,,10,,,69,127
79949,note_off,103,0,0,,10,,,69,127
79949,note_off,0,0,0,,2,,,50,127
79951,note_on,2,0,0,,7,,,43,127
79951,note_on,0,0,0,,0,,,72,127
80019,note_off,68,0,0,,0,,,72,127
80021,note_on,2,0,0,,12,,,71,127
80089,note_off,68,0,0,,12,,,71,127
80091,note_on,2,0,0,,0,,,72,127
80159,note_off,68,0,0,,0,,,72,127
80161,note_on,2,0,0,,12,,,71,127
80264,note_off,103,0,0,,12,,,71,127
80266,note_on,2,0,0,,10,,,69,127
80369,note_off,103,0,0,,10,,,69,127
80371,note_on,2,0,0,,12,,,71,127
80578,note_off,207,0,0,,12,,,71,127
80578,note_off,0,0,0,,7,,,43,127
80580,note_on,2,0,0,,12,,,47,127
80580,note_on,0,0,0,,7,,,55,127
80580,note_on,0,0,0,,12,,,83,127
80683,note_off,103,0,0,,12,,,83,127
80685,note_on,2,0,0,,2,,,86,127
80788,note_off,103,0,0,,2,,,86,127
80790,note_on,2,0,0,,7,,,79,127
80893,note_off,103,0,0,,7,,,79,127
80895,note_on,2,0,0,,12,,,83,127
80998,note_off,103,0,0,,12,,,83,127
81000,note_on,2,0,0,,4,,,76,127
81103,note_off,103,0,0,,4,,,76,127
81105,note_on,2,0,0,,7,,,79,127
81208,note_off,103,0,0,,7,,,79,127
81208,note_off,0,0,0,,7,,,55,127
81208,note_off,0,0,0,,12,,,47,127
81210,note_on,2,0,0,,0,,,48,127
81210,note_on,0,0,0,,7,,,55,127
81210,note_on,0,0,0,,0,,,72,127
81313,note_off,103,0,0,,0,,,72,127
81315,note_on,2,0,0,,4,,,76,127
81418,note_off,103,0,0,,4,,,76,127
81420,note_on,2,0,0,,10,,,69,127
81523,note_off,103,0,0,,10,,,69,127
81525,note_on,2,0,0,,0,,,72,127
81628,note_off,103,0,0,,0,,,72,127
81630,note_on,2,0,0,,6,,,66,127
81733,note_off,103,0,0,,6,,,66,127
81735,note_on,2,0,0,,10,,,69,127
81838,note_off,103,0,0,,10,,,69,127
81838,note_off,0,0,0,,7,,,55,127
81838,note_off,0,0,0,,0,,,48,127
81840,note_on,2,0,0,,2,,,50,127
81840,note_on,0,0,0,,2,,,38,127
81840,note_on,0,0,0,,2,,,62,127
81943,note_off,103,0,0,,2,,,62,127
81945,note_on,2,0,0,,4,,,76,127
82048,note_off,103,0,0,,4,,,76,127
82050,note_on,2,0,0,,2,,,74,127
82153,note_off,103,0,0,,2,,,74,127
82155,note_on,2,0,0,,0,,,72,127
82258,note_off,103,0,0,,0,,,72,127
82260,note_on,2,0,0,,12,,,71,127
82363,note_off,103,0,0,,12,,,71,127
82365,note_on,2,0,0,,10,,,69,127
82468,note_off,103,0,0,,10,,,69,127
82468,note_off,0,0,0,,2,,,38,127
82468,note_off,0,0,0,,2,,,50,127
82470,note_on,2,0,0,,7,,,43,127
82470,note_on,0,0,0,,10,,,69,127
82538,note_off,68,0,0,,10,,,69,127
82540,note_on,2,0,0,,7,,,67,127
82608,note_off,68,0,0,,7,,,67,127
82610,note_on,2,0,0,,10,,,69,127
82678,note_off,68,0,0,,10,,,69,127
82680,note_on,2,0,0,,7,,,67,127
83095,note_off,415,0,0,,7,,,67,127
83097,note_off,2,0,0,,7,,,43,127
83099,note_on,2,0,0,,2,,,62,127
83202,note_off,103,0,0,,2,,,62,127
83204,note_on,2,0,0,,7,,,67,127
83307,note_off,103,0,0,,7,,,67,127
83309,note_on,2,0,0,,12,,,59,127
83412,note_off,103,0,0,,12,,,59,127
83414,note_on,2,0,0,,2,,,62,127
83517,note_off,103,0,0,,2,,,62,127
83519,note_on,2,0,0,,7,,,55,127
83519,note_on,0,0,0,,7,,,79,127
83622,note_off,103,0,0,,7,,,55,127
83624,note_on,2,0,0,,12,,,59,127
83727,note_off,103,0,0,,12,,,59,127
83729,note_on,2,0,0,,0,,,36,127
83832,note_off,103,0,0,,7,,,79,127
83834,note_on,2,0,0,,6,,,78,127
83937,note_off,103,0,0,,6,,,78,127
83939,note_on,2,0,0,,4,,,76,127
84042,note_off,103,0,0,,4,,,76,127
84044,note_on,2,0,0,,2,,,74,127
84147,note_off,103,0,0,,2,,,74,127
84149,note_on,2,0,0,,0,,,72,127
84252,note_off,103,0,0,,0,,,72,127
84254,note_on,2,0,0,,12,,,71,127
84357,note_off,103,0,0,,12,,,71,127
84357,note_off,0,0,0,,0,,,36,127
84359,note_on,2,0,0,,2,,,38,127
84359,note_on,0,0,0,,10,,,69,127
84462,note_off,103,0,0,,10,,,69,127
84464,note_on,2,0,0,,7,,,67,127
84567,note_off,103,0,0,,7,,,67,127
84569,note_on,2,0,0,,6,,,66,127
84672,note_off,103,0,0,,6,,,66,127
84674,note_on,2,0,0,,4,,,64,127
84777,note_off,103,0,0,,4,,,64,127
84779,note_on,2,0,0,,2,,,62,127
84882,note_off,103,0,0,,2,,,62,127
84884,note_on,2,0,0,,0,,,72,127
84987,note_off,103,0,0,,0,,,72,127
84987,note_off,0,0,0,,2,,,38,127
84989,note_on,2,0,0,,7,,,43,127
84989,note_on,0,0,0,,12,,,71,127
85092,note_off,103,0,0,,12,,,71,127
85094,note_on,2,0,0,,7,,,67,127
85197,note_off,103,0,0,,7,,,67,127
85199,note_on,2,0,0,,12,,,71,127
85302,note_off,103,0,0,,12,,,71,127
85304,note_on,2,0,0,,2,,,74,127
85407,note_off,103,0,0,,2,,,74,127
85409,note_on,2,0,0,,7,,,79,127
85616,note_off,207,0,0,,7,,,43,127
85618,note_on,2,0,0,,2,,,62,127
85721,note_off,103,0,0,,2,,,62,127
85723,note_on,2,0,0,,7,,,67,127
85823,note_off,100,0,0,,7,,,79,127
85825,note_off,2,0,0,,7,,,67,127
85827,note_on,2,0,0,,12,,,59,127
85930,note_off,103,0,0,,12,,,59,127
85932,note_on,2,0,0,,2,,,62,127
86035,note_off,103,0,0,,2,,,62,127
86037,note_on,2,0,0,,7,,,55,127
86037,note_on,0,0,0,,7,,,79,127
86140,note_off,103,0,0,,7,,,55,127
86142,note_on,2,0,0,,12,,,59,127
86245,note_off,103,0,0,,12,,,59,127
86247,note_on,2,0,0,,0,,,36,127
86350,note_off,103,0,0,,7,,,79,127
86352,note_on,2,0,0,,6,,,78,127
86455,note_off,103,0,0,,6,,,78,127
86457,note_on,2,0,0,,4,,,76,127
86560,note_off,103,0,0,,4,,,76,127
86562,note_on,2,0,0,,2,,,74,127
86665,note_off,103,0,0,,2,,,74,127
86667,note_on,2,0,0,,0,,,72,127
86770,note_off,103,0,0,,0,,,72,127
86772,note_on,2,0,0,,12,,,71,127
86875,note_off,103,0,0,,12,,,71,127
86875,note_off,0,0,0,,0,,,36,127
86877,note_on,2,0,0,,2,,,38,127
86877,note_on,0,0,0,,10,,,69,127
86980,note_off,103,0,0,,10,,,69,127
86982,note_on,2,0,0,,7,,,67,127
87085,note_off,103,0,0,,7,,,67,127
87087,note_on,2,0,0,,6,,,66,127
87190,note_off,103,0,0,,6,,,66,127
87192,note_on,2,0,0,,4,,,64,127
87295,note_off,103,0,0,,4,,,64,127
87297,note_on,2,0,0,,2,,,62,127
87400,note_off,103,0,0,,2,,,62,127
87402,note_on,2,0,0,,6,,,66,127
87505,note_off,103,0,0,,6,,,66,127
87505,note_off,0,0,0,,2,,,38,127
87507,note_on,2,0,0,,7,,,43,127
87507,note_on,0,0,0,,7,,,67,127
87610,note_off,103,0,0,,7,,,67,127
87612,note_on,2,0,0,,10,,,69,127
87715,note_off,103,0,0,,10,,,69,127
87717,note_on,2,0,0,,12,,,71,127
87820,note_off,103,0,0,,12,,,71,127
87822,note_on,2,0,0,,0,,,72,127
87925,note_off,103,0,0,,0,,,72,127
87927,note_on,2,0,0,,2,,,74,127
88030,note_off,103,0,0,,2,,,74,127
88032,note_on,2,0,0,,4,,,76,127
88135,note_off,103,0,0,,4,,,76,127
88135,note_off,0,0,0,,7,,,43,127
88137,note_on,2,0,0,,2,,,50,127
88137,note_on,0,0,0,,2,,,38,127
88137,note_on,0,0,0,,6,,,78,127
88242,note_on,105,0,0,,6,,,66,127
88345,note_off,103,0,0,,6,,,66,127
88347,note_on,2,0,0,,7,,,67,127
88450,note_off,103,0,0,,6,,,78,127
88452,note_on,2,0,0,,7,,,79,127
88555,note_off,103,0,0,,7,,,67,127
88557,note_on,2,0,0,,10,,,69,127
88660,note_off,103,0,0,,7,,,79,127
88662,note_on,2,0,0,,6,,,78,127
88765,note_off,103,0,0,,6,,,78,127
88765,note_off,0,0,0,,2,,,38,127
88765,note_off,0,0,0,,2,,,50,127
88767,note_on,2,0,0,,7,,,43,127
88767,note_on,0,0,0,,7,,,55,127
88767,note_on,0,0,0,,7,,,79,127
88870,note_off,103,0,0,,10,,,69,127
88872,note_on,2,0,0,,7,,,67,127
88975,note_off,103,0,0,,7,,,67,127
88977,note_on,2,0,0,,6,,,66,127
89080,note_off,103,0,0,,7,,,79,127
89082,note_on,2,0,0,,6,,,78,127
89185,note_off,103,0,0,,6,,,78,127
89185,note_off,0,0,0,,6,,,66,127
89187,note_on,2,0,0,,6,,,78,127
89290,note_off,103,0,0,,6,,,78,127
89292,note_on,2,0,0,,7,,,79,127
89395,note_off,103,0,0,,7,,,79,127
89395,note_off,0,0,0,,7,,,55,127
89395,note_off,0,0,0,,7,,,43,127
89397,note_on,2,0,0,,2,,,38,127
89397,note_on,0,0,0,,2,,,50,127
89397,note_on,0,0,0,,6,,,66,127
89502,note_on,105,0,0,,6,,,54,127
89605,note_off,103,0,0,,6,,,54,127
89607,note_on,2,0,0,,7,,,55,127
89710,note_off,103,0,0,,6,,,66,127
89712,note_on,2,0,0,,7,,,67,127
89815,note_off,103,0,0,,7,,,55,127
89817,note_on,2,0,0,,10,,,57,127
89920,note_off,103,0,0,,7,,,67,127
89922,note_on,2,0,0,,6,,,66,127
90025,note_off,103,0,0,,6,,,66,127
90025,note_off,0,0,0,,2,,,50,127
90025,note_off,0,0,0,,2,,,38,127
90027,note_on,2,0,0,,7,,,43,127
90027,note_on,0,0,0,,7,,,67,127
90130,note_off,103,0,0,,10,,,57,127
90132,note_on,2,0,0,,7,,,55,127
90235,note_off,103,0,0,,7,,,55,127
90237,note_on,2,0,0,,6,,,54,127
90340,note_off,103,0,0,,7,,,67,127
90342,note_on,2,0,0,,6,,,66,127
90445,note_off,103,0,0,,6,,,66,127
90445,note_off,0,0,0,,6,,,54,127
90447,note_on,2,0,0,,6,,,66,127
90550,note_off,103,0,0,,6,,,66,127
90552,note_on,2,0,0,,7,,,67,127
90655,note_off,103,0,0,,7,,,67,127
90655,note_off,0,0,0,,7,,,43,127
90657,note_on,2,0,0,,6,,,54,127
90657,note_on,0,0,0,,10,,,69,127
90762,note_on,105,0,0,,10,,,45,127
90865,note_off,103,0,0,,10,,,45,127
90865,note_off,0,0,0,,10,,,69,127
90865,note_off,0,0,0,,6,,,54,127
90867,note_on,2,0,0,,12,,,47,127
90867,note_on,0,0,0,,12,,,71,127
90972,note_on,105,0,0,,7,,,55,127
91024,note_off,52,0,0,,12,,,47,127
91074,note_off,50,0,0,,12,,,71,127
91076,note_on,2,0,0,,10,,,45,127
91076,note_on,0,0,0,,0,,,72,127
91128,note_off,52,0,0,,7,,,55,127
91180,note_on,52,0,0,,6,,,54,127
91232,note_off,52,0,0,,10,,,45,127
91282,note_off,50,0,0,,0,,,72,127
91284,note_on,2,0,0,,12,,,47,127
91284,note_on,0,0,0,,2,,,74,127
91336,note_off,52,0,0,,6,,,54,127
91388,note_on,52,0,0,,7,,,55,127
91440,note_off,52,0,0,,12,,,47,127
91490,note_off,50,0,0,,2,,,74,127
91492,note_on,2,0,0,,10,,,45,127
91492,note_on,0,0,0,,0,,,72,127
91544,note_off,52,0,0,,7,,,55,127
91596,note_on,52,0,0,,6,,,54,127
91648,note_off,52,0,0,,10,,,45,127
91698,note_off,50,0,0,,0,,,72,127
91700,note_on,2,0,0,,7,,,43,127
91700,note_on,0,0,0,,12,,,71,127
91752,note_off,52,0,0,,6,,,54,127
91804,note_on,52,0,0,,7,,,55,127
91856,note_off,52,0,0,,7,,,43,127
91906,note_off,50,0,0,,7,,,55,127
91906,note_off,0,0,0,,12,,,71,127
91908,note_on,2,0,0,,0,,,48,127
91908,note_on,0,0,0,,10,,,69,127
92011,note_off,103,0,0,,10,,,69,127
92013,note_on,2,0,0,,0,,,72,127
92116,note_off,103,0,0,,0,,,72,127
92116,note_off,0,0,0,,0,,,48,127
92118,note_on,2,0,0,,2,,,50,127
92118,note_on,0,0,0,,12,,,71,127
92221,note_off,103,0,0,,12,,,71,127
92223,note_on,2,0,0,,10,,,69,127
92326,note_off,103,0,0,,10,,,69,127
92328,note_on,2,0,0,,2,,,38,127
92328,note_on,0,0,0,,7,,,67,127
92431,note_off,103,0,0,,7,,,67,127
92441,note_on,10,0,0,,6,,,66,127
92534,note_off,93,0,0,,2,,,50,127
92536,note_off,2,0,0,,2,,,38,127
92547,note_off,11,0,0,,6,,,66,127
92550,note_on,3,0,0,,7,,,55,127
92550,note_on,0,0,0,,12,,,83,127
92658,note_on,108,0,0,,2,,,74,127
92764,note_off,106,0,0,,2,,,74,127
92765,note_off,1,0,0,,7,,,55,127
92767,note_on,2,0,0,,10,,,57,127
92767,note_on,0,0,0,,0,,,72,127
92874,note_off,107,0,0,,12,,,83,127
92876,note_on,2,0,0,,10,,,81,127
92982,note_off,106,0,0,,10,,,81,127
92982,note_off,0,0,0,,10,,,57,127
92985,note_on,3,0,0,,12,,,59,127
92985,note_on,0,0,0,,7,,,79,127
93091,note_off,106,0,0,,0,,,72,127
93094,note_on,3,0,0,,12,,,71,127
93200,note_off,106,0,0,,12,,,71,127
93200,note_off,0,0,0,,12,,,59,127
93203,note_on,3,0,0,,0,,,60,127
93203,note_on,0,0,0,,0,,,72,127
93309,note_off,106,0,0,,7,,,79,127
93312,note_on,3,0,0,,10,,,81,127
93418,note_off,106,0,0,,10,,,81,127
93418,note_off,0,0,0,,0,,,60,127
93420,note_on,2,0,0,,2,,,62,127
93420,note_on,0,0,0,,7,,,79,127
93527,note_off,107,0,0,,0,,,72,127
93529,note_on,2,0,0,,12,,,71,127
93635,note_off,106,0,0,,12,,,71,127
93635,note_off,0,0,0,,2,,,62,127
93638,note_on,3,0,0,,2,,,50,127
93638,note_on,0,0,0,,10,,,69,127
93744,note_off,106,0,0,,7,,,79,127
93747,note_on,3,0,0,,6,,,78,127
93853,note_off,106,0,0,,6,,,78,127
93853,note_off,0,0,0,,10,,,69,127
93853,note_off,0,0,0,,2,,,50,127
93857,note_on,4,0,0,,12,,,83,127
93857,note_on,0,0,0,,7,,,43,127
93967,note_on,110,0,0,,2,,,74,127
94072,note_off,105,0,0,,7,,,43,127
94073,note_off,1,0,0,,2,,,74,127
94076,note_on,3,0,0,,0,,,72,127
94076,note_on,0,0,0,,10,,,45,127
94181,note_off,105,0,0,,12,,,83,127
94186,note_on,5,0,0,,10,,,81,127
94291,note_off,105,0,0,,10,,,45,127
94292,note_off,1,0,0,,10,,,81,127
94296,note_on,4,0,0,,7,,,79,127
94296,note_on,0,0,0,,12,,,47,127
94400,note_off,104,0,0,,0,,,72,127
94407,note_on,7,0,0,,12,,,71,127
94512,note_off,105,0,0,,12,,,47,127
94513,note_off,1,0,0,,12,,,71,127
94517,note_on,4,0,0,,0,,,72,127
94517,note_on,0,0,0,,0,,,48,127
94621,note_off,104,0,0,,7,,,79,127
94628,note_on,7,0,0,,10,,,81,127
94733,note_off,105,0,0,,0,,,48,127
94734,note_off,1,0,0,,10,,,81,127
94737,note_on,3,0,0,,7,,,79,127
94737,note_on,0,0,0,,2,,,50,127
94842,note_off,105,0,0,,0,,,72,127
94847,note_on,5,0,0,,12,,,71,127
94952,note_off,105,0,0,,2,,,50,127
94953,note_off,1,0,0,,12,,,71,127
94957,note_on,4,0,0,,10,,,69,127
94957,note_on,0,0,0,,2,,,38,127
95061,note_off,104,0,0,,7,,,79,127
95068,note_on,7,0,0,,6,,,78,127
95173,note_off,105,0,0,,2,,,38,127
95173,note_off,0,0,0,,10,,,69,127
95185,note_off,12,0,0,,6,,,78,127
95211,note_on,26,0,0,,7,,,79,127
95211,note_on,0,0,0,,7,,,67,127
95211,note_on,0,0,0,,7,,,43,127
95211,note_on,0,0,0,,7,,,55,127
97042,note_off,1831,0,0,,7,,,55,127
97042,note_off,0,0,0,,7,,,43,127
97042,note_off,0,0,0,,7,,,67,127
97042,note_off,0,0,0,,7,,,79,127
102912,end_of_track,5870,1,0,,,,,,
