tick,type,time,meta,track,program,channel,pitch,tempo,note,velocity
0,copyright,0,1,0,,,,,,
0,program_change,0,0,0,6,0,,,,
0,pitchwheel,0,0,0,,0,0,,,
0,program_change,0,0,0,6,1,,,,
0,pitchwheel,0,0,0,,1,-590,,,
0,program_change,0,0,0,6,2,,,,
0,pitchwheel,0,0,0,,2,-272,,,
0,program_change,0,0,0,6,3,,,,
0,pitchwheel,0,0,0,,3,-353,,,
0,program_change,0,0,0,6,4,,,,
0,pitchwheel,0,0,0,,4,-560,,,
0,program_change,0,0,0,6,5,,,,
0,pitchwheel,0,0,0,,5,-80,,,
0,program_change,0,0,0,6,6,,,,
0,pitchwheel,0,0,0,,6,-625,,,
0,program_change,0,0,0,6,7,,,,
0,pitchwheel,0,0,0,,7,-130,,,
0,program_change,0,0,0,6,8,,,,
0,pitchwheel,0,0,0,,8,-512,,,
0,program_change,0,0,0,6,10,,,,
0,pitchwheel,0,0,0,,10,-464,,,
0,program_change,0,0,0,6,11,,,,
0,pitchwheel,0,0,0,,11,-208,,,
0,program_change,0,0,0,6,12,,,,
0,pitchwheel,0,0,0,,12,-553,,,
0,set_tempo,0,1,0,,,,500000,,
318,note_on,318,0,0,,2,,,62,127
474,note_off,156,0,0,,2,,,62,127
477,note_on,3,0,0,,4,,,64,127
633,note_off,156,0,0,,4,,,64,127
636,note_on,3,0,0,,2,,,62,127
792,note_off,156,0,0,,2,,,62,127
795,note_on,3,0,0,,7,,,67,127
951,note_off,156,0,0,,7,,,67,127
954,note_on,3,0,0,,6,,,66,127
1110,note_off,156,0,0,,6,,,66,127
1113,note_on,3,0,0,,4,,,64,127
1269,note_off,156,0,0,,4,,,64,127
1272,note_on,3,0,0,,2,,,62,127
1431,note_on,159,0,0,,2,,,50,127
1587,note_off,156,0,0,,2,,,50,127
1587,note_off,0,0,0,,2,,,62,127
1590,note_on,3,0,0,,2,,,74,127
1590,note_on,0,0,0,,4,,,52,127
1746,note_off,156,0,0,,4,,,52,127
1746,note_off,0,0,0,,2,,,74,127
1749,note_on,3,0,0,,4,,,76,127
1749,note_on,0,0,0,,6,,,54,127
1905,note_off,156,0,0,,6,,,54,127
1905,note_off,0,0,0,,4,,,76,127
1908,note_on,3,0,0,,2,,,74,127
1908,note_on,0,0,0,,7,,,55,127
2064,note_off,156,0,0,,7,,,55,127
2064,note_off,0,0,0,,2,,,74,127
2067,note_on,3,0,0,,7,,,79,127
2067,note_on,0,0,0,,10,,,57,127
2223,note_off,156,0,0,,10,,,57,127
2223,note_off,0,0,0,,7,,,79,127
2226,note_on,3,0,0,,6,,,78,127
2226,note_on,0,0,0,,12,,,59,127
2382,note_off,156,0,0,,12,,,59,127
2382,note_off,0,0,0,,6,,,78,127
2385,note_on,3,0,0,,4,,,76,127
2385,note_on,0,0,0,,1,,,61,127
2541,note_off,156,0,0,,1,,,61,127
2541,note_off,0,0,0,,4,,,76,127
2544,note_on,3,0,0,,2,,,74,127
2544,note_on,0,0,0,,2,,,62,127
2700,note_off,156,0,0,,2,,,62,127
2703,note_on,3,0,0,,2,,,62,127
2859,note_off,156,0,0,,2,,,62,127
2859,note_off,0,0,0,,2,,,74,127
2862,note_on,3,0,0,,4,,,64,127
2862,note_on,0,0,0,,7,,,55,127
3018,note_off,156,0,0,,7,,,55,127
3018,note_off,0,0,0,,4,,,64,127
3021,note_on,3,0,0,,6,,,66,127
3021,note_on,0,0,0,,10,,,57,127
3177,note_off,156,0,0,,10,,,57,127
3177,note_off,0,0,0,,6,,,66,127
3180,note_on,3,0,0,,7,,,67,127
3180,note_on,0,0,0,,7,,,55,127
3336,note_off,156,0,0,,7,,,67,127
3339,note_on,3,0,0,,10,,,69,127
3491,note_off,152,0,0,,7,,,55,127
3494,note_off,3,0,0,,10,,,69,127
3497,note_on,3,0,0,,12,,,71,127
3497,note_on,0,0,0,,6,,,54,127
3653,note_off,156,0,0,,6,,,54,127
3653,note_off,0,0,0,,12,,,71,127
3656,note_on,3,0,0,,1,,,73,127
3656,note_on,0,0,0,,7,,,55,127
3812,note_off,156,0,0,,7,,,55,127
3812,note_off,0,0,0,,1,,,73,127
3815,note_on,3,0,0,,2,,,74,127
3815,note_on,0,0,0,,6,,,54,127
3971,note_off,156,0,0,,2,,,74,127
3974,note_on,3,0,0,,10,,,81,127
4120,note_off,146,0,0,,10,,,81,127
4133,note_on,13,0,0,,10,,,81,127
4289,note_off,156,0,0,,10,,,81,127
4292,note_on,3,0,0,,7,,,79,127
4438,note_off,146,0,0,,7,,,79,127
4445,note_off,7,0,0,,6,,,54,127
4452,note_on,7,0,0,,7,,,79,127
4452,note_on,0,0,0,,7,,,55,127
4608,note_off,156,0,0,,7,,,79,127
4611,note_on,3,0,0,,6,,,78,127
4767,note_off,156,0,0,,6,,,78,127
4770,note_on,3,0,0,,4,,,76,127
4926,note_off,156,0,0,,4,,,76,127
4929,note_on,3,0,0,,2,,,74,127
5081,note_off,152,0,0,,7,,,55,127
5084,note_off,3,0,0,,2,,,74,127
5087,note_on,3,0,0,,1,,,73,127
5087,note_on,0,0,0,,10,,,57,127
5243,note_off,156,0,0,,10,,,57,127
5246,note_on,3,0,0,,10,,,69,127
5395,note_off,149,0,0,,10,,,69,127
5405,note_on,10,0,0,,10,,,69,127
5561,note_off,156,0,0,,10,,,69,127
5564,note_on,3,0,0,,7,,,67,127
5713,note_off,149,0,0,,7,,,67,127
5723,note_on,10,0,0,,7,,,67,127
5874,note_off,151,0,0,,1,,,73,127
5878,note_off,4,0,0,,7,,,67,127
5881,note_on,3,0,0,,2,,,74,127
5881,note_on,0,0,0,,6,,,66,127
6037,note_off,156,0,0,,6,,,66,127
6037,note_off,0,0,0,,2,,,74,127
6040,note_on,3,0,0,,4,,,76,127
6040,note_on,0,0,0,,4,,,64,127
6196,note_off,156,0,0,,4,,,64,127
6196,note_off,0,0,0,,4,,,76,127
6199,note_on,3,0,0,,6,,,78,127
6199,note_on,0,0,0,,2,,,62,127
6355,note_off,156,0,0,,2,,,62,127
6355,note_off,0,0,0,,6,,,78,127
6358,note_on,3,0,0,,4,,,76,127
6358,note_on,0,0,0,,1,,,61,127
6514,note_off,156,0,0,,4,,,76,127
6517,note_on,3,0,0,,7,,,79,127
6663,note_off,146,0,0,,7,,,79,127
6670,note_off,7,0,0,,1,,,61,127
6677,note_on,7,0,0,,7,,,79,127
6677,note_on,0,0,0,,10,,,69,127
6677,note_on,0,0,0,,2,,,62,127
6833,note_off,156,0,0,,7,,,79,127
6836,note_on,3,0,0,,6,,,78,127
6982,note_off,146,0,0,,6,,,78,127
6989,note_off,7,0,0,,2,,,62,127
6989,note_off,0,0,0,,10,,,69,127
6996,note_on,7,0,0,,6,,,78,127
6996,note_on,0,0,0,,10,,,69,127
6996,note_on,0,0,0,,7,,,55,127
7152,note_off,156,0,0,,10,,,69,127
7152,note_off,0,0,0,,6,,,78,127
7155,note_on,3,0,0,,4,,,76,127
7155,note_on,0,0,0,,7,,,67,127
7301,note_off,146,0,0,,7,,,67,127
7301,note_off,0,0,0,,4,,,76,127
7314,note_on,13,0,0,,7,,,67,127
7314,note_on,0,0,0,,4,,,76,127
7470,note_off,156,0,0,,4,,,76,127
7470,note_off,0,0,0,,7,,,67,127
7473,note_on,3,0,0,,2,,,74,127
7473,note_on,0,0,0,,6,,,66,127
7629,note_off,156,0,0,,6,,,66,127
7629,note_off,0,0,0,,2,,,74,127
7631,note_off,2,0,0,,7,,,55,127
7632,note_on,1,0,0,,4,,,64,127
7632,note_on,0,0,0,,1,,,73,127
7791,note_on,159,0,0,,10,,,57,127
7940,note_off,149,0,0,,10,,,57,127
7950,note_on,10,0,0,,10,,,57,127
8106,note_off,156,0,0,,10,,,57,127
8109,note_on,3,0,0,,7,,,55,127
8258,note_off,149,0,0,,7,,,55,127
8268,note_on,10,0,0,,7,,,55,127
8419,note_off,151,0,0,,1,,,73,127
8419,note_off,0,0,0,,4,,,64,127
8423,note_off,4,0,0,,7,,,55,127
8426,note_on,3,0,0,,2,,,74,127
8426,note_on,0,0,0,,6,,,66,127
8426,note_on,0,0,0,,6,,,54,127
8582,note_off,156,0,0,,6,,,54,127
8582,note_off,0,0,0,,6,,,66,127
8582,note_off,0,0,0,,2,,,74,127
8585,note_on,3,0,0,,4,,,76,127
8585,note_on,0,0,0,,7,,,67,127
8585,note_on,0,0,0,,4,,,52,127
8741,note_off,156,0,0,,4,,,52,127
8741,note_off,0,0,0,,7,,,67,127
8741,note_off,0,0,0,,4,,,76,127
8744,note_on,3,0,0,,10,,,69,127
8744,note_on,0,0,0,,6,,,78,127
8744,note_on,0,0,0,,2,,,50,127
8900,note_off,156,0,0,,2,,,50,127
8900,note_off,0,0,0,,6,,,78,127
8900,note_off,0,0,0,,10,,,69,127
8903,note_on,3,0,0,,7,,,79,127
8903,note_on,0,0,0,,10,,,69,127
8903,note_on,0,0,0,,1,,,49,127
9059,note_off,156,0,0,,7,,,79,127
9062,note_on,3,0,0,,4,,,76,127
9214,note_off,152,0,0,,1,,,49,127
9217,note_off,3,0,0,,4,,,76,127
9220,note_on,3,0,0,,6,,,78,127
9220,note_on,0,0,0,,2,,,50,127
9376,note_off,156,0,0,,6,,,78,127
9379,note_on,3,0,0,,2,,,74,127
9531,note_off,152,0,0,,2,,,50,127
9534,note_off,3,0,0,,2,,,74,127
9536,note_off,2,0,0,,10,,,69,127
9537,note_on,1,0,0,,4,,,76,127
9537,note_on,0,0,0,,7,,,55,127
9537,note_on,0,0,0,,7,,,43,127
9696,note_on,159,0,0,,12,,,71,127
9848,note_off,152,0,0,,7,,,43,127
9848,note_off,0,0,0,,7,,,55,127
9851,note_off,3,0,0,,12,,,71,127
9851,note_off,0,0,0,,4,,,76,127
9854,note_on,3,0,0,,2,,,74,127
9854,note_on,0,0,0,,7,,,55,127
9854,note_on,0,0,0,,10,,,45,127
9926,note_off,72,0,0,,2,,,74,127
9933,note_on,7,0,0,,1,,,73,127
10005,note_off,72,0,0,,1,,,73,127
10012,note_on,7,0,0,,12,,,71,127
10084,note_off,72,0,0,,12,,,71,127
10091,note_on,7,0,0,,1,,,73,127
10163,note_off,72,0,0,,1,,,73,127
10167,note_off,4,0,0,,10,,,45,127
10167,note_off,0,0,0,,7,,,55,127
10170,note_on,3,0,0,,2,,,74,127
10488,note_on,318,0,0,,2,,,50,127
10488,note_on,0,0,0,,6,,,54,127
10644,note_off,156,0,0,,6,,,54,127
10644,note_off,0,0,0,,2,,,50,127
10647,note_on,3,0,0,,4,,,52,127
10647,note_on,0,0,0,,7,,,55,127
10803,note_off,156,0,0,,7,,,55,127
10803,note_off,0,0,0,,4,,,52,127
10805,note_off,2,0,0,,2,,,74,127
10806,note_on,1,0,0,,10,,,57,127
10806,note_on,0,0,0,,6,,,54,127
10962,note_off,156,0,0,,6,,,54,127
10962,note_off,0,0,0,,10,,,57,127
10965,note_on,3,0,0,,12,,,59,127
10965,note_on,0,0,0,,7,,,55,127
11121,note_off,156,0,0,,7,,,55,127
11121,note_off,0,0,0,,12,,,59,127
11124,note_on,3,0,0,,10,,,57,127
11124,note_on,0,0,0,,1,,,61,127
11280,note_off,156,0,0,,1,,,61,127
11280,note_off,0,0,0,,10,,,57,127
11283,note_on,3,0,0,,2,,,62,127
11283,note_on,0,0,0,,12,,,59,127
11439,note_off,156,0,0,,12,,,59,127
11439,note_off,0,0,0,,2,,,62,127
11442,note_on,3,0,0,,4,,,64,127
11442,note_on,0,0,0,,1,,,61,127
11598,note_off,156,0,0,,1,,,61,127
11598,note_off,0,0,0,,4,,,64,127
11601,note_on,3,0,0,,6,,,66,127
11601,note_on,0,0,0,,2,,,62,127
11757,note_off,156,0,0,,2,,,62,127
11757,note_off,0,0,0,,6,,,66,127
11760,note_on,3,0,0,,7,,,79,127
11760,note_on,0,0,0,,7,,,67,127
11760,note_on,0,0,0,,4,,,64,127
11916,note_off,156,0,0,,4,,,64,127
11919,note_on,3,0,0,,2,,,62,127
12075,note_off,156,0,0,,2,,,62,127
12078,note_on,3,0,0,,1,,,61,127
12229,note_off,151,0,0,,7,,,79,127
12236,note_on,7,0,0,,6,,,78,127
12387,note_off,151,0,0,,1,,,61,127
12391,note_off,4,0,0,,6,,,78,127
12393,note_off,2,0,0,,7,,,67,127
12394,note_on,1,0,0,,4,,,76,127
12394,note_on,0,0,0,,6,,,66,127
12394,note_on,0,0,0,,2,,,62,127
12550,note_off,156,0,0,,4,,,76,127
12553,note_on,3,0,0,,2,,,74,127
12704,note_off,151,0,0,,2,,,62,127
12704,note_off,0,0,0,,6,,,66,127
12708,note_off,4,0,0,,2,,,74,127
12711,note_on,3,0,0,,4,,,76,127
12711,note_on,0,0,0,,4,,,64,127
12711,note_on,0,0,0,,10,,,57,127
12870,note_on,159,0,0,,10,,,69,127
13021,note_off,151,0,0,,10,,,57,127
13021,note_off,0,0,0,,4,,,64,127
13025,note_off,4,0,0,,10,,,69,127
13025,note_off,0,0,0,,4,,,76,127
13028,note_on,3,0,0,,10,,,81,127
13028,note_on,0,0,0,,2,,,50,127
13028,note_on,0,0,0,,6,,,54,127
13184,note_off,156,0,0,,6,,,54,127
13184,note_off,0,0,0,,2,,,50,127
13187,note_on,3,0,0,,4,,,52,127
13187,note_on,0,0,0,,7,,,55,127
13343,note_off,156,0,0,,7,,,55,127
13343,note_off,0,0,0,,4,,,52,127
13346,note_on,3,0,0,,10,,,57,127
13346,note_on,0,0,0,,6,,,54,127
13502,note_off,156,0,0,,6,,,54,127
13502,note_off,0,0,0,,10,,,57,127
13504,note_off,2,0,0,,10,,,81,127
13505,note_on,1,0,0,,7,,,55,127
13505,note_on,0,0,0,,12,,,59,127
13661,note_off,156,0,0,,12,,,59,127
13661,note_off,0,0,0,,7,,,55,127
13664,note_on,3,0,0,,10,,,57,127
13664,note_on,0,0,0,,1,,,61,127
13820,note_off,156,0,0,,1,,,61,127
13820,note_off,0,0,0,,10,,,57,127
13823,note_on,3,0,0,,12,,,59,127
13823,note_on,0,0,0,,2,,,62,127
13979,note_off,156,0,0,,2,,,62,127
13979,note_off,0,0,0,,12,,,59,127
13982,note_on,3,0,0,,4,,,64,127
13982,note_on,0,0,0,,1,,,61,127
14138,note_off,156,0,0,,1,,,61,127
14138,note_off,0,0,0,,4,,,64,127
14141,note_on,3,0,0,,2,,,62,127
14141,note_on,0,0,0,,6,,,66,127
14297,note_off,156,0,0,,6,,,66,127
14297,note_off,0,0,0,,2,,,62,127
14300,note_on,3,0,0,,7,,,79,127
14300,note_on,0,0,0,,7,,,67,127
14300,note_on,0,0,0,,4,,,64,127
14456,note_off,156,0,0,,4,,,64,127
14459,note_on,3,0,0,,2,,,62,127
14615,note_off,156,0,0,,2,,,62,127
14618,note_on,3,0,0,,1,,,61,127
14769,note_off,151,0,0,,7,,,79,127
14776,note_on,7,0,0,,6,,,78,127
14927,note_off,151,0,0,,1,,,61,127
14931,note_off,4,0,0,,6,,,78,127
14933,note_off,2,0,0,,7,,,67,127
14934,note_on,1,0,0,,4,,,76,127
14934,note_on,0,0,0,,2,,,62,127
14934,note_on,0,0,0,,6,,,66,127
15090,note_off,156,0,0,,4,,,76,127
15093,note_on,3,0,0,,2,,,74,127
15244,note_off,151,0,0,,6,,,66,127
15244,note_off,0,0,0,,2,,,62,127
15248,note_off,4,0,0,,2,,,74,127
15251,note_on,3,0,0,,4,,,76,127
15251,note_on,0,0,0,,10,,,57,127
15410,note_on,159,0,0,,10,,,69,127
15566,note_off,156,0,0,,10,,,69,127
15566,note_off,0,0,0,,4,,,76,127
15569,note_on,3,0,0,,1,,,85,127
15569,note_on,0,0,0,,4,,,76,127
15725,note_off,156,0,0,,4,,,76,127
15725,note_off,0,0,0,,1,,,85,127
15728,note_on,3,0,0,,12,,,83,127
15728,note_on,0,0,0,,2,,,74,127
15874,note_off,146,0,0,,2,,,74,127
15874,note_off,0,0,0,,12,,,83,127
15880,note_off,6,0,0,,10,,,57,127
15887,note_on,7,0,0,,2,,,74,127
15887,note_on,0,0,0,,12,,,83,127
15887,note_on,0,0,0,,1,,,49,127
16043,note_off,156,0,0,,12,,,83,127
16043,note_off,0,0,0,,2,,,74,127
16046,note_on,3,0,0,,1,,,73,127
16046,note_on,0,0,0,,10,,,81,127
16192,note_off,146,0,0,,10,,,81,127
16192,note_off,0,0,0,,1,,,73,127
16198,note_off,6,0,0,,1,,,49,127
16205,note_on,7,0,0,,1,,,73,127
16205,note_on,0,0,0,,10,,,81,127
16205,note_on,0,0,0,,2,,,50,127
16361,note_off,156,0,0,,10,,,81,127
16361,note_off,0,0,0,,1,,,73,127
16364,note_on,3,0,0,,8,,,80,127
16364,note_on,0,0,0,,12,,,71,127
16510,note_off,146,0,0,,12,,,71,127
16510,note_off,0,0,0,,8,,,80,127
16516,note_off,6,0,0,,2,,,50,127
16523,note_on,7,0,0,,12,,,71,127
16523,note_on,0,0,0,,8,,,80,127
16523,note_on,0,0,0,,4,,,52,127
16679,note_off,156,0,0,,8,,,80,127
16679,note_off,0,0,0,,12,,,71,127
16682,note_on,3,0,0,,10,,,69,127
16682,note_on,0,0,0,,6,,,78,127
16828,note_off,146,0,0,,6,,,78,127
16828,note_off,0,0,0,,10,,,69,127
16841,note_on,13,0,0,,6,,,78,127
16841,note_on,0,0,0,,10,,,69,127
16997,note_off,156,0,0,,10,,,69,127
16997,note_off,0,0,0,,6,,,78,127
17000,note_on,3,0,0,,4,,,76,127
17000,note_on,0,0,0,,8,,,68,127
17146,note_off,146,0,0,,8,,,68,127
17146,note_off,0,0,0,,4,,,76,127
17152,note_off,6,0,0,,4,,,52,127
17159,note_on,7,0,0,,8,,,68,127
17159,note_on,0,0,0,,4,,,76,127
17159,note_on,0,0,0,,8,,,56,127
17315,note_off,156,0,0,,4,,,76,127
17315,note_off,0,0,0,,8,,,68,127
17318,note_on,3,0,0,,12,,,71,127
17318,note_on,0,0,0,,2,,,74,127
17469,note_off,151,0,0,,8,,,56,127
17473,note_off,4,0,0,,2,,,74,127
17473,note_off,0,0,0,,12,,,71,127
17476,note_on,3,0,0,,10,,,69,127
17476,note_on,0,0,0,,1,,,73,127
17476,note_on,0,0,0,,4,,,52,127
17632,note_off,156,0,0,,1,,,73,127
17632,note_off,0,0,0,,10,,,69,127
17635,note_on,3,0,0,,12,,,71,127
17635,note_on,0,0,0,,8,,,68,127
17786,note_off,151,0,0,,4,,,52,127
17790,note_off,4,0,0,,8,,,68,127
17790,note_off,0,0,0,,12,,,71,127
17793,note_on,3,0,0,,12,,,71,127
17793,note_on,0,0,0,,8,,,68,127
17793,note_on,0,0,0,,10,,,45,127
18103,note_off,310,0,0,,10,,,45,127
18107,note_off,4,0,0,,8,,,68,127
18107,note_off,0,0,0,,12,,,71,127
18110,note_on,3,0,0,,1,,,73,127
18110,note_on,0,0,0,,10,,,69,127
18110,note_on,0,0,0,,1,,,61,127
18110,note_on,0,0,0,,10,,,57,127
18266,note_off,156,0,0,,10,,,57,127
18266,note_off,0,0,0,,1,,,61,127
18269,note_on,3,0,0,,12,,,59,127
18269,note_on,0,0,0,,2,,,62,127
18425,note_off,156,0,0,,2,,,62,127
18425,note_off,0,0,0,,12,,,59,127
18428,note_on,3,0,0,,4,,,64,127
18428,note_on,0,0,0,,1,,,61,127
18584,note_off,156,0,0,,1,,,61,127
18584,note_off,0,0,0,,4,,,64,127
18586,note_off,2,0,0,,10,,,69,127
18586,note_off,0,0,0,,1,,,73,127
18587,note_on,1,0,0,,2,,,62,127
18587,note_on,0,0,0,,6,,,66,127
18743,note_off,156,0,0,,6,,,66,127
18743,note_off,0,0,0,,2,,,62,127
18746,note_on,3,0,0,,8,,,68,127
18746,note_on,0,0,0,,4,,,64,127
18902,note_off,156,0,0,,4,,,64,127
18902,note_off,0,0,0,,8,,,68,127
18905,note_on,3,0,0,,10,,,69,127
18905,note_on,0,0,0,,6,,,66,127
19061,note_off,156,0,0,,6,,,66,127
19061,note_off,0,0,0,,10,,,69,127
19064,note_on,3,0,0,,12,,,71,127
19064,note_on,0,0,0,,8,,,68,127
19220,note_off,156,0,0,,8,,,68,127
19220,note_off,0,0,0,,12,,,71,127
19223,note_on,3,0,0,,1,,,73,127
19223,note_on,0,0,0,,10,,,69,127
19379,note_off,156,0,0,,10,,,69,127
19379,note_off,0,0,0,,1,,,73,127
19382,note_on,3,0,0,,2,,,86,127
19382,note_on,0,0,0,,2,,,74,127
19382,note_on,0,0,0,,12,,,71,127
19538,note_off,156,0,0,,12,,,71,127
19541,note_on,3,0,0,,10,,,69,127
19697,note_off,156,0,0,,10,,,69,127
19700,note_on,3,0,0,,8,,,68,127
19851,note_off,151,0,0,,2,,,86,127
19858,note_on,7,0,0,,1,,,85,127
20009,note_off,151,0,0,,8,,,68,127
20013,note_off,4,0,0,,1,,,85,127
20015,note_off,2,0,0,,2,,,74,127
20016,note_on,1,0,0,,12,,,83,127
20016,note_on,0,0,0,,1,,,73,127
20016,note_on,0,0,0,,10,,,69,127
20172,note_off,156,0,0,,12,,,83,127
20175,note_on,3,0,0,,10,,,81,127
20326,note_off,151,0,0,,10,,,69,127
20326,note_off,0,0,0,,1,,,73,127
20330,note_off,4,0,0,,10,,,81,127
20333,note_on,3,0,0,,12,,,83,127
20333,note_on,0,0,0,,4,,,64,127
20333,note_on,0,0,0,,12,,,71,127
20489,note_off,156,0,0,,12,,,83,127
20492,note_on,3,0,0,,4,,,76,127
20643,note_off,151,0,0,,12,,,71,127
20643,note_off,0,0,0,,4,,,64,127
20647,note_off,4,0,0,,4,,,76,127
20650,note_on,3,0,0,,4,,,76,127
20650,note_on,0,0,0,,10,,,57,127
20650,note_on,0,0,0,,1,,,61,127
20806,note_off,156,0,0,,1,,,61,127
20806,note_off,0,0,0,,10,,,57,127
20809,note_on,3,0,0,,12,,,59,127
20809,note_on,0,0,0,,2,,,62,127
20965,note_off,156,0,0,,2,,,62,127
20965,note_off,0,0,0,,12,,,59,127
20968,note_on,3,0,0,,4,,,64,127
20968,note_on,0,0,0,,1,,,61,127
21124,note_off,156,0,0,,1,,,61,127
21124,note_off,0,0,0,,4,,,64,127
21126,note_off,2,0,0,,4,,,76,127
21127,note_on,1,0,0,,6,,,66,127
21127,note_on,0,0,0,,2,,,62,127
21283,note_off,156,0,0,,2,,,62,127
21283,note_off,0,0,0,,6,,,66,127
21286,note_on,3,0,0,,8,,,68,127
21286,note_on,0,0,0,,4,,,64,127
21442,note_off,156,0,0,,4,,,64,127
21442,note_off,0,0,0,,8,,,68,127
21445,note_on,3,0,0,,10,,,69,127
21445,note_on,0,0,0,,6,,,66,127
21601,note_off,156,0,0,,6,,,66,127
21601,note_off,0,0,0,,10,,,69,127
21604,note_on,3,0,0,,12,,,71,127
21604,note_on,0,0,0,,8,,,68,127
21760,note_off,156,0,0,,8,,,68,127
21760,note_off,0,0,0,,12,,,71,127
21763,note_on,3,0,0,,1,,,73,127
21763,note_on,0,0,0,,10,,,69,127
21919,note_off,156,0,0,,10,,,69,127
21919,note_off,0,0,0,,1,,,73,127
21922,note_on,3,0,0,,2,,,86,127
21922,note_on,0,0,0,,2,,,74,127
21922,note_on,0,0,0,,12,,,71,127
22078,note_off,156,0,0,,12,,,71,127
22081,note_on,3,0,0,,10,,,69,127
22237,note_off,156,0,0,,10,,,69,127
22240,note_on,3,0,0,,8,,,68,127
22391,note_off,151,0,0,,2,,,86,127
22398,note_on,7,0,0,,1,,,85,127
22549,note_off,151,0,0,,8,,,68,127
22553,note_off,4,0,0,,1,,,85,127
22555,note_off,2,0,0,,2,,,74,127
22556,note_on,1,0,0,,12,,,83,127
22556,note_on,0,0,0,,10,,,69,127
22556,note_on,0,0,0,,1,,,73,127
22712,note_off,156,0,0,,12,,,83,127
22715,note_on,3,0,0,,10,,,81,127
22866,note_off,151,0,0,,1,,,73,127
22866,note_off,0,0,0,,10,,,69,127
22870,note_off,4,0,0,,10,,,81,127
22873,note_on,3,0,0,,12,,,83,127
22873,note_on,0,0,0,,12,,,71,127
22873,note_on,0,0,0,,4,,,64,127
23032,note_on,159,0,0,,4,,,76,127
23188,note_off,156,0,0,,4,,,76,127
23188,note_off,0,0,0,,4,,,64,127
23188,note_off,0,0,0,,12,,,71,127
23188,note_off,0,0,0,,12,,,83,127
23191,note_on,3,0,0,,4,,,76,127
23191,note_on,0,0,0,,0,,,84,127
23347,note_off,156,0,0,,0,,,84,127
23347,note_off,0,0,0,,4,,,76,127
23350,note_on,3,0,0,,12,,,83,127
23350,note_on,0,0,0,,2,,,74,127
23496,note_off,146,0,0,,2,,,74,127
23496,note_off,0,0,0,,12,,,83,127
23509,note_on,13,0,0,,2,,,74,127
23509,note_on,0,0,0,,12,,,83,127
23665,note_off,156,0,0,,12,,,83,127
23665,note_off,0,0,0,,2,,,74,127
23668,note_on,3,0,0,,10,,,81,127
23668,note_on,0,0,0,,0,,,72,127
23814,note_off,146,0,0,,0,,,72,127
23814,note_off,0,0,0,,10,,,81,127
23827,note_on,13,0,0,,0,,,72,127
23827,note_on,0,0,0,,10,,,81,127
23983,note_off,156,0,0,,10,,,81,127
23983,note_off,0,0,0,,0,,,72,127
23986,note_on,3,0,0,,7,,,79,127
23986,note_on,0,0,0,,12,,,71,127
24132,note_off,146,0,0,,12,,,71,127
24132,note_off,0,0,0,,7,,,79,127
24145,note_on,13,0,0,,12,,,71,127
24145,note_on,0,0,0,,7,,,79,127
24301,note_off,156,0,0,,7,,,79,127
24301,note_off,0,0,0,,12,,,71,127
24304,note_on,3,0,0,,10,,,69,127
24304,note_on,0,0,0,,5,,,77,127
24450,note_off,146,0,0,,5,,,77,127
24450,note_off,0,0,0,,10,,,69,127
24463,note_on,13,0,0,,10,,,69,127
24463,note_on,0,0,0,,5,,,77,127
24463,note_on,0,0,0,,4,,,52,127
24619,note_off,156,0,0,,5,,,77,127
24619,note_off,0,0,0,,10,,,69,127
24622,note_on,3,0,0,,8,,,68,127
24622,note_on,0,0,0,,4,,,76,127
24768,note_off,146,0,0,,4,,,76,127
24768,note_off,0,0,0,,8,,,68,127
24774,note_off,6,0,0,,4,,,52,127
24781,note_on,7,0,0,,4,,,76,127
24781,note_on,0,0,0,,4,,,64,127
24781,note_on,0,0,0,,8,,,68,127
24781,note_on,0,0,0,,4,,,52,127
24937,note_off,156,0,0,,4,,,76,127
24940,note_on,3,0,0,,2,,,74,127
25086,note_off,146,0,0,,2,,,74,127
25096,note_off,10,0,0,,4,,,52,127
25096,note_off,0,0,0,,8,,,68,127
25096,note_off,0,0,0,,4,,,64,127
25099,note_on,3,0,0,,5,,,65,127
25099,note_on,0,0,0,,2,,,74,127
25099,note_on,0,0,0,,10,,,69,127
25099,note_on,0,0,0,,4,,,52,127
25255,note_off,156,0,0,,2,,,74,127
25258,note_on,3,0,0,,4,,,76,127
25404,note_off,146,0,0,,4,,,76,127
25414,note_off,10,0,0,,4,,,52,127
25414,note_off,0,0,0,,10,,,69,127
25414,note_off,0,0,0,,5,,,65,127
25417,note_on,3,0,0,,4,,,76,127
25417,note_on,0,0,0,,4,,,64,127
25417,note_on,0,0,0,,8,,,68,127
25417,note_on,0,0,0,,4,,,52,127
25727,note_off,310,0,0,,8,,,68,127
25727,note_off,0,0,0,,4,,,64,127
25727,note_off,0,0,0,,4,,,76,127
25734,note_on,7,0,0,,4,,,76,127
25734,note_on,0,0,0,,0,,,84,127
25890,note_off,156,0,0,,0,,,84,127
25890,note_off,0,0,0,,4,,,76,127
25892,note_off,2,0,0,,4,,,52,127
25893,note_on,1,0,0,,12,,,83,127
25893,note_on,0,0,0,,2,,,74,127
26039,note_off,146,0,0,,2,,,74,127
26039,note_off,0,0,0,,12,,,83,127
26052,note_on,13,0,0,,12,,,83,127
26052,note_on,0,0,0,,2,,,74,127
26208,note_off,156,0,0,,2,,,74,127
26208,note_off,0,0,0,,12,,,83,127
26211,note_on,3,0,0,,0,,,72,127
26211,note_on,0,0,0,,10,,,81,127
26357,note_off,146,0,0,,10,,,81,127
26357,note_off,0,0,0,,0,,,72,127
26370,note_on,13,0,0,,10,,,81,127
26370,note_on,0,0,0,,0,,,72,127
26526,note_off,156,0,0,,0,,,72,127
26526,note_off,0,0,0,,10,,,81,127
26529,note_on,3,0,0,,7,,,79,127
26529,note_on,0,0,0,,12,,,71,127
26675,note_off,146,0,0,,12,,,71,127
26675,note_off,0,0,0,,7,,,79,127
26688,note_on,13,0,0,,7,,,79,127
26688,note_on,0,0,0,,12,,,71,127
26844,note_off,156,0,0,,12,,,71,127
26844,note_off,0,0,0,,7,,,79,127
26847,note_on,3,0,0,,5,,,77,127
26847,note_on,0,0,0,,10,,,69,127
26993,note_off,146,0,0,,10,,,69,127
26993,note_off,0,0,0,,5,,,77,127
27006,note_on,13,0,0,,10,,,69,127
27006,note_on,0,0,0,,5,,,77,127
27006,note_on,0,0,0,,4,,,52,127
27162,note_off,156,0,0,,5,,,77,127
27162,note_off,0,0,0,,10,,,69,127
27165,note_on,3,0,0,,4,,,76,127
27165,note_on,0,0,0,,8,,,68,127
27311,note_off,146,0,0,,8,,,68,127
27311,note_off,0,0,0,,4,,,76,127
27317,note_off,6,0,0,,4,,,52,127
27324,note_on,7,0,0,,4,,,76,127
27324,note_on,0,0,0,,8,,,68,127
27324,note_on,0,0,0,,4,,,64,127
27324,note_on,0,0,0,,4,,,52,127
27480,note_off,156,0,0,,4,,,76,127
27483,note_on,3,0,0,,2,,,74,127
27629,note_off,146,0,0,,2,,,74,127
27639,note_off,10,0,0,,4,,,52,127
27639,note_off,0,0,0,,4,,,64,127
27639,note_off,0,0,0,,8,,,68,127
27642,note_on,3,0,0,,10,,,69,127
27642,note_on,0,0,0,,2,,,74,127
27642,note_on,0,0,0,,5,,,65,127
27642,note_on,0,0,0,,4,,,52,127
27798,note_off,156,0,0,,2,,,74,127
27801,note_on,3,0,0,,4,,,76,127
27947,note_off,146,0,0,,4,,,76,127
27957,note_off,10,0,0,,4,,,52,127
27957,note_off,0,0,0,,5,,,65,127
27957,note_off,0,0,0,,10,,,69,127
27960,note_on,3,0,0,,4,,,64,127
27960,note_on,0,0,0,,4,,,76,127
27960,note_on,0,0,0,,8,,,68,127
27960,note_on,0,0,0,,4,,,52,127
28270,note_off,310,0,0,,4,,,52,127
28270,note_off,0,0,0,,8,,,68,127
28270,note_off,0,0,0,,4,,,76,127
28270,note_off,0,0,0,,4,,,64,127
28277,note_on,7,0,0,,10,,,81,127
28277,note_on,0,0,0,,0,,,72,127
28277,note_on,0,0,0,,4,,,64,127
28433,note_off,156,0,0,,4,,,64,127
28433,note_off,0,0,0,,0,,,72,127
28436,note_on,3,0,0,,2,,,74,127
28436,note_on,0,0,0,,5,,,65,127
28592,note_off,156,0,0,,5,,,65,127
28592,note_off,0,0,0,,2,,,74,127
28595,note_on,3,0,0,,0,,,72,127
28595,note_on,0,0,0,,4,,,64,127
28746,note_off,151,0,0,,10,,,81,127
28750,note_off,4,0,0,,4,,,64,127
28750,note_off,0,0,0,,0,,,72,127
28753,note_on,3,0,0,,12,,,83,127
28753,note_on,0,0,0,,12,,,71,127
28753,note_on,0,0,0,,2,,,62,127
28909,note_off,156,0,0,,2,,,62,127
28909,note_off,0,0,0,,12,,,71,127
28909,note_off,0,0,0,,12,,,83,127
28912,note_on,3,0,0,,0,,,84,127
28912,note_on,0,0,0,,10,,,69,127
28912,note_on,0,0,0,,0,,,60,127
29068,note_off,156,0,0,,0,,,60,127
29068,note_off,0,0,0,,10,,,69,127
29068,note_off,0,0,0,,0,,,84,127
29071,note_on,3,0,0,,2,,,86,127
29071,note_on,0,0,0,,8,,,68,127
29071,note_on,0,0,0,,12,,,59,127
29227,note_off,156,0,0,,12,,,59,127
29227,note_off,0,0,0,,8,,,68,127
29227,note_off,0,0,0,,2,,,86,127
29230,note_on,3,0,0,,2,,,86,127
29230,note_on,0,0,0,,0,,,84,127
29230,note_on,0,0,0,,10,,,69,127
29230,note_on,0,0,0,,0,,,60,127
29386,note_off,156,0,0,,0,,,84,127
29386,note_off,0,0,0,,2,,,86,127
29389,note_on,3,0,0,,12,,,83,127
29540,note_off,151,0,0,,0,,,60,127
29540,note_off,0,0,0,,10,,,69,127
29544,note_off,4,0,0,,12,,,83,127
29547,note_on,3,0,0,,10,,,81,127
29547,note_on,0,0,0,,0,,,72,127
29547,note_on,0,0,0,,4,,,64,127
29703,note_off,156,0,0,,4,,,64,127
29703,note_off,0,0,0,,0,,,72,127
29706,note_on,3,0,0,,2,,,74,127
29706,note_on,0,0,0,,5,,,65,127
29862,note_off,156,0,0,,5,,,65,127
29862,note_off,0,0,0,,2,,,74,127
29865,note_on,3,0,0,,0,,,72,127
29865,note_on,0,0,0,,4,,,64,127
30016,note_off,151,0,0,,10,,,81,127
30020,note_off,4,0,0,,4,,,64,127
30020,note_off,0,0,0,,0,,,72,127
30023,note_on,3,0,0,,12,,,83,127
30023,note_on,0,0,0,,12,,,71,127
30023,note_on,0,0,0,,2,,,62,127
30179,note_off,156,0,0,,2,,,62,127
30179,note_off,0,0,0,,12,,,71,127
30179,note_off,0,0,0,,12,,,83,127
30182,note_on,3,0,0,,0,,,84,127
30182,note_on,0,0,0,,10,,,69,127
30182,note_on,0,0,0,,0,,,60,127
30338,note_off,156,0,0,,0,,,60,127
30338,note_off,0,0,0,,10,,,69,127
30338,note_off,0,0,0,,0,,,84,127
30341,note_on,3,0,0,,2,,,86,127
30341,note_on,0,0,0,,8,,,68,127
30341,note_on,0,0,0,,12,,,59,127
30497,note_off,156,0,0,,12,,,59,127
30497,note_off,0,0,0,,8,,,68,127
30497,note_off,0,0,0,,2,,,86,127
30500,note_on,3,0,0,,2,,,86,127
30500,note_on,0,0,0,,0,,,84,127
30500,note_on,0,0,0,,10,,,69,127
30500,note_on,0,0,0,,0,,,60,127
30656,note_off,156,0,0,,0,,,84,127
30656,note_off,0,0,0,,2,,,86,127
30659,note_on,3,0,0,,12,,,83,127
30810,note_off,151,0,0,,0,,,60,127
30810,note_off,0,0,0,,10,,,69,127
30814,note_off,4,0,0,,12,,,83,127
30817,note_on,3,0,0,,10,,,81,127
30817,note_on,0,0,0,,0,,,72,127
30817,note_on,0,0,0,,4,,,64,127
30973,note_off,156,0,0,,4,,,64,127
30973,note_off,0,0,0,,0,,,72,127
30976,note_on,3,0,0,,2,,,74,127
30976,note_on,0,0,0,,5,,,65,127
31132,note_off,156,0,0,,5,,,65,127
31132,note_off,0,0,0,,2,,,74,127
31135,note_on,3,0,0,,4,,,64,127
31135,note_on,0,0,0,,0,,,72,127
31286,note_off,151,0,0,,10,,,81,127
31290,note_off,4,0,0,,0,,,72,127
31290,note_off,0,0,0,,4,,,64,127
31293,note_on,3,0,0,,12,,,83,127
31293,note_on,0,0,0,,12,,,71,127
31293,note_on,0,0,0,,2,,,62,127
31449,note_off,156,0,0,,2,,,62,127
31449,note_off,0,0,0,,12,,,71,127
31449,note_off,0,0,0,,12,,,83,127
31452,note_on,3,0,0,,0,,,84,127
31452,note_on,0,0,0,,0,,,60,127
31452,note_on,0,0,0,,10,,,69,127
31608,note_off,156,0,0,,10,,,69,127
31608,note_off,0,0,0,,0,,,60,127
31608,note_off,0,0,0,,0,,,84,127
31611,note_on,3,0,0,,2,,,86,127
31611,note_on,0,0,0,,12,,,59,127
31611,note_on,0,0,0,,8,,,68,127
31767,note_off,156,0,0,,8,,,68,127
31767,note_off,0,0,0,,12,,,59,127
31767,note_off,0,0,0,,2,,,86,127
31770,note_on,3,0,0,,0,,,84,127
31770,note_on,0,0,0,,10,,,69,127
31770,note_on,0,0,0,,0,,,60,127
31926,note_off,156,0,0,,0,,,84,127
31929,note_on,3,0,0,,12,,,83,127
32080,note_off,151,0,0,,0,,,60,127
32080,note_off,0,0,0,,10,,,69,127
32084,note_off,4,0,0,,12,,,83,127
32087,note_on,3,0,0,,12,,,83,127
32087,note_on,0,0,0,,12,,,71,127
32087,note_on,0,0,0,,2,,,62,127
32243,note_off,156,0,0,,12,,,83,127
32246,note_on,3,0,0,,10,,,81,127
32397,note_off,151,0,0,,2,,,62,127
32397,note_off,0,0,0,,12,,,71,127
32401,note_off,4,0,0,,10,,,81,127
32404,note_on,3,0,0,,10,,,81,127
32404,note_on,0,0,0,,10,,,69,127
32404,note_on,0,0,0,,0,,,72,127
32404,note_on,0,0,0,,4,,,64,127
32560,note_off,156,0,0,,10,,,81,127
32563,note_on,3,0,0,,12,,,83,127
32714,note_off,151,0,0,,0,,,72,127
32714,note_off,0,0,0,,10,,,69,127
32718,note_off,4,0,0,,12,,,83,127
32721,note_on,3,0,0,,10,,,81,127
32721,note_on,0,0,0,,12,,,71,127
32877,note_off,156,0,0,,10,,,81,127
32880,note_on,3,0,0,,8,,,80,127
33036,note_off,156,0,0,,8,,,80,127
33036,note_off,0,0,0,,12,,,71,127
33038,note_off,2,0,0,,4,,,64,127
33039,note_on,1,0,0,,10,,,81,127
33195,note_off,156,0,0,,10,,,81,127
33198,note_on,3,0,0,,4,,,76,127
33354,note_off,156,0,0,,4,,,76,127
33357,note_on,3,0,0,,10,,,69,127
33357,note_on,0,0,0,,0,,,60,127
33357,note_on,0,0,0,,4,,,52,127
33513,note_off,156,0,0,,4,,,52,127
33513,note_off,0,0,0,,0,,,60,127
33516,note_on,3,0,0,,2,,,62,127
33516,note_on,0,0,0,,5,,,53,127
33672,note_off,156,0,0,,5,,,53,127
33672,note_off,0,0,0,,2,,,62,127
33675,note_on,3,0,0,,4,,,52,127
33675,note_on,0,0,0,,0,,,60,127
33826,note_off,151,0,0,,10,,,69,127
33830,note_off,4,0,0,,0,,,60,127
33830,note_off,0,0,0,,4,,,52,127
33833,note_on,3,0,0,,12,,,71,127
33833,note_on,0,0,0,,12,,,59,127
33833,note_on,0,0,0,,2,,,50,127
33989,note_off,156,0,0,,2,,,50,127
33989,note_off,0,0,0,,12,,,59,127
33989,note_off,0,0,0,,12,,,71,127
33992,note_on,3,0,0,,0,,,72,127
33992,note_on,0,0,0,,0,,,48,127
33992,note_on,0,0,0,,10,,,57,127
34148,note_off,156,0,0,,10,,,57,127
34148,note_off,0,0,0,,0,,,48,127
34148,note_off,0,0,0,,0,,,72,127
34151,note_on,3,0,0,,2,,,74,127
34151,note_on,0,0,0,,12,,,47,127
34151,note_on,0,0,0,,8,,,56,127
34307,note_off,156,0,0,,8,,,56,127
34307,note_off,0,0,0,,12,,,47,127
34307,note_off,0,0,0,,2,,,74,127
34310,note_on,3,0,0,,4,,,76,127
34310,note_on,0,0,0,,10,,,57,127
34310,note_on,0,0,0,,0,,,48,127
34382,note_off,72,0,0,,4,,,76,127
34389,note_on,7,0,0,,0,,,72,127
34461,note_off,72,0,0,,0,,,72,127
34468,note_on,7,0,0,,2,,,74,127
34540,note_off,72,0,0,,2,,,74,127
34547,note_on,7,0,0,,12,,,71,127
34619,note_off,72,0,0,,12,,,71,127
34619,note_off,0,0,0,,0,,,48,127
34619,note_off,0,0,0,,10,,,57,127
34626,note_on,7,0,0,,10,,,81,127
34626,note_on,0,0,0,,10,,,69,127
34626,note_on,0,0,0,,0,,,60,127
34626,note_on,0,0,0,,4,,,52,127
34782,note_off,156,0,0,,4,,,52,127
34782,note_off,0,0,0,,0,,,60,127
34785,note_on,3,0,0,,5,,,53,127
34785,note_on,0,0,0,,2,,,62,127
34941,note_off,156,0,0,,2,,,62,127
34941,note_off,0,0,0,,5,,,53,127
34944,note_on,3,0,0,,0,,,60,127
34944,note_on,0,0,0,,4,,,52,127
35095,note_off,151,0,0,,10,,,69,127
35099,note_off,4,0,0,,4,,,52,127
35099,note_off,0,0,0,,0,,,60,127
35102,note_on,3,0,0,,12,,,71,127
35102,note_on,0,0,0,,12,,,59,127
35102,note_on,0,0,0,,2,,,50,127
35258,note_off,156,0,0,,2,,,50,127
35258,note_off,0,0,0,,12,,,59,127
35258,note_off,0,0,0,,12,,,71,127
35261,note_on,3,0,0,,0,,,72,127
35261,note_on,0,0,0,,0,,,48,127
35261,note_on,0,0,0,,10,,,57,127
35417,note_off,156,0,0,,10,,,57,127
35417,note_off,0,0,0,,0,,,48,127
35417,note_off,0,0,0,,0,,,72,127
35420,note_on,3,0,0,,2,,,74,127
35420,note_on,0,0,0,,12,,,47,127
35420,note_on,0,0,0,,8,,,56,127
35576,note_off,156,0,0,,8,,,56,127
35576,note_off,0,0,0,,12,,,47,127
35576,note_off,0,0,0,,2,,,74,127
35578,note_off,2,0,0,,10,,,81,127
35580,note_on,2,0,0,,4,,,76,127
35580,note_on,0,0,0,,0,,,48,127
35580,note_on,0,0,0,,10,,,57,127
35652,note_off,72,0,0,,4,,,76,127
35659,note_on,7,0,0,,0,,,72,127
35731,note_off,72,0,0,,0,,,72,127
35738,note_on,7,0,0,,2,,,74,127
35810,note_off,72,0,0,,2,,,74,127
35817,note_on,7,0,0,,12,,,71,127
35889,note_off,72,0,0,,12,,,71,127
35889,note_off,0,0,0,,10,,,57,127
35889,note_off,0,0,0,,0,,,48,127
35896,note_on,7,0,0,,10,,,69,127
35896,note_on,0,0,0,,10,,,81,127
35896,note_on,0,0,0,,0,,,60,127
35896,note_on,0,0,0,,4,,,52,127
36052,note_off,156,0,0,,4,,,52,127
36052,note_off,0,0,0,,0,,,60,127
36055,note_on,3,0,0,,5,,,53,127
36055,note_on,0,0,0,,2,,,62,127
36211,note_off,156,0,0,,2,,,62,127
36211,note_off,0,0,0,,5,,,53,127
36214,note_on,3,0,0,,0,,,60,127
36214,note_on,0,0,0,,4,,,52,127
36365,note_off,151,0,0,,10,,,69,127
36369,note_off,4,0,0,,4,,,52,127
36369,note_off,0,0,0,,0,,,60,127
36372,note_on,3,0,0,,12,,,71,127
36372,note_on,0,0,0,,12,,,59,127
36372,note_on,0,0,0,,2,,,50,127
36528,note_off,156,0,0,,2,,,50,127
36528,note_off,0,0,0,,12,,,59,127
36528,note_off,0,0,0,,12,,,71,127
36531,note_on,3,0,0,,0,,,72,127
36531,note_on,0,0,0,,0,,,48,127
36531,note_on,0,0,0,,10,,,57,127
36687,note_off,156,0,0,,10,,,57,127
36687,note_off,0,0,0,,0,,,48,127
36687,note_off,0,0,0,,0,,,72,127
36690,note_on,3,0,0,,2,,,74,127
36690,note_on,0,0,0,,8,,,56,127
36690,note_on,0,0,0,,12,,,47,127
36846,note_off,156,0,0,,12,,,47,127
36846,note_off,0,0,0,,8,,,56,127
36846,note_off,0,0,0,,2,,,74,127
36848,note_off,2,0,0,,10,,,81,127
36850,note_on,2,0,0,,4,,,76,127
36850,note_on,0,0,0,,10,,,57,127
36850,note_on,0,0,0,,0,,,48,127
37009,note_on,159,0,0,,10,,,69,127
37160,note_off,151,0,0,,0,,,48,127
37160,note_off,0,0,0,,10,,,57,127
37164,note_off,4,0,0,,10,,,69,127
37164,note_off,0,0,0,,4,,,76,127
37167,note_on,3,0,0,,2,,,74,127
37167,note_on,0,0,0,,2,,,50,127
37167,note_on,0,0,0,,12,,,59,127
37323,note_off,156,0,0,,2,,,74,127
37326,note_on,3,0,0,,0,,,72,127
37398,note_off,72,0,0,,0,,,72,127
37405,note_on,7,0,0,,12,,,71,127
37477,note_off,72,0,0,,12,,,71,127
37477,note_off,0,0,0,,12,,,59,127
37477,note_off,0,0,0,,2,,,50,127
37484,note_on,7,0,0,,10,,,69,127
37484,note_on,0,0,0,,0,,,60,127
37484,note_on,0,0,0,,4,,,52,127
37794,note_off,310,0,0,,0,,,60,127
37801,note_on,7,0,0,,12,,,59,127
37880,note_off,79,0,0,,10,,,69,127
37880,note_on,0,0,0,,8,,,68,127
37952,note_off,72,0,0,,8,,,68,127
37959,note_on,7,0,0,,6,,,66,127
38031,note_off,72,0,0,,6,,,66,127
38038,note_on,7,0,0,,8,,,68,127
38110,note_off,72,0,0,,8,,,68,127
38114,note_off,4,0,0,,12,,,59,127
38116,note_off,2,0,0,,4,,,52,127
38117,note_on,1,0,0,,10,,,69,127
38273,note_off,156,0,0,,10,,,69,127
38276,note_on,3,0,0,,10,,,81,127
38276,note_on,0,0,0,,10,,,45,127
38432,note_off,156,0,0,,10,,,45,127
38432,note_off,0,0,0,,10,,,81,127
38435,note_on,3,0,0,,10,,,81,127
38435,note_on,0,0,0,,12,,,47,127
38591,note_off,156,0,0,,12,,,47,127
38594,note_on,3,0,0,,1,,,49,127
38750,note_off,156,0,0,,1,,,49,127
38753,note_on,3,0,0,,2,,,50,127
38904,note_off,151,0,0,,10,,,81,127
38908,note_off,4,0,0,,2,,,50,127
38911,note_on,3,0,0,,6,,,78,127
38911,note_on,0,0,0,,4,,,52,127
39067,note_off,156,0,0,,4,,,52,127
39067,note_off,0,0,0,,6,,,78,127
39070,note_on,3,0,0,,6,,,78,127
39070,note_on,0,0,0,,6,,,54,127
39226,note_off,156,0,0,,6,,,54,127
39229,note_on,3,0,0,,8,,,56,127
39385,note_off,156,0,0,,8,,,56,127
39388,note_on,3,0,0,,10,,,57,127
39539,note_off,151,0,0,,6,,,78,127
39543,note_off,4,0,0,,10,,,57,127
39546,note_on,3,0,0,,4,,,76,127
39546,note_on,0,0,0,,12,,,59,127
39702,note_off,156,0,0,,12,,,59,127
39702,note_off,0,0,0,,4,,,76,127
39705,note_on,3,0,0,,4,,,76,127
39705,note_on,0,0,0,,1,,,61,127
39861,note_off,156,0,0,,1,,,61,127
39864,note_on,3,0,0,,2,,,62,127
40020,note_off,156,0,0,,2,,,62,127
40023,note_on,3,0,0,,4,,,64,127
40174,note_off,151,0,0,,4,,,76,127
40181,note_on,7,0,0,,2,,,74,127
40181,note_on,0,0,0,,12,,,71,127
40337,note_off,156,0,0,,12,,,71,127
40337,note_off,0,0,0,,2,,,74,127
40340,note_on,3,0,0,,10,,,69,127
40340,note_on,0,0,0,,1,,,73,127
40340,note_on,0,0,0,,4,,,52,127
40496,note_off,156,0,0,,1,,,73,127
40496,note_off,0,0,0,,10,,,69,127
40499,note_on,3,0,0,,8,,,68,127
40499,note_on,0,0,0,,12,,,71,127
40655,note_off,156,0,0,,12,,,71,127
40655,note_off,0,0,0,,8,,,68,127
40657,note_off,2,0,0,,4,,,64,127
40658,note_on,1,0,0,,10,,,69,127
40658,note_on,0,0,0,,1,,,73,127
40688,note_off,30,0,0,,4,,,52,127
40814,note_off,126,0,0,,1,,,73,127
40814,note_off,0,0,0,,10,,,69,127
40817,note_on,3,0,0,,10,,,81,127
40817,note_on,0,0,0,,10,,,45,127
40973,note_off,156,0,0,,10,,,45,127
40973,note_off,0,0,0,,10,,,81,127
40976,note_on,3,0,0,,10,,,81,127
40976,note_on,0,0,0,,12,,,47,127
41132,note_off,156,0,0,,12,,,47,127
41135,note_on,3,0,0,,1,,,49,127
41291,note_off,156,0,0,,1,,,49,127
41294,note_on,3,0,0,,2,,,50,127
41445,note_off,151,0,0,,10,,,81,127
41449,note_off,4,0,0,,2,,,50,127
41452,note_on,3,0,0,,6,,,78,127
41452,note_on,0,0,0,,4,,,52,127
41608,note_off,156,0,0,,4,,,52,127
41608,note_off,0,0,0,,6,,,78,127
41611,note_on,3,0,0,,6,,,78,127
41611,note_on,0,0,0,,6,,,54,127
41767,note_off,156,0,0,,6,,,54,127
41770,note_on,3,0,0,,8,,,56,127
41926,note_off,156,0,0,,8,,,56,127
41929,note_on,3,0,0,,10,,,57,127
42080,note_off,151,0,0,,6,,,78,127
42084,note_off,4,0,0,,10,,,57,127
42087,note_on,3,0,0,,4,,,76,127
42087,note_on,0,0,0,,12,,,59,127
42243,note_off,156,0,0,,12,,,59,127
42243,note_off,0,0,0,,4,,,76,127
42246,note_on,3,0,0,,4,,,76,127
42246,note_on,0,0,0,,1,,,61,127
42402,note_off,156,0,0,,1,,,61,127
42405,note_on,3,0,0,,2,,,62,127
42561,note_off,156,0,0,,2,,,62,127
42564,note_on,3,0,0,,4,,,64,127
42715,note_off,151,0,0,,4,,,76,127
42722,note_on,7,0,0,,12,,,71,127
42722,note_on,0,0,0,,2,,,74,127
42873,note_off,151,0,0,,4,,,64,127
42877,note_off,4,0,0,,2,,,74,127
42877,note_off,0,0,0,,12,,,71,127
42880,note_on,3,0,0,,10,,,69,127
42880,note_on,0,0,0,,1,,,73,127
42880,note_on,0,0,0,,4,,,52,127
42880,note_on,0,0,0,,4,,,40,127
43036,note_off,156,0,0,,1,,,73,127
43036,note_off,0,0,0,,10,,,69,127
43039,note_on,3,0,0,,12,,,71,127
43039,note_on,0,0,0,,8,,,68,127
43190,note_off,151,0,0,,4,,,40,127
43190,note_off,0,0,0,,4,,,52,127
43194,note_off,4,0,0,,8,,,68,127
43194,note_off,0,0,0,,12,,,71,127
43197,note_on,3,0,0,,10,,,69,127
43197,note_on,0,0,0,,1,,,73,127
43197,note_on,0,0,0,,10,,,57,127
43197,note_on,0,0,0,,10,,,45,127
43353,note_off,156,0,0,,1,,,73,127
43353,note_off,0,0,0,,10,,,69,127
43356,note_on,3,0,0,,4,,,76,127
43356,note_on,0,0,0,,1,,,85,127
43507,note_off,151,0,0,,10,,,45,127
43507,note_off,0,0,0,,10,,,57,127
43511,note_off,4,0,0,,1,,,85,127
43511,note_off,0,0,0,,4,,,76,127
43514,note_on,3,0,0,,1,,,85,127
43514,note_on,0,0,0,,4,,,76,127
43514,note_on,0,0,0,,2,,,62,127
43670,note_off,156,0,0,,4,,,76,127
43670,note_off,0,0,0,,1,,,85,127
43673,note_on,3,0,0,,6,,,78,127
43673,note_on,0,0,0,,2,,,86,127
43824,note_off,151,0,0,,2,,,62,127
43828,note_off,4,0,0,,2,,,86,127
43828,note_off,0,0,0,,6,,,78,127
43831,note_on,3,0,0,,1,,,85,127
43831,note_on,0,0,0,,4,,,76,127
43831,note_on,0,0,0,,4,,,64,127
43987,note_off,156,0,0,,4,,,76,127
43987,note_off,0,0,0,,1,,,85,127
43990,note_on,3,0,0,,12,,,83,127
43990,note_on,0,0,0,,2,,,74,127
44141,note_off,151,0,0,,4,,,64,127
44145,note_off,4,0,0,,2,,,74,127
44145,note_off,0,0,0,,12,,,83,127
44148,note_on,3,0,0,,10,,,81,127
44148,note_on,0,0,0,,1,,,73,127
44148,note_on,0,0,0,,4,,,52,127
44304,note_off,156,0,0,,1,,,73,127
44304,note_off,0,0,0,,10,,,81,127
44307,note_on,3,0,0,,8,,,80,127
44307,note_on,0,0,0,,12,,,71,127
44458,note_off,151,0,0,,4,,,52,127
44462,note_off,4,0,0,,12,,,71,127
44462,note_off,0,0,0,,8,,,80,127
44465,note_on,3,0,0,,1,,,73,127
44465,note_on,0,0,0,,10,,,81,127
44465,note_on,0,0,0,,10,,,57,127
44621,note_off,156,0,0,,10,,,81,127
44621,note_off,0,0,0,,1,,,73,127
44624,note_on,3,0,0,,4,,,76,127
44624,note_on,0,0,0,,1,,,73,127
44775,note_off,151,0,0,,10,,,57,127
44779,note_off,4,0,0,,1,,,73,127
44779,note_off,0,0,0,,4,,,76,127
44782,note_on,3,0,0,,1,,,73,127
44782,note_on,0,0,0,,4,,,76,127
44782,note_on,0,0,0,,2,,,50,127
44938,note_off,156,0,0,,4,,,76,127
44938,note_off,0,0,0,,1,,,73,127
44941,note_on,3,0,0,,2,,,74,127
44941,note_on,0,0,0,,6,,,78,127
45092,note_off,151,0,0,,2,,,50,127
45096,note_off,4,0,0,,6,,,78,127
45096,note_off,0,0,0,,2,,,74,127
45099,note_on,3,0,0,,4,,,76,127
45099,note_on,0,0,0,,1,,,73,127
45099,note_on,0,0,0,,4,,,52,127
45255,note_off,156,0,0,,1,,,73,127
45255,note_off,0,0,0,,4,,,76,127
45258,note_on,3,0,0,,12,,,71,127
45258,note_on,0,0,0,,2,,,74,127
45414,note_off,156,0,0,,2,,,74,127
45414,note_off,0,0,0,,12,,,71,127
45417,note_on,3,0,0,,1,,,73,127
45417,note_on,0,0,0,,10,,,69,127
45417,note_on,0,0,0,,4,,,40,127
45573,note_off,156,0,0,,10,,,69,127
45573,note_off,0,0,0,,1,,,73,127
45576,note_on,3,0,0,,8,,,68,127
45576,note_on,0,0,0,,12,,,71,127
45727,note_off,151,0,0,,4,,,40,127
45731,note_off,4,0,0,,12,,,71,127
45731,note_off,0,0,0,,8,,,68,127
45733,note_off,2,0,0,,4,,,52,127
45734,note_on,1,0,0,,10,,,69,127
45734,note_on,0,0,0,,10,,,45,127
46893,note_off,1159,0,0,,10,,,45,127
46999,note_off,106,0,0,,10,,,69,127
47006,note_on,7,0,0,,10,,,45,127
47085,note_on,79,0,0,,10,,,69,127
47164,note_on,79,0,0,,12,,,71,127
47176,note_off,12,0,0,,10,,,69,127
47244,note_on,68,0,0,,1,,,73,127
47256,note_off,12,0,0,,12,,,71,127
47324,note_on,68,0,0,,2,,,74,127
47336,note_off,12,0,0,,1,,,73,127
47404,note_on,68,0,0,,4,,,76,127
47416,note_off,12,0,0,,2,,,74,127
47484,note_on,68,0,0,,6,,,78,127
47496,note_off,12,0,0,,4,,,76,127
47564,note_on,68,0,0,,7,,,79,127
47576,note_off,12,0,0,,6,,,78,127
47636,note_off,60,0,0,,10,,,45,127
47643,note_on,7,0,0,,10,,,81,127
47643,note_on,0,0,0,,10,,,57,127
47655,note_off,12,0,0,,7,,,79,127
47723,note_on,68,0,0,,7,,,79,127
47735,note_off,12,0,0,,10,,,81,127
47803,note_on,68,0,0,,6,,,78,127
47815,note_off,12,0,0,,7,,,79,127
47883,note_on,68,0,0,,4,,,76,127
47895,note_off,12,0,0,,6,,,78,127
47955,note_off,60,0,0,,10,,,57,127
47962,note_on,7,0,0,,2,,,74,127
47962,note_on,0,0,0,,7,,,55,127
47974,note_off,12,0,0,,4,,,76,127
48042,note_on,68,0,0,,1,,,73,127
48054,note_off,12,0,0,,2,,,74,127
48122,note_on,68,0,0,,12,,,71,127
48134,note_off,12,0,0,,1,,,73,127
48202,note_on,68,0,0,,10,,,69,127
48214,note_off,12,0,0,,12,,,71,127
48274,note_off,60,0,0,,7,,,55,127
48281,note_on,7,0,0,,2,,,74,127
48281,note_on,0,0,0,,6,,,54,127
48293,note_off,12,0,0,,10,,,69,127
48361,note_on,68,0,0,,10,,,69,127
48373,note_off,12,0,0,,2,,,74,127
48441,note_on,68,0,0,,12,,,71,127
48453,note_off,12,0,0,,10,,,69,127
48521,note_on,68,0,0,,1,,,73,127
48533,note_off,12,0,0,,12,,,71,127
48601,note_on,68,0,0,,2,,,74,127
48613,note_off,12,0,0,,1,,,73,127
48681,note_on,68,0,0,,4,,,76,127
48693,note_off,12,0,0,,2,,,74,127
48761,note_on,68,0,0,,6,,,78,127
48773,note_off,12,0,0,,4,,,76,127
48841,note_on,68,0,0,,7,,,79,127
48853,note_off,12,0,0,,6,,,78,127
48913,note_off,60,0,0,,6,,,54,127
48920,note_on,7,0,0,,10,,,81,127
48920,note_on,0,0,0,,2,,,50,127
48932,note_off,12,0,0,,7,,,79,127
49000,note_on,68,0,0,,7,,,79,127
49012,note_off,12,0,0,,10,,,81,127
49080,note_on,68,0,0,,6,,,78,127
49092,note_off,12,0,0,,7,,,79,127
49160,note_on,68,0,0,,4,,,76,127
49172,note_off,12,0,0,,6,,,78,127
49240,note_on,68,0,0,,2,,,74,127
49252,note_off,12,0,0,,4,,,76,127
49320,note_on,68,0,0,,1,,,73,127
49332,note_off,12,0,0,,2,,,74,127
49400,note_on,68,0,0,,12,,,71,127
49412,note_off,12,0,0,,1,,,73,127
49480,note_on,68,0,0,,10,,,69,127
49492,note_off,12,0,0,,12,,,71,127
49559,note_off,67,0,0,,2,,,50,127
49560,note_on,1,0,0,,4,,,76,127
49572,note_off,12,0,0,,10,,,69,127
49640,note_on,68,0,0,,10,,,45,127
49719,note_on,79,0,0,,12,,,47,127
49731,note_off,12,0,0,,10,,,45,127
49799,note_on,68,0,0,,1,,,49,127
49811,note_off,12,0,0,,12,,,47,127
49879,note_on,68,0,0,,2,,,50,127
49891,note_off,12,0,0,,1,,,49,127
49959,note_on,68,0,0,,4,,,52,127
49971,note_off,12,0,0,,2,,,50,127
50039,note_on,68,0,0,,6,,,54,127
50051,note_off,12,0,0,,4,,,52,127
50119,note_on,68,0,0,,7,,,55,127
50131,note_off,12,0,0,,6,,,54,127
50199,note_on,68,0,0,,10,,,57,127
50211,note_off,12,0,0,,7,,,55,127
50279,note_on,68,0,0,,7,,,55,127
50291,note_off,12,0,0,,10,,,57,127
50359,note_on,68,0,0,,6,,,54,127
50371,note_off,12,0,0,,7,,,55,127
50439,note_on,68,0,0,,4,,,52,127
50451,note_off,12,0,0,,6,,,54,127
50511,note_off,60,0,0,,4,,,76,127
50518,note_on,7,0,0,,7,,,79,127
50518,note_on,0,0,0,,2,,,50,127
50530,note_off,12,0,0,,4,,,52,127
50598,note_on,68,0,0,,1,,,49,127
50610,note_off,12,0,0,,2,,,50,127
50678,note_on,68,0,0,,12,,,47,127
50690,note_off,12,0,0,,1,,,49,127
50758,note_on,68,0,0,,10,,,45,127
50770,note_off,12,0,0,,12,,,47,127
50830,note_off,60,0,0,,7,,,79,127
50837,note_on,7,0,0,,6,,,78,127
50849,note_off,12,0,0,,10,,,45,127
50917,note_on,68,0,0,,2,,,50,127
50996,note_on,79,0,0,,4,,,52,127
51008,note_off,12,0,0,,2,,,50,127
51076,note_on,68,0,0,,6,,,54,127
51088,note_off,12,0,0,,4,,,52,127
51156,note_on,68,0,0,,7,,,55,127
51168,note_off,12,0,0,,6,,,54,127
51236,note_on,68,0,0,,10,,,57,127
51248,note_off,12,0,0,,7,,,55,127
51316,note_on,68,0,0,,12,,,59,127
51328,note_off,12,0,0,,10,,,57,127
51396,note_on,68,0,0,,1,,,61,127
51408,note_off,12,0,0,,12,,,59,127
51476,note_on,68,0,0,,2,,,62,127
51488,note_off,12,0,0,,1,,,61,127
51556,note_on,68,0,0,,1,,,61,127
51568,note_off,12,0,0,,2,,,62,127
51636,note_on,68,0,0,,12,,,59,127
51648,note_off,12,0,0,,1,,,61,127
51716,note_on,68,0,0,,10,,,57,127
51728,note_off,12,0,0,,12,,,59,127
51788,note_off,60,0,0,,6,,,78,127
51795,note_on,7,0,0,,6,,,78,127
51795,note_on,0,0,0,,7,,,55,127
51807,note_off,12,0,0,,10,,,57,127
51875,note_on,68,0,0,,6,,,54,127
51887,note_off,12,0,0,,7,,,55,127
51955,note_on,68,0,0,,4,,,52,127
51967,note_off,12,0,0,,6,,,54,127
52035,note_on,68,0,0,,2,,,50,127
52047,note_off,12,0,0,,4,,,52,127
52107,note_off,60,0,0,,6,,,78,127
52114,note_on,7,0,0,,4,,,76,127
52114,note_on,0,0,0,,10,,,57,127
52114,note_on,0,0,0,,10,,,45,127
52126,note_off,12,0,0,,2,,,50,127
52194,note_on,68,0,0,,10,,,69,127
52206,note_off,12,0,0,,4,,,76,127
52274,note_on,68,0,0,,12,,,71,127
52286,note_off,12,0,0,,10,,,69,127
52354,note_on,68,0,0,,1,,,73,127
52366,note_off,12,0,0,,12,,,71,127
52426,note_off,60,0,0,,10,,,57,127
52433,note_on,7,0,0,,2,,,74,127
52433,note_on,0,0,0,,7,,,55,127
52445,note_off,12,0,0,,1,,,73,127
52513,note_on,68,0,0,,4,,,76,127
52525,note_off,12,0,0,,2,,,74,127
52593,note_on,68,0,0,,6,,,78,127
52605,note_off,12,0,0,,4,,,76,127
52673,note_on,68,0,0,,7,,,79,127
52685,note_off,12,0,0,,6,,,78,127
52745,note_off,60,0,0,,7,,,55,127
52752,note_on,7,0,0,,10,,,81,127
52752,note_on,0,0,0,,6,,,54,127
52764,note_off,12,0,0,,7,,,79,127
52832,note_on,68,0,0,,7,,,79,127
52844,note_off,12,0,0,,10,,,81,127
52912,note_on,68,0,0,,6,,,78,127
52924,note_off,12,0,0,,7,,,79,127
52992,note_on,68,0,0,,4,,,76,127
53004,note_off,12,0,0,,6,,,78,127
53064,note_off,60,0,0,,6,,,54,127
53071,note_on,7,0,0,,2,,,74,127
53071,note_on,0,0,0,,2,,,50,127
53083,note_off,12,0,0,,4,,,76,127
53151,note_on,68,0,0,,1,,,73,127
53163,note_off,12,0,0,,2,,,74,127
53231,note_on,68,0,0,,12,,,71,127
53243,note_off,12,0,0,,1,,,73,127
53311,note_on,68,0,0,,10,,,69,127
53323,note_off,12,0,0,,12,,,71,127
53383,note_off,60,0,0,,2,,,50,127
53385,note_off,2,0,0,,10,,,45,127
53390,note_on,5,0,0,,12,,,71,127
53390,note_on,0,0,0,,7,,,55,127
53402,note_off,12,0,0,,10,,,69,127
53470,note_on,68,0,0,,7,,,67,127
53482,note_off,12,0,0,,12,,,71,127
53550,note_on,68,0,0,,10,,,69,127
53562,note_off,12,0,0,,7,,,67,127
53630,note_on,68,0,0,,12,,,71,127
53642,note_off,12,0,0,,10,,,69,127
53707,note_off,65,0,0,,7,,,55,127
53710,note_on,3,0,0,,1,,,73,127
53710,note_on,0,0,0,,6,,,54,127
53722,note_off,12,0,0,,12,,,71,127
53790,note_on,68,0,0,,2,,,74,127
53802,note_off,12,0,0,,1,,,73,127
53870,note_on,68,0,0,,4,,,76,127
53882,note_off,12,0,0,,2,,,74,127
53950,note_on,68,0,0,,6,,,78,127
53962,note_off,12,0,0,,4,,,76,127
54023,note_off,61,0,0,,6,,,54,127
54030,note_on,7,0,0,,7,,,79,127
54030,note_on,0,0,0,,4,,,52,127
54042,note_off,12,0,0,,6,,,78,127
54110,note_on,68,0,0,,6,,,78,127
54122,note_off,12,0,0,,7,,,79,127
54190,note_on,68,0,0,,4,,,76,127
54202,note_off,12,0,0,,6,,,78,127
54270,note_on,68,0,0,,2,,,74,127
54282,note_off,12,0,0,,4,,,76,127
54343,note_off,61,0,0,,4,,,52,127
54350,note_on,7,0,0,,1,,,73,127
54350,note_on,0,0,0,,1,,,49,127
54362,note_off,12,0,0,,2,,,74,127
54430,note_on,68,0,0,,12,,,71,127
54442,note_off,12,0,0,,1,,,73,127
54510,note_on,68,0,0,,10,,,69,127
54522,note_off,12,0,0,,12,,,71,127
54590,note_on,68,0,0,,7,,,67,127
54602,note_off,12,0,0,,10,,,69,127
54663,note_off,61,0,0,,1,,,49,127
54670,note_on,7,0,0,,10,,,69,127
54670,note_on,0,0,0,,6,,,54,127
54682,note_off,12,0,0,,7,,,67,127
54750,note_on,68,0,0,,6,,,66,127
54762,note_off,12,0,0,,10,,,69,127
54830,note_on,68,0,0,,7,,,67,127
54842,note_off,12,0,0,,6,,,66,127
54910,note_on,68,0,0,,10,,,69,127
54922,note_off,12,0,0,,7,,,67,127
54987,note_off,65,0,0,,6,,,54,127
54990,note_on,3,0,0,,12,,,71,127
54990,note_on,0,0,0,,4,,,52,127
55002,note_off,12,0,0,,10,,,69,127
55070,note_on,68,0,0,,1,,,73,127
55082,note_off,12,0,0,,12,,,71,127
55150,note_on,68,0,0,,2,,,74,127
55162,note_off,12,0,0,,1,,,73,127
55230,note_on,68,0,0,,4,,,76,127
55242,note_off,12,0,0,,2,,,74,127
55303,note_off,61,0,0,,4,,,52,127
55310,note_on,7,0,0,,6,,,78,127
55310,note_on,0,0,0,,2,,,50,127
55322,note_off,12,0,0,,4,,,76,127
55390,note_on,68,0,0,,4,,,76,127
55402,note_off,12,0,0,,6,,,78,127
55470,note_on,68,0,0,,2,,,74,127
55482,note_off,12,0,0,,4,,,76,127
55550,note_on,68,0,0,,1,,,73,127
55562,note_off,12,0,0,,2,,,74,127
55623,note_off,61,0,0,,2,,,50,127
55630,note_on,7,0,0,,12,,,71,127
55630,note_on,0,0,0,,12,,,47,127
55642,note_off,12,0,0,,1,,,73,127
55710,note_on,68,0,0,,10,,,69,127
55722,note_off,12,0,0,,12,,,71,127
55790,note_on,68,0,0,,7,,,67,127
55802,note_off,12,0,0,,10,,,69,127
55870,note_on,68,0,0,,6,,,66,127
55882,note_off,12,0,0,,7,,,67,127
55943,note_off,61,0,0,,12,,,47,127
55950,note_on,7,0,0,,7,,,67,127
55950,note_on,0,0,0,,4,,,52,127
55962,note_off,12,0,0,,6,,,66,127
56030,note_on,68,0,0,,4,,,64,127
56042,note_off,12,0,0,,7,,,67,127
56110,note_on,68,0,0,,6,,,66,127
56122,note_off,12,0,0,,4,,,64,127
56190,note_on,68,0,0,,7,,,67,127
56202,note_off,12,0,0,,6,,,66,127
56267,note_off,65,0,0,,4,,,52,127
56270,note_on,3,0,0,,10,,,69,127
56270,note_on,0,0,0,,2,,,50,127
56282,note_off,12,0,0,,7,,,67,127
56350,note_on,68,0,0,,12,,,71,127
56362,note_off,12,0,0,,10,,,69,127
56430,note_on,68,0,0,,1,,,73,127
56442,note_off,12,0,0,,12,,,71,127
56510,note_on,68,0,0,,2,,,74,127
56522,note_off,12,0,0,,1,,,73,127
56583,note_off,61,0,0,,2,,,50,127
56590,note_on,7,0,0,,4,,,76,127
56590,note_on,0,0,0,,1,,,49,127
56602,note_off,12,0,0,,2,,,74,127
56670,note_on,68,0,0,,2,,,74,127
56682,note_off,12,0,0,,4,,,76,127
56750,note_on,68,0,0,,1,,,73,127
56762,note_off,12,0,0,,2,,,74,127
56830,note_on,68,0,0,,12,,,71,127
56842,note_off,12,0,0,,1,,,73,127
56903,note_off,61,0,0,,1,,,49,127
56910,note_on,7,0,0,,10,,,69,127
56910,note_on,0,0,0,,10,,,45,127
56922,note_off,12,0,0,,12,,,71,127
56990,note_on,68,0,0,,7,,,67,127
57002,note_off,12,0,0,,10,,,69,127
57070,note_on,68,0,0,,6,,,66,127
57082,note_off,12,0,0,,7,,,67,127
57150,note_on,68,0,0,,4,,,64,127
57162,note_off,12,0,0,,6,,,66,127
57227,note_off,65,0,0,,10,,,45,127
57230,note_on,3,0,0,,6,,,66,127
57242,note_off,12,0,0,,4,,,64,127
57310,note_on,68,0,0,,2,,,50,127
57389,note_on,79,0,0,,4,,,52,127
57401,note_off,12,0,0,,2,,,50,127
57469,note_on,68,0,0,,6,,,54,127
57481,note_off,12,0,0,,4,,,52,127
57541,note_off,60,0,0,,6,,,66,127
57548,note_on,7,0,0,,2,,,74,127
57548,note_on,0,0,0,,7,,,55,127
57560,note_off,12,0,0,,6,,,54,127
57628,note_on,68,0,0,,10,,,57,127
57640,note_off,12,0,0,,7,,,55,127
57708,note_on,68,0,0,,12,,,59,127
57720,note_off,12,0,0,,10,,,57,127
57788,note_on,68,0,0,,1,,,61,127
57800,note_off,12,0,0,,12,,,59,127
57860,note_off,60,0,0,,2,,,74,127
57867,note_on,7,0,0,,10,,,69,127
57867,note_on,0,0,0,,2,,,62,127
57879,note_off,12,0,0,,1,,,61,127
57947,note_on,68,0,0,,1,,,61,127
57959,note_off,12,0,0,,2,,,62,127
58027,note_on,68,0,0,,12,,,59,127
58039,note_off,12,0,0,,1,,,61,127
58107,note_on,68,0,0,,10,,,57,127
58119,note_off,12,0,0,,12,,,59,127
58179,note_off,60,0,0,,10,,,69,127
58186,note_on,7,0,0,,6,,,66,127
58186,note_on,0,0,0,,7,,,55,127
58198,note_off,12,0,0,,10,,,57,127
58266,note_on,68,0,0,,6,,,54,127
58278,note_off,12,0,0,,7,,,55,127
58346,note_on,68,0,0,,4,,,52,127
58358,note_off,12,0,0,,6,,,54,127
58426,note_on,68,0,0,,2,,,50,127
58438,note_off,12,0,0,,4,,,52,127
58498,note_off,60,0,0,,6,,,66,127
58505,note_on,7,0,0,,7,,,67,127
58505,note_on,0,0,0,,4,,,52,127
58517,note_off,12,0,0,,2,,,50,127
58585,note_on,68,0,0,,1,,,49,127
58597,note_off,12,0,0,,4,,,52,127
58665,note_on,68,0,0,,2,,,50,127
58677,note_off,12,0,0,,1,,,49,127
58745,note_on,68,0,0,,4,,,52,127
58757,note_off,12,0,0,,2,,,50,127
58817,note_off,60,0,0,,7,,,67,127
58824,note_on,7,0,0,,4,,,76,127
58824,note_on,0,0,0,,6,,,54,127
58836,note_off,12,0,0,,4,,,52,127
58904,note_on,68,0,0,,7,,,55,127
58916,note_off,12,0,0,,6,,,54,127
58984,note_on,68,0,0,,10,,,57,127
58996,note_off,12,0,0,,7,,,55,127
59064,note_on,68,0,0,,12,,,59,127
59076,note_off,12,0,0,,10,,,57,127
59136,note_off,60,0,0,,4,,,76,127
59143,note_on,7,0,0,,1,,,73,127
59143,note_on,0,0,0,,1,,,61,127
59155,note_off,12,0,0,,12,,,59,127
59223,note_on,68,0,0,,12,,,59,127
59235,note_off,12,0,0,,1,,,61,127
59303,note_on,68,0,0,,10,,,57,127
59315,note_off,12,0,0,,12,,,59,127
59383,note_on,68,0,0,,7,,,55,127
59395,note_off,12,0,0,,10,,,57,127
59455,note_off,60,0,0,,1,,,73,127
59462,note_on,7,0,0,,7,,,67,127
59462,note_on,0,0,0,,6,,,54,127
59474,note_off,12,0,0,,7,,,55,127
59542,note_on,68,0,0,,4,,,52,127
59554,note_off,12,0,0,,6,,,54,127
59622,note_on,68,0,0,,2,,,50,127
59634,note_off,12,0,0,,4,,,52,127
59702,note_on,68,0,0,,1,,,49,127
59714,note_off,12,0,0,,2,,,50,127
59774,note_off,60,0,0,,7,,,67,127
59781,note_on,7,0,0,,6,,,66,127
59781,note_on,0,0,0,,2,,,50,127
59793,note_off,12,0,0,,1,,,49,127
59861,note_on,68,0,0,,12,,,47,127
59873,note_off,12,0,0,,2,,,50,127
59941,note_on,68,0,0,,1,,,49,127
59953,note_off,12,0,0,,12,,,47,127
60021,note_on,68,0,0,,2,,,50,127
60033,note_off,12,0,0,,1,,,49,127
60093,note_off,60,0,0,,6,,,66,127
60100,note_on,7,0,0,,2,,,74,127
60100,note_on,0,0,0,,4,,,52,127
60112,note_off,12,0,0,,2,,,50,127
60180,note_on,68,0,0,,6,,,54,127
60192,note_off,12,0,0,,4,,,52,127
60260,note_on,68,0,0,,7,,,55,127
60272,note_off,12,0,0,,6,,,54,127
60340,note_on,68,0,0,,10,,,57,127
60352,note_off,12,0,0,,7,,,55,127
60412,note_off,60,0,0,,2,,,74,127
60419,note_on,7,0,0,,12,,,71,127
60419,note_on,0,0,0,,12,,,59,127
60431,note_off,12,0,0,,10,,,57,127
60499,note_on,68,0,0,,10,,,57,127
60511,note_off,12,0,0,,12,,,59,127
60579,note_on,68,0,0,,7,,,55,127
60591,note_off,12,0,0,,10,,,57,127
60659,note_on,68,0,0,,6,,,54,127
60671,note_off,12,0,0,,7,,,55,127
60731,note_off,60,0,0,,12,,,71,127
60738,note_on,7,0,0,,7,,,67,127
60738,note_on,0,0,0,,4,,,52,127
60750,note_off,12,0,0,,6,,,54,127
60818,note_on,68,0,0,,2,,,50,127
60830,note_off,12,0,0,,4,,,52,127
60898,note_on,68,0,0,,1,,,49,127
60910,note_off,12,0,0,,2,,,50,127
60978,note_on,68,0,0,,12,,,47,127
60990,note_off,12,0,0,,1,,,49,127
61050,note_off,60,0,0,,7,,,67,127
61057,note_on,7,0,0,,10,,,69,127
61057,note_on,0,0,0,,1,,,49,127
61069,note_off,12,0,0,,12,,,47,127
61137,note_on,68,0,0,,10,,,45,127
61149,note_off,12,0,0,,1,,,49,127
61217,note_on,68,0,0,,12,,,47,127
61229,note_off,12,0,0,,10,,,45,127
61297,note_on,68,0,0,,1,,,49,127
61309,note_off,12,0,0,,12,,,47,127
61369,note_off,60,0,0,,10,,,69,127
61376,note_on,7,0,0,,6,,,78,127
61376,note_on,0,0,0,,2,,,50,127
61388,note_off,12,0,0,,1,,,49,127
61456,note_on,68,0,0,,4,,,52,127
61468,note_off,12,0,0,,2,,,50,127
61536,note_on,68,0,0,,6,,,54,127
61548,note_off,12,0,0,,4,,,52,127
61616,note_on,68,0,0,,7,,,55,127
61628,note_off,12,0,0,,6,,,54,127
61688,note_off,60,0,0,,6,,,78,127
61695,note_on,7,0,0,,4,,,76,127
61695,note_on,0,0,0,,10,,,57,127
61707,note_off,12,0,0,,7,,,55,127
61775,note_on,68,0,0,,12,,,59,127
61787,note_off,12,0,0,,10,,,57,127
61855,note_on,68,0,0,,1,,,61,127
61867,note_off,12,0,0,,12,,,59,127
61935,note_on,68,0,0,,10,,,57,127
61947,note_off,12,0,0,,1,,,61,127
62007,note_off,60,0,0,,4,,,76,127
62014,note_on,7,0,0,,6,,,78,127
62014,note_on,0,0,0,,2,,,62,127
62026,note_off,12,0,0,,10,,,57,127
62094,note_on,68,0,0,,4,,,64,127
62106,note_off,12,0,0,,2,,,62,127
62174,note_on,68,0,0,,6,,,66,127
62186,note_off,12,0,0,,4,,,64,127
62254,note_on,68,0,0,,7,,,67,127
62266,note_off,12,0,0,,6,,,66,127
62326,note_off,60,0,0,,6,,,78,127
62333,note_on,7,0,0,,4,,,76,127
62333,note_on,0,0,0,,10,,,69,127
62345,note_off,12,0,0,,7,,,67,127
62413,note_on,68,0,0,,12,,,71,127
62425,note_off,12,0,0,,10,,,69,127
62493,note_on,68,0,0,,1,,,73,127
62505,note_off,12,0,0,,12,,,71,127
62573,note_on,68,0,0,,10,,,69,127
62585,note_off,12,0,0,,1,,,73,127
62645,note_off,60,0,0,,4,,,76,127
62652,note_on,7,0,0,,6,,,78,127
62652,note_on,0,0,0,,2,,,74,127
62664,note_off,12,0,0,,10,,,69,127
62732,note_on,68,0,0,,1,,,73,127
62744,note_off,12,0,0,,2,,,74,127
62812,note_on,68,0,0,,2,,,74,127
62824,note_off,12,0,0,,1,,,73,127
62892,note_on,68,0,0,,2,,,62,127
62904,note_off,12,0,0,,2,,,74,127
62964,note_off,60,0,0,,6,,,78,127
62971,note_on,7,0,0,,4,,,76,127
62971,note_on,0,0,0,,10,,,69,127
62983,note_off,12,0,0,,2,,,62,127
63051,note_on,68,0,0,,8,,,68,127
63063,note_off,12,0,0,,10,,,69,127
63131,note_on,68,0,0,,10,,,69,127
63143,note_off,12,0,0,,8,,,68,127
63211,note_on,68,0,0,,10,,,57,127
63223,note_off,12,0,0,,10,,,69,127
63283,note_off,60,0,0,,4,,,76,127
63290,note_on,7,0,0,,6,,,78,127
63290,note_on,0,0,0,,2,,,62,127
63302,note_off,12,0,0,,10,,,57,127
63370,note_on,68,0,0,,1,,,61,127
63382,note_off,12,0,0,,2,,,62,127
63450,note_on,68,0,0,,2,,,62,127
63462,note_off,12,0,0,,1,,,61,127
63530,note_on,68,0,0,,2,,,50,127
63542,note_off,12,0,0,,2,,,62,127
63602,note_off,60,0,0,,6,,,78,127
63609,note_on,7,0,0,,4,,,76,127
63609,note_on,0,0,0,,10,,,57,127
63621,note_off,12,0,0,,2,,,50,127
63689,note_on,68,0,0,,8,,,56,127
63701,note_off,12,0,0,,10,,,57,127
63769,note_on,68,0,0,,10,,,57,127
63781,note_off,12,0,0,,8,,,56,127
63849,note_on,68,0,0,,10,,,45,127
63861,note_off,12,0,0,,10,,,57,127
63921,note_off,60,0,0,,4,,,76,127
63928,note_on,7,0,0,,6,,,78,127
63928,note_on,0,0,0,,2,,,50,127
63940,note_off,12,0,0,,10,,,45,127
64008,note_on,68,0,0,,1,,,49,127
64020,note_off,12,0,0,,2,,,50,127
64088,note_on,68,0,0,,2,,,50,127
64100,note_off,12,0,0,,1,,,49,127
64168,note_on,68,0,0,,2,,,38,127
64180,note_off,12,0,0,,2,,,50,127
64240,note_off,60,0,0,,6,,,78,127
64247,note_on,7,0,0,,4,,,76,127
64247,note_on,0,0,0,,10,,,45,127
64259,note_off,12,0,0,,2,,,38,127
64327,note_on,68,0,0,,10,,,81,127
64339,note_off,12,0,0,,4,,,76,127
64407,note_on,68,0,0,,7,,,79,127
64419,note_off,12,0,0,,10,,,81,127
64487,note_on,68,0,0,,6,,,78,127
64499,note_off,12,0,0,,7,,,79,127
64567,note_on,68,0,0,,4,,,76,127
64579,note_off,12,0,0,,6,,,78,127
64647,note_on,68,0,0,,2,,,74,127
64659,note_off,12,0,0,,4,,,76,127
64727,note_on,68,0,0,,1,,,73,127
64739,note_off,12,0,0,,2,,,74,127
64807,note_on,68,0,0,,12,,,71,127
64819,note_off,12,0,0,,1,,,73,127
64886,note_off,67,0,0,,10,,,45,127
64887,note_on,1,0,0,,10,,,69,127
64899,note_off,12,0,0,,12,,,71,127
64962,note_off,63,0,0,,10,,,69,127
64967,note_on,5,0,0,,10,,,69,127
65046,note_on,79,0,0,,7,,,67,127
65125,note_on,79,0,0,,6,,,66,127
65137,note_off,12,0,0,,7,,,67,127
65205,note_on,68,0,0,,4,,,64,127
65217,note_off,12,0,0,,6,,,66,127
65285,note_on,68,0,0,,2,,,62,127
65297,note_off,12,0,0,,4,,,64,127
65365,note_on,68,0,0,,1,,,61,127
65377,note_off,12,0,0,,2,,,62,127
65445,note_on,68,0,0,,12,,,59,127
65457,note_off,12,0,0,,1,,,61,127
65525,note_on,68,0,0,,10,,,57,127
65537,note_off,12,0,0,,12,,,59,127
65600,note_off,63,0,0,,10,,,57,127
65604,note_off,4,0,0,,10,,,69,127
65605,note_on,1,0,0,,10,,,57,127
65684,note_on,79,0,0,,7,,,55,127
65763,note_on,79,0,0,,6,,,54,127
65775,note_off,12,0,0,,7,,,55,127
65843,note_on,68,0,0,,4,,,52,127
65855,note_off,12,0,0,,6,,,54,127
65923,note_on,68,0,0,,2,,,50,127
65935,note_off,12,0,0,,4,,,52,127
66003,note_on,68,0,0,,1,,,49,127
66015,note_off,12,0,0,,2,,,50,127
66083,note_on,68,0,0,,12,,,47,127
66095,note_off,12,0,0,,1,,,49,127
66163,note_on,68,0,0,,10,,,45,127
66175,note_off,12,0,0,,12,,,47,127
66435,note_off,260,0,0,,10,,,57,127
67115,note_off,680,0,0,,10,,,45,127
67117,note_on,2,0,0,,1,,,73,127
67117,note_on,0,0,0,,4,,,64,127
67273,note_off,156,0,0,,4,,,64,127
67273,note_off,0,0,0,,1,,,73,127
67276,note_on,3,0,0,,2,,,74,127
67276,note_on,0,0,0,,5,,,65,127
67432,note_off,156,0,0,,5,,,65,127
67432,note_off,0,0,0,,2,,,74,127
67435,note_on,3,0,0,,7,,,67,127
67435,note_on,0,0,0,,4,,,76,127
67591,note_off,156,0,0,,4,,,76,127
67591,note_off,0,0,0,,7,,,67,127
67594,note_on,3,0,0,,10,,,69,127
67594,note_on,0,0,0,,5,,,77,127
67750,note_off,156,0,0,,5,,,77,127
67750,note_off,0,0,0,,10,,,69,127
67753,note_on,3,0,0,,7,,,79,127
67753,note_on,0,0,0,,12,,,71,127
67909,note_off,156,0,0,,12,,,71,127
67909,note_off,0,0,0,,7,,,79,127
67912,note_on,3,0,0,,1,,,73,127
67912,note_on,0,0,0,,4,,,76,127
68068,note_off,156,0,0,,4,,,76,127
68068,note_off,0,0,0,,1,,,73,127
68071,note_on,3,0,0,,5,,,77,127
68071,note_on,0,0,0,,2,,,74,127
68071,note_on,0,0,0,,7,,,79,127
68227,note_off,156,0,0,,7,,,79,127
68227,note_off,0,0,0,,5,,,77,127
68230,note_on,3,0,0,,4,,,76,127
68386,note_off,156,0,0,,4,,,76,127
68386,note_off,0,0,0,,2,,,74,127
68389,note_on,3,0,0,,2,,,74,127
68389,note_on,0,0,0,,5,,,65,127
68389,note_on,0,0,0,,10,,,57,127
68545,note_off,156,0,0,,10,,,57,127
68545,note_off,0,0,0,,5,,,65,127
68548,note_on,3,0,0,,7,,,67,127
68548,note_on,0,0,0,,11,,,58,127
68704,note_off,156,0,0,,11,,,58,127
68704,note_off,0,0,0,,7,,,67,127
68707,note_on,3,0,0,,5,,,65,127
68707,note_on,0,0,0,,10,,,57,127
68858,note_off,151,0,0,,2,,,74,127
68862,note_off,4,0,0,,10,,,57,127
68862,note_off,0,0,0,,5,,,65,127
68865,note_on,3,0,0,,4,,,76,127
68865,note_on,0,0,0,,4,,,64,127
68865,note_on,0,0,0,,7,,,55,127
69021,note_off,156,0,0,,7,,,55,127
69021,note_off,0,0,0,,4,,,64,127
69021,note_off,0,0,0,,4,,,76,127
69024,note_on,3,0,0,,5,,,77,127
69024,note_on,0,0,0,,5,,,53,127
69024,note_on,0,0,0,,2,,,62,127
69180,note_off,156,0,0,,2,,,62,127
69180,note_off,0,0,0,,5,,,53,127
69180,note_off,0,0,0,,5,,,77,127
69183,note_on,3,0,0,,7,,,79,127
69183,note_on,0,0,0,,1,,,61,127
69183,note_on,0,0,0,,4,,,52,127
69339,note_off,156,0,0,,4,,,52,127
69339,note_off,0,0,0,,1,,,61,127
69339,note_off,0,0,0,,7,,,79,127
69342,note_on,3,0,0,,7,,,79,127
69342,note_on,0,0,0,,5,,,77,127
69342,note_on,0,0,0,,2,,,74,127
69342,note_on,0,0,0,,2,,,62,127
69342,note_on,0,0,0,,5,,,53,127
69498,note_off,156,0,0,,5,,,77,127
69498,note_off,0,0,0,,7,,,79,127
69501,note_on,3,0,0,,4,,,76,127
69652,note_off,151,0,0,,5,,,53,127
69652,note_off,0,0,0,,2,,,62,127
69656,note_off,4,0,0,,4,,,76,127
69656,note_off,0,0,0,,2,,,74,127
69659,note_on,3,0,0,,2,,,74,127
69659,note_on,0,0,0,,5,,,65,127
69659,note_on,0,0,0,,10,,,57,127
69815,note_off,156,0,0,,10,,,57,127
69815,note_off,0,0,0,,5,,,65,127
69818,note_on,3,0,0,,7,,,67,127
69818,note_on,0,0,0,,11,,,58,127
69974,note_off,156,0,0,,11,,,58,127
69974,note_off,0,0,0,,7,,,67,127
69977,note_on,3,0,0,,10,,,57,127
69977,note_on,0,0,0,,5,,,65,127
70128,note_off,151,0,0,,2,,,74,127
70132,note_off,4,0,0,,5,,,65,127
70132,note_off,0,0,0,,10,,,57,127
70135,note_on,3,0,0,,4,,,76,127
70135,note_on,0,0,0,,4,,,64,127
70135,note_on,0,0,0,,7,,,55,127
70291,note_off,156,0,0,,7,,,55,127
70291,note_off,0,0,0,,4,,,64,127
70291,note_off,0,0,0,,4,,,76,127
70294,note_on,3,0,0,,5,,,77,127
70294,note_on,0,0,0,,2,,,62,127
70294,note_on,0,0,0,,5,,,53,127
70450,note_off,156,0,0,,5,,,53,127
70450,note_off,0,0,0,,2,,,62,127
70450,note_off,0,0,0,,5,,,77,127
70453,note_on,3,0,0,,7,,,79,127
70453,note_on,0,0,0,,4,,,52,127
70453,note_on,0,0,0,,1,,,61,127
70609,note_off,156,0,0,,1,,,61,127
70609,note_off,0,0,0,,4,,,52,127
70609,note_off,0,0,0,,7,,,79,127
70612,note_on,3,0,0,,5,,,77,127
70612,note_on,0,0,0,,2,,,62,127
70612,note_on,0,0,0,,5,,,53,127
70768,note_off,156,0,0,,5,,,77,127
70771,note_on,3,0,0,,4,,,76,127
70843,note_off,72,0,0,,4,,,76,127
70850,note_on,7,0,0,,5,,,77,127
70922,note_off,72,0,0,,5,,,77,127
70922,note_off,0,0,0,,5,,,53,127
70922,note_off,0,0,0,,2,,,62,127
70929,note_on,7,0,0,,10,,,81,127
70929,note_on,0,0,0,,4,,,64,127
70929,note_on,0,0,0,,7,,,55,127
71001,note_off,72,0,0,,10,,,81,127
71008,note_on,7,0,0,,7,,,79,127
71080,note_off,72,0,0,,7,,,79,127
71087,note_on,7,0,0,,5,,,77,127
71159,note_off,72,0,0,,5,,,77,127
71166,note_on,7,0,0,,4,,,76,127
71238,note_off,72,0,0,,4,,,76,127
71238,note_off,0,0,0,,7,,,55,127
71238,note_off,0,0,0,,4,,,64,127
71245,note_on,7,0,0,,2,,,74,127
71245,note_on,0,0,0,,5,,,65,127
71245,note_on,0,0,0,,10,,,57,127
71555,note_off,310,0,0,,5,,,65,127
71562,note_on,7,0,0,,4,,,64,127
71641,note_off,79,0,0,,2,,,74,127
71641,note_on,0,0,0,,1,,,73,127
71713,note_off,72,0,0,,1,,,73,127
71720,note_on,7,0,0,,12,,,71,127
71792,note_off,72,0,0,,12,,,71,127
71799,note_on,7,0,0,,1,,,73,127
71871,note_off,72,0,0,,1,,,73,127
71871,note_off,0,0,0,,4,,,64,127
71878,note_off,7,0,0,,10,,,57,127
71879,note_on,1,0,0,,2,,,74,127
71879,note_on,0,0,0,,2,,,62,127
71879,note_on,0,0,0,,2,,,50,127
72189,note_off,310,0,0,,2,,,74,127
72196,note_on,7,0,0,,5,,,77,127
72196,note_on,0,0,0,,2,,,86,127
72352,note_off,156,0,0,,2,,,86,127
72352,note_off,0,0,0,,5,,,77,127
72354,note_off,2,0,0,,2,,,50,127
72355,note_on,1,0,0,,4,,,76,127
72355,note_on,0,0,0,,0,,,84,127
72506,note_off,151,0,0,,2,,,62,127
72510,note_off,4,0,0,,0,,,84,127
72510,note_off,0,0,0,,4,,,76,127
72513,note_on,3,0,0,,0,,,84,127
72513,note_on,0,0,0,,4,,,76,127
72513,note_on,0,0,0,,2,,,50,127
72669,note_off,156,0,0,,4,,,76,127
72669,note_off,0,0,0,,0,,,84,127
72672,note_on,3,0,0,,11,,,82,127
72672,note_on,0,0,0,,2,,,74,127
72828,note_off,156,0,0,,2,,,74,127
72828,note_off,0,0,0,,11,,,82,127
72828,note_off,0,0,0,,2,,,50,127
72831,note_on,3,0,0,,10,,,81,127
72831,note_on,0,0,0,,0,,,72,127
72831,note_on,0,0,0,,4,,,52,127
72987,note_off,156,0,0,,0,,,72,127
72987,note_off,0,0,0,,10,,,81,127
72990,note_on,3,0,0,,12,,,71,127
72990,note_on,0,0,0,,8,,,80,127
73146,note_off,156,0,0,,8,,,80,127
73146,note_off,0,0,0,,12,,,71,127
73146,note_off,0,0,0,,4,,,52,127
73149,note_on,3,0,0,,10,,,81,127
73149,note_on,0,0,0,,10,,,45,127
73308,note_on,159,0,0,,0,,,72,127
73454,note_off,146,0,0,,0,,,72,127
73464,note_off,10,0,0,,10,,,81,127
73467,note_on,3,0,0,,10,,,81,127
73467,note_on,0,0,0,,0,,,72,127
73623,note_off,156,0,0,,0,,,72,127
73623,note_off,0,0,0,,10,,,81,127
73626,note_on,3,0,0,,7,,,79,127
73626,note_on,0,0,0,,11,,,70,127
73772,note_off,146,0,0,,11,,,70,127
73772,note_off,0,0,0,,7,,,79,127
73778,note_off,6,0,0,,10,,,45,127
73785,note_on,7,0,0,,11,,,70,127
73785,note_on,0,0,0,,7,,,79,127
73785,note_on,0,0,0,,11,,,46,127
73941,note_off,156,0,0,,7,,,79,127
73941,note_off,0,0,0,,11,,,70,127
73944,note_on,3,0,0,,10,,,69,127
73944,note_on,0,0,0,,5,,,77,127
74090,note_off,146,0,0,,5,,,77,127
74090,note_off,0,0,0,,10,,,69,127
74100,note_off,10,0,0,,11,,,46,127
74103,note_on,3,0,0,,5,,,77,127
74103,note_on,0,0,0,,10,,,69,127
74103,note_on,0,0,0,,1,,,49,127
74259,note_off,156,0,0,,10,,,69,127
74259,note_off,0,0,0,,5,,,77,127
74262,note_on,3,0,0,,4,,,76,127
74262,note_on,0,0,0,,7,,,67,127
74408,note_off,146,0,0,,7,,,67,127
74408,note_off,0,0,0,,4,,,76,127
74418,note_off,10,0,0,,1,,,49,127
74421,note_on,3,0,0,,5,,,77,127
74421,note_on,0,0,0,,2,,,50,127
74580,note_on,159,0,0,,10,,,69,127
74726,note_off,146,0,0,,10,,,69,127
74732,note_off,6,0,0,,2,,,50,127
74736,note_off,4,0,0,,5,,,77,127
74739,note_on,3,0,0,,10,,,69,127
74739,note_on,0,0,0,,5,,,77,127
74739,note_on,0,0,0,,5,,,41,127
74895,note_off,156,0,0,,5,,,77,127
74895,note_off,0,0,0,,10,,,69,127
74898,note_on,3,0,0,,4,,,76,127
74898,note_on,0,0,0,,7,,,67,127
75044,note_off,146,0,0,,7,,,67,127
75044,note_off,0,0,0,,4,,,76,127
75050,note_off,6,0,0,,5,,,41,127
75057,note_on,7,0,0,,7,,,67,127
75057,note_on,0,0,0,,4,,,76,127
75057,note_on,0,0,0,,7,,,43,127
75213,note_off,156,0,0,,4,,,76,127
75213,note_off,0,0,0,,7,,,67,127
75216,note_on,3,0,0,,2,,,74,127
75216,note_on,0,0,0,,5,,,65,127
75362,note_off,146,0,0,,5,,,65,127
75362,note_off,0,0,0,,2,,,74,127
75368,note_off,6,0,0,,7,,,43,127
75375,note_on,7,0,0,,2,,,74,127
75375,note_on,0,0,0,,5,,,65,127
75375,note_on,0,0,0,,10,,,45,127
75531,note_off,156,0,0,,5,,,65,127
75531,note_off,0,0,0,,2,,,74,127
75534,note_on,3,0,0,,1,,,73,127
75534,note_on,0,0,0,,4,,,64,127
75680,note_off,146,0,0,,4,,,64,127
75680,note_off,0,0,0,,1,,,73,127
75686,note_off,6,0,0,,10,,,45,127
75693,note_on,7,0,0,,4,,,64,127
75693,note_on,0,0,0,,1,,,73,127
75693,note_on,0,0,0,,2,,,38,127
76003,note_off,310,0,0,,2,,,38,127
76003,note_off,0,0,0,,1,,,73,127
76003,note_off,0,0,0,,4,,,64,127
76010,note_on,7,0,0,,5,,,65,127
76010,note_on,0,0,0,,2,,,74,127
76010,note_on,0,0,0,,10,,,57,127
76166,note_off,156,0,0,,10,,,57,127
76166,note_off,0,0,0,,5,,,65,127
76169,note_on,3,0,0,,7,,,67,127
76169,note_on,0,0,0,,11,,,58,127
76325,note_off,156,0,0,,11,,,58,127
76325,note_off,0,0,0,,7,,,67,127
76328,note_on,3,0,0,,5,,,65,127
76328,note_on,0,0,0,,10,,,57,127
76479,note_off,151,0,0,,2,,,74,127
76483,note_off,4,0,0,,10,,,57,127
76483,note_off,0,0,0,,5,,,65,127
76486,note_on,3,0,0,,4,,,76,127
76486,note_on,0,0,0,,4,,,64,127
76486,note_on,0,0,0,,7,,,55,127
76642,note_off,156,0,0,,7,,,55,127
76642,note_off,0,0,0,,4,,,64,127
76642,note_off,0,0,0,,4,,,76,127
76645,note_on,3,0,0,,5,,,77,127
76645,note_on,0,0,0,,2,,,62,127
76645,note_on,0,0,0,,5,,,53,127
76801,note_off,156,0,0,,5,,,53,127
76801,note_off,0,0,0,,2,,,62,127
76801,note_off,0,0,0,,5,,,77,127
76804,note_on,3,0,0,,7,,,79,127
76804,note_on,0,0,0,,1,,,61,127
76804,note_on,0,0,0,,4,,,52,127
76960,note_off,156,0,0,,4,,,52,127
76960,note_off,0,0,0,,1,,,61,127
76960,note_off,0,0,0,,7,,,79,127
76963,note_on,3,0,0,,10,,,81,127
76963,note_on,0,0,0,,2,,,62,127
76963,note_on,0,0,0,,5,,,53,127
77035,note_off,72,0,0,,10,,,81,127
77042,note_on,7,0,0,,5,,,77,127
77114,note_off,72,0,0,,5,,,77,127
77121,note_on,7,0,0,,7,,,79,127
77193,note_off,72,0,0,,7,,,79,127
77200,note_on,7,0,0,,4,,,76,127
77272,note_off,72,0,0,,4,,,76,127
77272,note_off,0,0,0,,5,,,53,127
77272,note_off,0,0,0,,2,,,62,127
77279,note_on,7,0,0,,2,,,74,127
77279,note_on,0,0,0,,5,,,65,127
77279,note_on,0,0,0,,10,,,57,127
77435,note_off,156,0,0,,10,,,57,127
77435,note_off,0,0,0,,5,,,65,127
77438,note_on,3,0,0,,7,,,67,127
77438,note_on,0,0,0,,11,,,58,127
77594,note_off,156,0,0,,11,,,58,127
77594,note_off,0,0,0,,7,,,67,127
77597,note_on,3,0,0,,10,,,57,127
77597,note_on,0,0,0,,5,,,65,127
77748,note_off,151,0,0,,2,,,74,127
77752,note_off,4,0,0,,5,,,65,127
77752,note_off,0,0,0,,10,,,57,127
77755,note_on,3,0,0,,4,,,76,127
77755,note_on,0,0,0,,4,,,64,127
77755,note_on,0,0,0,,7,,,55,127
77911,note_off,156,0,0,,7,,,55,127
77911,note_off,0,0,0,,4,,,64,127
77911,note_off,0,0,0,,4,,,76,127
77914,note_on,3,0,0,,5,,,77,127
77914,note_on,0,0,0,,5,,,53,127
77914,note_on,0,0,0,,2,,,62,127
78070,note_off,156,0,0,,2,,,62,127
78070,note_off,0,0,0,,5,,,53,127
78070,note_off,0,0,0,,5,,,77,127
78073,note_on,3,0,0,,7,,,79,127
78073,note_on,0,0,0,,4,,,52,127
78073,note_on,0,0,0,,1,,,61,127
78229,note_off,156,0,0,,1,,,61,127
78229,note_off,0,0,0,,4,,,52,127
78229,note_off,0,0,0,,7,,,79,127
78232,note_on,3,0,0,,10,,,81,127
78232,note_on,0,0,0,,2,,,62,127
78232,note_on,0,0,0,,5,,,53,127
78304,note_off,72,0,0,,10,,,81,127
78311,note_on,7,0,0,,5,,,77,127
78383,note_off,72,0,0,,5,,,77,127
78390,note_on,7,0,0,,7,,,79,127
78462,note_off,72,0,0,,7,,,79,127
78469,note_on,7,0,0,,4,,,76,127
78541,note_off,72,0,0,,4,,,76,127
78541,note_off,0,0,0,,5,,,53,127
78541,note_off,0,0,0,,2,,,62,127
78548,note_on,7,0,0,,2,,,74,127
78548,note_on,0,0,0,,10,,,57,127
78548,note_on,0,0,0,,5,,,65,127
78704,note_off,156,0,0,,5,,,65,127
78704,note_off,0,0,0,,10,,,57,127
78707,note_on,3,0,0,,7,,,67,127
78707,note_on,0,0,0,,11,,,58,127
78863,note_off,156,0,0,,11,,,58,127
78863,note_off,0,0,0,,7,,,67,127
78866,note_on,3,0,0,,10,,,57,127
78866,note_on,0,0,0,,5,,,65,127
79017,note_off,151,0,0,,2,,,74,127
79021,note_off,4,0,0,,5,,,65,127
79021,note_off,0,0,0,,10,,,57,127
79024,note_on,3,0,0,,4,,,76,127
79024,note_on,0,0,0,,4,,,64,127
79024,note_on,0,0,0,,7,,,55,127
79180,note_off,156,0,0,,7,,,55,127
79180,note_off,0,0,0,,4,,,64,127
79180,note_off,0,0,0,,4,,,76,127
79183,note_on,3,0,0,,5,,,77,127
79183,note_on,0,0,0,,2,,,62,127
79183,note_on,0,0,0,,5,,,53,127
79339,note_off,156,0,0,,5,,,53,127
79339,note_off,0,0,0,,2,,,62,127
79339,note_off,0,0,0,,5,,,77,127
79342,note_on,3,0,0,,7,,,79,127
79342,note_on,0,0,0,,4,,,52,127
79342,note_on,0,0,0,,1,,,61,127
79498,note_off,156,0,0,,1,,,61,127
79498,note_off,0,0,0,,4,,,52,127
79498,note_off,0,0,0,,7,,,79,127
79501,note_on,3,0,0,,10,,,81,127
79501,note_on,0,0,0,,2,,,62,127
79501,note_on,0,0,0,,5,,,53,127
79660,note_on,159,0,0,,2,,,74,127
79811,note_off,151,0,0,,5,,,53,127
79811,note_off,0,0,0,,2,,,62,127
79815,note_off,4,0,0,,2,,,74,127
79815,note_off,0,0,0,,10,,,81,127
79818,note_on,3,0,0,,7,,,79,127
79818,note_on,0,0,0,,4,,,64,127
79818,note_on,0,0,0,,7,,,55,127
79974,note_off,156,0,0,,7,,,79,127
79977,note_on,3,0,0,,5,,,77,127
80049,note_off,72,0,0,,5,,,77,127
80056,note_on,7,0,0,,4,,,76,127
80128,note_off,72,0,0,,4,,,76,127
80128,note_off,0,0,0,,7,,,55,127
80128,note_off,0,0,0,,4,,,64,127
80135,note_on,7,0,0,,2,,,74,127
80135,note_on,0,0,0,,5,,,65,127
80135,note_on,0,0,0,,10,,,57,127
80445,note_off,310,0,0,,5,,,65,127
80452,note_on,7,0,0,,4,,,64,127
80531,note_off,79,0,0,,2,,,74,127
80531,note_on,0,0,0,,1,,,73,127
80603,note_off,72,0,0,,1,,,73,127
80610,note_on,7,0,0,,12,,,71,127
80682,note_off,72,0,0,,12,,,71,127
80689,note_on,7,0,0,,1,,,73,127
80761,note_off,72,0,0,,1,,,73,127
80765,note_off,4,0,0,,4,,,64,127
80767,note_off,2,0,0,,10,,,57,127
80768,note_on,1,0,0,,2,,,74,127
80924,note_off,156,0,0,,2,,,74,127
80927,note_on,3,0,0,,2,,,86,127
80927,note_on,0,0,0,,2,,,50,127
81083,note_off,156,0,0,,2,,,50,127
81083,note_off,0,0,0,,2,,,86,127
81086,note_on,3,0,0,,2,,,86,127
81086,note_on,0,0,0,,4,,,52,127
81242,note_off,156,0,0,,4,,,52,127
81245,note_on,3,0,0,,6,,,54,127
81401,note_off,156,0,0,,6,,,54,127
81404,note_on,3,0,0,,7,,,55,127
81555,note_off,151,0,0,,2,,,86,127
81559,note_off,4,0,0,,7,,,55,127
81562,note_on,3,0,0,,12,,,83,127
81562,note_on,0,0,0,,10,,,57,127
81718,note_off,156,0,0,,10,,,57,127
81718,note_off,0,0,0,,12,,,83,127
81721,note_on,3,0,0,,12,,,83,127
81721,note_on,0,0,0,,12,,,59,127
81877,note_off,156,0,0,,12,,,59,127
81880,note_on,3,0,0,,1,,,61,127
82036,note_off,156,0,0,,1,,,61,127
82039,note_on,3,0,0,,2,,,62,127
82190,note_off,151,0,0,,12,,,83,127
82194,note_off,4,0,0,,2,,,62,127
82197,note_on,3,0,0,,10,,,81,127
82197,note_on,0,0,0,,4,,,64,127
82353,note_off,156,0,0,,4,,,64,127
82353,note_off,0,0,0,,10,,,81,127
82356,note_on,3,0,0,,10,,,81,127
82356,note_on,0,0,0,,6,,,66,127
82512,note_off,156,0,0,,6,,,66,127
82515,note_on,3,0,0,,7,,,67,127
82671,note_off,156,0,0,,7,,,67,127
82674,note_on,3,0,0,,10,,,69,127
82825,note_off,151,0,0,,10,,,81,127
82832,note_on,7,0,0,,7,,,79,127
82983,note_off,151,0,0,,10,,,69,127
82987,note_off,4,0,0,,7,,,79,127
82990,note_on,3,0,0,,6,,,78,127
82990,note_on,0,0,0,,10,,,57,127
83146,note_off,156,0,0,,6,,,78,127
83149,note_on,3,0,0,,4,,,76,127
83305,note_off,156,0,0,,4,,,76,127
83305,note_off,0,0,0,,10,,,57,127
83308,note_on,3,0,0,,6,,,78,127
83464,note_off,156,0,0,,6,,,78,127
83467,note_on,3,0,0,,2,,,86,127
83467,note_on,0,0,0,,2,,,50,127
83623,note_off,156,0,0,,2,,,50,127
83623,note_off,0,0,0,,2,,,86,127
83626,note_on,3,0,0,,2,,,86,127
83626,note_on,0,0,0,,4,,,52,127
83782,note_off,156,0,0,,4,,,52,127
83785,note_on,3,0,0,,6,,,54,127
83941,note_off,156,0,0,,6,,,54,127
83944,note_on,3,0,0,,7,,,55,127
84095,note_off,151,0,0,,2,,,86,127
84099,note_off,4,0,0,,7,,,55,127
84102,note_on,3,0,0,,12,,,83,127
84102,note_on,0,0,0,,7,,,79,127
84102,note_on,0,0,0,,10,,,57,127
84258,note_off,156,0,0,,10,,,57,127
84258,note_off,0,0,0,,7,,,79,127
84258,note_off,0,0,0,,12,,,83,127
84261,note_on,3,0,0,,12,,,83,127
84261,note_on,0,0,0,,7,,,79,127
84261,note_on,0,0,0,,12,,,59,127
84417,note_off,156,0,0,,12,,,59,127
84420,note_on,3,0,0,,1,,,61,127
84576,note_off,156,0,0,,1,,,61,127
84579,note_on,3,0,0,,2,,,62,127
84730,note_off,151,0,0,,7,,,79,127
84730,note_off,0,0,0,,12,,,83,127
84734,note_off,4,0,0,,2,,,62,127
84737,note_on,3,0,0,,10,,,81,127
84737,note_on,0,0,0,,6,,,78,127
84737,note_on,0,0,0,,4,,,64,127
84893,note_off,156,0,0,,4,,,64,127
84893,note_off,0,0,0,,6,,,78,127
84893,note_off,0,0,0,,10,,,81,127
84896,note_on,3,0,0,,6,,,78,127
84896,note_on,0,0,0,,10,,,81,127
84896,note_on,0,0,0,,6,,,66,127
85052,note_off,156,0,0,,6,,,66,127
85055,note_on,3,0,0,,7,,,67,127
85211,note_off,156,0,0,,7,,,67,127
85214,note_on,3,0,0,,10,,,69,127
85365,note_off,151,0,0,,10,,,81,127
85365,note_off,0,0,0,,6,,,78,127
85372,note_on,7,0,0,,4,,,76,127
85372,note_on,0,0,0,,7,,,79,127
85523,note_off,151,0,0,,10,,,69,127
85527,note_off,4,0,0,,7,,,79,127
85527,note_off,0,0,0,,4,,,76,127
85530,note_on,3,0,0,,10,,,57,127
85530,note_on,0,0,0,,2,,,74,127
85530,note_on,0,0,0,,6,,,78,127
85530,note_on,0,0,0,,10,,,45,127
85686,note_off,156,0,0,,6,,,78,127
85686,note_off,0,0,0,,2,,,74,127
85689,note_on,3,0,0,,1,,,73,127
85689,note_on,0,0,0,,4,,,76,127
85840,note_off,151,0,0,,10,,,45,127
85840,note_off,0,0,0,,10,,,57,127
85844,note_off,4,0,0,,4,,,76,127
85844,note_off,0,0,0,,1,,,73,127
85847,note_on,3,0,0,,6,,,78,127
85847,note_on,0,0,0,,2,,,74,127
85847,note_on,0,0,0,,2,,,38,127
85847,note_on,0,0,0,,2,,,50,127
86003,note_off,156,0,0,,2,,,74,127
86003,note_off,0,0,0,,6,,,78,127
86006,note_on,3,0,0,,6,,,78,127
86006,note_on,0,0,0,,10,,,69,127
86157,note_off,151,0,0,,2,,,50,127
86157,note_off,0,0,0,,2,,,38,127
86161,note_off,4,0,0,,10,,,69,127
86161,note_off,0,0,0,,6,,,78,127
86164,note_on,3,0,0,,10,,,69,127
86164,note_on,0,0,0,,6,,,78,127
86164,note_on,0,0,0,,7,,,55,127
86320,note_off,156,0,0,,6,,,78,127
86320,note_off,0,0,0,,10,,,69,127
86323,note_on,3,0,0,,7,,,79,127
86323,note_on,0,0,0,,12,,,71,127
86474,note_off,151,0,0,,7,,,55,127
86478,note_off,4,0,0,,12,,,71,127
86478,note_off,0,0,0,,7,,,79,127
86481,note_on,3,0,0,,10,,,69,127
86481,note_on,0,0,0,,6,,,78,127
86481,note_on,0,0,0,,10,,,57,127
86637,note_off,156,0,0,,6,,,78,127
86637,note_off,0,0,0,,10,,,69,127
86640,note_on,3,0,0,,7,,,67,127
86640,note_on,0,0,0,,4,,,76,127
86796,note_off,156,0,0,,4,,,76,127
86796,note_off,0,0,0,,7,,,67,127
86799,note_on,3,0,0,,2,,,74,127
86799,note_on,0,0,0,,6,,,66,127
86799,note_on,0,0,0,,10,,,45,127
86955,note_off,156,0,0,,6,,,66,127
86955,note_off,0,0,0,,2,,,74,127
86958,note_on,3,0,0,,4,,,64,127
86958,note_on,0,0,0,,1,,,73,127
87109,note_off,151,0,0,,10,,,45,127
87113,note_off,4,0,0,,1,,,73,127
87113,note_off,0,0,0,,4,,,64,127
87115,note_off,2,0,0,,10,,,57,127
87116,note_on,1,0,0,,2,,,50,127
87116,note_on,0,0,0,,2,,,74,127
87116,note_on,0,0,0,,6,,,66,127
87272,note_off,156,0,0,,6,,,66,127
87272,note_off,0,0,0,,2,,,74,127
87276,note_on,4,0,0,,6,,,66,127
87276,note_on,0,0,0,,10,,,69,127
87427,note_off,151,0,0,,2,,,50,127
87432,note_off,5,0,0,,10,,,69,127
87432,note_off,0,0,0,,6,,,66,127
87437,note_on,5,0,0,,7,,,43,127
87437,note_on,0,0,0,,10,,,69,127
87437,note_on,0,0,0,,6,,,66,127
87593,note_off,156,0,0,,6,,,66,127
87593,note_off,0,0,0,,10,,,69,127
87598,note_on,5,0,0,,7,,,67,127
87598,note_on,0,0,0,,12,,,71,127
87748,note_off,150,0,0,,7,,,43,127
87754,note_off,6,0,0,,12,,,71,127
87754,note_off,0,0,0,,7,,,67,127
87759,note_on,5,0,0,,10,,,45,127
87759,note_on,0,0,0,,10,,,69,127
87759,note_on,0,0,0,,6,,,66,127
87915,note_off,156,0,0,,6,,,66,127
87915,note_off,0,0,0,,10,,,69,127
87920,note_on,5,0,0,,4,,,64,127
87920,note_on,0,0,0,,7,,,67,127
88076,note_off,156,0,0,,7,,,67,127
88076,note_off,0,0,0,,4,,,64,127
88081,note_on,5,0,0,,10,,,33,127
88081,note_on,0,0,0,,6,,,66,127
88081,note_on,0,0,0,,2,,,62,127
88237,note_off,156,0,0,,2,,,62,127
88237,note_off,0,0,0,,6,,,66,127
88242,note_on,5,0,0,,4,,,64,127
88242,note_on,0,0,0,,1,,,61,127
88392,note_off,150,0,0,,10,,,33,127
88395,note_off,3,0,0,,10,,,45,127
88397,note_off,2,0,0,,1,,,61,127
88397,note_off,0,0,0,,4,,,64,127
88410,note_on,13,0,0,,2,,,62,127
88410,note_on,0,0,0,,2,,,50,127
88410,note_on,0,0,0,,2,,,38,127
90476,note_off,2066,0,0,,2,,,38,127
90476,note_off,0,0,0,,2,,,50,127
90476,note_off,0,0,0,,2,,,62,127
92160,end_of_track,1684,1,0,,,,,,
