tick,type,time,meta,track,program,channel,pitch,tempo,note,velocity
0,copyright,0,1,0,,,,,,
0,program_change,0,0,0,6,0,,,,
0,pitchwheel,0,0,0,,0,0,,,
0,program_change,0,0,0,6,1,,,,
0,pitchwheel,0,0,0,,1,-590,,,
0,program_change,0,0,0,6,2,,,,
0,pitchwheel,0,0,0,,2,-272,,,
0,program_change,0,0,0,6,3,,,,
0,pitchwheel,0,0,0,,3,-353,,,
0,program_change,0,0,0,6,4,,,,
0,pitchwheel,0,0,0,,4,-560,,,
0,program_change,0,0,0,6,5,,,,
0,pitchwheel,0,0,0,,5,-80,,,
0,program_change,0,0,0,6,6,,,,
0,pitchwheel,0,0,0,,6,-625,,,
0,program_change,0,0,0,6,7,,,,
0,pitchwheel,0,0,0,,7,-130,,,
0,program_change,0,0,0,6,8,,,,
0,pitchwheel,0,0,0,,8,-512,,,
0,program_change,0,0,0,6,10,,,,
0,pitchwheel,0,0,0,,10,-464,,,
0,program_change,0,0,0,6,11,,,,
0,pitchwheel,0,0,0,,11,-208,,,
0,program_change,0,0,0,6,12,,,,
0,pitchwheel,0,0,0,,12,-553,,,
0,set_tempo,0,1,0,,,,500000,,
105,note_on,105,0,0,,2,,,74,127
314,note_on,209,0,0,,10,,,69,127
334,note_off,20,0,0,,2,,,74,127
521,note_off,187,0,0,,10,,,69,127
524,note_on,3,0,0,,4,,,76,127
730,note_off,206,0,0,,4,,,76,127
733,note_on,3,0,0,,6,,,78,127
733,note_on,0,0,0,,2,,,74,127
942,note_on,209,0,0,,10,,,69,127
994,note_off,52,0,0,,2,,,74,127
1147,note_off,153,0,0,,6,,,78,127
1148,note_off,1,0,0,,10,,,69,127
1151,note_on,3,0,0,,7,,,79,127
1151,note_on,0,0,0,,4,,,76,127
1357,note_off,206,0,0,,4,,,76,127
1357,note_off,0,0,0,,7,,,79,127
1360,note_on,3,0,0,,10,,,81,127
1360,note_on,0,0,0,,6,,,78,127
1569,note_on,209,0,0,,10,,,69,127
1621,note_off,52,0,0,,6,,,78,127
1774,note_off,153,0,0,,10,,,81,127
1775,note_off,1,0,0,,10,,,69,127
1778,note_on,3,0,0,,12,,,83,127
1778,note_on,0,0,0,,7,,,79,127
1984,note_off,206,0,0,,7,,,79,127
1984,note_off,0,0,0,,12,,,83,127
1987,note_on,3,0,0,,10,,,81,127
2092,note_on,105,0,0,,7,,,79,127
2193,note_off,101,0,0,,7,,,79,127
2196,note_on,3,0,0,,6,,,78,127
2297,note_off,101,0,0,,6,,,78,127
2300,note_on,3,0,0,,4,,,76,127
2401,note_off,101,0,0,,4,,,76,127
2404,note_on,3,0,0,,2,,,74,127
2505,note_off,101,0,0,,2,,,74,127
2508,note_on,3,0,0,,1,,,73,127
2609,note_off,101,0,0,,1,,,73,127
2611,note_off,2,0,0,,10,,,81,127
2612,note_on,1,0,0,,2,,,62,127
2612,note_on,0,0,0,,6,,,78,127
2612,note_on,0,0,0,,2,,,74,127
2612,note_on,0,0,0,,10,,,69,127
2821,note_on,209,0,0,,10,,,57,127
2873,note_off,52,0,0,,2,,,62,127
3027,note_off,154,0,0,,10,,,57,127
3027,note_off,0,0,0,,10,,,69,127
3027,note_off,0,0,0,,2,,,74,127
3027,note_off,0,0,0,,6,,,78,127
3030,note_on,3,0,0,,4,,,64,127
3030,note_on,0,0,0,,7,,,79,127
3236,note_off,206,0,0,,7,,,79,127
3236,note_off,0,0,0,,4,,,64,127
3239,note_on,3,0,0,,6,,,66,127
3239,note_on,0,0,0,,10,,,81,127
3448,note_on,209,0,0,,10,,,57,127
3653,note_off,205,0,0,,6,,,66,127
3654,note_off,1,0,0,,10,,,57,127
3654,note_off,0,0,0,,10,,,81,127
3657,note_on,3,0,0,,7,,,67,127
3657,note_on,0,0,0,,12,,,83,127
3863,note_off,206,0,0,,12,,,83,127
3863,note_off,0,0,0,,7,,,67,127
3866,note_on,3,0,0,,10,,,69,127
3866,note_on,0,0,0,,1,,,73,127
4075,note_on,209,0,0,,10,,,57,127
4280,note_off,205,0,0,,10,,,69,127
4281,note_off,1,0,0,,10,,,57,127
4281,note_off,0,0,0,,1,,,73,127
4284,note_on,3,0,0,,12,,,71,127
4284,note_on,0,0,0,,2,,,74,127
4490,note_off,206,0,0,,2,,,74,127
4490,note_off,0,0,0,,12,,,71,127
4493,note_on,3,0,0,,10,,,69,127
4493,note_on,0,0,0,,4,,,76,127
4594,note_off,101,0,0,,10,,,69,127
4597,note_on,3,0,0,,7,,,67,127
4698,note_off,101,0,0,,7,,,67,127
4698,note_off,0,0,0,,4,,,76,127
4701,note_on,3,0,0,,6,,,66,127
4701,note_on,0,0,0,,6,,,78,127
4802,note_off,101,0,0,,6,,,66,127
4805,note_on,3,0,0,,4,,,64,127
4906,note_off,101,0,0,,4,,,64,127
4906,note_off,0,0,0,,6,,,78,127
4909,note_on,3,0,0,,2,,,62,127
4909,note_on,0,0,0,,7,,,79,127
5010,note_off,101,0,0,,2,,,62,127
5013,note_on,3,0,0,,1,,,61,127
5114,note_off,101,0,0,,1,,,61,127
5114,note_off,0,0,0,,7,,,79,127
5117,note_on,3,0,0,,2,,,62,127
5117,note_on,0,0,0,,6,,,78,127
5218,note_off,101,0,0,,6,,,78,127
5221,note_on,3,0,0,,10,,,81,127
5322,note_off,101,0,0,,10,,,81,127
5322,note_off,0,0,0,,2,,,62,127
5325,note_on,3,0,0,,12,,,59,127
5325,note_on,0,0,0,,7,,,79,127
5426,note_off,101,0,0,,7,,,79,127
5429,note_on,3,0,0,,6,,,78,127
5530,note_off,101,0,0,,6,,,78,127
5530,note_off,0,0,0,,12,,,59,127
5533,note_on,3,0,0,,7,,,55,127
5533,note_on,0,0,0,,4,,,76,127
5634,note_off,101,0,0,,4,,,76,127
5637,note_on,3,0,0,,2,,,74,127
5738,note_off,101,0,0,,2,,,74,127
5738,note_off,0,0,0,,7,,,55,127
5741,note_on,3,0,0,,10,,,57,127
5741,note_on,0,0,0,,1,,,73,127
5842,note_off,101,0,0,,1,,,73,127
5845,note_on,3,0,0,,12,,,71,127
5946,note_off,101,0,0,,12,,,71,127
5946,note_off,0,0,0,,10,,,57,127
5949,note_on,3,0,0,,12,,,59,127
5949,note_on,0,0,0,,10,,,69,127
6050,note_off,101,0,0,,10,,,69,127
6053,note_on,3,0,0,,7,,,67,127
6154,note_off,101,0,0,,7,,,67,127
6154,note_off,0,0,0,,12,,,59,127
6157,note_on,3,0,0,,1,,,61,127
6157,note_on,0,0,0,,6,,,66,127
6258,note_off,101,0,0,,6,,,66,127
6261,note_on,3,0,0,,4,,,64,127
6362,note_off,101,0,0,,4,,,64,127
6362,note_off,0,0,0,,1,,,61,127
6365,note_on,3,0,0,,2,,,62,127
6365,note_on,0,0,0,,6,,,66,127
6466,note_off,101,0,0,,6,,,66,127
6469,note_on,3,0,0,,10,,,69,127
6570,note_off,101,0,0,,10,,,69,127
6570,note_off,0,0,0,,2,,,62,127
6573,note_on,3,0,0,,12,,,59,127
6573,note_on,0,0,0,,7,,,67,127
6674,note_off,101,0,0,,7,,,67,127
6677,note_on,3,0,0,,6,,,66,127
6778,note_off,101,0,0,,6,,,66,127
6778,note_off,0,0,0,,12,,,59,127
6781,note_on,3,0,0,,7,,,55,127
6781,note_on,0,0,0,,4,,,64,127
6882,note_off,101,0,0,,4,,,64,127
6885,note_on,3,0,0,,2,,,62,127
6986,note_off,101,0,0,,2,,,62,127
6986,note_off,0,0,0,,7,,,55,127
6989,note_on,3,0,0,,10,,,57,127
6989,note_on,0,0,0,,1,,,61,127
7090,note_off,101,0,0,,1,,,61,127
7093,note_on,3,0,0,,12,,,59,127
7194,note_off,101,0,0,,12,,,59,127
7195,note_off,1,0,0,,10,,,57,127
7197,note_on,2,0,0,,10,,,57,127
7302,note_on,105,0,0,,7,,,55,127
7403,note_off,101,0,0,,7,,,55,127
7406,note_on,3,0,0,,6,,,54,127
7507,note_off,101,0,0,,6,,,54,127
7510,note_on,3,0,0,,4,,,52,127
7611,note_off,101,0,0,,4,,,52,127
7611,note_off,0,0,0,,10,,,57,127
7614,note_on,3,0,0,,2,,,50,127
7614,note_on,0,0,0,,12,,,71,127
7684,note_off,70,0,0,,12,,,71,127
7684,note_on,0,0,0,,10,,,69,127
7716,note_off,32,0,0,,2,,,50,127
7719,note_on,3,0,0,,4,,,52,127
7754,note_off,35,0,0,,10,,,69,127
7754,note_on,0,0,0,,12,,,71,127
7821,note_off,67,0,0,,4,,,52,127
7824,note_off,3,0,0,,12,,,71,127
7824,note_on,0,0,0,,6,,,54,127
7824,note_on,0,0,0,,10,,,69,127
7925,note_off,101,0,0,,6,,,54,127
7928,note_on,3,0,0,,7,,,55,127
8029,note_off,101,0,0,,7,,,55,127
8032,note_on,3,0,0,,10,,,57,127
8133,note_off,101,0,0,,10,,,57,127
8136,note_on,3,0,0,,12,,,59,127
8237,note_off,101,0,0,,12,,,59,127
8240,note_on,3,0,0,,1,,,49,127
8343,note_off,103,0,0,,10,,,69,127
8345,note_on,2,0,0,,12,,,71,127
8446,note_off,101,0,0,,12,,,71,127
8449,note_on,3,0,0,,1,,,73,127
8550,note_off,101,0,0,,1,,,73,127
8553,note_on,3,0,0,,2,,,74,127
8654,note_off,101,0,0,,2,,,74,127
8657,note_on,3,0,0,,4,,,76,127
8758,note_off,101,0,0,,4,,,76,127
8761,note_on,3,0,0,,6,,,78,127
8862,note_off,101,0,0,,6,,,78,127
8862,note_off,0,0,0,,1,,,49,127
8865,note_on,3,0,0,,12,,,47,127
8865,note_on,0,0,0,,10,,,69,127
8935,note_off,70,0,0,,10,,,69,127
8935,note_on,0,0,0,,7,,,67,127
8967,note_off,32,0,0,,12,,,47,127
8970,note_on,3,0,0,,1,,,49,127
9005,note_off,35,0,0,,7,,,67,127
9005,note_on,0,0,0,,10,,,69,127
9072,note_off,67,0,0,,1,,,49,127
9075,note_off,3,0,0,,10,,,69,127
9075,note_on,0,0,0,,2,,,50,127
9075,note_on,0,0,0,,7,,,67,127
9176,note_off,101,0,0,,2,,,50,127
9179,note_on,3,0,0,,4,,,52,127
9280,note_off,101,0,0,,4,,,52,127
9283,note_on,3,0,0,,6,,,54,127
9384,note_off,101,0,0,,6,,,54,127
9387,note_on,3,0,0,,7,,,55,127
9466,note_off,79,0,0,,7,,,67,127
9489,note_off,23,0,0,,7,,,55,127
9492,note_on,3,0,0,,10,,,45,127
9492,note_on,0,0,0,,6,,,66,127
9593,note_off,101,0,0,,6,,,66,127
9596,note_on,3,0,0,,7,,,67,127
9697,note_off,101,0,0,,7,,,67,127
9700,note_on,3,0,0,,10,,,69,127
9801,note_off,101,0,0,,10,,,69,127
9804,note_on,3,0,0,,12,,,71,127
9905,note_off,101,0,0,,12,,,71,127
9908,note_on,3,0,0,,1,,,73,127
10009,note_off,101,0,0,,1,,,73,127
10012,note_on,3,0,0,,2,,,74,127
10113,note_off,101,0,0,,2,,,74,127
10113,note_off,0,0,0,,10,,,45,127
10116,note_on,3,0,0,,7,,,43,127
10116,note_on,0,0,0,,6,,,66,127
10186,note_off,70,0,0,,6,,,66,127
10186,note_on,0,0,0,,4,,,64,127
10218,note_off,32,0,0,,7,,,43,127
10221,note_on,3,0,0,,10,,,45,127
10256,note_off,35,0,0,,4,,,64,127
10256,note_on,0,0,0,,6,,,66,127
10323,note_off,67,0,0,,10,,,45,127
10326,note_off,3,0,0,,6,,,66,127
10326,note_on,0,0,0,,12,,,47,127
10326,note_on,0,0,0,,4,,,64,127
10427,note_off,101,0,0,,12,,,47,127
10430,note_on,3,0,0,,1,,,49,127
10531,note_off,101,0,0,,1,,,49,127
10534,note_on,3,0,0,,2,,,50,127
10635,note_off,101,0,0,,2,,,50,127
10638,note_on,3,0,0,,4,,,52,127
10717,note_off,79,0,0,,4,,,64,127
10740,note_off,23,0,0,,4,,,52,127
10743,note_on,3,0,0,,6,,,42,127
10743,note_on,0,0,0,,2,,,62,127
10844,note_off,101,0,0,,2,,,62,127
10847,note_on,3,0,0,,4,,,64,127
10948,note_off,101,0,0,,4,,,64,127
10951,note_on,3,0,0,,6,,,66,127
11052,note_off,101,0,0,,6,,,66,127
11055,note_on,3,0,0,,7,,,67,127
11156,note_off,101,0,0,,7,,,67,127
11159,note_on,3,0,0,,10,,,69,127
11260,note_off,101,0,0,,10,,,69,127
11263,note_on,3,0,0,,12,,,71,127
11364,note_off,101,0,0,,12,,,71,127
11364,note_off,0,0,0,,6,,,42,127
11367,note_on,3,0,0,,4,,,40,127
11367,note_on,0,0,0,,1,,,73,127
11468,note_off,101,0,0,,1,,,73,127
11471,note_on,3,0,0,,2,,,74,127
11572,note_off,101,0,0,,2,,,74,127
11575,note_on,3,0,0,,4,,,76,127
11676,note_off,101,0,0,,4,,,76,127
11679,note_on,3,0,0,,6,,,78,127
11780,note_off,101,0,0,,6,,,78,127
11780,note_off,0,0,0,,4,,,40,127
11783,note_on,3,0,0,,2,,,38,127
11783,note_on,0,0,0,,7,,,79,127
11884,note_off,101,0,0,,7,,,79,127
11887,note_on,3,0,0,,6,,,78,127
11988,note_off,101,0,0,,6,,,78,127
11988,note_off,0,0,0,,2,,,38,127
11991,note_on,3,0,0,,10,,,45,127
11991,note_on,0,0,0,,4,,,76,127
12092,note_off,101,0,0,,4,,,76,127
12095,note_on,3,0,0,,2,,,74,127
12196,note_off,101,0,0,,2,,,74,127
12196,note_off,0,0,0,,10,,,45,127
12199,note_on,3,0,0,,12,,,47,127
12199,note_on,0,0,0,,1,,,73,127
12300,note_off,101,0,0,,1,,,73,127
12303,note_on,3,0,0,,12,,,71,127
12404,note_off,101,0,0,,12,,,71,127
12404,note_off,0,0,0,,12,,,47,127
12407,note_on,3,0,0,,1,,,49,127
12407,note_on,0,0,0,,10,,,69,127
12508,note_off,101,0,0,,10,,,69,127
12511,note_on,3,0,0,,7,,,67,127
12612,note_off,101,0,0,,7,,,67,127
12612,note_off,0,0,0,,1,,,49,127
12615,note_on,3,0,0,,2,,,50,127
12615,note_on,0,0,0,,6,,,66,127
12716,note_off,101,0,0,,6,,,66,127
12719,note_on,3,0,0,,8,,,68,127
12820,note_off,101,0,0,,8,,,68,127
12823,note_on,3,0,0,,10,,,69,127
12924,note_off,101,0,0,,10,,,69,127
12927,note_on,3,0,0,,12,,,71,127
13028,note_off,101,0,0,,12,,,71,127
13031,note_on,3,0,0,,1,,,73,127
13132,note_off,101,0,0,,1,,,73,127
13135,note_on,3,0,0,,2,,,74,127
13236,note_off,101,0,0,,2,,,74,127
13236,note_off,0,0,0,,2,,,50,127
13239,note_on,3,0,0,,4,,,52,127
13239,note_on,0,0,0,,8,,,68,127
13340,note_off,101,0,0,,8,,,68,127
13343,note_on,3,0,0,,10,,,69,127
13444,note_off,101,0,0,,10,,,69,127
13447,note_on,3,0,0,,12,,,71,127
13548,note_off,101,0,0,,12,,,71,127
13551,note_on,3,0,0,,1,,,73,127
13652,note_off,101,0,0,,1,,,73,127
13655,note_on,3,0,0,,2,,,74,127
13756,note_off,101,0,0,,2,,,74,127
13759,note_on,3,0,0,,4,,,76,127
13860,note_off,101,0,0,,4,,,76,127
13860,note_off,0,0,0,,4,,,52,127
13863,note_on,3,0,0,,6,,,54,127
13863,note_on,0,0,0,,10,,,69,127
13964,note_off,101,0,0,,10,,,69,127
13967,note_on,3,0,0,,12,,,71,127
14068,note_off,101,0,0,,12,,,71,127
14071,note_on,3,0,0,,1,,,73,127
14172,note_off,101,0,0,,1,,,73,127
14175,note_on,3,0,0,,2,,,74,127
14276,note_off,101,0,0,,2,,,74,127
14279,note_on,3,0,0,,4,,,76,127
14380,note_off,101,0,0,,4,,,76,127
14383,note_on,3,0,0,,6,,,78,127
14484,note_off,101,0,0,,6,,,78,127
14484,note_off,0,0,0,,6,,,54,127
14487,note_on,3,0,0,,8,,,56,127
14487,note_on,0,0,0,,12,,,71,127
14588,note_off,101,0,0,,12,,,71,127
14591,note_on,3,0,0,,1,,,73,127
14692,note_off,101,0,0,,1,,,73,127
14695,note_on,3,0,0,,2,,,74,127
14796,note_off,101,0,0,,2,,,74,127
14799,note_on,3,0,0,,4,,,76,127
14900,note_off,101,0,0,,4,,,76,127
14903,note_on,3,0,0,,6,,,78,127
15004,note_off,101,0,0,,6,,,78,127
15007,note_on,3,0,0,,8,,,80,127
15108,note_off,101,0,0,,8,,,80,127
15108,note_off,0,0,0,,8,,,56,127
15111,note_on,3,0,0,,10,,,57,127
15111,note_on,0,0,0,,4,,,76,127
15212,note_off,101,0,0,,10,,,57,127
15215,note_on,3,0,0,,12,,,59,127
15316,note_off,101,0,0,,12,,,59,127
15319,note_on,3,0,0,,1,,,61,127
15420,note_off,101,0,0,,1,,,61,127
15423,note_on,3,0,0,,2,,,62,127
15524,note_off,101,0,0,,2,,,62,127
15527,note_on,3,0,0,,4,,,64,127
15628,note_off,101,0,0,,4,,,64,127
15631,note_on,3,0,0,,6,,,66,127
15732,note_off,101,0,0,,6,,,66,127
15735,note_on,3,0,0,,8,,,56,127
15836,note_off,101,0,0,,4,,,76,127
15839,note_on,3,0,0,,6,,,78,127
15940,note_off,101,0,0,,6,,,78,127
15943,note_on,3,0,0,,8,,,80,127
16044,note_off,101,0,0,,8,,,80,127
16047,note_on,3,0,0,,10,,,81,127
16148,note_off,101,0,0,,10,,,81,127
16151,note_on,3,0,0,,12,,,83,127
16252,note_off,101,0,0,,12,,,83,127
16255,note_on,3,0,0,,1,,,85,127
16356,note_off,101,0,0,,1,,,85,127
16356,note_off,0,0,0,,8,,,56,127
16359,note_on,3,0,0,,6,,,54,127
16359,note_on,0,0,0,,4,,,76,127
16429,note_off,70,0,0,,4,,,76,127
16429,note_on,0,0,0,,2,,,74,127
16461,note_off,32,0,0,,6,,,54,127
16464,note_on,3,0,0,,8,,,56,127
16499,note_off,35,0,0,,2,,,74,127
16499,note_on,0,0,0,,4,,,76,127
16566,note_off,67,0,0,,8,,,56,127
16569,note_off,3,0,0,,4,,,76,127
16569,note_on,0,0,0,,10,,,57,127
16569,note_on,0,0,0,,2,,,74,127
16670,note_off,101,0,0,,10,,,57,127
16673,note_on,3,0,0,,12,,,59,127
16774,note_off,101,0,0,,12,,,59,127
16777,note_on,3,0,0,,1,,,61,127
16878,note_off,101,0,0,,1,,,61,127
16881,note_on,3,0,0,,2,,,62,127
16960,note_off,79,0,0,,2,,,74,127
16983,note_off,23,0,0,,2,,,62,127
16986,note_on,3,0,0,,4,,,52,127
16986,note_on,0,0,0,,1,,,73,127
17087,note_off,101,0,0,,1,,,73,127
17090,note_on,3,0,0,,2,,,74,127
17191,note_off,101,0,0,,2,,,74,127
17194,note_on,3,0,0,,4,,,76,127
17295,note_off,101,0,0,,4,,,76,127
17298,note_on,3,0,0,,6,,,78,127
17399,note_off,101,0,0,,6,,,78,127
17402,note_on,3,0,0,,8,,,80,127
17503,note_off,101,0,0,,8,,,80,127
17506,note_on,3,0,0,,10,,,81,127
17607,note_off,101,0,0,,10,,,81,127
17607,note_off,0,0,0,,4,,,52,127
17610,note_on,3,0,0,,2,,,50,127
17610,note_on,0,0,0,,1,,,73,127
17680,note_off,70,0,0,,1,,,73,127
17680,note_on,0,0,0,,12,,,71,127
17712,note_off,32,0,0,,2,,,50,127
17715,note_on,3,0,0,,4,,,52,127
17750,note_off,35,0,0,,12,,,71,127
17750,note_on,0,0,0,,1,,,73,127
17817,note_off,67,0,0,,4,,,52,127
17820,note_off,3,0,0,,1,,,73,127
17820,note_on,0,0,0,,6,,,54,127
17820,note_on,0,0,0,,12,,,71,127
17921,note_off,101,0,0,,6,,,54,127
17924,note_on,3,0,0,,8,,,56,127
18025,note_off,101,0,0,,8,,,56,127
18028,note_on,3,0,0,,10,,,57,127
18129,note_off,101,0,0,,10,,,57,127
18132,note_on,3,0,0,,12,,,59,127
18211,note_off,79,0,0,,12,,,71,127
18234,note_off,23,0,0,,12,,,59,127
18237,note_on,3,0,0,,1,,,49,127
18237,note_on,0,0,0,,10,,,69,127
18338,note_off,101,0,0,,10,,,69,127
18341,note_on,3,0,0,,12,,,71,127
18442,note_off,101,0,0,,12,,,71,127
18445,note_on,3,0,0,,1,,,73,127
18546,note_off,101,0,0,,1,,,73,127
18549,note_on,3,0,0,,2,,,74,127
18650,note_off,101,0,0,,2,,,74,127
18653,note_on,3,0,0,,4,,,76,127
18754,note_off,101,0,0,,4,,,76,127
18757,note_on,3,0,0,,6,,,78,127
18858,note_off,101,0,0,,6,,,78,127
18858,note_off,0,0,0,,1,,,49,127
18861,note_on,3,0,0,,12,,,47,127
18861,note_on,0,0,0,,8,,,80,127
18962,note_off,101,0,0,,8,,,80,127
18965,note_on,3,0,0,,10,,,81,127
19066,note_off,101,0,0,,10,,,81,127
19069,note_on,3,0,0,,12,,,83,127
19170,note_off,101,0,0,,12,,,83,127
19173,note_on,3,0,0,,1,,,85,127
19274,note_off,101,0,0,,1,,,85,127
19274,note_off,0,0,0,,12,,,47,127
19277,note_on,3,0,0,,10,,,45,127
19277,note_on,0,0,0,,2,,,86,127
19378,note_off,101,0,0,,2,,,86,127
19381,note_on,3,0,0,,1,,,85,127
19482,note_off,101,0,0,,1,,,85,127
19482,note_off,0,0,0,,10,,,45,127
19485,note_on,3,0,0,,4,,,52,127
19485,note_on,0,0,0,,12,,,83,127
19586,note_off,101,0,0,,12,,,83,127
19589,note_on,3,0,0,,10,,,81,127
19690,note_off,101,0,0,,10,,,81,127
19690,note_off,0,0,0,,4,,,52,127
19693,note_on,3,0,0,,6,,,54,127
19693,note_on,0,0,0,,8,,,80,127
19794,note_off,101,0,0,,8,,,80,127
19797,note_on,3,0,0,,6,,,78,127
19898,note_off,101,0,0,,6,,,78,127
19898,note_off,0,0,0,,6,,,54,127
19901,note_on,3,0,0,,8,,,56,127
19901,note_on,0,0,0,,4,,,76,127
20002,note_off,101,0,0,,4,,,76,127
20005,note_on,3,0,0,,2,,,74,127
20106,note_off,101,0,0,,2,,,74,127
20106,note_off,0,0,0,,8,,,56,127
20109,note_on,3,0,0,,10,,,57,127
20109,note_on,0,0,0,,1,,,73,127
20210,note_off,101,0,0,,1,,,73,127
20213,note_on,3,0,0,,4,,,76,127
20314,note_off,101,0,0,,4,,,76,127
20314,note_off,0,0,0,,10,,,57,127
20317,note_on,3,0,0,,6,,,54,127
20317,note_on,0,0,0,,2,,,74,127
20418,note_off,101,0,0,,2,,,74,127
20421,note_on,3,0,0,,1,,,73,127
20522,note_off,101,0,0,,1,,,73,127
20522,note_off,0,0,0,,6,,,54,127
20525,note_on,3,0,0,,2,,,50,127
20525,note_on,0,0,0,,12,,,71,127
20626,note_off,101,0,0,,12,,,71,127
20629,note_on,3,0,0,,10,,,69,127
20730,note_off,101,0,0,,10,,,69,127
20730,note_off,0,0,0,,2,,,50,127
20733,note_on,3,0,0,,4,,,52,127
20733,note_on,0,0,0,,8,,,68,127
20834,note_off,101,0,0,,8,,,68,127
20837,note_on,3,0,0,,6,,,66,127
20938,note_off,101,0,0,,6,,,66,127
20941,note_on,3,0,0,,4,,,64,127
21042,note_off,101,0,0,,4,,,52,127
21045,note_on,3,0,0,,2,,,62,127
21146,note_off,101,0,0,,2,,,62,127
21149,note_on,3,0,0,,1,,,61,127
21250,note_off,101,0,0,,1,,,61,127
21253,note_on,3,0,0,,12,,,59,127
21354,note_off,101,0,0,,12,,,59,127
21357,note_on,3,0,0,,10,,,57,127
21357,note_on,0,0,0,,4,,,76,127
21458,note_off,101,0,0,,10,,,57,127
21461,note_off,3,0,0,,4,,,64,127
21461,note_on,0,0,0,,12,,,59,127
21562,note_off,101,0,0,,12,,,59,127
21565,note_on,3,0,0,,1,,,61,127
21666,note_off,101,0,0,,1,,,61,127
21669,note_on,3,0,0,,2,,,62,127
21770,note_off,101,0,0,,2,,,62,127
21773,note_on,3,0,0,,4,,,64,127
21874,note_off,101,0,0,,4,,,64,127
21877,note_on,3,0,0,,6,,,66,127
21978,note_off,101,0,0,,6,,,66,127
21981,note_on,3,0,0,,4,,,40,127
22082,note_off,101,0,0,,4,,,76,127
22085,note_on,3,0,0,,6,,,78,127
22186,note_off,101,0,0,,6,,,78,127
22189,note_on,3,0,0,,4,,,76,127
22290,note_off,101,0,0,,4,,,76,127
22293,note_on,3,0,0,,2,,,74,127
22394,note_off,101,0,0,,2,,,74,127
22397,note_on,3,0,0,,1,,,73,127
22498,note_off,101,0,0,,1,,,73,127
22501,note_on,3,0,0,,12,,,71,127
22602,note_off,101,0,0,,12,,,71,127
22602,note_off,0,0,0,,4,,,40,127
22605,note_on,3,0,0,,10,,,57,127
22605,note_on,0,0,0,,1,,,73,127
22706,note_off,101,0,0,,10,,,57,127
22709,note_on,3,0,0,,12,,,59,127
22810,note_off,101,0,0,,12,,,59,127
22810,note_off,0,0,0,,1,,,73,127
22813,note_on,3,0,0,,1,,,61,127
22813,note_on,0,0,0,,10,,,69,127
22914,note_off,101,0,0,,1,,,61,127
22917,note_on,3,0,0,,2,,,62,127
23018,note_off,101,0,0,,2,,,62,127
23018,note_off,0,0,0,,10,,,69,127
23021,note_on,3,0,0,,4,,,64,127
23021,note_on,0,0,0,,4,,,76,127
23122,note_off,101,0,0,,4,,,64,127
23125,note_on,3,0,0,,6,,,66,127
23226,note_off,101,0,0,,6,,,66,127
23229,note_on,3,0,0,,4,,,40,127
23330,note_off,101,0,0,,4,,,76,127
23333,note_on,3,0,0,,6,,,78,127
23434,note_off,101,0,0,,6,,,78,127
23437,note_on,3,0,0,,4,,,76,127
23538,note_off,101,0,0,,4,,,76,127
23541,note_on,3,0,0,,2,,,74,127
23642,note_off,101,0,0,,2,,,74,127
23645,note_on,3,0,0,,1,,,73,127
23746,note_off,101,0,0,,1,,,73,127
23749,note_on,3,0,0,,12,,,71,127
23850,note_off,101,0,0,,12,,,71,127
23850,note_off,0,0,0,,4,,,40,127
23853,note_on,3,0,0,,10,,,45,127
23853,note_on,0,0,0,,1,,,73,127
23954,note_off,101,0,0,,1,,,73,127
23957,note_on,3,0,0,,4,,,76,127
24058,note_off,101,0,0,,4,,,76,127
24058,note_off,0,0,0,,10,,,45,127
24061,note_on,3,0,0,,12,,,47,127
24061,note_on,0,0,0,,2,,,74,127
24162,note_off,101,0,0,,2,,,74,127
24165,note_on,3,0,0,,6,,,78,127
24266,note_off,101,0,0,,6,,,78,127
24266,note_off,0,0,0,,12,,,47,127
24269,note_on,3,0,0,,1,,,49,127
24269,note_on,0,0,0,,4,,,76,127
24370,note_off,101,0,0,,4,,,76,127
24373,note_on,3,0,0,,10,,,81,127
24474,note_off,101,0,0,,10,,,81,127
24474,note_off,0,0,0,,1,,,49,127
24477,note_on,3,0,0,,2,,,50,127
24477,note_on,0,0,0,,6,,,78,127
24578,note_off,101,0,0,,6,,,78,127
24581,note_on,3,0,0,,2,,,74,127
24682,note_off,101,0,0,,2,,,74,127
24682,note_off,0,0,0,,2,,,50,127
24685,note_on,3,0,0,,4,,,52,127
24685,note_on,0,0,0,,1,,,73,127
24790,note_on,105,0,0,,10,,,81,127
24893,note_off,103,0,0,,1,,,73,127
24895,note_on,2,0,0,,4,,,40,127
24895,note_on,0,0,0,,12,,,71,127
24998,note_off,103,0,0,,10,,,81,127
25000,note_on,2,0,0,,8,,,80,127
25100,note_off,100,0,0,,4,,,52,127
25101,note_off,1,0,0,,8,,,80,127
25101,note_off,0,0,0,,4,,,40,127
25102,note_off,1,0,0,,12,,,71,127
25104,note_on,2,0,0,,10,,,45,127
25104,note_on,0,0,0,,10,,,69,127
25205,note_off,101,0,0,,10,,,69,127
25208,note_on,3,0,0,,12,,,71,127
25309,note_off,101,0,0,,12,,,71,127
25312,note_on,3,0,0,,1,,,73,127
25413,note_off,101,0,0,,1,,,73,127
25416,note_on,3,0,0,,2,,,74,127
25517,note_off,101,0,0,,2,,,74,127
25520,note_on,3,0,0,,4,,,76,127
25621,note_off,101,0,0,,4,,,76,127
25624,note_on,3,0,0,,6,,,78,127
25725,note_off,101,0,0,,6,,,78,127
25725,note_off,0,0,0,,10,,,45,127
25728,note_on,3,0,0,,4,,,52,127
25728,note_on,0,0,0,,6,,,66,127
25798,note_off,70,0,0,,6,,,66,127
25798,note_on,0,0,0,,4,,,64,127
25830,note_off,32,0,0,,4,,,52,127
25833,note_on,3,0,0,,6,,,54,127
25868,note_off,35,0,0,,4,,,64,127
25868,note_on,0,0,0,,6,,,66,127
25935,note_off,67,0,0,,6,,,54,127
25938,note_off,3,0,0,,6,,,66,127
25938,note_on,0,0,0,,4,,,52,127
25938,note_on,0,0,0,,4,,,64,127
26039,note_off,101,0,0,,4,,,52,127
26042,note_on,3,0,0,,2,,,50,127
26143,note_off,101,0,0,,2,,,50,127
26146,note_on,3,0,0,,1,,,49,127
26247,note_off,101,0,0,,1,,,49,127
26250,note_on,3,0,0,,12,,,47,127
26329,note_off,79,0,0,,4,,,64,127
26352,note_off,23,0,0,,12,,,47,127
26355,note_on,3,0,0,,1,,,49,127
26355,note_on,0,0,0,,10,,,69,127
26456,note_off,101,0,0,,10,,,69,127
26459,note_on,3,0,0,,12,,,71,127
26560,note_off,101,0,0,,12,,,71,127
26560,note_off,0,0,0,,1,,,49,127
26563,note_on,3,0,0,,10,,,45,127
26563,note_on,0,0,0,,1,,,73,127
26664,note_off,101,0,0,,1,,,73,127
26667,note_on,3,0,0,,2,,,74,127
26768,note_off,101,0,0,,2,,,74,127
26771,note_on,3,0,0,,4,,,76,127
26872,note_off,101,0,0,,4,,,76,127
26875,note_on,3,0,0,,6,,,78,127
26976,note_off,101,0,0,,6,,,78,127
26976,note_off,0,0,0,,10,,,45,127
26979,note_on,3,0,0,,4,,,52,127
26979,note_on,0,0,0,,6,,,66,127
27049,note_off,70,0,0,,6,,,66,127
27049,note_on,0,0,0,,4,,,64,127
27081,note_off,32,0,0,,4,,,52,127
27084,note_on,3,0,0,,6,,,54,127
27119,note_off,35,0,0,,4,,,64,127
27119,note_on,0,0,0,,6,,,66,127
27186,note_off,67,0,0,,6,,,54,127
27189,note_off,3,0,0,,6,,,66,127
27189,note_on,0,0,0,,4,,,52,127
27189,note_on,0,0,0,,4,,,64,127
27290,note_off,101,0,0,,4,,,52,127
27293,note_on,3,0,0,,2,,,50,127
27394,note_off,101,0,0,,2,,,50,127
27397,note_on,3,0,0,,1,,,49,127
27498,note_off,101,0,0,,1,,,49,127
27501,note_on,3,0,0,,12,,,47,127
27580,note_off,79,0,0,,4,,,64,127
27603,note_off,23,0,0,,12,,,47,127
27606,note_on,3,0,0,,1,,,49,127
27606,note_on,0,0,0,,10,,,69,127
27707,note_off,101,0,0,,10,,,69,127
27710,note_on,3,0,0,,12,,,71,127
27811,note_off,101,0,0,,12,,,71,127
27811,note_off,0,0,0,,1,,,49,127
27814,note_on,3,0,0,,10,,,45,127
27814,note_on,0,0,0,,1,,,73,127
27915,note_off,101,0,0,,1,,,73,127
27918,note_on,3,0,0,,2,,,74,127
28019,note_off,101,0,0,,2,,,74,127
28019,note_off,0,0,0,,10,,,45,127
28022,note_on,3,0,0,,10,,,57,127
28022,note_on,0,0,0,,4,,,76,127
28123,note_off,101,0,0,,4,,,76,127
28126,note_on,3,0,0,,6,,,78,127
28227,note_off,101,0,0,,6,,,78,127
28227,note_off,0,0,0,,10,,,57,127
28230,note_on,3,0,0,,8,,,56,127
28230,note_on,0,0,0,,4,,,76,127
28331,note_off,101,0,0,,4,,,76,127
28334,note_on,3,0,0,,2,,,74,127
28435,note_off,101,0,0,,2,,,74,127
28435,note_off,0,0,0,,8,,,56,127
28438,note_on,3,0,0,,4,,,52,127
28438,note_on,0,0,0,,1,,,73,127
28539,note_off,101,0,0,,1,,,73,127
28542,note_on,3,0,0,,12,,,71,127
28643,note_off,101,0,0,,12,,,71,127
28643,note_off,0,0,0,,4,,,52,127
28646,note_on,3,0,0,,6,,,54,127
28646,note_on,0,0,0,,10,,,69,127
28747,note_off,101,0,0,,10,,,69,127
28750,note_on,3,0,0,,1,,,73,127
28851,note_off,101,0,0,,1,,,73,127
28851,note_off,0,0,0,,6,,,54,127
28854,note_on,3,0,0,,2,,,50,127
28854,note_on,0,0,0,,12,,,71,127
28955,note_off,101,0,0,,12,,,71,127
28958,note_on,3,0,0,,2,,,74,127
29059,note_off,101,0,0,,2,,,74,127
29059,note_off,0,0,0,,2,,,50,127
29062,note_on,3,0,0,,4,,,52,127
29062,note_on,0,0,0,,1,,,73,127
29163,note_off,101,0,0,,1,,,73,127
29166,note_on,3,0,0,,12,,,71,127
29267,note_off,101,0,0,,12,,,71,127
29270,note_on,3,0,0,,4,,,40,127
29270,note_on,0,0,0,,10,,,69,127
29371,note_off,101,0,0,,10,,,69,127
29374,note_on,3,0,0,,8,,,68,127
29461,note_off,87,0,0,,8,,,68,127
29474,note_off,13,0,0,,4,,,52,127
29476,note_off,2,0,0,,4,,,40,127
29478,note_on,2,0,0,,12,,,83,127
29526,note_off,48,0,0,,12,,,83,127
29529,note_on,3,0,0,,10,,,81,127
29580,note_off,51,0,0,,10,,,81,127
29582,note_on,2,0,0,,10,,,69,127
29583,note_on,1,0,0,,12,,,83,127
29634,note_off,51,0,0,,12,,,83,127
29637,note_on,3,0,0,,10,,,81,127
29683,note_off,46,0,0,,10,,,69,127
29686,note_on,3,0,0,,8,,,68,127
29688,note_off,2,0,0,,10,,,81,127
29691,note_on,3,0,0,,12,,,83,127
29742,note_off,51,0,0,,12,,,83,127
29745,note_on,3,0,0,,10,,,81,127
29786,note_off,41,0,0,,8,,,68,127
29789,note_on,3,0,0,,10,,,69,127
29796,note_off,7,0,0,,10,,,81,127
29799,note_on,3,0,0,,12,,,83,127
29850,note_off,51,0,0,,12,,,83,127
29853,note_on,3,0,0,,10,,,81,127
29890,note_off,37,0,0,,10,,,69,127
29893,note_on,3,0,0,,4,,,64,127
29904,note_off,11,0,0,,10,,,81,127
29907,note_on,3,0,0,,12,,,83,127
29958,note_off,51,0,0,,12,,,83,127
29961,note_on,3,0,0,,10,,,81,127
29994,note_off,33,0,0,,4,,,64,127
29997,note_on,3,0,0,,10,,,69,127
30012,note_off,15,0,0,,10,,,81,127
30015,note_on,3,0,0,,12,,,83,127
30066,note_off,51,0,0,,12,,,83,127
30069,note_on,3,0,0,,10,,,81,127
30097,note_off,28,0,0,,10,,,69,127
30100,note_on,3,0,0,,6,,,66,127
30119,note_off,19,0,0,,10,,,81,127
30122,note_on,3,0,0,,12,,,83,127
30173,note_off,51,0,0,,12,,,83,127
30176,note_on,3,0,0,,10,,,81,127
30201,note_off,25,0,0,,6,,,66,127
30204,note_on,3,0,0,,10,,,69,127
30227,note_off,23,0,0,,10,,,81,127
30230,note_on,3,0,0,,12,,,83,127
30281,note_off,51,0,0,,12,,,83,127
30284,note_on,3,0,0,,10,,,81,127
30305,note_off,21,0,0,,10,,,69,127
30308,note_on,3,0,0,,2,,,62,127
30335,note_off,27,0,0,,10,,,81,127
30338,note_on,3,0,0,,12,,,83,127
30389,note_off,51,0,0,,12,,,83,127
30392,note_on,3,0,0,,10,,,81,127
30408,note_off,16,0,0,,2,,,62,127
30411,note_on,3,0,0,,6,,,66,127
30443,note_off,32,0,0,,10,,,81,127
30446,note_on,3,0,0,,12,,,83,127
30497,note_off,51,0,0,,12,,,83,127
30500,note_on,3,0,0,,10,,,81,127
30512,note_off,12,0,0,,6,,,66,127
30515,note_on,3,0,0,,12,,,59,127
30551,note_off,36,0,0,,10,,,81,127
30554,note_on,3,0,0,,12,,,83,127
30605,note_off,51,0,0,,12,,,83,127
30608,note_on,3,0,0,,10,,,81,127
30616,note_off,8,0,0,,12,,,59,127
30619,note_on,3,0,0,,2,,,62,127
30659,note_off,40,0,0,,10,,,81,127
30662,note_on,3,0,0,,12,,,83,127
30713,note_off,51,0,0,,12,,,83,127
30716,note_on,3,0,0,,10,,,81,127
30719,note_off,3,0,0,,2,,,62,127
30722,note_on,3,0,0,,4,,,52,127
30767,note_off,45,0,0,,10,,,81,127
30770,note_on,3,0,0,,12,,,83,127
30820,note_off,50,0,0,,12,,,83,127
30823,note_off,3,0,0,,4,,,52,127
30823,note_on,0,0,0,,10,,,81,127
30826,note_on,3,0,0,,2,,,62,127
30874,note_off,48,0,0,,10,,,81,127
30877,note_on,3,0,0,,12,,,83,127
30927,note_off,50,0,0,,2,,,62,127
30928,note_off,1,0,0,,12,,,83,127
30930,note_on,2,0,0,,1,,,61,127
30931,note_on,1,0,0,,10,,,81,127
30982,note_off,51,0,0,,10,,,81,127
30985,note_on,3,0,0,,12,,,83,127
31031,note_off,46,0,0,,1,,,61,127
31034,note_on,3,0,0,,4,,,64,127
31036,note_off,2,0,0,,12,,,83,127
31039,note_on,3,0,0,,10,,,81,127
31090,note_off,51,0,0,,10,,,81,127
31093,note_on,3,0,0,,12,,,83,127
31134,note_off,41,0,0,,4,,,64,127
31137,note_on,3,0,0,,10,,,57,127
31145,note_off,8,0,0,,12,,,83,127
31148,note_on,3,0,0,,10,,,81,127
31198,note_off,50,0,0,,10,,,81,127
31201,note_on,3,0,0,,12,,,83,127
31238,note_off,37,0,0,,10,,,57,127
31241,note_on,3,0,0,,1,,,61,127
31252,note_off,11,0,0,,12,,,83,127
31255,note_on,3,0,0,,10,,,81,127
31306,note_off,51,0,0,,10,,,81,127
31309,note_on,3,0,0,,12,,,83,127
31342,note_off,33,0,0,,1,,,61,127
31345,note_on,3,0,0,,6,,,54,127
31360,note_off,15,0,0,,12,,,83,127
31363,note_on,3,0,0,,10,,,81,127
31414,note_off,51,0,0,,10,,,81,127
31417,note_on,3,0,0,,12,,,83,127
31445,note_off,28,0,0,,6,,,54,127
31448,note_on,3,0,0,,10,,,57,127
31467,note_off,19,0,0,,12,,,83,127
31470,note_on,3,0,0,,10,,,81,127
31521,note_off,51,0,0,,10,,,81,127
31524,note_on,3,0,0,,12,,,83,127
31549,note_off,25,0,0,,10,,,57,127
31552,note_on,3,0,0,,2,,,50,127
31575,note_off,23,0,0,,12,,,83,127
31578,note_on,3,0,0,,10,,,81,127
31630,note_off,52,0,0,,10,,,81,127
31633,note_on,3,0,0,,12,,,83,127
31653,note_off,20,0,0,,2,,,50,127
31656,note_on,3,0,0,,6,,,54,127
31683,note_off,27,0,0,,12,,,83,127
31686,note_on,3,0,0,,10,,,81,127
31737,note_off,51,0,0,,10,,,81,127
31740,note_on,3,0,0,,12,,,83,127
31756,note_off,16,0,0,,6,,,54,127
31759,note_on,3,0,0,,12,,,47,127
31791,note_off,32,0,0,,12,,,83,127
31794,note_on,3,0,0,,10,,,81,127
31845,note_off,51,0,0,,10,,,81,127
31848,note_on,3,0,0,,12,,,83,127
31860,note_off,12,0,0,,12,,,47,127
31863,note_on,3,0,0,,2,,,50,127
31899,note_off,36,0,0,,12,,,83,127
31902,note_on,3,0,0,,10,,,81,127
31964,note_off,62,0,0,,2,,,50,127
31967,note_on,3,0,0,,4,,,40,127
32027,note_off,60,0,0,,10,,,81,127
32072,note_on,45,0,0,,2,,,74,127
32173,note_off,101,0,0,,2,,,74,127
32176,note_on,3,0,0,,1,,,73,127
32277,note_off,101,0,0,,1,,,73,127
32280,note_on,3,0,0,,12,,,71,127
32381,note_off,101,0,0,,12,,,71,127
32381,note_off,0,0,0,,4,,,40,127
32384,note_on,3,0,0,,10,,,45,127
32384,note_on,0,0,0,,1,,,73,127
32485,note_off,101,0,0,,1,,,73,127
32488,note_on,3,0,0,,10,,,69,127
32589,note_off,101,0,0,,10,,,69,127
32589,note_off,0,0,0,,10,,,45,127
32592,note_on,3,0,0,,2,,,50,127
32592,note_on,0,0,0,,12,,,71,127
32693,note_off,101,0,0,,12,,,71,127
32696,note_on,3,0,0,,2,,,74,127
32797,note_off,101,0,0,,2,,,74,127
32797,note_off,0,0,0,,2,,,50,127
32800,note_on,3,0,0,,4,,,52,127
32800,note_on,0,0,0,,1,,,73,127
32901,note_off,101,0,0,,1,,,73,127
32904,note_on,3,0,0,,12,,,71,127
33005,note_off,101,0,0,,12,,,71,127
33008,note_on,3,0,0,,4,,,40,127
33008,note_on,0,0,0,,10,,,69,127
33109,note_off,101,0,0,,10,,,69,127
33112,note_on,3,0,0,,8,,,68,127
33188,note_off,76,0,0,,8,,,68,127
33212,note_off,24,0,0,,4,,,52,127
33214,note_off,2,0,0,,4,,,40,127
33216,note_on,2,0,0,,12,,,83,127
33264,note_off,48,0,0,,12,,,83,127
33267,note_on,3,0,0,,10,,,81,127
33318,note_off,51,0,0,,10,,,81,127
33320,note_on,2,0,0,,10,,,69,127
33321,note_on,1,0,0,,12,,,83,127
33372,note_off,51,0,0,,12,,,83,127
33375,note_on,3,0,0,,10,,,81,127
33421,note_off,46,0,0,,10,,,69,127
33424,note_on,3,0,0,,8,,,68,127
33426,note_off,2,0,0,,10,,,81,127
33429,note_on,3,0,0,,12,,,83,127
33480,note_off,51,0,0,,12,,,83,127
33483,note_on,3,0,0,,10,,,81,127
33524,note_off,41,0,0,,8,,,68,127
33527,note_on,3,0,0,,10,,,69,127
33534,note_off,7,0,0,,10,,,81,127
33537,note_on,3,0,0,,12,,,83,127
33588,note_off,51,0,0,,12,,,83,127
33591,note_on,3,0,0,,10,,,81,127
33628,note_off,37,0,0,,10,,,69,127
33631,note_on,3,0,0,,4,,,64,127
33642,note_off,11,0,0,,10,,,81,127
33645,note_on,3,0,0,,12,,,83,127
33696,note_off,51,0,0,,12,,,83,127
33699,note_on,3,0,0,,10,,,81,127
33732,note_off,33,0,0,,4,,,64,127
33735,note_on,3,0,0,,10,,,69,127
33750,note_off,15,0,0,,10,,,81,127
33753,note_on,3,0,0,,12,,,83,127
33804,note_off,51,0,0,,12,,,83,127
33807,note_on,3,0,0,,10,,,81,127
33835,note_off,28,0,0,,10,,,69,127
33838,note_on,3,0,0,,6,,,66,127
33857,note_off,19,0,0,,10,,,81,127
33860,note_on,3,0,0,,12,,,83,127
33911,note_off,51,0,0,,12,,,83,127
33914,note_on,3,0,0,,10,,,81,127
33939,note_off,25,0,0,,6,,,66,127
33942,note_on,3,0,0,,10,,,69,127
33965,note_off,23,0,0,,10,,,81,127
33968,note_on,3,0,0,,12,,,83,127
34019,note_off,51,0,0,,12,,,83,127
34022,note_on,3,0,0,,10,,,81,127
34043,note_off,21,0,0,,10,,,69,127
34046,note_on,3,0,0,,2,,,62,127
34073,note_off,27,0,0,,10,,,81,127
34076,note_on,3,0,0,,12,,,83,127
34127,note_off,51,0,0,,12,,,83,127
34130,note_on,3,0,0,,10,,,81,127
34146,note_off,16,0,0,,2,,,62,127
34149,note_on,3,0,0,,6,,,66,127
34181,note_off,32,0,0,,10,,,81,127
34184,note_on,3,0,0,,12,,,83,127
34235,note_off,51,0,0,,12,,,83,127
34238,note_on,3,0,0,,10,,,81,127
34250,note_off,12,0,0,,6,,,66,127
34253,note_on,3,0,0,,12,,,59,127
34289,note_off,36,0,0,,10,,,81,127
34292,note_on,3,0,0,,12,,,83,127
34343,note_off,51,0,0,,12,,,83,127
34346,note_on,3,0,0,,10,,,81,127
34354,note_off,8,0,0,,12,,,59,127
34357,note_on,3,0,0,,2,,,62,127
34397,note_off,40,0,0,,10,,,81,127
34400,note_on,3,0,0,,12,,,83,127
34451,note_off,51,0,0,,12,,,83,127
34454,note_on,3,0,0,,10,,,81,127
34457,note_off,3,0,0,,2,,,62,127
34460,note_on,3,0,0,,4,,,52,127
34505,note_off,45,0,0,,10,,,81,127
34508,note_on,3,0,0,,12,,,83,127
34558,note_off,50,0,0,,12,,,83,127
34561,note_off,3,0,0,,4,,,52,127
34561,note_on,0,0,0,,10,,,81,127
34564,note_on,3,0,0,,2,,,62,127
34612,note_off,48,0,0,,10,,,81,127
34615,note_on,3,0,0,,12,,,83,127
34665,note_off,50,0,0,,2,,,62,127
34666,note_off,1,0,0,,12,,,83,127
34668,note_on,2,0,0,,1,,,61,127
34669,note_on,1,0,0,,10,,,81,127
34720,note_off,51,0,0,,10,,,81,127
34723,note_on,3,0,0,,12,,,83,127
34769,note_off,46,0,0,,1,,,61,127
34772,note_on,3,0,0,,4,,,64,127
34774,note_off,2,0,0,,12,,,83,127
34777,note_on,3,0,0,,10,,,81,127
34828,note_off,51,0,0,,10,,,81,127
34831,note_on,3,0,0,,12,,,83,127
34872,note_off,41,0,0,,4,,,64,127
34875,note_on,3,0,0,,10,,,57,127
34883,note_off,8,0,0,,12,,,83,127
34886,note_on,3,0,0,,10,,,81,127
34936,note_off,50,0,0,,10,,,81,127
34939,note_on,3,0,0,,12,,,83,127
34976,note_off,37,0,0,,10,,,57,127
34979,note_on,3,0,0,,1,,,61,127
34990,note_off,11,0,0,,12,,,83,127
34993,note_on,3,0,0,,10,,,81,127
35044,note_off,51,0,0,,10,,,81,127
35047,note_on,3,0,0,,12,,,83,127
35080,note_off,33,0,0,,1,,,61,127
35083,note_on,3,0,0,,6,,,54,127
35098,note_off,15,0,0,,12,,,83,127
35101,note_on,3,0,0,,10,,,81,127
35152,note_off,51,0,0,,10,,,81,127
35155,note_on,3,0,0,,12,,,83,127
35183,note_off,28,0,0,,6,,,54,127
35186,note_on,3,0,0,,10,,,57,127
35205,note_off,19,0,0,,12,,,83,127
35208,note_on,3,0,0,,10,,,81,127
35259,note_off,51,0,0,,10,,,81,127
35262,note_on,3,0,0,,12,,,83,127
35287,note_off,25,0,0,,10,,,57,127
35290,note_on,3,0,0,,2,,,50,127
35313,note_off,23,0,0,,12,,,83,127
35316,note_on,3,0,0,,10,,,81,127
35368,note_off,52,0,0,,10,,,81,127
35371,note_on,3,0,0,,12,,,83,127
35391,note_off,20,0,0,,2,,,50,127
35394,note_on,3,0,0,,6,,,54,127
35421,note_off,27,0,0,,12,,,83,127
35424,note_on,3,0,0,,10,,,81,127
35475,note_off,51,0,0,,10,,,81,127
35478,note_on,3,0,0,,12,,,83,127
35494,note_off,16,0,0,,6,,,54,127
35497,note_on,3,0,0,,12,,,47,127
35529,note_off,32,0,0,,12,,,83,127
35532,note_on,3,0,0,,10,,,81,127
35583,note_off,51,0,0,,10,,,81,127
35586,note_on,3,0,0,,12,,,83,127
35598,note_off,12,0,0,,12,,,47,127
35601,note_on,3,0,0,,2,,,50,127
35637,note_off,36,0,0,,12,,,83,127
35640,note_on,3,0,0,,10,,,81,127
35702,note_off,62,0,0,,2,,,50,127
35705,note_on,3,0,0,,4,,,40,127
35761,note_off,56,0,0,,10,,,81,127
35810,note_on,49,0,0,,2,,,74,127
35911,note_off,101,0,0,,2,,,74,127
35914,note_on,3,0,0,,1,,,73,127
36015,note_off,101,0,0,,1,,,73,127
36018,note_on,3,0,0,,12,,,71,127
36119,note_off,101,0,0,,12,,,71,127
36119,note_off,0,0,0,,4,,,40,127
36122,note_on,3,0,0,,10,,,45,127
36122,note_on,0,0,0,,1,,,73,127
36223,note_off,101,0,0,,1,,,73,127
36226,note_on,3,0,0,,10,,,69,127
36327,note_off,101,0,0,,10,,,69,127
36327,note_off,0,0,0,,10,,,45,127
36330,note_on,3,0,0,,2,,,50,127
36330,note_on,0,0,0,,12,,,71,127
36431,note_off,101,0,0,,12,,,71,127
36434,note_on,3,0,0,,2,,,74,127
36535,note_off,101,0,0,,2,,,74,127
36535,note_off,0,0,0,,2,,,50,127
36538,note_on,3,0,0,,4,,,52,127
36538,note_on,0,0,0,,1,,,73,127
36639,note_off,101,0,0,,1,,,73,127
36642,note_on,3,0,0,,12,,,71,127
36743,note_off,101,0,0,,12,,,71,127
36746,note_on,3,0,0,,4,,,40,127
36746,note_on,0,0,0,,10,,,69,127
36847,note_off,101,0,0,,10,,,69,127
36850,note_on,3,0,0,,8,,,68,127
36950,note_off,100,0,0,,4,,,52,127
36951,note_off,1,0,0,,8,,,68,127
36951,note_off,0,0,0,,4,,,40,127
36954,note_on,3,0,0,,10,,,45,127
36954,note_on,0,0,0,,10,,,81,127
37055,note_off,101,0,0,,10,,,81,127
37058,note_on,3,0,0,,4,,,76,127
37159,note_off,101,0,0,,4,,,76,127
37159,note_off,0,0,0,,10,,,45,127
37162,note_on,3,0,0,,12,,,47,127
37162,note_on,0,0,0,,1,,,73,127
37263,note_off,101,0,0,,1,,,73,127
37266,note_on,3,0,0,,4,,,76,127
37367,note_off,101,0,0,,4,,,76,127
37367,note_off,0,0,0,,12,,,47,127
37370,note_on,3,0,0,,1,,,49,127
37370,note_on,0,0,0,,10,,,69,127
37471,note_off,101,0,0,,10,,,69,127
37474,note_on,3,0,0,,4,,,76,127
37575,note_off,101,0,0,,4,,,76,127
37575,note_off,0,0,0,,1,,,49,127
37578,note_on,3,0,0,,2,,,50,127
37578,note_on,0,0,0,,4,,,76,127
37679,note_off,101,0,0,,4,,,76,127
37682,note_on,3,0,0,,6,,,78,127
37783,note_off,101,0,0,,6,,,78,127
37783,note_off,0,0,0,,2,,,50,127
37786,note_on,3,0,0,,4,,,52,127
37786,note_on,0,0,0,,4,,,76,127
37887,note_off,101,0,0,,4,,,76,127
37890,note_on,3,0,0,,2,,,74,127
37991,note_off,101,0,0,,2,,,74,127
37994,note_on,3,0,0,,4,,,40,127
37994,note_on,0,0,0,,1,,,73,127
38095,note_off,101,0,0,,1,,,73,127
38098,note_on,3,0,0,,12,,,71,127
38198,note_off,100,0,0,,4,,,52,127
38199,note_off,1,0,0,,12,,,71,127
38199,note_off,0,0,0,,4,,,40,127
38202,note_on,3,0,0,,10,,,45,127
38202,note_on,0,0,0,,10,,,69,127
38303,note_off,101,0,0,,10,,,69,127
38306,note_on,3,0,0,,4,,,64,127
38407,note_off,101,0,0,,4,,,64,127
38407,note_off,0,0,0,,10,,,45,127
38410,note_on,3,0,0,,12,,,47,127
38410,note_on,0,0,0,,1,,,61,127
38511,note_off,101,0,0,,1,,,61,127
38514,note_on,3,0,0,,4,,,64,127
38615,note_off,101,0,0,,4,,,64,127
38615,note_off,0,0,0,,12,,,47,127
38618,note_on,3,0,0,,1,,,49,127
38618,note_on,0,0,0,,10,,,57,127
38719,note_off,101,0,0,,10,,,57,127
38722,note_on,3,0,0,,4,,,64,127
38823,note_off,101,0,0,,4,,,64,127
38823,note_off,0,0,0,,1,,,49,127
38826,note_on,3,0,0,,2,,,50,127
38826,note_on,0,0,0,,4,,,64,127
38927,note_off,101,0,0,,4,,,64,127
38930,note_on,3,0,0,,6,,,66,127
39031,note_off,101,0,0,,6,,,66,127
39031,note_off,0,0,0,,2,,,50,127
39034,note_on,3,0,0,,4,,,52,127
39034,note_on,0,0,0,,4,,,64,127
39135,note_off,101,0,0,,4,,,64,127
39138,note_on,3,0,0,,2,,,62,127
39239,note_off,101,0,0,,2,,,62,127
39242,note_on,3,0,0,,4,,,40,127
39242,note_on,0,0,0,,1,,,61,127
39343,note_off,101,0,0,,1,,,61,127
39346,note_on,3,0,0,,12,,,59,127
39446,note_off,100,0,0,,4,,,52,127
39447,note_off,1,0,0,,12,,,59,127
39447,note_off,0,0,0,,4,,,40,127
39450,note_on,3,0,0,,10,,,45,127
39450,note_on,0,0,0,,12,,,59,127
39499,note_off,49,0,0,,12,,,59,127
39502,note_on,3,0,0,,10,,,57,127
39551,note_off,49,0,0,,10,,,57,127
39554,note_on,3,0,0,,12,,,59,127
39603,note_off,49,0,0,,12,,,59,127
39606,note_on,3,0,0,,10,,,57,127
39973,note_off,367,0,0,,10,,,45,127
40021,note_off,48,0,0,,10,,,57,127
40182,note_on,161,0,0,,11,,,70,127
40182,note_on,0,0,0,,6,,,54,127
40283,note_off,101,0,0,,11,,,70,127
40286,note_on,3,0,0,,12,,,71,127
40387,note_off,101,0,0,,12,,,71,127
40390,note_on,3,0,0,,1,,,73,127
40491,note_off,101,0,0,,1,,,73,127
40494,note_on,3,0,0,,2,,,74,127
40595,note_off,101,0,0,,2,,,74,127
40598,note_on,3,0,0,,4,,,76,127
40699,note_off,101,0,0,,4,,,76,127
40702,note_on,3,0,0,,6,,,78,127
40803,note_off,101,0,0,,6,,,78,127
40806,note_on,3,0,0,,1,,,73,127
40907,note_off,101,0,0,,6,,,54,127
40910,note_on,3,0,0,,8,,,56,127
41011,note_off,101,0,0,,8,,,56,127
41014,note_on,3,0,0,,11,,,58,127
41115,note_off,101,0,0,,11,,,58,127
41118,note_on,3,0,0,,12,,,59,127
41219,note_off,101,0,0,,12,,,59,127
41222,note_on,3,0,0,,1,,,61,127
41323,note_off,101,0,0,,1,,,61,127
41326,note_on,3,0,0,,2,,,62,127
41427,note_off,101,0,0,,2,,,62,127
41430,note_on,3,0,0,,4,,,52,127
41531,note_off,101,0,0,,1,,,73,127
41534,note_on,3,0,0,,4,,,76,127
41635,note_off,101,0,0,,4,,,76,127
41638,note_on,3,0,0,,2,,,74,127
41739,note_off,101,0,0,,2,,,74,127
41742,note_on,3,0,0,,1,,,73,127
41843,note_off,101,0,0,,1,,,73,127
41846,note_on,3,0,0,,12,,,71,127
41947,note_off,101,0,0,,12,,,71,127
41950,note_on,3,0,0,,11,,,70,127
42051,note_off,101,0,0,,11,,,70,127
42051,note_off,0,0,0,,4,,,52,127
42054,note_on,3,0,0,,1,,,73,127
42054,note_on,0,0,0,,2,,,50,127
42124,note_off,70,0,0,,1,,,73,127
42124,note_on,0,0,0,,12,,,71,127
42156,note_off,32,0,0,,2,,,50,127
42159,note_on,3,0,0,,4,,,52,127
42194,note_off,35,0,0,,12,,,71,127
42194,note_on,0,0,0,,1,,,73,127
42261,note_off,67,0,0,,4,,,52,127
42264,note_off,3,0,0,,1,,,73,127
42264,note_on,0,0,0,,12,,,71,127
42264,note_on,0,0,0,,6,,,54,127
42365,note_off,101,0,0,,6,,,54,127
42368,note_on,3,0,0,,8,,,56,127
42469,note_off,101,0,0,,8,,,56,127
42472,note_on,3,0,0,,11,,,58,127
42573,note_off,101,0,0,,11,,,58,127
42576,note_on,3,0,0,,12,,,59,127
42677,note_off,101,0,0,,12,,,59,127
42680,note_on,3,0,0,,1,,,49,127
42741,note_off,61,0,0,,12,,,71,127
42785,note_on,44,0,0,,7,,,79,127
42886,note_off,101,0,0,,7,,,79,127
42889,note_on,3,0,0,,6,,,78,127
42990,note_off,101,0,0,,6,,,78,127
42993,note_on,3,0,0,,4,,,76,127
43094,note_off,101,0,0,,4,,,76,127
43097,note_on,3,0,0,,2,,,74,127
43198,note_off,101,0,0,,2,,,74,127
43201,note_on,3,0,0,,1,,,73,127
43302,note_off,101,0,0,,1,,,73,127
43302,note_off,0,0,0,,1,,,49,127
43305,note_on,3,0,0,,3,,,75,127
43305,note_on,0,0,0,,12,,,71,127
43305,note_on,0,0,0,,12,,,47,127
43406,note_off,101,0,0,,3,,,75,127
43409,note_on,3,0,0,,4,,,76,127
43510,note_off,101,0,0,,4,,,76,127
43513,note_on,3,0,0,,6,,,78,127
43614,note_off,101,0,0,,6,,,78,127
43617,note_on,3,0,0,,7,,,79,127
43718,note_off,101,0,0,,7,,,79,127
43721,note_on,3,0,0,,10,,,81,127
43822,note_off,101,0,0,,10,,,81,127
43825,note_on,3,0,0,,12,,,83,127
43926,note_off,101,0,0,,12,,,83,127
43926,note_off,0,0,0,,12,,,47,127
43928,note_off,2,0,0,,12,,,71,127
43929,note_on,1,0,0,,7,,,79,127
43929,note_on,0,0,0,,12,,,59,127
43999,note_off,70,0,0,,7,,,79,127
43999,note_on,0,0,0,,6,,,78,127
44031,note_off,32,0,0,,12,,,59,127
44034,note_on,3,0,0,,1,,,61,127
44069,note_off,35,0,0,,6,,,78,127
44069,note_on,0,0,0,,7,,,79,127
44136,note_off,67,0,0,,1,,,61,127
44139,note_off,3,0,0,,7,,,79,127
44139,note_on,0,0,0,,6,,,78,127
44139,note_on,0,0,0,,3,,,63,127
44240,note_off,101,0,0,,3,,,63,127
44243,note_on,3,0,0,,4,,,64,127
44344,note_off,101,0,0,,4,,,64,127
44347,note_on,3,0,0,,6,,,66,127
44448,note_off,101,0,0,,6,,,66,127
44451,note_on,3,0,0,,7,,,67,127
44552,note_off,101,0,0,,7,,,67,127
44555,note_on,3,0,0,,10,,,57,127
44638,note_off,83,0,0,,6,,,78,127
44660,note_on,22,0,0,,10,,,81,127
44761,note_off,101,0,0,,10,,,81,127
44764,note_on,3,0,0,,7,,,79,127
44865,note_off,101,0,0,,7,,,79,127
44868,note_on,3,0,0,,6,,,78,127
44969,note_off,101,0,0,,6,,,78,127
44972,note_on,3,0,0,,4,,,76,127
45073,note_off,101,0,0,,4,,,76,127
45076,note_on,3,0,0,,3,,,75,127
45177,note_off,101,0,0,,3,,,75,127
45177,note_off,0,0,0,,10,,,57,127
45180,note_on,3,0,0,,3,,,75,127
45180,note_on,0,0,0,,7,,,55,127
45281,note_off,101,0,0,,7,,,55,127
45284,note_on,3,0,0,,10,,,57,127
45385,note_off,101,0,0,,10,,,57,127
45388,note_on,3,0,0,,12,,,59,127
45489,note_off,101,0,0,,12,,,59,127
45492,note_on,3,0,0,,0,,,60,127
45593,note_off,101,0,0,,0,,,60,127
45593,note_off,0,0,0,,3,,,75,127
45596,note_on,3,0,0,,4,,,76,127
45596,note_on,0,0,0,,3,,,63,127
45697,note_off,101,0,0,,3,,,63,127
45700,note_on,3,0,0,,4,,,64,127
45801,note_off,101,0,0,,4,,,64,127
45804,note_on,3,0,0,,6,,,54,127
45905,note_off,101,0,0,,4,,,76,127
45908,note_on,3,0,0,,0,,,84,127
46009,note_off,101,0,0,,0,,,84,127
46012,note_on,3,0,0,,12,,,83,127
46113,note_off,101,0,0,,12,,,83,127
46116,note_on,3,0,0,,10,,,81,127
46217,note_off,101,0,0,,10,,,81,127
46220,note_on,3,0,0,,7,,,79,127
46321,note_off,101,0,0,,7,,,79,127
46324,note_on,3,0,0,,6,,,78,127
46425,note_off,101,0,0,,6,,,78,127
46425,note_off,0,0,0,,6,,,54,127
46428,note_on,3,0,0,,7,,,79,127
46428,note_on,0,0,0,,4,,,52,127
46529,note_off,101,0,0,,7,,,79,127
46532,note_on,3,0,0,,6,,,78,127
46633,note_off,101,0,0,,6,,,78,127
46633,note_off,0,0,0,,4,,,52,127
46636,note_on,3,0,0,,4,,,76,127
46636,note_on,0,0,0,,6,,,54,127
46737,note_off,101,0,0,,4,,,76,127
46740,note_on,3,0,0,,2,,,74,127
46841,note_off,101,0,0,,2,,,74,127
46841,note_off,0,0,0,,6,,,54,127
46844,note_on,3,0,0,,0,,,72,127
46844,note_on,0,0,0,,7,,,55,127
46945,note_off,101,0,0,,0,,,72,127
46948,note_on,3,0,0,,12,,,71,127
47049,note_off,101,0,0,,12,,,71,127
47049,note_off,0,0,0,,7,,,55,127
47052,note_on,3,0,0,,0,,,72,127
47052,note_on,0,0,0,,10,,,57,127
47153,note_off,101,0,0,,0,,,72,127
47156,note_on,3,0,0,,12,,,71,127
47257,note_off,101,0,0,,12,,,71,127
47257,note_off,0,0,0,,10,,,57,127
47260,note_on,3,0,0,,10,,,69,127
47260,note_on,0,0,0,,12,,,59,127
47361,note_off,101,0,0,,10,,,69,127
47364,note_on,3,0,0,,7,,,67,127
47465,note_off,101,0,0,,7,,,67,127
47465,note_off,0,0,0,,12,,,59,127
47468,note_on,3,0,0,,6,,,66,127
47468,note_on,0,0,0,,0,,,60,127
47569,note_off,101,0,0,,6,,,66,127
47572,note_on,3,0,0,,4,,,64,127
47673,note_off,101,0,0,,4,,,64,127
47673,note_off,0,0,0,,0,,,60,127
47676,note_on,3,0,0,,3,,,63,127
47676,note_on,0,0,0,,12,,,47,127
47777,note_off,101,0,0,,3,,,63,127
47780,note_on,3,0,0,,0,,,60,127
47881,note_off,101,0,0,,0,,,60,127
47881,note_off,0,0,0,,12,,,47,127
47884,note_on,3,0,0,,12,,,59,127
47884,note_on,0,0,0,,1,,,49,127
47985,note_off,101,0,0,,12,,,59,127
47988,note_on,3,0,0,,10,,,57,127
48089,note_off,101,0,0,,10,,,57,127
48089,note_off,0,0,0,,1,,,49,127
48092,note_on,3,0,0,,7,,,55,127
48092,note_on,0,0,0,,3,,,51,127
48193,note_off,101,0,0,,7,,,55,127
48196,note_on,3,0,0,,6,,,54,127
48297,note_off,101,0,0,,6,,,54,127
48297,note_off,0,0,0,,3,,,51,127
48300,note_on,3,0,0,,7,,,55,127
48300,note_on,0,0,0,,4,,,52,127
48401,note_off,101,0,0,,7,,,55,127
48404,note_on,3,0,0,,12,,,59,127
48505,note_off,101,0,0,,12,,,59,127
48505,note_off,0,0,0,,4,,,52,127
48508,note_on,3,0,0,,10,,,57,127
48508,note_on,0,0,0,,0,,,48,127
48609,note_off,101,0,0,,10,,,57,127
48612,note_on,3,0,0,,7,,,55,127
48713,note_off,101,0,0,,7,,,55,127
48713,note_off,0,0,0,,0,,,48,127
48716,note_on,3,0,0,,6,,,54,127
48716,note_on,0,0,0,,10,,,45,127
48817,note_off,101,0,0,,6,,,54,127
48820,note_on,3,0,0,,4,,,52,127
48921,note_off,101,0,0,,4,,,52,127
48921,note_off,0,0,0,,10,,,45,127
48924,note_on,3,0,0,,0,,,60,127
48924,note_on,0,0,0,,12,,,47,127
48973,note_off,49,0,0,,0,,,60,127
48976,note_on,3,0,0,,12,,,59,127
49025,note_off,49,0,0,,12,,,59,127
49028,note_on,3,0,0,,0,,,60,127
49077,note_off,49,0,0,,0,,,60,127
49080,note_on,3,0,0,,12,,,59,127
49495,note_off,415,0,0,,12,,,59,127
49654,note_off,159,0,0,,12,,,47,127
50075,note_on,421,0,0,,0,,,36,127
50180,note_on,105,0,0,,0,,,60,127
50281,note_off,101,0,0,,0,,,60,127
50284,note_on,3,0,0,,4,,,64,127
50385,note_off,101,0,0,,4,,,64,127
50388,note_on,3,0,0,,7,,,67,127
50489,note_off,101,0,0,,7,,,67,127
50492,note_on,3,0,0,,0,,,72,127
50593,note_off,101,0,0,,0,,,72,127
50596,note_on,3,0,0,,4,,,76,127
50697,note_off,101,0,0,,4,,,76,127
50697,note_off,0,0,0,,0,,,36,127
50700,note_on,3,0,0,,0,,,84,127
50700,note_on,0,0,0,,0,,,36,127
50801,note_off,101,0,0,,0,,,84,127
50804,note_on,3,0,0,,12,,,83,127
50905,note_off,101,0,0,,12,,,83,127
50908,note_on,3,0,0,,10,,,81,127
51009,note_off,101,0,0,,10,,,81,127
51012,note_on,3,0,0,,7,,,79,127
51113,note_off,101,0,0,,7,,,79,127
51116,note_on,3,0,0,,6,,,78,127
51217,note_off,101,0,0,,6,,,78,127
51220,note_on,3,0,0,,4,,,76,127
51321,note_off,101,0,0,,4,,,76,127
51321,note_off,0,0,0,,0,,,36,127
51324,note_on,3,0,0,,2,,,74,127
51324,note_on,0,0,0,,2,,,50,127
51324,note_on,0,0,0,,2,,,38,127
51425,note_off,101,0,0,,2,,,74,127
51428,note_on,3,0,0,,0,,,72,127
51529,note_off,101,0,0,,0,,,72,127
51532,note_on,3,0,0,,12,,,71,127
51633,note_off,101,0,0,,12,,,71,127
51636,note_on,3,0,0,,10,,,69,127
51737,note_off,101,0,0,,10,,,69,127
51740,note_on,3,0,0,,7,,,67,127
51841,note_off,101,0,0,,7,,,67,127
51844,note_on,3,0,0,,6,,,66,127
51945,note_off,101,0,0,,6,,,66,127
51945,note_off,0,0,0,,2,,,38,127
51945,note_off,0,0,0,,2,,,50,127
51948,note_on,3,0,0,,7,,,67,127
51948,note_on,0,0,0,,7,,,55,127
51948,note_on,0,0,0,,7,,,43,127
52049,note_off,101,0,0,,7,,,67,127
52052,note_on,3,0,0,,10,,,69,127
52153,note_off,101,0,0,,10,,,69,127
52156,note_on,3,0,0,,12,,,71,127
52257,note_off,101,0,0,,12,,,71,127
52260,note_on,3,0,0,,0,,,72,127
52361,note_off,101,0,0,,0,,,72,127
52364,note_on,3,0,0,,2,,,74,127
52465,note_off,101,0,0,,2,,,74,127
52468,note_on,3,0,0,,4,,,76,127
52569,note_off,101,0,0,,4,,,76,127
52569,note_off,0,0,0,,7,,,43,127
52569,note_off,0,0,0,,7,,,55,127
52572,note_on,3,0,0,,1,,,73,127
52572,note_on,0,0,0,,10,,,45,127
52572,note_on,0,0,0,,10,,,57,127
52673,note_off,101,0,0,,1,,,73,127
52676,note_on,3,0,0,,2,,,74,127
52777,note_off,101,0,0,,2,,,74,127
52780,note_on,3,0,0,,4,,,76,127
52881,note_off,101,0,0,,4,,,76,127
52884,note_on,3,0,0,,6,,,78,127
52985,note_off,101,0,0,,6,,,78,127
52988,note_on,3,0,0,,7,,,79,127
53089,note_off,101,0,0,,7,,,79,127
53092,note_on,3,0,0,,10,,,81,127
53193,note_off,101,0,0,,10,,,81,127
53193,note_off,0,0,0,,10,,,57,127
53193,note_off,0,0,0,,10,,,45,127
53196,note_on,3,0,0,,7,,,79,127
53196,note_on,0,0,0,,6,,,78,127
53196,note_on,0,0,0,,2,,,50,127
53196,note_on,0,0,0,,2,,,38,127
53297,note_off,101,0,0,,6,,,78,127
53297,note_off,0,0,0,,7,,,79,127
53300,note_on,3,0,0,,4,,,76,127
53401,note_off,101,0,0,,4,,,76,127
53404,note_on,3,0,0,,2,,,74,127
53505,note_off,101,0,0,,2,,,74,127
53508,note_on,3,0,0,,1,,,73,127
53609,note_off,101,0,0,,1,,,73,127
53612,note_on,3,0,0,,12,,,71,127
53713,note_off,101,0,0,,12,,,71,127
53716,note_on,3,0,0,,10,,,69,127
53817,note_off,101,0,0,,10,,,69,127
53817,note_off,0,0,0,,2,,,38,127
53817,note_off,0,0,0,,2,,,50,127
53820,note_on,3,0,0,,8,,,68,127
53820,note_on,0,0,0,,4,,,40,127
53820,note_on,0,0,0,,4,,,52,127
53921,note_off,101,0,0,,8,,,68,127
53924,note_on,3,0,0,,10,,,69,127
54025,note_off,101,0,0,,10,,,69,127
54028,note_on,3,0,0,,12,,,71,127
54129,note_off,101,0,0,,12,,,71,127
54132,note_on,3,0,0,,1,,,73,127
54233,note_off,101,0,0,,1,,,73,127
54236,note_on,3,0,0,,2,,,74,127
54337,note_off,101,0,0,,2,,,74,127
54340,note_on,3,0,0,,4,,,76,127
54441,note_off,101,0,0,,4,,,76,127
54441,note_off,0,0,0,,4,,,52,127
54441,note_off,0,0,0,,4,,,40,127
54444,note_on,3,0,0,,1,,,73,127
54444,note_on,0,0,0,,10,,,45,127
54545,note_off,101,0,0,,1,,,73,127
54548,note_on,3,0,0,,2,,,74,127
54649,note_off,101,0,0,,2,,,74,127
54649,note_off,0,0,0,,10,,,45,127
54652,note_on,3,0,0,,4,,,76,127
54652,note_on,0,0,0,,12,,,47,127
54753,note_off,101,0,0,,4,,,76,127
54756,note_on,3,0,0,,6,,,78,127
54857,note_off,101,0,0,,6,,,78,127
54857,note_off,0,0,0,,12,,,47,127
54860,note_on,3,0,0,,7,,,79,127
54860,note_on,0,0,0,,1,,,49,127
54961,note_off,101,0,0,,7,,,79,127
54964,note_on,3,0,0,,10,,,81,127
55065,note_off,101,0,0,,10,,,81,127
55065,note_off,0,0,0,,1,,,49,127
55068,note_on,3,0,0,,6,,,78,127
55068,note_on,0,0,0,,2,,,50,127
55169,note_off,101,0,0,,6,,,78,127
55172,note_on,3,0,0,,10,,,81,127
55273,note_off,101,0,0,,10,,,81,127
55273,note_off,0,0,0,,2,,,50,127
55276,note_on,3,0,0,,7,,,79,127
55276,note_on,0,0,0,,12,,,59,127
55377,note_off,101,0,0,,7,,,79,127
55380,note_on,3,0,0,,6,,,78,127
55481,note_off,101,0,0,,6,,,78,127
55481,note_off,0,0,0,,12,,,59,127
55484,note_on,3,0,0,,4,,,76,127
55484,note_on,0,0,0,,7,,,55,127
55585,note_off,101,0,0,,4,,,76,127
55588,note_on,3,0,0,,2,,,74,127
55689,note_off,101,0,0,,2,,,74,127
55689,note_off,0,0,0,,7,,,55,127
55692,note_on,3,0,0,,1,,,73,127
55692,note_on,0,0,0,,10,,,57,127
55793,note_off,101,0,0,,1,,,73,127
55796,note_on,3,0,0,,12,,,71,127
55897,note_off,101,0,0,,12,,,71,127
55900,note_on,3,0,0,,10,,,69,127
56001,note_off,101,0,0,,10,,,57,127
56004,note_on,3,0,0,,7,,,67,127
56105,note_off,101,0,0,,7,,,67,127
56108,note_on,3,0,0,,6,,,66,127
56209,note_off,101,0,0,,6,,,66,127
56212,note_on,3,0,0,,4,,,64,127
56313,note_off,101,0,0,,4,,,64,127
56313,note_off,0,0,0,,10,,,69,127
56316,note_on,3,0,0,,10,,,81,127
56316,note_on,0,0,0,,2,,,62,127
56417,note_off,101,0,0,,2,,,62,127
56420,note_on,3,0,0,,4,,,64,127
56521,note_off,101,0,0,,4,,,64,127
56524,note_on,3,0,0,,6,,,66,127
56625,note_off,101,0,0,,6,,,66,127
56628,note_on,3,0,0,,7,,,67,127
56729,note_off,101,0,0,,7,,,67,127
56732,note_on,3,0,0,,10,,,69,127
56833,note_off,101,0,0,,10,,,69,127
56836,note_on,3,0,0,,12,,,71,127
56937,note_off,101,0,0,,12,,,71,127
56940,note_on,3,0,0,,10,,,45,127
57041,note_off,101,0,0,,10,,,81,127
57044,note_on,3,0,0,,12,,,83,127
57145,note_off,101,0,0,,12,,,83,127
57148,note_on,3,0,0,,10,,,81,127
57249,note_off,101,0,0,,10,,,81,127
57252,note_on,3,0,0,,7,,,79,127
57353,note_off,101,0,0,,7,,,79,127
57356,note_on,3,0,0,,6,,,78,127
57457,note_off,101,0,0,,6,,,78,127
57460,note_on,3,0,0,,4,,,76,127
57561,note_off,101,0,0,,4,,,76,127
57561,note_off,0,0,0,,10,,,45,127
57564,note_on,3,0,0,,6,,,78,127
57564,note_on,0,0,0,,2,,,62,127
57665,note_off,101,0,0,,2,,,62,127
57668,note_on,3,0,0,,4,,,64,127
57769,note_off,101,0,0,,4,,,64,127
57769,note_off,0,0,0,,6,,,78,127
57772,note_on,3,0,0,,2,,,74,127
57772,note_on,0,0,0,,6,,,66,127
57873,note_off,101,0,0,,6,,,66,127
57876,note_on,3,0,0,,7,,,67,127
57977,note_off,101,0,0,,7,,,67,127
57977,note_off,0,0,0,,2,,,74,127
57980,note_on,3,0,0,,10,,,81,127
57980,note_on,0,0,0,,10,,,69,127
58081,note_off,101,0,0,,10,,,69,127
58084,note_on,3,0,0,,12,,,71,127
58185,note_off,101,0,0,,12,,,71,127
58188,note_on,3,0,0,,10,,,45,127
58289,note_off,101,0,0,,10,,,81,127
58292,note_on,3,0,0,,12,,,83,127
58393,note_off,101,0,0,,12,,,83,127
58396,note_on,3,0,0,,10,,,81,127
58497,note_off,101,0,0,,10,,,81,127
58500,note_on,3,0,0,,7,,,79,127
58601,note_off,101,0,0,,7,,,79,127
58604,note_on,3,0,0,,6,,,78,127
58705,note_off,101,0,0,,6,,,78,127
58708,note_on,3,0,0,,4,,,76,127
58809,note_off,101,0,0,,4,,,76,127
58809,note_off,0,0,0,,10,,,45,127
58812,note_on,3,0,0,,6,,,78,127
58812,note_on,0,0,0,,2,,,50,127
58913,note_off,101,0,0,,6,,,78,127
58916,note_on,3,0,0,,2,,,74,127
59017,note_off,101,0,0,,2,,,74,127
59017,note_off,0,0,0,,2,,,50,127
59020,note_on,3,0,0,,7,,,79,127
59020,note_on,0,0,0,,4,,,52,127
59121,note_off,101,0,0,,7,,,79,127
59124,note_on,3,0,0,,4,,,76,127
59225,note_off,101,0,0,,4,,,76,127
59225,note_off,0,0,0,,4,,,52,127
59228,note_on,3,0,0,,10,,,81,127
59228,note_on,0,0,0,,6,,,54,127
59329,note_off,101,0,0,,10,,,81,127
59332,note_on,3,0,0,,6,,,78,127
59433,note_off,101,0,0,,6,,,78,127
59433,note_off,0,0,0,,6,,,54,127
59436,note_on,3,0,0,,12,,,83,127
59436,note_on,0,0,0,,7,,,55,127
59537,note_off,101,0,0,,12,,,83,127
59540,note_on,3,0,0,,7,,,79,127
59641,note_off,101,0,0,,7,,,79,127
59641,note_off,0,0,0,,7,,,55,127
59644,note_on,3,0,0,,6,,,78,127
59644,note_on,0,0,0,,10,,,57,127
59745,note_off,101,0,0,,6,,,78,127
59748,note_on,3,0,0,,4,,,76,127
59849,note_off,101,0,0,,4,,,76,127
59852,note_on,3,0,0,,2,,,74,127
59852,note_on,0,0,0,,10,,,45,127
59953,note_off,101,0,0,,2,,,74,127
59956,note_on,3,0,0,,1,,,73,127
60056,note_off,100,0,0,,10,,,57,127
60057,note_off,1,0,0,,1,,,73,127
60057,note_off,0,0,0,,10,,,45,127
60060,note_on,3,0,0,,2,,,74,127
60060,note_on,0,0,0,,2,,,50,127
60161,note_off,101,0,0,,2,,,74,127
60164,note_on,3,0,0,,4,,,76,127
60265,note_off,101,0,0,,4,,,76,127
60268,note_on,3,0,0,,6,,,78,127
60369,note_off,101,0,0,,6,,,78,127
60372,note_on,3,0,0,,7,,,79,127
60473,note_off,101,0,0,,7,,,79,127
60476,note_on,3,0,0,,10,,,81,127
60577,note_off,101,0,0,,10,,,81,127
60580,note_off,3,0,0,,2,,,50,127
60580,note_on,0,0,0,,12,,,83,127
60681,note_off,101,0,0,,12,,,83,127
60684,note_on,3,0,0,,12,,,71,127
60684,note_on,0,0,0,,10,,,57,127
60754,note_off,70,0,0,,12,,,71,127
60754,note_on,0,0,0,,10,,,69,127
60786,note_off,32,0,0,,10,,,57,127
60789,note_on,3,0,0,,12,,,59,127
60824,note_off,35,0,0,,10,,,69,127
60824,note_on,0,0,0,,12,,,71,127
60891,note_off,67,0,0,,12,,,59,127
60894,note_off,3,0,0,,12,,,71,127
60894,note_on,0,0,0,,10,,,69,127
60894,note_on,0,0,0,,10,,,57,127
60995,note_off,101,0,0,,10,,,57,127
60998,note_on,3,0,0,,7,,,55,127
61099,note_off,101,0,0,,7,,,55,127
61102,note_on,3,0,0,,6,,,54,127
61203,note_off,101,0,0,,6,,,54,127
61206,note_on,3,0,0,,4,,,52,127
61285,note_off,79,0,0,,10,,,69,127
61308,note_off,23,0,0,,4,,,52,127
61311,note_on,3,0,0,,2,,,74,127
61311,note_on,0,0,0,,6,,,54,127
61412,note_off,101,0,0,,2,,,74,127
61415,note_on,3,0,0,,4,,,76,127
61516,note_off,101,0,0,,4,,,76,127
61516,note_off,0,0,0,,6,,,54,127
61519,note_on,3,0,0,,6,,,78,127
61519,note_on,0,0,0,,2,,,50,127
61620,note_off,101,0,0,,6,,,78,127
61623,note_on,3,0,0,,7,,,79,127
61724,note_off,101,0,0,,7,,,79,127
61727,note_on,3,0,0,,10,,,81,127
61828,note_off,101,0,0,,10,,,81,127
61831,note_on,3,0,0,,12,,,83,127
61932,note_off,101,0,0,,12,,,83,127
61932,note_off,0,0,0,,2,,,50,127
61935,note_on,3,0,0,,12,,,71,127
61935,note_on,0,0,0,,10,,,57,127
62005,note_off,70,0,0,,12,,,71,127
62005,note_on,0,0,0,,10,,,69,127
62037,note_off,32,0,0,,10,,,57,127
62040,note_on,3,0,0,,12,,,59,127
62075,note_off,35,0,0,,10,,,69,127
62075,note_on,0,0,0,,12,,,71,127
62142,note_off,67,0,0,,12,,,59,127
62145,note_off,3,0,0,,12,,,71,127
62145,note_on,0,0,0,,10,,,69,127
62145,note_on,0,0,0,,10,,,57,127
62246,note_off,101,0,0,,10,,,57,127
62249,note_on,3,0,0,,7,,,55,127
62350,note_off,101,0,0,,7,,,55,127
62353,note_on,3,0,0,,6,,,54,127
62454,note_off,101,0,0,,6,,,54,127
62457,note_on,3,0,0,,4,,,52,127
62536,note_off,79,0,0,,10,,,69,127
62559,note_off,23,0,0,,4,,,52,127
62562,note_on,3,0,0,,2,,,74,127
62562,note_on,0,0,0,,6,,,54,127
62663,note_off,101,0,0,,2,,,74,127
62666,note_on,3,0,0,,4,,,76,127
62767,note_off,101,0,0,,4,,,76,127
62767,note_off,0,0,0,,6,,,54,127
62770,note_on,3,0,0,,6,,,78,127
62770,note_on,0,0,0,,2,,,50,127
62871,note_off,101,0,0,,6,,,78,127
62874,note_on,3,0,0,,7,,,79,127
62975,note_off,101,0,0,,7,,,79,127
62978,note_on,3,0,0,,10,,,81,127
63079,note_off,101,0,0,,10,,,81,127
63082,note_on,3,0,0,,12,,,83,127
63183,note_off,101,0,0,,12,,,83,127
63183,note_off,0,0,0,,2,,,50,127
63186,note_on,3,0,0,,10,,,81,127
63186,note_on,0,0,0,,1,,,49,127
63287,note_off,101,0,0,,10,,,81,127
63290,note_on,3,0,0,,7,,,79,127
63391,note_off,101,0,0,,7,,,79,127
63391,note_off,0,0,0,,1,,,49,127
63394,note_on,3,0,0,,6,,,78,127
63394,note_on,0,0,0,,10,,,45,127
63495,note_off,101,0,0,,6,,,78,127
63498,note_on,3,0,0,,4,,,76,127
63599,note_off,101,0,0,,4,,,76,127
63599,note_off,0,0,0,,10,,,45,127
63602,note_on,3,0,0,,2,,,74,127
63602,note_on,0,0,0,,12,,,47,127
63703,note_off,101,0,0,,2,,,74,127
63706,note_on,3,0,0,,6,,,78,127
63807,note_off,101,0,0,,6,,,78,127
63807,note_off,0,0,0,,12,,,47,127
63810,note_on,3,0,0,,4,,,76,127
63810,note_on,0,0,0,,7,,,43,127
63911,note_off,101,0,0,,4,,,76,127
63914,note_on,3,0,0,,7,,,79,127
64015,note_off,101,0,0,,7,,,79,127
64015,note_off,0,0,0,,7,,,43,127
64018,note_on,3,0,0,,6,,,78,127
64018,note_on,0,0,0,,10,,,45,127
64119,note_off,101,0,0,,6,,,78,127
64122,note_on,3,0,0,,4,,,76,127
64223,note_off,101,0,0,,4,,,76,127
64226,note_on,3,0,0,,2,,,74,127
64327,note_off,101,0,0,,2,,,74,127
64330,note_on,3,0,0,,1,,,73,127
64417,note_off,87,0,0,,1,,,73,127
64430,note_off,13,0,0,,10,,,45,127
64434,note_on,4,0,0,,4,,,88,127
64482,note_off,48,0,0,,4,,,88,127
64485,note_on,3,0,0,,2,,,86,127
64536,note_off,51,0,0,,2,,,86,127
64538,note_on,2,0,0,,2,,,74,127
64539,note_on,1,0,0,,4,,,88,127
64590,note_off,51,0,0,,4,,,88,127
64593,note_on,3,0,0,,2,,,86,127
64639,note_off,46,0,0,,2,,,74,127
64642,note_on,3,0,0,,1,,,73,127
64644,note_off,2,0,0,,2,,,86,127
64647,note_on,3,0,0,,4,,,88,127
64698,note_off,51,0,0,,4,,,88,127
64701,note_on,3,0,0,,2,,,86,127
64742,note_off,41,0,0,,1,,,73,127
64745,note_on,3,0,0,,2,,,74,127
64752,note_off,7,0,0,,2,,,86,127
64755,note_on,3,0,0,,4,,,88,127
64806,note_off,51,0,0,,4,,,88,127
64809,note_on,3,0,0,,2,,,86,127
64846,note_off,37,0,0,,2,,,74,127
64849,note_on,3,0,0,,10,,,69,127
64860,note_off,11,0,0,,2,,,86,127
64863,note_on,3,0,0,,4,,,88,127
64914,note_off,51,0,0,,4,,,88,127
64917,note_on,3,0,0,,2,,,86,127
64950,note_off,33,0,0,,10,,,69,127
64953,note_on,3,0,0,,2,,,74,127
64968,note_off,15,0,0,,2,,,86,127
64971,note_on,3,0,0,,4,,,88,127
65022,note_off,51,0,0,,4,,,88,127
65025,note_on,3,0,0,,2,,,86,127
65053,note_off,28,0,0,,2,,,74,127
65056,note_on,3,0,0,,12,,,71,127
65075,note_off,19,0,0,,2,,,86,127
65078,note_on,3,0,0,,4,,,88,127
65129,note_off,51,0,0,,4,,,88,127
65132,note_on,3,0,0,,2,,,86,127
65157,note_off,25,0,0,,12,,,71,127
65160,note_on,3,0,0,,2,,,74,127
65183,note_off,23,0,0,,2,,,86,127
65186,note_on,3,0,0,,4,,,88,127
65237,note_off,51,0,0,,4,,,88,127
65240,note_on,3,0,0,,2,,,86,127
65261,note_off,21,0,0,,2,,,74,127
65264,note_on,3,0,0,,7,,,67,127
65291,note_off,27,0,0,,2,,,86,127
65294,note_on,3,0,0,,4,,,88,127
65345,note_off,51,0,0,,4,,,88,127
65348,note_on,3,0,0,,2,,,86,127
65364,note_off,16,0,0,,7,,,67,127
65367,note_on,3,0,0,,12,,,71,127
65399,note_off,32,0,0,,2,,,86,127
65402,note_on,3,0,0,,4,,,88,127
65453,note_off,51,0,0,,4,,,88,127
65456,note_on,3,0,0,,2,,,86,127
65468,note_off,12,0,0,,12,,,71,127
65471,note_on,3,0,0,,4,,,64,127
65507,note_off,36,0,0,,2,,,86,127
65510,note_on,3,0,0,,4,,,88,127
65561,note_off,51,0,0,,4,,,88,127
65564,note_on,3,0,0,,2,,,86,127
65572,note_off,8,0,0,,4,,,64,127
65575,note_on,3,0,0,,7,,,67,127
65615,note_off,40,0,0,,2,,,86,127
65618,note_on,3,0,0,,4,,,88,127
65669,note_off,51,0,0,,4,,,88,127
65672,note_on,3,0,0,,2,,,86,127
65675,note_off,3,0,0,,7,,,67,127
65678,note_on,3,0,0,,10,,,57,127
65723,note_off,45,0,0,,2,,,86,127
65726,note_on,3,0,0,,4,,,88,127
65776,note_off,50,0,0,,4,,,88,127
65779,note_off,3,0,0,,10,,,57,127
65779,note_on,0,0,0,,2,,,86,127
65782,note_on,3,0,0,,7,,,67,127
65830,note_off,48,0,0,,2,,,86,127
65833,note_on,3,0,0,,4,,,88,127
65883,note_off,50,0,0,,7,,,67,127
65884,note_off,1,0,0,,4,,,88,127
65886,note_on,2,0,0,,6,,,66,127
65887,note_on,1,0,0,,2,,,86,127
65938,note_off,51,0,0,,2,,,86,127
65941,note_on,3,0,0,,4,,,88,127
65987,note_off,46,0,0,,6,,,66,127
65990,note_on,3,0,0,,10,,,69,127
65992,note_off,2,0,0,,4,,,88,127
65995,note_on,3,0,0,,2,,,86,127
66046,note_off,51,0,0,,2,,,86,127
66049,note_on,3,0,0,,4,,,88,127
66090,note_off,41,0,0,,10,,,69,127
66093,note_on,3,0,0,,2,,,62,127
66101,note_off,8,0,0,,4,,,88,127
66104,note_on,3,0,0,,2,,,86,127
66154,note_off,50,0,0,,2,,,86,127
66157,note_on,3,0,0,,4,,,88,127
66194,note_off,37,0,0,,2,,,62,127
66197,note_on,3,0,0,,6,,,66,127
66208,note_off,11,0,0,,4,,,88,127
66211,note_on,3,0,0,,2,,,86,127
66262,note_off,51,0,0,,2,,,86,127
66265,note_on,3,0,0,,4,,,88,127
66298,note_off,33,0,0,,6,,,66,127
66301,note_on,3,0,0,,12,,,59,127
66316,note_off,15,0,0,,4,,,88,127
66319,note_on,3,0,0,,2,,,86,127
66370,note_off,51,0,0,,2,,,86,127
66373,note_on,3,0,0,,4,,,88,127
66401,note_off,28,0,0,,12,,,59,127
66404,note_on,3,0,0,,2,,,62,127
66423,note_off,19,0,0,,4,,,88,127
66426,note_on,3,0,0,,2,,,86,127
66477,note_off,51,0,0,,2,,,86,127
66480,note_on,3,0,0,,4,,,88,127
66505,note_off,25,0,0,,2,,,62,127
66508,note_on,3,0,0,,7,,,55,127
66531,note_off,23,0,0,,4,,,88,127
66534,note_on,3,0,0,,2,,,86,127
66586,note_off,52,0,0,,2,,,86,127
66589,note_on,3,0,0,,4,,,88,127
66609,note_off,20,0,0,,7,,,55,127
66612,note_on,3,0,0,,12,,,59,127
66639,note_off,27,0,0,,4,,,88,127
66642,note_on,3,0,0,,2,,,86,127
66693,note_off,51,0,0,,2,,,86,127
66696,note_on,3,0,0,,4,,,88,127
66712,note_off,16,0,0,,12,,,59,127
66715,note_on,3,0,0,,4,,,52,127
66747,note_off,32,0,0,,4,,,88,127
66750,note_on,3,0,0,,2,,,86,127
66801,note_off,51,0,0,,2,,,86,127
66804,note_on,3,0,0,,4,,,88,127
66816,note_off,12,0,0,,4,,,52,127
66819,note_on,3,0,0,,7,,,55,127
66855,note_off,36,0,0,,4,,,88,127
66858,note_on,3,0,0,,2,,,86,127
66920,note_off,62,0,0,,7,,,55,127
66923,note_on,3,0,0,,10,,,45,127
66981,note_off,58,0,0,,2,,,86,127
67028,note_on,47,0,0,,7,,,79,127
67129,note_off,101,0,0,,7,,,79,127
67132,note_on,3,0,0,,6,,,78,127
67233,note_off,101,0,0,,6,,,78,127
67236,note_on,3,0,0,,4,,,76,127
67337,note_off,101,0,0,,4,,,76,127
67337,note_off,0,0,0,,10,,,45,127
67340,note_on,3,0,0,,6,,,78,127
67340,note_on,0,0,0,,2,,,50,127
67441,note_off,101,0,0,,6,,,78,127
67444,note_on,3,0,0,,2,,,74,127
67545,note_off,101,0,0,,2,,,74,127
67545,note_off,0,0,0,,2,,,50,127
67548,note_on,3,0,0,,4,,,76,127
67548,note_on,0,0,0,,7,,,55,127
67649,note_off,101,0,0,,4,,,76,127
67652,note_on,3,0,0,,7,,,79,127
67753,note_off,101,0,0,,7,,,79,127
67753,note_off,0,0,0,,7,,,55,127
67756,note_on,3,0,0,,6,,,78,127
67756,note_on,0,0,0,,10,,,57,127
67857,note_off,101,0,0,,6,,,78,127
67860,note_on,3,0,0,,4,,,76,127
67961,note_off,101,0,0,,4,,,76,127
67964,note_on,3,0,0,,2,,,74,127
67964,note_on,0,0,0,,10,,,45,127
68065,note_off,101,0,0,,2,,,74,127
68068,note_on,3,0,0,,1,,,73,127
68155,note_off,87,0,0,,1,,,73,127
68168,note_off,13,0,0,,10,,,57,127
68172,note_on,4,0,0,,4,,,88,127
68220,note_off,48,0,0,,4,,,88,127
68223,note_on,3,0,0,,2,,,86,127
68273,note_off,50,0,0,,10,,,45,127
68274,note_off,1,0,0,,2,,,86,127
68276,note_on,2,0,0,,2,,,74,127
68277,note_on,1,0,0,,4,,,88,127
68328,note_off,51,0,0,,4,,,88,127
68331,note_on,3,0,0,,2,,,86,127
68377,note_off,46,0,0,,2,,,74,127
68380,note_on,3,0,0,,1,,,73,127
68382,note_off,2,0,0,,2,,,86,127
68385,note_on,3,0,0,,4,,,88,127
68436,note_off,51,0,0,,4,,,88,127
68439,note_on,3,0,0,,2,,,86,127
68480,note_off,41,0,0,,1,,,73,127
68483,note_on,3,0,0,,2,,,74,127
68490,note_off,7,0,0,,2,,,86,127
68493,note_on,3,0,0,,4,,,88,127
68544,note_off,51,0,0,,4,,,88,127
68547,note_on,3,0,0,,2,,,86,127
68584,note_off,37,0,0,,2,,,74,127
68587,note_on,3,0,0,,10,,,69,127
68598,note_off,11,0,0,,2,,,86,127
68601,note_on,3,0,0,,4,,,88,127
68652,note_off,51,0,0,,4,,,88,127
68655,note_on,3,0,0,,2,,,86,127
68688,note_off,33,0,0,,10,,,69,127
68691,note_on,3,0,0,,2,,,74,127
68706,note_off,15,0,0,,2,,,86,127
68709,note_on,3,0,0,,4,,,88,127
68760,note_off,51,0,0,,4,,,88,127
68763,note_on,3,0,0,,2,,,86,127
68791,note_off,28,0,0,,2,,,74,127
68794,note_on,3,0,0,,12,,,71,127
68813,note_off,19,0,0,,2,,,86,127
68816,note_on,3,0,0,,4,,,88,127
68867,note_off,51,0,0,,4,,,88,127
68870,note_on,3,0,0,,2,,,86,127
68895,note_off,25,0,0,,12,,,71,127
68898,note_on,3,0,0,,2,,,74,127
68921,note_off,23,0,0,,2,,,86,127
68924,note_on,3,0,0,,4,,,88,127
68975,note_off,51,0,0,,4,,,88,127
68978,note_on,3,0,0,,2,,,86,127
68999,note_off,21,0,0,,2,,,74,127
69002,note_on,3,0,0,,7,,,67,127
69029,note_off,27,0,0,,2,,,86,127
69032,note_on,3,0,0,,4,,,88,127
69083,note_off,51,0,0,,4,,,88,127
69086,note_on,3,0,0,,2,,,86,127
69102,note_off,16,0,0,,7,,,67,127
69105,note_on,3,0,0,,12,,,71,127
69137,note_off,32,0,0,,2,,,86,127
69140,note_on,3,0,0,,4,,,88,127
69191,note_off,51,0,0,,4,,,88,127
69194,note_on,3,0,0,,2,,,86,127
69206,note_off,12,0,0,,12,,,71,127
69209,note_on,3,0,0,,4,,,64,127
69245,note_off,36,0,0,,2,,,86,127
69248,note_on,3,0,0,,4,,,88,127
69299,note_off,51,0,0,,4,,,88,127
69302,note_on,3,0,0,,2,,,86,127
69310,note_off,8,0,0,,4,,,64,127
69313,note_on,3,0,0,,7,,,67,127
69353,note_off,40,0,0,,2,,,86,127
69356,note_on,3,0,0,,4,,,88,127
69407,note_off,51,0,0,,4,,,88,127
69410,note_on,3,0,0,,2,,,86,127
69413,note_off,3,0,0,,7,,,67,127
69416,note_on,3,0,0,,10,,,57,127
69461,note_off,45,0,0,,2,,,86,127
69464,note_on,3,0,0,,4,,,88,127
69514,note_off,50,0,0,,4,,,88,127
69517,note_off,3,0,0,,10,,,57,127
69517,note_on,0,0,0,,2,,,86,127
69520,note_on,3,0,0,,7,,,67,127
69568,note_off,48,0,0,,2,,,86,127
69571,note_on,3,0,0,,4,,,88,127
69621,note_off,50,0,0,,7,,,67,127
69622,note_off,1,0,0,,4,,,88,127
69624,note_on,2,0,0,,6,,,66,127
69625,note_on,1,0,0,,2,,,86,127
69676,note_off,51,0,0,,2,,,86,127
69679,note_on,3,0,0,,4,,,88,127
69725,note_off,46,0,0,,6,,,66,127
69728,note_on,3,0,0,,10,,,69,127
69730,note_off,2,0,0,,4,,,88,127
69733,note_on,3,0,0,,2,,,86,127
69784,note_off,51,0,0,,2,,,86,127
69787,note_on,3,0,0,,4,,,88,127
69828,note_off,41,0,0,,10,,,69,127
69831,note_on,3,0,0,,2,,,62,127
69839,note_off,8,0,0,,4,,,88,127
69842,note_on,3,0,0,,2,,,86,127
69892,note_off,50,0,0,,2,,,86,127
69895,note_on,3,0,0,,4,,,88,127
69932,note_off,37,0,0,,2,,,62,127
69935,note_on,3,0,0,,6,,,66,127
69946,note_off,11,0,0,,4,,,88,127
69949,note_on,3,0,0,,2,,,86,127
70000,note_off,51,0,0,,2,,,86,127
70003,note_on,3,0,0,,4,,,88,127
70036,note_off,33,0,0,,6,,,66,127
70039,note_on,3,0,0,,12,,,59,127
70054,note_off,15,0,0,,4,,,88,127
70057,note_on,3,0,0,,2,,,86,127
70108,note_off,51,0,0,,2,,,86,127
70111,note_on,3,0,0,,4,,,88,127
70139,note_off,28,0,0,,12,,,59,127
70142,note_on,3,0,0,,2,,,62,127
70161,note_off,19,0,0,,4,,,88,127
70164,note_on,3,0,0,,2,,,86,127
70215,note_off,51,0,0,,2,,,86,127
70218,note_on,3,0,0,,4,,,88,127
70243,note_off,25,0,0,,2,,,62,127
70246,note_on,3,0,0,,7,,,55,127
70269,note_off,23,0,0,,4,,,88,127
70272,note_on,3,0,0,,2,,,86,127
70324,note_off,52,0,0,,2,,,86,127
70327,note_on,3,0,0,,4,,,88,127
70347,note_off,20,0,0,,7,,,55,127
70350,note_on,3,0,0,,12,,,59,127
70377,note_off,27,0,0,,4,,,88,127
70380,note_on,3,0,0,,2,,,86,127
70431,note_off,51,0,0,,2,,,86,127
70434,note_on,3,0,0,,4,,,88,127
70450,note_off,16,0,0,,12,,,59,127
70453,note_on,3,0,0,,4,,,52,127
70485,note_off,32,0,0,,4,,,88,127
70488,note_on,3,0,0,,2,,,86,127
70539,note_off,51,0,0,,2,,,86,127
70542,note_on,3,0,0,,4,,,88,127
70554,note_off,12,0,0,,4,,,52,127
70557,note_on,3,0,0,,7,,,55,127
70593,note_off,36,0,0,,4,,,88,127
70596,note_on,3,0,0,,2,,,86,127
70658,note_off,62,0,0,,7,,,55,127
70661,note_on,3,0,0,,10,,,45,127
70719,note_off,58,0,0,,2,,,86,127
70766,note_on,47,0,0,,7,,,79,127
70867,note_off,101,0,0,,7,,,79,127
70870,note_on,3,0,0,,6,,,78,127
70971,note_off,101,0,0,,6,,,78,127
70974,note_on,3,0,0,,4,,,76,127
71075,note_off,101,0,0,,4,,,76,127
71075,note_off,0,0,0,,10,,,45,127
71078,note_on,3,0,0,,6,,,78,127
71078,note_on,0,0,0,,2,,,50,127
71179,note_off,101,0,0,,6,,,78,127
71182,note_on,3,0,0,,2,,,74,127
71283,note_off,101,0,0,,2,,,74,127
71283,note_off,0,0,0,,2,,,50,127
71286,note_on,3,0,0,,4,,,76,127
71286,note_on,0,0,0,,7,,,55,127
71387,note_off,101,0,0,,4,,,76,127
71390,note_on,3,0,0,,7,,,79,127
71491,note_off,101,0,0,,7,,,79,127
71491,note_off,0,0,0,,7,,,55,127
71494,note_on,3,0,0,,6,,,78,127
71494,note_on,0,0,0,,10,,,57,127
71595,note_off,101,0,0,,6,,,78,127
71598,note_on,3,0,0,,4,,,76,127
71699,note_off,101,0,0,,4,,,76,127
71702,note_on,3,0,0,,2,,,74,127
71702,note_on,0,0,0,,10,,,45,127
71803,note_off,101,0,0,,2,,,74,127
71806,note_on,3,0,0,,1,,,73,127
71906,note_off,100,0,0,,10,,,57,127
71907,note_off,1,0,0,,1,,,73,127
71907,note_off,0,0,0,,10,,,45,127
71910,note_on,3,0,0,,2,,,50,127
71910,note_on,0,0,0,,2,,,86,127
72011,note_off,101,0,0,,2,,,86,127
72015,note_on,4,0,0,,10,,,81,127
72115,note_off,100,0,0,,2,,,50,127
72116,note_off,1,0,0,,10,,,81,127
72120,note_on,4,0,0,,4,,,52,127
72120,note_on,0,0,0,,6,,,78,127
72221,note_off,101,0,0,,6,,,78,127
72225,note_on,4,0,0,,10,,,81,127
72325,note_off,100,0,0,,4,,,52,127
72326,note_off,1,0,0,,10,,,81,127
72330,note_on,4,0,0,,6,,,54,127
72330,note_on,0,0,0,,2,,,74,127
72431,note_off,101,0,0,,2,,,74,127
72435,note_on,4,0,0,,10,,,81,127
72535,note_off,100,0,0,,6,,,54,127
72536,note_off,1,0,0,,10,,,81,127
72540,note_on,4,0,0,,7,,,55,127
72540,note_on,0,0,0,,10,,,81,127
72641,note_off,101,0,0,,10,,,81,127
72645,note_on,4,0,0,,12,,,83,127
72745,note_off,100,0,0,,7,,,55,127
72746,note_off,1,0,0,,12,,,83,127
72750,note_on,4,0,0,,10,,,57,127
72750,note_on,0,0,0,,10,,,81,127
72851,note_off,101,0,0,,10,,,81,127
72855,note_on,4,0,0,,7,,,79,127
72956,note_off,101,0,0,,7,,,79,127
72960,note_on,4,0,0,,10,,,45,127
72960,note_on,0,0,0,,6,,,78,127
73061,note_off,101,0,0,,6,,,78,127
73065,note_on,4,0,0,,4,,,76,127
73162,note_off,97,0,0,,10,,,57,127
73165,note_off,3,0,0,,10,,,45,127
73167,note_off,2,0,0,,4,,,76,127
73171,note_on,4,0,0,,2,,,74,127
73171,note_on,0,0,0,,2,,,50,127
73274,note_off,103,0,0,,2,,,74,127
73279,note_on,5,0,0,,10,,,69,127
73380,note_off,101,0,0,,2,,,50,127
73381,note_off,1,0,0,,10,,,69,127
73386,note_on,5,0,0,,6,,,66,127
73386,note_on,0,0,0,,4,,,52,127
73489,note_off,103,0,0,,6,,,66,127
73494,note_on,5,0,0,,10,,,69,127
73595,note_off,101,0,0,,4,,,52,127
73596,note_off,1,0,0,,10,,,69,127
73601,note_on,5,0,0,,2,,,62,127
73601,note_on,0,0,0,,6,,,54,127
73704,note_off,103,0,0,,2,,,62,127
73709,note_on,5,0,0,,10,,,69,127
73810,note_off,101,0,0,,6,,,54,127
73811,note_off,1,0,0,,10,,,69,127
73816,note_on,5,0,0,,10,,,69,127
73816,note_on,0,0,0,,7,,,55,127
73919,note_off,103,0,0,,10,,,69,127
73924,note_on,5,0,0,,12,,,71,127
74025,note_off,101,0,0,,7,,,55,127
74026,note_off,1,0,0,,12,,,71,127
74031,note_on,5,0,0,,10,,,69,127
74031,note_on,0,0,0,,10,,,57,127
74134,note_off,103,0,0,,10,,,69,127
74139,note_on,5,0,0,,7,,,67,127
74242,note_off,103,0,0,,7,,,67,127
74247,note_on,5,0,0,,6,,,66,127
74247,note_on,0,0,0,,10,,,45,127
74350,note_off,103,0,0,,6,,,66,127
74351,note_off,1,0,0,,10,,,57,127
74355,note_on,4,0,0,,4,,,64,127
74456,note_off,101,0,0,,10,,,45,127
74457,note_off,1,0,0,,4,,,64,127
74461,note_on,4,0,0,,4,,,64,127
74461,note_on,0,0,0,,2,,,50,127
74461,note_on,0,0,0,,2,,,38,127
74510,note_off,49,0,0,,4,,,64,127
74514,note_on,4,0,0,,2,,,62,127
74563,note_off,49,0,0,,2,,,62,127
74568,note_on,5,0,0,,4,,,64,127
74617,note_off,49,0,0,,4,,,64,127
74621,note_on,4,0,0,,2,,,62,127
76292,note_off,1671,0,0,,2,,,62,127
76292,note_off,0,0,0,,2,,,38,127
76292,note_off,0,0,0,,2,,,50,127
81408,end_of_track,5116,1,0,,,,,,
