tick,type,time,meta,track,program,channel,pitch,tempo,note,velocity
0,copyright,0,1,0,,,,,,
0,program_change,0,0,0,6,0,,,,
0,pitchwheel,0,0,0,,0,0,,,
0,program_change,0,0,0,6,1,,,,
0,pitchwheel,0,0,0,,1,-590,,,
0,program_change,0,0,0,6,2,,,,
0,pitchwheel,0,0,0,,2,-272,,,
0,program_change,0,0,0,6,3,,,,
0,pitchwheel,0,0,0,,3,-353,,,
0,program_change,0,0,0,6,4,,,,
0,pitchwheel,0,0,0,,4,-560,,,
0,program_change,0,0,0,6,5,,,,
0,pitchwheel,0,0,0,,5,-80,,,
0,program_change,0,0,0,6,6,,,,
0,pitchwheel,0,0,0,,6,-625,,,
0,program_change,0,0,0,6,7,,,,
0,pitchwheel,0,0,0,,7,-130,,,
0,program_change,0,0,0,6,8,,,,
0,pitchwheel,0,0,0,,8,-512,,,
0,program_change,0,0,0,6,10,,,,
0,pitchwheel,0,0,0,,10,-464,,,
0,program_change,0,0,0,6,11,,,,
0,pitchwheel,0,0,0,,11,-208,,,
0,program_change,0,0,0,6,12,,,,
0,pitchwheel,0,0,0,,12,-553,,,
0,set_tempo,0,1,0,,,,500000,,
128,note_on,128,0,0,,0,,,72,127
295,note_off,167,0,0,,0,,,72,127
299,note_on,4,0,0,,5,,,77,127
636,note_off,337,0,0,,5,,,77,127
640,note_on,4,0,0,,7,,,79,127
807,note_off,167,0,0,,7,,,79,127
811,note_on,4,0,0,,8,,,80,127
1148,note_off,337,0,0,,8,,,80,127
1152,note_on,4,0,0,,8,,,80,127
1319,note_off,167,0,0,,8,,,80,127
1323,note_on,4,0,0,,7,,,79,127
1660,note_off,337,0,0,,7,,,79,127
1664,note_on,4,0,0,,5,,,77,127
1831,note_off,167,0,0,,5,,,77,127
1835,note_on,4,0,0,,0,,,72,127
2176,note_on,341,0,0,,0,,,60,127
2343,note_off,167,0,0,,0,,,60,127
2347,note_on,4,0,0,,5,,,65,127
2684,note_off,337,0,0,,5,,,65,127
2688,note_on,4,0,0,,7,,,67,127
2855,note_off,167,0,0,,7,,,67,127
2859,note_on,4,0,0,,8,,,68,127
3196,note_off,337,0,0,,8,,,68,127
3200,note_on,4,0,0,,8,,,68,127
3367,note_off,167,0,0,,8,,,68,127
3367,note_off,0,0,0,,0,,,72,127
3371,note_on,4,0,0,,5,,,77,127
3371,note_on,0,0,0,,7,,,67,127
3708,note_off,337,0,0,,7,,,67,127
3712,note_on,4,0,0,,5,,,65,127
3879,note_off,167,0,0,,5,,,65,127
3883,note_on,4,0,0,,0,,,60,127
4220,note_off,337,0,0,,5,,,77,127
4224,note_on,4,0,0,,7,,,79,127
4391,note_off,167,0,0,,7,,,79,127
4395,note_on,4,0,0,,4,,,76,127
4395,note_on,0,0,0,,11,,,70,127
4732,note_off,337,0,0,,4,,,76,127
4736,note_on,4,0,0,,5,,,77,127
4903,note_off,167,0,0,,5,,,77,127
4907,note_on,4,0,0,,7,,,79,127
4919,note_off,12,0,0,,0,,,60,127
5244,note_off,325,0,0,,7,,,79,127
5244,note_off,0,0,0,,11,,,70,127
5248,note_on,4,0,0,,7,,,79,127
5248,note_on,0,0,0,,11,,,70,127
5415,note_off,167,0,0,,11,,,70,127
5415,note_off,0,0,0,,7,,,79,127
5419,note_on,4,0,0,,5,,,77,127
5419,note_on,0,0,0,,8,,,68,127
5756,note_off,337,0,0,,8,,,68,127
5756,note_off,0,0,0,,5,,,77,127
5760,note_on,4,0,0,,4,,,76,127
5760,note_on,0,0,0,,7,,,67,127
5927,note_off,167,0,0,,7,,,67,127
5931,note_on,4,0,0,,0,,,72,127
5931,note_on,0,0,0,,0,,,60,127
6014,note_off,83,0,0,,4,,,76,127
6269,note_off,255,0,0,,0,,,72,127
6273,note_on,4,0,0,,0,,,84,127
6273,note_on,0,0,0,,8,,,68,127
6440,note_off,167,0,0,,8,,,68,127
6440,note_off,0,0,0,,0,,,84,127
6443,note_off,3,0,0,,0,,,60,127
6444,note_on,1,0,0,,11,,,82,127
6444,note_on,0,0,0,,7,,,67,127
6781,note_off,337,0,0,,7,,,67,127
6781,note_off,0,0,0,,11,,,82,127
6785,note_on,4,0,0,,8,,,80,127
6785,note_on,0,0,0,,5,,,65,127
6952,note_off,167,0,0,,5,,,65,127
6952,note_off,0,0,0,,8,,,80,127
6956,note_on,4,0,0,,11,,,82,127
6956,note_on,0,0,0,,0,,,60,127
7293,note_off,337,0,0,,11,,,82,127
7297,note_on,4,0,0,,11,,,82,127
7297,note_on,0,0,0,,7,,,67,127
7464,note_off,167,0,0,,7,,,67,127
7464,note_off,0,0,0,,11,,,82,127
7467,note_off,3,0,0,,0,,,60,127
7468,note_on,1,0,0,,8,,,80,127
7468,note_on,0,0,0,,5,,,65,127
7805,note_off,337,0,0,,5,,,65,127
7805,note_off,0,0,0,,8,,,80,127
7809,note_on,4,0,0,,7,,,79,127
7809,note_on,0,0,0,,4,,,64,127
7976,note_off,167,0,0,,4,,,64,127
7976,note_off,0,0,0,,7,,,79,127
7980,note_on,4,0,0,,8,,,80,127
7980,note_on,0,0,0,,5,,,65,127
7980,note_on,0,0,0,,5,,,53,127
8317,note_off,337,0,0,,8,,,80,127
8321,note_on,4,0,0,,0,,,72,127
8488,note_off,167,0,0,,0,,,72,127
8492,note_on,4,0,0,,8,,,68,127
8829,note_off,337,0,0,,8,,,68,127
8833,note_on,4,0,0,,11,,,70,127
9000,note_off,167,0,0,,11,,,70,127
9004,note_on,4,0,0,,0,,,72,127
9004,note_on,0,0,0,,8,,,68,127
9287,note_off,283,0,0,,5,,,65,127
9342,note_off,55,0,0,,5,,,53,127
9346,note_on,4,0,0,,0,,,60,127
9513,note_off,167,0,0,,0,,,60,127
9517,note_on,4,0,0,,5,,,53,127
9517,note_on,0,0,0,,8,,,56,127
9854,note_off,337,0,0,,8,,,56,127
9854,note_off,0,0,0,,5,,,53,127
9858,note_on,4,0,0,,11,,,58,127
9858,note_on,0,0,0,,7,,,55,127
10025,note_off,167,0,0,,7,,,55,127
10025,note_off,0,0,0,,11,,,58,127
10029,note_on,4,0,0,,8,,,56,127
10029,note_on,0,0,0,,0,,,60,127
10366,note_off,337,0,0,,8,,,68,127
10366,note_off,0,0,0,,0,,,72,127
10370,note_on,4,0,0,,0,,,72,127
10537,note_off,167,0,0,,0,,,72,127
10537,note_off,0,0,0,,0,,,60,127
10537,note_off,0,0,0,,8,,,56,127
10541,note_on,4,0,0,,0,,,72,127
10541,note_on,0,0,0,,7,,,55,127
10541,note_on,0,0,0,,11,,,58,127
10878,note_off,337,0,0,,11,,,58,127
10878,note_off,0,0,0,,7,,,55,127
10878,note_off,0,0,0,,0,,,72,127
10882,note_on,4,0,0,,2,,,74,127
10882,note_on,0,0,0,,8,,,56,127
10882,note_on,0,0,0,,5,,,53,127
11049,note_off,167,0,0,,5,,,53,127
11049,note_off,0,0,0,,8,,,56,127
11049,note_off,0,0,0,,2,,,74,127
11053,note_on,4,0,0,,3,,,75,127
11053,note_on,0,0,0,,3,,,51,127
11053,note_on,0,0,0,,7,,,55,127
11390,note_off,337,0,0,,3,,,75,127
11394,note_on,4,0,0,,3,,,75,127
11561,note_off,167,0,0,,3,,,75,127
11561,note_off,0,0,0,,7,,,55,127
11561,note_off,0,0,0,,3,,,51,127
11565,note_on,4,0,0,,3,,,75,127
11565,note_on,0,0,0,,3,,,51,127
11565,note_on,0,0,0,,7,,,55,127
11902,note_off,337,0,0,,7,,,55,127
11902,note_off,0,0,0,,3,,,51,127
11902,note_off,0,0,0,,3,,,75,127
11906,note_on,4,0,0,,5,,,77,127
11906,note_on,0,0,0,,2,,,50,127
11906,note_on,0,0,0,,5,,,53,127
12073,note_off,167,0,0,,5,,,53,127
12073,note_off,0,0,0,,2,,,50,127
12073,note_off,0,0,0,,5,,,77,127
12077,note_on,4,0,0,,7,,,79,127
12077,note_on,0,0,0,,0,,,48,127
12077,note_on,0,0,0,,3,,,51,127
12414,note_off,337,0,0,,7,,,79,127
12418,note_on,4,0,0,,7,,,79,127
12585,note_off,167,0,0,,7,,,79,127
12589,note_on,4,0,0,,0,,,72,127
12589,note_on,0,0,0,,3,,,75,127
12926,note_off,337,0,0,,3,,,75,127
12926,note_off,0,0,0,,0,,,72,127
12930,note_on,4,0,0,,5,,,77,127
12930,note_on,0,0,0,,2,,,74,127
13097,note_off,167,0,0,,2,,,74,127
13097,note_off,0,0,0,,5,,,77,127
13101,note_on,4,0,0,,7,,,79,127
13101,note_on,0,0,0,,3,,,75,127
13277,note_off,176,0,0,,3,,,51,127
13277,note_off,0,0,0,,0,,,48,127
13442,note_on,165,0,0,,7,,,67,127
13609,note_off,167,0,0,,7,,,67,127
13613,note_on,4,0,0,,0,,,60,127
13613,note_on,0,0,0,,3,,,63,127
13950,note_off,337,0,0,,3,,,63,127
13950,note_off,0,0,0,,0,,,60,127
13954,note_on,4,0,0,,5,,,65,127
13954,note_on,0,0,0,,2,,,62,127
14121,note_off,167,0,0,,2,,,62,127
14121,note_off,0,0,0,,5,,,65,127
14125,note_on,4,0,0,,3,,,63,127
14125,note_on,0,0,0,,7,,,67,127
14462,note_off,337,0,0,,3,,,75,127
14462,note_off,0,0,0,,7,,,79,127
14466,note_on,4,0,0,,3,,,75,127
14633,note_off,167,0,0,,3,,,75,127
14633,note_off,0,0,0,,7,,,67,127
14633,note_off,0,0,0,,3,,,63,127
14637,note_on,4,0,0,,2,,,74,127
14637,note_on,0,0,0,,5,,,65,127
14974,note_off,337,0,0,,2,,,74,127
14978,note_on,4,0,0,,0,,,72,127
14978,note_on,0,0,0,,8,,,68,127
15043,note_off,65,0,0,,5,,,65,127
15144,note_off,101,0,0,,8,,,68,127
15144,note_off,0,0,0,,0,,,72,127
15148,note_on,4,0,0,,12,,,71,127
15148,note_on,0,0,0,,7,,,67,127
15485,note_off,337,0,0,,7,,,67,127
15489,note_on,4,0,0,,12,,,59,127
15489,note_on,0,0,0,,7,,,67,127
15656,note_off,167,0,0,,7,,,67,127
15656,note_off,0,0,0,,12,,,59,127
15660,note_on,4,0,0,,7,,,67,127
15660,note_on,0,0,0,,12,,,59,127
15672,note_off,12,0,0,,12,,,71,127
15997,note_off,325,0,0,,12,,,59,127
15997,note_off,0,0,0,,7,,,67,127
16001,note_on,4,0,0,,12,,,59,127
16001,note_on,0,0,0,,7,,,67,127
16168,note_off,167,0,0,,7,,,67,127
16168,note_off,0,0,0,,12,,,59,127
16172,note_on,4,0,0,,0,,,60,127
16172,note_on,0,0,0,,8,,,68,127
16509,note_off,337,0,0,,8,,,68,127
16509,note_off,0,0,0,,0,,,60,127
16513,note_on,4,0,0,,2,,,62,127
16513,note_on,0,0,0,,12,,,71,127
16680,note_off,167,0,0,,12,,,71,127
16680,note_off,0,0,0,,2,,,62,127
16684,note_on,4,0,0,,2,,,62,127
16684,note_on,0,0,0,,12,,,71,127
17021,note_off,337,0,0,,12,,,71,127
17021,note_off,0,0,0,,2,,,62,127
17025,note_on,4,0,0,,12,,,71,127
17025,note_on,0,0,0,,2,,,62,127
17192,note_off,167,0,0,,2,,,62,127
17192,note_off,0,0,0,,12,,,71,127
17196,note_on,4,0,0,,5,,,77,127
17196,note_on,0,0,0,,0,,,72,127
17196,note_on,0,0,0,,3,,,63,127
17277,note_off,81,0,0,,5,,,77,127
17281,note_on,4,0,0,,3,,,75,127
17362,note_off,81,0,0,,3,,,75,127
17366,note_on,4,0,0,,5,,,77,127
17447,note_off,81,0,0,,5,,,77,127
17451,note_on,4,0,0,,3,,,75,127
17532,note_off,81,0,0,,3,,,75,127
17532,note_off,0,0,0,,3,,,63,127
17532,note_off,0,0,0,,0,,,72,127
17536,note_on,4,0,0,,5,,,77,127
17536,note_on,0,0,0,,7,,,67,127
17536,note_on,0,0,0,,12,,,59,127
17617,note_off,81,0,0,,5,,,77,127
17621,note_on,4,0,0,,7,,,79,127
17702,note_off,81,0,0,,7,,,79,127
17702,note_off,0,0,0,,12,,,59,127
17702,note_off,0,0,0,,7,,,67,127
17706,note_on,4,0,0,,5,,,77,127
17706,note_on,0,0,0,,7,,,67,127
17706,note_on,0,0,0,,12,,,59,127
18043,note_off,337,0,0,,12,,,59,127
18043,note_off,0,0,0,,7,,,67,127
18047,note_on,4,0,0,,7,,,67,127
18047,note_on,0,0,0,,12,,,59,127
18214,note_off,167,0,0,,12,,,59,127
18214,note_off,0,0,0,,7,,,67,127
18218,note_on,4,0,0,,8,,,68,127
18218,note_on,0,0,0,,0,,,60,127
18230,note_off,12,0,0,,5,,,77,127
18555,note_off,325,0,0,,0,,,60,127
18555,note_off,0,0,0,,8,,,68,127
18559,note_on,4,0,0,,12,,,71,127
18559,note_on,0,0,0,,2,,,62,127
18726,note_off,167,0,0,,2,,,62,127
18726,note_off,0,0,0,,12,,,71,127
18730,note_on,4,0,0,,12,,,71,127
18730,note_on,0,0,0,,2,,,62,127
19067,note_off,337,0,0,,2,,,62,127
19067,note_off,0,0,0,,12,,,71,127
19071,note_on,4,0,0,,12,,,71,127
19071,note_on,0,0,0,,2,,,62,127
19238,note_off,167,0,0,,2,,,62,127
19238,note_off,0,0,0,,12,,,71,127
19242,note_on,4,0,0,,5,,,77,127
19242,note_on,0,0,0,,3,,,63,127
19242,note_on,0,0,0,,0,,,72,127
19323,note_off,81,0,0,,5,,,77,127
19327,note_on,4,0,0,,3,,,75,127
19408,note_off,81,0,0,,3,,,75,127
19412,note_on,4,0,0,,5,,,77,127
19493,note_off,81,0,0,,5,,,77,127
19497,note_on,4,0,0,,3,,,75,127
19578,note_off,81,0,0,,3,,,75,127
19578,note_off,0,0,0,,0,,,72,127
19578,note_off,0,0,0,,3,,,63,127
19582,note_on,4,0,0,,5,,,77,127
19582,note_on,0,0,0,,7,,,67,127
19582,note_on,0,0,0,,12,,,59,127
19663,note_off,81,0,0,,5,,,77,127
19667,note_on,4,0,0,,7,,,79,127
19748,note_off,81,0,0,,7,,,79,127
19748,note_off,0,0,0,,12,,,59,127
19748,note_off,0,0,0,,7,,,67,127
19752,note_on,4,0,0,,5,,,77,127
19752,note_on,0,0,0,,7,,,67,127
19752,note_on,0,0,0,,12,,,59,127
20089,note_off,337,0,0,,12,,,59,127
20089,note_off,0,0,0,,7,,,67,127
20093,note_on,4,0,0,,12,,,59,127
20093,note_on,0,0,0,,7,,,67,127
20260,note_off,167,0,0,,7,,,67,127
20260,note_off,0,0,0,,12,,,59,127
20264,note_on,4,0,0,,8,,,68,127
20264,note_on,0,0,0,,0,,,60,127
20276,note_off,12,0,0,,5,,,77,127
20601,note_off,325,0,0,,0,,,60,127
20601,note_off,0,0,0,,8,,,68,127
20605,note_on,4,0,0,,12,,,71,127
20605,note_on,0,0,0,,2,,,62,127
20772,note_off,167,0,0,,2,,,62,127
20772,note_off,0,0,0,,12,,,71,127
20776,note_on,4,0,0,,12,,,71,127
20776,note_on,0,0,0,,2,,,62,127
21113,note_off,337,0,0,,2,,,62,127
21113,note_off,0,0,0,,12,,,71,127
21117,note_on,4,0,0,,12,,,71,127
21117,note_on,0,0,0,,2,,,62,127
21284,note_off,167,0,0,,2,,,62,127
21284,note_off,0,0,0,,12,,,71,127
21288,note_on,4,0,0,,3,,,63,127
21288,note_on,0,0,0,,0,,,72,127
21629,note_on,341,0,0,,7,,,79,127
21796,note_off,167,0,0,,7,,,79,127
21796,note_off,0,0,0,,0,,,72,127
21796,note_off,0,0,0,,3,,,63,127
21800,note_on,4,0,0,,7,,,79,127
21800,note_on,0,0,0,,0,,,60,127
22137,note_off,337,0,0,,7,,,79,127
22141,note_on,4,0,0,,7,,,79,127
22308,note_off,167,0,0,,7,,,79,127
22308,note_off,0,0,0,,0,,,60,127
22312,note_on,4,0,0,,7,,,79,127
22312,note_on,0,0,0,,8,,,80,127
22312,note_on,0,0,0,,12,,,59,127
22649,note_off,337,0,0,,7,,,79,127
22653,note_on,4,0,0,,5,,,77,127
22820,note_off,167,0,0,,5,,,77,127
22820,note_off,0,0,0,,12,,,59,127
22824,note_on,4,0,0,,7,,,79,127
22824,note_on,0,0,0,,5,,,77,127
22824,note_on,0,0,0,,0,,,60,127
22836,note_off,12,0,0,,8,,,80,127
23161,note_off,325,0,0,,5,,,77,127
23165,note_on,4,0,0,,3,,,75,127
23332,note_off,167,0,0,,3,,,75,127
23332,note_off,0,0,0,,0,,,60,127
23336,note_on,4,0,0,,5,,,77,127
23336,note_on,0,0,0,,3,,,75,127
23336,note_on,0,0,0,,5,,,53,127
23348,note_off,12,0,0,,7,,,79,127
23673,note_off,325,0,0,,3,,,75,127
23677,note_on,4,0,0,,2,,,74,127
23844,note_off,167,0,0,,2,,,74,127
23844,note_off,0,0,0,,5,,,53,127
23848,note_on,4,0,0,,3,,,75,127
23848,note_on,0,0,0,,2,,,74,127
23848,note_on,0,0,0,,8,,,56,127
23860,note_off,12,0,0,,5,,,77,127
24185,note_off,325,0,0,,2,,,74,127
24189,note_on,4,0,0,,0,,,72,127
24356,note_off,167,0,0,,0,,,72,127
24356,note_off,0,0,0,,8,,,56,127
24360,note_on,4,0,0,,12,,,71,127
24360,note_on,0,0,0,,7,,,55,127
24372,note_off,12,0,0,,3,,,75,127
24868,note_off,496,0,0,,7,,,55,127
24868,note_off,0,0,0,,12,,,71,127
24872,note_on,4,0,0,,2,,,74,127
24872,note_on,0,0,0,,8,,,56,127
24953,note_off,81,0,0,,2,,,74,127
24957,note_on,4,0,0,,0,,,72,127
25038,note_off,81,0,0,,0,,,72,127
25042,note_on,4,0,0,,2,,,74,127
25123,note_off,81,0,0,,2,,,74,127
25127,note_on,4,0,0,,0,,,72,127
25208,note_off,81,0,0,,0,,,72,127
25212,note_on,4,0,0,,12,,,71,127
25293,note_off,81,0,0,,12,,,71,127
25297,note_on,4,0,0,,0,,,72,127
25378,note_off,81,0,0,,0,,,72,127
25378,note_off,0,0,0,,8,,,56,127
25382,note_on,4,0,0,,2,,,74,127
25382,note_on,0,0,0,,7,,,55,127
25719,note_off,337,0,0,,2,,,74,127
25723,note_on,4,0,0,,2,,,74,127
25723,note_on,0,0,0,,12,,,83,127
25890,note_off,167,0,0,,12,,,83,127
25890,note_off,0,0,0,,2,,,74,127
25894,note_on,4,0,0,,12,,,83,127
25894,note_on,0,0,0,,2,,,74,127
25906,note_off,12,0,0,,7,,,55,127
26231,note_off,325,0,0,,2,,,74,127
26231,note_off,0,0,0,,12,,,83,127
26235,note_on,4,0,0,,2,,,74,127
26235,note_on,0,0,0,,12,,,83,127
26402,note_off,167,0,0,,12,,,83,127
26402,note_off,0,0,0,,2,,,74,127
26406,note_on,4,0,0,,3,,,75,127
26406,note_on,0,0,0,,0,,,84,127
26743,note_off,337,0,0,,0,,,84,127
26743,note_off,0,0,0,,3,,,75,127
26747,note_on,4,0,0,,0,,,72,127
26747,note_on,0,0,0,,8,,,80,127
26914,note_off,167,0,0,,8,,,80,127
26914,note_off,0,0,0,,0,,,72,127
26918,note_on,4,0,0,,0,,,72,127
26918,note_on,0,0,0,,8,,,80,127
27255,note_off,337,0,0,,8,,,80,127
27255,note_off,0,0,0,,0,,,72,127
27259,note_on,4,0,0,,0,,,72,127
27259,note_on,0,0,0,,8,,,80,127
27426,note_off,167,0,0,,8,,,80,127
27426,note_off,0,0,0,,0,,,72,127
27430,note_on,4,0,0,,2,,,74,127
27771,note_on,341,0,0,,7,,,67,127
27771,note_on,0,0,0,,12,,,59,127
27938,note_off,167,0,0,,12,,,59,127
27938,note_off,0,0,0,,7,,,67,127
27938,note_off,0,0,0,,2,,,74,127
27942,note_on,4,0,0,,7,,,79,127
27942,note_on,0,0,0,,12,,,59,127
27942,note_on,0,0,0,,7,,,67,127
28279,note_off,337,0,0,,7,,,67,127
28279,note_off,0,0,0,,12,,,59,127
28283,note_on,4,0,0,,7,,,67,127
28283,note_on,0,0,0,,12,,,59,127
28450,note_off,167,0,0,,12,,,59,127
28450,note_off,0,0,0,,7,,,67,127
28454,note_on,4,0,0,,8,,,68,127
28454,note_on,0,0,0,,0,,,60,127
28791,note_off,337,0,0,,0,,,60,127
28791,note_off,0,0,0,,8,,,68,127
28791,note_off,0,0,0,,7,,,79,127
28795,note_on,4,0,0,,3,,,75,127
28795,note_on,0,0,0,,5,,,65,127
28795,note_on,0,0,0,,8,,,56,127
28962,note_off,167,0,0,,8,,,56,127
28962,note_off,0,0,0,,5,,,65,127
28962,note_off,0,0,0,,3,,,75,127
28966,note_on,4,0,0,,2,,,74,127
28966,note_on,0,0,0,,8,,,56,127
28966,note_on,0,0,0,,5,,,65,127
29047,note_off,81,0,0,,2,,,74,127
29051,note_on,4,0,0,,0,,,72,127
29132,note_off,81,0,0,,0,,,72,127
29136,note_on,4,0,0,,2,,,74,127
29217,note_off,81,0,0,,2,,,74,127
29221,note_on,4,0,0,,0,,,72,127
29302,note_off,81,0,0,,0,,,72,127
29302,note_off,0,0,0,,5,,,65,127
29302,note_off,0,0,0,,8,,,56,127
29306,note_on,4,0,0,,12,,,71,127
29306,note_on,0,0,0,,8,,,56,127
29306,note_on,0,0,0,,5,,,65,127
29387,note_off,81,0,0,,12,,,71,127
29391,note_on,4,0,0,,0,,,72,127
29472,note_off,81,0,0,,0,,,72,127
29472,note_off,0,0,0,,5,,,65,127
29472,note_off,0,0,0,,8,,,56,127
29476,note_on,4,0,0,,12,,,71,127
29476,note_on,0,0,0,,7,,,67,127
29476,note_on,0,0,0,,7,,,55,127
29813,note_off,337,0,0,,12,,,71,127
29817,note_on,4,0,0,,2,,,74,127
29817,note_on,0,0,0,,12,,,83,127
29984,note_off,167,0,0,,12,,,83,127
29984,note_off,0,0,0,,2,,,74,127
29988,note_on,4,0,0,,2,,,74,127
29988,note_on,0,0,0,,12,,,83,127
30000,note_off,12,0,0,,7,,,55,127
30000,note_off,0,0,0,,7,,,67,127
30325,note_off,325,0,0,,12,,,83,127
30325,note_off,0,0,0,,2,,,74,127
30329,note_on,4,0,0,,12,,,83,127
30329,note_on,0,0,0,,2,,,74,127
30496,note_off,167,0,0,,2,,,74,127
30496,note_off,0,0,0,,12,,,83,127
30500,note_on,4,0,0,,0,,,84,127
30500,note_on,0,0,0,,3,,,75,127
30837,note_off,337,0,0,,3,,,75,127
30837,note_off,0,0,0,,0,,,84,127
30841,note_on,4,0,0,,0,,,72,127
30841,note_on,0,0,0,,8,,,80,127
31008,note_off,167,0,0,,8,,,80,127
31008,note_off,0,0,0,,0,,,72,127
31012,note_on,4,0,0,,8,,,80,127
31012,note_on,0,0,0,,0,,,72,127
31349,note_off,337,0,0,,0,,,72,127
31349,note_off,0,0,0,,8,,,80,127
31353,note_on,4,0,0,,0,,,72,127
31353,note_on,0,0,0,,8,,,80,127
31520,note_off,167,0,0,,8,,,80,127
31520,note_off,0,0,0,,0,,,72,127
31524,note_on,4,0,0,,2,,,74,127
31865,note_on,341,0,0,,12,,,59,127
31865,note_on,0,0,0,,7,,,67,127
32032,note_off,167,0,0,,7,,,67,127
32032,note_off,0,0,0,,12,,,59,127
32032,note_off,0,0,0,,2,,,74,127
32036,note_on,4,0,0,,7,,,79,127
32036,note_on,0,0,0,,7,,,67,127
32036,note_on,0,0,0,,12,,,59,127
32373,note_off,337,0,0,,12,,,59,127
32373,note_off,0,0,0,,7,,,67,127
32377,note_on,4,0,0,,7,,,67,127
32377,note_on,0,0,0,,12,,,59,127
32544,note_off,167,0,0,,12,,,59,127
32544,note_off,0,0,0,,7,,,67,127
32548,note_on,4,0,0,,0,,,60,127
32548,note_on,0,0,0,,8,,,68,127
32885,note_off,337,0,0,,8,,,68,127
32885,note_off,0,0,0,,0,,,60,127
32885,note_off,0,0,0,,7,,,79,127
32889,note_on,4,0,0,,3,,,75,127
32889,note_on,0,0,0,,8,,,56,127
32889,note_on,0,0,0,,5,,,65,127
33056,note_off,167,0,0,,5,,,65,127
33056,note_off,0,0,0,,8,,,56,127
33056,note_off,0,0,0,,3,,,75,127
33060,note_on,4,0,0,,2,,,74,127
33060,note_on,0,0,0,,5,,,65,127
33060,note_on,0,0,0,,8,,,56,127
33397,note_off,337,0,0,,8,,,56,127
33397,note_off,0,0,0,,5,,,65,127
33397,note_off,0,0,0,,2,,,74,127
33401,note_on,4,0,0,,0,,,72,127
33401,note_on,0,0,0,,5,,,65,127
33401,note_on,0,0,0,,8,,,56,127
33568,note_off,167,0,0,,8,,,56,127
33568,note_off,0,0,0,,5,,,65,127
33568,note_off,0,0,0,,0,,,72,127
33572,note_on,4,0,0,,12,,,71,127
33572,note_on,0,0,0,,7,,,67,127
33572,note_on,0,0,0,,7,,,55,127
33909,note_off,337,0,0,,12,,,71,127
33913,note_on,4,0,0,,7,,,79,127
33913,note_on,0,0,0,,12,,,71,127
34080,note_off,167,0,0,,12,,,71,127
34080,note_off,0,0,0,,7,,,79,127
34080,note_off,0,0,0,,7,,,67,127
34084,note_on,4,0,0,,12,,,71,127
34084,note_on,0,0,0,,7,,,79,127
34084,note_on,0,0,0,,7,,,67,127
34421,note_off,337,0,0,,7,,,79,127
34421,note_off,0,0,0,,12,,,71,127
34425,note_on,4,0,0,,12,,,71,127
34425,note_on,0,0,0,,7,,,79,127
34592,note_off,167,0,0,,7,,,79,127
34592,note_off,0,0,0,,12,,,71,127
34592,note_off,0,0,0,,7,,,67,127
34593,note_off,1,0,0,,7,,,55,127
34596,note_on,3,0,0,,0,,,72,127
34596,note_on,0,0,0,,8,,,80,127
34596,note_on,0,0,0,,7,,,55,127
34933,note_off,337,0,0,,8,,,80,127
34933,note_off,0,0,0,,0,,,72,127
34937,note_on,4,0,0,,12,,,83,127
34937,note_on,0,0,0,,2,,,74,127
35104,note_off,167,0,0,,2,,,74,127
35104,note_off,0,0,0,,12,,,83,127
35108,note_on,4,0,0,,2,,,74,127
35108,note_on,0,0,0,,12,,,83,127
35108,note_on,0,0,0,,5,,,65,127
35445,note_off,337,0,0,,12,,,83,127
35445,note_off,0,0,0,,2,,,74,127
35449,note_on,4,0,0,,2,,,74,127
35449,note_on,0,0,0,,12,,,83,127
35616,note_off,167,0,0,,12,,,83,127
35616,note_off,0,0,0,,2,,,74,127
35616,note_off,0,0,0,,5,,,65,127
35620,note_on,4,0,0,,0,,,84,127
35620,note_on,0,0,0,,3,,,63,127
35632,note_off,12,0,0,,7,,,55,127
35791,note_on,159,0,0,,0,,,72,127
35954,note_off,163,0,0,,0,,,84,127
35958,note_off,4,0,0,,0,,,72,127
35962,note_on,4,0,0,,7,,,79,127
36129,note_off,167,0,0,,7,,,79,127
36129,note_off,0,0,0,,3,,,63,127
36133,note_on,4,0,0,,5,,,77,127
36133,note_on,0,0,0,,5,,,53,127
36133,note_on,0,0,0,,5,,,65,127
36300,note_off,167,0,0,,5,,,77,127
36304,note_on,4,0,0,,3,,,75,127
36471,note_off,167,0,0,,3,,,75,127
36475,note_on,4,0,0,,2,,,74,127
36642,note_off,167,0,0,,2,,,74,127
36642,note_off,0,0,0,,5,,,65,127
36642,note_off,0,0,0,,5,,,53,127
36646,note_on,4,0,0,,0,,,72,127
36646,note_on,0,0,0,,3,,,63,127
36646,note_on,0,0,0,,7,,,55,127
37154,note_off,508,0,0,,3,,,63,127
37154,note_off,0,0,0,,0,,,72,127
37158,note_on,4,0,0,,12,,,71,127
37158,note_on,0,0,0,,2,,,62,127
37666,note_off,508,0,0,,2,,,62,127
37666,note_off,0,0,0,,12,,,71,127
37670,note_on,4,0,0,,0,,,72,127
37670,note_on,0,0,0,,0,,,60,127
37670,note_on,0,0,0,,3,,,63,127
37682,note_off,12,0,0,,7,,,55,127
37837,note_off,155,0,0,,0,,,60,127
37837,note_off,0,0,0,,0,,,72,127
37841,note_on,4,0,0,,0,,,60,127
38008,note_off,167,0,0,,0,,,60,127
38012,note_on,4,0,0,,7,,,67,127
38179,note_off,167,0,0,,7,,,67,127
38179,note_off,0,0,0,,3,,,63,127
38183,note_on,4,0,0,,5,,,65,127
38183,note_on,0,0,0,,5,,,53,127
38350,note_off,167,0,0,,5,,,65,127
38354,note_on,4,0,0,,3,,,63,127
38521,note_off,167,0,0,,3,,,63,127
38525,note_on,4,0,0,,2,,,62,127
38692,note_off,167,0,0,,2,,,62,127
38692,note_off,0,0,0,,5,,,53,127
38696,note_on,4,0,0,,0,,,60,127
38696,note_on,0,0,0,,7,,,55,127
39204,note_off,508,0,0,,7,,,55,127
39204,note_off,0,0,0,,0,,,60,127
39208,note_on,4,0,0,,12,,,59,127
39208,note_on,0,0,0,,7,,,43,127
39716,note_off,508,0,0,,7,,,43,127
39716,note_off,0,0,0,,12,,,59,127
39720,note_on,4,0,0,,0,,,60,127
39720,note_on,0,0,0,,0,,,36,127
39720,note_on,0,0,0,,0,,,48,127
40360,note_off,640,0,0,,0,,,60,127
40707,note_off,347,0,0,,0,,,36,127
40740,note_off,33,0,0,,0,,,48,127
40744,note_on,4,0,0,,0,,,60,127
40744,note_on,0,0,0,,0,,,48,127
41085,note_on,341,0,0,,4,,,76,127
41085,note_on,0,0,0,,7,,,79,127
41252,note_off,167,0,0,,7,,,79,127
41252,note_off,0,0,0,,4,,,76,127
41256,note_on,4,0,0,,7,,,79,127
41256,note_on,0,0,0,,4,,,76,127
41593,note_off,337,0,0,,4,,,76,127
41593,note_off,0,0,0,,7,,,79,127
41597,note_on,4,0,0,,5,,,77,127
41597,note_on,0,0,0,,8,,,80,127
41764,note_off,167,0,0,,8,,,80,127
41764,note_off,0,0,0,,5,,,77,127
41768,note_on,4,0,0,,7,,,79,127
41768,note_on,0,0,0,,11,,,82,127
42105,note_off,337,0,0,,0,,,48,127
42105,note_off,0,0,0,,0,,,60,127
42109,note_on,4,0,0,,4,,,64,127
42109,note_on,0,0,0,,7,,,67,127
42276,note_off,167,0,0,,7,,,67,127
42276,note_off,0,0,0,,4,,,64,127
42280,note_on,4,0,0,,7,,,67,127
42280,note_on,0,0,0,,4,,,64,127
42617,note_off,337,0,0,,4,,,64,127
42617,note_off,0,0,0,,7,,,67,127
42621,note_on,4,0,0,,5,,,65,127
42621,note_on,0,0,0,,8,,,68,127
42788,note_off,167,0,0,,8,,,68,127
42788,note_off,0,0,0,,5,,,65,127
42792,note_on,4,0,0,,7,,,67,127
42792,note_on,0,0,0,,11,,,70,127
43129,note_off,337,0,0,,11,,,70,127
43129,note_off,0,0,0,,7,,,67,127
43133,note_on,4,0,0,,5,,,65,127
43133,note_on,0,0,0,,8,,,68,127
43300,note_off,167,0,0,,8,,,68,127
43300,note_off,0,0,0,,5,,,65,127
43304,note_on,4,0,0,,4,,,64,127
43304,note_on,0,0,0,,7,,,67,127
43641,note_off,337,0,0,,7,,,67,127
43641,note_off,0,0,0,,4,,,64,127
43645,note_on,4,0,0,,1,,,61,127
43645,note_on,0,0,0,,5,,,65,127
43812,note_off,167,0,0,,5,,,65,127
43812,note_off,0,0,0,,1,,,61,127
43816,note_on,4,0,0,,0,,,60,127
43816,note_on,0,0,0,,4,,,64,127
44153,note_off,337,0,0,,4,,,64,127
44153,note_off,0,0,0,,0,,,60,127
44153,note_off,0,0,0,,11,,,82,127
44153,note_off,0,0,0,,7,,,79,127
44157,note_on,4,0,0,,7,,,79,127
44157,note_on,0,0,0,,4,,,76,127
44157,note_on,0,0,0,,1,,,61,127
44157,note_on,0,0,0,,11,,,58,127
44324,note_off,167,0,0,,11,,,58,127
44324,note_off,0,0,0,,1,,,61,127
44324,note_off,0,0,0,,4,,,76,127
44324,note_off,0,0,0,,7,,,79,127
44328,note_on,4,0,0,,5,,,77,127
44328,note_on,0,0,0,,8,,,80,127
44328,note_on,0,0,0,,0,,,60,127
44328,note_on,0,0,0,,8,,,56,127
44665,note_off,337,0,0,,8,,,56,127
44665,note_off,0,0,0,,0,,,60,127
44665,note_off,0,0,0,,8,,,80,127
44665,note_off,0,0,0,,5,,,77,127
44669,note_on,4,0,0,,7,,,79,127
44669,note_on,0,0,0,,11,,,82,127
44669,note_on,0,0,0,,11,,,58,127
44669,note_on,0,0,0,,7,,,55,127
44836,note_off,167,0,0,,7,,,55,127
44836,note_off,0,0,0,,11,,,58,127
44836,note_off,0,0,0,,11,,,82,127
44836,note_off,0,0,0,,7,,,79,127
44840,note_on,4,0,0,,8,,,80,127
44840,note_on,0,0,0,,0,,,84,127
44840,note_on,0,0,0,,8,,,56,127
44840,note_on,0,0,0,,5,,,53,127
45177,note_off,337,0,0,,0,,,84,127
45177,note_off,0,0,0,,8,,,80,127
45181,note_on,4,0,0,,5,,,77,127
45181,note_on,0,0,0,,8,,,80,127
45348,note_off,167,0,0,,8,,,80,127
45348,note_off,0,0,0,,5,,,77,127
45352,note_on,4,0,0,,8,,,80,127
45352,note_on,0,0,0,,5,,,77,127
45689,note_off,337,0,0,,5,,,77,127
45689,note_off,0,0,0,,8,,,80,127
45693,note_on,4,0,0,,7,,,79,127
45693,note_on,0,0,0,,11,,,82,127
45860,note_off,167,0,0,,11,,,82,127
45860,note_off,0,0,0,,7,,,79,127
45864,note_on,4,0,0,,8,,,80,127
45864,note_on,0,0,0,,0,,,84,127
46040,note_off,176,0,0,,5,,,53,127
46040,note_off,0,0,0,,8,,,56,127
46205,note_on,165,0,0,,5,,,65,127
46205,note_on,0,0,0,,8,,,68,127
46372,note_off,167,0,0,,8,,,68,127
46372,note_off,0,0,0,,5,,,65,127
46376,note_on,4,0,0,,5,,,65,127
46376,note_on,0,0,0,,8,,,68,127
46713,note_off,337,0,0,,8,,,68,127
46713,note_off,0,0,0,,5,,,65,127
46717,note_on,4,0,0,,7,,,67,127
46717,note_on,0,0,0,,11,,,70,127
46884,note_off,167,0,0,,11,,,70,127
46884,note_off,0,0,0,,7,,,67,127
46888,note_on,4,0,0,,0,,,72,127
46888,note_on,0,0,0,,8,,,68,127
47225,note_off,337,0,0,,8,,,68,127
47225,note_off,0,0,0,,0,,,72,127
47229,note_on,4,0,0,,7,,,67,127
47229,note_on,0,0,0,,11,,,70,127
47396,note_off,167,0,0,,11,,,70,127
47396,note_off,0,0,0,,7,,,67,127
47400,note_on,4,0,0,,5,,,65,127
47400,note_on,0,0,0,,8,,,68,127
47737,note_off,337,0,0,,8,,,68,127
47737,note_off,0,0,0,,5,,,65,127
47741,note_on,4,0,0,,3,,,63,127
47741,note_on,0,0,0,,7,,,67,127
47908,note_off,167,0,0,,7,,,67,127
47908,note_off,0,0,0,,3,,,63,127
47912,note_on,4,0,0,,5,,,65,127
47912,note_on,0,0,0,,1,,,61,127
48249,note_off,337,0,0,,1,,,61,127
48249,note_off,0,0,0,,5,,,65,127
48249,note_off,0,0,0,,0,,,84,127
48249,note_off,0,0,0,,8,,,80,127
48253,note_on,4,0,0,,5,,,77,127
48253,note_on,0,0,0,,0,,,60,127
48253,note_on,0,0,0,,3,,,63,127
48420,note_off,167,0,0,,3,,,63,127
48420,note_off,0,0,0,,0,,,60,127
48420,note_off,0,0,0,,5,,,77,127
48424,note_on,4,0,0,,7,,,79,127
48424,note_on,0,0,0,,1,,,61,127
48424,note_on,0,0,0,,11,,,58,127
48761,note_off,337,0,0,,11,,,58,127
48761,note_off,0,0,0,,1,,,61,127
48761,note_off,0,0,0,,7,,,79,127
48765,note_on,4,0,0,,8,,,80,127
48765,note_on,0,0,0,,0,,,60,127
48765,note_on,0,0,0,,8,,,56,127
48932,note_off,167,0,0,,8,,,56,127
48932,note_off,0,0,0,,0,,,60,127
48932,note_off,0,0,0,,8,,,80,127
48936,note_on,4,0,0,,11,,,82,127
48936,note_on,0,0,0,,11,,,58,127
48936,note_on,0,0,0,,1,,,61,127
49273,note_off,337,0,0,,1,,,61,127
49273,note_off,0,0,0,,11,,,58,127
49273,note_off,0,0,0,,11,,,82,127
49277,note_on,4,0,0,,8,,,80,127
49277,note_on,0,0,0,,8,,,56,127
49277,note_on,0,0,0,,0,,,60,127
49444,note_off,167,0,0,,0,,,60,127
49444,note_off,0,0,0,,8,,,56,127
49444,note_off,0,0,0,,8,,,80,127
49448,note_on,4,0,0,,7,,,79,127
49448,note_on,0,0,0,,7,,,55,127
49448,note_on,0,0,0,,11,,,58,127
49785,note_off,337,0,0,,11,,,58,127
49785,note_off,0,0,0,,7,,,55,127
49789,note_on,4,0,0,,8,,,56,127
49789,note_on,0,0,0,,0,,,60,127
49956,note_off,167,0,0,,0,,,60,127
49956,note_off,0,0,0,,8,,,56,127
49960,note_on,4,0,0,,11,,,58,127
49960,note_on,0,0,0,,1,,,61,127
50297,note_off,337,0,0,,7,,,79,127
50301,note_on,4,0,0,,5,,,77,127
50468,note_off,167,0,0,,5,,,77,127
50468,note_off,0,0,0,,1,,,61,127
50468,note_off,0,0,0,,11,,,58,127
50472,note_on,4,0,0,,3,,,75,127
50472,note_on,0,0,0,,11,,,82,127
50472,note_on,0,0,0,,3,,,51,127
50472,note_on,0,0,0,,7,,,55,127
50809,note_off,337,0,0,,11,,,82,127
50809,note_off,0,0,0,,3,,,75,127
50813,note_on,4,0,0,,1,,,73,127
50980,note_off,167,0,0,,1,,,73,127
50980,note_off,0,0,0,,7,,,55,127
50980,note_off,0,0,0,,3,,,51,127
50984,note_on,4,0,0,,0,,,72,127
50984,note_on,0,0,0,,8,,,80,127
50984,note_on,0,0,0,,8,,,56,127
51321,note_off,337,0,0,,8,,,80,127
51321,note_off,0,0,0,,0,,,72,127
51325,note_on,4,0,0,,0,,,84,127
51325,note_on,0,0,0,,8,,,80,127
51492,note_off,167,0,0,,8,,,80,127
51492,note_off,0,0,0,,0,,,84,127
51496,note_on,4,0,0,,8,,,80,127
51496,note_on,0,0,0,,0,,,84,127
51751,note_off,255,0,0,,8,,,56,127
51834,note_off,83,0,0,,0,,,84,127
51834,note_off,0,0,0,,8,,,80,127
51838,note_on,4,0,0,,0,,,84,127
51838,note_on,0,0,0,,8,,,80,127
52005,note_off,167,0,0,,8,,,80,127
52005,note_off,0,0,0,,0,,,84,127
52009,note_on,4,0,0,,8,,,80,127
52009,note_on,0,0,0,,0,,,84,127
52009,note_on,0,0,0,,3,,,63,127
52346,note_off,337,0,0,,0,,,84,127
52346,note_off,0,0,0,,8,,,80,127
52350,note_on,4,0,0,,7,,,79,127
52350,note_on,0,0,0,,11,,,82,127
52517,note_off,167,0,0,,11,,,82,127
52517,note_off,0,0,0,,7,,,79,127
52517,note_off,0,0,0,,3,,,63,127
52521,note_on,4,0,0,,7,,,79,127
52521,note_on,0,0,0,,11,,,82,127
52521,note_on,0,0,0,,4,,,64,127
52858,note_off,337,0,0,,11,,,82,127
52858,note_off,0,0,0,,7,,,79,127
52862,note_on,4,0,0,,7,,,79,127
52862,note_on,0,0,0,,11,,,82,127
53029,note_off,167,0,0,,11,,,82,127
53029,note_off,0,0,0,,7,,,79,127
53029,note_off,0,0,0,,4,,,64,127
53033,note_on,4,0,0,,11,,,82,127
53033,note_on,0,0,0,,7,,,79,127
53033,note_on,0,0,0,,5,,,65,127
53370,note_off,337,0,0,,7,,,79,127
53370,note_off,0,0,0,,11,,,82,127
53374,note_on,4,0,0,,8,,,80,127
53374,note_on,0,0,0,,5,,,77,127
53541,note_off,167,0,0,,5,,,77,127
53541,note_off,0,0,0,,8,,,80,127
53541,note_off,0,0,0,,5,,,65,127
53545,note_on,4,0,0,,8,,,80,127
53545,note_on,0,0,0,,5,,,77,127
53545,note_on,0,0,0,,12,,,59,127
53882,note_off,337,0,0,,5,,,77,127
53882,note_off,0,0,0,,8,,,80,127
53886,note_on,4,0,0,,5,,,77,127
53886,note_on,0,0,0,,8,,,80,127
54053,note_off,167,0,0,,8,,,80,127
54053,note_off,0,0,0,,5,,,77,127
54053,note_off,0,0,0,,12,,,59,127
54057,note_on,4,0,0,,5,,,77,127
54057,note_on,0,0,0,,8,,,80,127
54057,note_on,0,0,0,,0,,,60,127
54394,note_off,337,0,0,,8,,,80,127
54394,note_off,0,0,0,,5,,,77,127
54398,note_on,4,0,0,,7,,,79,127
54398,note_on,0,0,0,,3,,,75,127
54565,note_off,167,0,0,,3,,,75,127
54565,note_off,0,0,0,,7,,,79,127
54569,note_on,4,0,0,,3,,,75,127
54569,note_on,0,0,0,,7,,,79,127
54569,note_on,0,0,0,,0,,,48,127
54906,note_off,337,0,0,,7,,,79,127
54906,note_off,0,0,0,,3,,,75,127
54910,note_on,4,0,0,,7,,,79,127
54910,note_on,0,0,0,,3,,,75,127
55077,note_off,167,0,0,,3,,,75,127
55077,note_off,0,0,0,,7,,,79,127
55077,note_off,0,0,0,,0,,,48,127
55080,note_off,3,0,0,,0,,,60,127
55081,note_on,1,0,0,,3,,,75,127
55081,note_on,0,0,0,,7,,,79,127
55081,note_on,0,0,0,,1,,,49,127
55418,note_off,337,0,0,,7,,,79,127
55418,note_off,0,0,0,,3,,,75,127
55422,note_on,4,0,0,,1,,,73,127
55422,note_on,0,0,0,,5,,,77,127
55589,note_off,167,0,0,,5,,,77,127
55589,note_off,0,0,0,,1,,,73,127
55589,note_off,0,0,0,,1,,,49,127
55593,note_on,4,0,0,,5,,,77,127
55593,note_on,0,0,0,,1,,,73,127
55593,note_on,0,0,0,,7,,,55,127
55930,note_off,337,0,0,,1,,,73,127
55930,note_off,0,0,0,,5,,,77,127
55934,note_on,4,0,0,,1,,,73,127
55934,note_on,0,0,0,,5,,,77,127
56101,note_off,167,0,0,,5,,,77,127
56101,note_off,0,0,0,,1,,,73,127
56101,note_off,0,0,0,,7,,,55,127
56105,note_on,4,0,0,,5,,,77,127
56105,note_on,0,0,0,,1,,,73,127
56105,note_on,0,0,0,,8,,,56,127
56442,note_off,337,0,0,,1,,,73,127
56442,note_off,0,0,0,,5,,,77,127
56446,note_on,4,0,0,,0,,,72,127
56446,note_on,0,0,0,,3,,,75,127
56613,note_off,167,0,0,,3,,,75,127
56613,note_off,0,0,0,,0,,,72,127
56613,note_off,0,0,0,,8,,,56,127
56617,note_on,4,0,0,,0,,,72,127
56617,note_on,0,0,0,,3,,,75,127
56617,note_on,0,0,0,,10,,,57,127
56954,note_off,337,0,0,,3,,,75,127
56954,note_off,0,0,0,,0,,,72,127
56958,note_on,4,0,0,,0,,,72,127
56958,note_on,0,0,0,,3,,,75,127
57125,note_off,167,0,0,,3,,,75,127
57125,note_off,0,0,0,,0,,,72,127
57125,note_off,0,0,0,,10,,,57,127
57129,note_on,4,0,0,,0,,,72,127
57129,note_on,0,0,0,,3,,,75,127
57129,note_on,0,0,0,,11,,,58,127
57466,note_off,337,0,0,,3,,,75,127
57466,note_off,0,0,0,,0,,,72,127
57470,note_on,4,0,0,,11,,,70,127
57470,note_on,0,0,0,,1,,,73,127
57637,note_off,167,0,0,,1,,,73,127
57637,note_off,0,0,0,,11,,,70,127
57637,note_off,0,0,0,,11,,,58,127
57641,note_on,4,0,0,,11,,,70,127
57641,note_on,0,0,0,,1,,,73,127
57641,note_on,0,0,0,,0,,,60,127
57978,note_off,337,0,0,,1,,,73,127
57978,note_off,0,0,0,,11,,,70,127
57982,note_on,4,0,0,,0,,,72,127
57982,note_on,0,0,0,,8,,,68,127
58149,note_off,167,0,0,,8,,,68,127
58149,note_off,0,0,0,,0,,,72,127
58149,note_off,0,0,0,,0,,,60,127
58153,note_on,4,0,0,,8,,,68,127
58153,note_on,0,0,0,,0,,,72,127
58153,note_on,0,0,0,,1,,,61,127
58490,note_off,337,0,0,,0,,,72,127
58490,note_off,0,0,0,,8,,,68,127
58494,note_on,4,0,0,,11,,,70,127
58494,note_on,0,0,0,,7,,,67,127
58661,note_off,167,0,0,,7,,,67,127
58661,note_off,0,0,0,,11,,,70,127
58665,note_on,4,0,0,,11,,,70,127
58665,note_on,0,0,0,,7,,,67,127
58665,note_on,0,0,0,,1,,,49,127
59002,note_off,337,0,0,,7,,,67,127
59006,note_on,4,0,0,,5,,,65,127
59171,note_off,165,0,0,,11,,,70,127
59172,note_off,1,0,0,,5,,,65,127
59172,note_off,0,0,0,,1,,,49,127
59175,note_off,3,0,0,,1,,,61,127
59176,note_on,1,0,0,,4,,,64,127
59176,note_on,0,0,0,,0,,,48,127
59513,note_off,337,0,0,,4,,,64,127
59517,note_on,4,0,0,,7,,,67,127
59517,note_on,0,0,0,,4,,,76,127
59684,note_off,167,0,0,,4,,,76,127
59684,note_off,0,0,0,,7,,,67,127
59688,note_on,4,0,0,,7,,,67,127
59688,note_on,0,0,0,,4,,,76,127
60025,note_off,337,0,0,,4,,,76,127
60025,note_off,0,0,0,,7,,,67,127
60029,note_on,4,0,0,,4,,,76,127
60029,note_on,0,0,0,,7,,,67,127
60196,note_off,167,0,0,,7,,,67,127
60196,note_off,0,0,0,,4,,,76,127
60200,note_on,4,0,0,,5,,,77,127
60200,note_on,0,0,0,,8,,,68,127
60537,note_off,337,0,0,,8,,,68,127
60537,note_off,0,0,0,,5,,,77,127
60541,note_on,4,0,0,,12,,,83,127
60541,note_on,0,0,0,,2,,,74,127
60642,note_off,101,0,0,,0,,,48,127
60707,note_off,65,0,0,,2,,,74,127
60707,note_off,0,0,0,,12,,,83,127
60711,note_on,4,0,0,,2,,,74,127
60711,note_on,0,0,0,,12,,,83,127
61048,note_off,337,0,0,,12,,,83,127
61048,note_off,0,0,0,,2,,,74,127
61052,note_on,4,0,0,,2,,,74,127
61052,note_on,0,0,0,,12,,,83,127
61219,note_off,167,0,0,,12,,,83,127
61219,note_off,0,0,0,,2,,,74,127
61223,note_on,4,0,0,,4,,,76,127
61223,note_on,0,0,0,,0,,,84,127
61564,note_on,341,0,0,,0,,,72,127
61564,note_on,0,0,0,,4,,,64,127
61731,note_off,167,0,0,,4,,,64,127
61731,note_off,0,0,0,,0,,,72,127
61731,note_off,0,0,0,,0,,,84,127
61731,note_off,0,0,0,,4,,,76,127
61735,note_on,4,0,0,,7,,,79,127
61735,note_on,0,0,0,,0,,,72,127
61735,note_on,0,0,0,,4,,,64,127
62072,note_off,337,0,0,,4,,,64,127
62072,note_off,0,0,0,,0,,,72,127
62076,note_on,4,0,0,,0,,,72,127
62076,note_on,0,0,0,,4,,,64,127
62243,note_off,167,0,0,,4,,,64,127
62243,note_off,0,0,0,,0,,,72,127
62247,note_on,4,0,0,,5,,,65,127
62247,note_on,0,0,0,,1,,,73,127
62584,note_off,337,0,0,,1,,,73,127
62584,note_off,0,0,0,,5,,,65,127
62584,note_off,0,0,0,,7,,,79,127
62588,note_on,4,0,0,,8,,,80,127
62588,note_on,0,0,0,,11,,,70,127
62588,note_on,0,0,0,,1,,,61,127
62755,note_off,167,0,0,,1,,,61,127
62755,note_off,0,0,0,,11,,,70,127
62755,note_off,0,0,0,,8,,,80,127
62759,note_on,4,0,0,,7,,,79,127
62759,note_on,0,0,0,,1,,,61,127
62759,note_on,0,0,0,,11,,,70,127
63096,note_off,337,0,0,,11,,,70,127
63096,note_off,0,0,0,,1,,,61,127
63096,note_off,0,0,0,,7,,,79,127
63100,note_on,4,0,0,,5,,,77,127
63100,note_on,0,0,0,,11,,,70,127
63100,note_on,0,0,0,,1,,,61,127
63267,note_off,167,0,0,,1,,,61,127
63267,note_off,0,0,0,,11,,,70,127
63267,note_off,0,0,0,,5,,,77,127
63271,note_on,4,0,0,,0,,,60,127
63271,note_on,0,0,0,,0,,,72,127
63612,note_on,341,0,0,,7,,,67,127
63612,note_on,0,0,0,,4,,,76,127
63779,note_off,167,0,0,,4,,,76,127
63779,note_off,0,0,0,,7,,,67,127
63783,note_on,4,0,0,,7,,,67,127
63783,note_on,0,0,0,,4,,,76,127
64120,note_off,337,0,0,,4,,,76,127
64120,note_off,0,0,0,,7,,,67,127
64124,note_on,4,0,0,,4,,,76,127
64124,note_on,0,0,0,,7,,,67,127
64291,note_off,167,0,0,,7,,,67,127
64291,note_off,0,0,0,,4,,,76,127
64295,note_on,4,0,0,,8,,,68,127
64295,note_on,0,0,0,,5,,,77,127
64632,note_off,337,0,0,,5,,,77,127
64632,note_off,0,0,0,,8,,,68,127
64636,note_on,4,0,0,,2,,,74,127
64636,note_on,0,0,0,,12,,,83,127
64803,note_off,167,0,0,,12,,,83,127
64803,note_off,0,0,0,,2,,,74,127
64807,note_on,4,0,0,,2,,,74,127
64807,note_on,0,0,0,,12,,,83,127
65144,note_off,337,0,0,,12,,,83,127
65144,note_off,0,0,0,,2,,,74,127
65148,note_on,4,0,0,,2,,,74,127
65148,note_on,0,0,0,,12,,,83,127
65315,note_off,167,0,0,,12,,,83,127
65315,note_off,0,0,0,,2,,,74,127
65319,note_on,4,0,0,,4,,,76,127
65319,note_on,0,0,0,,0,,,84,127
65656,note_off,337,0,0,,0,,,72,127
65656,note_off,0,0,0,,0,,,60,127
65660,note_on,4,0,0,,4,,,64,127
65660,note_on,0,0,0,,0,,,72,127
65827,note_off,167,0,0,,0,,,72,127
65827,note_off,0,0,0,,4,,,64,127
65827,note_off,0,0,0,,0,,,84,127
65827,note_off,0,0,0,,4,,,76,127
65831,note_on,4,0,0,,7,,,79,127
65831,note_on,0,0,0,,0,,,72,127
65831,note_on,0,0,0,,4,,,64,127
66168,note_off,337,0,0,,4,,,64,127
66168,note_off,0,0,0,,0,,,72,127
66172,note_on,4,0,0,,0,,,72,127
66172,note_on,0,0,0,,4,,,64,127
66339,note_off,167,0,0,,4,,,64,127
66339,note_off,0,0,0,,0,,,72,127
66343,note_on,4,0,0,,1,,,73,127
66343,note_on,0,0,0,,5,,,65,127
66680,note_off,337,0,0,,5,,,65,127
66680,note_off,0,0,0,,1,,,73,127
66680,note_off,0,0,0,,7,,,79,127
66684,note_on,4,0,0,,8,,,80,127
66684,note_on,0,0,0,,11,,,70,127
66684,note_on,0,0,0,,1,,,61,127
66851,note_off,167,0,0,,1,,,61,127
66851,note_off,0,0,0,,11,,,70,127
66851,note_off,0,0,0,,8,,,80,127
66855,note_on,4,0,0,,7,,,79,127
66855,note_on,0,0,0,,1,,,61,127
66855,note_on,0,0,0,,11,,,70,127
67192,note_off,337,0,0,,11,,,70,127
67192,note_off,0,0,0,,1,,,61,127
67192,note_off,0,0,0,,7,,,79,127
67196,note_on,4,0,0,,5,,,77,127
67196,note_on,0,0,0,,11,,,70,127
67196,note_on,0,0,0,,1,,,61,127
67363,note_off,167,0,0,,1,,,61,127
67363,note_off,0,0,0,,11,,,70,127
67363,note_off,0,0,0,,5,,,77,127
67367,note_on,4,0,0,,4,,,76,127
67367,note_on,0,0,0,,0,,,60,127
67367,note_on,0,0,0,,0,,,72,127
67704,note_off,337,0,0,,4,,,76,127
67708,note_on,4,0,0,,0,,,84,127
67875,note_off,167,0,0,,0,,,84,127
67879,note_on,4,0,0,,0,,,84,127
68216,note_off,337,0,0,,0,,,84,127
68220,note_on,4,0,0,,0,,,84,127
68387,note_off,167,0,0,,0,,,84,127
68391,note_on,4,0,0,,1,,,85,127
68567,note_off,176,0,0,,0,,,60,127
68728,note_off,161,0,0,,1,,,85,127
68728,note_off,0,0,0,,0,,,72,127
68732,note_on,4,0,0,,7,,,79,127
68732,note_on,0,0,0,,4,,,76,127
68732,note_on,0,0,0,,11,,,58,127
68899,note_off,167,0,0,,11,,,58,127
68899,note_off,0,0,0,,4,,,76,127
68899,note_off,0,0,0,,7,,,79,127
68903,note_on,4,0,0,,4,,,76,127
68903,note_on,0,0,0,,7,,,79,127
68903,note_on,0,0,0,,11,,,58,127
69240,note_off,337,0,0,,11,,,58,127
69240,note_off,0,0,0,,7,,,79,127
69240,note_off,0,0,0,,4,,,76,127
69244,note_on,4,0,0,,7,,,79,127
69244,note_on,0,0,0,,4,,,76,127
69244,note_on,0,0,0,,11,,,58,127
69411,note_off,167,0,0,,11,,,58,127
69411,note_off,0,0,0,,4,,,76,127
69411,note_off,0,0,0,,7,,,79,127
69415,note_on,4,0,0,,8,,,80,127
69415,note_on,0,0,0,,5,,,65,127
69415,note_on,0,0,0,,8,,,56,127
69582,note_off,167,0,0,,8,,,80,127
69586,note_on,4,0,0,,11,,,82,127
69753,note_off,167,0,0,,11,,,82,127
69757,note_on,4,0,0,,0,,,84,127
69924,note_off,167,0,0,,0,,,84,127
69924,note_off,0,0,0,,8,,,56,127
69924,note_off,0,0,0,,5,,,65,127
69928,note_on,4,0,0,,11,,,82,127
69928,note_on,0,0,0,,0,,,84,127
69928,note_on,0,0,0,,7,,,67,127
69928,note_on,0,0,0,,11,,,58,127
70095,note_off,167,0,0,,0,,,84,127
70095,note_off,0,0,0,,11,,,82,127
70099,note_on,4,0,0,,8,,,80,127
70266,note_off,167,0,0,,8,,,80,127
70270,note_on,4,0,0,,7,,,79,127
70437,note_off,167,0,0,,7,,,79,127
70437,note_off,0,0,0,,11,,,58,127
70437,note_off,0,0,0,,7,,,67,127
70441,note_on,4,0,0,,5,,,77,127
70441,note_on,0,0,0,,8,,,68,127
70441,note_on,0,0,0,,0,,,60,127
70949,note_off,508,0,0,,8,,,68,127
70949,note_off,0,0,0,,5,,,77,127
70953,note_on,4,0,0,,4,,,76,127
70953,note_on,0,0,0,,7,,,67,127
71461,note_off,508,0,0,,7,,,67,127
71461,note_off,0,0,0,,4,,,76,127
71465,note_on,4,0,0,,5,,,77,127
71465,note_on,0,0,0,,5,,,53,127
71465,note_on,0,0,0,,5,,,65,127
71477,note_off,12,0,0,,0,,,60,127
71802,note_off,325,0,0,,5,,,77,127
71806,note_on,4,0,0,,7,,,67,127
71806,note_on,0,0,0,,4,,,76,127
71973,note_off,167,0,0,,4,,,76,127
71973,note_off,0,0,0,,7,,,67,127
71977,note_on,4,0,0,,7,,,67,127
71977,note_on,0,0,0,,4,,,76,127
72314,note_off,337,0,0,,4,,,76,127
72314,note_off,0,0,0,,7,,,67,127
72318,note_on,4,0,0,,7,,,67,127
72318,note_on,0,0,0,,4,,,76,127
72485,note_off,167,0,0,,4,,,76,127
72485,note_off,0,0,0,,7,,,67,127
72489,note_on,4,0,0,,5,,,77,127
72489,note_on,0,0,0,,8,,,68,127
72665,note_off,176,0,0,,5,,,53,127
72822,note_off,157,0,0,,5,,,65,127
72826,note_off,4,0,0,,8,,,68,127
72826,note_off,0,0,0,,5,,,77,127
72830,note_on,4,0,0,,2,,,74,127
72830,note_on,0,0,0,,12,,,83,127
72997,note_off,167,0,0,,12,,,83,127
72997,note_off,0,0,0,,2,,,74,127
73001,note_on,4,0,0,,12,,,83,127
73001,note_on,0,0,0,,2,,,74,127
73338,note_off,337,0,0,,2,,,74,127
73338,note_off,0,0,0,,12,,,83,127
73342,note_on,4,0,0,,2,,,74,127
73342,note_on,0,0,0,,12,,,83,127
73509,note_off,167,0,0,,12,,,83,127
73509,note_off,0,0,0,,2,,,74,127
73513,note_on,4,0,0,,4,,,76,127
73513,note_on,0,0,0,,0,,,84,127
73854,note_on,341,0,0,,0,,,72,127
73854,note_on,0,0,0,,4,,,64,127
74021,note_off,167,0,0,,4,,,64,127
74021,note_off,0,0,0,,0,,,72,127
74021,note_off,0,0,0,,0,,,84,127
74021,note_off,0,0,0,,4,,,76,127
74025,note_on,4,0,0,,7,,,79,127
74025,note_on,0,0,0,,4,,,64,127
74025,note_on,0,0,0,,0,,,72,127
74362,note_off,337,0,0,,0,,,72,127
74362,note_off,0,0,0,,4,,,64,127
74366,note_on,4,0,0,,0,,,72,127
74366,note_on,0,0,0,,4,,,64,127
74533,note_off,167,0,0,,4,,,64,127
74533,note_off,0,0,0,,0,,,72,127
74537,note_on,4,0,0,,1,,,73,127
74537,note_on,0,0,0,,5,,,65,127
74874,note_off,337,0,0,,5,,,65,127
74874,note_off,0,0,0,,1,,,73,127
74874,note_off,0,0,0,,7,,,79,127
74878,note_on,4,0,0,,8,,,80,127
74878,note_on,0,0,0,,11,,,70,127
74878,note_on,0,0,0,,1,,,61,127
75045,note_off,167,0,0,,1,,,61,127
75045,note_off,0,0,0,,11,,,70,127
75045,note_off,0,0,0,,8,,,80,127
75049,note_on,4,0,0,,7,,,79,127
75049,note_on,0,0,0,,11,,,70,127
75049,note_on,0,0,0,,1,,,61,127
75386,note_off,337,0,0,,1,,,61,127
75386,note_off,0,0,0,,11,,,70,127
75386,note_off,0,0,0,,7,,,79,127
75390,note_on,4,0,0,,5,,,77,127
75390,note_on,0,0,0,,11,,,70,127
75390,note_on,0,0,0,,1,,,61,127
75557,note_off,167,0,0,,1,,,61,127
75557,note_off,0,0,0,,11,,,70,127
75557,note_off,0,0,0,,5,,,77,127
75561,note_on,4,0,0,,0,,,72,127
75561,note_on,0,0,0,,0,,,60,127
75902,note_on,341,0,0,,7,,,67,127
75902,note_on,0,0,0,,4,,,76,127
76069,note_off,167,0,0,,4,,,76,127
76069,note_off,0,0,0,,7,,,67,127
76073,note_on,4,0,0,,7,,,67,127
76073,note_on,0,0,0,,4,,,76,127
76410,note_off,337,0,0,,4,,,76,127
76410,note_off,0,0,0,,7,,,67,127
76414,note_on,4,0,0,,7,,,67,127
76414,note_on,0,0,0,,4,,,76,127
76581,note_off,167,0,0,,4,,,76,127
76581,note_off,0,0,0,,7,,,67,127
76585,note_on,4,0,0,,8,,,68,127
76585,note_on,0,0,0,,5,,,77,127
76922,note_off,337,0,0,,5,,,77,127
76922,note_off,0,0,0,,8,,,68,127
76926,note_on,4,0,0,,2,,,74,127
76926,note_on,0,0,0,,12,,,83,127
77093,note_off,167,0,0,,12,,,83,127
77093,note_off,0,0,0,,2,,,74,127
77097,note_on,4,0,0,,2,,,74,127
77097,note_on,0,0,0,,12,,,83,127
77434,note_off,337,0,0,,12,,,83,127
77434,note_off,0,0,0,,2,,,74,127
77438,note_on,4,0,0,,2,,,74,127
77438,note_on,0,0,0,,12,,,83,127
77605,note_off,167,0,0,,12,,,83,127
77605,note_off,0,0,0,,2,,,74,127
77609,note_on,4,0,0,,4,,,76,127
77609,note_on,0,0,0,,0,,,84,127
77946,note_off,337,0,0,,0,,,60,127
77946,note_off,0,0,0,,0,,,72,127
77950,note_on,4,0,0,,0,,,72,127
77950,note_on,0,0,0,,4,,,64,127
78117,note_off,167,0,0,,4,,,64,127
78117,note_off,0,0,0,,0,,,72,127
78117,note_off,0,0,0,,0,,,84,127
78117,note_off,0,0,0,,4,,,76,127
78121,note_on,4,0,0,,7,,,79,127
78121,note_on,0,0,0,,0,,,72,127
78121,note_on,0,0,0,,4,,,64,127
78458,note_off,337,0,0,,4,,,64,127
78458,note_off,0,0,0,,0,,,72,127
78462,note_on,4,0,0,,0,,,72,127
78462,note_on,0,0,0,,4,,,64,127
78629,note_off,167,0,0,,4,,,64,127
78629,note_off,0,0,0,,0,,,72,127
78633,note_on,4,0,0,,5,,,65,127
78633,note_on,0,0,0,,1,,,73,127
78970,note_off,337,0,0,,1,,,73,127
78970,note_off,0,0,0,,5,,,65,127
78970,note_off,0,0,0,,7,,,79,127
78974,note_on,4,0,0,,8,,,80,127
78974,note_on,0,0,0,,11,,,70,127
78974,note_on,0,0,0,,1,,,61,127
79141,note_off,167,0,0,,1,,,61,127
79141,note_off,0,0,0,,11,,,70,127
79141,note_off,0,0,0,,8,,,80,127
79145,note_on,4,0,0,,7,,,79,127
79145,note_on,0,0,0,,11,,,70,127
79145,note_on,0,0,0,,1,,,61,127
79226,note_off,81,0,0,,7,,,79,127
79230,note_on,4,0,0,,5,,,77,127
79311,note_off,81,0,0,,5,,,77,127
79315,note_on,4,0,0,,7,,,79,127
79396,note_off,81,0,0,,7,,,79,127
79400,note_on,4,0,0,,5,,,77,127
79481,note_off,81,0,0,,5,,,77,127
79481,note_off,0,0,0,,1,,,61,127
79481,note_off,0,0,0,,11,,,70,127
79485,note_on,4,0,0,,4,,,76,127
79485,note_on,0,0,0,,1,,,61,127
79485,note_on,0,0,0,,11,,,70,127
79566,note_off,81,0,0,,4,,,76,127
79570,note_on,4,0,0,,5,,,77,127
79651,note_off,81,0,0,,5,,,77,127
79651,note_off,0,0,0,,11,,,70,127
79651,note_off,0,0,0,,1,,,61,127
79655,note_on,4,0,0,,4,,,76,127
79655,note_on,0,0,0,,0,,,72,127
79655,note_on,0,0,0,,0,,,60,127
79992,note_off,337,0,0,,4,,,76,127
79996,note_on,4,0,0,,0,,,84,127
80163,note_off,167,0,0,,0,,,84,127
80167,note_on,4,0,0,,0,,,84,127
80504,note_off,337,0,0,,0,,,84,127
80508,note_on,4,0,0,,0,,,84,127
80675,note_off,167,0,0,,0,,,84,127
80679,note_on,4,0,0,,1,,,85,127
80962,note_off,283,0,0,,0,,,60,127
81017,note_off,55,0,0,,1,,,85,127
81017,note_off,0,0,0,,0,,,72,127
81021,note_on,4,0,0,,4,,,76,127
81021,note_on,0,0,0,,7,,,79,127
81021,note_on,0,0,0,,11,,,58,127
81188,note_off,167,0,0,,11,,,58,127
81188,note_off,0,0,0,,7,,,79,127
81188,note_off,0,0,0,,4,,,76,127
81192,note_on,4,0,0,,7,,,79,127
81192,note_on,0,0,0,,4,,,76,127
81192,note_on,0,0,0,,11,,,58,127
81529,note_off,337,0,0,,11,,,58,127
81529,note_off,0,0,0,,4,,,76,127
81529,note_off,0,0,0,,7,,,79,127
81533,note_on,4,0,0,,7,,,79,127
81533,note_on,0,0,0,,4,,,76,127
81533,note_on,0,0,0,,11,,,58,127
81700,note_off,167,0,0,,11,,,58,127
81700,note_off,0,0,0,,4,,,76,127
81700,note_off,0,0,0,,7,,,79,127
81704,note_on,4,0,0,,8,,,80,127
81704,note_on,0,0,0,,5,,,65,127
81704,note_on,0,0,0,,8,,,56,127
81871,note_off,167,0,0,,8,,,80,127
81875,note_on,4,0,0,,11,,,82,127
82042,note_off,167,0,0,,11,,,82,127
82046,note_on,4,0,0,,0,,,84,127
82213,note_off,167,0,0,,0,,,84,127
82213,note_off,0,0,0,,8,,,56,127
82213,note_off,0,0,0,,5,,,65,127
82217,note_on,4,0,0,,11,,,82,127
82217,note_on,0,0,0,,7,,,67,127
82217,note_on,0,0,0,,11,,,58,127
82384,note_off,167,0,0,,11,,,82,127
82388,note_on,4,0,0,,8,,,80,127
82555,note_off,167,0,0,,8,,,80,127
82559,note_on,4,0,0,,7,,,79,127
82726,note_off,167,0,0,,7,,,79,127
82726,note_off,0,0,0,,11,,,58,127
82726,note_off,0,0,0,,7,,,67,127
82730,note_on,4,0,0,,5,,,77,127
82730,note_on,0,0,0,,0,,,60,127
82730,note_on,0,0,0,,8,,,68,127
83238,note_off,508,0,0,,8,,,68,127
83238,note_off,0,0,0,,5,,,77,127
83242,note_on,4,0,0,,4,,,76,127
83242,note_on,0,0,0,,7,,,67,127
83750,note_off,508,0,0,,4,,,76,127
83754,note_on,4,0,0,,1,,,73,127
83754,note_on,0,0,0,,11,,,70,127
83766,note_off,12,0,0,,7,,,67,127
83766,note_off,0,0,0,,0,,,60,127
84095,note_on,329,0,0,,7,,,67,127
84095,note_on,0,0,0,,11,,,58,127
84095,note_on,0,0,0,,4,,,64,127
84262,note_off,167,0,0,,4,,,64,127
84262,note_off,0,0,0,,11,,,58,127
84262,note_off,0,0,0,,7,,,67,127
84266,note_on,4,0,0,,7,,,67,127
84266,note_on,0,0,0,,11,,,58,127
84266,note_on,0,0,0,,4,,,64,127
84603,note_off,337,0,0,,4,,,64,127
84603,note_off,0,0,0,,11,,,58,127
84603,note_off,0,0,0,,7,,,67,127
84607,note_on,4,0,0,,4,,,64,127
84607,note_on,0,0,0,,7,,,67,127
84607,note_on,0,0,0,,11,,,58,127
84774,note_off,167,0,0,,11,,,58,127
84774,note_off,0,0,0,,7,,,67,127
84774,note_off,0,0,0,,4,,,64,127
84778,note_on,4,0,0,,4,,,64,127
84778,note_on,0,0,0,,7,,,67,127
84778,note_on,0,0,0,,11,,,58,127
85115,note_off,337,0,0,,11,,,58,127
85115,note_off,0,0,0,,7,,,67,127
85115,note_off,0,0,0,,4,,,64,127
85115,note_off,0,0,0,,11,,,70,127
85115,note_off,0,0,0,,1,,,73,127
85119,note_on,4,0,0,,1,,,73,127
85119,note_on,0,0,0,,7,,,67,127
85119,note_on,0,0,0,,4,,,64,127
85119,note_on,0,0,0,,11,,,58,127
85286,note_off,167,0,0,,11,,,58,127
85286,note_off,0,0,0,,4,,,64,127
85286,note_off,0,0,0,,7,,,67,127
85286,note_off,0,0,0,,1,,,73,127
85290,note_on,4,0,0,,1,,,73,127
85290,note_on,0,0,0,,4,,,76,127
85290,note_on,0,0,0,,4,,,64,127
85290,note_on,0,0,0,,7,,,67,127
85290,note_on,0,0,0,,11,,,58,127
85627,note_off,337,0,0,,11,,,58,127
85627,note_off,0,0,0,,7,,,67,127
85627,note_off,0,0,0,,4,,,64,127
85627,note_off,0,0,0,,1,,,73,127
85631,note_on,4,0,0,,11,,,70,127
85631,note_on,0,0,0,,7,,,67,127
85631,note_on,0,0,0,,11,,,58,127
85631,note_on,0,0,0,,4,,,64,127
85798,note_off,167,0,0,,4,,,64,127
85798,note_off,0,0,0,,11,,,58,127
85798,note_off,0,0,0,,7,,,67,127
85798,note_off,0,0,0,,11,,,70,127
85799,note_off,1,0,0,,4,,,76,127
85802,note_on,3,0,0,,5,,,77,127
85802,note_on,0,0,0,,0,,,72,127
85802,note_on,0,0,0,,5,,,65,127
85802,note_on,0,0,0,,8,,,56,127
85969,note_off,167,0,0,,0,,,72,127
85973,note_on,4,0,0,,11,,,70,127
86140,note_off,167,0,0,,11,,,70,127
86144,note_on,4,0,0,,0,,,72,127
86311,note_off,167,0,0,,0,,,72,127
86311,note_off,0,0,0,,8,,,56,127
86315,note_on,4,0,0,,1,,,73,127
86315,note_on,0,0,0,,11,,,58,127
86482,note_off,167,0,0,,1,,,73,127
86486,note_on,4,0,0,,0,,,72,127
86653,note_off,167,0,0,,0,,,72,127
86657,note_on,4,0,0,,11,,,70,127
86824,note_off,167,0,0,,11,,,70,127
86824,note_off,0,0,0,,11,,,58,127
86828,note_on,4,0,0,,8,,,68,127
86828,note_on,0,0,0,,0,,,60,127
86840,note_off,12,0,0,,5,,,65,127
86995,note_off,155,0,0,,8,,,68,127
86999,note_on,4,0,0,,7,,,67,127
87166,note_off,167,0,0,,7,,,67,127
87170,note_on,4,0,0,,8,,,68,127
87337,note_off,167,0,0,,8,,,68,127
87337,note_off,0,0,0,,0,,,60,127
87341,note_on,4,0,0,,4,,,76,127
87341,note_on,0,0,0,,11,,,70,127
87341,note_on,0,0,0,,0,,,48,127
87353,note_off,12,0,0,,5,,,77,127
87508,note_off,155,0,0,,11,,,70,127
87512,note_on,4,0,0,,8,,,68,127
87679,note_off,167,0,0,,8,,,68,127
87683,note_on,4,0,0,,7,,,67,127
87850,note_off,167,0,0,,7,,,67,127
87850,note_off,0,0,0,,0,,,48,127
87851,note_off,1,0,0,,4,,,76,127
87854,note_on,3,0,0,,5,,,77,127
87854,note_on,0,0,0,,5,,,65,127
87854,note_on,0,0,0,,5,,,53,127
87854,note_on,0,0,0,,5,,,41,127
89897,note_off,2043,0,0,,5,,,41,127
89897,note_off,0,0,0,,5,,,53,127
89897,note_off,0,0,0,,5,,,65,127
89897,note_off,0,0,0,,5,,,77,127
90624,end_of_track,727,1,0,,,,,,
