tick,type,time,meta,track,program,channel,pitch,tempo,note,velocity
0,copyright,0,1,0,,,,,,
0,program_change,0,0,0,6,0,,,,
0,pitchwheel,0,0,0,,0,0,,,
0,program_change,0,0,0,6,1,,,,
0,pitchwheel,0,0,0,,1,-590,,,
0,program_change,0,0,0,6,2,,,,
0,pitchwheel,0,0,0,,2,-272,,,
0,program_change,0,0,0,6,3,,,,
0,pitchwheel,0,0,0,,3,-353,,,
0,program_change,0,0,0,6,4,,,,
0,pitchwheel,0,0,0,,4,-560,,,
0,program_change,0,0,0,6,5,,,,
0,pitchwheel,0,0,0,,5,-80,,,
0,program_change,0,0,0,6,6,,,,
0,pitchwheel,0,0,0,,6,-625,,,
0,program_change,0,0,0,6,7,,,,
0,pitchwheel,0,0,0,,7,-130,,,
0,program_change,0,0,0,6,8,,,,
0,pitchwheel,0,0,0,,8,-512,,,
0,program_change,0,0,0,6,10,,,,
0,pitchwheel,0,0,0,,10,-464,,,
0,program_change,0,0,0,6,11,,,,
0,pitchwheel,0,0,0,,11,-208,,,
0,program_change,0,0,0,6,12,,,,
0,pitchwheel,0,0,0,,12,-553,,,
0,set_tempo,0,1,0,,,,500000,,
100,note_on,100,0,0,,5,,,77,127
300,note_on,200,0,0,,0,,,84,127
329,note_off,29,0,0,,5,,,77,127
399,note_off,70,0,0,,0,,,84,127
400,note_on,1,0,0,,11,,,82,127
499,note_off,99,0,0,,11,,,82,127
500,note_on,1,0,0,,8,,,80,127
699,note_off,199,0,0,,8,,,80,127
700,note_on,1,0,0,,7,,,79,127
899,note_off,199,0,0,,7,,,79,127
900,note_on,1,0,0,,5,,,77,127
1099,note_off,199,0,0,,5,,,77,127
1100,note_on,1,0,0,,4,,,76,127
1299,note_off,199,0,0,,4,,,76,127
1300,note_on,1,0,0,,5,,,65,127
1300,note_on,0,0,0,,5,,,77,127
1500,note_on,200,0,0,,0,,,72,127
1529,note_off,29,0,0,,5,,,65,127
1599,note_off,70,0,0,,0,,,72,127
1600,note_on,1,0,0,,11,,,70,127
1699,note_off,99,0,0,,11,,,70,127
1700,note_on,1,0,0,,8,,,68,127
1899,note_off,199,0,0,,8,,,68,127
1900,note_on,1,0,0,,7,,,67,127
2099,note_off,199,0,0,,7,,,67,127
2099,note_off,0,0,0,,5,,,77,127
2100,note_on,1,0,0,,5,,,65,127
2100,note_on,0,0,0,,7,,,79,127
2299,note_off,199,0,0,,5,,,65,127
2300,note_on,1,0,0,,4,,,64,127
2499,note_off,199,0,0,,4,,,64,127
2499,note_off,0,0,0,,7,,,79,127
2500,note_on,1,0,0,,5,,,53,127
2500,note_on,0,0,0,,8,,,80,127
2700,note_on,200,0,0,,0,,,60,127
2729,note_off,29,0,0,,5,,,53,127
2799,note_off,70,0,0,,0,,,60,127
2800,note_on,1,0,0,,11,,,58,127
2899,note_off,99,0,0,,11,,,58,127
2900,note_on,1,0,0,,8,,,56,127
3099,note_off,199,0,0,,8,,,56,127
3100,note_on,1,0,0,,7,,,55,127
3299,note_off,199,0,0,,7,,,55,127
3299,note_off,0,0,0,,8,,,80,127
3300,note_on,1,0,0,,5,,,53,127
3300,note_on,0,0,0,,11,,,82,127
3499,note_off,199,0,0,,5,,,53,127
3500,note_on,1,0,0,,4,,,52,127
3699,note_off,199,0,0,,4,,,52,127
3700,note_on,1,0,0,,5,,,53,127
3799,note_off,99,0,0,,11,,,82,127
3800,note_on,1,0,0,,0,,,84,127
3899,note_off,99,0,0,,0,,,84,127
3900,note_on,1,0,0,,11,,,82,127
3999,note_off,99,0,0,,11,,,82,127
4000,note_on,1,0,0,,8,,,80,127
4099,note_off,99,0,0,,8,,,80,127
4099,note_off,0,0,0,,5,,,53,127
4100,note_on,1,0,0,,11,,,58,127
4100,note_on,0,0,0,,7,,,79,127
4199,note_off,99,0,0,,7,,,79,127
4200,note_on,1,0,0,,5,,,77,127
4299,note_off,99,0,0,,5,,,77,127
4300,note_on,1,0,0,,4,,,76,127
4399,note_off,99,0,0,,4,,,76,127
4400,note_on,1,0,0,,2,,,74,127
4499,note_off,99,0,0,,2,,,74,127
4499,note_off,0,0,0,,11,,,58,127
4500,note_on,1,0,0,,0,,,60,127
4500,note_on,0,0,0,,0,,,72,127
4599,note_off,99,0,0,,0,,,72,127
4600,note_on,1,0,0,,11,,,70,127
4699,note_off,99,0,0,,11,,,70,127
4700,note_on,1,0,0,,8,,,68,127
4799,note_off,99,0,0,,8,,,68,127
4800,note_on,1,0,0,,7,,,67,127
4899,note_off,99,0,0,,7,,,67,127
4900,note_off,1,0,0,,0,,,60,127
4900,note_on,0,0,0,,8,,,68,127
5000,note_on,100,0,0,,0,,,72,127
5098,note_off,98,0,0,,8,,,68,127
5099,note_off,1,0,0,,0,,,72,127
5100,note_on,1,0,0,,11,,,70,127
5199,note_off,99,0,0,,11,,,70,127
5200,note_on,1,0,0,,8,,,68,127
5299,note_off,99,0,0,,8,,,68,127
5300,note_on,1,0,0,,7,,,67,127
5399,note_off,99,0,0,,7,,,67,127
5400,note_on,1,0,0,,5,,,65,127
5499,note_off,99,0,0,,5,,,65,127
5500,note_on,1,0,0,,4,,,64,127
5599,note_off,99,0,0,,4,,,64,127
5600,note_on,1,0,0,,1,,,61,127
5699,note_off,99,0,0,,1,,,61,127
5700,note_on,1,0,0,,0,,,60,127
5799,note_off,99,0,0,,0,,,60,127
5800,note_on,1,0,0,,11,,,58,127
5899,note_off,99,0,0,,11,,,58,127
5900,note_on,1,0,0,,8,,,56,127
5999,note_off,99,0,0,,8,,,56,127
6000,note_on,1,0,0,,7,,,55,127
6099,note_off,99,0,0,,7,,,55,127
6100,note_on,1,0,0,,8,,,56,127
6200,note_on,100,0,0,,5,,,77,127
6299,note_off,99,0,0,,5,,,77,127
6300,note_on,1,0,0,,3,,,75,127
6399,note_off,99,0,0,,3,,,75,127
6400,note_on,1,0,0,,1,,,73,127
6499,note_off,99,0,0,,1,,,73,127
6499,note_off,0,0,0,,8,,,56,127
6500,note_on,1,0,0,,11,,,58,127
6500,note_on,0,0,0,,0,,,72,127
6599,note_off,99,0,0,,0,,,72,127
6600,note_on,1,0,0,,11,,,70,127
6699,note_off,99,0,0,,11,,,70,127
6700,note_on,1,0,0,,8,,,68,127
6799,note_off,99,0,0,,8,,,68,127
6800,note_on,1,0,0,,7,,,67,127
6899,note_off,99,0,0,,7,,,67,127
6899,note_off,0,0,0,,11,,,58,127
6900,note_on,1,0,0,,0,,,60,127
6900,note_on,0,0,0,,5,,,65,127
6999,note_off,99,0,0,,5,,,65,127
7000,note_on,1,0,0,,4,,,64,127
7099,note_off,99,0,0,,4,,,64,127
7100,note_on,1,0,0,,5,,,65,127
7199,note_off,99,0,0,,5,,,65,127
7200,note_on,1,0,0,,7,,,67,127
7299,note_off,99,0,0,,7,,,67,127
7300,note_on,1,0,0,,8,,,68,127
7399,note_off,99,0,0,,0,,,60,127
7400,note_on,1,0,0,,5,,,65,127
7499,note_off,99,0,0,,5,,,65,127
7500,note_on,1,0,0,,3,,,63,127
7599,note_off,99,0,0,,3,,,63,127
7600,note_on,1,0,0,,1,,,61,127
7699,note_off,99,0,0,,1,,,61,127
7700,note_on,1,0,0,,0,,,60,127
7799,note_off,99,0,0,,0,,,60,127
7800,note_on,1,0,0,,11,,,58,127
7899,note_off,99,0,0,,11,,,58,127
7900,note_on,1,0,0,,8,,,56,127
7999,note_off,99,0,0,,8,,,56,127
8000,note_on,1,0,0,,7,,,55,127
8099,note_off,99,0,0,,7,,,55,127
8099,note_off,0,0,0,,8,,,68,127
8100,note_on,1,0,0,,5,,,53,127
8100,note_on,0,0,0,,11,,,70,127
8199,note_off,99,0,0,,5,,,53,127
8200,note_on,1,0,0,,4,,,52,127
8299,note_off,99,0,0,,4,,,52,127
8300,note_on,1,0,0,,5,,,53,127
8399,note_off,99,0,0,,5,,,53,127
8400,note_on,1,0,0,,7,,,55,127
8499,note_off,99,0,0,,7,,,55,127
8500,note_on,1,0,0,,8,,,56,127
8599,note_off,99,0,0,,11,,,70,127
8600,note_on,1,0,0,,0,,,72,127
8699,note_off,99,0,0,,0,,,72,127
8700,note_on,1,0,0,,11,,,70,127
8799,note_off,99,0,0,,11,,,70,127
8800,note_on,1,0,0,,8,,,68,127
8899,note_off,99,0,0,,8,,,68,127
8899,note_off,0,0,0,,8,,,56,127
8900,note_on,1,0,0,,11,,,58,127
8900,note_on,0,0,0,,7,,,67,127
8999,note_off,99,0,0,,7,,,67,127
9000,note_on,1,0,0,,8,,,68,127
9099,note_off,99,0,0,,8,,,68,127
9100,note_on,1,0,0,,7,,,67,127
9199,note_off,99,0,0,,7,,,67,127
9200,note_on,1,0,0,,5,,,65,127
9299,note_off,99,0,0,,5,,,65,127
9299,note_off,0,0,0,,11,,,58,127
9300,note_on,1,0,0,,1,,,61,127
9300,note_on,0,0,0,,7,,,67,127
9399,note_off,99,0,0,,7,,,67,127
9400,note_on,1,0,0,,5,,,65,127
9499,note_off,99,0,0,,5,,,65,127
9500,note_on,1,0,0,,4,,,64,127
9599,note_off,99,0,0,,4,,,64,127
9600,note_on,1,0,0,,2,,,62,127
9699,note_off,99,0,0,,2,,,62,127
9700,note_on,1,0,0,,4,,,64,127
9799,note_off,99,0,0,,1,,,61,127
9800,note_off,1,0,0,,4,,,64,127
9800,note_on,0,0,0,,0,,,60,127
9899,note_off,99,0,0,,0,,,60,127
9900,note_on,1,0,0,,11,,,58,127
9999,note_off,99,0,0,,11,,,58,127
10000,note_on,1,0,0,,8,,,56,127
10099,note_off,99,0,0,,8,,,56,127
10100,note_on,1,0,0,,7,,,55,127
10199,note_off,99,0,0,,7,,,55,127
10200,note_on,1,0,0,,8,,,56,127
10299,note_off,99,0,0,,8,,,56,127
10300,note_on,1,0,0,,7,,,55,127
10399,note_off,99,0,0,,7,,,55,127
10400,note_on,1,0,0,,5,,,53,127
10499,note_off,99,0,0,,5,,,53,127
10500,note_on,1,0,0,,7,,,55,127
10599,note_off,99,0,0,,7,,,55,127
10600,note_on,1,0,0,,5,,,53,127
10699,note_off,99,0,0,,5,,,53,127
10700,note_on,1,0,0,,4,,,52,127
10799,note_off,99,0,0,,4,,,52,127
10800,note_on,1,0,0,,2,,,50,127
10899,note_off,99,0,0,,2,,,50,127
10900,note_on,1,0,0,,0,,,48,127
11100,note_on,200,0,0,,7,,,67,127
11199,note_off,99,0,0,,7,,,67,127
11200,note_on,1,0,0,,7,,,79,127
11299,note_off,99,0,0,,7,,,79,127
11299,note_off,0,0,0,,0,,,48,127
11300,note_on,1,0,0,,0,,,60,127
11300,note_on,0,0,0,,7,,,67,127
11499,note_off,199,0,0,,7,,,67,127
11500,note_on,1,0,0,,7,,,79,127
11699,note_off,199,0,0,,7,,,79,127
11699,note_off,0,0,0,,0,,,60,127
11700,note_on,1,0,0,,4,,,52,127
11700,note_on,0,0,0,,7,,,67,127
11899,note_off,199,0,0,,7,,,67,127
11900,note_on,1,0,0,,7,,,79,127
12099,note_off,199,0,0,,4,,,52,127
12100,note_on,1,0,0,,5,,,53,127
12254,note_off,154,0,0,,7,,,79,127
12300,note_on,46,0,0,,8,,,68,127
12399,note_off,99,0,0,,8,,,68,127
12400,note_on,1,0,0,,8,,,80,127
12499,note_off,99,0,0,,8,,,80,127
12499,note_off,0,0,0,,5,,,53,127
12500,note_on,1,0,0,,5,,,65,127
12500,note_on,0,0,0,,8,,,68,127
12699,note_off,199,0,0,,8,,,68,127
12700,note_on,1,0,0,,8,,,80,127
12899,note_off,199,0,0,,8,,,80,127
12899,note_off,0,0,0,,5,,,65,127
12900,note_on,1,0,0,,3,,,63,127
12900,note_on,0,0,0,,8,,,68,127
13099,note_off,199,0,0,,8,,,68,127
13100,note_on,1,0,0,,10,,,81,127
13299,note_off,199,0,0,,3,,,63,127
13300,note_on,1,0,0,,1,,,61,127
13454,note_off,154,0,0,,10,,,81,127
13500,note_on,46,0,0,,11,,,70,127
13599,note_off,99,0,0,,11,,,70,127
13600,note_on,1,0,0,,11,,,82,127
13699,note_off,99,0,0,,11,,,82,127
13699,note_off,0,0,0,,1,,,61,127
13700,note_on,1,0,0,,3,,,63,127
13700,note_on,0,0,0,,11,,,70,127
13899,note_off,199,0,0,,11,,,70,127
13900,note_on,1,0,0,,11,,,82,127
14099,note_off,199,0,0,,11,,,82,127
14099,note_off,0,0,0,,3,,,63,127
14100,note_on,1,0,0,,3,,,51,127
14100,note_on,0,0,0,,11,,,70,127
14299,note_off,199,0,0,,11,,,70,127
14300,note_on,1,0,0,,12,,,83,127
14499,note_off,199,0,0,,12,,,83,127
14499,note_off,0,0,0,,3,,,51,127
14500,note_on,1,0,0,,8,,,56,127
14500,note_on,0,0,0,,0,,,84,127
14599,note_off,99,0,0,,0,,,84,127
14600,note_on,1,0,0,,11,,,82,127
14699,note_off,99,0,0,,11,,,82,127
14700,note_on,1,0,0,,8,,,80,127
14799,note_off,99,0,0,,8,,,80,127
14800,note_on,1,0,0,,7,,,79,127
14899,note_off,99,0,0,,7,,,79,127
14900,note_on,1,0,0,,5,,,77,127
14999,note_off,99,0,0,,5,,,77,127
15000,note_on,1,0,0,,3,,,75,127
15099,note_off,99,0,0,,3,,,75,127
15100,note_on,1,0,0,,1,,,73,127
15199,note_off,99,0,0,,1,,,73,127
15200,note_on,1,0,0,,0,,,72,127
15299,note_off,99,0,0,,0,,,72,127
15299,note_off,0,0,0,,8,,,56,127
15300,note_on,1,0,0,,1,,,61,127
15300,note_on,0,0,0,,11,,,70,127
15399,note_off,99,0,0,,11,,,70,127
15400,note_on,1,0,0,,8,,,68,127
15499,note_off,99,0,0,,8,,,68,127
15500,note_on,1,0,0,,7,,,67,127
15599,note_off,99,0,0,,7,,,67,127
15600,note_on,1,0,0,,5,,,65,127
15696,note_off,96,0,0,,1,,,61,127
15699,note_off,3,0,0,,5,,,65,127
15700,note_on,1,0,0,,3,,,63,127
15799,note_off,99,0,0,,3,,,63,127
15800,note_on,1,0,0,,3,,,63,127
15899,note_off,99,0,0,,3,,,63,127
15900,note_on,1,0,0,,1,,,61,127
15999,note_off,99,0,0,,1,,,61,127
16000,note_on,1,0,0,,0,,,60,127
16099,note_off,99,0,0,,0,,,60,127
16100,note_on,1,0,0,,11,,,58,127
16199,note_off,99,0,0,,11,,,58,127
16200,note_on,1,0,0,,8,,,56,127
16299,note_off,99,0,0,,8,,,56,127
16300,note_on,1,0,0,,7,,,55,127
16399,note_off,99,0,0,,7,,,55,127
16400,note_on,1,0,0,,5,,,53,127
16499,note_off,99,0,0,,5,,,53,127
16500,note_on,1,0,0,,3,,,51,127
16599,note_off,99,0,0,,3,,,51,127
16600,note_on,1,0,0,,1,,,49,127
16699,note_off,99,0,0,,1,,,49,127
16700,note_on,1,0,0,,0,,,48,127
16799,note_off,99,0,0,,0,,,48,127
16800,note_on,1,0,0,,11,,,46,127
16899,note_off,99,0,0,,11,,,46,127
16900,note_on,1,0,0,,8,,,44,127
17100,note_on,200,0,0,,0,,,60,127
17199,note_off,99,0,0,,0,,,60,127
17200,note_on,1,0,0,,8,,,68,127
17200,note_on,0,0,0,,0,,,72,127
17299,note_off,99,0,0,,0,,,72,127
17299,note_off,0,0,0,,8,,,68,127
17299,note_off,0,0,0,,8,,,44,127
17300,note_on,1,0,0,,8,,,56,127
17300,note_on,0,0,0,,0,,,60,127
17499,note_off,199,0,0,,0,,,60,127
17500,note_on,1,0,0,,0,,,72,127
17500,note_on,0,0,0,,8,,,68,127
17699,note_off,199,0,0,,8,,,68,127
17699,note_off,0,0,0,,0,,,72,127
17699,note_off,0,0,0,,8,,,56,127
17700,note_on,1,0,0,,7,,,55,127
17700,note_on,0,0,0,,0,,,60,127
17899,note_off,199,0,0,,0,,,60,127
17900,note_on,1,0,0,,0,,,72,127
17900,note_on,0,0,0,,8,,,68,127
18099,note_off,199,0,0,,7,,,55,127
18100,note_on,1,0,0,,5,,,53,127
18254,note_off,154,0,0,,8,,,68,127
18254,note_off,0,0,0,,0,,,72,127
18300,note_on,46,0,0,,2,,,62,127
18399,note_off,99,0,0,,2,,,62,127
18400,note_on,1,0,0,,12,,,71,127
18400,note_on,0,0,0,,2,,,74,127
18499,note_off,99,0,0,,2,,,74,127
18499,note_off,0,0,0,,12,,,71,127
18499,note_off,0,0,0,,5,,,53,127
18500,note_on,1,0,0,,7,,,55,127
18500,note_on,0,0,0,,2,,,62,127
18699,note_off,199,0,0,,2,,,62,127
18700,note_on,1,0,0,,12,,,71,127
18700,note_on,0,0,0,,2,,,74,127
18899,note_off,199,0,0,,2,,,74,127
18899,note_off,0,0,0,,12,,,71,127
18899,note_off,0,0,0,,7,,,55,127
18900,note_on,1,0,0,,7,,,43,127
18900,note_on,0,0,0,,2,,,62,127
19099,note_off,199,0,0,,2,,,62,127
19100,note_on,1,0,0,,2,,,74,127
19100,note_on,0,0,0,,12,,,71,127
19299,note_off,199,0,0,,7,,,43,127
19300,note_on,1,0,0,,0,,,48,127
19454,note_off,154,0,0,,12,,,71,127
19454,note_off,0,0,0,,2,,,74,127
19500,note_on,46,0,0,,3,,,63,127
19599,note_off,99,0,0,,3,,,63,127
19600,note_on,1,0,0,,3,,,75,127
19600,note_on,0,0,0,,0,,,72,127
19699,note_off,99,0,0,,0,,,72,127
19699,note_off,0,0,0,,3,,,75,127
19699,note_off,0,0,0,,0,,,48,127
19700,note_on,1,0,0,,0,,,60,127
19700,note_on,0,0,0,,3,,,63,127
19899,note_off,199,0,0,,3,,,63,127
19900,note_on,1,0,0,,3,,,75,127
19900,note_on,0,0,0,,0,,,72,127
20099,note_off,199,0,0,,0,,,72,127
20099,note_off,0,0,0,,3,,,75,127
20099,note_off,0,0,0,,0,,,60,127
20100,note_on,1,0,0,,11,,,58,127
20100,note_on,0,0,0,,3,,,63,127
20299,note_off,199,0,0,,3,,,63,127
20300,note_on,1,0,0,,0,,,72,127
20300,note_on,0,0,0,,4,,,76,127
20499,note_off,199,0,0,,11,,,58,127
20500,note_on,1,0,0,,8,,,56,127
20654,note_off,154,0,0,,4,,,76,127
20654,note_off,0,0,0,,0,,,72,127
20700,note_on,46,0,0,,5,,,65,127
20799,note_off,99,0,0,,5,,,65,127
20800,note_on,1,0,0,,2,,,74,127
20800,note_on,0,0,0,,5,,,77,127
20899,note_off,99,0,0,,5,,,77,127
20899,note_off,0,0,0,,2,,,74,127
20899,note_off,0,0,0,,8,,,56,127
20900,note_on,1,0,0,,11,,,58,127
20900,note_on,0,0,0,,5,,,65,127
21099,note_off,199,0,0,,5,,,65,127
21100,note_on,1,0,0,,5,,,77,127
21100,note_on,0,0,0,,2,,,74,127
21299,note_off,199,0,0,,2,,,74,127
21299,note_off,0,0,0,,5,,,77,127
21299,note_off,0,0,0,,11,,,58,127
21300,note_on,1,0,0,,2,,,50,127
21300,note_on,0,0,0,,5,,,65,127
21499,note_off,199,0,0,,5,,,65,127
21500,note_on,1,0,0,,2,,,74,127
21500,note_on,0,0,0,,6,,,78,127
21699,note_off,199,0,0,,6,,,78,127
21699,note_off,0,0,0,,2,,,74,127
21699,note_off,0,0,0,,2,,,50,127
21700,note_on,1,0,0,,3,,,51,127
21700,note_on,0,0,0,,7,,,67,127
21900,note_on,200,0,0,,7,,,79,127
22096,note_off,196,0,0,,7,,,67,127
22099,note_off,3,0,0,,3,,,51,127
22100,note_on,1,0,0,,0,,,60,127
22299,note_off,199,0,0,,7,,,79,127
22300,note_on,1,0,0,,5,,,77,127
22399,note_off,99,0,0,,5,,,77,127
22400,note_on,1,0,0,,3,,,75,127
22499,note_off,99,0,0,,3,,,75,127
22499,note_off,0,0,0,,0,,,60,127
22500,note_on,1,0,0,,5,,,53,127
22500,note_on,0,0,0,,2,,,74,127
22699,note_off,199,0,0,,2,,,74,127
22700,note_on,1,0,0,,0,,,72,127
22899,note_off,199,0,0,,0,,,72,127
22899,note_off,0,0,0,,5,,,53,127
22900,note_on,1,0,0,,7,,,67,127
22900,note_on,0,0,0,,7,,,55,127
22900,note_on,0,0,0,,12,,,71,127
23300,note_off,400,0,0,,12,,,71,127
23300,note_off,0,0,0,,7,,,55,127
23301,note_on,1,0,0,,8,,,56,127
23301,note_on,0,0,0,,2,,,74,127
23367,note_off,66,0,0,,2,,,74,127
23368,note_on,1,0,0,,0,,,72,127
23434,note_off,66,0,0,,0,,,72,127
23435,note_on,1,0,0,,2,,,74,127
23501,note_off,66,0,0,,2,,,74,127
23502,note_on,1,0,0,,0,,,72,127
23568,note_off,66,0,0,,0,,,72,127
23569,note_on,1,0,0,,2,,,74,127
23635,note_off,66,0,0,,2,,,74,127
23636,note_on,1,0,0,,0,,,72,127
23702,note_off,66,0,0,,0,,,72,127
23703,note_off,1,0,0,,7,,,67,127
23703,note_on,0,0,0,,5,,,65,127
23703,note_on,0,0,0,,2,,,74,127
23769,note_off,66,0,0,,2,,,74,127
23770,note_on,1,0,0,,0,,,72,127
23836,note_off,66,0,0,,0,,,72,127
23837,note_on,1,0,0,,2,,,74,127
23903,note_off,66,0,0,,2,,,74,127
23904,note_on,1,0,0,,0,,,72,127
23970,note_off,66,0,0,,0,,,72,127
23971,note_on,1,0,0,,12,,,71,127
24037,note_off,66,0,0,,12,,,71,127
24038,note_on,1,0,0,,0,,,72,127
24104,note_off,66,0,0,,0,,,72,127
24104,note_off,0,0,0,,5,,,65,127
24105,note_off,1,0,0,,8,,,56,127
24105,note_on,0,0,0,,7,,,43,127
24105,note_on,0,0,0,,2,,,74,127
24304,note_off,199,0,0,,2,,,74,127
24305,note_on,1,0,0,,7,,,67,127
24404,note_off,99,0,0,,7,,,67,127
24405,note_on,1,0,0,,7,,,79,127
24504,note_off,99,0,0,,7,,,79,127
24504,note_off,0,0,0,,7,,,43,127
24505,note_on,1,0,0,,7,,,55,127
24505,note_on,0,0,0,,7,,,67,127
24704,note_off,199,0,0,,7,,,67,127
24705,note_on,1,0,0,,7,,,79,127
24904,note_off,199,0,0,,7,,,79,127
24904,note_off,0,0,0,,7,,,55,127
24905,note_on,1,0,0,,5,,,53,127
24905,note_on,0,0,0,,7,,,67,127
25104,note_off,199,0,0,,7,,,67,127
25105,note_on,1,0,0,,7,,,79,127
25304,note_off,199,0,0,,7,,,79,127
25304,note_off,0,0,0,,5,,,53,127
25305,note_on,1,0,0,,3,,,51,127
25305,note_on,0,0,0,,0,,,84,127
25305,note_on,0,0,0,,0,,,72,127
25504,note_off,199,0,0,,0,,,72,127
25504,note_off,0,0,0,,0,,,84,127
25505,note_on,1,0,0,,7,,,67,127
25604,note_off,99,0,0,,7,,,67,127
25605,note_on,1,0,0,,7,,,79,127
25704,note_off,99,0,0,,7,,,79,127
25704,note_off,0,0,0,,3,,,51,127
25705,note_on,1,0,0,,2,,,50,127
25705,note_on,0,0,0,,7,,,67,127
25904,note_off,199,0,0,,7,,,67,127
25905,note_on,1,0,0,,7,,,79,127
26104,note_off,199,0,0,,7,,,79,127
26104,note_off,0,0,0,,2,,,50,127
26105,note_on,1,0,0,,0,,,48,127
26105,note_on,0,0,0,,7,,,67,127
26304,note_off,199,0,0,,7,,,67,127
26305,note_on,1,0,0,,7,,,79,127
26504,note_off,199,0,0,,7,,,79,127
26504,note_off,0,0,0,,0,,,48,127
26505,note_on,1,0,0,,7,,,43,127
26505,note_on,0,0,0,,2,,,62,127
26505,note_on,0,0,0,,2,,,74,127
26704,note_off,199,0,0,,2,,,74,127
26704,note_off,0,0,0,,2,,,62,127
26705,note_on,1,0,0,,7,,,67,127
26804,note_off,99,0,0,,7,,,67,127
26805,note_on,1,0,0,,7,,,79,127
26904,note_off,99,0,0,,7,,,79,127
26904,note_off,0,0,0,,7,,,43,127
26905,note_on,1,0,0,,7,,,55,127
26905,note_on,0,0,0,,7,,,67,127
27104,note_off,199,0,0,,7,,,67,127
27105,note_on,1,0,0,,7,,,79,127
27304,note_off,199,0,0,,7,,,79,127
27304,note_off,0,0,0,,7,,,55,127
27305,note_on,1,0,0,,5,,,53,127
27305,note_on,0,0,0,,7,,,67,127
27504,note_off,199,0,0,,7,,,67,127
27505,note_on,1,0,0,,7,,,79,127
27704,note_off,199,0,0,,7,,,79,127
27704,note_off,0,0,0,,5,,,53,127
27705,note_on,1,0,0,,3,,,51,127
27705,note_on,0,0,0,,0,,,84,127
27705,note_on,0,0,0,,0,,,72,127
27904,note_off,199,0,0,,0,,,72,127
27904,note_off,0,0,0,,0,,,84,127
27905,note_on,1,0,0,,7,,,67,127
28004,note_off,99,0,0,,7,,,67,127
28005,note_on,1,0,0,,7,,,79,127
28104,note_off,99,0,0,,7,,,79,127
28104,note_off,0,0,0,,3,,,51,127
28105,note_on,1,0,0,,2,,,50,127
28105,note_on,0,0,0,,7,,,67,127
28304,note_off,199,0,0,,7,,,67,127
28305,note_on,1,0,0,,7,,,79,127
28504,note_off,199,0,0,,7,,,79,127
28504,note_off,0,0,0,,2,,,50,127
28505,note_on,1,0,0,,0,,,48,127
28505,note_on,0,0,0,,7,,,67,127
28704,note_off,199,0,0,,7,,,67,127
28705,note_on,1,0,0,,7,,,79,127
28899,note_off,194,0,0,,0,,,48,127
28904,note_off,5,0,0,,7,,,79,127
28905,note_on,1,0,0,,2,,,74,127
28905,note_on,0,0,0,,2,,,62,127
29105,note_on,200,0,0,,7,,,43,127
29204,note_off,99,0,0,,7,,,43,127
29205,note_on,1,0,0,,7,,,55,127
29304,note_off,99,0,0,,7,,,55,127
29305,note_on,1,0,0,,7,,,43,127
29504,note_off,199,0,0,,7,,,43,127
29505,note_on,1,0,0,,7,,,55,127
29704,note_off,199,0,0,,7,,,55,127
29705,note_on,1,0,0,,7,,,43,127
29904,note_off,199,0,0,,7,,,43,127
29904,note_off,0,0,0,,2,,,62,127
29904,note_off,0,0,0,,2,,,74,127
29905,note_on,1,0,0,,7,,,55,127
29905,note_on,0,0,0,,12,,,71,127
29905,note_on,0,0,0,,2,,,74,127
30104,note_off,199,0,0,,2,,,74,127
30104,note_off,0,0,0,,12,,,71,127
30104,note_off,0,0,0,,7,,,55,127
30105,note_on,1,0,0,,0,,,48,127
30105,note_on,0,0,0,,0,,,60,127
30105,note_on,0,0,0,,3,,,75,127
30105,note_on,0,0,0,,0,,,72,127
30304,note_off,199,0,0,,0,,,72,127
30304,note_off,0,0,0,,3,,,75,127
30304,note_off,0,0,0,,0,,,60,127
30304,note_off,0,0,0,,0,,,48,127
30305,note_on,1,0,0,,7,,,43,127
30305,note_on,0,0,0,,2,,,74,127
30305,note_on,0,0,0,,12,,,71,127
30404,note_off,99,0,0,,7,,,43,127
30405,note_on,1,0,0,,7,,,55,127
30504,note_off,99,0,0,,7,,,55,127
30505,note_on,1,0,0,,7,,,43,127
30704,note_off,199,0,0,,7,,,43,127
30705,note_on,1,0,0,,7,,,55,127
30904,note_off,199,0,0,,7,,,55,127
30905,note_on,1,0,0,,7,,,43,127
31104,note_off,199,0,0,,7,,,43,127
31104,note_off,0,0,0,,12,,,71,127
31104,note_off,0,0,0,,2,,,74,127
31105,note_on,1,0,0,,7,,,55,127
31105,note_on,0,0,0,,0,,,72,127
31105,note_on,0,0,0,,3,,,75,127
31304,note_off,199,0,0,,3,,,75,127
31304,note_off,0,0,0,,0,,,72,127
31304,note_off,0,0,0,,7,,,55,127
31305,note_on,1,0,0,,2,,,38,127
31305,note_on,0,0,0,,2,,,50,127
31305,note_on,0,0,0,,2,,,74,127
31305,note_on,0,0,0,,5,,,77,127
31504,note_off,199,0,0,,5,,,77,127
31504,note_off,0,0,0,,2,,,74,127
31504,note_off,0,0,0,,2,,,50,127
31504,note_off,0,0,0,,2,,,38,127
31505,note_on,1,0,0,,7,,,43,127
31505,note_on,0,0,0,,3,,,75,127
31505,note_on,0,0,0,,0,,,72,127
31604,note_off,99,0,0,,7,,,43,127
31605,note_on,1,0,0,,7,,,55,127
31704,note_off,99,0,0,,7,,,55,127
31705,note_on,1,0,0,,7,,,43,127
31904,note_off,199,0,0,,7,,,43,127
31905,note_on,1,0,0,,7,,,55,127
32104,note_off,199,0,0,,7,,,55,127
32105,note_on,1,0,0,,7,,,43,127
32304,note_off,199,0,0,,7,,,43,127
32304,note_off,0,0,0,,0,,,72,127
32304,note_off,0,0,0,,3,,,75,127
32305,note_on,1,0,0,,7,,,55,127
32305,note_on,0,0,0,,2,,,74,127
32305,note_on,0,0,0,,12,,,71,127
32504,note_off,199,0,0,,12,,,71,127
32504,note_off,0,0,0,,2,,,74,127
32504,note_off,0,0,0,,7,,,55,127
32505,note_on,1,0,0,,0,,,48,127
32505,note_on,0,0,0,,0,,,60,127
32505,note_on,0,0,0,,0,,,72,127
32505,note_on,0,0,0,,3,,,75,127
32704,note_off,199,0,0,,3,,,75,127
32704,note_off,0,0,0,,0,,,72,127
32704,note_off,0,0,0,,0,,,60,127
32704,note_off,0,0,0,,0,,,48,127
32705,note_on,1,0,0,,7,,,43,127
32705,note_on,0,0,0,,12,,,71,127
32705,note_on,0,0,0,,2,,,74,127
32804,note_off,99,0,0,,7,,,43,127
32805,note_on,1,0,0,,7,,,55,127
32904,note_off,99,0,0,,7,,,55,127
32905,note_on,1,0,0,,7,,,43,127
33104,note_off,199,0,0,,7,,,43,127
33105,note_on,1,0,0,,7,,,55,127
33304,note_off,199,0,0,,7,,,55,127
33305,note_on,1,0,0,,7,,,43,127
33504,note_off,199,0,0,,7,,,43,127
33504,note_off,0,0,0,,2,,,74,127
33504,note_off,0,0,0,,12,,,71,127
33505,note_on,1,0,0,,7,,,55,127
33505,note_on,0,0,0,,3,,,75,127
33505,note_on,0,0,0,,0,,,72,127
33704,note_off,199,0,0,,0,,,72,127
33704,note_off,0,0,0,,3,,,75,127
33704,note_off,0,0,0,,7,,,55,127
33705,note_on,1,0,0,,2,,,38,127
33705,note_on,0,0,0,,2,,,50,127
33705,note_on,0,0,0,,5,,,77,127
33705,note_on,0,0,0,,2,,,74,127
33904,note_off,199,0,0,,2,,,74,127
33904,note_off,0,0,0,,5,,,77,127
33904,note_off,0,0,0,,2,,,50,127
33904,note_off,0,0,0,,2,,,38,127
33905,note_on,1,0,0,,7,,,43,127
33905,note_on,0,0,0,,3,,,75,127
33905,note_on,0,0,0,,0,,,72,127
34004,note_off,99,0,0,,7,,,43,127
34005,note_on,1,0,0,,7,,,55,127
34104,note_off,99,0,0,,7,,,55,127
34105,note_on,1,0,0,,7,,,43,127
34304,note_off,199,0,0,,7,,,43,127
34305,note_on,1,0,0,,7,,,55,127
34504,note_off,199,0,0,,7,,,55,127
34505,note_on,1,0,0,,7,,,43,127
34704,note_off,199,0,0,,7,,,43,127
34704,note_off,0,0,0,,0,,,72,127
34704,note_off,0,0,0,,3,,,75,127
34705,note_on,1,0,0,,7,,,55,127
34705,note_on,0,0,0,,12,,,71,127
34705,note_on,0,0,0,,2,,,74,127
34904,note_off,199,0,0,,7,,,55,127
34905,note_on,1,0,0,,8,,,68,127
34905,note_on,0,0,0,,8,,,56,127
35004,note_off,99,0,0,,2,,,74,127
35004,note_off,0,0,0,,12,,,71,127
35005,note_on,1,0,0,,2,,,74,127
35104,note_off,99,0,0,,2,,,74,127
35105,note_on,1,0,0,,0,,,72,127
35204,note_off,99,0,0,,0,,,72,127
35205,note_on,1,0,0,,12,,,71,127
35304,note_off,99,0,0,,12,,,71,127
35305,note_on,1,0,0,,0,,,72,127
35404,note_off,99,0,0,,8,,,56,127
35404,note_off,0,0,0,,8,,,68,127
35405,note_on,1,0,0,,7,,,67,127
35504,note_off,99,0,0,,7,,,67,127
35505,note_on,1,0,0,,5,,,65,127
35604,note_off,99,0,0,,5,,,65,127
35605,note_on,1,0,0,,3,,,63,127
35704,note_off,99,0,0,,3,,,63,127
35704,note_off,0,0,0,,0,,,72,127
35705,note_on,1,0,0,,2,,,62,127
35705,note_on,0,0,0,,5,,,77,127
35804,note_off,99,0,0,,2,,,62,127
35805,note_on,1,0,0,,0,,,60,127
35904,note_off,99,0,0,,0,,,60,127
35905,note_on,1,0,0,,12,,,59,127
36004,note_off,99,0,0,,12,,,59,127
36005,note_on,1,0,0,,10,,,57,127
36104,note_off,99,0,0,,10,,,57,127
36105,note_on,1,0,0,,7,,,43,127
36105,note_on,0,0,0,,7,,,55,127
36204,note_off,99,0,0,,5,,,77,127
36205,note_on,1,0,0,,5,,,77,127
36304,note_off,99,0,0,,5,,,77,127
36305,note_on,1,0,0,,3,,,75,127
36404,note_off,99,0,0,,3,,,75,127
36405,note_on,1,0,0,,2,,,74,127
36504,note_off,99,0,0,,2,,,74,127
36505,note_on,1,0,0,,7,,,79,127
36604,note_off,99,0,0,,7,,,55,127
36604,note_off,0,0,0,,7,,,43,127
36605,note_on,1,0,0,,5,,,53,127
36704,note_off,99,0,0,,5,,,53,127
36705,note_on,1,0,0,,3,,,51,127
36804,note_off,99,0,0,,3,,,51,127
36805,note_on,1,0,0,,2,,,50,127
36904,note_off,99,0,0,,2,,,50,127
36904,note_off,0,0,0,,7,,,79,127
36905,note_on,1,0,0,,0,,,48,127
36905,note_on,0,0,0,,0,,,84,127
37004,note_off,99,0,0,,0,,,48,127
37005,note_on,1,0,0,,11,,,46,127
37104,note_off,99,0,0,,11,,,46,127
37105,note_on,1,0,0,,8,,,44,127
37204,note_off,99,0,0,,8,,,44,127
37205,note_on,1,0,0,,7,,,43,127
37304,note_off,99,0,0,,7,,,43,127
37305,note_on,1,0,0,,5,,,41,127
37305,note_on,0,0,0,,5,,,53,127
37404,note_off,99,0,0,,0,,,84,127
37405,note_on,1,0,0,,8,,,80,127
37504,note_off,99,0,0,,8,,,80,127
37505,note_on,1,0,0,,7,,,79,127
37604,note_off,99,0,0,,7,,,79,127
37605,note_on,1,0,0,,5,,,77,127
37704,note_off,99,0,0,,5,,,77,127
37704,note_off,0,0,0,,5,,,53,127
37704,note_off,0,0,0,,5,,,41,127
37705,note_on,1,0,0,,7,,,55,127
37705,note_on,0,0,0,,3,,,75,127
37804,note_off,99,0,0,,3,,,75,127
37805,note_on,1,0,0,,5,,,77,127
37904,note_off,99,0,0,,5,,,77,127
37905,note_on,1,0,0,,7,,,79,127
38004,note_off,99,0,0,,7,,,79,127
38005,note_on,1,0,0,,0,,,72,127
38104,note_off,99,0,0,,0,,,72,127
38105,note_on,1,0,0,,7,,,43,127
38105,note_on,0,0,0,,2,,,74,127
38204,note_off,99,0,0,,2,,,74,127
38205,note_on,1,0,0,,3,,,75,127
38304,note_off,99,0,0,,3,,,75,127
38305,note_on,1,0,0,,5,,,77,127
38404,note_off,99,0,0,,5,,,77,127
38405,note_on,1,0,0,,12,,,71,127
38504,note_off,99,0,0,,7,,,43,127
38504,note_off,0,0,0,,7,,,55,127
38505,note_off,1,0,0,,12,,,71,127
38505,note_on,0,0,0,,8,,,56,127
38505,note_on,0,0,0,,8,,,68,127
38605,note_on,100,0,0,,2,,,74,127
38704,note_off,99,0,0,,2,,,74,127
38705,note_on,1,0,0,,0,,,72,127
38804,note_off,99,0,0,,0,,,72,127
38805,note_on,1,0,0,,12,,,71,127
38904,note_off,99,0,0,,12,,,71,127
38905,note_on,1,0,0,,0,,,72,127
39004,note_off,99,0,0,,8,,,68,127
39004,note_off,0,0,0,,8,,,56,127
39005,note_on,1,0,0,,7,,,67,127
39104,note_off,99,0,0,,7,,,67,127
39105,note_on,1,0,0,,5,,,65,127
39204,note_off,99,0,0,,5,,,65,127
39205,note_on,1,0,0,,3,,,63,127
39304,note_off,99,0,0,,3,,,63,127
39304,note_off,0,0,0,,0,,,72,127
39305,note_on,1,0,0,,2,,,62,127
39305,note_on,0,0,0,,5,,,77,127
39404,note_off,99,0,0,,2,,,62,127
39405,note_on,1,0,0,,0,,,60,127
39504,note_off,99,0,0,,0,,,60,127
39505,note_on,1,0,0,,12,,,59,127
39604,note_off,99,0,0,,12,,,59,127
39605,note_on,1,0,0,,10,,,57,127
39704,note_off,99,0,0,,10,,,57,127
39705,note_on,1,0,0,,7,,,55,127
39804,note_off,99,0,0,,5,,,77,127
39805,note_on,1,0,0,,5,,,77,127
39904,note_off,99,0,0,,5,,,77,127
39905,note_on,1,0,0,,3,,,75,127
40004,note_off,99,0,0,,3,,,75,127
40005,note_on,1,0,0,,2,,,74,127
40104,note_off,99,0,0,,2,,,74,127
40105,note_on,1,0,0,,3,,,75,127
40204,note_off,99,0,0,,7,,,55,127
40205,note_on,1,0,0,,5,,,53,127
40304,note_off,99,0,0,,5,,,53,127
40305,note_on,1,0,0,,3,,,51,127
40404,note_off,99,0,0,,3,,,51,127
40405,note_on,1,0,0,,2,,,50,127
40504,note_off,99,0,0,,2,,,50,127
40504,note_off,0,0,0,,3,,,75,127
40505,note_on,1,0,0,,0,,,48,127
40505,note_on,0,0,0,,0,,,84,127
40604,note_off,99,0,0,,0,,,48,127
40605,note_on,1,0,0,,11,,,46,127
40704,note_off,99,0,0,,11,,,46,127
40705,note_on,1,0,0,,8,,,44,127
40804,note_off,99,0,0,,8,,,44,127
40805,note_on,1,0,0,,7,,,43,127
40904,note_off,99,0,0,,7,,,43,127
40905,note_on,1,0,0,,5,,,41,127
40905,note_on,0,0,0,,5,,,53,127
41004,note_off,99,0,0,,0,,,84,127
41005,note_on,1,0,0,,8,,,80,127
41104,note_off,99,0,0,,8,,,80,127
41105,note_on,1,0,0,,7,,,79,127
41204,note_off,99,0,0,,7,,,79,127
41205,note_on,1,0,0,,5,,,77,127
41304,note_off,99,0,0,,5,,,77,127
41304,note_off,0,0,0,,5,,,53,127
41304,note_off,0,0,0,,5,,,41,127
41305,note_on,1,0,0,,7,,,55,127
41305,note_on,0,0,0,,3,,,75,127
41404,note_off,99,0,0,,3,,,75,127
41405,note_on,1,0,0,,5,,,77,127
41504,note_off,99,0,0,,5,,,77,127
41505,note_on,1,0,0,,7,,,79,127
41604,note_off,99,0,0,,7,,,79,127
41605,note_on,1,0,0,,0,,,72,127
41704,note_off,99,0,0,,0,,,72,127
41705,note_on,1,0,0,,7,,,43,127
41705,note_on,0,0,0,,2,,,74,127
41804,note_off,99,0,0,,2,,,74,127
41805,note_on,1,0,0,,3,,,75,127
41904,note_off,99,0,0,,3,,,75,127
41905,note_on,1,0,0,,5,,,77,127
42004,note_off,99,0,0,,5,,,77,127
42005,note_on,1,0,0,,12,,,71,127
42104,note_off,99,0,0,,12,,,71,127
42104,note_off,0,0,0,,7,,,43,127
42104,note_off,0,0,0,,7,,,55,127
42105,note_on,1,0,0,,0,,,48,127
42105,note_on,0,0,0,,0,,,72,127
42204,note_off,99,0,0,,0,,,72,127
42205,note_on,1,0,0,,2,,,74,127
42304,note_off,99,0,0,,2,,,74,127
42305,note_on,1,0,0,,3,,,75,127
42404,note_off,99,0,0,,3,,,75,127
42405,note_on,1,0,0,,7,,,67,127
42504,note_off,99,0,0,,7,,,67,127
42504,note_off,0,0,0,,0,,,48,127
42505,note_on,1,0,0,,5,,,41,127
42505,note_on,0,0,0,,8,,,68,127
42604,note_off,99,0,0,,8,,,68,127
42605,note_on,1,0,0,,12,,,71,127
42704,note_off,99,0,0,,12,,,71,127
42705,note_on,1,0,0,,0,,,72,127
42804,note_off,99,0,0,,0,,,72,127
42805,note_on,1,0,0,,2,,,62,127
42904,note_off,99,0,0,,2,,,62,127
42904,note_off,0,0,0,,5,,,41,127
42905,note_on,1,0,0,,7,,,43,127
42905,note_on,0,0,0,,3,,,63,127
43004,note_off,99,0,0,,3,,,63,127
43005,note_on,1,0,0,,5,,,65,127
43104,note_off,99,0,0,,5,,,65,127
43105,note_on,1,0,0,,7,,,67,127
43204,note_off,99,0,0,,7,,,67,127
43205,note_on,1,0,0,,12,,,59,127
43304,note_off,99,0,0,,12,,,59,127
43304,note_off,0,0,0,,7,,,43,127
43305,note_on,1,0,0,,0,,,36,127
43305,note_on,0,0,0,,0,,,48,127
43305,note_on,0,0,0,,12,,,59,127
43706,note_off,401,0,0,,12,,,59,127
43706,note_on,0,0,0,,0,,,60,127
44506,note_off,800,0,0,,0,,,48,127
44506,note_off,0,0,0,,0,,,36,127
44507,note_off,1,0,0,,0,,,60,127
44507,note_on,0,0,0,,0,,,48,127
44707,note_on,200,0,0,,4,,,64,127
44806,note_off,99,0,0,,4,,,64,127
44807,note_on,1,0,0,,0,,,72,127
44807,note_on,0,0,0,,4,,,76,127
44906,note_off,99,0,0,,4,,,76,127
44906,note_off,0,0,0,,0,,,72,127
44906,note_off,0,0,0,,0,,,48,127
44907,note_on,1,0,0,,0,,,60,127
44907,note_on,0,0,0,,4,,,64,127
45106,note_off,199,0,0,,4,,,64,127
45107,note_on,1,0,0,,4,,,76,127
45107,note_on,0,0,0,,0,,,72,127
45306,note_off,199,0,0,,0,,,72,127
45306,note_off,0,0,0,,4,,,76,127
45306,note_off,0,0,0,,0,,,60,127
45307,note_on,1,0,0,,11,,,58,127
45307,note_on,0,0,0,,4,,,64,127
45506,note_off,199,0,0,,4,,,64,127
45507,note_on,1,0,0,,0,,,72,127
45507,note_on,0,0,0,,4,,,76,127
45706,note_off,199,0,0,,11,,,58,127
45707,note_on,1,0,0,,8,,,56,127
45861,note_off,154,0,0,,4,,,76,127
45861,note_off,0,0,0,,0,,,72,127
45907,note_on,46,0,0,,5,,,65,127
46006,note_off,99,0,0,,5,,,65,127
46007,note_on,1,0,0,,1,,,73,127
46007,note_on,0,0,0,,5,,,77,127
46106,note_off,99,0,0,,5,,,77,127
46106,note_off,0,0,0,,1,,,73,127
46106,note_off,0,0,0,,8,,,56,127
46107,note_on,1,0,0,,7,,,55,127
46107,note_on,0,0,0,,5,,,65,127
46306,note_off,199,0,0,,5,,,65,127
46307,note_on,1,0,0,,1,,,73,127
46307,note_on,0,0,0,,5,,,77,127
46506,note_off,199,0,0,,5,,,77,127
46506,note_off,0,0,0,,1,,,73,127
46506,note_off,0,0,0,,7,,,55,127
46507,note_on,1,0,0,,5,,,53,127
46507,note_on,0,0,0,,5,,,65,127
46706,note_off,199,0,0,,5,,,65,127
46707,note_on,1,0,0,,1,,,73,127
46707,note_on,0,0,0,,5,,,77,127
46906,note_off,199,0,0,,5,,,53,127
46907,note_on,1,0,0,,3,,,39,127
47061,note_off,154,0,0,,5,,,77,127
47061,note_off,0,0,0,,1,,,73,127
47107,note_on,46,0,0,,7,,,67,127
47206,note_off,99,0,0,,7,,,67,127
47207,note_on,1,0,0,,3,,,75,127
47207,note_on,0,0,0,,7,,,79,127
47306,note_off,99,0,0,,7,,,79,127
47306,note_off,0,0,0,,3,,,75,127
47306,note_off,0,0,0,,3,,,39,127
47307,note_on,1,0,0,,3,,,51,127
47307,note_on,0,0,0,,7,,,67,127
47506,note_off,199,0,0,,7,,,67,127
47507,note_on,1,0,0,,7,,,79,127
47507,note_on,0,0,0,,3,,,75,127
47706,note_off,199,0,0,,3,,,75,127
47706,note_off,0,0,0,,7,,,79,127
47706,note_off,0,0,0,,3,,,51,127
47707,note_on,1,0,0,,3,,,39,127
47707,note_on,0,0,0,,7,,,67,127
47906,note_off,199,0,0,,7,,,67,127
47907,note_on,1,0,0,,3,,,75,127
47907,note_on,0,0,0,,7,,,79,127
48106,note_off,199,0,0,,7,,,79,127
48106,note_off,0,0,0,,3,,,75,127
48107,note_on,1,0,0,,0,,,84,127
48107,note_on,0,0,0,,8,,,80,127
48107,note_on,0,0,0,,0,,,72,127
48124,note_off,17,0,0,,3,,,39,127
48308,note_on,184,0,0,,8,,,56,127
48407,note_off,99,0,0,,8,,,56,127
48408,note_on,1,0,0,,8,,,68,127
48507,note_off,99,0,0,,8,,,68,127
48508,note_on,1,0,0,,8,,,56,127
48707,note_off,199,0,0,,8,,,56,127
48708,note_on,1,0,0,,8,,,68,127
48907,note_off,199,0,0,,8,,,68,127
48908,note_on,1,0,0,,8,,,56,127
49107,note_off,199,0,0,,8,,,56,127
49107,note_off,0,0,0,,0,,,72,127
49107,note_off,0,0,0,,8,,,80,127
49107,note_off,0,0,0,,0,,,84,127
49108,note_on,1,0,0,,8,,,68,127
49108,note_on,0,0,0,,0,,,84,127
49108,note_on,0,0,0,,8,,,80,127
49307,note_off,199,0,0,,8,,,80,127
49307,note_off,0,0,0,,0,,,84,127
49307,note_off,0,0,0,,8,,,68,127
49308,note_on,1,0,0,,1,,,61,127
49308,note_on,0,0,0,,1,,,73,127
49308,note_on,0,0,0,,11,,,82,127
49308,note_on,0,0,0,,1,,,85,127
49507,note_off,199,0,0,,1,,,85,127
49507,note_off,0,0,0,,11,,,82,127
49507,note_off,0,0,0,,1,,,73,127
49507,note_off,0,0,0,,1,,,61,127
49508,note_on,1,0,0,,8,,,56,127
49508,note_on,0,0,0,,8,,,80,127
49508,note_on,0,0,0,,0,,,84,127
49607,note_off,99,0,0,,8,,,56,127
49608,note_on,1,0,0,,8,,,68,127
49707,note_off,99,0,0,,8,,,68,127
49708,note_on,1,0,0,,8,,,56,127
49907,note_off,199,0,0,,8,,,56,127
49908,note_on,1,0,0,,8,,,68,127
50107,note_off,199,0,0,,8,,,68,127
50108,note_on,1,0,0,,8,,,56,127
50307,note_off,199,0,0,,8,,,56,127
50307,note_off,0,0,0,,0,,,84,127
50307,note_off,0,0,0,,8,,,80,127
50308,note_on,1,0,0,,8,,,68,127
50308,note_on,0,0,0,,0,,,84,127
50308,note_on,0,0,0,,3,,,75,127
50507,note_off,199,0,0,,3,,,75,127
50507,note_off,0,0,0,,0,,,84,127
50507,note_off,0,0,0,,8,,,68,127
50508,note_on,1,0,0,,3,,,63,127
50508,note_on,0,0,0,,3,,,51,127
50508,note_on,0,0,0,,11,,,82,127
50508,note_on,0,0,0,,1,,,73,127
50707,note_off,199,0,0,,1,,,73,127
50707,note_off,0,0,0,,11,,,82,127
50707,note_off,0,0,0,,3,,,51,127
50707,note_off,0,0,0,,3,,,63,127
50708,note_on,1,0,0,,8,,,56,127
50708,note_on,0,0,0,,8,,,80,127
50708,note_on,0,0,0,,0,,,72,127
50807,note_off,99,0,0,,8,,,56,127
50808,note_on,1,0,0,,8,,,68,127
50907,note_off,99,0,0,,8,,,68,127
50908,note_on,1,0,0,,8,,,56,127
51107,note_off,199,0,0,,8,,,56,127
51108,note_on,1,0,0,,8,,,68,127
51307,note_off,199,0,0,,8,,,68,127
51308,note_on,1,0,0,,8,,,56,127
51507,note_off,199,0,0,,8,,,56,127
51507,note_off,0,0,0,,0,,,72,127
51507,note_off,0,0,0,,8,,,80,127
51508,note_on,1,0,0,,8,,,68,127
51508,note_on,0,0,0,,8,,,80,127
51508,note_on,0,0,0,,0,,,84,127
51707,note_off,199,0,0,,0,,,84,127
51707,note_off,0,0,0,,8,,,80,127
51707,note_off,0,0,0,,8,,,68,127
51708,note_on,1,0,0,,1,,,61,127
51708,note_on,0,0,0,,1,,,73,127
51708,note_on,0,0,0,,1,,,85,127
51708,note_on,0,0,0,,11,,,82,127
51907,note_off,199,0,0,,11,,,82,127
51907,note_off,0,0,0,,1,,,85,127
51907,note_off,0,0,0,,1,,,73,127
51907,note_off,0,0,0,,1,,,61,127
51908,note_on,1,0,0,,8,,,56,127
51908,note_on,0,0,0,,0,,,84,127
51908,note_on,0,0,0,,8,,,80,127
52007,note_off,99,0,0,,8,,,56,127
52008,note_on,1,0,0,,8,,,68,127
52107,note_off,99,0,0,,8,,,68,127
52108,note_on,1,0,0,,8,,,56,127
52307,note_off,199,0,0,,8,,,56,127
52308,note_on,1,0,0,,8,,,68,127
52507,note_off,199,0,0,,8,,,68,127
52508,note_on,1,0,0,,8,,,56,127
52707,note_off,199,0,0,,8,,,56,127
52707,note_off,0,0,0,,8,,,80,127
52707,note_off,0,0,0,,0,,,84,127
52708,note_on,1,0,0,,8,,,68,127
52708,note_on,0,0,0,,0,,,84,127
52708,note_on,0,0,0,,8,,,80,127
52907,note_off,199,0,0,,8,,,80,127
52907,note_off,0,0,0,,0,,,84,127
52907,note_off,0,0,0,,8,,,68,127
52908,note_on,1,0,0,,3,,,51,127
52908,note_on,0,0,0,,11,,,82,127
53007,note_off,99,0,0,,11,,,82,127
53008,note_on,1,0,0,,12,,,83,127
53107,note_off,99,0,0,,12,,,83,127
53108,note_on,1,0,0,,11,,,82,127
53207,note_off,99,0,0,,11,,,82,127
53208,note_on,1,0,0,,8,,,80,127
53307,note_off,99,0,0,,8,,,80,127
53307,note_off,0,0,0,,3,,,51,127
53308,note_on,1,0,0,,3,,,63,127
53308,note_on,0,0,0,,6,,,78,127
53407,note_off,99,0,0,,6,,,78,127
53408,note_on,1,0,0,,5,,,77,127
53507,note_off,99,0,0,,5,,,77,127
53508,note_on,1,0,0,,3,,,75,127
53607,note_off,99,0,0,,3,,,75,127
53608,note_on,1,0,0,,1,,,73,127
53707,note_off,99,0,0,,1,,,73,127
53707,note_off,0,0,0,,3,,,63,127
53708,note_on,1,0,0,,6,,,66,127
53708,note_on,0,0,0,,0,,,72,127
53807,note_off,99,0,0,,0,,,72,127
53808,note_on,1,0,0,,11,,,70,127
53907,note_off,99,0,0,,11,,,70,127
53908,note_on,1,0,0,,10,,,69,127
54007,note_off,99,0,0,,10,,,69,127
54008,note_on,1,0,0,,11,,,70,127
54107,note_off,99,0,0,,11,,,70,127
54108,note_on,1,0,0,,10,,,69,127
54207,note_off,99,0,0,,6,,,66,127
54208,note_off,1,0,0,,10,,,69,127
54208,note_on,0,0,0,,5,,,65,127
54307,note_off,99,0,0,,5,,,65,127
54308,note_on,1,0,0,,3,,,63,127
54407,note_off,99,0,0,,3,,,63,127
54408,note_on,1,0,0,,1,,,61,127
54507,note_off,99,0,0,,1,,,61,127
54508,note_on,1,0,0,,0,,,60,127
54607,note_off,99,0,0,,0,,,60,127
54608,note_on,1,0,0,,11,,,58,127
54707,note_off,99,0,0,,11,,,58,127
54708,note_on,1,0,0,,10,,,57,127
54807,note_off,99,0,0,,10,,,57,127
54808,note_on,1,0,0,,6,,,54,127
54907,note_off,99,0,0,,6,,,54,127
54908,note_on,1,0,0,,5,,,53,127
55007,note_off,99,0,0,,5,,,53,127
55008,note_on,1,0,0,,3,,,51,127
55107,note_off,99,0,0,,3,,,51,127
55108,note_on,1,0,0,,1,,,49,127
55207,note_off,99,0,0,,1,,,49,127
55208,note_on,1,0,0,,0,,,48,127
55307,note_off,99,0,0,,0,,,48,127
55308,note_on,1,0,0,,11,,,46,127
55508,note_on,200,0,0,,1,,,61,127
55607,note_off,99,0,0,,1,,,61,127
55608,note_on,1,0,0,,11,,,70,127
55608,note_on,0,0,0,,1,,,73,127
55707,note_off,99,0,0,,1,,,73,127
55707,note_off,0,0,0,,11,,,70,127
55707,note_off,0,0,0,,11,,,46,127
55708,note_on,1,0,0,,11,,,58,127
55708,note_on,0,0,0,,1,,,61,127
55907,note_off,199,0,0,,1,,,61,127
55908,note_on,1,0,0,,11,,,70,127
55908,note_on,0,0,0,,1,,,73,127
56107,note_off,199,0,0,,1,,,73,127
56107,note_off,0,0,0,,11,,,70,127
56107,note_off,0,0,0,,11,,,58,127
56108,note_on,1,0,0,,8,,,56,127
56108,note_on,0,0,0,,1,,,61,127
56307,note_off,199,0,0,,1,,,61,127
56308,note_on,1,0,0,,2,,,74,127
56308,note_on,0,0,0,,11,,,70,127
56507,note_off,199,0,0,,8,,,56,127
56508,note_on,1,0,0,,6,,,54,127
56662,note_off,154,0,0,,11,,,70,127
56662,note_off,0,0,0,,2,,,74,127
56708,note_on,46,0,0,,3,,,63,127
56807,note_off,99,0,0,,3,,,63,127
56808,note_on,1,0,0,,3,,,75,127
56808,note_on,0,0,0,,0,,,72,127
56907,note_off,99,0,0,,0,,,72,127
56907,note_off,0,0,0,,3,,,75,127
56907,note_off,0,0,0,,6,,,54,127
56908,note_on,1,0,0,,8,,,56,127
56908,note_on,0,0,0,,3,,,63,127
57107,note_off,199,0,0,,3,,,63,127
57108,note_on,1,0,0,,3,,,75,127
57108,note_on,0,0,0,,0,,,72,127
57307,note_off,199,0,0,,0,,,72,127
57307,note_off,0,0,0,,3,,,75,127
57307,note_off,0,0,0,,8,,,56,127
57308,note_on,1,0,0,,8,,,44,127
57308,note_on,0,0,0,,3,,,63,127
57507,note_off,199,0,0,,3,,,63,127
57508,note_on,1,0,0,,0,,,72,127
57508,note_on,0,0,0,,4,,,76,127
57707,note_off,199,0,0,,8,,,44,127
57708,note_on,1,0,0,,1,,,49,127
57862,note_off,154,0,0,,4,,,76,127
57862,note_off,0,0,0,,0,,,72,127
57908,note_on,46,0,0,,5,,,65,127
58007,note_off,99,0,0,,5,,,65,127
58008,note_on,1,0,0,,1,,,73,127
58008,note_on,0,0,0,,5,,,77,127
58107,note_off,99,0,0,,5,,,77,127
58107,note_off,0,0,0,,1,,,73,127
58107,note_off,0,0,0,,1,,,49,127
58108,note_on,1,0,0,,1,,,61,127
58108,note_on,0,0,0,,5,,,65,127
58307,note_off,199,0,0,,5,,,65,127
58308,note_on,1,0,0,,5,,,77,127
58308,note_on,0,0,0,,1,,,73,127
58507,note_off,199,0,0,,1,,,73,127
58507,note_off,0,0,0,,5,,,77,127
58507,note_off,0,0,0,,1,,,61,127
58508,note_on,1,0,0,,0,,,60,127
58508,note_on,0,0,0,,5,,,65,127
58707,note_off,199,0,0,,5,,,65,127
58708,note_on,1,0,0,,1,,,73,127
58708,note_on,0,0,0,,5,,,77,127
58907,note_off,199,0,0,,0,,,60,127
58908,note_on,1,0,0,,11,,,58,127
59062,note_off,154,0,0,,5,,,77,127
59062,note_off,0,0,0,,1,,,73,127
59108,note_on,46,0,0,,7,,,67,127
59207,note_off,99,0,0,,7,,,67,127
59208,note_on,1,0,0,,4,,,76,127
59208,note_on,0,0,0,,7,,,79,127
59307,note_off,99,0,0,,7,,,79,127
59307,note_off,0,0,0,,4,,,76,127
59307,note_off,0,0,0,,11,,,58,127
59308,note_on,1,0,0,,0,,,60,127
59308,note_on,0,0,0,,7,,,67,127
59507,note_off,199,0,0,,7,,,67,127
59508,note_on,1,0,0,,4,,,76,127
59508,note_on,0,0,0,,7,,,79,127
59707,note_off,199,0,0,,7,,,79,127
59707,note_off,0,0,0,,4,,,76,127
59707,note_off,0,0,0,,0,,,60,127
59708,note_on,1,0,0,,0,,,48,127
59708,note_on,0,0,0,,7,,,67,127
59907,note_off,199,0,0,,7,,,67,127
59908,note_on,1,0,0,,7,,,79,127
59908,note_on,0,0,0,,4,,,76,127
60107,note_off,199,0,0,,0,,,48,127
60108,note_on,1,0,0,,5,,,53,127
60262,note_off,154,0,0,,4,,,76,127
60262,note_off,0,0,0,,7,,,79,127
60308,note_on,46,0,0,,8,,,68,127
60407,note_off,99,0,0,,8,,,68,127
60408,note_on,1,0,0,,8,,,80,127
60408,note_on,0,0,0,,5,,,77,127
60507,note_off,99,0,0,,5,,,77,127
60507,note_off,0,0,0,,8,,,80,127
60507,note_off,0,0,0,,5,,,53,127
60508,note_on,1,0,0,,5,,,65,127
60508,note_on,0,0,0,,8,,,68,127
60707,note_off,199,0,0,,8,,,68,127
60708,note_on,1,0,0,,8,,,80,127
60708,note_on,0,0,0,,5,,,77,127
60907,note_off,199,0,0,,5,,,77,127
60907,note_off,0,0,0,,8,,,80,127
60907,note_off,0,0,0,,5,,,65,127
60908,note_on,1,0,0,,3,,,63,127
60908,note_on,0,0,0,,8,,,68,127
61107,note_off,199,0,0,,8,,,68,127
61108,note_on,1,0,0,,5,,,77,127
61108,note_on,0,0,0,,10,,,81,127
61307,note_off,199,0,0,,3,,,63,127
61308,note_on,1,0,0,,1,,,61,127
61462,note_off,154,0,0,,10,,,81,127
61462,note_off,0,0,0,,5,,,77,127
61508,note_on,46,0,0,,11,,,70,127
61607,note_off,99,0,0,,11,,,70,127
61608,note_on,1,0,0,,11,,,82,127
61608,note_on,0,0,0,,7,,,79,127
61707,note_off,99,0,0,,7,,,79,127
61707,note_off,0,0,0,,11,,,82,127
61707,note_off,0,0,0,,1,,,61,127
61708,note_on,1,0,0,,3,,,63,127
61708,note_on,0,0,0,,11,,,70,127
61907,note_off,199,0,0,,11,,,70,127
61908,note_on,1,0,0,,11,,,82,127
61908,note_on,0,0,0,,7,,,79,127
62107,note_off,199,0,0,,7,,,79,127
62107,note_off,0,0,0,,11,,,82,127
62107,note_off,0,0,0,,3,,,63,127
62108,note_on,1,0,0,,3,,,51,127
62108,note_on,0,0,0,,11,,,70,127
62307,note_off,199,0,0,,11,,,70,127
62308,note_on,1,0,0,,7,,,79,127
62308,note_on,0,0,0,,12,,,83,127
62507,note_off,199,0,0,,12,,,83,127
62507,note_off,0,0,0,,7,,,79,127
62507,note_off,0,0,0,,3,,,51,127
62508,note_on,1,0,0,,8,,,56,127
62508,note_on,0,0,0,,0,,,72,127
62707,note_off,199,0,0,,0,,,72,127
62708,note_on,1,0,0,,0,,,84,127
62907,note_off,199,0,0,,8,,,56,127
62908,note_on,1,0,0,,5,,,65,127
63107,note_off,199,0,0,,0,,,84,127
63108,note_on,1,0,0,,11,,,82,127
63207,note_off,99,0,0,,11,,,82,127
63208,note_on,1,0,0,,8,,,80,127
63307,note_off,99,0,0,,8,,,80,127
63307,note_off,0,0,0,,5,,,65,127
63308,note_on,1,0,0,,11,,,58,127
63308,note_on,0,0,0,,7,,,79,127
63507,note_off,199,0,0,,7,,,79,127
63508,note_on,1,0,0,,5,,,77,127
63707,note_off,199,0,0,,5,,,77,127
63707,note_off,0,0,0,,11,,,58,127
63708,note_on,1,0,0,,0,,,72,127
63708,note_on,0,0,0,,0,,,60,127
63708,note_on,0,0,0,,4,,,76,127
64108,note_off,400,0,0,,4,,,76,127
64108,note_off,0,0,0,,0,,,60,127
64108,note_off,0,0,0,,0,,,72,127
64109,note_on,1,0,0,,1,,,61,127
64109,note_on,0,0,0,,7,,,79,127
64175,note_off,66,0,0,,7,,,79,127
64176,note_on,1,0,0,,5,,,77,127
64242,note_off,66,0,0,,5,,,77,127
64243,note_on,1,0,0,,7,,,79,127
64309,note_off,66,0,0,,7,,,79,127
64310,note_on,1,0,0,,5,,,77,127
64376,note_off,66,0,0,,5,,,77,127
64377,note_on,1,0,0,,7,,,79,127
64443,note_off,66,0,0,,7,,,79,127
64444,note_on,1,0,0,,5,,,77,127
64510,note_off,66,0,0,,5,,,77,127
64510,note_off,0,0,0,,1,,,61,127
64511,note_on,1,0,0,,11,,,70,127
64511,note_on,0,0,0,,7,,,79,127
64577,note_off,66,0,0,,7,,,79,127
64578,note_on,1,0,0,,5,,,77,127
64644,note_off,66,0,0,,5,,,77,127
64645,note_on,1,0,0,,7,,,79,127
64711,note_off,66,0,0,,7,,,79,127
64712,note_on,1,0,0,,5,,,77,127
64778,note_off,66,0,0,,5,,,77,127
64779,note_on,1,0,0,,4,,,76,127
64845,note_off,66,0,0,,4,,,76,127
64846,note_on,1,0,0,,5,,,77,127
64912,note_off,66,0,0,,5,,,77,127
64912,note_off,0,0,0,,11,,,70,127
64913,note_on,1,0,0,,0,,,36,127
64913,note_on,0,0,0,,7,,,79,127
65112,note_off,199,0,0,,7,,,79,127
65113,note_on,1,0,0,,0,,,60,127
65212,note_off,99,0,0,,0,,,60,127
65213,note_on,1,0,0,,0,,,72,127
65312,note_off,99,0,0,,0,,,72,127
65312,note_off,0,0,0,,0,,,36,127
65313,note_on,1,0,0,,0,,,48,127
65313,note_on,0,0,0,,0,,,60,127
65512,note_off,199,0,0,,0,,,60,127
65513,note_on,1,0,0,,0,,,72,127
65712,note_off,199,0,0,,0,,,72,127
65712,note_off,0,0,0,,0,,,48,127
65713,note_on,1,0,0,,11,,,46,127
65713,note_on,0,0,0,,0,,,60,127
65912,note_off,199,0,0,,0,,,60,127
65913,note_on,1,0,0,,0,,,72,127
66112,note_off,199,0,0,,0,,,72,127
66112,note_off,0,0,0,,11,,,46,127
66113,note_on,1,0,0,,8,,,44,127
66113,note_on,0,0,0,,5,,,65,127
66113,note_on,0,0,0,,5,,,77,127
66312,note_off,199,0,0,,5,,,77,127
66312,note_off,0,0,0,,5,,,65,127
66313,note_on,1,0,0,,0,,,60,127
66412,note_off,99,0,0,,0,,,60,127
66413,note_on,1,0,0,,0,,,72,127
66512,note_off,99,0,0,,0,,,72,127
66512,note_off,0,0,0,,8,,,44,127
66513,note_on,1,0,0,,7,,,43,127
66513,note_on,0,0,0,,0,,,60,127
66712,note_off,199,0,0,,0,,,60,127
66713,note_on,1,0,0,,0,,,72,127
66912,note_off,199,0,0,,0,,,72,127
66912,note_off,0,0,0,,7,,,43,127
66913,note_on,1,0,0,,5,,,41,127
66913,note_on,0,0,0,,0,,,60,127
67112,note_off,199,0,0,,0,,,60,127
67113,note_on,1,0,0,,0,,,72,127
67312,note_off,199,0,0,,0,,,72,127
67312,note_off,0,0,0,,5,,,41,127
67313,note_on,1,0,0,,4,,,40,127
67313,note_on,0,0,0,,7,,,79,127
67313,note_on,0,0,0,,7,,,67,127
67512,note_off,199,0,0,,7,,,67,127
67512,note_off,0,0,0,,7,,,79,127
67513,note_on,1,0,0,,0,,,60,127
67612,note_off,99,0,0,,0,,,60,127
67613,note_on,1,0,0,,0,,,72,127
67712,note_off,99,0,0,,0,,,72,127
67712,note_off,0,0,0,,4,,,40,127
67713,note_on,1,0,0,,2,,,38,127
67713,note_on,0,0,0,,0,,,60,127
67912,note_off,199,0,0,,0,,,60,127
67913,note_on,1,0,0,,0,,,72,127
68112,note_off,199,0,0,,0,,,72,127
68112,note_off,0,0,0,,2,,,38,127
68113,note_on,1,0,0,,0,,,36,127
68113,note_on,0,0,0,,0,,,60,127
68312,note_off,199,0,0,,0,,,60,127
68313,note_on,1,0,0,,0,,,72,127
68512,note_off,199,0,0,,0,,,72,127
68512,note_off,0,0,0,,0,,,36,127
68513,note_on,1,0,0,,5,,,41,127
68513,note_on,0,0,0,,8,,,68,127
68513,note_on,0,0,0,,8,,,80,127
68712,note_off,199,0,0,,8,,,80,127
68712,note_off,0,0,0,,8,,,68,127
68713,note_on,1,0,0,,0,,,60,127
68812,note_off,99,0,0,,0,,,60,127
68813,note_on,1,0,0,,0,,,72,127
68912,note_off,99,0,0,,0,,,72,127
68912,note_off,0,0,0,,5,,,41,127
68913,note_on,1,0,0,,0,,,48,127
68913,note_on,0,0,0,,0,,,60,127
69112,note_off,199,0,0,,0,,,60,127
69113,note_on,1,0,0,,0,,,72,127
69312,note_off,199,0,0,,0,,,72,127
69312,note_off,0,0,0,,0,,,48,127
69313,note_on,1,0,0,,5,,,53,127
69313,note_on,0,0,0,,0,,,60,127
69512,note_off,199,0,0,,0,,,60,127
69513,note_on,1,0,0,,0,,,72,127
69712,note_off,199,0,0,,0,,,72,127
69712,note_off,0,0,0,,5,,,53,127
69713,note_on,1,0,0,,7,,,43,127
69713,note_on,0,0,0,,11,,,82,127
69713,note_on,0,0,0,,11,,,70,127
69912,note_off,199,0,0,,11,,,70,127
69912,note_off,0,0,0,,11,,,82,127
69913,note_on,1,0,0,,0,,,60,127
70012,note_off,99,0,0,,0,,,60,127
70013,note_on,1,0,0,,0,,,72,127
70112,note_off,99,0,0,,0,,,72,127
70112,note_off,0,0,0,,7,,,43,127
70113,note_on,1,0,0,,11,,,46,127
70113,note_on,0,0,0,,0,,,60,127
70312,note_off,199,0,0,,0,,,60,127
70313,note_on,1,0,0,,0,,,72,127
70512,note_off,199,0,0,,0,,,72,127
70512,note_off,0,0,0,,11,,,46,127
70513,note_on,1,0,0,,4,,,52,127
70513,note_on,0,0,0,,0,,,60,127
70712,note_off,199,0,0,,0,,,60,127
70713,note_on,1,0,0,,0,,,72,127
70912,note_off,199,0,0,,0,,,72,127
70912,note_off,0,0,0,,4,,,52,127
70913,note_on,1,0,0,,8,,,44,127
70913,note_on,0,0,0,,0,,,84,127
71012,note_off,99,0,0,,0,,,84,127
71013,note_on,1,0,0,,11,,,82,127
71112,note_off,99,0,0,,11,,,82,127
71113,note_on,1,0,0,,8,,,80,127
71212,note_off,99,0,0,,8,,,80,127
71213,note_on,1,0,0,,7,,,79,127
71312,note_off,99,0,0,,7,,,79,127
71312,note_off,0,0,0,,8,,,44,127
71313,note_on,1,0,0,,11,,,46,127
71313,note_on,0,0,0,,5,,,77,127
71412,note_off,99,0,0,,5,,,77,127
71413,note_on,1,0,0,,3,,,75,127
71512,note_off,99,0,0,,3,,,75,127
71513,note_on,1,0,0,,1,,,73,127
71612,note_off,99,0,0,,1,,,73,127
71613,note_on,1,0,0,,0,,,72,127
71712,note_off,99,0,0,,0,,,72,127
71712,note_off,0,0,0,,11,,,46,127
71713,note_on,1,0,0,,1,,,49,127
71713,note_on,0,0,0,,11,,,70,127
71812,note_off,99,0,0,,11,,,70,127
71813,note_on,1,0,0,,8,,,68,127
71912,note_off,99,0,0,,8,,,68,127
71913,note_on,1,0,0,,7,,,67,127
72012,note_off,99,0,0,,7,,,67,127
72013,note_on,1,0,0,,5,,,65,127
72109,note_off,96,0,0,,1,,,49,127
72112,note_off,3,0,0,,5,,,65,127
72113,note_on,1,0,0,,4,,,64,127
72313,note_on,200,0,0,,0,,,36,127
72412,note_off,99,0,0,,0,,,36,127
72413,note_on,1,0,0,,0,,,48,127
72512,note_off,99,0,0,,0,,,48,127
72513,note_on,1,0,0,,0,,,36,127
72712,note_off,199,0,0,,0,,,36,127
72712,note_off,0,0,0,,4,,,64,127
72713,note_on,1,0,0,,0,,,48,127
72912,note_off,199,0,0,,0,,,48,127
72913,note_on,1,0,0,,0,,,36,127
73112,note_off,199,0,0,,0,,,36,127
73113,note_on,1,0,0,,0,,,48,127
73113,note_on,0,0,0,,4,,,76,127
73113,note_on,0,0,0,,7,,,79,127
73312,note_off,199,0,0,,7,,,79,127
73312,note_off,0,0,0,,4,,,76,127
73312,note_off,0,0,0,,0,,,48,127
73313,note_on,1,0,0,,5,,,53,127
73313,note_on,0,0,0,,5,,,41,127
73313,note_on,0,0,0,,5,,,77,127
73313,note_on,0,0,0,,8,,,80,127
73512,note_off,199,0,0,,8,,,80,127
73512,note_off,0,0,0,,5,,,77,127
73512,note_off,0,0,0,,5,,,41,127
73512,note_off,0,0,0,,5,,,53,127
73513,note_on,1,0,0,,0,,,36,127
73513,note_on,0,0,0,,7,,,79,127
73513,note_on,0,0,0,,4,,,76,127
73612,note_off,99,0,0,,0,,,36,127
73613,note_on,1,0,0,,0,,,48,127
73712,note_off,99,0,0,,0,,,48,127
73713,note_on,1,0,0,,0,,,36,127
73912,note_off,199,0,0,,0,,,36,127
73913,note_on,1,0,0,,0,,,48,127
74112,note_off,199,0,0,,0,,,48,127
74112,note_off,0,0,0,,4,,,76,127
74112,note_off,0,0,0,,7,,,79,127
74113,note_on,1,0,0,,0,,,36,127
74312,note_off,199,0,0,,0,,,36,127
74313,note_on,1,0,0,,0,,,48,127
74313,note_on,0,0,0,,5,,,77,127
74313,note_on,0,0,0,,8,,,80,127
74512,note_off,199,0,0,,8,,,80,127
74512,note_off,0,0,0,,5,,,77,127
74512,note_off,0,0,0,,0,,,48,127
74513,note_on,1,0,0,,7,,,43,127
74513,note_on,0,0,0,,7,,,55,127
74513,note_on,0,0,0,,7,,,79,127
74513,note_on,0,0,0,,11,,,82,127
74712,note_off,199,0,0,,11,,,82,127
74712,note_off,0,0,0,,7,,,79,127
74712,note_off,0,0,0,,7,,,55,127
74712,note_off,0,0,0,,7,,,43,127
74713,note_on,1,0,0,,0,,,36,127
74713,note_on,0,0,0,,5,,,77,127
74713,note_on,0,0,0,,8,,,80,127
74812,note_off,99,0,0,,0,,,36,127
74813,note_on,1,0,0,,0,,,48,127
74912,note_off,99,0,0,,0,,,48,127
74913,note_on,1,0,0,,0,,,36,127
75112,note_off,199,0,0,,0,,,36,127
75113,note_on,1,0,0,,0,,,48,127
75312,note_off,199,0,0,,0,,,48,127
75312,note_off,0,0,0,,8,,,80,127
75312,note_off,0,0,0,,5,,,77,127
75313,note_on,1,0,0,,0,,,36,127
75512,note_off,199,0,0,,0,,,36,127
75513,note_on,1,0,0,,0,,,48,127
75513,note_on,0,0,0,,7,,,79,127
75513,note_on,0,0,0,,4,,,76,127
75712,note_off,199,0,0,,4,,,76,127
75712,note_off,0,0,0,,7,,,79,127
75712,note_off,0,0,0,,0,,,48,127
75713,note_on,1,0,0,,5,,,41,127
75713,note_on,0,0,0,,5,,,53,127
75713,note_on,0,0,0,,5,,,77,127
75713,note_on,0,0,0,,8,,,80,127
75912,note_off,199,0,0,,8,,,80,127
75912,note_off,0,0,0,,5,,,77,127
75912,note_off,0,0,0,,5,,,53,127
75912,note_off,0,0,0,,5,,,41,127
75913,note_on,1,0,0,,0,,,36,127
75913,note_on,0,0,0,,7,,,79,127
75913,note_on,0,0,0,,4,,,76,127
76012,note_off,99,0,0,,0,,,36,127
76013,note_on,1,0,0,,0,,,48,127
76112,note_off,99,0,0,,0,,,48,127
76113,note_on,1,0,0,,0,,,36,127
76312,note_off,199,0,0,,0,,,36,127
76313,note_on,1,0,0,,0,,,48,127
76512,note_off,199,0,0,,0,,,48,127
76512,note_off,0,0,0,,4,,,76,127
76512,note_off,0,0,0,,7,,,79,127
76513,note_on,1,0,0,,0,,,36,127
76712,note_off,199,0,0,,0,,,36,127
76713,note_on,1,0,0,,0,,,48,127
76713,note_on,0,0,0,,5,,,77,127
76713,note_on,0,0,0,,8,,,80,127
76912,note_off,199,0,0,,8,,,80,127
76912,note_off,0,0,0,,5,,,77,127
76912,note_off,0,0,0,,0,,,48,127
76913,note_on,1,0,0,,7,,,43,127
76913,note_on,0,0,0,,7,,,55,127
76913,note_on,0,0,0,,11,,,82,127
76913,note_on,0,0,0,,7,,,79,127
77112,note_off,199,0,0,,7,,,79,127
77112,note_off,0,0,0,,11,,,82,127
77112,note_off,0,0,0,,7,,,55,127
77112,note_off,0,0,0,,7,,,43,127
77113,note_on,1,0,0,,0,,,36,127
77113,note_on,0,0,0,,5,,,77,127
77113,note_on,0,0,0,,8,,,80,127
77212,note_off,99,0,0,,0,,,36,127
77213,note_on,1,0,0,,0,,,48,127
77312,note_off,99,0,0,,0,,,48,127
77313,note_on,1,0,0,,0,,,36,127
77512,note_off,199,0,0,,0,,,36,127
77513,note_on,1,0,0,,0,,,48,127
77712,note_off,199,0,0,,0,,,48,127
77712,note_off,0,0,0,,8,,,80,127
77712,note_off,0,0,0,,5,,,77,127
77713,note_on,1,0,0,,0,,,36,127
77912,note_off,199,0,0,,0,,,36,127
77913,note_on,1,0,0,,0,,,48,127
77913,note_on,0,0,0,,4,,,76,127
77913,note_on,0,0,0,,7,,,79,127
78112,note_off,199,0,0,,0,,,48,127
78113,note_on,1,0,0,,1,,,61,127
78113,note_on,0,0,0,,1,,,73,127
78212,note_off,99,0,0,,7,,,79,127
78212,note_off,0,0,0,,4,,,76,127
78213,note_on,1,0,0,,7,,,79,127
78312,note_off,99,0,0,,7,,,79,127
78313,note_on,1,0,0,,5,,,77,127
78412,note_off,99,0,0,,5,,,77,127
78413,note_on,1,0,0,,4,,,76,127
78512,note_off,99,0,0,,4,,,76,127
78513,note_on,1,0,0,,5,,,77,127
78612,note_off,99,0,0,,1,,,73,127
78612,note_off,0,0,0,,1,,,61,127
78613,note_on,1,0,0,,0,,,72,127
78712,note_off,99,0,0,,0,,,72,127
78713,note_on,1,0,0,,11,,,70,127
78812,note_off,99,0,0,,11,,,70,127
78813,note_on,1,0,0,,8,,,68,127
78912,note_off,99,0,0,,8,,,68,127
78912,note_off,0,0,0,,5,,,77,127
78913,note_on,1,0,0,,7,,,67,127
78913,note_on,0,0,0,,11,,,82,127
79012,note_off,99,0,0,,7,,,67,127
79013,note_on,1,0,0,,5,,,65,127
79112,note_off,99,0,0,,5,,,65,127
79113,note_on,1,0,0,,4,,,64,127
79212,note_off,99,0,0,,4,,,64,127
79213,note_on,1,0,0,,2,,,62,127
79312,note_off,99,0,0,,2,,,62,127
79313,note_on,1,0,0,,0,,,48,127
79313,note_on,0,0,0,,0,,,60,127
79412,note_off,99,0,0,,11,,,82,127
79413,note_on,1,0,0,,11,,,82,127
79512,note_off,99,0,0,,11,,,82,127
79513,note_on,1,0,0,,8,,,80,127
79612,note_off,99,0,0,,8,,,80,127
79613,note_on,1,0,0,,7,,,79,127
79712,note_off,99,0,0,,7,,,79,127
79713,note_on,1,0,0,,0,,,84,127
79812,note_off,99,0,0,,0,,,60,127
79812,note_off,0,0,0,,0,,,48,127
79813,note_on,1,0,0,,11,,,58,127
79912,note_off,99,0,0,,11,,,58,127
79913,note_on,1,0,0,,8,,,56,127
80012,note_off,99,0,0,,8,,,56,127
80013,note_on,1,0,0,,7,,,55,127
80112,note_off,99,0,0,,7,,,55,127
80113,note_on,1,0,0,,5,,,53,127
80212,note_off,99,0,0,,5,,,53,127
80213,note_on,1,0,0,,3,,,51,127
80312,note_off,99,0,0,,3,,,51,127
80313,note_on,1,0,0,,1,,,49,127
80412,note_off,99,0,0,,1,,,49,127
80413,note_on,1,0,0,,0,,,48,127
80512,note_off,99,0,0,,0,,,48,127
80513,note_on,1,0,0,,11,,,46,127
80612,note_off,99,0,0,,0,,,84,127
80613,note_on,1,0,0,,11,,,82,127
80712,note_off,99,0,0,,11,,,82,127
80713,note_on,1,0,0,,8,,,80,127
80812,note_off,99,0,0,,8,,,80,127
80813,note_on,1,0,0,,7,,,79,127
80912,note_off,99,0,0,,7,,,79,127
80912,note_off,0,0,0,,11,,,46,127
80913,note_on,1,0,0,,0,,,48,127
80913,note_on,0,0,0,,8,,,80,127
81012,note_off,99,0,0,,8,,,80,127
81013,note_on,1,0,0,,11,,,82,127
81112,note_off,99,0,0,,11,,,82,127
81113,note_on,1,0,0,,0,,,84,127
81212,note_off,99,0,0,,0,,,84,127
81213,note_on,1,0,0,,5,,,77,127
81312,note_off,99,0,0,,5,,,77,127
81313,note_on,1,0,0,,0,,,36,127
81313,note_on,0,0,0,,7,,,79,127
81412,note_off,99,0,0,,7,,,79,127
81413,note_on,1,0,0,,8,,,80,127
81512,note_off,99,0,0,,8,,,80,127
81513,note_on,1,0,0,,11,,,82,127
81612,note_off,99,0,0,,11,,,82,127
81613,note_on,1,0,0,,4,,,76,127
81712,note_off,99,0,0,,0,,,36,127
81712,note_off,0,0,0,,0,,,48,127
81713,note_on,1,0,0,,1,,,61,127
81713,note_on,0,0,0,,1,,,73,127
81812,note_off,99,0,0,,4,,,76,127
81813,note_on,1,0,0,,7,,,79,127
81912,note_off,99,0,0,,7,,,79,127
81913,note_on,1,0,0,,5,,,77,127
82012,note_off,99,0,0,,5,,,77,127
82013,note_on,1,0,0,,4,,,76,127
82112,note_off,99,0,0,,4,,,76,127
82113,note_on,1,0,0,,5,,,77,127
82212,note_off,99,0,0,,1,,,73,127
82212,note_off,0,0,0,,1,,,61,127
82213,note_on,1,0,0,,0,,,72,127
82312,note_off,99,0,0,,0,,,72,127
82313,note_on,1,0,0,,11,,,70,127
82412,note_off,99,0,0,,11,,,70,127
82413,note_on,1,0,0,,8,,,68,127
82512,note_off,99,0,0,,8,,,68,127
82512,note_off,0,0,0,,5,,,77,127
82513,note_on,1,0,0,,7,,,67,127
82513,note_on,0,0,0,,11,,,82,127
82612,note_off,99,0,0,,7,,,67,127
82613,note_on,1,0,0,,5,,,65,127
82712,note_off,99,0,0,,5,,,65,127
82713,note_on,1,0,0,,4,,,64,127
82812,note_off,99,0,0,,4,,,64,127
82813,note_on,1,0,0,,2,,,62,127
82912,note_off,99,0,0,,2,,,62,127
82913,note_on,1,0,0,,0,,,48,127
82913,note_on,0,0,0,,0,,,60,127
83012,note_off,99,0,0,,11,,,82,127
83013,note_on,1,0,0,,11,,,82,127
83112,note_off,99,0,0,,11,,,82,127
83113,note_on,1,0,0,,8,,,80,127
83212,note_off,99,0,0,,8,,,80,127
83213,note_on,1,0,0,,7,,,79,127
83312,note_off,99,0,0,,7,,,79,127
83313,note_on,1,0,0,,0,,,84,127
83412,note_off,99,0,0,,0,,,60,127
83412,note_off,0,0,0,,0,,,48,127
83413,note_on,1,0,0,,11,,,58,127
83512,note_off,99,0,0,,11,,,58,127
83513,note_on,1,0,0,,8,,,56,127
83612,note_off,99,0,0,,8,,,56,127
83613,note_on,1,0,0,,7,,,55,127
83712,note_off,99,0,0,,7,,,55,127
83713,note_on,1,0,0,,5,,,53,127
83812,note_off,99,0,0,,5,,,53,127
83813,note_on,1,0,0,,3,,,51,127
83912,note_off,99,0,0,,3,,,51,127
83913,note_on,1,0,0,,1,,,49,127
84012,note_off,99,0,0,,1,,,49,127
84013,note_on,1,0,0,,0,,,48,127
84112,note_off,99,0,0,,0,,,48,127
84113,note_on,1,0,0,,11,,,46,127
84212,note_off,99,0,0,,0,,,84,127
84213,note_on,1,0,0,,11,,,82,127
84312,note_off,99,0,0,,11,,,82,127
84313,note_on,1,0,0,,8,,,80,127
84412,note_off,99,0,0,,8,,,80,127
84413,note_on,1,0,0,,7,,,79,127
84512,note_off,99,0,0,,7,,,79,127
84512,note_off,0,0,0,,11,,,46,127
84513,note_on,1,0,0,,0,,,48,127
84513,note_on,0,0,0,,8,,,80,127
84612,note_off,99,0,0,,8,,,80,127
84613,note_on,1,0,0,,11,,,82,127
84712,note_off,99,0,0,,11,,,82,127
84713,note_on,1,0,0,,0,,,84,127
84812,note_off,99,0,0,,0,,,84,127
84813,note_on,1,0,0,,5,,,77,127
84912,note_off,99,0,0,,5,,,77,127
84913,note_on,1,0,0,,0,,,36,127
84913,note_on,0,0,0,,7,,,79,127
85012,note_off,99,0,0,,7,,,79,127
85013,note_on,1,0,0,,8,,,80,127
85112,note_off,99,0,0,,8,,,80,127
85113,note_on,1,0,0,,11,,,82,127
85212,note_off,99,0,0,,11,,,82,127
85213,note_on,1,0,0,,4,,,76,127
85312,note_off,99,0,0,,4,,,76,127
85312,note_off,0,0,0,,0,,,36,127
85312,note_off,0,0,0,,0,,,48,127
85313,note_on,1,0,0,,5,,,53,127
85313,note_on,0,0,0,,5,,,77,127
85412,note_off,99,0,0,,5,,,77,127
85413,note_on,1,0,0,,7,,,79,127
85512,note_off,99,0,0,,7,,,79,127
85513,note_on,1,0,0,,8,,,80,127
85612,note_off,99,0,0,,8,,,80,127
85613,note_on,1,0,0,,0,,,72,127
85712,note_off,99,0,0,,0,,,72,127
85712,note_off,0,0,0,,5,,,53,127
85713,note_on,1,0,0,,11,,,58,127
85713,note_on,0,0,0,,1,,,73,127
85812,note_off,99,0,0,,1,,,73,127
85813,note_on,1,0,0,,4,,,76,127
85912,note_off,99,0,0,,4,,,76,127
85913,note_on,1,0,0,,5,,,77,127
86012,note_off,99,0,0,,5,,,77,127
86013,note_on,1,0,0,,7,,,67,127
86112,note_off,99,0,0,,7,,,67,127
86112,note_off,0,0,0,,11,,,58,127
86113,note_on,1,0,0,,0,,,60,127
86113,note_on,0,0,0,,8,,,68,127
86212,note_off,99,0,0,,8,,,68,127
86213,note_on,1,0,0,,11,,,70,127
86312,note_off,99,0,0,,11,,,70,127
86313,note_on,1,0,0,,0,,,72,127
86412,note_off,99,0,0,,0,,,72,127
86413,note_on,1,0,0,,4,,,64,127
86512,note_off,99,0,0,,0,,,60,127
86514,note_off,2,0,0,,4,,,64,127
86517,note_on,3,0,0,,5,,,65,127
86517,note_on,0,0,0,,5,,,53,127
86618,note_off,101,0,0,,5,,,65,127
86622,note_on,4,0,0,,7,,,67,127
86723,note_off,101,0,0,,7,,,67,127
86727,note_on,4,0,0,,8,,,68,127
86828,note_off,101,0,0,,8,,,68,127
86832,note_on,4,0,0,,0,,,60,127
86927,note_off,95,0,0,,5,,,53,127
86933,note_off,6,0,0,,0,,,60,127
86937,note_on,4,0,0,,1,,,61,127
86937,note_on,0,0,0,,11,,,46,127
87038,note_off,101,0,0,,1,,,61,127
87041,note_on,3,0,0,,4,,,64,127
87142,note_off,101,0,0,,4,,,64,127
87146,note_on,4,0,0,,5,,,65,127
87247,note_off,101,0,0,,5,,,65,127
87251,note_on,4,0,0,,7,,,55,127
87347,note_off,96,0,0,,11,,,46,127
87352,note_off,5,0,0,,7,,,55,127
87356,note_on,4,0,0,,8,,,56,127
87356,note_on,0,0,0,,0,,,36,127
87356,note_on,0,0,0,,0,,,48,127
87457,note_off,101,0,0,,8,,,56,127
87461,note_on,4,0,0,,11,,,58,127
87562,note_off,101,0,0,,11,,,58,127
87565,note_on,3,0,0,,0,,,60,127
87666,note_off,101,0,0,,0,,,60,127
87670,note_on,4,0,0,,4,,,52,127
87766,note_off,96,0,0,,0,,,48,127
87766,note_off,0,0,0,,0,,,36,127
87775,note_off,9,0,0,,4,,,52,127
87789,note_on,14,0,0,,5,,,53,127
87789,note_on,0,0,0,,5,,,41,127
89714,note_off,1925,0,0,,5,,,41,127
89714,note_off,0,0,0,,5,,,53,127
93696,end_of_track,3982,1,0,,,,,,
