tick,type,time,meta,track,program,channel,pitch,tempo,note,velocity
0,copyright,0,1,0,,,,,,
0,program_change,0,0,0,6,0,,,,
0,pitchwheel,0,0,0,,0,0,,,
0,program_change,0,0,0,6,1,,,,
0,pitchwheel,0,0,0,,1,-590,,,
0,program_change,0,0,0,6,2,,,,
0,pitchwheel,0,0,0,,2,-272,,,
0,program_change,0,0,0,6,3,,,,
0,pitchwheel,0,0,0,,3,-353,,,
0,program_change,0,0,0,6,4,,,,
0,pitchwheel,0,0,0,,4,-560,,,
0,program_change,0,0,0,6,5,,,,
0,pitchwheel,0,0,0,,5,-80,,,
0,program_change,0,0,0,6,6,,,,
0,pitchwheel,0,0,0,,6,-625,,,
0,program_change,0,0,0,6,7,,,,
0,pitchwheel,0,0,0,,7,-130,,,
0,program_change,0,0,0,6,8,,,,
0,pitchwheel,0,0,0,,8,-512,,,
0,program_change,0,0,0,6,10,,,,
0,pitchwheel,0,0,0,,10,-464,,,
0,program_change,0,0,0,6,11,,,,
0,pitchwheel,0,0,0,,11,-208,,,
0,program_change,0,0,0,6,12,,,,
0,pitchwheel,0,0,0,,12,-553,,,
0,set_tempo,0,1,0,,,,500000,,
131,note_on,131,0,0,,0,,,84,127
194,note_off,63,0,0,,0,,,84,127
197,note_on,3,0,0,,12,,,83,127
260,note_off,63,0,0,,12,,,83,127
263,note_on,3,0,0,,0,,,84,127
326,note_off,63,0,0,,0,,,84,127
329,note_on,3,0,0,,12,,,83,127
392,note_off,63,0,0,,12,,,83,127
395,note_on,3,0,0,,0,,,84,127
458,note_off,63,0,0,,0,,,84,127
461,note_on,3,0,0,,12,,,83,127
524,note_off,63,0,0,,12,,,83,127
527,note_on,3,0,0,,10,,,81,127
590,note_off,63,0,0,,10,,,81,127
593,note_on,3,0,0,,12,,,83,127
656,note_off,63,0,0,,12,,,83,127
659,note_on,3,0,0,,0,,,84,127
921,note_on,262,0,0,,4,,,76,127
986,note_off,65,0,0,,0,,,84,127
1139,note_off,153,0,0,,4,,,76,127
1183,note_on,44,0,0,,7,,,79,127
1246,note_off,63,0,0,,7,,,79,127
1249,note_on,3,0,0,,6,,,78,127
1312,note_off,63,0,0,,6,,,78,127
1315,note_on,3,0,0,,7,,,79,127
1378,note_off,63,0,0,,7,,,79,127
1381,note_on,3,0,0,,6,,,78,127
1444,note_off,63,0,0,,6,,,78,127
1447,note_on,3,0,0,,7,,,79,127
1510,note_off,63,0,0,,7,,,79,127
1513,note_on,3,0,0,,6,,,78,127
1576,note_off,63,0,0,,6,,,78,127
1579,note_on,3,0,0,,4,,,76,127
1642,note_off,63,0,0,,4,,,76,127
1645,note_on,3,0,0,,6,,,78,127
1708,note_off,63,0,0,,6,,,78,127
1711,note_on,3,0,0,,7,,,79,127
1973,note_on,262,0,0,,12,,,71,127
2038,note_off,65,0,0,,7,,,79,127
2218,note_off,180,0,0,,12,,,71,127
2240,note_on,22,0,0,,0,,,72,127
2496,note_on,256,0,0,,2,,,74,127
2499,note_off,3,0,0,,0,,,72,127
2624,note_off,125,0,0,,2,,,74,127
2627,note_on,3,0,0,,4,,,76,127
2755,note_off,128,0,0,,4,,,76,127
2758,note_on,3,0,0,,2,,,74,127
2886,note_off,128,0,0,,2,,,74,127
2889,note_on,3,0,0,,0,,,72,127
3017,note_off,128,0,0,,0,,,72,127
3020,note_on,3,0,0,,12,,,71,127
3148,note_off,128,0,0,,12,,,71,127
3151,note_on,3,0,0,,10,,,69,127
3293,note_on,142,0,0,,0,,,72,127
3313,note_off,20,0,0,,10,,,69,127
3355,note_off,42,0,0,,0,,,72,127
3358,note_on,3,0,0,,12,,,71,127
3421,note_off,63,0,0,,12,,,71,127
3424,note_on,3,0,0,,0,,,72,127
3487,note_off,63,0,0,,0,,,72,127
3490,note_on,3,0,0,,12,,,71,127
3553,note_off,63,0,0,,12,,,71,127
3556,note_on,3,0,0,,0,,,72,127
3556,note_on,0,0,0,,7,,,79,127
3619,note_off,63,0,0,,0,,,72,127
3622,note_on,3,0,0,,12,,,71,127
3685,note_off,63,0,0,,12,,,71,127
3688,note_on,3,0,0,,10,,,69,127
3751,note_off,63,0,0,,10,,,69,127
3754,note_on,3,0,0,,12,,,71,127
3817,note_off,63,0,0,,12,,,71,127
3817,note_off,0,0,0,,7,,,79,127
3820,note_on,3,0,0,,0,,,72,127
3820,note_on,0,0,0,,4,,,76,127
4079,note_off,259,0,0,,4,,,76,127
4079,note_off,0,0,0,,0,,,72,127
4082,note_on,3,0,0,,4,,,64,127
4082,note_on,0,0,0,,7,,,79,127
4314,note_off,232,0,0,,4,,,64,127
4341,note_off,27,0,0,,7,,,79,127
4344,note_on,3,0,0,,7,,,67,127
4344,note_on,0,0,0,,10,,,81,127
4407,note_off,63,0,0,,7,,,67,127
4410,note_on,3,0,0,,6,,,66,127
4473,note_off,63,0,0,,6,,,66,127
4476,note_on,3,0,0,,7,,,67,127
4539,note_off,63,0,0,,7,,,67,127
4542,note_on,3,0,0,,6,,,66,127
4605,note_off,63,0,0,,6,,,66,127
4605,note_off,0,0,0,,10,,,81,127
4608,note_on,3,0,0,,7,,,67,127
4608,note_on,0,0,0,,0,,,72,127
4671,note_off,63,0,0,,7,,,67,127
4674,note_on,3,0,0,,6,,,66,127
4737,note_off,63,0,0,,6,,,66,127
4740,note_on,3,0,0,,4,,,64,127
4803,note_off,63,0,0,,4,,,64,127
4806,note_on,3,0,0,,6,,,66,127
4869,note_off,63,0,0,,6,,,66,127
4869,note_off,0,0,0,,0,,,72,127
4872,note_on,3,0,0,,7,,,67,127
4872,note_on,0,0,0,,12,,,71,127
5131,note_off,259,0,0,,12,,,71,127
5131,note_off,0,0,0,,7,,,67,127
5134,note_on,3,0,0,,12,,,59,127
5134,note_on,0,0,0,,2,,,74,127
5366,note_off,232,0,0,,12,,,59,127
5393,note_off,27,0,0,,2,,,74,127
5396,note_on,3,0,0,,0,,,60,127
5396,note_on,0,0,0,,4,,,76,127
5655,note_off,259,0,0,,4,,,76,127
5655,note_off,0,0,0,,0,,,60,127
5658,note_on,3,0,0,,2,,,62,127
5658,note_on,0,0,0,,7,,,67,127
5786,note_off,128,0,0,,2,,,62,127
5789,note_on,3,0,0,,4,,,64,127
5917,note_off,128,0,0,,4,,,64,127
5920,note_on,3,0,0,,2,,,62,127
6048,note_off,128,0,0,,2,,,62,127
6051,note_on,3,0,0,,0,,,60,127
6179,note_off,128,0,0,,0,,,60,127
6179,note_off,0,0,0,,7,,,67,127
6182,note_on,3,0,0,,12,,,59,127
6182,note_on,0,0,0,,6,,,66,127
6310,note_off,128,0,0,,12,,,59,127
6313,note_on,3,0,0,,10,,,57,127
6414,note_off,101,0,0,,6,,,66,127
6441,note_off,27,0,0,,10,,,57,127
6455,note_on,14,0,0,,7,,,55,127
6455,note_on,0,0,0,,7,,,79,127
6597,note_on,142,0,0,,2,,,74,127
6617,note_off,20,0,0,,7,,,79,127
6725,note_off,108,0,0,,2,,,74,127
6728,note_on,3,0,0,,12,,,71,127
6856,note_off,128,0,0,,12,,,71,127
6859,note_on,3,0,0,,7,,,67,127
6976,note_off,117,0,0,,7,,,55,127
6990,note_on,14,0,0,,7,,,55,127
6990,note_on,0,0,0,,4,,,64,127
7118,note_off,128,0,0,,7,,,67,127
7121,note_on,3,0,0,,0,,,72,127
7249,note_off,128,0,0,,0,,,72,127
7249,note_off,0,0,0,,4,,,64,127
7252,note_on,3,0,0,,6,,,66,127
7252,note_on,0,0,0,,2,,,74,127
7315,note_off,63,0,0,,2,,,74,127
7318,note_on,3,0,0,,0,,,72,127
7381,note_off,63,0,0,,0,,,72,127
7384,note_on,3,0,0,,12,,,71,127
7447,note_off,63,0,0,,12,,,71,127
7450,note_on,3,0,0,,10,,,69,127
7510,note_off,60,0,0,,7,,,55,127
7513,note_off,3,0,0,,10,,,69,127
7513,note_off,0,0,0,,6,,,66,127
7516,note_on,3,0,0,,7,,,55,127
7516,note_on,0,0,0,,7,,,67,127
7516,note_on,0,0,0,,7,,,79,127
7644,note_off,128,0,0,,7,,,79,127
7647,note_on,3,0,0,,2,,,74,127
7775,note_off,128,0,0,,2,,,74,127
7778,note_on,3,0,0,,12,,,71,127
7898,note_off,120,0,0,,7,,,67,127
7906,note_off,8,0,0,,12,,,71,127
7909,note_on,3,0,0,,7,,,67,127
8037,note_off,128,0,0,,7,,,55,127
8040,note_on,3,0,0,,7,,,55,127
8040,note_on,0,0,0,,4,,,64,127
8168,note_off,128,0,0,,7,,,67,127
8171,note_on,3,0,0,,0,,,72,127
8299,note_off,128,0,0,,0,,,72,127
8299,note_off,0,0,0,,4,,,64,127
8302,note_on,3,0,0,,6,,,66,127
8302,note_on,0,0,0,,2,,,74,127
8365,note_off,63,0,0,,2,,,74,127
8368,note_on,3,0,0,,0,,,72,127
8431,note_off,63,0,0,,0,,,72,127
8434,note_on,3,0,0,,12,,,71,127
8497,note_off,63,0,0,,12,,,71,127
8500,note_on,3,0,0,,10,,,69,127
8560,note_off,60,0,0,,7,,,55,127
8563,note_off,3,0,0,,10,,,69,127
8563,note_off,0,0,0,,6,,,66,127
8566,note_on,3,0,0,,7,,,67,127
8566,note_on,0,0,0,,12,,,71,127
8694,note_off,128,0,0,,7,,,67,127
8702,note_on,8,0,0,,2,,,62,127
8830,note_off,128,0,0,,2,,,62,127
8833,note_on,3,0,0,,12,,,59,127
8961,note_off,128,0,0,,12,,,59,127
8964,note_on,3,0,0,,7,,,55,127
9084,note_off,120,0,0,,12,,,71,127
9092,note_off,8,0,0,,7,,,55,127
9095,note_on,3,0,0,,7,,,55,127
9226,note_on,131,0,0,,0,,,60,127
9291,note_off,65,0,0,,7,,,55,127
9354,note_off,63,0,0,,0,,,60,127
9357,note_on,3,0,0,,4,,,76,127
9357,note_on,0,0,0,,2,,,62,127
9420,note_off,63,0,0,,2,,,62,127
9423,note_on,3,0,0,,0,,,60,127
9486,note_off,63,0,0,,0,,,60,127
9489,note_on,3,0,0,,12,,,59,127
9552,note_off,63,0,0,,12,,,59,127
9555,note_on,3,0,0,,10,,,57,127
9618,note_off,63,0,0,,10,,,57,127
9618,note_off,0,0,0,,4,,,76,127
9621,note_on,3,0,0,,2,,,74,127
9621,note_on,0,0,0,,7,,,67,127
9749,note_off,128,0,0,,7,,,67,127
9752,note_on,3,0,0,,2,,,62,127
9880,note_off,128,0,0,,2,,,62,127
9883,note_on,3,0,0,,12,,,59,127
10011,note_off,128,0,0,,12,,,59,127
10014,note_on,3,0,0,,7,,,55,127
10139,note_off,125,0,0,,2,,,74,127
10142,note_off,3,0,0,,7,,,55,127
10145,note_on,3,0,0,,7,,,55,127
10276,note_on,131,0,0,,0,,,60,127
10341,note_off,65,0,0,,7,,,55,127
10404,note_off,63,0,0,,0,,,60,127
10407,note_on,3,0,0,,4,,,76,127
10407,note_on,0,0,0,,2,,,62,127
10470,note_off,63,0,0,,2,,,62,127
10473,note_on,3,0,0,,0,,,60,127
10536,note_off,63,0,0,,0,,,60,127
10539,note_on,3,0,0,,12,,,59,127
10602,note_off,63,0,0,,12,,,59,127
10605,note_on,3,0,0,,10,,,57,127
10668,note_off,63,0,0,,10,,,57,127
10668,note_off,0,0,0,,4,,,76,127
10671,note_on,3,0,0,,12,,,59,127
10674,note_on,3,0,0,,4,,,76,127
10737,note_off,63,0,0,,4,,,76,127
10738,note_on,1,0,0,,2,,,74,127
10801,note_off,63,0,0,,2,,,74,127
10802,note_on,1,0,0,,4,,,76,127
10865,note_off,63,0,0,,4,,,76,127
10868,note_on,3,0,0,,2,,,74,127
10931,note_off,63,0,0,,2,,,74,127
10934,note_on,3,0,0,,4,,,76,127
10997,note_off,63,0,0,,4,,,76,127
11000,note_on,3,0,0,,2,,,74,127
11063,note_off,63,0,0,,2,,,74,127
11066,note_on,3,0,0,,0,,,72,127
11129,note_off,63,0,0,,0,,,72,127
11132,note_on,3,0,0,,2,,,74,127
11195,note_off,63,0,0,,2,,,74,127
11195,note_off,0,0,0,,12,,,59,127
11198,note_on,3,0,0,,4,,,76,127
11198,note_on,0,0,0,,0,,,60,127
11326,note_off,128,0,0,,4,,,76,127
11329,note_on,3,0,0,,0,,,72,127
11457,note_off,128,0,0,,0,,,72,127
11460,note_on,3,0,0,,10,,,69,127
11588,note_off,128,0,0,,10,,,69,127
11591,note_on,3,0,0,,7,,,67,127
11719,note_off,128,0,0,,7,,,67,127
11719,note_off,0,0,0,,0,,,60,127
11722,note_on,3,0,0,,7,,,67,127
11725,note_on,3,0,0,,4,,,64,127
11788,note_off,63,0,0,,4,,,64,127
11789,note_on,1,0,0,,2,,,62,127
11852,note_off,63,0,0,,2,,,62,127
11853,note_on,1,0,0,,4,,,64,127
11916,note_off,63,0,0,,4,,,64,127
11919,note_on,3,0,0,,2,,,62,127
11982,note_off,63,0,0,,2,,,62,127
11982,note_off,0,0,0,,7,,,67,127
11985,note_on,3,0,0,,6,,,66,127
11985,note_on,0,0,0,,4,,,64,127
12048,note_off,63,0,0,,4,,,64,127
12051,note_on,3,0,0,,2,,,62,127
12114,note_off,63,0,0,,2,,,62,127
12117,note_on,3,0,0,,0,,,60,127
12180,note_off,63,0,0,,0,,,60,127
12183,note_on,3,0,0,,2,,,62,127
12246,note_off,63,0,0,,2,,,62,127
12246,note_off,0,0,0,,6,,,66,127
12249,note_on,3,0,0,,7,,,67,127
12249,note_on,0,0,0,,4,,,64,127
12377,note_off,128,0,0,,4,,,64,127
12380,note_on,3,0,0,,0,,,60,127
12508,note_off,128,0,0,,0,,,60,127
12511,note_on,3,0,0,,10,,,57,127
12639,note_off,128,0,0,,10,,,57,127
12642,note_on,3,0,0,,7,,,55,127
12767,note_off,125,0,0,,7,,,67,127
12770,note_off,3,0,0,,7,,,55,127
12773,note_on,3,0,0,,6,,,54,127
12904,note_on,131,0,0,,10,,,69,127
13032,note_off,128,0,0,,10,,,69,127
13035,note_on,3,0,0,,12,,,71,127
13163,note_off,128,0,0,,12,,,71,127
13166,note_on,3,0,0,,0,,,72,127
13294,note_off,128,0,0,,0,,,72,127
13294,note_off,0,0,0,,6,,,54,127
13297,note_on,3,0,0,,12,,,71,127
13297,note_on,0,0,0,,7,,,55,127
13556,note_off,259,0,0,,7,,,55,127
13556,note_off,0,0,0,,12,,,71,127
13559,note_on,3,0,0,,2,,,74,127
13559,note_on,0,0,0,,4,,,52,127
13622,note_off,63,0,0,,2,,,74,127
13625,note_on,3,0,0,,1,,,73,127
13688,note_off,63,0,0,,1,,,73,127
13691,note_on,3,0,0,,12,,,71,127
13754,note_off,63,0,0,,12,,,71,127
13757,note_on,3,0,0,,1,,,73,127
13820,note_off,63,0,0,,1,,,73,127
13820,note_off,0,0,0,,4,,,52,127
13823,note_on,3,0,0,,2,,,74,127
13823,note_on,0,0,0,,6,,,54,127
13951,note_off,128,0,0,,2,,,74,127
13954,note_on,3,0,0,,10,,,69,127
14082,note_off,128,0,0,,10,,,69,127
14082,note_off,0,0,0,,6,,,54,127
14085,note_on,3,0,0,,6,,,78,127
14085,note_on,0,0,0,,2,,,50,127
14213,note_off,128,0,0,,6,,,78,127
14216,note_on,3,0,0,,2,,,74,127
14344,note_off,128,0,0,,2,,,74,127
14344,note_off,0,0,0,,2,,,50,127
14347,note_on,3,0,0,,7,,,79,127
14347,note_on,0,0,0,,4,,,52,127
14478,note_on,131,0,0,,12,,,71,127
14606,note_off,128,0,0,,4,,,52,127
14606,note_off,0,0,0,,7,,,79,127
14609,note_on,3,0,0,,4,,,76,127
14609,note_on,0,0,0,,10,,,45,127
14737,note_off,128,0,0,,12,,,71,127
14740,note_on,3,0,0,,1,,,73,127
14868,note_off,128,0,0,,1,,,73,127
14868,note_off,0,0,0,,10,,,45,127
14868,note_off,0,0,0,,4,,,76,127
14871,note_on,3,0,0,,2,,,74,127
14871,note_on,0,0,0,,2,,,50,127
14999,note_off,128,0,0,,2,,,74,127
15007,note_on,8,0,0,,10,,,69,127
15135,note_off,128,0,0,,10,,,69,127
15138,note_on,3,0,0,,6,,,78,127
15266,note_off,128,0,0,,6,,,78,127
15269,note_on,3,0,0,,2,,,74,127
15392,note_off,123,0,0,,2,,,50,127
15397,note_off,5,0,0,,2,,,74,127
15400,note_on,3,0,0,,4,,,52,127
15400,note_on,0,0,0,,7,,,79,127
15531,note_on,131,0,0,,12,,,71,127
15659,note_off,128,0,0,,7,,,79,127
15659,note_off,0,0,0,,4,,,52,127
15662,note_on,3,0,0,,10,,,45,127
15662,note_on,0,0,0,,4,,,76,127
15790,note_off,128,0,0,,12,,,71,127
15793,note_on,3,0,0,,1,,,73,127
15921,note_off,128,0,0,,1,,,73,127
15921,note_off,0,0,0,,4,,,76,127
15921,note_off,0,0,0,,10,,,45,127
15924,note_on,3,0,0,,2,,,62,127
15924,note_on,0,0,0,,2,,,74,127
16052,note_off,128,0,0,,2,,,62,127
16060,note_on,8,0,0,,10,,,57,127
16188,note_off,128,0,0,,10,,,57,127
16191,note_on,3,0,0,,6,,,66,127
16319,note_off,128,0,0,,6,,,66,127
16322,note_on,3,0,0,,2,,,62,127
16450,note_off,128,0,0,,2,,,62,127
16453,note_on,3,0,0,,7,,,67,127
16581,note_off,128,0,0,,7,,,67,127
16584,note_on,3,0,0,,12,,,59,127
16707,note_off,123,0,0,,2,,,74,127
16712,note_off,5,0,0,,12,,,59,127
16715,note_on,3,0,0,,7,,,79,127
16715,note_on,0,0,0,,4,,,64,127
16843,note_off,128,0,0,,4,,,64,127
16846,note_on,3,0,0,,1,,,61,127
16974,note_off,128,0,0,,1,,,61,127
16974,note_off,0,0,0,,7,,,79,127
16977,note_on,3,0,0,,6,,,78,127
16977,note_on,0,0,0,,2,,,62,127
17105,note_off,128,0,0,,2,,,62,127
17112,note_on,7,0,0,,10,,,57,127
17240,note_off,128,0,0,,10,,,57,127
17243,note_on,3,0,0,,6,,,66,127
17371,note_off,128,0,0,,6,,,66,127
17374,note_on,3,0,0,,2,,,62,127
17495,note_off,121,0,0,,6,,,78,127
17502,note_off,7,0,0,,2,,,62,127
17505,note_on,3,0,0,,7,,,67,127
17633,note_off,128,0,0,,7,,,67,127
17636,note_on,3,0,0,,12,,,59,127
17764,note_off,128,0,0,,12,,,59,127
17767,note_on,3,0,0,,4,,,64,127
17767,note_on,0,0,0,,7,,,79,127
17895,note_off,128,0,0,,4,,,64,127
17898,note_on,3,0,0,,1,,,61,127
18026,note_off,128,0,0,,1,,,61,127
18026,note_off,0,0,0,,7,,,79,127
18029,note_on,3,0,0,,2,,,62,127
18029,note_on,0,0,0,,6,,,78,127
18157,note_off,128,0,0,,2,,,62,127
18160,note_on,3,0,0,,6,,,66,127
18275,note_off,115,0,0,,6,,,78,127
18289,note_off,14,0,0,,6,,,66,127
18292,note_on,3,0,0,,2,,,62,127
18292,note_on,0,0,0,,10,,,81,127
18420,note_off,128,0,0,,2,,,62,127
18423,note_on,3,0,0,,10,,,57,127
18551,note_off,128,0,0,,10,,,57,127
18554,note_on,3,0,0,,6,,,54,127
18682,note_off,128,0,0,,10,,,81,127
18687,note_on,5,0,0,,6,,,78,127
18815,note_off,128,0,0,,6,,,78,127
18818,note_on,3,0,0,,2,,,74,127
18946,note_off,128,0,0,,2,,,74,127
18949,note_on,3,0,0,,10,,,69,127
18990,note_off,41,0,0,,6,,,54,127
19077,note_off,87,0,0,,10,,,69,127
19080,note_on,3,0,0,,12,,,71,127
19080,note_on,0,0,0,,7,,,55,127
19208,note_off,128,0,0,,7,,,55,127
19211,note_on,3,0,0,,12,,,59,127
19326,note_off,115,0,0,,12,,,71,127
19340,note_off,14,0,0,,12,,,59,127
19343,note_on,3,0,0,,4,,,76,127
19343,note_on,0,0,0,,7,,,55,127
19471,note_off,128,0,0,,7,,,55,127
19474,note_on,3,0,0,,4,,,52,127
19602,note_off,128,0,0,,4,,,52,127
19605,note_on,3,0,0,,1,,,49,127
19733,note_off,128,0,0,,4,,,76,127
19736,note_on,3,0,0,,1,,,73,127
19864,note_off,128,0,0,,1,,,73,127
19867,note_on,3,0,0,,7,,,67,127
19995,note_off,128,0,0,,7,,,67,127
19998,note_off,3,0,0,,1,,,49,127
19998,note_on,0,0,0,,4,,,64,127
20126,note_off,128,0,0,,4,,,64,127
20129,note_on,3,0,0,,6,,,66,127
20129,note_on,0,0,0,,2,,,50,127
20257,note_off,128,0,0,,2,,,50,127
20262,note_on,5,0,0,,6,,,54,127
20374,note_off,112,0,0,,6,,,66,127
20390,note_off,16,0,0,,6,,,54,127
20393,note_on,3,0,0,,2,,,50,127
20393,note_on,0,0,0,,2,,,74,127
20521,note_off,128,0,0,,2,,,50,127
20524,note_on,3,0,0,,10,,,45,127
20652,note_off,128,0,0,,10,,,45,127
20655,note_on,3,0,0,,6,,,42,127
20783,note_off,128,0,0,,2,,,74,127
20786,note_on,3,0,0,,2,,,74,127
20914,note_off,128,0,0,,2,,,74,127
20917,note_on,3,0,0,,10,,,69,127
21045,note_off,128,0,0,,10,,,69,127
21048,note_on,3,0,0,,6,,,66,127
21176,note_off,128,0,0,,6,,,66,127
21176,note_off,0,0,0,,6,,,42,127
21179,note_on,3,0,0,,7,,,43,127
21179,note_on,0,0,0,,6,,,66,127
21307,note_off,128,0,0,,6,,,66,127
21310,note_on,3,0,0,,4,,,64,127
21438,note_off,128,0,0,,4,,,64,127
21441,note_on,3,0,0,,11,,,70,127
21569,note_off,128,0,0,,11,,,70,127
21572,note_on,3,0,0,,12,,,71,127
21700,note_off,128,0,0,,12,,,71,127
21700,note_off,0,0,0,,7,,,43,127
21703,note_on,3,0,0,,8,,,44,127
21703,note_on,0,0,0,,6,,,66,127
21831,note_off,128,0,0,,6,,,66,127
21834,note_on,3,0,0,,4,,,64,127
21962,note_off,128,0,0,,4,,,64,127
21965,note_on,3,0,0,,4,,,64,127
22093,note_off,128,0,0,,4,,,64,127
22096,note_on,3,0,0,,2,,,62,127
22224,note_off,128,0,0,,2,,,62,127
22224,note_off,0,0,0,,8,,,44,127
22234,note_on,10,0,0,,10,,,45,127
22237,note_on,3,0,0,,2,,,62,127
22510,note_off,273,0,0,,2,,,62,127
22537,note_on,27,0,0,,1,,,61,127
22973,note_off,436,0,0,,1,,,61,127
23018,note_off,45,0,0,,10,,,45,127
23138,note_on,120,0,0,,1,,,61,127
23223,note_off,85,0,0,,1,,,61,127
23226,note_on,3,0,0,,12,,,59,127
23311,note_off,85,0,0,,12,,,59,127
23314,note_on,3,0,0,,10,,,57,127
23399,note_off,85,0,0,,10,,,57,127
23402,note_on,3,0,0,,10,,,45,127
23402,note_on,0,0,0,,6,,,54,127
23402,note_on,0,0,0,,2,,,62,127
23530,note_off,128,0,0,,2,,,62,127
23533,note_on,3,0,0,,10,,,57,127
23661,note_off,128,0,0,,10,,,57,127
23661,note_off,0,0,0,,6,,,54,127
23661,note_off,0,0,0,,10,,,45,127
23664,note_on,3,0,0,,10,,,45,127
23664,note_on,0,0,0,,6,,,54,127
23664,note_on,0,0,0,,6,,,66,127
23792,note_off,128,0,0,,6,,,66,127
23795,note_on,3,0,0,,2,,,62,127
23923,note_off,128,0,0,,2,,,62,127
23923,note_off,0,0,0,,6,,,54,127
23923,note_off,0,0,0,,10,,,45,127
23926,note_on,3,0,0,,10,,,45,127
23926,note_on,0,0,0,,2,,,50,127
23926,note_on,0,0,0,,10,,,69,127
24054,note_off,128,0,0,,10,,,69,127
24057,note_on,3,0,0,,6,,,66,127
24185,note_off,128,0,0,,6,,,66,127
24185,note_off,0,0,0,,2,,,50,127
24185,note_off,0,0,0,,10,,,45,127
24188,note_on,3,0,0,,10,,,45,127
24188,note_on,0,0,0,,2,,,50,127
24188,note_on,0,0,0,,2,,,74,127
24316,note_off,128,0,0,,2,,,74,127
24319,note_on,3,0,0,,10,,,69,127
24447,note_off,128,0,0,,10,,,69,127
24447,note_off,0,0,0,,2,,,50,127
24447,note_off,0,0,0,,10,,,45,127
24450,note_on,3,0,0,,10,,,45,127
24450,note_on,0,0,0,,6,,,66,127
24450,note_on,0,0,0,,2,,,74,127
24709,note_off,259,0,0,,10,,,45,127
24712,note_on,3,0,0,,10,,,45,127
24971,note_off,259,0,0,,10,,,45,127
24971,note_off,0,0,0,,2,,,74,127
24971,note_off,0,0,0,,6,,,66,127
24974,note_on,3,0,0,,10,,,45,127
24974,note_on,0,0,0,,4,,,64,127
24974,note_on,0,0,0,,1,,,73,127
25219,note_off,245,0,0,,1,,,73,127
25219,note_off,0,0,0,,4,,,64,127
25245,note_off,26,0,0,,10,,,45,127
25246,note_on,1,0,0,,10,,,45,127
25246,note_on,0,0,0,,1,,,61,127
25331,note_off,85,0,0,,1,,,61,127
25334,note_on,3,0,0,,12,,,59,127
25419,note_off,85,0,0,,12,,,59,127
25422,note_on,3,0,0,,10,,,57,127
25507,note_off,85,0,0,,10,,,57,127
25507,note_off,0,0,0,,10,,,45,127
25510,note_on,3,0,0,,10,,,45,127
25510,note_on,0,0,0,,6,,,54,127
25510,note_on,0,0,0,,6,,,66,127
25638,note_off,128,0,0,,6,,,66,127
25641,note_on,3,0,0,,2,,,62,127
25769,note_off,128,0,0,,2,,,62,127
25769,note_off,0,0,0,,6,,,54,127
25769,note_off,0,0,0,,10,,,45,127
25772,note_on,3,0,0,,10,,,45,127
25772,note_on,0,0,0,,6,,,54,127
25772,note_on,0,0,0,,10,,,69,127
25900,note_off,128,0,0,,10,,,69,127
25903,note_on,3,0,0,,6,,,66,127
26031,note_off,128,0,0,,6,,,66,127
26031,note_off,0,0,0,,6,,,54,127
26031,note_off,0,0,0,,10,,,45,127
26034,note_on,3,0,0,,2,,,50,127
26034,note_on,0,0,0,,10,,,45,127
26034,note_on,0,0,0,,2,,,74,127
26162,note_off,128,0,0,,2,,,74,127
26165,note_on,3,0,0,,10,,,69,127
26293,note_off,128,0,0,,10,,,69,127
26293,note_off,0,0,0,,10,,,45,127
26293,note_off,0,0,0,,2,,,50,127
26296,note_on,3,0,0,,10,,,45,127
26296,note_on,0,0,0,,2,,,50,127
26296,note_on,0,0,0,,2,,,74,127
26424,note_off,128,0,0,,2,,,74,127
26427,note_on,3,0,0,,6,,,78,127
26555,note_off,128,0,0,,6,,,78,127
26555,note_off,0,0,0,,2,,,50,127
26555,note_off,0,0,0,,10,,,45,127
26558,note_on,3,0,0,,10,,,45,127
26558,note_on,0,0,0,,2,,,74,127
26558,note_on,0,0,0,,6,,,78,127
27079,note_off,521,0,0,,6,,,78,127
27079,note_off,0,0,0,,2,,,74,127
27082,note_on,3,0,0,,4,,,76,127
27082,note_on,0,0,0,,1,,,73,127
27327,note_off,245,0,0,,1,,,73,127
27327,note_off,0,0,0,,4,,,76,127
27341,note_off,14,0,0,,10,,,45,127
27344,note_on,3,0,0,,1,,,49,127
27429,note_off,85,0,0,,1,,,49,127
27432,note_on,3,0,0,,12,,,47,127
27517,note_off,85,0,0,,12,,,47,127
27520,note_on,3,0,0,,10,,,45,127
27605,note_off,85,0,0,,10,,,45,127
27608,note_on,3,0,0,,2,,,50,127
27736,note_off,128,0,0,,2,,,50,127
27739,note_on,3,0,0,,10,,,45,127
27867,note_off,128,0,0,,10,,,45,127
27870,note_on,3,0,0,,6,,,54,127
27870,note_on,0,0,0,,10,,,81,127
27998,note_off,128,0,0,,6,,,54,127
28001,note_on,3,0,0,,2,,,50,127
28129,note_off,128,0,0,,2,,,50,127
28129,note_off,0,0,0,,10,,,81,127
28132,note_on,3,0,0,,10,,,57,127
28132,note_on,0,0,0,,6,,,78,127
28260,note_off,128,0,0,,10,,,57,127
28263,note_on,3,0,0,,6,,,54,127
28391,note_off,128,0,0,,6,,,54,127
28391,note_off,0,0,0,,6,,,78,127
28394,note_on,3,0,0,,2,,,62,127
28394,note_on,0,0,0,,2,,,74,127
28522,note_off,128,0,0,,2,,,62,127
28525,note_on,3,0,0,,10,,,57,127
28653,note_off,128,0,0,,10,,,57,127
28653,note_off,0,0,0,,2,,,74,127
28656,note_on,3,0,0,,10,,,45,127
28656,note_on,0,0,0,,6,,,78,127
28915,note_off,259,0,0,,6,,,78,127
28918,note_on,3,0,0,,6,,,78,127
29003,note_off,85,0,0,,6,,,78,127
29006,note_on,3,0,0,,4,,,76,127
29091,note_off,85,0,0,,4,,,76,127
29094,note_on,3,0,0,,2,,,74,127
29179,note_off,85,0,0,,2,,,74,127
29182,note_on,3,0,0,,4,,,76,127
29427,note_off,245,0,0,,4,,,76,127
29441,note_off,14,0,0,,10,,,45,127
29444,note_on,3,0,0,,1,,,49,127
29529,note_off,85,0,0,,1,,,49,127
29532,note_on,3,0,0,,12,,,47,127
29617,note_off,85,0,0,,12,,,47,127
29620,note_on,3,0,0,,10,,,45,127
29705,note_off,85,0,0,,10,,,45,127
29708,note_on,3,0,0,,6,,,54,127
29836,note_off,128,0,0,,6,,,54,127
29839,note_on,3,0,0,,2,,,50,127
29967,note_off,128,0,0,,2,,,50,127
29970,note_on,3,0,0,,10,,,57,127
29970,note_on,0,0,0,,10,,,81,127
30098,note_off,128,0,0,,10,,,57,127
30101,note_on,3,0,0,,6,,,54,127
30229,note_off,128,0,0,,6,,,54,127
30229,note_off,0,0,0,,10,,,81,127
30232,note_on,3,0,0,,2,,,62,127
30232,note_on,0,0,0,,6,,,78,127
30360,note_off,128,0,0,,2,,,62,127
30363,note_on,3,0,0,,10,,,57,127
30491,note_off,128,0,0,,10,,,57,127
30491,note_off,0,0,0,,6,,,78,127
30494,note_on,3,0,0,,6,,,66,127
30494,note_on,0,0,0,,2,,,74,127
30622,note_off,128,0,0,,6,,,66,127
30625,note_on,3,0,0,,2,,,62,127
30753,note_off,128,0,0,,2,,,62,127
30753,note_off,0,0,0,,2,,,74,127
30756,note_on,3,0,0,,10,,,45,127
30756,note_on,0,0,0,,2,,,74,127
31015,note_off,259,0,0,,2,,,74,127
31018,note_on,3,0,0,,2,,,74,127
31103,note_off,85,0,0,,2,,,74,127
31106,note_on,3,0,0,,1,,,73,127
31191,note_off,85,0,0,,1,,,73,127
31194,note_on,3,0,0,,12,,,71,127
31279,note_off,85,0,0,,12,,,71,127
31282,note_on,3,0,0,,10,,,57,127
31282,note_on,0,0,0,,1,,,73,127
31410,note_off,128,0,0,,1,,,73,127
31413,note_on,3,0,0,,2,,,74,127
31541,note_off,128,0,0,,2,,,74,127
31542,note_off,1,0,0,,10,,,45,127
31543,note_on,1,0,0,,4,,,76,127
31671,note_off,128,0,0,,4,,,76,127
31674,note_on,3,0,0,,6,,,78,127
31780,note_off,106,0,0,,10,,,57,127
31802,note_off,22,0,0,,6,,,78,127
31805,note_on,3,0,0,,7,,,43,127
31805,note_on,0,0,0,,10,,,81,127
31933,note_off,128,0,0,,10,,,81,127
31936,note_on,3,0,0,,7,,,79,127
32067,note_on,131,0,0,,7,,,55,127
32182,note_off,115,0,0,,7,,,79,127
32198,note_on,16,0,0,,12,,,71,127
32323,note_off,125,0,0,,7,,,43,127
32326,note_off,3,0,0,,12,,,71,127
32326,note_off,0,0,0,,7,,,55,127
32329,note_on,3,0,0,,10,,,45,127
32329,note_on,0,0,0,,2,,,74,127
32457,note_off,128,0,0,,2,,,74,127
32460,note_on,3,0,0,,1,,,73,127
32591,note_on,131,0,0,,10,,,57,127
32706,note_off,115,0,0,,1,,,73,127
32722,note_on,16,0,0,,6,,,78,127
32847,note_off,125,0,0,,10,,,45,127
32850,note_off,3,0,0,,6,,,78,127
32850,note_off,0,0,0,,10,,,57,127
32853,note_on,3,0,0,,7,,,43,127
32853,note_on,0,0,0,,10,,,81,127
32981,note_off,128,0,0,,10,,,81,127
32984,note_on,3,0,0,,7,,,79,127
33115,note_on,131,0,0,,7,,,55,127
33230,note_off,115,0,0,,7,,,79,127
33246,note_on,16,0,0,,12,,,71,127
33371,note_off,125,0,0,,7,,,43,127
33374,note_off,3,0,0,,12,,,71,127
33374,note_off,0,0,0,,7,,,55,127
33377,note_on,3,0,0,,10,,,45,127
33377,note_on,0,0,0,,2,,,74,127
33505,note_off,128,0,0,,2,,,74,127
33508,note_on,3,0,0,,1,,,73,127
33639,note_on,131,0,0,,7,,,55,127
33754,note_off,115,0,0,,1,,,73,127
33770,note_on,16,0,0,,4,,,76,127
33895,note_off,125,0,0,,10,,,45,127
33898,note_off,3,0,0,,4,,,76,127
33898,note_off,0,0,0,,7,,,55,127
33901,note_on,3,0,0,,6,,,54,127
33901,note_on,0,0,0,,2,,,74,127
34029,note_off,128,0,0,,2,,,74,127
34032,note_on,3,0,0,,10,,,69,127
34160,note_off,128,0,0,,10,,,69,127
34160,note_off,0,0,0,,6,,,54,127
34163,note_on,3,0,0,,7,,,55,127
34163,note_on,0,0,0,,7,,,79,127
34291,note_off,128,0,0,,7,,,79,127
34294,note_on,3,0,0,,4,,,76,127
34422,note_off,128,0,0,,4,,,76,127
34422,note_off,0,0,0,,7,,,55,127
34425,note_on,3,0,0,,10,,,57,127
34425,note_on,0,0,0,,6,,,78,127
34488,note_off,63,0,0,,6,,,78,127
34491,note_on,3,0,0,,4,,,76,127
34554,note_off,63,0,0,,4,,,76,127
34557,note_on,3,0,0,,6,,,78,127
34620,note_off,63,0,0,,6,,,78,127
34623,note_on,3,0,0,,4,,,76,127
34686,note_off,63,0,0,,4,,,76,127
34689,note_on,3,0,0,,10,,,45,127
34689,note_on,0,0,0,,6,,,78,127
34752,note_off,63,0,0,,6,,,78,127
34755,note_on,3,0,0,,4,,,76,127
34818,note_off,63,0,0,,4,,,76,127
34821,note_off,3,0,0,,10,,,57,127
34821,note_on,0,0,0,,2,,,74,127
34884,note_off,63,0,0,,2,,,74,127
34888,note_on,4,0,0,,4,,,76,127
34949,note_off,61,0,0,,10,,,45,127
34950,note_off,1,0,0,,4,,,76,127
34964,note_on,14,0,0,,2,,,50,127
34964,note_on,0,0,0,,2,,,74,127
34964,note_on,0,0,0,,2,,,38,127
35883,note_off,919,0,0,,2,,,74,127
36010,note_off,127,0,0,,2,,,38,127
36010,note_off,0,0,0,,2,,,50,127
36223,note_on,213,0,0,,2,,,74,127
36351,note_off,128,0,0,,2,,,74,127
36354,note_on,3,0,0,,5,,,77,127
36482,note_off,128,0,0,,5,,,77,127
36485,note_on,3,0,0,,3,,,75,127
36613,note_off,128,0,0,,3,,,75,127
36616,note_on,3,0,0,,2,,,74,127
36744,note_off,128,0,0,,2,,,74,127
36747,note_on,3,0,0,,8,,,68,127
36747,note_on,0,0,0,,0,,,72,127
36875,note_off,128,0,0,,0,,,72,127
36875,note_off,0,0,0,,8,,,68,127
36878,note_on,3,0,0,,7,,,67,127
36878,note_on,0,0,0,,12,,,71,127
37006,note_off,128,0,0,,7,,,67,127
37009,note_on,3,0,0,,5,,,65,127
37137,note_off,128,0,0,,5,,,65,127
37137,note_off,0,0,0,,12,,,71,127
37140,note_on,3,0,0,,3,,,63,127
37140,note_on,0,0,0,,0,,,72,127
37268,note_off,128,0,0,,3,,,63,127
37271,note_on,3,0,0,,2,,,62,127
37399,note_off,128,0,0,,2,,,62,127
37402,note_on,3,0,0,,0,,,60,127
37530,note_off,128,0,0,,0,,,60,127
37530,note_off,0,0,0,,0,,,72,127
37533,note_on,3,0,0,,12,,,59,127
37533,note_on,0,0,0,,2,,,74,127
37661,note_off,128,0,0,,2,,,74,127
37661,note_off,0,0,0,,12,,,59,127
37664,note_on,3,0,0,,0,,,48,127
37664,note_on,0,0,0,,0,,,60,127
37664,note_on,0,0,0,,3,,,75,127
37792,note_off,128,0,0,,3,,,75,127
37795,note_on,3,0,0,,5,,,77,127
37923,note_off,128,0,0,,5,,,77,127
37923,note_off,0,0,0,,0,,,60,127
37923,note_off,0,0,0,,0,,,48,127
37926,note_on,3,0,0,,7,,,43,127
37926,note_on,0,0,0,,7,,,55,127
37926,note_on,0,0,0,,7,,,79,127
38054,note_off,128,0,0,,7,,,79,127
38057,note_on,3,0,0,,5,,,77,127
38185,note_off,128,0,0,,5,,,77,127
38185,note_off,0,0,0,,7,,,55,127
38185,note_off,0,0,0,,7,,,43,127
38188,note_on,3,0,0,,0,,,36,127
38188,note_on,0,0,0,,0,,,48,127
38188,note_on,0,0,0,,3,,,75,127
38316,note_off,128,0,0,,3,,,75,127
38319,note_on,3,0,0,,2,,,74,127
38447,note_off,128,0,0,,2,,,74,127
38450,note_on,3,0,0,,0,,,72,127
38578,note_off,128,0,0,,0,,,72,127
38581,note_on,3,0,0,,12,,,71,127
38709,note_off,128,0,0,,12,,,71,127
38712,note_on,3,0,0,,0,,,72,127
38840,note_off,128,0,0,,0,,,72,127
38843,note_off,3,0,0,,0,,,48,127
38843,note_off,0,0,0,,0,,,36,127
38854,note_on,11,0,0,,7,,,67,127
38982,note_off,128,0,0,,7,,,67,127
38985,note_on,3,0,0,,3,,,75,127
39113,note_off,128,0,0,,3,,,75,127
39116,note_on,3,0,0,,1,,,73,127
39244,note_off,128,0,0,,1,,,73,127
39247,note_on,3,0,0,,0,,,72,127
39375,note_off,128,0,0,,0,,,72,127
39378,note_on,3,0,0,,6,,,66,127
39378,note_on,0,0,0,,11,,,70,127
39506,note_off,128,0,0,,11,,,70,127
39506,note_off,0,0,0,,6,,,66,127
39509,note_on,3,0,0,,5,,,65,127
39509,note_on,0,0,0,,10,,,69,127
39637,note_off,128,0,0,,5,,,65,127
39640,note_on,3,0,0,,3,,,63,127
39768,note_off,128,0,0,,3,,,63,127
39768,note_off,0,0,0,,10,,,69,127
39771,note_on,3,0,0,,1,,,61,127
39771,note_on,0,0,0,,11,,,70,127
39899,note_off,128,0,0,,1,,,61,127
39902,note_on,3,0,0,,0,,,60,127
40030,note_off,128,0,0,,0,,,60,127
40033,note_on,3,0,0,,11,,,58,127
40161,note_off,128,0,0,,11,,,58,127
40161,note_off,0,0,0,,11,,,70,127
40164,note_on,3,0,0,,10,,,57,127
40164,note_on,0,0,0,,0,,,72,127
40292,note_off,128,0,0,,0,,,72,127
40292,note_off,0,0,0,,10,,,57,127
40295,note_on,3,0,0,,11,,,58,127
40295,note_on,0,0,0,,11,,,46,127
40295,note_on,0,0,0,,1,,,73,127
40423,note_off,128,0,0,,1,,,73,127
40426,note_on,3,0,0,,3,,,75,127
40554,note_off,128,0,0,,3,,,75,127
40554,note_off,0,0,0,,11,,,46,127
40554,note_off,0,0,0,,11,,,58,127
40557,note_on,3,0,0,,5,,,41,127
40557,note_on,0,0,0,,5,,,53,127
40557,note_on,0,0,0,,5,,,77,127
40685,note_off,128,0,0,,5,,,77,127
40688,note_on,3,0,0,,3,,,75,127
40816,note_off,128,0,0,,3,,,75,127
40816,note_off,0,0,0,,5,,,53,127
40816,note_off,0,0,0,,5,,,41,127
40819,note_on,3,0,0,,11,,,46,127
40819,note_on,0,0,0,,11,,,34,127
40819,note_on,0,0,0,,1,,,73,127
40947,note_off,128,0,0,,1,,,73,127
40950,note_on,3,0,0,,0,,,72,127
41078,note_off,128,0,0,,0,,,72,127
41081,note_on,3,0,0,,11,,,70,127
41209,note_off,128,0,0,,11,,,70,127
41212,note_on,3,0,0,,10,,,69,127
41340,note_off,128,0,0,,10,,,69,127
41343,note_on,3,0,0,,11,,,70,127
41474,note_off,131,0,0,,11,,,34,127
41474,note_off,0,0,0,,11,,,46,127
41482,note_off,8,0,0,,11,,,70,127
41485,note_on,3,0,0,,5,,,65,127
41613,note_off,128,0,0,,5,,,65,127
41616,note_on,3,0,0,,1,,,73,127
41744,note_off,128,0,0,,1,,,73,127
41747,note_on,3,0,0,,0,,,72,127
41875,note_off,128,0,0,,0,,,72,127
41878,note_on,3,0,0,,11,,,70,127
42006,note_off,128,0,0,,11,,,70,127
42009,note_on,3,0,0,,5,,,65,127
42009,note_on,0,0,0,,8,,,68,127
42137,note_off,128,0,0,,8,,,68,127
42137,note_off,0,0,0,,5,,,65,127
42140,note_on,3,0,0,,3,,,63,127
42140,note_on,0,0,0,,7,,,67,127
42268,note_off,128,0,0,,3,,,63,127
42271,note_on,3,0,0,,1,,,61,127
42399,note_off,128,0,0,,1,,,61,127
42399,note_off,0,0,0,,7,,,67,127
42402,note_on,3,0,0,,0,,,60,127
42402,note_on,0,0,0,,8,,,68,127
42530,note_off,128,0,0,,0,,,60,127
42533,note_on,3,0,0,,11,,,58,127
42661,note_off,128,0,0,,11,,,58,127
42664,note_on,3,0,0,,8,,,56,127
42792,note_off,128,0,0,,8,,,56,127
42792,note_off,0,0,0,,8,,,68,127
42795,note_on,3,0,0,,7,,,55,127
42795,note_on,0,0,0,,11,,,70,127
42923,note_off,128,0,0,,11,,,70,127
42923,note_off,0,0,0,,7,,,55,127
42926,note_on,3,0,0,,8,,,44,127
42926,note_on,0,0,0,,8,,,56,127
42926,note_on,0,0,0,,0,,,72,127
43054,note_off,128,0,0,,0,,,72,127
43057,note_on,3,0,0,,1,,,73,127
43185,note_off,128,0,0,,1,,,73,127
43185,note_off,0,0,0,,8,,,56,127
43185,note_off,0,0,0,,8,,,44,127
43188,note_on,3,0,0,,3,,,39,127
43188,note_on,0,0,0,,3,,,51,127
43188,note_on,0,0,0,,3,,,75,127
43316,note_off,128,0,0,,3,,,75,127
43319,note_on,3,0,0,,1,,,73,127
43447,note_off,128,0,0,,1,,,73,127
43447,note_off,0,0,0,,3,,,51,127
43447,note_off,0,0,0,,3,,,39,127
43450,note_on,3,0,0,,8,,,44,127
43450,note_on,0,0,0,,8,,,56,127
43450,note_on,0,0,0,,0,,,72,127
43578,note_off,128,0,0,,0,,,72,127
43581,note_on,3,0,0,,11,,,70,127
43709,note_off,128,0,0,,11,,,70,127
43712,note_on,3,0,0,,8,,,68,127
43840,note_off,128,0,0,,8,,,68,127
43843,note_on,3,0,0,,7,,,67,127
43971,note_off,128,0,0,,7,,,67,127
43974,note_on,3,0,0,,8,,,68,127
44233,note_off,259,0,0,,8,,,68,127
44234,note_off,1,0,0,,8,,,44,127
44268,note_on,34,0,0,,3,,,75,127
44494,note_off,226,0,0,,8,,,56,127
44527,note_off,33,0,0,,3,,,75,127
44546,note_on,19,0,0,,8,,,56,127
44546,note_on,0,0,0,,3,,,63,127
44546,note_on,0,0,0,,6,,,66,127
44546,note_on,0,0,0,,3,,,75,127
44805,note_off,259,0,0,,6,,,66,127
44805,note_off,0,0,0,,3,,,63,127
44805,note_off,0,0,0,,8,,,56,127
44808,note_on,3,0,0,,8,,,56,127
44808,note_on,0,0,0,,3,,,63,127
44808,note_on,0,0,0,,6,,,66,127
44893,note_off,85,0,0,,3,,,75,127
44896,note_on,3,0,0,,1,,,73,127
44981,note_off,85,0,0,,1,,,73,127
44984,note_on,3,0,0,,5,,,77,127
45069,note_off,85,0,0,,5,,,77,127
45069,note_off,0,0,0,,6,,,66,127
45069,note_off,0,0,0,,3,,,63,127
45069,note_off,0,0,0,,8,,,56,127
45072,note_on,3,0,0,,8,,,56,127
45072,note_on,0,0,0,,3,,,63,127
45072,note_on,0,0,0,,6,,,66,127
45072,note_on,0,0,0,,3,,,75,127
45331,note_off,259,0,0,,6,,,66,127
45331,note_off,0,0,0,,3,,,63,127
45331,note_off,0,0,0,,8,,,56,127
45334,note_on,3,0,0,,8,,,56,127
45334,note_on,0,0,0,,3,,,63,127
45334,note_on,0,0,0,,6,,,66,127
45419,note_off,85,0,0,,3,,,75,127
45422,note_on,3,0,0,,1,,,73,127
45507,note_off,85,0,0,,1,,,73,127
45510,note_on,3,0,0,,5,,,77,127
45595,note_off,85,0,0,,5,,,77,127
45595,note_off,0,0,0,,6,,,66,127
45595,note_off,0,0,0,,3,,,63,127
45595,note_off,0,0,0,,8,,,56,127
45598,note_on,3,0,0,,8,,,56,127
45598,note_on,0,0,0,,3,,,63,127
45598,note_on,0,0,0,,6,,,66,127
45598,note_on,0,0,0,,5,,,77,127
45857,note_off,259,0,0,,6,,,66,127
45857,note_off,0,0,0,,3,,,63,127
45857,note_off,0,0,0,,8,,,56,127
45860,note_on,3,0,0,,8,,,56,127
45860,note_on,0,0,0,,3,,,63,127
45860,note_on,0,0,0,,6,,,66,127
46119,note_off,259,0,0,,6,,,66,127
46119,note_off,0,0,0,,3,,,63,127
46119,note_off,0,0,0,,8,,,56,127
46119,note_off,0,0,0,,5,,,77,127
46122,note_on,3,0,0,,8,,,56,127
46122,note_on,0,0,0,,3,,,63,127
46122,note_on,0,0,0,,6,,,66,127
46122,note_on,0,0,0,,3,,,75,127
46381,note_off,259,0,0,,3,,,75,127
46381,note_off,0,0,0,,6,,,66,127
46381,note_off,0,0,0,,3,,,63,127
46381,note_off,0,0,0,,8,,,56,127
46384,note_on,3,0,0,,8,,,56,127
46384,note_on,0,0,0,,3,,,63,127
46384,note_on,0,0,0,,6,,,66,127
46384,note_on,0,0,0,,6,,,78,127
46643,note_off,259,0,0,,6,,,78,127
46643,note_off,0,0,0,,6,,,66,127
46643,note_off,0,0,0,,3,,,63,127
46643,note_off,0,0,0,,8,,,56,127
46646,note_on,3,0,0,,8,,,56,127
46646,note_on,0,0,0,,3,,,63,127
46646,note_on,0,0,0,,6,,,66,127
46646,note_on,0,0,0,,10,,,81,127
46905,note_off,259,0,0,,10,,,81,127
46905,note_off,0,0,0,,6,,,66,127
46905,note_off,0,0,0,,3,,,63,127
46905,note_off,0,0,0,,8,,,56,127
46908,note_on,3,0,0,,8,,,56,127
46908,note_on,0,0,0,,3,,,63,127
46908,note_on,0,0,0,,6,,,66,127
46908,note_on,0,0,0,,8,,,80,127
47036,note_off,128,0,0,,8,,,80,127
47039,note_on,3,0,0,,6,,,78,127
47167,note_off,128,0,0,,6,,,78,127
47167,note_off,0,0,0,,6,,,66,127
47167,note_off,0,0,0,,3,,,63,127
47167,note_off,0,0,0,,8,,,56,127
47170,note_on,3,0,0,,8,,,56,127
47170,note_on,0,0,0,,3,,,63,127
47170,note_on,0,0,0,,6,,,66,127
47170,note_on,0,0,0,,4,,,76,127
47298,note_off,128,0,0,,4,,,76,127
47301,note_on,3,0,0,,3,,,75,127
47429,note_off,128,0,0,,3,,,75,127
47429,note_off,0,0,0,,6,,,66,127
47429,note_off,0,0,0,,3,,,63,127
47429,note_off,0,0,0,,8,,,56,127
47432,note_on,3,0,0,,8,,,56,127
47432,note_on,0,0,0,,3,,,63,127
47432,note_on,0,0,0,,6,,,66,127
47432,note_on,0,0,0,,1,,,73,127
47560,note_off,128,0,0,,1,,,73,127
47563,note_on,3,0,0,,0,,,72,127
47691,note_off,128,0,0,,0,,,72,127
47691,note_off,0,0,0,,6,,,66,127
47691,note_off,0,0,0,,3,,,63,127
47691,note_off,0,0,0,,8,,,56,127
47694,note_on,3,0,0,,8,,,56,127
47694,note_on,0,0,0,,1,,,61,127
47694,note_on,0,0,0,,4,,,64,127
47694,note_on,0,0,0,,0,,,72,127
47953,note_off,259,0,0,,4,,,64,127
47953,note_off,0,0,0,,1,,,61,127
47953,note_off,0,0,0,,8,,,56,127
47956,note_on,3,0,0,,8,,,56,127
47956,note_on,0,0,0,,1,,,61,127
47956,note_on,0,0,0,,4,,,64,127
48215,note_off,259,0,0,,4,,,64,127
48215,note_off,0,0,0,,1,,,61,127
48215,note_off,0,0,0,,8,,,56,127
48215,note_off,0,0,0,,0,,,72,127
48218,note_on,3,0,0,,8,,,56,127
48218,note_on,0,0,0,,1,,,61,127
48218,note_on,0,0,0,,4,,,64,127
48218,note_on,0,0,0,,1,,,73,127
48463,note_off,245,0,0,,1,,,73,127
48477,note_off,14,0,0,,4,,,64,127
48477,note_off,0,0,0,,8,,,56,127
48489,note_off,12,0,0,,1,,,61,127
48490,note_on,1,0,0,,8,,,56,127
48490,note_on,0,0,0,,1,,,61,127
48490,note_on,0,0,0,,4,,,64,127
48490,note_on,0,0,0,,4,,,76,127
48749,note_off,259,0,0,,4,,,76,127
48749,note_off,0,0,0,,4,,,64,127
48749,note_off,0,0,0,,1,,,61,127
48749,note_off,0,0,0,,8,,,56,127
48752,note_on,3,0,0,,10,,,57,127
48752,note_on,0,0,0,,0,,,60,127
48752,note_on,0,0,0,,4,,,64,127
48752,note_on,0,0,0,,4,,,76,127
49011,note_off,259,0,0,,4,,,64,127
49011,note_off,0,0,0,,0,,,60,127
49011,note_off,0,0,0,,10,,,57,127
49014,note_on,3,0,0,,10,,,57,127
49014,note_on,0,0,0,,0,,,60,127
49014,note_on,0,0,0,,4,,,64,127
49099,note_off,85,0,0,,4,,,76,127
49102,note_on,3,0,0,,3,,,75,127
49187,note_off,85,0,0,,3,,,75,127
49190,note_on,3,0,0,,6,,,78,127
49275,note_off,85,0,0,,6,,,78,127
49275,note_off,0,0,0,,4,,,64,127
49275,note_off,0,0,0,,0,,,60,127
49275,note_off,0,0,0,,10,,,57,127
49278,note_on,3,0,0,,4,,,64,127
49278,note_on,0,0,0,,7,,,55,127
49278,note_on,0,0,0,,12,,,59,127
49278,note_on,0,0,0,,4,,,76,127
49537,note_off,259,0,0,,12,,,59,127
49537,note_off,0,0,0,,7,,,55,127
49537,note_off,0,0,0,,4,,,64,127
49540,note_on,3,0,0,,7,,,55,127
49540,note_on,0,0,0,,12,,,59,127
49540,note_on,0,0,0,,4,,,64,127
49625,note_off,85,0,0,,4,,,76,127
49628,note_on,3,0,0,,3,,,75,127
49713,note_off,85,0,0,,3,,,75,127
49716,note_on,3,0,0,,6,,,78,127
49801,note_off,85,0,0,,6,,,78,127
49801,note_off,0,0,0,,4,,,64,127
49801,note_off,0,0,0,,12,,,59,127
49801,note_off,0,0,0,,7,,,55,127
49804,note_on,3,0,0,,6,,,54,127
49804,note_on,0,0,0,,1,,,61,127
49804,note_on,0,0,0,,4,,,64,127
49804,note_on,0,0,0,,11,,,70,127
49804,note_on,0,0,0,,6,,,78,127
50063,note_off,259,0,0,,6,,,78,127
50063,note_off,0,0,0,,4,,,64,127
50063,note_off,0,0,0,,1,,,61,127
50063,note_off,0,0,0,,6,,,54,127
50066,note_on,3,0,0,,6,,,54,127
50066,note_on,0,0,0,,1,,,61,127
50066,note_on,0,0,0,,4,,,64,127
50066,note_on,0,0,0,,4,,,76,127
50325,note_off,259,0,0,,4,,,64,127
50325,note_off,0,0,0,,1,,,61,127
50325,note_off,0,0,0,,6,,,54,127
50328,note_on,3,0,0,,6,,,54,127
50328,note_on,0,0,0,,1,,,61,127
50328,note_on,0,0,0,,4,,,64,127
50587,note_off,259,0,0,,4,,,64,127
50587,note_off,0,0,0,,1,,,61,127
50587,note_off,0,0,0,,6,,,54,127
50587,note_off,0,0,0,,4,,,76,127
50588,note_off,1,0,0,,11,,,70,127
50589,note_on,1,0,0,,6,,,54,127
50589,note_on,0,0,0,,1,,,61,127
50589,note_on,0,0,0,,4,,,64,127
50589,note_on,0,0,0,,4,,,76,127
50848,note_off,259,0,0,,4,,,76,127
50848,note_off,0,0,0,,4,,,64,127
50848,note_off,0,0,0,,1,,,61,127
50848,note_off,0,0,0,,6,,,54,127
50851,note_on,3,0,0,,6,,,54,127
50851,note_on,0,0,0,,1,,,61,127
50851,note_on,0,0,0,,4,,,64,127
50851,note_on,0,0,0,,7,,,79,127
51110,note_off,259,0,0,,7,,,79,127
51110,note_off,0,0,0,,4,,,64,127
51110,note_off,0,0,0,,1,,,61,127
51110,note_off,0,0,0,,6,,,54,127
51113,note_on,3,0,0,,6,,,54,127
51113,note_on,0,0,0,,1,,,61,127
51113,note_on,0,0,0,,4,,,64,127
51113,note_on,0,0,0,,6,,,78,127
51241,note_off,128,0,0,,6,,,78,127
51244,note_on,3,0,0,,4,,,76,127
51372,note_off,128,0,0,,4,,,76,127
51372,note_off,0,0,0,,4,,,64,127
51372,note_off,0,0,0,,1,,,61,127
51372,note_off,0,0,0,,6,,,54,127
51375,note_on,3,0,0,,6,,,54,127
51375,note_on,0,0,0,,1,,,61,127
51375,note_on,0,0,0,,4,,,64,127
51375,note_on,0,0,0,,2,,,74,127
51503,note_off,128,0,0,,2,,,74,127
51506,note_on,3,0,0,,1,,,73,127
51634,note_off,128,0,0,,1,,,73,127
51634,note_off,0,0,0,,4,,,64,127
51634,note_off,0,0,0,,1,,,61,127
51634,note_off,0,0,0,,6,,,54,127
51637,note_on,3,0,0,,6,,,54,127
51637,note_on,0,0,0,,1,,,61,127
51637,note_on,0,0,0,,4,,,64,127
51637,note_on,0,0,0,,12,,,71,127
51765,note_off,128,0,0,,12,,,71,127
51768,note_on,3,0,0,,11,,,70,127
51896,note_off,128,0,0,,11,,,70,127
51896,note_off,0,0,0,,4,,,64,127
51896,note_off,0,0,0,,1,,,61,127
51896,note_off,0,0,0,,6,,,54,127
51899,note_on,3,0,0,,6,,,54,127
51899,note_on,0,0,0,,12,,,59,127
51899,note_on,0,0,0,,2,,,62,127
51899,note_on,0,0,0,,11,,,70,127
52158,note_off,259,0,0,,2,,,62,127
52158,note_off,0,0,0,,12,,,59,127
52158,note_off,0,0,0,,6,,,54,127
52161,note_on,3,0,0,,6,,,54,127
52161,note_on,0,0,0,,12,,,59,127
52161,note_on,0,0,0,,2,,,62,127
52420,note_off,259,0,0,,2,,,62,127
52420,note_off,0,0,0,,12,,,59,127
52420,note_off,0,0,0,,6,,,54,127
52420,note_off,0,0,0,,11,,,70,127
52423,note_on,3,0,0,,6,,,54,127
52423,note_on,0,0,0,,12,,,59,127
52423,note_on,0,0,0,,2,,,62,127
52423,note_on,0,0,0,,12,,,71,127
52668,note_off,245,0,0,,12,,,71,127
52682,note_off,14,0,0,,12,,,59,127
52682,note_off,0,0,0,,6,,,54,127
52694,note_off,12,0,0,,2,,,62,127
52695,note_on,1,0,0,,6,,,54,127
52695,note_on,0,0,0,,12,,,59,127
52695,note_on,0,0,0,,2,,,62,127
52695,note_on,0,0,0,,2,,,74,127
52954,note_off,259,0,0,,2,,,74,127
52954,note_off,0,0,0,,2,,,62,127
52954,note_off,0,0,0,,12,,,59,127
52954,note_off,0,0,0,,6,,,54,127
52957,note_on,3,0,0,,6,,,54,127
52957,note_on,0,0,0,,12,,,59,127
52957,note_on,0,0,0,,2,,,62,127
52957,note_on,0,0,0,,2,,,74,127
53216,note_off,259,0,0,,2,,,62,127
53216,note_off,0,0,0,,12,,,59,127
53216,note_off,0,0,0,,6,,,54,127
53219,note_on,3,0,0,,6,,,54,127
53219,note_on,0,0,0,,12,,,59,127
53219,note_on,0,0,0,,2,,,62,127
53304,note_off,85,0,0,,2,,,74,127
53307,note_on,3,0,0,,1,,,73,127
53392,note_off,85,0,0,,1,,,73,127
53395,note_on,3,0,0,,4,,,76,127
53480,note_off,85,0,0,,4,,,76,127
53480,note_off,0,0,0,,2,,,62,127
53480,note_off,0,0,0,,12,,,59,127
53480,note_off,0,0,0,,6,,,54,127
53483,note_on,3,0,0,,5,,,53,127
53483,note_on,0,0,0,,10,,,57,127
53483,note_on,0,0,0,,2,,,62,127
53483,note_on,0,0,0,,2,,,74,127
53742,note_off,259,0,0,,2,,,62,127
53742,note_off,0,0,0,,10,,,57,127
53742,note_off,0,0,0,,5,,,53,127
53745,note_on,3,0,0,,5,,,53,127
53745,note_on,0,0,0,,10,,,57,127
53745,note_on,0,0,0,,2,,,62,127
53830,note_off,85,0,0,,2,,,74,127
53833,note_on,3,0,0,,1,,,73,127
53918,note_off,85,0,0,,1,,,73,127
53921,note_on,3,0,0,,4,,,76,127
54006,note_off,85,0,0,,4,,,76,127
54006,note_off,0,0,0,,2,,,62,127
54006,note_off,0,0,0,,10,,,57,127
54006,note_off,0,0,0,,5,,,53,127
54009,note_on,3,0,0,,4,,,52,127
54009,note_on,0,0,0,,12,,,59,127
54009,note_on,0,0,0,,2,,,62,127
54009,note_on,0,0,0,,8,,,68,127
54009,note_on,0,0,0,,4,,,76,127
54268,note_off,259,0,0,,2,,,62,127
54268,note_off,0,0,0,,12,,,59,127
54268,note_off,0,0,0,,4,,,52,127
54271,note_on,3,0,0,,4,,,52,127
54271,note_on,0,0,0,,12,,,59,127
54271,note_on,0,0,0,,2,,,62,127
54530,note_off,259,0,0,,2,,,62,127
54530,note_off,0,0,0,,12,,,59,127
54530,note_off,0,0,0,,4,,,52,127
54530,note_off,0,0,0,,4,,,76,127
54533,note_on,3,0,0,,4,,,52,127
54533,note_on,0,0,0,,12,,,59,127
54533,note_on,0,0,0,,2,,,62,127
54533,note_on,0,0,0,,2,,,74,127
54792,note_off,259,0,0,,2,,,74,127
54792,note_off,0,0,0,,2,,,62,127
54792,note_off,0,0,0,,12,,,59,127
54792,note_off,0,0,0,,4,,,52,127
54793,note_off,1,0,0,,8,,,68,127
54794,note_on,1,0,0,,4,,,52,127
54794,note_on,0,0,0,,12,,,59,127
54794,note_on,0,0,0,,2,,,62,127
54794,note_on,0,0,0,,2,,,74,127
55053,note_off,259,0,0,,2,,,74,127
55053,note_off,0,0,0,,2,,,62,127
55053,note_off,0,0,0,,12,,,59,127
55053,note_off,0,0,0,,4,,,52,127
55056,note_on,3,0,0,,4,,,52,127
55056,note_on,0,0,0,,12,,,59,127
55056,note_on,0,0,0,,2,,,62,127
55056,note_on,0,0,0,,5,,,77,127
55315,note_off,259,0,0,,5,,,77,127
55315,note_off,0,0,0,,2,,,62,127
55315,note_off,0,0,0,,12,,,59,127
55315,note_off,0,0,0,,4,,,52,127
55318,note_on,3,0,0,,4,,,52,127
55318,note_on,0,0,0,,12,,,59,127
55318,note_on,0,0,0,,2,,,62,127
55318,note_on,0,0,0,,4,,,76,127
55446,note_off,128,0,0,,4,,,76,127
55449,note_on,3,0,0,,2,,,74,127
55577,note_off,128,0,0,,2,,,74,127
55577,note_off,0,0,0,,2,,,62,127
55577,note_off,0,0,0,,12,,,59,127
55577,note_off,0,0,0,,4,,,52,127
55580,note_on,3,0,0,,4,,,52,127
55580,note_on,0,0,0,,12,,,59,127
55580,note_on,0,0,0,,2,,,62,127
55580,note_on,0,0,0,,0,,,72,127
55708,note_off,128,0,0,,0,,,72,127
55711,note_on,3,0,0,,12,,,71,127
55839,note_off,128,0,0,,12,,,71,127
55839,note_off,0,0,0,,2,,,62,127
55839,note_off,0,0,0,,12,,,59,127
55839,note_off,0,0,0,,4,,,52,127
55842,note_on,3,0,0,,4,,,52,127
55842,note_on,0,0,0,,12,,,59,127
55842,note_on,0,0,0,,2,,,62,127
55842,note_on,0,0,0,,10,,,69,127
55970,note_off,128,0,0,,10,,,69,127
55973,note_on,3,0,0,,8,,,68,127
56101,note_off,128,0,0,,8,,,68,127
56101,note_off,0,0,0,,2,,,62,127
56101,note_off,0,0,0,,12,,,59,127
56101,note_off,0,0,0,,4,,,52,127
56104,note_on,3,0,0,,4,,,52,127
56104,note_on,0,0,0,,10,,,57,127
56104,note_on,0,0,0,,0,,,60,127
56104,note_on,0,0,0,,8,,,68,127
56363,note_off,259,0,0,,0,,,60,127
56363,note_off,0,0,0,,10,,,57,127
56363,note_off,0,0,0,,4,,,52,127
56366,note_on,3,0,0,,4,,,52,127
56366,note_on,0,0,0,,10,,,57,127
56366,note_on,0,0,0,,0,,,60,127
56625,note_off,259,0,0,,0,,,60,127
56625,note_off,0,0,0,,10,,,57,127
56625,note_off,0,0,0,,4,,,52,127
56625,note_off,0,0,0,,8,,,68,127
56628,note_on,3,0,0,,4,,,52,127
56628,note_on,0,0,0,,10,,,57,127
56628,note_on,0,0,0,,0,,,60,127
56628,note_on,0,0,0,,10,,,69,127
56873,note_off,245,0,0,,10,,,69,127
56887,note_off,14,0,0,,0,,,60,127
56887,note_off,0,0,0,,10,,,57,127
56887,note_off,0,0,0,,4,,,52,127
56901,note_on,14,0,0,,4,,,52,127
56901,note_on,0,0,0,,10,,,57,127
56901,note_on,0,0,0,,0,,,60,127
56901,note_on,0,0,0,,0,,,72,127
57160,note_off,259,0,0,,0,,,72,127
57160,note_off,0,0,0,,0,,,60,127
57160,note_off,0,0,0,,10,,,57,127
57160,note_off,0,0,0,,4,,,52,127
57163,note_on,3,0,0,,4,,,52,127
57163,note_on,0,0,0,,10,,,57,127
57163,note_on,0,0,0,,0,,,60,127
57163,note_on,0,0,0,,0,,,72,127
57422,note_off,259,0,0,,0,,,60,127
57422,note_off,0,0,0,,10,,,57,127
57422,note_off,0,0,0,,4,,,52,127
57425,note_on,3,0,0,,4,,,52,127
57425,note_on,0,0,0,,10,,,57,127
57425,note_on,0,0,0,,0,,,60,127
57510,note_off,85,0,0,,0,,,72,127
57513,note_on,3,0,0,,12,,,71,127
57598,note_off,85,0,0,,12,,,71,127
57601,note_on,3,0,0,,2,,,74,127
57686,note_off,85,0,0,,2,,,74,127
57686,note_off,0,0,0,,0,,,60,127
57686,note_off,0,0,0,,10,,,57,127
57686,note_off,0,0,0,,4,,,52,127
57689,note_on,3,0,0,,4,,,52,127
57689,note_on,0,0,0,,10,,,57,127
57689,note_on,0,0,0,,0,,,60,127
57689,note_on,0,0,0,,0,,,72,127
57948,note_off,259,0,0,,0,,,60,127
57948,note_off,0,0,0,,10,,,57,127
57948,note_off,0,0,0,,4,,,52,127
57951,note_on,3,0,0,,4,,,52,127
57951,note_on,0,0,0,,10,,,57,127
57951,note_on,0,0,0,,0,,,60,127
58036,note_off,85,0,0,,0,,,72,127
58039,note_on,3,0,0,,12,,,71,127
58126,note_on,87,0,0,,12,,,83,127
58211,note_off,85,0,0,,12,,,83,127
58211,note_off,0,0,0,,12,,,71,127
58211,note_off,0,0,0,,0,,,60,127
58211,note_off,0,0,0,,10,,,57,127
58211,note_off,0,0,0,,4,,,52,127
58214,note_on,3,0,0,,3,,,51,127
58214,note_on,0,0,0,,10,,,57,127
58214,note_on,0,0,0,,0,,,60,127
58214,note_on,0,0,0,,0,,,72,127
58214,note_on,0,0,0,,12,,,83,127
58473,note_off,259,0,0,,0,,,60,127
58473,note_off,0,0,0,,10,,,57,127
58473,note_off,0,0,0,,3,,,51,127
58476,note_on,3,0,0,,3,,,51,127
58476,note_on,0,0,0,,10,,,57,127
58476,note_on,0,0,0,,0,,,60,127
58735,note_off,259,0,0,,0,,,60,127
58735,note_off,0,0,0,,10,,,57,127
58735,note_off,0,0,0,,3,,,51,127
58735,note_off,0,0,0,,12,,,83,127
58738,note_on,3,0,0,,3,,,51,127
58738,note_on,0,0,0,,10,,,57,127
58738,note_on,0,0,0,,0,,,60,127
58738,note_on,0,0,0,,10,,,81,127
58983,note_off,245,0,0,,10,,,81,127
58997,note_off,14,0,0,,0,,,60,127
58997,note_off,0,0,0,,10,,,57,127
58997,note_off,0,0,0,,3,,,51,127
58998,note_off,1,0,0,,0,,,72,127
59010,note_on,12,0,0,,3,,,51,127
59010,note_on,0,0,0,,10,,,57,127
59010,note_on,0,0,0,,0,,,60,127
59010,note_on,0,0,0,,10,,,81,127
59269,note_off,259,0,0,,10,,,81,127
59269,note_off,0,0,0,,0,,,60,127
59269,note_off,0,0,0,,10,,,57,127
59269,note_off,0,0,0,,3,,,51,127
59272,note_on,3,0,0,,2,,,50,127
59272,note_on,0,0,0,,10,,,57,127
59272,note_on,0,0,0,,0,,,60,127
59272,note_on,0,0,0,,0,,,72,127
59272,note_on,0,0,0,,10,,,81,127
59531,note_off,259,0,0,,0,,,60,127
59531,note_off,0,0,0,,10,,,57,127
59531,note_off,0,0,0,,2,,,50,127
59534,note_on,3,0,0,,2,,,50,127
59534,note_on,0,0,0,,10,,,57,127
59534,note_on,0,0,0,,0,,,60,127
59619,note_off,85,0,0,,10,,,81,127
59622,note_on,3,0,0,,8,,,80,127
59707,note_off,85,0,0,,8,,,80,127
59710,note_on,3,0,0,,12,,,83,127
59792,note_off,82,0,0,,0,,,72,127
59795,note_off,3,0,0,,12,,,83,127
59795,note_off,0,0,0,,0,,,60,127
59795,note_off,0,0,0,,10,,,57,127
59795,note_off,0,0,0,,2,,,50,127
59798,note_on,3,0,0,,2,,,50,127
59798,note_on,0,0,0,,10,,,57,127
59798,note_on,0,0,0,,0,,,60,127
59798,note_on,0,0,0,,10,,,81,127
59798,note_on,0,0,0,,0,,,72,127
60057,note_off,259,0,0,,0,,,60,127
60057,note_off,0,0,0,,10,,,57,127
60057,note_off,0,0,0,,2,,,50,127
60060,note_on,3,0,0,,2,,,50,127
60060,note_on,0,0,0,,10,,,57,127
60060,note_on,0,0,0,,0,,,60,127
60145,note_off,85,0,0,,10,,,81,127
60148,note_on,3,0,0,,8,,,80,127
60233,note_off,85,0,0,,8,,,80,127
60236,note_on,3,0,0,,12,,,83,127
60318,note_off,82,0,0,,0,,,72,127
60321,note_off,3,0,0,,12,,,83,127
60321,note_off,0,0,0,,0,,,60,127
60321,note_off,0,0,0,,10,,,57,127
60321,note_off,0,0,0,,2,,,50,127
60324,note_on,3,0,0,,1,,,49,127
60324,note_on,0,0,0,,1,,,61,127
60324,note_on,0,0,0,,6,,,78,127
60324,note_on,0,0,0,,1,,,73,127
60324,note_on,0,0,0,,12,,,83,127
60583,note_off,259,0,0,,12,,,83,127
60583,note_off,0,0,0,,6,,,78,127
60583,note_off,0,0,0,,1,,,61,127
60583,note_off,0,0,0,,1,,,49,127
60586,note_on,3,0,0,,1,,,49,127
60586,note_on,0,0,0,,1,,,61,127
60586,note_on,0,0,0,,8,,,80,127
60714,note_off,128,0,0,,8,,,80,127
60717,note_on,3,0,0,,6,,,78,127
60842,note_off,125,0,0,,1,,,73,127
60845,note_off,3,0,0,,6,,,78,127
60845,note_off,0,0,0,,1,,,61,127
60845,note_off,0,0,0,,1,,,49,127
60848,note_on,3,0,0,,1,,,49,127
60848,note_on,0,0,0,,1,,,61,127
60848,note_on,0,0,0,,5,,,77,127
60976,note_off,128,0,0,,5,,,77,127
60979,note_on,3,0,0,,12,,,83,127
61107,note_off,128,0,0,,12,,,83,127
61107,note_off,0,0,0,,1,,,61,127
61107,note_off,0,0,0,,1,,,49,127
61110,note_on,3,0,0,,1,,,49,127
61110,note_on,0,0,0,,1,,,61,127
61110,note_on,0,0,0,,2,,,74,127
61369,note_off,259,0,0,,1,,,61,127
61369,note_off,0,0,0,,1,,,49,127
61372,note_on,3,0,0,,6,,,54,127
61372,note_on,0,0,0,,1,,,61,127
61372,note_on,0,0,0,,4,,,64,127
61574,note_off,202,0,0,,2,,,74,127
61631,note_off,57,0,0,,4,,,64,127
61631,note_off,0,0,0,,1,,,61,127
61631,note_off,0,0,0,,6,,,54,127
61634,note_on,3,0,0,,6,,,54,127
61634,note_on,0,0,0,,1,,,61,127
61634,note_on,0,0,0,,4,,,64,127
61634,note_on,0,0,0,,1,,,73,127
61762,note_off,128,0,0,,1,,,73,127
61765,note_on,3,0,0,,12,,,71,127
61893,note_off,128,0,0,,12,,,71,127
61893,note_off,0,0,0,,4,,,64,127
61893,note_off,0,0,0,,1,,,61,127
61893,note_off,0,0,0,,6,,,54,127
61896,note_on,3,0,0,,6,,,54,127
61896,note_on,0,0,0,,1,,,61,127
61896,note_on,0,0,0,,4,,,64,127
61896,note_on,0,0,0,,11,,,70,127
62024,note_off,128,0,0,,11,,,70,127
62027,note_on,3,0,0,,4,,,76,127
62155,note_off,128,0,0,,4,,,76,127
62155,note_off,0,0,0,,4,,,64,127
62155,note_off,0,0,0,,1,,,61,127
62155,note_off,0,0,0,,6,,,54,127
62158,note_on,3,0,0,,6,,,54,127
62158,note_on,0,0,0,,1,,,61,127
62158,note_on,0,0,0,,4,,,64,127
62158,note_on,0,0,0,,7,,,79,127
62417,note_off,259,0,0,,4,,,64,127
62417,note_off,0,0,0,,1,,,61,127
62417,note_off,0,0,0,,6,,,54,127
62420,note_on,3,0,0,,12,,,47,127
62420,note_on,0,0,0,,6,,,54,127
62420,note_on,0,0,0,,10,,,57,127
62622,note_off,202,0,0,,7,,,79,127
62679,note_off,57,0,0,,10,,,57,127
62679,note_off,0,0,0,,6,,,54,127
62679,note_off,0,0,0,,12,,,47,127
62682,note_on,3,0,0,,12,,,47,127
62682,note_on,0,0,0,,6,,,54,127
62682,note_on,0,0,0,,10,,,57,127
62682,note_on,0,0,0,,6,,,78,127
62810,note_off,128,0,0,,6,,,78,127
62813,note_on,3,0,0,,4,,,76,127
62941,note_off,128,0,0,,4,,,76,127
62941,note_off,0,0,0,,10,,,57,127
62941,note_off,0,0,0,,6,,,54,127
62941,note_off,0,0,0,,12,,,47,127
62944,note_on,3,0,0,,6,,,54,127
62944,note_on,0,0,0,,12,,,47,127
62944,note_on,0,0,0,,10,,,57,127
62944,note_on,0,0,0,,3,,,75,127
63072,note_off,128,0,0,,3,,,75,127
63075,note_on,3,0,0,,10,,,81,127
63203,note_off,128,0,0,,10,,,81,127
63203,note_off,0,0,0,,10,,,57,127
63203,note_off,0,0,0,,12,,,47,127
63203,note_off,0,0,0,,6,,,54,127
63206,note_on,3,0,0,,12,,,47,127
63206,note_on,0,0,0,,10,,,57,127
63206,note_on,0,0,0,,6,,,54,127
63206,note_on,0,0,0,,0,,,72,127
63465,note_off,259,0,0,,6,,,54,127
63465,note_off,0,0,0,,10,,,57,127
63465,note_off,0,0,0,,12,,,47,127
63468,note_on,3,0,0,,4,,,52,127
63468,note_on,0,0,0,,12,,,59,127
63468,note_on,0,0,0,,2,,,62,127
63670,note_off,202,0,0,,0,,,72,127
63727,note_off,57,0,0,,2,,,62,127
63727,note_off,0,0,0,,12,,,59,127
63727,note_off,0,0,0,,4,,,52,127
63730,note_on,3,0,0,,4,,,52,127
63730,note_on,0,0,0,,12,,,59,127
63730,note_on,0,0,0,,2,,,62,127
63730,note_on,0,0,0,,12,,,71,127
63858,note_off,128,0,0,,12,,,71,127
63861,note_on,3,0,0,,10,,,69,127
63989,note_off,128,0,0,,10,,,69,127
63989,note_off,0,0,0,,2,,,62,127
63989,note_off,0,0,0,,12,,,59,127
63989,note_off,0,0,0,,4,,,52,127
63992,note_on,3,0,0,,4,,,52,127
63992,note_on,0,0,0,,12,,,59,127
63992,note_on,0,0,0,,2,,,62,127
63992,note_on,0,0,0,,8,,,68,127
64120,note_off,128,0,0,,8,,,68,127
64123,note_on,3,0,0,,2,,,74,127
64251,note_off,128,0,0,,2,,,74,127
64251,note_off,0,0,0,,2,,,62,127
64251,note_off,0,0,0,,12,,,59,127
64251,note_off,0,0,0,,4,,,52,127
64254,note_on,3,0,0,,4,,,52,127
64254,note_on,0,0,0,,12,,,59,127
64254,note_on,0,0,0,,2,,,62,127
64254,note_on,0,0,0,,5,,,77,127
64513,note_off,259,0,0,,2,,,62,127
64513,note_off,0,0,0,,12,,,59,127
64513,note_off,0,0,0,,4,,,52,127
64516,note_on,3,0,0,,10,,,45,127
64516,note_on,0,0,0,,4,,,52,127
64516,note_on,0,0,0,,7,,,55,127
64718,note_off,202,0,0,,5,,,77,127
64775,note_off,57,0,0,,7,,,55,127
64775,note_off,0,0,0,,4,,,52,127
64775,note_off,0,0,0,,10,,,45,127
64778,note_on,3,0,0,,10,,,45,127
64778,note_on,0,0,0,,4,,,52,127
64778,note_on,0,0,0,,7,,,55,127
64778,note_on,0,0,0,,4,,,76,127
64906,note_off,128,0,0,,4,,,76,127
64909,note_on,3,0,0,,2,,,74,127
65037,note_off,128,0,0,,2,,,74,127
65037,note_off,0,0,0,,7,,,55,127
65037,note_off,0,0,0,,4,,,52,127
65037,note_off,0,0,0,,10,,,45,127
65040,note_on,3,0,0,,10,,,45,127
65040,note_on,0,0,0,,4,,,52,127
65040,note_on,0,0,0,,7,,,55,127
65040,note_on,0,0,0,,1,,,73,127
65168,note_off,128,0,0,,1,,,73,127
65171,note_on,3,0,0,,7,,,79,127
65299,note_off,128,0,0,,7,,,79,127
65299,note_off,0,0,0,,7,,,55,127
65299,note_off,0,0,0,,4,,,52,127
65299,note_off,0,0,0,,10,,,45,127
65302,note_on,3,0,0,,10,,,45,127
65302,note_on,0,0,0,,4,,,52,127
65302,note_on,0,0,0,,7,,,55,127
65302,note_on,0,0,0,,11,,,70,127
65561,note_off,259,0,0,,7,,,55,127
65561,note_off,0,0,0,,4,,,52,127
65561,note_off,0,0,0,,10,,,45,127
65564,note_on,3,0,0,,2,,,50,127
65564,note_on,0,0,0,,10,,,57,127
65564,note_on,0,0,0,,0,,,60,127
65766,note_off,202,0,0,,11,,,70,127
65823,note_off,57,0,0,,0,,,60,127
65823,note_off,0,0,0,,10,,,57,127
65823,note_off,0,0,0,,2,,,50,127
65826,note_on,3,0,0,,2,,,50,127
65826,note_on,0,0,0,,0,,,60,127
65826,note_on,0,0,0,,10,,,57,127
65826,note_on,0,0,0,,10,,,69,127
65954,note_off,128,0,0,,10,,,69,127
65957,note_on,3,0,0,,7,,,67,127
66085,note_off,128,0,0,,7,,,67,127
66085,note_off,0,0,0,,10,,,57,127
66085,note_off,0,0,0,,0,,,60,127
66085,note_off,0,0,0,,2,,,50,127
66088,note_on,3,0,0,,10,,,57,127
66088,note_on,0,0,0,,2,,,50,127
66088,note_on,0,0,0,,0,,,60,127
66088,note_on,0,0,0,,6,,,66,127
66216,note_off,128,0,0,,6,,,66,127
66219,note_on,3,0,0,,0,,,72,127
66347,note_off,128,0,0,,0,,,72,127
66347,note_off,0,0,0,,0,,,60,127
66347,note_off,0,0,0,,2,,,50,127
66347,note_off,0,0,0,,10,,,57,127
66350,note_on,3,0,0,,10,,,57,127
66350,note_on,0,0,0,,2,,,50,127
66350,note_on,0,0,0,,0,,,60,127
66350,note_on,0,0,0,,3,,,75,127
66609,note_off,259,0,0,,0,,,60,127
66609,note_off,0,0,0,,2,,,50,127
66609,note_off,0,0,0,,10,,,57,127
66612,note_on,3,0,0,,2,,,50,127
66612,note_on,0,0,0,,7,,,43,127
66612,note_on,0,0,0,,7,,,55,127
66814,note_off,202,0,0,,3,,,75,127
66871,note_off,57,0,0,,7,,,55,127
66871,note_off,0,0,0,,7,,,43,127
66871,note_off,0,0,0,,2,,,50,127
66874,note_on,3,0,0,,2,,,50,127
66874,note_on,0,0,0,,7,,,43,127
66874,note_on,0,0,0,,7,,,55,127
66874,note_on,0,0,0,,2,,,74,127
67002,note_off,128,0,0,,2,,,74,127
67005,note_on,3,0,0,,0,,,72,127
67133,note_off,128,0,0,,0,,,72,127
67133,note_off,0,0,0,,7,,,55,127
67133,note_off,0,0,0,,7,,,43,127
67133,note_off,0,0,0,,2,,,50,127
67136,note_on,3,0,0,,7,,,43,127
67136,note_on,0,0,0,,7,,,55,127
67136,note_on,0,0,0,,11,,,70,127
67264,note_off,128,0,0,,11,,,70,127
67267,note_on,3,0,0,,7,,,67,127
67395,note_off,128,0,0,,7,,,55,127
67395,note_off,0,0,0,,7,,,43,127
67406,note_off,11,0,0,,7,,,67,127
67409,note_on,3,0,0,,10,,,57,127
67409,note_on,0,0,0,,10,,,45,127
67409,note_on,0,0,0,,7,,,79,127
67409,note_on,0,0,0,,1,,,73,127
67537,note_off,128,0,0,,1,,,73,127
67540,note_on,3,0,0,,7,,,67,127
67605,note_off,65,0,0,,7,,,79,127
67668,note_off,63,0,0,,7,,,67,127
67668,note_off,0,0,0,,10,,,45,127
67668,note_off,0,0,0,,10,,,57,127
67671,note_on,3,0,0,,10,,,45,127
67671,note_on,0,0,0,,11,,,58,127
67671,note_on,0,0,0,,2,,,74,127
67671,note_on,0,0,0,,7,,,79,127
67799,note_off,128,0,0,,2,,,74,127
67802,note_on,3,0,0,,7,,,67,127
67867,note_off,65,0,0,,7,,,79,127
67930,note_off,63,0,0,,7,,,67,127
67930,note_off,0,0,0,,11,,,58,127
67930,note_off,0,0,0,,10,,,45,127
67933,note_on,3,0,0,,10,,,45,127
67933,note_on,0,0,0,,10,,,57,127
67933,note_on,0,0,0,,1,,,73,127
67933,note_on,0,0,0,,7,,,79,127
68061,note_off,128,0,0,,1,,,73,127
68064,note_on,3,0,0,,7,,,67,127
68129,note_off,65,0,0,,7,,,79,127
68192,note_off,63,0,0,,7,,,67,127
68192,note_off,0,0,0,,10,,,57,127
68192,note_off,0,0,0,,10,,,45,127
68195,note_on,3,0,0,,10,,,45,127
68195,note_on,0,0,0,,11,,,58,127
68195,note_on,0,0,0,,2,,,74,127
68195,note_on,0,0,0,,7,,,79,127
68323,note_off,128,0,0,,2,,,74,127
68326,note_on,3,0,0,,7,,,67,127
68391,note_off,65,0,0,,7,,,79,127
68454,note_off,63,0,0,,7,,,67,127
68454,note_off,0,0,0,,11,,,58,127
68454,note_off,0,0,0,,10,,,45,127
68457,note_on,3,0,0,,10,,,45,127
68457,note_on,0,0,0,,10,,,57,127
68457,note_on,0,0,0,,1,,,73,127
68457,note_on,0,0,0,,7,,,79,127
68585,note_off,128,0,0,,1,,,73,127
68588,note_on,3,0,0,,7,,,67,127
68653,note_off,65,0,0,,7,,,79,127
68716,note_off,63,0,0,,7,,,67,127
68716,note_off,0,0,0,,10,,,57,127
68716,note_off,0,0,0,,10,,,45,127
68719,note_on,3,0,0,,10,,,45,127
68719,note_on,0,0,0,,11,,,58,127
68719,note_on,0,0,0,,2,,,74,127
68847,note_off,128,0,0,,2,,,74,127
68850,note_on,3,0,0,,1,,,73,127
68978,note_off,128,0,0,,1,,,73,127
68978,note_off,0,0,0,,11,,,58,127
68978,note_off,0,0,0,,10,,,45,127
68981,note_on,3,0,0,,7,,,55,127
68981,note_on,0,0,0,,10,,,45,127
68981,note_on,0,0,0,,2,,,74,127
69109,note_off,128,0,0,,2,,,74,127
69112,note_on,3,0,0,,4,,,76,127
69240,note_off,128,0,0,,4,,,76,127
69240,note_off,0,0,0,,10,,,45,127
69240,note_off,0,0,0,,7,,,55,127
69243,note_on,3,0,0,,10,,,45,127
69243,note_on,0,0,0,,10,,,57,127
69243,note_on,0,0,0,,2,,,74,127
69298,note_on,55,0,0,,1,,,73,127
69306,note_off,8,0,0,,2,,,74,127
69352,note_on,46,0,0,,2,,,74,127
69360,note_off,8,0,0,,1,,,73,127
69406,note_on,46,0,0,,1,,,73,127
69414,note_off,8,0,0,,2,,,74,127
69460,note_on,46,0,0,,2,,,74,127
69468,note_off,8,0,0,,1,,,73,127
69514,note_on,46,0,0,,1,,,73,127
69522,note_off,8,0,0,,2,,,74,127
69759,note_off,237,0,0,,10,,,45,127
69786,note_off,27,0,0,,10,,,57,127
69798,note_on,12,0,0,,2,,,74,127
69838,note_off,40,0,0,,1,,,73,127
69895,note_on,57,0,0,,4,,,76,127
69913,note_off,18,0,0,,2,,,74,127
69958,note_off,45,0,0,,4,,,76,127
69958,note_on,0,0,0,,6,,,78,127
70021,note_off,63,0,0,,6,,,78,127
70021,note_on,0,0,0,,7,,,79,127
70073,note_on,52,0,0,,10,,,81,127
70084,note_off,11,0,0,,7,,,79,127
70136,note_off,52,0,0,,10,,,81,127
70136,note_on,0,0,0,,7,,,79,127
70180,note_on,44,0,0,,6,,,78,127
70199,note_off,19,0,0,,7,,,79,127
70224,note_on,25,0,0,,4,,,76,127
70243,note_off,19,0,0,,6,,,78,127
70268,note_on,25,0,0,,2,,,74,127
70287,note_off,19,0,0,,4,,,76,127
70312,note_on,25,0,0,,1,,,73,127
70331,note_off,19,0,0,,2,,,74,127
70356,note_on,25,0,0,,12,,,71,127
70375,note_off,19,0,0,,1,,,73,127
70400,note_on,25,0,0,,10,,,69,127
70419,note_off,19,0,0,,12,,,71,127
70444,note_on,25,0,0,,7,,,67,127
70463,note_off,19,0,0,,10,,,69,127
70488,note_on,25,0,0,,6,,,66,127
70507,note_off,19,0,0,,7,,,67,127
70532,note_on,25,0,0,,4,,,64,127
70551,note_off,19,0,0,,6,,,66,127
70576,note_on,25,0,0,,2,,,62,127
70595,note_off,19,0,0,,4,,,64,127
70620,note_on,25,0,0,,1,,,61,127
70639,note_off,19,0,0,,2,,,62,127
70664,note_on,25,0,0,,12,,,59,127
70683,note_off,19,0,0,,1,,,61,127
70708,note_on,25,0,0,,10,,,57,127
70727,note_off,19,0,0,,12,,,59,127
70752,note_on,25,0,0,,7,,,55,127
70771,note_off,19,0,0,,10,,,57,127
70796,note_on,25,0,0,,6,,,54,127
70815,note_off,19,0,0,,7,,,55,127
70840,note_on,25,0,0,,4,,,52,127
70859,note_off,19,0,0,,6,,,54,127
70890,note_on,31,0,0,,2,,,50,127
70902,note_off,12,0,0,,4,,,52,127
70950,note_on,48,0,0,,1,,,49,127
70953,note_off,3,0,0,,2,,,50,127
71008,note_on,55,0,0,,12,,,47,127
71013,note_off,5,0,0,,1,,,49,127
71070,note_off,57,0,0,,12,,,47,127
71075,note_on,5,0,0,,10,,,45,127
71859,note_off,784,0,0,,10,,,45,127
72301,note_on,442,0,0,,2,,,62,127
72560,note_off,259,0,0,,2,,,62,127
72563,note_on,3,0,0,,10,,,45,127
72563,note_on,0,0,0,,1,,,61,127
72648,note_off,85,0,0,,1,,,61,127
72651,note_on,3,0,0,,12,,,59,127
72736,note_off,85,0,0,,12,,,59,127
72739,note_on,3,0,0,,10,,,57,127
72824,note_off,85,0,0,,10,,,57,127
72824,note_off,0,0,0,,10,,,45,127
72827,note_on,3,0,0,,10,,,45,127
72827,note_on,0,0,0,,4,,,64,127
72912,note_off,85,0,0,,4,,,64,127
72915,note_on,3,0,0,,2,,,62,127
73000,note_off,85,0,0,,2,,,62,127
73003,note_on,3,0,0,,1,,,61,127
73088,note_off,85,0,0,,1,,,61,127
73088,note_off,0,0,0,,10,,,45,127
73091,note_on,3,0,0,,10,,,45,127
73091,note_on,0,0,0,,4,,,52,127
73091,note_on,0,0,0,,7,,,55,127
73091,note_on,0,0,0,,7,,,67,127
73176,note_off,85,0,0,,7,,,67,127
73179,note_on,3,0,0,,6,,,66,127
73264,note_off,85,0,0,,6,,,66,127
73267,note_on,3,0,0,,4,,,64,127
73352,note_off,85,0,0,,4,,,64,127
73352,note_off,0,0,0,,7,,,55,127
73352,note_off,0,0,0,,4,,,52,127
73352,note_off,0,0,0,,10,,,45,127
73355,note_on,3,0,0,,10,,,45,127
73355,note_on,0,0,0,,7,,,55,127
73355,note_on,0,0,0,,4,,,52,127
73355,note_on,0,0,0,,4,,,64,127
73355,note_on,0,0,0,,1,,,73,127
73614,note_off,259,0,0,,1,,,73,127
73614,note_off,0,0,0,,4,,,64,127
73614,note_off,0,0,0,,4,,,52,127
73614,note_off,0,0,0,,7,,,55,127
73614,note_off,0,0,0,,10,,,45,127
73617,note_on,3,0,0,,10,,,45,127
73617,note_on,0,0,0,,2,,,50,127
73617,note_on,0,0,0,,6,,,54,127
73617,note_on,0,0,0,,4,,,64,127
73617,note_on,0,0,0,,1,,,73,127
73876,note_off,259,0,0,,1,,,73,127
73876,note_off,0,0,0,,4,,,64,127
73876,note_off,0,0,0,,6,,,54,127
73876,note_off,0,0,0,,2,,,50,127
73876,note_off,0,0,0,,10,,,45,127
73879,note_on,3,0,0,,10,,,45,127
73879,note_on,0,0,0,,2,,,50,127
73879,note_on,0,0,0,,6,,,54,127
73879,note_on,0,0,0,,2,,,74,127
73879,note_on,0,0,0,,6,,,66,127
74007,note_off,128,0,0,,6,,,66,127
74007,note_off,0,0,0,,2,,,74,127
74010,note_on,3,0,0,,1,,,73,127
74010,note_on,0,0,0,,4,,,64,127
74138,note_off,128,0,0,,4,,,64,127
74138,note_off,0,0,0,,1,,,73,127
74138,note_off,0,0,0,,6,,,54,127
74138,note_off,0,0,0,,2,,,50,127
74138,note_off,0,0,0,,10,,,45,127
74141,note_on,3,0,0,,10,,,45,127
74141,note_on,0,0,0,,2,,,50,127
74141,note_on,0,0,0,,6,,,54,127
74141,note_on,0,0,0,,6,,,66,127
74141,note_on,0,0,0,,2,,,74,127
74386,note_off,245,0,0,,2,,,74,127
74400,note_off,14,0,0,,6,,,54,127
74400,note_off,0,0,0,,2,,,50,127
74400,note_off,0,0,0,,10,,,45,127
74412,note_off,12,0,0,,6,,,66,127
74413,note_on,1,0,0,,10,,,45,127
74413,note_on,0,0,0,,2,,,62,127
74672,note_off,259,0,0,,2,,,62,127
74672,note_off,0,0,0,,10,,,45,127
74675,note_on,3,0,0,,10,,,45,127
74675,note_on,0,0,0,,1,,,61,127
74760,note_off,85,0,0,,1,,,61,127
74763,note_on,3,0,0,,12,,,59,127
74848,note_off,85,0,0,,12,,,59,127
74851,note_on,3,0,0,,10,,,57,127
74936,note_off,85,0,0,,10,,,57,127
74936,note_off,0,0,0,,10,,,45,127
74939,note_on,3,0,0,,10,,,45,127
74939,note_on,0,0,0,,4,,,64,127
75024,note_off,85,0,0,,4,,,64,127
75027,note_on,3,0,0,,2,,,62,127
75112,note_off,85,0,0,,2,,,62,127
75115,note_on,3,0,0,,1,,,61,127
75200,note_off,85,0,0,,1,,,61,127
75200,note_off,0,0,0,,10,,,45,127
75203,note_on,3,0,0,,10,,,45,127
75203,note_on,0,0,0,,4,,,52,127
75203,note_on,0,0,0,,7,,,55,127
75203,note_on,0,0,0,,7,,,67,127
75288,note_off,85,0,0,,7,,,67,127
75291,note_on,3,0,0,,6,,,66,127
75376,note_off,85,0,0,,6,,,66,127
75379,note_on,3,0,0,,4,,,64,127
75464,note_off,85,0,0,,4,,,64,127
75464,note_off,0,0,0,,7,,,55,127
75464,note_off,0,0,0,,4,,,52,127
75464,note_off,0,0,0,,10,,,45,127
75467,note_on,3,0,0,,10,,,45,127
75467,note_on,0,0,0,,4,,,52,127
75467,note_on,0,0,0,,7,,,55,127
75467,note_on,0,0,0,,4,,,64,127
75467,note_on,0,0,0,,1,,,73,127
75726,note_off,259,0,0,,1,,,73,127
75726,note_off,0,0,0,,4,,,64,127
75726,note_off,0,0,0,,7,,,55,127
75726,note_off,0,0,0,,4,,,52,127
75726,note_off,0,0,0,,10,,,45,127
75729,note_on,3,0,0,,10,,,45,127
75729,note_on,0,0,0,,2,,,50,127
75729,note_on,0,0,0,,6,,,54,127
75729,note_on,0,0,0,,1,,,73,127
75729,note_on,0,0,0,,4,,,64,127
75988,note_off,259,0,0,,4,,,64,127
75988,note_off,0,0,0,,1,,,73,127
75988,note_off,0,0,0,,6,,,54,127
75988,note_off,0,0,0,,2,,,50,127
75988,note_off,0,0,0,,10,,,45,127
75991,note_on,3,0,0,,10,,,45,127
75991,note_on,0,0,0,,2,,,50,127
75991,note_on,0,0,0,,6,,,54,127
75991,note_on,0,0,0,,2,,,74,127
75991,note_on,0,0,0,,6,,,66,127
76119,note_off,128,0,0,,6,,,66,127
76119,note_off,0,0,0,,2,,,74,127
76122,note_on,3,0,0,,4,,,64,127
76122,note_on,0,0,0,,1,,,73,127
76250,note_off,128,0,0,,1,,,73,127
76250,note_off,0,0,0,,4,,,64,127
76250,note_off,0,0,0,,6,,,54,127
76250,note_off,0,0,0,,2,,,50,127
76250,note_off,0,0,0,,10,,,45,127
76253,note_on,3,0,0,,10,,,45,127
76253,note_on,0,0,0,,2,,,50,127
76253,note_on,0,0,0,,6,,,54,127
76253,note_on,0,0,0,,2,,,74,127
76253,note_on,0,0,0,,6,,,66,127
76498,note_off,245,0,0,,2,,,74,127
76512,note_off,14,0,0,,6,,,54,127
76512,note_off,0,0,0,,2,,,50,127
76512,note_off,0,0,0,,10,,,45,127
76526,note_on,14,0,0,,10,,,45,127
76526,note_on,0,0,0,,2,,,62,127
76537,note_off,11,0,0,,6,,,66,127
76785,note_off,248,0,0,,2,,,62,127
76785,note_off,0,0,0,,10,,,45,127
76788,note_on,3,0,0,,10,,,45,127
76788,note_on,0,0,0,,1,,,61,127
76873,note_off,85,0,0,,1,,,61,127
76876,note_on,3,0,0,,12,,,59,127
76961,note_off,85,0,0,,12,,,59,127
76964,note_on,3,0,0,,10,,,57,127
77049,note_off,85,0,0,,10,,,57,127
77049,note_off,0,0,0,,10,,,45,127
77052,note_on,3,0,0,,10,,,45,127
77052,note_on,0,0,0,,4,,,64,127
77137,note_off,85,0,0,,4,,,64,127
77140,note_on,3,0,0,,2,,,62,127
77225,note_off,85,0,0,,2,,,62,127
77228,note_on,3,0,0,,1,,,61,127
77313,note_off,85,0,0,,1,,,61,127
77313,note_off,0,0,0,,10,,,45,127
77316,note_on,3,0,0,,10,,,57,127
77316,note_on,0,0,0,,7,,,67,127
77401,note_off,85,0,0,,7,,,67,127
77404,note_on,3,0,0,,6,,,66,127
77489,note_off,85,0,0,,6,,,66,127
77492,note_on,3,0,0,,4,,,64,127
77577,note_off,85,0,0,,4,,,64,127
77577,note_off,0,0,0,,10,,,57,127
77580,note_on,3,0,0,,7,,,55,127
77580,note_on,0,0,0,,4,,,76,127
77580,note_on,0,0,0,,1,,,85,127
77839,note_off,259,0,0,,1,,,85,127
77839,note_off,0,0,0,,4,,,76,127
77839,note_off,0,0,0,,7,,,55,127
77842,note_on,3,0,0,,6,,,54,127
77842,note_on,0,0,0,,2,,,62,127
77842,note_on,0,0,0,,4,,,76,127
77842,note_on,0,0,0,,1,,,85,127
78101,note_off,259,0,0,,1,,,85,127
78101,note_off,0,0,0,,4,,,76,127
78104,note_on,3,0,0,,6,,,78,127
78104,note_on,0,0,0,,2,,,86,127
78232,note_off,128,0,0,,2,,,86,127
78232,note_off,0,0,0,,6,,,78,127
78235,note_on,3,0,0,,1,,,85,127
78235,note_on,0,0,0,,4,,,76,127
78363,note_off,128,0,0,,4,,,76,127
78363,note_off,0,0,0,,1,,,85,127
78366,note_on,3,0,0,,4,,,76,127
78366,note_on,0,0,0,,1,,,85,127
78625,note_off,259,0,0,,1,,,85,127
78625,note_off,0,0,0,,4,,,76,127
78625,note_off,0,0,0,,2,,,62,127
78625,note_off,0,0,0,,6,,,54,127
78639,note_on,14,0,0,,2,,,86,127
78639,note_on,0,0,0,,6,,,78,127
78639,note_on,0,0,0,,2,,,62,127
78639,note_on,0,0,0,,6,,,54,127
78884,note_off,245,0,0,,6,,,78,127
78884,note_off,0,0,0,,2,,,86,127
78898,note_off,14,0,0,,6,,,54,127
78898,note_off,0,0,0,,2,,,62,127
78912,note_on,14,0,0,,12,,,83,127
78912,note_on,0,0,0,,2,,,62,127
78912,note_on,0,0,0,,7,,,55,127
78997,note_off,85,0,0,,12,,,83,127
79000,note_on,3,0,0,,10,,,81,127
79085,note_off,85,0,0,,10,,,81,127
79088,note_on,3,0,0,,7,,,79,127
79173,note_off,85,0,0,,7,,,79,127
79173,note_off,0,0,0,,7,,,55,127
79173,note_off,0,0,0,,2,,,62,127
79176,note_on,3,0,0,,6,,,78,127
79176,note_on,0,0,0,,2,,,62,127
79176,note_on,0,0,0,,7,,,67,127
79176,note_on,0,0,0,,7,,,55,127
79261,note_off,85,0,0,,6,,,78,127
79264,note_on,3,0,0,,4,,,76,127
79349,note_off,85,0,0,,4,,,76,127
79352,note_on,3,0,0,,2,,,74,127
79437,note_off,85,0,0,,2,,,74,127
79437,note_off,0,0,0,,7,,,55,127
79437,note_off,0,0,0,,7,,,67,127
79437,note_off,0,0,0,,2,,,62,127
79440,note_on,3,0,0,,10,,,81,127
79440,note_on,0,0,0,,6,,,66,127
79440,note_on,0,0,0,,10,,,57,127
79440,note_on,0,0,0,,2,,,62,127
79699,note_off,259,0,0,,2,,,62,127
79699,note_off,0,0,0,,6,,,66,127
79699,note_off,0,0,0,,10,,,81,127
79702,note_on,3,0,0,,1,,,73,127
79702,note_on,0,0,0,,4,,,64,127
79958,note_off,256,0,0,,10,,,57,127
79961,note_off,3,0,0,,4,,,64,127
79961,note_off,0,0,0,,1,,,73,127
79964,note_on,3,0,0,,1,,,73,127
79964,note_on,0,0,0,,2,,,50,127
80223,note_off,259,0,0,,1,,,73,127
80226,note_on,3,0,0,,2,,,74,127
80485,note_off,259,0,0,,2,,,74,127
80488,note_on,3,0,0,,10,,,69,127
80720,note_off,232,0,0,,10,,,69,127
80747,note_off,27,0,0,,2,,,50,127
80761,note_on,14,0,0,,2,,,74,127
80761,note_on,0,0,0,,2,,,50,127
81020,note_off,259,0,0,,2,,,50,127
81020,note_off,0,0,0,,2,,,74,127
81023,note_on,3,0,0,,1,,,49,127
81023,note_on,0,0,0,,4,,,76,127
81108,note_off,85,0,0,,1,,,49,127
81111,note_on,3,0,0,,12,,,47,127
81196,note_off,85,0,0,,12,,,47,127
81199,note_on,3,0,0,,10,,,45,127
81284,note_off,85,0,0,,10,,,45,127
81284,note_off,0,0,0,,4,,,76,127
81287,note_on,3,0,0,,4,,,52,127
81287,note_on,0,0,0,,1,,,73,127
81372,note_off,85,0,0,,4,,,52,127
81375,note_on,3,0,0,,2,,,50,127
81460,note_off,85,0,0,,2,,,50,127
81463,note_on,3,0,0,,1,,,49,127
81548,note_off,85,0,0,,1,,,49,127
81551,note_on,3,0,0,,7,,,55,127
81636,note_off,85,0,0,,7,,,55,127
81639,note_on,3,0,0,,6,,,54,127
81724,note_off,85,0,0,,6,,,54,127
81727,note_on,3,0,0,,4,,,52,127
81754,note_off,27,0,0,,1,,,73,127
81811,note_off,57,0,0,,4,,,52,127
81814,note_on,3,0,0,,4,,,52,127
81814,note_on,0,0,0,,1,,,61,127
81814,note_on,0,0,0,,7,,,67,127
82073,note_off,259,0,0,,1,,,61,127
82073,note_off,0,0,0,,4,,,52,127
82076,note_on,3,0,0,,1,,,61,127
82076,note_on,0,0,0,,4,,,52,127
82335,note_off,259,0,0,,4,,,52,127
82335,note_off,0,0,0,,1,,,61,127
82335,note_off,0,0,0,,7,,,67,127
82338,note_on,3,0,0,,6,,,54,127
82338,note_on,0,0,0,,2,,,62,127
82338,note_on,0,0,0,,10,,,69,127
82466,note_off,128,0,0,,10,,,69,127
82466,note_off,0,0,0,,2,,,62,127
82466,note_off,0,0,0,,6,,,54,127
82469,note_on,3,0,0,,4,,,52,127
82469,note_on,0,0,0,,1,,,61,127
82469,note_on,0,0,0,,7,,,67,127
82597,note_off,128,0,0,,7,,,67,127
82597,note_off,0,0,0,,1,,,61,127
82597,note_off,0,0,0,,4,,,52,127
82600,note_on,3,0,0,,2,,,62,127
82600,note_on,0,0,0,,6,,,54,127
82600,note_on,0,0,0,,10,,,69,127
82859,note_off,259,0,0,,10,,,69,127
82859,note_off,0,0,0,,6,,,54,127
82859,note_off,0,0,0,,2,,,62,127
82873,note_on,14,0,0,,2,,,50,127
82873,note_on,0,0,0,,2,,,74,127
83132,note_off,259,0,0,,2,,,74,127
83132,note_off,0,0,0,,2,,,50,127
83135,note_on,3,0,0,,1,,,49,127
83135,note_on,0,0,0,,4,,,76,127
83220,note_off,85,0,0,,1,,,49,127
83223,note_on,3,0,0,,12,,,47,127
83308,note_off,85,0,0,,12,,,47,127
83311,note_on,3,0,0,,10,,,45,127
83396,note_off,85,0,0,,10,,,45,127
83396,note_off,0,0,0,,4,,,76,127
83399,note_on,3,0,0,,4,,,52,127
83399,note_on,0,0,0,,1,,,73,127
83484,note_off,85,0,0,,4,,,52,127
83487,note_on,3,0,0,,2,,,50,127
83572,note_off,85,0,0,,2,,,50,127
83575,note_on,3,0,0,,1,,,49,127
83660,note_off,85,0,0,,1,,,49,127
83663,note_on,3,0,0,,7,,,55,127
83748,note_off,85,0,0,,7,,,55,127
83751,note_on,3,0,0,,6,,,54,127
83836,note_off,85,0,0,,6,,,54,127
83839,note_on,3,0,0,,4,,,52,127
83866,note_off,27,0,0,,1,,,73,127
83923,note_off,57,0,0,,4,,,52,127
83926,note_on,3,0,0,,1,,,61,127
83926,note_on,0,0,0,,4,,,64,127
83926,note_on,0,0,0,,7,,,67,127
84185,note_off,259,0,0,,4,,,64,127
84185,note_off,0,0,0,,1,,,61,127
84188,note_on,3,0,0,,1,,,61,127
84188,note_on,0,0,0,,4,,,64,127
84447,note_off,259,0,0,,4,,,64,127
84447,note_off,0,0,0,,1,,,61,127
84447,note_off,0,0,0,,7,,,67,127
84450,note_on,3,0,0,,2,,,62,127
84450,note_on,0,0,0,,6,,,66,127
84450,note_on,0,0,0,,10,,,69,127
84578,note_off,128,0,0,,10,,,69,127
84578,note_off,0,0,0,,6,,,66,127
84578,note_off,0,0,0,,2,,,62,127
84581,note_on,3,0,0,,1,,,61,127
84581,note_on,0,0,0,,4,,,64,127
84581,note_on,0,0,0,,7,,,67,127
84709,note_off,128,0,0,,7,,,67,127
84709,note_off,0,0,0,,4,,,64,127
84709,note_off,0,0,0,,1,,,61,127
84712,note_on,3,0,0,,2,,,62,127
84712,note_on,0,0,0,,6,,,66,127
84712,note_on,0,0,0,,10,,,69,127
84971,note_off,259,0,0,,6,,,66,127
84971,note_off,0,0,0,,2,,,62,127
84982,note_off,11,0,0,,10,,,69,127
84985,note_on,3,0,0,,2,,,50,127
84985,note_on,0,0,0,,2,,,74,127
85244,note_off,259,0,0,,2,,,74,127
85244,note_off,0,0,0,,2,,,50,127
85247,note_on,3,0,0,,1,,,49,127
85247,note_on,0,0,0,,4,,,76,127
85332,note_off,85,0,0,,1,,,49,127
85335,note_on,3,0,0,,12,,,47,127
85420,note_off,85,0,0,,12,,,47,127
85423,note_on,3,0,0,,10,,,45,127
85508,note_off,85,0,0,,10,,,45,127
85508,note_off,0,0,0,,4,,,76,127
85511,note_on,3,0,0,,4,,,52,127
85511,note_on,0,0,0,,1,,,73,127
85596,note_off,85,0,0,,4,,,52,127
85599,note_on,3,0,0,,2,,,50,127
85684,note_off,85,0,0,,2,,,50,127
85687,note_on,3,0,0,,1,,,49,127
85772,note_off,85,0,0,,1,,,49,127
85775,note_on,3,0,0,,7,,,55,127
85860,note_off,85,0,0,,7,,,55,127
85863,note_on,3,0,0,,6,,,54,127
85948,note_off,85,0,0,,6,,,54,127
85951,note_on,3,0,0,,4,,,52,127
86036,note_off,85,0,0,,4,,,52,127
86036,note_off,0,0,0,,1,,,73,127
86039,note_on,3,0,0,,4,,,64,127
86039,note_on,0,0,0,,7,,,67,127
86039,note_on,0,0,0,,1,,,73,127
86298,note_off,259,0,0,,7,,,67,127
86298,note_off,0,0,0,,4,,,64,127
86301,note_on,3,0,0,,4,,,64,127
86301,note_on,0,0,0,,7,,,67,127
86560,note_off,259,0,0,,7,,,67,127
86560,note_off,0,0,0,,4,,,64,127
86560,note_off,0,0,0,,1,,,73,127
86563,note_on,3,0,0,,6,,,66,127
86563,note_on,0,0,0,,10,,,69,127
86563,note_on,0,0,0,,2,,,74,127
86691,note_off,128,0,0,,2,,,74,127
86691,note_off,0,0,0,,10,,,69,127
86691,note_off,0,0,0,,6,,,66,127
86694,note_on,3,0,0,,4,,,64,127
86694,note_on,0,0,0,,7,,,67,127
86694,note_on,0,0,0,,1,,,73,127
86822,note_off,128,0,0,,1,,,73,127
86822,note_off,0,0,0,,7,,,67,127
86822,note_off,0,0,0,,4,,,64,127
86825,note_on,3,0,0,,10,,,69,127
86825,note_on,0,0,0,,6,,,66,127
86825,note_on,0,0,0,,2,,,74,127
87084,note_off,259,0,0,,6,,,66,127
87084,note_off,0,0,0,,10,,,69,127
87098,note_on,14,0,0,,6,,,66,127
87098,note_on,0,0,0,,10,,,69,127
87102,note_off,4,0,0,,2,,,74,127
87357,note_off,255,0,0,,10,,,69,127
87357,note_off,0,0,0,,6,,,66,127
87360,note_on,3,0,0,,7,,,67,127
87360,note_on,0,0,0,,12,,,71,127
87445,note_off,85,0,0,,12,,,71,127
87448,note_on,3,0,0,,1,,,73,127
87533,note_off,85,0,0,,1,,,73,127
87536,note_on,3,0,0,,2,,,74,127
87621,note_off,85,0,0,,2,,,74,127
87621,note_off,0,0,0,,7,,,67,127
87624,note_on,3,0,0,,7,,,55,127
87624,note_on,0,0,0,,4,,,76,127
87709,note_off,85,0,0,,4,,,76,127
87712,note_on,3,0,0,,6,,,78,127
87797,note_off,85,0,0,,6,,,78,127
87800,note_on,3,0,0,,7,,,79,127
87885,note_off,85,0,0,,7,,,79,127
87885,note_off,0,0,0,,7,,,55,127
87888,note_on,3,0,0,,2,,,62,127
87888,note_on,0,0,0,,10,,,57,127
87888,note_on,0,0,0,,6,,,66,127
87888,note_on,0,0,0,,6,,,78,127
88147,note_off,259,0,0,,6,,,78,127
88147,note_off,0,0,0,,6,,,66,127
88147,note_off,0,0,0,,2,,,62,127
88150,note_on,3,0,0,,4,,,64,127
88150,note_on,0,0,0,,1,,,61,127
88150,note_on,0,0,0,,4,,,76,127
88406,note_off,256,0,0,,10,,,57,127
88409,note_off,3,0,0,,4,,,76,127
88409,note_off,0,0,0,,1,,,61,127
88409,note_off,0,0,0,,4,,,64,127
88412,note_on,3,0,0,,2,,,50,127
88412,note_on,0,0,0,,2,,,74,127
88543,note_on,131,0,0,,2,,,86,127
88671,note_off,128,0,0,,2,,,86,127
88671,note_off,0,0,0,,2,,,74,127
88671,note_off,0,0,0,,2,,,50,127
88674,note_on,3,0,0,,2,,,62,127
88674,note_on,0,0,0,,12,,,83,127
88802,note_off,128,0,0,,12,,,83,127
88805,note_on,3,0,0,,7,,,79,127
88933,note_off,128,0,0,,2,,,62,127
88936,note_on,3,0,0,,4,,,64,127
89051,note_off,115,0,0,,7,,,79,127
89067,note_on,16,0,0,,6,,,78,127
89195,note_off,128,0,0,,4,,,64,127
89198,note_on,3,0,0,,1,,,61,127
89313,note_off,115,0,0,,6,,,78,127
89329,note_on,16,0,0,,4,,,76,127
89457,note_off,128,0,0,,4,,,76,127
89457,note_off,0,0,0,,1,,,61,127
89460,note_on,3,0,0,,2,,,62,127
89460,note_on,0,0,0,,6,,,78,127
89545,note_off,85,0,0,,6,,,78,127
89548,note_on,3,0,0,,7,,,79,127
89633,note_off,85,0,0,,7,,,79,127
89636,note_on,3,0,0,,10,,,81,127
89721,note_off,85,0,0,,10,,,81,127
89721,note_off,0,0,0,,2,,,62,127
89724,note_on,3,0,0,,6,,,54,127
89724,note_on,0,0,0,,2,,,74,127
89852,note_off,128,0,0,,2,,,74,127
89855,note_on,3,0,0,,10,,,69,127
89983,note_off,128,0,0,,10,,,69,127
89983,note_off,0,0,0,,6,,,54,127
89986,note_on,3,0,0,,7,,,55,127
89986,note_on,0,0,0,,6,,,78,127
90049,note_off,63,0,0,,6,,,78,127
90052,note_on,3,0,0,,4,,,76,127
90115,note_off,63,0,0,,4,,,76,127
90118,note_on,3,0,0,,6,,,78,127
90181,note_off,63,0,0,,6,,,78,127
90184,note_on,3,0,0,,4,,,76,127
90247,note_off,63,0,0,,4,,,76,127
90247,note_off,0,0,0,,7,,,55,127
90250,note_on,3,0,0,,10,,,57,127
90250,note_on,0,0,0,,6,,,78,127
90313,note_off,63,0,0,,6,,,78,127
90316,note_on,3,0,0,,4,,,76,127
90379,note_off,63,0,0,,4,,,76,127
90382,note_on,3,0,0,,6,,,78,127
90445,note_off,63,0,0,,6,,,78,127
90448,note_on,3,0,0,,4,,,76,127
90511,note_off,63,0,0,,10,,,57,127
90514,note_off,3,0,0,,4,,,76,127
90536,note_on,22,0,0,,2,,,38,127
90667,note_on,131,0,0,,2,,,74,127
90795,note_off,128,0,0,,2,,,74,127
90795,note_off,0,0,0,,2,,,38,127
90798,note_on,3,0,0,,12,,,71,127
90798,note_on,0,0,0,,2,,,50,127
90926,note_off,128,0,0,,12,,,71,127
90929,note_on,3,0,0,,7,,,67,127
91057,note_off,128,0,0,,2,,,50,127
91060,note_on,3,0,0,,4,,,52,127
91175,note_off,115,0,0,,7,,,67,127
91191,note_on,16,0,0,,6,,,66,127
91319,note_off,128,0,0,,4,,,52,127
91322,note_on,3,0,0,,1,,,49,127
91437,note_off,115,0,0,,6,,,66,127
91453,note_on,16,0,0,,4,,,64,127
91581,note_off,128,0,0,,4,,,64,127
91581,note_off,0,0,0,,1,,,49,127
91584,note_on,3,0,0,,6,,,66,127
91584,note_on,0,0,0,,2,,,50,127
91669,note_off,85,0,0,,6,,,66,127
91672,note_on,3,0,0,,7,,,67,127
91757,note_off,85,0,0,,7,,,67,127
91760,note_on,3,0,0,,10,,,69,127
91845,note_off,85,0,0,,10,,,69,127
91845,note_off,0,0,0,,2,,,50,127
91848,note_on,3,0,0,,2,,,62,127
91848,note_on,0,0,0,,6,,,42,127
91976,note_off,128,0,0,,2,,,62,127
91979,note_on,3,0,0,,12,,,59,127
92107,note_off,128,0,0,,12,,,59,127
92107,note_off,0,0,0,,6,,,42,127
92110,note_on,3,0,0,,6,,,66,127
92110,note_on,0,0,0,,7,,,43,127
92173,note_off,63,0,0,,6,,,66,127
92176,note_on,3,0,0,,4,,,64,127
92239,note_off,63,0,0,,4,,,64,127
92242,note_on,3,0,0,,6,,,66,127
92305,note_off,63,0,0,,6,,,66,127
92308,note_on,3,0,0,,4,,,64,127
92371,note_off,63,0,0,,4,,,64,127
92371,note_off,0,0,0,,7,,,43,127
92374,note_on,3,0,0,,6,,,66,127
92374,note_on,0,0,0,,10,,,45,127
92437,note_off,63,0,0,,6,,,66,127
92440,note_on,3,0,0,,4,,,64,127
92503,note_off,63,0,0,,4,,,64,127
92506,note_on,3,0,0,,2,,,62,127
92569,note_off,63,0,0,,2,,,62,127
92572,note_on,3,0,0,,4,,,64,127
92635,note_off,63,0,0,,4,,,64,127
92635,note_off,0,0,0,,10,,,45,127
92638,note_on,3,0,0,,2,,,62,127
92638,note_on,0,0,0,,2,,,50,127
92638,note_on,0,0,0,,2,,,38,127
93683,note_off,1045,0,0,,2,,,38,127
93683,note_off,0,0,0,,2,,,50,127
93683,note_off,0,0,0,,2,,,62,127
93849,note_on,166,0,0,,2,,,50,127
93849,note_on,0,0,0,,2,,,38,127
94370,note_off,521,0,0,,2,,,38,127
94370,note_off,0,0,0,,2,,,50,127
94373,note_on,3,0,0,,12,,,71,127
94373,note_on,0,0,0,,0,,,60,127
94373,note_on,0,0,0,,10,,,57,127
94373,note_on,0,0,0,,2,,,50,127
94436,note_off,63,0,0,,12,,,71,127
94439,note_on,3,0,0,,10,,,69,127
94502,note_off,63,0,0,,10,,,69,127
94505,note_on,3,0,0,,12,,,71,127
94568,note_off,63,0,0,,12,,,71,127
94571,note_on,3,0,0,,10,,,69,127
94634,note_off,63,0,0,,10,,,69,127
94634,note_off,0,0,0,,2,,,50,127
94634,note_off,0,0,0,,10,,,57,127
94634,note_off,0,0,0,,0,,,60,127
94637,note_on,3,0,0,,12,,,71,127
94637,note_on,0,0,0,,0,,,60,127
94637,note_on,0,0,0,,2,,,50,127
94637,note_on,0,0,0,,10,,,57,127
94700,note_off,63,0,0,,12,,,71,127
94703,note_on,3,0,0,,10,,,69,127
94766,note_off,63,0,0,,10,,,69,127
94769,note_on,3,0,0,,7,,,67,127
94832,note_off,63,0,0,,7,,,67,127
94835,note_on,3,0,0,,10,,,69,127
94898,note_off,63,0,0,,10,,,69,127
94898,note_off,0,0,0,,10,,,57,127
94898,note_off,0,0,0,,2,,,50,127
94898,note_off,0,0,0,,0,,,60,127
94901,note_on,3,0,0,,2,,,74,127
94901,note_on,0,0,0,,12,,,59,127
94901,note_on,0,0,0,,2,,,50,127
94901,note_on,0,0,0,,7,,,55,127
95160,note_off,259,0,0,,7,,,55,127
95160,note_off,0,0,0,,2,,,50,127
95160,note_off,0,0,0,,12,,,59,127
95163,note_on,3,0,0,,7,,,67,127
95163,note_on,0,0,0,,2,,,50,127
95163,note_on,0,0,0,,7,,,55,127
95163,note_on,0,0,0,,12,,,59,127
95228,note_off,65,0,0,,2,,,74,127
95408,note_off,180,0,0,,7,,,67,127
95422,note_off,14,0,0,,12,,,59,127
95422,note_off,0,0,0,,7,,,55,127
95422,note_off,0,0,0,,2,,,50,127
95425,note_on,3,0,0,,12,,,71,127
95425,note_on,0,0,0,,0,,,60,127
95425,note_on,0,0,0,,2,,,50,127
95425,note_on,0,0,0,,10,,,57,127
95488,note_off,63,0,0,,12,,,71,127
95491,note_on,3,0,0,,10,,,69,127
95554,note_off,63,0,0,,10,,,69,127
95557,note_on,3,0,0,,12,,,71,127
95620,note_off,63,0,0,,12,,,71,127
95623,note_on,3,0,0,,10,,,69,127
95686,note_off,63,0,0,,10,,,69,127
95686,note_off,0,0,0,,10,,,57,127
95686,note_off,0,0,0,,2,,,50,127
95686,note_off,0,0,0,,0,,,60,127
95689,note_on,3,0,0,,12,,,71,127
95689,note_on,0,0,0,,0,,,60,127
95689,note_on,0,0,0,,10,,,57,127
95689,note_on,0,0,0,,2,,,50,127
95752,note_off,63,0,0,,12,,,71,127
95755,note_on,3,0,0,,10,,,69,127
95818,note_off,63,0,0,,10,,,69,127
95821,note_on,3,0,0,,7,,,67,127
95884,note_off,63,0,0,,7,,,67,127
95887,note_on,3,0,0,,10,,,69,127
95950,note_off,63,0,0,,10,,,69,127
95950,note_off,0,0,0,,2,,,50,127
95950,note_off,0,0,0,,10,,,57,127
95950,note_off,0,0,0,,0,,,60,127
95953,note_on,3,0,0,,2,,,74,127
95953,note_on,0,0,0,,12,,,59,127
95953,note_on,0,0,0,,2,,,50,127
95953,note_on,0,0,0,,7,,,55,127
96212,note_off,259,0,0,,7,,,55,127
96212,note_off,0,0,0,,2,,,50,127
96212,note_off,0,0,0,,12,,,59,127
96215,note_on,3,0,0,,7,,,67,127
96215,note_on,0,0,0,,12,,,59,127
96215,note_on,0,0,0,,7,,,55,127
96215,note_on,0,0,0,,2,,,50,127
96280,note_off,65,0,0,,2,,,74,127
96460,note_off,180,0,0,,7,,,67,127
96474,note_off,14,0,0,,2,,,50,127
96474,note_off,0,0,0,,7,,,55,127
96474,note_off,0,0,0,,12,,,59,127
96477,note_on,3,0,0,,12,,,71,127
96477,note_on,0,0,0,,10,,,57,127
96477,note_on,0,0,0,,0,,,60,127
96477,note_on,0,0,0,,2,,,50,127
96540,note_off,63,0,0,,12,,,71,127
96543,note_on,3,0,0,,10,,,69,127
96606,note_off,63,0,0,,10,,,69,127
96609,note_on,3,0,0,,12,,,71,127
96672,note_off,63,0,0,,12,,,71,127
96675,note_on,3,0,0,,10,,,69,127
96738,note_off,63,0,0,,10,,,69,127
96738,note_off,0,0,0,,2,,,50,127
96738,note_off,0,0,0,,0,,,60,127
96738,note_off,0,0,0,,10,,,57,127
96741,note_on,3,0,0,,12,,,71,127
96741,note_on,0,0,0,,0,,,60,127
96741,note_on,0,0,0,,2,,,50,127
96741,note_on,0,0,0,,10,,,57,127
96804,note_off,63,0,0,,12,,,71,127
96807,note_on,3,0,0,,10,,,69,127
96870,note_off,63,0,0,,10,,,69,127
96873,note_on,3,0,0,,7,,,67,127
96936,note_off,63,0,0,,7,,,67,127
96939,note_on,3,0,0,,10,,,69,127
97002,note_off,63,0,0,,10,,,69,127
97002,note_off,0,0,0,,10,,,57,127
97002,note_off,0,0,0,,2,,,50,127
97002,note_off,0,0,0,,0,,,60,127
97005,note_on,3,0,0,,0,,,72,127
97005,note_on,0,0,0,,12,,,59,127
97005,note_on,0,0,0,,7,,,55,127
97005,note_on,0,0,0,,2,,,50,127
97133,note_off,128,0,0,,0,,,72,127
97136,note_on,3,0,0,,12,,,71,127
97264,note_off,128,0,0,,12,,,71,127
97264,note_off,0,0,0,,2,,,50,127
97264,note_off,0,0,0,,7,,,55,127
97264,note_off,0,0,0,,12,,,59,127
97267,note_on,3,0,0,,4,,,76,127
97267,note_on,0,0,0,,7,,,55,127
97267,note_on,0,0,0,,12,,,59,127
97267,note_on,0,0,0,,2,,,50,127
97395,note_off,128,0,0,,4,,,76,127
97398,note_on,3,0,0,,2,,,74,127
97526,note_off,128,0,0,,2,,,74,127
97526,note_off,0,0,0,,2,,,50,127
97526,note_off,0,0,0,,12,,,59,127
97526,note_off,0,0,0,,7,,,55,127
97529,note_on,3,0,0,,2,,,74,127
97529,note_on,0,0,0,,7,,,55,127
97529,note_on,0,0,0,,10,,,57,127
97529,note_on,0,0,0,,2,,,50,127
97657,note_off,128,0,0,,2,,,74,127
97660,note_on,3,0,0,,0,,,72,127
97788,note_off,128,0,0,,0,,,72,127
97788,note_off,0,0,0,,2,,,50,127
97788,note_off,0,0,0,,10,,,57,127
97788,note_off,0,0,0,,7,,,55,127
97791,note_on,3,0,0,,12,,,71,127
97791,note_on,0,0,0,,10,,,57,127
97791,note_on,0,0,0,,2,,,50,127
97791,note_on,0,0,0,,6,,,54,127
97919,note_off,128,0,0,,12,,,71,127
97922,note_on,3,0,0,,0,,,72,127
98050,note_off,128,0,0,,0,,,72,127
98050,note_off,0,0,0,,6,,,54,127
98050,note_off,0,0,0,,2,,,50,127
98050,note_off,0,0,0,,10,,,57,127
98053,note_on,3,0,0,,0,,,72,127
98053,note_on,0,0,0,,7,,,55,127
98053,note_on,0,0,0,,7,,,43,127
98326,note_off,273,0,0,,0,,,72,127
98340,note_on,14,0,0,,12,,,71,127
98572,note_off,232,0,0,,12,,,71,127
98572,note_off,0,0,0,,7,,,43,127
98572,note_off,0,0,0,,7,,,55,127
98631,note_on,59,0,0,,12,,,71,127
98694,note_off,63,0,0,,12,,,71,127
98697,note_on,3,0,0,,10,,,69,127
98760,note_off,63,0,0,,10,,,69,127
98763,note_on,3,0,0,,12,,,71,127
98826,note_off,63,0,0,,12,,,71,127
98829,note_on,3,0,0,,10,,,69,127
98892,note_off,63,0,0,,10,,,69,127
98895,note_on,3,0,0,,5,,,53,127
98895,note_on,0,0,0,,2,,,62,127
98895,note_on,0,0,0,,12,,,71,127
98958,note_off,63,0,0,,12,,,71,127
98961,note_on,3,0,0,,10,,,69,127
99024,note_off,63,0,0,,10,,,69,127
99027,note_on,3,0,0,,8,,,68,127
99090,note_off,63,0,0,,8,,,68,127
99093,note_on,3,0,0,,10,,,69,127
99156,note_off,63,0,0,,10,,,69,127
99156,note_off,0,0,0,,2,,,62,127
99156,note_off,0,0,0,,5,,,53,127
99159,note_on,3,0,0,,4,,,52,127
99159,note_on,0,0,0,,12,,,59,127
99159,note_on,0,0,0,,2,,,62,127
99159,note_on,0,0,0,,2,,,74,127
99418,note_off,259,0,0,,2,,,62,127
99418,note_off,0,0,0,,12,,,59,127
99418,note_off,0,0,0,,4,,,52,127
99421,note_on,3,0,0,,4,,,52,127
99421,note_on,0,0,0,,12,,,59,127
99421,note_on,0,0,0,,2,,,62,127
99421,note_on,0,0,0,,8,,,68,127
99486,note_off,65,0,0,,2,,,74,127
99666,note_off,180,0,0,,8,,,68,127
99680,note_off,14,0,0,,2,,,62,127
99680,note_off,0,0,0,,12,,,59,127
99680,note_off,0,0,0,,4,,,52,127
99683,note_on,3,0,0,,5,,,53,127
99683,note_on,0,0,0,,12,,,59,127
99683,note_on,0,0,0,,2,,,62,127
99683,note_on,0,0,0,,12,,,71,127
99746,note_off,63,0,0,,12,,,71,127
99749,note_on,3,0,0,,10,,,69,127
99812,note_off,63,0,0,,10,,,69,127
99815,note_on,3,0,0,,12,,,71,127
99878,note_off,63,0,0,,12,,,71,127
99881,note_on,3,0,0,,10,,,69,127
99944,note_off,63,0,0,,10,,,69,127
99944,note_off,0,0,0,,2,,,62,127
99944,note_off,0,0,0,,12,,,59,127
99944,note_off,0,0,0,,5,,,53,127
99947,note_on,3,0,0,,12,,,59,127
99947,note_on,0,0,0,,5,,,53,127
99947,note_on,0,0,0,,2,,,62,127
99947,note_on,0,0,0,,12,,,71,127
100010,note_off,63,0,0,,12,,,71,127
100013,note_on,3,0,0,,10,,,69,127
100076,note_off,63,0,0,,10,,,69,127
100079,note_on,3,0,0,,8,,,68,127
100142,note_off,63,0,0,,8,,,68,127
100145,note_on,3,0,0,,10,,,69,127
100208,note_off,63,0,0,,10,,,69,127
100208,note_off,0,0,0,,2,,,62,127
100208,note_off,0,0,0,,5,,,53,127
100208,note_off,0,0,0,,12,,,59,127
100211,note_on,3,0,0,,4,,,52,127
100211,note_on,0,0,0,,12,,,59,127
100211,note_on,0,0,0,,2,,,62,127
100211,note_on,0,0,0,,2,,,74,127
100470,note_off,259,0,0,,2,,,62,127
100470,note_off,0,0,0,,12,,,59,127
100470,note_off,0,0,0,,4,,,52,127
100473,note_on,3,0,0,,12,,,59,127
100473,note_on,0,0,0,,4,,,52,127
100473,note_on,0,0,0,,2,,,62,127
100473,note_on,0,0,0,,8,,,68,127
100538,note_off,65,0,0,,2,,,74,127
100718,note_off,180,0,0,,8,,,68,127
100732,note_off,14,0,0,,2,,,62,127
100732,note_off,0,0,0,,4,,,52,127
100732,note_off,0,0,0,,12,,,59,127
100735,note_on,3,0,0,,5,,,53,127
100735,note_on,0,0,0,,12,,,59,127
100735,note_on,0,0,0,,2,,,62,127
100735,note_on,0,0,0,,12,,,71,127
100798,note_off,63,0,0,,12,,,71,127
100801,note_on,3,0,0,,10,,,69,127
100864,note_off,63,0,0,,10,,,69,127
100867,note_on,3,0,0,,12,,,71,127
100930,note_off,63,0,0,,12,,,71,127
100933,note_on,3,0,0,,10,,,69,127
100996,note_off,63,0,0,,10,,,69,127
100996,note_off,0,0,0,,2,,,62,127
100996,note_off,0,0,0,,12,,,59,127
100996,note_off,0,0,0,,5,,,53,127
100999,note_on,3,0,0,,5,,,53,127
100999,note_on,0,0,0,,2,,,62,127
100999,note_on,0,0,0,,12,,,59,127
100999,note_on,0,0,0,,12,,,71,127
101062,note_off,63,0,0,,12,,,71,127
101065,note_on,3,0,0,,10,,,69,127
101128,note_off,63,0,0,,10,,,69,127
101131,note_on,3,0,0,,8,,,68,127
101194,note_off,63,0,0,,8,,,68,127
101197,note_on,3,0,0,,10,,,69,127
101260,note_off,63,0,0,,10,,,69,127
101260,note_off,0,0,0,,12,,,59,127
101260,note_off,0,0,0,,2,,,62,127
101260,note_off,0,0,0,,5,,,53,127
101263,note_on,3,0,0,,4,,,52,127
101263,note_on,0,0,0,,12,,,59,127
101263,note_on,0,0,0,,2,,,62,127
101263,note_on,0,0,0,,2,,,74,127
101391,note_off,128,0,0,,2,,,74,127
101394,note_on,3,0,0,,0,,,72,127
101522,note_off,128,0,0,,0,,,72,127
101522,note_off,0,0,0,,2,,,62,127
101522,note_off,0,0,0,,12,,,59,127
101522,note_off,0,0,0,,4,,,52,127
101525,note_on,3,0,0,,4,,,52,127
101525,note_on,0,0,0,,2,,,62,127
101525,note_on,0,0,0,,12,,,59,127
101525,note_on,0,0,0,,5,,,77,127
101653,note_off,128,0,0,,5,,,77,127
101656,note_on,3,0,0,,4,,,76,127
101784,note_off,128,0,0,,4,,,76,127
101784,note_off,0,0,0,,12,,,59,127
101784,note_off,0,0,0,,2,,,62,127
101784,note_off,0,0,0,,4,,,52,127
101787,note_on,3,0,0,,4,,,52,127
101787,note_on,0,0,0,,12,,,59,127
101787,note_on,0,0,0,,10,,,57,127
101787,note_on,0,0,0,,4,,,76,127
101915,note_off,128,0,0,,4,,,76,127
101918,note_on,3,0,0,,2,,,74,127
102046,note_off,128,0,0,,2,,,74,127
102046,note_off,0,0,0,,10,,,57,127
102046,note_off,0,0,0,,12,,,59,127
102046,note_off,0,0,0,,4,,,52,127
102049,note_on,3,0,0,,12,,,59,127
102049,note_on,0,0,0,,8,,,56,127
102049,note_on,0,0,0,,4,,,52,127
102049,note_on,0,0,0,,0,,,72,127
102177,note_off,128,0,0,,0,,,72,127
102180,note_on,3,0,0,,12,,,71,127
102308,note_off,128,0,0,,12,,,71,127
102308,note_off,0,0,0,,4,,,52,127
102308,note_off,0,0,0,,8,,,56,127
102308,note_off,0,0,0,,12,,,59,127
102311,note_on,3,0,0,,10,,,57,127
102311,note_on,0,0,0,,10,,,45,127
102311,note_on,0,0,0,,12,,,71,127
102570,note_off,259,0,0,,12,,,71,127
102573,note_on,3,0,0,,0,,,72,127
102818,note_off,245,0,0,,0,,,72,127
102845,note_on,27,0,0,,10,,,81,127
103093,note_off,248,0,0,,10,,,45,127
103093,note_off,0,0,0,,10,,,57,127
103107,note_on,14,0,0,,0,,,48,127
103366,note_off,259,0,0,,0,,,48,127
103369,note_on,3,0,0,,12,,,47,127
103497,note_off,128,0,0,,10,,,81,127
103500,note_on,3,0,0,,6,,,78,127
103628,note_off,128,0,0,,6,,,78,127
103631,note_on,3,0,0,,3,,,75,127
103759,note_off,128,0,0,,3,,,75,127
103762,note_on,3,0,0,,0,,,72,127
103890,note_off,128,0,0,,0,,,72,127
103893,note_on,3,0,0,,12,,,59,127
103893,note_on,0,0,0,,10,,,69,127
104021,note_off,128,0,0,,10,,,69,127
104024,note_off,3,0,0,,12,,,47,127
104024,note_on,0,0,0,,6,,,66,127
104152,note_off,128,0,0,,6,,,66,127
104155,note_on,3,0,0,,3,,,63,127
104283,note_off,128,0,0,,3,,,63,127
104286,note_on,3,0,0,,10,,,69,127
104414,note_off,128,0,0,,12,,,59,127
104417,note_on,3,0,0,,4,,,52,127
104545,note_off,128,0,0,,10,,,69,127
104548,note_on,3,0,0,,7,,,67,127
104676,note_off,128,0,0,,7,,,67,127
104679,note_on,3,0,0,,6,,,66,127
104807,note_off,128,0,0,,6,,,66,127
104810,note_on,3,0,0,,7,,,67,127
104929,note_off,119,0,0,,7,,,67,127
104952,note_on,23,0,0,,12,,,83,127
105200,note_off,248,0,0,,4,,,52,127
105214,note_on,14,0,0,,4,,,52,127
105473,note_off,259,0,0,,4,,,52,127
105476,note_on,3,0,0,,0,,,48,127
105604,note_off,128,0,0,,12,,,83,127
105607,note_on,3,0,0,,7,,,79,127
105735,note_off,128,0,0,,7,,,79,127
105735,note_off,0,0,0,,0,,,48,127
105738,note_on,3,0,0,,4,,,52,127
105738,note_on,0,0,0,,4,,,76,127
105866,note_off,128,0,0,,4,,,76,127
105869,note_on,3,0,0,,0,,,72,127
105997,note_off,128,0,0,,0,,,72,127
105997,note_off,0,0,0,,4,,,52,127
106000,note_on,3,0,0,,10,,,57,127
106000,note_on,0,0,0,,10,,,69,127
106128,note_off,128,0,0,,10,,,69,127
106133,note_on,5,0,0,,6,,,66,127
106258,note_off,125,0,0,,10,,,57,127
106261,note_off,3,0,0,,6,,,66,127
106269,note_on,8,0,0,,3,,,63,127
106269,note_on,0,0,0,,0,,,48,127
106397,note_off,128,0,0,,3,,,63,127
106413,note_on,16,0,0,,4,,,76,127
106528,note_off,115,0,0,,0,,,48,127
106544,note_on,16,0,0,,12,,,47,127
106768,note_off,224,0,0,,4,,,76,127
106806,note_on,38,0,0,,3,,,75,127
106934,note_off,128,0,0,,3,,,75,127
106937,note_on,3,0,0,,1,,,73,127
107065,note_off,128,0,0,,1,,,73,127
107065,note_off,0,0,0,,12,,,47,127
107068,note_on,3,0,0,,3,,,75,127
107068,note_on,0,0,0,,12,,,71,127
107196,note_off,128,0,0,,3,,,75,127
107199,note_on,3,0,0,,4,,,76,127
107327,note_off,128,0,0,,4,,,76,127
107330,note_on,3,0,0,,6,,,78,127
107458,note_off,128,0,0,,6,,,78,127
107461,note_on,3,0,0,,7,,,79,127
107589,note_off,128,0,0,,7,,,79,127
107592,note_on,3,0,0,,6,,,78,127
107720,note_off,128,0,0,,12,,,71,127
107723,note_on,3,0,0,,6,,,66,127
107851,note_off,128,0,0,,6,,,66,127
107854,note_on,3,0,0,,3,,,63,127
107982,note_off,128,0,0,,3,,,63,127
107985,note_on,3,0,0,,12,,,59,127
108113,note_off,128,0,0,,12,,,59,127
108116,note_on,3,0,0,,6,,,54,127
108244,note_off,128,0,0,,6,,,54,127
108247,note_on,3,0,0,,3,,,51,127
108375,note_off,128,0,0,,3,,,51,127
108378,note_on,3,0,0,,12,,,47,127
108506,note_off,128,0,0,,12,,,47,127
108509,note_on,3,0,0,,12,,,59,127
108637,note_off,128,0,0,,12,,,59,127
108640,note_on,3,0,0,,0,,,48,127
108684,note_off,44,0,0,,6,,,78,127
108771,note_on,87,0,0,,6,,,78,127
108899,note_off,128,0,0,,6,,,78,127
108902,note_on,3,0,0,,4,,,76,127
109030,note_off,128,0,0,,4,,,76,127
109033,note_on,3,0,0,,3,,,75,127
109161,note_off,128,0,0,,3,,,75,127
109161,note_off,0,0,0,,0,,,48,127
109164,note_on,3,0,0,,4,,,76,127
109164,note_on,0,0,0,,0,,,72,127
109292,note_off,128,0,0,,4,,,76,127
109295,note_on,3,0,0,,6,,,78,127
109423,note_off,128,0,0,,6,,,78,127
109426,note_on,3,0,0,,7,,,79,127
109554,note_off,128,0,0,,7,,,79,127
109557,note_on,3,0,0,,4,,,76,127
109685,note_off,128,0,0,,4,,,76,127
109688,note_on,3,0,0,,10,,,81,127
109816,note_off,128,0,0,,0,,,72,127
109819,note_on,3,0,0,,10,,,69,127
109947,note_off,128,0,0,,10,,,69,127
109950,note_on,3,0,0,,6,,,66,127
110078,note_off,128,0,0,,6,,,66,127
110081,note_on,3,0,0,,3,,,63,127
110209,note_off,128,0,0,,3,,,63,127
110212,note_on,3,0,0,,0,,,60,127
110340,note_off,128,0,0,,0,,,60,127
110343,note_on,3,0,0,,10,,,57,127
110471,note_off,128,0,0,,10,,,57,127
110474,note_on,3,0,0,,6,,,54,127
110602,note_off,128,0,0,,6,,,54,127
110605,note_on,3,0,0,,3,,,51,127
110733,note_off,128,0,0,,3,,,51,127
110736,note_on,3,0,0,,12,,,47,127
110804,note_off,68,0,0,,10,,,81,127
110883,note_on,79,0,0,,10,,,81,127
111011,note_off,128,0,0,,10,,,81,127
111014,note_on,3,0,0,,7,,,79,127
111142,note_off,128,0,0,,7,,,79,127
111145,note_on,3,0,0,,6,,,78,127
111257,note_off,112,0,0,,12,,,47,127
111273,note_off,16,0,0,,6,,,78,127
111276,note_on,3,0,0,,12,,,83,127
111276,note_on,0,0,0,,12,,,71,127
111276,note_on,0,0,0,,3,,,51,127
111404,note_off,128,0,0,,12,,,83,127
111407,note_on,3,0,0,,10,,,81,127
111535,note_off,128,0,0,,10,,,81,127
111535,note_off,0,0,0,,3,,,51,127
111538,note_on,3,0,0,,7,,,79,127
111538,note_on,0,0,0,,12,,,47,127
111666,note_off,128,0,0,,7,,,79,127
111669,note_on,3,0,0,,6,,,78,127
111794,note_off,125,0,0,,12,,,71,127
111797,note_off,3,0,0,,6,,,78,127
111797,note_off,0,0,0,,12,,,47,127
111800,note_on,3,0,0,,7,,,79,127
111800,note_on,0,0,0,,12,,,71,127
111800,note_on,0,0,0,,4,,,52,127
111928,note_off,128,0,0,,7,,,79,127
111931,note_on,3,0,0,,6,,,78,127
112059,note_off,128,0,0,,6,,,78,127
112062,note_on,3,0,0,,6,,,78,127
112190,note_off,128,0,0,,6,,,78,127
112193,note_on,3,0,0,,4,,,76,127
112318,note_off,125,0,0,,12,,,71,127
112321,note_off,3,0,0,,4,,,76,127
112321,note_off,0,0,0,,4,,,52,127
112324,note_on,3,0,0,,4,,,76,127
112324,note_on,0,0,0,,0,,,72,127
112324,note_on,0,0,0,,0,,,48,127
112452,note_off,128,0,0,,4,,,76,127
112455,note_on,3,0,0,,3,,,75,127
112583,note_off,128,0,0,,3,,,75,127
112583,note_off,0,0,0,,0,,,48,127
112586,note_on,3,0,0,,4,,,76,127
112586,note_on,0,0,0,,10,,,45,127
112714,note_off,128,0,0,,4,,,76,127
112717,note_on,3,0,0,,6,,,78,127
112842,note_off,125,0,0,,0,,,72,127
112845,note_off,3,0,0,,6,,,78,127
112845,note_off,0,0,0,,10,,,45,127
112848,note_on,3,0,0,,4,,,76,127
112848,note_on,0,0,0,,12,,,47,127
112976,note_off,128,0,0,,4,,,76,127
112987,note_on,11,0,0,,3,,,75,127
113130,note_off,143,0,0,,3,,,75,127
113137,note_on,7,0,0,,1,,,73,127
113286,note_off,149,0,0,,1,,,73,127
113290,note_on,4,0,0,,12,,,71,127
113535,note_off,245,0,0,,12,,,71,127
113632,note_off,97,0,0,,12,,,47,127
113823,note_on,191,0,0,,3,,,63,127
113908,note_off,85,0,0,,3,,,63,127
113915,note_on,7,0,0,,1,,,61,127
114000,note_off,85,0,0,,1,,,61,127
114007,note_on,7,0,0,,12,,,59,127
114092,note_off,85,0,0,,12,,,59,127
114099,note_on,7,0,0,,4,,,64,127
114099,note_on,0,0,0,,8,,,56,127
114099,note_on,0,0,0,,12,,,47,127
114227,note_off,128,0,0,,4,,,64,127
114230,note_on,3,0,0,,12,,,59,127
114358,note_off,128,0,0,,12,,,59,127
114358,note_off,0,0,0,,12,,,47,127
114358,note_off,0,0,0,,8,,,56,127
114361,note_on,3,0,0,,8,,,68,127
114361,note_on,0,0,0,,8,,,56,127
114361,note_on,0,0,0,,12,,,47,127
114489,note_off,128,0,0,,8,,,68,127
114492,note_on,3,0,0,,4,,,64,127
114620,note_off,128,0,0,,4,,,64,127
114620,note_off,0,0,0,,12,,,47,127
114620,note_off,0,0,0,,8,,,56,127
114623,note_on,3,0,0,,12,,,71,127
114623,note_on,0,0,0,,4,,,52,127
114623,note_on,0,0,0,,12,,,47,127
114751,note_off,128,0,0,,12,,,71,127
114754,note_on,3,0,0,,8,,,68,127
114882,note_off,128,0,0,,8,,,68,127
114882,note_off,0,0,0,,12,,,47,127
114882,note_off,0,0,0,,4,,,52,127
114885,note_on,3,0,0,,4,,,76,127
114885,note_on,0,0,0,,4,,,52,127
114885,note_on,0,0,0,,12,,,47,127
115013,note_off,128,0,0,,4,,,76,127
115016,note_on,3,0,0,,12,,,71,127
115144,note_off,128,0,0,,12,,,71,127
115144,note_off,0,0,0,,12,,,47,127
115144,note_off,0,0,0,,4,,,52,127
115147,note_on,3,0,0,,4,,,76,127
115147,note_on,0,0,0,,8,,,68,127
115147,note_on,0,0,0,,12,,,47,127
115406,note_off,259,0,0,,12,,,47,127
115409,note_on,3,0,0,,12,,,47,127
115668,note_off,259,0,0,,12,,,47,127
115668,note_off,0,0,0,,8,,,68,127
115668,note_off,0,0,0,,4,,,76,127
115671,note_on,3,0,0,,3,,,75,127
115671,note_on,0,0,0,,6,,,66,127
115671,note_on,0,0,0,,12,,,47,127
115916,note_off,245,0,0,,3,,,75,127
115920,note_off,4,0,0,,6,,,66,127
115930,note_off,10,0,0,,12,,,47,127
115944,note_on,14,0,0,,3,,,63,127
115944,note_on,0,0,0,,12,,,47,127
116029,note_off,85,0,0,,3,,,63,127
116032,note_on,3,0,0,,1,,,61,127
116095,note_off,63,0,0,,1,,,61,127
116098,note_on,3,0,0,,12,,,59,127
116204,note_off,106,0,0,,12,,,59,127
116204,note_off,0,0,0,,12,,,47,127
116207,note_on,3,0,0,,8,,,68,127
116207,note_on,0,0,0,,8,,,56,127
116207,note_on,0,0,0,,12,,,47,127
116335,note_off,128,0,0,,8,,,68,127
116338,note_on,3,0,0,,4,,,64,127
116466,note_off,128,0,0,,4,,,64,127
116466,note_off,0,0,0,,12,,,47,127
116466,note_off,0,0,0,,8,,,56,127
116469,note_on,3,0,0,,12,,,71,127
116469,note_on,0,0,0,,8,,,56,127
116469,note_on,0,0,0,,12,,,47,127
116597,note_off,128,0,0,,12,,,71,127
116600,note_on,3,0,0,,8,,,68,127
116728,note_off,128,0,0,,8,,,68,127
116728,note_off,0,0,0,,12,,,47,127
116728,note_off,0,0,0,,8,,,56,127
116731,note_on,3,0,0,,4,,,76,127
116731,note_on,0,0,0,,4,,,52,127
116731,note_on,0,0,0,,12,,,47,127
116859,note_off,128,0,0,,4,,,76,127
116862,note_on,3,0,0,,12,,,71,127
116990,note_off,128,0,0,,12,,,71,127
116990,note_off,0,0,0,,12,,,47,127
116990,note_off,0,0,0,,4,,,52,127
116993,note_on,3,0,0,,4,,,76,127
116993,note_on,0,0,0,,4,,,52,127
116993,note_on,0,0,0,,12,,,47,127
117121,note_off,128,0,0,,4,,,76,127
117124,note_on,3,0,0,,8,,,80,127
117252,note_off,128,0,0,,8,,,80,127
117252,note_off,0,0,0,,12,,,47,127
117252,note_off,0,0,0,,4,,,52,127
117255,note_on,3,0,0,,8,,,80,127
117255,note_on,0,0,0,,4,,,76,127
117255,note_on,0,0,0,,12,,,47,127
117776,note_off,521,0,0,,4,,,76,127
117776,note_off,0,0,0,,8,,,80,127
117779,note_on,3,0,0,,6,,,78,127
117779,note_on,0,0,0,,3,,,75,127
118024,note_off,245,0,0,,3,,,75,127
118024,note_off,0,0,0,,6,,,78,127
118038,note_off,14,0,0,,12,,,47,127
118052,note_on,14,0,0,,3,,,51,127
118137,note_off,85,0,0,,3,,,51,127
118140,note_on,3,0,0,,1,,,49,127
118225,note_off,85,0,0,,1,,,49,127
118228,note_on,3,0,0,,12,,,47,127
118313,note_off,85,0,0,,12,,,47,127
118316,note_on,3,0,0,,4,,,52,127
118444,note_off,128,0,0,,4,,,52,127
118447,note_on,3,0,0,,12,,,47,127
118575,note_off,128,0,0,,12,,,47,127
118578,note_on,3,0,0,,12,,,83,127
118578,note_on,0,0,0,,8,,,56,127
118706,note_off,128,0,0,,8,,,56,127
118709,note_on,3,0,0,,4,,,52,127
118837,note_off,128,0,0,,4,,,52,127
118837,note_off,0,0,0,,12,,,83,127
118840,note_on,3,0,0,,8,,,80,127
118840,note_on,0,0,0,,12,,,59,127
118968,note_off,128,0,0,,12,,,59,127
118971,note_on,3,0,0,,8,,,56,127
119099,note_off,128,0,0,,8,,,56,127
119099,note_off,0,0,0,,8,,,80,127
119102,note_on,3,0,0,,4,,,76,127
119102,note_on,0,0,0,,4,,,64,127
119230,note_off,128,0,0,,4,,,64,127
119233,note_on,3,0,0,,12,,,59,127
119361,note_off,128,0,0,,12,,,59,127
119361,note_off,0,0,0,,4,,,76,127
119364,note_on,3,0,0,,8,,,80,127
119364,note_on,0,0,0,,12,,,47,127
119623,note_off,259,0,0,,8,,,80,127
119626,note_on,3,0,0,,8,,,80,127
119711,note_off,85,0,0,,8,,,80,127
119714,note_on,3,0,0,,6,,,78,127
119799,note_off,85,0,0,,6,,,78,127
119802,note_on,3,0,0,,4,,,76,127
119887,note_off,85,0,0,,4,,,76,127
119890,note_on,3,0,0,,6,,,78,127
120135,note_off,245,0,0,,6,,,78,127
120149,note_off,14,0,0,,12,,,47,127
120152,note_on,3,0,0,,3,,,51,127
120237,note_off,85,0,0,,3,,,51,127
120240,note_on,3,0,0,,1,,,49,127
120325,note_off,85,0,0,,1,,,49,127
120328,note_on,3,0,0,,12,,,47,127
120413,note_off,85,0,0,,12,,,47,127
120416,note_on,3,0,0,,8,,,56,127
120544,note_off,128,0,0,,8,,,56,127
120547,note_on,3,0,0,,4,,,52,127
120675,note_off,128,0,0,,4,,,52,127
120678,note_on,3,0,0,,12,,,83,127
120678,note_on,0,0,0,,12,,,59,127
120806,note_off,128,0,0,,12,,,59,127
120809,note_on,3,0,0,,8,,,56,127
120937,note_off,128,0,0,,8,,,56,127
120937,note_off,0,0,0,,12,,,83,127
120940,note_on,3,0,0,,8,,,80,127
120940,note_on,0,0,0,,4,,,64,127
121068,note_off,128,0,0,,4,,,64,127
121071,note_on,3,0,0,,12,,,59,127
121199,note_off,128,0,0,,12,,,59,127
121199,note_off,0,0,0,,8,,,80,127
121202,note_on,3,0,0,,4,,,76,127
121202,note_on,0,0,0,,8,,,68,127
121330,note_off,128,0,0,,8,,,68,127
121333,note_on,3,0,0,,4,,,64,127
121461,note_off,128,0,0,,4,,,64,127
121464,note_on,3,0,0,,12,,,47,127
121666,note_off,202,0,0,,4,,,76,127
121726,note_on,60,0,0,,4,,,76,127
121811,note_off,85,0,0,,4,,,76,127
121814,note_on,3,0,0,,3,,,75,127
121899,note_off,85,0,0,,3,,,75,127
121902,note_on,3,0,0,,1,,,73,127
121987,note_off,85,0,0,,1,,,73,127
121987,note_off,0,0,0,,12,,,47,127
121990,note_on,3,0,0,,3,,,75,127
121990,note_on,0,0,0,,12,,,59,127
122109,note_off,119,0,0,,3,,,75,127
122132,note_on,23,0,0,,4,,,76,127
122260,note_off,128,0,0,,4,,,76,127
122263,note_on,3,0,0,,6,,,78,127
122391,note_off,128,0,0,,6,,,78,127
122394,note_on,3,0,0,,8,,,80,127
122511,note_off,117,0,0,,12,,,59,127
122522,note_off,11,0,0,,8,,,80,127
122525,note_on,3,0,0,,12,,,83,127
122525,note_on,0,0,0,,10,,,45,127
122653,note_off,128,0,0,,12,,,83,127
122656,note_on,3,0,0,,10,,,81,127
122787,note_on,131,0,0,,10,,,57,127
122902,note_off,115,0,0,,10,,,81,127
122918,note_on,16,0,0,,1,,,73,127
123043,note_off,125,0,0,,10,,,45,127
123046,note_off,3,0,0,,1,,,73,127
123046,note_off,0,0,0,,10,,,57,127
123049,note_on,3,0,0,,4,,,76,127
123049,note_on,0,0,0,,12,,,47,127
123177,note_off,128,0,0,,4,,,76,127
123180,note_on,3,0,0,,3,,,75,127
123311,note_on,131,0,0,,12,,,59,127
123426,note_off,115,0,0,,3,,,75,127
123442,note_on,16,0,0,,8,,,80,127
123567,note_off,125,0,0,,12,,,47,127
123570,note_off,3,0,0,,8,,,80,127
123570,note_off,0,0,0,,12,,,59,127
123573,note_on,3,0,0,,12,,,83,127
123573,note_on,0,0,0,,10,,,45,127
123701,note_off,128,0,0,,12,,,83,127
123704,note_on,3,0,0,,10,,,81,127
123835,note_on,131,0,0,,10,,,57,127
123950,note_off,115,0,0,,10,,,81,127
123966,note_on,16,0,0,,1,,,73,127
124091,note_off,125,0,0,,10,,,45,127
124094,note_off,3,0,0,,1,,,73,127
124094,note_off,0,0,0,,10,,,57,127
124097,note_on,3,0,0,,4,,,76,127
124097,note_on,0,0,0,,12,,,47,127
124225,note_off,128,0,0,,4,,,76,127
124228,note_on,3,0,0,,3,,,75,127
124359,note_on,131,0,0,,10,,,57,127
124474,note_off,115,0,0,,3,,,75,127
124490,note_on,16,0,0,,6,,,78,127
124615,note_off,125,0,0,,12,,,47,127
124618,note_off,3,0,0,,6,,,78,127
124618,note_off,0,0,0,,10,,,57,127
124621,note_on,3,0,0,,4,,,76,127
124621,note_on,0,0,0,,8,,,56,127
124749,note_off,128,0,0,,4,,,76,127
124752,note_on,3,0,0,,12,,,71,127
124880,note_off,128,0,0,,12,,,71,127
124880,note_off,0,0,0,,8,,,56,127
124883,note_on,3,0,0,,10,,,81,127
124883,note_on,0,0,0,,10,,,57,127
125011,note_off,128,0,0,,10,,,81,127
125014,note_on,3,0,0,,6,,,78,127
125142,note_off,128,0,0,,6,,,78,127
125142,note_off,0,0,0,,10,,,57,127
125145,note_on,3,0,0,,8,,,80,127
125145,note_on,0,0,0,,12,,,59,127
125208,note_off,63,0,0,,8,,,80,127
125211,note_on,3,0,0,,6,,,78,127
125274,note_off,63,0,0,,6,,,78,127
125277,note_on,3,0,0,,8,,,80,127
125340,note_off,63,0,0,,8,,,80,127
125343,note_on,3,0,0,,6,,,78,127
125406,note_off,63,0,0,,6,,,78,127
125409,note_on,3,0,0,,8,,,80,127
125409,note_on,0,0,0,,12,,,47,127
125472,note_off,63,0,0,,8,,,80,127
125475,note_on,3,0,0,,6,,,78,127
125538,note_off,63,0,0,,6,,,78,127
125541,note_off,3,0,0,,12,,,59,127
125541,note_on,0,0,0,,4,,,76,127
125604,note_off,63,0,0,,4,,,76,127
125609,note_on,5,0,0,,6,,,78,127
125669,note_off,60,0,0,,12,,,47,127
125672,note_off,3,0,0,,6,,,78,127
125683,note_on,11,0,0,,4,,,76,127
125683,note_on,0,0,0,,4,,,52,127
125683,note_on,0,0,0,,4,,,40,127
126729,note_off,1046,0,0,,4,,,40,127
126729,note_off,0,0,0,,4,,,52,127
126777,note_off,48,0,0,,4,,,76,127
126982,note_on,205,0,0,,4,,,76,127
127110,note_off,128,0,0,,4,,,76,127
127113,note_on,3,0,0,,7,,,79,127
127241,note_off,128,0,0,,7,,,79,127
127244,note_on,3,0,0,,5,,,77,127
127372,note_off,128,0,0,,5,,,77,127
127375,note_on,3,0,0,,4,,,76,127
127503,note_off,128,0,0,,4,,,76,127
127506,note_on,3,0,0,,11,,,70,127
127506,note_on,0,0,0,,2,,,74,127
127634,note_off,128,0,0,,2,,,74,127
127634,note_off,0,0,0,,11,,,70,127
127637,note_on,3,0,0,,10,,,69,127
127637,note_on,0,0,0,,1,,,73,127
127765,note_off,128,0,0,,10,,,69,127
127768,note_on,3,0,0,,7,,,67,127
127896,note_off,128,0,0,,7,,,67,127
127896,note_off,0,0,0,,1,,,73,127
127899,note_on,3,0,0,,5,,,65,127
127899,note_on,0,0,0,,2,,,74,127
128027,note_off,128,0,0,,5,,,65,127
128030,note_on,3,0,0,,4,,,64,127
128158,note_off,128,0,0,,4,,,64,127
128161,note_on,3,0,0,,2,,,62,127
128254,note_off,93,0,0,,2,,,74,127
128289,note_off,35,0,0,,2,,,62,127
128292,note_on,3,0,0,,1,,,61,127
128292,note_on,0,0,0,,4,,,76,127
128420,note_off,128,0,0,,4,,,76,127
128420,note_off,0,0,0,,1,,,61,127
128423,note_on,3,0,0,,2,,,50,127
128423,note_on,0,0,0,,2,,,62,127
128423,note_on,0,0,0,,5,,,77,127
128551,note_off,128,0,0,,5,,,77,127
128554,note_on,3,0,0,,7,,,79,127
128682,note_off,128,0,0,,7,,,79,127
128682,note_off,0,0,0,,2,,,62,127
128682,note_off,0,0,0,,2,,,50,127
128685,note_on,3,0,0,,10,,,45,127
128685,note_on,0,0,0,,10,,,57,127
128685,note_on,0,0,0,,10,,,81,127
128813,note_off,128,0,0,,10,,,81,127
128816,note_on,3,0,0,,7,,,79,127
128944,note_off,128,0,0,,7,,,79,127
128944,note_off,0,0,0,,10,,,57,127
128944,note_off,0,0,0,,10,,,45,127
128947,note_on,3,0,0,,2,,,38,127
128947,note_on,0,0,0,,2,,,50,127
128947,note_on,0,0,0,,5,,,77,127
129075,note_off,128,0,0,,5,,,77,127
129078,note_on,3,0,0,,4,,,76,127
129206,note_off,128,0,0,,4,,,76,127
129209,note_on,3,0,0,,2,,,74,127
129337,note_off,128,0,0,,2,,,74,127
129340,note_on,3,0,0,,1,,,73,127
129468,note_off,128,0,0,,1,,,73,127
129471,note_on,3,0,0,,2,,,74,127
129602,note_off,131,0,0,,2,,,50,127
129602,note_off,0,0,0,,2,,,38,127
129612,note_off,10,0,0,,2,,,74,127
129613,note_on,1,0,0,,10,,,69,127
129741,note_off,128,0,0,,10,,,69,127
129744,note_on,3,0,0,,5,,,77,127
129872,note_off,128,0,0,,5,,,77,127
129875,note_on,3,0,0,,3,,,75,127
130003,note_off,128,0,0,,3,,,75,127
130006,note_on,3,0,0,,2,,,74,127
130134,note_off,128,0,0,,2,,,74,127
130137,note_on,3,0,0,,8,,,68,127
130137,note_on,0,0,0,,0,,,72,127
130265,note_off,128,0,0,,0,,,72,127
130265,note_off,0,0,0,,8,,,68,127
130268,note_on,3,0,0,,7,,,67,127
130268,note_on,0,0,0,,12,,,71,127
130396,note_off,128,0,0,,7,,,67,127
130399,note_on,3,0,0,,5,,,65,127
130527,note_off,128,0,0,,5,,,65,127
130527,note_off,0,0,0,,12,,,71,127
130530,note_on,3,0,0,,3,,,63,127
130530,note_on,0,0,0,,0,,,72,127
130658,note_off,128,0,0,,3,,,63,127
130661,note_on,3,0,0,,2,,,62,127
130789,note_off,128,0,0,,2,,,62,127
130792,note_on,3,0,0,,0,,,60,127
130885,note_off,93,0,0,,0,,,72,127
130920,note_off,35,0,0,,0,,,60,127
130923,note_on,3,0,0,,12,,,59,127
130923,note_on,0,0,0,,2,,,74,127
131051,note_off,128,0,0,,2,,,74,127
131051,note_off,0,0,0,,12,,,59,127
131054,note_on,3,0,0,,0,,,60,127
131054,note_on,0,0,0,,0,,,48,127
131054,note_on,0,0,0,,3,,,75,127
131182,note_off,128,0,0,,3,,,75,127
131185,note_on,3,0,0,,5,,,77,127
131313,note_off,128,0,0,,5,,,77,127
131313,note_off,0,0,0,,0,,,48,127
131313,note_off,0,0,0,,0,,,60,127
131316,note_on,3,0,0,,7,,,55,127
131316,note_on,0,0,0,,7,,,43,127
131316,note_on,0,0,0,,7,,,79,127
131444,note_off,128,0,0,,7,,,79,127
131447,note_on,3,0,0,,5,,,77,127
131575,note_off,128,0,0,,5,,,77,127
131575,note_off,0,0,0,,7,,,43,127
131575,note_off,0,0,0,,7,,,55,127
131578,note_on,3,0,0,,0,,,36,127
131578,note_on,0,0,0,,0,,,48,127
131578,note_on,0,0,0,,3,,,75,127
131706,note_off,128,0,0,,3,,,75,127
131709,note_on,3,0,0,,2,,,74,127
131837,note_off,128,0,0,,2,,,74,127
131840,note_on,3,0,0,,0,,,72,127
131968,note_off,128,0,0,,0,,,72,127
131971,note_on,3,0,0,,12,,,71,127
132099,note_off,128,0,0,,12,,,71,127
132102,note_on,3,0,0,,0,,,72,127
132233,note_off,131,0,0,,0,,,48,127
132233,note_off,0,0,0,,0,,,36,127
132244,note_on,11,0,0,,7,,,67,127
132247,note_off,3,0,0,,0,,,72,127
132372,note_off,125,0,0,,7,,,67,127
132375,note_on,3,0,0,,11,,,82,127
132503,note_off,128,0,0,,11,,,82,127
132506,note_on,3,0,0,,8,,,80,127
132634,note_off,128,0,0,,8,,,80,127
132637,note_on,3,0,0,,7,,,79,127
132765,note_off,128,0,0,,7,,,79,127
132768,note_on,3,0,0,,1,,,73,127
132768,note_on,0,0,0,,5,,,77,127
132896,note_off,128,0,0,,5,,,77,127
132896,note_off,0,0,0,,1,,,73,127
132899,note_on,3,0,0,,0,,,72,127
132899,note_on,0,0,0,,4,,,76,127
133027,note_off,128,0,0,,0,,,72,127
133030,note_on,3,0,0,,11,,,70,127
133158,note_off,128,0,0,,11,,,70,127
133158,note_off,0,0,0,,4,,,76,127
133161,note_on,3,0,0,,8,,,68,127
133161,note_on,0,0,0,,5,,,77,127
133289,note_off,128,0,0,,8,,,68,127
133292,note_on,3,0,0,,7,,,67,127
133420,note_off,128,0,0,,7,,,67,127
133423,note_on,3,0,0,,5,,,65,127
133516,note_off,93,0,0,,5,,,77,127
133551,note_off,35,0,0,,5,,,65,127
133554,note_on,3,0,0,,4,,,64,127
133554,note_on,0,0,0,,7,,,79,127
133682,note_off,128,0,0,,7,,,79,127
133682,note_off,0,0,0,,4,,,64,127
133685,note_on,3,0,0,,5,,,53,127
133685,note_on,0,0,0,,5,,,65,127
133685,note_on,0,0,0,,8,,,80,127
133813,note_off,128,0,0,,8,,,80,127
133816,note_on,3,0,0,,11,,,82,127
133944,note_off,128,0,0,,11,,,82,127
133944,note_off,0,0,0,,5,,,65,127
133944,note_off,0,0,0,,5,,,53,127
133947,note_on,3,0,0,,0,,,60,127
133947,note_on,0,0,0,,0,,,48,127
133947,note_on,0,0,0,,0,,,84,127
134075,note_off,128,0,0,,0,,,84,127
134078,note_on,3,0,0,,11,,,82,127
134206,note_off,128,0,0,,11,,,82,127
134206,note_off,0,0,0,,0,,,48,127
134206,note_off,0,0,0,,0,,,60,127
134209,note_on,3,0,0,,5,,,41,127
134209,note_on,0,0,0,,5,,,53,127
134209,note_on,0,0,0,,8,,,80,127
134337,note_off,128,0,0,,8,,,80,127
134340,note_on,3,0,0,,7,,,79,127
134468,note_off,128,0,0,,7,,,79,127
134471,note_on,3,0,0,,5,,,77,127
134599,note_off,128,0,0,,5,,,77,127
134610,note_on,11,0,0,,4,,,76,127
134738,note_off,128,0,0,,4,,,76,127
134752,note_on,14,0,0,,5,,,77,127
134984,note_off,232,0,0,,5,,,77,127
134994,note_off,10,0,0,,5,,,41,127
135094,note_on,100,0,0,,0,,,72,127
135255,note_off,161,0,0,,5,,,53,127
135353,note_off,98,0,0,,0,,,72,127
135356,note_on,3,0,0,,0,,,72,127
135356,note_on,0,0,0,,3,,,63,127
135356,note_on,0,0,0,,0,,,60,127
135356,note_on,0,0,0,,5,,,53,127
135615,note_off,259,0,0,,5,,,53,127
135615,note_off,0,0,0,,0,,,60,127
135615,note_off,0,0,0,,3,,,63,127
135618,note_on,3,0,0,,3,,,63,127
135618,note_on,0,0,0,,0,,,60,127
135618,note_on,0,0,0,,5,,,53,127
135703,note_off,85,0,0,,0,,,72,127
135706,note_on,3,0,0,,11,,,70,127
135791,note_off,85,0,0,,11,,,70,127
135794,note_on,3,0,0,,1,,,73,127
135879,note_off,85,0,0,,1,,,73,127
135879,note_off,0,0,0,,5,,,53,127
135879,note_off,0,0,0,,0,,,60,127
135879,note_off,0,0,0,,3,,,63,127
135882,note_on,3,0,0,,0,,,72,127
135882,note_on,0,0,0,,3,,,63,127
135882,note_on,0,0,0,,0,,,60,127
135882,note_on,0,0,0,,5,,,53,127
136141,note_off,259,0,0,,5,,,53,127
136141,note_off,0,0,0,,0,,,60,127
136141,note_off,0,0,0,,3,,,63,127
136144,note_on,3,0,0,,3,,,63,127
136144,note_on,0,0,0,,0,,,60,127
136144,note_on,0,0,0,,5,,,53,127
136229,note_off,85,0,0,,0,,,72,127
136232,note_on,3,0,0,,11,,,70,127
136317,note_off,85,0,0,,11,,,70,127
136320,note_on,3,0,0,,1,,,73,127
136405,note_off,85,0,0,,1,,,73,127
136405,note_off,0,0,0,,5,,,53,127
136405,note_off,0,0,0,,0,,,60,127
136405,note_off,0,0,0,,3,,,63,127
136408,note_on,3,0,0,,1,,,73,127
136408,note_on,0,0,0,,3,,,63,127
136408,note_on,0,0,0,,0,,,60,127
136408,note_on,0,0,0,,6,,,54,127
136667,note_off,259,0,0,,6,,,54,127
136667,note_off,0,0,0,,0,,,60,127
136667,note_off,0,0,0,,3,,,63,127
136670,note_on,3,0,0,,3,,,63,127
136670,note_on,0,0,0,,0,,,60,127
136670,note_on,0,0,0,,6,,,54,127
136929,note_off,259,0,0,,6,,,54,127
136929,note_off,0,0,0,,0,,,60,127
136929,note_off,0,0,0,,3,,,63,127
136929,note_off,0,0,0,,1,,,73,127
136932,note_on,3,0,0,,0,,,72,127
136932,note_on,0,0,0,,3,,,63,127
136932,note_on,0,0,0,,0,,,60,127
136932,note_on,0,0,0,,6,,,54,127
137177,note_off,245,0,0,,0,,,72,127
137191,note_off,14,0,0,,6,,,54,127
137191,note_off,0,0,0,,0,,,60,127
137191,note_off,0,0,0,,3,,,63,127
137194,note_on,3,0,0,,3,,,75,127
137194,note_on,0,0,0,,3,,,63,127
137194,note_on,0,0,0,,0,,,60,127
137194,note_on,0,0,0,,6,,,54,127
137453,note_off,259,0,0,,6,,,54,127
137453,note_off,0,0,0,,0,,,60,127
137453,note_off,0,0,0,,3,,,63,127
137453,note_off,0,0,0,,3,,,75,127
137456,note_on,3,0,0,,6,,,78,127
137456,note_on,0,0,0,,3,,,63,127
137456,note_on,0,0,0,,0,,,60,127
137456,note_on,0,0,0,,5,,,53,127
137715,note_off,259,0,0,,5,,,53,127
137715,note_off,0,0,0,,0,,,60,127
137715,note_off,0,0,0,,3,,,63,127
137715,note_off,0,0,0,,6,,,78,127
137718,note_on,3,0,0,,5,,,77,127
137718,note_on,0,0,0,,3,,,63,127
137718,note_on,0,0,0,,0,,,60,127
137718,note_on,0,0,0,,5,,,53,127
137846,note_off,128,0,0,,5,,,77,127
137849,note_on,3,0,0,,3,,,75,127
137977,note_off,128,0,0,,3,,,75,127
137977,note_off,0,0,0,,5,,,53,127
137977,note_off,0,0,0,,0,,,60,127
137977,note_off,0,0,0,,3,,,63,127
137980,note_on,3,0,0,,1,,,73,127
137980,note_on,0,0,0,,3,,,63,127
137980,note_on,0,0,0,,0,,,60,127
137980,note_on,0,0,0,,5,,,53,127
138108,note_off,128,0,0,,1,,,73,127
138111,note_on,3,0,0,,0,,,72,127
138239,note_off,128,0,0,,0,,,72,127
138239,note_off,0,0,0,,5,,,53,127
138239,note_off,0,0,0,,0,,,60,127
138239,note_off,0,0,0,,3,,,63,127
138242,note_on,3,0,0,,11,,,70,127
138242,note_on,0,0,0,,3,,,63,127
138242,note_on,0,0,0,,0,,,60,127
138242,note_on,0,0,0,,5,,,53,127
138370,note_off,128,0,0,,11,,,70,127
138373,note_on,3,0,0,,10,,,69,127
138501,note_off,128,0,0,,10,,,69,127
138501,note_off,0,0,0,,5,,,53,127
138501,note_off,0,0,0,,0,,,60,127
138501,note_off,0,0,0,,3,,,63,127
138504,note_on,3,0,0,,10,,,69,127
138504,note_on,0,0,0,,1,,,61,127
138504,note_on,0,0,0,,11,,,58,127
138504,note_on,0,0,0,,5,,,53,127
138763,note_off,259,0,0,,5,,,53,127
138763,note_off,0,0,0,,11,,,58,127
138763,note_off,0,0,0,,1,,,61,127
138766,note_on,3,0,0,,1,,,61,127
138766,note_on,0,0,0,,11,,,58,127
138766,note_on,0,0,0,,5,,,53,127
139025,note_off,259,0,0,,5,,,53,127
139025,note_off,0,0,0,,11,,,58,127
139025,note_off,0,0,0,,1,,,61,127
139025,note_off,0,0,0,,10,,,69,127
139028,note_on,3,0,0,,11,,,70,127
139028,note_on,0,0,0,,1,,,61,127
139028,note_on,0,0,0,,11,,,58,127
139028,note_on,0,0,0,,5,,,53,127
139273,note_off,245,0,0,,11,,,70,127
139287,note_off,14,0,0,,5,,,53,127
139287,note_off,0,0,0,,11,,,58,127
139287,note_off,0,0,0,,1,,,61,127
139298,note_on,11,0,0,,5,,,53,127
139298,note_on,0,0,0,,11,,,58,127
139298,note_on,0,0,0,,1,,,61,127
139298,note_on,0,0,0,,1,,,73,127
139557,note_off,259,0,0,,1,,,73,127
139557,note_off,0,0,0,,1,,,61,127
139557,note_off,0,0,0,,11,,,58,127
139557,note_off,0,0,0,,5,,,53,127
139560,note_on,3,0,0,,5,,,53,127
139560,note_on,0,0,0,,11,,,58,127
139560,note_on,0,0,0,,1,,,61,127
139560,note_on,0,0,0,,1,,,73,127
139819,note_off,259,0,0,,1,,,61,127
139819,note_off,0,0,0,,11,,,58,127
139819,note_off,0,0,0,,5,,,53,127
139822,note_on,3,0,0,,5,,,53,127
139822,note_on,0,0,0,,11,,,58,127
139822,note_on,0,0,0,,1,,,61,127
139907,note_off,85,0,0,,1,,,73,127
139910,note_on,3,0,0,,0,,,72,127
139995,note_off,85,0,0,,0,,,72,127
139998,note_on,3,0,0,,3,,,75,127
140083,note_off,85,0,0,,3,,,75,127
140083,note_off,0,0,0,,1,,,61,127
140083,note_off,0,0,0,,11,,,58,127
140083,note_off,0,0,0,,5,,,53,127
140086,note_on,3,0,0,,5,,,53,127
140086,note_on,0,0,0,,11,,,58,127
140086,note_on,0,0,0,,1,,,61,127
140086,note_on,0,0,0,,1,,,73,127
140345,note_off,259,0,0,,1,,,61,127
140345,note_off,0,0,0,,11,,,58,127
140345,note_off,0,0,0,,5,,,53,127
140348,note_on,3,0,0,,5,,,53,127
140348,note_on,0,0,0,,11,,,58,127
140348,note_on,0,0,0,,1,,,61,127
140433,note_off,85,0,0,,1,,,73,127
140436,note_on,3,0,0,,0,,,72,127
140521,note_off,85,0,0,,0,,,72,127
140524,note_on,3,0,0,,3,,,75,127
140609,note_off,85,0,0,,3,,,75,127
140609,note_off,0,0,0,,1,,,61,127
140609,note_off,0,0,0,,11,,,58,127
140609,note_off,0,0,0,,5,,,53,127
140612,note_on,3,0,0,,3,,,51,127
140612,note_on,0,0,0,,11,,,58,127
140612,note_on,0,0,0,,1,,,61,127
140612,note_on,0,0,0,,7,,,67,127
140612,note_on,0,0,0,,3,,,75,127
140871,note_off,259,0,0,,3,,,75,127
140871,note_off,0,0,0,,1,,,61,127
140871,note_off,0,0,0,,11,,,58,127
140871,note_off,0,0,0,,3,,,51,127
140874,note_on,3,0,0,,3,,,51,127
140874,note_on,0,0,0,,11,,,58,127
140874,note_on,0,0,0,,1,,,61,127
140874,note_on,0,0,0,,1,,,73,127
141133,note_off,259,0,0,,1,,,61,127
141133,note_off,0,0,0,,11,,,58,127
141133,note_off,0,0,0,,3,,,51,127
141136,note_on,3,0,0,,3,,,51,127
141136,note_on,0,0,0,,11,,,58,127
141136,note_on,0,0,0,,1,,,61,127
141365,note_off,229,0,0,,1,,,73,127
141395,note_off,30,0,0,,1,,,61,127
141395,note_off,0,0,0,,11,,,58,127
141395,note_off,0,0,0,,3,,,51,127
141396,note_off,1,0,0,,7,,,67,127
141397,note_on,1,0,0,,3,,,51,127
141397,note_on,0,0,0,,11,,,58,127
141397,note_on,0,0,0,,1,,,61,127
141397,note_on,0,0,0,,1,,,73,127
141656,note_off,259,0,0,,1,,,73,127
141656,note_off,0,0,0,,1,,,61,127
141656,note_off,0,0,0,,11,,,58,127
141656,note_off,0,0,0,,3,,,51,127
141659,note_on,3,0,0,,3,,,51,127
141659,note_on,0,0,0,,11,,,58,127
141659,note_on,0,0,0,,1,,,61,127
141659,note_on,0,0,0,,5,,,77,127
141918,note_off,259,0,0,,5,,,77,127
141918,note_off,0,0,0,,1,,,61,127
141918,note_off,0,0,0,,11,,,58,127
141918,note_off,0,0,0,,3,,,51,127
141921,note_on,3,0,0,,3,,,51,127
141921,note_on,0,0,0,,11,,,58,127
141921,note_on,0,0,0,,1,,,61,127
141921,note_on,0,0,0,,3,,,75,127
142049,note_off,128,0,0,,3,,,75,127
142052,note_on,3,0,0,,1,,,73,127
142180,note_off,128,0,0,,1,,,73,127
142180,note_off,0,0,0,,1,,,61,127
142180,note_off,0,0,0,,11,,,58,127
142180,note_off,0,0,0,,3,,,51,127
142183,note_on,3,0,0,,3,,,51,127
142183,note_on,0,0,0,,1,,,61,127
142183,note_on,0,0,0,,11,,,58,127
142183,note_on,0,0,0,,0,,,72,127
142311,note_off,128,0,0,,0,,,72,127
142314,note_on,3,0,0,,11,,,70,127
142442,note_off,128,0,0,,11,,,70,127
142442,note_off,0,0,0,,11,,,58,127
142442,note_off,0,0,0,,1,,,61,127
142442,note_off,0,0,0,,3,,,51,127
142445,note_on,3,0,0,,3,,,51,127
142445,note_on,0,0,0,,11,,,58,127
142445,note_on,0,0,0,,1,,,61,127
142445,note_on,0,0,0,,8,,,68,127
142573,note_off,128,0,0,,8,,,68,127
142576,note_on,3,0,0,,7,,,67,127
142704,note_off,128,0,0,,7,,,67,127
142704,note_off,0,0,0,,1,,,61,127
142704,note_off,0,0,0,,11,,,58,127
142704,note_off,0,0,0,,3,,,51,127
142707,note_on,3,0,0,,3,,,51,127
142707,note_on,0,0,0,,8,,,56,127
142707,note_on,0,0,0,,0,,,60,127
142707,note_on,0,0,0,,7,,,67,127
142966,note_off,259,0,0,,0,,,60,127
142966,note_off,0,0,0,,8,,,56,127
142966,note_off,0,0,0,,3,,,51,127
142969,note_on,3,0,0,,3,,,51,127
142969,note_on,0,0,0,,8,,,56,127
142969,note_on,0,0,0,,0,,,60,127
143228,note_off,259,0,0,,0,,,60,127
143228,note_off,0,0,0,,8,,,56,127
143228,note_off,0,0,0,,3,,,51,127
143228,note_off,0,0,0,,7,,,67,127
143231,note_on,3,0,0,,3,,,51,127
143231,note_on,0,0,0,,8,,,56,127
143231,note_on,0,0,0,,0,,,60,127
143231,note_on,0,0,0,,8,,,68,127
143476,note_off,245,0,0,,8,,,68,127
143490,note_off,14,0,0,,0,,,60,127
143490,note_off,0,0,0,,8,,,56,127
143490,note_off,0,0,0,,3,,,51,127
143504,note_on,14,0,0,,3,,,51,127
143504,note_on,0,0,0,,8,,,56,127
143504,note_on,0,0,0,,0,,,60,127
143504,note_on,0,0,0,,0,,,72,127
143763,note_off,259,0,0,,0,,,72,127
143763,note_off,0,0,0,,0,,,60,127
143763,note_off,0,0,0,,8,,,56,127
143763,note_off,0,0,0,,3,,,51,127
143766,note_on,3,0,0,,3,,,51,127
143766,note_on,0,0,0,,8,,,56,127
143766,note_on,0,0,0,,0,,,60,127
143766,note_on,0,0,0,,0,,,72,127
144025,note_off,259,0,0,,0,,,60,127
144025,note_off,0,0,0,,8,,,56,127
144025,note_off,0,0,0,,3,,,51,127
144028,note_on,3,0,0,,3,,,51,127
144028,note_on,0,0,0,,8,,,56,127
144028,note_on,0,0,0,,0,,,60,127
144113,note_off,85,0,0,,0,,,72,127
144116,note_on,3,0,0,,12,,,71,127
144201,note_off,85,0,0,,12,,,71,127
144204,note_on,3,0,0,,2,,,74,127
144289,note_off,85,0,0,,2,,,74,127
144289,note_off,0,0,0,,0,,,60,127
144289,note_off,0,0,0,,8,,,56,127
144289,note_off,0,0,0,,3,,,51,127
144292,note_on,3,0,0,,3,,,51,127
144292,note_on,0,0,0,,8,,,56,127
144292,note_on,0,0,0,,0,,,60,127
144292,note_on,0,0,0,,0,,,72,127
144551,note_off,259,0,0,,0,,,60,127
144551,note_off,0,0,0,,8,,,56,127
144551,note_off,0,0,0,,3,,,51,127
144554,note_on,3,0,0,,3,,,51,127
144554,note_on,0,0,0,,8,,,56,127
144554,note_on,0,0,0,,0,,,60,127
144639,note_off,85,0,0,,0,,,72,127
144642,note_on,3,0,0,,12,,,71,127
144727,note_off,85,0,0,,12,,,71,127
144730,note_on,3,0,0,,2,,,74,127
144815,note_off,85,0,0,,2,,,74,127
144815,note_off,0,0,0,,0,,,60,127
144815,note_off,0,0,0,,8,,,56,127
144815,note_off,0,0,0,,3,,,51,127
144818,note_on,3,0,0,,2,,,50,127
144818,note_on,0,0,0,,8,,,56,127
144818,note_on,0,0,0,,0,,,60,127
144818,note_on,0,0,0,,0,,,72,127
145077,note_off,259,0,0,,0,,,60,127
145077,note_off,0,0,0,,8,,,56,127
145077,note_off,0,0,0,,2,,,50,127
145080,note_on,3,0,0,,2,,,50,127
145080,note_on,0,0,0,,8,,,56,127
145080,note_on,0,0,0,,0,,,60,127
145080,note_on,0,0,0,,5,,,77,127
145339,note_off,259,0,0,,0,,,60,127
145339,note_off,0,0,0,,8,,,56,127
145339,note_off,0,0,0,,2,,,50,127
145342,note_on,3,0,0,,2,,,50,127
145342,note_on,0,0,0,,8,,,56,127
145342,note_on,0,0,0,,0,,,60,127
145571,note_off,229,0,0,,5,,,77,127
145601,note_off,30,0,0,,0,,,60,127
145601,note_off,0,0,0,,8,,,56,127
145601,note_off,0,0,0,,2,,,50,127
145602,note_off,1,0,0,,0,,,72,127
145614,note_on,12,0,0,,2,,,50,127
145614,note_on,0,0,0,,8,,,56,127
145614,note_on,0,0,0,,0,,,60,127
145614,note_on,0,0,0,,5,,,77,127
145614,note_on,0,0,0,,0,,,72,127
145873,note_off,259,0,0,,0,,,72,127
145873,note_off,0,0,0,,5,,,77,127
145873,note_off,0,0,0,,0,,,60,127
145873,note_off,0,0,0,,8,,,56,127
145873,note_off,0,0,0,,2,,,50,127
145876,note_on,3,0,0,,2,,,50,127
145876,note_on,0,0,0,,5,,,53,127
145876,note_on,0,0,0,,0,,,60,127
145876,note_on,0,0,0,,5,,,77,127
145876,note_on,0,0,0,,0,,,72,127
146135,note_off,259,0,0,,0,,,60,127
146135,note_off,0,0,0,,5,,,53,127
146135,note_off,0,0,0,,2,,,50,127
146138,note_on,3,0,0,,2,,,50,127
146138,note_on,0,0,0,,5,,,53,127
146138,note_on,0,0,0,,0,,,60,127
146223,note_off,85,0,0,,5,,,77,127
146226,note_on,3,0,0,,4,,,76,127
146311,note_off,85,0,0,,4,,,76,127
146314,note_on,3,0,0,,7,,,79,127
146396,note_off,82,0,0,,0,,,72,127
146399,note_off,3,0,0,,7,,,79,127
146399,note_off,0,0,0,,0,,,60,127
146399,note_off,0,0,0,,5,,,53,127
146399,note_off,0,0,0,,2,,,50,127
146402,note_on,3,0,0,,2,,,50,127
146402,note_on,0,0,0,,5,,,53,127
146402,note_on,0,0,0,,0,,,60,127
146402,note_on,0,0,0,,5,,,77,127
146402,note_on,0,0,0,,0,,,72,127
146661,note_off,259,0,0,,0,,,60,127
146661,note_off,0,0,0,,5,,,53,127
146661,note_off,0,0,0,,2,,,50,127
146664,note_on,3,0,0,,2,,,50,127
146664,note_on,0,0,0,,5,,,53,127
146664,note_on,0,0,0,,0,,,60,127
146749,note_off,85,0,0,,5,,,77,127
146752,note_on,3,0,0,,4,,,76,127
146837,note_off,85,0,0,,4,,,76,127
146840,note_on,3,0,0,,7,,,79,127
146922,note_off,82,0,0,,0,,,72,127
146925,note_off,3,0,0,,7,,,79,127
146925,note_off,0,0,0,,0,,,60,127
146925,note_off,0,0,0,,5,,,53,127
146925,note_off,0,0,0,,2,,,50,127
146928,note_on,3,0,0,,7,,,43,127
146928,note_on,0,0,0,,2,,,50,127
146928,note_on,0,0,0,,5,,,53,127
146928,note_on,0,0,0,,12,,,71,127
146928,note_on,0,0,0,,7,,,79,127
147187,note_off,259,0,0,,5,,,53,127
147187,note_off,0,0,0,,2,,,50,127
147187,note_off,0,0,0,,7,,,43,127
147190,note_on,3,0,0,,7,,,43,127
147190,note_on,0,0,0,,2,,,50,127
147190,note_on,0,0,0,,5,,,53,127
147449,note_off,259,0,0,,5,,,53,127
147449,note_off,0,0,0,,2,,,50,127
147449,note_off,0,0,0,,7,,,43,127
147449,note_off,0,0,0,,7,,,79,127
147452,note_on,3,0,0,,7,,,43,127
147452,note_on,0,0,0,,2,,,50,127
147452,note_on,0,0,0,,5,,,53,127
147452,note_on,0,0,0,,5,,,77,127
147697,note_off,245,0,0,,5,,,77,127
147711,note_off,14,0,0,,5,,,53,127
147711,note_off,0,0,0,,2,,,50,127
147711,note_off,0,0,0,,7,,,43,127
147712,note_off,1,0,0,,12,,,71,127
147713,note_on,1,0,0,,7,,,43,127
147713,note_on,0,0,0,,2,,,50,127
147713,note_on,0,0,0,,5,,,53,127
147713,note_on,0,0,0,,5,,,77,127
147972,note_off,259,0,0,,5,,,77,127
147972,note_off,0,0,0,,5,,,53,127
147972,note_off,0,0,0,,2,,,50,127
147972,note_off,0,0,0,,7,,,43,127
147975,note_on,3,0,0,,7,,,43,127
147975,note_on,0,0,0,,2,,,50,127
147975,note_on,0,0,0,,5,,,53,127
147975,note_on,0,0,0,,8,,,80,127
148234,note_off,259,0,0,,8,,,80,127
148234,note_off,0,0,0,,5,,,53,127
148234,note_off,0,0,0,,2,,,50,127
148234,note_off,0,0,0,,7,,,43,127
148237,note_on,3,0,0,,7,,,43,127
148237,note_on,0,0,0,,2,,,50,127
148237,note_on,0,0,0,,5,,,53,127
148237,note_on,0,0,0,,7,,,79,127
148365,note_off,128,0,0,,7,,,79,127
148368,note_on,3,0,0,,5,,,77,127
148496,note_off,128,0,0,,5,,,77,127
148496,note_off,0,0,0,,5,,,53,127
148496,note_off,0,0,0,,2,,,50,127
148496,note_off,0,0,0,,7,,,43,127
148499,note_on,3,0,0,,7,,,43,127
148499,note_on,0,0,0,,2,,,50,127
148499,note_on,0,0,0,,5,,,53,127
148499,note_on,0,0,0,,3,,,75,127
148627,note_off,128,0,0,,3,,,75,127
148630,note_on,3,0,0,,2,,,74,127
148758,note_off,128,0,0,,2,,,74,127
148758,note_off,0,0,0,,5,,,53,127
148758,note_off,0,0,0,,2,,,50,127
148758,note_off,0,0,0,,7,,,43,127
148761,note_on,3,0,0,,7,,,43,127
148761,note_on,0,0,0,,2,,,50,127
148761,note_on,0,0,0,,5,,,53,127
148761,note_on,0,0,0,,0,,,72,127
148889,note_off,128,0,0,,0,,,72,127
148892,note_on,3,0,0,,12,,,71,127
149020,note_off,128,0,0,,12,,,71,127
149020,note_off,0,0,0,,5,,,53,127
149020,note_off,0,0,0,,2,,,50,127
149020,note_off,0,0,0,,7,,,43,127
149023,note_on,3,0,0,,7,,,55,127
149023,note_on,0,0,0,,0,,,60,127
149023,note_on,0,0,0,,3,,,63,127
149023,note_on,0,0,0,,12,,,71,127
149282,note_off,259,0,0,,3,,,63,127
149282,note_off,0,0,0,,0,,,60,127
149282,note_off,0,0,0,,7,,,55,127
149285,note_on,3,0,0,,7,,,55,127
149285,note_on,0,0,0,,0,,,60,127
149285,note_on,0,0,0,,3,,,63,127
149544,note_off,259,0,0,,3,,,63,127
149544,note_off,0,0,0,,0,,,60,127
149544,note_off,0,0,0,,7,,,55,127
149544,note_off,0,0,0,,12,,,71,127
149547,note_on,3,0,0,,7,,,55,127
149547,note_on,0,0,0,,0,,,60,127
149547,note_on,0,0,0,,3,,,63,127
149547,note_on,0,0,0,,0,,,72,127
149792,note_off,245,0,0,,0,,,72,127
149803,note_off,11,0,0,,7,,,55,127
149806,note_off,3,0,0,,3,,,63,127
149806,note_off,0,0,0,,0,,,60,127
149820,note_on,14,0,0,,7,,,55,127
149820,note_on,0,0,0,,0,,,60,127
149820,note_on,0,0,0,,3,,,63,127
149820,note_on,0,0,0,,3,,,75,127
150079,note_off,259,0,0,,3,,,75,127
150079,note_off,0,0,0,,3,,,63,127
150079,note_off,0,0,0,,0,,,60,127
150079,note_off,0,0,0,,7,,,55,127
150082,note_on,3,0,0,,7,,,55,127
150082,note_on,0,0,0,,0,,,60,127
150082,note_on,0,0,0,,3,,,63,127
150082,note_on,0,0,0,,3,,,75,127
150341,note_off,259,0,0,,3,,,63,127
150341,note_off,0,0,0,,0,,,60,127
150341,note_off,0,0,0,,7,,,55,127
150344,note_on,3,0,0,,7,,,55,127
150344,note_on,0,0,0,,0,,,60,127
150344,note_on,0,0,0,,3,,,63,127
150429,note_off,85,0,0,,3,,,75,127
150432,note_on,3,0,0,,2,,,74,127
150517,note_off,85,0,0,,2,,,74,127
150520,note_on,3,0,0,,5,,,77,127
150605,note_off,85,0,0,,5,,,77,127
150605,note_off,0,0,0,,3,,,63,127
150605,note_off,0,0,0,,0,,,60,127
150605,note_off,0,0,0,,7,,,55,127
150608,note_on,3,0,0,,7,,,55,127
150608,note_on,0,0,0,,0,,,60,127
150608,note_on,0,0,0,,3,,,63,127
150608,note_on,0,0,0,,3,,,75,127
150867,note_off,259,0,0,,3,,,63,127
150867,note_off,0,0,0,,0,,,60,127
150867,note_off,0,0,0,,7,,,55,127
150870,note_on,3,0,0,,7,,,55,127
150870,note_on,0,0,0,,0,,,60,127
150870,note_on,0,0,0,,3,,,63,127
150955,note_off,85,0,0,,3,,,75,127
150958,note_on,3,0,0,,2,,,74,127
151043,note_off,85,0,0,,2,,,74,127
151046,note_on,3,0,0,,5,,,77,127
151131,note_off,85,0,0,,5,,,77,127
151131,note_off,0,0,0,,3,,,63,127
151131,note_off,0,0,0,,0,,,60,127
151131,note_off,0,0,0,,7,,,55,127
151134,note_on,3,0,0,,5,,,53,127
151134,note_on,0,0,0,,0,,,60,127
151134,note_on,0,0,0,,3,,,63,127
151134,note_on,0,0,0,,10,,,69,127
151134,note_on,0,0,0,,5,,,77,127
151393,note_off,259,0,0,,3,,,63,127
151393,note_off,0,0,0,,0,,,60,127
151393,note_off,0,0,0,,5,,,53,127
151396,note_on,3,0,0,,5,,,53,127
151396,note_on,0,0,0,,0,,,60,127
151396,note_on,0,0,0,,3,,,63,127
151655,note_off,259,0,0,,3,,,63,127
151655,note_off,0,0,0,,0,,,60,127
151655,note_off,0,0,0,,5,,,53,127
151655,note_off,0,0,0,,5,,,77,127
151658,note_on,3,0,0,,5,,,53,127
151658,note_on,0,0,0,,0,,,60,127
151658,note_on,0,0,0,,3,,,63,127
151658,note_on,0,0,0,,3,,,75,127
151903,note_off,245,0,0,,3,,,75,127
151917,note_off,14,0,0,,3,,,63,127
151917,note_off,0,0,0,,0,,,60,127
151917,note_off,0,0,0,,5,,,53,127
151918,note_off,1,0,0,,10,,,69,127
151919,note_on,1,0,0,,5,,,53,127
151919,note_on,0,0,0,,0,,,60,127
151919,note_on,0,0,0,,3,,,63,127
151919,note_on,0,0,0,,3,,,75,127
152178,note_off,259,0,0,,3,,,75,127
152178,note_off,0,0,0,,3,,,63,127
152178,note_off,0,0,0,,0,,,60,127
152178,note_off,0,0,0,,5,,,53,127
152181,note_on,3,0,0,,5,,,53,127
152181,note_on,0,0,0,,0,,,60,127
152181,note_on,0,0,0,,3,,,63,127
152181,note_on,0,0,0,,7,,,79,127
152440,note_off,259,0,0,,7,,,79,127
152440,note_off,0,0,0,,3,,,63,127
152440,note_off,0,0,0,,0,,,60,127
152440,note_off,0,0,0,,5,,,53,127
152443,note_on,3,0,0,,5,,,53,127
152443,note_on,0,0,0,,0,,,60,127
152443,note_on,0,0,0,,3,,,63,127
152443,note_on,0,0,0,,5,,,77,127
152571,note_off,128,0,0,,5,,,77,127
152574,note_on,3,0,0,,3,,,75,127
152702,note_off,128,0,0,,3,,,75,127
152702,note_off,0,0,0,,3,,,63,127
152702,note_off,0,0,0,,0,,,60,127
152702,note_off,0,0,0,,5,,,53,127
152705,note_on,3,0,0,,5,,,53,127
152705,note_on,0,0,0,,0,,,60,127
152705,note_on,0,0,0,,3,,,63,127
152705,note_on,0,0,0,,2,,,74,127
152833,note_off,128,0,0,,2,,,74,127
152836,note_on,3,0,0,,0,,,72,127
152964,note_off,128,0,0,,0,,,72,127
152964,note_off,0,0,0,,3,,,63,127
152964,note_off,0,0,0,,0,,,60,127
152964,note_off,0,0,0,,5,,,53,127
152967,note_on,3,0,0,,5,,,53,127
152967,note_on,0,0,0,,0,,,60,127
152967,note_on,0,0,0,,3,,,63,127
152967,note_on,0,0,0,,11,,,70,127
153095,note_off,128,0,0,,11,,,70,127
153098,note_on,3,0,0,,10,,,69,127
153226,note_off,128,0,0,,10,,,69,127
153226,note_off,0,0,0,,3,,,63,127
153226,note_off,0,0,0,,0,,,60,127
153226,note_off,0,0,0,,5,,,53,127
153229,note_on,3,0,0,,5,,,53,127
153229,note_on,0,0,0,,11,,,58,127
153229,note_on,0,0,0,,2,,,62,127
153229,note_on,0,0,0,,10,,,69,127
153488,note_off,259,0,0,,2,,,62,127
153488,note_off,0,0,0,,11,,,58,127
153488,note_off,0,0,0,,5,,,53,127
153491,note_on,3,0,0,,5,,,53,127
153491,note_on,0,0,0,,11,,,58,127
153491,note_on,0,0,0,,2,,,62,127
153750,note_off,259,0,0,,2,,,62,127
153750,note_off,0,0,0,,11,,,58,127
153750,note_off,0,0,0,,5,,,53,127
153750,note_off,0,0,0,,10,,,69,127
153753,note_on,3,0,0,,5,,,53,127
153753,note_on,0,0,0,,11,,,58,127
153753,note_on,0,0,0,,2,,,62,127
153753,note_on,0,0,0,,11,,,70,127
153998,note_off,245,0,0,,11,,,70,127
154010,note_off,12,0,0,,5,,,53,127
154011,note_off,1,0,0,,2,,,62,127
154011,note_off,0,0,0,,11,,,58,127
154025,note_on,14,0,0,,5,,,53,127
154025,note_on,0,0,0,,11,,,58,127
154025,note_on,0,0,0,,2,,,62,127
154025,note_on,0,0,0,,2,,,74,127
154284,note_off,259,0,0,,2,,,74,127
154284,note_off,0,0,0,,2,,,62,127
154284,note_off,0,0,0,,11,,,58,127
154284,note_off,0,0,0,,5,,,53,127
154287,note_on,3,0,0,,5,,,53,127
154287,note_on,0,0,0,,11,,,58,127
154287,note_on,0,0,0,,2,,,62,127
154287,note_on,0,0,0,,2,,,74,127
154546,note_off,259,0,0,,2,,,62,127
154546,note_off,0,0,0,,11,,,58,127
154546,note_off,0,0,0,,5,,,53,127
154549,note_on,3,0,0,,5,,,53,127
154549,note_on,0,0,0,,11,,,58,127
154549,note_on,0,0,0,,2,,,62,127
154634,note_off,85,0,0,,2,,,74,127
154637,note_on,3,0,0,,1,,,73,127
154722,note_off,85,0,0,,1,,,73,127
154725,note_on,3,0,0,,4,,,76,127
154810,note_off,85,0,0,,4,,,76,127
154810,note_off,0,0,0,,2,,,62,127
154810,note_off,0,0,0,,11,,,58,127
154810,note_off,0,0,0,,5,,,53,127
154813,note_on,3,0,0,,5,,,53,127
154813,note_on,0,0,0,,11,,,58,127
154813,note_on,0,0,0,,2,,,62,127
154813,note_on,0,0,0,,2,,,74,127
155072,note_off,259,0,0,,2,,,62,127
155072,note_off,0,0,0,,11,,,58,127
155072,note_off,0,0,0,,5,,,53,127
155075,note_on,3,0,0,,5,,,53,127
155075,note_on,0,0,0,,11,,,58,127
155075,note_on,0,0,0,,2,,,62,127
155160,note_off,85,0,0,,2,,,74,127
155163,note_on,3,0,0,,1,,,73,127
155248,note_off,85,0,0,,1,,,73,127
155251,note_on,3,0,0,,4,,,76,127
155336,note_off,85,0,0,,4,,,76,127
155336,note_off,0,0,0,,2,,,62,127
155336,note_off,0,0,0,,11,,,58,127
155336,note_off,0,0,0,,5,,,53,127
155339,note_on,3,0,0,,4,,,52,127
155339,note_on,0,0,0,,11,,,58,127
155339,note_on,0,0,0,,2,,,62,127
155339,note_on,0,0,0,,2,,,74,127
155598,note_off,259,0,0,,2,,,62,127
155598,note_off,0,0,0,,11,,,58,127
155598,note_off,0,0,0,,4,,,52,127
155601,note_on,3,0,0,,4,,,52,127
155601,note_on,0,0,0,,11,,,58,127
155601,note_on,0,0,0,,2,,,62,127
155601,note_on,0,0,0,,7,,,79,127
155846,note_off,245,0,0,,7,,,79,127
155860,note_off,14,0,0,,2,,,62,127
155860,note_off,0,0,0,,11,,,58,127
155860,note_off,0,0,0,,4,,,52,127
155863,note_on,3,0,0,,4,,,52,127
155863,note_on,0,0,0,,11,,,58,127
155863,note_on,0,0,0,,2,,,62,127
155877,note_off,14,0,0,,2,,,74,127
156122,note_off,245,0,0,,2,,,62,127
156122,note_off,0,0,0,,11,,,58,127
156122,note_off,0,0,0,,4,,,52,127
156133,note_on,11,0,0,,7,,,79,127
156133,note_on,0,0,0,,2,,,74,127
156133,note_on,0,0,0,,2,,,62,127
156133,note_on,0,0,0,,11,,,58,127
156133,note_on,0,0,0,,4,,,52,127
156392,note_off,259,0,0,,4,,,52,127
156392,note_off,0,0,0,,11,,,58,127
156392,note_off,0,0,0,,2,,,62,127
156392,note_off,0,0,0,,2,,,74,127
156392,note_off,0,0,0,,7,,,79,127
156395,note_on,3,0,0,,7,,,79,127
156395,note_on,0,0,0,,2,,,74,127
156395,note_on,0,0,0,,2,,,62,127
156395,note_on,0,0,0,,7,,,55,127
156395,note_on,0,0,0,,4,,,52,127
156654,note_off,259,0,0,,4,,,52,127
156654,note_off,0,0,0,,7,,,55,127
156654,note_off,0,0,0,,2,,,62,127
156657,note_on,3,0,0,,2,,,62,127
156657,note_on,0,0,0,,7,,,55,127
156657,note_on,0,0,0,,4,,,52,127
156742,note_off,85,0,0,,7,,,79,127
156745,note_on,3,0,0,,6,,,78,127
156830,note_off,85,0,0,,6,,,78,127
156833,note_on,3,0,0,,10,,,81,127
156915,note_off,82,0,0,,2,,,74,127
156918,note_off,3,0,0,,10,,,81,127
156918,note_off,0,0,0,,4,,,52,127
156918,note_off,0,0,0,,7,,,55,127
156918,note_off,0,0,0,,2,,,62,127
156921,note_on,3,0,0,,7,,,79,127
156921,note_on,0,0,0,,2,,,74,127
156921,note_on,0,0,0,,2,,,62,127
156921,note_on,0,0,0,,7,,,55,127
156921,note_on,0,0,0,,4,,,52,127
157180,note_off,259,0,0,,4,,,52,127
157180,note_off,0,0,0,,7,,,55,127
157180,note_off,0,0,0,,2,,,62,127
157183,note_on,3,0,0,,2,,,62,127
157183,note_on,0,0,0,,7,,,55,127
157183,note_on,0,0,0,,4,,,52,127
157268,note_off,85,0,0,,7,,,79,127
157271,note_on,3,0,0,,6,,,78,127
157356,note_off,85,0,0,,6,,,78,127
157359,note_on,3,0,0,,10,,,81,127
157441,note_off,82,0,0,,2,,,74,127
157444,note_off,3,0,0,,10,,,81,127
157444,note_off,0,0,0,,4,,,52,127
157444,note_off,0,0,0,,7,,,55,127
157444,note_off,0,0,0,,2,,,62,127
157447,note_on,3,0,0,,10,,,81,127
157447,note_on,0,0,0,,1,,,73,127
157447,note_on,0,0,0,,7,,,55,127
157447,note_on,0,0,0,,4,,,52,127
157447,note_on,0,0,0,,10,,,45,127
157706,note_off,259,0,0,,10,,,45,127
157706,note_off,0,0,0,,4,,,52,127
157706,note_off,0,0,0,,7,,,55,127
157706,note_off,0,0,0,,10,,,81,127
157709,note_on,3,0,0,,7,,,79,127
157709,note_on,0,0,0,,7,,,55,127
157709,note_on,0,0,0,,4,,,52,127
157709,note_on,0,0,0,,10,,,45,127
157968,note_off,259,0,0,,10,,,45,127
157968,note_off,0,0,0,,4,,,52,127
157968,note_off,0,0,0,,7,,,55,127
157971,note_on,3,0,0,,7,,,55,127
157971,note_on,0,0,0,,4,,,52,127
157971,note_on,0,0,0,,10,,,45,127
158091,note_off,120,0,0,,7,,,79,127
158227,note_off,136,0,0,,10,,,45,127
158230,note_off,3,0,0,,4,,,52,127
158230,note_off,0,0,0,,7,,,55,127
158231,note_off,1,0,0,,1,,,73,127
158238,note_on,7,0,0,,10,,,45,127
158238,note_on,0,0,0,,4,,,52,127
158238,note_on,0,0,0,,7,,,55,127
158238,note_on,0,0,0,,7,,,79,127
158497,note_off,259,0,0,,7,,,79,127
158497,note_off,0,0,0,,7,,,55,127
158497,note_off,0,0,0,,4,,,52,127
158497,note_off,0,0,0,,10,,,45,127
158500,note_on,3,0,0,,10,,,45,127
158500,note_on,0,0,0,,4,,,52,127
158500,note_on,0,0,0,,7,,,55,127
158500,note_on,0,0,0,,11,,,82,127
158759,note_off,259,0,0,,11,,,82,127
158759,note_off,0,0,0,,7,,,55,127
158759,note_off,0,0,0,,4,,,52,127
158759,note_off,0,0,0,,10,,,45,127
158762,note_on,3,0,0,,10,,,45,127
158762,note_on,0,0,0,,4,,,52,127
158762,note_on,0,0,0,,7,,,55,127
158762,note_on,0,0,0,,10,,,81,127
158890,note_off,128,0,0,,10,,,81,127
158893,note_on,3,0,0,,7,,,79,127
159021,note_off,128,0,0,,7,,,79,127
159021,note_off,0,0,0,,7,,,55,127
159021,note_off,0,0,0,,4,,,52,127
159021,note_off,0,0,0,,10,,,45,127
159024,note_on,3,0,0,,10,,,45,127
159024,note_on,0,0,0,,4,,,52,127
159024,note_on,0,0,0,,7,,,55,127
159024,note_on,0,0,0,,5,,,77,127
159152,note_off,128,0,0,,5,,,77,127
159155,note_on,3,0,0,,4,,,76,127
159283,note_off,128,0,0,,4,,,76,127
159283,note_off,0,0,0,,7,,,55,127
159283,note_off,0,0,0,,4,,,52,127
159283,note_off,0,0,0,,10,,,45,127
159286,note_on,3,0,0,,10,,,45,127
159286,note_on,0,0,0,,4,,,52,127
159286,note_on,0,0,0,,7,,,55,127
159286,note_on,0,0,0,,2,,,74,127
159414,note_off,128,0,0,,2,,,74,127
159417,note_on,3,0,0,,1,,,73,127
159545,note_off,128,0,0,,1,,,73,127
159545,note_off,0,0,0,,7,,,55,127
159545,note_off,0,0,0,,4,,,52,127
159545,note_off,0,0,0,,10,,,45,127
159556,note_on,11,0,0,,2,,,50,127
159556,note_on,0,0,0,,10,,,57,127
159556,note_on,0,0,0,,2,,,74,127
159698,note_off,142,0,0,,2,,,74,127
159701,note_on,3,0,0,,4,,,76,127
159816,note_off,115,0,0,,10,,,57,127
159816,note_off,0,0,0,,2,,,50,127
159830,note_off,14,0,0,,4,,,76,127
159833,note_on,3,0,0,,6,,,78,127
159833,note_on,0,0,0,,10,,,57,127
159833,note_on,0,0,0,,2,,,50,127
159961,note_off,128,0,0,,6,,,78,127
159964,note_on,3,0,0,,7,,,79,127
160092,note_off,128,0,0,,7,,,79,127
160092,note_off,0,0,0,,2,,,50,127
160092,note_off,0,0,0,,10,,,57,127
160095,note_on,3,0,0,,10,,,81,127
160095,note_on,0,0,0,,2,,,62,127
160095,note_on,0,0,0,,10,,,57,127
160095,note_on,0,0,0,,2,,,50,127
160223,note_off,128,0,0,,10,,,81,127
160226,note_on,3,0,0,,0,,,72,127
160354,note_off,128,0,0,,0,,,72,127
160354,note_off,0,0,0,,2,,,50,127
160354,note_off,0,0,0,,10,,,57,127
160354,note_off,0,0,0,,2,,,62,127
160357,note_on,3,0,0,,11,,,70,127
160357,note_on,0,0,0,,2,,,62,127
160357,note_on,0,0,0,,10,,,57,127
160357,note_on,0,0,0,,2,,,50,127
160485,note_off,128,0,0,,11,,,70,127
160488,note_on,3,0,0,,10,,,69,127
160616,note_off,128,0,0,,10,,,69,127
160616,note_off,0,0,0,,2,,,50,127
160616,note_off,0,0,0,,10,,,57,127
160616,note_off,0,0,0,,2,,,62,127
160619,note_on,3,0,0,,10,,,69,127
160619,note_on,0,0,0,,2,,,62,127
160619,note_on,0,0,0,,7,,,55,127
160747,note_off,128,0,0,,10,,,69,127
160750,note_on,3,0,0,,11,,,70,127
160878,note_off,128,0,0,,11,,,70,127
160878,note_off,0,0,0,,7,,,55,127
160878,note_off,0,0,0,,2,,,62,127
160881,note_on,3,0,0,,0,,,72,127
160881,note_on,0,0,0,,2,,,62,127
160881,note_on,0,0,0,,7,,,55,127
161009,note_off,128,0,0,,0,,,72,127
161012,note_on,3,0,0,,2,,,74,127
161140,note_off,128,0,0,,2,,,74,127
161140,note_off,0,0,0,,7,,,55,127
161140,note_off,0,0,0,,2,,,62,127
161143,note_on,3,0,0,,3,,,75,127
161143,note_on,0,0,0,,0,,,60,127
161143,note_on,0,0,0,,0,,,48,127
161271,note_off,128,0,0,,3,,,75,127
161274,note_on,3,0,0,,11,,,70,127
161402,note_off,128,0,0,,11,,,70,127
161402,note_off,0,0,0,,0,,,48,127
161402,note_off,0,0,0,,0,,,60,127
161405,note_on,3,0,0,,10,,,69,127
161405,note_on,0,0,0,,0,,,60,127
161405,note_on,0,0,0,,0,,,48,127
161533,note_off,128,0,0,,10,,,69,127
161536,note_on,3,0,0,,7,,,67,127
161664,note_off,128,0,0,,7,,,67,127
161664,note_off,0,0,0,,0,,,48,127
161664,note_off,0,0,0,,0,,,60,127
161667,note_on,3,0,0,,7,,,67,127
161667,note_on,0,0,0,,2,,,50,127
161667,note_on,0,0,0,,2,,,38,127
161907,note_on,240,0,0,,6,,,66,127
161908,note_off,1,0,0,,7,,,67,127
162181,note_off,273,0,0,,6,,,66,127
162199,note_on,18,0,0,,4,,,64,127
162294,note_off,95,0,0,,4,,,64,127
162294,note_on,0,0,0,,6,,,66,127
162321,note_off,27,0,0,,2,,,38,127
162389,note_on,68,0,0,,4,,,64,127
162392,note_off,3,0,0,,6,,,66,127
162451,note_off,59,0,0,,2,,,50,127
162474,note_on,23,0,0,,2,,,62,127
162485,note_off,11,0,0,,4,,,64,127
162537,note_off,52,0,0,,2,,,62,127
162540,note_on,3,0,0,,4,,,64,127
162603,note_off,63,0,0,,4,,,64,127
162606,note_on,3,0,0,,6,,,66,127
162650,note_on,44,0,0,,7,,,67,127
162669,note_off,19,0,0,,6,,,66,127
162694,note_on,25,0,0,,10,,,69,127
162713,note_off,19,0,0,,7,,,67,127
162738,note_on,25,0,0,,12,,,71,127
162757,note_off,19,0,0,,10,,,69,127
162782,note_on,25,0,0,,1,,,73,127
162801,note_off,19,0,0,,12,,,71,127
162826,note_on,25,0,0,,2,,,74,127
162845,note_off,19,0,0,,1,,,73,127
162870,note_on,25,0,0,,4,,,76,127
162889,note_off,19,0,0,,2,,,74,127
162914,note_on,25,0,0,,6,,,78,127
162933,note_off,19,0,0,,4,,,76,127
162958,note_on,25,0,0,,7,,,79,127
162977,note_off,19,0,0,,6,,,78,127
163002,note_on,25,0,0,,10,,,81,127
163021,note_off,19,0,0,,7,,,79,127
163046,note_on,25,0,0,,12,,,83,127
163065,note_off,19,0,0,,10,,,81,127
163095,note_on,30,0,0,,1,,,85,127
163109,note_off,14,0,0,,12,,,83,127
163146,note_on,37,0,0,,2,,,86,127
163158,note_off,12,0,0,,1,,,85,127
163275,note_on,117,0,0,,2,,,38,127
163312,note_off,37,0,0,,2,,,86,127
164502,note_off,1190,0,0,,2,,,38,127
164851,note_on,349,0,0,,7,,,67,127
165075,note_on,224,0,0,,6,,,66,127
165075,note_on,0,0,0,,2,,,50,127
165089,note_off,14,0,0,,7,,,67,127
165160,note_off,71,0,0,,6,,,66,127
165163,note_on,3,0,0,,4,,,64,127
165248,note_off,85,0,0,,4,,,64,127
165251,note_on,3,0,0,,2,,,62,127
165336,note_off,85,0,0,,2,,,62,127
165336,note_off,0,0,0,,2,,,50,127
165339,note_on,3,0,0,,10,,,69,127
165339,note_on,0,0,0,,2,,,50,127
165424,note_off,85,0,0,,10,,,69,127
165427,note_on,3,0,0,,7,,,67,127
165512,note_off,85,0,0,,7,,,67,127
165515,note_on,3,0,0,,6,,,66,127
165600,note_off,85,0,0,,6,,,66,127
165600,note_off,0,0,0,,2,,,50,127
165603,note_on,3,0,0,,0,,,72,127
165603,note_on,0,0,0,,0,,,60,127
165603,note_on,0,0,0,,10,,,57,127
165603,note_on,0,0,0,,2,,,50,127
165688,note_off,85,0,0,,0,,,72,127
165691,note_on,3,0,0,,12,,,71,127
165776,note_off,85,0,0,,12,,,71,127
165779,note_on,3,0,0,,10,,,69,127
165864,note_off,85,0,0,,10,,,69,127
165864,note_off,0,0,0,,2,,,50,127
165864,note_off,0,0,0,,10,,,57,127
165864,note_off,0,0,0,,0,,,60,127
165867,note_on,3,0,0,,6,,,78,127
165867,note_on,0,0,0,,10,,,69,127
165867,note_on,0,0,0,,0,,,60,127
165867,note_on,0,0,0,,10,,,57,127
165867,note_on,0,0,0,,2,,,50,127
166126,note_off,259,0,0,,2,,,50,127
166126,note_off,0,0,0,,10,,,57,127
166126,note_off,0,0,0,,0,,,60,127
166126,note_off,0,0,0,,10,,,69,127
166126,note_off,0,0,0,,6,,,78,127
166129,note_on,3,0,0,,6,,,78,127
166129,note_on,0,0,0,,10,,,69,127
166129,note_on,0,0,0,,12,,,59,127
166129,note_on,0,0,0,,7,,,55,127
166129,note_on,0,0,0,,2,,,50,127
166388,note_off,259,0,0,,2,,,50,127
166388,note_off,0,0,0,,7,,,55,127
166388,note_off,0,0,0,,12,,,59,127
166388,note_off,0,0,0,,10,,,69,127
166388,note_off,0,0,0,,6,,,78,127
166391,note_on,3,0,0,,7,,,79,127
166391,note_on,0,0,0,,12,,,71,127
166391,note_on,0,0,0,,12,,,59,127
166391,note_on,0,0,0,,7,,,55,127
166391,note_on,0,0,0,,2,,,50,127
166519,note_off,128,0,0,,12,,,71,127
166519,note_off,0,0,0,,7,,,79,127
166522,note_on,3,0,0,,6,,,78,127
166522,note_on,0,0,0,,10,,,69,127
166650,note_off,128,0,0,,10,,,69,127
166650,note_off,0,0,0,,6,,,78,127
166650,note_off,0,0,0,,2,,,50,127
166650,note_off,0,0,0,,7,,,55,127
166650,note_off,0,0,0,,12,,,59,127
166653,note_on,3,0,0,,7,,,79,127
166653,note_on,0,0,0,,12,,,71,127
166653,note_on,0,0,0,,12,,,59,127
166653,note_on,0,0,0,,7,,,55,127
166653,note_on,0,0,0,,2,,,50,127
166898,note_off,245,0,0,,12,,,71,127
166898,note_off,0,0,0,,7,,,79,127
166912,note_off,14,0,0,,2,,,50,127
166912,note_off,0,0,0,,7,,,55,127
166912,note_off,0,0,0,,12,,,59,127
166915,note_on,3,0,0,,7,,,67,127
166915,note_on,0,0,0,,2,,,50,127
167174,note_off,259,0,0,,2,,,50,127
167182,note_off,8,0,0,,7,,,67,127
167187,note_on,5,0,0,,6,,,66,127
167187,note_on,0,0,0,,2,,,50,127
167272,note_off,85,0,0,,6,,,66,127
167275,note_on,3,0,0,,4,,,64,127
167360,note_off,85,0,0,,4,,,64,127
167363,note_on,3,0,0,,2,,,62,127
167448,note_off,85,0,0,,2,,,62,127
167448,note_off,0,0,0,,2,,,50,127
167451,note_on,3,0,0,,10,,,69,127
167451,note_on,0,0,0,,2,,,50,127
167536,note_off,85,0,0,,10,,,69,127
167539,note_on,3,0,0,,7,,,67,127
167624,note_off,85,0,0,,7,,,67,127
167627,note_on,3,0,0,,6,,,66,127
167712,note_off,85,0,0,,6,,,66,127
167712,note_off,0,0,0,,2,,,50,127
167715,note_on,3,0,0,,0,,,72,127
167715,note_on,0,0,0,,0,,,60,127
167715,note_on,0,0,0,,10,,,57,127
167715,note_on,0,0,0,,2,,,50,127
167800,note_off,85,0,0,,0,,,72,127
167803,note_on,3,0,0,,12,,,71,127
167888,note_off,85,0,0,,12,,,71,127
167891,note_on,3,0,0,,10,,,69,127
167976,note_off,85,0,0,,10,,,69,127
167976,note_off,0,0,0,,2,,,50,127
167976,note_off,0,0,0,,10,,,57,127
167976,note_off,0,0,0,,0,,,60,127
167979,note_on,3,0,0,,10,,,81,127
167979,note_on,0,0,0,,6,,,78,127
167979,note_on,0,0,0,,0,,,60,127
167979,note_on,0,0,0,,10,,,57,127
167979,note_on,0,0,0,,2,,,50,127
168238,note_off,259,0,0,,2,,,50,127
168238,note_off,0,0,0,,10,,,57,127
168238,note_off,0,0,0,,0,,,60,127
168238,note_off,0,0,0,,6,,,78,127
168238,note_off,0,0,0,,10,,,81,127
168241,note_on,3,0,0,,10,,,81,127
168241,note_on,0,0,0,,6,,,78,127
168241,note_on,0,0,0,,12,,,59,127
168241,note_on,0,0,0,,7,,,55,127
168241,note_on,0,0,0,,2,,,50,127
168500,note_off,259,0,0,,2,,,50,127
168500,note_off,0,0,0,,7,,,55,127
168500,note_off,0,0,0,,12,,,59,127
168500,note_off,0,0,0,,6,,,78,127
168500,note_off,0,0,0,,10,,,81,127
168503,note_on,3,0,0,,7,,,79,127
168503,note_on,0,0,0,,12,,,83,127
168503,note_on,0,0,0,,12,,,59,127
168503,note_on,0,0,0,,2,,,50,127
168503,note_on,0,0,0,,7,,,55,127
168631,note_off,128,0,0,,12,,,83,127
168631,note_off,0,0,0,,7,,,79,127
168634,note_on,3,0,0,,10,,,81,127
168634,note_on,0,0,0,,6,,,78,127
168762,note_off,128,0,0,,6,,,78,127
168762,note_off,0,0,0,,10,,,81,127
168762,note_off,0,0,0,,7,,,55,127
168762,note_off,0,0,0,,2,,,50,127
168762,note_off,0,0,0,,12,,,59,127
168765,note_on,3,0,0,,12,,,83,127
168765,note_on,0,0,0,,7,,,79,127
168765,note_on,0,0,0,,12,,,59,127
168765,note_on,0,0,0,,7,,,55,127
168765,note_on,0,0,0,,2,,,50,127
169010,note_off,245,0,0,,12,,,83,127
169024,note_off,14,0,0,,2,,,50,127
169024,note_off,0,0,0,,7,,,55,127
169024,note_off,0,0,0,,12,,,59,127
169038,note_on,14,0,0,,7,,,67,127
169038,note_on,0,0,0,,2,,,50,127
169041,note_off,3,0,0,,7,,,79,127
169297,note_off,256,0,0,,2,,,50,127
169297,note_off,0,0,0,,7,,,67,127
169300,note_on,3,0,0,,6,,,66,127
169300,note_on,0,0,0,,2,,,50,127
169385,note_off,85,0,0,,6,,,66,127
169388,note_on,3,0,0,,4,,,64,127
169473,note_off,85,0,0,,4,,,64,127
169476,note_on,3,0,0,,2,,,62,127
169561,note_off,85,0,0,,2,,,62,127
169561,note_off,0,0,0,,2,,,50,127
169564,note_on,3,0,0,,10,,,69,127
169564,note_on,0,0,0,,2,,,50,127
169649,note_off,85,0,0,,10,,,69,127
169652,note_on,3,0,0,,7,,,67,127
169737,note_off,85,0,0,,7,,,67,127
169740,note_on,3,0,0,,6,,,66,127
169825,note_off,85,0,0,,6,,,66,127
169825,note_off,0,0,0,,2,,,50,127
169828,note_on,3,0,0,,0,,,72,127
169828,note_on,0,0,0,,2,,,62,127
169913,note_off,85,0,0,,0,,,72,127
169916,note_on,3,0,0,,12,,,71,127
170001,note_off,85,0,0,,12,,,71,127
170004,note_on,3,0,0,,10,,,69,127
170089,note_off,85,0,0,,10,,,69,127
170089,note_off,0,0,0,,2,,,62,127
170092,note_on,3,0,0,,0,,,84,127
170092,note_on,0,0,0,,10,,,81,127
170092,note_on,0,0,0,,0,,,60,127
170351,note_off,259,0,0,,0,,,60,127
170351,note_off,0,0,0,,10,,,81,127
170351,note_off,0,0,0,,0,,,84,127
170354,note_on,3,0,0,,0,,,84,127
170354,note_on,0,0,0,,10,,,81,127
170354,note_on,0,0,0,,7,,,67,127
170354,note_on,0,0,0,,12,,,59,127
170613,note_off,259,0,0,,10,,,81,127
170613,note_off,0,0,0,,0,,,84,127
170616,note_on,3,0,0,,2,,,86,127
170616,note_on,0,0,0,,12,,,83,127
170744,note_off,128,0,0,,12,,,83,127
170744,note_off,0,0,0,,2,,,86,127
170747,note_on,3,0,0,,0,,,84,127
170747,note_on,0,0,0,,10,,,81,127
170875,note_off,128,0,0,,10,,,81,127
170875,note_off,0,0,0,,0,,,84,127
170878,note_on,3,0,0,,2,,,86,127
170878,note_on,0,0,0,,12,,,83,127
171123,note_off,245,0,0,,12,,,83,127
171123,note_off,0,0,0,,2,,,86,127
171137,note_off,14,0,0,,12,,,59,127
171148,note_on,11,0,0,,2,,,74,127
171148,note_on,0,0,0,,12,,,59,127
171155,note_off,7,0,0,,7,,,67,127
171413,note_off,258,0,0,,12,,,59,127
171413,note_off,0,0,0,,2,,,74,127
171424,note_on,11,0,0,,0,,,60,127
171424,note_on,0,0,0,,4,,,76,127
171509,note_off,85,0,0,,4,,,76,127
171512,note_on,3,0,0,,6,,,78,127
171597,note_off,85,0,0,,6,,,78,127
171600,note_on,3,0,0,,7,,,79,127
171685,note_off,85,0,0,,7,,,79,127
171685,note_off,0,0,0,,0,,,60,127
171688,note_on,3,0,0,,4,,,64,127
171688,note_on,0,0,0,,10,,,81,127
171773,note_off,85,0,0,,10,,,81,127
171776,note_on,3,0,0,,12,,,83,127
171861,note_off,85,0,0,,12,,,83,127
171864,note_on,3,0,0,,0,,,84,127
171949,note_off,85,0,0,,0,,,84,127
171949,note_off,0,0,0,,4,,,64,127
171952,note_on,3,0,0,,2,,,62,127
171952,note_on,0,0,0,,12,,,83,127
172211,note_off,259,0,0,,12,,,83,127
172211,note_off,0,0,0,,2,,,62,127
172214,note_on,3,0,0,,2,,,50,127
172214,note_on,0,0,0,,10,,,81,127
172473,note_off,259,0,0,,10,,,81,127
172473,note_off,0,0,0,,2,,,50,127
172476,note_on,3,0,0,,7,,,43,127
172476,note_on,0,0,0,,10,,,81,127
172735,note_off,259,0,0,,10,,,81,127
172738,note_on,3,0,0,,7,,,79,127
172997,note_off,259,0,0,,7,,,79,127
173000,note_on,3,0,0,,2,,,74,127
173232,note_off,232,0,0,,2,,,74,127
173270,note_off,38,0,0,,7,,,43,127
173273,note_on,3,0,0,,7,,,55,127
173273,note_on,0,0,0,,7,,,79,127
173532,note_off,259,0,0,,7,,,79,127
173532,note_off,0,0,0,,7,,,55,127
173535,note_on,3,0,0,,6,,,54,127
173535,note_on,0,0,0,,10,,,81,127
173620,note_off,85,0,0,,6,,,54,127
173623,note_on,3,0,0,,4,,,52,127
173708,note_off,85,0,0,,4,,,52,127
173711,note_on,3,0,0,,2,,,50,127
173796,note_off,85,0,0,,2,,,50,127
173796,note_off,0,0,0,,10,,,81,127
173799,note_on,3,0,0,,10,,,57,127
173799,note_on,0,0,0,,6,,,78,127
173884,note_off,85,0,0,,10,,,57,127
173887,note_on,3,0,0,,7,,,55,127
173972,note_off,85,0,0,,7,,,55,127
173975,note_on,3,0,0,,6,,,54,127
174060,note_off,85,0,0,,6,,,54,127
174063,note_on,3,0,0,,0,,,60,127
174148,note_off,85,0,0,,0,,,60,127
174151,note_on,3,0,0,,12,,,59,127
174236,note_off,85,0,0,,12,,,59,127
174239,note_on,3,0,0,,10,,,57,127
174266,note_off,27,0,0,,6,,,78,127
174323,note_off,57,0,0,,10,,,57,127
174326,note_on,3,0,0,,6,,,66,127
174326,note_on,0,0,0,,10,,,57,127
174326,note_on,0,0,0,,0,,,72,127
174585,note_off,259,0,0,,10,,,57,127
174585,note_off,0,0,0,,6,,,66,127
174588,note_on,3,0,0,,10,,,57,127
174588,note_on,0,0,0,,6,,,66,127
174847,note_off,259,0,0,,6,,,66,127
174847,note_off,0,0,0,,10,,,57,127
174847,note_off,0,0,0,,0,,,72,127
174850,note_on,3,0,0,,12,,,59,127
174850,note_on,0,0,0,,7,,,67,127
174850,note_on,0,0,0,,2,,,74,127
174978,note_off,128,0,0,,2,,,74,127
174978,note_off,0,0,0,,7,,,67,127
174978,note_off,0,0,0,,12,,,59,127
174981,note_on,3,0,0,,10,,,57,127
174981,note_on,0,0,0,,6,,,66,127
174981,note_on,0,0,0,,0,,,72,127
175109,note_off,128,0,0,,0,,,72,127
175109,note_off,0,0,0,,6,,,66,127
175109,note_off,0,0,0,,10,,,57,127
175112,note_on,3,0,0,,12,,,59,127
175112,note_on,0,0,0,,7,,,67,127
175112,note_on,0,0,0,,2,,,74,127
175371,note_off,259,0,0,,2,,,74,127
175371,note_off,0,0,0,,7,,,67,127
175371,note_off,0,0,0,,12,,,59,127
175385,note_on,14,0,0,,7,,,55,127
175385,note_on,0,0,0,,7,,,79,127
175644,note_off,259,0,0,,7,,,79,127
175644,note_off,0,0,0,,7,,,55,127
175647,note_on,3,0,0,,6,,,54,127
175647,note_on,0,0,0,,10,,,81,127
175732,note_off,85,0,0,,6,,,54,127
175735,note_on,3,0,0,,4,,,52,127
175820,note_off,85,0,0,,4,,,52,127
175823,note_on,3,0,0,,2,,,50,127
175908,note_off,85,0,0,,2,,,50,127
175908,note_off,0,0,0,,10,,,81,127
175911,note_on,3,0,0,,10,,,57,127
175911,note_on,0,0,0,,6,,,78,127
175996,note_off,85,0,0,,10,,,57,127
175999,note_on,3,0,0,,7,,,55,127
176084,note_off,85,0,0,,7,,,55,127
176087,note_on,3,0,0,,6,,,54,127
176172,note_off,85,0,0,,6,,,54,127
176175,note_on,3,0,0,,0,,,60,127
176260,note_off,85,0,0,,0,,,60,127
176263,note_on,3,0,0,,12,,,59,127
176348,note_off,85,0,0,,12,,,59,127
176351,note_on,3,0,0,,10,,,57,127
176378,note_off,27,0,0,,6,,,78,127
176435,note_off,57,0,0,,10,,,57,127
176438,note_on,3,0,0,,6,,,66,127
176438,note_on,0,0,0,,10,,,69,127
176438,note_on,0,0,0,,0,,,72,127
176697,note_off,259,0,0,,10,,,69,127
176697,note_off,0,0,0,,6,,,66,127
176700,note_on,3,0,0,,6,,,66,127
176700,note_on,0,0,0,,10,,,69,127
176959,note_off,259,0,0,,10,,,69,127
176959,note_off,0,0,0,,6,,,66,127
176959,note_off,0,0,0,,0,,,72,127
176962,note_on,3,0,0,,7,,,67,127
176962,note_on,0,0,0,,12,,,71,127
176962,note_on,0,0,0,,2,,,74,127
177090,note_off,128,0,0,,2,,,74,127
177090,note_off,0,0,0,,12,,,71,127
177090,note_off,0,0,0,,7,,,67,127
177093,note_on,3,0,0,,6,,,66,127
177093,note_on,0,0,0,,10,,,69,127
177093,note_on,0,0,0,,0,,,72,127
177221,note_off,128,0,0,,0,,,72,127
177221,note_off,0,0,0,,10,,,69,127
177221,note_off,0,0,0,,6,,,66,127
177224,note_on,3,0,0,,7,,,67,127
177224,note_on,0,0,0,,12,,,71,127
177224,note_on,0,0,0,,2,,,74,127
177483,note_off,259,0,0,,12,,,71,127
177483,note_off,0,0,0,,7,,,67,127
177493,note_off,10,0,0,,2,,,74,127
177497,note_on,4,0,0,,7,,,55,127
177497,note_on,0,0,0,,7,,,79,127
177756,note_off,259,0,0,,7,,,79,127
177756,note_off,0,0,0,,7,,,55,127
177759,note_on,3,0,0,,6,,,54,127
177759,note_on,0,0,0,,10,,,81,127
177844,note_off,85,0,0,,6,,,54,127
177847,note_on,3,0,0,,4,,,52,127
177932,note_off,85,0,0,,4,,,52,127
177935,note_on,3,0,0,,2,,,50,127
178020,note_off,85,0,0,,2,,,50,127
178020,note_off,0,0,0,,10,,,81,127
178023,note_on,3,0,0,,10,,,57,127
178023,note_on,0,0,0,,6,,,78,127
178108,note_off,85,0,0,,10,,,57,127
178111,note_on,3,0,0,,7,,,55,127
178196,note_off,85,0,0,,7,,,55,127
178199,note_on,3,0,0,,6,,,54,127
178284,note_off,85,0,0,,6,,,54,127
178287,note_on,3,0,0,,0,,,60,127
178372,note_off,85,0,0,,0,,,60,127
178375,note_on,3,0,0,,12,,,59,127
178460,note_off,85,0,0,,12,,,59,127
178463,note_on,3,0,0,,10,,,57,127
178545,note_off,82,0,0,,6,,,78,127
178548,note_off,3,0,0,,10,,,57,127
178551,note_on,3,0,0,,6,,,78,127
178551,note_on,0,0,0,,0,,,72,127
178551,note_on,0,0,0,,10,,,69,127
178810,note_off,259,0,0,,10,,,69,127
178810,note_off,0,0,0,,0,,,72,127
178813,note_on,3,0,0,,0,,,72,127
178813,note_on,0,0,0,,10,,,69,127
179072,note_off,259,0,0,,10,,,69,127
179072,note_off,0,0,0,,0,,,72,127
179072,note_off,0,0,0,,6,,,78,127
179075,note_on,3,0,0,,7,,,79,127
179075,note_on,0,0,0,,2,,,74,127
179075,note_on,0,0,0,,12,,,71,127
179203,note_off,128,0,0,,12,,,71,127
179203,note_off,0,0,0,,2,,,74,127
179203,note_off,0,0,0,,7,,,79,127
179206,note_on,3,0,0,,6,,,78,127
179206,note_on,0,0,0,,0,,,72,127
179206,note_on,0,0,0,,10,,,69,127
179334,note_off,128,0,0,,10,,,69,127
179334,note_off,0,0,0,,0,,,72,127
179334,note_off,0,0,0,,6,,,78,127
179346,note_on,12,0,0,,12,,,71,127
179346,note_on,0,0,0,,2,,,74,127
179346,note_on,0,0,0,,7,,,79,127
179605,note_off,259,0,0,,7,,,79,127
179605,note_off,0,0,0,,2,,,74,127
179605,note_off,0,0,0,,12,,,71,127
179620,note_on,15,0,0,,7,,,67,127
179620,note_on,0,0,0,,12,,,59,127
179620,note_on,0,0,0,,2,,,74,127
179879,note_off,259,0,0,,2,,,74,127
179879,note_off,0,0,0,,12,,,59,127
179879,note_off,0,0,0,,7,,,67,127
179882,note_on,3,0,0,,7,,,67,127
179882,note_on,0,0,0,,0,,,60,127
179882,note_on,0,0,0,,4,,,76,127
179967,note_off,85,0,0,,4,,,76,127
179970,note_on,3,0,0,,6,,,78,127
180055,note_off,85,0,0,,6,,,78,127
180058,note_on,3,0,0,,7,,,79,127
180143,note_off,85,0,0,,7,,,79,127
180143,note_off,0,0,0,,0,,,60,127
180146,note_on,3,0,0,,4,,,64,127
180146,note_on,0,0,0,,10,,,81,127
180231,note_off,85,0,0,,10,,,81,127
180234,note_on,3,0,0,,12,,,83,127
180319,note_off,85,0,0,,12,,,83,127
180322,note_on,3,0,0,,0,,,84,127
180407,note_off,85,0,0,,0,,,84,127
180407,note_off,0,0,0,,4,,,64,127
180410,note_on,3,0,0,,2,,,62,127
180410,note_on,0,0,0,,12,,,83,127
180669,note_off,259,0,0,,12,,,83,127
180670,note_off,1,0,0,,7,,,67,127
180671,note_on,1,0,0,,6,,,66,127
180671,note_on,0,0,0,,10,,,81,127
180927,note_off,256,0,0,,2,,,62,127
180930,note_off,3,0,0,,10,,,81,127
180930,note_off,0,0,0,,6,,,66,127
180933,note_on,3,0,0,,7,,,67,127
180933,note_on,0,0,0,,7,,,55,127
180933,note_on,0,0,0,,7,,,79,127
181192,note_off,259,0,0,,7,,,79,127
181214,note_on,22,0,0,,2,,,86,127
181454,note_off,240,0,0,,7,,,55,127
181454,note_off,0,0,0,,7,,,67,127
181487,note_off,33,0,0,,2,,,86,127
181503,note_on,16,0,0,,7,,,79,127
181503,note_on,0,0,0,,12,,,71,127
181566,note_off,63,0,0,,7,,,79,127
181569,note_on,3,0,0,,5,,,77,127
181632,note_off,63,0,0,,5,,,77,127
181635,note_on,3,0,0,,7,,,79,127
181698,note_off,63,0,0,,7,,,79,127
181701,note_on,3,0,0,,5,,,77,127
181764,note_off,63,0,0,,5,,,77,127
181764,note_off,0,0,0,,12,,,71,127
181767,note_on,3,0,0,,7,,,79,127
181767,note_on,0,0,0,,7,,,67,127
181830,note_off,63,0,0,,7,,,79,127
181833,note_on,3,0,0,,5,,,77,127
181896,note_off,63,0,0,,5,,,77,127
181899,note_on,3,0,0,,4,,,76,127
181962,note_off,63,0,0,,4,,,76,127
181965,note_on,3,0,0,,2,,,74,127
182028,note_off,63,0,0,,2,,,74,127
182028,note_off,0,0,0,,7,,,67,127
182031,note_on,3,0,0,,4,,,76,127
182031,note_on,0,0,0,,0,,,72,127
182116,note_off,85,0,0,,4,,,76,127
182119,note_on,3,0,0,,6,,,78,127
182204,note_off,85,0,0,,6,,,78,127
182207,note_on,3,0,0,,7,,,79,127
182292,note_off,85,0,0,,7,,,79,127
182292,note_off,0,0,0,,0,,,72,127
182295,note_on,3,0,0,,10,,,81,127
182295,note_on,0,0,0,,0,,,60,127
182380,note_off,85,0,0,,10,,,81,127
182383,note_on,3,0,0,,12,,,83,127
182468,note_off,85,0,0,,12,,,83,127
182471,note_on,3,0,0,,0,,,84,127
182556,note_off,85,0,0,,0,,,84,127
182556,note_off,0,0,0,,0,,,60,127
182559,note_on,3,0,0,,12,,,71,127
182559,note_on,0,0,0,,2,,,62,127
182818,note_off,259,0,0,,2,,,62,127
182818,note_off,0,0,0,,12,,,71,127
182821,note_on,3,0,0,,12,,,71,127
182821,note_on,0,0,0,,2,,,50,127
182884,note_off,63,0,0,,12,,,71,127
182887,note_on,3,0,0,,10,,,69,127
182950,note_off,63,0,0,,10,,,69,127
182953,note_on,3,0,0,,12,,,71,127
183016,note_off,63,0,0,,12,,,71,127
183019,note_on,3,0,0,,10,,,69,127
183082,note_off,63,0,0,,10,,,69,127
183082,note_off,0,0,0,,2,,,50,127
183085,note_on,3,0,0,,7,,,67,127
183085,note_on,0,0,0,,7,,,43,127
183369,note_on,284,0,0,,2,,,74,127
183460,note_off,91,0,0,,7,,,67,127
183606,note_off,146,0,0,,7,,,43,127
183641,note_off,35,0,0,,2,,,74,127
183661,note_on,20,0,0,,7,,,67,127
183661,note_on,0,0,0,,12,,,59,127
183725,note_off,64,0,0,,7,,,67,127
183729,note_on,4,0,0,,5,,,65,127
183793,note_off,64,0,0,,5,,,65,127
183797,note_on,4,0,0,,7,,,67,127
183861,note_off,64,0,0,,7,,,67,127
183865,note_on,4,0,0,,5,,,65,127
183926,note_off,61,0,0,,12,,,59,127
183929,note_off,3,0,0,,5,,,65,127
183933,note_on,4,0,0,,7,,,67,127
183933,note_on,0,0,0,,7,,,55,127
183997,note_off,64,0,0,,7,,,67,127
184001,note_on,4,0,0,,5,,,65,127
184065,note_off,64,0,0,,5,,,65,127
184069,note_on,4,0,0,,4,,,64,127
184133,note_off,64,0,0,,4,,,64,127
184137,note_on,4,0,0,,2,,,62,127
184198,note_off,61,0,0,,7,,,55,127
184201,note_off,3,0,0,,2,,,62,127
184205,note_on,4,0,0,,4,,,64,127
184205,note_on,0,0,0,,0,,,60,127
184291,note_off,86,0,0,,4,,,64,127
184295,note_on,4,0,0,,6,,,66,127
184381,note_off,86,0,0,,6,,,66,127
184386,note_on,5,0,0,,7,,,67,127
184471,note_off,85,0,0,,0,,,60,127
184472,note_off,1,0,0,,7,,,67,127
184476,note_on,4,0,0,,10,,,69,127
184476,note_on,0,0,0,,0,,,48,127
184562,note_off,86,0,0,,10,,,69,127
184567,note_on,5,0,0,,12,,,71,127
184653,note_off,86,0,0,,12,,,71,127
184660,note_on,7,0,0,,0,,,72,127
184742,note_off,82,0,0,,0,,,48,127
184747,note_off,5,0,0,,0,,,72,127
184752,note_on,5,0,0,,2,,,50,127
184752,note_on,0,0,0,,12,,,59,127
185022,note_off,270,0,0,,12,,,59,127
185022,note_off,0,0,0,,2,,,50,127
185038,note_on,16,0,0,,12,,,59,127
185039,note_on,1,0,0,,2,,,38,127
185102,note_off,63,0,0,,12,,,59,127
185110,note_on,8,0,0,,10,,,57,127
185180,note_off,70,0,0,,10,,,57,127
185184,note_on,4,0,0,,12,,,59,127
185254,note_off,70,0,0,,12,,,59,127
185261,note_on,7,0,0,,10,,,57,127
185314,note_off,53,0,0,,2,,,38,127
185330,note_off,16,0,0,,10,,,57,127
185346,note_on,16,0,0,,7,,,55,127
185346,note_on,0,0,0,,7,,,43,127
187019,note_off,1673,0,0,,7,,,43,127
187019,note_off,0,0,0,,7,,,55,127
187392,end_of_track,373,1,0,,,,,,
