tick,type,time,meta,track,program,channel,pitch,tempo,note,velocity
0,copyright,0,1,0,,,,,,
0,program_change,0,0,0,6,0,,,,
0,pitchwheel,0,0,0,,0,0,,,
0,program_change,0,0,0,6,1,,,,
0,pitchwheel,0,0,0,,1,-590,,,
0,program_change,0,0,0,6,2,,,,
0,pitchwheel,0,0,0,,2,-272,,,
0,program_change,0,0,0,6,3,,,,
0,pitchwheel,0,0,0,,3,-353,,,
0,program_change,0,0,0,6,4,,,,
0,pitchwheel,0,0,0,,4,-560,,,
0,program_change,0,0,0,6,5,,,,
0,pitchwheel,0,0,0,,5,-80,,,
0,program_change,0,0,0,6,6,,,,
0,pitchwheel,0,0,0,,6,-625,,,
0,program_change,0,0,0,6,7,,,,
0,pitchwheel,0,0,0,,7,-130,,,
0,program_change,0,0,0,6,8,,,,
0,pitchwheel,0,0,0,,8,-512,,,
0,program_change,0,0,0,6,10,,,,
0,pitchwheel,0,0,0,,10,-464,,,
0,program_change,0,0,0,6,11,,,,
0,pitchwheel,0,0,0,,11,-208,,,
0,program_change,0,0,0,6,12,,,,
0,pitchwheel,0,0,0,,12,-553,,,
0,set_tempo,0,1,0,,,,500000,,
68,note_on,68,0,0,,7,,,79,127
204,note_on,136,0,0,,2,,,74,127
338,note_off,134,0,0,,2,,,74,127
339,note_on,1,0,0,,12,,,71,127
473,note_off,134,0,0,,12,,,71,127
474,note_on,1,0,0,,2,,,74,127
608,note_off,134,0,0,,2,,,74,127
609,note_off,1,0,0,,7,,,79,127
610,note_on,1,0,0,,7,,,79,127
746,note_on,136,0,0,,12,,,83,127
879,note_off,133,0,0,,7,,,79,127
880,note_off,1,0,0,,12,,,83,127
881,note_on,1,0,0,,7,,,79,127
1017,note_on,136,0,0,,2,,,74,127
1151,note_off,134,0,0,,2,,,74,127
1152,note_on,1,0,0,,12,,,71,127
1286,note_off,134,0,0,,12,,,71,127
1287,note_on,1,0,0,,2,,,74,127
1421,note_off,134,0,0,,2,,,74,127
1422,note_off,1,0,0,,7,,,79,127
1423,note_on,1,0,0,,7,,,79,127
1559,note_on,136,0,0,,12,,,83,127
1692,note_off,133,0,0,,7,,,79,127
1693,note_off,1,0,0,,12,,,83,127
1694,note_on,1,0,0,,7,,,67,127
1694,note_on,0,0,0,,7,,,79,127
1830,note_on,136,0,0,,2,,,62,127
1964,note_off,134,0,0,,2,,,62,127
1965,note_on,1,0,0,,12,,,59,127
2099,note_off,134,0,0,,12,,,59,127
2100,note_off,1,0,0,,7,,,67,127
2101,note_on,1,0,0,,2,,,62,127
2235,note_off,134,0,0,,2,,,62,127
2236,note_off,1,0,0,,7,,,79,127
2237,note_on,1,0,0,,7,,,67,127
2371,note_off,134,0,0,,7,,,67,127
2372,note_on,1,0,0,,12,,,71,127
2372,note_on,0,0,0,,2,,,74,127
2506,note_off,134,0,0,,2,,,74,127
2506,note_off,0,0,0,,12,,,71,127
2507,note_on,1,0,0,,7,,,67,127
2507,note_on,0,0,0,,7,,,79,127
2643,note_on,136,0,0,,2,,,62,127
2777,note_off,134,0,0,,2,,,62,127
2778,note_on,1,0,0,,12,,,59,127
2912,note_off,134,0,0,,12,,,59,127
2913,note_off,1,0,0,,7,,,67,127
2914,note_on,1,0,0,,2,,,62,127
3048,note_off,134,0,0,,2,,,62,127
3049,note_off,1,0,0,,7,,,79,127
3050,note_on,1,0,0,,7,,,67,127
3184,note_off,134,0,0,,7,,,67,127
3185,note_on,1,0,0,,12,,,71,127
3185,note_on,0,0,0,,2,,,74,127
3319,note_off,134,0,0,,2,,,74,127
3319,note_off,0,0,0,,12,,,71,127
3320,note_on,1,0,0,,7,,,67,127
3320,note_on,0,0,0,,7,,,79,127
3454,note_off,134,0,0,,7,,,67,127
3455,note_on,1,0,0,,10,,,69,127
3589,note_off,134,0,0,,10,,,69,127
3589,note_off,0,0,0,,7,,,79,127
3590,note_on,1,0,0,,12,,,71,127
3590,note_on,0,0,0,,2,,,74,127
3724,note_off,134,0,0,,2,,,74,127
3724,note_off,0,0,0,,12,,,71,127
3725,note_on,1,0,0,,0,,,72,127
3725,note_on,0,0,0,,4,,,76,127
3859,note_off,134,0,0,,0,,,72,127
3860,note_on,1,0,0,,0,,,60,127
3994,note_off,134,0,0,,0,,,60,127
3994,note_off,0,0,0,,4,,,76,127
3995,note_on,1,0,0,,10,,,69,127
3995,note_on,0,0,0,,0,,,84,127
4129,note_off,134,0,0,,0,,,84,127
4129,note_off,0,0,0,,10,,,69,127
4130,note_on,1,0,0,,12,,,71,127
4130,note_on,0,0,0,,2,,,74,127
4264,note_off,134,0,0,,12,,,71,127
4265,note_on,1,0,0,,12,,,59,127
4399,note_off,134,0,0,,12,,,59,127
4399,note_off,0,0,0,,2,,,74,127
4400,note_on,1,0,0,,7,,,67,127
4400,note_on,0,0,0,,12,,,83,127
4534,note_off,134,0,0,,12,,,83,127
4534,note_off,0,0,0,,7,,,67,127
4535,note_on,1,0,0,,10,,,69,127
4535,note_on,0,0,0,,0,,,72,127
4669,note_off,134,0,0,,10,,,69,127
4670,note_on,1,0,0,,10,,,57,127
4804,note_off,134,0,0,,10,,,57,127
4804,note_off,0,0,0,,0,,,72,127
4805,note_on,1,0,0,,6,,,66,127
4805,note_on,0,0,0,,10,,,81,127
4939,note_off,134,0,0,,10,,,81,127
4939,note_off,0,0,0,,6,,,66,127
4940,note_on,1,0,0,,7,,,67,127
4940,note_on,0,0,0,,12,,,71,127
5074,note_off,134,0,0,,7,,,67,127
5075,note_on,1,0,0,,10,,,69,127
5209,note_off,134,0,0,,10,,,69,127
5209,note_off,0,0,0,,12,,,71,127
5210,note_on,1,0,0,,12,,,71,127
5210,note_on,0,0,0,,2,,,74,127
5344,note_off,134,0,0,,2,,,74,127
5344,note_off,0,0,0,,12,,,71,127
5345,note_on,1,0,0,,0,,,72,127
5345,note_on,0,0,0,,4,,,76,127
5479,note_off,134,0,0,,0,,,72,127
5480,note_on,1,0,0,,0,,,60,127
5614,note_off,134,0,0,,0,,,60,127
5614,note_off,0,0,0,,4,,,76,127
5615,note_on,1,0,0,,10,,,69,127
5615,note_on,0,0,0,,0,,,84,127
5749,note_off,134,0,0,,0,,,84,127
5749,note_off,0,0,0,,10,,,69,127
5750,note_on,1,0,0,,12,,,71,127
5750,note_on,0,0,0,,2,,,74,127
5884,note_off,134,0,0,,12,,,71,127
5885,note_on,1,0,0,,12,,,59,127
6019,note_off,134,0,0,,12,,,59,127
6019,note_off,0,0,0,,2,,,74,127
6020,note_on,1,0,0,,7,,,67,127
6020,note_on,0,0,0,,12,,,83,127
6154,note_off,134,0,0,,12,,,83,127
6154,note_off,0,0,0,,7,,,67,127
6155,note_on,1,0,0,,10,,,69,127
6155,note_on,0,0,0,,0,,,72,127
6289,note_off,134,0,0,,10,,,69,127
6290,note_on,1,0,0,,10,,,57,127
6424,note_off,134,0,0,,10,,,57,127
6424,note_off,0,0,0,,0,,,72,127
6425,note_on,1,0,0,,6,,,66,127
6425,note_on,0,0,0,,10,,,81,127
6559,note_off,134,0,0,,10,,,81,127
6559,note_off,0,0,0,,6,,,66,127
6560,note_on,1,0,0,,7,,,67,127
6560,note_on,0,0,0,,12,,,71,127
6694,note_off,134,0,0,,7,,,67,127
6695,note_on,1,0,0,,2,,,62,127
6829,note_off,134,0,0,,2,,,62,127
6829,note_off,0,0,0,,12,,,71,127
6830,note_on,1,0,0,,7,,,55,127
6830,note_on,0,0,0,,12,,,83,127
6964,note_off,134,0,0,,12,,,83,127
6964,note_off,0,0,0,,7,,,55,127
6965,note_on,1,0,0,,10,,,57,127
6965,note_on,0,0,0,,0,,,84,127
7101,note_on,136,0,0,,0,,,72,127
7234,note_off,133,0,0,,0,,,84,127
7235,note_off,1,0,0,,0,,,72,127
7235,note_off,0,0,0,,10,,,57,127
7236,note_on,1,0,0,,6,,,54,127
7236,note_on,0,0,0,,10,,,81,127
7370,note_off,134,0,0,,10,,,81,127
7370,note_off,0,0,0,,6,,,54,127
7371,note_on,1,0,0,,7,,,55,127
7371,note_on,0,0,0,,12,,,83,127
7507,note_on,136,0,0,,12,,,71,127
7640,note_off,133,0,0,,12,,,83,127
7641,note_off,1,0,0,,12,,,71,127
7641,note_off,0,0,0,,7,,,55,127
7642,note_on,1,0,0,,12,,,59,127
7642,note_on,0,0,0,,7,,,79,127
7776,note_off,134,0,0,,7,,,79,127
7776,note_off,0,0,0,,12,,,59,127
7777,note_on,1,0,0,,0,,,60,127
7777,note_on,0,0,0,,10,,,81,127
7913,note_on,136,0,0,,10,,,69,127
8046,note_off,133,0,0,,10,,,81,127
8047,note_off,1,0,0,,10,,,69,127
8047,note_off,0,0,0,,0,,,60,127
8048,note_on,1,0,0,,2,,,62,127
8048,note_on,0,0,0,,6,,,78,127
8182,note_off,134,0,0,,6,,,78,127
8182,note_off,0,0,0,,2,,,62,127
8183,note_on,1,0,0,,7,,,55,127
8183,note_on,0,0,0,,7,,,79,127
8319,note_on,136,0,0,,7,,,67,127
8452,note_off,133,0,0,,7,,,79,127
8453,note_off,1,0,0,,7,,,67,127
8453,note_off,0,0,0,,7,,,55,127
8454,note_on,1,0,0,,7,,,67,127
8454,note_on,0,0,0,,1,,,73,127
8588,note_off,134,0,0,,1,,,73,127
8588,note_off,0,0,0,,7,,,67,127
8589,note_on,1,0,0,,6,,,66,127
8589,note_on,0,0,0,,2,,,74,127
8723,note_off,134,0,0,,2,,,74,127
8724,note_on,1,0,0,,10,,,69,127
8858,note_off,134,0,0,,10,,,69,127
8858,note_off,0,0,0,,6,,,66,127
8859,note_on,1,0,0,,4,,,64,127
8859,note_on,0,0,0,,4,,,76,127
8993,note_off,134,0,0,,4,,,76,127
8993,note_off,0,0,0,,4,,,64,127
8994,note_on,1,0,0,,2,,,62,127
8994,note_on,0,0,0,,6,,,78,127
9128,note_off,134,0,0,,6,,,78,127
9129,note_on,1,0,0,,10,,,69,127
9263,note_off,134,0,0,,10,,,69,127
9263,note_off,0,0,0,,2,,,62,127
9264,note_on,1,0,0,,2,,,62,127
9264,note_on,0,0,0,,8,,,80,127
9398,note_off,134,0,0,,8,,,80,127
9398,note_off,0,0,0,,2,,,62,127
9399,note_on,1,0,0,,0,,,60,127
9399,note_on,0,0,0,,10,,,81,127
9533,note_off,134,0,0,,10,,,81,127
9534,note_on,1,0,0,,10,,,69,127
9668,note_off,134,0,0,,10,,,69,127
9668,note_off,0,0,0,,0,,,60,127
9669,note_on,1,0,0,,12,,,59,127
9669,note_on,0,0,0,,12,,,83,127
9803,note_off,134,0,0,,12,,,83,127
9803,note_off,0,0,0,,12,,,59,127
9804,note_on,1,0,0,,10,,,57,127
9804,note_on,0,0,0,,0,,,84,127
9940,note_on,136,0,0,,0,,,72,127
10073,note_off,133,0,0,,0,,,84,127
10074,note_off,1,0,0,,0,,,72,127
10074,note_off,0,0,0,,10,,,57,127
10075,note_on,1,0,0,,10,,,69,127
10075,note_on,0,0,0,,3,,,75,127
10209,note_off,134,0,0,,3,,,75,127
10209,note_off,0,0,0,,10,,,69,127
10210,note_on,1,0,0,,7,,,67,127
10210,note_on,0,0,0,,4,,,76,127
10344,note_off,134,0,0,,4,,,76,127
10345,note_on,1,0,0,,12,,,71,127
10479,note_off,134,0,0,,12,,,71,127
10479,note_off,0,0,0,,7,,,67,127
10480,note_on,1,0,0,,6,,,66,127
10480,note_on,0,0,0,,6,,,78,127
10614,note_off,134,0,0,,6,,,78,127
10614,note_off,0,0,0,,6,,,66,127
10615,note_on,1,0,0,,4,,,64,127
10615,note_on,0,0,0,,7,,,79,127
10749,note_off,134,0,0,,7,,,79,127
10750,note_on,1,0,0,,12,,,71,127
10884,note_off,134,0,0,,12,,,71,127
10884,note_off,0,0,0,,4,,,64,127
10885,note_on,1,0,0,,4,,,64,127
10885,note_on,0,0,0,,11,,,82,127
11019,note_off,134,0,0,,11,,,82,127
11019,note_off,0,0,0,,4,,,64,127
11020,note_on,1,0,0,,2,,,62,127
11020,note_on,0,0,0,,12,,,83,127
11154,note_off,134,0,0,,12,,,83,127
11155,note_on,1,0,0,,2,,,74,127
11289,note_off,134,0,0,,2,,,74,127
11289,note_off,0,0,0,,2,,,62,127
11290,note_on,1,0,0,,1,,,61,127
11290,note_on,0,0,0,,1,,,85,127
11424,note_off,134,0,0,,1,,,85,127
11424,note_off,0,0,0,,1,,,61,127
11425,note_on,1,0,0,,12,,,59,127
11425,note_on,0,0,0,,2,,,86,127
11561,note_on,136,0,0,,2,,,74,127
11694,note_off,133,0,0,,2,,,86,127
11695,note_off,1,0,0,,2,,,74,127
11695,note_off,0,0,0,,12,,,59,127
11696,note_on,1,0,0,,10,,,57,127
11696,note_on,0,0,0,,1,,,85,127
11830,note_off,134,0,0,,1,,,85,127
11830,note_off,0,0,0,,10,,,57,127
11831,note_on,1,0,0,,7,,,55,127
11831,note_on,0,0,0,,12,,,83,127
11967,note_on,136,0,0,,12,,,71,127
12100,note_off,133,0,0,,12,,,83,127
12101,note_off,1,0,0,,12,,,71,127
12101,note_off,0,0,0,,7,,,55,127
12102,note_on,1,0,0,,6,,,54,127
12102,note_on,0,0,0,,10,,,81,127
12236,note_off,134,0,0,,10,,,81,127
12236,note_off,0,0,0,,6,,,54,127
12237,note_on,1,0,0,,4,,,52,127
12237,note_on,0,0,0,,7,,,79,127
12373,note_on,136,0,0,,7,,,67,127
12506,note_off,133,0,0,,7,,,79,127
12507,note_off,1,0,0,,7,,,67,127
12507,note_off,0,0,0,,4,,,52,127
12508,note_on,1,0,0,,2,,,50,127
12508,note_on,0,0,0,,6,,,78,127
12642,note_off,134,0,0,,6,,,78,127
12642,note_off,0,0,0,,2,,,50,127
12643,note_on,1,0,0,,1,,,49,127
12643,note_on,0,0,0,,4,,,76,127
12779,note_on,136,0,0,,4,,,64,127
12912,note_off,133,0,0,,4,,,76,127
12913,note_off,1,0,0,,4,,,64,127
12913,note_off,0,0,0,,1,,,49,127
12914,note_on,1,0,0,,12,,,47,127
12914,note_on,0,0,0,,2,,,74,127
13048,note_off,134,0,0,,2,,,74,127
13048,note_off,0,0,0,,12,,,47,127
13049,note_on,1,0,0,,10,,,45,127
13049,note_on,0,0,0,,1,,,73,127
13183,note_off,134,0,0,,10,,,45,127
13184,note_on,1,0,0,,4,,,52,127
13318,note_off,134,0,0,,4,,,52,127
13318,note_off,0,0,0,,1,,,73,127
13319,note_on,1,0,0,,10,,,57,127
13319,note_on,0,0,0,,10,,,81,127
13453,note_off,134,0,0,,10,,,81,127
13453,note_off,0,0,0,,10,,,57,127
13454,note_on,1,0,0,,12,,,47,127
13454,note_on,0,0,0,,2,,,74,127
13588,note_off,134,0,0,,12,,,47,127
13589,note_on,1,0,0,,12,,,59,127
13723,note_off,134,0,0,,12,,,59,127
13723,note_off,0,0,0,,2,,,74,127
13724,note_on,1,0,0,,8,,,56,127
13724,note_on,0,0,0,,12,,,83,127
13858,note_off,134,0,0,,12,,,83,127
13858,note_off,0,0,0,,8,,,56,127
13859,note_on,1,0,0,,10,,,45,127
13859,note_on,0,0,0,,1,,,73,127
13993,note_off,134,0,0,,10,,,45,127
13994,note_on,1,0,0,,10,,,57,127
14128,note_off,134,0,0,,10,,,57,127
14128,note_off,0,0,0,,1,,,73,127
14129,note_on,1,0,0,,6,,,54,127
14129,note_on,0,0,0,,10,,,81,127
14263,note_off,134,0,0,,10,,,81,127
14263,note_off,0,0,0,,6,,,54,127
14264,note_on,1,0,0,,12,,,47,127
14264,note_on,0,0,0,,2,,,74,127
14398,note_off,134,0,0,,12,,,47,127
14399,note_on,1,0,0,,12,,,59,127
14533,note_off,134,0,0,,12,,,59,127
14533,note_off,0,0,0,,2,,,74,127
14534,note_on,1,0,0,,8,,,56,127
14534,note_on,0,0,0,,12,,,83,127
14668,note_off,134,0,0,,12,,,83,127
14668,note_off,0,0,0,,8,,,56,127
14669,note_on,1,0,0,,10,,,45,127
14669,note_on,0,0,0,,1,,,73,127
14803,note_off,134,0,0,,10,,,45,127
14804,note_on,1,0,0,,10,,,57,127
14938,note_off,134,0,0,,10,,,57,127
14938,note_off,0,0,0,,1,,,73,127
14939,note_on,1,0,0,,6,,,54,127
14939,note_on,0,0,0,,10,,,81,127
15073,note_off,134,0,0,,10,,,81,127
15073,note_off,0,0,0,,6,,,54,127
15074,note_on,1,0,0,,7,,,43,127
15074,note_on,0,0,0,,12,,,71,127
15208,note_off,134,0,0,,7,,,43,127
15209,note_on,1,0,0,,7,,,55,127
15343,note_off,134,0,0,,7,,,55,127
15343,note_off,0,0,0,,12,,,71,127
15344,note_on,1,0,0,,4,,,52,127
15344,note_on,0,0,0,,7,,,79,127
15478,note_off,134,0,0,,7,,,79,127
15478,note_off,0,0,0,,4,,,52,127
15479,note_on,1,0,0,,6,,,42,127
15479,note_on,0,0,0,,10,,,69,127
15613,note_off,134,0,0,,6,,,42,127
15614,note_on,1,0,0,,6,,,54,127
15748,note_off,134,0,0,,6,,,54,127
15748,note_off,0,0,0,,10,,,69,127
15749,note_on,1,0,0,,2,,,50,127
15749,note_on,0,0,0,,6,,,78,127
15883,note_off,134,0,0,,6,,,78,127
15883,note_off,0,0,0,,2,,,50,127
15884,note_on,1,0,0,,4,,,40,127
15884,note_on,0,0,0,,7,,,67,127
16018,note_off,134,0,0,,4,,,40,127
16019,note_on,1,0,0,,4,,,52,127
16153,note_off,134,0,0,,4,,,52,127
16153,note_off,0,0,0,,7,,,67,127
16154,note_on,1,0,0,,1,,,49,127
16154,note_on,0,0,0,,4,,,76,127
16288,note_off,134,0,0,,4,,,76,127
16288,note_off,0,0,0,,1,,,49,127
16289,note_on,1,0,0,,2,,,50,127
16289,note_on,0,0,0,,6,,,78,127
16423,note_off,134,0,0,,6,,,78,127
16424,note_on,1,0,0,,10,,,69,127
16558,note_off,134,0,0,,10,,,69,127
16558,note_off,0,0,0,,2,,,50,127
16559,note_on,1,0,0,,2,,,62,127
16559,note_on,0,0,0,,8,,,80,127
16693,note_off,134,0,0,,8,,,80,127
16693,note_off,0,0,0,,2,,,62,127
16694,note_on,1,0,0,,0,,,60,127
16694,note_on,0,0,0,,10,,,81,127
16828,note_off,134,0,0,,10,,,81,127
16829,note_on,1,0,0,,10,,,69,127
16963,note_off,134,0,0,,10,,,69,127
16963,note_off,0,0,0,,0,,,60,127
16964,note_on,1,0,0,,12,,,59,127
16964,note_on,0,0,0,,12,,,83,127
17098,note_off,134,0,0,,12,,,83,127
17098,note_off,0,0,0,,12,,,59,127
17099,note_on,1,0,0,,10,,,57,127
17099,note_on,0,0,0,,0,,,84,127
17235,note_on,136,0,0,,0,,,72,127
17368,note_off,133,0,0,,0,,,84,127
17369,note_off,1,0,0,,0,,,72,127
17369,note_off,0,0,0,,10,,,57,127
17370,note_on,1,0,0,,10,,,69,127
17370,note_on,0,0,0,,3,,,75,127
17504,note_off,134,0,0,,3,,,75,127
17504,note_off,0,0,0,,10,,,69,127
17505,note_on,1,0,0,,7,,,67,127
17505,note_on,0,0,0,,4,,,76,127
17639,note_off,134,0,0,,4,,,76,127
17640,note_on,1,0,0,,12,,,71,127
17774,note_off,134,0,0,,12,,,71,127
17774,note_off,0,0,0,,7,,,67,127
17775,note_on,1,0,0,,6,,,66,127
17775,note_on,0,0,0,,6,,,78,127
17909,note_off,134,0,0,,6,,,78,127
17909,note_off,0,0,0,,6,,,66,127
17910,note_on,1,0,0,,4,,,64,127
17910,note_on,0,0,0,,7,,,79,127
18044,note_off,134,0,0,,7,,,79,127
18045,note_on,1,0,0,,12,,,71,127
18179,note_off,134,0,0,,12,,,71,127
18179,note_off,0,0,0,,4,,,64,127
18180,note_on,1,0,0,,4,,,64,127
18180,note_on,0,0,0,,11,,,82,127
18314,note_off,134,0,0,,11,,,82,127
18314,note_off,0,0,0,,4,,,64,127
18315,note_on,1,0,0,,2,,,62,127
18315,note_on,0,0,0,,12,,,83,127
18449,note_off,134,0,0,,12,,,83,127
18450,note_on,1,0,0,,12,,,71,127
18584,note_off,134,0,0,,12,,,71,127
18584,note_off,0,0,0,,2,,,62,127
18585,note_on,1,0,0,,1,,,61,127
18585,note_on,0,0,0,,1,,,85,127
18719,note_off,134,0,0,,1,,,85,127
18719,note_off,0,0,0,,1,,,61,127
18720,note_on,1,0,0,,12,,,59,127
18720,note_on,0,0,0,,2,,,86,127
18856,note_on,136,0,0,,2,,,74,127
18989,note_off,133,0,0,,2,,,86,127
18990,note_off,1,0,0,,2,,,74,127
18990,note_off,0,0,0,,12,,,59,127
18991,note_on,1,0,0,,10,,,57,127
18991,note_on,0,0,0,,1,,,85,127
19125,note_off,134,0,0,,1,,,85,127
19125,note_off,0,0,0,,10,,,57,127
19126,note_on,1,0,0,,7,,,55,127
19126,note_on,0,0,0,,12,,,83,127
19262,note_on,136,0,0,,12,,,71,127
19395,note_off,133,0,0,,12,,,83,127
19396,note_off,1,0,0,,12,,,71,127
19396,note_off,0,0,0,,7,,,55,127
19397,note_on,1,0,0,,6,,,54,127
19397,note_on,0,0,0,,10,,,81,127
19531,note_off,134,0,0,,10,,,81,127
19531,note_off,0,0,0,,6,,,54,127
19532,note_on,1,0,0,,4,,,52,127
19532,note_on,0,0,0,,7,,,79,127
19666,note_off,134,0,0,,7,,,79,127
19667,note_on,1,0,0,,6,,,78,127
19801,note_off,134,0,0,,6,,,78,127
19801,note_off,0,0,0,,4,,,52,127
19802,note_on,1,0,0,,6,,,54,127
19802,note_on,0,0,0,,4,,,76,127
19936,note_off,134,0,0,,4,,,76,127
19936,note_off,0,0,0,,6,,,54,127
19937,note_on,1,0,0,,7,,,55,127
19937,note_on,0,0,0,,2,,,74,127
19937,note_on,0,0,0,,4,,,76,127
20071,note_off,134,0,0,,4,,,76,127
20071,note_off,0,0,0,,2,,,74,127
20072,note_on,1,0,0,,1,,,73,127
20206,note_off,134,0,0,,1,,,73,127
20206,note_off,0,0,0,,7,,,55,127
20207,note_on,1,0,0,,4,,,64,127
20207,note_on,0,0,0,,12,,,71,127
20341,note_off,134,0,0,,12,,,71,127
20341,note_off,0,0,0,,4,,,64,127
20342,note_on,1,0,0,,6,,,54,127
20342,note_on,0,0,0,,12,,,71,127
20476,note_off,134,0,0,,6,,,54,127
20477,note_on,1,0,0,,1,,,61,127
20611,note_off,134,0,0,,1,,,61,127
20611,note_off,0,0,0,,12,,,71,127
20612,note_on,1,0,0,,4,,,64,127
20612,note_on,0,0,0,,11,,,70,127
20746,note_off,134,0,0,,4,,,64,127
20747,note_on,1,0,0,,7,,,55,127
20815,note_off,68,0,0,,11,,,70,127
20881,note_off,66,0,0,,7,,,55,127
20882,note_on,1,0,0,,12,,,59,127
20882,note_on,0,0,0,,7,,,79,127
21016,note_off,134,0,0,,7,,,79,127
21016,note_off,0,0,0,,12,,,59,127
21017,note_on,1,0,0,,4,,,64,127
21017,note_on,0,0,0,,4,,,76,127
21151,note_off,134,0,0,,4,,,76,127
21151,note_off,0,0,0,,4,,,64,127
21152,note_on,1,0,0,,6,,,54,127
21152,note_on,0,0,0,,12,,,71,127
21286,note_off,134,0,0,,6,,,54,127
21287,note_on,1,0,0,,1,,,61,127
21421,note_off,134,0,0,,1,,,61,127
21421,note_off,0,0,0,,12,,,71,127
21422,note_on,1,0,0,,4,,,64,127
21422,note_on,0,0,0,,11,,,70,127
21556,note_off,134,0,0,,4,,,64,127
21557,note_on,1,0,0,,7,,,55,127
21625,note_off,68,0,0,,11,,,70,127
21691,note_off,66,0,0,,7,,,55,127
21692,note_on,1,0,0,,12,,,59,127
21692,note_on,0,0,0,,11,,,82,127
21826,note_off,134,0,0,,11,,,82,127
21826,note_off,0,0,0,,12,,,59,127
21827,note_on,1,0,0,,4,,,64,127
21827,note_on,0,0,0,,7,,,79,127
21961,note_off,134,0,0,,7,,,79,127
21961,note_off,0,0,0,,4,,,64,127
21962,note_on,1,0,0,,6,,,54,127
21962,note_on,0,0,0,,12,,,71,127
22096,note_off,134,0,0,,6,,,54,127
22097,note_on,1,0,0,,1,,,61,127
22231,note_off,134,0,0,,1,,,61,127
22231,note_off,0,0,0,,12,,,71,127
22232,note_on,1,0,0,,4,,,64,127
22232,note_on,0,0,0,,11,,,70,127
22366,note_off,134,0,0,,4,,,64,127
22367,note_on,1,0,0,,7,,,55,127
22435,note_off,68,0,0,,11,,,70,127
22501,note_off,66,0,0,,7,,,55,127
22502,note_on,1,0,0,,12,,,59,127
22502,note_on,0,0,0,,1,,,85,127
22636,note_off,134,0,0,,1,,,85,127
22636,note_off,0,0,0,,12,,,59,127
22637,note_on,1,0,0,,4,,,64,127
22637,note_on,0,0,0,,4,,,76,127
22771,note_off,134,0,0,,4,,,76,127
22771,note_off,0,0,0,,4,,,64,127
22772,note_on,1,0,0,,6,,,54,127
22772,note_on,0,0,0,,11,,,70,127
22906,note_off,134,0,0,,11,,,70,127
22906,note_off,0,0,0,,6,,,54,127
22907,note_on,1,0,0,,1,,,61,127
22907,note_on,0,0,0,,1,,,85,127
23041,note_off,134,0,0,,1,,,85,127
23041,note_off,0,0,0,,1,,,61,127
23042,note_on,1,0,0,,4,,,64,127
23042,note_on,0,0,0,,4,,,76,127
23176,note_off,134,0,0,,4,,,76,127
23176,note_off,0,0,0,,4,,,64,127
23177,note_on,1,0,0,,7,,,55,127
23177,note_on,0,0,0,,11,,,70,127
23311,note_off,134,0,0,,11,,,70,127
23311,note_off,0,0,0,,7,,,55,127
23312,note_on,1,0,0,,12,,,59,127
23312,note_on,0,0,0,,1,,,85,127
23446,note_off,134,0,0,,1,,,85,127
23446,note_off,0,0,0,,12,,,59,127
23447,note_on,1,0,0,,4,,,64,127
23447,note_on,0,0,0,,4,,,76,127
23581,note_off,134,0,0,,4,,,76,127
23581,note_off,0,0,0,,4,,,64,127
23582,note_on,1,0,0,,6,,,54,127
23582,note_on,0,0,0,,11,,,70,127
23716,note_off,134,0,0,,6,,,54,127
23717,note_on,1,0,0,,8,,,56,127
23851,note_off,134,0,0,,8,,,56,127
23851,note_off,0,0,0,,11,,,70,127
23852,note_on,1,0,0,,11,,,58,127
23852,note_on,0,0,0,,1,,,85,127
23986,note_off,134,0,0,,1,,,85,127
23986,note_off,0,0,0,,11,,,58,127
23987,note_on,1,0,0,,12,,,59,127
23987,note_on,0,0,0,,2,,,86,127
24121,note_off,134,0,0,,2,,,86,127
24122,note_on,1,0,0,,12,,,83,127
24256,note_off,134,0,0,,12,,,83,127
24256,note_off,0,0,0,,12,,,59,127
24257,note_on,1,0,0,,2,,,50,127
24257,note_on,0,0,0,,6,,,78,127
24391,note_off,134,0,0,,6,,,78,127
24391,note_off,0,0,0,,2,,,50,127
24392,note_on,1,0,0,,4,,,52,127
24392,note_on,0,0,0,,7,,,79,127
24526,note_off,134,0,0,,7,,,79,127
24527,note_on,1,0,0,,6,,,78,127
24661,note_off,134,0,0,,6,,,78,127
24661,note_off,0,0,0,,4,,,52,127
24662,note_on,1,0,0,,6,,,54,127
24662,note_on,0,0,0,,4,,,76,127
24796,note_off,134,0,0,,4,,,76,127
24796,note_off,0,0,0,,6,,,54,127
24797,note_on,1,0,0,,7,,,55,127
24797,note_on,0,0,0,,4,,,76,127
24797,note_on,0,0,0,,2,,,74,127
24931,note_off,134,0,0,,2,,,74,127
24931,note_off,0,0,0,,4,,,76,127
24932,note_on,1,0,0,,1,,,73,127
25066,note_off,134,0,0,,1,,,73,127
25066,note_off,0,0,0,,7,,,55,127
25067,note_on,1,0,0,,4,,,64,127
25067,note_on,0,0,0,,12,,,71,127
25201,note_off,134,0,0,,12,,,71,127
25201,note_off,0,0,0,,4,,,64,127
25202,note_on,1,0,0,,6,,,54,127
25202,note_on,0,0,0,,12,,,71,127
25336,note_off,134,0,0,,6,,,54,127
25337,note_on,1,0,0,,1,,,61,127
25471,note_off,134,0,0,,1,,,61,127
25471,note_off,0,0,0,,12,,,71,127
25472,note_on,1,0,0,,4,,,64,127
25472,note_on,0,0,0,,11,,,70,127
25606,note_off,134,0,0,,4,,,64,127
25607,note_on,1,0,0,,7,,,55,127
25683,note_off,76,0,0,,11,,,70,127
25741,note_off,58,0,0,,7,,,55,127
25742,note_on,1,0,0,,12,,,59,127
25742,note_on,0,0,0,,7,,,79,127
25876,note_off,134,0,0,,7,,,79,127
25876,note_off,0,0,0,,12,,,59,127
25877,note_on,1,0,0,,4,,,64,127
25877,note_on,0,0,0,,4,,,76,127
26011,note_off,134,0,0,,4,,,76,127
26011,note_off,0,0,0,,4,,,64,127
26012,note_on,1,0,0,,6,,,54,127
26012,note_on,0,0,0,,12,,,71,127
26146,note_off,134,0,0,,6,,,54,127
26147,note_on,1,0,0,,1,,,61,127
26281,note_off,134,0,0,,1,,,61,127
26281,note_off,0,0,0,,12,,,71,127
26282,note_on,1,0,0,,4,,,64,127
26282,note_on,0,0,0,,11,,,70,127
26416,note_off,134,0,0,,4,,,64,127
26417,note_on,1,0,0,,7,,,55,127
26493,note_off,76,0,0,,11,,,70,127
26551,note_off,58,0,0,,7,,,55,127
26552,note_on,1,0,0,,12,,,59,127
26552,note_on,0,0,0,,11,,,82,127
26686,note_off,134,0,0,,11,,,82,127
26686,note_off,0,0,0,,12,,,59,127
26687,note_on,1,0,0,,4,,,64,127
26687,note_on,0,0,0,,7,,,79,127
26821,note_off,134,0,0,,7,,,79,127
26821,note_off,0,0,0,,4,,,64,127
26822,note_on,1,0,0,,6,,,54,127
26822,note_on,0,0,0,,12,,,71,127
26956,note_off,134,0,0,,6,,,54,127
26957,note_on,1,0,0,,1,,,61,127
27091,note_off,134,0,0,,1,,,61,127
27091,note_off,0,0,0,,12,,,71,127
27092,note_on,1,0,0,,4,,,64,127
27092,note_on,0,0,0,,11,,,70,127
27226,note_off,134,0,0,,4,,,64,127
27227,note_on,1,0,0,,7,,,55,127
27303,note_off,76,0,0,,11,,,70,127
27361,note_off,58,0,0,,7,,,55,127
27362,note_on,1,0,0,,12,,,59,127
27362,note_on,0,0,0,,1,,,85,127
27496,note_off,134,0,0,,1,,,85,127
27496,note_off,0,0,0,,12,,,59,127
27497,note_on,1,0,0,,4,,,64,127
27497,note_on,0,0,0,,4,,,76,127
27631,note_off,134,0,0,,4,,,76,127
27631,note_off,0,0,0,,4,,,64,127
27632,note_on,1,0,0,,6,,,54,127
27632,note_on,0,0,0,,11,,,70,127
27766,note_off,134,0,0,,11,,,70,127
27766,note_off,0,0,0,,6,,,54,127
27767,note_on,1,0,0,,1,,,61,127
27767,note_on,0,0,0,,1,,,85,127
27901,note_off,134,0,0,,1,,,85,127
27901,note_off,0,0,0,,1,,,61,127
27902,note_on,1,0,0,,4,,,64,127
27902,note_on,0,0,0,,4,,,76,127
28036,note_off,134,0,0,,4,,,76,127
28036,note_off,0,0,0,,4,,,64,127
28037,note_on,1,0,0,,7,,,55,127
28037,note_on,0,0,0,,11,,,70,127
28171,note_off,134,0,0,,11,,,70,127
28171,note_off,0,0,0,,7,,,55,127
28172,note_on,1,0,0,,12,,,59,127
28172,note_on,0,0,0,,1,,,85,127
28306,note_off,134,0,0,,1,,,85,127
28306,note_off,0,0,0,,12,,,59,127
28307,note_on,1,0,0,,4,,,64,127
28307,note_on,0,0,0,,4,,,76,127
28441,note_off,134,0,0,,4,,,76,127
28441,note_off,0,0,0,,4,,,64,127
28442,note_on,1,0,0,,6,,,54,127
28442,note_on,0,0,0,,11,,,70,127
28576,note_off,134,0,0,,6,,,54,127
28577,note_on,1,0,0,,8,,,56,127
28711,note_off,134,0,0,,8,,,56,127
28711,note_off,0,0,0,,11,,,70,127
28712,note_on,1,0,0,,11,,,58,127
28712,note_on,0,0,0,,1,,,85,127
28846,note_off,134,0,0,,1,,,85,127
28846,note_off,0,0,0,,11,,,58,127
28847,note_on,1,0,0,,12,,,59,127
28847,note_on,0,0,0,,2,,,86,127
28981,note_off,134,0,0,,2,,,86,127
28982,note_on,1,0,0,,12,,,83,127
29116,note_off,134,0,0,,12,,,83,127
29116,note_off,0,0,0,,12,,,59,127
29117,note_on,1,0,0,,2,,,50,127
29117,note_on,0,0,0,,6,,,78,127
29251,note_off,134,0,0,,6,,,78,127
29251,note_off,0,0,0,,2,,,50,127
29252,note_on,1,0,0,,4,,,52,127
29252,note_on,0,0,0,,7,,,79,127
29386,note_off,134,0,0,,7,,,79,127
29387,note_on,1,0,0,,6,,,78,127
29521,note_off,134,0,0,,6,,,78,127
29521,note_off,0,0,0,,4,,,52,127
29522,note_on,1,0,0,,7,,,55,127
29522,note_on,0,0,0,,4,,,76,127
29656,note_off,134,0,0,,4,,,76,127
29656,note_off,0,0,0,,7,,,55,127
29657,note_on,1,0,0,,6,,,54,127
29657,note_on,0,0,0,,2,,,74,127
29791,note_off,134,0,0,,2,,,74,127
29792,note_on,1,0,0,,4,,,76,127
29926,note_off,134,0,0,,4,,,76,127
29927,note_on,1,0,0,,6,,,42,127
29927,note_on,0,0,0,,1,,,73,127
30061,note_off,134,0,0,,1,,,73,127
30061,note_off,0,0,0,,6,,,42,127
30062,note_off,1,0,0,,6,,,54,127
30063,note_on,1,0,0,,12,,,59,127
30063,note_on,0,0,0,,12,,,71,127
30197,note_off,134,0,0,,12,,,59,127
30198,note_on,1,0,0,,1,,,61,127
30332,note_off,134,0,0,,1,,,61,127
30332,note_off,0,0,0,,12,,,71,127
30333,note_on,1,0,0,,2,,,62,127
30333,note_on,0,0,0,,6,,,78,127
30467,note_off,134,0,0,,6,,,78,127
30467,note_off,0,0,0,,2,,,62,127
30468,note_on,1,0,0,,4,,,64,127
30468,note_on,0,0,0,,7,,,79,127
30602,note_off,134,0,0,,4,,,64,127
30603,note_on,1,0,0,,4,,,52,127
30737,note_off,134,0,0,,4,,,52,127
30737,note_off,0,0,0,,7,,,79,127
30738,note_on,1,0,0,,1,,,61,127
30738,note_on,0,0,0,,4,,,76,127
30872,note_off,134,0,0,,4,,,76,127
30872,note_off,0,0,0,,1,,,61,127
30873,note_on,1,0,0,,2,,,62,127
30873,note_on,0,0,0,,6,,,78,127
31007,note_off,134,0,0,,2,,,62,127
31008,note_on,1,0,0,,2,,,50,127
31142,note_off,134,0,0,,2,,,50,127
31142,note_off,0,0,0,,6,,,78,127
31143,note_on,1,0,0,,12,,,59,127
31143,note_on,0,0,0,,2,,,74,127
31277,note_off,134,0,0,,2,,,74,127
31277,note_off,0,0,0,,12,,,59,127
31278,note_on,1,0,0,,1,,,61,127
31278,note_on,0,0,0,,4,,,76,127
31412,note_off,134,0,0,,1,,,61,127
31413,note_on,1,0,0,,1,,,49,127
31547,note_off,134,0,0,,1,,,49,127
31547,note_off,0,0,0,,4,,,76,127
31548,note_on,1,0,0,,11,,,58,127
31548,note_on,0,0,0,,1,,,73,127
31682,note_off,134,0,0,,1,,,73,127
31682,note_off,0,0,0,,11,,,58,127
31683,note_on,1,0,0,,12,,,59,127
31683,note_on,0,0,0,,2,,,74,127
31817,note_off,134,0,0,,12,,,59,127
31818,note_on,1,0,0,,1,,,61,127
31952,note_off,134,0,0,,1,,,61,127
31952,note_off,0,0,0,,2,,,74,127
31953,note_on,1,0,0,,2,,,62,127
31953,note_on,0,0,0,,6,,,78,127
32087,note_off,134,0,0,,6,,,78,127
32087,note_off,0,0,0,,2,,,62,127
32088,note_on,1,0,0,,4,,,64,127
32088,note_on,0,0,0,,7,,,79,127
32222,note_off,134,0,0,,4,,,64,127
32223,note_on,1,0,0,,4,,,52,127
32357,note_off,134,0,0,,4,,,52,127
32357,note_off,0,0,0,,7,,,79,127
32358,note_on,1,0,0,,1,,,61,127
32358,note_on,0,0,0,,4,,,76,127
32492,note_off,134,0,0,,4,,,76,127
32492,note_off,0,0,0,,1,,,61,127
32493,note_on,1,0,0,,2,,,62,127
32493,note_on,0,0,0,,6,,,78,127
32627,note_off,134,0,0,,2,,,62,127
32628,note_on,1,0,0,,2,,,50,127
32762,note_off,134,0,0,,2,,,50,127
32762,note_off,0,0,0,,6,,,78,127
32763,note_on,1,0,0,,12,,,59,127
32763,note_on,0,0,0,,2,,,74,127
32897,note_off,134,0,0,,2,,,74,127
32897,note_off,0,0,0,,12,,,59,127
32898,note_on,1,0,0,,1,,,61,127
32898,note_on,0,0,0,,4,,,76,127
33032,note_off,134,0,0,,1,,,61,127
33033,note_on,1,0,0,,1,,,49,127
33167,note_off,134,0,0,,1,,,49,127
33167,note_off,0,0,0,,4,,,76,127
33168,note_on,1,0,0,,11,,,58,127
33168,note_on,0,0,0,,1,,,73,127
33302,note_off,134,0,0,,1,,,73,127
33302,note_off,0,0,0,,11,,,58,127
33303,note_on,1,0,0,,12,,,59,127
33303,note_on,0,0,0,,2,,,74,127
33437,note_off,134,0,0,,2,,,74,127
33438,note_on,1,0,0,,4,,,76,127
33572,note_off,134,0,0,,4,,,76,127
33572,note_off,0,0,0,,12,,,59,127
33573,note_on,1,0,0,,2,,,50,127
33573,note_on,0,0,0,,6,,,78,127
33707,note_off,134,0,0,,6,,,78,127
33707,note_off,0,0,0,,2,,,50,127
33708,note_on,1,0,0,,4,,,52,127
33708,note_on,0,0,0,,2,,,74,127
33708,note_on,0,0,0,,1,,,73,127
33842,note_off,134,0,0,,1,,,73,127
33842,note_off,0,0,0,,2,,,74,127
33843,note_on,1,0,0,,12,,,71,127
33977,note_off,134,0,0,,12,,,71,127
33977,note_off,0,0,0,,4,,,52,127
33978,note_on,1,0,0,,6,,,54,127
33978,note_on,0,0,0,,11,,,70,127
34112,note_off,134,0,0,,11,,,70,127
34112,note_off,0,0,0,,6,,,54,127
34113,note_on,1,0,0,,7,,,55,127
34113,note_on,0,0,0,,2,,,74,127
34247,note_off,134,0,0,,2,,,74,127
34248,note_on,1,0,0,,4,,,76,127
34382,note_off,134,0,0,,4,,,76,127
34382,note_off,0,0,0,,7,,,55,127
34383,note_on,1,0,0,,2,,,50,127
34383,note_on,0,0,0,,6,,,78,127
34517,note_off,134,0,0,,6,,,78,127
34517,note_off,0,0,0,,2,,,50,127
34518,note_on,1,0,0,,4,,,52,127
34518,note_on,0,0,0,,2,,,74,127
34518,note_on,0,0,0,,1,,,73,127
34652,note_off,134,0,0,,1,,,73,127
34652,note_off,0,0,0,,2,,,74,127
34653,note_on,1,0,0,,12,,,71,127
34787,note_off,134,0,0,,12,,,71,127
34787,note_off,0,0,0,,4,,,52,127
34788,note_on,1,0,0,,6,,,54,127
34788,note_on,0,0,0,,11,,,70,127
34922,note_off,134,0,0,,11,,,70,127
34922,note_off,0,0,0,,6,,,54,127
34923,note_on,1,0,0,,7,,,55,127
34923,note_on,0,0,0,,2,,,74,127
35057,note_off,134,0,0,,2,,,74,127
35058,note_on,1,0,0,,4,,,76,127
35192,note_off,134,0,0,,4,,,76,127
35192,note_off,0,0,0,,7,,,55,127
35193,note_on,1,0,0,,2,,,50,127
35193,note_on,0,0,0,,6,,,78,127
35327,note_off,134,0,0,,6,,,78,127
35327,note_off,0,0,0,,2,,,50,127
35328,note_on,1,0,0,,4,,,52,127
35328,note_on,0,0,0,,2,,,74,127
35328,note_on,0,0,0,,1,,,73,127
35462,note_off,134,0,0,,1,,,73,127
35462,note_off,0,0,0,,2,,,74,127
35463,note_on,1,0,0,,12,,,71,127
35597,note_off,134,0,0,,12,,,71,127
35597,note_off,0,0,0,,4,,,52,127
35598,note_on,1,0,0,,6,,,54,127
35598,note_on,0,0,0,,11,,,70,127
35732,note_off,134,0,0,,11,,,70,127
35732,note_off,0,0,0,,6,,,54,127
35733,note_on,1,0,0,,12,,,47,127
35733,note_on,0,0,0,,11,,,70,127
36001,note_off,268,0,0,,11,,,70,127
36002,note_off,1,0,0,,12,,,47,127
36003,note_on,1,0,0,,12,,,71,127
36137,note_off,134,0,0,,12,,,71,127
36138,note_on,1,0,0,,0,,,72,127
36274,note_on,136,0,0,,0,,,60,127
36342,note_off,68,0,0,,0,,,72,127
36408,note_off,66,0,0,,0,,,60,127
36409,note_on,1,0,0,,10,,,69,127
36543,note_off,134,0,0,,10,,,69,127
36544,note_on,1,0,0,,12,,,71,127
36680,note_on,136,0,0,,12,,,59,127
36748,note_off,68,0,0,,12,,,71,127
36814,note_off,66,0,0,,12,,,59,127
36815,note_on,1,0,0,,7,,,67,127
36815,note_on,0,0,0,,12,,,83,127
36949,note_off,134,0,0,,12,,,83,127
36949,note_off,0,0,0,,7,,,67,127
36950,note_on,1,0,0,,10,,,69,127
36950,note_on,0,0,0,,0,,,84,127
37086,note_on,136,0,0,,10,,,57,127
37086,note_on,0,0,0,,0,,,72,127
37154,note_off,68,0,0,,10,,,69,127
37219,note_off,65,0,0,,0,,,84,127
37220,note_off,1,0,0,,0,,,72,127
37220,note_off,0,0,0,,10,,,57,127
37221,note_on,1,0,0,,6,,,66,127
37221,note_on,0,0,0,,10,,,81,127
37355,note_off,134,0,0,,10,,,81,127
37355,note_off,0,0,0,,6,,,66,127
37356,note_on,1,0,0,,7,,,67,127
37356,note_on,0,0,0,,12,,,83,127
37492,note_on,136,0,0,,12,,,71,127
37625,note_off,133,0,0,,12,,,83,127
37626,note_off,1,0,0,,12,,,71,127
37626,note_off,0,0,0,,7,,,67,127
37627,note_on,1,0,0,,4,,,64,127
37627,note_on,0,0,0,,7,,,79,127
37761,note_off,134,0,0,,7,,,79,127
37761,note_off,0,0,0,,4,,,64,127
37762,note_on,1,0,0,,6,,,66,127
37762,note_on,0,0,0,,10,,,81,127
37896,note_off,134,0,0,,10,,,81,127
37897,note_on,1,0,0,,7,,,79,127
38031,note_off,134,0,0,,7,,,79,127
38031,note_off,0,0,0,,6,,,66,127
38032,note_on,1,0,0,,3,,,63,127
38032,note_on,0,0,0,,6,,,78,127
38166,note_off,134,0,0,,6,,,78,127
38166,note_off,0,0,0,,3,,,63,127
38167,note_on,1,0,0,,4,,,64,127
38167,note_on,0,0,0,,7,,,79,127
38301,note_off,134,0,0,,7,,,79,127
38302,note_on,1,0,0,,6,,,78,127
38436,note_off,134,0,0,,6,,,78,127
38436,note_off,0,0,0,,4,,,64,127
38437,note_on,1,0,0,,4,,,64,127
38437,note_on,0,0,0,,4,,,76,127
38571,note_off,134,0,0,,4,,,76,127
38571,note_off,0,0,0,,4,,,64,127
38572,note_on,1,0,0,,5,,,65,127
38706,note_off,134,0,0,,5,,,65,127
38707,note_on,1,0,0,,5,,,53,127
38841,note_off,134,0,0,,5,,,53,127
38842,note_on,1,0,0,,2,,,62,127
38976,note_off,134,0,0,,2,,,62,127
38977,note_on,1,0,0,,4,,,64,127
39111,note_off,134,0,0,,4,,,64,127
39112,note_on,1,0,0,,4,,,52,127
39246,note_off,134,0,0,,4,,,52,127
39247,note_on,1,0,0,,0,,,60,127
39247,note_on,0,0,0,,4,,,76,127
39381,note_off,134,0,0,,4,,,76,127
39381,note_off,0,0,0,,0,,,60,127
39382,note_on,1,0,0,,2,,,62,127
39382,note_on,0,0,0,,5,,,77,127
39518,note_on,136,0,0,,5,,,65,127
39608,note_off,90,0,0,,5,,,77,127
39652,note_off,44,0,0,,5,,,65,127
39652,note_off,0,0,0,,2,,,62,127
39653,note_on,1,0,0,,12,,,59,127
39653,note_on,0,0,0,,2,,,74,127
39787,note_off,134,0,0,,2,,,74,127
39787,note_off,0,0,0,,12,,,59,127
39788,note_on,1,0,0,,0,,,60,127
39788,note_on,0,0,0,,4,,,76,127
39924,note_on,136,0,0,,4,,,64,127
40014,note_off,90,0,0,,4,,,76,127
40058,note_off,44,0,0,,4,,,64,127
40058,note_off,0,0,0,,0,,,60,127
40059,note_on,1,0,0,,10,,,57,127
40059,note_on,0,0,0,,0,,,72,127
40193,note_off,134,0,0,,0,,,72,127
40193,note_off,0,0,0,,10,,,57,127
40194,note_on,1,0,0,,12,,,59,127
40194,note_on,0,0,0,,2,,,74,127
40330,note_on,136,0,0,,2,,,62,127
40420,note_off,90,0,0,,2,,,74,127
40464,note_off,44,0,0,,2,,,62,127
40464,note_off,0,0,0,,12,,,59,127
40465,note_on,1,0,0,,8,,,56,127
40465,note_on,0,0,0,,12,,,71,127
40599,note_off,134,0,0,,12,,,71,127
40599,note_off,0,0,0,,8,,,56,127
40600,note_on,1,0,0,,10,,,57,127
40600,note_on,0,0,0,,0,,,72,127
40734,note_off,134,0,0,,10,,,57,127
40735,note_on,1,0,0,,12,,,59,127
40869,note_off,134,0,0,,12,,,59,127
40870,note_on,1,0,0,,0,,,60,127
41004,note_off,134,0,0,,0,,,60,127
41005,note_on,1,0,0,,2,,,62,127
41005,note_on,0,0,0,,5,,,53,127
41139,note_off,134,0,0,,0,,,72,127
41140,note_on,1,0,0,,2,,,74,127
41274,note_off,134,0,0,,2,,,74,127
41275,note_on,1,0,0,,12,,,71,127
41409,note_off,134,0,0,,12,,,71,127
41409,note_off,0,0,0,,5,,,53,127
41409,note_off,0,0,0,,2,,,62,127
41410,note_on,1,0,0,,4,,,52,127
41410,note_on,0,0,0,,10,,,69,127
41544,note_off,134,0,0,,4,,,52,127
41545,note_on,1,0,0,,12,,,59,127
41679,note_off,134,0,0,,12,,,59,127
41679,note_off,0,0,0,,10,,,69,127
41680,note_on,1,0,0,,2,,,62,127
41680,note_on,0,0,0,,8,,,68,127
41814,note_off,134,0,0,,2,,,62,127
41815,note_on,1,0,0,,5,,,53,127
41905,note_off,90,0,0,,8,,,68,127
41949,note_off,44,0,0,,5,,,53,127
41950,note_on,1,0,0,,10,,,57,127
41950,note_on,0,0,0,,5,,,77,127
42084,note_off,134,0,0,,5,,,77,127
42084,note_off,0,0,0,,10,,,57,127
42085,note_on,1,0,0,,2,,,62,127
42085,note_on,0,0,0,,2,,,74,127
42219,note_off,134,0,0,,2,,,74,127
42219,note_off,0,0,0,,2,,,62,127
42220,note_on,1,0,0,,4,,,52,127
42220,note_on,0,0,0,,10,,,69,127
42354,note_off,134,0,0,,4,,,52,127
42355,note_on,1,0,0,,12,,,59,127
42489,note_off,134,0,0,,12,,,59,127
42489,note_off,0,0,0,,10,,,69,127
42490,note_on,1,0,0,,2,,,62,127
42490,note_on,0,0,0,,8,,,68,127
42624,note_off,134,0,0,,2,,,62,127
42625,note_on,1,0,0,,5,,,53,127
42715,note_off,90,0,0,,8,,,68,127
42759,note_off,44,0,0,,5,,,53,127
42760,note_on,1,0,0,,10,,,57,127
42760,note_on,0,0,0,,12,,,83,127
42894,note_off,134,0,0,,12,,,83,127
42894,note_off,0,0,0,,10,,,57,127
42895,note_on,1,0,0,,2,,,62,127
42895,note_on,0,0,0,,2,,,74,127
43029,note_off,134,0,0,,2,,,74,127
43029,note_off,0,0,0,,2,,,62,127
43030,note_on,1,0,0,,4,,,52,127
43030,note_on,0,0,0,,8,,,68,127
43164,note_off,134,0,0,,8,,,68,127
43164,note_off,0,0,0,,4,,,52,127
43165,note_on,1,0,0,,12,,,59,127
43165,note_on,0,0,0,,12,,,83,127
43299,note_off,134,0,0,,12,,,83,127
43299,note_off,0,0,0,,12,,,59,127
43300,note_on,1,0,0,,2,,,62,127
43300,note_on,0,0,0,,2,,,74,127
43434,note_off,134,0,0,,2,,,74,127
43434,note_off,0,0,0,,2,,,62,127
43435,note_on,1,0,0,,5,,,53,127
43435,note_on,0,0,0,,8,,,68,127
43569,note_off,134,0,0,,8,,,68,127
43569,note_off,0,0,0,,5,,,53,127
43570,note_on,1,0,0,,10,,,57,127
43570,note_on,0,0,0,,12,,,83,127
43704,note_off,134,0,0,,12,,,83,127
43704,note_off,0,0,0,,10,,,57,127
43705,note_on,1,0,0,,2,,,62,127
43705,note_on,0,0,0,,2,,,74,127
43839,note_off,134,0,0,,2,,,74,127
43839,note_off,0,0,0,,2,,,62,127
43840,note_on,1,0,0,,4,,,52,127
43840,note_on,0,0,0,,8,,,68,127
43974,note_off,134,0,0,,4,,,52,127
43975,note_on,1,0,0,,6,,,54,127
44109,note_off,134,0,0,,6,,,54,127
44109,note_off,0,0,0,,8,,,68,127
44110,note_on,1,0,0,,8,,,56,127
44110,note_on,0,0,0,,12,,,83,127
44244,note_off,134,0,0,,12,,,83,127
44244,note_off,0,0,0,,8,,,56,127
44245,note_on,1,0,0,,10,,,57,127
44245,note_on,0,0,0,,0,,,84,127
44379,note_off,134,0,0,,0,,,84,127
44380,note_on,1,0,0,,10,,,81,127
44514,note_off,134,0,0,,10,,,81,127
44514,note_off,0,0,0,,10,,,57,127
44515,note_on,1,0,0,,0,,,48,127
44515,note_on,0,0,0,,4,,,76,127
44649,note_off,134,0,0,,4,,,76,127
44649,note_off,0,0,0,,0,,,48,127
44650,note_on,1,0,0,,2,,,50,127
44650,note_on,0,0,0,,5,,,77,127
44784,note_off,134,0,0,,5,,,77,127
44785,note_on,1,0,0,,4,,,76,127
44919,note_off,134,0,0,,4,,,76,127
44919,note_off,0,0,0,,2,,,50,127
44920,note_on,1,0,0,,5,,,53,127
44920,note_on,0,0,0,,2,,,74,127
45054,note_off,134,0,0,,2,,,74,127
45054,note_off,0,0,0,,5,,,53,127
45055,note_on,1,0,0,,4,,,52,127
45055,note_on,0,0,0,,0,,,72,127
45189,note_off,134,0,0,,0,,,72,127
45190,note_on,1,0,0,,10,,,81,127
45324,note_off,134,0,0,,10,,,81,127
45325,note_on,1,0,0,,4,,,40,127
45325,note_on,0,0,0,,8,,,80,127
45459,note_off,134,0,0,,8,,,80,127
45459,note_off,0,0,0,,4,,,40,127
45460,note_off,1,0,0,,4,,,52,127
45461,note_on,1,0,0,,10,,,45,127
45461,note_on,0,0,0,,10,,,81,127
45595,note_off,134,0,0,,10,,,45,127
45596,note_on,1,0,0,,4,,,52,127
45730,note_off,134,0,0,,4,,,52,127
45731,note_on,1,0,0,,10,,,57,127
45827,note_off,96,0,0,,10,,,81,127
45865,note_off,38,0,0,,10,,,57,127
45866,note_on,1,0,0,,7,,,43,127
45866,note_on,0,0,0,,0,,,84,127
45932,note_off,66,0,0,,0,,,84,127
45933,note_on,1,0,0,,12,,,83,127
45999,note_off,66,0,0,,12,,,83,127
45999,note_off,0,0,0,,7,,,43,127
46000,note_on,1,0,0,,2,,,50,127
46000,note_on,0,0,0,,0,,,84,127
46066,note_off,66,0,0,,0,,,84,127
46067,note_on,1,0,0,,12,,,83,127
46133,note_off,66,0,0,,12,,,83,127
46133,note_off,0,0,0,,2,,,50,127
46134,note_on,1,0,0,,7,,,55,127
46134,note_on,0,0,0,,10,,,81,127
46200,note_off,66,0,0,,10,,,81,127
46201,note_on,1,0,0,,12,,,83,127
46267,note_off,66,0,0,,12,,,83,127
46267,note_off,0,0,0,,7,,,55,127
46268,note_on,1,0,0,,0,,,48,127
46268,note_on,0,0,0,,0,,,84,127
46402,note_off,134,0,0,,0,,,48,127
46403,note_on,1,0,0,,7,,,55,127
46537,note_off,134,0,0,,7,,,55,127
46538,note_on,1,0,0,,0,,,60,127
46634,note_off,96,0,0,,0,,,84,127
46672,note_off,38,0,0,,0,,,60,127
46673,note_on,1,0,0,,2,,,50,127
46673,note_on,0,0,0,,7,,,79,127
46739,note_off,66,0,0,,7,,,79,127
46740,note_on,1,0,0,,6,,,78,127
46806,note_off,66,0,0,,6,,,78,127
46806,note_off,0,0,0,,2,,,50,127
46807,note_on,1,0,0,,10,,,57,127
46807,note_on,0,0,0,,7,,,79,127
46873,note_off,66,0,0,,7,,,79,127
46874,note_on,1,0,0,,6,,,78,127
46940,note_off,66,0,0,,6,,,78,127
46940,note_off,0,0,0,,10,,,57,127
46941,note_on,1,0,0,,2,,,62,127
46941,note_on,0,0,0,,4,,,76,127
47007,note_off,66,0,0,,4,,,76,127
47008,note_on,1,0,0,,6,,,78,127
47074,note_off,66,0,0,,6,,,78,127
47074,note_off,0,0,0,,2,,,62,127
47075,note_on,1,0,0,,7,,,43,127
47075,note_on,0,0,0,,7,,,79,127
47209,note_off,134,0,0,,7,,,43,127
47210,note_on,1,0,0,,2,,,50,127
47344,note_off,134,0,0,,2,,,50,127
47345,note_on,1,0,0,,7,,,55,127
47455,note_off,110,0,0,,7,,,79,127
47479,note_off,24,0,0,,7,,,55,127
47480,note_on,1,0,0,,10,,,45,127
47480,note_on,0,0,0,,2,,,74,127
47546,note_off,66,0,0,,2,,,74,127
47547,note_on,1,0,0,,1,,,73,127
47613,note_off,66,0,0,,1,,,73,127
47613,note_off,0,0,0,,10,,,45,127
47614,note_on,1,0,0,,4,,,52,127
47614,note_on,0,0,0,,2,,,74,127
47680,note_off,66,0,0,,2,,,74,127
47681,note_on,1,0,0,,1,,,73,127
47747,note_off,66,0,0,,1,,,73,127
47747,note_off,0,0,0,,4,,,52,127
47748,note_on,1,0,0,,10,,,57,127
47748,note_on,0,0,0,,12,,,71,127
47814,note_off,66,0,0,,12,,,71,127
47815,note_on,1,0,0,,1,,,73,127
47881,note_off,66,0,0,,1,,,73,127
47881,note_off,0,0,0,,10,,,57,127
47882,note_on,1,0,0,,2,,,50,127
47882,note_on,0,0,0,,2,,,74,127
48016,note_off,134,0,0,,2,,,74,127
48017,note_on,1,0,0,,10,,,69,127
48151,note_off,134,0,0,,10,,,69,127
48152,note_on,1,0,0,,12,,,71,127
48286,note_off,134,0,0,,12,,,71,127
48286,note_off,0,0,0,,2,,,50,127
48287,note_on,1,0,0,,4,,,52,127
48287,note_on,0,0,0,,0,,,72,127
48421,note_off,134,0,0,,0,,,72,127
48421,note_off,0,0,0,,4,,,52,127
48422,note_on,1,0,0,,2,,,50,127
48422,note_on,0,0,0,,2,,,74,127
48556,note_off,134,0,0,,2,,,74,127
48556,note_off,0,0,0,,2,,,50,127
48557,note_on,1,0,0,,0,,,48,127
48557,note_on,0,0,0,,4,,,76,127
48691,note_off,134,0,0,,4,,,76,127
48691,note_off,0,0,0,,0,,,48,127
48692,note_on,1,0,0,,2,,,50,127
48692,note_on,0,0,0,,7,,,67,127
48826,note_off,134,0,0,,2,,,50,127
48827,note_on,1,0,0,,10,,,57,127
48961,note_off,134,0,0,,10,,,57,127
48961,note_off,0,0,0,,7,,,67,127
48962,note_on,1,0,0,,0,,,60,127
48962,note_on,0,0,0,,6,,,66,127
49096,note_off,134,0,0,,0,,,60,127
49097,note_on,1,0,0,,4,,,52,127
49194,note_off,97,0,0,,6,,,66,127
49231,note_off,37,0,0,,4,,,52,127
49232,note_on,1,0,0,,7,,,55,127
49232,note_on,0,0,0,,0,,,72,127
49366,note_off,134,0,0,,0,,,72,127
49366,note_off,0,0,0,,7,,,55,127
49367,note_on,1,0,0,,0,,,60,127
49367,note_on,0,0,0,,10,,,69,127
49501,note_off,134,0,0,,10,,,69,127
49501,note_off,0,0,0,,0,,,60,127
49502,note_on,1,0,0,,2,,,50,127
49502,note_on,0,0,0,,7,,,67,127
49636,note_off,134,0,0,,2,,,50,127
49637,note_on,1,0,0,,10,,,57,127
49771,note_off,134,0,0,,10,,,57,127
49771,note_off,0,0,0,,7,,,67,127
49772,note_on,1,0,0,,0,,,60,127
49772,note_on,0,0,0,,6,,,66,127
49906,note_off,134,0,0,,0,,,60,127
49907,note_on,1,0,0,,4,,,52,127
50004,note_off,97,0,0,,6,,,66,127
50041,note_off,37,0,0,,4,,,52,127
50042,note_on,1,0,0,,7,,,55,127
50042,note_on,0,0,0,,4,,,76,127
50176,note_off,134,0,0,,4,,,76,127
50176,note_off,0,0,0,,7,,,55,127
50177,note_on,1,0,0,,0,,,60,127
50177,note_on,0,0,0,,0,,,72,127
50311,note_off,134,0,0,,0,,,72,127
50311,note_off,0,0,0,,0,,,60,127
50312,note_on,1,0,0,,2,,,50,127
50312,note_on,0,0,0,,7,,,67,127
50446,note_off,134,0,0,,2,,,50,127
50447,note_on,1,0,0,,10,,,57,127
50581,note_off,134,0,0,,10,,,57,127
50581,note_off,0,0,0,,7,,,67,127
50582,note_on,1,0,0,,0,,,60,127
50582,note_on,0,0,0,,6,,,66,127
50716,note_off,134,0,0,,0,,,60,127
50717,note_on,1,0,0,,4,,,52,127
50814,note_off,97,0,0,,6,,,66,127
50851,note_off,37,0,0,,4,,,52,127
50852,note_on,1,0,0,,7,,,55,127
50852,note_on,0,0,0,,10,,,81,127
50986,note_off,134,0,0,,10,,,81,127
50986,note_off,0,0,0,,7,,,55,127
50987,note_on,1,0,0,,0,,,60,127
50987,note_on,0,0,0,,0,,,72,127
51121,note_off,134,0,0,,0,,,72,127
51121,note_off,0,0,0,,0,,,60,127
51122,note_on,1,0,0,,2,,,50,127
51122,note_on,0,0,0,,6,,,66,127
51256,note_off,134,0,0,,6,,,66,127
51256,note_off,0,0,0,,2,,,50,127
51257,note_on,1,0,0,,10,,,57,127
51257,note_on,0,0,0,,10,,,81,127
51391,note_off,134,0,0,,10,,,81,127
51391,note_off,0,0,0,,10,,,57,127
51392,note_on,1,0,0,,0,,,60,127
51392,note_on,0,0,0,,0,,,72,127
51526,note_off,134,0,0,,0,,,72,127
51526,note_off,0,0,0,,0,,,60,127
51527,note_on,1,0,0,,4,,,52,127
51527,note_on,0,0,0,,6,,,66,127
51661,note_off,134,0,0,,6,,,66,127
51661,note_off,0,0,0,,4,,,52,127
51662,note_on,1,0,0,,7,,,55,127
51662,note_on,0,0,0,,10,,,81,127
51796,note_off,134,0,0,,10,,,81,127
51796,note_off,0,0,0,,7,,,55,127
51797,note_on,1,0,0,,0,,,60,127
51797,note_on,0,0,0,,0,,,72,127
51931,note_off,134,0,0,,0,,,72,127
51931,note_off,0,0,0,,0,,,60,127
51932,note_on,1,0,0,,2,,,50,127
51932,note_on,0,0,0,,6,,,66,127
52066,note_off,134,0,0,,2,,,50,127
52067,note_on,1,0,0,,4,,,52,127
52201,note_off,134,0,0,,4,,,52,127
52201,note_off,0,0,0,,6,,,66,127
52202,note_on,1,0,0,,6,,,54,127
52202,note_on,0,0,0,,0,,,84,127
52336,note_off,134,0,0,,0,,,84,127
52336,note_off,0,0,0,,6,,,54,127
52337,note_on,1,0,0,,7,,,55,127
52337,note_on,0,0,0,,12,,,83,127
52471,note_off,134,0,0,,12,,,83,127
52472,note_on,1,0,0,,7,,,79,127
52606,note_off,134,0,0,,7,,,79,127
52606,note_off,0,0,0,,7,,,55,127
52607,note_on,1,0,0,,12,,,47,127
52607,note_on,0,0,0,,2,,,74,127
52741,note_off,134,0,0,,2,,,74,127
52741,note_off,0,0,0,,12,,,47,127
52742,note_on,1,0,0,,0,,,48,127
52742,note_on,0,0,0,,4,,,76,127
52876,note_off,134,0,0,,4,,,76,127
52877,note_on,1,0,0,,2,,,74,127
53011,note_off,134,0,0,,2,,,74,127
53011,note_off,0,0,0,,0,,,48,127
53012,note_on,1,0,0,,4,,,52,127
53012,note_on,0,0,0,,0,,,72,127
53146,note_off,134,0,0,,0,,,72,127
53146,note_off,0,0,0,,4,,,52,127
53147,note_on,1,0,0,,2,,,50,127
53147,note_on,0,0,0,,12,,,71,127
53281,note_off,134,0,0,,12,,,71,127
53282,note_on,1,0,0,,10,,,69,127
53415,note_off,133,0,0,,2,,,50,127
53416,note_off,1,0,0,,10,,,69,127
53417,note_on,1,0,0,,7,,,67,127
53551,note_off,134,0,0,,7,,,67,127
53552,note_on,1,0,0,,2,,,50,127
53552,note_on,0,0,0,,7,,,67,127
53686,note_off,134,0,0,,2,,,50,127
53687,note_on,1,0,0,,10,,,57,127
53821,note_off,134,0,0,,10,,,57,127
53821,note_off,0,0,0,,7,,,67,127
53822,note_on,1,0,0,,0,,,60,127
53822,note_on,0,0,0,,6,,,66,127
53956,note_off,134,0,0,,0,,,60,127
53957,note_on,1,0,0,,4,,,52,127
54033,note_off,76,0,0,,6,,,66,127
54091,note_off,58,0,0,,4,,,52,127
54092,note_on,1,0,0,,7,,,55,127
54092,note_on,0,0,0,,0,,,72,127
54226,note_off,134,0,0,,0,,,72,127
54226,note_off,0,0,0,,7,,,55,127
54227,note_on,1,0,0,,0,,,60,127
54227,note_on,0,0,0,,10,,,69,127
54361,note_off,134,0,0,,10,,,69,127
54361,note_off,0,0,0,,0,,,60,127
54362,note_on,1,0,0,,2,,,50,127
54362,note_on,0,0,0,,7,,,67,127
54496,note_off,134,0,0,,2,,,50,127
54497,note_on,1,0,0,,10,,,57,127
54631,note_off,134,0,0,,10,,,57,127
54631,note_off,0,0,0,,7,,,67,127
54632,note_on,1,0,0,,0,,,60,127
54632,note_on,0,0,0,,6,,,66,127
54766,note_off,134,0,0,,0,,,60,127
54767,note_on,1,0,0,,4,,,52,127
54843,note_off,76,0,0,,6,,,66,127
54901,note_off,58,0,0,,4,,,52,127
54902,note_on,1,0,0,,7,,,55,127
54902,note_on,0,0,0,,4,,,76,127
55036,note_off,134,0,0,,4,,,76,127
55036,note_off,0,0,0,,7,,,55,127
55037,note_on,1,0,0,,0,,,60,127
55037,note_on,0,0,0,,0,,,72,127
55171,note_off,134,0,0,,0,,,72,127
55171,note_off,0,0,0,,0,,,60,127
55172,note_on,1,0,0,,2,,,50,127
55172,note_on,0,0,0,,7,,,67,127
55306,note_off,134,0,0,,2,,,50,127
55307,note_on,1,0,0,,10,,,57,127
55441,note_off,134,0,0,,10,,,57,127
55441,note_off,0,0,0,,7,,,67,127
55442,note_on,1,0,0,,0,,,60,127
55442,note_on,0,0,0,,6,,,66,127
55576,note_off,134,0,0,,0,,,60,127
55577,note_on,1,0,0,,4,,,52,127
55653,note_off,76,0,0,,6,,,66,127
55711,note_off,58,0,0,,4,,,52,127
55712,note_on,1,0,0,,7,,,55,127
55712,note_on,0,0,0,,10,,,81,127
55846,note_off,134,0,0,,10,,,81,127
55846,note_off,0,0,0,,7,,,55,127
55847,note_on,1,0,0,,0,,,60,127
55847,note_on,0,0,0,,0,,,72,127
55981,note_off,134,0,0,,0,,,72,127
55981,note_off,0,0,0,,0,,,60,127
55982,note_on,1,0,0,,2,,,50,127
55982,note_on,0,0,0,,6,,,66,127
56116,note_off,134,0,0,,6,,,66,127
56116,note_off,0,0,0,,2,,,50,127
56117,note_on,1,0,0,,10,,,57,127
56117,note_on,0,0,0,,10,,,81,127
56251,note_off,134,0,0,,10,,,81,127
56251,note_off,0,0,0,,10,,,57,127
56252,note_on,1,0,0,,0,,,60,127
56252,note_on,0,0,0,,0,,,72,127
56386,note_off,134,0,0,,0,,,72,127
56386,note_off,0,0,0,,0,,,60,127
56387,note_on,1,0,0,,4,,,52,127
56387,note_on,0,0,0,,6,,,66,127
56521,note_off,134,0,0,,6,,,66,127
56521,note_off,0,0,0,,4,,,52,127
56522,note_on,1,0,0,,7,,,55,127
56522,note_on,0,0,0,,10,,,81,127
56656,note_off,134,0,0,,10,,,81,127
56656,note_off,0,0,0,,7,,,55,127
56657,note_on,1,0,0,,0,,,60,127
56657,note_on,0,0,0,,0,,,72,127
56791,note_off,134,0,0,,0,,,72,127
56791,note_off,0,0,0,,0,,,60,127
56792,note_on,1,0,0,,2,,,50,127
56792,note_on,0,0,0,,6,,,66,127
56926,note_off,134,0,0,,2,,,50,127
56927,note_on,1,0,0,,4,,,52,127
57061,note_off,134,0,0,,4,,,52,127
57061,note_off,0,0,0,,6,,,66,127
57062,note_on,1,0,0,,6,,,54,127
57062,note_on,0,0,0,,0,,,84,127
57196,note_off,134,0,0,,0,,,84,127
57196,note_off,0,0,0,,6,,,54,127
57197,note_on,1,0,0,,7,,,55,127
57197,note_on,0,0,0,,12,,,83,127
57331,note_off,134,0,0,,12,,,83,127
57332,note_on,1,0,0,,7,,,79,127
57466,note_off,134,0,0,,7,,,79,127
57466,note_off,0,0,0,,7,,,55,127
57467,note_on,1,0,0,,12,,,47,127
57467,note_on,0,0,0,,2,,,74,127
57601,note_off,134,0,0,,2,,,74,127
57601,note_off,0,0,0,,12,,,47,127
57602,note_on,1,0,0,,0,,,48,127
57602,note_on,0,0,0,,4,,,76,127
57736,note_off,134,0,0,,4,,,76,127
57737,note_on,1,0,0,,2,,,74,127
57871,note_off,134,0,0,,2,,,74,127
57871,note_off,0,0,0,,0,,,48,127
57872,note_on,1,0,0,,4,,,52,127
57872,note_on,0,0,0,,0,,,72,127
58006,note_off,134,0,0,,0,,,72,127
58006,note_off,0,0,0,,4,,,52,127
58007,note_on,1,0,0,,2,,,50,127
58007,note_on,0,0,0,,12,,,71,127
58141,note_off,134,0,0,,12,,,71,127
58142,note_on,1,0,0,,0,,,72,127
58276,note_off,134,0,0,,0,,,72,127
58277,note_on,1,0,0,,2,,,38,127
58277,note_on,0,0,0,,10,,,69,127
58411,note_off,134,0,0,,10,,,69,127
58411,note_off,0,0,0,,2,,,38,127
58412,note_off,1,0,0,,2,,,50,127
58413,note_on,1,0,0,,7,,,55,127
58413,note_on,0,0,0,,7,,,67,127
58547,note_off,134,0,0,,7,,,55,127
58548,note_on,1,0,0,,10,,,57,127
58682,note_off,134,0,0,,10,,,57,127
58682,note_off,0,0,0,,7,,,67,127
58683,note_on,1,0,0,,12,,,59,127
58683,note_on,0,0,0,,2,,,74,127
58817,note_off,134,0,0,,2,,,74,127
58817,note_off,0,0,0,,12,,,59,127
58818,note_on,1,0,0,,0,,,60,127
58818,note_on,0,0,0,,4,,,76,127
58952,note_off,134,0,0,,0,,,60,127
58953,note_on,1,0,0,,0,,,48,127
59087,note_off,134,0,0,,0,,,48,127
59087,note_off,0,0,0,,4,,,76,127
59088,note_on,1,0,0,,10,,,57,127
59088,note_on,0,0,0,,0,,,84,127
59222,note_off,134,0,0,,0,,,84,127
59222,note_off,0,0,0,,10,,,57,127
59223,note_on,1,0,0,,12,,,59,127
59223,note_on,0,0,0,,2,,,74,127
59357,note_off,134,0,0,,12,,,59,127
59358,note_on,1,0,0,,12,,,47,127
59492,note_off,134,0,0,,12,,,47,127
59492,note_off,0,0,0,,2,,,74,127
59493,note_on,1,0,0,,7,,,55,127
59493,note_on,0,0,0,,12,,,83,127
59627,note_off,134,0,0,,12,,,83,127
59627,note_off,0,0,0,,7,,,55,127
59628,note_on,1,0,0,,10,,,57,127
59628,note_on,0,0,0,,0,,,72,127
59762,note_off,134,0,0,,10,,,57,127
59763,note_on,1,0,0,,10,,,45,127
59897,note_off,134,0,0,,10,,,45,127
59897,note_off,0,0,0,,0,,,72,127
59898,note_on,1,0,0,,6,,,54,127
59898,note_on,0,0,0,,10,,,81,127
60032,note_off,134,0,0,,10,,,81,127
60032,note_off,0,0,0,,6,,,54,127
60034,note_on,2,0,0,,12,,,71,127
60034,note_on,0,0,0,,7,,,55,127
60169,note_off,135,0,0,,7,,,55,127
60173,note_on,4,0,0,,10,,,57,127
60306,note_off,133,0,0,,12,,,71,127
60307,note_off,1,0,0,,10,,,57,127
60311,note_on,4,0,0,,2,,,74,127
60311,note_on,0,0,0,,12,,,59,127
60446,note_off,135,0,0,,12,,,59,127
60446,note_off,0,0,0,,2,,,74,127
60450,note_on,4,0,0,,4,,,76,127
60450,note_on,0,0,0,,0,,,60,127
60585,note_off,135,0,0,,0,,,60,127
60589,note_on,4,0,0,,0,,,48,127
60722,note_off,133,0,0,,4,,,76,127
60723,note_off,1,0,0,,0,,,48,127
60727,note_on,4,0,0,,0,,,84,127
60727,note_on,0,0,0,,10,,,57,127
60862,note_off,135,0,0,,10,,,57,127
60862,note_off,0,0,0,,0,,,84,127
60865,note_on,3,0,0,,2,,,74,127
60865,note_on,0,0,0,,12,,,59,127
61000,note_off,135,0,0,,12,,,59,127
61004,note_on,4,0,0,,12,,,47,127
61137,note_off,133,0,0,,2,,,74,127
61138,note_off,1,0,0,,12,,,47,127
61142,note_on,4,0,0,,12,,,83,127
61142,note_on,0,0,0,,7,,,55,127
61277,note_off,135,0,0,,7,,,55,127
61277,note_off,0,0,0,,12,,,83,127
61281,note_on,4,0,0,,0,,,72,127
61281,note_on,0,0,0,,10,,,57,127
61416,note_off,135,0,0,,10,,,57,127
61420,note_on,4,0,0,,10,,,45,127
61553,note_off,133,0,0,,0,,,72,127
61554,note_off,1,0,0,,10,,,45,127
61558,note_on,4,0,0,,10,,,81,127
61558,note_on,0,0,0,,6,,,54,127
61693,note_off,135,0,0,,6,,,54,127
61693,note_off,0,0,0,,10,,,81,127
61699,note_on,6,0,0,,0,,,48,127
61699,note_on,0,0,0,,12,,,71,127
61756,note_on,57,0,0,,12,,,47,127
61765,note_off,9,0,0,,0,,,48,127
61814,note_on,49,0,0,,0,,,48,127
61822,note_off,8,0,0,,12,,,47,127
61873,note_on,51,0,0,,12,,,47,127
61880,note_off,7,0,0,,0,,,48,127
61931,note_on,51,0,0,,10,,,45,127
61939,note_off,8,0,0,,12,,,47,127
61982,note_off,43,0,0,,12,,,71,127
61987,note_off,5,0,0,,10,,,45,127
61991,note_on,4,0,0,,7,,,43,127
61991,note_on,0,0,0,,2,,,74,127
61991,note_on,0,0,0,,12,,,83,127
62132,note_off,141,0,0,,12,,,83,127
62132,note_off,0,0,0,,2,,,74,127
62132,note_off,0,0,0,,7,,,43,127
62137,note_on,5,0,0,,0,,,48,127
62137,note_on,0,0,0,,0,,,72,127
62137,note_on,0,0,0,,10,,,81,127
62278,note_off,141,0,0,,10,,,81,127
62278,note_off,0,0,0,,0,,,72,127
62284,note_on,6,0,0,,12,,,71,127
62284,note_on,0,0,0,,7,,,79,127
62421,note_off,137,0,0,,0,,,48,127
62425,note_off,4,0,0,,7,,,79,127
62425,note_off,0,0,0,,12,,,71,127
62430,note_on,5,0,0,,2,,,50,127
62430,note_on,0,0,0,,10,,,69,127
62430,note_on,0,0,0,,6,,,78,127
62571,note_off,141,0,0,,6,,,78,127
62571,note_off,0,0,0,,10,,,69,127
62571,note_off,0,0,0,,2,,,50,127
62576,note_on,5,0,0,,0,,,48,127
62576,note_on,0,0,0,,12,,,71,127
62576,note_on,0,0,0,,7,,,79,127
62632,note_on,56,0,0,,12,,,47,127
62642,note_off,10,0,0,,0,,,48,127
62689,note_on,47,0,0,,0,,,48,127
62699,note_off,10,0,0,,12,,,47,127
62745,note_on,46,0,0,,12,,,47,127
62756,note_off,11,0,0,,0,,,48,127
62802,note_on,46,0,0,,10,,,45,127
62812,note_off,10,0,0,,12,,,47,127
62861,note_off,49,0,0,,7,,,79,127
62861,note_off,0,0,0,,12,,,71,127
62865,note_off,4,0,0,,10,,,45,127
62870,note_on,5,0,0,,7,,,43,127
62870,note_on,0,0,0,,2,,,74,127
62870,note_on,0,0,0,,12,,,83,127
63011,note_off,141,0,0,,12,,,83,127
63011,note_off,0,0,0,,2,,,74,127
63011,note_off,0,0,0,,7,,,43,127
63016,note_on,5,0,0,,0,,,48,127
63016,note_on,0,0,0,,0,,,72,127
63016,note_on,0,0,0,,10,,,81,127
63157,note_off,141,0,0,,10,,,81,127
63157,note_off,0,0,0,,0,,,72,127
63163,note_on,6,0,0,,7,,,79,127
63163,note_on,0,0,0,,12,,,71,127
63300,note_off,137,0,0,,0,,,48,127
63304,note_off,4,0,0,,12,,,71,127
63304,note_off,0,0,0,,7,,,79,127
63309,note_on,5,0,0,,2,,,50,127
63309,note_on,0,0,0,,6,,,78,127
63309,note_on,0,0,0,,10,,,69,127
63450,note_off,141,0,0,,10,,,69,127
63450,note_off,0,0,0,,6,,,78,127
63450,note_off,0,0,0,,2,,,50,127
63463,note_on,13,0,0,,0,,,48,127
63463,note_on,0,0,0,,12,,,71,127
63463,note_on,0,0,0,,7,,,79,127
63509,note_on,46,0,0,,12,,,47,127
63534,note_off,25,0,0,,0,,,48,127
63556,note_on,22,0,0,,0,,,48,127
63569,note_off,13,0,0,,12,,,47,127
63602,note_on,33,0,0,,12,,,47,127
63616,note_off,14,0,0,,0,,,48,127
63617,note_off,1,0,0,,7,,,79,127
63617,note_off,0,0,0,,12,,,71,127
63649,note_on,32,0,0,,10,,,81,127
63649,note_on,0,0,0,,0,,,72,127
63649,note_on,0,0,0,,10,,,45,127
63653,note_off,4,0,0,,12,,,47,127
63780,note_off,127,0,0,,10,,,45,127
63784,note_on,4,0,0,,7,,,43,127
63784,note_on,0,0,0,,2,,,74,127
63784,note_on,0,0,0,,12,,,83,127
63804,note_off,20,0,0,,0,,,72,127
63804,note_off,0,0,0,,10,,,81,127
63939,note_off,135,0,0,,12,,,83,127
63939,note_off,0,0,0,,2,,,74,127
63939,note_off,0,0,0,,7,,,43,127
63947,note_on,8,0,0,,0,,,48,127
63947,note_on,0,0,0,,0,,,36,127
63947,note_on,0,0,0,,0,,,72,127
63947,note_on,0,0,0,,10,,,81,127
64102,note_off,155,0,0,,10,,,81,127
64102,note_off,0,0,0,,0,,,72,127
64108,note_on,6,0,0,,12,,,71,127
64108,note_on,0,0,0,,7,,,79,127
64260,note_off,152,0,0,,0,,,36,127
64260,note_off,0,0,0,,0,,,48,127
64263,note_off,3,0,0,,7,,,79,127
64263,note_off,0,0,0,,12,,,71,127
64269,note_on,6,0,0,,2,,,38,127
64269,note_on,0,0,0,,2,,,50,127
64269,note_on,0,0,0,,6,,,78,127
64269,note_on,0,0,0,,10,,,69,127
64424,note_off,155,0,0,,2,,,50,127
64424,note_off,0,0,0,,2,,,38,127
64456,note_off,32,0,0,,10,,,69,127
64456,note_off,0,0,0,,6,,,78,127
64467,note_on,11,0,0,,6,,,78,127
64467,note_on,0,0,0,,7,,,67,127
64467,note_on,0,0,0,,7,,,43,127
65000,note_off,533,0,0,,6,,,78,127
65001,note_on,1,0,0,,7,,,79,127
66340,note_off,1339,0,0,,7,,,79,127
66340,note_off,0,0,0,,7,,,43,127
66340,note_off,0,0,0,,7,,,67,127
70656,end_of_track,4316,1,0,,,,,,
