tick,type,time,meta,track,program,channel,pitch,tempo,note,velocity
0,copyright,0,1,0,,,,,,
0,program_change,0,0,0,6,0,,,,
0,pitchwheel,0,0,0,,0,0,,,
0,program_change,0,0,0,6,1,,,,
0,pitchwheel,0,0,0,,1,-590,,,
0,program_change,0,0,0,6,2,,,,
0,pitchwheel,0,0,0,,2,-272,,,
0,program_change,0,0,0,6,3,,,,
0,pitchwheel,0,0,0,,3,-353,,,
0,program_change,0,0,0,6,4,,,,
0,pitchwheel,0,0,0,,4,-560,,,
0,program_change,0,0,0,6,5,,,,
0,pitchwheel,0,0,0,,5,-80,,,
0,program_change,0,0,0,6,6,,,,
0,pitchwheel,0,0,0,,6,-625,,,
0,program_change,0,0,0,6,7,,,,
0,pitchwheel,0,0,0,,7,-130,,,
0,program_change,0,0,0,6,8,,,,
0,pitchwheel,0,0,0,,8,-512,,,
0,program_change,0,0,0,6,10,,,,
0,pitchwheel,0,0,0,,10,-464,,,
0,program_change,0,0,0,6,11,,,,
0,pitchwheel,0,0,0,,11,-208,,,
0,program_change,0,0,0,6,12,,,,
0,pitchwheel,0,0,0,,12,-553,,,
0,set_tempo,0,1,0,,,,500000,,
110,note_on,110,0,0,,0,,,84,127
329,note_on,219,0,0,,7,,,79,127
361,note_off,32,0,0,,0,,,84,127
523,note_off,162,0,0,,7,,,79,127
548,note_on,25,0,0,,5,,,77,127
603,note_on,55,0,0,,4,,,76,127
620,note_off,17,0,0,,5,,,77,127
658,note_on,38,0,0,,5,,,77,127
675,note_off,17,0,0,,4,,,76,127
713,note_on,38,0,0,,4,,,76,127
730,note_off,17,0,0,,5,,,77,127
768,note_on,38,0,0,,5,,,77,127
785,note_off,17,0,0,,4,,,76,127
823,note_on,38,0,0,,4,,,76,127
840,note_off,17,0,0,,5,,,77,127
878,note_on,38,0,0,,5,,,77,127
895,note_off,17,0,0,,4,,,76,127
933,note_on,38,0,0,,4,,,76,127
950,note_off,17,0,0,,5,,,77,127
997,note_on,47,0,0,,7,,,79,127
1002,note_off,5,0,0,,4,,,76,127
1216,note_off,214,0,0,,7,,,79,127
1217,note_on,1,0,0,,4,,,76,127
1411,note_off,194,0,0,,4,,,76,127
1436,note_on,25,0,0,,0,,,72,127
1654,note_off,218,0,0,,0,,,72,127
1655,note_on,1,0,0,,7,,,67,127
1873,note_off,218,0,0,,7,,,67,127
1874,note_on,1,0,0,,7,,,67,127
2092,note_off,218,0,0,,7,,,67,127
2093,note_on,1,0,0,,10,,,69,127
2202,note_off,109,0,0,,10,,,69,127
2203,note_on,1,0,0,,12,,,71,127
2312,note_off,109,0,0,,12,,,71,127
2313,note_on,1,0,0,,0,,,72,127
2422,note_off,109,0,0,,0,,,72,127
2423,note_on,1,0,0,,2,,,74,127
2532,note_off,109,0,0,,2,,,74,127
2533,note_on,1,0,0,,4,,,76,127
2642,note_off,109,0,0,,4,,,76,127
2643,note_on,1,0,0,,5,,,77,127
2752,note_off,109,0,0,,5,,,77,127
2753,note_on,1,0,0,,7,,,79,127
2862,note_off,109,0,0,,7,,,79,127
2863,note_on,1,0,0,,4,,,76,127
2972,note_off,109,0,0,,4,,,76,127
2973,note_on,1,0,0,,5,,,77,127
3082,note_off,109,0,0,,5,,,77,127
3083,note_on,1,0,0,,2,,,74,127
3192,note_off,109,0,0,,2,,,74,127
3193,note_on,1,0,0,,2,,,74,127
3411,note_off,218,0,0,,2,,,74,127
3412,note_on,1,0,0,,4,,,76,127
3606,note_off,194,0,0,,4,,,76,127
3631,note_on,25,0,0,,4,,,76,127
3631,note_on,0,0,0,,0,,,72,127
3849,note_off,218,0,0,,0,,,72,127
3849,note_off,0,0,0,,4,,,76,127
3850,note_on,1,0,0,,2,,,74,127
3850,note_on,0,0,0,,7,,,67,127
4056,note_off,206,0,0,,7,,,67,127
4069,note_off,13,0,0,,2,,,74,127
4070,note_on,1,0,0,,0,,,72,127
4070,note_on,0,0,0,,4,,,64,127
4179,note_off,109,0,0,,0,,,72,127
4180,note_on,1,0,0,,12,,,71,127
4289,note_off,109,0,0,,12,,,71,127
4289,note_off,0,0,0,,4,,,64,127
4290,note_on,1,0,0,,0,,,72,127
4290,note_on,0,0,0,,4,,,64,127
4399,note_off,109,0,0,,0,,,72,127
4400,note_on,1,0,0,,2,,,74,127
4509,note_off,109,0,0,,2,,,74,127
4509,note_off,0,0,0,,4,,,64,127
4510,note_on,1,0,0,,0,,,72,127
4510,note_on,0,0,0,,7,,,67,127
4728,note_off,218,0,0,,7,,,67,127
4728,note_off,0,0,0,,0,,,72,127
4729,note_on,1,0,0,,2,,,74,127
4729,note_on,0,0,0,,4,,,64,127
4935,note_off,206,0,0,,4,,,64,127
4948,note_off,13,0,0,,2,,,74,127
4949,note_on,1,0,0,,4,,,76,127
4949,note_on,0,0,0,,0,,,60,127
5058,note_off,109,0,0,,4,,,76,127
5059,note_on,1,0,0,,2,,,74,127
5168,note_off,109,0,0,,2,,,74,127
5168,note_off,0,0,0,,0,,,60,127
5169,note_on,1,0,0,,4,,,76,127
5169,note_on,0,0,0,,7,,,55,127
5278,note_off,109,0,0,,4,,,76,127
5279,note_on,1,0,0,,5,,,77,127
5388,note_off,109,0,0,,5,,,77,127
5388,note_off,0,0,0,,7,,,55,127
5389,note_on,1,0,0,,7,,,79,127
5389,note_on,0,0,0,,7,,,55,127
5607,note_off,218,0,0,,7,,,55,127
5608,note_on,1,0,0,,10,,,57,127
5717,note_off,109,0,0,,10,,,57,127
5718,note_on,1,0,0,,12,,,59,127
5827,note_off,109,0,0,,12,,,59,127
5828,note_on,1,0,0,,0,,,60,127
5937,note_off,109,0,0,,0,,,60,127
5938,note_on,1,0,0,,2,,,62,127
6047,note_off,109,0,0,,2,,,62,127
6048,note_on,1,0,0,,4,,,64,127
6157,note_off,109,0,0,,4,,,64,127
6158,note_on,1,0,0,,5,,,65,127
6267,note_off,109,0,0,,5,,,65,127
6268,note_on,1,0,0,,7,,,67,127
6377,note_off,109,0,0,,7,,,67,127
6378,note_on,1,0,0,,4,,,64,127
6487,note_off,109,0,0,,4,,,64,127
6487,note_off,0,0,0,,7,,,79,127
6488,note_on,1,0,0,,12,,,71,127
6488,note_on,0,0,0,,5,,,65,127
6597,note_off,109,0,0,,5,,,65,127
6598,note_on,1,0,0,,2,,,62,127
6707,note_off,109,0,0,,2,,,62,127
6707,note_off,0,0,0,,12,,,71,127
6708,note_on,1,0,0,,0,,,72,127
6708,note_on,0,0,0,,4,,,64,127
6817,note_off,109,0,0,,0,,,72,127
6818,note_on,1,0,0,,12,,,71,127
6927,note_off,109,0,0,,12,,,71,127
6928,note_on,1,0,0,,0,,,72,127
7037,note_off,109,0,0,,0,,,72,127
7038,note_on,1,0,0,,2,,,74,127
7147,note_off,109,0,0,,2,,,74,127
7148,note_on,1,0,0,,4,,,76,127
7257,note_off,109,0,0,,4,,,64,127
7267,note_on,10,0,0,,7,,,67,127
7268,note_off,1,0,0,,4,,,76,127
7375,note_off,107,0,0,,7,,,67,127
7376,note_on,1,0,0,,7,,,67,127
7376,note_on,0,0,0,,4,,,64,127
7485,note_off,109,0,0,,4,,,64,127
7486,note_on,1,0,0,,0,,,60,127
7595,note_off,109,0,0,,0,,,60,127
7595,note_off,0,0,0,,7,,,67,127
7596,note_on,1,0,0,,10,,,69,127
7596,note_on,0,0,0,,5,,,53,127
7705,note_off,109,0,0,,10,,,69,127
7706,note_on,1,0,0,,7,,,67,127
7815,note_off,109,0,0,,7,,,67,127
7816,note_on,1,0,0,,10,,,69,127
7925,note_off,109,0,0,,10,,,69,127
7926,note_on,1,0,0,,0,,,72,127
8035,note_off,109,0,0,,0,,,72,127
8036,note_on,1,0,0,,5,,,77,127
8145,note_off,109,0,0,,5,,,53,127
8146,note_on,1,0,0,,5,,,65,127
8255,note_off,109,0,0,,5,,,65,127
8255,note_off,0,0,0,,5,,,77,127
8256,note_on,1,0,0,,10,,,69,127
8256,note_on,0,0,0,,2,,,62,127
8365,note_off,109,0,0,,2,,,62,127
8366,note_on,1,0,0,,12,,,59,127
8475,note_off,109,0,0,,12,,,59,127
8475,note_off,0,0,0,,10,,,69,127
8476,note_on,1,0,0,,7,,,67,127
8476,note_on,0,0,0,,4,,,52,127
8585,note_off,109,0,0,,7,,,67,127
8586,note_on,1,0,0,,5,,,65,127
8695,note_off,109,0,0,,5,,,65,127
8696,note_on,1,0,0,,7,,,67,127
8805,note_off,109,0,0,,7,,,67,127
8806,note_on,1,0,0,,0,,,72,127
8915,note_off,109,0,0,,0,,,72,127
8916,note_on,1,0,0,,4,,,76,127
9025,note_off,109,0,0,,4,,,52,127
9026,note_on,1,0,0,,4,,,64,127
9135,note_off,109,0,0,,4,,,64,127
9135,note_off,0,0,0,,4,,,76,127
9136,note_on,1,0,0,,7,,,67,127
9136,note_on,0,0,0,,0,,,60,127
9245,note_off,109,0,0,,0,,,60,127
9246,note_on,1,0,0,,10,,,57,127
9355,note_off,109,0,0,,10,,,57,127
9355,note_off,0,0,0,,7,,,67,127
9356,note_on,1,0,0,,5,,,65,127
9356,note_on,0,0,0,,2,,,50,127
9465,note_off,109,0,0,,5,,,65,127
9466,note_on,1,0,0,,4,,,64,127
9575,note_off,109,0,0,,4,,,64,127
9576,note_on,1,0,0,,5,,,65,127
9685,note_off,109,0,0,,5,,,65,127
9686,note_on,1,0,0,,12,,,71,127
9795,note_off,109,0,0,,12,,,71,127
9796,note_on,1,0,0,,2,,,74,127
9905,note_off,109,0,0,,2,,,50,127
9906,note_on,1,0,0,,2,,,62,127
10015,note_off,109,0,0,,2,,,62,127
10015,note_off,0,0,0,,2,,,74,127
10016,note_on,1,0,0,,5,,,65,127
10016,note_on,0,0,0,,12,,,59,127
10125,note_off,109,0,0,,12,,,59,127
10126,note_on,1,0,0,,7,,,55,127
10235,note_off,109,0,0,,7,,,55,127
10235,note_off,0,0,0,,5,,,65,127
10236,note_on,1,0,0,,4,,,64,127
10236,note_on,0,0,0,,0,,,60,127
10345,note_off,109,0,0,,0,,,60,127
10346,note_on,1,0,0,,7,,,55,127
10455,note_off,109,0,0,,7,,,55,127
10455,note_off,0,0,0,,4,,,64,127
10456,note_on,1,0,0,,4,,,52,127
10461,note_on,5,0,0,,7,,,67,127
10565,note_off,104,0,0,,4,,,52,127
10566,note_on,1,0,0,,0,,,48,127
10675,note_off,109,0,0,,0,,,48,127
10680,note_off,5,0,0,,7,,,67,127
10688,note_on,8,0,0,,0,,,36,127
10688,note_on,0,0,0,,0,,,72,127
10939,note_on,251,0,0,,4,,,76,127
10942,note_off,3,0,0,,0,,,72,127
11125,note_off,183,0,0,,0,,,36,127
11157,note_off,32,0,0,,4,,,76,127
11163,note_on,6,0,0,,4,,,76,127
11381,note_off,218,0,0,,4,,,76,127
11384,note_on,3,0,0,,0,,,60,127
11384,note_on,0,0,0,,10,,,69,127
11384,note_on,0,0,0,,4,,,76,127
11602,note_off,218,0,0,,4,,,76,127
11602,note_off,0,0,0,,10,,,69,127
11602,note_off,0,0,0,,0,,,60,127
11603,note_on,1,0,0,,0,,,60,127
11603,note_on,0,0,0,,10,,,69,127
11603,note_on,0,0,0,,4,,,76,127
11821,note_off,218,0,0,,4,,,76,127
11821,note_off,0,0,0,,10,,,69,127
11821,note_off,0,0,0,,0,,,60,127
11822,note_on,1,0,0,,0,,,60,127
11822,note_on,0,0,0,,10,,,69,127
11822,note_on,0,0,0,,5,,,77,127
11931,note_off,109,0,0,,5,,,77,127
11932,note_on,1,0,0,,7,,,79,127
12041,note_off,109,0,0,,7,,,79,127
12042,note_on,1,0,0,,5,,,77,127
12042,note_on,0,0,0,,7,,,79,127
12151,note_off,109,0,0,,7,,,79,127
12151,note_off,0,0,0,,5,,,77,127
12152,note_off,1,0,0,,10,,,69,127
12152,note_off,0,0,0,,0,,,60,127
12152,note_on,0,0,0,,4,,,76,127
12261,note_off,109,0,0,,4,,,76,127
12262,note_on,1,0,0,,2,,,62,127
12262,note_on,0,0,0,,10,,,69,127
12262,note_on,0,0,0,,2,,,74,127
12480,note_off,218,0,0,,10,,,69,127
12480,note_off,0,0,0,,2,,,62,127
12481,note_on,1,0,0,,10,,,69,127
12481,note_on,0,0,0,,2,,,62,127
12699,note_off,218,0,0,,2,,,62,127
12699,note_off,0,0,0,,10,,,69,127
12699,note_off,0,0,0,,2,,,74,127
12700,note_on,1,0,0,,10,,,69,127
12700,note_on,0,0,0,,2,,,62,127
12700,note_on,0,0,0,,2,,,74,127
12918,note_off,218,0,0,,2,,,74,127
12919,note_on,1,0,0,,2,,,74,127
13029,note_off,110,0,0,,2,,,62,127
13029,note_off,0,0,0,,10,,,69,127
13138,note_off,109,0,0,,2,,,74,127
13139,note_on,1,0,0,,10,,,69,127
13139,note_on,0,0,0,,3,,,63,127
13139,note_on,0,0,0,,12,,,71,127
13357,note_off,218,0,0,,12,,,71,127
13357,note_off,0,0,0,,3,,,63,127
13357,note_off,0,0,0,,10,,,69,127
13358,note_on,1,0,0,,3,,,63,127
13358,note_on,0,0,0,,10,,,69,127
13358,note_on,0,0,0,,2,,,74,127
13413,note_on,55,0,0,,0,,,72,127
13430,note_off,17,0,0,,2,,,74,127
13468,note_on,38,0,0,,2,,,74,127
13485,note_off,17,0,0,,0,,,72,127
13523,note_on,38,0,0,,0,,,72,127
13540,note_off,17,0,0,,2,,,74,127
13577,note_off,37,0,0,,10,,,69,127
13577,note_off,0,0,0,,3,,,63,127
13578,note_on,1,0,0,,10,,,69,127
13578,note_on,0,0,0,,3,,,63,127
13578,note_on,0,0,0,,2,,,74,127
13595,note_off,17,0,0,,0,,,72,127
13633,note_on,38,0,0,,0,,,72,127
13650,note_off,17,0,0,,2,,,74,127
13688,note_on,38,0,0,,2,,,74,127
13705,note_off,17,0,0,,0,,,72,127
13743,note_on,38,0,0,,0,,,72,127
13760,note_off,17,0,0,,2,,,74,127
13797,note_off,37,0,0,,3,,,63,127
13797,note_off,0,0,0,,10,,,69,127
13798,note_on,1,0,0,,10,,,69,127
13798,note_on,0,0,0,,4,,,64,127
14016,note_off,218,0,0,,10,,,69,127
14017,note_on,1,0,0,,10,,,69,127
14072,note_on,55,0,0,,8,,,68,127
14089,note_off,17,0,0,,10,,,69,127
14127,note_on,38,0,0,,6,,,66,127
14144,note_off,17,0,0,,8,,,68,127
14234,note_off,90,0,0,,0,,,72,127
14235,note_off,1,0,0,,6,,,66,127
14235,note_off,0,0,0,,4,,,64,127
14236,note_on,1,0,0,,4,,,64,127
14236,note_on,0,0,0,,12,,,71,127
14454,note_off,218,0,0,,12,,,71,127
14473,note_on,19,0,0,,4,,,76,127
14673,note_off,200,0,0,,4,,,64,127
14691,note_off,18,0,0,,4,,,76,127
14692,note_on,1,0,0,,4,,,76,127
14911,note_on,219,0,0,,7,,,67,127
14911,note_on,0,0,0,,1,,,61,127
15129,note_off,218,0,0,,1,,,61,127
15129,note_off,0,0,0,,7,,,67,127
15130,note_on,1,0,0,,1,,,61,127
15130,note_on,0,0,0,,7,,,67,127
15348,note_off,218,0,0,,7,,,67,127
15348,note_off,0,0,0,,1,,,61,127
15348,note_off,0,0,0,,4,,,76,127
15349,note_on,1,0,0,,5,,,77,127
15349,note_on,0,0,0,,7,,,67,127
15349,note_on,0,0,0,,1,,,61,127
15458,note_off,109,0,0,,5,,,77,127
15459,note_on,1,0,0,,7,,,79,127
15568,note_off,109,0,0,,7,,,79,127
15569,note_on,1,0,0,,7,,,79,127
15569,note_on,0,0,0,,5,,,77,127
15678,note_off,109,0,0,,5,,,77,127
15678,note_off,0,0,0,,7,,,79,127
15679,note_off,1,0,0,,1,,,61,127
15679,note_off,0,0,0,,7,,,67,127
15679,note_on,0,0,0,,4,,,76,127
15788,note_off,109,0,0,,4,,,76,127
15789,note_on,1,0,0,,2,,,74,127
15789,note_on,0,0,0,,10,,,69,127
15789,note_on,0,0,0,,2,,,62,127
16007,note_off,218,0,0,,2,,,62,127
16007,note_off,0,0,0,,10,,,69,127
16008,note_on,1,0,0,,10,,,69,127
16008,note_on,0,0,0,,2,,,62,127
16226,note_off,218,0,0,,2,,,62,127
16226,note_off,0,0,0,,10,,,69,127
16226,note_off,0,0,0,,2,,,74,127
16227,note_on,1,0,0,,2,,,74,127
16227,note_on,0,0,0,,10,,,69,127
16227,note_on,0,0,0,,2,,,62,127
16445,note_off,218,0,0,,2,,,74,127
16446,note_on,1,0,0,,2,,,74,127
16556,note_off,110,0,0,,2,,,62,127
16556,note_off,0,0,0,,10,,,69,127
16665,note_off,109,0,0,,2,,,74,127
16666,note_on,1,0,0,,0,,,72,127
16666,note_on,0,0,0,,7,,,55,127
16666,note_on,0,0,0,,2,,,62,127
16666,note_on,0,0,0,,4,,,64,127
16884,note_off,218,0,0,,4,,,64,127
16884,note_off,0,0,0,,2,,,62,127
16884,note_off,0,0,0,,7,,,55,127
16884,note_off,0,0,0,,0,,,72,127
16885,note_on,1,0,0,,0,,,72,127
16885,note_on,0,0,0,,7,,,55,127
16885,note_on,0,0,0,,2,,,62,127
16885,note_on,0,0,0,,4,,,64,127
16940,note_on,55,0,0,,11,,,70,127
16957,note_off,17,0,0,,0,,,72,127
16995,note_on,38,0,0,,0,,,72,127
17012,note_off,17,0,0,,11,,,70,127
17050,note_on,38,0,0,,11,,,70,127
17067,note_off,17,0,0,,0,,,72,127
17104,note_off,37,0,0,,4,,,64,127
17104,note_off,0,0,0,,2,,,62,127
17104,note_off,0,0,0,,7,,,55,127
17105,note_on,1,0,0,,0,,,72,127
17105,note_on,0,0,0,,2,,,62,127
17105,note_on,0,0,0,,4,,,64,127
17105,note_on,0,0,0,,7,,,55,127
17122,note_off,17,0,0,,11,,,70,127
17160,note_on,38,0,0,,11,,,70,127
17177,note_off,17,0,0,,0,,,72,127
17215,note_on,38,0,0,,0,,,72,127
17232,note_off,17,0,0,,11,,,70,127
17270,note_on,38,0,0,,11,,,70,127
17287,note_off,17,0,0,,0,,,72,127
17324,note_off,37,0,0,,7,,,55,127
17324,note_off,0,0,0,,4,,,64,127
17324,note_off,0,0,0,,2,,,62,127
17325,note_on,1,0,0,,10,,,57,127
17544,note_off,219,0,0,,11,,,70,127
17544,note_on,0,0,0,,10,,,69,127
17782,note_on,238,0,0,,10,,,45,127
17873,note_off,91,0,0,,10,,,69,127
18019,note_on,146,0,0,,10,,,69,127
18201,note_off,182,0,0,,10,,,57,127
18219,note_off,18,0,0,,10,,,45,127
18237,note_off,18,0,0,,10,,,69,127
18238,note_on,1,0,0,,10,,,81,127
18348,note_on,110,0,0,,5,,,65,127
18457,note_off,109,0,0,,5,,,65,127
18457,note_off,0,0,0,,10,,,81,127
18458,note_on,1,0,0,,10,,,81,127
18458,note_on,0,0,0,,0,,,60,127
18567,note_off,109,0,0,,0,,,60,127
18568,note_on,1,0,0,,10,,,57,127
18677,note_off,109,0,0,,10,,,57,127
18677,note_off,0,0,0,,10,,,81,127
18678,note_on,1,0,0,,10,,,81,127
18678,note_on,0,0,0,,5,,,53,127
18787,note_off,109,0,0,,5,,,53,127
18788,note_on,1,0,0,,0,,,48,127
18897,note_off,109,0,0,,0,,,48,127
18897,note_off,0,0,0,,10,,,81,127
18898,note_on,1,0,0,,10,,,81,127
18898,note_on,0,0,0,,10,,,45,127
19007,note_off,109,0,0,,10,,,45,127
19008,note_on,1,0,0,,5,,,41,127
19117,note_off,109,0,0,,5,,,41,127
19117,note_off,0,0,0,,10,,,81,127
19118,note_on,1,0,0,,0,,,84,127
19118,note_on,0,0,0,,11,,,46,127
19118,note_on,0,0,0,,11,,,58,127
19173,note_on,55,0,0,,11,,,82,127
19190,note_off,17,0,0,,0,,,84,127
19228,note_on,38,0,0,,0,,,84,127
19245,note_off,17,0,0,,11,,,82,127
19283,note_on,38,0,0,,11,,,82,127
19300,note_off,17,0,0,,0,,,84,127
19338,note_on,38,0,0,,0,,,84,127
19355,note_off,17,0,0,,11,,,82,127
19393,note_on,38,0,0,,11,,,82,127
19410,note_off,17,0,0,,0,,,84,127
19448,note_on,38,0,0,,10,,,81,127
19465,note_off,17,0,0,,11,,,82,127
19556,note_off,91,0,0,,10,,,81,127
19557,note_on,1,0,0,,11,,,82,127
19775,note_off,218,0,0,,11,,,82,127
19775,note_off,0,0,0,,11,,,58,127
19775,note_off,0,0,0,,11,,,46,127
19776,note_on,1,0,0,,2,,,74,127
19994,note_off,218,0,0,,2,,,74,127
19995,note_on,1,0,0,,12,,,83,127
20105,note_on,110,0,0,,7,,,67,127
20214,note_off,109,0,0,,7,,,67,127
20214,note_off,0,0,0,,12,,,83,127
20215,note_on,1,0,0,,12,,,83,127
20215,note_on,0,0,0,,2,,,62,127
20324,note_off,109,0,0,,2,,,62,127
20325,note_on,1,0,0,,12,,,59,127
20434,note_off,109,0,0,,12,,,59,127
20434,note_off,0,0,0,,12,,,83,127
20435,note_on,1,0,0,,12,,,83,127
20435,note_on,0,0,0,,7,,,55,127
20544,note_off,109,0,0,,7,,,55,127
20545,note_on,1,0,0,,2,,,50,127
20654,note_off,109,0,0,,2,,,50,127
20654,note_off,0,0,0,,12,,,83,127
20655,note_on,1,0,0,,12,,,83,127
20655,note_on,0,0,0,,12,,,47,127
20764,note_off,109,0,0,,12,,,47,127
20765,note_on,1,0,0,,7,,,43,127
20874,note_off,109,0,0,,7,,,43,127
20874,note_off,0,0,0,,12,,,83,127
20875,note_on,1,0,0,,2,,,86,127
20875,note_on,0,0,0,,0,,,60,127
20875,note_on,0,0,0,,0,,,48,127
20930,note_on,55,0,0,,0,,,84,127
20947,note_off,17,0,0,,2,,,86,127
20985,note_on,38,0,0,,2,,,86,127
21002,note_off,17,0,0,,0,,,84,127
21040,note_on,38,0,0,,0,,,84,127
21057,note_off,17,0,0,,2,,,86,127
21095,note_on,38,0,0,,2,,,86,127
21112,note_off,17,0,0,,0,,,84,127
21150,note_on,38,0,0,,0,,,84,127
21167,note_off,17,0,0,,2,,,86,127
21205,note_on,38,0,0,,12,,,83,127
21222,note_off,17,0,0,,0,,,84,127
21313,note_off,91,0,0,,12,,,83,127
21314,note_on,1,0,0,,0,,,84,127
21532,note_off,218,0,0,,0,,,84,127
21532,note_off,0,0,0,,0,,,48,127
21532,note_off,0,0,0,,0,,,60,127
21551,note_on,19,0,0,,4,,,76,127
21769,note_off,218,0,0,,4,,,76,127
21770,note_on,1,0,0,,4,,,76,127
21988,note_off,218,0,0,,4,,,76,127
21989,note_on,1,0,0,,0,,,72,127
21989,note_on,0,0,0,,4,,,76,127
22207,note_off,218,0,0,,4,,,76,127
22207,note_off,0,0,0,,0,,,72,127
22208,note_on,1,0,0,,0,,,72,127
22208,note_on,0,0,0,,4,,,76,127
22426,note_off,218,0,0,,4,,,76,127
22426,note_off,0,0,0,,0,,,72,127
22427,note_on,1,0,0,,0,,,72,127
22427,note_on,0,0,0,,4,,,76,127
22645,note_off,218,0,0,,4,,,76,127
22645,note_off,0,0,0,,0,,,72,127
22646,note_on,1,0,0,,12,,,71,127
22646,note_on,0,0,0,,6,,,78,127
22646,note_on,0,0,0,,4,,,76,127
22864,note_off,218,0,0,,4,,,76,127
22864,note_off,0,0,0,,12,,,71,127
22865,note_on,1,0,0,,12,,,71,127
22865,note_on,0,0,0,,3,,,75,127
22974,note_off,109,0,0,,6,,,78,127
22975,note_on,1,0,0,,7,,,79,127
23030,note_on,55,0,0,,10,,,81,127
23047,note_off,17,0,0,,7,,,79,127
23084,note_off,37,0,0,,3,,,75,127
23084,note_off,0,0,0,,12,,,71,127
23085,note_on,1,0,0,,4,,,64,127
23085,note_on,0,0,0,,4,,,76,127
23085,note_on,0,0,0,,7,,,79,127
23102,note_off,17,0,0,,10,,,81,127
23303,note_off,201,0,0,,7,,,79,127
23303,note_off,0,0,0,,4,,,76,127
23322,note_on,19,0,0,,4,,,76,127
23522,note_off,200,0,0,,4,,,64,127
23541,note_on,19,0,0,,5,,,77,127
23759,note_off,218,0,0,,5,,,77,127
23759,note_off,0,0,0,,4,,,76,127
23760,note_on,1,0,0,,2,,,74,127
23760,note_on,0,0,0,,5,,,77,127
23760,note_on,0,0,0,,12,,,71,127
23978,note_off,218,0,0,,12,,,71,127
23978,note_off,0,0,0,,5,,,77,127
23978,note_off,0,0,0,,2,,,74,127
23979,note_on,1,0,0,,2,,,74,127
23979,note_on,0,0,0,,5,,,77,127
23979,note_on,0,0,0,,12,,,71,127
24197,note_off,218,0,0,,12,,,71,127
24197,note_off,0,0,0,,5,,,77,127
24197,note_off,0,0,0,,2,,,74,127
24198,note_on,1,0,0,,2,,,74,127
24198,note_on,0,0,0,,5,,,77,127
24198,note_on,0,0,0,,12,,,71,127
24416,note_off,218,0,0,,12,,,71,127
24416,note_off,0,0,0,,5,,,77,127
24416,note_off,0,0,0,,2,,,74,127
24417,note_on,1,0,0,,8,,,80,127
24417,note_on,0,0,0,,5,,,77,127
24417,note_on,0,0,0,,12,,,71,127
24417,note_on,0,0,0,,2,,,74,127
24635,note_off,218,0,0,,2,,,74,127
24635,note_off,0,0,0,,12,,,71,127
24635,note_off,0,0,0,,5,,,77,127
24636,note_on,1,0,0,,5,,,77,127
24636,note_on,0,0,0,,12,,,71,127
24636,note_on,0,0,0,,2,,,74,127
24745,note_off,109,0,0,,8,,,80,127
24746,note_on,1,0,0,,10,,,81,127
24801,note_on,55,0,0,,12,,,83,127
24818,note_off,17,0,0,,10,,,81,127
24855,note_off,37,0,0,,2,,,74,127
24855,note_off,0,0,0,,12,,,71,127
24855,note_off,0,0,0,,5,,,77,127
24856,note_on,1,0,0,,4,,,76,127
24856,note_on,0,0,0,,10,,,81,127
24856,note_on,0,0,0,,10,,,69,127
24856,note_on,0,0,0,,1,,,73,127
24873,note_off,17,0,0,,12,,,83,127
25074,note_off,201,0,0,,10,,,81,127
25074,note_off,0,0,0,,4,,,76,127
25093,note_on,19,0,0,,10,,,81,127
25293,note_off,200,0,0,,1,,,73,127
25293,note_off,0,0,0,,10,,,69,127
25311,note_off,18,0,0,,10,,,81,127
25312,note_on,1,0,0,,10,,,81,127
25530,note_off,218,0,0,,10,,,81,127
25531,note_on,1,0,0,,1,,,73,127
25531,note_on,0,0,0,,4,,,76,127
25531,note_on,0,0,0,,10,,,69,127
25531,note_on,0,0,0,,10,,,81,127
25749,note_off,218,0,0,,10,,,81,127
25749,note_off,0,0,0,,10,,,69,127
25749,note_off,0,0,0,,4,,,76,127
25749,note_off,0,0,0,,1,,,73,127
25750,note_on,1,0,0,,1,,,73,127
25750,note_on,0,0,0,,10,,,69,127
25750,note_on,0,0,0,,4,,,76,127
25750,note_on,0,0,0,,10,,,81,127
25968,note_off,218,0,0,,10,,,81,127
25968,note_off,0,0,0,,4,,,76,127
25968,note_off,0,0,0,,10,,,69,127
25968,note_off,0,0,0,,1,,,73,127
25969,note_on,1,0,0,,10,,,69,127
25969,note_on,0,0,0,,4,,,76,127
25969,note_on,0,0,0,,1,,,73,127
25969,note_on,0,0,0,,10,,,81,127
26187,note_off,218,0,0,,10,,,81,127
26187,note_off,0,0,0,,1,,,73,127
26187,note_off,0,0,0,,4,,,76,127
26187,note_off,0,0,0,,10,,,69,127
26188,note_on,1,0,0,,2,,,74,127
26188,note_on,0,0,0,,7,,,67,127
26188,note_on,0,0,0,,11,,,70,127
26188,note_on,0,0,0,,11,,,82,127
26297,note_off,109,0,0,,11,,,82,127
26298,note_on,1,0,0,,10,,,81,127
26407,note_off,109,0,0,,10,,,81,127
26407,note_off,0,0,0,,11,,,70,127
26407,note_off,0,0,0,,7,,,67,127
26407,note_off,0,0,0,,2,,,74,127
26408,note_on,1,0,0,,11,,,70,127
26408,note_on,0,0,0,,2,,,74,127
26408,note_on,0,0,0,,7,,,67,127
26408,note_on,0,0,0,,7,,,79,127
26626,note_off,218,0,0,,7,,,67,127
26626,note_off,0,0,0,,2,,,74,127
26626,note_off,0,0,0,,11,,,70,127
26627,note_on,1,0,0,,1,,,73,127
26627,note_on,0,0,0,,10,,,69,127
26737,note_off,110,0,0,,7,,,79,127
26846,note_off,109,0,0,,10,,,69,127
26846,note_off,0,0,0,,1,,,73,127
26847,note_on,1,0,0,,10,,,69,127
26847,note_on,0,0,0,,1,,,73,127
26847,note_on,0,0,0,,7,,,79,127
27065,note_off,218,0,0,,7,,,79,127
27065,note_off,0,0,0,,1,,,73,127
27065,note_off,0,0,0,,10,,,69,127
27066,note_on,1,0,0,,10,,,69,127
27066,note_on,0,0,0,,1,,,73,127
27066,note_on,0,0,0,,7,,,79,127
27284,note_off,218,0,0,,7,,,79,127
27284,note_off,0,0,0,,1,,,73,127
27284,note_off,0,0,0,,10,,,69,127
27285,note_on,1,0,0,,1,,,73,127
27285,note_on,0,0,0,,10,,,69,127
27285,note_on,0,0,0,,4,,,76,127
27503,note_off,218,0,0,,4,,,76,127
27503,note_off,0,0,0,,10,,,69,127
27503,note_off,0,0,0,,1,,,73,127
27504,note_on,1,0,0,,10,,,69,127
27504,note_on,0,0,0,,2,,,74,127
27504,note_on,0,0,0,,7,,,79,127
27559,note_on,55,0,0,,5,,,77,127
27576,note_off,17,0,0,,7,,,79,127
27614,note_on,38,0,0,,7,,,79,127
27631,note_off,17,0,0,,5,,,77,127
27669,note_on,38,0,0,,5,,,77,127
27686,note_off,17,0,0,,7,,,79,127
27723,note_off,37,0,0,,2,,,74,127
27723,note_off,0,0,0,,10,,,69,127
27724,note_on,1,0,0,,10,,,69,127
27724,note_on,0,0,0,,2,,,74,127
27724,note_on,0,0,0,,7,,,79,127
27741,note_off,17,0,0,,5,,,77,127
27779,note_on,38,0,0,,5,,,77,127
27796,note_off,17,0,0,,7,,,79,127
27834,note_on,38,0,0,,7,,,79,127
27851,note_off,17,0,0,,5,,,77,127
27889,note_on,38,0,0,,5,,,77,127
27906,note_off,17,0,0,,7,,,79,127
27943,note_off,37,0,0,,2,,,74,127
27943,note_off,0,0,0,,10,,,69,127
27944,note_on,1,0,0,,2,,,74,127
27944,note_on,0,0,0,,10,,,69,127
28162,note_off,218,0,0,,2,,,74,127
28163,note_off,1,0,0,,5,,,77,127
28163,note_on,0,0,0,,2,,,74,127
28163,note_on,0,0,0,,4,,,76,127
28218,note_on,55,0,0,,1,,,73,127
28235,note_off,17,0,0,,2,,,74,127
28273,note_on,38,0,0,,12,,,71,127
28290,note_off,17,0,0,,1,,,73,127
28381,note_off,91,0,0,,12,,,71,127
28381,note_off,0,0,0,,10,,,69,127
28382,note_on,1,0,0,,10,,,69,127
28492,note_off,110,0,0,,4,,,76,127
28620,note_on,128,0,0,,10,,,81,127
28820,note_off,200,0,0,,10,,,69,127
28838,note_off,18,0,0,,10,,,81,127
28839,note_on,1,0,0,,10,,,81,127
29057,note_off,218,0,0,,10,,,81,127
29058,note_on,1,0,0,,10,,,81,127
29058,note_on,0,0,0,,0,,,72,127
29058,note_on,0,0,0,,6,,,66,127
29276,note_off,218,0,0,,6,,,66,127
29276,note_off,0,0,0,,0,,,72,127
29276,note_off,0,0,0,,10,,,81,127
29277,note_on,1,0,0,,10,,,81,127
29277,note_on,0,0,0,,6,,,66,127
29277,note_on,0,0,0,,0,,,72,127
29495,note_off,218,0,0,,0,,,72,127
29495,note_off,0,0,0,,6,,,66,127
29496,note_on,1,0,0,,0,,,72,127
29496,note_on,0,0,0,,6,,,66,127
29605,note_off,109,0,0,,10,,,81,127
29606,note_on,1,0,0,,11,,,82,127
29661,note_on,55,0,0,,0,,,84,127
29678,note_off,17,0,0,,11,,,82,127
29771,note_off,93,0,0,,0,,,84,127
29771,note_on,0,0,0,,11,,,82,127
29826,note_off,55,0,0,,6,,,66,127
29826,note_off,0,0,0,,0,,,72,127
29826,note_on,0,0,0,,0,,,84,127
29843,note_off,17,0,0,,11,,,82,127
29881,note_on,38,0,0,,11,,,82,127
29898,note_off,17,0,0,,0,,,84,127
29936,note_on,38,0,0,,0,,,84,127
29936,note_on,0,0,0,,2,,,74,127
29936,note_on,0,0,0,,7,,,67,127
29953,note_off,17,0,0,,11,,,82,127
29991,note_on,38,0,0,,11,,,82,127
30008,note_off,17,0,0,,0,,,84,127
30046,note_on,38,0,0,,10,,,81,127
30063,note_off,17,0,0,,11,,,82,127
30154,note_off,91,0,0,,10,,,81,127
30154,note_off,0,0,0,,7,,,67,127
30154,note_off,0,0,0,,2,,,74,127
30155,note_on,1,0,0,,7,,,79,127
30155,note_on,0,0,0,,7,,,67,127
30155,note_on,0,0,0,,2,,,74,127
30373,note_off,218,0,0,,2,,,74,127
30373,note_off,0,0,0,,7,,,67,127
30373,note_off,0,0,0,,7,,,79,127
30374,note_on,1,0,0,,7,,,79,127
30374,note_on,0,0,0,,7,,,67,127
30374,note_on,0,0,0,,2,,,74,127
30592,note_off,218,0,0,,7,,,79,127
30593,note_on,1,0,0,,7,,,79,127
30703,note_off,110,0,0,,2,,,74,127
30703,note_off,0,0,0,,7,,,67,127
30812,note_off,109,0,0,,7,,,79,127
30813,note_on,1,0,0,,5,,,77,127
30813,note_on,0,0,0,,0,,,60,127
30813,note_on,0,0,0,,7,,,67,127
30813,note_on,0,0,0,,10,,,69,127
31031,note_off,218,0,0,,10,,,69,127
31031,note_off,0,0,0,,7,,,67,127
31031,note_off,0,0,0,,0,,,60,127
31032,note_on,1,0,0,,7,,,67,127
31032,note_on,0,0,0,,10,,,69,127
31032,note_on,0,0,0,,0,,,60,127
31087,note_off,55,0,0,,5,,,77,127
31087,note_on,0,0,0,,3,,,75,127
31142,note_on,55,0,0,,5,,,77,127
31159,note_off,17,0,0,,3,,,75,127
31197,note_on,38,0,0,,3,,,75,127
31214,note_off,17,0,0,,5,,,77,127
31251,note_off,37,0,0,,0,,,60,127
31251,note_off,0,0,0,,10,,,69,127
31251,note_off,0,0,0,,7,,,67,127
31252,note_on,1,0,0,,5,,,77,127
31252,note_on,0,0,0,,7,,,67,127
31252,note_on,0,0,0,,10,,,69,127
31252,note_on,0,0,0,,0,,,60,127
31269,note_off,17,0,0,,3,,,75,127
31307,note_on,38,0,0,,3,,,75,127
31324,note_off,17,0,0,,5,,,77,127
31362,note_on,38,0,0,,5,,,77,127
31379,note_off,17,0,0,,3,,,75,127
31417,note_on,38,0,0,,3,,,75,127
31434,note_off,17,0,0,,5,,,77,127
31471,note_off,37,0,0,,0,,,60,127
31471,note_off,0,0,0,,10,,,69,127
31471,note_off,0,0,0,,7,,,67,127
31472,note_on,1,0,0,,2,,,74,127
31472,note_on,0,0,0,,2,,,62,127
31472,note_on,0,0,0,,2,,,50,127
31489,note_off,17,0,0,,3,,,75,127
31582,note_on,93,0,0,,2,,,86,127
31691,note_off,109,0,0,,2,,,86,127
31691,note_off,0,0,0,,2,,,74,127
31692,note_on,1,0,0,,6,,,78,127
31801,note_off,109,0,0,,6,,,78,127
31802,note_on,1,0,0,,2,,,74,127
31911,note_off,109,0,0,,2,,,74,127
31911,note_off,0,0,0,,2,,,50,127
31911,note_off,0,0,0,,2,,,62,127
31912,note_on,1,0,0,,4,,,76,127
31912,note_on,0,0,0,,2,,,50,127
32022,note_on,110,0,0,,0,,,84,127
32131,note_off,109,0,0,,0,,,84,127
32131,note_off,0,0,0,,4,,,76,127
32132,note_on,1,0,0,,4,,,76,127
32241,note_off,109,0,0,,4,,,76,127
32242,note_on,1,0,0,,0,,,72,127
32351,note_off,109,0,0,,0,,,72,127
32351,note_off,0,0,0,,2,,,50,127
32352,note_on,1,0,0,,2,,,74,127
32352,note_on,0,0,0,,2,,,50,127
32462,note_on,110,0,0,,12,,,83,127
32571,note_off,109,0,0,,12,,,83,127
32571,note_off,0,0,0,,2,,,74,127
32572,note_on,1,0,0,,2,,,74,127
32681,note_off,109,0,0,,2,,,74,127
32682,note_on,1,0,0,,12,,,71,127
32791,note_off,109,0,0,,12,,,71,127
32791,note_off,0,0,0,,2,,,50,127
32792,note_on,1,0,0,,0,,,72,127
32792,note_on,0,0,0,,2,,,50,127
32902,note_on,110,0,0,,10,,,81,127
33011,note_off,109,0,0,,10,,,81,127
33011,note_off,0,0,0,,0,,,72,127
33012,note_on,1,0,0,,0,,,72,127
33121,note_off,109,0,0,,0,,,72,127
33122,note_on,1,0,0,,10,,,69,127
33231,note_off,109,0,0,,10,,,69,127
33231,note_off,0,0,0,,2,,,50,127
33232,note_on,1,0,0,,12,,,71,127
33232,note_on,0,0,0,,2,,,50,127
33342,note_on,110,0,0,,7,,,79,127
33451,note_off,109,0,0,,7,,,79,127
33451,note_off,0,0,0,,12,,,71,127
33452,note_on,1,0,0,,12,,,71,127
33561,note_off,109,0,0,,12,,,71,127
33562,note_on,1,0,0,,7,,,67,127
33671,note_off,109,0,0,,7,,,67,127
33671,note_off,0,0,0,,2,,,50,127
33672,note_on,1,0,0,,6,,,78,127
33672,note_on,0,0,0,,2,,,50,127
33781,note_off,109,0,0,,6,,,78,127
33782,note_on,1,0,0,,2,,,74,127
33891,note_off,109,0,0,,2,,,74,127
33892,note_on,1,0,0,,4,,,76,127
34001,note_off,109,0,0,,4,,,76,127
34002,note_on,1,0,0,,1,,,73,127
34111,note_off,109,0,0,,1,,,73,127
34112,note_on,1,0,0,,2,,,74,127
34221,note_off,109,0,0,,2,,,74,127
34221,note_off,0,0,0,,2,,,50,127
34222,note_on,1,0,0,,2,,,74,127
34331,note_off,109,0,0,,2,,,74,127
34332,note_on,1,0,0,,2,,,86,127
34332,note_on,0,0,0,,6,,,66,127
34441,note_off,109,0,0,,6,,,66,127
34442,note_on,1,0,0,,2,,,62,127
34551,note_off,109,0,0,,2,,,62,127
34552,note_on,1,0,0,,4,,,64,127
34662,note_on,110,0,0,,0,,,72,127
34678,note_off,16,0,0,,4,,,64,127
34771,note_off,93,0,0,,0,,,72,127
34771,note_off,0,0,0,,2,,,86,127
34772,note_on,1,0,0,,0,,,84,127
34772,note_on,0,0,0,,4,,,64,127
34882,note_on,110,0,0,,0,,,60,127
34898,note_off,16,0,0,,4,,,64,127
34991,note_off,93,0,0,,0,,,60,127
34992,note_on,1,0,0,,2,,,62,127
35102,note_on,110,0,0,,12,,,71,127
35118,note_off,16,0,0,,2,,,62,127
35211,note_off,93,0,0,,12,,,71,127
35211,note_off,0,0,0,,0,,,84,127
35212,note_on,1,0,0,,12,,,83,127
35212,note_on,0,0,0,,2,,,62,127
35322,note_on,110,0,0,,12,,,59,127
35338,note_off,16,0,0,,2,,,62,127
35431,note_off,93,0,0,,12,,,59,127
35432,note_on,1,0,0,,0,,,60,127
35542,note_on,110,0,0,,10,,,69,127
35558,note_off,16,0,0,,0,,,60,127
35651,note_off,93,0,0,,10,,,69,127
35651,note_off,0,0,0,,12,,,83,127
35652,note_on,1,0,0,,10,,,81,127
35652,note_on,0,0,0,,0,,,60,127
35762,note_on,110,0,0,,10,,,57,127
35778,note_off,16,0,0,,0,,,60,127
35871,note_off,93,0,0,,10,,,57,127
35872,note_on,1,0,0,,12,,,59,127
35982,note_on,110,0,0,,7,,,67,127
35998,note_off,16,0,0,,12,,,59,127
36091,note_off,93,0,0,,7,,,67,127
36091,note_off,0,0,0,,10,,,81,127
36092,note_on,1,0,0,,7,,,79,127
36092,note_on,0,0,0,,12,,,59,127
36202,note_on,110,0,0,,7,,,55,127
36218,note_off,16,0,0,,12,,,59,127
36311,note_off,93,0,0,,7,,,55,127
36312,note_on,1,0,0,,10,,,57,127
36421,note_off,109,0,0,,10,,,57,127
36421,note_off,0,0,0,,7,,,79,127
36422,note_on,1,0,0,,10,,,81,127
36422,note_on,0,0,0,,7,,,67,127
36531,note_off,109,0,0,,7,,,67,127
36531,note_off,0,0,0,,10,,,81,127
36532,note_on,1,0,0,,10,,,69,127
36532,note_on,0,0,0,,6,,,66,127
36641,note_off,109,0,0,,6,,,66,127
36641,note_off,0,0,0,,10,,,69,127
36642,note_on,1,0,0,,0,,,72,127
36642,note_on,0,0,0,,2,,,62,127
36751,note_off,109,0,0,,2,,,62,127
36751,note_off,0,0,0,,0,,,72,127
36752,note_on,1,0,0,,12,,,71,127
36752,note_on,0,0,0,,7,,,67,127
36861,note_off,109,0,0,,12,,,71,127
36862,note_on,1,0,0,,2,,,74,127
36971,note_off,109,0,0,,2,,,74,127
36972,note_on,1,0,0,,0,,,72,127
37081,note_off,109,0,0,,0,,,72,127
37082,note_on,1,0,0,,12,,,71,127
37191,note_off,109,0,0,,12,,,71,127
37191,note_off,0,0,0,,7,,,67,127
37192,note_on,1,0,0,,10,,,69,127
37192,note_on,0,0,0,,0,,,60,127
37301,note_off,109,0,0,,10,,,69,127
37302,note_on,1,0,0,,7,,,67,127
37411,note_off,109,0,0,,7,,,67,127
37412,note_on,1,0,0,,6,,,66,127
37521,note_off,109,0,0,,6,,,66,127
37522,note_on,1,0,0,,7,,,67,127
37631,note_off,109,0,0,,7,,,67,127
37632,note_on,1,0,0,,6,,,66,127
37741,note_off,109,0,0,,0,,,60,127
37742,note_on,1,0,0,,2,,,62,127
37815,note_off,73,0,0,,6,,,66,127
37861,note_on,46,0,0,,2,,,74,127
37861,note_on,0,0,0,,6,,,54,127
37870,note_off,9,0,0,,2,,,62,127
37969,note_off,99,0,0,,6,,,54,127
37970,note_on,1,0,0,,2,,,50,127
38079,note_off,109,0,0,,2,,,50,127
38080,note_on,1,0,0,,4,,,52,127
38189,note_off,109,0,0,,2,,,74,127
38190,note_on,1,0,0,,12,,,71,127
38190,note_on,0,0,0,,0,,,60,127
38206,note_off,16,0,0,,4,,,52,127
38299,note_off,93,0,0,,0,,,60,127
38299,note_off,0,0,0,,12,,,71,127
38300,note_on,1,0,0,,0,,,72,127
38300,note_on,0,0,0,,4,,,52,127
38410,note_on,110,0,0,,0,,,48,127
38426,note_off,16,0,0,,4,,,52,127
38519,note_off,93,0,0,,0,,,48,127
38520,note_on,1,0,0,,2,,,50,127
38629,note_off,109,0,0,,0,,,72,127
38630,note_on,1,0,0,,10,,,69,127
38630,note_on,0,0,0,,12,,,59,127
38646,note_off,16,0,0,,2,,,50,127
38739,note_off,93,0,0,,12,,,59,127
38739,note_off,0,0,0,,10,,,69,127
38740,note_on,1,0,0,,12,,,71,127
38740,note_on,0,0,0,,2,,,50,127
38850,note_on,110,0,0,,12,,,47,127
38866,note_off,16,0,0,,2,,,50,127
38959,note_off,93,0,0,,12,,,47,127
38960,note_on,1,0,0,,0,,,48,127
39069,note_off,109,0,0,,12,,,71,127
39070,note_on,1,0,0,,7,,,67,127
39070,note_on,0,0,0,,10,,,57,127
39086,note_off,16,0,0,,0,,,48,127
39179,note_off,93,0,0,,10,,,57,127
39179,note_off,0,0,0,,7,,,67,127
39180,note_on,1,0,0,,10,,,69,127
39180,note_on,0,0,0,,0,,,48,127
39290,note_on,110,0,0,,10,,,45,127
39306,note_off,16,0,0,,0,,,48,127
39399,note_off,93,0,0,,10,,,45,127
39400,note_on,1,0,0,,12,,,47,127
39509,note_off,109,0,0,,10,,,69,127
39510,note_on,1,0,0,,6,,,66,127
39510,note_on,0,0,0,,7,,,55,127
39526,note_off,16,0,0,,12,,,47,127
39619,note_off,93,0,0,,7,,,55,127
39619,note_off,0,0,0,,6,,,66,127
39620,note_on,1,0,0,,7,,,67,127
39620,note_on,0,0,0,,12,,,47,127
39730,note_on,110,0,0,,7,,,43,127
39746,note_off,16,0,0,,12,,,47,127
39839,note_off,93,0,0,,7,,,43,127
39840,note_on,1,0,0,,10,,,45,127
39949,note_off,109,0,0,,7,,,67,127
39950,note_on,1,0,0,,7,,,67,127
39950,note_on,0,0,0,,7,,,55,127
39966,note_off,16,0,0,,10,,,45,127
40059,note_off,93,0,0,,7,,,55,127
40059,note_off,0,0,0,,7,,,67,127
40060,note_on,1,0,0,,10,,,69,127
40060,note_on,0,0,0,,6,,,54,127
40169,note_off,109,0,0,,6,,,54,127
40169,note_off,0,0,0,,10,,,69,127
40170,note_on,1,0,0,,0,,,72,127
40170,note_on,0,0,0,,2,,,50,127
40279,note_off,109,0,0,,2,,,50,127
40279,note_off,0,0,0,,0,,,72,127
40280,note_on,1,0,0,,12,,,71,127
40280,note_on,0,0,0,,7,,,55,127
40389,note_off,109,0,0,,12,,,71,127
40390,note_on,1,0,0,,7,,,67,127
40499,note_off,109,0,0,,7,,,67,127
40499,note_off,0,0,0,,7,,,55,127
40500,note_on,1,0,0,,0,,,72,127
40500,note_on,0,0,0,,0,,,48,127
40609,note_off,109,0,0,,0,,,72,127
40610,note_on,1,0,0,,10,,,69,127
40719,note_off,109,0,0,,10,,,69,127
40719,note_off,0,0,0,,0,,,48,127
40720,note_on,1,0,0,,12,,,71,127
40720,note_on,0,0,0,,2,,,50,127
40829,note_off,109,0,0,,12,,,71,127
40830,note_on,1,0,0,,7,,,67,127
40939,note_off,109,0,0,,7,,,67,127
40940,note_on,1,0,0,,10,,,69,127
40940,note_on,0,0,0,,2,,,38,127
41049,note_off,109,0,0,,10,,,69,127
41050,note_on,1,0,0,,6,,,66,127
41159,note_off,109,0,0,,6,,,66,127
41159,note_off,0,0,0,,2,,,38,127
41159,note_off,0,0,0,,2,,,50,127
41160,note_on,1,0,0,,7,,,67,127
41293,note_on,133,0,0,,7,,,43,127
41402,note_off,109,0,0,,7,,,43,127
41403,note_on,1,0,0,,12,,,47,127
41512,note_off,109,0,0,,12,,,47,127
41513,note_on,1,0,0,,2,,,50,127
41599,note_off,86,0,0,,7,,,67,127
41622,note_off,23,0,0,,2,,,50,127
41623,note_on,1,0,0,,7,,,79,127
41623,note_on,0,0,0,,7,,,55,127
41732,note_off,109,0,0,,7,,,55,127
41733,note_on,1,0,0,,12,,,59,127
41842,note_off,109,0,0,,12,,,59,127
41843,note_on,1,0,0,,2,,,62,127
41952,note_off,109,0,0,,2,,,62,127
41953,note_on,1,0,0,,7,,,67,127
42062,note_off,109,0,0,,7,,,67,127
42063,note_on,1,0,0,,0,,,36,127
42172,note_off,109,0,0,,7,,,79,127
42173,note_on,1,0,0,,4,,,76,127
42282,note_off,109,0,0,,4,,,76,127
42283,note_on,1,0,0,,2,,,74,127
42392,note_off,109,0,0,,2,,,74,127
42393,note_on,1,0,0,,0,,,72,127
42502,note_off,109,0,0,,0,,,72,127
42502,note_off,0,0,0,,0,,,36,127
42503,note_on,1,0,0,,12,,,71,127
42503,note_on,0,0,0,,2,,,38,127
42612,note_off,109,0,0,,12,,,71,127
42613,note_on,1,0,0,,10,,,69,127
42722,note_off,109,0,0,,10,,,69,127
42723,note_on,1,0,0,,7,,,67,127
42832,note_off,109,0,0,,7,,,67,127
42833,note_on,1,0,0,,6,,,66,127
42942,note_off,109,0,0,,6,,,66,127
42942,note_off,0,0,0,,2,,,38,127
42943,note_on,1,0,0,,7,,,67,127
43071,note_on,128,0,0,,7,,,43,127
43180,note_off,109,0,0,,7,,,43,127
43181,note_on,1,0,0,,12,,,47,127
43290,note_off,109,0,0,,12,,,47,127
43291,note_on,1,0,0,,2,,,50,127
43381,note_off,90,0,0,,7,,,67,127
43399,note_off,18,0,0,,2,,,50,127
43400,note_on,1,0,0,,7,,,55,127
43400,note_on,0,0,0,,7,,,79,127
43509,note_off,109,0,0,,7,,,55,127
43510,note_on,1,0,0,,12,,,59,127
43619,note_off,109,0,0,,12,,,59,127
43620,note_on,1,0,0,,2,,,62,127
43729,note_off,109,0,0,,2,,,62,127
43730,note_on,1,0,0,,7,,,67,127
43839,note_off,109,0,0,,7,,,67,127
43840,note_on,1,0,0,,0,,,36,127
43949,note_off,109,0,0,,7,,,79,127
43950,note_on,1,0,0,,4,,,76,127
44059,note_off,109,0,0,,4,,,76,127
44060,note_on,1,0,0,,2,,,74,127
44169,note_off,109,0,0,,2,,,74,127
44170,note_on,1,0,0,,0,,,72,127
44279,note_off,109,0,0,,0,,,72,127
44279,note_off,0,0,0,,0,,,36,127
44280,note_on,1,0,0,,2,,,38,127
44280,note_on,0,0,0,,12,,,71,127
44389,note_off,109,0,0,,12,,,71,127
44390,note_on,1,0,0,,10,,,69,127
44499,note_off,109,0,0,,10,,,69,127
44500,note_on,1,0,0,,7,,,67,127
44609,note_off,109,0,0,,7,,,67,127
44610,note_on,1,0,0,,6,,,66,127
44719,note_off,109,0,0,,2,,,38,127
44729,note_on,10,0,0,,7,,,43,127
44729,note_on,0,0,0,,7,,,67,127
44730,note_off,1,0,0,,6,,,66,127
44857,note_on,127,0,0,,7,,,79,127
44946,note_off,89,0,0,,7,,,67,127
44965,note_off,19,0,0,,7,,,79,127
44966,note_on,1,0,0,,3,,,75,127
45075,note_off,109,0,0,,3,,,75,127
45076,note_on,1,0,0,,4,,,76,127
45163,note_off,87,0,0,,7,,,43,127
45185,note_off,22,0,0,,4,,,76,127
45186,note_on,1,0,0,,1,,,73,127
45295,note_off,109,0,0,,1,,,73,127
45296,note_on,1,0,0,,2,,,74,127
45405,note_off,109,0,0,,2,,,74,127
45406,note_on,1,0,0,,12,,,71,127
45515,note_off,109,0,0,,12,,,71,127
45516,note_on,1,0,0,,0,,,72,127
45625,note_off,109,0,0,,0,,,72,127
45626,note_on,1,0,0,,10,,,69,127
45735,note_off,109,0,0,,10,,,69,127
45736,note_on,1,0,0,,4,,,76,127
45845,note_off,109,0,0,,4,,,76,127
45846,note_on,1,0,0,,2,,,74,127
45846,note_on,0,0,0,,0,,,48,127
45955,note_off,109,0,0,,2,,,74,127
45956,note_on,1,0,0,,0,,,72,127
46065,note_off,109,0,0,,0,,,72,127
46065,note_off,0,0,0,,0,,,48,127
46066,note_on,1,0,0,,12,,,71,127
46066,note_on,0,0,0,,2,,,50,127
46175,note_off,109,0,0,,12,,,71,127
46176,note_on,1,0,0,,10,,,69,127
46285,note_off,109,0,0,,10,,,69,127
46286,note_on,1,0,0,,7,,,67,127
46286,note_on,0,0,0,,2,,,38,127
46395,note_off,109,0,0,,7,,,67,127
46396,note_on,1,0,0,,6,,,66,127
46505,note_off,109,0,0,,2,,,38,127
46505,note_off,0,0,0,,2,,,50,127
46524,note_on,19,0,0,,7,,,43,127
46614,note_off,90,0,0,,6,,,66,127
46633,note_on,19,0,0,,7,,,67,127
46742,note_off,109,0,0,,7,,,67,127
46743,note_on,1,0,0,,3,,,63,127
46852,note_off,109,0,0,,3,,,63,127
46853,note_on,1,0,0,,4,,,64,127
46962,note_off,109,0,0,,4,,,64,127
46963,note_on,1,0,0,,1,,,61,127
46972,note_off,9,0,0,,7,,,43,127
47071,note_off,99,0,0,,1,,,61,127
47072,note_on,1,0,0,,2,,,62,127
47181,note_off,109,0,0,,2,,,62,127
47182,note_on,1,0,0,,12,,,59,127
47291,note_off,109,0,0,,12,,,59,127
47292,note_on,1,0,0,,0,,,60,127
47401,note_off,109,0,0,,0,,,60,127
47402,note_on,1,0,0,,10,,,57,127
47511,note_off,109,0,0,,10,,,57,127
47512,note_on,1,0,0,,4,,,64,127
47621,note_off,109,0,0,,4,,,64,127
47622,note_on,1,0,0,,0,,,48,127
47622,note_on,0,0,0,,2,,,62,127
47731,note_off,109,0,0,,2,,,62,127
47732,note_on,1,0,0,,0,,,60,127
47841,note_off,109,0,0,,0,,,60,127
47841,note_off,0,0,0,,0,,,48,127
47842,note_on,1,0,0,,2,,,50,127
47842,note_on,0,0,0,,12,,,59,127
47951,note_off,109,0,0,,12,,,59,127
47952,note_on,1,0,0,,10,,,57,127
48061,note_off,109,0,0,,10,,,57,127
48062,note_on,1,0,0,,2,,,38,127
48062,note_on,0,0,0,,7,,,55,127
48171,note_off,109,0,0,,7,,,55,127
48172,note_on,1,0,0,,6,,,54,127
48281,note_off,109,0,0,,6,,,54,127
48281,note_off,0,0,0,,2,,,38,127
48281,note_off,0,0,0,,2,,,50,127
48291,note_on,10,0,0,,7,,,43,127
48291,note_on,0,0,0,,7,,,55,127
48794,note_off,503,0,0,,7,,,55,127
48840,note_on,46,0,0,,7,,,79,127
48949,note_off,109,0,0,,7,,,43,127
49059,note_off,110,0,0,,7,,,79,127
49060,note_on,1,0,0,,2,,,74,127
49278,note_off,218,0,0,,2,,,74,127
49279,note_on,1,0,0,,0,,,72,127
49334,note_on,55,0,0,,12,,,71,127
49351,note_off,17,0,0,,0,,,72,127
49389,note_on,38,0,0,,0,,,72,127
49406,note_off,17,0,0,,12,,,71,127
49444,note_on,38,0,0,,12,,,71,127
49461,note_off,17,0,0,,0,,,72,127
49499,note_on,38,0,0,,0,,,72,127
49516,note_off,17,0,0,,12,,,71,127
49554,note_on,38,0,0,,12,,,71,127
49571,note_off,17,0,0,,0,,,72,127
49609,note_on,38,0,0,,10,,,69,127
49626,note_off,17,0,0,,12,,,71,127
49717,note_off,91,0,0,,10,,,69,127
49718,note_on,1,0,0,,7,,,67,127
49718,note_on,0,0,0,,12,,,71,127
49936,note_off,218,0,0,,12,,,71,127
49936,note_off,0,0,0,,7,,,67,127
49937,note_on,1,0,0,,2,,,62,127
49937,note_on,0,0,0,,0,,,72,127
50155,note_off,218,0,0,,0,,,72,127
50155,note_off,0,0,0,,2,,,62,127
50156,note_on,1,0,0,,12,,,59,127
50156,note_on,0,0,0,,2,,,74,127
50265,note_off,109,0,0,,2,,,74,127
50266,note_on,1,0,0,,0,,,72,127
50375,note_off,109,0,0,,0,,,72,127
50376,note_on,1,0,0,,12,,,71,127
50485,note_off,109,0,0,,12,,,71,127
50486,note_on,1,0,0,,10,,,69,127
50595,note_off,109,0,0,,10,,,69,127
50596,note_on,1,0,0,,7,,,67,127
50705,note_off,109,0,0,,12,,,59,127
50715,note_on,10,0,0,,10,,,57,127
50814,note_off,99,0,0,,7,,,67,127
50823,note_off,9,0,0,,10,,,57,127
50824,note_on,1,0,0,,7,,,55,127
50824,note_on,0,0,0,,2,,,74,127
50933,note_off,109,0,0,,7,,,55,127
50934,note_on,1,0,0,,5,,,53,127
51043,note_off,109,0,0,,5,,,53,127
51043,note_off,0,0,0,,2,,,74,127
51044,note_on,1,0,0,,4,,,52,127
51044,note_on,0,0,0,,7,,,79,127
51153,note_off,109,0,0,,7,,,79,127
51154,note_on,1,0,0,,2,,,74,127
51263,note_off,109,0,0,,2,,,74,127
51264,note_on,1,0,0,,4,,,76,127
51373,note_off,109,0,0,,4,,,76,127
51374,note_on,1,0,0,,12,,,71,127
51483,note_off,109,0,0,,12,,,71,127
51483,note_off,0,0,0,,4,,,52,127
51484,note_on,1,0,0,,10,,,69,127
51484,note_on,0,0,0,,0,,,72,127
51593,note_off,109,0,0,,10,,,69,127
51594,note_on,1,0,0,,7,,,67,127
51703,note_off,109,0,0,,7,,,67,127
51704,note_on,1,0,0,,5,,,65,127
51813,note_off,109,0,0,,5,,,65,127
51814,note_on,1,0,0,,4,,,64,127
51923,note_off,109,0,0,,4,,,64,127
51923,note_off,0,0,0,,0,,,72,127
51924,note_on,1,0,0,,2,,,62,127
51924,note_on,0,0,0,,5,,,77,127
52033,note_off,109,0,0,,5,,,77,127
52034,note_on,1,0,0,,0,,,72,127
52143,note_off,109,0,0,,0,,,72,127
52144,note_on,1,0,0,,2,,,74,127
52253,note_off,109,0,0,,2,,,74,127
52254,note_on,1,0,0,,10,,,69,127
52363,note_off,109,0,0,,10,,,69,127
52363,note_off,0,0,0,,2,,,62,127
52364,note_on,1,0,0,,7,,,67,127
52364,note_on,0,0,0,,12,,,71,127
52473,note_off,109,0,0,,7,,,67,127
52474,note_on,1,0,0,,5,,,65,127
52583,note_off,109,0,0,,5,,,65,127
52584,note_on,1,0,0,,4,,,64,127
52693,note_off,109,0,0,,4,,,64,127
52694,note_on,1,0,0,,2,,,62,127
52742,note_off,48,0,0,,12,,,71,127
52803,note_off,61,0,0,,2,,,62,127
52804,note_on,1,0,0,,0,,,60,127
52804,note_on,0,0,0,,4,,,76,127
52913,note_off,109,0,0,,4,,,76,127
52914,note_on,1,0,0,,12,,,71,127
53023,note_off,109,0,0,,12,,,71,127
53024,note_on,1,0,0,,0,,,72,127
53133,note_off,109,0,0,,0,,,72,127
53134,note_on,1,0,0,,8,,,68,127
53243,note_off,109,0,0,,8,,,68,127
53243,note_off,0,0,0,,0,,,60,127
53244,note_on,1,0,0,,5,,,65,127
53244,note_on,0,0,0,,10,,,69,127
53353,note_off,109,0,0,,5,,,65,127
53354,note_on,1,0,0,,4,,,64,127
53463,note_off,109,0,0,,4,,,64,127
53464,note_on,1,0,0,,2,,,62,127
53573,note_off,109,0,0,,2,,,62,127
53574,note_on,1,0,0,,0,,,60,127
53599,note_off,25,0,0,,10,,,69,127
53682,note_off,83,0,0,,0,,,60,127
53683,note_on,1,0,0,,12,,,59,127
53683,note_on,0,0,0,,2,,,74,127
53792,note_off,109,0,0,,2,,,74,127
53793,note_on,1,0,0,,0,,,72,127
53902,note_off,109,0,0,,0,,,72,127
53903,note_on,1,0,0,,12,,,71,127
54012,note_off,109,0,0,,12,,,71,127
54013,note_on,1,0,0,,10,,,69,127
54122,note_off,109,0,0,,10,,,69,127
54122,note_off,0,0,0,,12,,,59,127
54123,note_on,1,0,0,,4,,,64,127
54123,note_on,0,0,0,,8,,,68,127
54232,note_off,109,0,0,,4,,,64,127
54233,note_on,1,0,0,,2,,,62,127
54342,note_off,109,0,0,,2,,,62,127
54343,note_on,1,0,0,,0,,,60,127
54398,note_off,55,0,0,,8,,,68,127
54452,note_off,54,0,0,,0,,,60,127
54453,note_on,1,0,0,,12,,,59,127
54572,note_off,119,0,0,,12,,,59,127
54572,note_on,0,0,0,,10,,,57,127
54572,note_on,0,0,0,,0,,,72,127
54681,note_off,109,0,0,,0,,,72,127
54682,note_on,1,0,0,,4,,,76,127
54791,note_off,109,0,0,,4,,,76,127
54792,note_on,1,0,0,,2,,,74,127
54901,note_off,109,0,0,,2,,,74,127
54902,note_on,1,0,0,,0,,,72,127
55011,note_off,109,0,0,,0,,,72,127
55011,note_off,0,0,0,,10,,,57,127
55012,note_on,1,0,0,,2,,,50,127
55012,note_on,0,0,0,,12,,,71,127
55121,note_off,109,0,0,,12,,,71,127
55122,note_on,1,0,0,,10,,,69,127
55231,note_off,109,0,0,,10,,,69,127
55232,note_on,1,0,0,,8,,,68,127
55341,note_off,109,0,0,,8,,,68,127
55342,note_on,1,0,0,,10,,,69,127
55447,note_off,105,0,0,,2,,,50,127
55465,note_off,18,0,0,,10,,,69,127
55470,note_on,5,0,0,,8,,,68,127
55580,note_on,110,0,0,,4,,,76,127
55689,note_off,109,0,0,,4,,,76,127
55689,note_off,0,0,0,,8,,,68,127
55690,note_on,1,0,0,,8,,,68,127
55690,note_on,0,0,0,,12,,,59,127
55690,note_on,0,0,0,,4,,,52,127
55800,note_on,110,0,0,,4,,,64,127
55909,note_off,109,0,0,,4,,,64,127
55909,note_off,0,0,0,,8,,,68,127
55910,note_on,1,0,0,,5,,,65,127
56020,note_off,110,0,0,,4,,,52,127
56020,note_off,0,0,0,,12,,,59,127
56020,note_on,0,0,0,,2,,,74,127
56129,note_off,109,0,0,,2,,,74,127
56129,note_off,0,0,0,,5,,,65,127
56130,note_on,1,0,0,,5,,,65,127
56130,note_on,0,0,0,,2,,,50,127
56130,note_on,0,0,0,,10,,,57,127
56240,note_on,110,0,0,,2,,,62,127
56349,note_off,109,0,0,,2,,,62,127
56349,note_off,0,0,0,,5,,,65,127
56359,note_on,10,0,0,,8,,,68,127
56460,note_off,101,0,0,,10,,,57,127
56460,note_off,0,0,0,,2,,,50,127
56469,note_on,9,0,0,,4,,,76,127
56578,note_off,109,0,0,,4,,,76,127
56578,note_off,0,0,0,,8,,,68,127
56579,note_on,1,0,0,,8,,,68,127
56579,note_on,0,0,0,,12,,,59,127
56579,note_on,0,0,0,,4,,,52,127
56689,note_on,110,0,0,,4,,,64,127
56798,note_off,109,0,0,,4,,,64,127
56798,note_off,0,0,0,,8,,,68,127
56799,note_on,1,0,0,,5,,,65,127
56909,note_off,110,0,0,,4,,,52,127
56909,note_off,0,0,0,,12,,,59,127
56909,note_on,0,0,0,,2,,,74,127
57018,note_off,109,0,0,,2,,,74,127
57018,note_off,0,0,0,,5,,,65,127
57019,note_on,1,0,0,,5,,,65,127
57019,note_on,0,0,0,,10,,,57,127
57019,note_on,0,0,0,,2,,,50,127
57129,note_on,110,0,0,,2,,,62,127
57238,note_off,109,0,0,,2,,,50,127
57238,note_off,0,0,0,,10,,,57,127
57238,note_off,0,0,0,,5,,,65,127
57248,note_on,10,0,0,,8,,,56,127
57248,note_on,0,0,0,,12,,,71,127
57250,note_off,2,0,0,,2,,,62,127
57357,note_on,107,0,0,,4,,,64,127
57373,note_off,16,0,0,,8,,,56,127
57466,note_off,93,0,0,,4,,,64,127
57467,note_on,1,0,0,,8,,,56,127
57577,note_on,110,0,0,,4,,,52,127
57593,note_off,16,0,0,,8,,,56,127
57686,note_off,93,0,0,,4,,,52,127
57687,note_on,1,0,0,,5,,,53,127
57797,note_on,110,0,0,,2,,,62,127
57813,note_off,16,0,0,,5,,,53,127
57906,note_off,93,0,0,,2,,,62,127
57906,note_off,0,0,0,,12,,,71,127
57907,note_on,1,0,0,,5,,,53,127
57907,note_on,0,0,0,,12,,,71,127
58017,note_on,110,0,0,,2,,,50,127
58033,note_off,16,0,0,,5,,,53,127
58126,note_off,93,0,0,,2,,,50,127
58127,note_on,1,0,0,,8,,,56,127
58237,note_on,110,0,0,,4,,,64,127
58253,note_off,16,0,0,,8,,,56,127
58346,note_off,93,0,0,,4,,,64,127
58346,note_off,0,0,0,,12,,,71,127
58347,note_on,1,0,0,,8,,,56,127
58347,note_on,0,0,0,,12,,,71,127
58457,note_on,110,0,0,,4,,,52,127
58473,note_off,16,0,0,,8,,,56,127
58566,note_off,93,0,0,,4,,,52,127
58567,note_on,1,0,0,,5,,,53,127
58677,note_on,110,0,0,,2,,,62,127
58693,note_off,16,0,0,,5,,,53,127
58786,note_off,93,0,0,,2,,,62,127
58786,note_off,0,0,0,,12,,,71,127
58787,note_on,1,0,0,,5,,,53,127
58787,note_on,0,0,0,,12,,,71,127
58897,note_on,110,0,0,,2,,,50,127
58913,note_off,16,0,0,,5,,,53,127
59006,note_off,93,0,0,,2,,,50,127
59007,note_on,1,0,0,,4,,,52,127
59116,note_off,109,0,0,,12,,,71,127
59135,note_on,19,0,0,,2,,,74,127
59244,note_off,109,0,0,,2,,,74,127
59245,note_on,1,0,0,,1,,,73,127
59354,note_off,109,0,0,,1,,,73,127
59355,note_on,1,0,0,,2,,,74,127
59464,note_off,109,0,0,,2,,,74,127
59465,note_on,1,0,0,,4,,,76,127
59465,note_on,0,0,0,,4,,,64,127
59574,note_off,109,0,0,,4,,,76,127
59575,note_on,1,0,0,,2,,,74,127
59665,note_off,90,0,0,,4,,,52,127
59683,note_off,18,0,0,,2,,,74,127
59684,note_on,1,0,0,,1,,,73,127
59793,note_off,109,0,0,,1,,,73,127
59794,note_on,1,0,0,,2,,,74,127
59903,note_off,109,0,0,,2,,,74,127
59903,note_off,0,0,0,,4,,,64,127
59904,note_on,1,0,0,,1,,,73,127
60014,note_on,110,0,0,,10,,,81,127
60123,note_off,109,0,0,,10,,,81,127
60123,note_off,0,0,0,,1,,,73,127
60124,note_on,1,0,0,,1,,,73,127
60124,note_on,0,0,0,,4,,,64,127
60124,note_on,0,0,0,,10,,,57,127
60234,note_on,110,0,0,,10,,,69,127
60343,note_off,109,0,0,,10,,,69,127
60343,note_off,0,0,0,,1,,,73,127
60344,note_on,1,0,0,,11,,,70,127
60454,note_off,110,0,0,,10,,,57,127
60454,note_off,0,0,0,,4,,,64,127
60454,note_on,0,0,0,,7,,,79,127
60563,note_off,109,0,0,,7,,,79,127
60563,note_off,0,0,0,,11,,,70,127
60564,note_on,1,0,0,,11,,,70,127
60564,note_on,0,0,0,,2,,,62,127
60564,note_on,0,0,0,,7,,,55,127
60674,note_on,110,0,0,,7,,,67,127
60783,note_off,109,0,0,,7,,,67,127
60783,note_off,0,0,0,,11,,,70,127
60793,note_on,10,0,0,,1,,,73,127
60894,note_off,101,0,0,,7,,,55,127
60894,note_off,0,0,0,,2,,,62,127
60903,note_on,9,0,0,,10,,,81,127
61012,note_off,109,0,0,,10,,,81,127
61012,note_off,0,0,0,,1,,,73,127
61013,note_on,1,0,0,,1,,,73,127
61013,note_on,0,0,0,,4,,,64,127
61013,note_on,0,0,0,,10,,,57,127
61123,note_on,110,0,0,,10,,,69,127
61232,note_off,109,0,0,,10,,,69,127
61232,note_off,0,0,0,,1,,,73,127
61233,note_on,1,0,0,,11,,,70,127
61343,note_off,110,0,0,,10,,,57,127
61343,note_off,0,0,0,,4,,,64,127
61343,note_on,0,0,0,,7,,,79,127
61452,note_off,109,0,0,,7,,,79,127
61452,note_off,0,0,0,,11,,,70,127
61453,note_on,1,0,0,,11,,,70,127
61453,note_on,0,0,0,,2,,,62,127
61453,note_on,0,0,0,,7,,,55,127
61563,note_on,110,0,0,,7,,,67,127
61672,note_off,109,0,0,,7,,,67,127
61672,note_off,0,0,0,,7,,,55,127
61672,note_off,0,0,0,,2,,,62,127
61672,note_off,0,0,0,,11,,,70,127
61673,note_on,1,0,0,,4,,,76,127
61673,note_on,0,0,0,,1,,,61,127
61783,note_on,110,0,0,,10,,,69,127
61799,note_off,16,0,0,,1,,,61,127
61892,note_off,93,0,0,,10,,,69,127
61893,note_on,1,0,0,,1,,,61,127
62003,note_on,110,0,0,,10,,,57,127
62019,note_off,16,0,0,,1,,,61,127
62112,note_off,93,0,0,,10,,,57,127
62113,note_on,1,0,0,,11,,,58,127
62223,note_on,110,0,0,,7,,,67,127
62239,note_off,16,0,0,,11,,,58,127
62332,note_off,93,0,0,,7,,,67,127
62332,note_off,0,0,0,,4,,,76,127
62333,note_on,1,0,0,,4,,,76,127
62333,note_on,0,0,0,,11,,,58,127
62443,note_on,110,0,0,,7,,,55,127
62459,note_off,16,0,0,,11,,,58,127
62552,note_off,93,0,0,,7,,,55,127
62553,note_on,1,0,0,,1,,,61,127
62663,note_on,110,0,0,,10,,,69,127
62679,note_off,16,0,0,,1,,,61,127
62772,note_off,93,0,0,,10,,,69,127
62772,note_off,0,0,0,,4,,,76,127
62773,note_on,1,0,0,,4,,,76,127
62773,note_on,0,0,0,,1,,,61,127
62883,note_on,110,0,0,,10,,,57,127
62899,note_off,16,0,0,,1,,,61,127
62992,note_off,93,0,0,,10,,,57,127
62993,note_on,1,0,0,,11,,,58,127
63103,note_on,110,0,0,,7,,,67,127
63119,note_off,16,0,0,,11,,,58,127
63212,note_off,93,0,0,,7,,,67,127
63212,note_off,0,0,0,,4,,,76,127
63213,note_on,1,0,0,,4,,,76,127
63213,note_on,0,0,0,,11,,,58,127
63323,note_on,110,0,0,,7,,,55,127
63339,note_off,16,0,0,,11,,,58,127
63432,note_off,93,0,0,,7,,,55,127
63433,note_on,1,0,0,,10,,,57,127
63542,note_off,109,0,0,,4,,,76,127
63557,note_on,15,0,0,,7,,,79,127
63666,note_off,109,0,0,,7,,,79,127
63672,note_on,6,0,0,,5,,,77,127
63781,note_off,109,0,0,,5,,,77,127
63782,note_on,1,0,0,,7,,,79,127
63891,note_off,109,0,0,,7,,,79,127
63892,note_on,1,0,0,,10,,,69,127
63892,note_on,0,0,0,,10,,,81,127
64001,note_off,109,0,0,,10,,,81,127
64002,note_on,1,0,0,,7,,,79,127
64092,note_off,90,0,0,,10,,,57,127
64110,note_off,18,0,0,,7,,,79,127
64111,note_on,1,0,0,,5,,,77,127
64220,note_off,109,0,0,,5,,,77,127
64221,note_on,1,0,0,,4,,,76,127
64330,note_off,109,0,0,,10,,,69,127
64340,note_off,10,0,0,,4,,,76,127
64340,note_on,0,0,0,,5,,,77,127
64450,note_on,110,0,0,,2,,,86,127
64546,note_off,96,0,0,,5,,,77,127
64559,note_off,13,0,0,,2,,,86,127
64560,note_on,1,0,0,,2,,,62,127
64560,note_on,0,0,0,,2,,,50,127
64560,note_on,0,0,0,,5,,,77,127
64670,note_on,110,0,0,,2,,,74,127
64766,note_off,96,0,0,,5,,,77,127
64779,note_off,13,0,0,,2,,,74,127
64780,note_on,1,0,0,,3,,,75,127
64890,note_off,110,0,0,,2,,,50,127
64890,note_off,0,0,0,,2,,,62,127
64890,note_on,0,0,0,,0,,,84,127
64986,note_off,96,0,0,,3,,,75,127
64999,note_off,13,0,0,,0,,,84,127
65000,note_on,1,0,0,,10,,,57,127
65000,note_on,0,0,0,,10,,,45,127
65000,note_on,0,0,0,,3,,,75,127
65110,note_on,110,0,0,,0,,,72,127
65206,note_off,96,0,0,,3,,,75,127
65219,note_off,13,0,0,,0,,,72,127
65220,note_on,1,0,0,,2,,,74,127
65330,note_off,110,0,0,,10,,,45,127
65330,note_off,0,0,0,,10,,,57,127
65330,note_on,0,0,0,,11,,,82,127
65426,note_off,96,0,0,,2,,,74,127
65439,note_off,13,0,0,,11,,,82,127
65440,note_on,1,0,0,,11,,,46,127
65440,note_on,0,0,0,,11,,,58,127
65440,note_on,0,0,0,,2,,,74,127
65550,note_on,110,0,0,,11,,,70,127
65646,note_off,96,0,0,,2,,,74,127
65659,note_off,13,0,0,,11,,,70,127
65660,note_on,1,0,0,,0,,,72,127
65770,note_off,110,0,0,,11,,,58,127
65770,note_off,0,0,0,,11,,,46,127
65770,note_on,0,0,0,,10,,,81,127
65866,note_off,96,0,0,,0,,,72,127
65879,note_off,13,0,0,,10,,,81,127
65880,note_on,1,0,0,,5,,,41,127
65880,note_on,0,0,0,,5,,,53,127
65880,note_on,0,0,0,,0,,,72,127
65990,note_on,110,0,0,,10,,,69,127
66086,note_off,96,0,0,,0,,,72,127
66099,note_off,13,0,0,,10,,,69,127
66100,note_on,1,0,0,,11,,,70,127
66210,note_off,110,0,0,,5,,,53,127
66210,note_off,0,0,0,,5,,,41,127
66210,note_on,0,0,0,,7,,,79,127
66306,note_off,96,0,0,,11,,,70,127
66319,note_off,13,0,0,,7,,,79,127
66320,note_on,1,0,0,,7,,,55,127
66320,note_on,0,0,0,,7,,,43,127
66320,note_on,0,0,0,,11,,,70,127
66430,note_on,110,0,0,,7,,,67,127
66526,note_off,96,0,0,,11,,,70,127
66539,note_off,13,0,0,,7,,,67,127
66540,note_on,1,0,0,,8,,,68,127
66650,note_off,110,0,0,,7,,,43,127
66650,note_off,0,0,0,,7,,,55,127
66650,note_on,0,0,0,,5,,,77,127
66746,note_off,96,0,0,,8,,,68,127
66759,note_off,13,0,0,,5,,,77,127
66760,note_on,1,0,0,,2,,,50,127
66760,note_on,0,0,0,,2,,,38,127
66760,note_on,0,0,0,,8,,,68,127
66870,note_on,110,0,0,,5,,,65,127
66966,note_off,96,0,0,,8,,,68,127
66979,note_off,13,0,0,,5,,,65,127
66980,note_on,1,0,0,,7,,,67,127
67090,note_off,110,0,0,,2,,,38,127
67090,note_off,0,0,0,,2,,,50,127
67090,note_on,0,0,0,,3,,,75,127
67186,note_off,96,0,0,,7,,,67,127
67199,note_off,13,0,0,,3,,,75,127
67200,note_on,1,0,0,,3,,,51,127
67200,note_on,0,0,0,,3,,,39,127
67200,note_on,0,0,0,,7,,,67,127
67310,note_on,110,0,0,,3,,,63,127
67406,note_off,96,0,0,,7,,,67,127
67419,note_off,13,0,0,,3,,,63,127
67420,note_on,1,0,0,,5,,,65,127
67530,note_off,110,0,0,,3,,,39,127
67530,note_off,0,0,0,,3,,,51,127
67530,note_on,0,0,0,,2,,,74,127
67626,note_off,96,0,0,,5,,,65,127
67639,note_off,13,0,0,,2,,,74,127
67640,note_on,1,0,0,,11,,,46,127
67640,note_on,0,0,0,,5,,,65,127
67750,note_on,110,0,0,,2,,,62,127
67846,note_off,96,0,0,,5,,,65,127
67859,note_off,13,0,0,,2,,,62,127
67859,note_off,0,0,0,,11,,,46,127
67860,note_on,1,0,0,,0,,,48,127
67860,note_on,0,0,0,,3,,,63,127
67969,note_off,109,0,0,,3,,,63,127
67970,note_on,1,0,0,,7,,,67,127
68079,note_off,109,0,0,,7,,,67,127
68079,note_off,0,0,0,,0,,,48,127
68080,note_on,1,0,0,,3,,,51,127
68080,note_on,0,0,0,,0,,,72,127
68189,note_off,109,0,0,,0,,,72,127
68190,note_on,1,0,0,,7,,,67,127
68299,note_off,109,0,0,,7,,,67,127
68299,note_off,0,0,0,,3,,,51,127
68300,note_on,1,0,0,,5,,,53,127
68300,note_on,0,0,0,,8,,,68,127
68409,note_off,109,0,0,,8,,,68,127
68410,note_on,1,0,0,,5,,,65,127
68519,note_off,109,0,0,,5,,,65,127
68519,note_off,0,0,0,,5,,,53,127
68520,note_on,1,0,0,,8,,,56,127
68520,note_on,0,0,0,,2,,,74,127
68629,note_off,109,0,0,,2,,,74,127
68630,note_on,1,0,0,,5,,,77,127
68739,note_off,109,0,0,,5,,,77,127
68739,note_off,0,0,0,,8,,,56,127
68740,note_on,1,0,0,,7,,,55,127
68742,note_on,2,0,0,,0,,,72,127
68975,note_on,233,0,0,,12,,,71,127
68980,note_off,5,0,0,,0,,,72,127
69206,note_on,226,0,0,,7,,,43,127
69467,note_on,261,0,0,,7,,,79,127
69555,note_off,88,0,0,,12,,,71,127
69617,note_off,62,0,0,,7,,,55,127
69644,note_off,27,0,0,,7,,,43,127
69685,note_off,41,0,0,,7,,,79,127
69691,note_on,6,0,0,,7,,,79,127
69909,note_off,218,0,0,,7,,,79,127
69910,note_on,1,0,0,,7,,,79,127
69910,note_on,0,0,0,,3,,,75,127
69910,note_on,0,0,0,,0,,,72,127
70128,note_off,218,0,0,,0,,,72,127
70128,note_off,0,0,0,,3,,,75,127
70128,note_off,0,0,0,,7,,,79,127
70129,note_on,1,0,0,,7,,,79,127
70129,note_on,0,0,0,,0,,,72,127
70129,note_on,0,0,0,,3,,,75,127
70347,note_off,218,0,0,,3,,,75,127
70347,note_off,0,0,0,,0,,,72,127
70347,note_off,0,0,0,,7,,,79,127
70348,note_on,1,0,0,,8,,,80,127
70348,note_on,0,0,0,,0,,,72,127
70348,note_on,0,0,0,,3,,,75,127
70457,note_off,109,0,0,,8,,,80,127
70458,note_on,1,0,0,,11,,,82,127
70567,note_off,109,0,0,,11,,,82,127
70568,note_on,1,0,0,,8,,,80,127
70568,note_on,0,0,0,,11,,,82,127
70677,note_off,109,0,0,,11,,,82,127
70677,note_off,0,0,0,,8,,,80,127
70678,note_off,1,0,0,,3,,,75,127
70678,note_off,0,0,0,,0,,,72,127
70678,note_on,0,0,0,,7,,,79,127
70787,note_off,109,0,0,,7,,,79,127
70788,note_on,1,0,0,,5,,,77,127
70788,note_on,0,0,0,,2,,,74,127
70788,note_on,0,0,0,,12,,,71,127
71006,note_off,218,0,0,,12,,,71,127
71006,note_off,0,0,0,,2,,,74,127
71007,note_on,1,0,0,,12,,,71,127
71007,note_on,0,0,0,,2,,,74,127
71225,note_off,218,0,0,,2,,,74,127
71225,note_off,0,0,0,,12,,,71,127
71225,note_off,0,0,0,,5,,,77,127
71226,note_on,1,0,0,,5,,,77,127
71226,note_on,0,0,0,,12,,,71,127
71226,note_on,0,0,0,,2,,,74,127
71444,note_off,218,0,0,,5,,,77,127
71445,note_on,1,0,0,,5,,,77,127
71555,note_off,110,0,0,,2,,,74,127
71555,note_off,0,0,0,,12,,,71,127
71664,note_off,109,0,0,,5,,,77,127
71665,note_on,1,0,0,,2,,,74,127
71665,note_on,0,0,0,,0,,,72,127
71665,note_on,0,0,0,,10,,,69,127
71665,note_on,0,0,0,,6,,,66,127
71883,note_off,218,0,0,,6,,,66,127
71883,note_off,0,0,0,,10,,,69,127
71883,note_off,0,0,0,,0,,,72,127
71883,note_off,0,0,0,,2,,,74,127
71884,note_on,1,0,0,,5,,,77,127
71884,note_on,0,0,0,,0,,,72,127
71884,note_on,0,0,0,,6,,,66,127
71884,note_on,0,0,0,,10,,,69,127
71939,note_on,55,0,0,,3,,,75,127
71956,note_off,17,0,0,,5,,,77,127
71994,note_on,38,0,0,,5,,,77,127
72011,note_off,17,0,0,,3,,,75,127
72049,note_on,38,0,0,,3,,,75,127
72066,note_off,17,0,0,,5,,,77,127
72103,note_off,37,0,0,,10,,,69,127
72103,note_off,0,0,0,,6,,,66,127
72103,note_off,0,0,0,,0,,,72,127
72104,note_on,1,0,0,,5,,,77,127
72104,note_on,0,0,0,,10,,,69,127
72104,note_on,0,0,0,,0,,,72,127
72104,note_on,0,0,0,,6,,,66,127
72121,note_off,17,0,0,,3,,,75,127
72159,note_on,38,0,0,,3,,,75,127
72176,note_off,17,0,0,,5,,,77,127
72214,note_on,38,0,0,,2,,,74,127
72231,note_off,17,0,0,,3,,,75,127
72269,note_on,38,0,0,,3,,,75,127
72286,note_off,17,0,0,,2,,,74,127
72323,note_off,37,0,0,,6,,,66,127
72323,note_off,0,0,0,,0,,,72,127
72323,note_off,0,0,0,,10,,,69,127
72324,note_on,1,0,0,,0,,,72,127
72324,note_on,0,0,0,,7,,,67,127
72542,note_off,218,0,0,,0,,,72,127
72543,note_off,1,0,0,,3,,,75,127
72543,note_on,0,0,0,,2,,,74,127
72543,note_on,0,0,0,,0,,,72,127
72598,note_on,55,0,0,,12,,,71,127
72615,note_off,17,0,0,,0,,,72,127
72653,note_on,38,0,0,,10,,,69,127
72670,note_off,17,0,0,,12,,,71,127
72761,note_off,91,0,0,,10,,,69,127
72761,note_off,0,0,0,,7,,,67,127
72762,note_on,1,0,0,,7,,,67,127
72980,note_off,218,0,0,,2,,,74,127
72990,note_on,10,0,0,,7,,,79,127
73208,note_off,218,0,0,,7,,,79,127
73209,note_on,1,0,0,,7,,,79,127
73418,note_off,209,0,0,,7,,,67,127
73427,note_off,9,0,0,,7,,,79,127
73428,note_on,1,0,0,,7,,,79,127
73428,note_on,0,0,0,,11,,,70,127
73428,note_on,0,0,0,,0,,,72,127
73428,note_on,0,0,0,,4,,,64,127
73646,note_off,218,0,0,,4,,,64,127
73646,note_off,0,0,0,,0,,,72,127
73646,note_off,0,0,0,,11,,,70,127
73646,note_off,0,0,0,,7,,,79,127
73647,note_on,1,0,0,,7,,,79,127
73647,note_on,0,0,0,,0,,,72,127
73647,note_on,0,0,0,,4,,,64,127
73647,note_on,0,0,0,,11,,,70,127
73865,note_off,218,0,0,,11,,,70,127
73865,note_off,0,0,0,,4,,,64,127
73865,note_off,0,0,0,,0,,,72,127
73866,note_on,1,0,0,,0,,,72,127
73866,note_on,0,0,0,,4,,,64,127
73866,note_on,0,0,0,,11,,,70,127
73975,note_off,109,0,0,,7,,,79,127
73976,note_on,1,0,0,,8,,,80,127
74031,note_on,55,0,0,,11,,,82,127
74048,note_off,17,0,0,,8,,,80,127
74141,note_off,93,0,0,,11,,,82,127
74141,note_on,0,0,0,,8,,,80,127
74196,note_off,55,0,0,,11,,,70,127
74196,note_off,0,0,0,,4,,,64,127
74196,note_off,0,0,0,,0,,,72,127
74196,note_on,0,0,0,,11,,,82,127
74213,note_off,17,0,0,,8,,,80,127
74251,note_on,38,0,0,,8,,,80,127
74268,note_off,17,0,0,,11,,,82,127
74306,note_on,38,0,0,,11,,,82,127
74306,note_on,0,0,0,,0,,,72,127
74306,note_on,0,0,0,,8,,,68,127
74306,note_on,0,0,0,,5,,,65,127
74323,note_off,17,0,0,,8,,,80,127
74361,note_on,38,0,0,,8,,,80,127
74378,note_off,17,0,0,,11,,,82,127
74416,note_on,38,0,0,,7,,,79,127
74433,note_off,17,0,0,,8,,,80,127
74524,note_off,91,0,0,,7,,,79,127
74524,note_off,0,0,0,,5,,,65,127
74524,note_off,0,0,0,,8,,,68,127
74524,note_off,0,0,0,,0,,,72,127
74525,note_on,1,0,0,,5,,,77,127
74525,note_on,0,0,0,,8,,,68,127
74525,note_on,0,0,0,,0,,,72,127
74525,note_on,0,0,0,,5,,,65,127
74743,note_off,218,0,0,,5,,,65,127
74743,note_off,0,0,0,,0,,,72,127
74743,note_off,0,0,0,,8,,,68,127
74743,note_off,0,0,0,,5,,,77,127
74744,note_on,1,0,0,,5,,,77,127
74744,note_on,0,0,0,,5,,,65,127
74744,note_on,0,0,0,,0,,,72,127
74744,note_on,0,0,0,,8,,,68,127
74962,note_off,218,0,0,,5,,,77,127
74963,note_on,1,0,0,,5,,,77,127
75073,note_off,110,0,0,,8,,,68,127
75073,note_off,0,0,0,,0,,,72,127
75073,note_off,0,0,0,,5,,,65,127
75182,note_off,109,0,0,,5,,,77,127
75183,note_on,1,0,0,,3,,,75,127
75183,note_on,0,0,0,,11,,,58,127
75183,note_on,0,0,0,,5,,,65,127
75183,note_on,0,0,0,,7,,,67,127
75401,note_off,218,0,0,,7,,,67,127
75401,note_off,0,0,0,,5,,,65,127
75401,note_off,0,0,0,,11,,,58,127
75401,note_off,0,0,0,,3,,,75,127
75402,note_on,1,0,0,,3,,,75,127
75402,note_on,0,0,0,,7,,,67,127
75402,note_on,0,0,0,,11,,,58,127
75402,note_on,0,0,0,,5,,,65,127
75457,note_on,55,0,0,,1,,,73,127
75474,note_off,17,0,0,,3,,,75,127
75512,note_on,38,0,0,,3,,,75,127
75529,note_off,17,0,0,,1,,,73,127
75567,note_on,38,0,0,,1,,,73,127
75584,note_off,17,0,0,,3,,,75,127
75621,note_off,37,0,0,,5,,,65,127
75621,note_off,0,0,0,,11,,,58,127
75621,note_off,0,0,0,,7,,,67,127
75622,note_on,1,0,0,,3,,,75,127
75622,note_on,0,0,0,,11,,,58,127
75622,note_on,0,0,0,,5,,,65,127
75622,note_on,0,0,0,,7,,,67,127
75639,note_off,17,0,0,,1,,,73,127
75677,note_on,38,0,0,,1,,,73,127
75694,note_off,17,0,0,,3,,,75,127
75732,note_on,38,0,0,,0,,,72,127
75749,note_off,17,0,0,,1,,,73,127
75787,note_on,38,0,0,,1,,,73,127
75804,note_off,17,0,0,,0,,,72,127
75841,note_off,37,0,0,,7,,,67,127
75841,note_off,0,0,0,,5,,,65,127
75841,note_off,0,0,0,,11,,,58,127
75859,note_off,18,0,0,,1,,,73,127
75860,note_on,1,0,0,,4,,,64,127
75860,note_on,0,0,0,,0,,,60,127
75860,note_on,0,0,0,,7,,,67,127
75860,note_on,0,0,0,,0,,,72,127
75969,note_off,109,0,0,,0,,,72,127
75970,note_on,1,0,0,,7,,,79,127
76079,note_off,109,0,0,,7,,,79,127
76080,note_on,1,0,0,,11,,,70,127
76189,note_off,109,0,0,,11,,,70,127
76189,note_off,0,0,0,,7,,,67,127
76190,note_on,1,0,0,,7,,,67,127
76299,note_off,109,0,0,,7,,,67,127
76299,note_off,0,0,0,,0,,,60,127
76299,note_off,0,0,0,,4,,,64,127
76300,note_on,1,0,0,,5,,,65,127
76300,note_on,0,0,0,,0,,,60,127
76300,note_on,0,0,0,,8,,,68,127
76409,note_off,109,0,0,,8,,,68,127
76410,note_on,1,0,0,,5,,,77,127
76519,note_off,109,0,0,,5,,,77,127
76520,note_on,1,0,0,,8,,,68,127
76629,note_off,109,0,0,,8,,,68,127
76629,note_off,0,0,0,,5,,,65,127
76630,note_on,1,0,0,,5,,,65,127
76739,note_off,109,0,0,,5,,,65,127
76739,note_off,0,0,0,,0,,,60,127
76740,note_on,1,0,0,,0,,,60,127
76740,note_on,0,0,0,,7,,,67,127
76740,note_on,0,0,0,,11,,,70,127
76849,note_off,109,0,0,,11,,,70,127
76850,note_on,1,0,0,,7,,,79,127
76959,note_off,109,0,0,,7,,,79,127
76960,note_on,1,0,0,,11,,,70,127
77069,note_off,109,0,0,,11,,,70,127
77069,note_off,0,0,0,,7,,,67,127
77070,note_on,1,0,0,,7,,,67,127
77179,note_off,109,0,0,,7,,,67,127
77179,note_off,0,0,0,,0,,,60,127
77180,note_on,1,0,0,,5,,,65,127
77180,note_on,0,0,0,,0,,,60,127
77180,note_on,0,0,0,,8,,,68,127
77289,note_off,109,0,0,,8,,,68,127
77290,note_on,1,0,0,,5,,,77,127
77399,note_off,109,0,0,,5,,,77,127
77400,note_on,1,0,0,,8,,,68,127
77509,note_off,109,0,0,,8,,,68,127
77509,note_off,0,0,0,,5,,,65,127
77510,note_on,1,0,0,,5,,,65,127
77619,note_off,109,0,0,,5,,,65,127
77619,note_off,0,0,0,,0,,,60,127
77638,note_on,19,0,0,,1,,,73,127
77748,note_on,110,0,0,,7,,,67,127
77857,note_off,109,0,0,,7,,,67,127
77858,note_on,1,0,0,,11,,,58,127
77967,note_off,109,0,0,,11,,,58,127
77968,note_on,1,0,0,,7,,,55,127
78077,note_off,109,0,0,,7,,,55,127
78078,note_on,1,0,0,,8,,,56,127
78188,note_on,110,0,0,,5,,,65,127
78204,note_off,16,0,0,,8,,,56,127
78297,note_off,93,0,0,,5,,,65,127
78297,note_off,0,0,0,,1,,,73,127
78298,note_on,1,0,0,,0,,,72,127
78298,note_on,0,0,0,,8,,,56,127
78408,note_on,110,0,0,,5,,,53,127
78424,note_off,16,0,0,,8,,,56,127
78517,note_off,93,0,0,,5,,,53,127
78518,note_on,1,0,0,,11,,,58,127
78628,note_on,110,0,0,,7,,,67,127
78644,note_off,16,0,0,,11,,,58,127
78687,note_off,43,0,0,,0,,,72,127
78736,note_off,49,0,0,,7,,,67,127
78737,note_on,1,0,0,,1,,,73,127
78737,note_on,0,0,0,,11,,,58,127
78847,note_on,110,0,0,,7,,,55,127
78863,note_off,16,0,0,,11,,,58,127
78956,note_off,93,0,0,,7,,,55,127
78957,note_on,1,0,0,,8,,,56,127
79067,note_on,110,0,0,,5,,,65,127
79083,note_off,16,0,0,,8,,,56,127
79176,note_off,93,0,0,,5,,,65,127
79176,note_off,0,0,0,,1,,,73,127
79177,note_on,1,0,0,,0,,,72,127
79177,note_on,0,0,0,,8,,,56,127
79287,note_on,110,0,0,,5,,,53,127
79303,note_off,16,0,0,,8,,,56,127
79396,note_off,93,0,0,,5,,,53,127
79406,note_on,10,0,0,,7,,,55,127
79505,note_off,99,0,0,,0,,,72,127
79524,note_on,19,0,0,,2,,,74,127
79633,note_off,109,0,0,,2,,,74,127
79634,note_on,1,0,0,,12,,,71,127
79743,note_off,109,0,0,,12,,,71,127
79744,note_on,1,0,0,,0,,,72,127
79843,note_off,99,0,0,,7,,,55,127
79852,note_off,9,0,0,,0,,,72,127
79853,note_on,1,0,0,,7,,,67,127
79853,note_on,0,0,0,,2,,,74,127
79962,note_off,109,0,0,,2,,,74,127
79963,note_on,1,0,0,,3,,,75,127
80072,note_off,109,0,0,,3,,,75,127
80073,note_on,1,0,0,,5,,,77,127
80182,note_off,109,0,0,,5,,,77,127
80183,note_on,1,0,0,,8,,,68,127
80292,note_off,109,0,0,,8,,,68,127
80292,note_off,0,0,0,,7,,,67,127
80293,note_on,1,0,0,,3,,,63,127
80293,note_on,0,0,0,,0,,,60,127
80293,note_on,0,0,0,,7,,,67,127
80402,note_off,109,0,0,,7,,,67,127
80403,note_on,1,0,0,,7,,,79,127
80512,note_off,109,0,0,,7,,,79,127
80513,note_on,1,0,0,,5,,,77,127
80622,note_off,109,0,0,,5,,,77,127
80623,note_on,1,0,0,,3,,,75,127
80732,note_off,109,0,0,,3,,,75,127
80732,note_off,0,0,0,,0,,,60,127
80732,note_off,0,0,0,,3,,,63,127
80733,note_on,1,0,0,,0,,,60,127
80733,note_on,0,0,0,,5,,,53,127
80733,note_on,0,0,0,,2,,,62,127
80733,note_on,0,0,0,,2,,,74,127
80842,note_off,109,0,0,,2,,,74,127
80843,note_on,1,0,0,,0,,,72,127
80952,note_off,109,0,0,,0,,,72,127
80953,note_on,1,0,0,,12,,,71,127
81062,note_off,109,0,0,,12,,,71,127
81063,note_on,1,0,0,,0,,,72,127
81164,note_off,101,0,0,,0,,,72,127
81172,note_off,8,0,0,,2,,,62,127
81172,note_off,0,0,0,,5,,,53,127
81172,note_off,0,0,0,,0,,,60,127
81173,note_on,1,0,0,,7,,,55,127
81173,note_on,0,0,0,,0,,,72,127
81402,note_on,229,0,0,,7,,,43,127
81631,note_off,229,0,0,,0,,,72,127
81636,note_on,5,0,0,,12,,,71,127
81841,note_off,205,0,0,,7,,,43,127
81855,note_off,14,0,0,,12,,,71,127
81888,note_on,33,0,0,,7,,,67,127
82051,note_off,163,0,0,,7,,,55,127
82106,note_off,55,0,0,,7,,,67,127
82107,note_on,1,0,0,,11,,,70,127
82325,note_off,218,0,0,,11,,,70,127
82326,note_on,1,0,0,,8,,,68,127
82326,note_on,0,0,0,,5,,,65,127
82326,note_on,0,0,0,,7,,,55,127
82544,note_off,218,0,0,,7,,,55,127
82544,note_off,0,0,0,,5,,,65,127
82544,note_off,0,0,0,,8,,,68,127
82545,note_on,1,0,0,,5,,,77,127
82545,note_on,0,0,0,,5,,,65,127
82545,note_on,0,0,0,,7,,,55,127
82763,note_off,218,0,0,,7,,,55,127
82763,note_off,0,0,0,,5,,,65,127
82763,note_off,0,0,0,,5,,,77,127
82764,note_on,1,0,0,,3,,,75,127
82764,note_on,0,0,0,,5,,,65,127
82764,note_on,0,0,0,,7,,,55,127
82873,note_off,109,0,0,,3,,,75,127
82874,note_on,1,0,0,,2,,,74,127
82983,note_off,109,0,0,,2,,,74,127
82983,note_off,0,0,0,,7,,,55,127
82983,note_off,0,0,0,,5,,,65,127
82984,note_on,1,0,0,,0,,,72,127
82984,note_on,0,0,0,,5,,,65,127
82984,note_on,0,0,0,,7,,,55,127
83202,note_off,218,0,0,,7,,,55,127
83202,note_off,0,0,0,,5,,,65,127
83202,note_off,0,0,0,,0,,,72,127
83203,note_on,1,0,0,,12,,,71,127
83203,note_on,0,0,0,,3,,,63,127
83203,note_on,0,0,0,,7,,,55,127
83312,note_off,109,0,0,,3,,,63,127
83313,note_on,1,0,0,,2,,,62,127
83422,note_off,109,0,0,,2,,,62,127
83422,note_off,0,0,0,,7,,,55,127
83422,note_off,0,0,0,,12,,,71,127
83423,note_on,1,0,0,,0,,,72,127
83423,note_on,0,0,0,,0,,,60,127
83644,note_off,221,0,0,,0,,,72,127
83652,note_on,8,0,0,,0,,,72,127
83861,note_off,209,0,0,,0,,,60,127
83870,note_off,9,0,0,,0,,,72,127
83871,note_on,1,0,0,,3,,,75,127
84089,note_off,218,0,0,,3,,,75,127
84090,note_on,1,0,0,,1,,,73,127
84090,note_on,0,0,0,,0,,,60,127
84090,note_on,0,0,0,,11,,,70,127
84308,note_off,218,0,0,,11,,,70,127
84308,note_off,0,0,0,,0,,,60,127
84308,note_off,0,0,0,,1,,,73,127
84309,note_on,1,0,0,,0,,,84,127
84309,note_on,0,0,0,,11,,,70,127
84309,note_on,0,0,0,,0,,,60,127
84418,note_off,109,0,0,,0,,,84,127
84419,note_on,1,0,0,,11,,,82,127
84528,note_off,109,0,0,,11,,,82,127
84528,note_off,0,0,0,,0,,,60,127
84528,note_off,0,0,0,,11,,,70,127
84529,note_on,1,0,0,,8,,,80,127
84529,note_on,0,0,0,,11,,,70,127
84529,note_on,0,0,0,,0,,,60,127
84638,note_off,109,0,0,,8,,,80,127
84639,note_on,1,0,0,,7,,,79,127
84748,note_off,109,0,0,,7,,,79,127
84748,note_off,0,0,0,,0,,,60,127
84748,note_off,0,0,0,,11,,,70,127
84749,note_on,1,0,0,,5,,,77,127
84749,note_on,0,0,0,,0,,,60,127
84749,note_on,0,0,0,,11,,,70,127
84967,note_off,218,0,0,,11,,,70,127
84967,note_off,0,0,0,,0,,,60,127
84967,note_off,0,0,0,,5,,,77,127
84968,note_on,1,0,0,,4,,,76,127
84968,note_on,0,0,0,,0,,,60,127
84968,note_on,0,0,0,,8,,,68,127
85077,note_off,109,0,0,,8,,,68,127
85078,note_on,1,0,0,,7,,,67,127
85187,note_off,109,0,0,,7,,,67,127
85187,note_off,0,0,0,,0,,,60,127
85187,note_off,0,0,0,,4,,,76,127
85188,note_on,1,0,0,,5,,,77,127
85188,note_on,0,0,0,,5,,,65,127
85406,note_off,218,0,0,,5,,,77,127
85416,note_on,10,0,0,,7,,,79,127
85625,note_off,209,0,0,,5,,,65,127
85634,note_off,9,0,0,,7,,,79,127
85635,note_on,1,0,0,,11,,,82,127
85690,note_on,55,0,0,,8,,,80,127
85707,note_off,17,0,0,,11,,,82,127
85745,note_on,38,0,0,,11,,,82,127
85762,note_off,17,0,0,,8,,,80,127
85800,note_on,38,0,0,,8,,,80,127
85817,note_off,17,0,0,,11,,,82,127
85855,note_on,38,0,0,,11,,,82,127
85855,note_on,0,0,0,,5,,,65,127
85855,note_on,0,0,0,,8,,,68,127
85855,note_on,0,0,0,,0,,,72,127
85872,note_off,17,0,0,,8,,,80,127
85910,note_on,38,0,0,,8,,,80,127
85927,note_off,17,0,0,,11,,,82,127
85965,note_on,38,0,0,,11,,,82,127
85982,note_off,17,0,0,,8,,,80,127
86020,note_on,38,0,0,,8,,,80,127
86037,note_off,17,0,0,,11,,,82,127
86074,note_off,37,0,0,,0,,,72,127
86074,note_off,0,0,0,,8,,,68,127
86074,note_off,0,0,0,,5,,,65,127
86075,note_on,1,0,0,,11,,,82,127
86075,note_on,0,0,0,,0,,,72,127
86075,note_on,0,0,0,,5,,,65,127
86075,note_on,0,0,0,,8,,,68,127
86092,note_off,17,0,0,,8,,,80,127
86130,note_on,38,0,0,,8,,,80,127
86147,note_off,17,0,0,,11,,,82,127
86185,note_on,38,0,0,,11,,,82,127
86202,note_off,17,0,0,,8,,,80,127
86240,note_on,38,0,0,,8,,,80,127
86257,note_off,17,0,0,,11,,,82,127
86294,note_off,37,0,0,,8,,,68,127
86294,note_off,0,0,0,,5,,,65,127
86294,note_off,0,0,0,,0,,,72,127
86295,note_on,1,0,0,,7,,,79,127
86295,note_on,0,0,0,,5,,,65,127
86295,note_on,0,0,0,,0,,,72,127
86295,note_on,0,0,0,,8,,,68,127
86312,note_off,17,0,0,,8,,,80,127
86403,note_off,91,0,0,,7,,,79,127
86404,note_on,1,0,0,,5,,,77,127
86513,note_off,109,0,0,,5,,,77,127
86513,note_off,0,0,0,,8,,,68,127
86513,note_off,0,0,0,,0,,,72,127
86513,note_off,0,0,0,,5,,,65,127
86514,note_on,1,0,0,,0,,,84,127
86514,note_on,0,0,0,,5,,,65,127
86514,note_on,0,0,0,,7,,,67,127
86514,note_on,0,0,0,,12,,,71,127
86569,note_on,55,0,0,,12,,,83,127
86586,note_off,17,0,0,,0,,,84,127
86624,note_on,38,0,0,,0,,,84,127
86641,note_off,17,0,0,,12,,,83,127
86679,note_on,38,0,0,,12,,,83,127
86696,note_off,17,0,0,,0,,,84,127
86733,note_off,37,0,0,,12,,,71,127
86733,note_off,0,0,0,,7,,,67,127
86733,note_off,0,0,0,,5,,,65,127
86734,note_on,1,0,0,,0,,,84,127
86734,note_on,0,0,0,,12,,,71,127
86734,note_on,0,0,0,,5,,,65,127
86734,note_on,0,0,0,,7,,,67,127
86751,note_off,17,0,0,,12,,,83,127
86789,note_on,38,0,0,,12,,,83,127
86806,note_off,17,0,0,,0,,,84,127
86844,note_on,38,0,0,,10,,,81,127
86861,note_off,17,0,0,,12,,,83,127
86899,note_on,38,0,0,,12,,,83,127
86916,note_off,17,0,0,,10,,,81,127
86953,note_off,37,0,0,,7,,,67,127
86953,note_off,0,0,0,,5,,,65,127
86953,note_off,0,0,0,,12,,,71,127
86954,note_on,1,0,0,,0,,,84,127
86954,note_on,0,0,0,,0,,,72,127
86954,note_on,0,0,0,,3,,,63,127
86954,note_on,0,0,0,,7,,,67,127
86971,note_off,17,0,0,,12,,,83,127
87172,note_off,201,0,0,,0,,,84,127
87173,note_on,1,0,0,,7,,,79,127
87388,note_off,215,0,0,,7,,,67,127
87388,note_off,0,0,0,,3,,,63,127
87391,note_off,3,0,0,,7,,,79,127
87392,note_on,1,0,0,,11,,,82,127
87501,note_off,109,0,0,,11,,,82,127
87502,note_on,1,0,0,,8,,,80,127
87611,note_off,109,0,0,,8,,,80,127
87611,note_off,0,0,0,,0,,,72,127
87612,note_on,1,0,0,,7,,,79,127
87612,note_on,0,0,0,,5,,,65,127
87721,note_off,109,0,0,,7,,,79,127
87722,note_on,1,0,0,,5,,,77,127
87831,note_off,109,0,0,,5,,,77,127
87831,note_off,0,0,0,,5,,,65,127
87832,note_on,1,0,0,,3,,,75,127
87832,note_on,0,0,0,,7,,,67,127
87941,note_off,109,0,0,,3,,,75,127
87948,note_on,7,0,0,,2,,,74,127
88067,note_off,119,0,0,,2,,,74,127
88067,note_on,0,0,0,,7,,,55,127
88067,note_on,0,0,0,,0,,,72,127
88162,note_off,95,0,0,,7,,,67,127
88188,note_off,26,0,0,,0,,,72,127
88198,note_on,10,0,0,,12,,,71,127
88285,note_off,87,0,0,,7,,,55,127
88370,note_off,85,0,0,,12,,,71,127
88683,note_on,313,0,0,,4,,,76,127
88793,note_on,110,0,0,,0,,,84,127
88820,note_off,27,0,0,,4,,,76,127
88901,note_off,81,0,0,,0,,,84,127
88902,note_on,1,0,0,,0,,,72,127
88902,note_on,0,0,0,,4,,,76,127
89011,note_off,109,0,0,,0,,,72,127
89012,note_on,1,0,0,,0,,,72,127
89039,note_off,27,0,0,,4,,,76,127
89121,note_on,82,0,0,,2,,,74,127
89231,note_on,110,0,0,,12,,,83,127
89258,note_off,27,0,0,,2,,,74,127
89339,note_off,81,0,0,,12,,,83,127
89340,note_off,1,0,0,,0,,,72,127
89340,note_on,0,0,0,,7,,,67,127
89340,note_on,0,0,0,,2,,,74,127
89450,note_on,110,0,0,,12,,,71,127
89477,note_off,27,0,0,,2,,,74,127
89558,note_off,81,0,0,,12,,,71,127
89559,note_on,1,0,0,,0,,,72,127
89669,note_on,110,0,0,,10,,,81,127
89696,note_off,27,0,0,,0,,,72,127
89777,note_off,81,0,0,,10,,,81,127
89777,note_off,0,0,0,,7,,,67,127
89778,note_on,1,0,0,,10,,,69,127
89778,note_on,0,0,0,,0,,,72,127
89887,note_off,109,0,0,,10,,,69,127
89888,note_on,1,0,0,,10,,,69,127
89915,note_off,27,0,0,,0,,,72,127
89997,note_on,82,0,0,,12,,,71,127
90107,note_on,110,0,0,,7,,,79,127
90134,note_off,27,0,0,,12,,,71,127
90215,note_off,81,0,0,,7,,,79,127
90216,note_off,1,0,0,,10,,,69,127
90216,note_on,0,0,0,,4,,,64,127
90216,note_on,0,0,0,,12,,,71,127
90326,note_on,110,0,0,,7,,,67,127
90353,note_off,27,0,0,,12,,,71,127
90434,note_off,81,0,0,,7,,,67,127
90435,note_on,1,0,0,,10,,,69,127
90545,note_on,110,0,0,,5,,,77,127
90572,note_off,27,0,0,,10,,,69,127
90653,note_off,81,0,0,,5,,,77,127
90653,note_off,0,0,0,,4,,,64,127
90654,note_on,1,0,0,,5,,,65,127
90654,note_on,0,0,0,,10,,,69,127
90763,note_off,109,0,0,,5,,,65,127
90764,note_on,1,0,0,,5,,,65,127
90791,note_off,27,0,0,,10,,,69,127
90873,note_on,82,0,0,,7,,,67,127
90983,note_on,110,0,0,,4,,,76,127
91010,note_off,27,0,0,,7,,,67,127
91091,note_off,81,0,0,,4,,,76,127
91091,note_off,0,0,0,,5,,,65,127
91092,note_on,1,0,0,,0,,,60,127
91092,note_on,0,0,0,,7,,,67,127
91202,note_on,110,0,0,,4,,,64,127
91229,note_off,27,0,0,,7,,,67,127
91322,note_off,93,0,0,,4,,,64,127
91330,note_on,8,0,0,,2,,,74,127
91412,note_off,82,0,0,,0,,,60,127
91439,note_on,27,0,0,,7,,,67,127
91548,note_off,109,0,0,,7,,,67,127
91548,note_off,0,0,0,,2,,,74,127
91549,note_on,1,0,0,,12,,,59,127
91549,note_on,0,0,0,,7,,,79,127
91658,note_off,109,0,0,,12,,,59,127
91659,note_on,1,0,0,,7,,,55,127
91768,note_off,109,0,0,,7,,,55,127
91769,note_on,1,0,0,,10,,,57,127
91878,note_off,109,0,0,,10,,,57,127
91878,note_off,0,0,0,,7,,,79,127
91879,note_on,1,0,0,,5,,,65,127
91879,note_on,0,0,0,,4,,,76,127
91988,note_off,109,0,0,,4,,,76,127
91988,note_off,0,0,0,,5,,,65,127
91989,note_on,1,0,0,,10,,,57,127
91989,note_on,0,0,0,,5,,,77,127
92098,note_off,109,0,0,,10,,,57,127
92099,note_on,1,0,0,,5,,,53,127
92208,note_off,109,0,0,,5,,,53,127
92209,note_on,1,0,0,,7,,,55,127
92318,note_off,109,0,0,,7,,,55,127
92318,note_off,0,0,0,,5,,,77,127
92319,note_on,1,0,0,,4,,,64,127
92319,note_on,0,0,0,,2,,,74,127
92428,note_off,109,0,0,,2,,,74,127
92428,note_off,0,0,0,,4,,,64,127
92429,note_on,1,0,0,,7,,,55,127
92429,note_on,0,0,0,,4,,,76,127
92538,note_off,109,0,0,,7,,,55,127
92539,note_on,1,0,0,,4,,,52,127
92648,note_off,109,0,0,,4,,,52,127
92649,note_on,1,0,0,,5,,,53,127
92758,note_off,109,0,0,,5,,,53,127
92758,note_off,0,0,0,,4,,,76,127
92759,note_on,1,0,0,,2,,,62,127
92759,note_on,0,0,0,,0,,,72,127
92868,note_off,109,0,0,,0,,,72,127
92868,note_off,0,0,0,,2,,,62,127
92869,note_on,1,0,0,,5,,,53,127
92869,note_on,0,0,0,,2,,,74,127
92978,note_off,109,0,0,,5,,,53,127
92979,note_on,1,0,0,,2,,,50,127
93088,note_off,109,0,0,,2,,,50,127
93089,note_on,1,0,0,,4,,,52,127
93198,note_off,109,0,0,,4,,,52,127
93198,note_off,0,0,0,,2,,,74,127
93199,note_on,1,0,0,,0,,,60,127
93199,note_on,0,0,0,,12,,,71,127
93308,note_off,109,0,0,,12,,,71,127
93308,note_off,0,0,0,,0,,,60,127
93309,note_on,1,0,0,,4,,,52,127
93309,note_on,0,0,0,,0,,,72,127
93418,note_off,109,0,0,,4,,,52,127
93419,note_on,1,0,0,,0,,,48,127
93528,note_off,109,0,0,,0,,,48,127
93529,note_on,1,0,0,,2,,,50,127
93638,note_off,109,0,0,,0,,,72,127
93639,note_on,1,0,0,,5,,,77,127
93748,note_off,109,0,0,,5,,,77,127
93748,note_off,0,0,0,,2,,,50,127
93749,note_on,1,0,0,,12,,,59,127
93749,note_on,0,0,0,,4,,,76,127
93858,note_off,109,0,0,,4,,,76,127
93859,note_on,1,0,0,,2,,,74,127
93968,note_off,109,0,0,,2,,,74,127
93968,note_off,0,0,0,,12,,,59,127
93969,note_on,1,0,0,,0,,,60,127
93969,note_on,0,0,0,,4,,,76,127
94078,note_off,109,0,0,,4,,,76,127
94079,note_on,1,0,0,,0,,,72,127
94188,note_off,109,0,0,,0,,,72,127
94188,note_off,0,0,0,,0,,,60,127
94189,note_on,1,0,0,,0,,,60,127
94189,note_on,0,0,0,,5,,,53,127
94189,note_on,0,0,0,,2,,,74,127
94298,note_off,109,0,0,,2,,,74,127
94299,note_on,1,0,0,,10,,,69,127
94408,note_off,109,0,0,,10,,,69,127
94408,note_off,0,0,0,,5,,,53,127
94408,note_off,0,0,0,,0,,,60,127
94409,note_on,1,0,0,,0,,,60,127
94409,note_on,0,0,0,,7,,,55,127
94409,note_on,0,0,0,,4,,,64,127
94409,note_on,0,0,0,,0,,,72,127
94627,note_off,218,0,0,,4,,,64,127
94627,note_off,0,0,0,,0,,,60,127
94628,note_on,1,0,0,,2,,,62,127
94683,note_off,55,0,0,,0,,,72,127
94683,note_on,0,0,0,,12,,,71,127
94738,note_on,55,0,0,,0,,,72,127
94755,note_off,17,0,0,,12,,,71,127
94793,note_on,38,0,0,,12,,,71,127
94810,note_off,17,0,0,,0,,,72,127
94847,note_off,37,0,0,,2,,,62,127
94847,note_off,0,0,0,,7,,,55,127
94848,note_on,1,0,0,,0,,,72,127
94865,note_off,17,0,0,,12,,,71,127
94985,note_on,120,0,0,,0,,,48,127
95094,note_off,109,0,0,,0,,,48,127
95095,note_on,1,0,0,,4,,,52,127
95204,note_off,109,0,0,,4,,,52,127
95205,note_on,1,0,0,,7,,,55,127
95286,note_off,81,0,0,,0,,,72,127
95313,note_off,27,0,0,,7,,,55,127
95314,note_on,1,0,0,,0,,,84,127
95314,note_on,0,0,0,,0,,,60,127
95423,note_off,109,0,0,,0,,,60,127
95424,note_on,1,0,0,,4,,,64,127
95533,note_off,109,0,0,,4,,,64,127
95534,note_on,1,0,0,,7,,,67,127
95643,note_off,109,0,0,,7,,,67,127
95644,note_on,1,0,0,,0,,,72,127
95753,note_off,109,0,0,,0,,,72,127
95754,note_on,1,0,0,,5,,,41,127
95863,note_off,109,0,0,,0,,,84,127
95864,note_on,1,0,0,,10,,,81,127
95973,note_off,109,0,0,,10,,,81,127
95974,note_on,1,0,0,,7,,,79,127
96083,note_off,109,0,0,,7,,,79,127
96084,note_on,1,0,0,,5,,,77,127
96193,note_off,109,0,0,,5,,,77,127
96193,note_off,0,0,0,,5,,,41,127
96194,note_on,1,0,0,,4,,,76,127
96194,note_on,0,0,0,,7,,,43,127
96303,note_off,109,0,0,,4,,,76,127
96304,note_on,1,0,0,,2,,,74,127
96413,note_off,109,0,0,,2,,,74,127
96414,note_on,1,0,0,,0,,,72,127
96523,note_off,109,0,0,,0,,,72,127
96524,note_on,1,0,0,,12,,,71,127
96633,note_off,109,0,0,,12,,,71,127
96633,note_off,0,0,0,,7,,,43,127
96634,note_on,1,0,0,,0,,,72,127
96762,note_on,128,0,0,,0,,,48,127
96871,note_off,109,0,0,,0,,,48,127
96872,note_on,1,0,0,,4,,,52,127
96981,note_off,109,0,0,,4,,,52,127
96982,note_on,1,0,0,,7,,,55,127
97072,note_off,90,0,0,,0,,,72,127
97090,note_off,18,0,0,,7,,,55,127
97091,note_on,1,0,0,,0,,,60,127
97091,note_on,0,0,0,,0,,,84,127
97200,note_off,109,0,0,,0,,,60,127
97201,note_on,1,0,0,,4,,,64,127
97310,note_off,109,0,0,,4,,,64,127
97311,note_on,1,0,0,,7,,,67,127
97420,note_off,109,0,0,,7,,,67,127
97421,note_on,1,0,0,,0,,,72,127
97530,note_off,109,0,0,,0,,,72,127
97531,note_on,1,0,0,,5,,,41,127
97640,note_off,109,0,0,,0,,,84,127
97641,note_on,1,0,0,,10,,,81,127
97750,note_off,109,0,0,,10,,,81,127
97751,note_on,1,0,0,,7,,,79,127
97860,note_off,109,0,0,,7,,,79,127
97861,note_on,1,0,0,,5,,,77,127
97970,note_off,109,0,0,,5,,,77,127
97970,note_off,0,0,0,,5,,,41,127
97971,note_on,1,0,0,,7,,,43,127
97971,note_on,0,0,0,,4,,,76,127
98080,note_off,109,0,0,,4,,,76,127
98081,note_on,1,0,0,,2,,,74,127
98190,note_off,109,0,0,,2,,,74,127
98191,note_on,1,0,0,,0,,,72,127
98300,note_off,109,0,0,,0,,,72,127
98301,note_on,1,0,0,,12,,,71,127
98410,note_off,109,0,0,,12,,,71,127
98410,note_off,0,0,0,,7,,,43,127
98420,note_on,10,0,0,,0,,,48,127
98420,note_on,0,0,0,,0,,,72,127
98530,note_on,110,0,0,,0,,,84,127
98637,note_off,107,0,0,,0,,,72,127
98638,note_off,1,0,0,,0,,,84,127
98639,note_on,1,0,0,,8,,,80,127
98748,note_off,109,0,0,,8,,,80,127
98749,note_off,1,0,0,,0,,,48,127
98749,note_on,0,0,0,,10,,,81,127
98858,note_off,109,0,0,,10,,,81,127
98859,note_on,1,0,0,,6,,,78,127
98968,note_off,109,0,0,,6,,,78,127
98969,note_on,1,0,0,,7,,,79,127
99078,note_off,109,0,0,,7,,,79,127
99079,note_on,1,0,0,,4,,,76,127
99188,note_off,109,0,0,,4,,,76,127
99189,note_on,1,0,0,,5,,,77,127
99298,note_off,109,0,0,,5,,,77,127
99299,note_on,1,0,0,,2,,,74,127
99408,note_off,109,0,0,,2,,,74,127
99409,note_on,1,0,0,,10,,,81,127
99518,note_off,109,0,0,,10,,,81,127
99519,note_on,1,0,0,,5,,,53,127
99519,note_on,0,0,0,,7,,,79,127
99628,note_off,109,0,0,,7,,,79,127
99629,note_on,1,0,0,,5,,,77,127
99738,note_off,109,0,0,,5,,,77,127
99738,note_off,0,0,0,,5,,,53,127
99739,note_on,1,0,0,,7,,,55,127
99739,note_on,0,0,0,,4,,,76,127
99848,note_off,109,0,0,,4,,,76,127
99849,note_on,1,0,0,,2,,,74,127
99958,note_off,109,0,0,,2,,,74,127
99959,note_on,1,0,0,,7,,,43,127
99959,note_on,0,0,0,,0,,,72,127
100068,note_off,109,0,0,,0,,,72,127
100069,note_on,1,0,0,,12,,,71,127
100178,note_off,109,0,0,,7,,,43,127
100178,note_off,0,0,0,,7,,,55,127
100179,note_on,1,0,0,,0,,,48,127
100205,note_off,26,0,0,,12,,,71,127
100288,note_on,83,0,0,,0,,,72,127
100397,note_off,109,0,0,,0,,,72,127
100398,note_on,1,0,0,,8,,,68,127
100507,note_off,109,0,0,,8,,,68,127
100508,note_on,1,0,0,,10,,,69,127
100613,note_off,105,0,0,,0,,,48,127
100616,note_off,3,0,0,,10,,,69,127
100617,note_on,1,0,0,,6,,,66,127
100726,note_off,109,0,0,,6,,,66,127
100727,note_on,1,0,0,,7,,,67,127
100836,note_off,109,0,0,,7,,,67,127
100837,note_on,1,0,0,,4,,,64,127
100946,note_off,109,0,0,,4,,,64,127
100947,note_on,1,0,0,,5,,,65,127
101056,note_off,109,0,0,,5,,,65,127
101057,note_on,1,0,0,,2,,,62,127
101166,note_off,109,0,0,,2,,,62,127
101167,note_on,1,0,0,,10,,,69,127
101276,note_off,109,0,0,,10,,,69,127
101277,note_on,1,0,0,,5,,,53,127
101277,note_on,0,0,0,,7,,,67,127
101386,note_off,109,0,0,,7,,,67,127
101387,note_on,1,0,0,,5,,,65,127
101496,note_off,109,0,0,,5,,,65,127
101496,note_off,0,0,0,,5,,,53,127
101497,note_on,1,0,0,,7,,,55,127
101497,note_on,0,0,0,,4,,,64,127
101606,note_off,109,0,0,,4,,,64,127
101607,note_on,1,0,0,,2,,,62,127
101716,note_off,109,0,0,,2,,,62,127
101717,note_on,1,0,0,,7,,,43,127
101717,note_on,0,0,0,,0,,,60,127
101826,note_off,109,0,0,,0,,,60,127
101827,note_on,1,0,0,,12,,,59,127
101936,note_off,109,0,0,,12,,,59,127
101936,note_off,0,0,0,,7,,,43,127
101936,note_off,0,0,0,,7,,,55,127
101955,note_on,19,0,0,,0,,,60,127
101955,note_on,0,0,0,,0,,,48,127
101955,note_on,0,0,0,,0,,,36,127
103793,note_off,1838,0,0,,0,,,36,127
103793,note_off,0,0,0,,0,,,48,127
103793,note_off,0,0,0,,0,,,60,127
104448,end_of_track,655,1,0,,,,,,
