tick,type,time,meta,track,program,channel,pitch,tempo,note,velocity
0,copyright,0,1,0,,,,,,
0,program_change,0,0,0,6,0,,,,
0,pitchwheel,0,0,0,,0,0,,,
0,program_change,0,0,0,6,1,,,,
0,pitchwheel,0,0,0,,1,-590,,,
0,program_change,0,0,0,6,2,,,,
0,pitchwheel,0,0,0,,2,-272,,,
0,program_change,0,0,0,6,3,,,,
0,pitchwheel,0,0,0,,3,-353,,,
0,program_change,0,0,0,6,4,,,,
0,pitchwheel,0,0,0,,4,-560,,,
0,program_change,0,0,0,6,5,,,,
0,pitchwheel,0,0,0,,5,-80,,,
0,program_change,0,0,0,6,6,,,,
0,pitchwheel,0,0,0,,6,-625,,,
0,program_change,0,0,0,6,7,,,,
0,pitchwheel,0,0,0,,7,-130,,,
0,program_change,0,0,0,6,8,,,,
0,pitchwheel,0,0,0,,8,-512,,,
0,program_change,0,0,0,6,10,,,,
0,pitchwheel,0,0,0,,10,-464,,,
0,program_change,0,0,0,6,11,,,,
0,pitchwheel,0,0,0,,11,-208,,,
0,program_change,0,0,0,6,12,,,,
0,pitchwheel,0,0,0,,12,-553,,,
0,set_tempo,0,1,0,,,,500000,,
100,note_on,100,0,0,,4,,,76,127
101,note_on,1,0,0,,5,,,77,127
251,note_off,150,0,0,,5,,,77,127
298,note_off,47,0,0,,4,,,76,127
300,note_on,2,0,0,,2,,,74,127
398,note_off,98,0,0,,2,,,74,127
400,note_on,2,0,0,,4,,,76,127
498,note_off,98,0,0,,4,,,76,127
500,note_on,2,0,0,,0,,,72,127
672,note_off,172,0,0,,0,,,72,127
700,note_on,28,0,0,,7,,,79,127
701,note_on,1,0,0,,10,,,81,127
851,note_off,150,0,0,,10,,,81,127
898,note_off,47,0,0,,7,,,79,127
900,note_on,2,0,0,,5,,,77,127
998,note_off,98,0,0,,5,,,77,127
1000,note_on,2,0,0,,7,,,79,127
1098,note_off,98,0,0,,7,,,79,127
1100,note_on,2,0,0,,4,,,76,127
1277,note_off,177,0,0,,4,,,76,127
1300,note_on,23,0,0,,0,,,84,127
1498,note_off,198,0,0,,0,,,84,127
1500,note_on,2,0,0,,10,,,81,127
1698,note_off,198,0,0,,10,,,81,127
1700,note_on,2,0,0,,6,,,78,127
1883,note_off,183,0,0,,6,,,78,127
1901,note_on,18,0,0,,7,,,79,127
2099,note_off,198,0,0,,7,,,79,127
2101,note_on,2,0,0,,4,,,76,127
2299,note_off,198,0,0,,4,,,76,127
2301,note_on,2,0,0,,12,,,71,127
2494,note_off,193,0,0,,12,,,71,127
2501,note_on,7,0,0,,0,,,72,127
2699,note_off,198,0,0,,0,,,72,127
2701,note_on,2,0,0,,10,,,69,127
2899,note_off,198,0,0,,10,,,69,127
2901,note_on,2,0,0,,6,,,66,127
3089,note_off,188,0,0,,6,,,66,127
3102,note_on,13,0,0,,7,,,67,127
3102,note_on,0,0,0,,12,,,71,127
3103,note_on,1,0,0,,10,,,69,127
3203,note_off,100,0,0,,10,,,69,127
3300,note_off,97,0,0,,7,,,67,127
3302,note_on,2,0,0,,5,,,65,127
3400,note_off,98,0,0,,5,,,65,127
3402,note_on,2,0,0,,7,,,67,127
3500,note_off,98,0,0,,7,,,67,127
3500,note_off,0,0,0,,12,,,71,127
3502,note_on,2,0,0,,4,,,64,127
3502,note_on,0,0,0,,4,,,76,127
3700,note_off,198,0,0,,4,,,76,127
3700,note_off,0,0,0,,4,,,64,127
3702,note_on,2,0,0,,10,,,69,127
3702,note_on,0,0,0,,0,,,72,127
3900,note_off,198,0,0,,0,,,72,127
3900,note_off,0,0,0,,10,,,69,127
3902,note_on,2,0,0,,5,,,65,127
3902,note_on,0,0,0,,2,,,74,127
4100,note_off,198,0,0,,2,,,74,127
4100,note_off,0,0,0,,5,,,65,127
4102,note_on,2,0,0,,2,,,62,127
4102,note_on,0,0,0,,5,,,77,127
4300,note_off,198,0,0,,5,,,77,127
4300,note_off,0,0,0,,2,,,62,127
4302,note_on,2,0,0,,7,,,67,127
4302,note_on,0,0,0,,12,,,71,127
4500,note_off,198,0,0,,12,,,71,127
4500,note_off,0,0,0,,7,,,67,127
4502,note_on,2,0,0,,4,,,64,127
4502,note_on,0,0,0,,0,,,72,127
4700,note_off,198,0,0,,0,,,72,127
4700,note_off,0,0,0,,4,,,64,127
4702,note_on,2,0,0,,12,,,59,127
4702,note_on,0,0,0,,2,,,74,127
4900,note_off,198,0,0,,2,,,74,127
4900,note_off,0,0,0,,12,,,59,127
4902,note_on,2,0,0,,0,,,60,127
4902,note_on,0,0,0,,2,,,74,127
5100,note_off,198,0,0,,2,,,74,127
5100,note_off,0,0,0,,0,,,60,127
5102,note_on,2,0,0,,10,,,57,127
5102,note_on,0,0,0,,4,,,76,127
5300,note_off,198,0,0,,4,,,76,127
5300,note_off,0,0,0,,10,,,57,127
5302,note_on,2,0,0,,5,,,53,127
5302,note_on,0,0,0,,5,,,77,127
5500,note_off,198,0,0,,5,,,77,127
5500,note_off,0,0,0,,5,,,53,127
5502,note_on,2,0,0,,7,,,43,127
5502,note_on,0,0,0,,7,,,55,127
5502,note_on,0,0,0,,4,,,76,127
5732,note_off,230,0,0,,4,,,76,127
5734,note_on,2,0,0,,2,,,74,127
5792,note_on,58,0,0,,4,,,76,127
5832,note_off,40,0,0,,2,,,74,127
5851,note_on,19,0,0,,2,,,74,127
5891,note_off,40,0,0,,4,,,76,127
6039,note_off,148,0,0,,2,,,74,127
6102,note_off,63,0,0,,7,,,55,127
6102,note_off,0,0,0,,7,,,43,127
6104,note_on,2,0,0,,12,,,59,127
6104,note_on,0,0,0,,2,,,74,127
6304,note_on,200,0,0,,7,,,67,127
6500,note_off,196,0,0,,2,,,74,127
6504,note_on,4,0,0,,5,,,77,127
6700,note_off,196,0,0,,7,,,67,127
6702,note_off,2,0,0,,12,,,59,127
6704,note_on,2,0,0,,0,,,60,127
6902,note_off,198,0,0,,5,,,77,127
6904,note_on,2,0,0,,4,,,76,127
7002,note_off,98,0,0,,4,,,76,127
7004,note_on,2,0,0,,2,,,74,127
7102,note_off,98,0,0,,2,,,74,127
7104,note_on,2,0,0,,0,,,72,127
7302,note_off,198,0,0,,0,,,60,127
7304,note_on,2,0,0,,2,,,62,127
7458,note_off,154,0,0,,0,,,72,127
7504,note_on,46,0,0,,7,,,55,127
7504,note_on,0,0,0,,12,,,71,127
7700,note_off,196,0,0,,2,,,62,127
7702,note_off,2,0,0,,12,,,71,127
7702,note_off,0,0,0,,7,,,55,127
7704,note_on,2,0,0,,5,,,65,127
7704,note_on,0,0,0,,2,,,74,127
7902,note_off,198,0,0,,2,,,74,127
7904,note_on,2,0,0,,7,,,67,127
8102,note_off,198,0,0,,5,,,65,127
8104,note_on,2,0,0,,4,,,64,127
8202,note_off,98,0,0,,4,,,64,127
8204,note_on,2,0,0,,2,,,62,127
8302,note_off,98,0,0,,2,,,62,127
8302,note_off,0,0,0,,7,,,67,127
8304,note_on,2,0,0,,0,,,60,127
8304,note_on,0,0,0,,0,,,72,127
8481,note_off,177,0,0,,0,,,72,127
8497,note_off,16,0,0,,0,,,60,127
8504,note_on,7,0,0,,12,,,59,127
8504,note_on,0,0,0,,2,,,74,127
8704,note_on,200,0,0,,7,,,67,127
8900,note_off,196,0,0,,2,,,74,127
8904,note_on,4,0,0,,5,,,77,127
9100,note_off,196,0,0,,7,,,67,127
9102,note_off,2,0,0,,12,,,59,127
9104,note_on,2,0,0,,0,,,60,127
9302,note_off,198,0,0,,5,,,77,127
9304,note_on,2,0,0,,4,,,76,127
9402,note_off,98,0,0,,4,,,76,127
9404,note_on,2,0,0,,2,,,74,127
9502,note_off,98,0,0,,2,,,74,127
9504,note_on,2,0,0,,0,,,72,127
9702,note_off,198,0,0,,0,,,60,127
9704,note_on,2,0,0,,2,,,62,127
9902,note_off,198,0,0,,0,,,72,127
9904,note_on,2,0,0,,7,,,55,127
9904,note_on,0,0,0,,12,,,71,127
10100,note_off,196,0,0,,2,,,62,127
10102,note_off,2,0,0,,12,,,71,127
10102,note_off,0,0,0,,7,,,55,127
10104,note_on,2,0,0,,5,,,65,127
10104,note_on,0,0,0,,2,,,74,127
10302,note_off,198,0,0,,2,,,74,127
10304,note_on,2,0,0,,7,,,67,127
10502,note_off,198,0,0,,7,,,67,127
10502,note_off,0,0,0,,5,,,65,127
10504,note_on,2,0,0,,4,,,64,127
10504,note_on,0,0,0,,0,,,72,127
10602,note_off,98,0,0,,4,,,64,127
10604,note_on,2,0,0,,2,,,62,127
10702,note_off,98,0,0,,2,,,62,127
10702,note_off,0,0,0,,0,,,72,127
10704,note_on,2,0,0,,0,,,60,127
10704,note_on,0,0,0,,4,,,76,127
10892,note_off,188,0,0,,4,,,76,127
10897,note_off,5,0,0,,0,,,60,127
10904,note_on,7,0,0,,5,,,65,127
11104,note_on,200,0,0,,10,,,69,127
11302,note_off,198,0,0,,10,,,69,127
11302,note_off,0,0,0,,5,,,65,127
11304,note_on,2,0,0,,2,,,62,127
11304,note_on,0,0,0,,5,,,65,127
11502,note_off,198,0,0,,5,,,65,127
11502,note_off,0,0,0,,2,,,62,127
11504,note_on,2,0,0,,12,,,59,127
11504,note_on,0,0,0,,7,,,67,127
11704,note_on,200,0,0,,5,,,77,127
11900,note_off,196,0,0,,7,,,67,127
11902,note_off,2,0,0,,5,,,77,127
11902,note_off,0,0,0,,12,,,59,127
11904,note_on,2,0,0,,0,,,60,127
11904,note_on,0,0,0,,4,,,76,127
12102,note_off,198,0,0,,0,,,60,127
12104,note_on,2,0,0,,5,,,53,127
12104,note_on,0,0,0,,10,,,69,127
12300,note_off,196,0,0,,4,,,76,127
12302,note_off,2,0,0,,10,,,69,127
12302,note_off,0,0,0,,5,,,53,127
12304,note_on,2,0,0,,7,,,55,127
12304,note_on,0,0,0,,4,,,76,127
12369,note_off,65,0,0,,4,,,76,127
12371,note_on,2,0,0,,2,,,74,127
12436,note_off,65,0,0,,2,,,74,127
12438,note_on,2,0,0,,4,,,76,127
12503,note_off,65,0,0,,4,,,76,127
12505,note_on,2,0,0,,7,,,43,127
12505,note_on,0,0,0,,2,,,74,127
12570,note_off,65,0,0,,2,,,74,127
12572,note_on,2,0,0,,0,,,72,127
12637,note_off,65,0,0,,0,,,72,127
12639,note_on,2,0,0,,2,,,74,127
12702,note_off,63,0,0,,7,,,55,127
12704,note_off,2,0,0,,2,,,74,127
12704,note_off,0,0,0,,7,,,43,127
12706,note_on,2,0,0,,0,,,36,127
12706,note_on,0,0,0,,0,,,48,127
12706,note_on,0,0,0,,0,,,72,127
13103,note_off,397,0,0,,0,,,72,127
13305,note_off,202,0,0,,0,,,48,127
13305,note_off,0,0,0,,0,,,36,127
13324,note_on,19,0,0,,4,,,76,127
13324,note_on,0,0,0,,0,,,48,127
13324,note_on,0,0,0,,0,,,36,127
13325,note_on,1,0,0,,5,,,77,127
13522,note_off,197,0,0,,4,,,76,127
13523,note_off,1,0,0,,5,,,77,127
13524,note_on,1,0,0,,2,,,74,127
13622,note_off,98,0,0,,2,,,74,127
13624,note_on,2,0,0,,4,,,76,127
13722,note_off,98,0,0,,4,,,76,127
13724,note_on,2,0,0,,0,,,72,127
13922,note_off,198,0,0,,0,,,72,127
13922,note_off,0,0,0,,0,,,36,127
13922,note_off,0,0,0,,0,,,48,127
13924,note_on,2,0,0,,4,,,76,127
13924,note_on,0,0,0,,0,,,48,127
13924,note_on,0,0,0,,0,,,36,127
13925,note_on,1,0,0,,5,,,77,127
14122,note_off,197,0,0,,4,,,76,127
14123,note_off,1,0,0,,5,,,77,127
14124,note_on,1,0,0,,2,,,74,127
14222,note_off,98,0,0,,2,,,74,127
14224,note_on,2,0,0,,4,,,76,127
14322,note_off,98,0,0,,4,,,76,127
14324,note_on,2,0,0,,0,,,72,127
14522,note_off,198,0,0,,0,,,72,127
14522,note_off,0,0,0,,0,,,36,127
14522,note_off,0,0,0,,0,,,48,127
14524,note_on,2,0,0,,7,,,79,127
14524,note_on,0,0,0,,7,,,67,127
14524,note_on,0,0,0,,0,,,48,127
14524,note_on,0,0,0,,0,,,36,127
14722,note_off,198,0,0,,7,,,67,127
14722,note_off,0,0,0,,7,,,79,127
14724,note_on,2,0,0,,10,,,69,127
14724,note_on,0,0,0,,5,,,77,127
14922,note_off,198,0,0,,5,,,77,127
14922,note_off,0,0,0,,10,,,69,127
14924,note_on,2,0,0,,12,,,71,127
14924,note_on,0,0,0,,2,,,74,127
15122,note_off,198,0,0,,0,,,36,127
15122,note_off,0,0,0,,0,,,48,127
15124,note_on,2,0,0,,0,,,48,127
15124,note_on,0,0,0,,0,,,36,127
15322,note_off,198,0,0,,2,,,74,127
15322,note_off,0,0,0,,12,,,71,127
15324,note_on,2,0,0,,4,,,76,127
15324,note_on,0,0,0,,0,,,72,127
15422,note_off,98,0,0,,0,,,72,127
15422,note_off,0,0,0,,4,,,76,127
15424,note_on,2,0,0,,2,,,74,127
15424,note_on,0,0,0,,12,,,71,127
15522,note_off,98,0,0,,12,,,71,127
15522,note_off,0,0,0,,2,,,74,127
15524,note_on,2,0,0,,4,,,76,127
15524,note_on,0,0,0,,0,,,72,127
15722,note_off,198,0,0,,0,,,72,127
15722,note_off,0,0,0,,4,,,76,127
15722,note_off,0,0,0,,0,,,36,127
15722,note_off,0,0,0,,0,,,48,127
15741,note_on,19,0,0,,0,,,36,127
15741,note_on,0,0,0,,0,,,48,127
15741,note_on,0,0,0,,0,,,72,127
15741,note_on,0,0,0,,7,,,79,127
15742,note_on,1,0,0,,10,,,81,127
15939,note_off,197,0,0,,7,,,79,127
15940,note_off,1,0,0,,10,,,81,127
15941,note_on,1,0,0,,5,,,77,127
16039,note_off,98,0,0,,5,,,77,127
16041,note_on,2,0,0,,7,,,79,127
16139,note_off,98,0,0,,7,,,79,127
16141,note_on,2,0,0,,4,,,76,127
16339,note_off,198,0,0,,4,,,76,127
16339,note_off,0,0,0,,0,,,48,127
16339,note_off,0,0,0,,0,,,36,127
16340,note_off,1,0,0,,0,,,72,127
16341,note_on,1,0,0,,0,,,36,127
16341,note_on,0,0,0,,0,,,48,127
16341,note_on,0,0,0,,7,,,79,127
16341,note_on,0,0,0,,0,,,72,127
16342,note_on,1,0,0,,10,,,81,127
16539,note_off,197,0,0,,7,,,79,127
16540,note_off,1,0,0,,10,,,81,127
16541,note_on,1,0,0,,5,,,77,127
16639,note_off,98,0,0,,5,,,77,127
16641,note_on,2,0,0,,7,,,79,127
16739,note_off,98,0,0,,7,,,79,127
16741,note_on,2,0,0,,4,,,76,127
16939,note_off,198,0,0,,4,,,76,127
16939,note_off,0,0,0,,0,,,48,127
16939,note_off,0,0,0,,0,,,36,127
16940,note_off,1,0,0,,0,,,72,127
16941,note_on,1,0,0,,0,,,36,127
16941,note_on,0,0,0,,0,,,48,127
16941,note_on,0,0,0,,4,,,76,127
16941,note_on,0,0,0,,7,,,79,127
17139,note_off,198,0,0,,7,,,79,127
17139,note_off,0,0,0,,4,,,76,127
17141,note_on,2,0,0,,5,,,77,127
17141,note_on,0,0,0,,10,,,81,127
17339,note_off,198,0,0,,10,,,81,127
17339,note_off,0,0,0,,5,,,77,127
17341,note_on,2,0,0,,12,,,83,127
17341,note_on,0,0,0,,2,,,74,127
17539,note_off,198,0,0,,0,,,48,127
17539,note_off,0,0,0,,0,,,36,127
17541,note_on,2,0,0,,0,,,36,127
17541,note_on,0,0,0,,0,,,48,127
17739,note_off,198,0,0,,2,,,74,127
17739,note_off,0,0,0,,12,,,83,127
17741,note_on,2,0,0,,4,,,76,127
17741,note_on,0,0,0,,0,,,84,127
17839,note_off,98,0,0,,0,,,84,127
17839,note_off,0,0,0,,4,,,76,127
17841,note_on,2,0,0,,2,,,74,127
17841,note_on,0,0,0,,12,,,83,127
17939,note_off,98,0,0,,12,,,83,127
17939,note_off,0,0,0,,2,,,74,127
17941,note_on,2,0,0,,0,,,84,127
17941,note_on,0,0,0,,4,,,76,127
18139,note_off,198,0,0,,4,,,76,127
18139,note_off,0,0,0,,0,,,84,127
18139,note_off,0,0,0,,0,,,48,127
18139,note_off,0,0,0,,0,,,36,127
18158,note_on,19,0,0,,0,,,72,127
18358,note_on,200,0,0,,0,,,60,127
18554,note_off,196,0,0,,0,,,72,127
18558,note_on,4,0,0,,4,,,76,127
18558,note_on,0,0,0,,12,,,71,127
18754,note_off,196,0,0,,0,,,60,127
18756,note_off,2,0,0,,12,,,71,127
18756,note_off,0,0,0,,4,,,76,127
18758,note_on,2,0,0,,0,,,84,127
18758,note_on,0,0,0,,10,,,69,127
18956,note_off,198,0,0,,10,,,69,127
18958,note_on,2,0,0,,0,,,72,127
18958,note_on,0,0,0,,0,,,60,127
19154,note_off,196,0,0,,0,,,84,127
19156,note_off,2,0,0,,0,,,72,127
19158,note_on,2,0,0,,12,,,83,127
19158,note_on,0,0,0,,7,,,67,127
19354,note_off,196,0,0,,0,,,60,127
19358,note_on,4,0,0,,0,,,60,127
19554,note_off,196,0,0,,7,,,67,127
19556,note_off,2,0,0,,12,,,83,127
19558,note_on,2,0,0,,10,,,81,127
19558,note_on,0,0,0,,6,,,66,127
19756,note_off,198,0,0,,6,,,66,127
19756,note_off,0,0,0,,10,,,81,127
19758,note_on,2,0,0,,7,,,79,127
19758,note_on,0,0,0,,4,,,64,127
19956,note_off,198,0,0,,4,,,64,127
19956,note_off,0,0,0,,7,,,79,127
19957,note_off,1,0,0,,0,,,60,127
19958,note_on,1,0,0,,7,,,79,127
19958,note_on,0,0,0,,2,,,62,127
20023,note_off,65,0,0,,7,,,79,127
20025,note_on,2,0,0,,6,,,78,127
20090,note_off,65,0,0,,6,,,78,127
20092,note_on,2,0,0,,7,,,79,127
20157,note_off,65,0,0,,7,,,79,127
20159,note_on,2,0,0,,6,,,78,127
20257,note_off,98,0,0,,6,,,78,127
20259,note_on,2,0,0,,4,,,76,127
20357,note_off,98,0,0,,4,,,76,127
20359,note_on,2,0,0,,2,,,74,127
20359,note_on,0,0,0,,2,,,50,127
20511,note_off,152,0,0,,2,,,62,127
20515,note_off,4,0,0,,2,,,74,127
20525,note_off,10,0,0,,2,,,50,127
20567,note_on,42,0,0,,4,,,76,127
20568,note_on,1,0,0,,2,,,74,127
20665,note_off,97,0,0,,4,,,76,127
20666,note_off,1,0,0,,2,,,74,127
20667,note_on,1,0,0,,0,,,72,127
20765,note_off,98,0,0,,0,,,72,127
20767,note_on,2,0,0,,2,,,74,127
20965,note_off,198,0,0,,2,,,74,127
20967,note_on,2,0,0,,7,,,79,127
21165,note_off,198,0,0,,7,,,79,127
21167,note_on,2,0,0,,0,,,72,127
21167,note_on,0,0,0,,7,,,67,127
21168,note_on,1,0,0,,12,,,71,127
21265,note_off,97,0,0,,0,,,72,127
21266,note_off,1,0,0,,12,,,71,127
21267,note_on,1,0,0,,10,,,69,127
21365,note_off,98,0,0,,10,,,69,127
21365,note_off,0,0,0,,7,,,67,127
21367,note_on,2,0,0,,12,,,71,127
21367,note_on,0,0,0,,6,,,66,127
21565,note_off,198,0,0,,6,,,66,127
21565,note_off,0,0,0,,12,,,71,127
21567,note_on,2,0,0,,7,,,79,127
21567,note_on,0,0,0,,7,,,67,127
21765,note_off,198,0,0,,7,,,67,127
21765,note_off,0,0,0,,7,,,79,127
21767,note_on,2,0,0,,10,,,69,127
21767,note_on,0,0,0,,4,,,64,127
21768,note_on,1,0,0,,7,,,67,127
21865,note_off,97,0,0,,10,,,69,127
21866,note_off,1,0,0,,7,,,67,127
21867,note_on,1,0,0,,6,,,66,127
21965,note_off,98,0,0,,6,,,66,127
21965,note_off,0,0,0,,4,,,64,127
21967,note_on,2,0,0,,7,,,67,127
21967,note_on,0,0,0,,2,,,62,127
22165,note_off,198,0,0,,2,,,62,127
22165,note_off,0,0,0,,7,,,67,127
22167,note_on,2,0,0,,7,,,79,127
22167,note_on,0,0,0,,4,,,64,127
22365,note_off,198,0,0,,4,,,64,127
22365,note_off,0,0,0,,7,,,79,127
22367,note_on,2,0,0,,6,,,66,127
22367,note_on,0,0,0,,0,,,60,127
22368,note_on,1,0,0,,4,,,64,127
22465,note_off,97,0,0,,6,,,66,127
22466,note_off,1,0,0,,4,,,64,127
22467,note_on,1,0,0,,2,,,62,127
22565,note_off,98,0,0,,2,,,62,127
22565,note_off,0,0,0,,0,,,60,127
22567,note_on,2,0,0,,4,,,64,127
22567,note_on,0,0,0,,12,,,59,127
22765,note_off,198,0,0,,12,,,59,127
22765,note_off,0,0,0,,4,,,64,127
22767,note_on,2,0,0,,7,,,79,127
22767,note_on,0,0,0,,0,,,60,127
22965,note_off,198,0,0,,0,,,60,127
22965,note_off,0,0,0,,7,,,79,127
22967,note_on,2,0,0,,2,,,62,127
22967,note_on,0,0,0,,10,,,57,127
22968,note_on,1,0,0,,0,,,60,127
23065,note_off,97,0,0,,2,,,62,127
23066,note_off,1,0,0,,0,,,60,127
23067,note_on,1,0,0,,12,,,59,127
23165,note_off,98,0,0,,12,,,59,127
23165,note_off,0,0,0,,10,,,57,127
23167,note_on,2,0,0,,0,,,60,127
23167,note_on,0,0,0,,7,,,55,127
23355,note_off,188,0,0,,0,,,60,127
23365,note_off,10,0,0,,7,,,55,127
23367,note_on,2,0,0,,0,,,84,127
23367,note_on,0,0,0,,10,,,57,127
23555,note_off,188,0,0,,0,,,84,127
23565,note_off,10,0,0,,10,,,57,127
23567,note_on,2,0,0,,2,,,38,127
23567,note_on,0,0,0,,0,,,60,127
23567,note_on,0,0,0,,10,,,57,127
23567,note_on,0,0,0,,2,,,50,127
23765,note_off,198,0,0,,2,,,38,127
23767,note_on,2,0,0,,6,,,42,127
23965,note_off,198,0,0,,6,,,42,127
23965,note_off,0,0,0,,10,,,57,127
23965,note_off,0,0,0,,0,,,60,127
23967,note_on,2,0,0,,7,,,43,127
23967,note_on,0,0,0,,12,,,59,127
23967,note_on,0,0,0,,7,,,55,127
24165,note_off,198,0,0,,7,,,55,127
24165,note_off,0,0,0,,12,,,59,127
24165,note_off,0,0,0,,7,,,43,127
24166,note_off,1,0,0,,2,,,50,127
24167,note_on,1,0,0,,0,,,84,127
24167,note_on,0,0,0,,0,,,60,127
24167,note_on,0,0,0,,7,,,55,127
24167,note_on,0,0,0,,10,,,57,127
24167,note_on,0,0,0,,0,,,48,127
24232,note_off,65,0,0,,0,,,84,127
24234,note_on,2,0,0,,12,,,83,127
24299,note_off,65,0,0,,12,,,83,127
24301,note_on,2,0,0,,10,,,81,127
24366,note_off,65,0,0,,10,,,81,127
24366,note_off,0,0,0,,0,,,48,127
24366,note_off,0,0,0,,10,,,57,127
24366,note_off,0,0,0,,7,,,55,127
24366,note_off,0,0,0,,0,,,60,127
24368,note_on,2,0,0,,12,,,83,127
24368,note_on,0,0,0,,7,,,55,127
24368,note_on,0,0,0,,12,,,59,127
24368,note_on,0,0,0,,2,,,50,127
24566,note_off,198,0,0,,12,,,59,127
24566,note_off,0,0,0,,7,,,55,127
24566,note_off,0,0,0,,12,,,83,127
24568,note_on,2,0,0,,10,,,81,127
24568,note_on,0,0,0,,10,,,57,127
24568,note_on,0,0,0,,0,,,60,127
24764,note_off,196,0,0,,2,,,50,127
24766,note_off,2,0,0,,0,,,60,127
24766,note_off,0,0,0,,10,,,57,127
24766,note_off,0,0,0,,10,,,81,127
24768,note_on,2,0,0,,10,,,81,127
24768,note_on,0,0,0,,7,,,55,127
24966,note_off,198,0,0,,7,,,55,127
24968,note_on,2,0,0,,7,,,43,127
25166,note_off,198,0,0,,10,,,81,127
25168,note_on,2,0,0,,7,,,79,127
25356,note_off,188,0,0,,7,,,79,127
25366,note_off,10,0,0,,7,,,43,127
25385,note_on,19,0,0,,2,,,74,127
25385,note_on,0,0,0,,4,,,76,127
25385,note_on,0,0,0,,12,,,71,127
25483,note_off,98,0,0,,4,,,76,127
25483,note_off,0,0,0,,2,,,74,127
25485,note_on,2,0,0,,1,,,73,127
25583,note_off,98,0,0,,1,,,73,127
25583,note_off,0,0,0,,12,,,71,127
25585,note_on,2,0,0,,2,,,74,127
25585,note_on,0,0,0,,10,,,69,127
25783,note_off,198,0,0,,10,,,69,127
25783,note_off,0,0,0,,2,,,74,127
25785,note_on,2,0,0,,7,,,79,127
25785,note_on,0,0,0,,12,,,71,127
25983,note_off,198,0,0,,12,,,71,127
25983,note_off,0,0,0,,7,,,79,127
25993,note_on,10,0,0,,0,,,72,127
25993,note_on,0,0,0,,12,,,71,127
25993,note_on,0,0,0,,7,,,67,127
26091,note_off,98,0,0,,12,,,71,127
26091,note_off,0,0,0,,0,,,72,127
26093,note_on,2,0,0,,10,,,69,127
26191,note_off,98,0,0,,10,,,69,127
26191,note_off,0,0,0,,7,,,67,127
26193,note_on,2,0,0,,12,,,71,127
26193,note_on,0,0,0,,6,,,66,127
26391,note_off,198,0,0,,6,,,66,127
26391,note_off,0,0,0,,12,,,71,127
26393,note_on,2,0,0,,7,,,79,127
26393,note_on,0,0,0,,7,,,67,127
26591,note_off,198,0,0,,7,,,67,127
26591,note_off,0,0,0,,7,,,79,127
26601,note_on,10,0,0,,10,,,69,127
26601,note_on,0,0,0,,7,,,67,127
26601,note_on,0,0,0,,4,,,64,127
26699,note_off,98,0,0,,7,,,67,127
26699,note_off,0,0,0,,10,,,69,127
26701,note_on,2,0,0,,6,,,66,127
26799,note_off,98,0,0,,6,,,66,127
26799,note_off,0,0,0,,4,,,64,127
26801,note_on,2,0,0,,7,,,67,127
26801,note_on,0,0,0,,2,,,62,127
26999,note_off,198,0,0,,2,,,62,127
26999,note_off,0,0,0,,7,,,67,127
27001,note_on,2,0,0,,7,,,79,127
27001,note_on,0,0,0,,4,,,64,127
27199,note_off,198,0,0,,4,,,64,127
27199,note_off,0,0,0,,7,,,79,127
27209,note_on,10,0,0,,6,,,66,127
27209,note_on,0,0,0,,4,,,64,127
27209,note_on,0,0,0,,0,,,60,127
27307,note_off,98,0,0,,4,,,64,127
27307,note_off,0,0,0,,6,,,66,127
27309,note_on,2,0,0,,2,,,62,127
27407,note_off,98,0,0,,2,,,62,127
27407,note_off,0,0,0,,0,,,60,127
27409,note_on,2,0,0,,4,,,64,127
27409,note_on,0,0,0,,12,,,59,127
27607,note_off,198,0,0,,12,,,59,127
27607,note_off,0,0,0,,4,,,64,127
27609,note_on,2,0,0,,7,,,79,127
27609,note_on,0,0,0,,0,,,60,127
27807,note_off,198,0,0,,0,,,60,127
27807,note_off,0,0,0,,7,,,79,127
27817,note_on,10,0,0,,2,,,62,127
27817,note_on,0,0,0,,0,,,60,127
27817,note_on,0,0,0,,10,,,57,127
27915,note_off,98,0,0,,0,,,60,127
27915,note_off,0,0,0,,2,,,62,127
27917,note_on,2,0,0,,12,,,59,127
28015,note_off,98,0,0,,12,,,59,127
28015,note_off,0,0,0,,10,,,57,127
28017,note_on,2,0,0,,0,,,60,127
28017,note_on,0,0,0,,7,,,55,127
28205,note_off,188,0,0,,0,,,60,127
28215,note_off,10,0,0,,7,,,55,127
28217,note_on,2,0,0,,0,,,84,127
28217,note_on,0,0,0,,10,,,57,127
28405,note_off,188,0,0,,0,,,84,127
28415,note_off,10,0,0,,10,,,57,127
28417,note_on,2,0,0,,2,,,38,127
28417,note_on,0,0,0,,0,,,60,127
28417,note_on,0,0,0,,2,,,50,127
28417,note_on,0,0,0,,10,,,57,127
28615,note_off,198,0,0,,2,,,38,127
28617,note_on,2,0,0,,6,,,42,127
28815,note_off,198,0,0,,6,,,42,127
28815,note_off,0,0,0,,10,,,57,127
28815,note_off,0,0,0,,0,,,60,127
28817,note_on,2,0,0,,7,,,43,127
28817,note_on,0,0,0,,7,,,55,127
28817,note_on,0,0,0,,12,,,59,127
29015,note_off,198,0,0,,7,,,43,127
29016,note_off,1,0,0,,12,,,59,127
29016,note_off,0,0,0,,7,,,55,127
29016,note_off,0,0,0,,2,,,50,127
29025,note_on,9,0,0,,7,,,55,127
29025,note_on,0,0,0,,0,,,48,127
29025,note_on,0,0,0,,0,,,60,127
29025,note_on,0,0,0,,10,,,57,127
29025,note_on,0,0,0,,0,,,84,127
29090,note_off,65,0,0,,0,,,84,127
29092,note_on,2,0,0,,12,,,83,127
29157,note_off,65,0,0,,12,,,83,127
29159,note_on,2,0,0,,10,,,81,127
29224,note_off,65,0,0,,10,,,81,127
29224,note_off,0,0,0,,10,,,57,127
29224,note_off,0,0,0,,0,,,60,127
29224,note_off,0,0,0,,0,,,48,127
29224,note_off,0,0,0,,7,,,55,127
29226,note_on,2,0,0,,2,,,50,127
29226,note_on,0,0,0,,12,,,59,127
29226,note_on,0,0,0,,7,,,55,127
29226,note_on,0,0,0,,12,,,83,127
29424,note_off,198,0,0,,12,,,83,127
29424,note_off,0,0,0,,7,,,55,127
29424,note_off,0,0,0,,12,,,59,127
29426,note_on,2,0,0,,0,,,60,127
29426,note_on,0,0,0,,10,,,57,127
29426,note_on,0,0,0,,10,,,81,127
29622,note_off,196,0,0,,2,,,50,127
29624,note_off,2,0,0,,10,,,81,127
29624,note_off,0,0,0,,10,,,57,127
29624,note_off,0,0,0,,0,,,60,127
29643,note_on,19,0,0,,6,,,78,127
29643,note_on,0,0,0,,7,,,55,127
29708,note_off,65,0,0,,6,,,78,127
29710,note_on,2,0,0,,7,,,79,127
29775,note_off,65,0,0,,7,,,79,127
29777,note_on,2,0,0,,10,,,81,127
29842,note_off,65,0,0,,10,,,81,127
29842,note_off,0,0,0,,7,,,55,127
29844,note_on,2,0,0,,7,,,79,127
29844,note_on,0,0,0,,10,,,57,127
30042,note_off,198,0,0,,10,,,57,127
30044,note_on,2,0,0,,12,,,59,127
30242,note_off,198,0,0,,12,,,59,127
30242,note_off,0,0,0,,7,,,79,127
30244,note_on,2,0,0,,3,,,75,127
30244,note_on,0,0,0,,0,,,60,127
30309,note_off,65,0,0,,3,,,75,127
30311,note_on,2,0,0,,4,,,76,127
30376,note_off,65,0,0,,4,,,76,127
30378,note_on,2,0,0,,6,,,78,127
30443,note_off,65,0,0,,6,,,78,127
30445,note_on,2,0,0,,4,,,76,127
30645,note_on,200,0,0,,0,,,48,127
30843,note_off,198,0,0,,0,,,48,127
30843,note_off,0,0,0,,4,,,76,127
30844,note_off,1,0,0,,0,,,60,127
30845,note_on,1,0,0,,12,,,71,127
30845,note_on,0,0,0,,2,,,62,127
30910,note_off,65,0,0,,12,,,71,127
30912,note_on,2,0,0,,2,,,74,127
30977,note_off,65,0,0,,2,,,74,127
30979,note_on,2,0,0,,0,,,72,127
31044,note_off,65,0,0,,0,,,72,127
31046,note_on,2,0,0,,12,,,71,127
31244,note_off,198,0,0,,12,,,71,127
31246,note_on,2,0,0,,10,,,69,127
31246,note_on,0,0,0,,2,,,50,127
31346,note_off,100,0,0,,2,,,62,127
31444,note_off,98,0,0,,2,,,50,127
31444,note_off,0,0,0,,10,,,69,127
31463,note_on,19,0,0,,7,,,43,127
31463,note_on,0,0,0,,6,,,66,127
31528,note_off,65,0,0,,6,,,66,127
31530,note_on,2,0,0,,7,,,67,127
31595,note_off,65,0,0,,7,,,67,127
31597,note_on,2,0,0,,10,,,69,127
31662,note_off,65,0,0,,10,,,69,127
31662,note_off,0,0,0,,7,,,43,127
31664,note_on,2,0,0,,10,,,45,127
31664,note_on,0,0,0,,7,,,67,127
31862,note_off,198,0,0,,10,,,45,127
31864,note_on,2,0,0,,12,,,47,127
32062,note_off,198,0,0,,12,,,47,127
32062,note_off,0,0,0,,7,,,67,127
32064,note_on,2,0,0,,0,,,48,127
32064,note_on,0,0,0,,3,,,63,127
32129,note_off,65,0,0,,3,,,63,127
32131,note_on,2,0,0,,4,,,64,127
32196,note_off,65,0,0,,4,,,64,127
32198,note_on,2,0,0,,6,,,66,127
32263,note_off,65,0,0,,6,,,66,127
32265,note_on,2,0,0,,4,,,64,127
32465,note_on,200,0,0,,0,,,36,127
32663,note_off,198,0,0,,0,,,36,127
32663,note_off,0,0,0,,4,,,64,127
32664,note_off,1,0,0,,0,,,48,127
32665,note_on,1,0,0,,2,,,50,127
32665,note_on,0,0,0,,12,,,59,127
32730,note_off,65,0,0,,12,,,59,127
32732,note_on,2,0,0,,2,,,62,127
32797,note_off,65,0,0,,2,,,62,127
32799,note_on,2,0,0,,0,,,60,127
32864,note_off,65,0,0,,0,,,60,127
32866,note_on,2,0,0,,12,,,59,127
33064,note_off,198,0,0,,12,,,59,127
33066,note_on,2,0,0,,2,,,38,127
33066,note_on,0,0,0,,10,,,57,127
33264,note_off,198,0,0,,10,,,57,127
33264,note_off,0,0,0,,2,,,38,127
33265,note_off,1,0,0,,2,,,50,127
33266,note_on,1,0,0,,7,,,43,127
33266,note_on,0,0,0,,7,,,55,127
33865,note_off,599,0,0,,7,,,55,127
33865,note_off,0,0,0,,7,,,43,127
33926,note_on,61,0,0,,0,,,72,127
33926,note_on,0,0,0,,12,,,71,127
33926,note_on,0,0,0,,7,,,55,127
33926,note_on,0,0,0,,7,,,43,127
34024,note_off,98,0,0,,12,,,71,127
34024,note_off,0,0,0,,0,,,72,127
34026,note_on,2,0,0,,10,,,69,127
34124,note_off,98,0,0,,10,,,69,127
34126,note_on,2,0,0,,12,,,71,127
34324,note_off,198,0,0,,12,,,71,127
34326,note_on,2,0,0,,7,,,67,127
34524,note_off,198,0,0,,7,,,67,127
34524,note_off,0,0,0,,7,,,43,127
34524,note_off,0,0,0,,7,,,55,127
34526,note_on,2,0,0,,4,,,76,127
34526,note_on,0,0,0,,2,,,74,127
34526,note_on,0,0,0,,7,,,55,127
34526,note_on,0,0,0,,7,,,43,127
34624,note_off,98,0,0,,2,,,74,127
34624,note_off,0,0,0,,4,,,76,127
34626,note_on,2,0,0,,0,,,72,127
34724,note_off,98,0,0,,0,,,72,127
34726,note_on,2,0,0,,2,,,74,127
34924,note_off,198,0,0,,2,,,74,127
34926,note_on,2,0,0,,12,,,71,127
35124,note_off,198,0,0,,12,,,71,127
35124,note_off,0,0,0,,7,,,43,127
35124,note_off,0,0,0,,7,,,55,127
35126,note_on,2,0,0,,7,,,79,127
35126,note_on,0,0,0,,4,,,64,127
35126,note_on,0,0,0,,7,,,55,127
35324,note_off,198,0,0,,7,,,79,127
35326,note_on,2,0,0,,4,,,76,127
35524,note_off,198,0,0,,4,,,76,127
35524,note_off,0,0,0,,4,,,64,127
35526,note_on,2,0,0,,0,,,72,127
35526,note_on,0,0,0,,6,,,66,127
35724,note_off,198,0,0,,6,,,66,127
35724,note_off,0,0,0,,0,,,72,127
35725,note_off,1,0,0,,7,,,55,127
35726,note_on,1,0,0,,0,,,72,127
35726,note_on,0,0,0,,12,,,71,127
35726,note_on,0,0,0,,7,,,67,127
35726,note_on,0,0,0,,7,,,55,127
35924,note_off,198,0,0,,12,,,71,127
35924,note_off,0,0,0,,0,,,72,127
35926,note_on,2,0,0,,10,,,69,127
36024,note_off,98,0,0,,10,,,69,127
36026,note_on,2,0,0,,12,,,71,127
36122,note_off,96,0,0,,7,,,67,127
36124,note_off,2,0,0,,12,,,71,127
36126,note_on,2,0,0,,7,,,67,127
36324,note_off,198,0,0,,7,,,55,127
36334,note_off,10,0,0,,7,,,67,127
36334,note_on,0,0,0,,7,,,79,127
36334,note_on,0,0,0,,4,,,64,127
36334,note_on,0,0,0,,7,,,55,127
36532,note_off,198,0,0,,7,,,79,127
36534,note_on,2,0,0,,4,,,76,127
36732,note_off,198,0,0,,4,,,76,127
36732,note_off,0,0,0,,4,,,64,127
36734,note_on,2,0,0,,0,,,72,127
36734,note_on,0,0,0,,6,,,66,127
36932,note_off,198,0,0,,6,,,66,127
36932,note_off,0,0,0,,0,,,72,127
36933,note_off,1,0,0,,7,,,55,127
36934,note_on,1,0,0,,0,,,72,127
36934,note_on,0,0,0,,12,,,71,127
36934,note_on,0,0,0,,7,,,67,127
36934,note_on,0,0,0,,7,,,55,127
37132,note_off,198,0,0,,12,,,71,127
37132,note_off,0,0,0,,0,,,72,127
37134,note_on,2,0,0,,10,,,69,127
37232,note_off,98,0,0,,10,,,69,127
37234,note_on,2,0,0,,12,,,71,127
37330,note_off,96,0,0,,7,,,67,127
37332,note_off,2,0,0,,12,,,71,127
37334,note_on,2,0,0,,7,,,67,127
37532,note_off,198,0,0,,7,,,55,127
37542,note_off,10,0,0,,7,,,67,127
37550,note_on,8,0,0,,7,,,55,127
37550,note_on,0,0,0,,1,,,61,127
37550,note_on,0,0,0,,4,,,64,127
37550,note_on,0,0,0,,7,,,79,127
37748,note_off,198,0,0,,7,,,79,127
37750,note_on,2,0,0,,4,,,76,127
37948,note_off,198,0,0,,4,,,76,127
37950,note_on,2,0,0,,1,,,73,127
38148,note_off,198,0,0,,1,,,73,127
38148,note_off,0,0,0,,4,,,64,127
38148,note_off,0,0,0,,1,,,61,127
38148,note_off,0,0,0,,7,,,55,127
38150,note_on,2,0,0,,10,,,57,127
38150,note_on,0,0,0,,5,,,53,127
38150,note_on,0,0,0,,2,,,62,127
38150,note_on,0,0,0,,10,,,81,127
38348,note_off,198,0,0,,10,,,81,127
38350,note_on,2,0,0,,5,,,77,127
38548,note_off,198,0,0,,5,,,77,127
38550,note_on,2,0,0,,2,,,74,127
38748,note_off,198,0,0,,2,,,74,127
38748,note_off,0,0,0,,2,,,62,127
38748,note_off,0,0,0,,5,,,53,127
38748,note_off,0,0,0,,10,,,57,127
38750,note_on,2,0,0,,12,,,59,127
38750,note_on,0,0,0,,6,,,54,127
38750,note_on,0,0,0,,3,,,63,127
38750,note_on,0,0,0,,10,,,57,127
38750,note_on,0,0,0,,10,,,81,127
38948,note_off,198,0,0,,10,,,81,127
38950,note_on,2,0,0,,6,,,78,127
39148,note_off,198,0,0,,6,,,78,127
39150,note_on,2,0,0,,3,,,75,127
39348,note_off,198,0,0,,3,,,75,127
39348,note_off,0,0,0,,10,,,57,127
39348,note_off,0,0,0,,3,,,63,127
39348,note_off,0,0,0,,6,,,54,127
39348,note_off,0,0,0,,12,,,59,127
39350,note_on,2,0,0,,12,,,59,127
39350,note_on,0,0,0,,8,,,56,127
39350,note_on,0,0,0,,4,,,64,127
39350,note_on,0,0,0,,12,,,83,127
39548,note_off,198,0,0,,12,,,83,127
39550,note_on,2,0,0,,2,,,74,127
39748,note_off,198,0,0,,2,,,74,127
39750,note_on,2,0,0,,12,,,71,127
39948,note_off,198,0,0,,12,,,71,127
39948,note_off,0,0,0,,4,,,64,127
39948,note_off,0,0,0,,8,,,56,127
39948,note_off,0,0,0,,12,,,59,127
39950,note_on,2,0,0,,4,,,64,127
39950,note_on,0,0,0,,10,,,57,127
39950,note_on,0,0,0,,0,,,72,127
40148,note_off,198,0,0,,0,,,72,127
40148,note_off,0,0,0,,10,,,57,127
40148,note_off,0,0,0,,4,,,64,127
40150,note_on,2,0,0,,7,,,55,127
40150,note_on,0,0,0,,4,,,76,127
40215,note_off,65,0,0,,4,,,76,127
40217,note_on,2,0,0,,2,,,74,127
40282,note_off,65,0,0,,2,,,74,127
40284,note_on,2,0,0,,4,,,76,127
40349,note_off,65,0,0,,4,,,76,127
40349,note_off,0,0,0,,7,,,55,127
40351,note_on,2,0,0,,5,,,53,127
40351,note_on,0,0,0,,2,,,74,127
40416,note_off,65,0,0,,2,,,74,127
40418,note_on,2,0,0,,0,,,72,127
40483,note_off,65,0,0,,0,,,72,127
40485,note_on,2,0,0,,2,,,74,127
40550,note_off,65,0,0,,2,,,74,127
40550,note_off,0,0,0,,5,,,53,127
40552,note_on,2,0,0,,4,,,52,127
40552,note_on,0,0,0,,2,,,74,127
40763,note_on,211,0,0,,4,,,40,127
40949,note_off,186,0,0,,4,,,52,127
40971,note_off,22,0,0,,2,,,74,127
40974,note_on,3,0,0,,4,,,76,127
41162,note_off,188,0,0,,4,,,40,127
41172,note_off,10,0,0,,4,,,76,127
41187,note_on,15,0,0,,10,,,69,127
41187,note_on,0,0,0,,2,,,74,127
41187,note_on,0,0,0,,0,,,72,127
41285,note_off,98,0,0,,0,,,72,127
41285,note_off,0,0,0,,2,,,74,127
41287,note_on,2,0,0,,12,,,71,127
41385,note_off,98,0,0,,12,,,71,127
41385,note_off,0,0,0,,10,,,69,127
41387,note_on,2,0,0,,8,,,68,127
41387,note_on,0,0,0,,0,,,72,127
41585,note_off,198,0,0,,0,,,72,127
41585,note_off,0,0,0,,8,,,68,127
41587,note_on,2,0,0,,10,,,69,127
41587,note_on,0,0,0,,10,,,81,127
41785,note_off,198,0,0,,10,,,81,127
41785,note_off,0,0,0,,10,,,69,127
41795,note_on,10,0,0,,5,,,65,127
41795,note_on,0,0,0,,10,,,69,127
41795,note_on,0,0,0,,12,,,71,127
41893,note_off,98,0,0,,12,,,71,127
41893,note_off,0,0,0,,10,,,69,127
41895,note_on,2,0,0,,8,,,68,127
41993,note_off,98,0,0,,8,,,68,127
41993,note_off,0,0,0,,5,,,65,127
41995,note_on,2,0,0,,4,,,64,127
41995,note_on,0,0,0,,10,,,69,127
42193,note_off,198,0,0,,10,,,69,127
42193,note_off,0,0,0,,4,,,64,127
42195,note_on,2,0,0,,5,,,65,127
42195,note_on,0,0,0,,10,,,81,127
42393,note_off,198,0,0,,10,,,81,127
42393,note_off,0,0,0,,5,,,65,127
42403,note_on,10,0,0,,2,,,62,127
42403,note_on,0,0,0,,7,,,67,127
42403,note_on,0,0,0,,5,,,65,127
42501,note_off,98,0,0,,5,,,65,127
42501,note_off,0,0,0,,7,,,67,127
42503,note_on,2,0,0,,4,,,64,127
42601,note_off,98,0,0,,4,,,64,127
42601,note_off,0,0,0,,2,,,62,127
42603,note_on,2,0,0,,0,,,60,127
42603,note_on,0,0,0,,5,,,65,127
42801,note_off,198,0,0,,5,,,65,127
42801,note_off,0,0,0,,0,,,60,127
42803,note_on,2,0,0,,2,,,62,127
42803,note_on,0,0,0,,10,,,81,127
43001,note_off,198,0,0,,10,,,81,127
43001,note_off,0,0,0,,2,,,62,127
43011,note_on,10,0,0,,12,,,59,127
43011,note_on,0,0,0,,2,,,62,127
43011,note_on,0,0,0,,4,,,64,127
43109,note_off,98,0,0,,4,,,64,127
43109,note_off,0,0,0,,2,,,62,127
43111,note_on,2,0,0,,0,,,60,127
43209,note_off,98,0,0,,0,,,60,127
43209,note_off,0,0,0,,12,,,59,127
43211,note_on,2,0,0,,10,,,57,127
43211,note_on,0,0,0,,2,,,62,127
43409,note_off,198,0,0,,2,,,62,127
43409,note_off,0,0,0,,10,,,57,127
43411,note_on,2,0,0,,12,,,59,127
43411,note_on,0,0,0,,5,,,77,127
43609,note_off,198,0,0,,5,,,77,127
43609,note_off,0,0,0,,12,,,59,127
43611,note_on,2,0,0,,4,,,52,127
43611,note_on,0,0,0,,2,,,62,127
43611,note_on,0,0,0,,12,,,59,127
43611,note_on,0,0,0,,4,,,40,127
43809,note_off,198,0,0,,4,,,40,127
43811,note_on,2,0,0,,8,,,44,127
44009,note_off,198,0,0,,8,,,44,127
44009,note_off,0,0,0,,12,,,59,127
44009,note_off,0,0,0,,2,,,62,127
44011,note_on,2,0,0,,10,,,57,127
44011,note_on,0,0,0,,0,,,60,127
44011,note_on,0,0,0,,10,,,45,127
44209,note_off,198,0,0,,10,,,45,127
44209,note_off,0,0,0,,0,,,60,127
44209,note_off,0,0,0,,10,,,57,127
44210,note_off,1,0,0,,4,,,52,127
44211,note_on,1,0,0,,2,,,50,127
44211,note_on,0,0,0,,7,,,79,127
44211,note_on,0,0,0,,5,,,77,127
44276,note_off,65,0,0,,5,,,77,127
44276,note_off,0,0,0,,7,,,79,127
44278,note_on,2,0,0,,4,,,76,127
44343,note_off,65,0,0,,4,,,76,127
44345,note_on,2,0,0,,2,,,74,127
44410,note_off,65,0,0,,2,,,74,127
44410,note_off,0,0,0,,2,,,50,127
44412,note_on,2,0,0,,4,,,52,127
44412,note_on,0,0,0,,0,,,72,127
44610,note_off,198,0,0,,0,,,72,127
44612,note_on,2,0,0,,4,,,40,127
44612,note_on,0,0,0,,12,,,71,127
44808,note_off,196,0,0,,4,,,52,127
44810,note_off,2,0,0,,12,,,71,127
44810,note_off,0,0,0,,4,,,40,127
44818,note_on,8,0,0,,10,,,57,127
44818,note_on,0,0,0,,10,,,69,127
45029,note_on,211,0,0,,10,,,81,127
45215,note_off,186,0,0,,10,,,69,127
45217,note_off,2,0,0,,10,,,57,127
45227,note_off,10,0,0,,10,,,81,127
45229,note_on,2,0,0,,6,,,78,127
45229,note_on,0,0,0,,10,,,69,127
45427,note_off,198,0,0,,6,,,78,127
45429,note_on,2,0,0,,3,,,75,127
45429,note_on,0,0,0,,12,,,59,127
45625,note_off,196,0,0,,10,,,69,127
45627,note_off,2,0,0,,3,,,75,127
45629,note_on,2,0,0,,2,,,74,127
45629,note_on,0,0,0,,12,,,71,127
45694,note_off,65,0,0,,12,,,71,127
45694,note_off,0,0,0,,2,,,74,127
45696,note_on,2,0,0,,0,,,72,127
45696,note_on,0,0,0,,10,,,69,127
45761,note_off,65,0,0,,10,,,69,127
45761,note_off,0,0,0,,0,,,72,127
45763,note_on,2,0,0,,2,,,74,127
45763,note_on,0,0,0,,12,,,71,127
45828,note_off,65,0,0,,12,,,71,127
45828,note_off,0,0,0,,2,,,74,127
45830,note_on,2,0,0,,0,,,72,127
45830,note_on,0,0,0,,10,,,69,127
45895,note_off,65,0,0,,10,,,69,127
45895,note_off,0,0,0,,0,,,72,127
45897,note_on,2,0,0,,12,,,71,127
45897,note_on,0,0,0,,7,,,67,127
45962,note_off,65,0,0,,7,,,67,127
45962,note_off,0,0,0,,12,,,71,127
45964,note_on,2,0,0,,0,,,72,127
45964,note_on,0,0,0,,10,,,69,127
46029,note_off,65,0,0,,10,,,69,127
46029,note_off,0,0,0,,0,,,72,127
46030,note_off,1,0,0,,12,,,59,127
46031,note_on,1,0,0,,12,,,71,127
46031,note_on,0,0,0,,7,,,67,127
46240,note_off,209,0,0,,12,,,71,127
46240,note_on,0,0,0,,7,,,79,127
46438,note_off,198,0,0,,7,,,79,127
46440,note_on,2,0,0,,4,,,76,127
46440,note_on,0,0,0,,7,,,55,127
46626,note_off,186,0,0,,7,,,67,127
46639,note_off,13,0,0,,7,,,55,127
46639,note_off,0,0,0,,4,,,76,127
46641,note_on,2,0,0,,1,,,73,127
46641,note_on,0,0,0,,7,,,67,127
46641,note_on,0,0,0,,10,,,57,127
46839,note_off,198,0,0,,7,,,67,127
46839,note_off,0,0,0,,1,,,73,127
46841,note_on,2,0,0,,0,,,72,127
46841,note_on,0,0,0,,10,,,69,127
46906,note_off,65,0,0,,10,,,69,127
46906,note_off,0,0,0,,0,,,72,127
46908,note_on,2,0,0,,11,,,70,127
46908,note_on,0,0,0,,7,,,67,127
46973,note_off,65,0,0,,7,,,67,127
46973,note_off,0,0,0,,11,,,70,127
46975,note_on,2,0,0,,0,,,72,127
46975,note_on,0,0,0,,10,,,69,127
47040,note_off,65,0,0,,10,,,69,127
47040,note_off,0,0,0,,0,,,72,127
47042,note_on,2,0,0,,11,,,70,127
47042,note_on,0,0,0,,7,,,67,127
47107,note_off,65,0,0,,7,,,67,127
47107,note_off,0,0,0,,11,,,70,127
47109,note_on,2,0,0,,10,,,69,127
47109,note_on,0,0,0,,5,,,65,127
47174,note_off,65,0,0,,5,,,65,127
47174,note_off,0,0,0,,10,,,69,127
47176,note_on,2,0,0,,11,,,70,127
47176,note_on,0,0,0,,7,,,67,127
47241,note_off,65,0,0,,7,,,67,127
47241,note_off,0,0,0,,11,,,70,127
47242,note_off,1,0,0,,10,,,57,127
47243,note_on,1,0,0,,10,,,69,127
47243,note_on,0,0,0,,5,,,65,127
47441,note_off,198,0,0,,10,,,69,127
47451,note_on,10,0,0,,5,,,77,127
47451,note_on,0,0,0,,5,,,53,127
47649,note_off,198,0,0,,5,,,77,127
47651,note_on,2,0,0,,2,,,74,127
47837,note_off,186,0,0,,5,,,65,127
47850,note_off,13,0,0,,2,,,74,127
47850,note_off,0,0,0,,5,,,53,127
47852,note_on,2,0,0,,12,,,71,127
47852,note_on,0,0,0,,5,,,65,127
47852,note_on,0,0,0,,7,,,55,127
48050,note_off,198,0,0,,5,,,65,127
48050,note_off,0,0,0,,12,,,71,127
48052,note_on,2,0,0,,12,,,71,127
48052,note_on,0,0,0,,7,,,67,127
48117,note_off,65,0,0,,7,,,67,127
48117,note_off,0,0,0,,12,,,71,127
48119,note_on,2,0,0,,10,,,69,127
48119,note_on,0,0,0,,5,,,65,127
48184,note_off,65,0,0,,5,,,65,127
48184,note_off,0,0,0,,10,,,69,127
48186,note_on,2,0,0,,12,,,71,127
48186,note_on,0,0,0,,7,,,67,127
48251,note_off,65,0,0,,7,,,67,127
48251,note_off,0,0,0,,12,,,71,127
48253,note_on,2,0,0,,10,,,69,127
48253,note_on,0,0,0,,5,,,65,127
48318,note_off,65,0,0,,5,,,65,127
48318,note_off,0,0,0,,10,,,69,127
48320,note_on,2,0,0,,7,,,67,127
48320,note_on,0,0,0,,4,,,64,127
48385,note_off,65,0,0,,4,,,64,127
48385,note_off,0,0,0,,7,,,67,127
48387,note_on,2,0,0,,10,,,69,127
48387,note_on,0,0,0,,5,,,65,127
48452,note_off,65,0,0,,5,,,65,127
48452,note_off,0,0,0,,10,,,69,127
48453,note_off,1,0,0,,7,,,55,127
48454,note_on,1,0,0,,7,,,67,127
48454,note_on,0,0,0,,4,,,64,127
48652,note_off,198,0,0,,7,,,67,127
48654,note_on,2,0,0,,0,,,72,127
48752,note_off,98,0,0,,0,,,72,127
48754,note_on,2,0,0,,2,,,74,127
48852,note_off,98,0,0,,2,,,74,127
48852,note_off,0,0,0,,4,,,64,127
48854,note_on,2,0,0,,4,,,76,127
48854,note_on,0,0,0,,0,,,60,127
49052,note_off,198,0,0,,0,,,60,127
49052,note_off,0,0,0,,4,,,76,127
49054,note_on,2,0,0,,10,,,69,127
49054,note_on,0,0,0,,5,,,65,127
49252,note_off,198,0,0,,10,,,69,127
49254,note_on,2,0,0,,2,,,74,127
49452,note_off,198,0,0,,2,,,74,127
49452,note_off,0,0,0,,5,,,65,127
49454,note_on,2,0,0,,0,,,72,127
49454,note_on,0,0,0,,7,,,67,127
49454,note_on,0,0,0,,4,,,64,127
49652,note_off,198,0,0,,4,,,64,127
49652,note_off,0,0,0,,7,,,67,127
49652,note_off,0,0,0,,0,,,72,127
49654,note_on,2,0,0,,12,,,71,127
49654,note_on,0,0,0,,5,,,65,127
49654,note_on,0,0,0,,2,,,62,127
49852,note_off,198,0,0,,2,,,62,127
49852,note_off,0,0,0,,5,,,65,127
49852,note_off,0,0,0,,12,,,71,127
49854,note_on,2,0,0,,2,,,74,127
49854,note_on,0,0,0,,4,,,64,127
49854,note_on,0,0,0,,7,,,67,127
49919,note_off,65,0,0,,2,,,74,127
49921,note_on,2,0,0,,0,,,72,127
49986,note_off,65,0,0,,0,,,72,127
49988,note_on,2,0,0,,2,,,74,127
50053,note_off,65,0,0,,2,,,74,127
50053,note_off,0,0,0,,7,,,67,127
50053,note_off,0,0,0,,4,,,64,127
50055,note_on,2,0,0,,0,,,72,127
50055,note_on,0,0,0,,0,,,60,127
50120,note_off,65,0,0,,0,,,72,127
50122,note_on,2,0,0,,12,,,71,127
50187,note_off,65,0,0,,12,,,71,127
50189,note_on,2,0,0,,0,,,72,127
50254,note_off,65,0,0,,0,,,72,127
50254,note_off,0,0,0,,0,,,60,127
50256,note_on,2,0,0,,0,,,72,127
50256,note_on,0,0,0,,7,,,67,127
50467,note_on,211,0,0,,7,,,55,127
50676,note_off,209,0,0,,0,,,72,127
50678,note_on,2,0,0,,2,,,74,127
50845,note_off,167,0,0,,2,,,74,127
50856,note_off,11,0,0,,7,,,67,127
50865,note_off,9,0,0,,7,,,55,127
50898,note_on,33,0,0,,5,,,77,127
50898,note_on,0,0,0,,4,,,76,127
50898,note_on,0,0,0,,0,,,72,127
50996,note_off,98,0,0,,4,,,76,127
50996,note_off,0,0,0,,5,,,77,127
50998,note_on,2,0,0,,2,,,74,127
51096,note_off,98,0,0,,2,,,74,127
51096,note_off,0,0,0,,0,,,72,127
51098,note_on,2,0,0,,4,,,76,127
51098,note_on,0,0,0,,12,,,71,127
51296,note_off,198,0,0,,12,,,71,127
51296,note_off,0,0,0,,4,,,76,127
51298,note_on,2,0,0,,0,,,84,127
51298,note_on,0,0,0,,0,,,72,127
51475,note_off,177,0,0,,0,,,84,127
51496,note_off,21,0,0,,0,,,72,127
51498,note_on,2,0,0,,2,,,74,127
51498,note_on,0,0,0,,0,,,72,127
51498,note_on,0,0,0,,10,,,69,127
51596,note_off,98,0,0,,0,,,72,127
51596,note_off,0,0,0,,2,,,74,127
51598,note_on,2,0,0,,12,,,71,127
51696,note_off,98,0,0,,12,,,71,127
51696,note_off,0,0,0,,10,,,69,127
51698,note_on,2,0,0,,0,,,72,127
51698,note_on,0,0,0,,7,,,67,127
51896,note_off,198,0,0,,7,,,67,127
51896,note_off,0,0,0,,0,,,72,127
51898,note_on,2,0,0,,0,,,84,127
51898,note_on,0,0,0,,10,,,69,127
52065,note_off,167,0,0,,0,,,84,127
52096,note_off,31,0,0,,10,,,69,127
52098,note_on,2,0,0,,10,,,69,127
52098,note_on,0,0,0,,12,,,71,127
52098,note_on,0,0,0,,5,,,65,127
52196,note_off,98,0,0,,12,,,71,127
52196,note_off,0,0,0,,10,,,69,127
52198,note_on,2,0,0,,7,,,67,127
52296,note_off,98,0,0,,7,,,67,127
52296,note_off,0,0,0,,5,,,65,127
52298,note_on,2,0,0,,10,,,69,127
52298,note_on,0,0,0,,4,,,64,127
52496,note_off,198,0,0,,4,,,64,127
52496,note_off,0,0,0,,10,,,69,127
52498,note_on,2,0,0,,0,,,84,127
52498,note_on,0,0,0,,5,,,65,127
52655,note_off,157,0,0,,0,,,84,127
52697,note_off,42,0,0,,5,,,65,127
52699,note_on,2,0,0,,7,,,67,127
52699,note_on,0,0,0,,5,,,65,127
52699,note_on,0,0,0,,2,,,62,127
52797,note_off,98,0,0,,5,,,65,127
52797,note_off,0,0,0,,7,,,67,127
52799,note_on,2,0,0,,4,,,64,127
52897,note_off,98,0,0,,4,,,64,127
52897,note_off,0,0,0,,2,,,62,127
52899,note_on,2,0,0,,5,,,65,127
52899,note_on,0,0,0,,0,,,60,127
53097,note_off,198,0,0,,0,,,60,127
53097,note_off,0,0,0,,5,,,65,127
53099,note_on,2,0,0,,0,,,84,127
53099,note_on,0,0,0,,2,,,62,127
53245,note_off,146,0,0,,0,,,84,127
53297,note_off,52,0,0,,2,,,62,127
53299,note_on,2,0,0,,4,,,64,127
53299,note_on,0,0,0,,2,,,62,127
53299,note_on,0,0,0,,12,,,59,127
53397,note_off,98,0,0,,2,,,62,127
53397,note_off,0,0,0,,4,,,64,127
53399,note_on,2,0,0,,0,,,60,127
53497,note_off,98,0,0,,0,,,60,127
53497,note_off,0,0,0,,12,,,59,127
53499,note_on,2,0,0,,2,,,62,127
53499,note_on,0,0,0,,10,,,57,127
53687,note_off,188,0,0,,2,,,62,127
53697,note_off,10,0,0,,10,,,57,127
53699,note_on,2,0,0,,2,,,86,127
53699,note_on,0,0,0,,12,,,59,127
53896,note_off,197,0,0,,2,,,86,127
53897,note_off,1,0,0,,12,,,59,127
53907,note_on,10,0,0,,7,,,43,127
53907,note_on,0,0,0,,5,,,65,127
53907,note_on,0,0,0,,7,,,55,127
53907,note_on,0,0,0,,2,,,62,127
54105,note_off,198,0,0,,7,,,43,127
54107,note_on,2,0,0,,12,,,47,127
54305,note_off,198,0,0,,12,,,47,127
54305,note_off,0,0,0,,2,,,62,127
54305,note_off,0,0,0,,5,,,65,127
54307,note_on,2,0,0,,0,,,48,127
54307,note_on,0,0,0,,0,,,60,127
54307,note_on,0,0,0,,4,,,64,127
54505,note_off,198,0,0,,4,,,64,127
54505,note_off,0,0,0,,0,,,60,127
54505,note_off,0,0,0,,0,,,48,127
54506,note_off,1,0,0,,7,,,55,127
54515,note_on,9,0,0,,10,,,81,127
54515,note_on,0,0,0,,5,,,53,127
54515,note_on,0,0,0,,0,,,60,127
54515,note_on,0,0,0,,5,,,65,127
54580,note_off,65,0,0,,10,,,81,127
54582,note_on,2,0,0,,7,,,79,127
54647,note_off,65,0,0,,7,,,79,127
54649,note_on,2,0,0,,5,,,77,127
54714,note_off,65,0,0,,5,,,77,127
54714,note_off,0,0,0,,5,,,65,127
54714,note_off,0,0,0,,0,,,60,127
54714,note_off,0,0,0,,5,,,53,127
54716,note_on,2,0,0,,4,,,76,127
54716,note_on,0,0,0,,4,,,64,127
54716,note_on,0,0,0,,7,,,55,127
54716,note_on,0,0,0,,0,,,60,127
54914,note_off,198,0,0,,0,,,60,127
54914,note_off,0,0,0,,4,,,64,127
54914,note_off,0,0,0,,4,,,76,127
54916,note_on,2,0,0,,2,,,74,127
54916,note_on,0,0,0,,2,,,62,127
54916,note_on,0,0,0,,5,,,65,127
55112,note_off,196,0,0,,7,,,55,127
55114,note_off,2,0,0,,5,,,65,127
55114,note_off,0,0,0,,2,,,62,127
55114,note_off,0,0,0,,2,,,74,127
55133,note_on,19,0,0,,0,,,72,127
55133,note_on,0,0,0,,5,,,77,127
55133,note_on,0,0,0,,4,,,76,127
55231,note_off,98,0,0,,4,,,76,127
55231,note_off,0,0,0,,5,,,77,127
55233,note_on,2,0,0,,2,,,74,127
55331,note_off,98,0,0,,2,,,74,127
55331,note_off,0,0,0,,0,,,72,127
55333,note_on,2,0,0,,12,,,71,127
55333,note_on,0,0,0,,4,,,76,127
55531,note_off,198,0,0,,4,,,76,127
55531,note_off,0,0,0,,12,,,71,127
55533,note_on,2,0,0,,0,,,72,127
55533,note_on,0,0,0,,0,,,84,127
55710,note_off,177,0,0,,0,,,84,127
55731,note_off,21,0,0,,0,,,72,127
55733,note_on,2,0,0,,10,,,69,127
55733,note_on,0,0,0,,0,,,72,127
55733,note_on,0,0,0,,2,,,74,127
55831,note_off,98,0,0,,2,,,74,127
55831,note_off,0,0,0,,0,,,72,127
55833,note_on,2,0,0,,12,,,71,127
55931,note_off,98,0,0,,12,,,71,127
55931,note_off,0,0,0,,10,,,69,127
55933,note_on,2,0,0,,7,,,67,127
55933,note_on,0,0,0,,0,,,72,127
56131,note_off,198,0,0,,0,,,72,127
56131,note_off,0,0,0,,7,,,67,127
56133,note_on,2,0,0,,10,,,69,127
56133,note_on,0,0,0,,0,,,84,127
56300,note_off,167,0,0,,0,,,84,127
56331,note_off,31,0,0,,10,,,69,127
56333,note_on,2,0,0,,5,,,65,127
56333,note_on,0,0,0,,10,,,69,127
56333,note_on,0,0,0,,12,,,71,127
56431,note_off,98,0,0,,12,,,71,127
56431,note_off,0,0,0,,10,,,69,127
56433,note_on,2,0,0,,7,,,67,127
56531,note_off,98,0,0,,7,,,67,127
56531,note_off,0,0,0,,5,,,65,127
56533,note_on,2,0,0,,4,,,64,127
56533,note_on,0,0,0,,10,,,69,127
56731,note_off,198,0,0,,10,,,69,127
56731,note_off,0,0,0,,4,,,64,127
56733,note_on,2,0,0,,5,,,65,127
56733,note_on,0,0,0,,0,,,84,127
56890,note_off,157,0,0,,0,,,84,127
56932,note_off,42,0,0,,5,,,65,127
56934,note_on,2,0,0,,2,,,62,127
56934,note_on,0,0,0,,5,,,65,127
56934,note_on,0,0,0,,7,,,67,127
57032,note_off,98,0,0,,7,,,67,127
57032,note_off,0,0,0,,5,,,65,127
57034,note_on,2,0,0,,4,,,64,127
57132,note_off,98,0,0,,4,,,64,127
57132,note_off,0,0,0,,2,,,62,127
57134,note_on,2,0,0,,0,,,60,127
57134,note_on,0,0,0,,5,,,65,127
57332,note_off,198,0,0,,5,,,65,127
57332,note_off,0,0,0,,0,,,60,127
57334,note_on,2,0,0,,2,,,62,127
57334,note_on,0,0,0,,0,,,84,127
57480,note_off,146,0,0,,0,,,84,127
57532,note_off,52,0,0,,2,,,62,127
57534,note_on,2,0,0,,12,,,59,127
57534,note_on,0,0,0,,2,,,62,127
57534,note_on,0,0,0,,4,,,64,127
57632,note_off,98,0,0,,4,,,64,127
57632,note_off,0,0,0,,2,,,62,127
57634,note_on,2,0,0,,0,,,60,127
57732,note_off,98,0,0,,0,,,60,127
57732,note_off,0,0,0,,12,,,59,127
57734,note_on,2,0,0,,10,,,57,127
57734,note_on,0,0,0,,2,,,62,127
57932,note_off,198,0,0,,2,,,62,127
57932,note_off,0,0,0,,10,,,57,127
57934,note_on,2,0,0,,12,,,59,127
57934,note_on,0,0,0,,2,,,86,127
58132,note_off,198,0,0,,2,,,86,127
58132,note_off,0,0,0,,12,,,59,127
58142,note_on,10,0,0,,7,,,55,127
58142,note_on,0,0,0,,2,,,62,127
58142,note_on,0,0,0,,5,,,65,127
58142,note_on,0,0,0,,7,,,43,127
58340,note_off,198,0,0,,7,,,43,127
58342,note_on,2,0,0,,12,,,47,127
58540,note_off,198,0,0,,12,,,47,127
58540,note_off,0,0,0,,5,,,65,127
58540,note_off,0,0,0,,2,,,62,127
58542,note_on,2,0,0,,0,,,60,127
58542,note_on,0,0,0,,4,,,64,127
58542,note_on,0,0,0,,0,,,48,127
58740,note_off,198,0,0,,0,,,48,127
58740,note_off,0,0,0,,4,,,64,127
58740,note_off,0,0,0,,0,,,60,127
58741,note_off,1,0,0,,7,,,55,127
58742,note_on,1,0,0,,5,,,53,127
58742,note_on,0,0,0,,0,,,60,127
58742,note_on,0,0,0,,5,,,65,127
58742,note_on,0,0,0,,10,,,81,127
58807,note_off,65,0,0,,10,,,81,127
58809,note_on,2,0,0,,7,,,79,127
58874,note_off,65,0,0,,7,,,79,127
58876,note_on,2,0,0,,5,,,77,127
58941,note_off,65,0,0,,5,,,77,127
58941,note_off,0,0,0,,5,,,65,127
58941,note_off,0,0,0,,0,,,60,127
58941,note_off,0,0,0,,5,,,53,127
58945,note_on,4,0,0,,7,,,55,127
58945,note_on,0,0,0,,0,,,60,127
58945,note_on,0,0,0,,4,,,64,127
58945,note_on,0,0,0,,4,,,76,127
59143,note_off,198,0,0,,4,,,64,127
59143,note_off,0,0,0,,0,,,60,127
59153,note_off,10,0,0,,4,,,76,127
59153,note_on,0,0,0,,2,,,62,127
59153,note_on,0,0,0,,2,,,74,127
59153,note_on,0,0,0,,5,,,65,127
59341,note_off,188,0,0,,7,,,55,127
59351,note_off,10,0,0,,5,,,65,127
59351,note_off,0,0,0,,2,,,74,127
59351,note_off,0,0,0,,2,,,62,127
59368,note_on,17,0,0,,12,,,83,127
59368,note_on,0,0,0,,0,,,60,127
59433,note_off,65,0,0,,12,,,83,127
59435,note_on,2,0,0,,0,,,84,127
59500,note_off,65,0,0,,0,,,84,127
59502,note_on,2,0,0,,2,,,86,127
59567,note_off,65,0,0,,2,,,86,127
59567,note_off,0,0,0,,0,,,60,127
59569,note_on,2,0,0,,0,,,84,127
59569,note_on,0,0,0,,2,,,62,127
59767,note_off,198,0,0,,2,,,62,127
59769,note_on,2,0,0,,4,,,64,127
59967,note_off,198,0,0,,4,,,64,127
59967,note_off,0,0,0,,0,,,84,127
59977,note_on,10,0,0,,8,,,80,127
59977,note_on,0,0,0,,5,,,65,127
60042,note_off,65,0,0,,8,,,80,127
60044,note_on,2,0,0,,10,,,81,127
60109,note_off,65,0,0,,10,,,81,127
60111,note_on,2,0,0,,12,,,83,127
60176,note_off,65,0,0,,12,,,83,127
60176,note_off,0,0,0,,5,,,65,127
60178,note_on,2,0,0,,10,,,81,127
60178,note_on,0,0,0,,0,,,60,127
60376,note_off,198,0,0,,0,,,60,127
60378,note_on,2,0,0,,5,,,53,127
60576,note_off,198,0,0,,5,,,53,127
60586,note_on,10,0,0,,4,,,76,127
60586,note_on,0,0,0,,7,,,55,127
60586,note_on,0,0,0,,0,,,60,127
60586,note_on,0,0,0,,4,,,64,127
60593,note_off,7,0,0,,10,,,81,127
60650,note_off,57,0,0,,4,,,76,127
60652,note_on,2,0,0,,7,,,79,127
60717,note_off,65,0,0,,7,,,79,127
60719,note_on,2,0,0,,5,,,77,127
60784,note_off,65,0,0,,5,,,77,127
60786,note_on,2,0,0,,4,,,76,127
60984,note_off,198,0,0,,4,,,76,127
60984,note_off,0,0,0,,4,,,64,127
60984,note_off,0,0,0,,0,,,60,127
60986,note_on,2,0,0,,2,,,74,127
60986,note_on,0,0,0,,2,,,62,127
60986,note_on,0,0,0,,12,,,59,127
61184,note_off,198,0,0,,12,,,59,127
61184,note_off,0,0,0,,2,,,62,127
61184,note_off,0,0,0,,2,,,74,127
61185,note_off,1,0,0,,7,,,55,127
61203,note_on,18,0,0,,0,,,48,127
61203,note_on,0,0,0,,12,,,71,127
61268,note_off,65,0,0,,12,,,71,127
61270,note_on,2,0,0,,0,,,72,127
61335,note_off,65,0,0,,0,,,72,127
61337,note_on,2,0,0,,2,,,74,127
61402,note_off,65,0,0,,2,,,74,127
61402,note_off,0,0,0,,0,,,48,127
61404,note_on,2,0,0,,2,,,50,127
61404,note_on,0,0,0,,0,,,72,127
61602,note_off,198,0,0,,2,,,50,127
61604,note_on,2,0,0,,4,,,52,127
61802,note_off,198,0,0,,4,,,52,127
61820,note_off,18,0,0,,0,,,72,127
61821,note_on,1,0,0,,8,,,68,127
61821,note_on,0,0,0,,5,,,53,127
61886,note_off,65,0,0,,8,,,68,127
61888,note_on,2,0,0,,10,,,69,127
61953,note_off,65,0,0,,10,,,69,127
61955,note_on,2,0,0,,12,,,71,127
62020,note_off,65,0,0,,12,,,71,127
62020,note_off,0,0,0,,5,,,53,127
62022,note_on,2,0,0,,10,,,69,127
62022,note_on,0,0,0,,0,,,48,127
62220,note_off,198,0,0,,0,,,48,127
62222,note_on,2,0,0,,5,,,41,127
62420,note_off,198,0,0,,5,,,41,127
62438,note_off,18,0,0,,10,,,69,127
62439,note_on,1,0,0,,7,,,43,127
62439,note_on,0,0,0,,4,,,52,127
62439,note_on,0,0,0,,0,,,48,127
62439,note_on,0,0,0,,4,,,64,127
62504,note_off,65,0,0,,4,,,64,127
62506,note_on,2,0,0,,7,,,67,127
62571,note_off,65,0,0,,7,,,67,127
62573,note_on,2,0,0,,5,,,65,127
62638,note_off,65,0,0,,5,,,65,127
62640,note_on,2,0,0,,4,,,64,127
62838,note_off,198,0,0,,4,,,64,127
62838,note_off,0,0,0,,0,,,48,127
62838,note_off,0,0,0,,4,,,52,127
62840,note_on,2,0,0,,5,,,53,127
62840,note_on,0,0,0,,2,,,50,127
62840,note_on,0,0,0,,2,,,62,127
63038,note_off,198,0,0,,2,,,62,127
63038,note_off,0,0,0,,2,,,50,127
63038,note_off,0,0,0,,5,,,53,127
63039,note_off,1,0,0,,7,,,43,127
63065,note_on,26,0,0,,0,,,60,127
63065,note_on,0,0,0,,0,,,48,127
63065,note_on,0,0,0,,7,,,43,127
63065,note_on,0,0,0,,0,,,36,127
64943,note_off,1878,0,0,,0,,,36,127
64943,note_off,0,0,0,,7,,,43,127
64943,note_off,0,0,0,,0,,,48,127
64943,note_off,0,0,0,,0,,,60,127
69120,end_of_track,4177,1,0,,,,,,
