tick,type,time,meta,track,program,channel,pitch,tempo,note,velocity
0,copyright,0,1,0,,,,,,
0,program_change,0,0,0,6,0,,,,
0,pitchwheel,0,0,0,,0,0,,,
0,program_change,0,0,0,6,1,,,,
0,pitchwheel,0,0,0,,1,-590,,,
0,program_change,0,0,0,6,2,,,,
0,pitchwheel,0,0,0,,2,-272,,,
0,program_change,0,0,0,6,3,,,,
0,pitchwheel,0,0,0,,3,-353,,,
0,program_change,0,0,0,6,4,,,,
0,pitchwheel,0,0,0,,4,-560,,,
0,program_change,0,0,0,6,5,,,,
0,pitchwheel,0,0,0,,5,-80,,,
0,program_change,0,0,0,6,6,,,,
0,pitchwheel,0,0,0,,6,-625,,,
0,program_change,0,0,0,6,7,,,,
0,pitchwheel,0,0,0,,7,-130,,,
0,program_change,0,0,0,6,8,,,,
0,pitchwheel,0,0,0,,8,-512,,,
0,program_change,0,0,0,6,10,,,,
0,pitchwheel,0,0,0,,10,-464,,,
0,program_change,0,0,0,6,11,,,,
0,pitchwheel,0,0,0,,11,-208,,,
0,program_change,0,0,0,6,12,,,,
0,pitchwheel,0,0,0,,12,-553,,,
0,set_tempo,0,1,0,,,,500000,,
68,note_on,68,0,0,,12,,,47,127
68,note_on,0,0,0,,12,,,71,127
204,note_on,136,0,0,,3,,,75,127
337,note_off,133,0,0,,12,,,71,127
338,note_off,1,0,0,,3,,,75,127
340,note_on,2,0,0,,12,,,71,127
473,note_off,133,0,0,,12,,,71,127
473,note_off,0,0,0,,12,,,47,127
475,note_on,2,0,0,,12,,,59,127
475,note_on,0,0,0,,3,,,75,127
611,note_on,136,0,0,,6,,,78,127
744,note_off,133,0,0,,3,,,75,127
745,note_off,1,0,0,,6,,,78,127
747,note_on,2,0,0,,3,,,75,127
880,note_off,133,0,0,,3,,,75,127
880,note_off,0,0,0,,12,,,59,127
882,note_on,2,0,0,,3,,,63,127
882,note_on,0,0,0,,12,,,59,127
882,note_on,0,0,0,,12,,,83,127
1015,note_off,133,0,0,,12,,,83,127
1017,note_on,2,0,0,,6,,,78,127
1150,note_off,133,0,0,,6,,,78,127
1152,note_on,2,0,0,,3,,,75,127
1285,note_off,133,0,0,,3,,,75,127
1285,note_off,0,0,0,,12,,,59,127
1285,note_off,0,0,0,,3,,,63,127
1287,note_on,2,0,0,,3,,,63,127
1287,note_on,0,0,0,,12,,,59,127
1287,note_on,0,0,0,,12,,,71,127
1420,note_off,133,0,0,,12,,,71,127
1422,note_on,2,0,0,,3,,,75,127
1555,note_off,133,0,0,,3,,,75,127
1557,note_on,2,0,0,,6,,,78,127
1690,note_off,133,0,0,,6,,,78,127
1690,note_off,0,0,0,,12,,,59,127
1690,note_off,0,0,0,,3,,,63,127
1692,note_on,2,0,0,,4,,,64,127
1692,note_on,0,0,0,,1,,,61,127
1692,note_on,0,0,0,,12,,,59,127
1692,note_on,0,0,0,,8,,,80,127
1825,note_off,133,0,0,,8,,,80,127
1827,note_on,2,0,0,,4,,,76,127
1960,note_off,133,0,0,,4,,,76,127
1962,note_on,2,0,0,,1,,,73,127
2095,note_off,133,0,0,,1,,,73,127
2095,note_off,0,0,0,,12,,,59,127
2095,note_off,0,0,0,,1,,,61,127
2095,note_off,0,0,0,,4,,,64,127
2097,note_on,2,0,0,,1,,,61,127
2097,note_on,0,0,0,,4,,,64,127
2097,note_on,0,0,0,,12,,,59,127
2097,note_on,0,0,0,,11,,,70,127
2230,note_off,133,0,0,,11,,,70,127
2232,note_on,2,0,0,,6,,,66,127
2365,note_off,133,0,0,,6,,,66,127
2367,note_on,2,0,0,,4,,,76,127
2500,note_off,133,0,0,,4,,,76,127
2500,note_off,0,0,0,,12,,,59,127
2500,note_off,0,0,0,,4,,,64,127
2500,note_off,0,0,0,,1,,,61,127
2502,note_on,2,0,0,,6,,,66,127
2502,note_on,0,0,0,,12,,,59,127
2502,note_on,0,0,0,,3,,,63,127
2502,note_on,0,0,0,,3,,,75,127
2635,note_off,133,0,0,,3,,,75,127
2637,note_on,2,0,0,,6,,,78,127
2770,note_off,133,0,0,,6,,,78,127
2772,note_on,2,0,0,,3,,,75,127
2905,note_off,133,0,0,,3,,,75,127
2905,note_off,0,0,0,,3,,,63,127
2905,note_off,0,0,0,,12,,,59,127
2905,note_off,0,0,0,,6,,,66,127
2907,note_on,2,0,0,,12,,,59,127
2907,note_on,0,0,0,,3,,,63,127
2907,note_on,0,0,0,,12,,,71,127
3040,note_off,133,0,0,,12,,,71,127
3042,note_on,2,0,0,,3,,,75,127
3175,note_off,133,0,0,,3,,,75,127
3177,note_on,2,0,0,,6,,,78,127
3310,note_off,133,0,0,,6,,,78,127
3310,note_off,0,0,0,,3,,,63,127
3310,note_off,0,0,0,,12,,,59,127
3312,note_on,2,0,0,,1,,,61,127
3312,note_on,0,0,0,,4,,,64,127
3312,note_on,0,0,0,,12,,,59,127
3312,note_on,0,0,0,,8,,,80,127
3445,note_off,133,0,0,,8,,,80,127
3447,note_on,2,0,0,,4,,,76,127
3580,note_off,133,0,0,,4,,,76,127
3582,note_on,2,0,0,,1,,,73,127
3715,note_off,133,0,0,,1,,,73,127
3715,note_off,0,0,0,,12,,,59,127
3715,note_off,0,0,0,,4,,,64,127
3715,note_off,0,0,0,,1,,,61,127
3717,note_on,2,0,0,,1,,,61,127
3717,note_on,0,0,0,,4,,,64,127
3717,note_on,0,0,0,,12,,,59,127
3717,note_on,0,0,0,,11,,,70,127
3850,note_off,133,0,0,,11,,,70,127
3852,note_on,2,0,0,,6,,,66,127
3985,note_off,133,0,0,,6,,,66,127
3987,note_on,2,0,0,,4,,,76,127
4055,note_off,68,0,0,,12,,,59,127
4055,note_off,0,0,0,,4,,,64,127
4055,note_off,0,0,0,,1,,,61,127
4121,note_off,66,0,0,,4,,,76,127
4123,note_on,2,0,0,,12,,,59,127
4123,note_on,0,0,0,,3,,,75,127
4256,note_off,133,0,0,,12,,,59,127
4258,note_on,2,0,0,,3,,,63,127
4391,note_off,133,0,0,,3,,,63,127
4393,note_on,2,0,0,,12,,,59,127
4526,note_off,133,0,0,,12,,,59,127
4526,note_off,0,0,0,,3,,,75,127
4528,note_on,2,0,0,,3,,,63,127
4528,note_on,0,0,0,,6,,,78,127
4661,note_off,133,0,0,,3,,,63,127
4663,note_on,2,0,0,,6,,,66,127
4796,note_off,133,0,0,,6,,,66,127
4798,note_on,2,0,0,,3,,,63,127
4931,note_off,133,0,0,,3,,,63,127
4931,note_off,0,0,0,,6,,,78,127
4933,note_on,2,0,0,,12,,,71,127
4933,note_on,0,0,0,,3,,,75,127
5066,note_off,133,0,0,,12,,,71,127
5068,note_on,2,0,0,,6,,,66,127
5201,note_off,133,0,0,,6,,,66,127
5203,note_on,2,0,0,,3,,,63,127
5336,note_off,133,0,0,,3,,,63,127
5336,note_off,0,0,0,,3,,,75,127
5338,note_on,2,0,0,,12,,,59,127
5338,note_on,0,0,0,,6,,,78,127
5471,note_off,133,0,0,,12,,,59,127
5473,note_on,2,0,0,,3,,,63,127
5606,note_off,133,0,0,,6,,,78,127
5607,note_off,1,0,0,,3,,,63,127
5609,note_on,2,0,0,,6,,,66,127
5742,note_off,133,0,0,,6,,,66,127
5744,note_on,2,0,0,,8,,,68,127
5744,note_on,0,0,0,,4,,,76,127
5877,note_off,133,0,0,,4,,,76,127
5877,note_off,0,0,0,,8,,,68,127
5879,note_on,2,0,0,,4,,,64,127
5879,note_on,0,0,0,,6,,,78,127
6012,note_off,133,0,0,,6,,,78,127
6012,note_off,0,0,0,,4,,,64,127
6014,note_on,2,0,0,,1,,,61,127
6014,note_on,0,0,0,,8,,,80,127
6147,note_off,133,0,0,,1,,,61,127
6149,note_on,2,0,0,,11,,,58,127
6282,note_off,133,0,0,,11,,,58,127
6282,note_off,0,0,0,,8,,,80,127
6284,note_on,2,0,0,,6,,,54,127
6284,note_on,0,0,0,,6,,,78,127
6417,note_off,133,0,0,,6,,,78,127
6417,note_off,0,0,0,,6,,,54,127
6419,note_on,2,0,0,,4,,,64,127
6419,note_on,0,0,0,,4,,,76,127
6552,note_off,133,0,0,,4,,,76,127
6552,note_off,0,0,0,,4,,,64,127
6554,note_on,2,0,0,,3,,,63,127
6554,note_on,0,0,0,,6,,,78,127
6687,note_off,133,0,0,,3,,,63,127
6689,note_on,2,0,0,,6,,,66,127
6822,note_off,133,0,0,,6,,,66,127
6824,note_on,2,0,0,,3,,,63,127
6957,note_off,133,0,0,,3,,,63,127
6957,note_off,0,0,0,,6,,,78,127
6959,note_on,2,0,0,,12,,,59,127
6959,note_on,0,0,0,,3,,,75,127
7092,note_off,133,0,0,,12,,,59,127
7094,note_on,2,0,0,,3,,,63,127
7227,note_off,133,0,0,,3,,,63,127
7229,note_on,2,0,0,,6,,,66,127
7297,note_off,68,0,0,,3,,,75,127
7363,note_off,66,0,0,,6,,,66,127
7365,note_on,2,0,0,,8,,,68,127
7365,note_on,0,0,0,,4,,,76,127
7498,note_off,133,0,0,,4,,,76,127
7498,note_off,0,0,0,,8,,,68,127
7500,note_on,2,0,0,,4,,,64,127
7500,note_on,0,0,0,,6,,,78,127
7633,note_off,133,0,0,,6,,,78,127
7633,note_off,0,0,0,,4,,,64,127
7635,note_on,2,0,0,,1,,,61,127
7635,note_on,0,0,0,,8,,,80,127
7768,note_off,133,0,0,,1,,,61,127
7770,note_on,2,0,0,,11,,,58,127
7846,note_off,76,0,0,,8,,,80,127
7903,note_off,57,0,0,,11,,,58,127
7905,note_on,2,0,0,,6,,,54,127
7905,note_on,0,0,0,,6,,,78,127
8038,note_off,133,0,0,,6,,,78,127
8038,note_off,0,0,0,,6,,,54,127
8040,note_on,2,0,0,,4,,,64,127
8040,note_on,0,0,0,,4,,,76,127
8173,note_off,133,0,0,,4,,,76,127
8173,note_off,0,0,0,,4,,,64,127
8175,note_on,2,0,0,,3,,,63,127
8175,note_on,0,0,0,,6,,,78,127
8308,note_off,133,0,0,,3,,,63,127
8310,note_on,2,0,0,,1,,,61,127
8443,note_off,133,0,0,,1,,,61,127
8445,note_on,2,0,0,,12,,,59,127
8578,note_off,133,0,0,,12,,,59,127
8580,note_on,2,0,0,,11,,,58,127
8648,note_off,68,0,0,,6,,,78,127
8716,note_on,68,0,0,,6,,,78,127
8849,note_off,133,0,0,,6,,,78,127
8851,note_on,2,0,0,,1,,,73,127
8984,note_off,133,0,0,,1,,,73,127
8984,note_off,0,0,0,,11,,,58,127
8986,note_on,2,0,0,,12,,,59,127
8986,note_on,0,0,0,,3,,,75,127
9119,note_off,133,0,0,,3,,,75,127
9121,note_on,2,0,0,,12,,,71,127
9254,note_off,133,0,0,,12,,,71,127
9256,note_on,2,0,0,,3,,,75,127
9389,note_off,133,0,0,,3,,,75,127
9389,note_off,0,0,0,,12,,,59,127
9391,note_on,2,0,0,,8,,,56,127
9391,note_on,0,0,0,,5,,,77,127
9524,note_off,133,0,0,,5,,,77,127
9526,note_on,2,0,0,,1,,,73,127
9659,note_off,133,0,0,,1,,,73,127
9661,note_on,2,0,0,,5,,,77,127
9794,note_off,133,0,0,,5,,,77,127
9794,note_off,0,0,0,,8,,,56,127
9796,note_on,2,0,0,,6,,,54,127
9796,note_on,0,0,0,,6,,,78,127
9929,note_off,133,0,0,,6,,,78,127
9931,note_on,2,0,0,,1,,,73,127
10064,note_off,133,0,0,,1,,,73,127
10066,note_on,2,0,0,,11,,,70,127
10199,note_off,133,0,0,,11,,,70,127
10199,note_off,0,0,0,,6,,,54,127
10201,note_on,2,0,0,,11,,,58,127
10201,note_on,0,0,0,,6,,,66,127
10337,note_on,136,0,0,,6,,,78,127
10470,note_off,133,0,0,,6,,,66,127
10471,note_off,1,0,0,,6,,,78,127
10473,note_on,2,0,0,,1,,,73,127
10606,note_off,133,0,0,,1,,,73,127
10606,note_off,0,0,0,,11,,,58,127
10608,note_on,2,0,0,,12,,,59,127
10608,note_on,0,0,0,,3,,,75,127
10741,note_off,133,0,0,,3,,,75,127
10743,note_on,2,0,0,,12,,,71,127
10876,note_off,133,0,0,,12,,,71,127
10878,note_on,2,0,0,,3,,,75,127
11011,note_off,133,0,0,,3,,,75,127
11011,note_off,0,0,0,,12,,,59,127
11013,note_on,2,0,0,,8,,,56,127
11013,note_on,0,0,0,,5,,,77,127
11146,note_off,133,0,0,,5,,,77,127
11148,note_on,2,0,0,,1,,,73,127
11281,note_off,133,0,0,,1,,,73,127
11283,note_on,2,0,0,,5,,,77,127
11416,note_off,133,0,0,,5,,,77,127
11416,note_off,0,0,0,,8,,,56,127
11418,note_on,2,0,0,,6,,,54,127
11418,note_on,0,0,0,,6,,,78,127
11551,note_off,133,0,0,,6,,,78,127
11553,note_on,2,0,0,,1,,,73,127
11686,note_off,133,0,0,,1,,,73,127
11688,note_on,2,0,0,,11,,,70,127
11821,note_off,133,0,0,,11,,,70,127
11823,note_on,2,0,0,,6,,,66,127
11956,note_off,133,0,0,,6,,,54,127
11957,note_off,1,0,0,,6,,,66,127
11958,note_on,1,0,0,,6,,,66,127
12094,note_on,136,0,0,,1,,,61,127
12227,note_off,133,0,0,,6,,,66,127
12228,note_off,1,0,0,,1,,,61,127
12230,note_on,2,0,0,,3,,,63,127
12230,note_on,0,0,0,,12,,,71,127
12363,note_off,133,0,0,,12,,,71,127
12363,note_off,0,0,0,,3,,,63,127
12365,note_on,2,0,0,,12,,,59,127
12365,note_on,0,0,0,,1,,,73,127
12498,note_off,133,0,0,,1,,,73,127
12498,note_off,0,0,0,,12,,,59,127
12500,note_on,2,0,0,,3,,,63,127
12500,note_on,0,0,0,,3,,,75,127
12633,note_off,133,0,0,,3,,,63,127
12635,note_on,2,0,0,,5,,,65,127
12768,note_off,133,0,0,,5,,,65,127
12768,note_off,0,0,0,,3,,,75,127
12770,note_on,2,0,0,,1,,,61,127
12770,note_on,0,0,0,,1,,,73,127
12903,note_off,133,0,0,,1,,,73,127
12903,note_off,0,0,0,,1,,,61,127
12905,note_on,2,0,0,,5,,,65,127
12905,note_on,0,0,0,,12,,,71,127
13038,note_off,133,0,0,,12,,,71,127
13038,note_off,0,0,0,,5,,,65,127
13040,note_on,2,0,0,,6,,,66,127
13040,note_on,0,0,0,,11,,,70,127
13173,note_off,133,0,0,,11,,,70,127
13173,note_off,0,0,0,,6,,,66,127
13175,note_on,2,0,0,,1,,,61,127
13175,note_on,0,0,0,,12,,,71,127
13308,note_off,133,0,0,,12,,,71,127
13308,note_off,0,0,0,,1,,,61,127
13310,note_on,2,0,0,,11,,,58,127
13310,note_on,0,0,0,,1,,,73,127
13443,note_off,133,0,0,,11,,,58,127
13445,note_on,2,0,0,,6,,,54,127
13578,note_off,133,0,0,,6,,,54,127
13580,note_on,2,0,0,,6,,,66,127
13713,note_off,133,0,0,,6,,,66,127
13715,note_on,2,0,0,,1,,,61,127
13848,note_off,133,0,0,,1,,,61,127
13848,note_off,0,0,0,,1,,,73,127
13850,note_on,2,0,0,,3,,,63,127
13850,note_on,0,0,0,,12,,,71,127
13983,note_off,133,0,0,,12,,,71,127
13983,note_off,0,0,0,,3,,,63,127
13985,note_on,2,0,0,,12,,,59,127
13985,note_on,0,0,0,,1,,,73,127
14118,note_off,133,0,0,,1,,,73,127
14118,note_off,0,0,0,,12,,,59,127
14120,note_on,2,0,0,,3,,,63,127
14120,note_on,0,0,0,,3,,,75,127
14253,note_off,133,0,0,,3,,,63,127
14255,note_on,2,0,0,,5,,,65,127
14388,note_off,133,0,0,,5,,,65,127
14388,note_off,0,0,0,,3,,,75,127
14390,note_on,2,0,0,,1,,,61,127
14390,note_on,0,0,0,,1,,,73,127
14523,note_off,133,0,0,,1,,,73,127
14523,note_off,0,0,0,,1,,,61,127
14525,note_on,2,0,0,,5,,,65,127
14525,note_on,0,0,0,,12,,,71,127
14658,note_off,133,0,0,,12,,,71,127
14658,note_off,0,0,0,,5,,,65,127
14660,note_on,2,0,0,,6,,,66,127
14660,note_on,0,0,0,,11,,,70,127
14793,note_off,133,0,0,,11,,,70,127
14795,note_on,2,0,0,,12,,,71,127
14928,note_off,133,0,0,,12,,,71,127
14930,note_on,2,0,0,,1,,,73,127
15063,note_off,133,0,0,,6,,,66,127
15065,note_on,2,0,0,,6,,,66,127
15065,note_on,0,0,0,,11,,,70,127
15198,note_off,133,0,0,,1,,,73,127
15200,note_on,2,0,0,,6,,,78,127
15333,note_off,133,0,0,,6,,,78,127
15335,note_on,2,0,0,,11,,,82,127
15468,note_off,133,0,0,,11,,,82,127
15468,note_off,0,0,0,,11,,,70,127
15468,note_off,0,0,0,,6,,,66,127
15470,note_on,2,0,0,,8,,,68,127
15470,note_on,0,0,0,,5,,,65,127
15470,note_on,0,0,0,,11,,,82,127
15603,note_off,133,0,0,,11,,,82,127
15605,note_on,2,0,0,,8,,,80,127
15738,note_off,133,0,0,,8,,,80,127
15740,note_on,2,0,0,,8,,,80,127
15873,note_off,133,0,0,,8,,,80,127
15873,note_off,0,0,0,,5,,,65,127
15873,note_off,0,0,0,,8,,,68,127
15875,note_on,2,0,0,,3,,,63,127
15875,note_on,0,0,0,,6,,,66,127
15875,note_on,0,0,0,,8,,,80,127
16008,note_off,133,0,0,,8,,,80,127
16010,note_on,2,0,0,,6,,,78,127
16143,note_off,133,0,0,,6,,,78,127
16145,note_on,2,0,0,,6,,,78,127
16278,note_off,133,0,0,,6,,,78,127
16278,note_off,0,0,0,,6,,,66,127
16278,note_off,0,0,0,,3,,,63,127
16280,note_on,2,0,0,,1,,,61,127
16280,note_on,0,0,0,,5,,,65,127
16280,note_on,0,0,0,,6,,,78,127
16413,note_off,133,0,0,,6,,,78,127
16415,note_on,2,0,0,,5,,,77,127
16548,note_off,133,0,0,,5,,,77,127
16550,note_on,2,0,0,,5,,,77,127
16683,note_off,133,0,0,,5,,,77,127
16683,note_off,0,0,0,,5,,,65,127
16683,note_off,0,0,0,,1,,,61,127
16685,note_on,2,0,0,,11,,,70,127
16685,note_on,0,0,0,,6,,,66,127
16685,note_on,0,0,0,,5,,,77,127
16818,note_off,133,0,0,,5,,,77,127
16820,note_on,2,0,0,,3,,,75,127
16953,note_off,133,0,0,,3,,,75,127
16955,note_on,2,0,0,,3,,,75,127
17088,note_off,133,0,0,,3,,,75,127
17088,note_off,0,0,0,,6,,,66,127
17088,note_off,0,0,0,,11,,,70,127
17090,note_on,2,0,0,,8,,,68,127
17090,note_on,0,0,0,,5,,,65,127
17090,note_on,0,0,0,,3,,,75,127
17223,note_off,133,0,0,,3,,,75,127
17225,note_on,2,0,0,,1,,,73,127
17358,note_off,133,0,0,,1,,,73,127
17360,note_on,2,0,0,,1,,,73,127
17493,note_off,133,0,0,,1,,,73,127
17493,note_off,0,0,0,,5,,,65,127
17493,note_off,0,0,0,,8,,,68,127
17495,note_on,2,0,0,,6,,,66,127
17495,note_on,0,0,0,,3,,,63,127
17495,note_on,0,0,0,,1,,,73,127
17628,note_off,133,0,0,,1,,,73,127
17630,note_on,2,0,0,,0,,,72,127
17763,note_off,133,0,0,,0,,,72,127
17765,note_on,2,0,0,,0,,,72,127
17898,note_off,133,0,0,,0,,,72,127
17898,note_off,0,0,0,,3,,,63,127
17898,note_off,0,0,0,,6,,,66,127
17900,note_on,2,0,0,,1,,,61,127
17900,note_on,0,0,0,,5,,,65,127
17900,note_on,0,0,0,,3,,,75,127
17943,note_off,43,0,0,,3,,,75,127
17945,note_on,2,0,0,,1,,,73,127
17988,note_off,43,0,0,,1,,,73,127
17990,note_on,2,0,0,,3,,,75,127
18033,note_off,43,0,0,,3,,,75,127
18035,note_on,2,0,0,,1,,,73,127
18303,note_off,268,0,0,,1,,,73,127
18304,note_off,1,0,0,,5,,,65,127
18304,note_off,0,0,0,,1,,,61,127
18306,note_on,2,0,0,,5,,,65,127
18442,note_on,136,0,0,,1,,,73,127
18575,note_off,133,0,0,,1,,,73,127
18577,note_on,2,0,0,,12,,,71,127
18710,note_off,133,0,0,,12,,,71,127
18710,note_off,0,0,0,,5,,,65,127
18712,note_on,2,0,0,,6,,,66,127
18712,note_on,0,0,0,,11,,,70,127
18845,note_off,133,0,0,,11,,,70,127
18847,note_on,2,0,0,,12,,,71,127
18980,note_off,133,0,0,,12,,,71,127
18982,note_on,2,0,0,,1,,,73,127
19115,note_off,133,0,0,,1,,,73,127
19115,note_off,0,0,0,,6,,,66,127
19117,note_on,2,0,0,,5,,,65,127
19117,note_on,0,0,0,,3,,,75,127
19250,note_off,133,0,0,,3,,,75,127
19252,note_on,2,0,0,,1,,,73,127
19385,note_off,133,0,0,,1,,,73,127
19387,note_on,2,0,0,,12,,,71,127
19520,note_off,133,0,0,,12,,,71,127
19520,note_off,0,0,0,,5,,,65,127
19522,note_on,2,0,0,,6,,,66,127
19522,note_on,0,0,0,,11,,,70,127
19655,note_off,133,0,0,,11,,,70,127
19657,note_on,2,0,0,,12,,,71,127
19790,note_off,133,0,0,,12,,,71,127
19792,note_on,2,0,0,,1,,,73,127
19925,note_off,133,0,0,,6,,,66,127
19927,note_on,2,0,0,,5,,,65,127
20060,note_off,133,0,0,,1,,,73,127
20062,note_on,2,0,0,,1,,,73,127
20195,note_off,133,0,0,,1,,,73,127
20197,note_on,2,0,0,,0,,,72,127
20330,note_off,133,0,0,,0,,,72,127
20330,note_off,0,0,0,,5,,,65,127
20332,note_on,2,0,0,,6,,,66,127
20332,note_on,0,0,0,,11,,,70,127
20465,note_off,133,0,0,,11,,,70,127
20467,note_on,2,0,0,,0,,,72,127
20600,note_off,133,0,0,,0,,,72,127
20602,note_on,2,0,0,,1,,,73,127
20735,note_off,133,0,0,,1,,,73,127
20735,note_off,0,0,0,,6,,,66,127
20737,note_on,2,0,0,,3,,,63,127
20737,note_on,0,0,0,,6,,,66,127
20737,note_on,0,0,0,,10,,,69,127
20737,note_on,0,0,0,,3,,,75,127
20870,note_off,133,0,0,,3,,,75,127
20872,note_on,2,0,0,,1,,,73,127
21005,note_off,133,0,0,,1,,,73,127
21007,note_on,2,0,0,,0,,,72,127
21140,note_off,133,0,0,,0,,,72,127
21140,note_off,0,0,0,,10,,,69,127
21140,note_off,0,0,0,,6,,,66,127
21140,note_off,0,0,0,,3,,,63,127
21142,note_on,2,0,0,,5,,,65,127
21142,note_on,0,0,0,,1,,,61,127
21142,note_on,0,0,0,,0,,,72,127
21208,note_off,66,0,0,,0,,,72,127
21210,note_on,2,0,0,,11,,,70,127
21276,note_off,66,0,0,,11,,,70,127
21278,note_on,2,0,0,,10,,,69,127
21411,note_off,133,0,0,,10,,,69,127
21413,note_on,2,0,0,,11,,,70,127
21546,note_off,133,0,0,,11,,,70,127
21546,note_off,0,0,0,,1,,,61,127
21546,note_off,0,0,0,,5,,,65,127
21548,note_on,2,0,0,,3,,,63,127
21548,note_on,0,0,0,,10,,,69,127
21548,note_on,0,0,0,,3,,,75,127
21681,note_off,133,0,0,,3,,,75,127
21683,note_on,2,0,0,,1,,,73,127
21816,note_off,133,0,0,,1,,,73,127
21818,note_on,2,0,0,,0,,,72,127
21951,note_off,133,0,0,,0,,,72,127
21951,note_off,0,0,0,,10,,,69,127
21951,note_off,0,0,0,,3,,,63,127
21953,note_on,2,0,0,,5,,,65,127
21953,note_on,0,0,0,,1,,,61,127
21953,note_on,0,0,0,,11,,,70,127
22086,note_off,133,0,0,,11,,,70,127
22088,note_on,2,0,0,,11,,,70,127
22221,note_off,133,0,0,,11,,,70,127
22223,note_on,2,0,0,,12,,,71,127
22356,note_off,133,0,0,,12,,,71,127
22356,note_off,0,0,0,,1,,,61,127
22356,note_off,0,0,0,,5,,,65,127
22358,note_on,2,0,0,,4,,,64,127
22358,note_on,0,0,0,,1,,,61,127
22358,note_on,0,0,0,,1,,,73,127
22491,note_off,133,0,0,,1,,,73,127
22493,note_on,2,0,0,,12,,,71,127
22626,note_off,133,0,0,,12,,,71,127
22628,note_on,2,0,0,,11,,,70,127
22761,note_off,133,0,0,,11,,,70,127
22761,note_off,0,0,0,,1,,,61,127
22761,note_off,0,0,0,,4,,,64,127
22763,note_on,2,0,0,,12,,,59,127
22763,note_on,0,0,0,,3,,,63,127
22763,note_on,0,0,0,,11,,,70,127
22829,note_off,66,0,0,,11,,,70,127
22831,note_on,2,0,0,,8,,,68,127
22897,note_off,66,0,0,,8,,,68,127
22899,note_on,2,0,0,,7,,,67,127
23032,note_off,133,0,0,,7,,,67,127
23034,note_on,2,0,0,,8,,,68,127
23167,note_off,133,0,0,,8,,,68,127
23167,note_off,0,0,0,,3,,,63,127
23167,note_off,0,0,0,,12,,,59,127
23169,note_on,2,0,0,,11,,,58,127
23169,note_on,0,0,0,,1,,,61,127
23169,note_on,0,0,0,,7,,,67,127
23169,note_on,0,0,0,,1,,,73,127
23302,note_off,133,0,0,,1,,,73,127
23304,note_on,2,0,0,,12,,,71,127
23437,note_off,133,0,0,,12,,,71,127
23439,note_on,2,0,0,,11,,,70,127
23572,note_off,133,0,0,,11,,,70,127
23572,note_off,0,0,0,,7,,,67,127
23572,note_off,0,0,0,,1,,,61,127
23572,note_off,0,0,0,,11,,,58,127
23574,note_on,2,0,0,,12,,,59,127
23574,note_on,0,0,0,,3,,,63,127
23574,note_on,0,0,0,,8,,,68,127
23707,note_off,133,0,0,,8,,,68,127
23709,note_on,2,0,0,,8,,,68,127
23842,note_off,133,0,0,,8,,,68,127
23844,note_on,2,0,0,,11,,,70,127
23977,note_off,133,0,0,,11,,,70,127
23977,note_off,0,0,0,,3,,,63,127
23977,note_off,0,0,0,,12,,,59,127
23979,note_on,2,0,0,,12,,,59,127
23979,note_on,0,0,0,,3,,,63,127
23979,note_on,0,0,0,,12,,,71,127
24112,note_off,133,0,0,,12,,,71,127
24114,note_on,2,0,0,,11,,,70,127
24247,note_off,133,0,0,,11,,,70,127
24249,note_on,2,0,0,,8,,,68,127
24382,note_off,133,0,0,,8,,,68,127
24382,note_off,0,0,0,,3,,,63,127
24382,note_off,0,0,0,,12,,,59,127
24384,note_on,2,0,0,,1,,,61,127
24384,note_on,0,0,0,,11,,,58,127
24384,note_on,0,0,0,,8,,,68,127
24450,note_off,66,0,0,,8,,,68,127
24452,note_on,2,0,0,,6,,,66,127
24518,note_off,66,0,0,,6,,,66,127
24520,note_on,2,0,0,,5,,,65,127
24653,note_off,133,0,0,,5,,,65,127
24655,note_on,2,0,0,,6,,,66,127
24788,note_off,133,0,0,,6,,,66,127
24788,note_off,0,0,0,,11,,,58,127
24788,note_off,0,0,0,,1,,,61,127
24790,note_on,2,0,0,,12,,,59,127
24790,note_on,0,0,0,,8,,,56,127
24790,note_on,0,0,0,,12,,,71,127
24923,note_off,133,0,0,,12,,,71,127
24925,note_on,2,0,0,,11,,,70,127
25058,note_off,133,0,0,,11,,,70,127
25060,note_on,2,0,0,,8,,,68,127
25193,note_off,133,0,0,,8,,,68,127
25193,note_off,0,0,0,,8,,,56,127
25193,note_off,0,0,0,,12,,,59,127
25195,note_on,2,0,0,,1,,,61,127
25195,note_on,0,0,0,,11,,,58,127
25195,note_on,0,0,0,,8,,,68,127
25261,note_off,66,0,0,,8,,,68,127
25263,note_on,2,0,0,,6,,,66,127
25329,note_off,66,0,0,,6,,,66,127
25331,note_on,2,0,0,,5,,,65,127
25464,note_off,133,0,0,,5,,,65,127
25466,note_on,2,0,0,,6,,,66,127
25599,note_off,133,0,0,,6,,,66,127
25599,note_off,0,0,0,,11,,,58,127
25599,note_off,0,0,0,,1,,,61,127
25601,note_on,2,0,0,,5,,,53,127
25601,note_on,0,0,0,,11,,,70,127
25667,note_off,66,0,0,,11,,,70,127
25669,note_on,2,0,0,,8,,,68,127
25735,note_off,66,0,0,,8,,,68,127
25737,note_on,2,0,0,,6,,,66,127
25870,note_off,133,0,0,,6,,,66,127
25872,note_on,2,0,0,,8,,,68,127
26005,note_off,133,0,0,,8,,,68,127
26005,note_off,0,0,0,,5,,,53,127
26007,note_on,2,0,0,,6,,,54,127
26007,note_on,0,0,0,,12,,,71,127
26073,note_off,66,0,0,,12,,,71,127
26075,note_on,2,0,0,,11,,,70,127
26141,note_off,66,0,0,,11,,,70,127
26143,note_on,2,0,0,,8,,,68,127
26276,note_off,133,0,0,,8,,,68,127
26278,note_on,2,0,0,,11,,,70,127
26411,note_off,133,0,0,,11,,,70,127
26411,note_off,0,0,0,,6,,,54,127
26413,note_on,2,0,0,,3,,,63,127
26413,note_on,0,0,0,,1,,,73,127
26479,note_off,66,0,0,,1,,,73,127
26481,note_on,2,0,0,,0,,,72,127
26547,note_off,66,0,0,,0,,,72,127
26549,note_on,2,0,0,,11,,,70,127
26682,note_off,133,0,0,,11,,,70,127
26684,note_on,2,0,0,,0,,,72,127
26817,note_off,133,0,0,,0,,,72,127
26817,note_off,0,0,0,,3,,,63,127
26819,note_on,2,0,0,,1,,,61,127
26819,note_on,0,0,0,,3,,,75,127
26885,note_off,66,0,0,,3,,,75,127
26887,note_on,2,0,0,,1,,,73,127
26953,note_off,66,0,0,,1,,,73,127
26955,note_on,2,0,0,,0,,,72,127
27088,note_off,133,0,0,,0,,,72,127
27090,note_on,2,0,0,,1,,,73,127
27223,note_off,133,0,0,,1,,,73,127
27223,note_off,0,0,0,,1,,,61,127
27225,note_on,2,0,0,,0,,,60,127
27225,note_on,0,0,0,,5,,,77,127
27291,note_off,66,0,0,,5,,,77,127
27293,note_on,2,0,0,,3,,,75,127
27359,note_off,66,0,0,,3,,,75,127
27361,note_on,2,0,0,,1,,,73,127
27494,note_off,133,0,0,,1,,,73,127
27496,note_on,2,0,0,,3,,,75,127
27629,note_off,133,0,0,,3,,,75,127
27629,note_off,0,0,0,,0,,,60,127
27631,note_on,2,0,0,,12,,,59,127
27631,note_on,0,0,0,,6,,,78,127
27697,note_off,66,0,0,,6,,,78,127
27699,note_on,2,0,0,,5,,,77,127
27765,note_off,66,0,0,,5,,,77,127
27767,note_on,2,0,0,,3,,,75,127
27900,note_off,133,0,0,,3,,,75,127
27902,note_on,2,0,0,,5,,,77,127
28035,note_off,133,0,0,,5,,,77,127
28035,note_off,0,0,0,,12,,,59,127
28037,note_on,2,0,0,,11,,,58,127
28037,note_on,0,0,0,,8,,,80,127
28103,note_off,66,0,0,,8,,,80,127
28105,note_on,2,0,0,,6,,,78,127
28171,note_off,66,0,0,,6,,,78,127
28173,note_on,2,0,0,,5,,,77,127
28306,note_off,133,0,0,,5,,,77,127
28308,note_on,2,0,0,,6,,,78,127
28441,note_off,133,0,0,,6,,,78,127
28441,note_off,0,0,0,,11,,,58,127
28443,note_on,2,0,0,,5,,,53,127
28443,note_on,0,0,0,,11,,,82,127
28509,note_off,66,0,0,,11,,,82,127
28511,note_on,2,0,0,,8,,,80,127
28577,note_off,66,0,0,,8,,,80,127
28579,note_on,2,0,0,,6,,,78,127
28712,note_off,133,0,0,,6,,,78,127
28714,note_on,2,0,0,,8,,,80,127
28847,note_off,133,0,0,,8,,,80,127
28847,note_off,0,0,0,,5,,,53,127
28849,note_on,2,0,0,,6,,,54,127
28849,note_on,0,0,0,,11,,,82,127
28982,note_off,133,0,0,,6,,,54,127
28984,note_on,2,0,0,,5,,,53,127
29117,note_off,133,0,0,,5,,,53,127
29117,note_off,0,0,0,,11,,,82,127
29119,note_on,2,0,0,,3,,,51,127
29119,note_on,0,0,0,,0,,,84,127
29252,note_off,133,0,0,,0,,,84,127
29252,note_off,0,0,0,,3,,,51,127
29254,note_on,2,0,0,,1,,,49,127
29254,note_on,0,0,0,,1,,,85,127
29387,note_off,133,0,0,,1,,,85,127
29389,note_on,2,0,0,,8,,,80,127
29522,note_off,133,0,0,,8,,,80,127
29524,note_on,2,0,0,,5,,,77,127
29657,note_off,133,0,0,,5,,,77,127
29659,note_on,2,0,0,,1,,,73,127
29792,note_off,133,0,0,,1,,,73,127
29794,note_on,2,0,0,,8,,,68,127
29927,note_off,133,0,0,,8,,,68,127
29929,note_on,2,0,0,,5,,,65,127
30062,note_off,133,0,0,,5,,,65,127
30064,note_on,2,0,0,,1,,,61,127
30197,note_off,133,0,0,,1,,,61,127
30199,note_on,2,0,0,,8,,,56,127
30332,note_off,133,0,0,,8,,,56,127
30334,note_on,2,0,0,,5,,,53,127
30467,note_off,133,0,0,,5,,,53,127
30467,note_off,0,0,0,,1,,,49,127
30469,note_on,2,0,0,,1,,,49,127
30602,note_off,133,0,0,,1,,,49,127
30604,note_on,2,0,0,,8,,,44,127
30737,note_off,133,0,0,,8,,,44,127
30739,note_on,2,0,0,,5,,,41,127
30872,note_off,133,0,0,,5,,,41,127
30874,note_on,2,0,0,,1,,,37,127
31619,note_on,745,0,0,,1,,,85,127
31685,note_off,66,0,0,,1,,,37,127
31753,note_off,68,0,0,,1,,,85,127
31755,note_on,2,0,0,,12,,,83,127
31888,note_off,133,0,0,,12,,,83,127
31890,note_on,2,0,0,,6,,,66,127
31890,note_on,0,0,0,,11,,,82,127
32023,note_off,133,0,0,,11,,,82,127
32025,note_on,2,0,0,,1,,,85,127
32158,note_off,133,0,0,,1,,,85,127
32160,note_on,2,0,0,,11,,,82,127
32293,note_off,133,0,0,,11,,,82,127
32293,note_off,0,0,0,,6,,,66,127
32295,note_on,2,0,0,,11,,,70,127
32295,note_on,0,0,0,,6,,,78,127
32428,note_off,133,0,0,,6,,,78,127
32430,note_on,2,0,0,,11,,,82,127
32563,note_off,133,0,0,,11,,,82,127
32565,note_on,2,0,0,,6,,,78,127
32698,note_off,133,0,0,,6,,,78,127
32698,note_off,0,0,0,,11,,,70,127
32700,note_on,2,0,0,,12,,,71,127
32700,note_on,0,0,0,,3,,,75,127
32833,note_off,133,0,0,,3,,,75,127
32835,note_on,2,0,0,,6,,,78,127
32968,note_off,133,0,0,,6,,,78,127
32970,note_on,2,0,0,,3,,,75,127
33103,note_off,133,0,0,,3,,,75,127
33103,note_off,0,0,0,,12,,,71,127
33105,note_on,2,0,0,,8,,,68,127
33105,note_on,0,0,0,,12,,,71,127
33238,note_off,133,0,0,,12,,,71,127
33240,note_on,2,0,0,,3,,,75,127
33373,note_off,133,0,0,,3,,,75,127
33375,note_on,2,0,0,,12,,,71,127
33508,note_off,133,0,0,,12,,,71,127
33508,note_off,0,0,0,,8,,,68,127
33510,note_on,2,0,0,,5,,,65,127
33510,note_on,0,0,0,,8,,,68,127
33643,note_off,133,0,0,,8,,,68,127
33645,note_on,2,0,0,,3,,,75,127
33778,note_off,133,0,0,,3,,,75,127
33780,note_on,2,0,0,,1,,,73,127
33913,note_off,133,0,0,,1,,,73,127
33913,note_off,0,0,0,,5,,,65,127
33915,note_on,2,0,0,,1,,,61,127
33915,note_on,0,0,0,,12,,,71,127
34048,note_off,133,0,0,,12,,,71,127
34050,note_on,2,0,0,,11,,,70,127
34183,note_off,133,0,0,,11,,,70,127
34185,note_on,2,0,0,,8,,,68,127
34318,note_off,133,0,0,,8,,,68,127
34318,note_off,0,0,0,,1,,,61,127
34320,note_on,2,0,0,,6,,,54,127
34320,note_on,0,0,0,,11,,,70,127
34453,note_off,133,0,0,,11,,,70,127
34455,note_on,2,0,0,,1,,,73,127
34588,note_off,133,0,0,,1,,,73,127
34590,note_on,2,0,0,,11,,,70,127
34723,note_off,133,0,0,,11,,,70,127
34725,note_on,2,0,0,,6,,,66,127
34858,note_off,133,0,0,,6,,,54,127
34860,note_on,2,0,0,,1,,,73,127
34993,note_off,133,0,0,,1,,,73,127
34995,note_on,2,0,0,,11,,,70,127
35128,note_off,133,0,0,,11,,,70,127
35129,note_off,1,0,0,,6,,,66,127
35130,note_on,1,0,0,,6,,,66,127
35263,note_off,133,0,0,,6,,,66,127
35265,note_on,2,0,0,,11,,,70,127
35398,note_off,133,0,0,,11,,,70,127
35400,note_on,2,0,0,,6,,,66,127
35533,note_off,133,0,0,,6,,,66,127
35535,note_on,2,0,0,,3,,,63,127
35535,note_on,0,0,0,,8,,,80,127
35601,note_off,66,0,0,,8,,,80,127
35603,note_on,2,0,0,,6,,,78,127
35669,note_off,66,0,0,,6,,,78,127
35669,note_off,0,0,0,,3,,,63,127
35671,note_on,2,0,0,,6,,,66,127
35671,note_on,0,0,0,,8,,,80,127
35737,note_off,66,0,0,,8,,,80,127
35739,note_on,2,0,0,,6,,,78,127
35805,note_off,66,0,0,,6,,,78,127
35805,note_off,0,0,0,,6,,,66,127
35807,note_on,2,0,0,,3,,,63,127
35807,note_on,0,0,0,,8,,,80,127
35873,note_off,66,0,0,,8,,,80,127
35875,note_on,2,0,0,,6,,,78,127
35941,note_off,66,0,0,,3,,,63,127
35943,note_on,2,0,0,,12,,,59,127
36076,note_off,133,0,0,,12,,,59,127
36078,note_on,2,0,0,,3,,,63,127
36211,note_off,133,0,0,,3,,,63,127
36213,note_off,2,0,0,,6,,,78,127
36213,note_on,0,0,0,,12,,,59,127
36346,note_off,133,0,0,,12,,,59,127
36348,note_on,2,0,0,,8,,,56,127
36348,note_on,0,0,0,,11,,,82,127
36414,note_off,66,0,0,,11,,,82,127
36416,note_on,2,0,0,,8,,,80,127
36482,note_off,66,0,0,,8,,,80,127
36482,note_off,0,0,0,,8,,,56,127
36484,note_on,2,0,0,,12,,,59,127
36484,note_on,0,0,0,,11,,,82,127
36550,note_off,66,0,0,,11,,,82,127
36552,note_on,2,0,0,,8,,,80,127
36618,note_off,66,0,0,,8,,,80,127
36618,note_off,0,0,0,,12,,,59,127
36620,note_on,2,0,0,,8,,,56,127
36620,note_on,0,0,0,,11,,,82,127
36686,note_off,66,0,0,,11,,,82,127
36688,note_on,2,0,0,,8,,,80,127
36754,note_off,66,0,0,,8,,,56,127
36756,note_on,2,0,0,,5,,,53,127
36889,note_off,133,0,0,,5,,,53,127
36891,note_on,2,0,0,,8,,,56,127
37024,note_off,133,0,0,,8,,,56,127
37026,note_off,2,0,0,,8,,,80,127
37026,note_on,0,0,0,,5,,,53,127
37159,note_off,133,0,0,,5,,,53,127
37161,note_on,2,0,0,,1,,,49,127
37161,note_on,0,0,0,,12,,,83,127
37227,note_off,66,0,0,,12,,,83,127
37229,note_on,2,0,0,,11,,,82,127
37295,note_off,66,0,0,,11,,,82,127
37295,note_off,0,0,0,,1,,,49,127
37297,note_on,2,0,0,,5,,,53,127
37297,note_on,0,0,0,,12,,,83,127
37363,note_off,66,0,0,,12,,,83,127
37365,note_on,2,0,0,,11,,,82,127
37431,note_off,66,0,0,,11,,,82,127
37431,note_off,0,0,0,,5,,,53,127
37433,note_on,2,0,0,,1,,,49,127
37433,note_on,0,0,0,,12,,,83,127
37499,note_off,66,0,0,,12,,,83,127
37501,note_on,2,0,0,,11,,,82,127
37567,note_off,66,0,0,,11,,,82,127
37567,note_off,0,0,0,,1,,,49,127
37569,note_on,2,0,0,,1,,,37,127
37569,note_on,0,0,0,,12,,,83,127
37702,note_off,133,0,0,,12,,,83,127
37704,note_on,2,0,0,,8,,,80,127
37837,note_off,133,0,0,,8,,,80,127
37839,note_on,2,0,0,,5,,,77,127
37972,note_off,133,0,0,,5,,,77,127
37974,note_on,2,0,0,,1,,,73,127
38107,note_off,133,0,0,,1,,,73,127
38109,note_on,2,0,0,,5,,,77,127
38242,note_off,133,0,0,,5,,,77,127
38242,note_off,0,0,0,,1,,,37,127
38244,note_on,2,0,0,,1,,,49,127
38244,note_on,0,0,0,,12,,,83,127
38377,note_off,133,0,0,,12,,,83,127
38377,note_off,0,0,0,,1,,,49,127
38379,note_on,2,0,0,,6,,,54,127
38379,note_on,0,0,0,,11,,,82,127
38379,note_on,0,0,0,,6,,,78,127
38512,note_off,133,0,0,,6,,,78,127
38512,note_off,0,0,0,,11,,,82,127
38514,note_on,2,0,0,,8,,,80,127
38514,note_on,0,0,0,,5,,,77,127
38647,note_off,133,0,0,,5,,,77,127
38647,note_off,0,0,0,,8,,,80,127
38647,note_off,0,0,0,,6,,,54,127
38649,note_on,2,0,0,,12,,,59,127
38649,note_on,0,0,0,,6,,,78,127
38649,note_on,0,0,0,,11,,,82,127
38782,note_off,133,0,0,,11,,,82,127
38782,note_off,0,0,0,,6,,,78,127
38782,note_off,0,0,0,,12,,,59,127
38784,note_on,2,0,0,,1,,,61,127
38784,note_on,0,0,0,,12,,,83,127
38784,note_on,0,0,0,,8,,,80,127
38917,note_off,133,0,0,,8,,,80,127
38917,note_off,0,0,0,,12,,,83,127
38919,note_on,2,0,0,,6,,,78,127
38919,note_on,0,0,0,,11,,,82,127
39052,note_off,133,0,0,,11,,,82,127
39052,note_off,0,0,0,,6,,,78,127
39054,note_on,2,0,0,,1,,,49,127
39054,note_on,0,0,0,,8,,,80,127
39054,note_on,0,0,0,,5,,,77,127
39187,note_off,133,0,0,,5,,,77,127
39187,note_off,0,0,0,,8,,,80,127
39187,note_off,0,0,0,,1,,,49,127
39188,note_off,1,0,0,,1,,,61,127
39189,note_on,1,0,0,,6,,,66,127
39189,note_on,0,0,0,,11,,,82,127
39322,note_off,133,0,0,,11,,,82,127
39324,note_on,2,0,0,,1,,,85,127
39457,note_off,133,0,0,,1,,,85,127
39459,note_on,2,0,0,,11,,,82,127
39592,note_off,133,0,0,,11,,,82,127
39592,note_off,0,0,0,,6,,,66,127
39594,note_on,2,0,0,,11,,,70,127
39594,note_on,0,0,0,,6,,,78,127
39727,note_off,133,0,0,,6,,,78,127
39729,note_on,2,0,0,,11,,,82,127
39862,note_off,133,0,0,,11,,,82,127
39864,note_on,2,0,0,,6,,,78,127
39997,note_off,133,0,0,,6,,,78,127
39997,note_off,0,0,0,,11,,,70,127
39999,note_on,2,0,0,,12,,,71,127
39999,note_on,0,0,0,,3,,,75,127
40132,note_off,133,0,0,,3,,,75,127
40134,note_on,2,0,0,,6,,,78,127
40267,note_off,133,0,0,,6,,,78,127
40269,note_on,2,0,0,,3,,,75,127
40402,note_off,133,0,0,,3,,,75,127
40402,note_off,0,0,0,,12,,,71,127
40404,note_on,2,0,0,,8,,,68,127
40404,note_on,0,0,0,,12,,,71,127
40537,note_off,133,0,0,,12,,,71,127
40539,note_on,2,0,0,,3,,,75,127
40672,note_off,133,0,0,,3,,,75,127
40674,note_on,2,0,0,,12,,,71,127
40807,note_off,133,0,0,,12,,,71,127
40807,note_off,0,0,0,,8,,,68,127
40809,note_on,2,0,0,,5,,,65,127
40809,note_on,0,0,0,,8,,,68,127
40942,note_off,133,0,0,,8,,,68,127
40944,note_on,2,0,0,,3,,,75,127
41077,note_off,133,0,0,,3,,,75,127
41079,note_on,2,0,0,,1,,,73,127
41212,note_off,133,0,0,,1,,,73,127
41212,note_off,0,0,0,,5,,,65,127
41214,note_on,2,0,0,,1,,,61,127
41214,note_on,0,0,0,,12,,,71,127
41347,note_off,133,0,0,,12,,,71,127
41349,note_on,2,0,0,,11,,,70,127
41482,note_off,133,0,0,,11,,,70,127
41484,note_on,2,0,0,,8,,,68,127
41617,note_off,133,0,0,,8,,,68,127
41617,note_off,0,0,0,,1,,,61,127
41619,note_on,2,0,0,,6,,,54,127
41619,note_on,0,0,0,,11,,,70,127
41752,note_off,133,0,0,,11,,,70,127
41754,note_on,2,0,0,,1,,,73,127
41887,note_off,133,0,0,,1,,,73,127
41889,note_on,2,0,0,,11,,,70,127
42022,note_off,133,0,0,,11,,,70,127
42024,note_on,2,0,0,,6,,,66,127
42157,note_off,133,0,0,,6,,,54,127
42159,note_on,2,0,0,,1,,,73,127
42292,note_off,133,0,0,,1,,,73,127
42294,note_on,2,0,0,,11,,,70,127
42427,note_off,133,0,0,,11,,,70,127
42428,note_off,1,0,0,,6,,,66,127
42429,note_on,1,0,0,,6,,,66,127
42562,note_off,133,0,0,,6,,,66,127
42564,note_on,2,0,0,,11,,,70,127
42697,note_off,133,0,0,,11,,,70,127
42699,note_on,2,0,0,,6,,,66,127
42832,note_off,133,0,0,,6,,,66,127
42834,note_on,2,0,0,,3,,,63,127
42834,note_on,0,0,0,,8,,,80,127
42900,note_off,66,0,0,,8,,,80,127
42902,note_on,2,0,0,,6,,,78,127
42968,note_off,66,0,0,,6,,,78,127
42968,note_off,0,0,0,,3,,,63,127
42970,note_on,2,0,0,,6,,,66,127
42970,note_on,0,0,0,,8,,,80,127
43036,note_off,66,0,0,,8,,,80,127
43038,note_on,2,0,0,,6,,,78,127
43104,note_off,66,0,0,,6,,,78,127
43104,note_off,0,0,0,,6,,,66,127
43106,note_on,2,0,0,,3,,,63,127
43106,note_on,0,0,0,,8,,,80,127
43172,note_off,66,0,0,,8,,,80,127
43174,note_on,2,0,0,,6,,,78,127
43240,note_off,66,0,0,,3,,,63,127
43242,note_on,2,0,0,,12,,,59,127
43375,note_off,133,0,0,,12,,,59,127
43377,note_on,2,0,0,,3,,,63,127
43510,note_off,133,0,0,,3,,,63,127
43512,note_on,2,0,0,,12,,,59,127
43645,note_off,133,0,0,,12,,,59,127
43645,note_off,0,0,0,,6,,,78,127
43647,note_on,2,0,0,,8,,,56,127
43647,note_on,0,0,0,,11,,,82,127
43713,note_off,66,0,0,,11,,,82,127
43715,note_on,2,0,0,,8,,,80,127
43781,note_off,66,0,0,,8,,,80,127
43781,note_off,0,0,0,,8,,,56,127
43783,note_on,2,0,0,,12,,,59,127
43783,note_on,0,0,0,,11,,,82,127
43849,note_off,66,0,0,,11,,,82,127
43851,note_on,2,0,0,,8,,,80,127
43917,note_off,66,0,0,,8,,,80,127
43917,note_off,0,0,0,,12,,,59,127
43919,note_on,2,0,0,,8,,,56,127
43919,note_on,0,0,0,,11,,,82,127
43985,note_off,66,0,0,,11,,,82,127
43987,note_on,2,0,0,,8,,,80,127
44053,note_off,66,0,0,,8,,,56,127
44055,note_on,2,0,0,,5,,,53,127
44188,note_off,133,0,0,,5,,,53,127
44190,note_on,2,0,0,,8,,,56,127
44323,note_off,133,0,0,,8,,,56,127
44325,note_on,2,0,0,,5,,,53,127
44458,note_off,133,0,0,,5,,,53,127
44458,note_off,0,0,0,,8,,,80,127
44460,note_on,2,0,0,,1,,,49,127
44460,note_on,0,0,0,,12,,,83,127
44526,note_off,66,0,0,,12,,,83,127
44528,note_on,2,0,0,,11,,,82,127
44594,note_off,66,0,0,,11,,,82,127
44594,note_off,0,0,0,,1,,,49,127
44596,note_on,2,0,0,,5,,,53,127
44596,note_on,0,0,0,,12,,,83,127
44662,note_off,66,0,0,,12,,,83,127
44664,note_on,2,0,0,,11,,,82,127
44730,note_off,66,0,0,,11,,,82,127
44730,note_off,0,0,0,,5,,,53,127
44732,note_on,2,0,0,,1,,,49,127
44732,note_on,0,0,0,,12,,,83,127
44798,note_off,66,0,0,,12,,,83,127
44800,note_on,2,0,0,,11,,,82,127
44866,note_off,66,0,0,,11,,,82,127
44866,note_off,0,0,0,,1,,,49,127
44868,note_on,2,0,0,,1,,,37,127
44868,note_on,0,0,0,,12,,,83,127
45001,note_off,133,0,0,,12,,,83,127
45003,note_on,2,0,0,,8,,,80,127
45136,note_off,133,0,0,,8,,,80,127
45138,note_on,2,0,0,,5,,,77,127
45271,note_off,133,0,0,,5,,,77,127
45273,note_on,2,0,0,,1,,,73,127
45406,note_off,133,0,0,,1,,,73,127
45408,note_on,2,0,0,,5,,,77,127
45476,note_off,68,0,0,,1,,,37,127
45542,note_off,66,0,0,,5,,,77,127
45544,note_on,2,0,0,,1,,,49,127
45544,note_on,0,0,0,,12,,,83,127
45677,note_off,133,0,0,,12,,,83,127
45677,note_off,0,0,0,,1,,,49,127
45679,note_on,2,0,0,,6,,,54,127
45679,note_on,0,0,0,,6,,,78,127
45679,note_on,0,0,0,,11,,,82,127
45812,note_off,133,0,0,,11,,,82,127
45812,note_off,0,0,0,,6,,,78,127
45814,note_on,2,0,0,,8,,,80,127
45814,note_on,0,0,0,,5,,,77,127
45947,note_off,133,0,0,,5,,,77,127
45947,note_off,0,0,0,,8,,,80,127
45947,note_off,0,0,0,,6,,,54,127
45949,note_on,2,0,0,,6,,,42,127
45949,note_on,0,0,0,,6,,,78,127
45949,note_on,0,0,0,,11,,,82,127
46082,note_off,133,0,0,,11,,,82,127
46082,note_off,0,0,0,,6,,,78,127
46082,note_off,0,0,0,,6,,,42,127
46084,note_on,2,0,0,,1,,,61,127
46084,note_on,0,0,0,,12,,,83,127
46084,note_on,0,0,0,,8,,,80,127
46217,note_off,133,0,0,,8,,,80,127
46217,note_off,0,0,0,,12,,,83,127
46219,note_on,2,0,0,,11,,,82,127
46219,note_on,0,0,0,,6,,,78,127
46352,note_off,133,0,0,,6,,,78,127
46352,note_off,0,0,0,,11,,,82,127
46352,note_off,0,0,0,,1,,,61,127
46354,note_on,2,0,0,,1,,,49,127
46354,note_on,0,0,0,,5,,,77,127
46354,note_on,0,0,0,,8,,,80,127
46487,note_off,133,0,0,,8,,,80,127
46487,note_off,0,0,0,,5,,,77,127
46487,note_off,0,0,0,,1,,,49,127
46489,note_on,2,0,0,,6,,,66,127
46489,note_on,0,0,0,,6,,,78,127
46489,note_on,0,0,0,,11,,,82,127
46622,note_off,133,0,0,,11,,,82,127
46622,note_off,0,0,0,,6,,,78,127
46624,note_on,2,0,0,,5,,,77,127
46624,note_on,0,0,0,,8,,,80,127
46757,note_off,133,0,0,,8,,,80,127
46757,note_off,0,0,0,,5,,,77,127
46757,note_off,0,0,0,,6,,,66,127
46759,note_on,2,0,0,,6,,,54,127
46759,note_on,0,0,0,,6,,,78,127
46759,note_on,0,0,0,,11,,,82,127
46892,note_off,133,0,0,,11,,,82,127
46892,note_off,0,0,0,,6,,,78,127
46892,note_off,0,0,0,,6,,,54,127
46894,note_on,2,0,0,,1,,,73,127
46894,note_on,0,0,0,,8,,,80,127
46894,note_on,0,0,0,,12,,,83,127
47027,note_off,133,0,0,,12,,,83,127
47027,note_off,0,0,0,,8,,,80,127
47029,note_on,2,0,0,,11,,,82,127
47029,note_on,0,0,0,,6,,,78,127
47162,note_off,133,0,0,,6,,,78,127
47162,note_off,0,0,0,,11,,,82,127
47162,note_off,0,0,0,,1,,,73,127
47164,note_on,2,0,0,,1,,,61,127
47164,note_on,0,0,0,,8,,,80,127
47164,note_on,0,0,0,,5,,,77,127
47297,note_off,133,0,0,,5,,,77,127
47297,note_off,0,0,0,,8,,,80,127
47297,note_off,0,0,0,,1,,,61,127
47299,note_on,2,0,0,,6,,,66,127
47299,note_on,0,0,0,,6,,,78,127
47299,note_on,0,0,0,,11,,,82,127
47432,note_off,133,0,0,,11,,,82,127
47432,note_off,0,0,0,,6,,,78,127
47434,note_on,2,0,0,,8,,,80,127
47434,note_on,0,0,0,,5,,,77,127
47567,note_off,133,0,0,,5,,,77,127
47567,note_off,0,0,0,,8,,,80,127
47567,note_off,0,0,0,,6,,,66,127
47569,note_on,2,0,0,,6,,,54,127
47569,note_on,0,0,0,,11,,,82,127
47569,note_on,0,0,0,,6,,,78,127
47702,note_off,133,0,0,,6,,,78,127
47702,note_off,0,0,0,,11,,,82,127
47702,note_off,0,0,0,,6,,,54,127
47704,note_on,2,0,0,,1,,,61,127
47704,note_on,0,0,0,,8,,,80,127
47704,note_on,0,0,0,,12,,,83,127
47837,note_off,133,0,0,,12,,,83,127
47837,note_off,0,0,0,,8,,,80,127
47839,note_on,2,0,0,,6,,,78,127
47839,note_on,0,0,0,,11,,,82,127
47972,note_off,133,0,0,,11,,,82,127
47972,note_off,0,0,0,,6,,,78,127
47972,note_off,0,0,0,,1,,,61,127
47974,note_on,2,0,0,,1,,,49,127
47974,note_on,0,0,0,,8,,,80,127
47974,note_on,0,0,0,,5,,,77,127
48107,note_off,133,0,0,,5,,,77,127
48107,note_off,0,0,0,,8,,,80,127
48107,note_off,0,0,0,,1,,,49,127
48109,note_on,2,0,0,,6,,,54,127
48109,note_on,0,0,0,,1,,,85,127
48242,note_off,133,0,0,,1,,,85,127
48244,note_on,2,0,0,,12,,,83,127
48244,note_on,0,0,0,,8,,,80,127
48377,note_off,133,0,0,,8,,,80,127
48377,note_off,0,0,0,,12,,,83,127
48377,note_off,0,0,0,,6,,,54,127
48379,note_on,2,0,0,,6,,,42,127
48379,note_on,0,0,0,,11,,,82,127
48379,note_on,0,0,0,,6,,,78,127
48512,note_off,133,0,0,,6,,,78,127
48512,note_off,0,0,0,,11,,,82,127
48512,note_off,0,0,0,,6,,,42,127
48514,note_on,2,0,0,,1,,,49,127
48514,note_on,0,0,0,,8,,,80,127
48514,note_on,0,0,0,,5,,,77,127
48647,note_off,133,0,0,,5,,,77,127
48647,note_off,0,0,0,,8,,,80,127
48649,note_on,2,0,0,,6,,,78,127
48782,note_off,133,0,0,,6,,,78,127
48782,note_off,0,0,0,,1,,,49,127
48784,note_on,2,0,0,,1,,,37,127
48784,note_on,0,0,0,,8,,,80,127
48917,note_off,133,0,0,,8,,,80,127
48917,note_off,0,0,0,,1,,,37,127
48919,note_on,2,0,0,,6,,,42,127
48919,note_on,0,0,0,,6,,,54,127
48919,note_on,0,0,0,,8,,,80,127
48962,note_off,43,0,0,,8,,,80,127
48964,note_on,2,0,0,,6,,,78,127
49007,note_off,43,0,0,,6,,,78,127
49009,note_on,2,0,0,,8,,,80,127
49052,note_off,43,0,0,,8,,,80,127
49054,note_on,2,0,0,,6,,,78,127
49730,note_off,676,0,0,,6,,,78,127
49730,note_off,0,0,0,,6,,,54,127
49730,note_off,0,0,0,,6,,,42,127
49732,note_on,2,0,0,,6,,,54,127
49732,note_on,0,0,0,,6,,,66,127
49868,note_on,136,0,0,,11,,,70,127
50001,note_off,133,0,0,,6,,,66,127
50002,note_off,1,0,0,,11,,,70,127
50004,note_on,2,0,0,,6,,,66,127
50137,note_off,133,0,0,,6,,,66,127
50137,note_off,0,0,0,,6,,,54,127
50139,note_on,2,0,0,,6,,,54,127
50139,note_on,0,0,0,,4,,,64,127
50139,note_on,0,0,0,,11,,,70,127
50275,note_on,136,0,0,,1,,,73,127
50408,note_off,133,0,0,,11,,,70,127
50409,note_off,1,0,0,,1,,,73,127
50411,note_on,2,0,0,,11,,,70,127
50544,note_off,133,0,0,,11,,,70,127
50544,note_off,0,0,0,,4,,,64,127
50544,note_off,0,0,0,,6,,,54,127
50546,note_on,2,0,0,,6,,,54,127
50546,note_on,0,0,0,,3,,,63,127
50546,note_on,0,0,0,,12,,,71,127
50682,note_on,136,0,0,,6,,,66,127
50815,note_off,133,0,0,,12,,,71,127
50816,note_off,1,0,0,,6,,,66,127
50818,note_on,2,0,0,,3,,,75,127
50951,note_off,133,0,0,,3,,,75,127
50951,note_off,0,0,0,,3,,,63,127
50951,note_off,0,0,0,,6,,,54,127
50953,note_on,2,0,0,,6,,,54,127
50953,note_on,0,0,0,,4,,,64,127
50953,note_on,0,0,0,,1,,,73,127
51089,note_on,136,0,0,,6,,,66,127
51222,note_off,133,0,0,,1,,,73,127
51223,note_off,1,0,0,,6,,,66,127
51225,note_on,2,0,0,,11,,,70,127
51358,note_off,133,0,0,,4,,,64,127
51359,note_off,1,0,0,,11,,,70,127
51359,note_off,0,0,0,,6,,,54,127
51361,note_on,2,0,0,,6,,,54,127
51361,note_on,0,0,0,,3,,,63,127
51361,note_on,0,0,0,,12,,,71,127
51497,note_on,136,0,0,,6,,,66,127
51630,note_off,133,0,0,,12,,,71,127
51631,note_off,1,0,0,,6,,,66,127
51633,note_on,2,0,0,,6,,,78,127
51766,note_off,133,0,0,,6,,,78,127
51766,note_off,0,0,0,,3,,,63,127
51766,note_off,0,0,0,,6,,,54,127
51768,note_on,2,0,0,,6,,,54,127
51768,note_on,0,0,0,,1,,,61,127
51768,note_on,0,0,0,,6,,,78,127
51769,note_on,1,0,0,,4,,,76,127
51902,note_off,133,0,0,,6,,,78,127
51903,note_off,1,0,0,,4,,,76,127
51904,note_on,1,0,0,,3,,,75,127
52037,note_off,133,0,0,,3,,,75,127
52039,note_on,2,0,0,,1,,,73,127
52172,note_off,133,0,0,,1,,,73,127
52172,note_off,0,0,0,,1,,,61,127
52172,note_off,0,0,0,,6,,,54,127
52174,note_on,2,0,0,,12,,,59,127
52174,note_on,0,0,0,,3,,,75,127
52310,note_on,136,0,0,,6,,,66,127
52443,note_off,133,0,0,,3,,,75,127
52444,note_off,1,0,0,,6,,,66,127
52446,note_on,2,0,0,,3,,,75,127
52579,note_off,133,0,0,,3,,,75,127
52579,note_off,0,0,0,,12,,,59,127
52581,note_on,2,0,0,,10,,,57,127
52581,note_on,0,0,0,,1,,,73,127
52717,note_on,136,0,0,,6,,,66,127
52850,note_off,133,0,0,,1,,,73,127
52851,note_off,1,0,0,,6,,,66,127
52853,note_on,2,0,0,,1,,,73,127
52986,note_off,133,0,0,,1,,,73,127
52986,note_off,0,0,0,,10,,,57,127
52988,note_on,2,0,0,,8,,,56,127
52988,note_on,0,0,0,,0,,,72,127
53124,note_on,136,0,0,,8,,,68,127
53257,note_off,133,0,0,,0,,,72,127
53258,note_off,1,0,0,,8,,,68,127
53260,note_on,2,0,0,,4,,,76,127
53393,note_off,133,0,0,,4,,,76,127
53393,note_off,0,0,0,,8,,,56,127
53395,note_on,2,0,0,,8,,,56,127
53395,note_on,0,0,0,,6,,,66,127
53395,note_on,0,0,0,,3,,,75,127
53531,note_on,136,0,0,,11,,,70,127
53664,note_off,133,0,0,,3,,,75,127
53665,note_off,1,0,0,,11,,,70,127
53667,note_on,2,0,0,,0,,,72,127
53800,note_off,133,0,0,,0,,,72,127
53800,note_off,0,0,0,,6,,,66,127
53800,note_off,0,0,0,,8,,,56,127
53802,note_on,2,0,0,,4,,,64,127
53802,note_on,0,0,0,,8,,,56,127
53802,note_on,0,0,0,,1,,,73,127
53938,note_on,136,0,0,,8,,,68,127
54071,note_off,133,0,0,,1,,,73,127
54072,note_off,1,0,0,,8,,,68,127
54074,note_on,2,0,0,,4,,,76,127
54207,note_off,133,0,0,,4,,,76,127
54207,note_off,0,0,0,,8,,,56,127
54207,note_off,0,0,0,,4,,,64,127
54209,note_on,2,0,0,,8,,,56,127
54209,note_on,0,0,0,,6,,,66,127
54209,note_on,0,0,0,,3,,,75,127
54345,note_on,136,0,0,,11,,,70,127
54478,note_off,133,0,0,,3,,,75,127
54479,note_off,1,0,0,,11,,,70,127
54481,note_on,2,0,0,,0,,,72,127
54614,note_off,133,0,0,,0,,,72,127
54614,note_off,0,0,0,,6,,,66,127
54614,note_off,0,0,0,,8,,,56,127
54616,note_on,2,0,0,,8,,,56,127
54616,note_on,0,0,0,,4,,,64,127
54616,note_on,0,0,0,,1,,,73,127
54752,note_on,136,0,0,,8,,,68,127
54885,note_off,133,0,0,,1,,,73,127
54886,note_off,1,0,0,,8,,,68,127
54888,note_on,2,0,0,,8,,,80,127
55021,note_off,133,0,0,,8,,,80,127
55021,note_off,0,0,0,,4,,,64,127
55021,note_off,0,0,0,,8,,,56,127
55023,note_on,2,0,0,,8,,,56,127
55023,note_on,0,0,0,,3,,,63,127
55023,note_on,0,0,0,,6,,,78,127
55156,note_off,133,0,0,,6,,,78,127
55158,note_on,2,0,0,,4,,,76,127
55291,note_off,133,0,0,,4,,,76,127
55293,note_on,2,0,0,,3,,,75,127
55426,note_off,133,0,0,,3,,,75,127
55426,note_off,0,0,0,,3,,,63,127
55426,note_off,0,0,0,,8,,,56,127
55428,note_on,2,0,0,,1,,,61,127
55428,note_on,0,0,0,,4,,,76,127
55561,note_off,133,0,0,,4,,,76,127
55563,note_on,2,0,0,,8,,,80,127
55696,note_off,133,0,0,,8,,,80,127
55698,note_on,2,0,0,,4,,,76,127
55831,note_off,133,0,0,,4,,,76,127
55831,note_off,0,0,0,,1,,,61,127
55833,note_on,2,0,0,,10,,,69,127
55833,note_on,0,0,0,,1,,,73,127
55966,note_off,133,0,0,,1,,,73,127
55968,note_on,2,0,0,,4,,,76,127
56101,note_off,133,0,0,,4,,,76,127
56103,note_on,2,0,0,,1,,,73,127
56236,note_off,133,0,0,,1,,,73,127
56236,note_off,0,0,0,,10,,,69,127
56238,note_on,2,0,0,,6,,,66,127
56238,note_on,0,0,0,,10,,,69,127
56371,note_off,133,0,0,,10,,,69,127
56373,note_on,2,0,0,,1,,,73,127
56506,note_off,133,0,0,,1,,,73,127
56508,note_on,2,0,0,,10,,,69,127
56641,note_off,133,0,0,,10,,,69,127
56641,note_off,0,0,0,,6,,,66,127
56643,note_on,2,0,0,,3,,,63,127
56643,note_on,0,0,0,,6,,,66,127
56776,note_off,133,0,0,,6,,,66,127
56778,note_on,2,0,0,,10,,,69,127
56911,note_off,133,0,0,,10,,,69,127
56913,note_on,2,0,0,,6,,,66,127
57046,note_off,133,0,0,,6,,,66,127
57046,note_off,0,0,0,,3,,,63,127
57048,note_on,2,0,0,,0,,,60,127
57048,note_on,0,0,0,,3,,,63,127
57181,note_off,133,0,0,,3,,,63,127
57183,note_on,2,0,0,,10,,,69,127
57316,note_off,133,0,0,,10,,,69,127
57318,note_on,2,0,0,,8,,,68,127
57451,note_off,133,0,0,,8,,,68,127
57451,note_off,0,0,0,,0,,,60,127
57453,note_on,2,0,0,,8,,,56,127
57453,note_on,0,0,0,,6,,,66,127
57586,note_off,133,0,0,,6,,,66,127
57588,note_on,2,0,0,,4,,,64,127
57721,note_off,133,0,0,,4,,,64,127
57723,note_on,2,0,0,,3,,,63,127
57856,note_off,133,0,0,,3,,,63,127
57856,note_off,0,0,0,,8,,,56,127
57858,note_on,2,0,0,,1,,,61,127
57858,note_on,0,0,0,,4,,,64,127
57991,note_off,133,0,0,,4,,,64,127
57993,note_on,2,0,0,,8,,,68,127
58126,note_off,133,0,0,,8,,,68,127
58128,note_on,2,0,0,,4,,,64,127
58261,note_off,133,0,0,,4,,,64,127
58262,note_off,1,0,0,,1,,,61,127
58263,note_on,1,0,0,,1,,,61,127
58399,note_on,136,0,0,,8,,,80,127
58532,note_off,133,0,0,,8,,,80,127
58534,note_on,2,0,0,,4,,,76,127
58667,note_off,133,0,0,,4,,,76,127
58668,note_off,1,0,0,,1,,,61,127
58669,note_on,1,0,0,,1,,,73,127
58802,note_off,133,0,0,,1,,,73,127
58804,note_on,2,0,0,,4,,,76,127
58937,note_off,133,0,0,,4,,,76,127
58939,note_on,2,0,0,,1,,,73,127
59072,note_off,133,0,0,,1,,,73,127
59074,note_on,2,0,0,,10,,,69,127
59074,note_on,0,0,0,,6,,,78,127
59140,note_off,66,0,0,,6,,,78,127
59142,note_on,2,0,0,,4,,,76,127
59208,note_off,66,0,0,,4,,,76,127
59208,note_off,0,0,0,,10,,,69,127
59210,note_on,2,0,0,,1,,,73,127
59210,note_on,0,0,0,,6,,,78,127
59276,note_off,66,0,0,,6,,,78,127
59278,note_on,2,0,0,,4,,,76,127
59344,note_off,66,0,0,,4,,,76,127
59344,note_off,0,0,0,,1,,,73,127
59346,note_on,2,0,0,,10,,,69,127
59346,note_on,0,0,0,,6,,,78,127
59412,note_off,66,0,0,,6,,,78,127
59414,note_on,2,0,0,,4,,,76,127
59480,note_off,66,0,0,,10,,,69,127
59482,note_on,2,0,0,,6,,,66,127
59615,note_off,133,0,0,,6,,,66,127
59617,note_on,2,0,0,,10,,,69,127
59750,note_off,133,0,0,,10,,,69,127
59752,note_on,2,0,0,,6,,,66,127
59820,note_off,68,0,0,,4,,,76,127
59886,note_off,66,0,0,,6,,,66,127
59888,note_on,2,0,0,,3,,,63,127
59888,note_on,0,0,0,,8,,,80,127
59954,note_off,66,0,0,,8,,,80,127
59956,note_on,2,0,0,,6,,,78,127
60022,note_off,66,0,0,,6,,,78,127
60022,note_off,0,0,0,,3,,,63,127
60024,note_on,2,0,0,,6,,,66,127
60024,note_on,0,0,0,,8,,,80,127
60090,note_off,66,0,0,,8,,,80,127
60092,note_on,2,0,0,,6,,,78,127
60158,note_off,66,0,0,,6,,,78,127
60158,note_off,0,0,0,,6,,,66,127
60160,note_on,2,0,0,,3,,,63,127
60160,note_on,0,0,0,,8,,,80,127
60226,note_off,66,0,0,,8,,,80,127
60228,note_on,2,0,0,,6,,,78,127
60294,note_off,66,0,0,,3,,,63,127
60296,note_on,2,0,0,,0,,,60,127
60429,note_off,133,0,0,,0,,,60,127
60431,note_on,2,0,0,,3,,,63,127
60564,note_off,133,0,0,,3,,,63,127
60566,note_on,2,0,0,,0,,,60,127
60634,note_off,68,0,0,,6,,,78,127
60700,note_off,66,0,0,,0,,,60,127
60702,note_on,2,0,0,,8,,,56,127
60702,note_on,0,0,0,,8,,,80,127
60768,note_off,66,0,0,,8,,,80,127
60770,note_on,2,0,0,,7,,,79,127
60836,note_off,66,0,0,,7,,,79,127
60836,note_off,0,0,0,,8,,,56,127
60838,note_on,2,0,0,,0,,,60,127
60838,note_on,0,0,0,,8,,,80,127
60904,note_off,66,0,0,,8,,,80,127
60906,note_on,2,0,0,,7,,,79,127
60972,note_off,66,0,0,,7,,,79,127
60972,note_off,0,0,0,,0,,,60,127
60974,note_on,2,0,0,,8,,,56,127
60974,note_on,0,0,0,,8,,,80,127
61040,note_off,66,0,0,,8,,,80,127
61042,note_on,2,0,0,,7,,,79,127
61108,note_off,66,0,0,,7,,,79,127
61108,note_off,0,0,0,,8,,,56,127
61110,note_on,2,0,0,,8,,,44,127
61110,note_on,0,0,0,,8,,,80,127
61243,note_off,133,0,0,,8,,,80,127
61245,note_on,2,0,0,,3,,,75,127
61378,note_off,133,0,0,,3,,,75,127
61380,note_on,2,0,0,,0,,,72,127
61513,note_off,133,0,0,,0,,,72,127
61515,note_on,2,0,0,,8,,,68,127
61648,note_off,133,0,0,,8,,,68,127
61650,note_on,2,0,0,,3,,,75,127
61783,note_off,133,0,0,,3,,,75,127
61783,note_off,0,0,0,,8,,,44,127
61785,note_on,2,0,0,,8,,,56,127
61785,note_on,0,0,0,,6,,,78,127
61918,note_off,133,0,0,,6,,,78,127
61918,note_off,0,0,0,,8,,,56,127
61920,note_on,2,0,0,,1,,,61,127
61920,note_on,0,0,0,,1,,,73,127
61920,note_on,0,0,0,,4,,,76,127
62053,note_off,133,0,0,,4,,,76,127
62053,note_off,0,0,0,,1,,,73,127
62055,note_on,2,0,0,,0,,,72,127
62055,note_on,0,0,0,,3,,,75,127
62188,note_off,133,0,0,,3,,,75,127
62188,note_off,0,0,0,,0,,,72,127
62188,note_off,0,0,0,,1,,,61,127
62190,note_on,2,0,0,,6,,,54,127
62190,note_on,0,0,0,,1,,,73,127
62190,note_on,0,0,0,,4,,,76,127
62323,note_off,133,0,0,,4,,,76,127
62323,note_off,0,0,0,,1,,,73,127
62323,note_off,0,0,0,,6,,,54,127
62325,note_on,2,0,0,,8,,,56,127
62325,note_on,0,0,0,,6,,,78,127
62325,note_on,0,0,0,,3,,,75,127
62458,note_off,133,0,0,,3,,,75,127
62458,note_off,0,0,0,,6,,,78,127
62460,note_on,2,0,0,,4,,,76,127
62460,note_on,0,0,0,,1,,,73,127
62593,note_off,133,0,0,,1,,,73,127
62593,note_off,0,0,0,,4,,,76,127
62595,note_on,2,0,0,,8,,,44,127
62595,note_on,0,0,0,,0,,,72,127
62595,note_on,0,0,0,,3,,,75,127
62728,note_off,133,0,0,,3,,,75,127
62728,note_off,0,0,0,,0,,,72,127
62728,note_off,0,0,0,,8,,,44,127
62729,note_off,1,0,0,,8,,,56,127
62730,note_on,1,0,0,,1,,,61,127
62730,note_on,0,0,0,,1,,,73,127
62863,note_off,133,0,0,,1,,,73,127
62865,note_on,2,0,0,,2,,,74,127
62998,note_off,133,0,0,,2,,,74,127
63000,note_on,2,0,0,,1,,,73,127
63133,note_off,133,0,0,,1,,,73,127
63133,note_off,0,0,0,,1,,,61,127
63135,note_on,2,0,0,,12,,,59,127
63135,note_on,0,0,0,,2,,,74,127
63271,note_on,136,0,0,,12,,,71,127
63404,note_off,133,0,0,,2,,,74,127
63405,note_off,1,0,0,,12,,,71,127
63407,note_on,2,0,0,,5,,,77,127
63540,note_off,133,0,0,,5,,,77,127
63540,note_off,0,0,0,,12,,,59,127
63542,note_on,2,0,0,,10,,,57,127
63542,note_on,0,0,0,,6,,,78,127
63678,note_on,136,0,0,,10,,,69,127
63811,note_off,133,0,0,,6,,,78,127
63812,note_off,1,0,0,,10,,,69,127
63814,note_on,2,0,0,,1,,,73,127
63947,note_off,133,0,0,,1,,,73,127
63947,note_off,0,0,0,,10,,,57,127
63949,note_on,2,0,0,,8,,,56,127
63949,note_on,0,0,0,,8,,,80,127
64085,note_on,136,0,0,,12,,,71,127
64218,note_off,133,0,0,,8,,,80,127
64219,note_off,1,0,0,,12,,,71,127
64221,note_on,2,0,0,,1,,,73,127
64354,note_off,133,0,0,,1,,,73,127
64354,note_off,0,0,0,,8,,,56,127
64356,note_on,2,0,0,,6,,,54,127
64356,note_on,0,0,0,,10,,,81,127
64492,note_on,136,0,0,,10,,,69,127
64625,note_off,133,0,0,,10,,,69,127
64627,note_on,2,0,0,,1,,,73,127
64760,note_off,133,0,0,,1,,,73,127
64760,note_off,0,0,0,,6,,,54,127
64761,note_off,1,0,0,,10,,,81,127
64762,note_on,1,0,0,,4,,,52,127
64762,note_on,0,0,0,,7,,,79,127
64898,note_on,136,0,0,,7,,,67,127
65031,note_off,133,0,0,,7,,,67,127
65033,note_on,2,0,0,,0,,,72,127
65166,note_off,133,0,0,,0,,,72,127
65166,note_off,0,0,0,,4,,,52,127
65167,note_off,1,0,0,,7,,,79,127
65168,note_on,1,0,0,,2,,,50,127
65168,note_on,0,0,0,,6,,,78,127
65304,note_on,136,0,0,,6,,,66,127
65437,note_off,133,0,0,,6,,,66,127
65439,note_on,2,0,0,,12,,,71,127
65572,note_off,133,0,0,,12,,,71,127
65572,note_off,0,0,0,,2,,,50,127
65573,note_off,1,0,0,,6,,,78,127
65574,note_on,1,0,0,,0,,,48,127
65574,note_on,0,0,0,,4,,,76,127
65710,note_on,136,0,0,,4,,,64,127
65843,note_off,133,0,0,,4,,,64,127
65845,note_on,2,0,0,,10,,,69,127
65978,note_off,133,0,0,,10,,,69,127
65978,note_off,0,0,0,,0,,,48,127
65979,note_off,1,0,0,,4,,,76,127
65980,note_on,1,0,0,,12,,,47,127
65980,note_on,0,0,0,,12,,,59,127
65980,note_on,0,0,0,,4,,,76,127
66116,note_on,136,0,0,,7,,,67,127
66249,note_off,133,0,0,,7,,,67,127
66251,note_on,2,0,0,,12,,,71,127
66384,note_off,133,0,0,,12,,,71,127
66384,note_off,0,0,0,,12,,,59,127
66385,note_off,1,0,0,,4,,,76,127
66386,note_on,1,0,0,,10,,,57,127
66386,note_on,0,0,0,,3,,,75,127
66522,note_on,136,0,0,,6,,,66,127
66655,note_off,133,0,0,,6,,,66,127
66657,note_on,2,0,0,,10,,,69,127
66790,note_off,133,0,0,,10,,,69,127
66790,note_off,0,0,0,,10,,,57,127
66791,note_off,1,0,0,,12,,,47,127
66792,note_off,1,0,0,,3,,,75,127
66793,note_on,1,0,0,,7,,,55,127
66793,note_on,0,0,0,,4,,,76,127
66929,note_on,136,0,0,,7,,,67,127
67062,note_off,133,0,0,,7,,,67,127
67064,note_on,2,0,0,,12,,,71,127
67197,note_off,133,0,0,,12,,,71,127
67197,note_off,0,0,0,,7,,,55,127
67198,note_off,1,0,0,,4,,,76,127
67199,note_on,1,0,0,,6,,,54,127
67199,note_on,0,0,0,,6,,,78,127
67335,note_on,136,0,0,,10,,,69,127
67468,note_off,133,0,0,,10,,,69,127
67470,note_on,2,0,0,,12,,,71,127
67603,note_off,133,0,0,,12,,,71,127
67603,note_off,0,0,0,,6,,,54,127
67604,note_off,1,0,0,,6,,,78,127
67605,note_on,1,0,0,,7,,,55,127
67605,note_on,0,0,0,,4,,,52,127
67605,note_on,0,0,0,,7,,,79,127
67741,note_on,136,0,0,,7,,,67,127
67874,note_off,133,0,0,,7,,,67,127
67876,note_on,2,0,0,,12,,,71,127
68009,note_off,133,0,0,,12,,,71,127
68009,note_off,0,0,0,,4,,,52,127
68009,note_off,0,0,0,,7,,,55,127
68010,note_off,1,0,0,,7,,,79,127
68011,note_on,1,0,0,,2,,,50,127
68011,note_on,0,0,0,,7,,,55,127
68011,note_on,0,0,0,,7,,,79,127
68147,note_on,136,0,0,,7,,,67,127
68280,note_off,133,0,0,,7,,,67,127
68282,note_on,2,0,0,,12,,,71,127
68415,note_off,133,0,0,,12,,,71,127
68415,note_off,0,0,0,,7,,,55,127
68415,note_off,0,0,0,,2,,,50,127
68416,note_off,1,0,0,,7,,,79,127
68417,note_on,1,0,0,,1,,,49,127
68417,note_on,0,0,0,,7,,,55,127
68417,note_on,0,0,0,,7,,,79,127
68553,note_on,136,0,0,,7,,,67,127
68686,note_off,133,0,0,,7,,,67,127
68688,note_on,2,0,0,,1,,,73,127
68821,note_off,133,0,0,,1,,,73,127
68821,note_off,0,0,0,,7,,,55,127
68821,note_off,0,0,0,,1,,,49,127
68822,note_off,1,0,0,,7,,,79,127
68823,note_on,1,0,0,,7,,,55,127
68823,note_on,0,0,0,,12,,,47,127
68823,note_on,0,0,0,,7,,,79,127
68959,note_on,136,0,0,,7,,,67,127
69092,note_off,133,0,0,,7,,,67,127
69094,note_on,2,0,0,,2,,,74,127
69227,note_off,133,0,0,,2,,,74,127
69227,note_off,0,0,0,,12,,,47,127
69227,note_off,0,0,0,,7,,,55,127
69228,note_off,1,0,0,,7,,,79,127
69229,note_on,1,0,0,,11,,,46,127
69229,note_on,0,0,0,,7,,,55,127
69229,note_on,0,0,0,,7,,,79,127
69365,note_on,136,0,0,,7,,,67,127
69498,note_off,133,0,0,,7,,,67,127
69500,note_on,2,0,0,,4,,,76,127
69633,note_off,133,0,0,,4,,,76,127
69633,note_off,0,0,0,,7,,,55,127
69633,note_off,0,0,0,,11,,,46,127
69634,note_off,1,0,0,,7,,,79,127
69635,note_on,1,0,0,,7,,,55,127
69635,note_on,0,0,0,,12,,,47,127
69635,note_on,0,0,0,,7,,,79,127
69771,note_on,136,0,0,,7,,,67,127
69904,note_off,133,0,0,,7,,,67,127
69906,note_on,2,0,0,,2,,,74,127
70039,note_off,133,0,0,,2,,,74,127
70039,note_off,0,0,0,,12,,,47,127
70039,note_off,0,0,0,,7,,,55,127
70040,note_off,1,0,0,,7,,,79,127
70041,note_on,1,0,0,,1,,,49,127
70041,note_on,0,0,0,,7,,,55,127
70041,note_on,0,0,0,,7,,,79,127
70177,note_on,136,0,0,,7,,,67,127
70310,note_off,133,0,0,,7,,,67,127
70312,note_on,2,0,0,,1,,,73,127
70445,note_off,133,0,0,,1,,,73,127
70445,note_off,0,0,0,,7,,,55,127
70445,note_off,0,0,0,,1,,,49,127
70446,note_off,1,0,0,,7,,,79,127
70447,note_on,1,0,0,,2,,,50,127
70447,note_on,0,0,0,,7,,,55,127
70447,note_on,0,0,0,,7,,,79,127
70583,note_on,136,0,0,,7,,,67,127
70716,note_off,133,0,0,,7,,,67,127
70718,note_on,2,0,0,,12,,,71,127
70851,note_off,133,0,0,,12,,,71,127
70851,note_off,0,0,0,,7,,,55,127
70851,note_off,0,0,0,,2,,,50,127
70852,note_off,1,0,0,,7,,,79,127
70853,note_on,1,0,0,,4,,,52,127
70853,note_on,0,0,0,,7,,,55,127
70853,note_on,0,0,0,,7,,,79,127
70989,note_on,136,0,0,,7,,,67,127
71122,note_off,133,0,0,,7,,,79,127
71123,note_off,1,0,0,,7,,,67,127
71125,note_on,2,0,0,,11,,,70,127
71258,note_off,133,0,0,,11,,,70,127
71258,note_off,0,0,0,,7,,,55,127
71258,note_off,0,0,0,,4,,,52,127
71260,note_on,2,0,0,,2,,,50,127
71260,note_on,0,0,0,,7,,,55,127
71260,note_on,0,0,0,,7,,,79,127
71396,note_on,136,0,0,,7,,,67,127
71529,note_off,133,0,0,,7,,,79,127
71530,note_off,1,0,0,,7,,,67,127
71532,note_on,2,0,0,,12,,,71,127
71665,note_off,133,0,0,,12,,,71,127
71665,note_off,0,0,0,,7,,,55,127
71665,note_off,0,0,0,,2,,,50,127
71667,note_on,2,0,0,,7,,,55,127
71667,note_on,0,0,0,,1,,,49,127
71667,note_on,0,0,0,,7,,,79,127
71803,note_on,136,0,0,,7,,,67,127
71936,note_off,133,0,0,,7,,,79,127
71937,note_off,1,0,0,,7,,,67,127
71939,note_on,2,0,0,,1,,,73,127
72072,note_off,133,0,0,,1,,,73,127
72072,note_off,0,0,0,,1,,,49,127
72072,note_off,0,0,0,,7,,,55,127
72074,note_on,2,0,0,,7,,,55,127
72074,note_on,0,0,0,,12,,,47,127
72074,note_on,0,0,0,,7,,,79,127
72210,note_on,136,0,0,,7,,,67,127
72343,note_off,133,0,0,,7,,,79,127
72344,note_off,1,0,0,,7,,,67,127
72346,note_on,2,0,0,,2,,,74,127
72479,note_off,133,0,0,,2,,,74,127
72479,note_off,0,0,0,,12,,,47,127
72479,note_off,0,0,0,,7,,,55,127
72481,note_on,2,0,0,,11,,,46,127
72481,note_on,0,0,0,,4,,,76,127
72617,note_on,136,0,0,,7,,,79,127
72750,note_off,133,0,0,,4,,,76,127
72751,note_off,1,0,0,,7,,,79,127
72753,note_on,2,0,0,,6,,,78,127
72886,note_off,133,0,0,,6,,,78,127
72886,note_off,0,0,0,,11,,,46,127
72888,note_on,2,0,0,,6,,,42,127
72888,note_on,0,0,0,,4,,,76,127
73021,note_off,133,0,0,,4,,,76,127
73023,note_on,2,0,0,,2,,,74,127
73156,note_off,133,0,0,,2,,,74,127
73158,note_on,2,0,0,,1,,,73,127
73291,note_off,133,0,0,,1,,,73,127
73291,note_off,0,0,0,,6,,,42,127
73293,note_on,2,0,0,,12,,,47,127
73293,note_on,0,0,0,,2,,,74,127
73426,note_off,133,0,0,,2,,,74,127
73428,note_on,2,0,0,,6,,,78,127
73561,note_off,133,0,0,,6,,,78,127
73563,note_on,2,0,0,,4,,,76,127
73696,note_off,133,0,0,,4,,,76,127
73696,note_off,0,0,0,,12,,,47,127
73698,note_on,2,0,0,,2,,,50,127
73698,note_on,0,0,0,,2,,,74,127
73831,note_off,133,0,0,,2,,,74,127
73833,note_on,2,0,0,,1,,,73,127
73966,note_off,133,0,0,,1,,,73,127
73968,note_on,2,0,0,,12,,,71,127
74101,note_off,133,0,0,,12,,,71,127
74101,note_off,0,0,0,,2,,,50,127
74103,note_on,2,0,0,,4,,,52,127
74103,note_on,0,0,0,,1,,,73,127
74236,note_off,133,0,0,,1,,,73,127
74238,note_on,2,0,0,,2,,,74,127
74371,note_off,133,0,0,,2,,,74,127
74373,note_on,2,0,0,,4,,,76,127
74506,note_off,133,0,0,,4,,,76,127
74506,note_off,0,0,0,,4,,,52,127
74508,note_on,2,0,0,,7,,,55,127
74508,note_on,0,0,0,,4,,,76,127
74509,note_on,1,0,0,,2,,,74,127
74642,note_off,133,0,0,,4,,,76,127
74643,note_off,1,0,0,,2,,,74,127
74644,note_on,1,0,0,,1,,,73,127
74777,note_off,133,0,0,,1,,,73,127
74779,note_on,2,0,0,,12,,,71,127
74912,note_off,133,0,0,,12,,,71,127
74912,note_off,0,0,0,,7,,,55,127
74914,note_on,2,0,0,,6,,,54,127
74914,note_on,0,0,0,,1,,,73,127
75047,note_off,133,0,0,,1,,,73,127
75049,note_on,2,0,0,,6,,,78,127
75182,note_off,133,0,0,,6,,,78,127
75184,note_on,2,0,0,,1,,,73,127
75317,note_off,133,0,0,,1,,,73,127
75319,note_on,2,0,0,,11,,,70,127
75452,note_off,133,0,0,,11,,,70,127
75454,note_on,2,0,0,,1,,,73,127
75587,note_off,133,0,0,,1,,,73,127
75589,note_on,2,0,0,,11,,,70,127
75722,note_off,133,0,0,,11,,,70,127
75724,note_on,2,0,0,,6,,,66,127
75857,note_off,133,0,0,,6,,,66,127
75859,note_on,2,0,0,,1,,,73,127
75992,note_off,133,0,0,,1,,,73,127
75994,note_on,2,0,0,,11,,,70,127
76127,note_off,133,0,0,,11,,,70,127
76129,note_on,2,0,0,,6,,,66,127
76262,note_off,133,0,0,,6,,,66,127
76264,note_on,2,0,0,,1,,,61,127
76397,note_off,133,0,0,,1,,,61,127
76399,note_on,2,0,0,,11,,,58,127
76532,note_off,133,0,0,,11,,,58,127
76532,note_off,0,0,0,,6,,,54,127
76534,note_on,2,0,0,,6,,,42,127
77618,note_off,1084,0,0,,6,,,42,127
77686,note_on,68,0,0,,6,,,78,127
77819,note_off,133,0,0,,6,,,78,127
77821,note_on,2,0,0,,4,,,76,127
77954,note_off,133,0,0,,4,,,76,127
77956,note_on,2,0,0,,12,,,59,127
77956,note_on,0,0,0,,3,,,75,127
78089,note_off,133,0,0,,3,,,75,127
78091,note_on,2,0,0,,6,,,78,127
78224,note_off,133,0,0,,6,,,78,127
78226,note_on,2,0,0,,3,,,75,127
78359,note_off,133,0,0,,3,,,75,127
78359,note_off,0,0,0,,12,,,59,127
78361,note_on,2,0,0,,3,,,63,127
78361,note_on,0,0,0,,12,,,71,127
78494,note_off,133,0,0,,12,,,71,127
78496,note_on,2,0,0,,3,,,75,127
78629,note_off,133,0,0,,3,,,75,127
78631,note_on,2,0,0,,12,,,71,127
78764,note_off,133,0,0,,12,,,71,127
78764,note_off,0,0,0,,3,,,63,127
78766,note_on,2,0,0,,4,,,64,127
78766,note_on,0,0,0,,8,,,68,127
78899,note_off,133,0,0,,8,,,68,127
78901,note_on,2,0,0,,12,,,71,127
79034,note_off,133,0,0,,12,,,71,127
79036,note_on,2,0,0,,8,,,68,127
79169,note_off,133,0,0,,8,,,68,127
79169,note_off,0,0,0,,4,,,64,127
79171,note_on,2,0,0,,1,,,61,127
79171,note_on,0,0,0,,4,,,64,127
79304,note_off,133,0,0,,4,,,64,127
79306,note_on,2,0,0,,8,,,68,127
79439,note_off,133,0,0,,8,,,68,127
79441,note_on,2,0,0,,4,,,64,127
79574,note_off,133,0,0,,4,,,64,127
79574,note_off,0,0,0,,1,,,61,127
79576,note_on,2,0,0,,11,,,58,127
79576,note_on,0,0,0,,1,,,61,127
79709,note_off,133,0,0,,1,,,61,127
79711,note_on,2,0,0,,8,,,68,127
79844,note_off,133,0,0,,8,,,68,127
79846,note_on,2,0,0,,6,,,66,127
79979,note_off,133,0,0,,6,,,66,127
79979,note_off,0,0,0,,11,,,58,127
79981,note_on,2,0,0,,6,,,54,127
79981,note_on,0,0,0,,4,,,64,127
80114,note_off,133,0,0,,4,,,64,127
80116,note_on,2,0,0,,3,,,63,127
80249,note_off,133,0,0,,3,,,63,127
80251,note_on,2,0,0,,1,,,61,127
80384,note_off,133,0,0,,1,,,61,127
80384,note_off,0,0,0,,6,,,54,127
80386,note_on,2,0,0,,12,,,59,127
80386,note_on,0,0,0,,3,,,63,127
80519,note_off,133,0,0,,3,,,63,127
80521,note_on,2,0,0,,6,,,66,127
80654,note_off,133,0,0,,6,,,66,127
80656,note_on,2,0,0,,3,,,63,127
80787,note_off,131,0,0,,12,,,59,127
80789,note_off,2,0,0,,3,,,63,127
80791,note_on,2,0,0,,12,,,59,127
80927,note_on,136,0,0,,6,,,78,127
81060,note_off,133,0,0,,6,,,78,127
81062,note_on,2,0,0,,3,,,75,127
81195,note_off,133,0,0,,3,,,75,127
81196,note_off,1,0,0,,12,,,59,127
81197,note_on,1,0,0,,12,,,71,127
81330,note_off,133,0,0,,12,,,71,127
81332,note_on,2,0,0,,3,,,75,127
81465,note_off,133,0,0,,3,,,75,127
81467,note_on,2,0,0,,12,,,71,127
81600,note_off,133,0,0,,12,,,71,127
81602,note_on,2,0,0,,8,,,68,127
81602,note_on,0,0,0,,11,,,82,127
81668,note_off,66,0,0,,11,,,82,127
81670,note_on,2,0,0,,8,,,80,127
81736,note_off,66,0,0,,8,,,80,127
81736,note_off,0,0,0,,8,,,68,127
81738,note_on,2,0,0,,12,,,71,127
81738,note_on,0,0,0,,11,,,82,127
81804,note_off,66,0,0,,11,,,82,127
81806,note_on,2,0,0,,8,,,80,127
81872,note_off,66,0,0,,8,,,80,127
81872,note_off,0,0,0,,12,,,71,127
81874,note_on,2,0,0,,8,,,68,127
81874,note_on,0,0,0,,11,,,82,127
81940,note_off,66,0,0,,11,,,82,127
81942,note_on,2,0,0,,8,,,80,127
82008,note_off,66,0,0,,8,,,68,127
82010,note_on,2,0,0,,4,,,64,127
82143,note_off,133,0,0,,4,,,64,127
82145,note_on,2,0,0,,8,,,68,127
82213,note_off,68,0,0,,8,,,80,127
82279,note_off,66,0,0,,8,,,68,127
82281,note_on,2,0,0,,4,,,64,127
82414,note_off,133,0,0,,4,,,64,127
82416,note_on,2,0,0,,1,,,61,127
82416,note_on,0,0,0,,12,,,83,127
82482,note_off,66,0,0,,12,,,83,127
82484,note_on,2,0,0,,11,,,82,127
82550,note_off,66,0,0,,11,,,82,127
82550,note_off,0,0,0,,1,,,61,127
82552,note_on,2,0,0,,4,,,64,127
82552,note_on,0,0,0,,12,,,83,127
82618,note_off,66,0,0,,12,,,83,127
82620,note_on,2,0,0,,11,,,82,127
82686,note_off,66,0,0,,11,,,82,127
82686,note_off,0,0,0,,4,,,64,127
82688,note_on,2,0,0,,1,,,61,127
82688,note_on,0,0,0,,12,,,83,127
82754,note_off,66,0,0,,12,,,83,127
82756,note_on,2,0,0,,11,,,82,127
82822,note_off,66,0,0,,1,,,61,127
82824,note_on,2,0,0,,11,,,58,127
82957,note_off,133,0,0,,11,,,58,127
82959,note_on,2,0,0,,1,,,61,127
83027,note_off,68,0,0,,11,,,82,127
83093,note_off,66,0,0,,1,,,61,127
83095,note_on,2,0,0,,11,,,58,127
83228,note_off,133,0,0,,11,,,58,127
83230,note_on,2,0,0,,6,,,54,127
83230,note_on,0,0,0,,1,,,85,127
83296,note_off,66,0,0,,1,,,85,127
83298,note_on,2,0,0,,12,,,83,127
83364,note_off,66,0,0,,12,,,83,127
83364,note_off,0,0,0,,6,,,54,127
83366,note_on,2,0,0,,11,,,58,127
83366,note_on,0,0,0,,1,,,85,127
83432,note_off,66,0,0,,1,,,85,127
83434,note_on,2,0,0,,12,,,83,127
83500,note_off,66,0,0,,12,,,83,127
83500,note_off,0,0,0,,11,,,58,127
83502,note_on,2,0,0,,6,,,54,127
83502,note_on,0,0,0,,1,,,85,127
83568,note_off,66,0,0,,1,,,85,127
83570,note_on,2,0,0,,12,,,83,127
83636,note_off,66,0,0,,12,,,83,127
83636,note_off,0,0,0,,6,,,54,127
83638,note_on,2,0,0,,6,,,42,127
83638,note_on,0,0,0,,1,,,85,127
83771,note_off,133,0,0,,1,,,85,127
83773,note_on,2,0,0,,11,,,82,127
83906,note_off,133,0,0,,11,,,82,127
83908,note_on,2,0,0,,8,,,80,127
84041,note_off,133,0,0,,8,,,80,127
84043,note_on,2,0,0,,6,,,78,127
84176,note_off,133,0,0,,6,,,78,127
84178,note_on,2,0,0,,11,,,82,127
84311,note_off,133,0,0,,11,,,82,127
84311,note_off,0,0,0,,6,,,42,127
84313,note_on,2,0,0,,11,,,58,127
84313,note_on,0,0,0,,4,,,76,127
84446,note_off,133,0,0,,4,,,76,127
84446,note_off,0,0,0,,11,,,58,127
84448,note_on,2,0,0,,12,,,59,127
84448,note_on,0,0,0,,12,,,83,127
84448,note_on,0,0,0,,3,,,75,127
84581,note_off,133,0,0,,3,,,75,127
84583,note_on,2,0,0,,4,,,76,127
84716,note_off,133,0,0,,4,,,76,127
84716,note_off,0,0,0,,12,,,59,127
84718,note_on,2,0,0,,4,,,52,127
84718,note_on,0,0,0,,6,,,78,127
84851,note_off,133,0,0,,6,,,78,127
84851,note_off,0,0,0,,4,,,52,127
84853,note_on,2,0,0,,6,,,54,127
84853,note_on,0,0,0,,4,,,76,127
84986,note_off,133,0,0,,4,,,76,127
84988,note_on,2,0,0,,3,,,75,127
85121,note_off,133,0,0,,3,,,75,127
85123,note_off,2,0,0,,12,,,83,127
85123,note_on,0,0,0,,6,,,42,127
85123,note_on,0,0,0,,1,,,73,127
85123,note_on,0,0,0,,11,,,82,127
85256,note_off,133,0,0,,11,,,82,127
85256,note_off,0,0,0,,1,,,73,127
85256,note_off,0,0,0,,6,,,42,127
85257,note_off,1,0,0,,6,,,54,127
85258,note_on,1,0,0,,12,,,59,127
85258,note_on,0,0,0,,3,,,75,127
85391,note_off,133,0,0,,3,,,75,127
85393,note_on,2,0,0,,6,,,78,127
85526,note_off,133,0,0,,6,,,78,127
85528,note_on,2,0,0,,3,,,75,127
85661,note_off,133,0,0,,3,,,75,127
85661,note_off,0,0,0,,12,,,59,127
85663,note_on,2,0,0,,3,,,63,127
85663,note_on,0,0,0,,12,,,71,127
85796,note_off,133,0,0,,12,,,71,127
85798,note_on,2,0,0,,3,,,75,127
85931,note_off,133,0,0,,3,,,75,127
85933,note_on,2,0,0,,12,,,71,127
86066,note_off,133,0,0,,12,,,71,127
86066,note_off,0,0,0,,3,,,63,127
86068,note_on,2,0,0,,4,,,64,127
86068,note_on,0,0,0,,8,,,68,127
86201,note_off,133,0,0,,8,,,68,127
86203,note_on,2,0,0,,12,,,71,127
86336,note_off,133,0,0,,12,,,71,127
86338,note_on,2,0,0,,8,,,68,127
86471,note_off,133,0,0,,8,,,68,127
86471,note_off,0,0,0,,4,,,64,127
86473,note_on,2,0,0,,1,,,61,127
86473,note_on,0,0,0,,4,,,64,127
86606,note_off,133,0,0,,4,,,64,127
86608,note_on,2,0,0,,8,,,68,127
86741,note_off,133,0,0,,8,,,68,127
86743,note_on,2,0,0,,4,,,64,127
86876,note_off,133,0,0,,4,,,64,127
86876,note_off,0,0,0,,1,,,61,127
86878,note_on,2,0,0,,11,,,58,127
86878,note_on,0,0,0,,1,,,61,127
87011,note_off,133,0,0,,1,,,61,127
87013,note_on,2,0,0,,8,,,68,127
87146,note_off,133,0,0,,8,,,68,127
87148,note_on,2,0,0,,6,,,66,127
87281,note_off,133,0,0,,6,,,66,127
87281,note_off,0,0,0,,11,,,58,127
87283,note_on,2,0,0,,6,,,54,127
87283,note_on,0,0,0,,4,,,64,127
87416,note_off,133,0,0,,4,,,64,127
87418,note_on,2,0,0,,3,,,63,127
87551,note_off,133,0,0,,3,,,63,127
87553,note_on,2,0,0,,1,,,61,127
87686,note_off,133,0,0,,1,,,61,127
87686,note_off,0,0,0,,6,,,54,127
87688,note_on,2,0,0,,12,,,59,127
87688,note_on,0,0,0,,3,,,63,127
87821,note_off,133,0,0,,3,,,63,127
87823,note_on,2,0,0,,6,,,66,127
87956,note_off,133,0,0,,6,,,66,127
87958,note_on,2,0,0,,3,,,63,127
88089,note_off,131,0,0,,12,,,59,127
88091,note_off,2,0,0,,3,,,63,127
88093,note_on,2,0,0,,12,,,59,127
88229,note_on,136,0,0,,6,,,78,127
88362,note_off,133,0,0,,6,,,78,127
88364,note_on,2,0,0,,3,,,75,127
88497,note_off,133,0,0,,3,,,75,127
88498,note_off,1,0,0,,12,,,59,127
88499,note_on,1,0,0,,12,,,71,127
88632,note_off,133,0,0,,12,,,71,127
88634,note_on,2,0,0,,3,,,75,127
88767,note_off,133,0,0,,3,,,75,127
88769,note_on,2,0,0,,12,,,71,127
88902,note_off,133,0,0,,12,,,71,127
88904,note_on,2,0,0,,8,,,68,127
88904,note_on,0,0,0,,11,,,82,127
88970,note_off,66,0,0,,11,,,82,127
88972,note_on,2,0,0,,8,,,80,127
89038,note_off,66,0,0,,8,,,80,127
89038,note_off,0,0,0,,8,,,68,127
89040,note_on,2,0,0,,12,,,71,127
89040,note_on,0,0,0,,11,,,82,127
89106,note_off,66,0,0,,11,,,82,127
89108,note_on,2,0,0,,8,,,80,127
89174,note_off,66,0,0,,8,,,80,127
89174,note_off,0,0,0,,12,,,71,127
89176,note_on,2,0,0,,8,,,68,127
89176,note_on,0,0,0,,11,,,82,127
89242,note_off,66,0,0,,11,,,82,127
89244,note_on,2,0,0,,8,,,80,127
89310,note_off,66,0,0,,8,,,68,127
89312,note_on,2,0,0,,4,,,64,127
89445,note_off,133,0,0,,4,,,64,127
89447,note_on,2,0,0,,8,,,68,127
89580,note_off,133,0,0,,8,,,68,127
89582,note_on,2,0,0,,4,,,64,127
89649,note_off,67,0,0,,8,,,80,127
89715,note_off,66,0,0,,4,,,64,127
89717,note_on,2,0,0,,1,,,61,127
89717,note_on,0,0,0,,12,,,83,127
89783,note_off,66,0,0,,12,,,83,127
89785,note_on,2,0,0,,11,,,82,127
89851,note_off,66,0,0,,11,,,82,127
89851,note_off,0,0,0,,1,,,61,127
89853,note_on,2,0,0,,4,,,64,127
89853,note_on,0,0,0,,12,,,83,127
89919,note_off,66,0,0,,12,,,83,127
89921,note_on,2,0,0,,11,,,82,127
89987,note_off,66,0,0,,11,,,82,127
89987,note_off,0,0,0,,4,,,64,127
89989,note_on,2,0,0,,1,,,61,127
89989,note_on,0,0,0,,12,,,83,127
90055,note_off,66,0,0,,12,,,83,127
90057,note_on,2,0,0,,11,,,82,127
90123,note_off,66,0,0,,1,,,61,127
90125,note_on,2,0,0,,11,,,58,127
90258,note_off,133,0,0,,11,,,58,127
90260,note_on,2,0,0,,1,,,61,127
90393,note_off,133,0,0,,1,,,61,127
90395,note_on,2,0,0,,11,,,58,127
90462,note_off,67,0,0,,11,,,82,127
90528,note_off,66,0,0,,11,,,58,127
90530,note_on,2,0,0,,6,,,54,127
90530,note_on,0,0,0,,1,,,85,127
90596,note_off,66,0,0,,1,,,85,127
90598,note_on,2,0,0,,12,,,83,127
90664,note_off,66,0,0,,12,,,83,127
90664,note_off,0,0,0,,6,,,54,127
90666,note_on,2,0,0,,11,,,58,127
90666,note_on,0,0,0,,1,,,85,127
90732,note_off,66,0,0,,1,,,85,127
90734,note_on,2,0,0,,12,,,83,127
90800,note_off,66,0,0,,12,,,83,127
90800,note_off,0,0,0,,11,,,58,127
90802,note_on,2,0,0,,6,,,54,127
90802,note_on,0,0,0,,1,,,85,127
90868,note_off,66,0,0,,1,,,85,127
90870,note_on,2,0,0,,12,,,83,127
90936,note_off,66,0,0,,12,,,83,127
90936,note_off,0,0,0,,6,,,54,127
90938,note_on,2,0,0,,6,,,42,127
90938,note_on,0,0,0,,1,,,85,127
91071,note_off,133,0,0,,1,,,85,127
91073,note_on,2,0,0,,11,,,82,127
91206,note_off,133,0,0,,11,,,82,127
91208,note_on,2,0,0,,8,,,80,127
91341,note_off,133,0,0,,8,,,80,127
91343,note_on,2,0,0,,6,,,78,127
91479,note_on,136,0,0,,1,,,85,127
91612,note_off,133,0,0,,6,,,78,127
91613,note_off,1,0,0,,1,,,85,127
91613,note_off,0,0,0,,6,,,42,127
91615,note_on,2,0,0,,6,,,54,127
91615,note_on,0,0,0,,4,,,76,127
91748,note_off,133,0,0,,4,,,76,127
91748,note_off,0,0,0,,6,,,54,127
91750,note_on,2,0,0,,12,,,59,127
91750,note_on,0,0,0,,3,,,75,127
91750,note_on,0,0,0,,12,,,83,127
91883,note_off,133,0,0,,3,,,75,127
91885,note_on,2,0,0,,4,,,76,127
92018,note_off,133,0,0,,4,,,76,127
92018,note_off,0,0,0,,12,,,59,127
92020,note_on,2,0,0,,12,,,47,127
92020,note_on,0,0,0,,6,,,78,127
92153,note_off,133,0,0,,6,,,78,127
92153,note_off,0,0,0,,12,,,47,127
92155,note_on,2,0,0,,6,,,66,127
92155,note_on,0,0,0,,4,,,76,127
92288,note_off,133,0,0,,4,,,76,127
92290,note_on,2,0,0,,3,,,75,127
92423,note_off,133,0,0,,3,,,75,127
92423,note_off,0,0,0,,6,,,66,127
92425,note_off,2,0,0,,12,,,83,127
92425,note_on,0,0,0,,6,,,54,127
92425,note_on,0,0,0,,1,,,73,127
92425,note_on,0,0,0,,11,,,82,127
92558,note_off,133,0,0,,11,,,82,127
92558,note_off,0,0,0,,1,,,73,127
92558,note_off,0,0,0,,6,,,54,127
92560,note_on,2,0,0,,12,,,71,127
92560,note_on,0,0,0,,12,,,83,127
92560,note_on,0,0,0,,3,,,75,127
92693,note_off,133,0,0,,3,,,75,127
92695,note_on,2,0,0,,4,,,76,127
92828,note_off,133,0,0,,4,,,76,127
92828,note_off,0,0,0,,12,,,71,127
92830,note_on,2,0,0,,12,,,59,127
92830,note_on,0,0,0,,6,,,78,127
92963,note_off,133,0,0,,6,,,78,127
92963,note_off,0,0,0,,12,,,59,127
92965,note_on,2,0,0,,6,,,66,127
92965,note_on,0,0,0,,4,,,76,127
93098,note_off,133,0,0,,4,,,76,127
93100,note_on,2,0,0,,3,,,75,127
93233,note_off,133,0,0,,3,,,75,127
93233,note_off,0,0,0,,6,,,66,127
93235,note_off,2,0,0,,12,,,83,127
93235,note_on,0,0,0,,6,,,54,127
93235,note_on,0,0,0,,1,,,73,127
93235,note_on,0,0,0,,11,,,82,127
93368,note_off,133,0,0,,11,,,82,127
93368,note_off,0,0,0,,1,,,73,127
93368,note_off,0,0,0,,6,,,54,127
93370,note_on,2,0,0,,12,,,59,127
93370,note_on,0,0,0,,12,,,83,127
93370,note_on,0,0,0,,3,,,75,127
93503,note_off,133,0,0,,3,,,75,127
93505,note_on,2,0,0,,4,,,76,127
93638,note_off,133,0,0,,4,,,76,127
93638,note_off,0,0,0,,12,,,59,127
93640,note_on,2,0,0,,12,,,47,127
93640,note_on,0,0,0,,6,,,78,127
93773,note_off,133,0,0,,6,,,78,127
93773,note_off,0,0,0,,12,,,47,127
93775,note_on,2,0,0,,6,,,54,127
93775,note_on,0,0,0,,4,,,76,127
93908,note_off,133,0,0,,4,,,76,127
93910,note_on,2,0,0,,3,,,75,127
94043,note_off,133,0,0,,3,,,75,127
94043,note_off,0,0,0,,6,,,54,127
94045,note_off,2,0,0,,12,,,83,127
94045,note_on,0,0,0,,6,,,42,127
94045,note_on,0,0,0,,11,,,82,127
94045,note_on,0,0,0,,1,,,73,127
94178,note_off,133,0,0,,1,,,73,127
94178,note_off,0,0,0,,11,,,82,127
94178,note_off,0,0,0,,6,,,42,127
94181,note_on,3,0,0,,3,,,39,127
94181,note_on,0,0,0,,3,,,51,127
94181,note_on,0,0,0,,3,,,75,127
94181,note_on,0,0,0,,6,,,78,127
94314,note_off,133,0,0,,6,,,78,127
94314,note_off,0,0,0,,3,,,75,127
94320,note_on,6,0,0,,4,,,76,127
94320,note_on,0,0,0,,1,,,73,127
94449,note_off,129,0,0,,3,,,51,127
94449,note_off,0,0,0,,3,,,39,127
94453,note_off,4,0,0,,1,,,73,127
94453,note_off,0,0,0,,4,,,76,127
94459,note_on,6,0,0,,4,,,52,127
94459,note_on,0,0,0,,4,,,40,127
94459,note_on,0,0,0,,3,,,75,127
94459,note_on,0,0,0,,12,,,71,127
94592,note_off,133,0,0,,12,,,71,127
94592,note_off,0,0,0,,3,,,75,127
94592,note_off,0,0,0,,4,,,40,127
94592,note_off,0,0,0,,4,,,52,127
94598,note_on,6,0,0,,6,,,54,127
94598,note_on,0,0,0,,6,,,42,127
94598,note_on,0,0,0,,4,,,76,127
94598,note_on,0,0,0,,1,,,73,127
94731,note_off,133,0,0,,1,,,73,127
94731,note_off,0,0,0,,4,,,76,127
94737,note_on,6,0,0,,12,,,71,127
94737,note_on,0,0,0,,3,,,75,127
94866,note_off,129,0,0,,6,,,42,127
94866,note_off,0,0,0,,6,,,54,127
94870,note_off,4,0,0,,3,,,75,127
94870,note_off,0,0,0,,12,,,71,127
94876,note_on,6,0,0,,4,,,52,127
94876,note_on,0,0,0,,4,,,40,127
94876,note_on,0,0,0,,11,,,70,127
94876,note_on,0,0,0,,1,,,73,127
95009,note_off,133,0,0,,1,,,73,127
95009,note_off,0,0,0,,11,,,70,127
95009,note_off,0,0,0,,4,,,40,127
95009,note_off,0,0,0,,4,,,52,127
95015,note_on,6,0,0,,3,,,51,127
95015,note_on,0,0,0,,3,,,39,127
95015,note_on,0,0,0,,3,,,75,127
95015,note_on,0,0,0,,6,,,78,127
95148,note_off,133,0,0,,6,,,78,127
95148,note_off,0,0,0,,3,,,75,127
95154,note_on,6,0,0,,1,,,73,127
95154,note_on,0,0,0,,4,,,76,127
95283,note_off,129,0,0,,3,,,39,127
95283,note_off,0,0,0,,3,,,51,127
95287,note_off,4,0,0,,4,,,76,127
95287,note_off,0,0,0,,1,,,73,127
95293,note_on,6,0,0,,4,,,40,127
95293,note_on,0,0,0,,4,,,52,127
95293,note_on,0,0,0,,3,,,75,127
95293,note_on,0,0,0,,12,,,71,127
95426,note_off,133,0,0,,12,,,71,127
95426,note_off,0,0,0,,3,,,75,127
95426,note_off,0,0,0,,4,,,52,127
95426,note_off,0,0,0,,4,,,40,127
95432,note_on,6,0,0,,6,,,54,127
95432,note_on,0,0,0,,6,,,42,127
95432,note_on,0,0,0,,1,,,73,127
95432,note_on,0,0,0,,4,,,76,127
95565,note_off,133,0,0,,4,,,76,127
95565,note_off,0,0,0,,1,,,73,127
95571,note_on,6,0,0,,3,,,75,127
95571,note_on,0,0,0,,12,,,71,127
95700,note_off,129,0,0,,6,,,42,127
95700,note_off,0,0,0,,6,,,54,127
95704,note_off,4,0,0,,12,,,71,127
95704,note_off,0,0,0,,3,,,75,127
95710,note_on,6,0,0,,4,,,40,127
95710,note_on,0,0,0,,4,,,52,127
95710,note_on,0,0,0,,1,,,73,127
95710,note_on,0,0,0,,11,,,70,127
95843,note_off,133,0,0,,11,,,70,127
95843,note_off,0,0,0,,1,,,73,127
95843,note_off,0,0,0,,4,,,52,127
95843,note_off,0,0,0,,4,,,40,127
95851,note_on,8,0,0,,3,,,75,127
95851,note_on,0,0,0,,6,,,78,127
95851,note_on,0,0,0,,3,,,51,127
95985,note_off,134,0,0,,6,,,78,127
95985,note_off,0,0,0,,3,,,75,127
95993,note_on,8,0,0,,1,,,73,127
95993,note_on,0,0,0,,4,,,76,127
96122,note_off,129,0,0,,3,,,51,127
96127,note_off,5,0,0,,4,,,76,127
96127,note_off,0,0,0,,1,,,73,127
96135,note_on,8,0,0,,3,,,75,127
96135,note_on,0,0,0,,12,,,71,127
96135,note_on,0,0,0,,4,,,52,127
96269,note_off,134,0,0,,4,,,52,127
96269,note_off,0,0,0,,12,,,71,127
96269,note_off,0,0,0,,3,,,75,127
96277,note_on,8,0,0,,3,,,75,127
96277,note_on,0,0,0,,6,,,54,127
96343,note_off,66,0,0,,3,,,75,127
96349,note_on,6,0,0,,1,,,73,127
96415,note_off,66,0,0,,1,,,73,127
96421,note_on,6,0,0,,12,,,71,127
96555,note_off,134,0,0,,12,,,71,127
96563,note_on,8,0,0,,11,,,70,127
96563,note_on,0,0,0,,6,,,42,127
96687,note_off,124,0,0,,6,,,54,127
96697,note_off,10,0,0,,6,,,42,127
96697,note_off,0,0,0,,11,,,70,127
96729,note_on,32,0,0,,11,,,70,127
96729,note_on,0,0,0,,12,,,47,127
96729,note_on,0,0,0,,12,,,59,127
97289,note_on,560,0,0,,12,,,71,127
97312,note_off,23,0,0,,11,,,70,127
98983,note_off,1671,0,0,,12,,,71,127
98983,note_off,0,0,0,,12,,,59,127
98983,note_off,0,0,0,,12,,,47,127
104448,end_of_track,5465,1,0,,,,,,
