tick,type,time,meta,track,program,channel,pitch,tempo,note,velocity
0,copyright,0,1,0,,,,,,
0,program_change,0,0,0,6,0,,,,
0,pitchwheel,0,0,0,,0,0,,,
0,program_change,0,0,0,6,1,,,,
0,pitchwheel,0,0,0,,1,-590,,,
0,program_change,0,0,0,6,2,,,,
0,pitchwheel,0,0,0,,2,-272,,,
0,program_change,0,0,0,6,3,,,,
0,pitchwheel,0,0,0,,3,-353,,,
0,program_change,0,0,0,6,4,,,,
0,pitchwheel,0,0,0,,4,-560,,,
0,program_change,0,0,0,6,5,,,,
0,pitchwheel,0,0,0,,5,-80,,,
0,program_change,0,0,0,6,6,,,,
0,pitchwheel,0,0,0,,6,-625,,,
0,program_change,0,0,0,6,7,,,,
0,pitchwheel,0,0,0,,7,-130,,,
0,program_change,0,0,0,6,8,,,,
0,pitchwheel,0,0,0,,8,-512,,,
0,program_change,0,0,0,6,10,,,,
0,pitchwheel,0,0,0,,10,-464,,,
0,program_change,0,0,0,6,11,,,,
0,pitchwheel,0,0,0,,11,-208,,,
0,program_change,0,0,0,6,12,,,,
0,pitchwheel,0,0,0,,12,-553,,,
0,set_tempo,0,1,0,,,,500000,,
169,note_on,169,0,0,,8,,,80,127
337,note_off,168,0,0,,8,,,80,127
339,note_on,2,0,0,,6,,,78,127
507,note_off,168,0,0,,6,,,78,127
509,note_on,2,0,0,,4,,,76,127
677,note_off,168,0,0,,4,,,76,127
679,note_on,2,0,0,,3,,,75,127
847,note_off,168,0,0,,3,,,75,127
849,note_on,2,0,0,,1,,,73,127
1017,note_off,168,0,0,,1,,,73,127
1019,note_on,2,0,0,,0,,,72,127
1187,note_off,168,0,0,,0,,,72,127
1189,note_on,2,0,0,,1,,,73,127
1358,note_on,169,0,0,,8,,,68,127
1506,note_off,148,0,0,,1,,,73,127
1525,note_off,19,0,0,,8,,,68,127
1527,note_on,2,0,0,,1,,,73,127
1695,note_off,168,0,0,,1,,,73,127
1697,note_on,2,0,0,,3,,,75,127
1865,note_off,168,0,0,,3,,,75,127
1867,note_on,2,0,0,,4,,,76,127
2202,note_off,335,0,0,,4,,,76,127
2206,note_on,4,0,0,,3,,,75,127
2206,note_on,0,0,0,,8,,,68,127
2374,note_off,168,0,0,,8,,,68,127
2376,note_on,2,0,0,,6,,,66,127
2544,note_off,168,0,0,,6,,,66,127
2546,note_on,2,0,0,,4,,,64,127
2631,note_off,85,0,0,,3,,,75,127
2714,note_off,83,0,0,,4,,,64,127
2716,note_on,2,0,0,,3,,,63,127
2884,note_off,168,0,0,,3,,,63,127
2886,note_on,2,0,0,,8,,,68,127
2886,note_on,0,0,0,,1,,,61,127
3054,note_off,168,0,0,,1,,,61,127
3056,note_on,2,0,0,,0,,,60,127
3222,note_off,166,0,0,,8,,,68,127
3224,note_off,2,0,0,,0,,,60,127
3226,note_on,2,0,0,,4,,,64,127
3226,note_on,0,0,0,,1,,,61,127
3394,note_off,168,0,0,,1,,,61,127
3396,note_on,2,0,0,,8,,,56,127
3562,note_off,166,0,0,,4,,,64,127
3564,note_off,2,0,0,,8,,,56,127
3566,note_on,2,0,0,,8,,,68,127
3566,note_on,0,0,0,,1,,,61,127
3734,note_off,168,0,0,,1,,,61,127
3736,note_on,2,0,0,,3,,,63,127
3902,note_off,166,0,0,,8,,,68,127
3904,note_off,2,0,0,,3,,,63,127
3906,note_on,2,0,0,,1,,,73,127
3906,note_on,0,0,0,,4,,,64,127
4074,note_off,168,0,0,,1,,,73,127
4076,note_on,2,0,0,,4,,,76,127
4242,note_off,166,0,0,,4,,,64,127
4244,note_off,2,0,0,,4,,,76,127
4246,note_on,2,0,0,,3,,,75,127
4246,note_on,0,0,0,,10,,,81,127
4246,note_on,0,0,0,,6,,,66,127
4414,note_off,168,0,0,,3,,,75,127
4416,note_on,2,0,0,,1,,,73,127
4582,note_off,166,0,0,,6,,,66,127
4584,note_off,2,0,0,,1,,,73,127
4586,note_on,2,0,0,,0,,,72,127
4586,note_on,0,0,0,,8,,,68,127
4754,note_off,168,0,0,,10,,,81,127
4756,note_on,2,0,0,,8,,,80,127
4922,note_off,166,0,0,,8,,,68,127
4922,note_off,0,0,0,,0,,,72,127
4924,note_off,2,0,0,,8,,,80,127
4926,note_on,2,0,0,,1,,,73,127
4926,note_on,0,0,0,,4,,,64,127
4926,note_on,0,0,0,,8,,,68,127
5095,note_on,169,0,0,,4,,,76,127
5261,note_off,166,0,0,,8,,,68,127
5261,note_off,0,0,0,,4,,,64,127
5263,note_off,2,0,0,,4,,,76,127
5265,note_on,2,0,0,,6,,,78,127
5265,note_on,0,0,0,,6,,,66,127
5265,note_on,0,0,0,,3,,,63,127
5433,note_off,168,0,0,,6,,,78,127
5435,note_on,2,0,0,,10,,,81,127
5597,note_off,162,0,0,,1,,,73,127
5602,note_off,5,0,0,,10,,,81,127
5604,note_on,2,0,0,,8,,,80,127
5604,note_on,0,0,0,,0,,,72,127
5772,note_off,168,0,0,,8,,,80,127
5774,note_on,2,0,0,,6,,,78,127
5940,note_off,166,0,0,,0,,,72,127
5940,note_off,0,0,0,,3,,,63,127
5940,note_off,0,0,0,,6,,,66,127
5942,note_off,2,0,0,,6,,,78,127
5944,note_on,2,0,0,,4,,,76,127
5944,note_on,0,0,0,,1,,,73,127
5944,note_on,0,0,0,,1,,,61,127
6112,note_off,168,0,0,,4,,,76,127
6114,note_on,2,0,0,,3,,,75,127
6280,note_off,166,0,0,,1,,,73,127
6282,note_off,2,0,0,,3,,,75,127
6284,note_on,2,0,0,,1,,,73,127
6450,note_off,166,0,0,,1,,,61,127
6454,note_on,4,0,0,,3,,,63,127
6622,note_off,168,0,0,,3,,,63,127
6624,note_on,2,0,0,,4,,,64,127
6709,note_off,85,0,0,,1,,,73,127
6792,note_off,83,0,0,,4,,,64,127
6794,note_on,2,0,0,,8,,,80,127
6794,note_on,0,0,0,,1,,,61,127
6962,note_off,168,0,0,,1,,,61,127
6962,note_off,0,0,0,,8,,,80,127
6964,note_on,2,0,0,,10,,,81,127
6964,note_on,0,0,0,,6,,,66,127
7132,note_off,168,0,0,,6,,,66,127
7132,note_off,0,0,0,,10,,,81,127
7134,note_on,2,0,0,,1,,,73,127
7134,note_on,0,0,0,,10,,,69,127
7302,note_off,168,0,0,,10,,,69,127
7302,note_off,0,0,0,,1,,,73,127
7304,note_on,2,0,0,,0,,,72,127
7304,note_on,0,0,0,,8,,,68,127
7472,note_off,168,0,0,,0,,,72,127
7474,note_on,2,0,0,,1,,,73,127
7642,note_off,168,0,0,,1,,,73,127
7644,note_on,2,0,0,,3,,,75,127
7810,note_off,166,0,0,,8,,,68,127
7814,note_on,4,0,0,,6,,,66,127
7982,note_off,168,0,0,,6,,,66,127
7984,note_on,2,0,0,,4,,,64,127
8150,note_off,166,0,0,,3,,,75,127
8152,note_off,2,0,0,,4,,,64,127
8154,note_on,2,0,0,,8,,,80,127
8154,note_on,0,0,0,,1,,,61,127
8322,note_off,168,0,0,,1,,,61,127
8322,note_off,0,0,0,,8,,,80,127
8324,note_on,2,0,0,,10,,,81,127
8324,note_on,0,0,0,,6,,,66,127
8492,note_off,168,0,0,,6,,,66,127
8492,note_off,0,0,0,,10,,,81,127
8494,note_on,2,0,0,,1,,,73,127
8494,note_on,0,0,0,,10,,,69,127
8662,note_off,168,0,0,,10,,,69,127
8662,note_off,0,0,0,,1,,,73,127
8664,note_on,2,0,0,,0,,,72,127
8664,note_on,0,0,0,,8,,,68,127
8832,note_off,168,0,0,,0,,,72,127
8834,note_on,2,0,0,,1,,,73,127
9002,note_off,168,0,0,,1,,,73,127
9004,note_on,2,0,0,,3,,,75,127
9170,note_off,166,0,0,,8,,,68,127
9174,note_on,4,0,0,,6,,,66,127
9342,note_off,168,0,0,,6,,,66,127
9344,note_on,2,0,0,,4,,,64,127
9393,note_off,49,0,0,,3,,,75,127
9511,note_off,118,0,0,,4,,,64,127
9513,note_on,2,0,0,,6,,,78,127
9513,note_on,0,0,0,,3,,,63,127
9681,note_off,168,0,0,,3,,,63,127
9681,note_off,0,0,0,,6,,,78,127
9683,note_on,2,0,0,,8,,,80,127
9683,note_on,0,0,0,,1,,,61,127
9851,note_off,168,0,0,,1,,,61,127
9853,note_on,2,0,0,,12,,,71,127
9853,note_on,0,0,0,,4,,,64,127
10019,note_off,166,0,0,,8,,,80,127
10021,note_off,2,0,0,,4,,,64,127
10021,note_off,0,0,0,,12,,,71,127
10023,note_on,2,0,0,,10,,,69,127
10023,note_on,0,0,0,,6,,,66,127
10191,note_off,168,0,0,,6,,,66,127
10193,note_on,2,0,0,,4,,,76,127
10193,note_on,0,0,0,,4,,,64,127
10359,note_off,166,0,0,,10,,,69,127
10361,note_off,2,0,0,,4,,,64,127
10361,note_off,0,0,0,,4,,,76,127
10363,note_on,2,0,0,,6,,,78,127
10363,note_on,0,0,0,,3,,,63,127
10531,note_off,168,0,0,,3,,,63,127
10533,note_on,2,0,0,,10,,,69,127
10533,note_on,0,0,0,,12,,,59,127
10699,note_off,166,0,0,,6,,,78,127
10701,note_off,2,0,0,,12,,,59,127
10701,note_off,0,0,0,,10,,,69,127
10703,note_on,2,0,0,,8,,,68,127
10703,note_on,0,0,0,,4,,,64,127
10871,note_off,168,0,0,,4,,,64,127
10871,note_off,0,0,0,,8,,,68,127
10873,note_on,2,0,0,,10,,,69,127
10873,note_on,0,0,0,,6,,,66,127
11041,note_off,168,0,0,,6,,,66,127
11041,note_off,0,0,0,,10,,,69,127
11043,note_on,2,0,0,,12,,,71,127
11043,note_on,0,0,0,,8,,,68,127
11211,note_off,168,0,0,,8,,,68,127
11211,note_off,0,0,0,,12,,,71,127
11213,note_on,2,0,0,,1,,,73,127
11213,note_on,0,0,0,,10,,,69,127
11381,note_off,168,0,0,,10,,,69,127
11381,note_off,0,0,0,,1,,,73,127
11383,note_on,2,0,0,,3,,,75,127
11383,note_on,0,0,0,,12,,,71,127
11551,note_off,168,0,0,,3,,,75,127
11553,note_on,2,0,0,,4,,,76,127
11721,note_off,168,0,0,,4,,,76,127
11723,note_on,2,0,0,,6,,,78,127
11889,note_off,166,0,0,,12,,,71,127
11893,note_on,4,0,0,,10,,,69,127
12061,note_off,168,0,0,,10,,,69,127
12063,note_on,2,0,0,,8,,,68,127
12148,note_off,85,0,0,,6,,,78,127
12231,note_off,83,0,0,,8,,,68,127
12233,note_on,2,0,0,,12,,,83,127
12233,note_on,0,0,0,,4,,,64,127
12401,note_off,168,0,0,,4,,,64,127
12401,note_off,0,0,0,,12,,,83,127
12403,note_on,2,0,0,,1,,,85,127
12403,note_on,0,0,0,,10,,,69,127
12571,note_off,168,0,0,,10,,,69,127
12573,note_on,2,0,0,,4,,,76,127
12573,note_on,0,0,0,,1,,,73,127
12658,note_off,85,0,0,,1,,,85,127
12741,note_off,83,0,0,,1,,,73,127
12741,note_off,0,0,0,,4,,,76,127
12743,note_on,2,0,0,,3,,,75,127
12743,note_on,0,0,0,,12,,,71,127
12911,note_off,168,0,0,,3,,,75,127
12913,note_on,2,0,0,,4,,,76,127
13081,note_off,168,0,0,,4,,,76,127
13083,note_on,2,0,0,,6,,,78,127
13249,note_off,166,0,0,,12,,,71,127
13253,note_on,4,0,0,,10,,,69,127
13421,note_off,168,0,0,,10,,,69,127
13423,note_on,2,0,0,,8,,,68,127
13472,note_off,49,0,0,,6,,,78,127
13590,note_off,118,0,0,,8,,,68,127
13592,note_on,2,0,0,,12,,,83,127
13592,note_on,0,0,0,,4,,,64,127
13760,note_off,168,0,0,,4,,,64,127
13760,note_off,0,0,0,,12,,,83,127
13762,note_on,2,0,0,,1,,,85,127
13762,note_on,0,0,0,,10,,,69,127
13930,note_off,168,0,0,,10,,,69,127
13932,note_on,2,0,0,,4,,,76,127
13932,note_on,0,0,0,,1,,,73,127
14017,note_off,85,0,0,,1,,,85,127
14100,note_off,83,0,0,,1,,,73,127
14100,note_off,0,0,0,,4,,,76,127
14102,note_on,2,0,0,,3,,,75,127
14102,note_on,0,0,0,,12,,,71,127
14270,note_off,168,0,0,,3,,,75,127
14272,note_on,2,0,0,,11,,,82,127
14440,note_off,168,0,0,,11,,,82,127
14442,note_on,2,0,0,,12,,,83,127
14442,note_on,0,0,0,,12,,,59,127
14610,note_off,168,0,0,,12,,,83,127
14612,note_on,2,0,0,,6,,,78,127
14774,note_off,162,0,0,,12,,,71,127
14778,note_off,4,0,0,,12,,,59,127
14780,note_off,2,0,0,,6,,,78,127
14782,note_on,2,0,0,,8,,,80,127
14782,note_on,0,0,0,,12,,,59,127
14950,note_off,168,0,0,,8,,,80,127
14952,note_on,2,0,0,,3,,,75,127
15118,note_off,166,0,0,,12,,,59,127
15120,note_off,2,0,0,,3,,,75,127
15122,note_on,2,0,0,,4,,,76,127
15122,note_on,0,0,0,,12,,,59,127
15290,note_off,168,0,0,,4,,,76,127
15292,note_on,2,0,0,,11,,,70,127
15458,note_off,166,0,0,,12,,,59,127
15460,note_off,2,0,0,,11,,,70,127
15462,note_on,2,0,0,,12,,,71,127
15462,note_on,0,0,0,,12,,,59,127
15630,note_off,168,0,0,,12,,,71,127
15632,note_on,2,0,0,,6,,,66,127
15800,note_off,168,0,0,,6,,,66,127
15802,note_on,2,0,0,,8,,,68,127
15802,note_on,0,0,0,,12,,,47,127
15970,note_off,168,0,0,,8,,,68,127
15972,note_on,2,0,0,,3,,,63,127
16134,note_off,162,0,0,,12,,,59,127
16138,note_off,4,0,0,,12,,,47,127
16140,note_off,2,0,0,,3,,,63,127
16142,note_on,2,0,0,,4,,,64,127
16142,note_on,0,0,0,,12,,,47,127
16310,note_off,168,0,0,,4,,,64,127
16312,note_on,2,0,0,,12,,,59,127
16478,note_off,166,0,0,,12,,,47,127
16480,note_off,2,0,0,,12,,,59,127
16482,note_on,2,0,0,,1,,,61,127
16482,note_on,0,0,0,,12,,,47,127
16650,note_off,168,0,0,,1,,,61,127
16652,note_on,2,0,0,,11,,,58,127
16818,note_off,166,0,0,,12,,,47,127
16820,note_off,2,0,0,,11,,,58,127
16822,note_on,2,0,0,,12,,,59,127
16822,note_on,0,0,0,,12,,,47,127
16990,note_off,168,0,0,,12,,,47,127
16992,note_on,2,0,0,,6,,,54,127
17158,note_off,166,0,0,,12,,,59,127
17160,note_off,2,0,0,,6,,,54,127
17162,note_on,2,0,0,,12,,,71,127
17162,note_on,0,0,0,,12,,,83,127
17162,note_on,0,0,0,,12,,,59,127
17330,note_off,168,0,0,,12,,,59,127
17332,note_on,2,0,0,,10,,,57,127
17500,note_off,168,0,0,,10,,,57,127
17502,note_on,2,0,0,,8,,,56,127
17668,note_off,166,0,0,,12,,,83,127
17670,note_off,2,0,0,,8,,,56,127
17672,note_on,2,0,0,,10,,,81,127
17672,note_on,0,0,0,,12,,,59,127
17834,note_off,162,0,0,,12,,,71,127
17839,note_off,5,0,0,,12,,,59,127
17839,note_off,0,0,0,,10,,,81,127
17841,note_on,2,0,0,,3,,,75,127
17841,note_on,0,0,0,,10,,,81,127
17841,note_on,0,0,0,,6,,,54,127
18009,note_off,168,0,0,,6,,,54,127
18009,note_off,0,0,0,,10,,,81,127
18009,note_off,0,0,0,,3,,,75,127
18011,note_on,2,0,0,,4,,,76,127
18011,note_on,0,0,0,,8,,,80,127
18011,note_on,0,0,0,,4,,,52,127
18179,note_off,168,0,0,,4,,,52,127
18179,note_off,0,0,0,,8,,,80,127
18179,note_off,0,0,0,,4,,,76,127
18181,note_on,2,0,0,,3,,,75,127
18181,note_on,0,0,0,,6,,,78,127
18181,note_on,0,0,0,,12,,,47,127
18349,note_off,168,0,0,,12,,,47,127
18351,note_on,2,0,0,,6,,,54,127
18517,note_off,166,0,0,,6,,,78,127
18517,note_off,0,0,0,,3,,,75,127
18519,note_off,2,0,0,,6,,,54,127
18521,note_on,2,0,0,,12,,,71,127
18521,note_on,0,0,0,,12,,,83,127
18521,note_on,0,0,0,,12,,,59,127
18689,note_off,168,0,0,,12,,,59,127
18691,note_on,2,0,0,,10,,,57,127
18859,note_off,168,0,0,,10,,,57,127
18861,note_on,2,0,0,,8,,,56,127
19027,note_off,166,0,0,,12,,,83,127
19029,note_off,2,0,0,,8,,,56,127
19031,note_on,2,0,0,,12,,,83,127
19031,note_on,0,0,0,,12,,,59,127
19193,note_off,162,0,0,,12,,,71,127
19198,note_off,5,0,0,,12,,,59,127
19198,note_off,0,0,0,,12,,,83,127
19200,note_on,2,0,0,,3,,,75,127
19200,note_on,0,0,0,,10,,,81,127
19200,note_on,0,0,0,,6,,,54,127
19368,note_off,168,0,0,,6,,,54,127
19368,note_off,0,0,0,,10,,,81,127
19368,note_off,0,0,0,,3,,,75,127
19370,note_on,2,0,0,,4,,,76,127
19370,note_on,0,0,0,,8,,,80,127
19370,note_on,0,0,0,,4,,,52,127
19538,note_off,168,0,0,,4,,,52,127
19538,note_off,0,0,0,,8,,,80,127
19538,note_off,0,0,0,,4,,,76,127
19540,note_on,2,0,0,,12,,,71,127
19540,note_on,0,0,0,,6,,,78,127
19540,note_on,0,0,0,,3,,,75,127
19540,note_on,0,0,0,,12,,,47,127
19708,note_off,168,0,0,,6,,,78,127
19710,note_on,2,0,0,,10,,,81,127
19795,note_off,85,0,0,,3,,,75,127
19876,note_off,81,0,0,,12,,,47,127
19878,note_off,2,0,0,,10,,,81,127
19880,note_on,2,0,0,,8,,,80,127
19880,note_on,0,0,0,,4,,,52,127
20048,note_off,168,0,0,,4,,,52,127
20048,note_off,0,0,0,,8,,,80,127
20050,note_on,2,0,0,,6,,,78,127
20050,note_on,0,0,0,,12,,,47,127
20212,note_off,162,0,0,,12,,,71,127
20217,note_off,5,0,0,,12,,,47,127
20217,note_off,0,0,0,,6,,,78,127
20219,note_on,2,0,0,,12,,,83,127
20219,note_on,0,0,0,,8,,,80,127
20219,note_on,0,0,0,,12,,,59,127
20387,note_off,168,0,0,,8,,,80,127
20387,note_off,0,0,0,,12,,,83,127
20389,note_on,2,0,0,,6,,,78,127
20389,note_on,0,0,0,,10,,,81,127
20557,note_off,168,0,0,,10,,,81,127
20557,note_off,0,0,0,,6,,,78,127
20559,note_on,2,0,0,,8,,,80,127
20559,note_on,0,0,0,,4,,,76,127
20559,note_on,0,0,0,,12,,,47,127
20727,note_off,168,0,0,,4,,,76,127
20727,note_off,0,0,0,,8,,,80,127
20729,note_on,2,0,0,,6,,,78,127
20729,note_on,0,0,0,,3,,,75,127
20891,note_off,162,0,0,,12,,,59,127
20895,note_off,4,0,0,,12,,,47,127
20897,note_off,2,0,0,,3,,,75,127
20897,note_off,0,0,0,,6,,,78,127
20899,note_on,2,0,0,,8,,,80,127
20899,note_on,0,0,0,,4,,,76,127
21067,note_off,168,0,0,,8,,,80,127
21069,note_on,2,0,0,,10,,,81,127
21237,note_off,168,0,0,,10,,,81,127
21239,note_on,2,0,0,,12,,,83,127
21239,note_on,0,0,0,,4,,,52,127
21239,note_on,0,0,0,,4,,,40,127
21407,note_off,168,0,0,,12,,,83,127
21409,note_on,2,0,0,,8,,,80,127
21575,note_off,166,0,0,,4,,,40,127
21575,note_off,0,0,0,,4,,,52,127
21577,note_off,2,0,0,,8,,,80,127
21579,note_on,2,0,0,,6,,,78,127
21579,note_on,0,0,0,,12,,,35,127
21579,note_on,0,0,0,,12,,,47,127
21747,note_off,168,0,0,,6,,,78,127
21749,note_off,2,0,0,,4,,,76,127
21749,note_on,0,0,0,,4,,,76,127
21917,note_off,168,0,0,,4,,,76,127
21919,note_on,2,0,0,,3,,,75,127
21919,note_on,0,0,0,,6,,,78,127
22087,note_off,168,0,0,,6,,,78,127
22087,note_off,0,0,0,,3,,,75,127
22089,note_on,2,0,0,,5,,,77,127
22089,note_on,0,0,0,,8,,,80,127
22251,note_off,162,0,0,,12,,,47,127
22251,note_off,0,0,0,,12,,,35,127
22256,note_off,5,0,0,,8,,,80,127
22256,note_off,0,0,0,,5,,,77,127
22258,note_on,2,0,0,,10,,,81,127
22258,note_on,0,0,0,,6,,,78,127
22426,note_off,168,0,0,,10,,,81,127
22428,note_on,2,0,0,,12,,,83,127
22596,note_off,168,0,0,,12,,,83,127
22598,note_on,2,0,0,,1,,,85,127
22598,note_on,0,0,0,,6,,,42,127
22598,note_on,0,0,0,,6,,,54,127
22766,note_off,168,0,0,,1,,,85,127
22768,note_on,2,0,0,,10,,,81,127
22934,note_off,166,0,0,,6,,,54,127
22934,note_off,0,0,0,,6,,,42,127
22936,note_off,2,0,0,,10,,,81,127
22938,note_on,2,0,0,,8,,,80,127
22938,note_on,0,0,0,,1,,,37,127
22938,note_on,0,0,0,,1,,,49,127
23106,note_off,168,0,0,,8,,,80,127
23108,note_off,2,0,0,,6,,,78,127
23108,note_on,0,0,0,,6,,,78,127
23276,note_off,168,0,0,,6,,,78,127
23278,note_on,2,0,0,,5,,,77,127
23278,note_on,0,0,0,,8,,,80,127
23446,note_off,168,0,0,,8,,,80,127
23446,note_off,0,0,0,,5,,,77,127
23448,note_on,2,0,0,,7,,,79,127
23448,note_on,0,0,0,,11,,,82,127
23610,note_off,162,0,0,,1,,,49,127
23610,note_off,0,0,0,,1,,,37,127
23615,note_off,5,0,0,,11,,,82,127
23615,note_off,0,0,0,,7,,,79,127
23617,note_on,2,0,0,,3,,,75,127
23617,note_on,0,0,0,,12,,,83,127
23785,note_off,168,0,0,,12,,,83,127
23787,note_on,2,0,0,,11,,,82,127
23955,note_off,168,0,0,,11,,,82,127
23957,note_on,2,0,0,,12,,,83,127
23957,note_on,0,0,0,,8,,,44,127
23957,note_on,0,0,0,,8,,,56,127
24125,note_off,168,0,0,,12,,,83,127
24127,note_on,2,0,0,,8,,,80,127
24289,note_off,162,0,0,,3,,,75,127
24293,note_off,4,0,0,,8,,,56,127
24293,note_off,0,0,0,,8,,,44,127
24295,note_off,2,0,0,,8,,,80,127
24297,note_on,2,0,0,,7,,,79,127
24297,note_on,0,0,0,,3,,,39,127
24297,note_on,0,0,0,,3,,,51,127
24465,note_off,168,0,0,,7,,,79,127
24467,note_on,2,0,0,,8,,,80,127
24633,note_off,166,0,0,,3,,,51,127
24633,note_off,0,0,0,,3,,,39,127
24635,note_off,2,0,0,,8,,,80,127
24637,note_on,2,0,0,,11,,,82,127
24637,note_on,0,0,0,,3,,,63,127
24805,note_off,168,0,0,,11,,,82,127
24807,note_on,2,0,0,,3,,,75,127
24973,note_off,166,0,0,,3,,,63,127
24975,note_off,2,0,0,,3,,,75,127
24977,note_on,2,0,0,,1,,,73,127
24977,note_on,0,0,0,,1,,,61,127
24977,note_on,0,0,0,,4,,,64,127
25145,note_off,168,0,0,,4,,,64,127
25145,note_off,0,0,0,,1,,,61,127
25145,note_off,0,0,0,,1,,,73,127
25147,note_on,2,0,0,,12,,,71,127
25147,note_on,0,0,0,,3,,,63,127
25315,note_off,168,0,0,,3,,,63,127
25315,note_off,0,0,0,,12,,,71,127
25317,note_on,2,0,0,,11,,,70,127
25317,note_on,0,0,0,,1,,,61,127
25485,note_off,168,0,0,,1,,,61,127
25485,note_off,0,0,0,,11,,,70,127
25487,note_on,2,0,0,,8,,,68,127
25487,note_on,0,0,0,,4,,,64,127
25655,note_off,168,0,0,,4,,,64,127
25655,note_off,0,0,0,,8,,,68,127
25657,note_on,2,0,0,,7,,,67,127
25657,note_on,0,0,0,,3,,,51,127
25825,note_off,168,0,0,,3,,,51,127
25827,note_on,2,0,0,,11,,,58,127
25993,note_off,166,0,0,,7,,,67,127
25995,note_off,2,0,0,,11,,,58,127
25997,note_on,2,0,0,,2,,,74,127
25997,note_on,0,0,0,,3,,,63,127
26165,note_off,168,0,0,,3,,,63,127
26165,note_off,0,0,0,,2,,,74,127
26167,note_on,2,0,0,,3,,,75,127
26167,note_on,0,0,0,,1,,,61,127
26335,note_off,168,0,0,,1,,,61,127
26337,note_on,2,0,0,,12,,,59,127
26503,note_off,166,0,0,,3,,,75,127
26505,note_off,2,0,0,,12,,,59,127
26507,note_on,2,0,0,,8,,,68,127
26507,note_on,0,0,0,,12,,,59,127
26675,note_off,168,0,0,,12,,,59,127
26675,note_off,0,0,0,,8,,,68,127
26677,note_on,2,0,0,,7,,,67,127
26677,note_on,0,0,0,,11,,,58,127
26845,note_off,168,0,0,,11,,,58,127
26845,note_off,0,0,0,,7,,,67,127
26847,note_on,2,0,0,,8,,,68,127
26847,note_on,0,0,0,,8,,,56,127
27015,note_off,168,0,0,,8,,,56,127
27015,note_off,0,0,0,,8,,,68,127
27017,note_on,2,0,0,,8,,,68,127
27017,note_on,0,0,0,,7,,,55,127
27185,note_off,168,0,0,,7,,,55,127
27185,note_off,0,0,0,,8,,,68,127
27187,note_on,2,0,0,,11,,,70,127
27187,note_on,0,0,0,,3,,,51,127
27355,note_off,168,0,0,,3,,,51,127
27355,note_off,0,0,0,,11,,,70,127
27357,note_on,2,0,0,,2,,,74,127
27357,note_on,0,0,0,,3,,,63,127
27525,note_off,168,0,0,,3,,,63,127
27525,note_off,0,0,0,,2,,,74,127
27527,note_on,2,0,0,,3,,,75,127
27527,note_on,0,0,0,,1,,,61,127
27695,note_off,168,0,0,,1,,,61,127
27697,note_on,2,0,0,,12,,,59,127
27863,note_off,166,0,0,,3,,,75,127
27865,note_off,2,0,0,,12,,,59,127
27867,note_on,2,0,0,,8,,,68,127
27867,note_on,0,0,0,,12,,,59,127
28035,note_off,168,0,0,,12,,,59,127
28035,note_off,0,0,0,,8,,,68,127
28037,note_on,2,0,0,,7,,,67,127
28037,note_on,0,0,0,,11,,,58,127
28205,note_off,168,0,0,,11,,,58,127
28205,note_off,0,0,0,,7,,,67,127
28207,note_on,2,0,0,,8,,,68,127
28207,note_on,0,0,0,,8,,,56,127
28375,note_off,168,0,0,,8,,,56,127
28375,note_off,0,0,0,,8,,,68,127
28377,note_on,2,0,0,,11,,,70,127
28377,note_on,0,0,0,,7,,,55,127
28545,note_off,168,0,0,,7,,,55,127
28547,note_on,2,0,0,,1,,,73,127
28547,note_on,0,0,0,,3,,,51,127
28551,note_off,4,0,0,,11,,,70,127
28715,note_off,164,0,0,,3,,,51,127
28717,note_on,2,0,0,,12,,,71,127
28717,note_on,0,0,0,,8,,,56,127
28721,note_off,4,0,0,,1,,,73,127
28885,note_off,164,0,0,,8,,,56,127
28887,note_on,2,0,0,,11,,,70,127
28887,note_on,0,0,0,,1,,,49,127
28891,note_off,4,0,0,,12,,,71,127
29055,note_off,164,0,0,,1,,,49,127
29057,note_on,2,0,0,,12,,,71,127
29057,note_on,0,0,0,,3,,,51,127
29061,note_off,4,0,0,,11,,,70,127
29225,note_off,164,0,0,,12,,,71,127
29227,note_on,2,0,0,,8,,,68,127
29395,note_off,168,0,0,,8,,,68,127
29397,note_on,2,0,0,,3,,,75,127
29397,note_on,0,0,0,,11,,,70,127
29397,note_on,0,0,0,,3,,,63,127
29565,note_off,168,0,0,,11,,,70,127
29567,note_off,2,0,0,,3,,,51,127
29567,note_on,0,0,0,,7,,,67,127
29733,note_off,166,0,0,,3,,,63,127
29735,note_off,2,0,0,,7,,,67,127
29737,note_on,2,0,0,,8,,,68,127
29737,note_on,0,0,0,,4,,,64,127
29892,note_off,155,0,0,,3,,,75,127
29906,note_on,14,0,0,,1,,,73,127
30072,note_off,166,0,0,,4,,,64,127
30072,note_off,0,0,0,,8,,,68,127
30074,note_off,2,0,0,,1,,,73,127
30076,note_on,2,0,0,,6,,,66,127
30076,note_on,0,0,0,,1,,,73,127
30076,note_on,0,0,0,,3,,,63,127
30244,note_off,168,0,0,,1,,,73,127
30246,note_on,2,0,0,,12,,,71,127
30412,note_off,166,0,0,,3,,,63,127
30412,note_off,0,0,0,,6,,,66,127
30414,note_off,2,0,0,,12,,,71,127
30416,note_on,2,0,0,,12,,,71,127
30416,note_on,0,0,0,,1,,,61,127
30584,note_off,168,0,0,,1,,,61,127
30584,note_off,0,0,0,,12,,,71,127
30586,note_on,2,0,0,,11,,,70,127
30586,note_on,0,0,0,,3,,,63,127
30754,note_off,168,0,0,,3,,,63,127
30754,note_off,0,0,0,,11,,,70,127
30756,note_on,2,0,0,,11,,,70,127
30756,note_on,0,0,0,,4,,,64,127
30924,note_off,168,0,0,,4,,,64,127
30924,note_off,0,0,0,,11,,,70,127
30926,note_on,2,0,0,,8,,,68,127
30926,note_on,0,0,0,,1,,,61,127
31094,note_off,168,0,0,,1,,,61,127
31094,note_off,0,0,0,,8,,,68,127
31096,note_on,2,0,0,,8,,,68,127
31096,note_on,0,0,0,,3,,,51,127
31264,note_off,168,0,0,,3,,,51,127
31264,note_off,0,0,0,,8,,,68,127
31266,note_on,2,0,0,,7,,,67,127
31266,note_on,0,0,0,,11,,,58,127
31434,note_off,168,0,0,,11,,,58,127
31436,note_on,2,0,0,,3,,,63,127
31602,note_off,166,0,0,,7,,,67,127
31604,note_off,2,0,0,,3,,,63,127
31606,note_on,2,0,0,,11,,,82,127
31606,note_on,0,0,0,,11,,,70,127
31606,note_on,0,0,0,,1,,,61,127
31774,note_off,168,0,0,,1,,,61,127
31774,note_off,0,0,0,,11,,,70,127
31776,note_on,2,0,0,,12,,,71,127
31776,note_on,0,0,0,,12,,,83,127
31776,note_on,0,0,0,,12,,,59,127
31780,note_off,4,0,0,,11,,,82,127
31944,note_off,164,0,0,,12,,,59,127
31946,note_on,2,0,0,,8,,,80,127
31946,note_on,0,0,0,,12,,,59,127
31950,note_off,4,0,0,,12,,,83,127
32114,note_off,164,0,0,,12,,,59,127
32116,note_on,2,0,0,,7,,,79,127
32116,note_on,0,0,0,,11,,,58,127
32120,note_off,4,0,0,,8,,,80,127
32284,note_off,164,0,0,,11,,,58,127
32286,note_on,2,0,0,,8,,,80,127
32286,note_on,0,0,0,,8,,,56,127
32290,note_off,4,0,0,,7,,,79,127
32449,note_off,159,0,0,,8,,,80,127
32449,note_off,0,0,0,,12,,,71,127
32454,note_off,5,0,0,,8,,,56,127
32456,note_on,2,0,0,,8,,,80,127
32456,note_on,0,0,0,,7,,,55,127
32624,note_off,168,0,0,,7,,,55,127
32626,note_on,2,0,0,,11,,,82,127
32626,note_on,0,0,0,,3,,,51,127
32630,note_off,4,0,0,,8,,,80,127
32794,note_off,164,0,0,,11,,,82,127
32796,note_on,2,0,0,,11,,,70,127
32796,note_on,0,0,0,,3,,,63,127
32881,note_off,85,0,0,,3,,,51,127
32964,note_off,83,0,0,,3,,,63,127
32964,note_off,0,0,0,,11,,,70,127
32966,note_on,2,0,0,,11,,,70,127
32966,note_on,0,0,0,,11,,,82,127
32966,note_on,0,0,0,,1,,,61,127
33134,note_off,168,0,0,,1,,,61,127
33134,note_off,0,0,0,,11,,,70,127
33136,note_on,2,0,0,,12,,,71,127
33136,note_on,0,0,0,,12,,,83,127
33136,note_on,0,0,0,,12,,,59,127
33140,note_off,4,0,0,,11,,,82,127
33304,note_off,164,0,0,,12,,,59,127
33306,note_on,2,0,0,,8,,,80,127
33306,note_on,0,0,0,,12,,,59,127
33310,note_off,4,0,0,,12,,,83,127
33474,note_off,164,0,0,,12,,,59,127
33476,note_on,2,0,0,,7,,,79,127
33476,note_on,0,0,0,,11,,,58,127
33480,note_off,4,0,0,,8,,,80,127
33644,note_off,164,0,0,,11,,,58,127
33646,note_on,2,0,0,,8,,,80,127
33646,note_on,0,0,0,,8,,,56,127
33650,note_off,4,0,0,,7,,,79,127
33809,note_off,159,0,0,,8,,,80,127
33809,note_off,0,0,0,,12,,,71,127
33814,note_off,5,0,0,,8,,,56,127
33816,note_on,2,0,0,,8,,,80,127
33816,note_on,0,0,0,,7,,,55,127
33984,note_off,168,0,0,,7,,,55,127
33986,note_on,2,0,0,,11,,,82,127
33986,note_on,0,0,0,,3,,,51,127
33990,note_off,4,0,0,,8,,,80,127
34154,note_off,164,0,0,,11,,,82,127
34156,note_on,2,0,0,,11,,,70,127
34156,note_on,0,0,0,,3,,,63,127
34241,note_off,85,0,0,,3,,,51,127
34324,note_off,83,0,0,,3,,,63,127
34324,note_off,0,0,0,,11,,,70,127
34326,note_on,2,0,0,,11,,,82,127
34326,note_on,0,0,0,,1,,,61,127
34494,note_off,168,0,0,,1,,,61,127
34494,note_off,0,0,0,,11,,,82,127
34496,note_on,2,0,0,,12,,,83,127
34496,note_on,0,0,0,,12,,,59,127
34664,note_off,168,0,0,,12,,,59,127
34664,note_off,0,0,0,,12,,,83,127
34666,note_on,2,0,0,,8,,,80,127
34666,note_on,0,0,0,,12,,,59,127
34834,note_off,168,0,0,,12,,,59,127
34834,note_off,0,0,0,,8,,,80,127
34836,note_on,2,0,0,,6,,,78,127
34836,note_on,0,0,0,,11,,,58,127
35004,note_off,168,0,0,,11,,,58,127
35004,note_off,0,0,0,,6,,,78,127
35006,note_on,2,0,0,,4,,,76,127
35006,note_on,0,0,0,,8,,,56,127
35174,note_off,168,0,0,,8,,,56,127
35174,note_off,0,0,0,,4,,,76,127
35176,note_on,2,0,0,,11,,,82,127
35176,note_on,0,0,0,,3,,,75,127
35176,note_on,0,0,0,,7,,,55,127
35344,note_off,168,0,0,,7,,,55,127
35344,note_off,0,0,0,,3,,,75,127
35346,note_on,2,0,0,,1,,,73,127
35346,note_on,0,0,0,,3,,,51,127
35512,note_off,166,0,0,,11,,,82,127
35514,note_off,2,0,0,,3,,,51,127
35514,note_off,0,0,0,,1,,,73,127
35516,note_on,2,0,0,,12,,,71,127
35516,note_on,0,0,0,,8,,,80,127
35516,note_on,0,0,0,,8,,,56,127
35684,note_off,168,0,0,,8,,,56,127
35684,note_off,0,0,0,,12,,,71,127
35686,note_on,2,0,0,,11,,,70,127
35686,note_on,0,0,0,,1,,,49,127
35854,note_off,168,0,0,,1,,,49,127
35854,note_off,0,0,0,,11,,,70,127
35856,note_on,2,0,0,,12,,,71,127
35856,note_on,0,0,0,,3,,,51,127
36011,note_off,155,0,0,,8,,,80,127
36023,note_off,12,0,0,,12,,,71,127
36025,note_on,2,0,0,,11,,,82,127
36193,note_off,168,0,0,,11,,,82,127
36195,note_on,2,0,0,,8,,,80,127
36195,note_on,0,0,0,,3,,,63,127
36363,note_off,168,0,0,,8,,,80,127
36365,note_off,2,0,0,,3,,,51,127
36365,note_on,0,0,0,,7,,,79,127
36531,note_off,166,0,0,,3,,,63,127
36533,note_off,2,0,0,,7,,,79,127
36535,note_on,2,0,0,,8,,,80,127
36535,note_on,0,0,0,,4,,,52,127
36703,note_off,168,0,0,,4,,,52,127
36703,note_off,0,0,0,,8,,,80,127
36705,note_on,2,0,0,,1,,,73,127
36705,note_on,0,0,0,,4,,,64,127
36873,note_off,168,0,0,,4,,,64,127
36873,note_off,0,0,0,,1,,,73,127
36875,note_on,2,0,0,,3,,,75,127
36875,note_on,0,0,0,,3,,,63,127
37043,note_off,168,0,0,,3,,,63,127
37043,note_off,0,0,0,,3,,,75,127
37045,note_on,2,0,0,,4,,,76,127
37045,note_on,0,0,0,,1,,,61,127
37213,note_off,168,0,0,,1,,,61,127
37213,note_off,0,0,0,,4,,,76,127
37215,note_on,2,0,0,,3,,,75,127
37215,note_on,0,0,0,,7,,,67,127
37383,note_off,168,0,0,,7,,,67,127
37383,note_off,0,0,0,,3,,,75,127
37385,note_on,2,0,0,,1,,,73,127
37385,note_on,0,0,0,,5,,,65,127
37553,note_off,168,0,0,,5,,,65,127
37553,note_off,0,0,0,,1,,,73,127
37555,note_on,2,0,0,,12,,,71,127
37555,note_on,0,0,0,,3,,,63,127
37723,note_off,168,0,0,,3,,,63,127
37723,note_off,0,0,0,,12,,,71,127
37725,note_on,2,0,0,,11,,,70,127
37725,note_on,0,0,0,,7,,,67,127
37893,note_off,168,0,0,,7,,,67,127
37893,note_off,0,0,0,,11,,,70,127
37895,note_on,2,0,0,,12,,,71,127
37895,note_on,0,0,0,,8,,,68,127
38063,note_off,168,0,0,,12,,,71,127
38065,note_on,2,0,0,,3,,,75,127
38231,note_off,166,0,0,,8,,,68,127
38233,note_off,2,0,0,,3,,,75,127
38235,note_on,2,0,0,,4,,,76,127
38235,note_on,0,0,0,,1,,,61,127
38403,note_off,168,0,0,,4,,,76,127
38405,note_on,2,0,0,,11,,,70,127
38571,note_off,166,0,0,,1,,,61,127
38573,note_off,2,0,0,,11,,,70,127
38575,note_on,2,0,0,,12,,,71,127
38575,note_on,0,0,0,,3,,,75,127
38575,note_on,0,0,0,,3,,,63,127
38743,note_off,168,0,0,,12,,,71,127
38745,note_on,2,0,0,,8,,,68,127
38911,note_off,166,0,0,,3,,,75,127
38913,note_off,2,0,0,,8,,,68,127
38915,note_on,2,0,0,,11,,,70,127
38915,note_on,0,0,0,,3,,,51,127
39083,note_off,168,0,0,,11,,,70,127
39085,note_on,2,0,0,,7,,,67,127
39247,note_off,162,0,0,,3,,,63,127
39252,note_off,5,0,0,,7,,,67,127
39254,note_on,2,0,0,,8,,,68,127
39339,note_off,85,0,0,,3,,,51,127
39422,note_off,83,0,0,,8,,,68,127
39424,note_on,2,0,0,,1,,,61,127
39424,note_on,0,0,0,,4,,,52,127
39592,note_off,168,0,0,,4,,,52,127
39592,note_off,0,0,0,,1,,,61,127
39594,note_on,2,0,0,,3,,,63,127
39594,note_on,0,0,0,,3,,,51,127
39762,note_off,168,0,0,,3,,,51,127
39762,note_off,0,0,0,,3,,,63,127
39764,note_on,2,0,0,,4,,,64,127
39764,note_on,0,0,0,,1,,,49,127
39932,note_off,168,0,0,,1,,,49,127
39932,note_off,0,0,0,,4,,,64,127
39934,note_on,2,0,0,,3,,,63,127
39934,note_on,0,0,0,,7,,,55,127
40102,note_off,168,0,0,,7,,,55,127
40102,note_off,0,0,0,,3,,,63,127
40104,note_on,2,0,0,,1,,,61,127
40104,note_on,0,0,0,,5,,,53,127
40272,note_off,168,0,0,,5,,,53,127
40272,note_off,0,0,0,,1,,,61,127
40274,note_on,2,0,0,,12,,,59,127
40274,note_on,0,0,0,,3,,,51,127
40442,note_off,168,0,0,,3,,,51,127
40442,note_off,0,0,0,,12,,,59,127
40444,note_on,2,0,0,,11,,,58,127
40444,note_on,0,0,0,,7,,,55,127
40612,note_off,168,0,0,,7,,,55,127
40612,note_off,0,0,0,,11,,,58,127
40614,note_on,2,0,0,,12,,,59,127
40614,note_on,0,0,0,,8,,,56,127
40782,note_off,168,0,0,,12,,,59,127
40784,note_on,2,0,0,,3,,,63,127
40950,note_off,166,0,0,,8,,,56,127
40952,note_off,2,0,0,,3,,,63,127
40954,note_on,2,0,0,,4,,,64,127
40954,note_on,0,0,0,,1,,,49,127
41122,note_off,168,0,0,,4,,,64,127
41124,note_on,2,0,0,,1,,,61,127
41290,note_off,166,0,0,,1,,,49,127
41292,note_off,2,0,0,,1,,,61,127
41294,note_on,2,0,0,,12,,,59,127
41294,note_on,0,0,0,,3,,,63,127
41294,note_on,0,0,0,,3,,,51,127
41462,note_off,168,0,0,,3,,,63,127
41464,note_on,2,0,0,,8,,,68,127
41630,note_off,166,0,0,,12,,,59,127
41632,note_off,2,0,0,,8,,,68,127
41634,note_on,2,0,0,,11,,,58,127
41634,note_on,0,0,0,,1,,,61,127
41634,note_on,0,0,0,,3,,,39,127
41802,note_off,168,0,0,,1,,,61,127
41804,note_on,2,0,0,,7,,,67,127
41966,note_off,162,0,0,,3,,,51,127
41970,note_off,4,0,0,,3,,,39,127
41970,note_off,0,0,0,,11,,,58,127
41972,note_off,2,0,0,,7,,,67,127
41974,note_on,2,0,0,,8,,,68,127
41974,note_on,0,0,0,,8,,,56,127
41974,note_on,0,0,0,,8,,,44,127
42309,note_off,335,0,0,,8,,,56,127
42309,note_off,0,0,0,,8,,,68,127
42313,note_on,4,0,0,,3,,,75,127
42481,note_off,168,0,0,,3,,,75,127
42483,note_on,2,0,0,,1,,,73,127
42645,note_off,162,0,0,,8,,,44,127
42650,note_off,5,0,0,,1,,,73,127
42652,note_on,2,0,0,,0,,,72,127
42820,note_off,168,0,0,,0,,,72,127
42822,note_on,2,0,0,,1,,,73,127
42990,note_off,168,0,0,,1,,,73,127
42992,note_on,2,0,0,,3,,,75,127
42992,note_on,0,0,0,,8,,,68,127
43160,note_off,168,0,0,,8,,,68,127
43162,note_on,2,0,0,,6,,,66,127
43328,note_off,166,0,0,,3,,,75,127
43330,note_off,2,0,0,,6,,,66,127
43332,note_on,2,0,0,,4,,,76,127
43332,note_on,0,0,0,,4,,,64,127
43500,note_off,168,0,0,,4,,,64,127
43502,note_on,2,0,0,,6,,,66,127
43670,note_off,168,0,0,,6,,,66,127
43672,note_on,2,0,0,,8,,,68,127
43838,note_off,166,0,0,,4,,,76,127
43842,note_on,4,0,0,,3,,,75,127
44008,note_off,166,0,0,,8,,,68,127
44010,note_off,2,0,0,,3,,,75,127
44012,note_on,2,0,0,,1,,,73,127
44012,note_on,0,0,0,,10,,,69,127
44180,note_off,168,0,0,,1,,,73,127
44182,note_on,2,0,0,,3,,,75,127
44350,note_off,168,0,0,,3,,,75,127
44352,note_on,2,0,0,,4,,,76,127
44518,note_off,166,0,0,,10,,,69,127
44522,note_on,4,0,0,,8,,,68,127
44688,note_off,166,0,0,,4,,,76,127
44690,note_off,2,0,0,,8,,,68,127
44692,note_on,2,0,0,,3,,,75,127
44692,note_on,0,0,0,,6,,,66,127
44860,note_off,168,0,0,,6,,,66,127
44862,note_on,2,0,0,,8,,,68,127
45030,note_off,168,0,0,,8,,,68,127
45032,note_on,2,0,0,,10,,,69,127
45198,note_off,166,0,0,,3,,,75,127
45202,note_on,4,0,0,,1,,,73,127
45368,note_off,166,0,0,,10,,,69,127
45370,note_off,2,0,0,,1,,,73,127
45372,note_on,2,0,0,,0,,,72,127
45372,note_on,0,0,0,,8,,,68,127
45540,note_off,168,0,0,,0,,,72,127
45542,note_on,2,0,0,,1,,,73,127
45710,note_off,168,0,0,,1,,,73,127
45712,note_on,2,0,0,,3,,,75,127
45712,note_on,0,0,0,,8,,,56,127
45867,note_off,155,0,0,,8,,,68,127
45879,note_off,12,0,0,,8,,,56,127
45881,note_on,2,0,0,,6,,,54,127
46047,note_off,166,0,0,,3,,,75,127
46049,note_off,2,0,0,,6,,,54,127
46051,note_on,2,0,0,,4,,,76,127
46051,note_on,0,0,0,,4,,,52,127
46219,note_off,168,0,0,,4,,,52,127
46221,note_on,2,0,0,,1,,,49,127
46389,note_off,168,0,0,,1,,,49,127
46391,note_on,2,0,0,,4,,,64,127
46391,note_on,0,0,0,,1,,,61,127
46546,note_off,155,0,0,,4,,,76,127
46558,note_off,12,0,0,,1,,,61,127
46560,note_on,2,0,0,,3,,,75,127
46560,note_on,0,0,0,,12,,,59,127
46728,note_off,168,0,0,,12,,,59,127
46728,note_off,0,0,0,,3,,,75,127
46730,note_on,2,0,0,,1,,,73,127
46730,note_on,0,0,0,,10,,,57,127
46898,note_off,168,0,0,,10,,,57,127
46898,note_off,0,0,0,,1,,,73,127
46900,note_on,2,0,0,,12,,,71,127
46900,note_on,0,0,0,,8,,,56,127
47062,note_off,162,0,0,,4,,,64,127
47067,note_off,5,0,0,,8,,,56,127
47067,note_off,0,0,0,,12,,,71,127
47069,note_on,2,0,0,,10,,,69,127
47069,note_on,0,0,0,,6,,,54,127
47237,note_off,168,0,0,,6,,,54,127
47237,note_off,0,0,0,,10,,,69,127
47239,note_on,2,0,0,,8,,,68,127
47239,note_on,0,0,0,,4,,,52,127
47407,note_off,168,0,0,,4,,,52,127
47407,note_off,0,0,0,,8,,,68,127
47409,note_on,2,0,0,,6,,,66,127
47409,note_on,0,0,0,,3,,,51,127
47577,note_off,168,0,0,,3,,,51,127
47577,note_off,0,0,0,,6,,,66,127
47579,note_on,2,0,0,,6,,,78,127
47579,note_on,0,0,0,,12,,,47,127
47747,note_off,168,0,0,,12,,,47,127
47749,note_on,2,0,0,,12,,,59,127
47915,note_off,166,0,0,,6,,,78,127
47919,note_on,4,0,0,,4,,,76,127
48087,note_off,168,0,0,,4,,,76,127
48089,note_on,2,0,0,,3,,,75,127
48255,note_off,166,0,0,,12,,,59,127
48257,note_off,2,0,0,,3,,,75,127
48259,note_on,2,0,0,,1,,,73,127
48259,note_on,0,0,0,,10,,,57,127
48427,note_off,168,0,0,,10,,,57,127
48427,note_off,0,0,0,,1,,,73,127
48429,note_on,2,0,0,,12,,,71,127
48429,note_on,0,0,0,,8,,,56,127
48597,note_off,168,0,0,,8,,,56,127
48597,note_off,0,0,0,,12,,,71,127
48599,note_on,2,0,0,,10,,,69,127
48599,note_on,0,0,0,,6,,,54,127
48767,note_off,168,0,0,,6,,,54,127
48767,note_off,0,0,0,,10,,,69,127
48769,note_on,2,0,0,,8,,,68,127
48769,note_on,0,0,0,,4,,,52,127
48937,note_off,168,0,0,,8,,,68,127
48939,note_on,2,0,0,,11,,,70,127
49105,note_off,166,0,0,,4,,,52,127
49107,note_off,2,0,0,,11,,,70,127
49109,note_on,2,0,0,,12,,,71,127
49109,note_on,0,0,0,,3,,,51,127
49109,note_on,0,0,0,,12,,,59,127
49278,note_on,169,0,0,,6,,,66,127
49444,note_off,166,0,0,,3,,,51,127
49444,note_off,0,0,0,,12,,,71,127
49446,note_off,2,0,0,,6,,,66,127
49448,note_on,2,0,0,,4,,,64,127
49448,note_on,0,0,0,,1,,,49,127
49616,note_off,168,0,0,,4,,,64,127
49618,note_on,2,0,0,,3,,,63,127
49780,note_off,162,0,0,,12,,,59,127
49785,note_off,5,0,0,,3,,,63,127
49787,note_on,2,0,0,,4,,,64,127
49787,note_on,0,0,0,,11,,,58,127
49955,note_off,168,0,0,,4,,,64,127
49957,note_on,2,0,0,,6,,,66,127
50119,note_off,162,0,0,,1,,,49,127
50123,note_off,4,0,0,,11,,,58,127
50125,note_off,2,0,0,,6,,,66,127
50127,note_on,2,0,0,,3,,,63,127
50127,note_on,0,0,0,,12,,,47,127
50295,note_off,168,0,0,,12,,,47,127
50297,note_on,2,0,0,,6,,,54,127
50463,note_off,166,0,0,,3,,,63,127
50465,note_off,2,0,0,,6,,,54,127
50467,note_on,2,0,0,,11,,,70,127
50467,note_on,0,0,0,,12,,,59,127
50635,note_off,168,0,0,,12,,,59,127
50635,note_off,0,0,0,,11,,,70,127
50637,note_on,2,0,0,,12,,,71,127
50637,note_on,0,0,0,,10,,,57,127
50805,note_off,168,0,0,,10,,,57,127
50807,note_on,2,0,0,,3,,,63,127
50807,note_on,0,0,0,,8,,,56,127
50975,note_off,168,0,0,,8,,,56,127
50975,note_off,0,0,0,,3,,,63,127
50977,note_on,2,0,0,,4,,,64,127
50977,note_on,0,0,0,,12,,,59,127
51132,note_off,155,0,0,,12,,,71,127
51144,note_off,12,0,0,,12,,,59,127
51144,note_off,0,0,0,,4,,,64,127
51146,note_on,2,0,0,,10,,,69,127
51146,note_on,0,0,0,,3,,,63,127
51146,note_on,0,0,0,,6,,,54,127
51314,note_off,168,0,0,,6,,,54,127
51314,note_off,0,0,0,,3,,,63,127
51314,note_off,0,0,0,,10,,,69,127
51316,note_on,2,0,0,,8,,,68,127
51316,note_on,0,0,0,,4,,,64,127
51316,note_on,0,0,0,,4,,,52,127
51484,note_off,168,0,0,,4,,,52,127
51484,note_off,0,0,0,,4,,,64,127
51484,note_off,0,0,0,,8,,,68,127
51486,note_on,2,0,0,,6,,,66,127
51486,note_on,0,0,0,,3,,,63,127
51486,note_on,0,0,0,,12,,,47,127
51654,note_off,168,0,0,,12,,,47,127
51656,note_on,2,0,0,,6,,,54,127
51822,note_off,166,0,0,,3,,,63,127
51822,note_off,0,0,0,,6,,,66,127
51824,note_off,2,0,0,,6,,,54,127
51826,note_on,2,0,0,,11,,,70,127
51826,note_on,0,0,0,,12,,,59,127
51994,note_off,168,0,0,,12,,,59,127
51994,note_off,0,0,0,,11,,,70,127
51996,note_on,2,0,0,,12,,,71,127
51996,note_on,0,0,0,,10,,,57,127
52164,note_off,168,0,0,,10,,,57,127
52166,note_on,2,0,0,,3,,,63,127
52166,note_on,0,0,0,,8,,,56,127
52334,note_off,168,0,0,,8,,,56,127
52334,note_off,0,0,0,,3,,,63,127
52336,note_on,2,0,0,,4,,,64,127
52336,note_on,0,0,0,,12,,,59,127
52491,note_off,155,0,0,,12,,,71,127
52503,note_off,12,0,0,,12,,,59,127
52503,note_off,0,0,0,,4,,,64,127
52505,note_on,2,0,0,,10,,,69,127
52505,note_on,0,0,0,,3,,,63,127
52505,note_on,0,0,0,,6,,,54,127
52673,note_off,168,0,0,,6,,,54,127
52673,note_off,0,0,0,,3,,,63,127
52673,note_off,0,0,0,,10,,,69,127
52675,note_on,2,0,0,,8,,,68,127
52675,note_on,0,0,0,,4,,,64,127
52675,note_on,0,0,0,,4,,,52,127
52843,note_off,168,0,0,,4,,,52,127
52843,note_off,0,0,0,,4,,,64,127
52843,note_off,0,0,0,,8,,,68,127
52845,note_on,2,0,0,,6,,,66,127
52845,note_on,0,0,0,,3,,,63,127
52845,note_on,0,0,0,,12,,,47,127
53353,note_off,508,0,0,,3,,,63,127
53353,note_off,0,0,0,,6,,,66,127
53515,note_off,162,0,0,,12,,,47,127
53522,note_on,7,0,0,,12,,,71,127
53861,note_on,339,0,0,,4,,,64,127
53861,note_on,0,0,0,,0,,,48,127
54016,note_off,155,0,0,,12,,,71,127
54030,note_on,14,0,0,,2,,,74,127
54198,note_off,168,0,0,,2,,,74,127
54200,note_on,2,0,0,,0,,,72,127
54532,note_off,332,0,0,,4,,,64,127
54536,note_off,4,0,0,,0,,,48,127
54540,note_on,4,0,0,,5,,,53,127
54540,note_on,0,0,0,,2,,,62,127
54706,note_off,166,0,0,,0,,,72,127
54710,note_on,4,0,0,,10,,,69,127
54878,note_off,168,0,0,,10,,,69,127
54880,note_on,2,0,0,,8,,,68,127
55048,note_off,168,0,0,,8,,,68,127
55050,note_on,2,0,0,,10,,,69,127
55216,note_off,166,0,0,,2,,,62,127
55216,note_off,0,0,0,,5,,,53,127
55218,note_off,2,0,0,,10,,,69,127
55220,note_on,2,0,0,,8,,,68,127
55220,note_on,0,0,0,,12,,,71,127
55220,note_on,0,0,0,,4,,,52,127
55220,note_on,0,0,0,,12,,,59,127
55220,note_on,0,0,0,,4,,,64,127
55388,note_off,168,0,0,,12,,,71,127
55390,note_on,2,0,0,,0,,,72,127
55556,note_off,166,0,0,,8,,,68,127
55558,note_off,2,0,0,,0,,,72,127
55560,note_on,2,0,0,,2,,,74,127
55728,note_off,168,0,0,,2,,,74,127
55730,note_on,2,0,0,,0,,,72,127
55896,note_off,166,0,0,,4,,,64,127
55896,note_off,0,0,0,,12,,,59,127
55896,note_off,0,0,0,,4,,,52,127
55900,note_on,4,0,0,,5,,,53,127
55900,note_on,0,0,0,,2,,,62,127
56066,note_off,166,0,0,,0,,,72,127
56070,note_on,4,0,0,,10,,,69,127
56238,note_off,168,0,0,,10,,,69,127
56240,note_on,2,0,0,,8,,,68,127
56408,note_off,168,0,0,,8,,,68,127
56410,note_on,2,0,0,,10,,,69,127
56576,note_off,166,0,0,,2,,,62,127
56576,note_off,0,0,0,,5,,,53,127
56578,note_off,2,0,0,,10,,,69,127
56580,note_on,2,0,0,,12,,,71,127
56580,note_on,0,0,0,,4,,,52,127
56749,note_on,169,0,0,,12,,,59,127
56915,note_off,166,0,0,,12,,,71,127
56917,note_off,2,0,0,,12,,,59,127
56919,note_on,2,0,0,,4,,,76,127
56919,note_on,0,0,0,,4,,,64,127
57087,note_off,168,0,0,,4,,,64,127
57089,note_on,2,0,0,,2,,,62,127
57251,note_off,162,0,0,,4,,,52,127
57256,note_off,5,0,0,,2,,,62,127
57258,note_on,2,0,0,,1,,,61,127
57424,note_off,166,0,0,,4,,,76,127
57426,note_off,2,0,0,,1,,,61,127
57428,note_on,2,0,0,,2,,,74,127
57428,note_on,0,0,0,,12,,,59,127
57596,note_off,168,0,0,,12,,,59,127
57596,note_off,0,0,0,,2,,,74,127
57598,note_on,2,0,0,,1,,,73,127
57598,note_on,0,0,0,,10,,,57,127
57766,note_off,168,0,0,,10,,,57,127
57766,note_off,0,0,0,,1,,,73,127
57768,note_on,2,0,0,,12,,,71,127
57768,note_on,0,0,0,,8,,,56,127
57936,note_off,168,0,0,,8,,,56,127
57936,note_off,0,0,0,,12,,,71,127
57938,note_on,2,0,0,,10,,,81,127
57938,note_on,0,0,0,,10,,,69,127
57938,note_on,0,0,0,,6,,,54,127
58106,note_off,168,0,0,,6,,,54,127
58108,note_on,2,0,0,,8,,,80,127
58108,note_on,0,0,0,,4,,,52,127
58112,note_off,4,0,0,,10,,,81,127
58274,note_off,162,0,0,,10,,,69,127
58276,note_off,2,0,0,,4,,,52,127
58278,note_on,2,0,0,,6,,,78,127
58278,note_on,0,0,0,,3,,,51,127
58282,note_off,4,0,0,,8,,,80,127
58446,note_off,164,0,0,,3,,,51,127
58448,note_on,2,0,0,,4,,,76,127
58448,note_on,0,0,0,,1,,,49,127
58452,note_off,4,0,0,,6,,,78,127
58616,note_off,164,0,0,,1,,,49,127
58618,note_on,2,0,0,,3,,,75,127
58618,note_on,0,0,0,,12,,,47,127
58622,note_off,4,0,0,,4,,,76,127
58788,note_on,166,0,0,,1,,,73,127
58788,note_on,0,0,0,,6,,,54,127
58792,note_off,4,0,0,,3,,,75,127
58956,note_off,164,0,0,,6,,,54,127
58956,note_off,0,0,0,,1,,,73,127
58958,note_on,2,0,0,,12,,,71,127
58958,note_on,0,0,0,,12,,,59,127
59126,note_off,168,0,0,,12,,,59,127
59128,note_on,2,0,0,,10,,,57,127
59290,note_off,162,0,0,,12,,,47,127
59295,note_off,5,0,0,,10,,,57,127
59297,note_on,2,0,0,,12,,,83,127
59297,note_on,0,0,0,,8,,,56,127
59465,note_off,168,0,0,,8,,,56,127
59467,note_off,2,0,0,,12,,,71,127
59467,note_on,0,0,0,,10,,,81,127
59467,note_on,0,0,0,,6,,,54,127
59471,note_off,4,0,0,,12,,,83,127
59635,note_off,164,0,0,,6,,,54,127
59637,note_on,2,0,0,,8,,,80,127
59637,note_on,0,0,0,,4,,,52,127
59641,note_off,4,0,0,,10,,,81,127
59805,note_off,164,0,0,,4,,,52,127
59807,note_on,2,0,0,,6,,,78,127
59807,note_on,0,0,0,,3,,,51,127
59811,note_off,4,0,0,,8,,,80,127
59975,note_off,164,0,0,,3,,,51,127
59977,note_on,2,0,0,,4,,,76,127
59977,note_on,0,0,0,,1,,,49,127
59981,note_off,4,0,0,,6,,,78,127
60147,note_on,166,0,0,,3,,,75,127
60151,note_off,4,0,0,,4,,,76,127
60315,note_off,164,0,0,,3,,,75,127
60317,note_on,2,0,0,,4,,,76,127
60317,note_on,0,0,0,,11,,,58,127
60485,note_off,168,0,0,,4,,,76,127
60487,note_on,2,0,0,,6,,,78,127
60649,note_off,162,0,0,,1,,,49,127
60653,note_off,4,0,0,,11,,,58,127
60655,note_off,2,0,0,,6,,,78,127
60657,note_on,2,0,0,,3,,,75,127
60657,note_on,0,0,0,,12,,,47,127
60825,note_off,168,0,0,,12,,,47,127
60827,note_on,2,0,0,,6,,,54,127
60993,note_off,166,0,0,,3,,,75,127
60995,note_off,2,0,0,,6,,,54,127
60997,note_on,2,0,0,,12,,,83,127
60997,note_on,0,0,0,,12,,,71,127
60997,note_on,0,0,0,,12,,,59,127
61165,note_off,168,0,0,,12,,,59,127
61167,note_on,2,0,0,,10,,,57,127
61335,note_off,168,0,0,,10,,,57,127
61337,note_on,2,0,0,,8,,,56,127
61503,note_off,166,0,0,,12,,,83,127
61505,note_off,2,0,0,,8,,,56,127
61507,note_on,2,0,0,,10,,,81,127
61507,note_on,0,0,0,,12,,,59,127
61669,note_off,162,0,0,,12,,,71,127
61674,note_off,5,0,0,,12,,,59,127
61676,note_on,2,0,0,,3,,,75,127
61676,note_on,0,0,0,,6,,,54,127
61842,note_off,166,0,0,,10,,,81,127
61844,note_off,2,0,0,,6,,,54,127
61844,note_off,0,0,0,,3,,,75,127
61846,note_on,2,0,0,,8,,,80,127
61846,note_on,0,0,0,,4,,,76,127
61846,note_on,0,0,0,,4,,,52,127
62014,note_off,168,0,0,,4,,,52,127
62014,note_off,0,0,0,,4,,,76,127
62014,note_off,0,0,0,,8,,,80,127
62016,note_on,2,0,0,,6,,,78,127
62016,note_on,0,0,0,,3,,,75,127
62016,note_on,0,0,0,,12,,,47,127
62184,note_off,168,0,0,,12,,,47,127
62186,note_on,2,0,0,,6,,,54,127
62352,note_off,166,0,0,,3,,,75,127
62352,note_off,0,0,0,,6,,,78,127
62354,note_off,2,0,0,,6,,,54,127
62356,note_on,2,0,0,,12,,,83,127
62356,note_on,0,0,0,,12,,,71,127
62356,note_on,0,0,0,,12,,,59,127
62524,note_off,168,0,0,,12,,,59,127
62526,note_on,2,0,0,,10,,,57,127
62694,note_off,168,0,0,,10,,,57,127
62696,note_on,2,0,0,,8,,,56,127
62862,note_off,166,0,0,,12,,,83,127
62864,note_off,2,0,0,,8,,,56,127
62866,note_on,2,0,0,,10,,,81,127
62866,note_on,0,0,0,,12,,,59,127
63028,note_off,162,0,0,,12,,,71,127
63033,note_off,5,0,0,,12,,,59,127
63035,note_on,2,0,0,,3,,,75,127
63035,note_on,0,0,0,,6,,,54,127
63201,note_off,166,0,0,,10,,,81,127
63203,note_off,2,0,0,,6,,,54,127
63203,note_off,0,0,0,,3,,,75,127
63205,note_on,2,0,0,,4,,,76,127
63205,note_on,0,0,0,,8,,,80,127
63205,note_on,0,0,0,,4,,,52,127
63373,note_off,168,0,0,,4,,,52,127
63373,note_off,0,0,0,,8,,,80,127
63373,note_off,0,0,0,,4,,,76,127
63375,note_on,2,0,0,,6,,,78,127
63375,note_on,0,0,0,,3,,,75,127
63375,note_on,0,0,0,,12,,,47,127
63544,note_on,169,0,0,,6,,,54,127
63710,note_off,166,0,0,,3,,,75,127
63710,note_off,0,0,0,,6,,,78,127
63712,note_off,2,0,0,,6,,,54,127
63714,note_on,2,0,0,,12,,,83,127
63714,note_on,0,0,0,,12,,,71,127
63714,note_on,0,0,0,,12,,,59,127
63869,note_off,155,0,0,,12,,,47,127
63883,note_on,14,0,0,,1,,,49,127
64049,note_off,166,0,0,,12,,,59,127
64051,note_off,2,0,0,,1,,,49,127
64053,note_on,2,0,0,,2,,,50,127
64208,note_off,155,0,0,,12,,,71,127
64219,note_off,11,0,0,,12,,,83,127
64223,note_on,4,0,0,,10,,,81,127
64391,note_off,168,0,0,,10,,,81,127
64393,note_on,2,0,0,,8,,,80,127
64561,note_off,168,0,0,,8,,,80,127
64563,note_on,2,0,0,,6,,,78,127
64729,note_off,166,0,0,,2,,,50,127
64731,note_off,2,0,0,,6,,,78,127
64733,note_on,2,0,0,,5,,,77,127
64733,note_on,0,0,0,,1,,,49,127
64901,note_off,168,0,0,,1,,,49,127
64903,note_on,2,0,0,,8,,,56,127
65069,note_off,166,0,0,,5,,,77,127
65071,note_off,2,0,0,,8,,,56,127
65073,note_on,2,0,0,,1,,,85,127
65073,note_on,0,0,0,,1,,,73,127
65073,note_on,0,0,0,,1,,,61,127
65241,note_off,168,0,0,,1,,,61,127
65243,note_on,2,0,0,,12,,,59,127
65411,note_off,168,0,0,,12,,,59,127
65413,note_on,2,0,0,,10,,,57,127
65579,note_off,166,0,0,,1,,,85,127
65581,note_off,2,0,0,,10,,,57,127
65583,note_on,2,0,0,,12,,,83,127
65583,note_on,0,0,0,,1,,,61,127
65745,note_off,162,0,0,,1,,,73,127
65750,note_off,5,0,0,,1,,,61,127
65752,note_on,2,0,0,,5,,,77,127
65752,note_on,0,0,0,,8,,,56,127
65918,note_off,166,0,0,,12,,,83,127
65920,note_off,2,0,0,,8,,,56,127
65920,note_off,0,0,0,,5,,,77,127
65922,note_on,2,0,0,,6,,,78,127
65922,note_on,0,0,0,,10,,,81,127
65922,note_on,0,0,0,,6,,,54,127
66090,note_off,168,0,0,,6,,,54,127
66090,note_off,0,0,0,,10,,,81,127
66090,note_off,0,0,0,,6,,,78,127
66092,note_on,2,0,0,,8,,,80,127
66092,note_on,0,0,0,,5,,,77,127
66092,note_on,0,0,0,,1,,,49,127
66260,note_off,168,0,0,,1,,,49,127
66262,note_on,2,0,0,,8,,,56,127
66428,note_off,166,0,0,,5,,,77,127
66428,note_off,0,0,0,,8,,,80,127
66430,note_off,2,0,0,,8,,,56,127
66432,note_on,2,0,0,,1,,,85,127
66432,note_on,0,0,0,,1,,,73,127
66432,note_on,0,0,0,,1,,,61,127
66600,note_off,168,0,0,,1,,,61,127
66602,note_on,2,0,0,,12,,,59,127
66770,note_off,168,0,0,,12,,,59,127
66772,note_on,2,0,0,,10,,,57,127
66938,note_off,166,0,0,,1,,,85,127
66940,note_off,2,0,0,,10,,,57,127
66942,note_on,2,0,0,,12,,,83,127
66942,note_on,0,0,0,,1,,,61,127
67104,note_off,162,0,0,,1,,,73,127
67109,note_off,5,0,0,,1,,,61,127
67111,note_on,2,0,0,,5,,,77,127
67111,note_on,0,0,0,,8,,,56,127
67277,note_off,166,0,0,,12,,,83,127
67279,note_off,2,0,0,,8,,,56,127
67279,note_off,0,0,0,,5,,,77,127
67281,note_on,2,0,0,,6,,,78,127
67281,note_on,0,0,0,,10,,,81,127
67281,note_on,0,0,0,,6,,,54,127
67449,note_off,168,0,0,,6,,,54,127
67449,note_off,0,0,0,,10,,,81,127
67449,note_off,0,0,0,,6,,,78,127
67451,note_on,2,0,0,,5,,,77,127
67451,note_on,0,0,0,,8,,,80,127
67451,note_on,0,0,0,,1,,,49,127
67619,note_off,168,0,0,,1,,,49,127
67619,note_off,0,0,0,,8,,,80,127
67619,note_off,0,0,0,,5,,,77,127
67621,note_on,2,0,0,,8,,,80,127
67621,note_on,0,0,0,,12,,,83,127
67621,note_on,0,0,0,,8,,,56,127
67789,note_off,168,0,0,,8,,,56,127
67789,note_off,0,0,0,,12,,,83,127
67789,note_off,0,0,0,,8,,,80,127
67791,note_on,2,0,0,,6,,,78,127
67791,note_on,0,0,0,,10,,,81,127
67791,note_on,0,0,0,,1,,,61,127
67959,note_off,168,0,0,,1,,,61,127
67959,note_off,0,0,0,,10,,,81,127
67959,note_off,0,0,0,,6,,,78,127
67961,note_on,2,0,0,,8,,,80,127
67961,note_on,0,0,0,,5,,,77,127
67961,note_on,0,0,0,,1,,,49,127
68129,note_off,168,0,0,,1,,,49,127
68129,note_off,0,0,0,,5,,,77,127
68129,note_off,0,0,0,,8,,,80,127
68131,note_on,2,0,0,,6,,,78,127
68131,note_on,0,0,0,,10,,,81,127
68131,note_on,0,0,0,,6,,,54,127
68299,note_off,168,0,0,,6,,,54,127
68299,note_off,0,0,0,,10,,,81,127
68299,note_off,0,0,0,,6,,,78,127
68301,note_on,2,0,0,,8,,,80,127
68301,note_on,0,0,0,,4,,,76,127
68301,note_on,0,0,0,,8,,,56,127
68469,note_off,168,0,0,,8,,,56,127
68469,note_off,0,0,0,,4,,,76,127
68469,note_off,0,0,0,,8,,,80,127
68471,note_on,2,0,0,,6,,,78,127
68471,note_on,0,0,0,,3,,,75,127
68471,note_on,0,0,0,,10,,,57,127
68639,note_off,168,0,0,,10,,,57,127
68639,note_off,0,0,0,,3,,,75,127
68639,note_off,0,0,0,,6,,,78,127
68641,note_on,2,0,0,,4,,,76,127
68641,note_on,0,0,0,,1,,,73,127
68641,note_on,0,0,0,,6,,,54,127
68809,note_off,168,0,0,,6,,,54,127
68809,note_off,0,0,0,,1,,,73,127
68809,note_off,0,0,0,,4,,,76,127
68811,note_on,2,0,0,,0,,,72,127
68811,note_on,0,0,0,,3,,,75,127
68811,note_on,0,0,0,,8,,,56,127
68979,note_off,168,0,0,,8,,,56,127
68981,note_on,2,0,0,,3,,,63,127
69147,note_off,166,0,0,,3,,,75,127
69147,note_off,0,0,0,,0,,,72,127
69149,note_off,2,0,0,,3,,,63,127
69151,note_on,2,0,0,,7,,,79,127
69151,note_on,0,0,0,,8,,,68,127
69319,note_off,168,0,0,,8,,,68,127
69319,note_off,0,0,0,,7,,,79,127
69321,note_on,2,0,0,,8,,,80,127
69321,note_on,0,0,0,,6,,,66,127
69489,note_off,168,0,0,,6,,,66,127
69491,note_on,2,0,0,,4,,,64,127
69657,note_off,166,0,0,,8,,,80,127
69659,note_off,2,0,0,,4,,,64,127
69661,note_on,2,0,0,,1,,,73,127
69661,note_on,0,0,0,,4,,,64,127
69829,note_off,168,0,0,,4,,,64,127
69829,note_off,0,0,0,,1,,,73,127
69831,note_on,2,0,0,,0,,,72,127
69831,note_on,0,0,0,,3,,,63,127
69999,note_off,168,0,0,,3,,,63,127
69999,note_off,0,0,0,,0,,,72,127
70001,note_on,2,0,0,,1,,,73,127
70001,note_on,0,0,0,,1,,,61,127
70169,note_off,168,0,0,,1,,,61,127
70169,note_off,0,0,0,,1,,,73,127
70171,note_on,2,0,0,,2,,,74,127
70171,note_on,0,0,0,,0,,,60,127
70339,note_off,168,0,0,,0,,,60,127
70339,note_off,0,0,0,,2,,,74,127
70341,note_on,2,0,0,,3,,,75,127
70341,note_on,0,0,0,,8,,,56,127
70509,note_off,168,0,0,,8,,,56,127
70509,note_off,0,0,0,,3,,,75,127
70511,note_on,2,0,0,,7,,,79,127
70511,note_on,0,0,0,,8,,,68,127
70679,note_off,168,0,0,,8,,,68,127
70679,note_off,0,0,0,,7,,,79,127
70681,note_on,2,0,0,,8,,,80,127
70681,note_on,0,0,0,,6,,,66,127
70849,note_off,168,0,0,,6,,,66,127
70851,note_on,2,0,0,,4,,,64,127
71017,note_off,166,0,0,,8,,,80,127
71019,note_off,2,0,0,,4,,,64,127
71021,note_on,2,0,0,,1,,,73,127
71021,note_on,0,0,0,,4,,,64,127
71189,note_off,168,0,0,,4,,,64,127
71189,note_off,0,0,0,,1,,,73,127
71191,note_on,2,0,0,,0,,,72,127
71191,note_on,0,0,0,,3,,,63,127
71359,note_off,168,0,0,,3,,,63,127
71359,note_off,0,0,0,,0,,,72,127
71361,note_on,2,0,0,,1,,,73,127
71361,note_on,0,0,0,,1,,,61,127
71529,note_off,168,0,0,,1,,,61,127
71529,note_off,0,0,0,,1,,,73,127
71531,note_on,2,0,0,,2,,,74,127
71531,note_on,0,0,0,,8,,,44,127
71699,note_off,168,0,0,,8,,,44,127
71699,note_off,0,0,0,,2,,,74,127
71701,note_on,2,0,0,,3,,,75,127
71701,note_on,0,0,0,,3,,,51,127
71869,note_off,168,0,0,,3,,,51,127
71871,note_on,2,0,0,,8,,,56,127
72037,note_off,166,0,0,,3,,,75,127
72039,note_off,2,0,0,,8,,,56,127
72041,note_on,2,0,0,,3,,,63,127
72041,note_on,0,0,0,,0,,,72,127
72041,note_on,0,0,0,,6,,,54,127
72209,note_off,168,0,0,,6,,,54,127
72209,note_off,0,0,0,,0,,,72,127
72209,note_off,0,0,0,,3,,,63,127
72211,note_on,2,0,0,,1,,,73,127
72211,note_on,0,0,0,,4,,,64,127
72211,note_on,0,0,0,,4,,,52,127
72379,note_off,168,0,0,,4,,,52,127
72379,note_off,0,0,0,,4,,,64,127
72379,note_off,0,0,0,,1,,,73,127
72381,note_on,2,0,0,,3,,,63,127
72381,note_on,0,0,0,,0,,,72,127
72381,note_on,0,0,0,,4,,,52,127
72549,note_off,168,0,0,,4,,,52,127
72551,note_on,2,0,0,,3,,,51,127
72717,note_off,166,0,0,,0,,,72,127
72717,note_off,0,0,0,,3,,,63,127
72719,note_off,2,0,0,,3,,,51,127
72721,note_on,2,0,0,,4,,,64,127
72721,note_on,0,0,0,,1,,,73,127
72721,note_on,0,0,0,,1,,,49,127
72889,note_off,168,0,0,,1,,,49,127
72889,note_off,0,0,0,,1,,,73,127
72889,note_off,0,0,0,,4,,,64,127
72891,note_on,2,0,0,,3,,,75,127
72891,note_on,0,0,0,,8,,,68,127
72891,note_on,0,0,0,,0,,,48,127
73059,note_off,168,0,0,,0,,,48,127
73061,note_on,2,0,0,,8,,,44,127
73229,note_off,168,0,0,,8,,,44,127
73231,note_on,2,0,0,,8,,,56,127
73397,note_off,166,0,0,,8,,,68,127
73397,note_off,0,0,0,,3,,,75,127
73399,note_off,2,0,0,,8,,,56,127
73401,note_on,2,0,0,,3,,,63,127
73401,note_on,0,0,0,,0,,,72,127
73401,note_on,0,0,0,,6,,,54,127
73569,note_off,168,0,0,,6,,,54,127
73569,note_off,0,0,0,,0,,,72,127
73569,note_off,0,0,0,,3,,,63,127
73571,note_on,2,0,0,,4,,,64,127
73571,note_on,0,0,0,,1,,,73,127
73571,note_on,0,0,0,,4,,,52,127
73739,note_off,168,0,0,,4,,,52,127
73739,note_off,0,0,0,,1,,,73,127
73739,note_off,0,0,0,,4,,,64,127
73741,note_on,2,0,0,,3,,,63,127
73741,note_on,0,0,0,,0,,,72,127
73741,note_on,0,0,0,,4,,,52,127
73909,note_off,168,0,0,,4,,,52,127
73911,note_on,2,0,0,,3,,,51,127
74077,note_off,166,0,0,,0,,,72,127
74077,note_off,0,0,0,,3,,,63,127
74079,note_off,2,0,0,,3,,,51,127
74081,note_on,2,0,0,,1,,,73,127
74081,note_on,0,0,0,,4,,,64,127
74081,note_on,0,0,0,,1,,,49,127
74249,note_off,168,0,0,,1,,,49,127
74249,note_off,0,0,0,,4,,,64,127
74249,note_off,0,0,0,,1,,,73,127
74251,note_on,2,0,0,,8,,,68,127
74251,note_on,0,0,0,,3,,,75,127
74251,note_on,0,0,0,,0,,,48,127
74419,note_off,168,0,0,,0,,,48,127
74419,note_off,0,0,0,,3,,,75,127
74421,note_on,2,0,0,,6,,,78,127
74421,note_on,0,0,0,,8,,,44,127
74587,note_off,166,0,0,,8,,,68,127
74589,note_off,2,0,0,,8,,,44,127
74589,note_off,0,0,0,,6,,,78,127
74591,note_on,2,0,0,,4,,,76,127
74591,note_on,0,0,0,,1,,,49,127
74759,note_off,168,0,0,,1,,,49,127
74759,note_off,0,0,0,,4,,,76,127
74761,note_on,2,0,0,,3,,,75,127
74761,note_on,0,0,0,,6,,,54,127
74929,note_off,168,0,0,,6,,,54,127
74929,note_off,0,0,0,,3,,,75,127
74931,note_on,2,0,0,,4,,,76,127
74931,note_on,0,0,0,,8,,,56,127
75099,note_off,168,0,0,,4,,,76,127
75101,note_on,2,0,0,,1,,,73,127
75267,note_off,166,0,0,,8,,,56,127
75269,note_off,2,0,0,,1,,,73,127
75271,note_on,2,0,0,,3,,,75,127
75271,note_on,0,0,0,,8,,,80,127
75271,note_on,0,0,0,,8,,,44,127
75439,note_off,168,0,0,,3,,,75,127
75441,note_on,2,0,0,,0,,,72,127
75607,note_off,166,0,0,,8,,,44,127
75609,note_off,2,0,0,,0,,,72,127
75611,note_on,2,0,0,,1,,,73,127
75611,note_on,0,0,0,,10,,,57,127
75766,note_off,155,0,0,,8,,,80,127
75780,note_on,14,0,0,,6,,,78,127
75946,note_off,166,0,0,,10,,,57,127
75946,note_off,0,0,0,,1,,,73,127
75948,note_off,2,0,0,,6,,,78,127
75950,note_on,2,0,0,,12,,,71,127
75950,note_on,0,0,0,,6,,,78,127
75950,note_on,0,0,0,,8,,,68,127
76118,note_off,168,0,0,,6,,,78,127
76120,note_on,2,0,0,,4,,,76,127
76286,note_off,166,0,0,,8,,,68,127
76286,note_off,0,0,0,,12,,,71,127
76288,note_off,2,0,0,,4,,,76,127
76290,note_on,2,0,0,,4,,,76,127
76290,note_on,0,0,0,,10,,,69,127
76290,note_on,0,0,0,,6,,,66,127
76458,note_off,168,0,0,,6,,,66,127
76458,note_off,0,0,0,,10,,,69,127
76458,note_off,0,0,0,,4,,,76,127
76460,note_on,2,0,0,,3,,,75,127
76460,note_on,0,0,0,,8,,,68,127
76628,note_off,168,0,0,,8,,,68,127
76628,note_off,0,0,0,,3,,,75,127
76630,note_on,2,0,0,,3,,,75,127
76630,note_on,0,0,0,,10,,,69,127
76798,note_off,168,0,0,,10,,,69,127
76798,note_off,0,0,0,,3,,,75,127
76800,note_on,2,0,0,,1,,,73,127
76800,note_on,0,0,0,,6,,,66,127
76968,note_off,168,0,0,,6,,,66,127
76968,note_off,0,0,0,,1,,,73,127
76970,note_on,2,0,0,,0,,,72,127
76970,note_on,0,0,0,,8,,,56,127
77138,note_off,168,0,0,,8,,,56,127
77140,note_on,2,0,0,,3,,,63,127
77308,note_off,168,0,0,,3,,,63,127
77310,note_on,2,0,0,,8,,,68,127
77476,note_off,166,0,0,,0,,,72,127
77478,note_off,2,0,0,,8,,,68,127
77480,note_on,2,0,0,,0,,,84,127
77480,note_on,0,0,0,,3,,,75,127
77480,note_on,0,0,0,,6,,,66,127
77648,note_off,168,0,0,,6,,,66,127
77648,note_off,0,0,0,,3,,,75,127
77648,note_off,0,0,0,,0,,,84,127
77650,note_on,2,0,0,,1,,,85,127
77650,note_on,0,0,0,,4,,,76,127
77650,note_on,0,0,0,,4,,,64,127
77818,note_off,168,0,0,,4,,,64,127
77818,note_off,0,0,0,,4,,,76,127
77818,note_off,0,0,0,,1,,,85,127
77820,note_on,2,0,0,,3,,,75,127
77820,note_on,0,0,0,,0,,,84,127
77820,note_on,0,0,0,,4,,,64,127
77988,note_off,168,0,0,,4,,,64,127
77990,note_on,2,0,0,,3,,,63,127
78156,note_off,166,0,0,,0,,,84,127
78156,note_off,0,0,0,,3,,,75,127
78158,note_off,2,0,0,,3,,,63,127
78160,note_on,2,0,0,,1,,,85,127
78160,note_on,0,0,0,,4,,,76,127
78160,note_on,0,0,0,,1,,,61,127
78328,note_off,168,0,0,,1,,,61,127
78328,note_off,0,0,0,,4,,,76,127
78328,note_off,0,0,0,,1,,,85,127
78330,note_on,2,0,0,,0,,,72,127
78330,note_on,0,0,0,,8,,,80,127
78330,note_on,0,0,0,,8,,,56,127
78498,note_off,168,0,0,,8,,,56,127
78500,note_on,2,0,0,,3,,,63,127
78668,note_off,168,0,0,,3,,,63,127
78670,note_on,2,0,0,,8,,,68,127
78836,note_off,166,0,0,,8,,,80,127
78836,note_off,0,0,0,,0,,,72,127
78838,note_off,2,0,0,,8,,,68,127
78840,note_on,2,0,0,,0,,,84,127
78840,note_on,0,0,0,,3,,,75,127
78840,note_on,0,0,0,,6,,,66,127
79008,note_off,168,0,0,,6,,,66,127
79008,note_off,0,0,0,,3,,,75,127
79008,note_off,0,0,0,,0,,,84,127
79010,note_on,2,0,0,,4,,,76,127
79010,note_on,0,0,0,,1,,,85,127
79010,note_on,0,0,0,,4,,,64,127
79178,note_off,168,0,0,,4,,,64,127
79178,note_off,0,0,0,,1,,,85,127
79178,note_off,0,0,0,,4,,,76,127
79180,note_on,2,0,0,,0,,,84,127
79180,note_on,0,0,0,,3,,,75,127
79180,note_on,0,0,0,,4,,,64,127
79348,note_off,168,0,0,,4,,,64,127
79350,note_on,2,0,0,,3,,,63,127
79516,note_off,166,0,0,,3,,,75,127
79516,note_off,0,0,0,,0,,,84,127
79518,note_off,2,0,0,,3,,,63,127
79520,note_on,2,0,0,,1,,,85,127
79520,note_on,0,0,0,,4,,,76,127
79520,note_on,0,0,0,,1,,,61,127
79688,note_off,168,0,0,,1,,,61,127
79688,note_off,0,0,0,,4,,,76,127
79688,note_off,0,0,0,,1,,,85,127
79690,note_on,2,0,0,,8,,,80,127
79690,note_on,0,0,0,,0,,,72,127
79690,note_on,0,0,0,,8,,,44,127
79858,note_off,168,0,0,,8,,,44,127
79860,note_on,2,0,0,,3,,,51,127
80028,note_off,168,0,0,,3,,,51,127
80030,note_on,2,0,0,,8,,,56,127
80196,note_off,166,0,0,,0,,,72,127
80196,note_off,0,0,0,,8,,,80,127
80198,note_off,2,0,0,,8,,,56,127
80200,note_on,2,0,0,,0,,,72,127
80200,note_on,0,0,0,,3,,,63,127
80200,note_on,0,0,0,,6,,,54,127
80368,note_off,168,0,0,,6,,,54,127
80368,note_off,0,0,0,,3,,,63,127
80368,note_off,0,0,0,,0,,,72,127
80370,note_on,2,0,0,,1,,,73,127
80370,note_on,0,0,0,,4,,,64,127
80370,note_on,0,0,0,,4,,,52,127
80538,note_off,168,0,0,,4,,,52,127
80538,note_off,0,0,0,,4,,,64,127
80538,note_off,0,0,0,,1,,,73,127
80540,note_on,2,0,0,,3,,,63,127
80540,note_on,0,0,0,,0,,,72,127
80540,note_on,0,0,0,,4,,,52,127
80708,note_off,168,0,0,,4,,,52,127
80710,note_on,2,0,0,,3,,,51,127
80876,note_off,166,0,0,,0,,,72,127
80876,note_off,0,0,0,,3,,,63,127
80878,note_off,2,0,0,,3,,,51,127
80880,note_on,2,0,0,,4,,,64,127
80880,note_on,0,0,0,,1,,,73,127
80880,note_on,0,0,0,,1,,,49,127
81048,note_off,168,0,0,,1,,,49,127
81048,note_off,0,0,0,,1,,,73,127
81048,note_off,0,0,0,,4,,,64,127
81050,note_on,2,0,0,,0,,,60,127
81050,note_on,0,0,0,,8,,,68,127
81050,note_on,0,0,0,,8,,,44,127
81218,note_off,168,0,0,,8,,,44,127
81220,note_on,2,0,0,,3,,,51,127
81388,note_off,168,0,0,,3,,,51,127
81390,note_on,2,0,0,,8,,,56,127
81556,note_off,166,0,0,,8,,,68,127
81556,note_off,0,0,0,,0,,,60,127
81558,note_off,2,0,0,,8,,,56,127
81560,note_on,2,0,0,,0,,,72,127
81560,note_on,0,0,0,,3,,,63,127
81560,note_on,0,0,0,,6,,,54,127
81728,note_off,168,0,0,,6,,,54,127
81728,note_off,0,0,0,,3,,,63,127
81728,note_off,0,0,0,,0,,,72,127
81730,note_on,2,0,0,,4,,,64,127
81730,note_on,0,0,0,,1,,,73,127
81730,note_on,0,0,0,,4,,,52,127
81898,note_off,168,0,0,,4,,,52,127
81898,note_off,0,0,0,,1,,,73,127
81898,note_off,0,0,0,,4,,,64,127
81900,note_on,2,0,0,,0,,,72,127
81900,note_on,0,0,0,,3,,,63,127
81900,note_on,0,0,0,,4,,,52,127
82068,note_off,168,0,0,,4,,,52,127
82070,note_on,2,0,0,,3,,,51,127
82236,note_off,166,0,0,,3,,,63,127
82236,note_off,0,0,0,,0,,,72,127
82238,note_off,2,0,0,,3,,,51,127
82240,note_on,2,0,0,,1,,,73,127
82240,note_on,0,0,0,,4,,,64,127
82240,note_on,0,0,0,,1,,,49,127
82408,note_off,168,0,0,,1,,,49,127
82408,note_off,0,0,0,,4,,,64,127
82408,note_off,0,0,0,,1,,,73,127
82410,note_on,2,0,0,,3,,,75,127
82410,note_on,0,0,0,,8,,,68,127
82410,note_on,0,0,0,,0,,,48,127
82578,note_off,168,0,0,,0,,,48,127
82578,note_off,0,0,0,,8,,,68,127
82578,note_off,0,0,0,,3,,,75,127
82580,note_on,2,0,0,,6,,,78,127
82580,note_on,0,0,0,,8,,,44,127
82748,note_off,168,0,0,,8,,,44,127
82748,note_off,0,0,0,,6,,,78,127
82750,note_on,2,0,0,,4,,,76,127
82750,note_on,0,0,0,,1,,,49,127
82918,note_off,168,0,0,,1,,,49,127
82918,note_off,0,0,0,,4,,,76,127
82920,note_on,2,0,0,,3,,,75,127
82920,note_on,0,0,0,,6,,,54,127
83088,note_off,168,0,0,,6,,,54,127
83088,note_off,0,0,0,,3,,,75,127
83090,note_on,2,0,0,,4,,,76,127
83090,note_on,0,0,0,,8,,,80,127
83090,note_on,0,0,0,,8,,,56,127
83258,note_off,168,0,0,,4,,,76,127
83260,note_on,2,0,0,,1,,,73,127
83426,note_off,166,0,0,,8,,,56,127
83428,note_off,2,0,0,,1,,,73,127
83430,note_on,2,0,0,,3,,,75,127
83430,note_on,0,0,0,,8,,,44,127
83598,note_off,168,0,0,,3,,,75,127
83600,note_on,2,0,0,,0,,,72,127
83762,note_off,162,0,0,,8,,,80,127
83766,note_off,4,0,0,,8,,,44,127
83768,note_off,2,0,0,,0,,,72,127
83770,note_on,2,0,0,,1,,,73,127
83770,note_on,0,0,0,,10,,,45,127
83938,note_off,168,0,0,,1,,,73,127
83940,note_on,2,0,0,,6,,,78,127
83940,note_on,0,0,0,,10,,,57,127
84106,note_off,166,0,0,,10,,,45,127
84108,note_off,2,0,0,,10,,,57,127
84110,note_on,2,0,0,,8,,,80,127
84110,note_on,0,0,0,,8,,,56,127
84114,note_off,4,0,0,,6,,,78,127
84278,note_off,164,0,0,,8,,,56,127
84280,note_on,2,0,0,,10,,,81,127
84280,note_on,0,0,0,,6,,,54,127
84284,note_off,4,0,0,,8,,,80,127
84448,note_off,164,0,0,,6,,,54,127
84450,note_on,2,0,0,,8,,,80,127
84450,note_on,0,0,0,,0,,,60,127
84454,note_off,4,0,0,,10,,,81,127
84618,note_off,164,0,0,,0,,,60,127
84620,note_on,2,0,0,,6,,,78,127
84620,note_on,0,0,0,,11,,,58,127
84624,note_off,4,0,0,,8,,,80,127
84788,note_off,164,0,0,,11,,,58,127
84790,note_on,2,0,0,,4,,,76,127
84790,note_on,0,0,0,,8,,,56,127
84794,note_off,4,0,0,,6,,,78,127
84958,note_off,164,0,0,,8,,,56,127
84960,note_on,2,0,0,,3,,,75,127
84960,note_on,0,0,0,,0,,,60,127
84964,note_off,4,0,0,,4,,,76,127
85128,note_off,164,0,0,,0,,,60,127
85128,note_off,0,0,0,,3,,,75,127
85130,note_on,2,0,0,,4,,,76,127
85130,note_on,0,0,0,,1,,,61,127
85299,note_on,169,0,0,,8,,,68,127
85465,note_off,166,0,0,,1,,,61,127
85467,note_off,2,0,0,,8,,,68,127
85469,note_on,2,0,0,,10,,,69,127
85469,note_on,0,0,0,,6,,,54,127
85469,note_on,0,0,0,,6,,,66,127
85624,note_off,155,0,0,,4,,,76,127
85638,note_on,14,0,0,,3,,,75,127
85804,note_off,166,0,0,,6,,,66,127
85804,note_off,0,0,0,,6,,,54,127
85804,note_off,0,0,0,,10,,,69,127
85808,note_on,4,0,0,,8,,,56,127
85808,note_on,0,0,0,,8,,,68,127
85974,note_off,166,0,0,,3,,,75,127
85978,note_on,4,0,0,,1,,,73,127
86144,note_off,166,0,0,,8,,,68,127
86148,note_on,4,0,0,,6,,,66,127
86314,note_off,166,0,0,,1,,,73,127
86318,note_on,4,0,0,,0,,,72,127
86480,note_off,162,0,0,,8,,,56,127
86485,note_off,5,0,0,,0,,,72,127
86487,note_on,2,0,0,,1,,,73,127
86653,note_off,166,0,0,,6,,,66,127
86655,note_off,2,0,0,,1,,,73,127
86657,note_on,2,0,0,,6,,,66,127
86657,note_on,0,0,0,,10,,,57,127
86825,note_off,168,0,0,,10,,,57,127
86827,note_on,2,0,0,,8,,,68,127
86827,note_on,0,0,0,,8,,,56,127
86831,note_off,4,0,0,,6,,,66,127
86995,note_off,164,0,0,,8,,,56,127
86997,note_on,2,0,0,,10,,,69,127
86997,note_on,0,0,0,,6,,,54,127
87001,note_off,4,0,0,,8,,,68,127
87165,note_off,164,0,0,,6,,,54,127
87167,note_on,2,0,0,,8,,,68,127
87167,note_on,0,0,0,,0,,,48,127
87171,note_off,4,0,0,,10,,,69,127
87335,note_off,164,0,0,,0,,,48,127
87337,note_on,2,0,0,,6,,,66,127
87337,note_on,0,0,0,,11,,,46,127
87341,note_off,4,0,0,,8,,,68,127
87505,note_off,164,0,0,,11,,,46,127
87507,note_on,2,0,0,,4,,,64,127
87507,note_on,0,0,0,,8,,,44,127
87511,note_off,4,0,0,,6,,,66,127
87675,note_off,164,0,0,,8,,,44,127
87677,note_on,2,0,0,,0,,,48,127
87677,note_on,0,0,0,,3,,,63,127
87681,note_off,4,0,0,,4,,,64,127
87845,note_off,164,0,0,,3,,,63,127
87845,note_off,0,0,0,,0,,,48,127
87849,note_on,4,0,0,,1,,,49,127
87849,note_on,0,0,0,,4,,,64,127
88022,note_on,173,0,0,,8,,,56,127
88184,note_off,162,0,0,,1,,,49,127
88189,note_off,5,0,0,,8,,,56,127
88194,note_on,5,0,0,,6,,,54,127
88194,note_on,0,0,0,,6,,,42,127
88194,note_on,0,0,0,,10,,,57,127
88342,note_off,148,0,0,,4,,,64,127
88367,note_on,25,0,0,,3,,,63,127
88529,note_off,162,0,0,,10,,,57,127
88529,note_off,0,0,0,,6,,,42,127
88529,note_off,0,0,0,,6,,,54,127
88540,note_on,11,0,0,,4,,,52,127
88540,note_on,0,0,0,,8,,,44,127
88540,note_on,0,0,0,,8,,,56,127
88702,note_off,162,0,0,,3,,,63,127
88713,note_on,11,0,0,,1,,,61,127
88875,note_off,162,0,0,,8,,,56,127
88875,note_off,0,0,0,,4,,,52,127
88886,note_on,11,0,0,,3,,,51,127
88886,note_on,0,0,0,,6,,,54,127
89048,note_off,162,0,0,,1,,,61,127
89059,note_on,11,0,0,,0,,,60,127
89211,note_off,152,0,0,,8,,,44,127
89222,note_off,11,0,0,,6,,,54,127
89222,note_off,0,0,0,,3,,,51,127
89227,note_off,5,0,0,,0,,,60,127
89232,note_on,5,0,0,,1,,,49,127
89232,note_on,0,0,0,,1,,,37,127
89232,note_on,0,0,0,,6,,,54,127
89232,note_on,0,0,0,,0,,,60,127
89737,note_off,505,0,0,,0,,,60,127
89737,note_off,0,0,0,,6,,,54,127
89751,note_on,14,0,0,,1,,,61,127
89751,note_on,0,0,0,,4,,,52,127
91913,note_off,2162,0,0,,4,,,52,127
91913,note_off,0,0,0,,1,,,61,127
91913,note_off,0,0,0,,1,,,37,127
91913,note_off,0,0,0,,1,,,49,127
93696,end_of_track,1783,1,0,,,,,,
