tick,type,time,meta,track,program,channel,pitch,tempo,note,velocity
0,copyright,0,1,0,,,,,,
0,program_change,0,0,0,6,0,,,,
0,pitchwheel,0,0,0,,0,0,,,
0,program_change,0,0,0,6,1,,,,
0,pitchwheel,0,0,0,,1,-590,,,
0,program_change,0,0,0,6,2,,,,
0,pitchwheel,0,0,0,,2,-272,,,
0,program_change,0,0,0,6,3,,,,
0,pitchwheel,0,0,0,,3,-353,,,
0,program_change,0,0,0,6,4,,,,
0,pitchwheel,0,0,0,,4,-560,,,
0,program_change,0,0,0,6,5,,,,
0,pitchwheel,0,0,0,,5,-80,,,
0,program_change,0,0,0,6,6,,,,
0,pitchwheel,0,0,0,,6,-625,,,
0,program_change,0,0,0,6,7,,,,
0,pitchwheel,0,0,0,,7,-130,,,
0,program_change,0,0,0,6,8,,,,
0,pitchwheel,0,0,0,,8,-512,,,
0,program_change,0,0,0,6,10,,,,
0,pitchwheel,0,0,0,,10,-464,,,
0,program_change,0,0,0,6,11,,,,
0,pitchwheel,0,0,0,,11,-208,,,
0,program_change,0,0,0,6,12,,,,
0,pitchwheel,0,0,0,,12,-553,,,
0,set_tempo,0,1,0,,,,500000,,
172,note_on,172,0,0,,1,,,73,127
514,note_off,342,0,0,,1,,,73,127
516,note_on,2,0,0,,8,,,80,127
858,note_off,342,0,0,,8,,,80,127
860,note_on,2,0,0,,4,,,76,127
1202,note_off,342,0,0,,4,,,76,127
1204,note_on,2,0,0,,1,,,61,127
1204,note_on,0,0,0,,3,,,75,127
1374,note_off,170,0,0,,3,,,75,127
1376,note_on,2,0,0,,1,,,73,127
1546,note_off,170,0,0,,1,,,61,127
1548,note_on,2,0,0,,8,,,68,127
1718,note_off,170,0,0,,1,,,73,127
1720,note_on,2,0,0,,0,,,72,127
1890,note_off,170,0,0,,0,,,72,127
1890,note_off,0,0,0,,8,,,68,127
1892,note_on,2,0,0,,4,,,64,127
1892,note_on,0,0,0,,1,,,73,127
2062,note_off,170,0,0,,1,,,73,127
2064,note_on,2,0,0,,3,,,75,127
2234,note_off,170,0,0,,3,,,75,127
2234,note_off,0,0,0,,4,,,64,127
2236,note_on,2,0,0,,1,,,61,127
2236,note_on,0,0,0,,4,,,76,127
2408,note_on,172,0,0,,1,,,73,127
2578,note_off,170,0,0,,1,,,73,127
2580,note_on,2,0,0,,8,,,68,127
2738,note_off,158,0,0,,4,,,76,127
2751,note_off,13,0,0,,1,,,61,127
2753,note_on,2,0,0,,12,,,59,127
2753,note_on,0,0,0,,3,,,75,127
2923,note_off,170,0,0,,3,,,75,127
2923,note_off,0,0,0,,12,,,59,127
2925,note_on,2,0,0,,10,,,57,127
2925,note_on,0,0,0,,1,,,73,127
3083,note_off,158,0,0,,8,,,68,127
3097,note_on,14,0,0,,6,,,66,127
3267,note_off,170,0,0,,6,,,66,127
3267,note_off,0,0,0,,10,,,57,127
3269,note_on,2,0,0,,8,,,56,127
3269,note_on,0,0,0,,4,,,64,127
3439,note_off,170,0,0,,4,,,64,127
3441,note_on,2,0,0,,1,,,61,127
3611,note_off,170,0,0,,1,,,61,127
3613,note_on,2,0,0,,3,,,63,127
3783,note_off,170,0,0,,8,,,56,127
3785,note_off,2,0,0,,1,,,73,127
3785,note_on,0,0,0,,6,,,54,127
3785,note_on,0,0,0,,0,,,72,127
3953,note_off,168,0,0,,3,,,63,127
3955,note_off,2,0,0,,0,,,72,127
3955,note_off,0,0,0,,6,,,54,127
3957,note_on,2,0,0,,4,,,52,127
3957,note_on,0,0,0,,1,,,73,127
4129,note_on,172,0,0,,4,,,64,127
4299,note_off,170,0,0,,4,,,64,127
4299,note_off,0,0,0,,4,,,52,127
4301,note_on,2,0,0,,3,,,51,127
4301,note_on,0,0,0,,6,,,66,127
4459,note_off,158,0,0,,1,,,73,127
4473,note_on,14,0,0,,3,,,75,127
4643,note_off,170,0,0,,3,,,75,127
4643,note_off,0,0,0,,3,,,51,127
4645,note_on,2,0,0,,1,,,49,127
4645,note_on,0,0,0,,4,,,76,127
4803,note_off,158,0,0,,6,,,66,127
4817,note_on,14,0,0,,8,,,68,127
4987,note_off,170,0,0,,8,,,68,127
4987,note_off,0,0,0,,1,,,49,127
4989,note_on,2,0,0,,6,,,54,127
4989,note_on,0,0,0,,10,,,69,127
5147,note_off,158,0,0,,4,,,76,127
5161,note_on,14,0,0,,6,,,78,127
5329,note_off,168,0,0,,10,,,69,127
5331,note_off,2,0,0,,6,,,78,127
5331,note_off,0,0,0,,6,,,54,127
5333,note_on,2,0,0,,4,,,52,127
5333,note_on,0,0,0,,8,,,80,127
5505,note_on,172,0,0,,1,,,73,127
5675,note_off,170,0,0,,1,,,73,127
5675,note_off,0,0,0,,4,,,52,127
5677,note_on,2,0,0,,3,,,51,127
5677,note_on,0,0,0,,3,,,75,127
5835,note_off,158,0,0,,8,,,80,127
5849,note_on,14,0,0,,0,,,84,127
6017,note_off,168,0,0,,3,,,75,127
6019,note_off,2,0,0,,0,,,84,127
6019,note_off,0,0,0,,3,,,51,127
6021,note_on,2,0,0,,1,,,49,127
6021,note_on,0,0,0,,1,,,85,127
6191,note_off,170,0,0,,1,,,85,127
6193,note_on,2,0,0,,8,,,80,127
6363,note_off,170,0,0,,8,,,80,127
6363,note_off,0,0,0,,1,,,49,127
6365,note_on,2,0,0,,6,,,54,127
6365,note_on,0,0,0,,10,,,81,127
6535,note_off,170,0,0,,10,,,81,127
6537,note_on,2,0,0,,1,,,73,127
6707,note_off,170,0,0,,1,,,73,127
6707,note_off,0,0,0,,6,,,54,127
6709,note_on,2,0,0,,12,,,59,127
6709,note_on,0,0,0,,3,,,75,127
6881,note_on,172,0,0,,10,,,69,127
7051,note_off,170,0,0,,10,,,69,127
7051,note_off,0,0,0,,12,,,59,127
7053,note_on,2,0,0,,4,,,52,127
7053,note_on,0,0,0,,8,,,68,127
7211,note_off,158,0,0,,3,,,75,127
7225,note_on,14,0,0,,1,,,73,127
7393,note_off,168,0,0,,8,,,68,127
7395,note_off,2,0,0,,4,,,52,127
7397,note_on,2,0,0,,3,,,51,127
7397,note_on,0,0,0,,6,,,66,127
7565,note_off,168,0,0,,1,,,73,127
7569,note_on,4,0,0,,0,,,72,127
7739,note_off,170,0,0,,0,,,72,127
7739,note_off,0,0,0,,3,,,51,127
7741,note_on,2,0,0,,1,,,49,127
7741,note_on,0,0,0,,1,,,73,127
7899,note_off,158,0,0,,6,,,66,127
7913,note_on,14,0,0,,10,,,69,127
8083,note_off,170,0,0,,10,,,69,127
8083,note_off,0,0,0,,1,,,49,127
8085,note_on,2,0,0,,0,,,48,127
8085,note_on,0,0,0,,8,,,68,127
8243,note_off,158,0,0,,1,,,73,127
8257,note_on,14,0,0,,3,,,75,127
8425,note_off,168,0,0,,8,,,68,127
8427,note_off,2,0,0,,3,,,75,127
8427,note_off,0,0,0,,0,,,48,127
8429,note_on,2,0,0,,1,,,49,127
8429,note_on,0,0,0,,4,,,76,127
8599,note_off,170,0,0,,4,,,76,127
8601,note_on,2,0,0,,1,,,73,127
8771,note_off,170,0,0,,1,,,73,127
8773,note_on,2,0,0,,8,,,68,127
8943,note_off,170,0,0,,8,,,68,127
8943,note_off,0,0,0,,1,,,49,127
8945,note_on,2,0,0,,12,,,47,127
8945,note_on,0,0,0,,4,,,64,127
9115,note_off,170,0,0,,4,,,64,127
9115,note_off,0,0,0,,12,,,47,127
9117,note_on,2,0,0,,10,,,45,127
9117,note_on,0,0,0,,8,,,80,127
9201,note_off,84,0,0,,8,,,80,127
9203,note_on,2,0,0,,6,,,78,127
9287,note_off,84,0,0,,6,,,78,127
9289,note_on,2,0,0,,4,,,76,127
9373,note_off,84,0,0,,4,,,76,127
9375,note_on,2,0,0,,6,,,78,127
9459,note_off,84,0,0,,6,,,78,127
9459,note_off,0,0,0,,10,,,45,127
9461,note_on,2,0,0,,8,,,44,127
9461,note_on,0,0,0,,8,,,80,127
9631,note_off,170,0,0,,8,,,80,127
9633,note_on,2,0,0,,3,,,75,127
9803,note_off,170,0,0,,3,,,75,127
9805,note_on,2,0,0,,0,,,72,127
9975,note_off,170,0,0,,0,,,72,127
9977,note_on,2,0,0,,8,,,68,127
10147,note_off,170,0,0,,8,,,68,127
10149,note_on,2,0,0,,3,,,63,127
10319,note_off,170,0,0,,3,,,63,127
10321,note_on,2,0,0,,0,,,60,127
10491,note_off,170,0,0,,0,,,60,127
10491,note_off,0,0,0,,8,,,44,127
10493,note_on,2,0,0,,8,,,44,127
10493,note_on,0,0,0,,8,,,56,127
11442,note_off,949,0,0,,8,,,56,127
11523,note_off,81,0,0,,8,,,44,127
11525,note_on,2,0,0,,8,,,56,127
11525,note_on,0,0,0,,12,,,59,127
11697,note_on,172,0,0,,3,,,63,127
11869,note_on,172,0,0,,3,,,75,127
12037,note_off,168,0,0,,3,,,63,127
12039,note_off,2,0,0,,12,,,59,127
12039,note_off,0,0,0,,8,,,56,127
12041,note_on,2,0,0,,12,,,59,127
12041,note_on,0,0,0,,8,,,56,127
12211,note_off,170,0,0,,8,,,56,127
12211,note_off,0,0,0,,12,,,59,127
12213,note_on,2,0,0,,11,,,58,127
12213,note_on,0,0,0,,7,,,55,127
12383,note_off,170,0,0,,7,,,55,127
12385,note_on,2,0,0,,3,,,51,127
12553,note_off,168,0,0,,11,,,58,127
12555,note_off,2,0,0,,3,,,51,127
12557,note_on,2,0,0,,8,,,56,127
12557,note_on,0,0,0,,4,,,52,127
12727,note_off,170,0,0,,3,,,75,127
12729,note_on,2,0,0,,1,,,73,127
12899,note_off,170,0,0,,1,,,73,127
12901,note_on,2,0,0,,12,,,71,127
13071,note_off,170,0,0,,12,,,71,127
13071,note_off,0,0,0,,4,,,52,127
13071,note_off,0,0,0,,8,,,56,127
13073,note_on,2,0,0,,1,,,61,127
13073,note_on,0,0,0,,4,,,52,127
13073,note_on,0,0,0,,11,,,70,127
13243,note_off,170,0,0,,11,,,70,127
13243,note_off,0,0,0,,4,,,52,127
13243,note_off,0,0,0,,1,,,61,127
13245,note_on,2,0,0,,3,,,51,127
13245,note_on,0,0,0,,12,,,59,127
13245,note_on,0,0,0,,8,,,68,127
13415,note_off,170,0,0,,8,,,68,127
13415,note_off,0,0,0,,12,,,59,127
13417,note_on,2,0,0,,11,,,58,127
13417,note_on,0,0,0,,7,,,67,127
13585,note_off,168,0,0,,3,,,51,127
13587,note_off,2,0,0,,7,,,67,127
13587,note_off,0,0,0,,11,,,58,127
13589,note_on,2,0,0,,8,,,56,127
13589,note_on,0,0,0,,12,,,59,127
13589,note_on,0,0,0,,8,,,68,127
13759,note_off,170,0,0,,8,,,68,127
13761,note_on,2,0,0,,3,,,63,127
13933,note_on,172,0,0,,3,,,75,127
14101,note_off,168,0,0,,3,,,63,127
14103,note_off,2,0,0,,12,,,59,127
14103,note_off,0,0,0,,8,,,56,127
14105,note_on,2,0,0,,8,,,56,127
14105,note_on,0,0,0,,12,,,59,127
14275,note_off,170,0,0,,12,,,59,127
14275,note_off,0,0,0,,8,,,56,127
14277,note_on,2,0,0,,11,,,58,127
14277,note_on,0,0,0,,7,,,55,127
14447,note_off,170,0,0,,7,,,55,127
14449,note_on,2,0,0,,3,,,51,127
14617,note_off,168,0,0,,11,,,58,127
14619,note_off,2,0,0,,3,,,51,127
14621,note_on,2,0,0,,8,,,56,127
14621,note_on,0,0,0,,4,,,52,127
14791,note_off,170,0,0,,3,,,75,127
14793,note_on,2,0,0,,1,,,73,127
14963,note_off,170,0,0,,1,,,73,127
14965,note_on,2,0,0,,12,,,71,127
15135,note_off,170,0,0,,12,,,71,127
15135,note_off,0,0,0,,4,,,52,127
15135,note_off,0,0,0,,8,,,56,127
15137,note_on,2,0,0,,1,,,61,127
15137,note_on,0,0,0,,4,,,52,127
15137,note_on,0,0,0,,11,,,70,127
15307,note_off,170,0,0,,11,,,70,127
15307,note_off,0,0,0,,4,,,52,127
15307,note_off,0,0,0,,1,,,61,127
15309,note_on,2,0,0,,12,,,59,127
15309,note_on,0,0,0,,3,,,51,127
15309,note_on,0,0,0,,8,,,68,127
15479,note_off,170,0,0,,8,,,68,127
15479,note_off,0,0,0,,12,,,59,127
15481,note_on,2,0,0,,11,,,58,127
15481,note_on,0,0,0,,7,,,67,127
15649,note_off,168,0,0,,3,,,51,127
15651,note_off,2,0,0,,7,,,67,127
15651,note_off,0,0,0,,11,,,58,127
15653,note_on,2,0,0,,12,,,59,127
15653,note_on,0,0,0,,8,,,56,127
15653,note_on,0,0,0,,8,,,68,127
15823,note_off,170,0,0,,8,,,68,127
15825,note_on,2,0,0,,11,,,70,127
15995,note_off,170,0,0,,11,,,70,127
15997,note_on,2,0,0,,12,,,71,127
16167,note_off,170,0,0,,12,,,71,127
16167,note_off,0,0,0,,8,,,56,127
16167,note_off,0,0,0,,12,,,59,127
16169,note_on,2,0,0,,11,,,58,127
16169,note_on,0,0,0,,1,,,73,127
16339,note_off,170,0,0,,1,,,73,127
16339,note_off,0,0,0,,11,,,58,127
16341,note_on,2,0,0,,12,,,59,127
16341,note_on,0,0,0,,3,,,75,127
16511,note_off,170,0,0,,3,,,75,127
16511,note_off,0,0,0,,12,,,59,127
16513,note_on,2,0,0,,8,,,56,127
16513,note_on,0,0,0,,5,,,77,127
16683,note_off,170,0,0,,5,,,77,127
16683,note_off,0,0,0,,8,,,56,127
16685,note_on,2,0,0,,6,,,54,127
16685,note_on,0,0,0,,11,,,58,127
16685,note_on,0,0,0,,6,,,78,127
16855,note_off,170,0,0,,6,,,78,127
16857,note_on,2,0,0,,1,,,73,127
17027,note_off,170,0,0,,1,,,73,127
17029,note_on,2,0,0,,11,,,70,127
17199,note_off,170,0,0,,11,,,70,127
17199,note_off,0,0,0,,11,,,58,127
17199,note_off,0,0,0,,6,,,54,127
17201,note_on,2,0,0,,8,,,56,127
17201,note_on,0,0,0,,12,,,59,127
17201,note_on,0,0,0,,6,,,66,127
17371,note_off,170,0,0,,12,,,59,127
17371,note_off,0,0,0,,8,,,56,127
17373,note_on,2,0,0,,1,,,61,127
17373,note_on,0,0,0,,11,,,58,127
17373,note_on,0,0,0,,6,,,78,127
17541,note_off,168,0,0,,6,,,66,127
17543,note_off,2,0,0,,11,,,58,127
17545,note_on,2,0,0,,6,,,54,127
17713,note_off,168,0,0,,1,,,61,127
17715,note_off,2,0,0,,6,,,54,127
17717,note_on,2,0,0,,3,,,63,127
17717,note_on,0,0,0,,12,,,59,127
17887,note_off,170,0,0,,6,,,78,127
17889,note_on,2,0,0,,4,,,76,127
18059,note_off,170,0,0,,4,,,76,127
18061,note_on,2,0,0,,3,,,75,127
18231,note_off,170,0,0,,3,,,75,127
18233,note_on,2,0,0,,1,,,73,127
18403,note_off,170,0,0,,1,,,73,127
18403,note_off,0,0,0,,12,,,59,127
18403,note_off,0,0,0,,3,,,63,127
18405,note_on,2,0,0,,4,,,64,127
18405,note_on,0,0,0,,1,,,61,127
18405,note_on,0,0,0,,12,,,71,127
18575,note_off,170,0,0,,12,,,71,127
18577,note_on,2,0,0,,11,,,70,127
18747,note_off,170,0,0,,11,,,70,127
18747,note_off,0,0,0,,1,,,61,127
18747,note_off,0,0,0,,4,,,64,127
18749,note_on,2,0,0,,6,,,66,127
18749,note_on,0,0,0,,3,,,63,127
18749,note_on,0,0,0,,12,,,71,127
18919,note_off,170,0,0,,12,,,71,127
18919,note_off,0,0,0,,3,,,63,127
18919,note_off,0,0,0,,6,,,66,127
18921,note_on,2,0,0,,4,,,64,127
18921,note_on,0,0,0,,1,,,61,127
18921,note_on,0,0,0,,1,,,73,127
19091,note_off,170,0,0,,1,,,73,127
19091,note_off,0,0,0,,1,,,61,127
19091,note_off,0,0,0,,4,,,64,127
19093,note_on,2,0,0,,3,,,63,127
19093,note_on,0,0,0,,12,,,59,127
19093,note_on,0,0,0,,3,,,75,127
19263,note_off,170,0,0,,12,,,59,127
19263,note_off,0,0,0,,3,,,63,127
19265,note_on,2,0,0,,1,,,61,127
19265,note_on,0,0,0,,11,,,58,127
19435,note_off,170,0,0,,11,,,58,127
19435,note_off,0,0,0,,1,,,61,127
19437,note_on,2,0,0,,8,,,56,127
19437,note_on,0,0,0,,12,,,59,127
19607,note_off,170,0,0,,3,,,75,127
19609,note_on,2,0,0,,5,,,77,127
19779,note_off,170,0,0,,5,,,77,127
19779,note_off,0,0,0,,12,,,59,127
19779,note_off,0,0,0,,8,,,56,127
19781,note_on,2,0,0,,6,,,54,127
19781,note_on,0,0,0,,11,,,58,127
19781,note_on,0,0,0,,6,,,78,127
19951,note_off,170,0,0,,6,,,78,127
19953,note_on,2,0,0,,8,,,80,127
20123,note_off,170,0,0,,8,,,80,127
20125,note_on,2,0,0,,11,,,82,127
20295,note_off,170,0,0,,11,,,58,127
20295,note_off,0,0,0,,6,,,54,127
20297,note_on,2,0,0,,8,,,56,127
20297,note_on,0,0,0,,5,,,53,127
20467,note_off,170,0,0,,5,,,53,127
20467,note_off,0,0,0,,8,,,56,127
20469,note_on,2,0,0,,6,,,54,127
20469,note_on,0,0,0,,3,,,51,127
20639,note_off,170,0,0,,3,,,51,127
20639,note_off,0,0,0,,6,,,54,127
20641,note_on,2,0,0,,4,,,52,127
20641,note_on,0,0,0,,1,,,49,127
20806,note_off,165,0,0,,11,,,82,127
20811,note_off,5,0,0,,1,,,49,127
20811,note_off,0,0,0,,4,,,52,127
20813,note_on,2,0,0,,3,,,51,127
20813,note_on,0,0,0,,12,,,47,127
20985,note_on,172,0,0,,12,,,83,127
21135,note_off,150,0,0,,12,,,47,127
21135,note_off,0,0,0,,3,,,51,127
21155,note_off,20,0,0,,12,,,83,127
21157,note_on,2,0,0,,11,,,82,127
21241,note_off,84,0,0,,11,,,82,127
21243,note_on,2,0,0,,8,,,80,127
21327,note_off,84,0,0,,8,,,80,127
21329,note_on,2,0,0,,12,,,71,127
21329,note_on,0,0,0,,3,,,75,127
21329,note_on,0,0,0,,6,,,78,127
21413,note_off,84,0,0,,6,,,78,127
21415,note_on,2,0,0,,5,,,77,127
21499,note_off,84,0,0,,3,,,75,127
21499,note_off,0,0,0,,12,,,71,127
21501,note_on,2,0,0,,1,,,73,127
21501,note_on,0,0,0,,11,,,70,127
21671,note_off,170,0,0,,11,,,70,127
21671,note_off,0,0,0,,5,,,77,127
21673,note_on,2,0,0,,6,,,66,127
21673,note_on,0,0,0,,6,,,78,127
21841,note_off,168,0,0,,1,,,73,127
21843,note_off,2,0,0,,6,,,66,127
21845,note_on,2,0,0,,3,,,75,127
21845,note_on,0,0,0,,12,,,71,127
21931,note_off,86,0,0,,6,,,78,127
22017,note_on,86,0,0,,12,,,83,127
22187,note_off,170,0,0,,12,,,83,127
22189,note_on,2,0,0,,11,,,82,127
22273,note_off,84,0,0,,11,,,82,127
22275,note_on,2,0,0,,8,,,80,127
22359,note_off,84,0,0,,8,,,80,127
22359,note_off,0,0,0,,12,,,71,127
22359,note_off,0,0,0,,3,,,75,127
22361,note_on,2,0,0,,3,,,75,127
22361,note_on,0,0,0,,12,,,71,127
22361,note_on,0,0,0,,6,,,78,127
22445,note_off,84,0,0,,6,,,78,127
22447,note_on,2,0,0,,5,,,77,127
22531,note_off,84,0,0,,12,,,71,127
22531,note_off,0,0,0,,3,,,75,127
22533,note_on,2,0,0,,11,,,70,127
22533,note_on,0,0,0,,1,,,73,127
22703,note_off,170,0,0,,11,,,70,127
22703,note_off,0,0,0,,5,,,77,127
22705,note_on,2,0,0,,6,,,66,127
22705,note_on,0,0,0,,6,,,78,127
22873,note_off,168,0,0,,1,,,73,127
22875,note_off,2,0,0,,6,,,66,127
22877,note_on,2,0,0,,12,,,71,127
22877,note_on,0,0,0,,8,,,68,127
22963,note_off,86,0,0,,6,,,78,127
23049,note_on,86,0,0,,8,,,80,127
23219,note_off,170,0,0,,8,,,80,127
23221,note_on,2,0,0,,6,,,78,127
23305,note_off,84,0,0,,6,,,78,127
23307,note_on,2,0,0,,5,,,77,127
23391,note_off,84,0,0,,5,,,77,127
23391,note_off,0,0,0,,8,,,68,127
23391,note_off,0,0,0,,12,,,71,127
23393,note_on,2,0,0,,12,,,71,127
23393,note_on,0,0,0,,8,,,68,127
23393,note_on,0,0,0,,3,,,75,127
23477,note_off,84,0,0,,3,,,75,127
23479,note_on,2,0,0,,2,,,74,127
23563,note_off,84,0,0,,8,,,68,127
23563,note_off,0,0,0,,12,,,71,127
23565,note_on,2,0,0,,11,,,70,127
23565,note_on,0,0,0,,7,,,67,127
23735,note_off,170,0,0,,7,,,67,127
23735,note_off,0,0,0,,2,,,74,127
23737,note_on,2,0,0,,3,,,63,127
23737,note_on,0,0,0,,3,,,75,127
23905,note_off,168,0,0,,11,,,70,127
23907,note_off,2,0,0,,3,,,63,127
23909,note_on,2,0,0,,12,,,71,127
23909,note_on,0,0,0,,8,,,68,127
23995,note_off,86,0,0,,3,,,75,127
24081,note_on,86,0,0,,8,,,80,127
24251,note_off,170,0,0,,8,,,80,127
24253,note_on,2,0,0,,6,,,78,127
24337,note_off,84,0,0,,6,,,78,127
24339,note_on,2,0,0,,5,,,77,127
24423,note_off,84,0,0,,5,,,77,127
24423,note_off,0,0,0,,8,,,68,127
24423,note_off,0,0,0,,12,,,71,127
24425,note_on,2,0,0,,12,,,71,127
24425,note_on,0,0,0,,8,,,68,127
24425,note_on,0,0,0,,3,,,75,127
24509,note_off,84,0,0,,3,,,75,127
24511,note_on,2,0,0,,2,,,74,127
24595,note_off,84,0,0,,8,,,68,127
24595,note_off,0,0,0,,12,,,71,127
24597,note_on,2,0,0,,11,,,70,127
24597,note_on,0,0,0,,7,,,67,127
24767,note_off,170,0,0,,7,,,67,127
24767,note_off,0,0,0,,2,,,74,127
24769,note_on,2,0,0,,3,,,63,127
24769,note_on,0,0,0,,3,,,75,127
24937,note_off,168,0,0,,11,,,70,127
24939,note_off,2,0,0,,3,,,63,127
24941,note_on,2,0,0,,8,,,68,127
24941,note_on,0,0,0,,4,,,64,127
25027,note_off,86,0,0,,3,,,75,127
25113,note_on,86,0,0,,4,,,76,127
25283,note_off,170,0,0,,4,,,76,127
25285,note_on,2,0,0,,3,,,75,127
25369,note_off,84,0,0,,3,,,75,127
25371,note_on,2,0,0,,1,,,73,127
25455,note_off,84,0,0,,1,,,73,127
25455,note_off,0,0,0,,4,,,64,127
25455,note_off,0,0,0,,8,,,68,127
25457,note_on,2,0,0,,4,,,64,127
25457,note_on,0,0,0,,8,,,68,127
25457,note_on,0,0,0,,12,,,71,127
25541,note_off,84,0,0,,12,,,71,127
25543,note_on,2,0,0,,11,,,70,127
25627,note_off,84,0,0,,8,,,68,127
25627,note_off,0,0,0,,4,,,64,127
25629,note_on,2,0,0,,6,,,66,127
25629,note_on,0,0,0,,3,,,63,127
25799,note_off,170,0,0,,3,,,63,127
25799,note_off,0,0,0,,11,,,70,127
25801,note_on,2,0,0,,12,,,59,127
25801,note_on,0,0,0,,12,,,71,127
25969,note_off,168,0,0,,6,,,66,127
25971,note_off,2,0,0,,12,,,59,127
25973,note_on,2,0,0,,4,,,64,127
25973,note_on,0,0,0,,8,,,68,127
26059,note_off,86,0,0,,12,,,71,127
26145,note_on,86,0,0,,4,,,76,127
26315,note_off,170,0,0,,4,,,76,127
26317,note_on,2,0,0,,3,,,75,127
26401,note_off,84,0,0,,3,,,75,127
26403,note_on,2,0,0,,1,,,73,127
26487,note_off,84,0,0,,1,,,73,127
26487,note_off,0,0,0,,8,,,68,127
26487,note_off,0,0,0,,4,,,64,127
26489,note_on,2,0,0,,8,,,68,127
26489,note_on,0,0,0,,4,,,64,127
26489,note_on,0,0,0,,12,,,71,127
26573,note_off,84,0,0,,12,,,71,127
26575,note_on,2,0,0,,11,,,70,127
26659,note_off,84,0,0,,4,,,64,127
26659,note_off,0,0,0,,8,,,68,127
26661,note_on,2,0,0,,3,,,63,127
26661,note_on,0,0,0,,6,,,66,127
26831,note_off,170,0,0,,3,,,63,127
26831,note_off,0,0,0,,11,,,70,127
26833,note_on,2,0,0,,12,,,59,127
26833,note_on,0,0,0,,12,,,71,127
27001,note_off,168,0,0,,6,,,66,127
27003,note_off,2,0,0,,12,,,59,127
27005,note_on,2,0,0,,1,,,61,127
27005,note_on,0,0,0,,4,,,64,127
27091,note_off,86,0,0,,12,,,71,127
27177,note_on,86,0,0,,1,,,73,127
27347,note_off,170,0,0,,1,,,73,127
27349,note_on,2,0,0,,12,,,71,127
27433,note_off,84,0,0,,12,,,71,127
27435,note_on,2,0,0,,11,,,70,127
27519,note_off,84,0,0,,11,,,70,127
27519,note_off,0,0,0,,4,,,64,127
27519,note_off,0,0,0,,1,,,61,127
27521,note_on,2,0,0,,4,,,64,127
27521,note_on,0,0,0,,1,,,61,127
27521,note_on,0,0,0,,8,,,68,127
27605,note_off,84,0,0,,8,,,68,127
27607,note_on,2,0,0,,7,,,67,127
27691,note_off,84,0,0,,1,,,61,127
27691,note_off,0,0,0,,4,,,64,127
27693,note_on,2,0,0,,0,,,60,127
27693,note_on,0,0,0,,3,,,63,127
27863,note_off,170,0,0,,0,,,60,127
27863,note_off,0,0,0,,7,,,67,127
27865,note_on,2,0,0,,8,,,56,127
27865,note_on,0,0,0,,8,,,68,127
28033,note_off,168,0,0,,3,,,63,127
28035,note_off,2,0,0,,8,,,56,127
28037,note_on,2,0,0,,4,,,64,127
28037,note_on,0,0,0,,1,,,61,127
28123,note_off,86,0,0,,8,,,68,127
28209,note_on,86,0,0,,1,,,73,127
28379,note_off,170,0,0,,1,,,73,127
28381,note_on,2,0,0,,12,,,71,127
28465,note_off,84,0,0,,12,,,71,127
28467,note_on,2,0,0,,11,,,70,127
28551,note_off,84,0,0,,11,,,70,127
28551,note_off,0,0,0,,1,,,61,127
28551,note_off,0,0,0,,4,,,64,127
28553,note_on,2,0,0,,1,,,61,127
28553,note_on,0,0,0,,8,,,68,127
28637,note_off,84,0,0,,8,,,68,127
28639,note_on,2,0,0,,7,,,67,127
28723,note_off,84,0,0,,7,,,67,127
28723,note_off,0,0,0,,1,,,61,127
28725,note_on,2,0,0,,12,,,59,127
28725,note_on,0,0,0,,8,,,68,127
28895,note_off,170,0,0,,8,,,68,127
28895,note_off,0,0,0,,12,,,59,127
28897,note_on,2,0,0,,11,,,58,127
28897,note_on,0,0,0,,11,,,70,127
29067,note_off,170,0,0,,11,,,70,127
29067,note_off,0,0,0,,11,,,58,127
29069,note_on,2,0,0,,8,,,56,127
29069,note_on,0,0,0,,12,,,71,127
29239,note_off,170,0,0,,12,,,71,127
29239,note_off,0,0,0,,8,,,56,127
29241,note_on,2,0,0,,6,,,54,127
29241,note_on,0,0,0,,0,,,72,127
29411,note_off,170,0,0,,0,,,72,127
29411,note_off,0,0,0,,6,,,54,127
29413,note_on,2,0,0,,4,,,52,127
29413,note_on,0,0,0,,1,,,73,127
29583,note_off,170,0,0,,1,,,73,127
29583,note_off,0,0,0,,4,,,52,127
29585,note_on,2,0,0,,3,,,51,127
29585,note_on,0,0,0,,3,,,75,127
29755,note_off,170,0,0,,3,,,75,127
29755,note_off,0,0,0,,3,,,51,127
29757,note_on,2,0,0,,1,,,49,127
29757,note_on,0,0,0,,4,,,76,127
29927,note_off,170,0,0,,4,,,76,127
29929,note_on,2,0,0,,7,,,79,127
30099,note_off,170,0,0,,7,,,79,127
30099,note_off,0,0,0,,1,,,49,127
30101,note_on,2,0,0,,12,,,47,127
30101,note_on,0,0,0,,8,,,80,127
30271,note_off,170,0,0,,8,,,80,127
30273,note_on,2,0,0,,3,,,75,127
30443,note_off,170,0,0,,3,,,75,127
30443,note_off,0,0,0,,12,,,47,127
30445,note_on,2,0,0,,1,,,49,127
30445,note_on,0,0,0,,4,,,76,127
30617,note_on,172,0,0,,7,,,67,127
30785,note_off,168,0,0,,4,,,76,127
30787,note_off,2,0,0,,7,,,67,127
30787,note_off,0,0,0,,1,,,49,127
30789,note_on,2,0,0,,4,,,52,127
30789,note_on,0,0,0,,11,,,70,127
30873,note_off,84,0,0,,11,,,70,127
30875,note_on,2,0,0,,8,,,68,127
30959,note_off,84,0,0,,8,,,68,127
30961,note_on,2,0,0,,7,,,67,127
31045,note_off,84,0,0,,7,,,67,127
31047,note_on,2,0,0,,8,,,68,127
31131,note_off,84,0,0,,8,,,68,127
31131,note_off,0,0,0,,4,,,52,127
31133,note_on,2,0,0,,3,,,51,127
31133,note_on,0,0,0,,8,,,68,127
31475,note_off,342,0,0,,8,,,68,127
31477,note_on,2,0,0,,11,,,70,127
32050,note_off,573,0,0,,11,,,70,127
32163,note_off,113,0,0,,3,,,51,127
32165,note_on,2,0,0,,7,,,67,127
32165,note_on,0,0,0,,11,,,70,127
32165,note_on,0,0,0,,3,,,75,127
32249,note_off,84,0,0,,3,,,75,127
32251,note_on,2,0,0,,1,,,73,127
32335,note_off,84,0,0,,1,,,73,127
32337,note_on,2,0,0,,0,,,72,127
32421,note_off,84,0,0,,0,,,72,127
32423,note_on,2,0,0,,1,,,73,127
32507,note_off,84,0,0,,1,,,73,127
32509,note_on,2,0,0,,3,,,75,127
32679,note_off,170,0,0,,11,,,70,127
32679,note_off,0,0,0,,7,,,67,127
32681,note_on,2,0,0,,7,,,67,127
32681,note_on,0,0,0,,11,,,70,127
32851,note_off,170,0,0,,11,,,70,127
32851,note_off,0,0,0,,7,,,67,127
32853,note_on,2,0,0,,12,,,71,127
32853,note_on,0,0,0,,8,,,68,127
33023,note_off,170,0,0,,3,,,75,127
33025,note_on,2,0,0,,4,,,76,127
33195,note_off,170,0,0,,4,,,76,127
33195,note_off,0,0,0,,8,,,68,127
33195,note_off,0,0,0,,12,,,71,127
33197,note_on,2,0,0,,7,,,67,127
33197,note_on,0,0,0,,11,,,70,127
33197,note_on,0,0,0,,3,,,75,127
33281,note_off,84,0,0,,3,,,75,127
33283,note_on,2,0,0,,1,,,73,127
33367,note_off,84,0,0,,1,,,73,127
33369,note_on,2,0,0,,0,,,72,127
33453,note_off,84,0,0,,0,,,72,127
33455,note_on,2,0,0,,1,,,73,127
33539,note_off,84,0,0,,1,,,73,127
33541,note_on,2,0,0,,3,,,75,127
33711,note_off,170,0,0,,11,,,70,127
33711,note_off,0,0,0,,7,,,67,127
33713,note_on,2,0,0,,7,,,67,127
33713,note_on,0,0,0,,11,,,70,127
33883,note_off,170,0,0,,11,,,70,127
33883,note_off,0,0,0,,7,,,67,127
33885,note_on,2,0,0,,12,,,71,127
33885,note_on,0,0,0,,8,,,68,127
34055,note_off,170,0,0,,3,,,75,127
34057,note_on,2,0,0,,4,,,76,127
34227,note_off,170,0,0,,4,,,76,127
34227,note_off,0,0,0,,8,,,68,127
34227,note_off,0,0,0,,12,,,71,127
34229,note_on,2,0,0,,3,,,63,127
34229,note_on,0,0,0,,7,,,67,127
34229,note_on,0,0,0,,12,,,71,127
34313,note_off,84,0,0,,12,,,71,127
34315,note_on,2,0,0,,11,,,70,127
34399,note_off,84,0,0,,11,,,70,127
34401,note_on,2,0,0,,8,,,68,127
34485,note_off,84,0,0,,8,,,68,127
34487,note_on,2,0,0,,11,,,70,127
34571,note_off,84,0,0,,11,,,70,127
34573,note_on,2,0,0,,12,,,71,127
34743,note_off,170,0,0,,7,,,67,127
34743,note_off,0,0,0,,3,,,63,127
34745,note_on,2,0,0,,3,,,63,127
34745,note_on,0,0,0,,7,,,67,127
34915,note_off,170,0,0,,7,,,67,127
34915,note_off,0,0,0,,3,,,63,127
34917,note_on,2,0,0,,8,,,68,127
34917,note_on,0,0,0,,4,,,64,127
35087,note_off,170,0,0,,12,,,71,127
35089,note_on,2,0,0,,1,,,73,127
35259,note_off,170,0,0,,1,,,73,127
35259,note_off,0,0,0,,4,,,64,127
35259,note_off,0,0,0,,8,,,68,127
35261,note_on,2,0,0,,7,,,67,127
35261,note_on,0,0,0,,3,,,63,127
35261,note_on,0,0,0,,12,,,71,127
35345,note_off,84,0,0,,12,,,71,127
35347,note_on,2,0,0,,11,,,70,127
35431,note_off,84,0,0,,11,,,70,127
35433,note_on,2,0,0,,8,,,68,127
35517,note_off,84,0,0,,8,,,68,127
35519,note_on,2,0,0,,11,,,70,127
35603,note_off,84,0,0,,11,,,70,127
35605,note_on,2,0,0,,12,,,71,127
35775,note_off,170,0,0,,3,,,63,127
35775,note_off,0,0,0,,7,,,67,127
35777,note_on,2,0,0,,3,,,63,127
35777,note_on,0,0,0,,7,,,67,127
35947,note_off,170,0,0,,7,,,67,127
35947,note_off,0,0,0,,3,,,63,127
35949,note_on,2,0,0,,4,,,64,127
35949,note_on,0,0,0,,8,,,68,127
36119,note_off,170,0,0,,12,,,71,127
36121,note_on,2,0,0,,1,,,73,127
36291,note_off,170,0,0,,1,,,73,127
36291,note_off,0,0,0,,8,,,68,127
36291,note_off,0,0,0,,4,,,64,127
36293,note_on,2,0,0,,3,,,63,127
36293,note_on,0,0,0,,1,,,73,127
36463,note_off,170,0,0,,1,,,73,127
36465,note_on,2,0,0,,8,,,68,127
36635,note_off,170,0,0,,8,,,68,127
36637,note_on,2,0,0,,8,,,68,127
36807,note_off,170,0,0,,8,,,68,127
36807,note_off,0,0,0,,3,,,63,127
36809,note_on,2,0,0,,1,,,61,127
36809,note_on,0,0,0,,7,,,67,127
36979,note_off,170,0,0,,7,,,67,127
36979,note_off,0,0,0,,1,,,61,127
36981,note_on,2,0,0,,12,,,59,127
36981,note_on,0,0,0,,8,,,68,127
37153,note_on,172,0,0,,3,,,75,127
37164,note_off,11,0,0,,8,,,68,127
37323,note_off,159,0,0,,3,,,75,127
37323,note_off,0,0,0,,12,,,59,127
37325,note_on,2,0,0,,1,,,61,127
37325,note_on,0,0,0,,4,,,76,127
37495,note_off,170,0,0,,4,,,76,127
37497,note_on,2,0,0,,1,,,73,127
37667,note_off,170,0,0,,1,,,73,127
37667,note_off,0,0,0,,1,,,61,127
37669,note_on,2,0,0,,3,,,63,127
37669,note_on,0,0,0,,12,,,71,127
37839,note_off,170,0,0,,12,,,71,127
37841,note_on,2,0,0,,11,,,70,127
38011,note_off,170,0,0,,11,,,70,127
38011,note_off,0,0,0,,3,,,63,127
38013,note_on,2,0,0,,3,,,51,127
38013,note_on,0,0,0,,8,,,68,127
38183,note_off,170,0,0,,8,,,68,127
38185,note_on,2,0,0,,7,,,67,127
38355,note_off,170,0,0,,7,,,67,127
38355,note_off,0,0,0,,3,,,51,127
38357,note_on,2,0,0,,8,,,56,127
38357,note_on,0,0,0,,7,,,67,127
39043,note_off,686,0,0,,7,,,67,127
39045,note_on,2,0,0,,8,,,68,127
39358,note_off,313,0,0,,8,,,68,127
39387,note_off,29,0,0,,8,,,56,127
39389,note_on,2,0,0,,11,,,70,127
39389,note_on,0,0,0,,7,,,67,127
39389,note_on,0,0,0,,3,,,75,127
39473,note_off,84,0,0,,3,,,75,127
39475,note_on,2,0,0,,1,,,73,127
39559,note_off,84,0,0,,1,,,73,127
39561,note_on,2,0,0,,0,,,72,127
39645,note_off,84,0,0,,0,,,72,127
39647,note_on,2,0,0,,1,,,73,127
39731,note_off,84,0,0,,1,,,73,127
39733,note_on,2,0,0,,11,,,82,127
39903,note_off,170,0,0,,7,,,67,127
39903,note_off,0,0,0,,11,,,70,127
39905,note_on,2,0,0,,11,,,70,127
39905,note_on,0,0,0,,7,,,67,127
40075,note_off,170,0,0,,7,,,67,127
40075,note_off,0,0,0,,11,,,70,127
40077,note_on,2,0,0,,12,,,71,127
40077,note_on,0,0,0,,8,,,68,127
40247,note_off,170,0,0,,11,,,82,127
40249,note_on,2,0,0,,8,,,80,127
40419,note_off,170,0,0,,8,,,80,127
40419,note_off,0,0,0,,8,,,68,127
40419,note_off,0,0,0,,12,,,71,127
40421,note_on,2,0,0,,7,,,67,127
40421,note_on,0,0,0,,11,,,70,127
40421,note_on,0,0,0,,3,,,75,127
40505,note_off,84,0,0,,3,,,75,127
40507,note_on,2,0,0,,1,,,73,127
40591,note_off,84,0,0,,1,,,73,127
40593,note_on,2,0,0,,0,,,72,127
40677,note_off,84,0,0,,0,,,72,127
40679,note_on,2,0,0,,1,,,73,127
40763,note_off,84,0,0,,1,,,73,127
40765,note_on,2,0,0,,11,,,82,127
40935,note_off,170,0,0,,11,,,70,127
40935,note_off,0,0,0,,7,,,67,127
40937,note_on,2,0,0,,7,,,67,127
40937,note_on,0,0,0,,11,,,70,127
41107,note_off,170,0,0,,11,,,70,127
41107,note_off,0,0,0,,7,,,67,127
41109,note_on,2,0,0,,8,,,68,127
41109,note_on,0,0,0,,12,,,71,127
41279,note_off,170,0,0,,11,,,82,127
41281,note_on,2,0,0,,8,,,80,127
41451,note_off,170,0,0,,8,,,80,127
41451,note_off,0,0,0,,12,,,71,127
41451,note_off,0,0,0,,8,,,68,127
41453,note_on,2,0,0,,7,,,67,127
41453,note_on,0,0,0,,3,,,63,127
41453,note_on,0,0,0,,12,,,71,127
41537,note_off,84,0,0,,12,,,71,127
41539,note_on,2,0,0,,11,,,70,127
41623,note_off,84,0,0,,11,,,70,127
41625,note_on,2,0,0,,8,,,68,127
41709,note_off,84,0,0,,8,,,68,127
41711,note_on,2,0,0,,11,,,70,127
41797,note_on,86,0,0,,11,,,82,127
41872,note_off,75,0,0,,11,,,70,127
41967,note_off,95,0,0,,3,,,63,127
41967,note_off,0,0,0,,7,,,67,127
41969,note_on,2,0,0,,7,,,67,127
41969,note_on,0,0,0,,3,,,63,127
42139,note_off,170,0,0,,3,,,63,127
42139,note_off,0,0,0,,7,,,67,127
42141,note_on,2,0,0,,8,,,68,127
42141,note_on,0,0,0,,4,,,64,127
42311,note_off,170,0,0,,11,,,82,127
42313,note_on,2,0,0,,8,,,80,127
42483,note_off,170,0,0,,8,,,80,127
42483,note_off,0,0,0,,4,,,64,127
42483,note_off,0,0,0,,8,,,68,127
42485,note_on,2,0,0,,7,,,67,127
42485,note_on,0,0,0,,3,,,63,127
42485,note_on,0,0,0,,12,,,71,127
42569,note_off,84,0,0,,12,,,71,127
42571,note_on,2,0,0,,11,,,70,127
42655,note_off,84,0,0,,11,,,70,127
42657,note_on,2,0,0,,8,,,68,127
42741,note_off,84,0,0,,8,,,68,127
42743,note_on,2,0,0,,11,,,70,127
42829,note_on,86,0,0,,11,,,82,127
42922,note_off,93,0,0,,11,,,70,127
42999,note_off,77,0,0,,3,,,63,127
42999,note_off,0,0,0,,7,,,67,127
43001,note_on,2,0,0,,7,,,67,127
43001,note_on,0,0,0,,3,,,63,127
43171,note_off,170,0,0,,3,,,63,127
43171,note_off,0,0,0,,7,,,67,127
43173,note_on,2,0,0,,4,,,64,127
43173,note_on,0,0,0,,8,,,68,127
43343,note_off,170,0,0,,11,,,82,127
43345,note_on,2,0,0,,8,,,80,127
43515,note_off,170,0,0,,8,,,68,127
43515,note_off,0,0,0,,4,,,64,127
43517,note_on,2,0,0,,3,,,63,127
43687,note_off,170,0,0,,8,,,80,127
43689,note_on,2,0,0,,7,,,79,127
43773,note_off,84,0,0,,7,,,79,127
43775,note_on,2,0,0,,5,,,77,127
43859,note_off,84,0,0,,5,,,77,127
43861,note_on,2,0,0,,3,,,75,127
44031,note_off,170,0,0,,3,,,75,127
44031,note_off,0,0,0,,3,,,63,127
44033,note_on,2,0,0,,1,,,61,127
44033,note_on,0,0,0,,7,,,79,127
44203,note_off,170,0,0,,7,,,79,127
44203,note_off,0,0,0,,1,,,61,127
44205,note_on,2,0,0,,12,,,59,127
44205,note_on,0,0,0,,8,,,80,127
44375,note_off,170,0,0,,8,,,80,127
44377,note_on,2,0,0,,3,,,75,127
44547,note_off,170,0,0,,3,,,75,127
44547,note_off,0,0,0,,12,,,59,127
44549,note_on,2,0,0,,1,,,61,127
44549,note_on,0,0,0,,4,,,76,127
44719,note_off,170,0,0,,4,,,76,127
44721,note_on,2,0,0,,1,,,73,127
44891,note_off,170,0,0,,1,,,73,127
44891,note_off,0,0,0,,1,,,61,127
44893,note_on,2,0,0,,3,,,63,127
44893,note_on,0,0,0,,12,,,71,127
44893,note_on,0,0,0,,3,,,75,127
45063,note_off,170,0,0,,12,,,71,127
45065,note_on,2,0,0,,11,,,70,127
45235,note_off,170,0,0,,11,,,70,127
45235,note_off,0,0,0,,3,,,63,127
45237,note_on,2,0,0,,3,,,51,127
45237,note_on,0,0,0,,8,,,68,127
45407,note_off,170,0,0,,8,,,68,127
45409,note_off,2,0,0,,3,,,75,127
45409,note_on,0,0,0,,7,,,67,127
45579,note_off,170,0,0,,7,,,67,127
45579,note_off,0,0,0,,3,,,51,127
45581,note_on,2,0,0,,8,,,56,127
45753,note_on,172,0,0,,8,,,80,127
45837,note_off,84,0,0,,8,,,80,127
45839,note_on,2,0,0,,11,,,82,127
45923,note_off,84,0,0,,11,,,82,127
45923,note_off,0,0,0,,8,,,56,127
45925,note_on,2,0,0,,11,,,58,127
45925,note_on,0,0,0,,12,,,83,127
46009,note_off,84,0,0,,12,,,83,127
46011,note_on,2,0,0,,11,,,82,127
46095,note_off,84,0,0,,11,,,82,127
46097,note_on,2,0,0,,8,,,80,127
46181,note_off,84,0,0,,8,,,80,127
46183,note_on,2,0,0,,7,,,79,127
46267,note_off,84,0,0,,7,,,79,127
46267,note_off,0,0,0,,11,,,58,127
46269,note_on,2,0,0,,12,,,59,127
46269,note_on,0,0,0,,8,,,80,127
46353,note_off,84,0,0,,8,,,80,127
46355,note_on,2,0,0,,6,,,78,127
46439,note_off,84,0,0,,6,,,78,127
46441,note_on,2,0,0,,4,,,76,127
46525,note_off,84,0,0,,4,,,76,127
46527,note_on,2,0,0,,3,,,75,127
46611,note_off,84,0,0,,3,,,75,127
46611,note_off,0,0,0,,12,,,59,127
46613,note_on,2,0,0,,1,,,61,127
46613,note_on,0,0,0,,1,,,73,127
46697,note_off,84,0,0,,1,,,73,127
46699,note_on,2,0,0,,4,,,76,127
46783,note_off,84,0,0,,4,,,76,127
46785,note_on,2,0,0,,3,,,75,127
46869,note_off,84,0,0,,3,,,75,127
46871,note_on,2,0,0,,1,,,73,127
46955,note_off,84,0,0,,1,,,73,127
46955,note_off,0,0,0,,1,,,61,127
46957,note_on,2,0,0,,3,,,63,127
46957,note_on,0,0,0,,12,,,71,127
47041,note_off,84,0,0,,12,,,71,127
47043,note_on,2,0,0,,1,,,73,127
47127,note_off,84,0,0,,1,,,73,127
47129,note_on,2,0,0,,3,,,75,127
47213,note_off,84,0,0,,3,,,75,127
47215,note_on,2,0,0,,4,,,76,127
47299,note_off,84,0,0,,4,,,76,127
47299,note_off,0,0,0,,3,,,63,127
47301,note_on,2,0,0,,3,,,51,127
47301,note_on,0,0,0,,3,,,75,127
47385,note_off,84,0,0,,3,,,75,127
47387,note_on,2,0,0,,1,,,73,127
47471,note_off,84,0,0,,1,,,73,127
47473,note_on,2,0,0,,12,,,71,127
47557,note_off,84,0,0,,12,,,71,127
47559,note_on,2,0,0,,11,,,70,127
47643,note_off,84,0,0,,11,,,70,127
47643,note_off,0,0,0,,3,,,51,127
47645,note_on,2,0,0,,8,,,44,127
47645,note_on,0,0,0,,12,,,71,127
47729,note_off,84,0,0,,12,,,71,127
47731,note_on,2,0,0,,1,,,73,127
47815,note_off,84,0,0,,1,,,73,127
47817,note_on,2,0,0,,3,,,75,127
47901,note_off,84,0,0,,3,,,75,127
47903,note_on,2,0,0,,4,,,76,127
47987,note_off,84,0,0,,4,,,76,127
47987,note_off,0,0,0,,8,,,44,127
47989,note_on,2,0,0,,11,,,46,127
47989,note_on,0,0,0,,3,,,75,127
48073,note_off,84,0,0,,3,,,75,127
48075,note_on,2,0,0,,1,,,73,127
48159,note_off,84,0,0,,1,,,73,127
48161,note_on,2,0,0,,12,,,71,127
48245,note_off,84,0,0,,12,,,71,127
48247,note_on,2,0,0,,11,,,70,127
48331,note_off,84,0,0,,11,,,70,127
48331,note_off,0,0,0,,11,,,46,127
48333,note_on,2,0,0,,12,,,47,127
48333,note_on,0,0,0,,8,,,68,127
48417,note_off,84,0,0,,8,,,68,127
48419,note_on,2,0,0,,6,,,66,127
48503,note_off,84,0,0,,6,,,66,127
48505,note_on,2,0,0,,4,,,64,127
48589,note_off,84,0,0,,4,,,64,127
48591,note_on,2,0,0,,3,,,63,127
48675,note_off,84,0,0,,3,,,63,127
48675,note_off,0,0,0,,12,,,47,127
48677,note_on,2,0,0,,1,,,49,127
48677,note_on,0,0,0,,1,,,61,127
48761,note_off,84,0,0,,1,,,61,127
48763,note_on,2,0,0,,4,,,64,127
48847,note_off,84,0,0,,4,,,64,127
48849,note_on,2,0,0,,3,,,63,127
48933,note_off,84,0,0,,3,,,63,127
48935,note_on,2,0,0,,1,,,61,127
49019,note_off,84,0,0,,1,,,61,127
49019,note_off,0,0,0,,1,,,49,127
49021,note_on,2,0,0,,3,,,51,127
49021,note_on,0,0,0,,12,,,59,127
49105,note_off,84,0,0,,12,,,59,127
49107,note_on,2,0,0,,1,,,61,127
49191,note_off,84,0,0,,1,,,61,127
49193,note_on,2,0,0,,3,,,63,127
49277,note_off,84,0,0,,3,,,63,127
49279,note_on,2,0,0,,1,,,61,127
49363,note_off,84,0,0,,1,,,61,127
49365,note_on,2,0,0,,3,,,39,127
49365,note_on,0,0,0,,12,,,59,127
49449,note_off,84,0,0,,12,,,59,127
49451,note_on,2,0,0,,11,,,58,127
49535,note_off,84,0,0,,11,,,58,127
49537,note_on,2,0,0,,8,,,56,127
49621,note_off,84,0,0,,8,,,56,127
49623,note_on,2,0,0,,7,,,55,127
49702,note_off,79,0,0,,3,,,51,127
49707,note_off,5,0,0,,7,,,55,127
49707,note_off,0,0,0,,3,,,39,127
49709,note_on,2,0,0,,8,,,44,127
49709,note_on,0,0,0,,7,,,55,127
50051,note_off,342,0,0,,7,,,55,127
50053,note_on,2,0,0,,8,,,56,127
50569,note_off,516,0,0,,8,,,56,127
50739,note_off,170,0,0,,8,,,44,127
50741,note_on,2,0,0,,3,,,63,127
50741,note_on,0,0,0,,8,,,56,127
50913,note_on,172,0,0,,8,,,68,127
51083,note_off,170,0,0,,8,,,68,127
51085,note_on,2,0,0,,3,,,75,127
51255,note_off,170,0,0,,8,,,56,127
51255,note_off,0,0,0,,3,,,63,127
51257,note_on,2,0,0,,3,,,63,127
51257,note_on,0,0,0,,8,,,56,127
51427,note_off,170,0,0,,8,,,56,127
51427,note_off,0,0,0,,3,,,63,127
51429,note_on,2,0,0,,7,,,55,127
51429,note_on,0,0,0,,4,,,64,127
51599,note_off,170,0,0,,3,,,75,127
51601,note_on,2,0,0,,1,,,73,127
51771,note_off,170,0,0,,4,,,64,127
51771,note_off,0,0,0,,7,,,55,127
51773,note_on,2,0,0,,8,,,56,127
51773,note_on,0,0,0,,3,,,63,127
51943,note_off,170,0,0,,1,,,73,127
51945,note_on,2,0,0,,12,,,71,127
52029,note_off,84,0,0,,12,,,71,127
52031,note_on,2,0,0,,1,,,73,127
52115,note_off,84,0,0,,1,,,73,127
52117,note_on,2,0,0,,3,,,75,127
52287,note_off,170,0,0,,3,,,75,127
52287,note_off,0,0,0,,3,,,63,127
52287,note_off,0,0,0,,8,,,56,127
52289,note_on,2,0,0,,3,,,63,127
52289,note_on,0,0,0,,8,,,56,127
52289,note_on,0,0,0,,8,,,68,127
52459,note_off,170,0,0,,8,,,56,127
52459,note_off,0,0,0,,3,,,63,127
52461,note_on,2,0,0,,1,,,61,127
52461,note_on,0,0,0,,11,,,58,127
52631,note_off,170,0,0,,8,,,68,127
52633,note_on,2,0,0,,7,,,67,127
52803,note_off,170,0,0,,7,,,67,127
52803,note_off,0,0,0,,11,,,58,127
52803,note_off,0,0,0,,1,,,61,127
52805,note_on,2,0,0,,8,,,56,127
52805,note_on,0,0,0,,3,,,63,127
52977,note_on,172,0,0,,8,,,68,127
53147,note_off,170,0,0,,8,,,68,127
53149,note_on,2,0,0,,3,,,75,127
53319,note_off,170,0,0,,3,,,63,127
53319,note_off,0,0,0,,8,,,56,127
53321,note_on,2,0,0,,3,,,63,127
53321,note_on,0,0,0,,8,,,56,127
53491,note_off,170,0,0,,8,,,56,127
53491,note_off,0,0,0,,3,,,63,127
53493,note_on,2,0,0,,7,,,55,127
53493,note_on,0,0,0,,4,,,64,127
53663,note_off,170,0,0,,3,,,75,127
53665,note_on,2,0,0,,1,,,73,127
53835,note_off,170,0,0,,4,,,64,127
53835,note_off,0,0,0,,7,,,55,127
53837,note_on,2,0,0,,3,,,63,127
53837,note_on,0,0,0,,8,,,56,127
53923,note_off,86,0,0,,1,,,73,127
54009,note_on,86,0,0,,12,,,71,127
54093,note_off,84,0,0,,12,,,71,127
54095,note_on,2,0,0,,11,,,70,127
54179,note_off,84,0,0,,11,,,70,127
54181,note_on,2,0,0,,12,,,71,127
54351,note_off,170,0,0,,3,,,63,127
54353,note_on,2,0,0,,1,,,61,127
54518,note_off,165,0,0,,8,,,56,127
54523,note_off,5,0,0,,1,,,61,127
54523,note_off,0,0,0,,12,,,71,127
54525,note_on,2,0,0,,3,,,63,127
54525,note_on,0,0,0,,8,,,56,127
54525,note_on,0,0,0,,12,,,71,127
54695,note_off,170,0,0,,3,,,63,127
54697,note_on,2,0,0,,4,,,64,127
54865,note_off,168,0,0,,8,,,56,127
54867,note_off,2,0,0,,4,,,64,127
54869,note_on,2,0,0,,6,,,54,127
54869,note_on,0,0,0,,6,,,66,127
55039,note_off,170,0,0,,12,,,71,127
55041,note_on,2,0,0,,11,,,70,127
55125,note_off,84,0,0,,11,,,70,127
55127,note_on,2,0,0,,12,,,71,127
55211,note_off,84,0,0,,12,,,71,127
55213,note_on,2,0,0,,1,,,73,127
55383,note_off,170,0,0,,6,,,66,127
55385,note_on,2,0,0,,4,,,64,127
55555,note_off,170,0,0,,4,,,64,127
55555,note_off,0,0,0,,1,,,73,127
55557,note_on,2,0,0,,3,,,63,127
55557,note_on,0,0,0,,12,,,71,127
55727,note_off,170,0,0,,3,,,63,127
55729,note_on,2,0,0,,12,,,59,127
55899,note_off,170,0,0,,12,,,59,127
55899,note_off,0,0,0,,6,,,54,127
55901,note_on,2,0,0,,6,,,54,127
55901,note_on,0,0,0,,1,,,61,127
55951,note_off,50,0,0,,12,,,71,127
56073,note_on,122,0,0,,11,,,70,127
56157,note_off,84,0,0,,11,,,70,127
56159,note_on,2,0,0,,12,,,71,127
56243,note_off,84,0,0,,12,,,71,127
56245,note_on,2,0,0,,1,,,73,127
56415,note_off,170,0,0,,1,,,61,127
56417,note_on,2,0,0,,4,,,64,127
56587,note_off,170,0,0,,4,,,64,127
56587,note_off,0,0,0,,1,,,73,127
56589,note_on,2,0,0,,3,,,63,127
56589,note_on,0,0,0,,12,,,71,127
56759,note_off,170,0,0,,3,,,63,127
56761,note_on,2,0,0,,12,,,59,127
56931,note_off,170,0,0,,12,,,59,127
56931,note_off,0,0,0,,12,,,71,127
56931,note_off,0,0,0,,6,,,54,127
56933,note_on,2,0,0,,1,,,61,127
56933,note_on,0,0,0,,7,,,55,127
56933,note_on,0,0,0,,12,,,71,127
57103,note_off,170,0,0,,12,,,71,127
57105,note_on,2,0,0,,11,,,70,127
57189,note_off,84,0,0,,11,,,70,127
57191,note_on,2,0,0,,10,,,69,127
57275,note_off,84,0,0,,10,,,69,127
57277,note_on,2,0,0,,11,,,70,127
57447,note_off,170,0,0,,11,,,70,127
57447,note_off,0,0,0,,1,,,61,127
57449,note_on,2,0,0,,0,,,60,127
57449,note_on,0,0,0,,10,,,69,127
57619,note_off,170,0,0,,10,,,69,127
57619,note_off,0,0,0,,0,,,60,127
57621,note_on,2,0,0,,1,,,61,127
57621,note_on,0,0,0,,11,,,70,127
57621,note_on,0,0,0,,5,,,77,127
57791,note_off,170,0,0,,11,,,70,127
57791,note_off,0,0,0,,1,,,61,127
57793,note_on,2,0,0,,3,,,63,127
57793,note_on,0,0,0,,0,,,72,127
57963,note_off,170,0,0,,0,,,72,127
57963,note_off,0,0,0,,3,,,63,127
57963,note_off,0,0,0,,7,,,55,127
57965,note_on,2,0,0,,5,,,53,127
57965,note_on,0,0,0,,5,,,65,127
57965,note_on,0,0,0,,1,,,73,127
58135,note_off,170,0,0,,1,,,73,127
58137,note_on,2,0,0,,0,,,72,127
58221,note_off,84,0,0,,0,,,72,127
58223,note_on,2,0,0,,11,,,70,127
58307,note_off,84,0,0,,11,,,70,127
58309,note_on,2,0,0,,0,,,72,127
58479,note_off,170,0,0,,0,,,72,127
58479,note_off,0,0,0,,5,,,65,127
58481,note_on,2,0,0,,3,,,63,127
58481,note_on,0,0,0,,10,,,69,127
58651,note_off,170,0,0,,10,,,69,127
58651,note_off,0,0,0,,3,,,63,127
58651,note_off,0,0,0,,5,,,77,127
58653,note_on,2,0,0,,1,,,61,127
58653,note_on,0,0,0,,11,,,70,127
58823,note_off,170,0,0,,11,,,70,127
58823,note_off,0,0,0,,1,,,61,127
58825,note_on,2,0,0,,0,,,60,127
58825,note_on,0,0,0,,0,,,72,127
58995,note_off,170,0,0,,0,,,72,127
58995,note_off,0,0,0,,0,,,60,127
58995,note_off,0,0,0,,5,,,53,127
58997,note_on,2,0,0,,5,,,53,127
58997,note_on,0,0,0,,5,,,65,127
58997,note_on,0,0,0,,3,,,75,127
58997,note_on,0,0,0,,5,,,77,127
59081,note_off,84,0,0,,3,,,75,127
59083,note_on,2,0,0,,1,,,73,127
59167,note_off,84,0,0,,1,,,73,127
59169,note_on,2,0,0,,0,,,72,127
59253,note_off,84,0,0,,0,,,72,127
59255,note_on,2,0,0,,11,,,70,127
59339,note_off,84,0,0,,11,,,70,127
59341,note_on,2,0,0,,0,,,72,127
59511,note_off,170,0,0,,0,,,72,127
59511,note_off,0,0,0,,5,,,65,127
59513,note_on,2,0,0,,3,,,63,127
59513,note_on,0,0,0,,10,,,69,127
59683,note_off,170,0,0,,10,,,69,127
59683,note_off,0,0,0,,3,,,63,127
59685,note_on,2,0,0,,1,,,61,127
59685,note_on,0,0,0,,11,,,70,127
59855,note_off,170,0,0,,11,,,70,127
59855,note_off,0,0,0,,1,,,61,127
59857,note_on,2,0,0,,0,,,60,127
59857,note_on,0,0,0,,0,,,72,127
60027,note_off,170,0,0,,0,,,72,127
60027,note_off,0,0,0,,0,,,60,127
60027,note_off,0,0,0,,5,,,77,127
60027,note_off,0,0,0,,5,,,53,127
60029,note_on,2,0,0,,5,,,53,127
60029,note_on,0,0,0,,5,,,65,127
60029,note_on,0,0,0,,1,,,73,127
60029,note_on,0,0,0,,5,,,77,127
60199,note_off,170,0,0,,1,,,73,127
60201,note_on,2,0,0,,0,,,72,127
60285,note_off,84,0,0,,0,,,72,127
60287,note_on,2,0,0,,11,,,70,127
60369,note_off,82,0,0,,5,,,77,127
60371,note_off,2,0,0,,11,,,70,127
60373,note_on,2,0,0,,11,,,70,127
60715,note_off,342,0,0,,11,,,70,127
60715,note_off,0,0,0,,5,,,65,127
60717,note_on,2,0,0,,5,,,41,127
60717,note_on,0,0,0,,0,,,72,127
61038,note_off,321,0,0,,0,,,72,127
61059,note_off,21,0,0,,5,,,41,127
61059,note_off,0,0,0,,5,,,53,127
61061,note_on,2,0,0,,8,,,68,127
61061,note_on,0,0,0,,5,,,65,127
61233,note_on,172,0,0,,5,,,77,127
61403,note_off,170,0,0,,5,,,77,127
61405,note_on,2,0,0,,3,,,75,127
61489,note_off,84,0,0,,3,,,75,127
61491,note_on,2,0,0,,1,,,73,127
61575,note_off,84,0,0,,1,,,73,127
61575,note_off,0,0,0,,5,,,65,127
61575,note_off,0,0,0,,8,,,68,127
61577,note_on,2,0,0,,8,,,68,127
61577,note_on,0,0,0,,5,,,65,127
61577,note_on,0,0,0,,0,,,72,127
61661,note_off,84,0,0,,0,,,72,127
61663,note_on,2,0,0,,12,,,71,127
61747,note_off,84,0,0,,12,,,71,127
61747,note_off,0,0,0,,5,,,65,127
61747,note_off,0,0,0,,8,,,68,127
61749,note_on,2,0,0,,7,,,67,127
61749,note_on,0,0,0,,4,,,64,127
61749,note_on,0,0,0,,12,,,71,127
61919,note_off,170,0,0,,12,,,71,127
61919,note_off,0,0,0,,4,,,64,127
61921,note_on,2,0,0,,0,,,60,127
61921,note_on,0,0,0,,0,,,72,127
62089,note_off,168,0,0,,7,,,67,127
62091,note_off,2,0,0,,0,,,60,127
62093,note_on,2,0,0,,8,,,68,127
62093,note_on,0,0,0,,5,,,65,127
62179,note_off,86,0,0,,0,,,72,127
62265,note_on,86,0,0,,5,,,77,127
62435,note_off,170,0,0,,5,,,77,127
62437,note_on,2,0,0,,3,,,75,127
62521,note_off,84,0,0,,3,,,75,127
62523,note_on,2,0,0,,1,,,73,127
62607,note_off,84,0,0,,1,,,73,127
62607,note_off,0,0,0,,5,,,65,127
62607,note_off,0,0,0,,8,,,68,127
62609,note_on,2,0,0,,5,,,65,127
62609,note_on,0,0,0,,8,,,68,127
62609,note_on,0,0,0,,0,,,72,127
62693,note_off,84,0,0,,0,,,72,127
62695,note_on,2,0,0,,12,,,71,127
62779,note_off,84,0,0,,8,,,68,127
62779,note_off,0,0,0,,5,,,65,127
62781,note_on,2,0,0,,7,,,67,127
62781,note_on,0,0,0,,4,,,64,127
62951,note_off,170,0,0,,4,,,64,127
62951,note_off,0,0,0,,12,,,71,127
62953,note_on,2,0,0,,0,,,60,127
62953,note_on,0,0,0,,0,,,72,127
63121,note_off,168,0,0,,7,,,67,127
63123,note_off,2,0,0,,0,,,60,127
63125,note_on,2,0,0,,5,,,65,127
63125,note_on,0,0,0,,1,,,61,127
63211,note_off,86,0,0,,0,,,72,127
63297,note_on,86,0,0,,1,,,73,127
63467,note_off,170,0,0,,1,,,73,127
63469,note_on,2,0,0,,0,,,72,127
63553,note_off,84,0,0,,0,,,72,127
63555,note_on,2,0,0,,11,,,70,127
63639,note_off,84,0,0,,11,,,70,127
63639,note_off,0,0,0,,1,,,61,127
63639,note_off,0,0,0,,5,,,65,127
63641,note_on,2,0,0,,5,,,65,127
63641,note_on,0,0,0,,1,,,61,127
63641,note_on,0,0,0,,8,,,68,127
63725,note_off,84,0,0,,8,,,68,127
63727,note_on,2,0,0,,7,,,67,127
63811,note_off,84,0,0,,1,,,61,127
63811,note_off,0,0,0,,5,,,65,127
63813,note_on,2,0,0,,3,,,63,127
63813,note_on,0,0,0,,0,,,60,127
63983,note_off,170,0,0,,0,,,60,127
63983,note_off,0,0,0,,7,,,67,127
63985,note_on,2,0,0,,8,,,56,127
63985,note_on,0,0,0,,8,,,68,127
64153,note_off,168,0,0,,3,,,63,127
64155,note_off,2,0,0,,8,,,56,127
64157,note_on,2,0,0,,5,,,65,127
64157,note_on,0,0,0,,1,,,61,127
64243,note_off,86,0,0,,8,,,68,127
64329,note_on,86,0,0,,1,,,73,127
64499,note_off,170,0,0,,1,,,73,127
64501,note_on,2,0,0,,0,,,72,127
64585,note_off,84,0,0,,0,,,72,127
64587,note_on,2,0,0,,11,,,70,127
64671,note_off,84,0,0,,11,,,70,127
64671,note_off,0,0,0,,1,,,61,127
64671,note_off,0,0,0,,5,,,65,127
64673,note_on,2,0,0,,5,,,65,127
64673,note_on,0,0,0,,1,,,61,127
64673,note_on,0,0,0,,8,,,68,127
64757,note_off,84,0,0,,8,,,68,127
64759,note_on,2,0,0,,7,,,67,127
64843,note_off,84,0,0,,1,,,61,127
64843,note_off,0,0,0,,5,,,65,127
64845,note_on,2,0,0,,0,,,60,127
64845,note_on,0,0,0,,3,,,63,127
65015,note_off,170,0,0,,0,,,60,127
65015,note_off,0,0,0,,7,,,67,127
65017,note_on,2,0,0,,8,,,56,127
65017,note_on,0,0,0,,8,,,68,127
65185,note_off,168,0,0,,3,,,63,127
65187,note_off,2,0,0,,8,,,56,127
65189,note_on,2,0,0,,1,,,61,127
65189,note_on,0,0,0,,11,,,58,127
65275,note_off,86,0,0,,8,,,68,127
65361,note_on,86,0,0,,11,,,70,127
65531,note_off,170,0,0,,11,,,70,127
65533,note_on,2,0,0,,8,,,68,127
65617,note_off,84,0,0,,8,,,68,127
65619,note_on,2,0,0,,7,,,67,127
65703,note_off,84,0,0,,7,,,67,127
65703,note_off,0,0,0,,11,,,58,127
65703,note_off,0,0,0,,1,,,61,127
65705,note_on,2,0,0,,1,,,61,127
65705,note_on,0,0,0,,11,,,58,127
65705,note_on,0,0,0,,5,,,65,127
65789,note_off,84,0,0,,5,,,65,127
65791,note_on,2,0,0,,4,,,64,127
65875,note_off,84,0,0,,11,,,58,127
65875,note_off,0,0,0,,1,,,61,127
65877,note_on,2,0,0,,8,,,56,127
65877,note_on,0,0,0,,0,,,60,127
66047,note_off,170,0,0,,8,,,56,127
66047,note_off,0,0,0,,4,,,64,127
66049,note_on,2,0,0,,5,,,53,127
66049,note_on,0,0,0,,5,,,65,127
66217,note_off,168,0,0,,0,,,60,127
66219,note_off,2,0,0,,5,,,53,127
66221,note_on,2,0,0,,11,,,58,127
66221,note_on,0,0,0,,1,,,61,127
66307,note_off,86,0,0,,5,,,65,127
66393,note_on,86,0,0,,11,,,70,127
66563,note_off,170,0,0,,11,,,70,127
66565,note_on,2,0,0,,8,,,68,127
66649,note_off,84,0,0,,8,,,68,127
66651,note_on,2,0,0,,7,,,67,127
66735,note_off,84,0,0,,7,,,67,127
66735,note_off,0,0,0,,1,,,61,127
66735,note_off,0,0,0,,11,,,58,127
66737,note_on,2,0,0,,11,,,58,127
66737,note_on,0,0,0,,1,,,61,127
66737,note_on,0,0,0,,5,,,65,127
66821,note_off,84,0,0,,5,,,65,127
66823,note_on,2,0,0,,4,,,64,127
66907,note_off,84,0,0,,1,,,61,127
66907,note_off,0,0,0,,11,,,58,127
66909,note_on,2,0,0,,0,,,60,127
66909,note_on,0,0,0,,8,,,56,127
67079,note_off,170,0,0,,8,,,56,127
67079,note_off,0,0,0,,4,,,64,127
67081,note_on,2,0,0,,5,,,53,127
67081,note_on,0,0,0,,5,,,65,127
67249,note_off,168,0,0,,0,,,60,127
67251,note_off,2,0,0,,5,,,53,127
67253,note_on,2,0,0,,11,,,58,127
67253,note_on,0,0,0,,6,,,54,127
67339,note_off,86,0,0,,5,,,65,127
67425,note_on,86,0,0,,6,,,66,127
67595,note_off,170,0,0,,6,,,66,127
67597,note_on,2,0,0,,5,,,65,127
67681,note_off,84,0,0,,5,,,65,127
67683,note_on,2,0,0,,3,,,63,127
67767,note_off,84,0,0,,3,,,63,127
67767,note_off,0,0,0,,6,,,54,127
67767,note_off,0,0,0,,11,,,58,127
67769,note_on,2,0,0,,11,,,58,127
67769,note_on,0,0,0,,6,,,54,127
67769,note_on,0,0,0,,1,,,61,127
67853,note_off,84,0,0,,1,,,61,127
67855,note_on,2,0,0,,0,,,60,127
67939,note_off,84,0,0,,6,,,54,127
67939,note_off,0,0,0,,11,,,58,127
67941,note_on,2,0,0,,5,,,53,127
67941,note_on,0,0,0,,8,,,56,127
68111,note_off,170,0,0,,5,,,53,127
68111,note_off,0,0,0,,0,,,60,127
68113,note_on,2,0,0,,1,,,49,127
68113,note_on,0,0,0,,1,,,61,127
68281,note_off,168,0,0,,8,,,56,127
68283,note_off,2,0,0,,1,,,49,127
68285,note_on,2,0,0,,6,,,54,127
68285,note_on,0,0,0,,11,,,58,127
68371,note_off,86,0,0,,1,,,61,127
68457,note_on,86,0,0,,6,,,66,127
68627,note_off,170,0,0,,6,,,66,127
68629,note_on,2,0,0,,5,,,65,127
68713,note_off,84,0,0,,5,,,65,127
68715,note_on,2,0,0,,3,,,63,127
68799,note_off,84,0,0,,3,,,63,127
68799,note_off,0,0,0,,11,,,58,127
68799,note_off,0,0,0,,6,,,54,127
68801,note_on,2,0,0,,11,,,58,127
68801,note_on,0,0,0,,6,,,54,127
68801,note_on,0,0,0,,1,,,61,127
68885,note_off,84,0,0,,1,,,61,127
68887,note_on,2,0,0,,0,,,60,127
68971,note_off,84,0,0,,6,,,54,127
68971,note_off,0,0,0,,11,,,58,127
68973,note_on,2,0,0,,5,,,53,127
68973,note_on,0,0,0,,8,,,56,127
69143,note_off,170,0,0,,8,,,56,127
69143,note_off,0,0,0,,5,,,53,127
69143,note_off,0,0,0,,0,,,60,127
69145,note_on,2,0,0,,6,,,54,127
69145,note_on,0,0,0,,3,,,51,127
69145,note_on,0,0,0,,1,,,61,127
69315,note_off,170,0,0,,3,,,51,127
69315,note_off,0,0,0,,6,,,54,127
69317,note_on,2,0,0,,5,,,53,127
69317,note_on,0,0,0,,1,,,49,127
69487,note_off,170,0,0,,1,,,49,127
69487,note_off,0,0,0,,5,,,53,127
69487,note_off,0,0,0,,1,,,61,127
69489,note_on,2,0,0,,3,,,51,127
69489,note_on,0,0,0,,0,,,48,127
69489,note_on,0,0,0,,3,,,63,127
69659,note_off,170,0,0,,3,,,63,127
69659,note_off,0,0,0,,0,,,48,127
69659,note_off,0,0,0,,3,,,51,127
69661,note_on,2,0,0,,11,,,46,127
69661,note_on,0,0,0,,1,,,49,127
69661,note_on,0,0,0,,5,,,65,127
70003,note_off,342,0,0,,5,,,65,127
70003,note_off,0,0,0,,1,,,49,127
70003,note_off,0,0,0,,11,,,46,127
70005,note_on,2,0,0,,1,,,49,127
70005,note_on,0,0,0,,11,,,46,127
70005,note_on,0,0,0,,8,,,68,127
70089,note_off,84,0,0,,8,,,68,127
70091,note_on,2,0,0,,7,,,67,127
70175,note_off,84,0,0,,7,,,67,127
70177,note_on,2,0,0,,5,,,65,127
70261,note_off,84,0,0,,5,,,65,127
70263,note_on,2,0,0,,7,,,67,127
70347,note_off,84,0,0,,7,,,67,127
70347,note_off,0,0,0,,11,,,46,127
70347,note_off,0,0,0,,1,,,49,127
70349,note_on,2,0,0,,8,,,56,127
70349,note_on,0,0,0,,8,,,44,127
70349,note_on,0,0,0,,8,,,68,127
70435,note_on,86,0,0,,3,,,63,127
70510,note_off,75,0,0,,8,,,68,127
70519,note_off,9,0,0,,3,,,63,127
70521,note_on,2,0,0,,8,,,68,127
70605,note_off,84,0,0,,8,,,68,127
70607,note_on,2,0,0,,0,,,72,127
70691,note_off,84,0,0,,0,,,72,127
70693,note_on,2,0,0,,3,,,75,127
70779,note_on,86,0,0,,8,,,68,127
70808,note_off,29,0,0,,3,,,75,127
70864,note_off,56,0,0,,8,,,68,127
70866,note_on,2,0,0,,0,,,72,127
70950,note_off,84,0,0,,0,,,72,127
70952,note_on,2,0,0,,3,,,75,127
71036,note_off,84,0,0,,3,,,75,127
71038,note_on,2,0,0,,8,,,80,127
71124,note_on,86,0,0,,0,,,72,127
71153,note_off,29,0,0,,8,,,80,127
71209,note_off,56,0,0,,0,,,72,127
71211,note_on,2,0,0,,3,,,75,127
71295,note_off,84,0,0,,3,,,75,127
71297,note_on,2,0,0,,8,,,80,127
71381,note_off,84,0,0,,8,,,80,127
71381,note_off,0,0,0,,8,,,44,127
71381,note_off,0,0,0,,8,,,56,127
71383,note_on,2,0,0,,8,,,56,127
71383,note_on,0,0,0,,8,,,44,127
71383,note_on,0,0,0,,0,,,84,127
71467,note_off,84,0,0,,0,,,84,127
71469,note_on,2,0,0,,8,,,80,127
71553,note_off,84,0,0,,8,,,80,127
71555,note_on,2,0,0,,3,,,75,127
71639,note_off,84,0,0,,3,,,75,127
71641,note_on,2,0,0,,0,,,72,127
71725,note_off,84,0,0,,0,,,72,127
71727,note_on,2,0,0,,0,,,84,127
71811,note_off,84,0,0,,0,,,84,127
71813,note_on,2,0,0,,8,,,80,127
71897,note_off,84,0,0,,8,,,80,127
71899,note_on,2,0,0,,3,,,75,127
71983,note_off,84,0,0,,3,,,75,127
71985,note_on,2,0,0,,0,,,72,127
72069,note_off,84,0,0,,0,,,72,127
72071,note_on,2,0,0,,8,,,68,127
72155,note_off,84,0,0,,8,,,68,127
72157,note_on,2,0,0,,3,,,63,127
72241,note_off,84,0,0,,3,,,63,127
72243,note_on,2,0,0,,0,,,60,127
72327,note_off,84,0,0,,0,,,60,127
72329,note_on,2,0,0,,3,,,63,127
72413,note_off,84,0,0,,3,,,63,127
72413,note_off,0,0,0,,8,,,44,127
72413,note_off,0,0,0,,8,,,56,127
72415,note_on,2,0,0,,8,,,56,127
72415,note_on,0,0,0,,8,,,44,127
73275,note_off,860,0,0,,8,,,56,127
73445,note_off,170,0,0,,8,,,44,127
73447,note_on,2,0,0,,4,,,64,127
73447,note_on,0,0,0,,1,,,61,127
73619,note_on,172,0,0,,8,,,68,127
73791,note_on,172,0,0,,8,,,80,127
73959,note_off,168,0,0,,8,,,68,127
73961,note_off,2,0,0,,1,,,61,127
73961,note_off,0,0,0,,4,,,64,127
73963,note_on,2,0,0,,4,,,64,127
73963,note_on,0,0,0,,1,,,61,127
74133,note_off,170,0,0,,1,,,61,127
74133,note_off,0,0,0,,4,,,64,127
74135,note_on,2,0,0,,3,,,63,127
74135,note_on,0,0,0,,0,,,60,127
74305,note_off,170,0,0,,0,,,60,127
74307,note_on,2,0,0,,8,,,56,127
74475,note_off,168,0,0,,3,,,63,127
74477,note_off,2,0,0,,8,,,56,127
74479,note_on,2,0,0,,4,,,64,127
74479,note_on,0,0,0,,1,,,61,127
74649,note_off,170,0,0,,8,,,80,127
74651,note_on,2,0,0,,6,,,78,127
74821,note_off,170,0,0,,6,,,78,127
74823,note_on,2,0,0,,4,,,76,127
74993,note_off,170,0,0,,4,,,76,127
74993,note_off,0,0,0,,1,,,61,127
74993,note_off,0,0,0,,4,,,64,127
74995,note_on,2,0,0,,6,,,66,127
74995,note_on,0,0,0,,10,,,57,127
74995,note_on,0,0,0,,3,,,75,127
75165,note_off,170,0,0,,3,,,75,127
75165,note_off,0,0,0,,10,,,57,127
75165,note_off,0,0,0,,6,,,66,127
75167,note_on,2,0,0,,4,,,64,127
75167,note_on,0,0,0,,8,,,56,127
75167,note_on,0,0,0,,1,,,73,127
75337,note_off,170,0,0,,1,,,73,127
75337,note_off,0,0,0,,4,,,64,127
75339,note_on,2,0,0,,3,,,63,127
75339,note_on,0,0,0,,0,,,72,127
75507,note_off,168,0,0,,8,,,56,127
75509,note_off,2,0,0,,0,,,72,127
75509,note_off,0,0,0,,3,,,63,127
75511,note_on,2,0,0,,1,,,61,127
75511,note_on,0,0,0,,4,,,64,127
75511,note_on,0,0,0,,1,,,73,127
75681,note_off,170,0,0,,1,,,73,127
75683,note_on,2,0,0,,8,,,68,127
75855,note_on,172,0,0,,8,,,80,127
76023,note_off,168,0,0,,8,,,68,127
76025,note_off,2,0,0,,4,,,64,127
76025,note_off,0,0,0,,1,,,61,127
76027,note_on,2,0,0,,1,,,61,127
76027,note_on,0,0,0,,4,,,64,127
76197,note_off,170,0,0,,4,,,64,127
76197,note_off,0,0,0,,1,,,61,127
76199,note_on,2,0,0,,3,,,63,127
76199,note_on,0,0,0,,0,,,60,127
76369,note_off,170,0,0,,0,,,60,127
76371,note_on,2,0,0,,8,,,56,127
76539,note_off,168,0,0,,3,,,63,127
76541,note_off,2,0,0,,8,,,56,127
76543,note_on,2,0,0,,10,,,57,127
76543,note_on,0,0,0,,1,,,61,127
76713,note_off,170,0,0,,8,,,80,127
76715,note_on,2,0,0,,6,,,78,127
76885,note_off,170,0,0,,6,,,78,127
76887,note_on,2,0,0,,4,,,76,127
77057,note_off,170,0,0,,4,,,76,127
77057,note_off,0,0,0,,1,,,61,127
77057,note_off,0,0,0,,10,,,57,127
77059,note_on,2,0,0,,6,,,66,127
77059,note_on,0,0,0,,10,,,57,127
77059,note_on,0,0,0,,3,,,75,127
77229,note_off,170,0,0,,3,,,75,127
77229,note_off,0,0,0,,10,,,57,127
77229,note_off,0,0,0,,6,,,66,127
77231,note_on,2,0,0,,8,,,56,127
77231,note_on,0,0,0,,4,,,64,127
77231,note_on,0,0,0,,1,,,73,127
77401,note_off,170,0,0,,1,,,73,127
77401,note_off,0,0,0,,4,,,64,127
77403,note_on,2,0,0,,3,,,63,127
77403,note_on,0,0,0,,0,,,72,127
77571,note_off,168,0,0,,8,,,56,127
77573,note_off,2,0,0,,0,,,72,127
77573,note_off,0,0,0,,3,,,63,127
77575,note_on,2,0,0,,1,,,61,127
77575,note_on,0,0,0,,4,,,64,127
77575,note_on,0,0,0,,1,,,73,127
77745,note_off,170,0,0,,1,,,73,127
77747,note_on,2,0,0,,8,,,68,127
77917,note_off,170,0,0,,8,,,68,127
77919,note_on,2,0,0,,1,,,85,127
78089,note_off,170,0,0,,4,,,64,127
78089,note_off,0,0,0,,1,,,61,127
78091,note_on,2,0,0,,3,,,63,127
78261,note_off,170,0,0,,3,,,63,127
78263,note_on,2,0,0,,5,,,65,127
78433,note_off,170,0,0,,5,,,65,127
78435,note_on,2,0,0,,1,,,61,127
78605,note_off,170,0,0,,1,,,61,127
78607,note_on,2,0,0,,6,,,66,127
78607,note_on,0,0,0,,10,,,69,127
78777,note_off,170,0,0,,1,,,85,127
78779,note_on,2,0,0,,12,,,83,127
78949,note_off,170,0,0,,12,,,83,127
78951,note_on,2,0,0,,10,,,81,127
79121,note_off,170,0,0,,10,,,81,127
79121,note_off,0,0,0,,10,,,69,127
79123,note_on,2,0,0,,12,,,71,127
79123,note_on,0,0,0,,8,,,80,127
79288,note_off,165,0,0,,6,,,66,127
79293,note_off,5,0,0,,8,,,80,127
79293,note_off,0,0,0,,12,,,71,127
79295,note_on,2,0,0,,10,,,69,127
79295,note_on,0,0,0,,1,,,61,127
79295,note_on,0,0,0,,6,,,78,127
79465,note_off,170,0,0,,6,,,78,127
79465,note_off,0,0,0,,10,,,69,127
79467,note_on,2,0,0,,8,,,68,127
79467,note_on,0,0,0,,5,,,77,127
79635,note_off,168,0,0,,1,,,61,127
79637,note_off,2,0,0,,5,,,77,127
79637,note_off,0,0,0,,8,,,68,127
79639,note_on,2,0,0,,10,,,69,127
79639,note_on,0,0,0,,6,,,66,127
79639,note_on,0,0,0,,6,,,78,127
79809,note_off,170,0,0,,6,,,78,127
79811,note_on,2,0,0,,1,,,73,127
79983,note_on,172,0,0,,1,,,85,127
80151,note_off,168,0,0,,1,,,73,127
80153,note_off,2,0,0,,6,,,66,127
80153,note_off,0,0,0,,10,,,69,127
80155,note_on,2,0,0,,10,,,69,127
80155,note_on,0,0,0,,6,,,66,127
80325,note_off,170,0,0,,6,,,66,127
80325,note_off,0,0,0,,10,,,69,127
80327,note_on,2,0,0,,8,,,68,127
80327,note_on,0,0,0,,5,,,65,127
80497,note_off,170,0,0,,5,,,65,127
80499,note_on,2,0,0,,1,,,61,127
80667,note_off,168,0,0,,8,,,68,127
80669,note_off,2,0,0,,1,,,61,127
80671,note_on,2,0,0,,10,,,69,127
80671,note_on,0,0,0,,6,,,66,127
80841,note_off,170,0,0,,1,,,85,127
80843,note_on,2,0,0,,12,,,83,127
81013,note_off,170,0,0,,12,,,83,127
81015,note_on,2,0,0,,10,,,81,127
81185,note_off,170,0,0,,10,,,81,127
81185,note_off,0,0,0,,10,,,69,127
81187,note_on,2,0,0,,12,,,71,127
81187,note_on,0,0,0,,8,,,80,127
81352,note_off,165,0,0,,6,,,66,127
81357,note_off,5,0,0,,8,,,80,127
81357,note_off,0,0,0,,12,,,71,127
81359,note_on,2,0,0,,10,,,69,127
81359,note_on,0,0,0,,1,,,61,127
81359,note_on,0,0,0,,6,,,78,127
81529,note_off,170,0,0,,6,,,78,127
81529,note_off,0,0,0,,10,,,69,127
81531,note_on,2,0,0,,8,,,68,127
81531,note_on,0,0,0,,5,,,77,127
81699,note_off,168,0,0,,1,,,61,127
81701,note_off,2,0,0,,5,,,77,127
81701,note_off,0,0,0,,8,,,68,127
81703,note_on,2,0,0,,6,,,66,127
81703,note_on,0,0,0,,6,,,78,127
81873,note_off,170,0,0,,6,,,78,127
81875,note_on,2,0,0,,1,,,85,127
82045,note_off,170,0,0,,1,,,85,127
82045,note_off,0,0,0,,6,,,66,127
82047,note_on,2,0,0,,6,,,78,127
82047,note_on,0,0,0,,12,,,83,127
82131,note_off,84,0,0,,12,,,83,127
82133,note_on,2,0,0,,10,,,81,127
82217,note_off,84,0,0,,10,,,81,127
82219,note_on,2,0,0,,8,,,80,127
82303,note_off,84,0,0,,8,,,80,127
82305,note_on,2,0,0,,7,,,79,127
82389,note_off,84,0,0,,6,,,78,127
82391,note_on,2,0,0,,4,,,76,127
82561,note_off,170,0,0,,7,,,79,127
82563,note_on,2,0,0,,8,,,80,127
82733,note_off,170,0,0,,4,,,76,127
82735,note_on,2,0,0,,3,,,75,127
82778,note_off,43,0,0,,8,,,80,127
82907,note_on,129,0,0,,10,,,81,127
83077,note_off,170,0,0,,10,,,81,127
83079,note_on,2,0,0,,8,,,80,127
83163,note_off,84,0,0,,8,,,80,127
83165,note_on,2,0,0,,6,,,78,127
83249,note_off,84,0,0,,6,,,78,127
83251,note_on,2,0,0,,4,,,76,127
83272,note_off,21,0,0,,3,,,75,127
83335,note_off,63,0,0,,4,,,76,127
83337,note_on,2,0,0,,3,,,75,127
83423,note_on,86,0,0,,1,,,73,127
83593,note_off,170,0,0,,3,,,75,127
83595,note_on,2,0,0,,4,,,76,127
83765,note_off,170,0,0,,1,,,73,127
83767,note_on,2,0,0,,10,,,69,127
83767,note_on,0,0,0,,6,,,66,127
83810,note_off,43,0,0,,4,,,76,127
83939,note_on,129,0,0,,6,,,78,127
84109,note_off,170,0,0,,6,,,78,127
84111,note_on,2,0,0,,4,,,76,127
84195,note_off,84,0,0,,4,,,76,127
84197,note_on,2,0,0,,3,,,75,127
84281,note_off,84,0,0,,3,,,75,127
84283,note_on,2,0,0,,1,,,73,127
84367,note_off,84,0,0,,1,,,73,127
84369,note_on,2,0,0,,0,,,72,127
84453,note_off,84,0,0,,6,,,66,127
84453,note_off,0,0,0,,10,,,69,127
84455,note_on,2,0,0,,8,,,68,127
84455,note_on,0,0,0,,4,,,64,127
84625,note_off,170,0,0,,0,,,72,127
84627,note_on,2,0,0,,1,,,73,127
84797,note_off,170,0,0,,4,,,64,127
84797,note_off,0,0,0,,8,,,68,127
84799,note_on,2,0,0,,6,,,66,127
84799,note_on,0,0,0,,3,,,63,127
84842,note_off,43,0,0,,1,,,73,127
84971,note_on,129,0,0,,3,,,75,127
85141,note_off,170,0,0,,3,,,75,127
85143,note_on,2,0,0,,1,,,73,127
85227,note_off,84,0,0,,1,,,73,127
85229,note_on,2,0,0,,0,,,72,127
85313,note_off,84,0,0,,0,,,72,127
85315,note_on,2,0,0,,11,,,70,127
85399,note_off,84,0,0,,11,,,70,127
85401,note_on,2,0,0,,8,,,68,127
85485,note_off,84,0,0,,8,,,68,127
85485,note_off,0,0,0,,3,,,63,127
85485,note_off,0,0,0,,6,,,66,127
85487,note_on,2,0,0,,6,,,66,127
85487,note_on,0,0,0,,1,,,61,127
85487,note_on,0,0,0,,10,,,69,127
85657,note_off,170,0,0,,10,,,69,127
85659,note_on,2,0,0,,8,,,68,127
85743,note_off,84,0,0,,8,,,68,127
85745,note_on,2,0,0,,10,,,69,127
85829,note_off,84,0,0,,10,,,69,127
85829,note_off,0,0,0,,1,,,61,127
85829,note_off,0,0,0,,6,,,66,127
85831,note_on,2,0,0,,0,,,60,127
85831,note_on,0,0,0,,6,,,66,127
85831,note_on,0,0,0,,8,,,68,127
86001,note_off,170,0,0,,8,,,68,127
86003,note_on,2,0,0,,4,,,76,127
86173,note_off,170,0,0,,4,,,76,127
86173,note_off,0,0,0,,0,,,60,127
86175,note_on,2,0,0,,8,,,56,127
86175,note_on,0,0,0,,3,,,75,127
86345,note_off,170,0,0,,3,,,75,127
86347,note_on,2,0,0,,0,,,72,127
86517,note_off,170,0,0,,0,,,72,127
86517,note_off,0,0,0,,8,,,56,127
86519,note_on,2,0,0,,10,,,57,127
86519,note_on,0,0,0,,1,,,73,127
86689,note_off,170,0,0,,1,,,73,127
86691,note_on,2,0,0,,8,,,80,127
86861,note_off,170,0,0,,8,,,80,127
86861,note_off,0,0,0,,10,,,57,127
86861,note_off,0,0,0,,6,,,66,127
86863,note_on,2,0,0,,3,,,63,127
86863,note_on,0,0,0,,1,,,61,127
86863,note_on,0,0,0,,6,,,54,127
86863,note_on,0,0,0,,12,,,83,127
86926,note_on,63,0,0,,10,,,81,127
86935,note_off,9,0,0,,12,,,83,127
86989,note_on,54,0,0,,8,,,80,127
86998,note_off,9,0,0,,10,,,81,127
87052,note_on,54,0,0,,6,,,78,127
87061,note_off,9,0,0,,8,,,80,127
87115,note_on,54,0,0,,4,,,76,127
87124,note_off,9,0,0,,6,,,78,127
87178,note_on,54,0,0,,3,,,75,127
87187,note_off,9,0,0,,4,,,76,127
87207,note_off,20,0,0,,6,,,54,127
87207,note_off,0,0,0,,1,,,61,127
87207,note_off,0,0,0,,3,,,63,127
87209,note_on,2,0,0,,8,,,56,127
87209,note_on,0,0,0,,4,,,64,127
87209,note_on,0,0,0,,1,,,61,127
87234,note_off,25,0,0,,3,,,75,127
87245,note_on,11,0,0,,1,,,73,127
87549,note_off,304,0,0,,1,,,73,127
87551,note_off,2,0,0,,1,,,61,127
87551,note_off,0,0,0,,4,,,64,127
87551,note_off,0,0,0,,8,,,56,127
87553,note_on,2,0,0,,8,,,56,127
87553,note_on,0,0,0,,3,,,63,127
87553,note_on,0,0,0,,1,,,73,127
87637,note_off,84,0,0,,1,,,73,127
87639,note_on,2,0,0,,0,,,72,127
87723,note_off,84,0,0,,0,,,72,127
87725,note_on,2,0,0,,11,,,70,127
87809,note_off,84,0,0,,11,,,70,127
87811,note_on,2,0,0,,0,,,72,127
87895,note_off,84,0,0,,0,,,72,127
87895,note_off,0,0,0,,3,,,63,127
87895,note_off,0,0,0,,8,,,56,127
87897,note_on,2,0,0,,1,,,61,127
87897,note_on,0,0,0,,1,,,49,127
87897,note_on,0,0,0,,0,,,72,127
88583,note_off,686,0,0,,0,,,72,127
88585,note_on,2,0,0,,1,,,73,127
88846,note_off,261,0,0,,1,,,49,127
88927,note_off,81,0,0,,1,,,73,127
88927,note_off,0,0,0,,1,,,61,127
88929,note_on,2,0,0,,0,,,60,127
88929,note_on,0,0,0,,3,,,63,127
88929,note_on,0,0,0,,8,,,68,127
89013,note_off,84,0,0,,8,,,68,127
89015,note_on,2,0,0,,6,,,66,127
89099,note_off,84,0,0,,6,,,66,127
89101,note_on,2,0,0,,5,,,65,127
89185,note_off,84,0,0,,5,,,65,127
89187,note_on,2,0,0,,6,,,66,127
89271,note_off,84,0,0,,6,,,66,127
89273,note_on,2,0,0,,3,,,75,127
89443,note_off,170,0,0,,3,,,63,127
89443,note_off,0,0,0,,0,,,60,127
89445,note_on,2,0,0,,0,,,60,127
89445,note_on,0,0,0,,3,,,63,127
89615,note_off,170,0,0,,3,,,63,127
89615,note_off,0,0,0,,0,,,60,127
89617,note_on,2,0,0,,1,,,61,127
89617,note_on,0,0,0,,4,,,64,127
89787,note_off,170,0,0,,3,,,75,127
89789,note_on,2,0,0,,1,,,73,127
89959,note_off,170,0,0,,1,,,73,127
89959,note_off,0,0,0,,4,,,64,127
89959,note_off,0,0,0,,1,,,61,127
89961,note_on,2,0,0,,3,,,63,127
89961,note_on,0,0,0,,0,,,60,127
89961,note_on,0,0,0,,8,,,68,127
90045,note_off,84,0,0,,8,,,68,127
90047,note_on,2,0,0,,6,,,66,127
90131,note_off,84,0,0,,6,,,66,127
90133,note_on,2,0,0,,5,,,65,127
90217,note_off,84,0,0,,5,,,65,127
90219,note_on,2,0,0,,6,,,66,127
90303,note_off,84,0,0,,6,,,66,127
90305,note_on,2,0,0,,3,,,75,127
90475,note_off,170,0,0,,0,,,60,127
90475,note_off,0,0,0,,3,,,63,127
90477,note_on,2,0,0,,0,,,60,127
90477,note_on,0,0,0,,3,,,63,127
90647,note_off,170,0,0,,3,,,63,127
90647,note_off,0,0,0,,0,,,60,127
90649,note_on,2,0,0,,4,,,64,127
90649,note_on,0,0,0,,1,,,61,127
90819,note_off,170,0,0,,3,,,75,127
90821,note_on,2,0,0,,1,,,73,127
90991,note_off,170,0,0,,1,,,73,127
90991,note_off,0,0,0,,1,,,61,127
90991,note_off,0,0,0,,4,,,64,127
90993,note_on,2,0,0,,3,,,63,127
90993,note_on,0,0,0,,8,,,56,127
90993,note_on,0,0,0,,1,,,73,127
91077,note_off,84,0,0,,1,,,73,127
91079,note_on,2,0,0,,0,,,72,127
91163,note_off,84,0,0,,0,,,72,127
91165,note_on,2,0,0,,11,,,70,127
91249,note_off,84,0,0,,11,,,70,127
91251,note_on,2,0,0,,0,,,72,127
91335,note_off,84,0,0,,0,,,72,127
91337,note_on,2,0,0,,8,,,80,127
91507,note_off,170,0,0,,8,,,56,127
91507,note_off,0,0,0,,3,,,63,127
91509,note_on,2,0,0,,3,,,63,127
91509,note_on,0,0,0,,8,,,56,127
91679,note_off,170,0,0,,8,,,56,127
91679,note_off,0,0,0,,3,,,63,127
91681,note_on,2,0,0,,6,,,54,127
91681,note_on,0,0,0,,1,,,61,127
91851,note_off,170,0,0,,8,,,80,127
91853,note_on,2,0,0,,10,,,81,127
92023,note_off,170,0,0,,10,,,81,127
92023,note_off,0,0,0,,1,,,61,127
92023,note_off,0,0,0,,6,,,54,127
92025,note_on,2,0,0,,8,,,56,127
92025,note_on,0,0,0,,3,,,63,127
92025,note_on,0,0,0,,1,,,73,127
92109,note_off,84,0,0,,1,,,73,127
92111,note_on,2,0,0,,0,,,72,127
92195,note_off,84,0,0,,0,,,72,127
92197,note_on,2,0,0,,11,,,70,127
92281,note_off,84,0,0,,11,,,70,127
92283,note_on,2,0,0,,0,,,72,127
92367,note_off,84,0,0,,0,,,72,127
92369,note_on,2,0,0,,8,,,80,127
92539,note_off,170,0,0,,3,,,63,127
92539,note_off,0,0,0,,8,,,56,127
92541,note_on,2,0,0,,3,,,63,127
92541,note_on,0,0,0,,8,,,56,127
92711,note_off,170,0,0,,8,,,56,127
92711,note_off,0,0,0,,3,,,63,127
92713,note_on,2,0,0,,6,,,54,127
92713,note_on,0,0,0,,1,,,61,127
92883,note_off,170,0,0,,8,,,80,127
92885,note_on,2,0,0,,10,,,81,127
93055,note_off,170,0,0,,10,,,81,127
93055,note_off,0,0,0,,1,,,61,127
93055,note_off,0,0,0,,6,,,54,127
93057,note_on,2,0,0,,3,,,63,127
93057,note_on,0,0,0,,8,,,56,127
93057,note_on,0,0,0,,3,,,75,127
93141,note_off,84,0,0,,3,,,75,127
93143,note_on,2,0,0,,1,,,73,127
93227,note_off,84,0,0,,1,,,73,127
93229,note_on,2,0,0,,0,,,72,127
93313,note_off,84,0,0,,0,,,72,127
93315,note_on,2,0,0,,1,,,73,127
93399,note_off,84,0,0,,1,,,73,127
93401,note_on,2,0,0,,0,,,84,127
93571,note_off,170,0,0,,8,,,56,127
93571,note_off,0,0,0,,3,,,63,127
93573,note_on,2,0,0,,8,,,56,127
93573,note_on,0,0,0,,3,,,63,127
93743,note_off,170,0,0,,3,,,63,127
93743,note_off,0,0,0,,8,,,56,127
93745,note_on,2,0,0,,10,,,57,127
93745,note_on,0,0,0,,4,,,64,127
93915,note_off,170,0,0,,0,,,84,127
93917,note_on,2,0,0,,1,,,85,127
94087,note_off,170,0,0,,1,,,85,127
94087,note_off,0,0,0,,4,,,64,127
94087,note_off,0,0,0,,10,,,57,127
94089,note_on,2,0,0,,8,,,56,127
94089,note_on,0,0,0,,3,,,63,127
94089,note_on,0,0,0,,3,,,75,127
94173,note_off,84,0,0,,3,,,75,127
94175,note_on,2,0,0,,1,,,73,127
94259,note_off,84,0,0,,1,,,73,127
94261,note_on,2,0,0,,0,,,72,127
94345,note_off,84,0,0,,0,,,72,127
94347,note_on,2,0,0,,1,,,73,127
94431,note_off,84,0,0,,1,,,73,127
94433,note_on,2,0,0,,0,,,84,127
94603,note_off,170,0,0,,3,,,63,127
94603,note_off,0,0,0,,8,,,56,127
94605,note_on,2,0,0,,3,,,63,127
94605,note_on,0,0,0,,8,,,56,127
94775,note_off,170,0,0,,8,,,56,127
94775,note_off,0,0,0,,3,,,63,127
94777,note_on,2,0,0,,4,,,64,127
94777,note_on,0,0,0,,10,,,57,127
94947,note_off,170,0,0,,0,,,84,127
94949,note_on,2,0,0,,1,,,85,127
95119,note_off,170,0,0,,10,,,57,127
95119,note_off,0,0,0,,4,,,64,127
95121,note_on,2,0,0,,8,,,56,127
95291,note_off,170,0,0,,1,,,85,127
95293,note_on,2,0,0,,0,,,84,127
95377,note_off,84,0,0,,0,,,84,127
95379,note_on,2,0,0,,11,,,82,127
95463,note_off,84,0,0,,11,,,82,127
95465,note_on,2,0,0,,8,,,80,127
95635,note_off,170,0,0,,8,,,80,127
95635,note_off,0,0,0,,8,,,56,127
95637,note_on,2,0,0,,6,,,54,127
95637,note_on,0,0,0,,0,,,84,127
95807,note_off,170,0,0,,0,,,84,127
95807,note_off,0,0,0,,6,,,54,127
95809,note_on,2,0,0,,4,,,52,127
95809,note_on,0,0,0,,1,,,85,127
95979,note_off,170,0,0,,1,,,85,127
95981,note_on,2,0,0,,8,,,80,127
96151,note_off,170,0,0,,8,,,80,127
96151,note_off,0,0,0,,4,,,52,127
96153,note_on,2,0,0,,6,,,54,127
96153,note_on,0,0,0,,10,,,81,127
96323,note_off,170,0,0,,10,,,81,127
96325,note_on,2,0,0,,6,,,78,127
96495,note_off,170,0,0,,6,,,78,127
96495,note_off,0,0,0,,6,,,54,127
96497,note_on,2,0,0,,8,,,56,127
96497,note_on,0,0,0,,4,,,76,127
96497,note_on,0,0,0,,8,,,80,127
96667,note_off,170,0,0,,4,,,76,127
96669,note_on,2,0,0,,3,,,75,127
96839,note_off,170,0,0,,3,,,75,127
96841,note_on,2,0,0,,8,,,44,127
96841,note_on,0,0,0,,1,,,73,127
97011,note_off,170,0,0,,1,,,73,127
97013,note_off,2,0,0,,8,,,80,127
97013,note_on,0,0,0,,0,,,72,127
97178,note_off,165,0,0,,8,,,56,127
97183,note_off,5,0,0,,0,,,72,127
97183,note_off,0,0,0,,8,,,44,127
97185,note_on,2,0,0,,1,,,49,127
97357,note_on,172,0,0,,4,,,76,127
97441,note_off,84,0,0,,4,,,76,127
97443,note_on,2,0,0,,6,,,78,127
97527,note_off,84,0,0,,6,,,78,127
97527,note_off,0,0,0,,1,,,49,127
97529,note_on,2,0,0,,3,,,51,127
97529,note_on,0,0,0,,8,,,80,127
97613,note_off,84,0,0,,8,,,80,127
97615,note_on,2,0,0,,10,,,81,127
97699,note_off,84,0,0,,10,,,81,127
97701,note_on,2,0,0,,8,,,80,127
97785,note_off,84,0,0,,8,,,80,127
97787,note_on,2,0,0,,6,,,78,127
97871,note_off,84,0,0,,6,,,78,127
97871,note_off,0,0,0,,3,,,51,127
97873,note_on,2,0,0,,4,,,52,127
97873,note_on,0,0,0,,4,,,76,127
97957,note_off,84,0,0,,4,,,76,127
97959,note_on,2,0,0,,3,,,75,127
98043,note_off,84,0,0,,3,,,75,127
98045,note_on,2,0,0,,1,,,73,127
98129,note_off,84,0,0,,1,,,73,127
98131,note_on,2,0,0,,12,,,71,127
98215,note_off,84,0,0,,12,,,71,127
98215,note_off,0,0,0,,4,,,52,127
98217,note_on,2,0,0,,6,,,54,127
98217,note_on,0,0,0,,10,,,69,127
98301,note_off,84,0,0,,10,,,69,127
98303,note_on,2,0,0,,1,,,73,127
98387,note_off,84,0,0,,1,,,73,127
98389,note_on,2,0,0,,12,,,71,127
98473,note_off,84,0,0,,12,,,71,127
98475,note_on,2,0,0,,10,,,69,127
98559,note_off,84,0,0,,10,,,69,127
98559,note_off,0,0,0,,6,,,54,127
98561,note_on,2,0,0,,8,,,56,127
98561,note_on,0,0,0,,8,,,68,127
98645,note_off,84,0,0,,8,,,68,127
98647,note_on,2,0,0,,6,,,66,127
98731,note_off,84,0,0,,6,,,66,127
98733,note_on,2,0,0,,4,,,64,127
98817,note_off,84,0,0,,4,,,64,127
98819,note_on,2,0,0,,3,,,63,127
98903,note_off,84,0,0,,3,,,63,127
98905,note_on,2,0,0,,8,,,44,127
98905,note_on,0,0,0,,1,,,61,127
98989,note_off,84,0,0,,1,,,61,127
98991,note_on,2,0,0,,0,,,60,127
99075,note_off,84,0,0,,0,,,60,127
99077,note_on,2,0,0,,1,,,61,127
99161,note_off,84,0,0,,1,,,61,127
99163,note_on,2,0,0,,3,,,63,127
99242,note_off,79,0,0,,8,,,56,127
99247,note_off,5,0,0,,3,,,63,127
99247,note_off,0,0,0,,8,,,44,127
99249,note_on,2,0,0,,4,,,64,127
99249,note_on,0,0,0,,1,,,49,127
99333,note_off,84,0,0,,4,,,64,127
99337,note_on,4,0,0,,6,,,66,127
99421,note_off,84,0,0,,6,,,66,127
99423,note_on,2,0,0,,8,,,68,127
99507,note_off,84,0,0,,8,,,68,127
99511,note_on,4,0,0,,10,,,69,127
99592,note_off,81,0,0,,1,,,49,127
99596,note_off,4,0,0,,10,,,69,127
99598,note_on,2,0,0,,8,,,68,127
99598,note_on,0,0,0,,3,,,51,127
99682,note_off,84,0,0,,8,,,68,127
99686,note_on,4,0,0,,6,,,66,127
99770,note_off,84,0,0,,6,,,66,127
99772,note_on,2,0,0,,4,,,64,127
99856,note_off,84,0,0,,4,,,64,127
99860,note_on,4,0,0,,3,,,63,127
99941,note_off,81,0,0,,3,,,51,127
99945,note_off,4,0,0,,3,,,63,127
99947,note_on,2,0,0,,1,,,61,127
99947,note_on,0,0,0,,4,,,52,127
100031,note_off,84,0,0,,1,,,61,127
100035,note_on,4,0,0,,12,,,59,127
100119,note_off,84,0,0,,12,,,59,127
100121,note_on,2,0,0,,10,,,57,127
100207,note_off,86,0,0,,10,,,57,127
100211,note_on,4,0,0,,8,,,56,127
100290,note_off,79,0,0,,4,,,52,127
100297,note_off,7,0,0,,8,,,56,127
100299,note_on,2,0,0,,6,,,42,127
100299,note_on,0,0,0,,6,,,54,127
100299,note_on,0,0,0,,10,,,57,127
100385,note_off,86,0,0,,10,,,57,127
100390,note_on,5,0,0,,12,,,59,127
100476,note_off,86,0,0,,12,,,59,127
100478,note_on,2,0,0,,1,,,61,127
100564,note_off,86,0,0,,1,,,61,127
100569,note_on,5,0,0,,3,,,63,127
100650,note_off,81,0,0,,6,,,54,127
100650,note_off,0,0,0,,6,,,42,127
100655,note_off,5,0,0,,3,,,63,127
100657,note_on,2,0,0,,8,,,44,127
100657,note_on,0,0,0,,4,,,52,127
100657,note_on,0,0,0,,8,,,56,127
100836,note_on,179,0,0,,1,,,61,127
101003,note_off,167,0,0,,8,,,56,127
101008,note_off,5,0,0,,4,,,52,127
101010,note_off,2,0,0,,1,,,61,127
101015,note_on,5,0,0,,3,,,51,127
101015,note_on,0,0,0,,6,,,54,127
101194,note_on,179,0,0,,0,,,60,127
101357,note_off,163,0,0,,8,,,44,127
101361,note_off,4,0,0,,6,,,54,127
101366,note_off,5,0,0,,3,,,51,127
101368,note_off,2,0,0,,0,,,60,127
101395,note_on,27,0,0,,1,,,49,127
101395,note_on,0,0,0,,1,,,37,127
101395,note_on,0,0,0,,0,,,60,127
101832,note_on,437,0,0,,1,,,61,127
101853,note_off,21,0,0,,0,,,60,127
104239,note_off,2386,0,0,,1,,,61,127
104260,note_off,21,0,0,,1,,,37,127
104260,note_off,0,0,0,,1,,,49,127
109056,end_of_track,4796,1,0,,,,,,
