tick,type,time,meta,track,program,channel,pitch,tempo,note,velocity
0,copyright,0,1,0,,,,,,
0,program_change,0,0,0,6,0,,,,
0,pitchwheel,0,0,0,,0,0,,,
0,program_change,0,0,0,6,1,,,,
0,pitchwheel,0,0,0,,1,-590,,,
0,program_change,0,0,0,6,2,,,,
0,pitchwheel,0,0,0,,2,-272,,,
0,program_change,0,0,0,6,3,,,,
0,pitchwheel,0,0,0,,3,-353,,,
0,program_change,0,0,0,6,4,,,,
0,pitchwheel,0,0,0,,4,-560,,,
0,program_change,0,0,0,6,5,,,,
0,pitchwheel,0,0,0,,5,-80,,,
0,program_change,0,0,0,6,6,,,,
0,pitchwheel,0,0,0,,6,-625,,,
0,program_change,0,0,0,6,7,,,,
0,pitchwheel,0,0,0,,7,-130,,,
0,program_change,0,0,0,6,8,,,,
0,pitchwheel,0,0,0,,8,-512,,,
0,program_change,0,0,0,6,10,,,,
0,pitchwheel,0,0,0,,10,-464,,,
0,program_change,0,0,0,6,11,,,,
0,pitchwheel,0,0,0,,11,-208,,,
0,program_change,0,0,0,6,12,,,,
0,pitchwheel,0,0,0,,12,-553,,,
0,set_tempo,0,1,0,,,,500000,,
115,note_on,115,0,0,,11,,,82,127
228,note_off,113,0,0,,11,,,82,127
230,note_on,2,0,0,,5,,,77,127
343,note_off,113,0,0,,5,,,77,127
345,note_on,2,0,0,,2,,,74,127
458,note_off,113,0,0,,2,,,74,127
460,note_on,2,0,0,,11,,,70,127
573,note_off,113,0,0,,11,,,70,127
575,note_on,2,0,0,,5,,,65,127
803,note_off,228,0,0,,5,,,65,127
805,note_on,2,0,0,,3,,,75,127
1033,note_off,228,0,0,,3,,,75,127
1035,note_on,2,0,0,,11,,,70,127
1035,note_on,0,0,0,,2,,,74,127
1148,note_off,113,0,0,,11,,,70,127
1150,note_on,2,0,0,,5,,,65,127
1263,note_off,113,0,0,,5,,,65,127
1265,note_on,2,0,0,,2,,,62,127
1378,note_off,113,0,0,,2,,,62,127
1380,note_on,2,0,0,,11,,,58,127
1490,note_off,110,0,0,,2,,,74,127
1492,note_off,2,0,0,,11,,,58,127
1494,note_on,2,0,0,,5,,,53,127
1722,note_off,228,0,0,,5,,,53,127
1724,note_on,2,0,0,,3,,,63,127
1724,note_on,0,0,0,,10,,,81,127
1952,note_off,228,0,0,,10,,,81,127
1952,note_off,0,0,0,,3,,,63,127
1954,note_on,2,0,0,,2,,,62,127
1954,note_on,0,0,0,,11,,,82,127
2067,note_off,113,0,0,,11,,,82,127
2069,note_on,2,0,0,,5,,,77,127
2182,note_off,113,0,0,,2,,,62,127
2184,note_on,2,0,0,,11,,,70,127
2297,note_off,113,0,0,,5,,,77,127
2299,note_on,2,0,0,,6,,,78,127
2412,note_off,113,0,0,,6,,,78,127
2412,note_off,0,0,0,,11,,,70,127
2414,note_on,2,0,0,,3,,,63,127
2414,note_on,0,0,0,,7,,,79,127
2527,note_off,113,0,0,,7,,,79,127
2529,note_on,2,0,0,,3,,,75,127
2642,note_off,113,0,0,,3,,,63,127
2644,note_on,2,0,0,,0,,,72,127
2757,note_off,113,0,0,,3,,,75,127
2759,note_on,2,0,0,,4,,,76,127
2872,note_off,113,0,0,,4,,,76,127
2872,note_off,0,0,0,,0,,,72,127
2874,note_on,2,0,0,,2,,,62,127
2874,note_on,0,0,0,,5,,,77,127
2987,note_off,113,0,0,,5,,,77,127
2989,note_on,2,0,0,,5,,,77,127
3102,note_off,113,0,0,,2,,,62,127
3104,note_on,2,0,0,,11,,,70,127
3217,note_off,113,0,0,,5,,,77,127
3219,note_on,2,0,0,,6,,,78,127
3332,note_off,113,0,0,,6,,,78,127
3332,note_off,0,0,0,,11,,,70,127
3334,note_on,2,0,0,,3,,,63,127
3334,note_on,0,0,0,,7,,,79,127
3447,note_off,113,0,0,,7,,,79,127
3449,note_on,2,0,0,,3,,,75,127
3562,note_off,113,0,0,,3,,,63,127
3564,note_on,2,0,0,,0,,,72,127
3677,note_off,113,0,0,,3,,,75,127
3679,note_on,2,0,0,,4,,,76,127
3792,note_off,113,0,0,,4,,,76,127
3792,note_off,0,0,0,,0,,,72,127
3794,note_on,2,0,0,,2,,,62,127
3794,note_on,0,0,0,,5,,,77,127
3907,note_off,113,0,0,,5,,,77,127
3909,note_on,2,0,0,,2,,,74,127
4022,note_off,113,0,0,,2,,,74,127
4022,note_off,0,0,0,,2,,,62,127
4024,note_on,2,0,0,,2,,,62,127
4024,note_on,0,0,0,,0,,,72,127
4137,note_off,113,0,0,,0,,,72,127
4139,note_on,2,0,0,,11,,,70,127
4252,note_off,113,0,0,,11,,,70,127
4252,note_off,0,0,0,,2,,,62,127
4254,note_on,2,0,0,,3,,,63,127
4254,note_on,0,0,0,,3,,,75,127
4367,note_off,113,0,0,,3,,,75,127
4369,note_on,2,0,0,,0,,,72,127
4482,note_off,113,0,0,,0,,,72,127
4482,note_off,0,0,0,,3,,,63,127
4484,note_on,2,0,0,,5,,,65,127
4484,note_on,0,0,0,,11,,,70,127
4597,note_off,113,0,0,,11,,,70,127
4599,note_on,2,0,0,,10,,,69,127
4712,note_off,113,0,0,,10,,,69,127
4712,note_off,0,0,0,,5,,,65,127
4714,note_on,2,0,0,,2,,,62,127
4714,note_on,0,0,0,,5,,,77,127
4827,note_off,113,0,0,,5,,,77,127
4829,note_on,2,0,0,,2,,,74,127
4942,note_off,113,0,0,,2,,,74,127
4942,note_off,0,0,0,,2,,,62,127
4944,note_on,2,0,0,,2,,,50,127
4944,note_on,0,0,0,,0,,,72,127
5057,note_off,113,0,0,,0,,,72,127
5059,note_on,2,0,0,,11,,,70,127
5172,note_off,113,0,0,,11,,,70,127
5172,note_off,0,0,0,,2,,,50,127
5174,note_on,2,0,0,,3,,,51,127
5174,note_on,0,0,0,,3,,,75,127
5287,note_off,113,0,0,,3,,,75,127
5289,note_on,2,0,0,,0,,,72,127
5402,note_off,113,0,0,,0,,,72,127
5402,note_off,0,0,0,,3,,,51,127
5404,note_on,2,0,0,,5,,,53,127
5404,note_on,0,0,0,,11,,,70,127
5517,note_off,113,0,0,,11,,,70,127
5519,note_on,2,0,0,,10,,,69,127
5632,note_off,113,0,0,,10,,,69,127
5632,note_off,0,0,0,,5,,,53,127
5634,note_on,2,0,0,,11,,,46,127
5634,note_on,0,0,0,,11,,,70,127
5747,note_off,113,0,0,,11,,,70,127
5749,note_on,2,0,0,,2,,,74,127
5862,note_off,113,0,0,,2,,,74,127
5864,note_on,2,0,0,,11,,,70,127
5977,note_off,113,0,0,,11,,,70,127
5979,note_on,2,0,0,,5,,,65,127
6092,note_off,113,0,0,,5,,,65,127
6094,note_on,2,0,0,,2,,,62,127
6207,note_off,113,0,0,,2,,,62,127
6207,note_off,0,0,0,,11,,,46,127
6209,note_on,2,0,0,,11,,,58,127
6322,note_off,113,0,0,,11,,,58,127
6324,note_on,2,0,0,,5,,,53,127
6437,note_off,113,0,0,,5,,,53,127
6439,note_on,2,0,0,,2,,,50,127
6552,note_off,113,0,0,,2,,,50,127
6554,note_on,2,0,0,,11,,,46,127
7010,note_off,456,0,0,,11,,,46,127
7015,note_on,5,0,0,,6,,,78,127
7128,note_off,113,0,0,,6,,,78,127
7130,note_on,2,0,0,,5,,,77,127
7243,note_off,113,0,0,,5,,,77,127
7245,note_on,2,0,0,,3,,,75,127
7358,note_off,113,0,0,,3,,,75,127
7360,note_on,2,0,0,,1,,,73,127
7473,note_off,113,0,0,,1,,,73,127
7475,note_on,2,0,0,,0,,,72,127
7588,note_off,113,0,0,,0,,,72,127
7590,note_on,2,0,0,,11,,,70,127
7703,note_off,113,0,0,,11,,,70,127
7705,note_on,2,0,0,,10,,,69,127
7818,note_off,113,0,0,,10,,,69,127
7820,note_on,2,0,0,,6,,,66,127
7935,note_on,115,0,0,,5,,,65,127
8048,note_off,113,0,0,,5,,,65,127
8050,note_on,2,0,0,,3,,,63,127
8163,note_off,113,0,0,,3,,,63,127
8165,note_on,2,0,0,,1,,,61,127
8278,note_off,113,0,0,,1,,,61,127
8280,note_on,2,0,0,,0,,,60,127
8393,note_off,113,0,0,,0,,,60,127
8395,note_on,2,0,0,,11,,,58,127
8508,note_off,113,0,0,,11,,,58,127
8508,note_off,0,0,0,,6,,,66,127
8510,note_on,2,0,0,,10,,,57,127
8510,note_on,0,0,0,,5,,,65,127
8623,note_off,113,0,0,,10,,,57,127
8625,note_on,2,0,0,,6,,,54,127
8738,note_off,113,0,0,,6,,,54,127
8740,note_on,2,0,0,,5,,,53,127
8853,note_off,113,0,0,,5,,,53,127
8855,note_on,2,0,0,,3,,,51,127
8968,note_off,113,0,0,,3,,,51,127
8968,note_off,0,0,0,,5,,,65,127
8970,note_on,2,0,0,,1,,,49,127
8970,note_on,0,0,0,,10,,,69,127
9083,note_off,113,0,0,,1,,,49,127
9085,note_on,2,0,0,,0,,,48,127
9198,note_off,113,0,0,,0,,,48,127
9198,note_off,0,0,0,,10,,,69,127
9200,note_on,2,0,0,,11,,,46,127
9200,note_on,0,0,0,,11,,,70,127
9313,note_off,113,0,0,,11,,,70,127
9313,note_off,0,0,0,,11,,,46,127
9315,note_on,2,0,0,,8,,,44,127
9315,note_on,0,0,0,,0,,,72,127
9428,note_off,113,0,0,,0,,,72,127
9428,note_off,0,0,0,,8,,,44,127
9430,note_on,2,0,0,,6,,,42,127
9430,note_on,0,0,0,,1,,,73,127
9543,note_off,113,0,0,,1,,,73,127
9545,note_on,2,0,0,,3,,,75,127
9658,note_off,113,0,0,,3,,,75,127
9658,note_off,0,0,0,,6,,,42,127
9660,note_on,2,0,0,,5,,,41,127
9660,note_on,0,0,0,,5,,,77,127
9773,note_off,113,0,0,,5,,,77,127
9775,note_on,2,0,0,,0,,,72,127
9888,note_off,113,0,0,,0,,,72,127
9890,note_on,2,0,0,,10,,,69,127
10003,note_off,113,0,0,,10,,,69,127
10005,note_on,2,0,0,,5,,,65,127
10118,note_off,113,0,0,,5,,,65,127
10120,note_on,2,0,0,,0,,,60,127
10233,note_off,113,0,0,,0,,,60,127
10233,note_off,0,0,0,,5,,,41,127
10235,note_on,2,0,0,,10,,,57,127
10348,note_off,113,0,0,,10,,,57,127
10350,note_on,2,0,0,,5,,,53,127
10463,note_off,113,0,0,,5,,,53,127
10465,note_on,2,0,0,,0,,,48,127
10578,note_off,113,0,0,,0,,,48,127
10580,note_on,2,0,0,,5,,,41,127
10695,note_on,115,0,0,,6,,,78,127
10808,note_off,113,0,0,,6,,,78,127
10810,note_on,2,0,0,,5,,,77,127
10923,note_off,113,0,0,,5,,,77,127
10925,note_on,2,0,0,,3,,,75,127
11035,note_off,110,0,0,,5,,,41,127
11037,note_off,2,0,0,,3,,,75,127
11039,note_on,2,0,0,,1,,,73,127
11152,note_off,113,0,0,,1,,,73,127
11154,note_on,2,0,0,,0,,,72,127
11267,note_off,113,0,0,,0,,,72,127
11269,note_on,2,0,0,,11,,,70,127
11382,note_off,113,0,0,,11,,,70,127
11384,note_on,2,0,0,,10,,,69,127
11497,note_off,113,0,0,,10,,,69,127
11499,note_on,2,0,0,,6,,,66,127
11614,note_on,115,0,0,,5,,,65,127
11727,note_off,113,0,0,,5,,,65,127
11729,note_on,2,0,0,,3,,,63,127
11842,note_off,113,0,0,,3,,,63,127
11844,note_on,2,0,0,,1,,,61,127
11957,note_off,113,0,0,,1,,,61,127
11959,note_on,2,0,0,,0,,,60,127
12072,note_off,113,0,0,,0,,,60,127
12074,note_on,2,0,0,,11,,,58,127
12187,note_off,113,0,0,,11,,,58,127
12187,note_off,0,0,0,,6,,,66,127
12189,note_on,2,0,0,,10,,,57,127
12189,note_on,0,0,0,,5,,,65,127
12302,note_off,113,0,0,,10,,,57,127
12304,note_on,2,0,0,,6,,,54,127
12417,note_off,113,0,0,,6,,,54,127
12419,note_on,2,0,0,,5,,,53,127
12532,note_off,113,0,0,,5,,,53,127
12534,note_on,2,0,0,,3,,,51,127
12647,note_off,113,0,0,,3,,,51,127
12647,note_off,0,0,0,,5,,,65,127
12649,note_on,2,0,0,,1,,,49,127
12649,note_on,0,0,0,,10,,,69,127
12762,note_off,113,0,0,,1,,,49,127
12764,note_on,2,0,0,,0,,,48,127
12877,note_off,113,0,0,,0,,,48,127
12877,note_off,0,0,0,,10,,,69,127
12879,note_on,2,0,0,,11,,,46,127
12879,note_on,0,0,0,,11,,,70,127
12992,note_off,113,0,0,,11,,,70,127
12992,note_off,0,0,0,,11,,,46,127
12994,note_on,2,0,0,,8,,,44,127
12994,note_on,0,0,0,,0,,,72,127
13107,note_off,113,0,0,,0,,,72,127
13107,note_off,0,0,0,,8,,,44,127
13109,note_on,2,0,0,,6,,,42,127
13109,note_on,0,0,0,,1,,,73,127
13222,note_off,113,0,0,,1,,,73,127
13224,note_on,2,0,0,,3,,,75,127
13337,note_off,113,0,0,,3,,,75,127
13337,note_off,0,0,0,,6,,,42,127
13339,note_on,2,0,0,,5,,,41,127
13339,note_on,0,0,0,,5,,,77,127
13452,note_off,113,0,0,,5,,,77,127
13454,note_on,2,0,0,,0,,,72,127
13567,note_off,113,0,0,,0,,,72,127
13569,note_on,2,0,0,,10,,,69,127
13682,note_off,113,0,0,,10,,,69,127
13684,note_on,2,0,0,,5,,,65,127
13797,note_off,113,0,0,,5,,,65,127
13799,note_on,2,0,0,,0,,,60,127
13912,note_off,113,0,0,,0,,,60,127
13912,note_off,0,0,0,,5,,,41,127
13914,note_on,2,0,0,,10,,,57,127
14027,note_off,113,0,0,,10,,,57,127
14029,note_on,2,0,0,,5,,,53,127
14142,note_off,113,0,0,,5,,,53,127
14144,note_on,2,0,0,,0,,,48,127
14257,note_off,113,0,0,,0,,,48,127
14259,note_on,2,0,0,,5,,,41,127
14835,note_off,576,0,0,,5,,,41,127
14950,note_on,115,0,0,,12,,,71,127
15063,note_off,113,0,0,,12,,,71,127
15065,note_on,2,0,0,,0,,,72,127
15180,note_on,115,0,0,,2,,,62,127
15293,note_off,113,0,0,,2,,,62,127
15295,note_on,2,0,0,,4,,,64,127
15408,note_off,113,0,0,,0,,,72,127
15410,note_on,2,0,0,,11,,,70,127
15523,note_off,113,0,0,,11,,,70,127
15525,note_on,2,0,0,,10,,,69,127
15638,note_off,113,0,0,,4,,,64,127
15640,note_on,2,0,0,,12,,,59,127
15753,note_off,113,0,0,,12,,,59,127
15755,note_on,2,0,0,,0,,,60,127
15868,note_off,113,0,0,,10,,,69,127
15870,note_on,2,0,0,,7,,,67,127
15983,note_off,113,0,0,,7,,,67,127
15985,note_on,2,0,0,,5,,,65,127
16098,note_off,113,0,0,,5,,,65,127
16098,note_off,0,0,0,,0,,,60,127
16100,note_on,2,0,0,,4,,,64,127
16100,note_on,0,0,0,,11,,,58,127
16213,note_off,113,0,0,,11,,,58,127
16213,note_off,0,0,0,,4,,,64,127
16215,note_on,2,0,0,,5,,,65,127
16215,note_on,0,0,0,,10,,,57,127
16328,note_off,113,0,0,,10,,,57,127
16328,note_off,0,0,0,,5,,,65,127
16330,note_on,2,0,0,,7,,,67,127
16330,note_on,0,0,0,,7,,,55,127
16443,note_off,113,0,0,,7,,,55,127
16443,note_off,0,0,0,,7,,,67,127
16445,note_on,2,0,0,,10,,,69,127
16445,note_on,0,0,0,,5,,,53,127
16558,note_off,113,0,0,,5,,,53,127
16558,note_off,0,0,0,,10,,,69,127
16560,note_on,2,0,0,,11,,,70,127
16560,note_on,0,0,0,,4,,,52,127
16673,note_off,113,0,0,,4,,,52,127
16673,note_off,0,0,0,,11,,,70,127
16675,note_on,2,0,0,,10,,,69,127
16675,note_on,0,0,0,,5,,,53,127
16788,note_off,113,0,0,,10,,,69,127
16790,note_on,2,0,0,,12,,,71,127
16903,note_off,113,0,0,,12,,,71,127
16903,note_off,0,0,0,,5,,,53,127
16905,note_on,2,0,0,,0,,,72,127
17020,note_on,115,0,0,,2,,,62,127
17133,note_off,113,0,0,,2,,,62,127
17135,note_on,2,0,0,,4,,,64,127
17248,note_off,113,0,0,,0,,,72,127
17250,note_on,2,0,0,,11,,,70,127
17363,note_off,113,0,0,,11,,,70,127
17365,note_on,2,0,0,,10,,,69,127
17478,note_off,113,0,0,,4,,,64,127
17480,note_on,2,0,0,,12,,,59,127
17593,note_off,113,0,0,,12,,,59,127
17595,note_on,2,0,0,,0,,,60,127
17708,note_off,113,0,0,,10,,,69,127
17710,note_on,2,0,0,,7,,,67,127
17823,note_off,113,0,0,,7,,,67,127
17825,note_on,2,0,0,,5,,,65,127
17938,note_off,113,0,0,,5,,,65,127
17938,note_off,0,0,0,,0,,,60,127
17940,note_on,2,0,0,,4,,,64,127
17940,note_on,0,0,0,,11,,,58,127
18053,note_off,113,0,0,,11,,,58,127
18053,note_off,0,0,0,,4,,,64,127
18055,note_on,2,0,0,,5,,,65,127
18055,note_on,0,0,0,,10,,,57,127
18168,note_off,113,0,0,,10,,,57,127
18168,note_off,0,0,0,,5,,,65,127
18170,note_on,2,0,0,,7,,,67,127
18170,note_on,0,0,0,,7,,,55,127
18283,note_off,113,0,0,,7,,,55,127
18283,note_off,0,0,0,,7,,,67,127
18285,note_on,2,0,0,,10,,,69,127
18285,note_on,0,0,0,,5,,,53,127
18398,note_off,113,0,0,,5,,,53,127
18398,note_off,0,0,0,,10,,,69,127
18400,note_on,2,0,0,,11,,,70,127
18400,note_on,0,0,0,,4,,,52,127
18513,note_off,113,0,0,,4,,,52,127
18513,note_off,0,0,0,,11,,,70,127
18515,note_on,2,0,0,,10,,,69,127
18515,note_on,0,0,0,,5,,,53,127
18628,note_off,113,0,0,,10,,,69,127
18630,note_on,2,0,0,,4,,,76,127
18743,note_off,113,0,0,,4,,,76,127
18745,note_on,2,0,0,,5,,,77,127
18858,note_off,113,0,0,,5,,,53,127
18860,note_on,2,0,0,,7,,,55,127
18973,note_off,113,0,0,,7,,,55,127
18975,note_on,2,0,0,,10,,,57,127
19088,note_off,113,0,0,,5,,,77,127
19090,note_on,2,0,0,,3,,,75,127
19203,note_off,113,0,0,,3,,,75,127
19205,note_on,2,0,0,,2,,,74,127
19318,note_off,113,0,0,,10,,,57,127
19320,note_on,2,0,0,,5,,,53,127
19433,note_off,113,0,0,,5,,,53,127
19435,note_on,2,0,0,,11,,,58,127
19548,note_off,113,0,0,,2,,,74,127
19550,note_on,2,0,0,,0,,,72,127
19663,note_off,113,0,0,,0,,,72,127
19665,note_on,2,0,0,,11,,,70,127
19778,note_off,113,0,0,,11,,,58,127
19780,note_on,2,0,0,,0,,,60,127
19893,note_off,113,0,0,,0,,,60,127
19895,note_on,2,0,0,,2,,,62,127
20008,note_off,113,0,0,,11,,,70,127
20010,note_on,2,0,0,,2,,,74,127
20123,note_off,113,0,0,,2,,,74,127
20125,note_on,2,0,0,,0,,,72,127
20238,note_off,113,0,0,,0,,,72,127
20238,note_off,0,0,0,,2,,,62,127
20240,note_on,2,0,0,,11,,,70,127
20240,note_on,0,0,0,,4,,,64,127
20353,note_off,113,0,0,,4,,,64,127
20353,note_off,0,0,0,,11,,,70,127
20355,note_on,2,0,0,,10,,,69,127
20355,note_on,0,0,0,,5,,,53,127
20355,note_on,0,0,0,,5,,,65,127
20468,note_off,113,0,0,,10,,,69,127
20470,note_on,2,0,0,,4,,,76,127
20583,note_off,113,0,0,,4,,,76,127
20585,note_on,2,0,0,,5,,,77,127
20698,note_off,113,0,0,,5,,,65,127
20698,note_off,0,0,0,,5,,,53,127
20700,note_on,2,0,0,,7,,,55,127
20813,note_off,113,0,0,,7,,,55,127
20815,note_on,2,0,0,,10,,,57,127
20928,note_off,113,0,0,,5,,,77,127
20930,note_on,2,0,0,,3,,,75,127
21043,note_off,113,0,0,,3,,,75,127
21045,note_on,2,0,0,,2,,,74,127
21158,note_off,113,0,0,,10,,,57,127
21160,note_on,2,0,0,,5,,,53,127
21273,note_off,113,0,0,,5,,,53,127
21275,note_on,2,0,0,,11,,,58,127
21388,note_off,113,0,0,,2,,,74,127
21390,note_on,2,0,0,,0,,,72,127
21503,note_off,113,0,0,,0,,,72,127
21505,note_on,2,0,0,,11,,,70,127
21618,note_off,113,0,0,,11,,,70,127
21618,note_off,0,0,0,,11,,,58,127
21620,note_on,2,0,0,,10,,,69,127
21620,note_on,0,0,0,,0,,,60,127
21733,note_off,113,0,0,,0,,,60,127
21733,note_off,0,0,0,,10,,,69,127
21735,note_on,2,0,0,,11,,,70,127
21735,note_on,0,0,0,,2,,,62,127
21848,note_off,113,0,0,,11,,,70,127
21850,note_on,2,0,0,,2,,,74,127
21963,note_off,113,0,0,,2,,,74,127
21965,note_on,2,0,0,,0,,,72,127
22078,note_off,113,0,0,,0,,,72,127
22078,note_off,0,0,0,,2,,,62,127
22080,note_on,2,0,0,,11,,,70,127
22080,note_on,0,0,0,,4,,,64,127
22193,note_off,113,0,0,,4,,,64,127
22193,note_off,0,0,0,,11,,,70,127
22195,note_on,2,0,0,,10,,,69,127
22195,note_on,0,0,0,,5,,,65,127
22308,note_off,113,0,0,,10,,,69,127
22310,note_on,2,0,0,,0,,,72,127
22423,note_off,113,0,0,,0,,,72,127
22425,note_on,2,0,0,,11,,,70,127
22538,note_off,113,0,0,,11,,,70,127
22540,note_on,2,0,0,,10,,,69,127
22653,note_off,113,0,0,,10,,,69,127
22653,note_off,0,0,0,,5,,,65,127
22655,note_on,2,0,0,,7,,,67,127
22655,note_on,0,0,0,,11,,,58,127
22768,note_off,113,0,0,,7,,,67,127
22770,note_on,2,0,0,,5,,,65,127
22883,note_off,113,0,0,,5,,,65,127
22885,note_on,2,0,0,,4,,,64,127
22998,note_off,113,0,0,,4,,,64,127
23000,note_on,2,0,0,,2,,,62,127
23113,note_off,113,0,0,,2,,,62,127
23113,note_off,0,0,0,,11,,,58,127
23115,note_on,2,0,0,,0,,,60,127
23115,note_on,0,0,0,,0,,,48,127
23267,note_off,152,0,0,,0,,,60,127
23275,note_on,8,0,0,,2,,,62,127
23330,note_off,55,0,0,,2,,,62,127
23330,note_on,0,0,0,,4,,,64,127
23385,note_off,55,0,0,,4,,,64,127
23385,note_on,0,0,0,,5,,,65,127
23440,note_off,55,0,0,,5,,,65,127
23440,note_on,0,0,0,,7,,,67,127
23495,note_off,55,0,0,,7,,,67,127
23495,note_on,0,0,0,,10,,,69,127
23550,note_off,55,0,0,,10,,,69,127
23550,note_on,0,0,0,,12,,,71,127
23605,note_off,55,0,0,,12,,,71,127
23605,note_on,0,0,0,,0,,,72,127
23660,note_off,55,0,0,,0,,,72,127
23660,note_on,0,0,0,,2,,,74,127
23715,note_off,55,0,0,,2,,,74,127
23715,note_on,0,0,0,,4,,,76,127
23770,note_off,55,0,0,,4,,,76,127
23770,note_on,0,0,0,,5,,,77,127
23825,note_off,55,0,0,,5,,,77,127
23825,note_on,0,0,0,,7,,,79,127
23880,note_off,55,0,0,,7,,,79,127
23880,note_on,0,0,0,,10,,,81,127
23935,note_off,55,0,0,,10,,,81,127
23935,note_on,0,0,0,,11,,,82,127
23990,note_off,55,0,0,,11,,,82,127
23990,note_on,0,0,0,,0,,,84,127
24032,note_off,42,0,0,,0,,,48,127
24045,note_off,13,0,0,,0,,,84,127
24045,note_on,0,0,0,,10,,,81,127
24160,note_on,115,0,0,,0,,,72,127
24273,note_off,113,0,0,,0,,,72,127
24275,note_on,2,0,0,,10,,,69,127
24388,note_off,113,0,0,,10,,,69,127
24390,note_on,2,0,0,,0,,,72,127
24503,note_off,113,0,0,,0,,,72,127
24505,note_on,2,0,0,,5,,,65,127
24618,note_off,113,0,0,,5,,,65,127
24620,note_on,2,0,0,,10,,,69,127
24733,note_off,113,0,0,,10,,,69,127
24735,note_on,2,0,0,,0,,,60,127
24848,note_off,113,0,0,,0,,,60,127
24850,note_on,2,0,0,,5,,,65,127
24963,note_off,113,0,0,,5,,,65,127
24965,note_on,2,0,0,,0,,,36,127
25078,note_off,113,0,0,,10,,,81,127
25080,note_on,2,0,0,,0,,,84,127
25193,note_off,113,0,0,,0,,,84,127
25195,note_on,2,0,0,,4,,,76,127
25308,note_off,113,0,0,,4,,,76,127
25310,note_on,2,0,0,,5,,,77,127
25423,note_off,113,0,0,,5,,,77,127
25425,note_on,2,0,0,,7,,,79,127
25538,note_off,113,0,0,,7,,,79,127
25540,note_on,2,0,0,,10,,,81,127
25653,note_off,113,0,0,,10,,,81,127
25655,note_on,2,0,0,,11,,,82,127
25768,note_off,113,0,0,,11,,,82,127
25770,note_on,2,0,0,,0,,,84,127
25883,note_off,113,0,0,,0,,,84,127
25884,note_off,1,0,0,,0,,,36,127
25885,note_on,1,0,0,,10,,,81,127
26000,note_on,115,0,0,,0,,,72,127
26113,note_off,113,0,0,,0,,,72,127
26115,note_on,2,0,0,,10,,,69,127
26228,note_off,113,0,0,,10,,,69,127
26230,note_on,2,0,0,,0,,,72,127
26343,note_off,113,0,0,,0,,,72,127
26345,note_on,2,0,0,,5,,,65,127
26458,note_off,113,0,0,,5,,,65,127
26460,note_on,2,0,0,,10,,,69,127
26573,note_off,113,0,0,,10,,,69,127
26575,note_on,2,0,0,,0,,,60,127
26688,note_off,113,0,0,,0,,,60,127
26690,note_on,2,0,0,,5,,,65,127
26803,note_off,113,0,0,,5,,,65,127
26805,note_on,2,0,0,,0,,,36,127
26918,note_off,113,0,0,,10,,,81,127
26920,note_on,2,0,0,,0,,,84,127
27033,note_off,113,0,0,,0,,,84,127
27035,note_on,2,0,0,,4,,,76,127
27148,note_off,113,0,0,,4,,,76,127
27150,note_on,2,0,0,,5,,,77,127
27263,note_off,113,0,0,,5,,,77,127
27265,note_on,2,0,0,,7,,,79,127
27378,note_off,113,0,0,,7,,,79,127
27380,note_on,2,0,0,,10,,,81,127
27493,note_off,113,0,0,,10,,,81,127
27495,note_on,2,0,0,,11,,,82,127
27608,note_off,113,0,0,,11,,,82,127
27610,note_on,2,0,0,,0,,,84,127
27723,note_off,113,0,0,,0,,,84,127
27724,note_off,1,0,0,,0,,,36,127
27725,note_on,1,0,0,,5,,,41,127
27725,note_on,0,0,0,,10,,,81,127
27838,note_off,113,0,0,,10,,,81,127
27840,note_on,2,0,0,,2,,,86,127
27953,note_off,113,0,0,,2,,,86,127
27955,note_on,2,0,0,,0,,,84,127
28068,note_off,113,0,0,,0,,,84,127
28070,note_on,2,0,0,,11,,,82,127
28183,note_off,113,0,0,,11,,,82,127
28185,note_on,2,0,0,,10,,,81,127
28298,note_off,113,0,0,,10,,,81,127
28300,note_off,2,0,0,,5,,,41,127
28300,note_on,0,0,0,,7,,,79,127
28413,note_off,113,0,0,,7,,,79,127
28415,note_on,2,0,0,,10,,,57,127
28415,note_on,0,0,0,,5,,,77,127
28528,note_off,113,0,0,,5,,,77,127
28530,note_on,2,0,0,,4,,,76,127
28643,note_off,113,0,0,,4,,,76,127
28643,note_off,0,0,0,,10,,,57,127
28645,note_on,2,0,0,,11,,,58,127
28645,note_on,0,0,0,,4,,,76,127
28758,note_off,113,0,0,,4,,,76,127
28760,note_on,2,0,0,,2,,,74,127
28873,note_off,113,0,0,,2,,,74,127
28875,note_on,2,0,0,,11,,,46,127
28875,note_on,0,0,0,,0,,,72,127
28988,note_off,113,0,0,,0,,,72,127
28990,note_on,2,0,0,,11,,,70,127
29100,note_off,110,0,0,,11,,,58,127
29102,note_off,2,0,0,,11,,,70,127
29102,note_off,0,0,0,,11,,,46,127
29104,note_on,2,0,0,,0,,,60,127
29104,note_on,0,0,0,,10,,,69,127
29217,note_off,113,0,0,,10,,,69,127
29219,note_on,2,0,0,,7,,,67,127
29332,note_off,113,0,0,,7,,,67,127
29334,note_on,2,0,0,,0,,,48,127
29334,note_on,0,0,0,,5,,,65,127
29447,note_off,113,0,0,,5,,,65,127
29449,note_on,2,0,0,,4,,,64,127
29559,note_off,110,0,0,,0,,,60,127
29561,note_off,2,0,0,,0,,,48,127
29585,note_off,24,0,0,,4,,,64,127
29592,note_on,7,0,0,,5,,,77,127
29592,note_on,0,0,0,,8,,,68,127
29592,note_on,0,0,0,,5,,,53,127
29820,note_off,228,0,0,,5,,,53,127
29820,note_off,0,0,0,,5,,,77,127
29822,note_on,2,0,0,,3,,,75,127
29822,note_on,0,0,0,,5,,,53,127
30050,note_off,228,0,0,,5,,,53,127
30050,note_off,0,0,0,,3,,,75,127
30052,note_on,2,0,0,,1,,,73,127
30052,note_on,0,0,0,,5,,,53,127
30280,note_off,228,0,0,,5,,,53,127
30280,note_off,0,0,0,,1,,,73,127
30282,note_on,2,0,0,,0,,,72,127
30282,note_on,0,0,0,,5,,,53,127
30503,note_off,221,0,0,,8,,,68,127
30510,note_off,7,0,0,,5,,,53,127
30510,note_off,0,0,0,,0,,,72,127
30512,note_on,2,0,0,,11,,,70,127
30512,note_on,0,0,0,,5,,,53,127
30512,note_on,0,0,0,,11,,,58,127
30512,note_on,0,0,0,,0,,,60,127
30512,note_on,0,0,0,,4,,,64,127
30740,note_off,228,0,0,,4,,,64,127
30740,note_off,0,0,0,,0,,,60,127
30740,note_off,0,0,0,,11,,,58,127
30740,note_off,0,0,0,,5,,,53,127
30740,note_off,0,0,0,,11,,,70,127
30742,note_on,2,0,0,,8,,,68,127
30742,note_on,0,0,0,,5,,,53,127
30742,note_on,0,0,0,,0,,,60,127
30742,note_on,0,0,0,,11,,,58,127
30742,note_on,0,0,0,,4,,,64,127
30970,note_off,228,0,0,,4,,,64,127
30970,note_off,0,0,0,,11,,,58,127
30970,note_off,0,0,0,,0,,,60,127
30970,note_off,0,0,0,,5,,,53,127
30972,note_on,2,0,0,,5,,,53,127
30972,note_on,0,0,0,,0,,,60,127
30972,note_on,0,0,0,,11,,,58,127
30972,note_on,0,0,0,,4,,,64,127
31200,note_off,228,0,0,,4,,,64,127
31200,note_off,0,0,0,,11,,,58,127
31200,note_off,0,0,0,,0,,,60,127
31200,note_off,0,0,0,,5,,,53,127
31200,note_off,0,0,0,,8,,,68,127
31202,note_on,2,0,0,,7,,,67,127
31202,note_on,0,0,0,,11,,,58,127
31202,note_on,0,0,0,,5,,,53,127
31202,note_on,0,0,0,,4,,,64,127
31202,note_on,0,0,0,,0,,,60,127
31430,note_off,228,0,0,,0,,,60,127
31430,note_off,0,0,0,,4,,,64,127
31430,note_off,0,0,0,,5,,,53,127
31430,note_off,0,0,0,,11,,,58,127
31430,note_off,0,0,0,,7,,,67,127
31432,note_on,2,0,0,,8,,,68,127
31432,note_on,0,0,0,,5,,,65,127
31432,note_on,0,0,0,,5,,,53,127
31660,note_off,228,0,0,,5,,,53,127
31660,note_off,0,0,0,,5,,,65,127
31662,note_on,2,0,0,,3,,,63,127
31662,note_on,0,0,0,,5,,,53,127
31890,note_off,228,0,0,,5,,,53,127
31890,note_off,0,0,0,,3,,,63,127
31892,note_on,2,0,0,,1,,,61,127
31892,note_on,0,0,0,,5,,,53,127
32017,note_off,125,0,0,,8,,,68,127
32120,note_off,103,0,0,,5,,,53,127
32120,note_off,0,0,0,,1,,,61,127
32122,note_on,2,0,0,,5,,,77,127
32122,note_on,0,0,0,,8,,,68,127
32122,note_on,0,0,0,,0,,,60,127
32122,note_on,0,0,0,,5,,,53,127
32350,note_off,228,0,0,,5,,,53,127
32350,note_off,0,0,0,,0,,,60,127
32350,note_off,0,0,0,,8,,,68,127
32350,note_off,0,0,0,,5,,,77,127
32352,note_on,2,0,0,,8,,,68,127
32352,note_on,0,0,0,,5,,,77,127
32352,note_on,0,0,0,,5,,,53,127
32352,note_on,0,0,0,,11,,,58,127
32580,note_off,228,0,0,,11,,,58,127
32580,note_off,0,0,0,,5,,,53,127
32582,note_on,2,0,0,,5,,,53,127
32582,note_on,0,0,0,,1,,,61,127
32810,note_off,228,0,0,,1,,,61,127
32810,note_off,0,0,0,,5,,,53,127
32810,note_off,0,0,0,,5,,,77,127
32810,note_off,0,0,0,,8,,,68,127
32812,note_on,2,0,0,,7,,,67,127
32812,note_on,0,0,0,,4,,,76,127
32812,note_on,0,0,0,,0,,,60,127
32812,note_on,0,0,0,,5,,,53,127
33040,note_off,228,0,0,,5,,,53,127
33040,note_off,0,0,0,,0,,,60,127
33040,note_off,0,0,0,,4,,,76,127
33040,note_off,0,0,0,,7,,,67,127
33042,note_on,2,0,0,,11,,,70,127
33042,note_on,0,0,0,,7,,,79,127
33042,note_on,0,0,0,,5,,,53,127
33042,note_on,0,0,0,,11,,,58,127
33270,note_off,228,0,0,,11,,,58,127
33270,note_off,0,0,0,,5,,,53,127
33270,note_off,0,0,0,,7,,,79,127
33270,note_off,0,0,0,,11,,,70,127
33272,note_on,2,0,0,,5,,,77,127
33272,note_on,0,0,0,,8,,,68,127
33272,note_on,0,0,0,,5,,,53,127
33272,note_on,0,0,0,,8,,,56,127
33500,note_off,228,0,0,,5,,,53,127
33500,note_off,0,0,0,,5,,,77,127
33502,note_on,2,0,0,,3,,,75,127
33502,note_on,0,0,0,,5,,,53,127
33728,note_off,226,0,0,,8,,,56,127
33730,note_off,2,0,0,,5,,,53,127
33730,note_off,0,0,0,,3,,,75,127
33732,note_on,2,0,0,,1,,,73,127
33732,note_on,0,0,0,,5,,,53,127
33960,note_off,228,0,0,,5,,,53,127
33960,note_off,0,0,0,,1,,,73,127
33962,note_on,2,0,0,,0,,,72,127
33962,note_on,0,0,0,,5,,,53,127
34183,note_off,221,0,0,,8,,,68,127
34190,note_off,7,0,0,,5,,,53,127
34190,note_off,0,0,0,,0,,,72,127
34192,note_on,2,0,0,,11,,,70,127
34192,note_on,0,0,0,,5,,,53,127
34192,note_on,0,0,0,,0,,,60,127
34192,note_on,0,0,0,,11,,,58,127
34192,note_on,0,0,0,,4,,,64,127
34420,note_off,228,0,0,,4,,,64,127
34420,note_off,0,0,0,,11,,,58,127
34420,note_off,0,0,0,,0,,,60,127
34420,note_off,0,0,0,,5,,,53,127
34420,note_off,0,0,0,,11,,,70,127
34422,note_on,2,0,0,,8,,,68,127
34422,note_on,0,0,0,,5,,,53,127
34422,note_on,0,0,0,,0,,,60,127
34422,note_on,0,0,0,,11,,,58,127
34422,note_on,0,0,0,,4,,,64,127
34650,note_off,228,0,0,,4,,,64,127
34650,note_off,0,0,0,,11,,,58,127
34650,note_off,0,0,0,,0,,,60,127
34650,note_off,0,0,0,,5,,,53,127
34652,note_on,2,0,0,,5,,,53,127
34652,note_on,0,0,0,,11,,,58,127
34652,note_on,0,0,0,,0,,,60,127
34652,note_on,0,0,0,,4,,,64,127
34880,note_off,228,0,0,,4,,,64,127
34880,note_off,0,0,0,,0,,,60,127
34880,note_off,0,0,0,,11,,,58,127
34880,note_off,0,0,0,,5,,,53,127
34880,note_off,0,0,0,,8,,,68,127
34882,note_on,2,0,0,,7,,,67,127
34882,note_on,0,0,0,,5,,,53,127
34882,note_on,0,0,0,,0,,,60,127
34882,note_on,0,0,0,,11,,,58,127
34882,note_on,0,0,0,,4,,,64,127
35110,note_off,228,0,0,,4,,,64,127
35110,note_off,0,0,0,,11,,,58,127
35110,note_off,0,0,0,,0,,,60,127
35110,note_off,0,0,0,,5,,,53,127
35110,note_off,0,0,0,,7,,,67,127
35112,note_on,2,0,0,,8,,,68,127
35112,note_on,0,0,0,,5,,,53,127
35112,note_on,0,0,0,,5,,,65,127
35340,note_off,228,0,0,,5,,,65,127
35340,note_off,0,0,0,,5,,,53,127
35342,note_on,2,0,0,,3,,,63,127
35342,note_on,0,0,0,,5,,,53,127
35570,note_off,228,0,0,,5,,,53,127
35570,note_off,0,0,0,,3,,,63,127
35572,note_on,2,0,0,,5,,,53,127
35572,note_on,0,0,0,,1,,,61,127
35800,note_off,228,0,0,,1,,,61,127
35800,note_off,0,0,0,,5,,,53,127
35800,note_off,0,0,0,,8,,,68,127
35802,note_on,2,0,0,,5,,,77,127
35802,note_on,0,0,0,,8,,,68,127
35802,note_on,0,0,0,,5,,,53,127
35802,note_on,0,0,0,,0,,,60,127
36030,note_off,228,0,0,,0,,,60,127
36030,note_off,0,0,0,,5,,,53,127
36030,note_off,0,0,0,,8,,,68,127
36030,note_off,0,0,0,,5,,,77,127
36032,note_on,2,0,0,,8,,,68,127
36032,note_on,0,0,0,,5,,,77,127
36032,note_on,0,0,0,,5,,,53,127
36032,note_on,0,0,0,,11,,,58,127
36260,note_off,228,0,0,,11,,,58,127
36260,note_off,0,0,0,,5,,,53,127
36262,note_on,2,0,0,,5,,,53,127
36262,note_on,0,0,0,,1,,,61,127
36490,note_off,228,0,0,,1,,,61,127
36490,note_off,0,0,0,,5,,,53,127
36490,note_off,0,0,0,,5,,,77,127
36490,note_off,0,0,0,,8,,,68,127
36492,note_on,2,0,0,,4,,,76,127
36492,note_on,0,0,0,,7,,,67,127
36492,note_on,0,0,0,,5,,,53,127
36492,note_on,0,0,0,,0,,,60,127
36720,note_off,228,0,0,,0,,,60,127
36720,note_off,0,0,0,,5,,,53,127
36720,note_off,0,0,0,,7,,,67,127
36720,note_off,0,0,0,,4,,,76,127
36722,note_on,2,0,0,,7,,,79,127
36722,note_on,0,0,0,,11,,,70,127
36722,note_on,0,0,0,,5,,,53,127
36722,note_on,0,0,0,,11,,,58,127
36950,note_off,228,0,0,,11,,,58,127
36950,note_off,0,0,0,,5,,,53,127
36950,note_off,0,0,0,,11,,,70,127
36950,note_off,0,0,0,,7,,,79,127
36952,note_on,2,0,0,,5,,,77,127
36952,note_on,0,0,0,,8,,,68,127
36952,note_on,0,0,0,,5,,,53,127
36952,note_on,0,0,0,,8,,,56,127
37065,note_off,113,0,0,,5,,,77,127
37067,note_on,2,0,0,,3,,,75,127
37180,note_off,113,0,0,,3,,,75,127
37182,note_on,2,0,0,,1,,,73,127
37295,note_off,113,0,0,,1,,,73,127
37297,note_on,2,0,0,,0,,,72,127
37407,note_off,110,0,0,,8,,,68,127
37409,note_off,2,0,0,,0,,,72,127
37409,note_off,0,0,0,,8,,,56,127
37409,note_off,0,0,0,,5,,,53,127
37411,note_on,2,0,0,,11,,,70,127
37411,note_on,0,0,0,,5,,,53,127
37524,note_off,113,0,0,,11,,,70,127
37526,note_on,2,0,0,,8,,,68,127
37639,note_off,113,0,0,,8,,,68,127
37641,note_on,2,0,0,,11,,,70,127
37754,note_off,113,0,0,,11,,,70,127
37756,note_on,2,0,0,,0,,,72,127
37869,note_off,113,0,0,,0,,,72,127
37869,note_off,0,0,0,,5,,,53,127
37871,note_on,2,0,0,,1,,,73,127
37871,note_on,0,0,0,,11,,,58,127
37984,note_off,113,0,0,,1,,,73,127
37986,note_on,2,0,0,,0,,,72,127
38099,note_off,113,0,0,,0,,,72,127
38101,note_on,2,0,0,,11,,,70,127
38214,note_off,113,0,0,,11,,,70,127
38216,note_on,2,0,0,,8,,,68,127
38329,note_off,113,0,0,,8,,,68,127
38331,note_on,2,0,0,,7,,,67,127
38331,note_on,0,0,0,,11,,,46,127
38444,note_off,113,0,0,,7,,,67,127
38446,note_on,2,0,0,,5,,,65,127
38559,note_off,113,0,0,,5,,,65,127
38560,note_off,1,0,0,,11,,,58,127
38561,note_on,1,0,0,,4,,,64,127
38674,note_off,113,0,0,,4,,,64,127
38676,note_on,2,0,0,,2,,,62,127
38789,note_off,113,0,0,,2,,,62,127
38789,note_off,0,0,0,,11,,,46,127
38791,note_on,2,0,0,,0,,,60,127
38791,note_on,0,0,0,,0,,,48,127
38942,note_on,151,0,0,,2,,,62,127
38944,note_off,2,0,0,,0,,,60,127
38997,note_off,53,0,0,,2,,,62,127
38999,note_on,2,0,0,,4,,,64,127
39054,note_off,55,0,0,,4,,,64,127
39056,note_on,2,0,0,,5,,,65,127
39111,note_off,55,0,0,,5,,,65,127
39113,note_on,2,0,0,,7,,,67,127
39168,note_off,55,0,0,,7,,,67,127
39170,note_on,2,0,0,,10,,,69,127
39225,note_off,55,0,0,,10,,,69,127
39227,note_on,2,0,0,,12,,,71,127
39282,note_off,55,0,0,,12,,,71,127
39284,note_on,2,0,0,,0,,,72,127
39339,note_off,55,0,0,,0,,,72,127
39341,note_on,2,0,0,,2,,,74,127
39396,note_off,55,0,0,,2,,,74,127
39398,note_on,2,0,0,,4,,,76,127
39453,note_off,55,0,0,,4,,,76,127
39455,note_on,2,0,0,,5,,,77,127
39510,note_off,55,0,0,,5,,,77,127
39512,note_on,2,0,0,,7,,,79,127
39567,note_off,55,0,0,,7,,,79,127
39569,note_on,2,0,0,,10,,,81,127
39624,note_off,55,0,0,,10,,,81,127
39626,note_on,2,0,0,,11,,,82,127
39681,note_off,55,0,0,,11,,,82,127
39683,note_on,2,0,0,,0,,,84,127
39703,note_off,20,0,0,,0,,,48,127
39738,note_off,35,0,0,,0,,,84,127
39740,note_on,2,0,0,,10,,,81,127
39855,note_on,115,0,0,,0,,,72,127
39968,note_off,113,0,0,,0,,,72,127
39970,note_on,2,0,0,,10,,,69,127
40083,note_off,113,0,0,,10,,,69,127
40085,note_on,2,0,0,,0,,,72,127
40198,note_off,113,0,0,,0,,,72,127
40200,note_on,2,0,0,,5,,,65,127
40313,note_off,113,0,0,,5,,,65,127
40315,note_on,2,0,0,,10,,,69,127
40428,note_off,113,0,0,,10,,,69,127
40430,note_on,2,0,0,,0,,,60,127
40543,note_off,113,0,0,,0,,,60,127
40545,note_on,2,0,0,,5,,,65,127
40658,note_off,113,0,0,,5,,,65,127
40660,note_on,2,0,0,,0,,,36,127
40773,note_off,113,0,0,,10,,,81,127
40775,note_on,2,0,0,,0,,,84,127
40888,note_off,113,0,0,,0,,,84,127
40890,note_on,2,0,0,,4,,,76,127
41003,note_off,113,0,0,,4,,,76,127
41005,note_on,2,0,0,,5,,,77,127
41118,note_off,113,0,0,,5,,,77,127
41120,note_on,2,0,0,,7,,,79,127
41233,note_off,113,0,0,,7,,,79,127
41235,note_on,2,0,0,,10,,,81,127
41348,note_off,113,0,0,,10,,,81,127
41350,note_on,2,0,0,,11,,,82,127
41463,note_off,113,0,0,,11,,,82,127
41465,note_on,2,0,0,,0,,,84,127
41578,note_off,113,0,0,,0,,,84,127
41579,note_off,1,0,0,,0,,,36,127
41580,note_on,1,0,0,,10,,,81,127
41695,note_on,115,0,0,,0,,,72,127
41808,note_off,113,0,0,,0,,,72,127
41810,note_on,2,0,0,,10,,,69,127
41923,note_off,113,0,0,,10,,,69,127
41925,note_on,2,0,0,,0,,,72,127
42038,note_off,113,0,0,,0,,,72,127
42040,note_on,2,0,0,,5,,,65,127
42153,note_off,113,0,0,,5,,,65,127
42155,note_on,2,0,0,,10,,,69,127
42268,note_off,113,0,0,,10,,,69,127
42270,note_on,2,0,0,,0,,,60,127
42383,note_off,113,0,0,,0,,,60,127
42385,note_on,2,0,0,,5,,,65,127
42498,note_off,113,0,0,,5,,,65,127
42500,note_on,2,0,0,,0,,,36,127
42613,note_off,113,0,0,,10,,,81,127
42615,note_on,2,0,0,,0,,,84,127
42728,note_off,113,0,0,,0,,,84,127
42730,note_on,2,0,0,,4,,,76,127
42843,note_off,113,0,0,,4,,,76,127
42845,note_on,2,0,0,,5,,,77,127
42958,note_off,113,0,0,,5,,,77,127
42960,note_on,2,0,0,,7,,,79,127
43073,note_off,113,0,0,,7,,,79,127
43075,note_on,2,0,0,,10,,,81,127
43188,note_off,113,0,0,,10,,,81,127
43190,note_on,2,0,0,,11,,,82,127
43303,note_off,113,0,0,,11,,,82,127
43305,note_on,2,0,0,,0,,,84,127
43418,note_off,113,0,0,,0,,,84,127
43418,note_off,0,0,0,,0,,,36,127
43420,note_on,2,0,0,,5,,,41,127
43420,note_on,0,0,0,,10,,,81,127
43533,note_off,113,0,0,,10,,,81,127
43535,note_on,2,0,0,,2,,,86,127
43648,note_off,113,0,0,,2,,,86,127
43650,note_on,2,0,0,,0,,,84,127
43763,note_off,113,0,0,,0,,,84,127
43765,note_on,2,0,0,,11,,,82,127
43878,note_off,113,0,0,,11,,,82,127
43880,note_on,2,0,0,,10,,,81,127
43993,note_off,113,0,0,,10,,,81,127
43995,note_off,2,0,0,,5,,,41,127
43995,note_on,0,0,0,,7,,,79,127
44108,note_off,113,0,0,,7,,,79,127
44110,note_on,2,0,0,,10,,,57,127
44110,note_on,0,0,0,,5,,,77,127
44223,note_off,113,0,0,,5,,,77,127
44225,note_on,2,0,0,,4,,,76,127
44338,note_off,113,0,0,,4,,,76,127
44338,note_off,0,0,0,,10,,,57,127
44340,note_on,2,0,0,,11,,,58,127
44340,note_on,0,0,0,,4,,,76,127
44453,note_off,113,0,0,,4,,,76,127
44455,note_on,2,0,0,,2,,,74,127
44568,note_off,113,0,0,,2,,,74,127
44570,note_on,2,0,0,,11,,,46,127
44570,note_on,0,0,0,,0,,,72,127
44683,note_off,113,0,0,,0,,,72,127
44685,note_on,2,0,0,,11,,,70,127
44795,note_off,110,0,0,,11,,,58,127
44797,note_off,2,0,0,,11,,,70,127
44797,note_off,0,0,0,,11,,,46,127
44799,note_on,2,0,0,,0,,,60,127
44799,note_on,0,0,0,,10,,,69,127
44912,note_off,113,0,0,,10,,,69,127
44914,note_on,2,0,0,,7,,,67,127
45027,note_off,113,0,0,,7,,,67,127
45029,note_on,2,0,0,,0,,,48,127
45029,note_on,0,0,0,,5,,,65,127
45142,note_off,113,0,0,,5,,,65,127
45144,note_on,2,0,0,,4,,,64,127
45254,note_off,110,0,0,,0,,,60,127
45256,note_off,2,0,0,,0,,,48,127
45264,note_off,8,0,0,,4,,,64,127
45277,note_on,13,0,0,,5,,,53,127
45390,note_off,113,0,0,,5,,,53,127
45392,note_on,2,0,0,,11,,,58,127
45505,note_off,113,0,0,,11,,,58,127
45507,note_on,2,0,0,,2,,,62,127
45507,note_on,0,0,0,,2,,,86,127
45507,note_on,0,0,0,,11,,,82,127
45507,note_on,0,0,0,,2,,,74,127
45620,note_off,113,0,0,,2,,,62,127
45622,note_on,2,0,0,,11,,,58,127
45735,note_off,113,0,0,,11,,,58,127
45737,note_on,2,0,0,,4,,,52,127
45850,note_off,113,0,0,,4,,,52,127
45852,note_on,2,0,0,,11,,,58,127
45965,note_off,113,0,0,,11,,,58,127
45965,note_off,0,0,0,,2,,,74,127
45965,note_off,0,0,0,,11,,,82,127
45965,note_off,0,0,0,,2,,,86,127
45967,note_on,2,0,0,,0,,,60,127
45967,note_on,0,0,0,,2,,,86,127
45967,note_on,0,0,0,,11,,,82,127
45967,note_on,0,0,0,,4,,,76,127
46080,note_off,113,0,0,,0,,,60,127
46082,note_on,2,0,0,,11,,,58,127
46195,note_off,113,0,0,,11,,,58,127
46197,note_on,2,0,0,,5,,,53,127
46310,note_off,113,0,0,,5,,,53,127
46312,note_on,2,0,0,,11,,,58,127
46425,note_off,113,0,0,,11,,,58,127
46425,note_off,0,0,0,,4,,,76,127
46425,note_off,0,0,0,,11,,,82,127
46425,note_off,0,0,0,,2,,,86,127
46427,note_on,2,0,0,,2,,,62,127
46427,note_on,0,0,0,,11,,,82,127
46427,note_on,0,0,0,,5,,,77,127
46427,note_on,0,0,0,,2,,,86,127
46540,note_off,113,0,0,,2,,,62,127
46542,note_on,2,0,0,,11,,,58,127
46655,note_off,113,0,0,,11,,,58,127
46657,note_on,2,0,0,,4,,,52,127
46770,note_off,113,0,0,,4,,,52,127
46772,note_on,2,0,0,,11,,,58,127
46885,note_off,113,0,0,,11,,,58,127
46885,note_off,0,0,0,,2,,,86,127
46885,note_off,0,0,0,,5,,,77,127
46885,note_off,0,0,0,,11,,,82,127
46887,note_on,2,0,0,,0,,,60,127
46887,note_on,0,0,0,,2,,,86,127
46887,note_on,0,0,0,,11,,,82,127
46887,note_on,0,0,0,,7,,,79,127
47000,note_off,113,0,0,,0,,,60,127
47002,note_on,2,0,0,,11,,,58,127
47115,note_off,113,0,0,,11,,,58,127
47115,note_off,0,0,0,,7,,,79,127
47115,note_off,0,0,0,,11,,,82,127
47115,note_off,0,0,0,,2,,,86,127
47117,note_on,2,0,0,,5,,,53,127
47232,note_on,115,0,0,,10,,,81,127
47232,note_on,0,0,0,,0,,,84,127
47345,note_off,113,0,0,,0,,,84,127
47345,note_off,0,0,0,,10,,,81,127
47345,note_off,0,0,0,,5,,,53,127
47347,note_on,2,0,0,,11,,,58,127
47347,note_on,0,0,0,,7,,,79,127
47347,note_on,0,0,0,,11,,,82,127
47460,note_off,113,0,0,,11,,,82,127
47460,note_off,0,0,0,,7,,,79,127
47462,note_on,2,0,0,,5,,,77,127
47462,note_on,0,0,0,,10,,,81,127
47575,note_off,113,0,0,,10,,,81,127
47575,note_off,0,0,0,,5,,,77,127
47575,note_off,0,0,0,,11,,,58,127
47577,note_on,2,0,0,,0,,,60,127
47577,note_on,0,0,0,,0,,,84,127
47577,note_on,0,0,0,,7,,,79,127
47685,note_off,108,0,0,,0,,,84,127
47692,note_on,7,0,0,,11,,,82,127
47800,note_off,108,0,0,,11,,,82,127
47805,note_off,5,0,0,,7,,,79,127
47805,note_off,0,0,0,,0,,,60,127
47807,note_on,2,0,0,,0,,,48,127
47807,note_on,0,0,0,,5,,,77,127
47807,note_on,0,0,0,,10,,,81,127
47920,note_off,113,0,0,,10,,,81,127
47920,note_off,0,0,0,,5,,,77,127
47922,note_on,2,0,0,,4,,,76,127
47922,note_on,0,0,0,,7,,,79,127
48035,note_off,113,0,0,,7,,,79,127
48035,note_off,0,0,0,,4,,,76,127
48035,note_off,0,0,0,,0,,,48,127
48047,note_on,12,0,0,,5,,,53,127
48160,note_off,113,0,0,,5,,,53,127
48162,note_on,2,0,0,,11,,,58,127
48275,note_off,113,0,0,,11,,,58,127
48277,note_on,2,0,0,,2,,,74,127
48277,note_on,0,0,0,,11,,,82,127
48277,note_on,0,0,0,,2,,,86,127
48277,note_on,0,0,0,,2,,,62,127
48390,note_off,113,0,0,,2,,,62,127
48392,note_on,2,0,0,,11,,,58,127
48505,note_off,113,0,0,,11,,,58,127
48507,note_on,2,0,0,,4,,,52,127
48620,note_off,113,0,0,,4,,,52,127
48622,note_on,2,0,0,,11,,,58,127
48735,note_off,113,0,0,,11,,,58,127
48735,note_off,0,0,0,,2,,,86,127
48735,note_off,0,0,0,,11,,,82,127
48735,note_off,0,0,0,,2,,,74,127
48737,note_on,2,0,0,,4,,,76,127
48737,note_on,0,0,0,,2,,,86,127
48737,note_on,0,0,0,,11,,,82,127
48737,note_on,0,0,0,,0,,,60,127
48850,note_off,113,0,0,,0,,,60,127
48852,note_on,2,0,0,,11,,,58,127
48965,note_off,113,0,0,,11,,,58,127
48967,note_on,2,0,0,,5,,,53,127
49080,note_off,113,0,0,,5,,,53,127
49082,note_on,2,0,0,,11,,,58,127
49195,note_off,113,0,0,,11,,,58,127
49195,note_off,0,0,0,,11,,,82,127
49195,note_off,0,0,0,,2,,,86,127
49195,note_off,0,0,0,,4,,,76,127
49197,note_on,2,0,0,,5,,,77,127
49197,note_on,0,0,0,,2,,,86,127
49197,note_on,0,0,0,,11,,,82,127
49197,note_on,0,0,0,,2,,,62,127
49310,note_off,113,0,0,,2,,,62,127
49312,note_on,2,0,0,,11,,,58,127
49425,note_off,113,0,0,,11,,,58,127
49427,note_on,2,0,0,,4,,,52,127
49540,note_off,113,0,0,,4,,,52,127
49542,note_on,2,0,0,,11,,,58,127
49655,note_off,113,0,0,,11,,,58,127
49655,note_off,0,0,0,,11,,,82,127
49655,note_off,0,0,0,,2,,,86,127
49655,note_off,0,0,0,,5,,,77,127
49657,note_on,2,0,0,,2,,,86,127
49657,note_on,0,0,0,,7,,,79,127
49657,note_on,0,0,0,,11,,,82,127
49657,note_on,0,0,0,,0,,,60,127
49770,note_off,113,0,0,,0,,,60,127
49772,note_on,2,0,0,,11,,,58,127
49885,note_off,113,0,0,,11,,,58,127
49885,note_off,0,0,0,,11,,,82,127
49885,note_off,0,0,0,,7,,,79,127
49885,note_off,0,0,0,,2,,,86,127
49887,note_on,2,0,0,,5,,,53,127
50002,note_on,115,0,0,,10,,,81,127
50002,note_on,0,0,0,,0,,,84,127
50115,note_off,113,0,0,,0,,,84,127
50115,note_off,0,0,0,,10,,,81,127
50115,note_off,0,0,0,,5,,,53,127
50117,note_on,2,0,0,,11,,,82,127
50117,note_on,0,0,0,,7,,,79,127
50117,note_on,0,0,0,,11,,,58,127
50230,note_off,113,0,0,,7,,,79,127
50230,note_off,0,0,0,,11,,,82,127
50232,note_on,2,0,0,,5,,,77,127
50232,note_on,0,0,0,,10,,,81,127
50345,note_off,113,0,0,,10,,,81,127
50345,note_off,0,0,0,,5,,,77,127
50345,note_off,0,0,0,,11,,,58,127
50347,note_on,2,0,0,,7,,,79,127
50347,note_on,0,0,0,,0,,,84,127
50347,note_on,0,0,0,,0,,,60,127
50455,note_off,108,0,0,,0,,,84,127
50462,note_on,7,0,0,,11,,,82,127
50570,note_off,108,0,0,,11,,,82,127
50575,note_off,5,0,0,,0,,,60,127
50575,note_off,0,0,0,,7,,,79,127
50577,note_on,2,0,0,,5,,,77,127
50577,note_on,0,0,0,,10,,,81,127
50577,note_on,0,0,0,,0,,,48,127
50690,note_off,113,0,0,,10,,,81,127
50690,note_off,0,0,0,,5,,,77,127
50692,note_on,2,0,0,,4,,,76,127
50692,note_on,0,0,0,,7,,,79,127
50805,note_off,113,0,0,,7,,,79,127
50805,note_off,0,0,0,,4,,,76,127
50805,note_off,0,0,0,,0,,,48,127
50807,note_on,2,0,0,,7,,,79,127
50807,note_on,0,0,0,,5,,,41,127
50920,note_off,113,0,0,,7,,,79,127
50922,note_on,2,0,0,,5,,,77,127
51035,note_off,113,0,0,,5,,,77,127
51035,note_off,0,0,0,,5,,,41,127
51037,note_on,2,0,0,,4,,,76,127
51037,note_on,0,0,0,,5,,,53,127
51150,note_off,113,0,0,,4,,,76,127
51152,note_on,2,0,0,,2,,,74,127
51265,note_off,113,0,0,,2,,,74,127
51265,note_off,0,0,0,,5,,,53,127
51267,note_on,2,0,0,,0,,,72,127
51267,note_on,0,0,0,,4,,,52,127
51380,note_off,113,0,0,,0,,,72,127
51382,note_on,2,0,0,,11,,,70,127
51495,note_off,113,0,0,,11,,,70,127
51495,note_off,0,0,0,,4,,,52,127
51497,note_on,2,0,0,,10,,,69,127
51497,note_on,0,0,0,,0,,,48,127
51610,note_off,113,0,0,,10,,,69,127
51612,note_on,2,0,0,,7,,,67,127
51725,note_off,113,0,0,,7,,,67,127
51725,note_off,0,0,0,,0,,,48,127
51727,note_on,2,0,0,,10,,,69,127
51727,note_on,0,0,0,,5,,,53,127
51840,note_off,113,0,0,,10,,,69,127
51842,note_on,2,0,0,,11,,,70,127
51955,note_off,113,0,0,,11,,,70,127
51955,note_off,0,0,0,,5,,,53,127
51957,note_on,2,0,0,,0,,,72,127
51957,note_on,0,0,0,,11,,,46,127
52070,note_off,113,0,0,,0,,,72,127
52072,note_on,2,0,0,,5,,,65,127
52185,note_off,113,0,0,,5,,,65,127
52185,note_off,0,0,0,,11,,,46,127
52187,note_on,2,0,0,,10,,,69,127
52187,note_on,0,0,0,,0,,,48,127
52300,note_off,113,0,0,,10,,,69,127
52302,note_on,2,0,0,,7,,,67,127
52415,note_off,113,0,0,,7,,,67,127
52415,note_off,0,0,0,,0,,,48,127
52417,note_on,2,0,0,,5,,,65,127
52417,note_on,0,0,0,,0,,,36,127
52530,note_off,113,0,0,,5,,,65,127
52532,note_on,2,0,0,,4,,,64,127
52645,note_off,113,0,0,,4,,,64,127
52645,note_off,0,0,0,,0,,,36,127
52647,note_on,2,0,0,,4,,,64,127
52647,note_on,0,0,0,,5,,,41,127
52647,note_on,0,0,0,,5,,,53,127
53103,note_off,456,0,0,,4,,,64,127
53108,note_on,5,0,0,,5,,,65,127
53566,note_off,458,0,0,,5,,,53,127
53566,note_off,0,0,0,,5,,,41,127
53568,note_on,2,0,0,,5,,,53,127
53568,note_on,0,0,0,,8,,,56,127
53568,note_on,0,0,0,,0,,,60,127
53683,note_off,115,0,0,,5,,,65,127
53683,note_on,0,0,0,,0,,,72,127
53796,note_off,113,0,0,,0,,,72,127
53796,note_off,0,0,0,,0,,,60,127
53796,note_off,0,0,0,,8,,,56,127
53796,note_off,0,0,0,,5,,,53,127
53798,note_on,2,0,0,,8,,,68,127
53798,note_on,0,0,0,,5,,,53,127
53798,note_on,0,0,0,,8,,,56,127
53798,note_on,0,0,0,,0,,,60,127
53911,note_off,113,0,0,,8,,,68,127
53913,note_on,2,0,0,,11,,,70,127
54026,note_off,113,0,0,,11,,,70,127
54026,note_off,0,0,0,,0,,,60,127
54026,note_off,0,0,0,,8,,,56,127
54026,note_off,0,0,0,,5,,,53,127
54028,note_on,2,0,0,,0,,,72,127
54028,note_on,0,0,0,,8,,,56,127
54028,note_on,0,0,0,,0,,,60,127
54028,note_on,0,0,0,,5,,,53,127
54141,note_off,113,0,0,,0,,,72,127
54143,note_on,2,0,0,,8,,,68,127
54256,note_off,113,0,0,,8,,,68,127
54256,note_off,0,0,0,,5,,,53,127
54256,note_off,0,0,0,,0,,,60,127
54256,note_off,0,0,0,,8,,,56,127
54258,note_on,2,0,0,,7,,,67,127
54258,note_on,0,0,0,,8,,,56,127
54258,note_on,0,0,0,,5,,,53,127
54258,note_on,0,0,0,,0,,,60,127
54371,note_off,113,0,0,,7,,,67,127
54373,note_on,2,0,0,,5,,,65,127
54486,note_off,113,0,0,,5,,,65,127
54486,note_off,0,0,0,,0,,,60,127
54486,note_off,0,0,0,,5,,,53,127
54486,note_off,0,0,0,,8,,,56,127
54488,note_on,2,0,0,,7,,,55,127
54488,note_on,0,0,0,,11,,,58,127
54488,note_on,0,0,0,,0,,,60,127
54603,note_on,115,0,0,,1,,,73,127
54716,note_off,113,0,0,,1,,,73,127
54716,note_off,0,0,0,,0,,,60,127
54716,note_off,0,0,0,,11,,,58,127
54716,note_off,0,0,0,,7,,,55,127
54718,note_on,2,0,0,,11,,,70,127
54718,note_on,0,0,0,,11,,,58,127
54718,note_on,0,0,0,,0,,,60,127
54718,note_on,0,0,0,,7,,,55,127
54831,note_off,113,0,0,,11,,,70,127
54833,note_on,2,0,0,,0,,,72,127
54946,note_off,113,0,0,,0,,,72,127
54946,note_off,0,0,0,,7,,,55,127
54946,note_off,0,0,0,,0,,,60,127
54946,note_off,0,0,0,,11,,,58,127
54948,note_on,2,0,0,,1,,,73,127
54948,note_on,0,0,0,,11,,,58,127
54948,note_on,0,0,0,,0,,,60,127
54948,note_on,0,0,0,,7,,,55,127
55061,note_off,113,0,0,,1,,,73,127
55063,note_on,2,0,0,,11,,,70,127
55176,note_off,113,0,0,,11,,,70,127
55176,note_off,0,0,0,,7,,,55,127
55176,note_off,0,0,0,,0,,,60,127
55176,note_off,0,0,0,,11,,,58,127
55178,note_on,2,0,0,,8,,,68,127
55178,note_on,0,0,0,,7,,,55,127
55178,note_on,0,0,0,,0,,,60,127
55178,note_on,0,0,0,,11,,,58,127
55291,note_off,113,0,0,,8,,,68,127
55293,note_on,2,0,0,,7,,,67,127
55406,note_off,113,0,0,,7,,,67,127
55406,note_off,0,0,0,,11,,,58,127
55406,note_off,0,0,0,,0,,,60,127
55406,note_off,0,0,0,,7,,,55,127
55408,note_on,2,0,0,,5,,,53,127
55408,note_on,0,0,0,,8,,,56,127
55408,note_on,0,0,0,,0,,,60,127
55523,note_on,115,0,0,,0,,,72,127
55636,note_off,113,0,0,,0,,,72,127
55636,note_off,0,0,0,,0,,,60,127
55636,note_off,0,0,0,,8,,,56,127
55636,note_off,0,0,0,,5,,,53,127
55638,note_on,2,0,0,,8,,,68,127
55638,note_on,0,0,0,,8,,,56,127
55638,note_on,0,0,0,,0,,,60,127
55638,note_on,0,0,0,,5,,,53,127
55751,note_off,113,0,0,,8,,,68,127
55753,note_on,2,0,0,,11,,,70,127
55866,note_off,113,0,0,,11,,,70,127
55866,note_off,0,0,0,,5,,,53,127
55866,note_off,0,0,0,,0,,,60,127
55866,note_off,0,0,0,,8,,,56,127
55868,note_on,2,0,0,,0,,,72,127
55868,note_on,0,0,0,,8,,,56,127
55868,note_on,0,0,0,,5,,,53,127
55868,note_on,0,0,0,,0,,,60,127
55981,note_off,113,0,0,,0,,,72,127
55983,note_on,2,0,0,,8,,,68,127
56096,note_off,113,0,0,,8,,,68,127
56096,note_off,0,0,0,,0,,,60,127
56096,note_off,0,0,0,,5,,,53,127
56096,note_off,0,0,0,,8,,,56,127
56098,note_on,2,0,0,,7,,,67,127
56098,note_on,0,0,0,,8,,,56,127
56098,note_on,0,0,0,,5,,,53,127
56098,note_on,0,0,0,,0,,,60,127
56211,note_off,113,0,0,,7,,,67,127
56213,note_on,2,0,0,,5,,,65,127
56326,note_off,113,0,0,,0,,,60,127
56326,note_off,0,0,0,,5,,,53,127
56326,note_off,0,0,0,,8,,,56,127
56328,note_on,2,0,0,,5,,,53,127
56328,note_on,0,0,0,,11,,,58,127
56328,note_on,0,0,0,,4,,,64,127
56328,note_on,0,0,0,,0,,,60,127
56441,note_off,113,0,0,,5,,,65,127
56443,note_on,2,0,0,,5,,,77,127
56556,note_off,113,0,0,,5,,,77,127
56556,note_off,0,0,0,,0,,,60,127
56556,note_off,0,0,0,,4,,,64,127
56556,note_off,0,0,0,,11,,,58,127
56556,note_off,0,0,0,,5,,,53,127
56558,note_on,2,0,0,,4,,,76,127
56558,note_on,0,0,0,,5,,,53,127
56558,note_on,0,0,0,,0,,,60,127
56558,note_on,0,0,0,,11,,,58,127
56558,note_on,0,0,0,,4,,,64,127
56671,note_off,113,0,0,,4,,,76,127
56673,note_on,2,0,0,,5,,,77,127
56786,note_off,113,0,0,,5,,,77,127
56786,note_off,0,0,0,,4,,,64,127
56786,note_off,0,0,0,,11,,,58,127
56786,note_off,0,0,0,,0,,,60,127
56786,note_off,0,0,0,,5,,,53,127
56788,note_on,2,0,0,,7,,,79,127
56788,note_on,0,0,0,,11,,,58,127
56788,note_on,0,0,0,,5,,,53,127
56788,note_on,0,0,0,,0,,,60,127
56788,note_on,0,0,0,,4,,,64,127
56901,note_off,113,0,0,,7,,,79,127
56903,note_on,2,0,0,,1,,,73,127
57016,note_off,113,0,0,,1,,,73,127
57016,note_off,0,0,0,,4,,,64,127
57016,note_off,0,0,0,,0,,,60,127
57016,note_off,0,0,0,,5,,,53,127
57016,note_off,0,0,0,,11,,,58,127
57018,note_on,2,0,0,,0,,,72,127
57018,note_on,0,0,0,,11,,,58,127
57018,note_on,0,0,0,,5,,,53,127
57018,note_on,0,0,0,,0,,,60,127
57018,note_on,0,0,0,,4,,,64,127
57131,note_off,113,0,0,,0,,,72,127
57133,note_on,2,0,0,,11,,,70,127
57246,note_off,113,0,0,,11,,,70,127
57246,note_off,0,0,0,,4,,,64,127
57246,note_off,0,0,0,,0,,,60,127
57246,note_off,0,0,0,,5,,,53,127
57246,note_off,0,0,0,,11,,,58,127
57248,note_on,2,0,0,,8,,,56,127
57248,note_on,0,0,0,,5,,,53,127
57248,note_on,0,0,0,,0,,,60,127
57363,note_on,115,0,0,,0,,,72,127
57476,note_off,113,0,0,,0,,,72,127
57476,note_off,0,0,0,,0,,,60,127
57476,note_off,0,0,0,,5,,,53,127
57476,note_off,0,0,0,,8,,,56,127
57478,note_on,2,0,0,,8,,,68,127
57478,note_on,0,0,0,,8,,,56,127
57478,note_on,0,0,0,,5,,,53,127
57478,note_on,0,0,0,,0,,,60,127
57591,note_off,113,0,0,,8,,,68,127
57593,note_on,2,0,0,,11,,,70,127
57706,note_off,113,0,0,,11,,,70,127
57706,note_off,0,0,0,,0,,,60,127
57706,note_off,0,0,0,,5,,,53,127
57706,note_off,0,0,0,,8,,,56,127
57708,note_on,2,0,0,,0,,,72,127
57708,note_on,0,0,0,,5,,,53,127
57708,note_on,0,0,0,,0,,,60,127
57708,note_on,0,0,0,,8,,,56,127
57821,note_off,113,0,0,,0,,,72,127
57823,note_on,2,0,0,,8,,,68,127
57936,note_off,113,0,0,,8,,,68,127
57936,note_off,0,0,0,,8,,,56,127
57936,note_off,0,0,0,,0,,,60,127
57936,note_off,0,0,0,,5,,,53,127
57938,note_on,2,0,0,,7,,,67,127
57938,note_on,0,0,0,,0,,,60,127
57938,note_on,0,0,0,,8,,,56,127
57938,note_on,0,0,0,,5,,,53,127
58051,note_off,113,0,0,,7,,,67,127
58053,note_on,2,0,0,,5,,,65,127
58166,note_off,113,0,0,,5,,,53,127
58166,note_off,0,0,0,,8,,,56,127
58166,note_off,0,0,0,,0,,,60,127
58168,note_on,2,0,0,,5,,,53,127
58168,note_on,0,0,0,,1,,,49,127
58168,note_on,0,0,0,,8,,,56,127
58281,note_off,113,0,0,,5,,,65,127
58283,note_on,2,0,0,,5,,,77,127
58396,note_off,113,0,0,,5,,,77,127
58396,note_off,0,0,0,,8,,,56,127
58396,note_off,0,0,0,,1,,,49,127
58396,note_off,0,0,0,,5,,,53,127
58398,note_on,2,0,0,,1,,,73,127
58398,note_on,0,0,0,,5,,,53,127
58398,note_on,0,0,0,,1,,,49,127
58398,note_on,0,0,0,,8,,,56,127
58511,note_off,113,0,0,,1,,,73,127
58513,note_on,2,0,0,,3,,,75,127
58626,note_off,113,0,0,,3,,,75,127
58626,note_off,0,0,0,,8,,,56,127
58626,note_off,0,0,0,,1,,,49,127
58626,note_off,0,0,0,,5,,,53,127
58628,note_on,2,0,0,,5,,,77,127
58628,note_on,0,0,0,,8,,,56,127
58628,note_on,0,0,0,,5,,,53,127
58628,note_on,0,0,0,,1,,,49,127
58741,note_off,113,0,0,,5,,,77,127
58743,note_on,2,0,0,,1,,,73,127
58856,note_off,113,0,0,,1,,,73,127
58856,note_off,0,0,0,,1,,,49,127
58856,note_off,0,0,0,,5,,,53,127
58856,note_off,0,0,0,,8,,,56,127
58858,note_on,2,0,0,,0,,,72,127
58858,note_on,0,0,0,,1,,,49,127
58858,note_on,0,0,0,,5,,,53,127
58858,note_on,0,0,0,,8,,,56,127
58971,note_off,113,0,0,,0,,,72,127
58973,note_on,2,0,0,,11,,,70,127
59086,note_off,113,0,0,,11,,,70,127
59086,note_off,0,0,0,,8,,,56,127
59086,note_off,0,0,0,,5,,,53,127
59086,note_off,0,0,0,,1,,,49,127
59088,note_on,2,0,0,,3,,,51,127
59088,note_on,0,0,0,,8,,,56,127
59088,note_on,0,0,0,,0,,,48,127
59203,note_on,115,0,0,,8,,,80,127
59316,note_off,113,0,0,,8,,,80,127
59316,note_off,0,0,0,,0,,,48,127
59316,note_off,0,0,0,,8,,,56,127
59316,note_off,0,0,0,,3,,,51,127
59318,note_on,2,0,0,,0,,,84,127
59318,note_on,0,0,0,,0,,,48,127
59318,note_on,0,0,0,,3,,,51,127
59318,note_on,0,0,0,,8,,,56,127
59431,note_off,113,0,0,,0,,,84,127
59433,note_on,2,0,0,,11,,,82,127
59546,note_off,113,0,0,,11,,,82,127
59546,note_off,0,0,0,,8,,,56,127
59546,note_off,0,0,0,,3,,,51,127
59546,note_off,0,0,0,,0,,,48,127
59548,note_on,2,0,0,,8,,,80,127
59548,note_on,0,0,0,,3,,,51,127
59548,note_on,0,0,0,,0,,,48,127
59548,note_on,0,0,0,,8,,,56,127
59661,note_off,113,0,0,,8,,,80,127
59663,note_on,2,0,0,,7,,,79,127
59776,note_off,113,0,0,,7,,,79,127
59776,note_off,0,0,0,,8,,,56,127
59776,note_off,0,0,0,,0,,,48,127
59776,note_off,0,0,0,,3,,,51,127
59778,note_on,2,0,0,,7,,,79,127
59778,note_on,0,0,0,,3,,,51,127
59778,note_on,0,0,0,,0,,,48,127
59778,note_on,0,0,0,,8,,,56,127
59891,note_off,113,0,0,,7,,,79,127
59893,note_on,2,0,0,,8,,,80,127
60006,note_off,113,0,0,,8,,,56,127
60006,note_off,0,0,0,,0,,,48,127
60006,note_off,0,0,0,,3,,,51,127
60008,note_on,2,0,0,,1,,,49,127
60008,note_on,0,0,0,,5,,,53,127
60008,note_on,0,0,0,,8,,,56,127
60121,note_off,113,0,0,,8,,,80,127
60123,note_on,2,0,0,,5,,,77,127
60236,note_off,113,0,0,,5,,,77,127
60236,note_off,0,0,0,,8,,,56,127
60236,note_off,0,0,0,,5,,,53,127
60236,note_off,0,0,0,,1,,,49,127
60238,note_on,2,0,0,,1,,,73,127
60238,note_on,0,0,0,,1,,,49,127
60238,note_on,0,0,0,,5,,,53,127
60238,note_on,0,0,0,,8,,,56,127
60351,note_off,113,0,0,,1,,,73,127
60353,note_on,2,0,0,,3,,,75,127
60466,note_off,113,0,0,,3,,,75,127
60466,note_off,0,0,0,,8,,,56,127
60466,note_off,0,0,0,,5,,,53,127
60466,note_off,0,0,0,,1,,,49,127
60468,note_on,2,0,0,,5,,,77,127
60468,note_on,0,0,0,,1,,,49,127
60468,note_on,0,0,0,,5,,,53,127
60468,note_on,0,0,0,,8,,,56,127
60581,note_off,113,0,0,,5,,,77,127
60583,note_on,2,0,0,,1,,,73,127
60696,note_off,113,0,0,,1,,,73,127
60696,note_off,0,0,0,,8,,,56,127
60696,note_off,0,0,0,,5,,,53,127
60696,note_off,0,0,0,,1,,,49,127
60698,note_on,2,0,0,,0,,,72,127
60698,note_on,0,0,0,,5,,,53,127
60698,note_on,0,0,0,,1,,,49,127
60698,note_on,0,0,0,,8,,,56,127
60811,note_off,113,0,0,,0,,,72,127
60813,note_on,2,0,0,,11,,,70,127
60926,note_off,113,0,0,,11,,,70,127
60926,note_off,0,0,0,,8,,,56,127
60926,note_off,0,0,0,,1,,,49,127
60926,note_off,0,0,0,,5,,,53,127
60928,note_on,2,0,0,,3,,,51,127
60928,note_on,0,0,0,,0,,,48,127
60928,note_on,0,0,0,,8,,,56,127
61043,note_on,115,0,0,,8,,,80,127
61156,note_off,113,0,0,,8,,,80,127
61156,note_off,0,0,0,,8,,,56,127
61156,note_off,0,0,0,,0,,,48,127
61156,note_off,0,0,0,,3,,,51,127
61158,note_on,2,0,0,,0,,,84,127
61158,note_on,0,0,0,,3,,,51,127
61158,note_on,0,0,0,,0,,,48,127
61158,note_on,0,0,0,,8,,,56,127
61271,note_off,113,0,0,,0,,,84,127
61273,note_on,2,0,0,,11,,,82,127
61386,note_off,113,0,0,,11,,,82,127
61386,note_off,0,0,0,,8,,,56,127
61386,note_off,0,0,0,,0,,,48,127
61386,note_off,0,0,0,,3,,,51,127
61388,note_on,2,0,0,,8,,,80,127
61388,note_on,0,0,0,,3,,,51,127
61388,note_on,0,0,0,,0,,,48,127
61388,note_on,0,0,0,,8,,,56,127
61501,note_off,113,0,0,,8,,,80,127
61503,note_on,2,0,0,,7,,,79,127
61616,note_off,113,0,0,,7,,,79,127
61616,note_off,0,0,0,,8,,,56,127
61616,note_off,0,0,0,,0,,,48,127
61616,note_off,0,0,0,,3,,,51,127
61618,note_on,2,0,0,,7,,,79,127
61618,note_on,0,0,0,,0,,,48,127
61618,note_on,0,0,0,,3,,,51,127
61618,note_on,0,0,0,,8,,,56,127
61731,note_off,113,0,0,,7,,,79,127
61733,note_on,2,0,0,,8,,,80,127
61846,note_off,113,0,0,,8,,,56,127
61846,note_off,0,0,0,,3,,,51,127
61846,note_off,0,0,0,,0,,,48,127
61848,note_on,2,0,0,,8,,,56,127
61848,note_on,0,0,0,,1,,,49,127
61961,note_off,113,0,0,,8,,,80,127
61963,note_on,2,0,0,,8,,,80,127
62076,note_off,113,0,0,,8,,,80,127
62076,note_off,0,0,0,,1,,,49,127
62076,note_off,0,0,0,,8,,,56,127
62078,note_on,2,0,0,,7,,,79,127
62078,note_on,0,0,0,,1,,,49,127
62078,note_on,0,0,0,,8,,,56,127
62191,note_off,113,0,0,,7,,,79,127
62193,note_on,2,0,0,,5,,,77,127
62306,note_off,113,0,0,,5,,,77,127
62306,note_off,0,0,0,,8,,,56,127
62306,note_off,0,0,0,,1,,,49,127
62308,note_on,2,0,0,,3,,,75,127
62308,note_on,0,0,0,,8,,,56,127
62308,note_on,0,0,0,,3,,,51,127
62421,note_off,113,0,0,,3,,,75,127
62423,note_on,2,0,0,,1,,,73,127
62536,note_off,113,0,0,,1,,,73,127
62536,note_off,0,0,0,,3,,,51,127
62536,note_off,0,0,0,,8,,,56,127
62538,note_on,2,0,0,,0,,,72,127
62538,note_on,0,0,0,,7,,,55,127
62538,note_on,0,0,0,,3,,,51,127
62651,note_off,113,0,0,,0,,,72,127
62653,note_on,2,0,0,,11,,,70,127
62766,note_off,113,0,0,,11,,,70,127
62766,note_off,0,0,0,,3,,,51,127
62766,note_off,0,0,0,,7,,,55,127
62768,note_on,2,0,0,,0,,,72,127
62768,note_on,0,0,0,,0,,,48,127
62768,note_on,0,0,0,,8,,,56,127
62881,note_off,113,0,0,,0,,,72,127
62883,note_on,2,0,0,,8,,,80,127
62996,note_off,113,0,0,,8,,,80,127
62996,note_off,0,0,0,,8,,,56,127
62996,note_off,0,0,0,,0,,,48,127
62998,note_on,2,0,0,,7,,,79,127
62998,note_on,0,0,0,,1,,,49,127
62998,note_on,0,0,0,,8,,,56,127
63111,note_off,113,0,0,,7,,,79,127
63113,note_on,2,0,0,,5,,,77,127
63226,note_off,113,0,0,,5,,,77,127
63226,note_off,0,0,0,,8,,,56,127
63226,note_off,0,0,0,,1,,,49,127
63228,note_on,2,0,0,,3,,,75,127
63228,note_on,0,0,0,,3,,,51,127
63228,note_on,0,0,0,,8,,,56,127
63341,note_off,113,0,0,,3,,,75,127
63343,note_on,2,0,0,,1,,,73,127
63456,note_off,113,0,0,,1,,,73,127
63456,note_off,0,0,0,,8,,,56,127
63456,note_off,0,0,0,,3,,,51,127
63458,note_on,2,0,0,,0,,,72,127
63458,note_on,0,0,0,,3,,,51,127
63458,note_on,0,0,0,,7,,,55,127
63571,note_off,113,0,0,,0,,,72,127
63573,note_on,2,0,0,,11,,,70,127
63686,note_off,113,0,0,,11,,,70,127
63686,note_off,0,0,0,,7,,,55,127
63686,note_off,0,0,0,,3,,,51,127
63688,note_on,2,0,0,,0,,,72,127
63688,note_on,0,0,0,,8,,,56,127
63801,note_off,113,0,0,,0,,,72,127
63813,note_on,12,0,0,,2,,,74,127
63926,note_off,113,0,0,,2,,,74,127
63928,note_on,2,0,0,,3,,,75,127
64031,note_off,103,0,0,,8,,,56,127
64043,note_on,12,0,0,,5,,,65,127
64156,note_off,113,0,0,,5,,,65,127
64158,note_on,2,0,0,,7,,,67,127
64271,note_off,113,0,0,,3,,,75,127
64273,note_on,2,0,0,,1,,,73,127
64386,note_off,113,0,0,,1,,,73,127
64388,note_on,2,0,0,,0,,,72,127
64501,note_off,113,0,0,,7,,,67,127
64503,note_on,2,0,0,,2,,,62,127
64616,note_off,113,0,0,,2,,,62,127
64618,note_on,2,0,0,,3,,,63,127
64731,note_off,113,0,0,,0,,,72,127
64733,note_on,2,0,0,,11,,,70,127
64846,note_off,113,0,0,,11,,,70,127
64848,note_on,2,0,0,,8,,,68,127
64961,note_off,113,0,0,,8,,,68,127
64961,note_off,0,0,0,,3,,,63,127
64963,note_on,2,0,0,,1,,,61,127
64963,note_on,0,0,0,,7,,,67,127
65076,note_off,113,0,0,,7,,,67,127
65076,note_off,0,0,0,,1,,,61,127
65078,note_on,2,0,0,,0,,,60,127
65078,note_on,0,0,0,,8,,,68,127
65191,note_off,113,0,0,,8,,,68,127
65191,note_off,0,0,0,,0,,,60,127
65193,note_on,2,0,0,,11,,,58,127
65193,note_on,0,0,0,,11,,,70,127
65306,note_off,113,0,0,,11,,,70,127
65306,note_off,0,0,0,,11,,,58,127
65308,note_on,2,0,0,,8,,,56,127
65308,note_on,0,0,0,,0,,,72,127
65421,note_off,113,0,0,,0,,,72,127
65421,note_off,0,0,0,,8,,,56,127
65423,note_on,2,0,0,,7,,,55,127
65423,note_on,0,0,0,,1,,,73,127
65536,note_off,113,0,0,,1,,,73,127
65536,note_off,0,0,0,,7,,,55,127
65538,note_on,2,0,0,,8,,,56,127
65538,note_on,0,0,0,,0,,,72,127
65651,note_off,113,0,0,,0,,,72,127
65653,note_on,2,0,0,,2,,,74,127
65766,note_off,113,0,0,,2,,,74,127
65768,note_on,2,0,0,,3,,,75,127
65881,note_off,113,0,0,,8,,,56,127
65883,note_on,2,0,0,,5,,,65,127
65996,note_off,113,0,0,,5,,,65,127
65998,note_on,2,0,0,,7,,,67,127
66111,note_off,113,0,0,,3,,,75,127
66113,note_on,2,0,0,,1,,,73,127
66226,note_off,113,0,0,,1,,,73,127
66228,note_on,2,0,0,,0,,,72,127
66341,note_off,113,0,0,,7,,,67,127
66343,note_on,2,0,0,,2,,,62,127
66456,note_off,113,0,0,,2,,,62,127
66458,note_on,2,0,0,,3,,,63,127
66571,note_off,113,0,0,,0,,,72,127
66573,note_on,2,0,0,,11,,,70,127
66686,note_off,113,0,0,,11,,,70,127
66688,note_on,2,0,0,,8,,,68,127
66801,note_off,113,0,0,,8,,,68,127
66801,note_off,0,0,0,,3,,,63,127
66803,note_on,2,0,0,,1,,,61,127
66803,note_on,0,0,0,,7,,,67,127
66916,note_off,113,0,0,,7,,,67,127
66916,note_off,0,0,0,,1,,,61,127
66918,note_on,2,0,0,,0,,,60,127
66918,note_on,0,0,0,,8,,,68,127
67031,note_off,113,0,0,,8,,,68,127
67031,note_off,0,0,0,,0,,,60,127
67033,note_on,2,0,0,,11,,,58,127
67033,note_on,0,0,0,,11,,,70,127
67146,note_off,113,0,0,,11,,,70,127
67146,note_off,0,0,0,,11,,,58,127
67148,note_on,2,0,0,,8,,,56,127
67148,note_on,0,0,0,,0,,,72,127
67261,note_off,113,0,0,,0,,,72,127
67261,note_off,0,0,0,,8,,,56,127
67263,note_on,2,0,0,,7,,,55,127
67263,note_on,0,0,0,,1,,,73,127
67376,note_off,113,0,0,,1,,,73,127
67376,note_off,0,0,0,,7,,,55,127
67378,note_on,2,0,0,,3,,,63,127
67378,note_on,0,0,0,,8,,,56,127
67378,note_on,0,0,0,,0,,,60,127
67378,note_on,0,0,0,,0,,,72,127
67491,note_off,113,0,0,,0,,,72,127
67493,note_on,2,0,0,,3,,,75,127
67606,note_off,113,0,0,,3,,,75,127
67606,note_off,0,0,0,,0,,,60,127
67606,note_off,0,0,0,,8,,,56,127
67606,note_off,0,0,0,,3,,,63,127
67608,note_on,2,0,0,,3,,,63,127
67608,note_on,0,0,0,,8,,,56,127
67608,note_on,0,0,0,,0,,,60,127
67608,note_on,0,0,0,,3,,,75,127
67721,note_off,113,0,0,,3,,,75,127
67723,note_on,2,0,0,,3,,,75,127
67836,note_off,113,0,0,,3,,,75,127
67836,note_off,0,0,0,,0,,,60,127
67836,note_off,0,0,0,,8,,,56,127
67836,note_off,0,0,0,,3,,,63,127
67838,note_on,2,0,0,,3,,,63,127
67838,note_on,0,0,0,,0,,,60,127
67838,note_on,0,0,0,,8,,,56,127
67838,note_on,0,0,0,,3,,,75,127
67951,note_off,113,0,0,,3,,,75,127
67953,note_on,2,0,0,,3,,,75,127
68066,note_off,113,0,0,,3,,,75,127
68066,note_off,0,0,0,,8,,,56,127
68066,note_off,0,0,0,,0,,,60,127
68066,note_off,0,0,0,,3,,,63,127
68068,note_on,2,0,0,,3,,,63,127
68068,note_on,0,0,0,,8,,,56,127
68068,note_on,0,0,0,,0,,,60,127
68068,note_on,0,0,0,,3,,,75,127
68181,note_off,113,0,0,,3,,,75,127
68183,note_on,2,0,0,,3,,,75,127
68296,note_off,113,0,0,,3,,,75,127
68296,note_off,0,0,0,,0,,,60,127
68296,note_off,0,0,0,,8,,,56,127
68296,note_off,0,0,0,,3,,,63,127
68298,note_on,2,0,0,,7,,,55,127
68298,note_on,0,0,0,,11,,,58,127
68298,note_on,0,0,0,,3,,,63,127
68298,note_on,0,0,0,,7,,,79,127
68411,note_off,113,0,0,,7,,,79,127
68413,note_on,2,0,0,,3,,,75,127
68526,note_off,113,0,0,,3,,,75,127
68526,note_off,0,0,0,,3,,,63,127
68526,note_off,0,0,0,,11,,,58,127
68526,note_off,0,0,0,,7,,,55,127
68528,note_on,2,0,0,,3,,,63,127
68528,note_on,0,0,0,,7,,,55,127
68528,note_on,0,0,0,,11,,,58,127
68528,note_on,0,0,0,,3,,,75,127
68641,note_off,113,0,0,,3,,,75,127
68643,note_on,2,0,0,,3,,,75,127
68756,note_off,113,0,0,,3,,,75,127
68756,note_off,0,0,0,,11,,,58,127
68756,note_off,0,0,0,,7,,,55,127
68756,note_off,0,0,0,,3,,,63,127
68758,note_on,2,0,0,,7,,,55,127
68758,note_on,0,0,0,,3,,,63,127
68758,note_on,0,0,0,,11,,,58,127
68758,note_on,0,0,0,,3,,,75,127
68871,note_off,113,0,0,,3,,,75,127
68873,note_on,2,0,0,,3,,,75,127
68986,note_off,113,0,0,,3,,,75,127
68986,note_off,0,0,0,,11,,,58,127
68986,note_off,0,0,0,,3,,,63,127
68986,note_off,0,0,0,,7,,,55,127
68988,note_on,2,0,0,,7,,,55,127
68988,note_on,0,0,0,,3,,,63,127
68988,note_on,0,0,0,,11,,,58,127
68988,note_on,0,0,0,,3,,,75,127
69101,note_off,113,0,0,,3,,,75,127
69103,note_on,2,0,0,,3,,,75,127
69216,note_off,113,0,0,,3,,,75,127
69216,note_off,0,0,0,,11,,,58,127
69216,note_off,0,0,0,,3,,,63,127
69216,note_off,0,0,0,,7,,,55,127
69218,note_on,2,0,0,,3,,,63,127
69218,note_on,0,0,0,,8,,,56,127
69218,note_on,0,0,0,,0,,,60,127
69218,note_on,0,0,0,,0,,,72,127
69331,note_off,113,0,0,,0,,,72,127
69333,note_on,2,0,0,,3,,,75,127
69446,note_off,113,0,0,,3,,,75,127
69446,note_off,0,0,0,,0,,,60,127
69446,note_off,0,0,0,,8,,,56,127
69446,note_off,0,0,0,,3,,,63,127
69448,note_on,2,0,0,,3,,,63,127
69448,note_on,0,0,0,,8,,,56,127
69448,note_on,0,0,0,,0,,,60,127
69448,note_on,0,0,0,,3,,,75,127
69561,note_off,113,0,0,,3,,,75,127
69563,note_on,2,0,0,,3,,,75,127
69676,note_off,113,0,0,,3,,,75,127
69676,note_off,0,0,0,,0,,,60,127
69676,note_off,0,0,0,,8,,,56,127
69676,note_off,0,0,0,,3,,,63,127
69678,note_on,2,0,0,,3,,,63,127
69678,note_on,0,0,0,,0,,,60,127
69678,note_on,0,0,0,,8,,,56,127
69678,note_on,0,0,0,,3,,,75,127
69791,note_off,113,0,0,,3,,,75,127
69793,note_on,2,0,0,,3,,,75,127
69906,note_off,113,0,0,,3,,,75,127
69906,note_off,0,0,0,,8,,,56,127
69906,note_off,0,0,0,,0,,,60,127
69906,note_off,0,0,0,,3,,,63,127
69908,note_on,2,0,0,,0,,,60,127
69908,note_on,0,0,0,,3,,,63,127
69908,note_on,0,0,0,,8,,,56,127
69908,note_on,0,0,0,,3,,,75,127
70021,note_off,113,0,0,,3,,,75,127
70023,note_on,2,0,0,,3,,,75,127
70136,note_off,113,0,0,,3,,,75,127
70136,note_off,0,0,0,,8,,,56,127
70136,note_off,0,0,0,,3,,,63,127
70136,note_off,0,0,0,,0,,,60,127
70138,note_on,2,0,0,,11,,,58,127
70138,note_on,0,0,0,,3,,,63,127
70138,note_on,0,0,0,,7,,,55,127
70138,note_on,0,0,0,,7,,,79,127
70251,note_off,113,0,0,,7,,,79,127
70253,note_on,2,0,0,,3,,,75,127
70366,note_off,113,0,0,,3,,,75,127
70366,note_off,0,0,0,,7,,,55,127
70366,note_off,0,0,0,,3,,,63,127
70366,note_off,0,0,0,,11,,,58,127
70368,note_on,2,0,0,,7,,,55,127
70368,note_on,0,0,0,,11,,,58,127
70368,note_on,0,0,0,,3,,,63,127
70368,note_on,0,0,0,,3,,,75,127
70481,note_off,113,0,0,,3,,,75,127
70483,note_on,2,0,0,,3,,,75,127
70596,note_off,113,0,0,,3,,,75,127
70596,note_off,0,0,0,,3,,,63,127
70596,note_off,0,0,0,,11,,,58,127
70596,note_off,0,0,0,,7,,,55,127
70598,note_on,2,0,0,,7,,,55,127
70598,note_on,0,0,0,,11,,,58,127
70598,note_on,0,0,0,,3,,,63,127
70598,note_on,0,0,0,,3,,,75,127
70711,note_off,113,0,0,,3,,,75,127
70713,note_on,2,0,0,,3,,,75,127
70826,note_off,113,0,0,,3,,,75,127
70826,note_off,0,0,0,,3,,,63,127
70826,note_off,0,0,0,,11,,,58,127
70826,note_off,0,0,0,,7,,,55,127
70828,note_on,2,0,0,,3,,,63,127
70828,note_on,0,0,0,,11,,,58,127
70828,note_on,0,0,0,,7,,,55,127
70828,note_on,0,0,0,,3,,,75,127
70941,note_off,113,0,0,,3,,,75,127
70943,note_on,2,0,0,,3,,,75,127
71056,note_off,113,0,0,,3,,,75,127
71056,note_off,0,0,0,,7,,,55,127
71056,note_off,0,0,0,,11,,,58,127
71056,note_off,0,0,0,,3,,,63,127
71058,note_on,2,0,0,,3,,,63,127
71058,note_on,0,0,0,,8,,,56,127
71058,note_on,0,0,0,,0,,,60,127
71058,note_on,0,0,0,,0,,,72,127
71171,note_off,113,0,0,,0,,,72,127
71173,note_on,2,0,0,,3,,,75,127
71286,note_off,113,0,0,,3,,,75,127
71286,note_off,0,0,0,,0,,,60,127
71286,note_off,0,0,0,,8,,,56,127
71286,note_off,0,0,0,,3,,,63,127
71288,note_on,2,0,0,,3,,,63,127
71288,note_on,0,0,0,,0,,,60,127
71288,note_on,0,0,0,,8,,,56,127
71288,note_on,0,0,0,,3,,,75,127
71401,note_off,113,0,0,,3,,,75,127
71403,note_on,2,0,0,,3,,,75,127
71516,note_off,113,0,0,,3,,,75,127
71516,note_off,0,0,0,,8,,,56,127
71516,note_off,0,0,0,,0,,,60,127
71516,note_off,0,0,0,,3,,,63,127
71518,note_on,2,0,0,,3,,,63,127
71518,note_on,0,0,0,,11,,,58,127
71518,note_on,0,0,0,,7,,,55,127
71518,note_on,0,0,0,,7,,,79,127
71631,note_off,113,0,0,,7,,,79,127
71633,note_on,2,0,0,,3,,,75,127
71746,note_off,113,0,0,,3,,,75,127
71746,note_off,0,0,0,,7,,,55,127
71746,note_off,0,0,0,,11,,,58,127
71746,note_off,0,0,0,,3,,,63,127
71748,note_on,2,0,0,,3,,,63,127
71748,note_on,0,0,0,,11,,,58,127
71748,note_on,0,0,0,,7,,,55,127
71748,note_on,0,0,0,,3,,,75,127
71861,note_off,113,0,0,,3,,,75,127
71863,note_on,2,0,0,,3,,,75,127
71976,note_off,113,0,0,,3,,,75,127
71976,note_off,0,0,0,,7,,,55,127
71976,note_off,0,0,0,,11,,,58,127
71976,note_off,0,0,0,,3,,,63,127
71978,note_on,2,0,0,,3,,,63,127
71978,note_on,0,0,0,,0,,,60,127
71978,note_on,0,0,0,,8,,,56,127
71978,note_on,0,0,0,,3,,,75,127
72091,note_off,113,0,0,,3,,,75,127
72093,note_on,2,0,0,,3,,,75,127
72206,note_off,113,0,0,,3,,,75,127
72206,note_off,0,0,0,,8,,,56,127
72206,note_off,0,0,0,,0,,,60,127
72206,note_off,0,0,0,,3,,,63,127
72208,note_on,2,0,0,,8,,,56,127
72208,note_on,0,0,0,,0,,,60,127
72208,note_on,0,0,0,,3,,,63,127
72208,note_on,0,0,0,,3,,,75,127
72321,note_off,113,0,0,,3,,,75,127
72323,note_on,2,0,0,,3,,,75,127
72436,note_off,113,0,0,,3,,,75,127
72436,note_off,0,0,0,,3,,,63,127
72436,note_off,0,0,0,,0,,,60,127
72436,note_off,0,0,0,,8,,,56,127
72438,note_on,2,0,0,,3,,,63,127
72438,note_on,0,0,0,,0,,,60,127
72438,note_on,0,0,0,,8,,,56,127
72438,note_on,0,0,0,,3,,,75,127
72551,note_off,113,0,0,,3,,,75,127
72553,note_on,2,0,0,,3,,,75,127
72666,note_off,113,0,0,,3,,,75,127
72666,note_off,0,0,0,,8,,,56,127
72666,note_off,0,0,0,,0,,,60,127
72666,note_off,0,0,0,,3,,,63,127
72668,note_on,2,0,0,,3,,,63,127
72668,note_on,0,0,0,,0,,,60,127
72668,note_on,0,0,0,,8,,,56,127
72668,note_on,0,0,0,,3,,,75,127
72781,note_off,113,0,0,,3,,,75,127
72783,note_on,2,0,0,,3,,,75,127
72896,note_off,113,0,0,,3,,,75,127
72896,note_off,0,0,0,,8,,,56,127
72896,note_off,0,0,0,,0,,,60,127
72896,note_off,0,0,0,,3,,,63,127
72898,note_on,2,0,0,,3,,,63,127
72898,note_on,0,0,0,,11,,,58,127
72898,note_on,0,0,0,,6,,,54,127
72898,note_on,0,0,0,,3,,,75,127
73011,note_off,113,0,0,,3,,,75,127
73013,note_on,2,0,0,,3,,,75,127
73126,note_off,113,0,0,,3,,,75,127
73126,note_off,0,0,0,,6,,,54,127
73126,note_off,0,0,0,,11,,,58,127
73126,note_off,0,0,0,,3,,,63,127
73128,note_on,2,0,0,,3,,,63,127
73128,note_on,0,0,0,,11,,,58,127
73128,note_on,0,0,0,,6,,,54,127
73128,note_on,0,0,0,,3,,,75,127
73241,note_off,113,0,0,,3,,,75,127
73243,note_on,2,0,0,,3,,,75,127
73356,note_off,113,0,0,,3,,,75,127
73356,note_off,0,0,0,,6,,,54,127
73356,note_off,0,0,0,,11,,,58,127
73356,note_off,0,0,0,,3,,,63,127
73358,note_on,2,0,0,,3,,,63,127
73358,note_on,0,0,0,,11,,,58,127
73358,note_on,0,0,0,,6,,,54,127
73358,note_on,0,0,0,,3,,,75,127
73471,note_off,113,0,0,,3,,,75,127
73473,note_on,2,0,0,,3,,,75,127
73586,note_off,113,0,0,,3,,,75,127
73586,note_off,0,0,0,,6,,,54,127
73586,note_off,0,0,0,,11,,,58,127
73586,note_off,0,0,0,,3,,,63,127
73588,note_on,2,0,0,,3,,,63,127
73588,note_on,0,0,0,,6,,,54,127
73588,note_on,0,0,0,,11,,,58,127
73588,note_on,0,0,0,,3,,,75,127
73701,note_off,113,0,0,,3,,,75,127
73703,note_on,2,0,0,,3,,,75,127
73816,note_off,113,0,0,,3,,,75,127
73816,note_off,0,0,0,,11,,,58,127
73816,note_off,0,0,0,,6,,,54,127
73816,note_off,0,0,0,,3,,,63,127
73818,note_on,2,0,0,,3,,,63,127
73818,note_on,0,0,0,,10,,,57,127
73818,note_on,0,0,0,,5,,,53,127
73818,note_on,0,0,0,,3,,,75,127
73931,note_off,113,0,0,,3,,,75,127
73933,note_on,2,0,0,,3,,,75,127
74046,note_off,113,0,0,,3,,,75,127
74046,note_off,0,0,0,,5,,,53,127
74046,note_off,0,0,0,,10,,,57,127
74046,note_off,0,0,0,,3,,,63,127
74048,note_on,2,0,0,,3,,,63,127
74048,note_on,0,0,0,,5,,,53,127
74048,note_on,0,0,0,,10,,,57,127
74048,note_on,0,0,0,,3,,,75,127
74161,note_off,113,0,0,,3,,,75,127
74163,note_on,2,0,0,,3,,,75,127
74276,note_off,113,0,0,,3,,,75,127
74276,note_off,0,0,0,,10,,,57,127
74276,note_off,0,0,0,,5,,,53,127
74276,note_off,0,0,0,,3,,,63,127
74278,note_on,2,0,0,,11,,,58,127
74278,note_on,0,0,0,,3,,,63,127
74278,note_on,0,0,0,,6,,,54,127
74278,note_on,0,0,0,,3,,,75,127
74391,note_off,113,0,0,,3,,,75,127
74393,note_on,2,0,0,,3,,,75,127
74506,note_off,113,0,0,,3,,,75,127
74506,note_off,0,0,0,,6,,,54,127
74506,note_off,0,0,0,,3,,,63,127
74506,note_off,0,0,0,,11,,,58,127
74508,note_on,2,0,0,,3,,,63,127
74508,note_on,0,0,0,,11,,,58,127
74508,note_on,0,0,0,,6,,,54,127
74508,note_on,0,0,0,,3,,,75,127
74621,note_off,113,0,0,,3,,,75,127
74623,note_on,2,0,0,,3,,,75,127
74736,note_off,113,0,0,,3,,,75,127
74736,note_off,0,0,0,,6,,,54,127
74736,note_off,0,0,0,,11,,,58,127
74736,note_off,0,0,0,,3,,,63,127
74738,note_on,2,0,0,,10,,,57,127
74738,note_on,0,0,0,,3,,,63,127
74738,note_on,0,0,0,,5,,,53,127
74738,note_on,0,0,0,,3,,,75,127
74851,note_off,113,0,0,,3,,,75,127
74853,note_on,2,0,0,,3,,,75,127
74966,note_off,113,0,0,,3,,,75,127
74966,note_off,0,0,0,,5,,,53,127
74966,note_off,0,0,0,,3,,,63,127
74966,note_off,0,0,0,,10,,,57,127
74968,note_on,2,0,0,,10,,,57,127
74968,note_on,0,0,0,,3,,,63,127
74968,note_on,0,0,0,,5,,,53,127
74968,note_on,0,0,0,,3,,,75,127
75081,note_off,113,0,0,,3,,,75,127
75083,note_on,2,0,0,,3,,,75,127
75196,note_off,113,0,0,,3,,,75,127
75196,note_off,0,0,0,,5,,,53,127
75196,note_off,0,0,0,,3,,,63,127
75196,note_off,0,0,0,,10,,,57,127
75198,note_on,2,0,0,,5,,,53,127
75198,note_on,0,0,0,,3,,,63,127
75198,note_on,0,0,0,,10,,,57,127
75198,note_on,0,0,0,,3,,,75,127
75311,note_off,113,0,0,,3,,,75,127
75313,note_on,2,0,0,,3,,,75,127
75426,note_off,113,0,0,,3,,,75,127
75426,note_off,0,0,0,,10,,,57,127
75426,note_off,0,0,0,,3,,,63,127
75426,note_off,0,0,0,,5,,,53,127
75428,note_on,2,0,0,,12,,,59,127
75428,note_on,0,0,0,,3,,,63,127
75428,note_on,0,0,0,,5,,,53,127
75428,note_on,0,0,0,,3,,,75,127
75541,note_off,113,0,0,,3,,,75,127
75543,note_on,2,0,0,,3,,,75,127
75656,note_off,113,0,0,,3,,,75,127
75656,note_off,0,0,0,,5,,,53,127
75656,note_off,0,0,0,,3,,,63,127
75656,note_off,0,0,0,,12,,,59,127
75658,note_on,2,0,0,,0,,,60,127
75658,note_on,0,0,0,,3,,,63,127
75658,note_on,0,0,0,,6,,,54,127
75658,note_on,0,0,0,,3,,,75,127
75771,note_off,113,0,0,,3,,,75,127
75773,note_on,2,0,0,,3,,,75,127
75886,note_off,113,0,0,,3,,,75,127
75886,note_off,0,0,0,,6,,,54,127
75886,note_off,0,0,0,,3,,,63,127
75886,note_off,0,0,0,,0,,,60,127
75888,note_on,2,0,0,,3,,,63,127
75888,note_on,0,0,0,,0,,,60,127
75888,note_on,0,0,0,,6,,,54,127
75888,note_on,0,0,0,,3,,,75,127
76001,note_off,113,0,0,,3,,,75,127
76003,note_on,2,0,0,,3,,,75,127
76116,note_off,113,0,0,,3,,,75,127
76116,note_off,0,0,0,,6,,,54,127
76116,note_off,0,0,0,,0,,,60,127
76116,note_off,0,0,0,,3,,,63,127
76118,note_on,2,0,0,,3,,,63,127
76118,note_on,0,0,0,,0,,,60,127
76118,note_on,0,0,0,,6,,,54,127
76118,note_on,0,0,0,,3,,,75,127
76231,note_off,113,0,0,,3,,,75,127
76233,note_on,2,0,0,,3,,,75,127
76346,note_off,113,0,0,,3,,,75,127
76346,note_off,0,0,0,,6,,,54,127
76346,note_off,0,0,0,,0,,,60,127
76346,note_off,0,0,0,,3,,,63,127
76348,note_on,2,0,0,,3,,,63,127
76348,note_on,0,0,0,,0,,,60,127
76348,note_on,0,0,0,,6,,,54,127
76348,note_on,0,0,0,,3,,,75,127
76461,note_off,113,0,0,,3,,,75,127
76463,note_on,2,0,0,,3,,,75,127
76576,note_off,113,0,0,,3,,,75,127
76576,note_off,0,0,0,,6,,,54,127
76576,note_off,0,0,0,,0,,,60,127
76576,note_off,0,0,0,,3,,,63,127
76578,note_on,2,0,0,,3,,,63,127
76578,note_on,0,0,0,,0,,,60,127
76578,note_on,0,0,0,,7,,,55,127
76578,note_on,0,0,0,,3,,,75,127
76691,note_off,113,0,0,,3,,,75,127
76693,note_on,2,0,0,,3,,,75,127
76806,note_off,113,0,0,,3,,,75,127
76806,note_off,0,0,0,,7,,,55,127
76806,note_off,0,0,0,,0,,,60,127
76806,note_off,0,0,0,,3,,,63,127
76808,note_on,2,0,0,,0,,,60,127
76808,note_on,0,0,0,,3,,,63,127
76808,note_on,0,0,0,,7,,,55,127
76808,note_on,0,0,0,,3,,,75,127
76921,note_off,113,0,0,,3,,,75,127
76923,note_on,2,0,0,,3,,,75,127
77036,note_off,113,0,0,,3,,,75,127
77036,note_off,0,0,0,,7,,,55,127
77036,note_off,0,0,0,,3,,,63,127
77036,note_off,0,0,0,,0,,,60,127
77038,note_on,2,0,0,,1,,,61,127
77038,note_on,0,0,0,,3,,,63,127
77038,note_on,0,0,0,,7,,,55,127
77038,note_on,0,0,0,,3,,,75,127
77151,note_off,113,0,0,,3,,,75,127
77153,note_on,2,0,0,,3,,,75,127
77266,note_off,113,0,0,,3,,,75,127
77266,note_off,0,0,0,,7,,,55,127
77266,note_off,0,0,0,,3,,,63,127
77266,note_off,0,0,0,,1,,,61,127
77268,note_on,2,0,0,,7,,,55,127
77268,note_on,0,0,0,,1,,,61,127
77268,note_on,0,0,0,,3,,,63,127
77268,note_on,0,0,0,,3,,,75,127
77381,note_off,113,0,0,,3,,,75,127
77383,note_on,2,0,0,,3,,,75,127
77496,note_off,113,0,0,,3,,,75,127
77496,note_off,0,0,0,,3,,,63,127
77496,note_off,0,0,0,,1,,,61,127
77496,note_off,0,0,0,,7,,,55,127
77498,note_on,2,0,0,,0,,,60,127
77498,note_on,0,0,0,,3,,,63,127
77498,note_on,0,0,0,,8,,,56,127
77498,note_on,0,0,0,,3,,,75,127
77611,note_off,113,0,0,,3,,,75,127
77613,note_on,2,0,0,,3,,,75,127
77726,note_off,113,0,0,,3,,,75,127
77726,note_off,0,0,0,,8,,,56,127
77726,note_off,0,0,0,,3,,,63,127
77726,note_off,0,0,0,,0,,,60,127
77728,note_on,2,0,0,,3,,,63,127
77728,note_on,0,0,0,,0,,,60,127
77728,note_on,0,0,0,,8,,,56,127
77728,note_on,0,0,0,,3,,,75,127
77841,note_off,113,0,0,,3,,,75,127
77843,note_on,2,0,0,,3,,,75,127
77956,note_off,113,0,0,,3,,,75,127
77956,note_off,0,0,0,,8,,,56,127
77956,note_off,0,0,0,,0,,,60,127
77956,note_off,0,0,0,,3,,,63,127
77958,note_on,2,0,0,,3,,,63,127
77958,note_on,0,0,0,,7,,,55,127
77958,note_on,0,0,0,,1,,,61,127
77958,note_on,0,0,0,,3,,,75,127
78071,note_off,113,0,0,,3,,,75,127
78073,note_on,2,0,0,,3,,,75,127
78186,note_off,113,0,0,,3,,,75,127
78186,note_off,0,0,0,,1,,,61,127
78186,note_off,0,0,0,,7,,,55,127
78186,note_off,0,0,0,,3,,,63,127
78188,note_on,2,0,0,,3,,,63,127
78188,note_on,0,0,0,,1,,,61,127
78188,note_on,0,0,0,,7,,,55,127
78188,note_on,0,0,0,,3,,,75,127
78301,note_off,113,0,0,,3,,,75,127
78303,note_on,2,0,0,,3,,,75,127
78416,note_off,113,0,0,,3,,,75,127
78416,note_off,0,0,0,,7,,,55,127
78416,note_off,0,0,0,,1,,,61,127
78416,note_off,0,0,0,,3,,,63,127
78418,note_on,2,0,0,,3,,,63,127
78418,note_on,0,0,0,,0,,,60,127
78418,note_on,0,0,0,,8,,,56,127
78418,note_on,0,0,0,,3,,,75,127
78531,note_off,113,0,0,,3,,,75,127
78533,note_on,2,0,0,,3,,,75,127
78646,note_off,113,0,0,,3,,,75,127
78646,note_off,0,0,0,,8,,,56,127
78646,note_off,0,0,0,,0,,,60,127
78646,note_off,0,0,0,,3,,,63,127
78648,note_on,2,0,0,,0,,,60,127
78648,note_on,0,0,0,,3,,,63,127
78648,note_on,0,0,0,,8,,,56,127
78648,note_on,0,0,0,,3,,,75,127
78761,note_off,113,0,0,,3,,,75,127
78763,note_on,2,0,0,,3,,,75,127
78876,note_off,113,0,0,,3,,,75,127
78876,note_off,0,0,0,,8,,,56,127
78876,note_off,0,0,0,,3,,,63,127
78876,note_off,0,0,0,,0,,,60,127
78878,note_on,2,0,0,,3,,,63,127
78878,note_on,0,0,0,,0,,,60,127
78878,note_on,0,0,0,,8,,,56,127
78878,note_on,0,0,0,,3,,,75,127
78991,note_off,113,0,0,,3,,,75,127
78993,note_on,2,0,0,,3,,,75,127
79106,note_off,113,0,0,,3,,,75,127
79106,note_off,0,0,0,,8,,,56,127
79106,note_off,0,0,0,,0,,,60,127
79106,note_off,0,0,0,,3,,,63,127
79108,note_on,2,0,0,,0,,,60,127
79108,note_on,0,0,0,,3,,,63,127
79108,note_on,0,0,0,,8,,,56,127
79108,note_on,0,0,0,,3,,,75,127
79221,note_off,113,0,0,,3,,,75,127
79223,note_on,2,0,0,,3,,,75,127
79336,note_off,113,0,0,,3,,,75,127
79336,note_off,0,0,0,,8,,,56,127
79336,note_off,0,0,0,,3,,,63,127
79336,note_off,0,0,0,,0,,,60,127
79338,note_on,2,0,0,,3,,,63,127
79338,note_on,0,0,0,,6,,,66,127
79338,note_on,0,0,0,,10,,,57,127
79338,note_on,0,0,0,,3,,,75,127
79451,note_off,113,0,0,,3,,,75,127
79453,note_on,2,0,0,,3,,,75,127
79566,note_off,113,0,0,,3,,,75,127
79566,note_off,0,0,0,,10,,,57,127
79566,note_off,0,0,0,,6,,,66,127
79566,note_off,0,0,0,,3,,,63,127
79568,note_on,2,0,0,,6,,,66,127
79568,note_on,0,0,0,,10,,,57,127
79568,note_on,0,0,0,,3,,,63,127
79568,note_on,0,0,0,,3,,,75,127
79681,note_off,113,0,0,,3,,,75,127
79683,note_on,2,0,0,,3,,,75,127
79796,note_off,113,0,0,,3,,,75,127
79796,note_off,0,0,0,,3,,,63,127
79796,note_off,0,0,0,,10,,,57,127
79796,note_off,0,0,0,,6,,,66,127
79798,note_on,2,0,0,,6,,,66,127
79798,note_on,0,0,0,,10,,,57,127
79798,note_on,0,0,0,,3,,,63,127
79798,note_on,0,0,0,,3,,,75,127
79911,note_off,113,0,0,,3,,,75,127
79913,note_on,2,0,0,,3,,,75,127
80026,note_off,113,0,0,,3,,,75,127
80026,note_off,0,0,0,,3,,,63,127
80026,note_off,0,0,0,,10,,,57,127
80026,note_off,0,0,0,,6,,,66,127
80028,note_on,2,0,0,,3,,,63,127
80028,note_on,0,0,0,,6,,,66,127
80028,note_on,0,0,0,,10,,,57,127
80028,note_on,0,0,0,,3,,,75,127
80141,note_off,113,0,0,,3,,,75,127
80143,note_on,2,0,0,,3,,,75,127
80256,note_off,113,0,0,,3,,,75,127
80256,note_off,0,0,0,,10,,,57,127
80256,note_off,0,0,0,,6,,,66,127
80256,note_off,0,0,0,,3,,,63,127
80258,note_on,2,0,0,,3,,,63,127
80258,note_on,0,0,0,,5,,,65,127
80258,note_on,0,0,0,,11,,,58,127
80258,note_on,0,0,0,,3,,,75,127
80371,note_off,113,0,0,,3,,,75,127
80373,note_on,2,0,0,,3,,,75,127
80486,note_off,113,0,0,,3,,,75,127
80486,note_off,0,0,0,,11,,,58,127
80486,note_off,0,0,0,,5,,,65,127
80486,note_off,0,0,0,,3,,,63,127
80488,note_on,2,0,0,,5,,,65,127
80488,note_on,0,0,0,,11,,,58,127
80488,note_on,0,0,0,,3,,,63,127
80488,note_on,0,0,0,,3,,,75,127
80601,note_off,113,0,0,,3,,,75,127
80603,note_on,2,0,0,,3,,,75,127
80716,note_off,113,0,0,,3,,,75,127
80716,note_off,0,0,0,,3,,,63,127
80716,note_off,0,0,0,,11,,,58,127
80716,note_off,0,0,0,,5,,,65,127
80718,note_on,2,0,0,,3,,,63,127
80718,note_on,0,0,0,,6,,,66,127
80718,note_on,0,0,0,,10,,,57,127
80718,note_on,0,0,0,,3,,,75,127
80831,note_off,113,0,0,,3,,,75,127
80833,note_on,2,0,0,,3,,,75,127
80946,note_off,113,0,0,,3,,,75,127
80946,note_off,0,0,0,,10,,,57,127
80946,note_off,0,0,0,,6,,,66,127
80946,note_off,0,0,0,,3,,,63,127
80948,note_on,2,0,0,,6,,,66,127
80948,note_on,0,0,0,,10,,,57,127
80948,note_on,0,0,0,,3,,,63,127
80948,note_on,0,0,0,,3,,,75,127
81061,note_off,113,0,0,,3,,,75,127
81063,note_on,2,0,0,,3,,,75,127
81176,note_off,113,0,0,,3,,,75,127
81176,note_off,0,0,0,,3,,,63,127
81176,note_off,0,0,0,,10,,,57,127
81176,note_off,0,0,0,,6,,,66,127
81178,note_on,2,0,0,,11,,,58,127
81178,note_on,0,0,0,,5,,,65,127
81178,note_on,0,0,0,,3,,,63,127
81178,note_on,0,0,0,,3,,,75,127
81291,note_off,113,0,0,,3,,,75,127
81293,note_on,2,0,0,,3,,,75,127
81406,note_off,113,0,0,,3,,,75,127
81406,note_off,0,0,0,,3,,,63,127
81406,note_off,0,0,0,,5,,,65,127
81406,note_off,0,0,0,,11,,,58,127
81408,note_on,2,0,0,,5,,,65,127
81408,note_on,0,0,0,,11,,,58,127
81408,note_on,0,0,0,,3,,,63,127
81408,note_on,0,0,0,,3,,,75,127
81521,note_off,113,0,0,,3,,,75,127
81523,note_on,2,0,0,,3,,,75,127
81636,note_off,113,0,0,,3,,,75,127
81636,note_off,0,0,0,,3,,,63,127
81636,note_off,0,0,0,,11,,,58,127
81636,note_off,0,0,0,,5,,,65,127
81638,note_on,2,0,0,,6,,,66,127
81638,note_on,0,0,0,,10,,,57,127
81638,note_on,0,0,0,,3,,,63,127
81638,note_on,0,0,0,,5,,,77,127
81693,note_off,55,0,0,,5,,,77,127
81695,note_on,2,0,0,,3,,,75,127
81750,note_off,55,0,0,,3,,,75,127
81752,note_on,2,0,0,,5,,,77,127
81807,note_off,55,0,0,,5,,,77,127
81809,note_on,2,0,0,,3,,,75,127
81864,note_off,55,0,0,,3,,,75,127
81864,note_off,0,0,0,,3,,,63,127
81864,note_off,0,0,0,,10,,,57,127
81864,note_off,0,0,0,,6,,,66,127
81866,note_on,2,0,0,,3,,,63,127
81866,note_on,0,0,0,,6,,,66,127
81866,note_on,0,0,0,,10,,,57,127
81866,note_on,0,0,0,,5,,,77,127
81921,note_off,55,0,0,,5,,,77,127
81923,note_on,2,0,0,,3,,,75,127
81978,note_off,55,0,0,,3,,,75,127
81980,note_on,2,0,0,,2,,,74,127
82035,note_off,55,0,0,,2,,,74,127
82037,note_on,2,0,0,,3,,,75,127
82092,note_off,55,0,0,,3,,,75,127
82092,note_off,0,0,0,,10,,,57,127
82092,note_off,0,0,0,,6,,,66,127
82092,note_off,0,0,0,,3,,,63,127
82094,note_on,2,0,0,,5,,,65,127
82094,note_on,0,0,0,,2,,,62,127
82094,note_on,0,0,0,,11,,,58,127
82094,note_on,0,0,0,,3,,,75,127
82149,note_off,55,0,0,,3,,,75,127
82151,note_on,2,0,0,,2,,,74,127
82206,note_off,55,0,0,,2,,,74,127
82208,note_on,2,0,0,,3,,,75,127
82263,note_off,55,0,0,,3,,,75,127
82265,note_on,2,0,0,,2,,,74,127
82320,note_off,55,0,0,,2,,,74,127
82320,note_off,0,0,0,,11,,,58,127
82320,note_off,0,0,0,,2,,,62,127
82320,note_off,0,0,0,,5,,,65,127
82322,note_on,2,0,0,,5,,,65,127
82322,note_on,0,0,0,,2,,,62,127
82322,note_on,0,0,0,,11,,,58,127
82322,note_on,0,0,0,,3,,,75,127
82377,note_off,55,0,0,,3,,,75,127
82379,note_on,2,0,0,,2,,,74,127
82434,note_off,55,0,0,,2,,,74,127
82436,note_on,2,0,0,,0,,,72,127
82491,note_off,55,0,0,,0,,,72,127
82493,note_on,2,0,0,,2,,,74,127
82548,note_off,55,0,0,,2,,,74,127
82548,note_off,0,0,0,,11,,,58,127
82548,note_off,0,0,0,,2,,,62,127
82548,note_off,0,0,0,,5,,,65,127
82550,note_on,2,0,0,,3,,,63,127
82550,note_on,0,0,0,,11,,,58,127
82550,note_on,0,0,0,,7,,,55,127
82550,note_on,0,0,0,,5,,,77,127
82605,note_off,55,0,0,,5,,,77,127
82607,note_on,2,0,0,,3,,,75,127
82662,note_off,55,0,0,,3,,,75,127
82664,note_on,2,0,0,,5,,,77,127
82719,note_off,55,0,0,,5,,,77,127
82721,note_on,2,0,0,,3,,,75,127
82776,note_off,55,0,0,,3,,,75,127
82776,note_off,0,0,0,,7,,,55,127
82776,note_off,0,0,0,,11,,,58,127
82776,note_off,0,0,0,,3,,,63,127
82778,note_on,2,0,0,,3,,,63,127
82778,note_on,0,0,0,,7,,,55,127
82778,note_on,0,0,0,,11,,,58,127
82778,note_on,0,0,0,,5,,,77,127
82833,note_off,55,0,0,,5,,,77,127
82835,note_on,2,0,0,,3,,,75,127
82890,note_off,55,0,0,,3,,,75,127
82892,note_on,2,0,0,,2,,,74,127
82947,note_off,55,0,0,,2,,,74,127
82949,note_on,2,0,0,,3,,,75,127
83004,note_off,55,0,0,,3,,,75,127
83004,note_off,0,0,0,,11,,,58,127
83004,note_off,0,0,0,,7,,,55,127
83004,note_off,0,0,0,,3,,,63,127
83006,note_on,2,0,0,,5,,,53,127
83006,note_on,0,0,0,,11,,,58,127
83006,note_on,0,0,0,,2,,,50,127
83006,note_on,0,0,0,,7,,,79,127
83061,note_off,55,0,0,,7,,,79,127
83063,note_on,2,0,0,,5,,,77,127
83118,note_off,55,0,0,,5,,,77,127
83120,note_on,2,0,0,,7,,,79,127
83175,note_off,55,0,0,,7,,,79,127
83177,note_on,2,0,0,,5,,,77,127
83232,note_off,55,0,0,,5,,,77,127
83232,note_off,0,0,0,,2,,,50,127
83232,note_off,0,0,0,,11,,,58,127
83232,note_off,0,0,0,,5,,,53,127
83234,note_on,2,0,0,,11,,,58,127
83234,note_on,0,0,0,,2,,,50,127
83234,note_on,0,0,0,,5,,,53,127
83234,note_on,0,0,0,,7,,,79,127
83289,note_off,55,0,0,,7,,,79,127
83291,note_on,2,0,0,,5,,,77,127
83346,note_off,55,0,0,,5,,,77,127
83348,note_on,2,0,0,,3,,,75,127
83403,note_off,55,0,0,,3,,,75,127
83405,note_on,2,0,0,,5,,,77,127
83460,note_off,55,0,0,,5,,,77,127
83460,note_off,0,0,0,,5,,,53,127
83460,note_off,0,0,0,,2,,,50,127
83460,note_off,0,0,0,,11,,,58,127
83462,note_on,2,0,0,,11,,,58,127
83462,note_on,0,0,0,,3,,,51,127
83462,note_on,0,0,0,,7,,,55,127
83462,note_on,0,0,0,,10,,,81,127
83517,note_off,55,0,0,,10,,,81,127
83519,note_on,2,0,0,,7,,,79,127
83574,note_off,55,0,0,,7,,,79,127
83576,note_on,2,0,0,,10,,,81,127
83631,note_off,55,0,0,,10,,,81,127
83633,note_on,2,0,0,,7,,,79,127
83688,note_off,55,0,0,,7,,,79,127
83688,note_off,0,0,0,,7,,,55,127
83688,note_off,0,0,0,,3,,,51,127
83688,note_off,0,0,0,,11,,,58,127
83690,note_on,2,0,0,,11,,,58,127
83690,note_on,0,0,0,,7,,,55,127
83690,note_on,0,0,0,,3,,,51,127
83690,note_on,0,0,0,,10,,,81,127
83745,note_off,55,0,0,,10,,,81,127
83747,note_on,2,0,0,,7,,,79,127
83802,note_off,55,0,0,,7,,,79,127
83804,note_on,2,0,0,,5,,,77,127
83859,note_off,55,0,0,,5,,,77,127
83861,note_on,2,0,0,,7,,,79,127
83916,note_off,55,0,0,,7,,,79,127
83916,note_off,0,0,0,,3,,,51,127
83916,note_off,0,0,0,,7,,,55,127
83916,note_off,0,0,0,,11,,,58,127
83918,note_on,2,0,0,,5,,,53,127
83918,note_on,0,0,0,,0,,,60,127
83918,note_on,0,0,0,,11,,,82,127
83973,note_off,55,0,0,,11,,,82,127
83975,note_on,2,0,0,,10,,,81,127
84030,note_off,55,0,0,,10,,,81,127
84032,note_on,2,0,0,,11,,,82,127
84087,note_off,55,0,0,,11,,,82,127
84089,note_on,2,0,0,,10,,,81,127
84144,note_off,55,0,0,,10,,,81,127
84144,note_off,0,0,0,,0,,,60,127
84144,note_off,0,0,0,,5,,,53,127
84146,note_on,2,0,0,,0,,,60,127
84146,note_on,0,0,0,,5,,,53,127
84146,note_on,0,0,0,,11,,,82,127
84201,note_off,55,0,0,,11,,,82,127
84203,note_on,2,0,0,,10,,,81,127
84258,note_off,55,0,0,,10,,,81,127
84260,note_on,2,0,0,,7,,,79,127
84315,note_off,55,0,0,,7,,,79,127
84317,note_on,2,0,0,,10,,,81,127
84372,note_off,55,0,0,,10,,,81,127
84372,note_off,0,0,0,,5,,,53,127
84372,note_off,0,0,0,,0,,,60,127
84374,note_on,2,0,0,,2,,,50,127
84374,note_on,0,0,0,,11,,,58,127
84374,note_on,0,0,0,,11,,,82,127
84487,note_off,113,0,0,,11,,,82,127
84489,note_on,2,0,0,,10,,,81,127
84602,note_off,113,0,0,,10,,,81,127
84602,note_off,0,0,0,,11,,,58,127
84602,note_off,0,0,0,,2,,,50,127
84604,note_on,2,0,0,,2,,,50,127
84604,note_on,0,0,0,,11,,,58,127
84604,note_on,0,0,0,,7,,,79,127
84717,note_off,113,0,0,,7,,,79,127
84719,note_on,2,0,0,,5,,,77,127
84832,note_off,113,0,0,,5,,,77,127
84832,note_off,0,0,0,,11,,,58,127
84832,note_off,0,0,0,,2,,,50,127
84834,note_on,2,0,0,,11,,,58,127
84834,note_on,0,0,0,,3,,,51,127
84834,note_on,0,0,0,,7,,,79,127
84947,note_off,113,0,0,,7,,,79,127
84949,note_on,2,0,0,,5,,,77,127
85062,note_off,113,0,0,,5,,,77,127
85064,note_on,2,0,0,,3,,,75,127
85177,note_off,113,0,0,,3,,,75,127
85179,note_on,2,0,0,,2,,,74,127
85292,note_off,113,0,0,,2,,,74,127
85292,note_off,0,0,0,,3,,,51,127
85292,note_off,0,0,0,,11,,,58,127
85294,note_on,2,0,0,,11,,,58,127
85294,note_on,0,0,0,,3,,,51,127
85294,note_on,0,0,0,,0,,,72,127
85407,note_off,113,0,0,,0,,,72,127
85409,note_on,2,0,0,,11,,,70,127
85522,note_off,113,0,0,,11,,,70,127
85524,note_on,2,0,0,,10,,,69,127
85637,note_off,113,0,0,,10,,,69,127
85639,note_on,2,0,0,,7,,,67,127
85752,note_off,113,0,0,,7,,,67,127
85752,note_off,0,0,0,,3,,,51,127
85752,note_off,0,0,0,,11,,,58,127
85754,note_on,2,0,0,,5,,,53,127
85754,note_on,0,0,0,,5,,,65,127
85867,note_off,113,0,0,,5,,,65,127
85869,note_on,2,0,0,,7,,,67,127
85982,note_off,113,0,0,,7,,,67,127
85984,note_on,2,0,0,,10,,,69,127
86097,note_off,113,0,0,,10,,,69,127
86099,note_on,2,0,0,,11,,,70,127
86212,note_off,113,0,0,,11,,,70,127
86214,note_on,2,0,0,,5,,,41,127
86214,note_on,0,0,0,,0,,,72,127
86327,note_off,113,0,0,,0,,,72,127
86329,note_on,2,0,0,,2,,,74,127
86442,note_off,113,0,0,,2,,,74,127
86443,note_off,1,0,0,,5,,,53,127
86444,note_on,1,0,0,,3,,,75,127
86557,note_off,113,0,0,,3,,,75,127
86559,note_on,2,0,0,,5,,,77,127
86669,note_off,110,0,0,,5,,,41,127
86671,note_off,2,0,0,,5,,,77,127
86673,note_on,2,0,0,,2,,,74,127
86788,note_on,115,0,0,,11,,,58,127
86901,note_off,113,0,0,,11,,,58,127
86903,note_on,2,0,0,,2,,,62,127
87016,note_off,113,0,0,,2,,,62,127
87018,note_on,2,0,0,,5,,,65,127
87131,note_off,113,0,0,,5,,,65,127
87131,note_off,0,0,0,,2,,,74,127
87133,note_on,2,0,0,,11,,,70,127
87133,note_on,0,0,0,,2,,,86,127
87133,note_on,0,0,0,,11,,,82,127
87246,note_off,113,0,0,,11,,,70,127
87248,note_on,2,0,0,,5,,,65,127
87361,note_off,113,0,0,,5,,,65,127
87363,note_on,2,0,0,,2,,,62,127
87476,note_off,113,0,0,,2,,,62,127
87478,note_on,2,0,0,,11,,,58,127
87591,note_off,113,0,0,,11,,,58,127
87593,note_on,2,0,0,,5,,,41,127
87706,note_off,113,0,0,,11,,,82,127
87706,note_off,0,0,0,,2,,,86,127
87708,note_on,2,0,0,,0,,,72,127
87821,note_off,113,0,0,,0,,,72,127
87823,note_on,2,0,0,,10,,,69,127
87936,note_off,113,0,0,,10,,,69,127
87938,note_on,2,0,0,,11,,,70,127
88051,note_off,113,0,0,,11,,,70,127
88053,note_on,2,0,0,,0,,,72,127
88166,note_off,113,0,0,,0,,,72,127
88168,note_on,2,0,0,,2,,,74,127
88281,note_off,113,0,0,,2,,,74,127
88283,note_on,2,0,0,,3,,,75,127
88396,note_off,113,0,0,,3,,,75,127
88398,note_on,2,0,0,,5,,,77,127
88511,note_off,113,0,0,,5,,,77,127
88512,note_off,1,0,0,,5,,,41,127
88513,note_on,1,0,0,,2,,,74,127
88628,note_on,115,0,0,,11,,,58,127
88741,note_off,113,0,0,,11,,,58,127
88743,note_on,2,0,0,,2,,,62,127
88856,note_off,113,0,0,,2,,,62,127
88858,note_on,2,0,0,,5,,,65,127
88971,note_off,113,0,0,,5,,,65,127
88971,note_off,0,0,0,,2,,,74,127
88973,note_on,2,0,0,,11,,,70,127
88973,note_on,0,0,0,,2,,,86,127
88973,note_on,0,0,0,,11,,,82,127
89086,note_off,113,0,0,,11,,,70,127
89088,note_on,2,0,0,,5,,,65,127
89201,note_off,113,0,0,,5,,,65,127
89203,note_on,2,0,0,,2,,,62,127
89316,note_off,113,0,0,,2,,,62,127
89318,note_on,2,0,0,,11,,,58,127
89431,note_off,113,0,0,,11,,,58,127
89433,note_on,2,0,0,,5,,,41,127
89546,note_off,113,0,0,,11,,,82,127
89546,note_off,0,0,0,,2,,,86,127
89548,note_on,2,0,0,,0,,,72,127
89661,note_off,113,0,0,,0,,,72,127
89663,note_on,2,0,0,,10,,,69,127
89776,note_off,113,0,0,,10,,,69,127
89778,note_on,2,0,0,,11,,,70,127
89891,note_off,113,0,0,,11,,,70,127
89893,note_on,2,0,0,,0,,,72,127
90006,note_off,113,0,0,,0,,,72,127
90008,note_on,2,0,0,,2,,,74,127
90121,note_off,113,0,0,,2,,,74,127
90123,note_on,2,0,0,,3,,,75,127
90236,note_off,113,0,0,,3,,,75,127
90238,note_on,2,0,0,,5,,,77,127
90351,note_off,113,0,0,,5,,,77,127
90351,note_off,0,0,0,,5,,,41,127
90353,note_on,2,0,0,,11,,,58,127
90353,note_on,0,0,0,,2,,,74,127
90466,note_off,113,0,0,,2,,,74,127
90468,note_on,2,0,0,,7,,,79,127
90581,note_off,113,0,0,,7,,,79,127
90581,note_off,0,0,0,,11,,,58,127
90583,note_on,2,0,0,,3,,,51,127
90583,note_on,0,0,0,,5,,,77,127
90696,note_off,113,0,0,,5,,,77,127
90698,note_on,2,0,0,,3,,,75,127
90811,note_off,113,0,0,,3,,,75,127
90811,note_off,0,0,0,,3,,,51,127
90813,note_on,2,0,0,,5,,,53,127
90813,note_on,0,0,0,,2,,,74,127
90926,note_off,113,0,0,,2,,,74,127
90928,note_on,2,0,0,,0,,,72,127
91041,note_off,113,0,0,,0,,,72,127
91043,note_on,2,0,0,,5,,,41,127
91043,note_on,0,0,0,,11,,,70,127
91156,note_off,113,0,0,,11,,,70,127
91158,note_on,2,0,0,,10,,,69,127
91254,note_off,96,0,0,,10,,,69,127
91256,note_off,2,0,0,,5,,,53,127
91262,note_off,6,0,0,,5,,,41,127
91302,note_on,40,0,0,,11,,,82,127
91302,note_on,0,0,0,,1,,,73,127
91302,note_on,0,0,0,,11,,,58,127
91530,note_off,228,0,0,,11,,,58,127
91530,note_off,0,0,0,,11,,,82,127
91532,note_on,2,0,0,,8,,,80,127
91532,note_on,0,0,0,,11,,,58,127
91760,note_off,228,0,0,,11,,,58,127
91760,note_off,0,0,0,,8,,,80,127
91762,note_on,2,0,0,,6,,,78,127
91762,note_on,0,0,0,,11,,,58,127
91990,note_off,228,0,0,,11,,,58,127
91990,note_off,0,0,0,,6,,,78,127
91992,note_on,2,0,0,,5,,,77,127
91992,note_on,0,0,0,,11,,,58,127
92213,note_off,221,0,0,,1,,,73,127
92220,note_off,7,0,0,,11,,,58,127
92220,note_off,0,0,0,,5,,,77,127
92222,note_on,2,0,0,,3,,,75,127
92222,note_on,0,0,0,,11,,,58,127
92222,note_on,0,0,0,,3,,,63,127
92222,note_on,0,0,0,,10,,,69,127
92222,note_on,0,0,0,,5,,,65,127
92450,note_off,228,0,0,,5,,,65,127
92450,note_off,0,0,0,,10,,,69,127
92450,note_off,0,0,0,,3,,,63,127
92450,note_off,0,0,0,,11,,,58,127
92450,note_off,0,0,0,,3,,,75,127
92452,note_on,2,0,0,,1,,,73,127
92452,note_on,0,0,0,,11,,,58,127
92452,note_on,0,0,0,,5,,,65,127
92452,note_on,0,0,0,,3,,,63,127
92452,note_on,0,0,0,,10,,,69,127
92680,note_off,228,0,0,,10,,,69,127
92680,note_off,0,0,0,,3,,,63,127
92680,note_off,0,0,0,,5,,,65,127
92680,note_off,0,0,0,,11,,,58,127
92682,note_on,2,0,0,,11,,,58,127
92682,note_on,0,0,0,,3,,,63,127
92682,note_on,0,0,0,,10,,,69,127
92682,note_on,0,0,0,,5,,,65,127
92910,note_off,228,0,0,,5,,,65,127
92910,note_off,0,0,0,,10,,,69,127
92910,note_off,0,0,0,,3,,,63,127
92910,note_off,0,0,0,,11,,,58,127
92910,note_off,0,0,0,,1,,,73,127
92912,note_on,2,0,0,,0,,,72,127
92912,note_on,0,0,0,,3,,,63,127
92912,note_on,0,0,0,,11,,,58,127
92912,note_on,0,0,0,,5,,,65,127
92912,note_on,0,0,0,,10,,,69,127
93140,note_off,228,0,0,,10,,,69,127
93140,note_off,0,0,0,,5,,,65,127
93140,note_off,0,0,0,,11,,,58,127
93140,note_off,0,0,0,,3,,,63,127
93140,note_off,0,0,0,,0,,,72,127
93142,note_on,2,0,0,,1,,,73,127
93142,note_on,0,0,0,,11,,,58,127
93142,note_on,0,0,0,,11,,,70,127
93370,note_off,228,0,0,,11,,,70,127
93370,note_off,0,0,0,,11,,,58,127
93372,note_on,2,0,0,,11,,,58,127
93372,note_on,0,0,0,,8,,,68,127
93600,note_off,228,0,0,,8,,,68,127
93600,note_off,0,0,0,,11,,,58,127
93602,note_on,2,0,0,,6,,,66,127
93602,note_on,0,0,0,,11,,,58,127
93830,note_off,228,0,0,,11,,,58,127
93830,note_off,0,0,0,,6,,,66,127
93830,note_off,0,0,0,,1,,,73,127
93832,note_on,2,0,0,,11,,,82,127
93832,note_on,0,0,0,,1,,,73,127
93832,note_on,0,0,0,,11,,,58,127
93832,note_on,0,0,0,,5,,,65,127
94060,note_off,228,0,0,,5,,,65,127
94060,note_off,0,0,0,,11,,,58,127
94060,note_off,0,0,0,,1,,,73,127
94060,note_off,0,0,0,,11,,,82,127
94062,note_on,2,0,0,,11,,,82,127
94062,note_on,0,0,0,,1,,,73,127
94062,note_on,0,0,0,,11,,,58,127
94062,note_on,0,0,0,,3,,,63,127
94290,note_off,228,0,0,,3,,,63,127
94290,note_off,0,0,0,,11,,,58,127
94292,note_on,2,0,0,,11,,,58,127
94292,note_on,0,0,0,,6,,,66,127
94520,note_off,228,0,0,,6,,,66,127
94520,note_off,0,0,0,,11,,,58,127
94520,note_off,0,0,0,,1,,,73,127
94520,note_off,0,0,0,,11,,,82,127
94522,note_on,2,0,0,,0,,,72,127
94522,note_on,0,0,0,,10,,,81,127
94522,note_on,0,0,0,,11,,,58,127
94522,note_on,0,0,0,,5,,,65,127
94750,note_off,228,0,0,,5,,,65,127
94750,note_off,0,0,0,,11,,,58,127
94750,note_off,0,0,0,,10,,,81,127
94750,note_off,0,0,0,,0,,,72,127
94752,note_on,2,0,0,,3,,,75,127
94752,note_on,0,0,0,,0,,,84,127
94752,note_on,0,0,0,,11,,,58,127
94752,note_on,0,0,0,,3,,,63,127
94980,note_off,228,0,0,,3,,,63,127
94980,note_off,0,0,0,,11,,,58,127
94980,note_off,0,0,0,,0,,,84,127
94980,note_off,0,0,0,,3,,,75,127
94982,note_on,2,0,0,,1,,,73,127
94982,note_on,0,0,0,,11,,,82,127
94982,note_on,0,0,0,,11,,,58,127
94982,note_on,0,0,0,,1,,,61,127
95210,note_off,228,0,0,,11,,,58,127
95210,note_off,0,0,0,,11,,,82,127
95212,note_on,2,0,0,,8,,,80,127
95212,note_on,0,0,0,,11,,,58,127
95438,note_off,226,0,0,,1,,,61,127
95440,note_off,2,0,0,,11,,,58,127
95440,note_off,0,0,0,,8,,,80,127
95442,note_on,2,0,0,,6,,,78,127
95442,note_on,0,0,0,,11,,,58,127
95670,note_off,228,0,0,,11,,,58,127
95670,note_off,0,0,0,,6,,,78,127
95672,note_on,2,0,0,,5,,,77,127
95672,note_on,0,0,0,,11,,,58,127
95893,note_off,221,0,0,,1,,,73,127
95900,note_off,7,0,0,,11,,,58,127
95900,note_off,0,0,0,,5,,,77,127
95902,note_on,2,0,0,,3,,,75,127
95902,note_on,0,0,0,,11,,,58,127
95902,note_on,0,0,0,,3,,,63,127
95902,note_on,0,0,0,,5,,,65,127
95902,note_on,0,0,0,,10,,,69,127
96130,note_off,228,0,0,,10,,,69,127
96130,note_off,0,0,0,,5,,,65,127
96130,note_off,0,0,0,,3,,,63,127
96130,note_off,0,0,0,,11,,,58,127
96130,note_off,0,0,0,,3,,,75,127
96132,note_on,2,0,0,,1,,,73,127
96132,note_on,0,0,0,,11,,,58,127
96132,note_on,0,0,0,,3,,,63,127
96132,note_on,0,0,0,,5,,,65,127
96132,note_on,0,0,0,,10,,,69,127
96360,note_off,228,0,0,,10,,,69,127
96360,note_off,0,0,0,,5,,,65,127
96360,note_off,0,0,0,,3,,,63,127
96360,note_off,0,0,0,,11,,,58,127
96362,note_on,2,0,0,,11,,,58,127
96362,note_on,0,0,0,,10,,,69,127
96362,note_on,0,0,0,,5,,,65,127
96362,note_on,0,0,0,,3,,,63,127
96590,note_off,228,0,0,,3,,,63,127
96590,note_off,0,0,0,,5,,,65,127
96590,note_off,0,0,0,,10,,,69,127
96590,note_off,0,0,0,,11,,,58,127
96590,note_off,0,0,0,,1,,,73,127
96592,note_on,2,0,0,,0,,,72,127
96592,note_on,0,0,0,,11,,,58,127
96592,note_on,0,0,0,,5,,,65,127
96592,note_on,0,0,0,,3,,,63,127
96592,note_on,0,0,0,,10,,,69,127
96820,note_off,228,0,0,,10,,,69,127
96820,note_off,0,0,0,,3,,,63,127
96820,note_off,0,0,0,,5,,,65,127
96820,note_off,0,0,0,,11,,,58,127
96820,note_off,0,0,0,,0,,,72,127
96822,note_on,2,0,0,,1,,,73,127
96822,note_on,0,0,0,,11,,,58,127
96822,note_on,0,0,0,,11,,,70,127
97050,note_off,228,0,0,,11,,,70,127
97050,note_off,0,0,0,,11,,,58,127
97052,note_on,2,0,0,,8,,,68,127
97052,note_on,0,0,0,,11,,,58,127
97280,note_off,228,0,0,,11,,,58,127
97280,note_off,0,0,0,,8,,,68,127
97282,note_on,2,0,0,,11,,,58,127
97282,note_on,0,0,0,,6,,,66,127
97510,note_off,228,0,0,,6,,,66,127
97510,note_off,0,0,0,,11,,,58,127
97510,note_off,0,0,0,,1,,,73,127
97512,note_on,2,0,0,,11,,,82,127
97512,note_on,0,0,0,,1,,,73,127
97512,note_on,0,0,0,,5,,,65,127
97512,note_on,0,0,0,,11,,,58,127
97740,note_off,228,0,0,,11,,,58,127
97740,note_off,0,0,0,,5,,,65,127
97740,note_off,0,0,0,,1,,,73,127
97740,note_off,0,0,0,,11,,,82,127
97742,note_on,2,0,0,,11,,,82,127
97742,note_on,0,0,0,,1,,,73,127
97742,note_on,0,0,0,,11,,,58,127
97742,note_on,0,0,0,,3,,,63,127
97970,note_off,228,0,0,,3,,,63,127
97970,note_off,0,0,0,,11,,,58,127
97972,note_on,2,0,0,,11,,,58,127
97972,note_on,0,0,0,,6,,,66,127
98200,note_off,228,0,0,,6,,,66,127
98200,note_off,0,0,0,,11,,,58,127
98200,note_off,0,0,0,,1,,,73,127
98200,note_off,0,0,0,,11,,,82,127
98202,note_on,2,0,0,,0,,,72,127
98202,note_on,0,0,0,,10,,,81,127
98202,note_on,0,0,0,,11,,,58,127
98202,note_on,0,0,0,,5,,,65,127
98430,note_off,228,0,0,,5,,,65,127
98430,note_off,0,0,0,,11,,,58,127
98430,note_off,0,0,0,,10,,,81,127
98430,note_off,0,0,0,,0,,,72,127
98432,note_on,2,0,0,,0,,,84,127
98432,note_on,0,0,0,,3,,,75,127
98432,note_on,0,0,0,,3,,,63,127
98432,note_on,0,0,0,,11,,,58,127
98660,note_off,228,0,0,,11,,,58,127
98660,note_off,0,0,0,,3,,,63,127
98660,note_off,0,0,0,,3,,,75,127
98660,note_off,0,0,0,,0,,,84,127
98662,note_on,2,0,0,,11,,,82,127
98662,note_on,0,0,0,,1,,,73,127
98662,note_on,0,0,0,,11,,,58,127
98775,note_off,113,0,0,,11,,,82,127
98777,note_on,2,0,0,,8,,,80,127
98890,note_off,113,0,0,,8,,,80,127
98892,note_on,2,0,0,,6,,,78,127
99005,note_off,113,0,0,,6,,,78,127
99007,note_on,2,0,0,,5,,,77,127
99117,note_off,110,0,0,,1,,,73,127
99119,note_off,2,0,0,,5,,,77,127
99121,note_on,2,0,0,,3,,,75,127
99121,note_on,0,0,0,,11,,,46,127
99234,note_off,113,0,0,,3,,,75,127
99236,note_on,2,0,0,,1,,,73,127
99349,note_off,113,0,0,,1,,,73,127
99351,note_on,2,0,0,,3,,,75,127
99464,note_off,113,0,0,,3,,,75,127
99466,note_on,2,0,0,,5,,,77,127
99579,note_off,113,0,0,,5,,,77,127
99579,note_off,0,0,0,,11,,,46,127
99580,note_off,1,0,0,,11,,,58,127
99581,note_on,1,0,0,,6,,,78,127
99581,note_on,0,0,0,,3,,,63,127
99694,note_off,113,0,0,,6,,,78,127
99696,note_on,2,0,0,,5,,,77,127
99809,note_off,113,0,0,,5,,,77,127
99811,note_on,2,0,0,,3,,,75,127
99924,note_off,113,0,0,,3,,,75,127
99926,note_on,2,0,0,,1,,,73,127
100039,note_off,113,0,0,,1,,,73,127
100041,note_on,2,0,0,,0,,,72,127
100041,note_on,0,0,0,,3,,,51,127
100154,note_off,113,0,0,,0,,,72,127
100156,note_on,2,0,0,,11,,,70,127
100269,note_off,113,0,0,,11,,,70,127
100271,note_on,2,0,0,,10,,,69,127
100384,note_off,113,0,0,,10,,,69,127
100386,note_on,2,0,0,,7,,,67,127
100499,note_off,113,0,0,,7,,,67,127
100499,note_off,0,0,0,,3,,,51,127
100500,note_off,1,0,0,,3,,,63,127
100501,note_on,1,0,0,,5,,,65,127
100501,note_on,0,0,0,,5,,,53,127
100614,note_off,113,0,0,,5,,,65,127
100616,note_on,2,0,0,,7,,,67,127
100729,note_off,113,0,0,,7,,,67,127
100731,note_on,2,0,0,,10,,,69,127
100844,note_off,113,0,0,,10,,,69,127
100846,note_on,2,0,0,,11,,,70,127
100959,note_off,113,0,0,,11,,,70,127
100961,note_on,2,0,0,,0,,,72,127
101074,note_off,113,0,0,,0,,,72,127
101076,note_on,2,0,0,,2,,,74,127
101189,note_off,113,0,0,,2,,,74,127
101191,note_on,2,0,0,,3,,,75,127
101304,note_off,113,0,0,,3,,,75,127
101306,note_on,2,0,0,,5,,,77,127
101419,note_off,113,0,0,,5,,,77,127
101420,note_off,1,0,0,,5,,,53,127
101421,note_on,1,0,0,,2,,,74,127
101536,note_on,115,0,0,,11,,,58,127
101649,note_off,113,0,0,,11,,,58,127
101651,note_on,2,0,0,,2,,,62,127
101764,note_off,113,0,0,,2,,,62,127
101766,note_on,2,0,0,,5,,,65,127
101879,note_off,113,0,0,,5,,,65,127
101879,note_off,0,0,0,,2,,,74,127
101881,note_on,2,0,0,,11,,,82,127
101881,note_on,0,0,0,,2,,,86,127
101881,note_on,0,0,0,,11,,,70,127
101994,note_off,113,0,0,,11,,,70,127
101996,note_on,2,0,0,,5,,,65,127
102109,note_off,113,0,0,,5,,,65,127
102111,note_on,2,0,0,,2,,,62,127
102224,note_off,113,0,0,,2,,,62,127
102226,note_on,2,0,0,,11,,,58,127
102336,note_off,110,0,0,,2,,,86,127
102336,note_off,0,0,0,,11,,,82,127
102338,note_off,2,0,0,,11,,,58,127
102340,note_on,2,0,0,,5,,,41,127
102455,note_on,115,0,0,,0,,,72,127
102568,note_off,113,0,0,,0,,,72,127
102570,note_on,2,0,0,,10,,,69,127
102683,note_off,113,0,0,,10,,,69,127
102685,note_on,2,0,0,,11,,,70,127
102798,note_off,113,0,0,,11,,,70,127
102800,note_on,2,0,0,,0,,,72,127
102913,note_off,113,0,0,,0,,,72,127
102915,note_on,2,0,0,,2,,,74,127
103028,note_off,113,0,0,,2,,,74,127
103030,note_on,2,0,0,,3,,,75,127
103143,note_off,113,0,0,,3,,,75,127
103145,note_on,2,0,0,,5,,,77,127
103258,note_off,113,0,0,,5,,,77,127
103259,note_off,1,0,0,,5,,,41,127
103260,note_on,1,0,0,,2,,,74,127
103375,note_on,115,0,0,,11,,,58,127
103488,note_off,113,0,0,,11,,,58,127
103490,note_on,2,0,0,,2,,,62,127
103603,note_off,113,0,0,,2,,,62,127
103605,note_on,2,0,0,,5,,,65,127
103718,note_off,113,0,0,,5,,,65,127
103718,note_off,0,0,0,,2,,,74,127
103720,note_on,2,0,0,,2,,,86,127
103720,note_on,0,0,0,,11,,,82,127
103720,note_on,0,0,0,,11,,,70,127
103833,note_off,113,0,0,,11,,,70,127
103835,note_on,2,0,0,,5,,,65,127
103948,note_off,113,0,0,,5,,,65,127
103950,note_on,2,0,0,,2,,,62,127
104063,note_off,113,0,0,,2,,,62,127
104065,note_on,2,0,0,,11,,,58,127
104175,note_off,110,0,0,,11,,,82,127
104175,note_off,0,0,0,,2,,,86,127
104177,note_off,2,0,0,,11,,,58,127
104179,note_on,2,0,0,,5,,,41,127
104294,note_on,115,0,0,,0,,,72,127
104407,note_off,113,0,0,,0,,,72,127
104409,note_on,2,0,0,,10,,,69,127
104522,note_off,113,0,0,,10,,,69,127
104524,note_on,2,0,0,,11,,,70,127
104637,note_off,113,0,0,,11,,,70,127
104639,note_on,2,0,0,,0,,,72,127
104752,note_off,113,0,0,,0,,,72,127
104754,note_on,2,0,0,,2,,,74,127
104867,note_off,113,0,0,,2,,,74,127
104869,note_on,2,0,0,,3,,,75,127
104982,note_off,113,0,0,,3,,,75,127
104984,note_on,2,0,0,,5,,,77,127
105097,note_off,113,0,0,,5,,,77,127
105097,note_off,0,0,0,,5,,,41,127
105099,note_on,2,0,0,,2,,,74,127
105099,note_on,0,0,0,,11,,,58,127
105212,note_off,113,0,0,,2,,,74,127
105214,note_on,2,0,0,,7,,,79,127
105327,note_off,113,0,0,,7,,,79,127
105327,note_off,0,0,0,,11,,,58,127
105329,note_on,2,0,0,,5,,,77,127
105329,note_on,0,0,0,,3,,,51,127
105442,note_off,113,0,0,,5,,,77,127
105444,note_on,2,0,0,,3,,,75,127
105557,note_off,113,0,0,,3,,,75,127
105557,note_off,0,0,0,,3,,,51,127
105559,note_on,2,0,0,,2,,,74,127
105559,note_on,0,0,0,,5,,,53,127
105672,note_off,113,0,0,,2,,,74,127
105674,note_on,2,0,0,,0,,,72,127
105787,note_off,113,0,0,,0,,,72,127
105789,note_on,2,0,0,,11,,,70,127
105789,note_on,0,0,0,,5,,,41,127
105902,note_off,113,0,0,,11,,,70,127
105904,note_on,2,0,0,,10,,,69,127
106014,note_off,110,0,0,,5,,,53,127
106016,note_off,2,0,0,,10,,,69,127
106016,note_off,0,0,0,,5,,,41,127
106038,note_on,22,0,0,,11,,,46,127
106151,note_off,113,0,0,,11,,,46,127
106153,note_on,2,0,0,,3,,,51,127
106266,note_off,113,0,0,,3,,,51,127
106268,note_on,2,0,0,,7,,,67,127
106268,note_on,0,0,0,,3,,,75,127
106268,note_on,0,0,0,,7,,,79,127
106268,note_on,0,0,0,,7,,,55,127
106381,note_off,113,0,0,,7,,,55,127
106383,note_on,2,0,0,,3,,,51,127
106496,note_off,113,0,0,,3,,,51,127
106498,note_on,2,0,0,,10,,,45,127
106611,note_off,113,0,0,,10,,,45,127
106613,note_on,2,0,0,,3,,,51,127
106726,note_off,113,0,0,,3,,,51,127
106726,note_off,0,0,0,,7,,,79,127
106726,note_off,0,0,0,,3,,,75,127
106726,note_off,0,0,0,,7,,,67,127
106728,note_on,2,0,0,,10,,,69,127
106728,note_on,0,0,0,,7,,,79,127
106728,note_on,0,0,0,,3,,,75,127
106728,note_on,0,0,0,,5,,,53,127
106841,note_off,113,0,0,,5,,,53,127
106843,note_on,2,0,0,,3,,,51,127
106956,note_off,113,0,0,,3,,,51,127
106958,note_on,2,0,0,,11,,,46,127
107071,note_off,113,0,0,,11,,,46,127
107073,note_on,2,0,0,,3,,,51,127
107186,note_off,113,0,0,,3,,,51,127
107186,note_off,0,0,0,,3,,,75,127
107186,note_off,0,0,0,,7,,,79,127
107186,note_off,0,0,0,,10,,,69,127
107188,note_on,2,0,0,,11,,,70,127
107188,note_on,0,0,0,,7,,,79,127
107188,note_on,0,0,0,,3,,,75,127
107188,note_on,0,0,0,,7,,,55,127
107301,note_off,113,0,0,,7,,,55,127
107303,note_on,2,0,0,,3,,,51,127
107416,note_off,113,0,0,,3,,,51,127
107418,note_on,2,0,0,,10,,,45,127
107531,note_off,113,0,0,,10,,,45,127
107533,note_on,2,0,0,,3,,,51,127
107646,note_off,113,0,0,,3,,,51,127
107646,note_off,0,0,0,,3,,,75,127
107646,note_off,0,0,0,,7,,,79,127
107646,note_off,0,0,0,,11,,,70,127
107648,note_on,2,0,0,,3,,,75,127
107648,note_on,0,0,0,,0,,,72,127
107648,note_on,0,0,0,,7,,,79,127
107648,note_on,0,0,0,,5,,,53,127
107761,note_off,113,0,0,,5,,,53,127
107763,note_on,2,0,0,,3,,,51,127
107876,note_off,113,0,0,,3,,,51,127
107876,note_off,0,0,0,,7,,,79,127
107876,note_off,0,0,0,,0,,,72,127
107876,note_off,0,0,0,,3,,,75,127
107878,note_on,2,0,0,,11,,,46,127
107993,note_on,115,0,0,,5,,,77,127
107993,note_on,0,0,0,,2,,,74,127
108106,note_off,113,0,0,,2,,,74,127
108106,note_off,0,0,0,,5,,,77,127
108106,note_off,0,0,0,,11,,,46,127
108108,note_on,2,0,0,,0,,,72,127
108108,note_on,0,0,0,,3,,,75,127
108108,note_on,0,0,0,,3,,,51,127
108221,note_off,113,0,0,,3,,,75,127
108221,note_off,0,0,0,,0,,,72,127
108223,note_on,2,0,0,,2,,,74,127
108223,note_on,0,0,0,,11,,,70,127
108336,note_off,113,0,0,,11,,,70,127
108336,note_off,0,0,0,,2,,,74,127
108336,note_off,0,0,0,,3,,,51,127
108338,note_on,2,0,0,,5,,,77,127
108338,note_on,0,0,0,,0,,,72,127
108338,note_on,0,0,0,,5,,,53,127
108451,note_off,113,0,0,,5,,,77,127
108453,note_on,2,0,0,,3,,,75,127
108566,note_off,113,0,0,,3,,,75,127
108566,note_off,0,0,0,,0,,,72,127
108568,note_on,2,0,0,,11,,,70,127
108568,note_on,0,0,0,,2,,,74,127
108568,note_on,0,0,0,,5,,,41,127
108681,note_off,113,0,0,,2,,,74,127
108681,note_off,0,0,0,,11,,,70,127
108683,note_on,2,0,0,,0,,,72,127
108683,note_on,0,0,0,,10,,,69,127
108793,note_off,110,0,0,,5,,,53,127
108795,note_off,2,0,0,,10,,,69,127
108795,note_off,0,0,0,,0,,,72,127
108795,note_off,0,0,0,,5,,,41,127
108805,note_on,10,0,0,,11,,,46,127
108918,note_off,113,0,0,,11,,,46,127
108920,note_on,2,0,0,,3,,,51,127
109033,note_off,113,0,0,,3,,,51,127
109035,note_on,2,0,0,,7,,,55,127
109035,note_on,0,0,0,,3,,,75,127
109035,note_on,0,0,0,,7,,,79,127
109035,note_on,0,0,0,,7,,,67,127
109148,note_off,113,0,0,,7,,,55,127
109150,note_on,2,0,0,,3,,,51,127
109263,note_off,113,0,0,,3,,,51,127
109265,note_on,2,0,0,,10,,,45,127
109378,note_off,113,0,0,,10,,,45,127
109380,note_off,2,0,0,,7,,,67,127
109380,note_off,0,0,0,,7,,,79,127
109380,note_off,0,0,0,,3,,,75,127
109380,note_on,0,0,0,,3,,,51,127
109493,note_off,113,0,0,,3,,,51,127
109495,note_on,2,0,0,,5,,,53,127
109495,note_on,0,0,0,,7,,,79,127
109495,note_on,0,0,0,,3,,,75,127
109495,note_on,0,0,0,,10,,,69,127
109608,note_off,113,0,0,,5,,,53,127
109610,note_on,2,0,0,,3,,,51,127
109723,note_off,113,0,0,,3,,,51,127
109725,note_on,2,0,0,,11,,,46,127
109838,note_off,113,0,0,,11,,,46,127
109840,note_off,2,0,0,,10,,,69,127
109840,note_off,0,0,0,,3,,,75,127
109840,note_off,0,0,0,,7,,,79,127
109840,note_on,0,0,0,,3,,,51,127
109953,note_off,113,0,0,,3,,,51,127
109955,note_on,2,0,0,,7,,,55,127
109955,note_on,0,0,0,,3,,,75,127
109955,note_on,0,0,0,,11,,,70,127
109955,note_on,0,0,0,,7,,,79,127
110068,note_off,113,0,0,,7,,,55,127
110070,note_on,2,0,0,,3,,,51,127
110183,note_off,113,0,0,,3,,,51,127
110185,note_on,2,0,0,,10,,,45,127
110298,note_off,113,0,0,,10,,,45,127
110300,note_off,2,0,0,,7,,,79,127
110300,note_off,0,0,0,,11,,,70,127
110300,note_off,0,0,0,,3,,,75,127
110300,note_on,0,0,0,,3,,,51,127
110413,note_off,113,0,0,,3,,,51,127
110415,note_on,2,0,0,,5,,,53,127
110415,note_on,0,0,0,,3,,,75,127
110415,note_on,0,0,0,,7,,,79,127
110415,note_on,0,0,0,,0,,,72,127
110528,note_off,113,0,0,,5,,,53,127
110530,note_on,2,0,0,,3,,,51,127
110643,note_off,113,0,0,,3,,,51,127
110643,note_off,0,0,0,,0,,,72,127
110643,note_off,0,0,0,,7,,,79,127
110643,note_off,0,0,0,,3,,,75,127
110645,note_on,2,0,0,,11,,,46,127
110760,note_on,115,0,0,,2,,,74,127
110760,note_on,0,0,0,,5,,,77,127
110873,note_off,113,0,0,,5,,,77,127
110873,note_off,0,0,0,,2,,,74,127
110873,note_off,0,0,0,,11,,,46,127
110875,note_on,2,0,0,,3,,,51,127
110875,note_on,0,0,0,,0,,,72,127
110875,note_on,0,0,0,,3,,,75,127
110988,note_off,113,0,0,,3,,,75,127
110988,note_off,0,0,0,,0,,,72,127
110990,note_on,2,0,0,,11,,,70,127
110990,note_on,0,0,0,,2,,,74,127
111103,note_off,113,0,0,,2,,,74,127
111103,note_off,0,0,0,,11,,,70,127
111103,note_off,0,0,0,,3,,,51,127
111105,note_on,2,0,0,,5,,,53,127
111105,note_on,0,0,0,,0,,,72,127
111105,note_on,0,0,0,,5,,,77,127
111218,note_off,113,0,0,,5,,,77,127
111220,note_on,2,0,0,,3,,,75,127
111333,note_off,113,0,0,,3,,,75,127
111333,note_off,0,0,0,,0,,,72,127
111335,note_on,2,0,0,,5,,,41,127
111335,note_on,0,0,0,,2,,,74,127
111335,note_on,0,0,0,,11,,,70,127
111448,note_off,113,0,0,,11,,,70,127
111448,note_off,0,0,0,,2,,,74,127
111450,note_on,2,0,0,,10,,,69,127
111450,note_on,0,0,0,,0,,,72,127
111560,note_off,110,0,0,,5,,,53,127
111562,note_off,2,0,0,,0,,,72,127
111562,note_off,0,0,0,,10,,,69,127
111562,note_off,0,0,0,,5,,,41,127
111582,note_on,20,0,0,,11,,,46,127
111811,note_off,229,0,0,,11,,,46,127
111817,note_on,6,0,0,,0,,,84,127
111817,note_on,0,0,0,,11,,,58,127
111872,note_off,55,0,0,,0,,,84,127
111876,note_on,4,0,0,,11,,,82,127
111931,note_off,55,0,0,,11,,,82,127
111935,note_on,4,0,0,,10,,,81,127
111990,note_off,55,0,0,,10,,,81,127
111992,note_on,2,0,0,,11,,,82,127
112046,note_off,54,0,0,,11,,,58,127
112047,note_off,1,0,0,,11,,,82,127
112051,note_on,4,0,0,,0,,,84,127
112051,note_on,0,0,0,,0,,,60,127
112164,note_off,113,0,0,,0,,,84,127
112169,note_on,5,0,0,,7,,,79,127
112281,note_off,112,0,0,,0,,,60,127
112282,note_off,1,0,0,,7,,,79,127
112287,note_on,5,0,0,,5,,,77,127
112287,note_on,0,0,0,,10,,,57,127
112400,note_off,113,0,0,,5,,,77,127
112405,note_on,5,0,0,,3,,,75,127
112517,note_off,112,0,0,,10,,,57,127
112518,note_off,1,0,0,,3,,,75,127
112523,note_on,5,0,0,,2,,,74,127
112523,note_on,0,0,0,,11,,,58,127
112636,note_off,113,0,0,,2,,,74,127
112641,note_on,5,0,0,,3,,,75,127
112753,note_off,112,0,0,,11,,,58,127
112754,note_off,1,0,0,,3,,,75,127
112759,note_on,5,0,0,,5,,,77,127
112759,note_on,0,0,0,,3,,,51,127
112872,note_off,113,0,0,,5,,,77,127
112877,note_on,5,0,0,,11,,,70,127
112989,note_off,112,0,0,,3,,,51,127
112990,note_off,1,0,0,,11,,,70,127
112995,note_on,5,0,0,,2,,,74,127
112995,note_on,0,0,0,,5,,,53,127
113108,note_off,113,0,0,,2,,,74,127
113113,note_on,5,0,0,,0,,,72,127
113226,note_off,113,0,0,,0,,,72,127
113231,note_on,5,0,0,,11,,,70,127
113231,note_on,0,0,0,,5,,,41,127
113344,note_off,113,0,0,,11,,,70,127
113349,note_on,5,0,0,,10,,,69,127
113456,note_off,107,0,0,,5,,,53,127
113461,note_off,5,0,0,,5,,,41,127
113462,note_off,1,0,0,,10,,,69,127
113466,note_on,4,0,0,,11,,,46,127
113466,note_on,0,0,0,,10,,,69,127
113579,note_off,113,0,0,,10,,,69,127
113585,note_on,6,0,0,,11,,,70,127
113698,note_off,113,0,0,,11,,,70,127
113704,note_on,6,0,0,,10,,,69,127
113817,note_off,113,0,0,,10,,,69,127
113823,note_on,6,0,0,,7,,,67,127
113932,note_off,109,0,0,,11,,,46,127
113936,note_off,4,0,0,,7,,,67,127
113942,note_on,6,0,0,,10,,,45,127
113942,note_on,0,0,0,,5,,,65,127
114055,note_off,113,0,0,,5,,,65,127
114061,note_on,6,0,0,,3,,,63,127
114173,note_off,112,0,0,,10,,,45,127
114174,note_off,1,0,0,,3,,,63,127
114180,note_on,6,0,0,,5,,,41,127
114180,note_on,0,0,0,,2,,,62,127
114293,note_off,113,0,0,,2,,,62,127
114299,note_on,6,0,0,,0,,,60,127
114411,note_off,112,0,0,,5,,,41,127
114412,note_off,1,0,0,,0,,,60,127
114418,note_on,6,0,0,,11,,,46,127
114418,note_on,0,0,0,,2,,,62,127
114531,note_off,113,0,0,,2,,,62,127
114537,note_on,6,0,0,,3,,,63,127
114649,note_off,112,0,0,,11,,,46,127
114650,note_off,1,0,0,,3,,,63,127
114656,note_on,6,0,0,,3,,,39,127
114656,note_on,0,0,0,,5,,,65,127
114769,note_off,113,0,0,,5,,,65,127
114775,note_on,6,0,0,,11,,,58,127
114887,note_off,112,0,0,,3,,,39,127
114888,note_off,1,0,0,,11,,,58,127
114894,note_on,6,0,0,,5,,,41,127
114894,note_on,0,0,0,,2,,,62,127
115007,note_off,113,0,0,,2,,,62,127
115012,note_on,5,0,0,,0,,,60,127
115125,note_off,113,0,0,,0,,,60,127
115131,note_on,6,0,0,,5,,,53,127
115131,note_on,0,0,0,,11,,,58,127
115244,note_off,113,0,0,,11,,,58,127
115250,note_on,6,0,0,,10,,,57,127
115346,note_off,96,0,0,,5,,,41,127
115362,note_off,16,0,0,,5,,,53,127
115382,note_off,20,0,0,,10,,,57,127
115390,note_on,8,0,0,,11,,,46,127
115390,note_on,0,0,0,,11,,,58,127
117161,note_off,1771,0,0,,11,,,58,127
117161,note_off,0,0,0,,11,,,46,127
118272,end_of_track,1111,1,0,,,,,,
