tick,type,time,meta,track,program,channel,pitch,tempo,note,velocity
0,copyright,0,1,0,,,,,,
0,program_change,0,0,0,6,0,,,,
0,pitchwheel,0,0,0,,0,0,,,
0,program_change,0,0,0,6,1,,,,
0,pitchwheel,0,0,0,,1,-590,,,
0,program_change,0,0,0,6,2,,,,
0,pitchwheel,0,0,0,,2,-272,,,
0,program_change,0,0,0,6,3,,,,
0,pitchwheel,0,0,0,,3,-353,,,
0,program_change,0,0,0,6,4,,,,
0,pitchwheel,0,0,0,,4,-560,,,
0,program_change,0,0,0,6,5,,,,
0,pitchwheel,0,0,0,,5,-80,,,
0,program_change,0,0,0,6,6,,,,
0,pitchwheel,0,0,0,,6,-625,,,
0,program_change,0,0,0,6,7,,,,
0,pitchwheel,0,0,0,,7,-130,,,
0,program_change,0,0,0,6,8,,,,
0,pitchwheel,0,0,0,,8,-512,,,
0,program_change,0,0,0,6,10,,,,
0,pitchwheel,0,0,0,,10,-464,,,
0,program_change,0,0,0,6,11,,,,
0,pitchwheel,0,0,0,,11,-208,,,
0,program_change,0,0,0,6,12,,,,
0,pitchwheel,0,0,0,,12,-553,,,
0,set_tempo,0,1,0,,,,500000,,
100,note_on,100,0,0,,11,,,82,127
300,note_on,200,0,0,,5,,,77,127
499,note_off,199,0,0,,5,,,77,127
500,note_on,1,0,0,,2,,,74,127
699,note_off,199,0,0,,2,,,74,127
699,note_off,0,0,0,,11,,,82,127
700,note_on,1,0,0,,11,,,70,127
900,note_on,200,0,0,,5,,,65,127
1099,note_off,199,0,0,,5,,,65,127
1100,note_on,1,0,0,,2,,,62,127
1299,note_off,199,0,0,,2,,,62,127
1299,note_off,0,0,0,,11,,,70,127
1300,note_on,1,0,0,,11,,,58,127
1500,note_on,200,0,0,,5,,,53,127
1699,note_off,199,0,0,,5,,,53,127
1700,note_on,1,0,0,,2,,,50,127
1899,note_off,199,0,0,,2,,,50,127
1899,note_off,0,0,0,,11,,,58,127
1900,note_on,1,0,0,,11,,,46,127
2100,note_on,200,0,0,,5,,,77,127
2199,note_off,99,0,0,,5,,,77,127
2200,note_on,1,0,0,,2,,,74,127
2299,note_off,99,0,0,,2,,,74,127
2300,note_on,1,0,0,,3,,,75,127
2399,note_off,99,0,0,,3,,,75,127
2400,note_on,1,0,0,,0,,,72,127
2499,note_off,99,0,0,,0,,,72,127
2500,note_on,1,0,0,,0,,,72,127
2599,note_off,99,0,0,,0,,,72,127
2600,note_on,1,0,0,,11,,,70,127
2699,note_off,99,0,0,,11,,,70,127
2699,note_off,0,0,0,,11,,,46,127
2700,note_on,1,0,0,,10,,,69,127
2899,note_off,199,0,0,,10,,,69,127
2900,note_on,1,0,0,,11,,,70,127
3099,note_off,199,0,0,,11,,,70,127
3100,note_on,1,0,0,,5,,,65,127
3299,note_off,199,0,0,,5,,,65,127
3300,note_on,1,0,0,,5,,,65,127
3400,note_on,100,0,0,,2,,,62,127
3499,note_off,99,0,0,,2,,,62,127
3500,note_on,1,0,0,,3,,,63,127
3599,note_off,99,0,0,,3,,,63,127
3600,note_on,1,0,0,,0,,,60,127
3699,note_off,99,0,0,,0,,,60,127
3699,note_off,0,0,0,,5,,,65,127
3700,note_on,1,0,0,,0,,,60,127
3700,note_on,0,0,0,,2,,,74,127
3700,note_on,0,0,0,,5,,,65,127
3799,note_off,99,0,0,,0,,,60,127
3800,note_on,1,0,0,,11,,,58,127
3899,note_off,99,0,0,,11,,,58,127
3899,note_off,0,0,0,,2,,,74,127
3900,note_on,1,0,0,,10,,,57,127
3900,note_on,0,0,0,,3,,,75,127
4099,note_off,199,0,0,,3,,,75,127
4099,note_off,0,0,0,,10,,,57,127
4100,note_on,1,0,0,,11,,,58,127
4100,note_on,0,0,0,,2,,,74,127
4299,note_off,199,0,0,,2,,,74,127
4299,note_off,0,0,0,,11,,,58,127
4299,note_off,0,0,0,,5,,,65,127
4300,note_on,1,0,0,,5,,,53,127
4300,note_on,0,0,0,,0,,,72,127
4499,note_off,199,0,0,,0,,,72,127
4500,note_on,1,0,0,,5,,,77,127
4500,note_on,0,0,0,,2,,,74,127
4599,note_off,99,0,0,,2,,,74,127
4600,note_on,1,0,0,,11,,,70,127
4699,note_off,99,0,0,,11,,,70,127
4699,note_off,0,0,0,,5,,,77,127
4700,note_on,1,0,0,,3,,,75,127
4700,note_on,0,0,0,,0,,,72,127
4799,note_off,99,0,0,,0,,,72,127
4800,note_on,1,0,0,,10,,,69,127
4899,note_off,99,0,0,,10,,,69,127
4899,note_off,0,0,0,,3,,,75,127
4899,note_off,0,0,0,,5,,,53,127
4900,note_on,1,0,0,,5,,,53,127
4900,note_on,0,0,0,,11,,,70,127
4900,note_on,0,0,0,,2,,,74,127
4999,note_off,99,0,0,,11,,,70,127
5000,note_on,1,0,0,,7,,,67,127
5099,note_off,99,0,0,,7,,,67,127
5099,note_off,0,0,0,,2,,,74,127
5100,note_on,1,0,0,,0,,,72,127
5100,note_on,0,0,0,,10,,,69,127
5199,note_off,99,0,0,,10,,,69,127
5200,note_on,1,0,0,,5,,,65,127
5299,note_off,99,0,0,,5,,,65,127
5299,note_off,0,0,0,,0,,,72,127
5300,note_on,1,0,0,,11,,,70,127
5300,note_on,0,0,0,,7,,,67,127
5399,note_off,99,0,0,,7,,,67,127
5400,note_on,1,0,0,,4,,,64,127
5499,note_off,99,0,0,,4,,,64,127
5499,note_off,0,0,0,,11,,,70,127
5499,note_off,0,0,0,,5,,,53,127
5500,note_on,1,0,0,,0,,,72,127
5500,note_on,0,0,0,,10,,,69,127
5700,note_on,200,0,0,,5,,,65,127
5799,note_off,99,0,0,,5,,,65,127
5800,note_on,1,0,0,,2,,,62,127
5899,note_off,99,0,0,,2,,,62,127
5899,note_off,0,0,0,,10,,,69,127
5899,note_off,0,0,0,,0,,,72,127
5900,note_on,1,0,0,,3,,,63,127
5900,note_on,0,0,0,,0,,,72,127
5900,note_on,0,0,0,,10,,,69,127
5999,note_off,99,0,0,,3,,,63,127
6000,note_on,1,0,0,,0,,,60,127
6099,note_off,99,0,0,,0,,,60,127
6099,note_off,0,0,0,,10,,,69,127
6099,note_off,0,0,0,,0,,,72,127
6100,note_on,1,0,0,,2,,,62,127
6100,note_on,0,0,0,,11,,,70,127
6199,note_off,99,0,0,,2,,,62,127
6200,note_on,1,0,0,,11,,,58,127
6299,note_off,99,0,0,,11,,,58,127
6299,note_off,0,0,0,,11,,,70,127
6300,note_on,1,0,0,,0,,,60,127
6300,note_on,0,0,0,,0,,,72,127
6399,note_off,99,0,0,,0,,,60,127
6400,note_on,1,0,0,,10,,,57,127
6499,note_off,99,0,0,,10,,,57,127
6499,note_off,0,0,0,,0,,,72,127
6500,note_on,1,0,0,,11,,,58,127
6500,note_on,0,0,0,,2,,,74,127
6599,note_off,99,0,0,,11,,,58,127
6600,note_on,1,0,0,,7,,,55,127
6699,note_off,99,0,0,,7,,,55,127
6699,note_off,0,0,0,,2,,,74,127
6700,note_on,1,0,0,,5,,,53,127
6700,note_on,0,0,0,,2,,,74,127
6733,note_on,33,0,0,,0,,,72,127
6750,note_off,17,0,0,,2,,,74,127
6767,note_on,17,0,0,,2,,,74,127
6784,note_off,17,0,0,,0,,,72,127
6801,note_on,17,0,0,,0,,,72,127
6818,note_off,17,0,0,,2,,,74,127
6901,note_on,83,0,0,,5,,,65,127
7100,note_off,199,0,0,,5,,,65,127
7100,note_off,0,0,0,,0,,,72,127
7101,note_on,1,0,0,,3,,,63,127
7101,note_on,0,0,0,,0,,,72,127
7300,note_off,199,0,0,,0,,,72,127
7300,note_off,0,0,0,,3,,,63,127
7300,note_off,0,0,0,,5,,,53,127
7301,note_on,1,0,0,,5,,,53,127
7301,note_on,0,0,0,,2,,,62,127
7301,note_on,0,0,0,,5,,,77,127
7500,note_off,199,0,0,,5,,,77,127
7500,note_off,0,0,0,,2,,,62,127
7501,note_on,1,0,0,,0,,,60,127
7501,note_on,0,0,0,,3,,,75,127
7700,note_off,199,0,0,,3,,,75,127
7700,note_off,0,0,0,,0,,,60,127
7701,note_on,1,0,0,,11,,,58,127
7701,note_on,0,0,0,,2,,,74,127
7900,note_off,199,0,0,,2,,,74,127
7900,note_off,0,0,0,,11,,,58,127
7900,note_off,0,0,0,,5,,,53,127
7901,note_on,1,0,0,,10,,,57,127
7901,note_on,0,0,0,,5,,,53,127
7901,note_on,0,0,0,,0,,,72,127
7968,note_off,67,0,0,,0,,,72,127
7968,note_on,0,0,0,,2,,,74,127
8035,note_off,67,0,0,,2,,,74,127
8035,note_on,0,0,0,,0,,,72,127
8101,note_off,66,0,0,,10,,,57,127
8102,note_off,1,0,0,,0,,,72,127
8102,note_on,0,0,0,,5,,,65,127
8102,note_on,0,0,0,,11,,,70,127
8301,note_off,199,0,0,,11,,,70,127
8301,note_off,0,0,0,,5,,,65,127
8302,note_on,1,0,0,,3,,,63,127
8302,note_on,0,0,0,,10,,,69,127
8501,note_off,199,0,0,,10,,,69,127
8501,note_off,0,0,0,,3,,,63,127
8501,note_off,0,0,0,,5,,,53,127
8502,note_on,1,0,0,,2,,,62,127
8502,note_on,0,0,0,,5,,,53,127
8502,note_on,0,0,0,,5,,,77,127
8701,note_off,199,0,0,,5,,,77,127
8701,note_off,0,0,0,,2,,,62,127
8702,note_on,1,0,0,,0,,,60,127
8702,note_on,0,0,0,,3,,,75,127
8901,note_off,199,0,0,,3,,,75,127
8901,note_off,0,0,0,,0,,,60,127
8902,note_on,1,0,0,,11,,,58,127
8902,note_on,0,0,0,,2,,,74,127
9101,note_off,199,0,0,,2,,,74,127
9101,note_off,0,0,0,,11,,,58,127
9101,note_off,0,0,0,,5,,,53,127
9102,note_on,1,0,0,,10,,,57,127
9102,note_on,0,0,0,,5,,,53,127
9102,note_on,0,0,0,,0,,,72,127
9202,note_on,100,0,0,,5,,,77,127
9300,note_off,98,0,0,,0,,,72,127
9301,note_off,1,0,0,,5,,,77,127
9302,note_on,1,0,0,,0,,,72,127
9401,note_off,99,0,0,,0,,,72,127
9402,note_on,1,0,0,,10,,,69,127
9501,note_off,99,0,0,,10,,,69,127
9502,note_on,1,0,0,,5,,,65,127
9601,note_off,99,0,0,,5,,,65,127
9602,note_on,1,0,0,,0,,,60,127
9701,note_off,99,0,0,,0,,,60,127
9701,note_off,0,0,0,,5,,,53,127
9701,note_off,0,0,0,,10,,,57,127
9702,note_on,1,0,0,,10,,,57,127
9802,note_on,100,0,0,,5,,,53,127
9901,note_off,99,0,0,,5,,,53,127
9902,note_on,1,0,0,,0,,,48,127
10001,note_off,99,0,0,,0,,,48,127
10002,note_on,1,0,0,,10,,,45,127
10098,note_off,96,0,0,,10,,,57,127
10101,note_off,3,0,0,,10,,,45,127
10102,note_on,1,0,0,,5,,,41,127
10702,note_off,600,0,0,,5,,,41,127
10903,note_on,201,0,0,,10,,,57,127
10903,note_on,0,0,0,,7,,,55,127
10903,note_on,0,0,0,,0,,,60,127
10903,note_on,0,0,0,,0,,,48,127
10903,note_on,0,0,0,,0,,,72,127
10903,note_on,0,0,0,,10,,,69,127
10903,note_on,0,0,0,,3,,,75,127
10903,note_on,0,0,0,,6,,,66,127
11102,note_off,199,0,0,,3,,,75,127
11102,note_off,0,0,0,,0,,,72,127
11102,note_off,0,0,0,,0,,,48,127
11102,note_off,0,0,0,,7,,,55,127
11103,note_on,1,0,0,,2,,,50,127
11103,note_on,0,0,0,,2,,,74,127
11302,note_off,199,0,0,,2,,,74,127
11302,note_off,0,0,0,,2,,,50,127
11303,note_on,1,0,0,,3,,,51,127
11303,note_on,0,0,0,,0,,,72,127
11502,note_off,199,0,0,,0,,,72,127
11502,note_off,0,0,0,,3,,,51,127
11502,note_off,0,0,0,,6,,,66,127
11502,note_off,0,0,0,,10,,,69,127
11502,note_off,0,0,0,,0,,,60,127
11502,note_off,0,0,0,,10,,,57,127
11503,note_on,1,0,0,,0,,,48,127
11503,note_on,0,0,0,,7,,,55,127
11503,note_on,0,0,0,,0,,,60,127
11503,note_on,0,0,0,,10,,,57,127
11503,note_on,0,0,0,,10,,,69,127
11503,note_on,0,0,0,,6,,,66,127
11503,note_on,0,0,0,,3,,,75,127
11503,note_on,0,0,0,,0,,,72,127
11702,note_off,199,0,0,,0,,,72,127
11702,note_off,0,0,0,,3,,,75,127
11702,note_off,0,0,0,,7,,,55,127
11702,note_off,0,0,0,,0,,,48,127
11703,note_on,1,0,0,,2,,,50,127
11703,note_on,0,0,0,,2,,,74,127
11902,note_off,199,0,0,,2,,,74,127
11902,note_off,0,0,0,,2,,,50,127
11903,note_on,1,0,0,,3,,,51,127
11903,note_on,0,0,0,,0,,,72,127
12102,note_off,199,0,0,,0,,,72,127
12102,note_off,0,0,0,,3,,,51,127
12102,note_off,0,0,0,,6,,,66,127
12102,note_off,0,0,0,,10,,,69,127
12102,note_off,0,0,0,,10,,,57,127
12102,note_off,0,0,0,,0,,,60,127
12103,note_on,1,0,0,,0,,,60,127
12103,note_on,0,0,0,,6,,,54,127
12103,note_on,0,0,0,,2,,,62,127
12103,note_on,0,0,0,,10,,,81,127
12103,note_on,0,0,0,,6,,,78,127
12103,note_on,0,0,0,,10,,,69,127
12103,note_on,0,0,0,,2,,,74,127
12302,note_off,199,0,0,,6,,,54,127
12303,note_on,1,0,0,,7,,,55,127
12502,note_off,199,0,0,,7,,,55,127
12503,note_on,1,0,0,,6,,,54,127
12702,note_off,199,0,0,,6,,,54,127
12702,note_off,0,0,0,,2,,,74,127
12702,note_off,0,0,0,,10,,,69,127
12702,note_off,0,0,0,,6,,,78,127
12702,note_off,0,0,0,,10,,,81,127
12702,note_off,0,0,0,,2,,,62,127
12702,note_off,0,0,0,,0,,,60,127
12703,note_on,1,0,0,,7,,,55,127
12703,note_on,0,0,0,,11,,,82,127
12803,note_on,100,0,0,,10,,,81,127
12902,note_off,99,0,0,,10,,,81,127
12903,note_on,1,0,0,,7,,,79,127
13002,note_off,99,0,0,,7,,,79,127
13003,note_on,1,0,0,,6,,,78,127
13102,note_off,99,0,0,,6,,,78,127
13103,note_on,1,0,0,,7,,,79,127
13202,note_off,99,0,0,,7,,,79,127
13203,note_on,1,0,0,,2,,,74,127
13302,note_off,99,0,0,,2,,,74,127
13302,note_off,0,0,0,,11,,,82,127
13302,note_off,0,0,0,,7,,,55,127
13303,note_on,1,0,0,,11,,,70,127
13403,note_on,100,0,0,,7,,,67,127
13502,note_off,99,0,0,,7,,,67,127
13503,note_on,1,0,0,,2,,,62,127
13602,note_off,99,0,0,,2,,,62,127
13603,note_on,1,0,0,,11,,,58,127
13702,note_off,99,0,0,,11,,,58,127
13703,note_on,1,0,0,,7,,,55,127
13802,note_off,99,0,0,,7,,,55,127
13803,note_on,1,0,0,,2,,,50,127
13902,note_off,99,0,0,,2,,,50,127
13902,note_off,0,0,0,,11,,,70,127
13903,note_on,1,0,0,,7,,,43,127
14503,note_off,600,0,0,,7,,,43,127
14504,note_on,1,0,0,,2,,,50,127
14504,note_on,0,0,0,,10,,,57,127
14504,note_on,0,0,0,,2,,,62,127
14504,note_on,0,0,0,,12,,,59,127
14504,note_on,0,0,0,,12,,,71,127
14504,note_on,0,0,0,,8,,,68,127
14504,note_on,0,0,0,,5,,,77,127
14504,note_on,0,0,0,,2,,,74,127
14703,note_off,199,0,0,,2,,,74,127
14703,note_off,0,0,0,,5,,,77,127
14703,note_off,0,0,0,,10,,,57,127
14703,note_off,0,0,0,,2,,,50,127
14704,note_on,1,0,0,,4,,,52,127
14704,note_on,0,0,0,,4,,,76,127
14903,note_off,199,0,0,,4,,,76,127
14903,note_off,0,0,0,,4,,,52,127
14904,note_on,1,0,0,,5,,,53,127
14904,note_on,0,0,0,,2,,,74,127
15103,note_off,199,0,0,,2,,,74,127
15103,note_off,0,0,0,,5,,,53,127
15103,note_off,0,0,0,,8,,,68,127
15103,note_off,0,0,0,,12,,,71,127
15103,note_off,0,0,0,,12,,,59,127
15103,note_off,0,0,0,,2,,,62,127
15104,note_on,1,0,0,,2,,,50,127
15104,note_on,0,0,0,,2,,,62,127
15104,note_on,0,0,0,,10,,,57,127
15104,note_on,0,0,0,,12,,,59,127
15104,note_on,0,0,0,,2,,,74,127
15104,note_on,0,0,0,,12,,,71,127
15104,note_on,0,0,0,,8,,,68,127
15104,note_on,0,0,0,,5,,,77,127
15303,note_off,199,0,0,,5,,,77,127
15303,note_off,0,0,0,,2,,,74,127
15303,note_off,0,0,0,,10,,,57,127
15303,note_off,0,0,0,,2,,,50,127
15304,note_on,1,0,0,,4,,,52,127
15304,note_on,0,0,0,,4,,,76,127
15503,note_off,199,0,0,,4,,,76,127
15503,note_off,0,0,0,,4,,,52,127
15504,note_on,1,0,0,,5,,,53,127
15504,note_on,0,0,0,,2,,,74,127
15703,note_off,199,0,0,,2,,,74,127
15703,note_off,0,0,0,,5,,,53,127
15703,note_off,0,0,0,,8,,,68,127
15703,note_off,0,0,0,,12,,,71,127
15703,note_off,0,0,0,,12,,,59,127
15703,note_off,0,0,0,,2,,,62,127
15704,note_on,1,0,0,,8,,,56,127
15704,note_on,0,0,0,,2,,,62,127
15704,note_on,0,0,0,,4,,,64,127
15704,note_on,0,0,0,,8,,,80,127
15704,note_on,0,0,0,,2,,,74,127
15704,note_on,0,0,0,,2,,,86,127
15704,note_on,0,0,0,,12,,,83,127
15903,note_off,199,0,0,,8,,,56,127
15904,note_on,1,0,0,,10,,,57,127
16103,note_off,199,0,0,,10,,,57,127
16104,note_on,1,0,0,,8,,,56,127
16303,note_off,199,0,0,,8,,,56,127
16303,note_off,0,0,0,,12,,,83,127
16303,note_off,0,0,0,,2,,,86,127
16303,note_off,0,0,0,,2,,,74,127
16303,note_off,0,0,0,,8,,,80,127
16303,note_off,0,0,0,,4,,,64,127
16303,note_off,0,0,0,,2,,,62,127
16304,note_on,1,0,0,,10,,,57,127
16304,note_on,0,0,0,,1,,,85,127
16404,note_on,100,0,0,,12,,,83,127
16503,note_off,99,0,0,,12,,,83,127
16504,note_on,1,0,0,,10,,,81,127
16603,note_off,99,0,0,,10,,,81,127
16604,note_on,1,0,0,,8,,,80,127
16703,note_off,99,0,0,,8,,,80,127
16704,note_on,1,0,0,,10,,,81,127
16803,note_off,99,0,0,,10,,,81,127
16804,note_on,1,0,0,,4,,,76,127
16903,note_off,99,0,0,,4,,,76,127
16903,note_off,0,0,0,,1,,,85,127
16903,note_off,0,0,0,,10,,,57,127
16904,note_on,1,0,0,,1,,,73,127
17004,note_on,100,0,0,,10,,,69,127
17104,note_on,100,0,0,,4,,,64,127
17137,note_off,33,0,0,,10,,,69,127
17204,note_on,67,0,0,,1,,,61,127
17237,note_off,33,0,0,,4,,,64,127
17304,note_on,67,0,0,,10,,,57,127
17337,note_off,33,0,0,,1,,,61,127
17404,note_on,67,0,0,,4,,,52,127
17437,note_off,33,0,0,,10,,,57,127
17503,note_off,66,0,0,,1,,,73,127
17504,note_on,1,0,0,,10,,,45,127
17537,note_off,33,0,0,,4,,,52,127
17604,note_on,67,0,0,,10,,,69,127
17704,note_on,100,0,0,,11,,,70,127
17737,note_off,33,0,0,,10,,,69,127
17804,note_on,67,0,0,,10,,,69,127
17837,note_off,33,0,0,,11,,,70,127
17903,note_off,66,0,0,,10,,,45,127
17904,note_on,1,0,0,,10,,,57,127
17904,note_on,0,0,0,,7,,,67,127
17904,note_on,0,0,0,,1,,,73,127
17937,note_off,33,0,0,,10,,,69,127
18004,note_on,67,0,0,,10,,,69,127
18037,note_off,33,0,0,,1,,,73,127
18103,note_off,66,0,0,,7,,,67,127
18103,note_off,0,0,0,,10,,,57,127
18104,note_on,1,0,0,,5,,,65,127
18104,note_on,0,0,0,,10,,,57,127
18104,note_on,0,0,0,,2,,,74,127
18137,note_off,33,0,0,,10,,,69,127
18204,note_on,67,0,0,,10,,,69,127
18237,note_off,33,0,0,,2,,,74,127
18303,note_off,66,0,0,,5,,,65,127
18304,note_on,1,0,0,,4,,,64,127
18304,note_on,0,0,0,,4,,,76,127
18337,note_off,33,0,0,,10,,,69,127
18404,note_on,67,0,0,,10,,,69,127
18437,note_off,33,0,0,,4,,,76,127
18503,note_off,66,0,0,,4,,,64,127
18504,note_on,1,0,0,,2,,,62,127
18504,note_on,0,0,0,,5,,,77,127
18537,note_off,33,0,0,,10,,,69,127
18604,note_on,67,0,0,,10,,,69,127
18637,note_off,33,0,0,,5,,,77,127
18703,note_off,66,0,0,,2,,,62,127
18703,note_off,0,0,0,,10,,,57,127
18704,note_on,1,0,0,,10,,,57,127
18704,note_on,0,0,0,,4,,,76,127
18737,note_off,33,0,0,,10,,,69,127
18804,note_on,67,0,0,,10,,,69,127
18837,note_off,33,0,0,,4,,,76,127
18904,note_on,67,0,0,,11,,,70,127
18937,note_off,33,0,0,,10,,,69,127
19004,note_on,67,0,0,,10,,,69,127
19037,note_off,33,0,0,,11,,,70,127
19104,note_on,67,0,0,,7,,,67,127
19104,note_on,0,0,0,,1,,,73,127
19137,note_off,33,0,0,,10,,,69,127
19204,note_on,67,0,0,,10,,,69,127
19237,note_off,33,0,0,,1,,,73,127
19303,note_off,66,0,0,,7,,,67,127
19303,note_off,0,0,0,,10,,,57,127
19304,note_on,1,0,0,,5,,,65,127
19304,note_on,0,0,0,,10,,,57,127
19304,note_on,0,0,0,,2,,,74,127
19337,note_off,33,0,0,,10,,,69,127
19404,note_on,67,0,0,,10,,,69,127
19437,note_off,33,0,0,,2,,,74,127
19503,note_off,66,0,0,,5,,,65,127
19504,note_on,1,0,0,,4,,,64,127
19504,note_on,0,0,0,,4,,,76,127
19537,note_off,33,0,0,,10,,,69,127
19604,note_on,67,0,0,,10,,,69,127
19637,note_off,33,0,0,,4,,,76,127
19703,note_off,66,0,0,,4,,,64,127
19704,note_on,1,0,0,,2,,,62,127
19704,note_on,0,0,0,,5,,,77,127
19737,note_off,33,0,0,,10,,,69,127
19804,note_on,67,0,0,,10,,,69,127
19837,note_off,33,0,0,,5,,,77,127
19903,note_off,66,0,0,,2,,,62,127
19903,note_off,0,0,0,,10,,,57,127
19904,note_on,1,0,0,,1,,,61,127
19904,note_on,0,0,0,,10,,,57,127
19904,note_on,0,0,0,,4,,,76,127
19937,note_off,33,0,0,,10,,,69,127
20004,note_on,67,0,0,,10,,,69,127
20037,note_off,33,0,0,,4,,,76,127
20103,note_off,66,0,0,,1,,,61,127
20104,note_on,1,0,0,,2,,,62,127
20104,note_on,0,0,0,,5,,,77,127
20137,note_off,33,0,0,,10,,,69,127
20204,note_on,67,0,0,,10,,,69,127
20237,note_off,33,0,0,,5,,,77,127
20303,note_off,66,0,0,,2,,,62,127
20304,note_on,1,0,0,,4,,,64,127
20304,note_on,0,0,0,,7,,,79,127
20337,note_off,33,0,0,,10,,,69,127
20404,note_on,67,0,0,,10,,,69,127
20437,note_off,33,0,0,,7,,,79,127
20503,note_off,66,0,0,,4,,,64,127
20503,note_off,0,0,0,,10,,,57,127
20504,note_on,1,0,0,,10,,,57,127
20504,note_on,0,0,0,,2,,,62,127
20504,note_on,0,0,0,,5,,,77,127
20537,note_off,33,0,0,,10,,,69,127
20604,note_on,67,0,0,,10,,,69,127
20619,note_off,15,0,0,,5,,,77,127
20704,note_off,85,0,0,,2,,,62,127
20705,note_on,1,0,0,,0,,,60,127
20705,note_on,0,0,0,,4,,,76,127
20720,note_off,15,0,0,,10,,,69,127
20806,note_on,86,0,0,,10,,,69,127
20821,note_off,15,0,0,,4,,,76,127
20906,note_off,85,0,0,,0,,,60,127
20906,note_off,0,0,0,,10,,,57,127
20907,note_on,1,0,0,,11,,,58,127
20907,note_on,0,0,0,,2,,,74,127
20922,note_off,15,0,0,,10,,,69,127
21008,note_on,86,0,0,,10,,,69,127
21023,note_off,15,0,0,,2,,,74,127
21108,note_off,85,0,0,,11,,,58,127
21109,note_on,1,0,0,,10,,,81,127
21124,note_off,15,0,0,,10,,,69,127
21210,note_on,86,0,0,,10,,,57,127
21310,note_on,100,0,0,,11,,,58,127
21325,note_off,15,0,0,,10,,,57,127
21411,note_on,86,0,0,,10,,,57,127
21426,note_off,15,0,0,,11,,,58,127
21511,note_off,85,0,0,,10,,,81,127
21512,note_on,1,0,0,,1,,,61,127
21512,note_on,0,0,0,,7,,,79,127
21527,note_off,15,0,0,,10,,,57,127
21613,note_on,86,0,0,,10,,,57,127
21628,note_off,15,0,0,,1,,,61,127
21713,note_off,85,0,0,,7,,,79,127
21714,note_on,1,0,0,,2,,,62,127
21714,note_on,0,0,0,,5,,,77,127
21729,note_off,15,0,0,,10,,,57,127
21815,note_on,86,0,0,,10,,,57,127
21830,note_off,15,0,0,,2,,,62,127
21915,note_off,85,0,0,,5,,,77,127
21916,note_on,1,0,0,,4,,,64,127
21916,note_on,0,0,0,,4,,,76,127
21931,note_off,15,0,0,,10,,,57,127
22017,note_on,86,0,0,,10,,,57,127
22032,note_off,15,0,0,,4,,,64,127
22117,note_off,85,0,0,,4,,,76,127
22118,note_on,1,0,0,,5,,,65,127
22118,note_on,0,0,0,,2,,,74,127
22133,note_off,15,0,0,,10,,,57,127
22219,note_on,86,0,0,,10,,,57,127
22234,note_off,15,0,0,,5,,,65,127
22319,note_off,85,0,0,,2,,,74,127
22320,note_on,1,0,0,,4,,,64,127
22320,note_on,0,0,0,,1,,,73,127
22335,note_off,15,0,0,,10,,,57,127
22421,note_on,86,0,0,,10,,,57,127
22436,note_off,15,0,0,,4,,,64,127
22521,note_off,85,0,0,,1,,,73,127
22522,note_on,1,0,0,,11,,,58,127
22522,note_on,0,0,0,,10,,,81,127
22537,note_off,15,0,0,,10,,,57,127
22623,note_on,86,0,0,,10,,,57,127
22638,note_off,15,0,0,,11,,,58,127
22723,note_off,85,0,0,,10,,,81,127
22724,note_on,1,0,0,,1,,,61,127
22724,note_on,0,0,0,,7,,,79,127
22739,note_off,15,0,0,,10,,,57,127
22825,note_on,86,0,0,,10,,,57,127
22840,note_off,15,0,0,,1,,,61,127
22925,note_off,85,0,0,,7,,,79,127
22926,note_on,1,0,0,,2,,,62,127
22926,note_on,0,0,0,,5,,,77,127
22941,note_off,15,0,0,,10,,,57,127
23027,note_on,86,0,0,,10,,,57,127
23042,note_off,15,0,0,,2,,,62,127
23127,note_off,85,0,0,,5,,,77,127
23128,note_on,1,0,0,,4,,,64,127
23128,note_on,0,0,0,,4,,,76,127
23143,note_off,15,0,0,,10,,,57,127
23229,note_on,86,0,0,,10,,,57,127
23244,note_off,15,0,0,,4,,,64,127
23329,note_off,85,0,0,,4,,,76,127
23330,note_on,1,0,0,,5,,,65,127
23330,note_on,0,0,0,,2,,,74,127
23345,note_off,15,0,0,,10,,,57,127
23431,note_on,86,0,0,,10,,,57,127
23446,note_off,15,0,0,,5,,,65,127
23531,note_off,85,0,0,,2,,,74,127
23532,note_on,1,0,0,,4,,,64,127
23532,note_on,0,0,0,,1,,,73,127
23547,note_off,15,0,0,,10,,,57,127
23633,note_on,86,0,0,,10,,,57,127
23648,note_off,15,0,0,,4,,,64,127
23733,note_off,85,0,0,,1,,,73,127
23734,note_on,1,0,0,,5,,,65,127
23734,note_on,0,0,0,,2,,,74,127
23749,note_off,15,0,0,,10,,,57,127
23835,note_on,86,0,0,,10,,,57,127
23850,note_off,15,0,0,,5,,,65,127
23935,note_off,85,0,0,,2,,,74,127
23936,note_on,1,0,0,,7,,,67,127
23936,note_on,0,0,0,,4,,,76,127
23951,note_off,15,0,0,,10,,,57,127
24037,note_on,86,0,0,,10,,,57,127
24052,note_off,15,0,0,,7,,,67,127
24137,note_off,85,0,0,,4,,,76,127
24138,note_on,1,0,0,,5,,,65,127
24138,note_on,0,0,0,,2,,,74,127
24153,note_off,15,0,0,,10,,,57,127
24238,note_off,85,0,0,,5,,,65,127
24239,note_on,1,0,0,,10,,,57,127
24338,note_off,99,0,0,,10,,,57,127
24338,note_off,0,0,0,,2,,,74,127
24339,note_on,1,0,0,,4,,,64,127
24339,note_on,0,0,0,,4,,,76,127
24438,note_off,99,0,0,,4,,,64,127
24439,note_on,1,0,0,,10,,,57,127
24538,note_off,99,0,0,,10,,,57,127
24538,note_off,0,0,0,,4,,,76,127
24539,note_on,1,0,0,,2,,,62,127
24539,note_on,0,0,0,,5,,,77,127
24638,note_off,99,0,0,,2,,,62,127
24639,note_on,1,0,0,,10,,,57,127
24738,note_off,99,0,0,,10,,,57,127
24738,note_off,0,0,0,,5,,,77,127
24739,note_on,1,0,0,,1,,,61,127
24739,note_on,0,0,0,,4,,,76,127
24838,note_off,99,0,0,,4,,,76,127
24839,note_on,1,0,0,,10,,,69,127
24938,note_off,99,0,0,,10,,,69,127
24939,note_on,1,0,0,,10,,,81,127
25038,note_off,99,0,0,,10,,,81,127
25039,note_on,1,0,0,,7,,,79,127
25138,note_off,99,0,0,,7,,,79,127
25138,note_off,0,0,0,,1,,,61,127
25139,note_on,1,0,0,,10,,,57,127
25139,note_on,0,0,0,,5,,,77,127
25238,note_off,99,0,0,,5,,,77,127
25239,note_on,1,0,0,,4,,,76,127
25338,note_off,99,0,0,,4,,,76,127
25338,note_off,0,0,0,,10,,,57,127
25339,note_on,1,0,0,,2,,,62,127
25339,note_on,0,0,0,,5,,,77,127
25438,note_off,99,0,0,,5,,,77,127
25439,note_on,1,0,0,,2,,,74,127
25538,note_off,99,0,0,,2,,,74,127
25539,note_on,1,0,0,,11,,,58,127
25539,note_on,0,0,0,,7,,,79,127
25638,note_off,99,0,0,,7,,,79,127
25639,note_on,1,0,0,,5,,,77,127
25738,note_off,99,0,0,,5,,,77,127
25738,note_off,0,0,0,,11,,,58,127
25739,note_on,1,0,0,,7,,,55,127
25739,note_on,0,0,0,,4,,,76,127
25838,note_off,99,0,0,,4,,,76,127
25839,note_on,1,0,0,,2,,,74,127
25938,note_off,99,0,0,,2,,,74,127
25938,note_off,0,0,0,,7,,,55,127
25939,note_on,1,0,0,,10,,,57,127
25939,note_on,0,0,0,,4,,,76,127
26038,note_off,99,0,0,,4,,,76,127
26039,note_on,1,0,0,,10,,,69,127
26138,note_off,99,0,0,,10,,,69,127
26139,note_on,1,0,0,,10,,,81,127
26238,note_off,99,0,0,,10,,,81,127
26239,note_on,1,0,0,,7,,,79,127
26338,note_off,99,0,0,,7,,,79,127
26338,note_off,0,0,0,,2,,,62,127
26339,note_on,1,0,0,,1,,,61,127
26339,note_on,0,0,0,,5,,,77,127
26438,note_off,99,0,0,,5,,,77,127
26439,note_on,1,0,0,,4,,,76,127
26538,note_off,99,0,0,,4,,,76,127
26538,note_off,0,0,0,,1,,,61,127
26538,note_off,0,0,0,,10,,,57,127
26539,note_on,1,0,0,,2,,,62,127
26539,note_on,0,0,0,,5,,,77,127
26638,note_off,99,0,0,,5,,,77,127
26639,note_on,1,0,0,,2,,,74,127
26738,note_off,99,0,0,,2,,,74,127
26739,note_on,1,0,0,,11,,,58,127
26739,note_on,0,0,0,,7,,,79,127
26838,note_off,99,0,0,,7,,,79,127
26839,note_on,1,0,0,,5,,,77,127
26938,note_off,99,0,0,,5,,,77,127
26938,note_off,0,0,0,,11,,,58,127
26939,note_on,1,0,0,,7,,,55,127
26939,note_on,0,0,0,,4,,,76,127
27038,note_off,99,0,0,,4,,,76,127
27039,note_on,1,0,0,,2,,,74,127
27138,note_off,99,0,0,,2,,,74,127
27138,note_off,0,0,0,,7,,,55,127
27138,note_off,0,0,0,,2,,,62,127
27139,note_on,1,0,0,,10,,,57,127
27139,note_on,0,0,0,,4,,,76,127
27238,note_off,99,0,0,,10,,,57,127
27239,note_on,1,0,0,,4,,,64,127
27338,note_off,99,0,0,,4,,,64,127
27338,note_off,0,0,0,,4,,,76,127
27339,note_on,1,0,0,,10,,,69,127
27339,note_on,0,0,0,,1,,,73,127
27438,note_off,99,0,0,,10,,,69,127
27439,note_on,1,0,0,,7,,,67,127
27538,note_off,99,0,0,,7,,,67,127
27539,note_on,1,0,0,,5,,,65,127
27638,note_off,99,0,0,,5,,,65,127
27639,note_on,1,0,0,,4,,,64,127
27738,note_off,99,0,0,,4,,,64,127
27738,note_off,0,0,0,,1,,,73,127
27739,note_on,1,0,0,,5,,,65,127
27739,note_on,0,0,0,,2,,,74,127
27838,note_off,99,0,0,,5,,,65,127
27839,note_on,1,0,0,,2,,,62,127
27938,note_off,99,0,0,,2,,,62,127
27938,note_off,0,0,0,,2,,,74,127
27939,note_on,1,0,0,,7,,,67,127
27939,note_on,0,0,0,,11,,,70,127
28038,note_off,99,0,0,,7,,,67,127
28039,note_on,1,0,0,,5,,,65,127
28138,note_off,99,0,0,,5,,,65,127
28138,note_off,0,0,0,,11,,,70,127
28139,note_on,1,0,0,,4,,,64,127
28139,note_on,0,0,0,,2,,,74,127
28238,note_off,99,0,0,,4,,,64,127
28239,note_on,1,0,0,,2,,,62,127
28338,note_off,99,0,0,,2,,,62,127
28338,note_off,0,0,0,,2,,,74,127
28339,note_on,1,0,0,,4,,,64,127
28339,note_on,0,0,0,,4,,,76,127
28339,note_on,0,0,0,,2,,,74,127
28438,note_off,99,0,0,,4,,,64,127
28439,note_on,1,0,0,,10,,,57,127
28538,note_off,99,0,0,,10,,,57,127
28538,note_off,0,0,0,,2,,,74,127
28539,note_on,1,0,0,,10,,,69,127
28539,note_on,0,0,0,,1,,,73,127
28638,note_off,99,0,0,,10,,,69,127
28639,note_on,1,0,0,,7,,,67,127
28738,note_off,99,0,0,,7,,,67,127
28739,note_on,1,0,0,,5,,,65,127
28838,note_off,99,0,0,,5,,,65,127
28839,note_on,1,0,0,,4,,,64,127
28938,note_off,99,0,0,,4,,,64,127
28938,note_off,0,0,0,,1,,,73,127
28938,note_off,0,0,0,,4,,,76,127
28939,note_on,1,0,0,,5,,,65,127
28939,note_on,0,0,0,,2,,,74,127
29038,note_off,99,0,0,,5,,,65,127
29039,note_on,1,0,0,,2,,,62,127
29138,note_off,99,0,0,,2,,,62,127
29138,note_off,0,0,0,,2,,,74,127
29139,note_on,1,0,0,,7,,,67,127
29139,note_on,0,0,0,,11,,,70,127
29238,note_off,99,0,0,,7,,,67,127
29239,note_on,1,0,0,,5,,,65,127
29338,note_off,99,0,0,,5,,,65,127
29338,note_off,0,0,0,,11,,,70,127
29339,note_on,1,0,0,,4,,,64,127
29339,note_on,0,0,0,,2,,,74,127
29438,note_off,99,0,0,,4,,,64,127
29439,note_on,1,0,0,,2,,,62,127
29538,note_off,99,0,0,,2,,,62,127
29538,note_off,0,0,0,,2,,,74,127
29539,note_on,1,0,0,,4,,,64,127
29539,note_on,0,0,0,,2,,,74,127
29539,note_on,0,0,0,,4,,,76,127
29638,note_off,99,0,0,,4,,,64,127
29639,note_on,1,0,0,,10,,,57,127
29738,note_off,99,0,0,,10,,,57,127
29738,note_off,0,0,0,,2,,,74,127
29739,note_on,1,0,0,,10,,,69,127
29739,note_on,0,0,0,,1,,,73,127
29838,note_off,99,0,0,,10,,,69,127
29839,note_on,1,0,0,,7,,,67,127
29938,note_off,99,0,0,,7,,,67,127
29938,note_off,0,0,0,,1,,,73,127
29938,note_off,0,0,0,,4,,,76,127
29939,note_on,1,0,0,,5,,,65,127
29939,note_on,0,0,0,,4,,,76,127
30038,note_off,99,0,0,,5,,,65,127
30039,note_on,1,0,0,,4,,,64,127
30138,note_off,99,0,0,,4,,,64,127
30138,note_off,0,0,0,,4,,,76,127
30139,note_on,1,0,0,,2,,,62,127
30139,note_on,0,0,0,,5,,,77,127
30238,note_off,99,0,0,,2,,,62,127
30239,note_on,1,0,0,,0,,,60,127
30338,note_off,99,0,0,,0,,,60,127
30338,note_off,0,0,0,,5,,,77,127
30339,note_on,1,0,0,,11,,,58,127
30339,note_on,0,0,0,,6,,,78,127
30438,note_off,99,0,0,,11,,,58,127
30439,note_on,1,0,0,,10,,,57,127
30538,note_off,99,0,0,,10,,,57,127
30538,note_off,0,0,0,,6,,,78,127
30539,note_on,1,0,0,,7,,,55,127
30539,note_on,0,0,0,,7,,,79,127
30638,note_off,99,0,0,,7,,,55,127
30639,note_on,1,0,0,,5,,,53,127
30738,note_off,99,0,0,,5,,,53,127
30738,note_off,0,0,0,,7,,,79,127
30739,note_on,1,0,0,,4,,,52,127
30739,note_on,0,0,0,,8,,,80,127
30838,note_off,99,0,0,,4,,,52,127
30839,note_on,1,0,0,,2,,,50,127
30938,note_off,99,0,0,,2,,,50,127
30938,note_off,0,0,0,,8,,,80,127
30939,note_on,1,0,0,,1,,,49,127
30939,note_on,0,0,0,,10,,,81,127
31038,note_off,99,0,0,,1,,,49,127
31039,note_on,1,0,0,,12,,,47,127
31138,note_off,99,0,0,,12,,,47,127
31138,note_off,0,0,0,,10,,,81,127
31139,note_on,1,0,0,,10,,,45,127
31139,note_on,0,0,0,,1,,,85,127
31238,note_off,99,0,0,,10,,,45,127
31239,note_on,1,0,0,,7,,,43,127
31338,note_off,99,0,0,,7,,,43,127
31338,note_off,0,0,0,,1,,,85,127
31339,note_on,1,0,0,,5,,,41,127
31339,note_on,0,0,0,,2,,,86,127
31438,note_off,99,0,0,,2,,,86,127
31439,note_on,1,0,0,,0,,,84,127
31538,note_off,99,0,0,,0,,,84,127
31539,note_on,1,0,0,,11,,,82,127
31638,note_off,99,0,0,,11,,,82,127
31639,note_on,1,0,0,,10,,,81,127
31738,note_off,99,0,0,,10,,,81,127
31738,note_off,0,0,0,,5,,,41,127
31739,note_on,1,0,0,,5,,,53,127
31739,note_on,0,0,0,,7,,,79,127
31838,note_off,99,0,0,,7,,,79,127
31839,note_on,1,0,0,,5,,,77,127
31938,note_off,99,0,0,,5,,,77,127
31938,note_off,0,0,0,,5,,,53,127
31939,note_on,1,0,0,,7,,,55,127
31939,note_on,0,0,0,,4,,,76,127
32005,note_off,66,0,0,,4,,,76,127
32006,note_on,1,0,0,,5,,,77,127
32072,note_off,66,0,0,,5,,,77,127
32073,note_on,1,0,0,,7,,,79,127
32139,note_off,66,0,0,,7,,,79,127
32139,note_off,0,0,0,,7,,,55,127
32140,note_on,1,0,0,,10,,,57,127
32140,note_on,0,0,0,,5,,,77,127
32239,note_off,99,0,0,,5,,,77,127
32240,note_on,1,0,0,,4,,,76,127
32339,note_off,99,0,0,,4,,,76,127
32340,note_on,1,0,0,,10,,,45,127
32340,note_on,0,0,0,,2,,,74,127
32439,note_off,99,0,0,,2,,,74,127
32440,note_on,1,0,0,,1,,,73,127
32539,note_off,99,0,0,,1,,,73,127
32539,note_off,0,0,0,,10,,,45,127
32539,note_off,0,0,0,,10,,,57,127
32540,note_on,1,0,0,,2,,,62,127
32540,note_on,0,0,0,,2,,,74,127
32639,note_off,99,0,0,,2,,,74,127
32640,note_on,1,0,0,,5,,,77,127
32739,note_off,99,0,0,,5,,,77,127
32740,note_on,1,0,0,,11,,,58,127
32740,note_on,0,0,0,,7,,,79,127
32839,note_off,99,0,0,,7,,,79,127
32840,note_on,1,0,0,,5,,,77,127
32939,note_off,99,0,0,,5,,,77,127
32939,note_off,0,0,0,,11,,,58,127
32940,note_on,1,0,0,,7,,,55,127
32940,note_on,0,0,0,,4,,,76,127
33039,note_off,99,0,0,,4,,,76,127
33040,note_on,1,0,0,,2,,,74,127
33139,note_off,99,0,0,,2,,,74,127
33139,note_off,0,0,0,,7,,,55,127
33140,note_on,1,0,0,,10,,,57,127
33140,note_on,0,0,0,,4,,,76,127
33239,note_off,99,0,0,,4,,,76,127
33240,note_on,1,0,0,,10,,,69,127
33339,note_off,99,0,0,,10,,,69,127
33340,note_on,1,0,0,,10,,,81,127
33439,note_off,99,0,0,,10,,,81,127
33440,note_on,1,0,0,,7,,,79,127
33539,note_off,99,0,0,,7,,,79,127
33539,note_off,0,0,0,,2,,,62,127
33540,note_on,1,0,0,,1,,,61,127
33540,note_on,0,0,0,,5,,,77,127
33639,note_off,99,0,0,,5,,,77,127
33640,note_on,1,0,0,,4,,,76,127
33739,note_off,99,0,0,,4,,,76,127
33739,note_off,0,0,0,,1,,,61,127
33739,note_off,0,0,0,,10,,,57,127
33740,note_on,1,0,0,,2,,,62,127
33740,note_on,0,0,0,,5,,,77,127
33839,note_off,99,0,0,,5,,,77,127
33840,note_on,1,0,0,,2,,,74,127
33939,note_off,99,0,0,,2,,,74,127
33940,note_on,1,0,0,,11,,,58,127
33940,note_on,0,0,0,,7,,,79,127
34039,note_off,99,0,0,,7,,,79,127
34040,note_on,1,0,0,,5,,,77,127
34139,note_off,99,0,0,,5,,,77,127
34139,note_off,0,0,0,,11,,,58,127
34140,note_on,1,0,0,,7,,,55,127
34140,note_on,0,0,0,,4,,,76,127
34239,note_off,99,0,0,,4,,,76,127
34240,note_on,1,0,0,,2,,,74,127
34339,note_off,99,0,0,,2,,,74,127
34339,note_off,0,0,0,,7,,,55,127
34340,note_on,1,0,0,,10,,,57,127
34340,note_on,0,0,0,,4,,,76,127
34439,note_off,99,0,0,,4,,,76,127
34440,note_on,1,0,0,,10,,,69,127
34539,note_off,99,0,0,,10,,,69,127
34540,note_on,1,0,0,,10,,,81,127
34639,note_off,99,0,0,,10,,,81,127
34640,note_on,1,0,0,,7,,,79,127
34739,note_off,99,0,0,,7,,,79,127
34739,note_off,0,0,0,,2,,,62,127
34740,note_on,1,0,0,,1,,,61,127
34740,note_on,0,0,0,,5,,,77,127
34839,note_off,99,0,0,,5,,,77,127
34840,note_on,1,0,0,,4,,,76,127
34939,note_off,99,0,0,,4,,,76,127
34939,note_off,0,0,0,,1,,,61,127
34939,note_off,0,0,0,,10,,,57,127
34940,note_on,1,0,0,,2,,,62,127
34940,note_on,0,0,0,,5,,,77,127
35039,note_off,99,0,0,,5,,,77,127
35040,note_on,1,0,0,,2,,,74,127
35139,note_off,99,0,0,,2,,,74,127
35140,note_on,1,0,0,,11,,,58,127
35140,note_on,0,0,0,,7,,,79,127
35239,note_off,99,0,0,,7,,,79,127
35240,note_on,1,0,0,,5,,,77,127
35339,note_off,99,0,0,,5,,,77,127
35339,note_off,0,0,0,,11,,,58,127
35340,note_on,1,0,0,,7,,,55,127
35340,note_on,0,0,0,,4,,,76,127
35439,note_off,99,0,0,,4,,,76,127
35440,note_on,1,0,0,,2,,,74,127
35539,note_off,99,0,0,,2,,,74,127
35539,note_off,0,0,0,,7,,,55,127
35539,note_off,0,0,0,,2,,,62,127
35540,note_on,1,0,0,,10,,,57,127
35540,note_on,0,0,0,,4,,,76,127
35639,note_off,99,0,0,,10,,,57,127
35640,note_on,1,0,0,,4,,,64,127
35739,note_off,99,0,0,,4,,,64,127
35739,note_off,0,0,0,,4,,,76,127
35740,note_on,1,0,0,,10,,,69,127
35740,note_on,0,0,0,,1,,,73,127
35839,note_off,99,0,0,,10,,,69,127
35840,note_on,1,0,0,,7,,,67,127
35939,note_off,99,0,0,,7,,,67,127
35940,note_on,1,0,0,,5,,,65,127
36039,note_off,99,0,0,,5,,,65,127
36040,note_on,1,0,0,,4,,,64,127
36139,note_off,99,0,0,,4,,,64,127
36139,note_off,0,0,0,,1,,,73,127
36140,note_on,1,0,0,,5,,,65,127
36140,note_on,0,0,0,,2,,,74,127
36239,note_off,99,0,0,,5,,,65,127
36240,note_on,1,0,0,,2,,,62,127
36339,note_off,99,0,0,,2,,,62,127
36339,note_off,0,0,0,,2,,,74,127
36340,note_on,1,0,0,,7,,,67,127
36340,note_on,0,0,0,,11,,,70,127
36439,note_off,99,0,0,,7,,,67,127
36440,note_on,1,0,0,,5,,,65,127
36539,note_off,99,0,0,,5,,,65,127
36539,note_off,0,0,0,,11,,,70,127
36540,note_on,1,0,0,,4,,,64,127
36540,note_on,0,0,0,,2,,,74,127
36639,note_off,99,0,0,,4,,,64,127
36640,note_on,1,0,0,,2,,,62,127
36739,note_off,99,0,0,,2,,,62,127
36739,note_off,0,0,0,,2,,,74,127
36740,note_on,1,0,0,,4,,,64,127
36740,note_on,0,0,0,,4,,,76,127
36740,note_on,0,0,0,,2,,,74,127
36839,note_off,99,0,0,,4,,,64,127
36840,note_on,1,0,0,,10,,,57,127
36939,note_off,99,0,0,,10,,,57,127
36939,note_off,0,0,0,,2,,,74,127
36940,note_on,1,0,0,,10,,,69,127
36940,note_on,0,0,0,,1,,,73,127
37039,note_off,99,0,0,,10,,,69,127
37040,note_on,1,0,0,,7,,,67,127
37139,note_off,99,0,0,,7,,,67,127
37140,note_on,1,0,0,,5,,,65,127
37239,note_off,99,0,0,,5,,,65,127
37240,note_on,1,0,0,,4,,,64,127
37339,note_off,99,0,0,,4,,,64,127
37339,note_off,0,0,0,,1,,,73,127
37339,note_off,0,0,0,,4,,,76,127
37340,note_on,1,0,0,,5,,,65,127
37340,note_on,0,0,0,,2,,,74,127
37439,note_off,99,0,0,,5,,,65,127
37440,note_on,1,0,0,,2,,,62,127
37539,note_off,99,0,0,,2,,,62,127
37539,note_off,0,0,0,,2,,,74,127
37540,note_on,1,0,0,,7,,,67,127
37540,note_on,0,0,0,,11,,,70,127
37639,note_off,99,0,0,,7,,,67,127
37640,note_on,1,0,0,,5,,,65,127
37739,note_off,99,0,0,,5,,,65,127
37739,note_off,0,0,0,,11,,,70,127
37740,note_on,1,0,0,,4,,,64,127
37740,note_on,0,0,0,,2,,,74,127
37839,note_off,99,0,0,,4,,,64,127
37840,note_on,1,0,0,,2,,,62,127
37939,note_off,99,0,0,,2,,,62,127
37939,note_off,0,0,0,,2,,,74,127
37940,note_on,1,0,0,,4,,,64,127
37940,note_on,0,0,0,,2,,,74,127
37940,note_on,0,0,0,,4,,,76,127
38039,note_off,99,0,0,,4,,,64,127
38040,note_on,1,0,0,,10,,,57,127
38139,note_off,99,0,0,,10,,,57,127
38139,note_off,0,0,0,,2,,,74,127
38140,note_on,1,0,0,,10,,,69,127
38140,note_on,0,0,0,,1,,,73,127
38239,note_off,99,0,0,,10,,,69,127
38240,note_on,1,0,0,,7,,,67,127
38339,note_off,99,0,0,,7,,,67,127
38339,note_off,0,0,0,,1,,,73,127
38339,note_off,0,0,0,,4,,,76,127
38340,note_on,1,0,0,,5,,,65,127
38340,note_on,0,0,0,,4,,,76,127
38439,note_off,99,0,0,,5,,,65,127
38440,note_on,1,0,0,,4,,,64,127
38539,note_off,99,0,0,,4,,,64,127
38539,note_off,0,0,0,,4,,,76,127
38540,note_on,1,0,0,,2,,,62,127
38540,note_on,0,0,0,,5,,,77,127
38639,note_off,99,0,0,,2,,,62,127
38640,note_on,1,0,0,,0,,,60,127
38739,note_off,99,0,0,,0,,,60,127
38739,note_off,0,0,0,,5,,,77,127
38740,note_on,1,0,0,,11,,,58,127
38740,note_on,0,0,0,,6,,,78,127
38839,note_off,99,0,0,,11,,,58,127
38840,note_on,1,0,0,,10,,,57,127
38939,note_off,99,0,0,,10,,,57,127
38939,note_off,0,0,0,,6,,,78,127
38940,note_on,1,0,0,,7,,,55,127
38940,note_on,0,0,0,,7,,,79,127
39039,note_off,99,0,0,,7,,,55,127
39040,note_on,1,0,0,,5,,,53,127
39139,note_off,99,0,0,,5,,,53,127
39139,note_off,0,0,0,,7,,,79,127
39140,note_on,1,0,0,,4,,,52,127
39140,note_on,0,0,0,,8,,,80,127
39239,note_off,99,0,0,,4,,,52,127
39240,note_on,1,0,0,,2,,,50,127
39339,note_off,99,0,0,,2,,,50,127
39339,note_off,0,0,0,,8,,,80,127
39340,note_on,1,0,0,,1,,,49,127
39340,note_on,0,0,0,,10,,,81,127
39439,note_off,99,0,0,,1,,,49,127
39440,note_on,1,0,0,,12,,,47,127
39539,note_off,99,0,0,,12,,,47,127
39539,note_off,0,0,0,,10,,,81,127
39540,note_on,1,0,0,,10,,,45,127
39540,note_on,0,0,0,,1,,,85,127
39639,note_off,99,0,0,,10,,,45,127
39640,note_on,1,0,0,,7,,,43,127
39739,note_off,99,0,0,,7,,,43,127
39739,note_off,0,0,0,,1,,,85,127
39740,note_on,1,0,0,,5,,,41,127
39740,note_on,0,0,0,,2,,,86,127
39839,note_off,99,0,0,,2,,,86,127
39840,note_on,1,0,0,,0,,,84,127
39939,note_off,99,0,0,,0,,,84,127
39940,note_on,1,0,0,,11,,,82,127
40039,note_off,99,0,0,,11,,,82,127
40040,note_on,1,0,0,,10,,,81,127
40139,note_off,99,0,0,,10,,,81,127
40139,note_off,0,0,0,,5,,,41,127
40140,note_on,1,0,0,,5,,,53,127
40140,note_on,0,0,0,,7,,,79,127
40239,note_off,99,0,0,,7,,,79,127
40240,note_on,1,0,0,,5,,,77,127
40339,note_off,99,0,0,,5,,,77,127
40339,note_off,0,0,0,,5,,,53,127
40340,note_on,1,0,0,,7,,,55,127
40340,note_on,0,0,0,,4,,,76,127
40406,note_off,66,0,0,,4,,,76,127
40407,note_on,1,0,0,,5,,,77,127
40473,note_off,66,0,0,,5,,,77,127
40474,note_on,1,0,0,,7,,,79,127
40540,note_off,66,0,0,,7,,,79,127
40540,note_off,0,0,0,,7,,,55,127
40541,note_on,1,0,0,,10,,,57,127
40541,note_on,0,0,0,,5,,,77,127
40640,note_off,99,0,0,,5,,,77,127
40641,note_on,1,0,0,,4,,,76,127
40740,note_off,99,0,0,,4,,,76,127
40741,note_on,1,0,0,,10,,,45,127
40741,note_on,0,0,0,,2,,,74,127
40840,note_off,99,0,0,,2,,,74,127
40841,note_on,1,0,0,,1,,,73,127
40940,note_off,99,0,0,,1,,,73,127
40940,note_off,0,0,0,,10,,,45,127
40940,note_off,0,0,0,,10,,,57,127
40941,note_on,1,0,0,,2,,,62,127
40941,note_on,0,0,0,,2,,,50,127
40941,note_on,0,0,0,,2,,,74,127
41041,note_on,100,0,0,,4,,,76,127
41140,note_off,99,0,0,,4,,,76,127
41141,note_on,1,0,0,,5,,,77,127
41240,note_off,99,0,0,,2,,,74,127
41241,note_on,1,0,0,,0,,,72,127
41340,note_off,99,0,0,,0,,,72,127
41341,note_on,1,0,0,,11,,,70,127
41440,note_off,99,0,0,,11,,,70,127
41441,note_on,1,0,0,,10,,,69,127
41540,note_off,99,0,0,,10,,,69,127
41540,note_off,0,0,0,,2,,,50,127
41540,note_off,0,0,0,,2,,,62,127
41541,note_on,1,0,0,,7,,,55,127
41541,note_on,0,0,0,,11,,,70,127
41640,note_off,99,0,0,,11,,,70,127
41641,note_on,1,0,0,,7,,,67,127
41740,note_off,99,0,0,,5,,,77,127
41741,note_on,1,0,0,,4,,,76,127
41840,note_off,99,0,0,,4,,,76,127
41841,note_on,1,0,0,,2,,,74,127
41940,note_off,99,0,0,,2,,,74,127
41940,note_off,0,0,0,,7,,,67,127
41940,note_off,0,0,0,,7,,,55,127
41941,note_on,1,0,0,,10,,,57,127
41941,note_on,0,0,0,,1,,,73,127
41941,note_on,0,0,0,,10,,,69,127
42040,note_off,99,0,0,,1,,,73,127
42041,note_on,1,0,0,,4,,,76,127
42140,note_off,99,0,0,,4,,,76,127
42140,note_off,0,0,0,,10,,,69,127
42140,note_off,0,0,0,,10,,,57,127
42141,note_on,1,0,0,,2,,,50,127
42141,note_on,0,0,0,,2,,,62,127
42141,note_on,0,0,0,,2,,,74,127
42241,note_on,100,0,0,,4,,,76,127
42340,note_off,99,0,0,,4,,,76,127
42341,note_on,1,0,0,,5,,,77,127
42440,note_off,99,0,0,,2,,,74,127
42441,note_on,1,0,0,,0,,,72,127
42540,note_off,99,0,0,,0,,,72,127
42541,note_on,1,0,0,,11,,,70,127
42640,note_off,99,0,0,,11,,,70,127
42641,note_on,1,0,0,,10,,,69,127
42740,note_off,99,0,0,,10,,,69,127
42740,note_off,0,0,0,,2,,,62,127
42740,note_off,0,0,0,,2,,,50,127
42741,note_on,1,0,0,,7,,,55,127
42741,note_on,0,0,0,,11,,,70,127
42840,note_off,99,0,0,,11,,,70,127
42841,note_on,1,0,0,,7,,,67,127
42940,note_off,99,0,0,,5,,,77,127
42941,note_on,1,0,0,,4,,,76,127
43040,note_off,99,0,0,,4,,,76,127
43041,note_on,1,0,0,,2,,,74,127
43140,note_off,99,0,0,,2,,,74,127
43140,note_off,0,0,0,,7,,,67,127
43140,note_off,0,0,0,,7,,,55,127
43141,note_on,1,0,0,,10,,,57,127
43141,note_on,0,0,0,,1,,,73,127
43141,note_on,0,0,0,,10,,,69,127
43240,note_off,99,0,0,,1,,,73,127
43241,note_on,1,0,0,,4,,,76,127
43340,note_off,99,0,0,,4,,,76,127
43340,note_off,0,0,0,,10,,,69,127
43340,note_off,0,0,0,,10,,,57,127
43341,note_on,1,0,0,,2,,,62,127
43341,note_on,0,0,0,,5,,,65,127
43341,note_on,0,0,0,,2,,,74,127
43440,note_off,99,0,0,,2,,,74,127
43441,note_on,1,0,0,,4,,,76,127
43540,note_off,99,0,0,,4,,,76,127
43541,note_on,1,0,0,,5,,,77,127
43640,note_off,99,0,0,,2,,,62,127
43641,note_on,1,0,0,,0,,,60,127
43740,note_off,99,0,0,,0,,,60,127
43741,note_on,1,0,0,,11,,,58,127
43840,note_off,99,0,0,,11,,,58,127
43841,note_on,1,0,0,,10,,,57,127
43940,note_off,99,0,0,,10,,,57,127
43941,note_on,1,0,0,,11,,,58,127
44040,note_off,99,0,0,,11,,,58,127
44041,note_on,1,0,0,,7,,,55,127
44140,note_off,99,0,0,,7,,,55,127
44140,note_off,0,0,0,,5,,,77,127
44140,note_off,0,0,0,,5,,,65,127
44141,note_on,1,0,0,,10,,,57,127
44141,note_on,0,0,0,,4,,,64,127
44141,note_on,0,0,0,,7,,,79,127
44240,note_off,99,0,0,,7,,,79,127
44240,note_off,0,0,0,,4,,,64,127
44241,note_on,1,0,0,,2,,,62,127
44241,note_on,0,0,0,,5,,,77,127
44340,note_off,99,0,0,,5,,,77,127
44340,note_off,0,0,0,,2,,,62,127
44341,note_on,1,0,0,,1,,,61,127
44341,note_on,0,0,0,,4,,,76,127
44440,note_off,99,0,0,,4,,,76,127
44440,note_off,0,0,0,,1,,,61,127
44441,note_on,1,0,0,,4,,,64,127
44441,note_on,0,0,0,,7,,,79,127
44540,note_off,99,0,0,,7,,,79,127
44540,note_off,0,0,0,,4,,,64,127
44540,note_off,0,0,0,,10,,,57,127
44541,note_on,1,0,0,,2,,,62,127
44541,note_on,0,0,0,,5,,,65,127
44541,note_on,0,0,0,,2,,,74,127
44640,note_off,99,0,0,,2,,,74,127
44641,note_on,1,0,0,,4,,,76,127
44740,note_off,99,0,0,,4,,,76,127
44741,note_on,1,0,0,,5,,,77,127
44840,note_off,99,0,0,,2,,,62,127
44841,note_on,1,0,0,,0,,,60,127
44940,note_off,99,0,0,,0,,,60,127
44941,note_on,1,0,0,,11,,,58,127
45040,note_off,99,0,0,,11,,,58,127
45041,note_on,1,0,0,,10,,,57,127
45140,note_off,99,0,0,,10,,,57,127
45141,note_on,1,0,0,,11,,,58,127
45240,note_off,99,0,0,,11,,,58,127
45241,note_on,1,0,0,,7,,,55,127
45340,note_off,99,0,0,,7,,,55,127
45340,note_off,0,0,0,,5,,,77,127
45340,note_off,0,0,0,,5,,,65,127
45341,note_on,1,0,0,,10,,,57,127
45341,note_on,0,0,0,,4,,,64,127
45341,note_on,0,0,0,,7,,,79,127
45440,note_off,99,0,0,,7,,,79,127
45440,note_off,0,0,0,,4,,,64,127
45441,note_on,1,0,0,,2,,,62,127
45441,note_on,0,0,0,,5,,,77,127
45540,note_off,99,0,0,,5,,,77,127
45540,note_off,0,0,0,,2,,,62,127
45541,note_on,1,0,0,,1,,,61,127
45541,note_on,0,0,0,,4,,,76,127
45640,note_off,99,0,0,,4,,,76,127
45640,note_off,0,0,0,,1,,,61,127
45641,note_on,1,0,0,,4,,,64,127
45641,note_on,0,0,0,,7,,,79,127
45740,note_off,99,0,0,,7,,,79,127
45740,note_off,0,0,0,,4,,,64,127
45740,note_off,0,0,0,,10,,,57,127
45741,note_on,1,0,0,,2,,,62,127
45741,note_on,0,0,0,,5,,,77,127
45840,note_off,99,0,0,,5,,,77,127
45841,note_on,1,0,0,,7,,,79,127
45940,note_off,99,0,0,,7,,,79,127
45940,note_off,0,0,0,,2,,,62,127
45941,note_on,1,0,0,,4,,,64,127
45941,note_on,0,0,0,,10,,,81,127
46040,note_off,99,0,0,,10,,,81,127
46041,note_on,1,0,0,,1,,,73,127
46140,note_off,99,0,0,,1,,,73,127
46140,note_off,0,0,0,,4,,,64,127
46141,note_on,1,0,0,,5,,,65,127
46141,note_on,0,0,0,,2,,,74,127
46240,note_off,99,0,0,,2,,,74,127
46241,note_on,1,0,0,,5,,,77,127
46340,note_off,99,0,0,,5,,,77,127
46340,note_off,0,0,0,,5,,,65,127
46341,note_on,1,0,0,,7,,,67,127
46341,note_on,0,0,0,,4,,,76,127
46440,note_off,99,0,0,,4,,,76,127
46441,note_on,1,0,0,,7,,,79,127
46540,note_off,99,0,0,,7,,,79,127
46540,note_off,0,0,0,,7,,,67,127
46541,note_on,1,0,0,,10,,,69,127
46541,note_on,0,0,0,,5,,,77,127
46640,note_off,99,0,0,,5,,,77,127
46641,note_on,1,0,0,,4,,,76,127
46740,note_off,99,0,0,,4,,,76,127
46741,note_on,1,0,0,,10,,,57,127
46741,note_on,0,0,0,,2,,,74,127
46840,note_off,99,0,0,,2,,,74,127
46841,note_off,1,0,0,,10,,,69,127
46841,note_on,0,0,0,,1,,,73,127
46940,note_off,99,0,0,,1,,,73,127
46940,note_off,0,0,0,,10,,,57,127
46941,note_on,1,0,0,,2,,,50,127
46941,note_on,0,0,0,,2,,,86,127
47040,note_off,99,0,0,,2,,,86,127
47041,note_on,1,0,0,,10,,,81,127
47140,note_off,99,0,0,,10,,,81,127
47140,note_off,0,0,0,,2,,,50,127
47141,note_on,1,0,0,,4,,,52,127
47141,note_on,0,0,0,,5,,,77,127
47240,note_off,99,0,0,,5,,,77,127
47241,note_on,1,0,0,,2,,,74,127
47340,note_off,99,0,0,,2,,,74,127
47340,note_off,0,0,0,,4,,,52,127
47341,note_on,1,0,0,,5,,,53,127
47341,note_on,0,0,0,,10,,,69,127
47440,note_off,99,0,0,,10,,,69,127
47441,note_on,1,0,0,,5,,,65,127
47540,note_off,99,0,0,,5,,,65,127
47540,note_off,0,0,0,,5,,,53,127
47541,note_on,1,0,0,,7,,,55,127
47541,note_on,0,0,0,,11,,,70,127
47640,note_off,99,0,0,,11,,,70,127
47641,note_on,1,0,0,,2,,,62,127
47740,note_off,99,0,0,,7,,,55,127
47741,note_on,1,0,0,,10,,,57,127
47940,note_off,199,0,0,,2,,,62,127
47941,note_on,1,0,0,,10,,,45,127
47941,note_on,0,0,0,,1,,,61,127
48140,note_off,199,0,0,,1,,,61,127
48140,note_off,0,0,0,,10,,,45,127
48140,note_off,0,0,0,,10,,,57,127
48141,note_on,1,0,0,,2,,,38,127
48141,note_on,0,0,0,,2,,,50,127
48141,note_on,0,0,0,,2,,,62,127
48538,note_off,397,0,0,,2,,,62,127
48695,note_off,157,0,0,,2,,,50,127
48742,note_off,47,0,0,,2,,,38,127
48743,note_on,1,0,0,,2,,,50,127
48743,note_on,0,0,0,,10,,,81,127
48842,note_off,99,0,0,,10,,,81,127
48843,note_on,1,0,0,,6,,,78,127
48942,note_off,99,0,0,,6,,,78,127
48943,note_on,1,0,0,,2,,,74,127
49042,note_off,99,0,0,,2,,,74,127
49043,note_on,1,0,0,,10,,,69,127
49142,note_off,99,0,0,,10,,,69,127
49143,note_on,1,0,0,,6,,,66,127
49242,note_off,99,0,0,,6,,,66,127
49243,note_on,1,0,0,,2,,,62,127
49342,note_off,99,0,0,,2,,,62,127
49342,note_off,0,0,0,,2,,,50,127
49343,note_on,1,0,0,,2,,,50,127
49343,note_on,0,0,0,,0,,,60,127
49542,note_off,199,0,0,,0,,,60,127
49543,note_on,1,0,0,,11,,,58,127
49742,note_off,199,0,0,,11,,,58,127
49743,note_on,1,0,0,,10,,,57,127
49743,note_on,0,0,0,,6,,,78,127
49743,note_on,0,0,0,,10,,,69,127
49942,note_off,199,0,0,,10,,,69,127
49942,note_off,0,0,0,,6,,,78,127
49942,note_off,0,0,0,,10,,,57,127
49942,note_off,0,0,0,,2,,,50,127
49943,note_on,1,0,0,,11,,,58,127
49943,note_on,0,0,0,,2,,,50,127
49943,note_on,0,0,0,,7,,,79,127
49943,note_on,0,0,0,,11,,,70,127
50142,note_off,199,0,0,,11,,,70,127
50142,note_off,0,0,0,,7,,,79,127
50142,note_off,0,0,0,,11,,,58,127
50143,note_on,1,0,0,,10,,,57,127
50143,note_on,0,0,0,,10,,,81,127
50143,note_on,0,0,0,,0,,,72,127
50342,note_off,199,0,0,,0,,,72,127
50342,note_off,0,0,0,,10,,,81,127
50342,note_off,0,0,0,,10,,,57,127
50343,note_on,1,0,0,,7,,,55,127
50343,note_on,0,0,0,,11,,,82,127
50343,note_on,0,0,0,,2,,,74,127
50542,note_off,199,0,0,,2,,,74,127
50542,note_off,0,0,0,,11,,,82,127
50542,note_off,0,0,0,,7,,,55,127
50542,note_off,0,0,0,,2,,,50,127
50543,note_on,1,0,0,,0,,,60,127
50543,note_on,0,0,0,,2,,,50,127
50742,note_off,199,0,0,,0,,,60,127
50743,note_on,1,0,0,,11,,,58,127
50942,note_off,199,0,0,,11,,,58,127
50943,note_on,1,0,0,,10,,,57,127
50943,note_on,0,0,0,,6,,,78,127
50943,note_on,0,0,0,,10,,,69,127
51142,note_off,199,0,0,,10,,,69,127
51142,note_off,0,0,0,,6,,,78,127
51142,note_off,0,0,0,,10,,,57,127
51142,note_off,0,0,0,,2,,,50,127
51143,note_on,1,0,0,,11,,,58,127
51143,note_on,0,0,0,,2,,,50,127
51143,note_on,0,0,0,,7,,,79,127
51143,note_on,0,0,0,,11,,,70,127
51342,note_off,199,0,0,,11,,,70,127
51342,note_off,0,0,0,,7,,,79,127
51342,note_off,0,0,0,,11,,,58,127
51343,note_on,1,0,0,,10,,,57,127
51343,note_on,0,0,0,,0,,,72,127
51343,note_on,0,0,0,,10,,,81,127
51542,note_off,199,0,0,,10,,,81,127
51542,note_off,0,0,0,,0,,,72,127
51542,note_off,0,0,0,,10,,,57,127
51543,note_on,1,0,0,,7,,,55,127
51543,note_on,0,0,0,,11,,,82,127
51543,note_on,0,0,0,,2,,,74,127
51742,note_off,199,0,0,,2,,,74,127
51742,note_off,0,0,0,,11,,,82,127
51742,note_off,0,0,0,,7,,,55,127
51742,note_off,0,0,0,,2,,,50,127
51743,note_on,1,0,0,,2,,,50,127
51743,note_on,0,0,0,,1,,,61,127
51743,note_on,0,0,0,,0,,,84,127
51842,note_off,99,0,0,,0,,,84,127
51843,note_on,1,0,0,,11,,,82,127
51942,note_off,99,0,0,,11,,,82,127
51943,note_on,1,0,0,,10,,,81,127
52142,note_off,199,0,0,,10,,,81,127
52143,note_on,1,0,0,,7,,,79,127
52342,note_off,199,0,0,,7,,,79,127
52342,note_off,0,0,0,,1,,,61,127
52342,note_off,0,0,0,,2,,,50,127
52343,note_on,1,0,0,,2,,,62,127
52343,note_on,0,0,0,,2,,,50,127
52343,note_on,0,0,0,,6,,,78,127
52442,note_off,99,0,0,,6,,,78,127
52443,note_on,1,0,0,,7,,,79,127
52542,note_off,99,0,0,,7,,,79,127
52543,note_on,1,0,0,,10,,,81,127
52642,note_off,99,0,0,,10,,,81,127
52643,note_on,1,0,0,,7,,,79,127
52742,note_off,99,0,0,,7,,,79,127
52743,note_on,1,0,0,,5,,,77,127
52842,note_off,99,0,0,,5,,,77,127
52843,note_on,1,0,0,,3,,,75,127
52942,note_off,99,0,0,,3,,,75,127
52942,note_off,0,0,0,,2,,,50,127
52942,note_off,0,0,0,,2,,,62,127
52943,note_on,1,0,0,,2,,,50,127
52943,note_on,0,0,0,,2,,,74,127
53142,note_off,199,0,0,,2,,,74,127
53143,note_on,1,0,0,,2,,,62,127
53143,note_on,0,0,0,,2,,,74,127
53242,note_off,99,0,0,,2,,,74,127
53243,note_on,1,0,0,,11,,,70,127
53342,note_off,99,0,0,,11,,,70,127
53343,note_on,1,0,0,,0,,,72,127
53442,note_off,99,0,0,,0,,,72,127
53443,note_on,1,0,0,,10,,,69,127
53542,note_off,99,0,0,,10,,,69,127
53542,note_off,0,0,0,,2,,,62,127
53542,note_off,0,0,0,,2,,,50,127
53543,note_on,1,0,0,,2,,,50,127
53543,note_on,0,0,0,,3,,,63,127
53543,note_on,0,0,0,,10,,,69,127
53642,note_off,99,0,0,,10,,,69,127
53643,note_on,1,0,0,,7,,,67,127
53742,note_off,99,0,0,,7,,,67,127
53742,note_off,0,0,0,,3,,,63,127
53743,note_on,1,0,0,,2,,,62,127
53743,note_on,0,0,0,,6,,,66,127
53942,note_off,199,0,0,,6,,,66,127
53942,note_off,0,0,0,,2,,,62,127
53943,note_on,1,0,0,,3,,,63,127
53943,note_on,0,0,0,,7,,,67,127
54142,note_off,199,0,0,,7,,,67,127
54142,note_off,0,0,0,,3,,,63,127
54142,note_off,0,0,0,,2,,,50,127
54143,note_on,1,0,0,,2,,,62,127
54143,note_on,0,0,0,,2,,,50,127
54143,note_on,0,0,0,,10,,,69,127
54342,note_off,199,0,0,,10,,,69,127
54343,note_on,1,0,0,,2,,,74,127
54442,note_off,99,0,0,,2,,,74,127
54443,note_on,1,0,0,,11,,,70,127
54542,note_off,99,0,0,,11,,,70,127
54543,note_on,1,0,0,,0,,,72,127
54642,note_off,99,0,0,,0,,,72,127
54643,note_on,1,0,0,,10,,,69,127
54742,note_off,99,0,0,,10,,,69,127
54742,note_off,0,0,0,,2,,,50,127
54742,note_off,0,0,0,,2,,,62,127
54743,note_on,1,0,0,,2,,,50,127
54743,note_on,0,0,0,,3,,,63,127
54743,note_on,0,0,0,,10,,,69,127
54842,note_off,99,0,0,,10,,,69,127
54843,note_on,1,0,0,,7,,,67,127
54942,note_off,99,0,0,,7,,,67,127
54942,note_off,0,0,0,,3,,,63,127
54943,note_on,1,0,0,,2,,,62,127
54943,note_on,0,0,0,,6,,,66,127
55142,note_off,199,0,0,,6,,,66,127
55142,note_off,0,0,0,,2,,,62,127
55143,note_on,1,0,0,,3,,,63,127
55143,note_on,0,0,0,,7,,,67,127
55342,note_off,199,0,0,,7,,,67,127
55342,note_off,0,0,0,,3,,,63,127
55342,note_off,0,0,0,,2,,,50,127
55343,note_on,1,0,0,,2,,,62,127
55343,note_on,0,0,0,,2,,,50,127
55343,note_on,0,0,0,,10,,,69,127
55542,note_off,199,0,0,,2,,,50,127
55542,note_off,0,0,0,,2,,,62,127
55543,note_on,1,0,0,,2,,,62,127
55642,note_off,99,0,0,,2,,,62,127
55643,note_on,1,0,0,,11,,,58,127
55742,note_off,99,0,0,,11,,,58,127
55742,note_off,0,0,0,,10,,,69,127
55743,note_on,1,0,0,,0,,,60,127
55842,note_off,99,0,0,,0,,,60,127
55843,note_on,1,0,0,,10,,,57,127
55942,note_off,99,0,0,,10,,,57,127
55943,note_on,1,0,0,,7,,,55,127
55943,note_on,0,0,0,,2,,,50,127
55943,note_on,0,0,0,,0,,,72,127
56042,note_off,99,0,0,,0,,,72,127
56043,note_on,1,0,0,,11,,,70,127
56142,note_off,99,0,0,,11,,,70,127
56142,note_off,0,0,0,,7,,,55,127
56143,note_on,1,0,0,,6,,,54,127
56143,note_on,0,0,0,,10,,,69,127
56342,note_off,199,0,0,,10,,,69,127
56342,note_off,0,0,0,,6,,,54,127
56343,note_on,1,0,0,,7,,,55,127
56343,note_on,0,0,0,,11,,,70,127
56542,note_off,199,0,0,,11,,,70,127
56542,note_off,0,0,0,,7,,,55,127
56542,note_off,0,0,0,,2,,,50,127
56543,note_on,1,0,0,,6,,,54,127
56543,note_on,0,0,0,,2,,,50,127
56543,note_on,0,0,0,,10,,,69,127
56742,note_off,199,0,0,,2,,,50,127
56742,note_off,0,0,0,,6,,,54,127
56743,note_on,1,0,0,,2,,,62,127
56842,note_off,99,0,0,,2,,,62,127
56843,note_on,1,0,0,,11,,,58,127
56942,note_off,99,0,0,,11,,,58,127
56942,note_off,0,0,0,,10,,,69,127
56943,note_on,1,0,0,,0,,,60,127
57042,note_off,99,0,0,,0,,,60,127
57043,note_on,1,0,0,,10,,,57,127
57142,note_off,99,0,0,,10,,,57,127
57143,note_on,1,0,0,,7,,,55,127
57143,note_on,0,0,0,,2,,,50,127
57143,note_on,0,0,0,,0,,,72,127
57242,note_off,99,0,0,,0,,,72,127
57243,note_on,1,0,0,,11,,,70,127
57342,note_off,99,0,0,,11,,,70,127
57342,note_off,0,0,0,,7,,,55,127
57343,note_on,1,0,0,,6,,,54,127
57343,note_on,0,0,0,,10,,,69,127
57542,note_off,199,0,0,,10,,,69,127
57542,note_off,0,0,0,,6,,,54,127
57543,note_on,1,0,0,,7,,,55,127
57543,note_on,0,0,0,,11,,,70,127
57742,note_off,199,0,0,,11,,,70,127
57742,note_off,0,0,0,,7,,,55,127
57742,note_off,0,0,0,,2,,,50,127
57743,note_on,1,0,0,,2,,,50,127
57743,note_on,0,0,0,,10,,,69,127
57843,note_on,100,0,0,,2,,,74,127
57941,note_off,98,0,0,,10,,,69,127
57942,note_off,1,0,0,,2,,,74,127
57943,note_on,1,0,0,,10,,,69,127
58042,note_off,99,0,0,,10,,,69,127
58043,note_on,1,0,0,,6,,,66,127
58142,note_off,99,0,0,,6,,,66,127
58143,note_on,1,0,0,,2,,,62,127
58242,note_off,99,0,0,,2,,,62,127
58243,note_on,1,0,0,,10,,,57,127
58342,note_off,99,0,0,,10,,,57,127
58342,note_off,0,0,0,,2,,,50,127
58343,note_on,1,0,0,,6,,,54,127
58443,note_on,100,0,0,,2,,,50,127
58541,note_off,98,0,0,,6,,,54,127
58543,note_on,2,0,0,,2,,,38,127
58839,note_off,296,0,0,,2,,,50,127
59143,note_off,304,0,0,,2,,,38,127
59545,note_on,402,0,0,,2,,,50,127
59545,note_on,0,0,0,,10,,,57,127
59545,note_on,0,0,0,,12,,,59,127
59545,note_on,0,0,0,,8,,,68,127
59545,note_on,0,0,0,,5,,,77,127
59545,note_on,0,0,0,,2,,,74,127
59545,note_on,0,0,0,,12,,,71,127
59744,note_off,199,0,0,,2,,,74,127
59744,note_off,0,0,0,,5,,,77,127
59744,note_off,0,0,0,,10,,,57,127
59744,note_off,0,0,0,,2,,,50,127
59745,note_on,1,0,0,,4,,,52,127
59745,note_on,0,0,0,,4,,,76,127
59944,note_off,199,0,0,,4,,,76,127
59944,note_off,0,0,0,,4,,,52,127
59945,note_on,1,0,0,,5,,,53,127
59945,note_on,0,0,0,,2,,,74,127
60144,note_off,199,0,0,,2,,,74,127
60144,note_off,0,0,0,,5,,,53,127
60144,note_off,0,0,0,,12,,,71,127
60144,note_off,0,0,0,,8,,,68,127
60144,note_off,0,0,0,,12,,,59,127
60145,note_on,1,0,0,,12,,,59,127
60145,note_on,0,0,0,,2,,,50,127
60145,note_on,0,0,0,,10,,,57,127
60145,note_on,0,0,0,,12,,,71,127
60145,note_on,0,0,0,,8,,,68,127
60145,note_on,0,0,0,,5,,,77,127
60145,note_on,0,0,0,,2,,,74,127
60344,note_off,199,0,0,,2,,,74,127
60344,note_off,0,0,0,,5,,,77,127
60344,note_off,0,0,0,,10,,,57,127
60344,note_off,0,0,0,,2,,,50,127
60345,note_on,1,0,0,,4,,,52,127
60345,note_on,0,0,0,,4,,,76,127
60544,note_off,199,0,0,,4,,,76,127
60544,note_off,0,0,0,,4,,,52,127
60545,note_on,1,0,0,,5,,,53,127
60545,note_on,0,0,0,,2,,,74,127
60744,note_off,199,0,0,,2,,,74,127
60744,note_off,0,0,0,,5,,,53,127
60744,note_off,0,0,0,,8,,,68,127
60744,note_off,0,0,0,,12,,,71,127
60744,note_off,0,0,0,,12,,,59,127
60745,note_on,1,0,0,,8,,,56,127
60745,note_on,0,0,0,,4,,,64,127
60745,note_on,0,0,0,,2,,,62,127
60745,note_on,0,0,0,,2,,,74,127
60745,note_on,0,0,0,,8,,,80,127
60745,note_on,0,0,0,,2,,,86,127
60745,note_on,0,0,0,,12,,,83,127
60944,note_off,199,0,0,,8,,,56,127
60945,note_on,1,0,0,,10,,,57,127
61144,note_off,199,0,0,,10,,,57,127
61145,note_on,1,0,0,,8,,,56,127
61344,note_off,199,0,0,,8,,,56,127
61344,note_off,0,0,0,,12,,,83,127
61344,note_off,0,0,0,,2,,,86,127
61344,note_off,0,0,0,,8,,,80,127
61344,note_off,0,0,0,,2,,,74,127
61344,note_off,0,0,0,,2,,,62,127
61344,note_off,0,0,0,,4,,,64,127
61345,note_on,1,0,0,,10,,,57,127
61345,note_on,0,0,0,,1,,,85,127
61445,note_on,100,0,0,,12,,,83,127
61544,note_off,99,0,0,,12,,,83,127
61545,note_on,1,0,0,,10,,,81,127
61644,note_off,99,0,0,,10,,,81,127
61645,note_on,1,0,0,,8,,,80,127
61744,note_off,99,0,0,,8,,,80,127
61745,note_on,1,0,0,,10,,,81,127
61844,note_off,99,0,0,,10,,,81,127
61845,note_on,1,0,0,,4,,,76,127
61944,note_off,99,0,0,,4,,,76,127
61944,note_off,0,0,0,,1,,,85,127
61944,note_off,0,0,0,,10,,,57,127
61945,note_on,1,0,0,,1,,,73,127
62045,note_on,100,0,0,,10,,,69,127
62144,note_off,99,0,0,,10,,,69,127
62145,note_on,1,0,0,,4,,,64,127
62244,note_off,99,0,0,,4,,,64,127
62245,note_on,1,0,0,,1,,,61,127
62344,note_off,99,0,0,,1,,,61,127
62345,note_on,1,0,0,,10,,,57,127
62444,note_off,99,0,0,,10,,,57,127
62445,note_on,1,0,0,,4,,,52,127
62544,note_off,99,0,0,,4,,,52,127
62544,note_off,0,0,0,,1,,,73,127
62545,note_on,1,0,0,,10,,,45,127
63145,note_off,600,0,0,,10,,,45,127
63146,note_on,1,0,0,,10,,,57,127
63146,note_on,0,0,0,,7,,,67,127
63146,note_on,0,0,0,,4,,,76,127
63146,note_on,0,0,0,,11,,,70,127
63146,note_on,0,0,0,,7,,,79,127
63345,note_off,199,0,0,,4,,,76,127
63345,note_off,0,0,0,,7,,,67,127
63346,note_on,1,0,0,,5,,,65,127
63346,note_on,0,0,0,,2,,,74,127
63545,note_off,199,0,0,,2,,,74,127
63545,note_off,0,0,0,,5,,,65,127
63546,note_on,1,0,0,,4,,,64,127
63546,note_on,0,0,0,,1,,,73,127
63745,note_off,199,0,0,,1,,,73,127
63745,note_off,0,0,0,,4,,,64,127
63745,note_off,0,0,0,,7,,,79,127
63745,note_off,0,0,0,,11,,,70,127
63745,note_off,0,0,0,,10,,,57,127
63746,note_on,1,0,0,,10,,,57,127
63746,note_on,0,0,0,,7,,,67,127
63746,note_on,0,0,0,,4,,,76,127
63746,note_on,0,0,0,,11,,,70,127
63746,note_on,0,0,0,,7,,,79,127
63945,note_off,199,0,0,,4,,,76,127
63945,note_off,0,0,0,,7,,,67,127
63946,note_on,1,0,0,,5,,,65,127
63946,note_on,0,0,0,,2,,,74,127
64145,note_off,199,0,0,,2,,,74,127
64145,note_off,0,0,0,,5,,,65,127
64146,note_on,1,0,0,,4,,,64,127
64146,note_on,0,0,0,,1,,,73,127
64345,note_off,199,0,0,,1,,,73,127
64345,note_off,0,0,0,,4,,,64,127
64345,note_off,0,0,0,,7,,,79,127
64345,note_off,0,0,0,,11,,,70,127
64345,note_off,0,0,0,,10,,,57,127
64346,note_on,1,0,0,,7,,,67,127
64346,note_on,0,0,0,,10,,,57,127
64346,note_on,0,0,0,,4,,,76,127
64346,note_on,0,0,0,,11,,,70,127
64346,note_on,0,0,0,,7,,,79,127
64545,note_off,199,0,0,,4,,,76,127
64545,note_off,0,0,0,,7,,,67,127
64546,note_on,1,0,0,,5,,,65,127
64546,note_on,0,0,0,,2,,,74,127
64745,note_off,199,0,0,,2,,,74,127
64745,note_off,0,0,0,,5,,,65,127
64746,note_on,1,0,0,,4,,,64,127
64746,note_on,0,0,0,,1,,,73,127
64945,note_off,199,0,0,,1,,,73,127
64945,note_off,0,0,0,,4,,,64,127
64945,note_off,0,0,0,,7,,,79,127
64945,note_off,0,0,0,,11,,,70,127
64945,note_off,0,0,0,,10,,,57,127
64946,note_on,1,0,0,,2,,,50,127
64946,note_on,0,0,0,,5,,,77,127
65046,note_on,100,0,0,,4,,,76,127
65145,note_off,99,0,0,,4,,,76,127
65146,note_on,1,0,0,,2,,,74,127
65245,note_off,99,0,0,,2,,,74,127
65246,note_on,1,0,0,,1,,,73,127
65345,note_off,99,0,0,,1,,,73,127
65346,note_on,1,0,0,,2,,,74,127
65445,note_off,99,0,0,,2,,,74,127
65446,note_on,1,0,0,,10,,,69,127
65545,note_off,99,0,0,,10,,,69,127
65545,note_off,0,0,0,,5,,,77,127
65545,note_off,0,0,0,,2,,,50,127
65546,note_on,1,0,0,,5,,,65,127
65646,note_on,100,0,0,,2,,,62,127
65745,note_off,99,0,0,,2,,,62,127
65746,note_on,1,0,0,,10,,,57,127
65845,note_off,99,0,0,,10,,,57,127
65846,note_on,1,0,0,,5,,,53,127
65945,note_off,99,0,0,,5,,,53,127
65946,note_on,1,0,0,,2,,,50,127
66045,note_off,99,0,0,,2,,,50,127
66046,note_on,1,0,0,,10,,,45,127
66145,note_off,99,0,0,,10,,,45,127
66145,note_off,0,0,0,,5,,,65,127
66146,note_on,1,0,0,,2,,,38,127
66746,note_off,600,0,0,,2,,,38,127
66747,note_on,1,0,0,,2,,,62,127
66947,note_on,200,0,0,,5,,,65,127
66947,note_on,0,0,0,,2,,,74,127
67146,note_off,199,0,0,,2,,,74,127
67146,note_off,0,0,0,,5,,,65,127
67147,note_on,1,0,0,,5,,,77,127
67147,note_on,0,0,0,,10,,,69,127
67346,note_off,199,0,0,,2,,,62,127
67347,note_on,1,0,0,,0,,,60,127
67546,note_off,199,0,0,,10,,,69,127
67546,note_off,0,0,0,,5,,,77,127
67547,note_on,1,0,0,,5,,,65,127
67547,note_on,0,0,0,,2,,,74,127
67746,note_off,199,0,0,,2,,,74,127
67746,note_off,0,0,0,,5,,,65,127
67747,note_on,1,0,0,,5,,,77,127
67747,note_on,0,0,0,,10,,,69,127
67946,note_off,199,0,0,,0,,,60,127
67947,note_on,1,0,0,,12,,,59,127
68146,note_off,199,0,0,,10,,,69,127
68146,note_off,0,0,0,,5,,,77,127
68147,note_on,1,0,0,,5,,,65,127
68147,note_on,0,0,0,,2,,,74,127
68346,note_off,199,0,0,,2,,,74,127
68346,note_off,0,0,0,,5,,,65,127
68347,note_on,1,0,0,,5,,,77,127
68347,note_on,0,0,0,,10,,,69,127
68546,note_off,199,0,0,,12,,,59,127
68547,note_on,1,0,0,,10,,,57,127
68746,note_off,199,0,0,,10,,,69,127
68746,note_off,0,0,0,,5,,,77,127
68747,note_on,1,0,0,,5,,,65,127
68747,note_on,0,0,0,,2,,,74,127
68946,note_off,199,0,0,,2,,,74,127
68946,note_off,0,0,0,,5,,,65,127
68947,note_on,1,0,0,,10,,,69,127
68947,note_on,0,0,0,,5,,,77,127
69146,note_off,199,0,0,,10,,,57,127
69147,note_on,1,0,0,,7,,,55,127
69247,note_off,100,0,0,,5,,,77,127
69247,note_off,0,0,0,,10,,,69,127
69347,note_on,100,0,0,,8,,,68,127
69347,note_on,0,0,0,,5,,,77,127
69546,note_off,199,0,0,,5,,,77,127
69546,note_off,0,0,0,,8,,,68,127
69547,note_on,1,0,0,,7,,,67,127
69547,note_on,0,0,0,,3,,,75,127
69746,note_off,199,0,0,,3,,,75,127
69746,note_off,0,0,0,,7,,,67,127
69747,note_on,1,0,0,,7,,,43,127
69747,note_on,0,0,0,,2,,,74,127
69747,note_on,0,0,0,,5,,,65,127
69946,note_off,199,0,0,,5,,,65,127
69946,note_off,0,0,0,,2,,,74,127
69947,note_on,1,0,0,,0,,,72,127
69947,note_on,0,0,0,,3,,,63,127
70146,note_off,199,0,0,,3,,,63,127
70146,note_off,0,0,0,,0,,,72,127
70147,note_on,1,0,0,,2,,,62,127
70147,note_on,0,0,0,,12,,,71,127
70346,note_off,199,0,0,,7,,,43,127
70346,note_off,0,0,0,,7,,,55,127
70347,note_on,1,0,0,,0,,,60,127
70447,note_off,100,0,0,,12,,,71,127
70447,note_off,0,0,0,,2,,,62,127
70547,note_on,100,0,0,,0,,,72,127
70547,note_on,0,0,0,,3,,,63,127
70746,note_off,199,0,0,,3,,,63,127
70746,note_off,0,0,0,,0,,,72,127
70747,note_on,1,0,0,,7,,,67,127
70747,note_on,0,0,0,,3,,,75,127
70946,note_off,199,0,0,,0,,,60,127
70947,note_on,1,0,0,,11,,,58,127
71146,note_off,199,0,0,,3,,,75,127
71146,note_off,0,0,0,,7,,,67,127
71147,note_on,1,0,0,,0,,,72,127
71147,note_on,0,0,0,,3,,,63,127
71346,note_off,199,0,0,,3,,,63,127
71346,note_off,0,0,0,,0,,,72,127
71347,note_on,1,0,0,,3,,,75,127
71347,note_on,0,0,0,,7,,,67,127
71546,note_off,199,0,0,,11,,,58,127
71547,note_on,1,0,0,,10,,,57,127
71746,note_off,199,0,0,,7,,,67,127
71746,note_off,0,0,0,,3,,,75,127
71747,note_on,1,0,0,,0,,,72,127
71747,note_on,0,0,0,,3,,,63,127
71946,note_off,199,0,0,,3,,,63,127
71946,note_off,0,0,0,,0,,,72,127
71947,note_on,1,0,0,,7,,,67,127
71947,note_on,0,0,0,,3,,,75,127
72146,note_off,199,0,0,,10,,,57,127
72147,note_on,1,0,0,,7,,,55,127
72346,note_off,199,0,0,,3,,,75,127
72346,note_off,0,0,0,,7,,,67,127
72347,note_on,1,0,0,,3,,,63,127
72347,note_on,0,0,0,,0,,,72,127
72546,note_off,199,0,0,,0,,,72,127
72546,note_off,0,0,0,,3,,,63,127
72547,note_on,1,0,0,,3,,,75,127
72547,note_on,0,0,0,,7,,,67,127
72746,note_off,199,0,0,,7,,,55,127
72747,note_on,1,0,0,,6,,,54,127
72847,note_off,100,0,0,,3,,,75,127
72947,note_on,100,0,0,,3,,,75,127
73146,note_off,199,0,0,,3,,,75,127
73146,note_off,0,0,0,,7,,,67,127
73147,note_on,1,0,0,,2,,,74,127
73147,note_on,0,0,0,,6,,,66,127
73346,note_off,199,0,0,,6,,,66,127
73346,note_off,0,0,0,,2,,,74,127
73346,note_off,0,0,0,,6,,,54,127
73347,note_on,1,0,0,,2,,,50,127
73347,note_on,0,0,0,,0,,,72,127
73347,note_on,0,0,0,,3,,,63,127
73546,note_off,199,0,0,,3,,,63,127
73546,note_off,0,0,0,,0,,,72,127
73547,note_on,1,0,0,,11,,,70,127
73547,note_on,0,0,0,,2,,,62,127
73746,note_off,199,0,0,,2,,,62,127
73746,note_off,0,0,0,,11,,,70,127
73747,note_on,1,0,0,,10,,,69,127
73747,note_on,0,0,0,,0,,,60,127
73946,note_off,199,0,0,,0,,,60,127
73946,note_off,0,0,0,,2,,,50,127
73947,note_on,1,0,0,,0,,,60,127
73947,note_on,0,0,0,,6,,,66,127
73947,note_on,0,0,0,,2,,,62,127
74047,note_off,100,0,0,,10,,,69,127
74147,note_on,100,0,0,,10,,,69,127
74147,note_on,0,0,0,,6,,,78,127
74346,note_off,199,0,0,,6,,,78,127
74346,note_off,0,0,0,,10,,,69,127
74347,note_on,1,0,0,,11,,,70,127
74347,note_on,0,0,0,,7,,,79,127
74546,note_off,199,0,0,,2,,,62,127
74546,note_off,0,0,0,,6,,,66,127
74546,note_off,0,0,0,,0,,,60,127
74547,note_on,1,0,0,,11,,,58,127
74547,note_on,0,0,0,,2,,,62,127
74547,note_on,0,0,0,,7,,,67,127
74746,note_off,199,0,0,,7,,,79,127
74746,note_off,0,0,0,,11,,,70,127
74747,note_on,1,0,0,,0,,,72,127
74747,note_on,0,0,0,,10,,,81,127
74946,note_off,199,0,0,,10,,,81,127
74946,note_off,0,0,0,,0,,,72,127
74947,note_on,1,0,0,,11,,,82,127
74947,note_on,0,0,0,,2,,,74,127
75146,note_off,199,0,0,,7,,,67,127
75146,note_off,0,0,0,,2,,,62,127
75146,note_off,0,0,0,,11,,,58,127
75147,note_on,1,0,0,,6,,,66,127
75147,note_on,0,0,0,,2,,,62,127
75147,note_on,0,0,0,,0,,,60,127
75247,note_off,100,0,0,,2,,,74,127
75247,note_off,0,0,0,,11,,,82,127
75347,note_on,100,0,0,,6,,,78,127
75347,note_on,0,0,0,,10,,,69,127
75546,note_off,199,0,0,,10,,,69,127
75546,note_off,0,0,0,,6,,,78,127
75547,note_on,1,0,0,,7,,,79,127
75547,note_on,0,0,0,,11,,,70,127
75746,note_off,199,0,0,,0,,,60,127
75746,note_off,0,0,0,,2,,,62,127
75746,note_off,0,0,0,,6,,,66,127
75747,note_on,1,0,0,,11,,,58,127
75747,note_on,0,0,0,,7,,,67,127
75747,note_on,0,0,0,,2,,,62,127
75946,note_off,199,0,0,,11,,,70,127
75946,note_off,0,0,0,,7,,,79,127
75947,note_on,1,0,0,,0,,,72,127
75947,note_on,0,0,0,,10,,,81,127
76146,note_off,199,0,0,,10,,,81,127
76146,note_off,0,0,0,,0,,,72,127
76147,note_on,1,0,0,,11,,,82,127
76147,note_on,0,0,0,,2,,,74,127
76346,note_off,199,0,0,,2,,,62,127
76346,note_off,0,0,0,,7,,,67,127
76346,note_off,0,0,0,,11,,,58,127
76347,note_on,1,0,0,,0,,,60,127
76347,note_on,0,0,0,,4,,,64,127
76347,note_on,0,0,0,,11,,,58,127
76447,note_off,100,0,0,,2,,,74,127
76447,note_off,0,0,0,,11,,,82,127
76547,note_on,100,0,0,,7,,,67,127
76547,note_on,0,0,0,,4,,,76,127
76746,note_off,199,0,0,,4,,,76,127
76746,note_off,0,0,0,,7,,,67,127
76747,note_on,1,0,0,,5,,,77,127
76747,note_on,0,0,0,,8,,,68,127
76946,note_off,199,0,0,,11,,,58,127
76946,note_off,0,0,0,,4,,,64,127
76946,note_off,0,0,0,,0,,,60,127
76947,note_on,1,0,0,,5,,,65,127
76947,note_on,0,0,0,,0,,,60,127
76947,note_on,0,0,0,,8,,,56,127
77146,note_off,199,0,0,,8,,,68,127
77146,note_off,0,0,0,,5,,,77,127
77147,note_on,1,0,0,,7,,,79,127
77147,note_on,0,0,0,,11,,,70,127
77346,note_off,199,0,0,,11,,,70,127
77346,note_off,0,0,0,,7,,,79,127
77347,note_on,1,0,0,,8,,,80,127
77347,note_on,0,0,0,,0,,,72,127
77546,note_off,199,0,0,,8,,,56,127
77546,note_off,0,0,0,,0,,,60,127
77546,note_off,0,0,0,,5,,,65,127
77547,note_on,1,0,0,,11,,,58,127
77547,note_on,0,0,0,,4,,,64,127
77547,note_on,0,0,0,,0,,,60,127
77647,note_off,100,0,0,,0,,,72,127
77647,note_off,0,0,0,,8,,,80,127
77747,note_on,100,0,0,,4,,,76,127
77747,note_on,0,0,0,,7,,,67,127
77946,note_off,199,0,0,,7,,,67,127
77946,note_off,0,0,0,,4,,,76,127
77947,note_on,1,0,0,,5,,,77,127
77947,note_on,0,0,0,,8,,,68,127
78146,note_off,199,0,0,,0,,,60,127
78146,note_off,0,0,0,,4,,,64,127
78146,note_off,0,0,0,,11,,,58,127
78147,note_on,1,0,0,,0,,,60,127
78147,note_on,0,0,0,,8,,,56,127
78147,note_on,0,0,0,,5,,,65,127
78346,note_off,199,0,0,,8,,,68,127
78346,note_off,0,0,0,,5,,,77,127
78347,note_on,1,0,0,,11,,,70,127
78347,note_on,0,0,0,,7,,,79,127
78546,note_off,199,0,0,,7,,,79,127
78546,note_off,0,0,0,,11,,,70,127
78547,note_on,1,0,0,,8,,,80,127
78547,note_on,0,0,0,,0,,,72,127
78746,note_off,199,0,0,,5,,,65,127
78746,note_off,0,0,0,,8,,,56,127
78746,note_off,0,0,0,,0,,,60,127
78747,note_on,1,0,0,,6,,,54,127
78747,note_on,0,0,0,,11,,,58,127
78747,note_on,0,0,0,,3,,,63,127
78847,note_off,100,0,0,,0,,,72,127
78847,note_off,0,0,0,,8,,,80,127
78947,note_on,100,0,0,,6,,,78,127
78947,note_on,0,0,0,,10,,,81,127
79146,note_off,199,0,0,,10,,,81,127
79146,note_off,0,0,0,,6,,,78,127
79147,note_on,1,0,0,,11,,,82,127
79147,note_on,0,0,0,,3,,,75,127
79346,note_off,199,0,0,,3,,,63,127
79346,note_off,0,0,0,,11,,,58,127
79346,note_off,0,0,0,,6,,,54,127
79347,note_on,1,0,0,,5,,,53,127
79347,note_on,0,0,0,,5,,,65,127
79347,note_on,0,0,0,,0,,,60,127
79546,note_off,199,0,0,,3,,,75,127
79546,note_off,0,0,0,,11,,,82,127
79547,note_on,1,0,0,,1,,,73,127
79547,note_on,0,0,0,,11,,,82,127
79746,note_off,199,0,0,,11,,,82,127
79746,note_off,0,0,0,,1,,,73,127
79747,note_on,1,0,0,,10,,,81,127
79747,note_on,0,0,0,,0,,,72,127
79946,note_off,199,0,0,,0,,,60,127
79946,note_off,0,0,0,,5,,,65,127
79946,note_off,0,0,0,,5,,,53,127
79947,note_on,1,0,0,,6,,,54,127
79947,note_on,0,0,0,,11,,,58,127
79947,note_on,0,0,0,,3,,,63,127
80047,note_off,100,0,0,,0,,,72,127
80047,note_off,0,0,0,,10,,,81,127
80147,note_on,100,0,0,,6,,,78,127
80147,note_on,0,0,0,,10,,,81,127
80346,note_off,199,0,0,,10,,,81,127
80346,note_off,0,0,0,,6,,,78,127
80347,note_on,1,0,0,,3,,,75,127
80347,note_on,0,0,0,,11,,,82,127
80546,note_off,199,0,0,,3,,,63,127
80546,note_off,0,0,0,,11,,,58,127
80546,note_off,0,0,0,,6,,,54,127
80547,note_on,1,0,0,,5,,,53,127
80547,note_on,0,0,0,,0,,,60,127
80547,note_on,0,0,0,,5,,,65,127
80746,note_off,199,0,0,,11,,,82,127
80746,note_off,0,0,0,,3,,,75,127
80747,note_on,1,0,0,,11,,,82,127
80747,note_on,0,0,0,,1,,,73,127
80946,note_off,199,0,0,,1,,,73,127
80946,note_off,0,0,0,,11,,,82,127
80947,note_on,1,0,0,,10,,,81,127
80947,note_on,0,0,0,,0,,,72,127
81146,note_off,199,0,0,,5,,,65,127
81146,note_off,0,0,0,,0,,,60,127
81146,note_off,0,0,0,,5,,,53,127
81147,note_on,1,0,0,,4,,,52,127
81147,note_on,0,0,0,,11,,,58,127
81147,note_on,0,0,0,,7,,,55,127
81147,note_on,0,0,0,,0,,,60,127
81247,note_off,100,0,0,,0,,,72,127
81247,note_off,0,0,0,,10,,,81,127
81347,note_on,100,0,0,,11,,,82,127
81347,note_on,0,0,0,,0,,,72,127
81546,note_off,199,0,0,,0,,,72,127
81546,note_off,0,0,0,,11,,,82,127
81547,note_on,1,0,0,,4,,,76,127
81547,note_on,0,0,0,,7,,,79,127
81746,note_off,199,0,0,,0,,,60,127
81746,note_off,0,0,0,,7,,,55,127
81746,note_off,0,0,0,,11,,,58,127
81746,note_off,0,0,0,,4,,,52,127
81747,note_on,1,0,0,,10,,,57,127
81747,note_on,0,0,0,,5,,,53,127
81747,note_on,0,0,0,,0,,,60,127
81847,note_off,100,0,0,,7,,,79,127
81847,note_off,0,0,0,,4,,,76,127
81947,note_on,100,0,0,,0,,,84,127
81947,note_on,0,0,0,,0,,,72,127
82146,note_off,199,0,0,,0,,,72,127
82146,note_off,0,0,0,,0,,,84,127
82147,note_on,1,0,0,,10,,,81,127
82147,note_on,0,0,0,,5,,,77,127
82346,note_off,199,0,0,,0,,,60,127
82346,note_off,0,0,0,,5,,,53,127
82346,note_off,0,0,0,,10,,,57,127
82347,note_on,1,0,0,,11,,,58,127
82347,note_on,0,0,0,,4,,,52,127
82347,note_on,0,0,0,,0,,,60,127
82347,note_on,0,0,0,,7,,,55,127
82447,note_off,100,0,0,,5,,,77,127
82447,note_off,0,0,0,,10,,,81,127
82547,note_on,100,0,0,,11,,,82,127
82547,note_on,0,0,0,,0,,,72,127
82746,note_off,199,0,0,,0,,,72,127
82746,note_off,0,0,0,,11,,,82,127
82747,note_on,1,0,0,,7,,,79,127
82747,note_on,0,0,0,,4,,,76,127
82946,note_off,199,0,0,,4,,,76,127
82946,note_off,0,0,0,,7,,,79,127
82946,note_off,0,0,0,,7,,,55,127
82946,note_off,0,0,0,,0,,,60,127
82946,note_off,0,0,0,,4,,,52,127
82946,note_off,0,0,0,,11,,,58,127
82947,note_on,1,0,0,,5,,,53,127
82947,note_on,0,0,0,,0,,,84,127
83046,note_off,99,0,0,,0,,,84,127
83047,note_on,1,0,0,,11,,,82,127
83146,note_off,99,0,0,,11,,,82,127
83146,note_off,0,0,0,,5,,,53,127
83147,note_on,1,0,0,,7,,,55,127
83147,note_on,0,0,0,,10,,,81,127
83246,note_off,99,0,0,,10,,,81,127
83247,note_on,1,0,0,,7,,,79,127
83346,note_off,99,0,0,,7,,,79,127
83346,note_off,0,0,0,,7,,,55,127
83347,note_on,1,0,0,,10,,,57,127
83347,note_on,0,0,0,,5,,,77,127
83446,note_off,99,0,0,,5,,,77,127
83447,note_on,1,0,0,,3,,,75,127
83546,note_off,99,0,0,,3,,,75,127
83546,note_off,0,0,0,,10,,,57,127
83547,note_on,1,0,0,,11,,,58,127
83547,note_on,0,0,0,,2,,,74,127
83613,note_off,66,0,0,,2,,,74,127
83614,note_on,1,0,0,,3,,,75,127
83680,note_off,66,0,0,,3,,,75,127
83681,note_on,1,0,0,,5,,,77,127
83747,note_off,66,0,0,,5,,,77,127
83747,note_off,0,0,0,,11,,,58,127
83748,note_on,1,0,0,,7,,,55,127
83748,note_on,0,0,0,,3,,,75,127
83847,note_off,99,0,0,,3,,,75,127
83848,note_on,1,0,0,,2,,,74,127
83947,note_off,99,0,0,,2,,,74,127
83947,note_off,0,0,0,,7,,,55,127
83948,note_on,1,0,0,,3,,,51,127
83948,note_on,0,0,0,,0,,,72,127
84047,note_off,99,0,0,,0,,,72,127
84048,note_on,1,0,0,,11,,,70,127
84147,note_off,99,0,0,,11,,,70,127
84147,note_off,0,0,0,,3,,,51,127
84148,note_on,1,0,0,,5,,,53,127
84148,note_on,0,0,0,,10,,,69,127
84247,note_off,99,0,0,,10,,,69,127
84248,note_on,1,0,0,,7,,,67,127
84347,note_off,99,0,0,,7,,,67,127
84347,note_off,0,0,0,,5,,,53,127
84348,note_on,1,0,0,,7,,,55,127
84348,note_on,0,0,0,,5,,,65,127
84447,note_off,99,0,0,,5,,,65,127
84448,note_on,1,0,0,,3,,,63,127
84547,note_off,99,0,0,,3,,,63,127
84547,note_off,0,0,0,,7,,,55,127
84548,note_on,1,0,0,,10,,,57,127
84548,note_on,0,0,0,,2,,,62,127
84647,note_off,99,0,0,,2,,,62,127
84648,note_on,1,0,0,,0,,,60,127
84747,note_off,99,0,0,,0,,,60,127
84747,note_off,0,0,0,,10,,,57,127
84748,note_on,1,0,0,,11,,,58,127
84748,note_on,0,0,0,,2,,,62,127
84814,note_off,66,0,0,,2,,,62,127
84815,note_on,1,0,0,,3,,,63,127
84881,note_off,66,0,0,,3,,,63,127
84882,note_on,1,0,0,,5,,,65,127
84948,note_off,66,0,0,,5,,,65,127
84948,note_off,0,0,0,,11,,,58,127
84949,note_on,1,0,0,,7,,,55,127
84949,note_on,0,0,0,,3,,,63,127
85048,note_off,99,0,0,,3,,,63,127
85049,note_on,1,0,0,,2,,,62,127
85148,note_off,99,0,0,,2,,,62,127
85148,note_off,0,0,0,,7,,,55,127
85149,note_on,1,0,0,,3,,,51,127
85149,note_on,0,0,0,,0,,,60,127
85248,note_off,99,0,0,,0,,,60,127
85249,note_on,1,0,0,,11,,,58,127
85348,note_off,99,0,0,,11,,,58,127
85348,note_off,0,0,0,,3,,,51,127
85349,note_on,1,0,0,,5,,,41,127
85349,note_on,0,0,0,,11,,,58,127
85448,note_off,99,0,0,,11,,,58,127
85449,note_on,1,0,0,,10,,,57,127
85648,note_off,199,0,0,,10,,,57,127
85649,note_on,1,0,0,,7,,,55,127
85748,note_off,99,0,0,,7,,,55,127
85749,note_on,1,0,0,,5,,,53,127
85948,note_off,199,0,0,,5,,,53,127
85948,note_off,0,0,0,,5,,,41,127
85949,note_on,1,0,0,,5,,,53,127
86049,note_on,100,0,0,,5,,,65,127
86148,note_off,99,0,0,,5,,,65,127
86149,note_on,1,0,0,,7,,,67,127
86248,note_off,99,0,0,,7,,,67,127
86249,note_on,1,0,0,,5,,,65,127
86348,note_off,99,0,0,,5,,,65,127
86349,note_on,1,0,0,,3,,,63,127
86349,note_on,0,0,0,,10,,,69,127
86448,note_off,99,0,0,,10,,,69,127
86449,note_on,1,0,0,,5,,,65,127
86548,note_off,99,0,0,,5,,,65,127
86548,note_off,0,0,0,,3,,,63,127
86548,note_off,0,0,0,,5,,,53,127
86549,note_on,1,0,0,,5,,,53,127
86549,note_on,0,0,0,,2,,,62,127
86549,note_on,0,0,0,,11,,,70,127
86648,note_off,99,0,0,,11,,,70,127
86649,note_on,1,0,0,,5,,,65,127
86748,note_off,99,0,0,,5,,,65,127
86748,note_off,0,0,0,,2,,,62,127
86749,note_on,1,0,0,,0,,,60,127
86749,note_on,0,0,0,,0,,,72,127
86848,note_off,99,0,0,,0,,,72,127
86849,note_on,1,0,0,,5,,,65,127
86948,note_off,99,0,0,,5,,,65,127
86948,note_off,0,0,0,,0,,,60,127
86949,note_on,1,0,0,,11,,,58,127
86949,note_on,0,0,0,,2,,,74,127
87048,note_off,99,0,0,,2,,,74,127
87049,note_on,1,0,0,,5,,,65,127
87148,note_off,99,0,0,,5,,,65,127
87148,note_off,0,0,0,,11,,,58,127
87148,note_off,0,0,0,,5,,,53,127
87149,note_on,1,0,0,,5,,,53,127
87149,note_on,0,0,0,,10,,,57,127
87149,note_on,0,0,0,,0,,,72,127
87248,note_off,99,0,0,,0,,,72,127
87249,note_on,1,0,0,,5,,,65,127
87348,note_off,99,0,0,,5,,,65,127
87348,note_off,0,0,0,,10,,,57,127
87349,note_on,1,0,0,,7,,,55,127
87349,note_on,0,0,0,,2,,,74,127
87448,note_off,99,0,0,,2,,,74,127
87449,note_on,1,0,0,,5,,,65,127
87548,note_off,99,0,0,,5,,,65,127
87548,note_off,0,0,0,,7,,,55,127
87548,note_off,0,0,0,,5,,,53,127
87549,note_on,1,0,0,,5,,,53,127
87549,note_on,0,0,0,,3,,,75,127
87648,note_off,99,0,0,,3,,,75,127
87649,note_on,1,0,0,,5,,,65,127
87748,note_off,99,0,0,,5,,,65,127
87748,note_off,0,0,0,,5,,,53,127
87749,note_on,1,0,0,,5,,,53,127
87749,note_on,0,0,0,,11,,,58,127
87749,note_on,0,0,0,,2,,,74,127
87848,note_off,99,0,0,,2,,,74,127
87849,note_on,1,0,0,,5,,,65,127
87948,note_off,99,0,0,,5,,,65,127
87948,note_off,0,0,0,,11,,,58,127
87949,note_on,1,0,0,,10,,,57,127
87949,note_on,0,0,0,,0,,,72,127
88048,note_off,99,0,0,,0,,,72,127
88049,note_on,1,0,0,,5,,,65,127
88148,note_off,99,0,0,,5,,,65,127
88148,note_off,0,0,0,,10,,,57,127
88149,note_on,1,0,0,,7,,,55,127
88149,note_on,0,0,0,,11,,,70,127
88248,note_off,99,0,0,,11,,,70,127
88249,note_on,1,0,0,,5,,,65,127
88348,note_off,99,0,0,,5,,,65,127
88348,note_off,0,0,0,,7,,,55,127
88348,note_off,0,0,0,,5,,,53,127
88349,note_on,1,0,0,,5,,,77,127
88449,note_on,100,0,0,,5,,,53,127
88548,note_off,99,0,0,,5,,,53,127
88549,note_on,1,0,0,,7,,,55,127
88648,note_off,99,0,0,,7,,,55,127
88649,note_on,1,0,0,,5,,,53,127
88748,note_off,99,0,0,,5,,,53,127
88748,note_off,0,0,0,,5,,,77,127
88749,note_on,1,0,0,,10,,,57,127
88749,note_on,0,0,0,,3,,,75,127
88848,note_off,99,0,0,,10,,,57,127
88849,note_on,1,0,0,,5,,,53,127
88948,note_off,99,0,0,,5,,,53,127
88948,note_off,0,0,0,,3,,,75,127
88949,note_on,1,0,0,,11,,,58,127
88949,note_on,0,0,0,,2,,,74,127
89048,note_off,99,0,0,,11,,,58,127
89049,note_on,1,0,0,,5,,,53,127
89148,note_off,99,0,0,,5,,,53,127
89148,note_off,0,0,0,,2,,,74,127
89149,note_on,1,0,0,,0,,,60,127
89149,note_on,0,0,0,,0,,,72,127
89248,note_off,99,0,0,,0,,,60,127
89249,note_on,1,0,0,,5,,,53,127
89348,note_off,99,0,0,,5,,,53,127
89348,note_off,0,0,0,,0,,,72,127
89349,note_on,1,0,0,,2,,,62,127
89349,note_on,0,0,0,,11,,,70,127
89448,note_off,99,0,0,,2,,,62,127
89449,note_on,1,0,0,,5,,,53,127
89548,note_off,99,0,0,,5,,,53,127
89548,note_off,0,0,0,,11,,,70,127
89549,note_on,1,0,0,,0,,,60,127
89549,note_on,0,0,0,,10,,,69,127
89648,note_off,99,0,0,,0,,,60,127
89649,note_on,1,0,0,,5,,,53,127
89748,note_off,99,0,0,,5,,,53,127
89748,note_off,0,0,0,,10,,,69,127
89749,note_on,1,0,0,,2,,,62,127
89749,note_on,0,0,0,,11,,,70,127
89848,note_off,99,0,0,,2,,,62,127
89849,note_on,1,0,0,,5,,,53,127
89948,note_off,99,0,0,,5,,,53,127
89948,note_off,0,0,0,,11,,,70,127
89949,note_on,1,0,0,,3,,,63,127
89949,note_on,0,0,0,,0,,,72,127
90048,note_off,99,0,0,,3,,,63,127
90049,note_on,1,0,0,,5,,,53,127
90148,note_off,99,0,0,,5,,,53,127
90148,note_off,0,0,0,,0,,,72,127
90149,note_on,1,0,0,,2,,,62,127
90149,note_on,0,0,0,,11,,,70,127
90248,note_off,99,0,0,,2,,,62,127
90249,note_on,1,0,0,,5,,,53,127
90348,note_off,99,0,0,,5,,,53,127
90348,note_off,0,0,0,,11,,,70,127
90349,note_on,1,0,0,,0,,,60,127
90349,note_on,0,0,0,,0,,,72,127
90448,note_off,99,0,0,,0,,,60,127
90449,note_on,1,0,0,,5,,,53,127
90548,note_off,99,0,0,,5,,,53,127
90548,note_off,0,0,0,,0,,,72,127
90549,note_on,1,0,0,,11,,,58,127
90549,note_on,0,0,0,,2,,,74,127
90648,note_off,99,0,0,,11,,,58,127
90649,note_on,1,0,0,,5,,,53,127
90748,note_off,99,0,0,,5,,,53,127
90748,note_off,0,0,0,,2,,,74,127
90749,note_on,1,0,0,,10,,,57,127
90749,note_on,0,0,0,,0,,,72,127
90849,note_on,100,0,0,,5,,,65,127
90947,note_off,98,0,0,,0,,,72,127
90948,note_off,1,0,0,,5,,,65,127
90949,note_on,1,0,0,,5,,,77,127
91048,note_off,99,0,0,,5,,,77,127
91049,note_on,1,0,0,,3,,,75,127
91148,note_off,99,0,0,,3,,,75,127
91148,note_off,0,0,0,,10,,,57,127
91149,note_on,1,0,0,,5,,,53,127
91149,note_on,0,0,0,,2,,,74,127
91248,note_off,99,0,0,,2,,,74,127
91249,note_on,1,0,0,,0,,,72,127
91348,note_off,99,0,0,,0,,,72,127
91348,note_off,0,0,0,,5,,,53,127
91349,note_on,1,0,0,,11,,,58,127
91349,note_on,0,0,0,,2,,,74,127
91449,note_on,100,0,0,,11,,,70,127
91499,note_off,50,0,0,,2,,,74,127
91548,note_off,49,0,0,,11,,,70,127
91549,note_on,1,0,0,,7,,,55,127
91549,note_on,0,0,0,,3,,,75,127
91648,note_off,99,0,0,,3,,,75,127
91649,note_on,1,0,0,,2,,,74,127
91748,note_off,99,0,0,,2,,,74,127
91748,note_off,0,0,0,,7,,,55,127
91749,note_on,1,0,0,,3,,,51,127
91749,note_on,0,0,0,,0,,,72,127
91848,note_off,99,0,0,,0,,,72,127
91849,note_on,1,0,0,,11,,,70,127
91948,note_off,99,0,0,,11,,,70,127
91948,note_off,0,0,0,,3,,,51,127
91949,note_on,1,0,0,,5,,,53,127
91949,note_on,0,0,0,,0,,,72,127
92049,note_on,100,0,0,,5,,,65,127
92147,note_off,98,0,0,,0,,,72,127
92148,note_off,1,0,0,,5,,,65,127
92149,note_on,1,0,0,,5,,,77,127
92248,note_off,99,0,0,,5,,,77,127
92249,note_on,1,0,0,,3,,,75,127
92348,note_off,99,0,0,,3,,,75,127
92348,note_off,0,0,0,,11,,,58,127
92349,note_on,1,0,0,,10,,,57,127
92349,note_on,0,0,0,,2,,,74,127
92448,note_off,99,0,0,,2,,,74,127
92449,note_on,1,0,0,,0,,,72,127
92548,note_off,99,0,0,,0,,,72,127
92548,note_off,0,0,0,,10,,,57,127
92548,note_off,0,0,0,,5,,,53,127
92549,note_on,1,0,0,,11,,,58,127
92549,note_on,0,0,0,,2,,,74,127
92649,note_on,100,0,0,,11,,,70,127
92699,note_off,50,0,0,,2,,,74,127
92748,note_off,49,0,0,,11,,,70,127
92749,note_on,1,0,0,,7,,,55,127
92749,note_on,0,0,0,,3,,,75,127
92848,note_off,99,0,0,,3,,,75,127
92849,note_on,1,0,0,,2,,,74,127
92948,note_off,99,0,0,,2,,,74,127
92948,note_off,0,0,0,,7,,,55,127
92949,note_on,1,0,0,,3,,,51,127
92949,note_on,0,0,0,,0,,,72,127
93048,note_off,99,0,0,,0,,,72,127
93049,note_on,1,0,0,,11,,,70,127
93148,note_off,99,0,0,,11,,,70,127
93148,note_off,0,0,0,,3,,,51,127
93148,note_off,0,0,0,,11,,,58,127
93149,note_on,1,0,0,,5,,,53,127
93149,note_on,0,0,0,,0,,,72,127
93248,note_off,99,0,0,,5,,,53,127
93249,note_on,1,0,0,,0,,,60,127
93348,note_off,99,0,0,,0,,,60,127
93348,note_off,0,0,0,,0,,,72,127
93349,note_on,1,0,0,,5,,,65,127
93349,note_on,0,0,0,,10,,,69,127
93448,note_off,99,0,0,,5,,,65,127
93449,note_on,1,0,0,,3,,,63,127
93548,note_off,99,0,0,,3,,,63,127
93549,note_on,1,0,0,,2,,,62,127
93648,note_off,99,0,0,,2,,,62,127
93649,note_on,1,0,0,,0,,,60,127
93748,note_off,99,0,0,,0,,,60,127
93748,note_off,0,0,0,,10,,,69,127
93749,note_on,1,0,0,,2,,,62,127
93749,note_on,0,0,0,,11,,,70,127
93848,note_off,99,0,0,,2,,,62,127
93849,note_on,1,0,0,,11,,,58,127
93948,note_off,99,0,0,,11,,,58,127
93948,note_off,0,0,0,,11,,,70,127
93949,note_on,1,0,0,,3,,,63,127
93949,note_on,0,0,0,,7,,,67,127
94048,note_off,99,0,0,,3,,,63,127
94049,note_on,1,0,0,,2,,,62,127
94148,note_off,99,0,0,,2,,,62,127
94148,note_off,0,0,0,,7,,,67,127
94149,note_on,1,0,0,,0,,,60,127
94149,note_on,0,0,0,,11,,,70,127
94248,note_off,99,0,0,,0,,,60,127
94249,note_on,1,0,0,,11,,,58,127
94348,note_off,99,0,0,,11,,,58,127
94348,note_off,0,0,0,,11,,,70,127
94349,note_on,1,0,0,,0,,,60,127
94349,note_on,0,0,0,,0,,,72,127
94349,note_on,0,0,0,,11,,,70,127
94448,note_off,99,0,0,,0,,,60,127
94449,note_on,1,0,0,,5,,,53,127
94548,note_off,99,0,0,,5,,,53,127
94548,note_off,0,0,0,,11,,,70,127
94549,note_on,1,0,0,,5,,,65,127
94549,note_on,0,0,0,,10,,,69,127
94648,note_off,99,0,0,,5,,,65,127
94649,note_on,1,0,0,,3,,,63,127
94748,note_off,99,0,0,,3,,,63,127
94749,note_on,1,0,0,,2,,,62,127
94848,note_off,99,0,0,,2,,,62,127
94849,note_on,1,0,0,,0,,,60,127
94948,note_off,99,0,0,,0,,,60,127
94948,note_off,0,0,0,,10,,,69,127
94948,note_off,0,0,0,,0,,,72,127
94949,note_on,1,0,0,,2,,,62,127
94949,note_on,0,0,0,,11,,,70,127
95048,note_off,99,0,0,,2,,,62,127
95049,note_on,1,0,0,,11,,,58,127
95148,note_off,99,0,0,,11,,,58,127
95148,note_off,0,0,0,,11,,,70,127
95149,note_on,1,0,0,,3,,,63,127
95149,note_on,0,0,0,,7,,,67,127
95248,note_off,99,0,0,,3,,,63,127
95249,note_on,1,0,0,,2,,,62,127
95348,note_off,99,0,0,,2,,,62,127
95348,note_off,0,0,0,,7,,,67,127
95349,note_on,1,0,0,,0,,,60,127
95349,note_on,0,0,0,,11,,,70,127
95448,note_off,99,0,0,,0,,,60,127
95449,note_on,1,0,0,,11,,,58,127
95548,note_off,99,0,0,,11,,,58,127
95548,note_off,0,0,0,,11,,,70,127
95549,note_on,1,0,0,,0,,,60,127
95549,note_on,0,0,0,,0,,,72,127
95549,note_on,0,0,0,,11,,,70,127
95648,note_off,99,0,0,,0,,,60,127
95649,note_on,1,0,0,,5,,,53,127
95748,note_off,99,0,0,,5,,,53,127
95748,note_off,0,0,0,,11,,,70,127
95749,note_on,1,0,0,,5,,,65,127
95749,note_on,0,0,0,,10,,,69,127
95848,note_off,99,0,0,,5,,,65,127
95849,note_on,1,0,0,,3,,,63,127
95948,note_off,99,0,0,,3,,,63,127
95948,note_off,0,0,0,,10,,,69,127
95948,note_off,0,0,0,,0,,,72,127
95949,note_on,1,0,0,,2,,,62,127
95949,note_on,0,0,0,,0,,,72,127
96048,note_off,99,0,0,,2,,,62,127
96049,note_on,1,0,0,,0,,,60,127
96148,note_off,99,0,0,,0,,,60,127
96148,note_off,0,0,0,,0,,,72,127
96149,note_on,1,0,0,,11,,,58,127
96149,note_on,0,0,0,,2,,,74,127
96248,note_off,99,0,0,,11,,,58,127
96249,note_on,1,0,0,,10,,,57,127
96348,note_off,99,0,0,,10,,,57,127
96349,note_on,1,0,0,,7,,,55,127
96349,note_on,0,0,0,,11,,,70,127
96399,note_off,50,0,0,,2,,,74,127
96448,note_off,49,0,0,,7,,,55,127
96449,note_on,1,0,0,,5,,,53,127
96548,note_off,99,0,0,,5,,,53,127
96548,note_off,0,0,0,,11,,,70,127
96549,note_on,1,0,0,,3,,,51,127
96549,note_on,0,0,0,,3,,,75,127
96648,note_off,99,0,0,,3,,,51,127
96649,note_on,1,0,0,,2,,,50,127
96748,note_off,99,0,0,,2,,,50,127
96748,note_off,0,0,0,,3,,,75,127
96749,note_on,1,0,0,,0,,,48,127
96749,note_on,0,0,0,,5,,,77,127
96848,note_off,99,0,0,,0,,,48,127
96849,note_on,1,0,0,,11,,,46,127
96948,note_off,99,0,0,,11,,,46,127
96948,note_off,0,0,0,,5,,,77,127
96949,note_on,1,0,0,,10,,,45,127
96949,note_on,0,0,0,,7,,,79,127
97048,note_off,99,0,0,,10,,,45,127
97049,note_on,1,0,0,,7,,,43,127
97148,note_off,99,0,0,,7,,,43,127
97148,note_off,0,0,0,,7,,,79,127
97149,note_on,1,0,0,,5,,,41,127
97149,note_on,0,0,0,,10,,,81,127
97248,note_off,99,0,0,,5,,,41,127
97249,note_on,1,0,0,,3,,,39,127
97348,note_off,99,0,0,,3,,,39,127
97348,note_off,0,0,0,,10,,,81,127
97349,note_on,1,0,0,,2,,,38,127
97349,note_on,0,0,0,,11,,,82,127
97448,note_off,99,0,0,,11,,,82,127
97449,note_on,1,0,0,,10,,,81,127
97548,note_off,99,0,0,,10,,,81,127
97549,note_on,1,0,0,,7,,,79,127
97648,note_off,99,0,0,,7,,,79,127
97649,note_on,1,0,0,,5,,,77,127
97748,note_off,99,0,0,,5,,,77,127
97748,note_off,0,0,0,,2,,,38,127
97749,note_on,1,0,0,,2,,,50,127
97749,note_on,0,0,0,,3,,,75,127
97848,note_off,99,0,0,,3,,,75,127
97849,note_on,1,0,0,,2,,,74,127
97948,note_off,99,0,0,,2,,,74,127
97948,note_off,0,0,0,,2,,,50,127
97949,note_on,1,0,0,,3,,,51,127
97949,note_on,0,0,0,,0,,,72,127
98015,note_off,66,0,0,,0,,,72,127
98016,note_on,1,0,0,,2,,,74,127
98082,note_off,66,0,0,,2,,,74,127
98083,note_on,1,0,0,,3,,,75,127
98149,note_off,66,0,0,,3,,,75,127
98149,note_off,0,0,0,,3,,,51,127
98150,note_on,1,0,0,,5,,,53,127
98150,note_on,0,0,0,,2,,,74,127
98249,note_off,99,0,0,,2,,,74,127
98250,note_on,1,0,0,,0,,,72,127
98349,note_off,99,0,0,,0,,,72,127
98350,note_on,1,0,0,,5,,,41,127
98350,note_on,0,0,0,,11,,,70,127
98449,note_off,99,0,0,,11,,,70,127
98450,note_on,1,0,0,,10,,,69,127
98549,note_off,99,0,0,,10,,,69,127
98549,note_off,0,0,0,,5,,,41,127
98549,note_off,0,0,0,,5,,,53,127
98550,note_on,1,0,0,,11,,,58,127
98550,note_on,0,0,0,,2,,,74,127
98650,note_on,100,0,0,,11,,,70,127
98700,note_off,50,0,0,,2,,,74,127
98749,note_off,49,0,0,,11,,,70,127
98750,note_on,1,0,0,,7,,,55,127
98750,note_on,0,0,0,,3,,,75,127
98849,note_off,99,0,0,,3,,,75,127
98850,note_on,1,0,0,,2,,,74,127
98949,note_off,99,0,0,,2,,,74,127
98949,note_off,0,0,0,,7,,,55,127
98950,note_on,1,0,0,,3,,,51,127
98950,note_on,0,0,0,,0,,,72,127
99049,note_off,99,0,0,,0,,,72,127
99050,note_on,1,0,0,,11,,,70,127
99149,note_off,99,0,0,,11,,,70,127
99149,note_off,0,0,0,,3,,,51,127
99150,note_on,1,0,0,,5,,,53,127
99150,note_on,0,0,0,,0,,,72,127
99250,note_on,100,0,0,,5,,,65,127
99348,note_off,98,0,0,,0,,,72,127
99349,note_off,1,0,0,,5,,,65,127
99350,note_on,1,0,0,,5,,,77,127
99449,note_off,99,0,0,,5,,,77,127
99450,note_on,1,0,0,,3,,,75,127
99549,note_off,99,0,0,,3,,,75,127
99549,note_off,0,0,0,,11,,,58,127
99550,note_on,1,0,0,,10,,,57,127
99550,note_on,0,0,0,,2,,,74,127
99649,note_off,99,0,0,,2,,,74,127
99650,note_on,1,0,0,,0,,,72,127
99749,note_off,99,0,0,,0,,,72,127
99749,note_off,0,0,0,,10,,,57,127
99749,note_off,0,0,0,,5,,,53,127
99750,note_on,1,0,0,,11,,,58,127
99750,note_on,0,0,0,,2,,,74,127
99850,note_on,100,0,0,,11,,,70,127
99900,note_off,50,0,0,,2,,,74,127
99949,note_off,49,0,0,,11,,,70,127
99950,note_on,1,0,0,,7,,,55,127
99950,note_on,0,0,0,,3,,,75,127
100049,note_off,99,0,0,,3,,,75,127
100050,note_on,1,0,0,,2,,,74,127
100149,note_off,99,0,0,,2,,,74,127
100149,note_off,0,0,0,,7,,,55,127
100150,note_on,1,0,0,,3,,,51,127
100150,note_on,0,0,0,,0,,,72,127
100249,note_off,99,0,0,,0,,,72,127
100250,note_on,1,0,0,,11,,,70,127
100349,note_off,99,0,0,,11,,,70,127
100349,note_off,0,0,0,,3,,,51,127
100350,note_on,1,0,0,,5,,,53,127
100350,note_on,0,0,0,,0,,,72,127
100450,note_on,100,0,0,,5,,,65,127
100548,note_off,98,0,0,,0,,,72,127
100549,note_off,1,0,0,,5,,,65,127
100550,note_on,1,0,0,,5,,,77,127
100649,note_off,99,0,0,,5,,,77,127
100650,note_on,1,0,0,,3,,,75,127
100749,note_off,99,0,0,,3,,,75,127
100749,note_off,0,0,0,,11,,,58,127
100750,note_on,1,0,0,,10,,,57,127
100750,note_on,0,0,0,,2,,,74,127
100849,note_off,99,0,0,,2,,,74,127
100850,note_on,1,0,0,,0,,,72,127
100949,note_off,99,0,0,,0,,,72,127
100949,note_off,0,0,0,,10,,,57,127
100949,note_off,0,0,0,,5,,,53,127
100950,note_on,1,0,0,,11,,,58,127
100950,note_on,0,0,0,,2,,,74,127
101050,note_on,100,0,0,,11,,,70,127
101100,note_off,50,0,0,,2,,,74,127
101149,note_off,49,0,0,,11,,,70,127
101150,note_on,1,0,0,,7,,,55,127
101150,note_on,0,0,0,,3,,,75,127
101249,note_off,99,0,0,,3,,,75,127
101250,note_on,1,0,0,,2,,,74,127
101349,note_off,99,0,0,,2,,,74,127
101349,note_off,0,0,0,,7,,,55,127
101350,note_on,1,0,0,,3,,,51,127
101350,note_on,0,0,0,,0,,,72,127
101449,note_off,99,0,0,,0,,,72,127
101450,note_on,1,0,0,,11,,,70,127
101549,note_off,99,0,0,,11,,,70,127
101549,note_off,0,0,0,,3,,,51,127
101549,note_off,0,0,0,,11,,,58,127
101550,note_on,1,0,0,,5,,,53,127
101550,note_on,0,0,0,,0,,,72,127
101649,note_off,99,0,0,,5,,,53,127
101650,note_on,1,0,0,,0,,,60,127
101749,note_off,99,0,0,,0,,,60,127
101749,note_off,0,0,0,,0,,,72,127
101750,note_on,1,0,0,,5,,,65,127
101750,note_on,0,0,0,,10,,,69,127
101849,note_off,99,0,0,,5,,,65,127
101850,note_on,1,0,0,,3,,,63,127
101949,note_off,99,0,0,,3,,,63,127
101950,note_on,1,0,0,,2,,,62,127
102049,note_off,99,0,0,,2,,,62,127
102050,note_on,1,0,0,,0,,,60,127
102149,note_off,99,0,0,,0,,,60,127
102149,note_off,0,0,0,,10,,,69,127
102150,note_on,1,0,0,,2,,,62,127
102150,note_on,0,0,0,,11,,,70,127
102249,note_off,99,0,0,,2,,,62,127
102250,note_on,1,0,0,,11,,,58,127
102349,note_off,99,0,0,,11,,,58,127
102349,note_off,0,0,0,,11,,,70,127
102350,note_on,1,0,0,,3,,,63,127
102350,note_on,0,0,0,,7,,,67,127
102449,note_off,99,0,0,,3,,,63,127
102450,note_on,1,0,0,,2,,,62,127
102549,note_off,99,0,0,,2,,,62,127
102549,note_off,0,0,0,,7,,,67,127
102550,note_on,1,0,0,,0,,,60,127
102550,note_on,0,0,0,,11,,,70,127
102649,note_off,99,0,0,,0,,,60,127
102650,note_on,1,0,0,,11,,,58,127
102749,note_off,99,0,0,,11,,,58,127
102749,note_off,0,0,0,,11,,,70,127
102750,note_on,1,0,0,,0,,,60,127
102750,note_on,0,0,0,,0,,,72,127
102750,note_on,0,0,0,,11,,,70,127
102849,note_off,99,0,0,,0,,,60,127
102850,note_on,1,0,0,,5,,,53,127
102949,note_off,99,0,0,,5,,,53,127
102949,note_off,0,0,0,,11,,,70,127
102950,note_on,1,0,0,,5,,,65,127
102950,note_on,0,0,0,,10,,,69,127
103049,note_off,99,0,0,,5,,,65,127
103050,note_on,1,0,0,,3,,,63,127
103149,note_off,99,0,0,,3,,,63,127
103150,note_on,1,0,0,,2,,,62,127
103249,note_off,99,0,0,,2,,,62,127
103250,note_on,1,0,0,,0,,,60,127
103349,note_off,99,0,0,,0,,,60,127
103349,note_off,0,0,0,,10,,,69,127
103349,note_off,0,0,0,,0,,,72,127
103350,note_on,1,0,0,,2,,,62,127
103350,note_on,0,0,0,,11,,,70,127
103449,note_off,99,0,0,,2,,,62,127
103450,note_on,1,0,0,,11,,,58,127
103549,note_off,99,0,0,,11,,,58,127
103549,note_off,0,0,0,,11,,,70,127
103550,note_on,1,0,0,,3,,,63,127
103550,note_on,0,0,0,,7,,,67,127
103649,note_off,99,0,0,,3,,,63,127
103650,note_on,1,0,0,,2,,,62,127
103749,note_off,99,0,0,,2,,,62,127
103749,note_off,0,0,0,,7,,,67,127
103750,note_on,1,0,0,,0,,,60,127
103750,note_on,0,0,0,,11,,,70,127
103849,note_off,99,0,0,,0,,,60,127
103850,note_on,1,0,0,,11,,,58,127
103949,note_off,99,0,0,,11,,,58,127
103949,note_off,0,0,0,,11,,,70,127
103950,note_on,1,0,0,,0,,,60,127
103950,note_on,0,0,0,,11,,,70,127
103950,note_on,0,0,0,,0,,,72,127
104049,note_off,99,0,0,,0,,,60,127
104050,note_on,1,0,0,,5,,,53,127
104149,note_off,99,0,0,,5,,,53,127
104149,note_off,0,0,0,,11,,,70,127
104150,note_on,1,0,0,,5,,,65,127
104150,note_on,0,0,0,,10,,,69,127
104249,note_off,99,0,0,,5,,,65,127
104250,note_on,1,0,0,,3,,,63,127
104349,note_off,99,0,0,,3,,,63,127
104349,note_off,0,0,0,,10,,,69,127
104349,note_off,0,0,0,,0,,,72,127
104350,note_on,1,0,0,,2,,,62,127
104350,note_on,0,0,0,,0,,,72,127
104449,note_off,99,0,0,,2,,,62,127
104450,note_on,1,0,0,,0,,,60,127
104549,note_off,99,0,0,,0,,,60,127
104549,note_off,0,0,0,,0,,,72,127
104550,note_on,1,0,0,,11,,,58,127
104550,note_on,0,0,0,,2,,,74,127
104649,note_off,99,0,0,,11,,,58,127
104650,note_on,1,0,0,,10,,,57,127
104749,note_off,99,0,0,,10,,,57,127
104749,note_off,0,0,0,,2,,,74,127
104750,note_on,1,0,0,,7,,,55,127
104750,note_on,0,0,0,,11,,,70,127
104849,note_off,99,0,0,,7,,,55,127
104850,note_on,1,0,0,,5,,,53,127
104949,note_off,99,0,0,,5,,,53,127
104949,note_off,0,0,0,,11,,,70,127
104950,note_on,1,0,0,,3,,,51,127
104950,note_on,0,0,0,,3,,,75,127
105049,note_off,99,0,0,,3,,,51,127
105050,note_on,1,0,0,,2,,,50,127
105149,note_off,99,0,0,,2,,,50,127
105149,note_off,0,0,0,,3,,,75,127
105150,note_on,1,0,0,,0,,,48,127
105150,note_on,0,0,0,,5,,,77,127
105249,note_off,99,0,0,,0,,,48,127
105250,note_on,1,0,0,,11,,,46,127
105349,note_off,99,0,0,,11,,,46,127
105349,note_off,0,0,0,,5,,,77,127
105350,note_on,1,0,0,,10,,,45,127
105350,note_on,0,0,0,,7,,,79,127
105449,note_off,99,0,0,,10,,,45,127
105450,note_on,1,0,0,,7,,,43,127
105549,note_off,99,0,0,,7,,,43,127
105549,note_off,0,0,0,,7,,,79,127
105550,note_on,1,0,0,,5,,,41,127
105550,note_on,0,0,0,,10,,,81,127
105649,note_off,99,0,0,,5,,,41,127
105650,note_on,1,0,0,,3,,,39,127
105749,note_off,99,0,0,,3,,,39,127
105749,note_off,0,0,0,,10,,,81,127
105750,note_on,1,0,0,,2,,,38,127
105750,note_on,0,0,0,,11,,,82,127
105849,note_off,99,0,0,,11,,,82,127
105850,note_on,1,0,0,,10,,,81,127
105949,note_off,99,0,0,,10,,,81,127
105950,note_on,1,0,0,,7,,,79,127
106049,note_off,99,0,0,,7,,,79,127
106050,note_on,1,0,0,,5,,,77,127
106149,note_off,99,0,0,,5,,,77,127
106149,note_off,0,0,0,,2,,,38,127
106150,note_on,1,0,0,,2,,,50,127
106150,note_on,0,0,0,,3,,,75,127
106249,note_off,99,0,0,,3,,,75,127
106250,note_on,1,0,0,,2,,,74,127
106349,note_off,99,0,0,,2,,,74,127
106349,note_off,0,0,0,,2,,,50,127
106350,note_on,1,0,0,,3,,,51,127
106350,note_on,0,0,0,,0,,,72,127
106416,note_off,66,0,0,,0,,,72,127
106417,note_on,1,0,0,,2,,,74,127
106483,note_off,66,0,0,,2,,,74,127
106484,note_on,1,0,0,,3,,,75,127
106550,note_off,66,0,0,,3,,,75,127
106550,note_off,0,0,0,,3,,,51,127
106551,note_on,1,0,0,,5,,,53,127
106551,note_on,0,0,0,,2,,,74,127
106650,note_off,99,0,0,,2,,,74,127
106651,note_on,1,0,0,,0,,,72,127
106750,note_off,99,0,0,,0,,,72,127
106751,note_on,1,0,0,,5,,,41,127
106751,note_on,0,0,0,,11,,,70,127
106850,note_off,99,0,0,,11,,,70,127
106851,note_on,1,0,0,,10,,,69,127
106950,note_off,99,0,0,,10,,,69,127
106950,note_off,0,0,0,,5,,,41,127
106950,note_off,0,0,0,,5,,,53,127
106951,note_on,1,0,0,,11,,,46,127
106951,note_on,0,0,0,,11,,,70,127
107151,note_on,200,0,0,,11,,,82,127
107250,note_off,99,0,0,,11,,,82,127
107251,note_off,1,0,0,,11,,,70,127
107251,note_on,0,0,0,,10,,,81,127
107350,note_off,99,0,0,,10,,,81,127
107350,note_off,0,0,0,,11,,,46,127
107351,note_on,1,0,0,,2,,,50,127
107351,note_on,0,0,0,,7,,,79,127
107450,note_off,99,0,0,,7,,,79,127
107451,note_on,1,0,0,,5,,,77,127
107550,note_off,99,0,0,,5,,,77,127
107550,note_off,0,0,0,,2,,,50,127
107551,note_on,1,0,0,,3,,,51,127
107551,note_on,0,0,0,,7,,,79,127
107651,note_on,100,0,0,,3,,,75,127
107750,note_off,99,0,0,,3,,,75,127
107750,note_off,0,0,0,,7,,,79,127
107751,note_on,1,0,0,,5,,,77,127
107751,note_on,0,0,0,,2,,,74,127
107850,note_off,99,0,0,,2,,,74,127
107851,note_on,1,0,0,,0,,,72,127
107950,note_off,99,0,0,,0,,,72,127
107950,note_off,0,0,0,,5,,,77,127
107950,note_off,0,0,0,,3,,,51,127
107951,note_on,1,0,0,,5,,,53,127
107951,note_on,0,0,0,,3,,,75,127
107951,note_on,0,0,0,,11,,,70,127
108050,note_off,99,0,0,,11,,,70,127
108051,note_on,1,0,0,,10,,,69,127
108150,note_off,99,0,0,,10,,,69,127
108150,note_off,0,0,0,,3,,,75,127
108150,note_off,0,0,0,,5,,,53,127
108151,note_on,1,0,0,,11,,,46,127
108151,note_on,0,0,0,,2,,,74,127
108151,note_on,0,0,0,,11,,,70,127
108350,note_off,199,0,0,,2,,,74,127
108351,note_on,1,0,0,,11,,,82,127
108450,note_off,99,0,0,,11,,,82,127
108451,note_off,1,0,0,,11,,,70,127
108451,note_on,0,0,0,,10,,,81,127
108550,note_off,99,0,0,,10,,,81,127
108550,note_off,0,0,0,,11,,,46,127
108551,note_on,1,0,0,,2,,,50,127
108551,note_on,0,0,0,,7,,,79,127
108650,note_off,99,0,0,,7,,,79,127
108651,note_on,1,0,0,,5,,,77,127
108750,note_off,99,0,0,,5,,,77,127
108750,note_off,0,0,0,,2,,,50,127
108751,note_on,1,0,0,,3,,,51,127
108751,note_on,0,0,0,,7,,,79,127
108851,note_on,100,0,0,,3,,,75,127
108950,note_off,99,0,0,,3,,,75,127
108950,note_off,0,0,0,,7,,,79,127
108951,note_on,1,0,0,,5,,,77,127
108951,note_on,0,0,0,,2,,,74,127
109050,note_off,99,0,0,,2,,,74,127
109051,note_on,1,0,0,,0,,,72,127
109150,note_off,99,0,0,,0,,,72,127
109150,note_off,0,0,0,,5,,,77,127
109150,note_off,0,0,0,,3,,,51,127
109151,note_on,1,0,0,,5,,,53,127
109151,note_on,0,0,0,,11,,,70,127
109151,note_on,0,0,0,,3,,,75,127
109250,note_off,99,0,0,,11,,,70,127
109251,note_on,1,0,0,,10,,,69,127
109350,note_off,99,0,0,,10,,,69,127
109350,note_off,0,0,0,,3,,,75,127
109350,note_off,0,0,0,,5,,,53,127
109351,note_on,1,0,0,,11,,,46,127
109351,note_on,0,0,0,,2,,,74,127
109351,note_on,0,0,0,,11,,,70,127
109550,note_off,199,0,0,,11,,,70,127
109550,note_off,0,0,0,,2,,,74,127
109550,note_off,0,0,0,,11,,,46,127
109551,note_on,1,0,0,,11,,,70,127
109551,note_on,0,0,0,,2,,,74,127
109650,note_off,99,0,0,,11,,,70,127
109651,note_on,1,0,0,,10,,,69,127
109750,note_off,99,0,0,,10,,,69,127
109751,note_on,1,0,0,,7,,,67,127
109850,note_off,99,0,0,,7,,,67,127
109851,note_on,1,0,0,,5,,,65,127
109950,note_off,99,0,0,,5,,,65,127
109950,note_off,0,0,0,,2,,,74,127
109951,note_on,1,0,0,,7,,,67,127
109951,note_on,0,0,0,,11,,,70,127
110050,note_off,99,0,0,,7,,,67,127
110051,note_on,1,0,0,,3,,,63,127
110150,note_off,99,0,0,,3,,,63,127
110150,note_off,0,0,0,,11,,,70,127
110151,note_on,1,0,0,,2,,,62,127
110151,note_on,0,0,0,,7,,,79,127
110250,note_off,99,0,0,,2,,,62,127
110251,note_on,1,0,0,,0,,,60,127
110350,note_off,99,0,0,,0,,,60,127
110351,note_on,1,0,0,,11,,,58,127
110450,note_off,99,0,0,,11,,,58,127
110451,note_on,1,0,0,,10,,,57,127
110550,note_off,99,0,0,,10,,,57,127
110550,note_off,0,0,0,,7,,,79,127
110551,note_on,1,0,0,,11,,,58,127
110551,note_on,0,0,0,,5,,,77,127
110750,note_off,199,0,0,,5,,,77,127
110750,note_off,0,0,0,,11,,,58,127
110751,note_on,1,0,0,,11,,,70,127
110751,note_on,0,0,0,,2,,,74,127
110850,note_off,99,0,0,,11,,,70,127
110851,note_on,1,0,0,,10,,,69,127
110950,note_off,99,0,0,,10,,,69,127
110951,note_on,1,0,0,,7,,,67,127
111050,note_off,99,0,0,,7,,,67,127
111051,note_on,1,0,0,,5,,,65,127
111150,note_off,99,0,0,,5,,,65,127
111150,note_off,0,0,0,,2,,,74,127
111151,note_on,1,0,0,,7,,,67,127
111151,note_on,0,0,0,,11,,,70,127
111250,note_off,99,0,0,,7,,,67,127
111251,note_on,1,0,0,,3,,,63,127
111350,note_off,99,0,0,,3,,,63,127
111350,note_off,0,0,0,,11,,,70,127
111351,note_on,1,0,0,,2,,,62,127
111351,note_on,0,0,0,,7,,,79,127
111450,note_off,99,0,0,,2,,,62,127
111451,note_on,1,0,0,,0,,,60,127
111550,note_off,99,0,0,,0,,,60,127
111551,note_on,1,0,0,,11,,,58,127
111650,note_off,99,0,0,,11,,,58,127
111651,note_on,1,0,0,,10,,,57,127
111750,note_off,99,0,0,,10,,,57,127
111750,note_off,0,0,0,,7,,,79,127
111751,note_on,1,0,0,,11,,,58,127
111751,note_on,0,0,0,,5,,,77,127
111850,note_off,99,0,0,,5,,,77,127
111851,note_on,1,0,0,,3,,,75,127
111950,note_off,99,0,0,,3,,,75,127
111950,note_off,0,0,0,,11,,,58,127
111951,note_on,1,0,0,,0,,,60,127
111951,note_on,0,0,0,,2,,,74,127
112050,note_off,99,0,0,,2,,,74,127
112051,note_on,1,0,0,,0,,,72,127
112150,note_off,99,0,0,,0,,,72,127
112150,note_off,0,0,0,,0,,,60,127
112151,note_on,1,0,0,,2,,,62,127
112151,note_on,0,0,0,,11,,,70,127
112250,note_off,99,0,0,,11,,,70,127
112251,note_on,1,0,0,,2,,,74,127
112350,note_off,99,0,0,,2,,,74,127
112350,note_off,0,0,0,,2,,,62,127
112351,note_on,1,0,0,,3,,,63,127
112351,note_on,0,0,0,,0,,,72,127
112417,note_off,66,0,0,,0,,,72,127
112418,note_on,1,0,0,,2,,,74,127
112484,note_off,66,0,0,,2,,,74,127
112485,note_on,1,0,0,,3,,,75,127
112551,note_off,66,0,0,,3,,,75,127
112551,note_off,0,0,0,,3,,,63,127
112552,note_on,1,0,0,,5,,,65,127
112552,note_on,0,0,0,,2,,,74,127
112651,note_off,99,0,0,,2,,,74,127
112652,note_on,1,0,0,,0,,,72,127
112751,note_off,99,0,0,,0,,,72,127
112752,note_on,1,0,0,,5,,,53,127
112752,note_on,0,0,0,,11,,,70,127
112851,note_off,99,0,0,,11,,,70,127
112852,note_off,1,0,0,,5,,,65,127
112852,note_on,0,0,0,,10,,,69,127
112951,note_off,99,0,0,,10,,,69,127
112951,note_off,0,0,0,,5,,,53,127
112952,note_on,1,0,0,,11,,,46,127
112952,note_on,0,0,0,,11,,,70,127
113051,note_off,99,0,0,,11,,,70,127
113052,note_on,1,0,0,,10,,,69,127
113151,note_off,99,0,0,,10,,,69,127
113151,note_off,0,0,0,,11,,,46,127
113152,note_on,1,0,0,,0,,,48,127
113152,note_on,0,0,0,,7,,,67,127
113251,note_off,99,0,0,,7,,,67,127
113252,note_on,1,0,0,,5,,,65,127
113351,note_off,99,0,0,,5,,,65,127
113351,note_off,0,0,0,,0,,,48,127
113352,note_on,1,0,0,,2,,,50,127
113352,note_on,0,0,0,,3,,,63,127
113451,note_off,99,0,0,,3,,,63,127
113452,note_on,1,0,0,,2,,,62,127
113551,note_off,99,0,0,,2,,,62,127
113551,note_off,0,0,0,,2,,,50,127
113552,note_on,1,0,0,,3,,,51,127
113552,note_on,0,0,0,,0,,,60,127
113618,note_off,66,0,0,,0,,,60,127
113619,note_on,1,0,0,,2,,,62,127
113685,note_off,66,0,0,,2,,,62,127
113686,note_on,1,0,0,,3,,,63,127
113752,note_off,66,0,0,,3,,,63,127
113752,note_off,0,0,0,,3,,,51,127
113753,note_on,1,0,0,,5,,,53,127
113753,note_on,0,0,0,,2,,,62,127
113852,note_off,99,0,0,,2,,,62,127
113853,note_on,1,0,0,,0,,,60,127
113952,note_off,99,0,0,,0,,,60,127
113953,note_on,1,0,0,,5,,,41,127
113953,note_on,0,0,0,,11,,,58,127
114052,note_off,99,0,0,,11,,,58,127
114053,note_on,1,0,0,,10,,,57,127
114152,note_off,99,0,0,,10,,,57,127
114152,note_off,0,0,0,,5,,,41,127
114152,note_off,0,0,0,,5,,,53,127
114166,note_on,14,0,0,,11,,,46,127
114166,note_on,0,0,0,,11,,,58,127
115856,note_off,1690,0,0,,11,,,58,127
115856,note_off,0,0,0,,11,,,46,127
121344,end_of_track,5488,1,0,,,,,,
