tick,type,time,meta,track,program,channel,pitch,tempo,note,velocity
0,copyright,0,1,0,,,,,,
0,program_change,0,0,0,6,0,,,,
0,pitchwheel,0,0,0,,0,0,,,
0,program_change,0,0,0,6,1,,,,
0,pitchwheel,0,0,0,,1,-590,,,
0,program_change,0,0,0,6,2,,,,
0,pitchwheel,0,0,0,,2,-272,,,
0,program_change,0,0,0,6,3,,,,
0,pitchwheel,0,0,0,,3,-353,,,
0,program_change,0,0,0,6,4,,,,
0,pitchwheel,0,0,0,,4,-560,,,
0,program_change,0,0,0,6,5,,,,
0,pitchwheel,0,0,0,,5,-80,,,
0,program_change,0,0,0,6,6,,,,
0,pitchwheel,0,0,0,,6,-625,,,
0,program_change,0,0,0,6,7,,,,
0,pitchwheel,0,0,0,,7,-130,,,
0,program_change,0,0,0,6,8,,,,
0,pitchwheel,0,0,0,,8,-512,,,
0,program_change,0,0,0,6,10,,,,
0,pitchwheel,0,0,0,,10,-464,,,
0,program_change,0,0,0,6,11,,,,
0,pitchwheel,0,0,0,,11,-208,,,
0,program_change,0,0,0,6,12,,,,
0,pitchwheel,0,0,0,,12,-553,,,
0,set_tempo,0,1,0,,,,500000,,
140,note_on,140,0,0,,2,,,74,127
231,note_off,91,0,0,,2,,,74,127
234,note_on,3,0,0,,0,,,72,127
325,note_off,91,0,0,,0,,,72,127
328,note_on,3,0,0,,2,,,74,127
419,note_off,91,0,0,,2,,,74,127
422,note_on,3,0,0,,0,,,72,127
513,note_off,91,0,0,,0,,,72,127
516,note_on,3,0,0,,12,,,71,127
607,note_off,91,0,0,,12,,,71,127
610,note_on,3,0,0,,0,,,72,127
704,note_on,94,0,0,,10,,,69,127
795,note_off,91,0,0,,10,,,69,127
798,note_on,3,0,0,,7,,,67,127
889,note_off,91,0,0,,7,,,67,127
892,note_on,3,0,0,,10,,,69,127
983,note_off,91,0,0,,10,,,69,127
986,note_on,3,0,0,,7,,,67,127
1077,note_off,91,0,0,,7,,,67,127
1080,note_on,3,0,0,,5,,,65,127
1168,note_off,88,0,0,,0,,,72,127
1171,note_off,3,0,0,,5,,,65,127
1174,note_on,3,0,0,,7,,,67,127
1268,note_on,94,0,0,,2,,,62,127
1359,note_off,91,0,0,,2,,,62,127
1362,note_on,3,0,0,,0,,,60,127
1453,note_off,91,0,0,,0,,,60,127
1456,note_on,3,0,0,,2,,,62,127
1547,note_off,91,0,0,,2,,,62,127
1550,note_on,3,0,0,,0,,,60,127
1641,note_off,91,0,0,,0,,,60,127
1644,note_on,3,0,0,,12,,,59,127
1732,note_off,88,0,0,,7,,,67,127
1735,note_off,3,0,0,,12,,,59,127
1738,note_on,3,0,0,,0,,,60,127
1832,note_on,94,0,0,,10,,,57,127
1923,note_off,91,0,0,,10,,,57,127
1926,note_on,3,0,0,,7,,,55,127
2017,note_off,91,0,0,,7,,,55,127
2020,note_on,3,0,0,,10,,,57,127
2111,note_off,91,0,0,,10,,,57,127
2114,note_on,3,0,0,,7,,,55,127
2205,note_off,91,0,0,,7,,,55,127
2208,note_on,3,0,0,,5,,,53,127
2296,note_off,88,0,0,,0,,,60,127
2299,note_off,3,0,0,,5,,,53,127
2302,note_on,3,0,0,,7,,,55,127
2393,note_off,91,0,0,,7,,,55,127
2396,note_on,3,0,0,,0,,,48,127
2677,note_on,281,0,0,,0,,,60,127
2970,note_on,293,0,0,,11,,,82,127
2970,note_on,0,0,0,,0,,,72,127
3238,note_off,268,0,0,,0,,,48,127
3251,note_on,13,0,0,,2,,,50,127
3389,note_off,138,0,0,,2,,,50,127
3392,note_on,3,0,0,,4,,,52,127
3530,note_off,138,0,0,,4,,,52,127
3530,note_off,0,0,0,,0,,,72,127
3530,note_off,0,0,0,,11,,,82,127
3533,note_on,3,0,0,,5,,,53,127
3533,note_on,0,0,0,,10,,,81,127
3533,note_on,0,0,0,,0,,,72,127
3791,note_off,258,0,0,,0,,,60,127
3814,note_on,23,0,0,,5,,,65,127
4089,note_off,275,0,0,,5,,,53,127
4092,note_off,3,0,0,,0,,,72,127
4092,note_off,0,0,0,,10,,,81,127
4095,note_on,3,0,0,,7,,,55,127
4095,note_on,0,0,0,,0,,,84,127
4186,note_off,91,0,0,,0,,,84,127
4189,note_on,3,0,0,,12,,,83,127
4280,note_off,91,0,0,,12,,,83,127
4283,note_on,3,0,0,,0,,,84,127
4371,note_off,88,0,0,,5,,,65,127
4374,note_off,3,0,0,,0,,,84,127
4377,note_on,3,0,0,,4,,,64,127
4377,note_on,0,0,0,,12,,,83,127
4468,note_off,91,0,0,,12,,,83,127
4471,note_on,3,0,0,,10,,,81,127
4515,note_off,44,0,0,,4,,,64,127
4518,note_on,3,0,0,,2,,,62,127
4562,note_off,44,0,0,,10,,,81,127
4565,note_on,3,0,0,,12,,,83,127
4653,note_off,88,0,0,,7,,,55,127
4656,note_off,3,0,0,,12,,,83,127
4656,note_off,0,0,0,,2,,,62,127
4659,note_on,3,0,0,,0,,,60,127
4659,note_on,0,0,0,,0,,,48,127
4659,note_on,0,0,0,,0,,,84,127
4936,note_off,277,0,0,,0,,,60,127
4940,note_on,4,0,0,,0,,,60,127
5218,note_off,278,0,0,,0,,,84,127
5233,note_on,15,0,0,,11,,,82,127
5233,note_on,0,0,0,,0,,,72,127
5501,note_off,268,0,0,,0,,,48,127
5514,note_on,13,0,0,,2,,,50,127
5652,note_off,138,0,0,,2,,,50,127
5655,note_on,3,0,0,,4,,,52,127
5793,note_off,138,0,0,,4,,,52,127
5793,note_off,0,0,0,,0,,,72,127
5793,note_off,0,0,0,,11,,,82,127
5796,note_on,3,0,0,,5,,,53,127
5796,note_on,0,0,0,,10,,,81,127
5796,note_on,0,0,0,,0,,,72,127
6054,note_off,258,0,0,,0,,,60,127
6077,note_on,23,0,0,,5,,,65,127
6352,note_off,275,0,0,,5,,,53,127
6355,note_off,3,0,0,,0,,,72,127
6355,note_off,0,0,0,,10,,,81,127
6358,note_on,3,0,0,,7,,,55,127
6358,note_on,0,0,0,,0,,,84,127
6449,note_off,91,0,0,,0,,,84,127
6452,note_on,3,0,0,,12,,,83,127
6543,note_off,91,0,0,,12,,,83,127
6546,note_on,3,0,0,,0,,,84,127
6634,note_off,88,0,0,,5,,,65,127
6637,note_off,3,0,0,,0,,,84,127
6640,note_on,3,0,0,,4,,,64,127
6640,note_on,0,0,0,,12,,,83,127
6731,note_off,91,0,0,,12,,,83,127
6734,note_on,3,0,0,,10,,,81,127
6778,note_off,44,0,0,,4,,,64,127
6781,note_on,3,0,0,,2,,,62,127
6825,note_off,44,0,0,,10,,,81,127
6828,note_on,3,0,0,,12,,,83,127
6916,note_off,88,0,0,,7,,,55,127
6919,note_off,3,0,0,,12,,,83,127
6919,note_off,0,0,0,,2,,,62,127
6922,note_on,3,0,0,,0,,,60,127
6922,note_on,0,0,0,,0,,,48,127
6922,note_on,0,0,0,,0,,,84,127
7343,note_off,421,0,0,,0,,,48,127
7479,note_off,136,0,0,,0,,,84,127
7495,note_on,16,0,0,,7,,,79,127
7586,note_off,91,0,0,,7,,,79,127
7589,note_on,3,0,0,,5,,,77,127
7680,note_off,91,0,0,,5,,,77,127
7683,note_on,3,0,0,,4,,,76,127
7756,note_off,73,0,0,,0,,,60,127
7774,note_off,18,0,0,,4,,,76,127
7777,note_on,3,0,0,,4,,,76,127
7868,note_off,91,0,0,,4,,,76,127
7871,note_on,3,0,0,,2,,,74,127
7962,note_off,91,0,0,,2,,,74,127
7965,note_on,3,0,0,,0,,,72,127
8056,note_off,91,0,0,,0,,,72,127
8059,note_on,3,0,0,,7,,,55,127
8059,note_on,0,0,0,,2,,,74,127
8337,note_off,278,0,0,,2,,,74,127
8337,note_off,0,0,0,,7,,,55,127
8340,note_on,3,0,0,,7,,,67,127
8340,note_on,0,0,0,,7,,,79,127
8618,note_off,278,0,0,,7,,,79,127
8621,note_on,3,0,0,,12,,,71,127
8712,note_off,91,0,0,,7,,,67,127
8715,note_on,3,0,0,,5,,,65,127
8806,note_off,91,0,0,,5,,,65,127
8809,note_on,3,0,0,,4,,,64,127
8900,note_off,91,0,0,,4,,,64,127
8900,note_off,0,0,0,,12,,,71,127
8903,note_on,3,0,0,,4,,,64,127
8903,note_on,0,0,0,,0,,,72,127
8994,note_off,91,0,0,,4,,,64,127
8997,note_on,3,0,0,,2,,,62,127
9088,note_off,91,0,0,,2,,,62,127
9091,note_on,3,0,0,,0,,,60,127
9182,note_off,91,0,0,,0,,,60,127
9182,note_off,0,0,0,,0,,,72,127
9185,note_on,3,0,0,,7,,,43,127
9185,note_on,0,0,0,,2,,,74,127
9463,note_off,278,0,0,,2,,,74,127
9466,note_on,3,0,0,,7,,,55,127
9466,note_on,0,0,0,,7,,,79,127
9536,note_off,70,0,0,,7,,,43,127
9744,note_off,208,0,0,,7,,,79,127
9747,note_on,3,0,0,,12,,,71,127
9838,note_off,91,0,0,,7,,,55,127
9841,note_on,3,0,0,,5,,,53,127
9932,note_off,91,0,0,,5,,,53,127
9935,note_on,3,0,0,,4,,,52,127
10026,note_off,91,0,0,,4,,,52,127
10026,note_off,0,0,0,,12,,,71,127
10029,note_on,3,0,0,,4,,,52,127
10029,note_on,0,0,0,,0,,,72,127
10120,note_off,91,0,0,,4,,,52,127
10123,note_on,3,0,0,,2,,,50,127
10214,note_off,91,0,0,,2,,,50,127
10217,note_on,3,0,0,,0,,,48,127
10308,note_off,91,0,0,,0,,,48,127
10308,note_off,0,0,0,,0,,,72,127
10311,note_on,3,0,0,,7,,,43,127
10311,note_on,0,0,0,,2,,,74,127
10867,note_off,556,0,0,,7,,,43,127
10870,note_off,3,0,0,,2,,,74,127
10885,note_on,15,0,0,,7,,,67,127
10976,note_off,91,0,0,,7,,,67,127
10979,note_on,3,0,0,,6,,,66,127
11070,note_off,91,0,0,,6,,,66,127
11073,note_on,3,0,0,,7,,,67,127
11164,note_off,91,0,0,,7,,,67,127
11167,note_on,3,0,0,,7,,,55,127
11167,note_on,0,0,0,,7,,,67,127
11258,note_off,91,0,0,,7,,,67,127
11261,note_on,3,0,0,,10,,,69,127
11352,note_off,91,0,0,,10,,,69,127
11355,note_on,3,0,0,,12,,,71,127
11446,note_off,91,0,0,,12,,,71,127
11446,note_off,0,0,0,,7,,,55,127
11449,note_on,3,0,0,,10,,,57,127
11449,note_on,0,0,0,,12,,,71,127
11727,note_off,278,0,0,,12,,,71,127
11730,note_on,3,0,0,,10,,,45,127
11730,note_on,0,0,0,,0,,,72,127
12008,note_off,278,0,0,,0,,,72,127
12011,note_on,3,0,0,,10,,,69,127
12102,note_off,91,0,0,,10,,,69,127
12105,note_on,3,0,0,,8,,,68,127
12196,note_off,91,0,0,,8,,,68,127
12199,note_on,3,0,0,,10,,,69,127
12290,note_off,91,0,0,,10,,,69,127
12290,note_off,0,0,0,,10,,,45,127
12291,note_off,1,0,0,,10,,,57,127
12292,note_on,1,0,0,,10,,,57,127
12292,note_on,0,0,0,,10,,,69,127
12383,note_off,91,0,0,,10,,,69,127
12386,note_on,3,0,0,,12,,,71,127
12477,note_off,91,0,0,,12,,,71,127
12480,note_on,3,0,0,,0,,,72,127
12571,note_off,91,0,0,,0,,,72,127
12571,note_off,0,0,0,,10,,,57,127
12574,note_on,3,0,0,,12,,,59,127
12574,note_on,0,0,0,,0,,,72,127
12852,note_off,278,0,0,,0,,,72,127
12855,note_on,3,0,0,,12,,,47,127
12855,note_on,0,0,0,,2,,,74,127
13130,note_off,275,0,0,,12,,,59,127
13148,note_on,18,0,0,,7,,,55,127
13149,note_off,1,0,0,,12,,,47,127
13238,note_off,89,0,0,,7,,,55,127
13241,note_on,3,0,0,,6,,,54,127
13276,note_off,35,0,0,,2,,,74,127
13332,note_off,56,0,0,,6,,,54,127
13335,note_on,3,0,0,,7,,,55,127
13426,note_off,91,0,0,,7,,,55,127
13429,note_on,3,0,0,,7,,,55,127
13429,note_on,0,0,0,,12,,,71,127
13520,note_off,91,0,0,,7,,,55,127
13523,note_on,3,0,0,,10,,,57,127
13614,note_off,91,0,0,,10,,,57,127
13617,note_on,3,0,0,,12,,,59,127
13708,note_off,91,0,0,,12,,,59,127
13708,note_off,0,0,0,,12,,,71,127
13711,note_on,3,0,0,,12,,,59,127
13711,note_on,0,0,0,,2,,,74,127
13989,note_off,278,0,0,,2,,,74,127
13989,note_off,0,0,0,,12,,,59,127
13992,note_on,3,0,0,,0,,,60,127
13992,note_on,0,0,0,,4,,,76,127
14270,note_off,278,0,0,,0,,,60,127
14285,note_on,15,0,0,,10,,,57,127
14376,note_off,91,0,0,,10,,,57,127
14379,note_on,3,0,0,,8,,,56,127
14414,note_off,35,0,0,,4,,,76,127
14470,note_off,56,0,0,,8,,,56,127
14473,note_on,3,0,0,,10,,,57,127
14564,note_off,91,0,0,,10,,,57,127
14567,note_on,3,0,0,,10,,,57,127
14567,note_on,0,0,0,,0,,,72,127
14658,note_off,91,0,0,,10,,,57,127
14661,note_on,3,0,0,,12,,,59,127
14752,note_off,91,0,0,,12,,,59,127
14755,note_on,3,0,0,,0,,,60,127
14846,note_off,91,0,0,,0,,,60,127
14846,note_off,0,0,0,,0,,,72,127
14849,note_on,3,0,0,,0,,,60,127
14849,note_on,0,0,0,,4,,,76,127
15127,note_off,278,0,0,,4,,,76,127
15127,note_off,0,0,0,,0,,,60,127
15130,note_on,3,0,0,,2,,,62,127
15130,note_on,0,0,0,,6,,,78,127
15423,note_off,293,0,0,,6,,,78,127
15423,note_on,0,0,0,,2,,,74,127
15514,note_off,91,0,0,,2,,,74,127
15517,note_on,3,0,0,,1,,,73,127
15608,note_off,91,0,0,,1,,,73,127
15611,note_on,3,0,0,,2,,,74,127
15687,note_off,76,0,0,,2,,,62,127
15702,note_off,15,0,0,,2,,,74,127
15705,note_on,3,0,0,,0,,,60,127
15705,note_on,0,0,0,,2,,,74,127
15796,note_off,91,0,0,,2,,,74,127
15799,note_on,3,0,0,,4,,,76,127
15890,note_off,91,0,0,,4,,,76,127
15893,note_on,3,0,0,,6,,,78,127
15984,note_off,91,0,0,,6,,,78,127
15984,note_off,0,0,0,,0,,,60,127
15987,note_on,3,0,0,,12,,,59,127
15987,note_on,0,0,0,,10,,,81,127
16078,note_off,91,0,0,,10,,,81,127
16081,note_on,3,0,0,,7,,,79,127
16172,note_off,91,0,0,,7,,,79,127
16175,note_on,3,0,0,,10,,,81,127
16266,note_off,91,0,0,,10,,,81,127
16266,note_off,0,0,0,,12,,,59,127
16269,note_on,3,0,0,,7,,,55,127
16269,note_on,0,0,0,,7,,,79,127
16360,note_off,91,0,0,,7,,,79,127
16363,note_on,3,0,0,,6,,,78,127
16454,note_off,91,0,0,,6,,,78,127
16457,note_on,3,0,0,,7,,,79,127
16548,note_off,91,0,0,,7,,,79,127
16548,note_off,0,0,0,,7,,,55,127
16551,note_on,3,0,0,,6,,,54,127
16551,note_on,0,0,0,,10,,,81,127
16642,note_off,91,0,0,,10,,,81,127
16645,note_on,3,0,0,,7,,,79,127
16736,note_off,91,0,0,,7,,,79,127
16739,note_on,3,0,0,,6,,,78,127
16830,note_off,91,0,0,,6,,,78,127
16830,note_off,0,0,0,,6,,,54,127
16833,note_on,3,0,0,,2,,,50,127
16833,note_on,0,0,0,,4,,,76,127
16924,note_off,91,0,0,,4,,,76,127
16927,note_on,3,0,0,,2,,,74,127
17018,note_off,91,0,0,,2,,,74,127
17021,note_on,3,0,0,,0,,,72,127
17112,note_off,91,0,0,,0,,,72,127
17112,note_off,0,0,0,,2,,,50,127
17115,note_on,3,0,0,,7,,,55,127
17115,note_on,0,0,0,,0,,,72,127
17393,note_off,278,0,0,,0,,,72,127
17408,note_on,15,0,0,,7,,,43,127
17408,note_on,0,0,0,,12,,,71,127
17671,note_off,263,0,0,,7,,,55,127
17686,note_off,15,0,0,,12,,,71,127
17686,note_off,0,0,0,,7,,,43,127
17701,note_on,15,0,0,,7,,,67,127
17792,note_off,91,0,0,,7,,,67,127
17795,note_on,3,0,0,,10,,,69,127
17886,note_off,91,0,0,,10,,,69,127
17889,note_on,3,0,0,,12,,,71,127
17980,note_off,91,0,0,,12,,,71,127
17983,note_on,3,0,0,,7,,,79,127
17983,note_on,0,0,0,,12,,,71,127
18074,note_off,91,0,0,,12,,,71,127
18077,note_on,3,0,0,,0,,,72,127
18168,note_off,91,0,0,,0,,,72,127
18171,note_on,3,0,0,,2,,,74,127
18262,note_off,91,0,0,,2,,,74,127
18265,note_on,3,0,0,,0,,,48,127
18543,note_off,278,0,0,,7,,,79,127
18546,note_on,3,0,0,,4,,,76,127
18824,note_off,278,0,0,,0,,,48,127
18836,note_on,12,0,0,,0,,,60,127
18927,note_off,91,0,0,,0,,,60,127
18933,note_on,6,0,0,,2,,,62,127
18968,note_off,35,0,0,,4,,,76,127
19024,note_off,56,0,0,,2,,,62,127
19027,note_on,3,0,0,,4,,,64,127
19118,note_off,91,0,0,,4,,,64,127
19121,note_on,3,0,0,,7,,,79,127
19121,note_on,0,0,0,,4,,,64,127
19212,note_off,91,0,0,,4,,,64,127
19215,note_on,3,0,0,,6,,,66,127
19306,note_off,91,0,0,,6,,,66,127
19309,note_on,3,0,0,,7,,,67,127
19400,note_off,91,0,0,,7,,,67,127
19403,note_on,3,0,0,,7,,,43,127
19681,note_off,278,0,0,,7,,,79,127
19684,note_on,3,0,0,,2,,,74,127
19962,note_off,278,0,0,,7,,,43,127
19965,note_on,3,0,0,,7,,,55,127
20056,note_off,91,0,0,,7,,,55,127
20059,note_on,3,0,0,,10,,,57,127
20106,note_off,47,0,0,,2,,,74,127
20150,note_off,44,0,0,,10,,,57,127
20153,note_on,3,0,0,,12,,,59,127
20244,note_off,91,0,0,,12,,,59,127
20247,note_on,3,0,0,,7,,,79,127
20247,note_on,0,0,0,,12,,,59,127
20338,note_off,91,0,0,,12,,,59,127
20341,note_on,3,0,0,,0,,,60,127
20432,note_off,91,0,0,,0,,,60,127
20435,note_on,3,0,0,,2,,,62,127
20526,note_off,91,0,0,,2,,,62,127
20529,note_on,3,0,0,,0,,,36,127
20620,note_off,91,0,0,,7,,,79,127
20623,note_on,3,0,0,,7,,,79,127
20714,note_off,91,0,0,,7,,,79,127
20717,note_on,3,0,0,,6,,,78,127
20808,note_off,91,0,0,,6,,,78,127
20811,note_on,3,0,0,,4,,,76,127
20902,note_off,91,0,0,,4,,,76,127
20905,note_on,3,0,0,,2,,,74,127
20996,note_off,91,0,0,,2,,,74,127
20999,note_on,3,0,0,,0,,,72,127
21090,note_off,91,0,0,,0,,,72,127
21090,note_off,0,0,0,,0,,,36,127
21093,note_on,3,0,0,,12,,,71,127
21093,note_on,0,0,0,,2,,,38,127
21184,note_off,91,0,0,,12,,,71,127
21187,note_on,3,0,0,,0,,,72,127
21278,note_off,91,0,0,,0,,,72,127
21281,note_on,3,0,0,,2,,,74,127
21372,note_off,91,0,0,,2,,,74,127
21372,note_off,0,0,0,,2,,,38,127
21375,note_on,3,0,0,,7,,,67,127
21375,note_on,0,0,0,,2,,,50,127
21466,note_off,91,0,0,,7,,,67,127
21469,note_on,3,0,0,,10,,,69,127
21560,note_off,91,0,0,,10,,,69,127
21563,note_on,3,0,0,,6,,,66,127
21654,note_off,91,0,0,,6,,,66,127
21654,note_off,0,0,0,,2,,,50,127
21657,note_on,3,0,0,,6,,,66,127
21657,note_on,0,0,0,,7,,,55,127
21944,note_on,287,0,0,,7,,,43,127
21944,note_on,0,0,0,,7,,,67,127
21950,note_off,6,0,0,,6,,,66,127
22213,note_off,263,0,0,,7,,,55,127
22222,note_off,9,0,0,,7,,,67,127
22266,note_off,44,0,0,,7,,,43,127
22266,note_on,0,0,0,,11,,,70,127
22357,note_off,91,0,0,,11,,,70,127
22360,note_on,3,0,0,,0,,,72,127
22451,note_off,91,0,0,,0,,,72,127
22454,note_on,3,0,0,,2,,,74,127
22545,note_off,91,0,0,,2,,,74,127
22548,note_on,3,0,0,,2,,,74,127
22639,note_off,91,0,0,,2,,,74,127
22642,note_on,3,0,0,,3,,,75,127
22733,note_off,91,0,0,,3,,,75,127
22736,note_on,3,0,0,,5,,,77,127
22827,note_off,91,0,0,,5,,,77,127
22830,note_on,3,0,0,,3,,,75,127
22830,note_on,0,0,0,,7,,,79,127
22830,note_on,0,0,0,,0,,,60,127
22830,note_on,0,0,0,,0,,,48,127
23108,note_off,278,0,0,,0,,,48,127
23108,note_off,0,0,0,,0,,,60,127
23108,note_off,0,0,0,,7,,,79,127
23108,note_off,0,0,0,,3,,,75,127
23111,note_on,3,0,0,,2,,,74,127
23111,note_on,0,0,0,,6,,,78,127
23111,note_on,0,0,0,,2,,,50,127
23111,note_on,0,0,0,,2,,,62,127
23389,note_off,278,0,0,,2,,,50,127
23392,note_on,3,0,0,,3,,,51,127
23483,note_off,91,0,0,,6,,,78,127
23486,note_on,3,0,0,,7,,,79,127
23577,note_off,91,0,0,,7,,,79,127
23580,note_on,3,0,0,,10,,,81,127
23668,note_off,88,0,0,,2,,,62,127
23668,note_off,0,0,0,,2,,,74,127
23671,note_off,3,0,0,,10,,,81,127
23674,note_on,3,0,0,,0,,,72,127
23674,note_on,0,0,0,,10,,,81,127
23674,note_on,0,0,0,,7,,,79,127
23674,note_on,0,0,0,,0,,,60,127
23765,note_off,91,0,0,,7,,,79,127
23765,note_off,0,0,0,,10,,,81,127
23768,note_on,3,0,0,,6,,,78,127
23859,note_off,91,0,0,,6,,,78,127
23862,note_on,3,0,0,,7,,,79,127
23950,note_off,88,0,0,,3,,,51,127
23953,note_off,3,0,0,,7,,,79,127
23953,note_off,0,0,0,,0,,,60,127
23953,note_off,0,0,0,,0,,,72,127
23956,note_on,3,0,0,,7,,,79,127
23956,note_on,0,0,0,,2,,,74,127
23956,note_on,0,0,0,,2,,,50,127
23956,note_on,0,0,0,,2,,,62,127
24234,note_off,278,0,0,,7,,,79,127
24237,note_on,3,0,0,,10,,,81,127
24512,note_off,275,0,0,,2,,,50,127
24512,note_off,0,0,0,,2,,,74,127
24515,note_off,3,0,0,,10,,,81,127
24527,note_off,12,0,0,,2,,,62,127
24542,note_on,15,0,0,,11,,,70,127
24633,note_off,91,0,0,,11,,,70,127
24636,note_on,3,0,0,,0,,,72,127
24727,note_off,91,0,0,,0,,,72,127
24730,note_on,3,0,0,,2,,,74,127
24821,note_off,91,0,0,,2,,,74,127
24824,note_on,3,0,0,,2,,,74,127
24915,note_off,91,0,0,,2,,,74,127
24918,note_on,3,0,0,,3,,,75,127
25009,note_off,91,0,0,,3,,,75,127
25012,note_on,3,0,0,,5,,,77,127
25103,note_off,91,0,0,,5,,,77,127
25106,note_on,3,0,0,,0,,,48,127
25106,note_on,0,0,0,,0,,,60,127
25106,note_on,0,0,0,,7,,,79,127
25106,note_on,0,0,0,,3,,,75,127
25384,note_off,278,0,0,,3,,,75,127
25384,note_off,0,0,0,,7,,,79,127
25384,note_off,0,0,0,,0,,,60,127
25384,note_off,0,0,0,,0,,,48,127
25387,note_on,3,0,0,,2,,,50,127
25387,note_on,0,0,0,,2,,,62,127
25387,note_on,0,0,0,,2,,,74,127
25387,note_on,0,0,0,,6,,,78,127
25665,note_off,278,0,0,,2,,,50,127
25668,note_on,3,0,0,,3,,,51,127
25759,note_off,91,0,0,,6,,,78,127
25762,note_on,3,0,0,,7,,,79,127
25853,note_off,91,0,0,,7,,,79,127
25856,note_on,3,0,0,,10,,,81,127
25944,note_off,88,0,0,,2,,,74,127
25944,note_off,0,0,0,,2,,,62,127
25947,note_off,3,0,0,,10,,,81,127
25950,note_on,3,0,0,,0,,,60,127
25950,note_on,0,0,0,,10,,,81,127
25950,note_on,0,0,0,,7,,,79,127
25950,note_on,0,0,0,,0,,,72,127
26041,note_off,91,0,0,,7,,,79,127
26041,note_off,0,0,0,,10,,,81,127
26044,note_on,3,0,0,,6,,,78,127
26135,note_off,91,0,0,,6,,,78,127
26138,note_on,3,0,0,,7,,,79,127
26226,note_off,88,0,0,,3,,,51,127
26229,note_off,3,0,0,,7,,,79,127
26229,note_off,0,0,0,,0,,,72,127
26229,note_off,0,0,0,,0,,,60,127
26232,note_on,3,0,0,,2,,,50,127
26232,note_on,0,0,0,,2,,,62,127
26232,note_on,0,0,0,,2,,,74,127
26232,note_on,0,0,0,,7,,,79,127
26510,note_off,278,0,0,,7,,,79,127
26525,note_on,15,0,0,,10,,,81,127
26654,note_off,129,0,0,,2,,,74,127
26730,note_off,76,0,0,,2,,,62,127
26730,note_off,0,0,0,,2,,,50,127
26736,note_off,6,0,0,,10,,,81,127
26818,note_on,82,0,0,,2,,,86,127
26818,note_on,0,0,0,,11,,,82,127
26818,note_on,0,0,0,,5,,,77,127
26818,note_on,0,0,0,,11,,,70,127
26909,note_off,91,0,0,,11,,,70,127
26912,note_on,3,0,0,,0,,,72,127
27003,note_off,91,0,0,,0,,,72,127
27006,note_on,3,0,0,,2,,,74,127
27097,note_off,91,0,0,,2,,,74,127
27100,note_on,3,0,0,,2,,,74,127
27191,note_off,91,0,0,,2,,,74,127
27194,note_on,3,0,0,,3,,,75,127
27285,note_off,91,0,0,,3,,,75,127
27285,note_off,0,0,0,,5,,,77,127
27288,note_on,3,0,0,,5,,,77,127
27379,note_off,91,0,0,,5,,,77,127
27382,note_on,3,0,0,,5,,,77,127
27382,note_on,0,0,0,,5,,,53,127
27660,note_off,278,0,0,,11,,,82,127
27660,note_off,0,0,0,,2,,,86,127
27663,note_on,3,0,0,,10,,,81,127
27663,note_on,0,0,0,,0,,,84,127
27938,note_off,275,0,0,,5,,,77,127
27941,note_off,3,0,0,,0,,,84,127
27941,note_off,0,0,0,,10,,,81,127
27941,note_off,0,0,0,,5,,,53,127
27944,note_on,3,0,0,,5,,,77,127
27944,note_on,0,0,0,,11,,,82,127
27944,note_on,0,0,0,,2,,,86,127
27944,note_on,0,0,0,,11,,,70,127
28035,note_off,91,0,0,,11,,,70,127
28038,note_on,3,0,0,,0,,,72,127
28129,note_off,91,0,0,,0,,,72,127
28132,note_on,3,0,0,,2,,,74,127
28223,note_off,91,0,0,,2,,,74,127
28226,note_on,3,0,0,,2,,,74,127
28317,note_off,91,0,0,,2,,,74,127
28320,note_on,3,0,0,,3,,,75,127
28411,note_off,91,0,0,,3,,,75,127
28414,note_off,3,0,0,,5,,,77,127
28414,note_on,0,0,0,,5,,,77,127
28505,note_off,91,0,0,,5,,,77,127
28508,note_on,3,0,0,,0,,,48,127
28786,note_off,278,0,0,,2,,,86,127
28786,note_off,0,0,0,,11,,,82,127
28789,note_on,3,0,0,,11,,,82,127
28789,note_on,0,0,0,,0,,,84,127
28789,note_on,0,0,0,,8,,,80,127
28880,note_off,91,0,0,,8,,,80,127
28880,note_off,0,0,0,,11,,,82,127
28883,note_on,3,0,0,,7,,,79,127
28974,note_off,91,0,0,,7,,,79,127
28977,note_on,3,0,0,,8,,,80,127
29068,note_off,91,0,0,,8,,,80,127
29068,note_off,0,0,0,,0,,,84,127
29068,note_off,0,0,0,,0,,,48,127
29071,note_on,3,0,0,,2,,,86,127
29071,note_on,0,0,0,,7,,,79,127
29071,note_on,0,0,0,,12,,,71,127
29162,note_off,91,0,0,,12,,,71,127
29165,note_on,3,0,0,,0,,,72,127
29256,note_off,91,0,0,,0,,,72,127
29259,note_on,3,0,0,,2,,,74,127
29350,note_off,91,0,0,,2,,,74,127
29353,note_on,3,0,0,,2,,,74,127
29444,note_off,91,0,0,,2,,,74,127
29447,note_on,3,0,0,,3,,,75,127
29538,note_off,91,0,0,,3,,,75,127
29541,note_on,3,0,0,,5,,,77,127
29632,note_off,91,0,0,,5,,,77,127
29635,note_on,3,0,0,,0,,,48,127
29913,note_off,278,0,0,,7,,,79,127
29913,note_off,0,0,0,,2,,,86,127
29916,note_on,3,0,0,,8,,,80,127
29916,note_on,0,0,0,,0,,,84,127
29916,note_on,0,0,0,,11,,,82,127
30007,note_off,91,0,0,,11,,,82,127
30007,note_off,0,0,0,,8,,,80,127
30010,note_on,3,0,0,,7,,,79,127
30101,note_off,91,0,0,,7,,,79,127
30104,note_on,3,0,0,,8,,,80,127
30195,note_off,91,0,0,,8,,,80,127
30195,note_off,0,0,0,,0,,,84,127
30195,note_off,0,0,0,,0,,,48,127
30198,note_on,3,0,0,,7,,,79,127
30198,note_on,0,0,0,,2,,,86,127
30198,note_on,0,0,0,,12,,,71,127
30289,note_off,91,0,0,,12,,,71,127
30292,note_on,3,0,0,,0,,,72,127
30383,note_off,91,0,0,,0,,,72,127
30386,note_on,3,0,0,,2,,,74,127
30477,note_off,91,0,0,,2,,,74,127
30480,note_on,3,0,0,,2,,,74,127
30571,note_off,91,0,0,,2,,,74,127
30574,note_on,3,0,0,,3,,,75,127
30665,note_off,91,0,0,,3,,,75,127
30668,note_on,3,0,0,,5,,,77,127
30759,note_off,91,0,0,,5,,,77,127
30762,note_on,3,0,0,,10,,,45,127
31040,note_off,278,0,0,,2,,,86,127
31040,note_off,0,0,0,,7,,,79,127
31043,note_on,3,0,0,,3,,,75,127
31043,note_on,0,0,0,,7,,,79,127
31134,note_off,91,0,0,,7,,,79,127
31137,note_on,3,0,0,,6,,,78,127
31228,note_off,91,0,0,,6,,,78,127
31231,note_on,3,0,0,,7,,,79,127
31322,note_off,91,0,0,,7,,,79,127
31322,note_off,0,0,0,,3,,,75,127
31322,note_off,0,0,0,,10,,,45,127
31325,note_on,3,0,0,,3,,,75,127
31325,note_on,0,0,0,,7,,,79,127
31325,note_on,0,0,0,,6,,,66,127
31416,note_off,91,0,0,,6,,,66,127
31419,note_on,3,0,0,,7,,,67,127
31510,note_off,91,0,0,,7,,,67,127
31513,note_on,3,0,0,,10,,,69,127
31604,note_off,91,0,0,,10,,,69,127
31604,note_off,0,0,0,,7,,,79,127
31604,note_off,0,0,0,,3,,,75,127
31607,note_on,3,0,0,,10,,,81,127
31607,note_on,0,0,0,,10,,,69,127
31698,note_off,91,0,0,,10,,,69,127
31701,note_on,3,0,0,,11,,,70,127
31792,note_off,91,0,0,,11,,,70,127
31795,note_on,3,0,0,,0,,,72,127
31886,note_off,91,0,0,,0,,,72,127
31889,note_on,3,0,0,,10,,,45,127
32167,note_off,278,0,0,,10,,,81,127
32170,note_on,3,0,0,,7,,,79,127
32170,note_on,0,0,0,,2,,,74,127
32170,note_on,0,0,0,,10,,,81,127
32261,note_off,91,0,0,,10,,,81,127
32261,note_off,0,0,0,,7,,,79,127
32264,note_on,3,0,0,,6,,,78,127
32355,note_off,91,0,0,,6,,,78,127
32358,note_on,3,0,0,,7,,,79,127
32449,note_off,91,0,0,,7,,,79,127
32449,note_off,0,0,0,,2,,,74,127
32449,note_off,0,0,0,,10,,,45,127
32452,note_on,3,0,0,,3,,,75,127
32452,note_on,0,0,0,,7,,,79,127
32452,note_on,0,0,0,,6,,,66,127
32543,note_off,91,0,0,,6,,,66,127
32546,note_on,3,0,0,,7,,,67,127
32637,note_off,91,0,0,,7,,,67,127
32640,note_on,3,0,0,,10,,,69,127
32731,note_off,91,0,0,,10,,,69,127
32731,note_off,0,0,0,,7,,,79,127
32731,note_off,0,0,0,,3,,,75,127
32734,note_on,3,0,0,,10,,,81,127
32734,note_on,0,0,0,,10,,,69,127
32825,note_off,91,0,0,,10,,,69,127
32828,note_on,3,0,0,,11,,,70,127
32919,note_off,91,0,0,,11,,,70,127
32922,note_on,3,0,0,,0,,,72,127
33013,note_off,91,0,0,,0,,,72,127
33016,note_on,3,0,0,,2,,,38,127
33294,note_off,278,0,0,,10,,,81,127
33320,note_on,26,0,0,,6,,,78,127
33411,note_off,91,0,0,,6,,,78,127
33414,note_on,3,0,0,,7,,,79,127
33505,note_off,91,0,0,,7,,,79,127
33508,note_on,3,0,0,,10,,,81,127
33599,note_off,91,0,0,,10,,,81,127
33602,note_on,3,0,0,,10,,,81,127
33693,note_off,91,0,0,,10,,,81,127
33696,note_on,3,0,0,,12,,,83,127
33719,note_off,23,0,0,,2,,,38,127
33786,note_off,67,0,0,,12,,,83,127
33789,note_on,3,0,0,,0,,,84,127
33880,note_off,91,0,0,,0,,,84,127
33883,note_on,3,0,0,,2,,,50,127
33883,note_on,0,0,0,,0,,,84,127
33974,note_off,91,0,0,,0,,,84,127
33977,note_on,3,0,0,,12,,,83,127
34068,note_off,91,0,0,,12,,,83,127
34071,note_on,3,0,0,,10,,,81,127
34162,note_off,91,0,0,,10,,,81,127
34162,note_off,0,0,0,,2,,,50,127
34165,note_on,3,0,0,,7,,,55,127
34165,note_on,0,0,0,,12,,,83,127
34256,note_off,91,0,0,,12,,,83,127
34259,note_on,3,0,0,,10,,,81,127
34350,note_off,91,0,0,,10,,,81,127
34353,note_on,3,0,0,,12,,,83,127
34444,note_off,91,0,0,,12,,,83,127
34444,note_off,0,0,0,,7,,,55,127
34447,note_on,3,0,0,,0,,,60,127
34447,note_on,0,0,0,,2,,,86,127
34447,note_on,0,0,0,,0,,,84,127
34538,note_off,91,0,0,,0,,,84,127
34538,note_off,0,0,0,,2,,,86,127
34541,note_on,3,0,0,,12,,,83,127
34632,note_off,91,0,0,,12,,,83,127
34635,note_on,3,0,0,,10,,,81,127
34726,note_off,91,0,0,,10,,,81,127
34726,note_off,0,0,0,,0,,,60,127
34729,note_on,3,0,0,,2,,,62,127
34729,note_on,0,0,0,,7,,,79,127
35007,note_off,278,0,0,,7,,,79,127
35010,note_on,3,0,0,,2,,,50,127
35010,note_on,0,0,0,,6,,,78,127
35150,note_off,140,0,0,,2,,,62,127
35288,note_off,138,0,0,,6,,,78,127
35288,note_off,0,0,0,,2,,,50,127
35291,note_on,3,0,0,,7,,,43,127
35291,note_on,0,0,0,,6,,,78,127
35569,note_off,278,0,0,,6,,,78,127
35572,note_on,3,0,0,,7,,,79,127
35821,note_off,249,0,0,,7,,,79,127
35850,note_off,29,0,0,,7,,,43,127
35876,note_on,26,0,0,,11,,,82,127
35876,note_on,0,0,0,,2,,,86,127
35876,note_on,0,0,0,,5,,,77,127
35876,note_on,0,0,0,,11,,,70,127
35967,note_off,91,0,0,,11,,,70,127
35970,note_on,3,0,0,,0,,,72,127
36061,note_off,91,0,0,,0,,,72,127
36064,note_on,3,0,0,,2,,,74,127
36155,note_off,91,0,0,,2,,,74,127
36158,note_on,3,0,0,,2,,,74,127
36249,note_off,91,0,0,,2,,,74,127
36252,note_on,3,0,0,,3,,,75,127
36343,note_off,91,0,0,,3,,,75,127
36343,note_off,0,0,0,,5,,,77,127
36346,note_on,3,0,0,,5,,,77,127
36437,note_off,91,0,0,,5,,,77,127
36440,note_on,3,0,0,,5,,,53,127
36718,note_off,278,0,0,,2,,,86,127
36718,note_off,0,0,0,,11,,,82,127
36721,note_on,3,0,0,,0,,,84,127
36721,note_on,0,0,0,,10,,,81,127
36999,note_off,278,0,0,,10,,,81,127
36999,note_off,0,0,0,,0,,,84,127
36999,note_off,0,0,0,,5,,,53,127
37002,note_on,3,0,0,,11,,,82,127
37002,note_on,0,0,0,,2,,,86,127
37002,note_on,0,0,0,,5,,,77,127
37002,note_on,0,0,0,,11,,,70,127
37093,note_off,91,0,0,,11,,,70,127
37096,note_on,3,0,0,,0,,,72,127
37187,note_off,91,0,0,,0,,,72,127
37190,note_on,3,0,0,,2,,,74,127
37281,note_off,91,0,0,,2,,,74,127
37284,note_on,3,0,0,,2,,,74,127
37375,note_off,91,0,0,,2,,,74,127
37378,note_on,3,0,0,,3,,,75,127
37469,note_off,91,0,0,,3,,,75,127
37469,note_off,0,0,0,,5,,,77,127
37472,note_on,3,0,0,,5,,,77,127
37563,note_off,91,0,0,,5,,,77,127
37566,note_on,3,0,0,,0,,,48,127
37844,note_off,278,0,0,,2,,,86,127
37844,note_off,0,0,0,,11,,,82,127
37847,note_on,3,0,0,,11,,,82,127
37847,note_on,0,0,0,,8,,,80,127
37847,note_on,0,0,0,,0,,,84,127
37938,note_off,91,0,0,,8,,,80,127
37938,note_off,0,0,0,,11,,,82,127
37941,note_on,3,0,0,,7,,,79,127
38032,note_off,91,0,0,,7,,,79,127
38035,note_on,3,0,0,,8,,,80,127
38126,note_off,91,0,0,,8,,,80,127
38126,note_off,0,0,0,,0,,,84,127
38126,note_off,0,0,0,,0,,,48,127
38129,note_on,3,0,0,,2,,,86,127
38129,note_on,0,0,0,,7,,,79,127
38129,note_on,0,0,0,,12,,,71,127
38220,note_off,91,0,0,,12,,,71,127
38223,note_on,3,0,0,,0,,,72,127
38314,note_off,91,0,0,,0,,,72,127
38317,note_on,3,0,0,,2,,,74,127
38408,note_off,91,0,0,,2,,,74,127
38411,note_on,3,0,0,,2,,,74,127
38502,note_off,91,0,0,,2,,,74,127
38505,note_on,3,0,0,,3,,,75,127
38596,note_off,91,0,0,,3,,,75,127
38599,note_on,3,0,0,,5,,,77,127
38690,note_off,91,0,0,,5,,,77,127
38693,note_on,3,0,0,,0,,,48,127
38971,note_off,278,0,0,,7,,,79,127
38971,note_off,0,0,0,,2,,,86,127
38974,note_on,3,0,0,,8,,,80,127
38974,note_on,0,0,0,,11,,,82,127
38974,note_on,0,0,0,,0,,,84,127
39065,note_off,91,0,0,,11,,,82,127
39065,note_off,0,0,0,,8,,,80,127
39068,note_on,3,0,0,,7,,,79,127
39159,note_off,91,0,0,,7,,,79,127
39162,note_on,3,0,0,,8,,,80,127
39253,note_off,91,0,0,,8,,,80,127
39253,note_off,0,0,0,,0,,,84,127
39253,note_off,0,0,0,,0,,,48,127
39256,note_on,3,0,0,,7,,,79,127
39256,note_on,0,0,0,,2,,,86,127
39256,note_on,0,0,0,,12,,,71,127
39347,note_off,91,0,0,,12,,,71,127
39350,note_on,3,0,0,,0,,,72,127
39441,note_off,91,0,0,,0,,,72,127
39444,note_on,3,0,0,,2,,,74,127
39535,note_off,91,0,0,,2,,,74,127
39538,note_on,3,0,0,,2,,,74,127
39629,note_off,91,0,0,,2,,,74,127
39632,note_on,3,0,0,,3,,,75,127
39723,note_off,91,0,0,,3,,,75,127
39726,note_on,3,0,0,,5,,,77,127
39817,note_off,91,0,0,,5,,,77,127
39820,note_on,3,0,0,,10,,,45,127
40098,note_off,278,0,0,,2,,,86,127
40098,note_off,0,0,0,,7,,,79,127
40101,note_on,3,0,0,,7,,,79,127
40101,note_on,0,0,0,,3,,,75,127
40192,note_off,91,0,0,,7,,,79,127
40195,note_on,3,0,0,,6,,,78,127
40286,note_off,91,0,0,,6,,,78,127
40289,note_on,3,0,0,,7,,,79,127
40380,note_off,91,0,0,,7,,,79,127
40380,note_off,0,0,0,,3,,,75,127
40380,note_off,0,0,0,,10,,,45,127
40383,note_on,3,0,0,,7,,,79,127
40383,note_on,0,0,0,,3,,,75,127
40383,note_on,0,0,0,,6,,,66,127
40474,note_off,91,0,0,,6,,,66,127
40477,note_on,3,0,0,,7,,,67,127
40568,note_off,91,0,0,,7,,,67,127
40571,note_on,3,0,0,,10,,,69,127
40662,note_off,91,0,0,,10,,,69,127
40662,note_off,0,0,0,,7,,,79,127
40665,note_on,3,0,0,,10,,,81,127
40665,note_on,0,0,0,,10,,,69,127
40756,note_off,91,0,0,,10,,,69,127
40759,note_on,3,0,0,,11,,,70,127
40850,note_off,91,0,0,,11,,,70,127
40853,note_on,3,0,0,,0,,,72,127
40944,note_off,91,0,0,,0,,,72,127
40947,note_on,3,0,0,,10,,,45,127
41225,note_off,278,0,0,,10,,,81,127
41226,note_off,1,0,0,,3,,,75,127
41227,note_on,1,0,0,,7,,,79,127
41227,note_on,0,0,0,,10,,,81,127
41227,note_on,0,0,0,,3,,,75,127
41318,note_off,91,0,0,,10,,,81,127
41318,note_off,0,0,0,,7,,,79,127
41321,note_on,3,0,0,,6,,,78,127
41412,note_off,91,0,0,,6,,,78,127
41415,note_on,3,0,0,,7,,,79,127
41506,note_off,91,0,0,,7,,,79,127
41506,note_off,0,0,0,,3,,,75,127
41506,note_off,0,0,0,,10,,,45,127
41509,note_on,3,0,0,,3,,,75,127
41509,note_on,0,0,0,,7,,,79,127
41509,note_on,0,0,0,,6,,,66,127
41600,note_off,91,0,0,,6,,,66,127
41603,note_on,3,0,0,,7,,,67,127
41694,note_off,91,0,0,,7,,,67,127
41697,note_on,3,0,0,,10,,,69,127
41788,note_off,91,0,0,,10,,,69,127
41788,note_off,0,0,0,,7,,,79,127
41791,note_on,3,0,0,,10,,,81,127
41791,note_on,0,0,0,,10,,,69,127
41882,note_off,91,0,0,,10,,,69,127
41885,note_on,3,0,0,,11,,,70,127
41976,note_off,91,0,0,,11,,,70,127
41979,note_on,3,0,0,,0,,,72,127
42067,note_off,88,0,0,,3,,,75,127
42070,note_off,3,0,0,,0,,,72,127
42073,note_on,3,0,0,,2,,,38,127
42351,note_off,278,0,0,,10,,,81,127
42377,note_on,26,0,0,,6,,,78,127
42468,note_off,91,0,0,,6,,,78,127
42471,note_on,3,0,0,,7,,,79,127
42562,note_off,91,0,0,,7,,,79,127
42565,note_on,3,0,0,,10,,,81,127
42656,note_off,91,0,0,,10,,,81,127
42659,note_on,3,0,0,,10,,,81,127
42750,note_off,91,0,0,,10,,,81,127
42753,note_on,3,0,0,,12,,,83,127
42776,note_off,23,0,0,,2,,,38,127
42843,note_off,67,0,0,,12,,,83,127
42846,note_on,3,0,0,,0,,,84,127
42937,note_off,91,0,0,,0,,,84,127
42940,note_on,3,0,0,,2,,,50,127
42940,note_on,0,0,0,,0,,,84,127
43031,note_off,91,0,0,,0,,,84,127
43034,note_on,3,0,0,,12,,,83,127
43125,note_off,91,0,0,,12,,,83,127
43128,note_on,3,0,0,,10,,,81,127
43219,note_off,91,0,0,,10,,,81,127
43219,note_off,0,0,0,,2,,,50,127
43222,note_on,3,0,0,,7,,,55,127
43222,note_on,0,0,0,,12,,,83,127
43313,note_off,91,0,0,,12,,,83,127
43316,note_on,3,0,0,,10,,,81,127
43407,note_off,91,0,0,,10,,,81,127
43410,note_on,3,0,0,,12,,,83,127
43501,note_off,91,0,0,,12,,,83,127
43501,note_off,0,0,0,,7,,,55,127
43504,note_on,3,0,0,,0,,,60,127
43504,note_on,0,0,0,,2,,,86,127
43504,note_on,0,0,0,,0,,,84,127
43595,note_off,91,0,0,,0,,,84,127
43595,note_off,0,0,0,,2,,,86,127
43598,note_on,3,0,0,,12,,,83,127
43689,note_off,91,0,0,,12,,,83,127
43692,note_on,3,0,0,,10,,,81,127
43783,note_off,91,0,0,,10,,,81,127
43783,note_off,0,0,0,,0,,,60,127
43786,note_on,3,0,0,,2,,,62,127
43786,note_on,0,0,0,,7,,,79,127
43830,note_off,44,0,0,,7,,,79,127
43833,note_on,3,0,0,,10,,,81,127
43877,note_off,44,0,0,,10,,,81,127
43880,note_on,3,0,0,,7,,,79,127
43924,note_off,44,0,0,,7,,,79,127
43927,note_on,3,0,0,,6,,,78,127
43971,note_off,44,0,0,,6,,,78,127
43974,note_on,3,0,0,,7,,,79,127
44018,note_off,44,0,0,,7,,,79,127
44021,note_on,3,0,0,,10,,,81,127
44065,note_off,44,0,0,,10,,,81,127
44068,note_on,3,0,0,,2,,,50,127
44068,note_on,0,0,0,,12,,,83,127
44135,note_off,67,0,0,,12,,,83,127
44138,note_on,3,0,0,,10,,,81,127
44205,note_off,67,0,0,,10,,,81,127
44208,note_off,3,0,0,,2,,,62,127
44208,note_on,0,0,0,,7,,,79,127
44275,note_off,67,0,0,,7,,,79,127
44278,note_on,3,0,0,,10,,,81,127
44345,note_off,67,0,0,,10,,,81,127
44345,note_off,0,0,0,,2,,,50,127
44348,note_on,3,0,0,,7,,,55,127
44348,note_on,0,0,0,,7,,,79,127
44453,note_on,105,0,0,,6,,,78,127
44454,note_off,1,0,0,,7,,,79,127
44543,note_off,89,0,0,,6,,,78,127
44546,note_on,3,0,0,,7,,,79,127
44625,note_off,79,0,0,,7,,,55,127
44637,note_off,12,0,0,,7,,,79,127
44640,note_on,3,0,0,,12,,,59,127
44640,note_on,0,0,0,,7,,,79,127
44731,note_off,91,0,0,,7,,,79,127
44734,note_on,3,0,0,,2,,,74,127
44825,note_off,91,0,0,,2,,,74,127
44828,note_on,3,0,0,,2,,,74,127
44919,note_off,91,0,0,,2,,,74,127
44919,note_off,0,0,0,,12,,,59,127
44922,note_on,3,0,0,,0,,,60,127
44922,note_on,0,0,0,,2,,,74,127
45013,note_off,91,0,0,,2,,,74,127
45016,note_on,3,0,0,,3,,,75,127
45107,note_off,91,0,0,,3,,,75,127
45110,note_on,3,0,0,,4,,,76,127
45201,note_off,91,0,0,,4,,,76,127
45201,note_off,0,0,0,,0,,,60,127
45204,note_on,3,0,0,,10,,,57,127
45204,note_on,0,0,0,,4,,,76,127
45295,note_off,91,0,0,,4,,,76,127
45298,note_on,3,0,0,,12,,,71,127
45389,note_off,91,0,0,,12,,,71,127
45392,note_on,3,0,0,,0,,,72,127
45483,note_off,91,0,0,,0,,,72,127
45483,note_off,0,0,0,,10,,,57,127
45486,note_on,3,0,0,,12,,,59,127
45486,note_on,0,0,0,,0,,,72,127
45577,note_off,91,0,0,,0,,,72,127
45580,note_on,3,0,0,,1,,,73,127
45671,note_off,91,0,0,,1,,,73,127
45674,note_on,3,0,0,,2,,,74,127
45765,note_off,91,0,0,,2,,,74,127
45765,note_off,0,0,0,,12,,,59,127
45768,note_on,3,0,0,,2,,,74,127
45768,note_on,0,0,0,,7,,,55,127
45859,note_off,91,0,0,,2,,,74,127
45862,note_on,3,0,0,,10,,,69,127
45953,note_off,91,0,0,,10,,,69,127
45956,note_on,3,0,0,,12,,,71,127
46047,note_off,91,0,0,,12,,,71,127
46047,note_off,0,0,0,,7,,,55,127
46050,note_on,3,0,0,,12,,,71,127
46050,note_on,0,0,0,,10,,,57,127
46141,note_off,91,0,0,,12,,,71,127
46144,note_on,3,0,0,,0,,,72,127
46235,note_off,91,0,0,,0,,,72,127
46238,note_on,3,0,0,,0,,,72,127
46329,note_off,91,0,0,,0,,,72,127
46329,note_off,0,0,0,,10,,,57,127
46332,note_on,3,0,0,,0,,,72,127
46332,note_on,0,0,0,,6,,,54,127
46423,note_off,91,0,0,,0,,,72,127
46426,note_on,3,0,0,,7,,,67,127
46517,note_off,91,0,0,,7,,,67,127
46520,note_on,3,0,0,,10,,,69,127
46611,note_off,91,0,0,,10,,,69,127
46611,note_off,0,0,0,,6,,,54,127
46614,note_on,3,0,0,,10,,,69,127
46614,note_on,0,0,0,,7,,,55,127
46705,note_off,91,0,0,,10,,,69,127
46708,note_on,3,0,0,,11,,,70,127
46799,note_off,91,0,0,,11,,,70,127
46802,note_on,3,0,0,,12,,,71,127
46893,note_off,91,0,0,,12,,,71,127
46893,note_off,0,0,0,,7,,,55,127
46896,note_on,3,0,0,,12,,,71,127
46896,note_on,0,0,0,,12,,,47,127
46987,note_off,91,0,0,,12,,,71,127
46990,note_on,3,0,0,,6,,,66,127
47081,note_off,91,0,0,,6,,,66,127
47084,note_on,3,0,0,,7,,,67,127
47175,note_off,91,0,0,,7,,,67,127
47175,note_off,0,0,0,,12,,,47,127
47178,note_on,3,0,0,,7,,,67,127
47178,note_on,0,0,0,,0,,,48,127
47269,note_off,91,0,0,,7,,,67,127
47272,note_on,3,0,0,,8,,,68,127
47363,note_off,91,0,0,,8,,,68,127
47366,note_on,3,0,0,,10,,,69,127
47457,note_off,91,0,0,,10,,,69,127
47457,note_off,0,0,0,,0,,,48,127
47460,note_on,3,0,0,,10,,,69,127
47460,note_on,0,0,0,,10,,,45,127
47551,note_off,91,0,0,,10,,,69,127
47554,note_on,3,0,0,,4,,,64,127
47645,note_off,91,0,0,,4,,,64,127
47648,note_on,3,0,0,,6,,,66,127
47739,note_off,91,0,0,,6,,,66,127
47739,note_off,0,0,0,,10,,,45,127
47742,note_on,3,0,0,,7,,,67,127
47742,note_on,0,0,0,,12,,,47,127
47833,note_off,91,0,0,,7,,,67,127
47836,note_on,3,0,0,,10,,,69,127
47927,note_off,91,0,0,,10,,,69,127
47930,note_on,3,0,0,,12,,,71,127
48021,note_off,91,0,0,,12,,,71,127
48021,note_off,0,0,0,,12,,,47,127
48024,note_on,3,0,0,,0,,,72,127
48024,note_on,0,0,0,,0,,,48,127
48115,note_off,91,0,0,,0,,,72,127
48118,note_on,3,0,0,,2,,,74,127
48209,note_off,91,0,0,,2,,,74,127
48212,note_on,3,0,0,,4,,,76,127
48303,note_off,91,0,0,,4,,,76,127
48303,note_off,0,0,0,,0,,,48,127
48306,note_on,3,0,0,,2,,,74,127
48306,note_on,0,0,0,,2,,,50,127
48397,note_off,91,0,0,,2,,,74,127
48400,note_on,3,0,0,,0,,,72,127
48491,note_off,91,0,0,,0,,,72,127
48494,note_on,3,0,0,,12,,,71,127
48585,note_off,91,0,0,,12,,,71,127
48588,note_on,3,0,0,,10,,,69,127
48588,note_on,0,0,0,,2,,,38,127
48679,note_off,91,0,0,,10,,,69,127
48685,note_on,6,0,0,,7,,,67,127
48776,note_off,91,0,0,,7,,,67,127
48783,note_on,7,0,0,,6,,,66,127
48863,note_off,80,0,0,,2,,,50,127
48866,note_off,3,0,0,,2,,,38,127
48873,note_off,7,0,0,,6,,,66,127
48889,note_on,16,0,0,,7,,,67,127
48889,note_on,0,0,0,,7,,,43,127
48986,note_on,97,0,0,,12,,,71,127
49077,note_off,91,0,0,,12,,,71,127
49077,note_off,0,0,0,,7,,,67,127
49080,note_on,3,0,0,,7,,,79,127
49168,note_off,88,0,0,,7,,,43,127
49171,note_off,3,0,0,,7,,,79,127
49174,note_on,3,0,0,,2,,,38,127
49174,note_on,0,0,0,,10,,,69,127
49268,note_on,94,0,0,,0,,,72,127
49359,note_off,91,0,0,,0,,,72,127
49362,note_off,3,0,0,,10,,,69,127
49362,note_on,0,0,0,,10,,,81,127
49453,note_off,91,0,0,,10,,,81,127
49453,note_off,0,0,0,,2,,,38,127
49456,note_on,3,0,0,,7,,,43,127
49456,note_on,0,0,0,,12,,,71,127
49550,note_on,94,0,0,,2,,,74,127
49641,note_off,91,0,0,,2,,,74,127
49644,note_off,3,0,0,,12,,,71,127
49644,note_on,0,0,0,,12,,,83,127
49735,note_off,91,0,0,,12,,,83,127
49735,note_off,0,0,0,,7,,,43,127
49738,note_on,3,0,0,,2,,,38,127
49738,note_on,0,0,0,,10,,,69,127
49832,note_on,94,0,0,,0,,,72,127
49923,note_off,91,0,0,,0,,,72,127
49926,note_off,3,0,0,,10,,,69,127
49926,note_on,0,0,0,,10,,,81,127
50017,note_off,91,0,0,,10,,,81,127
50017,note_off,0,0,0,,2,,,38,127
50020,note_on,3,0,0,,7,,,43,127
50020,note_on,0,0,0,,7,,,67,127
50114,note_on,94,0,0,,12,,,71,127
50205,note_off,91,0,0,,12,,,71,127
50208,note_off,3,0,0,,7,,,67,127
50208,note_on,0,0,0,,7,,,79,127
50299,note_off,91,0,0,,7,,,79,127
50299,note_off,0,0,0,,7,,,43,127
50302,note_on,3,0,0,,2,,,38,127
50302,note_on,0,0,0,,10,,,69,127
50396,note_on,94,0,0,,0,,,72,127
50487,note_off,91,0,0,,0,,,72,127
50490,note_off,3,0,0,,10,,,69,127
50490,note_on,0,0,0,,10,,,81,127
50581,note_off,91,0,0,,10,,,81,127
50581,note_off,0,0,0,,2,,,38,127
50584,note_on,3,0,0,,7,,,43,127
50584,note_on,0,0,0,,12,,,71,127
50678,note_on,94,0,0,,2,,,74,127
50769,note_off,91,0,0,,2,,,74,127
50772,note_off,3,0,0,,12,,,71,127
50772,note_on,0,0,0,,12,,,83,127
50863,note_off,91,0,0,,12,,,83,127
50863,note_off,0,0,0,,7,,,43,127
50866,note_on,3,0,0,,2,,,38,127
50866,note_on,0,0,0,,10,,,69,127
50960,note_on,94,0,0,,0,,,72,127
51051,note_off,91,0,0,,0,,,72,127
51054,note_off,3,0,0,,10,,,69,127
51054,note_on,0,0,0,,6,,,78,127
51145,note_off,91,0,0,,6,,,78,127
51145,note_off,0,0,0,,2,,,38,127
51148,note_on,3,0,0,,7,,,43,127
51148,note_on,0,0,0,,7,,,55,127
51148,note_on,0,0,0,,6,,,78,127
51707,note_off,559,0,0,,6,,,78,127
51710,note_on,3,0,0,,7,,,79,127
52131,note_off,421,0,0,,7,,,79,127
52269,note_off,138,0,0,,7,,,55,127
52269,note_off,0,0,0,,7,,,43,127
52295,note_on,26,0,0,,7,,,67,127
52295,note_on,0,0,0,,7,,,43,127
52386,note_off,91,0,0,,7,,,67,127
52389,note_on,3,0,0,,10,,,69,127
52480,note_off,91,0,0,,10,,,69,127
52483,note_on,3,0,0,,12,,,71,127
52574,note_off,91,0,0,,12,,,71,127
52577,note_on,3,0,0,,12,,,71,127
52668,note_off,91,0,0,,12,,,71,127
52671,note_on,3,0,0,,0,,,72,127
52762,note_off,91,0,0,,0,,,72,127
52765,note_on,3,0,0,,2,,,74,127
52856,note_off,91,0,0,,2,,,74,127
52856,note_off,0,0,0,,7,,,43,127
52859,note_on,3,0,0,,2,,,74,127
52859,note_on,0,0,0,,7,,,55,127
52950,note_off,91,0,0,,2,,,74,127
52953,note_on,3,0,0,,4,,,76,127
53044,note_off,91,0,0,,4,,,76,127
53047,note_on,3,0,0,,5,,,77,127
53138,note_off,91,0,0,,5,,,77,127
53138,note_off,0,0,0,,7,,,55,127
53141,note_on,3,0,0,,5,,,77,127
53141,note_on,0,0,0,,5,,,53,127
53232,note_off,91,0,0,,5,,,77,127
53235,note_on,3,0,0,,4,,,76,127
53326,note_off,91,0,0,,4,,,76,127
53329,note_on,3,0,0,,2,,,74,127
53420,note_off,91,0,0,,2,,,74,127
53420,note_off,0,0,0,,5,,,53,127
53423,note_on,3,0,0,,7,,,67,127
53423,note_on,0,0,0,,4,,,52,127
53514,note_off,91,0,0,,7,,,67,127
53517,note_on,3,0,0,,10,,,69,127
53608,note_off,91,0,0,,10,,,69,127
53611,note_on,3,0,0,,12,,,71,127
53702,note_off,91,0,0,,12,,,71,127
53702,note_off,0,0,0,,4,,,52,127
53705,note_on,3,0,0,,0,,,72,127
53705,note_on,0,0,0,,2,,,50,127
53796,note_off,91,0,0,,0,,,72,127
53799,note_on,3,0,0,,2,,,74,127
53890,note_off,91,0,0,,2,,,74,127
53893,note_on,3,0,0,,4,,,76,127
53984,note_off,91,0,0,,4,,,76,127
53984,note_off,0,0,0,,2,,,50,127
53987,note_on,3,0,0,,4,,,76,127
53987,note_on,0,0,0,,0,,,48,127
54078,note_off,91,0,0,,4,,,76,127
54081,note_on,3,0,0,,5,,,77,127
54172,note_off,91,0,0,,5,,,77,127
54175,note_on,3,0,0,,7,,,79,127
54266,note_off,91,0,0,,7,,,79,127
54269,note_on,3,0,0,,7,,,79,127
54360,note_off,91,0,0,,7,,,79,127
54363,note_on,3,0,0,,5,,,77,127
54454,note_off,91,0,0,,5,,,77,127
54457,note_on,3,0,0,,4,,,76,127
54548,note_off,91,0,0,,4,,,76,127
54548,note_off,0,0,0,,0,,,48,127
54563,note_on,15,0,0,,2,,,74,127
54563,note_on,0,0,0,,7,,,55,127
54654,note_off,91,0,0,,7,,,55,127
54657,note_on,3,0,0,,10,,,57,127
54748,note_off,91,0,0,,10,,,57,127
54751,note_on,3,0,0,,12,,,59,127
54842,note_off,91,0,0,,12,,,59,127
54845,note_on,3,0,0,,12,,,59,127
54936,note_off,91,0,0,,12,,,59,127
54939,note_on,3,0,0,,0,,,60,127
55030,note_off,91,0,0,,0,,,60,127
55033,note_on,3,0,0,,2,,,62,127
55121,note_off,88,0,0,,2,,,74,127
55124,note_off,3,0,0,,2,,,62,127
55127,note_on,3,0,0,,2,,,62,127
55218,note_off,91,0,0,,2,,,62,127
55221,note_on,3,0,0,,4,,,64,127
55312,note_off,91,0,0,,4,,,64,127
55315,note_on,3,0,0,,5,,,65,127
55406,note_off,91,0,0,,5,,,65,127
55409,note_on,3,0,0,,12,,,71,127
55409,note_on,0,0,0,,5,,,65,127
55500,note_off,91,0,0,,5,,,65,127
55503,note_on,3,0,0,,4,,,64,127
55594,note_off,91,0,0,,4,,,64,127
55597,note_on,3,0,0,,2,,,62,127
55688,note_off,91,0,0,,2,,,62,127
55688,note_off,0,0,0,,12,,,71,127
55691,note_on,3,0,0,,4,,,76,127
55691,note_on,0,0,0,,7,,,67,127
55691,note_on,0,0,0,,0,,,72,127
55691,note_on,0,0,0,,7,,,55,127
55782,note_off,91,0,0,,7,,,55,127
55785,note_on,3,0,0,,10,,,57,127
55876,note_off,91,0,0,,10,,,57,127
55879,note_on,3,0,0,,12,,,59,127
55970,note_off,91,0,0,,12,,,59,127
55973,note_on,3,0,0,,0,,,60,127
56064,note_off,91,0,0,,0,,,60,127
56067,note_on,3,0,0,,2,,,62,127
56158,note_off,91,0,0,,2,,,62,127
56161,note_on,3,0,0,,4,,,64,127
56252,note_off,91,0,0,,4,,,64,127
56255,note_on,3,0,0,,4,,,64,127
56346,note_off,91,0,0,,4,,,64,127
56349,note_on,3,0,0,,5,,,65,127
56440,note_off,91,0,0,,5,,,65,127
56440,note_off,0,0,0,,7,,,67,127
56443,note_on,3,0,0,,7,,,67,127
56534,note_off,91,0,0,,7,,,67,127
56534,note_off,0,0,0,,0,,,72,127
56534,note_off,0,0,0,,4,,,76,127
56537,note_on,3,0,0,,0,,,72,127
56537,note_on,0,0,0,,4,,,76,127
56537,note_on,0,0,0,,7,,,67,127
56628,note_off,91,0,0,,7,,,67,127
56631,note_on,3,0,0,,5,,,65,127
56722,note_off,91,0,0,,5,,,65,127
56725,note_on,3,0,0,,4,,,64,127
56816,note_off,91,0,0,,4,,,64,127
56816,note_off,0,0,0,,4,,,76,127
56816,note_off,0,0,0,,0,,,72,127
56819,note_on,3,0,0,,12,,,71,127
56819,note_on,0,0,0,,2,,,74,127
56819,note_on,0,0,0,,2,,,62,127
56910,note_off,91,0,0,,2,,,62,127
56913,note_on,3,0,0,,5,,,65,127
57004,note_off,91,0,0,,5,,,65,127
57007,note_on,3,0,0,,2,,,62,127
57098,note_off,91,0,0,,2,,,62,127
57098,note_off,0,0,0,,2,,,74,127
57098,note_off,0,0,0,,12,,,71,127
57101,note_on,3,0,0,,4,,,76,127
57101,note_on,0,0,0,,0,,,60,127
57192,note_off,91,0,0,,0,,,60,127
57195,note_on,3,0,0,,4,,,64,127
57286,note_off,91,0,0,,4,,,64,127
57289,note_on,3,0,0,,0,,,60,127
57380,note_off,91,0,0,,0,,,60,127
57380,note_off,0,0,0,,4,,,76,127
57383,note_on,3,0,0,,2,,,74,127
57383,note_on,0,0,0,,12,,,59,127
57474,note_off,91,0,0,,12,,,59,127
57477,note_on,3,0,0,,2,,,62,127
57568,note_off,91,0,0,,2,,,62,127
57571,note_on,3,0,0,,12,,,59,127
57662,note_off,91,0,0,,12,,,59,127
57662,note_off,0,0,0,,2,,,74,127
57665,note_on,3,0,0,,0,,,72,127
57665,note_on,0,0,0,,10,,,57,127
57756,note_off,91,0,0,,10,,,57,127
57759,note_on,3,0,0,,0,,,60,127
57850,note_off,91,0,0,,0,,,60,127
57853,note_on,3,0,0,,10,,,57,127
57944,note_off,91,0,0,,10,,,57,127
57948,note_off,4,0,0,,0,,,72,127
57958,note_on,10,0,0,,2,,,74,127
57958,note_on,0,0,0,,7,,,55,127
58049,note_off,91,0,0,,2,,,74,127
58052,note_on,3,0,0,,0,,,72,127
58143,note_off,91,0,0,,0,,,72,127
58146,note_on,3,0,0,,12,,,71,127
58237,note_off,91,0,0,,12,,,71,127
58240,note_on,3,0,0,,10,,,69,127
58331,note_off,91,0,0,,10,,,69,127
58334,note_on,3,0,0,,7,,,67,127
58425,note_off,91,0,0,,7,,,67,127
58428,note_on,3,0,0,,6,,,66,127
58519,note_off,91,0,0,,6,,,66,127
58519,note_off,0,0,0,,7,,,55,127
58522,note_on,3,0,0,,7,,,67,127
58613,note_off,91,0,0,,7,,,67,127
58616,note_on,3,0,0,,10,,,69,127
58707,note_off,91,0,0,,10,,,69,127
58710,note_on,3,0,0,,12,,,71,127
58801,note_off,91,0,0,,12,,,71,127
58804,note_on,3,0,0,,12,,,71,127
58895,note_off,91,0,0,,12,,,71,127
58898,note_on,3,0,0,,0,,,72,127
58989,note_off,91,0,0,,0,,,72,127
58992,note_on,3,0,0,,2,,,74,127
59083,note_off,91,0,0,,2,,,74,127
59095,note_on,12,0,0,,5,,,41,127
59192,note_on,97,0,0,,2,,,74,127
59283,note_off,91,0,0,,2,,,74,127
59286,note_on,3,0,0,,0,,,72,127
59377,note_off,91,0,0,,0,,,72,127
59380,note_on,3,0,0,,12,,,71,127
59471,note_off,91,0,0,,12,,,71,127
59474,note_on,3,0,0,,10,,,69,127
59565,note_off,91,0,0,,10,,,69,127
59568,note_on,3,0,0,,7,,,67,127
59656,note_off,88,0,0,,5,,,41,127
59659,note_off,3,0,0,,7,,,67,127
59662,note_on,3,0,0,,7,,,67,127
59753,note_off,91,0,0,,7,,,67,127
59756,note_on,3,0,0,,10,,,69,127
59847,note_off,91,0,0,,10,,,69,127
59850,note_on,3,0,0,,12,,,71,127
59941,note_off,91,0,0,,12,,,71,127
59944,note_on,3,0,0,,12,,,71,127
60035,note_off,91,0,0,,12,,,71,127
60038,note_on,3,0,0,,0,,,72,127
60129,note_off,91,0,0,,0,,,72,127
60132,note_on,3,0,0,,2,,,74,127
60223,note_off,91,0,0,,2,,,74,127
60235,note_on,12,0,0,,4,,,40,127
60332,note_on,97,0,0,,7,,,79,127
60423,note_off,91,0,0,,7,,,79,127
60426,note_on,3,0,0,,5,,,77,127
60517,note_off,91,0,0,,5,,,77,127
60520,note_on,3,0,0,,4,,,76,127
60611,note_off,91,0,0,,4,,,76,127
60614,note_on,3,0,0,,2,,,74,127
60705,note_off,91,0,0,,2,,,74,127
60708,note_on,3,0,0,,0,,,72,127
60796,note_off,88,0,0,,4,,,40,127
60799,note_off,3,0,0,,0,,,72,127
60802,note_on,3,0,0,,0,,,60,127
60802,note_on,0,0,0,,0,,,72,127
60893,note_off,91,0,0,,0,,,60,127
60896,note_on,3,0,0,,2,,,62,127
60987,note_off,91,0,0,,2,,,62,127
60990,note_on,3,0,0,,4,,,64,127
61081,note_off,91,0,0,,4,,,64,127
61084,note_on,3,0,0,,4,,,64,127
61175,note_off,91,0,0,,4,,,64,127
61178,note_on,3,0,0,,5,,,65,127
61269,note_off,91,0,0,,5,,,65,127
61272,note_on,3,0,0,,7,,,67,127
61377,note_on,105,0,0,,5,,,41,127
61378,note_off,1,0,0,,7,,,67,127
61447,note_off,69,0,0,,0,,,72,127
61470,note_on,23,0,0,,10,,,81,127
61561,note_off,91,0,0,,10,,,81,127
61564,note_on,3,0,0,,7,,,79,127
61655,note_off,91,0,0,,7,,,79,127
61658,note_on,3,0,0,,5,,,77,127
61749,note_off,91,0,0,,5,,,77,127
61752,note_on,3,0,0,,4,,,76,127
61843,note_off,91,0,0,,4,,,76,127
61846,note_on,3,0,0,,2,,,74,127
61937,note_off,91,0,0,,2,,,74,127
61937,note_off,0,0,0,,5,,,41,127
61940,note_on,3,0,0,,7,,,55,127
61940,note_on,0,0,0,,4,,,76,127
62031,note_off,91,0,0,,4,,,76,127
62034,note_on,3,0,0,,5,,,77,127
62125,note_off,91,0,0,,5,,,77,127
62128,note_on,3,0,0,,7,,,79,127
62219,note_off,91,0,0,,7,,,79,127
62222,note_on,3,0,0,,7,,,43,127
62222,note_on,0,0,0,,0,,,72,127
62313,note_off,91,0,0,,0,,,72,127
62316,note_on,3,0,0,,2,,,74,127
62363,note_off,47,0,0,,7,,,55,127
62407,note_off,44,0,0,,2,,,74,127
62410,note_on,3,0,0,,12,,,71,127
62501,note_off,91,0,0,,12,,,71,127
62501,note_off,0,0,0,,7,,,43,127
62504,note_on,3,0,0,,0,,,36,127
62504,note_on,0,0,0,,0,,,48,127
62504,note_on,0,0,0,,12,,,71,127
62782,note_off,278,0,0,,12,,,71,127
62785,note_on,3,0,0,,0,,,72,127
63060,note_off,275,0,0,,0,,,48,127
63060,note_off,0,0,0,,0,,,36,127
63063,note_off,3,0,0,,0,,,72,127
63089,note_on,26,0,0,,3,,,75,127
63180,note_off,91,0,0,,3,,,75,127
63183,note_on,3,0,0,,5,,,77,127
63274,note_off,91,0,0,,5,,,77,127
63277,note_on,3,0,0,,7,,,79,127
63368,note_off,91,0,0,,7,,,79,127
63371,note_on,3,0,0,,7,,,79,127
63462,note_off,91,0,0,,7,,,79,127
63465,note_on,3,0,0,,8,,,80,127
63556,note_off,91,0,0,,8,,,80,127
63559,note_on,3,0,0,,11,,,82,127
63650,note_off,91,0,0,,11,,,82,127
63653,note_on,3,0,0,,8,,,80,127
63653,note_on,0,0,0,,0,,,84,127
63653,note_on,0,0,0,,5,,,65,127
63653,note_on,0,0,0,,5,,,53,127
63931,note_off,278,0,0,,5,,,53,127
63931,note_off,0,0,0,,5,,,65,127
63931,note_off,0,0,0,,0,,,84,127
63931,note_off,0,0,0,,8,,,80,127
63934,note_on,3,0,0,,12,,,83,127
63934,note_on,0,0,0,,7,,,79,127
63934,note_on,0,0,0,,7,,,67,127
63934,note_on,0,0,0,,7,,,55,127
64212,note_off,278,0,0,,7,,,55,127
64212,note_off,0,0,0,,7,,,79,127
64212,note_off,0,0,0,,12,,,83,127
64215,note_on,3,0,0,,5,,,77,127
64215,note_on,0,0,0,,0,,,84,127
64215,note_on,0,0,0,,8,,,56,127
64306,note_off,91,0,0,,5,,,77,127
64309,note_on,3,0,0,,3,,,75,127
64400,note_off,91,0,0,,3,,,75,127
64403,note_on,3,0,0,,2,,,74,127
64491,note_off,88,0,0,,7,,,67,127
64494,note_off,3,0,0,,2,,,74,127
64494,note_off,0,0,0,,0,,,84,127
64497,note_on,3,0,0,,2,,,74,127
64497,note_on,0,0,0,,0,,,72,127
64497,note_on,0,0,0,,5,,,65,127
64588,note_off,91,0,0,,0,,,72,127
64588,note_off,0,0,0,,2,,,74,127
64591,note_on,3,0,0,,12,,,71,127
64682,note_off,91,0,0,,12,,,71,127
64685,note_on,3,0,0,,0,,,72,127
64776,note_off,91,0,0,,0,,,72,127
64776,note_off,0,0,0,,5,,,65,127
64779,note_on,3,0,0,,0,,,72,127
64779,note_on,0,0,0,,7,,,67,127
65057,note_off,278,0,0,,0,,,72,127
65058,note_off,1,0,0,,8,,,56,127
65059,note_on,1,0,0,,2,,,74,127
65059,note_on,0,0,0,,7,,,55,127
65337,note_off,278,0,0,,2,,,74,127
65363,note_on,26,0,0,,3,,,75,127
65454,note_off,91,0,0,,3,,,75,127
65457,note_on,3,0,0,,5,,,77,127
65480,note_off,23,0,0,,7,,,55,127
65547,note_off,67,0,0,,5,,,77,127
65550,note_on,3,0,0,,7,,,79,127
65641,note_off,91,0,0,,7,,,79,127
65644,note_on,3,0,0,,7,,,79,127
65735,note_off,91,0,0,,7,,,79,127
65738,note_on,3,0,0,,8,,,80,127
65829,note_off,91,0,0,,8,,,80,127
65832,note_on,3,0,0,,11,,,82,127
65901,note_off,69,0,0,,7,,,67,127
65923,note_off,22,0,0,,11,,,82,127
65926,note_on,3,0,0,,5,,,65,127
65926,note_on,0,0,0,,5,,,53,127
65926,note_on,0,0,0,,0,,,84,127
65926,note_on,0,0,0,,8,,,80,127
66204,note_off,278,0,0,,8,,,80,127
66204,note_off,0,0,0,,0,,,84,127
66204,note_off,0,0,0,,5,,,53,127
66204,note_off,0,0,0,,5,,,65,127
66207,note_on,3,0,0,,7,,,67,127
66207,note_on,0,0,0,,7,,,55,127
66207,note_on,0,0,0,,12,,,83,127
66207,note_on,0,0,0,,7,,,79,127
66485,note_off,278,0,0,,7,,,79,127
66485,note_off,0,0,0,,12,,,83,127
66485,note_off,0,0,0,,7,,,55,127
66488,note_on,3,0,0,,8,,,56,127
66488,note_on,0,0,0,,0,,,84,127
66488,note_on,0,0,0,,5,,,77,127
66579,note_off,91,0,0,,5,,,77,127
66582,note_on,3,0,0,,3,,,75,127
66673,note_off,91,0,0,,3,,,75,127
66676,note_on,3,0,0,,2,,,74,127
66764,note_off,88,0,0,,7,,,67,127
66767,note_off,3,0,0,,2,,,74,127
66767,note_off,0,0,0,,0,,,84,127
66770,note_on,3,0,0,,5,,,65,127
66770,note_on,0,0,0,,0,,,72,127
66861,note_off,91,0,0,,0,,,72,127
66864,note_on,3,0,0,,12,,,71,127
66955,note_off,91,0,0,,12,,,71,127
66958,note_on,3,0,0,,0,,,72,127
67049,note_off,91,0,0,,0,,,72,127
67049,note_off,0,0,0,,5,,,65,127
67052,note_on,3,0,0,,7,,,67,127
67052,note_on,0,0,0,,0,,,72,127
67330,note_off,278,0,0,,0,,,72,127
67331,note_off,1,0,0,,8,,,56,127
67332,note_on,1,0,0,,7,,,55,127
67332,note_on,0,0,0,,2,,,74,127
67472,note_off,140,0,0,,7,,,67,127
67610,note_off,138,0,0,,2,,,74,127
67610,note_off,0,0,0,,7,,,55,127
67636,note_on,26,0,0,,3,,,75,127
67636,note_on,0,0,0,,7,,,79,127
67636,note_on,0,0,0,,3,,,63,127
67727,note_off,91,0,0,,3,,,63,127
67730,note_on,3,0,0,,5,,,65,127
67821,note_off,91,0,0,,5,,,65,127
67824,note_on,3,0,0,,7,,,67,127
67915,note_off,91,0,0,,7,,,67,127
67918,note_on,3,0,0,,7,,,67,127
68009,note_off,91,0,0,,7,,,67,127
68012,note_on,3,0,0,,8,,,68,127
68103,note_off,91,0,0,,8,,,68,127
68106,note_on,3,0,0,,11,,,70,127
68197,note_off,91,0,0,,11,,,70,127
68200,note_on,3,0,0,,11,,,46,127
68478,note_off,278,0,0,,7,,,79,127
68478,note_off,0,0,0,,3,,,75,127
68481,note_on,3,0,0,,2,,,74,127
68481,note_on,0,0,0,,5,,,77,127
68759,note_off,278,0,0,,5,,,77,127
68759,note_off,0,0,0,,2,,,74,127
68759,note_off,0,0,0,,11,,,46,127
68762,note_on,3,0,0,,3,,,75,127
68762,note_on,0,0,0,,7,,,79,127
68762,note_on,0,0,0,,3,,,63,127
68853,note_off,91,0,0,,3,,,63,127
68856,note_on,3,0,0,,5,,,65,127
68947,note_off,91,0,0,,5,,,65,127
68950,note_on,3,0,0,,7,,,67,127
69041,note_off,91,0,0,,7,,,67,127
69044,note_on,3,0,0,,7,,,67,127
69135,note_off,91,0,0,,7,,,67,127
69138,note_on,3,0,0,,8,,,68,127
69229,note_off,91,0,0,,8,,,68,127
69232,note_on,3,0,0,,11,,,70,127
69323,note_off,91,0,0,,11,,,70,127
69326,note_on,3,0,0,,11,,,46,127
69604,note_off,278,0,0,,7,,,79,127
69604,note_off,0,0,0,,3,,,75,127
69607,note_on,3,0,0,,1,,,73,127
69607,note_on,0,0,0,,5,,,77,127
69698,note_off,91,0,0,,5,,,77,127
69701,note_on,3,0,0,,4,,,76,127
69792,note_off,91,0,0,,4,,,76,127
69795,note_on,3,0,0,,5,,,77,127
69886,note_off,91,0,0,,5,,,77,127
69886,note_off,0,0,0,,1,,,73,127
69886,note_off,0,0,0,,11,,,46,127
69889,note_on,3,0,0,,5,,,77,127
69889,note_on,0,0,0,,0,,,72,127
69889,note_on,0,0,0,,4,,,64,127
69980,note_off,91,0,0,,4,,,64,127
69983,note_on,3,0,0,,5,,,65,127
70074,note_off,91,0,0,,5,,,65,127
70077,note_on,3,0,0,,7,,,67,127
70168,note_off,91,0,0,,7,,,67,127
70168,note_off,0,0,0,,5,,,77,127
70171,note_on,3,0,0,,7,,,79,127
70171,note_on,0,0,0,,7,,,67,127
70262,note_off,91,0,0,,7,,,67,127
70265,note_on,3,0,0,,8,,,68,127
70356,note_off,91,0,0,,8,,,68,127
70359,note_on,3,0,0,,11,,,70,127
70447,note_off,88,0,0,,0,,,72,127
70450,note_off,3,0,0,,11,,,70,127
70453,note_on,3,0,0,,5,,,41,127
70731,note_off,278,0,0,,7,,,79,127
70734,note_on,3,0,0,,5,,,77,127
70734,note_on,0,0,0,,1,,,73,127
70734,note_on,0,0,0,,7,,,79,127
70825,note_off,91,0,0,,7,,,79,127
70825,note_off,0,0,0,,5,,,77,127
70828,note_on,3,0,0,,4,,,76,127
70919,note_off,91,0,0,,4,,,76,127
70922,note_on,3,0,0,,5,,,77,127
71013,note_off,91,0,0,,5,,,77,127
71013,note_off,0,0,0,,1,,,73,127
71013,note_off,0,0,0,,5,,,41,127
71016,note_on,3,0,0,,5,,,77,127
71016,note_on,0,0,0,,0,,,72,127
71016,note_on,0,0,0,,4,,,64,127
71107,note_off,91,0,0,,4,,,64,127
71110,note_on,3,0,0,,5,,,65,127
71201,note_off,91,0,0,,5,,,65,127
71204,note_on,3,0,0,,7,,,67,127
71295,note_off,91,0,0,,7,,,67,127
71295,note_off,0,0,0,,5,,,77,127
71298,note_on,3,0,0,,7,,,79,127
71298,note_on,0,0,0,,7,,,67,127
71389,note_off,91,0,0,,7,,,67,127
71392,note_on,3,0,0,,8,,,68,127
71483,note_off,91,0,0,,8,,,68,127
71486,note_on,3,0,0,,11,,,70,127
71574,note_off,88,0,0,,0,,,72,127
71577,note_off,3,0,0,,11,,,70,127
71580,note_on,3,0,0,,5,,,41,127
71858,note_off,278,0,0,,7,,,79,127
71861,note_on,3,0,0,,0,,,72,127
71955,note_on,94,0,0,,5,,,77,127
72046,note_off,91,0,0,,5,,,77,127
72049,note_on,3,0,0,,8,,,80,127
72140,note_off,91,0,0,,8,,,80,127
72140,note_off,0,0,0,,0,,,72,127
72140,note_off,0,0,0,,5,,,41,127
72143,note_on,3,0,0,,0,,,72,127
72143,note_on,0,0,0,,7,,,79,127
72143,note_on,0,0,0,,2,,,62,127
72234,note_off,91,0,0,,2,,,62,127
72237,note_on,3,0,0,,3,,,63,127
72328,note_off,91,0,0,,3,,,63,127
72331,note_on,3,0,0,,5,,,65,127
72422,note_off,91,0,0,,5,,,65,127
72422,note_off,0,0,0,,7,,,79,127
72425,note_on,3,0,0,,5,,,77,127
72425,note_on,0,0,0,,5,,,65,127
72516,note_off,91,0,0,,5,,,65,127
72519,note_on,3,0,0,,7,,,67,127
72610,note_off,91,0,0,,7,,,67,127
72613,note_on,3,0,0,,8,,,68,127
72701,note_off,88,0,0,,0,,,72,127
72704,note_off,3,0,0,,8,,,68,127
72707,note_on,3,0,0,,2,,,38,127
72985,note_off,278,0,0,,5,,,77,127
72988,note_on,3,0,0,,0,,,72,127
73082,note_on,94,0,0,,5,,,77,127
73173,note_off,91,0,0,,5,,,77,127
73176,note_on,3,0,0,,8,,,80,127
73267,note_off,91,0,0,,8,,,80,127
73267,note_off,0,0,0,,0,,,72,127
73267,note_off,0,0,0,,2,,,38,127
73270,note_on,3,0,0,,7,,,79,127
73270,note_on,0,0,0,,0,,,72,127
73270,note_on,0,0,0,,2,,,62,127
73361,note_off,91,0,0,,2,,,62,127
73364,note_on,3,0,0,,3,,,63,127
73455,note_off,91,0,0,,3,,,63,127
73458,note_on,3,0,0,,5,,,65,127
73549,note_off,91,0,0,,5,,,65,127
73549,note_off,0,0,0,,7,,,79,127
73552,note_on,3,0,0,,5,,,77,127
73552,note_on,0,0,0,,5,,,65,127
73643,note_off,91,0,0,,5,,,65,127
73646,note_on,3,0,0,,7,,,67,127
73737,note_off,91,0,0,,7,,,67,127
73740,note_on,3,0,0,,8,,,68,127
73828,note_off,88,0,0,,0,,,72,127
73831,note_off,3,0,0,,8,,,68,127
73834,note_on,3,0,0,,7,,,31,127
74112,note_off,278,0,0,,5,,,77,127
74115,note_on,3,0,0,,2,,,74,127
74206,note_off,91,0,0,,2,,,74,127
74209,note_on,3,0,0,,5,,,77,127
74300,note_off,91,0,0,,5,,,77,127
74303,note_on,3,0,0,,2,,,86,127
74394,note_off,91,0,0,,2,,,86,127
74397,note_on,3,0,0,,0,,,84,127
74675,note_off,278,0,0,,0,,,84,127
74675,note_off,0,0,0,,7,,,31,127
74688,note_on,13,0,0,,7,,,55,127
74688,note_on,0,0,0,,7,,,43,127
74688,note_on,0,0,0,,12,,,83,127
74966,note_off,278,0,0,,12,,,83,127
74966,note_off,0,0,0,,7,,,43,127
74966,note_off,0,0,0,,7,,,55,127
74981,note_on,15,0,0,,0,,,84,127
74981,note_on,0,0,0,,0,,,48,127
75072,note_off,91,0,0,,0,,,84,127
75076,note_on,4,0,0,,7,,,79,127
75167,note_off,91,0,0,,7,,,79,127
75170,note_on,3,0,0,,4,,,76,127
75259,note_off,89,0,0,,0,,,48,127
75260,note_off,1,0,0,,4,,,76,127
75263,note_on,3,0,0,,5,,,53,127
75263,note_on,0,0,0,,5,,,77,127
75354,note_off,91,0,0,,5,,,77,127
75357,note_on,3,0,0,,7,,,79,127
75448,note_off,91,0,0,,7,,,79,127
75451,note_on,3,0,0,,10,,,81,127
75542,note_off,91,0,0,,10,,,81,127
75542,note_off,0,0,0,,5,,,53,127
75545,note_on,3,0,0,,7,,,55,127
75545,note_on,0,0,0,,0,,,72,127
75823,note_off,278,0,0,,0,,,72,127
75826,note_on,3,0,0,,7,,,43,127
75826,note_on,0,0,0,,12,,,71,127
76101,note_off,275,0,0,,7,,,55,127
76104,note_off,3,0,0,,12,,,71,127
76104,note_off,0,0,0,,7,,,43,127
76107,note_on,3,0,0,,0,,,48,127
76107,note_on,0,0,0,,12,,,71,127
76385,note_off,278,0,0,,12,,,71,127
76388,note_on,3,0,0,,0,,,72,127
76666,note_off,278,0,0,,0,,,72,127
76666,note_off,0,0,0,,0,,,48,127
76692,note_on,26,0,0,,3,,,75,127
76692,note_on,0,0,0,,7,,,79,127
76692,note_on,0,0,0,,3,,,63,127
76783,note_off,91,0,0,,3,,,63,127
76786,note_on,3,0,0,,5,,,65,127
76877,note_off,91,0,0,,5,,,65,127
76880,note_on,3,0,0,,7,,,67,127
76971,note_off,91,0,0,,7,,,67,127
76974,note_on,3,0,0,,7,,,67,127
77065,note_off,91,0,0,,7,,,67,127
77068,note_on,3,0,0,,8,,,68,127
77159,note_off,91,0,0,,8,,,68,127
77162,note_on,3,0,0,,11,,,70,127
77253,note_off,91,0,0,,11,,,70,127
77256,note_on,3,0,0,,11,,,46,127
77534,note_off,278,0,0,,7,,,79,127
77534,note_off,0,0,0,,3,,,75,127
77537,note_on,3,0,0,,2,,,74,127
77537,note_on,0,0,0,,5,,,77,127
77815,note_off,278,0,0,,5,,,77,127
77815,note_off,0,0,0,,2,,,74,127
77815,note_off,0,0,0,,11,,,46,127
77818,note_on,3,0,0,,3,,,75,127
77818,note_on,0,0,0,,7,,,79,127
77818,note_on,0,0,0,,3,,,63,127
77909,note_off,91,0,0,,3,,,63,127
77912,note_on,3,0,0,,5,,,65,127
78003,note_off,91,0,0,,5,,,65,127
78006,note_on,3,0,0,,7,,,67,127
78097,note_off,91,0,0,,7,,,67,127
78100,note_on,3,0,0,,7,,,67,127
78191,note_off,91,0,0,,7,,,67,127
78194,note_on,3,0,0,,8,,,68,127
78285,note_off,91,0,0,,8,,,68,127
78288,note_on,3,0,0,,11,,,70,127
78379,note_off,91,0,0,,11,,,70,127
78382,note_on,3,0,0,,11,,,46,127
78660,note_off,278,0,0,,7,,,79,127
78660,note_off,0,0,0,,3,,,75,127
78663,note_on,3,0,0,,5,,,77,127
78663,note_on,0,0,0,,1,,,73,127
78754,note_off,91,0,0,,5,,,77,127
78757,note_on,3,0,0,,4,,,76,127
78848,note_off,91,0,0,,4,,,76,127
78851,note_on,3,0,0,,5,,,77,127
78942,note_off,91,0,0,,5,,,77,127
78942,note_off,0,0,0,,1,,,73,127
78942,note_off,0,0,0,,11,,,46,127
78945,note_on,3,0,0,,0,,,72,127
78945,note_on,0,0,0,,5,,,77,127
78945,note_on,0,0,0,,4,,,64,127
79036,note_off,91,0,0,,4,,,64,127
79039,note_on,3,0,0,,5,,,65,127
79130,note_off,91,0,0,,5,,,65,127
79133,note_on,3,0,0,,7,,,67,127
79224,note_off,91,0,0,,7,,,67,127
79224,note_off,0,0,0,,5,,,77,127
79224,note_off,0,0,0,,0,,,72,127
79227,note_on,3,0,0,,7,,,79,127
79227,note_on,0,0,0,,7,,,67,127
79318,note_off,91,0,0,,7,,,67,127
79321,note_on,3,0,0,,8,,,68,127
79412,note_off,91,0,0,,8,,,68,127
79415,note_on,3,0,0,,11,,,70,127
79506,note_off,91,0,0,,11,,,70,127
79509,note_on,3,0,0,,5,,,41,127
79787,note_off,278,0,0,,7,,,79,127
79790,note_on,3,0,0,,1,,,73,127
79790,note_on,0,0,0,,5,,,77,127
79790,note_on,0,0,0,,7,,,79,127
79881,note_off,91,0,0,,7,,,79,127
79881,note_off,0,0,0,,5,,,77,127
79884,note_on,3,0,0,,4,,,76,127
79975,note_off,91,0,0,,4,,,76,127
79978,note_on,3,0,0,,5,,,77,127
80069,note_off,91,0,0,,5,,,77,127
80069,note_off,0,0,0,,1,,,73,127
80069,note_off,0,0,0,,5,,,41,127
80072,note_on,3,0,0,,0,,,72,127
80072,note_on,0,0,0,,5,,,77,127
80072,note_on,0,0,0,,4,,,64,127
80163,note_off,91,0,0,,4,,,64,127
80166,note_on,3,0,0,,5,,,65,127
80257,note_off,91,0,0,,5,,,65,127
80260,note_on,3,0,0,,7,,,67,127
80351,note_off,91,0,0,,7,,,67,127
80351,note_off,0,0,0,,5,,,77,127
80351,note_off,0,0,0,,0,,,72,127
80354,note_on,3,0,0,,7,,,79,127
80354,note_on,0,0,0,,7,,,67,127
80445,note_off,91,0,0,,7,,,67,127
80448,note_on,3,0,0,,8,,,68,127
80539,note_off,91,0,0,,8,,,68,127
80542,note_on,3,0,0,,11,,,70,127
80633,note_off,91,0,0,,11,,,70,127
80636,note_on,3,0,0,,5,,,41,127
80914,note_off,278,0,0,,7,,,79,127
80917,note_on,3,0,0,,0,,,72,127
81011,note_on,94,0,0,,5,,,77,127
81102,note_off,91,0,0,,5,,,77,127
81105,note_on,3,0,0,,8,,,80,127
81196,note_off,91,0,0,,8,,,80,127
81196,note_off,0,0,0,,0,,,72,127
81196,note_off,0,0,0,,5,,,41,127
81199,note_on,3,0,0,,0,,,72,127
81199,note_on,0,0,0,,7,,,79,127
81199,note_on,0,0,0,,2,,,62,127
81290,note_off,91,0,0,,2,,,62,127
81293,note_on,3,0,0,,3,,,63,127
81384,note_off,91,0,0,,3,,,63,127
81387,note_on,3,0,0,,5,,,65,127
81478,note_off,91,0,0,,5,,,65,127
81478,note_off,0,0,0,,7,,,79,127
81478,note_off,0,0,0,,0,,,72,127
81481,note_on,3,0,0,,5,,,77,127
81481,note_on,0,0,0,,5,,,65,127
81572,note_off,91,0,0,,5,,,65,127
81575,note_on,3,0,0,,7,,,67,127
81666,note_off,91,0,0,,7,,,67,127
81669,note_on,3,0,0,,8,,,68,127
81760,note_off,91,0,0,,8,,,68,127
81763,note_on,3,0,0,,2,,,38,127
82041,note_off,278,0,0,,5,,,77,127
82044,note_on,3,0,0,,0,,,72,127
82138,note_on,94,0,0,,5,,,77,127
82229,note_off,91,0,0,,5,,,77,127
82232,note_on,3,0,0,,8,,,80,127
82323,note_off,91,0,0,,8,,,80,127
82323,note_off,0,0,0,,0,,,72,127
82323,note_off,0,0,0,,2,,,38,127
82326,note_on,3,0,0,,0,,,72,127
82326,note_on,0,0,0,,7,,,79,127
82326,note_on,0,0,0,,2,,,62,127
82417,note_off,91,0,0,,2,,,62,127
82420,note_on,3,0,0,,3,,,63,127
82511,note_off,91,0,0,,3,,,63,127
82514,note_on,3,0,0,,5,,,65,127
82605,note_off,91,0,0,,5,,,65,127
82605,note_off,0,0,0,,7,,,79,127
82605,note_off,0,0,0,,0,,,72,127
82608,note_on,3,0,0,,5,,,77,127
82608,note_on,0,0,0,,5,,,65,127
82699,note_off,91,0,0,,5,,,65,127
82702,note_on,3,0,0,,7,,,67,127
82793,note_off,91,0,0,,7,,,67,127
82796,note_on,3,0,0,,8,,,68,127
82887,note_off,91,0,0,,8,,,68,127
82890,note_on,3,0,0,,7,,,31,127
83168,note_off,278,0,0,,5,,,77,127
83171,note_on,3,0,0,,2,,,74,127
83262,note_off,91,0,0,,2,,,74,127
83265,note_on,3,0,0,,5,,,77,127
83356,note_off,91,0,0,,5,,,77,127
83359,note_on,3,0,0,,2,,,86,127
83450,note_off,91,0,0,,2,,,86,127
83453,note_on,3,0,0,,0,,,84,127
83731,note_off,278,0,0,,0,,,84,127
83731,note_off,0,0,0,,7,,,31,127
83744,note_on,13,0,0,,12,,,83,127
83744,note_on,0,0,0,,7,,,43,127
83744,note_on,0,0,0,,7,,,55,127
84022,note_off,278,0,0,,7,,,55,127
84022,note_off,0,0,0,,7,,,43,127
84022,note_off,0,0,0,,12,,,83,127
84035,note_on,13,0,0,,0,,,84,127
84035,note_on,0,0,0,,0,,,48,127
84126,note_off,91,0,0,,0,,,84,127
84132,note_on,6,0,0,,7,,,79,127
84223,note_off,91,0,0,,7,,,79,127
84226,note_on,3,0,0,,4,,,76,127
84314,note_off,88,0,0,,0,,,48,127
84317,note_off,3,0,0,,4,,,76,127
84320,note_on,3,0,0,,5,,,53,127
84320,note_on,0,0,0,,5,,,77,127
84411,note_off,91,0,0,,5,,,77,127
84414,note_on,3,0,0,,7,,,79,127
84505,note_off,91,0,0,,7,,,79,127
84508,note_on,3,0,0,,10,,,81,127
84599,note_off,91,0,0,,10,,,81,127
84599,note_off,0,0,0,,5,,,53,127
84602,note_on,3,0,0,,7,,,55,127
84602,note_on,0,0,0,,0,,,72,127
84880,note_off,278,0,0,,0,,,72,127
84883,note_on,3,0,0,,7,,,43,127
84883,note_on,0,0,0,,12,,,71,127
85158,note_off,275,0,0,,7,,,55,127
85161,note_off,3,0,0,,7,,,43,127
85176,note_off,15,0,0,,12,,,71,127
85176,note_on,0,0,0,,0,,,48,127
85176,note_on,0,0,0,,0,,,72,127
85267,note_off,91,0,0,,0,,,72,127
85270,note_on,3,0,0,,12,,,83,127
85361,note_off,91,0,0,,12,,,83,127
85364,note_on,3,0,0,,0,,,84,127
85455,note_off,91,0,0,,0,,,84,127
85455,note_off,0,0,0,,0,,,48,127
85458,note_on,3,0,0,,4,,,52,127
85458,note_on,0,0,0,,0,,,84,127
85549,note_off,91,0,0,,0,,,84,127
85552,note_on,3,0,0,,7,,,79,127
85643,note_off,91,0,0,,7,,,79,127
85646,note_on,3,0,0,,7,,,79,127
85737,note_off,91,0,0,,7,,,79,127
85737,note_off,0,0,0,,4,,,52,127
85740,note_on,3,0,0,,5,,,53,127
85740,note_on,0,0,0,,7,,,79,127
85831,note_off,91,0,0,,7,,,79,127
85834,note_on,3,0,0,,8,,,80,127
85925,note_off,91,0,0,,8,,,80,127
85928,note_on,3,0,0,,10,,,81,127
86019,note_off,91,0,0,,10,,,81,127
86019,note_off,0,0,0,,5,,,53,127
86022,note_on,3,0,0,,2,,,50,127
86022,note_on,0,0,0,,10,,,81,127
86113,note_off,91,0,0,,10,,,81,127
86116,note_on,3,0,0,,4,,,76,127
86207,note_off,91,0,0,,4,,,76,127
86210,note_on,3,0,0,,5,,,77,127
86301,note_off,91,0,0,,5,,,77,127
86301,note_off,0,0,0,,2,,,50,127
86304,note_on,3,0,0,,4,,,52,127
86304,note_on,0,0,0,,5,,,77,127
86395,note_off,91,0,0,,5,,,77,127
86398,note_on,3,0,0,,6,,,78,127
86489,note_off,91,0,0,,6,,,78,127
86492,note_on,3,0,0,,7,,,79,127
86583,note_off,91,0,0,,7,,,79,127
86583,note_off,0,0,0,,4,,,52,127
86586,note_on,3,0,0,,0,,,48,127
86586,note_on,0,0,0,,7,,,79,127
86677,note_off,91,0,0,,7,,,79,127
86680,note_on,3,0,0,,2,,,74,127
86771,note_off,91,0,0,,2,,,74,127
86774,note_on,3,0,0,,4,,,76,127
86865,note_off,91,0,0,,4,,,76,127
86865,note_off,0,0,0,,0,,,48,127
86868,note_on,3,0,0,,2,,,50,127
86868,note_on,0,0,0,,4,,,76,127
86959,note_off,91,0,0,,4,,,76,127
86962,note_on,3,0,0,,4,,,76,127
87053,note_off,91,0,0,,4,,,76,127
87056,note_on,3,0,0,,5,,,77,127
87147,note_off,91,0,0,,5,,,77,127
87147,note_off,0,0,0,,2,,,50,127
87150,note_on,3,0,0,,12,,,47,127
87150,note_on,0,0,0,,5,,,77,127
87241,note_off,91,0,0,,5,,,77,127
87244,note_on,3,0,0,,0,,,72,127
87335,note_off,91,0,0,,0,,,72,127
87338,note_on,3,0,0,,2,,,74,127
87429,note_off,91,0,0,,2,,,74,127
87429,note_off,0,0,0,,12,,,47,127
87432,note_on,3,0,0,,0,,,48,127
87432,note_on,0,0,0,,2,,,74,127
87523,note_off,91,0,0,,2,,,74,127
87526,note_on,3,0,0,,3,,,75,127
87617,note_off,91,0,0,,3,,,75,127
87620,note_on,3,0,0,,4,,,76,127
87711,note_off,91,0,0,,4,,,76,127
87711,note_off,0,0,0,,0,,,48,127
87714,note_on,3,0,0,,4,,,52,127
87714,note_on,0,0,0,,4,,,76,127
87805,note_off,91,0,0,,4,,,76,127
87808,note_on,3,0,0,,12,,,71,127
87899,note_off,91,0,0,,12,,,71,127
87902,note_on,3,0,0,,0,,,72,127
87993,note_off,91,0,0,,0,,,72,127
87993,note_off,0,0,0,,4,,,52,127
87996,note_on,3,0,0,,5,,,53,127
87996,note_on,0,0,0,,0,,,72,127
88087,note_off,91,0,0,,0,,,72,127
88090,note_on,3,0,0,,1,,,73,127
88181,note_off,91,0,0,,1,,,73,127
88184,note_on,3,0,0,,2,,,74,127
88275,note_off,91,0,0,,2,,,74,127
88275,note_off,0,0,0,,5,,,53,127
88278,note_on,3,0,0,,2,,,50,127
88278,note_on,0,0,0,,2,,,74,127
88369,note_off,91,0,0,,2,,,74,127
88372,note_on,3,0,0,,10,,,69,127
88463,note_off,91,0,0,,10,,,69,127
88466,note_on,3,0,0,,12,,,71,127
88557,note_off,91,0,0,,12,,,71,127
88557,note_off,0,0,0,,2,,,50,127
88560,note_on,3,0,0,,4,,,52,127
88560,note_on,0,0,0,,0,,,72,127
88651,note_off,91,0,0,,0,,,72,127
88654,note_on,3,0,0,,2,,,74,127
88745,note_off,91,0,0,,2,,,74,127
88748,note_on,3,0,0,,4,,,76,127
88839,note_off,91,0,0,,4,,,76,127
88839,note_off,0,0,0,,4,,,52,127
88842,note_on,3,0,0,,5,,,53,127
88842,note_on,0,0,0,,5,,,77,127
88933,note_off,91,0,0,,5,,,77,127
88936,note_on,3,0,0,,7,,,79,127
89027,note_off,91,0,0,,7,,,79,127
89030,note_on,3,0,0,,10,,,81,127
89121,note_off,91,0,0,,10,,,81,127
89121,note_off,0,0,0,,5,,,53,127
89124,note_on,3,0,0,,7,,,55,127
89124,note_on,0,0,0,,7,,,79,127
89215,note_off,91,0,0,,7,,,79,127
89218,note_on,3,0,0,,5,,,77,127
89309,note_off,91,0,0,,5,,,77,127
89312,note_on,3,0,0,,4,,,76,127
89403,note_off,91,0,0,,4,,,76,127
89406,note_on,3,0,0,,7,,,43,127
89406,note_on,0,0,0,,2,,,74,127
89497,note_off,91,0,0,,2,,,74,127
89503,note_on,6,0,0,,0,,,72,127
89547,note_off,44,0,0,,7,,,55,127
89594,note_off,47,0,0,,0,,,72,127
89603,note_on,9,0,0,,12,,,71,127
89685,note_off,82,0,0,,7,,,43,127
89694,note_off,9,0,0,,12,,,71,127
89710,note_on,16,0,0,,4,,,76,127
89710,note_on,0,0,0,,0,,,48,127
89801,note_off,91,0,0,,4,,,76,127
89805,note_on,4,0,0,,0,,,72,127
89896,note_off,91,0,0,,0,,,72,127
89899,note_on,3,0,0,,7,,,67,127
89988,note_off,89,0,0,,0,,,48,127
89989,note_off,1,0,0,,7,,,67,127
89992,note_on,3,0,0,,5,,,65,127
89992,note_on,0,0,0,,7,,,43,127
90083,note_off,91,0,0,,5,,,65,127
90086,note_on,3,0,0,,12,,,71,127
90177,note_off,91,0,0,,12,,,71,127
90180,note_on,3,0,0,,2,,,74,127
90271,note_off,91,0,0,,2,,,74,127
90271,note_off,0,0,0,,7,,,43,127
90274,note_on,3,0,0,,0,,,72,127
90274,note_on,0,0,0,,0,,,48,127
90365,note_off,91,0,0,,0,,,72,127
90368,note_on,3,0,0,,7,,,67,127
90459,note_off,91,0,0,,7,,,67,127
90462,note_on,3,0,0,,4,,,64,127
90553,note_off,91,0,0,,4,,,64,127
90553,note_off,0,0,0,,0,,,48,127
90556,note_on,3,0,0,,2,,,62,127
90556,note_on,0,0,0,,7,,,43,127
90647,note_off,91,0,0,,2,,,62,127
90653,note_on,6,0,0,,5,,,65,127
90744,note_off,91,0,0,,5,,,65,127
90753,note_on,9,0,0,,12,,,71,127
90848,note_off,95,0,0,,7,,,43,127
90857,note_off,9,0,0,,12,,,71,127
90860,note_on,3,0,0,,4,,,76,127
90860,note_on,0,0,0,,0,,,48,127
90951,note_off,91,0,0,,4,,,76,127
90955,note_on,4,0,0,,0,,,72,127
91046,note_off,91,0,0,,0,,,72,127
91049,note_on,3,0,0,,7,,,67,127
91138,note_off,89,0,0,,0,,,48,127
91139,note_off,1,0,0,,7,,,67,127
91142,note_on,3,0,0,,7,,,43,127
91142,note_on,0,0,0,,5,,,65,127
91233,note_off,91,0,0,,5,,,65,127
91236,note_on,3,0,0,,12,,,71,127
91327,note_off,91,0,0,,12,,,71,127
91330,note_on,3,0,0,,2,,,74,127
91421,note_off,91,0,0,,2,,,74,127
91421,note_off,0,0,0,,7,,,43,127
91424,note_on,3,0,0,,0,,,48,127
91424,note_on,0,0,0,,0,,,72,127
91515,note_off,91,0,0,,0,,,72,127
91518,note_on,3,0,0,,7,,,67,127
91609,note_off,91,0,0,,7,,,67,127
91612,note_on,3,0,0,,4,,,64,127
91703,note_off,91,0,0,,4,,,64,127
91703,note_off,0,0,0,,0,,,48,127
91706,note_on,3,0,0,,7,,,43,127
91706,note_on,0,0,0,,2,,,62,127
91797,note_off,91,0,0,,2,,,62,127
91800,note_on,3,0,0,,5,,,65,127
91891,note_off,91,0,0,,5,,,65,127
91894,note_on,3,0,0,,12,,,71,127
91985,note_off,91,0,0,,12,,,71,127
91985,note_off,0,0,0,,7,,,43,127
92004,note_on,19,0,0,,0,,,48,127
92004,note_on,0,0,0,,12,,,71,127
92004,note_on,0,0,0,,0,,,36,127
92573,note_on,569,0,0,,0,,,72,127
92577,note_off,4,0,0,,12,,,71,127
94036,note_off,1459,0,0,,0,,,72,127
94052,note_off,16,0,0,,0,,,36,127
94052,note_off,0,0,0,,0,,,48,127
95232,end_of_track,1180,1,0,,,,,,
