tick,type,time,meta,track,program,channel,pitch,tempo,note,velocity
0,copyright,0,1,0,,,,,,
0,program_change,0,0,0,6,0,,,,
0,pitchwheel,0,0,0,,0,0,,,
0,program_change,0,0,0,6,1,,,,
0,pitchwheel,0,0,0,,1,-590,,,
0,program_change,0,0,0,6,2,,,,
0,pitchwheel,0,0,0,,2,-272,,,
0,program_change,0,0,0,6,3,,,,
0,pitchwheel,0,0,0,,3,-353,,,
0,program_change,0,0,0,6,4,,,,
0,pitchwheel,0,0,0,,4,-560,,,
0,program_change,0,0,0,6,5,,,,
0,pitchwheel,0,0,0,,5,-80,,,
0,program_change,0,0,0,6,6,,,,
0,pitchwheel,0,0,0,,6,-625,,,
0,program_change,0,0,0,6,7,,,,
0,pitchwheel,0,0,0,,7,-130,,,
0,program_change,0,0,0,6,8,,,,
0,pitchwheel,0,0,0,,8,-512,,,
0,program_change,0,0,0,6,10,,,,
0,pitchwheel,0,0,0,,10,-464,,,
0,program_change,0,0,0,6,11,,,,
0,pitchwheel,0,0,0,,11,-208,,,
0,program_change,0,0,0,6,12,,,,
0,pitchwheel,0,0,0,,12,-553,,,
0,set_tempo,0,1,0,,,,500000,,
105,note_on,105,0,0,,0,,,72,127
314,note_on,209,0,0,,7,,,67,127
345,note_off,31,0,0,,0,,,72,127
522,note_off,177,0,0,,7,,,67,127
524,note_on,2,0,0,,0,,,72,127
709,note_off,185,0,0,,0,,,72,127
733,note_on,24,0,0,,4,,,76,127
942,note_on,209,0,0,,0,,,72,127
973,note_off,31,0,0,,4,,,76,127
1150,note_off,177,0,0,,0,,,72,127
1152,note_on,2,0,0,,4,,,76,127
1337,note_off,185,0,0,,4,,,76,127
1361,note_on,24,0,0,,10,,,81,127
1464,note_off,103,0,0,,10,,,81,127
1466,note_on,2,0,0,,5,,,77,127
1569,note_off,103,0,0,,5,,,77,127
1571,note_on,2,0,0,,7,,,79,127
1674,note_off,103,0,0,,7,,,79,127
1676,note_on,2,0,0,,4,,,76,127
1779,note_off,103,0,0,,4,,,76,127
1781,note_on,2,0,0,,5,,,77,127
1884,note_off,103,0,0,,5,,,77,127
1886,note_on,2,0,0,,2,,,74,127
1989,note_off,103,0,0,,2,,,74,127
1991,note_on,2,0,0,,0,,,60,127
1991,note_on,0,0,0,,4,,,76,127
2198,note_off,207,0,0,,0,,,60,127
2200,note_on,2,0,0,,7,,,55,127
2407,note_off,207,0,0,,7,,,55,127
2407,note_off,0,0,0,,4,,,76,127
2409,note_on,2,0,0,,0,,,60,127
2409,note_on,0,0,0,,7,,,79,127
2605,note_off,196,0,0,,7,,,79,127
2605,note_off,0,0,0,,0,,,60,127
2618,note_on,13,0,0,,4,,,64,127
2618,note_on,0,0,0,,0,,,72,127
2825,note_off,207,0,0,,4,,,64,127
2827,note_on,2,0,0,,0,,,60,127
3034,note_off,207,0,0,,0,,,60,127
3034,note_off,0,0,0,,0,,,72,127
3036,note_on,2,0,0,,4,,,64,127
3036,note_on,0,0,0,,7,,,79,127
3232,note_off,196,0,0,,7,,,79,127
3232,note_off,0,0,0,,4,,,64,127
3245,note_on,13,0,0,,10,,,69,127
3245,note_on,0,0,0,,5,,,77,127
3348,note_off,103,0,0,,10,,,69,127
3350,note_on,2,0,0,,5,,,65,127
3453,note_off,103,0,0,,5,,,65,127
3453,note_off,0,0,0,,5,,,77,127
3455,note_on,2,0,0,,7,,,67,127
3455,note_on,0,0,0,,4,,,76,127
3558,note_off,103,0,0,,7,,,67,127
3560,note_on,2,0,0,,4,,,64,127
3663,note_off,103,0,0,,4,,,64,127
3663,note_off,0,0,0,,4,,,76,127
3665,note_on,2,0,0,,5,,,65,127
3665,note_on,0,0,0,,2,,,74,127
3768,note_off,103,0,0,,5,,,65,127
3770,note_on,2,0,0,,2,,,62,127
3873,note_off,103,0,0,,2,,,62,127
3873,note_off,0,0,0,,2,,,74,127
3875,note_on,2,0,0,,4,,,64,127
3875,note_on,0,0,0,,2,,,74,127
3978,note_off,103,0,0,,2,,,74,127
3980,note_on,2,0,0,,0,,,72,127
4083,note_off,103,0,0,,0,,,72,127
4083,note_off,0,0,0,,4,,,64,127
4085,note_on,2,0,0,,2,,,62,127
4085,note_on,0,0,0,,12,,,71,127
4292,note_off,207,0,0,,12,,,71,127
4292,note_off,0,0,0,,2,,,62,127
4294,note_on,2,0,0,,4,,,64,127
4294,note_on,0,0,0,,0,,,72,127
4501,note_off,207,0,0,,0,,,72,127
4501,note_off,0,0,0,,4,,,64,127
4503,note_on,2,0,0,,5,,,53,127
4503,note_on,0,0,0,,5,,,65,127
4503,note_on,0,0,0,,10,,,69,127
4608,note_on,105,0,0,,10,,,81,127
4711,note_off,103,0,0,,10,,,81,127
4711,note_off,0,0,0,,10,,,69,127
4711,note_off,0,0,0,,5,,,65,127
4711,note_off,0,0,0,,5,,,53,127
4713,note_on,2,0,0,,7,,,55,127
4713,note_on,0,0,0,,4,,,64,127
4713,note_on,0,0,0,,0,,,72,127
4920,note_off,207,0,0,,0,,,72,127
4920,note_off,0,0,0,,4,,,64,127
4922,note_on,2,0,0,,2,,,62,127
4922,note_on,0,0,0,,12,,,71,127
5127,note_off,205,0,0,,7,,,55,127
5129,note_off,2,0,0,,12,,,71,127
5129,note_off,0,0,0,,2,,,62,127
5131,note_on,2,0,0,,0,,,60,127
5131,note_on,0,0,0,,12,,,71,127
5347,note_on,216,0,0,,0,,,48,127
5565,note_on,218,0,0,,0,,,72,127
5568,note_off,3,0,0,,12,,,71,127
5758,note_off,190,0,0,,0,,,60,127
5763,note_off,5,0,0,,0,,,48,127
5802,note_on,39,0,0,,0,,,60,127
5876,note_off,74,0,0,,0,,,72,127
5907,note_on,31,0,0,,0,,,72,127
6010,note_off,103,0,0,,0,,,72,127
6012,note_on,2,0,0,,4,,,64,127
6012,note_on,0,0,0,,2,,,74,127
6115,note_off,103,0,0,,2,,,74,127
6117,note_on,2,0,0,,0,,,72,127
6220,note_off,103,0,0,,0,,,72,127
6220,note_off,0,0,0,,4,,,64,127
6222,note_on,2,0,0,,7,,,67,127
6222,note_on,0,0,0,,4,,,76,127
6325,note_off,103,0,0,,4,,,76,127
6327,note_on,2,0,0,,5,,,77,127
6430,note_off,103,0,0,,5,,,77,127
6430,note_off,0,0,0,,7,,,67,127
6431,note_off,1,0,0,,0,,,60,127
6432,note_on,1,0,0,,12,,,59,127
6432,note_on,0,0,0,,10,,,81,127
6641,note_on,209,0,0,,2,,,62,127
6848,note_off,207,0,0,,2,,,62,127
6848,note_off,0,0,0,,10,,,81,127
6850,note_on,2,0,0,,7,,,67,127
6850,note_on,0,0,0,,7,,,79,127
7057,note_off,207,0,0,,7,,,79,127
7057,note_off,0,0,0,,7,,,67,127
7058,note_off,1,0,0,,12,,,59,127
7063,note_on,5,0,0,,0,,,60,127
7168,note_on,105,0,0,,0,,,72,127
7271,note_off,103,0,0,,0,,,72,127
7273,note_on,2,0,0,,2,,,74,127
7273,note_on,0,0,0,,4,,,64,127
7376,note_off,103,0,0,,2,,,74,127
7378,note_on,2,0,0,,0,,,72,127
7481,note_off,103,0,0,,0,,,72,127
7481,note_off,0,0,0,,4,,,64,127
7483,note_on,2,0,0,,4,,,76,127
7483,note_on,0,0,0,,7,,,67,127
7586,note_off,103,0,0,,4,,,76,127
7588,note_on,2,0,0,,6,,,78,127
7691,note_off,103,0,0,,6,,,78,127
7691,note_off,0,0,0,,7,,,67,127
7692,note_off,1,0,0,,0,,,60,127
7693,note_on,1,0,0,,6,,,78,127
7693,note_on,0,0,0,,12,,,59,127
7902,note_on,209,0,0,,2,,,62,127
8109,note_off,207,0,0,,2,,,62,127
8109,note_off,0,0,0,,6,,,78,127
8111,note_on,2,0,0,,7,,,79,127
8111,note_on,0,0,0,,7,,,67,127
8318,note_off,207,0,0,,7,,,67,127
8319,note_off,1,0,0,,12,,,59,127
8329,note_on,10,0,0,,0,,,60,127
8330,note_off,1,0,0,,7,,,79,127
8434,note_on,104,0,0,,0,,,72,127
8537,note_off,103,0,0,,0,,,72,127
8539,note_on,2,0,0,,2,,,74,127
8539,note_on,0,0,0,,4,,,64,127
8642,note_off,103,0,0,,2,,,74,127
8644,note_on,2,0,0,,0,,,72,127
8747,note_off,103,0,0,,0,,,72,127
8747,note_off,0,0,0,,4,,,64,127
8749,note_on,2,0,0,,4,,,76,127
8749,note_on,0,0,0,,7,,,67,127
8852,note_off,103,0,0,,4,,,76,127
8854,note_on,2,0,0,,6,,,78,127
8957,note_off,103,0,0,,6,,,78,127
8957,note_off,0,0,0,,7,,,67,127
8958,note_off,1,0,0,,0,,,60,127
8959,note_on,1,0,0,,6,,,78,127
8959,note_on,0,0,0,,12,,,59,127
9168,note_on,209,0,0,,2,,,62,127
9375,note_off,207,0,0,,2,,,62,127
9375,note_off,0,0,0,,6,,,78,127
9377,note_on,2,0,0,,7,,,79,127
9377,note_on,0,0,0,,7,,,67,127
9584,note_off,207,0,0,,7,,,67,127
9584,note_off,0,0,0,,7,,,79,127
9585,note_off,1,0,0,,12,,,59,127
9604,note_on,19,0,0,,7,,,55,127
9709,note_on,105,0,0,,7,,,67,127
9812,note_off,103,0,0,,7,,,67,127
9814,note_on,2,0,0,,6,,,66,127
9917,note_off,103,0,0,,6,,,66,127
9919,note_on,2,0,0,,7,,,67,127
10022,note_off,103,0,0,,7,,,67,127
10024,note_on,2,0,0,,10,,,69,127
10127,note_off,103,0,0,,10,,,69,127
10129,note_on,2,0,0,,12,,,71,127
10232,note_off,103,0,0,,12,,,71,127
10232,note_off,0,0,0,,7,,,55,127
10234,note_on,2,0,0,,10,,,57,127
10234,note_on,0,0,0,,0,,,72,127
10339,note_on,105,0,0,,10,,,69,127
10365,note_off,26,0,0,,0,,,72,127
10441,note_off,76,0,0,,10,,,69,127
10443,note_on,2,0,0,,8,,,68,127
10546,note_off,103,0,0,,8,,,68,127
10548,note_on,2,0,0,,10,,,69,127
10651,note_off,103,0,0,,10,,,69,127
10653,note_on,2,0,0,,12,,,71,127
10756,note_off,103,0,0,,12,,,71,127
10758,note_on,2,0,0,,0,,,72,127
10861,note_off,103,0,0,,0,,,72,127
10861,note_off,0,0,0,,10,,,57,127
10863,note_on,2,0,0,,12,,,59,127
10863,note_on,0,0,0,,2,,,74,127
10968,note_on,105,0,0,,12,,,71,127
10994,note_off,26,0,0,,2,,,74,127
11070,note_off,76,0,0,,12,,,71,127
11072,note_on,2,0,0,,10,,,69,127
11175,note_off,103,0,0,,10,,,69,127
11177,note_on,2,0,0,,12,,,71,127
11280,note_off,103,0,0,,12,,,71,127
11282,note_on,2,0,0,,0,,,72,127
11385,note_off,103,0,0,,0,,,72,127
11387,note_on,2,0,0,,2,,,74,127
11490,note_off,103,0,0,,2,,,74,127
11490,note_off,0,0,0,,12,,,59,127
11492,note_on,2,0,0,,0,,,60,127
11492,note_on,0,0,0,,4,,,76,127
11597,note_on,105,0,0,,2,,,74,127
11623,note_off,26,0,0,,4,,,76,127
11699,note_off,76,0,0,,2,,,74,127
11701,note_on,2,0,0,,0,,,72,127
11804,note_off,103,0,0,,0,,,72,127
11806,note_on,2,0,0,,2,,,74,127
11909,note_off,103,0,0,,2,,,74,127
11909,note_off,0,0,0,,0,,,60,127
11911,note_on,2,0,0,,10,,,57,127
11911,note_on,0,0,0,,4,,,76,127
12014,note_off,103,0,0,,4,,,76,127
12016,note_on,2,0,0,,6,,,78,127
12119,note_off,103,0,0,,6,,,78,127
12119,note_off,0,0,0,,10,,,57,127
12121,note_on,2,0,0,,7,,,79,127
12243,note_on,122,0,0,,7,,,55,127
12346,note_off,103,0,0,,7,,,55,127
12348,note_on,2,0,0,,6,,,54,127
12451,note_off,103,0,0,,6,,,54,127
12453,note_on,2,0,0,,7,,,55,127
12538,note_off,85,0,0,,7,,,79,127
12555,note_off,17,0,0,,7,,,55,127
12557,note_on,2,0,0,,2,,,74,127
12557,note_on,0,0,0,,10,,,57,127
12660,note_off,103,0,0,,10,,,57,127
12662,note_on,2,0,0,,12,,,59,127
12765,note_off,103,0,0,,12,,,59,127
12765,note_off,0,0,0,,2,,,74,127
12767,note_on,2,0,0,,4,,,76,127
12767,note_on,0,0,0,,0,,,60,127
12870,note_off,103,0,0,,0,,,60,127
12872,note_on,2,0,0,,10,,,57,127
12975,note_off,103,0,0,,10,,,57,127
12975,note_off,0,0,0,,4,,,76,127
12977,note_on,2,0,0,,0,,,72,127
12977,note_on,0,0,0,,8,,,56,127
13080,note_off,103,0,0,,8,,,56,127
13082,note_on,2,0,0,,10,,,57,127
13185,note_off,103,0,0,,10,,,57,127
13185,note_off,0,0,0,,0,,,72,127
13187,note_on,2,0,0,,4,,,76,127
13187,note_on,0,0,0,,12,,,59,127
13290,note_off,103,0,0,,12,,,59,127
13292,note_on,2,0,0,,0,,,60,127
13395,note_off,103,0,0,,0,,,60,127
13395,note_off,0,0,0,,4,,,76,127
13397,note_on,2,0,0,,6,,,78,127
13397,note_on,0,0,0,,2,,,62,127
13500,note_off,103,0,0,,2,,,62,127
13502,note_on,2,0,0,,12,,,59,127
13605,note_off,103,0,0,,12,,,59,127
13605,note_off,0,0,0,,6,,,78,127
13607,note_on,2,0,0,,2,,,74,127
13607,note_on,0,0,0,,10,,,57,127
13710,note_off,103,0,0,,10,,,57,127
13712,note_on,2,0,0,,12,,,59,127
13815,note_off,103,0,0,,12,,,59,127
13815,note_off,0,0,0,,2,,,74,127
13817,note_on,2,0,0,,6,,,78,127
13817,note_on,0,0,0,,0,,,60,127
13920,note_off,103,0,0,,0,,,60,127
13922,note_on,2,0,0,,2,,,62,127
14025,note_off,103,0,0,,2,,,62,127
14025,note_off,0,0,0,,6,,,78,127
14027,note_on,2,0,0,,7,,,79,127
14027,note_on,0,0,0,,4,,,64,127
14130,note_off,103,0,0,,4,,,64,127
14132,note_on,2,0,0,,2,,,62,127
14235,note_off,103,0,0,,2,,,62,127
14235,note_off,0,0,0,,7,,,79,127
14237,note_on,2,0,0,,4,,,76,127
14237,note_on,0,0,0,,0,,,60,127
14340,note_off,103,0,0,,0,,,60,127
14342,note_on,2,0,0,,2,,,62,127
14445,note_off,103,0,0,,2,,,62,127
14445,note_off,0,0,0,,4,,,76,127
14447,note_on,2,0,0,,0,,,72,127
14447,note_on,0,0,0,,4,,,64,127
14550,note_off,103,0,0,,4,,,64,127
14552,note_on,2,0,0,,6,,,66,127
14655,note_off,103,0,0,,6,,,66,127
14657,note_on,2,0,0,,7,,,67,127
14864,note_off,207,0,0,,7,,,67,127
14864,note_off,0,0,0,,0,,,72,127
14875,note_on,11,0,0,,12,,,71,127
14875,note_on,0,0,0,,7,,,55,127
14978,note_off,103,0,0,,12,,,71,127
14989,note_on,11,0,0,,2,,,74,127
15083,note_off,94,0,0,,7,,,55,127
15092,note_off,9,0,0,,2,,,74,127
15094,note_on,2,0,0,,12,,,59,127
15094,note_on,0,0,0,,7,,,79,127
15197,note_off,103,0,0,,7,,,79,127
15199,note_on,2,0,0,,6,,,78,127
15302,note_off,103,0,0,,6,,,78,127
15302,note_off,0,0,0,,12,,,59,127
15304,note_on,2,0,0,,0,,,60,127
15304,note_on,0,0,0,,4,,,76,127
15407,note_off,103,0,0,,4,,,76,127
15409,note_on,2,0,0,,2,,,74,127
15512,note_off,103,0,0,,2,,,74,127
15514,note_on,2,0,0,,0,,,72,127
15617,note_off,103,0,0,,0,,,72,127
15619,note_on,2,0,0,,12,,,71,127
15722,note_off,103,0,0,,12,,,71,127
15722,note_off,0,0,0,,0,,,60,127
15724,note_on,2,0,0,,0,,,48,127
15724,note_on,0,0,0,,10,,,69,127
15827,note_off,103,0,0,,10,,,69,127
15829,note_on,2,0,0,,7,,,67,127
15932,note_off,103,0,0,,7,,,67,127
15932,note_off,0,0,0,,0,,,48,127
15934,note_on,2,0,0,,2,,,50,127
15934,note_on,0,0,0,,6,,,66,127
16037,note_off,103,0,0,,6,,,66,127
16039,note_on,2,0,0,,4,,,64,127
16142,note_off,103,0,0,,4,,,64,127
16144,note_on,2,0,0,,2,,,62,127
16247,note_off,103,0,0,,2,,,50,127
16249,note_on,2,0,0,,0,,,60,127
16352,note_off,103,0,0,,0,,,60,127
16354,note_on,2,0,0,,12,,,59,127
16457,note_off,103,0,0,,12,,,59,127
16459,note_on,2,0,0,,10,,,57,127
16559,note_off,100,0,0,,2,,,62,127
16561,note_off,2,0,0,,10,,,57,127
16563,note_on,2,0,0,,7,,,55,127
16685,note_on,122,0,0,,7,,,67,127
16788,note_off,103,0,0,,7,,,67,127
16790,note_on,2,0,0,,6,,,66,127
16875,note_off,85,0,0,,7,,,55,127
16892,note_off,17,0,0,,6,,,66,127
16894,note_on,2,0,0,,7,,,67,127
16894,note_on,0,0,0,,7,,,55,127
16997,note_off,103,0,0,,7,,,55,127
16999,note_on,2,0,0,,7,,,79,127
16999,note_on,0,0,0,,6,,,54,127
17102,note_off,103,0,0,,6,,,54,127
17104,note_on,2,0,0,,7,,,55,127
17207,note_off,103,0,0,,7,,,55,127
17208,note_off,1,0,0,,7,,,67,127
17209,note_on,1,0,0,,7,,,67,127
17312,note_off,103,0,0,,7,,,67,127
17312,note_off,0,0,0,,7,,,79,127
17314,note_on,2,0,0,,7,,,67,127
17417,note_off,103,0,0,,7,,,67,127
17419,note_on,2,0,0,,6,,,66,127
17522,note_off,103,0,0,,6,,,66,127
17524,note_on,2,0,0,,7,,,67,127
17524,note_on,0,0,0,,4,,,52,127
17627,note_off,103,0,0,,4,,,52,127
17629,note_on,2,0,0,,7,,,79,127
17629,note_on,0,0,0,,3,,,51,127
17732,note_off,103,0,0,,3,,,51,127
17734,note_on,2,0,0,,4,,,52,127
17837,note_off,103,0,0,,4,,,52,127
17838,note_off,1,0,0,,7,,,67,127
17839,note_on,1,0,0,,7,,,67,127
17942,note_off,103,0,0,,7,,,67,127
17942,note_off,0,0,0,,7,,,79,127
17944,note_on,2,0,0,,7,,,67,127
18047,note_off,103,0,0,,7,,,67,127
18049,note_on,2,0,0,,6,,,66,127
18152,note_off,103,0,0,,6,,,66,127
18154,note_on,2,0,0,,7,,,67,127
18154,note_on,0,0,0,,0,,,48,127
18257,note_off,103,0,0,,0,,,48,127
18259,note_on,2,0,0,,7,,,79,127
18259,note_on,0,0,0,,12,,,47,127
18362,note_off,103,0,0,,12,,,47,127
18364,note_on,2,0,0,,0,,,48,127
18467,note_off,103,0,0,,0,,,48,127
18468,note_off,1,0,0,,7,,,67,127
18469,note_on,1,0,0,,7,,,67,127
18572,note_off,103,0,0,,7,,,67,127
18572,note_off,0,0,0,,7,,,79,127
18574,note_on,2,0,0,,7,,,67,127
18677,note_off,103,0,0,,7,,,67,127
18679,note_on,2,0,0,,6,,,66,127
18782,note_off,103,0,0,,6,,,66,127
18784,note_on,2,0,0,,7,,,67,127
18784,note_on,0,0,0,,12,,,47,127
18887,note_off,103,0,0,,12,,,47,127
18889,note_on,2,0,0,,7,,,79,127
18889,note_on,0,0,0,,10,,,45,127
18992,note_off,103,0,0,,10,,,45,127
18994,note_on,2,0,0,,12,,,47,127
19097,note_off,103,0,0,,12,,,47,127
19098,note_off,1,0,0,,7,,,67,127
19099,note_on,1,0,0,,7,,,67,127
19202,note_off,103,0,0,,7,,,67,127
19202,note_off,0,0,0,,7,,,79,127
19204,note_on,2,0,0,,7,,,67,127
19307,note_off,103,0,0,,7,,,67,127
19309,note_on,2,0,0,,6,,,66,127
19412,note_off,103,0,0,,6,,,66,127
19414,note_on,2,0,0,,7,,,67,127
19519,note_on,105,0,0,,7,,,79,127
19519,note_on,0,0,0,,7,,,55,127
19519,note_on,0,0,0,,12,,,47,127
19622,note_off,103,0,0,,7,,,79,127
19622,note_off,0,0,0,,7,,,67,127
19624,note_on,2,0,0,,6,,,78,127
19727,note_off,103,0,0,,6,,,78,127
19727,note_off,0,0,0,,12,,,47,127
19727,note_off,0,0,0,,7,,,55,127
19729,note_on,2,0,0,,6,,,78,127
19729,note_on,0,0,0,,7,,,55,127
19729,note_on,0,0,0,,0,,,48,127
19832,note_off,103,0,0,,6,,,78,127
19834,note_on,2,0,0,,4,,,76,127
19937,note_off,103,0,0,,4,,,76,127
19937,note_off,0,0,0,,0,,,48,127
19939,note_on,2,0,0,,4,,,76,127
19939,note_on,0,0,0,,2,,,50,127
20042,note_off,103,0,0,,4,,,76,127
20044,note_on,2,0,0,,2,,,74,127
20144,note_off,100,0,0,,7,,,55,127
20146,note_off,2,0,0,,2,,,74,127
20148,note_on,2,0,0,,2,,,74,127
20148,note_on,0,0,0,,6,,,54,127
20251,note_off,103,0,0,,2,,,74,127
20253,note_on,2,0,0,,0,,,72,127
20353,note_off,100,0,0,,2,,,50,127
20355,note_off,2,0,0,,0,,,72,127
20355,note_off,0,0,0,,6,,,54,127
20357,note_on,2,0,0,,12,,,71,127
20357,note_on,0,0,0,,7,,,43,127
20357,note_on,0,0,0,,7,,,55,127
20479,note_on,122,0,0,,7,,,67,127
20488,note_off,9,0,0,,12,,,71,127
20582,note_off,94,0,0,,7,,,67,127
20584,note_on,2,0,0,,6,,,66,127
20669,note_off,85,0,0,,7,,,55,127
20669,note_off,0,0,0,,7,,,43,127
20686,note_off,17,0,0,,6,,,66,127
20688,note_on,2,0,0,,7,,,55,127
20688,note_on,0,0,0,,7,,,67,127
20791,note_off,103,0,0,,7,,,55,127
20793,note_on,2,0,0,,6,,,54,127
20793,note_on,0,0,0,,7,,,79,127
20896,note_off,103,0,0,,6,,,54,127
20898,note_on,2,0,0,,7,,,55,127
21001,note_off,103,0,0,,7,,,55,127
21002,note_off,1,0,0,,7,,,67,127
21003,note_on,1,0,0,,7,,,67,127
21106,note_off,103,0,0,,7,,,67,127
21106,note_off,0,0,0,,7,,,79,127
21108,note_on,2,0,0,,7,,,67,127
21211,note_off,103,0,0,,7,,,67,127
21213,note_on,2,0,0,,6,,,66,127
21316,note_off,103,0,0,,6,,,66,127
21318,note_on,2,0,0,,4,,,52,127
21318,note_on,0,0,0,,7,,,67,127
21421,note_off,103,0,0,,4,,,52,127
21423,note_on,2,0,0,,3,,,51,127
21423,note_on,0,0,0,,7,,,79,127
21526,note_off,103,0,0,,3,,,51,127
21528,note_on,2,0,0,,4,,,52,127
21631,note_off,103,0,0,,4,,,52,127
21632,note_off,1,0,0,,7,,,67,127
21633,note_on,1,0,0,,7,,,67,127
21736,note_off,103,0,0,,7,,,67,127
21736,note_off,0,0,0,,7,,,79,127
21738,note_on,2,0,0,,7,,,67,127
21841,note_off,103,0,0,,7,,,67,127
21843,note_on,2,0,0,,6,,,66,127
21946,note_off,103,0,0,,6,,,66,127
21948,note_on,2,0,0,,0,,,48,127
21948,note_on,0,0,0,,7,,,67,127
22051,note_off,103,0,0,,0,,,48,127
22053,note_on,2,0,0,,12,,,47,127
22053,note_on,0,0,0,,7,,,79,127
22156,note_off,103,0,0,,12,,,47,127
22158,note_on,2,0,0,,0,,,48,127
22261,note_off,103,0,0,,0,,,48,127
22262,note_off,1,0,0,,7,,,67,127
22263,note_on,1,0,0,,7,,,67,127
22366,note_off,103,0,0,,7,,,67,127
22366,note_off,0,0,0,,7,,,79,127
22368,note_on,2,0,0,,7,,,67,127
22471,note_off,103,0,0,,7,,,67,127
22473,note_on,2,0,0,,6,,,66,127
22576,note_off,103,0,0,,6,,,66,127
22578,note_on,2,0,0,,12,,,47,127
22578,note_on,0,0,0,,7,,,67,127
22681,note_off,103,0,0,,12,,,47,127
22683,note_on,2,0,0,,10,,,45,127
22683,note_on,0,0,0,,7,,,79,127
22786,note_off,103,0,0,,10,,,45,127
22788,note_on,2,0,0,,12,,,47,127
22891,note_off,103,0,0,,12,,,47,127
22892,note_off,1,0,0,,7,,,67,127
22893,note_on,1,0,0,,7,,,67,127
22996,note_off,103,0,0,,7,,,67,127
22996,note_off,0,0,0,,7,,,79,127
22998,note_on,2,0,0,,7,,,67,127
23101,note_off,103,0,0,,7,,,67,127
23103,note_on,2,0,0,,6,,,66,127
23206,note_off,103,0,0,,6,,,66,127
23208,note_on,2,0,0,,7,,,67,127
23313,note_on,105,0,0,,12,,,47,127
23313,note_on,0,0,0,,7,,,55,127
23313,note_on,0,0,0,,7,,,79,127
23416,note_off,103,0,0,,7,,,79,127
23416,note_off,0,0,0,,7,,,67,127
23418,note_on,2,0,0,,6,,,78,127
23521,note_off,103,0,0,,6,,,78,127
23521,note_off,0,0,0,,7,,,55,127
23521,note_off,0,0,0,,12,,,47,127
23523,note_on,2,0,0,,7,,,55,127
23523,note_on,0,0,0,,0,,,48,127
23523,note_on,0,0,0,,6,,,78,127
23626,note_off,103,0,0,,6,,,78,127
23628,note_on,2,0,0,,4,,,76,127
23731,note_off,103,0,0,,4,,,76,127
23731,note_off,0,0,0,,0,,,48,127
23733,note_on,2,0,0,,2,,,50,127
23733,note_on,0,0,0,,4,,,76,127
23836,note_off,103,0,0,,4,,,76,127
23838,note_on,2,0,0,,2,,,74,127
23938,note_off,100,0,0,,7,,,55,127
23940,note_off,2,0,0,,2,,,74,127
23942,note_on,2,0,0,,6,,,54,127
23942,note_on,0,0,0,,2,,,74,127
24045,note_off,103,0,0,,2,,,74,127
24047,note_on,2,0,0,,0,,,72,127
24147,note_off,100,0,0,,2,,,50,127
24149,note_off,2,0,0,,0,,,72,127
24149,note_off,0,0,0,,6,,,54,127
24169,note_on,20,0,0,,12,,,71,127
24169,note_on,0,0,0,,7,,,55,127
24169,note_on,0,0,0,,7,,,43,127
24274,note_on,105,0,0,,12,,,83,127
24377,note_off,103,0,0,,12,,,83,127
24377,note_off,0,0,0,,12,,,71,127
24379,note_on,2,0,0,,7,,,79,127
24482,note_off,103,0,0,,7,,,79,127
24484,note_on,2,0,0,,2,,,74,127
24587,note_off,103,0,0,,2,,,74,127
24587,note_off,0,0,0,,7,,,43,127
24587,note_off,0,0,0,,7,,,55,127
24589,note_on,2,0,0,,12,,,71,127
24589,note_on,0,0,0,,7,,,55,127
24589,note_on,0,0,0,,12,,,47,127
24692,note_off,103,0,0,,12,,,71,127
24694,note_on,2,0,0,,2,,,74,127
24797,note_off,103,0,0,,2,,,74,127
24797,note_off,0,0,0,,12,,,47,127
24797,note_off,0,0,0,,7,,,55,127
24799,note_on,2,0,0,,2,,,74,127
24799,note_on,0,0,0,,7,,,55,127
24799,note_on,0,0,0,,10,,,45,127
24902,note_off,103,0,0,,2,,,74,127
24904,note_on,2,0,0,,4,,,76,127
25007,note_off,103,0,0,,4,,,76,127
25009,note_on,2,0,0,,2,,,74,127
25077,note_off,68,0,0,,2,,,74,127
25079,note_on,2,0,0,,0,,,72,127
25147,note_off,68,0,0,,0,,,72,127
25149,note_on,2,0,0,,2,,,74,127
25217,note_off,68,0,0,,2,,,74,127
25217,note_off,0,0,0,,10,,,45,127
25217,note_off,0,0,0,,7,,,55,127
25219,note_on,2,0,0,,0,,,72,127
25219,note_on,0,0,0,,10,,,45,127
25219,note_on,0,0,0,,6,,,54,127
25287,note_off,68,0,0,,0,,,72,127
25289,note_on,2,0,0,,2,,,74,127
25357,note_off,68,0,0,,2,,,74,127
25359,note_on,2,0,0,,0,,,72,127
25427,note_off,68,0,0,,0,,,72,127
25427,note_off,0,0,0,,6,,,54,127
25427,note_off,0,0,0,,10,,,45,127
25429,note_on,2,0,0,,12,,,71,127
25429,note_on,0,0,0,,7,,,55,127
25429,note_on,0,0,0,,7,,,43,127
25532,note_off,103,0,0,,12,,,71,127
25534,note_on,2,0,0,,7,,,79,127
25637,note_off,103,0,0,,7,,,79,127
25637,note_off,0,0,0,,7,,,43,127
25639,note_on,2,0,0,,2,,,74,127
25639,note_on,0,0,0,,10,,,45,127
25742,note_off,103,0,0,,2,,,74,127
25744,note_on,2,0,0,,12,,,71,127
25847,note_off,103,0,0,,12,,,71,127
25847,note_off,0,0,0,,10,,,45,127
25849,note_on,2,0,0,,7,,,67,127
25849,note_on,0,0,0,,12,,,47,127
25952,note_off,103,0,0,,7,,,67,127
25954,note_on,2,0,0,,12,,,71,127
26057,note_off,103,0,0,,12,,,71,127
26057,note_off,0,0,0,,12,,,47,127
26058,note_off,1,0,0,,7,,,55,127
26059,note_on,1,0,0,,12,,,71,127
26059,note_on,0,0,0,,7,,,55,127
26059,note_on,0,0,0,,0,,,48,127
26162,note_off,103,0,0,,12,,,71,127
26164,note_on,2,0,0,,0,,,72,127
26267,note_off,103,0,0,,0,,,72,127
26267,note_off,0,0,0,,0,,,48,127
26269,note_on,2,0,0,,12,,,71,127
26269,note_on,0,0,0,,2,,,50,127
26337,note_off,68,0,0,,12,,,71,127
26339,note_on,2,0,0,,10,,,69,127
26407,note_off,68,0,0,,10,,,69,127
26409,note_on,2,0,0,,12,,,71,127
26474,note_off,65,0,0,,7,,,55,127
26476,note_off,2,0,0,,12,,,71,127
26478,note_on,2,0,0,,10,,,69,127
26478,note_on,0,0,0,,6,,,54,127
26546,note_off,68,0,0,,10,,,69,127
26548,note_on,2,0,0,,12,,,71,127
26616,note_off,68,0,0,,12,,,71,127
26618,note_on,2,0,0,,10,,,69,127
26683,note_off,65,0,0,,2,,,50,127
26685,note_off,2,0,0,,10,,,69,127
26685,note_off,0,0,0,,6,,,54,127
26705,note_on,20,0,0,,7,,,43,127
26705,note_on,0,0,0,,7,,,55,127
26705,note_on,0,0,0,,7,,,67,127
26808,note_off,103,0,0,,7,,,67,127
26810,note_on,2,0,0,,12,,,83,127
26913,note_off,103,0,0,,12,,,83,127
26915,note_on,2,0,0,,7,,,79,127
27018,note_off,103,0,0,,7,,,79,127
27020,note_on,2,0,0,,2,,,74,127
27123,note_off,103,0,0,,2,,,74,127
27123,note_off,0,0,0,,7,,,55,127
27123,note_off,0,0,0,,7,,,43,127
27125,note_on,2,0,0,,12,,,47,127
27125,note_on,0,0,0,,7,,,55,127
27125,note_on,0,0,0,,12,,,71,127
27228,note_off,103,0,0,,12,,,71,127
27230,note_on,2,0,0,,2,,,74,127
27333,note_off,103,0,0,,2,,,74,127
27333,note_off,0,0,0,,7,,,55,127
27333,note_off,0,0,0,,12,,,47,127
27335,note_on,2,0,0,,10,,,45,127
27335,note_on,0,0,0,,7,,,55,127
27335,note_on,0,0,0,,2,,,74,127
27438,note_off,103,0,0,,2,,,74,127
27440,note_on,2,0,0,,4,,,76,127
27543,note_off,103,0,0,,4,,,76,127
27545,note_on,2,0,0,,2,,,74,127
27613,note_off,68,0,0,,2,,,74,127
27615,note_on,2,0,0,,0,,,72,127
27683,note_off,68,0,0,,0,,,72,127
27685,note_on,2,0,0,,2,,,74,127
27753,note_off,68,0,0,,2,,,74,127
27753,note_off,0,0,0,,7,,,55,127
27753,note_off,0,0,0,,10,,,45,127
27755,note_on,2,0,0,,6,,,54,127
27755,note_on,0,0,0,,10,,,45,127
27755,note_on,0,0,0,,0,,,72,127
27823,note_off,68,0,0,,0,,,72,127
27825,note_on,2,0,0,,2,,,74,127
27893,note_off,68,0,0,,2,,,74,127
27895,note_on,2,0,0,,0,,,72,127
27963,note_off,68,0,0,,0,,,72,127
27963,note_off,0,0,0,,10,,,45,127
27963,note_off,0,0,0,,6,,,54,127
27965,note_on,2,0,0,,7,,,43,127
27965,note_on,0,0,0,,7,,,55,127
27965,note_on,0,0,0,,12,,,71,127
28068,note_off,103,0,0,,12,,,71,127
28070,note_on,2,0,0,,7,,,79,127
28173,note_off,103,0,0,,7,,,79,127
28173,note_off,0,0,0,,7,,,43,127
28175,note_on,2,0,0,,10,,,45,127
28175,note_on,0,0,0,,2,,,74,127
28278,note_off,103,0,0,,2,,,74,127
28280,note_on,2,0,0,,12,,,71,127
28383,note_off,103,0,0,,12,,,71,127
28383,note_off,0,0,0,,10,,,45,127
28385,note_on,2,0,0,,12,,,47,127
28385,note_on,0,0,0,,7,,,67,127
28488,note_off,103,0,0,,7,,,67,127
28490,note_on,2,0,0,,12,,,71,127
28593,note_off,103,0,0,,12,,,71,127
28593,note_off,0,0,0,,12,,,47,127
28594,note_off,1,0,0,,7,,,55,127
28595,note_on,1,0,0,,0,,,48,127
28595,note_on,0,0,0,,7,,,55,127
28595,note_on,0,0,0,,12,,,71,127
28698,note_off,103,0,0,,12,,,71,127
28700,note_on,2,0,0,,0,,,72,127
28803,note_off,103,0,0,,0,,,72,127
28803,note_off,0,0,0,,0,,,48,127
28805,note_on,2,0,0,,2,,,50,127
28805,note_on,0,0,0,,12,,,71,127
28873,note_off,68,0,0,,12,,,71,127
28875,note_on,2,0,0,,10,,,69,127
28943,note_off,68,0,0,,10,,,69,127
28945,note_on,2,0,0,,12,,,71,127
29010,note_off,65,0,0,,7,,,55,127
29012,note_off,2,0,0,,12,,,71,127
29014,note_on,2,0,0,,6,,,54,127
29014,note_on,0,0,0,,10,,,69,127
29082,note_off,68,0,0,,10,,,69,127
29084,note_on,2,0,0,,7,,,67,127
29152,note_off,68,0,0,,7,,,67,127
29154,note_on,2,0,0,,10,,,69,127
29219,note_off,65,0,0,,2,,,50,127
29221,note_off,2,0,0,,10,,,69,127
29221,note_off,0,0,0,,6,,,54,127
29223,note_on,2,0,0,,7,,,43,127
29223,note_on,0,0,0,,7,,,55,127
29223,note_on,0,0,0,,7,,,67,127
29790,note_off,567,0,0,,7,,,43,127
29849,note_off,59,0,0,,7,,,55,127
29850,note_off,1,0,0,,7,,,67,127
29921,note_on,71,0,0,,7,,,55,127
30026,note_on,105,0,0,,12,,,71,127
30129,note_off,103,0,0,,12,,,71,127
30131,note_on,2,0,0,,12,,,59,127
30131,note_on,0,0,0,,7,,,67,127
30234,note_off,103,0,0,,7,,,67,127
30236,note_on,2,0,0,,10,,,69,127
30339,note_off,103,0,0,,10,,,69,127
30339,note_off,0,0,0,,12,,,59,127
30341,note_on,2,0,0,,4,,,64,127
30341,note_on,0,0,0,,12,,,71,127
30444,note_off,103,0,0,,12,,,71,127
30446,note_on,2,0,0,,4,,,76,127
30549,note_off,103,0,0,,4,,,76,127
30549,note_off,0,0,0,,4,,,64,127
30550,note_off,1,0,0,,7,,,55,127
30551,note_on,1,0,0,,6,,,54,127
30551,note_on,0,0,0,,4,,,76,127
30760,note_on,209,0,0,,10,,,57,127
30967,note_off,207,0,0,,10,,,57,127
30967,note_off,0,0,0,,4,,,76,127
30969,note_on,2,0,0,,12,,,59,127
30969,note_on,0,0,0,,3,,,75,127
31176,note_off,207,0,0,,3,,,75,127
31176,note_off,0,0,0,,12,,,59,127
31177,note_off,1,0,0,,6,,,54,127
31178,note_on,1,0,0,,4,,,52,127
31283,note_on,105,0,0,,12,,,71,127
31386,note_off,103,0,0,,12,,,71,127
31388,note_on,2,0,0,,7,,,55,127
31388,note_on,0,0,0,,7,,,67,127
31491,note_off,103,0,0,,7,,,67,127
31493,note_on,2,0,0,,10,,,69,127
31596,note_off,103,0,0,,10,,,69,127
31596,note_off,0,0,0,,7,,,55,127
31598,note_on,2,0,0,,12,,,59,127
31598,note_on,0,0,0,,12,,,71,127
31701,note_off,103,0,0,,12,,,71,127
31703,note_on,2,0,0,,7,,,79,127
31806,note_off,103,0,0,,7,,,79,127
31806,note_off,0,0,0,,12,,,59,127
31807,note_off,1,0,0,,4,,,52,127
31808,note_on,1,0,0,,12,,,47,127
31808,note_on,0,0,0,,7,,,79,127
32017,note_on,209,0,0,,6,,,54,127
32224,note_off,207,0,0,,6,,,54,127
32224,note_off,0,0,0,,7,,,79,127
32226,note_on,2,0,0,,12,,,59,127
32226,note_on,0,0,0,,6,,,78,127
32433,note_off,207,0,0,,6,,,78,127
32433,note_off,0,0,0,,12,,,59,127
32434,note_off,1,0,0,,12,,,47,127
32453,note_on,19,0,0,,7,,,55,127
32558,note_on,105,0,0,,12,,,71,127
32661,note_off,103,0,0,,12,,,71,127
32663,note_on,2,0,0,,7,,,67,127
32663,note_on,0,0,0,,12,,,59,127
32766,note_off,103,0,0,,7,,,67,127
32768,note_on,2,0,0,,10,,,69,127
32871,note_off,103,0,0,,10,,,69,127
32871,note_off,0,0,0,,12,,,59,127
32873,note_on,2,0,0,,12,,,71,127
32873,note_on,0,0,0,,4,,,64,127
32976,note_off,103,0,0,,12,,,71,127
32978,note_on,2,0,0,,4,,,76,127
33081,note_off,103,0,0,,4,,,76,127
33081,note_off,0,0,0,,4,,,64,127
33082,note_off,1,0,0,,7,,,55,127
33083,note_on,1,0,0,,4,,,76,127
33083,note_on,0,0,0,,5,,,53,127
33292,note_on,209,0,0,,10,,,57,127
33499,note_off,207,0,0,,10,,,57,127
33499,note_off,0,0,0,,4,,,76,127
33501,note_on,2,0,0,,2,,,74,127
33501,note_on,0,0,0,,2,,,62,127
33708,note_off,207,0,0,,2,,,62,127
33709,note_off,1,0,0,,5,,,53,127
33710,note_on,1,0,0,,4,,,52,127
33813,note_off,103,0,0,,2,,,74,127
33815,note_on,2,0,0,,2,,,74,127
33918,note_off,103,0,0,,2,,,74,127
33920,note_on,2,0,0,,12,,,71,127
33920,note_on,0,0,0,,12,,,59,127
34023,note_off,103,0,0,,12,,,71,127
34025,note_on,2,0,0,,0,,,72,127
34128,note_off,103,0,0,,0,,,72,127
34128,note_off,0,0,0,,12,,,59,127
34130,note_on,2,0,0,,2,,,74,127
34130,note_on,0,0,0,,4,,,64,127
34233,note_off,103,0,0,,2,,,74,127
34235,note_on,2,0,0,,8,,,80,127
34338,note_off,103,0,0,,8,,,80,127
34338,note_off,0,0,0,,4,,,64,127
34339,note_off,1,0,0,,4,,,52,127
34340,note_on,1,0,0,,8,,,80,127
34340,note_on,0,0,0,,10,,,45,127
34549,note_on,209,0,0,,4,,,52,127
34756,note_off,207,0,0,,4,,,52,127
34756,note_off,0,0,0,,8,,,80,127
34758,note_on,2,0,0,,10,,,81,127
34758,note_on,0,0,0,,10,,,57,127
34965,note_off,207,0,0,,10,,,57,127
34965,note_off,0,0,0,,10,,,81,127
34966,note_off,1,0,0,,10,,,45,127
34985,note_on,19,0,0,,10,,,57,127
35090,note_on,105,0,0,,4,,,76,127
35193,note_off,103,0,0,,4,,,76,127
35195,note_on,2,0,0,,4,,,64,127
35195,note_on,0,0,0,,1,,,73,127
35298,note_off,103,0,0,,1,,,73,127
35300,note_on,2,0,0,,2,,,74,127
35403,note_off,103,0,0,,2,,,74,127
35403,note_off,0,0,0,,4,,,64,127
35405,note_on,2,0,0,,10,,,69,127
35405,note_on,0,0,0,,4,,,76,127
35508,note_off,103,0,0,,4,,,76,127
35510,note_on,2,0,0,,10,,,81,127
35613,note_off,103,0,0,,10,,,81,127
35613,note_off,0,0,0,,10,,,69,127
35614,note_off,1,0,0,,10,,,57,127
35615,note_on,1,0,0,,11,,,58,127
35615,note_on,0,0,0,,10,,,81,127
35824,note_on,209,0,0,,2,,,62,127
36031,note_off,207,0,0,,2,,,62,127
36031,note_off,0,0,0,,10,,,81,127
36033,note_on,2,0,0,,7,,,67,127
36033,note_on,0,0,0,,7,,,79,127
36240,note_off,207,0,0,,7,,,67,127
36241,note_off,1,0,0,,11,,,58,127
36242,note_on,1,0,0,,10,,,57,127
36345,note_off,103,0,0,,7,,,79,127
36347,note_on,2,0,0,,7,,,79,127
36450,note_off,103,0,0,,7,,,79,127
36452,note_on,2,0,0,,4,,,64,127
36452,note_on,0,0,0,,4,,,76,127
36555,note_off,103,0,0,,4,,,76,127
36557,note_on,2,0,0,,5,,,77,127
36660,note_off,103,0,0,,5,,,77,127
36660,note_off,0,0,0,,4,,,64,127
36662,note_on,2,0,0,,10,,,69,127
36662,note_on,0,0,0,,7,,,79,127
36765,note_off,103,0,0,,7,,,79,127
36767,note_on,2,0,0,,1,,,85,127
36870,note_off,103,0,0,,1,,,85,127
36870,note_off,0,0,0,,10,,,69,127
36871,note_off,1,0,0,,10,,,57,127
36872,note_on,1,0,0,,2,,,50,127
36872,note_on,0,0,0,,1,,,85,127
37081,note_on,209,0,0,,10,,,57,127
37288,note_off,207,0,0,,10,,,57,127
37288,note_off,0,0,0,,1,,,85,127
37290,note_on,2,0,0,,2,,,62,127
37290,note_on,0,0,0,,2,,,86,127
37497,note_off,207,0,0,,2,,,62,127
37498,note_off,1,0,0,,2,,,50,127
37508,note_on,10,0,0,,11,,,58,127
37602,note_off,94,0,0,,2,,,86,127
37613,note_on,11,0,0,,2,,,74,127
37716,note_off,103,0,0,,2,,,74,127
37718,note_on,2,0,0,,11,,,70,127
37718,note_on,0,0,0,,2,,,62,127
37821,note_off,103,0,0,,11,,,70,127
37823,note_on,2,0,0,,0,,,72,127
37926,note_off,103,0,0,,0,,,72,127
37926,note_off,0,0,0,,2,,,62,127
37928,note_on,2,0,0,,2,,,74,127
37928,note_on,0,0,0,,5,,,65,127
38031,note_off,103,0,0,,2,,,74,127
38033,note_on,2,0,0,,2,,,86,127
38136,note_off,103,0,0,,2,,,86,127
38136,note_off,0,0,0,,5,,,65,127
38137,note_off,1,0,0,,11,,,58,127
38138,note_on,1,0,0,,2,,,86,127
38138,note_on,0,0,0,,10,,,57,127
38347,note_on,209,0,0,,0,,,60,127
38554,note_off,207,0,0,,0,,,60,127
38554,note_off,0,0,0,,2,,,86,127
38556,note_on,2,0,0,,0,,,84,127
38556,note_on,0,0,0,,5,,,65,127
38763,note_off,207,0,0,,5,,,65,127
38763,note_off,0,0,0,,0,,,84,127
38764,note_off,1,0,0,,10,,,57,127
38765,note_on,1,0,0,,7,,,55,127
38870,note_on,105,0,0,,11,,,70,127
38973,note_off,103,0,0,,11,,,70,127
38975,note_on,2,0,0,,7,,,67,127
38975,note_on,0,0,0,,11,,,58,127
39078,note_off,103,0,0,,7,,,67,127
39080,note_on,2,0,0,,10,,,69,127
39183,note_off,103,0,0,,10,,,69,127
39183,note_off,0,0,0,,11,,,58,127
39185,note_on,2,0,0,,11,,,70,127
39185,note_on,0,0,0,,2,,,62,127
39288,note_off,103,0,0,,11,,,70,127
39290,note_on,2,0,0,,11,,,82,127
39393,note_off,103,0,0,,11,,,82,127
39393,note_off,0,0,0,,2,,,62,127
39394,note_off,1,0,0,,7,,,55,127
39395,note_on,1,0,0,,11,,,82,127
39395,note_on,0,0,0,,5,,,53,127
39604,note_on,209,0,0,,10,,,57,127
39811,note_off,207,0,0,,10,,,57,127
39811,note_off,0,0,0,,11,,,82,127
39813,note_on,2,0,0,,10,,,81,127
39813,note_on,0,0,0,,2,,,62,127
40020,note_off,207,0,0,,2,,,62,127
40020,note_off,0,0,0,,10,,,81,127
40021,note_off,1,0,0,,5,,,53,127
40026,note_on,5,0,0,,3,,,51,127
40131,note_on,105,0,0,,7,,,67,127
40234,note_off,103,0,0,,7,,,67,127
40236,note_on,2,0,0,,7,,,55,127
40236,note_on,0,0,0,,3,,,63,127
40339,note_off,103,0,0,,3,,,63,127
40341,note_on,2,0,0,,5,,,65,127
40444,note_off,103,0,0,,5,,,65,127
40444,note_off,0,0,0,,7,,,55,127
40446,note_on,2,0,0,,11,,,58,127
40446,note_on,0,0,0,,7,,,67,127
40549,note_off,103,0,0,,7,,,67,127
40551,note_on,2,0,0,,7,,,79,127
40654,note_off,103,0,0,,7,,,79,127
40654,note_off,0,0,0,,11,,,58,127
40655,note_off,1,0,0,,3,,,51,127
40656,note_on,1,0,0,,2,,,50,127
40656,note_on,0,0,0,,7,,,79,127
40865,note_on,209,0,0,,5,,,53,127
41072,note_off,207,0,0,,5,,,53,127
41072,note_off,0,0,0,,7,,,79,127
41074,note_on,2,0,0,,11,,,58,127
41074,note_on,0,0,0,,5,,,77,127
41281,note_off,207,0,0,,5,,,77,127
41281,note_off,0,0,0,,11,,,58,127
41282,note_off,1,0,0,,2,,,50,127
41283,note_on,1,0,0,,0,,,48,127
41388,note_on,105,0,0,,3,,,63,127
41491,note_off,103,0,0,,3,,,63,127
41493,note_on,2,0,0,,3,,,51,127
41493,note_on,0,0,0,,0,,,60,127
41596,note_off,103,0,0,,0,,,60,127
41598,note_on,2,0,0,,2,,,62,127
41701,note_off,103,0,0,,2,,,62,127
41701,note_off,0,0,0,,3,,,51,127
41703,note_on,2,0,0,,7,,,55,127
41703,note_on,0,0,0,,3,,,63,127
41806,note_off,103,0,0,,3,,,63,127
41808,note_on,2,0,0,,3,,,75,127
41911,note_off,103,0,0,,3,,,75,127
41911,note_off,0,0,0,,7,,,55,127
41912,note_off,1,0,0,,0,,,48,127
41913,note_on,1,0,0,,11,,,46,127
41913,note_on,0,0,0,,3,,,75,127
42122,note_on,209,0,0,,2,,,50,127
42329,note_off,207,0,0,,2,,,50,127
42329,note_off,0,0,0,,3,,,75,127
42331,note_on,2,0,0,,7,,,55,127
42331,note_on,0,0,0,,2,,,74,127
42538,note_off,207,0,0,,2,,,74,127
42538,note_off,0,0,0,,7,,,55,127
42539,note_off,1,0,0,,11,,,46,127
42544,note_on,5,0,0,,8,,,44,127
42649,note_on,105,0,0,,0,,,60,127
42752,note_off,103,0,0,,0,,,60,127
42754,note_on,2,0,0,,8,,,56,127
42754,note_on,0,0,0,,0,,,48,127
42857,note_off,103,0,0,,8,,,56,127
42859,note_on,2,0,0,,11,,,58,127
42962,note_off,103,0,0,,11,,,58,127
42962,note_off,0,0,0,,0,,,48,127
42964,note_on,2,0,0,,0,,,60,127
42964,note_on,0,0,0,,3,,,51,127
43067,note_off,103,0,0,,0,,,60,127
43069,note_on,2,0,0,,0,,,72,127
43172,note_off,103,0,0,,0,,,72,127
43172,note_off,0,0,0,,3,,,51,127
43173,note_off,1,0,0,,8,,,44,127
43174,note_on,1,0,0,,0,,,72,127
43174,note_on,0,0,0,,7,,,43,127
43383,note_on,209,0,0,,11,,,46,127
43590,note_off,207,0,0,,11,,,46,127
43590,note_off,0,0,0,,0,,,72,127
43592,note_on,2,0,0,,11,,,70,127
43592,note_on,0,0,0,,3,,,51,127
43799,note_off,207,0,0,,3,,,51,127
43799,note_off,0,0,0,,11,,,70,127
43800,note_off,1,0,0,,7,,,43,127
43801,note_on,1,0,0,,5,,,41,127
43906,note_on,105,0,0,,8,,,56,127
44009,note_off,103,0,0,,8,,,56,127
44011,note_on,2,0,0,,5,,,53,127
44011,note_on,0,0,0,,8,,,44,127
44114,note_off,103,0,0,,5,,,53,127
44116,note_on,2,0,0,,7,,,55,127
44219,note_off,103,0,0,,7,,,55,127
44219,note_off,0,0,0,,8,,,44,127
44221,note_on,2,0,0,,8,,,56,127
44221,note_on,0,0,0,,0,,,48,127
44324,note_off,103,0,0,,8,,,56,127
44326,note_on,2,0,0,,8,,,68,127
44429,note_off,103,0,0,,8,,,68,127
44429,note_off,0,0,0,,0,,,48,127
44430,note_off,1,0,0,,5,,,41,127
44431,note_on,1,0,0,,8,,,68,127
44431,note_on,0,0,0,,3,,,39,127
44640,note_on,209,0,0,,3,,,51,127
44745,note_off,105,0,0,,3,,,39,127
44848,note_off,103,0,0,,3,,,51,127
44848,note_off,0,0,0,,8,,,68,127
44850,note_on,2,0,0,,7,,,67,127
44850,note_on,0,0,0,,1,,,49,127
45057,note_off,207,0,0,,1,,,49,127
45057,note_off,0,0,0,,7,,,67,127
45077,note_on,20,0,0,,0,,,36,127
45077,note_on,0,0,0,,0,,,48,127
45182,note_on,105,0,0,,5,,,65,127
45285,note_off,103,0,0,,5,,,65,127
45287,note_on,2,0,0,,4,,,64,127
45390,note_off,103,0,0,,4,,,64,127
45392,note_on,2,0,0,,5,,,65,127
45495,note_off,103,0,0,,5,,,65,127
45497,note_on,2,0,0,,7,,,67,127
45600,note_off,103,0,0,,7,,,67,127
45602,note_on,2,0,0,,11,,,70,127
45705,note_off,103,0,0,,11,,,70,127
45705,note_off,0,0,0,,0,,,48,127
45705,note_off,0,0,0,,0,,,36,127
45707,note_on,2,0,0,,5,,,41,127
45707,note_on,0,0,0,,11,,,70,127
45707,note_on,0,0,0,,7,,,67,127
45914,note_off,207,0,0,,7,,,67,127
45914,note_off,0,0,0,,11,,,70,127
45916,note_on,2,0,0,,5,,,53,127
45916,note_on,0,0,0,,10,,,69,127
45916,note_on,0,0,0,,5,,,65,127
46021,note_off,105,0,0,,5,,,41,127
46124,note_off,103,0,0,,5,,,53,127
46126,note_on,2,0,0,,3,,,51,127
46331,note_off,205,0,0,,5,,,65,127
46331,note_off,0,0,0,,10,,,69,127
46333,note_off,2,0,0,,3,,,51,127
46344,note_on,11,0,0,,2,,,38,127
46344,note_on,0,0,0,,2,,,50,127
46449,note_on,105,0,0,,7,,,67,127
46552,note_off,103,0,0,,7,,,67,127
46554,note_on,2,0,0,,6,,,66,127
46657,note_off,103,0,0,,6,,,66,127
46659,note_on,2,0,0,,7,,,67,127
46762,note_off,103,0,0,,7,,,67,127
46764,note_on,2,0,0,,10,,,69,127
46867,note_off,103,0,0,,10,,,69,127
46869,note_on,2,0,0,,0,,,72,127
46972,note_off,103,0,0,,0,,,72,127
46972,note_off,0,0,0,,2,,,50,127
46972,note_off,0,0,0,,2,,,38,127
46974,note_on,2,0,0,,7,,,43,127
46974,note_on,0,0,0,,7,,,55,127
46974,note_on,0,0,0,,12,,,71,127
47096,note_on,122,0,0,,7,,,67,127
47106,note_off,10,0,0,,12,,,71,127
47199,note_off,93,0,0,,7,,,67,127
47201,note_on,2,0,0,,6,,,66,127
47304,note_off,103,0,0,,6,,,66,127
47306,note_on,2,0,0,,7,,,67,127
47391,note_off,85,0,0,,7,,,55,127
47391,note_off,0,0,0,,7,,,43,127
47408,note_off,17,0,0,,7,,,67,127
47410,note_on,2,0,0,,10,,,69,127
47410,note_on,0,0,0,,5,,,65,127
47410,note_on,0,0,0,,7,,,55,127
47513,note_off,103,0,0,,10,,,69,127
47515,note_on,2,0,0,,12,,,71,127
47618,note_off,103,0,0,,12,,,71,127
47618,note_off,0,0,0,,7,,,55,127
47618,note_off,0,0,0,,5,,,65,127
47620,note_on,2,0,0,,0,,,72,127
47620,note_on,0,0,0,,4,,,64,127
47620,note_on,0,0,0,,7,,,55,127
47723,note_off,103,0,0,,0,,,72,127
47725,note_on,2,0,0,,7,,,67,127
47828,note_off,103,0,0,,7,,,67,127
47828,note_off,0,0,0,,4,,,64,127
47830,note_on,2,0,0,,6,,,66,127
47830,note_on,0,0,0,,2,,,62,127
47933,note_off,103,0,0,,6,,,66,127
47935,note_on,2,0,0,,7,,,67,127
48038,note_off,103,0,0,,7,,,67,127
48038,note_off,0,0,0,,2,,,62,127
48040,note_on,2,0,0,,12,,,71,127
48040,note_on,0,0,0,,0,,,60,127
48143,note_off,103,0,0,,12,,,71,127
48145,note_on,2,0,0,,0,,,72,127
48248,note_off,103,0,0,,0,,,72,127
48248,note_off,0,0,0,,0,,,60,127
48249,note_off,1,0,0,,7,,,55,127
48250,note_on,1,0,0,,2,,,74,127
48250,note_on,0,0,0,,12,,,59,127
48250,note_on,0,0,0,,7,,,55,127
48353,note_off,103,0,0,,2,,,74,127
48355,note_on,2,0,0,,7,,,67,127
48458,note_off,103,0,0,,7,,,67,127
48458,note_off,0,0,0,,12,,,59,127
48460,note_on,2,0,0,,6,,,66,127
48460,note_on,0,0,0,,10,,,57,127
48563,note_off,103,0,0,,6,,,66,127
48565,note_on,2,0,0,,7,,,67,127
48665,note_off,100,0,0,,7,,,55,127
48667,note_off,2,0,0,,7,,,67,127
48667,note_off,0,0,0,,10,,,57,127
48669,note_on,2,0,0,,0,,,72,127
48669,note_on,0,0,0,,7,,,55,127
48772,note_off,103,0,0,,0,,,72,127
48774,note_on,2,0,0,,2,,,74,127
48877,note_off,103,0,0,,2,,,74,127
48877,note_off,0,0,0,,7,,,55,127
48879,note_on,2,0,0,,4,,,76,127
48879,note_on,0,0,0,,7,,,55,127
48879,note_on,0,0,0,,0,,,60,127
48982,note_off,103,0,0,,4,,,76,127
48984,note_on,2,0,0,,7,,,67,127
49087,note_off,103,0,0,,7,,,67,127
49087,note_off,0,0,0,,0,,,60,127
49089,note_on,2,0,0,,6,,,66,127
49089,note_on,0,0,0,,12,,,59,127
49192,note_off,103,0,0,,6,,,66,127
49194,note_on,2,0,0,,7,,,67,127
49297,note_off,103,0,0,,7,,,67,127
49297,note_off,0,0,0,,12,,,59,127
49299,note_on,2,0,0,,2,,,74,127
49299,note_on,0,0,0,,0,,,60,127
49402,note_off,103,0,0,,2,,,74,127
49404,note_on,2,0,0,,4,,,76,127
49507,note_off,103,0,0,,4,,,76,127
49507,note_off,0,0,0,,0,,,60,127
49508,note_off,1,0,0,,7,,,55,127
49509,note_on,1,0,0,,5,,,77,127
49509,note_on,0,0,0,,2,,,62,127
49509,note_on,0,0,0,,7,,,55,127
49612,note_off,103,0,0,,5,,,77,127
49614,note_on,2,0,0,,7,,,67,127
49717,note_off,103,0,0,,7,,,67,127
49717,note_off,0,0,0,,2,,,62,127
49719,note_on,2,0,0,,6,,,66,127
49719,note_on,0,0,0,,0,,,60,127
49822,note_off,103,0,0,,6,,,66,127
49824,note_on,2,0,0,,7,,,67,127
49927,note_off,103,0,0,,7,,,67,127
49927,note_off,0,0,0,,0,,,60,127
49929,note_on,2,0,0,,4,,,76,127
49929,note_on,0,0,0,,2,,,62,127
50032,note_off,103,0,0,,4,,,76,127
50034,note_on,2,0,0,,5,,,77,127
50137,note_off,103,0,0,,5,,,77,127
50137,note_off,0,0,0,,2,,,62,127
50138,note_off,1,0,0,,7,,,55,127
50139,note_on,1,0,0,,7,,,79,127
50139,note_on,0,0,0,,4,,,64,127
50139,note_on,0,0,0,,7,,,55,127
50244,note_on,105,0,0,,7,,,67,127
50347,note_off,103,0,0,,7,,,67,127
50347,note_off,0,0,0,,4,,,64,127
50347,note_off,0,0,0,,7,,,79,127
50349,note_on,2,0,0,,6,,,66,127
50349,note_on,0,0,0,,2,,,62,127
50452,note_off,103,0,0,,6,,,66,127
50454,note_on,2,0,0,,7,,,67,127
50557,note_off,103,0,0,,7,,,67,127
50557,note_off,0,0,0,,2,,,62,127
50559,note_on,2,0,0,,5,,,77,127
50559,note_on,0,0,0,,4,,,64,127
50662,note_off,103,0,0,,5,,,77,127
50664,note_on,2,0,0,,7,,,79,127
50767,note_off,103,0,0,,7,,,79,127
50767,note_off,0,0,0,,4,,,64,127
50768,note_off,1,0,0,,7,,,55,127
50769,note_on,1,0,0,,10,,,81,127
50769,note_on,0,0,0,,5,,,53,127
50872,note_off,103,0,0,,10,,,81,127
50874,note_on,2,0,0,,7,,,79,127
50977,note_off,103,0,0,,7,,,79,127
50979,note_on,2,0,0,,5,,,77,127
50979,note_on,0,0,0,,5,,,65,127
51082,note_off,103,0,0,,5,,,77,127
51084,note_on,2,0,0,,4,,,76,127
51184,note_off,100,0,0,,5,,,53,127
51186,note_off,2,0,0,,4,,,76,127
51186,note_off,0,0,0,,5,,,65,127
51188,note_on,2,0,0,,2,,,74,127
51188,note_on,0,0,0,,5,,,53,127
51291,note_off,103,0,0,,2,,,74,127
51293,note_on,2,0,0,,0,,,72,127
51396,note_off,103,0,0,,0,,,72,127
51396,note_off,0,0,0,,5,,,53,127
51398,note_on,2,0,0,,12,,,71,127
51398,note_on,0,0,0,,7,,,55,127
51501,note_off,103,0,0,,12,,,71,127
51503,note_on,2,0,0,,10,,,69,127
51606,note_off,103,0,0,,10,,,69,127
51608,note_on,2,0,0,,7,,,67,127
51713,note_on,105,0,0,,5,,,65,127
51816,note_off,103,0,0,,5,,,65,127
51823,note_on,7,0,0,,4,,,64,127
51926,note_off,103,0,0,,4,,,64,127
51935,note_on,9,0,0,,2,,,62,127
52024,note_off,89,0,0,,7,,,67,127
52027,note_off,3,0,0,,7,,,55,127
52037,note_off,10,0,0,,2,,,62,127
52046,note_on,9,0,0,,0,,,60,127
52151,note_on,105,0,0,,0,,,72,127
52254,note_off,103,0,0,,0,,,72,127
52256,note_on,2,0,0,,12,,,71,127
52359,note_off,103,0,0,,12,,,71,127
52359,note_off,0,0,0,,0,,,60,127
52361,note_on,2,0,0,,0,,,60,127
52361,note_on,0,0,0,,0,,,72,127
52464,note_off,103,0,0,,0,,,60,127
52466,note_on,2,0,0,,12,,,59,127
52466,note_on,0,0,0,,0,,,84,127
52569,note_off,103,0,0,,12,,,59,127
52571,note_on,2,0,0,,0,,,60,127
52674,note_off,103,0,0,,0,,,60,127
52675,note_off,1,0,0,,0,,,72,127
52676,note_on,1,0,0,,0,,,72,127
52779,note_off,103,0,0,,0,,,72,127
52779,note_off,0,0,0,,0,,,84,127
52781,note_on,2,0,0,,0,,,72,127
52884,note_off,103,0,0,,0,,,72,127
52886,note_on,2,0,0,,12,,,71,127
52989,note_off,103,0,0,,12,,,71,127
52991,note_on,2,0,0,,10,,,57,127
52991,note_on,0,0,0,,0,,,72,127
53094,note_off,103,0,0,,10,,,57,127
53096,note_on,2,0,0,,8,,,56,127
53096,note_on,0,0,0,,0,,,84,127
53199,note_off,103,0,0,,8,,,56,127
53201,note_on,2,0,0,,10,,,57,127
53304,note_off,103,0,0,,10,,,57,127
53305,note_off,1,0,0,,0,,,72,127
53306,note_on,1,0,0,,0,,,72,127
53409,note_off,103,0,0,,0,,,72,127
53409,note_off,0,0,0,,0,,,84,127
53411,note_on,2,0,0,,0,,,72,127
53514,note_off,103,0,0,,0,,,72,127
53516,note_on,2,0,0,,12,,,71,127
53619,note_off,103,0,0,,12,,,71,127
53621,note_on,2,0,0,,5,,,53,127
53621,note_on,0,0,0,,0,,,72,127
53724,note_off,103,0,0,,5,,,53,127
53726,note_on,2,0,0,,4,,,52,127
53726,note_on,0,0,0,,0,,,84,127
53829,note_off,103,0,0,,4,,,52,127
53831,note_on,2,0,0,,5,,,53,127
53934,note_off,103,0,0,,5,,,53,127
53935,note_off,1,0,0,,0,,,72,127
53936,note_on,1,0,0,,0,,,72,127
54039,note_off,103,0,0,,0,,,72,127
54039,note_off,0,0,0,,0,,,84,127
54041,note_on,2,0,0,,0,,,72,127
54144,note_off,103,0,0,,0,,,72,127
54146,note_on,2,0,0,,12,,,71,127
54249,note_off,103,0,0,,12,,,71,127
54251,note_on,2,0,0,,4,,,52,127
54251,note_on,0,0,0,,0,,,72,127
54354,note_off,103,0,0,,4,,,52,127
54356,note_on,2,0,0,,2,,,50,127
54356,note_on,0,0,0,,0,,,84,127
54459,note_off,103,0,0,,2,,,50,127
54461,note_on,2,0,0,,4,,,52,127
54564,note_off,103,0,0,,4,,,52,127
54565,note_off,1,0,0,,0,,,72,127
54566,note_on,1,0,0,,0,,,72,127
54669,note_off,103,0,0,,0,,,72,127
54669,note_off,0,0,0,,0,,,84,127
54671,note_on,2,0,0,,0,,,72,127
54774,note_off,103,0,0,,0,,,72,127
54776,note_on,2,0,0,,12,,,71,127
54879,note_off,103,0,0,,12,,,71,127
54881,note_on,2,0,0,,0,,,72,127
54986,note_on,105,0,0,,4,,,52,127
54986,note_on,0,0,0,,0,,,60,127
54986,note_on,0,0,0,,0,,,84,127
55089,note_off,103,0,0,,0,,,84,127
55089,note_off,0,0,0,,0,,,72,127
55091,note_on,2,0,0,,12,,,83,127
55194,note_off,103,0,0,,12,,,83,127
55194,note_off,0,0,0,,0,,,60,127
55194,note_off,0,0,0,,4,,,52,127
55196,note_on,2,0,0,,5,,,53,127
55196,note_on,0,0,0,,0,,,60,127
55196,note_on,0,0,0,,12,,,83,127
55299,note_off,103,0,0,,12,,,83,127
55301,note_on,2,0,0,,10,,,81,127
55404,note_off,103,0,0,,10,,,81,127
55404,note_off,0,0,0,,5,,,53,127
55406,note_on,2,0,0,,7,,,55,127
55406,note_on,0,0,0,,10,,,81,127
55509,note_off,103,0,0,,10,,,81,127
55511,note_on,2,0,0,,7,,,79,127
55611,note_off,100,0,0,,0,,,60,127
55613,note_off,2,0,0,,7,,,79,127
55615,note_on,2,0,0,,12,,,59,127
55615,note_on,0,0,0,,7,,,79,127
55718,note_off,103,0,0,,7,,,79,127
55720,note_on,2,0,0,,5,,,77,127
55820,note_off,100,0,0,,7,,,55,127
55822,note_off,2,0,0,,5,,,77,127
55822,note_off,0,0,0,,12,,,59,127
55824,note_on,2,0,0,,0,,,60,127
55824,note_on,0,0,0,,0,,,48,127
55824,note_on,0,0,0,,4,,,76,127
55946,note_on,122,0,0,,0,,,72,127
55955,note_off,9,0,0,,4,,,76,127
56049,note_off,94,0,0,,0,,,72,127
56051,note_on,2,0,0,,12,,,71,127
56136,note_off,85,0,0,,0,,,48,127
56136,note_off,0,0,0,,0,,,60,127
56153,note_off,17,0,0,,12,,,71,127
56155,note_on,2,0,0,,0,,,72,127
56155,note_on,0,0,0,,0,,,60,127
56258,note_off,103,0,0,,0,,,60,127
56260,note_on,2,0,0,,0,,,84,127
56260,note_on,0,0,0,,12,,,59,127
56363,note_off,103,0,0,,12,,,59,127
56365,note_on,2,0,0,,0,,,60,127
56468,note_off,103,0,0,,0,,,60,127
56469,note_off,1,0,0,,0,,,72,127
56470,note_on,1,0,0,,0,,,72,127
56573,note_off,103,0,0,,0,,,72,127
56573,note_off,0,0,0,,0,,,84,127
56575,note_on,2,0,0,,0,,,72,127
56678,note_off,103,0,0,,0,,,72,127
56680,note_on,2,0,0,,12,,,71,127
56783,note_off,103,0,0,,12,,,71,127
56785,note_on,2,0,0,,0,,,72,127
56785,note_on,0,0,0,,10,,,57,127
56888,note_off,103,0,0,,10,,,57,127
56890,note_on,2,0,0,,0,,,84,127
56890,note_on,0,0,0,,8,,,56,127
56993,note_off,103,0,0,,8,,,56,127
56995,note_on,2,0,0,,10,,,57,127
57098,note_off,103,0,0,,10,,,57,127
57099,note_off,1,0,0,,0,,,72,127
57100,note_on,1,0,0,,0,,,72,127
57203,note_off,103,0,0,,0,,,72,127
57203,note_off,0,0,0,,0,,,84,127
57205,note_on,2,0,0,,0,,,72,127
57308,note_off,103,0,0,,0,,,72,127
57310,note_on,2,0,0,,12,,,71,127
57413,note_off,103,0,0,,12,,,71,127
57415,note_on,2,0,0,,0,,,72,127
57415,note_on,0,0,0,,5,,,53,127
57518,note_off,103,0,0,,5,,,53,127
57520,note_on,2,0,0,,0,,,84,127
57520,note_on,0,0,0,,4,,,52,127
57623,note_off,103,0,0,,4,,,52,127
57625,note_on,2,0,0,,5,,,53,127
57728,note_off,103,0,0,,5,,,53,127
57729,note_off,1,0,0,,0,,,72,127
57730,note_on,1,0,0,,0,,,72,127
57833,note_off,103,0,0,,0,,,72,127
57833,note_off,0,0,0,,0,,,84,127
57835,note_on,2,0,0,,0,,,72,127
57938,note_off,103,0,0,,0,,,72,127
57940,note_on,2,0,0,,12,,,71,127
58043,note_off,103,0,0,,12,,,71,127
58045,note_on,2,0,0,,0,,,72,127
58045,note_on,0,0,0,,4,,,52,127
58148,note_off,103,0,0,,4,,,52,127
58150,note_on,2,0,0,,0,,,84,127
58150,note_on,0,0,0,,3,,,51,127
58253,note_off,103,0,0,,3,,,51,127
58255,note_on,2,0,0,,4,,,52,127
58358,note_off,103,0,0,,4,,,52,127
58359,note_off,1,0,0,,0,,,72,127
58360,note_on,1,0,0,,0,,,72,127
58463,note_off,103,0,0,,0,,,72,127
58463,note_off,0,0,0,,0,,,84,127
58465,note_on,2,0,0,,0,,,72,127
58568,note_off,103,0,0,,0,,,72,127
58570,note_on,2,0,0,,12,,,71,127
58673,note_off,103,0,0,,12,,,71,127
58675,note_on,2,0,0,,0,,,72,127
58780,note_on,105,0,0,,0,,,84,127
58780,note_on,0,0,0,,0,,,60,127
58780,note_on,0,0,0,,4,,,52,127
58883,note_off,103,0,0,,0,,,84,127
58883,note_off,0,0,0,,0,,,72,127
58885,note_on,2,0,0,,12,,,83,127
58988,note_off,103,0,0,,12,,,83,127
58988,note_off,0,0,0,,4,,,52,127
58988,note_off,0,0,0,,0,,,60,127
58990,note_on,2,0,0,,12,,,83,127
58990,note_on,0,0,0,,0,,,60,127
58990,note_on,0,0,0,,5,,,53,127
59093,note_off,103,0,0,,12,,,83,127
59095,note_on,2,0,0,,10,,,81,127
59198,note_off,103,0,0,,10,,,81,127
59198,note_off,0,0,0,,5,,,53,127
59200,note_on,2,0,0,,10,,,81,127
59200,note_on,0,0,0,,7,,,55,127
59303,note_off,103,0,0,,10,,,81,127
59305,note_on,2,0,0,,7,,,79,127
59405,note_off,100,0,0,,0,,,60,127
59407,note_off,2,0,0,,7,,,79,127
59409,note_on,2,0,0,,7,,,79,127
59409,note_on,0,0,0,,12,,,59,127
59522,note_off,113,0,0,,7,,,79,127
59522,note_on,0,0,0,,5,,,77,127
59614,note_off,92,0,0,,7,,,55,127
59616,note_off,2,0,0,,12,,,59,127
59636,note_off,20,0,0,,5,,,77,127
59636,note_on,0,0,0,,0,,,48,127
59636,note_on,0,0,0,,0,,,60,127
59636,note_on,0,0,0,,4,,,76,127
59739,note_off,103,0,0,,4,,,76,127
59741,note_on,2,0,0,,0,,,84,127
59844,note_off,103,0,0,,0,,,84,127
59844,note_off,0,0,0,,0,,,48,127
59846,note_on,2,0,0,,2,,,50,127
59846,note_on,0,0,0,,7,,,79,127
59949,note_off,103,0,0,,7,,,79,127
59951,note_on,2,0,0,,4,,,76,127
60054,note_off,103,0,0,,4,,,76,127
60054,note_off,0,0,0,,2,,,50,127
60056,note_on,2,0,0,,4,,,52,127
60056,note_on,0,0,0,,0,,,72,127
60159,note_off,103,0,0,,0,,,72,127
60161,note_on,2,0,0,,7,,,67,127
60264,note_off,103,0,0,,7,,,67,127
60264,note_off,0,0,0,,4,,,52,127
60265,note_off,1,0,0,,0,,,60,127
60266,note_on,1,0,0,,5,,,53,127
60266,note_on,0,0,0,,2,,,62,127
60369,note_off,103,0,0,,2,,,62,127
60371,note_on,2,0,0,,7,,,79,127
60474,note_off,103,0,0,,7,,,79,127
60474,note_off,0,0,0,,5,,,53,127
60476,note_on,2,0,0,,7,,,55,127
60476,note_on,0,0,0,,7,,,79,127
60544,note_off,68,0,0,,7,,,79,127
60546,note_on,2,0,0,,5,,,77,127
60614,note_off,68,0,0,,5,,,77,127
60616,note_on,2,0,0,,7,,,79,127
60684,note_off,68,0,0,,7,,,79,127
60686,note_on,2,0,0,,7,,,43,127
60686,note_on,0,0,0,,5,,,77,127
60754,note_off,68,0,0,,5,,,77,127
60756,note_on,2,0,0,,7,,,79,127
60824,note_off,68,0,0,,7,,,79,127
60826,note_on,2,0,0,,5,,,77,127
60891,note_off,65,0,0,,7,,,55,127
60893,note_off,2,0,0,,5,,,77,127
60893,note_off,0,0,0,,7,,,43,127
60913,note_on,20,0,0,,4,,,76,127
60913,note_on,0,0,0,,0,,,48,127
61016,note_off,103,0,0,,4,,,76,127
61018,note_on,2,0,0,,7,,,79,127
61121,note_off,103,0,0,,7,,,79,127
61121,note_off,0,0,0,,0,,,48,127
61123,note_on,2,0,0,,4,,,76,127
61123,note_on,0,0,0,,2,,,50,127
61226,note_off,103,0,0,,4,,,76,127
61228,note_on,2,0,0,,0,,,72,127
61331,note_off,103,0,0,,0,,,72,127
61331,note_off,0,0,0,,2,,,50,127
61333,note_on,2,0,0,,7,,,67,127
61333,note_on,0,0,0,,4,,,52,127
61436,note_off,103,0,0,,7,,,67,127
61438,note_on,2,0,0,,4,,,64,127
61541,note_off,103,0,0,,4,,,64,127
61541,note_off,0,0,0,,4,,,52,127
61543,note_on,2,0,0,,2,,,62,127
61543,note_on,0,0,0,,5,,,53,127
61646,note_off,103,0,0,,2,,,62,127
61648,note_on,2,0,0,,4,,,76,127
61751,note_off,103,0,0,,4,,,76,127
61751,note_off,0,0,0,,5,,,53,127
61753,note_on,2,0,0,,4,,,76,127
61753,note_on,0,0,0,,7,,,55,127
61821,note_off,68,0,0,,4,,,76,127
61823,note_on,2,0,0,,2,,,74,127
61891,note_off,68,0,0,,2,,,74,127
61893,note_on,2,0,0,,4,,,76,127
61961,note_off,68,0,0,,4,,,76,127
61963,note_on,2,0,0,,2,,,74,127
61963,note_on,0,0,0,,7,,,43,127
62031,note_off,68,0,0,,2,,,74,127
62033,note_on,2,0,0,,4,,,76,127
62101,note_off,68,0,0,,4,,,76,127
62103,note_on,2,0,0,,2,,,74,127
62168,note_off,65,0,0,,7,,,55,127
62170,note_off,2,0,0,,2,,,74,127
62170,note_off,0,0,0,,7,,,43,127
62190,note_on,20,0,0,,0,,,48,127
62190,note_on,0,0,0,,0,,,72,127
62295,note_on,105,0,0,,0,,,84,127
62398,note_off,103,0,0,,0,,,84,127
62398,note_off,0,0,0,,0,,,72,127
62398,note_off,0,0,0,,0,,,48,127
62400,note_on,2,0,0,,2,,,50,127
62400,note_on,0,0,0,,7,,,79,127
62503,note_off,103,0,0,,7,,,79,127
62505,note_on,2,0,0,,4,,,76,127
62608,note_off,103,0,0,,4,,,76,127
62608,note_off,0,0,0,,2,,,50,127
62610,note_on,2,0,0,,4,,,52,127
62610,note_on,0,0,0,,0,,,72,127
62713,note_off,103,0,0,,0,,,72,127
62715,note_on,2,0,0,,7,,,67,127
62818,note_off,103,0,0,,7,,,67,127
62818,note_off,0,0,0,,4,,,52,127
62820,note_on,2,0,0,,5,,,53,127
62820,note_on,0,0,0,,0,,,60,127
62923,note_off,103,0,0,,0,,,60,127
62925,note_on,2,0,0,,7,,,79,127
63028,note_off,103,0,0,,7,,,79,127
63028,note_off,0,0,0,,5,,,53,127
63030,note_on,2,0,0,,7,,,55,127
63030,note_on,0,0,0,,7,,,79,127
63098,note_off,68,0,0,,7,,,79,127
63100,note_on,2,0,0,,5,,,77,127
63168,note_off,68,0,0,,5,,,77,127
63170,note_on,2,0,0,,7,,,79,127
63238,note_off,68,0,0,,7,,,79,127
63240,note_on,2,0,0,,7,,,43,127
63240,note_on,0,0,0,,5,,,77,127
63308,note_off,68,0,0,,5,,,77,127
63310,note_on,2,0,0,,7,,,79,127
63378,note_off,68,0,0,,7,,,79,127
63380,note_on,2,0,0,,5,,,77,127
63445,note_off,65,0,0,,7,,,55,127
63447,note_off,2,0,0,,5,,,77,127
63447,note_off,0,0,0,,7,,,43,127
63467,note_on,20,0,0,,4,,,76,127
63467,note_on,0,0,0,,0,,,48,127
63570,note_off,103,0,0,,4,,,76,127
63572,note_on,2,0,0,,7,,,79,127
63675,note_off,103,0,0,,7,,,79,127
63675,note_off,0,0,0,,0,,,48,127
63677,note_on,2,0,0,,4,,,76,127
63677,note_on,0,0,0,,2,,,50,127
63780,note_off,103,0,0,,4,,,76,127
63782,note_on,2,0,0,,0,,,72,127
63885,note_off,103,0,0,,0,,,72,127
63885,note_off,0,0,0,,2,,,50,127
63887,note_on,2,0,0,,7,,,67,127
63887,note_on,0,0,0,,4,,,52,127
63990,note_off,103,0,0,,7,,,67,127
63992,note_on,2,0,0,,4,,,64,127
64095,note_off,103,0,0,,4,,,64,127
64095,note_off,0,0,0,,4,,,52,127
64097,note_on,2,0,0,,2,,,62,127
64097,note_on,0,0,0,,5,,,53,127
64200,note_off,103,0,0,,2,,,62,127
64202,note_on,2,0,0,,0,,,72,127
64278,note_off,76,0,0,,0,,,72,127
64304,note_off,26,0,0,,5,,,53,127
64315,note_on,11,0,0,,4,,,64,127
64315,note_on,0,0,0,,7,,,55,127
64383,note_off,68,0,0,,4,,,64,127
64385,note_on,2,0,0,,2,,,62,127
64453,note_off,68,0,0,,2,,,62,127
64455,note_on,2,0,0,,4,,,64,127
64523,note_off,68,0,0,,4,,,64,127
64525,note_on,2,0,0,,2,,,62,127
64525,note_on,0,0,0,,7,,,43,127
64593,note_off,68,0,0,,2,,,62,127
64600,note_on,7,0,0,,0,,,60,127
64675,note_off,75,0,0,,0,,,60,127
64676,note_on,1,0,0,,2,,,62,127
64751,note_off,75,0,0,,2,,,62,127
64754,note_off,3,0,0,,7,,,43,127
64757,note_off,3,0,0,,7,,,55,127
64769,note_on,12,0,0,,0,,,60,127
64769,note_on,0,0,0,,0,,,48,127
66405,note_off,1636,0,0,,0,,,48,127
66405,note_off,0,0,0,,0,,,60,127
72192,end_of_track,5787,1,0,,,,,,
