tick,type,time,meta,track,program,channel,pitch,tempo,note,velocity
0,copyright,0,1,0,,,,,,
0,program_change,0,0,0,6,0,,,,
0,pitchwheel,0,0,0,,0,0,,,
0,program_change,0,0,0,6,1,,,,
0,pitchwheel,0,0,0,,1,-590,,,
0,program_change,0,0,0,6,2,,,,
0,pitchwheel,0,0,0,,2,-272,,,
0,program_change,0,0,0,6,3,,,,
0,pitchwheel,0,0,0,,3,-353,,,
0,program_change,0,0,0,6,4,,,,
0,pitchwheel,0,0,0,,4,-560,,,
0,program_change,0,0,0,6,5,,,,
0,pitchwheel,0,0,0,,5,-80,,,
0,program_change,0,0,0,6,6,,,,
0,pitchwheel,0,0,0,,6,-625,,,
0,program_change,0,0,0,6,7,,,,
0,pitchwheel,0,0,0,,7,-130,,,
0,program_change,0,0,0,6,8,,,,
0,pitchwheel,0,0,0,,8,-512,,,
0,program_change,0,0,0,6,10,,,,
0,pitchwheel,0,0,0,,10,-464,,,
0,program_change,0,0,0,6,11,,,,
0,pitchwheel,0,0,0,,11,-208,,,
0,program_change,0,0,0,6,12,,,,
0,pitchwheel,0,0,0,,12,-553,,,
0,set_tempo,0,1,0,,,,500000,,
131,note_on,131,0,0,,3,,,39,127
131,note_on,0,0,0,,3,,,51,127
393,note_on,262,0,0,,11,,,82,127
521,note_off,128,0,0,,11,,,82,127
524,note_on,3,0,0,,8,,,80,127
652,note_off,128,0,0,,8,,,80,127
655,note_on,3,0,0,,7,,,79,127
783,note_off,128,0,0,,7,,,79,127
786,note_on,3,0,0,,5,,,77,127
914,note_off,128,0,0,,5,,,77,127
915,note_off,1,0,0,,3,,,51,127
915,note_off,0,0,0,,3,,,39,127
916,note_on,1,0,0,,3,,,75,127
1178,note_on,262,0,0,,5,,,77,127
1216,note_off,38,0,0,,3,,,75,127
1306,note_off,90,0,0,,5,,,77,127
1309,note_on,3,0,0,,3,,,75,127
1437,note_off,128,0,0,,3,,,75,127
1440,note_on,3,0,0,,2,,,74,127
1568,note_off,128,0,0,,2,,,74,127
1571,note_on,3,0,0,,0,,,72,127
1699,note_off,128,0,0,,0,,,72,127
1702,note_on,3,0,0,,11,,,70,127
1964,note_on,262,0,0,,0,,,72,127
2002,note_off,38,0,0,,11,,,70,127
2092,note_off,90,0,0,,0,,,72,127
2095,note_on,3,0,0,,11,,,70,127
2223,note_off,128,0,0,,11,,,70,127
2226,note_on,3,0,0,,8,,,68,127
2354,note_off,128,0,0,,8,,,68,127
2357,note_on,3,0,0,,7,,,67,127
2485,note_off,128,0,0,,7,,,67,127
2488,note_on,3,0,0,,5,,,65,127
2750,note_on,262,0,0,,11,,,70,127
2815,note_off,65,0,0,,5,,,65,127
2878,note_off,63,0,0,,11,,,70,127
2881,note_on,3,0,0,,8,,,68,127
3009,note_off,128,0,0,,8,,,68,127
3012,note_on,3,0,0,,7,,,67,127
3140,note_off,128,0,0,,7,,,67,127
3143,note_on,3,0,0,,5,,,65,127
3271,note_off,128,0,0,,5,,,65,127
3274,note_on,3,0,0,,3,,,63,127
3536,note_on,262,0,0,,11,,,70,127
3664,note_off,128,0,0,,11,,,70,127
3667,note_off,3,0,0,,3,,,63,127
3667,note_on,0,0,0,,8,,,68,127
3795,note_off,128,0,0,,8,,,68,127
3798,note_on,3,0,0,,7,,,67,127
3926,note_off,128,0,0,,7,,,67,127
3929,note_on,3,0,0,,5,,,65,127
4057,note_off,128,0,0,,5,,,65,127
4060,note_on,3,0,0,,3,,,63,127
4319,note_off,259,0,0,,3,,,63,127
4322,note_on,3,0,0,,5,,,65,127
4322,note_on,0,0,0,,8,,,80,127
4322,note_on,0,0,0,,11,,,82,127
4322,note_on,0,0,0,,5,,,77,127
4450,note_off,128,0,0,,5,,,65,127
4453,note_on,3,0,0,,3,,,63,127
4581,note_off,128,0,0,,3,,,63,127
4581,note_off,0,0,0,,11,,,82,127
4584,note_on,3,0,0,,2,,,62,127
4712,note_off,128,0,0,,2,,,62,127
4715,note_on,3,0,0,,0,,,60,127
4843,note_off,128,0,0,,0,,,60,127
4846,note_on,3,0,0,,11,,,58,127
5105,note_off,259,0,0,,11,,,58,127
5105,note_off,0,0,0,,5,,,77,127
5105,note_off,0,0,0,,8,,,80,127
5108,note_on,3,0,0,,0,,,60,127
5108,note_on,0,0,0,,7,,,79,127
5108,note_on,0,0,0,,3,,,75,127
5236,note_off,128,0,0,,0,,,60,127
5239,note_on,3,0,0,,11,,,58,127
5367,note_off,128,0,0,,11,,,58,127
5370,note_on,3,0,0,,8,,,56,127
5498,note_off,128,0,0,,8,,,56,127
5501,note_on,3,0,0,,7,,,55,127
5629,note_off,128,0,0,,7,,,55,127
5632,note_on,3,0,0,,5,,,53,127
5891,note_off,259,0,0,,5,,,53,127
5891,note_off,0,0,0,,3,,,75,127
5891,note_off,0,0,0,,7,,,79,127
5894,note_on,3,0,0,,11,,,58,127
5894,note_on,0,0,0,,2,,,74,127
5894,note_on,0,0,0,,5,,,77,127
6022,note_off,128,0,0,,11,,,58,127
6025,note_on,3,0,0,,8,,,56,127
6153,note_off,128,0,0,,8,,,56,127
6156,note_on,3,0,0,,7,,,55,127
6284,note_off,128,0,0,,7,,,55,127
6287,note_on,3,0,0,,5,,,53,127
6415,note_off,128,0,0,,5,,,53,127
6415,note_off,0,0,0,,5,,,77,127
6415,note_off,0,0,0,,2,,,74,127
6418,note_on,3,0,0,,3,,,51,127
6418,note_on,0,0,0,,7,,,79,127
6546,note_off,128,0,0,,7,,,79,127
6549,note_on,3,0,0,,3,,,75,127
6677,note_off,128,0,0,,3,,,75,127
6680,note_on,3,0,0,,11,,,70,127
6808,note_off,128,0,0,,11,,,70,127
6811,note_on,3,0,0,,7,,,67,127
6939,note_off,128,0,0,,7,,,67,127
6942,note_on,3,0,0,,11,,,70,127
7070,note_off,128,0,0,,11,,,70,127
7073,note_on,3,0,0,,3,,,75,127
7201,note_off,128,0,0,,3,,,75,127
7201,note_off,0,0,0,,3,,,51,127
7204,note_on,3,0,0,,3,,,63,127
7204,note_on,0,0,0,,7,,,67,127
7463,note_off,259,0,0,,7,,,67,127
7463,note_off,0,0,0,,3,,,63,127
7466,note_on,3,0,0,,5,,,65,127
7466,note_on,0,0,0,,11,,,70,127
7529,note_off,63,0,0,,11,,,70,127
7532,note_on,3,0,0,,8,,,68,127
7595,note_off,63,0,0,,8,,,68,127
7598,note_on,3,0,0,,11,,,70,127
7661,note_off,63,0,0,,11,,,70,127
7664,note_on,3,0,0,,8,,,68,127
7727,note_off,63,0,0,,8,,,68,127
7727,note_off,0,0,0,,5,,,65,127
7730,note_on,3,0,0,,11,,,58,127
7730,note_on,0,0,0,,11,,,70,127
7793,note_off,63,0,0,,11,,,70,127
7796,note_on,3,0,0,,8,,,68,127
7859,note_off,63,0,0,,8,,,68,127
7862,note_on,3,0,0,,7,,,67,127
7925,note_off,63,0,0,,7,,,67,127
7928,note_on,3,0,0,,8,,,68,127
7991,note_off,63,0,0,,8,,,68,127
7991,note_off,0,0,0,,11,,,58,127
7994,note_on,3,0,0,,7,,,67,127
7994,note_on,0,0,0,,11,,,70,127
8122,note_off,128,0,0,,7,,,67,127
8125,note_on,3,0,0,,3,,,63,127
8253,note_off,128,0,0,,3,,,63,127
8256,note_on,3,0,0,,11,,,58,127
8384,note_off,128,0,0,,11,,,58,127
8387,note_on,3,0,0,,7,,,55,127
8515,note_off,128,0,0,,7,,,55,127
8518,note_on,3,0,0,,11,,,58,127
8646,note_off,128,0,0,,11,,,58,127
8649,note_on,3,0,0,,3,,,63,127
8777,note_off,128,0,0,,3,,,63,127
8777,note_off,0,0,0,,11,,,70,127
8780,note_on,3,0,0,,7,,,55,127
8780,note_on,0,0,0,,11,,,70,127
9039,note_off,259,0,0,,11,,,70,127
9039,note_off,0,0,0,,7,,,55,127
9042,note_on,3,0,0,,8,,,56,127
9042,note_on,0,0,0,,2,,,74,127
9105,note_off,63,0,0,,2,,,74,127
9108,note_on,3,0,0,,0,,,72,127
9171,note_off,63,0,0,,0,,,72,127
9174,note_on,3,0,0,,2,,,74,127
9237,note_off,63,0,0,,2,,,74,127
9240,note_on,3,0,0,,0,,,72,127
9303,note_off,63,0,0,,0,,,72,127
9303,note_off,0,0,0,,8,,,56,127
9306,note_on,3,0,0,,5,,,53,127
9306,note_on,0,0,0,,2,,,74,127
9369,note_off,63,0,0,,2,,,74,127
9372,note_on,3,0,0,,0,,,72,127
9435,note_off,63,0,0,,0,,,72,127
9438,note_on,3,0,0,,11,,,70,127
9501,note_off,63,0,0,,11,,,70,127
9504,note_on,3,0,0,,0,,,72,127
9567,note_off,63,0,0,,0,,,72,127
9567,note_off,0,0,0,,5,,,53,127
9570,note_on,3,0,0,,11,,,58,127
9570,note_on,0,0,0,,2,,,74,127
9701,note_on,131,0,0,,11,,,70,127
9766,note_off,65,0,0,,2,,,74,127
9829,note_off,63,0,0,,11,,,70,127
9829,note_off,0,0,0,,11,,,58,127
9832,note_on,3,0,0,,8,,,56,127
9832,note_on,0,0,0,,0,,,72,127
9960,note_off,128,0,0,,0,,,72,127
9963,note_on,3,0,0,,2,,,74,127
10091,note_off,128,0,0,,2,,,74,127
10091,note_off,0,0,0,,8,,,56,127
10094,note_on,3,0,0,,7,,,55,127
10094,note_on,0,0,0,,3,,,75,127
10222,note_off,128,0,0,,3,,,75,127
10225,note_on,3,0,0,,0,,,72,127
10353,note_off,128,0,0,,0,,,72,127
10353,note_off,0,0,0,,7,,,55,127
10356,note_on,3,0,0,,5,,,53,127
10356,note_on,0,0,0,,2,,,74,127
10484,note_off,128,0,0,,2,,,74,127
10487,note_on,3,0,0,,3,,,75,127
10615,note_off,128,0,0,,3,,,75,127
10615,note_off,0,0,0,,5,,,53,127
10618,note_on,3,0,0,,7,,,55,127
10618,note_on,0,0,0,,5,,,77,127
10681,note_off,63,0,0,,5,,,77,127
10684,note_on,3,0,0,,3,,,75,127
10747,note_off,63,0,0,,3,,,75,127
10750,note_on,3,0,0,,5,,,77,127
10813,note_off,63,0,0,,5,,,77,127
10816,note_on,3,0,0,,3,,,75,127
10879,note_off,63,0,0,,3,,,75,127
10879,note_off,0,0,0,,7,,,55,127
10882,note_on,3,0,0,,3,,,51,127
10882,note_on,0,0,0,,5,,,77,127
10945,note_off,63,0,0,,5,,,77,127
10948,note_on,3,0,0,,3,,,75,127
11011,note_off,63,0,0,,3,,,75,127
11014,note_on,3,0,0,,2,,,74,127
11077,note_off,63,0,0,,2,,,74,127
11080,note_on,3,0,0,,3,,,75,127
11143,note_off,63,0,0,,3,,,75,127
11143,note_off,0,0,0,,3,,,51,127
11146,note_on,3,0,0,,11,,,58,127
11146,note_on,0,0,0,,3,,,75,127
11408,note_on,262,0,0,,11,,,46,127
11667,note_off,259,0,0,,3,,,75,127
11670,note_on,3,0,0,,5,,,77,127
11932,note_off,262,0,0,,11,,,46,127
11932,note_off,0,0,0,,11,,,58,127
12063,note_off,131,0,0,,5,,,77,127
12499,note_on,436,0,0,,3,,,51,127
12761,note_on,262,0,0,,11,,,82,127
12889,note_off,128,0,0,,11,,,82,127
12892,note_on,3,0,0,,6,,,78,127
13020,note_off,128,0,0,,6,,,78,127
13023,note_on,3,0,0,,3,,,75,127
13151,note_off,128,0,0,,3,,,75,127
13154,note_on,3,0,0,,0,,,72,127
13282,note_off,128,0,0,,0,,,72,127
13282,note_off,0,0,0,,3,,,51,127
13285,note_on,3,0,0,,5,,,41,127
13285,note_on,0,0,0,,10,,,69,127
13413,note_off,128,0,0,,10,,,69,127
13416,note_on,3,0,0,,5,,,65,127
13544,note_off,128,0,0,,5,,,65,127
13547,note_on,3,0,0,,3,,,63,127
13675,note_off,128,0,0,,3,,,63,127
13678,note_on,3,0,0,,0,,,60,127
13806,note_off,128,0,0,,0,,,60,127
13809,note_on,3,0,0,,10,,,57,127
13937,note_off,128,0,0,,10,,,57,127
13940,note_on,3,0,0,,5,,,53,127
14068,note_off,128,0,0,,5,,,53,127
14068,note_off,0,0,0,,5,,,41,127
14071,note_on,3,0,0,,5,,,41,127
14333,note_on,262,0,0,,0,,,72,127
14592,note_off,259,0,0,,0,,,72,127
14595,note_on,3,0,0,,5,,,65,127
14595,note_on,0,0,0,,5,,,77,127
14854,note_off,259,0,0,,5,,,77,127
14854,note_off,0,0,0,,5,,,65,127
14854,note_off,0,0,0,,5,,,41,127
14857,note_on,3,0,0,,11,,,58,127
14857,note_on,0,0,0,,11,,,46,127
14857,note_on,0,0,0,,3,,,75,127
14920,note_off,63,0,0,,3,,,75,127
14923,note_on,3,0,0,,1,,,73,127
14986,note_off,63,0,0,,1,,,73,127
14989,note_on,3,0,0,,3,,,75,127
15052,note_off,63,0,0,,3,,,75,127
15055,note_on,3,0,0,,1,,,73,127
15118,note_off,63,0,0,,1,,,73,127
15121,note_on,3,0,0,,3,,,75,127
15184,note_off,63,0,0,,3,,,75,127
15187,note_on,3,0,0,,1,,,73,127
15250,note_off,63,0,0,,1,,,73,127
15253,note_on,3,0,0,,0,,,72,127
15381,note_off,128,0,0,,0,,,72,127
15384,note_on,3,0,0,,11,,,70,127
15643,note_off,259,0,0,,11,,,46,127
15643,note_off,0,0,0,,11,,,58,127
15646,note_on,3,0,0,,1,,,49,127
15777,note_off,131,0,0,,11,,,70,127
15908,note_on,131,0,0,,11,,,82,127
16036,note_off,128,0,0,,11,,,82,127
16039,note_on,3,0,0,,7,,,79,127
16167,note_off,128,0,0,,7,,,79,127
16170,note_on,3,0,0,,4,,,76,127
16298,note_off,128,0,0,,4,,,76,127
16301,note_on,3,0,0,,1,,,73,127
16429,note_off,128,0,0,,1,,,73,127
16429,note_off,0,0,0,,1,,,49,127
16432,note_on,3,0,0,,0,,,36,127
16432,note_on,0,0,0,,11,,,70,127
16560,note_off,128,0,0,,11,,,70,127
16563,note_on,3,0,0,,7,,,67,127
16691,note_off,128,0,0,,7,,,67,127
16694,note_on,3,0,0,,4,,,64,127
16822,note_off,128,0,0,,4,,,64,127
16825,note_on,3,0,0,,0,,,60,127
16953,note_off,128,0,0,,0,,,60,127
16956,note_on,3,0,0,,11,,,58,127
17084,note_off,128,0,0,,11,,,58,127
17087,note_on,3,0,0,,7,,,55,127
17215,note_off,128,0,0,,7,,,55,127
17215,note_off,0,0,0,,0,,,36,127
17218,note_on,3,0,0,,0,,,36,127
17480,note_on,262,0,0,,7,,,79,127
17739,note_off,259,0,0,,7,,,79,127
17742,note_on,3,0,0,,0,,,84,127
17742,note_on,0,0,0,,0,,,72,127
18001,note_off,259,0,0,,0,,,72,127
18001,note_off,0,0,0,,0,,,84,127
18001,note_off,0,0,0,,0,,,36,127
18004,note_on,3,0,0,,5,,,41,127
18004,note_on,0,0,0,,11,,,82,127
18067,note_off,63,0,0,,11,,,82,127
18070,note_on,3,0,0,,8,,,80,127
18133,note_off,63,0,0,,8,,,80,127
18136,note_on,3,0,0,,11,,,82,127
18199,note_off,63,0,0,,11,,,82,127
18202,note_on,3,0,0,,8,,,80,127
18265,note_off,63,0,0,,8,,,80,127
18268,note_on,3,0,0,,11,,,82,127
18331,note_off,63,0,0,,11,,,82,127
18334,note_on,3,0,0,,8,,,80,127
18397,note_off,63,0,0,,8,,,80,127
18400,note_on,3,0,0,,7,,,79,127
18528,note_off,128,0,0,,7,,,79,127
18531,note_on,3,0,0,,5,,,77,127
18790,note_off,259,0,0,,5,,,77,127
18791,note_off,1,0,0,,5,,,41,127
18792,note_on,1,0,0,,8,,,80,127
18792,note_on,0,0,0,,0,,,84,127
19054,note_on,262,0,0,,5,,,77,127
19182,note_off,128,0,0,,5,,,77,127
19185,note_on,3,0,0,,1,,,73,127
19313,note_off,128,0,0,,1,,,73,127
19316,note_on,3,0,0,,11,,,70,127
19444,note_off,128,0,0,,11,,,70,127
19447,note_on,3,0,0,,7,,,67,127
19575,note_off,128,0,0,,7,,,67,127
19578,note_on,3,0,0,,4,,,64,127
19706,note_off,128,0,0,,4,,,64,127
19709,note_on,3,0,0,,0,,,60,127
19837,note_off,128,0,0,,0,,,60,127
19837,note_off,0,0,0,,0,,,84,127
19837,note_off,0,0,0,,8,,,80,127
19840,note_on,3,0,0,,11,,,58,127
19840,note_on,0,0,0,,7,,,79,127
19840,note_on,0,0,0,,11,,,82,127
19968,note_off,128,0,0,,11,,,58,127
19971,note_on,3,0,0,,7,,,55,127
20099,note_off,128,0,0,,7,,,55,127
20102,note_on,3,0,0,,4,,,52,127
20230,note_off,128,0,0,,4,,,52,127
20233,note_on,3,0,0,,0,,,48,127
20364,note_on,131,0,0,,0,,,36,127
20623,note_off,259,0,0,,11,,,82,127
20623,note_off,0,0,0,,7,,,79,127
20626,note_off,3,0,0,,0,,,48,127
20626,note_on,0,0,0,,7,,,79,127
20885,note_off,259,0,0,,7,,,79,127
20888,note_on,3,0,0,,0,,,84,127
20888,note_on,0,0,0,,0,,,72,127
21147,note_off,259,0,0,,0,,,72,127
21147,note_off,0,0,0,,0,,,84,127
21147,note_off,0,0,0,,0,,,36,127
21150,note_on,3,0,0,,5,,,41,127
21150,note_on,0,0,0,,11,,,82,127
21213,note_off,63,0,0,,11,,,82,127
21216,note_on,3,0,0,,8,,,80,127
21279,note_off,63,0,0,,8,,,80,127
21282,note_on,3,0,0,,11,,,82,127
21345,note_off,63,0,0,,11,,,82,127
21348,note_on,3,0,0,,8,,,80,127
21411,note_off,63,0,0,,8,,,80,127
21414,note_on,3,0,0,,11,,,82,127
21477,note_off,63,0,0,,11,,,82,127
21480,note_on,3,0,0,,8,,,80,127
21543,note_off,63,0,0,,8,,,80,127
21546,note_on,3,0,0,,7,,,79,127
21674,note_off,128,0,0,,7,,,79,127
21677,note_on,3,0,0,,5,,,77,127
21936,note_off,259,0,0,,5,,,77,127
21936,note_off,0,0,0,,5,,,41,127
21939,note_on,3,0,0,,5,,,53,127
21939,note_on,0,0,0,,5,,,41,127
22070,note_on,131,0,0,,0,,,84,127
22198,note_off,128,0,0,,0,,,84,127
22201,note_on,3,0,0,,8,,,80,127
22201,note_on,0,0,0,,11,,,82,127
22329,note_off,128,0,0,,11,,,82,127
22329,note_off,0,0,0,,8,,,80,127
22332,note_on,3,0,0,,7,,,79,127
22460,note_off,128,0,0,,7,,,79,127
22463,note_on,3,0,0,,5,,,77,127
22591,note_off,128,0,0,,5,,,77,127
22594,note_on,3,0,0,,3,,,75,127
22722,note_off,128,0,0,,3,,,75,127
22723,note_off,1,0,0,,5,,,41,127
22723,note_off,0,0,0,,5,,,53,127
22724,note_on,1,0,0,,2,,,74,127
22724,note_on,0,0,0,,5,,,77,127
22852,note_off,128,0,0,,2,,,74,127
22855,note_on,3,0,0,,0,,,72,127
22983,note_off,128,0,0,,0,,,72,127
22986,note_on,3,0,0,,8,,,68,127
22986,note_on,0,0,0,,5,,,65,127
22986,note_on,0,0,0,,12,,,71,127
23114,note_off,128,0,0,,12,,,71,127
23117,note_on,3,0,0,,0,,,72,127
23245,note_off,128,0,0,,0,,,72,127
23248,note_on,3,0,0,,2,,,74,127
23376,note_off,128,0,0,,2,,,74,127
23379,note_on,3,0,0,,3,,,75,127
23507,note_off,128,0,0,,3,,,75,127
23508,note_off,1,0,0,,5,,,77,127
23509,note_on,1,0,0,,2,,,74,127
23509,note_on,0,0,0,,5,,,77,127
23637,note_off,128,0,0,,2,,,74,127
23640,note_on,3,0,0,,0,,,72,127
23768,note_off,128,0,0,,0,,,72,127
23768,note_off,0,0,0,,5,,,65,127
23768,note_off,0,0,0,,8,,,68,127
23771,note_on,3,0,0,,5,,,65,127
23771,note_on,0,0,0,,8,,,68,127
23771,note_on,0,0,0,,12,,,71,127
23899,note_off,128,0,0,,12,,,71,127
23902,note_on,3,0,0,,0,,,72,127
24030,note_off,128,0,0,,0,,,72,127
24033,note_on,3,0,0,,2,,,74,127
24161,note_off,128,0,0,,2,,,74,127
24164,note_on,3,0,0,,3,,,75,127
24292,note_off,128,0,0,,3,,,75,127
24293,note_off,1,0,0,,5,,,77,127
24294,note_on,1,0,0,,5,,,77,127
24294,note_on,0,0,0,,2,,,74,127
24422,note_off,128,0,0,,2,,,74,127
24425,note_on,3,0,0,,0,,,72,127
24553,note_off,128,0,0,,0,,,72,127
24553,note_off,0,0,0,,8,,,68,127
24553,note_off,0,0,0,,5,,,65,127
24556,note_on,3,0,0,,5,,,65,127
24556,note_on,0,0,0,,8,,,68,127
24556,note_on,0,0,0,,12,,,71,127
24684,note_off,128,0,0,,12,,,71,127
24687,note_on,3,0,0,,0,,,72,127
24815,note_off,128,0,0,,0,,,72,127
24818,note_on,3,0,0,,2,,,74,127
24946,note_off,128,0,0,,2,,,74,127
24949,note_on,3,0,0,,3,,,75,127
25074,note_off,125,0,0,,8,,,68,127
25074,note_off,0,0,0,,5,,,65,127
25077,note_off,3,0,0,,3,,,75,127
25078,note_off,1,0,0,,5,,,77,127
25079,note_on,1,0,0,,0,,,72,127
25079,note_on,0,0,0,,3,,,75,127
25210,note_on,131,0,0,,7,,,67,127
25338,note_off,128,0,0,,7,,,67,127
25338,note_off,0,0,0,,3,,,75,127
25338,note_off,0,0,0,,0,,,72,127
25341,note_on,3,0,0,,2,,,62,127
25341,note_on,0,0,0,,2,,,74,127
25341,note_on,0,0,0,,12,,,71,127
25469,note_off,128,0,0,,2,,,62,127
25472,note_on,3,0,0,,3,,,63,127
25600,note_off,128,0,0,,3,,,63,127
25600,note_off,0,0,0,,12,,,71,127
25603,note_on,3,0,0,,12,,,59,127
25603,note_on,0,0,0,,7,,,67,127
25731,note_off,128,0,0,,12,,,59,127
25734,note_on,3,0,0,,0,,,60,127
25862,note_off,128,0,0,,0,,,60,127
25865,note_on,3,0,0,,8,,,56,127
25996,note_off,131,0,0,,2,,,74,127
25996,note_on,0,0,0,,3,,,75,127
26124,note_off,128,0,0,,3,,,75,127
26127,note_on,3,0,0,,5,,,77,127
26255,note_off,128,0,0,,5,,,77,127
26258,note_on,3,0,0,,0,,,72,127
26386,note_off,128,0,0,,0,,,72,127
26387,note_off,1,0,0,,7,,,67,127
26388,note_on,1,0,0,,12,,,71,127
26388,note_on,0,0,0,,5,,,65,127
26516,note_off,128,0,0,,12,,,71,127
26519,note_on,3,0,0,,0,,,72,127
26647,note_off,128,0,0,,0,,,72,127
26648,note_off,1,0,0,,8,,,56,127
26649,note_on,1,0,0,,0,,,72,127
26780,note_off,131,0,0,,5,,,65,127
26780,note_on,0,0,0,,7,,,67,127
26908,note_off,128,0,0,,7,,,67,127
26908,note_off,0,0,0,,0,,,72,127
26911,note_on,3,0,0,,2,,,62,127
26911,note_on,0,0,0,,2,,,74,127
27039,note_off,128,0,0,,2,,,62,127
27042,note_on,3,0,0,,3,,,63,127
27170,note_off,128,0,0,,3,,,63,127
27173,note_on,3,0,0,,12,,,59,127
27173,note_on,0,0,0,,7,,,67,127
27301,note_off,128,0,0,,12,,,59,127
27304,note_on,3,0,0,,0,,,60,127
27432,note_off,128,0,0,,0,,,60,127
27435,note_on,3,0,0,,8,,,56,127
27566,note_off,131,0,0,,2,,,74,127
27566,note_on,0,0,0,,3,,,75,127
27694,note_off,128,0,0,,3,,,75,127
27697,note_on,3,0,0,,5,,,77,127
27825,note_off,128,0,0,,5,,,77,127
27828,note_on,3,0,0,,0,,,72,127
27956,note_off,128,0,0,,0,,,72,127
27957,note_off,1,0,0,,7,,,67,127
27958,note_on,1,0,0,,5,,,65,127
27958,note_on,0,0,0,,12,,,71,127
28086,note_off,128,0,0,,12,,,71,127
28089,note_on,3,0,0,,0,,,72,127
28217,note_off,128,0,0,,0,,,72,127
28217,note_off,0,0,0,,5,,,65,127
28217,note_off,0,0,0,,8,,,56,127
28220,note_on,3,0,0,,7,,,55,127
28220,note_on,0,0,0,,7,,,67,127
28220,note_on,0,0,0,,2,,,74,127
28348,note_off,128,0,0,,2,,,74,127
28351,note_on,3,0,0,,3,,,75,127
28479,note_off,128,0,0,,3,,,75,127
28479,note_off,0,0,0,,7,,,67,127
28482,note_on,3,0,0,,5,,,77,127
28610,note_off,128,0,0,,5,,,77,127
28613,note_on,3,0,0,,7,,,79,127
28738,note_off,125,0,0,,7,,,55,127
28741,note_off,3,0,0,,7,,,79,127
28744,note_on,3,0,0,,8,,,80,127
28872,note_off,128,0,0,,8,,,80,127
28875,note_on,3,0,0,,5,,,77,127
29003,note_off,128,0,0,,5,,,77,127
29006,note_on,3,0,0,,4,,,76,127
29134,note_off,128,0,0,,4,,,76,127
29137,note_on,3,0,0,,5,,,77,127
29265,note_off,128,0,0,,5,,,77,127
29268,note_on,3,0,0,,7,,,79,127
29396,note_off,128,0,0,,7,,,79,127
29399,note_on,3,0,0,,1,,,73,127
29527,note_off,128,0,0,,1,,,73,127
29530,note_on,3,0,0,,0,,,72,127
29658,note_off,128,0,0,,0,,,72,127
29661,note_on,3,0,0,,11,,,70,127
29661,note_on,0,0,0,,1,,,73,127
29789,note_off,128,0,0,,1,,,73,127
29789,note_off,0,0,0,,11,,,70,127
29792,note_on,3,0,0,,1,,,73,127
29792,note_on,0,0,0,,11,,,70,127
29923,note_on,131,0,0,,5,,,65,127
30051,note_off,128,0,0,,5,,,65,127
30051,note_off,0,0,0,,11,,,70,127
30051,note_off,0,0,0,,1,,,73,127
30054,note_on,3,0,0,,0,,,60,127
30054,note_on,0,0,0,,10,,,69,127
30054,note_on,0,0,0,,0,,,72,127
30182,note_off,128,0,0,,0,,,60,127
30185,note_on,3,0,0,,1,,,61,127
30313,note_off,128,0,0,,1,,,61,127
30313,note_off,0,0,0,,10,,,69,127
30316,note_on,3,0,0,,10,,,57,127
30316,note_on,0,0,0,,5,,,65,127
30444,note_off,128,0,0,,10,,,57,127
30447,note_on,3,0,0,,11,,,58,127
30575,note_off,128,0,0,,11,,,58,127
30578,note_on,3,0,0,,6,,,54,127
30709,note_off,131,0,0,,0,,,72,127
30709,note_on,0,0,0,,1,,,73,127
30837,note_off,128,0,0,,1,,,73,127
30840,note_on,3,0,0,,3,,,75,127
30968,note_off,128,0,0,,3,,,75,127
30971,note_on,3,0,0,,11,,,70,127
31099,note_off,128,0,0,,11,,,70,127
31100,note_off,1,0,0,,5,,,65,127
31101,note_on,1,0,0,,10,,,69,127
31101,note_on,0,0,0,,3,,,63,127
31229,note_off,128,0,0,,10,,,69,127
31232,note_on,3,0,0,,11,,,70,127
31360,note_off,128,0,0,,11,,,70,127
31360,note_off,0,0,0,,3,,,63,127
31361,note_off,1,0,0,,6,,,54,127
31362,note_on,1,0,0,,11,,,70,127
31493,note_on,131,0,0,,5,,,65,127
31621,note_off,128,0,0,,5,,,65,127
31621,note_off,0,0,0,,11,,,70,127
31624,note_on,3,0,0,,0,,,60,127
31624,note_on,0,0,0,,0,,,72,127
31752,note_off,128,0,0,,0,,,60,127
31755,note_on,3,0,0,,1,,,61,127
31883,note_off,128,0,0,,1,,,61,127
31886,note_on,3,0,0,,10,,,57,127
31886,note_on,0,0,0,,5,,,65,127
32014,note_off,128,0,0,,10,,,57,127
32017,note_on,3,0,0,,11,,,58,127
32145,note_off,128,0,0,,11,,,58,127
32148,note_on,3,0,0,,6,,,54,127
32279,note_off,131,0,0,,0,,,72,127
32279,note_on,0,0,0,,1,,,73,127
32407,note_off,128,0,0,,1,,,73,127
32410,note_on,3,0,0,,3,,,75,127
32538,note_off,128,0,0,,3,,,75,127
32541,note_on,3,0,0,,11,,,70,127
32669,note_off,128,0,0,,11,,,70,127
32670,note_off,1,0,0,,5,,,65,127
32671,note_on,1,0,0,,3,,,63,127
32671,note_on,0,0,0,,10,,,69,127
32799,note_off,128,0,0,,10,,,69,127
32802,note_on,3,0,0,,11,,,70,127
32930,note_off,128,0,0,,11,,,70,127
32930,note_off,0,0,0,,3,,,63,127
32930,note_off,0,0,0,,6,,,54,127
32933,note_on,3,0,0,,5,,,53,127
32933,note_on,0,0,0,,5,,,65,127
32933,note_on,0,0,0,,0,,,72,127
33061,note_off,128,0,0,,0,,,72,127
33064,note_on,3,0,0,,1,,,73,127
33192,note_off,128,0,0,,1,,,73,127
33192,note_off,0,0,0,,5,,,65,127
33195,note_on,3,0,0,,3,,,75,127
33323,note_off,128,0,0,,3,,,75,127
33326,note_on,3,0,0,,5,,,77,127
33454,note_off,128,0,0,,5,,,77,127
33457,note_on,3,0,0,,6,,,78,127
33585,note_off,128,0,0,,6,,,78,127
33588,note_on,3,0,0,,11,,,70,127
33716,note_off,128,0,0,,11,,,70,127
33716,note_off,0,0,0,,5,,,53,127
33719,note_on,3,0,0,,5,,,53,127
33719,note_on,0,0,0,,10,,,69,127
33847,note_off,128,0,0,,10,,,69,127
33850,note_on,3,0,0,,11,,,70,127
33978,note_off,128,0,0,,11,,,70,127
33981,note_on,3,0,0,,0,,,72,127
34109,note_off,128,0,0,,0,,,72,127
34112,note_on,3,0,0,,1,,,73,127
34240,note_off,128,0,0,,1,,,73,127
34243,note_on,3,0,0,,3,,,75,127
34371,note_off,128,0,0,,3,,,75,127
34374,note_on,3,0,0,,6,,,66,127
34502,note_off,128,0,0,,6,,,66,127
34502,note_off,0,0,0,,5,,,53,127
34505,note_on,3,0,0,,5,,,41,127
34505,note_on,0,0,0,,5,,,65,127
34633,note_off,128,0,0,,5,,,65,127
34636,note_on,3,0,0,,7,,,67,127
34764,note_off,128,0,0,,7,,,67,127
34767,note_on,3,0,0,,10,,,69,127
34895,note_off,128,0,0,,10,,,69,127
34898,note_on,3,0,0,,11,,,70,127
35026,note_off,128,0,0,,11,,,70,127
35029,note_on,3,0,0,,0,,,72,127
35160,note_on,131,0,0,,3,,,63,127
35288,note_off,128,0,0,,3,,,63,127
35288,note_off,0,0,0,,5,,,41,127
35291,note_on,3,0,0,,5,,,41,127
35291,note_on,0,0,0,,1,,,61,127
35422,note_off,131,0,0,,0,,,72,127
35422,note_on,0,0,0,,11,,,70,127
35550,note_off,128,0,0,,11,,,70,127
35550,note_off,0,0,0,,1,,,61,127
35553,note_on,3,0,0,,0,,,60,127
35553,note_on,0,0,0,,10,,,69,127
35681,note_off,128,0,0,,10,,,69,127
35684,note_on,3,0,0,,5,,,65,127
35812,note_off,128,0,0,,5,,,65,127
35815,note_on,3,0,0,,4,,,64,127
35943,note_off,128,0,0,,4,,,64,127
35946,note_on,3,0,0,,11,,,70,127
36071,note_off,125,0,0,,0,,,60,127
36074,note_off,3,0,0,,11,,,70,127
36074,note_off,0,0,0,,5,,,41,127
36077,note_on,3,0,0,,5,,,41,127
36077,note_on,0,0,0,,5,,,65,127
36077,note_on,0,0,0,,0,,,60,127
36077,note_on,0,0,0,,11,,,70,127
36598,note_off,521,0,0,,11,,,70,127
36601,note_on,3,0,0,,10,,,69,127
37032,note_off,431,0,0,,5,,,41,127
37119,note_off,87,0,0,,10,,,69,127
37123,note_off,4,0,0,,0,,,60,127
37123,note_off,0,0,0,,5,,,65,127
37386,note_on,263,0,0,,11,,,58,127
37517,note_on,131,0,0,,2,,,74,127
37580,note_off,63,0,0,,2,,,74,127
37583,note_on,3,0,0,,11,,,70,127
37646,note_off,63,0,0,,11,,,70,127
37649,note_on,3,0,0,,5,,,65,127
37777,note_off,128,0,0,,5,,,65,127
37780,note_on,3,0,0,,5,,,77,127
37908,note_off,128,0,0,,11,,,58,127
37911,note_on,3,0,0,,5,,,53,127
38039,note_off,128,0,0,,5,,,77,127
38042,note_on,3,0,0,,0,,,72,127
38042,note_on,0,0,0,,3,,,75,127
38170,note_off,128,0,0,,3,,,75,127
38170,note_off,0,0,0,,0,,,72,127
38170,note_off,0,0,0,,5,,,53,127
38173,note_on,3,0,0,,11,,,58,127
38304,note_on,131,0,0,,2,,,74,127
38367,note_off,63,0,0,,2,,,74,127
38370,note_on,3,0,0,,11,,,70,127
38433,note_off,63,0,0,,11,,,70,127
38436,note_on,3,0,0,,5,,,65,127
38564,note_off,128,0,0,,5,,,65,127
38567,note_on,3,0,0,,5,,,77,127
38695,note_off,128,0,0,,11,,,58,127
38698,note_on,3,0,0,,5,,,53,127
38826,note_off,128,0,0,,5,,,77,127
38829,note_on,3,0,0,,0,,,72,127
38829,note_on,0,0,0,,3,,,75,127
38957,note_off,128,0,0,,3,,,75,127
38957,note_off,0,0,0,,0,,,72,127
38957,note_off,0,0,0,,5,,,53,127
38960,note_on,3,0,0,,11,,,70,127
38960,note_on,0,0,0,,2,,,74,127
39091,note_on,131,0,0,,2,,,62,127
39154,note_off,63,0,0,,2,,,62,127
39157,note_on,3,0,0,,11,,,58,127
39220,note_off,63,0,0,,11,,,58,127
39223,note_on,3,0,0,,5,,,53,127
39351,note_off,128,0,0,,5,,,53,127
39354,note_on,3,0,0,,5,,,65,127
39482,note_off,128,0,0,,2,,,74,127
39482,note_off,0,0,0,,11,,,70,127
39485,note_on,3,0,0,,0,,,72,127
39485,note_on,0,0,0,,10,,,69,127
39613,note_off,128,0,0,,5,,,65,127
39616,note_on,3,0,0,,3,,,63,127
39744,note_off,128,0,0,,3,,,63,127
39744,note_off,0,0,0,,10,,,69,127
39744,note_off,0,0,0,,0,,,72,127
39747,note_on,3,0,0,,11,,,70,127
39747,note_on,0,0,0,,2,,,74,127
39878,note_on,131,0,0,,2,,,62,127
39941,note_off,63,0,0,,2,,,62,127
39944,note_on,3,0,0,,11,,,58,127
40007,note_off,63,0,0,,11,,,58,127
40010,note_on,3,0,0,,5,,,53,127
40138,note_off,128,0,0,,5,,,53,127
40141,note_on,3,0,0,,5,,,65,127
40269,note_off,128,0,0,,2,,,74,127
40269,note_off,0,0,0,,11,,,70,127
40272,note_on,3,0,0,,10,,,69,127
40272,note_on,0,0,0,,0,,,72,127
40400,note_off,128,0,0,,5,,,65,127
40403,note_on,3,0,0,,3,,,63,127
40531,note_off,128,0,0,,3,,,63,127
40531,note_off,0,0,0,,0,,,72,127
40531,note_off,0,0,0,,10,,,69,127
40534,note_on,3,0,0,,2,,,62,127
40665,note_on,131,0,0,,5,,,77,127
40728,note_off,63,0,0,,5,,,77,127
40731,note_on,3,0,0,,3,,,75,127
40794,note_off,63,0,0,,3,,,75,127
40797,note_on,3,0,0,,2,,,74,127
40925,note_off,128,0,0,,2,,,74,127
40928,note_on,3,0,0,,0,,,72,127
41056,note_off,128,0,0,,0,,,72,127
41056,note_off,0,0,0,,2,,,62,127
41059,note_on,3,0,0,,11,,,58,127
41059,note_on,0,0,0,,11,,,70,127
41187,note_off,128,0,0,,11,,,70,127
41190,note_on,3,0,0,,8,,,68,127
41318,note_off,128,0,0,,8,,,68,127
41318,note_off,0,0,0,,11,,,58,127
41321,note_on,3,0,0,,3,,,63,127
41321,note_on,0,0,0,,7,,,67,127
41452,note_on,131,0,0,,7,,,79,127
41452,note_on,0,0,0,,3,,,75,127
41580,note_off,128,0,0,,3,,,75,127
41580,note_off,0,0,0,,7,,,79,127
41580,note_off,0,0,0,,7,,,67,127
41580,note_off,0,0,0,,3,,,63,127
41583,note_on,3,0,0,,5,,,65,127
41583,note_on,0,0,0,,2,,,74,127
41583,note_on,0,0,0,,5,,,77,127
41711,note_off,128,0,0,,5,,,77,127
41711,note_off,0,0,0,,2,,,74,127
41714,note_on,3,0,0,,0,,,72,127
41714,note_on,0,0,0,,3,,,75,127
41842,note_off,128,0,0,,3,,,75,127
41842,note_off,0,0,0,,0,,,72,127
41845,note_on,3,0,0,,5,,,53,127
41845,note_on,0,0,0,,2,,,74,127
41845,note_on,0,0,0,,11,,,70,127
41973,note_off,128,0,0,,11,,,70,127
41973,note_off,0,0,0,,2,,,74,127
41976,note_on,3,0,0,,0,,,72,127
41976,note_on,0,0,0,,10,,,69,127
42101,note_off,125,0,0,,5,,,65,127
42104,note_off,3,0,0,,10,,,69,127
42104,note_off,0,0,0,,0,,,72,127
42104,note_off,0,0,0,,5,,,53,127
42107,note_on,3,0,0,,11,,,70,127
42107,note_on,0,0,0,,2,,,74,127
42238,note_on,131,0,0,,2,,,50,127
42301,note_off,63,0,0,,2,,,50,127
42304,note_on,3,0,0,,11,,,46,127
42367,note_off,63,0,0,,11,,,46,127
42370,note_on,3,0,0,,5,,,41,127
42501,note_on,131,0,0,,5,,,53,127
42566,note_off,65,0,0,,5,,,41,127
42629,note_off,63,0,0,,2,,,74,127
42629,note_off,0,0,0,,11,,,70,127
42632,note_on,3,0,0,,0,,,72,127
42632,note_on,0,0,0,,10,,,69,127
42760,note_off,128,0,0,,5,,,53,127
42763,note_on,3,0,0,,3,,,51,127
42891,note_off,128,0,0,,3,,,51,127
42891,note_off,0,0,0,,10,,,69,127
42891,note_off,0,0,0,,0,,,72,127
42894,note_on,3,0,0,,2,,,74,127
42894,note_on,0,0,0,,11,,,70,127
43025,note_on,131,0,0,,2,,,50,127
43088,note_off,63,0,0,,2,,,50,127
43091,note_on,3,0,0,,11,,,46,127
43154,note_off,63,0,0,,11,,,46,127
43157,note_on,3,0,0,,5,,,41,127
43288,note_on,131,0,0,,5,,,53,127
43353,note_off,65,0,0,,5,,,41,127
43416,note_off,63,0,0,,11,,,70,127
43416,note_off,0,0,0,,2,,,74,127
43419,note_on,3,0,0,,10,,,69,127
43419,note_on,0,0,0,,0,,,72,127
43547,note_off,128,0,0,,5,,,53,127
43550,note_on,3,0,0,,3,,,51,127
43678,note_off,128,0,0,,3,,,51,127
43678,note_off,0,0,0,,0,,,72,127
43678,note_off,0,0,0,,10,,,69,127
43681,note_on,3,0,0,,2,,,74,127
43681,note_on,0,0,0,,11,,,70,127
43812,note_on,131,0,0,,11,,,58,127
43875,note_off,63,0,0,,11,,,58,127
43878,note_on,3,0,0,,5,,,53,127
43941,note_off,63,0,0,,5,,,53,127
43944,note_on,3,0,0,,11,,,46,127
44075,note_on,131,0,0,,11,,,58,127
44200,note_off,125,0,0,,11,,,70,127
44200,note_off,0,0,0,,2,,,74,127
44203,note_off,3,0,0,,11,,,58,127
44203,note_off,0,0,0,,11,,,46,127
44206,note_on,3,0,0,,8,,,56,127
44334,note_off,128,0,0,,8,,,56,127
44337,note_on,3,0,0,,5,,,53,127
44465,note_off,128,0,0,,5,,,53,127
44468,note_on,3,0,0,,3,,,51,127
44599,note_on,131,0,0,,3,,,75,127
44599,note_on,0,0,0,,7,,,79,127
44727,note_off,128,0,0,,7,,,79,127
44727,note_off,0,0,0,,3,,,75,127
44727,note_off,0,0,0,,3,,,51,127
44730,note_on,3,0,0,,5,,,53,127
44730,note_on,0,0,0,,2,,,74,127
44730,note_on,0,0,0,,5,,,77,127
44858,note_off,128,0,0,,5,,,77,127
44858,note_off,0,0,0,,2,,,74,127
44861,note_on,3,0,0,,0,,,72,127
44861,note_on,0,0,0,,3,,,75,127
44989,note_off,128,0,0,,3,,,75,127
44989,note_off,0,0,0,,0,,,72,127
44992,note_on,3,0,0,,5,,,41,127
44992,note_on,0,0,0,,2,,,74,127
44992,note_on,0,0,0,,11,,,70,127
45120,note_off,128,0,0,,11,,,70,127
45120,note_off,0,0,0,,2,,,74,127
45123,note_on,3,0,0,,0,,,72,127
45123,note_on,0,0,0,,10,,,69,127
45248,note_off,125,0,0,,5,,,53,127
45251,note_off,3,0,0,,10,,,69,127
45251,note_off,0,0,0,,0,,,72,127
45254,note_on,3,0,0,,2,,,74,127
45254,note_on,0,0,0,,11,,,70,127
45264,note_off,10,0,0,,5,,,41,127
45385,note_on,121,0,0,,11,,,58,127
45448,note_off,63,0,0,,11,,,58,127
45451,note_on,3,0,0,,5,,,53,127
45514,note_off,63,0,0,,5,,,53,127
45517,note_on,3,0,0,,11,,,46,127
45648,note_on,131,0,0,,11,,,58,127
45773,note_off,125,0,0,,11,,,70,127
45773,note_off,0,0,0,,2,,,74,127
45776,note_off,3,0,0,,11,,,58,127
45776,note_off,0,0,0,,11,,,46,127
45779,note_on,3,0,0,,8,,,56,127
45907,note_off,128,0,0,,8,,,56,127
45910,note_on,3,0,0,,5,,,53,127
46038,note_off,128,0,0,,5,,,53,127
46041,note_on,3,0,0,,3,,,51,127
46172,note_on,131,0,0,,3,,,75,127
46172,note_on,0,0,0,,7,,,79,127
46300,note_off,128,0,0,,7,,,79,127
46300,note_off,0,0,0,,3,,,75,127
46300,note_off,0,0,0,,3,,,51,127
46303,note_on,3,0,0,,5,,,53,127
46303,note_on,0,0,0,,2,,,74,127
46303,note_on,0,0,0,,5,,,77,127
46431,note_off,128,0,0,,5,,,77,127
46431,note_off,0,0,0,,2,,,74,127
46434,note_on,3,0,0,,0,,,72,127
46434,note_on,0,0,0,,3,,,75,127
46562,note_off,128,0,0,,3,,,75,127
46562,note_off,0,0,0,,0,,,72,127
46565,note_on,3,0,0,,5,,,41,127
46565,note_on,0,0,0,,2,,,74,127
46565,note_on,0,0,0,,11,,,70,127
46693,note_off,128,0,0,,11,,,70,127
46693,note_off,0,0,0,,2,,,74,127
46696,note_on,3,0,0,,10,,,69,127
46696,note_on,0,0,0,,0,,,72,127
46821,note_off,125,0,0,,5,,,53,127
46824,note_off,3,0,0,,0,,,72,127
46824,note_off,0,0,0,,10,,,69,127
46824,note_off,0,0,0,,5,,,41,127
46827,note_on,3,0,0,,11,,,46,127
46827,note_on,0,0,0,,11,,,70,127
46827,note_on,0,0,0,,2,,,74,127
46955,note_off,128,0,0,,2,,,74,127
46958,note_on,3,0,0,,5,,,77,127
47086,note_off,128,0,0,,5,,,77,127
47086,note_off,0,0,0,,11,,,70,127
47089,note_on,3,0,0,,2,,,74,127
47217,note_off,128,0,0,,2,,,74,127
47220,note_on,3,0,0,,7,,,67,127
47348,note_off,128,0,0,,7,,,67,127
47348,note_off,0,0,0,,11,,,46,127
47351,note_on,3,0,0,,2,,,50,127
47351,note_on,0,0,0,,11,,,70,127
47414,note_off,63,0,0,,11,,,70,127
47417,note_on,3,0,0,,8,,,68,127
47480,note_off,63,0,0,,8,,,68,127
47483,note_on,3,0,0,,11,,,70,127
47546,note_off,63,0,0,,11,,,70,127
47549,note_on,3,0,0,,8,,,68,127
47612,note_off,63,0,0,,8,,,68,127
47612,note_off,0,0,0,,2,,,50,127
47615,note_on,3,0,0,,3,,,51,127
47615,note_on,0,0,0,,7,,,67,127
47746,note_on,131,0,0,,7,,,79,127
47874,note_off,128,0,0,,7,,,67,127
47874,note_off,0,0,0,,3,,,51,127
47877,note_on,3,0,0,,5,,,53,127
48005,note_off,128,0,0,,7,,,79,127
48008,note_on,3,0,0,,5,,,77,127
48139,note_on,131,0,0,,5,,,41,127
48267,note_off,128,0,0,,5,,,77,127
48270,note_on,3,0,0,,10,,,69,127
48395,note_off,125,0,0,,5,,,53,127
48398,note_off,3,0,0,,10,,,69,127
48398,note_off,0,0,0,,5,,,41,127
48401,note_on,3,0,0,,11,,,46,127
48401,note_on,0,0,0,,11,,,70,127
48529,note_off,128,0,0,,11,,,70,127
48532,note_on,3,0,0,,5,,,77,127
48660,note_off,128,0,0,,5,,,77,127
48663,note_on,3,0,0,,2,,,74,127
48791,note_off,128,0,0,,2,,,74,127
48794,note_on,3,0,0,,11,,,70,127
48922,note_off,128,0,0,,11,,,70,127
48922,note_off,0,0,0,,11,,,46,127
48925,note_on,3,0,0,,2,,,50,127
48925,note_on,0,0,0,,11,,,70,127
48988,note_off,63,0,0,,11,,,70,127
48991,note_on,3,0,0,,8,,,68,127
49054,note_off,63,0,0,,8,,,68,127
49057,note_on,3,0,0,,11,,,70,127
49120,note_off,63,0,0,,11,,,70,127
49123,note_on,3,0,0,,8,,,68,127
49186,note_off,63,0,0,,8,,,68,127
49186,note_off,0,0,0,,2,,,50,127
49189,note_on,3,0,0,,3,,,51,127
49189,note_on,0,0,0,,7,,,67,127
49320,note_on,131,0,0,,7,,,79,127
49448,note_off,128,0,0,,7,,,79,127
49448,note_off,0,0,0,,7,,,67,127
49448,note_off,0,0,0,,3,,,51,127
49451,note_on,3,0,0,,5,,,53,127
49451,note_on,0,0,0,,3,,,75,127
49579,note_off,128,0,0,,3,,,75,127
49582,note_on,3,0,0,,2,,,74,127
49645,note_off,63,0,0,,2,,,74,127
49648,note_on,3,0,0,,0,,,72,127
49711,note_off,63,0,0,,0,,,72,127
49714,note_on,3,0,0,,5,,,41,127
49714,note_on,0,0,0,,2,,,74,127
49777,note_off,63,0,0,,2,,,74,127
49780,note_on,3,0,0,,0,,,72,127
49843,note_off,63,0,0,,0,,,72,127
49846,note_on,3,0,0,,11,,,70,127
49909,note_off,63,0,0,,11,,,70,127
49912,note_on,3,0,0,,10,,,69,127
49972,note_off,60,0,0,,5,,,53,127
49975,note_off,3,0,0,,10,,,69,127
49975,note_off,0,0,0,,5,,,41,127
49978,note_on,3,0,0,,11,,,58,127
49978,note_on,0,0,0,,11,,,46,127
49978,note_on,0,0,0,,10,,,69,127
50499,note_off,521,0,0,,10,,,69,127
50502,note_on,3,0,0,,11,,,70,127
50761,note_off,259,0,0,,11,,,46,127
50761,note_off,0,0,0,,11,,,58,127
50764,note_on,3,0,0,,11,,,46,127
50892,note_off,128,0,0,,11,,,70,127
50895,note_on,3,0,0,,5,,,77,127
51023,note_off,128,0,0,,5,,,77,127
51026,note_on,3,0,0,,11,,,70,127
51154,note_off,128,0,0,,11,,,70,127
51157,note_on,3,0,0,,0,,,72,127
51285,note_off,128,0,0,,0,,,72,127
51288,note_on,3,0,0,,2,,,74,127
51416,note_off,128,0,0,,2,,,74,127
51419,note_on,3,0,0,,3,,,75,127
51547,note_off,128,0,0,,3,,,75,127
51547,note_off,0,0,0,,11,,,46,127
51550,note_on,3,0,0,,11,,,46,127
51550,note_on,0,0,0,,5,,,77,127
51678,note_off,128,0,0,,5,,,77,127
51681,note_on,3,0,0,,11,,,70,127
51809,note_off,128,0,0,,11,,,70,127
51812,note_on,3,0,0,,5,,,77,127
51812,note_on,0,0,0,,8,,,68,127
51940,note_off,128,0,0,,8,,,68,127
51943,note_on,3,0,0,,7,,,67,127
52071,note_off,128,0,0,,7,,,67,127
52074,note_on,3,0,0,,5,,,65,127
52202,note_off,128,0,0,,5,,,65,127
52205,note_on,3,0,0,,7,,,67,127
52333,note_off,128,0,0,,7,,,67,127
52333,note_off,0,0,0,,11,,,46,127
52336,note_on,3,0,0,,11,,,46,127
52336,note_on,0,0,0,,8,,,68,127
52464,note_off,128,0,0,,5,,,77,127
52467,note_on,3,0,0,,5,,,77,127
52595,note_off,128,0,0,,5,,,77,127
52598,note_on,3,0,0,,3,,,75,127
52726,note_off,128,0,0,,3,,,75,127
52729,note_on,3,0,0,,2,,,74,127
52857,note_off,128,0,0,,2,,,74,127
52860,note_on,3,0,0,,0,,,72,127
52988,note_off,128,0,0,,0,,,72,127
52991,note_on,3,0,0,,2,,,74,127
53119,note_off,128,0,0,,2,,,74,127
53119,note_off,0,0,0,,11,,,46,127
53122,note_on,3,0,0,,11,,,46,127
53122,note_on,0,0,0,,3,,,75,127
53250,note_off,128,0,0,,8,,,68,127
53253,note_on,3,0,0,,8,,,68,127
53381,note_off,128,0,0,,8,,,68,127
53384,note_on,3,0,0,,7,,,67,127
53512,note_off,128,0,0,,7,,,67,127
53515,note_on,3,0,0,,5,,,65,127
53643,note_off,128,0,0,,5,,,65,127
53646,note_on,3,0,0,,3,,,63,127
53774,note_off,128,0,0,,3,,,63,127
53777,note_on,3,0,0,,5,,,65,127
53905,note_off,128,0,0,,5,,,65,127
53905,note_off,0,0,0,,11,,,46,127
53908,note_on,3,0,0,,11,,,46,127
53908,note_on,0,0,0,,7,,,67,127
54036,note_off,128,0,0,,3,,,75,127
54039,note_on,3,0,0,,3,,,75,127
54167,note_off,128,0,0,,3,,,75,127
54170,note_on,3,0,0,,2,,,74,127
54298,note_off,128,0,0,,2,,,74,127
54301,note_on,3,0,0,,0,,,72,127
54429,note_off,128,0,0,,0,,,72,127
54432,note_on,3,0,0,,11,,,70,127
54560,note_off,128,0,0,,11,,,70,127
54563,note_on,3,0,0,,0,,,72,127
54691,note_off,128,0,0,,0,,,72,127
54691,note_off,0,0,0,,11,,,46,127
54694,note_on,3,0,0,,11,,,46,127
54694,note_on,0,0,0,,2,,,74,127
54822,note_off,128,0,0,,7,,,67,127
54825,note_on,3,0,0,,7,,,67,127
54953,note_off,128,0,0,,7,,,67,127
54956,note_on,3,0,0,,5,,,65,127
55084,note_off,128,0,0,,5,,,65,127
55087,note_on,3,0,0,,3,,,63,127
55215,note_off,128,0,0,,3,,,63,127
55218,note_on,3,0,0,,2,,,62,127
55346,note_off,128,0,0,,2,,,62,127
55349,note_on,3,0,0,,3,,,63,127
55477,note_off,128,0,0,,3,,,63,127
55477,note_off,0,0,0,,11,,,46,127
55480,note_on,3,0,0,,11,,,46,127
55480,note_on,0,0,0,,5,,,65,127
55608,note_off,128,0,0,,2,,,74,127
55611,note_on,3,0,0,,3,,,75,127
55739,note_off,128,0,0,,3,,,75,127
55739,note_off,0,0,0,,5,,,65,127
55742,note_on,3,0,0,,2,,,74,127
55870,note_off,128,0,0,,2,,,74,127
55870,note_off,0,0,0,,11,,,46,127
55873,note_on,3,0,0,,8,,,56,127
55873,note_on,0,0,0,,0,,,72,127
56001,note_off,128,0,0,,0,,,72,127
56001,note_off,0,0,0,,8,,,56,127
56004,note_on,3,0,0,,7,,,55,127
56004,note_on,0,0,0,,11,,,70,127
56132,note_off,128,0,0,,11,,,70,127
56132,note_off,0,0,0,,7,,,55,127
56135,note_on,3,0,0,,5,,,53,127
56135,note_on,0,0,0,,8,,,68,127
56263,note_off,128,0,0,,8,,,68,127
56263,note_off,0,0,0,,5,,,53,127
56266,note_on,3,0,0,,11,,,58,127
56266,note_on,0,0,0,,3,,,51,127
56266,note_on,0,0,0,,7,,,67,127
56394,note_off,128,0,0,,7,,,67,127
56394,note_off,0,0,0,,3,,,51,127
56397,note_on,3,0,0,,2,,,50,127
56397,note_on,0,0,0,,5,,,65,127
56525,note_off,128,0,0,,5,,,65,127
56525,note_off,0,0,0,,2,,,50,127
56528,note_on,3,0,0,,0,,,48,127
56528,note_on,0,0,0,,5,,,65,127
56591,note_off,63,0,0,,5,,,65,127
56594,note_on,3,0,0,,3,,,63,127
56657,note_off,63,0,0,,3,,,63,127
56660,note_on,3,0,0,,5,,,65,127
56723,note_off,63,0,0,,5,,,65,127
56726,note_on,3,0,0,,3,,,63,127
56786,note_off,60,0,0,,11,,,58,127
56789,note_off,3,0,0,,3,,,63,127
56792,note_on,3,0,0,,10,,,57,127
56792,note_on,0,0,0,,5,,,65,127
56855,note_off,63,0,0,,5,,,65,127
56858,note_on,3,0,0,,3,,,63,127
56921,note_off,63,0,0,,3,,,63,127
56924,note_on,3,0,0,,2,,,62,127
56987,note_off,63,0,0,,2,,,62,127
56990,note_on,3,0,0,,3,,,63,127
57050,note_off,60,0,0,,0,,,48,127
57053,note_off,3,0,0,,3,,,63,127
57053,note_off,0,0,0,,10,,,57,127
57056,note_on,3,0,0,,11,,,58,127
57056,note_on,0,0,0,,11,,,46,127
57056,note_on,0,0,0,,3,,,63,127
57577,note_off,521,0,0,,3,,,63,127
57580,note_on,3,0,0,,5,,,65,127
57839,note_off,259,0,0,,5,,,65,127
57839,note_off,0,0,0,,11,,,46,127
57839,note_off,0,0,0,,11,,,58,127
57842,note_on,3,0,0,,11,,,58,127
57842,note_on,0,0,0,,11,,,46,127
57973,note_on,131,0,0,,5,,,77,127
58101,note_off,128,0,0,,5,,,77,127
58104,note_on,3,0,0,,3,,,75,127
58104,note_on,0,0,0,,1,,,73,127
58232,note_off,128,0,0,,1,,,73,127
58232,note_off,0,0,0,,3,,,75,127
58235,note_on,3,0,0,,0,,,72,127
58363,note_off,128,0,0,,0,,,72,127
58366,note_on,3,0,0,,11,,,70,127
58494,note_off,128,0,0,,11,,,70,127
58497,note_on,3,0,0,,8,,,68,127
58625,note_off,128,0,0,,8,,,68,127
58626,note_off,1,0,0,,11,,,46,127
58626,note_off,0,0,0,,11,,,58,127
58627,note_on,1,0,0,,11,,,70,127
58627,note_on,0,0,0,,7,,,67,127
58755,note_off,128,0,0,,7,,,67,127
58758,note_on,3,0,0,,5,,,65,127
58886,note_off,128,0,0,,5,,,65,127
58889,note_on,3,0,0,,11,,,58,127
58889,note_on,0,0,0,,1,,,61,127
58889,note_on,0,0,0,,4,,,64,127
59017,note_off,128,0,0,,4,,,64,127
59020,note_on,3,0,0,,5,,,65,127
59148,note_off,128,0,0,,5,,,65,127
59151,note_on,3,0,0,,7,,,67,127
59279,note_off,128,0,0,,7,,,67,127
59282,note_on,3,0,0,,8,,,68,127
59410,note_off,128,0,0,,8,,,68,127
59411,note_off,1,0,0,,11,,,70,127
59412,note_on,1,0,0,,7,,,67,127
59412,note_on,0,0,0,,11,,,70,127
59540,note_off,128,0,0,,7,,,67,127
59543,note_on,3,0,0,,5,,,65,127
59671,note_off,128,0,0,,5,,,65,127
59671,note_off,0,0,0,,1,,,61,127
59671,note_off,0,0,0,,11,,,58,127
59674,note_on,3,0,0,,1,,,61,127
59674,note_on,0,0,0,,11,,,58,127
59674,note_on,0,0,0,,4,,,64,127
59802,note_off,128,0,0,,4,,,64,127
59805,note_on,3,0,0,,5,,,65,127
59933,note_off,128,0,0,,5,,,65,127
59936,note_on,3,0,0,,7,,,67,127
60064,note_off,128,0,0,,7,,,67,127
60067,note_on,3,0,0,,8,,,68,127
60192,note_off,125,0,0,,11,,,58,127
60192,note_off,0,0,0,,1,,,61,127
60195,note_off,3,0,0,,8,,,68,127
60196,note_off,1,0,0,,11,,,70,127
60197,note_on,1,0,0,,8,,,68,127
60197,note_on,0,0,0,,5,,,65,127
60328,note_on,131,0,0,,0,,,60,127
60456,note_off,128,0,0,,0,,,60,127
60456,note_off,0,0,0,,5,,,65,127
60456,note_off,0,0,0,,8,,,68,127
60459,note_on,3,0,0,,7,,,55,127
60459,note_on,0,0,0,,7,,,67,127
60459,note_on,0,0,0,,4,,,64,127
60587,note_off,128,0,0,,7,,,55,127
60590,note_on,3,0,0,,8,,,56,127
60718,note_off,128,0,0,,8,,,56,127
60718,note_off,0,0,0,,4,,,64,127
60721,note_on,3,0,0,,4,,,52,127
60721,note_on,0,0,0,,0,,,60,127
60849,note_off,128,0,0,,4,,,52,127
60852,note_on,3,0,0,,5,,,53,127
60980,note_off,128,0,0,,5,,,53,127
60983,note_on,3,0,0,,1,,,49,127
61114,note_off,131,0,0,,7,,,67,127
61114,note_on,0,0,0,,8,,,68,127
61242,note_off,128,0,0,,8,,,68,127
61245,note_on,3,0,0,,11,,,70,127
61373,note_off,128,0,0,,11,,,70,127
61376,note_on,3,0,0,,5,,,65,127
61504,note_off,128,0,0,,5,,,65,127
61505,note_off,1,0,0,,0,,,60,127
61506,note_on,1,0,0,,11,,,58,127
61506,note_on,0,0,0,,4,,,64,127
61634,note_off,128,0,0,,4,,,64,127
61637,note_on,3,0,0,,5,,,65,127
61765,note_off,128,0,0,,5,,,65,127
61765,note_off,0,0,0,,11,,,58,127
61766,note_off,1,0,0,,1,,,49,127
61767,note_on,1,0,0,,5,,,65,127
61898,note_on,131,0,0,,0,,,60,127
62026,note_off,128,0,0,,0,,,60,127
62026,note_off,0,0,0,,5,,,65,127
62029,note_on,3,0,0,,7,,,55,127
62029,note_on,0,0,0,,7,,,67,127
62157,note_off,128,0,0,,7,,,55,127
62160,note_on,3,0,0,,8,,,56,127
62288,note_off,128,0,0,,8,,,56,127
62291,note_on,3,0,0,,4,,,52,127
62291,note_on,0,0,0,,0,,,60,127
62419,note_off,128,0,0,,4,,,52,127
62422,note_on,3,0,0,,5,,,53,127
62550,note_off,128,0,0,,5,,,53,127
62553,note_on,3,0,0,,1,,,49,127
62684,note_off,131,0,0,,7,,,67,127
62684,note_on,0,0,0,,8,,,68,127
62812,note_off,128,0,0,,8,,,68,127
62815,note_on,3,0,0,,11,,,70,127
62943,note_off,128,0,0,,11,,,70,127
62946,note_on,3,0,0,,5,,,65,127
63074,note_off,128,0,0,,5,,,65,127
63075,note_off,1,0,0,,0,,,60,127
63076,note_on,1,0,0,,11,,,58,127
63076,note_on,0,0,0,,4,,,64,127
63204,note_off,128,0,0,,4,,,64,127
63207,note_on,3,0,0,,5,,,65,127
63335,note_off,128,0,0,,5,,,65,127
63335,note_off,0,0,0,,11,,,58,127
63335,note_off,0,0,0,,1,,,49,127
63338,note_on,3,0,0,,0,,,48,127
63338,note_on,0,0,0,,0,,,60,127
63338,note_on,0,0,0,,7,,,67,127
63466,note_off,128,0,0,,7,,,67,127
63469,note_on,3,0,0,,8,,,68,127
63469,note_on,0,0,0,,5,,,77,127
63597,note_off,128,0,0,,5,,,77,127
63597,note_off,0,0,0,,8,,,68,127
63600,note_on,3,0,0,,8,,,68,127
63600,note_on,0,0,0,,5,,,77,127
63728,note_off,128,0,0,,0,,,60,127
63728,note_off,0,0,0,,0,,,48,127
63731,note_on,3,0,0,,11,,,58,127
63859,note_off,128,0,0,,11,,,58,127
63859,note_off,0,0,0,,5,,,77,127
63859,note_off,0,0,0,,8,,,68,127
63862,note_on,3,0,0,,8,,,56,127
63862,note_on,0,0,0,,7,,,67,127
63862,note_on,0,0,0,,4,,,76,127
63990,note_off,128,0,0,,8,,,56,127
63993,note_on,3,0,0,,7,,,55,127
64121,note_off,128,0,0,,7,,,55,127
64121,note_off,0,0,0,,4,,,76,127
64121,note_off,0,0,0,,7,,,67,127
64124,note_on,3,0,0,,5,,,53,127
64124,note_on,0,0,0,,5,,,65,127
64255,note_on,131,0,0,,1,,,73,127
64255,note_on,0,0,0,,11,,,82,127
64383,note_off,128,0,0,,11,,,82,127
64383,note_off,0,0,0,,1,,,73,127
64386,note_on,3,0,0,,11,,,82,127
64386,note_on,0,0,0,,1,,,73,127
64514,note_off,128,0,0,,5,,,65,127
64514,note_off,0,0,0,,5,,,53,127
64517,note_on,3,0,0,,3,,,63,127
64645,note_off,128,0,0,,3,,,63,127
64645,note_off,0,0,0,,1,,,73,127
64645,note_off,0,0,0,,11,,,82,127
64648,note_on,3,0,0,,1,,,61,127
64648,note_on,0,0,0,,10,,,81,127
64648,note_on,0,0,0,,0,,,72,127
64776,note_off,128,0,0,,1,,,61,127
64779,note_on,3,0,0,,0,,,60,127
64907,note_off,128,0,0,,0,,,60,127
64907,note_off,0,0,0,,0,,,72,127
64907,note_off,0,0,0,,10,,,81,127
64910,note_on,3,0,0,,11,,,58,127
64910,note_on,0,0,0,,11,,,46,127
65041,note_on,131,0,0,,3,,,75,127
65041,note_on,0,0,0,,6,,,66,127
65169,note_off,128,0,0,,6,,,66,127
65169,note_off,0,0,0,,3,,,75,127
65172,note_on,3,0,0,,3,,,75,127
65172,note_on,0,0,0,,6,,,66,127
65300,note_off,128,0,0,,11,,,46,127
65300,note_off,0,0,0,,11,,,58,127
65303,note_on,3,0,0,,8,,,56,127
65431,note_off,128,0,0,,8,,,56,127
65431,note_off,0,0,0,,6,,,66,127
65431,note_off,0,0,0,,3,,,75,127
65434,note_on,3,0,0,,6,,,54,127
65434,note_on,0,0,0,,2,,,74,127
65434,note_on,0,0,0,,5,,,65,127
65562,note_off,128,0,0,,6,,,54,127
65565,note_on,3,0,0,,5,,,53,127
65693,note_off,128,0,0,,5,,,53,127
65693,note_off,0,0,0,,5,,,65,127
65693,note_off,0,0,0,,2,,,74,127
65696,note_on,3,0,0,,3,,,63,127
65696,note_on,0,0,0,,3,,,51,127
65827,note_on,131,0,0,,8,,,80,127
65827,note_on,0,0,0,,12,,,71,127
65955,note_off,128,0,0,,12,,,71,127
65955,note_off,0,0,0,,8,,,80,127
65958,note_on,3,0,0,,8,,,80,127
65958,note_on,0,0,0,,12,,,71,127
66086,note_off,128,0,0,,3,,,51,127
66086,note_off,0,0,0,,3,,,63,127
66089,note_on,3,0,0,,1,,,61,127
66217,note_off,128,0,0,,1,,,61,127
66217,note_off,0,0,0,,12,,,71,127
66217,note_off,0,0,0,,8,,,80,127
66220,note_on,3,0,0,,12,,,59,127
66220,note_on,0,0,0,,7,,,79,127
66220,note_on,0,0,0,,11,,,70,127
66348,note_off,128,0,0,,12,,,59,127
66351,note_on,3,0,0,,11,,,58,127
66479,note_off,128,0,0,,11,,,58,127
66479,note_off,0,0,0,,11,,,70,127
66479,note_off,0,0,0,,7,,,79,127
66482,note_on,3,0,0,,8,,,56,127
66482,note_on,0,0,0,,8,,,44,127
66613,note_on,131,0,0,,12,,,71,127
66744,note_on,131,0,0,,8,,,80,127
66872,note_off,128,0,0,,8,,,80,127
66875,note_on,3,0,0,,6,,,78,127
67003,note_off,128,0,0,,6,,,78,127
67003,note_off,0,0,0,,8,,,44,127
67003,note_off,0,0,0,,8,,,56,127
67006,note_off,3,0,0,,12,,,71,127
67006,note_on,0,0,0,,8,,,56,127
67006,note_on,0,0,0,,8,,,44,127
67006,note_on,0,0,0,,5,,,77,127
67134,note_off,128,0,0,,5,,,77,127
67137,note_on,3,0,0,,3,,,75,127
67265,note_off,128,0,0,,3,,,75,127
67265,note_off,0,0,0,,8,,,44,127
67265,note_off,0,0,0,,8,,,56,127
67268,note_on,3,0,0,,8,,,56,127
67268,note_on,0,0,0,,11,,,46,127
67268,note_on,0,0,0,,2,,,74,127
67396,note_off,128,0,0,,2,,,74,127
67399,note_on,3,0,0,,3,,,75,127
67527,note_off,128,0,0,,3,,,75,127
67527,note_off,0,0,0,,11,,,46,127
67527,note_off,0,0,0,,8,,,56,127
67530,note_on,3,0,0,,8,,,56,127
67530,note_on,0,0,0,,12,,,47,127
67530,note_on,0,0,0,,5,,,77,127
67593,note_off,63,0,0,,5,,,77,127
67596,note_on,3,0,0,,3,,,75,127
67659,note_off,63,0,0,,3,,,75,127
67662,note_on,3,0,0,,5,,,77,127
67725,note_off,63,0,0,,5,,,77,127
67728,note_on,3,0,0,,3,,,75,127
67791,note_off,63,0,0,,3,,,75,127
67791,note_off,0,0,0,,12,,,47,127
67791,note_off,0,0,0,,8,,,56,127
67794,note_on,3,0,0,,8,,,56,127
67794,note_on,0,0,0,,12,,,47,127
67794,note_on,0,0,0,,5,,,77,127
67857,note_off,63,0,0,,5,,,77,127
67860,note_on,3,0,0,,3,,,75,127
67923,note_off,63,0,0,,3,,,75,127
67926,note_on,3,0,0,,2,,,74,127
67989,note_off,63,0,0,,2,,,74,127
67992,note_on,3,0,0,,3,,,75,127
68055,note_off,63,0,0,,3,,,75,127
68055,note_off,0,0,0,,12,,,47,127
68055,note_off,0,0,0,,8,,,56,127
68058,note_on,3,0,0,,8,,,56,127
68058,note_on,0,0,0,,11,,,46,127
68058,note_on,0,0,0,,2,,,74,127
68186,note_off,128,0,0,,2,,,74,127
68189,note_on,3,0,0,,3,,,75,127
68317,note_off,128,0,0,,3,,,75,127
68317,note_off,0,0,0,,11,,,46,127
68317,note_off,0,0,0,,8,,,56,127
68320,note_on,3,0,0,,8,,,56,127
68320,note_on,0,0,0,,12,,,47,127
68320,note_on,0,0,0,,5,,,77,127
68383,note_off,63,0,0,,5,,,77,127
68386,note_on,3,0,0,,3,,,75,127
68449,note_off,63,0,0,,3,,,75,127
68452,note_on,3,0,0,,5,,,77,127
68515,note_off,63,0,0,,5,,,77,127
68518,note_on,3,0,0,,3,,,75,127
68581,note_off,63,0,0,,3,,,75,127
68581,note_off,0,0,0,,12,,,47,127
68581,note_off,0,0,0,,8,,,56,127
68584,note_on,3,0,0,,8,,,56,127
68584,note_on,0,0,0,,12,,,47,127
68584,note_on,0,0,0,,5,,,77,127
68647,note_off,63,0,0,,5,,,77,127
68650,note_on,3,0,0,,3,,,75,127
68713,note_off,63,0,0,,3,,,75,127
68716,note_on,3,0,0,,2,,,74,127
68779,note_off,63,0,0,,2,,,74,127
68782,note_on,3,0,0,,3,,,75,127
68845,note_off,63,0,0,,3,,,75,127
68845,note_off,0,0,0,,12,,,47,127
68845,note_off,0,0,0,,8,,,56,127
68848,note_on,3,0,0,,8,,,56,127
68848,note_on,0,0,0,,11,,,46,127
68848,note_on,0,0,0,,2,,,74,127
68976,note_off,128,0,0,,2,,,74,127
68979,note_on,3,0,0,,3,,,75,127
69107,note_off,128,0,0,,3,,,75,127
69107,note_off,0,0,0,,11,,,46,127
69107,note_off,0,0,0,,8,,,56,127
69110,note_on,3,0,0,,8,,,56,127
69110,note_on,0,0,0,,12,,,47,127
69110,note_on,0,0,0,,5,,,77,127
69173,note_off,63,0,0,,5,,,77,127
69176,note_on,3,0,0,,3,,,75,127
69239,note_off,63,0,0,,3,,,75,127
69242,note_on,3,0,0,,5,,,77,127
69305,note_off,63,0,0,,5,,,77,127
69308,note_on,3,0,0,,3,,,75,127
69371,note_off,63,0,0,,3,,,75,127
69371,note_off,0,0,0,,12,,,47,127
69371,note_off,0,0,0,,8,,,56,127
69374,note_on,3,0,0,,12,,,47,127
69374,note_on,0,0,0,,10,,,57,127
69374,note_on,0,0,0,,5,,,77,127
69437,note_off,63,0,0,,5,,,77,127
69440,note_on,3,0,0,,3,,,75,127
69503,note_off,63,0,0,,3,,,75,127
69506,note_on,3,0,0,,2,,,74,127
69569,note_off,63,0,0,,2,,,74,127
69572,note_on,3,0,0,,3,,,75,127
69635,note_off,63,0,0,,3,,,75,127
69635,note_off,0,0,0,,10,,,57,127
69635,note_off,0,0,0,,12,,,47,127
69638,note_on,3,0,0,,11,,,58,127
69638,note_on,0,0,0,,3,,,75,127
69900,note_on,262,0,0,,11,,,46,127
70159,note_off,259,0,0,,3,,,75,127
70162,note_on,3,0,0,,5,,,77,127
70421,note_off,259,0,0,,11,,,46,127
70422,note_off,1,0,0,,11,,,58,127
70511,note_off,89,0,0,,5,,,77,127
70947,note_on,436,0,0,,3,,,63,127
71078,note_on,131,0,0,,11,,,82,127
71141,note_off,63,0,0,,11,,,82,127
71144,note_on,3,0,0,,7,,,79,127
71207,note_off,63,0,0,,7,,,79,127
71210,note_on,3,0,0,,3,,,75,127
71338,note_off,128,0,0,,3,,,75,127
71341,note_on,3,0,0,,11,,,82,127
71469,note_off,128,0,0,,3,,,63,127
71472,note_on,3,0,0,,11,,,58,127
71600,note_off,128,0,0,,11,,,82,127
71603,note_on,3,0,0,,5,,,77,127
71603,note_on,0,0,0,,8,,,80,127
71731,note_off,128,0,0,,8,,,80,127
71731,note_off,0,0,0,,5,,,77,127
71731,note_off,0,0,0,,11,,,58,127
71734,note_on,3,0,0,,3,,,63,127
71865,note_on,131,0,0,,11,,,82,127
71928,note_off,63,0,0,,11,,,82,127
71931,note_on,3,0,0,,7,,,79,127
71994,note_off,63,0,0,,7,,,79,127
71997,note_on,3,0,0,,3,,,75,127
72125,note_off,128,0,0,,3,,,75,127
72128,note_on,3,0,0,,11,,,82,127
72256,note_off,128,0,0,,3,,,63,127
72259,note_on,3,0,0,,11,,,58,127
72387,note_off,128,0,0,,11,,,82,127
72390,note_on,3,0,0,,8,,,80,127
72390,note_on,0,0,0,,5,,,77,127
72518,note_off,128,0,0,,5,,,77,127
72518,note_off,0,0,0,,8,,,80,127
72518,note_off,0,0,0,,11,,,58,127
72521,note_on,3,0,0,,7,,,79,127
72521,note_on,0,0,0,,3,,,75,127
72652,note_on,131,0,0,,7,,,67,127
72715,note_off,63,0,0,,7,,,67,127
72718,note_on,3,0,0,,3,,,63,127
72781,note_off,63,0,0,,3,,,63,127
72784,note_on,3,0,0,,11,,,58,127
72912,note_off,128,0,0,,11,,,58,127
72915,note_on,3,0,0,,11,,,70,127
73043,note_off,128,0,0,,3,,,75,127
73043,note_off,0,0,0,,7,,,79,127
73046,note_on,3,0,0,,2,,,74,127
73046,note_on,0,0,0,,5,,,77,127
73174,note_off,128,0,0,,11,,,70,127
73177,note_on,3,0,0,,8,,,68,127
73305,note_off,128,0,0,,8,,,68,127
73305,note_off,0,0,0,,5,,,77,127
73305,note_off,0,0,0,,2,,,74,127
73308,note_on,3,0,0,,7,,,79,127
73308,note_on,0,0,0,,3,,,75,127
73439,note_on,131,0,0,,7,,,67,127
73502,note_off,63,0,0,,7,,,67,127
73505,note_on,3,0,0,,3,,,63,127
73568,note_off,63,0,0,,3,,,63,127
73571,note_on,3,0,0,,11,,,58,127
73699,note_off,128,0,0,,11,,,58,127
73702,note_on,3,0,0,,11,,,70,127
73830,note_off,128,0,0,,3,,,75,127
73830,note_off,0,0,0,,7,,,79,127
73833,note_on,3,0,0,,5,,,77,127
73833,note_on,0,0,0,,2,,,74,127
73961,note_off,128,0,0,,11,,,70,127
73964,note_on,3,0,0,,8,,,68,127
74092,note_off,128,0,0,,8,,,68,127
74092,note_off,0,0,0,,2,,,74,127
74092,note_off,0,0,0,,5,,,77,127
74095,note_on,3,0,0,,7,,,67,127
74226,note_on,131,0,0,,11,,,82,127
74289,note_off,63,0,0,,11,,,82,127
74292,note_on,3,0,0,,8,,,80,127
74355,note_off,63,0,0,,8,,,80,127
74358,note_on,3,0,0,,7,,,79,127
74486,note_off,128,0,0,,7,,,79,127
74489,note_on,3,0,0,,5,,,77,127
74617,note_off,128,0,0,,5,,,77,127
74617,note_off,0,0,0,,7,,,67,127
74620,note_on,3,0,0,,3,,,63,127
74620,note_on,0,0,0,,3,,,75,127
74748,note_off,128,0,0,,3,,,75,127
74751,note_on,3,0,0,,2,,,74,127
74879,note_off,128,0,0,,2,,,74,127
74879,note_off,0,0,0,,3,,,63,127
74882,note_on,3,0,0,,8,,,56,127
74882,note_on,0,0,0,,0,,,72,127
75013,note_on,131,0,0,,0,,,84,127
75013,note_on,0,0,0,,8,,,80,127
75141,note_off,128,0,0,,8,,,80,127
75141,note_off,0,0,0,,0,,,84,127
75141,note_off,0,0,0,,0,,,72,127
75141,note_off,0,0,0,,8,,,56,127
75144,note_on,3,0,0,,11,,,58,127
75144,note_on,0,0,0,,11,,,82,127
75144,note_on,0,0,0,,7,,,79,127
75272,note_off,128,0,0,,7,,,79,127
75272,note_off,0,0,0,,11,,,82,127
75275,note_on,3,0,0,,5,,,77,127
75275,note_on,0,0,0,,8,,,80,127
75403,note_off,128,0,0,,8,,,80,127
75403,note_off,0,0,0,,5,,,77,127
75406,note_on,3,0,0,,11,,,46,127
75406,note_on,0,0,0,,7,,,79,127
75406,note_on,0,0,0,,3,,,75,127
75534,note_off,128,0,0,,3,,,75,127
75534,note_off,0,0,0,,7,,,79,127
75537,note_on,3,0,0,,5,,,77,127
75537,note_on,0,0,0,,2,,,74,127
75662,note_off,125,0,0,,11,,,58,127
75665,note_off,3,0,0,,2,,,74,127
75665,note_off,0,0,0,,5,,,77,127
75665,note_off,0,0,0,,11,,,46,127
75668,note_on,3,0,0,,7,,,79,127
75668,note_on,0,0,0,,3,,,75,127
75799,note_on,131,0,0,,7,,,55,127
75862,note_off,63,0,0,,7,,,55,127
75865,note_on,3,0,0,,3,,,51,127
75928,note_off,63,0,0,,3,,,51,127
75931,note_on,3,0,0,,11,,,46,127
76062,note_on,131,0,0,,11,,,58,127
76127,note_off,65,0,0,,11,,,46,127
76190,note_off,63,0,0,,3,,,75,127
76190,note_off,0,0,0,,7,,,79,127
76193,note_on,3,0,0,,5,,,77,127
76193,note_on,0,0,0,,2,,,74,127
76321,note_off,128,0,0,,11,,,58,127
76324,note_on,3,0,0,,8,,,56,127
76452,note_off,128,0,0,,8,,,56,127
76452,note_off,0,0,0,,2,,,74,127
76452,note_off,0,0,0,,5,,,77,127
76455,note_on,3,0,0,,7,,,79,127
76455,note_on,0,0,0,,3,,,75,127
76586,note_on,131,0,0,,7,,,55,127
76649,note_off,63,0,0,,7,,,55,127
76652,note_on,3,0,0,,3,,,51,127
76715,note_off,63,0,0,,3,,,51,127
76718,note_on,3,0,0,,11,,,46,127
76849,note_on,131,0,0,,11,,,58,127
76914,note_off,65,0,0,,11,,,46,127
76977,note_off,63,0,0,,3,,,75,127
76977,note_off,0,0,0,,7,,,79,127
76980,note_on,3,0,0,,5,,,77,127
76980,note_on,0,0,0,,2,,,74,127
77108,note_off,128,0,0,,11,,,58,127
77111,note_on,3,0,0,,8,,,56,127
77239,note_off,128,0,0,,8,,,56,127
77239,note_off,0,0,0,,2,,,74,127
77239,note_off,0,0,0,,5,,,77,127
77242,note_on,3,0,0,,3,,,75,127
77242,note_on,0,0,0,,7,,,79,127
77373,note_on,131,0,0,,3,,,63,127
77436,note_off,63,0,0,,3,,,63,127
77439,note_on,3,0,0,,11,,,58,127
77502,note_off,63,0,0,,11,,,58,127
77505,note_on,3,0,0,,3,,,51,127
77636,note_on,131,0,0,,3,,,63,127
77761,note_off,125,0,0,,7,,,79,127
77761,note_off,0,0,0,,3,,,75,127
77764,note_off,3,0,0,,3,,,63,127
77764,note_off,0,0,0,,3,,,51,127
77767,note_on,3,0,0,,1,,,61,127
77895,note_off,128,0,0,,1,,,61,127
77898,note_on,3,0,0,,11,,,58,127
78026,note_off,128,0,0,,11,,,58,127
78029,note_on,3,0,0,,8,,,56,127
78160,note_on,131,0,0,,8,,,80,127
78160,note_on,0,0,0,,0,,,72,127
78288,note_off,128,0,0,,0,,,72,127
78288,note_off,0,0,0,,8,,,80,127
78288,note_off,0,0,0,,8,,,56,127
78291,note_on,3,0,0,,11,,,58,127
78291,note_on,0,0,0,,11,,,70,127
78291,note_on,0,0,0,,7,,,79,127
78419,note_off,128,0,0,,7,,,79,127
78419,note_off,0,0,0,,11,,,70,127
78422,note_on,3,0,0,,8,,,68,127
78422,note_on,0,0,0,,5,,,77,127
78550,note_off,128,0,0,,5,,,77,127
78550,note_off,0,0,0,,8,,,68,127
78553,note_on,3,0,0,,11,,,46,127
78553,note_on,0,0,0,,7,,,67,127
78553,note_on,0,0,0,,3,,,75,127
78681,note_off,128,0,0,,3,,,75,127
78681,note_off,0,0,0,,7,,,67,127
78684,note_on,3,0,0,,5,,,65,127
78684,note_on,0,0,0,,2,,,74,127
78809,note_off,125,0,0,,11,,,58,127
78812,note_off,3,0,0,,2,,,74,127
78812,note_off,0,0,0,,5,,,65,127
78812,note_off,0,0,0,,11,,,46,127
78815,note_on,3,0,0,,7,,,67,127
78815,note_on,0,0,0,,3,,,75,127
78946,note_on,131,0,0,,3,,,63,127
79009,note_off,63,0,0,,3,,,63,127
79012,note_on,3,0,0,,11,,,58,127
79075,note_off,63,0,0,,11,,,58,127
79078,note_on,3,0,0,,3,,,51,127
79209,note_on,131,0,0,,3,,,63,127
79334,note_off,125,0,0,,3,,,75,127
79334,note_off,0,0,0,,7,,,67,127
79337,note_off,3,0,0,,3,,,63,127
79337,note_off,0,0,0,,3,,,51,127
79340,note_on,3,0,0,,1,,,61,127
79468,note_off,128,0,0,,1,,,61,127
79471,note_on,3,0,0,,11,,,58,127
79599,note_off,128,0,0,,11,,,58,127
79602,note_on,3,0,0,,8,,,56,127
79733,note_on,131,0,0,,0,,,72,127
79733,note_on,0,0,0,,8,,,80,127
79861,note_off,128,0,0,,8,,,80,127
79861,note_off,0,0,0,,0,,,72,127
79861,note_off,0,0,0,,8,,,56,127
79864,note_on,3,0,0,,11,,,58,127
79864,note_on,0,0,0,,11,,,70,127
79864,note_on,0,0,0,,7,,,79,127
79992,note_off,128,0,0,,7,,,79,127
79992,note_off,0,0,0,,11,,,70,127
79995,note_on,3,0,0,,8,,,68,127
79995,note_on,0,0,0,,5,,,77,127
80123,note_off,128,0,0,,5,,,77,127
80123,note_off,0,0,0,,8,,,68,127
80126,note_on,3,0,0,,11,,,46,127
80126,note_on,0,0,0,,3,,,75,127
80126,note_on,0,0,0,,7,,,67,127
80254,note_off,128,0,0,,7,,,67,127
80254,note_off,0,0,0,,3,,,75,127
80257,note_on,3,0,0,,2,,,74,127
80257,note_on,0,0,0,,5,,,65,127
80382,note_off,125,0,0,,11,,,58,127
80385,note_off,3,0,0,,5,,,65,127
80385,note_off,0,0,0,,2,,,74,127
80385,note_off,0,0,0,,11,,,46,127
80389,note_on,4,0,0,,3,,,75,127
80389,note_on,0,0,0,,3,,,51,127
80517,note_off,128,0,0,,3,,,75,127
80521,note_on,4,0,0,,11,,,82,127
80649,note_off,128,0,0,,11,,,82,127
80653,note_on,4,0,0,,7,,,79,127
80781,note_off,128,0,0,,7,,,79,127
80785,note_on,4,0,0,,0,,,72,127
80913,note_off,128,0,0,,0,,,72,127
80913,note_off,0,0,0,,3,,,51,127
80917,note_on,4,0,0,,3,,,75,127
80917,note_on,0,0,0,,7,,,55,127
80980,note_off,63,0,0,,3,,,75,127
80983,note_on,3,0,0,,1,,,73,127
81046,note_off,63,0,0,,1,,,73,127
81050,note_on,4,0,0,,0,,,72,127
81113,note_off,63,0,0,,0,,,72,127
81116,note_on,3,0,0,,1,,,73,127
81179,note_off,63,0,0,,1,,,73,127
81179,note_off,0,0,0,,7,,,55,127
81183,note_on,4,0,0,,0,,,72,127
81183,note_on,0,0,0,,8,,,56,127
81311,note_off,128,0,0,,0,,,72,127
81315,note_on,4,0,0,,2,,,74,127
81378,note_off,63,0,0,,2,,,74,127
81381,note_on,3,0,0,,3,,,75,127
81444,note_off,63,0,0,,3,,,75,127
81444,note_off,0,0,0,,8,,,56,127
81447,note_on,3,0,0,,2,,,74,127
81447,note_on,0,0,0,,11,,,58,127
81575,note_off,128,0,0,,2,,,74,127
81579,note_on,4,0,0,,0,,,72,127
81707,note_off,128,0,0,,0,,,72,127
81707,note_off,0,0,0,,11,,,58,127
81711,note_on,4,0,0,,11,,,70,127
81711,note_on,0,0,0,,2,,,50,127
81839,note_off,128,0,0,,11,,,70,127
81843,note_on,4,0,0,,8,,,68,127
81971,note_off,128,0,0,,8,,,68,127
81971,note_off,0,0,0,,2,,,50,127
81975,note_on,4,0,0,,7,,,67,127
81975,note_on,0,0,0,,3,,,51,127
82103,note_off,128,0,0,,7,,,67,127
82107,note_on,4,0,0,,8,,,68,127
82170,note_off,63,0,0,,8,,,68,127
82174,note_on,4,0,0,,11,,,70,127
82237,note_off,63,0,0,,11,,,70,127
82240,note_on,3,0,0,,8,,,68,127
82368,note_off,128,0,0,,8,,,68,127
82372,note_on,4,0,0,,7,,,67,127
82500,note_off,128,0,0,,7,,,67,127
82500,note_off,0,0,0,,3,,,51,127
82504,note_on,4,0,0,,5,,,65,127
82504,note_on,0,0,0,,7,,,55,127
82632,note_off,128,0,0,,5,,,65,127
82636,note_on,4,0,0,,3,,,63,127
82764,note_off,128,0,0,,3,,,63,127
82764,note_off,0,0,0,,7,,,55,127
82768,note_on,4,0,0,,3,,,63,127
82768,note_on,0,0,0,,8,,,56,127
82831,note_off,63,0,0,,3,,,63,127
82835,note_on,4,0,0,,5,,,65,127
82898,note_off,63,0,0,,5,,,65,127
82901,note_on,3,0,0,,7,,,67,127
82964,note_off,63,0,0,,7,,,67,127
82968,note_on,4,0,0,,8,,,68,127
83029,note_off,61,0,0,,8,,,56,127
83030,note_off,1,0,0,,8,,,68,127
83033,note_on,3,0,0,,3,,,63,127
83033,note_on,0,0,0,,11,,,58,127
83293,note_off,260,0,0,,3,,,63,127
83297,note_on,4,0,0,,2,,,62,127
83297,note_on,0,0,0,,11,,,46,127
83428,note_off,131,0,0,,11,,,58,127
83558,note_off,130,0,0,,11,,,46,127
83558,note_off,0,0,0,,2,,,62,127
83562,note_on,4,0,0,,2,,,62,127
83562,note_on,0,0,0,,3,,,39,127
83562,note_on,0,0,0,,3,,,51,127
84084,note_off,522,0,0,,2,,,62,127
84091,note_on,7,0,0,,3,,,63,127
85973,note_off,1882,0,0,,3,,,63,127
85973,note_off,0,0,0,,3,,,51,127
85973,note_off,0,0,0,,3,,,39,127
87552,end_of_track,1579,1,0,,,,,,
