tick,type,time,meta,track,program,channel,pitch,tempo,note,velocity
0,copyright,0,1,0,,,,,,
0,program_change,0,0,0,6,0,,,,
0,pitchwheel,0,0,0,,0,0,,,
0,program_change,0,0,0,6,1,,,,
0,pitchwheel,0,0,0,,1,-590,,,
0,program_change,0,0,0,6,2,,,,
0,pitchwheel,0,0,0,,2,-272,,,
0,program_change,0,0,0,6,3,,,,
0,pitchwheel,0,0,0,,3,-353,,,
0,program_change,0,0,0,6,4,,,,
0,pitchwheel,0,0,0,,4,-560,,,
0,program_change,0,0,0,6,5,,,,
0,pitchwheel,0,0,0,,5,-80,,,
0,program_change,0,0,0,6,6,,,,
0,pitchwheel,0,0,0,,6,-625,,,
0,program_change,0,0,0,6,7,,,,
0,pitchwheel,0,0,0,,7,-130,,,
0,program_change,0,0,0,6,8,,,,
0,pitchwheel,0,0,0,,8,-512,,,
0,program_change,0,0,0,6,10,,,,
0,pitchwheel,0,0,0,,10,-464,,,
0,program_change,0,0,0,6,11,,,,
0,pitchwheel,0,0,0,,11,-208,,,
0,program_change,0,0,0,6,12,,,,
0,pitchwheel,0,0,0,,12,-553,,,
0,set_tempo,0,1,0,,,,500000,,
154,note_on,154,0,0,,7,,,79,127
306,note_off,152,0,0,,7,,,79,127
308,note_on,2,0,0,,5,,,77,127
460,note_off,152,0,0,,5,,,77,127
462,note_on,2,0,0,,3,,,75,127
614,note_off,152,0,0,,3,,,75,127
616,note_on,2,0,0,,11,,,82,127
768,note_off,152,0,0,,11,,,82,127
770,note_on,2,0,0,,8,,,80,127
922,note_off,152,0,0,,8,,,80,127
924,note_on,2,0,0,,7,,,79,127
1078,note_on,154,0,0,,7,,,67,127
1230,note_off,152,0,0,,7,,,67,127
1232,note_on,2,0,0,,5,,,65,127
1384,note_off,152,0,0,,5,,,65,127
1386,note_on,2,0,0,,3,,,63,127
1538,note_off,152,0,0,,3,,,63,127
1540,note_on,2,0,0,,11,,,70,127
1692,note_off,152,0,0,,11,,,70,127
1692,note_off,0,0,0,,7,,,79,127
1694,note_on,2,0,0,,5,,,77,127
1694,note_on,0,0,0,,8,,,68,127
1846,note_off,152,0,0,,8,,,68,127
1846,note_off,0,0,0,,5,,,77,127
1848,note_on,2,0,0,,11,,,70,127
1848,note_on,0,0,0,,7,,,67,127
2000,note_off,152,0,0,,11,,,70,127
2002,note_on,2,0,0,,0,,,72,127
2154,note_off,152,0,0,,0,,,72,127
2156,note_on,2,0,0,,2,,,74,127
2308,note_off,152,0,0,,2,,,74,127
2310,note_on,2,0,0,,3,,,75,127
2462,note_off,152,0,0,,3,,,75,127
2463,note_off,1,0,0,,7,,,67,127
2464,note_on,1,0,0,,5,,,77,127
2616,note_off,152,0,0,,5,,,77,127
2618,note_on,2,0,0,,7,,,79,127
2770,note_off,152,0,0,,7,,,79,127
2772,note_on,2,0,0,,8,,,80,127
2772,note_on,0,0,0,,11,,,58,127
2924,note_off,152,0,0,,11,,,58,127
2926,note_on,2,0,0,,0,,,60,127
3078,note_off,152,0,0,,0,,,60,127
3080,note_on,2,0,0,,2,,,62,127
3232,note_off,152,0,0,,2,,,62,127
3232,note_off,0,0,0,,8,,,80,127
3234,note_on,2,0,0,,7,,,79,127
3234,note_on,0,0,0,,3,,,63,127
3386,note_off,152,0,0,,3,,,63,127
3388,note_on,2,0,0,,5,,,65,127
3540,note_off,152,0,0,,5,,,65,127
3542,note_on,2,0,0,,7,,,67,127
3694,note_off,152,0,0,,7,,,67,127
3694,note_off,0,0,0,,7,,,79,127
3696,note_on,2,0,0,,11,,,70,127
3696,note_on,0,0,0,,8,,,68,127
3848,note_off,152,0,0,,11,,,70,127
3850,note_on,2,0,0,,0,,,72,127
4002,note_off,152,0,0,,0,,,72,127
4004,note_on,2,0,0,,2,,,74,127
4156,note_off,152,0,0,,2,,,74,127
4156,note_off,0,0,0,,8,,,68,127
4158,note_on,2,0,0,,3,,,75,127
4158,note_on,0,0,0,,7,,,67,127
4310,note_off,152,0,0,,3,,,75,127
4312,note_on,2,0,0,,5,,,77,127
4464,note_off,152,0,0,,5,,,77,127
4466,note_on,2,0,0,,7,,,79,127
4618,note_off,152,0,0,,7,,,79,127
4618,note_off,0,0,0,,7,,,67,127
4620,note_on,2,0,0,,8,,,80,127
4620,note_on,0,0,0,,5,,,65,127
4772,note_off,152,0,0,,8,,,80,127
4774,note_on,2,0,0,,11,,,82,127
4926,note_off,152,0,0,,11,,,82,127
4928,note_on,2,0,0,,0,,,84,127
5080,note_off,152,0,0,,0,,,84,127
5080,note_off,0,0,0,,5,,,65,127
5082,note_on,2,0,0,,5,,,77,127
5082,note_on,0,0,0,,2,,,62,127
5234,note_off,152,0,0,,5,,,77,127
5236,note_on,2,0,0,,7,,,79,127
5388,note_off,152,0,0,,7,,,79,127
5390,note_on,2,0,0,,8,,,80,127
5542,note_off,152,0,0,,8,,,80,127
5542,note_off,0,0,0,,2,,,62,127
5544,note_on,2,0,0,,7,,,79,127
5544,note_on,0,0,0,,3,,,63,127
5696,note_off,152,0,0,,7,,,79,127
5698,note_on,2,0,0,,8,,,80,127
5850,note_off,152,0,0,,8,,,80,127
5852,note_on,2,0,0,,11,,,82,127
6004,note_off,152,0,0,,11,,,82,127
6004,note_off,0,0,0,,3,,,63,127
6006,note_on,2,0,0,,3,,,75,127
6006,note_on,0,0,0,,7,,,55,127
6158,note_off,152,0,0,,3,,,75,127
6160,note_on,2,0,0,,5,,,77,127
6312,note_off,152,0,0,,5,,,77,127
6314,note_on,2,0,0,,7,,,79,127
6466,note_off,152,0,0,,7,,,79,127
6466,note_off,0,0,0,,7,,,55,127
6468,note_on,2,0,0,,5,,,77,127
6468,note_on,0,0,0,,8,,,56,127
6620,note_off,152,0,0,,5,,,77,127
6622,note_on,2,0,0,,8,,,80,127
6774,note_off,152,0,0,,8,,,80,127
6776,note_on,2,0,0,,7,,,79,127
6928,note_off,152,0,0,,7,,,79,127
6928,note_off,0,0,0,,8,,,56,127
6930,note_on,2,0,0,,5,,,77,127
6930,note_on,0,0,0,,11,,,58,127
7082,note_off,152,0,0,,5,,,77,127
7084,note_on,2,0,0,,3,,,75,127
7236,note_off,152,0,0,,3,,,75,127
7238,note_on,2,0,0,,2,,,74,127
7390,note_off,152,0,0,,2,,,74,127
7390,note_off,0,0,0,,11,,,58,127
7392,note_on,2,0,0,,3,,,75,127
7392,note_on,0,0,0,,3,,,51,127
7544,note_off,152,0,0,,3,,,75,127
7546,note_on,2,0,0,,0,,,84,127
7596,note_off,50,0,0,,0,,,84,127
7598,note_on,2,0,0,,11,,,82,127
7648,note_off,50,0,0,,11,,,82,127
7650,note_on,2,0,0,,0,,,84,127
7700,note_off,50,0,0,,0,,,84,127
7702,note_on,2,0,0,,11,,,82,127
7854,note_off,152,0,0,,3,,,51,127
7856,note_on,2,0,0,,2,,,74,127
7856,note_on,0,0,0,,5,,,77,127
8008,note_off,152,0,0,,11,,,82,127
8010,note_on,2,0,0,,0,,,84,127
8060,note_off,50,0,0,,0,,,84,127
8062,note_on,2,0,0,,11,,,82,127
8112,note_off,50,0,0,,11,,,82,127
8114,note_on,2,0,0,,0,,,84,127
8164,note_off,50,0,0,,0,,,84,127
8166,note_on,2,0,0,,11,,,82,127
8318,note_off,152,0,0,,5,,,77,127
8318,note_off,0,0,0,,2,,,74,127
8320,note_on,2,0,0,,3,,,75,127
8320,note_on,0,0,0,,7,,,79,127
8472,note_off,152,0,0,,11,,,82,127
8474,note_on,2,0,0,,0,,,84,127
8524,note_off,50,0,0,,0,,,84,127
8526,note_on,2,0,0,,11,,,82,127
8576,note_off,50,0,0,,11,,,82,127
8578,note_on,2,0,0,,0,,,84,127
8628,note_off,50,0,0,,0,,,84,127
8630,note_on,2,0,0,,11,,,82,127
8782,note_off,152,0,0,,7,,,79,127
8782,note_off,0,0,0,,3,,,75,127
8784,note_on,2,0,0,,2,,,74,127
8784,note_on,0,0,0,,5,,,77,127
8936,note_off,152,0,0,,11,,,82,127
8938,note_on,2,0,0,,0,,,84,127
8988,note_off,50,0,0,,0,,,84,127
8990,note_on,2,0,0,,11,,,82,127
9040,note_off,50,0,0,,11,,,82,127
9042,note_on,2,0,0,,0,,,84,127
9092,note_off,50,0,0,,0,,,84,127
9094,note_on,2,0,0,,11,,,82,127
9246,note_off,152,0,0,,5,,,77,127
9246,note_off,0,0,0,,2,,,74,127
9248,note_on,2,0,0,,3,,,75,127
9248,note_on,0,0,0,,0,,,72,127
9400,note_off,152,0,0,,11,,,82,127
9402,note_on,2,0,0,,11,,,82,127
9452,note_off,50,0,0,,11,,,82,127
9454,note_on,2,0,0,,10,,,81,127
9504,note_off,50,0,0,,10,,,81,127
9506,note_on,2,0,0,,11,,,82,127
9556,note_off,50,0,0,,11,,,82,127
9558,note_on,2,0,0,,10,,,81,127
9710,note_off,152,0,0,,0,,,72,127
9710,note_off,0,0,0,,3,,,75,127
9712,note_on,2,0,0,,2,,,74,127
9712,note_on,0,0,0,,11,,,70,127
9864,note_off,152,0,0,,10,,,81,127
9866,note_on,2,0,0,,10,,,81,127
9916,note_off,50,0,0,,10,,,81,127
9918,note_on,2,0,0,,7,,,79,127
9968,note_off,50,0,0,,7,,,79,127
9970,note_on,2,0,0,,10,,,81,127
10020,note_off,50,0,0,,10,,,81,127
10022,note_on,2,0,0,,7,,,79,127
10174,note_off,152,0,0,,11,,,70,127
10174,note_off,0,0,0,,2,,,74,127
10176,note_on,2,0,0,,10,,,69,127
10176,note_on,0,0,0,,0,,,72,127
10328,note_off,152,0,0,,7,,,79,127
10330,note_on,2,0,0,,7,,,79,127
10380,note_off,50,0,0,,7,,,79,127
10382,note_on,2,0,0,,5,,,77,127
10432,note_off,50,0,0,,5,,,77,127
10434,note_on,2,0,0,,7,,,79,127
10484,note_off,50,0,0,,7,,,79,127
10486,note_on,2,0,0,,5,,,77,127
10638,note_off,152,0,0,,0,,,72,127
10638,note_off,0,0,0,,10,,,69,127
10640,note_on,2,0,0,,11,,,70,127
10640,note_on,0,0,0,,7,,,67,127
10792,note_off,152,0,0,,5,,,77,127
10794,note_on,2,0,0,,5,,,77,127
10844,note_off,50,0,0,,5,,,77,127
10846,note_on,2,0,0,,3,,,75,127
10896,note_off,50,0,0,,3,,,75,127
10898,note_on,2,0,0,,5,,,77,127
10948,note_off,50,0,0,,5,,,77,127
10950,note_on,2,0,0,,3,,,75,127
11102,note_off,152,0,0,,7,,,67,127
11102,note_off,0,0,0,,11,,,70,127
11104,note_on,2,0,0,,5,,,65,127
11104,note_on,0,0,0,,10,,,69,127
11256,note_off,152,0,0,,3,,,75,127
11258,note_on,2,0,0,,3,,,75,127
11308,note_off,50,0,0,,3,,,75,127
11310,note_on,2,0,0,,2,,,74,127
11360,note_off,50,0,0,,2,,,74,127
11362,note_on,2,0,0,,3,,,75,127
11412,note_off,50,0,0,,3,,,75,127
11414,note_on,2,0,0,,2,,,74,127
11566,note_off,152,0,0,,10,,,69,127
11566,note_off,0,0,0,,5,,,65,127
11568,note_on,2,0,0,,7,,,67,127
11568,note_on,0,0,0,,3,,,63,127
11720,note_off,152,0,0,,2,,,74,127
11722,note_on,2,0,0,,2,,,74,127
11772,note_off,50,0,0,,2,,,74,127
11774,note_on,2,0,0,,0,,,72,127
11824,note_off,50,0,0,,0,,,72,127
11826,note_on,2,0,0,,2,,,74,127
11876,note_off,50,0,0,,2,,,74,127
11878,note_on,2,0,0,,0,,,72,127
12030,note_off,152,0,0,,3,,,63,127
12030,note_off,0,0,0,,7,,,67,127
12032,note_on,2,0,0,,5,,,65,127
12032,note_on,0,0,0,,2,,,62,127
12184,note_off,152,0,0,,0,,,72,127
12186,note_on,2,0,0,,0,,,72,127
12236,note_off,50,0,0,,0,,,72,127
12238,note_on,2,0,0,,11,,,70,127
12288,note_off,50,0,0,,11,,,70,127
12290,note_on,2,0,0,,0,,,72,127
12340,note_off,50,0,0,,0,,,72,127
12342,note_on,2,0,0,,11,,,70,127
12494,note_off,152,0,0,,2,,,62,127
12494,note_off,0,0,0,,5,,,65,127
12496,note_on,2,0,0,,3,,,63,127
12496,note_on,0,0,0,,0,,,60,127
12648,note_off,152,0,0,,11,,,70,127
12650,note_on,2,0,0,,11,,,70,127
12802,note_off,152,0,0,,11,,,70,127
12804,note_on,2,0,0,,0,,,72,127
12956,note_off,152,0,0,,0,,,72,127
12956,note_off,0,0,0,,0,,,60,127
12956,note_off,0,0,0,,3,,,63,127
12958,note_on,2,0,0,,11,,,70,127
12958,note_on,0,0,0,,2,,,74,127
12958,note_on,0,0,0,,11,,,58,127
13110,note_off,152,0,0,,2,,,74,127
13110,note_off,0,0,0,,11,,,70,127
13112,note_on,2,0,0,,0,,,72,127
13112,note_on,0,0,0,,3,,,75,127
13264,note_off,152,0,0,,3,,,75,127
13264,note_off,0,0,0,,0,,,72,127
13266,note_on,2,0,0,,2,,,74,127
13266,note_on,0,0,0,,5,,,77,127
13418,note_off,152,0,0,,5,,,77,127
13418,note_off,0,0,0,,2,,,74,127
13418,note_off,0,0,0,,11,,,58,127
13420,note_on,2,0,0,,2,,,74,127
13420,note_on,0,0,0,,5,,,77,127
13420,note_on,0,0,0,,3,,,51,127
13572,note_off,152,0,0,,5,,,77,127
13572,note_off,0,0,0,,2,,,74,127
13574,note_on,2,0,0,,0,,,72,127
13574,note_on,0,0,0,,3,,,75,127
13726,note_off,152,0,0,,3,,,75,127
13726,note_off,0,0,0,,0,,,72,127
13728,note_on,2,0,0,,2,,,74,127
13728,note_on,0,0,0,,11,,,70,127
13880,note_off,152,0,0,,3,,,51,127
13882,note_on,2,0,0,,7,,,55,127
13904,note_off,22,0,0,,11,,,70,127
13904,note_off,0,0,0,,2,,,74,127
13931,note_off,27,0,0,,7,,,55,127
13933,note_on,2,0,0,,5,,,53,127
13983,note_off,50,0,0,,5,,,53,127
13985,note_on,2,0,0,,2,,,74,127
13985,note_on,0,0,0,,11,,,70,127
13985,note_on,0,0,0,,7,,,55,127
14035,note_off,50,0,0,,7,,,55,127
14035,note_off,0,0,0,,11,,,70,127
14035,note_off,0,0,0,,2,,,74,127
14037,note_on,2,0,0,,0,,,72,127
14037,note_on,0,0,0,,5,,,65,127
14037,note_on,0,0,0,,10,,,69,127
14037,note_on,0,0,0,,5,,,53,127
14343,note_off,306,0,0,,5,,,53,127
14345,note_on,2,0,0,,7,,,55,127
14395,note_off,50,0,0,,7,,,55,127
14397,note_on,2,0,0,,5,,,53,127
14447,note_off,50,0,0,,5,,,53,127
14447,note_off,0,0,0,,10,,,69,127
14447,note_off,0,0,0,,0,,,72,127
14449,note_on,2,0,0,,2,,,74,127
14449,note_on,0,0,0,,11,,,70,127
14449,note_on,0,0,0,,7,,,55,127
14499,note_off,50,0,0,,7,,,55,127
14499,note_off,0,0,0,,11,,,70,127
14499,note_off,0,0,0,,2,,,74,127
14500,note_off,1,0,0,,5,,,65,127
14501,note_on,1,0,0,,0,,,72,127
14501,note_on,0,0,0,,5,,,65,127
14501,note_on,0,0,0,,10,,,69,127
14501,note_on,0,0,0,,5,,,53,127
14807,note_off,306,0,0,,5,,,53,127
14809,note_on,2,0,0,,7,,,55,127
14859,note_off,50,0,0,,7,,,55,127
14861,note_on,2,0,0,,5,,,53,127
14911,note_off,50,0,0,,5,,,53,127
14911,note_off,0,0,0,,10,,,69,127
14911,note_off,0,0,0,,0,,,72,127
14913,note_on,2,0,0,,2,,,74,127
14913,note_on,0,0,0,,11,,,70,127
14913,note_on,0,0,0,,7,,,55,127
14963,note_off,50,0,0,,7,,,55,127
14963,note_off,0,0,0,,11,,,70,127
14963,note_off,0,0,0,,2,,,74,127
14964,note_off,1,0,0,,5,,,65,127
14965,note_on,1,0,0,,10,,,69,127
14965,note_on,0,0,0,,0,,,72,127
14965,note_on,0,0,0,,5,,,65,127
14965,note_on,0,0,0,,5,,,53,127
15271,note_off,306,0,0,,5,,,53,127
15273,note_on,2,0,0,,7,,,55,127
15323,note_off,50,0,0,,7,,,55,127
15325,note_on,2,0,0,,5,,,53,127
15375,note_off,50,0,0,,5,,,53,127
15375,note_off,0,0,0,,0,,,72,127
15375,note_off,0,0,0,,10,,,69,127
15377,note_on,2,0,0,,2,,,74,127
15377,note_on,0,0,0,,11,,,70,127
15377,note_on,0,0,0,,7,,,55,127
15427,note_off,50,0,0,,7,,,55,127
15427,note_off,0,0,0,,11,,,70,127
15427,note_off,0,0,0,,2,,,74,127
15428,note_off,1,0,0,,5,,,65,127
15429,note_on,1,0,0,,10,,,69,127
15429,note_on,0,0,0,,0,,,72,127
15429,note_on,0,0,0,,5,,,65,127
15429,note_on,0,0,0,,5,,,53,127
15735,note_off,306,0,0,,5,,,53,127
15737,note_on,2,0,0,,5,,,53,127
15889,note_off,152,0,0,,5,,,53,127
15891,note_on,2,0,0,,7,,,55,127
16043,note_off,152,0,0,,7,,,55,127
16045,note_on,2,0,0,,10,,,57,127
16151,note_off,106,0,0,,0,,,72,127
16167,note_off,16,0,0,,10,,,69,127
16197,note_off,30,0,0,,10,,,57,127
16197,note_off,0,0,0,,5,,,65,127
16199,note_on,2,0,0,,2,,,74,127
16199,note_on,0,0,0,,11,,,58,127
16351,note_off,152,0,0,,2,,,74,127
16353,note_on,2,0,0,,3,,,75,127
16505,note_off,152,0,0,,3,,,75,127
16507,note_on,2,0,0,,5,,,77,127
16659,note_off,152,0,0,,5,,,77,127
16659,note_off,0,0,0,,11,,,58,127
16661,note_on,2,0,0,,7,,,79,127
16661,note_on,0,0,0,,3,,,51,127
16813,note_off,152,0,0,,7,,,79,127
16815,note_on,2,0,0,,3,,,75,127
16967,note_off,152,0,0,,3,,,75,127
16969,note_on,2,0,0,,2,,,74,127
17121,note_off,152,0,0,,2,,,74,127
17121,note_off,0,0,0,,3,,,51,127
17123,note_on,2,0,0,,2,,,74,127
17123,note_on,0,0,0,,4,,,52,127
17275,note_off,152,0,0,,2,,,74,127
17277,note_on,2,0,0,,0,,,72,127
17429,note_off,152,0,0,,0,,,72,127
17431,note_on,2,0,0,,11,,,70,127
17583,note_off,152,0,0,,11,,,70,127
17583,note_off,0,0,0,,4,,,52,127
17585,note_on,2,0,0,,10,,,69,127
17585,note_on,0,0,0,,5,,,53,127
17739,note_on,154,0,0,,7,,,79,127
17789,note_off,50,0,0,,7,,,79,127
17790,note_off,1,0,0,,10,,,69,127
17791,note_on,1,0,0,,5,,,77,127
17841,note_off,50,0,0,,5,,,77,127
17843,note_on,2,0,0,,7,,,79,127
17893,note_off,50,0,0,,7,,,79,127
17895,note_on,2,0,0,,5,,,77,127
18047,note_off,152,0,0,,5,,,53,127
18049,note_on,2,0,0,,10,,,57,127
18049,note_on,0,0,0,,0,,,60,127
18201,note_off,152,0,0,,5,,,77,127
18203,note_on,2,0,0,,7,,,79,127
18253,note_off,50,0,0,,7,,,79,127
18255,note_on,2,0,0,,5,,,77,127
18305,note_off,50,0,0,,5,,,77,127
18307,note_on,2,0,0,,7,,,79,127
18357,note_off,50,0,0,,7,,,79,127
18359,note_on,2,0,0,,5,,,77,127
18511,note_off,152,0,0,,0,,,60,127
18511,note_off,0,0,0,,10,,,57,127
18513,note_on,2,0,0,,2,,,62,127
18513,note_on,0,0,0,,11,,,58,127
18665,note_off,152,0,0,,5,,,77,127
18667,note_on,2,0,0,,7,,,79,127
18717,note_off,50,0,0,,7,,,79,127
18719,note_on,2,0,0,,5,,,77,127
18769,note_off,50,0,0,,5,,,77,127
18771,note_on,2,0,0,,7,,,79,127
18821,note_off,50,0,0,,7,,,79,127
18823,note_on,2,0,0,,5,,,77,127
18975,note_off,152,0,0,,11,,,58,127
18975,note_off,0,0,0,,2,,,62,127
18977,note_on,2,0,0,,0,,,60,127
18977,note_on,0,0,0,,10,,,57,127
19129,note_off,152,0,0,,5,,,77,127
19131,note_on,2,0,0,,7,,,79,127
19181,note_off,50,0,0,,7,,,79,127
19183,note_on,2,0,0,,5,,,77,127
19233,note_off,50,0,0,,5,,,77,127
19235,note_on,2,0,0,,7,,,79,127
19285,note_off,50,0,0,,7,,,79,127
19287,note_on,2,0,0,,5,,,77,127
19439,note_off,152,0,0,,10,,,57,127
19439,note_off,0,0,0,,0,,,60,127
19441,note_on,2,0,0,,2,,,62,127
19441,note_on,0,0,0,,11,,,58,127
19593,note_off,152,0,0,,5,,,77,127
19595,note_on,2,0,0,,5,,,77,127
19747,note_off,152,0,0,,5,,,77,127
19749,note_on,2,0,0,,3,,,75,127
19901,note_off,152,0,0,,3,,,75,127
19901,note_off,0,0,0,,11,,,58,127
19901,note_off,0,0,0,,2,,,62,127
19903,note_on,2,0,0,,2,,,74,127
19903,note_on,0,0,0,,11,,,58,127
19903,note_on,0,0,0,,11,,,46,127
20055,note_off,152,0,0,,2,,,74,127
20057,note_on,2,0,0,,0,,,72,127
20209,note_off,152,0,0,,0,,,72,127
20211,note_on,2,0,0,,11,,,70,127
20363,note_off,152,0,0,,11,,,70,127
20363,note_off,0,0,0,,11,,,46,127
20363,note_off,0,0,0,,11,,,58,127
20365,note_on,2,0,0,,0,,,72,127
20365,note_on,0,0,0,,0,,,60,127
20365,note_on,0,0,0,,11,,,58,127
20365,note_on,0,0,0,,3,,,51,127
20517,note_off,152,0,0,,0,,,72,127
20519,note_on,2,0,0,,2,,,74,127
20671,note_off,152,0,0,,2,,,74,127
20673,note_on,2,0,0,,3,,,75,127
20825,note_off,152,0,0,,3,,,75,127
20825,note_off,0,0,0,,3,,,51,127
20825,note_off,0,0,0,,11,,,58,127
20825,note_off,0,0,0,,0,,,60,127
20827,note_on,2,0,0,,5,,,77,127
20827,note_on,0,0,0,,3,,,75,127
20827,note_on,0,0,0,,0,,,60,127
20827,note_on,0,0,0,,5,,,53,127
20979,note_off,152,0,0,,3,,,75,127
20979,note_off,0,0,0,,5,,,77,127
20981,note_on,2,0,0,,2,,,74,127
21133,note_off,152,0,0,,2,,,74,127
21135,note_on,2,0,0,,0,,,72,127
21287,note_off,152,0,0,,0,,,72,127
21287,note_off,0,0,0,,5,,,53,127
21287,note_off,0,0,0,,0,,,60,127
21289,note_on,2,0,0,,0,,,60,127
21339,note_off,50,0,0,,0,,,60,127
21341,note_on,2,0,0,,11,,,58,127
21391,note_off,50,0,0,,11,,,58,127
21393,note_on,2,0,0,,3,,,75,127
21393,note_on,0,0,0,,7,,,67,127
21393,note_on,0,0,0,,0,,,60,127
21443,note_off,50,0,0,,0,,,60,127
21443,note_off,0,0,0,,7,,,67,127
21443,note_off,0,0,0,,3,,,75,127
21445,note_on,2,0,0,,5,,,65,127
21445,note_on,0,0,0,,2,,,74,127
21445,note_on,0,0,0,,11,,,58,127
21751,note_off,306,0,0,,11,,,58,127
21753,note_on,2,0,0,,0,,,60,127
21803,note_off,50,0,0,,0,,,60,127
21805,note_on,2,0,0,,11,,,58,127
21855,note_off,50,0,0,,11,,,58,127
21855,note_off,0,0,0,,2,,,74,127
21855,note_off,0,0,0,,5,,,65,127
21857,note_on,2,0,0,,3,,,75,127
21857,note_on,0,0,0,,7,,,67,127
21857,note_on,0,0,0,,0,,,60,127
21907,note_off,50,0,0,,0,,,60,127
21907,note_off,0,0,0,,7,,,67,127
21907,note_off,0,0,0,,3,,,75,127
21909,note_on,2,0,0,,5,,,65,127
21909,note_on,0,0,0,,2,,,74,127
21909,note_on,0,0,0,,11,,,58,127
22215,note_off,306,0,0,,11,,,58,127
22217,note_on,2,0,0,,0,,,60,127
22267,note_off,50,0,0,,0,,,60,127
22269,note_on,2,0,0,,11,,,58,127
22319,note_off,50,0,0,,11,,,58,127
22319,note_off,0,0,0,,2,,,74,127
22319,note_off,0,0,0,,5,,,65,127
22321,note_on,2,0,0,,3,,,75,127
22321,note_on,0,0,0,,7,,,67,127
22321,note_on,0,0,0,,0,,,60,127
22371,note_off,50,0,0,,0,,,60,127
22371,note_off,0,0,0,,7,,,67,127
22371,note_off,0,0,0,,3,,,75,127
22373,note_on,2,0,0,,5,,,65,127
22373,note_on,0,0,0,,2,,,74,127
22373,note_on,0,0,0,,11,,,58,127
22679,note_off,306,0,0,,11,,,58,127
22681,note_on,2,0,0,,0,,,60,127
22731,note_off,50,0,0,,0,,,60,127
22733,note_on,2,0,0,,11,,,58,127
22783,note_off,50,0,0,,11,,,58,127
22783,note_off,0,0,0,,2,,,74,127
22783,note_off,0,0,0,,5,,,65,127
22785,note_on,2,0,0,,3,,,75,127
22785,note_on,0,0,0,,7,,,67,127
22785,note_on,0,0,0,,0,,,60,127
22835,note_off,50,0,0,,0,,,60,127
22835,note_off,0,0,0,,7,,,67,127
22835,note_off,0,0,0,,3,,,75,127
22837,note_on,2,0,0,,2,,,74,127
22837,note_on,0,0,0,,5,,,65,127
22837,note_on,0,0,0,,11,,,58,127
23143,note_off,306,0,0,,11,,,58,127
23145,note_on,2,0,0,,0,,,60,127
23195,note_off,50,0,0,,0,,,60,127
23197,note_on,2,0,0,,11,,,58,127
23247,note_off,50,0,0,,11,,,58,127
23249,note_on,2,0,0,,0,,,60,127
23299,note_off,50,0,0,,0,,,60,127
23299,note_off,0,0,0,,5,,,65,127
23299,note_off,0,0,0,,2,,,74,127
23301,note_on,2,0,0,,5,,,77,127
23301,note_on,0,0,0,,11,,,58,127
23453,note_off,152,0,0,,5,,,77,127
23455,note_on,2,0,0,,3,,,75,127
23607,note_off,152,0,0,,3,,,75,127
23607,note_off,0,0,0,,11,,,58,127
23609,note_on,2,0,0,,2,,,74,127
23609,note_on,0,0,0,,11,,,58,127
23609,note_on,0,0,0,,2,,,50,127
23761,note_off,152,0,0,,2,,,74,127
23763,note_on,2,0,0,,0,,,72,127
23915,note_off,152,0,0,,0,,,72,127
23917,note_on,2,0,0,,11,,,70,127
24069,note_off,152,0,0,,11,,,70,127
24069,note_off,0,0,0,,2,,,50,127
24069,note_off,0,0,0,,11,,,58,127
24071,note_on,2,0,0,,0,,,72,127
24071,note_on,0,0,0,,11,,,58,127
24071,note_on,0,0,0,,0,,,60,127
24071,note_on,0,0,0,,3,,,51,127
24223,note_off,152,0,0,,0,,,72,127
24225,note_on,2,0,0,,2,,,74,127
24377,note_off,152,0,0,,2,,,74,127
24379,note_on,2,0,0,,3,,,75,127
24531,note_off,152,0,0,,3,,,75,127
24531,note_off,0,0,0,,3,,,51,127
24531,note_off,0,0,0,,0,,,60,127
24531,note_off,0,0,0,,11,,,58,127
24533,note_on,2,0,0,,5,,,77,127
24533,note_on,0,0,0,,3,,,75,127
24533,note_on,0,0,0,,0,,,60,127
24533,note_on,0,0,0,,5,,,53,127
24685,note_off,152,0,0,,3,,,75,127
24685,note_off,0,0,0,,5,,,77,127
24687,note_on,2,0,0,,2,,,74,127
24839,note_off,152,0,0,,2,,,74,127
24841,note_on,2,0,0,,0,,,72,127
24993,note_off,152,0,0,,0,,,72,127
24993,note_off,0,0,0,,5,,,53,127
24993,note_off,0,0,0,,0,,,60,127
24995,note_on,2,0,0,,11,,,70,127
24995,note_on,0,0,0,,11,,,58,127
24995,note_on,0,0,0,,11,,,46,127
25147,note_off,152,0,0,,11,,,70,127
25149,note_on,2,0,0,,5,,,77,127
25149,note_on,0,0,0,,5,,,65,127
25299,note_off,150,0,0,,11,,,46,127
25299,note_off,0,0,0,,11,,,58,127
25301,note_off,2,0,0,,5,,,65,127
25301,note_off,0,0,0,,5,,,77,127
25303,note_on,2,0,0,,5,,,77,127
25303,note_on,0,0,0,,5,,,65,127
25455,note_off,152,0,0,,5,,,65,127
25455,note_off,0,0,0,,5,,,77,127
25457,note_on,2,0,0,,5,,,77,127
25457,note_on,0,0,0,,5,,,65,127
25609,note_off,152,0,0,,5,,,77,127
25611,note_on,2,0,0,,3,,,75,127
25763,note_off,152,0,0,,3,,,75,127
25765,note_on,2,0,0,,0,,,72,127
25917,note_off,152,0,0,,0,,,72,127
25918,note_off,1,0,0,,5,,,65,127
25919,note_on,1,0,0,,2,,,74,127
26073,note_on,154,0,0,,5,,,65,127
26073,note_on,0,0,0,,5,,,53,127
26225,note_off,152,0,0,,5,,,53,127
26225,note_off,0,0,0,,5,,,65,127
26227,note_on,2,0,0,,5,,,65,127
26227,note_on,0,0,0,,5,,,53,127
26379,note_off,152,0,0,,5,,,53,127
26379,note_off,0,0,0,,5,,,65,127
26380,note_off,1,0,0,,2,,,74,127
26381,note_on,1,0,0,,5,,,65,127
26381,note_on,0,0,0,,0,,,72,127
26381,note_on,0,0,0,,5,,,53,127
26533,note_off,152,0,0,,5,,,65,127
26535,note_on,2,0,0,,3,,,63,127
26687,note_off,152,0,0,,3,,,63,127
26689,note_on,2,0,0,,0,,,60,127
26841,note_off,152,0,0,,0,,,60,127
26841,note_off,0,0,0,,5,,,53,127
26842,note_off,1,0,0,,0,,,72,127
26843,note_on,1,0,0,,2,,,62,127
26843,note_on,0,0,0,,5,,,53,127
26997,note_on,154,0,0,,5,,,77,127
26997,note_on,0,0,0,,5,,,65,127
27149,note_off,152,0,0,,5,,,65,127
27149,note_off,0,0,0,,5,,,77,127
27151,note_on,2,0,0,,5,,,77,127
27151,note_on,0,0,0,,5,,,65,127
27303,note_off,152,0,0,,5,,,65,127
27303,note_off,0,0,0,,5,,,77,127
27303,note_off,0,0,0,,2,,,62,127
27305,note_on,2,0,0,,5,,,65,127
27305,note_on,0,0,0,,5,,,77,127
27305,note_on,0,0,0,,0,,,60,127
27457,note_off,152,0,0,,5,,,77,127
27459,note_on,2,0,0,,3,,,75,127
27611,note_off,152,0,0,,3,,,75,127
27613,note_on,2,0,0,,0,,,72,127
27765,note_off,152,0,0,,0,,,72,127
27765,note_off,0,0,0,,0,,,60,127
27766,note_off,1,0,0,,5,,,65,127
27767,note_off,1,0,0,,5,,,53,127
27767,note_on,0,0,0,,2,,,74,127
27767,note_on,0,0,0,,5,,,41,127
27921,note_on,154,0,0,,5,,,53,127
28073,note_off,152,0,0,,5,,,53,127
28075,note_on,2,0,0,,5,,,53,127
28227,note_off,152,0,0,,5,,,53,127
28227,note_off,0,0,0,,2,,,74,127
28228,note_off,1,0,0,,5,,,41,127
28229,note_on,1,0,0,,0,,,72,127
28229,note_on,0,0,0,,5,,,41,127
28229,note_on,0,0,0,,5,,,53,127
28381,note_off,152,0,0,,5,,,53,127
28383,note_on,2,0,0,,3,,,51,127
28535,note_off,152,0,0,,3,,,51,127
28537,note_on,2,0,0,,0,,,48,127
28689,note_off,152,0,0,,0,,,48,127
28690,note_off,1,0,0,,5,,,41,127
28690,note_off,0,0,0,,0,,,72,127
28691,note_on,1,0,0,,2,,,50,127
28845,note_on,154,0,0,,5,,,77,127
28997,note_off,152,0,0,,5,,,77,127
28999,note_on,2,0,0,,3,,,75,127
29151,note_off,152,0,0,,3,,,75,127
29151,note_off,0,0,0,,2,,,50,127
29153,note_on,2,0,0,,2,,,74,127
29153,note_on,0,0,0,,11,,,46,127
29305,note_off,152,0,0,,2,,,74,127
29307,note_on,2,0,0,,0,,,72,127
29459,note_off,152,0,0,,0,,,72,127
29461,note_on,2,0,0,,11,,,70,127
29613,note_off,152,0,0,,11,,,70,127
29613,note_off,0,0,0,,11,,,46,127
29615,note_on,2,0,0,,0,,,72,127
29615,note_on,0,0,0,,3,,,51,127
29767,note_off,152,0,0,,0,,,72,127
29769,note_on,2,0,0,,3,,,75,127
29921,note_off,152,0,0,,3,,,75,127
29923,note_on,2,0,0,,2,,,74,127
30075,note_off,152,0,0,,2,,,74,127
30075,note_off,0,0,0,,3,,,51,127
30077,note_on,2,0,0,,0,,,72,127
30077,note_on,0,0,0,,5,,,53,127
30229,note_off,152,0,0,,0,,,72,127
30231,note_on,2,0,0,,11,,,70,127
30383,note_off,152,0,0,,11,,,70,127
30385,note_on,2,0,0,,10,,,69,127
30537,note_off,152,0,0,,10,,,69,127
30537,note_off,0,0,0,,5,,,53,127
30539,note_on,2,0,0,,11,,,70,127
30539,note_on,0,0,0,,11,,,58,127
30539,note_on,0,0,0,,11,,,46,127
30691,note_off,152,0,0,,11,,,70,127
30693,note_on,2,0,0,,5,,,65,127
30693,note_on,0,0,0,,5,,,77,127
30845,note_off,152,0,0,,5,,,77,127
30845,note_off,0,0,0,,5,,,65,127
30847,note_on,2,0,0,,5,,,77,127
30847,note_on,0,0,0,,5,,,65,127
30999,note_off,152,0,0,,5,,,65,127
30999,note_off,0,0,0,,5,,,77,127
31001,note_on,2,0,0,,5,,,77,127
31001,note_on,0,0,0,,5,,,65,127
31153,note_off,152,0,0,,5,,,77,127
31155,note_on,2,0,0,,3,,,75,127
31307,note_off,152,0,0,,3,,,75,127
31309,note_on,2,0,0,,0,,,72,127
31461,note_off,152,0,0,,0,,,72,127
31462,note_off,1,0,0,,5,,,65,127
31463,note_off,1,0,0,,11,,,46,127
31463,note_off,0,0,0,,11,,,58,127
31463,note_on,0,0,0,,2,,,74,127
31617,note_on,154,0,0,,5,,,65,127
31617,note_on,0,0,0,,5,,,53,127
31769,note_off,152,0,0,,5,,,53,127
31769,note_off,0,0,0,,5,,,65,127
31771,note_on,2,0,0,,5,,,65,127
31771,note_on,0,0,0,,5,,,53,127
31923,note_off,152,0,0,,5,,,53,127
31923,note_off,0,0,0,,5,,,65,127
31924,note_off,1,0,0,,2,,,74,127
31925,note_on,1,0,0,,5,,,65,127
31925,note_on,0,0,0,,0,,,72,127
31925,note_on,0,0,0,,5,,,53,127
32077,note_off,152,0,0,,5,,,65,127
32079,note_on,2,0,0,,3,,,63,127
32231,note_off,152,0,0,,3,,,63,127
32233,note_on,2,0,0,,0,,,60,127
32385,note_off,152,0,0,,0,,,60,127
32385,note_off,0,0,0,,5,,,53,127
32386,note_off,1,0,0,,0,,,72,127
32387,note_on,1,0,0,,2,,,62,127
32387,note_on,0,0,0,,5,,,53,127
32541,note_on,154,0,0,,5,,,77,127
32541,note_on,0,0,0,,5,,,65,127
32693,note_off,152,0,0,,5,,,65,127
32693,note_off,0,0,0,,5,,,77,127
32695,note_on,2,0,0,,5,,,65,127
32695,note_on,0,0,0,,5,,,77,127
32847,note_off,152,0,0,,5,,,77,127
32847,note_off,0,0,0,,5,,,65,127
32847,note_off,0,0,0,,2,,,62,127
32849,note_on,2,0,0,,5,,,65,127
32849,note_on,0,0,0,,5,,,77,127
32849,note_on,0,0,0,,0,,,60,127
33001,note_off,152,0,0,,5,,,77,127
33003,note_on,2,0,0,,3,,,75,127
33155,note_off,152,0,0,,3,,,75,127
33157,note_on,2,0,0,,0,,,72,127
33309,note_off,152,0,0,,0,,,72,127
33309,note_off,0,0,0,,0,,,60,127
33310,note_off,1,0,0,,5,,,65,127
33311,note_off,1,0,0,,5,,,53,127
33311,note_on,0,0,0,,2,,,74,127
33311,note_on,0,0,0,,5,,,41,127
33465,note_on,154,0,0,,5,,,53,127
33617,note_off,152,0,0,,5,,,53,127
33619,note_on,2,0,0,,5,,,53,127
33771,note_off,152,0,0,,5,,,53,127
33771,note_off,0,0,0,,2,,,74,127
33772,note_off,1,0,0,,5,,,41,127
33773,note_on,1,0,0,,0,,,72,127
33773,note_on,0,0,0,,5,,,41,127
33773,note_on,0,0,0,,5,,,53,127
33925,note_off,152,0,0,,5,,,53,127
33927,note_on,2,0,0,,3,,,51,127
34079,note_off,152,0,0,,3,,,51,127
34081,note_on,2,0,0,,0,,,48,127
34233,note_off,152,0,0,,0,,,48,127
34234,note_off,1,0,0,,5,,,41,127
34234,note_off,0,0,0,,0,,,72,127
34235,note_on,1,0,0,,2,,,50,127
34389,note_on,154,0,0,,5,,,77,127
34541,note_off,152,0,0,,5,,,77,127
34543,note_on,2,0,0,,3,,,75,127
34695,note_off,152,0,0,,3,,,75,127
34695,note_off,0,0,0,,2,,,50,127
34697,note_on,2,0,0,,2,,,74,127
34697,note_on,0,0,0,,11,,,46,127
34849,note_off,152,0,0,,2,,,74,127
34851,note_on,2,0,0,,0,,,72,127
35003,note_off,152,0,0,,0,,,72,127
35005,note_on,2,0,0,,11,,,70,127
35157,note_off,152,0,0,,11,,,70,127
35157,note_off,0,0,0,,11,,,46,127
35159,note_on,2,0,0,,0,,,72,127
35159,note_on,0,0,0,,3,,,51,127
35311,note_off,152,0,0,,0,,,72,127
35313,note_on,2,0,0,,3,,,75,127
35465,note_off,152,0,0,,3,,,75,127
35467,note_on,2,0,0,,2,,,74,127
35619,note_off,152,0,0,,2,,,74,127
35619,note_off,0,0,0,,3,,,51,127
35621,note_on,2,0,0,,0,,,72,127
35621,note_on,0,0,0,,5,,,53,127
35773,note_off,152,0,0,,0,,,72,127
35775,note_on,2,0,0,,11,,,70,127
35927,note_off,152,0,0,,11,,,70,127
35929,note_on,2,0,0,,10,,,69,127
36081,note_off,152,0,0,,10,,,69,127
36081,note_off,0,0,0,,5,,,53,127
36083,note_on,2,0,0,,11,,,82,127
36083,note_on,0,0,0,,11,,,58,127
36083,note_on,0,0,0,,11,,,46,127
36235,note_off,152,0,0,,11,,,82,127
36237,note_on,2,0,0,,5,,,77,127
36389,note_off,152,0,0,,5,,,77,127
36391,note_on,2,0,0,,2,,,74,127
36543,note_off,152,0,0,,2,,,74,127
36545,note_on,2,0,0,,11,,,70,127
36697,note_off,152,0,0,,11,,,70,127
36699,note_on,2,0,0,,5,,,65,127
36851,note_off,152,0,0,,5,,,65,127
36853,note_on,2,0,0,,2,,,62,127
37005,note_off,152,0,0,,2,,,62,127
37005,note_off,0,0,0,,11,,,46,127
37005,note_off,0,0,0,,11,,,58,127
37007,note_on,2,0,0,,11,,,58,127
37007,note_on,0,0,0,,11,,,46,127
37847,note_off,840,0,0,,11,,,58,127
37927,note_off,80,0,0,,11,,,46,127
37929,note_on,2,0,0,,11,,,46,127
37929,note_on,0,0,0,,8,,,56,127
38083,note_on,154,0,0,,5,,,77,127
38237,note_on,154,0,0,,2,,,74,127
38314,note_off,77,0,0,,5,,,77,127
38389,note_off,75,0,0,,8,,,56,127
38389,note_off,0,0,0,,11,,,46,127
38391,note_on,2,0,0,,8,,,68,127
38391,note_on,0,0,0,,11,,,46,127
38391,note_on,0,0,0,,8,,,56,127
38468,note_off,77,0,0,,2,,,74,127
38545,note_on,77,0,0,,5,,,65,127
38622,note_off,77,0,0,,8,,,68,127
38699,note_on,77,0,0,,8,,,68,127
38776,note_off,77,0,0,,5,,,65,127
38851,note_off,75,0,0,,8,,,56,127
38851,note_off,0,0,0,,11,,,46,127
38853,note_on,2,0,0,,2,,,74,127
38853,note_on,0,0,0,,11,,,46,127
38853,note_on,0,0,0,,8,,,56,127
38930,note_off,77,0,0,,8,,,68,127
39007,note_on,77,0,0,,5,,,77,127
39084,note_off,77,0,0,,2,,,74,127
39161,note_on,77,0,0,,2,,,74,127
39238,note_off,77,0,0,,5,,,77,127
39313,note_off,75,0,0,,8,,,56,127
39313,note_off,0,0,0,,11,,,46,127
39315,note_on,2,0,0,,8,,,68,127
39315,note_on,0,0,0,,11,,,46,127
39315,note_on,0,0,0,,8,,,56,127
39392,note_off,77,0,0,,2,,,74,127
39469,note_on,77,0,0,,5,,,65,127
39546,note_off,77,0,0,,8,,,68,127
39623,note_on,77,0,0,,8,,,68,127
39700,note_off,77,0,0,,5,,,65,127
39775,note_off,75,0,0,,8,,,56,127
39775,note_off,0,0,0,,11,,,46,127
39777,note_on,2,0,0,,5,,,77,127
39777,note_on,0,0,0,,5,,,53,127
39777,note_on,0,0,0,,8,,,56,127
39777,note_on,0,0,0,,8,,,44,127
39854,note_off,77,0,0,,8,,,68,127
39931,note_on,77,0,0,,2,,,74,127
40008,note_off,77,0,0,,5,,,77,127
40085,note_on,77,0,0,,8,,,68,127
40162,note_off,77,0,0,,2,,,74,127
40237,note_off,75,0,0,,8,,,44,127
40237,note_off,0,0,0,,8,,,56,127
40237,note_off,0,0,0,,5,,,53,127
40239,note_on,2,0,0,,5,,,65,127
40239,note_on,0,0,0,,5,,,53,127
40239,note_on,0,0,0,,8,,,56,127
40239,note_on,0,0,0,,8,,,44,127
40316,note_off,77,0,0,,8,,,68,127
40393,note_on,77,0,0,,8,,,68,127
40470,note_off,77,0,0,,5,,,65,127
40547,note_on,77,0,0,,3,,,75,127
40624,note_off,77,0,0,,8,,,68,127
40699,note_off,75,0,0,,3,,,75,127
40699,note_off,0,0,0,,8,,,44,127
40699,note_off,0,0,0,,8,,,56,127
40699,note_off,0,0,0,,5,,,53,127
40701,note_on,2,0,0,,2,,,74,127
40701,note_on,0,0,0,,5,,,53,127
40701,note_on,0,0,0,,8,,,44,127
40855,note_on,154,0,0,,5,,,65,127
41005,note_off,150,0,0,,2,,,74,127
41008,note_on,3,0,0,,2,,,74,127
41158,note_off,150,0,0,,5,,,65,127
41160,note_off,2,0,0,,2,,,74,127
41160,note_off,0,0,0,,8,,,44,127
41160,note_off,0,0,0,,5,,,53,127
41162,note_on,2,0,0,,0,,,72,127
41162,note_on,0,0,0,,2,,,74,127
41162,note_on,0,0,0,,5,,,53,127
41162,note_on,0,0,0,,8,,,44,127
41314,note_off,152,0,0,,2,,,74,127
41314,note_off,0,0,0,,0,,,72,127
41316,note_on,2,0,0,,12,,,71,127
41468,note_off,152,0,0,,12,,,71,127
41470,note_on,2,0,0,,0,,,72,127
41622,note_off,152,0,0,,0,,,72,127
41622,note_off,0,0,0,,8,,,44,127
41622,note_off,0,0,0,,5,,,53,127
41624,note_on,2,0,0,,12,,,71,127
41624,note_on,0,0,0,,7,,,43,127
41624,note_on,0,0,0,,5,,,53,127
41778,note_on,154,0,0,,5,,,65,127
41928,note_off,150,0,0,,12,,,71,127
41931,note_on,3,0,0,,2,,,74,127
42081,note_off,150,0,0,,5,,,65,127
42083,note_off,2,0,0,,5,,,53,127
42083,note_off,0,0,0,,7,,,43,127
42085,note_on,2,0,0,,12,,,71,127
42085,note_on,0,0,0,,7,,,43,127
42085,note_on,0,0,0,,5,,,53,127
42235,note_off,150,0,0,,2,,,74,127
42238,note_on,3,0,0,,2,,,74,127
42388,note_off,150,0,0,,12,,,71,127
42391,note_on,3,0,0,,7,,,67,127
42541,note_off,150,0,0,,2,,,74,127
42543,note_off,2,0,0,,5,,,53,127
42543,note_off,0,0,0,,7,,,43,127
42545,note_on,2,0,0,,2,,,74,127
42545,note_on,0,0,0,,5,,,53,127
42545,note_on,0,0,0,,7,,,43,127
42695,note_off,150,0,0,,7,,,67,127
42698,note_on,3,0,0,,7,,,67,127
42848,note_off,150,0,0,,2,,,74,127
42851,note_on,3,0,0,,5,,,77,127
43001,note_off,150,0,0,,7,,,67,127
43003,note_off,2,0,0,,7,,,43,127
43003,note_off,0,0,0,,5,,,53,127
43005,note_on,2,0,0,,7,,,67,127
43005,note_on,0,0,0,,7,,,43,127
43005,note_on,0,0,0,,5,,,53,127
43155,note_off,150,0,0,,5,,,77,127
43158,note_on,3,0,0,,4,,,76,127
43308,note_off,150,0,0,,7,,,67,127
43311,note_on,3,0,0,,7,,,67,127
43461,note_off,150,0,0,,4,,,76,127
43463,note_off,2,0,0,,5,,,53,127
43463,note_off,0,0,0,,7,,,43,127
43465,note_on,2,0,0,,2,,,74,127
43465,note_on,0,0,0,,5,,,53,127
43465,note_on,0,0,0,,12,,,59,127
43465,note_on,0,0,0,,2,,,62,127
43615,note_off,150,0,0,,7,,,67,127
43618,note_on,3,0,0,,7,,,67,127
43768,note_off,150,0,0,,2,,,74,127
43771,note_on,3,0,0,,4,,,76,127
43921,note_off,150,0,0,,7,,,67,127
43923,note_off,2,0,0,,4,,,76,127
43923,note_off,0,0,0,,2,,,62,127
43923,note_off,0,0,0,,12,,,59,127
43923,note_off,0,0,0,,5,,,53,127
43925,note_on,2,0,0,,5,,,77,127
43925,note_on,0,0,0,,5,,,53,127
43925,note_on,0,0,0,,12,,,59,127
43925,note_on,0,0,0,,2,,,62,127
44079,note_on,154,0,0,,7,,,67,127
44229,note_off,150,0,0,,5,,,77,127
44232,note_on,3,0,0,,4,,,76,127
44382,note_off,150,0,0,,7,,,67,127
44384,note_off,2,0,0,,4,,,76,127
44384,note_off,0,0,0,,2,,,62,127
44384,note_off,0,0,0,,12,,,59,127
44384,note_off,0,0,0,,5,,,53,127
44386,note_on,2,0,0,,2,,,74,127
44386,note_on,0,0,0,,5,,,53,127
44386,note_on,0,0,0,,2,,,62,127
44386,note_on,0,0,0,,12,,,59,127
44540,note_on,154,0,0,,7,,,67,127
44690,note_off,150,0,0,,2,,,74,127
44693,note_on,3,0,0,,4,,,76,127
44843,note_off,150,0,0,,7,,,67,127
44845,note_off,2,0,0,,4,,,76,127
44845,note_off,0,0,0,,12,,,59,127
44845,note_off,0,0,0,,2,,,62,127
44845,note_off,0,0,0,,5,,,53,127
44847,note_on,2,0,0,,5,,,77,127
44847,note_on,0,0,0,,12,,,59,127
44847,note_on,0,0,0,,5,,,53,127
44847,note_on,0,0,0,,2,,,62,127
45001,note_on,154,0,0,,7,,,67,127
45151,note_off,150,0,0,,5,,,77,127
45154,note_on,3,0,0,,4,,,76,127
45304,note_off,150,0,0,,7,,,67,127
45306,note_off,2,0,0,,4,,,76,127
45306,note_off,0,0,0,,2,,,62,127
45306,note_off,0,0,0,,5,,,53,127
45306,note_off,0,0,0,,12,,,59,127
45308,note_on,2,0,0,,2,,,74,127
45308,note_on,0,0,0,,5,,,53,127
45308,note_on,0,0,0,,10,,,57,127
45308,note_on,0,0,0,,12,,,59,127
45308,note_on,0,0,0,,2,,,62,127
45462,note_on,154,0,0,,5,,,65,127
45612,note_off,150,0,0,,2,,,74,127
45615,note_on,3,0,0,,2,,,74,127
45765,note_off,150,0,0,,5,,,65,127
45767,note_off,2,0,0,,2,,,74,127
45767,note_off,0,0,0,,2,,,62,127
45767,note_off,0,0,0,,12,,,59,127
45767,note_off,0,0,0,,10,,,57,127
45767,note_off,0,0,0,,5,,,53,127
45769,note_on,2,0,0,,0,,,72,127
45769,note_on,0,0,0,,2,,,74,127
45769,note_on,0,0,0,,5,,,53,127
45769,note_on,0,0,0,,12,,,59,127
45769,note_on,0,0,0,,10,,,57,127
45769,note_on,0,0,0,,2,,,62,127
45921,note_off,152,0,0,,2,,,74,127
45921,note_off,0,0,0,,0,,,72,127
45923,note_on,2,0,0,,12,,,71,127
46075,note_off,152,0,0,,12,,,71,127
46077,note_on,2,0,0,,0,,,72,127
46229,note_off,152,0,0,,0,,,72,127
46229,note_off,0,0,0,,2,,,62,127
46229,note_off,0,0,0,,10,,,57,127
46229,note_off,0,0,0,,12,,,59,127
46229,note_off,0,0,0,,5,,,53,127
46231,note_on,2,0,0,,12,,,71,127
46231,note_on,0,0,0,,10,,,57,127
46231,note_on,0,0,0,,5,,,53,127
46231,note_on,0,0,0,,12,,,59,127
46231,note_on,0,0,0,,2,,,62,127
46383,note_off,152,0,0,,12,,,71,127
46385,note_on,2,0,0,,10,,,69,127
46537,note_off,152,0,0,,10,,,69,127
46539,note_on,2,0,0,,12,,,71,127
46691,note_off,152,0,0,,12,,,71,127
46691,note_off,0,0,0,,2,,,62,127
46691,note_off,0,0,0,,12,,,59,127
46691,note_off,0,0,0,,5,,,53,127
46691,note_off,0,0,0,,10,,,57,127
46693,note_on,2,0,0,,10,,,69,127
46693,note_on,0,0,0,,12,,,71,127
46693,note_on,0,0,0,,5,,,53,127
46693,note_on,0,0,0,,10,,,57,127
46693,note_on,0,0,0,,2,,,62,127
46693,note_on,0,0,0,,12,,,59,127
46845,note_off,152,0,0,,12,,,71,127
46845,note_off,0,0,0,,10,,,69,127
46847,note_on,2,0,0,,8,,,68,127
46999,note_off,152,0,0,,8,,,68,127
47001,note_on,2,0,0,,10,,,69,127
47153,note_off,152,0,0,,10,,,69,127
47153,note_off,0,0,0,,12,,,59,127
47153,note_off,0,0,0,,2,,,62,127
47153,note_off,0,0,0,,10,,,57,127
47153,note_off,0,0,0,,5,,,53,127
47155,note_on,2,0,0,,10,,,69,127
47155,note_on,0,0,0,,4,,,40,127
47155,note_on,0,0,0,,4,,,52,127
47307,note_off,152,0,0,,10,,,69,127
47309,note_on,2,0,0,,8,,,68,127
47463,note_on,154,0,0,,12,,,71,127
47613,note_off,150,0,0,,8,,,68,127
47615,note_off,2,0,0,,4,,,52,127
47615,note_off,0,0,0,,4,,,40,127
47617,note_on,2,0,0,,4,,,64,127
47617,note_on,0,0,0,,4,,,40,127
47617,note_on,0,0,0,,4,,,52,127
47767,note_off,150,0,0,,12,,,71,127
47770,note_on,3,0,0,,12,,,71,127
47920,note_off,150,0,0,,4,,,64,127
47923,note_on,3,0,0,,8,,,68,127
48073,note_off,150,0,0,,12,,,71,127
48075,note_off,2,0,0,,4,,,52,127
48075,note_off,0,0,0,,4,,,40,127
48077,note_on,2,0,0,,2,,,74,127
48077,note_on,0,0,0,,4,,,52,127
48077,note_on,0,0,0,,4,,,40,127
48227,note_off,150,0,0,,8,,,68,127
48230,note_on,3,0,0,,12,,,71,127
48380,note_off,150,0,0,,2,,,74,127
48383,note_on,3,0,0,,4,,,76,127
48533,note_off,150,0,0,,12,,,71,127
48535,note_off,2,0,0,,4,,,40,127
48535,note_off,0,0,0,,4,,,52,127
48537,note_on,2,0,0,,8,,,68,127
48537,note_on,0,0,0,,4,,,52,127
48537,note_on,0,0,0,,4,,,40,127
48687,note_off,150,0,0,,4,,,76,127
48690,note_on,3,0,0,,12,,,71,127
48840,note_off,150,0,0,,8,,,68,127
48843,note_on,3,0,0,,4,,,64,127
48993,note_off,150,0,0,,12,,,71,127
48995,note_off,2,0,0,,4,,,40,127
48995,note_off,0,0,0,,4,,,52,127
48997,note_on,2,0,0,,0,,,72,127
48997,note_on,0,0,0,,4,,,40,127
48997,note_on,0,0,0,,4,,,52,127
49147,note_off,150,0,0,,4,,,64,127
49150,note_on,3,0,0,,4,,,64,127
49300,note_off,150,0,0,,0,,,72,127
49303,note_on,3,0,0,,10,,,69,127
49453,note_off,150,0,0,,4,,,64,127
49455,note_off,2,0,0,,4,,,52,127
49455,note_off,0,0,0,,4,,,40,127
49457,note_on,2,0,0,,3,,,63,127
49457,note_on,0,0,0,,4,,,52,127
49457,note_on,0,0,0,,4,,,40,127
49607,note_off,150,0,0,,10,,,69,127
49610,note_on,3,0,0,,6,,,66,127
49760,note_off,150,0,0,,3,,,63,127
49763,note_on,3,0,0,,3,,,63,127
49913,note_off,150,0,0,,6,,,66,127
49915,note_off,2,0,0,,4,,,40,127
49915,note_off,0,0,0,,4,,,52,127
49917,note_on,2,0,0,,10,,,69,127
49917,note_on,0,0,0,,4,,,40,127
49917,note_on,0,0,0,,4,,,52,127
50067,note_off,150,0,0,,3,,,63,127
50070,note_on,3,0,0,,6,,,66,127
50220,note_off,150,0,0,,10,,,69,127
50223,note_on,3,0,0,,0,,,72,127
50373,note_off,150,0,0,,6,,,66,127
50375,note_off,2,0,0,,4,,,52,127
50375,note_off,0,0,0,,4,,,40,127
50377,note_on,2,0,0,,10,,,69,127
50377,note_on,0,0,0,,4,,,40,127
50377,note_on,0,0,0,,4,,,52,127
50527,note_off,150,0,0,,0,,,72,127
50530,note_on,3,0,0,,3,,,75,127
50680,note_off,150,0,0,,10,,,69,127
50683,note_on,3,0,0,,10,,,69,127
50833,note_off,150,0,0,,3,,,75,127
50835,note_off,2,0,0,,4,,,52,127
50835,note_off,0,0,0,,4,,,40,127
50837,note_on,2,0,0,,4,,,76,127
50837,note_on,0,0,0,,4,,,52,127
50837,note_on,0,0,0,,4,,,40,127
50987,note_off,150,0,0,,10,,,69,127
50990,note_on,3,0,0,,0,,,72,127
51140,note_off,150,0,0,,4,,,76,127
51143,note_on,3,0,0,,10,,,69,127
51293,note_off,150,0,0,,0,,,72,127
51295,note_off,2,0,0,,4,,,40,127
51295,note_off,0,0,0,,4,,,52,127
51297,note_on,2,0,0,,4,,,64,127
51297,note_on,0,0,0,,4,,,40,127
51297,note_on,0,0,0,,4,,,52,127
51447,note_off,150,0,0,,10,,,69,127
51450,note_on,3,0,0,,10,,,69,127
51600,note_off,150,0,0,,4,,,64,127
51603,note_on,3,0,0,,0,,,72,127
51753,note_off,150,0,0,,10,,,69,127
51755,note_off,2,0,0,,4,,,52,127
51755,note_off,0,0,0,,4,,,40,127
51757,note_on,2,0,0,,4,,,76,127
51757,note_on,0,0,0,,4,,,52,127
51757,note_on,0,0,0,,4,,,40,127
51907,note_off,150,0,0,,0,,,72,127
51910,note_on,3,0,0,,0,,,72,127
52060,note_off,150,0,0,,4,,,76,127
52063,note_on,3,0,0,,10,,,69,127
52213,note_off,150,0,0,,0,,,72,127
52215,note_off,2,0,0,,4,,,40,127
52215,note_off,0,0,0,,4,,,52,127
52217,note_on,2,0,0,,4,,,64,127
52217,note_on,0,0,0,,4,,,52,127
52217,note_on,0,0,0,,4,,,40,127
52367,note_off,150,0,0,,10,,,69,127
52370,note_on,3,0,0,,10,,,69,127
52520,note_off,150,0,0,,4,,,64,127
52523,note_on,3,0,0,,0,,,72,127
52673,note_off,150,0,0,,10,,,69,127
52675,note_off,2,0,0,,4,,,40,127
52675,note_off,0,0,0,,4,,,52,127
52677,note_on,2,0,0,,4,,,76,127
52677,note_on,0,0,0,,4,,,52,127
52677,note_on,0,0,0,,4,,,40,127
52827,note_off,150,0,0,,0,,,72,127
52830,note_on,3,0,0,,12,,,71,127
52980,note_off,150,0,0,,4,,,76,127
52983,note_on,3,0,0,,10,,,69,127
53133,note_off,150,0,0,,12,,,71,127
53135,note_off,2,0,0,,4,,,40,127
53135,note_off,0,0,0,,4,,,52,127
53137,note_on,2,0,0,,4,,,64,127
53137,note_on,0,0,0,,4,,,52,127
53137,note_on,0,0,0,,4,,,40,127
53287,note_off,150,0,0,,10,,,69,127
53290,note_on,3,0,0,,10,,,69,127
53440,note_off,150,0,0,,4,,,64,127
53443,note_on,3,0,0,,12,,,71,127
53593,note_off,150,0,0,,10,,,69,127
53595,note_off,2,0,0,,4,,,40,127
53595,note_off,0,0,0,,4,,,52,127
53597,note_on,2,0,0,,4,,,76,127
53597,note_on,0,0,0,,4,,,40,127
53597,note_on,0,0,0,,4,,,52,127
53747,note_off,150,0,0,,12,,,71,127
53750,note_on,3,0,0,,12,,,71,127
53900,note_off,150,0,0,,4,,,76,127
53903,note_on,3,0,0,,10,,,69,127
54053,note_off,150,0,0,,12,,,71,127
54055,note_off,2,0,0,,4,,,52,127
54055,note_off,0,0,0,,4,,,40,127
54057,note_on,2,0,0,,4,,,64,127
54057,note_on,0,0,0,,4,,,52,127
54057,note_on,0,0,0,,4,,,40,127
54207,note_off,150,0,0,,10,,,69,127
54210,note_on,3,0,0,,10,,,69,127
54360,note_off,150,0,0,,4,,,64,127
54363,note_on,3,0,0,,12,,,71,127
54513,note_off,150,0,0,,10,,,69,127
54515,note_off,2,0,0,,4,,,40,127
54515,note_off,0,0,0,,4,,,52,127
54517,note_on,2,0,0,,4,,,76,127
54517,note_on,0,0,0,,4,,,52,127
54517,note_on,0,0,0,,4,,,40,127
54667,note_off,150,0,0,,12,,,71,127
54670,note_on,3,0,0,,12,,,71,127
54820,note_off,150,0,0,,4,,,76,127
54823,note_on,3,0,0,,7,,,67,127
54973,note_off,150,0,0,,12,,,71,127
54975,note_off,2,0,0,,4,,,40,127
54975,note_off,0,0,0,,4,,,52,127
54977,note_on,2,0,0,,4,,,64,127
54977,note_on,0,0,0,,4,,,40,127
54977,note_on,0,0,0,,4,,,52,127
55127,note_off,150,0,0,,7,,,67,127
55130,note_on,3,0,0,,7,,,67,127
55280,note_off,150,0,0,,4,,,64,127
55283,note_on,3,0,0,,12,,,71,127
55433,note_off,150,0,0,,7,,,67,127
55435,note_off,2,0,0,,4,,,52,127
55435,note_off,0,0,0,,4,,,40,127
55437,note_on,2,0,0,,4,,,76,127
55437,note_on,0,0,0,,4,,,52,127
55437,note_on,0,0,0,,4,,,40,127
55587,note_off,150,0,0,,12,,,71,127
55590,note_on,3,0,0,,12,,,71,127
55740,note_off,150,0,0,,4,,,76,127
55743,note_on,3,0,0,,7,,,67,127
55893,note_off,150,0,0,,12,,,71,127
55895,note_off,2,0,0,,4,,,40,127
55895,note_off,0,0,0,,4,,,52,127
55897,note_on,2,0,0,,4,,,64,127
55897,note_on,0,0,0,,4,,,40,127
55897,note_on,0,0,0,,4,,,52,127
56047,note_off,150,0,0,,7,,,67,127
56050,note_on,3,0,0,,7,,,67,127
56200,note_off,150,0,0,,4,,,64,127
56203,note_on,3,0,0,,2,,,74,127
56353,note_off,150,0,0,,7,,,67,127
56355,note_off,2,0,0,,2,,,74,127
56355,note_off,0,0,0,,4,,,52,127
56355,note_off,0,0,0,,4,,,40,127
56357,note_on,2,0,0,,2,,,74,127
56357,note_on,0,0,0,,1,,,73,127
56357,note_on,0,0,0,,4,,,40,127
56357,note_on,0,0,0,,4,,,52,127
56509,note_off,152,0,0,,2,,,74,127
56511,note_on,2,0,0,,7,,,67,127
56661,note_off,150,0,0,,1,,,73,127
56664,note_on,3,0,0,,4,,,64,127
56814,note_off,150,0,0,,7,,,67,127
56816,note_off,2,0,0,,4,,,52,127
56816,note_off,0,0,0,,4,,,40,127
56818,note_on,2,0,0,,7,,,67,127
56818,note_on,0,0,0,,4,,,40,127
56818,note_on,0,0,0,,4,,,52,127
56968,note_off,150,0,0,,4,,,64,127
56971,note_on,3,0,0,,1,,,73,127
57121,note_off,150,0,0,,7,,,67,127
57124,note_on,3,0,0,,7,,,67,127
57274,note_off,150,0,0,,1,,,73,127
57276,note_off,2,0,0,,4,,,52,127
57276,note_off,0,0,0,,4,,,40,127
57278,note_on,2,0,0,,4,,,64,127
57278,note_on,0,0,0,,4,,,40,127
57278,note_on,0,0,0,,4,,,52,127
57428,note_off,150,0,0,,7,,,67,127
57431,note_on,3,0,0,,7,,,67,127
57581,note_off,150,0,0,,4,,,64,127
57584,note_on,3,0,0,,1,,,73,127
57734,note_off,150,0,0,,7,,,67,127
57736,note_off,2,0,0,,4,,,52,127
57736,note_off,0,0,0,,4,,,40,127
57738,note_on,2,0,0,,7,,,67,127
57738,note_on,0,0,0,,4,,,40,127
57738,note_on,0,0,0,,4,,,52,127
57888,note_off,150,0,0,,1,,,73,127
57891,note_on,3,0,0,,4,,,64,127
58041,note_off,150,0,0,,7,,,67,127
58044,note_on,3,0,0,,10,,,69,127
58194,note_off,150,0,0,,4,,,64,127
58196,note_off,2,0,0,,4,,,52,127
58196,note_off,0,0,0,,4,,,40,127
58198,note_on,2,0,0,,2,,,74,127
58198,note_on,0,0,0,,2,,,38,127
58198,note_on,0,0,0,,2,,,50,127
58348,note_off,150,0,0,,10,,,69,127
58351,note_on,3,0,0,,11,,,70,127
58501,note_off,150,0,0,,2,,,74,127
58504,note_on,3,0,0,,7,,,67,127
58654,note_off,150,0,0,,11,,,70,127
58656,note_off,2,0,0,,2,,,50,127
58656,note_off,0,0,0,,2,,,38,127
58658,note_on,2,0,0,,2,,,62,127
58658,note_on,0,0,0,,2,,,38,127
58658,note_on,0,0,0,,2,,,50,127
58808,note_off,150,0,0,,7,,,67,127
58811,note_on,3,0,0,,7,,,67,127
58961,note_off,150,0,0,,2,,,62,127
58964,note_on,3,0,0,,11,,,70,127
59114,note_off,150,0,0,,7,,,67,127
59116,note_off,2,0,0,,2,,,50,127
59116,note_off,0,0,0,,2,,,38,127
59118,note_on,2,0,0,,2,,,74,127
59118,note_on,0,0,0,,2,,,38,127
59118,note_on,0,0,0,,2,,,50,127
59268,note_off,150,0,0,,11,,,70,127
59271,note_on,3,0,0,,11,,,70,127
59421,note_off,150,0,0,,2,,,74,127
59424,note_on,3,0,0,,7,,,67,127
59574,note_off,150,0,0,,11,,,70,127
59576,note_off,2,0,0,,2,,,50,127
59576,note_off,0,0,0,,2,,,38,127
59578,note_on,2,0,0,,2,,,62,127
59578,note_on,0,0,0,,2,,,38,127
59578,note_on,0,0,0,,2,,,50,127
59728,note_off,150,0,0,,7,,,67,127
59731,note_on,3,0,0,,7,,,67,127
59881,note_off,150,0,0,,2,,,62,127
59884,note_on,3,0,0,,11,,,70,127
60034,note_off,150,0,0,,7,,,67,127
60036,note_off,2,0,0,,2,,,50,127
60036,note_off,0,0,0,,2,,,38,127
60038,note_on,2,0,0,,2,,,74,127
60038,note_on,0,0,0,,2,,,38,127
60038,note_on,0,0,0,,2,,,50,127
60188,note_off,150,0,0,,11,,,70,127
60191,note_on,3,0,0,,10,,,69,127
60341,note_off,150,0,0,,2,,,74,127
60344,note_on,3,0,0,,7,,,67,127
60494,note_off,150,0,0,,10,,,69,127
60496,note_off,2,0,0,,2,,,50,127
60496,note_off,0,0,0,,2,,,38,127
60498,note_on,2,0,0,,2,,,62,127
60498,note_on,0,0,0,,2,,,38,127
60498,note_on,0,0,0,,2,,,50,127
60648,note_off,150,0,0,,7,,,67,127
60651,note_on,3,0,0,,7,,,67,127
60801,note_off,150,0,0,,2,,,62,127
60804,note_on,3,0,0,,10,,,69,127
60954,note_off,150,0,0,,7,,,67,127
60956,note_off,2,0,0,,2,,,50,127
60956,note_off,0,0,0,,2,,,38,127
60958,note_on,2,0,0,,2,,,74,127
60958,note_on,0,0,0,,2,,,50,127
60958,note_on,0,0,0,,2,,,38,127
61108,note_off,150,0,0,,10,,,69,127
61111,note_on,3,0,0,,10,,,69,127
61261,note_off,150,0,0,,2,,,74,127
61264,note_on,3,0,0,,7,,,67,127
61414,note_off,150,0,0,,10,,,69,127
61416,note_off,2,0,0,,2,,,38,127
61416,note_off,0,0,0,,2,,,50,127
61418,note_on,2,0,0,,2,,,62,127
61418,note_on,0,0,0,,2,,,50,127
61418,note_on,0,0,0,,2,,,38,127
61568,note_off,150,0,0,,7,,,67,127
61571,note_on,3,0,0,,7,,,67,127
61721,note_off,150,0,0,,2,,,62,127
61724,note_on,3,0,0,,10,,,69,127
61874,note_off,150,0,0,,7,,,67,127
61876,note_off,2,0,0,,2,,,38,127
61876,note_off,0,0,0,,2,,,50,127
61878,note_on,2,0,0,,2,,,74,127
61878,note_on,0,0,0,,2,,,50,127
61878,note_on,0,0,0,,2,,,38,127
62028,note_off,150,0,0,,10,,,69,127
62031,note_on,3,0,0,,10,,,69,127
62181,note_off,150,0,0,,2,,,74,127
62184,note_on,3,0,0,,5,,,65,127
62334,note_off,150,0,0,,10,,,69,127
62336,note_off,2,0,0,,2,,,38,127
62336,note_off,0,0,0,,2,,,50,127
62338,note_on,2,0,0,,10,,,69,127
62338,note_on,0,0,0,,2,,,50,127
62338,note_on,0,0,0,,2,,,38,127
62488,note_off,150,0,0,,5,,,65,127
62491,note_on,3,0,0,,2,,,74,127
62641,note_off,150,0,0,,10,,,69,127
62644,note_on,3,0,0,,10,,,69,127
62794,note_off,150,0,0,,2,,,74,127
62796,note_off,2,0,0,,2,,,38,127
62796,note_off,0,0,0,,2,,,50,127
62798,note_on,2,0,0,,5,,,65,127
62798,note_on,0,0,0,,2,,,38,127
62798,note_on,0,0,0,,2,,,50,127
62948,note_off,150,0,0,,10,,,69,127
62951,note_on,3,0,0,,10,,,69,127
63101,note_off,150,0,0,,5,,,65,127
63104,note_on,3,0,0,,2,,,74,127
63254,note_off,150,0,0,,10,,,69,127
63256,note_off,2,0,0,,2,,,50,127
63256,note_off,0,0,0,,2,,,38,127
63258,note_on,2,0,0,,7,,,67,127
63258,note_on,0,0,0,,2,,,38,127
63258,note_on,0,0,0,,2,,,50,127
63408,note_off,150,0,0,,2,,,74,127
63411,note_on,3,0,0,,1,,,73,127
63561,note_off,150,0,0,,7,,,67,127
63564,note_on,3,0,0,,4,,,76,127
63714,note_off,150,0,0,,1,,,73,127
63716,note_off,2,0,0,,4,,,76,127
63716,note_off,0,0,0,,2,,,50,127
63716,note_off,0,0,0,,2,,,38,127
63718,note_on,2,0,0,,5,,,77,127
63718,note_on,0,0,0,,2,,,50,127
63718,note_on,0,0,0,,2,,,38,127
63872,note_on,154,0,0,,2,,,74,127
64022,note_off,150,0,0,,5,,,77,127
64025,note_on,3,0,0,,10,,,69,127
64175,note_off,150,0,0,,2,,,74,127
64177,note_off,2,0,0,,2,,,38,127
64177,note_off,0,0,0,,2,,,50,127
64179,note_on,2,0,0,,5,,,65,127
64179,note_on,0,0,0,,2,,,38,127
64179,note_on,0,0,0,,2,,,50,127
64329,note_off,150,0,0,,10,,,69,127
64332,note_on,3,0,0,,10,,,69,127
64482,note_off,150,0,0,,5,,,65,127
64485,note_on,3,0,0,,2,,,74,127
64635,note_off,150,0,0,,10,,,69,127
64637,note_off,2,0,0,,2,,,50,127
64637,note_off,0,0,0,,2,,,38,127
64639,note_on,2,0,0,,5,,,77,127
64639,note_on,0,0,0,,2,,,38,127
64639,note_on,0,0,0,,2,,,50,127
64789,note_off,150,0,0,,2,,,74,127
64792,note_on,3,0,0,,2,,,74,127
64942,note_off,150,0,0,,5,,,77,127
64945,note_on,3,0,0,,10,,,69,127
65095,note_off,150,0,0,,2,,,74,127
65097,note_off,2,0,0,,2,,,50,127
65097,note_off,0,0,0,,2,,,38,127
65099,note_on,2,0,0,,5,,,65,127
65099,note_on,0,0,0,,2,,,50,127
65099,note_on,0,0,0,,2,,,38,127
65249,note_off,150,0,0,,10,,,69,127
65252,note_on,3,0,0,,10,,,69,127
65402,note_off,150,0,0,,5,,,65,127
65405,note_on,3,0,0,,2,,,74,127
65555,note_off,150,0,0,,10,,,69,127
65557,note_off,2,0,0,,2,,,38,127
65557,note_off,0,0,0,,2,,,50,127
65559,note_on,2,0,0,,5,,,77,127
65559,note_on,0,0,0,,2,,,50,127
65559,note_on,0,0,0,,2,,,38,127
65709,note_off,150,0,0,,2,,,74,127
65712,note_on,3,0,0,,2,,,74,127
65862,note_off,150,0,0,,5,,,77,127
65865,note_on,3,0,0,,10,,,69,127
66015,note_off,150,0,0,,2,,,74,127
66017,note_off,2,0,0,,2,,,38,127
66017,note_off,0,0,0,,2,,,50,127
66019,note_on,2,0,0,,5,,,65,127
66019,note_on,0,0,0,,2,,,38,127
66019,note_on,0,0,0,,2,,,50,127
66169,note_off,150,0,0,,10,,,69,127
66172,note_on,3,0,0,,10,,,69,127
66322,note_off,150,0,0,,5,,,65,127
66325,note_on,3,0,0,,2,,,74,127
66475,note_off,150,0,0,,10,,,69,127
66477,note_off,2,0,0,,2,,,50,127
66477,note_off,0,0,0,,2,,,38,127
66479,note_on,2,0,0,,5,,,77,127
66479,note_on,0,0,0,,2,,,38,127
66479,note_on,0,0,0,,2,,,50,127
66629,note_off,150,0,0,,2,,,74,127
66632,note_on,3,0,0,,2,,,74,127
66782,note_off,150,0,0,,5,,,77,127
66785,note_on,3,0,0,,12,,,71,127
66935,note_off,150,0,0,,2,,,74,127
66937,note_off,2,0,0,,2,,,50,127
66937,note_off,0,0,0,,2,,,38,127
66939,note_on,2,0,0,,5,,,65,127
66939,note_on,0,0,0,,2,,,38,127
66939,note_on,0,0,0,,2,,,50,127
67089,note_off,150,0,0,,12,,,71,127
67092,note_on,3,0,0,,12,,,71,127
67242,note_off,150,0,0,,5,,,65,127
67245,note_on,3,0,0,,7,,,67,127
67395,note_off,150,0,0,,12,,,71,127
67397,note_off,2,0,0,,7,,,67,127
67397,note_off,0,0,0,,2,,,50,127
67397,note_off,0,0,0,,2,,,38,127
67399,note_on,2,0,0,,8,,,68,127
67399,note_on,0,0,0,,0,,,36,127
67399,note_on,0,0,0,,0,,,48,127
67553,note_on,154,0,0,,0,,,72,127
67703,note_off,150,0,0,,8,,,68,127
67706,note_on,3,0,0,,5,,,77,127
67856,note_off,150,0,0,,0,,,72,127
67858,note_off,2,0,0,,0,,,48,127
67858,note_off,0,0,0,,0,,,36,127
67860,note_on,2,0,0,,0,,,72,127
67860,note_on,0,0,0,,0,,,36,127
67860,note_on,0,0,0,,0,,,48,127
68010,note_off,150,0,0,,5,,,77,127
68013,note_on,3,0,0,,8,,,68,127
68163,note_off,150,0,0,,0,,,72,127
68166,note_on,3,0,0,,5,,,65,127
68316,note_off,150,0,0,,8,,,68,127
68318,note_off,2,0,0,,0,,,48,127
68318,note_off,0,0,0,,0,,,36,127
68320,note_on,2,0,0,,8,,,68,127
68320,note_on,0,0,0,,0,,,36,127
68320,note_on,0,0,0,,0,,,48,127
68470,note_off,150,0,0,,5,,,65,127
68473,note_on,3,0,0,,0,,,72,127
68623,note_off,150,0,0,,8,,,68,127
68626,note_on,3,0,0,,5,,,77,127
68776,note_off,150,0,0,,0,,,72,127
68778,note_off,2,0,0,,0,,,48,127
68778,note_off,0,0,0,,0,,,36,127
68780,note_on,2,0,0,,0,,,72,127
68780,note_on,0,0,0,,0,,,36,127
68780,note_on,0,0,0,,0,,,48,127
68930,note_off,150,0,0,,5,,,77,127
68933,note_on,3,0,0,,8,,,68,127
69083,note_off,150,0,0,,0,,,72,127
69086,note_on,3,0,0,,5,,,65,127
69236,note_off,150,0,0,,8,,,68,127
69238,note_off,2,0,0,,0,,,48,127
69238,note_off,0,0,0,,0,,,36,127
69240,note_on,2,0,0,,7,,,67,127
69240,note_on,0,0,0,,0,,,36,127
69240,note_on,0,0,0,,0,,,48,127
69390,note_off,150,0,0,,5,,,65,127
69393,note_on,3,0,0,,12,,,71,127
69543,note_off,150,0,0,,7,,,67,127
69546,note_on,3,0,0,,2,,,74,127
69696,note_off,150,0,0,,12,,,71,127
69698,note_off,2,0,0,,0,,,48,127
69698,note_off,0,0,0,,0,,,36,127
69700,note_on,2,0,0,,5,,,77,127
69700,note_on,0,0,0,,0,,,36,127
69700,note_on,0,0,0,,0,,,48,127
69850,note_off,150,0,0,,2,,,74,127
69853,note_on,3,0,0,,2,,,74,127
70003,note_off,150,0,0,,5,,,77,127
70006,note_on,3,0,0,,12,,,71,127
70156,note_off,150,0,0,,2,,,74,127
70158,note_off,2,0,0,,0,,,48,127
70158,note_off,0,0,0,,0,,,36,127
70160,note_on,2,0,0,,7,,,67,127
70160,note_on,0,0,0,,0,,,36,127
70160,note_on,0,0,0,,0,,,48,127
70310,note_off,150,0,0,,12,,,71,127
70313,note_on,3,0,0,,12,,,71,127
70463,note_off,150,0,0,,7,,,67,127
70466,note_on,3,0,0,,2,,,74,127
70616,note_off,150,0,0,,12,,,71,127
70618,note_off,2,0,0,,0,,,48,127
70618,note_off,0,0,0,,0,,,36,127
70620,note_on,2,0,0,,5,,,77,127
70620,note_on,0,0,0,,0,,,36,127
70620,note_on,0,0,0,,0,,,48,127
70770,note_off,150,0,0,,2,,,74,127
70773,note_on,3,0,0,,12,,,71,127
70923,note_off,150,0,0,,5,,,77,127
70926,note_on,3,0,0,,7,,,67,127
71076,note_off,150,0,0,,12,,,71,127
71078,note_off,2,0,0,,0,,,48,127
71078,note_off,0,0,0,,0,,,36,127
71080,note_on,2,0,0,,3,,,75,127
71080,note_on,0,0,0,,0,,,36,127
71080,note_on,0,0,0,,0,,,48,127
71230,note_off,150,0,0,,7,,,67,127
71233,note_on,3,0,0,,0,,,72,127
71383,note_off,150,0,0,,3,,,75,127
71386,note_on,3,0,0,,7,,,67,127
71536,note_off,150,0,0,,0,,,72,127
71538,note_off,2,0,0,,0,,,48,127
71538,note_off,0,0,0,,0,,,36,127
71540,note_on,2,0,0,,3,,,63,127
71540,note_on,0,0,0,,0,,,36,127
71540,note_on,0,0,0,,0,,,48,127
71690,note_off,150,0,0,,7,,,67,127
71693,note_on,3,0,0,,7,,,67,127
71843,note_off,150,0,0,,3,,,63,127
71846,note_on,3,0,0,,0,,,72,127
71996,note_off,150,0,0,,7,,,67,127
71998,note_off,2,0,0,,0,,,48,127
71998,note_off,0,0,0,,0,,,36,127
72000,note_on,2,0,0,,3,,,75,127
72000,note_on,0,0,0,,0,,,36,127
72000,note_on,0,0,0,,0,,,48,127
72150,note_off,150,0,0,,0,,,72,127
72153,note_on,3,0,0,,0,,,72,127
72303,note_off,150,0,0,,3,,,75,127
72306,note_on,3,0,0,,7,,,67,127
72456,note_off,150,0,0,,0,,,72,127
72458,note_off,2,0,0,,0,,,48,127
72458,note_off,0,0,0,,0,,,36,127
72460,note_on,2,0,0,,3,,,63,127
72460,note_on,0,0,0,,0,,,36,127
72460,note_on,0,0,0,,0,,,48,127
72610,note_off,150,0,0,,7,,,67,127
72613,note_on,3,0,0,,7,,,67,127
72763,note_off,150,0,0,,3,,,63,127
72766,note_on,3,0,0,,0,,,72,127
72916,note_off,150,0,0,,7,,,67,127
72918,note_off,2,0,0,,0,,,48,127
72918,note_off,0,0,0,,0,,,36,127
72920,note_on,2,0,0,,3,,,75,127
72920,note_on,0,0,0,,0,,,36,127
72920,note_on,0,0,0,,0,,,48,127
73070,note_off,150,0,0,,0,,,72,127
73073,note_on,3,0,0,,0,,,72,127
73223,note_off,150,0,0,,3,,,75,127
73226,note_on,3,0,0,,7,,,67,127
73376,note_off,150,0,0,,0,,,72,127
73378,note_off,2,0,0,,0,,,48,127
73378,note_off,0,0,0,,0,,,36,127
73380,note_on,2,0,0,,3,,,63,127
73380,note_on,0,0,0,,0,,,48,127
73380,note_on,0,0,0,,0,,,36,127
73530,note_off,150,0,0,,7,,,67,127
73533,note_on,3,0,0,,7,,,67,127
73683,note_off,150,0,0,,3,,,63,127
73686,note_on,3,0,0,,0,,,72,127
73836,note_off,150,0,0,,7,,,67,127
73838,note_off,2,0,0,,0,,,36,127
73838,note_off,0,0,0,,0,,,48,127
73840,note_on,2,0,0,,3,,,75,127
73840,note_on,0,0,0,,0,,,36,127
73840,note_on,0,0,0,,0,,,48,127
73990,note_off,150,0,0,,0,,,72,127
73993,note_on,3,0,0,,0,,,72,127
74143,note_off,150,0,0,,3,,,75,127
74146,note_on,3,0,0,,7,,,67,127
74296,note_off,150,0,0,,0,,,72,127
74298,note_off,2,0,0,,0,,,48,127
74298,note_off,0,0,0,,0,,,36,127
74300,note_on,2,0,0,,3,,,63,127
74300,note_on,0,0,0,,0,,,36,127
74300,note_on,0,0,0,,0,,,48,127
74450,note_off,150,0,0,,7,,,67,127
74453,note_on,3,0,0,,10,,,69,127
74603,note_off,150,0,0,,3,,,63,127
74606,note_on,3,0,0,,5,,,65,127
74756,note_off,150,0,0,,10,,,69,127
74758,note_off,2,0,0,,0,,,48,127
74758,note_off,0,0,0,,0,,,36,127
74760,note_on,2,0,0,,3,,,75,127
74760,note_on,0,0,0,,11,,,46,127
74760,note_on,0,0,0,,11,,,34,127
74910,note_off,150,0,0,,5,,,65,127
74913,note_on,3,0,0,,11,,,70,127
75063,note_off,150,0,0,,3,,,75,127
75066,note_on,3,0,0,,6,,,66,127
75216,note_off,150,0,0,,11,,,70,127
75218,note_off,2,0,0,,11,,,34,127
75218,note_off,0,0,0,,11,,,46,127
75220,note_on,2,0,0,,11,,,70,127
75220,note_on,0,0,0,,11,,,46,127
75220,note_on,0,0,0,,11,,,34,127
75297,note_off,77,0,0,,6,,,66,127
75374,note_on,77,0,0,,3,,,75,127
75451,note_off,77,0,0,,11,,,70,127
75528,note_on,77,0,0,,11,,,70,127
75605,note_off,77,0,0,,3,,,75,127
75680,note_off,75,0,0,,11,,,34,127
75680,note_off,0,0,0,,11,,,46,127
75682,note_on,2,0,0,,6,,,66,127
75682,note_on,0,0,0,,11,,,46,127
75682,note_on,0,0,0,,11,,,34,127
75759,note_off,77,0,0,,11,,,70,127
75836,note_on,77,0,0,,11,,,70,127
75913,note_off,77,0,0,,6,,,66,127
75990,note_on,77,0,0,,3,,,75,127
76140,note_off,150,0,0,,11,,,70,127
76142,note_off,2,0,0,,11,,,34,127
76142,note_off,0,0,0,,11,,,46,127
76144,note_on,2,0,0,,11,,,70,127
76144,note_on,0,0,0,,11,,,46,127
76144,note_on,0,0,0,,11,,,34,127
76221,note_off,77,0,0,,3,,,75,127
76296,note_off,75,0,0,,11,,,70,127
76298,note_on,2,0,0,,7,,,67,127
76452,note_on,154,0,0,,3,,,75,127
76602,note_off,150,0,0,,7,,,67,127
76604,note_off,2,0,0,,3,,,75,127
76604,note_off,0,0,0,,11,,,34,127
76604,note_off,0,0,0,,11,,,46,127
76606,note_on,2,0,0,,11,,,70,127
76606,note_on,0,0,0,,11,,,46,127
76606,note_on,0,0,0,,11,,,34,127
76758,note_off,152,0,0,,11,,,70,127
76760,note_on,2,0,0,,0,,,72,127
76912,note_off,152,0,0,,0,,,72,127
76914,note_on,2,0,0,,2,,,74,127
77066,note_off,152,0,0,,2,,,74,127
77068,note_on,2,0,0,,3,,,75,127
77220,note_off,152,0,0,,3,,,75,127
77222,note_on,2,0,0,,5,,,77,127
77374,note_off,152,0,0,,5,,,77,127
77376,note_on,2,0,0,,7,,,79,127
77528,note_off,152,0,0,,7,,,79,127
77528,note_off,0,0,0,,11,,,34,127
77528,note_off,0,0,0,,11,,,46,127
77530,note_on,2,0,0,,8,,,80,127
77530,note_on,0,0,0,,11,,,58,127
77682,note_off,152,0,0,,11,,,58,127
77684,note_on,2,0,0,,0,,,60,127
77836,note_off,152,0,0,,0,,,60,127
77838,note_on,2,0,0,,2,,,62,127
77990,note_off,152,0,0,,2,,,62,127
77990,note_off,0,0,0,,8,,,80,127
77992,note_on,2,0,0,,7,,,79,127
77992,note_on,0,0,0,,3,,,63,127
78144,note_off,152,0,0,,3,,,63,127
78146,note_on,2,0,0,,5,,,65,127
78298,note_off,152,0,0,,5,,,65,127
78300,note_on,2,0,0,,7,,,67,127
78452,note_off,152,0,0,,7,,,67,127
78452,note_off,0,0,0,,7,,,79,127
78454,note_on,2,0,0,,11,,,70,127
78454,note_on,0,0,0,,8,,,68,127
78606,note_off,152,0,0,,11,,,70,127
78608,note_on,2,0,0,,0,,,72,127
78760,note_off,152,0,0,,0,,,72,127
78762,note_on,2,0,0,,2,,,74,127
78914,note_off,152,0,0,,2,,,74,127
78914,note_off,0,0,0,,8,,,68,127
78916,note_on,2,0,0,,3,,,75,127
78916,note_on,0,0,0,,7,,,67,127
79068,note_off,152,0,0,,3,,,75,127
79070,note_on,2,0,0,,5,,,77,127
79222,note_off,152,0,0,,5,,,77,127
79224,note_on,2,0,0,,7,,,79,127
79376,note_off,152,0,0,,7,,,79,127
79376,note_off,0,0,0,,7,,,67,127
79378,note_on,2,0,0,,8,,,80,127
79378,note_on,0,0,0,,11,,,46,127
79530,note_off,152,0,0,,11,,,46,127
79532,note_on,2,0,0,,0,,,48,127
79684,note_off,152,0,0,,0,,,48,127
79686,note_on,2,0,0,,2,,,50,127
79838,note_off,152,0,0,,2,,,50,127
79838,note_off,0,0,0,,8,,,80,127
79840,note_on,2,0,0,,7,,,79,127
79840,note_on,0,0,0,,3,,,51,127
79992,note_off,152,0,0,,3,,,51,127
79994,note_on,2,0,0,,5,,,53,127
80146,note_off,152,0,0,,5,,,53,127
80148,note_on,2,0,0,,7,,,55,127
80300,note_off,152,0,0,,7,,,55,127
80300,note_off,0,0,0,,7,,,79,127
80302,note_on,2,0,0,,0,,,72,127
80302,note_on,0,0,0,,8,,,56,127
80454,note_off,152,0,0,,0,,,72,127
80456,note_on,2,0,0,,2,,,74,127
80608,note_off,152,0,0,,2,,,74,127
80610,note_on,2,0,0,,3,,,75,127
80762,note_off,152,0,0,,8,,,56,127
80764,note_on,2,0,0,,11,,,58,127
80916,note_off,152,0,0,,3,,,75,127
80918,note_on,2,0,0,,5,,,77,127
81070,note_off,152,0,0,,5,,,77,127
81072,note_on,2,0,0,,2,,,74,127
81224,note_off,152,0,0,,2,,,74,127
81224,note_off,0,0,0,,11,,,58,127
81226,note_on,2,0,0,,3,,,75,127
81226,note_on,0,0,0,,3,,,51,127
81378,note_off,152,0,0,,3,,,75,127
81380,note_on,2,0,0,,11,,,70,127
81380,note_on,0,0,0,,11,,,82,127
81532,note_off,152,0,0,,11,,,82,127
81532,note_off,0,0,0,,11,,,70,127
81534,note_on,2,0,0,,11,,,70,127
81534,note_on,0,0,0,,11,,,82,127
81686,note_off,152,0,0,,11,,,82,127
81686,note_off,0,0,0,,11,,,70,127
81688,note_on,2,0,0,,11,,,82,127
81688,note_on,0,0,0,,11,,,70,127
81840,note_off,152,0,0,,11,,,82,127
81842,note_on,2,0,0,,8,,,80,127
81994,note_off,152,0,0,,8,,,80,127
81996,note_on,2,0,0,,5,,,77,127
82148,note_off,152,0,0,,5,,,77,127
82149,note_off,1,0,0,,11,,,70,127
82150,note_off,1,0,0,,3,,,51,127
82150,note_on,0,0,0,,7,,,79,127
82304,note_on,154,0,0,,11,,,70,127
82304,note_on,0,0,0,,11,,,58,127
82456,note_off,152,0,0,,11,,,58,127
82456,note_off,0,0,0,,11,,,70,127
82458,note_on,2,0,0,,11,,,70,127
82458,note_on,0,0,0,,11,,,58,127
82610,note_off,152,0,0,,11,,,58,127
82610,note_off,0,0,0,,11,,,70,127
82611,note_off,1,0,0,,7,,,79,127
82612,note_on,1,0,0,,5,,,77,127
82612,note_on,0,0,0,,11,,,70,127
82612,note_on,0,0,0,,11,,,58,127
82764,note_off,152,0,0,,11,,,70,127
82766,note_on,2,0,0,,8,,,68,127
82918,note_off,152,0,0,,8,,,68,127
82920,note_on,2,0,0,,5,,,65,127
83072,note_off,152,0,0,,5,,,65,127
83072,note_off,0,0,0,,11,,,58,127
83073,note_off,1,0,0,,5,,,77,127
83074,note_on,1,0,0,,11,,,58,127
83074,note_on,0,0,0,,7,,,67,127
83228,note_on,154,0,0,,11,,,82,127
83228,note_on,0,0,0,,11,,,70,127
83380,note_off,152,0,0,,11,,,70,127
83380,note_off,0,0,0,,11,,,82,127
83382,note_on,2,0,0,,11,,,82,127
83382,note_on,0,0,0,,11,,,70,127
83534,note_off,152,0,0,,11,,,70,127
83534,note_off,0,0,0,,11,,,82,127
83534,note_off,0,0,0,,7,,,67,127
83534,note_off,0,0,0,,11,,,58,127
83536,note_on,2,0,0,,11,,,70,127
83536,note_on,0,0,0,,11,,,82,127
83536,note_on,0,0,0,,11,,,58,127
83536,note_on,0,0,0,,5,,,65,127
83688,note_off,152,0,0,,11,,,82,127
83690,note_on,2,0,0,,8,,,80,127
83842,note_off,152,0,0,,8,,,80,127
83844,note_on,2,0,0,,5,,,77,127
83996,note_off,152,0,0,,5,,,77,127
83996,note_off,0,0,0,,5,,,65,127
83996,note_off,0,0,0,,11,,,58,127
83997,note_off,1,0,0,,11,,,70,127
83998,note_on,1,0,0,,7,,,79,127
83998,note_on,0,0,0,,11,,,46,127
84152,note_on,154,0,0,,11,,,58,127
84304,note_off,152,0,0,,11,,,58,127
84306,note_on,2,0,0,,11,,,58,127
84458,note_off,152,0,0,,11,,,58,127
84458,note_off,0,0,0,,7,,,79,127
84459,note_off,1,0,0,,11,,,46,127
84460,note_on,1,0,0,,5,,,77,127
84460,note_on,0,0,0,,11,,,46,127
84460,note_on,0,0,0,,11,,,58,127
84612,note_off,152,0,0,,11,,,58,127
84614,note_on,2,0,0,,8,,,56,127
84766,note_off,152,0,0,,8,,,56,127
84768,note_on,2,0,0,,5,,,53,127
84920,note_off,152,0,0,,5,,,53,127
84921,note_off,1,0,0,,11,,,46,127
84921,note_off,0,0,0,,5,,,77,127
84922,note_on,1,0,0,,7,,,55,127
85076,note_on,154,0,0,,3,,,75,127
85228,note_off,152,0,0,,3,,,75,127
85230,note_on,2,0,0,,2,,,74,127
85382,note_off,152,0,0,,2,,,74,127
85382,note_off,0,0,0,,7,,,55,127
85384,note_on,2,0,0,,3,,,75,127
85384,note_on,0,0,0,,3,,,51,127
85536,note_off,152,0,0,,3,,,75,127
85538,note_on,2,0,0,,5,,,77,127
85690,note_off,152,0,0,,5,,,77,127
85692,note_on,2,0,0,,7,,,79,127
85844,note_off,152,0,0,,3,,,51,127
85846,note_on,2,0,0,,0,,,72,127
85846,note_on,0,0,0,,8,,,56,127
85996,note_off,150,0,0,,7,,,79,127
85998,note_off,2,0,0,,0,,,72,127
86000,note_on,2,0,0,,11,,,82,127
86000,note_on,0,0,0,,8,,,80,127
86152,note_off,152,0,0,,8,,,80,127
86152,note_off,0,0,0,,11,,,82,127
86154,note_on,2,0,0,,7,,,79,127
86306,note_off,152,0,0,,7,,,79,127
86306,note_off,0,0,0,,8,,,56,127
86308,note_on,2,0,0,,5,,,77,127
86308,note_on,0,0,0,,11,,,58,127
86460,note_off,152,0,0,,5,,,77,127
86462,note_on,2,0,0,,3,,,75,127
86614,note_off,152,0,0,,3,,,75,127
86616,note_on,2,0,0,,2,,,74,127
86768,note_off,152,0,0,,2,,,74,127
86768,note_off,0,0,0,,11,,,58,127
86770,note_on,2,0,0,,3,,,75,127
86770,note_on,0,0,0,,3,,,51,127
86922,note_off,152,0,0,,3,,,75,127
86924,note_on,2,0,0,,11,,,82,127
86924,note_on,0,0,0,,11,,,70,127
87076,note_off,152,0,0,,11,,,70,127
87076,note_off,0,0,0,,11,,,82,127
87078,note_on,2,0,0,,11,,,82,127
87078,note_on,0,0,0,,11,,,70,127
87230,note_off,152,0,0,,11,,,70,127
87230,note_off,0,0,0,,11,,,82,127
87232,note_on,2,0,0,,11,,,70,127
87232,note_on,0,0,0,,11,,,82,127
87384,note_off,152,0,0,,11,,,82,127
87386,note_on,2,0,0,,8,,,80,127
87538,note_off,152,0,0,,8,,,80,127
87540,note_on,2,0,0,,5,,,77,127
87692,note_off,152,0,0,,5,,,77,127
87693,note_off,1,0,0,,11,,,70,127
87694,note_off,1,0,0,,3,,,51,127
87694,note_on,0,0,0,,7,,,79,127
87848,note_on,154,0,0,,11,,,70,127
87848,note_on,0,0,0,,11,,,58,127
88000,note_off,152,0,0,,11,,,58,127
88000,note_off,0,0,0,,11,,,70,127
88002,note_on,2,0,0,,11,,,70,127
88002,note_on,0,0,0,,11,,,58,127
88154,note_off,152,0,0,,11,,,58,127
88154,note_off,0,0,0,,11,,,70,127
88155,note_off,1,0,0,,7,,,79,127
88156,note_on,1,0,0,,5,,,77,127
88156,note_on,0,0,0,,11,,,70,127
88156,note_on,0,0,0,,11,,,58,127
88308,note_off,152,0,0,,11,,,70,127
88310,note_on,2,0,0,,8,,,68,127
88462,note_off,152,0,0,,8,,,68,127
88464,note_on,2,0,0,,5,,,65,127
88616,note_off,152,0,0,,5,,,65,127
88616,note_off,0,0,0,,11,,,58,127
88617,note_off,1,0,0,,5,,,77,127
88618,note_on,1,0,0,,11,,,58,127
88618,note_on,0,0,0,,7,,,67,127
88772,note_on,154,0,0,,11,,,82,127
88772,note_on,0,0,0,,11,,,70,127
88924,note_off,152,0,0,,11,,,70,127
88924,note_off,0,0,0,,11,,,82,127
88926,note_on,2,0,0,,11,,,70,127
88926,note_on,0,0,0,,11,,,82,127
89078,note_off,152,0,0,,11,,,82,127
89078,note_off,0,0,0,,11,,,70,127
89078,note_off,0,0,0,,7,,,67,127
89078,note_off,0,0,0,,11,,,58,127
89080,note_on,2,0,0,,11,,,70,127
89080,note_on,0,0,0,,11,,,82,127
89080,note_on,0,0,0,,11,,,58,127
89080,note_on,0,0,0,,5,,,65,127
89232,note_off,152,0,0,,11,,,82,127
89234,note_on,2,0,0,,8,,,80,127
89386,note_off,152,0,0,,8,,,80,127
89388,note_on,2,0,0,,5,,,77,127
89540,note_off,152,0,0,,5,,,77,127
89540,note_off,0,0,0,,5,,,65,127
89540,note_off,0,0,0,,11,,,58,127
89541,note_off,1,0,0,,11,,,70,127
89542,note_on,1,0,0,,7,,,79,127
89542,note_on,0,0,0,,11,,,46,127
89696,note_on,154,0,0,,11,,,58,127
89848,note_off,152,0,0,,11,,,58,127
89850,note_on,2,0,0,,11,,,58,127
90002,note_off,152,0,0,,11,,,58,127
90002,note_off,0,0,0,,7,,,79,127
90003,note_off,1,0,0,,11,,,46,127
90004,note_on,1,0,0,,5,,,77,127
90004,note_on,0,0,0,,11,,,46,127
90004,note_on,0,0,0,,11,,,58,127
90156,note_off,152,0,0,,11,,,58,127
90158,note_on,2,0,0,,8,,,56,127
90310,note_off,152,0,0,,8,,,56,127
90312,note_on,2,0,0,,5,,,53,127
90464,note_off,152,0,0,,5,,,53,127
90465,note_off,1,0,0,,11,,,46,127
90465,note_off,0,0,0,,5,,,77,127
90466,note_on,1,0,0,,7,,,55,127
90620,note_on,154,0,0,,3,,,75,127
90772,note_off,152,0,0,,3,,,75,127
90774,note_on,2,0,0,,2,,,74,127
90926,note_off,152,0,0,,2,,,74,127
90926,note_off,0,0,0,,7,,,55,127
90928,note_on,2,0,0,,3,,,75,127
90928,note_on,0,0,0,,3,,,51,127
91080,note_off,152,0,0,,3,,,75,127
91082,note_on,2,0,0,,5,,,77,127
91234,note_off,152,0,0,,5,,,77,127
91236,note_on,2,0,0,,7,,,79,127
91388,note_off,152,0,0,,3,,,51,127
91390,note_on,2,0,0,,0,,,72,127
91390,note_on,0,0,0,,8,,,56,127
91540,note_off,150,0,0,,7,,,79,127
91542,note_off,2,0,0,,0,,,72,127
91544,note_on,2,0,0,,11,,,82,127
91544,note_on,0,0,0,,8,,,80,127
91696,note_off,152,0,0,,8,,,80,127
91696,note_off,0,0,0,,11,,,82,127
91698,note_on,2,0,0,,7,,,79,127
91850,note_off,152,0,0,,7,,,79,127
91850,note_off,0,0,0,,8,,,56,127
91852,note_on,2,0,0,,5,,,77,127
91852,note_on,0,0,0,,11,,,58,127
92004,note_off,152,0,0,,5,,,77,127
92006,note_on,2,0,0,,3,,,75,127
92158,note_off,152,0,0,,3,,,75,127
92160,note_on,2,0,0,,2,,,74,127
92312,note_off,152,0,0,,2,,,74,127
92312,note_off,0,0,0,,11,,,58,127
92314,note_on,2,0,0,,3,,,75,127
92314,note_on,0,0,0,,3,,,51,127
92466,note_off,152,0,0,,3,,,75,127
92468,note_on,2,0,0,,5,,,77,127
92620,note_off,152,0,0,,5,,,77,127
92622,note_on,2,0,0,,7,,,79,127
92774,note_off,152,0,0,,3,,,51,127
92776,note_on,2,0,0,,11,,,70,127
92776,note_on,0,0,0,,7,,,43,127
92926,note_off,150,0,0,,7,,,79,127
92929,note_on,3,0,0,,3,,,75,127
93081,note_off,152,0,0,,3,,,75,127
93083,note_on,2,0,0,,2,,,74,127
93235,note_off,152,0,0,,2,,,74,127
93235,note_off,0,0,0,,7,,,43,127
93236,note_off,1,0,0,,11,,,70,127
93237,note_on,1,0,0,,0,,,72,127
93237,note_on,0,0,0,,8,,,44,127
93389,note_off,152,0,0,,0,,,72,127
93391,note_on,2,0,0,,11,,,70,127
93543,note_off,152,0,0,,11,,,70,127
93545,note_on,2,0,0,,8,,,68,127
93697,note_off,152,0,0,,8,,,68,127
93697,note_off,0,0,0,,8,,,44,127
93699,note_on,2,0,0,,7,,,67,127
93699,note_on,0,0,0,,11,,,46,127
93851,note_off,152,0,0,,7,,,67,127
93853,note_on,2,0,0,,8,,,68,127
94005,note_off,152,0,0,,8,,,68,127
94007,note_on,2,0,0,,5,,,65,127
94159,note_off,152,0,0,,5,,,65,127
94159,note_off,0,0,0,,11,,,46,127
94161,note_on,2,0,0,,3,,,63,127
94161,note_on,0,0,0,,3,,,39,127
94161,note_on,0,0,0,,3,,,51,127
96002,note_off,1841,0,0,,3,,,51,127
96002,note_off,0,0,0,,3,,,39,127
96002,note_off,0,0,0,,3,,,63,127
99840,end_of_track,3838,1,0,,,,,,
